{"metadata": {"schema_version": "0.2", "title": "None", "source_filename": "742.mid", "source_format": "midi"}, "resolution": 12, "tempos": [{"time": 0, "qpm": 82.31005924952431}], "time_signatures": [{"time": 0, "numerator": 1, "denominator": 4}], "tracks": [{"program": 4, "is_drum": false, "name": "MELODY", "notes": [{"time": 200, "pitch": 63, "duration": 6, "velocity": 107}, {"time": 206, "pitch": 60, "duration": 5, "velocity": 79}, {"time": 212, "pitch": 58, "duration": 6, "velocity": 88}, {"time": 218, "pitch": 60, "duration": 6, "velocity": 71}, {"time": 224, "pitch": 58, "duration": 21, "velocity": 72}, {"time": 260, "pitch": 58, "duration": 5, "velocity": 90}, {"time": 266, "pitch": 60, "duration": 6, "velocity": 76}, {"time": 272, "pitch": 63, "duration": 3, "velocity": 64}, {"time": 278, "pitch": 63, "duration": 4, "velocity": 89}, {"time": 284, "pitch": 65, "duration": 5, "velocity": 92}, {"time": 290, "pitch": 63, "duration": 5, "velocity": 89}, {"time": 296, "pitch": 65, "duration": 6, "velocity": 96}, {"time": 302, "pitch": 67, "duration": 15, "velocity": 89}, {"time": 344, "pitch": 67, "duration": 3, "velocity": 93}, {"time": 350, "pitch": 67, "duration": 3, "velocity": 93}, {"time": 356, "pitch": 67, "duration": 5, "velocity": 96}, {"time": 362, "pitch": 65, "duration": 3, "velocity": 86}, {"time": 368, "pitch": 65, "duration": 6, "velocity": 93}, {"time": 374, "pitch": 63, "duration": 5, "velocity": 93}, {"time": 380, "pitch": 65, "duration": 8, "velocity": 81}, {"time": 392, "pitch": 60, "duration": 24, "velocity": 81}, {"time": 428, "pitch": 67, "duration": 3, "velocity": 95}, {"time": 434, "pitch": 67, "duration": 2, "velocity": 89}, {"time": 440, "pitch": 67, "duration": 5, "velocity": 99}, {"time": 446, "pitch": 65, "duration": 2, "velocity": 77}, {"time": 449, "pitch": 65, "duration": 6, "velocity": 95}, {"time": 458, "pitch": 63, "duration": 5, "velocity": 86}, {"time": 464, "pitch": 60, "duration": 12, "velocity": 68}, {"time": 476, "pitch": 60, "duration": 5, "velocity": 96}, {"time": 482, "pitch": 67, "duration": 5, "velocity": 89}, {"time": 488, "pitch": 67, "duration": 8, "velocity": 90}, {"time": 497, "pitch": 65, "duration": 15, "velocity": 79}, {"time": 512, "pitch": 63, "duration": 7, "velocity": 99}, {"time": 521, "pitch": 65, "duration": 6, "velocity": 85}, {"time": 530, "pitch": 65, "duration": 42, "velocity": 90}, {"time": 584, "pitch": 63, "duration": 6, "velocity": 99}, {"time": 590, "pitch": 60, "duration": 6, "velocity": 72}, {"time": 596, "pitch": 58, "duration": 7, "velocity": 68}, {"time": 602, "pitch": 60, "duration": 7, "velocity": 81}, {"time": 608, "pitch": 58, "duration": 16, "velocity": 67}, {"time": 644, "pitch": 58, "duration": 5, "velocity": 97}, {"time": 650, "pitch": 60, "duration": 5, "velocity": 83}, {"time": 656, "pitch": 63, "duration": 4, "velocity": 85}, {"time": 662, "pitch": 63, "duration": 4, "velocity": 69}, {"time": 668, "pitch": 65, "duration": 6, "velocity": 75}, {"time": 674, "pitch": 63, "duration": 6, "velocity": 72}, {"time": 680, "pitch": 65, "duration": 7, "velocity": 85}, {"time": 686, "pitch": 67, "duration": 34, "velocity": 92}, {"time": 728, "pitch": 67, "duration": 4, "velocity": 96}, {"time": 734, "pitch": 67, "duration": 4, "velocity": 88}, {"time": 740, "pitch": 67, "duration": 5, "velocity": 92}, {"time": 746, "pitch": 65, "duration": 4, "velocity": 85}, {"time": 752, "pitch": 65, "duration": 6, "velocity": 92}, {"time": 758, "pitch": 63, "duration": 7, "velocity": 96}, {"time": 764, "pitch": 65, "duration": 11, "velocity": 89}, {"time": 776, "pitch": 60, "duration": 22, "velocity": 92}, {"time": 812, "pitch": 67, "duration": 3, "velocity": 88}, {"time": 818, "pitch": 67, "duration": 2, "velocity": 83}, {"time": 824, "pitch": 67, "duration": 5, "velocity": 107}, {"time": 830, "pitch": 65, "duration": 2, "velocity": 75}, {"time": 833, "pitch": 65, "duration": 6, "velocity": 72}, {"time": 842, "pitch": 63, "duration": 5, "velocity": 96}, {"time": 848, "pitch": 60, "duration": 11, "velocity": 89}, {"time": 860, "pitch": 60, "duration": 5, "velocity": 96}, {"time": 866, "pitch": 67, "duration": 4, "velocity": 99}, {"time": 872, "pitch": 67, "duration": 8, "velocity": 100}, {"time": 881, "pitch": 65, "duration": 13, "velocity": 88}, {"time": 896, "pitch": 63, "duration": 6, "velocity": 99}, {"time": 905, "pitch": 65, "duration": 7, "velocity": 92}, {"time": 914, "pitch": 65, "duration": 36, "velocity": 117}, {"time": 962, "pitch": 67, "duration": 3, "velocity": 95}, {"time": 968, "pitch": 67, "duration": 6, "velocity": 99}, {"time": 974, "pitch": 65, "duration": 2, "velocity": 88}, {"time": 980, "pitch": 65, "duration": 6, "velocity": 93}, {"time": 986, "pitch": 65, "duration": 1, "velocity": 96}, {"time": 992, "pitch": 65, "duration": 13, "velocity": 97}, {"time": 1004, "pitch": 58, "duration": 4, "velocity": 100}, {"time": 1010, "pitch": 63, "duration": 27, "velocity": 102}, {"time": 1046, "pitch": 60, "duration": 5, "velocity": 75}, {"time": 1052, "pitch": 58, "duration": 5, "velocity": 88}, {"time": 1058, "pitch": 60, "duration": 4, "velocity": 90}, {"time": 1064, "pitch": 63, "duration": 7, "velocity": 102}, {"time": 1073, "pitch": 63, "duration": 8, "velocity": 99}, {"time": 1088, "pitch": 63, "duration": 4, "velocity": 112}, {"time": 1094, "pitch": 65, "duration": 7, "velocity": 117}, {"time": 1106, "pitch": 60, "duration": 18, "velocity": 96}, {"time": 1127, "pitch": 58, "duration": 21, "velocity": 92}, {"time": 1154, "pitch": 63, "duration": 2, "velocity": 102}, {"time": 1160, "pitch": 65, "duration": 4, "velocity": 100}, {"time": 1166, "pitch": 65, "duration": 3, "velocity": 90}, {"time": 1172, "pitch": 65, "duration": 3, "velocity": 86}, {"time": 1178, "pitch": 58, "duration": 5, "velocity": 95}, {"time": 1184, "pitch": 65, "duration": 10, "velocity": 88}, {"time": 1196, "pitch": 65, "duration": 6, "velocity": 112}, {"time": 1202, "pitch": 67, "duration": 7, "velocity": 82}, {"time": 1208, "pitch": 65, "duration": 6, "velocity": 92}, {"time": 1214, "pitch": 63, "duration": 19, "velocity": 81}, {"time": 1238, "pitch": 60, "duration": 4, "velocity": 92}, {"time": 1244, "pitch": 58, "duration": 4, "velocity": 85}, {"time": 1250, "pitch": 60, "duration": 4, "velocity": 79}, {"time": 1256, "pitch": 63, "duration": 7, "velocity": 100}, {"time": 1262, "pitch": 63, "duration": 1, "velocity": 102}, {"time": 1280, "pitch": 63, "duration": 7, "velocity": 102}, {"time": 1289, "pitch": 65, "duration": 7, "velocity": 99}, {"time": 1298, "pitch": 65, "duration": 18, "velocity": 99}, {"time": 1322, "pitch": 58, "duration": 4, "velocity": 112}, {"time": 1328, "pitch": 70, "duration": 8, "velocity": 102}, {"time": 1340, "pitch": 70, "duration": 4, "velocity": 127}, {"time": 1346, "pitch": 72, "duration": 9, "velocity": 112}, {"time": 1358, "pitch": 67, "duration": 26, "velocity": 107}, {"time": 1406, "pitch": 67, "duration": 3, "velocity": 107}, {"time": 1412, "pitch": 67, "duration": 2, "velocity": 100}, {"time": 1418, "pitch": 67, "duration": 2, "velocity": 100}, {"time": 1424, "pitch": 67, "duration": 7, "velocity": 122}, {"time": 1436, "pitch": 65, "duration": 5, "velocity": 95}, {"time": 1442, "pitch": 63, "duration": 5, "velocity": 99}, {"time": 1448, "pitch": 62, "duration": 8, "velocity": 102}, {"time": 1457, "pitch": 70, "duration": 26, "velocity": 112}, {"time": 1502, "pitch": 67, "duration": 3, "velocity": 102}, {"time": 1508, "pitch": 67, "duration": 3, "velocity": 100}, {"time": 1514, "pitch": 67, "duration": 2, "velocity": 107}, {"time": 1520, "pitch": 67, "duration": 5, "velocity": 112}, {"time": 1526, "pitch": 65, "duration": 3, "velocity": 90}, {"time": 1532, "pitch": 65, "duration": 4, "velocity": 96}, {"time": 1538, "pitch": 63, "duration": 8, "velocity": 112}, {"time": 1550, "pitch": 60, "duration": 19, "velocity": 97}, {"time": 1598, "pitch": 60, "duration": 3, "velocity": 93}, {"time": 1604, "pitch": 63, "duration": 4, "velocity": 107}, {"time": 1610, "pitch": 60, "duration": 2, "velocity": 99}, {"time": 1616, "pitch": 70, "duration": 3, "velocity": 127}, {"time": 1622, "pitch": 72, "duration": 10, "velocity": 117}, {"time": 1640, "pitch": 72, "duration": 6, "velocity": 127}, {"time": 1646, "pitch": 70, "duration": 4, "velocity": 100}, {"time": 1652, "pitch": 70, "duration": 3, "velocity": 122}, {"time": 1658, "pitch": 65, "duration": 13, "velocity": 102}, {"time": 1706, "pitch": 58, "duration": 5, "velocity": 107}, {"time": 1712, "pitch": 70, "duration": 8, "velocity": 127}, {"time": 1724, "pitch": 70, "duration": 4, "velocity": 127}, {"time": 1730, "pitch": 72, "duration": 7, "velocity": 127}, {"time": 1742, "pitch": 67, "duration": 37, "velocity": 112}, {"time": 1790, "pitch": 67, "duration": 3, "velocity": 112}, {"time": 1796, "pitch": 67, "duration": 2, "velocity": 100}, {"time": 1802, "pitch": 67, "duration": 2, "velocity": 117}, {"time": 1808, "pitch": 67, "duration": 5, "velocity": 122}, {"time": 1820, "pitch": 65, "duration": 4, "velocity": 93}, {"time": 1826, "pitch": 63, "duration": 4, "velocity": 95}, {"time": 1832, "pitch": 62, "duration": 5, "velocity": 99}, {"time": 1838, "pitch": 70, "duration": 11, "velocity": 127}, {"time": 1886, "pitch": 67, "duration": 2, "velocity": 107}, {"time": 1892, "pitch": 67, "duration": 2, "velocity": 100}, {"time": 1898, "pitch": 67, "duration": 2, "velocity": 100}, {"time": 1904, "pitch": 67, "duration": 4, "velocity": 107}, {"time": 1910, "pitch": 65, "duration": 2, "velocity": 96}, {"time": 1916, "pitch": 65, "duration": 3, "velocity": 97}, {"time": 1922, "pitch": 63, "duration": 7, "velocity": 112}, {"time": 1934, "pitch": 60, "duration": 23, "velocity": 102}, {"time": 1982, "pitch": 60, "duration": 4, "velocity": 89}, {"time": 1988, "pitch": 63, "duration": 5, "velocity": 99}, {"time": 1994, "pitch": 60, "duration": 3, "velocity": 99}, {"time": 2000, "pitch": 70, "duration": 1, "velocity": 122}, {"time": 2009, "pitch": 72, "duration": 8, "velocity": 117}, {"time": 2024, "pitch": 72, "duration": 7, "velocity": 122}, {"time": 2030, "pitch": 70, "duration": 5, "velocity": 96}, {"time": 2036, "pitch": 70, "duration": 2, "velocity": 112}, {"time": 2042, "pitch": 65, "duration": 32, "velocity": 100}, {"time": 2108, "pitch": 65, "duration": 5, "velocity": 102}, {"time": 2117, "pitch": 63, "duration": 33, "velocity": 117}, {"time": 2504, "pitch": 63, "duration": 6, "velocity": 99}, {"time": 2510, "pitch": 60, "duration": 6, "velocity": 72}, {"time": 2516, "pitch": 58, "duration": 7, "velocity": 68}, {"time": 2522, "pitch": 60, "duration": 7, "velocity": 81}, {"time": 2528, "pitch": 58, "duration": 16, "velocity": 67}, {"time": 2564, "pitch": 58, "duration": 5, "velocity": 97}, {"time": 2570, "pitch": 60, "duration": 5, "velocity": 83}, {"time": 2576, "pitch": 63, "duration": 4, "velocity": 85}, {"time": 2582, "pitch": 63, "duration": 4, "velocity": 69}, {"time": 2588, "pitch": 65, "duration": 6, "velocity": 75}, {"time": 2594, "pitch": 63, "duration": 6, "velocity": 72}, {"time": 2600, "pitch": 65, "duration": 7, "velocity": 85}, {"time": 2606, "pitch": 67, "duration": 34, "velocity": 92}, {"time": 2648, "pitch": 67, "duration": 4, "velocity": 96}, {"time": 2654, "pitch": 67, "duration": 4, "velocity": 88}, {"time": 2660, "pitch": 67, "duration": 5, "velocity": 92}, {"time": 2666, "pitch": 65, "duration": 4, "velocity": 85}, {"time": 2672, "pitch": 65, "duration": 6, "velocity": 92}, {"time": 2678, "pitch": 63, "duration": 7, "velocity": 96}, {"time": 2684, "pitch": 65, "duration": 11, "velocity": 89}, {"time": 2696, "pitch": 60, "duration": 22, "velocity": 92}, {"time": 2732, "pitch": 67, "duration": 3, "velocity": 88}, {"time": 2738, "pitch": 67, "duration": 2, "velocity": 83}, {"time": 2744, "pitch": 67, "duration": 5, "velocity": 107}, {"time": 2750, "pitch": 65, "duration": 2, "velocity": 75}, {"time": 2753, "pitch": 65, "duration": 6, "velocity": 72}, {"time": 2762, "pitch": 63, "duration": 5, "velocity": 96}, {"time": 2768, "pitch": 60, "duration": 11, "velocity": 89}, {"time": 2780, "pitch": 60, "duration": 5, "velocity": 96}, {"time": 2786, "pitch": 67, "duration": 4, "velocity": 99}, {"time": 2792, "pitch": 67, "duration": 8, "velocity": 100}, {"time": 2801, "pitch": 65, "duration": 13, "velocity": 88}, {"time": 2816, "pitch": 63, "duration": 6, "velocity": 99}, {"time": 2825, "pitch": 65, "duration": 7, "velocity": 92}, {"time": 2834, "pitch": 65, "duration": 36, "velocity": 117}, {"time": 2882, "pitch": 67, "duration": 3, "velocity": 95}, {"time": 2888, "pitch": 67, "duration": 6, "velocity": 99}, {"time": 2894, "pitch": 65, "duration": 2, "velocity": 88}, {"time": 2900, "pitch": 65, "duration": 6, "velocity": 93}, {"time": 2906, "pitch": 65, "duration": 1, "velocity": 96}, {"time": 2912, "pitch": 65, "duration": 13, "velocity": 97}, {"time": 2924, "pitch": 58, "duration": 4, "velocity": 100}, {"time": 2930, "pitch": 63, "duration": 27, "velocity": 102}, {"time": 2966, "pitch": 60, "duration": 5, "velocity": 75}, {"time": 2972, "pitch": 58, "duration": 5, "velocity": 88}, {"time": 2978, "pitch": 60, "duration": 4, "velocity": 90}, {"time": 2984, "pitch": 63, "duration": 7, "velocity": 102}, {"time": 2993, "pitch": 63, "duration": 8, "velocity": 99}, {"time": 3008, "pitch": 63, "duration": 4, "velocity": 112}, {"time": 3014, "pitch": 65, "duration": 7, "velocity": 117}, {"time": 3026, "pitch": 60, "duration": 18, "velocity": 96}, {"time": 3047, "pitch": 58, "duration": 21, "velocity": 92}, {"time": 3074, "pitch": 63, "duration": 2, "velocity": 102}, {"time": 3080, "pitch": 65, "duration": 4, "velocity": 100}, {"time": 3086, "pitch": 65, "duration": 3, "velocity": 90}, {"time": 3092, "pitch": 65, "duration": 3, "velocity": 86}, {"time": 3098, "pitch": 58, "duration": 5, "velocity": 95}, {"time": 3104, "pitch": 65, "duration": 10, "velocity": 88}, {"time": 3116, "pitch": 65, "duration": 6, "velocity": 112}, {"time": 3122, "pitch": 67, "duration": 7, "velocity": 82}, {"time": 3128, "pitch": 65, "duration": 6, "velocity": 92}, {"time": 3134, "pitch": 63, "duration": 19, "velocity": 81}, {"time": 3158, "pitch": 60, "duration": 4, "velocity": 92}, {"time": 3164, "pitch": 58, "duration": 4, "velocity": 85}, {"time": 3170, "pitch": 60, "duration": 4, "velocity": 79}, {"time": 3176, "pitch": 63, "duration": 7, "velocity": 100}, {"time": 3182, "pitch": 63, "duration": 1, "velocity": 102}, {"time": 3200, "pitch": 63, "duration": 7, "velocity": 102}, {"time": 3209, "pitch": 65, "duration": 7, "velocity": 99}, {"time": 3218, "pitch": 65, "duration": 18, "velocity": 99}, {"time": 3242, "pitch": 58, "duration": 4, "velocity": 112}, {"time": 3248, "pitch": 70, "duration": 8, "velocity": 102}, {"time": 3260, "pitch": 70, "duration": 4, "velocity": 127}, {"time": 3266, "pitch": 72, "duration": 9, "velocity": 112}, {"time": 3278, "pitch": 67, "duration": 26, "velocity": 107}, {"time": 3326, "pitch": 67, "duration": 3, "velocity": 107}, {"time": 3332, "pitch": 67, "duration": 2, "velocity": 100}, {"time": 3338, "pitch": 67, "duration": 2, "velocity": 100}, {"time": 3344, "pitch": 67, "duration": 7, "velocity": 122}, {"time": 3356, "pitch": 65, "duration": 5, "velocity": 95}, {"time": 3362, "pitch": 63, "duration": 5, "velocity": 99}, {"time": 3368, "pitch": 62, "duration": 8, "velocity": 102}, {"time": 3377, "pitch": 70, "duration": 26, "velocity": 112}, {"time": 3422, "pitch": 67, "duration": 3, "velocity": 102}, {"time": 3428, "pitch": 67, "duration": 3, "velocity": 100}, {"time": 3434, "pitch": 67, "duration": 2, "velocity": 107}, {"time": 3440, "pitch": 67, "duration": 5, "velocity": 112}, {"time": 3446, "pitch": 65, "duration": 3, "velocity": 90}, {"time": 3452, "pitch": 65, "duration": 4, "velocity": 96}, {"time": 3458, "pitch": 63, "duration": 8, "velocity": 112}, {"time": 3470, "pitch": 60, "duration": 19, "velocity": 97}, {"time": 3518, "pitch": 60, "duration": 3, "velocity": 93}, {"time": 3524, "pitch": 63, "duration": 4, "velocity": 107}, {"time": 3530, "pitch": 60, "duration": 2, "velocity": 99}, {"time": 3536, "pitch": 70, "duration": 3, "velocity": 127}, {"time": 3542, "pitch": 72, "duration": 10, "velocity": 117}, {"time": 3560, "pitch": 72, "duration": 6, "velocity": 127}, {"time": 3566, "pitch": 70, "duration": 4, "velocity": 100}, {"time": 3572, "pitch": 70, "duration": 3, "velocity": 122}, {"time": 3578, "pitch": 65, "duration": 13, "velocity": 102}, {"time": 3626, "pitch": 58, "duration": 5, "velocity": 107}, {"time": 3632, "pitch": 70, "duration": 8, "velocity": 127}, {"time": 3644, "pitch": 70, "duration": 4, "velocity": 127}, {"time": 3650, "pitch": 72, "duration": 7, "velocity": 127}, {"time": 3662, "pitch": 67, "duration": 37, "velocity": 112}, {"time": 3710, "pitch": 67, "duration": 3, "velocity": 112}, {"time": 3716, "pitch": 67, "duration": 2, "velocity": 100}, {"time": 3722, "pitch": 67, "duration": 2, "velocity": 117}, {"time": 3728, "pitch": 67, "duration": 5, "velocity": 122}, {"time": 3740, "pitch": 65, "duration": 4, "velocity": 93}, {"time": 3746, "pitch": 63, "duration": 4, "velocity": 95}, {"time": 3752, "pitch": 62, "duration": 5, "velocity": 99}, {"time": 3758, "pitch": 70, "duration": 11, "velocity": 127}, {"time": 3806, "pitch": 67, "duration": 2, "velocity": 107}, {"time": 3812, "pitch": 67, "duration": 2, "velocity": 100}, {"time": 3818, "pitch": 67, "duration": 2, "velocity": 100}, {"time": 3824, "pitch": 67, "duration": 4, "velocity": 107}, {"time": 3830, "pitch": 65, "duration": 2, "velocity": 96}, {"time": 3836, "pitch": 65, "duration": 3, "velocity": 97}, {"time": 3842, "pitch": 63, "duration": 7, "velocity": 112}, {"time": 3854, "pitch": 60, "duration": 23, "velocity": 102}, {"time": 3902, "pitch": 60, "duration": 4, "velocity": 89}, {"time": 3908, "pitch": 63, "duration": 5, "velocity": 99}, {"time": 3914, "pitch": 60, "duration": 3, "velocity": 99}, {"time": 3920, "pitch": 70, "duration": 6, "velocity": 122}, {"time": 3929, "pitch": 72, "duration": 8, "velocity": 117}, {"time": 3944, "pitch": 72, "duration": 7, "velocity": 122}, {"time": 3950, "pitch": 70, "duration": 5, "velocity": 96}, {"time": 3956, "pitch": 70, "duration": 2, "velocity": 112}, {"time": 3962, "pitch": 65, "duration": 32, "velocity": 100}, {"time": 4028, "pitch": 65, "duration": 5, "velocity": 102}, {"time": 4037, "pitch": 63, "duration": 33, "velocity": 117}, {"time": 4076, "pitch": 65, "duration": 6, "velocity": 107}, {"time": 4085, "pitch": 63, "duration": 36, "velocity": 112}, {"time": 4125, "pitch": 65, "duration": 5, "velocity": 93}, {"time": 4137, "pitch": 63, "duration": 4, "velocity": 85}, {"time": 4140, "pitch": 65, "duration": 4, "velocity": 70}, {"time": 4144, "pitch": 63, "duration": 31, "velocity": 82}, {"time": 4178, "pitch": 65, "duration": 19, "velocity": 82}, {"time": 4197, "pitch": 63, "duration": 63, "velocity": 90}]}, {"program": 0, "is_drum": false, "name": "PIANO", "notes": [{"time": 8, "pitch": 39, "duration": 45, "velocity": 56}, {"time": 14, "pitch": 51, "duration": 43, "velocity": 47}, {"time": 20, "pitch": 55, "duration": 45, "velocity": 40}, {"time": 26, "pitch": 58, "duration": 43, "velocity": 29}, {"time": 32, "pitch": 63, "duration": 34, "velocity": 42}, {"time": 56, "pitch": 39, "duration": 47, "velocity": 74}, {"time": 62, "pitch": 51, "duration": 44, "velocity": 53}, {"time": 68, "pitch": 55, "duration": 24, "velocity": 45}, {"time": 74, "pitch": 58, "duration": 22, "velocity": 40}, {"time": 80, "pitch": 63, "duration": 33, "velocity": 57}, {"time": 98, "pitch": 58, "duration": 15, "velocity": 54}, {"time": 104, "pitch": 39, "duration": 46, "velocity": 61}, {"time": 110, "pitch": 51, "duration": 45, "velocity": 42}, {"time": 116, "pitch": 55, "duration": 17, "velocity": 38}, {"time": 122, "pitch": 58, "duration": 8, "velocity": 44}, {"time": 128, "pitch": 63, "duration": 42, "velocity": 72}, {"time": 140, "pitch": 58, "duration": 27, "velocity": 48}, {"time": 152, "pitch": 39, "duration": 38, "velocity": 55}, {"time": 158, "pitch": 51, "duration": 32, "velocity": 50}, {"time": 164, "pitch": 55, "duration": 15, "velocity": 44}, {"time": 170, "pitch": 58, "duration": 7, "velocity": 55}, {"time": 176, "pitch": 63, "duration": 28, "velocity": 93}, {"time": 188, "pitch": 58, "duration": 13, "velocity": 40}, {"time": 200, "pitch": 39, "duration": 44, "velocity": 82}, {"time": 206, "pitch": 46, "duration": 42, "velocity": 38}, {"time": 212, "pitch": 51, "duration": 15, "velocity": 66}, {"time": 218, "pitch": 55, "duration": 12, "velocity": 45}, {"time": 224, "pitch": 63, "duration": 42, "velocity": 93}, {"time": 230, "pitch": 51, "duration": 20, "velocity": 44}, {"time": 236, "pitch": 58, "duration": 30, "velocity": 70}, {"time": 242, "pitch": 55, "duration": 22, "velocity": 53}, {"time": 248, "pitch": 39, "duration": 34, "velocity": 60}, {"time": 254, "pitch": 46, "duration": 28, "velocity": 43}, {"time": 260, "pitch": 51, "duration": 13, "velocity": 58}, {"time": 266, "pitch": 55, "duration": 7, "velocity": 46}, {"time": 272, "pitch": 58, "duration": 14, "velocity": 76}, {"time": 272, "pitch": 63, "duration": 24, "velocity": 92}, {"time": 278, "pitch": 51, "duration": 3, "velocity": 56}, {"time": 284, "pitch": 55, "duration": 16, "velocity": 66}, {"time": 290, "pitch": 58, "duration": 7, "velocity": 52}, {"time": 296, "pitch": 36, "duration": 33, "velocity": 63}, {"time": 302, "pitch": 43, "duration": 26, "velocity": 56}, {"time": 308, "pitch": 48, "duration": 16, "velocity": 61}, {"time": 314, "pitch": 55, "duration": 19, "velocity": 76}, {"time": 320, "pitch": 63, "duration": 24, "velocity": 93}, {"time": 326, "pitch": 48, "duration": 6, "velocity": 69}, {"time": 332, "pitch": 60, "duration": 12, "velocity": 69}, {"time": 338, "pitch": 55, "duration": 6, "velocity": 79}, {"time": 344, "pitch": 44, "duration": 37, "velocity": 65}, {"time": 350, "pitch": 51, "duration": 31, "velocity": 69}, {"time": 356, "pitch": 56, "duration": 14, "velocity": 73}, {"time": 362, "pitch": 60, "duration": 12, "velocity": 66}, {"time": 368, "pitch": 68, "duration": 24, "velocity": 92}, {"time": 374, "pitch": 56, "duration": 6, "velocity": 69}, {"time": 380, "pitch": 63, "duration": 13, "velocity": 75}, {"time": 386, "pitch": 60, "duration": 7, "velocity": 69}, {"time": 392, "pitch": 41, "duration": 36, "velocity": 72}, {"time": 398, "pitch": 48, "duration": 20, "velocity": 53}, {"time": 404, "pitch": 53, "duration": 8, "velocity": 60}, {"time": 410, "pitch": 56, "duration": 7, "velocity": 59}, {"time": 416, "pitch": 60, "duration": 23, "velocity": 74}, {"time": 422, "pitch": 48, "duration": 6, "velocity": 47}, {"time": 428, "pitch": 56, "duration": 11, "velocity": 58}, {"time": 434, "pitch": 53, "duration": 7, "velocity": 62}, {"time": 440, "pitch": 34, "duration": 44, "velocity": 82}, {"time": 446, "pitch": 41, "duration": 42, "velocity": 37}, {"time": 452, "pitch": 46, "duration": 15, "velocity": 63}, {"time": 458, "pitch": 50, "duration": 19, "velocity": 69}, {"time": 464, "pitch": 58, "duration": 24, "velocity": 93}, {"time": 470, "pitch": 46, "duration": 24, "velocity": 53}, {"time": 476, "pitch": 53, "duration": 12, "velocity": 59}, {"time": 482, "pitch": 50, "duration": 8, "velocity": 60}, {"time": 488, "pitch": 34, "duration": 43, "velocity": 64}, {"time": 494, "pitch": 41, "duration": 42, "velocity": 38}, {"time": 500, "pitch": 46, "duration": 13, "velocity": 55}, {"time": 506, "pitch": 53, "duration": 8, "velocity": 59}, {"time": 512, "pitch": 58, "duration": 14, "velocity": 74}, {"time": 512, "pitch": 62, "duration": 27, "velocity": 83}, {"time": 518, "pitch": 46, "duration": 25, "velocity": 73}, {"time": 524, "pitch": 53, "duration": 16, "velocity": 69}, {"time": 530, "pitch": 58, "duration": 7, "velocity": 72}, {"time": 536, "pitch": 34, "duration": 48, "velocity": 68}, {"time": 542, "pitch": 41, "duration": 41, "velocity": 47}, {"time": 548, "pitch": 46, "duration": 15, "velocity": 69}, {"time": 554, "pitch": 53, "duration": 19, "velocity": 48}, {"time": 560, "pitch": 62, "duration": 24, "velocity": 82}, {"time": 566, "pitch": 46, "duration": 17, "velocity": 75}, {"time": 572, "pitch": 58, "duration": 11, "velocity": 72}, {"time": 578, "pitch": 53, "duration": 6, "velocity": 72}, {"time": 584, "pitch": 39, "duration": 44, "velocity": 82}, {"time": 590, "pitch": 46, "duration": 42, "velocity": 38}, {"time": 596, "pitch": 51, "duration": 15, "velocity": 66}, {"time": 602, "pitch": 55, "duration": 12, "velocity": 45}, {"time": 608, "pitch": 63, "duration": 42, "velocity": 93}, {"time": 614, "pitch": 51, "duration": 20, "velocity": 44}, {"time": 620, "pitch": 58, "duration": 30, "velocity": 70}, {"time": 626, "pitch": 55, "duration": 22, "velocity": 53}, {"time": 632, "pitch": 39, "duration": 34, "velocity": 60}, {"time": 638, "pitch": 46, "duration": 28, "velocity": 43}, {"time": 644, "pitch": 51, "duration": 13, "velocity": 58}, {"time": 650, "pitch": 55, "duration": 7, "velocity": 46}, {"time": 656, "pitch": 58, "duration": 14, "velocity": 76}, {"time": 656, "pitch": 63, "duration": 24, "velocity": 92}, {"time": 662, "pitch": 51, "duration": 3, "velocity": 56}, {"time": 668, "pitch": 55, "duration": 16, "velocity": 66}, {"time": 674, "pitch": 58, "duration": 7, "velocity": 52}, {"time": 680, "pitch": 36, "duration": 33, "velocity": 63}, {"time": 686, "pitch": 43, "duration": 26, "velocity": 56}, {"time": 692, "pitch": 48, "duration": 16, "velocity": 61}, {"time": 698, "pitch": 55, "duration": 19, "velocity": 76}, {"time": 704, "pitch": 63, "duration": 24, "velocity": 93}, {"time": 710, "pitch": 48, "duration": 6, "velocity": 69}, {"time": 716, "pitch": 60, "duration": 12, "velocity": 69}, {"time": 722, "pitch": 55, "duration": 6, "velocity": 79}, {"time": 728, "pitch": 44, "duration": 37, "velocity": 65}, {"time": 734, "pitch": 51, "duration": 31, "velocity": 69}, {"time": 740, "pitch": 56, "duration": 14, "velocity": 73}, {"time": 746, "pitch": 60, "duration": 12, "velocity": 66}, {"time": 752, "pitch": 68, "duration": 24, "velocity": 92}, {"time": 758, "pitch": 56, "duration": 6, "velocity": 69}, {"time": 764, "pitch": 63, "duration": 13, "velocity": 75}, {"time": 770, "pitch": 60, "duration": 7, "velocity": 69}, {"time": 776, "pitch": 41, "duration": 36, "velocity": 72}, {"time": 782, "pitch": 48, "duration": 20, "velocity": 53}, {"time": 788, "pitch": 53, "duration": 8, "velocity": 60}, {"time": 794, "pitch": 56, "duration": 7, "velocity": 59}, {"time": 800, "pitch": 60, "duration": 23, "velocity": 74}, {"time": 806, "pitch": 48, "duration": 6, "velocity": 47}, {"time": 812, "pitch": 56, "duration": 11, "velocity": 58}, {"time": 818, "pitch": 53, "duration": 7, "velocity": 62}, {"time": 824, "pitch": 34, "duration": 44, "velocity": 82}, {"time": 830, "pitch": 41, "duration": 42, "velocity": 37}, {"time": 836, "pitch": 46, "duration": 15, "velocity": 63}, {"time": 842, "pitch": 50, "duration": 19, "velocity": 69}, {"time": 848, "pitch": 58, "duration": 24, "velocity": 93}, {"time": 854, "pitch": 46, "duration": 24, "velocity": 53}, {"time": 860, "pitch": 53, "duration": 12, "velocity": 59}, {"time": 866, "pitch": 50, "duration": 8, "velocity": 60}, {"time": 872, "pitch": 34, "duration": 43, "velocity": 64}, {"time": 878, "pitch": 41, "duration": 42, "velocity": 38}, {"time": 884, "pitch": 46, "duration": 13, "velocity": 55}, {"time": 890, "pitch": 53, "duration": 8, "velocity": 59}, {"time": 896, "pitch": 58, "duration": 14, "velocity": 74}, {"time": 896, "pitch": 62, "duration": 27, "velocity": 83}, {"time": 902, "pitch": 46, "duration": 25, "velocity": 73}, {"time": 908, "pitch": 53, "duration": 16, "velocity": 69}, {"time": 914, "pitch": 58, "duration": 7, "velocity": 72}, {"time": 920, "pitch": 34, "duration": 48, "velocity": 68}, {"time": 926, "pitch": 41, "duration": 41, "velocity": 47}, {"time": 932, "pitch": 46, "duration": 15, "velocity": 69}, {"time": 938, "pitch": 53, "duration": 19, "velocity": 48}, {"time": 944, "pitch": 62, "duration": 24, "velocity": 82}, {"time": 950, "pitch": 46, "duration": 17, "velocity": 75}, {"time": 956, "pitch": 58, "duration": 11, "velocity": 72}, {"time": 962, "pitch": 53, "duration": 6, "velocity": 72}, {"time": 968, "pitch": 43, "duration": 36, "velocity": 76}, {"time": 974, "pitch": 50, "duration": 29, "velocity": 58}, {"time": 980, "pitch": 55, "duration": 14, "velocity": 82}, {"time": 986, "pitch": 58, "duration": 17, "velocity": 81}, {"time": 992, "pitch": 67, "duration": 24, "velocity": 67}, {"time": 998, "pitch": 55, "duration": 5, "velocity": 68}, {"time": 1004, "pitch": 62, "duration": 12, "velocity": 70}, {"time": 1010, "pitch": 58, "duration": 7, "velocity": 73}, {"time": 1016, "pitch": 36, "duration": 35, "velocity": 66}, {"time": 1022, "pitch": 43, "duration": 29, "velocity": 53}, {"time": 1028, "pitch": 48, "duration": 15, "velocity": 72}, {"time": 1034, "pitch": 55, "duration": 8, "velocity": 67}, {"time": 1040, "pitch": 60, "duration": 16, "velocity": 95}, {"time": 1040, "pitch": 63, "duration": 24, "velocity": 100}, {"time": 1046, "pitch": 48, "duration": 7, "velocity": 69}, {"time": 1052, "pitch": 55, "duration": 11, "velocity": 83}, {"time": 1058, "pitch": 60, "duration": 5, "velocity": 68}, {"time": 1064, "pitch": 41, "duration": 34, "velocity": 67}, {"time": 1070, "pitch": 48, "duration": 27, "velocity": 60}, {"time": 1076, "pitch": 53, "duration": 15, "velocity": 86}, {"time": 1082, "pitch": 60, "duration": 20, "velocity": 88}, {"time": 1088, "pitch": 68, "duration": 25, "velocity": 112}, {"time": 1094, "pitch": 53, "duration": 6, "velocity": 89}, {"time": 1100, "pitch": 65, "duration": 12, "velocity": 73}, {"time": 1106, "pitch": 60, "duration": 7, "velocity": 86}, {"time": 1112, "pitch": 46, "duration": 37, "velocity": 68}, {"time": 1118, "pitch": 53, "duration": 30, "velocity": 55}, {"time": 1124, "pitch": 58, "duration": 14, "velocity": 81}, {"time": 1130, "pitch": 62, "duration": 8, "velocity": 82}, {"time": 1136, "pitch": 65, "duration": 14, "velocity": 78}, {"time": 1136, "pitch": 70, "duration": 20, "velocity": 112}, {"time": 1142, "pitch": 58, "duration": 5, "velocity": 88}, {"time": 1148, "pitch": 62, "duration": 14, "velocity": 93}, {"time": 1154, "pitch": 65, "duration": 8, "velocity": 82}, {"time": 1160, "pitch": 43, "duration": 35, "velocity": 71}, {"time": 1166, "pitch": 50, "duration": 21, "velocity": 52}, {"time": 1172, "pitch": 55, "duration": 6, "velocity": 74}, {"time": 1178, "pitch": 58, "duration": 6, "velocity": 102}, {"time": 1184, "pitch": 62, "duration": 24, "velocity": 97}, {"time": 1190, "pitch": 50, "duration": 3, "velocity": 59}, {"time": 1196, "pitch": 58, "duration": 12, "velocity": 90}, {"time": 1202, "pitch": 55, "duration": 7, "velocity": 85}, {"time": 1208, "pitch": 36, "duration": 34, "velocity": 71}, {"time": 1214, "pitch": 43, "duration": 28, "velocity": 48}, {"time": 1220, "pitch": 48, "duration": 16, "velocity": 90}, {"time": 1226, "pitch": 55, "duration": 19, "velocity": 82}, {"time": 1232, "pitch": 63, "duration": 24, "velocity": 102}, {"time": 1238, "pitch": 48, "duration": 7, "velocity": 67}, {"time": 1244, "pitch": 60, "duration": 12, "velocity": 92}, {"time": 1250, "pitch": 55, "duration": 6, "velocity": 85}, {"time": 1256, "pitch": 41, "duration": 32, "velocity": 71}, {"time": 1262, "pitch": 48, "duration": 26, "velocity": 56}, {"time": 1268, "pitch": 53, "duration": 14, "velocity": 88}, {"time": 1274, "pitch": 60, "duration": 17, "velocity": 65}, {"time": 1280, "pitch": 68, "duration": 23, "velocity": 107}, {"time": 1286, "pitch": 53, "duration": 5, "velocity": 82}, {"time": 1292, "pitch": 65, "duration": 12, "velocity": 82}, {"time": 1298, "pitch": 60, "duration": 7, "velocity": 93}, {"time": 1304, "pitch": 46, "duration": 38, "velocity": 63}, {"time": 1310, "pitch": 53, "duration": 31, "velocity": 60}, {"time": 1316, "pitch": 58, "duration": 14, "velocity": 93}, {"time": 1322, "pitch": 62, "duration": 5, "velocity": 72}, {"time": 1322, "pitch": 65, "duration": 5, "velocity": 68}, {"time": 1328, "pitch": 62, "duration": 8, "velocity": 122}, {"time": 1328, "pitch": 65, "duration": 12, "velocity": 107}, {"time": 1334, "pitch": 58, "duration": 5, "velocity": 112}, {"time": 1340, "pitch": 62, "duration": 8, "velocity": 117}, {"time": 1346, "pitch": 65, "duration": 6, "velocity": 107}, {"time": 1352, "pitch": 39, "duration": 22, "velocity": 85}, {"time": 1355, "pitch": 46, "duration": 21, "velocity": 66}, {"time": 1358, "pitch": 51, "duration": 7, "velocity": 89}, {"time": 1361, "pitch": 55, "duration": 5, "velocity": 83}, {"time": 1364, "pitch": 63, "duration": 11, "velocity": 112}, {"time": 1367, "pitch": 51, "duration": 9, "velocity": 89}, {"time": 1370, "pitch": 58, "duration": 7, "velocity": 100}, {"time": 1373, "pitch": 55, "duration": 7, "velocity": 82}, {"time": 1376, "pitch": 39, "duration": 21, "velocity": 72}, {"time": 1379, "pitch": 46, "duration": 20, "velocity": 38}, {"time": 1382, "pitch": 51, "duration": 8, "velocity": 74}, {"time": 1385, "pitch": 55, "duration": 5, "velocity": 72}, {"time": 1388, "pitch": 63, "duration": 10, "velocity": 100}, {"time": 1391, "pitch": 51, "duration": 8, "velocity": 60}, {"time": 1394, "pitch": 58, "duration": 4, "velocity": 74}, {"time": 1397, "pitch": 55, "duration": 2, "velocity": 76}, {"time": 1400, "pitch": 39, "duration": 22, "velocity": 56}, {"time": 1403, "pitch": 46, "duration": 21, "velocity": 49}, {"time": 1406, "pitch": 51, "duration": 7, "velocity": 83}, {"time": 1409, "pitch": 55, "duration": 4, "velocity": 76}, {"time": 1412, "pitch": 63, "duration": 12, "velocity": 100}, {"time": 1415, "pitch": 51, "duration": 9, "velocity": 77}, {"time": 1418, "pitch": 58, "duration": 6, "velocity": 78}, {"time": 1421, "pitch": 55, "duration": 4, "velocity": 72}, {"time": 1424, "pitch": 39, "duration": 19, "velocity": 69}, {"time": 1427, "pitch": 46, "duration": 15, "velocity": 69}, {"time": 1430, "pitch": 51, "duration": 8, "velocity": 73}, {"time": 1433, "pitch": 55, "duration": 5, "velocity": 73}, {"time": 1436, "pitch": 63, "duration": 11, "velocity": 100}, {"time": 1439, "pitch": 51, "duration": 2, "velocity": 85}, {"time": 1442, "pitch": 58, "duration": 5, "velocity": 77}, {"time": 1445, "pitch": 55, "duration": 4, "velocity": 75}, {"time": 1448, "pitch": 36, "duration": 21, "velocity": 41}, {"time": 1451, "pitch": 43, "duration": 21, "velocity": 66}, {"time": 1454, "pitch": 48, "duration": 7, "velocity": 82}, {"time": 1457, "pitch": 55, "duration": 7, "velocity": 62}, {"time": 1460, "pitch": 63, "duration": 12, "velocity": 107}, {"time": 1463, "pitch": 48, "duration": 3, "velocity": 83}, {"time": 1466, "pitch": 60, "duration": 6, "velocity": 89}, {"time": 1469, "pitch": 55, "duration": 4, "velocity": 81}, {"time": 1472, "pitch": 36, "duration": 22, "velocity": 65}, {"time": 1475, "pitch": 43, "duration": 21, "velocity": 67}, {"time": 1478, "pitch": 48, "duration": 8, "velocity": 72}, {"time": 1481, "pitch": 55, "duration": 7, "velocity": 67}, {"time": 1484, "pitch": 63, "duration": 11, "velocity": 107}, {"time": 1487, "pitch": 48, "duration": 4, "velocity": 73}, {"time": 1490, "pitch": 60, "duration": 6, "velocity": 83}, {"time": 1493, "pitch": 55, "duration": 4, "velocity": 85}, {"time": 1496, "pitch": 36, "duration": 22, "velocity": 72}, {"time": 1499, "pitch": 43, "duration": 22, "velocity": 53}, {"time": 1502, "pitch": 48, "duration": 8, "velocity": 72}, {"time": 1505, "pitch": 55, "duration": 6, "velocity": 69}, {"time": 1508, "pitch": 63, "duration": 22, "velocity": 107}, {"time": 1511, "pitch": 48, "duration": 13, "velocity": 81}, {"time": 1514, "pitch": 60, "duration": 16, "velocity": 71}, {"time": 1517, "pitch": 55, "duration": 11, "velocity": 82}, {"time": 1520, "pitch": 36, "duration": 17, "velocity": 62}, {"time": 1523, "pitch": 43, "duration": 14, "velocity": 52}, {"time": 1526, "pitch": 48, "duration": 8, "velocity": 81}, {"time": 1529, "pitch": 55, "duration": 5, "velocity": 73}, {"time": 1532, "pitch": 63, "duration": 11, "velocity": 100}, {"time": 1535, "pitch": 48, "duration": 3, "velocity": 72}, {"time": 1538, "pitch": 60, "duration": 6, "velocity": 74}, {"time": 1541, "pitch": 55, "duration": 3, "velocity": 92}, {"time": 1544, "pitch": 44, "duration": 19, "velocity": 61}, {"time": 1547, "pitch": 51, "duration": 19, "velocity": 37}, {"time": 1550, "pitch": 56, "duration": 7, "velocity": 95}, {"time": 1553, "pitch": 60, "duration": 6, "velocity": 72}, {"time": 1556, "pitch": 68, "duration": 11, "velocity": 97}, {"time": 1559, "pitch": 56, "duration": 10, "velocity": 93}, {"time": 1562, "pitch": 63, "duration": 6, "velocity": 85}, {"time": 1565, "pitch": 60, "duration": 8, "velocity": 77}, {"time": 1568, "pitch": 44, "duration": 21, "velocity": 54}, {"time": 1571, "pitch": 51, "duration": 17, "velocity": 35}, {"time": 1574, "pitch": 56, "duration": 8, "velocity": 82}, {"time": 1577, "pitch": 60, "duration": 6, "velocity": 66}, {"time": 1580, "pitch": 68, "duration": 10, "velocity": 112}, {"time": 1583, "pitch": 56, "duration": 4, "velocity": 77}, {"time": 1586, "pitch": 63, "duration": 4, "velocity": 92}, {"time": 1589, "pitch": 60, "duration": 5, "velocity": 79}, {"time": 1592, "pitch": 41, "duration": 21, "velocity": 64}, {"time": 1595, "pitch": 48, "duration": 21, "velocity": 78}, {"time": 1598, "pitch": 53, "duration": 7, "velocity": 83}, {"time": 1601, "pitch": 60, "duration": 6, "velocity": 78}, {"time": 1604, "pitch": 68, "duration": 11, "velocity": 107}, {"time": 1607, "pitch": 53, "duration": 3, "velocity": 79}, {"time": 1610, "pitch": 65, "duration": 6, "velocity": 66}, {"time": 1613, "pitch": 60, "duration": 5, "velocity": 83}, {"time": 1616, "pitch": 41, "duration": 16, "velocity": 68}, {"time": 1619, "pitch": 48, "duration": 13, "velocity": 46}, {"time": 1622, "pitch": 53, "duration": 7, "velocity": 72}, {"time": 1625, "pitch": 60, "duration": 6, "velocity": 70}, {"time": 1628, "pitch": 68, "duration": 11, "velocity": 99}, {"time": 1631, "pitch": 53, "duration": 3, "velocity": 73}, {"time": 1634, "pitch": 65, "duration": 6, "velocity": 85}, {"time": 1637, "pitch": 60, "duration": 3, "velocity": 81}, {"time": 1640, "pitch": 46, "duration": 21, "velocity": 63}, {"time": 1643, "pitch": 53, "duration": 20, "velocity": 43}, {"time": 1646, "pitch": 58, "duration": 7, "velocity": 89}, {"time": 1649, "pitch": 62, "duration": 7, "velocity": 70}, {"time": 1652, "pitch": 70, "duration": 15, "velocity": 99}, {"time": 1655, "pitch": 58, "duration": 12, "velocity": 76}, {"time": 1658, "pitch": 65, "duration": 7, "velocity": 79}, {"time": 1661, "pitch": 62, "duration": 9, "velocity": 82}, {"time": 1664, "pitch": 46, "duration": 20, "velocity": 61}, {"time": 1667, "pitch": 53, "duration": 21, "velocity": 50}, {"time": 1670, "pitch": 58, "duration": 8, "velocity": 62}, {"time": 1673, "pitch": 62, "duration": 6, "velocity": 72}, {"time": 1676, "pitch": 70, "duration": 10, "velocity": 97}, {"time": 1679, "pitch": 58, "duration": 9, "velocity": 83}, {"time": 1682, "pitch": 65, "duration": 7, "velocity": 83}, {"time": 1685, "pitch": 62, "duration": 5, "velocity": 89}, {"time": 1688, "pitch": 46, "duration": 22, "velocity": 83}, {"time": 1694, "pitch": 53, "duration": 18, "velocity": 54}, {"time": 1700, "pitch": 65, "duration": 13, "velocity": 95}, {"time": 1700, "pitch": 70, "duration": 13, "velocity": 107}, {"time": 1706, "pitch": 58, "duration": 9, "velocity": 85}, {"time": 1709, "pitch": 62, "duration": 5, "velocity": 99}, {"time": 1712, "pitch": 46, "duration": 23, "velocity": 90}, {"time": 1715, "pitch": 53, "duration": 18, "velocity": 67}, {"time": 1718, "pitch": 58, "duration": 7, "velocity": 96}, {"time": 1721, "pitch": 62, "duration": 6, "velocity": 89}, {"time": 1724, "pitch": 70, "duration": 12, "velocity": 112}, {"time": 1727, "pitch": 58, "duration": 5, "velocity": 95}, {"time": 1730, "pitch": 65, "duration": 6, "velocity": 92}, {"time": 1733, "pitch": 62, "duration": 3, "velocity": 97}, {"time": 1736, "pitch": 39, "duration": 22, "velocity": 85}, {"time": 1739, "pitch": 46, "duration": 21, "velocity": 66}, {"time": 1742, "pitch": 51, "duration": 7, "velocity": 89}, {"time": 1745, "pitch": 55, "duration": 5, "velocity": 83}, {"time": 1748, "pitch": 63, "duration": 11, "velocity": 112}, {"time": 1751, "pitch": 51, "duration": 9, "velocity": 89}, {"time": 1754, "pitch": 58, "duration": 7, "velocity": 100}, {"time": 1757, "pitch": 55, "duration": 7, "velocity": 82}, {"time": 1760, "pitch": 39, "duration": 21, "velocity": 72}, {"time": 1763, "pitch": 46, "duration": 20, "velocity": 38}, {"time": 1766, "pitch": 51, "duration": 8, "velocity": 74}, {"time": 1769, "pitch": 55, "duration": 5, "velocity": 72}, {"time": 1772, "pitch": 63, "duration": 10, "velocity": 100}, {"time": 1775, "pitch": 51, "duration": 8, "velocity": 60}, {"time": 1778, "pitch": 58, "duration": 4, "velocity": 74}, {"time": 1781, "pitch": 55, "duration": 2, "velocity": 76}, {"time": 1784, "pitch": 39, "duration": 22, "velocity": 56}, {"time": 1787, "pitch": 46, "duration": 21, "velocity": 49}, {"time": 1790, "pitch": 51, "duration": 7, "velocity": 83}, {"time": 1793, "pitch": 55, "duration": 4, "velocity": 76}, {"time": 1796, "pitch": 63, "duration": 12, "velocity": 100}, {"time": 1799, "pitch": 51, "duration": 9, "velocity": 77}, {"time": 1802, "pitch": 58, "duration": 6, "velocity": 78}, {"time": 1805, "pitch": 55, "duration": 4, "velocity": 72}, {"time": 1808, "pitch": 39, "duration": 19, "velocity": 69}, {"time": 1811, "pitch": 46, "duration": 15, "velocity": 69}, {"time": 1814, "pitch": 51, "duration": 8, "velocity": 73}, {"time": 1817, "pitch": 55, "duration": 5, "velocity": 73}, {"time": 1820, "pitch": 63, "duration": 11, "velocity": 100}, {"time": 1823, "pitch": 51, "duration": 2, "velocity": 85}, {"time": 1826, "pitch": 58, "duration": 5, "velocity": 77}, {"time": 1829, "pitch": 55, "duration": 4, "velocity": 75}, {"time": 1832, "pitch": 36, "duration": 21, "velocity": 41}, {"time": 1835, "pitch": 43, "duration": 21, "velocity": 66}, {"time": 1838, "pitch": 48, "duration": 7, "velocity": 82}, {"time": 1841, "pitch": 55, "duration": 7, "velocity": 62}, {"time": 1844, "pitch": 63, "duration": 12, "velocity": 107}, {"time": 1847, "pitch": 48, "duration": 3, "velocity": 83}, {"time": 1850, "pitch": 60, "duration": 6, "velocity": 89}, {"time": 1853, "pitch": 55, "duration": 4, "velocity": 81}, {"time": 1856, "pitch": 36, "duration": 22, "velocity": 65}, {"time": 1859, "pitch": 43, "duration": 21, "velocity": 67}, {"time": 1862, "pitch": 48, "duration": 8, "velocity": 72}, {"time": 1865, "pitch": 55, "duration": 7, "velocity": 67}, {"time": 1868, "pitch": 63, "duration": 11, "velocity": 107}, {"time": 1871, "pitch": 48, "duration": 4, "velocity": 73}, {"time": 1874, "pitch": 60, "duration": 6, "velocity": 83}, {"time": 1877, "pitch": 55, "duration": 4, "velocity": 85}, {"time": 1880, "pitch": 36, "duration": 22, "velocity": 72}, {"time": 1883, "pitch": 43, "duration": 22, "velocity": 53}, {"time": 1886, "pitch": 48, "duration": 8, "velocity": 72}, {"time": 1889, "pitch": 55, "duration": 6, "velocity": 69}, {"time": 1892, "pitch": 63, "duration": 22, "velocity": 107}, {"time": 1895, "pitch": 48, "duration": 13, "velocity": 81}, {"time": 1898, "pitch": 60, "duration": 16, "velocity": 71}, {"time": 1901, "pitch": 55, "duration": 11, "velocity": 82}, {"time": 1904, "pitch": 36, "duration": 17, "velocity": 62}, {"time": 1907, "pitch": 43, "duration": 14, "velocity": 52}, {"time": 1910, "pitch": 48, "duration": 8, "velocity": 81}, {"time": 1913, "pitch": 55, "duration": 5, "velocity": 73}, {"time": 1916, "pitch": 63, "duration": 11, "velocity": 100}, {"time": 1919, "pitch": 48, "duration": 3, "velocity": 72}, {"time": 1922, "pitch": 60, "duration": 6, "velocity": 74}, {"time": 1925, "pitch": 55, "duration": 3, "velocity": 92}, {"time": 1928, "pitch": 44, "duration": 19, "velocity": 61}, {"time": 1931, "pitch": 51, "duration": 19, "velocity": 37}, {"time": 1934, "pitch": 56, "duration": 7, "velocity": 95}, {"time": 1937, "pitch": 60, "duration": 6, "velocity": 72}, {"time": 1940, "pitch": 68, "duration": 11, "velocity": 97}, {"time": 1943, "pitch": 56, "duration": 10, "velocity": 93}, {"time": 1946, "pitch": 63, "duration": 6, "velocity": 85}, {"time": 1949, "pitch": 60, "duration": 8, "velocity": 77}, {"time": 1952, "pitch": 44, "duration": 21, "velocity": 54}, {"time": 1955, "pitch": 51, "duration": 17, "velocity": 35}, {"time": 1958, "pitch": 56, "duration": 8, "velocity": 82}, {"time": 1961, "pitch": 60, "duration": 6, "velocity": 66}, {"time": 1964, "pitch": 68, "duration": 10, "velocity": 112}, {"time": 1967, "pitch": 56, "duration": 4, "velocity": 77}, {"time": 1970, "pitch": 63, "duration": 4, "velocity": 92}, {"time": 1973, "pitch": 60, "duration": 5, "velocity": 79}, {"time": 1976, "pitch": 41, "duration": 21, "velocity": 64}, {"time": 1979, "pitch": 48, "duration": 21, "velocity": 78}, {"time": 1982, "pitch": 53, "duration": 7, "velocity": 83}, {"time": 1985, "pitch": 60, "duration": 6, "velocity": 78}, {"time": 1988, "pitch": 68, "duration": 11, "velocity": 107}, {"time": 1991, "pitch": 53, "duration": 3, "velocity": 79}, {"time": 1994, "pitch": 65, "duration": 6, "velocity": 66}, {"time": 1997, "pitch": 60, "duration": 5, "velocity": 83}, {"time": 2000, "pitch": 41, "duration": 16, "velocity": 68}, {"time": 2003, "pitch": 48, "duration": 13, "velocity": 46}, {"time": 2006, "pitch": 53, "duration": 7, "velocity": 72}, {"time": 2009, "pitch": 60, "duration": 6, "velocity": 70}, {"time": 2012, "pitch": 68, "duration": 11, "velocity": 99}, {"time": 2015, "pitch": 53, "duration": 3, "velocity": 73}, {"time": 2018, "pitch": 65, "duration": 6, "velocity": 85}, {"time": 2021, "pitch": 60, "duration": 3, "velocity": 81}, {"time": 2024, "pitch": 46, "duration": 21, "velocity": 63}, {"time": 2027, "pitch": 53, "duration": 20, "velocity": 43}, {"time": 2030, "pitch": 58, "duration": 7, "velocity": 89}, {"time": 2033, "pitch": 62, "duration": 7, "velocity": 70}, {"time": 2036, "pitch": 70, "duration": 15, "velocity": 99}, {"time": 2039, "pitch": 58, "duration": 12, "velocity": 76}, {"time": 2042, "pitch": 65, "duration": 7, "velocity": 79}, {"time": 2045, "pitch": 62, "duration": 9, "velocity": 82}, {"time": 2048, "pitch": 46, "duration": 20, "velocity": 61}, {"time": 2051, "pitch": 53, "duration": 21, "velocity": 50}, {"time": 2054, "pitch": 58, "duration": 8, "velocity": 62}, {"time": 2057, "pitch": 62, "duration": 6, "velocity": 72}, {"time": 2060, "pitch": 70, "duration": 10, "velocity": 97}, {"time": 2063, "pitch": 58, "duration": 9, "velocity": 83}, {"time": 2066, "pitch": 65, "duration": 7, "velocity": 83}, {"time": 2069, "pitch": 62, "duration": 5, "velocity": 89}, {"time": 2072, "pitch": 46, "duration": 22, "velocity": 83}, {"time": 2078, "pitch": 53, "duration": 18, "velocity": 54}, {"time": 2084, "pitch": 65, "duration": 13, "velocity": 95}, {"time": 2084, "pitch": 70, "duration": 13, "velocity": 107}, {"time": 2090, "pitch": 58, "duration": 9, "velocity": 85}, {"time": 2093, "pitch": 62, "duration": 5, "velocity": 99}, {"time": 2096, "pitch": 46, "duration": 23, "velocity": 90}, {"time": 2099, "pitch": 53, "duration": 18, "velocity": 67}, {"time": 2102, "pitch": 58, "duration": 7, "velocity": 96}, {"time": 2105, "pitch": 62, "duration": 6, "velocity": 89}, {"time": 2108, "pitch": 70, "duration": 12, "velocity": 112}, {"time": 2111, "pitch": 58, "duration": 5, "velocity": 95}, {"time": 2114, "pitch": 65, "duration": 6, "velocity": 92}, {"time": 2117, "pitch": 62, "duration": 3, "velocity": 97}, {"time": 2120, "pitch": 44, "duration": 47, "velocity": 77}, {"time": 2126, "pitch": 51, "duration": 42, "velocity": 29}, {"time": 2132, "pitch": 56, "duration": 15, "velocity": 59}, {"time": 2138, "pitch": 60, "duration": 14, "velocity": 57}, {"time": 2144, "pitch": 63, "duration": 16, "velocity": 63}, {"time": 2144, "pitch": 68, "duration": 43, "velocity": 77}, {"time": 2150, "pitch": 56, "duration": 27, "velocity": 47}, {"time": 2156, "pitch": 60, "duration": 28, "velocity": 57}, {"time": 2162, "pitch": 63, "duration": 28, "velocity": 40}, {"time": 2168, "pitch": 44, "duration": 45, "velocity": 53}, {"time": 2174, "pitch": 51, "duration": 42, "velocity": 38}, {"time": 2180, "pitch": 56, "duration": 12, "velocity": 86}, {"time": 2186, "pitch": 60, "duration": 21, "velocity": 62}, {"time": 2192, "pitch": 68, "duration": 24, "velocity": 86}, {"time": 2198, "pitch": 56, "duration": 18, "velocity": 42}, {"time": 2204, "pitch": 63, "duration": 12, "velocity": 42}, {"time": 2210, "pitch": 60, "duration": 6, "velocity": 45}, {"time": 2216, "pitch": 43, "duration": 36, "velocity": 60}, {"time": 2222, "pitch": 50, "duration": 29, "velocity": 53}, {"time": 2228, "pitch": 55, "duration": 14, "velocity": 45}, {"time": 2234, "pitch": 58, "duration": 20, "velocity": 44}, {"time": 2240, "pitch": 67, "duration": 24, "velocity": 63}, {"time": 2246, "pitch": 55, "duration": 4, "velocity": 41}, {"time": 2252, "pitch": 62, "duration": 13, "velocity": 66}, {"time": 2258, "pitch": 58, "duration": 7, "velocity": 41}, {"time": 2264, "pitch": 36, "duration": 35, "velocity": 65}, {"time": 2270, "pitch": 43, "duration": 29, "velocity": 53}, {"time": 2276, "pitch": 48, "duration": 14, "velocity": 47}, {"time": 2282, "pitch": 55, "duration": 14, "velocity": 66}, {"time": 2288, "pitch": 63, "duration": 24, "velocity": 100}, {"time": 2294, "pitch": 48, "duration": 6, "velocity": 77}, {"time": 2300, "pitch": 60, "duration": 12, "velocity": 62}, {"time": 2306, "pitch": 55, "duration": 6, "velocity": 74}, {"time": 2312, "pitch": 44, "duration": 44, "velocity": 73}, {"time": 2318, "pitch": 51, "duration": 41, "velocity": 45}, {"time": 2324, "pitch": 56, "duration": 15, "velocity": 50}, {"time": 2330, "pitch": 60, "duration": 46, "velocity": 43}, {"time": 2336, "pitch": 63, "duration": 47, "velocity": 55}, {"time": 2342, "pitch": 56, "duration": 16, "velocity": 33}, {"time": 2348, "pitch": 68, "duration": 30, "velocity": 64}, {"time": 2360, "pitch": 44, "duration": 46, "velocity": 55}, {"time": 2366, "pitch": 51, "duration": 40, "velocity": 51}, {"time": 2372, "pitch": 56, "duration": 18, "velocity": 60}, {"time": 2378, "pitch": 60, "duration": 45, "velocity": 44}, {"time": 2384, "pitch": 63, "duration": 47, "velocity": 57}, {"time": 2390, "pitch": 56, "duration": 14, "velocity": 26}, {"time": 2396, "pitch": 68, "duration": 83, "velocity": 48}, {"time": 2408, "pitch": 44, "duration": 46, "velocity": 51}, {"time": 2414, "pitch": 51, "duration": 44, "velocity": 41}, {"time": 2420, "pitch": 56, "duration": 46, "velocity": 48}, {"time": 2426, "pitch": 60, "duration": 45, "velocity": 47}, {"time": 2432, "pitch": 63, "duration": 73, "velocity": 52}, {"time": 2456, "pitch": 44, "duration": 49, "velocity": 57}, {"time": 2462, "pitch": 51, "duration": 42, "velocity": 50}, {"time": 2468, "pitch": 56, "duration": 37, "velocity": 57}, {"time": 2474, "pitch": 60, "duration": 31, "velocity": 37}, {"time": 2480, "pitch": 68, "duration": 25, "velocity": 48}, {"time": 2504, "pitch": 39, "duration": 44, "velocity": 82}, {"time": 2510, "pitch": 46, "duration": 42, "velocity": 38}, {"time": 2516, "pitch": 51, "duration": 15, "velocity": 66}, {"time": 2522, "pitch": 55, "duration": 12, "velocity": 45}, {"time": 2528, "pitch": 63, "duration": 42, "velocity": 93}, {"time": 2534, "pitch": 51, "duration": 20, "velocity": 44}, {"time": 2540, "pitch": 58, "duration": 30, "velocity": 70}, {"time": 2546, "pitch": 55, "duration": 22, "velocity": 53}, {"time": 2552, "pitch": 39, "duration": 34, "velocity": 60}, {"time": 2558, "pitch": 46, "duration": 28, "velocity": 43}, {"time": 2564, "pitch": 51, "duration": 13, "velocity": 58}, {"time": 2570, "pitch": 55, "duration": 7, "velocity": 46}, {"time": 2576, "pitch": 58, "duration": 14, "velocity": 76}, {"time": 2576, "pitch": 63, "duration": 24, "velocity": 92}, {"time": 2582, "pitch": 51, "duration": 3, "velocity": 56}, {"time": 2588, "pitch": 55, "duration": 16, "velocity": 66}, {"time": 2594, "pitch": 58, "duration": 7, "velocity": 52}, {"time": 2600, "pitch": 36, "duration": 33, "velocity": 63}, {"time": 2606, "pitch": 43, "duration": 26, "velocity": 56}, {"time": 2612, "pitch": 48, "duration": 16, "velocity": 61}, {"time": 2618, "pitch": 55, "duration": 19, "velocity": 76}, {"time": 2624, "pitch": 63, "duration": 24, "velocity": 93}, {"time": 2630, "pitch": 48, "duration": 6, "velocity": 69}, {"time": 2636, "pitch": 60, "duration": 12, "velocity": 69}, {"time": 2642, "pitch": 55, "duration": 6, "velocity": 79}, {"time": 2648, "pitch": 44, "duration": 37, "velocity": 65}, {"time": 2654, "pitch": 51, "duration": 31, "velocity": 69}, {"time": 2660, "pitch": 56, "duration": 14, "velocity": 73}, {"time": 2666, "pitch": 60, "duration": 12, "velocity": 66}, {"time": 2672, "pitch": 68, "duration": 24, "velocity": 92}, {"time": 2678, "pitch": 56, "duration": 6, "velocity": 69}, {"time": 2684, "pitch": 63, "duration": 13, "velocity": 75}, {"time": 2690, "pitch": 60, "duration": 7, "velocity": 69}, {"time": 2696, "pitch": 41, "duration": 36, "velocity": 72}, {"time": 2702, "pitch": 48, "duration": 20, "velocity": 53}, {"time": 2708, "pitch": 53, "duration": 8, "velocity": 60}, {"time": 2714, "pitch": 56, "duration": 7, "velocity": 59}, {"time": 2720, "pitch": 60, "duration": 23, "velocity": 74}, {"time": 2726, "pitch": 48, "duration": 6, "velocity": 47}, {"time": 2732, "pitch": 56, "duration": 11, "velocity": 58}, {"time": 2738, "pitch": 53, "duration": 7, "velocity": 62}, {"time": 2744, "pitch": 34, "duration": 44, "velocity": 82}, {"time": 2750, "pitch": 41, "duration": 42, "velocity": 37}, {"time": 2756, "pitch": 46, "duration": 15, "velocity": 63}, {"time": 2762, "pitch": 50, "duration": 19, "velocity": 69}, {"time": 2768, "pitch": 58, "duration": 24, "velocity": 93}, {"time": 2774, "pitch": 46, "duration": 24, "velocity": 53}, {"time": 2780, "pitch": 53, "duration": 12, "velocity": 59}, {"time": 2786, "pitch": 50, "duration": 8, "velocity": 60}, {"time": 2792, "pitch": 34, "duration": 43, "velocity": 64}, {"time": 2798, "pitch": 41, "duration": 42, "velocity": 38}, {"time": 2804, "pitch": 46, "duration": 13, "velocity": 55}, {"time": 2810, "pitch": 53, "duration": 8, "velocity": 59}, {"time": 2816, "pitch": 58, "duration": 14, "velocity": 74}, {"time": 2816, "pitch": 62, "duration": 27, "velocity": 83}, {"time": 2822, "pitch": 46, "duration": 25, "velocity": 73}, {"time": 2828, "pitch": 53, "duration": 16, "velocity": 69}, {"time": 2834, "pitch": 58, "duration": 7, "velocity": 72}, {"time": 2840, "pitch": 34, "duration": 48, "velocity": 68}, {"time": 2846, "pitch": 41, "duration": 41, "velocity": 47}, {"time": 2852, "pitch": 46, "duration": 15, "velocity": 69}, {"time": 2858, "pitch": 53, "duration": 19, "velocity": 48}, {"time": 2864, "pitch": 62, "duration": 24, "velocity": 82}, {"time": 2870, "pitch": 46, "duration": 17, "velocity": 75}, {"time": 2876, "pitch": 58, "duration": 11, "velocity": 72}, {"time": 2882, "pitch": 53, "duration": 6, "velocity": 72}, {"time": 2888, "pitch": 43, "duration": 36, "velocity": 76}, {"time": 2894, "pitch": 50, "duration": 29, "velocity": 58}, {"time": 2900, "pitch": 55, "duration": 14, "velocity": 82}, {"time": 2906, "pitch": 58, "duration": 17, "velocity": 81}, {"time": 2912, "pitch": 67, "duration": 24, "velocity": 67}, {"time": 2918, "pitch": 55, "duration": 5, "velocity": 68}, {"time": 2924, "pitch": 62, "duration": 12, "velocity": 70}, {"time": 2930, "pitch": 58, "duration": 7, "velocity": 73}, {"time": 2936, "pitch": 36, "duration": 35, "velocity": 66}, {"time": 2942, "pitch": 43, "duration": 29, "velocity": 53}, {"time": 2948, "pitch": 48, "duration": 15, "velocity": 72}, {"time": 2954, "pitch": 55, "duration": 8, "velocity": 67}, {"time": 2960, "pitch": 60, "duration": 16, "velocity": 95}, {"time": 2960, "pitch": 63, "duration": 24, "velocity": 100}, {"time": 2966, "pitch": 48, "duration": 7, "velocity": 69}, {"time": 2972, "pitch": 55, "duration": 11, "velocity": 83}, {"time": 2978, "pitch": 60, "duration": 5, "velocity": 68}, {"time": 2984, "pitch": 41, "duration": 34, "velocity": 67}, {"time": 2990, "pitch": 48, "duration": 27, "velocity": 60}, {"time": 2996, "pitch": 53, "duration": 15, "velocity": 86}, {"time": 3002, "pitch": 60, "duration": 20, "velocity": 88}, {"time": 3008, "pitch": 68, "duration": 25, "velocity": 112}, {"time": 3014, "pitch": 53, "duration": 6, "velocity": 89}, {"time": 3020, "pitch": 65, "duration": 12, "velocity": 73}, {"time": 3026, "pitch": 60, "duration": 7, "velocity": 86}, {"time": 3032, "pitch": 46, "duration": 37, "velocity": 68}, {"time": 3038, "pitch": 53, "duration": 30, "velocity": 55}, {"time": 3044, "pitch": 58, "duration": 14, "velocity": 81}, {"time": 3050, "pitch": 62, "duration": 8, "velocity": 82}, {"time": 3056, "pitch": 65, "duration": 14, "velocity": 78}, {"time": 3056, "pitch": 70, "duration": 20, "velocity": 112}, {"time": 3062, "pitch": 58, "duration": 5, "velocity": 88}, {"time": 3068, "pitch": 62, "duration": 14, "velocity": 93}, {"time": 3074, "pitch": 65, "duration": 8, "velocity": 82}, {"time": 3080, "pitch": 43, "duration": 35, "velocity": 71}, {"time": 3086, "pitch": 50, "duration": 21, "velocity": 52}, {"time": 3092, "pitch": 55, "duration": 6, "velocity": 74}, {"time": 3098, "pitch": 58, "duration": 6, "velocity": 102}, {"time": 3104, "pitch": 62, "duration": 24, "velocity": 97}, {"time": 3110, "pitch": 50, "duration": 3, "velocity": 59}, {"time": 3116, "pitch": 58, "duration": 12, "velocity": 90}, {"time": 3122, "pitch": 55, "duration": 7, "velocity": 85}, {"time": 3128, "pitch": 36, "duration": 34, "velocity": 71}, {"time": 3134, "pitch": 43, "duration": 28, "velocity": 48}, {"time": 3140, "pitch": 48, "duration": 16, "velocity": 90}, {"time": 3146, "pitch": 55, "duration": 19, "velocity": 82}, {"time": 3152, "pitch": 63, "duration": 24, "velocity": 102}, {"time": 3158, "pitch": 48, "duration": 7, "velocity": 67}, {"time": 3164, "pitch": 60, "duration": 12, "velocity": 92}, {"time": 3170, "pitch": 55, "duration": 6, "velocity": 85}, {"time": 3176, "pitch": 41, "duration": 32, "velocity": 71}, {"time": 3182, "pitch": 48, "duration": 26, "velocity": 56}, {"time": 3188, "pitch": 53, "duration": 14, "velocity": 88}, {"time": 3194, "pitch": 60, "duration": 17, "velocity": 65}, {"time": 3200, "pitch": 68, "duration": 23, "velocity": 107}, {"time": 3206, "pitch": 53, "duration": 5, "velocity": 82}, {"time": 3212, "pitch": 65, "duration": 12, "velocity": 82}, {"time": 3218, "pitch": 60, "duration": 7, "velocity": 93}, {"time": 3224, "pitch": 46, "duration": 38, "velocity": 63}, {"time": 3230, "pitch": 53, "duration": 31, "velocity": 60}, {"time": 3236, "pitch": 58, "duration": 14, "velocity": 93}, {"time": 3242, "pitch": 62, "duration": 5, "velocity": 72}, {"time": 3242, "pitch": 65, "duration": 5, "velocity": 68}, {"time": 3248, "pitch": 62, "duration": 8, "velocity": 122}, {"time": 3248, "pitch": 65, "duration": 12, "velocity": 107}, {"time": 3254, "pitch": 58, "duration": 5, "velocity": 112}, {"time": 3260, "pitch": 62, "duration": 8, "velocity": 117}, {"time": 3266, "pitch": 65, "duration": 6, "velocity": 107}, {"time": 3272, "pitch": 39, "duration": 22, "velocity": 85}, {"time": 3275, "pitch": 46, "duration": 21, "velocity": 66}, {"time": 3278, "pitch": 51, "duration": 7, "velocity": 89}, {"time": 3281, "pitch": 55, "duration": 5, "velocity": 83}, {"time": 3284, "pitch": 63, "duration": 11, "velocity": 112}, {"time": 3287, "pitch": 51, "duration": 9, "velocity": 89}, {"time": 3290, "pitch": 58, "duration": 7, "velocity": 100}, {"time": 3293, "pitch": 55, "duration": 7, "velocity": 82}, {"time": 3296, "pitch": 39, "duration": 21, "velocity": 72}, {"time": 3299, "pitch": 46, "duration": 20, "velocity": 38}, {"time": 3302, "pitch": 51, "duration": 8, "velocity": 74}, {"time": 3305, "pitch": 55, "duration": 5, "velocity": 72}, {"time": 3308, "pitch": 63, "duration": 10, "velocity": 100}, {"time": 3311, "pitch": 51, "duration": 8, "velocity": 60}, {"time": 3314, "pitch": 58, "duration": 4, "velocity": 74}, {"time": 3317, "pitch": 55, "duration": 2, "velocity": 76}, {"time": 3320, "pitch": 39, "duration": 22, "velocity": 56}, {"time": 3323, "pitch": 46, "duration": 21, "velocity": 49}, {"time": 3326, "pitch": 51, "duration": 7, "velocity": 83}, {"time": 3329, "pitch": 55, "duration": 4, "velocity": 76}, {"time": 3332, "pitch": 63, "duration": 12, "velocity": 100}, {"time": 3335, "pitch": 51, "duration": 9, "velocity": 77}, {"time": 3338, "pitch": 58, "duration": 6, "velocity": 78}, {"time": 3341, "pitch": 55, "duration": 4, "velocity": 72}, {"time": 3344, "pitch": 39, "duration": 19, "velocity": 69}, {"time": 3347, "pitch": 46, "duration": 15, "velocity": 69}, {"time": 3350, "pitch": 51, "duration": 8, "velocity": 73}, {"time": 3353, "pitch": 55, "duration": 5, "velocity": 73}, {"time": 3356, "pitch": 63, "duration": 11, "velocity": 100}, {"time": 3359, "pitch": 51, "duration": 2, "velocity": 85}, {"time": 3362, "pitch": 58, "duration": 5, "velocity": 77}, {"time": 3365, "pitch": 55, "duration": 4, "velocity": 75}, {"time": 3368, "pitch": 36, "duration": 21, "velocity": 41}, {"time": 3371, "pitch": 43, "duration": 21, "velocity": 66}, {"time": 3374, "pitch": 48, "duration": 7, "velocity": 82}, {"time": 3377, "pitch": 55, "duration": 7, "velocity": 62}, {"time": 3380, "pitch": 63, "duration": 12, "velocity": 107}, {"time": 3383, "pitch": 48, "duration": 3, "velocity": 83}, {"time": 3386, "pitch": 60, "duration": 6, "velocity": 89}, {"time": 3389, "pitch": 55, "duration": 4, "velocity": 81}, {"time": 3392, "pitch": 36, "duration": 22, "velocity": 65}, {"time": 3395, "pitch": 43, "duration": 21, "velocity": 67}, {"time": 3398, "pitch": 48, "duration": 8, "velocity": 72}, {"time": 3401, "pitch": 55, "duration": 7, "velocity": 67}, {"time": 3404, "pitch": 63, "duration": 11, "velocity": 107}, {"time": 3407, "pitch": 48, "duration": 4, "velocity": 73}, {"time": 3410, "pitch": 60, "duration": 6, "velocity": 83}, {"time": 3413, "pitch": 55, "duration": 4, "velocity": 85}, {"time": 3416, "pitch": 36, "duration": 22, "velocity": 72}, {"time": 3419, "pitch": 43, "duration": 22, "velocity": 53}, {"time": 3422, "pitch": 48, "duration": 8, "velocity": 72}, {"time": 3425, "pitch": 55, "duration": 6, "velocity": 69}, {"time": 3428, "pitch": 63, "duration": 22, "velocity": 107}, {"time": 3431, "pitch": 48, "duration": 13, "velocity": 81}, {"time": 3434, "pitch": 60, "duration": 16, "velocity": 71}, {"time": 3437, "pitch": 55, "duration": 11, "velocity": 82}, {"time": 3440, "pitch": 36, "duration": 17, "velocity": 62}, {"time": 3443, "pitch": 43, "duration": 14, "velocity": 52}, {"time": 3446, "pitch": 48, "duration": 8, "velocity": 81}, {"time": 3449, "pitch": 55, "duration": 5, "velocity": 73}, {"time": 3452, "pitch": 63, "duration": 11, "velocity": 100}, {"time": 3455, "pitch": 48, "duration": 3, "velocity": 72}, {"time": 3458, "pitch": 60, "duration": 6, "velocity": 74}, {"time": 3461, "pitch": 55, "duration": 3, "velocity": 92}, {"time": 3464, "pitch": 44, "duration": 19, "velocity": 61}, {"time": 3467, "pitch": 51, "duration": 19, "velocity": 37}, {"time": 3470, "pitch": 56, "duration": 7, "velocity": 95}, {"time": 3473, "pitch": 60, "duration": 6, "velocity": 72}, {"time": 3476, "pitch": 68, "duration": 11, "velocity": 97}, {"time": 3479, "pitch": 56, "duration": 10, "velocity": 93}, {"time": 3482, "pitch": 63, "duration": 6, "velocity": 85}, {"time": 3485, "pitch": 60, "duration": 8, "velocity": 77}, {"time": 3488, "pitch": 44, "duration": 21, "velocity": 54}, {"time": 3491, "pitch": 51, "duration": 17, "velocity": 35}, {"time": 3494, "pitch": 56, "duration": 8, "velocity": 82}, {"time": 3497, "pitch": 60, "duration": 6, "velocity": 66}, {"time": 3500, "pitch": 68, "duration": 10, "velocity": 112}, {"time": 3503, "pitch": 56, "duration": 4, "velocity": 77}, {"time": 3506, "pitch": 63, "duration": 4, "velocity": 92}, {"time": 3509, "pitch": 60, "duration": 5, "velocity": 79}, {"time": 3512, "pitch": 41, "duration": 21, "velocity": 64}, {"time": 3515, "pitch": 48, "duration": 21, "velocity": 78}, {"time": 3518, "pitch": 53, "duration": 7, "velocity": 83}, {"time": 3521, "pitch": 60, "duration": 6, "velocity": 78}, {"time": 3524, "pitch": 68, "duration": 11, "velocity": 107}, {"time": 3527, "pitch": 53, "duration": 3, "velocity": 79}, {"time": 3530, "pitch": 65, "duration": 6, "velocity": 66}, {"time": 3533, "pitch": 60, "duration": 5, "velocity": 83}, {"time": 3536, "pitch": 41, "duration": 16, "velocity": 68}, {"time": 3539, "pitch": 48, "duration": 13, "velocity": 46}, {"time": 3542, "pitch": 53, "duration": 7, "velocity": 72}, {"time": 3545, "pitch": 60, "duration": 6, "velocity": 70}, {"time": 3548, "pitch": 68, "duration": 11, "velocity": 99}, {"time": 3551, "pitch": 53, "duration": 3, "velocity": 73}, {"time": 3554, "pitch": 65, "duration": 6, "velocity": 85}, {"time": 3557, "pitch": 60, "duration": 3, "velocity": 81}, {"time": 3560, "pitch": 46, "duration": 21, "velocity": 63}, {"time": 3563, "pitch": 53, "duration": 20, "velocity": 43}, {"time": 3566, "pitch": 58, "duration": 7, "velocity": 89}, {"time": 3569, "pitch": 62, "duration": 7, "velocity": 70}, {"time": 3572, "pitch": 70, "duration": 15, "velocity": 99}, {"time": 3575, "pitch": 58, "duration": 12, "velocity": 76}, {"time": 3578, "pitch": 65, "duration": 7, "velocity": 79}, {"time": 3581, "pitch": 62, "duration": 9, "velocity": 82}, {"time": 3584, "pitch": 46, "duration": 20, "velocity": 61}, {"time": 3587, "pitch": 53, "duration": 21, "velocity": 50}, {"time": 3590, "pitch": 58, "duration": 8, "velocity": 62}, {"time": 3593, "pitch": 62, "duration": 6, "velocity": 72}, {"time": 3596, "pitch": 70, "duration": 10, "velocity": 97}, {"time": 3599, "pitch": 58, "duration": 9, "velocity": 83}, {"time": 3602, "pitch": 65, "duration": 7, "velocity": 83}, {"time": 3605, "pitch": 62, "duration": 5, "velocity": 89}, {"time": 3608, "pitch": 46, "duration": 22, "velocity": 83}, {"time": 3614, "pitch": 53, "duration": 18, "velocity": 54}, {"time": 3620, "pitch": 65, "duration": 13, "velocity": 95}, {"time": 3620, "pitch": 70, "duration": 13, "velocity": 107}, {"time": 3626, "pitch": 58, "duration": 9, "velocity": 85}, {"time": 3629, "pitch": 62, "duration": 5, "velocity": 99}, {"time": 3632, "pitch": 46, "duration": 23, "velocity": 90}, {"time": 3635, "pitch": 53, "duration": 18, "velocity": 67}, {"time": 3638, "pitch": 58, "duration": 7, "velocity": 96}, {"time": 3641, "pitch": 62, "duration": 6, "velocity": 89}, {"time": 3644, "pitch": 70, "duration": 12, "velocity": 112}, {"time": 3647, "pitch": 58, "duration": 5, "velocity": 95}, {"time": 3650, "pitch": 65, "duration": 6, "velocity": 92}, {"time": 3653, "pitch": 62, "duration": 3, "velocity": 97}, {"time": 3656, "pitch": 39, "duration": 22, "velocity": 85}, {"time": 3659, "pitch": 46, "duration": 21, "velocity": 66}, {"time": 3662, "pitch": 51, "duration": 7, "velocity": 89}, {"time": 3665, "pitch": 55, "duration": 5, "velocity": 83}, {"time": 3668, "pitch": 63, "duration": 11, "velocity": 112}, {"time": 3671, "pitch": 51, "duration": 9, "velocity": 89}, {"time": 3674, "pitch": 58, "duration": 7, "velocity": 100}, {"time": 3677, "pitch": 55, "duration": 7, "velocity": 82}, {"time": 3680, "pitch": 39, "duration": 21, "velocity": 72}, {"time": 3683, "pitch": 46, "duration": 20, "velocity": 38}, {"time": 3686, "pitch": 51, "duration": 8, "velocity": 74}, {"time": 3689, "pitch": 55, "duration": 5, "velocity": 72}, {"time": 3692, "pitch": 63, "duration": 10, "velocity": 100}, {"time": 3695, "pitch": 51, "duration": 8, "velocity": 60}, {"time": 3698, "pitch": 58, "duration": 4, "velocity": 74}, {"time": 3701, "pitch": 55, "duration": 2, "velocity": 76}, {"time": 3704, "pitch": 39, "duration": 22, "velocity": 56}, {"time": 3707, "pitch": 46, "duration": 21, "velocity": 49}, {"time": 3710, "pitch": 51, "duration": 7, "velocity": 83}, {"time": 3713, "pitch": 55, "duration": 4, "velocity": 76}, {"time": 3716, "pitch": 63, "duration": 12, "velocity": 100}, {"time": 3719, "pitch": 51, "duration": 9, "velocity": 77}, {"time": 3722, "pitch": 58, "duration": 6, "velocity": 78}, {"time": 3725, "pitch": 55, "duration": 4, "velocity": 72}, {"time": 3728, "pitch": 39, "duration": 19, "velocity": 69}, {"time": 3731, "pitch": 46, "duration": 15, "velocity": 69}, {"time": 3734, "pitch": 51, "duration": 8, "velocity": 73}, {"time": 3737, "pitch": 55, "duration": 5, "velocity": 73}, {"time": 3740, "pitch": 63, "duration": 11, "velocity": 100}, {"time": 3743, "pitch": 51, "duration": 2, "velocity": 85}, {"time": 3746, "pitch": 58, "duration": 5, "velocity": 77}, {"time": 3749, "pitch": 55, "duration": 4, "velocity": 75}, {"time": 3752, "pitch": 36, "duration": 21, "velocity": 41}, {"time": 3755, "pitch": 43, "duration": 21, "velocity": 66}, {"time": 3758, "pitch": 48, "duration": 7, "velocity": 82}, {"time": 3761, "pitch": 55, "duration": 7, "velocity": 62}, {"time": 3764, "pitch": 63, "duration": 12, "velocity": 107}, {"time": 3767, "pitch": 48, "duration": 3, "velocity": 83}, {"time": 3770, "pitch": 60, "duration": 6, "velocity": 89}, {"time": 3773, "pitch": 55, "duration": 4, "velocity": 81}, {"time": 3776, "pitch": 36, "duration": 22, "velocity": 65}, {"time": 3779, "pitch": 43, "duration": 21, "velocity": 67}, {"time": 3782, "pitch": 48, "duration": 8, "velocity": 72}, {"time": 3785, "pitch": 55, "duration": 7, "velocity": 67}, {"time": 3788, "pitch": 63, "duration": 11, "velocity": 107}, {"time": 3791, "pitch": 48, "duration": 4, "velocity": 73}, {"time": 3794, "pitch": 60, "duration": 6, "velocity": 83}, {"time": 3797, "pitch": 55, "duration": 4, "velocity": 85}, {"time": 3800, "pitch": 36, "duration": 22, "velocity": 72}, {"time": 3803, "pitch": 43, "duration": 22, "velocity": 53}, {"time": 3806, "pitch": 48, "duration": 8, "velocity": 72}, {"time": 3809, "pitch": 55, "duration": 6, "velocity": 69}, {"time": 3812, "pitch": 63, "duration": 22, "velocity": 107}, {"time": 3815, "pitch": 48, "duration": 13, "velocity": 81}, {"time": 3818, "pitch": 60, "duration": 16, "velocity": 71}, {"time": 3821, "pitch": 55, "duration": 11, "velocity": 82}, {"time": 3824, "pitch": 36, "duration": 17, "velocity": 62}, {"time": 3827, "pitch": 43, "duration": 14, "velocity": 52}, {"time": 3830, "pitch": 48, "duration": 8, "velocity": 81}, {"time": 3833, "pitch": 55, "duration": 5, "velocity": 73}, {"time": 3836, "pitch": 63, "duration": 11, "velocity": 100}, {"time": 3839, "pitch": 48, "duration": 3, "velocity": 72}, {"time": 3842, "pitch": 60, "duration": 6, "velocity": 74}, {"time": 3845, "pitch": 55, "duration": 3, "velocity": 92}, {"time": 3848, "pitch": 44, "duration": 19, "velocity": 61}, {"time": 3851, "pitch": 51, "duration": 19, "velocity": 37}, {"time": 3854, "pitch": 56, "duration": 7, "velocity": 95}, {"time": 3857, "pitch": 60, "duration": 6, "velocity": 72}, {"time": 3860, "pitch": 68, "duration": 11, "velocity": 97}, {"time": 3863, "pitch": 56, "duration": 10, "velocity": 93}, {"time": 3866, "pitch": 63, "duration": 6, "velocity": 85}, {"time": 3869, "pitch": 60, "duration": 8, "velocity": 77}, {"time": 3872, "pitch": 44, "duration": 21, "velocity": 54}, {"time": 3875, "pitch": 51, "duration": 17, "velocity": 35}, {"time": 3878, "pitch": 56, "duration": 8, "velocity": 82}, {"time": 3881, "pitch": 60, "duration": 6, "velocity": 66}, {"time": 3884, "pitch": 68, "duration": 10, "velocity": 112}, {"time": 3887, "pitch": 56, "duration": 4, "velocity": 77}, {"time": 3890, "pitch": 63, "duration": 4, "velocity": 92}, {"time": 3893, "pitch": 60, "duration": 5, "velocity": 79}, {"time": 3896, "pitch": 41, "duration": 21, "velocity": 64}, {"time": 3899, "pitch": 48, "duration": 21, "velocity": 78}, {"time": 3902, "pitch": 53, "duration": 7, "velocity": 83}, {"time": 3905, "pitch": 60, "duration": 6, "velocity": 78}, {"time": 3908, "pitch": 68, "duration": 11, "velocity": 107}, {"time": 3911, "pitch": 53, "duration": 3, "velocity": 79}, {"time": 3914, "pitch": 65, "duration": 6, "velocity": 66}, {"time": 3917, "pitch": 60, "duration": 5, "velocity": 83}, {"time": 3920, "pitch": 41, "duration": 16, "velocity": 68}, {"time": 3923, "pitch": 48, "duration": 13, "velocity": 46}, {"time": 3926, "pitch": 53, "duration": 7, "velocity": 72}, {"time": 3929, "pitch": 60, "duration": 6, "velocity": 70}, {"time": 3932, "pitch": 68, "duration": 11, "velocity": 99}, {"time": 3935, "pitch": 53, "duration": 3, "velocity": 73}, {"time": 3938, "pitch": 65, "duration": 6, "velocity": 85}, {"time": 3941, "pitch": 60, "duration": 3, "velocity": 81}, {"time": 3944, "pitch": 46, "duration": 21, "velocity": 63}, {"time": 3947, "pitch": 53, "duration": 20, "velocity": 43}, {"time": 3950, "pitch": 58, "duration": 7, "velocity": 89}, {"time": 3953, "pitch": 62, "duration": 7, "velocity": 70}, {"time": 3956, "pitch": 70, "duration": 15, "velocity": 99}, {"time": 3959, "pitch": 58, "duration": 12, "velocity": 76}, {"time": 3962, "pitch": 65, "duration": 7, "velocity": 79}, {"time": 3965, "pitch": 62, "duration": 9, "velocity": 82}, {"time": 3968, "pitch": 46, "duration": 20, "velocity": 61}, {"time": 3971, "pitch": 53, "duration": 21, "velocity": 50}, {"time": 3974, "pitch": 58, "duration": 8, "velocity": 62}, {"time": 3977, "pitch": 62, "duration": 6, "velocity": 72}, {"time": 3980, "pitch": 70, "duration": 10, "velocity": 97}, {"time": 3983, "pitch": 58, "duration": 9, "velocity": 83}, {"time": 3986, "pitch": 65, "duration": 7, "velocity": 83}, {"time": 3989, "pitch": 62, "duration": 5, "velocity": 89}, {"time": 3992, "pitch": 46, "duration": 22, "velocity": 83}, {"time": 3998, "pitch": 53, "duration": 18, "velocity": 54}, {"time": 4004, "pitch": 65, "duration": 13, "velocity": 95}, {"time": 4004, "pitch": 70, "duration": 13, "velocity": 107}, {"time": 4010, "pitch": 58, "duration": 9, "velocity": 85}, {"time": 4013, "pitch": 62, "duration": 5, "velocity": 99}, {"time": 4016, "pitch": 46, "duration": 23, "velocity": 90}, {"time": 4019, "pitch": 53, "duration": 18, "velocity": 67}, {"time": 4022, "pitch": 58, "duration": 7, "velocity": 96}, {"time": 4025, "pitch": 62, "duration": 6, "velocity": 89}, {"time": 4028, "pitch": 70, "duration": 12, "velocity": 112}, {"time": 4031, "pitch": 58, "duration": 5, "velocity": 95}, {"time": 4034, "pitch": 65, "duration": 6, "velocity": 92}, {"time": 4037, "pitch": 62, "duration": 3, "velocity": 97}, {"time": 4040, "pitch": 44, "duration": 45, "velocity": 77}, {"time": 4046, "pitch": 51, "duration": 37, "velocity": 66}, {"time": 4052, "pitch": 56, "duration": 16, "velocity": 93}, {"time": 4058, "pitch": 60, "duration": 14, "velocity": 67}, {"time": 4064, "pitch": 68, "duration": 24, "velocity": 95}, {"time": 4070, "pitch": 56, "duration": 11, "velocity": 73}, {"time": 4076, "pitch": 63, "duration": 11, "velocity": 78}, {"time": 4082, "pitch": 60, "duration": 5, "velocity": 77}, {"time": 4089, "pitch": 44, "duration": 41, "velocity": 85}, {"time": 4095, "pitch": 51, "duration": 41, "velocity": 62}, {"time": 4100, "pitch": 56, "duration": 16, "velocity": 81}, {"time": 4106, "pitch": 59, "duration": 15, "velocity": 82}, {"time": 4112, "pitch": 63, "duration": 44, "velocity": 90}, {"time": 4112, "pitch": 68, "duration": 44, "velocity": 92}, {"time": 4119, "pitch": 56, "duration": 24, "velocity": 59}, {"time": 4124, "pitch": 59, "duration": 18, "velocity": 72}, {"time": 4136, "pitch": 44, "duration": 32, "velocity": 92}, {"time": 4142, "pitch": 51, "duration": 24, "velocity": 72}, {"time": 4148, "pitch": 56, "duration": 17, "velocity": 82}, {"time": 4154, "pitch": 59, "duration": 14, "velocity": 89}, {"time": 4161, "pitch": 63, "duration": 31, "velocity": 88}, {"time": 4161, "pitch": 68, "duration": 30, "velocity": 95}, {"time": 4174, "pitch": 59, "duration": 17, "velocity": 69}, {"time": 4196, "pitch": 39, "duration": 71, "velocity": 99}, {"time": 4203, "pitch": 46, "duration": 62, "velocity": 45}, {"time": 4208, "pitch": 51, "duration": 58, "velocity": 77}, {"time": 4213, "pitch": 55, "duration": 9, "velocity": 64}, {"time": 4217, "pitch": 58, "duration": 6, "velocity": 68}, {"time": 4222, "pitch": 63, "duration": 2, "velocity": 59}, {"time": 4229, "pitch": 67, "duration": 37, "velocity": 55}, {"time": 4234, "pitch": 70, "duration": 26, "velocity": 58}, {"time": 4242, "pitch": 75, "duration": 25, "velocity": 37}], "annotations": [{"time": 20, "annotation": {"number": 64, "value": 127}, "group": "control_change"}, {"time": 53, "annotation": {"number": 64, "value": 0}, "group": "control_change"}, {"time": 57, "annotation": {"number": 64, "value": 127}, "group": "control_change"}, {"time": 101, "annotation": {"number": 64, "value": 0}, "group": "control_change"}, {"time": 104, "annotation": {"number": 64, "value": 127}, "group": "control_change"}, {"time": 149, "annotation": {"number": 64, "value": 0}, "group": "control_change"}, {"time": 153, "annotation": {"number": 64, "value": 127}, "group": "control_change"}, {"time": 197, "annotation": {"number": 64, "value": 0}, "group": "control_change"}, {"time": 200, "annotation": {"number": 64, "value": 127}, "group": "control_change"}, {"time": 245, "annotation": {"number": 64, "value": 0}, "group": "control_change"}, {"time": 249, "annotation": {"number": 64, "value": 127}, "group": "control_change"}, {"time": 291, "annotation": {"number": 64, "value": 0}, "group": "control_change"}, {"time": 297, "annotation": {"number": 64, "value": 127}, "group": "control_change"}, {"time": 341, "annotation": {"number": 64, "value": 0}, "group": "control_change"}, {"time": 345, "annotation": {"number": 64, "value": 127}, "group": "control_change"}, {"time": 389, "annotation": {"number": 64, "value": 0}, "group": "control_change"}, {"time": 392, "annotation": {"number": 64, "value": 127}, "group": "control_change"}, {"time": 438, "annotation": {"number": 64, "value": 0}, "group": "control_change"}, {"time": 441, "annotation": {"number": 64, "value": 127}, "group": "control_change"}, {"time": 484, "annotation": {"number": 64, "value": 0}, "group": "control_change"}, {"time": 490, "annotation": {"number": 64, "value": 127}, "group": "control_change"}, {"time": 530, "annotation": {"number": 64, "value": 0}, "group": "control_change"}, {"time": 536, "annotation": {"number": 64, "value": 127}, "group": "control_change"}, {"time": 574, "annotation": {"number": 64, "value": 0}, "group": "control_change"}, {"time": 629, "annotation": {"number": 64, "value": 0}, "group": "control_change"}, {"time": 633, "annotation": {"number": 64, "value": 127}, "group": "control_change"}, {"time": 675, "annotation": {"number": 64, "value": 0}, "group": "control_change"}, {"time": 681, "annotation": {"number": 64, "value": 127}, "group": "control_change"}, {"time": 725, "annotation": {"number": 64, "value": 0}, "group": "control_change"}, {"time": 729, "annotation": {"number": 64, "value": 127}, "group": "control_change"}, {"time": 773, "annotation": {"number": 64, "value": 0}, "group": "control_change"}, {"time": 776, "annotation": {"number": 64, "value": 127}, "group": "control_change"}, {"time": 822, "annotation": {"number": 64, "value": 0}, "group": "control_change"}, {"time": 825, "annotation": {"number": 64, "value": 127}, "group": "control_change"}, {"time": 868, "annotation": {"number": 64, "value": 0}, "group": "control_change"}, {"time": 874, "annotation": {"number": 64, "value": 127}, "group": "control_change"}, {"time": 914, "annotation": {"number": 64, "value": 0}, "group": "control_change"}, {"time": 920, "annotation": {"number": 64, "value": 127}, "group": "control_change"}, {"time": 958, "annotation": {"number": 64, "value": 0}, "group": "control_change"}, {"time": 968, "annotation": {"number": 64, "value": 127}, "group": "control_change"}, {"time": 1013, "annotation": {"number": 64, "value": 0}, "group": "control_change"}, {"time": 1016, "annotation": {"number": 64, "value": 127}, "group": "control_change"}, {"time": 1060, "annotation": {"number": 64, "value": 0}, "group": "control_change"}, {"time": 1065, "annotation": {"number": 64, "value": 127}, "group": "control_change"}, {"time": 1108, "annotation": {"number": 64, "value": 0}, "group": "control_change"}, {"time": 1114, "annotation": {"number": 64, "value": 127}, "group": "control_change"}, {"time": 1154, "annotation": {"number": 64, "value": 0}, "group": "control_change"}, {"time": 1160, "annotation": {"number": 64, "value": 127}, "group": "control_change"}, {"time": 1203, "annotation": {"number": 64, "value": 0}, "group": "control_change"}, {"time": 1209, "annotation": {"number": 64, "value": 127}, "group": "control_change"}, {"time": 1253, "annotation": {"number": 64, "value": 0}, "group": "control_change"}, {"time": 1258, "annotation": {"number": 64, "value": 127}, "group": "control_change"}, {"time": 1299, "annotation": {"number": 64, "value": 0}, "group": "control_change"}, {"time": 1308, "annotation": {"number": 64, "value": 127}, "group": "control_change"}, {"time": 1349, "annotation": {"number": 64, "value": 0}, "group": "control_change"}, {"time": 1354, "annotation": {"number": 64, "value": 127}, "group": "control_change"}, {"time": 1373, "annotation": {"number": 64, "value": 0}, "group": "control_change"}, {"time": 1378, "annotation": {"number": 64, "value": 127}, "group": "control_change"}, {"time": 1396, "annotation": {"number": 64, "value": 0}, "group": "control_change"}, {"time": 1404, "annotation": {"number": 64, "value": 127}, "group": "control_change"}, {"time": 1421, "annotation": {"number": 64, "value": 0}, "group": "control_change"}, {"time": 1439, "annotation": {"number": 64, "value": 127}, "group": "control_change"}, {"time": 1445, "annotation": {"number": 64, "value": 0}, "group": "control_change"}, {"time": 1497, "annotation": {"number": 64, "value": 127}, "group": "control_change"}, {"time": 1506, "annotation": {"number": 64, "value": 0}, "group": "control_change"}, {"time": 1535, "annotation": {"number": 64, "value": 127}, "group": "control_change"}, {"time": 1541, "annotation": {"number": 64, "value": 0}, "group": "control_change"}, {"time": 1545, "annotation": {"number": 64, "value": 127}, "group": "control_change"}, {"time": 1565, "annotation": {"number": 64, "value": 0}, "group": "control_change"}, {"time": 1569, "annotation": {"number": 64, "value": 127}, "group": "control_change"}, {"time": 1589, "annotation": {"number": 64, "value": 0}, "group": "control_change"}, {"time": 1593, "annotation": {"number": 64, "value": 127}, "group": "control_change"}, {"time": 1612, "annotation": {"number": 64, "value": 0}, "group": "control_change"}, {"time": 1630, "annotation": {"number": 64, "value": 127}, "group": "control_change"}, {"time": 1636, "annotation": {"number": 64, "value": 0}, "group": "control_change"}, {"time": 1640, "annotation": {"number": 64, "value": 127}, "group": "control_change"}, {"time": 1661, "annotation": {"number": 64, "value": 0}, "group": "control_change"}, {"time": 1664, "annotation": {"number": 64, "value": 127}, "group": "control_change"}, {"time": 1684, "annotation": {"number": 64, "value": 0}, "group": "control_change"}, {"time": 1688, "annotation": {"number": 64, "value": 127}, "group": "control_change"}, {"time": 1708, "annotation": {"number": 64, "value": 0}, "group": "control_change"}, {"time": 1713, "annotation": {"number": 64, "value": 127}, "group": "control_change"}, {"time": 1729, "annotation": {"number": 64, "value": 0}, "group": "control_change"}, {"time": 1738, "annotation": {"number": 64, "value": 127}, "group": "control_change"}, {"time": 1757, "annotation": {"number": 64, "value": 0}, "group": "control_change"}, {"time": 1762, "annotation": {"number": 64, "value": 127}, "group": "control_change"}, {"time": 1780, "annotation": {"number": 64, "value": 0}, "group": "control_change"}, {"time": 1788, "annotation": {"number": 64, "value": 127}, "group": "control_change"}, {"time": 1805, "annotation": {"number": 64, "value": 0}, "group": "control_change"}, {"time": 1823, "annotation": {"number": 64, "value": 127}, "group": "control_change"}, {"time": 1829, "annotation": {"number": 64, "value": 0}, "group": "control_change"}, {"time": 1881, "annotation": {"number": 64, "value": 127}, "group": "control_change"}, {"time": 1890, "annotation": {"number": 64, "value": 0}, "group": "control_change"}, {"time": 1919, "annotation": {"number": 64, "value": 127}, "group": "control_change"}, {"time": 1925, "annotation": {"number": 64, "value": 0}, "group": "control_change"}, {"time": 1929, "annotation": {"number": 64, "value": 127}, "group": "control_change"}, {"time": 1949, "annotation": {"number": 64, "value": 0}, "group": "control_change"}, {"time": 1953, "annotation": {"number": 64, "value": 127}, "group": "control_change"}, {"time": 1973, "annotation": {"number": 64, "value": 0}, "group": "control_change"}, {"time": 1977, "annotation": {"number": 64, "value": 127}, "group": "control_change"}, {"time": 1996, "annotation": {"number": 64, "value": 0}, "group": "control_change"}, {"time": 2014, "annotation": {"number": 64, "value": 127}, "group": "control_change"}, {"time": 2020, "annotation": {"number": 64, "value": 0}, "group": "control_change"}, {"time": 2024, "annotation": {"number": 64, "value": 127}, "group": "control_change"}, {"time": 2045, "annotation": {"number": 64, "value": 0}, "group": "control_change"}, {"time": 2048, "annotation": {"number": 64, "value": 127}, "group": "control_change"}, {"time": 2068, "annotation": {"number": 64, "value": 0}, "group": "control_change"}, {"time": 2072, "annotation": {"number": 64, "value": 127}, "group": "control_change"}, {"time": 2092, "annotation": {"number": 64, "value": 0}, "group": "control_change"}, {"time": 2097, "annotation": {"number": 64, "value": 127}, "group": "control_change"}, {"time": 2113, "annotation": {"number": 64, "value": 0}, "group": "control_change"}, {"time": 2122, "annotation": {"number": 64, "value": 127}, "group": "control_change"}, {"time": 2218, "annotation": {"number": 64, "value": 127}, "group": "control_change"}, {"time": 2259, "annotation": {"number": 64, "value": 0}, "group": "control_change"}, {"time": 2264, "annotation": {"number": 64, "value": 127}, "group": "control_change"}, {"time": 2310, "annotation": {"number": 64, "value": 0}, "group": "control_change"}, {"time": 2312, "annotation": {"number": 64, "value": 127}, "group": "control_change"}, {"time": 2352, "annotation": {"number": 64, "value": 0}, "group": "control_change"}, {"time": 2352, "annotation": {"number": 64, "value": 127}, "group": "control_change"}, {"time": 2361, "annotation": {"number": 64, "value": 127}, "group": "control_change"}, {"time": 2402, "annotation": {"number": 64, "value": 0}, "group": "control_change"}, {"time": 2410, "annotation": {"number": 64, "value": 127}, "group": "control_change"}, {"time": 2449, "annotation": {"number": 64, "value": 0}, "group": "control_change"}, {"time": 2460, "annotation": {"number": 64, "value": 127}, "group": "control_change"}, {"time": 2460, "annotation": {"number": 64, "value": 0}, "group": "control_change"}, {"time": 2493, "annotation": {"number": 64, "value": 0}, "group": "control_change"}, {"time": 2549, "annotation": {"number": 64, "value": 0}, "group": "control_change"}, {"time": 2553, "annotation": {"number": 64, "value": 127}, "group": "control_change"}, {"time": 2595, "annotation": {"number": 64, "value": 0}, "group": "control_change"}, {"time": 2601, "annotation": {"number": 64, "value": 127}, "group": "control_change"}, {"time": 2645, "annotation": {"number": 64, "value": 0}, "group": "control_change"}, {"time": 2649, "annotation": {"number": 64, "value": 127}, "group": "control_change"}, {"time": 2693, "annotation": {"number": 64, "value": 0}, "group": "control_change"}, {"time": 2696, "annotation": {"number": 64, "value": 127}, "group": "control_change"}, {"time": 2742, "annotation": {"number": 64, "value": 0}, "group": "control_change"}, {"time": 2745, "annotation": {"number": 64, "value": 127}, "group": "control_change"}, {"time": 2788, "annotation": {"number": 64, "value": 0}, "group": "control_change"}, {"time": 2794, "annotation": {"number": 64, "value": 127}, "group": "control_change"}, {"time": 2834, "annotation": {"number": 64, "value": 0}, "group": "control_change"}, {"time": 2840, "annotation": {"number": 64, "value": 127}, "group": "control_change"}, {"time": 2878, "annotation": {"number": 64, "value": 0}, "group": "control_change"}, {"time": 2888, "annotation": {"number": 64, "value": 127}, "group": "control_change"}, {"time": 2933, "annotation": {"number": 64, "value": 0}, "group": "control_change"}, {"time": 2936, "annotation": {"number": 64, "value": 127}, "group": "control_change"}, {"time": 2980, "annotation": {"number": 64, "value": 0}, "group": "control_change"}, {"time": 2985, "annotation": {"number": 64, "value": 127}, "group": "control_change"}, {"time": 3028, "annotation": {"number": 64, "value": 0}, "group": "control_change"}, {"time": 3034, "annotation": {"number": 64, "value": 127}, "group": "control_change"}, {"time": 3074, "annotation": {"number": 64, "value": 0}, "group": "control_change"}, {"time": 3080, "annotation": {"number": 64, "value": 127}, "group": "control_change"}, {"time": 3123, "annotation": {"number": 64, "value": 0}, "group": "control_change"}, {"time": 3129, "annotation": {"number": 64, "value": 127}, "group": "control_change"}, {"time": 3173, "annotation": {"number": 64, "value": 0}, "group": "control_change"}, {"time": 3178, "annotation": {"number": 64, "value": 127}, "group": "control_change"}, {"time": 3219, "annotation": {"number": 64, "value": 0}, "group": "control_change"}, {"time": 3228, "annotation": {"number": 64, "value": 127}, "group": "control_change"}, {"time": 3269, "annotation": {"number": 64, "value": 0}, "group": "control_change"}, {"time": 3274, "annotation": {"number": 64, "value": 127}, "group": "control_change"}, {"time": 3293, "annotation": {"number": 64, "value": 0}, "group": "control_change"}, {"time": 3298, "annotation": {"number": 64, "value": 127}, "group": "control_change"}, {"time": 3316, "annotation": {"number": 64, "value": 0}, "group": "control_change"}, {"time": 3324, "annotation": {"number": 64, "value": 127}, "group": "control_change"}, {"time": 3341, "annotation": {"number": 64, "value": 0}, "group": "control_change"}, {"time": 3359, "annotation": {"number": 64, "value": 127}, "group": "control_change"}, {"time": 3365, "annotation": {"number": 64, "value": 0}, "group": "control_change"}, {"time": 3417, "annotation": {"number": 64, "value": 127}, "group": "control_change"}, {"time": 3426, "annotation": {"number": 64, "value": 0}, "group": "control_change"}, {"time": 3455, "annotation": {"number": 64, "value": 127}, "group": "control_change"}, {"time": 3461, "annotation": {"number": 64, "value": 0}, "group": "control_change"}, {"time": 3465, "annotation": {"number": 64, "value": 127}, "group": "control_change"}, {"time": 3485, "annotation": {"number": 64, "value": 0}, "group": "control_change"}, {"time": 3489, "annotation": {"number": 64, "value": 127}, "group": "control_change"}, {"time": 3509, "annotation": {"number": 64, "value": 0}, "group": "control_change"}, {"time": 3513, "annotation": {"number": 64, "value": 127}, "group": "control_change"}, {"time": 3532, "annotation": {"number": 64, "value": 0}, "group": "control_change"}, {"time": 3550, "annotation": {"number": 64, "value": 127}, "group": "control_change"}, {"time": 3556, "annotation": {"number": 64, "value": 0}, "group": "control_change"}, {"time": 3560, "annotation": {"number": 64, "value": 127}, "group": "control_change"}, {"time": 3581, "annotation": {"number": 64, "value": 0}, "group": "control_change"}, {"time": 3584, "annotation": {"number": 64, "value": 127}, "group": "control_change"}, {"time": 3604, "annotation": {"number": 64, "value": 0}, "group": "control_change"}, {"time": 3608, "annotation": {"number": 64, "value": 127}, "group": "control_change"}, {"time": 3628, "annotation": {"number": 64, "value": 0}, "group": "control_change"}, {"time": 3633, "annotation": {"number": 64, "value": 127}, "group": "control_change"}, {"time": 3649, "annotation": {"number": 64, "value": 0}, "group": "control_change"}, {"time": 3658, "annotation": {"number": 64, "value": 127}, "group": "control_change"}, {"time": 3677, "annotation": {"number": 64, "value": 0}, "group": "control_change"}, {"time": 3682, "annotation": {"number": 64, "value": 127}, "group": "control_change"}, {"time": 3700, "annotation": {"number": 64, "value": 0}, "group": "control_change"}, {"time": 3708, "annotation": {"number": 64, "value": 127}, "group": "control_change"}, {"time": 3725, "annotation": {"number": 64, "value": 0}, "group": "control_change"}, {"time": 3743, "annotation": {"number": 64, "value": 127}, "group": "control_change"}, {"time": 3749, "annotation": {"number": 64, "value": 0}, "group": "control_change"}, {"time": 3801, "annotation": {"number": 64, "value": 127}, "group": "control_change"}, {"time": 3810, "annotation": {"number": 64, "value": 0}, "group": "control_change"}, {"time": 3839, "annotation": {"number": 64, "value": 127}, "group": "control_change"}, {"time": 3845, "annotation": {"number": 64, "value": 0}, "group": "control_change"}, {"time": 3849, "annotation": {"number": 64, "value": 127}, "group": "control_change"}, {"time": 3869, "annotation": {"number": 64, "value": 0}, "group": "control_change"}, {"time": 3873, "annotation": {"number": 64, "value": 127}, "group": "control_change"}, {"time": 3893, "annotation": {"number": 64, "value": 0}, "group": "control_change"}, {"time": 3897, "annotation": {"number": 64, "value": 127}, "group": "control_change"}, {"time": 3916, "annotation": {"number": 64, "value": 0}, "group": "control_change"}, {"time": 3934, "annotation": {"number": 64, "value": 127}, "group": "control_change"}, {"time": 3940, "annotation": {"number": 64, "value": 0}, "group": "control_change"}, {"time": 3944, "annotation": {"number": 64, "value": 127}, "group": "control_change"}, {"time": 3965, "annotation": {"number": 64, "value": 0}, "group": "control_change"}, {"time": 3968, "annotation": {"number": 64, "value": 127}, "group": "control_change"}, {"time": 3988, "annotation": {"number": 64, "value": 0}, "group": "control_change"}, {"time": 3992, "annotation": {"number": 64, "value": 127}, "group": "control_change"}, {"time": 4012, "annotation": {"number": 64, "value": 0}, "group": "control_change"}, {"time": 4017, "annotation": {"number": 64, "value": 127}, "group": "control_change"}, {"time": 4033, "annotation": {"number": 64, "value": 0}, "group": "control_change"}, {"time": 4090, "annotation": {"number": 64, "value": 127}, "group": "control_change"}, {"time": 4132, "annotation": {"number": 64, "value": 0}, "group": "control_change"}, {"time": 4138, "annotation": {"number": 64, "value": 127}, "group": "control_change"}, {"time": 4189, "annotation": {"number": 64, "value": 0}, "group": "control_change"}, {"time": 4207, "annotation": {"number": 64, "value": 127}, "group": "control_change"}, {"time": 4350, "annotation": {"number": 64, "value": 0}, "group": "control_change"}, {"time": 4351, "annotation": {"number": 64, "value": 127}, "group": "control_change"}, {"time": 4354, "annotation": {"number": 64, "value": 0}, "group": "control_change"}, {"time": 4356, "annotation": {"number": 64, "value": 127}, "group": "control_change"}]}]}