{"metadata": {"schema_version": "0.2", "title": "None", "source_filename": "743.mid", "source_format": "midi"}, "resolution": 12, "tempos": [{"time": 0, "qpm": 62.5}, {"time": 2748, "qpm": 57.000031350017245}, {"time": 2772, "qpm": 62.5}], "time_signatures": [{"time": 0, "numerator": 1, "denominator": 4}], "tracks": [{"program": 4, "is_drum": false, "name": "MELODY", "notes": [{"time": 221, "pitch": 57, "duration": 1, "velocity": 83}, {"time": 224, "pitch": 57, "duration": 2, "velocity": 72}, {"time": 227, "pitch": 56, "duration": 3, "velocity": 72}, {"time": 233, "pitch": 59, "duration": 2, "velocity": 73}, {"time": 236, "pitch": 64, "duration": 20, "velocity": 85}, {"time": 269, "pitch": 59, "duration": 1, "velocity": 83}, {"time": 272, "pitch": 59, "duration": 2, "velocity": 72}, {"time": 275, "pitch": 64, "duration": 3, "velocity": 96}, {"time": 281, "pitch": 59, "duration": 2, "velocity": 85}, {"time": 284, "pitch": 61, "duration": 25, "velocity": 97}, {"time": 317, "pitch": 57, "duration": 1, "velocity": 85}, {"time": 320, "pitch": 57, "duration": 1, "velocity": 61}, {"time": 323, "pitch": 56, "duration": 3, "velocity": 58}, {"time": 329, "pitch": 59, "duration": 2, "velocity": 79}, {"time": 332, "pitch": 64, "duration": 8, "velocity": 106}, {"time": 341, "pitch": 66, "duration": 1, "velocity": 92}, {"time": 344, "pitch": 66, "duration": 4, "velocity": 92}, {"time": 350, "pitch": 64, "duration": 14, "velocity": 76}, {"time": 365, "pitch": 64, "duration": 1, "velocity": 90}, {"time": 368, "pitch": 66, "duration": 1, "velocity": 96}, {"time": 371, "pitch": 68, "duration": 3, "velocity": 97}, {"time": 377, "pitch": 63, "duration": 1, "velocity": 97}, {"time": 380, "pitch": 63, "duration": 2, "velocity": 99}, {"time": 386, "pitch": 61, "duration": 2, "velocity": 97}, {"time": 392, "pitch": 63, "duration": 10, "velocity": 88}, {"time": 413, "pitch": 59, "duration": 1, "velocity": 89}, {"time": 416, "pitch": 59, "duration": 1, "velocity": 74}, {"time": 419, "pitch": 61, "duration": 5, "velocity": 99}, {"time": 425, "pitch": 64, "duration": 2, "velocity": 86}, {"time": 431, "pitch": 64, "duration": 4, "velocity": 89}, {"time": 437, "pitch": 61, "duration": 1, "velocity": 78}, {"time": 440, "pitch": 66, "duration": 2, "velocity": 97}, {"time": 446, "pitch": 64, "duration": 10, "velocity": 89}, {"time": 467, "pitch": 59, "duration": 5, "velocity": 96}, {"time": 473, "pitch": 59, "duration": 5, "velocity": 85}, {"time": 479, "pitch": 68, "duration": 5, "velocity": 97}, {"time": 485, "pitch": 69, "duration": 2, "velocity": 90}, {"time": 488, "pitch": 69, "duration": 8, "velocity": 89}, {"time": 497, "pitch": 68, "duration": 10, "velocity": 89}, {"time": 515, "pitch": 68, "duration": 5, "velocity": 95}, {"time": 521, "pitch": 61, "duration": 3, "velocity": 82}, {"time": 524, "pitch": 64, "duration": 25, "velocity": 89}, {"time": 551, "pitch": 60, "duration": 3, "velocity": 81}, {"time": 554, "pitch": 60, "duration": 4, "velocity": 78}, {"time": 560, "pitch": 59, "duration": 26, "velocity": 75}, {"time": 605, "pitch": 57, "duration": 1, "velocity": 83}, {"time": 608, "pitch": 57, "duration": 2, "velocity": 72}, {"time": 611, "pitch": 56, "duration": 3, "velocity": 72}, {"time": 617, "pitch": 59, "duration": 2, "velocity": 73}, {"time": 620, "pitch": 64, "duration": 20, "velocity": 85}, {"time": 653, "pitch": 59, "duration": 1, "velocity": 83}, {"time": 656, "pitch": 59, "duration": 2, "velocity": 72}, {"time": 659, "pitch": 64, "duration": 3, "velocity": 96}, {"time": 665, "pitch": 59, "duration": 2, "velocity": 85}, {"time": 668, "pitch": 61, "duration": 25, "velocity": 97}, {"time": 701, "pitch": 57, "duration": 1, "velocity": 85}, {"time": 704, "pitch": 57, "duration": 1, "velocity": 61}, {"time": 707, "pitch": 56, "duration": 3, "velocity": 58}, {"time": 713, "pitch": 59, "duration": 2, "velocity": 79}, {"time": 716, "pitch": 64, "duration": 8, "velocity": 106}, {"time": 725, "pitch": 66, "duration": 1, "velocity": 92}, {"time": 728, "pitch": 66, "duration": 4, "velocity": 92}, {"time": 734, "pitch": 64, "duration": 14, "velocity": 76}, {"time": 749, "pitch": 64, "duration": 1, "velocity": 90}, {"time": 752, "pitch": 66, "duration": 1, "velocity": 96}, {"time": 755, "pitch": 68, "duration": 3, "velocity": 97}, {"time": 761, "pitch": 63, "duration": 1, "velocity": 97}, {"time": 764, "pitch": 63, "duration": 2, "velocity": 99}, {"time": 770, "pitch": 61, "duration": 2, "velocity": 97}, {"time": 776, "pitch": 63, "duration": 10, "velocity": 88}, {"time": 797, "pitch": 59, "duration": 1, "velocity": 89}, {"time": 800, "pitch": 59, "duration": 1, "velocity": 74}, {"time": 803, "pitch": 61, "duration": 5, "velocity": 99}, {"time": 809, "pitch": 64, "duration": 2, "velocity": 86}, {"time": 815, "pitch": 64, "duration": 4, "velocity": 89}, {"time": 821, "pitch": 61, "duration": 1, "velocity": 78}, {"time": 824, "pitch": 66, "duration": 2, "velocity": 97}, {"time": 830, "pitch": 64, "duration": 10, "velocity": 89}, {"time": 851, "pitch": 59, "duration": 5, "velocity": 96}, {"time": 857, "pitch": 59, "duration": 5, "velocity": 85}, {"time": 863, "pitch": 68, "duration": 5, "velocity": 97}, {"time": 869, "pitch": 69, "duration": 2, "velocity": 90}, {"time": 872, "pitch": 69, "duration": 8, "velocity": 89}, {"time": 881, "pitch": 68, "duration": 10, "velocity": 89}, {"time": 899, "pitch": 68, "duration": 5, "velocity": 95}, {"time": 905, "pitch": 61, "duration": 3, "velocity": 82}, {"time": 908, "pitch": 64, "duration": 25, "velocity": 89}, {"time": 932, "pitch": 59, "duration": 2, "velocity": 83}, {"time": 935, "pitch": 61, "duration": 4, "velocity": 100}, {"time": 941, "pitch": 64, "duration": 1, "velocity": 74}, {"time": 944, "pitch": 64, "duration": 8, "velocity": 86}, {"time": 950, "pitch": 61, "duration": 2, "velocity": 70}, {"time": 953, "pitch": 64, "duration": 17, "velocity": 93}, {"time": 971, "pitch": 64, "duration": 9, "velocity": 122}, {"time": 983, "pitch": 66, "duration": 7, "velocity": 127}, {"time": 995, "pitch": 68, "duration": 4, "velocity": 127}, {"time": 1001, "pitch": 68, "duration": 3, "velocity": 122}, {"time": 1007, "pitch": 68, "duration": 3, "velocity": 127}, {"time": 1013, "pitch": 68, "duration": 2, "velocity": 127}, {"time": 1016, "pitch": 66, "duration": 1, "velocity": 112}, {"time": 1019, "pitch": 68, "duration": 4, "velocity": 127}, {"time": 1025, "pitch": 71, "duration": 4, "velocity": 127}, {"time": 1031, "pitch": 71, "duration": 3, "velocity": 127}, {"time": 1037, "pitch": 59, "duration": 1, "velocity": 112}, {"time": 1040, "pitch": 59, "duration": 2, "velocity": 96}, {"time": 1043, "pitch": 68, "duration": 3, "velocity": 127}, {"time": 1046, "pitch": 66, "duration": 2, "velocity": 97}, {"time": 1049, "pitch": 66, "duration": 1, "velocity": 122}, {"time": 1052, "pitch": 66, "duration": 6, "velocity": 127}, {"time": 1061, "pitch": 66, "duration": 3, "velocity": 127}, {"time": 1064, "pitch": 64, "duration": 2, "velocity": 92}, {"time": 1067, "pitch": 66, "duration": 1, "velocity": 117}, {"time": 1070, "pitch": 66, "duration": 2, "velocity": 122}, {"time": 1073, "pitch": 71, "duration": 4, "velocity": 107}, {"time": 1079, "pitch": 71, "duration": 4, "velocity": 127}, {"time": 1085, "pitch": 59, "duration": 1, "velocity": 96}, {"time": 1088, "pitch": 59, "duration": 1, "velocity": 96}, {"time": 1091, "pitch": 66, "duration": 5, "velocity": 122}, {"time": 1097, "pitch": 64, "duration": 1, "velocity": 100}, {"time": 1100, "pitch": 64, "duration": 9, "velocity": 107}, {"time": 1109, "pitch": 59, "duration": 1, "velocity": 99}, {"time": 1112, "pitch": 59, "duration": 2, "velocity": 95}, {"time": 1115, "pitch": 67, "duration": 1, "velocity": 122}, {"time": 1118, "pitch": 67, "duration": 4, "velocity": 117}, {"time": 1124, "pitch": 66, "duration": 2, "velocity": 95}, {"time": 1127, "pitch": 66, "duration": 4, "velocity": 127}, {"time": 1133, "pitch": 60, "duration": 2, "velocity": 122}, {"time": 1136, "pitch": 60, "duration": 3, "velocity": 93}, {"time": 1139, "pitch": 59, "duration": 19, "velocity": 96}, {"time": 1163, "pitch": 64, "duration": 9, "velocity": 122}, {"time": 1175, "pitch": 66, "duration": 7, "velocity": 127}, {"time": 1187, "pitch": 68, "duration": 4, "velocity": 127}, {"time": 1193, "pitch": 68, "duration": 3, "velocity": 122}, {"time": 1199, "pitch": 68, "duration": 3, "velocity": 127}, {"time": 1205, "pitch": 68, "duration": 2, "velocity": 127}, {"time": 1208, "pitch": 66, "duration": 1, "velocity": 112}, {"time": 1211, "pitch": 68, "duration": 4, "velocity": 127}, {"time": 1217, "pitch": 71, "duration": 4, "velocity": 127}, {"time": 1223, "pitch": 71, "duration": 3, "velocity": 127}, {"time": 1229, "pitch": 59, "duration": 1, "velocity": 112}, {"time": 1232, "pitch": 59, "duration": 2, "velocity": 96}, {"time": 1235, "pitch": 68, "duration": 3, "velocity": 127}, {"time": 1238, "pitch": 66, "duration": 2, "velocity": 97}, {"time": 1241, "pitch": 66, "duration": 1, "velocity": 122}, {"time": 1244, "pitch": 66, "duration": 6, "velocity": 127}, {"time": 1253, "pitch": 66, "duration": 3, "velocity": 127}, {"time": 1256, "pitch": 64, "duration": 2, "velocity": 92}, {"time": 1259, "pitch": 66, "duration": 1, "velocity": 117}, {"time": 1262, "pitch": 66, "duration": 2, "velocity": 122}, {"time": 1265, "pitch": 71, "duration": 4, "velocity": 107}, {"time": 1271, "pitch": 71, "duration": 4, "velocity": 127}, {"time": 1277, "pitch": 59, "duration": 1, "velocity": 96}, {"time": 1280, "pitch": 59, "duration": 1, "velocity": 96}, {"time": 1283, "pitch": 66, "duration": 5, "velocity": 122}, {"time": 1289, "pitch": 64, "duration": 1, "velocity": 100}, {"time": 1292, "pitch": 64, "duration": 9, "velocity": 107}, {"time": 1301, "pitch": 59, "duration": 1, "velocity": 99}, {"time": 1304, "pitch": 59, "duration": 2, "velocity": 95}, {"time": 1307, "pitch": 68, "duration": 1, "velocity": 117}, {"time": 1310, "pitch": 68, "duration": 4, "velocity": 102}, {"time": 1316, "pitch": 66, "duration": 2, "velocity": 95}, {"time": 1319, "pitch": 66, "duration": 3, "velocity": 112}, {"time": 1325, "pitch": 64, "duration": 1, "velocity": 82}, {"time": 1328, "pitch": 64, "duration": 21, "velocity": 97}, {"time": 1421, "pitch": 57, "duration": 1, "velocity": 83}, {"time": 1424, "pitch": 57, "duration": 2, "velocity": 72}, {"time": 1427, "pitch": 56, "duration": 3, "velocity": 72}, {"time": 1433, "pitch": 59, "duration": 2, "velocity": 73}, {"time": 1436, "pitch": 64, "duration": 20, "velocity": 85}, {"time": 1469, "pitch": 59, "duration": 1, "velocity": 83}, {"time": 1472, "pitch": 59, "duration": 2, "velocity": 72}, {"time": 1475, "pitch": 64, "duration": 3, "velocity": 96}, {"time": 1481, "pitch": 59, "duration": 2, "velocity": 85}, {"time": 1484, "pitch": 61, "duration": 25, "velocity": 97}, {"time": 1517, "pitch": 57, "duration": 1, "velocity": 85}, {"time": 1520, "pitch": 57, "duration": 1, "velocity": 61}, {"time": 1523, "pitch": 56, "duration": 3, "velocity": 58}, {"time": 1529, "pitch": 59, "duration": 2, "velocity": 79}, {"time": 1532, "pitch": 64, "duration": 8, "velocity": 106}, {"time": 1541, "pitch": 66, "duration": 1, "velocity": 92}, {"time": 1544, "pitch": 66, "duration": 4, "velocity": 92}, {"time": 1550, "pitch": 64, "duration": 14, "velocity": 76}, {"time": 1565, "pitch": 64, "duration": 1, "velocity": 90}, {"time": 1568, "pitch": 66, "duration": 1, "velocity": 96}, {"time": 1571, "pitch": 68, "duration": 3, "velocity": 97}, {"time": 1577, "pitch": 63, "duration": 1, "velocity": 97}, {"time": 1580, "pitch": 63, "duration": 2, "velocity": 99}, {"time": 1586, "pitch": 61, "duration": 2, "velocity": 97}, {"time": 1592, "pitch": 63, "duration": 10, "velocity": 88}, {"time": 1613, "pitch": 59, "duration": 1, "velocity": 89}, {"time": 1616, "pitch": 59, "duration": 1, "velocity": 74}, {"time": 1619, "pitch": 61, "duration": 5, "velocity": 99}, {"time": 1625, "pitch": 64, "duration": 2, "velocity": 86}, {"time": 1631, "pitch": 64, "duration": 4, "velocity": 89}, {"time": 1637, "pitch": 61, "duration": 1, "velocity": 78}, {"time": 1640, "pitch": 66, "duration": 2, "velocity": 97}, {"time": 1646, "pitch": 64, "duration": 10, "velocity": 89}, {"time": 1667, "pitch": 59, "duration": 5, "velocity": 96}, {"time": 1673, "pitch": 59, "duration": 5, "velocity": 85}, {"time": 1679, "pitch": 68, "duration": 5, "velocity": 97}, {"time": 1685, "pitch": 69, "duration": 2, "velocity": 90}, {"time": 1688, "pitch": 69, "duration": 8, "velocity": 89}, {"time": 1697, "pitch": 68, "duration": 10, "velocity": 89}, {"time": 1715, "pitch": 68, "duration": 5, "velocity": 95}, {"time": 1721, "pitch": 61, "duration": 3, "velocity": 82}, {"time": 1724, "pitch": 64, "duration": 25, "velocity": 89}, {"time": 1748, "pitch": 59, "duration": 2, "velocity": 83}, {"time": 1751, "pitch": 61, "duration": 4, "velocity": 100}, {"time": 1757, "pitch": 64, "duration": 1, "velocity": 74}, {"time": 1760, "pitch": 64, "duration": 8, "velocity": 86}, {"time": 1766, "pitch": 61, "duration": 2, "velocity": 70}, {"time": 1769, "pitch": 64, "duration": 17, "velocity": 93}, {"time": 1787, "pitch": 64, "duration": 9, "velocity": 122}, {"time": 1799, "pitch": 66, "duration": 7, "velocity": 127}, {"time": 1811, "pitch": 68, "duration": 4, "velocity": 127}, {"time": 1817, "pitch": 68, "duration": 3, "velocity": 122}, {"time": 1823, "pitch": 68, "duration": 3, "velocity": 127}, {"time": 1829, "pitch": 68, "duration": 2, "velocity": 127}, {"time": 1832, "pitch": 66, "duration": 1, "velocity": 112}, {"time": 1835, "pitch": 68, "duration": 4, "velocity": 127}, {"time": 1841, "pitch": 71, "duration": 4, "velocity": 127}, {"time": 1847, "pitch": 71, "duration": 3, "velocity": 127}, {"time": 1853, "pitch": 59, "duration": 1, "velocity": 112}, {"time": 1856, "pitch": 59, "duration": 2, "velocity": 96}, {"time": 1859, "pitch": 68, "duration": 3, "velocity": 127}, {"time": 1862, "pitch": 66, "duration": 2, "velocity": 97}, {"time": 1865, "pitch": 66, "duration": 1, "velocity": 122}, {"time": 1868, "pitch": 66, "duration": 6, "velocity": 127}, {"time": 1877, "pitch": 66, "duration": 3, "velocity": 127}, {"time": 1880, "pitch": 64, "duration": 2, "velocity": 92}, {"time": 1883, "pitch": 66, "duration": 1, "velocity": 117}, {"time": 1886, "pitch": 66, "duration": 2, "velocity": 122}, {"time": 1889, "pitch": 71, "duration": 4, "velocity": 107}, {"time": 1895, "pitch": 71, "duration": 4, "velocity": 127}, {"time": 1901, "pitch": 59, "duration": 1, "velocity": 96}, {"time": 1904, "pitch": 59, "duration": 1, "velocity": 96}, {"time": 1907, "pitch": 66, "duration": 5, "velocity": 122}, {"time": 1913, "pitch": 64, "duration": 1, "velocity": 100}, {"time": 1916, "pitch": 64, "duration": 9, "velocity": 107}, {"time": 1925, "pitch": 59, "duration": 1, "velocity": 99}, {"time": 1928, "pitch": 59, "duration": 2, "velocity": 95}, {"time": 1931, "pitch": 67, "duration": 1, "velocity": 122}, {"time": 1934, "pitch": 67, "duration": 4, "velocity": 117}, {"time": 1940, "pitch": 66, "duration": 2, "velocity": 95}, {"time": 1943, "pitch": 66, "duration": 4, "velocity": 127}, {"time": 1949, "pitch": 60, "duration": 2, "velocity": 122}, {"time": 1952, "pitch": 60, "duration": 3, "velocity": 93}, {"time": 1955, "pitch": 59, "duration": 19, "velocity": 96}, {"time": 1979, "pitch": 64, "duration": 9, "velocity": 122}, {"time": 1991, "pitch": 66, "duration": 7, "velocity": 127}, {"time": 2003, "pitch": 68, "duration": 4, "velocity": 127}, {"time": 2009, "pitch": 68, "duration": 3, "velocity": 122}, {"time": 2015, "pitch": 68, "duration": 3, "velocity": 127}, {"time": 2021, "pitch": 68, "duration": 2, "velocity": 127}, {"time": 2024, "pitch": 66, "duration": 1, "velocity": 112}, {"time": 2027, "pitch": 68, "duration": 4, "velocity": 127}, {"time": 2033, "pitch": 71, "duration": 4, "velocity": 127}, {"time": 2039, "pitch": 71, "duration": 3, "velocity": 127}, {"time": 2045, "pitch": 59, "duration": 1, "velocity": 112}, {"time": 2048, "pitch": 59, "duration": 2, "velocity": 96}, {"time": 2051, "pitch": 68, "duration": 3, "velocity": 127}, {"time": 2054, "pitch": 66, "duration": 2, "velocity": 97}, {"time": 2057, "pitch": 66, "duration": 1, "velocity": 122}, {"time": 2060, "pitch": 66, "duration": 6, "velocity": 127}, {"time": 2069, "pitch": 66, "duration": 3, "velocity": 127}, {"time": 2072, "pitch": 64, "duration": 2, "velocity": 92}, {"time": 2075, "pitch": 66, "duration": 1, "velocity": 117}, {"time": 2078, "pitch": 66, "duration": 2, "velocity": 122}, {"time": 2081, "pitch": 71, "duration": 4, "velocity": 107}, {"time": 2087, "pitch": 71, "duration": 4, "velocity": 127}, {"time": 2093, "pitch": 59, "duration": 1, "velocity": 96}, {"time": 2096, "pitch": 59, "duration": 1, "velocity": 96}, {"time": 2099, "pitch": 66, "duration": 5, "velocity": 122}, {"time": 2105, "pitch": 64, "duration": 1, "velocity": 100}, {"time": 2108, "pitch": 64, "duration": 9, "velocity": 107}, {"time": 2117, "pitch": 59, "duration": 1, "velocity": 99}, {"time": 2120, "pitch": 59, "duration": 2, "velocity": 95}, {"time": 2123, "pitch": 68, "duration": 1, "velocity": 117}, {"time": 2126, "pitch": 68, "duration": 4, "velocity": 102}, {"time": 2132, "pitch": 66, "duration": 2, "velocity": 95}, {"time": 2135, "pitch": 66, "duration": 3, "velocity": 112}, {"time": 2141, "pitch": 64, "duration": 1, "velocity": 82}, {"time": 2144, "pitch": 64, "duration": 21, "velocity": 97}, {"time": 2381, "pitch": 59, "duration": 1, "velocity": 117}, {"time": 2384, "pitch": 59, "duration": 1, "velocity": 96}, {"time": 2387, "pitch": 61, "duration": 3, "velocity": 122}, {"time": 2390, "pitch": 64, "duration": 2, "velocity": 90}, {"time": 2393, "pitch": 61, "duration": 2, "velocity": 102}, {"time": 2396, "pitch": 64, "duration": 8, "velocity": 100}, {"time": 2405, "pitch": 59, "duration": 1, "velocity": 96}, {"time": 2408, "pitch": 59, "duration": 2, "velocity": 96}, {"time": 2411, "pitch": 67, "duration": 4, "velocity": 122}, {"time": 2417, "pitch": 66, "duration": 11, "velocity": 127}, {"time": 2429, "pitch": 60, "duration": 1, "velocity": 99}, {"time": 2432, "pitch": 59, "duration": 16, "velocity": 107}, {"time": 2477, "pitch": 59, "duration": 1, "velocity": 93}, {"time": 2480, "pitch": 59, "duration": 1, "velocity": 96}, {"time": 2483, "pitch": 61, "duration": 3, "velocity": 122}, {"time": 2486, "pitch": 64, "duration": 3, "velocity": 89}, {"time": 2489, "pitch": 61, "duration": 1, "velocity": 97}, {"time": 2492, "pitch": 64, "duration": 8, "velocity": 100}, {"time": 2501, "pitch": 59, "duration": 1, "velocity": 100}, {"time": 2504, "pitch": 59, "duration": 1, "velocity": 97}, {"time": 2507, "pitch": 67, "duration": 3, "velocity": 102}, {"time": 2510, "pitch": 67, "duration": 1, "velocity": 90}, {"time": 2513, "pitch": 66, "duration": 8, "velocity": 107}, {"time": 2519, "pitch": 66, "duration": 2, "velocity": 127}, {"time": 2525, "pitch": 64, "duration": 1, "velocity": 100}, {"time": 2528, "pitch": 64, "duration": 3, "velocity": 117}, {"time": 2534, "pitch": 66, "duration": 4, "velocity": 122}, {"time": 2537, "pitch": 68, "duration": 11, "velocity": 122}, {"time": 2573, "pitch": 59, "duration": 1, "velocity": 107}, {"time": 2576, "pitch": 59, "duration": 1, "velocity": 96}, {"time": 2579, "pitch": 61, "duration": 3, "velocity": 127}, {"time": 2582, "pitch": 64, "duration": 2, "velocity": 97}, {"time": 2585, "pitch": 61, "duration": 1, "velocity": 112}, {"time": 2588, "pitch": 64, "duration": 4, "velocity": 122}, {"time": 2597, "pitch": 59, "duration": 1, "velocity": 102}, {"time": 2600, "pitch": 59, "duration": 1, "velocity": 100}, {"time": 2603, "pitch": 67, "duration": 2, "velocity": 117}, {"time": 2609, "pitch": 67, "duration": 3, "velocity": 112}, {"time": 2612, "pitch": 66, "duration": 5, "velocity": 127}, {"time": 2615, "pitch": 66, "duration": 2, "velocity": 127}, {"time": 2621, "pitch": 64, "duration": 2, "velocity": 112}, {"time": 2624, "pitch": 68, "duration": 8, "velocity": 127}, {"time": 2633, "pitch": 68, "duration": 1, "velocity": 127}, {"time": 2636, "pitch": 71, "duration": 6, "velocity": 117}, {"time": 2645, "pitch": 68, "duration": 3, "velocity": 127}, {"time": 2648, "pitch": 66, "duration": 5, "velocity": 117}, {"time": 2654, "pitch": 64, "duration": 3, "velocity": 100}, {"time": 2660, "pitch": 64, "duration": 2, "velocity": 97}, {"time": 2663, "pitch": 66, "duration": 4, "velocity": 127}, {"time": 2669, "pitch": 68, "duration": 2, "velocity": 127}, {"time": 2672, "pitch": 64, "duration": 9, "velocity": 112}, {"time": 2711, "pitch": 68, "duration": 3, "velocity": 127}, {"time": 2717, "pitch": 69, "duration": 2, "velocity": 127}, {"time": 2720, "pitch": 68, "duration": 3, "velocity": 127}, {"time": 2726, "pitch": 66, "duration": 10, "velocity": 127}, {"time": 2747, "pitch": 64, "duration": 9, "velocity": 122}, {"time": 2759, "pitch": 66, "duration": 7, "velocity": 127}, {"time": 2771, "pitch": 68, "duration": 4, "velocity": 127}, {"time": 2777, "pitch": 68, "duration": 3, "velocity": 122}, {"time": 2783, "pitch": 68, "duration": 3, "velocity": 127}, {"time": 2789, "pitch": 68, "duration": 2, "velocity": 127}, {"time": 2792, "pitch": 66, "duration": 1, "velocity": 112}, {"time": 2795, "pitch": 68, "duration": 4, "velocity": 127}, {"time": 2801, "pitch": 71, "duration": 4, "velocity": 127}, {"time": 2807, "pitch": 71, "duration": 3, "velocity": 127}, {"time": 2813, "pitch": 59, "duration": 1, "velocity": 112}, {"time": 2816, "pitch": 59, "duration": 2, "velocity": 96}, {"time": 2819, "pitch": 68, "duration": 3, "velocity": 127}, {"time": 2822, "pitch": 66, "duration": 2, "velocity": 97}, {"time": 2825, "pitch": 66, "duration": 1, "velocity": 122}, {"time": 2828, "pitch": 66, "duration": 6, "velocity": 127}, {"time": 2837, "pitch": 66, "duration": 3, "velocity": 127}, {"time": 2840, "pitch": 64, "duration": 2, "velocity": 92}, {"time": 2843, "pitch": 66, "duration": 1, "velocity": 117}, {"time": 2846, "pitch": 66, "duration": 2, "velocity": 122}, {"time": 2849, "pitch": 71, "duration": 4, "velocity": 107}, {"time": 2855, "pitch": 71, "duration": 4, "velocity": 127}, {"time": 2861, "pitch": 59, "duration": 1, "velocity": 96}, {"time": 2864, "pitch": 59, "duration": 1, "velocity": 96}, {"time": 2867, "pitch": 66, "duration": 5, "velocity": 122}, {"time": 2873, "pitch": 64, "duration": 1, "velocity": 100}, {"time": 2876, "pitch": 64, "duration": 9, "velocity": 107}, {"time": 2885, "pitch": 59, "duration": 1, "velocity": 99}, {"time": 2888, "pitch": 59, "duration": 2, "velocity": 95}, {"time": 2891, "pitch": 67, "duration": 1, "velocity": 122}, {"time": 2894, "pitch": 67, "duration": 4, "velocity": 117}, {"time": 2900, "pitch": 66, "duration": 2, "velocity": 95}, {"time": 2903, "pitch": 66, "duration": 4, "velocity": 127}, {"time": 2909, "pitch": 60, "duration": 2, "velocity": 122}, {"time": 2912, "pitch": 60, "duration": 3, "velocity": 93}, {"time": 2915, "pitch": 59, "duration": 19, "velocity": 96}, {"time": 2939, "pitch": 64, "duration": 9, "velocity": 122}, {"time": 2951, "pitch": 66, "duration": 7, "velocity": 127}, {"time": 2963, "pitch": 68, "duration": 4, "velocity": 127}, {"time": 2969, "pitch": 68, "duration": 3, "velocity": 122}, {"time": 2975, "pitch": 68, "duration": 3, "velocity": 127}, {"time": 2981, "pitch": 68, "duration": 2, "velocity": 127}, {"time": 2984, "pitch": 66, "duration": 1, "velocity": 112}, {"time": 2987, "pitch": 68, "duration": 4, "velocity": 127}, {"time": 2993, "pitch": 71, "duration": 4, "velocity": 127}, {"time": 2999, "pitch": 71, "duration": 3, "velocity": 127}, {"time": 3005, "pitch": 59, "duration": 1, "velocity": 112}, {"time": 3008, "pitch": 59, "duration": 2, "velocity": 96}, {"time": 3011, "pitch": 68, "duration": 3, "velocity": 127}, {"time": 3014, "pitch": 66, "duration": 2, "velocity": 97}, {"time": 3017, "pitch": 66, "duration": 1, "velocity": 122}, {"time": 3020, "pitch": 66, "duration": 6, "velocity": 127}, {"time": 3029, "pitch": 66, "duration": 3, "velocity": 127}, {"time": 3032, "pitch": 64, "duration": 2, "velocity": 92}, {"time": 3035, "pitch": 66, "duration": 1, "velocity": 117}, {"time": 3038, "pitch": 66, "duration": 2, "velocity": 122}, {"time": 3041, "pitch": 71, "duration": 4, "velocity": 107}, {"time": 3047, "pitch": 71, "duration": 4, "velocity": 127}, {"time": 3053, "pitch": 59, "duration": 1, "velocity": 96}, {"time": 3056, "pitch": 59, "duration": 1, "velocity": 96}, {"time": 3059, "pitch": 66, "duration": 5, "velocity": 122}, {"time": 3065, "pitch": 64, "duration": 1, "velocity": 100}, {"time": 3068, "pitch": 64, "duration": 9, "velocity": 107}, {"time": 3077, "pitch": 59, "duration": 1, "velocity": 99}, {"time": 3080, "pitch": 59, "duration": 2, "velocity": 95}, {"time": 3083, "pitch": 68, "duration": 1, "velocity": 117}, {"time": 3086, "pitch": 68, "duration": 4, "velocity": 102}, {"time": 3092, "pitch": 66, "duration": 2, "velocity": 95}, {"time": 3095, "pitch": 66, "duration": 3, "velocity": 112}, {"time": 3101, "pitch": 64, "duration": 1, "velocity": 82}, {"time": 3104, "pitch": 64, "duration": 21, "velocity": 97}, {"time": 3191, "pitch": 66, "duration": 5, "velocity": 127}, {"time": 3197, "pitch": 64, "duration": 1, "velocity": 97}, {"time": 3200, "pitch": 64, "duration": 6, "velocity": 102}, {"time": 3206, "pitch": 66, "duration": 4, "velocity": 112}, {"time": 3209, "pitch": 68, "duration": 43, "velocity": 78}]}, {"program": 0, "is_drum": false, "name": "PIANO", "notes": [{"time": 35, "pitch": 40, "duration": 39, "velocity": 66}, {"time": 35, "pitch": 59, "duration": 9, "velocity": 72}, {"time": 35, "pitch": 64, "duration": 6, "velocity": 72}, {"time": 35, "pitch": 68, "duration": 6, "velocity": 63}, {"time": 41, "pitch": 47, "duration": 35, "velocity": 44}, {"time": 47, "pitch": 59, "duration": 8, "velocity": 67}, {"time": 47, "pitch": 64, "duration": 7, "velocity": 69}, {"time": 47, "pitch": 68, "duration": 7, "velocity": 66}, {"time": 53, "pitch": 52, "duration": 8, "velocity": 45}, {"time": 59, "pitch": 59, "duration": 8, "velocity": 63}, {"time": 59, "pitch": 64, "duration": 7, "velocity": 65}, {"time": 59, "pitch": 68, "duration": 7, "velocity": 65}, {"time": 65, "pitch": 52, "duration": 8, "velocity": 56}, {"time": 71, "pitch": 64, "duration": 6, "velocity": 79}, {"time": 71, "pitch": 68, "duration": 6, "velocity": 92}, {"time": 74, "pitch": 52, "duration": 3, "velocity": 68}, {"time": 77, "pitch": 59, "duration": 3, "velocity": 72}, {"time": 83, "pitch": 45, "duration": 41, "velocity": 71}, {"time": 83, "pitch": 57, "duration": 7, "velocity": 79}, {"time": 83, "pitch": 61, "duration": 7, "velocity": 75}, {"time": 83, "pitch": 64, "duration": 7, "velocity": 69}, {"time": 89, "pitch": 52, "duration": 9, "velocity": 53}, {"time": 95, "pitch": 57, "duration": 8, "velocity": 55}, {"time": 95, "pitch": 61, "duration": 8, "velocity": 55}, {"time": 95, "pitch": 64, "duration": 8, "velocity": 50}, {"time": 95, "pitch": 68, "duration": 9, "velocity": 56}, {"time": 101, "pitch": 52, "duration": 7, "velocity": 50}, {"time": 107, "pitch": 57, "duration": 7, "velocity": 58}, {"time": 107, "pitch": 61, "duration": 7, "velocity": 59}, {"time": 107, "pitch": 64, "duration": 7, "velocity": 59}, {"time": 107, "pitch": 68, "duration": 7, "velocity": 45}, {"time": 113, "pitch": 52, "duration": 7, "velocity": 43}, {"time": 119, "pitch": 61, "duration": 7, "velocity": 77}, {"time": 119, "pitch": 64, "duration": 6, "velocity": 62}, {"time": 119, "pitch": 68, "duration": 5, "velocity": 56}, {"time": 122, "pitch": 52, "duration": 2, "velocity": 44}, {"time": 125, "pitch": 57, "duration": 2, "velocity": 52}, {"time": 131, "pitch": 40, "duration": 40, "velocity": 72}, {"time": 131, "pitch": 59, "duration": 10, "velocity": 79}, {"time": 131, "pitch": 64, "duration": 11, "velocity": 75}, {"time": 131, "pitch": 68, "duration": 10, "velocity": 74}, {"time": 137, "pitch": 47, "duration": 34, "velocity": 55}, {"time": 143, "pitch": 59, "duration": 9, "velocity": 86}, {"time": 143, "pitch": 64, "duration": 7, "velocity": 74}, {"time": 143, "pitch": 68, "duration": 7, "velocity": 72}, {"time": 149, "pitch": 52, "duration": 9, "velocity": 35}, {"time": 155, "pitch": 59, "duration": 11, "velocity": 69}, {"time": 155, "pitch": 64, "duration": 9, "velocity": 68}, {"time": 155, "pitch": 68, "duration": 9, "velocity": 65}, {"time": 161, "pitch": 52, "duration": 9, "velocity": 43}, {"time": 167, "pitch": 64, "duration": 6, "velocity": 78}, {"time": 167, "pitch": 68, "duration": 6, "velocity": 78}, {"time": 173, "pitch": 59, "duration": 3, "velocity": 61}, {"time": 179, "pitch": 45, "duration": 39, "velocity": 67}, {"time": 179, "pitch": 57, "duration": 8, "velocity": 77}, {"time": 179, "pitch": 61, "duration": 7, "velocity": 77}, {"time": 179, "pitch": 64, "duration": 7, "velocity": 73}, {"time": 185, "pitch": 52, "duration": 10, "velocity": 39}, {"time": 191, "pitch": 57, "duration": 7, "velocity": 59}, {"time": 191, "pitch": 61, "duration": 7, "velocity": 64}, {"time": 191, "pitch": 64, "duration": 7, "velocity": 55}, {"time": 191, "pitch": 68, "duration": 6, "velocity": 59}, {"time": 197, "pitch": 52, "duration": 10, "velocity": 39}, {"time": 203, "pitch": 57, "duration": 8, "velocity": 53}, {"time": 203, "pitch": 61, "duration": 8, "velocity": 58}, {"time": 203, "pitch": 64, "duration": 8, "velocity": 53}, {"time": 203, "pitch": 68, "duration": 7, "velocity": 52}, {"time": 209, "pitch": 52, "duration": 7, "velocity": 42}, {"time": 215, "pitch": 57, "duration": 7, "velocity": 44}, {"time": 215, "pitch": 61, "duration": 7, "velocity": 63}, {"time": 215, "pitch": 64, "duration": 6, "velocity": 65}, {"time": 215, "pitch": 68, "duration": 6, "velocity": 65}, {"time": 227, "pitch": 40, "duration": 41, "velocity": 69}, {"time": 227, "pitch": 59, "duration": 10, "velocity": 79}, {"time": 227, "pitch": 64, "duration": 8, "velocity": 75}, {"time": 227, "pitch": 68, "duration": 8, "velocity": 79}, {"time": 233, "pitch": 47, "duration": 10, "velocity": 38}, {"time": 239, "pitch": 52, "duration": 8, "velocity": 46}, {"time": 239, "pitch": 59, "duration": 8, "velocity": 67}, {"time": 239, "pitch": 64, "duration": 8, "velocity": 66}, {"time": 239, "pitch": 68, "duration": 7, "velocity": 65}, {"time": 245, "pitch": 47, "duration": 23, "velocity": 50}, {"time": 251, "pitch": 59, "duration": 11, "velocity": 69}, {"time": 251, "pitch": 64, "duration": 8, "velocity": 63}, {"time": 251, "pitch": 68, "duration": 7, "velocity": 62}, {"time": 257, "pitch": 52, "duration": 8, "velocity": 33}, {"time": 260, "pitch": 68, "duration": 1, "velocity": 24}, {"time": 263, "pitch": 64, "duration": 6, "velocity": 74}, {"time": 263, "pitch": 68, "duration": 6, "velocity": 79}, {"time": 269, "pitch": 59, "duration": 2, "velocity": 60}, {"time": 275, "pitch": 45, "duration": 38, "velocity": 71}, {"time": 275, "pitch": 57, "duration": 8, "velocity": 74}, {"time": 275, "pitch": 61, "duration": 7, "velocity": 73}, {"time": 275, "pitch": 64, "duration": 7, "velocity": 72}, {"time": 281, "pitch": 52, "duration": 8, "velocity": 41}, {"time": 287, "pitch": 57, "duration": 8, "velocity": 64}, {"time": 287, "pitch": 61, "duration": 6, "velocity": 59}, {"time": 287, "pitch": 64, "duration": 9, "velocity": 62}, {"time": 293, "pitch": 52, "duration": 10, "velocity": 45}, {"time": 299, "pitch": 57, "duration": 9, "velocity": 43}, {"time": 299, "pitch": 61, "duration": 8, "velocity": 62}, {"time": 299, "pitch": 64, "duration": 8, "velocity": 43}, {"time": 299, "pitch": 69, "duration": 5, "velocity": 64}, {"time": 305, "pitch": 52, "duration": 6, "velocity": 55}, {"time": 311, "pitch": 61, "duration": 7, "velocity": 82}, {"time": 311, "pitch": 64, "duration": 6, "velocity": 72}, {"time": 317, "pitch": 57, "duration": 5, "velocity": 69}, {"time": 323, "pitch": 40, "duration": 36, "velocity": 70}, {"time": 323, "pitch": 59, "duration": 11, "velocity": 72}, {"time": 323, "pitch": 64, "duration": 8, "velocity": 68}, {"time": 323, "pitch": 68, "duration": 7, "velocity": 60}, {"time": 329, "pitch": 47, "duration": 10, "velocity": 40}, {"time": 335, "pitch": 52, "duration": 8, "velocity": 45}, {"time": 335, "pitch": 59, "duration": 9, "velocity": 64}, {"time": 335, "pitch": 64, "duration": 7, "velocity": 66}, {"time": 335, "pitch": 68, "duration": 7, "velocity": 64}, {"time": 341, "pitch": 47, "duration": 18, "velocity": 32}, {"time": 347, "pitch": 59, "duration": 9, "velocity": 62}, {"time": 347, "pitch": 64, "duration": 8, "velocity": 58}, {"time": 347, "pitch": 68, "duration": 8, "velocity": 60}, {"time": 353, "pitch": 52, "duration": 8, "velocity": 33}, {"time": 359, "pitch": 64, "duration": 6, "velocity": 57}, {"time": 359, "pitch": 68, "duration": 7, "velocity": 63}, {"time": 365, "pitch": 59, "duration": 4, "velocity": 55}, {"time": 371, "pitch": 44, "duration": 42, "velocity": 69}, {"time": 371, "pitch": 59, "duration": 10, "velocity": 82}, {"time": 371, "pitch": 63, "duration": 11, "velocity": 83}, {"time": 371, "pitch": 68, "duration": 9, "velocity": 75}, {"time": 377, "pitch": 51, "duration": 34, "velocity": 25}, {"time": 383, "pitch": 59, "duration": 8, "velocity": 74}, {"time": 383, "pitch": 63, "duration": 8, "velocity": 71}, {"time": 383, "pitch": 68, "duration": 7, "velocity": 57}, {"time": 389, "pitch": 56, "duration": 8, "velocity": 42}, {"time": 395, "pitch": 59, "duration": 10, "velocity": 61}, {"time": 395, "pitch": 63, "duration": 8, "velocity": 61}, {"time": 395, "pitch": 68, "duration": 7, "velocity": 58}, {"time": 401, "pitch": 56, "duration": 9, "velocity": 52}, {"time": 407, "pitch": 63, "duration": 6, "velocity": 72}, {"time": 407, "pitch": 68, "duration": 6, "velocity": 75}, {"time": 413, "pitch": 59, "duration": 3, "velocity": 73}, {"time": 419, "pitch": 45, "duration": 23, "velocity": 66}, {"time": 419, "pitch": 57, "duration": 11, "velocity": 82}, {"time": 419, "pitch": 61, "duration": 11, "velocity": 86}, {"time": 419, "pitch": 64, "duration": 11, "velocity": 72}, {"time": 425, "pitch": 52, "duration": 9, "velocity": 55}, {"time": 431, "pitch": 61, "duration": 7, "velocity": 95}, {"time": 431, "pitch": 64, "duration": 8, "velocity": 75}, {"time": 437, "pitch": 52, "duration": 6, "velocity": 47}, {"time": 443, "pitch": 45, "duration": 14, "velocity": 65}, {"time": 443, "pitch": 57, "duration": 8, "velocity": 73}, {"time": 443, "pitch": 60, "duration": 11, "velocity": 73}, {"time": 443, "pitch": 64, "duration": 10, "velocity": 67}, {"time": 449, "pitch": 52, "duration": 7, "velocity": 55}, {"time": 455, "pitch": 60, "duration": 8, "velocity": 83}, {"time": 455, "pitch": 64, "duration": 6, "velocity": 77}, {"time": 461, "pitch": 57, "duration": 4, "velocity": 63}, {"time": 467, "pitch": 40, "duration": 15, "velocity": 67}, {"time": 467, "pitch": 59, "duration": 10, "velocity": 77}, {"time": 467, "pitch": 64, "duration": 10, "velocity": 74}, {"time": 467, "pitch": 68, "duration": 7, "velocity": 75}, {"time": 473, "pitch": 47, "duration": 9, "velocity": 48}, {"time": 479, "pitch": 52, "duration": 2, "velocity": 53}, {"time": 479, "pitch": 59, "duration": 6, "velocity": 72}, {"time": 479, "pitch": 64, "duration": 5, "velocity": 72}, {"time": 479, "pitch": 68, "duration": 6, "velocity": 70}, {"time": 491, "pitch": 37, "duration": 15, "velocity": 71}, {"time": 491, "pitch": 61, "duration": 8, "velocity": 76}, {"time": 491, "pitch": 65, "duration": 6, "velocity": 76}, {"time": 491, "pitch": 68, "duration": 6, "velocity": 77}, {"time": 497, "pitch": 49, "duration": 11, "velocity": 36}, {"time": 503, "pitch": 65, "duration": 7, "velocity": 90}, {"time": 503, "pitch": 68, "duration": 6, "velocity": 95}, {"time": 509, "pitch": 61, "duration": 5, "velocity": 63}, {"time": 515, "pitch": 42, "duration": 18, "velocity": 61}, {"time": 515, "pitch": 61, "duration": 10, "velocity": 52}, {"time": 515, "pitch": 66, "duration": 10, "velocity": 73}, {"time": 515, "pitch": 69, "duration": 6, "velocity": 63}, {"time": 521, "pitch": 54, "duration": 9, "velocity": 54}, {"time": 527, "pitch": 61, "duration": 6, "velocity": 68}, {"time": 527, "pitch": 66, "duration": 6, "velocity": 69}, {"time": 527, "pitch": 69, "duration": 5, "velocity": 66}, {"time": 533, "pitch": 54, "duration": 2, "velocity": 56}, {"time": 539, "pitch": 45, "duration": 15, "velocity": 63}, {"time": 539, "pitch": 57, "duration": 10, "velocity": 69}, {"time": 539, "pitch": 60, "duration": 11, "velocity": 67}, {"time": 539, "pitch": 64, "duration": 10, "velocity": 69}, {"time": 545, "pitch": 52, "duration": 8, "velocity": 41}, {"time": 551, "pitch": 60, "duration": 7, "velocity": 77}, {"time": 551, "pitch": 64, "duration": 6, "velocity": 72}, {"time": 557, "pitch": 57, "duration": 4, "velocity": 61}, {"time": 563, "pitch": 40, "duration": 43, "velocity": 65}, {"time": 563, "pitch": 59, "duration": 11, "velocity": 73}, {"time": 563, "pitch": 64, "duration": 11, "velocity": 71}, {"time": 563, "pitch": 68, "duration": 9, "velocity": 68}, {"time": 569, "pitch": 47, "duration": 8, "velocity": 42}, {"time": 575, "pitch": 52, "duration": 8, "velocity": 43}, {"time": 575, "pitch": 59, "duration": 10, "velocity": 68}, {"time": 575, "pitch": 64, "duration": 9, "velocity": 69}, {"time": 575, "pitch": 68, "duration": 8, "velocity": 72}, {"time": 581, "pitch": 47, "duration": 29, "velocity": 41}, {"time": 587, "pitch": 59, "duration": 11, "velocity": 79}, {"time": 587, "pitch": 64, "duration": 11, "velocity": 72}, {"time": 587, "pitch": 68, "duration": 10, "velocity": 68}, {"time": 593, "pitch": 52, "duration": 8, "velocity": 49}, {"time": 599, "pitch": 64, "duration": 9, "velocity": 89}, {"time": 599, "pitch": 68, "duration": 7, "velocity": 95}, {"time": 602, "pitch": 52, "duration": 2, "velocity": 58}, {"time": 605, "pitch": 59, "duration": 5, "velocity": 86}, {"time": 611, "pitch": 40, "duration": 40, "velocity": 73}, {"time": 611, "pitch": 59, "duration": 11, "velocity": 77}, {"time": 611, "pitch": 64, "duration": 11, "velocity": 75}, {"time": 611, "pitch": 68, "duration": 8, "velocity": 89}, {"time": 617, "pitch": 47, "duration": 36, "velocity": 48}, {"time": 623, "pitch": 59, "duration": 9, "velocity": 55}, {"time": 623, "pitch": 64, "duration": 8, "velocity": 77}, {"time": 623, "pitch": 68, "duration": 7, "velocity": 89}, {"time": 629, "pitch": 52, "duration": 10, "velocity": 68}, {"time": 635, "pitch": 59, "duration": 9, "velocity": 70}, {"time": 635, "pitch": 64, "duration": 9, "velocity": 62}, {"time": 635, "pitch": 68, "duration": 7, "velocity": 59}, {"time": 641, "pitch": 52, "duration": 7, "velocity": 61}, {"time": 647, "pitch": 64, "duration": 6, "velocity": 90}, {"time": 647, "pitch": 68, "duration": 7, "velocity": 93}, {"time": 650, "pitch": 52, "duration": 5, "velocity": 77}, {"time": 653, "pitch": 59, "duration": 4, "velocity": 93}, {"time": 659, "pitch": 45, "duration": 43, "velocity": 73}, {"time": 659, "pitch": 57, "duration": 10, "velocity": 93}, {"time": 659, "pitch": 61, "duration": 10, "velocity": 90}, {"time": 659, "pitch": 64, "duration": 7, "velocity": 77}, {"time": 665, "pitch": 52, "duration": 8, "velocity": 55}, {"time": 671, "pitch": 57, "duration": 10, "velocity": 74}, {"time": 671, "pitch": 61, "duration": 11, "velocity": 82}, {"time": 671, "pitch": 64, "duration": 7, "velocity": 72}, {"time": 677, "pitch": 52, "duration": 8, "velocity": 58}, {"time": 683, "pitch": 57, "duration": 10, "velocity": 73}, {"time": 683, "pitch": 61, "duration": 11, "velocity": 89}, {"time": 683, "pitch": 64, "duration": 7, "velocity": 73}, {"time": 689, "pitch": 52, "duration": 7, "velocity": 41}, {"time": 695, "pitch": 61, "duration": 11, "velocity": 100}, {"time": 695, "pitch": 64, "duration": 11, "velocity": 86}, {"time": 698, "pitch": 52, "duration": 4, "velocity": 61}, {"time": 701, "pitch": 57, "duration": 5, "velocity": 81}, {"time": 707, "pitch": 40, "duration": 39, "velocity": 72}, {"time": 707, "pitch": 59, "duration": 10, "velocity": 88}, {"time": 707, "pitch": 64, "duration": 10, "velocity": 85}, {"time": 707, "pitch": 68, "duration": 10, "velocity": 88}, {"time": 713, "pitch": 47, "duration": 9, "velocity": 53}, {"time": 719, "pitch": 52, "duration": 7, "velocity": 65}, {"time": 719, "pitch": 59, "duration": 9, "velocity": 88}, {"time": 719, "pitch": 64, "duration": 8, "velocity": 83}, {"time": 719, "pitch": 68, "duration": 7, "velocity": 88}, {"time": 725, "pitch": 47, "duration": 22, "velocity": 49}, {"time": 731, "pitch": 59, "duration": 7, "velocity": 77}, {"time": 731, "pitch": 64, "duration": 8, "velocity": 72}, {"time": 731, "pitch": 68, "duration": 8, "velocity": 75}, {"time": 737, "pitch": 52, "duration": 7, "velocity": 62}, {"time": 740, "pitch": 68, "duration": 1, "velocity": 20}, {"time": 743, "pitch": 64, "duration": 6, "velocity": 88}, {"time": 743, "pitch": 68, "duration": 7, "velocity": 93}, {"time": 746, "pitch": 52, "duration": 2, "velocity": 76}, {"time": 749, "pitch": 59, "duration": 4, "velocity": 69}, {"time": 755, "pitch": 44, "duration": 41, "velocity": 85}, {"time": 755, "pitch": 59, "duration": 11, "velocity": 88}, {"time": 755, "pitch": 63, "duration": 11, "velocity": 83}, {"time": 755, "pitch": 68, "duration": 10, "velocity": 75}, {"time": 761, "pitch": 51, "duration": 33, "velocity": 27}, {"time": 767, "pitch": 59, "duration": 8, "velocity": 79}, {"time": 767, "pitch": 63, "duration": 7, "velocity": 79}, {"time": 767, "pitch": 68, "duration": 6, "velocity": 82}, {"time": 773, "pitch": 56, "duration": 9, "velocity": 72}, {"time": 779, "pitch": 59, "duration": 10, "velocity": 79}, {"time": 779, "pitch": 63, "duration": 10, "velocity": 72}, {"time": 779, "pitch": 68, "duration": 10, "velocity": 68}, {"time": 785, "pitch": 56, "duration": 7, "velocity": 81}, {"time": 791, "pitch": 63, "duration": 7, "velocity": 95}, {"time": 791, "pitch": 68, "duration": 6, "velocity": 95}, {"time": 794, "pitch": 56, "duration": 3, "velocity": 76}, {"time": 797, "pitch": 59, "duration": 4, "velocity": 81}, {"time": 803, "pitch": 45, "duration": 23, "velocity": 69}, {"time": 803, "pitch": 57, "duration": 11, "velocity": 96}, {"time": 803, "pitch": 61, "duration": 11, "velocity": 86}, {"time": 803, "pitch": 64, "duration": 11, "velocity": 77}, {"time": 809, "pitch": 52, "duration": 9, "velocity": 55}, {"time": 815, "pitch": 57, "duration": 10, "velocity": 86}, {"time": 815, "pitch": 61, "duration": 8, "velocity": 88}, {"time": 815, "pitch": 64, "duration": 9, "velocity": 75}, {"time": 821, "pitch": 52, "duration": 7, "velocity": 48}, {"time": 827, "pitch": 45, "duration": 22, "velocity": 67}, {"time": 827, "pitch": 57, "duration": 8, "velocity": 93}, {"time": 827, "pitch": 60, "duration": 8, "velocity": 88}, {"time": 827, "pitch": 64, "duration": 7, "velocity": 81}, {"time": 833, "pitch": 52, "duration": 9, "velocity": 54}, {"time": 839, "pitch": 60, "duration": 12, "velocity": 92}, {"time": 839, "pitch": 64, "duration": 12, "velocity": 85}, {"time": 845, "pitch": 57, "duration": 6, "velocity": 88}, {"time": 851, "pitch": 40, "duration": 19, "velocity": 83}, {"time": 851, "pitch": 59, "duration": 10, "velocity": 89}, {"time": 851, "pitch": 64, "duration": 1, "velocity": 89}, {"time": 851, "pitch": 68, "duration": 10, "velocity": 90}, {"time": 857, "pitch": 47, "duration": 8, "velocity": 58}, {"time": 863, "pitch": 52, "duration": 6, "velocity": 41}, {"time": 863, "pitch": 59, "duration": 6, "velocity": 73}, {"time": 863, "pitch": 64, "duration": 5, "velocity": 93}, {"time": 863, "pitch": 68, "duration": 6, "velocity": 96}, {"time": 869, "pitch": 47, "duration": 2, "velocity": 65}, {"time": 875, "pitch": 37, "duration": 16, "velocity": 59}, {"time": 875, "pitch": 61, "duration": 10, "velocity": 89}, {"time": 875, "pitch": 65, "duration": 7, "velocity": 88}, {"time": 875, "pitch": 68, "duration": 7, "velocity": 88}, {"time": 881, "pitch": 44, "duration": 10, "velocity": 30}, {"time": 887, "pitch": 49, "duration": 6, "velocity": 50}, {"time": 887, "pitch": 65, "duration": 7, "velocity": 86}, {"time": 887, "pitch": 68, "duration": 7, "velocity": 85}, {"time": 893, "pitch": 61, "duration": 2, "velocity": 73}, {"time": 899, "pitch": 45, "duration": 22, "velocity": 72}, {"time": 899, "pitch": 57, "duration": 8, "velocity": 97}, {"time": 899, "pitch": 61, "duration": 10, "velocity": 92}, {"time": 899, "pitch": 64, "duration": 8, "velocity": 82}, {"time": 905, "pitch": 52, "duration": 7, "velocity": 62}, {"time": 911, "pitch": 61, "duration": 11, "velocity": 112}, {"time": 911, "pitch": 64, "duration": 6, "velocity": 90}, {"time": 917, "pitch": 52, "duration": 6, "velocity": 68}, {"time": 923, "pitch": 47, "duration": 13, "velocity": 76}, {"time": 923, "pitch": 59, "duration": 9, "velocity": 92}, {"time": 923, "pitch": 63, "duration": 10, "velocity": 97}, {"time": 923, "pitch": 66, "duration": 10, "velocity": 95}, {"time": 935, "pitch": 63, "duration": 7, "velocity": 122}, {"time": 935, "pitch": 66, "duration": 7, "velocity": 122}, {"time": 938, "pitch": 47, "duration": 2, "velocity": 60}, {"time": 941, "pitch": 59, "duration": 4, "velocity": 96}, {"time": 947, "pitch": 40, "duration": 18, "velocity": 88}, {"time": 947, "pitch": 59, "duration": 11, "velocity": 99}, {"time": 947, "pitch": 64, "duration": 11, "velocity": 97}, {"time": 947, "pitch": 68, "duration": 11, "velocity": 99}, {"time": 953, "pitch": 47, "duration": 12, "velocity": 59}, {"time": 956, "pitch": 52, "duration": 4, "velocity": 79}, {"time": 959, "pitch": 64, "duration": 5, "velocity": 107}, {"time": 959, "pitch": 68, "duration": 6, "velocity": 117}, {"time": 962, "pitch": 52, "duration": 4, "velocity": 100}, {"time": 965, "pitch": 59, "duration": 3, "velocity": 102}, {"time": 968, "pitch": 61, "duration": 2, "velocity": 99}, {"time": 971, "pitch": 45, "duration": 11, "velocity": 100}, {"time": 971, "pitch": 57, "duration": 9, "velocity": 112}, {"time": 971, "pitch": 61, "duration": 6, "velocity": 117}, {"time": 971, "pitch": 64, "duration": 7, "velocity": 96}, {"time": 983, "pitch": 47, "duration": 12, "velocity": 95}, {"time": 983, "pitch": 59, "duration": 12, "velocity": 93}, {"time": 983, "pitch": 63, "duration": 12, "velocity": 122}, {"time": 983, "pitch": 66, "duration": 12, "velocity": 122}, {"time": 995, "pitch": 40, "duration": 22, "velocity": 90}, {"time": 998, "pitch": 47, "duration": 21, "velocity": 72}, {"time": 1001, "pitch": 52, "duration": 7, "velocity": 89}, {"time": 1004, "pitch": 56, "duration": 4, "velocity": 74}, {"time": 1007, "pitch": 64, "duration": 19, "velocity": 78}, {"time": 1010, "pitch": 52, "duration": 2, "velocity": 95}, {"time": 1013, "pitch": 56, "duration": 9, "velocity": 100}, {"time": 1016, "pitch": 59, "duration": 10, "velocity": 66}, {"time": 1019, "pitch": 40, "duration": 18, "velocity": 76}, {"time": 1022, "pitch": 47, "duration": 15, "velocity": 69}, {"time": 1025, "pitch": 52, "duration": 7, "velocity": 77}, {"time": 1028, "pitch": 56, "duration": 4, "velocity": 90}, {"time": 1031, "pitch": 64, "duration": 12, "velocity": 86}, {"time": 1034, "pitch": 52, "duration": 4, "velocity": 83}, {"time": 1037, "pitch": 56, "duration": 4, "velocity": 100}, {"time": 1040, "pitch": 59, "duration": 3, "velocity": 68}, {"time": 1043, "pitch": 47, "duration": 23, "velocity": 69}, {"time": 1046, "pitch": 54, "duration": 10, "velocity": 81}, {"time": 1049, "pitch": 59, "duration": 4, "velocity": 90}, {"time": 1052, "pitch": 63, "duration": 4, "velocity": 100}, {"time": 1055, "pitch": 66, "duration": 13, "velocity": 117}, {"time": 1058, "pitch": 54, "duration": 8, "velocity": 97}, {"time": 1061, "pitch": 63, "duration": 9, "velocity": 92}, {"time": 1064, "pitch": 59, "duration": 5, "velocity": 93}, {"time": 1067, "pitch": 47, "duration": 18, "velocity": 83}, {"time": 1070, "pitch": 54, "duration": 11, "velocity": 96}, {"time": 1073, "pitch": 59, "duration": 8, "velocity": 82}, {"time": 1076, "pitch": 63, "duration": 4, "velocity": 97}, {"time": 1079, "pitch": 66, "duration": 12, "velocity": 112}, {"time": 1082, "pitch": 54, "duration": 2, "velocity": 92}, {"time": 1085, "pitch": 63, "duration": 6, "velocity": 100}, {"time": 1088, "pitch": 59, "duration": 4, "velocity": 89}, {"time": 1091, "pitch": 45, "duration": 19, "velocity": 74}, {"time": 1094, "pitch": 52, "duration": 10, "velocity": 73}, {"time": 1097, "pitch": 57, "duration": 7, "velocity": 82}, {"time": 1100, "pitch": 61, "duration": 3, "velocity": 86}, {"time": 1103, "pitch": 64, "duration": 13, "velocity": 97}, {"time": 1106, "pitch": 52, "duration": 8, "velocity": 74}, {"time": 1109, "pitch": 61, "duration": 5, "velocity": 107}, {"time": 1112, "pitch": 57, "duration": 4, "velocity": 93}, {"time": 1115, "pitch": 45, "duration": 17, "velocity": 82}, {"time": 1118, "pitch": 52, "duration": 11, "velocity": 89}, {"time": 1121, "pitch": 57, "duration": 7, "velocity": 83}, {"time": 1124, "pitch": 60, "duration": 4, "velocity": 93}, {"time": 1127, "pitch": 64, "duration": 12, "velocity": 99}, {"time": 1130, "pitch": 52, "duration": 2, "velocity": 72}, {"time": 1133, "pitch": 60, "duration": 6, "velocity": 99}, {"time": 1136, "pitch": 57, "duration": 4, "velocity": 92}, {"time": 1139, "pitch": 40, "duration": 16, "velocity": 78}, {"time": 1142, "pitch": 47, "duration": 13, "velocity": 67}, {"time": 1145, "pitch": 52, "duration": 8, "velocity": 78}, {"time": 1148, "pitch": 59, "duration": 8, "velocity": 74}, {"time": 1151, "pitch": 68, "duration": 10, "velocity": 117}, {"time": 1154, "pitch": 52, "duration": 3, "velocity": 83}, {"time": 1157, "pitch": 64, "duration": 4, "velocity": 78}, {"time": 1160, "pitch": 59, "duration": 3, "velocity": 93}, {"time": 1163, "pitch": 45, "duration": 11, "velocity": 93}, {"time": 1166, "pitch": 57, "duration": 8, "velocity": 97}, {"time": 1169, "pitch": 64, "duration": 5, "velocity": 99}, {"time": 1172, "pitch": 61, "duration": 4, "velocity": 127}, {"time": 1175, "pitch": 47, "duration": 6, "velocity": 90}, {"time": 1178, "pitch": 59, "duration": 10, "velocity": 93}, {"time": 1181, "pitch": 66, "duration": 5, "velocity": 127}, {"time": 1184, "pitch": 63, "duration": 3, "velocity": 122}, {"time": 1187, "pitch": 40, "duration": 22, "velocity": 83}, {"time": 1190, "pitch": 47, "duration": 21, "velocity": 76}, {"time": 1193, "pitch": 52, "duration": 7, "velocity": 85}, {"time": 1196, "pitch": 59, "duration": 8, "velocity": 88}, {"time": 1199, "pitch": 68, "duration": 12, "velocity": 117}, {"time": 1202, "pitch": 52, "duration": 4, "velocity": 92}, {"time": 1205, "pitch": 64, "duration": 16, "velocity": 77}, {"time": 1208, "pitch": 59, "duration": 7, "velocity": 89}, {"time": 1211, "pitch": 40, "duration": 17, "velocity": 78}, {"time": 1214, "pitch": 47, "duration": 15, "velocity": 68}, {"time": 1217, "pitch": 52, "duration": 8, "velocity": 77}, {"time": 1220, "pitch": 59, "duration": 6, "velocity": 72}, {"time": 1223, "pitch": 68, "duration": 11, "velocity": 112}, {"time": 1226, "pitch": 52, "duration": 8, "velocity": 74}, {"time": 1229, "pitch": 64, "duration": 5, "velocity": 61}, {"time": 1232, "pitch": 59, "duration": 4, "velocity": 93}, {"time": 1235, "pitch": 47, "duration": 22, "velocity": 72}, {"time": 1238, "pitch": 54, "duration": 11, "velocity": 93}, {"time": 1241, "pitch": 59, "duration": 8, "velocity": 86}, {"time": 1244, "pitch": 63, "duration": 4, "velocity": 107}, {"time": 1247, "pitch": 66, "duration": 11, "velocity": 117}, {"time": 1250, "pitch": 54, "duration": 8, "velocity": 75}, {"time": 1253, "pitch": 63, "duration": 7, "velocity": 92}, {"time": 1256, "pitch": 59, "duration": 5, "velocity": 97}, {"time": 1259, "pitch": 47, "duration": 17, "velocity": 72}, {"time": 1262, "pitch": 54, "duration": 11, "velocity": 86}, {"time": 1265, "pitch": 59, "duration": 7, "velocity": 81}, {"time": 1268, "pitch": 63, "duration": 4, "velocity": 100}, {"time": 1271, "pitch": 66, "duration": 11, "velocity": 117}, {"time": 1274, "pitch": 54, "duration": 2, "velocity": 81}, {"time": 1277, "pitch": 63, "duration": 6, "velocity": 112}, {"time": 1280, "pitch": 59, "duration": 3, "velocity": 95}, {"time": 1283, "pitch": 45, "duration": 17, "velocity": 79}, {"time": 1286, "pitch": 52, "duration": 11, "velocity": 75}, {"time": 1289, "pitch": 57, "duration": 7, "velocity": 88}, {"time": 1292, "pitch": 61, "duration": 3, "velocity": 93}, {"time": 1295, "pitch": 64, "duration": 11, "velocity": 95}, {"time": 1298, "pitch": 52, "duration": 3, "velocity": 65}, {"time": 1301, "pitch": 57, "duration": 5, "velocity": 92}, {"time": 1304, "pitch": 61, "duration": 3, "velocity": 107}, {"time": 1307, "pitch": 47, "duration": 15, "velocity": 72}, {"time": 1310, "pitch": 54, "duration": 11, "velocity": 81}, {"time": 1313, "pitch": 59, "duration": 7, "velocity": 82}, {"time": 1316, "pitch": 63, "duration": 4, "velocity": 97}, {"time": 1319, "pitch": 66, "duration": 11, "velocity": 117}, {"time": 1322, "pitch": 63, "duration": 4, "velocity": 95}, {"time": 1325, "pitch": 59, "duration": 6, "velocity": 83}, {"time": 1328, "pitch": 63, "duration": 3, "velocity": 95}, {"time": 1331, "pitch": 40, "duration": 22, "velocity": 77}, {"time": 1334, "pitch": 47, "duration": 22, "velocity": 67}, {"time": 1337, "pitch": 52, "duration": 7, "velocity": 92}, {"time": 1340, "pitch": 56, "duration": 5, "velocity": 71}, {"time": 1343, "pitch": 64, "duration": 21, "velocity": 67}, {"time": 1346, "pitch": 52, "duration": 3, "velocity": 72}, {"time": 1349, "pitch": 56, "duration": 13, "velocity": 78}, {"time": 1352, "pitch": 59, "duration": 13, "velocity": 61}, {"time": 1355, "pitch": 40, "duration": 15, "velocity": 57}, {"time": 1358, "pitch": 47, "duration": 12, "velocity": 60}, {"time": 1361, "pitch": 52, "duration": 7, "velocity": 71}, {"time": 1364, "pitch": 56, "duration": 5, "velocity": 85}, {"time": 1367, "pitch": 64, "duration": 12, "velocity": 69}, {"time": 1370, "pitch": 56, "duration": 4, "velocity": 65}, {"time": 1373, "pitch": 59, "duration": 5, "velocity": 68}, {"time": 1376, "pitch": 56, "duration": 2, "velocity": 86}, {"time": 1379, "pitch": 45, "duration": 23, "velocity": 74}, {"time": 1385, "pitch": 52, "duration": 9, "velocity": 69}, {"time": 1391, "pitch": 61, "duration": 6, "velocity": 96}, {"time": 1391, "pitch": 64, "duration": 6, "velocity": 77}, {"time": 1397, "pitch": 52, "duration": 6, "velocity": 34}, {"time": 1403, "pitch": 45, "duration": 12, "velocity": 74}, {"time": 1403, "pitch": 57, "duration": 13, "velocity": 64}, {"time": 1403, "pitch": 60, "duration": 11, "velocity": 71}, {"time": 1403, "pitch": 63, "duration": 13, "velocity": 78}, {"time": 1403, "pitch": 66, "duration": 12, "velocity": 85}, {"time": 1415, "pitch": 48, "duration": 11, "velocity": 73}, {"time": 1415, "pitch": 60, "duration": 11, "velocity": 73}, {"time": 1427, "pitch": 40, "duration": 43, "velocity": 88}, {"time": 1433, "pitch": 47, "duration": 9, "velocity": 92}, {"time": 1439, "pitch": 52, "duration": 36, "velocity": 96}, {"time": 1445, "pitch": 47, "duration": 10, "velocity": 86}, {"time": 1451, "pitch": 56, "duration": 11, "velocity": 117}, {"time": 1457, "pitch": 47, "duration": 13, "velocity": 82}, {"time": 1463, "pitch": 59, "duration": 13, "velocity": 92}, {"time": 1469, "pitch": 56, "duration": 6, "velocity": 97}, {"time": 1475, "pitch": 45, "duration": 40, "velocity": 88}, {"time": 1481, "pitch": 52, "duration": 8, "velocity": 47}, {"time": 1487, "pitch": 57, "duration": 12, "velocity": 66}, {"time": 1487, "pitch": 61, "duration": 11, "velocity": 69}, {"time": 1487, "pitch": 64, "duration": 11, "velocity": 67}, {"time": 1493, "pitch": 52, "duration": 10, "velocity": 59}, {"time": 1499, "pitch": 61, "duration": 25, "velocity": 95}, {"time": 1499, "pitch": 64, "duration": 25, "velocity": 65}, {"time": 1505, "pitch": 52, "duration": 9, "velocity": 74}, {"time": 1511, "pitch": 59, "duration": 13, "velocity": 82}, {"time": 1517, "pitch": 57, "duration": 7, "velocity": 66}, {"time": 1523, "pitch": 40, "duration": 41, "velocity": 75}, {"time": 1529, "pitch": 47, "duration": 35, "velocity": 58}, {"time": 1535, "pitch": 52, "duration": 15, "velocity": 78}, {"time": 1541, "pitch": 56, "duration": 20, "velocity": 78}, {"time": 1547, "pitch": 59, "duration": 8, "velocity": 59}, {"time": 1547, "pitch": 64, "duration": 7, "velocity": 67}, {"time": 1553, "pitch": 52, "duration": 8, "velocity": 67}, {"time": 1559, "pitch": 59, "duration": 12, "velocity": 68}, {"time": 1559, "pitch": 64, "duration": 12, "velocity": 69}, {"time": 1562, "pitch": 52, "duration": 3, "velocity": 65}, {"time": 1565, "pitch": 56, "duration": 7, "velocity": 70}, {"time": 1571, "pitch": 44, "duration": 39, "velocity": 76}, {"time": 1577, "pitch": 51, "duration": 9, "velocity": 60}, {"time": 1583, "pitch": 56, "duration": 14, "velocity": 66}, {"time": 1583, "pitch": 59, "duration": 17, "velocity": 85}, {"time": 1589, "pitch": 51, "duration": 21, "velocity": 54}, {"time": 1595, "pitch": 63, "duration": 10, "velocity": 70}, {"time": 1595, "pitch": 68, "duration": 9, "velocity": 81}, {"time": 1601, "pitch": 56, "duration": 11, "velocity": 78}, {"time": 1607, "pitch": 68, "duration": 12, "velocity": 96}, {"time": 1610, "pitch": 63, "duration": 10, "velocity": 72}, {"time": 1613, "pitch": 59, "duration": 7, "velocity": 70}, {"time": 1619, "pitch": 45, "duration": 23, "velocity": 78}, {"time": 1625, "pitch": 52, "duration": 9, "velocity": 70}, {"time": 1631, "pitch": 61, "duration": 9, "velocity": 88}, {"time": 1631, "pitch": 64, "duration": 11, "velocity": 76}, {"time": 1637, "pitch": 52, "duration": 7, "velocity": 58}, {"time": 1643, "pitch": 45, "duration": 15, "velocity": 71}, {"time": 1643, "pitch": 60, "duration": 11, "velocity": 74}, {"time": 1643, "pitch": 64, "duration": 10, "velocity": 71}, {"time": 1649, "pitch": 52, "duration": 8, "velocity": 33}, {"time": 1655, "pitch": 60, "duration": 12, "velocity": 78}, {"time": 1655, "pitch": 64, "duration": 12, "velocity": 78}, {"time": 1661, "pitch": 57, "duration": 7, "velocity": 73}, {"time": 1667, "pitch": 40, "duration": 19, "velocity": 75}, {"time": 1673, "pitch": 47, "duration": 13, "velocity": 57}, {"time": 1679, "pitch": 52, "duration": 5, "velocity": 74}, {"time": 1679, "pitch": 56, "duration": 12, "velocity": 73}, {"time": 1679, "pitch": 59, "duration": 12, "velocity": 72}, {"time": 1685, "pitch": 52, "duration": 7, "velocity": 56}, {"time": 1691, "pitch": 37, "duration": 18, "velocity": 92}, {"time": 1697, "pitch": 49, "duration": 9, "velocity": 74}, {"time": 1703, "pitch": 53, "duration": 11, "velocity": 71}, {"time": 1703, "pitch": 56, "duration": 11, "velocity": 83}, {"time": 1715, "pitch": 45, "duration": 17, "velocity": 90}, {"time": 1721, "pitch": 52, "duration": 9, "velocity": 62}, {"time": 1727, "pitch": 61, "duration": 12, "velocity": 90}, {"time": 1727, "pitch": 64, "duration": 12, "velocity": 78}, {"time": 1733, "pitch": 57, "duration": 6, "velocity": 88}, {"time": 1739, "pitch": 47, "duration": 16, "velocity": 88}, {"time": 1745, "pitch": 54, "duration": 8, "velocity": 71}, {"time": 1751, "pitch": 66, "duration": 13, "velocity": 107}, {"time": 1757, "pitch": 59, "duration": 7, "velocity": 89}, {"time": 1763, "pitch": 40, "duration": 17, "velocity": 88}, {"time": 1769, "pitch": 47, "duration": 7, "velocity": 66}, {"time": 1775, "pitch": 59, "duration": 11, "velocity": 112}, {"time": 1778, "pitch": 47, "duration": 2, "velocity": 89}, {"time": 1781, "pitch": 56, "duration": 5, "velocity": 107}, {"time": 1784, "pitch": 52, "duration": 2, "velocity": 92}, {"time": 1787, "pitch": 45, "duration": 11, "velocity": 107}, {"time": 1790, "pitch": 57, "duration": 8, "velocity": 93}, {"time": 1793, "pitch": 64, "duration": 5, "velocity": 95}, {"time": 1796, "pitch": 61, "duration": 5, "velocity": 122}, {"time": 1799, "pitch": 47, "duration": 6, "velocity": 93}, {"time": 1802, "pitch": 59, "duration": 9, "velocity": 78}, {"time": 1805, "pitch": 66, "duration": 6, "velocity": 112}, {"time": 1811, "pitch": 40, "duration": 22, "velocity": 90}, {"time": 1814, "pitch": 47, "duration": 21, "velocity": 72}, {"time": 1817, "pitch": 52, "duration": 7, "velocity": 89}, {"time": 1820, "pitch": 56, "duration": 4, "velocity": 74}, {"time": 1823, "pitch": 64, "duration": 19, "velocity": 78}, {"time": 1826, "pitch": 52, "duration": 2, "velocity": 95}, {"time": 1829, "pitch": 56, "duration": 9, "velocity": 100}, {"time": 1832, "pitch": 59, "duration": 10, "velocity": 66}, {"time": 1835, "pitch": 40, "duration": 18, "velocity": 76}, {"time": 1838, "pitch": 47, "duration": 15, "velocity": 69}, {"time": 1841, "pitch": 52, "duration": 7, "velocity": 77}, {"time": 1844, "pitch": 56, "duration": 4, "velocity": 90}, {"time": 1847, "pitch": 64, "duration": 12, "velocity": 86}, {"time": 1850, "pitch": 52, "duration": 4, "velocity": 83}, {"time": 1853, "pitch": 56, "duration": 4, "velocity": 100}, {"time": 1856, "pitch": 59, "duration": 3, "velocity": 68}, {"time": 1859, "pitch": 47, "duration": 23, "velocity": 69}, {"time": 1862, "pitch": 54, "duration": 10, "velocity": 81}, {"time": 1865, "pitch": 59, "duration": 4, "velocity": 90}, {"time": 1868, "pitch": 63, "duration": 4, "velocity": 100}, {"time": 1871, "pitch": 66, "duration": 13, "velocity": 117}, {"time": 1874, "pitch": 54, "duration": 8, "velocity": 97}, {"time": 1877, "pitch": 63, "duration": 9, "velocity": 92}, {"time": 1880, "pitch": 59, "duration": 5, "velocity": 93}, {"time": 1883, "pitch": 47, "duration": 18, "velocity": 83}, {"time": 1886, "pitch": 54, "duration": 11, "velocity": 96}, {"time": 1889, "pitch": 59, "duration": 8, "velocity": 82}, {"time": 1892, "pitch": 63, "duration": 4, "velocity": 97}, {"time": 1895, "pitch": 66, "duration": 12, "velocity": 112}, {"time": 1898, "pitch": 54, "duration": 2, "velocity": 92}, {"time": 1901, "pitch": 63, "duration": 6, "velocity": 100}, {"time": 1904, "pitch": 59, "duration": 4, "velocity": 89}, {"time": 1907, "pitch": 45, "duration": 19, "velocity": 74}, {"time": 1910, "pitch": 52, "duration": 10, "velocity": 73}, {"time": 1913, "pitch": 57, "duration": 7, "velocity": 82}, {"time": 1916, "pitch": 61, "duration": 3, "velocity": 86}, {"time": 1919, "pitch": 64, "duration": 13, "velocity": 97}, {"time": 1922, "pitch": 52, "duration": 8, "velocity": 74}, {"time": 1925, "pitch": 61, "duration": 5, "velocity": 107}, {"time": 1928, "pitch": 57, "duration": 4, "velocity": 93}, {"time": 1931, "pitch": 45, "duration": 17, "velocity": 82}, {"time": 1934, "pitch": 52, "duration": 11, "velocity": 89}, {"time": 1937, "pitch": 57, "duration": 7, "velocity": 83}, {"time": 1940, "pitch": 60, "duration": 4, "velocity": 93}, {"time": 1943, "pitch": 64, "duration": 12, "velocity": 99}, {"time": 1946, "pitch": 52, "duration": 2, "velocity": 72}, {"time": 1949, "pitch": 60, "duration": 6, "velocity": 99}, {"time": 1952, "pitch": 57, "duration": 4, "velocity": 92}, {"time": 1955, "pitch": 40, "duration": 16, "velocity": 78}, {"time": 1958, "pitch": 47, "duration": 13, "velocity": 67}, {"time": 1961, "pitch": 52, "duration": 8, "velocity": 78}, {"time": 1964, "pitch": 59, "duration": 8, "velocity": 74}, {"time": 1967, "pitch": 68, "duration": 10, "velocity": 117}, {"time": 1970, "pitch": 52, "duration": 3, "velocity": 83}, {"time": 1973, "pitch": 64, "duration": 4, "velocity": 78}, {"time": 1976, "pitch": 59, "duration": 3, "velocity": 93}, {"time": 1979, "pitch": 45, "duration": 11, "velocity": 93}, {"time": 1982, "pitch": 57, "duration": 8, "velocity": 97}, {"time": 1985, "pitch": 64, "duration": 5, "velocity": 99}, {"time": 1988, "pitch": 61, "duration": 4, "velocity": 127}, {"time": 1991, "pitch": 47, "duration": 6, "velocity": 90}, {"time": 1994, "pitch": 59, "duration": 10, "velocity": 93}, {"time": 1997, "pitch": 66, "duration": 5, "velocity": 127}, {"time": 2000, "pitch": 63, "duration": 3, "velocity": 122}, {"time": 2003, "pitch": 40, "duration": 22, "velocity": 83}, {"time": 2006, "pitch": 47, "duration": 21, "velocity": 76}, {"time": 2009, "pitch": 52, "duration": 7, "velocity": 85}, {"time": 2012, "pitch": 59, "duration": 8, "velocity": 88}, {"time": 2015, "pitch": 68, "duration": 12, "velocity": 117}, {"time": 2018, "pitch": 52, "duration": 4, "velocity": 92}, {"time": 2021, "pitch": 64, "duration": 16, "velocity": 77}, {"time": 2024, "pitch": 59, "duration": 7, "velocity": 89}, {"time": 2027, "pitch": 40, "duration": 17, "velocity": 78}, {"time": 2030, "pitch": 47, "duration": 15, "velocity": 68}, {"time": 2033, "pitch": 52, "duration": 8, "velocity": 77}, {"time": 2036, "pitch": 59, "duration": 6, "velocity": 72}, {"time": 2039, "pitch": 68, "duration": 11, "velocity": 112}, {"time": 2042, "pitch": 52, "duration": 8, "velocity": 74}, {"time": 2045, "pitch": 64, "duration": 5, "velocity": 61}, {"time": 2048, "pitch": 59, "duration": 4, "velocity": 93}, {"time": 2051, "pitch": 47, "duration": 22, "velocity": 72}, {"time": 2054, "pitch": 54, "duration": 11, "velocity": 93}, {"time": 2057, "pitch": 59, "duration": 8, "velocity": 86}, {"time": 2060, "pitch": 63, "duration": 4, "velocity": 107}, {"time": 2063, "pitch": 66, "duration": 11, "velocity": 117}, {"time": 2066, "pitch": 54, "duration": 8, "velocity": 75}, {"time": 2069, "pitch": 63, "duration": 7, "velocity": 92}, {"time": 2072, "pitch": 59, "duration": 5, "velocity": 97}, {"time": 2075, "pitch": 47, "duration": 17, "velocity": 72}, {"time": 2078, "pitch": 54, "duration": 11, "velocity": 86}, {"time": 2081, "pitch": 59, "duration": 7, "velocity": 81}, {"time": 2084, "pitch": 63, "duration": 4, "velocity": 100}, {"time": 2087, "pitch": 66, "duration": 11, "velocity": 117}, {"time": 2090, "pitch": 54, "duration": 2, "velocity": 81}, {"time": 2093, "pitch": 63, "duration": 6, "velocity": 112}, {"time": 2096, "pitch": 59, "duration": 3, "velocity": 95}, {"time": 2099, "pitch": 45, "duration": 17, "velocity": 79}, {"time": 2102, "pitch": 52, "duration": 11, "velocity": 75}, {"time": 2105, "pitch": 57, "duration": 7, "velocity": 88}, {"time": 2108, "pitch": 61, "duration": 3, "velocity": 93}, {"time": 2111, "pitch": 64, "duration": 11, "velocity": 95}, {"time": 2114, "pitch": 52, "duration": 3, "velocity": 65}, {"time": 2117, "pitch": 57, "duration": 5, "velocity": 92}, {"time": 2120, "pitch": 61, "duration": 3, "velocity": 107}, {"time": 2123, "pitch": 47, "duration": 15, "velocity": 72}, {"time": 2126, "pitch": 54, "duration": 11, "velocity": 81}, {"time": 2129, "pitch": 59, "duration": 7, "velocity": 82}, {"time": 2132, "pitch": 63, "duration": 4, "velocity": 97}, {"time": 2135, "pitch": 66, "duration": 11, "velocity": 117}, {"time": 2138, "pitch": 63, "duration": 4, "velocity": 95}, {"time": 2141, "pitch": 59, "duration": 6, "velocity": 83}, {"time": 2144, "pitch": 63, "duration": 3, "velocity": 95}, {"time": 2147, "pitch": 40, "duration": 20, "velocity": 69}, {"time": 2150, "pitch": 47, "duration": 17, "velocity": 64}, {"time": 2153, "pitch": 52, "duration": 8, "velocity": 78}, {"time": 2156, "pitch": 56, "duration": 4, "velocity": 99}, {"time": 2159, "pitch": 64, "duration": 9, "velocity": 89}, {"time": 2162, "pitch": 52, "duration": 3, "velocity": 75}, {"time": 2165, "pitch": 56, "duration": 3, "velocity": 92}, {"time": 2168, "pitch": 59, "duration": 2, "velocity": 48}, {"time": 2171, "pitch": 43, "duration": 11, "velocity": 93}, {"time": 2171, "pitch": 55, "duration": 8, "velocity": 97}, {"time": 2171, "pitch": 59, "duration": 9, "velocity": 90}, {"time": 2171, "pitch": 62, "duration": 6, "velocity": 96}, {"time": 2180, "pitch": 63, "duration": 1, "velocity": 27}, {"time": 2180, "pitch": 66, "duration": 1, "velocity": 25}, {"time": 2183, "pitch": 47, "duration": 7, "velocity": 107}, {"time": 2183, "pitch": 59, "duration": 12, "velocity": 86}, {"time": 2183, "pitch": 63, "duration": 12, "velocity": 122}, {"time": 2183, "pitch": 66, "duration": 12, "velocity": 112}, {"time": 2195, "pitch": 42, "duration": 19, "velocity": 88}, {"time": 2198, "pitch": 49, "duration": 15, "velocity": 30}, {"time": 2201, "pitch": 54, "duration": 7, "velocity": 86}, {"time": 2204, "pitch": 61, "duration": 2, "velocity": 43}, {"time": 2207, "pitch": 66, "duration": 6, "velocity": 83}, {"time": 2210, "pitch": 54, "duration": 5, "velocity": 79}, {"time": 2213, "pitch": 61, "duration": 6, "velocity": 82}, {"time": 2216, "pitch": 66, "duration": 3, "velocity": 69}, {"time": 2219, "pitch": 47, "duration": 17, "velocity": 71}, {"time": 2222, "pitch": 54, "duration": 11, "velocity": 86}, {"time": 2225, "pitch": 59, "duration": 5, "velocity": 66}, {"time": 2228, "pitch": 63, "duration": 4, "velocity": 96}, {"time": 2231, "pitch": 66, "duration": 10, "velocity": 95}, {"time": 2234, "pitch": 54, "duration": 2, "velocity": 74}, {"time": 2237, "pitch": 63, "duration": 5, "velocity": 99}, {"time": 2240, "pitch": 59, "duration": 4, "velocity": 78}, {"time": 2243, "pitch": 44, "duration": 19, "velocity": 89}, {"time": 2246, "pitch": 56, "duration": 9, "velocity": 82}, {"time": 2249, "pitch": 59, "duration": 7, "velocity": 81}, {"time": 2252, "pitch": 63, "duration": 4, "velocity": 83}, {"time": 2255, "pitch": 68, "duration": 11, "velocity": 83}, {"time": 2258, "pitch": 56, "duration": 3, "velocity": 90}, {"time": 2261, "pitch": 63, "duration": 5, "velocity": 92}, {"time": 2264, "pitch": 59, "duration": 3, "velocity": 92}, {"time": 2267, "pitch": 43, "duration": 17, "velocity": 72}, {"time": 2270, "pitch": 50, "duration": 10, "velocity": 72}, {"time": 2273, "pitch": 55, "duration": 6, "velocity": 74}, {"time": 2276, "pitch": 59, "duration": 4, "velocity": 96}, {"time": 2279, "pitch": 62, "duration": 11, "velocity": 96}, {"time": 2282, "pitch": 50, "duration": 2, "velocity": 88}, {"time": 2285, "pitch": 59, "duration": 5, "velocity": 107}, {"time": 2288, "pitch": 55, "duration": 3, "velocity": 93}, {"time": 2291, "pitch": 42, "duration": 19, "velocity": 76}, {"time": 2294, "pitch": 49, "duration": 15, "velocity": 53}, {"time": 2297, "pitch": 54, "duration": 7, "velocity": 81}, {"time": 2300, "pitch": 61, "duration": 3, "velocity": 70}, {"time": 2303, "pitch": 66, "duration": 7, "velocity": 99}, {"time": 2306, "pitch": 54, "duration": 4, "velocity": 81}, {"time": 2309, "pitch": 61, "duration": 4, "velocity": 96}, {"time": 2312, "pitch": 66, "duration": 2, "velocity": 100}, {"time": 2315, "pitch": 42, "duration": 17, "velocity": 89}, {"time": 2318, "pitch": 49, "duration": 13, "velocity": 69}, {"time": 2321, "pitch": 54, "duration": 7, "velocity": 77}, {"time": 2324, "pitch": 61, "duration": 3, "velocity": 76}, {"time": 2327, "pitch": 66, "duration": 6, "velocity": 96}, {"time": 2330, "pitch": 54, "duration": 3, "velocity": 81}, {"time": 2333, "pitch": 61, "duration": 5, "velocity": 99}, {"time": 2336, "pitch": 66, "duration": 3, "velocity": 102}, {"time": 2339, "pitch": 47, "duration": 23, "velocity": 67}, {"time": 2342, "pitch": 54, "duration": 10, "velocity": 96}, {"time": 2345, "pitch": 59, "duration": 6, "velocity": 72}, {"time": 2348, "pitch": 63, "duration": 4, "velocity": 96}, {"time": 2351, "pitch": 66, "duration": 10, "velocity": 102}, {"time": 2354, "pitch": 54, "duration": 8, "velocity": 99}, {"time": 2357, "pitch": 63, "duration": 8, "velocity": 117}, {"time": 2360, "pitch": 59, "duration": 4, "velocity": 89}, {"time": 2363, "pitch": 47, "duration": 11, "velocity": 92}, {"time": 2366, "pitch": 59, "duration": 4, "velocity": 95}, {"time": 2369, "pitch": 66, "duration": 4, "velocity": 100}, {"time": 2372, "pitch": 59, "duration": 1, "velocity": 93}, {"time": 2375, "pitch": 43, "duration": 11, "velocity": 95}, {"time": 2375, "pitch": 55, "duration": 11, "velocity": 99}, {"time": 2375, "pitch": 59, "duration": 11, "velocity": 96}, {"time": 2375, "pitch": 62, "duration": 11, "velocity": 99}, {"time": 2387, "pitch": 33, "duration": 22, "velocity": 82}, {"time": 2387, "pitch": 57, "duration": 6, "velocity": 122}, {"time": 2387, "pitch": 61, "duration": 6, "velocity": 127}, {"time": 2387, "pitch": 64, "duration": 6, "velocity": 99}, {"time": 2393, "pitch": 45, "duration": 7, "velocity": 75}, {"time": 2396, "pitch": 57, "duration": 2, "velocity": 73}, {"time": 2396, "pitch": 61, "duration": 2, "velocity": 78}, {"time": 2396, "pitch": 64, "duration": 1, "velocity": 41}, {"time": 2399, "pitch": 57, "duration": 4, "velocity": 112}, {"time": 2399, "pitch": 61, "duration": 7, "velocity": 127}, {"time": 2399, "pitch": 64, "duration": 7, "velocity": 112}, {"time": 2402, "pitch": 45, "duration": 8, "velocity": 97}, {"time": 2405, "pitch": 57, "duration": 5, "velocity": 102}, {"time": 2408, "pitch": 61, "duration": 1, "velocity": 43}, {"time": 2408, "pitch": 64, "duration": 1, "velocity": 41}, {"time": 2411, "pitch": 33, "duration": 16, "velocity": 88}, {"time": 2411, "pitch": 57, "duration": 8, "velocity": 112}, {"time": 2411, "pitch": 60, "duration": 8, "velocity": 117}, {"time": 2411, "pitch": 64, "duration": 8, "velocity": 107}, {"time": 2417, "pitch": 45, "duration": 7, "velocity": 79}, {"time": 2420, "pitch": 57, "duration": 2, "velocity": 88}, {"time": 2420, "pitch": 60, "duration": 2, "velocity": 95}, {"time": 2420, "pitch": 64, "duration": 2, "velocity": 90}, {"time": 2423, "pitch": 40, "duration": 4, "velocity": 31}, {"time": 2423, "pitch": 57, "duration": 3, "velocity": 97}, {"time": 2423, "pitch": 60, "duration": 6, "velocity": 127}, {"time": 2423, "pitch": 64, "duration": 6, "velocity": 122}, {"time": 2426, "pitch": 45, "duration": 4, "velocity": 112}, {"time": 2429, "pitch": 57, "duration": 2, "velocity": 107}, {"time": 2432, "pitch": 64, "duration": 1, "velocity": 40}, {"time": 2435, "pitch": 40, "duration": 23, "velocity": 97}, {"time": 2435, "pitch": 59, "duration": 2, "velocity": 100}, {"time": 2435, "pitch": 64, "duration": 2, "velocity": 112}, {"time": 2435, "pitch": 68, "duration": 2, "velocity": 122}, {"time": 2438, "pitch": 47, "duration": 11, "velocity": 55}, {"time": 2438, "pitch": 59, "duration": 2, "velocity": 39}, {"time": 2438, "pitch": 64, "duration": 2, "velocity": 52}, {"time": 2438, "pitch": 68, "duration": 2, "velocity": 47}, {"time": 2441, "pitch": 59, "duration": 1, "velocity": 66}, {"time": 2441, "pitch": 64, "duration": 1, "velocity": 72}, {"time": 2441, "pitch": 68, "duration": 1, "velocity": 66}, {"time": 2444, "pitch": 59, "duration": 1, "velocity": 70}, {"time": 2444, "pitch": 64, "duration": 1, "velocity": 72}, {"time": 2444, "pitch": 68, "duration": 1, "velocity": 69}, {"time": 2447, "pitch": 52, "duration": 5, "velocity": 96}, {"time": 2447, "pitch": 59, "duration": 4, "velocity": 97}, {"time": 2447, "pitch": 64, "duration": 4, "velocity": 107}, {"time": 2447, "pitch": 68, "duration": 4, "velocity": 127}, {"time": 2450, "pitch": 47, "duration": 8, "velocity": 59}, {"time": 2453, "pitch": 59, "duration": 1, "velocity": 82}, {"time": 2453, "pitch": 64, "duration": 1, "velocity": 93}, {"time": 2453, "pitch": 68, "duration": 1, "velocity": 96}, {"time": 2456, "pitch": 59, "duration": 4, "velocity": 97}, {"time": 2456, "pitch": 64, "duration": 4, "velocity": 122}, {"time": 2456, "pitch": 68, "duration": 4, "velocity": 117}, {"time": 2459, "pitch": 40, "duration": 18, "velocity": 82}, {"time": 2462, "pitch": 47, "duration": 14, "velocity": 55}, {"time": 2462, "pitch": 59, "duration": 1, "velocity": 77}, {"time": 2462, "pitch": 64, "duration": 1, "velocity": 81}, {"time": 2462, "pitch": 68, "duration": 1, "velocity": 83}, {"time": 2465, "pitch": 59, "duration": 1, "velocity": 74}, {"time": 2465, "pitch": 64, "duration": 1, "velocity": 68}, {"time": 2465, "pitch": 68, "duration": 1, "velocity": 59}, {"time": 2468, "pitch": 52, "duration": 2, "velocity": 47}, {"time": 2468, "pitch": 59, "duration": 1, "velocity": 81}, {"time": 2468, "pitch": 64, "duration": 1, "velocity": 93}, {"time": 2468, "pitch": 68, "duration": 1, "velocity": 95}, {"time": 2471, "pitch": 52, "duration": 2, "velocity": 102}, {"time": 2471, "pitch": 59, "duration": 2, "velocity": 107}, {"time": 2471, "pitch": 64, "duration": 6, "velocity": 122}, {"time": 2471, "pitch": 68, "duration": 7, "velocity": 127}, {"time": 2474, "pitch": 52, "duration": 4, "velocity": 112}, {"time": 2474, "pitch": 59, "duration": 1, "velocity": 33}, {"time": 2477, "pitch": 59, "duration": 3, "velocity": 122}, {"time": 2480, "pitch": 61, "duration": 2, "velocity": 93}, {"time": 2483, "pitch": 45, "duration": 22, "velocity": 107}, {"time": 2483, "pitch": 57, "duration": 4, "velocity": 117}, {"time": 2483, "pitch": 61, "duration": 4, "velocity": 127}, {"time": 2483, "pitch": 64, "duration": 4, "velocity": 102}, {"time": 2486, "pitch": 52, "duration": 9, "velocity": 95}, {"time": 2489, "pitch": 57, "duration": 2, "velocity": 76}, {"time": 2489, "pitch": 61, "duration": 2, "velocity": 56}, {"time": 2489, "pitch": 64, "duration": 2, "velocity": 68}, {"time": 2492, "pitch": 57, "duration": 1, "velocity": 70}, {"time": 2492, "pitch": 61, "duration": 2, "velocity": 97}, {"time": 2492, "pitch": 64, "duration": 2, "velocity": 85}, {"time": 2495, "pitch": 57, "duration": 4, "velocity": 96}, {"time": 2495, "pitch": 61, "duration": 4, "velocity": 127}, {"time": 2495, "pitch": 64, "duration": 4, "velocity": 100}, {"time": 2498, "pitch": 52, "duration": 8, "velocity": 112}, {"time": 2501, "pitch": 61, "duration": 4, "velocity": 127}, {"time": 2501, "pitch": 64, "duration": 4, "velocity": 90}, {"time": 2504, "pitch": 57, "duration": 2, "velocity": 102}, {"time": 2507, "pitch": 45, "duration": 16, "velocity": 79}, {"time": 2507, "pitch": 57, "duration": 4, "velocity": 81}, {"time": 2507, "pitch": 60, "duration": 4, "velocity": 97}, {"time": 2507, "pitch": 64, "duration": 4, "velocity": 95}, {"time": 2510, "pitch": 52, "duration": 6, "velocity": 67}, {"time": 2513, "pitch": 57, "duration": 2, "velocity": 64}, {"time": 2513, "pitch": 60, "duration": 2, "velocity": 72}, {"time": 2513, "pitch": 64, "duration": 2, "velocity": 67}, {"time": 2516, "pitch": 57, "duration": 1, "velocity": 86}, {"time": 2516, "pitch": 60, "duration": 1, "velocity": 93}, {"time": 2516, "pitch": 64, "duration": 2, "velocity": 77}, {"time": 2519, "pitch": 52, "duration": 2, "velocity": 95}, {"time": 2519, "pitch": 57, "duration": 1, "velocity": 100}, {"time": 2519, "pitch": 60, "duration": 2, "velocity": 127}, {"time": 2519, "pitch": 64, "duration": 2, "velocity": 100}, {"time": 2522, "pitch": 57, "duration": 2, "velocity": 53}, {"time": 2522, "pitch": 60, "duration": 2, "velocity": 66}, {"time": 2522, "pitch": 64, "duration": 2, "velocity": 67}, {"time": 2525, "pitch": 57, "duration": 1, "velocity": 40}, {"time": 2525, "pitch": 60, "duration": 2, "velocity": 127}, {"time": 2525, "pitch": 64, "duration": 2, "velocity": 99}, {"time": 2528, "pitch": 59, "duration": 2, "velocity": 89}, {"time": 2531, "pitch": 40, "duration": 22, "velocity": 79}, {"time": 2531, "pitch": 59, "duration": 7, "velocity": 90}, {"time": 2531, "pitch": 64, "duration": 7, "velocity": 107}, {"time": 2531, "pitch": 68, "duration": 7, "velocity": 122}, {"time": 2534, "pitch": 47, "duration": 21, "velocity": 89}, {"time": 2537, "pitch": 52, "duration": 7, "velocity": 93}, {"time": 2540, "pitch": 59, "duration": 2, "velocity": 89}, {"time": 2540, "pitch": 64, "duration": 2, "velocity": 77}, {"time": 2540, "pitch": 68, "duration": 2, "velocity": 81}, {"time": 2543, "pitch": 59, "duration": 3, "velocity": 100}, {"time": 2543, "pitch": 64, "duration": 4, "velocity": 122}, {"time": 2543, "pitch": 68, "duration": 4, "velocity": 117}, {"time": 2546, "pitch": 52, "duration": 3, "velocity": 97}, {"time": 2549, "pitch": 59, "duration": 1, "velocity": 93}, {"time": 2549, "pitch": 64, "duration": 1, "velocity": 86}, {"time": 2549, "pitch": 68, "duration": 1, "velocity": 73}, {"time": 2552, "pitch": 59, "duration": 1, "velocity": 89}, {"time": 2552, "pitch": 64, "duration": 1, "velocity": 112}, {"time": 2552, "pitch": 68, "duration": 1, "velocity": 122}, {"time": 2555, "pitch": 40, "duration": 17, "velocity": 86}, {"time": 2555, "pitch": 59, "duration": 2, "velocity": 92}, {"time": 2555, "pitch": 64, "duration": 2, "velocity": 99}, {"time": 2555, "pitch": 68, "duration": 1, "velocity": 107}, {"time": 2558, "pitch": 47, "duration": 15, "velocity": 75}, {"time": 2558, "pitch": 59, "duration": 1, "velocity": 69}, {"time": 2558, "pitch": 64, "duration": 2, "velocity": 69}, {"time": 2558, "pitch": 68, "duration": 1, "velocity": 72}, {"time": 2561, "pitch": 52, "duration": 7, "velocity": 81}, {"time": 2561, "pitch": 59, "duration": 1, "velocity": 74}, {"time": 2561, "pitch": 64, "duration": 1, "velocity": 71}, {"time": 2561, "pitch": 68, "duration": 1, "velocity": 63}, {"time": 2564, "pitch": 59, "duration": 1, "velocity": 85}, {"time": 2564, "pitch": 64, "duration": 1, "velocity": 88}, {"time": 2564, "pitch": 68, "duration": 1, "velocity": 90}, {"time": 2567, "pitch": 59, "duration": 4, "velocity": 99}, {"time": 2567, "pitch": 64, "duration": 7, "velocity": 127}, {"time": 2567, "pitch": 68, "duration": 7, "velocity": 127}, {"time": 2570, "pitch": 52, "duration": 4, "velocity": 107}, {"time": 2573, "pitch": 59, "duration": 2, "velocity": 122}, {"time": 2576, "pitch": 59, "duration": 2, "velocity": 66}, {"time": 2576, "pitch": 64, "duration": 2, "velocity": 88}, {"time": 2579, "pitch": 45, "duration": 22, "velocity": 99}, {"time": 2579, "pitch": 57, "duration": 4, "velocity": 100}, {"time": 2579, "pitch": 61, "duration": 5, "velocity": 127}, {"time": 2579, "pitch": 64, "duration": 5, "velocity": 96}, {"time": 2582, "pitch": 52, "duration": 9, "velocity": 88}, {"time": 2585, "pitch": 57, "duration": 2, "velocity": 81}, {"time": 2588, "pitch": 57, "duration": 1, "velocity": 64}, {"time": 2588, "pitch": 61, "duration": 1, "velocity": 97}, {"time": 2588, "pitch": 64, "duration": 1, "velocity": 82}, {"time": 2591, "pitch": 57, "duration": 2, "velocity": 100}, {"time": 2591, "pitch": 61, "duration": 2, "velocity": 127}, {"time": 2591, "pitch": 64, "duration": 1, "velocity": 97}, {"time": 2594, "pitch": 52, "duration": 9, "velocity": 90}, {"time": 2597, "pitch": 57, "duration": 2, "velocity": 96}, {"time": 2600, "pitch": 57, "duration": 1, "velocity": 58}, {"time": 2600, "pitch": 61, "duration": 1, "velocity": 117}, {"time": 2600, "pitch": 64, "duration": 1, "velocity": 83}, {"time": 2603, "pitch": 45, "duration": 17, "velocity": 79}, {"time": 2603, "pitch": 57, "duration": 4, "velocity": 95}, {"time": 2603, "pitch": 60, "duration": 4, "velocity": 107}, {"time": 2603, "pitch": 64, "duration": 4, "velocity": 102}, {"time": 2606, "pitch": 52, "duration": 8, "velocity": 96}, {"time": 2609, "pitch": 57, "duration": 1, "velocity": 77}, {"time": 2609, "pitch": 60, "duration": 1, "velocity": 89}, {"time": 2609, "pitch": 64, "duration": 1, "velocity": 78}, {"time": 2612, "pitch": 57, "duration": 1, "velocity": 77}, {"time": 2612, "pitch": 60, "duration": 1, "velocity": 92}, {"time": 2612, "pitch": 64, "duration": 1, "velocity": 83}, {"time": 2615, "pitch": 57, "duration": 5, "velocity": 97}, {"time": 2615, "pitch": 60, "duration": 4, "velocity": 122}, {"time": 2615, "pitch": 64, "duration": 4, "velocity": 102}, {"time": 2618, "pitch": 52, "duration": 2, "velocity": 96}, {"time": 2621, "pitch": 57, "duration": 1, "velocity": 51}, {"time": 2621, "pitch": 60, "duration": 2, "velocity": 112}, {"time": 2621, "pitch": 64, "duration": 2, "velocity": 96}, {"time": 2624, "pitch": 59, "duration": 2, "velocity": 90}, {"time": 2627, "pitch": 40, "duration": 9, "velocity": 93}, {"time": 2627, "pitch": 59, "duration": 7, "velocity": 99}, {"time": 2627, "pitch": 64, "duration": 8, "velocity": 97}, {"time": 2627, "pitch": 68, "duration": 11, "velocity": 112}, {"time": 2630, "pitch": 47, "duration": 6, "velocity": 89}, {"time": 2633, "pitch": 52, "duration": 3, "velocity": 99}, {"time": 2636, "pitch": 59, "duration": 3, "velocity": 117}, {"time": 2639, "pitch": 39, "duration": 11, "velocity": 107}, {"time": 2639, "pitch": 63, "duration": 7, "velocity": 127}, {"time": 2645, "pitch": 59, "duration": 2, "velocity": 96}, {"time": 2651, "pitch": 37, "duration": 7, "velocity": 112}, {"time": 2651, "pitch": 61, "duration": 7, "velocity": 117}, {"time": 2651, "pitch": 64, "duration": 6, "velocity": 107}, {"time": 2651, "pitch": 68, "duration": 7, "velocity": 112}, {"time": 2657, "pitch": 49, "duration": 1, "velocity": 76}, {"time": 2663, "pitch": 35, "duration": 5, "velocity": 97}, {"time": 2663, "pitch": 59, "duration": 5, "velocity": 112}, {"time": 2663, "pitch": 63, "duration": 7, "velocity": 127}, {"time": 2663, "pitch": 66, "duration": 6, "velocity": 117}, {"time": 2669, "pitch": 59, "duration": 3, "velocity": 99}, {"time": 2675, "pitch": 45, "duration": 23, "velocity": 92}, {"time": 2675, "pitch": 57, "duration": 5, "velocity": 112}, {"time": 2675, "pitch": 61, "duration": 5, "velocity": 127}, {"time": 2675, "pitch": 64, "duration": 5, "velocity": 99}, {"time": 2678, "pitch": 52, "duration": 10, "velocity": 96}, {"time": 2681, "pitch": 57, "duration": 4, "velocity": 92}, {"time": 2684, "pitch": 61, "duration": 2, "velocity": 102}, {"time": 2684, "pitch": 64, "duration": 2, "velocity": 86}, {"time": 2687, "pitch": 57, "duration": 3, "velocity": 107}, {"time": 2687, "pitch": 61, "duration": 7, "velocity": 127}, {"time": 2687, "pitch": 64, "duration": 7, "velocity": 117}, {"time": 2690, "pitch": 52, "duration": 10, "velocity": 100}, {"time": 2693, "pitch": 57, "duration": 2, "velocity": 100}, {"time": 2696, "pitch": 57, "duration": 7, "velocity": 107}, {"time": 2696, "pitch": 61, "duration": 8, "velocity": 127}, {"time": 2696, "pitch": 64, "duration": 8, "velocity": 100}, {"time": 2699, "pitch": 45, "duration": 21, "velocity": 75}, {"time": 2702, "pitch": 52, "duration": 10, "velocity": 96}, {"time": 2705, "pitch": 57, "duration": 2, "velocity": 92}, {"time": 2705, "pitch": 61, "duration": 1, "velocity": 29}, {"time": 2705, "pitch": 64, "duration": 1, "velocity": 24}, {"time": 2708, "pitch": 57, "duration": 1, "velocity": 75}, {"time": 2708, "pitch": 61, "duration": 2, "velocity": 112}, {"time": 2708, "pitch": 64, "duration": 1, "velocity": 93}, {"time": 2711, "pitch": 57, "duration": 7, "velocity": 107}, {"time": 2711, "pitch": 61, "duration": 5, "velocity": 127}, {"time": 2711, "pitch": 64, "duration": 4, "velocity": 107}, {"time": 2714, "pitch": 52, "duration": 9, "velocity": 112}, {"time": 2717, "pitch": 61, "duration": 2, "velocity": 127}, {"time": 2717, "pitch": 64, "duration": 2, "velocity": 102}, {"time": 2723, "pitch": 47, "duration": 14, "velocity": 95}, {"time": 2723, "pitch": 59, "duration": 6, "velocity": 112}, {"time": 2723, "pitch": 63, "duration": 6, "velocity": 127}, {"time": 2723, "pitch": 66, "duration": 5, "velocity": 122}, {"time": 2729, "pitch": 59, "duration": 2, "velocity": 69}, {"time": 2729, "pitch": 63, "duration": 1, "velocity": 86}, {"time": 2729, "pitch": 66, "duration": 1, "velocity": 76}, {"time": 2732, "pitch": 59, "duration": 1, "velocity": 92}, {"time": 2732, "pitch": 63, "duration": 1, "velocity": 127}, {"time": 2732, "pitch": 66, "duration": 1, "velocity": 107}, {"time": 2735, "pitch": 59, "duration": 3, "velocity": 96}, {"time": 2735, "pitch": 63, "duration": 6, "velocity": 127}, {"time": 2735, "pitch": 66, "duration": 6, "velocity": 127}, {"time": 2738, "pitch": 47, "duration": 4, "velocity": 99}, {"time": 2741, "pitch": 59, "duration": 2, "velocity": 127}, {"time": 2744, "pitch": 61, "duration": 1, "velocity": 64}, {"time": 2747, "pitch": 45, "duration": 12, "velocity": 122}, {"time": 2747, "pitch": 57, "duration": 10, "velocity": 117}, {"time": 2747, "pitch": 61, "duration": 7, "velocity": 127}, {"time": 2747, "pitch": 64, "duration": 7, "velocity": 107}, {"time": 2759, "pitch": 47, "duration": 13, "velocity": 117}, {"time": 2759, "pitch": 59, "duration": 13, "velocity": 99}, {"time": 2759, "pitch": 63, "duration": 13, "velocity": 127}, {"time": 2759, "pitch": 66, "duration": 13, "velocity": 127}, {"time": 2771, "pitch": 40, "duration": 22, "velocity": 99}, {"time": 2771, "pitch": 59, "duration": 1, "velocity": 96}, {"time": 2771, "pitch": 64, "duration": 7, "velocity": 102}, {"time": 2771, "pitch": 68, "duration": 7, "velocity": 117}, {"time": 2774, "pitch": 47, "duration": 20, "velocity": 95}, {"time": 2777, "pitch": 52, "duration": 7, "velocity": 92}, {"time": 2780, "pitch": 59, "duration": 2, "velocity": 93}, {"time": 2780, "pitch": 64, "duration": 2, "velocity": 95}, {"time": 2780, "pitch": 68, "duration": 2, "velocity": 93}, {"time": 2783, "pitch": 59, "duration": 3, "velocity": 97}, {"time": 2783, "pitch": 64, "duration": 4, "velocity": 102}, {"time": 2783, "pitch": 68, "duration": 4, "velocity": 117}, {"time": 2786, "pitch": 52, "duration": 3, "velocity": 112}, {"time": 2789, "pitch": 59, "duration": 2, "velocity": 102}, {"time": 2789, "pitch": 64, "duration": 1, "velocity": 69}, {"time": 2789, "pitch": 68, "duration": 1, "velocity": 59}, {"time": 2792, "pitch": 59, "duration": 1, "velocity": 99}, {"time": 2792, "pitch": 64, "duration": 1, "velocity": 100}, {"time": 2792, "pitch": 68, "duration": 1, "velocity": 107}, {"time": 2795, "pitch": 40, "duration": 18, "velocity": 97}, {"time": 2795, "pitch": 59, "duration": 2, "velocity": 102}, {"time": 2795, "pitch": 64, "duration": 2, "velocity": 99}, {"time": 2795, "pitch": 68, "duration": 2, "velocity": 112}, {"time": 2798, "pitch": 59, "duration": 2, "velocity": 52}, {"time": 2798, "pitch": 64, "duration": 2, "velocity": 40}, {"time": 2798, "pitch": 68, "duration": 2, "velocity": 56}, {"time": 2801, "pitch": 47, "duration": 8, "velocity": 50}, {"time": 2801, "pitch": 59, "duration": 1, "velocity": 85}, {"time": 2801, "pitch": 64, "duration": 1, "velocity": 89}, {"time": 2801, "pitch": 68, "duration": 1, "velocity": 88}, {"time": 2804, "pitch": 59, "duration": 1, "velocity": 83}, {"time": 2804, "pitch": 64, "duration": 1, "velocity": 85}, {"time": 2804, "pitch": 68, "duration": 1, "velocity": 86}, {"time": 2807, "pitch": 52, "duration": 5, "velocity": 100}, {"time": 2807, "pitch": 59, "duration": 3, "velocity": 85}, {"time": 2807, "pitch": 64, "duration": 4, "velocity": 117}, {"time": 2807, "pitch": 68, "duration": 5, "velocity": 122}, {"time": 2810, "pitch": 47, "duration": 3, "velocity": 95}, {"time": 2813, "pitch": 59, "duration": 4, "velocity": 102}, {"time": 2813, "pitch": 64, "duration": 1, "velocity": 92}, {"time": 2813, "pitch": 68, "duration": 1, "velocity": 85}, {"time": 2816, "pitch": 63, "duration": 1, "velocity": 88}, {"time": 2819, "pitch": 47, "duration": 22, "velocity": 95}, {"time": 2819, "pitch": 59, "duration": 5, "velocity": 100}, {"time": 2819, "pitch": 63, "duration": 4, "velocity": 127}, {"time": 2819, "pitch": 66, "duration": 4, "velocity": 127}, {"time": 2822, "pitch": 54, "duration": 10, "velocity": 67}, {"time": 2825, "pitch": 59, "duration": 2, "velocity": 90}, {"time": 2825, "pitch": 63, "duration": 1, "velocity": 47}, {"time": 2825, "pitch": 66, "duration": 1, "velocity": 40}, {"time": 2828, "pitch": 59, "duration": 1, "velocity": 70}, {"time": 2828, "pitch": 63, "duration": 1, "velocity": 100}, {"time": 2828, "pitch": 66, "duration": 1, "velocity": 82}, {"time": 2831, "pitch": 59, "duration": 3, "velocity": 112}, {"time": 2831, "pitch": 63, "duration": 7, "velocity": 127}, {"time": 2831, "pitch": 66, "duration": 7, "velocity": 127}, {"time": 2834, "pitch": 54, "duration": 9, "velocity": 102}, {"time": 2837, "pitch": 59, "duration": 2, "velocity": 93}, {"time": 2840, "pitch": 59, "duration": 2, "velocity": 72}, {"time": 2840, "pitch": 63, "duration": 2, "velocity": 127}, {"time": 2840, "pitch": 66, "duration": 1, "velocity": 100}, {"time": 2843, "pitch": 47, "duration": 18, "velocity": 77}, {"time": 2843, "pitch": 59, "duration": 4, "velocity": 97}, {"time": 2843, "pitch": 63, "duration": 5, "velocity": 127}, {"time": 2843, "pitch": 66, "duration": 5, "velocity": 127}, {"time": 2846, "pitch": 54, "duration": 10, "velocity": 93}, {"time": 2849, "pitch": 59, "duration": 2, "velocity": 90}, {"time": 2849, "pitch": 63, "duration": 1, "velocity": 25}, {"time": 2852, "pitch": 59, "duration": 1, "velocity": 82}, {"time": 2852, "pitch": 63, "duration": 1, "velocity": 112}, {"time": 2852, "pitch": 66, "duration": 1, "velocity": 100}, {"time": 2855, "pitch": 63, "duration": 6, "velocity": 127}, {"time": 2855, "pitch": 66, "duration": 6, "velocity": 127}, {"time": 2858, "pitch": 54, "duration": 3, "velocity": 102}, {"time": 2861, "pitch": 59, "duration": 4, "velocity": 117}, {"time": 2864, "pitch": 61, "duration": 2, "velocity": 92}, {"time": 2867, "pitch": 45, "duration": 23, "velocity": 95}, {"time": 2867, "pitch": 57, "duration": 4, "velocity": 112}, {"time": 2867, "pitch": 61, "duration": 5, "velocity": 112}, {"time": 2867, "pitch": 64, "duration": 5, "velocity": 99}, {"time": 2870, "pitch": 52, "duration": 10, "velocity": 76}, {"time": 2873, "pitch": 57, "duration": 5, "velocity": 88}, {"time": 2873, "pitch": 61, "duration": 1, "velocity": 33}, {"time": 2873, "pitch": 64, "duration": 1, "velocity": 33}, {"time": 2876, "pitch": 61, "duration": 2, "velocity": 88}, {"time": 2876, "pitch": 64, "duration": 1, "velocity": 69}, {"time": 2879, "pitch": 57, "duration": 4, "velocity": 112}, {"time": 2879, "pitch": 61, "duration": 5, "velocity": 127}, {"time": 2879, "pitch": 64, "duration": 8, "velocity": 102}, {"time": 2882, "pitch": 52, "duration": 8, "velocity": 99}, {"time": 2885, "pitch": 57, "duration": 2, "velocity": 95}, {"time": 2885, "pitch": 61, "duration": 1, "velocity": 27}, {"time": 2888, "pitch": 57, "duration": 2, "velocity": 58}, {"time": 2888, "pitch": 61, "duration": 2, "velocity": 122}, {"time": 2888, "pitch": 64, "duration": 1, "velocity": 65}, {"time": 2891, "pitch": 45, "duration": 17, "velocity": 96}, {"time": 2891, "pitch": 57, "duration": 5, "velocity": 107}, {"time": 2891, "pitch": 60, "duration": 5, "velocity": 107}, {"time": 2891, "pitch": 64, "duration": 7, "velocity": 99}, {"time": 2894, "pitch": 52, "duration": 10, "velocity": 85}, {"time": 2897, "pitch": 57, "duration": 2, "velocity": 88}, {"time": 2897, "pitch": 60, "duration": 1, "velocity": 31}, {"time": 2900, "pitch": 57, "duration": 1, "velocity": 57}, {"time": 2900, "pitch": 60, "duration": 1, "velocity": 82}, {"time": 2900, "pitch": 64, "duration": 2, "velocity": 72}, {"time": 2903, "pitch": 57, "duration": 5, "velocity": 122}, {"time": 2903, "pitch": 60, "duration": 4, "velocity": 127}, {"time": 2903, "pitch": 64, "duration": 4, "velocity": 102}, {"time": 2906, "pitch": 52, "duration": 2, "velocity": 96}, {"time": 2909, "pitch": 57, "duration": 1, "velocity": 56}, {"time": 2909, "pitch": 60, "duration": 3, "velocity": 117}, {"time": 2909, "pitch": 64, "duration": 2, "velocity": 99}, {"time": 2912, "pitch": 59, "duration": 2, "velocity": 76}, {"time": 2915, "pitch": 40, "duration": 17, "velocity": 97}, {"time": 2915, "pitch": 59, "duration": 7, "velocity": 107}, {"time": 2915, "pitch": 64, "duration": 7, "velocity": 102}, {"time": 2915, "pitch": 68, "duration": 7, "velocity": 117}, {"time": 2918, "pitch": 47, "duration": 15, "velocity": 95}, {"time": 2921, "pitch": 52, "duration": 7, "velocity": 92}, {"time": 2924, "pitch": 59, "duration": 2, "velocity": 100}, {"time": 2924, "pitch": 64, "duration": 2, "velocity": 95}, {"time": 2924, "pitch": 68, "duration": 1, "velocity": 100}, {"time": 2927, "pitch": 59, "duration": 4, "velocity": 112}, {"time": 2927, "pitch": 64, "duration": 6, "velocity": 117}, {"time": 2927, "pitch": 68, "duration": 6, "velocity": 127}, {"time": 2930, "pitch": 52, "duration": 6, "velocity": 122}, {"time": 2933, "pitch": 59, "duration": 3, "velocity": 112}, {"time": 2936, "pitch": 61, "duration": 1, "velocity": 97}, {"time": 2939, "pitch": 45, "duration": 11, "velocity": 107}, {"time": 2939, "pitch": 52, "duration": 4, "velocity": 112}, {"time": 2939, "pitch": 57, "duration": 4, "velocity": 112}, {"time": 2939, "pitch": 61, "duration": 7, "velocity": 127}, {"time": 2939, "pitch": 64, "duration": 7, "velocity": 107}, {"time": 2942, "pitch": 49, "duration": 9, "velocity": 112}, {"time": 2945, "pitch": 52, "duration": 6, "velocity": 56}, {"time": 2945, "pitch": 57, "duration": 4, "velocity": 122}, {"time": 2948, "pitch": 63, "duration": 1, "velocity": 72}, {"time": 2948, "pitch": 66, "duration": 1, "velocity": 79}, {"time": 2951, "pitch": 47, "duration": 6, "velocity": 117}, {"time": 2951, "pitch": 59, "duration": 5, "velocity": 102}, {"time": 2951, "pitch": 63, "duration": 6, "velocity": 127}, {"time": 2951, "pitch": 66, "duration": 6, "velocity": 127}, {"time": 2957, "pitch": 59, "duration": 5, "velocity": 122}, {"time": 2957, "pitch": 63, "duration": 1, "velocity": 70}, {"time": 2957, "pitch": 66, "duration": 1, "velocity": 66}, {"time": 2960, "pitch": 63, "duration": 1, "velocity": 88}, {"time": 2963, "pitch": 40, "duration": 22, "velocity": 100}, {"time": 2963, "pitch": 59, "duration": 7, "velocity": 95}, {"time": 2963, "pitch": 64, "duration": 7, "velocity": 117}, {"time": 2963, "pitch": 68, "duration": 7, "velocity": 122}, {"time": 2966, "pitch": 47, "duration": 21, "velocity": 99}, {"time": 2969, "pitch": 52, "duration": 7, "velocity": 97}, {"time": 2972, "pitch": 59, "duration": 2, "velocity": 96}, {"time": 2972, "pitch": 64, "duration": 2, "velocity": 90}, {"time": 2972, "pitch": 68, "duration": 1, "velocity": 82}, {"time": 2975, "pitch": 59, "duration": 3, "velocity": 100}, {"time": 2975, "pitch": 64, "duration": 7, "velocity": 117}, {"time": 2975, "pitch": 68, "duration": 7, "velocity": 122}, {"time": 2978, "pitch": 52, "duration": 2, "velocity": 102}, {"time": 2981, "pitch": 59, "duration": 3, "velocity": 112}, {"time": 2984, "pitch": 59, "duration": 1, "velocity": 62}, {"time": 2984, "pitch": 64, "duration": 2, "velocity": 88}, {"time": 2984, "pitch": 68, "duration": 1, "velocity": 83}, {"time": 2987, "pitch": 40, "duration": 17, "velocity": 89}, {"time": 2987, "pitch": 59, "duration": 7, "velocity": 107}, {"time": 2987, "pitch": 64, "duration": 8, "velocity": 122}, {"time": 2987, "pitch": 68, "duration": 8, "velocity": 122}, {"time": 2990, "pitch": 47, "duration": 15, "velocity": 82}, {"time": 2993, "pitch": 52, "duration": 7, "velocity": 81}, {"time": 2996, "pitch": 59, "duration": 2, "velocity": 75}, {"time": 2996, "pitch": 64, "duration": 2, "velocity": 81}, {"time": 2996, "pitch": 68, "duration": 2, "velocity": 77}, {"time": 2999, "pitch": 59, "duration": 1, "velocity": 69}, {"time": 2999, "pitch": 64, "duration": 6, "velocity": 122}, {"time": 2999, "pitch": 68, "duration": 7, "velocity": 127}, {"time": 3002, "pitch": 52, "duration": 4, "velocity": 95}, {"time": 3005, "pitch": 59, "duration": 5, "velocity": 122}, {"time": 3011, "pitch": 47, "duration": 42, "velocity": 95}, {"time": 3011, "pitch": 59, "duration": 3, "velocity": 99}, {"time": 3011, "pitch": 63, "duration": 7, "velocity": 127}, {"time": 3011, "pitch": 66, "duration": 5, "velocity": 117}, {"time": 3014, "pitch": 54, "duration": 11, "velocity": 99}, {"time": 3017, "pitch": 59, "duration": 4, "velocity": 86}, {"time": 3020, "pitch": 63, "duration": 1, "velocity": 100}, {"time": 3020, "pitch": 66, "duration": 1, "velocity": 93}, {"time": 3023, "pitch": 59, "duration": 2, "velocity": 107}, {"time": 3023, "pitch": 63, "duration": 7, "velocity": 127}, {"time": 3023, "pitch": 66, "duration": 7, "velocity": 127}, {"time": 3026, "pitch": 54, "duration": 11, "velocity": 89}, {"time": 3029, "pitch": 59, "duration": 2, "velocity": 93}, {"time": 3032, "pitch": 59, "duration": 2, "velocity": 92}, {"time": 3032, "pitch": 63, "duration": 2, "velocity": 127}, {"time": 3032, "pitch": 66, "duration": 2, "velocity": 117}, {"time": 3035, "pitch": 59, "duration": 3, "velocity": 90}, {"time": 3035, "pitch": 63, "duration": 7, "velocity": 127}, {"time": 3035, "pitch": 66, "duration": 7, "velocity": 127}, {"time": 3038, "pitch": 54, "duration": 10, "velocity": 86}, {"time": 3041, "pitch": 59, "duration": 2, "velocity": 93}, {"time": 3044, "pitch": 59, "duration": 2, "velocity": 61}, {"time": 3044, "pitch": 63, "duration": 2, "velocity": 112}, {"time": 3044, "pitch": 66, "duration": 1, "velocity": 97}, {"time": 3047, "pitch": 59, "duration": 3, "velocity": 95}, {"time": 3047, "pitch": 63, "duration": 7, "velocity": 127}, {"time": 3047, "pitch": 66, "duration": 6, "velocity": 127}, {"time": 3050, "pitch": 54, "duration": 3, "velocity": 96}, {"time": 3053, "pitch": 59, "duration": 3, "velocity": 102}, {"time": 3056, "pitch": 61, "duration": 1, "velocity": 79}, {"time": 3059, "pitch": 45, "duration": 24, "velocity": 92}, {"time": 3059, "pitch": 57, "duration": 4, "velocity": 107}, {"time": 3059, "pitch": 61, "duration": 7, "velocity": 127}, {"time": 3059, "pitch": 64, "duration": 7, "velocity": 100}, {"time": 3062, "pitch": 52, "duration": 10, "velocity": 82}, {"time": 3065, "pitch": 57, "duration": 4, "velocity": 79}, {"time": 3068, "pitch": 61, "duration": 2, "velocity": 79}, {"time": 3068, "pitch": 64, "duration": 1, "velocity": 65}, {"time": 3071, "pitch": 57, "duration": 4, "velocity": 107}, {"time": 3071, "pitch": 61, "duration": 5, "velocity": 127}, {"time": 3071, "pitch": 64, "duration": 5, "velocity": 112}, {"time": 3074, "pitch": 52, "duration": 9, "velocity": 102}, {"time": 3077, "pitch": 57, "duration": 1, "velocity": 92}, {"time": 3077, "pitch": 61, "duration": 5, "velocity": 127}, {"time": 3077, "pitch": 64, "duration": 5, "velocity": 99}, {"time": 3080, "pitch": 57, "duration": 2, "velocity": 96}, {"time": 3083, "pitch": 47, "duration": 23, "velocity": 88}, {"time": 3083, "pitch": 59, "duration": 4, "velocity": 97}, {"time": 3083, "pitch": 63, "duration": 7, "velocity": 122}, {"time": 3083, "pitch": 66, "duration": 6, "velocity": 112}, {"time": 3086, "pitch": 54, "duration": 10, "velocity": 102}, {"time": 3089, "pitch": 59, "duration": 2, "velocity": 68}, {"time": 3092, "pitch": 59, "duration": 2, "velocity": 70}, {"time": 3092, "pitch": 63, "duration": 2, "velocity": 107}, {"time": 3092, "pitch": 66, "duration": 2, "velocity": 99}, {"time": 3095, "pitch": 59, "duration": 2, "velocity": 88}, {"time": 3095, "pitch": 63, "duration": 4, "velocity": 127}, {"time": 3095, "pitch": 66, "duration": 4, "velocity": 127}, {"time": 3098, "pitch": 54, "duration": 9, "velocity": 96}, {"time": 3101, "pitch": 59, "duration": 5, "velocity": 93}, {"time": 3101, "pitch": 63, "duration": 6, "velocity": 127}, {"time": 3101, "pitch": 66, "duration": 6, "velocity": 127}, {"time": 3107, "pitch": 40, "duration": 22, "velocity": 86}, {"time": 3107, "pitch": 59, "duration": 7, "velocity": 92}, {"time": 3107, "pitch": 64, "duration": 7, "velocity": 102}, {"time": 3107, "pitch": 68, "duration": 7, "velocity": 112}, {"time": 3110, "pitch": 47, "duration": 22, "velocity": 89}, {"time": 3113, "pitch": 52, "duration": 7, "velocity": 85}, {"time": 3116, "pitch": 59, "duration": 2, "velocity": 68}, {"time": 3116, "pitch": 64, "duration": 2, "velocity": 63}, {"time": 3116, "pitch": 68, "duration": 1, "velocity": 57}, {"time": 3119, "pitch": 59, "duration": 3, "velocity": 92}, {"time": 3119, "pitch": 64, "duration": 7, "velocity": 99}, {"time": 3119, "pitch": 68, "duration": 7, "velocity": 100}, {"time": 3122, "pitch": 52, "duration": 16, "velocity": 76}, {"time": 3125, "pitch": 59, "duration": 5, "velocity": 82}, {"time": 3128, "pitch": 64, "duration": 2, "velocity": 70}, {"time": 3128, "pitch": 68, "duration": 2, "velocity": 72}, {"time": 3131, "pitch": 40, "duration": 24, "velocity": 77}, {"time": 3131, "pitch": 59, "duration": 11, "velocity": 90}, {"time": 3131, "pitch": 64, "duration": 11, "velocity": 95}, {"time": 3131, "pitch": 68, "duration": 11, "velocity": 102}, {"time": 3137, "pitch": 47, "duration": 18, "velocity": 51}, {"time": 3143, "pitch": 64, "duration": 7, "velocity": 99}, {"time": 3143, "pitch": 68, "duration": 12, "velocity": 122}, {"time": 3146, "pitch": 52, "duration": 4, "velocity": 78}, {"time": 3149, "pitch": 59, "duration": 6, "velocity": 112}, {"time": 3152, "pitch": 64, "duration": 4, "velocity": 89}, {"time": 3155, "pitch": 45, "duration": 23, "velocity": 90}, {"time": 3155, "pitch": 57, "duration": 3, "velocity": 100}, {"time": 3155, "pitch": 61, "duration": 7, "velocity": 112}, {"time": 3155, "pitch": 64, "duration": 1, "velocity": 97}, {"time": 3158, "pitch": 52, "duration": 10, "velocity": 95}, {"time": 3161, "pitch": 57, "duration": 3, "velocity": 88}, {"time": 3164, "pitch": 57, "duration": 2, "velocity": 81}, {"time": 3164, "pitch": 61, "duration": 2, "velocity": 93}, {"time": 3164, "pitch": 64, "duration": 2, "velocity": 81}, {"time": 3167, "pitch": 57, "duration": 1, "velocity": 56}, {"time": 3167, "pitch": 61, "duration": 7, "velocity": 107}, {"time": 3167, "pitch": 64, "duration": 7, "velocity": 97}, {"time": 3170, "pitch": 52, "duration": 10, "velocity": 96}, {"time": 3173, "pitch": 57, "duration": 2, "velocity": 95}, {"time": 3176, "pitch": 57, "duration": 2, "velocity": 42}, {"time": 3176, "pitch": 61, "duration": 2, "velocity": 67}, {"time": 3176, "pitch": 64, "duration": 2, "velocity": 69}, {"time": 3179, "pitch": 45, "duration": 17, "velocity": 75}, {"time": 3179, "pitch": 57, "duration": 10, "velocity": 122}, {"time": 3179, "pitch": 61, "duration": 11, "velocity": 112}, {"time": 3179, "pitch": 64, "duration": 10, "velocity": 95}, {"time": 3185, "pitch": 52, "duration": 6, "velocity": 64}, {"time": 3191, "pitch": 57, "duration": 7, "velocity": 90}, {"time": 3191, "pitch": 61, "duration": 4, "velocity": 122}, {"time": 3191, "pitch": 64, "duration": 6, "velocity": 97}, {"time": 3194, "pitch": 52, "duration": 2, "velocity": 89}, {"time": 3197, "pitch": 61, "duration": 2, "velocity": 112}, {"time": 3203, "pitch": 40, "duration": 23, "velocity": 85}, {"time": 3203, "pitch": 59, "duration": 5, "velocity": 93}, {"time": 3203, "pitch": 64, "duration": 3, "velocity": 100}, {"time": 3203, "pitch": 68, "duration": 3, "velocity": 107}, {"time": 3206, "pitch": 47, "duration": 11, "velocity": 83}, {"time": 3209, "pitch": 52, "duration": 3, "velocity": 79}, {"time": 3212, "pitch": 56, "duration": 2, "velocity": 86}, {"time": 3212, "pitch": 59, "duration": 2, "velocity": 75}, {"time": 3215, "pitch": 52, "duration": 3, "velocity": 89}, {"time": 3215, "pitch": 56, "duration": 7, "velocity": 117}, {"time": 3215, "pitch": 59, "duration": 7, "velocity": 96}, {"time": 3218, "pitch": 47, "duration": 9, "velocity": 60}, {"time": 3221, "pitch": 52, "duration": 3, "velocity": 61}, {"time": 3224, "pitch": 52, "duration": 4, "velocity": 64}, {"time": 3224, "pitch": 56, "duration": 4, "velocity": 107}, {"time": 3224, "pitch": 59, "duration": 4, "velocity": 92}, {"time": 3227, "pitch": 40, "duration": 23, "velocity": 69}, {"time": 3230, "pitch": 47, "duration": 20, "velocity": 66}, {"time": 3233, "pitch": 52, "duration": 7, "velocity": 73}, {"time": 3236, "pitch": 59, "duration": 2, "velocity": 68}, {"time": 3236, "pitch": 64, "duration": 2, "velocity": 71}, {"time": 3236, "pitch": 68, "duration": 2, "velocity": 65}, {"time": 3239, "pitch": 59, "duration": 3, "velocity": 88}, {"time": 3239, "pitch": 64, "duration": 5, "velocity": 102}, {"time": 3239, "pitch": 68, "duration": 8, "velocity": 112}, {"time": 3242, "pitch": 52, "duration": 9, "velocity": 89}, {"time": 3245, "pitch": 59, "duration": 6, "velocity": 112}, {"time": 3245, "pitch": 64, "duration": 2, "velocity": 59}, {"time": 3248, "pitch": 64, "duration": 3, "velocity": 96}, {"time": 3248, "pitch": 68, "duration": 3, "velocity": 100}, {"time": 3251, "pitch": 45, "duration": 23, "velocity": 82}, {"time": 3251, "pitch": 57, "duration": 3, "velocity": 102}, {"time": 3251, "pitch": 61, "duration": 4, "velocity": 127}, {"time": 3251, "pitch": 64, "duration": 4, "velocity": 96}, {"time": 3254, "pitch": 52, "duration": 10, "velocity": 82}, {"time": 3257, "pitch": 57, "duration": 2, "velocity": 86}, {"time": 3260, "pitch": 57, "duration": 2, "velocity": 72}, {"time": 3260, "pitch": 61, "duration": 2, "velocity": 79}, {"time": 3260, "pitch": 64, "duration": 1, "velocity": 69}, {"time": 3263, "pitch": 57, "duration": 2, "velocity": 107}, {"time": 3263, "pitch": 61, "duration": 3, "velocity": 127}, {"time": 3263, "pitch": 64, "duration": 3, "velocity": 100}, {"time": 3266, "pitch": 52, "duration": 10, "velocity": 86}, {"time": 3269, "pitch": 57, "duration": 1, "velocity": 93}, {"time": 3272, "pitch": 57, "duration": 4, "velocity": 99}, {"time": 3272, "pitch": 61, "duration": 5, "velocity": 127}, {"time": 3272, "pitch": 64, "duration": 5, "velocity": 99}, {"time": 3275, "pitch": 45, "duration": 17, "velocity": 73}, {"time": 3278, "pitch": 52, "duration": 10, "velocity": 92}, {"time": 3281, "pitch": 57, "duration": 2, "velocity": 76}, {"time": 3284, "pitch": 57, "duration": 2, "velocity": 69}, {"time": 3284, "pitch": 61, "duration": 2, "velocity": 97}, {"time": 3284, "pitch": 64, "duration": 1, "velocity": 83}, {"time": 3287, "pitch": 57, "duration": 7, "velocity": 107}, {"time": 3287, "pitch": 61, "duration": 4, "velocity": 127}, {"time": 3287, "pitch": 64, "duration": 7, "velocity": 100}, {"time": 3290, "pitch": 52, "duration": 2, "velocity": 90}, {"time": 3293, "pitch": 61, "duration": 1, "velocity": 117}, {"time": 3296, "pitch": 47, "duration": 1, "velocity": 29}, {"time": 3299, "pitch": 40, "duration": 51, "velocity": 64}, {"time": 3299, "pitch": 47, "duration": 51, "velocity": 81}, {"time": 3299, "pitch": 52, "duration": 51, "velocity": 95}, {"time": 3299, "pitch": 59, "duration": 51, "velocity": 97}, {"time": 3299, "pitch": 64, "duration": 51, "velocity": 107}, {"time": 3299, "pitch": 68, "duration": 51, "velocity": 117}], "annotations": [{"time": 35, "annotation": {"number": 64, "value": 127}, "group": "control_change"}, {"time": 82, "annotation": {"number": 64, "value": 0}, "group": "control_change"}, {"time": 83, "annotation": {"number": 64, "value": 127}, "group": "control_change"}, {"time": 130, "annotation": {"number": 64, "value": 0}, "group": "control_change"}, {"time": 131, "annotation": {"number": 64, "value": 127}, "group": "control_change"}, {"time": 177, "annotation": {"number": 64, "value": 0}, "group": "control_change"}, {"time": 179, "annotation": {"number": 64, "value": 127}, "group": "control_change"}, {"time": 225, "annotation": {"number": 64, "value": 0}, "group": "control_change"}, {"time": 228, "annotation": {"number": 64, "value": 127}, "group": "control_change"}, {"time": 274, "annotation": {"number": 64, "value": 0}, "group": "control_change"}, {"time": 275, "annotation": {"number": 64, "value": 127}, "group": "control_change"}, {"time": 321, "annotation": {"number": 64, "value": 0}, "group": "control_change"}, {"time": 323, "annotation": {"number": 64, "value": 127}, "group": "control_change"}, {"time": 370, "annotation": {"number": 64, "value": 0}, "group": "control_change"}, {"time": 371, "annotation": {"number": 64, "value": 127}, "group": "control_change"}, {"time": 417, "annotation": {"number": 64, "value": 0}, "group": "control_change"}, {"time": 419, "annotation": {"number": 64, "value": 127}, "group": "control_change"}, {"time": 441, "annotation": {"number": 64, "value": 0}, "group": "control_change"}, {"time": 443, "annotation": {"number": 64, "value": 127}, "group": "control_change"}, {"time": 466, "annotation": {"number": 64, "value": 0}, "group": "control_change"}, {"time": 468, "annotation": {"number": 64, "value": 127}, "group": "control_change"}, {"time": 489, "annotation": {"number": 64, "value": 0}, "group": "control_change"}, {"time": 491, "annotation": {"number": 64, "value": 127}, "group": "control_change"}, {"time": 513, "annotation": {"number": 64, "value": 0}, "group": "control_change"}, {"time": 515, "annotation": {"number": 64, "value": 127}, "group": "control_change"}, {"time": 537, "annotation": {"number": 64, "value": 0}, "group": "control_change"}, {"time": 539, "annotation": {"number": 64, "value": 127}, "group": "control_change"}, {"time": 561, "annotation": {"number": 64, "value": 0}, "group": "control_change"}, {"time": 563, "annotation": {"number": 64, "value": 127}, "group": "control_change"}, {"time": 609, "annotation": {"number": 64, "value": 0}, "group": "control_change"}, {"time": 611, "annotation": {"number": 64, "value": 127}, "group": "control_change"}, {"time": 657, "annotation": {"number": 64, "value": 0}, "group": "control_change"}, {"time": 659, "annotation": {"number": 64, "value": 127}, "group": "control_change"}, {"time": 703, "annotation": {"number": 64, "value": 0}, "group": "control_change"}, {"time": 707, "annotation": {"number": 64, "value": 127}, "group": "control_change"}, {"time": 753, "annotation": {"number": 64, "value": 0}, "group": "control_change"}, {"time": 755, "annotation": {"number": 64, "value": 127}, "group": "control_change"}, {"time": 801, "annotation": {"number": 64, "value": 0}, "group": "control_change"}, {"time": 803, "annotation": {"number": 64, "value": 127}, "group": "control_change"}, {"time": 824, "annotation": {"number": 64, "value": 0}, "group": "control_change"}, {"time": 827, "annotation": {"number": 64, "value": 127}, "group": "control_change"}, {"time": 848, "annotation": {"number": 64, "value": 0}, "group": "control_change"}, {"time": 851, "annotation": {"number": 64, "value": 127}, "group": "control_change"}, {"time": 898, "annotation": {"number": 64, "value": 0}, "group": "control_change"}, {"time": 900, "annotation": {"number": 64, "value": 127}, "group": "control_change"}, {"time": 921, "annotation": {"number": 64, "value": 0}, "group": "control_change"}, {"time": 923, "annotation": {"number": 64, "value": 127}, "group": "control_change"}, {"time": 945, "annotation": {"number": 64, "value": 0}, "group": "control_change"}, {"time": 946, "annotation": {"number": 64, "value": 127}, "group": "control_change"}, {"time": 969, "annotation": {"number": 64, "value": 0}, "group": "control_change"}, {"time": 971, "annotation": {"number": 64, "value": 127}, "group": "control_change"}, {"time": 984, "annotation": {"number": 64, "value": 0}, "group": "control_change"}, {"time": 995, "annotation": {"number": 64, "value": 127}, "group": "control_change"}, {"time": 1016, "annotation": {"number": 64, "value": 0}, "group": "control_change"}, {"time": 1019, "annotation": {"number": 64, "value": 127}, "group": "control_change"}, {"time": 1041, "annotation": {"number": 64, "value": 0}, "group": "control_change"}, {"time": 1043, "annotation": {"number": 64, "value": 127}, "group": "control_change"}, {"time": 1064, "annotation": {"number": 64, "value": 0}, "group": "control_change"}, {"time": 1067, "annotation": {"number": 64, "value": 127}, "group": "control_change"}, {"time": 1088, "annotation": {"number": 64, "value": 0}, "group": "control_change"}, {"time": 1091, "annotation": {"number": 64, "value": 127}, "group": "control_change"}, {"time": 1111, "annotation": {"number": 64, "value": 0}, "group": "control_change"}, {"time": 1114, "annotation": {"number": 64, "value": 127}, "group": "control_change"}, {"time": 1137, "annotation": {"number": 64, "value": 0}, "group": "control_change"}, {"time": 1139, "annotation": {"number": 64, "value": 127}, "group": "control_change"}, {"time": 1160, "annotation": {"number": 64, "value": 0}, "group": "control_change"}, {"time": 1162, "annotation": {"number": 64, "value": 127}, "group": "control_change"}, {"time": 1172, "annotation": {"number": 64, "value": 0}, "group": "control_change"}, {"time": 1175, "annotation": {"number": 64, "value": 127}, "group": "control_change"}, {"time": 1185, "annotation": {"number": 64, "value": 0}, "group": "control_change"}, {"time": 1187, "annotation": {"number": 64, "value": 127}, "group": "control_change"}, {"time": 1209, "annotation": {"number": 64, "value": 0}, "group": "control_change"}, {"time": 1211, "annotation": {"number": 64, "value": 127}, "group": "control_change"}, {"time": 1233, "annotation": {"number": 64, "value": 0}, "group": "control_change"}, {"time": 1235, "annotation": {"number": 64, "value": 127}, "group": "control_change"}, {"time": 1257, "annotation": {"number": 64, "value": 0}, "group": "control_change"}, {"time": 1259, "annotation": {"number": 64, "value": 127}, "group": "control_change"}, {"time": 1281, "annotation": {"number": 64, "value": 0}, "group": "control_change"}, {"time": 1283, "annotation": {"number": 64, "value": 127}, "group": "control_change"}, {"time": 1305, "annotation": {"number": 64, "value": 0}, "group": "control_change"}, {"time": 1307, "annotation": {"number": 64, "value": 127}, "group": "control_change"}, {"time": 1329, "annotation": {"number": 64, "value": 0}, "group": "control_change"}, {"time": 1331, "annotation": {"number": 64, "value": 127}, "group": "control_change"}, {"time": 1353, "annotation": {"number": 64, "value": 0}, "group": "control_change"}, {"time": 1354, "annotation": {"number": 64, "value": 127}, "group": "control_change"}, {"time": 1372, "annotation": {"number": 64, "value": 0}, "group": "control_change"}, {"time": 1379, "annotation": {"number": 64, "value": 127}, "group": "control_change"}, {"time": 1414, "annotation": {"number": 64, "value": 0}, "group": "control_change"}, {"time": 1427, "annotation": {"number": 64, "value": 127}, "group": "control_change"}, {"time": 1472, "annotation": {"number": 64, "value": 0}, "group": "control_change"}, {"time": 1475, "annotation": {"number": 64, "value": 127}, "group": "control_change"}, {"time": 1518, "annotation": {"number": 64, "value": 0}, "group": "control_change"}, {"time": 1523, "annotation": {"number": 64, "value": 127}, "group": "control_change"}, {"time": 1569, "annotation": {"number": 64, "value": 0}, "group": "control_change"}, {"time": 1571, "annotation": {"number": 64, "value": 127}, "group": "control_change"}, {"time": 1616, "annotation": {"number": 64, "value": 0}, "group": "control_change"}, {"time": 1619, "annotation": {"number": 64, "value": 127}, "group": "control_change"}, {"time": 1640, "annotation": {"number": 64, "value": 0}, "group": "control_change"}, {"time": 1643, "annotation": {"number": 64, "value": 127}, "group": "control_change"}, {"time": 1664, "annotation": {"number": 64, "value": 0}, "group": "control_change"}, {"time": 1668, "annotation": {"number": 64, "value": 127}, "group": "control_change"}, {"time": 1689, "annotation": {"number": 64, "value": 0}, "group": "control_change"}, {"time": 1691, "annotation": {"number": 64, "value": 127}, "group": "control_change"}, {"time": 1712, "annotation": {"number": 64, "value": 0}, "group": "control_change"}, {"time": 1715, "annotation": {"number": 64, "value": 127}, "group": "control_change"}, {"time": 1735, "annotation": {"number": 64, "value": 0}, "group": "control_change"}, {"time": 1739, "annotation": {"number": 64, "value": 127}, "group": "control_change"}, {"time": 1761, "annotation": {"number": 64, "value": 0}, "group": "control_change"}, {"time": 1764, "annotation": {"number": 64, "value": 127}, "group": "control_change"}, {"time": 1785, "annotation": {"number": 64, "value": 0}, "group": "control_change"}, {"time": 1787, "annotation": {"number": 64, "value": 127}, "group": "control_change"}, {"time": 1797, "annotation": {"number": 64, "value": 0}, "group": "control_change"}, {"time": 1799, "annotation": {"number": 64, "value": 127}, "group": "control_change"}, {"time": 1808, "annotation": {"number": 64, "value": 0}, "group": "control_change"}, {"time": 1811, "annotation": {"number": 64, "value": 127}, "group": "control_change"}, {"time": 1832, "annotation": {"number": 64, "value": 0}, "group": "control_change"}, {"time": 1835, "annotation": {"number": 64, "value": 127}, "group": "control_change"}, {"time": 1857, "annotation": {"number": 64, "value": 0}, "group": "control_change"}, {"time": 1859, "annotation": {"number": 64, "value": 127}, "group": "control_change"}, {"time": 1880, "annotation": {"number": 64, "value": 0}, "group": "control_change"}, {"time": 1883, "annotation": {"number": 64, "value": 127}, "group": "control_change"}, {"time": 1904, "annotation": {"number": 64, "value": 0}, "group": "control_change"}, {"time": 1907, "annotation": {"number": 64, "value": 127}, "group": "control_change"}, {"time": 1927, "annotation": {"number": 64, "value": 0}, "group": "control_change"}, {"time": 1930, "annotation": {"number": 64, "value": 127}, "group": "control_change"}, {"time": 1953, "annotation": {"number": 64, "value": 0}, "group": "control_change"}, {"time": 1955, "annotation": {"number": 64, "value": 127}, "group": "control_change"}, {"time": 1976, "annotation": {"number": 64, "value": 0}, "group": "control_change"}, {"time": 1978, "annotation": {"number": 64, "value": 127}, "group": "control_change"}, {"time": 1988, "annotation": {"number": 64, "value": 0}, "group": "control_change"}, {"time": 1991, "annotation": {"number": 64, "value": 127}, "group": "control_change"}, {"time": 2001, "annotation": {"number": 64, "value": 0}, "group": "control_change"}, {"time": 2003, "annotation": {"number": 64, "value": 127}, "group": "control_change"}, {"time": 2025, "annotation": {"number": 64, "value": 0}, "group": "control_change"}, {"time": 2027, "annotation": {"number": 64, "value": 127}, "group": "control_change"}, {"time": 2049, "annotation": {"number": 64, "value": 0}, "group": "control_change"}, {"time": 2051, "annotation": {"number": 64, "value": 127}, "group": "control_change"}, {"time": 2073, "annotation": {"number": 64, "value": 0}, "group": "control_change"}, {"time": 2075, "annotation": {"number": 64, "value": 127}, "group": "control_change"}, {"time": 2097, "annotation": {"number": 64, "value": 0}, "group": "control_change"}, {"time": 2099, "annotation": {"number": 64, "value": 127}, "group": "control_change"}, {"time": 2121, "annotation": {"number": 64, "value": 0}, "group": "control_change"}, {"time": 2123, "annotation": {"number": 64, "value": 127}, "group": "control_change"}, {"time": 2145, "annotation": {"number": 64, "value": 0}, "group": "control_change"}, {"time": 2147, "annotation": {"number": 64, "value": 127}, "group": "control_change"}, {"time": 2148, "annotation": {"number": 64, "value": 127}, "group": "control_change"}, {"time": 2169, "annotation": {"number": 64, "value": 0}, "group": "control_change"}, {"time": 2171, "annotation": {"number": 64, "value": 127}, "group": "control_change"}, {"time": 2182, "annotation": {"number": 64, "value": 0}, "group": "control_change"}, {"time": 2195, "annotation": {"number": 64, "value": 127}, "group": "control_change"}, {"time": 2217, "annotation": {"number": 64, "value": 0}, "group": "control_change"}, {"time": 2219, "annotation": {"number": 64, "value": 127}, "group": "control_change"}, {"time": 2240, "annotation": {"number": 64, "value": 0}, "group": "control_change"}, {"time": 2242, "annotation": {"number": 64, "value": 127}, "group": "control_change"}, {"time": 2264, "annotation": {"number": 64, "value": 0}, "group": "control_change"}, {"time": 2267, "annotation": {"number": 64, "value": 127}, "group": "control_change"}, {"time": 2289, "annotation": {"number": 64, "value": 0}, "group": "control_change"}, {"time": 2291, "annotation": {"number": 64, "value": 127}, "group": "control_change"}, {"time": 2313, "annotation": {"number": 64, "value": 0}, "group": "control_change"}, {"time": 2316, "annotation": {"number": 64, "value": 127}, "group": "control_change"}, {"time": 2337, "annotation": {"number": 64, "value": 0}, "group": "control_change"}, {"time": 2339, "annotation": {"number": 64, "value": 127}, "group": "control_change"}, {"time": 2341, "annotation": {"number": 64, "value": 0}, "group": "control_change"}, {"time": 2342, "annotation": {"number": 64, "value": 127}, "group": "control_change"}, {"time": 2374, "annotation": {"number": 64, "value": 0}, "group": "control_change"}, {"time": 2387, "annotation": {"number": 64, "value": 127}, "group": "control_change"}, {"time": 2409, "annotation": {"number": 64, "value": 0}, "group": "control_change"}, {"time": 2411, "annotation": {"number": 64, "value": 127}, "group": "control_change"}, {"time": 2433, "annotation": {"number": 64, "value": 0}, "group": "control_change"}, {"time": 2434, "annotation": {"number": 64, "value": 127}, "group": "control_change"}, {"time": 2458, "annotation": {"number": 64, "value": 0}, "group": "control_change"}, {"time": 2459, "annotation": {"number": 64, "value": 127}, "group": "control_change"}, {"time": 2482, "annotation": {"number": 64, "value": 0}, "group": "control_change"}, {"time": 2483, "annotation": {"number": 64, "value": 127}, "group": "control_change"}, {"time": 2505, "annotation": {"number": 64, "value": 0}, "group": "control_change"}, {"time": 2507, "annotation": {"number": 64, "value": 127}, "group": "control_change"}, {"time": 2530, "annotation": {"number": 64, "value": 0}, "group": "control_change"}, {"time": 2531, "annotation": {"number": 64, "value": 127}, "group": "control_change"}, {"time": 2553, "annotation": {"number": 64, "value": 0}, "group": "control_change"}, {"time": 2555, "annotation": {"number": 64, "value": 127}, "group": "control_change"}, {"time": 2578, "annotation": {"number": 64, "value": 0}, "group": "control_change"}, {"time": 2579, "annotation": {"number": 64, "value": 127}, "group": "control_change"}, {"time": 2602, "annotation": {"number": 64, "value": 0}, "group": "control_change"}, {"time": 2603, "annotation": {"number": 64, "value": 127}, "group": "control_change"}, {"time": 2626, "annotation": {"number": 64, "value": 0}, "group": "control_change"}, {"time": 2627, "annotation": {"number": 64, "value": 127}, "group": "control_change"}, {"time": 2629, "annotation": {"number": 64, "value": 127}, "group": "control_change"}, {"time": 2637, "annotation": {"number": 64, "value": 0}, "group": "control_change"}, {"time": 2639, "annotation": {"number": 64, "value": 127}, "group": "control_change"}, {"time": 2650, "annotation": {"number": 64, "value": 0}, "group": "control_change"}, {"time": 2651, "annotation": {"number": 64, "value": 127}, "group": "control_change"}, {"time": 2661, "annotation": {"number": 64, "value": 0}, "group": "control_change"}, {"time": 2663, "annotation": {"number": 64, "value": 127}, "group": "control_change"}, {"time": 2673, "annotation": {"number": 64, "value": 0}, "group": "control_change"}, {"time": 2675, "annotation": {"number": 64, "value": 127}, "group": "control_change"}, {"time": 2697, "annotation": {"number": 64, "value": 0}, "group": "control_change"}, {"time": 2699, "annotation": {"number": 64, "value": 127}, "group": "control_change"}, {"time": 2721, "annotation": {"number": 64, "value": 0}, "group": "control_change"}, {"time": 2723, "annotation": {"number": 64, "value": 127}, "group": "control_change"}, {"time": 2745, "annotation": {"number": 64, "value": 0}, "group": "control_change"}, {"time": 2747, "annotation": {"number": 64, "value": 127}, "group": "control_change"}, {"time": 2759, "annotation": {"number": 64, "value": 0}, "group": "control_change"}, {"time": 2771, "annotation": {"number": 64, "value": 127}, "group": "control_change"}, {"time": 2793, "annotation": {"number": 64, "value": 0}, "group": "control_change"}, {"time": 2795, "annotation": {"number": 64, "value": 127}, "group": "control_change"}, {"time": 2817, "annotation": {"number": 64, "value": 0}, "group": "control_change"}, {"time": 2819, "annotation": {"number": 64, "value": 127}, "group": "control_change"}, {"time": 2841, "annotation": {"number": 64, "value": 0}, "group": "control_change"}, {"time": 2843, "annotation": {"number": 64, "value": 127}, "group": "control_change"}, {"time": 2866, "annotation": {"number": 64, "value": 0}, "group": "control_change"}, {"time": 2867, "annotation": {"number": 64, "value": 127}, "group": "control_change"}, {"time": 2889, "annotation": {"number": 64, "value": 0}, "group": "control_change"}, {"time": 2891, "annotation": {"number": 64, "value": 127}, "group": "control_change"}, {"time": 2913, "annotation": {"number": 64, "value": 0}, "group": "control_change"}, {"time": 2915, "annotation": {"number": 64, "value": 127}, "group": "control_change"}, {"time": 2937, "annotation": {"number": 64, "value": 0}, "group": "control_change"}, {"time": 2939, "annotation": {"number": 64, "value": 127}, "group": "control_change"}, {"time": 2949, "annotation": {"number": 64, "value": 0}, "group": "control_change"}, {"time": 2951, "annotation": {"number": 64, "value": 127}, "group": "control_change"}, {"time": 2961, "annotation": {"number": 64, "value": 0}, "group": "control_change"}, {"time": 2963, "annotation": {"number": 64, "value": 127}, "group": "control_change"}, {"time": 2985, "annotation": {"number": 64, "value": 0}, "group": "control_change"}, {"time": 2987, "annotation": {"number": 64, "value": 127}, "group": "control_change"}, {"time": 3010, "annotation": {"number": 64, "value": 0}, "group": "control_change"}, {"time": 3011, "annotation": {"number": 64, "value": 127}, "group": "control_change"}, {"time": 3034, "annotation": {"number": 64, "value": 0}, "group": "control_change"}, {"time": 3035, "annotation": {"number": 64, "value": 127}, "group": "control_change"}, {"time": 3057, "annotation": {"number": 64, "value": 0}, "group": "control_change"}, {"time": 3059, "annotation": {"number": 64, "value": 127}, "group": "control_change"}, {"time": 3079, "annotation": {"number": 64, "value": 0}, "group": "control_change"}, {"time": 3083, "annotation": {"number": 64, "value": 127}, "group": "control_change"}, {"time": 3103, "annotation": {"number": 64, "value": 0}, "group": "control_change"}, {"time": 3107, "annotation": {"number": 64, "value": 127}, "group": "control_change"}, {"time": 3129, "annotation": {"number": 64, "value": 0}, "group": "control_change"}, {"time": 3131, "annotation": {"number": 64, "value": 127}, "group": "control_change"}, {"time": 3152, "annotation": {"number": 64, "value": 0}, "group": "control_change"}, {"time": 3155, "annotation": {"number": 64, "value": 127}, "group": "control_change"}, {"time": 3177, "annotation": {"number": 64, "value": 0}, "group": "control_change"}, {"time": 3179, "annotation": {"number": 64, "value": 127}, "group": "control_change"}, {"time": 3201, "annotation": {"number": 64, "value": 0}, "group": "control_change"}, {"time": 3203, "annotation": {"number": 64, "value": 127}, "group": "control_change"}, {"time": 3225, "annotation": {"number": 64, "value": 0}, "group": "control_change"}, {"time": 3227, "annotation": {"number": 64, "value": 127}, "group": "control_change"}, {"time": 3249, "annotation": {"number": 64, "value": 0}, "group": "control_change"}, {"time": 3251, "annotation": {"number": 64, "value": 127}, "group": "control_change"}, {"time": 3273, "annotation": {"number": 64, "value": 0}, "group": "control_change"}, {"time": 3275, "annotation": {"number": 64, "value": 127}, "group": "control_change"}, {"time": 3298, "annotation": {"number": 64, "value": 0}, "group": "control_change"}, {"time": 3322, "annotation": {"number": 64, "value": 127}, "group": "control_change"}, {"time": 3373, "annotation": {"number": 64, "value": 0}, "group": "control_change"}, {"time": 3374, "annotation": {"number": 64, "value": 127}, "group": "control_change"}, {"time": 3376, "annotation": {"number": 64, "value": 0}, "group": "control_change"}]}]}