{"metadata": {"schema_version": "0.2", "title": "None", "source_filename": "744.mid", "source_format": "midi"}, "resolution": 12, "tempos": [{"time": 0, "qpm": 105.86995992822017}, {"time": 3708, "qpm": 100.0}, {"time": 3720, "qpm": 93.000186000372}, {"time": 3744, "qpm": 105.74997885000423}], "time_signatures": [{"time": 0, "numerator": 1, "denominator": 4}], "tracks": [{"program": 0, "is_drum": false, "name": "MELODY", "notes": [{"time": 146, "pitch": 63, "duration": 3, "velocity": 95}, {"time": 154, "pitch": 62, "duration": 3, "velocity": 63}, {"time": 158, "pitch": 63, "duration": 3, "velocity": 93}, {"time": 166, "pitch": 62, "duration": 3, "velocity": 47}, {"time": 170, "pitch": 63, "duration": 2, "velocity": 102}, {"time": 176, "pitch": 55, "duration": 4, "velocity": 68}, {"time": 182, "pitch": 63, "duration": 8, "velocity": 99}, {"time": 194, "pitch": 67, "duration": 11, "velocity": 90}, {"time": 218, "pitch": 65, "duration": 6, "velocity": 83}, {"time": 224, "pitch": 62, "duration": 27, "velocity": 75}, {"time": 290, "pitch": 62, "duration": 4, "velocity": 83}, {"time": 298, "pitch": 60, "duration": 3, "velocity": 81}, {"time": 302, "pitch": 62, "duration": 3, "velocity": 77}, {"time": 310, "pitch": 60, "duration": 4, "velocity": 82}, {"time": 314, "pitch": 62, "duration": 3, "velocity": 79}, {"time": 320, "pitch": 55, "duration": 3, "velocity": 82}, {"time": 326, "pitch": 65, "duration": 11, "velocity": 100}, {"time": 338, "pitch": 63, "duration": 18, "velocity": 97}, {"time": 362, "pitch": 62, "duration": 6, "velocity": 93}, {"time": 368, "pitch": 60, "duration": 34, "velocity": 72}, {"time": 434, "pitch": 60, "duration": 4, "velocity": 82}, {"time": 444, "pitch": 62, "duration": 5, "velocity": 67}, {"time": 446, "pitch": 63, "duration": 4, "velocity": 83}, {"time": 454, "pitch": 62, "duration": 4, "velocity": 88}, {"time": 458, "pitch": 63, "duration": 9, "velocity": 92}, {"time": 478, "pitch": 62, "duration": 3, "velocity": 73}, {"time": 482, "pitch": 63, "duration": 6, "velocity": 63}, {"time": 488, "pitch": 60, "duration": 3, "velocity": 73}, {"time": 494, "pitch": 62, "duration": 7, "velocity": 83}, {"time": 500, "pitch": 63, "duration": 6, "velocity": 57}, {"time": 506, "pitch": 67, "duration": 7, "velocity": 96}, {"time": 512, "pitch": 65, "duration": 45, "velocity": 83}, {"time": 578, "pitch": 62, "duration": 4, "velocity": 90}, {"time": 586, "pitch": 61, "duration": 5, "velocity": 82}, {"time": 590, "pitch": 62, "duration": 4, "velocity": 74}, {"time": 598, "pitch": 61, "duration": 4, "velocity": 81}, {"time": 602, "pitch": 62, "duration": 3, "velocity": 83}, {"time": 608, "pitch": 55, "duration": 3, "velocity": 78}, {"time": 614, "pitch": 65, "duration": 9, "velocity": 96}, {"time": 626, "pitch": 63, "duration": 14, "velocity": 90}, {"time": 650, "pitch": 62, "duration": 6, "velocity": 82}, {"time": 656, "pitch": 60, "duration": 41, "velocity": 66}, {"time": 722, "pitch": 60, "duration": 5, "velocity": 96}, {"time": 730, "pitch": 62, "duration": 3, "velocity": 75}, {"time": 734, "pitch": 63, "duration": 5, "velocity": 97}, {"time": 742, "pitch": 62, "duration": 3, "velocity": 83}, {"time": 746, "pitch": 63, "duration": 4, "velocity": 99}, {"time": 754, "pitch": 55, "duration": 3, "velocity": 82}, {"time": 758, "pitch": 63, "duration": 10, "velocity": 97}, {"time": 770, "pitch": 67, "duration": 14, "velocity": 107}, {"time": 794, "pitch": 65, "duration": 7, "velocity": 96}, {"time": 800, "pitch": 62, "duration": 47, "velocity": 81}, {"time": 866, "pitch": 62, "duration": 6, "velocity": 82}, {"time": 874, "pitch": 61, "duration": 3, "velocity": 88}, {"time": 878, "pitch": 62, "duration": 4, "velocity": 90}, {"time": 886, "pitch": 61, "duration": 4, "velocity": 93}, {"time": 890, "pitch": 62, "duration": 5, "velocity": 93}, {"time": 898, "pitch": 55, "duration": 3, "velocity": 89}, {"time": 902, "pitch": 65, "duration": 9, "velocity": 85}, {"time": 914, "pitch": 63, "duration": 14, "velocity": 96}, {"time": 932, "pitch": 62, "duration": 2, "velocity": 85}, {"time": 938, "pitch": 62, "duration": 6, "velocity": 92}, {"time": 944, "pitch": 60, "duration": 32, "velocity": 86}, {"time": 1010, "pitch": 60, "duration": 5, "velocity": 83}, {"time": 1018, "pitch": 62, "duration": 4, "velocity": 68}, {"time": 1022, "pitch": 63, "duration": 4, "velocity": 88}, {"time": 1030, "pitch": 62, "duration": 5, "velocity": 65}, {"time": 1034, "pitch": 63, "duration": 12, "velocity": 78}, {"time": 1054, "pitch": 62, "duration": 4, "velocity": 79}, {"time": 1058, "pitch": 63, "duration": 7, "velocity": 85}, {"time": 1064, "pitch": 60, "duration": 4, "velocity": 65}, {"time": 1070, "pitch": 62, "duration": 6, "velocity": 78}, {"time": 1076, "pitch": 63, "duration": 4, "velocity": 93}, {"time": 1082, "pitch": 67, "duration": 9, "velocity": 95}, {"time": 1094, "pitch": 65, "duration": 20, "velocity": 90}, {"time": 1154, "pitch": 62, "duration": 4, "velocity": 83}, {"time": 1162, "pitch": 61, "duration": 4, "velocity": 88}, {"time": 1166, "pitch": 62, "duration": 4, "velocity": 77}, {"time": 1174, "pitch": 61, "duration": 3, "velocity": 82}, {"time": 1178, "pitch": 62, "duration": 5, "velocity": 86}, {"time": 1186, "pitch": 55, "duration": 4, "velocity": 76}, {"time": 1190, "pitch": 65, "duration": 9, "velocity": 82}, {"time": 1202, "pitch": 63, "duration": 14, "velocity": 83}, {"time": 1226, "pitch": 62, "duration": 7, "velocity": 86}, {"time": 1232, "pitch": 60, "duration": 27, "velocity": 67}, {"time": 1298, "pitch": 63, "duration": 29, "velocity": 97}, {"time": 1334, "pitch": 60, "duration": 32, "velocity": 90}, {"time": 1370, "pitch": 62, "duration": 32, "velocity": 95}, {"time": 1406, "pitch": 58, "duration": 35, "velocity": 88}, {"time": 1442, "pitch": 63, "duration": 30, "velocity": 99}, {"time": 1478, "pitch": 60, "duration": 30, "velocity": 95}, {"time": 1514, "pitch": 62, "duration": 17, "velocity": 95}, {"time": 1532, "pitch": 62, "duration": 6, "velocity": 83}, {"time": 1538, "pitch": 58, "duration": 10, "velocity": 77}, {"time": 1550, "pitch": 55, "duration": 31, "velocity": 68}, {"time": 1586, "pitch": 63, "duration": 34, "velocity": 95}, {"time": 1622, "pitch": 60, "duration": 32, "velocity": 96}, {"time": 1658, "pitch": 62, "duration": 28, "velocity": 93}, {"time": 1688, "pitch": 58, "duration": 4, "velocity": 82}, {"time": 1694, "pitch": 58, "duration": 19, "velocity": 67}, {"time": 1730, "pitch": 63, "duration": 31, "velocity": 95}, {"time": 1761, "pitch": 60, "duration": 17, "velocity": 83}, {"time": 1784, "pitch": 62, "duration": 6, "velocity": 85}, {"time": 1795, "pitch": 63, "duration": 5, "velocity": 89}, {"time": 1802, "pitch": 62, "duration": 6, "velocity": 86}, {"time": 1810, "pitch": 67, "duration": 54, "velocity": 95}, {"time": 1946, "pitch": 67, "duration": 4, "velocity": 92}, {"time": 1954, "pitch": 72, "duration": 3, "velocity": 86}, {"time": 1958, "pitch": 72, "duration": 5, "velocity": 86}, {"time": 1966, "pitch": 70, "duration": 3, "velocity": 96}, {"time": 1970, "pitch": 70, "duration": 5, "velocity": 96}, {"time": 1978, "pitch": 65, "duration": 4, "velocity": 69}, {"time": 1982, "pitch": 67, "duration": 17, "velocity": 95}, {"time": 2018, "pitch": 67, "duration": 4, "velocity": 99}, {"time": 2026, "pitch": 72, "duration": 2, "velocity": 90}, {"time": 2030, "pitch": 72, "duration": 4, "velocity": 85}, {"time": 2038, "pitch": 70, "duration": 2, "velocity": 96}, {"time": 2042, "pitch": 70, "duration": 4, "velocity": 99}, {"time": 2050, "pitch": 65, "duration": 3, "velocity": 86}, {"time": 2054, "pitch": 67, "duration": 25, "velocity": 89}, {"time": 2086, "pitch": 55, "duration": 3, "velocity": 88}, {"time": 2090, "pitch": 68, "duration": 3, "velocity": 100}, {"time": 2098, "pitch": 68, "duration": 2, "velocity": 97}, {"time": 2102, "pitch": 68, "duration": 4, "velocity": 102}, {"time": 2108, "pitch": 67, "duration": 3, "velocity": 93}, {"time": 2114, "pitch": 65, "duration": 4, "velocity": 95}, {"time": 2120, "pitch": 63, "duration": 6, "velocity": 75}, {"time": 2126, "pitch": 62, "duration": 24, "velocity": 93}, {"time": 2150, "pitch": 60, "duration": 5, "velocity": 92}, {"time": 2156, "pitch": 62, "duration": 3, "velocity": 85}, {"time": 2162, "pitch": 63, "duration": 20, "velocity": 96}, {"time": 2185, "pitch": 65, "duration": 9, "velocity": 97}, {"time": 2198, "pitch": 67, "duration": 25, "velocity": 112}, {"time": 2234, "pitch": 67, "duration": 4, "velocity": 92}, {"time": 2242, "pitch": 72, "duration": 3, "velocity": 86}, {"time": 2246, "pitch": 72, "duration": 5, "velocity": 86}, {"time": 2254, "pitch": 70, "duration": 3, "velocity": 96}, {"time": 2258, "pitch": 70, "duration": 5, "velocity": 96}, {"time": 2266, "pitch": 65, "duration": 4, "velocity": 69}, {"time": 2270, "pitch": 67, "duration": 17, "velocity": 95}, {"time": 2306, "pitch": 67, "duration": 4, "velocity": 99}, {"time": 2314, "pitch": 72, "duration": 2, "velocity": 90}, {"time": 2318, "pitch": 72, "duration": 4, "velocity": 85}, {"time": 2326, "pitch": 70, "duration": 2, "velocity": 96}, {"time": 2330, "pitch": 70, "duration": 4, "velocity": 99}, {"time": 2338, "pitch": 65, "duration": 3, "velocity": 86}, {"time": 2342, "pitch": 67, "duration": 25, "velocity": 89}, {"time": 2374, "pitch": 55, "duration": 3, "velocity": 88}, {"time": 2378, "pitch": 68, "duration": 3, "velocity": 100}, {"time": 2386, "pitch": 68, "duration": 2, "velocity": 97}, {"time": 2390, "pitch": 68, "duration": 4, "velocity": 102}, {"time": 2396, "pitch": 67, "duration": 3, "velocity": 93}, {"time": 2402, "pitch": 65, "duration": 4, "velocity": 95}, {"time": 2408, "pitch": 63, "duration": 6, "velocity": 75}, {"time": 2414, "pitch": 62, "duration": 24, "velocity": 93}, {"time": 2438, "pitch": 60, "duration": 5, "velocity": 92}, {"time": 2444, "pitch": 62, "duration": 3, "velocity": 85}, {"time": 2450, "pitch": 63, "duration": 20, "velocity": 96}, {"time": 2473, "pitch": 65, "duration": 9, "velocity": 97}, {"time": 2486, "pitch": 62, "duration": 26, "velocity": 112}, {"time": 2558, "pitch": 63, "duration": 29, "velocity": 97}, {"time": 2594, "pitch": 60, "duration": 32, "velocity": 90}, {"time": 2630, "pitch": 62, "duration": 32, "velocity": 95}, {"time": 2666, "pitch": 58, "duration": 35, "velocity": 88}, {"time": 2702, "pitch": 63, "duration": 30, "velocity": 99}, {"time": 2738, "pitch": 60, "duration": 30, "velocity": 95}, {"time": 2774, "pitch": 62, "duration": 17, "velocity": 95}, {"time": 2792, "pitch": 62, "duration": 6, "velocity": 83}, {"time": 2798, "pitch": 58, "duration": 10, "velocity": 77}, {"time": 2810, "pitch": 55, "duration": 31, "velocity": 68}, {"time": 2846, "pitch": 63, "duration": 34, "velocity": 95}, {"time": 2882, "pitch": 60, "duration": 32, "velocity": 96}, {"time": 2918, "pitch": 62, "duration": 28, "velocity": 93}, {"time": 2948, "pitch": 58, "duration": 4, "velocity": 82}, {"time": 2954, "pitch": 58, "duration": 19, "velocity": 67}, {"time": 2990, "pitch": 63, "duration": 31, "velocity": 95}, {"time": 3021, "pitch": 60, "duration": 17, "velocity": 83}, {"time": 3044, "pitch": 62, "duration": 6, "velocity": 85}, {"time": 3055, "pitch": 63, "duration": 5, "velocity": 89}, {"time": 3061, "pitch": 65, "duration": 6, "velocity": 90}, {"time": 3070, "pitch": 67, "duration": 54, "velocity": 95}]}, {"program": 0, "is_drum": false, "name": "BRIDGE", "notes": [{"time": 962, "pitch": 48, "duration": 79, "velocity": 73}, {"time": 1082, "pitch": 55, "duration": 12, "velocity": 62}, {"time": 1094, "pitch": 53, "duration": 12, "velocity": 64}, {"time": 1106, "pitch": 56, "duration": 13, "velocity": 77}, {"time": 1118, "pitch": 55, "duration": 13, "velocity": 71}, {"time": 1130, "pitch": 53, "duration": 12, "velocity": 79}, {"time": 1142, "pitch": 48, "duration": 13, "velocity": 77}, {"time": 1154, "pitch": 50, "duration": 32, "velocity": 75}, {"time": 1238, "pitch": 48, "duration": 61, "velocity": 69}, {"time": 1286, "pitch": 43, "duration": 7, "velocity": 90}, {"time": 1298, "pitch": 36, "duration": 36, "velocity": 71}, {"time": 1430, "pitch": 43, "duration": 7, "velocity": 73}, {"time": 1442, "pitch": 36, "duration": 25, "velocity": 70}, {"time": 1526, "pitch": 46, "duration": 25, "velocity": 89}, {"time": 1550, "pitch": 43, "duration": 31, "velocity": 64}, {"time": 1889, "pitch": 55, "duration": 2, "velocity": 78}, {"time": 1890, "pitch": 56, "duration": 5, "velocity": 60}, {"time": 1892, "pitch": 55, "duration": 2, "velocity": 63}, {"time": 1895, "pitch": 55, "duration": 1, "velocity": 56}, {"time": 1896, "pitch": 56, "duration": 2, "velocity": 55}, {"time": 1898, "pitch": 55, "duration": 1, "velocity": 66}, {"time": 1900, "pitch": 56, "duration": 1, "velocity": 61}, {"time": 1901, "pitch": 55, "duration": 1, "velocity": 71}, {"time": 1903, "pitch": 56, "duration": 1, "velocity": 61}, {"time": 1904, "pitch": 55, "duration": 1, "velocity": 69}, {"time": 1906, "pitch": 56, "duration": 1, "velocity": 65}, {"time": 1907, "pitch": 55, "duration": 1, "velocity": 71}, {"time": 1909, "pitch": 56, "duration": 1, "velocity": 59}, {"time": 1910, "pitch": 55, "duration": 2, "velocity": 69}, {"time": 1912, "pitch": 56, "duration": 2, "velocity": 61}, {"time": 1913, "pitch": 55, "duration": 2, "velocity": 68}, {"time": 1915, "pitch": 56, "duration": 2, "velocity": 67}, {"time": 1917, "pitch": 55, "duration": 1, "velocity": 62}, {"time": 1918, "pitch": 56, "duration": 2, "velocity": 59}, {"time": 1920, "pitch": 55, "duration": 1, "velocity": 63}, {"time": 1922, "pitch": 56, "duration": 1, "velocity": 67}, {"time": 1923, "pitch": 55, "duration": 1, "velocity": 61}, {"time": 1925, "pitch": 56, "duration": 1, "velocity": 65}, {"time": 1926, "pitch": 55, "duration": 1, "velocity": 72}, {"time": 1928, "pitch": 56, "duration": 2, "velocity": 86}, {"time": 1930, "pitch": 56, "duration": 2, "velocity": 72}, {"time": 1932, "pitch": 55, "duration": 1, "velocity": 73}, {"time": 1947, "pitch": 63, "duration": 32, "velocity": 71}, {"time": 1982, "pitch": 62, "duration": 12, "velocity": 67}, {"time": 1995, "pitch": 63, "duration": 11, "velocity": 78}, {"time": 2006, "pitch": 65, "duration": 12, "velocity": 63}, {"time": 2018, "pitch": 67, "duration": 32, "velocity": 66}, {"time": 2090, "pitch": 65, "duration": 36, "velocity": 97}, {"time": 2126, "pitch": 62, "duration": 35, "velocity": 68}, {"time": 2162, "pitch": 63, "duration": 35, "velocity": 92}, {"time": 2198, "pitch": 62, "duration": 38, "velocity": 82}, {"time": 2234, "pitch": 67, "duration": 29, "velocity": 88}, {"time": 2270, "pitch": 67, "duration": 12, "velocity": 82}, {"time": 2282, "pitch": 74, "duration": 12, "velocity": 82}, {"time": 2294, "pitch": 70, "duration": 13, "velocity": 58}, {"time": 2306, "pitch": 72, "duration": 31, "velocity": 72}, {"time": 2342, "pitch": 67, "duration": 49, "velocity": 99}, {"time": 2390, "pitch": 62, "duration": 26, "velocity": 99}, {"time": 2414, "pitch": 60, "duration": 13, "velocity": 71}, {"time": 2426, "pitch": 59, "duration": 36, "velocity": 75}, {"time": 2462, "pitch": 60, "duration": 25, "velocity": 92}, {"time": 2486, "pitch": 62, "duration": 66, "velocity": 95}, {"time": 2558, "pitch": 75, "duration": 68, "velocity": 100}, {"time": 2630, "pitch": 74, "duration": 67, "velocity": 88}, {"time": 2702, "pitch": 72, "duration": 62, "velocity": 89}, {"time": 2795, "pitch": 58, "duration": 14, "velocity": 92}, {"time": 2810, "pitch": 55, "duration": 37, "velocity": 88}, {"time": 2846, "pitch": 75, "duration": 38, "velocity": 99}, {"time": 2882, "pitch": 72, "duration": 45, "velocity": 85}, {"time": 2918, "pitch": 74, "duration": 36, "velocity": 96}, {"time": 2954, "pitch": 70, "duration": 38, "velocity": 90}, {"time": 2990, "pitch": 75, "duration": 36, "velocity": 100}, {"time": 3026, "pitch": 72, "duration": 36, "velocity": 83}, {"time": 3071, "pitch": 74, "duration": 231, "velocity": 96}, {"time": 3134, "pitch": 79, "duration": 7, "velocity": 61}, {"time": 3140, "pitch": 84, "duration": 4, "velocity": 66}, {"time": 3146, "pitch": 84, "duration": 7, "velocity": 68}, {"time": 3152, "pitch": 82, "duration": 4, "velocity": 68}, {"time": 3159, "pitch": 82, "duration": 6, "velocity": 92}, {"time": 3165, "pitch": 77, "duration": 6, "velocity": 51}, {"time": 3170, "pitch": 79, "duration": 29, "velocity": 63}, {"time": 3207, "pitch": 79, "duration": 7, "velocity": 69}, {"time": 3213, "pitch": 84, "duration": 4, "velocity": 54}, {"time": 3219, "pitch": 84, "duration": 5, "velocity": 88}, {"time": 3224, "pitch": 82, "duration": 4, "velocity": 93}, {"time": 3230, "pitch": 82, "duration": 8, "velocity": 95}, {"time": 3236, "pitch": 77, "duration": 6, "velocity": 72}, {"time": 3242, "pitch": 79, "duration": 24, "velocity": 63}, {"time": 3280, "pitch": 79, "duration": 6, "velocity": 86}, {"time": 3285, "pitch": 80, "duration": 3, "velocity": 77}, {"time": 3291, "pitch": 80, "duration": 6, "velocity": 96}, {"time": 3296, "pitch": 79, "duration": 7, "velocity": 72}, {"time": 3302, "pitch": 77, "duration": 5, "velocity": 73}, {"time": 3308, "pitch": 74, "duration": 6, "velocity": 66}, {"time": 3314, "pitch": 75, "duration": 25, "velocity": 56}, {"time": 3338, "pitch": 72, "duration": 6, "velocity": 69}, {"time": 3343, "pitch": 74, "duration": 8, "velocity": 53}, {"time": 3350, "pitch": 75, "duration": 25, "velocity": 96}, {"time": 3375, "pitch": 77, "duration": 12, "velocity": 78}, {"time": 3386, "pitch": 79, "duration": 37, "velocity": 89}, {"time": 3423, "pitch": 79, "duration": 6, "velocity": 77}, {"time": 3429, "pitch": 84, "duration": 4, "velocity": 70}, {"time": 3435, "pitch": 84, "duration": 5, "velocity": 95}, {"time": 3440, "pitch": 82, "duration": 4, "velocity": 107}, {"time": 3446, "pitch": 82, "duration": 6, "velocity": 100}, {"time": 3452, "pitch": 77, "duration": 5, "velocity": 77}, {"time": 3457, "pitch": 79, "duration": 32, "velocity": 68}, {"time": 3495, "pitch": 79, "duration": 6, "velocity": 66}, {"time": 3500, "pitch": 84, "duration": 4, "velocity": 75}, {"time": 3506, "pitch": 84, "duration": 6, "velocity": 95}, {"time": 3512, "pitch": 82, "duration": 4, "velocity": 102}, {"time": 3518, "pitch": 82, "duration": 7, "velocity": 93}, {"time": 3524, "pitch": 77, "duration": 6, "velocity": 78}, {"time": 3530, "pitch": 79, "duration": 33, "velocity": 65}, {"time": 3567, "pitch": 79, "duration": 6, "velocity": 56}, {"time": 3572, "pitch": 80, "duration": 4, "velocity": 82}, {"time": 3579, "pitch": 80, "duration": 5, "velocity": 97}, {"time": 3585, "pitch": 79, "duration": 6, "velocity": 72}, {"time": 3591, "pitch": 77, "duration": 7, "velocity": 72}, {"time": 3597, "pitch": 75, "duration": 6, "velocity": 70}, {"time": 3603, "pitch": 74, "duration": 21, "velocity": 69}, {"time": 3627, "pitch": 72, "duration": 6, "velocity": 67}, {"time": 3633, "pitch": 74, "duration": 7, "velocity": 55}, {"time": 3640, "pitch": 75, "duration": 23, "velocity": 96}, {"time": 3664, "pitch": 77, "duration": 12, "velocity": 76}, {"time": 3676, "pitch": 74, "duration": 53, "velocity": 72}, {"time": 3734, "pitch": 75, "duration": 36, "velocity": 90}, {"time": 3771, "pitch": 74, "duration": 12, "velocity": 74}, {"time": 3782, "pitch": 75, "duration": 12, "velocity": 75}, {"time": 3794, "pitch": 77, "duration": 13, "velocity": 72}, {"time": 3806, "pitch": 79, "duration": 60, "velocity": 74}, {"time": 3879, "pitch": 77, "duration": 29, "velocity": 81}, {"time": 3915, "pitch": 74, "duration": 33, "velocity": 78}, {"time": 3951, "pitch": 75, "duration": 34, "velocity": 86}, {"time": 3986, "pitch": 74, "duration": 36, "velocity": 82}, {"time": 4023, "pitch": 67, "duration": 31, "velocity": 83}, {"time": 4059, "pitch": 67, "duration": 12, "velocity": 81}, {"time": 4070, "pitch": 74, "duration": 13, "velocity": 90}, {"time": 4082, "pitch": 70, "duration": 13, "velocity": 85}, {"time": 4094, "pitch": 67, "duration": 31, "velocity": 78}, {"time": 4125, "pitch": 65, "duration": 6, "velocity": 77}, {"time": 4131, "pitch": 67, "duration": 35, "velocity": 69}, {"time": 4168, "pitch": 62, "duration": 22, "velocity": 77}, {"time": 4190, "pitch": 60, "duration": 13, "velocity": 82}, {"time": 4203, "pitch": 59, "duration": 36, "velocity": 72}, {"time": 4239, "pitch": 60, "duration": 36, "velocity": 85}, {"time": 4274, "pitch": 62, "duration": 35, "velocity": 72}, {"time": 4346, "pitch": 79, "duration": 6, "velocity": 77}, {"time": 4352, "pitch": 84, "duration": 3, "velocity": 64}, {"time": 4357, "pitch": 84, "duration": 7, "velocity": 78}, {"time": 4362, "pitch": 82, "duration": 4, "velocity": 64}, {"time": 4368, "pitch": 82, "duration": 7, "velocity": 76}, {"time": 4375, "pitch": 77, "duration": 6, "velocity": 42}, {"time": 4381, "pitch": 79, "duration": 28, "velocity": 66}, {"time": 4418, "pitch": 79, "duration": 6, "velocity": 79}, {"time": 4424, "pitch": 84, "duration": 2, "velocity": 72}, {"time": 4429, "pitch": 84, "duration": 4, "velocity": 79}, {"time": 4434, "pitch": 82, "duration": 4, "velocity": 72}, {"time": 4440, "pitch": 82, "duration": 7, "velocity": 67}, {"time": 4447, "pitch": 77, "duration": 6, "velocity": 47}, {"time": 4453, "pitch": 79, "duration": 30, "velocity": 56}, {"time": 4490, "pitch": 79, "duration": 6, "velocity": 77}, {"time": 4495, "pitch": 80, "duration": 4, "velocity": 74}, {"time": 4501, "pitch": 80, "duration": 7, "velocity": 82}, {"time": 4507, "pitch": 79, "duration": 6, "velocity": 58}, {"time": 4513, "pitch": 77, "duration": 7, "velocity": 59}, {"time": 4519, "pitch": 75, "duration": 7, "velocity": 58}, {"time": 4526, "pitch": 74, "duration": 31, "velocity": 56}, {"time": 4550, "pitch": 72, "duration": 6, "velocity": 74}, {"time": 4556, "pitch": 74, "duration": 1, "velocity": 56}, {"time": 4562, "pitch": 75, "duration": 19, "velocity": 66}, {"time": 4586, "pitch": 77, "duration": 13, "velocity": 77}, {"time": 4599, "pitch": 74, "duration": 83, "velocity": 66}]}, {"program": 0, "is_drum": false, "name": "PIANO", "notes": [{"time": 2, "pitch": 48, "duration": 35, "velocity": 53}, {"time": 14, "pitch": 55, "duration": 25, "velocity": 27}, {"time": 14, "pitch": 60, "duration": 25, "velocity": 57}, {"time": 14, "pitch": 63, "duration": 25, "velocity": 50}, {"time": 38, "pitch": 43, "duration": 29, "velocity": 67}, {"time": 50, "pitch": 55, "duration": 25, "velocity": 46}, {"time": 50, "pitch": 60, "duration": 25, "velocity": 53}, {"time": 50, "pitch": 63, "duration": 25, "velocity": 55}, {"time": 74, "pitch": 48, "duration": 15, "velocity": 57}, {"time": 86, "pitch": 55, "duration": 28, "velocity": 41}, {"time": 86, "pitch": 60, "duration": 28, "velocity": 42}, {"time": 86, "pitch": 63, "duration": 28, "velocity": 44}, {"time": 110, "pitch": 43, "duration": 14, "velocity": 62}, {"time": 122, "pitch": 55, "duration": 26, "velocity": 50}, {"time": 122, "pitch": 60, "duration": 26, "velocity": 55}, {"time": 122, "pitch": 63, "duration": 26, "velocity": 53}, {"time": 146, "pitch": 48, "duration": 17, "velocity": 68}, {"time": 158, "pitch": 60, "duration": 26, "velocity": 67}, {"time": 158, "pitch": 63, "duration": 26, "velocity": 58}, {"time": 182, "pitch": 43, "duration": 13, "velocity": 66}, {"time": 194, "pitch": 55, "duration": 24, "velocity": 49}, {"time": 194, "pitch": 60, "duration": 24, "velocity": 56}, {"time": 194, "pitch": 63, "duration": 24, "velocity": 57}, {"time": 218, "pitch": 47, "duration": 14, "velocity": 73}, {"time": 230, "pitch": 55, "duration": 24, "velocity": 51}, {"time": 230, "pitch": 59, "duration": 24, "velocity": 58}, {"time": 230, "pitch": 62, "duration": 24, "velocity": 60}, {"time": 254, "pitch": 43, "duration": 14, "velocity": 56}, {"time": 266, "pitch": 55, "duration": 26, "velocity": 45}, {"time": 266, "pitch": 59, "duration": 27, "velocity": 57}, {"time": 266, "pitch": 62, "duration": 26, "velocity": 58}, {"time": 290, "pitch": 47, "duration": 12, "velocity": 74}, {"time": 302, "pitch": 55, "duration": 25, "velocity": 48}, {"time": 302, "pitch": 59, "duration": 25, "velocity": 59}, {"time": 302, "pitch": 62, "duration": 25, "velocity": 60}, {"time": 326, "pitch": 43, "duration": 12, "velocity": 65}, {"time": 338, "pitch": 55, "duration": 25, "velocity": 46}, {"time": 338, "pitch": 59, "duration": 25, "velocity": 58}, {"time": 338, "pitch": 62, "duration": 22, "velocity": 59}, {"time": 362, "pitch": 48, "duration": 13, "velocity": 56}, {"time": 374, "pitch": 55, "duration": 26, "velocity": 47}, {"time": 374, "pitch": 60, "duration": 27, "velocity": 53}, {"time": 374, "pitch": 63, "duration": 27, "velocity": 50}, {"time": 398, "pitch": 43, "duration": 13, "velocity": 66}, {"time": 410, "pitch": 55, "duration": 25, "velocity": 44}, {"time": 410, "pitch": 60, "duration": 25, "velocity": 62}, {"time": 410, "pitch": 63, "duration": 25, "velocity": 63}, {"time": 434, "pitch": 48, "duration": 12, "velocity": 60}, {"time": 446, "pitch": 55, "duration": 25, "velocity": 54}, {"time": 446, "pitch": 60, "duration": 25, "velocity": 56}, {"time": 446, "pitch": 63, "duration": 25, "velocity": 58}, {"time": 470, "pitch": 43, "duration": 13, "velocity": 61}, {"time": 482, "pitch": 55, "duration": 23, "velocity": 56}, {"time": 482, "pitch": 60, "duration": 23, "velocity": 60}, {"time": 482, "pitch": 63, "duration": 23, "velocity": 59}, {"time": 506, "pitch": 41, "duration": 15, "velocity": 54}, {"time": 518, "pitch": 62, "duration": 25, "velocity": 58}, {"time": 518, "pitch": 65, "duration": 25, "velocity": 60}, {"time": 518, "pitch": 68, "duration": 25, "velocity": 63}, {"time": 542, "pitch": 36, "duration": 13, "velocity": 54}, {"time": 554, "pitch": 62, "duration": 25, "velocity": 56}, {"time": 554, "pitch": 65, "duration": 24, "velocity": 59}, {"time": 554, "pitch": 68, "duration": 24, "velocity": 61}, {"time": 578, "pitch": 43, "duration": 14, "velocity": 63}, {"time": 590, "pitch": 55, "duration": 25, "velocity": 56}, {"time": 590, "pitch": 59, "duration": 25, "velocity": 61}, {"time": 590, "pitch": 62, "duration": 25, "velocity": 60}, {"time": 614, "pitch": 43, "duration": 13, "velocity": 55}, {"time": 626, "pitch": 55, "duration": 25, "velocity": 58}, {"time": 626, "pitch": 59, "duration": 25, "velocity": 62}, {"time": 626, "pitch": 62, "duration": 22, "velocity": 65}, {"time": 650, "pitch": 48, "duration": 14, "velocity": 63}, {"time": 662, "pitch": 55, "duration": 24, "velocity": 48}, {"time": 662, "pitch": 60, "duration": 24, "velocity": 63}, {"time": 662, "pitch": 63, "duration": 24, "velocity": 63}, {"time": 686, "pitch": 43, "duration": 12, "velocity": 56}, {"time": 698, "pitch": 55, "duration": 24, "velocity": 55}, {"time": 698, "pitch": 60, "duration": 24, "velocity": 53}, {"time": 698, "pitch": 63, "duration": 25, "velocity": 52}, {"time": 722, "pitch": 48, "duration": 17, "velocity": 68}, {"time": 734, "pitch": 60, "duration": 26, "velocity": 67}, {"time": 734, "pitch": 63, "duration": 26, "velocity": 58}, {"time": 758, "pitch": 43, "duration": 13, "velocity": 66}, {"time": 770, "pitch": 55, "duration": 24, "velocity": 49}, {"time": 770, "pitch": 60, "duration": 24, "velocity": 56}, {"time": 770, "pitch": 63, "duration": 24, "velocity": 57}, {"time": 794, "pitch": 47, "duration": 14, "velocity": 73}, {"time": 806, "pitch": 55, "duration": 24, "velocity": 51}, {"time": 806, "pitch": 59, "duration": 24, "velocity": 58}, {"time": 806, "pitch": 62, "duration": 24, "velocity": 60}, {"time": 830, "pitch": 43, "duration": 14, "velocity": 56}, {"time": 842, "pitch": 55, "duration": 26, "velocity": 45}, {"time": 842, "pitch": 59, "duration": 27, "velocity": 57}, {"time": 842, "pitch": 62, "duration": 26, "velocity": 58}, {"time": 866, "pitch": 47, "duration": 12, "velocity": 74}, {"time": 878, "pitch": 55, "duration": 25, "velocity": 48}, {"time": 878, "pitch": 59, "duration": 25, "velocity": 59}, {"time": 878, "pitch": 62, "duration": 25, "velocity": 60}, {"time": 902, "pitch": 43, "duration": 12, "velocity": 65}, {"time": 914, "pitch": 55, "duration": 25, "velocity": 46}, {"time": 914, "pitch": 59, "duration": 25, "velocity": 58}, {"time": 914, "pitch": 62, "duration": 22, "velocity": 59}, {"time": 938, "pitch": 48, "duration": 13, "velocity": 56}, {"time": 950, "pitch": 55, "duration": 26, "velocity": 47}, {"time": 950, "pitch": 60, "duration": 27, "velocity": 53}, {"time": 950, "pitch": 63, "duration": 27, "velocity": 50}, {"time": 974, "pitch": 43, "duration": 13, "velocity": 66}, {"time": 986, "pitch": 55, "duration": 25, "velocity": 44}, {"time": 986, "pitch": 60, "duration": 25, "velocity": 62}, {"time": 986, "pitch": 63, "duration": 25, "velocity": 63}, {"time": 1010, "pitch": 48, "duration": 12, "velocity": 60}, {"time": 1022, "pitch": 55, "duration": 25, "velocity": 54}, {"time": 1022, "pitch": 60, "duration": 25, "velocity": 56}, {"time": 1022, "pitch": 63, "duration": 25, "velocity": 58}, {"time": 1046, "pitch": 43, "duration": 13, "velocity": 61}, {"time": 1058, "pitch": 55, "duration": 23, "velocity": 56}, {"time": 1058, "pitch": 60, "duration": 23, "velocity": 60}, {"time": 1058, "pitch": 63, "duration": 23, "velocity": 59}, {"time": 1082, "pitch": 41, "duration": 15, "velocity": 54}, {"time": 1094, "pitch": 62, "duration": 25, "velocity": 58}, {"time": 1094, "pitch": 65, "duration": 25, "velocity": 60}, {"time": 1094, "pitch": 68, "duration": 25, "velocity": 63}, {"time": 1118, "pitch": 36, "duration": 13, "velocity": 54}, {"time": 1130, "pitch": 62, "duration": 25, "velocity": 56}, {"time": 1130, "pitch": 65, "duration": 24, "velocity": 59}, {"time": 1130, "pitch": 68, "duration": 24, "velocity": 61}, {"time": 1154, "pitch": 43, "duration": 14, "velocity": 63}, {"time": 1166, "pitch": 55, "duration": 25, "velocity": 56}, {"time": 1166, "pitch": 59, "duration": 25, "velocity": 61}, {"time": 1166, "pitch": 62, "duration": 25, "velocity": 60}, {"time": 1190, "pitch": 43, "duration": 13, "velocity": 55}, {"time": 1202, "pitch": 55, "duration": 25, "velocity": 58}, {"time": 1202, "pitch": 59, "duration": 25, "velocity": 62}, {"time": 1202, "pitch": 62, "duration": 22, "velocity": 65}, {"time": 1226, "pitch": 48, "duration": 12, "velocity": 63}, {"time": 1238, "pitch": 55, "duration": 10, "velocity": 53}, {"time": 1238, "pitch": 60, "duration": 10, "velocity": 56}, {"time": 1238, "pitch": 63, "duration": 11, "velocity": 54}, {"time": 1250, "pitch": 55, "duration": 12, "velocity": 55}, {"time": 1250, "pitch": 60, "duration": 12, "velocity": 58}, {"time": 1250, "pitch": 63, "duration": 13, "velocity": 55}, {"time": 1262, "pitch": 48, "duration": 24, "velocity": 55}, {"time": 1274, "pitch": 55, "duration": 10, "velocity": 59}, {"time": 1274, "pitch": 60, "duration": 11, "velocity": 61}, {"time": 1274, "pitch": 63, "duration": 11, "velocity": 59}, {"time": 1286, "pitch": 55, "duration": 13, "velocity": 66}, {"time": 1286, "pitch": 60, "duration": 13, "velocity": 70}, {"time": 1286, "pitch": 63, "duration": 13, "velocity": 72}, {"time": 1298, "pitch": 48, "duration": 31, "velocity": 88}, {"time": 1304, "pitch": 55, "duration": 9, "velocity": 72}, {"time": 1310, "pitch": 63, "duration": 29, "velocity": 97}, {"time": 1316, "pitch": 55, "duration": 8, "velocity": 61}, {"time": 1322, "pitch": 60, "duration": 16, "velocity": 71}, {"time": 1328, "pitch": 55, "duration": 9, "velocity": 59}, {"time": 1334, "pitch": 48, "duration": 15, "velocity": 74}, {"time": 1340, "pitch": 55, "duration": 10, "velocity": 60}, {"time": 1346, "pitch": 63, "duration": 25, "velocity": 95}, {"time": 1352, "pitch": 55, "duration": 8, "velocity": 72}, {"time": 1358, "pitch": 60, "duration": 12, "velocity": 66}, {"time": 1364, "pitch": 55, "duration": 8, "velocity": 56}, {"time": 1370, "pitch": 39, "duration": 34, "velocity": 63}, {"time": 1376, "pitch": 51, "duration": 31, "velocity": 59}, {"time": 1382, "pitch": 62, "duration": 34, "velocity": 83}, {"time": 1388, "pitch": 55, "duration": 8, "velocity": 69}, {"time": 1394, "pitch": 58, "duration": 21, "velocity": 53}, {"time": 1400, "pitch": 55, "duration": 12, "velocity": 42}, {"time": 1406, "pitch": 39, "duration": 32, "velocity": 56}, {"time": 1412, "pitch": 51, "duration": 26, "velocity": 78}, {"time": 1418, "pitch": 58, "duration": 31, "velocity": 76}, {"time": 1424, "pitch": 55, "duration": 8, "velocity": 60}, {"time": 1430, "pitch": 62, "duration": 11, "velocity": 69}, {"time": 1436, "pitch": 55, "duration": 9, "velocity": 56}, {"time": 1442, "pitch": 48, "duration": 34, "velocity": 70}, {"time": 1448, "pitch": 55, "duration": 9, "velocity": 73}, {"time": 1454, "pitch": 60, "duration": 10, "velocity": 88}, {"time": 1460, "pitch": 55, "duration": 10, "velocity": 69}, {"time": 1466, "pitch": 63, "duration": 23, "velocity": 86}, {"time": 1472, "pitch": 55, "duration": 10, "velocity": 59}, {"time": 1478, "pitch": 48, "duration": 19, "velocity": 74}, {"time": 1484, "pitch": 55, "duration": 8, "velocity": 59}, {"time": 1490, "pitch": 63, "duration": 21, "velocity": 69}, {"time": 1496, "pitch": 55, "duration": 8, "velocity": 61}, {"time": 1502, "pitch": 60, "duration": 12, "velocity": 52}, {"time": 1508, "pitch": 55, "duration": 14, "velocity": 59}, {"time": 1514, "pitch": 39, "duration": 31, "velocity": 52}, {"time": 1520, "pitch": 46, "duration": 25, "velocity": 36}, {"time": 1526, "pitch": 55, "duration": 14, "velocity": 66}, {"time": 1532, "pitch": 58, "duration": 10, "velocity": 45}, {"time": 1538, "pitch": 62, "duration": 14, "velocity": 86}, {"time": 1544, "pitch": 55, "duration": 7, "velocity": 63}, {"time": 1544, "pitch": 58, "duration": 3, "velocity": 26}, {"time": 1550, "pitch": 43, "duration": 26, "velocity": 66}, {"time": 1556, "pitch": 50, "duration": 17, "velocity": 69}, {"time": 1562, "pitch": 55, "duration": 15, "velocity": 67}, {"time": 1568, "pitch": 59, "duration": 21, "velocity": 69}, {"time": 1574, "pitch": 62, "duration": 11, "velocity": 82}, {"time": 1580, "pitch": 55, "duration": 8, "velocity": 59}, {"time": 1586, "pitch": 48, "duration": 32, "velocity": 74}, {"time": 1592, "pitch": 55, "duration": 10, "velocity": 59}, {"time": 1598, "pitch": 63, "duration": 26, "velocity": 89}, {"time": 1604, "pitch": 55, "duration": 8, "velocity": 73}, {"time": 1610, "pitch": 60, "duration": 14, "velocity": 57}, {"time": 1616, "pitch": 55, "duration": 8, "velocity": 57}, {"time": 1622, "pitch": 48, "duration": 15, "velocity": 71}, {"time": 1628, "pitch": 55, "duration": 8, "velocity": 55}, {"time": 1634, "pitch": 63, "duration": 22, "velocity": 92}, {"time": 1640, "pitch": 55, "duration": 8, "velocity": 63}, {"time": 1646, "pitch": 60, "duration": 12, "velocity": 58}, {"time": 1652, "pitch": 55, "duration": 11, "velocity": 55}, {"time": 1658, "pitch": 39, "duration": 34, "velocity": 59}, {"time": 1664, "pitch": 46, "duration": 30, "velocity": 69}, {"time": 1670, "pitch": 62, "duration": 39, "velocity": 77}, {"time": 1676, "pitch": 55, "duration": 8, "velocity": 73}, {"time": 1682, "pitch": 58, "duration": 32, "velocity": 55}, {"time": 1688, "pitch": 55, "duration": 15, "velocity": 48}, {"time": 1694, "pitch": 39, "duration": 31, "velocity": 63}, {"time": 1700, "pitch": 46, "duration": 22, "velocity": 64}, {"time": 1706, "pitch": 51, "duration": 15, "velocity": 47}, {"time": 1712, "pitch": 55, "duration": 21, "velocity": 66}, {"time": 1718, "pitch": 62, "duration": 14, "velocity": 78}, {"time": 1724, "pitch": 58, "duration": 11, "velocity": 59}, {"time": 1730, "pitch": 48, "duration": 29, "velocity": 67}, {"time": 1736, "pitch": 55, "duration": 9, "velocity": 58}, {"time": 1742, "pitch": 63, "duration": 23, "velocity": 82}, {"time": 1748, "pitch": 55, "duration": 8, "velocity": 63}, {"time": 1754, "pitch": 60, "duration": 9, "velocity": 65}, {"time": 1760, "pitch": 55, "duration": 5, "velocity": 73}, {"time": 1766, "pitch": 44, "duration": 10, "velocity": 90}, {"time": 1772, "pitch": 56, "duration": 6, "velocity": 73}, {"time": 1778, "pitch": 41, "duration": 10, "velocity": 59}, {"time": 1784, "pitch": 53, "duration": 6, "velocity": 69}, {"time": 1790, "pitch": 38, "duration": 11, "velocity": 75}, {"time": 1793, "pitch": 50, "duration": 7, "velocity": 58}, {"time": 1802, "pitch": 31, "duration": 12, "velocity": 71}, {"time": 1802, "pitch": 55, "duration": 11, "velocity": 59}, {"time": 1802, "pitch": 59, "duration": 11, "velocity": 59}, {"time": 1802, "pitch": 62, "duration": 11, "velocity": 61}, {"time": 1814, "pitch": 35, "duration": 11, "velocity": 57}, {"time": 1814, "pitch": 55, "duration": 6, "velocity": 31}, {"time": 1814, "pitch": 59, "duration": 11, "velocity": 63}, {"time": 1814, "pitch": 62, "duration": 11, "velocity": 67}, {"time": 1826, "pitch": 43, "duration": 11, "velocity": 67}, {"time": 1826, "pitch": 55, "duration": 10, "velocity": 55}, {"time": 1826, "pitch": 59, "duration": 10, "velocity": 59}, {"time": 1826, "pitch": 62, "duration": 10, "velocity": 66}, {"time": 1838, "pitch": 43, "duration": 48, "velocity": 53}, {"time": 1838, "pitch": 55, "duration": 49, "velocity": 67}, {"time": 1838, "pitch": 59, "duration": 49, "velocity": 68}, {"time": 1838, "pitch": 62, "duration": 50, "velocity": 73}, {"time": 1886, "pitch": 43, "duration": 60, "velocity": 56}, {"time": 1886, "pitch": 55, "duration": 1, "velocity": 38}, {"time": 1886, "pitch": 59, "duration": 1, "velocity": 39}, {"time": 1886, "pitch": 62, "duration": 2, "velocity": 43}, {"time": 1946, "pitch": 36, "duration": 21, "velocity": 69}, {"time": 1952, "pitch": 43, "duration": 15, "velocity": 36}, {"time": 1958, "pitch": 63, "duration": 24, "velocity": 100}, {"time": 1964, "pitch": 55, "duration": 8, "velocity": 69}, {"time": 1970, "pitch": 60, "duration": 13, "velocity": 79}, {"time": 1976, "pitch": 55, "duration": 9, "velocity": 59}, {"time": 1982, "pitch": 34, "duration": 25, "velocity": 66}, {"time": 1988, "pitch": 42, "duration": 16, "velocity": 38}, {"time": 1994, "pitch": 46, "duration": 13, "velocity": 49}, {"time": 1994, "pitch": 62, "duration": 22, "velocity": 79}, {"time": 2000, "pitch": 53, "duration": 8, "velocity": 76}, {"time": 2006, "pitch": 58, "duration": 10, "velocity": 96}, {"time": 2012, "pitch": 53, "duration": 6, "velocity": 65}, {"time": 2018, "pitch": 44, "duration": 17, "velocity": 83}, {"time": 2024, "pitch": 56, "duration": 9, "velocity": 64}, {"time": 2030, "pitch": 63, "duration": 25, "velocity": 99}, {"time": 2036, "pitch": 56, "duration": 7, "velocity": 74}, {"time": 2039, "pitch": 60, "duration": 11, "velocity": 63}, {"time": 2045, "pitch": 56, "duration": 7, "velocity": 55}, {"time": 2054, "pitch": 39, "duration": 26, "velocity": 69}, {"time": 2060, "pitch": 46, "duration": 17, "velocity": 64}, {"time": 2066, "pitch": 51, "duration": 10, "velocity": 81}, {"time": 2072, "pitch": 63, "duration": 19, "velocity": 99}, {"time": 2078, "pitch": 58, "duration": 13, "velocity": 82}, {"time": 2084, "pitch": 55, "duration": 7, "velocity": 72}, {"time": 2090, "pitch": 38, "duration": 22, "velocity": 63}, {"time": 2096, "pitch": 62, "duration": 14, "velocity": 71}, {"time": 2102, "pitch": 65, "duration": 8, "velocity": 63}, {"time": 2108, "pitch": 68, "duration": 18, "velocity": 117}, {"time": 2114, "pitch": 65, "duration": 12, "velocity": 74}, {"time": 2120, "pitch": 62, "duration": 6, "velocity": 77}, {"time": 2126, "pitch": 43, "duration": 22, "velocity": 74}, {"time": 2132, "pitch": 50, "duration": 15, "velocity": 67}, {"time": 2138, "pitch": 55, "duration": 11, "velocity": 69}, {"time": 2144, "pitch": 62, "duration": 19, "velocity": 85}, {"time": 2150, "pitch": 59, "duration": 12, "velocity": 66}, {"time": 2156, "pitch": 55, "duration": 7, "velocity": 58}, {"time": 2162, "pitch": 41, "duration": 30, "velocity": 66}, {"time": 2168, "pitch": 48, "duration": 30, "velocity": 63}, {"time": 2174, "pitch": 53, "duration": 9, "velocity": 65}, {"time": 2180, "pitch": 60, "duration": 19, "velocity": 79}, {"time": 2186, "pitch": 56, "duration": 12, "velocity": 75}, {"time": 2192, "pitch": 53, "duration": 6, "velocity": 67}, {"time": 2198, "pitch": 43, "duration": 28, "velocity": 64}, {"time": 2204, "pitch": 50, "duration": 20, "velocity": 56}, {"time": 2210, "pitch": 55, "duration": 10, "velocity": 74}, {"time": 2216, "pitch": 62, "duration": 16, "velocity": 107}, {"time": 2222, "pitch": 59, "duration": 10, "velocity": 99}, {"time": 2228, "pitch": 55, "duration": 8, "velocity": 88}, {"time": 2234, "pitch": 36, "duration": 23, "velocity": 88}, {"time": 2240, "pitch": 43, "duration": 14, "velocity": 73}, {"time": 2246, "pitch": 48, "duration": 15, "velocity": 93}, {"time": 2252, "pitch": 55, "duration": 9, "velocity": 89}, {"time": 2258, "pitch": 63, "duration": 11, "velocity": 102}, {"time": 2264, "pitch": 55, "duration": 6, "velocity": 86}, {"time": 2270, "pitch": 46, "duration": 23, "velocity": 93}, {"time": 2276, "pitch": 50, "duration": 16, "velocity": 55}, {"time": 2282, "pitch": 53, "duration": 9, "velocity": 63}, {"time": 2288, "pitch": 58, "duration": 7, "velocity": 77}, {"time": 2294, "pitch": 62, "duration": 13, "velocity": 86}, {"time": 2300, "pitch": 58, "duration": 7, "velocity": 75}, {"time": 2306, "pitch": 44, "duration": 26, "velocity": 73}, {"time": 2312, "pitch": 51, "duration": 18, "velocity": 76}, {"time": 2318, "pitch": 56, "duration": 12, "velocity": 85}, {"time": 2324, "pitch": 60, "duration": 7, "velocity": 86}, {"time": 2330, "pitch": 63, "duration": 12, "velocity": 99}, {"time": 2336, "pitch": 60, "duration": 6, "velocity": 77}, {"time": 2342, "pitch": 39, "duration": 24, "velocity": 75}, {"time": 2348, "pitch": 46, "duration": 15, "velocity": 48}, {"time": 2354, "pitch": 51, "duration": 9, "velocity": 82}, {"time": 2360, "pitch": 55, "duration": 17, "velocity": 76}, {"time": 2366, "pitch": 63, "duration": 11, "velocity": 100}, {"time": 2372, "pitch": 58, "duration": 6, "velocity": 67}, {"time": 2378, "pitch": 38, "duration": 24, "velocity": 71}, {"time": 2384, "pitch": 50, "duration": 10, "velocity": 76}, {"time": 2390, "pitch": 53, "duration": 8, "velocity": 72}, {"time": 2396, "pitch": 56, "duration": 17, "velocity": 99}, {"time": 2402, "pitch": 53, "duration": 11, "velocity": 78}, {"time": 2408, "pitch": 50, "duration": 5, "velocity": 66}, {"time": 2414, "pitch": 43, "duration": 34, "velocity": 67}, {"time": 2420, "pitch": 50, "duration": 18, "velocity": 55}, {"time": 2426, "pitch": 55, "duration": 9, "velocity": 67}, {"time": 2432, "pitch": 62, "duration": 16, "velocity": 90}, {"time": 2438, "pitch": 59, "duration": 10, "velocity": 82}, {"time": 2444, "pitch": 55, "duration": 5, "velocity": 69}, {"time": 2450, "pitch": 41, "duration": 31, "velocity": 77}, {"time": 2456, "pitch": 48, "duration": 31, "velocity": 55}, {"time": 2462, "pitch": 56, "duration": 8, "velocity": 66}, {"time": 2468, "pitch": 60, "duration": 19, "velocity": 79}, {"time": 2474, "pitch": 56, "duration": 12, "velocity": 83}, {"time": 2480, "pitch": 53, "duration": 6, "velocity": 65}, {"time": 2486, "pitch": 43, "duration": 30, "velocity": 72}, {"time": 2492, "pitch": 50, "duration": 24, "velocity": 52}, {"time": 2498, "pitch": 55, "duration": 15, "velocity": 66}, {"time": 2504, "pitch": 59, "duration": 7, "velocity": 73}, {"time": 2510, "pitch": 62, "duration": 45, "velocity": 73}, {"time": 2516, "pitch": 59, "duration": 39, "velocity": 69}, {"time": 2522, "pitch": 43, "duration": 33, "velocity": 57}, {"time": 2522, "pitch": 55, "duration": 32, "velocity": 72}, {"time": 2558, "pitch": 36, "duration": 33, "velocity": 76}, {"time": 2564, "pitch": 43, "duration": 31, "velocity": 44}, {"time": 2570, "pitch": 60, "duration": 16, "velocity": 79}, {"time": 2570, "pitch": 63, "duration": 28, "velocity": 85}, {"time": 2576, "pitch": 48, "duration": 5, "velocity": 42}, {"time": 2582, "pitch": 55, "duration": 15, "velocity": 79}, {"time": 2588, "pitch": 60, "duration": 10, "velocity": 64}, {"time": 2594, "pitch": 36, "duration": 23, "velocity": 60}, {"time": 2600, "pitch": 43, "duration": 18, "velocity": 43}, {"time": 2606, "pitch": 60, "duration": 15, "velocity": 70}, {"time": 2606, "pitch": 63, "duration": 23, "velocity": 36}, {"time": 2609, "pitch": 48, "duration": 10, "velocity": 59}, {"time": 2618, "pitch": 55, "duration": 15, "velocity": 77}, {"time": 2627, "pitch": 60, "duration": 3, "velocity": 24}, {"time": 2630, "pitch": 39, "duration": 34, "velocity": 81}, {"time": 2633, "pitch": 51, "duration": 9, "velocity": 65}, {"time": 2642, "pitch": 58, "duration": 15, "velocity": 72}, {"time": 2642, "pitch": 62, "duration": 34, "velocity": 79}, {"time": 2648, "pitch": 51, "duration": 20, "velocity": 59}, {"time": 2654, "pitch": 55, "duration": 25, "velocity": 60}, {"time": 2663, "pitch": 39, "duration": 1, "velocity": 56}, {"time": 2672, "pitch": 51, "duration": 9, "velocity": 79}, {"time": 2678, "pitch": 58, "duration": 29, "velocity": 71}, {"time": 2678, "pitch": 62, "duration": 24, "velocity": 69}, {"time": 2684, "pitch": 51, "duration": 4, "velocity": 66}, {"time": 2690, "pitch": 55, "duration": 32, "velocity": 68}, {"time": 2702, "pitch": 36, "duration": 34, "velocity": 70}, {"time": 2708, "pitch": 43, "duration": 30, "velocity": 45}, {"time": 2714, "pitch": 60, "duration": 8, "velocity": 72}, {"time": 2714, "pitch": 63, "duration": 34, "velocity": 82}, {"time": 2717, "pitch": 48, "duration": 8, "velocity": 69}, {"time": 2726, "pitch": 60, "duration": 23, "velocity": 68}, {"time": 2729, "pitch": 55, "duration": 22, "velocity": 55}, {"time": 2738, "pitch": 36, "duration": 22, "velocity": 62}, {"time": 2744, "pitch": 43, "duration": 16, "velocity": 50}, {"time": 2750, "pitch": 60, "duration": 27, "velocity": 70}, {"time": 2750, "pitch": 63, "duration": 25, "velocity": 83}, {"time": 2756, "pitch": 48, "duration": 8, "velocity": 58}, {"time": 2762, "pitch": 55, "duration": 26, "velocity": 70}, {"time": 2774, "pitch": 39, "duration": 30, "velocity": 72}, {"time": 2780, "pitch": 46, "duration": 23, "velocity": 50}, {"time": 2786, "pitch": 58, "duration": 15, "velocity": 69}, {"time": 2786, "pitch": 62, "duration": 25, "velocity": 63}, {"time": 2789, "pitch": 51, "duration": 12, "velocity": 52}, {"time": 2795, "pitch": 55, "duration": 13, "velocity": 57}, {"time": 2801, "pitch": 58, "duration": 7, "velocity": 59}, {"time": 2810, "pitch": 43, "duration": 27, "velocity": 69}, {"time": 2816, "pitch": 50, "duration": 19, "velocity": 71}, {"time": 2822, "pitch": 59, "duration": 8, "velocity": 86}, {"time": 2828, "pitch": 62, "duration": 20, "velocity": 99}, {"time": 2834, "pitch": 59, "duration": 18, "velocity": 72}, {"time": 2840, "pitch": 55, "duration": 21, "velocity": 69}, {"time": 2846, "pitch": 36, "duration": 32, "velocity": 81}, {"time": 2852, "pitch": 43, "duration": 30, "velocity": 57}, {"time": 2858, "pitch": 60, "duration": 14, "velocity": 71}, {"time": 2858, "pitch": 63, "duration": 35, "velocity": 81}, {"time": 2864, "pitch": 48, "duration": 7, "velocity": 70}, {"time": 2870, "pitch": 55, "duration": 26, "velocity": 78}, {"time": 2876, "pitch": 60, "duration": 27, "velocity": 60}, {"time": 2882, "pitch": 36, "duration": 23, "velocity": 69}, {"time": 2888, "pitch": 43, "duration": 17, "velocity": 62}, {"time": 2894, "pitch": 48, "duration": 13, "velocity": 65}, {"time": 2894, "pitch": 63, "duration": 11, "velocity": 64}, {"time": 2900, "pitch": 55, "duration": 9, "velocity": 65}, {"time": 2906, "pitch": 60, "duration": 15, "velocity": 65}, {"time": 2906, "pitch": 63, "duration": 11, "velocity": 69}, {"time": 2912, "pitch": 55, "duration": 21, "velocity": 53}, {"time": 2918, "pitch": 39, "duration": 33, "velocity": 63}, {"time": 2924, "pitch": 46, "duration": 30, "velocity": 40}, {"time": 2930, "pitch": 58, "duration": 15, "velocity": 68}, {"time": 2930, "pitch": 62, "duration": 34, "velocity": 71}, {"time": 2936, "pitch": 51, "duration": 21, "velocity": 48}, {"time": 2942, "pitch": 55, "duration": 27, "velocity": 66}, {"time": 2948, "pitch": 58, "duration": 16, "velocity": 62}, {"time": 2954, "pitch": 39, "duration": 30, "velocity": 49}, {"time": 2960, "pitch": 46, "duration": 23, "velocity": 33}, {"time": 2966, "pitch": 58, "duration": 15, "velocity": 61}, {"time": 2966, "pitch": 62, "duration": 23, "velocity": 62}, {"time": 2972, "pitch": 51, "duration": 12, "velocity": 59}, {"time": 2978, "pitch": 55, "duration": 11, "velocity": 76}, {"time": 2984, "pitch": 58, "duration": 5, "velocity": 56}, {"time": 2990, "pitch": 36, "duration": 20, "velocity": 66}, {"time": 2996, "pitch": 43, "duration": 9, "velocity": 52}, {"time": 3002, "pitch": 60, "duration": 15, "velocity": 66}, {"time": 3002, "pitch": 63, "duration": 15, "velocity": 69}, {"time": 3005, "pitch": 43, "duration": 5, "velocity": 60}, {"time": 3014, "pitch": 55, "duration": 8, "velocity": 85}, {"time": 3020, "pitch": 60, "duration": 6, "velocity": 58}, {"time": 3020, "pitch": 63, "duration": 5, "velocity": 49}, {"time": 3026, "pitch": 44, "duration": 12, "velocity": 102}, {"time": 3032, "pitch": 56, "duration": 6, "velocity": 70}, {"time": 3038, "pitch": 41, "duration": 11, "velocity": 72}, {"time": 3044, "pitch": 53, "duration": 7, "velocity": 62}, {"time": 3050, "pitch": 38, "duration": 9, "velocity": 78}, {"time": 3056, "pitch": 50, "duration": 5, "velocity": 69}, {"time": 3062, "pitch": 43, "duration": 34, "velocity": 76}, {"time": 3068, "pitch": 50, "duration": 28, "velocity": 47}, {"time": 3074, "pitch": 55, "duration": 9, "velocity": 79}, {"time": 3080, "pitch": 59, "duration": 8, "velocity": 63}, {"time": 3086, "pitch": 62, "duration": 11, "velocity": 83}, {"time": 3092, "pitch": 59, "duration": 6, "velocity": 66}, {"time": 3098, "pitch": 43, "duration": 37, "velocity": 66}, {"time": 3098, "pitch": 50, "duration": 36, "velocity": 63}, {"time": 3098, "pitch": 55, "duration": 36, "velocity": 79}, {"time": 3098, "pitch": 59, "duration": 36, "velocity": 77}, {"time": 3098, "pitch": 62, "duration": 36, "velocity": 75}, {"time": 3134, "pitch": 48, "duration": 26, "velocity": 58}, {"time": 3140, "pitch": 55, "duration": 18, "velocity": 53}, {"time": 3146, "pitch": 60, "duration": 27, "velocity": 68}, {"time": 3170, "pitch": 46, "duration": 21, "velocity": 33}, {"time": 3176, "pitch": 58, "duration": 13, "velocity": 39}, {"time": 3182, "pitch": 65, "duration": 26, "velocity": 63}, {"time": 3206, "pitch": 44, "duration": 27, "velocity": 53}, {"time": 3212, "pitch": 56, "duration": 13, "velocity": 50}, {"time": 3218, "pitch": 60, "duration": 23, "velocity": 52}, {"time": 3230, "pitch": 63, "duration": 12, "velocity": 40}, {"time": 3242, "pitch": 39, "duration": 23, "velocity": 56}, {"time": 3248, "pitch": 51, "duration": 15, "velocity": 50}, {"time": 3254, "pitch": 55, "duration": 25, "velocity": 54}, {"time": 3266, "pitch": 63, "duration": 12, "velocity": 51}, {"time": 3278, "pitch": 50, "duration": 32, "velocity": 63}, {"time": 3284, "pitch": 53, "duration": 16, "velocity": 37}, {"time": 3290, "pitch": 56, "duration": 14, "velocity": 51}, {"time": 3296, "pitch": 62, "duration": 19, "velocity": 60}, {"time": 3302, "pitch": 53, "duration": 12, "velocity": 50}, {"time": 3314, "pitch": 43, "duration": 27, "velocity": 61}, {"time": 3320, "pitch": 50, "duration": 19, "velocity": 56}, {"time": 3326, "pitch": 55, "duration": 26, "velocity": 48}, {"time": 3332, "pitch": 62, "duration": 19, "velocity": 54}, {"time": 3338, "pitch": 59, "duration": 12, "velocity": 36}, {"time": 3350, "pitch": 41, "duration": 31, "velocity": 55}, {"time": 3356, "pitch": 48, "duration": 25, "velocity": 55}, {"time": 3362, "pitch": 53, "duration": 26, "velocity": 45}, {"time": 3374, "pitch": 60, "duration": 13, "velocity": 59}, {"time": 3386, "pitch": 43, "duration": 26, "velocity": 52}, {"time": 3392, "pitch": 50, "duration": 18, "velocity": 59}, {"time": 3398, "pitch": 59, "duration": 24, "velocity": 52}, {"time": 3398, "pitch": 62, "duration": 24, "velocity": 48}, {"time": 3410, "pitch": 55, "duration": 11, "velocity": 51}, {"time": 3422, "pitch": 48, "duration": 18, "velocity": 64}, {"time": 3428, "pitch": 55, "duration": 12, "velocity": 56}, {"time": 3434, "pitch": 63, "duration": 24, "velocity": 99}, {"time": 3440, "pitch": 60, "duration": 7, "velocity": 63}, {"time": 3446, "pitch": 55, "duration": 14, "velocity": 56}, {"time": 3458, "pitch": 46, "duration": 17, "velocity": 63}, {"time": 3464, "pitch": 53, "duration": 31, "velocity": 40}, {"time": 3470, "pitch": 58, "duration": 8, "velocity": 63}, {"time": 3476, "pitch": 62, "duration": 20, "velocity": 67}, {"time": 3494, "pitch": 44, "duration": 24, "velocity": 45}, {"time": 3500, "pitch": 51, "duration": 15, "velocity": 27}, {"time": 3506, "pitch": 56, "duration": 9, "velocity": 37}, {"time": 3506, "pitch": 60, "duration": 23, "velocity": 55}, {"time": 3506, "pitch": 63, "duration": 24, "velocity": 48}, {"time": 3530, "pitch": 39, "duration": 21, "velocity": 45}, {"time": 3536, "pitch": 51, "duration": 9, "velocity": 37}, {"time": 3542, "pitch": 58, "duration": 25, "velocity": 56}, {"time": 3542, "pitch": 63, "duration": 24, "velocity": 53}, {"time": 3554, "pitch": 55, "duration": 13, "velocity": 37}, {"time": 3566, "pitch": 38, "duration": 18, "velocity": 50}, {"time": 3572, "pitch": 50, "duration": 8, "velocity": 33}, {"time": 3578, "pitch": 53, "duration": 24, "velocity": 44}, {"time": 3578, "pitch": 56, "duration": 24, "velocity": 51}, {"time": 3590, "pitch": 50, "duration": 11, "velocity": 45}, {"time": 3602, "pitch": 43, "duration": 28, "velocity": 55}, {"time": 3608, "pitch": 50, "duration": 22, "velocity": 51}, {"time": 3614, "pitch": 55, "duration": 26, "velocity": 45}, {"time": 3626, "pitch": 59, "duration": 11, "velocity": 40}, {"time": 3626, "pitch": 62, "duration": 11, "velocity": 49}, {"time": 3638, "pitch": 44, "duration": 24, "velocity": 38}, {"time": 3644, "pitch": 56, "duration": 12, "velocity": 36}, {"time": 3650, "pitch": 60, "duration": 24, "velocity": 58}, {"time": 3662, "pitch": 63, "duration": 11, "velocity": 36}, {"time": 3674, "pitch": 43, "duration": 51, "velocity": 59}, {"time": 3683, "pitch": 50, "duration": 45, "velocity": 47}, {"time": 3689, "pitch": 55, "duration": 46, "velocity": 40}, {"time": 3689, "pitch": 59, "duration": 45, "velocity": 39}, {"time": 3689, "pitch": 62, "duration": 46, "velocity": 38}, {"time": 3734, "pitch": 36, "duration": 20, "velocity": 56}, {"time": 3740, "pitch": 43, "duration": 13, "velocity": 34}, {"time": 3746, "pitch": 60, "duration": 24, "velocity": 58}, {"time": 3746, "pitch": 63, "duration": 22, "velocity": 59}, {"time": 3758, "pitch": 55, "duration": 13, "velocity": 46}, {"time": 3770, "pitch": 46, "duration": 15, "velocity": 47}, {"time": 3776, "pitch": 53, "duration": 9, "velocity": 42}, {"time": 3782, "pitch": 58, "duration": 23, "velocity": 49}, {"time": 3782, "pitch": 62, "duration": 23, "velocity": 62}, {"time": 3794, "pitch": 53, "duration": 12, "velocity": 44}, {"time": 3806, "pitch": 44, "duration": 19, "velocity": 52}, {"time": 3812, "pitch": 56, "duration": 8, "velocity": 48}, {"time": 3818, "pitch": 60, "duration": 10, "velocity": 52}, {"time": 3818, "pitch": 63, "duration": 10, "velocity": 52}, {"time": 3830, "pitch": 56, "duration": 4, "velocity": 35}, {"time": 3830, "pitch": 60, "duration": 12, "velocity": 67}, {"time": 3830, "pitch": 63, "duration": 14, "velocity": 49}, {"time": 3842, "pitch": 39, "duration": 25, "velocity": 39}, {"time": 3848, "pitch": 51, "duration": 16, "velocity": 52}, {"time": 3854, "pitch": 55, "duration": 25, "velocity": 66}, {"time": 3866, "pitch": 58, "duration": 12, "velocity": 58}, {"time": 3866, "pitch": 63, "duration": 11, "velocity": 56}, {"time": 3878, "pitch": 38, "duration": 16, "velocity": 58}, {"time": 3884, "pitch": 50, "duration": 8, "velocity": 42}, {"time": 3890, "pitch": 53, "duration": 22, "velocity": 65}, {"time": 3890, "pitch": 56, "duration": 23, "velocity": 65}, {"time": 3902, "pitch": 50, "duration": 11, "velocity": 60}, {"time": 3914, "pitch": 43, "duration": 23, "velocity": 66}, {"time": 3920, "pitch": 50, "duration": 12, "velocity": 51}, {"time": 3926, "pitch": 59, "duration": 24, "velocity": 59}, {"time": 3926, "pitch": 62, "duration": 24, "velocity": 59}, {"time": 3938, "pitch": 55, "duration": 14, "velocity": 47}, {"time": 3950, "pitch": 41, "duration": 20, "velocity": 58}, {"time": 3956, "pitch": 48, "duration": 12, "velocity": 43}, {"time": 3962, "pitch": 56, "duration": 23, "velocity": 67}, {"time": 3962, "pitch": 60, "duration": 24, "velocity": 71}, {"time": 3974, "pitch": 53, "duration": 12, "velocity": 56}, {"time": 3986, "pitch": 43, "duration": 23, "velocity": 72}, {"time": 3992, "pitch": 50, "duration": 13, "velocity": 67}, {"time": 3998, "pitch": 55, "duration": 14, "velocity": 83}, {"time": 4004, "pitch": 62, "duration": 19, "velocity": 107}, {"time": 4010, "pitch": 59, "duration": 15, "velocity": 85}, {"time": 4016, "pitch": 55, "duration": 9, "velocity": 65}, {"time": 4022, "pitch": 36, "duration": 24, "velocity": 58}, {"time": 4028, "pitch": 43, "duration": 18, "velocity": 42}, {"time": 4034, "pitch": 60, "duration": 24, "velocity": 83}, {"time": 4034, "pitch": 63, "duration": 22, "velocity": 95}, {"time": 4046, "pitch": 55, "duration": 13, "velocity": 69}, {"time": 4058, "pitch": 46, "duration": 25, "velocity": 83}, {"time": 4064, "pitch": 53, "duration": 8, "velocity": 63}, {"time": 4070, "pitch": 58, "duration": 24, "velocity": 64}, {"time": 4070, "pitch": 62, "duration": 24, "velocity": 82}, {"time": 4082, "pitch": 53, "duration": 13, "velocity": 67}, {"time": 4094, "pitch": 44, "duration": 22, "velocity": 72}, {"time": 4100, "pitch": 56, "duration": 8, "velocity": 74}, {"time": 4106, "pitch": 60, "duration": 24, "velocity": 59}, {"time": 4106, "pitch": 63, "duration": 26, "velocity": 53}, {"time": 4118, "pitch": 56, "duration": 14, "velocity": 53}, {"time": 4130, "pitch": 39, "duration": 26, "velocity": 76}, {"time": 4136, "pitch": 51, "duration": 15, "velocity": 56}, {"time": 4142, "pitch": 55, "duration": 25, "velocity": 75}, {"time": 4154, "pitch": 58, "duration": 12, "velocity": 55}, {"time": 4154, "pitch": 63, "duration": 11, "velocity": 72}, {"time": 4166, "pitch": 38, "duration": 23, "velocity": 65}, {"time": 4172, "pitch": 50, "duration": 9, "velocity": 40}, {"time": 4178, "pitch": 53, "duration": 22, "velocity": 67}, {"time": 4178, "pitch": 56, "duration": 22, "velocity": 83}, {"time": 4190, "pitch": 50, "duration": 10, "velocity": 63}, {"time": 4202, "pitch": 43, "duration": 25, "velocity": 65}, {"time": 4208, "pitch": 50, "duration": 13, "velocity": 40}, {"time": 4214, "pitch": 55, "duration": 24, "velocity": 66}, {"time": 4226, "pitch": 59, "duration": 12, "velocity": 59}, {"time": 4226, "pitch": 62, "duration": 12, "velocity": 66}, {"time": 4238, "pitch": 41, "duration": 31, "velocity": 64}, {"time": 4244, "pitch": 48, "duration": 26, "velocity": 59}, {"time": 4250, "pitch": 56, "duration": 23, "velocity": 60}, {"time": 4250, "pitch": 60, "duration": 23, "velocity": 59}, {"time": 4262, "pitch": 53, "duration": 11, "velocity": 61}, {"time": 4274, "pitch": 43, "duration": 37, "velocity": 59}, {"time": 4280, "pitch": 50, "duration": 30, "velocity": 53}, {"time": 4286, "pitch": 55, "duration": 24, "velocity": 58}, {"time": 4298, "pitch": 59, "duration": 12, "velocity": 34}, {"time": 4298, "pitch": 62, "duration": 12, "velocity": 55}, {"time": 4310, "pitch": 31, "duration": 36, "velocity": 37}, {"time": 4310, "pitch": 43, "duration": 1, "velocity": 37}, {"time": 4310, "pitch": 55, "duration": 1, "velocity": 36}, {"time": 4310, "pitch": 59, "duration": 38, "velocity": 36}, {"time": 4310, "pitch": 62, "duration": 38, "velocity": 40}, {"time": 4346, "pitch": 48, "duration": 17, "velocity": 45}, {"time": 4358, "pitch": 63, "duration": 25, "velocity": 51}, {"time": 4358, "pitch": 67, "duration": 25, "velocity": 43}, {"time": 4379, "pitch": 46, "duration": 16, "velocity": 40}, {"time": 4394, "pitch": 62, "duration": 26, "velocity": 37}, {"time": 4394, "pitch": 65, "duration": 25, "velocity": 37}, {"time": 4418, "pitch": 44, "duration": 26, "velocity": 35}, {"time": 4427, "pitch": 56, "duration": 8, "velocity": 33}, {"time": 4430, "pitch": 63, "duration": 22, "velocity": 48}, {"time": 4430, "pitch": 68, "duration": 22, "velocity": 39}, {"time": 4454, "pitch": 51, "duration": 28, "velocity": 50}, {"time": 4466, "pitch": 67, "duration": 23, "velocity": 49}, {"time": 4466, "pitch": 70, "duration": 23, "velocity": 54}, {"time": 4490, "pitch": 50, "duration": 18, "velocity": 41}, {"time": 4499, "pitch": 68, "duration": 25, "velocity": 41}, {"time": 4502, "pitch": 65, "duration": 24, "velocity": 43}, {"time": 4514, "pitch": 62, "duration": 12, "velocity": 30}, {"time": 4526, "pitch": 43, "duration": 14, "velocity": 42}, {"time": 4537, "pitch": 71, "duration": 24, "velocity": 41}, {"time": 4537, "pitch": 67, "duration": 23, "velocity": 47}, {"time": 4538, "pitch": 62, "duration": 3, "velocity": 30}, {"time": 4550, "pitch": 62, "duration": 12, "velocity": 38}, {"time": 4562, "pitch": 44, "duration": 19, "velocity": 49}, {"time": 4573, "pitch": 63, "duration": 24, "velocity": 44}, {"time": 4574, "pitch": 68, "duration": 22, "velocity": 43}, {"time": 4586, "pitch": 60, "duration": 12, "velocity": 35}, {"time": 4598, "pitch": 43, "duration": 53, "velocity": 43}, {"time": 4611, "pitch": 50, "duration": 38, "velocity": 40}, {"time": 4623, "pitch": 62, "duration": 42, "velocity": 30}, {"time": 4623, "pitch": 59, "duration": 42, "velocity": 34}, {"time": 4623, "pitch": 55, "duration": 42, "velocity": 30}, {"time": 4681, "pitch": 67, "duration": 52, "velocity": 56}, {"time": 4682, "pitch": 36, "duration": 54, "velocity": 48}, {"time": 4683, "pitch": 43, "duration": 49, "velocity": 45}, {"time": 4683, "pitch": 63, "duration": 50, "velocity": 48}, {"time": 4684, "pitch": 48, "duration": 49, "velocity": 46}, {"time": 4685, "pitch": 60, "duration": 48, "velocity": 78}], "annotations": [{"time": 57, "annotation": {"number": 64, "value": 127}, "group": "control_change"}, {"time": 74, "annotation": {"number": 64, "value": 0}, "group": "control_change"}, {"time": 84, "annotation": {"number": 64, "value": 127}, "group": "control_change"}, {"time": 109, "annotation": {"number": 64, "value": 0}, "group": "control_change"}, {"time": 117, "annotation": {"number": 64, "value": 127}, "group": "control_change"}, {"time": 143, "annotation": {"number": 64, "value": 0}, "group": "control_change"}, {"time": 147, "annotation": {"number": 64, "value": 127}, "group": "control_change"}, {"time": 178, "annotation": {"number": 64, "value": 0}, "group": "control_change"}, {"time": 181, "annotation": {"number": 64, "value": 127}, "group": "control_change"}, {"time": 216, "annotation": {"number": 64, "value": 0}, "group": "control_change"}, {"time": 219, "annotation": {"number": 64, "value": 127}, "group": "control_change"}, {"time": 249, "annotation": {"number": 64, "value": 0}, "group": "control_change"}, {"time": 254, "annotation": {"number": 64, "value": 127}, "group": "control_change"}, {"time": 288, "annotation": {"number": 64, "value": 0}, "group": "control_change"}, {"time": 291, "annotation": {"number": 64, "value": 127}, "group": "control_change"}, {"time": 325, "annotation": {"number": 64, "value": 0}, "group": "control_change"}, {"time": 328, "annotation": {"number": 64, "value": 127}, "group": "control_change"}, {"time": 357, "annotation": {"number": 64, "value": 0}, "group": "control_change"}, {"time": 361, "annotation": {"number": 64, "value": 127}, "group": "control_change"}, {"time": 395, "annotation": {"number": 64, "value": 0}, "group": "control_change"}, {"time": 398, "annotation": {"number": 64, "value": 127}, "group": "control_change"}, {"time": 431, "annotation": {"number": 64, "value": 0}, "group": "control_change"}, {"time": 434, "annotation": {"number": 64, "value": 127}, "group": "control_change"}, {"time": 468, "annotation": {"number": 64, "value": 0}, "group": "control_change"}, {"time": 506, "annotation": {"number": 64, "value": 127}, "group": "control_change"}, {"time": 541, "annotation": {"number": 64, "value": 0}, "group": "control_change"}, {"time": 544, "annotation": {"number": 64, "value": 127}, "group": "control_change"}, {"time": 575, "annotation": {"number": 64, "value": 0}, "group": "control_change"}, {"time": 578, "annotation": {"number": 64, "value": 127}, "group": "control_change"}, {"time": 611, "annotation": {"number": 64, "value": 0}, "group": "control_change"}, {"time": 614, "annotation": {"number": 64, "value": 127}, "group": "control_change"}, {"time": 646, "annotation": {"number": 64, "value": 0}, "group": "control_change"}, {"time": 649, "annotation": {"number": 64, "value": 127}, "group": "control_change"}, {"time": 683, "annotation": {"number": 64, "value": 0}, "group": "control_change"}, {"time": 686, "annotation": {"number": 64, "value": 127}, "group": "control_change"}, {"time": 717, "annotation": {"number": 64, "value": 0}, "group": "control_change"}, {"time": 723, "annotation": {"number": 64, "value": 127}, "group": "control_change"}, {"time": 754, "annotation": {"number": 64, "value": 0}, "group": "control_change"}, {"time": 757, "annotation": {"number": 64, "value": 127}, "group": "control_change"}, {"time": 792, "annotation": {"number": 64, "value": 0}, "group": "control_change"}, {"time": 795, "annotation": {"number": 64, "value": 127}, "group": "control_change"}, {"time": 825, "annotation": {"number": 64, "value": 0}, "group": "control_change"}, {"time": 830, "annotation": {"number": 64, "value": 127}, "group": "control_change"}, {"time": 864, "annotation": {"number": 64, "value": 0}, "group": "control_change"}, {"time": 867, "annotation": {"number": 64, "value": 127}, "group": "control_change"}, {"time": 901, "annotation": {"number": 64, "value": 0}, "group": "control_change"}, {"time": 904, "annotation": {"number": 64, "value": 127}, "group": "control_change"}, {"time": 933, "annotation": {"number": 64, "value": 0}, "group": "control_change"}, {"time": 937, "annotation": {"number": 64, "value": 127}, "group": "control_change"}, {"time": 971, "annotation": {"number": 64, "value": 0}, "group": "control_change"}, {"time": 974, "annotation": {"number": 64, "value": 127}, "group": "control_change"}, {"time": 1007, "annotation": {"number": 64, "value": 0}, "group": "control_change"}, {"time": 1010, "annotation": {"number": 64, "value": 127}, "group": "control_change"}, {"time": 1044, "annotation": {"number": 64, "value": 0}, "group": "control_change"}, {"time": 1082, "annotation": {"number": 64, "value": 127}, "group": "control_change"}, {"time": 1117, "annotation": {"number": 64, "value": 0}, "group": "control_change"}, {"time": 1120, "annotation": {"number": 64, "value": 127}, "group": "control_change"}, {"time": 1151, "annotation": {"number": 64, "value": 0}, "group": "control_change"}, {"time": 1154, "annotation": {"number": 64, "value": 127}, "group": "control_change"}, {"time": 1187, "annotation": {"number": 64, "value": 0}, "group": "control_change"}, {"time": 1190, "annotation": {"number": 64, "value": 127}, "group": "control_change"}, {"time": 1222, "annotation": {"number": 64, "value": 0}, "group": "control_change"}, {"time": 1225, "annotation": {"number": 64, "value": 127}, "group": "control_change"}, {"time": 1239, "annotation": {"number": 64, "value": 127}, "group": "control_change"}, {"time": 1256, "annotation": {"number": 64, "value": 0}, "group": "control_change"}, {"time": 1261, "annotation": {"number": 64, "value": 127}, "group": "control_change"}, {"time": 1274, "annotation": {"number": 64, "value": 0}, "group": "control_change"}, {"time": 1299, "annotation": {"number": 64, "value": 127}, "group": "control_change"}, {"time": 1331, "annotation": {"number": 64, "value": 0}, "group": "control_change"}, {"time": 1335, "annotation": {"number": 64, "value": 127}, "group": "control_change"}, {"time": 1367, "annotation": {"number": 64, "value": 0}, "group": "control_change"}, {"time": 1370, "annotation": {"number": 64, "value": 127}, "group": "control_change"}, {"time": 1402, "annotation": {"number": 64, "value": 0}, "group": "control_change"}, {"time": 1406, "annotation": {"number": 64, "value": 127}, "group": "control_change"}, {"time": 1439, "annotation": {"number": 64, "value": 0}, "group": "control_change"}, {"time": 1442, "annotation": {"number": 64, "value": 127}, "group": "control_change"}, {"time": 1476, "annotation": {"number": 64, "value": 0}, "group": "control_change"}, {"time": 1479, "annotation": {"number": 64, "value": 127}, "group": "control_change"}, {"time": 1511, "annotation": {"number": 64, "value": 0}, "group": "control_change"}, {"time": 1514, "annotation": {"number": 64, "value": 127}, "group": "control_change"}, {"time": 1547, "annotation": {"number": 64, "value": 0}, "group": "control_change"}, {"time": 1557, "annotation": {"number": 64, "value": 127}, "group": "control_change"}, {"time": 1583, "annotation": {"number": 64, "value": 0}, "group": "control_change"}, {"time": 1587, "annotation": {"number": 64, "value": 127}, "group": "control_change"}, {"time": 1619, "annotation": {"number": 64, "value": 0}, "group": "control_change"}, {"time": 1622, "annotation": {"number": 64, "value": 127}, "group": "control_change"}, {"time": 1655, "annotation": {"number": 64, "value": 0}, "group": "control_change"}, {"time": 1658, "annotation": {"number": 64, "value": 127}, "group": "control_change"}, {"time": 1690, "annotation": {"number": 64, "value": 0}, "group": "control_change"}, {"time": 1695, "annotation": {"number": 64, "value": 127}, "group": "control_change"}, {"time": 1728, "annotation": {"number": 64, "value": 0}, "group": "control_change"}, {"time": 1731, "annotation": {"number": 64, "value": 127}, "group": "control_change"}, {"time": 1764, "annotation": {"number": 64, "value": 0}, "group": "control_change"}, {"time": 1767, "annotation": {"number": 64, "value": 127}, "group": "control_change"}, {"time": 1775, "annotation": {"number": 64, "value": 0}, "group": "control_change"}, {"time": 1802, "annotation": {"number": 64, "value": 127}, "group": "control_change"}, {"time": 1811, "annotation": {"number": 64, "value": 0}, "group": "control_change"}, {"time": 1826, "annotation": {"number": 64, "value": 127}, "group": "control_change"}, {"time": 1833, "annotation": {"number": 64, "value": 0}, "group": "control_change"}, {"time": 1947, "annotation": {"number": 64, "value": 127}, "group": "control_change"}, {"time": 1979, "annotation": {"number": 64, "value": 0}, "group": "control_change"}, {"time": 1982, "annotation": {"number": 64, "value": 127}, "group": "control_change"}, {"time": 2015, "annotation": {"number": 64, "value": 0}, "group": "control_change"}, {"time": 2018, "annotation": {"number": 64, "value": 127}, "group": "control_change"}, {"time": 2050, "annotation": {"number": 64, "value": 0}, "group": "control_change"}, {"time": 2054, "annotation": {"number": 64, "value": 127}, "group": "control_change"}, {"time": 2088, "annotation": {"number": 64, "value": 0}, "group": "control_change"}, {"time": 2091, "annotation": {"number": 64, "value": 127}, "group": "control_change"}, {"time": 2123, "annotation": {"number": 64, "value": 0}, "group": "control_change"}, {"time": 2128, "annotation": {"number": 64, "value": 127}, "group": "control_change"}, {"time": 2159, "annotation": {"number": 64, "value": 0}, "group": "control_change"}, {"time": 2164, "annotation": {"number": 64, "value": 127}, "group": "control_change"}, {"time": 2194, "annotation": {"number": 64, "value": 0}, "group": "control_change"}, {"time": 2201, "annotation": {"number": 64, "value": 127}, "group": "control_change"}, {"time": 2231, "annotation": {"number": 64, "value": 0}, "group": "control_change"}, {"time": 2235, "annotation": {"number": 64, "value": 127}, "group": "control_change"}, {"time": 2267, "annotation": {"number": 64, "value": 0}, "group": "control_change"}, {"time": 2270, "annotation": {"number": 64, "value": 127}, "group": "control_change"}, {"time": 2303, "annotation": {"number": 64, "value": 0}, "group": "control_change"}, {"time": 2306, "annotation": {"number": 64, "value": 127}, "group": "control_change"}, {"time": 2339, "annotation": {"number": 64, "value": 0}, "group": "control_change"}, {"time": 2342, "annotation": {"number": 64, "value": 127}, "group": "control_change"}, {"time": 2375, "annotation": {"number": 64, "value": 0}, "group": "control_change"}, {"time": 2378, "annotation": {"number": 64, "value": 127}, "group": "control_change"}, {"time": 2410, "annotation": {"number": 64, "value": 0}, "group": "control_change"}, {"time": 2429, "annotation": {"number": 64, "value": 127}, "group": "control_change"}, {"time": 2441, "annotation": {"number": 64, "value": 0}, "group": "control_change"}, {"time": 2453, "annotation": {"number": 64, "value": 127}, "group": "control_change"}, {"time": 2484, "annotation": {"number": 64, "value": 0}, "group": "control_change"}, {"time": 2487, "annotation": {"number": 64, "value": 127}, "group": "control_change"}, {"time": 2518, "annotation": {"number": 64, "value": 0}, "group": "control_change"}, {"time": 2559, "annotation": {"number": 64, "value": 127}, "group": "control_change"}, {"time": 2591, "annotation": {"number": 64, "value": 0}, "group": "control_change"}, {"time": 2594, "annotation": {"number": 64, "value": 127}, "group": "control_change"}, {"time": 2627, "annotation": {"number": 64, "value": 0}, "group": "control_change"}, {"time": 2629, "annotation": {"number": 64, "value": 127}, "group": "control_change"}, {"time": 2662, "annotation": {"number": 64, "value": 0}, "group": "control_change"}, {"time": 2665, "annotation": {"number": 64, "value": 127}, "group": "control_change"}, {"time": 2698, "annotation": {"number": 64, "value": 0}, "group": "control_change"}, {"time": 2701, "annotation": {"number": 64, "value": 127}, "group": "control_change"}, {"time": 2734, "annotation": {"number": 64, "value": 0}, "group": "control_change"}, {"time": 2738, "annotation": {"number": 64, "value": 127}, "group": "control_change"}, {"time": 2771, "annotation": {"number": 64, "value": 0}, "group": "control_change"}, {"time": 2773, "annotation": {"number": 64, "value": 127}, "group": "control_change"}, {"time": 2806, "annotation": {"number": 64, "value": 0}, "group": "control_change"}, {"time": 2810, "annotation": {"number": 64, "value": 127}, "group": "control_change"}, {"time": 2844, "annotation": {"number": 64, "value": 0}, "group": "control_change"}, {"time": 2846, "annotation": {"number": 64, "value": 127}, "group": "control_change"}, {"time": 2878, "annotation": {"number": 64, "value": 0}, "group": "control_change"}, {"time": 2882, "annotation": {"number": 64, "value": 127}, "group": "control_change"}, {"time": 2915, "annotation": {"number": 64, "value": 0}, "group": "control_change"}, {"time": 2918, "annotation": {"number": 64, "value": 127}, "group": "control_change"}, {"time": 2950, "annotation": {"number": 64, "value": 0}, "group": "control_change"}, {"time": 2953, "annotation": {"number": 64, "value": 127}, "group": "control_change"}, {"time": 2986, "annotation": {"number": 64, "value": 0}, "group": "control_change"}, {"time": 2991, "annotation": {"number": 64, "value": 127}, "group": "control_change"}, {"time": 3024, "annotation": {"number": 64, "value": 0}, "group": "control_change"}, {"time": 3063, "annotation": {"number": 64, "value": 127}, "group": "control_change"}, {"time": 3096, "annotation": {"number": 64, "value": 0}, "group": "control_change"}, {"time": 3148, "annotation": {"number": 64, "value": 127}, "group": "control_change"}, {"time": 3166, "annotation": {"number": 64, "value": 0}, "group": "control_change"}, {"time": 3175, "annotation": {"number": 64, "value": 127}, "group": "control_change"}, {"time": 3201, "annotation": {"number": 64, "value": 0}, "group": "control_change"}, {"time": 3219, "annotation": {"number": 64, "value": 127}, "group": "control_change"}, {"time": 3237, "annotation": {"number": 64, "value": 0}, "group": "control_change"}, {"time": 3243, "annotation": {"number": 64, "value": 127}, "group": "control_change"}, {"time": 3276, "annotation": {"number": 64, "value": 0}, "group": "control_change"}, {"time": 3279, "annotation": {"number": 64, "value": 127}, "group": "control_change"}, {"time": 3310, "annotation": {"number": 64, "value": 0}, "group": "control_change"}, {"time": 3317, "annotation": {"number": 64, "value": 127}, "group": "control_change"}, {"time": 3345, "annotation": {"number": 64, "value": 0}, "group": "control_change"}, {"time": 3356, "annotation": {"number": 64, "value": 127}, "group": "control_change"}, {"time": 3381, "annotation": {"number": 64, "value": 0}, "group": "control_change"}, {"time": 3402, "annotation": {"number": 64, "value": 127}, "group": "control_change"}, {"time": 3415, "annotation": {"number": 64, "value": 0}, "group": "control_change"}, {"time": 3436, "annotation": {"number": 64, "value": 127}, "group": "control_change"}, {"time": 3450, "annotation": {"number": 64, "value": 0}, "group": "control_change"}, {"time": 3460, "annotation": {"number": 64, "value": 127}, "group": "control_change"}, {"time": 3490, "annotation": {"number": 64, "value": 0}, "group": "control_change"}, {"time": 3501, "annotation": {"number": 64, "value": 127}, "group": "control_change"}, {"time": 3526, "annotation": {"number": 64, "value": 0}, "group": "control_change"}, {"time": 3529, "annotation": {"number": 64, "value": 127}, "group": "control_change"}, {"time": 3561, "annotation": {"number": 64, "value": 0}, "group": "control_change"}, {"time": 3572, "annotation": {"number": 64, "value": 127}, "group": "control_change"}, {"time": 3596, "annotation": {"number": 64, "value": 0}, "group": "control_change"}, {"time": 3608, "annotation": {"number": 64, "value": 127}, "group": "control_change"}, {"time": 3635, "annotation": {"number": 64, "value": 0}, "group": "control_change"}, {"time": 3647, "annotation": {"number": 64, "value": 127}, "group": "control_change"}, {"time": 3668, "annotation": {"number": 64, "value": 0}, "group": "control_change"}, {"time": 3680, "annotation": {"number": 64, "value": 127}, "group": "control_change"}, {"time": 3710, "annotation": {"number": 64, "value": 0}, "group": "control_change"}, {"time": 3735, "annotation": {"number": 64, "value": 127}, "group": "control_change"}, {"time": 3765, "annotation": {"number": 64, "value": 0}, "group": "control_change"}, {"time": 3775, "annotation": {"number": 64, "value": 127}, "group": "control_change"}, {"time": 3800, "annotation": {"number": 64, "value": 0}, "group": "control_change"}, {"time": 3810, "annotation": {"number": 64, "value": 127}, "group": "control_change"}, {"time": 3838, "annotation": {"number": 64, "value": 0}, "group": "control_change"}, {"time": 3842, "annotation": {"number": 64, "value": 127}, "group": "control_change"}, {"time": 3876, "annotation": {"number": 64, "value": 0}, "group": "control_change"}, {"time": 3879, "annotation": {"number": 64, "value": 127}, "group": "control_change"}, {"time": 3907, "annotation": {"number": 64, "value": 0}, "group": "control_change"}, {"time": 3915, "annotation": {"number": 64, "value": 127}, "group": "control_change"}, {"time": 3943, "annotation": {"number": 64, "value": 0}, "group": "control_change"}, {"time": 3952, "annotation": {"number": 64, "value": 127}, "group": "control_change"}, {"time": 3977, "annotation": {"number": 64, "value": 0}, "group": "control_change"}, {"time": 3991, "annotation": {"number": 64, "value": 127}, "group": "control_change"}, {"time": 4018, "annotation": {"number": 64, "value": 0}, "group": "control_change"}, {"time": 4027, "annotation": {"number": 64, "value": 127}, "group": "control_change"}, {"time": 4052, "annotation": {"number": 64, "value": 0}, "group": "control_change"}, {"time": 4061, "annotation": {"number": 64, "value": 127}, "group": "control_change"}, {"time": 4087, "annotation": {"number": 64, "value": 0}, "group": "control_change"}, {"time": 4099, "annotation": {"number": 64, "value": 127}, "group": "control_change"}, {"time": 4121, "annotation": {"number": 64, "value": 0}, "group": "control_change"}, {"time": 4132, "annotation": {"number": 64, "value": 127}, "group": "control_change"}, {"time": 4162, "annotation": {"number": 64, "value": 0}, "group": "control_change"}, {"time": 4168, "annotation": {"number": 64, "value": 127}, "group": "control_change"}, {"time": 4196, "annotation": {"number": 64, "value": 0}, "group": "control_change"}, {"time": 4208, "annotation": {"number": 64, "value": 127}, "group": "control_change"}, {"time": 4230, "annotation": {"number": 64, "value": 0}, "group": "control_change"}, {"time": 4243, "annotation": {"number": 64, "value": 127}, "group": "control_change"}, {"time": 4262, "annotation": {"number": 64, "value": 0}, "group": "control_change"}, {"time": 4314, "annotation": {"number": 64, "value": 127}, "group": "control_change"}, {"time": 4337, "annotation": {"number": 64, "value": 0}, "group": "control_change"}, {"time": 4352, "annotation": {"number": 64, "value": 127}, "group": "control_change"}, {"time": 4379, "annotation": {"number": 64, "value": 0}, "group": "control_change"}, {"time": 4382, "annotation": {"number": 64, "value": 127}, "group": "control_change"}, {"time": 4415, "annotation": {"number": 64, "value": 0}, "group": "control_change"}, {"time": 4419, "annotation": {"number": 64, "value": 127}, "group": "control_change"}, {"time": 4450, "annotation": {"number": 64, "value": 0}, "group": "control_change"}, {"time": 4455, "annotation": {"number": 64, "value": 127}, "group": "control_change"}, {"time": 4485, "annotation": {"number": 64, "value": 0}, "group": "control_change"}, {"time": 4490, "annotation": {"number": 64, "value": 127}, "group": "control_change"}, {"time": 4522, "annotation": {"number": 64, "value": 0}, "group": "control_change"}, {"time": 4527, "annotation": {"number": 64, "value": 127}, "group": "control_change"}, {"time": 4559, "annotation": {"number": 64, "value": 0}, "group": "control_change"}, {"time": 4564, "annotation": {"number": 64, "value": 127}, "group": "control_change"}, {"time": 4594, "annotation": {"number": 64, "value": 0}, "group": "control_change"}, {"time": 4599, "annotation": {"number": 64, "value": 127}, "group": "control_change"}, {"time": 4764, "annotation": {"number": 64, "value": 0}, "group": "control_change"}, {"time": 4765, "annotation": {"number": 64, "value": 127}, "group": "control_change"}, {"time": 4769, "annotation": {"number": 64, "value": 0}, "group": "control_change"}]}]}