{"metadata": {"schema_version": "0.2", "title": "None", "source_filename": "745.mid", "source_format": "midi"}, "resolution": 12, "tempos": [{"time": 0, "qpm": 100.0}], "time_signatures": [{"time": 0, "numerator": 1, "denominator": 4}], "tracks": [{"program": 0, "is_drum": false, "name": "MELODY", "notes": [{"time": 821, "pitch": 71, "duration": 8, "velocity": 117}, {"time": 833, "pitch": 71, "duration": 9, "velocity": 117}, {"time": 845, "pitch": 71, "duration": 5, "velocity": 122}, {"time": 857, "pitch": 66, "duration": 2, "velocity": 97}, {"time": 863, "pitch": 66, "duration": 3, "velocity": 102}, {"time": 869, "pitch": 69, "duration": 6, "velocity": 99}, {"time": 875, "pitch": 71, "duration": 2, "velocity": 92}, {"time": 881, "pitch": 73, "duration": 9, "velocity": 112}, {"time": 893, "pitch": 71, "duration": 10, "velocity": 102}, {"time": 917, "pitch": 66, "duration": 4, "velocity": 112}, {"time": 923, "pitch": 71, "duration": 1, "velocity": 96}, {"time": 929, "pitch": 71, "duration": 2, "velocity": 97}, {"time": 935, "pitch": 71, "duration": 2, "velocity": 99}, {"time": 941, "pitch": 71, "duration": 3, "velocity": 122}, {"time": 947, "pitch": 66, "duration": 1, "velocity": 122}, {"time": 953, "pitch": 66, "duration": 3, "velocity": 112}, {"time": 959, "pitch": 64, "duration": 7, "velocity": 96}, {"time": 971, "pitch": 62, "duration": 30, "velocity": 93}, {"time": 1013, "pitch": 64, "duration": 8, "velocity": 95}, {"time": 1025, "pitch": 64, "duration": 8, "velocity": 93}, {"time": 1037, "pitch": 64, "duration": 11, "velocity": 90}, {"time": 1049, "pitch": 59, "duration": 7, "velocity": 86}, {"time": 1061, "pitch": 64, "duration": 12, "velocity": 97}, {"time": 1073, "pitch": 66, "duration": 12, "velocity": 96}, {"time": 1085, "pitch": 64, "duration": 19, "velocity": 92}, {"time": 1109, "pitch": 66, "duration": 8, "velocity": 102}, {"time": 1121, "pitch": 71, "duration": 8, "velocity": 96}, {"time": 1133, "pitch": 71, "duration": 9, "velocity": 93}, {"time": 1145, "pitch": 64, "duration": 12, "velocity": 96}, {"time": 1157, "pitch": 66, "duration": 31, "velocity": 96}, {"time": 1205, "pitch": 71, "duration": 8, "velocity": 117}, {"time": 1217, "pitch": 71, "duration": 9, "velocity": 117}, {"time": 1229, "pitch": 71, "duration": 5, "velocity": 122}, {"time": 1241, "pitch": 66, "duration": 12, "velocity": 97}, {"time": 1253, "pitch": 69, "duration": 6, "velocity": 99}, {"time": 1259, "pitch": 71, "duration": 2, "velocity": 92}, {"time": 1265, "pitch": 73, "duration": 9, "velocity": 112}, {"time": 1277, "pitch": 71, "duration": 10, "velocity": 102}, {"time": 1301, "pitch": 66, "duration": 4, "velocity": 112}, {"time": 1313, "pitch": 71, "duration": 2, "velocity": 97}, {"time": 1325, "pitch": 71, "duration": 3, "velocity": 122}, {"time": 1337, "pitch": 66, "duration": 3, "velocity": 112}, {"time": 1343, "pitch": 64, "duration": 7, "velocity": 96}, {"time": 1349, "pitch": 62, "duration": 36, "velocity": 93}, {"time": 1397, "pitch": 64, "duration": 8, "velocity": 95}, {"time": 1409, "pitch": 64, "duration": 8, "velocity": 93}, {"time": 1421, "pitch": 64, "duration": 11, "velocity": 90}, {"time": 1433, "pitch": 59, "duration": 7, "velocity": 86}, {"time": 1445, "pitch": 64, "duration": 12, "velocity": 97}, {"time": 1457, "pitch": 66, "duration": 12, "velocity": 96}, {"time": 1469, "pitch": 64, "duration": 19, "velocity": 92}, {"time": 1493, "pitch": 59, "duration": 6, "velocity": 90}, {"time": 1499, "pitch": 66, "duration": 3, "velocity": 99}, {"time": 1505, "pitch": 66, "duration": 2, "velocity": 93}, {"time": 1511, "pitch": 66, "duration": 2, "velocity": 100}, {"time": 1517, "pitch": 64, "duration": 4, "velocity": 90}, {"time": 1523, "pitch": 66, "duration": 2, "velocity": 96}, {"time": 1529, "pitch": 62, "duration": 5, "velocity": 89}, {"time": 1535, "pitch": 61, "duration": 6, "velocity": 72}, {"time": 1541, "pitch": 59, "duration": 23, "velocity": 81}, {"time": 1637, "pitch": 71, "duration": 7, "velocity": 102}, {"time": 1649, "pitch": 78, "duration": 7, "velocity": 122}, {"time": 1661, "pitch": 78, "duration": 7, "velocity": 117}, {"time": 1673, "pitch": 71, "duration": 7, "velocity": 102}, {"time": 1685, "pitch": 78, "duration": 8, "velocity": 127}, {"time": 1697, "pitch": 78, "duration": 5, "velocity": 127}, {"time": 1703, "pitch": 76, "duration": 5, "velocity": 95}, {"time": 1709, "pitch": 74, "duration": 11, "velocity": 96}, {"time": 1733, "pitch": 73, "duration": 2, "velocity": 127}, {"time": 1739, "pitch": 73, "duration": 1, "velocity": 107}, {"time": 1745, "pitch": 73, "duration": 4, "velocity": 127}, {"time": 1751, "pitch": 71, "duration": 3, "velocity": 107}, {"time": 1757, "pitch": 69, "duration": 4, "velocity": 107}, {"time": 1763, "pitch": 71, "duration": 4, "velocity": 99}, {"time": 1769, "pitch": 73, "duration": 11, "velocity": 117}, {"time": 1781, "pitch": 71, "duration": 23, "velocity": 127}, {"time": 1829, "pitch": 71, "duration": 6, "velocity": 112}, {"time": 1841, "pitch": 71, "duration": 5, "velocity": 117}, {"time": 1853, "pitch": 71, "duration": 6, "velocity": 122}, {"time": 1865, "pitch": 71, "duration": 3, "velocity": 127}, {"time": 1871, "pitch": 73, "duration": 3, "velocity": 127}, {"time": 1877, "pitch": 71, "duration": 5, "velocity": 117}, {"time": 1889, "pitch": 71, "duration": 5, "velocity": 112}, {"time": 1895, "pitch": 69, "duration": 3, "velocity": 100}, {"time": 1901, "pitch": 66, "duration": 13, "velocity": 102}, {"time": 1925, "pitch": 62, "duration": 2, "velocity": 99}, {"time": 1931, "pitch": 62, "duration": 2, "velocity": 97}, {"time": 1937, "pitch": 62, "duration": 2, "velocity": 96}, {"time": 1943, "pitch": 59, "duration": 3, "velocity": 89}, {"time": 1949, "pitch": 71, "duration": 7, "velocity": 100}, {"time": 1961, "pitch": 69, "duration": 6, "velocity": 127}, {"time": 1967, "pitch": 67, "duration": 5, "velocity": 90}, {"time": 1973, "pitch": 66, "duration": 26, "velocity": 89}, {"time": 2021, "pitch": 66, "duration": 8, "velocity": 107}, {"time": 2033, "pitch": 71, "duration": 19, "velocity": 100}, {"time": 2057, "pitch": 73, "duration": 11, "velocity": 107}, {"time": 2069, "pitch": 71, "duration": 9, "velocity": 95}, {"time": 2081, "pitch": 71, "duration": 5, "velocity": 107}, {"time": 2087, "pitch": 69, "duration": 5, "velocity": 89}, {"time": 2093, "pitch": 71, "duration": 8, "velocity": 95}, {"time": 2117, "pitch": 66, "duration": 8, "velocity": 117}, {"time": 2129, "pitch": 71, "duration": 9, "velocity": 107}, {"time": 2141, "pitch": 71, "duration": 7, "velocity": 107}, {"time": 2153, "pitch": 66, "duration": 6, "velocity": 122}, {"time": 2159, "pitch": 64, "duration": 5, "velocity": 83}, {"time": 2165, "pitch": 62, "duration": 18, "velocity": 93}, {"time": 2213, "pitch": 64, "duration": 5, "velocity": 100}, {"time": 2225, "pitch": 64, "duration": 16, "velocity": 97}, {"time": 2249, "pitch": 66, "duration": 10, "velocity": 117}, {"time": 2261, "pitch": 64, "duration": 8, "velocity": 95}, {"time": 2273, "pitch": 64, "duration": 5, "velocity": 92}, {"time": 2279, "pitch": 66, "duration": 5, "velocity": 90}, {"time": 2285, "pitch": 69, "duration": 10, "velocity": 102}, {"time": 2309, "pitch": 78, "duration": 8, "velocity": 117}, {"time": 2321, "pitch": 78, "duration": 7, "velocity": 117}, {"time": 2333, "pitch": 73, "duration": 8, "velocity": 112}, {"time": 2345, "pitch": 71, "duration": 6, "velocity": 107}, {"time": 2351, "pitch": 69, "duration": 6, "velocity": 86}, {"time": 2357, "pitch": 71, "duration": 27, "velocity": 93}, {"time": 3173, "pitch": 71, "duration": 8, "velocity": 117}, {"time": 3185, "pitch": 71, "duration": 9, "velocity": 117}, {"time": 3197, "pitch": 71, "duration": 5, "velocity": 122}, {"time": 3209, "pitch": 66, "duration": 2, "velocity": 97}, {"time": 3215, "pitch": 66, "duration": 3, "velocity": 102}, {"time": 3221, "pitch": 69, "duration": 6, "velocity": 99}, {"time": 3227, "pitch": 71, "duration": 2, "velocity": 92}, {"time": 3233, "pitch": 73, "duration": 9, "velocity": 112}, {"time": 3245, "pitch": 71, "duration": 10, "velocity": 102}, {"time": 3269, "pitch": 66, "duration": 4, "velocity": 112}, {"time": 3275, "pitch": 71, "duration": 1, "velocity": 96}, {"time": 3281, "pitch": 71, "duration": 2, "velocity": 97}, {"time": 3287, "pitch": 71, "duration": 2, "velocity": 99}, {"time": 3293, "pitch": 71, "duration": 3, "velocity": 122}, {"time": 3299, "pitch": 66, "duration": 1, "velocity": 122}, {"time": 3305, "pitch": 66, "duration": 3, "velocity": 112}, {"time": 3311, "pitch": 64, "duration": 7, "velocity": 96}, {"time": 3323, "pitch": 62, "duration": 30, "velocity": 93}, {"time": 3365, "pitch": 64, "duration": 8, "velocity": 95}, {"time": 3377, "pitch": 64, "duration": 8, "velocity": 93}, {"time": 3389, "pitch": 64, "duration": 11, "velocity": 90}, {"time": 3401, "pitch": 59, "duration": 7, "velocity": 86}, {"time": 3413, "pitch": 64, "duration": 12, "velocity": 97}, {"time": 3425, "pitch": 66, "duration": 12, "velocity": 96}, {"time": 3437, "pitch": 64, "duration": 19, "velocity": 92}, {"time": 3461, "pitch": 66, "duration": 8, "velocity": 102}, {"time": 3473, "pitch": 71, "duration": 8, "velocity": 96}, {"time": 3485, "pitch": 71, "duration": 9, "velocity": 93}, {"time": 3497, "pitch": 64, "duration": 12, "velocity": 96}, {"time": 3509, "pitch": 66, "duration": 31, "velocity": 96}, {"time": 3557, "pitch": 71, "duration": 8, "velocity": 117}, {"time": 3569, "pitch": 71, "duration": 9, "velocity": 117}, {"time": 3581, "pitch": 71, "duration": 5, "velocity": 122}, {"time": 3593, "pitch": 66, "duration": 12, "velocity": 97}, {"time": 3605, "pitch": 69, "duration": 6, "velocity": 99}, {"time": 3611, "pitch": 71, "duration": 2, "velocity": 92}, {"time": 3617, "pitch": 73, "duration": 9, "velocity": 112}, {"time": 3629, "pitch": 71, "duration": 10, "velocity": 102}, {"time": 3653, "pitch": 66, "duration": 4, "velocity": 112}, {"time": 3665, "pitch": 71, "duration": 2, "velocity": 97}, {"time": 3677, "pitch": 71, "duration": 3, "velocity": 122}, {"time": 3689, "pitch": 66, "duration": 3, "velocity": 112}, {"time": 3695, "pitch": 64, "duration": 7, "velocity": 96}, {"time": 3701, "pitch": 62, "duration": 36, "velocity": 93}, {"time": 3749, "pitch": 64, "duration": 8, "velocity": 95}, {"time": 3761, "pitch": 64, "duration": 8, "velocity": 93}, {"time": 3773, "pitch": 64, "duration": 11, "velocity": 90}, {"time": 3785, "pitch": 59, "duration": 7, "velocity": 86}, {"time": 3797, "pitch": 64, "duration": 12, "velocity": 97}, {"time": 3809, "pitch": 66, "duration": 12, "velocity": 96}, {"time": 3821, "pitch": 64, "duration": 19, "velocity": 92}, {"time": 3845, "pitch": 59, "duration": 6, "velocity": 90}, {"time": 3851, "pitch": 66, "duration": 3, "velocity": 99}, {"time": 3857, "pitch": 66, "duration": 2, "velocity": 93}, {"time": 3863, "pitch": 66, "duration": 2, "velocity": 100}, {"time": 3869, "pitch": 64, "duration": 4, "velocity": 90}, {"time": 3875, "pitch": 66, "duration": 2, "velocity": 96}, {"time": 3881, "pitch": 62, "duration": 5, "velocity": 89}, {"time": 3887, "pitch": 61, "duration": 6, "velocity": 72}, {"time": 3893, "pitch": 59, "duration": 23, "velocity": 81}, {"time": 3989, "pitch": 71, "duration": 7, "velocity": 102}, {"time": 4001, "pitch": 78, "duration": 7, "velocity": 122}, {"time": 4013, "pitch": 78, "duration": 7, "velocity": 117}, {"time": 4025, "pitch": 71, "duration": 7, "velocity": 102}, {"time": 4037, "pitch": 78, "duration": 8, "velocity": 127}, {"time": 4049, "pitch": 78, "duration": 5, "velocity": 127}, {"time": 4055, "pitch": 76, "duration": 5, "velocity": 95}, {"time": 4061, "pitch": 74, "duration": 11, "velocity": 96}, {"time": 4085, "pitch": 73, "duration": 2, "velocity": 127}, {"time": 4091, "pitch": 73, "duration": 1, "velocity": 107}, {"time": 4097, "pitch": 73, "duration": 4, "velocity": 127}, {"time": 4103, "pitch": 71, "duration": 3, "velocity": 107}, {"time": 4109, "pitch": 69, "duration": 4, "velocity": 107}, {"time": 4115, "pitch": 71, "duration": 4, "velocity": 99}, {"time": 4121, "pitch": 73, "duration": 11, "velocity": 117}, {"time": 4133, "pitch": 71, "duration": 23, "velocity": 127}, {"time": 4181, "pitch": 71, "duration": 6, "velocity": 112}, {"time": 4193, "pitch": 71, "duration": 5, "velocity": 117}, {"time": 4205, "pitch": 71, "duration": 6, "velocity": 122}, {"time": 4217, "pitch": 71, "duration": 3, "velocity": 127}, {"time": 4223, "pitch": 73, "duration": 3, "velocity": 127}, {"time": 4229, "pitch": 71, "duration": 5, "velocity": 117}, {"time": 4241, "pitch": 71, "duration": 5, "velocity": 112}, {"time": 4247, "pitch": 69, "duration": 3, "velocity": 100}, {"time": 4253, "pitch": 66, "duration": 13, "velocity": 102}, {"time": 4277, "pitch": 62, "duration": 2, "velocity": 99}, {"time": 4283, "pitch": 62, "duration": 2, "velocity": 97}, {"time": 4289, "pitch": 62, "duration": 2, "velocity": 96}, {"time": 4295, "pitch": 59, "duration": 3, "velocity": 89}, {"time": 4301, "pitch": 71, "duration": 7, "velocity": 100}, {"time": 4313, "pitch": 69, "duration": 6, "velocity": 127}, {"time": 4319, "pitch": 67, "duration": 5, "velocity": 90}, {"time": 4325, "pitch": 66, "duration": 26, "velocity": 89}, {"time": 4373, "pitch": 66, "duration": 8, "velocity": 107}, {"time": 4385, "pitch": 71, "duration": 19, "velocity": 100}, {"time": 4409, "pitch": 73, "duration": 11, "velocity": 107}, {"time": 4421, "pitch": 71, "duration": 9, "velocity": 95}, {"time": 4433, "pitch": 71, "duration": 5, "velocity": 107}, {"time": 4439, "pitch": 69, "duration": 5, "velocity": 89}, {"time": 4445, "pitch": 71, "duration": 8, "velocity": 95}, {"time": 4469, "pitch": 66, "duration": 8, "velocity": 117}, {"time": 4481, "pitch": 71, "duration": 9, "velocity": 107}, {"time": 4493, "pitch": 71, "duration": 7, "velocity": 107}, {"time": 4505, "pitch": 66, "duration": 6, "velocity": 122}, {"time": 4511, "pitch": 64, "duration": 5, "velocity": 83}, {"time": 4517, "pitch": 62, "duration": 18, "velocity": 93}, {"time": 4565, "pitch": 64, "duration": 5, "velocity": 100}, {"time": 4577, "pitch": 64, "duration": 16, "velocity": 97}, {"time": 4601, "pitch": 66, "duration": 10, "velocity": 117}, {"time": 4613, "pitch": 64, "duration": 8, "velocity": 95}, {"time": 4625, "pitch": 64, "duration": 5, "velocity": 92}, {"time": 4631, "pitch": 66, "duration": 5, "velocity": 90}, {"time": 4637, "pitch": 69, "duration": 10, "velocity": 102}, {"time": 4661, "pitch": 78, "duration": 8, "velocity": 117}, {"time": 4673, "pitch": 78, "duration": 7, "velocity": 117}, {"time": 4685, "pitch": 73, "duration": 8, "velocity": 112}, {"time": 4697, "pitch": 71, "duration": 6, "velocity": 107}, {"time": 4703, "pitch": 69, "duration": 6, "velocity": 86}, {"time": 4709, "pitch": 71, "duration": 27, "velocity": 93}, {"time": 4793, "pitch": 71, "duration": 7, "velocity": 102}, {"time": 4805, "pitch": 78, "duration": 7, "velocity": 122}, {"time": 4817, "pitch": 78, "duration": 7, "velocity": 117}, {"time": 4829, "pitch": 71, "duration": 7, "velocity": 102}, {"time": 4841, "pitch": 78, "duration": 8, "velocity": 127}, {"time": 4853, "pitch": 78, "duration": 5, "velocity": 127}, {"time": 4859, "pitch": 76, "duration": 5, "velocity": 95}, {"time": 4865, "pitch": 74, "duration": 11, "velocity": 96}, {"time": 4889, "pitch": 73, "duration": 2, "velocity": 127}, {"time": 4895, "pitch": 73, "duration": 1, "velocity": 107}, {"time": 4901, "pitch": 73, "duration": 4, "velocity": 127}, {"time": 4907, "pitch": 71, "duration": 3, "velocity": 107}, {"time": 4913, "pitch": 69, "duration": 4, "velocity": 107}, {"time": 4919, "pitch": 71, "duration": 4, "velocity": 99}, {"time": 4925, "pitch": 73, "duration": 11, "velocity": 117}, {"time": 4937, "pitch": 71, "duration": 23, "velocity": 127}, {"time": 4985, "pitch": 71, "duration": 6, "velocity": 112}, {"time": 4997, "pitch": 71, "duration": 5, "velocity": 117}, {"time": 5009, "pitch": 71, "duration": 6, "velocity": 122}, {"time": 5021, "pitch": 71, "duration": 3, "velocity": 127}, {"time": 5027, "pitch": 73, "duration": 3, "velocity": 127}, {"time": 5033, "pitch": 71, "duration": 5, "velocity": 117}, {"time": 5045, "pitch": 71, "duration": 5, "velocity": 112}, {"time": 5051, "pitch": 69, "duration": 3, "velocity": 100}, {"time": 5057, "pitch": 66, "duration": 13, "velocity": 102}, {"time": 5081, "pitch": 62, "duration": 2, "velocity": 99}, {"time": 5087, "pitch": 62, "duration": 2, "velocity": 97}, {"time": 5093, "pitch": 62, "duration": 2, "velocity": 96}, {"time": 5099, "pitch": 59, "duration": 3, "velocity": 89}, {"time": 5105, "pitch": 71, "duration": 7, "velocity": 100}, {"time": 5117, "pitch": 69, "duration": 6, "velocity": 127}, {"time": 5123, "pitch": 67, "duration": 5, "velocity": 90}, {"time": 5129, "pitch": 66, "duration": 26, "velocity": 89}, {"time": 5177, "pitch": 66, "duration": 8, "velocity": 107}, {"time": 5189, "pitch": 71, "duration": 19, "velocity": 100}, {"time": 5213, "pitch": 73, "duration": 11, "velocity": 107}, {"time": 5225, "pitch": 71, "duration": 9, "velocity": 95}, {"time": 5237, "pitch": 71, "duration": 5, "velocity": 107}, {"time": 5243, "pitch": 69, "duration": 5, "velocity": 89}, {"time": 5249, "pitch": 71, "duration": 8, "velocity": 95}, {"time": 5273, "pitch": 66, "duration": 8, "velocity": 117}, {"time": 5285, "pitch": 71, "duration": 9, "velocity": 107}, {"time": 5297, "pitch": 71, "duration": 7, "velocity": 107}, {"time": 5309, "pitch": 66, "duration": 6, "velocity": 122}, {"time": 5315, "pitch": 64, "duration": 5, "velocity": 83}, {"time": 5321, "pitch": 62, "duration": 18, "velocity": 93}, {"time": 5369, "pitch": 64, "duration": 5, "velocity": 100}, {"time": 5381, "pitch": 64, "duration": 16, "velocity": 97}, {"time": 5405, "pitch": 66, "duration": 10, "velocity": 117}, {"time": 5417, "pitch": 64, "duration": 8, "velocity": 95}, {"time": 5429, "pitch": 64, "duration": 5, "velocity": 92}, {"time": 5435, "pitch": 66, "duration": 5, "velocity": 90}, {"time": 5441, "pitch": 69, "duration": 10, "velocity": 102}, {"time": 5465, "pitch": 78, "duration": 8, "velocity": 117}, {"time": 5477, "pitch": 78, "duration": 7, "velocity": 117}, {"time": 5489, "pitch": 73, "duration": 8, "velocity": 112}, {"time": 5501, "pitch": 71, "duration": 6, "velocity": 107}, {"time": 5507, "pitch": 69, "duration": 6, "velocity": 86}, {"time": 5513, "pitch": 71, "duration": 27, "velocity": 93}, {"time": 5597, "pitch": 71, "duration": 7, "velocity": 102}, {"time": 5609, "pitch": 78, "duration": 7, "velocity": 122}, {"time": 5621, "pitch": 78, "duration": 7, "velocity": 117}, {"time": 5633, "pitch": 71, "duration": 7, "velocity": 102}, {"time": 5645, "pitch": 78, "duration": 8, "velocity": 127}, {"time": 5657, "pitch": 78, "duration": 5, "velocity": 127}, {"time": 5663, "pitch": 76, "duration": 5, "velocity": 95}, {"time": 5669, "pitch": 74, "duration": 11, "velocity": 96}, {"time": 5693, "pitch": 73, "duration": 2, "velocity": 127}, {"time": 5699, "pitch": 73, "duration": 1, "velocity": 107}, {"time": 5705, "pitch": 73, "duration": 4, "velocity": 127}, {"time": 5711, "pitch": 71, "duration": 3, "velocity": 107}, {"time": 5717, "pitch": 69, "duration": 4, "velocity": 107}, {"time": 5723, "pitch": 71, "duration": 4, "velocity": 99}, {"time": 5729, "pitch": 73, "duration": 11, "velocity": 117}, {"time": 5741, "pitch": 71, "duration": 23, "velocity": 127}, {"time": 5789, "pitch": 71, "duration": 6, "velocity": 112}, {"time": 5801, "pitch": 71, "duration": 5, "velocity": 117}, {"time": 5813, "pitch": 71, "duration": 6, "velocity": 122}, {"time": 5825, "pitch": 71, "duration": 3, "velocity": 127}, {"time": 5831, "pitch": 73, "duration": 3, "velocity": 127}, {"time": 5837, "pitch": 71, "duration": 5, "velocity": 117}, {"time": 5849, "pitch": 71, "duration": 5, "velocity": 112}, {"time": 5855, "pitch": 69, "duration": 3, "velocity": 100}, {"time": 5861, "pitch": 66, "duration": 13, "velocity": 102}, {"time": 5885, "pitch": 62, "duration": 2, "velocity": 99}, {"time": 5891, "pitch": 62, "duration": 2, "velocity": 97}, {"time": 5897, "pitch": 62, "duration": 2, "velocity": 96}, {"time": 5903, "pitch": 59, "duration": 3, "velocity": 89}, {"time": 5909, "pitch": 71, "duration": 7, "velocity": 100}, {"time": 5921, "pitch": 69, "duration": 6, "velocity": 127}, {"time": 5927, "pitch": 67, "duration": 5, "velocity": 90}, {"time": 5933, "pitch": 66, "duration": 26, "velocity": 89}, {"time": 5981, "pitch": 66, "duration": 8, "velocity": 107}, {"time": 5993, "pitch": 71, "duration": 19, "velocity": 100}, {"time": 6017, "pitch": 73, "duration": 11, "velocity": 107}, {"time": 6029, "pitch": 71, "duration": 9, "velocity": 95}, {"time": 6041, "pitch": 71, "duration": 5, "velocity": 107}, {"time": 6047, "pitch": 69, "duration": 5, "velocity": 89}, {"time": 6053, "pitch": 71, "duration": 8, "velocity": 95}, {"time": 6077, "pitch": 66, "duration": 8, "velocity": 117}, {"time": 6089, "pitch": 71, "duration": 9, "velocity": 107}, {"time": 6101, "pitch": 71, "duration": 7, "velocity": 107}, {"time": 6113, "pitch": 66, "duration": 6, "velocity": 122}, {"time": 6119, "pitch": 64, "duration": 5, "velocity": 83}, {"time": 6125, "pitch": 62, "duration": 18, "velocity": 93}, {"time": 6173, "pitch": 64, "duration": 5, "velocity": 100}, {"time": 6185, "pitch": 64, "duration": 16, "velocity": 97}, {"time": 6209, "pitch": 66, "duration": 10, "velocity": 117}, {"time": 6221, "pitch": 64, "duration": 8, "velocity": 95}, {"time": 6233, "pitch": 64, "duration": 5, "velocity": 92}, {"time": 6239, "pitch": 66, "duration": 5, "velocity": 90}, {"time": 6245, "pitch": 69, "duration": 10, "velocity": 102}, {"time": 6269, "pitch": 78, "duration": 8, "velocity": 117}, {"time": 6281, "pitch": 78, "duration": 7, "velocity": 117}, {"time": 6293, "pitch": 73, "duration": 8, "velocity": 112}, {"time": 6305, "pitch": 71, "duration": 6, "velocity": 107}, {"time": 6311, "pitch": 69, "duration": 6, "velocity": 86}, {"time": 6317, "pitch": 71, "duration": 27, "velocity": 93}]}, {"program": 0, "is_drum": false, "name": "BRIDGE", "notes": [{"time": 5, "pitch": 59, "duration": 3, "velocity": 73}, {"time": 11, "pitch": 59, "duration": 5, "velocity": 66}, {"time": 17, "pitch": 62, "duration": 7, "velocity": 64}, {"time": 23, "pitch": 64, "duration": 6, "velocity": 64}, {"time": 29, "pitch": 66, "duration": 6, "velocity": 77}, {"time": 35, "pitch": 64, "duration": 7, "velocity": 75}, {"time": 41, "pitch": 66, "duration": 5, "velocity": 97}, {"time": 47, "pitch": 69, "duration": 5, "velocity": 85}, {"time": 53, "pitch": 71, "duration": 10, "velocity": 102}, {"time": 65, "pitch": 78, "duration": 9, "velocity": 122}, {"time": 77, "pitch": 78, "duration": 8, "velocity": 127}, {"time": 89, "pitch": 71, "duration": 8, "velocity": 97}, {"time": 101, "pitch": 78, "duration": 15, "velocity": 122}, {"time": 119, "pitch": 76, "duration": 5, "velocity": 99}, {"time": 125, "pitch": 74, "duration": 9, "velocity": 99}, {"time": 149, "pitch": 73, "duration": 12, "velocity": 117}, {"time": 167, "pitch": 71, "duration": 5, "velocity": 102}, {"time": 173, "pitch": 69, "duration": 6, "velocity": 86}, {"time": 179, "pitch": 71, "duration": 5, "velocity": 93}, {"time": 185, "pitch": 73, "duration": 5, "velocity": 107}, {"time": 191, "pitch": 71, "duration": 3, "velocity": 97}, {"time": 197, "pitch": 71, "duration": 36, "velocity": 100}, {"time": 245, "pitch": 71, "duration": 33, "velocity": 100}, {"time": 281, "pitch": 73, "duration": 11, "velocity": 122}, {"time": 293, "pitch": 71, "duration": 16, "velocity": 102}, {"time": 311, "pitch": 69, "duration": 4, "velocity": 82}, {"time": 317, "pitch": 66, "duration": 22, "velocity": 93}, {"time": 341, "pitch": 62, "duration": 15, "velocity": 102}, {"time": 359, "pitch": 59, "duration": 4, "velocity": 95}, {"time": 365, "pitch": 71, "duration": 10, "velocity": 97}, {"time": 377, "pitch": 69, "duration": 10, "velocity": 96}, {"time": 389, "pitch": 66, "duration": 30, "velocity": 99}, {"time": 437, "pitch": 66, "duration": 10, "velocity": 99}, {"time": 449, "pitch": 71, "duration": 8, "velocity": 100}, {"time": 461, "pitch": 71, "duration": 9, "velocity": 96}, {"time": 473, "pitch": 73, "duration": 12, "velocity": 117}, {"time": 485, "pitch": 71, "duration": 13, "velocity": 100}, {"time": 503, "pitch": 69, "duration": 6, "velocity": 89}, {"time": 509, "pitch": 71, "duration": 15, "velocity": 89}, {"time": 533, "pitch": 66, "duration": 9, "velocity": 107}, {"time": 545, "pitch": 71, "duration": 9, "velocity": 95}, {"time": 557, "pitch": 71, "duration": 7, "velocity": 93}, {"time": 569, "pitch": 66, "duration": 6, "velocity": 112}, {"time": 575, "pitch": 64, "duration": 5, "velocity": 82}, {"time": 581, "pitch": 62, "duration": 13, "velocity": 92}, {"time": 629, "pitch": 64, "duration": 14, "velocity": 100}, {"time": 647, "pitch": 62, "duration": 5, "velocity": 93}, {"time": 653, "pitch": 64, "duration": 9, "velocity": 97}, {"time": 665, "pitch": 66, "duration": 10, "velocity": 117}, {"time": 677, "pitch": 64, "duration": 15, "velocity": 93}, {"time": 695, "pitch": 66, "duration": 5, "velocity": 96}, {"time": 701, "pitch": 69, "duration": 8, "velocity": 102}, {"time": 725, "pitch": 78, "duration": 7, "velocity": 112}, {"time": 737, "pitch": 76, "duration": 4, "velocity": 96}, {"time": 743, "pitch": 78, "duration": 6, "velocity": 93}, {"time": 749, "pitch": 73, "duration": 6, "velocity": 100}, {"time": 761, "pitch": 71, "duration": 5, "velocity": 100}, {"time": 767, "pitch": 69, "duration": 5, "velocity": 88}, {"time": 773, "pitch": 71, "duration": 40, "velocity": 95}, {"time": 826, "pitch": 71, "duration": 3, "velocity": 100}, {"time": 838, "pitch": 74, "duration": 3, "velocity": 100}, {"time": 850, "pitch": 71, "duration": 3, "velocity": 100}, {"time": 862, "pitch": 71, "duration": 3, "velocity": 97}, {"time": 874, "pitch": 71, "duration": 4, "velocity": 97}, {"time": 886, "pitch": 74, "duration": 3, "velocity": 97}, {"time": 898, "pitch": 66, "duration": 3, "velocity": 103}, {"time": 898, "pitch": 71, "duration": 3, "velocity": 103}, {"time": 910, "pitch": 66, "duration": 3, "velocity": 103}, {"time": 910, "pitch": 71, "duration": 4, "velocity": 103}, {"time": 922, "pitch": 66, "duration": 4, "velocity": 103}, {"time": 922, "pitch": 71, "duration": 4, "velocity": 103}, {"time": 934, "pitch": 71, "duration": 3, "velocity": 103}, {"time": 934, "pitch": 74, "duration": 4, "velocity": 103}, {"time": 946, "pitch": 66, "duration": 3, "velocity": 103}, {"time": 946, "pitch": 71, "duration": 4, "velocity": 103}, {"time": 958, "pitch": 66, "duration": 3, "velocity": 103}, {"time": 958, "pitch": 71, "duration": 3, "velocity": 103}, {"time": 970, "pitch": 66, "duration": 3, "velocity": 103}, {"time": 970, "pitch": 71, "duration": 3, "velocity": 103}, {"time": 982, "pitch": 74, "duration": 3, "velocity": 103}, {"time": 988, "pitch": 67, "duration": 3, "velocity": 103}, {"time": 994, "pitch": 71, "duration": 3, "velocity": 103}, {"time": 994, "pitch": 74, "duration": 3, "velocity": 103}, {"time": 1006, "pitch": 71, "duration": 3, "velocity": 103}, {"time": 1006, "pitch": 74, "duration": 4, "velocity": 103}, {"time": 1018, "pitch": 71, "duration": 3, "velocity": 103}, {"time": 1018, "pitch": 74, "duration": 3, "velocity": 103}, {"time": 1030, "pitch": 71, "duration": 3, "velocity": 103}, {"time": 1030, "pitch": 76, "duration": 3, "velocity": 103}, {"time": 1042, "pitch": 71, "duration": 3, "velocity": 103}, {"time": 1042, "pitch": 74, "duration": 4, "velocity": 103}, {"time": 1054, "pitch": 71, "duration": 3, "velocity": 103}, {"time": 1054, "pitch": 74, "duration": 3, "velocity": 103}, {"time": 1066, "pitch": 71, "duration": 3, "velocity": 103}, {"time": 1066, "pitch": 74, "duration": 4, "velocity": 103}, {"time": 1078, "pitch": 71, "duration": 4, "velocity": 103}, {"time": 1078, "pitch": 76, "duration": 4, "velocity": 103}, {"time": 1090, "pitch": 71, "duration": 3, "velocity": 103}, {"time": 1090, "pitch": 74, "duration": 3, "velocity": 103}, {"time": 1102, "pitch": 71, "duration": 3, "velocity": 103}, {"time": 1102, "pitch": 74, "duration": 4, "velocity": 103}, {"time": 1114, "pitch": 71, "duration": 4, "velocity": 103}, {"time": 1120, "pitch": 74, "duration": 4, "velocity": 103}, {"time": 1126, "pitch": 71, "duration": 4, "velocity": 103}, {"time": 1138, "pitch": 71, "duration": 4, "velocity": 103}, {"time": 1144, "pitch": 76, "duration": 4, "velocity": 103}, {"time": 1150, "pitch": 71, "duration": 4, "velocity": 103}, {"time": 1156, "pitch": 73, "duration": 6, "velocity": 103}, {"time": 1162, "pitch": 69, "duration": 4, "velocity": 103}, {"time": 1174, "pitch": 73, "duration": 4, "velocity": 103}, {"time": 1180, "pitch": 66, "duration": 8, "velocity": 103}, {"time": 1186, "pitch": 66, "duration": 2, "velocity": 103}, {"time": 1186, "pitch": 69, "duration": 3, "velocity": 103}, {"time": 1198, "pitch": 66, "duration": 3, "velocity": 103}, {"time": 1198, "pitch": 69, "duration": 3, "velocity": 103}, {"time": 1210, "pitch": 71, "duration": 3, "velocity": 100}, {"time": 1222, "pitch": 74, "duration": 3, "velocity": 100}, {"time": 1234, "pitch": 71, "duration": 3, "velocity": 100}, {"time": 1246, "pitch": 71, "duration": 3, "velocity": 97}, {"time": 1258, "pitch": 71, "duration": 4, "velocity": 97}, {"time": 1270, "pitch": 74, "duration": 3, "velocity": 97}, {"time": 1282, "pitch": 66, "duration": 3, "velocity": 103}, {"time": 1282, "pitch": 71, "duration": 3, "velocity": 103}, {"time": 1294, "pitch": 66, "duration": 3, "velocity": 103}, {"time": 1294, "pitch": 71, "duration": 4, "velocity": 103}, {"time": 1306, "pitch": 66, "duration": 4, "velocity": 103}, {"time": 1306, "pitch": 71, "duration": 4, "velocity": 103}, {"time": 1318, "pitch": 71, "duration": 3, "velocity": 103}, {"time": 1318, "pitch": 74, "duration": 4, "velocity": 103}, {"time": 1330, "pitch": 66, "duration": 3, "velocity": 103}, {"time": 1330, "pitch": 71, "duration": 4, "velocity": 103}, {"time": 1342, "pitch": 66, "duration": 3, "velocity": 103}, {"time": 1342, "pitch": 71, "duration": 3, "velocity": 103}, {"time": 1354, "pitch": 66, "duration": 3, "velocity": 103}, {"time": 1354, "pitch": 71, "duration": 3, "velocity": 103}, {"time": 1366, "pitch": 74, "duration": 3, "velocity": 103}, {"time": 1372, "pitch": 67, "duration": 3, "velocity": 103}, {"time": 1378, "pitch": 71, "duration": 3, "velocity": 103}, {"time": 1378, "pitch": 74, "duration": 3, "velocity": 103}, {"time": 1390, "pitch": 71, "duration": 3, "velocity": 103}, {"time": 1390, "pitch": 74, "duration": 4, "velocity": 103}, {"time": 1402, "pitch": 71, "duration": 3, "velocity": 103}, {"time": 1402, "pitch": 74, "duration": 3, "velocity": 103}, {"time": 1414, "pitch": 71, "duration": 3, "velocity": 103}, {"time": 1414, "pitch": 76, "duration": 3, "velocity": 103}, {"time": 1426, "pitch": 71, "duration": 3, "velocity": 103}, {"time": 1426, "pitch": 74, "duration": 4, "velocity": 103}, {"time": 1438, "pitch": 71, "duration": 3, "velocity": 103}, {"time": 1438, "pitch": 74, "duration": 3, "velocity": 103}, {"time": 1450, "pitch": 71, "duration": 3, "velocity": 103}, {"time": 1450, "pitch": 74, "duration": 4, "velocity": 103}, {"time": 1462, "pitch": 71, "duration": 4, "velocity": 103}, {"time": 1462, "pitch": 76, "duration": 4, "velocity": 103}, {"time": 1474, "pitch": 71, "duration": 3, "velocity": 103}, {"time": 1474, "pitch": 74, "duration": 3, "velocity": 103}, {"time": 1486, "pitch": 71, "duration": 3, "velocity": 103}, {"time": 1486, "pitch": 74, "duration": 4, "velocity": 103}, {"time": 1498, "pitch": 71, "duration": 4, "velocity": 103}, {"time": 1504, "pitch": 74, "duration": 4, "velocity": 103}, {"time": 1510, "pitch": 71, "duration": 4, "velocity": 103}, {"time": 1522, "pitch": 71, "duration": 4, "velocity": 103}, {"time": 1528, "pitch": 76, "duration": 4, "velocity": 103}, {"time": 1534, "pitch": 71, "duration": 4, "velocity": 103}, {"time": 1547, "pitch": 71, "duration": 3, "velocity": 69}, {"time": 1553, "pitch": 74, "duration": 2, "velocity": 89}, {"time": 1559, "pitch": 73, "duration": 1, "velocity": 93}, {"time": 1564, "pitch": 71, "duration": 3, "velocity": 76}, {"time": 1570, "pitch": 71, "duration": 3, "velocity": 77}, {"time": 1570, "pitch": 74, "duration": 3, "velocity": 77}, {"time": 1582, "pitch": 71, "duration": 3, "velocity": 79}, {"time": 1582, "pitch": 74, "duration": 4, "velocity": 79}, {"time": 1589, "pitch": 62, "duration": 1, "velocity": 96}, {"time": 1595, "pitch": 59, "duration": 2, "velocity": 64}, {"time": 1601, "pitch": 62, "duration": 2, "velocity": 82}, {"time": 1607, "pitch": 64, "duration": 2, "velocity": 92}, {"time": 1613, "pitch": 66, "duration": 2, "velocity": 99}, {"time": 1619, "pitch": 64, "duration": 2, "velocity": 82}, {"time": 1625, "pitch": 66, "duration": 3, "velocity": 97}, {"time": 1631, "pitch": 69, "duration": 2, "velocity": 90}, {"time": 1637, "pitch": 71, "duration": 17, "velocity": 99}, {"time": 1715, "pitch": 78, "duration": 2, "velocity": 100}, {"time": 1721, "pitch": 76, "duration": 1, "velocity": 99}, {"time": 1727, "pitch": 74, "duration": 2, "velocity": 82}, {"time": 1733, "pitch": 73, "duration": 24, "velocity": 95}, {"time": 1805, "pitch": 71, "duration": 4, "velocity": 93}, {"time": 1811, "pitch": 66, "duration": 2, "velocity": 85}, {"time": 1817, "pitch": 69, "duration": 6, "velocity": 81}, {"time": 1823, "pitch": 71, "duration": 25, "velocity": 88}, {"time": 1901, "pitch": 71, "duration": 6, "velocity": 99}, {"time": 1907, "pitch": 69, "duration": 4, "velocity": 76}, {"time": 1913, "pitch": 66, "duration": 6, "velocity": 75}, {"time": 1919, "pitch": 64, "duration": 6, "velocity": 71}, {"time": 1925, "pitch": 62, "duration": 21, "velocity": 69}, {"time": 1997, "pitch": 71, "duration": 5, "velocity": 96}, {"time": 2003, "pitch": 69, "duration": 4, "velocity": 79}, {"time": 2009, "pitch": 66, "duration": 6, "velocity": 79}, {"time": 2015, "pitch": 69, "duration": 31, "velocity": 88}, {"time": 2093, "pitch": 71, "duration": 5, "velocity": 96}, {"time": 2099, "pitch": 69, "duration": 2, "velocity": 82}, {"time": 2105, "pitch": 69, "duration": 4, "velocity": 86}, {"time": 2111, "pitch": 66, "duration": 19, "velocity": 78}, {"time": 2189, "pitch": 71, "duration": 6, "velocity": 83}, {"time": 2195, "pitch": 66, "duration": 5, "velocity": 63}, {"time": 2201, "pitch": 64, "duration": 4, "velocity": 78}, {"time": 2207, "pitch": 66, "duration": 5, "velocity": 89}, {"time": 2213, "pitch": 64, "duration": 37, "velocity": 77}, {"time": 2285, "pitch": 69, "duration": 2, "velocity": 93}, {"time": 2291, "pitch": 69, "duration": 3, "velocity": 86}, {"time": 2297, "pitch": 66, "duration": 4, "velocity": 92}, {"time": 2303, "pitch": 69, "duration": 6, "velocity": 93}, {"time": 2381, "pitch": 73, "duration": 5, "velocity": 107}, {"time": 2387, "pitch": 66, "duration": 5, "velocity": 97}, {"time": 2393, "pitch": 69, "duration": 6, "velocity": 90}, {"time": 2399, "pitch": 71, "duration": 6, "velocity": 61}, {"time": 2405, "pitch": 71, "duration": 10, "velocity": 102}, {"time": 2417, "pitch": 78, "duration": 9, "velocity": 122}, {"time": 2429, "pitch": 78, "duration": 8, "velocity": 127}, {"time": 2441, "pitch": 71, "duration": 8, "velocity": 97}, {"time": 2453, "pitch": 78, "duration": 15, "velocity": 122}, {"time": 2471, "pitch": 76, "duration": 5, "velocity": 99}, {"time": 2477, "pitch": 74, "duration": 9, "velocity": 99}, {"time": 2501, "pitch": 73, "duration": 12, "velocity": 117}, {"time": 2519, "pitch": 71, "duration": 5, "velocity": 102}, {"time": 2525, "pitch": 69, "duration": 6, "velocity": 86}, {"time": 2531, "pitch": 71, "duration": 5, "velocity": 93}, {"time": 2537, "pitch": 73, "duration": 5, "velocity": 107}, {"time": 2543, "pitch": 71, "duration": 3, "velocity": 97}, {"time": 2549, "pitch": 71, "duration": 36, "velocity": 100}, {"time": 2597, "pitch": 71, "duration": 33, "velocity": 100}, {"time": 2633, "pitch": 73, "duration": 11, "velocity": 122}, {"time": 2645, "pitch": 71, "duration": 16, "velocity": 102}, {"time": 2663, "pitch": 69, "duration": 4, "velocity": 82}, {"time": 2669, "pitch": 66, "duration": 22, "velocity": 93}, {"time": 2693, "pitch": 62, "duration": 15, "velocity": 102}, {"time": 2711, "pitch": 59, "duration": 4, "velocity": 95}, {"time": 2717, "pitch": 71, "duration": 10, "velocity": 97}, {"time": 2729, "pitch": 69, "duration": 10, "velocity": 96}, {"time": 2741, "pitch": 66, "duration": 30, "velocity": 99}, {"time": 2789, "pitch": 66, "duration": 10, "velocity": 99}, {"time": 2801, "pitch": 71, "duration": 8, "velocity": 100}, {"time": 2813, "pitch": 71, "duration": 9, "velocity": 96}, {"time": 2825, "pitch": 73, "duration": 12, "velocity": 117}, {"time": 2837, "pitch": 71, "duration": 13, "velocity": 100}, {"time": 2855, "pitch": 69, "duration": 6, "velocity": 89}, {"time": 2861, "pitch": 71, "duration": 15, "velocity": 89}, {"time": 2885, "pitch": 66, "duration": 9, "velocity": 107}, {"time": 2897, "pitch": 71, "duration": 9, "velocity": 95}, {"time": 2909, "pitch": 71, "duration": 7, "velocity": 93}, {"time": 2921, "pitch": 66, "duration": 6, "velocity": 112}, {"time": 2927, "pitch": 64, "duration": 5, "velocity": 82}, {"time": 2933, "pitch": 62, "duration": 13, "velocity": 92}, {"time": 2981, "pitch": 64, "duration": 14, "velocity": 100}, {"time": 2999, "pitch": 62, "duration": 5, "velocity": 93}, {"time": 3005, "pitch": 64, "duration": 9, "velocity": 97}, {"time": 3017, "pitch": 66, "duration": 10, "velocity": 117}, {"time": 3029, "pitch": 64, "duration": 15, "velocity": 93}, {"time": 3047, "pitch": 66, "duration": 5, "velocity": 96}, {"time": 3053, "pitch": 69, "duration": 8, "velocity": 102}, {"time": 3077, "pitch": 78, "duration": 7, "velocity": 112}, {"time": 3089, "pitch": 76, "duration": 4, "velocity": 96}, {"time": 3095, "pitch": 78, "duration": 6, "velocity": 93}, {"time": 3101, "pitch": 73, "duration": 6, "velocity": 100}, {"time": 3113, "pitch": 71, "duration": 5, "velocity": 100}, {"time": 3119, "pitch": 69, "duration": 5, "velocity": 88}, {"time": 3125, "pitch": 71, "duration": 40, "velocity": 95}, {"time": 3178, "pitch": 71, "duration": 3, "velocity": 100}, {"time": 3190, "pitch": 74, "duration": 3, "velocity": 100}, {"time": 3202, "pitch": 71, "duration": 3, "velocity": 100}, {"time": 3214, "pitch": 71, "duration": 3, "velocity": 97}, {"time": 3226, "pitch": 71, "duration": 4, "velocity": 97}, {"time": 3238, "pitch": 74, "duration": 3, "velocity": 97}, {"time": 3250, "pitch": 66, "duration": 3, "velocity": 103}, {"time": 3250, "pitch": 71, "duration": 3, "velocity": 103}, {"time": 3262, "pitch": 66, "duration": 3, "velocity": 103}, {"time": 3262, "pitch": 71, "duration": 4, "velocity": 103}, {"time": 3274, "pitch": 66, "duration": 4, "velocity": 103}, {"time": 3274, "pitch": 71, "duration": 4, "velocity": 103}, {"time": 3286, "pitch": 71, "duration": 3, "velocity": 103}, {"time": 3286, "pitch": 74, "duration": 4, "velocity": 103}, {"time": 3298, "pitch": 66, "duration": 3, "velocity": 103}, {"time": 3298, "pitch": 71, "duration": 4, "velocity": 103}, {"time": 3310, "pitch": 66, "duration": 3, "velocity": 103}, {"time": 3310, "pitch": 71, "duration": 3, "velocity": 103}, {"time": 3322, "pitch": 66, "duration": 3, "velocity": 103}, {"time": 3322, "pitch": 71, "duration": 3, "velocity": 103}, {"time": 3334, "pitch": 74, "duration": 3, "velocity": 103}, {"time": 3340, "pitch": 67, "duration": 3, "velocity": 103}, {"time": 3346, "pitch": 71, "duration": 3, "velocity": 103}, {"time": 3346, "pitch": 74, "duration": 3, "velocity": 103}, {"time": 3358, "pitch": 71, "duration": 3, "velocity": 103}, {"time": 3358, "pitch": 74, "duration": 4, "velocity": 103}, {"time": 3370, "pitch": 71, "duration": 3, "velocity": 103}, {"time": 3370, "pitch": 74, "duration": 3, "velocity": 103}, {"time": 3382, "pitch": 71, "duration": 3, "velocity": 103}, {"time": 3382, "pitch": 76, "duration": 3, "velocity": 103}, {"time": 3394, "pitch": 71, "duration": 3, "velocity": 103}, {"time": 3394, "pitch": 74, "duration": 4, "velocity": 103}, {"time": 3406, "pitch": 71, "duration": 3, "velocity": 103}, {"time": 3406, "pitch": 74, "duration": 3, "velocity": 103}, {"time": 3418, "pitch": 71, "duration": 3, "velocity": 103}, {"time": 3418, "pitch": 74, "duration": 4, "velocity": 103}, {"time": 3430, "pitch": 71, "duration": 4, "velocity": 103}, {"time": 3430, "pitch": 76, "duration": 4, "velocity": 103}, {"time": 3442, "pitch": 71, "duration": 3, "velocity": 103}, {"time": 3442, "pitch": 74, "duration": 3, "velocity": 103}, {"time": 3454, "pitch": 71, "duration": 3, "velocity": 103}, {"time": 3454, "pitch": 74, "duration": 4, "velocity": 103}, {"time": 3466, "pitch": 71, "duration": 4, "velocity": 103}, {"time": 3472, "pitch": 74, "duration": 4, "velocity": 103}, {"time": 3478, "pitch": 71, "duration": 4, "velocity": 103}, {"time": 3490, "pitch": 71, "duration": 4, "velocity": 103}, {"time": 3496, "pitch": 76, "duration": 4, "velocity": 103}, {"time": 3502, "pitch": 71, "duration": 4, "velocity": 103}, {"time": 3508, "pitch": 73, "duration": 6, "velocity": 103}, {"time": 3514, "pitch": 69, "duration": 4, "velocity": 103}, {"time": 3526, "pitch": 73, "duration": 4, "velocity": 103}, {"time": 3532, "pitch": 66, "duration": 8, "velocity": 103}, {"time": 3538, "pitch": 66, "duration": 2, "velocity": 103}, {"time": 3538, "pitch": 69, "duration": 3, "velocity": 103}, {"time": 3550, "pitch": 66, "duration": 3, "velocity": 103}, {"time": 3550, "pitch": 69, "duration": 3, "velocity": 103}, {"time": 3562, "pitch": 71, "duration": 3, "velocity": 100}, {"time": 3574, "pitch": 74, "duration": 3, "velocity": 100}, {"time": 3586, "pitch": 71, "duration": 3, "velocity": 100}, {"time": 3598, "pitch": 71, "duration": 3, "velocity": 97}, {"time": 3610, "pitch": 71, "duration": 4, "velocity": 97}, {"time": 3622, "pitch": 74, "duration": 3, "velocity": 97}, {"time": 3634, "pitch": 66, "duration": 3, "velocity": 103}, {"time": 3634, "pitch": 71, "duration": 3, "velocity": 103}, {"time": 3646, "pitch": 66, "duration": 3, "velocity": 103}, {"time": 3646, "pitch": 71, "duration": 4, "velocity": 103}, {"time": 3658, "pitch": 66, "duration": 4, "velocity": 103}, {"time": 3658, "pitch": 71, "duration": 4, "velocity": 103}, {"time": 3670, "pitch": 71, "duration": 3, "velocity": 103}, {"time": 3670, "pitch": 74, "duration": 4, "velocity": 103}, {"time": 3682, "pitch": 66, "duration": 3, "velocity": 103}, {"time": 3682, "pitch": 71, "duration": 4, "velocity": 103}, {"time": 3694, "pitch": 66, "duration": 3, "velocity": 103}, {"time": 3694, "pitch": 71, "duration": 3, "velocity": 103}, {"time": 3706, "pitch": 66, "duration": 3, "velocity": 103}, {"time": 3706, "pitch": 71, "duration": 3, "velocity": 103}, {"time": 3718, "pitch": 74, "duration": 3, "velocity": 103}, {"time": 3724, "pitch": 67, "duration": 3, "velocity": 103}, {"time": 3730, "pitch": 71, "duration": 3, "velocity": 103}, {"time": 3730, "pitch": 74, "duration": 3, "velocity": 103}, {"time": 3742, "pitch": 71, "duration": 3, "velocity": 103}, {"time": 3742, "pitch": 74, "duration": 4, "velocity": 103}, {"time": 3754, "pitch": 71, "duration": 3, "velocity": 103}, {"time": 3754, "pitch": 74, "duration": 3, "velocity": 103}, {"time": 3766, "pitch": 71, "duration": 3, "velocity": 103}, {"time": 3766, "pitch": 76, "duration": 3, "velocity": 103}, {"time": 3778, "pitch": 71, "duration": 3, "velocity": 103}, {"time": 3778, "pitch": 74, "duration": 4, "velocity": 103}, {"time": 3790, "pitch": 71, "duration": 3, "velocity": 103}, {"time": 3790, "pitch": 74, "duration": 3, "velocity": 103}, {"time": 3802, "pitch": 71, "duration": 3, "velocity": 103}, {"time": 3802, "pitch": 74, "duration": 4, "velocity": 103}, {"time": 3814, "pitch": 71, "duration": 4, "velocity": 103}, {"time": 3814, "pitch": 76, "duration": 4, "velocity": 103}, {"time": 3826, "pitch": 71, "duration": 3, "velocity": 103}, {"time": 3826, "pitch": 74, "duration": 3, "velocity": 103}, {"time": 3838, "pitch": 71, "duration": 3, "velocity": 103}, {"time": 3838, "pitch": 74, "duration": 4, "velocity": 103}, {"time": 3850, "pitch": 71, "duration": 4, "velocity": 103}, {"time": 3856, "pitch": 74, "duration": 4, "velocity": 103}, {"time": 3862, "pitch": 71, "duration": 4, "velocity": 103}, {"time": 3874, "pitch": 71, "duration": 4, "velocity": 103}, {"time": 3880, "pitch": 76, "duration": 4, "velocity": 103}, {"time": 3886, "pitch": 71, "duration": 4, "velocity": 103}, {"time": 3899, "pitch": 71, "duration": 3, "velocity": 69}, {"time": 3905, "pitch": 74, "duration": 2, "velocity": 89}, {"time": 3911, "pitch": 73, "duration": 1, "velocity": 93}, {"time": 3917, "pitch": 71, "duration": 2, "velocity": 83}, {"time": 3922, "pitch": 71, "duration": 2, "velocity": 82}, {"time": 3922, "pitch": 74, "duration": 3, "velocity": 82}, {"time": 3934, "pitch": 71, "duration": 3, "velocity": 86}, {"time": 3934, "pitch": 74, "duration": 4, "velocity": 86}, {"time": 3941, "pitch": 62, "duration": 1, "velocity": 88}, {"time": 3947, "pitch": 59, "duration": 2, "velocity": 64}, {"time": 3953, "pitch": 62, "duration": 2, "velocity": 82}, {"time": 3959, "pitch": 64, "duration": 2, "velocity": 92}, {"time": 3965, "pitch": 66, "duration": 2, "velocity": 99}, {"time": 3971, "pitch": 64, "duration": 2, "velocity": 82}, {"time": 3977, "pitch": 66, "duration": 3, "velocity": 97}, {"time": 3983, "pitch": 69, "duration": 2, "velocity": 90}, {"time": 3989, "pitch": 71, "duration": 17, "velocity": 99}, {"time": 4067, "pitch": 78, "duration": 2, "velocity": 100}, {"time": 4073, "pitch": 76, "duration": 1, "velocity": 99}, {"time": 4079, "pitch": 74, "duration": 2, "velocity": 82}, {"time": 4085, "pitch": 73, "duration": 24, "velocity": 95}, {"time": 4157, "pitch": 71, "duration": 4, "velocity": 93}, {"time": 4163, "pitch": 66, "duration": 2, "velocity": 85}, {"time": 4169, "pitch": 69, "duration": 6, "velocity": 81}, {"time": 4175, "pitch": 71, "duration": 25, "velocity": 88}, {"time": 4253, "pitch": 71, "duration": 6, "velocity": 99}, {"time": 4259, "pitch": 69, "duration": 4, "velocity": 76}, {"time": 4265, "pitch": 66, "duration": 6, "velocity": 75}, {"time": 4271, "pitch": 64, "duration": 6, "velocity": 71}, {"time": 4277, "pitch": 62, "duration": 21, "velocity": 69}, {"time": 4349, "pitch": 71, "duration": 5, "velocity": 96}, {"time": 4355, "pitch": 69, "duration": 4, "velocity": 79}, {"time": 4361, "pitch": 66, "duration": 6, "velocity": 79}, {"time": 4367, "pitch": 69, "duration": 31, "velocity": 88}, {"time": 4445, "pitch": 71, "duration": 5, "velocity": 96}, {"time": 4451, "pitch": 69, "duration": 2, "velocity": 82}, {"time": 4457, "pitch": 69, "duration": 4, "velocity": 86}, {"time": 4463, "pitch": 66, "duration": 19, "velocity": 78}, {"time": 4541, "pitch": 71, "duration": 6, "velocity": 83}, {"time": 4547, "pitch": 66, "duration": 5, "velocity": 63}, {"time": 4553, "pitch": 64, "duration": 4, "velocity": 78}, {"time": 4559, "pitch": 66, "duration": 5, "velocity": 89}, {"time": 4565, "pitch": 64, "duration": 37, "velocity": 77}, {"time": 4637, "pitch": 69, "duration": 2, "velocity": 93}, {"time": 4643, "pitch": 69, "duration": 3, "velocity": 86}, {"time": 4649, "pitch": 66, "duration": 4, "velocity": 92}, {"time": 4655, "pitch": 69, "duration": 6, "velocity": 93}, {"time": 4733, "pitch": 71, "duration": 4, "velocity": 96}, {"time": 4739, "pitch": 66, "duration": 5, "velocity": 74}, {"time": 4745, "pitch": 69, "duration": 4, "velocity": 81}, {"time": 4751, "pitch": 71, "duration": 4, "velocity": 92}, {"time": 4757, "pitch": 62, "duration": 5, "velocity": 88}, {"time": 4757, "pitch": 74, "duration": 2, "velocity": 90}, {"time": 4763, "pitch": 64, "duration": 5, "velocity": 79}, {"time": 4769, "pitch": 66, "duration": 4, "velocity": 83}, {"time": 4775, "pitch": 64, "duration": 6, "velocity": 82}, {"time": 4781, "pitch": 66, "duration": 4, "velocity": 93}, {"time": 4787, "pitch": 69, "duration": 5, "velocity": 88}, {"time": 4793, "pitch": 71, "duration": 17, "velocity": 99}, {"time": 4871, "pitch": 78, "duration": 2, "velocity": 100}, {"time": 4877, "pitch": 76, "duration": 1, "velocity": 99}, {"time": 4883, "pitch": 74, "duration": 2, "velocity": 82}, {"time": 4889, "pitch": 73, "duration": 24, "velocity": 95}, {"time": 4961, "pitch": 71, "duration": 4, "velocity": 93}, {"time": 4967, "pitch": 66, "duration": 2, "velocity": 85}, {"time": 4973, "pitch": 69, "duration": 6, "velocity": 81}, {"time": 4979, "pitch": 71, "duration": 25, "velocity": 88}, {"time": 5057, "pitch": 71, "duration": 6, "velocity": 99}, {"time": 5063, "pitch": 69, "duration": 4, "velocity": 76}, {"time": 5069, "pitch": 66, "duration": 6, "velocity": 75}, {"time": 5075, "pitch": 64, "duration": 6, "velocity": 71}, {"time": 5081, "pitch": 62, "duration": 21, "velocity": 69}, {"time": 5153, "pitch": 71, "duration": 5, "velocity": 96}, {"time": 5159, "pitch": 69, "duration": 4, "velocity": 79}, {"time": 5165, "pitch": 66, "duration": 6, "velocity": 79}, {"time": 5171, "pitch": 69, "duration": 31, "velocity": 88}, {"time": 5249, "pitch": 71, "duration": 5, "velocity": 96}, {"time": 5255, "pitch": 69, "duration": 2, "velocity": 82}, {"time": 5261, "pitch": 69, "duration": 4, "velocity": 86}, {"time": 5267, "pitch": 66, "duration": 19, "velocity": 78}, {"time": 5345, "pitch": 71, "duration": 6, "velocity": 83}, {"time": 5351, "pitch": 66, "duration": 5, "velocity": 63}, {"time": 5357, "pitch": 64, "duration": 4, "velocity": 78}, {"time": 5363, "pitch": 66, "duration": 5, "velocity": 89}, {"time": 5369, "pitch": 64, "duration": 37, "velocity": 77}, {"time": 5441, "pitch": 69, "duration": 2, "velocity": 93}, {"time": 5447, "pitch": 69, "duration": 3, "velocity": 86}, {"time": 5453, "pitch": 66, "duration": 4, "velocity": 92}, {"time": 5459, "pitch": 69, "duration": 6, "velocity": 93}, {"time": 5537, "pitch": 71, "duration": 4, "velocity": 96}, {"time": 5543, "pitch": 66, "duration": 5, "velocity": 74}, {"time": 5549, "pitch": 69, "duration": 4, "velocity": 81}, {"time": 5555, "pitch": 71, "duration": 4, "velocity": 92}, {"time": 5561, "pitch": 62, "duration": 5, "velocity": 88}, {"time": 5561, "pitch": 74, "duration": 2, "velocity": 90}, {"time": 5567, "pitch": 64, "duration": 5, "velocity": 79}, {"time": 5573, "pitch": 66, "duration": 4, "velocity": 83}, {"time": 5579, "pitch": 64, "duration": 6, "velocity": 82}, {"time": 5585, "pitch": 66, "duration": 4, "velocity": 93}, {"time": 5591, "pitch": 69, "duration": 5, "velocity": 88}, {"time": 5597, "pitch": 71, "duration": 17, "velocity": 99}, {"time": 5675, "pitch": 78, "duration": 2, "velocity": 100}, {"time": 5681, "pitch": 76, "duration": 1, "velocity": 99}, {"time": 5687, "pitch": 74, "duration": 2, "velocity": 82}, {"time": 5693, "pitch": 73, "duration": 24, "velocity": 95}, {"time": 5765, "pitch": 71, "duration": 4, "velocity": 93}, {"time": 5771, "pitch": 66, "duration": 2, "velocity": 85}, {"time": 5777, "pitch": 69, "duration": 6, "velocity": 81}, {"time": 5783, "pitch": 71, "duration": 25, "velocity": 88}, {"time": 5861, "pitch": 71, "duration": 6, "velocity": 99}, {"time": 5867, "pitch": 69, "duration": 4, "velocity": 76}, {"time": 5873, "pitch": 66, "duration": 6, "velocity": 75}, {"time": 5879, "pitch": 64, "duration": 6, "velocity": 71}, {"time": 5885, "pitch": 62, "duration": 21, "velocity": 69}, {"time": 5957, "pitch": 71, "duration": 5, "velocity": 96}, {"time": 5963, "pitch": 69, "duration": 4, "velocity": 79}, {"time": 5969, "pitch": 66, "duration": 6, "velocity": 79}, {"time": 5975, "pitch": 69, "duration": 31, "velocity": 88}, {"time": 6053, "pitch": 71, "duration": 5, "velocity": 96}, {"time": 6059, "pitch": 69, "duration": 2, "velocity": 82}, {"time": 6065, "pitch": 69, "duration": 4, "velocity": 86}, {"time": 6071, "pitch": 66, "duration": 19, "velocity": 78}, {"time": 6149, "pitch": 71, "duration": 6, "velocity": 83}, {"time": 6155, "pitch": 66, "duration": 5, "velocity": 63}, {"time": 6161, "pitch": 64, "duration": 4, "velocity": 78}, {"time": 6167, "pitch": 66, "duration": 5, "velocity": 89}, {"time": 6173, "pitch": 64, "duration": 37, "velocity": 77}, {"time": 6245, "pitch": 69, "duration": 2, "velocity": 93}, {"time": 6251, "pitch": 69, "duration": 3, "velocity": 86}, {"time": 6257, "pitch": 66, "duration": 4, "velocity": 92}, {"time": 6263, "pitch": 69, "duration": 6, "velocity": 93}]}, {"program": 0, "is_drum": false, "name": "PIANO", "notes": [{"time": 5, "pitch": 47, "duration": 43, "velocity": 36}, {"time": 5, "pitch": 59, "duration": 49, "velocity": 37}, {"time": 5, "pitch": 62, "duration": 49, "velocity": 38}, {"time": 5, "pitch": 66, "duration": 49, "velocity": 39}, {"time": 53, "pitch": 47, "duration": 22, "velocity": 73}, {"time": 59, "pitch": 54, "duration": 17, "velocity": 55}, {"time": 65, "pitch": 62, "duration": 19, "velocity": 76}, {"time": 65, "pitch": 66, "duration": 19, "velocity": 75}, {"time": 74, "pitch": 59, "duration": 4, "velocity": 77}, {"time": 77, "pitch": 47, "duration": 13, "velocity": 67}, {"time": 83, "pitch": 54, "duration": 7, "velocity": 76}, {"time": 89, "pitch": 62, "duration": 15, "velocity": 81}, {"time": 89, "pitch": 66, "duration": 15, "velocity": 92}, {"time": 95, "pitch": 59, "duration": 6, "velocity": 70}, {"time": 101, "pitch": 47, "duration": 21, "velocity": 58}, {"time": 107, "pitch": 59, "duration": 6, "velocity": 64}, {"time": 113, "pitch": 62, "duration": 18, "velocity": 65}, {"time": 113, "pitch": 66, "duration": 18, "velocity": 62}, {"time": 122, "pitch": 59, "duration": 3, "velocity": 71}, {"time": 125, "pitch": 47, "duration": 12, "velocity": 72}, {"time": 131, "pitch": 54, "duration": 6, "velocity": 55}, {"time": 137, "pitch": 62, "duration": 11, "velocity": 77}, {"time": 137, "pitch": 66, "duration": 11, "velocity": 88}, {"time": 143, "pitch": 59, "duration": 6, "velocity": 62}, {"time": 149, "pitch": 42, "duration": 21, "velocity": 69}, {"time": 155, "pitch": 49, "duration": 16, "velocity": 35}, {"time": 161, "pitch": 61, "duration": 19, "velocity": 67}, {"time": 161, "pitch": 66, "duration": 19, "velocity": 70}, {"time": 170, "pitch": 57, "duration": 5, "velocity": 46}, {"time": 173, "pitch": 42, "duration": 14, "velocity": 85}, {"time": 179, "pitch": 49, "duration": 8, "velocity": 54}, {"time": 185, "pitch": 61, "duration": 12, "velocity": 89}, {"time": 185, "pitch": 66, "duration": 12, "velocity": 71}, {"time": 191, "pitch": 57, "duration": 5, "velocity": 72}, {"time": 197, "pitch": 47, "duration": 21, "velocity": 70}, {"time": 203, "pitch": 54, "duration": 17, "velocity": 75}, {"time": 209, "pitch": 62, "duration": 21, "velocity": 68}, {"time": 209, "pitch": 66, "duration": 21, "velocity": 85}, {"time": 218, "pitch": 59, "duration": 5, "velocity": 35}, {"time": 221, "pitch": 47, "duration": 19, "velocity": 70}, {"time": 227, "pitch": 54, "duration": 16, "velocity": 86}, {"time": 233, "pitch": 62, "duration": 13, "velocity": 76}, {"time": 233, "pitch": 66, "duration": 13, "velocity": 79}, {"time": 239, "pitch": 59, "duration": 6, "velocity": 73}, {"time": 245, "pitch": 47, "duration": 22, "velocity": 79}, {"time": 251, "pitch": 54, "duration": 17, "velocity": 69}, {"time": 257, "pitch": 62, "duration": 20, "velocity": 72}, {"time": 257, "pitch": 66, "duration": 20, "velocity": 72}, {"time": 266, "pitch": 59, "duration": 11, "velocity": 73}, {"time": 269, "pitch": 47, "duration": 21, "velocity": 75}, {"time": 275, "pitch": 54, "duration": 18, "velocity": 78}, {"time": 281, "pitch": 62, "duration": 20, "velocity": 71}, {"time": 281, "pitch": 66, "duration": 20, "velocity": 86}, {"time": 287, "pitch": 59, "duration": 12, "velocity": 62}, {"time": 293, "pitch": 47, "duration": 21, "velocity": 70}, {"time": 299, "pitch": 54, "duration": 16, "velocity": 56}, {"time": 305, "pitch": 62, "duration": 20, "velocity": 75}, {"time": 305, "pitch": 66, "duration": 19, "velocity": 78}, {"time": 311, "pitch": 59, "duration": 10, "velocity": 69}, {"time": 317, "pitch": 47, "duration": 15, "velocity": 73}, {"time": 323, "pitch": 54, "duration": 6, "velocity": 71}, {"time": 329, "pitch": 62, "duration": 12, "velocity": 75}, {"time": 329, "pitch": 66, "duration": 12, "velocity": 92}, {"time": 335, "pitch": 57, "duration": 7, "velocity": 70}, {"time": 341, "pitch": 43, "duration": 20, "velocity": 66}, {"time": 347, "pitch": 50, "duration": 15, "velocity": 52}, {"time": 353, "pitch": 59, "duration": 16, "velocity": 70}, {"time": 353, "pitch": 62, "duration": 17, "velocity": 75}, {"time": 362, "pitch": 55, "duration": 4, "velocity": 56}, {"time": 365, "pitch": 43, "duration": 12, "velocity": 76}, {"time": 371, "pitch": 50, "duration": 7, "velocity": 76}, {"time": 377, "pitch": 59, "duration": 11, "velocity": 73}, {"time": 377, "pitch": 62, "duration": 12, "velocity": 68}, {"time": 383, "pitch": 55, "duration": 5, "velocity": 69}, {"time": 389, "pitch": 42, "duration": 20, "velocity": 79}, {"time": 395, "pitch": 49, "duration": 16, "velocity": 51}, {"time": 401, "pitch": 61, "duration": 21, "velocity": 62}, {"time": 401, "pitch": 66, "duration": 21, "velocity": 66}, {"time": 410, "pitch": 57, "duration": 9, "velocity": 70}, {"time": 413, "pitch": 42, "duration": 13, "velocity": 78}, {"time": 419, "pitch": 49, "duration": 7, "velocity": 69}, {"time": 425, "pitch": 61, "duration": 12, "velocity": 78}, {"time": 425, "pitch": 66, "duration": 13, "velocity": 66}, {"time": 431, "pitch": 57, "duration": 6, "velocity": 76}, {"time": 437, "pitch": 47, "duration": 21, "velocity": 66}, {"time": 443, "pitch": 54, "duration": 18, "velocity": 83}, {"time": 449, "pitch": 62, "duration": 20, "velocity": 72}, {"time": 449, "pitch": 66, "duration": 20, "velocity": 61}, {"time": 455, "pitch": 59, "duration": 7, "velocity": 62}, {"time": 461, "pitch": 47, "duration": 21, "velocity": 69}, {"time": 467, "pitch": 54, "duration": 16, "velocity": 79}, {"time": 473, "pitch": 62, "duration": 19, "velocity": 73}, {"time": 473, "pitch": 66, "duration": 19, "velocity": 65}, {"time": 479, "pitch": 59, "duration": 13, "velocity": 55}, {"time": 485, "pitch": 47, "duration": 22, "velocity": 68}, {"time": 491, "pitch": 54, "duration": 17, "velocity": 66}, {"time": 497, "pitch": 62, "duration": 20, "velocity": 73}, {"time": 497, "pitch": 66, "duration": 19, "velocity": 85}, {"time": 506, "pitch": 59, "duration": 10, "velocity": 78}, {"time": 509, "pitch": 47, "duration": 14, "velocity": 68}, {"time": 515, "pitch": 54, "duration": 6, "velocity": 76}, {"time": 521, "pitch": 62, "duration": 8, "velocity": 81}, {"time": 521, "pitch": 66, "duration": 8, "velocity": 89}, {"time": 527, "pitch": 57, "duration": 6, "velocity": 63}, {"time": 533, "pitch": 47, "duration": 22, "velocity": 71}, {"time": 539, "pitch": 54, "duration": 17, "velocity": 59}, {"time": 545, "pitch": 62, "duration": 20, "velocity": 70}, {"time": 545, "pitch": 66, "duration": 20, "velocity": 82}, {"time": 554, "pitch": 59, "duration": 10, "velocity": 82}, {"time": 557, "pitch": 47, "duration": 13, "velocity": 63}, {"time": 563, "pitch": 54, "duration": 6, "velocity": 63}, {"time": 569, "pitch": 62, "duration": 11, "velocity": 76}, {"time": 569, "pitch": 66, "duration": 11, "velocity": 71}, {"time": 575, "pitch": 59, "duration": 6, "velocity": 72}, {"time": 581, "pitch": 43, "duration": 21, "velocity": 75}, {"time": 587, "pitch": 50, "duration": 17, "velocity": 65}, {"time": 593, "pitch": 59, "duration": 15, "velocity": 72}, {"time": 593, "pitch": 62, "duration": 15, "velocity": 78}, {"time": 602, "pitch": 55, "duration": 4, "velocity": 78}, {"time": 605, "pitch": 43, "duration": 11, "velocity": 69}, {"time": 611, "pitch": 50, "duration": 6, "velocity": 76}, {"time": 617, "pitch": 59, "duration": 10, "velocity": 75}, {"time": 617, "pitch": 62, "duration": 11, "velocity": 74}, {"time": 623, "pitch": 55, "duration": 6, "velocity": 79}, {"time": 629, "pitch": 40, "duration": 22, "velocity": 77}, {"time": 635, "pitch": 47, "duration": 17, "velocity": 53}, {"time": 641, "pitch": 59, "duration": 18, "velocity": 69}, {"time": 641, "pitch": 64, "duration": 19, "velocity": 79}, {"time": 650, "pitch": 55, "duration": 10, "velocity": 76}, {"time": 653, "pitch": 40, "duration": 12, "velocity": 79}, {"time": 659, "pitch": 47, "duration": 7, "velocity": 59}, {"time": 665, "pitch": 59, "duration": 11, "velocity": 78}, {"time": 665, "pitch": 64, "duration": 12, "velocity": 79}, {"time": 671, "pitch": 55, "duration": 5, "velocity": 75}, {"time": 677, "pitch": 45, "duration": 22, "velocity": 67}, {"time": 683, "pitch": 52, "duration": 16, "velocity": 39}, {"time": 689, "pitch": 61, "duration": 19, "velocity": 85}, {"time": 689, "pitch": 64, "duration": 19, "velocity": 72}, {"time": 698, "pitch": 57, "duration": 4, "velocity": 81}, {"time": 701, "pitch": 45, "duration": 21, "velocity": 72}, {"time": 707, "pitch": 52, "duration": 15, "velocity": 63}, {"time": 713, "pitch": 61, "duration": 13, "velocity": 92}, {"time": 713, "pitch": 64, "duration": 13, "velocity": 70}, {"time": 719, "pitch": 57, "duration": 6, "velocity": 78}, {"time": 725, "pitch": 45, "duration": 14, "velocity": 66}, {"time": 731, "pitch": 52, "duration": 15, "velocity": 58}, {"time": 737, "pitch": 61, "duration": 13, "velocity": 83}, {"time": 737, "pitch": 64, "duration": 13, "velocity": 69}, {"time": 746, "pitch": 57, "duration": 3, "velocity": 75}, {"time": 749, "pitch": 45, "duration": 16, "velocity": 74}, {"time": 755, "pitch": 52, "duration": 15, "velocity": 69}, {"time": 761, "pitch": 61, "duration": 11, "velocity": 90}, {"time": 761, "pitch": 64, "duration": 11, "velocity": 69}, {"time": 767, "pitch": 57, "duration": 5, "velocity": 81}, {"time": 773, "pitch": 47, "duration": 22, "velocity": 66}, {"time": 779, "pitch": 54, "duration": 17, "velocity": 66}, {"time": 785, "pitch": 62, "duration": 17, "velocity": 78}, {"time": 785, "pitch": 66, "duration": 22, "velocity": 83}, {"time": 794, "pitch": 59, "duration": 4, "velocity": 72}, {"time": 797, "pitch": 47, "duration": 20, "velocity": 64}, {"time": 803, "pitch": 54, "duration": 16, "velocity": 60}, {"time": 809, "pitch": 61, "duration": 10, "velocity": 65}, {"time": 809, "pitch": 66, "duration": 15, "velocity": 29}, {"time": 815, "pitch": 62, "duration": 6, "velocity": 58}, {"time": 821, "pitch": 47, "duration": 45, "velocity": 65}, {"time": 827, "pitch": 54, "duration": 21, "velocity": 63}, {"time": 833, "pitch": 66, "duration": 10, "velocity": 69}, {"time": 839, "pitch": 59, "duration": 8, "velocity": 64}, {"time": 845, "pitch": 62, "duration": 6, "velocity": 69}, {"time": 845, "pitch": 66, "duration": 33, "velocity": 60}, {"time": 851, "pitch": 54, "duration": 17, "velocity": 79}, {"time": 857, "pitch": 61, "duration": 10, "velocity": 67}, {"time": 863, "pitch": 62, "duration": 12, "velocity": 56}, {"time": 869, "pitch": 47, "duration": 44, "velocity": 68}, {"time": 875, "pitch": 54, "duration": 9, "velocity": 59}, {"time": 881, "pitch": 62, "duration": 10, "velocity": 60}, {"time": 881, "pitch": 66, "duration": 5, "velocity": 34}, {"time": 887, "pitch": 54, "duration": 8, "velocity": 69}, {"time": 893, "pitch": 62, "duration": 12, "velocity": 69}, {"time": 893, "pitch": 66, "duration": 31, "velocity": 66}, {"time": 899, "pitch": 54, "duration": 15, "velocity": 83}, {"time": 905, "pitch": 59, "duration": 13, "velocity": 77}, {"time": 911, "pitch": 62, "duration": 9, "velocity": 73}, {"time": 917, "pitch": 47, "duration": 21, "velocity": 63}, {"time": 923, "pitch": 54, "duration": 18, "velocity": 52}, {"time": 929, "pitch": 62, "duration": 20, "velocity": 82}, {"time": 929, "pitch": 66, "duration": 21, "velocity": 83}, {"time": 935, "pitch": 59, "duration": 14, "velocity": 70}, {"time": 941, "pitch": 47, "duration": 16, "velocity": 72}, {"time": 947, "pitch": 54, "duration": 7, "velocity": 85}, {"time": 953, "pitch": 62, "duration": 12, "velocity": 83}, {"time": 953, "pitch": 66, "duration": 11, "velocity": 78}, {"time": 959, "pitch": 59, "duration": 7, "velocity": 54}, {"time": 965, "pitch": 43, "duration": 36, "velocity": 68}, {"time": 971, "pitch": 50, "duration": 20, "velocity": 50}, {"time": 977, "pitch": 59, "duration": 11, "velocity": 74}, {"time": 983, "pitch": 55, "duration": 7, "velocity": 72}, {"time": 989, "pitch": 59, "duration": 14, "velocity": 73}, {"time": 989, "pitch": 62, "duration": 23, "velocity": 79}, {"time": 995, "pitch": 50, "duration": 5, "velocity": 73}, {"time": 1001, "pitch": 55, "duration": 10, "velocity": 88}, {"time": 1007, "pitch": 59, "duration": 5, "velocity": 70}, {"time": 1010, "pitch": 40, "duration": 45, "velocity": 79}, {"time": 1019, "pitch": 47, "duration": 43, "velocity": 40}, {"time": 1025, "pitch": 64, "duration": 11, "velocity": 81}, {"time": 1031, "pitch": 52, "duration": 8, "velocity": 75}, {"time": 1037, "pitch": 64, "duration": 10, "velocity": 69}, {"time": 1037, "pitch": 67, "duration": 9, "velocity": 67}, {"time": 1043, "pitch": 52, "duration": 24, "velocity": 79}, {"time": 1049, "pitch": 64, "duration": 20, "velocity": 69}, {"time": 1049, "pitch": 67, "duration": 20, "velocity": 67}, {"time": 1055, "pitch": 59, "duration": 15, "velocity": 67}, {"time": 1061, "pitch": 40, "duration": 37, "velocity": 67}, {"time": 1067, "pitch": 47, "duration": 31, "velocity": 55}, {"time": 1073, "pitch": 59, "duration": 10, "velocity": 43}, {"time": 1073, "pitch": 64, "duration": 9, "velocity": 79}, {"time": 1073, "pitch": 67, "duration": 9, "velocity": 73}, {"time": 1079, "pitch": 52, "duration": 8, "velocity": 81}, {"time": 1085, "pitch": 59, "duration": 8, "velocity": 43}, {"time": 1085, "pitch": 64, "duration": 8, "velocity": 75}, {"time": 1085, "pitch": 67, "duration": 8, "velocity": 74}, {"time": 1091, "pitch": 52, "duration": 9, "velocity": 68}, {"time": 1097, "pitch": 64, "duration": 10, "velocity": 77}, {"time": 1097, "pitch": 67, "duration": 11, "velocity": 73}, {"time": 1103, "pitch": 59, "duration": 14, "velocity": 73}, {"time": 1109, "pitch": 47, "duration": 20, "velocity": 72}, {"time": 1115, "pitch": 54, "duration": 8, "velocity": 69}, {"time": 1121, "pitch": 62, "duration": 13, "velocity": 72}, {"time": 1121, "pitch": 66, "duration": 12, "velocity": 95}, {"time": 1124, "pitch": 54, "duration": 2, "velocity": 55}, {"time": 1127, "pitch": 59, "duration": 7, "velocity": 85}, {"time": 1133, "pitch": 40, "duration": 13, "velocity": 74}, {"time": 1139, "pitch": 59, "duration": 7, "velocity": 78}, {"time": 1145, "pitch": 64, "duration": 10, "velocity": 85}, {"time": 1145, "pitch": 67, "duration": 10, "velocity": 78}, {"time": 1151, "pitch": 59, "duration": 7, "velocity": 71}, {"time": 1157, "pitch": 42, "duration": 36, "velocity": 81}, {"time": 1163, "pitch": 49, "duration": 29, "velocity": 52}, {"time": 1169, "pitch": 57, "duration": 19, "velocity": 76}, {"time": 1169, "pitch": 61, "duration": 11, "velocity": 64}, {"time": 1175, "pitch": 54, "duration": 8, "velocity": 79}, {"time": 1181, "pitch": 61, "duration": 5, "velocity": 42}, {"time": 1181, "pitch": 66, "duration": 26, "velocity": 96}, {"time": 1187, "pitch": 54, "duration": 8, "velocity": 88}, {"time": 1193, "pitch": 61, "duration": 11, "velocity": 75}, {"time": 1199, "pitch": 57, "duration": 6, "velocity": 82}, {"time": 1205, "pitch": 47, "duration": 45, "velocity": 70}, {"time": 1211, "pitch": 54, "duration": 9, "velocity": 86}, {"time": 1217, "pitch": 62, "duration": 11, "velocity": 74}, {"time": 1223, "pitch": 54, "duration": 8, "velocity": 63}, {"time": 1229, "pitch": 62, "duration": 9, "velocity": 70}, {"time": 1229, "pitch": 66, "duration": 34, "velocity": 70}, {"time": 1235, "pitch": 54, "duration": 16, "velocity": 76}, {"time": 1241, "pitch": 59, "duration": 15, "velocity": 82}, {"time": 1247, "pitch": 62, "duration": 13, "velocity": 66}, {"time": 1253, "pitch": 47, "duration": 45, "velocity": 76}, {"time": 1259, "pitch": 54, "duration": 10, "velocity": 70}, {"time": 1265, "pitch": 62, "duration": 10, "velocity": 88}, {"time": 1271, "pitch": 54, "duration": 8, "velocity": 78}, {"time": 1277, "pitch": 62, "duration": 12, "velocity": 72}, {"time": 1277, "pitch": 66, "duration": 32, "velocity": 92}, {"time": 1283, "pitch": 54, "duration": 18, "velocity": 73}, {"time": 1289, "pitch": 59, "duration": 16, "velocity": 76}, {"time": 1295, "pitch": 62, "duration": 12, "velocity": 69}, {"time": 1301, "pitch": 47, "duration": 37, "velocity": 71}, {"time": 1307, "pitch": 54, "duration": 8, "velocity": 58}, {"time": 1307, "pitch": 59, "duration": 2, "velocity": 28}, {"time": 1313, "pitch": 59, "duration": 13, "velocity": 73}, {"time": 1319, "pitch": 54, "duration": 8, "velocity": 70}, {"time": 1325, "pitch": 62, "duration": 10, "velocity": 67}, {"time": 1325, "pitch": 66, "duration": 19, "velocity": 90}, {"time": 1331, "pitch": 54, "duration": 5, "velocity": 77}, {"time": 1337, "pitch": 59, "duration": 15, "velocity": 90}, {"time": 1343, "pitch": 62, "duration": 9, "velocity": 74}, {"time": 1349, "pitch": 43, "duration": 37, "velocity": 72}, {"time": 1355, "pitch": 50, "duration": 30, "velocity": 56}, {"time": 1361, "pitch": 59, "duration": 14, "velocity": 85}, {"time": 1367, "pitch": 55, "duration": 7, "velocity": 70}, {"time": 1373, "pitch": 62, "duration": 13, "velocity": 68}, {"time": 1373, "pitch": 67, "duration": 28, "velocity": 69}, {"time": 1379, "pitch": 55, "duration": 5, "velocity": 76}, {"time": 1385, "pitch": 59, "duration": 15, "velocity": 82}, {"time": 1391, "pitch": 62, "duration": 5, "velocity": 59}, {"time": 1397, "pitch": 40, "duration": 44, "velocity": 76}, {"time": 1403, "pitch": 47, "duration": 42, "velocity": 39}, {"time": 1409, "pitch": 64, "duration": 25, "velocity": 76}, {"time": 1415, "pitch": 52, "duration": 7, "velocity": 70}, {"time": 1421, "pitch": 67, "duration": 41, "velocity": 72}, {"time": 1427, "pitch": 52, "duration": 27, "velocity": 71}, {"time": 1433, "pitch": 59, "duration": 20, "velocity": 75}, {"time": 1439, "pitch": 64, "duration": 14, "velocity": 59}, {"time": 1445, "pitch": 40, "duration": 34, "velocity": 82}, {"time": 1451, "pitch": 47, "duration": 28, "velocity": 59}, {"time": 1457, "pitch": 59, "duration": 21, "velocity": 78}, {"time": 1463, "pitch": 52, "duration": 9, "velocity": 75}, {"time": 1469, "pitch": 67, "duration": 21, "velocity": 88}, {"time": 1475, "pitch": 52, "duration": 7, "velocity": 71}, {"time": 1481, "pitch": 64, "duration": 9, "velocity": 85}, {"time": 1487, "pitch": 59, "duration": 10, "velocity": 74}, {"time": 1493, "pitch": 47, "duration": 10, "velocity": 64}, {"time": 1499, "pitch": 54, "duration": 5, "velocity": 68}, {"time": 1505, "pitch": 62, "duration": 9, "velocity": 65}, {"time": 1505, "pitch": 66, "duration": 10, "velocity": 82}, {"time": 1511, "pitch": 59, "duration": 6, "velocity": 67}, {"time": 1517, "pitch": 40, "duration": 13, "velocity": 73}, {"time": 1523, "pitch": 47, "duration": 8, "velocity": 66}, {"time": 1529, "pitch": 64, "duration": 12, "velocity": 78}, {"time": 1529, "pitch": 67, "duration": 12, "velocity": 76}, {"time": 1535, "pitch": 59, "duration": 8, "velocity": 59}, {"time": 1541, "pitch": 47, "duration": 44, "velocity": 70}, {"time": 1547, "pitch": 54, "duration": 9, "velocity": 59}, {"time": 1553, "pitch": 59, "duration": 14, "velocity": 82}, {"time": 1559, "pitch": 54, "duration": 9, "velocity": 71}, {"time": 1565, "pitch": 62, "duration": 8, "velocity": 79}, {"time": 1571, "pitch": 54, "duration": 16, "velocity": 61}, {"time": 1577, "pitch": 61, "duration": 8, "velocity": 90}, {"time": 1583, "pitch": 62, "duration": 5, "velocity": 52}, {"time": 1589, "pitch": 47, "duration": 44, "velocity": 72}, {"time": 1595, "pitch": 54, "duration": 8, "velocity": 51}, {"time": 1601, "pitch": 59, "duration": 17, "velocity": 83}, {"time": 1607, "pitch": 54, "duration": 9, "velocity": 74}, {"time": 1613, "pitch": 61, "duration": 15, "velocity": 112}, {"time": 1619, "pitch": 54, "duration": 8, "velocity": 89}, {"time": 1625, "pitch": 62, "duration": 9, "velocity": 96}, {"time": 1631, "pitch": 66, "duration": 8, "velocity": 75}, {"time": 1637, "pitch": 47, "duration": 22, "velocity": 90}, {"time": 1643, "pitch": 54, "duration": 17, "velocity": 66}, {"time": 1649, "pitch": 62, "duration": 19, "velocity": 93}, {"time": 1649, "pitch": 66, "duration": 19, "velocity": 102}, {"time": 1658, "pitch": 59, "duration": 9, "velocity": 86}, {"time": 1661, "pitch": 47, "duration": 20, "velocity": 82}, {"time": 1667, "pitch": 54, "duration": 15, "velocity": 82}, {"time": 1673, "pitch": 62, "duration": 12, "velocity": 96}, {"time": 1673, "pitch": 66, "duration": 14, "velocity": 112}, {"time": 1679, "pitch": 59, "duration": 7, "velocity": 79}, {"time": 1685, "pitch": 47, "duration": 22, "velocity": 76}, {"time": 1691, "pitch": 54, "duration": 17, "velocity": 92}, {"time": 1697, "pitch": 62, "duration": 16, "velocity": 89}, {"time": 1697, "pitch": 66, "duration": 16, "velocity": 96}, {"time": 1706, "pitch": 59, "duration": 8, "velocity": 93}, {"time": 1709, "pitch": 47, "duration": 11, "velocity": 86}, {"time": 1715, "pitch": 54, "duration": 5, "velocity": 97}, {"time": 1721, "pitch": 62, "duration": 11, "velocity": 95}, {"time": 1721, "pitch": 66, "duration": 12, "velocity": 107}, {"time": 1727, "pitch": 59, "duration": 6, "velocity": 83}, {"time": 1733, "pitch": 42, "duration": 21, "velocity": 89}, {"time": 1739, "pitch": 54, "duration": 15, "velocity": 46}, {"time": 1742, "pitch": 49, "duration": 14, "velocity": 22}, {"time": 1745, "pitch": 61, "duration": 20, "velocity": 93}, {"time": 1745, "pitch": 66, "duration": 20, "velocity": 93}, {"time": 1754, "pitch": 57, "duration": 9, "velocity": 92}, {"time": 1757, "pitch": 42, "duration": 18, "velocity": 83}, {"time": 1763, "pitch": 49, "duration": 12, "velocity": 50}, {"time": 1769, "pitch": 61, "duration": 13, "velocity": 99}, {"time": 1769, "pitch": 66, "duration": 15, "velocity": 93}, {"time": 1775, "pitch": 57, "duration": 7, "velocity": 92}, {"time": 1781, "pitch": 47, "duration": 22, "velocity": 63}, {"time": 1787, "pitch": 54, "duration": 17, "velocity": 88}, {"time": 1793, "pitch": 59, "duration": 19, "velocity": 89}, {"time": 1802, "pitch": 62, "duration": 10, "velocity": 66}, {"time": 1802, "pitch": 66, "duration": 10, "velocity": 77}, {"time": 1805, "pitch": 47, "duration": 20, "velocity": 83}, {"time": 1811, "pitch": 54, "duration": 16, "velocity": 92}, {"time": 1817, "pitch": 62, "duration": 3, "velocity": 79}, {"time": 1817, "pitch": 66, "duration": 15, "velocity": 102}, {"time": 1823, "pitch": 61, "duration": 6, "velocity": 89}, {"time": 1829, "pitch": 47, "duration": 22, "velocity": 66}, {"time": 1835, "pitch": 54, "duration": 16, "velocity": 90}, {"time": 1841, "pitch": 62, "duration": 7, "velocity": 82}, {"time": 1841, "pitch": 66, "duration": 7, "velocity": 95}, {"time": 1850, "pitch": 62, "duration": 11, "velocity": 83}, {"time": 1850, "pitch": 66, "duration": 11, "velocity": 67}, {"time": 1853, "pitch": 47, "duration": 20, "velocity": 77}, {"time": 1859, "pitch": 54, "duration": 16, "velocity": 86}, {"time": 1865, "pitch": 62, "duration": 20, "velocity": 90}, {"time": 1865, "pitch": 66, "duration": 20, "velocity": 97}, {"time": 1871, "pitch": 59, "duration": 8, "velocity": 83}, {"time": 1877, "pitch": 47, "duration": 22, "velocity": 72}, {"time": 1883, "pitch": 54, "duration": 17, "velocity": 74}, {"time": 1889, "pitch": 62, "duration": 20, "velocity": 86}, {"time": 1889, "pitch": 66, "duration": 19, "velocity": 96}, {"time": 1898, "pitch": 59, "duration": 10, "velocity": 76}, {"time": 1901, "pitch": 47, "duration": 13, "velocity": 74}, {"time": 1907, "pitch": 54, "duration": 6, "velocity": 85}, {"time": 1913, "pitch": 62, "duration": 11, "velocity": 96}, {"time": 1913, "pitch": 66, "duration": 11, "velocity": 102}, {"time": 1919, "pitch": 45, "duration": 5, "velocity": 74}, {"time": 1925, "pitch": 43, "duration": 20, "velocity": 72}, {"time": 1931, "pitch": 50, "duration": 16, "velocity": 55}, {"time": 1937, "pitch": 59, "duration": 18, "velocity": 76}, {"time": 1937, "pitch": 62, "duration": 18, "velocity": 79}, {"time": 1946, "pitch": 55, "duration": 6, "velocity": 79}, {"time": 1949, "pitch": 43, "duration": 13, "velocity": 79}, {"time": 1955, "pitch": 50, "duration": 7, "velocity": 85}, {"time": 1961, "pitch": 59, "duration": 12, "velocity": 85}, {"time": 1961, "pitch": 62, "duration": 12, "velocity": 83}, {"time": 1967, "pitch": 55, "duration": 5, "velocity": 79}, {"time": 1973, "pitch": 42, "duration": 21, "velocity": 76}, {"time": 1979, "pitch": 49, "duration": 16, "velocity": 59}, {"time": 1985, "pitch": 61, "duration": 20, "velocity": 79}, {"time": 1985, "pitch": 66, "duration": 20, "velocity": 76}, {"time": 1994, "pitch": 57, "duration": 7, "velocity": 82}, {"time": 1997, "pitch": 42, "duration": 14, "velocity": 83}, {"time": 2003, "pitch": 49, "duration": 8, "velocity": 68}, {"time": 2009, "pitch": 61, "duration": 11, "velocity": 97}, {"time": 2009, "pitch": 66, "duration": 12, "velocity": 92}, {"time": 2015, "pitch": 57, "duration": 6, "velocity": 74}, {"time": 2021, "pitch": 47, "duration": 21, "velocity": 67}, {"time": 2027, "pitch": 54, "duration": 17, "velocity": 82}, {"time": 2033, "pitch": 62, "duration": 20, "velocity": 79}, {"time": 2033, "pitch": 66, "duration": 20, "velocity": 86}, {"time": 2042, "pitch": 59, "duration": 4, "velocity": 81}, {"time": 2045, "pitch": 47, "duration": 20, "velocity": 81}, {"time": 2051, "pitch": 54, "duration": 16, "velocity": 93}, {"time": 2057, "pitch": 62, "duration": 20, "velocity": 88}, {"time": 2057, "pitch": 66, "duration": 20, "velocity": 95}, {"time": 2063, "pitch": 59, "duration": 6, "velocity": 85}, {"time": 2069, "pitch": 47, "duration": 21, "velocity": 72}, {"time": 2075, "pitch": 54, "duration": 16, "velocity": 70}, {"time": 2081, "pitch": 62, "duration": 20, "velocity": 82}, {"time": 2081, "pitch": 66, "duration": 20, "velocity": 96}, {"time": 2090, "pitch": 59, "duration": 3, "velocity": 88}, {"time": 2093, "pitch": 47, "duration": 20, "velocity": 76}, {"time": 2099, "pitch": 54, "duration": 16, "velocity": 79}, {"time": 2105, "pitch": 62, "duration": 17, "velocity": 85}, {"time": 2105, "pitch": 66, "duration": 17, "velocity": 96}, {"time": 2111, "pitch": 59, "duration": 6, "velocity": 92}, {"time": 2117, "pitch": 47, "duration": 21, "velocity": 77}, {"time": 2123, "pitch": 54, "duration": 16, "velocity": 85}, {"time": 2129, "pitch": 62, "duration": 20, "velocity": 83}, {"time": 2129, "pitch": 66, "duration": 20, "velocity": 95}, {"time": 2138, "pitch": 59, "duration": 4, "velocity": 96}, {"time": 2141, "pitch": 47, "duration": 14, "velocity": 79}, {"time": 2147, "pitch": 54, "duration": 7, "velocity": 95}, {"time": 2153, "pitch": 62, "duration": 9, "velocity": 95}, {"time": 2153, "pitch": 66, "duration": 9, "velocity": 102}, {"time": 2159, "pitch": 59, "duration": 6, "velocity": 92}, {"time": 2165, "pitch": 43, "duration": 18, "velocity": 78}, {"time": 2171, "pitch": 50, "duration": 16, "velocity": 66}, {"time": 2177, "pitch": 59, "duration": 16, "velocity": 76}, {"time": 2177, "pitch": 62, "duration": 18, "velocity": 82}, {"time": 2186, "pitch": 55, "duration": 3, "velocity": 89}, {"time": 2189, "pitch": 43, "duration": 13, "velocity": 86}, {"time": 2195, "pitch": 50, "duration": 7, "velocity": 85}, {"time": 2201, "pitch": 59, "duration": 11, "velocity": 89}, {"time": 2201, "pitch": 62, "duration": 11, "velocity": 86}, {"time": 2207, "pitch": 55, "duration": 5, "velocity": 89}, {"time": 2213, "pitch": 40, "duration": 21, "velocity": 74}, {"time": 2219, "pitch": 47, "duration": 16, "velocity": 52}, {"time": 2225, "pitch": 64, "duration": 20, "velocity": 81}, {"time": 2225, "pitch": 67, "duration": 20, "velocity": 73}, {"time": 2234, "pitch": 59, "duration": 10, "velocity": 90}, {"time": 2237, "pitch": 40, "duration": 18, "velocity": 77}, {"time": 2243, "pitch": 47, "duration": 14, "velocity": 79}, {"time": 2249, "pitch": 52, "duration": 11, "velocity": 77}, {"time": 2255, "pitch": 64, "duration": 6, "velocity": 81}, {"time": 2255, "pitch": 67, "duration": 6, "velocity": 73}, {"time": 2261, "pitch": 45, "duration": 21, "velocity": 86}, {"time": 2267, "pitch": 52, "duration": 16, "velocity": 63}, {"time": 2273, "pitch": 61, "duration": 18, "velocity": 89}, {"time": 2273, "pitch": 64, "duration": 18, "velocity": 81}, {"time": 2282, "pitch": 57, "duration": 4, "velocity": 85}, {"time": 2285, "pitch": 45, "duration": 20, "velocity": 72}, {"time": 2291, "pitch": 52, "duration": 16, "velocity": 86}, {"time": 2297, "pitch": 61, "duration": 15, "velocity": 95}, {"time": 2297, "pitch": 64, "duration": 16, "velocity": 78}, {"time": 2303, "pitch": 57, "duration": 5, "velocity": 86}, {"time": 2309, "pitch": 45, "duration": 19, "velocity": 72}, {"time": 2315, "pitch": 52, "duration": 16, "velocity": 78}, {"time": 2321, "pitch": 61, "duration": 14, "velocity": 99}, {"time": 2321, "pitch": 64, "duration": 14, "velocity": 85}, {"time": 2330, "pitch": 57, "duration": 2, "velocity": 92}, {"time": 2333, "pitch": 45, "duration": 20, "velocity": 83}, {"time": 2339, "pitch": 52, "duration": 15, "velocity": 90}, {"time": 2345, "pitch": 61, "duration": 8, "velocity": 100}, {"time": 2345, "pitch": 64, "duration": 10, "velocity": 88}, {"time": 2351, "pitch": 57, "duration": 5, "velocity": 86}, {"time": 2357, "pitch": 47, "duration": 22, "velocity": 75}, {"time": 2363, "pitch": 54, "duration": 16, "velocity": 85}, {"time": 2369, "pitch": 62, "duration": 12, "velocity": 95}, {"time": 2369, "pitch": 66, "duration": 12, "velocity": 102}, {"time": 2378, "pitch": 59, "duration": 3, "velocity": 92}, {"time": 2381, "pitch": 47, "duration": 19, "velocity": 74}, {"time": 2387, "pitch": 54, "duration": 9, "velocity": 92}, {"time": 2393, "pitch": 62, "duration": 11, "velocity": 95}, {"time": 2393, "pitch": 66, "duration": 11, "velocity": 100}, {"time": 2399, "pitch": 59, "duration": 5, "velocity": 93}, {"time": 2405, "pitch": 47, "duration": 22, "velocity": 73}, {"time": 2411, "pitch": 54, "duration": 17, "velocity": 55}, {"time": 2417, "pitch": 62, "duration": 19, "velocity": 76}, {"time": 2417, "pitch": 66, "duration": 19, "velocity": 75}, {"time": 2426, "pitch": 59, "duration": 4, "velocity": 77}, {"time": 2429, "pitch": 47, "duration": 13, "velocity": 67}, {"time": 2435, "pitch": 54, "duration": 7, "velocity": 76}, {"time": 2441, "pitch": 62, "duration": 15, "velocity": 81}, {"time": 2441, "pitch": 66, "duration": 15, "velocity": 92}, {"time": 2447, "pitch": 59, "duration": 6, "velocity": 70}, {"time": 2453, "pitch": 47, "duration": 21, "velocity": 58}, {"time": 2459, "pitch": 59, "duration": 6, "velocity": 64}, {"time": 2465, "pitch": 62, "duration": 18, "velocity": 65}, {"time": 2465, "pitch": 66, "duration": 18, "velocity": 62}, {"time": 2474, "pitch": 59, "duration": 3, "velocity": 71}, {"time": 2477, "pitch": 47, "duration": 12, "velocity": 72}, {"time": 2483, "pitch": 54, "duration": 6, "velocity": 55}, {"time": 2489, "pitch": 62, "duration": 11, "velocity": 77}, {"time": 2489, "pitch": 66, "duration": 11, "velocity": 88}, {"time": 2495, "pitch": 59, "duration": 6, "velocity": 62}, {"time": 2501, "pitch": 42, "duration": 21, "velocity": 69}, {"time": 2507, "pitch": 49, "duration": 16, "velocity": 35}, {"time": 2513, "pitch": 61, "duration": 19, "velocity": 67}, {"time": 2513, "pitch": 66, "duration": 19, "velocity": 70}, {"time": 2522, "pitch": 57, "duration": 5, "velocity": 46}, {"time": 2525, "pitch": 42, "duration": 14, "velocity": 85}, {"time": 2531, "pitch": 49, "duration": 8, "velocity": 54}, {"time": 2537, "pitch": 61, "duration": 12, "velocity": 89}, {"time": 2537, "pitch": 66, "duration": 12, "velocity": 71}, {"time": 2543, "pitch": 57, "duration": 5, "velocity": 72}, {"time": 2549, "pitch": 47, "duration": 21, "velocity": 70}, {"time": 2555, "pitch": 54, "duration": 17, "velocity": 75}, {"time": 2561, "pitch": 62, "duration": 21, "velocity": 68}, {"time": 2561, "pitch": 66, "duration": 21, "velocity": 85}, {"time": 2570, "pitch": 59, "duration": 5, "velocity": 35}, {"time": 2573, "pitch": 47, "duration": 19, "velocity": 70}, {"time": 2579, "pitch": 54, "duration": 16, "velocity": 86}, {"time": 2585, "pitch": 62, "duration": 13, "velocity": 76}, {"time": 2585, "pitch": 66, "duration": 13, "velocity": 79}, {"time": 2591, "pitch": 59, "duration": 6, "velocity": 73}, {"time": 2597, "pitch": 47, "duration": 22, "velocity": 79}, {"time": 2603, "pitch": 54, "duration": 17, "velocity": 69}, {"time": 2609, "pitch": 62, "duration": 20, "velocity": 72}, {"time": 2609, "pitch": 66, "duration": 20, "velocity": 72}, {"time": 2618, "pitch": 59, "duration": 11, "velocity": 73}, {"time": 2621, "pitch": 47, "duration": 21, "velocity": 75}, {"time": 2627, "pitch": 54, "duration": 18, "velocity": 78}, {"time": 2633, "pitch": 62, "duration": 20, "velocity": 71}, {"time": 2633, "pitch": 66, "duration": 20, "velocity": 86}, {"time": 2639, "pitch": 59, "duration": 12, "velocity": 62}, {"time": 2645, "pitch": 47, "duration": 21, "velocity": 70}, {"time": 2651, "pitch": 54, "duration": 16, "velocity": 56}, {"time": 2657, "pitch": 62, "duration": 20, "velocity": 75}, {"time": 2657, "pitch": 66, "duration": 19, "velocity": 78}, {"time": 2663, "pitch": 59, "duration": 10, "velocity": 69}, {"time": 2669, "pitch": 47, "duration": 15, "velocity": 73}, {"time": 2675, "pitch": 54, "duration": 6, "velocity": 71}, {"time": 2681, "pitch": 62, "duration": 12, "velocity": 75}, {"time": 2681, "pitch": 66, "duration": 12, "velocity": 92}, {"time": 2687, "pitch": 57, "duration": 7, "velocity": 70}, {"time": 2693, "pitch": 43, "duration": 20, "velocity": 66}, {"time": 2699, "pitch": 50, "duration": 15, "velocity": 52}, {"time": 2705, "pitch": 59, "duration": 16, "velocity": 70}, {"time": 2705, "pitch": 62, "duration": 17, "velocity": 75}, {"time": 2714, "pitch": 55, "duration": 4, "velocity": 56}, {"time": 2717, "pitch": 43, "duration": 12, "velocity": 76}, {"time": 2723, "pitch": 50, "duration": 7, "velocity": 76}, {"time": 2729, "pitch": 59, "duration": 11, "velocity": 73}, {"time": 2729, "pitch": 62, "duration": 12, "velocity": 68}, {"time": 2735, "pitch": 55, "duration": 5, "velocity": 69}, {"time": 2741, "pitch": 42, "duration": 20, "velocity": 79}, {"time": 2747, "pitch": 49, "duration": 16, "velocity": 51}, {"time": 2753, "pitch": 61, "duration": 21, "velocity": 62}, {"time": 2753, "pitch": 66, "duration": 21, "velocity": 66}, {"time": 2762, "pitch": 57, "duration": 9, "velocity": 70}, {"time": 2765, "pitch": 42, "duration": 13, "velocity": 78}, {"time": 2771, "pitch": 49, "duration": 7, "velocity": 69}, {"time": 2777, "pitch": 61, "duration": 12, "velocity": 78}, {"time": 2777, "pitch": 66, "duration": 13, "velocity": 66}, {"time": 2783, "pitch": 57, "duration": 6, "velocity": 76}, {"time": 2789, "pitch": 47, "duration": 21, "velocity": 66}, {"time": 2795, "pitch": 54, "duration": 18, "velocity": 83}, {"time": 2801, "pitch": 62, "duration": 20, "velocity": 72}, {"time": 2801, "pitch": 66, "duration": 20, "velocity": 61}, {"time": 2807, "pitch": 59, "duration": 7, "velocity": 62}, {"time": 2813, "pitch": 47, "duration": 21, "velocity": 69}, {"time": 2819, "pitch": 54, "duration": 16, "velocity": 79}, {"time": 2825, "pitch": 62, "duration": 19, "velocity": 73}, {"time": 2825, "pitch": 66, "duration": 19, "velocity": 65}, {"time": 2831, "pitch": 59, "duration": 13, "velocity": 55}, {"time": 2837, "pitch": 47, "duration": 22, "velocity": 68}, {"time": 2843, "pitch": 54, "duration": 17, "velocity": 66}, {"time": 2849, "pitch": 62, "duration": 20, "velocity": 73}, {"time": 2849, "pitch": 66, "duration": 19, "velocity": 85}, {"time": 2858, "pitch": 59, "duration": 10, "velocity": 78}, {"time": 2861, "pitch": 47, "duration": 14, "velocity": 68}, {"time": 2867, "pitch": 54, "duration": 6, "velocity": 76}, {"time": 2873, "pitch": 62, "duration": 8, "velocity": 81}, {"time": 2873, "pitch": 66, "duration": 8, "velocity": 89}, {"time": 2879, "pitch": 57, "duration": 6, "velocity": 63}, {"time": 2885, "pitch": 47, "duration": 22, "velocity": 71}, {"time": 2891, "pitch": 54, "duration": 17, "velocity": 59}, {"time": 2897, "pitch": 62, "duration": 20, "velocity": 70}, {"time": 2897, "pitch": 66, "duration": 20, "velocity": 82}, {"time": 2906, "pitch": 59, "duration": 10, "velocity": 82}, {"time": 2909, "pitch": 47, "duration": 13, "velocity": 63}, {"time": 2915, "pitch": 54, "duration": 6, "velocity": 63}, {"time": 2921, "pitch": 62, "duration": 11, "velocity": 76}, {"time": 2921, "pitch": 66, "duration": 11, "velocity": 71}, {"time": 2927, "pitch": 59, "duration": 6, "velocity": 72}, {"time": 2933, "pitch": 43, "duration": 21, "velocity": 75}, {"time": 2939, "pitch": 50, "duration": 17, "velocity": 65}, {"time": 2945, "pitch": 59, "duration": 15, "velocity": 72}, {"time": 2945, "pitch": 62, "duration": 15, "velocity": 78}, {"time": 2954, "pitch": 55, "duration": 4, "velocity": 78}, {"time": 2957, "pitch": 43, "duration": 11, "velocity": 69}, {"time": 2963, "pitch": 50, "duration": 6, "velocity": 76}, {"time": 2969, "pitch": 59, "duration": 10, "velocity": 75}, {"time": 2969, "pitch": 62, "duration": 11, "velocity": 74}, {"time": 2975, "pitch": 55, "duration": 6, "velocity": 79}, {"time": 2981, "pitch": 40, "duration": 22, "velocity": 77}, {"time": 2987, "pitch": 47, "duration": 17, "velocity": 53}, {"time": 2993, "pitch": 59, "duration": 18, "velocity": 69}, {"time": 2993, "pitch": 64, "duration": 19, "velocity": 79}, {"time": 3002, "pitch": 55, "duration": 10, "velocity": 76}, {"time": 3005, "pitch": 40, "duration": 12, "velocity": 79}, {"time": 3011, "pitch": 47, "duration": 7, "velocity": 59}, {"time": 3017, "pitch": 59, "duration": 11, "velocity": 78}, {"time": 3017, "pitch": 64, "duration": 12, "velocity": 79}, {"time": 3023, "pitch": 55, "duration": 5, "velocity": 75}, {"time": 3029, "pitch": 45, "duration": 22, "velocity": 67}, {"time": 3035, "pitch": 52, "duration": 16, "velocity": 39}, {"time": 3041, "pitch": 61, "duration": 19, "velocity": 85}, {"time": 3041, "pitch": 64, "duration": 19, "velocity": 72}, {"time": 3050, "pitch": 57, "duration": 4, "velocity": 81}, {"time": 3053, "pitch": 45, "duration": 21, "velocity": 72}, {"time": 3059, "pitch": 52, "duration": 15, "velocity": 63}, {"time": 3065, "pitch": 61, "duration": 13, "velocity": 92}, {"time": 3065, "pitch": 64, "duration": 13, "velocity": 70}, {"time": 3071, "pitch": 57, "duration": 6, "velocity": 78}, {"time": 3077, "pitch": 45, "duration": 14, "velocity": 66}, {"time": 3083, "pitch": 52, "duration": 15, "velocity": 58}, {"time": 3089, "pitch": 61, "duration": 13, "velocity": 83}, {"time": 3089, "pitch": 64, "duration": 13, "velocity": 69}, {"time": 3098, "pitch": 57, "duration": 3, "velocity": 75}, {"time": 3101, "pitch": 45, "duration": 16, "velocity": 74}, {"time": 3107, "pitch": 52, "duration": 15, "velocity": 69}, {"time": 3113, "pitch": 61, "duration": 11, "velocity": 90}, {"time": 3113, "pitch": 64, "duration": 11, "velocity": 69}, {"time": 3119, "pitch": 57, "duration": 5, "velocity": 81}, {"time": 3125, "pitch": 47, "duration": 22, "velocity": 66}, {"time": 3131, "pitch": 54, "duration": 17, "velocity": 66}, {"time": 3137, "pitch": 62, "duration": 17, "velocity": 78}, {"time": 3137, "pitch": 66, "duration": 22, "velocity": 83}, {"time": 3146, "pitch": 59, "duration": 4, "velocity": 72}, {"time": 3149, "pitch": 47, "duration": 20, "velocity": 64}, {"time": 3155, "pitch": 54, "duration": 16, "velocity": 60}, {"time": 3161, "pitch": 61, "duration": 10, "velocity": 65}, {"time": 3161, "pitch": 66, "duration": 15, "velocity": 29}, {"time": 3167, "pitch": 62, "duration": 6, "velocity": 58}, {"time": 3173, "pitch": 47, "duration": 45, "velocity": 65}, {"time": 3179, "pitch": 54, "duration": 21, "velocity": 63}, {"time": 3185, "pitch": 66, "duration": 10, "velocity": 69}, {"time": 3191, "pitch": 59, "duration": 8, "velocity": 64}, {"time": 3197, "pitch": 62, "duration": 6, "velocity": 69}, {"time": 3197, "pitch": 66, "duration": 33, "velocity": 60}, {"time": 3203, "pitch": 54, "duration": 17, "velocity": 79}, {"time": 3209, "pitch": 61, "duration": 10, "velocity": 67}, {"time": 3215, "pitch": 62, "duration": 12, "velocity": 56}, {"time": 3221, "pitch": 47, "duration": 44, "velocity": 68}, {"time": 3227, "pitch": 54, "duration": 9, "velocity": 59}, {"time": 3233, "pitch": 62, "duration": 10, "velocity": 60}, {"time": 3233, "pitch": 66, "duration": 5, "velocity": 34}, {"time": 3239, "pitch": 54, "duration": 8, "velocity": 69}, {"time": 3245, "pitch": 62, "duration": 12, "velocity": 69}, {"time": 3245, "pitch": 66, "duration": 31, "velocity": 66}, {"time": 3251, "pitch": 54, "duration": 15, "velocity": 83}, {"time": 3257, "pitch": 59, "duration": 13, "velocity": 77}, {"time": 3263, "pitch": 62, "duration": 9, "velocity": 73}, {"time": 3269, "pitch": 47, "duration": 21, "velocity": 63}, {"time": 3275, "pitch": 54, "duration": 18, "velocity": 52}, {"time": 3281, "pitch": 62, "duration": 20, "velocity": 82}, {"time": 3281, "pitch": 66, "duration": 21, "velocity": 83}, {"time": 3287, "pitch": 59, "duration": 14, "velocity": 70}, {"time": 3293, "pitch": 47, "duration": 16, "velocity": 72}, {"time": 3299, "pitch": 54, "duration": 7, "velocity": 85}, {"time": 3305, "pitch": 62, "duration": 12, "velocity": 83}, {"time": 3305, "pitch": 66, "duration": 11, "velocity": 78}, {"time": 3311, "pitch": 59, "duration": 7, "velocity": 54}, {"time": 3317, "pitch": 43, "duration": 36, "velocity": 68}, {"time": 3323, "pitch": 50, "duration": 20, "velocity": 50}, {"time": 3329, "pitch": 59, "duration": 11, "velocity": 74}, {"time": 3335, "pitch": 55, "duration": 7, "velocity": 72}, {"time": 3341, "pitch": 59, "duration": 14, "velocity": 73}, {"time": 3341, "pitch": 62, "duration": 23, "velocity": 79}, {"time": 3347, "pitch": 50, "duration": 5, "velocity": 73}, {"time": 3353, "pitch": 55, "duration": 10, "velocity": 88}, {"time": 3359, "pitch": 59, "duration": 5, "velocity": 70}, {"time": 3362, "pitch": 40, "duration": 45, "velocity": 79}, {"time": 3371, "pitch": 47, "duration": 43, "velocity": 40}, {"time": 3377, "pitch": 64, "duration": 11, "velocity": 81}, {"time": 3383, "pitch": 52, "duration": 8, "velocity": 75}, {"time": 3389, "pitch": 64, "duration": 10, "velocity": 69}, {"time": 3389, "pitch": 67, "duration": 9, "velocity": 67}, {"time": 3395, "pitch": 52, "duration": 24, "velocity": 79}, {"time": 3401, "pitch": 64, "duration": 20, "velocity": 69}, {"time": 3401, "pitch": 67, "duration": 20, "velocity": 67}, {"time": 3407, "pitch": 59, "duration": 15, "velocity": 67}, {"time": 3413, "pitch": 40, "duration": 37, "velocity": 67}, {"time": 3419, "pitch": 47, "duration": 31, "velocity": 55}, {"time": 3425, "pitch": 59, "duration": 10, "velocity": 43}, {"time": 3425, "pitch": 64, "duration": 9, "velocity": 79}, {"time": 3425, "pitch": 67, "duration": 9, "velocity": 73}, {"time": 3431, "pitch": 52, "duration": 8, "velocity": 81}, {"time": 3437, "pitch": 59, "duration": 8, "velocity": 43}, {"time": 3437, "pitch": 64, "duration": 8, "velocity": 75}, {"time": 3437, "pitch": 67, "duration": 8, "velocity": 74}, {"time": 3443, "pitch": 52, "duration": 9, "velocity": 68}, {"time": 3449, "pitch": 64, "duration": 10, "velocity": 77}, {"time": 3449, "pitch": 67, "duration": 11, "velocity": 73}, {"time": 3455, "pitch": 59, "duration": 14, "velocity": 73}, {"time": 3461, "pitch": 47, "duration": 20, "velocity": 72}, {"time": 3467, "pitch": 54, "duration": 8, "velocity": 69}, {"time": 3473, "pitch": 62, "duration": 13, "velocity": 72}, {"time": 3473, "pitch": 66, "duration": 12, "velocity": 95}, {"time": 3476, "pitch": 54, "duration": 2, "velocity": 55}, {"time": 3479, "pitch": 59, "duration": 7, "velocity": 85}, {"time": 3485, "pitch": 40, "duration": 13, "velocity": 74}, {"time": 3491, "pitch": 59, "duration": 7, "velocity": 78}, {"time": 3497, "pitch": 64, "duration": 10, "velocity": 85}, {"time": 3497, "pitch": 67, "duration": 10, "velocity": 78}, {"time": 3503, "pitch": 59, "duration": 7, "velocity": 71}, {"time": 3509, "pitch": 42, "duration": 36, "velocity": 81}, {"time": 3515, "pitch": 49, "duration": 29, "velocity": 52}, {"time": 3521, "pitch": 57, "duration": 19, "velocity": 76}, {"time": 3521, "pitch": 61, "duration": 11, "velocity": 64}, {"time": 3527, "pitch": 54, "duration": 8, "velocity": 79}, {"time": 3533, "pitch": 61, "duration": 5, "velocity": 42}, {"time": 3533, "pitch": 66, "duration": 26, "velocity": 96}, {"time": 3539, "pitch": 54, "duration": 8, "velocity": 88}, {"time": 3545, "pitch": 61, "duration": 11, "velocity": 75}, {"time": 3551, "pitch": 57, "duration": 6, "velocity": 82}, {"time": 3557, "pitch": 47, "duration": 45, "velocity": 70}, {"time": 3563, "pitch": 54, "duration": 9, "velocity": 86}, {"time": 3569, "pitch": 62, "duration": 11, "velocity": 74}, {"time": 3575, "pitch": 54, "duration": 8, "velocity": 63}, {"time": 3581, "pitch": 62, "duration": 9, "velocity": 70}, {"time": 3581, "pitch": 66, "duration": 34, "velocity": 70}, {"time": 3587, "pitch": 54, "duration": 16, "velocity": 76}, {"time": 3593, "pitch": 59, "duration": 15, "velocity": 82}, {"time": 3599, "pitch": 62, "duration": 13, "velocity": 66}, {"time": 3605, "pitch": 47, "duration": 45, "velocity": 76}, {"time": 3611, "pitch": 54, "duration": 10, "velocity": 70}, {"time": 3617, "pitch": 62, "duration": 10, "velocity": 88}, {"time": 3623, "pitch": 54, "duration": 8, "velocity": 78}, {"time": 3629, "pitch": 62, "duration": 12, "velocity": 72}, {"time": 3629, "pitch": 66, "duration": 32, "velocity": 92}, {"time": 3635, "pitch": 54, "duration": 18, "velocity": 73}, {"time": 3641, "pitch": 59, "duration": 16, "velocity": 76}, {"time": 3647, "pitch": 62, "duration": 12, "velocity": 69}, {"time": 3653, "pitch": 47, "duration": 37, "velocity": 71}, {"time": 3659, "pitch": 54, "duration": 8, "velocity": 58}, {"time": 3659, "pitch": 59, "duration": 2, "velocity": 28}, {"time": 3665, "pitch": 59, "duration": 13, "velocity": 73}, {"time": 3671, "pitch": 54, "duration": 8, "velocity": 70}, {"time": 3677, "pitch": 62, "duration": 10, "velocity": 67}, {"time": 3677, "pitch": 66, "duration": 19, "velocity": 90}, {"time": 3683, "pitch": 54, "duration": 5, "velocity": 77}, {"time": 3689, "pitch": 59, "duration": 15, "velocity": 90}, {"time": 3695, "pitch": 62, "duration": 9, "velocity": 74}, {"time": 3701, "pitch": 43, "duration": 37, "velocity": 72}, {"time": 3707, "pitch": 50, "duration": 30, "velocity": 56}, {"time": 3713, "pitch": 59, "duration": 14, "velocity": 85}, {"time": 3719, "pitch": 55, "duration": 7, "velocity": 70}, {"time": 3725, "pitch": 62, "duration": 13, "velocity": 68}, {"time": 3725, "pitch": 67, "duration": 28, "velocity": 69}, {"time": 3731, "pitch": 55, "duration": 5, "velocity": 76}, {"time": 3737, "pitch": 59, "duration": 15, "velocity": 82}, {"time": 3743, "pitch": 62, "duration": 5, "velocity": 59}, {"time": 3749, "pitch": 40, "duration": 44, "velocity": 76}, {"time": 3755, "pitch": 47, "duration": 42, "velocity": 39}, {"time": 3761, "pitch": 64, "duration": 25, "velocity": 76}, {"time": 3767, "pitch": 52, "duration": 7, "velocity": 70}, {"time": 3773, "pitch": 67, "duration": 41, "velocity": 72}, {"time": 3779, "pitch": 52, "duration": 27, "velocity": 71}, {"time": 3785, "pitch": 59, "duration": 20, "velocity": 75}, {"time": 3791, "pitch": 64, "duration": 14, "velocity": 59}, {"time": 3797, "pitch": 40, "duration": 34, "velocity": 82}, {"time": 3803, "pitch": 47, "duration": 28, "velocity": 59}, {"time": 3809, "pitch": 59, "duration": 21, "velocity": 78}, {"time": 3815, "pitch": 52, "duration": 9, "velocity": 75}, {"time": 3821, "pitch": 67, "duration": 21, "velocity": 88}, {"time": 3827, "pitch": 52, "duration": 7, "velocity": 71}, {"time": 3833, "pitch": 64, "duration": 9, "velocity": 85}, {"time": 3839, "pitch": 59, "duration": 10, "velocity": 74}, {"time": 3845, "pitch": 47, "duration": 10, "velocity": 64}, {"time": 3851, "pitch": 54, "duration": 5, "velocity": 68}, {"time": 3857, "pitch": 62, "duration": 9, "velocity": 65}, {"time": 3857, "pitch": 66, "duration": 10, "velocity": 82}, {"time": 3863, "pitch": 59, "duration": 6, "velocity": 67}, {"time": 3869, "pitch": 40, "duration": 13, "velocity": 73}, {"time": 3875, "pitch": 47, "duration": 8, "velocity": 66}, {"time": 3881, "pitch": 64, "duration": 12, "velocity": 78}, {"time": 3881, "pitch": 67, "duration": 12, "velocity": 76}, {"time": 3887, "pitch": 59, "duration": 8, "velocity": 59}, {"time": 3893, "pitch": 47, "duration": 44, "velocity": 70}, {"time": 3899, "pitch": 54, "duration": 9, "velocity": 59}, {"time": 3905, "pitch": 59, "duration": 14, "velocity": 82}, {"time": 3911, "pitch": 54, "duration": 9, "velocity": 71}, {"time": 3917, "pitch": 62, "duration": 8, "velocity": 79}, {"time": 3923, "pitch": 54, "duration": 16, "velocity": 61}, {"time": 3929, "pitch": 61, "duration": 8, "velocity": 90}, {"time": 3935, "pitch": 62, "duration": 5, "velocity": 52}, {"time": 3941, "pitch": 47, "duration": 44, "velocity": 72}, {"time": 3947, "pitch": 54, "duration": 8, "velocity": 51}, {"time": 3953, "pitch": 59, "duration": 17, "velocity": 83}, {"time": 3959, "pitch": 54, "duration": 9, "velocity": 74}, {"time": 3965, "pitch": 61, "duration": 15, "velocity": 112}, {"time": 3971, "pitch": 54, "duration": 8, "velocity": 89}, {"time": 3977, "pitch": 62, "duration": 9, "velocity": 96}, {"time": 3983, "pitch": 66, "duration": 8, "velocity": 75}, {"time": 3989, "pitch": 47, "duration": 22, "velocity": 90}, {"time": 3995, "pitch": 54, "duration": 17, "velocity": 66}, {"time": 4001, "pitch": 62, "duration": 19, "velocity": 93}, {"time": 4001, "pitch": 66, "duration": 19, "velocity": 102}, {"time": 4010, "pitch": 59, "duration": 9, "velocity": 86}, {"time": 4013, "pitch": 47, "duration": 20, "velocity": 82}, {"time": 4019, "pitch": 54, "duration": 15, "velocity": 82}, {"time": 4025, "pitch": 62, "duration": 12, "velocity": 96}, {"time": 4025, "pitch": 66, "duration": 14, "velocity": 112}, {"time": 4031, "pitch": 59, "duration": 7, "velocity": 79}, {"time": 4037, "pitch": 47, "duration": 22, "velocity": 76}, {"time": 4043, "pitch": 54, "duration": 17, "velocity": 92}, {"time": 4049, "pitch": 62, "duration": 16, "velocity": 89}, {"time": 4049, "pitch": 66, "duration": 16, "velocity": 96}, {"time": 4058, "pitch": 59, "duration": 8, "velocity": 93}, {"time": 4061, "pitch": 47, "duration": 11, "velocity": 86}, {"time": 4067, "pitch": 54, "duration": 5, "velocity": 97}, {"time": 4073, "pitch": 62, "duration": 11, "velocity": 95}, {"time": 4073, "pitch": 66, "duration": 12, "velocity": 107}, {"time": 4079, "pitch": 59, "duration": 6, "velocity": 83}, {"time": 4085, "pitch": 42, "duration": 21, "velocity": 89}, {"time": 4091, "pitch": 54, "duration": 15, "velocity": 46}, {"time": 4094, "pitch": 49, "duration": 14, "velocity": 22}, {"time": 4097, "pitch": 61, "duration": 20, "velocity": 93}, {"time": 4097, "pitch": 66, "duration": 20, "velocity": 93}, {"time": 4106, "pitch": 57, "duration": 9, "velocity": 92}, {"time": 4109, "pitch": 42, "duration": 18, "velocity": 83}, {"time": 4115, "pitch": 49, "duration": 12, "velocity": 50}, {"time": 4121, "pitch": 61, "duration": 13, "velocity": 99}, {"time": 4121, "pitch": 66, "duration": 15, "velocity": 93}, {"time": 4127, "pitch": 57, "duration": 7, "velocity": 92}, {"time": 4133, "pitch": 47, "duration": 22, "velocity": 63}, {"time": 4139, "pitch": 54, "duration": 17, "velocity": 88}, {"time": 4145, "pitch": 59, "duration": 19, "velocity": 89}, {"time": 4154, "pitch": 62, "duration": 10, "velocity": 66}, {"time": 4154, "pitch": 66, "duration": 10, "velocity": 77}, {"time": 4157, "pitch": 47, "duration": 20, "velocity": 83}, {"time": 4163, "pitch": 54, "duration": 16, "velocity": 92}, {"time": 4169, "pitch": 62, "duration": 3, "velocity": 79}, {"time": 4169, "pitch": 66, "duration": 15, "velocity": 102}, {"time": 4175, "pitch": 61, "duration": 6, "velocity": 89}, {"time": 4181, "pitch": 47, "duration": 22, "velocity": 66}, {"time": 4187, "pitch": 54, "duration": 16, "velocity": 90}, {"time": 4193, "pitch": 62, "duration": 7, "velocity": 82}, {"time": 4193, "pitch": 66, "duration": 7, "velocity": 95}, {"time": 4202, "pitch": 62, "duration": 11, "velocity": 83}, {"time": 4202, "pitch": 66, "duration": 11, "velocity": 67}, {"time": 4205, "pitch": 47, "duration": 20, "velocity": 77}, {"time": 4211, "pitch": 54, "duration": 16, "velocity": 86}, {"time": 4217, "pitch": 62, "duration": 20, "velocity": 90}, {"time": 4217, "pitch": 66, "duration": 20, "velocity": 97}, {"time": 4223, "pitch": 59, "duration": 8, "velocity": 83}, {"time": 4229, "pitch": 47, "duration": 22, "velocity": 72}, {"time": 4235, "pitch": 54, "duration": 17, "velocity": 74}, {"time": 4241, "pitch": 62, "duration": 20, "velocity": 86}, {"time": 4241, "pitch": 66, "duration": 19, "velocity": 96}, {"time": 4250, "pitch": 59, "duration": 10, "velocity": 76}, {"time": 4253, "pitch": 47, "duration": 13, "velocity": 74}, {"time": 4259, "pitch": 54, "duration": 6, "velocity": 85}, {"time": 4265, "pitch": 62, "duration": 11, "velocity": 96}, {"time": 4265, "pitch": 66, "duration": 11, "velocity": 102}, {"time": 4271, "pitch": 45, "duration": 5, "velocity": 74}, {"time": 4277, "pitch": 43, "duration": 20, "velocity": 72}, {"time": 4283, "pitch": 50, "duration": 16, "velocity": 55}, {"time": 4289, "pitch": 59, "duration": 18, "velocity": 76}, {"time": 4289, "pitch": 62, "duration": 18, "velocity": 79}, {"time": 4298, "pitch": 55, "duration": 6, "velocity": 79}, {"time": 4301, "pitch": 43, "duration": 13, "velocity": 79}, {"time": 4307, "pitch": 50, "duration": 7, "velocity": 85}, {"time": 4313, "pitch": 59, "duration": 12, "velocity": 85}, {"time": 4313, "pitch": 62, "duration": 12, "velocity": 83}, {"time": 4319, "pitch": 55, "duration": 5, "velocity": 79}, {"time": 4325, "pitch": 42, "duration": 21, "velocity": 76}, {"time": 4331, "pitch": 49, "duration": 16, "velocity": 59}, {"time": 4337, "pitch": 61, "duration": 20, "velocity": 79}, {"time": 4337, "pitch": 66, "duration": 20, "velocity": 76}, {"time": 4346, "pitch": 57, "duration": 7, "velocity": 82}, {"time": 4349, "pitch": 42, "duration": 14, "velocity": 83}, {"time": 4355, "pitch": 49, "duration": 8, "velocity": 68}, {"time": 4361, "pitch": 61, "duration": 11, "velocity": 97}, {"time": 4361, "pitch": 66, "duration": 12, "velocity": 92}, {"time": 4367, "pitch": 57, "duration": 6, "velocity": 74}, {"time": 4373, "pitch": 47, "duration": 21, "velocity": 67}, {"time": 4379, "pitch": 54, "duration": 17, "velocity": 82}, {"time": 4385, "pitch": 62, "duration": 20, "velocity": 79}, {"time": 4385, "pitch": 66, "duration": 20, "velocity": 86}, {"time": 4394, "pitch": 59, "duration": 4, "velocity": 81}, {"time": 4397, "pitch": 47, "duration": 20, "velocity": 81}, {"time": 4403, "pitch": 54, "duration": 16, "velocity": 93}, {"time": 4409, "pitch": 62, "duration": 20, "velocity": 88}, {"time": 4409, "pitch": 66, "duration": 20, "velocity": 95}, {"time": 4415, "pitch": 59, "duration": 6, "velocity": 85}, {"time": 4421, "pitch": 47, "duration": 21, "velocity": 72}, {"time": 4427, "pitch": 54, "duration": 16, "velocity": 70}, {"time": 4433, "pitch": 62, "duration": 20, "velocity": 82}, {"time": 4433, "pitch": 66, "duration": 20, "velocity": 96}, {"time": 4442, "pitch": 59, "duration": 3, "velocity": 88}, {"time": 4445, "pitch": 47, "duration": 20, "velocity": 76}, {"time": 4451, "pitch": 54, "duration": 16, "velocity": 79}, {"time": 4457, "pitch": 62, "duration": 17, "velocity": 85}, {"time": 4457, "pitch": 66, "duration": 17, "velocity": 96}, {"time": 4463, "pitch": 59, "duration": 6, "velocity": 92}, {"time": 4469, "pitch": 47, "duration": 21, "velocity": 77}, {"time": 4475, "pitch": 54, "duration": 16, "velocity": 85}, {"time": 4481, "pitch": 62, "duration": 20, "velocity": 83}, {"time": 4481, "pitch": 66, "duration": 20, "velocity": 95}, {"time": 4490, "pitch": 59, "duration": 4, "velocity": 96}, {"time": 4493, "pitch": 47, "duration": 14, "velocity": 79}, {"time": 4499, "pitch": 54, "duration": 7, "velocity": 95}, {"time": 4505, "pitch": 62, "duration": 9, "velocity": 95}, {"time": 4505, "pitch": 66, "duration": 9, "velocity": 102}, {"time": 4511, "pitch": 59, "duration": 6, "velocity": 92}, {"time": 4517, "pitch": 43, "duration": 18, "velocity": 78}, {"time": 4523, "pitch": 50, "duration": 16, "velocity": 66}, {"time": 4529, "pitch": 59, "duration": 16, "velocity": 76}, {"time": 4529, "pitch": 62, "duration": 18, "velocity": 82}, {"time": 4538, "pitch": 55, "duration": 3, "velocity": 89}, {"time": 4541, "pitch": 43, "duration": 13, "velocity": 86}, {"time": 4547, "pitch": 50, "duration": 7, "velocity": 85}, {"time": 4553, "pitch": 59, "duration": 11, "velocity": 89}, {"time": 4553, "pitch": 62, "duration": 11, "velocity": 86}, {"time": 4559, "pitch": 55, "duration": 5, "velocity": 89}, {"time": 4565, "pitch": 40, "duration": 21, "velocity": 74}, {"time": 4571, "pitch": 47, "duration": 16, "velocity": 52}, {"time": 4577, "pitch": 64, "duration": 20, "velocity": 81}, {"time": 4577, "pitch": 67, "duration": 20, "velocity": 73}, {"time": 4586, "pitch": 59, "duration": 10, "velocity": 90}, {"time": 4589, "pitch": 40, "duration": 18, "velocity": 77}, {"time": 4595, "pitch": 47, "duration": 14, "velocity": 79}, {"time": 4601, "pitch": 52, "duration": 11, "velocity": 77}, {"time": 4607, "pitch": 64, "duration": 6, "velocity": 81}, {"time": 4607, "pitch": 67, "duration": 6, "velocity": 73}, {"time": 4613, "pitch": 45, "duration": 21, "velocity": 86}, {"time": 4619, "pitch": 52, "duration": 16, "velocity": 63}, {"time": 4625, "pitch": 61, "duration": 18, "velocity": 89}, {"time": 4625, "pitch": 64, "duration": 18, "velocity": 81}, {"time": 4634, "pitch": 57, "duration": 4, "velocity": 85}, {"time": 4637, "pitch": 45, "duration": 20, "velocity": 72}, {"time": 4643, "pitch": 52, "duration": 16, "velocity": 86}, {"time": 4649, "pitch": 61, "duration": 15, "velocity": 95}, {"time": 4649, "pitch": 64, "duration": 16, "velocity": 78}, {"time": 4655, "pitch": 57, "duration": 5, "velocity": 86}, {"time": 4661, "pitch": 45, "duration": 19, "velocity": 72}, {"time": 4667, "pitch": 52, "duration": 16, "velocity": 78}, {"time": 4673, "pitch": 61, "duration": 14, "velocity": 99}, {"time": 4673, "pitch": 64, "duration": 14, "velocity": 85}, {"time": 4682, "pitch": 57, "duration": 2, "velocity": 92}, {"time": 4685, "pitch": 45, "duration": 20, "velocity": 83}, {"time": 4691, "pitch": 52, "duration": 15, "velocity": 90}, {"time": 4697, "pitch": 61, "duration": 8, "velocity": 100}, {"time": 4697, "pitch": 64, "duration": 10, "velocity": 88}, {"time": 4703, "pitch": 57, "duration": 5, "velocity": 86}, {"time": 4709, "pitch": 47, "duration": 22, "velocity": 75}, {"time": 4715, "pitch": 54, "duration": 16, "velocity": 85}, {"time": 4721, "pitch": 62, "duration": 12, "velocity": 95}, {"time": 4721, "pitch": 66, "duration": 12, "velocity": 102}, {"time": 4730, "pitch": 59, "duration": 3, "velocity": 92}, {"time": 4733, "pitch": 47, "duration": 19, "velocity": 74}, {"time": 4739, "pitch": 54, "duration": 9, "velocity": 92}, {"time": 4745, "pitch": 62, "duration": 11, "velocity": 95}, {"time": 4745, "pitch": 66, "duration": 11, "velocity": 100}, {"time": 4751, "pitch": 59, "duration": 5, "velocity": 93}, {"time": 4757, "pitch": 47, "duration": 6, "velocity": 82}, {"time": 4757, "pitch": 59, "duration": 4, "velocity": 86}, {"time": 4769, "pitch": 50, "duration": 4, "velocity": 69}, {"time": 4769, "pitch": 62, "duration": 6, "velocity": 92}, {"time": 4775, "pitch": 52, "duration": 3, "velocity": 82}, {"time": 4775, "pitch": 64, "duration": 7, "velocity": 82}, {"time": 4781, "pitch": 54, "duration": 3, "velocity": 99}, {"time": 4781, "pitch": 66, "duration": 5, "velocity": 85}, {"time": 4787, "pitch": 57, "duration": 3, "velocity": 95}, {"time": 4787, "pitch": 69, "duration": 5, "velocity": 79}, {"time": 4793, "pitch": 47, "duration": 22, "velocity": 90}, {"time": 4799, "pitch": 54, "duration": 17, "velocity": 66}, {"time": 4805, "pitch": 62, "duration": 19, "velocity": 93}, {"time": 4805, "pitch": 66, "duration": 19, "velocity": 102}, {"time": 4814, "pitch": 59, "duration": 9, "velocity": 86}, {"time": 4817, "pitch": 47, "duration": 20, "velocity": 82}, {"time": 4823, "pitch": 54, "duration": 15, "velocity": 82}, {"time": 4829, "pitch": 62, "duration": 12, "velocity": 96}, {"time": 4829, "pitch": 66, "duration": 14, "velocity": 112}, {"time": 4835, "pitch": 59, "duration": 7, "velocity": 79}, {"time": 4841, "pitch": 47, "duration": 22, "velocity": 76}, {"time": 4847, "pitch": 54, "duration": 17, "velocity": 92}, {"time": 4853, "pitch": 62, "duration": 16, "velocity": 89}, {"time": 4853, "pitch": 66, "duration": 16, "velocity": 96}, {"time": 4862, "pitch": 59, "duration": 8, "velocity": 93}, {"time": 4865, "pitch": 47, "duration": 11, "velocity": 86}, {"time": 4871, "pitch": 54, "duration": 5, "velocity": 97}, {"time": 4877, "pitch": 62, "duration": 11, "velocity": 95}, {"time": 4877, "pitch": 66, "duration": 12, "velocity": 107}, {"time": 4883, "pitch": 59, "duration": 6, "velocity": 83}, {"time": 4889, "pitch": 42, "duration": 21, "velocity": 89}, {"time": 4895, "pitch": 54, "duration": 15, "velocity": 46}, {"time": 4898, "pitch": 49, "duration": 14, "velocity": 22}, {"time": 4901, "pitch": 61, "duration": 20, "velocity": 93}, {"time": 4901, "pitch": 66, "duration": 20, "velocity": 93}, {"time": 4910, "pitch": 57, "duration": 9, "velocity": 92}, {"time": 4913, "pitch": 42, "duration": 18, "velocity": 83}, {"time": 4919, "pitch": 49, "duration": 12, "velocity": 50}, {"time": 4925, "pitch": 61, "duration": 13, "velocity": 99}, {"time": 4925, "pitch": 66, "duration": 15, "velocity": 93}, {"time": 4931, "pitch": 57, "duration": 7, "velocity": 92}, {"time": 4937, "pitch": 47, "duration": 22, "velocity": 63}, {"time": 4943, "pitch": 54, "duration": 17, "velocity": 88}, {"time": 4949, "pitch": 59, "duration": 19, "velocity": 89}, {"time": 4958, "pitch": 62, "duration": 10, "velocity": 66}, {"time": 4958, "pitch": 66, "duration": 10, "velocity": 77}, {"time": 4961, "pitch": 47, "duration": 20, "velocity": 83}, {"time": 4967, "pitch": 54, "duration": 16, "velocity": 92}, {"time": 4973, "pitch": 62, "duration": 3, "velocity": 79}, {"time": 4973, "pitch": 66, "duration": 15, "velocity": 102}, {"time": 4979, "pitch": 61, "duration": 6, "velocity": 89}, {"time": 4985, "pitch": 47, "duration": 22, "velocity": 66}, {"time": 4991, "pitch": 54, "duration": 16, "velocity": 90}, {"time": 4997, "pitch": 62, "duration": 7, "velocity": 82}, {"time": 4997, "pitch": 66, "duration": 7, "velocity": 95}, {"time": 5006, "pitch": 62, "duration": 11, "velocity": 83}, {"time": 5006, "pitch": 66, "duration": 11, "velocity": 67}, {"time": 5009, "pitch": 47, "duration": 20, "velocity": 77}, {"time": 5015, "pitch": 54, "duration": 16, "velocity": 86}, {"time": 5021, "pitch": 62, "duration": 20, "velocity": 90}, {"time": 5021, "pitch": 66, "duration": 20, "velocity": 97}, {"time": 5027, "pitch": 59, "duration": 8, "velocity": 83}, {"time": 5033, "pitch": 47, "duration": 22, "velocity": 72}, {"time": 5039, "pitch": 54, "duration": 17, "velocity": 74}, {"time": 5045, "pitch": 62, "duration": 20, "velocity": 86}, {"time": 5045, "pitch": 66, "duration": 19, "velocity": 96}, {"time": 5054, "pitch": 59, "duration": 10, "velocity": 76}, {"time": 5057, "pitch": 47, "duration": 13, "velocity": 74}, {"time": 5063, "pitch": 54, "duration": 6, "velocity": 85}, {"time": 5069, "pitch": 62, "duration": 11, "velocity": 96}, {"time": 5069, "pitch": 66, "duration": 11, "velocity": 102}, {"time": 5075, "pitch": 45, "duration": 5, "velocity": 74}, {"time": 5081, "pitch": 43, "duration": 20, "velocity": 72}, {"time": 5087, "pitch": 50, "duration": 16, "velocity": 55}, {"time": 5093, "pitch": 59, "duration": 18, "velocity": 76}, {"time": 5093, "pitch": 62, "duration": 18, "velocity": 79}, {"time": 5102, "pitch": 55, "duration": 6, "velocity": 79}, {"time": 5105, "pitch": 43, "duration": 13, "velocity": 79}, {"time": 5111, "pitch": 50, "duration": 7, "velocity": 85}, {"time": 5117, "pitch": 59, "duration": 12, "velocity": 85}, {"time": 5117, "pitch": 62, "duration": 12, "velocity": 83}, {"time": 5123, "pitch": 55, "duration": 5, "velocity": 79}, {"time": 5129, "pitch": 42, "duration": 21, "velocity": 76}, {"time": 5135, "pitch": 49, "duration": 16, "velocity": 59}, {"time": 5141, "pitch": 61, "duration": 20, "velocity": 79}, {"time": 5141, "pitch": 66, "duration": 20, "velocity": 76}, {"time": 5150, "pitch": 57, "duration": 7, "velocity": 82}, {"time": 5153, "pitch": 42, "duration": 14, "velocity": 83}, {"time": 5159, "pitch": 49, "duration": 8, "velocity": 68}, {"time": 5165, "pitch": 61, "duration": 11, "velocity": 97}, {"time": 5165, "pitch": 66, "duration": 12, "velocity": 92}, {"time": 5171, "pitch": 57, "duration": 6, "velocity": 74}, {"time": 5177, "pitch": 47, "duration": 21, "velocity": 67}, {"time": 5183, "pitch": 54, "duration": 17, "velocity": 82}, {"time": 5189, "pitch": 62, "duration": 20, "velocity": 79}, {"time": 5189, "pitch": 66, "duration": 20, "velocity": 86}, {"time": 5198, "pitch": 59, "duration": 4, "velocity": 81}, {"time": 5201, "pitch": 47, "duration": 20, "velocity": 81}, {"time": 5207, "pitch": 54, "duration": 16, "velocity": 93}, {"time": 5213, "pitch": 62, "duration": 20, "velocity": 88}, {"time": 5213, "pitch": 66, "duration": 20, "velocity": 95}, {"time": 5219, "pitch": 59, "duration": 6, "velocity": 85}, {"time": 5225, "pitch": 47, "duration": 21, "velocity": 72}, {"time": 5231, "pitch": 54, "duration": 16, "velocity": 70}, {"time": 5237, "pitch": 62, "duration": 20, "velocity": 82}, {"time": 5237, "pitch": 66, "duration": 20, "velocity": 96}, {"time": 5246, "pitch": 59, "duration": 3, "velocity": 88}, {"time": 5249, "pitch": 47, "duration": 20, "velocity": 76}, {"time": 5255, "pitch": 54, "duration": 16, "velocity": 79}, {"time": 5261, "pitch": 62, "duration": 17, "velocity": 85}, {"time": 5261, "pitch": 66, "duration": 17, "velocity": 96}, {"time": 5267, "pitch": 59, "duration": 6, "velocity": 92}, {"time": 5273, "pitch": 47, "duration": 21, "velocity": 77}, {"time": 5279, "pitch": 54, "duration": 16, "velocity": 85}, {"time": 5285, "pitch": 62, "duration": 20, "velocity": 83}, {"time": 5285, "pitch": 66, "duration": 20, "velocity": 95}, {"time": 5294, "pitch": 59, "duration": 4, "velocity": 96}, {"time": 5297, "pitch": 47, "duration": 14, "velocity": 79}, {"time": 5303, "pitch": 54, "duration": 7, "velocity": 95}, {"time": 5309, "pitch": 62, "duration": 9, "velocity": 95}, {"time": 5309, "pitch": 66, "duration": 9, "velocity": 102}, {"time": 5315, "pitch": 59, "duration": 6, "velocity": 92}, {"time": 5321, "pitch": 43, "duration": 18, "velocity": 78}, {"time": 5327, "pitch": 50, "duration": 16, "velocity": 66}, {"time": 5333, "pitch": 59, "duration": 16, "velocity": 76}, {"time": 5333, "pitch": 62, "duration": 18, "velocity": 82}, {"time": 5342, "pitch": 55, "duration": 3, "velocity": 89}, {"time": 5345, "pitch": 43, "duration": 13, "velocity": 86}, {"time": 5351, "pitch": 50, "duration": 7, "velocity": 85}, {"time": 5357, "pitch": 59, "duration": 11, "velocity": 89}, {"time": 5357, "pitch": 62, "duration": 11, "velocity": 86}, {"time": 5363, "pitch": 55, "duration": 5, "velocity": 89}, {"time": 5369, "pitch": 40, "duration": 21, "velocity": 74}, {"time": 5375, "pitch": 47, "duration": 16, "velocity": 52}, {"time": 5381, "pitch": 64, "duration": 20, "velocity": 81}, {"time": 5381, "pitch": 67, "duration": 20, "velocity": 73}, {"time": 5390, "pitch": 59, "duration": 10, "velocity": 90}, {"time": 5393, "pitch": 40, "duration": 18, "velocity": 77}, {"time": 5399, "pitch": 47, "duration": 14, "velocity": 79}, {"time": 5405, "pitch": 52, "duration": 11, "velocity": 77}, {"time": 5411, "pitch": 64, "duration": 6, "velocity": 81}, {"time": 5411, "pitch": 67, "duration": 6, "velocity": 73}, {"time": 5417, "pitch": 45, "duration": 21, "velocity": 86}, {"time": 5423, "pitch": 52, "duration": 16, "velocity": 63}, {"time": 5429, "pitch": 61, "duration": 18, "velocity": 89}, {"time": 5429, "pitch": 64, "duration": 18, "velocity": 81}, {"time": 5438, "pitch": 57, "duration": 4, "velocity": 85}, {"time": 5441, "pitch": 45, "duration": 20, "velocity": 72}, {"time": 5447, "pitch": 52, "duration": 16, "velocity": 86}, {"time": 5453, "pitch": 61, "duration": 15, "velocity": 95}, {"time": 5453, "pitch": 64, "duration": 16, "velocity": 78}, {"time": 5459, "pitch": 57, "duration": 5, "velocity": 86}, {"time": 5465, "pitch": 45, "duration": 19, "velocity": 72}, {"time": 5471, "pitch": 52, "duration": 16, "velocity": 78}, {"time": 5477, "pitch": 61, "duration": 14, "velocity": 99}, {"time": 5477, "pitch": 64, "duration": 14, "velocity": 85}, {"time": 5486, "pitch": 57, "duration": 2, "velocity": 92}, {"time": 5489, "pitch": 45, "duration": 20, "velocity": 83}, {"time": 5495, "pitch": 52, "duration": 15, "velocity": 90}, {"time": 5501, "pitch": 61, "duration": 8, "velocity": 100}, {"time": 5501, "pitch": 64, "duration": 10, "velocity": 88}, {"time": 5507, "pitch": 57, "duration": 5, "velocity": 86}, {"time": 5513, "pitch": 47, "duration": 22, "velocity": 75}, {"time": 5519, "pitch": 54, "duration": 16, "velocity": 85}, {"time": 5525, "pitch": 62, "duration": 12, "velocity": 95}, {"time": 5525, "pitch": 66, "duration": 12, "velocity": 102}, {"time": 5534, "pitch": 59, "duration": 3, "velocity": 92}, {"time": 5537, "pitch": 47, "duration": 19, "velocity": 74}, {"time": 5543, "pitch": 54, "duration": 9, "velocity": 92}, {"time": 5549, "pitch": 62, "duration": 11, "velocity": 95}, {"time": 5549, "pitch": 66, "duration": 11, "velocity": 100}, {"time": 5555, "pitch": 59, "duration": 5, "velocity": 93}, {"time": 5561, "pitch": 47, "duration": 6, "velocity": 82}, {"time": 5561, "pitch": 59, "duration": 4, "velocity": 86}, {"time": 5573, "pitch": 50, "duration": 4, "velocity": 69}, {"time": 5573, "pitch": 62, "duration": 6, "velocity": 92}, {"time": 5579, "pitch": 52, "duration": 3, "velocity": 82}, {"time": 5579, "pitch": 64, "duration": 7, "velocity": 82}, {"time": 5585, "pitch": 54, "duration": 3, "velocity": 99}, {"time": 5585, "pitch": 66, "duration": 5, "velocity": 85}, {"time": 5591, "pitch": 57, "duration": 3, "velocity": 95}, {"time": 5591, "pitch": 69, "duration": 5, "velocity": 79}, {"time": 5597, "pitch": 47, "duration": 22, "velocity": 90}, {"time": 5603, "pitch": 54, "duration": 17, "velocity": 66}, {"time": 5609, "pitch": 62, "duration": 19, "velocity": 93}, {"time": 5609, "pitch": 66, "duration": 19, "velocity": 102}, {"time": 5618, "pitch": 59, "duration": 9, "velocity": 86}, {"time": 5621, "pitch": 47, "duration": 20, "velocity": 82}, {"time": 5627, "pitch": 54, "duration": 15, "velocity": 82}, {"time": 5633, "pitch": 62, "duration": 12, "velocity": 96}, {"time": 5633, "pitch": 66, "duration": 14, "velocity": 112}, {"time": 5639, "pitch": 59, "duration": 7, "velocity": 79}, {"time": 5645, "pitch": 47, "duration": 22, "velocity": 76}, {"time": 5651, "pitch": 54, "duration": 17, "velocity": 92}, {"time": 5657, "pitch": 62, "duration": 16, "velocity": 89}, {"time": 5657, "pitch": 66, "duration": 16, "velocity": 96}, {"time": 5666, "pitch": 59, "duration": 8, "velocity": 93}, {"time": 5669, "pitch": 47, "duration": 11, "velocity": 86}, {"time": 5675, "pitch": 54, "duration": 5, "velocity": 97}, {"time": 5681, "pitch": 62, "duration": 11, "velocity": 95}, {"time": 5681, "pitch": 66, "duration": 12, "velocity": 107}, {"time": 5687, "pitch": 59, "duration": 6, "velocity": 83}, {"time": 5693, "pitch": 42, "duration": 21, "velocity": 89}, {"time": 5699, "pitch": 54, "duration": 15, "velocity": 46}, {"time": 5702, "pitch": 49, "duration": 14, "velocity": 22}, {"time": 5705, "pitch": 61, "duration": 20, "velocity": 93}, {"time": 5705, "pitch": 66, "duration": 20, "velocity": 93}, {"time": 5714, "pitch": 57, "duration": 9, "velocity": 92}, {"time": 5717, "pitch": 42, "duration": 18, "velocity": 83}, {"time": 5723, "pitch": 49, "duration": 12, "velocity": 50}, {"time": 5729, "pitch": 61, "duration": 13, "velocity": 99}, {"time": 5729, "pitch": 66, "duration": 15, "velocity": 93}, {"time": 5735, "pitch": 57, "duration": 7, "velocity": 92}, {"time": 5741, "pitch": 47, "duration": 22, "velocity": 63}, {"time": 5747, "pitch": 54, "duration": 17, "velocity": 88}, {"time": 5753, "pitch": 59, "duration": 19, "velocity": 89}, {"time": 5762, "pitch": 62, "duration": 10, "velocity": 66}, {"time": 5762, "pitch": 66, "duration": 10, "velocity": 77}, {"time": 5765, "pitch": 47, "duration": 20, "velocity": 83}, {"time": 5771, "pitch": 54, "duration": 16, "velocity": 92}, {"time": 5777, "pitch": 62, "duration": 3, "velocity": 79}, {"time": 5777, "pitch": 66, "duration": 15, "velocity": 102}, {"time": 5783, "pitch": 61, "duration": 6, "velocity": 89}, {"time": 5789, "pitch": 47, "duration": 22, "velocity": 66}, {"time": 5795, "pitch": 54, "duration": 16, "velocity": 90}, {"time": 5801, "pitch": 62, "duration": 7, "velocity": 82}, {"time": 5801, "pitch": 66, "duration": 7, "velocity": 95}, {"time": 5810, "pitch": 62, "duration": 11, "velocity": 83}, {"time": 5810, "pitch": 66, "duration": 11, "velocity": 67}, {"time": 5813, "pitch": 47, "duration": 20, "velocity": 77}, {"time": 5819, "pitch": 54, "duration": 16, "velocity": 86}, {"time": 5825, "pitch": 62, "duration": 20, "velocity": 90}, {"time": 5825, "pitch": 66, "duration": 20, "velocity": 97}, {"time": 5831, "pitch": 59, "duration": 8, "velocity": 83}, {"time": 5837, "pitch": 47, "duration": 22, "velocity": 72}, {"time": 5843, "pitch": 54, "duration": 17, "velocity": 74}, {"time": 5849, "pitch": 62, "duration": 20, "velocity": 86}, {"time": 5849, "pitch": 66, "duration": 19, "velocity": 96}, {"time": 5858, "pitch": 59, "duration": 10, "velocity": 76}, {"time": 5861, "pitch": 47, "duration": 13, "velocity": 74}, {"time": 5867, "pitch": 54, "duration": 6, "velocity": 85}, {"time": 5873, "pitch": 62, "duration": 11, "velocity": 96}, {"time": 5873, "pitch": 66, "duration": 11, "velocity": 102}, {"time": 5879, "pitch": 45, "duration": 5, "velocity": 74}, {"time": 5885, "pitch": 43, "duration": 20, "velocity": 72}, {"time": 5891, "pitch": 50, "duration": 16, "velocity": 55}, {"time": 5897, "pitch": 59, "duration": 18, "velocity": 76}, {"time": 5897, "pitch": 62, "duration": 18, "velocity": 79}, {"time": 5906, "pitch": 55, "duration": 6, "velocity": 79}, {"time": 5909, "pitch": 43, "duration": 13, "velocity": 79}, {"time": 5915, "pitch": 50, "duration": 7, "velocity": 85}, {"time": 5921, "pitch": 59, "duration": 12, "velocity": 85}, {"time": 5921, "pitch": 62, "duration": 12, "velocity": 83}, {"time": 5927, "pitch": 55, "duration": 5, "velocity": 79}, {"time": 5933, "pitch": 42, "duration": 21, "velocity": 76}, {"time": 5939, "pitch": 49, "duration": 16, "velocity": 59}, {"time": 5945, "pitch": 61, "duration": 20, "velocity": 79}, {"time": 5945, "pitch": 66, "duration": 20, "velocity": 76}, {"time": 5954, "pitch": 57, "duration": 7, "velocity": 82}, {"time": 5957, "pitch": 42, "duration": 14, "velocity": 83}, {"time": 5963, "pitch": 49, "duration": 8, "velocity": 68}, {"time": 5969, "pitch": 61, "duration": 11, "velocity": 97}, {"time": 5969, "pitch": 66, "duration": 12, "velocity": 92}, {"time": 5975, "pitch": 57, "duration": 6, "velocity": 74}, {"time": 5981, "pitch": 47, "duration": 21, "velocity": 67}, {"time": 5987, "pitch": 54, "duration": 17, "velocity": 82}, {"time": 5993, "pitch": 62, "duration": 20, "velocity": 79}, {"time": 5993, "pitch": 66, "duration": 20, "velocity": 86}, {"time": 6002, "pitch": 59, "duration": 4, "velocity": 81}, {"time": 6005, "pitch": 47, "duration": 20, "velocity": 81}, {"time": 6011, "pitch": 54, "duration": 16, "velocity": 93}, {"time": 6017, "pitch": 62, "duration": 20, "velocity": 88}, {"time": 6017, "pitch": 66, "duration": 20, "velocity": 95}, {"time": 6023, "pitch": 59, "duration": 6, "velocity": 85}, {"time": 6029, "pitch": 47, "duration": 21, "velocity": 72}, {"time": 6035, "pitch": 54, "duration": 16, "velocity": 70}, {"time": 6041, "pitch": 62, "duration": 20, "velocity": 82}, {"time": 6041, "pitch": 66, "duration": 20, "velocity": 96}, {"time": 6050, "pitch": 59, "duration": 3, "velocity": 88}, {"time": 6053, "pitch": 47, "duration": 20, "velocity": 76}, {"time": 6059, "pitch": 54, "duration": 16, "velocity": 79}, {"time": 6065, "pitch": 62, "duration": 17, "velocity": 85}, {"time": 6065, "pitch": 66, "duration": 17, "velocity": 96}, {"time": 6071, "pitch": 59, "duration": 6, "velocity": 92}, {"time": 6077, "pitch": 47, "duration": 21, "velocity": 77}, {"time": 6083, "pitch": 54, "duration": 16, "velocity": 85}, {"time": 6089, "pitch": 62, "duration": 20, "velocity": 83}, {"time": 6089, "pitch": 66, "duration": 20, "velocity": 95}, {"time": 6098, "pitch": 59, "duration": 4, "velocity": 96}, {"time": 6101, "pitch": 47, "duration": 14, "velocity": 79}, {"time": 6107, "pitch": 54, "duration": 7, "velocity": 95}, {"time": 6113, "pitch": 62, "duration": 9, "velocity": 95}, {"time": 6113, "pitch": 66, "duration": 9, "velocity": 102}, {"time": 6119, "pitch": 59, "duration": 6, "velocity": 92}, {"time": 6125, "pitch": 43, "duration": 18, "velocity": 78}, {"time": 6131, "pitch": 50, "duration": 16, "velocity": 66}, {"time": 6137, "pitch": 59, "duration": 16, "velocity": 76}, {"time": 6137, "pitch": 62, "duration": 18, "velocity": 82}, {"time": 6146, "pitch": 55, "duration": 3, "velocity": 89}, {"time": 6149, "pitch": 43, "duration": 13, "velocity": 86}, {"time": 6155, "pitch": 50, "duration": 7, "velocity": 85}, {"time": 6161, "pitch": 59, "duration": 11, "velocity": 89}, {"time": 6161, "pitch": 62, "duration": 11, "velocity": 86}, {"time": 6167, "pitch": 55, "duration": 5, "velocity": 89}, {"time": 6173, "pitch": 40, "duration": 21, "velocity": 74}, {"time": 6179, "pitch": 47, "duration": 16, "velocity": 52}, {"time": 6185, "pitch": 64, "duration": 20, "velocity": 81}, {"time": 6185, "pitch": 67, "duration": 20, "velocity": 73}, {"time": 6194, "pitch": 59, "duration": 10, "velocity": 90}, {"time": 6197, "pitch": 40, "duration": 18, "velocity": 77}, {"time": 6203, "pitch": 47, "duration": 14, "velocity": 79}, {"time": 6209, "pitch": 52, "duration": 11, "velocity": 77}, {"time": 6215, "pitch": 64, "duration": 6, "velocity": 81}, {"time": 6215, "pitch": 67, "duration": 6, "velocity": 73}, {"time": 6221, "pitch": 45, "duration": 21, "velocity": 86}, {"time": 6227, "pitch": 52, "duration": 16, "velocity": 63}, {"time": 6233, "pitch": 61, "duration": 18, "velocity": 89}, {"time": 6233, "pitch": 64, "duration": 18, "velocity": 81}, {"time": 6242, "pitch": 57, "duration": 4, "velocity": 85}, {"time": 6245, "pitch": 45, "duration": 20, "velocity": 72}, {"time": 6251, "pitch": 52, "duration": 16, "velocity": 86}, {"time": 6257, "pitch": 61, "duration": 15, "velocity": 95}, {"time": 6257, "pitch": 64, "duration": 16, "velocity": 78}, {"time": 6263, "pitch": 57, "duration": 5, "velocity": 86}, {"time": 6269, "pitch": 45, "duration": 19, "velocity": 72}, {"time": 6275, "pitch": 52, "duration": 16, "velocity": 78}, {"time": 6281, "pitch": 61, "duration": 14, "velocity": 99}, {"time": 6281, "pitch": 64, "duration": 14, "velocity": 85}, {"time": 6290, "pitch": 57, "duration": 2, "velocity": 92}, {"time": 6293, "pitch": 45, "duration": 20, "velocity": 83}, {"time": 6299, "pitch": 52, "duration": 15, "velocity": 90}, {"time": 6305, "pitch": 61, "duration": 8, "velocity": 100}, {"time": 6305, "pitch": 64, "duration": 10, "velocity": 88}, {"time": 6311, "pitch": 57, "duration": 5, "velocity": 86}, {"time": 6317, "pitch": 47, "duration": 22, "velocity": 75}, {"time": 6323, "pitch": 54, "duration": 16, "velocity": 85}, {"time": 6329, "pitch": 62, "duration": 12, "velocity": 95}, {"time": 6329, "pitch": 66, "duration": 12, "velocity": 102}, {"time": 6338, "pitch": 59, "duration": 3, "velocity": 92}, {"time": 6341, "pitch": 47, "duration": 15, "velocity": 74}, {"time": 6347, "pitch": 54, "duration": 9, "velocity": 92}, {"time": 6353, "pitch": 62, "duration": 3, "velocity": 95}, {"time": 6353, "pitch": 66, "duration": 3, "velocity": 100}], "annotations": [{"time": 18, "annotation": {"number": 64, "value": 127}, "group": "control_change"}, {"time": 19, "annotation": {"number": 64, "value": 0}, "group": "control_change"}, {"time": 52, "annotation": {"number": 64, "value": 127}, "group": "control_change"}, {"time": 73, "annotation": {"number": 64, "value": 0}, "group": "control_change"}, {"time": 76, "annotation": {"number": 64, "value": 127}, "group": "control_change"}, {"time": 98, "annotation": {"number": 64, "value": 0}, "group": "control_change"}, {"time": 101, "annotation": {"number": 64, "value": 127}, "group": "control_change"}, {"time": 121, "annotation": {"number": 64, "value": 0}, "group": "control_change"}, {"time": 124, "annotation": {"number": 64, "value": 127}, "group": "control_change"}, {"time": 145, "annotation": {"number": 64, "value": 0}, "group": "control_change"}, {"time": 148, "annotation": {"number": 64, "value": 127}, "group": "control_change"}, {"time": 170, "annotation": {"number": 64, "value": 0}, "group": "control_change"}, {"time": 173, "annotation": {"number": 64, "value": 127}, "group": "control_change"}, {"time": 194, "annotation": {"number": 64, "value": 0}, "group": "control_change"}, {"time": 197, "annotation": {"number": 64, "value": 127}, "group": "control_change"}, {"time": 217, "annotation": {"number": 64, "value": 0}, "group": "control_change"}, {"time": 220, "annotation": {"number": 64, "value": 127}, "group": "control_change"}, {"time": 229, "annotation": {"number": 64, "value": 0}, "group": "control_change"}, {"time": 256, "annotation": {"number": 64, "value": 127}, "group": "control_change"}, {"time": 265, "annotation": {"number": 64, "value": 0}, "group": "control_change"}, {"time": 268, "annotation": {"number": 64, "value": 127}, "group": "control_change"}, {"time": 289, "annotation": {"number": 64, "value": 0}, "group": "control_change"}, {"time": 292, "annotation": {"number": 64, "value": 127}, "group": "control_change"}, {"time": 312, "annotation": {"number": 64, "value": 0}, "group": "control_change"}, {"time": 315, "annotation": {"number": 64, "value": 127}, "group": "control_change"}, {"time": 337, "annotation": {"number": 64, "value": 0}, "group": "control_change"}, {"time": 340, "annotation": {"number": 64, "value": 127}, "group": "control_change"}, {"time": 361, "annotation": {"number": 64, "value": 0}, "group": "control_change"}, {"time": 364, "annotation": {"number": 64, "value": 127}, "group": "control_change"}, {"time": 386, "annotation": {"number": 64, "value": 0}, "group": "control_change"}, {"time": 389, "annotation": {"number": 64, "value": 127}, "group": "control_change"}, {"time": 409, "annotation": {"number": 64, "value": 0}, "group": "control_change"}, {"time": 412, "annotation": {"number": 64, "value": 127}, "group": "control_change"}, {"time": 434, "annotation": {"number": 64, "value": 0}, "group": "control_change"}, {"time": 436, "annotation": {"number": 64, "value": 127}, "group": "control_change"}, {"time": 458, "annotation": {"number": 64, "value": 0}, "group": "control_change"}, {"time": 461, "annotation": {"number": 64, "value": 127}, "group": "control_change"}, {"time": 482, "annotation": {"number": 64, "value": 0}, "group": "control_change"}, {"time": 484, "annotation": {"number": 64, "value": 127}, "group": "control_change"}, {"time": 505, "annotation": {"number": 64, "value": 0}, "group": "control_change"}, {"time": 508, "annotation": {"number": 64, "value": 127}, "group": "control_change"}, {"time": 529, "annotation": {"number": 64, "value": 0}, "group": "control_change"}, {"time": 532, "annotation": {"number": 64, "value": 127}, "group": "control_change"}, {"time": 533, "annotation": {"number": 64, "value": 127}, "group": "control_change"}, {"time": 540, "annotation": {"number": 64, "value": 0}, "group": "control_change"}, {"time": 544, "annotation": {"number": 64, "value": 127}, "group": "control_change"}, {"time": 553, "annotation": {"number": 64, "value": 0}, "group": "control_change"}, {"time": 556, "annotation": {"number": 64, "value": 127}, "group": "control_change"}, {"time": 577, "annotation": {"number": 64, "value": 0}, "group": "control_change"}, {"time": 580, "annotation": {"number": 64, "value": 127}, "group": "control_change"}, {"time": 602, "annotation": {"number": 64, "value": 0}, "group": "control_change"}, {"time": 604, "annotation": {"number": 64, "value": 127}, "group": "control_change"}, {"time": 625, "annotation": {"number": 64, "value": 0}, "group": "control_change"}, {"time": 628, "annotation": {"number": 64, "value": 127}, "group": "control_change"}, {"time": 649, "annotation": {"number": 64, "value": 0}, "group": "control_change"}, {"time": 652, "annotation": {"number": 64, "value": 127}, "group": "control_change"}, {"time": 673, "annotation": {"number": 64, "value": 0}, "group": "control_change"}, {"time": 676, "annotation": {"number": 64, "value": 127}, "group": "control_change"}, {"time": 697, "annotation": {"number": 64, "value": 0}, "group": "control_change"}, {"time": 700, "annotation": {"number": 64, "value": 127}, "group": "control_change"}, {"time": 721, "annotation": {"number": 64, "value": 0}, "group": "control_change"}, {"time": 724, "annotation": {"number": 64, "value": 127}, "group": "control_change"}, {"time": 745, "annotation": {"number": 64, "value": 0}, "group": "control_change"}, {"time": 747, "annotation": {"number": 64, "value": 127}, "group": "control_change"}, {"time": 769, "annotation": {"number": 64, "value": 0}, "group": "control_change"}, {"time": 772, "annotation": {"number": 64, "value": 127}, "group": "control_change"}, {"time": 793, "annotation": {"number": 64, "value": 0}, "group": "control_change"}, {"time": 796, "annotation": {"number": 64, "value": 127}, "group": "control_change"}, {"time": 816, "annotation": {"number": 64, "value": 0}, "group": "control_change"}, {"time": 820, "annotation": {"number": 64, "value": 127}, "group": "control_change"}, {"time": 842, "annotation": {"number": 64, "value": 0}, "group": "control_change"}, {"time": 845, "annotation": {"number": 64, "value": 127}, "group": "control_change"}, {"time": 864, "annotation": {"number": 64, "value": 0}, "group": "control_change"}, {"time": 868, "annotation": {"number": 64, "value": 127}, "group": "control_change"}, {"time": 913, "annotation": {"number": 64, "value": 0}, "group": "control_change"}, {"time": 916, "annotation": {"number": 64, "value": 127}, "group": "control_change"}, {"time": 961, "annotation": {"number": 64, "value": 0}, "group": "control_change"}, {"time": 964, "annotation": {"number": 64, "value": 127}, "group": "control_change"}, {"time": 986, "annotation": {"number": 64, "value": 0}, "group": "control_change"}, {"time": 989, "annotation": {"number": 64, "value": 127}, "group": "control_change"}, {"time": 1007, "annotation": {"number": 64, "value": 0}, "group": "control_change"}, {"time": 1011, "annotation": {"number": 64, "value": 127}, "group": "control_change"}, {"time": 1033, "annotation": {"number": 64, "value": 0}, "group": "control_change"}, {"time": 1036, "annotation": {"number": 64, "value": 127}, "group": "control_change"}, {"time": 1045, "annotation": {"number": 64, "value": 0}, "group": "control_change"}, {"time": 1048, "annotation": {"number": 64, "value": 127}, "group": "control_change"}, {"time": 1057, "annotation": {"number": 64, "value": 0}, "group": "control_change"}, {"time": 1060, "annotation": {"number": 64, "value": 127}, "group": "control_change"}, {"time": 1061, "annotation": {"number": 64, "value": 0}, "group": "control_change"}, {"time": 1064, "annotation": {"number": 64, "value": 127}, "group": "control_change"}, {"time": 1065, "annotation": {"number": 64, "value": 0}, "group": "control_change"}, {"time": 1072, "annotation": {"number": 64, "value": 127}, "group": "control_change"}, {"time": 1081, "annotation": {"number": 64, "value": 0}, "group": "control_change"}, {"time": 1084, "annotation": {"number": 64, "value": 127}, "group": "control_change"}, {"time": 1093, "annotation": {"number": 64, "value": 0}, "group": "control_change"}, {"time": 1096, "annotation": {"number": 64, "value": 127}, "group": "control_change"}, {"time": 1104, "annotation": {"number": 64, "value": 0}, "group": "control_change"}, {"time": 1108, "annotation": {"number": 64, "value": 127}, "group": "control_change"}, {"time": 1116, "annotation": {"number": 64, "value": 0}, "group": "control_change"}, {"time": 1119, "annotation": {"number": 64, "value": 127}, "group": "control_change"}, {"time": 1130, "annotation": {"number": 64, "value": 0}, "group": "control_change"}, {"time": 1133, "annotation": {"number": 64, "value": 127}, "group": "control_change"}, {"time": 1141, "annotation": {"number": 64, "value": 0}, "group": "control_change"}, {"time": 1144, "annotation": {"number": 64, "value": 127}, "group": "control_change"}, {"time": 1153, "annotation": {"number": 64, "value": 0}, "group": "control_change"}, {"time": 1156, "annotation": {"number": 64, "value": 127}, "group": "control_change"}, {"time": 1165, "annotation": {"number": 64, "value": 0}, "group": "control_change"}, {"time": 1168, "annotation": {"number": 64, "value": 127}, "group": "control_change"}, {"time": 1178, "annotation": {"number": 64, "value": 0}, "group": "control_change"}, {"time": 1181, "annotation": {"number": 64, "value": 127}, "group": "control_change"}, {"time": 1189, "annotation": {"number": 64, "value": 0}, "group": "control_change"}, {"time": 1192, "annotation": {"number": 64, "value": 127}, "group": "control_change"}, {"time": 1201, "annotation": {"number": 64, "value": 0}, "group": "control_change"}, {"time": 1204, "annotation": {"number": 64, "value": 127}, "group": "control_change"}, {"time": 1213, "annotation": {"number": 64, "value": 0}, "group": "control_change"}, {"time": 1215, "annotation": {"number": 64, "value": 127}, "group": "control_change"}, {"time": 1226, "annotation": {"number": 64, "value": 0}, "group": "control_change"}, {"time": 1228, "annotation": {"number": 64, "value": 127}, "group": "control_change"}, {"time": 1239, "annotation": {"number": 64, "value": 0}, "group": "control_change"}, {"time": 1240, "annotation": {"number": 64, "value": 127}, "group": "control_change"}, {"time": 1248, "annotation": {"number": 64, "value": 0}, "group": "control_change"}, {"time": 1252, "annotation": {"number": 64, "value": 127}, "group": "control_change"}, {"time": 1262, "annotation": {"number": 64, "value": 0}, "group": "control_change"}, {"time": 1264, "annotation": {"number": 64, "value": 127}, "group": "control_change"}, {"time": 1274, "annotation": {"number": 64, "value": 0}, "group": "control_change"}, {"time": 1276, "annotation": {"number": 64, "value": 127}, "group": "control_change"}, {"time": 1286, "annotation": {"number": 64, "value": 0}, "group": "control_change"}, {"time": 1288, "annotation": {"number": 64, "value": 127}, "group": "control_change"}, {"time": 1296, "annotation": {"number": 64, "value": 0}, "group": "control_change"}, {"time": 1300, "annotation": {"number": 64, "value": 127}, "group": "control_change"}, {"time": 1309, "annotation": {"number": 64, "value": 0}, "group": "control_change"}, {"time": 1312, "annotation": {"number": 64, "value": 127}, "group": "control_change"}, {"time": 1322, "annotation": {"number": 64, "value": 0}, "group": "control_change"}, {"time": 1324, "annotation": {"number": 64, "value": 127}, "group": "control_change"}, {"time": 1334, "annotation": {"number": 64, "value": 0}, "group": "control_change"}, {"time": 1337, "annotation": {"number": 64, "value": 127}, "group": "control_change"}, {"time": 1345, "annotation": {"number": 64, "value": 0}, "group": "control_change"}, {"time": 1348, "annotation": {"number": 64, "value": 127}, "group": "control_change"}, {"time": 1357, "annotation": {"number": 64, "value": 0}, "group": "control_change"}, {"time": 1360, "annotation": {"number": 64, "value": 127}, "group": "control_change"}, {"time": 1369, "annotation": {"number": 64, "value": 0}, "group": "control_change"}, {"time": 1372, "annotation": {"number": 64, "value": 127}, "group": "control_change"}, {"time": 1382, "annotation": {"number": 64, "value": 0}, "group": "control_change"}, {"time": 1384, "annotation": {"number": 64, "value": 127}, "group": "control_change"}, {"time": 1393, "annotation": {"number": 64, "value": 0}, "group": "control_change"}, {"time": 1396, "annotation": {"number": 64, "value": 127}, "group": "control_change"}, {"time": 1405, "annotation": {"number": 64, "value": 0}, "group": "control_change"}, {"time": 1408, "annotation": {"number": 64, "value": 127}, "group": "control_change"}, {"time": 1417, "annotation": {"number": 64, "value": 0}, "group": "control_change"}, {"time": 1420, "annotation": {"number": 64, "value": 127}, "group": "control_change"}, {"time": 1429, "annotation": {"number": 64, "value": 0}, "group": "control_change"}, {"time": 1432, "annotation": {"number": 64, "value": 127}, "group": "control_change"}, {"time": 1440, "annotation": {"number": 64, "value": 0}, "group": "control_change"}, {"time": 1444, "annotation": {"number": 64, "value": 127}, "group": "control_change"}, {"time": 1453, "annotation": {"number": 64, "value": 0}, "group": "control_change"}, {"time": 1456, "annotation": {"number": 64, "value": 127}, "group": "control_change"}, {"time": 1465, "annotation": {"number": 64, "value": 0}, "group": "control_change"}, {"time": 1468, "annotation": {"number": 64, "value": 127}, "group": "control_change"}, {"time": 1477, "annotation": {"number": 64, "value": 0}, "group": "control_change"}, {"time": 1480, "annotation": {"number": 64, "value": 127}, "group": "control_change"}, {"time": 1489, "annotation": {"number": 64, "value": 0}, "group": "control_change"}, {"time": 1492, "annotation": {"number": 64, "value": 127}, "group": "control_change"}, {"time": 1500, "annotation": {"number": 64, "value": 0}, "group": "control_change"}, {"time": 1504, "annotation": {"number": 64, "value": 127}, "group": "control_change"}, {"time": 1513, "annotation": {"number": 64, "value": 0}, "group": "control_change"}, {"time": 1516, "annotation": {"number": 64, "value": 127}, "group": "control_change"}, {"time": 1517, "annotation": {"number": 64, "value": 127}, "group": "control_change"}, {"time": 1538, "annotation": {"number": 64, "value": 0}, "group": "control_change"}, {"time": 1541, "annotation": {"number": 64, "value": 127}, "group": "control_change"}, {"time": 1586, "annotation": {"number": 64, "value": 0}, "group": "control_change"}, {"time": 1589, "annotation": {"number": 64, "value": 127}, "group": "control_change"}, {"time": 1634, "annotation": {"number": 64, "value": 0}, "group": "control_change"}, {"time": 1637, "annotation": {"number": 64, "value": 127}, "group": "control_change"}, {"time": 1646, "annotation": {"number": 64, "value": 0}, "group": "control_change"}, {"time": 1648, "annotation": {"number": 64, "value": 127}, "group": "control_change"}, {"time": 1658, "annotation": {"number": 64, "value": 0}, "group": "control_change"}, {"time": 1661, "annotation": {"number": 64, "value": 127}, "group": "control_change"}, {"time": 1670, "annotation": {"number": 64, "value": 0}, "group": "control_change"}, {"time": 1672, "annotation": {"number": 64, "value": 127}, "group": "control_change"}, {"time": 1674, "annotation": {"number": 64, "value": 0}, "group": "control_change"}, {"time": 1677, "annotation": {"number": 64, "value": 127}, "group": "control_change"}, {"time": 1678, "annotation": {"number": 64, "value": 0}, "group": "control_change"}, {"time": 1684, "annotation": {"number": 64, "value": 127}, "group": "control_change"}, {"time": 1687, "annotation": {"number": 64, "value": 0}, "group": "control_change"}, {"time": 1689, "annotation": {"number": 64, "value": 127}, "group": "control_change"}, {"time": 1694, "annotation": {"number": 64, "value": 0}, "group": "control_change"}, {"time": 1694, "annotation": {"number": 64, "value": 127}, "group": "control_change"}, {"time": 1705, "annotation": {"number": 64, "value": 0}, "group": "control_change"}, {"time": 1708, "annotation": {"number": 64, "value": 127}, "group": "control_change"}, {"time": 1730, "annotation": {"number": 64, "value": 0}, "group": "control_change"}, {"time": 1733, "annotation": {"number": 64, "value": 127}, "group": "control_change"}, {"time": 1754, "annotation": {"number": 64, "value": 0}, "group": "control_change"}, {"time": 1757, "annotation": {"number": 64, "value": 127}, "group": "control_change"}, {"time": 1778, "annotation": {"number": 64, "value": 0}, "group": "control_change"}, {"time": 1781, "annotation": {"number": 64, "value": 127}, "group": "control_change"}, {"time": 1802, "annotation": {"number": 64, "value": 0}, "group": "control_change"}, {"time": 1805, "annotation": {"number": 64, "value": 127}, "group": "control_change"}, {"time": 1827, "annotation": {"number": 64, "value": 0}, "group": "control_change"}, {"time": 1829, "annotation": {"number": 64, "value": 127}, "group": "control_change"}, {"time": 1850, "annotation": {"number": 64, "value": 0}, "group": "control_change"}, {"time": 1852, "annotation": {"number": 64, "value": 127}, "group": "control_change"}, {"time": 1874, "annotation": {"number": 64, "value": 0}, "group": "control_change"}, {"time": 1877, "annotation": {"number": 64, "value": 127}, "group": "control_change"}, {"time": 1898, "annotation": {"number": 64, "value": 0}, "group": "control_change"}, {"time": 1901, "annotation": {"number": 64, "value": 127}, "group": "control_change"}, {"time": 1921, "annotation": {"number": 64, "value": 0}, "group": "control_change"}, {"time": 1925, "annotation": {"number": 64, "value": 127}, "group": "control_change"}, {"time": 1945, "annotation": {"number": 64, "value": 0}, "group": "control_change"}, {"time": 1948, "annotation": {"number": 64, "value": 127}, "group": "control_change"}, {"time": 1970, "annotation": {"number": 64, "value": 0}, "group": "control_change"}, {"time": 1973, "annotation": {"number": 64, "value": 127}, "group": "control_change"}, {"time": 1994, "annotation": {"number": 64, "value": 0}, "group": "control_change"}, {"time": 1997, "annotation": {"number": 64, "value": 127}, "group": "control_change"}, {"time": 2018, "annotation": {"number": 64, "value": 0}, "group": "control_change"}, {"time": 2021, "annotation": {"number": 64, "value": 127}, "group": "control_change"}, {"time": 2042, "annotation": {"number": 64, "value": 0}, "group": "control_change"}, {"time": 2044, "annotation": {"number": 64, "value": 127}, "group": "control_change"}, {"time": 2066, "annotation": {"number": 64, "value": 0}, "group": "control_change"}, {"time": 2069, "annotation": {"number": 64, "value": 127}, "group": "control_change"}, {"time": 2090, "annotation": {"number": 64, "value": 0}, "group": "control_change"}, {"time": 2092, "annotation": {"number": 64, "value": 127}, "group": "control_change"}, {"time": 2113, "annotation": {"number": 64, "value": 0}, "group": "control_change"}, {"time": 2116, "annotation": {"number": 64, "value": 127}, "group": "control_change"}, {"time": 2137, "annotation": {"number": 64, "value": 0}, "group": "control_change"}, {"time": 2140, "annotation": {"number": 64, "value": 127}, "group": "control_change"}, {"time": 2162, "annotation": {"number": 64, "value": 0}, "group": "control_change"}, {"time": 2165, "annotation": {"number": 64, "value": 127}, "group": "control_change"}, {"time": 2185, "annotation": {"number": 64, "value": 0}, "group": "control_change"}, {"time": 2188, "annotation": {"number": 64, "value": 127}, "group": "control_change"}, {"time": 2210, "annotation": {"number": 64, "value": 0}, "group": "control_change"}, {"time": 2213, "annotation": {"number": 64, "value": 127}, "group": "control_change"}, {"time": 2234, "annotation": {"number": 64, "value": 0}, "group": "control_change"}, {"time": 2237, "annotation": {"number": 64, "value": 127}, "group": "control_change"}, {"time": 2258, "annotation": {"number": 64, "value": 0}, "group": "control_change"}, {"time": 2261, "annotation": {"number": 64, "value": 127}, "group": "control_change"}, {"time": 2281, "annotation": {"number": 64, "value": 0}, "group": "control_change"}, {"time": 2284, "annotation": {"number": 64, "value": 127}, "group": "control_change"}, {"time": 2305, "annotation": {"number": 64, "value": 0}, "group": "control_change"}, {"time": 2308, "annotation": {"number": 64, "value": 127}, "group": "control_change"}, {"time": 2310, "annotation": {"number": 64, "value": 0}, "group": "control_change"}, {"time": 2312, "annotation": {"number": 64, "value": 127}, "group": "control_change"}, {"time": 2329, "annotation": {"number": 64, "value": 0}, "group": "control_change"}, {"time": 2332, "annotation": {"number": 64, "value": 127}, "group": "control_change"}, {"time": 2353, "annotation": {"number": 64, "value": 0}, "group": "control_change"}, {"time": 2356, "annotation": {"number": 64, "value": 127}, "group": "control_change"}, {"time": 2377, "annotation": {"number": 64, "value": 0}, "group": "control_change"}, {"time": 2380, "annotation": {"number": 64, "value": 127}, "group": "control_change"}, {"time": 2383, "annotation": {"number": 64, "value": 0}, "group": "control_change"}, {"time": 2384, "annotation": {"number": 64, "value": 127}, "group": "control_change"}, {"time": 2400, "annotation": {"number": 64, "value": 0}, "group": "control_change"}, {"time": 2425, "annotation": {"number": 64, "value": 0}, "group": "control_change"}, {"time": 2428, "annotation": {"number": 64, "value": 127}, "group": "control_change"}, {"time": 2450, "annotation": {"number": 64, "value": 0}, "group": "control_change"}, {"time": 2453, "annotation": {"number": 64, "value": 127}, "group": "control_change"}, {"time": 2473, "annotation": {"number": 64, "value": 0}, "group": "control_change"}, {"time": 2476, "annotation": {"number": 64, "value": 127}, "group": "control_change"}, {"time": 2497, "annotation": {"number": 64, "value": 0}, "group": "control_change"}, {"time": 2500, "annotation": {"number": 64, "value": 127}, "group": "control_change"}, {"time": 2522, "annotation": {"number": 64, "value": 0}, "group": "control_change"}, {"time": 2525, "annotation": {"number": 64, "value": 127}, "group": "control_change"}, {"time": 2546, "annotation": {"number": 64, "value": 0}, "group": "control_change"}, {"time": 2549, "annotation": {"number": 64, "value": 127}, "group": "control_change"}, {"time": 2569, "annotation": {"number": 64, "value": 0}, "group": "control_change"}, {"time": 2572, "annotation": {"number": 64, "value": 127}, "group": "control_change"}, {"time": 2581, "annotation": {"number": 64, "value": 0}, "group": "control_change"}, {"time": 2608, "annotation": {"number": 64, "value": 127}, "group": "control_change"}, {"time": 2617, "annotation": {"number": 64, "value": 0}, "group": "control_change"}, {"time": 2620, "annotation": {"number": 64, "value": 127}, "group": "control_change"}, {"time": 2641, "annotation": {"number": 64, "value": 0}, "group": "control_change"}, {"time": 2644, "annotation": {"number": 64, "value": 127}, "group": "control_change"}, {"time": 2664, "annotation": {"number": 64, "value": 0}, "group": "control_change"}, {"time": 2667, "annotation": {"number": 64, "value": 127}, "group": "control_change"}, {"time": 2689, "annotation": {"number": 64, "value": 0}, "group": "control_change"}, {"time": 2692, "annotation": {"number": 64, "value": 127}, "group": "control_change"}, {"time": 2713, "annotation": {"number": 64, "value": 0}, "group": "control_change"}, {"time": 2716, "annotation": {"number": 64, "value": 127}, "group": "control_change"}, {"time": 2738, "annotation": {"number": 64, "value": 0}, "group": "control_change"}, {"time": 2741, "annotation": {"number": 64, "value": 127}, "group": "control_change"}, {"time": 2761, "annotation": {"number": 64, "value": 0}, "group": "control_change"}, {"time": 2764, "annotation": {"number": 64, "value": 127}, "group": "control_change"}, {"time": 2786, "annotation": {"number": 64, "value": 0}, "group": "control_change"}, {"time": 2788, "annotation": {"number": 64, "value": 127}, "group": "control_change"}, {"time": 2810, "annotation": {"number": 64, "value": 0}, "group": "control_change"}, {"time": 2813, "annotation": {"number": 64, "value": 127}, "group": "control_change"}, {"time": 2834, "annotation": {"number": 64, "value": 0}, "group": "control_change"}, {"time": 2836, "annotation": {"number": 64, "value": 127}, "group": "control_change"}, {"time": 2857, "annotation": {"number": 64, "value": 0}, "group": "control_change"}, {"time": 2860, "annotation": {"number": 64, "value": 127}, "group": "control_change"}, {"time": 2881, "annotation": {"number": 64, "value": 0}, "group": "control_change"}, {"time": 2884, "annotation": {"number": 64, "value": 127}, "group": "control_change"}, {"time": 2885, "annotation": {"number": 64, "value": 127}, "group": "control_change"}, {"time": 2892, "annotation": {"number": 64, "value": 0}, "group": "control_change"}, {"time": 2896, "annotation": {"number": 64, "value": 127}, "group": "control_change"}, {"time": 2905, "annotation": {"number": 64, "value": 0}, "group": "control_change"}, {"time": 2908, "annotation": {"number": 64, "value": 127}, "group": "control_change"}, {"time": 2929, "annotation": {"number": 64, "value": 0}, "group": "control_change"}, {"time": 2932, "annotation": {"number": 64, "value": 127}, "group": "control_change"}, {"time": 2954, "annotation": {"number": 64, "value": 0}, "group": "control_change"}, {"time": 2956, "annotation": {"number": 64, "value": 127}, "group": "control_change"}, {"time": 2977, "annotation": {"number": 64, "value": 0}, "group": "control_change"}, {"time": 2980, "annotation": {"number": 64, "value": 127}, "group": "control_change"}, {"time": 3001, "annotation": {"number": 64, "value": 0}, "group": "control_change"}, {"time": 3004, "annotation": {"number": 64, "value": 127}, "group": "control_change"}, {"time": 3025, "annotation": {"number": 64, "value": 0}, "group": "control_change"}, {"time": 3028, "annotation": {"number": 64, "value": 127}, "group": "control_change"}, {"time": 3049, "annotation": {"number": 64, "value": 0}, "group": "control_change"}, {"time": 3052, "annotation": {"number": 64, "value": 127}, "group": "control_change"}, {"time": 3073, "annotation": {"number": 64, "value": 0}, "group": "control_change"}, {"time": 3076, "annotation": {"number": 64, "value": 127}, "group": "control_change"}, {"time": 3097, "annotation": {"number": 64, "value": 0}, "group": "control_change"}, {"time": 3099, "annotation": {"number": 64, "value": 127}, "group": "control_change"}, {"time": 3121, "annotation": {"number": 64, "value": 0}, "group": "control_change"}, {"time": 3124, "annotation": {"number": 64, "value": 127}, "group": "control_change"}, {"time": 3145, "annotation": {"number": 64, "value": 0}, "group": "control_change"}, {"time": 3148, "annotation": {"number": 64, "value": 127}, "group": "control_change"}, {"time": 3168, "annotation": {"number": 64, "value": 0}, "group": "control_change"}, {"time": 3172, "annotation": {"number": 64, "value": 127}, "group": "control_change"}, {"time": 3194, "annotation": {"number": 64, "value": 0}, "group": "control_change"}, {"time": 3197, "annotation": {"number": 64, "value": 127}, "group": "control_change"}, {"time": 3216, "annotation": {"number": 64, "value": 0}, "group": "control_change"}, {"time": 3220, "annotation": {"number": 64, "value": 127}, "group": "control_change"}, {"time": 3265, "annotation": {"number": 64, "value": 0}, "group": "control_change"}, {"time": 3268, "annotation": {"number": 64, "value": 127}, "group": "control_change"}, {"time": 3313, "annotation": {"number": 64, "value": 0}, "group": "control_change"}, {"time": 3316, "annotation": {"number": 64, "value": 127}, "group": "control_change"}, {"time": 3338, "annotation": {"number": 64, "value": 0}, "group": "control_change"}, {"time": 3341, "annotation": {"number": 64, "value": 127}, "group": "control_change"}, {"time": 3359, "annotation": {"number": 64, "value": 0}, "group": "control_change"}, {"time": 3363, "annotation": {"number": 64, "value": 127}, "group": "control_change"}, {"time": 3385, "annotation": {"number": 64, "value": 0}, "group": "control_change"}, {"time": 3388, "annotation": {"number": 64, "value": 127}, "group": "control_change"}, {"time": 3397, "annotation": {"number": 64, "value": 0}, "group": "control_change"}, {"time": 3400, "annotation": {"number": 64, "value": 127}, "group": "control_change"}, {"time": 3409, "annotation": {"number": 64, "value": 0}, "group": "control_change"}, {"time": 3412, "annotation": {"number": 64, "value": 127}, "group": "control_change"}, {"time": 3413, "annotation": {"number": 64, "value": 0}, "group": "control_change"}, {"time": 3416, "annotation": {"number": 64, "value": 127}, "group": "control_change"}, {"time": 3417, "annotation": {"number": 64, "value": 0}, "group": "control_change"}, {"time": 3424, "annotation": {"number": 64, "value": 127}, "group": "control_change"}, {"time": 3433, "annotation": {"number": 64, "value": 0}, "group": "control_change"}, {"time": 3436, "annotation": {"number": 64, "value": 127}, "group": "control_change"}, {"time": 3445, "annotation": {"number": 64, "value": 0}, "group": "control_change"}, {"time": 3448, "annotation": {"number": 64, "value": 127}, "group": "control_change"}, {"time": 3456, "annotation": {"number": 64, "value": 0}, "group": "control_change"}, {"time": 3460, "annotation": {"number": 64, "value": 127}, "group": "control_change"}, {"time": 3468, "annotation": {"number": 64, "value": 0}, "group": "control_change"}, {"time": 3471, "annotation": {"number": 64, "value": 127}, "group": "control_change"}, {"time": 3482, "annotation": {"number": 64, "value": 0}, "group": "control_change"}, {"time": 3485, "annotation": {"number": 64, "value": 127}, "group": "control_change"}, {"time": 3493, "annotation": {"number": 64, "value": 0}, "group": "control_change"}, {"time": 3496, "annotation": {"number": 64, "value": 127}, "group": "control_change"}, {"time": 3505, "annotation": {"number": 64, "value": 0}, "group": "control_change"}, {"time": 3508, "annotation": {"number": 64, "value": 127}, "group": "control_change"}, {"time": 3517, "annotation": {"number": 64, "value": 0}, "group": "control_change"}, {"time": 3520, "annotation": {"number": 64, "value": 127}, "group": "control_change"}, {"time": 3530, "annotation": {"number": 64, "value": 0}, "group": "control_change"}, {"time": 3533, "annotation": {"number": 64, "value": 127}, "group": "control_change"}, {"time": 3541, "annotation": {"number": 64, "value": 0}, "group": "control_change"}, {"time": 3544, "annotation": {"number": 64, "value": 127}, "group": "control_change"}, {"time": 3553, "annotation": {"number": 64, "value": 0}, "group": "control_change"}, {"time": 3556, "annotation": {"number": 64, "value": 127}, "group": "control_change"}, {"time": 3565, "annotation": {"number": 64, "value": 0}, "group": "control_change"}, {"time": 3567, "annotation": {"number": 64, "value": 127}, "group": "control_change"}, {"time": 3578, "annotation": {"number": 64, "value": 0}, "group": "control_change"}, {"time": 3580, "annotation": {"number": 64, "value": 127}, "group": "control_change"}, {"time": 3591, "annotation": {"number": 64, "value": 0}, "group": "control_change"}, {"time": 3592, "annotation": {"number": 64, "value": 127}, "group": "control_change"}, {"time": 3600, "annotation": {"number": 64, "value": 0}, "group": "control_change"}, {"time": 3604, "annotation": {"number": 64, "value": 127}, "group": "control_change"}, {"time": 3614, "annotation": {"number": 64, "value": 0}, "group": "control_change"}, {"time": 3616, "annotation": {"number": 64, "value": 127}, "group": "control_change"}, {"time": 3626, "annotation": {"number": 64, "value": 0}, "group": "control_change"}, {"time": 3628, "annotation": {"number": 64, "value": 127}, "group": "control_change"}, {"time": 3638, "annotation": {"number": 64, "value": 0}, "group": "control_change"}, {"time": 3640, "annotation": {"number": 64, "value": 127}, "group": "control_change"}, {"time": 3648, "annotation": {"number": 64, "value": 0}, "group": "control_change"}, {"time": 3652, "annotation": {"number": 64, "value": 127}, "group": "control_change"}, {"time": 3661, "annotation": {"number": 64, "value": 0}, "group": "control_change"}, {"time": 3664, "annotation": {"number": 64, "value": 127}, "group": "control_change"}, {"time": 3674, "annotation": {"number": 64, "value": 0}, "group": "control_change"}, {"time": 3676, "annotation": {"number": 64, "value": 127}, "group": "control_change"}, {"time": 3686, "annotation": {"number": 64, "value": 0}, "group": "control_change"}, {"time": 3689, "annotation": {"number": 64, "value": 127}, "group": "control_change"}, {"time": 3697, "annotation": {"number": 64, "value": 0}, "group": "control_change"}, {"time": 3700, "annotation": {"number": 64, "value": 127}, "group": "control_change"}, {"time": 3709, "annotation": {"number": 64, "value": 0}, "group": "control_change"}, {"time": 3712, "annotation": {"number": 64, "value": 127}, "group": "control_change"}, {"time": 3721, "annotation": {"number": 64, "value": 0}, "group": "control_change"}, {"time": 3724, "annotation": {"number": 64, "value": 127}, "group": "control_change"}, {"time": 3734, "annotation": {"number": 64, "value": 0}, "group": "control_change"}, {"time": 3736, "annotation": {"number": 64, "value": 127}, "group": "control_change"}, {"time": 3745, "annotation": {"number": 64, "value": 0}, "group": "control_change"}, {"time": 3748, "annotation": {"number": 64, "value": 127}, "group": "control_change"}, {"time": 3757, "annotation": {"number": 64, "value": 0}, "group": "control_change"}, {"time": 3760, "annotation": {"number": 64, "value": 127}, "group": "control_change"}, {"time": 3769, "annotation": {"number": 64, "value": 0}, "group": "control_change"}, {"time": 3772, "annotation": {"number": 64, "value": 127}, "group": "control_change"}, {"time": 3781, "annotation": {"number": 64, "value": 0}, "group": "control_change"}, {"time": 3784, "annotation": {"number": 64, "value": 127}, "group": "control_change"}, {"time": 3792, "annotation": {"number": 64, "value": 0}, "group": "control_change"}, {"time": 3796, "annotation": {"number": 64, "value": 127}, "group": "control_change"}, {"time": 3805, "annotation": {"number": 64, "value": 0}, "group": "control_change"}, {"time": 3808, "annotation": {"number": 64, "value": 127}, "group": "control_change"}, {"time": 3817, "annotation": {"number": 64, "value": 0}, "group": "control_change"}, {"time": 3820, "annotation": {"number": 64, "value": 127}, "group": "control_change"}, {"time": 3829, "annotation": {"number": 64, "value": 0}, "group": "control_change"}, {"time": 3832, "annotation": {"number": 64, "value": 127}, "group": "control_change"}, {"time": 3841, "annotation": {"number": 64, "value": 0}, "group": "control_change"}, {"time": 3844, "annotation": {"number": 64, "value": 127}, "group": "control_change"}, {"time": 3852, "annotation": {"number": 64, "value": 0}, "group": "control_change"}, {"time": 3856, "annotation": {"number": 64, "value": 127}, "group": "control_change"}, {"time": 3865, "annotation": {"number": 64, "value": 0}, "group": "control_change"}, {"time": 3868, "annotation": {"number": 64, "value": 127}, "group": "control_change"}, {"time": 3869, "annotation": {"number": 64, "value": 127}, "group": "control_change"}, {"time": 3890, "annotation": {"number": 64, "value": 0}, "group": "control_change"}, {"time": 3893, "annotation": {"number": 64, "value": 127}, "group": "control_change"}, {"time": 3938, "annotation": {"number": 64, "value": 0}, "group": "control_change"}, {"time": 3941, "annotation": {"number": 64, "value": 127}, "group": "control_change"}, {"time": 3986, "annotation": {"number": 64, "value": 0}, "group": "control_change"}, {"time": 3989, "annotation": {"number": 64, "value": 127}, "group": "control_change"}, {"time": 3998, "annotation": {"number": 64, "value": 0}, "group": "control_change"}, {"time": 4000, "annotation": {"number": 64, "value": 127}, "group": "control_change"}, {"time": 4010, "annotation": {"number": 64, "value": 0}, "group": "control_change"}, {"time": 4013, "annotation": {"number": 64, "value": 127}, "group": "control_change"}, {"time": 4022, "annotation": {"number": 64, "value": 0}, "group": "control_change"}, {"time": 4024, "annotation": {"number": 64, "value": 127}, "group": "control_change"}, {"time": 4026, "annotation": {"number": 64, "value": 0}, "group": "control_change"}, {"time": 4029, "annotation": {"number": 64, "value": 127}, "group": "control_change"}, {"time": 4030, "annotation": {"number": 64, "value": 0}, "group": "control_change"}, {"time": 4036, "annotation": {"number": 64, "value": 127}, "group": "control_change"}, {"time": 4039, "annotation": {"number": 64, "value": 0}, "group": "control_change"}, {"time": 4041, "annotation": {"number": 64, "value": 127}, "group": "control_change"}, {"time": 4046, "annotation": {"number": 64, "value": 0}, "group": "control_change"}, {"time": 4046, "annotation": {"number": 64, "value": 127}, "group": "control_change"}, {"time": 4057, "annotation": {"number": 64, "value": 0}, "group": "control_change"}, {"time": 4060, "annotation": {"number": 64, "value": 127}, "group": "control_change"}, {"time": 4082, "annotation": {"number": 64, "value": 0}, "group": "control_change"}, {"time": 4085, "annotation": {"number": 64, "value": 127}, "group": "control_change"}, {"time": 4106, "annotation": {"number": 64, "value": 0}, "group": "control_change"}, {"time": 4109, "annotation": {"number": 64, "value": 127}, "group": "control_change"}, {"time": 4130, "annotation": {"number": 64, "value": 0}, "group": "control_change"}, {"time": 4133, "annotation": {"number": 64, "value": 127}, "group": "control_change"}, {"time": 4154, "annotation": {"number": 64, "value": 0}, "group": "control_change"}, {"time": 4157, "annotation": {"number": 64, "value": 127}, "group": "control_change"}, {"time": 4179, "annotation": {"number": 64, "value": 0}, "group": "control_change"}, {"time": 4181, "annotation": {"number": 64, "value": 127}, "group": "control_change"}, {"time": 4202, "annotation": {"number": 64, "value": 0}, "group": "control_change"}, {"time": 4204, "annotation": {"number": 64, "value": 127}, "group": "control_change"}, {"time": 4226, "annotation": {"number": 64, "value": 0}, "group": "control_change"}, {"time": 4229, "annotation": {"number": 64, "value": 127}, "group": "control_change"}, {"time": 4250, "annotation": {"number": 64, "value": 0}, "group": "control_change"}, {"time": 4253, "annotation": {"number": 64, "value": 127}, "group": "control_change"}, {"time": 4273, "annotation": {"number": 64, "value": 0}, "group": "control_change"}, {"time": 4277, "annotation": {"number": 64, "value": 127}, "group": "control_change"}, {"time": 4297, "annotation": {"number": 64, "value": 0}, "group": "control_change"}, {"time": 4300, "annotation": {"number": 64, "value": 127}, "group": "control_change"}, {"time": 4322, "annotation": {"number": 64, "value": 0}, "group": "control_change"}, {"time": 4325, "annotation": {"number": 64, "value": 127}, "group": "control_change"}, {"time": 4346, "annotation": {"number": 64, "value": 0}, "group": "control_change"}, {"time": 4349, "annotation": {"number": 64, "value": 127}, "group": "control_change"}, {"time": 4370, "annotation": {"number": 64, "value": 0}, "group": "control_change"}, {"time": 4373, "annotation": {"number": 64, "value": 127}, "group": "control_change"}, {"time": 4394, "annotation": {"number": 64, "value": 0}, "group": "control_change"}, {"time": 4396, "annotation": {"number": 64, "value": 127}, "group": "control_change"}, {"time": 4418, "annotation": {"number": 64, "value": 0}, "group": "control_change"}, {"time": 4421, "annotation": {"number": 64, "value": 127}, "group": "control_change"}, {"time": 4442, "annotation": {"number": 64, "value": 0}, "group": "control_change"}, {"time": 4444, "annotation": {"number": 64, "value": 127}, "group": "control_change"}, {"time": 4465, "annotation": {"number": 64, "value": 0}, "group": "control_change"}, {"time": 4468, "annotation": {"number": 64, "value": 127}, "group": "control_change"}, {"time": 4489, "annotation": {"number": 64, "value": 0}, "group": "control_change"}, {"time": 4492, "annotation": {"number": 64, "value": 127}, "group": "control_change"}, {"time": 4514, "annotation": {"number": 64, "value": 0}, "group": "control_change"}, {"time": 4517, "annotation": {"number": 64, "value": 127}, "group": "control_change"}, {"time": 4537, "annotation": {"number": 64, "value": 0}, "group": "control_change"}, {"time": 4540, "annotation": {"number": 64, "value": 127}, "group": "control_change"}, {"time": 4562, "annotation": {"number": 64, "value": 0}, "group": "control_change"}, {"time": 4565, "annotation": {"number": 64, "value": 127}, "group": "control_change"}, {"time": 4586, "annotation": {"number": 64, "value": 0}, "group": "control_change"}, {"time": 4589, "annotation": {"number": 64, "value": 127}, "group": "control_change"}, {"time": 4610, "annotation": {"number": 64, "value": 0}, "group": "control_change"}, {"time": 4613, "annotation": {"number": 64, "value": 127}, "group": "control_change"}, {"time": 4633, "annotation": {"number": 64, "value": 0}, "group": "control_change"}, {"time": 4636, "annotation": {"number": 64, "value": 127}, "group": "control_change"}, {"time": 4657, "annotation": {"number": 64, "value": 0}, "group": "control_change"}, {"time": 4660, "annotation": {"number": 64, "value": 127}, "group": "control_change"}, {"time": 4662, "annotation": {"number": 64, "value": 0}, "group": "control_change"}, {"time": 4664, "annotation": {"number": 64, "value": 127}, "group": "control_change"}, {"time": 4681, "annotation": {"number": 64, "value": 0}, "group": "control_change"}, {"time": 4684, "annotation": {"number": 64, "value": 127}, "group": "control_change"}, {"time": 4705, "annotation": {"number": 64, "value": 0}, "group": "control_change"}, {"time": 4708, "annotation": {"number": 64, "value": 127}, "group": "control_change"}, {"time": 4729, "annotation": {"number": 64, "value": 0}, "group": "control_change"}, {"time": 4732, "annotation": {"number": 64, "value": 127}, "group": "control_change"}, {"time": 4735, "annotation": {"number": 64, "value": 0}, "group": "control_change"}, {"time": 4736, "annotation": {"number": 64, "value": 127}, "group": "control_change"}, {"time": 4752, "annotation": {"number": 64, "value": 0}, "group": "control_change"}, {"time": 4793, "annotation": {"number": 64, "value": 127}, "group": "control_change"}, {"time": 4802, "annotation": {"number": 64, "value": 0}, "group": "control_change"}, {"time": 4804, "annotation": {"number": 64, "value": 127}, "group": "control_change"}, {"time": 4814, "annotation": {"number": 64, "value": 0}, "group": "control_change"}, {"time": 4817, "annotation": {"number": 64, "value": 127}, "group": "control_change"}, {"time": 4826, "annotation": {"number": 64, "value": 0}, "group": "control_change"}, {"time": 4828, "annotation": {"number": 64, "value": 127}, "group": "control_change"}, {"time": 4830, "annotation": {"number": 64, "value": 0}, "group": "control_change"}, {"time": 4833, "annotation": {"number": 64, "value": 127}, "group": "control_change"}, {"time": 4834, "annotation": {"number": 64, "value": 0}, "group": "control_change"}, {"time": 4840, "annotation": {"number": 64, "value": 127}, "group": "control_change"}, {"time": 4843, "annotation": {"number": 64, "value": 0}, "group": "control_change"}, {"time": 4845, "annotation": {"number": 64, "value": 127}, "group": "control_change"}, {"time": 4850, "annotation": {"number": 64, "value": 0}, "group": "control_change"}, {"time": 4850, "annotation": {"number": 64, "value": 127}, "group": "control_change"}, {"time": 4861, "annotation": {"number": 64, "value": 0}, "group": "control_change"}, {"time": 4864, "annotation": {"number": 64, "value": 127}, "group": "control_change"}, {"time": 4886, "annotation": {"number": 64, "value": 0}, "group": "control_change"}, {"time": 4889, "annotation": {"number": 64, "value": 127}, "group": "control_change"}, {"time": 4910, "annotation": {"number": 64, "value": 0}, "group": "control_change"}, {"time": 4913, "annotation": {"number": 64, "value": 127}, "group": "control_change"}, {"time": 4934, "annotation": {"number": 64, "value": 0}, "group": "control_change"}, {"time": 4937, "annotation": {"number": 64, "value": 127}, "group": "control_change"}, {"time": 4958, "annotation": {"number": 64, "value": 0}, "group": "control_change"}, {"time": 4961, "annotation": {"number": 64, "value": 127}, "group": "control_change"}, {"time": 4983, "annotation": {"number": 64, "value": 0}, "group": "control_change"}, {"time": 4985, "annotation": {"number": 64, "value": 127}, "group": "control_change"}, {"time": 5006, "annotation": {"number": 64, "value": 0}, "group": "control_change"}, {"time": 5008, "annotation": {"number": 64, "value": 127}, "group": "control_change"}, {"time": 5030, "annotation": {"number": 64, "value": 0}, "group": "control_change"}, {"time": 5033, "annotation": {"number": 64, "value": 127}, "group": "control_change"}, {"time": 5054, "annotation": {"number": 64, "value": 0}, "group": "control_change"}, {"time": 5057, "annotation": {"number": 64, "value": 127}, "group": "control_change"}, {"time": 5077, "annotation": {"number": 64, "value": 0}, "group": "control_change"}, {"time": 5081, "annotation": {"number": 64, "value": 127}, "group": "control_change"}, {"time": 5101, "annotation": {"number": 64, "value": 0}, "group": "control_change"}, {"time": 5104, "annotation": {"number": 64, "value": 127}, "group": "control_change"}, {"time": 5126, "annotation": {"number": 64, "value": 0}, "group": "control_change"}, {"time": 5129, "annotation": {"number": 64, "value": 127}, "group": "control_change"}, {"time": 5150, "annotation": {"number": 64, "value": 0}, "group": "control_change"}, {"time": 5153, "annotation": {"number": 64, "value": 127}, "group": "control_change"}, {"time": 5174, "annotation": {"number": 64, "value": 0}, "group": "control_change"}, {"time": 5177, "annotation": {"number": 64, "value": 127}, "group": "control_change"}, {"time": 5198, "annotation": {"number": 64, "value": 0}, "group": "control_change"}, {"time": 5200, "annotation": {"number": 64, "value": 127}, "group": "control_change"}, {"time": 5222, "annotation": {"number": 64, "value": 0}, "group": "control_change"}, {"time": 5225, "annotation": {"number": 64, "value": 127}, "group": "control_change"}, {"time": 5246, "annotation": {"number": 64, "value": 0}, "group": "control_change"}, {"time": 5248, "annotation": {"number": 64, "value": 127}, "group": "control_change"}, {"time": 5269, "annotation": {"number": 64, "value": 0}, "group": "control_change"}, {"time": 5272, "annotation": {"number": 64, "value": 127}, "group": "control_change"}, {"time": 5293, "annotation": {"number": 64, "value": 0}, "group": "control_change"}, {"time": 5296, "annotation": {"number": 64, "value": 127}, "group": "control_change"}, {"time": 5318, "annotation": {"number": 64, "value": 0}, "group": "control_change"}, {"time": 5321, "annotation": {"number": 64, "value": 127}, "group": "control_change"}, {"time": 5341, "annotation": {"number": 64, "value": 0}, "group": "control_change"}, {"time": 5344, "annotation": {"number": 64, "value": 127}, "group": "control_change"}, {"time": 5366, "annotation": {"number": 64, "value": 0}, "group": "control_change"}, {"time": 5369, "annotation": {"number": 64, "value": 127}, "group": "control_change"}, {"time": 5390, "annotation": {"number": 64, "value": 0}, "group": "control_change"}, {"time": 5393, "annotation": {"number": 64, "value": 127}, "group": "control_change"}, {"time": 5414, "annotation": {"number": 64, "value": 0}, "group": "control_change"}, {"time": 5417, "annotation": {"number": 64, "value": 127}, "group": "control_change"}, {"time": 5437, "annotation": {"number": 64, "value": 0}, "group": "control_change"}, {"time": 5440, "annotation": {"number": 64, "value": 127}, "group": "control_change"}, {"time": 5461, "annotation": {"number": 64, "value": 0}, "group": "control_change"}, {"time": 5464, "annotation": {"number": 64, "value": 127}, "group": "control_change"}, {"time": 5466, "annotation": {"number": 64, "value": 0}, "group": "control_change"}, {"time": 5468, "annotation": {"number": 64, "value": 127}, "group": "control_change"}, {"time": 5485, "annotation": {"number": 64, "value": 0}, "group": "control_change"}, {"time": 5488, "annotation": {"number": 64, "value": 127}, "group": "control_change"}, {"time": 5509, "annotation": {"number": 64, "value": 0}, "group": "control_change"}, {"time": 5512, "annotation": {"number": 64, "value": 127}, "group": "control_change"}, {"time": 5533, "annotation": {"number": 64, "value": 0}, "group": "control_change"}, {"time": 5536, "annotation": {"number": 64, "value": 127}, "group": "control_change"}, {"time": 5539, "annotation": {"number": 64, "value": 0}, "group": "control_change"}, {"time": 5540, "annotation": {"number": 64, "value": 127}, "group": "control_change"}, {"time": 5556, "annotation": {"number": 64, "value": 0}, "group": "control_change"}, {"time": 5597, "annotation": {"number": 64, "value": 127}, "group": "control_change"}, {"time": 5606, "annotation": {"number": 64, "value": 0}, "group": "control_change"}, {"time": 5608, "annotation": {"number": 64, "value": 127}, "group": "control_change"}, {"time": 5618, "annotation": {"number": 64, "value": 0}, "group": "control_change"}, {"time": 5621, "annotation": {"number": 64, "value": 127}, "group": "control_change"}, {"time": 5630, "annotation": {"number": 64, "value": 0}, "group": "control_change"}, {"time": 5632, "annotation": {"number": 64, "value": 127}, "group": "control_change"}, {"time": 5634, "annotation": {"number": 64, "value": 0}, "group": "control_change"}, {"time": 5637, "annotation": {"number": 64, "value": 127}, "group": "control_change"}, {"time": 5638, "annotation": {"number": 64, "value": 0}, "group": "control_change"}, {"time": 5644, "annotation": {"number": 64, "value": 127}, "group": "control_change"}, {"time": 5647, "annotation": {"number": 64, "value": 0}, "group": "control_change"}, {"time": 5649, "annotation": {"number": 64, "value": 127}, "group": "control_change"}, {"time": 5654, "annotation": {"number": 64, "value": 0}, "group": "control_change"}, {"time": 5654, "annotation": {"number": 64, "value": 127}, "group": "control_change"}, {"time": 5665, "annotation": {"number": 64, "value": 0}, "group": "control_change"}, {"time": 5668, "annotation": {"number": 64, "value": 127}, "group": "control_change"}, {"time": 5690, "annotation": {"number": 64, "value": 0}, "group": "control_change"}, {"time": 5693, "annotation": {"number": 64, "value": 127}, "group": "control_change"}, {"time": 5714, "annotation": {"number": 64, "value": 0}, "group": "control_change"}, {"time": 5717, "annotation": {"number": 64, "value": 127}, "group": "control_change"}, {"time": 5738, "annotation": {"number": 64, "value": 0}, "group": "control_change"}, {"time": 5741, "annotation": {"number": 64, "value": 127}, "group": "control_change"}, {"time": 5762, "annotation": {"number": 64, "value": 0}, "group": "control_change"}, {"time": 5765, "annotation": {"number": 64, "value": 127}, "group": "control_change"}, {"time": 5787, "annotation": {"number": 64, "value": 0}, "group": "control_change"}, {"time": 5789, "annotation": {"number": 64, "value": 127}, "group": "control_change"}, {"time": 5810, "annotation": {"number": 64, "value": 0}, "group": "control_change"}, {"time": 5812, "annotation": {"number": 64, "value": 127}, "group": "control_change"}, {"time": 5834, "annotation": {"number": 64, "value": 0}, "group": "control_change"}, {"time": 5837, "annotation": {"number": 64, "value": 127}, "group": "control_change"}, {"time": 5858, "annotation": {"number": 64, "value": 0}, "group": "control_change"}, {"time": 5861, "annotation": {"number": 64, "value": 127}, "group": "control_change"}, {"time": 5881, "annotation": {"number": 64, "value": 0}, "group": "control_change"}, {"time": 5885, "annotation": {"number": 64, "value": 127}, "group": "control_change"}, {"time": 5905, "annotation": {"number": 64, "value": 0}, "group": "control_change"}, {"time": 5908, "annotation": {"number": 64, "value": 127}, "group": "control_change"}, {"time": 5930, "annotation": {"number": 64, "value": 0}, "group": "control_change"}, {"time": 5933, "annotation": {"number": 64, "value": 127}, "group": "control_change"}, {"time": 5954, "annotation": {"number": 64, "value": 0}, "group": "control_change"}, {"time": 5957, "annotation": {"number": 64, "value": 127}, "group": "control_change"}, {"time": 5978, "annotation": {"number": 64, "value": 0}, "group": "control_change"}, {"time": 5981, "annotation": {"number": 64, "value": 127}, "group": "control_change"}, {"time": 6002, "annotation": {"number": 64, "value": 0}, "group": "control_change"}, {"time": 6004, "annotation": {"number": 64, "value": 127}, "group": "control_change"}, {"time": 6026, "annotation": {"number": 64, "value": 0}, "group": "control_change"}, {"time": 6029, "annotation": {"number": 64, "value": 127}, "group": "control_change"}, {"time": 6050, "annotation": {"number": 64, "value": 0}, "group": "control_change"}, {"time": 6052, "annotation": {"number": 64, "value": 127}, "group": "control_change"}, {"time": 6073, "annotation": {"number": 64, "value": 0}, "group": "control_change"}, {"time": 6076, "annotation": {"number": 64, "value": 127}, "group": "control_change"}, {"time": 6097, "annotation": {"number": 64, "value": 0}, "group": "control_change"}, {"time": 6100, "annotation": {"number": 64, "value": 127}, "group": "control_change"}, {"time": 6122, "annotation": {"number": 64, "value": 0}, "group": "control_change"}, {"time": 6125, "annotation": {"number": 64, "value": 127}, "group": "control_change"}, {"time": 6145, "annotation": {"number": 64, "value": 0}, "group": "control_change"}, {"time": 6148, "annotation": {"number": 64, "value": 127}, "group": "control_change"}, {"time": 6170, "annotation": {"number": 64, "value": 0}, "group": "control_change"}, {"time": 6173, "annotation": {"number": 64, "value": 127}, "group": "control_change"}, {"time": 6194, "annotation": {"number": 64, "value": 0}, "group": "control_change"}, {"time": 6197, "annotation": {"number": 64, "value": 127}, "group": "control_change"}, {"time": 6218, "annotation": {"number": 64, "value": 0}, "group": "control_change"}, {"time": 6221, "annotation": {"number": 64, "value": 127}, "group": "control_change"}, {"time": 6241, "annotation": {"number": 64, "value": 0}, "group": "control_change"}, {"time": 6244, "annotation": {"number": 64, "value": 127}, "group": "control_change"}, {"time": 6265, "annotation": {"number": 64, "value": 0}, "group": "control_change"}, {"time": 6268, "annotation": {"number": 64, "value": 127}, "group": "control_change"}, {"time": 6270, "annotation": {"number": 64, "value": 0}, "group": "control_change"}, {"time": 6272, "annotation": {"number": 64, "value": 127}, "group": "control_change"}, {"time": 6289, "annotation": {"number": 64, "value": 0}, "group": "control_change"}, {"time": 6292, "annotation": {"number": 64, "value": 127}, "group": "control_change"}, {"time": 6313, "annotation": {"number": 64, "value": 0}, "group": "control_change"}, {"time": 6316, "annotation": {"number": 64, "value": 127}, "group": "control_change"}, {"time": 6337, "annotation": {"number": 64, "value": 0}, "group": "control_change"}, {"time": 6340, "annotation": {"number": 64, "value": 127}, "group": "control_change"}, {"time": 6343, "annotation": {"number": 64, "value": 0}, "group": "control_change"}, {"time": 6344, "annotation": {"number": 64, "value": 127}, "group": "control_change"}]}]}