{"metadata": {"schema_version": "0.2", "title": "None", "source_filename": "746.mid", "source_format": "midi"}, "resolution": 12, "tempos": [{"time": 0, "qpm": 42.500021250010626}], "time_signatures": [{"time": 0, "numerator": 1, "denominator": 4}], "tracks": [{"program": 0, "is_drum": false, "name": "MELODY", "notes": [{"time": 193, "pitch": 60, "duration": 2, "velocity": 75}, {"time": 196, "pitch": 65, "duration": 10, "velocity": 81}, {"time": 205, "pitch": 65, "duration": 1, "velocity": 79}, {"time": 208, "pitch": 65, "duration": 2, "velocity": 93}, {"time": 211, "pitch": 64, "duration": 2, "velocity": 73}, {"time": 214, "pitch": 62, "duration": 2, "velocity": 63}, {"time": 217, "pitch": 60, "duration": 2, "velocity": 76}, {"time": 220, "pitch": 57, "duration": 6, "velocity": 82}, {"time": 229, "pitch": 65, "duration": 1, "velocity": 70}, {"time": 232, "pitch": 65, "duration": 2, "velocity": 79}, {"time": 235, "pitch": 67, "duration": 1, "velocity": 85}, {"time": 238, "pitch": 64, "duration": 2, "velocity": 77}, {"time": 241, "pitch": 65, "duration": 1, "velocity": 69}, {"time": 244, "pitch": 65, "duration": 5, "velocity": 86}, {"time": 253, "pitch": 65, "duration": 2, "velocity": 72}, {"time": 256, "pitch": 65, "duration": 1, "velocity": 72}, {"time": 259, "pitch": 67, "duration": 1, "velocity": 69}, {"time": 262, "pitch": 69, "duration": 1, "velocity": 89}, {"time": 265, "pitch": 65, "duration": 2, "velocity": 86}, {"time": 268, "pitch": 69, "duration": 5, "velocity": 89}, {"time": 277, "pitch": 67, "duration": 1, "velocity": 69}, {"time": 280, "pitch": 67, "duration": 7, "velocity": 79}, {"time": 289, "pitch": 60, "duration": 2, "velocity": 59}, {"time": 292, "pitch": 65, "duration": 7, "velocity": 73}, {"time": 301, "pitch": 65, "duration": 1, "velocity": 72}, {"time": 304, "pitch": 65, "duration": 3, "velocity": 89}, {"time": 307, "pitch": 64, "duration": 1, "velocity": 63}, {"time": 310, "pitch": 64, "duration": 3, "velocity": 77}, {"time": 313, "pitch": 60, "duration": 3, "velocity": 65}, {"time": 316, "pitch": 57, "duration": 5, "velocity": 95}, {"time": 325, "pitch": 65, "duration": 1, "velocity": 74}, {"time": 328, "pitch": 65, "duration": 1, "velocity": 73}, {"time": 331, "pitch": 67, "duration": 1, "velocity": 83}, {"time": 334, "pitch": 64, "duration": 1, "velocity": 77}, {"time": 337, "pitch": 65, "duration": 1, "velocity": 74}, {"time": 340, "pitch": 65, "duration": 6, "velocity": 82}, {"time": 349, "pitch": 65, "duration": 1, "velocity": 73}, {"time": 352, "pitch": 65, "duration": 1, "velocity": 81}, {"time": 355, "pitch": 67, "duration": 1, "velocity": 77}, {"time": 358, "pitch": 69, "duration": 1, "velocity": 86}, {"time": 361, "pitch": 65, "duration": 1, "velocity": 82}, {"time": 364, "pitch": 69, "duration": 7, "velocity": 95}, {"time": 373, "pitch": 67, "duration": 3, "velocity": 83}, {"time": 376, "pitch": 67, "duration": 7, "velocity": 90}, {"time": 385, "pitch": 60, "duration": 1, "velocity": 59}, {"time": 388, "pitch": 62, "duration": 1, "velocity": 89}, {"time": 391, "pitch": 69, "duration": 4, "velocity": 97}, {"time": 397, "pitch": 67, "duration": 4, "velocity": 93}, {"time": 403, "pitch": 69, "duration": 1, "velocity": 95}, {"time": 406, "pitch": 60, "duration": 2, "velocity": 88}, {"time": 409, "pitch": 62, "duration": 2, "velocity": 59}, {"time": 412, "pitch": 67, "duration": 3, "velocity": 88}, {"time": 415, "pitch": 65, "duration": 6, "velocity": 95}, {"time": 421, "pitch": 65, "duration": 1, "velocity": 95}, {"time": 430, "pitch": 62, "duration": 1, "velocity": 97}, {"time": 433, "pitch": 60, "duration": 1, "velocity": 89}, {"time": 436, "pitch": 62, "duration": 1, "velocity": 112}, {"time": 439, "pitch": 60, "duration": 1, "velocity": 86}, {"time": 442, "pitch": 62, "duration": 1, "velocity": 97}, {"time": 445, "pitch": 69, "duration": 1, "velocity": 92}, {"time": 448, "pitch": 62, "duration": 1, "velocity": 99}, {"time": 451, "pitch": 60, "duration": 1, "velocity": 93}, {"time": 454, "pitch": 62, "duration": 1, "velocity": 102}, {"time": 457, "pitch": 69, "duration": 1, "velocity": 100}, {"time": 460, "pitch": 67, "duration": 6, "velocity": 102}, {"time": 466, "pitch": 60, "duration": 1, "velocity": 86}, {"time": 469, "pitch": 60, "duration": 1, "velocity": 79}, {"time": 472, "pitch": 60, "duration": 1, "velocity": 96}, {"time": 475, "pitch": 62, "duration": 1, "velocity": 93}, {"time": 478, "pitch": 65, "duration": 2, "velocity": 99}, {"time": 481, "pitch": 62, "duration": 1, "velocity": 93}, {"time": 484, "pitch": 67, "duration": 1, "velocity": 95}, {"time": 487, "pitch": 69, "duration": 13, "velocity": 99}, {"time": 517, "pitch": 60, "duration": 1, "velocity": 86}, {"time": 520, "pitch": 60, "duration": 2, "velocity": 102}, {"time": 523, "pitch": 62, "duration": 2, "velocity": 92}, {"time": 526, "pitch": 65, "duration": 2, "velocity": 96}, {"time": 529, "pitch": 62, "duration": 2, "velocity": 96}, {"time": 532, "pitch": 72, "duration": 4, "velocity": 96}, {"time": 538, "pitch": 72, "duration": 2, "velocity": 99}, {"time": 541, "pitch": 72, "duration": 7, "velocity": 100}, {"time": 550, "pitch": 65, "duration": 3, "velocity": 90}, {"time": 553, "pitch": 62, "duration": 8, "velocity": 92}, {"time": 565, "pitch": 60, "duration": 1, "velocity": 90}, {"time": 568, "pitch": 60, "duration": 3, "velocity": 92}, {"time": 571, "pitch": 62, "duration": 2, "velocity": 93}, {"time": 574, "pitch": 65, "duration": 2, "velocity": 96}, {"time": 577, "pitch": 62, "duration": 2, "velocity": 90}, {"time": 580, "pitch": 67, "duration": 5, "velocity": 96}, {"time": 586, "pitch": 69, "duration": 3, "velocity": 89}, {"time": 589, "pitch": 67, "duration": 4, "velocity": 95}, {"time": 598, "pitch": 65, "duration": 3, "velocity": 100}, {"time": 601, "pitch": 62, "duration": 2, "velocity": 90}, {"time": 604, "pitch": 67, "duration": 3, "velocity": 93}, {"time": 607, "pitch": 69, "duration": 3, "velocity": 107}, {"time": 610, "pitch": 67, "duration": 5, "velocity": 96}, {"time": 625, "pitch": 62, "duration": 3, "velocity": 97}, {"time": 628, "pitch": 67, "duration": 6, "velocity": 112}, {"time": 634, "pitch": 69, "duration": 2, "velocity": 102}, {"time": 637, "pitch": 72, "duration": 7, "velocity": 102}, {"time": 646, "pitch": 65, "duration": 3, "velocity": 95}, {"time": 649, "pitch": 67, "duration": 9, "velocity": 112}, {"time": 658, "pitch": 60, "duration": 2, "velocity": 100}, {"time": 661, "pitch": 60, "duration": 1, "velocity": 92}, {"time": 664, "pitch": 60, "duration": 2, "velocity": 122}, {"time": 667, "pitch": 62, "duration": 2, "velocity": 117}, {"time": 670, "pitch": 65, "duration": 2, "velocity": 112}, {"time": 673, "pitch": 62, "duration": 2, "velocity": 97}, {"time": 676, "pitch": 67, "duration": 3, "velocity": 122}, {"time": 679, "pitch": 69, "duration": 12, "velocity": 102}, {"time": 709, "pitch": 60, "duration": 1, "velocity": 95}, {"time": 712, "pitch": 60, "duration": 2, "velocity": 97}, {"time": 715, "pitch": 62, "duration": 1, "velocity": 100}, {"time": 718, "pitch": 65, "duration": 2, "velocity": 100}, {"time": 721, "pitch": 69, "duration": 2, "velocity": 112}, {"time": 724, "pitch": 72, "duration": 4, "velocity": 112}, {"time": 730, "pitch": 72, "duration": 2, "velocity": 107}, {"time": 733, "pitch": 72, "duration": 4, "velocity": 122}, {"time": 739, "pitch": 65, "duration": 3, "velocity": 112}, {"time": 745, "pitch": 69, "duration": 4, "velocity": 102}, {"time": 751, "pitch": 67, "duration": 4, "velocity": 100}, {"time": 757, "pitch": 60, "duration": 2, "velocity": 96}, {"time": 760, "pitch": 60, "duration": 2, "velocity": 93}, {"time": 763, "pitch": 62, "duration": 2, "velocity": 96}, {"time": 766, "pitch": 65, "duration": 1, "velocity": 102}, {"time": 769, "pitch": 72, "duration": 3, "velocity": 117}, {"time": 772, "pitch": 67, "duration": 3, "velocity": 107}, {"time": 775, "pitch": 65, "duration": 2, "velocity": 112}, {"time": 778, "pitch": 67, "duration": 3, "velocity": 99}, {"time": 790, "pitch": 65, "duration": 1, "velocity": 96}, {"time": 793, "pitch": 72, "duration": 1, "velocity": 97}, {"time": 796, "pitch": 67, "duration": 2, "velocity": 97}, {"time": 799, "pitch": 65, "duration": 3, "velocity": 93}, {"time": 802, "pitch": 67, "duration": 4, "velocity": 97}, {"time": 814, "pitch": 65, "duration": 3, "velocity": 97}, {"time": 817, "pitch": 62, "duration": 3, "velocity": 89}, {"time": 820, "pitch": 67, "duration": 5, "velocity": 95}, {"time": 826, "pitch": 69, "duration": 2, "velocity": 95}, {"time": 829, "pitch": 72, "duration": 5, "velocity": 95}, {"time": 835, "pitch": 74, "duration": 3, "velocity": 99}, {"time": 838, "pitch": 72, "duration": 1, "velocity": 93}, {"time": 841, "pitch": 72, "duration": 5, "velocity": 102}, {"time": 853, "pitch": 60, "duration": 2, "velocity": 83}, {"time": 856, "pitch": 72, "duration": 3, "velocity": 112}, {"time": 859, "pitch": 69, "duration": 3, "velocity": 112}, {"time": 865, "pitch": 67, "duration": 2, "velocity": 107}, {"time": 868, "pitch": 69, "duration": 5, "velocity": 93}, {"time": 874, "pitch": 65, "duration": 19, "velocity": 92}, {"time": 964, "pitch": 65, "duration": 7, "velocity": 73}, {"time": 973, "pitch": 65, "duration": 1, "velocity": 72}, {"time": 976, "pitch": 65, "duration": 3, "velocity": 89}, {"time": 979, "pitch": 64, "duration": 1, "velocity": 63}, {"time": 982, "pitch": 64, "duration": 3, "velocity": 77}, {"time": 985, "pitch": 60, "duration": 3, "velocity": 65}, {"time": 988, "pitch": 57, "duration": 5, "velocity": 95}, {"time": 997, "pitch": 65, "duration": 1, "velocity": 74}, {"time": 1000, "pitch": 65, "duration": 1, "velocity": 73}, {"time": 1003, "pitch": 67, "duration": 1, "velocity": 83}, {"time": 1006, "pitch": 64, "duration": 1, "velocity": 77}, {"time": 1009, "pitch": 65, "duration": 1, "velocity": 74}, {"time": 1012, "pitch": 65, "duration": 6, "velocity": 82}, {"time": 1021, "pitch": 65, "duration": 1, "velocity": 73}, {"time": 1024, "pitch": 65, "duration": 1, "velocity": 81}, {"time": 1027, "pitch": 67, "duration": 1, "velocity": 77}, {"time": 1030, "pitch": 69, "duration": 1, "velocity": 86}, {"time": 1033, "pitch": 65, "duration": 1, "velocity": 82}, {"time": 1036, "pitch": 69, "duration": 7, "velocity": 95}, {"time": 1045, "pitch": 67, "duration": 3, "velocity": 83}, {"time": 1048, "pitch": 67, "duration": 7, "velocity": 90}, {"time": 1057, "pitch": 60, "duration": 1, "velocity": 59}, {"time": 1060, "pitch": 62, "duration": 1, "velocity": 89}, {"time": 1063, "pitch": 69, "duration": 4, "velocity": 97}, {"time": 1069, "pitch": 67, "duration": 4, "velocity": 93}, {"time": 1075, "pitch": 69, "duration": 1, "velocity": 95}, {"time": 1078, "pitch": 60, "duration": 2, "velocity": 88}, {"time": 1081, "pitch": 62, "duration": 2, "velocity": 59}, {"time": 1084, "pitch": 67, "duration": 3, "velocity": 88}, {"time": 1087, "pitch": 65, "duration": 6, "velocity": 95}, {"time": 1093, "pitch": 65, "duration": 1, "velocity": 95}, {"time": 1102, "pitch": 62, "duration": 1, "velocity": 97}, {"time": 1105, "pitch": 60, "duration": 1, "velocity": 89}, {"time": 1108, "pitch": 62, "duration": 1, "velocity": 112}, {"time": 1111, "pitch": 60, "duration": 1, "velocity": 86}, {"time": 1114, "pitch": 62, "duration": 1, "velocity": 97}, {"time": 1117, "pitch": 69, "duration": 1, "velocity": 92}, {"time": 1120, "pitch": 62, "duration": 1, "velocity": 99}, {"time": 1123, "pitch": 60, "duration": 1, "velocity": 93}, {"time": 1126, "pitch": 62, "duration": 1, "velocity": 102}, {"time": 1129, "pitch": 69, "duration": 1, "velocity": 100}, {"time": 1132, "pitch": 67, "duration": 6, "velocity": 102}, {"time": 1138, "pitch": 60, "duration": 1, "velocity": 86}, {"time": 1141, "pitch": 60, "duration": 1, "velocity": 79}, {"time": 1144, "pitch": 60, "duration": 1, "velocity": 96}, {"time": 1147, "pitch": 62, "duration": 1, "velocity": 93}, {"time": 1150, "pitch": 65, "duration": 2, "velocity": 99}, {"time": 1153, "pitch": 62, "duration": 1, "velocity": 93}, {"time": 1156, "pitch": 67, "duration": 1, "velocity": 95}, {"time": 1159, "pitch": 69, "duration": 13, "velocity": 99}, {"time": 1189, "pitch": 60, "duration": 1, "velocity": 86}, {"time": 1192, "pitch": 60, "duration": 2, "velocity": 102}, {"time": 1195, "pitch": 62, "duration": 2, "velocity": 92}, {"time": 1198, "pitch": 65, "duration": 2, "velocity": 96}, {"time": 1201, "pitch": 62, "duration": 2, "velocity": 96}, {"time": 1204, "pitch": 72, "duration": 4, "velocity": 96}, {"time": 1210, "pitch": 72, "duration": 2, "velocity": 99}, {"time": 1213, "pitch": 72, "duration": 7, "velocity": 100}, {"time": 1222, "pitch": 65, "duration": 3, "velocity": 90}, {"time": 1225, "pitch": 62, "duration": 8, "velocity": 92}, {"time": 1237, "pitch": 60, "duration": 1, "velocity": 90}, {"time": 1240, "pitch": 60, "duration": 3, "velocity": 92}, {"time": 1243, "pitch": 62, "duration": 2, "velocity": 93}, {"time": 1246, "pitch": 65, "duration": 2, "velocity": 96}, {"time": 1249, "pitch": 62, "duration": 2, "velocity": 90}, {"time": 1252, "pitch": 67, "duration": 5, "velocity": 96}, {"time": 1258, "pitch": 69, "duration": 3, "velocity": 89}, {"time": 1261, "pitch": 67, "duration": 4, "velocity": 95}, {"time": 1270, "pitch": 65, "duration": 3, "velocity": 100}, {"time": 1273, "pitch": 62, "duration": 2, "velocity": 90}, {"time": 1276, "pitch": 67, "duration": 3, "velocity": 93}, {"time": 1279, "pitch": 69, "duration": 3, "velocity": 107}, {"time": 1282, "pitch": 67, "duration": 5, "velocity": 96}, {"time": 1297, "pitch": 62, "duration": 3, "velocity": 97}, {"time": 1300, "pitch": 67, "duration": 6, "velocity": 112}, {"time": 1306, "pitch": 69, "duration": 2, "velocity": 102}, {"time": 1309, "pitch": 72, "duration": 7, "velocity": 102}, {"time": 1318, "pitch": 65, "duration": 3, "velocity": 95}, {"time": 1321, "pitch": 67, "duration": 9, "velocity": 112}, {"time": 1330, "pitch": 60, "duration": 2, "velocity": 100}, {"time": 1333, "pitch": 60, "duration": 1, "velocity": 92}, {"time": 1336, "pitch": 60, "duration": 2, "velocity": 122}, {"time": 1339, "pitch": 62, "duration": 2, "velocity": 117}, {"time": 1342, "pitch": 65, "duration": 2, "velocity": 112}, {"time": 1345, "pitch": 62, "duration": 2, "velocity": 97}, {"time": 1348, "pitch": 67, "duration": 3, "velocity": 122}, {"time": 1351, "pitch": 69, "duration": 12, "velocity": 102}, {"time": 1381, "pitch": 60, "duration": 1, "velocity": 95}, {"time": 1384, "pitch": 60, "duration": 2, "velocity": 97}, {"time": 1387, "pitch": 62, "duration": 1, "velocity": 100}, {"time": 1390, "pitch": 65, "duration": 2, "velocity": 100}, {"time": 1393, "pitch": 69, "duration": 2, "velocity": 112}, {"time": 1396, "pitch": 72, "duration": 4, "velocity": 112}, {"time": 1402, "pitch": 72, "duration": 2, "velocity": 107}, {"time": 1405, "pitch": 72, "duration": 4, "velocity": 122}, {"time": 1411, "pitch": 65, "duration": 3, "velocity": 112}, {"time": 1417, "pitch": 69, "duration": 4, "velocity": 102}, {"time": 1425, "pitch": 67, "duration": 5, "velocity": 100}, {"time": 1429, "pitch": 60, "duration": 2, "velocity": 96}, {"time": 1432, "pitch": 60, "duration": 2, "velocity": 93}, {"time": 1435, "pitch": 62, "duration": 2, "velocity": 96}, {"time": 1438, "pitch": 65, "duration": 1, "velocity": 102}, {"time": 1441, "pitch": 72, "duration": 3, "velocity": 117}, {"time": 1444, "pitch": 67, "duration": 3, "velocity": 107}, {"time": 1447, "pitch": 65, "duration": 2, "velocity": 112}, {"time": 1450, "pitch": 67, "duration": 3, "velocity": 99}, {"time": 1462, "pitch": 65, "duration": 1, "velocity": 96}, {"time": 1465, "pitch": 72, "duration": 1, "velocity": 97}, {"time": 1468, "pitch": 67, "duration": 2, "velocity": 97}, {"time": 1471, "pitch": 65, "duration": 3, "velocity": 93}, {"time": 1474, "pitch": 67, "duration": 4, "velocity": 97}, {"time": 1486, "pitch": 65, "duration": 3, "velocity": 97}, {"time": 1489, "pitch": 62, "duration": 3, "velocity": 89}, {"time": 1492, "pitch": 67, "duration": 5, "velocity": 95}, {"time": 1498, "pitch": 69, "duration": 2, "velocity": 95}, {"time": 1501, "pitch": 72, "duration": 5, "velocity": 95}, {"time": 1507, "pitch": 74, "duration": 3, "velocity": 99}, {"time": 1510, "pitch": 72, "duration": 1, "velocity": 93}, {"time": 1513, "pitch": 72, "duration": 5, "velocity": 102}, {"time": 1525, "pitch": 60, "duration": 2, "velocity": 83}, {"time": 1528, "pitch": 72, "duration": 3, "velocity": 112}, {"time": 1531, "pitch": 69, "duration": 3, "velocity": 112}, {"time": 1537, "pitch": 67, "duration": 2, "velocity": 107}, {"time": 1540, "pitch": 69, "duration": 5, "velocity": 93}, {"time": 1546, "pitch": 65, "duration": 12, "velocity": 92}, {"time": 1666, "pitch": 61, "duration": 1, "velocity": 86}, {"time": 1669, "pitch": 61, "duration": 1, "velocity": 79}, {"time": 1672, "pitch": 61, "duration": 1, "velocity": 96}, {"time": 1675, "pitch": 63, "duration": 1, "velocity": 93}, {"time": 1678, "pitch": 66, "duration": 2, "velocity": 99}, {"time": 1681, "pitch": 63, "duration": 1, "velocity": 93}, {"time": 1684, "pitch": 68, "duration": 1, "velocity": 95}, {"time": 1687, "pitch": 70, "duration": 13, "velocity": 99}, {"time": 1717, "pitch": 61, "duration": 1, "velocity": 86}, {"time": 1720, "pitch": 61, "duration": 2, "velocity": 102}, {"time": 1723, "pitch": 63, "duration": 2, "velocity": 92}, {"time": 1726, "pitch": 66, "duration": 2, "velocity": 96}, {"time": 1729, "pitch": 63, "duration": 2, "velocity": 96}, {"time": 1732, "pitch": 73, "duration": 4, "velocity": 96}, {"time": 1738, "pitch": 73, "duration": 2, "velocity": 99}, {"time": 1741, "pitch": 73, "duration": 7, "velocity": 100}, {"time": 1750, "pitch": 66, "duration": 3, "velocity": 90}, {"time": 1753, "pitch": 63, "duration": 8, "velocity": 92}, {"time": 1765, "pitch": 61, "duration": 1, "velocity": 90}, {"time": 1768, "pitch": 61, "duration": 3, "velocity": 92}, {"time": 1771, "pitch": 63, "duration": 2, "velocity": 93}, {"time": 1774, "pitch": 66, "duration": 2, "velocity": 96}, {"time": 1777, "pitch": 63, "duration": 2, "velocity": 90}, {"time": 1780, "pitch": 68, "duration": 5, "velocity": 96}, {"time": 1786, "pitch": 70, "duration": 3, "velocity": 89}, {"time": 1789, "pitch": 68, "duration": 4, "velocity": 95}, {"time": 1798, "pitch": 66, "duration": 3, "velocity": 100}, {"time": 1801, "pitch": 63, "duration": 2, "velocity": 90}, {"time": 1804, "pitch": 68, "duration": 3, "velocity": 93}, {"time": 1807, "pitch": 70, "duration": 3, "velocity": 107}, {"time": 1810, "pitch": 68, "duration": 5, "velocity": 96}, {"time": 1825, "pitch": 63, "duration": 3, "velocity": 97}, {"time": 1828, "pitch": 68, "duration": 6, "velocity": 112}, {"time": 1834, "pitch": 70, "duration": 2, "velocity": 102}, {"time": 1837, "pitch": 73, "duration": 7, "velocity": 102}, {"time": 1846, "pitch": 66, "duration": 3, "velocity": 95}, {"time": 1849, "pitch": 68, "duration": 9, "velocity": 112}, {"time": 1858, "pitch": 61, "duration": 2, "velocity": 100}, {"time": 1861, "pitch": 61, "duration": 1, "velocity": 92}, {"time": 1864, "pitch": 61, "duration": 2, "velocity": 122}, {"time": 1867, "pitch": 63, "duration": 2, "velocity": 117}, {"time": 1870, "pitch": 66, "duration": 2, "velocity": 112}, {"time": 1873, "pitch": 63, "duration": 2, "velocity": 97}, {"time": 1876, "pitch": 68, "duration": 3, "velocity": 122}, {"time": 1879, "pitch": 70, "duration": 12, "velocity": 102}, {"time": 1909, "pitch": 61, "duration": 1, "velocity": 95}, {"time": 1912, "pitch": 61, "duration": 2, "velocity": 97}, {"time": 1915, "pitch": 63, "duration": 1, "velocity": 100}, {"time": 1918, "pitch": 66, "duration": 2, "velocity": 100}, {"time": 1921, "pitch": 70, "duration": 2, "velocity": 112}, {"time": 1924, "pitch": 73, "duration": 4, "velocity": 112}, {"time": 1930, "pitch": 73, "duration": 2, "velocity": 107}, {"time": 1933, "pitch": 73, "duration": 4, "velocity": 122}, {"time": 1939, "pitch": 66, "duration": 3, "velocity": 112}, {"time": 1945, "pitch": 70, "duration": 4, "velocity": 102}, {"time": 1953, "pitch": 68, "duration": 5, "velocity": 100}, {"time": 1957, "pitch": 61, "duration": 2, "velocity": 96}, {"time": 1960, "pitch": 61, "duration": 2, "velocity": 93}, {"time": 1963, "pitch": 63, "duration": 2, "velocity": 96}, {"time": 1966, "pitch": 66, "duration": 1, "velocity": 102}, {"time": 1969, "pitch": 73, "duration": 3, "velocity": 117}, {"time": 1972, "pitch": 68, "duration": 3, "velocity": 107}, {"time": 1975, "pitch": 66, "duration": 2, "velocity": 112}, {"time": 1978, "pitch": 68, "duration": 3, "velocity": 99}, {"time": 1990, "pitch": 66, "duration": 1, "velocity": 96}, {"time": 1993, "pitch": 73, "duration": 1, "velocity": 97}, {"time": 1996, "pitch": 68, "duration": 2, "velocity": 97}, {"time": 1999, "pitch": 66, "duration": 3, "velocity": 93}, {"time": 2002, "pitch": 68, "duration": 4, "velocity": 97}, {"time": 2014, "pitch": 66, "duration": 3, "velocity": 97}, {"time": 2017, "pitch": 63, "duration": 3, "velocity": 89}, {"time": 2020, "pitch": 68, "duration": 5, "velocity": 95}, {"time": 2026, "pitch": 70, "duration": 2, "velocity": 95}, {"time": 2029, "pitch": 73, "duration": 5, "velocity": 95}, {"time": 2035, "pitch": 75, "duration": 3, "velocity": 99}, {"time": 2038, "pitch": 73, "duration": 1, "velocity": 93}, {"time": 2041, "pitch": 73, "duration": 5, "velocity": 102}, {"time": 2053, "pitch": 61, "duration": 2, "velocity": 83}, {"time": 2056, "pitch": 73, "duration": 3, "velocity": 112}, {"time": 2059, "pitch": 70, "duration": 3, "velocity": 112}, {"time": 2065, "pitch": 68, "duration": 2, "velocity": 107}, {"time": 2068, "pitch": 70, "duration": 5, "velocity": 93}, {"time": 2074, "pitch": 66, "duration": 12, "velocity": 92}]}, {"program": 0, "is_drum": false, "name": "BRIDGE", "notes": [{"time": 4, "pitch": 69, "duration": 4, "velocity": 76}, {"time": 7, "pitch": 65, "duration": 3, "velocity": 37}, {"time": 10, "pitch": 60, "duration": 3, "velocity": 50}, {"time": 13, "pitch": 65, "duration": 11, "velocity": 75}, {"time": 19, "pitch": 53, "duration": 3, "velocity": 37}, {"time": 22, "pitch": 60, "duration": 5, "velocity": 48}, {"time": 25, "pitch": 65, "duration": 2, "velocity": 77}, {"time": 28, "pitch": 64, "duration": 7, "velocity": 67}, {"time": 31, "pitch": 53, "duration": 3, "velocity": 52}, {"time": 34, "pitch": 60, "duration": 4, "velocity": 73}, {"time": 37, "pitch": 65, "duration": 6, "velocity": 85}, {"time": 43, "pitch": 64, "duration": 3, "velocity": 66}, {"time": 46, "pitch": 65, "duration": 3, "velocity": 69}, {"time": 49, "pitch": 67, "duration": 3, "velocity": 77}, {"time": 52, "pitch": 69, "duration": 7, "velocity": 88}, {"time": 55, "pitch": 57, "duration": 3, "velocity": 67}, {"time": 58, "pitch": 62, "duration": 3, "velocity": 73}, {"time": 61, "pitch": 65, "duration": 7, "velocity": 82}, {"time": 67, "pitch": 57, "duration": 3, "velocity": 61}, {"time": 70, "pitch": 62, "duration": 3, "velocity": 70}, {"time": 73, "pitch": 65, "duration": 3, "velocity": 74}, {"time": 76, "pitch": 64, "duration": 6, "velocity": 66}, {"time": 79, "pitch": 57, "duration": 3, "velocity": 72}, {"time": 82, "pitch": 64, "duration": 1, "velocity": 67}, {"time": 85, "pitch": 69, "duration": 7, "velocity": 82}, {"time": 91, "pitch": 64, "duration": 3, "velocity": 71}, {"time": 94, "pitch": 65, "duration": 3, "velocity": 72}, {"time": 97, "pitch": 72, "duration": 3, "velocity": 70}, {"time": 100, "pitch": 67, "duration": 2, "velocity": 62}, {"time": 103, "pitch": 65, "duration": 7, "velocity": 72}, {"time": 109, "pitch": 60, "duration": 6, "velocity": 74}, {"time": 115, "pitch": 62, "duration": 3, "velocity": 63}, {"time": 118, "pitch": 64, "duration": 3, "velocity": 63}, {"time": 121, "pitch": 65, "duration": 3, "velocity": 71}, {"time": 124, "pitch": 64, "duration": 4, "velocity": 71}, {"time": 127, "pitch": 52, "duration": 3, "velocity": 66}, {"time": 130, "pitch": 57, "duration": 3, "velocity": 64}, {"time": 133, "pitch": 60, "duration": 6, "velocity": 76}, {"time": 139, "pitch": 64, "duration": 3, "velocity": 71}, {"time": 142, "pitch": 65, "duration": 3, "velocity": 77}, {"time": 145, "pitch": 72, "duration": 3, "velocity": 83}, {"time": 148, "pitch": 62, "duration": 7, "velocity": 83}, {"time": 157, "pitch": 62, "duration": 13, "velocity": 83}, {"time": 172, "pitch": 64, "duration": 19, "velocity": 66}, {"time": 490, "pitch": 67, "duration": 6, "velocity": 71}, {"time": 496, "pitch": 65, "duration": 6, "velocity": 81}, {"time": 502, "pitch": 64, "duration": 6, "velocity": 71}, {"time": 508, "pitch": 65, "duration": 7, "velocity": 77}, {"time": 514, "pitch": 64, "duration": 6, "velocity": 83}, {"time": 520, "pitch": 65, "duration": 8, "velocity": 93}, {"time": 682, "pitch": 67, "duration": 6, "velocity": 73}, {"time": 688, "pitch": 65, "duration": 6, "velocity": 78}, {"time": 694, "pitch": 64, "duration": 6, "velocity": 69}, {"time": 700, "pitch": 65, "duration": 6, "velocity": 90}, {"time": 706, "pitch": 64, "duration": 6, "velocity": 68}, {"time": 712, "pitch": 65, "duration": 8, "velocity": 95}, {"time": 871, "pitch": 60, "duration": 3, "velocity": 66}, {"time": 874, "pitch": 62, "duration": 6, "velocity": 89}, {"time": 880, "pitch": 72, "duration": 6, "velocity": 96}, {"time": 889, "pitch": 70, "duration": 3, "velocity": 86}, {"time": 892, "pitch": 69, "duration": 3, "velocity": 81}, {"time": 895, "pitch": 70, "duration": 3, "velocity": 86}, {"time": 898, "pitch": 72, "duration": 6, "velocity": 92}, {"time": 922, "pitch": 72, "duration": 3, "velocity": 81}, {"time": 925, "pitch": 79, "duration": 3, "velocity": 81}, {"time": 928, "pitch": 77, "duration": 8, "velocity": 88}, {"time": 937, "pitch": 72, "duration": 3, "velocity": 93}, {"time": 940, "pitch": 70, "duration": 21, "velocity": 88}, {"time": 1156, "pitch": 84, "duration": 17, "velocity": 117}, {"time": 1174, "pitch": 82, "duration": 5, "velocity": 117}, {"time": 1180, "pitch": 81, "duration": 12, "velocity": 102}, {"time": 1192, "pitch": 79, "duration": 12, "velocity": 88}, {"time": 1204, "pitch": 81, "duration": 17, "velocity": 90}, {"time": 1354, "pitch": 77, "duration": 4, "velocity": 95}, {"time": 1360, "pitch": 77, "duration": 6, "velocity": 99}, {"time": 1366, "pitch": 76, "duration": 5, "velocity": 92}, {"time": 1372, "pitch": 72, "duration": 9, "velocity": 83}, {"time": 1537, "pitch": 84, "duration": 1, "velocity": 92}, {"time": 1538, "pitch": 86, "duration": 2, "velocity": 72}, {"time": 1540, "pitch": 89, "duration": 14, "velocity": 96}, {"time": 1558, "pitch": 88, "duration": 6, "velocity": 96}, {"time": 1564, "pitch": 84, "duration": 10, "velocity": 95}, {"time": 1576, "pitch": 81, "duration": 10, "velocity": 95}, {"time": 1588, "pitch": 82, "duration": 1, "velocity": 122}, {"time": 1589, "pitch": 81, "duration": 1, "velocity": 82}, {"time": 1591, "pitch": 82, "duration": 1, "velocity": 97}, {"time": 1592, "pitch": 82, "duration": 1, "velocity": 77}, {"time": 1594, "pitch": 82, "duration": 1, "velocity": 107}, {"time": 1595, "pitch": 81, "duration": 1, "velocity": 86}, {"time": 1597, "pitch": 77, "duration": 1, "velocity": 95}, {"time": 1598, "pitch": 74, "duration": 7, "velocity": 85}, {"time": 1608, "pitch": 84, "duration": 2, "velocity": 79}, {"time": 1610, "pitch": 86, "duration": 1, "velocity": 64}, {"time": 1611, "pitch": 89, "duration": 7, "velocity": 102}, {"time": 1621, "pitch": 88, "duration": 9, "velocity": 99}, {"time": 1636, "pitch": 78, "duration": 7, "velocity": 107}, {"time": 1636, "pitch": 85, "duration": 8, "velocity": 96}, {"time": 1636, "pitch": 90, "duration": 8, "velocity": 112}, {"time": 1645, "pitch": 77, "duration": 13, "velocity": 100}, {"time": 1645, "pitch": 80, "duration": 10, "velocity": 127}, {"time": 1684, "pitch": 85, "duration": 17, "velocity": 117}, {"time": 1702, "pitch": 83, "duration": 5, "velocity": 117}, {"time": 1708, "pitch": 82, "duration": 12, "velocity": 102}, {"time": 1720, "pitch": 80, "duration": 12, "velocity": 88}, {"time": 1732, "pitch": 82, "duration": 17, "velocity": 90}, {"time": 1882, "pitch": 78, "duration": 4, "velocity": 95}, {"time": 1888, "pitch": 78, "duration": 6, "velocity": 99}, {"time": 1894, "pitch": 77, "duration": 5, "velocity": 92}, {"time": 1900, "pitch": 73, "duration": 9, "velocity": 83}, {"time": 2074, "pitch": 54, "duration": 3, "velocity": 65}, {"time": 2077, "pitch": 59, "duration": 3, "velocity": 59}, {"time": 2080, "pitch": 61, "duration": 4, "velocity": 68}, {"time": 2083, "pitch": 63, "duration": 3, "velocity": 69}, {"time": 2086, "pitch": 66, "duration": 6, "velocity": 74}, {"time": 2089, "pitch": 73, "duration": 3, "velocity": 95}, {"time": 2092, "pitch": 71, "duration": 3, "velocity": 79}, {"time": 2095, "pitch": 70, "duration": 3, "velocity": 72}, {"time": 2098, "pitch": 66, "duration": 3, "velocity": 81}, {"time": 2101, "pitch": 61, "duration": 11, "velocity": 66}, {"time": 2112, "pitch": 68, "duration": 2, "velocity": 79}, {"time": 2114, "pitch": 70, "duration": 2, "velocity": 56}, {"time": 2115, "pitch": 71, "duration": 4, "velocity": 82}, {"time": 2118, "pitch": 70, "duration": 4, "velocity": 73}, {"time": 2122, "pitch": 63, "duration": 3, "velocity": 70}, {"time": 2125, "pitch": 68, "duration": 8, "velocity": 72}, {"time": 2131, "pitch": 70, "duration": 3, "velocity": 74}, {"time": 2134, "pitch": 71, "duration": 3, "velocity": 73}, {"time": 2137, "pitch": 78, "duration": 3, "velocity": 90}, {"time": 2140, "pitch": 77, "duration": 21, "velocity": 74}, {"time": 2164, "pitch": 66, "duration": 35, "velocity": 28}]}, {"program": 0, "is_drum": false, "name": "PIANO", "notes": [{"time": 4, "pitch": 41, "duration": 22, "velocity": 56}, {"time": 7, "pitch": 48, "duration": 21, "velocity": 53}, {"time": 10, "pitch": 53, "duration": 7, "velocity": 57}, {"time": 13, "pitch": 57, "duration": 9, "velocity": 42}, {"time": 16, "pitch": 65, "duration": 21, "velocity": 72}, {"time": 19, "pitch": 53, "duration": 10, "velocity": 39}, {"time": 22, "pitch": 60, "duration": 16, "velocity": 59}, {"time": 25, "pitch": 57, "duration": 11, "velocity": 41}, {"time": 28, "pitch": 41, "duration": 18, "velocity": 45}, {"time": 31, "pitch": 48, "duration": 15, "velocity": 38}, {"time": 34, "pitch": 53, "duration": 7, "velocity": 46}, {"time": 37, "pitch": 57, "duration": 9, "velocity": 52}, {"time": 40, "pitch": 65, "duration": 12, "velocity": 78}, {"time": 43, "pitch": 53, "duration": 2, "velocity": 34}, {"time": 46, "pitch": 60, "duration": 6, "velocity": 67}, {"time": 49, "pitch": 57, "duration": 6, "velocity": 47}, {"time": 52, "pitch": 38, "duration": 20, "velocity": 54}, {"time": 55, "pitch": 45, "duration": 21, "velocity": 51}, {"time": 58, "pitch": 50, "duration": 7, "velocity": 47}, {"time": 61, "pitch": 65, "duration": 22, "velocity": 79}, {"time": 67, "pitch": 50, "duration": 4, "velocity": 50}, {"time": 70, "pitch": 62, "duration": 13, "velocity": 61}, {"time": 73, "pitch": 57, "duration": 19, "velocity": 64}, {"time": 76, "pitch": 38, "duration": 16, "velocity": 57}, {"time": 79, "pitch": 45, "duration": 12, "velocity": 39}, {"time": 82, "pitch": 50, "duration": 7, "velocity": 41}, {"time": 85, "pitch": 65, "duration": 15, "velocity": 85}, {"time": 91, "pitch": 50, "duration": 3, "velocity": 42}, {"time": 94, "pitch": 62, "duration": 6, "velocity": 52}, {"time": 97, "pitch": 57, "duration": 3, "velocity": 46}, {"time": 100, "pitch": 46, "duration": 19, "velocity": 59}, {"time": 103, "pitch": 53, "duration": 15, "velocity": 36}, {"time": 106, "pitch": 58, "duration": 7, "velocity": 55}, {"time": 109, "pitch": 62, "duration": 10, "velocity": 64}, {"time": 115, "pitch": 58, "duration": 3, "velocity": 52}, {"time": 118, "pitch": 65, "duration": 6, "velocity": 81}, {"time": 121, "pitch": 62, "duration": 3, "velocity": 55}, {"time": 124, "pitch": 45, "duration": 5, "velocity": 56}, {"time": 127, "pitch": 57, "duration": 9, "velocity": 47}, {"time": 130, "pitch": 60, "duration": 6, "velocity": 61}, {"time": 133, "pitch": 64, "duration": 3, "velocity": 69}, {"time": 136, "pitch": 38, "duration": 7, "velocity": 65}, {"time": 139, "pitch": 45, "duration": 4, "velocity": 57}, {"time": 142, "pitch": 65, "duration": 6, "velocity": 71}, {"time": 145, "pitch": 62, "duration": 3, "velocity": 69}, {"time": 148, "pitch": 43, "duration": 18, "velocity": 53}, {"time": 151, "pitch": 50, "duration": 10, "velocity": 44}, {"time": 154, "pitch": 55, "duration": 12, "velocity": 43}, {"time": 157, "pitch": 62, "duration": 14, "velocity": 82}, {"time": 163, "pitch": 50, "duration": 2, "velocity": 52}, {"time": 166, "pitch": 58, "duration": 6, "velocity": 48}, {"time": 169, "pitch": 55, "duration": 5, "velocity": 50}, {"time": 172, "pitch": 36, "duration": 18, "velocity": 59}, {"time": 175, "pitch": 43, "duration": 15, "velocity": 50}, {"time": 178, "pitch": 48, "duration": 13, "velocity": 56}, {"time": 181, "pitch": 55, "duration": 16, "velocity": 38}, {"time": 184, "pitch": 60, "duration": 13, "velocity": 43}, {"time": 184, "pitch": 64, "duration": 12, "velocity": 36}, {"time": 196, "pitch": 41, "duration": 19, "velocity": 66}, {"time": 199, "pitch": 48, "duration": 11, "velocity": 53}, {"time": 202, "pitch": 53, "duration": 7, "velocity": 69}, {"time": 205, "pitch": 57, "duration": 9, "velocity": 69}, {"time": 208, "pitch": 65, "duration": 12, "velocity": 99}, {"time": 211, "pitch": 48, "duration": 3, "velocity": 61}, {"time": 214, "pitch": 60, "duration": 6, "velocity": 72}, {"time": 217, "pitch": 57, "duration": 3, "velocity": 52}, {"time": 220, "pitch": 38, "duration": 15, "velocity": 64}, {"time": 223, "pitch": 45, "duration": 12, "velocity": 41}, {"time": 226, "pitch": 50, "duration": 7, "velocity": 42}, {"time": 229, "pitch": 57, "duration": 7, "velocity": 60}, {"time": 232, "pitch": 65, "duration": 12, "velocity": 83}, {"time": 235, "pitch": 50, "duration": 1, "velocity": 58}, {"time": 238, "pitch": 62, "duration": 6, "velocity": 56}, {"time": 241, "pitch": 57, "duration": 3, "velocity": 53}, {"time": 244, "pitch": 46, "duration": 18, "velocity": 59}, {"time": 247, "pitch": 53, "duration": 14, "velocity": 45}, {"time": 250, "pitch": 58, "duration": 7, "velocity": 57}, {"time": 253, "pitch": 62, "duration": 6, "velocity": 40}, {"time": 256, "pitch": 70, "duration": 12, "velocity": 97}, {"time": 259, "pitch": 58, "duration": 2, "velocity": 62}, {"time": 262, "pitch": 65, "duration": 6, "velocity": 55}, {"time": 265, "pitch": 62, "duration": 3, "velocity": 44}, {"time": 268, "pitch": 36, "duration": 17, "velocity": 52}, {"time": 271, "pitch": 43, "duration": 15, "velocity": 41}, {"time": 274, "pitch": 48, "duration": 8, "velocity": 41}, {"time": 277, "pitch": 55, "duration": 9, "velocity": 53}, {"time": 280, "pitch": 64, "duration": 13, "velocity": 85}, {"time": 286, "pitch": 60, "duration": 7, "velocity": 53}, {"time": 292, "pitch": 41, "duration": 16, "velocity": 59}, {"time": 295, "pitch": 48, "duration": 12, "velocity": 50}, {"time": 298, "pitch": 53, "duration": 5, "velocity": 56}, {"time": 301, "pitch": 57, "duration": 10, "velocity": 60}, {"time": 304, "pitch": 65, "duration": 14, "velocity": 83}, {"time": 310, "pitch": 60, "duration": 7, "velocity": 48}, {"time": 316, "pitch": 38, "duration": 15, "velocity": 51}, {"time": 319, "pitch": 45, "duration": 12, "velocity": 50}, {"time": 322, "pitch": 50, "duration": 7, "velocity": 44}, {"time": 325, "pitch": 57, "duration": 9, "velocity": 44}, {"time": 328, "pitch": 65, "duration": 12, "velocity": 95}, {"time": 331, "pitch": 50, "duration": 2, "velocity": 57}, {"time": 334, "pitch": 62, "duration": 6, "velocity": 76}, {"time": 340, "pitch": 46, "duration": 18, "velocity": 62}, {"time": 343, "pitch": 53, "duration": 14, "velocity": 40}, {"time": 346, "pitch": 58, "duration": 8, "velocity": 76}, {"time": 349, "pitch": 62, "duration": 7, "velocity": 57}, {"time": 352, "pitch": 70, "duration": 13, "velocity": 117}, {"time": 355, "pitch": 58, "duration": 2, "velocity": 65}, {"time": 358, "pitch": 65, "duration": 6, "velocity": 75}, {"time": 361, "pitch": 62, "duration": 3, "velocity": 63}, {"time": 364, "pitch": 36, "duration": 17, "velocity": 65}, {"time": 367, "pitch": 43, "duration": 14, "velocity": 44}, {"time": 370, "pitch": 48, "duration": 7, "velocity": 59}, {"time": 373, "pitch": 55, "duration": 4, "velocity": 63}, {"time": 376, "pitch": 60, "duration": 12, "velocity": 57}, {"time": 376, "pitch": 64, "duration": 12, "velocity": 68}, {"time": 382, "pitch": 55, "duration": 5, "velocity": 54}, {"time": 388, "pitch": 46, "duration": 18, "velocity": 89}, {"time": 391, "pitch": 53, "duration": 15, "velocity": 53}, {"time": 394, "pitch": 58, "duration": 5, "velocity": 56}, {"time": 397, "pitch": 65, "duration": 8, "velocity": 48}, {"time": 397, "pitch": 70, "duration": 15, "velocity": 53}, {"time": 403, "pitch": 58, "duration": 2, "velocity": 40}, {"time": 406, "pitch": 65, "duration": 6, "velocity": 64}, {"time": 412, "pitch": 38, "duration": 17, "velocity": 66}, {"time": 415, "pitch": 45, "duration": 15, "velocity": 54}, {"time": 418, "pitch": 50, "duration": 7, "velocity": 59}, {"time": 421, "pitch": 57, "duration": 14, "velocity": 55}, {"time": 424, "pitch": 65, "duration": 12, "velocity": 89}, {"time": 427, "pitch": 50, "duration": 4, "velocity": 54}, {"time": 430, "pitch": 62, "duration": 6, "velocity": 65}, {"time": 436, "pitch": 43, "duration": 18, "velocity": 68}, {"time": 439, "pitch": 50, "duration": 11, "velocity": 48}, {"time": 442, "pitch": 55, "duration": 7, "velocity": 61}, {"time": 445, "pitch": 62, "duration": 16, "velocity": 93}, {"time": 448, "pitch": 58, "duration": 7, "velocity": 93}, {"time": 451, "pitch": 50, "duration": 2, "velocity": 41}, {"time": 454, "pitch": 55, "duration": 7, "velocity": 72}, {"time": 457, "pitch": 58, "duration": 3, "velocity": 65}, {"time": 460, "pitch": 36, "duration": 17, "velocity": 76}, {"time": 463, "pitch": 43, "duration": 14, "velocity": 50}, {"time": 466, "pitch": 48, "duration": 7, "velocity": 85}, {"time": 469, "pitch": 55, "duration": 2, "velocity": 40}, {"time": 469, "pitch": 60, "duration": 2, "velocity": 72}, {"time": 469, "pitch": 64, "duration": 2, "velocity": 68}, {"time": 472, "pitch": 60, "duration": 7, "velocity": 96}, {"time": 472, "pitch": 64, "duration": 12, "velocity": 92}, {"time": 475, "pitch": 48, "duration": 4, "velocity": 69}, {"time": 478, "pitch": 55, "duration": 6, "velocity": 86}, {"time": 481, "pitch": 60, "duration": 3, "velocity": 95}, {"time": 484, "pitch": 41, "duration": 22, "velocity": 77}, {"time": 485, "pitch": 48, "duration": 23, "velocity": 67}, {"time": 487, "pitch": 53, "duration": 3, "velocity": 72}, {"time": 488, "pitch": 57, "duration": 2, "velocity": 59}, {"time": 490, "pitch": 60, "duration": 6, "velocity": 72}, {"time": 493, "pitch": 53, "duration": 4, "velocity": 62}, {"time": 496, "pitch": 65, "duration": 12, "velocity": 75}, {"time": 499, "pitch": 53, "duration": 3, "velocity": 63}, {"time": 502, "pitch": 60, "duration": 3, "velocity": 68}, {"time": 503, "pitch": 53, "duration": 2, "velocity": 58}, {"time": 505, "pitch": 57, "duration": 2, "velocity": 73}, {"time": 506, "pitch": 60, "duration": 2, "velocity": 68}, {"time": 508, "pitch": 41, "duration": 17, "velocity": 78}, {"time": 509, "pitch": 48, "duration": 13, "velocity": 53}, {"time": 511, "pitch": 53, "duration": 9, "velocity": 68}, {"time": 512, "pitch": 57, "duration": 2, "velocity": 65}, {"time": 512, "pitch": 60, "duration": 7, "velocity": 63}, {"time": 517, "pitch": 57, "duration": 4, "velocity": 71}, {"time": 520, "pitch": 65, "duration": 6, "velocity": 89}, {"time": 523, "pitch": 57, "duration": 3, "velocity": 72}, {"time": 526, "pitch": 40, "duration": 5, "velocity": 76}, {"time": 529, "pitch": 57, "duration": 2, "velocity": 61}, {"time": 530, "pitch": 60, "duration": 2, "velocity": 59}, {"time": 532, "pitch": 38, "duration": 22, "velocity": 67}, {"time": 535, "pitch": 45, "duration": 20, "velocity": 65}, {"time": 538, "pitch": 62, "duration": 5, "velocity": 67}, {"time": 541, "pitch": 50, "duration": 4, "velocity": 73}, {"time": 544, "pitch": 65, "duration": 12, "velocity": 92}, {"time": 547, "pitch": 50, "duration": 3, "velocity": 62}, {"time": 550, "pitch": 62, "duration": 3, "velocity": 75}, {"time": 551, "pitch": 50, "duration": 2, "velocity": 57}, {"time": 553, "pitch": 57, "duration": 3, "velocity": 71}, {"time": 554, "pitch": 62, "duration": 2, "velocity": 69}, {"time": 556, "pitch": 38, "duration": 11, "velocity": 53}, {"time": 557, "pitch": 45, "duration": 11, "velocity": 67}, {"time": 559, "pitch": 50, "duration": 4, "velocity": 64}, {"time": 560, "pitch": 57, "duration": 3, "velocity": 55}, {"time": 562, "pitch": 65, "duration": 10, "velocity": 83}, {"time": 563, "pitch": 50, "duration": 5, "velocity": 59}, {"time": 565, "pitch": 62, "duration": 7, "velocity": 75}, {"time": 566, "pitch": 57, "duration": 6, "velocity": 85}, {"time": 568, "pitch": 38, "duration": 8, "velocity": 85}, {"time": 571, "pitch": 50, "duration": 7, "velocity": 95}, {"time": 574, "pitch": 62, "duration": 7, "velocity": 99}, {"time": 574, "pitch": 65, "duration": 7, "velocity": 100}, {"time": 577, "pitch": 57, "duration": 3, "velocity": 81}, {"time": 580, "pitch": 46, "duration": 18, "velocity": 92}, {"time": 583, "pitch": 53, "duration": 13, "velocity": 58}, {"time": 586, "pitch": 58, "duration": 7, "velocity": 90}, {"time": 589, "pitch": 62, "duration": 3, "velocity": 76}, {"time": 592, "pitch": 65, "duration": 6, "velocity": 76}, {"time": 592, "pitch": 70, "duration": 12, "velocity": 99}, {"time": 595, "pitch": 58, "duration": 2, "velocity": 73}, {"time": 598, "pitch": 62, "duration": 7, "velocity": 88}, {"time": 601, "pitch": 65, "duration": 3, "velocity": 79}, {"time": 604, "pitch": 43, "duration": 18, "velocity": 69}, {"time": 607, "pitch": 50, "duration": 5, "velocity": 55}, {"time": 608, "pitch": 55, "duration": 4, "velocity": 66}, {"time": 610, "pitch": 57, "duration": 6, "velocity": 60}, {"time": 613, "pitch": 50, "duration": 4, "velocity": 65}, {"time": 616, "pitch": 58, "duration": 7, "velocity": 85}, {"time": 616, "pitch": 62, "duration": 12, "velocity": 76}, {"time": 619, "pitch": 50, "duration": 3, "velocity": 65}, {"time": 622, "pitch": 55, "duration": 6, "velocity": 93}, {"time": 625, "pitch": 58, "duration": 3, "velocity": 93}, {"time": 628, "pitch": 36, "duration": 23, "velocity": 78}, {"time": 629, "pitch": 43, "duration": 23, "velocity": 71}, {"time": 631, "pitch": 48, "duration": 17, "velocity": 69}, {"time": 632, "pitch": 52, "duration": 2, "velocity": 68}, {"time": 634, "pitch": 55, "duration": 1, "velocity": 86}, {"time": 635, "pitch": 60, "duration": 2, "velocity": 82}, {"time": 637, "pitch": 64, "duration": 1, "velocity": 79}, {"time": 638, "pitch": 67, "duration": 1, "velocity": 90}, {"time": 640, "pitch": 72, "duration": 2, "velocity": 99}, {"time": 641, "pitch": 76, "duration": 2, "velocity": 89}, {"time": 643, "pitch": 79, "duration": 2, "velocity": 97}, {"time": 644, "pitch": 76, "duration": 1, "velocity": 107}, {"time": 646, "pitch": 72, "duration": 1, "velocity": 112}, {"time": 647, "pitch": 64, "duration": 2, "velocity": 73}, {"time": 649, "pitch": 67, "duration": 4, "velocity": 89}, {"time": 650, "pitch": 64, "duration": 3, "velocity": 78}, {"time": 652, "pitch": 36, "duration": 18, "velocity": 99}, {"time": 652, "pitch": 60, "duration": 2, "velocity": 92}, {"time": 655, "pitch": 43, "duration": 15, "velocity": 75}, {"time": 658, "pitch": 52, "duration": 2, "velocity": 79}, {"time": 658, "pitch": 55, "duration": 2, "velocity": 82}, {"time": 661, "pitch": 52, "duration": 1, "velocity": 88}, {"time": 661, "pitch": 55, "duration": 1, "velocity": 93}, {"time": 664, "pitch": 48, "duration": 5, "velocity": 71}, {"time": 664, "pitch": 60, "duration": 2, "velocity": 96}, {"time": 664, "pitch": 64, "duration": 2, "velocity": 92}, {"time": 667, "pitch": 60, "duration": 2, "velocity": 93}, {"time": 667, "pitch": 64, "duration": 2, "velocity": 86}, {"time": 670, "pitch": 60, "duration": 5, "velocity": 92}, {"time": 670, "pitch": 64, "duration": 5, "velocity": 85}, {"time": 673, "pitch": 55, "duration": 3, "velocity": 78}, {"time": 676, "pitch": 41, "duration": 23, "velocity": 85}, {"time": 679, "pitch": 48, "duration": 11, "velocity": 66}, {"time": 682, "pitch": 53, "duration": 3, "velocity": 89}, {"time": 685, "pitch": 60, "duration": 7, "velocity": 77}, {"time": 688, "pitch": 69, "duration": 12, "velocity": 100}, {"time": 691, "pitch": 48, "duration": 4, "velocity": 71}, {"time": 694, "pitch": 60, "duration": 5, "velocity": 27}, {"time": 694, "pitch": 67, "duration": 6, "velocity": 88}, {"time": 697, "pitch": 48, "duration": 3, "velocity": 57}, {"time": 700, "pitch": 41, "duration": 13, "velocity": 73}, {"time": 703, "pitch": 48, "duration": 9, "velocity": 58}, {"time": 706, "pitch": 53, "duration": 5, "velocity": 88}, {"time": 709, "pitch": 65, "duration": 1, "velocity": 55}, {"time": 709, "pitch": 69, "duration": 1, "velocity": 37}, {"time": 712, "pitch": 60, "duration": 1, "velocity": 57}, {"time": 712, "pitch": 65, "duration": 6, "velocity": 100}, {"time": 712, "pitch": 69, "duration": 6, "velocity": 96}, {"time": 715, "pitch": 41, "duration": 2, "velocity": 52}, {"time": 718, "pitch": 40, "duration": 5, "velocity": 81}, {"time": 724, "pitch": 38, "duration": 22, "velocity": 65}, {"time": 727, "pitch": 45, "duration": 21, "velocity": 44}, {"time": 730, "pitch": 50, "duration": 7, "velocity": 95}, {"time": 733, "pitch": 57, "duration": 8, "velocity": 82}, {"time": 736, "pitch": 65, "duration": 18, "velocity": 100}, {"time": 739, "pitch": 50, "duration": 6, "velocity": 71}, {"time": 742, "pitch": 57, "duration": 1, "velocity": 32}, {"time": 742, "pitch": 62, "duration": 12, "velocity": 92}, {"time": 745, "pitch": 57, "duration": 8, "velocity": 77}, {"time": 748, "pitch": 38, "duration": 18, "velocity": 82}, {"time": 751, "pitch": 45, "duration": 12, "velocity": 56}, {"time": 752, "pitch": 50, "duration": 8, "velocity": 66}, {"time": 754, "pitch": 57, "duration": 8, "velocity": 68}, {"time": 757, "pitch": 62, "duration": 3, "velocity": 89}, {"time": 760, "pitch": 65, "duration": 12, "velocity": 117}, {"time": 763, "pitch": 45, "duration": 3, "velocity": 74}, {"time": 766, "pitch": 62, "duration": 6, "velocity": 90}, {"time": 769, "pitch": 57, "duration": 3, "velocity": 73}, {"time": 772, "pitch": 34, "duration": 19, "velocity": 95}, {"time": 775, "pitch": 46, "duration": 4, "velocity": 59}, {"time": 778, "pitch": 53, "duration": 9, "velocity": 69}, {"time": 781, "pitch": 46, "duration": 5, "velocity": 59}, {"time": 784, "pitch": 58, "duration": 7, "velocity": 96}, {"time": 784, "pitch": 62, "duration": 12, "velocity": 90}, {"time": 787, "pitch": 46, "duration": 3, "velocity": 81}, {"time": 790, "pitch": 53, "duration": 6, "velocity": 89}, {"time": 793, "pitch": 58, "duration": 3, "velocity": 88}, {"time": 796, "pitch": 31, "duration": 18, "velocity": 72}, {"time": 797, "pitch": 38, "duration": 17, "velocity": 59}, {"time": 799, "pitch": 43, "duration": 4, "velocity": 68}, {"time": 800, "pitch": 50, "duration": 10, "velocity": 59}, {"time": 802, "pitch": 55, "duration": 5, "velocity": 78}, {"time": 805, "pitch": 43, "duration": 4, "velocity": 46}, {"time": 808, "pitch": 58, "duration": 6, "velocity": 92}, {"time": 811, "pitch": 43, "duration": 5, "velocity": 68}, {"time": 814, "pitch": 55, "duration": 4, "velocity": 85}, {"time": 817, "pitch": 58, "duration": 3, "velocity": 93}, {"time": 820, "pitch": 36, "duration": 21, "velocity": 68}, {"time": 821, "pitch": 43, "duration": 42, "velocity": 53}, {"time": 823, "pitch": 48, "duration": 5, "velocity": 64}, {"time": 824, "pitch": 52, "duration": 3, "velocity": 58}, {"time": 826, "pitch": 55, "duration": 3, "velocity": 65}, {"time": 829, "pitch": 48, "duration": 5, "velocity": 63}, {"time": 832, "pitch": 60, "duration": 9, "velocity": 62}, {"time": 835, "pitch": 48, "duration": 25, "velocity": 53}, {"time": 838, "pitch": 64, "duration": 29, "velocity": 52}, {"time": 841, "pitch": 67, "duration": 27, "velocity": 64}, {"time": 844, "pitch": 36, "duration": 18, "velocity": 52}, {"time": 844, "pitch": 60, "duration": 24, "velocity": 52}, {"time": 868, "pitch": 38, "duration": 11, "velocity": 88}, {"time": 871, "pitch": 57, "duration": 8, "velocity": 52}, {"time": 874, "pitch": 65, "duration": 8, "velocity": 90}, {"time": 877, "pitch": 62, "duration": 3, "velocity": 56}, {"time": 880, "pitch": 40, "duration": 9, "velocity": 70}, {"time": 886, "pitch": 62, "duration": 6, "velocity": 56}, {"time": 889, "pitch": 65, "duration": 3, "velocity": 72}, {"time": 892, "pitch": 41, "duration": 18, "velocity": 79}, {"time": 895, "pitch": 48, "duration": 11, "velocity": 43}, {"time": 898, "pitch": 53, "duration": 5, "velocity": 85}, {"time": 901, "pitch": 55, "duration": 4, "velocity": 56}, {"time": 904, "pitch": 60, "duration": 12, "velocity": 95}, {"time": 907, "pitch": 48, "duration": 2, "velocity": 51}, {"time": 910, "pitch": 57, "duration": 5, "velocity": 85}, {"time": 913, "pitch": 53, "duration": 2, "velocity": 61}, {"time": 916, "pitch": 34, "duration": 19, "velocity": 73}, {"time": 919, "pitch": 41, "duration": 16, "velocity": 35}, {"time": 922, "pitch": 46, "duration": 7, "velocity": 69}, {"time": 925, "pitch": 53, "duration": 10, "velocity": 38}, {"time": 928, "pitch": 62, "duration": 9, "velocity": 90}, {"time": 931, "pitch": 46, "duration": 7, "velocity": 56}, {"time": 934, "pitch": 58, "duration": 4, "velocity": 73}, {"time": 937, "pitch": 34, "duration": 26, "velocity": 39}, {"time": 938, "pitch": 53, "duration": 25, "velocity": 53}, {"time": 940, "pitch": 41, "duration": 24, "velocity": 44}, {"time": 940, "pitch": 46, "duration": 24, "velocity": 52}, {"time": 940, "pitch": 58, "duration": 24, "velocity": 66}, {"time": 940, "pitch": 62, "duration": 23, "velocity": 69}, {"time": 964, "pitch": 41, "duration": 1, "velocity": 59}, {"time": 967, "pitch": 48, "duration": 12, "velocity": 50}, {"time": 970, "pitch": 53, "duration": 5, "velocity": 56}, {"time": 973, "pitch": 57, "duration": 10, "velocity": 60}, {"time": 976, "pitch": 65, "duration": 14, "velocity": 83}, {"time": 982, "pitch": 60, "duration": 7, "velocity": 48}, {"time": 988, "pitch": 38, "duration": 15, "velocity": 51}, {"time": 991, "pitch": 45, "duration": 12, "velocity": 50}, {"time": 994, "pitch": 50, "duration": 7, "velocity": 44}, {"time": 997, "pitch": 57, "duration": 9, "velocity": 44}, {"time": 1000, "pitch": 65, "duration": 12, "velocity": 95}, {"time": 1003, "pitch": 50, "duration": 2, "velocity": 57}, {"time": 1006, "pitch": 62, "duration": 6, "velocity": 76}, {"time": 1012, "pitch": 46, "duration": 18, "velocity": 62}, {"time": 1015, "pitch": 53, "duration": 14, "velocity": 40}, {"time": 1018, "pitch": 58, "duration": 8, "velocity": 76}, {"time": 1021, "pitch": 62, "duration": 7, "velocity": 57}, {"time": 1024, "pitch": 70, "duration": 13, "velocity": 117}, {"time": 1027, "pitch": 58, "duration": 2, "velocity": 65}, {"time": 1030, "pitch": 65, "duration": 6, "velocity": 75}, {"time": 1033, "pitch": 62, "duration": 3, "velocity": 63}, {"time": 1036, "pitch": 36, "duration": 17, "velocity": 65}, {"time": 1039, "pitch": 43, "duration": 14, "velocity": 44}, {"time": 1042, "pitch": 48, "duration": 7, "velocity": 59}, {"time": 1045, "pitch": 55, "duration": 4, "velocity": 63}, {"time": 1048, "pitch": 60, "duration": 12, "velocity": 57}, {"time": 1048, "pitch": 64, "duration": 12, "velocity": 68}, {"time": 1054, "pitch": 55, "duration": 5, "velocity": 54}, {"time": 1060, "pitch": 46, "duration": 18, "velocity": 89}, {"time": 1063, "pitch": 53, "duration": 15, "velocity": 53}, {"time": 1066, "pitch": 58, "duration": 5, "velocity": 56}, {"time": 1069, "pitch": 65, "duration": 8, "velocity": 48}, {"time": 1069, "pitch": 70, "duration": 15, "velocity": 53}, {"time": 1075, "pitch": 58, "duration": 2, "velocity": 40}, {"time": 1078, "pitch": 65, "duration": 6, "velocity": 64}, {"time": 1084, "pitch": 38, "duration": 17, "velocity": 66}, {"time": 1087, "pitch": 45, "duration": 15, "velocity": 54}, {"time": 1090, "pitch": 50, "duration": 7, "velocity": 59}, {"time": 1093, "pitch": 57, "duration": 14, "velocity": 55}, {"time": 1096, "pitch": 65, "duration": 12, "velocity": 89}, {"time": 1099, "pitch": 50, "duration": 4, "velocity": 54}, {"time": 1102, "pitch": 62, "duration": 6, "velocity": 65}, {"time": 1108, "pitch": 43, "duration": 18, "velocity": 68}, {"time": 1111, "pitch": 50, "duration": 11, "velocity": 48}, {"time": 1114, "pitch": 55, "duration": 7, "velocity": 61}, {"time": 1117, "pitch": 62, "duration": 16, "velocity": 93}, {"time": 1120, "pitch": 58, "duration": 7, "velocity": 93}, {"time": 1123, "pitch": 50, "duration": 2, "velocity": 41}, {"time": 1126, "pitch": 55, "duration": 7, "velocity": 72}, {"time": 1129, "pitch": 58, "duration": 3, "velocity": 65}, {"time": 1132, "pitch": 36, "duration": 17, "velocity": 76}, {"time": 1135, "pitch": 43, "duration": 14, "velocity": 50}, {"time": 1138, "pitch": 48, "duration": 7, "velocity": 85}, {"time": 1141, "pitch": 55, "duration": 2, "velocity": 40}, {"time": 1141, "pitch": 60, "duration": 2, "velocity": 72}, {"time": 1141, "pitch": 64, "duration": 2, "velocity": 68}, {"time": 1144, "pitch": 60, "duration": 7, "velocity": 96}, {"time": 1144, "pitch": 64, "duration": 12, "velocity": 92}, {"time": 1147, "pitch": 48, "duration": 4, "velocity": 69}, {"time": 1150, "pitch": 55, "duration": 6, "velocity": 86}, {"time": 1153, "pitch": 60, "duration": 3, "velocity": 95}, {"time": 1156, "pitch": 41, "duration": 22, "velocity": 77}, {"time": 1157, "pitch": 48, "duration": 23, "velocity": 67}, {"time": 1159, "pitch": 53, "duration": 3, "velocity": 72}, {"time": 1160, "pitch": 57, "duration": 2, "velocity": 59}, {"time": 1162, "pitch": 60, "duration": 6, "velocity": 72}, {"time": 1165, "pitch": 53, "duration": 4, "velocity": 62}, {"time": 1168, "pitch": 65, "duration": 12, "velocity": 75}, {"time": 1171, "pitch": 53, "duration": 3, "velocity": 63}, {"time": 1174, "pitch": 60, "duration": 3, "velocity": 68}, {"time": 1175, "pitch": 53, "duration": 2, "velocity": 58}, {"time": 1177, "pitch": 57, "duration": 2, "velocity": 73}, {"time": 1178, "pitch": 60, "duration": 2, "velocity": 68}, {"time": 1180, "pitch": 41, "duration": 17, "velocity": 78}, {"time": 1181, "pitch": 48, "duration": 13, "velocity": 53}, {"time": 1183, "pitch": 53, "duration": 9, "velocity": 68}, {"time": 1184, "pitch": 57, "duration": 2, "velocity": 65}, {"time": 1184, "pitch": 60, "duration": 7, "velocity": 63}, {"time": 1189, "pitch": 57, "duration": 4, "velocity": 71}, {"time": 1192, "pitch": 65, "duration": 6, "velocity": 89}, {"time": 1195, "pitch": 57, "duration": 3, "velocity": 72}, {"time": 1198, "pitch": 40, "duration": 5, "velocity": 76}, {"time": 1201, "pitch": 57, "duration": 2, "velocity": 61}, {"time": 1202, "pitch": 60, "duration": 2, "velocity": 59}, {"time": 1204, "pitch": 38, "duration": 22, "velocity": 67}, {"time": 1207, "pitch": 45, "duration": 20, "velocity": 65}, {"time": 1210, "pitch": 62, "duration": 5, "velocity": 67}, {"time": 1213, "pitch": 50, "duration": 4, "velocity": 73}, {"time": 1216, "pitch": 65, "duration": 12, "velocity": 92}, {"time": 1219, "pitch": 50, "duration": 3, "velocity": 62}, {"time": 1222, "pitch": 62, "duration": 3, "velocity": 75}, {"time": 1223, "pitch": 50, "duration": 2, "velocity": 57}, {"time": 1225, "pitch": 57, "duration": 3, "velocity": 71}, {"time": 1226, "pitch": 62, "duration": 2, "velocity": 69}, {"time": 1228, "pitch": 38, "duration": 11, "velocity": 53}, {"time": 1229, "pitch": 45, "duration": 11, "velocity": 67}, {"time": 1231, "pitch": 50, "duration": 4, "velocity": 64}, {"time": 1232, "pitch": 57, "duration": 3, "velocity": 55}, {"time": 1234, "pitch": 65, "duration": 10, "velocity": 83}, {"time": 1235, "pitch": 50, "duration": 5, "velocity": 59}, {"time": 1237, "pitch": 62, "duration": 7, "velocity": 75}, {"time": 1238, "pitch": 57, "duration": 6, "velocity": 85}, {"time": 1240, "pitch": 38, "duration": 8, "velocity": 85}, {"time": 1243, "pitch": 50, "duration": 7, "velocity": 95}, {"time": 1246, "pitch": 62, "duration": 7, "velocity": 99}, {"time": 1246, "pitch": 65, "duration": 7, "velocity": 100}, {"time": 1249, "pitch": 57, "duration": 3, "velocity": 81}, {"time": 1252, "pitch": 46, "duration": 18, "velocity": 92}, {"time": 1255, "pitch": 53, "duration": 13, "velocity": 58}, {"time": 1258, "pitch": 58, "duration": 7, "velocity": 90}, {"time": 1261, "pitch": 62, "duration": 3, "velocity": 76}, {"time": 1264, "pitch": 65, "duration": 6, "velocity": 76}, {"time": 1264, "pitch": 70, "duration": 12, "velocity": 99}, {"time": 1267, "pitch": 58, "duration": 2, "velocity": 73}, {"time": 1270, "pitch": 62, "duration": 7, "velocity": 88}, {"time": 1273, "pitch": 65, "duration": 3, "velocity": 79}, {"time": 1276, "pitch": 43, "duration": 18, "velocity": 69}, {"time": 1279, "pitch": 50, "duration": 5, "velocity": 55}, {"time": 1280, "pitch": 55, "duration": 4, "velocity": 66}, {"time": 1282, "pitch": 57, "duration": 6, "velocity": 60}, {"time": 1285, "pitch": 50, "duration": 4, "velocity": 65}, {"time": 1288, "pitch": 58, "duration": 7, "velocity": 85}, {"time": 1288, "pitch": 62, "duration": 12, "velocity": 76}, {"time": 1291, "pitch": 50, "duration": 3, "velocity": 65}, {"time": 1294, "pitch": 55, "duration": 6, "velocity": 93}, {"time": 1297, "pitch": 58, "duration": 3, "velocity": 93}, {"time": 1300, "pitch": 36, "duration": 23, "velocity": 78}, {"time": 1301, "pitch": 43, "duration": 23, "velocity": 71}, {"time": 1303, "pitch": 48, "duration": 17, "velocity": 69}, {"time": 1304, "pitch": 52, "duration": 2, "velocity": 68}, {"time": 1306, "pitch": 55, "duration": 1, "velocity": 86}, {"time": 1307, "pitch": 60, "duration": 2, "velocity": 82}, {"time": 1309, "pitch": 64, "duration": 1, "velocity": 79}, {"time": 1310, "pitch": 67, "duration": 1, "velocity": 90}, {"time": 1312, "pitch": 72, "duration": 2, "velocity": 99}, {"time": 1313, "pitch": 76, "duration": 2, "velocity": 89}, {"time": 1315, "pitch": 79, "duration": 2, "velocity": 97}, {"time": 1316, "pitch": 76, "duration": 1, "velocity": 107}, {"time": 1318, "pitch": 72, "duration": 1, "velocity": 112}, {"time": 1319, "pitch": 64, "duration": 2, "velocity": 73}, {"time": 1321, "pitch": 67, "duration": 4, "velocity": 89}, {"time": 1322, "pitch": 64, "duration": 3, "velocity": 78}, {"time": 1324, "pitch": 36, "duration": 18, "velocity": 99}, {"time": 1324, "pitch": 60, "duration": 2, "velocity": 92}, {"time": 1327, "pitch": 43, "duration": 15, "velocity": 75}, {"time": 1330, "pitch": 52, "duration": 2, "velocity": 79}, {"time": 1330, "pitch": 55, "duration": 2, "velocity": 82}, {"time": 1333, "pitch": 52, "duration": 1, "velocity": 88}, {"time": 1333, "pitch": 55, "duration": 1, "velocity": 93}, {"time": 1336, "pitch": 48, "duration": 5, "velocity": 71}, {"time": 1336, "pitch": 60, "duration": 2, "velocity": 96}, {"time": 1336, "pitch": 64, "duration": 2, "velocity": 92}, {"time": 1339, "pitch": 60, "duration": 2, "velocity": 93}, {"time": 1339, "pitch": 64, "duration": 2, "velocity": 86}, {"time": 1342, "pitch": 60, "duration": 5, "velocity": 92}, {"time": 1342, "pitch": 64, "duration": 5, "velocity": 85}, {"time": 1345, "pitch": 55, "duration": 3, "velocity": 78}, {"time": 1348, "pitch": 41, "duration": 23, "velocity": 85}, {"time": 1351, "pitch": 48, "duration": 11, "velocity": 66}, {"time": 1354, "pitch": 53, "duration": 3, "velocity": 89}, {"time": 1357, "pitch": 60, "duration": 7, "velocity": 77}, {"time": 1360, "pitch": 69, "duration": 12, "velocity": 100}, {"time": 1363, "pitch": 48, "duration": 4, "velocity": 71}, {"time": 1366, "pitch": 60, "duration": 5, "velocity": 27}, {"time": 1366, "pitch": 67, "duration": 6, "velocity": 88}, {"time": 1369, "pitch": 48, "duration": 3, "velocity": 57}, {"time": 1372, "pitch": 41, "duration": 13, "velocity": 73}, {"time": 1375, "pitch": 48, "duration": 9, "velocity": 58}, {"time": 1378, "pitch": 53, "duration": 5, "velocity": 88}, {"time": 1381, "pitch": 65, "duration": 1, "velocity": 55}, {"time": 1381, "pitch": 69, "duration": 1, "velocity": 37}, {"time": 1384, "pitch": 60, "duration": 1, "velocity": 57}, {"time": 1384, "pitch": 65, "duration": 6, "velocity": 100}, {"time": 1384, "pitch": 69, "duration": 6, "velocity": 96}, {"time": 1387, "pitch": 41, "duration": 2, "velocity": 52}, {"time": 1390, "pitch": 40, "duration": 5, "velocity": 81}, {"time": 1396, "pitch": 38, "duration": 22, "velocity": 65}, {"time": 1399, "pitch": 45, "duration": 21, "velocity": 44}, {"time": 1402, "pitch": 50, "duration": 7, "velocity": 95}, {"time": 1405, "pitch": 57, "duration": 8, "velocity": 82}, {"time": 1408, "pitch": 65, "duration": 18, "velocity": 100}, {"time": 1411, "pitch": 50, "duration": 6, "velocity": 71}, {"time": 1414, "pitch": 57, "duration": 1, "velocity": 32}, {"time": 1414, "pitch": 62, "duration": 12, "velocity": 92}, {"time": 1417, "pitch": 57, "duration": 8, "velocity": 77}, {"time": 1420, "pitch": 38, "duration": 18, "velocity": 82}, {"time": 1423, "pitch": 45, "duration": 12, "velocity": 56}, {"time": 1424, "pitch": 50, "duration": 8, "velocity": 66}, {"time": 1426, "pitch": 57, "duration": 8, "velocity": 68}, {"time": 1429, "pitch": 62, "duration": 3, "velocity": 89}, {"time": 1432, "pitch": 65, "duration": 12, "velocity": 117}, {"time": 1435, "pitch": 45, "duration": 3, "velocity": 74}, {"time": 1438, "pitch": 62, "duration": 6, "velocity": 90}, {"time": 1441, "pitch": 57, "duration": 3, "velocity": 73}, {"time": 1444, "pitch": 34, "duration": 19, "velocity": 95}, {"time": 1447, "pitch": 46, "duration": 4, "velocity": 59}, {"time": 1450, "pitch": 53, "duration": 9, "velocity": 69}, {"time": 1453, "pitch": 46, "duration": 5, "velocity": 59}, {"time": 1456, "pitch": 58, "duration": 7, "velocity": 96}, {"time": 1456, "pitch": 62, "duration": 12, "velocity": 90}, {"time": 1459, "pitch": 46, "duration": 3, "velocity": 81}, {"time": 1462, "pitch": 53, "duration": 6, "velocity": 89}, {"time": 1465, "pitch": 58, "duration": 3, "velocity": 88}, {"time": 1468, "pitch": 31, "duration": 18, "velocity": 72}, {"time": 1469, "pitch": 38, "duration": 17, "velocity": 59}, {"time": 1471, "pitch": 43, "duration": 4, "velocity": 68}, {"time": 1472, "pitch": 50, "duration": 10, "velocity": 59}, {"time": 1474, "pitch": 55, "duration": 5, "velocity": 78}, {"time": 1477, "pitch": 43, "duration": 4, "velocity": 46}, {"time": 1480, "pitch": 58, "duration": 6, "velocity": 92}, {"time": 1483, "pitch": 43, "duration": 5, "velocity": 68}, {"time": 1486, "pitch": 55, "duration": 4, "velocity": 85}, {"time": 1489, "pitch": 58, "duration": 3, "velocity": 93}, {"time": 1492, "pitch": 36, "duration": 21, "velocity": 68}, {"time": 1493, "pitch": 43, "duration": 42, "velocity": 53}, {"time": 1495, "pitch": 48, "duration": 5, "velocity": 64}, {"time": 1496, "pitch": 52, "duration": 3, "velocity": 58}, {"time": 1498, "pitch": 55, "duration": 3, "velocity": 65}, {"time": 1501, "pitch": 48, "duration": 5, "velocity": 63}, {"time": 1504, "pitch": 60, "duration": 9, "velocity": 62}, {"time": 1507, "pitch": 48, "duration": 25, "velocity": 53}, {"time": 1516, "pitch": 36, "duration": 18, "velocity": 52}, {"time": 1516, "pitch": 60, "duration": 24, "velocity": 52}, {"time": 1516, "pitch": 64, "duration": 29, "velocity": 52}, {"time": 1516, "pitch": 67, "duration": 26, "velocity": 64}, {"time": 1541, "pitch": 46, "duration": 19, "velocity": 112}, {"time": 1543, "pitch": 58, "duration": 5, "velocity": 79}, {"time": 1546, "pitch": 62, "duration": 10, "velocity": 78}, {"time": 1549, "pitch": 58, "duration": 1, "velocity": 42}, {"time": 1549, "pitch": 65, "duration": 2, "velocity": 29}, {"time": 1552, "pitch": 65, "duration": 5, "velocity": 77}, {"time": 1552, "pitch": 70, "duration": 5, "velocity": 107}, {"time": 1555, "pitch": 58, "duration": 4, "velocity": 96}, {"time": 1558, "pitch": 65, "duration": 6, "velocity": 92}, {"time": 1558, "pitch": 70, "duration": 6, "velocity": 99}, {"time": 1561, "pitch": 62, "duration": 4, "velocity": 95}, {"time": 1564, "pitch": 45, "duration": 19, "velocity": 83}, {"time": 1567, "pitch": 52, "duration": 4, "velocity": 63}, {"time": 1568, "pitch": 57, "duration": 8, "velocity": 69}, {"time": 1570, "pitch": 60, "duration": 5, "velocity": 81}, {"time": 1573, "pitch": 52, "duration": 4, "velocity": 78}, {"time": 1576, "pitch": 64, "duration": 12, "velocity": 107}, {"time": 1579, "pitch": 52, "duration": 3, "velocity": 88}, {"time": 1582, "pitch": 60, "duration": 6, "velocity": 99}, {"time": 1585, "pitch": 57, "duration": 3, "velocity": 89}, {"time": 1588, "pitch": 43, "duration": 18, "velocity": 72}, {"time": 1589, "pitch": 50, "duration": 6, "velocity": 71}, {"time": 1591, "pitch": 55, "duration": 2, "velocity": 79}, {"time": 1592, "pitch": 58, "duration": 2, "velocity": 83}, {"time": 1594, "pitch": 62, "duration": 10, "velocity": 100}, {"time": 1595, "pitch": 50, "duration": 5, "velocity": 28}, {"time": 1597, "pitch": 58, "duration": 8, "velocity": 97}, {"time": 1600, "pitch": 55, "duration": 5, "velocity": 97}, {"time": 1603, "pitch": 50, "duration": 2, "velocity": 96}, {"time": 1606, "pitch": 58, "duration": 4, "velocity": 127}, {"time": 1606, "pitch": 62, "duration": 3, "velocity": 100}, {"time": 1609, "pitch": 55, "duration": 3, "velocity": 81}, {"time": 1612, "pitch": 36, "duration": 6, "velocity": 59}, {"time": 1612, "pitch": 43, "duration": 6, "velocity": 78}, {"time": 1612, "pitch": 48, "duration": 6, "velocity": 89}, {"time": 1612, "pitch": 55, "duration": 6, "velocity": 92}, {"time": 1612, "pitch": 60, "duration": 6, "velocity": 95}, {"time": 1612, "pitch": 64, "duration": 6, "velocity": 93}, {"time": 1621, "pitch": 36, "duration": 9, "velocity": 72}, {"time": 1621, "pitch": 43, "duration": 9, "velocity": 90}, {"time": 1621, "pitch": 48, "duration": 9, "velocity": 97}, {"time": 1621, "pitch": 55, "duration": 8, "velocity": 93}, {"time": 1621, "pitch": 60, "duration": 8, "velocity": 95}, {"time": 1621, "pitch": 64, "duration": 8, "velocity": 90}, {"time": 1630, "pitch": 55, "duration": 1, "velocity": 58}, {"time": 1630, "pitch": 60, "duration": 3, "velocity": 102}, {"time": 1630, "pitch": 64, "duration": 3, "velocity": 97}, {"time": 1636, "pitch": 37, "duration": 8, "velocity": 88}, {"time": 1636, "pitch": 49, "duration": 8, "velocity": 90}, {"time": 1636, "pitch": 61, "duration": 7, "velocity": 112}, {"time": 1636, "pitch": 65, "duration": 7, "velocity": 107}, {"time": 1636, "pitch": 68, "duration": 7, "velocity": 100}, {"time": 1645, "pitch": 37, "duration": 14, "velocity": 107}, {"time": 1645, "pitch": 49, "duration": 12, "velocity": 102}, {"time": 1645, "pitch": 61, "duration": 39, "velocity": 102}, {"time": 1645, "pitch": 65, "duration": 38, "velocity": 127}, {"time": 1645, "pitch": 68, "duration": 39, "velocity": 112}, {"time": 1660, "pitch": 37, "duration": 24, "velocity": 85}, {"time": 1684, "pitch": 42, "duration": 22, "velocity": 77}, {"time": 1685, "pitch": 49, "duration": 23, "velocity": 67}, {"time": 1687, "pitch": 54, "duration": 3, "velocity": 72}, {"time": 1688, "pitch": 58, "duration": 2, "velocity": 59}, {"time": 1690, "pitch": 61, "duration": 6, "velocity": 72}, {"time": 1693, "pitch": 54, "duration": 4, "velocity": 62}, {"time": 1696, "pitch": 66, "duration": 12, "velocity": 75}, {"time": 1699, "pitch": 54, "duration": 3, "velocity": 63}, {"time": 1702, "pitch": 61, "duration": 3, "velocity": 68}, {"time": 1703, "pitch": 54, "duration": 2, "velocity": 58}, {"time": 1705, "pitch": 58, "duration": 2, "velocity": 73}, {"time": 1706, "pitch": 61, "duration": 2, "velocity": 68}, {"time": 1708, "pitch": 42, "duration": 17, "velocity": 78}, {"time": 1709, "pitch": 49, "duration": 13, "velocity": 53}, {"time": 1711, "pitch": 54, "duration": 9, "velocity": 68}, {"time": 1712, "pitch": 58, "duration": 2, "velocity": 65}, {"time": 1712, "pitch": 61, "duration": 7, "velocity": 63}, {"time": 1717, "pitch": 58, "duration": 4, "velocity": 71}, {"time": 1720, "pitch": 66, "duration": 6, "velocity": 89}, {"time": 1723, "pitch": 58, "duration": 3, "velocity": 72}, {"time": 1726, "pitch": 41, "duration": 5, "velocity": 76}, {"time": 1729, "pitch": 58, "duration": 2, "velocity": 61}, {"time": 1730, "pitch": 61, "duration": 2, "velocity": 59}, {"time": 1732, "pitch": 39, "duration": 22, "velocity": 67}, {"time": 1735, "pitch": 46, "duration": 20, "velocity": 65}, {"time": 1738, "pitch": 63, "duration": 5, "velocity": 67}, {"time": 1741, "pitch": 51, "duration": 4, "velocity": 73}, {"time": 1744, "pitch": 66, "duration": 12, "velocity": 92}, {"time": 1747, "pitch": 51, "duration": 3, "velocity": 62}, {"time": 1750, "pitch": 63, "duration": 3, "velocity": 75}, {"time": 1751, "pitch": 51, "duration": 2, "velocity": 57}, {"time": 1753, "pitch": 58, "duration": 3, "velocity": 71}, {"time": 1754, "pitch": 63, "duration": 2, "velocity": 69}, {"time": 1756, "pitch": 39, "duration": 11, "velocity": 53}, {"time": 1757, "pitch": 46, "duration": 11, "velocity": 67}, {"time": 1759, "pitch": 51, "duration": 4, "velocity": 64}, {"time": 1760, "pitch": 58, "duration": 3, "velocity": 55}, {"time": 1762, "pitch": 66, "duration": 10, "velocity": 83}, {"time": 1763, "pitch": 51, "duration": 5, "velocity": 59}, {"time": 1765, "pitch": 63, "duration": 7, "velocity": 75}, {"time": 1766, "pitch": 58, "duration": 6, "velocity": 85}, {"time": 1768, "pitch": 39, "duration": 8, "velocity": 85}, {"time": 1771, "pitch": 51, "duration": 7, "velocity": 95}, {"time": 1774, "pitch": 63, "duration": 7, "velocity": 99}, {"time": 1774, "pitch": 66, "duration": 7, "velocity": 100}, {"time": 1777, "pitch": 58, "duration": 3, "velocity": 81}, {"time": 1780, "pitch": 47, "duration": 18, "velocity": 92}, {"time": 1783, "pitch": 54, "duration": 13, "velocity": 58}, {"time": 1786, "pitch": 59, "duration": 7, "velocity": 90}, {"time": 1789, "pitch": 63, "duration": 3, "velocity": 76}, {"time": 1792, "pitch": 66, "duration": 6, "velocity": 76}, {"time": 1792, "pitch": 71, "duration": 12, "velocity": 99}, {"time": 1795, "pitch": 59, "duration": 2, "velocity": 73}, {"time": 1798, "pitch": 63, "duration": 7, "velocity": 88}, {"time": 1801, "pitch": 66, "duration": 3, "velocity": 79}, {"time": 1804, "pitch": 44, "duration": 18, "velocity": 69}, {"time": 1807, "pitch": 51, "duration": 5, "velocity": 55}, {"time": 1808, "pitch": 56, "duration": 4, "velocity": 66}, {"time": 1810, "pitch": 58, "duration": 6, "velocity": 60}, {"time": 1813, "pitch": 51, "duration": 4, "velocity": 65}, {"time": 1816, "pitch": 59, "duration": 7, "velocity": 85}, {"time": 1816, "pitch": 63, "duration": 12, "velocity": 76}, {"time": 1819, "pitch": 51, "duration": 3, "velocity": 65}, {"time": 1822, "pitch": 56, "duration": 6, "velocity": 93}, {"time": 1825, "pitch": 59, "duration": 3, "velocity": 93}, {"time": 1828, "pitch": 37, "duration": 23, "velocity": 78}, {"time": 1829, "pitch": 44, "duration": 23, "velocity": 71}, {"time": 1831, "pitch": 49, "duration": 17, "velocity": 69}, {"time": 1832, "pitch": 53, "duration": 2, "velocity": 68}, {"time": 1834, "pitch": 56, "duration": 1, "velocity": 86}, {"time": 1835, "pitch": 61, "duration": 2, "velocity": 82}, {"time": 1837, "pitch": 65, "duration": 1, "velocity": 79}, {"time": 1838, "pitch": 68, "duration": 1, "velocity": 90}, {"time": 1840, "pitch": 73, "duration": 2, "velocity": 99}, {"time": 1841, "pitch": 77, "duration": 2, "velocity": 89}, {"time": 1843, "pitch": 80, "duration": 2, "velocity": 97}, {"time": 1844, "pitch": 77, "duration": 1, "velocity": 107}, {"time": 1846, "pitch": 73, "duration": 1, "velocity": 112}, {"time": 1847, "pitch": 65, "duration": 2, "velocity": 73}, {"time": 1849, "pitch": 68, "duration": 4, "velocity": 89}, {"time": 1850, "pitch": 65, "duration": 3, "velocity": 78}, {"time": 1852, "pitch": 37, "duration": 18, "velocity": 99}, {"time": 1852, "pitch": 61, "duration": 2, "velocity": 92}, {"time": 1855, "pitch": 44, "duration": 15, "velocity": 75}, {"time": 1858, "pitch": 53, "duration": 2, "velocity": 79}, {"time": 1858, "pitch": 56, "duration": 2, "velocity": 82}, {"time": 1861, "pitch": 53, "duration": 1, "velocity": 88}, {"time": 1861, "pitch": 56, "duration": 1, "velocity": 93}, {"time": 1864, "pitch": 49, "duration": 5, "velocity": 71}, {"time": 1864, "pitch": 61, "duration": 2, "velocity": 96}, {"time": 1864, "pitch": 65, "duration": 2, "velocity": 92}, {"time": 1867, "pitch": 61, "duration": 2, "velocity": 93}, {"time": 1867, "pitch": 65, "duration": 2, "velocity": 86}, {"time": 1870, "pitch": 61, "duration": 5, "velocity": 92}, {"time": 1870, "pitch": 65, "duration": 5, "velocity": 85}, {"time": 1873, "pitch": 56, "duration": 3, "velocity": 78}, {"time": 1876, "pitch": 42, "duration": 23, "velocity": 85}, {"time": 1879, "pitch": 49, "duration": 11, "velocity": 66}, {"time": 1882, "pitch": 54, "duration": 3, "velocity": 89}, {"time": 1885, "pitch": 61, "duration": 7, "velocity": 77}, {"time": 1888, "pitch": 70, "duration": 12, "velocity": 100}, {"time": 1891, "pitch": 49, "duration": 4, "velocity": 71}, {"time": 1894, "pitch": 61, "duration": 5, "velocity": 27}, {"time": 1894, "pitch": 68, "duration": 6, "velocity": 88}, {"time": 1897, "pitch": 49, "duration": 3, "velocity": 57}, {"time": 1900, "pitch": 42, "duration": 13, "velocity": 73}, {"time": 1903, "pitch": 49, "duration": 9, "velocity": 58}, {"time": 1906, "pitch": 54, "duration": 5, "velocity": 88}, {"time": 1909, "pitch": 66, "duration": 1, "velocity": 55}, {"time": 1909, "pitch": 70, "duration": 1, "velocity": 37}, {"time": 1912, "pitch": 61, "duration": 1, "velocity": 57}, {"time": 1912, "pitch": 66, "duration": 6, "velocity": 100}, {"time": 1912, "pitch": 70, "duration": 6, "velocity": 96}, {"time": 1915, "pitch": 42, "duration": 2, "velocity": 52}, {"time": 1918, "pitch": 41, "duration": 5, "velocity": 81}, {"time": 1924, "pitch": 39, "duration": 22, "velocity": 65}, {"time": 1927, "pitch": 46, "duration": 21, "velocity": 44}, {"time": 1930, "pitch": 51, "duration": 7, "velocity": 95}, {"time": 1933, "pitch": 58, "duration": 8, "velocity": 82}, {"time": 1936, "pitch": 66, "duration": 18, "velocity": 100}, {"time": 1939, "pitch": 51, "duration": 6, "velocity": 71}, {"time": 1942, "pitch": 58, "duration": 1, "velocity": 32}, {"time": 1942, "pitch": 63, "duration": 12, "velocity": 92}, {"time": 1945, "pitch": 58, "duration": 8, "velocity": 77}, {"time": 1948, "pitch": 39, "duration": 18, "velocity": 82}, {"time": 1951, "pitch": 46, "duration": 12, "velocity": 56}, {"time": 1952, "pitch": 51, "duration": 8, "velocity": 66}, {"time": 1954, "pitch": 58, "duration": 8, "velocity": 68}, {"time": 1957, "pitch": 63, "duration": 3, "velocity": 89}, {"time": 1960, "pitch": 66, "duration": 12, "velocity": 117}, {"time": 1963, "pitch": 46, "duration": 3, "velocity": 74}, {"time": 1966, "pitch": 63, "duration": 6, "velocity": 90}, {"time": 1969, "pitch": 58, "duration": 3, "velocity": 73}, {"time": 1972, "pitch": 35, "duration": 19, "velocity": 95}, {"time": 1975, "pitch": 47, "duration": 4, "velocity": 59}, {"time": 1978, "pitch": 54, "duration": 9, "velocity": 69}, {"time": 1981, "pitch": 47, "duration": 5, "velocity": 59}, {"time": 1984, "pitch": 59, "duration": 7, "velocity": 96}, {"time": 1984, "pitch": 63, "duration": 12, "velocity": 90}, {"time": 1987, "pitch": 47, "duration": 3, "velocity": 81}, {"time": 1990, "pitch": 54, "duration": 6, "velocity": 89}, {"time": 1993, "pitch": 59, "duration": 3, "velocity": 88}, {"time": 1996, "pitch": 32, "duration": 18, "velocity": 72}, {"time": 1997, "pitch": 39, "duration": 17, "velocity": 59}, {"time": 1999, "pitch": 44, "duration": 4, "velocity": 68}, {"time": 2000, "pitch": 51, "duration": 10, "velocity": 59}, {"time": 2002, "pitch": 56, "duration": 5, "velocity": 78}, {"time": 2005, "pitch": 44, "duration": 4, "velocity": 46}, {"time": 2008, "pitch": 59, "duration": 6, "velocity": 92}, {"time": 2011, "pitch": 44, "duration": 5, "velocity": 68}, {"time": 2014, "pitch": 56, "duration": 4, "velocity": 85}, {"time": 2017, "pitch": 59, "duration": 3, "velocity": 93}, {"time": 2020, "pitch": 37, "duration": 21, "velocity": 68}, {"time": 2021, "pitch": 44, "duration": 42, "velocity": 53}, {"time": 2023, "pitch": 49, "duration": 5, "velocity": 64}, {"time": 2024, "pitch": 53, "duration": 3, "velocity": 58}, {"time": 2026, "pitch": 56, "duration": 3, "velocity": 65}, {"time": 2029, "pitch": 49, "duration": 5, "velocity": 63}, {"time": 2032, "pitch": 61, "duration": 9, "velocity": 62}, {"time": 2035, "pitch": 49, "duration": 25, "velocity": 53}, {"time": 2044, "pitch": 37, "duration": 18, "velocity": 52}, {"time": 2044, "pitch": 61, "duration": 24, "velocity": 52}, {"time": 2044, "pitch": 65, "duration": 24, "velocity": 52}, {"time": 2044, "pitch": 68, "duration": 24, "velocity": 64}, {"time": 2068, "pitch": 47, "duration": 17, "velocity": 59}, {"time": 2071, "pitch": 54, "duration": 15, "velocity": 54}, {"time": 2074, "pitch": 59, "duration": 7, "velocity": 58}, {"time": 2077, "pitch": 63, "duration": 5, "velocity": 53}, {"time": 2080, "pitch": 66, "duration": 11, "velocity": 97}, {"time": 2085, "pitch": 63, "duration": 7, "velocity": 58}, {"time": 2088, "pitch": 59, "duration": 5, "velocity": 57}, {"time": 2091, "pitch": 46, "duration": 18, "velocity": 64}, {"time": 2094, "pitch": 58, "duration": 9, "velocity": 69}, {"time": 2097, "pitch": 61, "duration": 4, "velocity": 66}, {"time": 2100, "pitch": 65, "duration": 15, "velocity": 85}, {"time": 2106, "pitch": 58, "duration": 2, "velocity": 40}, {"time": 2109, "pitch": 61, "duration": 6, "velocity": 66}, {"time": 2115, "pitch": 44, "duration": 20, "velocity": 86}, {"time": 2118, "pitch": 56, "duration": 17, "velocity": 56}, {"time": 2121, "pitch": 59, "duration": 11, "velocity": 53}, {"time": 2124, "pitch": 63, "duration": 13, "velocity": 46}, {"time": 2128, "pitch": 68, "duration": 9, "velocity": 88}, {"time": 2133, "pitch": 59, "duration": 4, "velocity": 67}, {"time": 2140, "pitch": 37, "duration": 19, "velocity": 62}, {"time": 2140, "pitch": 68, "duration": 22, "velocity": 50}, {"time": 2140, "pitch": 61, "duration": 4, "velocity": 35}, {"time": 2140, "pitch": 65, "duration": 22, "velocity": 36}, {"time": 2142, "pitch": 49, "duration": 18, "velocity": 43}, {"time": 2145, "pitch": 61, "duration": 17, "velocity": 45}, {"time": 2164, "pitch": 61, "duration": 44, "velocity": 42}, {"time": 2164, "pitch": 42, "duration": 45, "velocity": 42}, {"time": 2164, "pitch": 54, "duration": 44, "velocity": 56}, {"time": 2164, "pitch": 66, "duration": 44, "velocity": 48}, {"time": 2165, "pitch": 70, "duration": 43, "velocity": 52}], "annotations": [{"time": 4, "annotation": {"number": 64, "value": 127}, "group": "control_change"}, {"time": 26, "annotation": {"number": 64, "value": 0}, "group": "control_change"}, {"time": 28, "annotation": {"number": 64, "value": 127}, "group": "control_change"}, {"time": 50, "annotation": {"number": 64, "value": 0}, "group": "control_change"}, {"time": 52, "annotation": {"number": 64, "value": 127}, "group": "control_change"}, {"time": 74, "annotation": {"number": 64, "value": 0}, "group": "control_change"}, {"time": 76, "annotation": {"number": 64, "value": 127}, "group": "control_change"}, {"time": 98, "annotation": {"number": 64, "value": 0}, "group": "control_change"}, {"time": 100, "annotation": {"number": 64, "value": 127}, "group": "control_change"}, {"time": 123, "annotation": {"number": 64, "value": 0}, "group": "control_change"}, {"time": 124, "annotation": {"number": 64, "value": 127}, "group": "control_change"}, {"time": 134, "annotation": {"number": 64, "value": 0}, "group": "control_change"}, {"time": 136, "annotation": {"number": 64, "value": 127}, "group": "control_change"}, {"time": 146, "annotation": {"number": 64, "value": 0}, "group": "control_change"}, {"time": 148, "annotation": {"number": 64, "value": 127}, "group": "control_change"}, {"time": 170, "annotation": {"number": 64, "value": 0}, "group": "control_change"}, {"time": 172, "annotation": {"number": 64, "value": 127}, "group": "control_change"}, {"time": 194, "annotation": {"number": 64, "value": 0}, "group": "control_change"}, {"time": 219, "annotation": {"number": 64, "value": 127}, "group": "control_change"}, {"time": 267, "annotation": {"number": 64, "value": 0}, "group": "control_change"}, {"time": 269, "annotation": {"number": 64, "value": 127}, "group": "control_change"}, {"time": 290, "annotation": {"number": 64, "value": 0}, "group": "control_change"}, {"time": 292, "annotation": {"number": 64, "value": 127}, "group": "control_change"}, {"time": 314, "annotation": {"number": 64, "value": 0}, "group": "control_change"}, {"time": 316, "annotation": {"number": 64, "value": 127}, "group": "control_change"}, {"time": 339, "annotation": {"number": 64, "value": 0}, "group": "control_change"}, {"time": 340, "annotation": {"number": 64, "value": 127}, "group": "control_change"}, {"time": 363, "annotation": {"number": 64, "value": 0}, "group": "control_change"}, {"time": 364, "annotation": {"number": 64, "value": 127}, "group": "control_change"}, {"time": 387, "annotation": {"number": 64, "value": 0}, "group": "control_change"}, {"time": 388, "annotation": {"number": 64, "value": 127}, "group": "control_change"}, {"time": 410, "annotation": {"number": 64, "value": 0}, "group": "control_change"}, {"time": 412, "annotation": {"number": 64, "value": 127}, "group": "control_change"}, {"time": 434, "annotation": {"number": 64, "value": 0}, "group": "control_change"}, {"time": 436, "annotation": {"number": 64, "value": 127}, "group": "control_change"}, {"time": 458, "annotation": {"number": 64, "value": 0}, "group": "control_change"}, {"time": 460, "annotation": {"number": 64, "value": 127}, "group": "control_change"}, {"time": 482, "annotation": {"number": 64, "value": 0}, "group": "control_change"}, {"time": 484, "annotation": {"number": 64, "value": 127}, "group": "control_change"}, {"time": 507, "annotation": {"number": 64, "value": 0}, "group": "control_change"}, {"time": 508, "annotation": {"number": 64, "value": 127}, "group": "control_change"}, {"time": 525, "annotation": {"number": 64, "value": 0}, "group": "control_change"}, {"time": 532, "annotation": {"number": 64, "value": 127}, "group": "control_change"}, {"time": 554, "annotation": {"number": 64, "value": 0}, "group": "control_change"}, {"time": 556, "annotation": {"number": 64, "value": 127}, "group": "control_change"}, {"time": 579, "annotation": {"number": 64, "value": 0}, "group": "control_change"}, {"time": 580, "annotation": {"number": 64, "value": 127}, "group": "control_change"}, {"time": 603, "annotation": {"number": 64, "value": 0}, "group": "control_change"}, {"time": 604, "annotation": {"number": 64, "value": 127}, "group": "control_change"}, {"time": 627, "annotation": {"number": 64, "value": 0}, "group": "control_change"}, {"time": 628, "annotation": {"number": 64, "value": 127}, "group": "control_change"}, {"time": 651, "annotation": {"number": 64, "value": 0}, "group": "control_change"}, {"time": 653, "annotation": {"number": 64, "value": 127}, "group": "control_change"}, {"time": 675, "annotation": {"number": 64, "value": 0}, "group": "control_change"}, {"time": 676, "annotation": {"number": 64, "value": 127}, "group": "control_change"}, {"time": 699, "annotation": {"number": 64, "value": 0}, "group": "control_change"}, {"time": 700, "annotation": {"number": 64, "value": 127}, "group": "control_change"}, {"time": 717, "annotation": {"number": 64, "value": 0}, "group": "control_change"}, {"time": 724, "annotation": {"number": 64, "value": 127}, "group": "control_change"}, {"time": 747, "annotation": {"number": 64, "value": 0}, "group": "control_change"}, {"time": 748, "annotation": {"number": 64, "value": 127}, "group": "control_change"}, {"time": 771, "annotation": {"number": 64, "value": 0}, "group": "control_change"}, {"time": 772, "annotation": {"number": 64, "value": 127}, "group": "control_change"}, {"time": 795, "annotation": {"number": 64, "value": 0}, "group": "control_change"}, {"time": 796, "annotation": {"number": 64, "value": 127}, "group": "control_change"}, {"time": 819, "annotation": {"number": 64, "value": 0}, "group": "control_change"}, {"time": 820, "annotation": {"number": 64, "value": 127}, "group": "control_change"}, {"time": 843, "annotation": {"number": 64, "value": 0}, "group": "control_change"}, {"time": 856, "annotation": {"number": 64, "value": 127}, "group": "control_change"}, {"time": 866, "annotation": {"number": 64, "value": 0}, "group": "control_change"}, {"time": 869, "annotation": {"number": 64, "value": 127}, "group": "control_change"}, {"time": 891, "annotation": {"number": 64, "value": 0}, "group": "control_change"}, {"time": 892, "annotation": {"number": 64, "value": 127}, "group": "control_change"}, {"time": 915, "annotation": {"number": 64, "value": 0}, "group": "control_change"}, {"time": 916, "annotation": {"number": 64, "value": 127}, "group": "control_change"}, {"time": 939, "annotation": {"number": 64, "value": 0}, "group": "control_change"}, {"time": 947, "annotation": {"number": 64, "value": 127}, "group": "control_change"}, {"time": 955, "annotation": {"number": 64, "value": 0}, "group": "control_change"}, {"time": 964, "annotation": {"number": 64, "value": 127}, "group": "control_change"}, {"time": 986, "annotation": {"number": 64, "value": 0}, "group": "control_change"}, {"time": 988, "annotation": {"number": 64, "value": 127}, "group": "control_change"}, {"time": 1011, "annotation": {"number": 64, "value": 0}, "group": "control_change"}, {"time": 1012, "annotation": {"number": 64, "value": 127}, "group": "control_change"}, {"time": 1035, "annotation": {"number": 64, "value": 0}, "group": "control_change"}, {"time": 1036, "annotation": {"number": 64, "value": 127}, "group": "control_change"}, {"time": 1059, "annotation": {"number": 64, "value": 0}, "group": "control_change"}, {"time": 1060, "annotation": {"number": 64, "value": 127}, "group": "control_change"}, {"time": 1082, "annotation": {"number": 64, "value": 0}, "group": "control_change"}, {"time": 1084, "annotation": {"number": 64, "value": 127}, "group": "control_change"}, {"time": 1106, "annotation": {"number": 64, "value": 0}, "group": "control_change"}, {"time": 1108, "annotation": {"number": 64, "value": 127}, "group": "control_change"}, {"time": 1130, "annotation": {"number": 64, "value": 0}, "group": "control_change"}, {"time": 1132, "annotation": {"number": 64, "value": 127}, "group": "control_change"}, {"time": 1154, "annotation": {"number": 64, "value": 0}, "group": "control_change"}, {"time": 1156, "annotation": {"number": 64, "value": 127}, "group": "control_change"}, {"time": 1179, "annotation": {"number": 64, "value": 0}, "group": "control_change"}, {"time": 1180, "annotation": {"number": 64, "value": 127}, "group": "control_change"}, {"time": 1197, "annotation": {"number": 64, "value": 0}, "group": "control_change"}, {"time": 1204, "annotation": {"number": 64, "value": 127}, "group": "control_change"}, {"time": 1226, "annotation": {"number": 64, "value": 0}, "group": "control_change"}, {"time": 1228, "annotation": {"number": 64, "value": 127}, "group": "control_change"}, {"time": 1251, "annotation": {"number": 64, "value": 0}, "group": "control_change"}, {"time": 1252, "annotation": {"number": 64, "value": 127}, "group": "control_change"}, {"time": 1275, "annotation": {"number": 64, "value": 0}, "group": "control_change"}, {"time": 1276, "annotation": {"number": 64, "value": 127}, "group": "control_change"}, {"time": 1299, "annotation": {"number": 64, "value": 0}, "group": "control_change"}, {"time": 1300, "annotation": {"number": 64, "value": 127}, "group": "control_change"}, {"time": 1323, "annotation": {"number": 64, "value": 0}, "group": "control_change"}, {"time": 1325, "annotation": {"number": 64, "value": 127}, "group": "control_change"}, {"time": 1347, "annotation": {"number": 64, "value": 0}, "group": "control_change"}, {"time": 1348, "annotation": {"number": 64, "value": 127}, "group": "control_change"}, {"time": 1371, "annotation": {"number": 64, "value": 0}, "group": "control_change"}, {"time": 1372, "annotation": {"number": 64, "value": 127}, "group": "control_change"}, {"time": 1389, "annotation": {"number": 64, "value": 0}, "group": "control_change"}, {"time": 1396, "annotation": {"number": 64, "value": 127}, "group": "control_change"}, {"time": 1419, "annotation": {"number": 64, "value": 0}, "group": "control_change"}, {"time": 1420, "annotation": {"number": 64, "value": 127}, "group": "control_change"}, {"time": 1443, "annotation": {"number": 64, "value": 0}, "group": "control_change"}, {"time": 1444, "annotation": {"number": 64, "value": 127}, "group": "control_change"}, {"time": 1467, "annotation": {"number": 64, "value": 0}, "group": "control_change"}, {"time": 1468, "annotation": {"number": 64, "value": 127}, "group": "control_change"}, {"time": 1491, "annotation": {"number": 64, "value": 0}, "group": "control_change"}, {"time": 1492, "annotation": {"number": 64, "value": 127}, "group": "control_change"}, {"time": 1515, "annotation": {"number": 64, "value": 0}, "group": "control_change"}, {"time": 1528, "annotation": {"number": 64, "value": 127}, "group": "control_change"}, {"time": 1538, "annotation": {"number": 64, "value": 0}, "group": "control_change"}, {"time": 1541, "annotation": {"number": 64, "value": 127}, "group": "control_change"}, {"time": 1562, "annotation": {"number": 64, "value": 0}, "group": "control_change"}, {"time": 1564, "annotation": {"number": 64, "value": 127}, "group": "control_change"}, {"time": 1586, "annotation": {"number": 64, "value": 0}, "group": "control_change"}, {"time": 1588, "annotation": {"number": 64, "value": 127}, "group": "control_change"}, {"time": 1610, "annotation": {"number": 64, "value": 0}, "group": "control_change"}, {"time": 1612, "annotation": {"number": 64, "value": 127}, "group": "control_change"}, {"time": 1617, "annotation": {"number": 64, "value": 0}, "group": "control_change"}, {"time": 1624, "annotation": {"number": 64, "value": 127}, "group": "control_change"}, {"time": 1635, "annotation": {"number": 64, "value": 0}, "group": "control_change"}, {"time": 1642, "annotation": {"number": 64, "value": 127}, "group": "control_change"}, {"time": 1643, "annotation": {"number": 64, "value": 0}, "group": "control_change"}, {"time": 1684, "annotation": {"number": 64, "value": 127}, "group": "control_change"}, {"time": 1707, "annotation": {"number": 64, "value": 0}, "group": "control_change"}, {"time": 1708, "annotation": {"number": 64, "value": 127}, "group": "control_change"}, {"time": 1725, "annotation": {"number": 64, "value": 0}, "group": "control_change"}, {"time": 1732, "annotation": {"number": 64, "value": 127}, "group": "control_change"}, {"time": 1754, "annotation": {"number": 64, "value": 0}, "group": "control_change"}, {"time": 1756, "annotation": {"number": 64, "value": 127}, "group": "control_change"}, {"time": 1779, "annotation": {"number": 64, "value": 0}, "group": "control_change"}, {"time": 1780, "annotation": {"number": 64, "value": 127}, "group": "control_change"}, {"time": 1803, "annotation": {"number": 64, "value": 0}, "group": "control_change"}, {"time": 1804, "annotation": {"number": 64, "value": 127}, "group": "control_change"}, {"time": 1827, "annotation": {"number": 64, "value": 0}, "group": "control_change"}, {"time": 1828, "annotation": {"number": 64, "value": 127}, "group": "control_change"}, {"time": 1851, "annotation": {"number": 64, "value": 0}, "group": "control_change"}, {"time": 1853, "annotation": {"number": 64, "value": 127}, "group": "control_change"}, {"time": 1875, "annotation": {"number": 64, "value": 0}, "group": "control_change"}, {"time": 1876, "annotation": {"number": 64, "value": 127}, "group": "control_change"}, {"time": 1899, "annotation": {"number": 64, "value": 0}, "group": "control_change"}, {"time": 1900, "annotation": {"number": 64, "value": 127}, "group": "control_change"}, {"time": 1917, "annotation": {"number": 64, "value": 0}, "group": "control_change"}, {"time": 1924, "annotation": {"number": 64, "value": 127}, "group": "control_change"}, {"time": 1947, "annotation": {"number": 64, "value": 0}, "group": "control_change"}, {"time": 1948, "annotation": {"number": 64, "value": 127}, "group": "control_change"}, {"time": 1971, "annotation": {"number": 64, "value": 0}, "group": "control_change"}, {"time": 1972, "annotation": {"number": 64, "value": 127}, "group": "control_change"}, {"time": 1995, "annotation": {"number": 64, "value": 0}, "group": "control_change"}, {"time": 1996, "annotation": {"number": 64, "value": 127}, "group": "control_change"}, {"time": 2019, "annotation": {"number": 64, "value": 0}, "group": "control_change"}, {"time": 2020, "annotation": {"number": 64, "value": 127}, "group": "control_change"}, {"time": 2043, "annotation": {"number": 64, "value": 0}, "group": "control_change"}, {"time": 2056, "annotation": {"number": 64, "value": 127}, "group": "control_change"}, {"time": 2066, "annotation": {"number": 64, "value": 0}, "group": "control_change"}, {"time": 2073, "annotation": {"number": 64, "value": 127}, "group": "control_change"}, {"time": 2114, "annotation": {"number": 64, "value": 0}, "group": "control_change"}, {"time": 2116, "annotation": {"number": 64, "value": 127}, "group": "control_change"}, {"time": 2140, "annotation": {"number": 64, "value": 0}, "group": "control_change"}, {"time": 2143, "annotation": {"number": 64, "value": 127}, "group": "control_change"}, {"time": 2164, "annotation": {"number": 64, "value": 0}, "group": "control_change"}, {"time": 2206, "annotation": {"number": 64, "value": 127}, "group": "control_change"}, {"time": 2209, "annotation": {"number": 64, "value": 0}, "group": "control_change"}, {"time": 2210, "annotation": {"number": 64, "value": 127}, "group": "control_change"}, {"time": 2210, "annotation": {"number": 64, "value": 0}, "group": "control_change"}]}]}