{"metadata": {"schema_version": "0.2", "title": "None", "source_filename": "747.mid", "source_format": "midi"}, "resolution": 12, "tempos": [{"time": 0, "qpm": 71.00011951686785}], "time_signatures": [{"time": 0, "numerator": 1, "denominator": 4}], "tracks": [{"program": 0, "is_drum": false, "name": "MELODY", "notes": [{"time": 629, "pitch": 59, "duration": 6, "velocity": 93}, {"time": 635, "pitch": 61, "duration": 5, "velocity": 99}, {"time": 641, "pitch": 68, "duration": 4, "velocity": 95}, {"time": 647, "pitch": 68, "duration": 4, "velocity": 112}, {"time": 653, "pitch": 68, "duration": 4, "velocity": 100}, {"time": 659, "pitch": 68, "duration": 6, "velocity": 112}, {"time": 665, "pitch": 66, "duration": 2, "velocity": 97}, {"time": 668, "pitch": 66, "duration": 8, "velocity": 102}, {"time": 680, "pitch": 64, "duration": 2, "velocity": 73}, {"time": 683, "pitch": 66, "duration": 4, "velocity": 96}, {"time": 689, "pitch": 64, "duration": 4, "velocity": 88}, {"time": 695, "pitch": 66, "duration": 4, "velocity": 97}, {"time": 701, "pitch": 68, "duration": 5, "velocity": 100}, {"time": 707, "pitch": 61, "duration": 8, "velocity": 81}, {"time": 728, "pitch": 59, "duration": 2, "velocity": 73}, {"time": 731, "pitch": 61, "duration": 5, "velocity": 89}, {"time": 737, "pitch": 68, "duration": 4, "velocity": 92}, {"time": 743, "pitch": 68, "duration": 4, "velocity": 99}, {"time": 749, "pitch": 68, "duration": 2, "velocity": 102}, {"time": 755, "pitch": 68, "duration": 6, "velocity": 102}, {"time": 761, "pitch": 66, "duration": 2, "velocity": 53}, {"time": 764, "pitch": 66, "duration": 8, "velocity": 100}, {"time": 773, "pitch": 64, "duration": 6, "velocity": 89}, {"time": 779, "pitch": 66, "duration": 7, "velocity": 93}, {"time": 785, "pitch": 68, "duration": 25, "velocity": 96}, {"time": 821, "pitch": 66, "duration": 5, "velocity": 97}, {"time": 827, "pitch": 66, "duration": 5, "velocity": 100}, {"time": 833, "pitch": 73, "duration": 4, "velocity": 93}, {"time": 839, "pitch": 73, "duration": 5, "velocity": 122}, {"time": 845, "pitch": 71, "duration": 5, "velocity": 95}, {"time": 851, "pitch": 68, "duration": 8, "velocity": 81}, {"time": 857, "pitch": 66, "duration": 2, "velocity": 85}, {"time": 860, "pitch": 66, "duration": 8, "velocity": 93}, {"time": 872, "pitch": 61, "duration": 3, "velocity": 88}, {"time": 875, "pitch": 73, "duration": 5, "velocity": 99}, {"time": 881, "pitch": 71, "duration": 4, "velocity": 112}, {"time": 887, "pitch": 68, "duration": 6, "velocity": 99}, {"time": 893, "pitch": 66, "duration": 1, "velocity": 99}, {"time": 896, "pitch": 61, "duration": 7, "velocity": 77}, {"time": 905, "pitch": 61, "duration": 13, "velocity": 75}, {"time": 920, "pitch": 59, "duration": 3, "velocity": 82}, {"time": 923, "pitch": 61, "duration": 7, "velocity": 90}, {"time": 932, "pitch": 68, "duration": 9, "velocity": 92}, {"time": 941, "pitch": 59, "duration": 4, "velocity": 85}, {"time": 947, "pitch": 61, "duration": 6, "velocity": 81}, {"time": 953, "pitch": 68, "duration": 6, "velocity": 100}, {"time": 959, "pitch": 66, "duration": 10, "velocity": 97}, {"time": 971, "pitch": 64, "duration": 8, "velocity": 99}, {"time": 980, "pitch": 61, "duration": 15, "velocity": 83}, {"time": 1001, "pitch": 61, "duration": 5, "velocity": 107}, {"time": 1007, "pitch": 63, "duration": 6, "velocity": 96}, {"time": 1013, "pitch": 64, "duration": 5, "velocity": 100}, {"time": 1019, "pitch": 68, "duration": 2, "velocity": 99}, {"time": 1022, "pitch": 61, "duration": 3, "velocity": 90}, {"time": 1025, "pitch": 68, "duration": 2, "velocity": 92}, {"time": 1028, "pitch": 68, "duration": 6, "velocity": 117}, {"time": 1034, "pitch": 66, "duration": 3, "velocity": 93}, {"time": 1037, "pitch": 68, "duration": 3, "velocity": 95}, {"time": 1040, "pitch": 66, "duration": 3, "velocity": 92}, {"time": 1043, "pitch": 68, "duration": 3, "velocity": 117}, {"time": 1046, "pitch": 66, "duration": 4, "velocity": 79}, {"time": 1049, "pitch": 68, "duration": 2, "velocity": 93}, {"time": 1052, "pitch": 68, "duration": 6, "velocity": 97}, {"time": 1058, "pitch": 66, "duration": 2, "velocity": 112}, {"time": 1061, "pitch": 68, "duration": 3, "velocity": 92}, {"time": 1064, "pitch": 66, "duration": 3, "velocity": 95}, {"time": 1067, "pitch": 68, "duration": 3, "velocity": 95}, {"time": 1070, "pitch": 66, "duration": 3, "velocity": 77}, {"time": 1073, "pitch": 68, "duration": 2, "velocity": 95}, {"time": 1076, "pitch": 68, "duration": 5, "velocity": 100}, {"time": 1082, "pitch": 66, "duration": 2, "velocity": 100}, {"time": 1085, "pitch": 68, "duration": 3, "velocity": 96}, {"time": 1088, "pitch": 66, "duration": 3, "velocity": 95}, {"time": 1091, "pitch": 68, "duration": 4, "velocity": 107}, {"time": 1103, "pitch": 64, "duration": 6, "velocity": 97}, {"time": 1109, "pitch": 68, "duration": 4, "velocity": 112}, {"time": 1115, "pitch": 68, "duration": 2, "velocity": 127}, {"time": 1118, "pitch": 61, "duration": 3, "velocity": 97}, {"time": 1121, "pitch": 68, "duration": 2, "velocity": 102}, {"time": 1124, "pitch": 68, "duration": 5, "velocity": 127}, {"time": 1130, "pitch": 66, "duration": 2, "velocity": 93}, {"time": 1133, "pitch": 68, "duration": 2, "velocity": 112}, {"time": 1136, "pitch": 66, "duration": 2, "velocity": 93}, {"time": 1139, "pitch": 68, "duration": 3, "velocity": 112}, {"time": 1142, "pitch": 66, "duration": 2, "velocity": 92}, {"time": 1145, "pitch": 68, "duration": 2, "velocity": 112}, {"time": 1148, "pitch": 68, "duration": 4, "velocity": 117}, {"time": 1154, "pitch": 66, "duration": 1, "velocity": 112}, {"time": 1157, "pitch": 68, "duration": 2, "velocity": 102}, {"time": 1160, "pitch": 66, "duration": 1, "velocity": 107}, {"time": 1163, "pitch": 68, "duration": 3, "velocity": 122}, {"time": 1166, "pitch": 66, "duration": 1, "velocity": 99}, {"time": 1169, "pitch": 68, "duration": 1, "velocity": 117}, {"time": 1172, "pitch": 68, "duration": 4, "velocity": 127}, {"time": 1178, "pitch": 66, "duration": 1, "velocity": 100}, {"time": 1181, "pitch": 68, "duration": 3, "velocity": 112}, {"time": 1184, "pitch": 66, "duration": 3, "velocity": 99}, {"time": 1187, "pitch": 68, "duration": 4, "velocity": 117}, {"time": 1199, "pitch": 64, "duration": 5, "velocity": 100}, {"time": 1205, "pitch": 66, "duration": 5, "velocity": 107}, {"time": 1211, "pitch": 68, "duration": 4, "velocity": 107}, {"time": 1217, "pitch": 73, "duration": 4, "velocity": 127}, {"time": 1223, "pitch": 73, "duration": 5, "velocity": 122}, {"time": 1229, "pitch": 71, "duration": 6, "velocity": 112}, {"time": 1241, "pitch": 68, "duration": 4, "velocity": 122}, {"time": 1247, "pitch": 66, "duration": 5, "velocity": 117}, {"time": 1253, "pitch": 64, "duration": 4, "velocity": 95}, {"time": 1259, "pitch": 66, "duration": 5, "velocity": 122}, {"time": 1265, "pitch": 68, "duration": 5, "velocity": 122}, {"time": 1271, "pitch": 66, "duration": 4, "velocity": 122}, {"time": 1277, "pitch": 61, "duration": 10, "velocity": 112}, {"time": 1295, "pitch": 64, "duration": 5, "velocity": 96}, {"time": 1301, "pitch": 66, "duration": 5, "velocity": 97}, {"time": 1307, "pitch": 68, "duration": 4, "velocity": 117}, {"time": 1313, "pitch": 73, "duration": 4, "velocity": 112}, {"time": 1319, "pitch": 73, "duration": 5, "velocity": 127}, {"time": 1325, "pitch": 71, "duration": 8, "velocity": 127}, {"time": 1337, "pitch": 68, "duration": 5, "velocity": 112}, {"time": 1343, "pitch": 66, "duration": 4, "velocity": 102}, {"time": 1349, "pitch": 71, "duration": 8, "velocity": 102}, {"time": 1361, "pitch": 68, "duration": 19, "velocity": 112}, {"time": 1391, "pitch": 64, "duration": 5, "velocity": 100}, {"time": 1397, "pitch": 66, "duration": 5, "velocity": 112}, {"time": 1403, "pitch": 68, "duration": 4, "velocity": 127}, {"time": 1409, "pitch": 73, "duration": 4, "velocity": 112}, {"time": 1415, "pitch": 73, "duration": 5, "velocity": 112}, {"time": 1421, "pitch": 71, "duration": 8, "velocity": 117}, {"time": 1433, "pitch": 68, "duration": 5, "velocity": 122}, {"time": 1439, "pitch": 66, "duration": 5, "velocity": 117}, {"time": 1445, "pitch": 64, "duration": 4, "velocity": 100}, {"time": 1451, "pitch": 76, "duration": 6, "velocity": 112}, {"time": 1457, "pitch": 75, "duration": 6, "velocity": 102}, {"time": 1463, "pitch": 71, "duration": 9, "velocity": 99}, {"time": 1472, "pitch": 68, "duration": 7, "velocity": 107}, {"time": 1481, "pitch": 68, "duration": 11, "velocity": 99}, {"time": 1493, "pitch": 66, "duration": 5, "velocity": 112}, {"time": 1499, "pitch": 68, "duration": 3, "velocity": 112}, {"time": 1505, "pitch": 73, "duration": 8, "velocity": 117}, {"time": 1517, "pitch": 71, "duration": 4, "velocity": 117}, {"time": 1523, "pitch": 68, "duration": 6, "velocity": 122}, {"time": 1529, "pitch": 66, "duration": 5, "velocity": 107}, {"time": 1535, "pitch": 68, "duration": 5, "velocity": 122}, {"time": 1544, "pitch": 66, "duration": 2, "velocity": 100}, {"time": 1547, "pitch": 64, "duration": 7, "velocity": 107}, {"time": 1556, "pitch": 61, "duration": 20, "velocity": 102}, {"time": 1781, "pitch": 59, "duration": 6, "velocity": 93}, {"time": 1787, "pitch": 61, "duration": 5, "velocity": 99}, {"time": 1793, "pitch": 68, "duration": 4, "velocity": 95}, {"time": 1799, "pitch": 68, "duration": 4, "velocity": 112}, {"time": 1805, "pitch": 68, "duration": 4, "velocity": 100}, {"time": 1811, "pitch": 68, "duration": 6, "velocity": 112}, {"time": 1817, "pitch": 66, "duration": 2, "velocity": 97}, {"time": 1820, "pitch": 66, "duration": 8, "velocity": 102}, {"time": 1832, "pitch": 64, "duration": 2, "velocity": 73}, {"time": 1835, "pitch": 66, "duration": 4, "velocity": 96}, {"time": 1841, "pitch": 64, "duration": 4, "velocity": 88}, {"time": 1847, "pitch": 66, "duration": 4, "velocity": 97}, {"time": 1853, "pitch": 68, "duration": 5, "velocity": 100}, {"time": 1859, "pitch": 61, "duration": 8, "velocity": 81}, {"time": 1880, "pitch": 59, "duration": 2, "velocity": 73}, {"time": 1883, "pitch": 61, "duration": 5, "velocity": 89}, {"time": 1889, "pitch": 68, "duration": 4, "velocity": 92}, {"time": 1895, "pitch": 68, "duration": 4, "velocity": 99}, {"time": 1901, "pitch": 68, "duration": 2, "velocity": 102}, {"time": 1907, "pitch": 68, "duration": 6, "velocity": 102}, {"time": 1913, "pitch": 66, "duration": 2, "velocity": 53}, {"time": 1916, "pitch": 66, "duration": 8, "velocity": 100}, {"time": 1925, "pitch": 64, "duration": 6, "velocity": 89}, {"time": 1931, "pitch": 66, "duration": 7, "velocity": 93}, {"time": 1937, "pitch": 68, "duration": 25, "velocity": 96}, {"time": 1973, "pitch": 66, "duration": 5, "velocity": 97}, {"time": 1979, "pitch": 66, "duration": 5, "velocity": 100}, {"time": 1985, "pitch": 73, "duration": 4, "velocity": 93}, {"time": 1991, "pitch": 73, "duration": 5, "velocity": 122}, {"time": 1997, "pitch": 71, "duration": 5, "velocity": 95}, {"time": 2003, "pitch": 68, "duration": 8, "velocity": 81}, {"time": 2009, "pitch": 66, "duration": 2, "velocity": 85}, {"time": 2012, "pitch": 66, "duration": 8, "velocity": 93}, {"time": 2024, "pitch": 61, "duration": 3, "velocity": 88}, {"time": 2027, "pitch": 73, "duration": 5, "velocity": 99}, {"time": 2033, "pitch": 71, "duration": 4, "velocity": 112}, {"time": 2039, "pitch": 68, "duration": 6, "velocity": 99}, {"time": 2045, "pitch": 66, "duration": 1, "velocity": 99}, {"time": 2048, "pitch": 61, "duration": 7, "velocity": 77}, {"time": 2057, "pitch": 61, "duration": 13, "velocity": 75}, {"time": 2072, "pitch": 59, "duration": 3, "velocity": 82}, {"time": 2075, "pitch": 61, "duration": 7, "velocity": 90}, {"time": 2084, "pitch": 68, "duration": 9, "velocity": 92}, {"time": 2093, "pitch": 59, "duration": 4, "velocity": 85}, {"time": 2099, "pitch": 61, "duration": 6, "velocity": 81}, {"time": 2105, "pitch": 68, "duration": 6, "velocity": 100}, {"time": 2111, "pitch": 66, "duration": 10, "velocity": 97}, {"time": 2123, "pitch": 64, "duration": 8, "velocity": 99}, {"time": 2132, "pitch": 61, "duration": 15, "velocity": 83}, {"time": 2153, "pitch": 61, "duration": 5, "velocity": 107}, {"time": 2159, "pitch": 63, "duration": 6, "velocity": 96}, {"time": 2165, "pitch": 64, "duration": 5, "velocity": 100}, {"time": 2171, "pitch": 68, "duration": 2, "velocity": 99}, {"time": 2174, "pitch": 61, "duration": 3, "velocity": 90}, {"time": 2177, "pitch": 68, "duration": 2, "velocity": 92}, {"time": 2180, "pitch": 68, "duration": 6, "velocity": 117}, {"time": 2186, "pitch": 66, "duration": 3, "velocity": 93}, {"time": 2189, "pitch": 68, "duration": 3, "velocity": 95}, {"time": 2192, "pitch": 66, "duration": 3, "velocity": 92}, {"time": 2195, "pitch": 68, "duration": 3, "velocity": 117}, {"time": 2198, "pitch": 66, "duration": 4, "velocity": 79}, {"time": 2201, "pitch": 68, "duration": 2, "velocity": 93}, {"time": 2204, "pitch": 68, "duration": 6, "velocity": 97}, {"time": 2210, "pitch": 66, "duration": 2, "velocity": 112}, {"time": 2213, "pitch": 68, "duration": 3, "velocity": 92}, {"time": 2216, "pitch": 66, "duration": 3, "velocity": 95}, {"time": 2219, "pitch": 68, "duration": 3, "velocity": 95}, {"time": 2222, "pitch": 66, "duration": 3, "velocity": 77}, {"time": 2225, "pitch": 68, "duration": 2, "velocity": 95}, {"time": 2228, "pitch": 68, "duration": 5, "velocity": 100}, {"time": 2234, "pitch": 66, "duration": 2, "velocity": 100}, {"time": 2237, "pitch": 68, "duration": 3, "velocity": 96}, {"time": 2240, "pitch": 66, "duration": 3, "velocity": 95}, {"time": 2243, "pitch": 68, "duration": 4, "velocity": 107}, {"time": 2255, "pitch": 64, "duration": 6, "velocity": 97}, {"time": 2261, "pitch": 68, "duration": 4, "velocity": 112}, {"time": 2267, "pitch": 68, "duration": 2, "velocity": 127}, {"time": 2270, "pitch": 61, "duration": 3, "velocity": 97}, {"time": 2273, "pitch": 68, "duration": 2, "velocity": 102}, {"time": 2276, "pitch": 68, "duration": 5, "velocity": 127}, {"time": 2282, "pitch": 66, "duration": 2, "velocity": 93}, {"time": 2285, "pitch": 68, "duration": 2, "velocity": 112}, {"time": 2288, "pitch": 66, "duration": 2, "velocity": 93}, {"time": 2291, "pitch": 68, "duration": 3, "velocity": 112}, {"time": 2294, "pitch": 66, "duration": 2, "velocity": 92}, {"time": 2297, "pitch": 68, "duration": 2, "velocity": 112}, {"time": 2300, "pitch": 68, "duration": 4, "velocity": 117}, {"time": 2306, "pitch": 66, "duration": 1, "velocity": 112}, {"time": 2309, "pitch": 68, "duration": 2, "velocity": 102}, {"time": 2312, "pitch": 66, "duration": 1, "velocity": 107}, {"time": 2315, "pitch": 68, "duration": 3, "velocity": 122}, {"time": 2318, "pitch": 66, "duration": 1, "velocity": 99}, {"time": 2321, "pitch": 68, "duration": 1, "velocity": 117}, {"time": 2324, "pitch": 68, "duration": 4, "velocity": 127}, {"time": 2330, "pitch": 66, "duration": 1, "velocity": 100}, {"time": 2333, "pitch": 68, "duration": 3, "velocity": 112}, {"time": 2336, "pitch": 66, "duration": 3, "velocity": 99}, {"time": 2339, "pitch": 68, "duration": 4, "velocity": 117}, {"time": 2351, "pitch": 64, "duration": 5, "velocity": 100}, {"time": 2357, "pitch": 66, "duration": 5, "velocity": 107}, {"time": 2363, "pitch": 68, "duration": 4, "velocity": 107}, {"time": 2369, "pitch": 73, "duration": 4, "velocity": 127}, {"time": 2375, "pitch": 73, "duration": 5, "velocity": 122}, {"time": 2381, "pitch": 71, "duration": 6, "velocity": 112}, {"time": 2393, "pitch": 68, "duration": 4, "velocity": 122}, {"time": 2399, "pitch": 66, "duration": 5, "velocity": 117}, {"time": 2405, "pitch": 64, "duration": 4, "velocity": 95}, {"time": 2411, "pitch": 66, "duration": 5, "velocity": 122}, {"time": 2417, "pitch": 68, "duration": 5, "velocity": 122}, {"time": 2423, "pitch": 66, "duration": 4, "velocity": 122}, {"time": 2429, "pitch": 61, "duration": 10, "velocity": 112}, {"time": 2447, "pitch": 64, "duration": 5, "velocity": 96}, {"time": 2453, "pitch": 66, "duration": 5, "velocity": 97}, {"time": 2459, "pitch": 68, "duration": 4, "velocity": 117}, {"time": 2465, "pitch": 73, "duration": 4, "velocity": 112}, {"time": 2471, "pitch": 73, "duration": 5, "velocity": 127}, {"time": 2477, "pitch": 71, "duration": 8, "velocity": 127}, {"time": 2489, "pitch": 68, "duration": 5, "velocity": 112}, {"time": 2495, "pitch": 66, "duration": 4, "velocity": 102}, {"time": 2501, "pitch": 71, "duration": 8, "velocity": 102}, {"time": 2513, "pitch": 68, "duration": 19, "velocity": 112}, {"time": 2543, "pitch": 64, "duration": 5, "velocity": 100}, {"time": 2549, "pitch": 66, "duration": 5, "velocity": 112}, {"time": 2555, "pitch": 68, "duration": 4, "velocity": 127}, {"time": 2561, "pitch": 73, "duration": 4, "velocity": 112}, {"time": 2567, "pitch": 73, "duration": 5, "velocity": 112}, {"time": 2573, "pitch": 71, "duration": 8, "velocity": 117}, {"time": 2585, "pitch": 68, "duration": 5, "velocity": 122}, {"time": 2591, "pitch": 66, "duration": 5, "velocity": 117}, {"time": 2597, "pitch": 64, "duration": 4, "velocity": 100}, {"time": 2603, "pitch": 76, "duration": 6, "velocity": 112}, {"time": 2609, "pitch": 75, "duration": 6, "velocity": 102}, {"time": 2615, "pitch": 71, "duration": 9, "velocity": 99}, {"time": 2624, "pitch": 68, "duration": 7, "velocity": 107}, {"time": 2633, "pitch": 68, "duration": 11, "velocity": 99}, {"time": 2645, "pitch": 66, "duration": 5, "velocity": 112}, {"time": 2651, "pitch": 68, "duration": 3, "velocity": 112}, {"time": 2657, "pitch": 73, "duration": 8, "velocity": 117}, {"time": 2669, "pitch": 71, "duration": 4, "velocity": 117}, {"time": 2675, "pitch": 68, "duration": 6, "velocity": 122}, {"time": 2681, "pitch": 66, "duration": 5, "velocity": 107}, {"time": 2687, "pitch": 68, "duration": 5, "velocity": 122}, {"time": 2696, "pitch": 66, "duration": 2, "velocity": 100}, {"time": 2699, "pitch": 64, "duration": 7, "velocity": 107}, {"time": 2708, "pitch": 61, "duration": 20, "velocity": 102}, {"time": 2735, "pitch": 65, "duration": 5, "velocity": 100}, {"time": 2741, "pitch": 67, "duration": 5, "velocity": 107}, {"time": 2747, "pitch": 69, "duration": 4, "velocity": 107}, {"time": 2753, "pitch": 74, "duration": 4, "velocity": 127}, {"time": 2759, "pitch": 74, "duration": 5, "velocity": 122}, {"time": 2765, "pitch": 72, "duration": 6, "velocity": 112}, {"time": 2777, "pitch": 69, "duration": 4, "velocity": 122}, {"time": 2783, "pitch": 67, "duration": 5, "velocity": 117}, {"time": 2789, "pitch": 65, "duration": 4, "velocity": 95}, {"time": 2795, "pitch": 67, "duration": 5, "velocity": 122}, {"time": 2801, "pitch": 69, "duration": 5, "velocity": 122}, {"time": 2807, "pitch": 67, "duration": 4, "velocity": 122}, {"time": 2813, "pitch": 62, "duration": 10, "velocity": 112}, {"time": 2831, "pitch": 65, "duration": 5, "velocity": 96}, {"time": 2837, "pitch": 67, "duration": 5, "velocity": 97}, {"time": 2843, "pitch": 69, "duration": 4, "velocity": 117}, {"time": 2849, "pitch": 74, "duration": 4, "velocity": 112}, {"time": 2855, "pitch": 74, "duration": 5, "velocity": 127}, {"time": 2861, "pitch": 72, "duration": 8, "velocity": 127}, {"time": 2873, "pitch": 69, "duration": 5, "velocity": 112}, {"time": 2879, "pitch": 67, "duration": 4, "velocity": 102}, {"time": 2885, "pitch": 72, "duration": 8, "velocity": 102}, {"time": 2897, "pitch": 69, "duration": 19, "velocity": 112}, {"time": 2927, "pitch": 65, "duration": 5, "velocity": 100}, {"time": 2933, "pitch": 67, "duration": 5, "velocity": 112}, {"time": 2939, "pitch": 69, "duration": 4, "velocity": 127}, {"time": 2945, "pitch": 74, "duration": 4, "velocity": 112}, {"time": 2951, "pitch": 74, "duration": 5, "velocity": 112}, {"time": 2957, "pitch": 72, "duration": 8, "velocity": 117}, {"time": 2969, "pitch": 69, "duration": 5, "velocity": 122}, {"time": 2975, "pitch": 67, "duration": 5, "velocity": 117}, {"time": 2981, "pitch": 65, "duration": 4, "velocity": 100}, {"time": 2987, "pitch": 77, "duration": 6, "velocity": 112}, {"time": 2993, "pitch": 76, "duration": 6, "velocity": 102}, {"time": 2999, "pitch": 72, "duration": 9, "velocity": 99}, {"time": 3008, "pitch": 69, "duration": 7, "velocity": 107}, {"time": 3017, "pitch": 69, "duration": 30, "velocity": 99}, {"time": 3053, "pitch": 67, "duration": 5, "velocity": 112}, {"time": 3059, "pitch": 69, "duration": 3, "velocity": 112}, {"time": 3065, "pitch": 74, "duration": 8, "velocity": 117}, {"time": 3077, "pitch": 72, "duration": 4, "velocity": 117}, {"time": 3083, "pitch": 69, "duration": 6, "velocity": 122}, {"time": 3089, "pitch": 67, "duration": 5, "velocity": 107}, {"time": 3095, "pitch": 69, "duration": 5, "velocity": 122}, {"time": 3104, "pitch": 67, "duration": 2, "velocity": 100}, {"time": 3107, "pitch": 65, "duration": 7, "velocity": 107}, {"time": 3116, "pitch": 62, "duration": 20, "velocity": 102}]}, {"program": 0, "is_drum": false, "name": "PIANO", "notes": [{"time": 1, "pitch": 45, "duration": 25, "velocity": 66}, {"time": 9, "pitch": 52, "duration": 23, "velocity": 42}, {"time": 18, "pitch": 64, "duration": 14, "velocity": 41}, {"time": 18, "pitch": 61, "duration": 15, "velocity": 40}, {"time": 25, "pitch": 57, "duration": 8, "velocity": 42}, {"time": 32, "pitch": 47, "duration": 21, "velocity": 44}, {"time": 37, "pitch": 59, "duration": 8, "velocity": 42}, {"time": 44, "pitch": 66, "duration": 16, "velocity": 50}, {"time": 44, "pitch": 63, "duration": 18, "velocity": 50}, {"time": 53, "pitch": 59, "duration": 9, "velocity": 43}, {"time": 61, "pitch": 49, "duration": 26, "velocity": 56}, {"time": 69, "pitch": 56, "duration": 9, "velocity": 40}, {"time": 77, "pitch": 64, "duration": 41, "velocity": 39}, {"time": 77, "pitch": 61, "duration": 41, "velocity": 36}, {"time": 84, "pitch": 56, "duration": 34, "velocity": 40}, {"time": 90, "pitch": 49, "duration": 16, "velocity": 42}, {"time": 118, "pitch": 45, "duration": 17, "velocity": 57}, {"time": 126, "pitch": 52, "duration": 9, "velocity": 35}, {"time": 133, "pitch": 61, "duration": 15, "velocity": 56}, {"time": 133, "pitch": 64, "duration": 13, "velocity": 59}, {"time": 140, "pitch": 57, "duration": 8, "velocity": 41}, {"time": 146, "pitch": 47, "duration": 19, "velocity": 48}, {"time": 152, "pitch": 54, "duration": 10, "velocity": 56}, {"time": 160, "pitch": 66, "duration": 15, "velocity": 39}, {"time": 160, "pitch": 63, "duration": 16, "velocity": 46}, {"time": 167, "pitch": 59, "duration": 10, "velocity": 41}, {"time": 176, "pitch": 49, "duration": 57, "velocity": 56}, {"time": 183, "pitch": 56, "duration": 12, "velocity": 50}, {"time": 189, "pitch": 61, "duration": 44, "velocity": 52}, {"time": 197, "pitch": 56, "duration": 35, "velocity": 46}, {"time": 207, "pitch": 64, "duration": 26, "velocity": 30}, {"time": 251, "pitch": 45, "duration": 18, "velocity": 72}, {"time": 257, "pitch": 52, "duration": 13, "velocity": 59}, {"time": 263, "pitch": 64, "duration": 12, "velocity": 90}, {"time": 269, "pitch": 61, "duration": 7, "velocity": 58}, {"time": 275, "pitch": 47, "duration": 15, "velocity": 68}, {"time": 281, "pitch": 54, "duration": 8, "velocity": 59}, {"time": 287, "pitch": 66, "duration": 11, "velocity": 86}, {"time": 293, "pitch": 59, "duration": 7, "velocity": 51}, {"time": 299, "pitch": 49, "duration": 29, "velocity": 78}, {"time": 305, "pitch": 56, "duration": 8, "velocity": 52}, {"time": 311, "pitch": 61, "duration": 18, "velocity": 72}, {"time": 317, "pitch": 56, "duration": 9, "velocity": 52}, {"time": 323, "pitch": 64, "duration": 10, "velocity": 67}, {"time": 329, "pitch": 49, "duration": 12, "velocity": 52}, {"time": 335, "pitch": 61, "duration": 12, "velocity": 76}, {"time": 335, "pitch": 64, "duration": 12, "velocity": 85}, {"time": 341, "pitch": 56, "duration": 6, "velocity": 76}, {"time": 347, "pitch": 45, "duration": 15, "velocity": 68}, {"time": 353, "pitch": 52, "duration": 11, "velocity": 54}, {"time": 359, "pitch": 64, "duration": 13, "velocity": 85}, {"time": 365, "pitch": 61, "duration": 7, "velocity": 69}, {"time": 371, "pitch": 47, "duration": 23, "velocity": 58}, {"time": 377, "pitch": 54, "duration": 8, "velocity": 65}, {"time": 383, "pitch": 66, "duration": 11, "velocity": 100}, {"time": 389, "pitch": 63, "duration": 5, "velocity": 29}, {"time": 395, "pitch": 52, "duration": 23, "velocity": 69}, {"time": 401, "pitch": 59, "duration": 10, "velocity": 66}, {"time": 407, "pitch": 68, "duration": 8, "velocity": 99}, {"time": 413, "pitch": 64, "duration": 3, "velocity": 57}, {"time": 419, "pitch": 46, "duration": 3, "velocity": 71}, {"time": 419, "pitch": 58, "duration": 5, "velocity": 57}, {"time": 419, "pitch": 61, "duration": 5, "velocity": 58}, {"time": 419, "pitch": 64, "duration": 5, "velocity": 65}, {"time": 431, "pitch": 44, "duration": 7, "velocity": 54}, {"time": 431, "pitch": 56, "duration": 12, "velocity": 54}, {"time": 431, "pitch": 60, "duration": 12, "velocity": 69}, {"time": 431, "pitch": 63, "duration": 12, "velocity": 63}, {"time": 443, "pitch": 45, "duration": 18, "velocity": 56}, {"time": 449, "pitch": 52, "duration": 12, "velocity": 64}, {"time": 455, "pitch": 64, "duration": 12, "velocity": 93}, {"time": 461, "pitch": 61, "duration": 6, "velocity": 96}, {"time": 467, "pitch": 47, "duration": 19, "velocity": 73}, {"time": 473, "pitch": 54, "duration": 7, "velocity": 54}, {"time": 479, "pitch": 66, "duration": 11, "velocity": 112}, {"time": 482, "pitch": 54, "duration": 2, "velocity": 79}, {"time": 485, "pitch": 63, "duration": 5, "velocity": 67}, {"time": 488, "pitch": 59, "duration": 3, "velocity": 75}, {"time": 491, "pitch": 49, "duration": 13, "velocity": 82}, {"time": 497, "pitch": 56, "duration": 12, "velocity": 81}, {"time": 503, "pitch": 64, "duration": 16, "velocity": 79}, {"time": 506, "pitch": 49, "duration": 7, "velocity": 68}, {"time": 509, "pitch": 61, "duration": 9, "velocity": 59}, {"time": 512, "pitch": 56, "duration": 5, "velocity": 85}, {"time": 515, "pitch": 49, "duration": 14, "velocity": 69}, {"time": 521, "pitch": 56, "duration": 7, "velocity": 88}, {"time": 527, "pitch": 61, "duration": 7, "velocity": 71}, {"time": 527, "pitch": 64, "duration": 13, "velocity": 77}, {"time": 530, "pitch": 49, "duration": 4, "velocity": 85}, {"time": 533, "pitch": 56, "duration": 5, "velocity": 89}, {"time": 536, "pitch": 61, "duration": 4, "velocity": 50}, {"time": 539, "pitch": 45, "duration": 19, "velocity": 69}, {"time": 545, "pitch": 52, "duration": 7, "velocity": 45}, {"time": 548, "pitch": 57, "duration": 6, "velocity": 69}, {"time": 551, "pitch": 64, "duration": 11, "velocity": 86}, {"time": 554, "pitch": 52, "duration": 4, "velocity": 55}, {"time": 557, "pitch": 61, "duration": 6, "velocity": 69}, {"time": 560, "pitch": 57, "duration": 3, "velocity": 79}, {"time": 563, "pitch": 47, "duration": 20, "velocity": 61}, {"time": 569, "pitch": 54, "duration": 7, "velocity": 47}, {"time": 575, "pitch": 66, "duration": 12, "velocity": 100}, {"time": 578, "pitch": 54, "duration": 3, "velocity": 40}, {"time": 581, "pitch": 63, "duration": 6, "velocity": 70}, {"time": 584, "pitch": 59, "duration": 3, "velocity": 70}, {"time": 587, "pitch": 49, "duration": 21, "velocity": 88}, {"time": 593, "pitch": 56, "duration": 7, "velocity": 62}, {"time": 599, "pitch": 61, "duration": 10, "velocity": 72}, {"time": 605, "pitch": 56, "duration": 28, "velocity": 63}, {"time": 611, "pitch": 49, "duration": 17, "velocity": 56}, {"time": 611, "pitch": 61, "duration": 24, "velocity": 43}, {"time": 611, "pitch": 64, "duration": 22, "velocity": 68}, {"time": 635, "pitch": 45, "duration": 23, "velocity": 68}, {"time": 641, "pitch": 52, "duration": 18, "velocity": 53}, {"time": 647, "pitch": 64, "duration": 12, "velocity": 85}, {"time": 653, "pitch": 61, "duration": 8, "velocity": 63}, {"time": 659, "pitch": 47, "duration": 20, "velocity": 72}, {"time": 665, "pitch": 59, "duration": 18, "velocity": 63}, {"time": 671, "pitch": 66, "duration": 12, "velocity": 92}, {"time": 683, "pitch": 49, "duration": 43, "velocity": 64}, {"time": 689, "pitch": 56, "duration": 8, "velocity": 54}, {"time": 695, "pitch": 61, "duration": 19, "velocity": 61}, {"time": 701, "pitch": 56, "duration": 8, "velocity": 44}, {"time": 707, "pitch": 64, "duration": 22, "velocity": 45}, {"time": 713, "pitch": 56, "duration": 7, "velocity": 36}, {"time": 719, "pitch": 61, "duration": 17, "velocity": 59}, {"time": 725, "pitch": 56, "duration": 5, "velocity": 56}, {"time": 731, "pitch": 45, "duration": 20, "velocity": 69}, {"time": 737, "pitch": 52, "duration": 18, "velocity": 54}, {"time": 743, "pitch": 64, "duration": 11, "velocity": 78}, {"time": 749, "pitch": 61, "duration": 7, "velocity": 58}, {"time": 755, "pitch": 47, "duration": 22, "velocity": 68}, {"time": 761, "pitch": 59, "duration": 18, "velocity": 57}, {"time": 767, "pitch": 66, "duration": 11, "velocity": 90}, {"time": 773, "pitch": 63, "duration": 5, "velocity": 55}, {"time": 779, "pitch": 40, "duration": 36, "velocity": 73}, {"time": 785, "pitch": 47, "duration": 28, "velocity": 53}, {"time": 791, "pitch": 52, "duration": 19, "velocity": 67}, {"time": 797, "pitch": 59, "duration": 9, "velocity": 39}, {"time": 803, "pitch": 64, "duration": 11, "velocity": 72}, {"time": 803, "pitch": 68, "duration": 11, "velocity": 85}, {"time": 809, "pitch": 59, "duration": 5, "velocity": 62}, {"time": 815, "pitch": 41, "duration": 3, "velocity": 71}, {"time": 827, "pitch": 42, "duration": 14, "velocity": 77}, {"time": 833, "pitch": 54, "duration": 9, "velocity": 79}, {"time": 839, "pitch": 61, "duration": 9, "velocity": 85}, {"time": 839, "pitch": 66, "duration": 9, "velocity": 83}, {"time": 845, "pitch": 57, "duration": 5, "velocity": 79}, {"time": 851, "pitch": 44, "duration": 12, "velocity": 77}, {"time": 857, "pitch": 56, "duration": 7, "velocity": 90}, {"time": 863, "pitch": 48, "duration": 6, "velocity": 67}, {"time": 863, "pitch": 60, "duration": 11, "velocity": 72}, {"time": 863, "pitch": 63, "duration": 12, "velocity": 69}, {"time": 875, "pitch": 49, "duration": 4, "velocity": 67}, {"time": 875, "pitch": 61, "duration": 5, "velocity": 67}, {"time": 875, "pitch": 64, "duration": 5, "velocity": 69}, {"time": 875, "pitch": 68, "duration": 5, "velocity": 66}, {"time": 887, "pitch": 47, "duration": 4, "velocity": 55}, {"time": 887, "pitch": 59, "duration": 5, "velocity": 63}, {"time": 887, "pitch": 63, "duration": 4, "velocity": 59}, {"time": 887, "pitch": 66, "duration": 3, "velocity": 59}, {"time": 899, "pitch": 46, "duration": 16, "velocity": 56}, {"time": 899, "pitch": 58, "duration": 23, "velocity": 60}, {"time": 899, "pitch": 61, "duration": 24, "velocity": 64}, {"time": 899, "pitch": 64, "duration": 22, "velocity": 69}, {"time": 923, "pitch": 42, "duration": 23, "velocity": 79}, {"time": 929, "pitch": 54, "duration": 7, "velocity": 52}, {"time": 935, "pitch": 66, "duration": 12, "velocity": 93}, {"time": 938, "pitch": 54, "duration": 8, "velocity": 58}, {"time": 941, "pitch": 61, "duration": 6, "velocity": 60}, {"time": 944, "pitch": 57, "duration": 3, "velocity": 58}, {"time": 947, "pitch": 44, "duration": 16, "velocity": 83}, {"time": 947, "pitch": 56, "duration": 1, "velocity": 50}, {"time": 947, "pitch": 59, "duration": 11, "velocity": 69}, {"time": 947, "pitch": 63, "duration": 6, "velocity": 68}, {"time": 953, "pitch": 56, "duration": 8, "velocity": 75}, {"time": 959, "pitch": 63, "duration": 11, "velocity": 76}, {"time": 965, "pitch": 59, "duration": 6, "velocity": 62}, {"time": 971, "pitch": 37, "duration": 46, "velocity": 72}, {"time": 977, "pitch": 49, "duration": 9, "velocity": 67}, {"time": 983, "pitch": 56, "duration": 26, "velocity": 88}, {"time": 989, "pitch": 49, "duration": 11, "velocity": 53}, {"time": 995, "pitch": 61, "duration": 11, "velocity": 63}, {"time": 995, "pitch": 64, "duration": 11, "velocity": 69}, {"time": 1007, "pitch": 61, "duration": 1, "velocity": 28}, {"time": 1007, "pitch": 64, "duration": 13, "velocity": 70}, {"time": 1010, "pitch": 49, "duration": 6, "velocity": 72}, {"time": 1013, "pitch": 56, "duration": 5, "velocity": 86}, {"time": 1016, "pitch": 61, "duration": 4, "velocity": 78}, {"time": 1019, "pitch": 45, "duration": 22, "velocity": 81}, {"time": 1022, "pitch": 52, "duration": 10, "velocity": 56}, {"time": 1025, "pitch": 57, "duration": 3, "velocity": 83}, {"time": 1028, "pitch": 61, "duration": 2, "velocity": 79}, {"time": 1031, "pitch": 64, "duration": 11, "velocity": 89}, {"time": 1034, "pitch": 52, "duration": 7, "velocity": 86}, {"time": 1037, "pitch": 61, "duration": 5, "velocity": 99}, {"time": 1040, "pitch": 57, "duration": 3, "velocity": 92}, {"time": 1043, "pitch": 47, "duration": 16, "velocity": 56}, {"time": 1046, "pitch": 54, "duration": 10, "velocity": 65}, {"time": 1049, "pitch": 59, "duration": 8, "velocity": 72}, {"time": 1052, "pitch": 63, "duration": 4, "velocity": 82}, {"time": 1055, "pitch": 66, "duration": 12, "velocity": 99}, {"time": 1058, "pitch": 54, "duration": 1, "velocity": 64}, {"time": 1061, "pitch": 63, "duration": 6, "velocity": 96}, {"time": 1064, "pitch": 59, "duration": 3, "velocity": 77}, {"time": 1067, "pitch": 37, "duration": 23, "velocity": 82}, {"time": 1070, "pitch": 49, "duration": 5, "velocity": 95}, {"time": 1073, "pitch": 52, "duration": 7, "velocity": 86}, {"time": 1076, "pitch": 49, "duration": 3, "velocity": 69}, {"time": 1079, "pitch": 56, "duration": 8, "velocity": 96}, {"time": 1082, "pitch": 49, "duration": 9, "velocity": 78}, {"time": 1085, "pitch": 52, "duration": 5, "velocity": 72}, {"time": 1088, "pitch": 61, "duration": 3, "velocity": 97}, {"time": 1091, "pitch": 37, "duration": 16, "velocity": 90}, {"time": 1094, "pitch": 49, "duration": 13, "velocity": 86}, {"time": 1097, "pitch": 61, "duration": 7, "velocity": 79}, {"time": 1100, "pitch": 64, "duration": 2, "velocity": 41}, {"time": 1103, "pitch": 68, "duration": 6, "velocity": 112}, {"time": 1106, "pitch": 61, "duration": 7, "velocity": 89}, {"time": 1109, "pitch": 64, "duration": 3, "velocity": 44}, {"time": 1112, "pitch": 68, "duration": 2, "velocity": 93}, {"time": 1115, "pitch": 45, "duration": 19, "velocity": 72}, {"time": 1118, "pitch": 52, "duration": 10, "velocity": 79}, {"time": 1121, "pitch": 57, "duration": 7, "velocity": 81}, {"time": 1124, "pitch": 61, "duration": 3, "velocity": 79}, {"time": 1127, "pitch": 64, "duration": 11, "velocity": 90}, {"time": 1130, "pitch": 52, "duration": 8, "velocity": 65}, {"time": 1133, "pitch": 61, "duration": 5, "velocity": 82}, {"time": 1136, "pitch": 57, "duration": 3, "velocity": 93}, {"time": 1139, "pitch": 47, "duration": 18, "velocity": 72}, {"time": 1142, "pitch": 54, "duration": 11, "velocity": 92}, {"time": 1145, "pitch": 59, "duration": 8, "velocity": 85}, {"time": 1148, "pitch": 63, "duration": 4, "velocity": 96}, {"time": 1151, "pitch": 66, "duration": 10, "velocity": 107}, {"time": 1154, "pitch": 54, "duration": 2, "velocity": 76}, {"time": 1157, "pitch": 63, "duration": 5, "velocity": 96}, {"time": 1160, "pitch": 59, "duration": 3, "velocity": 85}, {"time": 1163, "pitch": 49, "duration": 22, "velocity": 96}, {"time": 1166, "pitch": 56, "duration": 4, "velocity": 76}, {"time": 1169, "pitch": 61, "duration": 5, "velocity": 41}, {"time": 1172, "pitch": 56, "duration": 4, "velocity": 82}, {"time": 1175, "pitch": 64, "duration": 12, "velocity": 81}, {"time": 1178, "pitch": 56, "duration": 4, "velocity": 63}, {"time": 1181, "pitch": 61, "duration": 6, "velocity": 49}, {"time": 1184, "pitch": 56, "duration": 4, "velocity": 96}, {"time": 1187, "pitch": 49, "duration": 16, "velocity": 83}, {"time": 1190, "pitch": 56, "duration": 4, "velocity": 83}, {"time": 1193, "pitch": 61, "duration": 4, "velocity": 72}, {"time": 1196, "pitch": 56, "duration": 4, "velocity": 97}, {"time": 1199, "pitch": 64, "duration": 11, "velocity": 90}, {"time": 1202, "pitch": 56, "duration": 4, "velocity": 75}, {"time": 1205, "pitch": 61, "duration": 5, "velocity": 92}, {"time": 1208, "pitch": 56, "duration": 2, "velocity": 102}, {"time": 1211, "pitch": 45, "duration": 21, "velocity": 77}, {"time": 1214, "pitch": 52, "duration": 10, "velocity": 63}, {"time": 1217, "pitch": 57, "duration": 3, "velocity": 99}, {"time": 1220, "pitch": 61, "duration": 2, "velocity": 117}, {"time": 1223, "pitch": 64, "duration": 11, "velocity": 100}, {"time": 1226, "pitch": 52, "duration": 8, "velocity": 88}, {"time": 1229, "pitch": 61, "duration": 5, "velocity": 112}, {"time": 1232, "pitch": 57, "duration": 3, "velocity": 96}, {"time": 1235, "pitch": 47, "duration": 17, "velocity": 86}, {"time": 1238, "pitch": 54, "duration": 11, "velocity": 92}, {"time": 1241, "pitch": 59, "duration": 8, "velocity": 85}, {"time": 1244, "pitch": 63, "duration": 2, "velocity": 112}, {"time": 1247, "pitch": 66, "duration": 12, "velocity": 127}, {"time": 1250, "pitch": 54, "duration": 2, "velocity": 107}, {"time": 1253, "pitch": 63, "duration": 5, "velocity": 127}, {"time": 1256, "pitch": 59, "duration": 3, "velocity": 96}, {"time": 1259, "pitch": 37, "duration": 23, "velocity": 107}, {"time": 1262, "pitch": 49, "duration": 9, "velocity": 65}, {"time": 1265, "pitch": 52, "duration": 9, "velocity": 79}, {"time": 1268, "pitch": 56, "duration": 2, "velocity": 97}, {"time": 1271, "pitch": 61, "duration": 8, "velocity": 127}, {"time": 1274, "pitch": 49, "duration": 10, "velocity": 96}, {"time": 1277, "pitch": 56, "duration": 3, "velocity": 81}, {"time": 1280, "pitch": 52, "duration": 8, "velocity": 99}, {"time": 1280, "pitch": 56, "duration": 9, "velocity": 63}, {"time": 1280, "pitch": 61, "duration": 10, "velocity": 86}, {"time": 1283, "pitch": 37, "duration": 16, "velocity": 89}, {"time": 1286, "pitch": 49, "duration": 9, "velocity": 74}, {"time": 1289, "pitch": 52, "duration": 9, "velocity": 72}, {"time": 1292, "pitch": 56, "duration": 2, "velocity": 100}, {"time": 1295, "pitch": 61, "duration": 11, "velocity": 122}, {"time": 1298, "pitch": 49, "duration": 1, "velocity": 92}, {"time": 1301, "pitch": 56, "duration": 5, "velocity": 107}, {"time": 1304, "pitch": 52, "duration": 2, "velocity": 88}, {"time": 1307, "pitch": 45, "duration": 20, "velocity": 81}, {"time": 1310, "pitch": 52, "duration": 10, "velocity": 75}, {"time": 1313, "pitch": 57, "duration": 3, "velocity": 89}, {"time": 1316, "pitch": 61, "duration": 2, "velocity": 99}, {"time": 1319, "pitch": 64, "duration": 11, "velocity": 96}, {"time": 1322, "pitch": 52, "duration": 8, "velocity": 89}, {"time": 1325, "pitch": 61, "duration": 5, "velocity": 117}, {"time": 1328, "pitch": 57, "duration": 2, "velocity": 96}, {"time": 1331, "pitch": 47, "duration": 17, "velocity": 72}, {"time": 1334, "pitch": 54, "duration": 11, "velocity": 90}, {"time": 1337, "pitch": 59, "duration": 8, "velocity": 86}, {"time": 1340, "pitch": 63, "duration": 2, "velocity": 117}, {"time": 1343, "pitch": 66, "duration": 9, "velocity": 127}, {"time": 1346, "pitch": 54, "duration": 2, "velocity": 92}, {"time": 1349, "pitch": 63, "duration": 3, "velocity": 100}, {"time": 1352, "pitch": 59, "duration": 5, "velocity": 96}, {"time": 1355, "pitch": 40, "duration": 18, "velocity": 89}, {"time": 1358, "pitch": 47, "duration": 14, "velocity": 95}, {"time": 1361, "pitch": 52, "duration": 7, "velocity": 95}, {"time": 1364, "pitch": 59, "duration": 6, "velocity": 97}, {"time": 1367, "pitch": 68, "duration": 6, "velocity": 127}, {"time": 1370, "pitch": 52, "duration": 6, "velocity": 102}, {"time": 1373, "pitch": 59, "duration": 3, "velocity": 107}, {"time": 1379, "pitch": 46, "duration": 12, "velocity": 102}, {"time": 1379, "pitch": 58, "duration": 10, "velocity": 96}, {"time": 1379, "pitch": 61, "duration": 7, "velocity": 85}, {"time": 1379, "pitch": 64, "duration": 7, "velocity": 88}, {"time": 1391, "pitch": 44, "duration": 6, "velocity": 89}, {"time": 1391, "pitch": 56, "duration": 7, "velocity": 97}, {"time": 1391, "pitch": 59, "duration": 7, "velocity": 79}, {"time": 1391, "pitch": 63, "duration": 7, "velocity": 93}, {"time": 1403, "pitch": 45, "duration": 21, "velocity": 85}, {"time": 1403, "pitch": 61, "duration": 7, "velocity": 96}, {"time": 1403, "pitch": 64, "duration": 10, "velocity": 86}, {"time": 1406, "pitch": 52, "duration": 10, "velocity": 78}, {"time": 1409, "pitch": 57, "duration": 3, "velocity": 90}, {"time": 1412, "pitch": 61, "duration": 3, "velocity": 79}, {"time": 1415, "pitch": 64, "duration": 11, "velocity": 99}, {"time": 1418, "pitch": 52, "duration": 8, "velocity": 86}, {"time": 1421, "pitch": 61, "duration": 5, "velocity": 112}, {"time": 1424, "pitch": 57, "duration": 3, "velocity": 93}, {"time": 1427, "pitch": 47, "duration": 19, "velocity": 81}, {"time": 1430, "pitch": 54, "duration": 11, "velocity": 93}, {"time": 1433, "pitch": 59, "duration": 8, "velocity": 81}, {"time": 1436, "pitch": 63, "duration": 2, "velocity": 99}, {"time": 1439, "pitch": 66, "duration": 10, "velocity": 112}, {"time": 1442, "pitch": 54, "duration": 3, "velocity": 92}, {"time": 1445, "pitch": 63, "duration": 4, "velocity": 117}, {"time": 1448, "pitch": 59, "duration": 2, "velocity": 92}, {"time": 1451, "pitch": 49, "duration": 11, "velocity": 112}, {"time": 1454, "pitch": 56, "duration": 4, "velocity": 82}, {"time": 1457, "pitch": 64, "duration": 6, "velocity": 96}, {"time": 1460, "pitch": 61, "duration": 3, "velocity": 89}, {"time": 1463, "pitch": 47, "duration": 11, "velocity": 100}, {"time": 1469, "pitch": 63, "duration": 3, "velocity": 107}, {"time": 1472, "pitch": 59, "duration": 2, "velocity": 92}, {"time": 1475, "pitch": 46, "duration": 13, "velocity": 97}, {"time": 1475, "pitch": 58, "duration": 11, "velocity": 112}, {"time": 1475, "pitch": 61, "duration": 10, "velocity": 99}, {"time": 1487, "pitch": 64, "duration": 8, "velocity": 97}, {"time": 1490, "pitch": 46, "duration": 4, "velocity": 102}, {"time": 1493, "pitch": 58, "duration": 5, "velocity": 96}, {"time": 1496, "pitch": 61, "duration": 3, "velocity": 96}, {"time": 1499, "pitch": 45, "duration": 22, "velocity": 72}, {"time": 1502, "pitch": 52, "duration": 10, "velocity": 76}, {"time": 1505, "pitch": 57, "duration": 3, "velocity": 86}, {"time": 1508, "pitch": 61, "duration": 2, "velocity": 102}, {"time": 1511, "pitch": 64, "duration": 12, "velocity": 93}, {"time": 1514, "pitch": 52, "duration": 8, "velocity": 83}, {"time": 1517, "pitch": 61, "duration": 5, "velocity": 112}, {"time": 1520, "pitch": 57, "duration": 3, "velocity": 85}, {"time": 1523, "pitch": 47, "duration": 16, "velocity": 73}, {"time": 1526, "pitch": 54, "duration": 10, "velocity": 93}, {"time": 1529, "pitch": 59, "duration": 9, "velocity": 83}, {"time": 1532, "pitch": 63, "duration": 5, "velocity": 92}, {"time": 1535, "pitch": 66, "duration": 11, "velocity": 107}, {"time": 1538, "pitch": 54, "duration": 1, "velocity": 81}, {"time": 1541, "pitch": 63, "duration": 6, "velocity": 107}, {"time": 1544, "pitch": 59, "duration": 4, "velocity": 86}, {"time": 1547, "pitch": 37, "duration": 23, "velocity": 95}, {"time": 1550, "pitch": 49, "duration": 9, "velocity": 85}, {"time": 1553, "pitch": 52, "duration": 9, "velocity": 66}, {"time": 1556, "pitch": 56, "duration": 9, "velocity": 92}, {"time": 1559, "pitch": 61, "duration": 7, "velocity": 100}, {"time": 1562, "pitch": 49, "duration": 10, "velocity": 93}, {"time": 1565, "pitch": 52, "duration": 20, "velocity": 79}, {"time": 1568, "pitch": 56, "duration": 2, "velocity": 71}, {"time": 1571, "pitch": 37, "duration": 15, "velocity": 86}, {"time": 1571, "pitch": 56, "duration": 11, "velocity": 64}, {"time": 1571, "pitch": 61, "duration": 11, "velocity": 100}, {"time": 1577, "pitch": 49, "duration": 7, "velocity": 55}, {"time": 1583, "pitch": 56, "duration": 2, "velocity": 56}, {"time": 1583, "pitch": 61, "duration": 3, "velocity": 82}, {"time": 1595, "pitch": 45, "duration": 40, "velocity": 75}, {"time": 1601, "pitch": 52, "duration": 32, "velocity": 60}, {"time": 1607, "pitch": 61, "duration": 23, "velocity": 92}, {"time": 1613, "pitch": 57, "duration": 19, "velocity": 70}, {"time": 1631, "pitch": 64, "duration": 12, "velocity": 89}, {"time": 1637, "pitch": 61, "duration": 7, "velocity": 82}, {"time": 1643, "pitch": 49, "duration": 38, "velocity": 78}, {"time": 1649, "pitch": 56, "duration": 13, "velocity": 82}, {"time": 1655, "pitch": 64, "duration": 17, "velocity": 71}, {"time": 1661, "pitch": 61, "duration": 14, "velocity": 74}, {"time": 1673, "pitch": 56, "duration": 18, "velocity": 61}, {"time": 1679, "pitch": 64, "duration": 13, "velocity": 66}, {"time": 1685, "pitch": 61, "duration": 16, "velocity": 72}, {"time": 1691, "pitch": 45, "duration": 37, "velocity": 77}, {"time": 1697, "pitch": 52, "duration": 19, "velocity": 59}, {"time": 1703, "pitch": 64, "duration": 22, "velocity": 79}, {"time": 1709, "pitch": 61, "duration": 16, "velocity": 63}, {"time": 1721, "pitch": 52, "duration": 6, "velocity": 66}, {"time": 1727, "pitch": 64, "duration": 13, "velocity": 73}, {"time": 1733, "pitch": 61, "duration": 7, "velocity": 63}, {"time": 1739, "pitch": 37, "duration": 45, "velocity": 93}, {"time": 1745, "pitch": 44, "duration": 38, "velocity": 48}, {"time": 1751, "pitch": 49, "duration": 14, "velocity": 90}, {"time": 1757, "pitch": 52, "duration": 19, "velocity": 66}, {"time": 1763, "pitch": 61, "duration": 23, "velocity": 96}, {"time": 1769, "pitch": 49, "duration": 15, "velocity": 74}, {"time": 1775, "pitch": 56, "duration": 11, "velocity": 77}, {"time": 1781, "pitch": 52, "duration": 6, "velocity": 74}, {"time": 1787, "pitch": 45, "duration": 20, "velocity": 69}, {"time": 1793, "pitch": 52, "duration": 18, "velocity": 54}, {"time": 1799, "pitch": 64, "duration": 11, "velocity": 78}, {"time": 1805, "pitch": 61, "duration": 7, "velocity": 58}, {"time": 1811, "pitch": 47, "duration": 22, "velocity": 68}, {"time": 1817, "pitch": 59, "duration": 18, "velocity": 57}, {"time": 1823, "pitch": 66, "duration": 11, "velocity": 90}, {"time": 1829, "pitch": 63, "duration": 5, "velocity": 55}, {"time": 1835, "pitch": 40, "duration": 36, "velocity": 73}, {"time": 1841, "pitch": 47, "duration": 28, "velocity": 53}, {"time": 1847, "pitch": 52, "duration": 19, "velocity": 67}, {"time": 1853, "pitch": 59, "duration": 9, "velocity": 39}, {"time": 1859, "pitch": 64, "duration": 11, "velocity": 72}, {"time": 1859, "pitch": 68, "duration": 11, "velocity": 85}, {"time": 1865, "pitch": 59, "duration": 5, "velocity": 62}, {"time": 1871, "pitch": 41, "duration": 3, "velocity": 71}, {"time": 1883, "pitch": 42, "duration": 14, "velocity": 77}, {"time": 1889, "pitch": 54, "duration": 9, "velocity": 79}, {"time": 1895, "pitch": 61, "duration": 9, "velocity": 85}, {"time": 1895, "pitch": 66, "duration": 9, "velocity": 83}, {"time": 1901, "pitch": 57, "duration": 5, "velocity": 79}, {"time": 1907, "pitch": 44, "duration": 12, "velocity": 77}, {"time": 1913, "pitch": 56, "duration": 7, "velocity": 90}, {"time": 1919, "pitch": 48, "duration": 6, "velocity": 67}, {"time": 1919, "pitch": 60, "duration": 11, "velocity": 72}, {"time": 1919, "pitch": 63, "duration": 12, "velocity": 69}, {"time": 1931, "pitch": 49, "duration": 4, "velocity": 67}, {"time": 1931, "pitch": 61, "duration": 5, "velocity": 67}, {"time": 1931, "pitch": 64, "duration": 5, "velocity": 69}, {"time": 1931, "pitch": 68, "duration": 5, "velocity": 66}, {"time": 1943, "pitch": 47, "duration": 4, "velocity": 55}, {"time": 1943, "pitch": 59, "duration": 5, "velocity": 63}, {"time": 1943, "pitch": 63, "duration": 4, "velocity": 59}, {"time": 1943, "pitch": 66, "duration": 3, "velocity": 59}, {"time": 1955, "pitch": 46, "duration": 16, "velocity": 56}, {"time": 1955, "pitch": 58, "duration": 23, "velocity": 60}, {"time": 1955, "pitch": 61, "duration": 24, "velocity": 64}, {"time": 1955, "pitch": 64, "duration": 22, "velocity": 69}, {"time": 1979, "pitch": 42, "duration": 23, "velocity": 79}, {"time": 1985, "pitch": 54, "duration": 7, "velocity": 52}, {"time": 1991, "pitch": 66, "duration": 12, "velocity": 93}, {"time": 1994, "pitch": 54, "duration": 8, "velocity": 58}, {"time": 1997, "pitch": 61, "duration": 6, "velocity": 60}, {"time": 2000, "pitch": 57, "duration": 3, "velocity": 58}, {"time": 2003, "pitch": 44, "duration": 16, "velocity": 83}, {"time": 2003, "pitch": 56, "duration": 1, "velocity": 50}, {"time": 2003, "pitch": 59, "duration": 11, "velocity": 69}, {"time": 2003, "pitch": 63, "duration": 6, "velocity": 68}, {"time": 2009, "pitch": 56, "duration": 8, "velocity": 75}, {"time": 2015, "pitch": 63, "duration": 11, "velocity": 76}, {"time": 2021, "pitch": 59, "duration": 6, "velocity": 62}, {"time": 2027, "pitch": 37, "duration": 46, "velocity": 72}, {"time": 2033, "pitch": 49, "duration": 9, "velocity": 67}, {"time": 2039, "pitch": 56, "duration": 26, "velocity": 88}, {"time": 2045, "pitch": 49, "duration": 11, "velocity": 53}, {"time": 2051, "pitch": 61, "duration": 11, "velocity": 63}, {"time": 2051, "pitch": 64, "duration": 11, "velocity": 69}, {"time": 2063, "pitch": 61, "duration": 1, "velocity": 28}, {"time": 2063, "pitch": 64, "duration": 13, "velocity": 70}, {"time": 2066, "pitch": 49, "duration": 6, "velocity": 72}, {"time": 2069, "pitch": 56, "duration": 5, "velocity": 86}, {"time": 2072, "pitch": 61, "duration": 4, "velocity": 78}, {"time": 2075, "pitch": 45, "duration": 22, "velocity": 81}, {"time": 2078, "pitch": 52, "duration": 10, "velocity": 56}, {"time": 2081, "pitch": 57, "duration": 3, "velocity": 83}, {"time": 2084, "pitch": 61, "duration": 2, "velocity": 79}, {"time": 2087, "pitch": 64, "duration": 11, "velocity": 89}, {"time": 2090, "pitch": 52, "duration": 7, "velocity": 86}, {"time": 2093, "pitch": 61, "duration": 5, "velocity": 99}, {"time": 2096, "pitch": 57, "duration": 3, "velocity": 92}, {"time": 2099, "pitch": 47, "duration": 16, "velocity": 56}, {"time": 2102, "pitch": 54, "duration": 10, "velocity": 65}, {"time": 2105, "pitch": 59, "duration": 8, "velocity": 72}, {"time": 2108, "pitch": 63, "duration": 4, "velocity": 82}, {"time": 2111, "pitch": 66, "duration": 12, "velocity": 99}, {"time": 2114, "pitch": 54, "duration": 1, "velocity": 64}, {"time": 2117, "pitch": 63, "duration": 6, "velocity": 96}, {"time": 2120, "pitch": 59, "duration": 3, "velocity": 77}, {"time": 2123, "pitch": 37, "duration": 23, "velocity": 82}, {"time": 2126, "pitch": 49, "duration": 5, "velocity": 95}, {"time": 2129, "pitch": 52, "duration": 7, "velocity": 86}, {"time": 2132, "pitch": 49, "duration": 3, "velocity": 69}, {"time": 2135, "pitch": 56, "duration": 8, "velocity": 96}, {"time": 2138, "pitch": 49, "duration": 9, "velocity": 78}, {"time": 2141, "pitch": 52, "duration": 5, "velocity": 72}, {"time": 2144, "pitch": 61, "duration": 3, "velocity": 97}, {"time": 2147, "pitch": 37, "duration": 16, "velocity": 90}, {"time": 2150, "pitch": 49, "duration": 13, "velocity": 86}, {"time": 2153, "pitch": 61, "duration": 7, "velocity": 79}, {"time": 2156, "pitch": 64, "duration": 2, "velocity": 41}, {"time": 2159, "pitch": 68, "duration": 6, "velocity": 112}, {"time": 2162, "pitch": 61, "duration": 7, "velocity": 89}, {"time": 2165, "pitch": 64, "duration": 3, "velocity": 44}, {"time": 2168, "pitch": 68, "duration": 2, "velocity": 93}, {"time": 2171, "pitch": 45, "duration": 22, "velocity": 75}, {"time": 2174, "pitch": 52, "duration": 10, "velocity": 42}, {"time": 2177, "pitch": 61, "duration": 4, "velocity": 82}, {"time": 2180, "pitch": 64, "duration": 14, "velocity": 93}, {"time": 2186, "pitch": 52, "duration": 8, "velocity": 65}, {"time": 2189, "pitch": 61, "duration": 5, "velocity": 74}, {"time": 2192, "pitch": 57, "duration": 3, "velocity": 56}, {"time": 2195, "pitch": 47, "duration": 21, "velocity": 55}, {"time": 2198, "pitch": 54, "duration": 10, "velocity": 74}, {"time": 2201, "pitch": 59, "duration": 9, "velocity": 77}, {"time": 2204, "pitch": 66, "duration": 14, "velocity": 117}, {"time": 2210, "pitch": 54, "duration": 4, "velocity": 51}, {"time": 2213, "pitch": 63, "duration": 5, "velocity": 86}, {"time": 2216, "pitch": 59, "duration": 2, "velocity": 82}, {"time": 2219, "pitch": 49, "duration": 19, "velocity": 88}, {"time": 2222, "pitch": 61, "duration": 8, "velocity": 57}, {"time": 2225, "pitch": 64, "duration": 3, "velocity": 69}, {"time": 2228, "pitch": 68, "duration": 18, "velocity": 100}, {"time": 2237, "pitch": 61, "duration": 8, "velocity": 72}, {"time": 2240, "pitch": 64, "duration": 3, "velocity": 58}, {"time": 2243, "pitch": 49, "duration": 17, "velocity": 41}, {"time": 2246, "pitch": 56, "duration": 10, "velocity": 36}, {"time": 2249, "pitch": 61, "duration": 5, "velocity": 68}, {"time": 2252, "pitch": 68, "duration": 14, "velocity": 112}, {"time": 2255, "pitch": 64, "duration": 11, "velocity": 53}, {"time": 2258, "pitch": 56, "duration": 2, "velocity": 72}, {"time": 2261, "pitch": 61, "duration": 6, "velocity": 68}, {"time": 2267, "pitch": 45, "duration": 19, "velocity": 69}, {"time": 2270, "pitch": 52, "duration": 10, "velocity": 74}, {"time": 2273, "pitch": 57, "duration": 11, "velocity": 86}, {"time": 2276, "pitch": 64, "duration": 14, "velocity": 95}, {"time": 2282, "pitch": 52, "duration": 7, "velocity": 56}, {"time": 2285, "pitch": 61, "duration": 5, "velocity": 66}, {"time": 2288, "pitch": 57, "duration": 3, "velocity": 78}, {"time": 2291, "pitch": 47, "duration": 16, "velocity": 70}, {"time": 2294, "pitch": 54, "duration": 10, "velocity": 95}, {"time": 2297, "pitch": 59, "duration": 11, "velocity": 72}, {"time": 2300, "pitch": 66, "duration": 14, "velocity": 127}, {"time": 2306, "pitch": 54, "duration": 1, "velocity": 62}, {"time": 2309, "pitch": 63, "duration": 6, "velocity": 81}, {"time": 2312, "pitch": 59, "duration": 3, "velocity": 65}, {"time": 2315, "pitch": 37, "duration": 22, "velocity": 75}, {"time": 2318, "pitch": 49, "duration": 9, "velocity": 83}, {"time": 2321, "pitch": 52, "duration": 9, "velocity": 65}, {"time": 2324, "pitch": 61, "duration": 17, "velocity": 117}, {"time": 2330, "pitch": 49, "duration": 8, "velocity": 72}, {"time": 2333, "pitch": 56, "duration": 8, "velocity": 41}, {"time": 2336, "pitch": 52, "duration": 7, "velocity": 81}, {"time": 2339, "pitch": 37, "duration": 16, "velocity": 96}, {"time": 2342, "pitch": 49, "duration": 9, "velocity": 100}, {"time": 2345, "pitch": 52, "duration": 7, "velocity": 90}, {"time": 2348, "pitch": 61, "duration": 13, "velocity": 127}, {"time": 2351, "pitch": 56, "duration": 7, "velocity": 122}, {"time": 2354, "pitch": 49, "duration": 2, "velocity": 107}, {"time": 2357, "pitch": 52, "duration": 4, "velocity": 95}, {"time": 2360, "pitch": 56, "duration": 2, "velocity": 127}, {"time": 2363, "pitch": 45, "duration": 20, "velocity": 92}, {"time": 2366, "pitch": 52, "duration": 10, "velocity": 79}, {"time": 2369, "pitch": 57, "duration": 2, "velocity": 95}, {"time": 2372, "pitch": 61, "duration": 2, "velocity": 102}, {"time": 2375, "pitch": 64, "duration": 12, "velocity": 93}, {"time": 2378, "pitch": 52, "duration": 8, "velocity": 76}, {"time": 2381, "pitch": 61, "duration": 5, "velocity": 100}, {"time": 2384, "pitch": 57, "duration": 3, "velocity": 85}, {"time": 2387, "pitch": 47, "duration": 17, "velocity": 70}, {"time": 2390, "pitch": 54, "duration": 11, "velocity": 89}, {"time": 2393, "pitch": 59, "duration": 8, "velocity": 78}, {"time": 2396, "pitch": 63, "duration": 4, "velocity": 102}, {"time": 2399, "pitch": 66, "duration": 10, "velocity": 107}, {"time": 2402, "pitch": 54, "duration": 2, "velocity": 77}, {"time": 2405, "pitch": 63, "duration": 5, "velocity": 112}, {"time": 2408, "pitch": 59, "duration": 3, "velocity": 92}, {"time": 2411, "pitch": 49, "duration": 13, "velocity": 92}, {"time": 2417, "pitch": 61, "duration": 8, "velocity": 81}, {"time": 2423, "pitch": 68, "duration": 13, "velocity": 107}, {"time": 2426, "pitch": 49, "duration": 7, "velocity": 63}, {"time": 2429, "pitch": 61, "duration": 6, "velocity": 92}, {"time": 2432, "pitch": 64, "duration": 5, "velocity": 71}, {"time": 2435, "pitch": 49, "duration": 16, "velocity": 85}, {"time": 2438, "pitch": 61, "duration": 4, "velocity": 75}, {"time": 2441, "pitch": 64, "duration": 3, "velocity": 59}, {"time": 2444, "pitch": 61, "duration": 4, "velocity": 93}, {"time": 2447, "pitch": 68, "duration": 11, "velocity": 107}, {"time": 2450, "pitch": 61, "duration": 4, "velocity": 102}, {"time": 2453, "pitch": 64, "duration": 2, "velocity": 73}, {"time": 2456, "pitch": 61, "duration": 3, "velocity": 117}, {"time": 2459, "pitch": 45, "duration": 22, "velocity": 74}, {"time": 2462, "pitch": 52, "duration": 10, "velocity": 59}, {"time": 2465, "pitch": 57, "duration": 4, "velocity": 85}, {"time": 2468, "pitch": 61, "duration": 2, "velocity": 97}, {"time": 2471, "pitch": 64, "duration": 12, "velocity": 95}, {"time": 2474, "pitch": 52, "duration": 8, "velocity": 76}, {"time": 2477, "pitch": 61, "duration": 5, "velocity": 100}, {"time": 2480, "pitch": 57, "duration": 4, "velocity": 95}, {"time": 2483, "pitch": 47, "duration": 22, "velocity": 79}, {"time": 2486, "pitch": 54, "duration": 10, "velocity": 95}, {"time": 2489, "pitch": 59, "duration": 7, "velocity": 82}, {"time": 2492, "pitch": 63, "duration": 2, "velocity": 97}, {"time": 2495, "pitch": 66, "duration": 10, "velocity": 127}, {"time": 2498, "pitch": 54, "duration": 5, "velocity": 99}, {"time": 2501, "pitch": 59, "duration": 4, "velocity": 102}, {"time": 2504, "pitch": 63, "duration": 2, "velocity": 117}, {"time": 2507, "pitch": 40, "duration": 16, "velocity": 74}, {"time": 2510, "pitch": 47, "duration": 13, "velocity": 90}, {"time": 2513, "pitch": 52, "duration": 7, "velocity": 83}, {"time": 2516, "pitch": 59, "duration": 6, "velocity": 78}, {"time": 2519, "pitch": 68, "duration": 6, "velocity": 117}, {"time": 2522, "pitch": 52, "duration": 4, "velocity": 92}, {"time": 2525, "pitch": 59, "duration": 2, "velocity": 88}, {"time": 2531, "pitch": 46, "duration": 6, "velocity": 97}, {"time": 2531, "pitch": 58, "duration": 7, "velocity": 97}, {"time": 2531, "pitch": 61, "duration": 7, "velocity": 99}, {"time": 2543, "pitch": 44, "duration": 9, "velocity": 72}, {"time": 2543, "pitch": 56, "duration": 10, "velocity": 96}, {"time": 2543, "pitch": 60, "duration": 10, "velocity": 90}, {"time": 2543, "pitch": 63, "duration": 10, "velocity": 81}, {"time": 2555, "pitch": 45, "duration": 21, "velocity": 69}, {"time": 2558, "pitch": 52, "duration": 10, "velocity": 78}, {"time": 2561, "pitch": 57, "duration": 3, "velocity": 92}, {"time": 2564, "pitch": 61, "duration": 4, "velocity": 100}, {"time": 2567, "pitch": 64, "duration": 11, "velocity": 93}, {"time": 2570, "pitch": 52, "duration": 8, "velocity": 86}, {"time": 2573, "pitch": 61, "duration": 5, "velocity": 100}, {"time": 2576, "pitch": 57, "duration": 3, "velocity": 89}, {"time": 2579, "pitch": 47, "duration": 21, "velocity": 72}, {"time": 2582, "pitch": 54, "duration": 11, "velocity": 96}, {"time": 2585, "pitch": 59, "duration": 6, "velocity": 77}, {"time": 2588, "pitch": 63, "duration": 2, "velocity": 93}, {"time": 2591, "pitch": 66, "duration": 10, "velocity": 117}, {"time": 2594, "pitch": 54, "duration": 3, "velocity": 89}, {"time": 2597, "pitch": 59, "duration": 3, "velocity": 92}, {"time": 2600, "pitch": 63, "duration": 1, "velocity": 89}, {"time": 2603, "pitch": 49, "duration": 11, "velocity": 100}, {"time": 2606, "pitch": 61, "duration": 4, "velocity": 93}, {"time": 2609, "pitch": 68, "duration": 5, "velocity": 100}, {"time": 2612, "pitch": 61, "duration": 2, "velocity": 112}, {"time": 2615, "pitch": 47, "duration": 11, "velocity": 97}, {"time": 2621, "pitch": 59, "duration": 4, "velocity": 93}, {"time": 2627, "pitch": 46, "duration": 13, "velocity": 96}, {"time": 2627, "pitch": 58, "duration": 12, "velocity": 102}, {"time": 2627, "pitch": 61, "duration": 10, "velocity": 89}, {"time": 2639, "pitch": 64, "duration": 7, "velocity": 93}, {"time": 2642, "pitch": 46, "duration": 3, "velocity": 93}, {"time": 2645, "pitch": 58, "duration": 4, "velocity": 95}, {"time": 2648, "pitch": 61, "duration": 3, "velocity": 88}, {"time": 2651, "pitch": 45, "duration": 21, "velocity": 69}, {"time": 2654, "pitch": 52, "duration": 10, "velocity": 66}, {"time": 2657, "pitch": 57, "duration": 3, "velocity": 86}, {"time": 2660, "pitch": 61, "duration": 2, "velocity": 90}, {"time": 2663, "pitch": 64, "duration": 11, "velocity": 92}, {"time": 2666, "pitch": 52, "duration": 8, "velocity": 81}, {"time": 2669, "pitch": 61, "duration": 5, "velocity": 99}, {"time": 2672, "pitch": 57, "duration": 4, "velocity": 90}, {"time": 2675, "pitch": 47, "duration": 16, "velocity": 55}, {"time": 2678, "pitch": 54, "duration": 10, "velocity": 68}, {"time": 2681, "pitch": 59, "duration": 10, "velocity": 70}, {"time": 2684, "pitch": 63, "duration": 2, "velocity": 93}, {"time": 2687, "pitch": 66, "duration": 11, "velocity": 112}, {"time": 2690, "pitch": 54, "duration": 1, "velocity": 72}, {"time": 2693, "pitch": 63, "duration": 6, "velocity": 90}, {"time": 2696, "pitch": 59, "duration": 3, "velocity": 75}, {"time": 2699, "pitch": 37, "duration": 22, "velocity": 67}, {"time": 2702, "pitch": 44, "duration": 20, "velocity": 33}, {"time": 2705, "pitch": 49, "duration": 6, "velocity": 73}, {"time": 2708, "pitch": 52, "duration": 9, "velocity": 72}, {"time": 2711, "pitch": 61, "duration": 12, "velocity": 107}, {"time": 2714, "pitch": 49, "duration": 9, "velocity": 81}, {"time": 2717, "pitch": 56, "duration": 6, "velocity": 100}, {"time": 2720, "pitch": 52, "duration": 3, "velocity": 89}, {"time": 2723, "pitch": 38, "duration": 24, "velocity": 79}, {"time": 2723, "pitch": 57, "duration": 1, "velocity": 61}, {"time": 2723, "pitch": 62, "duration": 10, "velocity": 95}, {"time": 2723, "pitch": 65, "duration": 10, "velocity": 92}, {"time": 2726, "pitch": 45, "duration": 20, "velocity": 85}, {"time": 2729, "pitch": 50, "duration": 7, "velocity": 86}, {"time": 2732, "pitch": 57, "duration": 9, "velocity": 86}, {"time": 2735, "pitch": 65, "duration": 12, "velocity": 100}, {"time": 2738, "pitch": 50, "duration": 4, "velocity": 92}, {"time": 2741, "pitch": 62, "duration": 6, "velocity": 117}, {"time": 2744, "pitch": 57, "duration": 3, "velocity": 97}, {"time": 2747, "pitch": 46, "duration": 20, "velocity": 92}, {"time": 2750, "pitch": 53, "duration": 10, "velocity": 79}, {"time": 2753, "pitch": 58, "duration": 2, "velocity": 95}, {"time": 2756, "pitch": 62, "duration": 2, "velocity": 102}, {"time": 2759, "pitch": 65, "duration": 12, "velocity": 93}, {"time": 2762, "pitch": 53, "duration": 8, "velocity": 76}, {"time": 2765, "pitch": 62, "duration": 5, "velocity": 100}, {"time": 2768, "pitch": 58, "duration": 3, "velocity": 85}, {"time": 2771, "pitch": 48, "duration": 17, "velocity": 70}, {"time": 2774, "pitch": 55, "duration": 11, "velocity": 89}, {"time": 2777, "pitch": 60, "duration": 8, "velocity": 78}, {"time": 2780, "pitch": 64, "duration": 4, "velocity": 102}, {"time": 2783, "pitch": 67, "duration": 10, "velocity": 107}, {"time": 2786, "pitch": 55, "duration": 2, "velocity": 77}, {"time": 2789, "pitch": 64, "duration": 5, "velocity": 112}, {"time": 2792, "pitch": 60, "duration": 3, "velocity": 92}, {"time": 2795, "pitch": 50, "duration": 13, "velocity": 92}, {"time": 2801, "pitch": 62, "duration": 8, "velocity": 81}, {"time": 2807, "pitch": 69, "duration": 13, "velocity": 107}, {"time": 2810, "pitch": 50, "duration": 7, "velocity": 63}, {"time": 2813, "pitch": 62, "duration": 6, "velocity": 92}, {"time": 2816, "pitch": 65, "duration": 5, "velocity": 71}, {"time": 2819, "pitch": 50, "duration": 16, "velocity": 85}, {"time": 2822, "pitch": 62, "duration": 4, "velocity": 75}, {"time": 2825, "pitch": 65, "duration": 3, "velocity": 59}, {"time": 2828, "pitch": 62, "duration": 4, "velocity": 93}, {"time": 2831, "pitch": 69, "duration": 11, "velocity": 107}, {"time": 2834, "pitch": 62, "duration": 4, "velocity": 102}, {"time": 2837, "pitch": 65, "duration": 2, "velocity": 73}, {"time": 2840, "pitch": 62, "duration": 3, "velocity": 117}, {"time": 2843, "pitch": 46, "duration": 22, "velocity": 74}, {"time": 2846, "pitch": 53, "duration": 10, "velocity": 59}, {"time": 2849, "pitch": 58, "duration": 4, "velocity": 85}, {"time": 2852, "pitch": 62, "duration": 2, "velocity": 97}, {"time": 2855, "pitch": 65, "duration": 12, "velocity": 95}, {"time": 2858, "pitch": 53, "duration": 8, "velocity": 76}, {"time": 2861, "pitch": 62, "duration": 5, "velocity": 100}, {"time": 2864, "pitch": 58, "duration": 4, "velocity": 95}, {"time": 2867, "pitch": 48, "duration": 22, "velocity": 79}, {"time": 2870, "pitch": 55, "duration": 10, "velocity": 95}, {"time": 2873, "pitch": 60, "duration": 7, "velocity": 82}, {"time": 2876, "pitch": 64, "duration": 2, "velocity": 97}, {"time": 2879, "pitch": 67, "duration": 10, "velocity": 127}, {"time": 2882, "pitch": 55, "duration": 5, "velocity": 99}, {"time": 2885, "pitch": 60, "duration": 4, "velocity": 102}, {"time": 2888, "pitch": 64, "duration": 2, "velocity": 117}, {"time": 2891, "pitch": 41, "duration": 16, "velocity": 74}, {"time": 2894, "pitch": 48, "duration": 13, "velocity": 90}, {"time": 2897, "pitch": 53, "duration": 7, "velocity": 83}, {"time": 2900, "pitch": 60, "duration": 6, "velocity": 78}, {"time": 2903, "pitch": 69, "duration": 6, "velocity": 117}, {"time": 2906, "pitch": 53, "duration": 4, "velocity": 92}, {"time": 2909, "pitch": 60, "duration": 2, "velocity": 88}, {"time": 2915, "pitch": 47, "duration": 6, "velocity": 97}, {"time": 2915, "pitch": 59, "duration": 7, "velocity": 97}, {"time": 2915, "pitch": 62, "duration": 7, "velocity": 99}, {"time": 2927, "pitch": 45, "duration": 9, "velocity": 72}, {"time": 2927, "pitch": 57, "duration": 10, "velocity": 96}, {"time": 2927, "pitch": 61, "duration": 10, "velocity": 90}, {"time": 2927, "pitch": 64, "duration": 10, "velocity": 81}, {"time": 2939, "pitch": 46, "duration": 21, "velocity": 69}, {"time": 2942, "pitch": 53, "duration": 10, "velocity": 78}, {"time": 2945, "pitch": 58, "duration": 3, "velocity": 92}, {"time": 2948, "pitch": 62, "duration": 4, "velocity": 100}, {"time": 2951, "pitch": 65, "duration": 11, "velocity": 93}, {"time": 2954, "pitch": 53, "duration": 8, "velocity": 86}, {"time": 2957, "pitch": 62, "duration": 5, "velocity": 100}, {"time": 2960, "pitch": 58, "duration": 3, "velocity": 89}, {"time": 2963, "pitch": 48, "duration": 21, "velocity": 72}, {"time": 2966, "pitch": 55, "duration": 11, "velocity": 96}, {"time": 2969, "pitch": 60, "duration": 6, "velocity": 77}, {"time": 2972, "pitch": 64, "duration": 2, "velocity": 93}, {"time": 2975, "pitch": 67, "duration": 10, "velocity": 117}, {"time": 2978, "pitch": 55, "duration": 3, "velocity": 89}, {"time": 2981, "pitch": 60, "duration": 3, "velocity": 92}, {"time": 2984, "pitch": 64, "duration": 1, "velocity": 89}, {"time": 2987, "pitch": 50, "duration": 11, "velocity": 100}, {"time": 2990, "pitch": 62, "duration": 4, "velocity": 93}, {"time": 2993, "pitch": 69, "duration": 5, "velocity": 100}, {"time": 2996, "pitch": 62, "duration": 2, "velocity": 112}, {"time": 2999, "pitch": 48, "duration": 11, "velocity": 97}, {"time": 3005, "pitch": 60, "duration": 4, "velocity": 93}, {"time": 3011, "pitch": 47, "duration": 13, "velocity": 96}, {"time": 3011, "pitch": 59, "duration": 12, "velocity": 102}, {"time": 3011, "pitch": 62, "duration": 10, "velocity": 89}, {"time": 3023, "pitch": 65, "duration": 7, "velocity": 93}, {"time": 3026, "pitch": 47, "duration": 3, "velocity": 93}, {"time": 3029, "pitch": 59, "duration": 4, "velocity": 95}, {"time": 3032, "pitch": 62, "duration": 3, "velocity": 88}, {"time": 3035, "pitch": 47, "duration": 23, "velocity": 59}, {"time": 3035, "pitch": 59, "duration": 23, "velocity": 60}, {"time": 3035, "pitch": 62, "duration": 23, "velocity": 63}, {"time": 3035, "pitch": 65, "duration": 23, "velocity": 65}, {"time": 3059, "pitch": 46, "duration": 18, "velocity": 97}, {"time": 3062, "pitch": 58, "duration": 9, "velocity": 69}, {"time": 3065, "pitch": 62, "duration": 3, "velocity": 56}, {"time": 3068, "pitch": 65, "duration": 2, "velocity": 83}, {"time": 3071, "pitch": 65, "duration": 6, "velocity": 68}, {"time": 3074, "pitch": 58, "duration": 3, "velocity": 68}, {"time": 3077, "pitch": 62, "duration": 3, "velocity": 107}, {"time": 3080, "pitch": 65, "duration": 3, "velocity": 100}, {"time": 3083, "pitch": 48, "duration": 18, "velocity": 72}, {"time": 3086, "pitch": 55, "duration": 10, "velocity": 69}, {"time": 3089, "pitch": 60, "duration": 6, "velocity": 72}, {"time": 3092, "pitch": 64, "duration": 2, "velocity": 93}, {"time": 3095, "pitch": 67, "duration": 11, "velocity": 107}, {"time": 3098, "pitch": 55, "duration": 2, "velocity": 65}, {"time": 3101, "pitch": 64, "duration": 5, "velocity": 102}, {"time": 3104, "pitch": 60, "duration": 3, "velocity": 90}, {"time": 3107, "pitch": 38, "duration": 21, "velocity": 79}, {"time": 3110, "pitch": 45, "duration": 21, "velocity": 77}, {"time": 3113, "pitch": 50, "duration": 6, "velocity": 90}, {"time": 3116, "pitch": 57, "duration": 31, "velocity": 81}, {"time": 3119, "pitch": 65, "duration": 22, "velocity": 100}, {"time": 3122, "pitch": 50, "duration": 3, "velocity": 81}, {"time": 3125, "pitch": 64, "duration": 16, "velocity": 77}, {"time": 3131, "pitch": 38, "duration": 18, "velocity": 83}, {"time": 3131, "pitch": 62, "duration": 11, "velocity": 93}, {"time": 3137, "pitch": 45, "duration": 8, "velocity": 58}, {"time": 3143, "pitch": 65, "duration": 12, "velocity": 90}, {"time": 3146, "pitch": 45, "duration": 3, "velocity": 56}, {"time": 3149, "pitch": 64, "duration": 5, "velocity": 96}, {"time": 3152, "pitch": 62, "duration": 3, "velocity": 76}, {"time": 3155, "pitch": 46, "duration": 18, "velocity": 92}, {"time": 3161, "pitch": 58, "duration": 7, "velocity": 93}, {"time": 3167, "pitch": 65, "duration": 12, "velocity": 102}, {"time": 3170, "pitch": 58, "duration": 2, "velocity": 59}, {"time": 3173, "pitch": 62, "duration": 6, "velocity": 81}, {"time": 3179, "pitch": 48, "duration": 17, "velocity": 73}, {"time": 3185, "pitch": 55, "duration": 8, "velocity": 66}, {"time": 3191, "pitch": 67, "duration": 10, "velocity": 97}, {"time": 3197, "pitch": 60, "duration": 6, "velocity": 90}, {"time": 3203, "pitch": 38, "duration": 37, "velocity": 74}, {"time": 3209, "pitch": 45, "duration": 30, "velocity": 64}, {"time": 3215, "pitch": 65, "duration": 21, "velocity": 93}, {"time": 3221, "pitch": 50, "duration": 10, "velocity": 67}, {"time": 3227, "pitch": 57, "duration": 10, "velocity": 35}, {"time": 3227, "pitch": 62, "duration": 10, "velocity": 86}, {"time": 3233, "pitch": 50, "duration": 9, "velocity": 74}, {"time": 3239, "pitch": 57, "duration": 1, "velocity": 33}, {"time": 3239, "pitch": 65, "duration": 13, "velocity": 97}, {"time": 3242, "pitch": 62, "duration": 4, "velocity": 112}, {"time": 3245, "pitch": 57, "duration": 5, "velocity": 73}, {"time": 3248, "pitch": 62, "duration": 3, "velocity": 77}, {"time": 3251, "pitch": 46, "duration": 18, "velocity": 88}, {"time": 3257, "pitch": 53, "duration": 11, "velocity": 52}, {"time": 3263, "pitch": 58, "duration": 5, "velocity": 72}, {"time": 3263, "pitch": 65, "duration": 11, "velocity": 97}, {"time": 3269, "pitch": 62, "duration": 6, "velocity": 83}, {"time": 3275, "pitch": 48, "duration": 18, "velocity": 79}, {"time": 3281, "pitch": 55, "duration": 7, "velocity": 77}, {"time": 3287, "pitch": 64, "duration": 8, "velocity": 93}, {"time": 3290, "pitch": 55, "duration": 2, "velocity": 56}, {"time": 3293, "pitch": 60, "duration": 6, "velocity": 83}, {"time": 3296, "pitch": 64, "duration": 3, "velocity": 66}, {"time": 3299, "pitch": 38, "duration": 22, "velocity": 74}, {"time": 3302, "pitch": 45, "duration": 21, "velocity": 56}, {"time": 3305, "pitch": 50, "duration": 7, "velocity": 81}, {"time": 3308, "pitch": 57, "duration": 65, "velocity": 57}, {"time": 3311, "pitch": 65, "duration": 62, "velocity": 82}, {"time": 3314, "pitch": 50, "duration": 58, "velocity": 58}, {"time": 3317, "pitch": 64, "duration": 56, "velocity": 79}, {"time": 3323, "pitch": 38, "duration": 50, "velocity": 68}, {"time": 3323, "pitch": 62, "duration": 50, "velocity": 56}], "annotations": [{"time": 2, "annotation": {"number": 64, "value": 127}, "group": "control_change"}, {"time": 31, "annotation": {"number": 64, "value": 0}, "group": "control_change"}, {"time": 36, "annotation": {"number": 64, "value": 127}, "group": "control_change"}, {"time": 62, "annotation": {"number": 64, "value": 0}, "group": "control_change"}, {"time": 69, "annotation": {"number": 64, "value": 127}, "group": "control_change"}, {"time": 119, "annotation": {"number": 64, "value": 0}, "group": "control_change"}, {"time": 126, "annotation": {"number": 64, "value": 127}, "group": "control_change"}, {"time": 144, "annotation": {"number": 64, "value": 0}, "group": "control_change"}, {"time": 146, "annotation": {"number": 64, "value": 127}, "group": "control_change"}, {"time": 174, "annotation": {"number": 64, "value": 0}, "group": "control_change"}, {"time": 176, "annotation": {"number": 64, "value": 127}, "group": "control_change"}, {"time": 236, "annotation": {"number": 64, "value": 0}, "group": "control_change"}, {"time": 250, "annotation": {"number": 64, "value": 127}, "group": "control_change"}, {"time": 274, "annotation": {"number": 64, "value": 0}, "group": "control_change"}, {"time": 276, "annotation": {"number": 64, "value": 127}, "group": "control_change"}, {"time": 297, "annotation": {"number": 64, "value": 0}, "group": "control_change"}, {"time": 300, "annotation": {"number": 64, "value": 127}, "group": "control_change"}, {"time": 345, "annotation": {"number": 64, "value": 0}, "group": "control_change"}, {"time": 347, "annotation": {"number": 64, "value": 127}, "group": "control_change"}, {"time": 370, "annotation": {"number": 64, "value": 0}, "group": "control_change"}, {"time": 371, "annotation": {"number": 64, "value": 127}, "group": "control_change"}, {"time": 394, "annotation": {"number": 64, "value": 0}, "group": "control_change"}, {"time": 395, "annotation": {"number": 64, "value": 127}, "group": "control_change"}, {"time": 417, "annotation": {"number": 64, "value": 0}, "group": "control_change"}, {"time": 419, "annotation": {"number": 64, "value": 127}, "group": "control_change"}, {"time": 430, "annotation": {"number": 64, "value": 0}, "group": "control_change"}, {"time": 443, "annotation": {"number": 64, "value": 127}, "group": "control_change"}, {"time": 464, "annotation": {"number": 64, "value": 0}, "group": "control_change"}, {"time": 467, "annotation": {"number": 64, "value": 127}, "group": "control_change"}, {"time": 489, "annotation": {"number": 64, "value": 0}, "group": "control_change"}, {"time": 491, "annotation": {"number": 64, "value": 127}, "group": "control_change"}, {"time": 537, "annotation": {"number": 64, "value": 0}, "group": "control_change"}, {"time": 539, "annotation": {"number": 64, "value": 127}, "group": "control_change"}, {"time": 561, "annotation": {"number": 64, "value": 0}, "group": "control_change"}, {"time": 562, "annotation": {"number": 64, "value": 127}, "group": "control_change"}, {"time": 585, "annotation": {"number": 64, "value": 0}, "group": "control_change"}, {"time": 586, "annotation": {"number": 64, "value": 127}, "group": "control_change"}, {"time": 611, "annotation": {"number": 64, "value": 0}, "group": "control_change"}, {"time": 635, "annotation": {"number": 64, "value": 127}, "group": "control_change"}, {"time": 656, "annotation": {"number": 64, "value": 0}, "group": "control_change"}, {"time": 659, "annotation": {"number": 64, "value": 127}, "group": "control_change"}, {"time": 680, "annotation": {"number": 64, "value": 0}, "group": "control_change"}, {"time": 682, "annotation": {"number": 64, "value": 127}, "group": "control_change"}, {"time": 729, "annotation": {"number": 64, "value": 0}, "group": "control_change"}, {"time": 731, "annotation": {"number": 64, "value": 127}, "group": "control_change"}, {"time": 753, "annotation": {"number": 64, "value": 0}, "group": "control_change"}, {"time": 755, "annotation": {"number": 64, "value": 127}, "group": "control_change"}, {"time": 777, "annotation": {"number": 64, "value": 0}, "group": "control_change"}, {"time": 779, "annotation": {"number": 64, "value": 127}, "group": "control_change"}, {"time": 812, "annotation": {"number": 64, "value": 0}, "group": "control_change"}, {"time": 814, "annotation": {"number": 64, "value": 127}, "group": "control_change"}, {"time": 826, "annotation": {"number": 64, "value": 0}, "group": "control_change"}, {"time": 827, "annotation": {"number": 64, "value": 127}, "group": "control_change"}, {"time": 849, "annotation": {"number": 64, "value": 0}, "group": "control_change"}, {"time": 850, "annotation": {"number": 64, "value": 127}, "group": "control_change"}, {"time": 861, "annotation": {"number": 64, "value": 0}, "group": "control_change"}, {"time": 862, "annotation": {"number": 64, "value": 127}, "group": "control_change"}, {"time": 873, "annotation": {"number": 64, "value": 0}, "group": "control_change"}, {"time": 873, "annotation": {"number": 64, "value": 127}, "group": "control_change"}, {"time": 874, "annotation": {"number": 64, "value": 127}, "group": "control_change"}, {"time": 885, "annotation": {"number": 64, "value": 0}, "group": "control_change"}, {"time": 887, "annotation": {"number": 64, "value": 127}, "group": "control_change"}, {"time": 898, "annotation": {"number": 64, "value": 0}, "group": "control_change"}, {"time": 911, "annotation": {"number": 64, "value": 127}, "group": "control_change"}, {"time": 921, "annotation": {"number": 64, "value": 0}, "group": "control_change"}, {"time": 922, "annotation": {"number": 64, "value": 127}, "group": "control_change"}, {"time": 945, "annotation": {"number": 64, "value": 0}, "group": "control_change"}, {"time": 947, "annotation": {"number": 64, "value": 127}, "group": "control_change"}, {"time": 970, "annotation": {"number": 64, "value": 0}, "group": "control_change"}, {"time": 971, "annotation": {"number": 64, "value": 127}, "group": "control_change"}, {"time": 996, "annotation": {"number": 64, "value": 0}, "group": "control_change"}, {"time": 1018, "annotation": {"number": 64, "value": 127}, "group": "control_change"}, {"time": 1040, "annotation": {"number": 64, "value": 0}, "group": "control_change"}, {"time": 1042, "annotation": {"number": 64, "value": 127}, "group": "control_change"}, {"time": 1065, "annotation": {"number": 64, "value": 0}, "group": "control_change"}, {"time": 1067, "annotation": {"number": 64, "value": 127}, "group": "control_change"}, {"time": 1113, "annotation": {"number": 64, "value": 0}, "group": "control_change"}, {"time": 1115, "annotation": {"number": 64, "value": 127}, "group": "control_change"}, {"time": 1116, "annotation": {"number": 64, "value": 0}, "group": "control_change"}, {"time": 1120, "annotation": {"number": 64, "value": 127}, "group": "control_change"}, {"time": 1136, "annotation": {"number": 64, "value": 0}, "group": "control_change"}, {"time": 1138, "annotation": {"number": 64, "value": 127}, "group": "control_change"}, {"time": 1160, "annotation": {"number": 64, "value": 0}, "group": "control_change"}, {"time": 1162, "annotation": {"number": 64, "value": 127}, "group": "control_change"}, {"time": 1185, "annotation": {"number": 64, "value": 0}, "group": "control_change"}, {"time": 1187, "annotation": {"number": 64, "value": 127}, "group": "control_change"}, {"time": 1209, "annotation": {"number": 64, "value": 0}, "group": "control_change"}, {"time": 1211, "annotation": {"number": 64, "value": 127}, "group": "control_change"}, {"time": 1232, "annotation": {"number": 64, "value": 0}, "group": "control_change"}, {"time": 1234, "annotation": {"number": 64, "value": 127}, "group": "control_change"}, {"time": 1257, "annotation": {"number": 64, "value": 0}, "group": "control_change"}, {"time": 1259, "annotation": {"number": 64, "value": 127}, "group": "control_change"}, {"time": 1281, "annotation": {"number": 64, "value": 0}, "group": "control_change"}, {"time": 1283, "annotation": {"number": 64, "value": 127}, "group": "control_change"}, {"time": 1305, "annotation": {"number": 64, "value": 0}, "group": "control_change"}, {"time": 1307, "annotation": {"number": 64, "value": 127}, "group": "control_change"}, {"time": 1328, "annotation": {"number": 64, "value": 0}, "group": "control_change"}, {"time": 1330, "annotation": {"number": 64, "value": 127}, "group": "control_change"}, {"time": 1353, "annotation": {"number": 64, "value": 0}, "group": "control_change"}, {"time": 1355, "annotation": {"number": 64, "value": 127}, "group": "control_change"}, {"time": 1377, "annotation": {"number": 64, "value": 0}, "group": "control_change"}, {"time": 1379, "annotation": {"number": 64, "value": 127}, "group": "control_change"}, {"time": 1389, "annotation": {"number": 64, "value": 0}, "group": "control_change"}, {"time": 1391, "annotation": {"number": 64, "value": 127}, "group": "control_change"}, {"time": 1401, "annotation": {"number": 64, "value": 0}, "group": "control_change"}, {"time": 1403, "annotation": {"number": 64, "value": 127}, "group": "control_change"}, {"time": 1425, "annotation": {"number": 64, "value": 0}, "group": "control_change"}, {"time": 1427, "annotation": {"number": 64, "value": 127}, "group": "control_change"}, {"time": 1449, "annotation": {"number": 64, "value": 0}, "group": "control_change"}, {"time": 1451, "annotation": {"number": 64, "value": 127}, "group": "control_change"}, {"time": 1453, "annotation": {"number": 64, "value": 127}, "group": "control_change"}, {"time": 1473, "annotation": {"number": 64, "value": 0}, "group": "control_change"}, {"time": 1475, "annotation": {"number": 64, "value": 127}, "group": "control_change"}, {"time": 1497, "annotation": {"number": 64, "value": 0}, "group": "control_change"}, {"time": 1499, "annotation": {"number": 64, "value": 127}, "group": "control_change"}, {"time": 1520, "annotation": {"number": 64, "value": 0}, "group": "control_change"}, {"time": 1523, "annotation": {"number": 64, "value": 127}, "group": "control_change"}, {"time": 1545, "annotation": {"number": 64, "value": 0}, "group": "control_change"}, {"time": 1546, "annotation": {"number": 64, "value": 127}, "group": "control_change"}, {"time": 1569, "annotation": {"number": 64, "value": 0}, "group": "control_change"}, {"time": 1570, "annotation": {"number": 64, "value": 127}, "group": "control_change"}, {"time": 1593, "annotation": {"number": 64, "value": 0}, "group": "control_change"}, {"time": 1595, "annotation": {"number": 64, "value": 127}, "group": "control_change"}, {"time": 1641, "annotation": {"number": 64, "value": 0}, "group": "control_change"}, {"time": 1643, "annotation": {"number": 64, "value": 127}, "group": "control_change"}, {"time": 1689, "annotation": {"number": 64, "value": 0}, "group": "control_change"}, {"time": 1691, "annotation": {"number": 64, "value": 127}, "group": "control_change"}, {"time": 1782, "annotation": {"number": 64, "value": 0}, "group": "control_change"}, {"time": 1809, "annotation": {"number": 64, "value": 0}, "group": "control_change"}, {"time": 1811, "annotation": {"number": 64, "value": 127}, "group": "control_change"}, {"time": 1833, "annotation": {"number": 64, "value": 0}, "group": "control_change"}, {"time": 1835, "annotation": {"number": 64, "value": 127}, "group": "control_change"}, {"time": 1868, "annotation": {"number": 64, "value": 0}, "group": "control_change"}, {"time": 1870, "annotation": {"number": 64, "value": 127}, "group": "control_change"}, {"time": 1882, "annotation": {"number": 64, "value": 0}, "group": "control_change"}, {"time": 1883, "annotation": {"number": 64, "value": 127}, "group": "control_change"}, {"time": 1905, "annotation": {"number": 64, "value": 0}, "group": "control_change"}, {"time": 1906, "annotation": {"number": 64, "value": 127}, "group": "control_change"}, {"time": 1917, "annotation": {"number": 64, "value": 0}, "group": "control_change"}, {"time": 1918, "annotation": {"number": 64, "value": 127}, "group": "control_change"}, {"time": 1929, "annotation": {"number": 64, "value": 0}, "group": "control_change"}, {"time": 1929, "annotation": {"number": 64, "value": 127}, "group": "control_change"}, {"time": 1930, "annotation": {"number": 64, "value": 127}, "group": "control_change"}, {"time": 1941, "annotation": {"number": 64, "value": 0}, "group": "control_change"}, {"time": 1943, "annotation": {"number": 64, "value": 127}, "group": "control_change"}, {"time": 1954, "annotation": {"number": 64, "value": 0}, "group": "control_change"}, {"time": 1967, "annotation": {"number": 64, "value": 127}, "group": "control_change"}, {"time": 1977, "annotation": {"number": 64, "value": 0}, "group": "control_change"}, {"time": 1978, "annotation": {"number": 64, "value": 127}, "group": "control_change"}, {"time": 2001, "annotation": {"number": 64, "value": 0}, "group": "control_change"}, {"time": 2003, "annotation": {"number": 64, "value": 127}, "group": "control_change"}, {"time": 2026, "annotation": {"number": 64, "value": 0}, "group": "control_change"}, {"time": 2027, "annotation": {"number": 64, "value": 127}, "group": "control_change"}, {"time": 2052, "annotation": {"number": 64, "value": 0}, "group": "control_change"}, {"time": 2074, "annotation": {"number": 64, "value": 127}, "group": "control_change"}, {"time": 2096, "annotation": {"number": 64, "value": 0}, "group": "control_change"}, {"time": 2098, "annotation": {"number": 64, "value": 127}, "group": "control_change"}, {"time": 2121, "annotation": {"number": 64, "value": 0}, "group": "control_change"}, {"time": 2123, "annotation": {"number": 64, "value": 127}, "group": "control_change"}, {"time": 2169, "annotation": {"number": 64, "value": 0}, "group": "control_change"}, {"time": 2176, "annotation": {"number": 64, "value": 127}, "group": "control_change"}, {"time": 2194, "annotation": {"number": 64, "value": 0}, "group": "control_change"}, {"time": 2195, "annotation": {"number": 64, "value": 127}, "group": "control_change"}, {"time": 2216, "annotation": {"number": 64, "value": 0}, "group": "control_change"}, {"time": 2218, "annotation": {"number": 64, "value": 127}, "group": "control_change"}, {"time": 2240, "annotation": {"number": 64, "value": 0}, "group": "control_change"}, {"time": 2242, "annotation": {"number": 64, "value": 127}, "group": "control_change"}, {"time": 2265, "annotation": {"number": 64, "value": 0}, "group": "control_change"}, {"time": 2267, "annotation": {"number": 64, "value": 127}, "group": "control_change"}, {"time": 2288, "annotation": {"number": 64, "value": 0}, "group": "control_change"}, {"time": 2291, "annotation": {"number": 64, "value": 127}, "group": "control_change"}, {"time": 2312, "annotation": {"number": 64, "value": 0}, "group": "control_change"}, {"time": 2314, "annotation": {"number": 64, "value": 127}, "group": "control_change"}, {"time": 2361, "annotation": {"number": 64, "value": 0}, "group": "control_change"}, {"time": 2363, "annotation": {"number": 64, "value": 127}, "group": "control_change"}, {"time": 2384, "annotation": {"number": 64, "value": 0}, "group": "control_change"}, {"time": 2386, "annotation": {"number": 64, "value": 127}, "group": "control_change"}, {"time": 2409, "annotation": {"number": 64, "value": 0}, "group": "control_change"}, {"time": 2410, "annotation": {"number": 64, "value": 127}, "group": "control_change"}, {"time": 2412, "annotation": {"number": 64, "value": 127}, "group": "control_change"}, {"time": 2432, "annotation": {"number": 64, "value": 0}, "group": "control_change"}, {"time": 2434, "annotation": {"number": 64, "value": 127}, "group": "control_change"}, {"time": 2457, "annotation": {"number": 64, "value": 0}, "group": "control_change"}, {"time": 2460, "annotation": {"number": 64, "value": 127}, "group": "control_change"}, {"time": 2481, "annotation": {"number": 64, "value": 0}, "group": "control_change"}, {"time": 2483, "annotation": {"number": 64, "value": 127}, "group": "control_change"}, {"time": 2505, "annotation": {"number": 64, "value": 0}, "group": "control_change"}, {"time": 2508, "annotation": {"number": 64, "value": 127}, "group": "control_change"}, {"time": 2530, "annotation": {"number": 64, "value": 0}, "group": "control_change"}, {"time": 2531, "annotation": {"number": 64, "value": 127}, "group": "control_change"}, {"time": 2542, "annotation": {"number": 64, "value": 0}, "group": "control_change"}, {"time": 2544, "annotation": {"number": 64, "value": 127}, "group": "control_change"}, {"time": 2552, "annotation": {"number": 64, "value": 0}, "group": "control_change"}, {"time": 2556, "annotation": {"number": 64, "value": 127}, "group": "control_change"}, {"time": 2576, "annotation": {"number": 64, "value": 0}, "group": "control_change"}, {"time": 2579, "annotation": {"number": 64, "value": 127}, "group": "control_change"}, {"time": 2601, "annotation": {"number": 64, "value": 0}, "group": "control_change"}, {"time": 2603, "annotation": {"number": 64, "value": 127}, "group": "control_change"}, {"time": 2625, "annotation": {"number": 64, "value": 0}, "group": "control_change"}, {"time": 2627, "annotation": {"number": 64, "value": 127}, "group": "control_change"}, {"time": 2648, "annotation": {"number": 64, "value": 0}, "group": "control_change"}, {"time": 2651, "annotation": {"number": 64, "value": 127}, "group": "control_change"}, {"time": 2672, "annotation": {"number": 64, "value": 0}, "group": "control_change"}, {"time": 2675, "annotation": {"number": 64, "value": 127}, "group": "control_change"}, {"time": 2696, "annotation": {"number": 64, "value": 0}, "group": "control_change"}, {"time": 2698, "annotation": {"number": 64, "value": 127}, "group": "control_change"}, {"time": 2720, "annotation": {"number": 64, "value": 0}, "group": "control_change"}, {"time": 2723, "annotation": {"number": 64, "value": 127}, "group": "control_change"}, {"time": 2741, "annotation": {"number": 64, "value": 0}, "group": "control_change"}, {"time": 2747, "annotation": {"number": 64, "value": 127}, "group": "control_change"}, {"time": 2768, "annotation": {"number": 64, "value": 0}, "group": "control_change"}, {"time": 2770, "annotation": {"number": 64, "value": 127}, "group": "control_change"}, {"time": 2793, "annotation": {"number": 64, "value": 0}, "group": "control_change"}, {"time": 2794, "annotation": {"number": 64, "value": 127}, "group": "control_change"}, {"time": 2796, "annotation": {"number": 64, "value": 127}, "group": "control_change"}, {"time": 2816, "annotation": {"number": 64, "value": 0}, "group": "control_change"}, {"time": 2818, "annotation": {"number": 64, "value": 127}, "group": "control_change"}, {"time": 2841, "annotation": {"number": 64, "value": 0}, "group": "control_change"}, {"time": 2844, "annotation": {"number": 64, "value": 127}, "group": "control_change"}, {"time": 2865, "annotation": {"number": 64, "value": 0}, "group": "control_change"}, {"time": 2867, "annotation": {"number": 64, "value": 127}, "group": "control_change"}, {"time": 2889, "annotation": {"number": 64, "value": 0}, "group": "control_change"}, {"time": 2892, "annotation": {"number": 64, "value": 127}, "group": "control_change"}, {"time": 2914, "annotation": {"number": 64, "value": 0}, "group": "control_change"}, {"time": 2915, "annotation": {"number": 64, "value": 127}, "group": "control_change"}, {"time": 2926, "annotation": {"number": 64, "value": 0}, "group": "control_change"}, {"time": 2928, "annotation": {"number": 64, "value": 127}, "group": "control_change"}, {"time": 2936, "annotation": {"number": 64, "value": 0}, "group": "control_change"}, {"time": 2940, "annotation": {"number": 64, "value": 127}, "group": "control_change"}, {"time": 2960, "annotation": {"number": 64, "value": 0}, "group": "control_change"}, {"time": 2963, "annotation": {"number": 64, "value": 127}, "group": "control_change"}, {"time": 2985, "annotation": {"number": 64, "value": 0}, "group": "control_change"}, {"time": 2987, "annotation": {"number": 64, "value": 127}, "group": "control_change"}, {"time": 3009, "annotation": {"number": 64, "value": 0}, "group": "control_change"}, {"time": 3011, "annotation": {"number": 64, "value": 127}, "group": "control_change"}, {"time": 3028, "annotation": {"number": 64, "value": 127}, "group": "control_change"}, {"time": 3032, "annotation": {"number": 64, "value": 0}, "group": "control_change"}, {"time": 3033, "annotation": {"number": 64, "value": 0}, "group": "control_change"}, {"time": 3035, "annotation": {"number": 64, "value": 127}, "group": "control_change"}, {"time": 3060, "annotation": {"number": 64, "value": 127}, "group": "control_change"}, {"time": 3080, "annotation": {"number": 64, "value": 0}, "group": "control_change"}, {"time": 3083, "annotation": {"number": 64, "value": 127}, "group": "control_change"}, {"time": 3105, "annotation": {"number": 64, "value": 0}, "group": "control_change"}, {"time": 3107, "annotation": {"number": 64, "value": 127}, "group": "control_change"}, {"time": 3129, "annotation": {"number": 64, "value": 0}, "group": "control_change"}, {"time": 3131, "annotation": {"number": 64, "value": 127}, "group": "control_change"}, {"time": 3152, "annotation": {"number": 64, "value": 0}, "group": "control_change"}, {"time": 3155, "annotation": {"number": 64, "value": 127}, "group": "control_change"}, {"time": 3176, "annotation": {"number": 64, "value": 0}, "group": "control_change"}, {"time": 3179, "annotation": {"number": 64, "value": 127}, "group": "control_change"}, {"time": 3201, "annotation": {"number": 64, "value": 0}, "group": "control_change"}, {"time": 3203, "annotation": {"number": 64, "value": 127}, "group": "control_change"}, {"time": 3249, "annotation": {"number": 64, "value": 0}, "group": "control_change"}, {"time": 3251, "annotation": {"number": 64, "value": 127}, "group": "control_change"}, {"time": 3273, "annotation": {"number": 64, "value": 0}, "group": "control_change"}, {"time": 3275, "annotation": {"number": 64, "value": 127}, "group": "control_change"}, {"time": 3297, "annotation": {"number": 64, "value": 0}, "group": "control_change"}, {"time": 3299, "annotation": {"number": 64, "value": 127}, "group": "control_change"}, {"time": 3321, "annotation": {"number": 64, "value": 0}, "group": "control_change"}, {"time": 3323, "annotation": {"number": 64, "value": 127}, "group": "control_change"}, {"time": 3344, "annotation": {"number": 64, "value": 0}, "group": "control_change"}, {"time": 3379, "annotation": {"number": 64, "value": 127}, "group": "control_change"}, {"time": 3381, "annotation": {"number": 64, "value": 0}, "group": "control_change"}]}]}