{"metadata": {"schema_version": "0.2", "title": "None", "source_filename": "748.mid", "source_format": "midi"}, "resolution": 12, "tempos": [{"time": 0, "qpm": 74.000074000074}], "time_signatures": [{"time": 0, "numerator": 1, "denominator": 4}], "tracks": [{"program": 0, "is_drum": false, "name": "MELODY", "notes": [{"time": 552, "pitch": 55, "duration": 4, "velocity": 83}, {"time": 558, "pitch": 58, "duration": 4, "velocity": 72}, {"time": 564, "pitch": 60, "duration": 17, "velocity": 86}, {"time": 600, "pitch": 60, "duration": 5, "velocity": 95}, {"time": 606, "pitch": 67, "duration": 5, "velocity": 90}, {"time": 612, "pitch": 65, "duration": 19, "velocity": 89}, {"time": 648, "pitch": 60, "duration": 5, "velocity": 96}, {"time": 654, "pitch": 62, "duration": 4, "velocity": 83}, {"time": 660, "pitch": 65, "duration": 5, "velocity": 97}, {"time": 666, "pitch": 63, "duration": 11, "velocity": 85}, {"time": 690, "pitch": 63, "duration": 5, "velocity": 93}, {"time": 696, "pitch": 62, "duration": 5, "velocity": 72}, {"time": 702, "pitch": 58, "duration": 6, "velocity": 66}, {"time": 708, "pitch": 55, "duration": 26, "velocity": 69}, {"time": 744, "pitch": 55, "duration": 6, "velocity": 73}, {"time": 750, "pitch": 58, "duration": 6, "velocity": 72}, {"time": 756, "pitch": 60, "duration": 24, "velocity": 75}, {"time": 786, "pitch": 60, "duration": 5, "velocity": 93}, {"time": 792, "pitch": 70, "duration": 6, "velocity": 107}, {"time": 798, "pitch": 67, "duration": 5, "velocity": 90}, {"time": 804, "pitch": 65, "duration": 19, "velocity": 88}, {"time": 840, "pitch": 60, "duration": 6, "velocity": 82}, {"time": 846, "pitch": 62, "duration": 5, "velocity": 71}, {"time": 852, "pitch": 63, "duration": 6, "velocity": 82}, {"time": 864, "pitch": 63, "duration": 5, "velocity": 95}, {"time": 870, "pitch": 67, "duration": 6, "velocity": 88}, {"time": 876, "pitch": 65, "duration": 8, "velocity": 77}, {"time": 888, "pitch": 62, "duration": 5, "velocity": 86}, {"time": 894, "pitch": 55, "duration": 6, "velocity": 79}, {"time": 900, "pitch": 60, "duration": 1, "velocity": 90}, {"time": 906, "pitch": 60, "duration": 24, "velocity": 92}, {"time": 936, "pitch": 55, "duration": 4, "velocity": 83}, {"time": 942, "pitch": 58, "duration": 4, "velocity": 72}, {"time": 948, "pitch": 60, "duration": 17, "velocity": 86}, {"time": 984, "pitch": 60, "duration": 5, "velocity": 95}, {"time": 990, "pitch": 67, "duration": 5, "velocity": 90}, {"time": 996, "pitch": 65, "duration": 19, "velocity": 89}, {"time": 1032, "pitch": 60, "duration": 5, "velocity": 96}, {"time": 1038, "pitch": 62, "duration": 4, "velocity": 83}, {"time": 1044, "pitch": 65, "duration": 5, "velocity": 97}, {"time": 1050, "pitch": 63, "duration": 11, "velocity": 85}, {"time": 1074, "pitch": 63, "duration": 5, "velocity": 93}, {"time": 1080, "pitch": 62, "duration": 5, "velocity": 72}, {"time": 1086, "pitch": 58, "duration": 6, "velocity": 66}, {"time": 1092, "pitch": 55, "duration": 26, "velocity": 69}, {"time": 1128, "pitch": 55, "duration": 6, "velocity": 73}, {"time": 1134, "pitch": 58, "duration": 6, "velocity": 72}, {"time": 1140, "pitch": 60, "duration": 24, "velocity": 75}, {"time": 1170, "pitch": 60, "duration": 5, "velocity": 93}, {"time": 1176, "pitch": 70, "duration": 6, "velocity": 107}, {"time": 1182, "pitch": 67, "duration": 5, "velocity": 90}, {"time": 1188, "pitch": 65, "duration": 19, "velocity": 88}, {"time": 1224, "pitch": 60, "duration": 6, "velocity": 82}, {"time": 1230, "pitch": 62, "duration": 5, "velocity": 71}, {"time": 1236, "pitch": 63, "duration": 6, "velocity": 82}, {"time": 1248, "pitch": 63, "duration": 5, "velocity": 95}, {"time": 1254, "pitch": 67, "duration": 6, "velocity": 88}, {"time": 1260, "pitch": 65, "duration": 8, "velocity": 77}, {"time": 1272, "pitch": 67, "duration": 4, "velocity": 97}, {"time": 1278, "pitch": 63, "duration": 5, "velocity": 93}, {"time": 1284, "pitch": 62, "duration": 6, "velocity": 93}, {"time": 1290, "pitch": 60, "duration": 21, "velocity": 86}, {"time": 1332, "pitch": 65, "duration": 5, "velocity": 100}, {"time": 1338, "pitch": 67, "duration": 4, "velocity": 97}, {"time": 1344, "pitch": 70, "duration": 6, "velocity": 127}, {"time": 1350, "pitch": 67, "duration": 5, "velocity": 117}, {"time": 1356, "pitch": 65, "duration": 4, "velocity": 97}, {"time": 1362, "pitch": 60, "duration": 5, "velocity": 112}, {"time": 1368, "pitch": 65, "duration": 5, "velocity": 102}, {"time": 1380, "pitch": 65, "duration": 4, "velocity": 100}, {"time": 1386, "pitch": 67, "duration": 4, "velocity": 100}, {"time": 1392, "pitch": 70, "duration": 4, "velocity": 122}, {"time": 1398, "pitch": 67, "duration": 3, "velocity": 107}, {"time": 1404, "pitch": 65, "duration": 4, "velocity": 102}, {"time": 1410, "pitch": 60, "duration": 6, "velocity": 93}, {"time": 1416, "pitch": 63, "duration": 7, "velocity": 102}, {"time": 1428, "pitch": 65, "duration": 5, "velocity": 86}, {"time": 1434, "pitch": 63, "duration": 5, "velocity": 92}, {"time": 1440, "pitch": 60, "duration": 5, "velocity": 93}, {"time": 1446, "pitch": 58, "duration": 4, "velocity": 99}, {"time": 1452, "pitch": 72, "duration": 5, "velocity": 122}, {"time": 1458, "pitch": 70, "duration": 5, "velocity": 112}, {"time": 1464, "pitch": 67, "duration": 5, "velocity": 96}, {"time": 1470, "pitch": 65, "duration": 4, "velocity": 97}, {"time": 1476, "pitch": 67, "duration": 2, "velocity": 102}, {"time": 1478, "pitch": 70, "duration": 4, "velocity": 93}, {"time": 1482, "pitch": 67, "duration": 18, "velocity": 97}, {"time": 1506, "pitch": 67, "duration": 4, "velocity": 122}, {"time": 1512, "pitch": 65, "duration": 4, "velocity": 99}, {"time": 1518, "pitch": 67, "duration": 3, "velocity": 122}, {"time": 1524, "pitch": 65, "duration": 4, "velocity": 112}, {"time": 1530, "pitch": 67, "duration": 3, "velocity": 107}, {"time": 1536, "pitch": 70, "duration": 4, "velocity": 127}, {"time": 1542, "pitch": 67, "duration": 4, "velocity": 127}, {"time": 1548, "pitch": 65, "duration": 5, "velocity": 99}, {"time": 1554, "pitch": 60, "duration": 6, "velocity": 97}, {"time": 1560, "pitch": 65, "duration": 6, "velocity": 96}, {"time": 1572, "pitch": 65, "duration": 4, "velocity": 102}, {"time": 1578, "pitch": 67, "duration": 4, "velocity": 117}, {"time": 1584, "pitch": 70, "duration": 5, "velocity": 127}, {"time": 1590, "pitch": 67, "duration": 5, "velocity": 117}, {"time": 1596, "pitch": 65, "duration": 4, "velocity": 100}, {"time": 1602, "pitch": 60, "duration": 6, "velocity": 97}, {"time": 1608, "pitch": 63, "duration": 7, "velocity": 117}, {"time": 1620, "pitch": 65, "duration": 5, "velocity": 102}, {"time": 1626, "pitch": 63, "duration": 5, "velocity": 112}, {"time": 1632, "pitch": 60, "duration": 5, "velocity": 99}, {"time": 1638, "pitch": 58, "duration": 6, "velocity": 95}, {"time": 1644, "pitch": 55, "duration": 6, "velocity": 96}, {"time": 1650, "pitch": 58, "duration": 5, "velocity": 100}, {"time": 1662, "pitch": 63, "duration": 3, "velocity": 117}, {"time": 1664, "pitch": 62, "duration": 3, "velocity": 92}, {"time": 1668, "pitch": 60, "duration": 20, "velocity": 96}, {"time": 2088, "pitch": 55, "duration": 4, "velocity": 83}, {"time": 2094, "pitch": 58, "duration": 4, "velocity": 72}, {"time": 2100, "pitch": 60, "duration": 17, "velocity": 86}, {"time": 2136, "pitch": 60, "duration": 5, "velocity": 95}, {"time": 2142, "pitch": 67, "duration": 5, "velocity": 90}, {"time": 2148, "pitch": 65, "duration": 19, "velocity": 89}, {"time": 2184, "pitch": 60, "duration": 5, "velocity": 96}, {"time": 2190, "pitch": 62, "duration": 4, "velocity": 83}, {"time": 2196, "pitch": 65, "duration": 5, "velocity": 97}, {"time": 2202, "pitch": 63, "duration": 11, "velocity": 85}, {"time": 2226, "pitch": 63, "duration": 5, "velocity": 93}, {"time": 2232, "pitch": 62, "duration": 5, "velocity": 72}, {"time": 2238, "pitch": 58, "duration": 6, "velocity": 66}, {"time": 2244, "pitch": 55, "duration": 26, "velocity": 69}, {"time": 2280, "pitch": 55, "duration": 6, "velocity": 73}, {"time": 2286, "pitch": 58, "duration": 6, "velocity": 72}, {"time": 2292, "pitch": 60, "duration": 24, "velocity": 75}, {"time": 2322, "pitch": 60, "duration": 5, "velocity": 93}, {"time": 2328, "pitch": 70, "duration": 6, "velocity": 107}, {"time": 2334, "pitch": 67, "duration": 5, "velocity": 90}, {"time": 2340, "pitch": 65, "duration": 19, "velocity": 88}, {"time": 2376, "pitch": 60, "duration": 6, "velocity": 82}, {"time": 2382, "pitch": 62, "duration": 5, "velocity": 71}, {"time": 2388, "pitch": 63, "duration": 6, "velocity": 82}, {"time": 2400, "pitch": 63, "duration": 5, "velocity": 95}, {"time": 2406, "pitch": 67, "duration": 6, "velocity": 88}, {"time": 2412, "pitch": 65, "duration": 8, "velocity": 77}, {"time": 2424, "pitch": 67, "duration": 4, "velocity": 97}, {"time": 2430, "pitch": 63, "duration": 5, "velocity": 93}, {"time": 2436, "pitch": 62, "duration": 6, "velocity": 93}, {"time": 2442, "pitch": 60, "duration": 21, "velocity": 86}, {"time": 2484, "pitch": 65, "duration": 5, "velocity": 100}, {"time": 2490, "pitch": 67, "duration": 4, "velocity": 97}, {"time": 2496, "pitch": 70, "duration": 6, "velocity": 127}, {"time": 2502, "pitch": 67, "duration": 5, "velocity": 117}, {"time": 2508, "pitch": 65, "duration": 4, "velocity": 97}, {"time": 2514, "pitch": 60, "duration": 5, "velocity": 112}, {"time": 2520, "pitch": 65, "duration": 5, "velocity": 102}, {"time": 2532, "pitch": 65, "duration": 4, "velocity": 100}, {"time": 2538, "pitch": 67, "duration": 4, "velocity": 100}, {"time": 2544, "pitch": 70, "duration": 4, "velocity": 122}, {"time": 2550, "pitch": 67, "duration": 3, "velocity": 107}, {"time": 2556, "pitch": 65, "duration": 4, "velocity": 102}, {"time": 2562, "pitch": 60, "duration": 6, "velocity": 93}, {"time": 2568, "pitch": 63, "duration": 7, "velocity": 102}, {"time": 2580, "pitch": 65, "duration": 5, "velocity": 86}, {"time": 2586, "pitch": 63, "duration": 5, "velocity": 92}, {"time": 2592, "pitch": 60, "duration": 5, "velocity": 93}, {"time": 2598, "pitch": 58, "duration": 4, "velocity": 99}, {"time": 2604, "pitch": 72, "duration": 5, "velocity": 122}, {"time": 2610, "pitch": 70, "duration": 5, "velocity": 112}, {"time": 2616, "pitch": 67, "duration": 5, "velocity": 96}, {"time": 2622, "pitch": 65, "duration": 4, "velocity": 97}, {"time": 2628, "pitch": 67, "duration": 2, "velocity": 102}, {"time": 2630, "pitch": 70, "duration": 4, "velocity": 93}, {"time": 2634, "pitch": 67, "duration": 18, "velocity": 97}, {"time": 2658, "pitch": 67, "duration": 4, "velocity": 122}, {"time": 2664, "pitch": 65, "duration": 4, "velocity": 99}, {"time": 2670, "pitch": 67, "duration": 3, "velocity": 122}, {"time": 2676, "pitch": 65, "duration": 4, "velocity": 112}, {"time": 2682, "pitch": 67, "duration": 3, "velocity": 107}, {"time": 2688, "pitch": 70, "duration": 4, "velocity": 127}, {"time": 2694, "pitch": 67, "duration": 4, "velocity": 127}, {"time": 2700, "pitch": 65, "duration": 5, "velocity": 99}, {"time": 2706, "pitch": 60, "duration": 6, "velocity": 97}, {"time": 2712, "pitch": 65, "duration": 6, "velocity": 96}, {"time": 2724, "pitch": 65, "duration": 4, "velocity": 102}, {"time": 2730, "pitch": 67, "duration": 4, "velocity": 117}, {"time": 2736, "pitch": 70, "duration": 5, "velocity": 127}, {"time": 2742, "pitch": 67, "duration": 5, "velocity": 117}, {"time": 2748, "pitch": 65, "duration": 4, "velocity": 100}, {"time": 2754, "pitch": 60, "duration": 6, "velocity": 97}, {"time": 2760, "pitch": 63, "duration": 7, "velocity": 117}, {"time": 2772, "pitch": 65, "duration": 5, "velocity": 102}, {"time": 2778, "pitch": 63, "duration": 5, "velocity": 112}, {"time": 2784, "pitch": 60, "duration": 5, "velocity": 99}, {"time": 2790, "pitch": 58, "duration": 6, "velocity": 95}, {"time": 2796, "pitch": 55, "duration": 6, "velocity": 96}, {"time": 2802, "pitch": 58, "duration": 5, "velocity": 100}, {"time": 2814, "pitch": 63, "duration": 3, "velocity": 117}, {"time": 2816, "pitch": 62, "duration": 3, "velocity": 92}, {"time": 2820, "pitch": 60, "duration": 20, "velocity": 96}, {"time": 2868, "pitch": 65, "duration": 5, "velocity": 100}, {"time": 2874, "pitch": 67, "duration": 4, "velocity": 97}, {"time": 2880, "pitch": 70, "duration": 6, "velocity": 127}, {"time": 2886, "pitch": 67, "duration": 5, "velocity": 117}, {"time": 2892, "pitch": 65, "duration": 4, "velocity": 97}, {"time": 2898, "pitch": 60, "duration": 5, "velocity": 112}, {"time": 2904, "pitch": 65, "duration": 5, "velocity": 102}, {"time": 2916, "pitch": 65, "duration": 4, "velocity": 100}, {"time": 2922, "pitch": 67, "duration": 4, "velocity": 100}, {"time": 2928, "pitch": 70, "duration": 4, "velocity": 122}, {"time": 2934, "pitch": 67, "duration": 3, "velocity": 107}, {"time": 2940, "pitch": 65, "duration": 4, "velocity": 102}, {"time": 2946, "pitch": 60, "duration": 6, "velocity": 93}, {"time": 2952, "pitch": 63, "duration": 7, "velocity": 102}, {"time": 2964, "pitch": 65, "duration": 5, "velocity": 86}, {"time": 2970, "pitch": 63, "duration": 5, "velocity": 92}, {"time": 2976, "pitch": 60, "duration": 5, "velocity": 93}, {"time": 2982, "pitch": 58, "duration": 4, "velocity": 99}, {"time": 2988, "pitch": 72, "duration": 5, "velocity": 122}, {"time": 2994, "pitch": 70, "duration": 5, "velocity": 112}, {"time": 3000, "pitch": 67, "duration": 5, "velocity": 96}, {"time": 3006, "pitch": 65, "duration": 4, "velocity": 97}, {"time": 3012, "pitch": 67, "duration": 2, "velocity": 102}, {"time": 3014, "pitch": 70, "duration": 4, "velocity": 93}, {"time": 3018, "pitch": 67, "duration": 18, "velocity": 97}, {"time": 3042, "pitch": 67, "duration": 4, "velocity": 122}, {"time": 3048, "pitch": 65, "duration": 4, "velocity": 99}, {"time": 3054, "pitch": 67, "duration": 3, "velocity": 122}, {"time": 3060, "pitch": 65, "duration": 4, "velocity": 112}, {"time": 3066, "pitch": 67, "duration": 3, "velocity": 107}, {"time": 3072, "pitch": 70, "duration": 4, "velocity": 127}, {"time": 3078, "pitch": 67, "duration": 4, "velocity": 127}, {"time": 3084, "pitch": 65, "duration": 5, "velocity": 99}, {"time": 3090, "pitch": 60, "duration": 6, "velocity": 97}, {"time": 3096, "pitch": 65, "duration": 6, "velocity": 96}, {"time": 3108, "pitch": 65, "duration": 4, "velocity": 102}, {"time": 3114, "pitch": 67, "duration": 4, "velocity": 117}, {"time": 3120, "pitch": 70, "duration": 5, "velocity": 127}, {"time": 3126, "pitch": 67, "duration": 5, "velocity": 117}, {"time": 3132, "pitch": 65, "duration": 5, "velocity": 95}, {"time": 3138, "pitch": 60, "duration": 6, "velocity": 102}, {"time": 3144, "pitch": 63, "duration": 8, "velocity": 112}, {"time": 3156, "pitch": 65, "duration": 4, "velocity": 122}, {"time": 3162, "pitch": 67, "duration": 3, "velocity": 122}, {"time": 3168, "pitch": 70, "duration": 4, "velocity": 127}, {"time": 3174, "pitch": 67, "duration": 5, "velocity": 107}, {"time": 3180, "pitch": 65, "duration": 5, "velocity": 99}, {"time": 3188, "pitch": 67, "duration": 6, "velocity": 127}, {"time": 3198, "pitch": 70, "duration": 3, "velocity": 127}, {"time": 3204, "pitch": 60, "duration": 3, "velocity": 79}, {"time": 3206, "pitch": 63, "duration": 4, "velocity": 99}, {"time": 3210, "pitch": 60, "duration": 25, "velocity": 93}, {"time": 3240, "pitch": 65, "duration": 3, "velocity": 112}, {"time": 3242, "pitch": 67, "duration": 3, "velocity": 89}, {"time": 3246, "pitch": 65, "duration": 2, "velocity": 90}, {"time": 3248, "pitch": 60, "duration": 4, "velocity": 97}, {"time": 3252, "pitch": 65, "duration": 20, "velocity": 96}, {"time": 3288, "pitch": 63, "duration": 5, "velocity": 112}, {"time": 3294, "pitch": 62, "duration": 5, "velocity": 89}, {"time": 3300, "pitch": 60, "duration": 25, "velocity": 95}, {"time": 3336, "pitch": 55, "duration": 5, "velocity": 92}, {"time": 3342, "pitch": 58, "duration": 5, "velocity": 86}, {"time": 3348, "pitch": 60, "duration": 22, "velocity": 90}, {"time": 3379, "pitch": 60, "duration": 8, "velocity": 83}, {"time": 3386, "pitch": 70, "duration": 8, "velocity": 102}, {"time": 3393, "pitch": 67, "duration": 7, "velocity": 83}, {"time": 3400, "pitch": 65, "duration": 8, "velocity": 93}, {"time": 3410, "pitch": 65, "duration": 17, "velocity": 88}, {"time": 3430, "pitch": 67, "duration": 3, "velocity": 83}, {"time": 3467, "pitch": 58, "duration": 12, "velocity": 89}, {"time": 3477, "pitch": 55, "duration": 10, "velocity": 73}, {"time": 3486, "pitch": 63, "duration": 11, "velocity": 96}, {"time": 3496, "pitch": 62, "duration": 13, "velocity": 82}, {"time": 3509, "pitch": 60, "duration": 7, "velocity": 77}, {"time": 3516, "pitch": 62, "duration": 3, "velocity": 71}, {"time": 3519, "pitch": 60, "duration": 34, "velocity": 66}]}, {"program": 0, "is_drum": false, "name": "PIANO", "notes": [{"time": 120, "pitch": 43, "duration": 5, "velocity": 88}, {"time": 126, "pitch": 46, "duration": 5, "velocity": 81}, {"time": 132, "pitch": 48, "duration": 16, "velocity": 55}, {"time": 132, "pitch": 55, "duration": 10, "velocity": 77}, {"time": 132, "pitch": 60, "duration": 10, "velocity": 75}, {"time": 132, "pitch": 63, "duration": 10, "velocity": 70}, {"time": 144, "pitch": 60, "duration": 9, "velocity": 92}, {"time": 144, "pitch": 63, "duration": 8, "velocity": 96}, {"time": 152, "pitch": 48, "duration": 4, "velocity": 71}, {"time": 156, "pitch": 46, "duration": 13, "velocity": 93}, {"time": 156, "pitch": 53, "duration": 10, "velocity": 61}, {"time": 156, "pitch": 58, "duration": 10, "velocity": 68}, {"time": 156, "pitch": 62, "duration": 10, "velocity": 70}, {"time": 168, "pitch": 53, "duration": 1, "velocity": 38}, {"time": 168, "pitch": 58, "duration": 7, "velocity": 77}, {"time": 168, "pitch": 62, "duration": 8, "velocity": 75}, {"time": 170, "pitch": 46, "duration": 10, "velocity": 71}, {"time": 174, "pitch": 53, "duration": 3, "velocity": 74}, {"time": 180, "pitch": 43, "duration": 17, "velocity": 59}, {"time": 180, "pitch": 55, "duration": 11, "velocity": 79}, {"time": 180, "pitch": 58, "duration": 10, "velocity": 72}, {"time": 180, "pitch": 62, "duration": 10, "velocity": 72}, {"time": 186, "pitch": 50, "duration": 7, "velocity": 53}, {"time": 192, "pitch": 58, "duration": 10, "velocity": 90}, {"time": 192, "pitch": 62, "duration": 8, "velocity": 82}, {"time": 200, "pitch": 55, "duration": 15, "velocity": 75}, {"time": 204, "pitch": 36, "duration": 15, "velocity": 58}, {"time": 204, "pitch": 60, "duration": 7, "velocity": 83}, {"time": 204, "pitch": 63, "duration": 6, "velocity": 81}, {"time": 210, "pitch": 43, "duration": 10, "velocity": 55}, {"time": 216, "pitch": 60, "duration": 6, "velocity": 88}, {"time": 216, "pitch": 63, "duration": 7, "velocity": 93}, {"time": 218, "pitch": 48, "duration": 5, "velocity": 58}, {"time": 222, "pitch": 55, "duration": 2, "velocity": 77}, {"time": 228, "pitch": 44, "duration": 23, "velocity": 73}, {"time": 228, "pitch": 56, "duration": 10, "velocity": 88}, {"time": 228, "pitch": 60, "duration": 6, "velocity": 85}, {"time": 228, "pitch": 63, "duration": 7, "velocity": 63}, {"time": 236, "pitch": 60, "duration": 2, "velocity": 23}, {"time": 240, "pitch": 60, "duration": 6, "velocity": 92}, {"time": 240, "pitch": 63, "duration": 6, "velocity": 82}, {"time": 242, "pitch": 51, "duration": 5, "velocity": 69}, {"time": 246, "pitch": 56, "duration": 4, "velocity": 77}, {"time": 252, "pitch": 46, "duration": 16, "velocity": 69}, {"time": 252, "pitch": 58, "duration": 10, "velocity": 73}, {"time": 252, "pitch": 62, "duration": 10, "velocity": 75}, {"time": 264, "pitch": 53, "duration": 3, "velocity": 38}, {"time": 264, "pitch": 58, "duration": 11, "velocity": 85}, {"time": 264, "pitch": 62, "duration": 7, "velocity": 83}, {"time": 276, "pitch": 39, "duration": 16, "velocity": 69}, {"time": 276, "pitch": 55, "duration": 10, "velocity": 66}, {"time": 276, "pitch": 58, "duration": 10, "velocity": 72}, {"time": 276, "pitch": 63, "duration": 10, "velocity": 69}, {"time": 282, "pitch": 51, "duration": 6, "velocity": 56}, {"time": 288, "pitch": 58, "duration": 7, "velocity": 77}, {"time": 288, "pitch": 63, "duration": 6, "velocity": 83}, {"time": 290, "pitch": 51, "duration": 4, "velocity": 78}, {"time": 294, "pitch": 55, "duration": 4, "velocity": 71}, {"time": 300, "pitch": 43, "duration": 18, "velocity": 63}, {"time": 300, "pitch": 55, "duration": 9, "velocity": 76}, {"time": 300, "pitch": 58, "duration": 10, "velocity": 88}, {"time": 300, "pitch": 62, "duration": 8, "velocity": 82}, {"time": 306, "pitch": 50, "duration": 6, "velocity": 58}, {"time": 312, "pitch": 58, "duration": 10, "velocity": 90}, {"time": 312, "pitch": 62, "duration": 6, "velocity": 77}, {"time": 314, "pitch": 50, "duration": 3, "velocity": 61}, {"time": 318, "pitch": 55, "duration": 4, "velocity": 72}, {"time": 324, "pitch": 36, "duration": 17, "velocity": 67}, {"time": 324, "pitch": 55, "duration": 10, "velocity": 75}, {"time": 324, "pitch": 60, "duration": 10, "velocity": 85}, {"time": 324, "pitch": 63, "duration": 10, "velocity": 89}, {"time": 330, "pitch": 43, "duration": 11, "velocity": 40}, {"time": 336, "pitch": 55, "duration": 7, "velocity": 74}, {"time": 336, "pitch": 60, "duration": 5, "velocity": 90}, {"time": 336, "pitch": 63, "duration": 5, "velocity": 96}, {"time": 342, "pitch": 48, "duration": 5, "velocity": 69}, {"time": 348, "pitch": 46, "duration": 14, "velocity": 57}, {"time": 348, "pitch": 53, "duration": 11, "velocity": 73}, {"time": 348, "pitch": 58, "duration": 10, "velocity": 69}, {"time": 348, "pitch": 62, "duration": 10, "velocity": 73}, {"time": 360, "pitch": 58, "duration": 10, "velocity": 85}, {"time": 360, "pitch": 62, "duration": 10, "velocity": 86}, {"time": 362, "pitch": 46, "duration": 7, "velocity": 52}, {"time": 366, "pitch": 53, "duration": 3, "velocity": 66}, {"time": 372, "pitch": 43, "duration": 21, "velocity": 72}, {"time": 372, "pitch": 55, "duration": 10, "velocity": 89}, {"time": 372, "pitch": 58, "duration": 10, "velocity": 90}, {"time": 372, "pitch": 62, "duration": 7, "velocity": 79}, {"time": 378, "pitch": 50, "duration": 7, "velocity": 54}, {"time": 384, "pitch": 58, "duration": 10, "velocity": 96}, {"time": 384, "pitch": 62, "duration": 8, "velocity": 88}, {"time": 386, "pitch": 50, "duration": 8, "velocity": 71}, {"time": 392, "pitch": 55, "duration": 14, "velocity": 83}, {"time": 396, "pitch": 48, "duration": 4, "velocity": 73}, {"time": 396, "pitch": 60, "duration": 8, "velocity": 72}, {"time": 396, "pitch": 63, "duration": 7, "velocity": 70}, {"time": 402, "pitch": 48, "duration": 12, "velocity": 82}, {"time": 408, "pitch": 60, "duration": 6, "velocity": 93}, {"time": 408, "pitch": 63, "duration": 10, "velocity": 100}, {"time": 414, "pitch": 55, "duration": 3, "velocity": 75}, {"time": 420, "pitch": 44, "duration": 19, "velocity": 77}, {"time": 420, "pitch": 56, "duration": 10, "velocity": 86}, {"time": 420, "pitch": 60, "duration": 6, "velocity": 63}, {"time": 420, "pitch": 63, "duration": 10, "velocity": 48}, {"time": 432, "pitch": 56, "duration": 8, "velocity": 90}, {"time": 432, "pitch": 60, "duration": 8, "velocity": 107}, {"time": 432, "pitch": 63, "duration": 8, "velocity": 90}, {"time": 440, "pitch": 44, "duration": 3, "velocity": 89}, {"time": 444, "pitch": 46, "duration": 15, "velocity": 100}, {"time": 444, "pitch": 53, "duration": 10, "velocity": 76}, {"time": 444, "pitch": 58, "duration": 10, "velocity": 67}, {"time": 444, "pitch": 62, "duration": 9, "velocity": 69}, {"time": 456, "pitch": 53, "duration": 4, "velocity": 39}, {"time": 456, "pitch": 58, "duration": 11, "velocity": 83}, {"time": 456, "pitch": 62, "duration": 11, "velocity": 81}, {"time": 462, "pitch": 46, "duration": 5, "velocity": 95}, {"time": 468, "pitch": 36, "duration": 43, "velocity": 72}, {"time": 474, "pitch": 43, "duration": 41, "velocity": 43}, {"time": 480, "pitch": 63, "duration": 20, "velocity": 102}, {"time": 486, "pitch": 48, "duration": 10, "velocity": 76}, {"time": 492, "pitch": 60, "duration": 12, "velocity": 81}, {"time": 498, "pitch": 48, "duration": 12, "velocity": 50}, {"time": 504, "pitch": 63, "duration": 7, "velocity": 82}, {"time": 510, "pitch": 62, "duration": 4, "velocity": 66}, {"time": 512, "pitch": 63, "duration": 2, "velocity": 25}, {"time": 516, "pitch": 36, "duration": 43, "velocity": 68}, {"time": 522, "pitch": 43, "duration": 41, "velocity": 39}, {"time": 528, "pitch": 48, "duration": 15, "velocity": 43}, {"time": 534, "pitch": 55, "duration": 6, "velocity": 47}, {"time": 540, "pitch": 60, "duration": 24, "velocity": 58}, {"time": 546, "pitch": 48, "duration": 10, "velocity": 51}, {"time": 564, "pitch": 36, "duration": 38, "velocity": 81}, {"time": 570, "pitch": 43, "duration": 32, "velocity": 40}, {"time": 576, "pitch": 63, "duration": 19, "velocity": 73}, {"time": 582, "pitch": 60, "duration": 17, "velocity": 63}, {"time": 588, "pitch": 55, "duration": 26, "velocity": 45}, {"time": 594, "pitch": 48, "duration": 10, "velocity": 37}, {"time": 600, "pitch": 63, "duration": 12, "velocity": 82}, {"time": 606, "pitch": 60, "duration": 6, "velocity": 56}, {"time": 612, "pitch": 41, "duration": 39, "velocity": 68}, {"time": 618, "pitch": 48, "duration": 8, "velocity": 63}, {"time": 624, "pitch": 53, "duration": 24, "velocity": 66}, {"time": 630, "pitch": 48, "duration": 8, "velocity": 38}, {"time": 636, "pitch": 56, "duration": 10, "velocity": 52}, {"time": 648, "pitch": 56, "duration": 11, "velocity": 53}, {"time": 648, "pitch": 60, "duration": 11, "velocity": 77}, {"time": 654, "pitch": 53, "duration": 5, "velocity": 57}, {"time": 660, "pitch": 44, "duration": 38, "velocity": 90}, {"time": 666, "pitch": 56, "duration": 20, "velocity": 60}, {"time": 672, "pitch": 60, "duration": 17, "velocity": 74}, {"time": 678, "pitch": 63, "duration": 8, "velocity": 74}, {"time": 684, "pitch": 68, "duration": 23, "velocity": 69}, {"time": 690, "pitch": 56, "duration": 8, "velocity": 54}, {"time": 696, "pitch": 63, "duration": 13, "velocity": 68}, {"time": 702, "pitch": 60, "duration": 6, "velocity": 56}, {"time": 708, "pitch": 39, "duration": 37, "velocity": 77}, {"time": 714, "pitch": 51, "duration": 20, "velocity": 49}, {"time": 720, "pitch": 55, "duration": 18, "velocity": 69}, {"time": 726, "pitch": 58, "duration": 7, "velocity": 59}, {"time": 732, "pitch": 63, "duration": 23, "velocity": 90}, {"time": 738, "pitch": 51, "duration": 5, "velocity": 58}, {"time": 744, "pitch": 58, "duration": 11, "velocity": 72}, {"time": 750, "pitch": 55, "duration": 8, "velocity": 76}, {"time": 756, "pitch": 36, "duration": 39, "velocity": 82}, {"time": 762, "pitch": 43, "duration": 32, "velocity": 55}, {"time": 768, "pitch": 48, "duration": 15, "velocity": 85}, {"time": 774, "pitch": 55, "duration": 18, "velocity": 70}, {"time": 780, "pitch": 63, "duration": 24, "velocity": 96}, {"time": 786, "pitch": 48, "duration": 10, "velocity": 67}, {"time": 792, "pitch": 60, "duration": 11, "velocity": 81}, {"time": 798, "pitch": 55, "duration": 6, "velocity": 78}, {"time": 804, "pitch": 41, "duration": 36, "velocity": 79}, {"time": 816, "pitch": 53, "duration": 15, "velocity": 77}, {"time": 822, "pitch": 60, "duration": 18, "velocity": 86}, {"time": 828, "pitch": 68, "duration": 24, "velocity": 97}, {"time": 834, "pitch": 53, "duration": 6, "velocity": 73}, {"time": 840, "pitch": 65, "duration": 11, "velocity": 92}, {"time": 846, "pitch": 60, "duration": 7, "velocity": 72}, {"time": 852, "pitch": 44, "duration": 16, "velocity": 86}, {"time": 858, "pitch": 56, "duration": 17, "velocity": 73}, {"time": 864, "pitch": 63, "duration": 11, "velocity": 99}, {"time": 870, "pitch": 60, "duration": 6, "velocity": 78}, {"time": 876, "pitch": 46, "duration": 16, "velocity": 89}, {"time": 882, "pitch": 58, "duration": 8, "velocity": 79}, {"time": 888, "pitch": 65, "duration": 12, "velocity": 69}, {"time": 888, "pitch": 70, "duration": 13, "velocity": 79}, {"time": 894, "pitch": 62, "duration": 8, "velocity": 76}, {"time": 900, "pitch": 36, "duration": 39, "velocity": 71}, {"time": 906, "pitch": 43, "duration": 40, "velocity": 63}, {"time": 912, "pitch": 48, "duration": 14, "velocity": 86}, {"time": 918, "pitch": 55, "duration": 7, "velocity": 90}, {"time": 924, "pitch": 63, "duration": 12, "velocity": 122}, {"time": 930, "pitch": 48, "duration": 5, "velocity": 81}, {"time": 936, "pitch": 62, "duration": 7, "velocity": 92}, {"time": 942, "pitch": 63, "duration": 12, "velocity": 95}, {"time": 948, "pitch": 36, "duration": 36, "velocity": 82}, {"time": 954, "pitch": 43, "duration": 30, "velocity": 54}, {"time": 960, "pitch": 48, "duration": 14, "velocity": 77}, {"time": 966, "pitch": 55, "duration": 17, "velocity": 67}, {"time": 972, "pitch": 63, "duration": 24, "velocity": 83}, {"time": 978, "pitch": 48, "duration": 10, "velocity": 56}, {"time": 984, "pitch": 60, "duration": 12, "velocity": 82}, {"time": 990, "pitch": 55, "duration": 6, "velocity": 68}, {"time": 996, "pitch": 41, "duration": 37, "velocity": 72}, {"time": 1002, "pitch": 48, "duration": 32, "velocity": 57}, {"time": 1008, "pitch": 53, "duration": 15, "velocity": 86}, {"time": 1014, "pitch": 60, "duration": 33, "velocity": 82}, {"time": 1020, "pitch": 68, "duration": 11, "velocity": 86}, {"time": 1026, "pitch": 53, "duration": 10, "velocity": 61}, {"time": 1032, "pitch": 67, "duration": 6, "velocity": 70}, {"time": 1038, "pitch": 65, "duration": 6, "velocity": 64}, {"time": 1044, "pitch": 44, "duration": 43, "velocity": 92}, {"time": 1050, "pitch": 56, "duration": 21, "velocity": 86}, {"time": 1056, "pitch": 60, "duration": 16, "velocity": 85}, {"time": 1062, "pitch": 63, "duration": 6, "velocity": 81}, {"time": 1068, "pitch": 68, "duration": 25, "velocity": 100}, {"time": 1074, "pitch": 56, "duration": 12, "velocity": 68}, {"time": 1080, "pitch": 63, "duration": 13, "velocity": 96}, {"time": 1086, "pitch": 51, "duration": 3, "velocity": 38}, {"time": 1092, "pitch": 39, "duration": 41, "velocity": 69}, {"time": 1098, "pitch": 51, "duration": 19, "velocity": 75}, {"time": 1104, "pitch": 55, "duration": 16, "velocity": 67}, {"time": 1110, "pitch": 58, "duration": 6, "velocity": 68}, {"time": 1116, "pitch": 63, "duration": 25, "velocity": 97}, {"time": 1122, "pitch": 46, "duration": 2, "velocity": 28}, {"time": 1122, "pitch": 51, "duration": 9, "velocity": 56}, {"time": 1128, "pitch": 58, "duration": 13, "velocity": 64}, {"time": 1134, "pitch": 55, "duration": 14, "velocity": 60}, {"time": 1140, "pitch": 36, "duration": 35, "velocity": 67}, {"time": 1146, "pitch": 43, "duration": 30, "velocity": 51}, {"time": 1152, "pitch": 48, "duration": 14, "velocity": 86}, {"time": 1158, "pitch": 55, "duration": 18, "velocity": 72}, {"time": 1164, "pitch": 63, "duration": 23, "velocity": 97}, {"time": 1170, "pitch": 48, "duration": 9, "velocity": 73}, {"time": 1176, "pitch": 60, "duration": 12, "velocity": 85}, {"time": 1182, "pitch": 55, "duration": 6, "velocity": 76}, {"time": 1188, "pitch": 41, "duration": 32, "velocity": 70}, {"time": 1194, "pitch": 48, "duration": 27, "velocity": 64}, {"time": 1200, "pitch": 53, "duration": 15, "velocity": 76}, {"time": 1206, "pitch": 60, "duration": 19, "velocity": 68}, {"time": 1212, "pitch": 68, "duration": 23, "velocity": 93}, {"time": 1218, "pitch": 53, "duration": 5, "velocity": 69}, {"time": 1224, "pitch": 65, "duration": 10, "velocity": 76}, {"time": 1230, "pitch": 60, "duration": 10, "velocity": 71}, {"time": 1236, "pitch": 44, "duration": 15, "velocity": 89}, {"time": 1242, "pitch": 56, "duration": 10, "velocity": 73}, {"time": 1248, "pitch": 60, "duration": 12, "velocity": 97}, {"time": 1254, "pitch": 63, "duration": 4, "velocity": 69}, {"time": 1260, "pitch": 46, "duration": 12, "velocity": 74}, {"time": 1266, "pitch": 58, "duration": 6, "velocity": 90}, {"time": 1272, "pitch": 62, "duration": 12, "velocity": 86}, {"time": 1278, "pitch": 58, "duration": 6, "velocity": 69}, {"time": 1284, "pitch": 36, "duration": 42, "velocity": 85}, {"time": 1290, "pitch": 43, "duration": 35, "velocity": 43}, {"time": 1296, "pitch": 48, "duration": 14, "velocity": 95}, {"time": 1302, "pitch": 55, "duration": 16, "velocity": 86}, {"time": 1308, "pitch": 63, "duration": 9, "velocity": 117}, {"time": 1314, "pitch": 48, "duration": 8, "velocity": 95}, {"time": 1320, "pitch": 60, "duration": 11, "velocity": 92}, {"time": 1320, "pitch": 63, "duration": 11, "velocity": 112}, {"time": 1326, "pitch": 55, "duration": 5, "velocity": 96}, {"time": 1332, "pitch": 36, "duration": 19, "velocity": 69}, {"time": 1332, "pitch": 55, "duration": 9, "velocity": 85}, {"time": 1332, "pitch": 60, "duration": 7, "velocity": 82}, {"time": 1332, "pitch": 63, "duration": 8, "velocity": 82}, {"time": 1338, "pitch": 43, "duration": 13, "velocity": 61}, {"time": 1340, "pitch": 63, "duration": 1, "velocity": 25}, {"time": 1344, "pitch": 55, "duration": 7, "velocity": 79}, {"time": 1344, "pitch": 60, "duration": 5, "velocity": 92}, {"time": 1344, "pitch": 63, "duration": 5, "velocity": 88}, {"time": 1352, "pitch": 48, "duration": 3, "velocity": 72}, {"time": 1356, "pitch": 46, "duration": 13, "velocity": 117}, {"time": 1356, "pitch": 53, "duration": 11, "velocity": 71}, {"time": 1356, "pitch": 58, "duration": 11, "velocity": 72}, {"time": 1356, "pitch": 62, "duration": 10, "velocity": 74}, {"time": 1368, "pitch": 53, "duration": 2, "velocity": 58}, {"time": 1368, "pitch": 58, "duration": 7, "velocity": 96}, {"time": 1368, "pitch": 62, "duration": 7, "velocity": 88}, {"time": 1370, "pitch": 46, "duration": 9, "velocity": 102}, {"time": 1374, "pitch": 53, "duration": 3, "velocity": 76}, {"time": 1376, "pitch": 58, "duration": 2, "velocity": 45}, {"time": 1380, "pitch": 43, "duration": 15, "velocity": 72}, {"time": 1380, "pitch": 55, "duration": 10, "velocity": 86}, {"time": 1380, "pitch": 58, "duration": 10, "velocity": 77}, {"time": 1380, "pitch": 62, "duration": 9, "velocity": 74}, {"time": 1386, "pitch": 50, "duration": 6, "velocity": 40}, {"time": 1392, "pitch": 58, "duration": 9, "velocity": 99}, {"time": 1392, "pitch": 62, "duration": 8, "velocity": 90}, {"time": 1400, "pitch": 55, "duration": 14, "velocity": 96}, {"time": 1404, "pitch": 36, "duration": 13, "velocity": 72}, {"time": 1404, "pitch": 60, "duration": 10, "velocity": 77}, {"time": 1404, "pitch": 63, "duration": 10, "velocity": 82}, {"time": 1410, "pitch": 43, "duration": 6, "velocity": 58}, {"time": 1416, "pitch": 48, "duration": 10, "velocity": 72}, {"time": 1416, "pitch": 60, "duration": 6, "velocity": 93}, {"time": 1416, "pitch": 63, "duration": 7, "velocity": 100}, {"time": 1422, "pitch": 55, "duration": 2, "velocity": 75}, {"time": 1428, "pitch": 44, "duration": 12, "velocity": 74}, {"time": 1428, "pitch": 56, "duration": 10, "velocity": 63}, {"time": 1428, "pitch": 60, "duration": 10, "velocity": 76}, {"time": 1428, "pitch": 63, "duration": 6, "velocity": 66}, {"time": 1436, "pitch": 63, "duration": 2, "velocity": 23}, {"time": 1440, "pitch": 56, "duration": 5, "velocity": 83}, {"time": 1440, "pitch": 60, "duration": 5, "velocity": 95}, {"time": 1440, "pitch": 63, "duration": 5, "velocity": 77}, {"time": 1448, "pitch": 44, "duration": 4, "velocity": 88}, {"time": 1452, "pitch": 46, "duration": 14, "velocity": 90}, {"time": 1452, "pitch": 53, "duration": 11, "velocity": 66}, {"time": 1452, "pitch": 58, "duration": 10, "velocity": 75}, {"time": 1452, "pitch": 62, "duration": 10, "velocity": 69}, {"time": 1464, "pitch": 53, "duration": 9, "velocity": 57}, {"time": 1464, "pitch": 58, "duration": 10, "velocity": 93}, {"time": 1464, "pitch": 62, "duration": 6, "velocity": 85}, {"time": 1476, "pitch": 39, "duration": 18, "velocity": 79}, {"time": 1476, "pitch": 55, "duration": 10, "velocity": 78}, {"time": 1476, "pitch": 58, "duration": 10, "velocity": 83}, {"time": 1476, "pitch": 63, "duration": 10, "velocity": 74}, {"time": 1482, "pitch": 51, "duration": 7, "velocity": 59}, {"time": 1488, "pitch": 58, "duration": 10, "velocity": 100}, {"time": 1488, "pitch": 63, "duration": 8, "velocity": 112}, {"time": 1496, "pitch": 39, "duration": 3, "velocity": 59}, {"time": 1496, "pitch": 51, "duration": 3, "velocity": 73}, {"time": 1500, "pitch": 43, "duration": 14, "velocity": 65}, {"time": 1500, "pitch": 55, "duration": 10, "velocity": 95}, {"time": 1500, "pitch": 58, "duration": 10, "velocity": 90}, {"time": 1500, "pitch": 62, "duration": 9, "velocity": 88}, {"time": 1512, "pitch": 58, "duration": 10, "velocity": 117}, {"time": 1512, "pitch": 62, "duration": 6, "velocity": 97}, {"time": 1518, "pitch": 43, "duration": 5, "velocity": 95}, {"time": 1524, "pitch": 36, "duration": 20, "velocity": 71}, {"time": 1524, "pitch": 55, "duration": 10, "velocity": 88}, {"time": 1524, "pitch": 60, "duration": 10, "velocity": 92}, {"time": 1524, "pitch": 63, "duration": 10, "velocity": 88}, {"time": 1530, "pitch": 43, "duration": 14, "velocity": 57}, {"time": 1536, "pitch": 55, "duration": 7, "velocity": 90}, {"time": 1536, "pitch": 60, "duration": 5, "velocity": 100}, {"time": 1536, "pitch": 63, "duration": 4, "velocity": 100}, {"time": 1544, "pitch": 48, "duration": 4, "velocity": 82}, {"time": 1548, "pitch": 46, "duration": 15, "velocity": 88}, {"time": 1548, "pitch": 53, "duration": 10, "velocity": 79}, {"time": 1548, "pitch": 58, "duration": 10, "velocity": 83}, {"time": 1548, "pitch": 62, "duration": 10, "velocity": 78}, {"time": 1560, "pitch": 53, "duration": 7, "velocity": 73}, {"time": 1560, "pitch": 58, "duration": 10, "velocity": 90}, {"time": 1560, "pitch": 62, "duration": 9, "velocity": 83}, {"time": 1566, "pitch": 46, "duration": 5, "velocity": 89}, {"time": 1572, "pitch": 43, "duration": 13, "velocity": 68}, {"time": 1572, "pitch": 55, "duration": 9, "velocity": 79}, {"time": 1572, "pitch": 58, "duration": 10, "velocity": 82}, {"time": 1572, "pitch": 62, "duration": 6, "velocity": 73}, {"time": 1578, "pitch": 50, "duration": 6, "velocity": 40}, {"time": 1584, "pitch": 58, "duration": 10, "velocity": 97}, {"time": 1584, "pitch": 62, "duration": 7, "velocity": 73}, {"time": 1592, "pitch": 55, "duration": 12, "velocity": 88}, {"time": 1596, "pitch": 36, "duration": 13, "velocity": 69}, {"time": 1596, "pitch": 60, "duration": 8, "velocity": 83}, {"time": 1596, "pitch": 63, "duration": 8, "velocity": 85}, {"time": 1602, "pitch": 43, "duration": 6, "velocity": 53}, {"time": 1608, "pitch": 48, "duration": 4, "velocity": 81}, {"time": 1608, "pitch": 55, "duration": 7, "velocity": 75}, {"time": 1608, "pitch": 60, "duration": 5, "velocity": 81}, {"time": 1608, "pitch": 63, "duration": 7, "velocity": 81}, {"time": 1614, "pitch": 48, "duration": 5, "velocity": 88}, {"time": 1620, "pitch": 44, "duration": 12, "velocity": 90}, {"time": 1620, "pitch": 56, "duration": 10, "velocity": 72}, {"time": 1620, "pitch": 60, "duration": 6, "velocity": 77}, {"time": 1620, "pitch": 63, "duration": 7, "velocity": 64}, {"time": 1632, "pitch": 56, "duration": 6, "velocity": 81}, {"time": 1632, "pitch": 60, "duration": 6, "velocity": 92}, {"time": 1632, "pitch": 63, "duration": 6, "velocity": 66}, {"time": 1640, "pitch": 44, "duration": 3, "velocity": 74}, {"time": 1644, "pitch": 46, "duration": 15, "velocity": 99}, {"time": 1644, "pitch": 53, "duration": 10, "velocity": 74}, {"time": 1644, "pitch": 58, "duration": 10, "velocity": 85}, {"time": 1644, "pitch": 62, "duration": 6, "velocity": 77}, {"time": 1656, "pitch": 53, "duration": 9, "velocity": 72}, {"time": 1656, "pitch": 58, "duration": 10, "velocity": 89}, {"time": 1656, "pitch": 62, "duration": 8, "velocity": 85}, {"time": 1668, "pitch": 36, "duration": 45, "velocity": 66}, {"time": 1668, "pitch": 55, "duration": 10, "velocity": 79}, {"time": 1668, "pitch": 60, "duration": 10, "velocity": 81}, {"time": 1668, "pitch": 63, "duration": 10, "velocity": 81}, {"time": 1674, "pitch": 43, "duration": 39, "velocity": 48}, {"time": 1680, "pitch": 55, "duration": 10, "velocity": 88}, {"time": 1680, "pitch": 60, "duration": 10, "velocity": 86}, {"time": 1680, "pitch": 63, "duration": 10, "velocity": 79}, {"time": 1688, "pitch": 48, "duration": 6, "velocity": 75}, {"time": 1692, "pitch": 55, "duration": 11, "velocity": 69}, {"time": 1692, "pitch": 60, "duration": 10, "velocity": 85}, {"time": 1692, "pitch": 63, "duration": 10, "velocity": 85}, {"time": 1704, "pitch": 60, "duration": 12, "velocity": 78}, {"time": 1704, "pitch": 63, "duration": 12, "velocity": 79}, {"time": 1710, "pitch": 55, "duration": 5, "velocity": 62}, {"time": 1716, "pitch": 36, "duration": 17, "velocity": 76}, {"time": 1722, "pitch": 43, "duration": 11, "velocity": 61}, {"time": 1728, "pitch": 48, "duration": 6, "velocity": 79}, {"time": 1734, "pitch": 63, "duration": 6, "velocity": 88}, {"time": 1740, "pitch": 46, "duration": 14, "velocity": 89}, {"time": 1746, "pitch": 58, "duration": 6, "velocity": 63}, {"time": 1752, "pitch": 65, "duration": 7, "velocity": 92}, {"time": 1758, "pitch": 62, "duration": 5, "velocity": 75}, {"time": 1764, "pitch": 43, "duration": 14, "velocity": 71}, {"time": 1770, "pitch": 50, "duration": 8, "velocity": 64}, {"time": 1776, "pitch": 62, "duration": 12, "velocity": 86}, {"time": 1782, "pitch": 58, "duration": 6, "velocity": 71}, {"time": 1788, "pitch": 36, "duration": 15, "velocity": 72}, {"time": 1794, "pitch": 43, "duration": 7, "velocity": 45}, {"time": 1800, "pitch": 48, "duration": 5, "velocity": 69}, {"time": 1800, "pitch": 63, "duration": 7, "velocity": 102}, {"time": 1806, "pitch": 60, "duration": 5, "velocity": 73}, {"time": 1812, "pitch": 44, "duration": 14, "velocity": 89}, {"time": 1818, "pitch": 56, "duration": 10, "velocity": 75}, {"time": 1824, "pitch": 68, "duration": 11, "velocity": 99}, {"time": 1830, "pitch": 63, "duration": 5, "velocity": 86}, {"time": 1836, "pitch": 46, "duration": 13, "velocity": 93}, {"time": 1842, "pitch": 58, "duration": 6, "velocity": 88}, {"time": 1848, "pitch": 65, "duration": 11, "velocity": 100}, {"time": 1854, "pitch": 62, "duration": 5, "velocity": 89}, {"time": 1860, "pitch": 39, "duration": 16, "velocity": 93}, {"time": 1866, "pitch": 51, "duration": 6, "velocity": 95}, {"time": 1872, "pitch": 63, "duration": 8, "velocity": 117}, {"time": 1874, "pitch": 51, "duration": 3, "velocity": 95}, {"time": 1878, "pitch": 58, "duration": 5, "velocity": 99}, {"time": 1880, "pitch": 63, "duration": 2, "velocity": 35}, {"time": 1884, "pitch": 43, "duration": 17, "velocity": 66}, {"time": 1886, "pitch": 50, "duration": 11, "velocity": 72}, {"time": 1890, "pitch": 55, "duration": 3, "velocity": 93}, {"time": 1892, "pitch": 58, "duration": 3, "velocity": 117}, {"time": 1896, "pitch": 62, "duration": 10, "velocity": 97}, {"time": 1898, "pitch": 50, "duration": 3, "velocity": 92}, {"time": 1902, "pitch": 58, "duration": 4, "velocity": 107}, {"time": 1904, "pitch": 55, "duration": 4, "velocity": 74}, {"time": 1908, "pitch": 36, "duration": 16, "velocity": 83}, {"time": 1910, "pitch": 43, "duration": 13, "velocity": 66}, {"time": 1914, "pitch": 48, "duration": 7, "velocity": 72}, {"time": 1916, "pitch": 55, "duration": 5, "velocity": 67}, {"time": 1920, "pitch": 63, "duration": 11, "velocity": 97}, {"time": 1922, "pitch": 48, "duration": 2, "velocity": 63}, {"time": 1926, "pitch": 60, "duration": 5, "velocity": 88}, {"time": 1932, "pitch": 46, "duration": 17, "velocity": 89}, {"time": 1934, "pitch": 58, "duration": 10, "velocity": 100}, {"time": 1938, "pitch": 62, "duration": 3, "velocity": 96}, {"time": 1940, "pitch": 65, "duration": 2, "velocity": 89}, {"time": 1944, "pitch": 65, "duration": 6, "velocity": 100}, {"time": 1946, "pitch": 58, "duration": 2, "velocity": 95}, {"time": 1950, "pitch": 62, "duration": 3, "velocity": 95}, {"time": 1952, "pitch": 65, "duration": 4, "velocity": 97}, {"time": 1956, "pitch": 43, "duration": 16, "velocity": 74}, {"time": 1958, "pitch": 50, "duration": 10, "velocity": 67}, {"time": 1962, "pitch": 55, "duration": 5, "velocity": 77}, {"time": 1964, "pitch": 58, "duration": 3, "velocity": 73}, {"time": 1968, "pitch": 62, "duration": 10, "velocity": 96}, {"time": 1970, "pitch": 50, "duration": 3, "velocity": 69}, {"time": 1974, "pitch": 58, "duration": 3, "velocity": 112}, {"time": 1976, "pitch": 55, "duration": 10, "velocity": 86}, {"time": 1980, "pitch": 36, "duration": 15, "velocity": 75}, {"time": 1982, "pitch": 43, "duration": 13, "velocity": 59}, {"time": 1986, "pitch": 48, "duration": 6, "velocity": 82}, {"time": 1988, "pitch": 55, "duration": 6, "velocity": 92}, {"time": 1992, "pitch": 63, "duration": 11, "velocity": 117}, {"time": 1994, "pitch": 48, "duration": 3, "velocity": 81}, {"time": 1998, "pitch": 60, "duration": 5, "velocity": 88}, {"time": 2000, "pitch": 55, "duration": 3, "velocity": 88}, {"time": 2004, "pitch": 44, "duration": 17, "velocity": 92}, {"time": 2006, "pitch": 56, "duration": 10, "velocity": 88}, {"time": 2010, "pitch": 60, "duration": 8, "velocity": 69}, {"time": 2012, "pitch": 63, "duration": 3, "velocity": 99}, {"time": 2016, "pitch": 68, "duration": 8, "velocity": 102}, {"time": 2018, "pitch": 56, "duration": 9, "velocity": 90}, {"time": 2022, "pitch": 63, "duration": 4, "velocity": 85}, {"time": 2024, "pitch": 60, "duration": 4, "velocity": 78}, {"time": 2028, "pitch": 46, "duration": 17, "velocity": 71}, {"time": 2030, "pitch": 58, "duration": 10, "velocity": 93}, {"time": 2034, "pitch": 62, "duration": 7, "velocity": 69}, {"time": 2036, "pitch": 65, "duration": 3, "velocity": 77}, {"time": 2040, "pitch": 70, "duration": 11, "velocity": 112}, {"time": 2042, "pitch": 58, "duration": 2, "velocity": 96}, {"time": 2046, "pitch": 65, "duration": 5, "velocity": 95}, {"time": 2048, "pitch": 62, "duration": 4, "velocity": 89}, {"time": 2052, "pitch": 36, "duration": 22, "velocity": 59}, {"time": 2054, "pitch": 43, "duration": 22, "velocity": 68}, {"time": 2058, "pitch": 48, "duration": 6, "velocity": 74}, {"time": 2060, "pitch": 55, "duration": 8, "velocity": 72}, {"time": 2064, "pitch": 63, "duration": 33, "velocity": 96}, {"time": 2066, "pitch": 48, "duration": 12, "velocity": 75}, {"time": 2070, "pitch": 62, "duration": 3, "velocity": 75}, {"time": 2072, "pitch": 60, "duration": 25, "velocity": 70}, {"time": 2076, "pitch": 36, "duration": 21, "velocity": 74}, {"time": 2100, "pitch": 36, "duration": 36, "velocity": 82}, {"time": 2106, "pitch": 43, "duration": 30, "velocity": 54}, {"time": 2112, "pitch": 48, "duration": 14, "velocity": 77}, {"time": 2118, "pitch": 55, "duration": 17, "velocity": 67}, {"time": 2124, "pitch": 63, "duration": 24, "velocity": 83}, {"time": 2130, "pitch": 48, "duration": 10, "velocity": 56}, {"time": 2136, "pitch": 60, "duration": 12, "velocity": 82}, {"time": 2142, "pitch": 55, "duration": 6, "velocity": 68}, {"time": 2148, "pitch": 41, "duration": 37, "velocity": 72}, {"time": 2154, "pitch": 48, "duration": 32, "velocity": 57}, {"time": 2160, "pitch": 53, "duration": 15, "velocity": 86}, {"time": 2166, "pitch": 60, "duration": 33, "velocity": 82}, {"time": 2172, "pitch": 68, "duration": 11, "velocity": 86}, {"time": 2178, "pitch": 53, "duration": 10, "velocity": 61}, {"time": 2184, "pitch": 67, "duration": 6, "velocity": 70}, {"time": 2190, "pitch": 65, "duration": 6, "velocity": 64}, {"time": 2196, "pitch": 44, "duration": 43, "velocity": 92}, {"time": 2202, "pitch": 56, "duration": 21, "velocity": 86}, {"time": 2208, "pitch": 60, "duration": 16, "velocity": 85}, {"time": 2214, "pitch": 63, "duration": 6, "velocity": 81}, {"time": 2220, "pitch": 68, "duration": 25, "velocity": 100}, {"time": 2226, "pitch": 56, "duration": 12, "velocity": 68}, {"time": 2232, "pitch": 63, "duration": 13, "velocity": 96}, {"time": 2238, "pitch": 51, "duration": 3, "velocity": 38}, {"time": 2244, "pitch": 39, "duration": 41, "velocity": 69}, {"time": 2250, "pitch": 51, "duration": 19, "velocity": 75}, {"time": 2256, "pitch": 55, "duration": 16, "velocity": 67}, {"time": 2262, "pitch": 58, "duration": 6, "velocity": 68}, {"time": 2268, "pitch": 63, "duration": 25, "velocity": 97}, {"time": 2274, "pitch": 46, "duration": 2, "velocity": 28}, {"time": 2274, "pitch": 51, "duration": 9, "velocity": 56}, {"time": 2280, "pitch": 58, "duration": 13, "velocity": 64}, {"time": 2286, "pitch": 55, "duration": 14, "velocity": 60}, {"time": 2292, "pitch": 36, "duration": 35, "velocity": 67}, {"time": 2298, "pitch": 43, "duration": 30, "velocity": 51}, {"time": 2304, "pitch": 48, "duration": 14, "velocity": 86}, {"time": 2310, "pitch": 55, "duration": 18, "velocity": 72}, {"time": 2316, "pitch": 63, "duration": 23, "velocity": 97}, {"time": 2322, "pitch": 48, "duration": 9, "velocity": 73}, {"time": 2328, "pitch": 60, "duration": 12, "velocity": 85}, {"time": 2334, "pitch": 55, "duration": 6, "velocity": 76}, {"time": 2340, "pitch": 41, "duration": 32, "velocity": 70}, {"time": 2346, "pitch": 48, "duration": 27, "velocity": 64}, {"time": 2352, "pitch": 53, "duration": 15, "velocity": 76}, {"time": 2358, "pitch": 60, "duration": 19, "velocity": 68}, {"time": 2364, "pitch": 68, "duration": 23, "velocity": 93}, {"time": 2370, "pitch": 53, "duration": 5, "velocity": 69}, {"time": 2376, "pitch": 65, "duration": 10, "velocity": 76}, {"time": 2382, "pitch": 60, "duration": 10, "velocity": 71}, {"time": 2388, "pitch": 44, "duration": 15, "velocity": 89}, {"time": 2394, "pitch": 56, "duration": 10, "velocity": 73}, {"time": 2400, "pitch": 60, "duration": 12, "velocity": 97}, {"time": 2406, "pitch": 63, "duration": 4, "velocity": 69}, {"time": 2412, "pitch": 46, "duration": 12, "velocity": 74}, {"time": 2418, "pitch": 58, "duration": 6, "velocity": 90}, {"time": 2424, "pitch": 62, "duration": 12, "velocity": 86}, {"time": 2430, "pitch": 58, "duration": 6, "velocity": 69}, {"time": 2436, "pitch": 36, "duration": 42, "velocity": 85}, {"time": 2442, "pitch": 43, "duration": 35, "velocity": 43}, {"time": 2448, "pitch": 48, "duration": 14, "velocity": 95}, {"time": 2454, "pitch": 55, "duration": 16, "velocity": 86}, {"time": 2460, "pitch": 63, "duration": 9, "velocity": 117}, {"time": 2466, "pitch": 48, "duration": 8, "velocity": 95}, {"time": 2472, "pitch": 60, "duration": 11, "velocity": 92}, {"time": 2472, "pitch": 63, "duration": 11, "velocity": 112}, {"time": 2478, "pitch": 55, "duration": 5, "velocity": 96}, {"time": 2484, "pitch": 36, "duration": 19, "velocity": 69}, {"time": 2484, "pitch": 55, "duration": 9, "velocity": 85}, {"time": 2484, "pitch": 60, "duration": 7, "velocity": 82}, {"time": 2484, "pitch": 63, "duration": 8, "velocity": 82}, {"time": 2490, "pitch": 43, "duration": 13, "velocity": 61}, {"time": 2492, "pitch": 63, "duration": 1, "velocity": 25}, {"time": 2496, "pitch": 55, "duration": 7, "velocity": 79}, {"time": 2496, "pitch": 60, "duration": 5, "velocity": 92}, {"time": 2496, "pitch": 63, "duration": 5, "velocity": 88}, {"time": 2504, "pitch": 48, "duration": 3, "velocity": 72}, {"time": 2508, "pitch": 46, "duration": 13, "velocity": 117}, {"time": 2508, "pitch": 53, "duration": 11, "velocity": 71}, {"time": 2508, "pitch": 58, "duration": 11, "velocity": 72}, {"time": 2508, "pitch": 62, "duration": 10, "velocity": 74}, {"time": 2520, "pitch": 53, "duration": 2, "velocity": 58}, {"time": 2520, "pitch": 58, "duration": 7, "velocity": 96}, {"time": 2520, "pitch": 62, "duration": 7, "velocity": 88}, {"time": 2522, "pitch": 46, "duration": 9, "velocity": 102}, {"time": 2526, "pitch": 53, "duration": 3, "velocity": 76}, {"time": 2528, "pitch": 58, "duration": 2, "velocity": 45}, {"time": 2532, "pitch": 43, "duration": 15, "velocity": 72}, {"time": 2532, "pitch": 55, "duration": 10, "velocity": 86}, {"time": 2532, "pitch": 58, "duration": 10, "velocity": 77}, {"time": 2532, "pitch": 62, "duration": 9, "velocity": 74}, {"time": 2538, "pitch": 50, "duration": 6, "velocity": 40}, {"time": 2544, "pitch": 58, "duration": 9, "velocity": 99}, {"time": 2544, "pitch": 62, "duration": 8, "velocity": 90}, {"time": 2552, "pitch": 55, "duration": 14, "velocity": 96}, {"time": 2556, "pitch": 36, "duration": 13, "velocity": 72}, {"time": 2556, "pitch": 60, "duration": 10, "velocity": 77}, {"time": 2556, "pitch": 63, "duration": 10, "velocity": 82}, {"time": 2562, "pitch": 43, "duration": 6, "velocity": 58}, {"time": 2568, "pitch": 48, "duration": 10, "velocity": 72}, {"time": 2568, "pitch": 60, "duration": 6, "velocity": 93}, {"time": 2568, "pitch": 63, "duration": 7, "velocity": 100}, {"time": 2574, "pitch": 55, "duration": 2, "velocity": 75}, {"time": 2580, "pitch": 44, "duration": 12, "velocity": 74}, {"time": 2580, "pitch": 56, "duration": 10, "velocity": 63}, {"time": 2580, "pitch": 60, "duration": 10, "velocity": 76}, {"time": 2580, "pitch": 63, "duration": 6, "velocity": 66}, {"time": 2588, "pitch": 63, "duration": 2, "velocity": 23}, {"time": 2592, "pitch": 56, "duration": 5, "velocity": 83}, {"time": 2592, "pitch": 60, "duration": 5, "velocity": 95}, {"time": 2592, "pitch": 63, "duration": 5, "velocity": 77}, {"time": 2600, "pitch": 44, "duration": 4, "velocity": 88}, {"time": 2604, "pitch": 46, "duration": 14, "velocity": 90}, {"time": 2604, "pitch": 53, "duration": 11, "velocity": 66}, {"time": 2604, "pitch": 58, "duration": 10, "velocity": 75}, {"time": 2604, "pitch": 62, "duration": 10, "velocity": 69}, {"time": 2616, "pitch": 53, "duration": 9, "velocity": 57}, {"time": 2616, "pitch": 58, "duration": 10, "velocity": 93}, {"time": 2616, "pitch": 62, "duration": 6, "velocity": 85}, {"time": 2628, "pitch": 39, "duration": 18, "velocity": 79}, {"time": 2628, "pitch": 55, "duration": 10, "velocity": 78}, {"time": 2628, "pitch": 58, "duration": 10, "velocity": 83}, {"time": 2628, "pitch": 63, "duration": 10, "velocity": 74}, {"time": 2634, "pitch": 51, "duration": 7, "velocity": 59}, {"time": 2640, "pitch": 58, "duration": 10, "velocity": 100}, {"time": 2640, "pitch": 63, "duration": 8, "velocity": 112}, {"time": 2648, "pitch": 39, "duration": 3, "velocity": 59}, {"time": 2648, "pitch": 51, "duration": 3, "velocity": 73}, {"time": 2652, "pitch": 43, "duration": 14, "velocity": 65}, {"time": 2652, "pitch": 55, "duration": 10, "velocity": 95}, {"time": 2652, "pitch": 58, "duration": 10, "velocity": 90}, {"time": 2652, "pitch": 62, "duration": 9, "velocity": 88}, {"time": 2664, "pitch": 58, "duration": 10, "velocity": 117}, {"time": 2664, "pitch": 62, "duration": 6, "velocity": 97}, {"time": 2670, "pitch": 43, "duration": 5, "velocity": 95}, {"time": 2676, "pitch": 36, "duration": 20, "velocity": 71}, {"time": 2676, "pitch": 55, "duration": 10, "velocity": 88}, {"time": 2676, "pitch": 60, "duration": 10, "velocity": 92}, {"time": 2676, "pitch": 63, "duration": 10, "velocity": 88}, {"time": 2682, "pitch": 43, "duration": 14, "velocity": 57}, {"time": 2688, "pitch": 55, "duration": 7, "velocity": 90}, {"time": 2688, "pitch": 60, "duration": 5, "velocity": 100}, {"time": 2688, "pitch": 63, "duration": 4, "velocity": 100}, {"time": 2696, "pitch": 48, "duration": 4, "velocity": 82}, {"time": 2700, "pitch": 46, "duration": 15, "velocity": 88}, {"time": 2700, "pitch": 53, "duration": 10, "velocity": 79}, {"time": 2700, "pitch": 58, "duration": 10, "velocity": 83}, {"time": 2700, "pitch": 62, "duration": 10, "velocity": 78}, {"time": 2712, "pitch": 53, "duration": 7, "velocity": 73}, {"time": 2712, "pitch": 58, "duration": 10, "velocity": 90}, {"time": 2712, "pitch": 62, "duration": 9, "velocity": 83}, {"time": 2718, "pitch": 46, "duration": 5, "velocity": 89}, {"time": 2724, "pitch": 43, "duration": 13, "velocity": 68}, {"time": 2724, "pitch": 55, "duration": 9, "velocity": 79}, {"time": 2724, "pitch": 58, "duration": 10, "velocity": 82}, {"time": 2724, "pitch": 62, "duration": 6, "velocity": 73}, {"time": 2730, "pitch": 50, "duration": 6, "velocity": 40}, {"time": 2736, "pitch": 58, "duration": 10, "velocity": 97}, {"time": 2736, "pitch": 62, "duration": 7, "velocity": 73}, {"time": 2744, "pitch": 55, "duration": 12, "velocity": 88}, {"time": 2748, "pitch": 36, "duration": 13, "velocity": 69}, {"time": 2748, "pitch": 60, "duration": 8, "velocity": 83}, {"time": 2748, "pitch": 63, "duration": 8, "velocity": 85}, {"time": 2754, "pitch": 43, "duration": 6, "velocity": 53}, {"time": 2760, "pitch": 48, "duration": 4, "velocity": 81}, {"time": 2760, "pitch": 55, "duration": 7, "velocity": 75}, {"time": 2760, "pitch": 60, "duration": 5, "velocity": 81}, {"time": 2760, "pitch": 63, "duration": 7, "velocity": 81}, {"time": 2766, "pitch": 48, "duration": 5, "velocity": 88}, {"time": 2772, "pitch": 44, "duration": 12, "velocity": 90}, {"time": 2772, "pitch": 56, "duration": 10, "velocity": 72}, {"time": 2772, "pitch": 60, "duration": 6, "velocity": 77}, {"time": 2772, "pitch": 63, "duration": 7, "velocity": 64}, {"time": 2784, "pitch": 56, "duration": 6, "velocity": 81}, {"time": 2784, "pitch": 60, "duration": 6, "velocity": 92}, {"time": 2784, "pitch": 63, "duration": 6, "velocity": 66}, {"time": 2792, "pitch": 44, "duration": 3, "velocity": 74}, {"time": 2796, "pitch": 46, "duration": 15, "velocity": 99}, {"time": 2796, "pitch": 53, "duration": 10, "velocity": 74}, {"time": 2796, "pitch": 58, "duration": 10, "velocity": 85}, {"time": 2796, "pitch": 62, "duration": 6, "velocity": 77}, {"time": 2808, "pitch": 53, "duration": 9, "velocity": 72}, {"time": 2808, "pitch": 58, "duration": 10, "velocity": 89}, {"time": 2808, "pitch": 62, "duration": 8, "velocity": 85}, {"time": 2820, "pitch": 36, "duration": 45, "velocity": 66}, {"time": 2820, "pitch": 55, "duration": 10, "velocity": 79}, {"time": 2820, "pitch": 60, "duration": 10, "velocity": 81}, {"time": 2820, "pitch": 63, "duration": 10, "velocity": 81}, {"time": 2826, "pitch": 43, "duration": 39, "velocity": 48}, {"time": 2832, "pitch": 55, "duration": 10, "velocity": 88}, {"time": 2832, "pitch": 60, "duration": 10, "velocity": 86}, {"time": 2832, "pitch": 63, "duration": 10, "velocity": 79}, {"time": 2840, "pitch": 48, "duration": 6, "velocity": 75}, {"time": 2844, "pitch": 55, "duration": 11, "velocity": 69}, {"time": 2844, "pitch": 60, "duration": 10, "velocity": 85}, {"time": 2844, "pitch": 63, "duration": 10, "velocity": 85}, {"time": 2856, "pitch": 60, "duration": 12, "velocity": 78}, {"time": 2856, "pitch": 63, "duration": 12, "velocity": 79}, {"time": 2862, "pitch": 55, "duration": 5, "velocity": 62}, {"time": 2868, "pitch": 36, "duration": 19, "velocity": 69}, {"time": 2868, "pitch": 55, "duration": 9, "velocity": 85}, {"time": 2868, "pitch": 60, "duration": 7, "velocity": 82}, {"time": 2868, "pitch": 63, "duration": 8, "velocity": 82}, {"time": 2874, "pitch": 43, "duration": 13, "velocity": 61}, {"time": 2876, "pitch": 63, "duration": 1, "velocity": 25}, {"time": 2880, "pitch": 55, "duration": 7, "velocity": 79}, {"time": 2880, "pitch": 60, "duration": 5, "velocity": 92}, {"time": 2880, "pitch": 63, "duration": 5, "velocity": 88}, {"time": 2888, "pitch": 48, "duration": 3, "velocity": 72}, {"time": 2892, "pitch": 46, "duration": 13, "velocity": 117}, {"time": 2892, "pitch": 53, "duration": 11, "velocity": 71}, {"time": 2892, "pitch": 58, "duration": 11, "velocity": 72}, {"time": 2892, "pitch": 62, "duration": 10, "velocity": 74}, {"time": 2904, "pitch": 53, "duration": 2, "velocity": 58}, {"time": 2904, "pitch": 58, "duration": 7, "velocity": 96}, {"time": 2904, "pitch": 62, "duration": 7, "velocity": 88}, {"time": 2906, "pitch": 46, "duration": 9, "velocity": 102}, {"time": 2910, "pitch": 53, "duration": 3, "velocity": 76}, {"time": 2912, "pitch": 58, "duration": 2, "velocity": 45}, {"time": 2916, "pitch": 43, "duration": 15, "velocity": 72}, {"time": 2916, "pitch": 55, "duration": 10, "velocity": 86}, {"time": 2916, "pitch": 58, "duration": 10, "velocity": 77}, {"time": 2916, "pitch": 62, "duration": 9, "velocity": 74}, {"time": 2922, "pitch": 50, "duration": 6, "velocity": 40}, {"time": 2928, "pitch": 58, "duration": 9, "velocity": 99}, {"time": 2928, "pitch": 62, "duration": 8, "velocity": 90}, {"time": 2936, "pitch": 55, "duration": 14, "velocity": 96}, {"time": 2940, "pitch": 36, "duration": 13, "velocity": 72}, {"time": 2940, "pitch": 60, "duration": 10, "velocity": 77}, {"time": 2940, "pitch": 63, "duration": 10, "velocity": 82}, {"time": 2946, "pitch": 43, "duration": 6, "velocity": 58}, {"time": 2952, "pitch": 48, "duration": 10, "velocity": 72}, {"time": 2952, "pitch": 60, "duration": 6, "velocity": 93}, {"time": 2952, "pitch": 63, "duration": 7, "velocity": 100}, {"time": 2958, "pitch": 55, "duration": 2, "velocity": 75}, {"time": 2964, "pitch": 44, "duration": 12, "velocity": 74}, {"time": 2964, "pitch": 56, "duration": 10, "velocity": 63}, {"time": 2964, "pitch": 60, "duration": 10, "velocity": 76}, {"time": 2964, "pitch": 63, "duration": 6, "velocity": 66}, {"time": 2972, "pitch": 63, "duration": 2, "velocity": 23}, {"time": 2976, "pitch": 56, "duration": 5, "velocity": 83}, {"time": 2976, "pitch": 60, "duration": 5, "velocity": 95}, {"time": 2976, "pitch": 63, "duration": 5, "velocity": 77}, {"time": 2984, "pitch": 44, "duration": 4, "velocity": 88}, {"time": 2988, "pitch": 46, "duration": 14, "velocity": 90}, {"time": 2988, "pitch": 53, "duration": 11, "velocity": 66}, {"time": 2988, "pitch": 58, "duration": 10, "velocity": 75}, {"time": 2988, "pitch": 62, "duration": 10, "velocity": 69}, {"time": 3000, "pitch": 53, "duration": 9, "velocity": 57}, {"time": 3000, "pitch": 58, "duration": 10, "velocity": 93}, {"time": 3000, "pitch": 62, "duration": 6, "velocity": 85}, {"time": 3012, "pitch": 39, "duration": 18, "velocity": 79}, {"time": 3012, "pitch": 55, "duration": 10, "velocity": 78}, {"time": 3012, "pitch": 58, "duration": 10, "velocity": 83}, {"time": 3012, "pitch": 63, "duration": 10, "velocity": 74}, {"time": 3018, "pitch": 51, "duration": 7, "velocity": 59}, {"time": 3024, "pitch": 58, "duration": 10, "velocity": 100}, {"time": 3024, "pitch": 63, "duration": 8, "velocity": 112}, {"time": 3032, "pitch": 39, "duration": 3, "velocity": 59}, {"time": 3032, "pitch": 51, "duration": 3, "velocity": 73}, {"time": 3036, "pitch": 43, "duration": 14, "velocity": 65}, {"time": 3036, "pitch": 55, "duration": 10, "velocity": 95}, {"time": 3036, "pitch": 58, "duration": 10, "velocity": 90}, {"time": 3036, "pitch": 62, "duration": 9, "velocity": 88}, {"time": 3048, "pitch": 58, "duration": 10, "velocity": 117}, {"time": 3048, "pitch": 62, "duration": 6, "velocity": 97}, {"time": 3054, "pitch": 43, "duration": 5, "velocity": 95}, {"time": 3060, "pitch": 36, "duration": 20, "velocity": 71}, {"time": 3060, "pitch": 55, "duration": 10, "velocity": 88}, {"time": 3060, "pitch": 60, "duration": 10, "velocity": 92}, {"time": 3060, "pitch": 63, "duration": 10, "velocity": 88}, {"time": 3066, "pitch": 43, "duration": 14, "velocity": 57}, {"time": 3072, "pitch": 55, "duration": 7, "velocity": 90}, {"time": 3072, "pitch": 60, "duration": 5, "velocity": 100}, {"time": 3072, "pitch": 63, "duration": 4, "velocity": 100}, {"time": 3080, "pitch": 48, "duration": 4, "velocity": 82}, {"time": 3084, "pitch": 46, "duration": 15, "velocity": 88}, {"time": 3084, "pitch": 53, "duration": 10, "velocity": 79}, {"time": 3084, "pitch": 58, "duration": 10, "velocity": 83}, {"time": 3084, "pitch": 62, "duration": 10, "velocity": 78}, {"time": 3096, "pitch": 53, "duration": 7, "velocity": 73}, {"time": 3096, "pitch": 58, "duration": 10, "velocity": 90}, {"time": 3096, "pitch": 62, "duration": 9, "velocity": 83}, {"time": 3102, "pitch": 46, "duration": 5, "velocity": 89}, {"time": 3108, "pitch": 43, "duration": 13, "velocity": 68}, {"time": 3108, "pitch": 55, "duration": 9, "velocity": 79}, {"time": 3108, "pitch": 58, "duration": 10, "velocity": 82}, {"time": 3108, "pitch": 62, "duration": 6, "velocity": 73}, {"time": 3114, "pitch": 50, "duration": 6, "velocity": 40}, {"time": 3120, "pitch": 58, "duration": 10, "velocity": 97}, {"time": 3120, "pitch": 62, "duration": 7, "velocity": 73}, {"time": 3128, "pitch": 55, "duration": 12, "velocity": 88}, {"time": 3132, "pitch": 36, "duration": 13, "velocity": 69}, {"time": 3132, "pitch": 60, "duration": 8, "velocity": 83}, {"time": 3132, "pitch": 63, "duration": 8, "velocity": 85}, {"time": 3138, "pitch": 43, "duration": 6, "velocity": 53}, {"time": 3144, "pitch": 48, "duration": 4, "velocity": 81}, {"time": 3144, "pitch": 55, "duration": 7, "velocity": 75}, {"time": 3144, "pitch": 60, "duration": 5, "velocity": 81}, {"time": 3144, "pitch": 63, "duration": 7, "velocity": 81}, {"time": 3150, "pitch": 48, "duration": 5, "velocity": 88}, {"time": 3156, "pitch": 44, "duration": 12, "velocity": 90}, {"time": 3156, "pitch": 56, "duration": 10, "velocity": 72}, {"time": 3156, "pitch": 60, "duration": 6, "velocity": 77}, {"time": 3156, "pitch": 63, "duration": 7, "velocity": 64}, {"time": 3168, "pitch": 56, "duration": 6, "velocity": 81}, {"time": 3168, "pitch": 60, "duration": 6, "velocity": 92}, {"time": 3168, "pitch": 63, "duration": 6, "velocity": 66}, {"time": 3176, "pitch": 44, "duration": 3, "velocity": 74}, {"time": 3180, "pitch": 46, "duration": 15, "velocity": 99}, {"time": 3180, "pitch": 53, "duration": 10, "velocity": 74}, {"time": 3180, "pitch": 58, "duration": 10, "velocity": 85}, {"time": 3180, "pitch": 62, "duration": 6, "velocity": 77}, {"time": 3192, "pitch": 53, "duration": 9, "velocity": 72}, {"time": 3192, "pitch": 58, "duration": 10, "velocity": 89}, {"time": 3192, "pitch": 62, "duration": 8, "velocity": 85}, {"time": 3204, "pitch": 36, "duration": 45, "velocity": 66}, {"time": 3204, "pitch": 55, "duration": 10, "velocity": 79}, {"time": 3204, "pitch": 60, "duration": 10, "velocity": 81}, {"time": 3204, "pitch": 63, "duration": 10, "velocity": 81}, {"time": 3210, "pitch": 43, "duration": 39, "velocity": 48}, {"time": 3216, "pitch": 55, "duration": 10, "velocity": 88}, {"time": 3216, "pitch": 60, "duration": 10, "velocity": 86}, {"time": 3216, "pitch": 63, "duration": 10, "velocity": 79}, {"time": 3224, "pitch": 48, "duration": 6, "velocity": 75}, {"time": 3228, "pitch": 55, "duration": 11, "velocity": 69}, {"time": 3228, "pitch": 60, "duration": 10, "velocity": 85}, {"time": 3228, "pitch": 63, "duration": 10, "velocity": 85}, {"time": 3240, "pitch": 60, "duration": 12, "velocity": 78}, {"time": 3240, "pitch": 63, "duration": 12, "velocity": 79}, {"time": 3246, "pitch": 55, "duration": 5, "velocity": 62}, {"time": 3252, "pitch": 44, "duration": 17, "velocity": 100}, {"time": 3258, "pitch": 56, "duration": 16, "velocity": 57}, {"time": 3264, "pitch": 63, "duration": 11, "velocity": 97}, {"time": 3270, "pitch": 60, "duration": 6, "velocity": 69}, {"time": 3276, "pitch": 46, "duration": 14, "velocity": 72}, {"time": 3282, "pitch": 58, "duration": 7, "velocity": 63}, {"time": 3288, "pitch": 62, "duration": 13, "velocity": 83}, {"time": 3300, "pitch": 36, "duration": 45, "velocity": 64}, {"time": 3306, "pitch": 43, "duration": 42, "velocity": 42}, {"time": 3312, "pitch": 48, "duration": 36, "velocity": 63}, {"time": 3318, "pitch": 55, "duration": 31, "velocity": 63}, {"time": 3324, "pitch": 63, "duration": 25, "velocity": 81}, {"time": 3348, "pitch": 41, "duration": 57, "velocity": 74}, {"time": 3354, "pitch": 48, "duration": 51, "velocity": 49}, {"time": 3360, "pitch": 53, "duration": 14, "velocity": 66}, {"time": 3366, "pitch": 56, "duration": 38, "velocity": 52}, {"time": 3372, "pitch": 60, "duration": 32, "velocity": 56}, {"time": 3400, "pitch": 46, "duration": 51, "velocity": 33}, {"time": 3403, "pitch": 58, "duration": 46, "velocity": 36}, {"time": 3404, "pitch": 62, "duration": 48, "velocity": 45}, {"time": 3404, "pitch": 53, "duration": 45, "velocity": 33}, {"time": 3405, "pitch": 65, "duration": 47, "velocity": 55}, {"time": 3406, "pitch": 70, "duration": 46, "velocity": 60}, {"time": 3509, "pitch": 67, "duration": 10, "velocity": 22}, {"time": 3510, "pitch": 63, "duration": 9, "velocity": 34}, {"time": 3512, "pitch": 60, "duration": 7, "velocity": 48}, {"time": 3513, "pitch": 55, "duration": 6, "velocity": 28}, {"time": 3513, "pitch": 36, "duration": 66, "velocity": 64}, {"time": 3522, "pitch": 43, "duration": 56, "velocity": 40}, {"time": 3526, "pitch": 48, "duration": 51, "velocity": 51}, {"time": 3528, "pitch": 51, "duration": 4, "velocity": 56}, {"time": 3532, "pitch": 55, "duration": 1, "velocity": 45}, {"time": 3535, "pitch": 60, "duration": 8, "velocity": 51}, {"time": 3539, "pitch": 63, "duration": 4, "velocity": 52}, {"time": 3543, "pitch": 67, "duration": 1, "velocity": 53}, {"time": 3547, "pitch": 72, "duration": 31, "velocity": 27}, {"time": 3552, "pitch": 75, "duration": 26, "velocity": 50}, {"time": 3557, "pitch": 79, "duration": 21, "velocity": 35}, {"time": 3562, "pitch": 84, "duration": 17, "velocity": 45}], "annotations": [{"time": 468, "annotation": {"number": 64, "value": 127}, "group": "control_change"}, {"time": 514, "annotation": {"number": 64, "value": 0}, "group": "control_change"}, {"time": 516, "annotation": {"number": 64, "value": 127}, "group": "control_change"}, {"time": 561, "annotation": {"number": 64, "value": 0}, "group": "control_change"}, {"time": 563, "annotation": {"number": 64, "value": 127}, "group": "control_change"}, {"time": 610, "annotation": {"number": 64, "value": 0}, "group": "control_change"}, {"time": 612, "annotation": {"number": 64, "value": 127}, "group": "control_change"}, {"time": 754, "annotation": {"number": 64, "value": 0}, "group": "control_change"}, {"time": 756, "annotation": {"number": 64, "value": 127}, "group": "control_change"}, {"time": 945, "annotation": {"number": 64, "value": 0}, "group": "control_change"}, {"time": 947, "annotation": {"number": 64, "value": 127}, "group": "control_change"}, {"time": 1099, "annotation": {"number": 64, "value": 0}, "group": "control_change"}, {"time": 1102, "annotation": {"number": 64, "value": 127}, "group": "control_change"}, {"time": 1138, "annotation": {"number": 64, "value": 0}, "group": "control_change"}, {"time": 1140, "annotation": {"number": 64, "value": 127}, "group": "control_change"}, {"time": 1185, "annotation": {"number": 64, "value": 0}, "group": "control_change"}, {"time": 1188, "annotation": {"number": 64, "value": 127}, "group": "control_change"}, {"time": 1258, "annotation": {"number": 64, "value": 0}, "group": "control_change"}, {"time": 1260, "annotation": {"number": 64, "value": 127}, "group": "control_change"}, {"time": 1260, "annotation": {"number": 64, "value": 0}, "group": "control_change"}, {"time": 1281, "annotation": {"number": 64, "value": 0}, "group": "control_change"}, {"time": 1284, "annotation": {"number": 64, "value": 127}, "group": "control_change"}, {"time": 1329, "annotation": {"number": 64, "value": 0}, "group": "control_change"}, {"time": 1331, "annotation": {"number": 64, "value": 127}, "group": "control_change"}, {"time": 1716, "annotation": {"number": 64, "value": 127}, "group": "control_change"}, {"time": 1739, "annotation": {"number": 64, "value": 0}, "group": "control_change"}, {"time": 1740, "annotation": {"number": 64, "value": 127}, "group": "control_change"}, {"time": 1762, "annotation": {"number": 64, "value": 0}, "group": "control_change"}, {"time": 1765, "annotation": {"number": 64, "value": 127}, "group": "control_change"}, {"time": 1786, "annotation": {"number": 64, "value": 0}, "group": "control_change"}, {"time": 1788, "annotation": {"number": 64, "value": 127}, "group": "control_change"}, {"time": 1810, "annotation": {"number": 64, "value": 0}, "group": "control_change"}, {"time": 1812, "annotation": {"number": 64, "value": 127}, "group": "control_change"}, {"time": 1834, "annotation": {"number": 64, "value": 0}, "group": "control_change"}, {"time": 1836, "annotation": {"number": 64, "value": 127}, "group": "control_change"}, {"time": 1858, "annotation": {"number": 64, "value": 0}, "group": "control_change"}, {"time": 1860, "annotation": {"number": 64, "value": 127}, "group": "control_change"}, {"time": 1882, "annotation": {"number": 64, "value": 0}, "group": "control_change"}, {"time": 1884, "annotation": {"number": 64, "value": 127}, "group": "control_change"}, {"time": 1906, "annotation": {"number": 64, "value": 0}, "group": "control_change"}, {"time": 1908, "annotation": {"number": 64, "value": 127}, "group": "control_change"}, {"time": 1930, "annotation": {"number": 64, "value": 0}, "group": "control_change"}, {"time": 1931, "annotation": {"number": 64, "value": 127}, "group": "control_change"}, {"time": 1954, "annotation": {"number": 64, "value": 0}, "group": "control_change"}, {"time": 1956, "annotation": {"number": 64, "value": 127}, "group": "control_change"}, {"time": 1978, "annotation": {"number": 64, "value": 0}, "group": "control_change"}, {"time": 1980, "annotation": {"number": 64, "value": 127}, "group": "control_change"}, {"time": 2002, "annotation": {"number": 64, "value": 0}, "group": "control_change"}, {"time": 2004, "annotation": {"number": 64, "value": 127}, "group": "control_change"}, {"time": 2026, "annotation": {"number": 64, "value": 0}, "group": "control_change"}, {"time": 2027, "annotation": {"number": 64, "value": 127}, "group": "control_change"}, {"time": 2050, "annotation": {"number": 64, "value": 0}, "group": "control_change"}, {"time": 2052, "annotation": {"number": 64, "value": 127}, "group": "control_change"}, {"time": 2075, "annotation": {"number": 64, "value": 0}, "group": "control_change"}, {"time": 2251, "annotation": {"number": 64, "value": 0}, "group": "control_change"}, {"time": 2254, "annotation": {"number": 64, "value": 127}, "group": "control_change"}, {"time": 2290, "annotation": {"number": 64, "value": 0}, "group": "control_change"}, {"time": 2292, "annotation": {"number": 64, "value": 127}, "group": "control_change"}, {"time": 2337, "annotation": {"number": 64, "value": 0}, "group": "control_change"}, {"time": 2340, "annotation": {"number": 64, "value": 127}, "group": "control_change"}, {"time": 2410, "annotation": {"number": 64, "value": 0}, "group": "control_change"}, {"time": 2412, "annotation": {"number": 64, "value": 127}, "group": "control_change"}, {"time": 2412, "annotation": {"number": 64, "value": 0}, "group": "control_change"}, {"time": 2433, "annotation": {"number": 64, "value": 0}, "group": "control_change"}, {"time": 2436, "annotation": {"number": 64, "value": 127}, "group": "control_change"}, {"time": 2481, "annotation": {"number": 64, "value": 0}, "group": "control_change"}, {"time": 2483, "annotation": {"number": 64, "value": 127}, "group": "control_change"}, {"time": 3258, "annotation": {"number": 64, "value": 127}, "group": "control_change"}, {"time": 3274, "annotation": {"number": 64, "value": 0}, "group": "control_change"}, {"time": 3276, "annotation": {"number": 64, "value": 127}, "group": "control_change"}, {"time": 3298, "annotation": {"number": 64, "value": 0}, "group": "control_change"}, {"time": 3300, "annotation": {"number": 64, "value": 127}, "group": "control_change"}, {"time": 3345, "annotation": {"number": 64, "value": 0}, "group": "control_change"}, {"time": 3348, "annotation": {"number": 64, "value": 127}, "group": "control_change"}, {"time": 3401, "annotation": {"number": 64, "value": 0}, "group": "control_change"}, {"time": 3429, "annotation": {"number": 64, "value": 127}, "group": "control_change"}, {"time": 3612, "annotation": {"number": 64, "value": 0}, "group": "control_change"}, {"time": 3612, "annotation": {"number": 64, "value": 127}, "group": "control_change"}]}]}