{"metadata": {"schema_version": "0.2", "title": "None", "source_filename": "749.mid", "source_format": "midi"}, "resolution": 12, "tempos": [{"time": 0, "qpm": 127.84998934583422}], "key_signatures": [{"time": 0, "root": 0, "mode": "major"}], "time_signatures": [{"time": 0, "numerator": 1, "denominator": 4}], "tracks": [{"program": 0, "is_drum": false, "name": "MELODY", "notes": [{"time": 600, "pitch": 68, "duration": 13, "velocity": 102}, {"time": 612, "pitch": 70, "duration": 13, "velocity": 96}, {"time": 624, "pitch": 72, "duration": 12, "velocity": 100}, {"time": 636, "pitch": 70, "duration": 17, "velocity": 127}, {"time": 672, "pitch": 68, "duration": 10, "velocity": 107}, {"time": 684, "pitch": 70, "duration": 11, "velocity": 122}, {"time": 696, "pitch": 65, "duration": 10, "velocity": 96}, {"time": 708, "pitch": 63, "duration": 23, "velocity": 92}, {"time": 744, "pitch": 75, "duration": 15, "velocity": 127}, {"time": 768, "pitch": 75, "duration": 7, "velocity": 127}, {"time": 780, "pitch": 72, "duration": 9, "velocity": 127}, {"time": 792, "pitch": 68, "duration": 8, "velocity": 117}, {"time": 804, "pitch": 65, "duration": 9, "velocity": 100}, {"time": 816, "pitch": 70, "duration": 33, "velocity": 122}, {"time": 888, "pitch": 72, "duration": 18, "velocity": 112}, {"time": 912, "pitch": 72, "duration": 10, "velocity": 117}, {"time": 924, "pitch": 75, "duration": 13, "velocity": 127}, {"time": 948, "pitch": 72, "duration": 9, "velocity": 127}, {"time": 960, "pitch": 70, "duration": 10, "velocity": 122}, {"time": 972, "pitch": 72, "duration": 7, "velocity": 122}, {"time": 984, "pitch": 72, "duration": 7, "velocity": 102}, {"time": 990, "pitch": 70, "duration": 6, "velocity": 85}, {"time": 996, "pitch": 68, "duration": 25, "velocity": 99}, {"time": 1032, "pitch": 70, "duration": 18, "velocity": 127}, {"time": 1056, "pitch": 68, "duration": 8, "velocity": 117}, {"time": 1068, "pitch": 65, "duration": 9, "velocity": 99}, {"time": 1080, "pitch": 68, "duration": 7, "velocity": 112}, {"time": 1092, "pitch": 65, "duration": 11, "velocity": 112}, {"time": 1104, "pitch": 63, "duration": 34, "velocity": 112}, {"time": 1176, "pitch": 68, "duration": 13, "velocity": 102}, {"time": 1188, "pitch": 70, "duration": 13, "velocity": 96}, {"time": 1200, "pitch": 72, "duration": 12, "velocity": 100}, {"time": 1212, "pitch": 70, "duration": 17, "velocity": 127}, {"time": 1248, "pitch": 68, "duration": 10, "velocity": 107}, {"time": 1260, "pitch": 70, "duration": 11, "velocity": 122}, {"time": 1272, "pitch": 65, "duration": 10, "velocity": 96}, {"time": 1284, "pitch": 63, "duration": 23, "velocity": 92}, {"time": 1320, "pitch": 75, "duration": 15, "velocity": 127}, {"time": 1344, "pitch": 75, "duration": 7, "velocity": 127}, {"time": 1356, "pitch": 72, "duration": 9, "velocity": 127}, {"time": 1368, "pitch": 68, "duration": 8, "velocity": 117}, {"time": 1380, "pitch": 65, "duration": 9, "velocity": 100}, {"time": 1392, "pitch": 70, "duration": 33, "velocity": 122}, {"time": 1464, "pitch": 72, "duration": 18, "velocity": 112}, {"time": 1488, "pitch": 72, "duration": 10, "velocity": 117}, {"time": 1500, "pitch": 75, "duration": 13, "velocity": 127}, {"time": 1524, "pitch": 72, "duration": 9, "velocity": 127}, {"time": 1536, "pitch": 70, "duration": 10, "velocity": 122}, {"time": 1548, "pitch": 72, "duration": 7, "velocity": 122}, {"time": 1560, "pitch": 72, "duration": 7, "velocity": 102}, {"time": 1566, "pitch": 70, "duration": 6, "velocity": 85}, {"time": 1572, "pitch": 68, "duration": 25, "velocity": 99}, {"time": 1608, "pitch": 70, "duration": 12, "velocity": 127}, {"time": 1620, "pitch": 70, "duration": 6, "velocity": 122}, {"time": 1632, "pitch": 70, "duration": 6, "velocity": 117}, {"time": 1638, "pitch": 72, "duration": 6, "velocity": 93}, {"time": 1644, "pitch": 70, "duration": 7, "velocity": 122}, {"time": 1668, "pitch": 68, "duration": 6, "velocity": 117}, {"time": 1674, "pitch": 70, "duration": 6, "velocity": 97}, {"time": 1680, "pitch": 68, "duration": 27, "velocity": 112}, {"time": 1752, "pitch": 75, "duration": 20, "velocity": 127}, {"time": 1776, "pitch": 77, "duration": 12, "velocity": 127}, {"time": 1788, "pitch": 75, "duration": 23, "velocity": 117}, {"time": 1824, "pitch": 77, "duration": 18, "velocity": 127}, {"time": 1848, "pitch": 75, "duration": 6, "velocity": 127}, {"time": 1854, "pitch": 77, "duration": 6, "velocity": 97}, {"time": 1860, "pitch": 75, "duration": 24, "velocity": 117}, {"time": 1896, "pitch": 77, "duration": 17, "velocity": 127}, {"time": 1920, "pitch": 75, "duration": 9, "velocity": 127}, {"time": 1932, "pitch": 77, "duration": 10, "velocity": 127}, {"time": 1944, "pitch": 68, "duration": 14, "velocity": 112}, {"time": 1968, "pitch": 68, "duration": 12, "velocity": 122}, {"time": 1980, "pitch": 65, "duration": 12, "velocity": 97}, {"time": 1992, "pitch": 72, "duration": 11, "velocity": 117}, {"time": 2004, "pitch": 70, "duration": 25, "velocity": 122}, {"time": 2040, "pitch": 72, "duration": 18, "velocity": 127}, {"time": 2064, "pitch": 72, "duration": 8, "velocity": 127}, {"time": 2076, "pitch": 75, "duration": 12, "velocity": 127}, {"time": 2100, "pitch": 72, "duration": 8, "velocity": 112}, {"time": 2112, "pitch": 70, "duration": 8, "velocity": 127}, {"time": 2124, "pitch": 70, "duration": 9, "velocity": 102}, {"time": 2136, "pitch": 67, "duration": 12, "velocity": 112}, {"time": 2148, "pitch": 65, "duration": 8, "velocity": 100}, {"time": 2184, "pitch": 70, "duration": 8, "velocity": 127}, {"time": 2196, "pitch": 70, "duration": 8, "velocity": 100}, {"time": 2208, "pitch": 72, "duration": 8, "velocity": 122}, {"time": 2220, "pitch": 75, "duration": 9, "velocity": 122}, {"time": 2232, "pitch": 77, "duration": 10, "velocity": 107}, {"time": 2244, "pitch": 79, "duration": 7, "velocity": 127}, {"time": 2253, "pitch": 77, "duration": 5, "velocity": 97}, {"time": 2262, "pitch": 75, "duration": 38, "velocity": 107}, {"time": 2328, "pitch": 75, "duration": 20, "velocity": 127}, {"time": 2352, "pitch": 77, "duration": 12, "velocity": 127}, {"time": 2364, "pitch": 75, "duration": 23, "velocity": 117}, {"time": 2400, "pitch": 77, "duration": 7, "velocity": 127}, {"time": 2409, "pitch": 80, "duration": 14, "velocity": 117}, {"time": 2424, "pitch": 75, "duration": 6, "velocity": 127}, {"time": 2430, "pitch": 77, "duration": 6, "velocity": 97}, {"time": 2436, "pitch": 75, "duration": 24, "velocity": 117}, {"time": 2472, "pitch": 77, "duration": 12, "velocity": 127}, {"time": 2484, "pitch": 80, "duration": 7, "velocity": 122}, {"time": 2496, "pitch": 77, "duration": 11, "velocity": 112}, {"time": 2508, "pitch": 82, "duration": 11, "velocity": 117}, {"time": 2520, "pitch": 80, "duration": 8, "velocity": 127}, {"time": 2532, "pitch": 77, "duration": 8, "velocity": 127}, {"time": 2544, "pitch": 75, "duration": 9, "velocity": 112}, {"time": 2556, "pitch": 75, "duration": 8, "velocity": 127}, {"time": 2568, "pitch": 72, "duration": 11, "velocity": 117}, {"time": 2580, "pitch": 70, "duration": 25, "velocity": 122}, {"time": 2616, "pitch": 72, "duration": 18, "velocity": 127}, {"time": 2640, "pitch": 72, "duration": 8, "velocity": 127}, {"time": 2652, "pitch": 75, "duration": 24, "velocity": 127}, {"time": 2676, "pitch": 72, "duration": 8, "velocity": 112}, {"time": 2688, "pitch": 70, "duration": 8, "velocity": 127}, {"time": 2700, "pitch": 70, "duration": 9, "velocity": 102}, {"time": 2712, "pitch": 67, "duration": 12, "velocity": 112}, {"time": 2724, "pitch": 65, "duration": 24, "velocity": 100}, {"time": 2760, "pitch": 70, "duration": 8, "velocity": 127}, {"time": 2772, "pitch": 70, "duration": 8, "velocity": 100}, {"time": 2784, "pitch": 75, "duration": 9, "velocity": 127}, {"time": 2796, "pitch": 70, "duration": 19, "velocity": 107}, {"time": 2820, "pitch": 68, "duration": 6, "velocity": 102}, {"time": 2826, "pitch": 70, "duration": 5, "velocity": 88}, {"time": 2832, "pitch": 68, "duration": 44, "velocity": 102}, {"time": 3192, "pitch": 68, "duration": 13, "velocity": 102}, {"time": 3204, "pitch": 70, "duration": 13, "velocity": 96}, {"time": 3216, "pitch": 72, "duration": 12, "velocity": 100}, {"time": 3228, "pitch": 70, "duration": 17, "velocity": 127}, {"time": 3264, "pitch": 68, "duration": 10, "velocity": 107}, {"time": 3276, "pitch": 70, "duration": 11, "velocity": 122}, {"time": 3288, "pitch": 65, "duration": 10, "velocity": 96}, {"time": 3300, "pitch": 63, "duration": 23, "velocity": 92}, {"time": 3336, "pitch": 75, "duration": 15, "velocity": 127}, {"time": 3360, "pitch": 75, "duration": 7, "velocity": 127}, {"time": 3372, "pitch": 72, "duration": 9, "velocity": 127}, {"time": 3384, "pitch": 68, "duration": 8, "velocity": 117}, {"time": 3396, "pitch": 65, "duration": 9, "velocity": 100}, {"time": 3408, "pitch": 70, "duration": 33, "velocity": 122}, {"time": 3480, "pitch": 72, "duration": 18, "velocity": 112}, {"time": 3504, "pitch": 72, "duration": 10, "velocity": 117}, {"time": 3516, "pitch": 75, "duration": 13, "velocity": 127}, {"time": 3540, "pitch": 72, "duration": 9, "velocity": 127}, {"time": 3552, "pitch": 70, "duration": 10, "velocity": 122}, {"time": 3564, "pitch": 72, "duration": 7, "velocity": 122}, {"time": 3576, "pitch": 72, "duration": 7, "velocity": 102}, {"time": 3582, "pitch": 70, "duration": 6, "velocity": 85}, {"time": 3588, "pitch": 68, "duration": 25, "velocity": 99}, {"time": 3624, "pitch": 70, "duration": 18, "velocity": 127}, {"time": 3648, "pitch": 68, "duration": 8, "velocity": 117}, {"time": 3660, "pitch": 65, "duration": 9, "velocity": 99}, {"time": 3672, "pitch": 68, "duration": 7, "velocity": 112}, {"time": 3684, "pitch": 65, "duration": 11, "velocity": 112}, {"time": 3696, "pitch": 63, "duration": 34, "velocity": 112}, {"time": 3768, "pitch": 68, "duration": 13, "velocity": 102}, {"time": 3780, "pitch": 70, "duration": 13, "velocity": 96}, {"time": 3792, "pitch": 72, "duration": 12, "velocity": 100}, {"time": 3804, "pitch": 70, "duration": 17, "velocity": 127}, {"time": 3840, "pitch": 68, "duration": 10, "velocity": 107}, {"time": 3852, "pitch": 70, "duration": 11, "velocity": 122}, {"time": 3864, "pitch": 65, "duration": 10, "velocity": 96}, {"time": 3876, "pitch": 63, "duration": 23, "velocity": 92}, {"time": 3912, "pitch": 75, "duration": 15, "velocity": 127}, {"time": 3936, "pitch": 75, "duration": 7, "velocity": 127}, {"time": 3948, "pitch": 72, "duration": 9, "velocity": 127}, {"time": 3960, "pitch": 68, "duration": 8, "velocity": 117}, {"time": 3972, "pitch": 65, "duration": 9, "velocity": 100}, {"time": 3984, "pitch": 70, "duration": 33, "velocity": 122}, {"time": 4056, "pitch": 72, "duration": 18, "velocity": 112}, {"time": 4080, "pitch": 72, "duration": 10, "velocity": 117}, {"time": 4092, "pitch": 75, "duration": 13, "velocity": 127}, {"time": 4116, "pitch": 72, "duration": 9, "velocity": 127}, {"time": 4128, "pitch": 70, "duration": 10, "velocity": 122}, {"time": 4140, "pitch": 72, "duration": 7, "velocity": 122}, {"time": 4152, "pitch": 72, "duration": 7, "velocity": 102}, {"time": 4158, "pitch": 70, "duration": 6, "velocity": 85}, {"time": 4164, "pitch": 68, "duration": 25, "velocity": 99}, {"time": 4200, "pitch": 70, "duration": 12, "velocity": 127}, {"time": 4212, "pitch": 70, "duration": 6, "velocity": 122}, {"time": 4224, "pitch": 70, "duration": 6, "velocity": 117}, {"time": 4230, "pitch": 72, "duration": 6, "velocity": 93}, {"time": 4236, "pitch": 70, "duration": 7, "velocity": 122}, {"time": 4260, "pitch": 68, "duration": 6, "velocity": 117}, {"time": 4266, "pitch": 70, "duration": 6, "velocity": 97}, {"time": 4272, "pitch": 68, "duration": 27, "velocity": 112}, {"time": 4344, "pitch": 75, "duration": 20, "velocity": 127}, {"time": 4368, "pitch": 77, "duration": 12, "velocity": 127}, {"time": 4380, "pitch": 75, "duration": 23, "velocity": 117}, {"time": 4416, "pitch": 77, "duration": 18, "velocity": 127}, {"time": 4440, "pitch": 75, "duration": 6, "velocity": 127}, {"time": 4446, "pitch": 77, "duration": 6, "velocity": 97}, {"time": 4452, "pitch": 75, "duration": 24, "velocity": 117}, {"time": 4488, "pitch": 77, "duration": 17, "velocity": 127}, {"time": 4512, "pitch": 75, "duration": 9, "velocity": 127}, {"time": 4524, "pitch": 77, "duration": 10, "velocity": 127}, {"time": 4536, "pitch": 68, "duration": 14, "velocity": 112}, {"time": 4560, "pitch": 68, "duration": 12, "velocity": 122}, {"time": 4572, "pitch": 65, "duration": 12, "velocity": 97}, {"time": 4584, "pitch": 72, "duration": 11, "velocity": 117}, {"time": 4596, "pitch": 70, "duration": 25, "velocity": 122}, {"time": 4632, "pitch": 72, "duration": 18, "velocity": 127}, {"time": 4656, "pitch": 72, "duration": 8, "velocity": 127}, {"time": 4668, "pitch": 75, "duration": 12, "velocity": 127}, {"time": 4692, "pitch": 72, "duration": 8, "velocity": 112}, {"time": 4704, "pitch": 70, "duration": 8, "velocity": 127}, {"time": 4716, "pitch": 70, "duration": 9, "velocity": 102}, {"time": 4728, "pitch": 67, "duration": 12, "velocity": 112}, {"time": 4740, "pitch": 65, "duration": 8, "velocity": 100}, {"time": 4776, "pitch": 70, "duration": 8, "velocity": 127}, {"time": 4788, "pitch": 70, "duration": 8, "velocity": 100}, {"time": 4800, "pitch": 72, "duration": 8, "velocity": 122}, {"time": 4812, "pitch": 75, "duration": 9, "velocity": 122}, {"time": 4824, "pitch": 77, "duration": 10, "velocity": 107}, {"time": 4836, "pitch": 79, "duration": 7, "velocity": 127}, {"time": 4845, "pitch": 77, "duration": 5, "velocity": 97}, {"time": 4854, "pitch": 75, "duration": 38, "velocity": 107}, {"time": 4920, "pitch": 75, "duration": 20, "velocity": 127}, {"time": 4944, "pitch": 77, "duration": 12, "velocity": 127}, {"time": 4956, "pitch": 75, "duration": 23, "velocity": 117}, {"time": 4992, "pitch": 77, "duration": 7, "velocity": 127}, {"time": 5001, "pitch": 80, "duration": 14, "velocity": 117}, {"time": 5016, "pitch": 75, "duration": 6, "velocity": 127}, {"time": 5022, "pitch": 77, "duration": 6, "velocity": 97}, {"time": 5028, "pitch": 75, "duration": 24, "velocity": 117}, {"time": 5064, "pitch": 77, "duration": 12, "velocity": 127}, {"time": 5076, "pitch": 80, "duration": 7, "velocity": 122}, {"time": 5088, "pitch": 77, "duration": 11, "velocity": 112}, {"time": 5100, "pitch": 82, "duration": 11, "velocity": 117}, {"time": 5112, "pitch": 80, "duration": 8, "velocity": 127}, {"time": 5124, "pitch": 77, "duration": 8, "velocity": 127}, {"time": 5136, "pitch": 75, "duration": 9, "velocity": 112}, {"time": 5148, "pitch": 75, "duration": 8, "velocity": 127}, {"time": 5160, "pitch": 72, "duration": 11, "velocity": 117}, {"time": 5172, "pitch": 70, "duration": 25, "velocity": 122}, {"time": 5208, "pitch": 72, "duration": 18, "velocity": 127}, {"time": 5232, "pitch": 72, "duration": 8, "velocity": 127}, {"time": 5244, "pitch": 75, "duration": 24, "velocity": 127}, {"time": 5268, "pitch": 72, "duration": 8, "velocity": 112}, {"time": 5280, "pitch": 70, "duration": 8, "velocity": 127}, {"time": 5292, "pitch": 70, "duration": 9, "velocity": 102}, {"time": 5304, "pitch": 67, "duration": 12, "velocity": 112}, {"time": 5316, "pitch": 65, "duration": 24, "velocity": 100}, {"time": 5352, "pitch": 70, "duration": 8, "velocity": 127}, {"time": 5364, "pitch": 70, "duration": 8, "velocity": 100}, {"time": 5376, "pitch": 75, "duration": 9, "velocity": 127}, {"time": 5388, "pitch": 70, "duration": 19, "velocity": 107}, {"time": 5412, "pitch": 68, "duration": 6, "velocity": 102}, {"time": 5418, "pitch": 70, "duration": 5, "velocity": 88}, {"time": 5424, "pitch": 68, "duration": 44, "velocity": 102}, {"time": 5496, "pitch": 72, "duration": 18, "velocity": 127}, {"time": 5520, "pitch": 72, "duration": 8, "velocity": 127}, {"time": 5532, "pitch": 75, "duration": 24, "velocity": 127}, {"time": 5556, "pitch": 72, "duration": 8, "velocity": 112}, {"time": 5568, "pitch": 70, "duration": 8, "velocity": 127}, {"time": 5580, "pitch": 70, "duration": 9, "velocity": 102}, {"time": 5592, "pitch": 67, "duration": 12, "velocity": 112}, {"time": 5604, "pitch": 65, "duration": 24, "velocity": 100}, {"time": 5641, "pitch": 70, "duration": 3, "velocity": 86}, {"time": 5647, "pitch": 70, "duration": 2, "velocity": 90}, {"time": 5653, "pitch": 70, "duration": 13, "velocity": 107}, {"time": 5672, "pitch": 75, "duration": 8, "velocity": 112}, {"time": 5687, "pitch": 77, "duration": 22, "velocity": 127}, {"time": 5704, "pitch": 80, "duration": 9, "velocity": 117}, {"time": 5712, "pitch": 82, "duration": 50, "velocity": 117}, {"time": 5759, "pitch": 84, "duration": 74, "velocity": 127}, {"time": 5856, "pitch": 80, "duration": 14, "velocity": 112}, {"time": 5869, "pitch": 82, "duration": 56, "velocity": 102}, {"time": 5924, "pitch": 80, "duration": 135, "velocity": 122}]}, {"program": 0, "is_drum": false, "name": "PIANO", "notes": [{"time": 24, "pitch": 44, "duration": 69, "velocity": 78}, {"time": 36, "pitch": 51, "duration": 57, "velocity": 48}, {"time": 48, "pitch": 56, "duration": 41, "velocity": 75}, {"time": 60, "pitch": 60, "duration": 36, "velocity": 59}, {"time": 60, "pitch": 63, "duration": 35, "velocity": 70}, {"time": 60, "pitch": 68, "duration": 36, "velocity": 66}, {"time": 96, "pitch": 49, "duration": 56, "velocity": 77}, {"time": 108, "pitch": 56, "duration": 59, "velocity": 54}, {"time": 120, "pitch": 61, "duration": 47, "velocity": 63}, {"time": 132, "pitch": 65, "duration": 36, "velocity": 71}, {"time": 168, "pitch": 44, "duration": 55, "velocity": 78}, {"time": 180, "pitch": 51, "duration": 41, "velocity": 58}, {"time": 192, "pitch": 56, "duration": 25, "velocity": 89}, {"time": 204, "pitch": 60, "duration": 42, "velocity": 56}, {"time": 204, "pitch": 63, "duration": 42, "velocity": 68}, {"time": 204, "pitch": 68, "duration": 40, "velocity": 68}, {"time": 240, "pitch": 39, "duration": 60, "velocity": 89}, {"time": 252, "pitch": 46, "duration": 48, "velocity": 67}, {"time": 264, "pitch": 51, "duration": 40, "velocity": 92}, {"time": 276, "pitch": 55, "duration": 1, "velocity": 47}, {"time": 276, "pitch": 58, "duration": 14, "velocity": 75}, {"time": 276, "pitch": 63, "duration": 33, "velocity": 72}, {"time": 288, "pitch": 55, "duration": 15, "velocity": 69}, {"time": 300, "pitch": 58, "duration": 9, "velocity": 75}, {"time": 312, "pitch": 44, "duration": 32, "velocity": 82}, {"time": 318, "pitch": 51, "duration": 30, "velocity": 86}, {"time": 324, "pitch": 56, "duration": 13, "velocity": 97}, {"time": 330, "pitch": 60, "duration": 6, "velocity": 93}, {"time": 336, "pitch": 63, "duration": 10, "velocity": 102}, {"time": 342, "pitch": 60, "duration": 7, "velocity": 93}, {"time": 348, "pitch": 44, "duration": 21, "velocity": 89}, {"time": 354, "pitch": 51, "duration": 13, "velocity": 81}, {"time": 360, "pitch": 56, "duration": 10, "velocity": 81}, {"time": 366, "pitch": 63, "duration": 16, "velocity": 97}, {"time": 372, "pitch": 60, "duration": 9, "velocity": 88}, {"time": 378, "pitch": 56, "duration": 8, "velocity": 82}, {"time": 384, "pitch": 37, "duration": 32, "velocity": 69}, {"time": 390, "pitch": 44, "duration": 30, "velocity": 67}, {"time": 396, "pitch": 49, "duration": 11, "velocity": 86}, {"time": 402, "pitch": 56, "duration": 21, "velocity": 85}, {"time": 408, "pitch": 65, "duration": 16, "velocity": 96}, {"time": 414, "pitch": 61, "duration": 20, "velocity": 97}, {"time": 420, "pitch": 37, "duration": 21, "velocity": 83}, {"time": 426, "pitch": 44, "duration": 15, "velocity": 82}, {"time": 432, "pitch": 49, "duration": 14, "velocity": 78}, {"time": 438, "pitch": 56, "duration": 17, "velocity": 89}, {"time": 444, "pitch": 65, "duration": 14, "velocity": 90}, {"time": 450, "pitch": 61, "duration": 5, "velocity": 99}, {"time": 456, "pitch": 46, "duration": 25, "velocity": 83}, {"time": 462, "pitch": 50, "duration": 18, "velocity": 93}, {"time": 468, "pitch": 53, "duration": 12, "velocity": 85}, {"time": 474, "pitch": 58, "duration": 21, "velocity": 95}, {"time": 480, "pitch": 65, "duration": 11, "velocity": 100}, {"time": 486, "pitch": 62, "duration": 6, "velocity": 112}, {"time": 492, "pitch": 39, "duration": 22, "velocity": 78}, {"time": 498, "pitch": 46, "duration": 17, "velocity": 85}, {"time": 504, "pitch": 51, "duration": 15, "velocity": 86}, {"time": 510, "pitch": 58, "duration": 18, "velocity": 89}, {"time": 516, "pitch": 67, "duration": 12, "velocity": 107}, {"time": 522, "pitch": 63, "duration": 6, "velocity": 82}, {"time": 528, "pitch": 44, "duration": 33, "velocity": 67}, {"time": 534, "pitch": 51, "duration": 30, "velocity": 65}, {"time": 540, "pitch": 56, "duration": 9, "velocity": 77}, {"time": 546, "pitch": 60, "duration": 7, "velocity": 76}, {"time": 552, "pitch": 63, "duration": 48, "velocity": 88}, {"time": 558, "pitch": 60, "duration": 42, "velocity": 47}, {"time": 564, "pitch": 44, "duration": 31, "velocity": 76}, {"time": 576, "pitch": 51, "duration": 23, "velocity": 40}, {"time": 588, "pitch": 56, "duration": 11, "velocity": 36}, {"time": 600, "pitch": 44, "duration": 32, "velocity": 90}, {"time": 612, "pitch": 51, "duration": 19, "velocity": 59}, {"time": 624, "pitch": 63, "duration": 13, "velocity": 86}, {"time": 636, "pitch": 39, "duration": 23, "velocity": 79}, {"time": 648, "pitch": 46, "duration": 14, "velocity": 47}, {"time": 660, "pitch": 67, "duration": 14, "velocity": 93}, {"time": 672, "pitch": 44, "duration": 25, "velocity": 61}, {"time": 684, "pitch": 51, "duration": 15, "velocity": 60}, {"time": 696, "pitch": 63, "duration": 12, "velocity": 85}, {"time": 708, "pitch": 48, "duration": 27, "velocity": 69}, {"time": 720, "pitch": 55, "duration": 13, "velocity": 66}, {"time": 732, "pitch": 67, "duration": 14, "velocity": 95}, {"time": 744, "pitch": 44, "duration": 26, "velocity": 68}, {"time": 756, "pitch": 51, "duration": 14, "velocity": 63}, {"time": 768, "pitch": 60, "duration": 12, "velocity": 64}, {"time": 768, "pitch": 63, "duration": 13, "velocity": 69}, {"time": 780, "pitch": 37, "duration": 33, "velocity": 72}, {"time": 789, "pitch": 44, "duration": 25, "velocity": 60}, {"time": 804, "pitch": 65, "duration": 13, "velocity": 86}, {"time": 816, "pitch": 39, "duration": 32, "velocity": 73}, {"time": 828, "pitch": 46, "duration": 24, "velocity": 58}, {"time": 840, "pitch": 51, "duration": 25, "velocity": 39}, {"time": 840, "pitch": 63, "duration": 48, "velocity": 69}, {"time": 852, "pitch": 39, "duration": 25, "velocity": 64}, {"time": 864, "pitch": 46, "duration": 14, "velocity": 76}, {"time": 876, "pitch": 58, "duration": 13, "velocity": 90}, {"time": 888, "pitch": 44, "duration": 34, "velocity": 76}, {"time": 900, "pitch": 51, "duration": 24, "velocity": 75}, {"time": 912, "pitch": 63, "duration": 30, "velocity": 93}, {"time": 924, "pitch": 44, "duration": 26, "velocity": 74}, {"time": 936, "pitch": 51, "duration": 17, "velocity": 75}, {"time": 948, "pitch": 63, "duration": 13, "velocity": 97}, {"time": 954, "pitch": 60, "duration": 7, "velocity": 69}, {"time": 960, "pitch": 48, "duration": 25, "velocity": 70}, {"time": 972, "pitch": 55, "duration": 12, "velocity": 65}, {"time": 984, "pitch": 63, "duration": 20, "velocity": 72}, {"time": 984, "pitch": 67, "duration": 13, "velocity": 83}, {"time": 996, "pitch": 41, "duration": 24, "velocity": 72}, {"time": 1008, "pitch": 48, "duration": 14, "velocity": 58}, {"time": 1020, "pitch": 65, "duration": 13, "velocity": 85}, {"time": 1026, "pitch": 60, "duration": 8, "velocity": 53}, {"time": 1032, "pitch": 46, "duration": 32, "velocity": 68}, {"time": 1044, "pitch": 53, "duration": 22, "velocity": 61}, {"time": 1056, "pitch": 61, "duration": 11, "velocity": 66}, {"time": 1056, "pitch": 65, "duration": 14, "velocity": 79}, {"time": 1068, "pitch": 50, "duration": 25, "velocity": 77}, {"time": 1080, "pitch": 58, "duration": 27, "velocity": 76}, {"time": 1092, "pitch": 65, "duration": 14, "velocity": 86}, {"time": 1104, "pitch": 39, "duration": 34, "velocity": 66}, {"time": 1110, "pitch": 46, "duration": 31, "velocity": 52}, {"time": 1116, "pitch": 51, "duration": 9, "velocity": 71}, {"time": 1122, "pitch": 55, "duration": 7, "velocity": 62}, {"time": 1128, "pitch": 58, "duration": 13, "velocity": 86}, {"time": 1134, "pitch": 55, "duration": 7, "velocity": 77}, {"time": 1140, "pitch": 39, "duration": 22, "velocity": 82}, {"time": 1146, "pitch": 46, "duration": 17, "velocity": 67}, {"time": 1152, "pitch": 51, "duration": 13, "velocity": 92}, {"time": 1158, "pitch": 58, "duration": 18, "velocity": 97}, {"time": 1164, "pitch": 67, "duration": 12, "velocity": 102}, {"time": 1170, "pitch": 63, "duration": 6, "velocity": 78}, {"time": 1176, "pitch": 44, "duration": 32, "velocity": 86}, {"time": 1188, "pitch": 51, "duration": 24, "velocity": 67}, {"time": 1200, "pitch": 60, "duration": 12, "velocity": 73}, {"time": 1200, "pitch": 63, "duration": 12, "velocity": 77}, {"time": 1212, "pitch": 39, "duration": 24, "velocity": 72}, {"time": 1224, "pitch": 46, "duration": 12, "velocity": 53}, {"time": 1236, "pitch": 58, "duration": 12, "velocity": 86}, {"time": 1248, "pitch": 49, "duration": 17, "velocity": 72}, {"time": 1260, "pitch": 56, "duration": 17, "velocity": 79}, {"time": 1272, "pitch": 65, "duration": 12, "velocity": 82}, {"time": 1284, "pitch": 48, "duration": 27, "velocity": 71}, {"time": 1296, "pitch": 55, "duration": 14, "velocity": 56}, {"time": 1308, "pitch": 63, "duration": 12, "velocity": 76}, {"time": 1308, "pitch": 67, "duration": 12, "velocity": 68}, {"time": 1320, "pitch": 44, "duration": 33, "velocity": 66}, {"time": 1332, "pitch": 51, "duration": 22, "velocity": 58}, {"time": 1344, "pitch": 63, "duration": 11, "velocity": 92}, {"time": 1356, "pitch": 44, "duration": 24, "velocity": 85}, {"time": 1368, "pitch": 51, "duration": 12, "velocity": 73}, {"time": 1380, "pitch": 60, "duration": 12, "velocity": 86}, {"time": 1392, "pitch": 39, "duration": 60, "velocity": 76}, {"time": 1404, "pitch": 46, "duration": 48, "velocity": 61}, {"time": 1416, "pitch": 51, "duration": 16, "velocity": 89}, {"time": 1428, "pitch": 58, "duration": 37, "velocity": 72}, {"time": 1428, "pitch": 63, "duration": 21, "velocity": 75}, {"time": 1440, "pitch": 51, "duration": 16, "velocity": 83}, {"time": 1452, "pitch": 67, "duration": 13, "velocity": 95}, {"time": 1464, "pitch": 44, "duration": 59, "velocity": 79}, {"time": 1476, "pitch": 51, "duration": 29, "velocity": 66}, {"time": 1488, "pitch": 63, "duration": 48, "velocity": 89}, {"time": 1500, "pitch": 60, "duration": 36, "velocity": 75}, {"time": 1512, "pitch": 51, "duration": 14, "velocity": 52}, {"time": 1524, "pitch": 56, "duration": 11, "velocity": 75}, {"time": 1536, "pitch": 48, "duration": 25, "velocity": 72}, {"time": 1548, "pitch": 55, "duration": 12, "velocity": 59}, {"time": 1560, "pitch": 63, "duration": 21, "velocity": 65}, {"time": 1572, "pitch": 41, "duration": 23, "velocity": 68}, {"time": 1584, "pitch": 48, "duration": 13, "velocity": 68}, {"time": 1596, "pitch": 68, "duration": 13, "velocity": 89}, {"time": 1608, "pitch": 46, "duration": 35, "velocity": 72}, {"time": 1620, "pitch": 53, "duration": 23, "velocity": 55}, {"time": 1632, "pitch": 65, "duration": 12, "velocity": 85}, {"time": 1644, "pitch": 39, "duration": 22, "velocity": 86}, {"time": 1656, "pitch": 46, "duration": 12, "velocity": 76}, {"time": 1668, "pitch": 63, "duration": 12, "velocity": 78}, {"time": 1680, "pitch": 44, "duration": 34, "velocity": 71}, {"time": 1692, "pitch": 51, "duration": 25, "velocity": 59}, {"time": 1704, "pitch": 56, "duration": 10, "velocity": 85}, {"time": 1716, "pitch": 44, "duration": 31, "velocity": 83}, {"time": 1722, "pitch": 51, "duration": 28, "velocity": 97}, {"time": 1728, "pitch": 56, "duration": 6, "velocity": 99}, {"time": 1734, "pitch": 58, "duration": 9, "velocity": 102}, {"time": 1740, "pitch": 60, "duration": 10, "velocity": 112}, {"time": 1746, "pitch": 63, "duration": 7, "velocity": 102}, {"time": 1752, "pitch": 44, "duration": 31, "velocity": 93}, {"time": 1758, "pitch": 51, "duration": 30, "velocity": 93}, {"time": 1764, "pitch": 56, "duration": 8, "velocity": 100}, {"time": 1770, "pitch": 60, "duration": 8, "velocity": 86}, {"time": 1776, "pitch": 63, "duration": 26, "velocity": 99}, {"time": 1782, "pitch": 60, "duration": 26, "velocity": 81}, {"time": 1788, "pitch": 44, "duration": 23, "velocity": 78}, {"time": 1794, "pitch": 51, "duration": 16, "velocity": 88}, {"time": 1800, "pitch": 56, "duration": 6, "velocity": 86}, {"time": 1806, "pitch": 68, "duration": 18, "velocity": 92}, {"time": 1812, "pitch": 63, "duration": 12, "velocity": 95}, {"time": 1818, "pitch": 60, "duration": 6, "velocity": 86}, {"time": 1824, "pitch": 37, "duration": 22, "velocity": 83}, {"time": 1830, "pitch": 44, "duration": 16, "velocity": 76}, {"time": 1836, "pitch": 49, "duration": 15, "velocity": 88}, {"time": 1842, "pitch": 56, "duration": 14, "velocity": 86}, {"time": 1848, "pitch": 65, "duration": 11, "velocity": 96}, {"time": 1854, "pitch": 61, "duration": 6, "velocity": 81}, {"time": 1857, "pitch": 44, "duration": 22, "velocity": 68}, {"time": 1866, "pitch": 51, "duration": 14, "velocity": 53}, {"time": 1872, "pitch": 56, "duration": 7, "velocity": 83}, {"time": 1878, "pitch": 60, "duration": 7, "velocity": 95}, {"time": 1884, "pitch": 63, "duration": 11, "velocity": 90}, {"time": 1890, "pitch": 60, "duration": 5, "velocity": 83}, {"time": 1896, "pitch": 37, "duration": 33, "velocity": 76}, {"time": 1902, "pitch": 44, "duration": 30, "velocity": 93}, {"time": 1908, "pitch": 49, "duration": 11, "velocity": 78}, {"time": 1914, "pitch": 56, "duration": 18, "velocity": 95}, {"time": 1920, "pitch": 65, "duration": 13, "velocity": 92}, {"time": 1926, "pitch": 61, "duration": 9, "velocity": 95}, {"time": 1932, "pitch": 37, "duration": 23, "velocity": 83}, {"time": 1938, "pitch": 44, "duration": 17, "velocity": 89}, {"time": 1944, "pitch": 49, "duration": 14, "velocity": 93}, {"time": 1950, "pitch": 56, "duration": 11, "velocity": 96}, {"time": 1956, "pitch": 65, "duration": 12, "velocity": 96}, {"time": 1962, "pitch": 61, "duration": 4, "velocity": 95}, {"time": 1965, "pitch": 46, "duration": 24, "velocity": 77}, {"time": 1971, "pitch": 53, "duration": 17, "velocity": 69}, {"time": 1977, "pitch": 58, "duration": 6, "velocity": 88}, {"time": 1983, "pitch": 62, "duration": 7, "velocity": 100}, {"time": 1989, "pitch": 65, "duration": 13, "velocity": 89}, {"time": 1998, "pitch": 62, "duration": 6, "velocity": 100}, {"time": 2004, "pitch": 39, "duration": 22, "velocity": 74}, {"time": 2010, "pitch": 46, "duration": 16, "velocity": 78}, {"time": 2016, "pitch": 51, "duration": 13, "velocity": 79}, {"time": 2022, "pitch": 58, "duration": 19, "velocity": 93}, {"time": 2028, "pitch": 67, "duration": 12, "velocity": 107}, {"time": 2034, "pitch": 63, "duration": 7, "velocity": 85}, {"time": 2040, "pitch": 44, "duration": 32, "velocity": 81}, {"time": 2046, "pitch": 51, "duration": 30, "velocity": 71}, {"time": 2052, "pitch": 56, "duration": 8, "velocity": 92}, {"time": 2058, "pitch": 60, "duration": 20, "velocity": 95}, {"time": 2064, "pitch": 63, "duration": 14, "velocity": 86}, {"time": 2070, "pitch": 56, "duration": 7, "velocity": 96}, {"time": 2076, "pitch": 44, "duration": 24, "velocity": 82}, {"time": 2082, "pitch": 51, "duration": 21, "velocity": 75}, {"time": 2088, "pitch": 56, "duration": 6, "velocity": 74}, {"time": 2094, "pitch": 60, "duration": 17, "velocity": 93}, {"time": 2100, "pitch": 63, "duration": 11, "velocity": 90}, {"time": 2106, "pitch": 56, "duration": 5, "velocity": 67}, {"time": 2112, "pitch": 48, "duration": 22, "velocity": 65}, {"time": 2118, "pitch": 55, "duration": 13, "velocity": 71}, {"time": 2124, "pitch": 60, "duration": 13, "velocity": 76}, {"time": 2130, "pitch": 67, "duration": 16, "velocity": 112}, {"time": 2136, "pitch": 63, "duration": 10, "velocity": 95}, {"time": 2142, "pitch": 60, "duration": 21, "velocity": 77}, {"time": 2145, "pitch": 41, "duration": 23, "velocity": 67}, {"time": 2154, "pitch": 48, "duration": 18, "velocity": 64}, {"time": 2160, "pitch": 53, "duration": 14, "velocity": 81}, {"time": 2166, "pitch": 60, "duration": 18, "velocity": 85}, {"time": 2172, "pitch": 68, "duration": 11, "velocity": 92}, {"time": 2178, "pitch": 65, "duration": 4, "velocity": 86}, {"time": 2184, "pitch": 46, "duration": 32, "velocity": 68}, {"time": 2190, "pitch": 53, "duration": 31, "velocity": 56}, {"time": 2196, "pitch": 58, "duration": 8, "velocity": 82}, {"time": 2202, "pitch": 62, "duration": 7, "velocity": 83}, {"time": 2208, "pitch": 65, "duration": 21, "velocity": 82}, {"time": 2214, "pitch": 62, "duration": 16, "velocity": 90}, {"time": 2220, "pitch": 46, "duration": 22, "velocity": 70}, {"time": 2226, "pitch": 53, "duration": 15, "velocity": 77}, {"time": 2232, "pitch": 58, "duration": 13, "velocity": 73}, {"time": 2238, "pitch": 65, "duration": 16, "velocity": 90}, {"time": 2244, "pitch": 62, "duration": 9, "velocity": 122}, {"time": 2250, "pitch": 58, "duration": 8, "velocity": 97}, {"time": 2256, "pitch": 39, "duration": 33, "velocity": 72}, {"time": 2262, "pitch": 46, "duration": 30, "velocity": 102}, {"time": 2268, "pitch": 51, "duration": 15, "velocity": 90}, {"time": 2274, "pitch": 58, "duration": 24, "velocity": 92}, {"time": 2280, "pitch": 67, "duration": 19, "velocity": 127}, {"time": 2286, "pitch": 65, "duration": 10, "velocity": 68}, {"time": 2292, "pitch": 39, "duration": 23, "velocity": 88}, {"time": 2298, "pitch": 46, "duration": 18, "velocity": 97}, {"time": 2304, "pitch": 51, "duration": 13, "velocity": 97}, {"time": 2310, "pitch": 58, "duration": 13, "velocity": 97}, {"time": 2316, "pitch": 67, "duration": 11, "velocity": 127}, {"time": 2322, "pitch": 63, "duration": 7, "velocity": 100}, {"time": 2328, "pitch": 44, "duration": 31, "velocity": 88}, {"time": 2334, "pitch": 51, "duration": 31, "velocity": 82}, {"time": 2340, "pitch": 56, "duration": 7, "velocity": 90}, {"time": 2346, "pitch": 60, "duration": 19, "velocity": 92}, {"time": 2352, "pitch": 63, "duration": 13, "velocity": 99}, {"time": 2358, "pitch": 56, "duration": 6, "velocity": 93}, {"time": 2364, "pitch": 44, "duration": 24, "velocity": 85}, {"time": 2370, "pitch": 51, "duration": 18, "velocity": 69}, {"time": 2376, "pitch": 56, "duration": 6, "velocity": 90}, {"time": 2382, "pitch": 60, "duration": 16, "velocity": 95}, {"time": 2388, "pitch": 63, "duration": 10, "velocity": 96}, {"time": 2394, "pitch": 56, "duration": 10, "velocity": 85}, {"time": 2400, "pitch": 37, "duration": 20, "velocity": 82}, {"time": 2406, "pitch": 44, "duration": 16, "velocity": 74}, {"time": 2412, "pitch": 49, "duration": 13, "velocity": 86}, {"time": 2418, "pitch": 56, "duration": 11, "velocity": 88}, {"time": 2424, "pitch": 65, "duration": 10, "velocity": 97}, {"time": 2430, "pitch": 61, "duration": 6, "velocity": 96}, {"time": 2433, "pitch": 44, "duration": 21, "velocity": 70}, {"time": 2439, "pitch": 51, "duration": 15, "velocity": 77}, {"time": 2445, "pitch": 56, "duration": 7, "velocity": 85}, {"time": 2451, "pitch": 60, "duration": 17, "velocity": 89}, {"time": 2460, "pitch": 63, "duration": 11, "velocity": 96}, {"time": 2466, "pitch": 56, "duration": 7, "velocity": 88}, {"time": 2469, "pitch": 37, "duration": 33, "velocity": 86}, {"time": 2478, "pitch": 44, "duration": 30, "velocity": 85}, {"time": 2484, "pitch": 49, "duration": 27, "velocity": 86}, {"time": 2490, "pitch": 56, "duration": 24, "velocity": 92}, {"time": 2496, "pitch": 65, "duration": 13, "velocity": 97}, {"time": 2502, "pitch": 61, "duration": 26, "velocity": 97}, {"time": 2508, "pitch": 37, "duration": 20, "velocity": 76}, {"time": 2514, "pitch": 44, "duration": 16, "velocity": 79}, {"time": 2520, "pitch": 49, "duration": 21, "velocity": 90}, {"time": 2526, "pitch": 56, "duration": 17, "velocity": 75}, {"time": 2532, "pitch": 65, "duration": 9, "velocity": 97}, {"time": 2538, "pitch": 61, "duration": 4, "velocity": 92}, {"time": 2544, "pitch": 41, "duration": 20, "velocity": 81}, {"time": 2550, "pitch": 48, "duration": 15, "velocity": 85}, {"time": 2556, "pitch": 53, "duration": 11, "velocity": 88}, {"time": 2559, "pitch": 57, "duration": 10, "velocity": 100}, {"time": 2568, "pitch": 60, "duration": 10, "velocity": 90}, {"time": 2574, "pitch": 63, "duration": 6, "velocity": 56}, {"time": 2577, "pitch": 46, "duration": 24, "velocity": 75}, {"time": 2586, "pitch": 53, "duration": 17, "velocity": 97}, {"time": 2592, "pitch": 58, "duration": 8, "velocity": 83}, {"time": 2598, "pitch": 61, "duration": 19, "velocity": 90}, {"time": 2604, "pitch": 65, "duration": 12, "velocity": 77}, {"time": 2616, "pitch": 44, "duration": 25, "velocity": 71}, {"time": 2622, "pitch": 51, "duration": 20, "velocity": 61}, {"time": 2628, "pitch": 56, "duration": 10, "velocity": 76}, {"time": 2634, "pitch": 60, "duration": 7, "velocity": 74}, {"time": 2640, "pitch": 63, "duration": 13, "velocity": 90}, {"time": 2652, "pitch": 44, "duration": 23, "velocity": 39}, {"time": 2658, "pitch": 51, "duration": 19, "velocity": 67}, {"time": 2664, "pitch": 56, "duration": 9, "velocity": 89}, {"time": 2670, "pitch": 60, "duration": 7, "velocity": 77}, {"time": 2676, "pitch": 63, "duration": 12, "velocity": 90}, {"time": 2688, "pitch": 48, "duration": 19, "velocity": 73}, {"time": 2694, "pitch": 55, "duration": 11, "velocity": 72}, {"time": 2700, "pitch": 60, "duration": 27, "velocity": 70}, {"time": 2706, "pitch": 67, "duration": 18, "velocity": 85}, {"time": 2712, "pitch": 63, "duration": 12, "velocity": 56}, {"time": 2724, "pitch": 41, "duration": 25, "velocity": 63}, {"time": 2730, "pitch": 48, "duration": 19, "velocity": 70}, {"time": 2736, "pitch": 53, "duration": 8, "velocity": 76}, {"time": 2742, "pitch": 60, "duration": 18, "velocity": 82}, {"time": 2748, "pitch": 68, "duration": 10, "velocity": 102}, {"time": 2754, "pitch": 65, "duration": 5, "velocity": 97}, {"time": 2760, "pitch": 39, "duration": 34, "velocity": 92}, {"time": 2766, "pitch": 46, "duration": 31, "velocity": 93}, {"time": 2772, "pitch": 51, "duration": 17, "velocity": 97}, {"time": 2778, "pitch": 58, "duration": 23, "velocity": 97}, {"time": 2784, "pitch": 67, "duration": 28, "velocity": 122}, {"time": 2790, "pitch": 63, "duration": 25, "velocity": 97}, {"time": 2796, "pitch": 39, "duration": 21, "velocity": 78}, {"time": 2802, "pitch": 46, "duration": 15, "velocity": 90}, {"time": 2808, "pitch": 51, "duration": 20, "velocity": 92}, {"time": 2814, "pitch": 58, "duration": 17, "velocity": 90}, {"time": 2820, "pitch": 67, "duration": 10, "velocity": 112}, {"time": 2826, "pitch": 63, "duration": 5, "velocity": 68}, {"time": 2832, "pitch": 44, "duration": 33, "velocity": 68}, {"time": 2838, "pitch": 51, "duration": 30, "velocity": 68}, {"time": 2841, "pitch": 56, "duration": 7, "velocity": 83}, {"time": 2850, "pitch": 60, "duration": 7, "velocity": 83}, {"time": 2856, "pitch": 63, "duration": 28, "velocity": 97}, {"time": 2862, "pitch": 60, "duration": 19, "velocity": 77}, {"time": 2868, "pitch": 44, "duration": 33, "velocity": 71}, {"time": 2874, "pitch": 51, "duration": 30, "velocity": 42}, {"time": 2880, "pitch": 56, "duration": 18, "velocity": 93}, {"time": 2886, "pitch": 60, "duration": 7, "velocity": 97}, {"time": 2892, "pitch": 63, "duration": 13, "velocity": 107}, {"time": 2898, "pitch": 60, "duration": 6, "velocity": 117}, {"time": 2904, "pitch": 44, "duration": 31, "velocity": 92}, {"time": 2910, "pitch": 51, "duration": 32, "velocity": 78}, {"time": 2916, "pitch": 56, "duration": 8, "velocity": 88}, {"time": 2922, "pitch": 60, "duration": 7, "velocity": 85}, {"time": 2928, "pitch": 63, "duration": 12, "velocity": 99}, {"time": 2934, "pitch": 60, "duration": 7, "velocity": 97}, {"time": 2940, "pitch": 44, "duration": 23, "velocity": 85}, {"time": 2946, "pitch": 51, "duration": 17, "velocity": 85}, {"time": 2952, "pitch": 56, "duration": 6, "velocity": 90}, {"time": 2958, "pitch": 60, "duration": 17, "velocity": 96}, {"time": 2964, "pitch": 63, "duration": 11, "velocity": 83}, {"time": 2970, "pitch": 56, "duration": 6, "velocity": 85}, {"time": 2976, "pitch": 37, "duration": 32, "velocity": 79}, {"time": 2982, "pitch": 44, "duration": 30, "velocity": 81}, {"time": 2988, "pitch": 49, "duration": 27, "velocity": 81}, {"time": 2994, "pitch": 56, "duration": 32, "velocity": 86}, {"time": 3000, "pitch": 65, "duration": 15, "velocity": 95}, {"time": 3006, "pitch": 61, "duration": 25, "velocity": 102}, {"time": 3012, "pitch": 37, "duration": 21, "velocity": 70}, {"time": 3018, "pitch": 44, "duration": 16, "velocity": 93}, {"time": 3024, "pitch": 49, "duration": 13, "velocity": 92}, {"time": 3030, "pitch": 56, "duration": 14, "velocity": 86}, {"time": 3036, "pitch": 65, "duration": 12, "velocity": 96}, {"time": 3042, "pitch": 61, "duration": 5, "velocity": 100}, {"time": 3048, "pitch": 46, "duration": 25, "velocity": 97}, {"time": 3054, "pitch": 50, "duration": 17, "velocity": 112}, {"time": 3060, "pitch": 53, "duration": 11, "velocity": 100}, {"time": 3066, "pitch": 58, "duration": 19, "velocity": 102}, {"time": 3072, "pitch": 65, "duration": 11, "velocity": 99}, {"time": 3078, "pitch": 62, "duration": 5, "velocity": 127}, {"time": 3084, "pitch": 39, "duration": 23, "velocity": 88}, {"time": 3090, "pitch": 46, "duration": 17, "velocity": 100}, {"time": 3096, "pitch": 51, "duration": 15, "velocity": 93}, {"time": 3102, "pitch": 58, "duration": 17, "velocity": 89}, {"time": 3108, "pitch": 67, "duration": 10, "velocity": 100}, {"time": 3114, "pitch": 63, "duration": 6, "velocity": 82}, {"time": 3120, "pitch": 44, "duration": 32, "velocity": 70}, {"time": 3126, "pitch": 51, "duration": 30, "velocity": 82}, {"time": 3132, "pitch": 56, "duration": 7, "velocity": 79}, {"time": 3138, "pitch": 60, "duration": 8, "velocity": 72}, {"time": 3144, "pitch": 63, "duration": 47, "velocity": 99}, {"time": 3150, "pitch": 60, "duration": 41, "velocity": 60}, {"time": 3153, "pitch": 44, "duration": 33, "velocity": 71}, {"time": 3156, "pitch": 56, "duration": 35, "velocity": 63}, {"time": 3192, "pitch": 44, "duration": 32, "velocity": 90}, {"time": 3204, "pitch": 51, "duration": 19, "velocity": 59}, {"time": 3216, "pitch": 63, "duration": 13, "velocity": 86}, {"time": 3228, "pitch": 39, "duration": 23, "velocity": 79}, {"time": 3240, "pitch": 46, "duration": 14, "velocity": 47}, {"time": 3252, "pitch": 67, "duration": 14, "velocity": 93}, {"time": 3264, "pitch": 44, "duration": 25, "velocity": 61}, {"time": 3276, "pitch": 51, "duration": 15, "velocity": 60}, {"time": 3288, "pitch": 63, "duration": 12, "velocity": 85}, {"time": 3300, "pitch": 48, "duration": 27, "velocity": 69}, {"time": 3312, "pitch": 55, "duration": 13, "velocity": 66}, {"time": 3324, "pitch": 67, "duration": 14, "velocity": 95}, {"time": 3336, "pitch": 44, "duration": 26, "velocity": 68}, {"time": 3348, "pitch": 51, "duration": 14, "velocity": 63}, {"time": 3360, "pitch": 60, "duration": 12, "velocity": 64}, {"time": 3360, "pitch": 63, "duration": 13, "velocity": 69}, {"time": 3372, "pitch": 37, "duration": 33, "velocity": 72}, {"time": 3381, "pitch": 44, "duration": 25, "velocity": 60}, {"time": 3396, "pitch": 65, "duration": 13, "velocity": 86}, {"time": 3408, "pitch": 39, "duration": 32, "velocity": 73}, {"time": 3420, "pitch": 46, "duration": 24, "velocity": 58}, {"time": 3432, "pitch": 51, "duration": 25, "velocity": 39}, {"time": 3432, "pitch": 63, "duration": 48, "velocity": 69}, {"time": 3444, "pitch": 39, "duration": 25, "velocity": 64}, {"time": 3456, "pitch": 46, "duration": 14, "velocity": 76}, {"time": 3468, "pitch": 58, "duration": 13, "velocity": 90}, {"time": 3480, "pitch": 44, "duration": 34, "velocity": 76}, {"time": 3492, "pitch": 51, "duration": 24, "velocity": 75}, {"time": 3504, "pitch": 63, "duration": 30, "velocity": 93}, {"time": 3516, "pitch": 44, "duration": 26, "velocity": 74}, {"time": 3528, "pitch": 51, "duration": 17, "velocity": 75}, {"time": 3540, "pitch": 63, "duration": 13, "velocity": 97}, {"time": 3546, "pitch": 60, "duration": 7, "velocity": 69}, {"time": 3552, "pitch": 48, "duration": 25, "velocity": 70}, {"time": 3564, "pitch": 55, "duration": 12, "velocity": 65}, {"time": 3576, "pitch": 63, "duration": 20, "velocity": 72}, {"time": 3576, "pitch": 67, "duration": 13, "velocity": 83}, {"time": 3588, "pitch": 41, "duration": 24, "velocity": 72}, {"time": 3600, "pitch": 48, "duration": 14, "velocity": 58}, {"time": 3612, "pitch": 65, "duration": 13, "velocity": 85}, {"time": 3618, "pitch": 60, "duration": 8, "velocity": 53}, {"time": 3624, "pitch": 46, "duration": 32, "velocity": 68}, {"time": 3636, "pitch": 53, "duration": 22, "velocity": 61}, {"time": 3648, "pitch": 61, "duration": 11, "velocity": 66}, {"time": 3648, "pitch": 65, "duration": 14, "velocity": 79}, {"time": 3660, "pitch": 50, "duration": 25, "velocity": 77}, {"time": 3672, "pitch": 58, "duration": 27, "velocity": 76}, {"time": 3684, "pitch": 65, "duration": 14, "velocity": 86}, {"time": 3696, "pitch": 39, "duration": 34, "velocity": 66}, {"time": 3702, "pitch": 46, "duration": 31, "velocity": 52}, {"time": 3708, "pitch": 51, "duration": 9, "velocity": 71}, {"time": 3714, "pitch": 55, "duration": 7, "velocity": 62}, {"time": 3720, "pitch": 58, "duration": 13, "velocity": 86}, {"time": 3726, "pitch": 55, "duration": 7, "velocity": 77}, {"time": 3732, "pitch": 39, "duration": 22, "velocity": 82}, {"time": 3738, "pitch": 46, "duration": 17, "velocity": 67}, {"time": 3744, "pitch": 51, "duration": 13, "velocity": 92}, {"time": 3750, "pitch": 58, "duration": 18, "velocity": 97}, {"time": 3756, "pitch": 67, "duration": 12, "velocity": 102}, {"time": 3762, "pitch": 63, "duration": 6, "velocity": 78}, {"time": 3768, "pitch": 44, "duration": 32, "velocity": 86}, {"time": 3780, "pitch": 51, "duration": 24, "velocity": 67}, {"time": 3792, "pitch": 60, "duration": 12, "velocity": 73}, {"time": 3792, "pitch": 63, "duration": 12, "velocity": 77}, {"time": 3804, "pitch": 39, "duration": 24, "velocity": 72}, {"time": 3816, "pitch": 46, "duration": 12, "velocity": 53}, {"time": 3828, "pitch": 58, "duration": 12, "velocity": 86}, {"time": 3840, "pitch": 49, "duration": 17, "velocity": 72}, {"time": 3852, "pitch": 56, "duration": 17, "velocity": 79}, {"time": 3864, "pitch": 65, "duration": 12, "velocity": 82}, {"time": 3876, "pitch": 48, "duration": 27, "velocity": 71}, {"time": 3888, "pitch": 55, "duration": 14, "velocity": 56}, {"time": 3900, "pitch": 63, "duration": 12, "velocity": 76}, {"time": 3900, "pitch": 67, "duration": 12, "velocity": 68}, {"time": 3912, "pitch": 44, "duration": 33, "velocity": 66}, {"time": 3924, "pitch": 51, "duration": 22, "velocity": 58}, {"time": 3936, "pitch": 63, "duration": 11, "velocity": 92}, {"time": 3948, "pitch": 44, "duration": 24, "velocity": 85}, {"time": 3960, "pitch": 51, "duration": 12, "velocity": 73}, {"time": 3972, "pitch": 60, "duration": 12, "velocity": 86}, {"time": 3984, "pitch": 39, "duration": 60, "velocity": 76}, {"time": 3996, "pitch": 46, "duration": 48, "velocity": 61}, {"time": 4008, "pitch": 51, "duration": 16, "velocity": 89}, {"time": 4020, "pitch": 58, "duration": 37, "velocity": 72}, {"time": 4020, "pitch": 63, "duration": 21, "velocity": 75}, {"time": 4032, "pitch": 51, "duration": 16, "velocity": 83}, {"time": 4044, "pitch": 67, "duration": 13, "velocity": 95}, {"time": 4056, "pitch": 44, "duration": 59, "velocity": 79}, {"time": 4068, "pitch": 51, "duration": 29, "velocity": 66}, {"time": 4080, "pitch": 63, "duration": 48, "velocity": 89}, {"time": 4092, "pitch": 60, "duration": 36, "velocity": 75}, {"time": 4104, "pitch": 51, "duration": 14, "velocity": 52}, {"time": 4116, "pitch": 56, "duration": 11, "velocity": 75}, {"time": 4128, "pitch": 48, "duration": 25, "velocity": 72}, {"time": 4140, "pitch": 55, "duration": 12, "velocity": 59}, {"time": 4152, "pitch": 63, "duration": 21, "velocity": 65}, {"time": 4164, "pitch": 41, "duration": 23, "velocity": 68}, {"time": 4176, "pitch": 48, "duration": 13, "velocity": 68}, {"time": 4188, "pitch": 68, "duration": 13, "velocity": 89}, {"time": 4200, "pitch": 46, "duration": 35, "velocity": 72}, {"time": 4212, "pitch": 53, "duration": 23, "velocity": 55}, {"time": 4224, "pitch": 65, "duration": 12, "velocity": 85}, {"time": 4236, "pitch": 39, "duration": 22, "velocity": 86}, {"time": 4248, "pitch": 46, "duration": 12, "velocity": 76}, {"time": 4260, "pitch": 63, "duration": 12, "velocity": 78}, {"time": 4272, "pitch": 44, "duration": 34, "velocity": 71}, {"time": 4284, "pitch": 51, "duration": 25, "velocity": 59}, {"time": 4296, "pitch": 56, "duration": 10, "velocity": 85}, {"time": 4308, "pitch": 44, "duration": 31, "velocity": 83}, {"time": 4314, "pitch": 51, "duration": 28, "velocity": 97}, {"time": 4320, "pitch": 56, "duration": 6, "velocity": 99}, {"time": 4326, "pitch": 58, "duration": 9, "velocity": 102}, {"time": 4332, "pitch": 60, "duration": 10, "velocity": 112}, {"time": 4338, "pitch": 63, "duration": 7, "velocity": 102}, {"time": 4344, "pitch": 44, "duration": 31, "velocity": 93}, {"time": 4350, "pitch": 51, "duration": 30, "velocity": 93}, {"time": 4356, "pitch": 56, "duration": 8, "velocity": 100}, {"time": 4362, "pitch": 60, "duration": 8, "velocity": 86}, {"time": 4368, "pitch": 63, "duration": 26, "velocity": 99}, {"time": 4374, "pitch": 60, "duration": 26, "velocity": 81}, {"time": 4380, "pitch": 44, "duration": 23, "velocity": 78}, {"time": 4386, "pitch": 51, "duration": 16, "velocity": 88}, {"time": 4392, "pitch": 56, "duration": 6, "velocity": 86}, {"time": 4398, "pitch": 68, "duration": 18, "velocity": 92}, {"time": 4404, "pitch": 63, "duration": 12, "velocity": 95}, {"time": 4410, "pitch": 60, "duration": 6, "velocity": 86}, {"time": 4416, "pitch": 37, "duration": 22, "velocity": 83}, {"time": 4422, "pitch": 44, "duration": 16, "velocity": 76}, {"time": 4428, "pitch": 49, "duration": 15, "velocity": 88}, {"time": 4434, "pitch": 56, "duration": 14, "velocity": 86}, {"time": 4440, "pitch": 65, "duration": 11, "velocity": 96}, {"time": 4446, "pitch": 61, "duration": 6, "velocity": 81}, {"time": 4449, "pitch": 44, "duration": 22, "velocity": 68}, {"time": 4458, "pitch": 51, "duration": 14, "velocity": 53}, {"time": 4464, "pitch": 56, "duration": 7, "velocity": 83}, {"time": 4470, "pitch": 60, "duration": 7, "velocity": 95}, {"time": 4476, "pitch": 63, "duration": 11, "velocity": 90}, {"time": 4482, "pitch": 60, "duration": 5, "velocity": 83}, {"time": 4488, "pitch": 37, "duration": 33, "velocity": 76}, {"time": 4494, "pitch": 44, "duration": 30, "velocity": 93}, {"time": 4500, "pitch": 49, "duration": 11, "velocity": 78}, {"time": 4506, "pitch": 56, "duration": 18, "velocity": 95}, {"time": 4512, "pitch": 65, "duration": 13, "velocity": 92}, {"time": 4518, "pitch": 61, "duration": 9, "velocity": 95}, {"time": 4524, "pitch": 37, "duration": 23, "velocity": 83}, {"time": 4530, "pitch": 44, "duration": 17, "velocity": 89}, {"time": 4536, "pitch": 49, "duration": 14, "velocity": 93}, {"time": 4542, "pitch": 56, "duration": 11, "velocity": 96}, {"time": 4548, "pitch": 65, "duration": 12, "velocity": 96}, {"time": 4554, "pitch": 61, "duration": 4, "velocity": 95}, {"time": 4557, "pitch": 46, "duration": 24, "velocity": 77}, {"time": 4563, "pitch": 53, "duration": 17, "velocity": 69}, {"time": 4569, "pitch": 58, "duration": 6, "velocity": 88}, {"time": 4575, "pitch": 62, "duration": 7, "velocity": 100}, {"time": 4581, "pitch": 65, "duration": 13, "velocity": 89}, {"time": 4590, "pitch": 62, "duration": 6, "velocity": 100}, {"time": 4596, "pitch": 39, "duration": 22, "velocity": 74}, {"time": 4602, "pitch": 46, "duration": 16, "velocity": 78}, {"time": 4608, "pitch": 51, "duration": 13, "velocity": 79}, {"time": 4614, "pitch": 58, "duration": 19, "velocity": 93}, {"time": 4620, "pitch": 67, "duration": 12, "velocity": 107}, {"time": 4626, "pitch": 63, "duration": 7, "velocity": 85}, {"time": 4632, "pitch": 44, "duration": 32, "velocity": 81}, {"time": 4638, "pitch": 51, "duration": 30, "velocity": 71}, {"time": 4644, "pitch": 56, "duration": 8, "velocity": 92}, {"time": 4650, "pitch": 60, "duration": 20, "velocity": 95}, {"time": 4656, "pitch": 63, "duration": 14, "velocity": 86}, {"time": 4662, "pitch": 56, "duration": 7, "velocity": 96}, {"time": 4668, "pitch": 44, "duration": 24, "velocity": 82}, {"time": 4674, "pitch": 51, "duration": 21, "velocity": 75}, {"time": 4680, "pitch": 56, "duration": 6, "velocity": 74}, {"time": 4686, "pitch": 60, "duration": 17, "velocity": 93}, {"time": 4692, "pitch": 63, "duration": 11, "velocity": 90}, {"time": 4698, "pitch": 56, "duration": 5, "velocity": 67}, {"time": 4704, "pitch": 48, "duration": 22, "velocity": 65}, {"time": 4710, "pitch": 55, "duration": 13, "velocity": 71}, {"time": 4716, "pitch": 60, "duration": 13, "velocity": 76}, {"time": 4722, "pitch": 67, "duration": 16, "velocity": 112}, {"time": 4728, "pitch": 63, "duration": 10, "velocity": 95}, {"time": 4734, "pitch": 60, "duration": 21, "velocity": 77}, {"time": 4737, "pitch": 41, "duration": 23, "velocity": 67}, {"time": 4746, "pitch": 48, "duration": 18, "velocity": 64}, {"time": 4752, "pitch": 53, "duration": 14, "velocity": 81}, {"time": 4758, "pitch": 60, "duration": 18, "velocity": 85}, {"time": 4764, "pitch": 68, "duration": 11, "velocity": 92}, {"time": 4770, "pitch": 65, "duration": 4, "velocity": 86}, {"time": 4776, "pitch": 46, "duration": 32, "velocity": 68}, {"time": 4782, "pitch": 53, "duration": 31, "velocity": 56}, {"time": 4788, "pitch": 58, "duration": 8, "velocity": 82}, {"time": 4794, "pitch": 62, "duration": 7, "velocity": 83}, {"time": 4800, "pitch": 65, "duration": 21, "velocity": 82}, {"time": 4806, "pitch": 62, "duration": 16, "velocity": 90}, {"time": 4812, "pitch": 46, "duration": 22, "velocity": 70}, {"time": 4818, "pitch": 53, "duration": 15, "velocity": 77}, {"time": 4824, "pitch": 58, "duration": 13, "velocity": 73}, {"time": 4830, "pitch": 65, "duration": 16, "velocity": 90}, {"time": 4836, "pitch": 62, "duration": 9, "velocity": 122}, {"time": 4842, "pitch": 58, "duration": 8, "velocity": 97}, {"time": 4848, "pitch": 39, "duration": 33, "velocity": 72}, {"time": 4854, "pitch": 46, "duration": 30, "velocity": 102}, {"time": 4860, "pitch": 51, "duration": 15, "velocity": 90}, {"time": 4866, "pitch": 58, "duration": 24, "velocity": 92}, {"time": 4872, "pitch": 67, "duration": 19, "velocity": 127}, {"time": 4878, "pitch": 65, "duration": 10, "velocity": 68}, {"time": 4884, "pitch": 39, "duration": 23, "velocity": 88}, {"time": 4890, "pitch": 46, "duration": 18, "velocity": 97}, {"time": 4896, "pitch": 51, "duration": 13, "velocity": 97}, {"time": 4902, "pitch": 58, "duration": 13, "velocity": 97}, {"time": 4908, "pitch": 67, "duration": 11, "velocity": 127}, {"time": 4914, "pitch": 63, "duration": 7, "velocity": 100}, {"time": 4920, "pitch": 44, "duration": 31, "velocity": 88}, {"time": 4926, "pitch": 51, "duration": 31, "velocity": 82}, {"time": 4932, "pitch": 56, "duration": 7, "velocity": 90}, {"time": 4938, "pitch": 60, "duration": 19, "velocity": 92}, {"time": 4944, "pitch": 63, "duration": 13, "velocity": 99}, {"time": 4950, "pitch": 56, "duration": 6, "velocity": 93}, {"time": 4956, "pitch": 44, "duration": 24, "velocity": 85}, {"time": 4962, "pitch": 51, "duration": 18, "velocity": 69}, {"time": 4968, "pitch": 56, "duration": 6, "velocity": 90}, {"time": 4974, "pitch": 60, "duration": 16, "velocity": 95}, {"time": 4980, "pitch": 63, "duration": 10, "velocity": 96}, {"time": 4986, "pitch": 56, "duration": 10, "velocity": 85}, {"time": 4992, "pitch": 37, "duration": 20, "velocity": 82}, {"time": 4998, "pitch": 44, "duration": 16, "velocity": 74}, {"time": 5004, "pitch": 49, "duration": 13, "velocity": 86}, {"time": 5010, "pitch": 56, "duration": 11, "velocity": 88}, {"time": 5016, "pitch": 65, "duration": 10, "velocity": 97}, {"time": 5022, "pitch": 61, "duration": 6, "velocity": 96}, {"time": 5025, "pitch": 44, "duration": 21, "velocity": 70}, {"time": 5031, "pitch": 51, "duration": 15, "velocity": 77}, {"time": 5037, "pitch": 56, "duration": 7, "velocity": 85}, {"time": 5043, "pitch": 60, "duration": 17, "velocity": 89}, {"time": 5052, "pitch": 63, "duration": 11, "velocity": 96}, {"time": 5058, "pitch": 56, "duration": 7, "velocity": 88}, {"time": 5061, "pitch": 37, "duration": 33, "velocity": 86}, {"time": 5070, "pitch": 44, "duration": 30, "velocity": 85}, {"time": 5076, "pitch": 49, "duration": 27, "velocity": 86}, {"time": 5082, "pitch": 56, "duration": 24, "velocity": 92}, {"time": 5088, "pitch": 65, "duration": 13, "velocity": 97}, {"time": 5094, "pitch": 61, "duration": 26, "velocity": 97}, {"time": 5100, "pitch": 37, "duration": 20, "velocity": 76}, {"time": 5106, "pitch": 44, "duration": 16, "velocity": 79}, {"time": 5112, "pitch": 49, "duration": 21, "velocity": 90}, {"time": 5118, "pitch": 56, "duration": 17, "velocity": 75}, {"time": 5124, "pitch": 65, "duration": 9, "velocity": 97}, {"time": 5130, "pitch": 61, "duration": 4, "velocity": 92}, {"time": 5136, "pitch": 41, "duration": 20, "velocity": 81}, {"time": 5142, "pitch": 48, "duration": 15, "velocity": 85}, {"time": 5148, "pitch": 53, "duration": 11, "velocity": 88}, {"time": 5151, "pitch": 57, "duration": 10, "velocity": 100}, {"time": 5160, "pitch": 60, "duration": 10, "velocity": 90}, {"time": 5166, "pitch": 63, "duration": 6, "velocity": 56}, {"time": 5169, "pitch": 46, "duration": 24, "velocity": 75}, {"time": 5178, "pitch": 53, "duration": 17, "velocity": 97}, {"time": 5184, "pitch": 58, "duration": 8, "velocity": 83}, {"time": 5190, "pitch": 61, "duration": 19, "velocity": 90}, {"time": 5196, "pitch": 65, "duration": 12, "velocity": 77}, {"time": 5208, "pitch": 44, "duration": 25, "velocity": 71}, {"time": 5214, "pitch": 51, "duration": 20, "velocity": 61}, {"time": 5220, "pitch": 56, "duration": 10, "velocity": 76}, {"time": 5226, "pitch": 60, "duration": 7, "velocity": 74}, {"time": 5232, "pitch": 63, "duration": 13, "velocity": 90}, {"time": 5244, "pitch": 44, "duration": 23, "velocity": 39}, {"time": 5250, "pitch": 51, "duration": 19, "velocity": 67}, {"time": 5256, "pitch": 56, "duration": 9, "velocity": 89}, {"time": 5262, "pitch": 60, "duration": 7, "velocity": 77}, {"time": 5268, "pitch": 63, "duration": 12, "velocity": 90}, {"time": 5280, "pitch": 48, "duration": 19, "velocity": 73}, {"time": 5286, "pitch": 55, "duration": 11, "velocity": 72}, {"time": 5292, "pitch": 60, "duration": 27, "velocity": 70}, {"time": 5298, "pitch": 67, "duration": 18, "velocity": 85}, {"time": 5304, "pitch": 63, "duration": 12, "velocity": 56}, {"time": 5316, "pitch": 41, "duration": 25, "velocity": 63}, {"time": 5322, "pitch": 48, "duration": 19, "velocity": 70}, {"time": 5328, "pitch": 53, "duration": 8, "velocity": 76}, {"time": 5334, "pitch": 60, "duration": 18, "velocity": 82}, {"time": 5340, "pitch": 68, "duration": 10, "velocity": 102}, {"time": 5346, "pitch": 65, "duration": 5, "velocity": 97}, {"time": 5352, "pitch": 39, "duration": 34, "velocity": 92}, {"time": 5358, "pitch": 46, "duration": 31, "velocity": 93}, {"time": 5364, "pitch": 51, "duration": 17, "velocity": 97}, {"time": 5370, "pitch": 58, "duration": 23, "velocity": 97}, {"time": 5376, "pitch": 67, "duration": 28, "velocity": 122}, {"time": 5382, "pitch": 63, "duration": 25, "velocity": 97}, {"time": 5388, "pitch": 39, "duration": 21, "velocity": 78}, {"time": 5394, "pitch": 46, "duration": 15, "velocity": 90}, {"time": 5400, "pitch": 51, "duration": 20, "velocity": 92}, {"time": 5406, "pitch": 58, "duration": 17, "velocity": 90}, {"time": 5412, "pitch": 67, "duration": 10, "velocity": 112}, {"time": 5418, "pitch": 63, "duration": 5, "velocity": 68}, {"time": 5424, "pitch": 44, "duration": 34, "velocity": 83}, {"time": 5430, "pitch": 51, "duration": 31, "velocity": 92}, {"time": 5436, "pitch": 56, "duration": 7, "velocity": 89}, {"time": 5442, "pitch": 60, "duration": 7, "velocity": 93}, {"time": 5448, "pitch": 63, "duration": 22, "velocity": 96}, {"time": 5454, "pitch": 60, "duration": 18, "velocity": 86}, {"time": 5460, "pitch": 44, "duration": 33, "velocity": 93}, {"time": 5466, "pitch": 51, "duration": 29, "velocity": 93}, {"time": 5472, "pitch": 56, "duration": 14, "velocity": 99}, {"time": 5478, "pitch": 60, "duration": 19, "velocity": 99}, {"time": 5484, "pitch": 63, "duration": 13, "velocity": 102}, {"time": 5490, "pitch": 56, "duration": 5, "velocity": 99}, {"time": 5496, "pitch": 44, "duration": 32, "velocity": 88}, {"time": 5502, "pitch": 51, "duration": 29, "velocity": 88}, {"time": 5508, "pitch": 56, "duration": 6, "velocity": 96}, {"time": 5514, "pitch": 60, "duration": 33, "velocity": 97}, {"time": 5520, "pitch": 63, "duration": 22, "velocity": 99}, {"time": 5526, "pitch": 56, "duration": 12, "velocity": 78}, {"time": 5532, "pitch": 44, "duration": 26, "velocity": 85}, {"time": 5538, "pitch": 51, "duration": 19, "velocity": 90}, {"time": 5544, "pitch": 56, "duration": 9, "velocity": 78}, {"time": 5550, "pitch": 63, "duration": 16, "velocity": 96}, {"time": 5556, "pitch": 60, "duration": 9, "velocity": 92}, {"time": 5562, "pitch": 56, "duration": 6, "velocity": 86}, {"time": 5568, "pitch": 48, "duration": 18, "velocity": 78}, {"time": 5574, "pitch": 55, "duration": 9, "velocity": 90}, {"time": 5580, "pitch": 67, "duration": 20, "velocity": 112}, {"time": 5586, "pitch": 63, "duration": 7, "velocity": 88}, {"time": 5592, "pitch": 60, "duration": 13, "velocity": 83}, {"time": 5598, "pitch": 63, "duration": 4, "velocity": 96}, {"time": 5601, "pitch": 41, "duration": 38, "velocity": 69}, {"time": 5610, "pitch": 48, "duration": 15, "velocity": 89}, {"time": 5616, "pitch": 53, "duration": 7, "velocity": 90}, {"time": 5622, "pitch": 68, "duration": 17, "velocity": 90}, {"time": 5628, "pitch": 65, "duration": 11, "velocity": 86}, {"time": 5639, "pitch": 58, "duration": 28, "velocity": 76}, {"time": 5639, "pitch": 67, "duration": 28, "velocity": 75}, {"time": 5639, "pitch": 63, "duration": 27, "velocity": 88}, {"time": 5639, "pitch": 46, "duration": 28, "velocity": 83}, {"time": 5639, "pitch": 51, "duration": 28, "velocity": 79}, {"time": 5639, "pitch": 39, "duration": 28, "velocity": 56}, {"time": 5669, "pitch": 58, "duration": 7, "velocity": 89}, {"time": 5669, "pitch": 63, "duration": 7, "velocity": 112}, {"time": 5669, "pitch": 67, "duration": 7, "velocity": 112}, {"time": 5670, "pitch": 51, "duration": 6, "velocity": 85}, {"time": 5670, "pitch": 46, "duration": 6, "velocity": 102}, {"time": 5670, "pitch": 39, "duration": 6, "velocity": 82}, {"time": 5686, "pitch": 58, "duration": 12, "velocity": 96}, {"time": 5686, "pitch": 46, "duration": 12, "velocity": 97}, {"time": 5686, "pitch": 63, "duration": 12, "velocity": 117}, {"time": 5686, "pitch": 67, "duration": 12, "velocity": 112}, {"time": 5686, "pitch": 39, "duration": 13, "velocity": 72}, {"time": 5686, "pitch": 51, "duration": 12, "velocity": 107}, {"time": 5871, "pitch": 58, "duration": 34, "velocity": 53}, {"time": 5871, "pitch": 63, "duration": 38, "velocity": 66}, {"time": 5871, "pitch": 67, "duration": 37, "velocity": 53}, {"time": 5871, "pitch": 46, "duration": 32, "velocity": 49}, {"time": 5871, "pitch": 39, "duration": 34, "velocity": 52}, {"time": 5871, "pitch": 51, "duration": 26, "velocity": 44}, {"time": 5916, "pitch": 32, "duration": 33, "velocity": 89}, {"time": 5916, "pitch": 68, "duration": 23, "velocity": 95}, {"time": 5916, "pitch": 72, "duration": 23, "velocity": 88}, {"time": 5916, "pitch": 63, "duration": 22, "velocity": 95}, {"time": 5941, "pitch": 63, "duration": 8, "velocity": 82}, {"time": 5941, "pitch": 68, "duration": 9, "velocity": 86}, {"time": 5941, "pitch": 72, "duration": 9, "velocity": 92}, {"time": 5952, "pitch": 63, "duration": 18, "velocity": 89}, {"time": 5952, "pitch": 72, "duration": 19, "velocity": 93}, {"time": 5952, "pitch": 68, "duration": 18, "velocity": 93}, {"time": 5952, "pitch": 44, "duration": 24, "velocity": 88}, {"time": 5952, "pitch": 32, "duration": 20, "velocity": 63}, {"time": 5973, "pitch": 72, "duration": 3, "velocity": 73}, {"time": 5973, "pitch": 68, "duration": 4, "velocity": 88}, {"time": 5974, "pitch": 63, "duration": 7, "velocity": 107}, {"time": 5985, "pitch": 37, "duration": 22, "velocity": 89}, {"time": 5986, "pitch": 65, "duration": 21, "velocity": 97}, {"time": 5986, "pitch": 68, "duration": 20, "velocity": 96}, {"time": 5986, "pitch": 61, "duration": 21, "velocity": 107}, {"time": 6010, "pitch": 61, "duration": 10, "velocity": 112}, {"time": 6010, "pitch": 37, "duration": 3, "velocity": 117}, {"time": 6010, "pitch": 68, "duration": 5, "velocity": 102}, {"time": 6010, "pitch": 65, "duration": 8, "velocity": 112}, {"time": 6023, "pitch": 63, "duration": 88, "velocity": 127}, {"time": 6023, "pitch": 68, "duration": 88, "velocity": 112}, {"time": 6023, "pitch": 72, "duration": 88, "velocity": 112}, {"time": 6023, "pitch": 32, "duration": 87, "velocity": 79}, {"time": 6023, "pitch": 44, "duration": 88, "velocity": 107}, {"time": 6024, "pitch": 39, "duration": 87, "velocity": 97}], "annotations": [{"time": 24, "annotation": {"number": 64, "value": 127}, "group": "control_change"}, {"time": 25, "annotation": {"number": 64, "value": 0}, "group": "control_change"}, {"time": 25, "annotation": {"number": 64, "value": 127}, "group": "control_change"}, {"time": 93, "annotation": {"number": 64, "value": 0}, "group": "control_change"}, {"time": 98, "annotation": {"number": 64, "value": 127}, "group": "control_change"}, {"time": 165, "annotation": {"number": 64, "value": 0}, "group": "control_change"}, {"time": 169, "annotation": {"number": 64, "value": 127}, "group": "control_change"}, {"time": 238, "annotation": {"number": 64, "value": 0}, "group": "control_change"}, {"time": 241, "annotation": {"number": 64, "value": 127}, "group": "control_change"}, {"time": 309, "annotation": {"number": 64, "value": 0}, "group": "control_change"}, {"time": 313, "annotation": {"number": 64, "value": 127}, "group": "control_change"}, {"time": 346, "annotation": {"number": 64, "value": 0}, "group": "control_change"}, {"time": 349, "annotation": {"number": 64, "value": 127}, "group": "control_change"}, {"time": 381, "annotation": {"number": 64, "value": 0}, "group": "control_change"}, {"time": 384, "annotation": {"number": 64, "value": 127}, "group": "control_change"}, {"time": 415, "annotation": {"number": 64, "value": 0}, "group": "control_change"}, {"time": 420, "annotation": {"number": 64, "value": 127}, "group": "control_change"}, {"time": 452, "annotation": {"number": 64, "value": 0}, "group": "control_change"}, {"time": 457, "annotation": {"number": 64, "value": 127}, "group": "control_change"}, {"time": 488, "annotation": {"number": 64, "value": 0}, "group": "control_change"}, {"time": 492, "annotation": {"number": 64, "value": 127}, "group": "control_change"}, {"time": 523, "annotation": {"number": 64, "value": 0}, "group": "control_change"}, {"time": 528, "annotation": {"number": 64, "value": 127}, "group": "control_change"}, {"time": 559, "annotation": {"number": 64, "value": 0}, "group": "control_change"}, {"time": 564, "annotation": {"number": 64, "value": 127}, "group": "control_change"}, {"time": 595, "annotation": {"number": 64, "value": 0}, "group": "control_change"}, {"time": 600, "annotation": {"number": 64, "value": 127}, "group": "control_change"}, {"time": 633, "annotation": {"number": 64, "value": 0}, "group": "control_change"}, {"time": 637, "annotation": {"number": 64, "value": 127}, "group": "control_change"}, {"time": 668, "annotation": {"number": 64, "value": 0}, "group": "control_change"}, {"time": 674, "annotation": {"number": 64, "value": 127}, "group": "control_change"}, {"time": 704, "annotation": {"number": 64, "value": 0}, "group": "control_change"}, {"time": 709, "annotation": {"number": 64, "value": 127}, "group": "control_change"}, {"time": 740, "annotation": {"number": 64, "value": 0}, "group": "control_change"}, {"time": 745, "annotation": {"number": 64, "value": 127}, "group": "control_change"}, {"time": 775, "annotation": {"number": 64, "value": 0}, "group": "control_change"}, {"time": 780, "annotation": {"number": 64, "value": 127}, "group": "control_change"}, {"time": 811, "annotation": {"number": 64, "value": 0}, "group": "control_change"}, {"time": 816, "annotation": {"number": 64, "value": 127}, "group": "control_change"}, {"time": 848, "annotation": {"number": 64, "value": 0}, "group": "control_change"}, {"time": 854, "annotation": {"number": 64, "value": 127}, "group": "control_change"}, {"time": 883, "annotation": {"number": 64, "value": 0}, "group": "control_change"}, {"time": 888, "annotation": {"number": 64, "value": 127}, "group": "control_change"}, {"time": 921, "annotation": {"number": 64, "value": 0}, "group": "control_change"}, {"time": 926, "annotation": {"number": 64, "value": 127}, "group": "control_change"}, {"time": 926, "annotation": {"number": 64, "value": 0}, "group": "control_change"}, {"time": 927, "annotation": {"number": 64, "value": 127}, "group": "control_change"}, {"time": 954, "annotation": {"number": 64, "value": 0}, "group": "control_change"}, {"time": 960, "annotation": {"number": 64, "value": 127}, "group": "control_change"}, {"time": 991, "annotation": {"number": 64, "value": 0}, "group": "control_change"}, {"time": 996, "annotation": {"number": 64, "value": 127}, "group": "control_change"}, {"time": 1027, "annotation": {"number": 64, "value": 0}, "group": "control_change"}, {"time": 1033, "annotation": {"number": 64, "value": 127}, "group": "control_change"}, {"time": 1063, "annotation": {"number": 64, "value": 0}, "group": "control_change"}, {"time": 1068, "annotation": {"number": 64, "value": 127}, "group": "control_change"}, {"time": 1100, "annotation": {"number": 64, "value": 0}, "group": "control_change"}, {"time": 1105, "annotation": {"number": 64, "value": 127}, "group": "control_change"}, {"time": 1136, "annotation": {"number": 64, "value": 0}, "group": "control_change"}, {"time": 1141, "annotation": {"number": 64, "value": 127}, "group": "control_change"}, {"time": 1171, "annotation": {"number": 64, "value": 0}, "group": "control_change"}, {"time": 1177, "annotation": {"number": 64, "value": 127}, "group": "control_change"}, {"time": 1208, "annotation": {"number": 64, "value": 0}, "group": "control_change"}, {"time": 1212, "annotation": {"number": 64, "value": 127}, "group": "control_change"}, {"time": 1244, "annotation": {"number": 64, "value": 0}, "group": "control_change"}, {"time": 1248, "annotation": {"number": 64, "value": 127}, "group": "control_change"}, {"time": 1280, "annotation": {"number": 64, "value": 0}, "group": "control_change"}, {"time": 1285, "annotation": {"number": 64, "value": 127}, "group": "control_change"}, {"time": 1316, "annotation": {"number": 64, "value": 0}, "group": "control_change"}, {"time": 1342, "annotation": {"number": 64, "value": 127}, "group": "control_change"}, {"time": 1352, "annotation": {"number": 64, "value": 0}, "group": "control_change"}, {"time": 1365, "annotation": {"number": 64, "value": 127}, "group": "control_change"}, {"time": 1388, "annotation": {"number": 64, "value": 0}, "group": "control_change"}, {"time": 1392, "annotation": {"number": 64, "value": 127}, "group": "control_change"}, {"time": 1460, "annotation": {"number": 64, "value": 0}, "group": "control_change"}, {"time": 1465, "annotation": {"number": 64, "value": 127}, "group": "control_change"}, {"time": 1532, "annotation": {"number": 64, "value": 0}, "group": "control_change"}, {"time": 1536, "annotation": {"number": 64, "value": 127}, "group": "control_change"}, {"time": 1568, "annotation": {"number": 64, "value": 0}, "group": "control_change"}, {"time": 1572, "annotation": {"number": 64, "value": 127}, "group": "control_change"}, {"time": 1604, "annotation": {"number": 64, "value": 0}, "group": "control_change"}, {"time": 1608, "annotation": {"number": 64, "value": 127}, "group": "control_change"}, {"time": 1643, "annotation": {"number": 64, "value": 0}, "group": "control_change"}, {"time": 1643, "annotation": {"number": 64, "value": 127}, "group": "control_change"}, {"time": 1675, "annotation": {"number": 64, "value": 0}, "group": "control_change"}, {"time": 1680, "annotation": {"number": 64, "value": 127}, "group": "control_change"}, {"time": 1711, "annotation": {"number": 64, "value": 0}, "group": "control_change"}, {"time": 1716, "annotation": {"number": 64, "value": 127}, "group": "control_change"}, {"time": 1749, "annotation": {"number": 64, "value": 0}, "group": "control_change"}, {"time": 1753, "annotation": {"number": 64, "value": 127}, "group": "control_change"}, {"time": 1783, "annotation": {"number": 64, "value": 0}, "group": "control_change"}, {"time": 1788, "annotation": {"number": 64, "value": 127}, "group": "control_change"}, {"time": 1820, "annotation": {"number": 64, "value": 0}, "group": "control_change"}, {"time": 1825, "annotation": {"number": 64, "value": 127}, "group": "control_change"}, {"time": 1856, "annotation": {"number": 64, "value": 0}, "group": "control_change"}, {"time": 1860, "annotation": {"number": 64, "value": 127}, "group": "control_change"}, {"time": 1892, "annotation": {"number": 64, "value": 0}, "group": "control_change"}, {"time": 1896, "annotation": {"number": 64, "value": 127}, "group": "control_change"}, {"time": 1929, "annotation": {"number": 64, "value": 0}, "group": "control_change"}, {"time": 1933, "annotation": {"number": 64, "value": 127}, "group": "control_change"}, {"time": 1963, "annotation": {"number": 64, "value": 0}, "group": "control_change"}, {"time": 1968, "annotation": {"number": 64, "value": 127}, "group": "control_change"}, {"time": 2000, "annotation": {"number": 64, "value": 0}, "group": "control_change"}, {"time": 2004, "annotation": {"number": 64, "value": 127}, "group": "control_change"}, {"time": 2035, "annotation": {"number": 64, "value": 0}, "group": "control_change"}, {"time": 2040, "annotation": {"number": 64, "value": 127}, "group": "control_change"}, {"time": 2071, "annotation": {"number": 64, "value": 0}, "group": "control_change"}, {"time": 2076, "annotation": {"number": 64, "value": 127}, "group": "control_change"}, {"time": 2107, "annotation": {"number": 64, "value": 0}, "group": "control_change"}, {"time": 2112, "annotation": {"number": 64, "value": 127}, "group": "control_change"}, {"time": 2143, "annotation": {"number": 64, "value": 0}, "group": "control_change"}, {"time": 2148, "annotation": {"number": 64, "value": 127}, "group": "control_change"}, {"time": 2180, "annotation": {"number": 64, "value": 0}, "group": "control_change"}, {"time": 2185, "annotation": {"number": 64, "value": 127}, "group": "control_change"}, {"time": 2215, "annotation": {"number": 64, "value": 0}, "group": "control_change"}, {"time": 2220, "annotation": {"number": 64, "value": 127}, "group": "control_change"}, {"time": 2251, "annotation": {"number": 64, "value": 0}, "group": "control_change"}, {"time": 2257, "annotation": {"number": 64, "value": 127}, "group": "control_change"}, {"time": 2287, "annotation": {"number": 64, "value": 0}, "group": "control_change"}, {"time": 2292, "annotation": {"number": 64, "value": 127}, "group": "control_change"}, {"time": 2324, "annotation": {"number": 64, "value": 0}, "group": "control_change"}, {"time": 2329, "annotation": {"number": 64, "value": 127}, "group": "control_change"}, {"time": 2358, "annotation": {"number": 64, "value": 0}, "group": "control_change"}, {"time": 2364, "annotation": {"number": 64, "value": 127}, "group": "control_change"}, {"time": 2395, "annotation": {"number": 64, "value": 0}, "group": "control_change"}, {"time": 2400, "annotation": {"number": 64, "value": 127}, "group": "control_change"}, {"time": 2431, "annotation": {"number": 64, "value": 0}, "group": "control_change"}, {"time": 2435, "annotation": {"number": 64, "value": 127}, "group": "control_change"}, {"time": 2466, "annotation": {"number": 64, "value": 0}, "group": "control_change"}, {"time": 2471, "annotation": {"number": 64, "value": 127}, "group": "control_change"}, {"time": 2503, "annotation": {"number": 64, "value": 0}, "group": "control_change"}, {"time": 2507, "annotation": {"number": 64, "value": 127}, "group": "control_change"}, {"time": 2539, "annotation": {"number": 64, "value": 0}, "group": "control_change"}, {"time": 2543, "annotation": {"number": 64, "value": 127}, "group": "control_change"}, {"time": 2575, "annotation": {"number": 64, "value": 0}, "group": "control_change"}, {"time": 2579, "annotation": {"number": 64, "value": 127}, "group": "control_change"}, {"time": 2611, "annotation": {"number": 64, "value": 0}, "group": "control_change"}, {"time": 2616, "annotation": {"number": 64, "value": 127}, "group": "control_change"}, {"time": 2648, "annotation": {"number": 64, "value": 0}, "group": "control_change"}, {"time": 2652, "annotation": {"number": 64, "value": 127}, "group": "control_change"}, {"time": 2660, "annotation": {"number": 64, "value": 0}, "group": "control_change"}, {"time": 2661, "annotation": {"number": 64, "value": 127}, "group": "control_change"}, {"time": 2683, "annotation": {"number": 64, "value": 0}, "group": "control_change"}, {"time": 2688, "annotation": {"number": 64, "value": 127}, "group": "control_change"}, {"time": 2719, "annotation": {"number": 64, "value": 0}, "group": "control_change"}, {"time": 2724, "annotation": {"number": 64, "value": 127}, "group": "control_change"}, {"time": 2755, "annotation": {"number": 64, "value": 0}, "group": "control_change"}, {"time": 2760, "annotation": {"number": 64, "value": 127}, "group": "control_change"}, {"time": 2791, "annotation": {"number": 64, "value": 0}, "group": "control_change"}, {"time": 2796, "annotation": {"number": 64, "value": 127}, "group": "control_change"}, {"time": 2825, "annotation": {"number": 64, "value": 0}, "group": "control_change"}, {"time": 2831, "annotation": {"number": 64, "value": 127}, "group": "control_change"}, {"time": 2862, "annotation": {"number": 64, "value": 0}, "group": "control_change"}, {"time": 2868, "annotation": {"number": 64, "value": 127}, "group": "control_change"}, {"time": 2900, "annotation": {"number": 64, "value": 0}, "group": "control_change"}, {"time": 2905, "annotation": {"number": 64, "value": 127}, "group": "control_change"}, {"time": 2935, "annotation": {"number": 64, "value": 0}, "group": "control_change"}, {"time": 2940, "annotation": {"number": 64, "value": 127}, "group": "control_change"}, {"time": 2972, "annotation": {"number": 64, "value": 0}, "group": "control_change"}, {"time": 2976, "annotation": {"number": 64, "value": 127}, "group": "control_change"}, {"time": 3006, "annotation": {"number": 64, "value": 0}, "group": "control_change"}, {"time": 3011, "annotation": {"number": 64, "value": 127}, "group": "control_change"}, {"time": 3043, "annotation": {"number": 64, "value": 0}, "group": "control_change"}, {"time": 3048, "annotation": {"number": 64, "value": 127}, "group": "control_change"}, {"time": 3080, "annotation": {"number": 64, "value": 0}, "group": "control_change"}, {"time": 3085, "annotation": {"number": 64, "value": 127}, "group": "control_change"}, {"time": 3114, "annotation": {"number": 64, "value": 0}, "group": "control_change"}, {"time": 3119, "annotation": {"number": 64, "value": 127}, "group": "control_change"}, {"time": 3151, "annotation": {"number": 64, "value": 0}, "group": "control_change"}, {"time": 3155, "annotation": {"number": 64, "value": 127}, "group": "control_change"}, {"time": 3190, "annotation": {"number": 64, "value": 0}, "group": "control_change"}, {"time": 3225, "annotation": {"number": 64, "value": 0}, "group": "control_change"}, {"time": 3229, "annotation": {"number": 64, "value": 127}, "group": "control_change"}, {"time": 3260, "annotation": {"number": 64, "value": 0}, "group": "control_change"}, {"time": 3266, "annotation": {"number": 64, "value": 127}, "group": "control_change"}, {"time": 3296, "annotation": {"number": 64, "value": 0}, "group": "control_change"}, {"time": 3301, "annotation": {"number": 64, "value": 127}, "group": "control_change"}, {"time": 3332, "annotation": {"number": 64, "value": 0}, "group": "control_change"}, {"time": 3337, "annotation": {"number": 64, "value": 127}, "group": "control_change"}, {"time": 3367, "annotation": {"number": 64, "value": 0}, "group": "control_change"}, {"time": 3372, "annotation": {"number": 64, "value": 127}, "group": "control_change"}, {"time": 3403, "annotation": {"number": 64, "value": 0}, "group": "control_change"}, {"time": 3408, "annotation": {"number": 64, "value": 127}, "group": "control_change"}, {"time": 3440, "annotation": {"number": 64, "value": 0}, "group": "control_change"}, {"time": 3446, "annotation": {"number": 64, "value": 127}, "group": "control_change"}, {"time": 3475, "annotation": {"number": 64, "value": 0}, "group": "control_change"}, {"time": 3480, "annotation": {"number": 64, "value": 127}, "group": "control_change"}, {"time": 3513, "annotation": {"number": 64, "value": 0}, "group": "control_change"}, {"time": 3518, "annotation": {"number": 64, "value": 127}, "group": "control_change"}, {"time": 3518, "annotation": {"number": 64, "value": 0}, "group": "control_change"}, {"time": 3519, "annotation": {"number": 64, "value": 127}, "group": "control_change"}, {"time": 3546, "annotation": {"number": 64, "value": 0}, "group": "control_change"}, {"time": 3552, "annotation": {"number": 64, "value": 127}, "group": "control_change"}, {"time": 3583, "annotation": {"number": 64, "value": 0}, "group": "control_change"}, {"time": 3588, "annotation": {"number": 64, "value": 127}, "group": "control_change"}, {"time": 3619, "annotation": {"number": 64, "value": 0}, "group": "control_change"}, {"time": 3625, "annotation": {"number": 64, "value": 127}, "group": "control_change"}, {"time": 3655, "annotation": {"number": 64, "value": 0}, "group": "control_change"}, {"time": 3660, "annotation": {"number": 64, "value": 127}, "group": "control_change"}, {"time": 3692, "annotation": {"number": 64, "value": 0}, "group": "control_change"}, {"time": 3697, "annotation": {"number": 64, "value": 127}, "group": "control_change"}, {"time": 3728, "annotation": {"number": 64, "value": 0}, "group": "control_change"}, {"time": 3733, "annotation": {"number": 64, "value": 127}, "group": "control_change"}, {"time": 3763, "annotation": {"number": 64, "value": 0}, "group": "control_change"}, {"time": 3769, "annotation": {"number": 64, "value": 127}, "group": "control_change"}, {"time": 3800, "annotation": {"number": 64, "value": 0}, "group": "control_change"}, {"time": 3804, "annotation": {"number": 64, "value": 127}, "group": "control_change"}, {"time": 3836, "annotation": {"number": 64, "value": 0}, "group": "control_change"}, {"time": 3840, "annotation": {"number": 64, "value": 127}, "group": "control_change"}, {"time": 3872, "annotation": {"number": 64, "value": 0}, "group": "control_change"}, {"time": 3877, "annotation": {"number": 64, "value": 127}, "group": "control_change"}, {"time": 3908, "annotation": {"number": 64, "value": 0}, "group": "control_change"}, {"time": 3934, "annotation": {"number": 64, "value": 127}, "group": "control_change"}, {"time": 3944, "annotation": {"number": 64, "value": 0}, "group": "control_change"}, {"time": 3957, "annotation": {"number": 64, "value": 127}, "group": "control_change"}, {"time": 3980, "annotation": {"number": 64, "value": 0}, "group": "control_change"}, {"time": 3984, "annotation": {"number": 64, "value": 127}, "group": "control_change"}, {"time": 4052, "annotation": {"number": 64, "value": 0}, "group": "control_change"}, {"time": 4057, "annotation": {"number": 64, "value": 127}, "group": "control_change"}, {"time": 4124, "annotation": {"number": 64, "value": 0}, "group": "control_change"}, {"time": 4128, "annotation": {"number": 64, "value": 127}, "group": "control_change"}, {"time": 4160, "annotation": {"number": 64, "value": 0}, "group": "control_change"}, {"time": 4164, "annotation": {"number": 64, "value": 127}, "group": "control_change"}, {"time": 4196, "annotation": {"number": 64, "value": 0}, "group": "control_change"}, {"time": 4200, "annotation": {"number": 64, "value": 127}, "group": "control_change"}, {"time": 4235, "annotation": {"number": 64, "value": 0}, "group": "control_change"}, {"time": 4235, "annotation": {"number": 64, "value": 127}, "group": "control_change"}, {"time": 4267, "annotation": {"number": 64, "value": 0}, "group": "control_change"}, {"time": 4272, "annotation": {"number": 64, "value": 127}, "group": "control_change"}, {"time": 4303, "annotation": {"number": 64, "value": 0}, "group": "control_change"}, {"time": 4308, "annotation": {"number": 64, "value": 127}, "group": "control_change"}, {"time": 4341, "annotation": {"number": 64, "value": 0}, "group": "control_change"}, {"time": 4345, "annotation": {"number": 64, "value": 127}, "group": "control_change"}, {"time": 4375, "annotation": {"number": 64, "value": 0}, "group": "control_change"}, {"time": 4380, "annotation": {"number": 64, "value": 127}, "group": "control_change"}, {"time": 4412, "annotation": {"number": 64, "value": 0}, "group": "control_change"}, {"time": 4417, "annotation": {"number": 64, "value": 127}, "group": "control_change"}, {"time": 4448, "annotation": {"number": 64, "value": 0}, "group": "control_change"}, {"time": 4452, "annotation": {"number": 64, "value": 127}, "group": "control_change"}, {"time": 4484, "annotation": {"number": 64, "value": 0}, "group": "control_change"}, {"time": 4488, "annotation": {"number": 64, "value": 127}, "group": "control_change"}, {"time": 4521, "annotation": {"number": 64, "value": 0}, "group": "control_change"}, {"time": 4525, "annotation": {"number": 64, "value": 127}, "group": "control_change"}, {"time": 4555, "annotation": {"number": 64, "value": 0}, "group": "control_change"}, {"time": 4560, "annotation": {"number": 64, "value": 127}, "group": "control_change"}, {"time": 4592, "annotation": {"number": 64, "value": 0}, "group": "control_change"}, {"time": 4596, "annotation": {"number": 64, "value": 127}, "group": "control_change"}, {"time": 4627, "annotation": {"number": 64, "value": 0}, "group": "control_change"}, {"time": 4632, "annotation": {"number": 64, "value": 127}, "group": "control_change"}, {"time": 4663, "annotation": {"number": 64, "value": 0}, "group": "control_change"}, {"time": 4668, "annotation": {"number": 64, "value": 127}, "group": "control_change"}, {"time": 4699, "annotation": {"number": 64, "value": 0}, "group": "control_change"}, {"time": 4704, "annotation": {"number": 64, "value": 127}, "group": "control_change"}, {"time": 4735, "annotation": {"number": 64, "value": 0}, "group": "control_change"}, {"time": 4740, "annotation": {"number": 64, "value": 127}, "group": "control_change"}, {"time": 4772, "annotation": {"number": 64, "value": 0}, "group": "control_change"}, {"time": 4777, "annotation": {"number": 64, "value": 127}, "group": "control_change"}, {"time": 4807, "annotation": {"number": 64, "value": 0}, "group": "control_change"}, {"time": 4812, "annotation": {"number": 64, "value": 127}, "group": "control_change"}, {"time": 4843, "annotation": {"number": 64, "value": 0}, "group": "control_change"}, {"time": 4849, "annotation": {"number": 64, "value": 127}, "group": "control_change"}, {"time": 4879, "annotation": {"number": 64, "value": 0}, "group": "control_change"}, {"time": 4884, "annotation": {"number": 64, "value": 127}, "group": "control_change"}, {"time": 4916, "annotation": {"number": 64, "value": 0}, "group": "control_change"}, {"time": 4921, "annotation": {"number": 64, "value": 127}, "group": "control_change"}, {"time": 4950, "annotation": {"number": 64, "value": 0}, "group": "control_change"}, {"time": 4956, "annotation": {"number": 64, "value": 127}, "group": "control_change"}, {"time": 4987, "annotation": {"number": 64, "value": 0}, "group": "control_change"}, {"time": 4992, "annotation": {"number": 64, "value": 127}, "group": "control_change"}, {"time": 5023, "annotation": {"number": 64, "value": 0}, "group": "control_change"}, {"time": 5027, "annotation": {"number": 64, "value": 127}, "group": "control_change"}, {"time": 5058, "annotation": {"number": 64, "value": 0}, "group": "control_change"}, {"time": 5063, "annotation": {"number": 64, "value": 127}, "group": "control_change"}, {"time": 5095, "annotation": {"number": 64, "value": 0}, "group": "control_change"}, {"time": 5099, "annotation": {"number": 64, "value": 127}, "group": "control_change"}, {"time": 5131, "annotation": {"number": 64, "value": 0}, "group": "control_change"}, {"time": 5135, "annotation": {"number": 64, "value": 127}, "group": "control_change"}, {"time": 5167, "annotation": {"number": 64, "value": 0}, "group": "control_change"}, {"time": 5171, "annotation": {"number": 64, "value": 127}, "group": "control_change"}, {"time": 5203, "annotation": {"number": 64, "value": 0}, "group": "control_change"}, {"time": 5208, "annotation": {"number": 64, "value": 127}, "group": "control_change"}, {"time": 5240, "annotation": {"number": 64, "value": 0}, "group": "control_change"}, {"time": 5244, "annotation": {"number": 64, "value": 127}, "group": "control_change"}, {"time": 5252, "annotation": {"number": 64, "value": 0}, "group": "control_change"}, {"time": 5253, "annotation": {"number": 64, "value": 127}, "group": "control_change"}, {"time": 5275, "annotation": {"number": 64, "value": 0}, "group": "control_change"}, {"time": 5280, "annotation": {"number": 64, "value": 127}, "group": "control_change"}, {"time": 5311, "annotation": {"number": 64, "value": 0}, "group": "control_change"}, {"time": 5316, "annotation": {"number": 64, "value": 127}, "group": "control_change"}, {"time": 5347, "annotation": {"number": 64, "value": 0}, "group": "control_change"}, {"time": 5352, "annotation": {"number": 64, "value": 127}, "group": "control_change"}, {"time": 5383, "annotation": {"number": 64, "value": 0}, "group": "control_change"}, {"time": 5388, "annotation": {"number": 64, "value": 127}, "group": "control_change"}, {"time": 5417, "annotation": {"number": 64, "value": 0}, "group": "control_change"}, {"time": 5423, "annotation": {"number": 64, "value": 127}, "group": "control_change"}, {"time": 5424, "annotation": {"number": 64, "value": 127}, "group": "control_change"}, {"time": 5456, "annotation": {"number": 64, "value": 0}, "group": "control_change"}, {"time": 5462, "annotation": {"number": 64, "value": 127}, "group": "control_change"}, {"time": 5491, "annotation": {"number": 64, "value": 0}, "group": "control_change"}, {"time": 5499, "annotation": {"number": 64, "value": 127}, "group": "control_change"}, {"time": 5527, "annotation": {"number": 64, "value": 0}, "group": "control_change"}, {"time": 5534, "annotation": {"number": 64, "value": 127}, "group": "control_change"}, {"time": 5564, "annotation": {"number": 64, "value": 0}, "group": "control_change"}, {"time": 5568, "annotation": {"number": 64, "value": 127}, "group": "control_change"}, {"time": 5599, "annotation": {"number": 64, "value": 0}, "group": "control_change"}, {"time": 5605, "annotation": {"number": 64, "value": 127}, "group": "control_change"}, {"time": 5635, "annotation": {"number": 64, "value": 0}, "group": "control_change"}, {"time": 5644, "annotation": {"number": 64, "value": 127}, "group": "control_change"}, {"time": 5647, "annotation": {"number": 64, "value": 0}, "group": "control_change"}, {"time": 5995, "annotation": {"number": 64, "value": 127}, "group": "control_change"}, {"time": 6021, "annotation": {"number": 64, "value": 0}, "group": "control_change"}]}]}