{"metadata": {"schema_version": "0.2", "title": "None", "source_filename": "750.mid", "source_format": "midi"}, "resolution": 12, "tempos": [{"time": 0, "qpm": 90.00009000009}], "time_signatures": [{"time": 0, "numerator": 1, "denominator": 4}], "tracks": [{"program": 0, "is_drum": false, "name": "MELODY", "notes": [{"time": 404, "pitch": 71, "duration": 16, "velocity": 107}, {"time": 422, "pitch": 69, "duration": 10, "velocity": 97}, {"time": 434, "pitch": 66, "duration": 26, "velocity": 90}, {"time": 464, "pitch": 71, "duration": 7, "velocity": 99}, {"time": 470, "pitch": 73, "duration": 6, "velocity": 100}, {"time": 476, "pitch": 74, "duration": 5, "velocity": 93}, {"time": 482, "pitch": 73, "duration": 6, "velocity": 102}, {"time": 488, "pitch": 71, "duration": 3, "velocity": 93}, {"time": 494, "pitch": 69, "duration": 3, "velocity": 100}, {"time": 500, "pitch": 71, "duration": 10, "velocity": 100}, {"time": 518, "pitch": 66, "duration": 12, "velocity": 93}, {"time": 530, "pitch": 64, "duration": 21, "velocity": 90}, {"time": 584, "pitch": 62, "duration": 4, "velocity": 97}, {"time": 590, "pitch": 64, "duration": 2, "velocity": 88}, {"time": 596, "pitch": 66, "duration": 14, "velocity": 107}, {"time": 614, "pitch": 59, "duration": 4, "velocity": 88}, {"time": 626, "pitch": 59, "duration": 26, "velocity": 83}, {"time": 668, "pitch": 59, "duration": 7, "velocity": 89}, {"time": 674, "pitch": 62, "duration": 5, "velocity": 78}, {"time": 680, "pitch": 64, "duration": 5, "velocity": 86}, {"time": 686, "pitch": 69, "duration": 2, "velocity": 76}, {"time": 692, "pitch": 66, "duration": 36, "velocity": 96}, {"time": 788, "pitch": 71, "duration": 16, "velocity": 107}, {"time": 806, "pitch": 69, "duration": 10, "velocity": 97}, {"time": 818, "pitch": 66, "duration": 26, "velocity": 90}, {"time": 848, "pitch": 71, "duration": 7, "velocity": 99}, {"time": 854, "pitch": 73, "duration": 6, "velocity": 100}, {"time": 860, "pitch": 74, "duration": 5, "velocity": 93}, {"time": 866, "pitch": 73, "duration": 6, "velocity": 102}, {"time": 872, "pitch": 71, "duration": 3, "velocity": 93}, {"time": 878, "pitch": 69, "duration": 3, "velocity": 100}, {"time": 884, "pitch": 71, "duration": 10, "velocity": 100}, {"time": 902, "pitch": 66, "duration": 12, "velocity": 93}, {"time": 914, "pitch": 64, "duration": 21, "velocity": 90}, {"time": 968, "pitch": 62, "duration": 4, "velocity": 97}, {"time": 974, "pitch": 64, "duration": 2, "velocity": 88}, {"time": 980, "pitch": 66, "duration": 14, "velocity": 107}, {"time": 998, "pitch": 59, "duration": 4, "velocity": 88}, {"time": 1010, "pitch": 59, "duration": 26, "velocity": 83}, {"time": 1046, "pitch": 54, "duration": 5, "velocity": 63}, {"time": 1052, "pitch": 62, "duration": 3, "velocity": 72}, {"time": 1058, "pitch": 62, "duration": 3, "velocity": 75}, {"time": 1064, "pitch": 61, "duration": 3, "velocity": 78}, {"time": 1070, "pitch": 62, "duration": 5, "velocity": 92}, {"time": 1076, "pitch": 59, "duration": 38, "velocity": 78}, {"time": 1160, "pitch": 71, "duration": 3, "velocity": 96}, {"time": 1166, "pitch": 73, "duration": 2, "velocity": 112}, {"time": 1172, "pitch": 74, "duration": 2, "velocity": 100}, {"time": 1178, "pitch": 74, "duration": 2, "velocity": 112}, {"time": 1184, "pitch": 74, "duration": 1, "velocity": 112}, {"time": 1190, "pitch": 76, "duration": 2, "velocity": 102}, {"time": 1196, "pitch": 74, "duration": 3, "velocity": 127}, {"time": 1202, "pitch": 73, "duration": 2, "velocity": 122}, {"time": 1208, "pitch": 71, "duration": 2, "velocity": 96}, {"time": 1214, "pitch": 74, "duration": 2, "velocity": 99}, {"time": 1220, "pitch": 73, "duration": 3, "velocity": 127}, {"time": 1226, "pitch": 73, "duration": 1, "velocity": 127}, {"time": 1232, "pitch": 73, "duration": 2, "velocity": 127}, {"time": 1238, "pitch": 74, "duration": 2, "velocity": 117}, {"time": 1244, "pitch": 73, "duration": 2, "velocity": 107}, {"time": 1247, "pitch": 71, "duration": 2, "velocity": 86}, {"time": 1250, "pitch": 69, "duration": 8, "velocity": 93}, {"time": 1274, "pitch": 73, "duration": 2, "velocity": 122}, {"time": 1280, "pitch": 73, "duration": 2, "velocity": 127}, {"time": 1286, "pitch": 73, "duration": 2, "velocity": 122}, {"time": 1292, "pitch": 73, "duration": 2, "velocity": 127}, {"time": 1304, "pitch": 66, "duration": 3, "velocity": 99}, {"time": 1310, "pitch": 73, "duration": 2, "velocity": 112}, {"time": 1316, "pitch": 74, "duration": 3, "velocity": 96}, {"time": 1319, "pitch": 73, "duration": 2, "velocity": 100}, {"time": 1322, "pitch": 71, "duration": 23, "velocity": 93}, {"time": 1364, "pitch": 74, "duration": 3, "velocity": 127}, {"time": 1370, "pitch": 74, "duration": 3, "velocity": 102}, {"time": 1376, "pitch": 74, "duration": 3, "velocity": 112}, {"time": 1382, "pitch": 76, "duration": 3, "velocity": 100}, {"time": 1388, "pitch": 74, "duration": 4, "velocity": 122}, {"time": 1394, "pitch": 73, "duration": 2, "velocity": 127}, {"time": 1400, "pitch": 71, "duration": 2, "velocity": 100}, {"time": 1406, "pitch": 74, "duration": 2, "velocity": 107}, {"time": 1412, "pitch": 73, "duration": 2, "velocity": 127}, {"time": 1418, "pitch": 73, "duration": 2, "velocity": 112}, {"time": 1424, "pitch": 73, "duration": 3, "velocity": 117}, {"time": 1430, "pitch": 74, "duration": 2, "velocity": 99}, {"time": 1436, "pitch": 73, "duration": 2, "velocity": 127}, {"time": 1439, "pitch": 71, "duration": 2, "velocity": 83}, {"time": 1442, "pitch": 69, "duration": 8, "velocity": 107}, {"time": 1466, "pitch": 73, "duration": 2, "velocity": 122}, {"time": 1472, "pitch": 73, "duration": 2, "velocity": 107}, {"time": 1478, "pitch": 73, "duration": 3, "velocity": 117}, {"time": 1484, "pitch": 73, "duration": 2, "velocity": 127}, {"time": 1496, "pitch": 74, "duration": 5, "velocity": 100}, {"time": 1502, "pitch": 76, "duration": 3, "velocity": 102}, {"time": 1508, "pitch": 78, "duration": 37, "velocity": 117}, {"time": 1556, "pitch": 71, "duration": 9, "velocity": 112}, {"time": 1574, "pitch": 69, "duration": 7, "velocity": 95}, {"time": 1586, "pitch": 66, "duration": 17, "velocity": 102}, {"time": 1616, "pitch": 71, "duration": 3, "velocity": 102}, {"time": 1622, "pitch": 73, "duration": 1, "velocity": 122}, {"time": 1628, "pitch": 74, "duration": 4, "velocity": 99}, {"time": 1634, "pitch": 73, "duration": 3, "velocity": 102}, {"time": 1640, "pitch": 71, "duration": 4, "velocity": 112}, {"time": 1646, "pitch": 69, "duration": 3, "velocity": 99}, {"time": 1652, "pitch": 69, "duration": 7, "velocity": 100}, {"time": 1670, "pitch": 66, "duration": 5, "velocity": 102}, {"time": 1682, "pitch": 64, "duration": 18, "velocity": 81}, {"time": 1736, "pitch": 62, "duration": 5, "velocity": 100}, {"time": 1742, "pitch": 64, "duration": 4, "velocity": 96}, {"time": 1748, "pitch": 66, "duration": 14, "velocity": 117}, {"time": 1766, "pitch": 59, "duration": 4, "velocity": 100}, {"time": 1772, "pitch": 59, "duration": 12, "velocity": 96}, {"time": 1814, "pitch": 61, "duration": 2, "velocity": 112}, {"time": 1820, "pitch": 61, "duration": 3, "velocity": 107}, {"time": 1826, "pitch": 62, "duration": 4, "velocity": 96}, {"time": 1832, "pitch": 64, "duration": 5, "velocity": 97}, {"time": 1838, "pitch": 69, "duration": 5, "velocity": 93}, {"time": 1844, "pitch": 66, "duration": 25, "velocity": 107}, {"time": 1940, "pitch": 71, "duration": 8, "velocity": 102}, {"time": 1958, "pitch": 69, "duration": 6, "velocity": 100}, {"time": 1970, "pitch": 66, "duration": 12, "velocity": 107}, {"time": 2000, "pitch": 71, "duration": 4, "velocity": 102}, {"time": 2006, "pitch": 73, "duration": 3, "velocity": 107}, {"time": 2012, "pitch": 74, "duration": 4, "velocity": 97}, {"time": 2018, "pitch": 73, "duration": 3, "velocity": 107}, {"time": 2024, "pitch": 74, "duration": 2, "velocity": 90}, {"time": 2030, "pitch": 78, "duration": 3, "velocity": 117}, {"time": 2036, "pitch": 73, "duration": 8, "velocity": 97}, {"time": 2054, "pitch": 71, "duration": 8, "velocity": 102}, {"time": 2066, "pitch": 69, "duration": 11, "velocity": 97}, {"time": 2120, "pitch": 62, "duration": 4, "velocity": 95}, {"time": 2126, "pitch": 64, "duration": 3, "velocity": 89}, {"time": 2132, "pitch": 66, "duration": 14, "velocity": 112}, {"time": 2150, "pitch": 59, "duration": 3, "velocity": 96}, {"time": 2156, "pitch": 59, "duration": 12, "velocity": 100}, {"time": 2198, "pitch": 57, "duration": 3, "velocity": 92}, {"time": 2204, "pitch": 74, "duration": 3, "velocity": 102}, {"time": 2210, "pitch": 74, "duration": 3, "velocity": 112}, {"time": 2216, "pitch": 73, "duration": 3, "velocity": 112}, {"time": 2222, "pitch": 74, "duration": 3, "velocity": 127}, {"time": 2228, "pitch": 73, "duration": 4, "velocity": 117}, {"time": 2234, "pitch": 71, "duration": 31, "velocity": 107}, {"time": 2600, "pitch": 71, "duration": 3, "velocity": 96}, {"time": 2606, "pitch": 73, "duration": 2, "velocity": 112}, {"time": 2612, "pitch": 74, "duration": 2, "velocity": 100}, {"time": 2618, "pitch": 74, "duration": 2, "velocity": 112}, {"time": 2624, "pitch": 74, "duration": 1, "velocity": 112}, {"time": 2630, "pitch": 76, "duration": 2, "velocity": 102}, {"time": 2636, "pitch": 74, "duration": 3, "velocity": 127}, {"time": 2642, "pitch": 73, "duration": 2, "velocity": 122}, {"time": 2648, "pitch": 71, "duration": 2, "velocity": 96}, {"time": 2654, "pitch": 74, "duration": 2, "velocity": 99}, {"time": 2660, "pitch": 73, "duration": 3, "velocity": 127}, {"time": 2666, "pitch": 73, "duration": 1, "velocity": 127}, {"time": 2672, "pitch": 73, "duration": 2, "velocity": 127}, {"time": 2678, "pitch": 74, "duration": 2, "velocity": 117}, {"time": 2684, "pitch": 73, "duration": 2, "velocity": 107}, {"time": 2687, "pitch": 71, "duration": 2, "velocity": 86}, {"time": 2690, "pitch": 69, "duration": 8, "velocity": 93}, {"time": 2714, "pitch": 73, "duration": 2, "velocity": 122}, {"time": 2720, "pitch": 73, "duration": 2, "velocity": 127}, {"time": 2726, "pitch": 73, "duration": 2, "velocity": 122}, {"time": 2732, "pitch": 73, "duration": 2, "velocity": 127}, {"time": 2744, "pitch": 66, "duration": 3, "velocity": 99}, {"time": 2750, "pitch": 73, "duration": 2, "velocity": 112}, {"time": 2756, "pitch": 74, "duration": 3, "velocity": 96}, {"time": 2759, "pitch": 73, "duration": 2, "velocity": 100}, {"time": 2762, "pitch": 71, "duration": 23, "velocity": 93}, {"time": 2804, "pitch": 74, "duration": 3, "velocity": 127}, {"time": 2810, "pitch": 74, "duration": 3, "velocity": 102}, {"time": 2816, "pitch": 74, "duration": 3, "velocity": 112}, {"time": 2822, "pitch": 76, "duration": 3, "velocity": 100}, {"time": 2828, "pitch": 74, "duration": 4, "velocity": 122}, {"time": 2834, "pitch": 73, "duration": 2, "velocity": 127}, {"time": 2840, "pitch": 71, "duration": 2, "velocity": 100}, {"time": 2846, "pitch": 74, "duration": 2, "velocity": 107}, {"time": 2852, "pitch": 73, "duration": 2, "velocity": 127}, {"time": 2858, "pitch": 73, "duration": 2, "velocity": 112}, {"time": 2864, "pitch": 73, "duration": 3, "velocity": 117}, {"time": 2870, "pitch": 74, "duration": 2, "velocity": 99}, {"time": 2876, "pitch": 73, "duration": 2, "velocity": 127}, {"time": 2879, "pitch": 71, "duration": 2, "velocity": 83}, {"time": 2882, "pitch": 69, "duration": 8, "velocity": 107}, {"time": 2906, "pitch": 73, "duration": 2, "velocity": 122}, {"time": 2912, "pitch": 73, "duration": 2, "velocity": 107}, {"time": 2918, "pitch": 73, "duration": 3, "velocity": 117}, {"time": 2924, "pitch": 73, "duration": 2, "velocity": 127}, {"time": 2936, "pitch": 74, "duration": 5, "velocity": 100}, {"time": 2942, "pitch": 76, "duration": 3, "velocity": 102}, {"time": 2948, "pitch": 78, "duration": 37, "velocity": 117}, {"time": 2990, "pitch": 66, "duration": 2, "velocity": 117}, {"time": 2996, "pitch": 78, "duration": 44, "velocity": 127}, {"time": 3050, "pitch": 71, "duration": 2, "velocity": 107}, {"time": 3056, "pitch": 71, "duration": 2, "velocity": 96}, {"time": 3062, "pitch": 73, "duration": 2, "velocity": 107}, {"time": 3068, "pitch": 74, "duration": 2, "velocity": 122}, {"time": 3074, "pitch": 73, "duration": 3, "velocity": 117}, {"time": 3080, "pitch": 74, "duration": 2, "velocity": 112}, {"time": 3086, "pitch": 78, "duration": 2, "velocity": 122}, {"time": 3092, "pitch": 76, "duration": 4, "velocity": 122}, {"time": 3110, "pitch": 71, "duration": 4, "velocity": 102}, {"time": 3122, "pitch": 76, "duration": 9, "velocity": 107}, {"time": 3176, "pitch": 74, "duration": 4, "velocity": 117}, {"time": 3182, "pitch": 78, "duration": 3, "velocity": 117}, {"time": 3188, "pitch": 78, "duration": 8, "velocity": 127}, {"time": 3200, "pitch": 74, "duration": 4, "velocity": 107}, {"time": 3206, "pitch": 71, "duration": 6, "velocity": 97}, {"time": 3218, "pitch": 66, "duration": 6, "velocity": 117}, {"time": 3230, "pitch": 78, "duration": 4, "velocity": 122}, {"time": 3236, "pitch": 76, "duration": 6, "velocity": 112}, {"time": 3248, "pitch": 73, "duration": 3, "velocity": 122}, {"time": 3254, "pitch": 73, "duration": 8, "velocity": 127}, {"time": 3266, "pitch": 73, "duration": 1, "velocity": 127}, {"time": 3269, "pitch": 73, "duration": 1, "velocity": 99}, {"time": 3272, "pitch": 73, "duration": 1, "velocity": 117}, {"time": 3278, "pitch": 74, "duration": 2, "velocity": 117}, {"time": 3284, "pitch": 73, "duration": 2, "velocity": 127}, {"time": 3290, "pitch": 71, "duration": 6, "velocity": 102}, {"time": 3302, "pitch": 78, "duration": 13, "velocity": 122}, {"time": 3374, "pitch": 66, "duration": 2, "velocity": 117}, {"time": 3380, "pitch": 78, "duration": 44, "velocity": 127}, {"time": 3434, "pitch": 71, "duration": 2, "velocity": 107}, {"time": 3440, "pitch": 71, "duration": 2, "velocity": 96}, {"time": 3446, "pitch": 73, "duration": 2, "velocity": 107}, {"time": 3452, "pitch": 74, "duration": 2, "velocity": 122}, {"time": 3458, "pitch": 73, "duration": 3, "velocity": 117}, {"time": 3464, "pitch": 74, "duration": 2, "velocity": 112}, {"time": 3470, "pitch": 78, "duration": 2, "velocity": 122}, {"time": 3476, "pitch": 76, "duration": 4, "velocity": 122}, {"time": 3494, "pitch": 71, "duration": 4, "velocity": 102}, {"time": 3506, "pitch": 76, "duration": 9, "velocity": 107}, {"time": 3560, "pitch": 74, "duration": 4, "velocity": 117}, {"time": 3566, "pitch": 78, "duration": 3, "velocity": 117}, {"time": 3572, "pitch": 78, "duration": 8, "velocity": 127}, {"time": 3584, "pitch": 74, "duration": 4, "velocity": 107}, {"time": 3590, "pitch": 71, "duration": 6, "velocity": 97}, {"time": 3602, "pitch": 66, "duration": 6, "velocity": 117}, {"time": 3614, "pitch": 78, "duration": 4, "velocity": 122}, {"time": 3620, "pitch": 76, "duration": 6, "velocity": 112}, {"time": 3632, "pitch": 73, "duration": 3, "velocity": 122}, {"time": 3638, "pitch": 73, "duration": 8, "velocity": 127}, {"time": 3650, "pitch": 73, "duration": 3, "velocity": 112}, {"time": 3656, "pitch": 81, "duration": 4, "velocity": 107}, {"time": 3662, "pitch": 79, "duration": 2, "velocity": 107}, {"time": 3668, "pitch": 78, "duration": 50, "velocity": 122}, {"time": 3764, "pitch": 71, "duration": 16, "velocity": 107}, {"time": 3782, "pitch": 69, "duration": 10, "velocity": 97}, {"time": 3788, "pitch": 66, "duration": 3, "velocity": 112}, {"time": 3794, "pitch": 66, "duration": 26, "velocity": 90}, {"time": 3824, "pitch": 71, "duration": 7, "velocity": 99}, {"time": 3830, "pitch": 73, "duration": 6, "velocity": 100}, {"time": 3836, "pitch": 74, "duration": 5, "velocity": 93}, {"time": 3842, "pitch": 73, "duration": 6, "velocity": 102}, {"time": 3848, "pitch": 71, "duration": 3, "velocity": 93}, {"time": 3854, "pitch": 69, "duration": 3, "velocity": 100}, {"time": 3860, "pitch": 69, "duration": 10, "velocity": 100}, {"time": 3878, "pitch": 66, "duration": 12, "velocity": 93}, {"time": 3890, "pitch": 64, "duration": 21, "velocity": 90}, {"time": 3944, "pitch": 62, "duration": 4, "velocity": 97}, {"time": 3950, "pitch": 64, "duration": 2, "velocity": 88}, {"time": 3956, "pitch": 66, "duration": 14, "velocity": 107}, {"time": 3974, "pitch": 59, "duration": 4, "velocity": 88}, {"time": 3980, "pitch": 59, "duration": 26, "velocity": 83}, {"time": 4028, "pitch": 62, "duration": 3, "velocity": 95}, {"time": 4034, "pitch": 62, "duration": 4, "velocity": 92}, {"time": 4040, "pitch": 64, "duration": 4, "velocity": 93}, {"time": 4046, "pitch": 69, "duration": 5, "velocity": 102}, {"time": 4052, "pitch": 66, "duration": 36, "velocity": 122}, {"time": 4148, "pitch": 71, "duration": 16, "velocity": 107}, {"time": 4166, "pitch": 69, "duration": 10, "velocity": 97}, {"time": 4178, "pitch": 66, "duration": 26, "velocity": 90}, {"time": 4208, "pitch": 71, "duration": 7, "velocity": 99}, {"time": 4214, "pitch": 73, "duration": 6, "velocity": 100}, {"time": 4220, "pitch": 74, "duration": 5, "velocity": 93}, {"time": 4226, "pitch": 73, "duration": 6, "velocity": 102}, {"time": 4232, "pitch": 74, "duration": 3, "velocity": 97}, {"time": 4238, "pitch": 78, "duration": 2, "velocity": 112}, {"time": 4244, "pitch": 73, "duration": 8, "velocity": 127}, {"time": 4262, "pitch": 71, "duration": 7, "velocity": 107}, {"time": 4274, "pitch": 69, "duration": 10, "velocity": 122}, {"time": 4328, "pitch": 62, "duration": 4, "velocity": 97}, {"time": 4334, "pitch": 64, "duration": 2, "velocity": 88}, {"time": 4340, "pitch": 66, "duration": 14, "velocity": 107}, {"time": 4358, "pitch": 59, "duration": 4, "velocity": 88}, {"time": 4364, "pitch": 59, "duration": 26, "velocity": 83}, {"time": 4412, "pitch": 74, "duration": 2, "velocity": 122}, {"time": 4418, "pitch": 74, "duration": 2, "velocity": 102}, {"time": 4424, "pitch": 73, "duration": 2, "velocity": 127}, {"time": 4430, "pitch": 74, "duration": 2, "velocity": 100}, {"time": 4436, "pitch": 73, "duration": 3, "velocity": 127}, {"time": 4439, "pitch": 71, "duration": 77, "velocity": 112}]}, {"program": 0, "is_drum": false, "name": "BRIDGE", "notes": [{"time": 20, "pitch": 59, "duration": 7, "velocity": 96}, {"time": 26, "pitch": 71, "duration": 3, "velocity": 100}, {"time": 26, "pitch": 83, "duration": 3, "velocity": 97}, {"time": 32, "pitch": 71, "duration": 4, "velocity": 100}, {"time": 32, "pitch": 83, "duration": 4, "velocity": 99}, {"time": 38, "pitch": 69, "duration": 4, "velocity": 83}, {"time": 38, "pitch": 81, "duration": 6, "velocity": 93}, {"time": 44, "pitch": 71, "duration": 2, "velocity": 90}, {"time": 44, "pitch": 83, "duration": 6, "velocity": 95}, {"time": 56, "pitch": 73, "duration": 5, "velocity": 83}, {"time": 56, "pitch": 78, "duration": 6, "velocity": 95}, {"time": 62, "pitch": 71, "duration": 6, "velocity": 70}, {"time": 62, "pitch": 76, "duration": 6, "velocity": 75}, {"time": 68, "pitch": 73, "duration": 6, "velocity": 83}, {"time": 68, "pitch": 78, "duration": 5, "velocity": 97}, {"time": 80, "pitch": 71, "duration": 6, "velocity": 88}, {"time": 80, "pitch": 76, "duration": 5, "velocity": 92}, {"time": 86, "pitch": 73, "duration": 6, "velocity": 92}, {"time": 86, "pitch": 78, "duration": 6, "velocity": 93}, {"time": 92, "pitch": 71, "duration": 9, "velocity": 81}, {"time": 92, "pitch": 76, "duration": 7, "velocity": 96}, {"time": 122, "pitch": 78, "duration": 3, "velocity": 96}, {"time": 122, "pitch": 83, "duration": 3, "velocity": 96}, {"time": 128, "pitch": 78, "duration": 6, "velocity": 97}, {"time": 128, "pitch": 83, "duration": 4, "velocity": 102}, {"time": 134, "pitch": 76, "duration": 6, "velocity": 82}, {"time": 134, "pitch": 81, "duration": 4, "velocity": 97}, {"time": 140, "pitch": 78, "duration": 7, "velocity": 99}, {"time": 140, "pitch": 83, "duration": 9, "velocity": 96}, {"time": 152, "pitch": 76, "duration": 6, "velocity": 99}, {"time": 152, "pitch": 81, "duration": 4, "velocity": 97}, {"time": 158, "pitch": 73, "duration": 5, "velocity": 93}, {"time": 158, "pitch": 78, "duration": 5, "velocity": 95}, {"time": 164, "pitch": 71, "duration": 12, "velocity": 82}, {"time": 164, "pitch": 76, "duration": 11, "velocity": 93}, {"time": 200, "pitch": 83, "duration": 5, "velocity": 102}, {"time": 206, "pitch": 85, "duration": 6, "velocity": 102}, {"time": 212, "pitch": 86, "duration": 12, "velocity": 127}, {"time": 230, "pitch": 88, "duration": 5, "velocity": 99}, {"time": 236, "pitch": 86, "duration": 6, "velocity": 92}, {"time": 242, "pitch": 85, "duration": 6, "velocity": 99}, {"time": 248, "pitch": 83, "duration": 6, "velocity": 93}, {"time": 254, "pitch": 86, "duration": 5, "velocity": 92}, {"time": 260, "pitch": 85, "duration": 7, "velocity": 112}, {"time": 269, "pitch": 86, "duration": 2, "velocity": 89}, {"time": 272, "pitch": 85, "duration": 5, "velocity": 112}, {"time": 278, "pitch": 83, "duration": 5, "velocity": 99}, {"time": 284, "pitch": 81, "duration": 12, "velocity": 102}, {"time": 296, "pitch": 78, "duration": 5, "velocity": 100}, {"time": 302, "pitch": 81, "duration": 4, "velocity": 107}, {"time": 308, "pitch": 83, "duration": 30, "velocity": 117}, {"time": 338, "pitch": 74, "duration": 4, "velocity": 88}, {"time": 344, "pitch": 73, "duration": 12, "velocity": 82}, {"time": 356, "pitch": 71, "duration": 38, "velocity": 92}, {"time": 428, "pitch": 74, "duration": 4, "velocity": 99}, {"time": 434, "pitch": 73, "duration": 7, "velocity": 88}, {"time": 440, "pitch": 71, "duration": 6, "velocity": 85}, {"time": 446, "pitch": 69, "duration": 5, "velocity": 83}, {"time": 452, "pitch": 66, "duration": 19, "velocity": 74}, {"time": 518, "pitch": 66, "duration": 6, "velocity": 74}, {"time": 524, "pitch": 73, "duration": 8, "velocity": 92}, {"time": 530, "pitch": 71, "duration": 5, "velocity": 75}, {"time": 536, "pitch": 69, "duration": 5, "velocity": 81}, {"time": 542, "pitch": 66, "duration": 6, "velocity": 71}, {"time": 548, "pitch": 64, "duration": 26, "velocity": 69}, {"time": 644, "pitch": 73, "duration": 3, "velocity": 122}, {"time": 647, "pitch": 71, "duration": 2, "velocity": 58}, {"time": 650, "pitch": 69, "duration": 3, "velocity": 82}, {"time": 653, "pitch": 64, "duration": 3, "velocity": 82}, {"time": 656, "pitch": 61, "duration": 4, "velocity": 75}, {"time": 659, "pitch": 59, "duration": 2, "velocity": 69}, {"time": 662, "pitch": 57, "duration": 14, "velocity": 66}, {"time": 734, "pitch": 74, "duration": 5, "velocity": 83}, {"time": 740, "pitch": 73, "duration": 3, "velocity": 82}, {"time": 752, "pitch": 73, "duration": 12, "velocity": 107}, {"time": 764, "pitch": 70, "duration": 11, "velocity": 100}, {"time": 776, "pitch": 66, "duration": 11, "velocity": 96}, {"time": 788, "pitch": 71, "duration": 29, "velocity": 97}, {"time": 914, "pitch": 73, "duration": 3, "velocity": 95}, {"time": 917, "pitch": 74, "duration": 3, "velocity": 63}, {"time": 920, "pitch": 76, "duration": 3, "velocity": 89}, {"time": 923, "pitch": 74, "duration": 3, "velocity": 89}, {"time": 926, "pitch": 73, "duration": 3, "velocity": 86}, {"time": 929, "pitch": 71, "duration": 3, "velocity": 90}, {"time": 932, "pitch": 69, "duration": 27, "velocity": 89}, {"time": 1007, "pitch": 71, "duration": 4, "velocity": 82}, {"time": 1010, "pitch": 74, "duration": 3, "velocity": 77}, {"time": 1013, "pitch": 78, "duration": 2, "velocity": 99}, {"time": 1016, "pitch": 83, "duration": 2, "velocity": 95}, {"time": 1019, "pitch": 78, "duration": 3, "velocity": 102}, {"time": 1022, "pitch": 76, "duration": 2, "velocity": 71}, {"time": 1025, "pitch": 74, "duration": 3, "velocity": 90}, {"time": 1028, "pitch": 73, "duration": 3, "velocity": 97}, {"time": 1031, "pitch": 71, "duration": 3, "velocity": 85}, {"time": 1034, "pitch": 69, "duration": 28, "velocity": 81}, {"time": 1124, "pitch": 63, "duration": 11, "velocity": 96}, {"time": 1136, "pitch": 64, "duration": 12, "velocity": 93}, {"time": 1148, "pitch": 66, "duration": 10, "velocity": 107}, {"time": 1160, "pitch": 69, "duration": 12, "velocity": 117}, {"time": 1172, "pitch": 71, "duration": 34, "velocity": 112}, {"time": 1343, "pitch": 66, "duration": 2, "velocity": 107}, {"time": 1346, "pitch": 64, "duration": 2, "velocity": 77}, {"time": 1349, "pitch": 66, "duration": 1, "velocity": 97}, {"time": 1352, "pitch": 62, "duration": 2, "velocity": 90}, {"time": 1355, "pitch": 64, "duration": 2, "velocity": 92}, {"time": 1358, "pitch": 66, "duration": 2, "velocity": 107}, {"time": 1361, "pitch": 69, "duration": 1, "velocity": 95}, {"time": 1364, "pitch": 71, "duration": 21, "velocity": 112}, {"time": 1523, "pitch": 71, "duration": 2, "velocity": 76}, {"time": 1526, "pitch": 73, "duration": 3, "velocity": 88}, {"time": 1529, "pitch": 74, "duration": 2, "velocity": 89}, {"time": 1532, "pitch": 78, "duration": 2, "velocity": 107}, {"time": 1538, "pitch": 76, "duration": 6, "velocity": 102}, {"time": 1544, "pitch": 78, "duration": 6, "velocity": 122}, {"time": 1550, "pitch": 81, "duration": 6, "velocity": 99}, {"time": 1556, "pitch": 83, "duration": 25, "velocity": 127}, {"time": 1712, "pitch": 57, "duration": 5, "velocity": 92}, {"time": 1718, "pitch": 59, "duration": 5, "velocity": 72}, {"time": 1724, "pitch": 61, "duration": 11, "velocity": 96}, {"time": 1736, "pitch": 64, "duration": 12, "velocity": 86}, {"time": 1748, "pitch": 66, "duration": 23, "velocity": 92}, {"time": 1784, "pitch": 78, "duration": 12, "velocity": 95}, {"time": 1796, "pitch": 76, "duration": 25, "velocity": 82}, {"time": 1844, "pitch": 69, "duration": 7, "velocity": 90}, {"time": 1850, "pitch": 71, "duration": 6, "velocity": 81}, {"time": 1856, "pitch": 73, "duration": 5, "velocity": 100}, {"time": 1862, "pitch": 74, "duration": 5, "velocity": 96}, {"time": 1868, "pitch": 73, "duration": 9, "velocity": 112}, {"time": 1874, "pitch": 74, "duration": 5, "velocity": 93}, {"time": 1880, "pitch": 76, "duration": 5, "velocity": 95}, {"time": 1886, "pitch": 78, "duration": 12, "velocity": 97}, {"time": 1898, "pitch": 70, "duration": 1, "velocity": 102}, {"time": 1901, "pitch": 66, "duration": 3, "velocity": 83}, {"time": 1904, "pitch": 70, "duration": 1, "velocity": 99}, {"time": 1907, "pitch": 71, "duration": 2, "velocity": 77}, {"time": 1910, "pitch": 73, "duration": 2, "velocity": 96}, {"time": 1913, "pitch": 76, "duration": 2, "velocity": 82}, {"time": 1916, "pitch": 78, "duration": 1, "velocity": 102}, {"time": 1919, "pitch": 73, "duration": 2, "velocity": 96}, {"time": 1922, "pitch": 71, "duration": 3, "velocity": 62}, {"time": 1925, "pitch": 70, "duration": 1, "velocity": 95}, {"time": 1928, "pitch": 73, "duration": 4, "velocity": 88}, {"time": 1931, "pitch": 76, "duration": 3, "velocity": 73}, {"time": 1934, "pitch": 78, "duration": 2, "velocity": 92}, {"time": 1937, "pitch": 76, "duration": 3, "velocity": 66}, {"time": 1940, "pitch": 78, "duration": 26, "velocity": 96}, {"time": 2072, "pitch": 73, "duration": 6, "velocity": 96}, {"time": 2078, "pitch": 71, "duration": 5, "velocity": 93}, {"time": 2084, "pitch": 69, "duration": 23, "velocity": 95}, {"time": 2096, "pitch": 74, "duration": 12, "velocity": 95}, {"time": 2108, "pitch": 76, "duration": 13, "velocity": 96}, {"time": 2120, "pitch": 78, "duration": 10, "velocity": 97}, {"time": 2132, "pitch": 71, "duration": 28, "velocity": 93}, {"time": 2240, "pitch": 71, "duration": 5, "velocity": 99}, {"time": 2246, "pitch": 69, "duration": 5, "velocity": 99}, {"time": 2252, "pitch": 66, "duration": 21, "velocity": 100}, {"time": 2288, "pitch": 71, "duration": 7, "velocity": 99}, {"time": 2294, "pitch": 73, "duration": 4, "velocity": 99}, {"time": 2300, "pitch": 74, "duration": 6, "velocity": 97}, {"time": 2306, "pitch": 73, "duration": 6, "velocity": 102}, {"time": 2312, "pitch": 71, "duration": 6, "velocity": 92}, {"time": 2318, "pitch": 78, "duration": 6, "velocity": 117}, {"time": 2324, "pitch": 73, "duration": 6, "velocity": 102}, {"time": 2342, "pitch": 66, "duration": 5, "velocity": 102}, {"time": 2348, "pitch": 69, "duration": 14, "velocity": 102}, {"time": 2360, "pitch": 86, "duration": 13, "velocity": 97}, {"time": 2372, "pitch": 88, "duration": 13, "velocity": 96}, {"time": 2384, "pitch": 71, "duration": 6, "velocity": 96}, {"time": 2390, "pitch": 73, "duration": 5, "velocity": 95}, {"time": 2396, "pitch": 74, "duration": 5, "velocity": 99}, {"time": 2402, "pitch": 73, "duration": 5, "velocity": 100}, {"time": 2408, "pitch": 71, "duration": 6, "velocity": 93}, {"time": 2414, "pitch": 69, "duration": 6, "velocity": 83}, {"time": 2420, "pitch": 71, "duration": 17, "velocity": 93}, {"time": 2456, "pitch": 83, "duration": 6, "velocity": 112}, {"time": 2462, "pitch": 85, "duration": 6, "velocity": 100}, {"time": 2468, "pitch": 86, "duration": 13, "velocity": 117}, {"time": 2492, "pitch": 74, "duration": 6, "velocity": 92}, {"time": 2498, "pitch": 76, "duration": 5, "velocity": 90}, {"time": 2504, "pitch": 78, "duration": 5, "velocity": 102}, {"time": 2510, "pitch": 81, "duration": 6, "velocity": 96}, {"time": 2516, "pitch": 78, "duration": 32, "velocity": 112}, {"time": 2540, "pitch": 62, "duration": 5, "velocity": 90}, {"time": 2546, "pitch": 57, "duration": 6, "velocity": 67}, {"time": 2552, "pitch": 62, "duration": 7, "velocity": 83}, {"time": 2558, "pitch": 66, "duration": 4, "velocity": 96}, {"time": 2564, "pitch": 66, "duration": 9, "velocity": 89}, {"time": 2570, "pitch": 73, "duration": 3, "velocity": 127}, {"time": 2576, "pitch": 70, "duration": 2, "velocity": 127}, {"time": 2582, "pitch": 70, "duration": 2, "velocity": 127}, {"time": 2704, "pitch": 73, "duration": 2, "velocity": 99}, {"time": 2706, "pitch": 71, "duration": 2, "velocity": 63}, {"time": 2707, "pitch": 69, "duration": 14, "velocity": 89}, {"time": 2774, "pitch": 64, "duration": 5, "velocity": 93}, {"time": 2783, "pitch": 66, "duration": 2, "velocity": 88}, {"time": 2786, "pitch": 64, "duration": 3, "velocity": 75}, {"time": 2789, "pitch": 66, "duration": 2, "velocity": 93}, {"time": 2792, "pitch": 62, "duration": 3, "velocity": 68}, {"time": 2795, "pitch": 64, "duration": 4, "velocity": 78}, {"time": 2798, "pitch": 66, "duration": 3, "velocity": 95}, {"time": 2801, "pitch": 69, "duration": 3, "velocity": 83}, {"time": 2804, "pitch": 71, "duration": 14, "velocity": 88}, {"time": 2948, "pitch": 71, "duration": 9, "velocity": 89}, {"time": 2960, "pitch": 71, "duration": 5, "velocity": 96}, {"time": 2966, "pitch": 73, "duration": 5, "velocity": 93}, {"time": 2972, "pitch": 70, "duration": 15, "velocity": 107}, {"time": 3668, "pitch": 69, "duration": 7, "velocity": 90}, {"time": 3674, "pitch": 71, "duration": 6, "velocity": 81}, {"time": 3680, "pitch": 73, "duration": 5, "velocity": 100}, {"time": 3686, "pitch": 74, "duration": 5, "velocity": 96}, {"time": 3692, "pitch": 73, "duration": 9, "velocity": 112}, {"time": 3698, "pitch": 74, "duration": 5, "velocity": 93}, {"time": 3704, "pitch": 76, "duration": 5, "velocity": 95}, {"time": 3710, "pitch": 78, "duration": 12, "velocity": 97}, {"time": 3722, "pitch": 70, "duration": 1, "velocity": 102}, {"time": 3725, "pitch": 66, "duration": 3, "velocity": 83}, {"time": 3728, "pitch": 70, "duration": 1, "velocity": 99}, {"time": 3731, "pitch": 71, "duration": 2, "velocity": 77}, {"time": 3734, "pitch": 73, "duration": 2, "velocity": 96}, {"time": 3737, "pitch": 76, "duration": 2, "velocity": 82}, {"time": 3740, "pitch": 78, "duration": 1, "velocity": 102}, {"time": 3743, "pitch": 73, "duration": 2, "velocity": 96}, {"time": 3746, "pitch": 71, "duration": 3, "velocity": 62}, {"time": 3749, "pitch": 70, "duration": 1, "velocity": 95}, {"time": 3752, "pitch": 73, "duration": 4, "velocity": 88}, {"time": 3755, "pitch": 76, "duration": 3, "velocity": 73}, {"time": 3758, "pitch": 78, "duration": 2, "velocity": 92}, {"time": 3761, "pitch": 76, "duration": 3, "velocity": 66}, {"time": 3764, "pitch": 78, "duration": 26, "velocity": 96}, {"time": 3920, "pitch": 57, "duration": 5, "velocity": 90}, {"time": 3926, "pitch": 59, "duration": 6, "velocity": 76}, {"time": 3932, "pitch": 61, "duration": 24, "velocity": 96}, {"time": 3992, "pitch": 78, "duration": 12, "velocity": 107}, {"time": 4004, "pitch": 76, "duration": 24, "velocity": 96}, {"time": 4058, "pitch": 71, "duration": 5, "velocity": 93}, {"time": 4064, "pitch": 73, "duration": 6, "velocity": 97}, {"time": 4070, "pitch": 74, "duration": 5, "velocity": 93}, {"time": 4076, "pitch": 73, "duration": 9, "velocity": 107}, {"time": 4082, "pitch": 74, "duration": 6, "velocity": 92}, {"time": 4088, "pitch": 76, "duration": 5, "velocity": 92}, {"time": 4094, "pitch": 74, "duration": 6, "velocity": 83}, {"time": 4100, "pitch": 78, "duration": 27, "velocity": 100}, {"time": 4115, "pitch": 70, "duration": 2, "velocity": 88}, {"time": 4118, "pitch": 71, "duration": 3, "velocity": 73}, {"time": 4121, "pitch": 73, "duration": 2, "velocity": 97}, {"time": 4124, "pitch": 76, "duration": 2, "velocity": 86}, {"time": 4127, "pitch": 73, "duration": 4, "velocity": 89}, {"time": 4130, "pitch": 74, "duration": 3, "velocity": 69}, {"time": 4133, "pitch": 73, "duration": 2, "velocity": 73}, {"time": 4136, "pitch": 76, "duration": 2, "velocity": 83}, {"time": 4139, "pitch": 73, "duration": 3, "velocity": 92}, {"time": 4142, "pitch": 76, "duration": 3, "velocity": 78}, {"time": 4145, "pitch": 78, "duration": 1, "velocity": 93}, {"time": 4148, "pitch": 78, "duration": 23, "velocity": 96}, {"time": 4304, "pitch": 62, "duration": 14, "velocity": 89}, {"time": 4316, "pitch": 64, "duration": 12, "velocity": 86}, {"time": 4328, "pitch": 66, "duration": 33, "velocity": 107}, {"time": 4472, "pitch": 78, "duration": 5, "velocity": 99}, {"time": 4478, "pitch": 81, "duration": 6, "velocity": 89}, {"time": 4484, "pitch": 83, "duration": 13, "velocity": 102}, {"time": 4496, "pitch": 81, "duration": 11, "velocity": 97}, {"time": 4508, "pitch": 78, "duration": 18, "velocity": 102}, {"time": 4520, "pitch": 76, "duration": 12, "velocity": 96}, {"time": 4532, "pitch": 78, "duration": 29, "velocity": 102}, {"time": 4568, "pitch": 76, "duration": 12, "velocity": 100}, {"time": 4580, "pitch": 78, "duration": 12, "velocity": 112}, {"time": 4592, "pitch": 76, "duration": 11, "velocity": 99}, {"time": 4604, "pitch": 78, "duration": 14, "velocity": 99}, {"time": 4616, "pitch": 83, "duration": 5, "velocity": 97}, {"time": 4622, "pitch": 85, "duration": 4, "velocity": 107}, {"time": 4628, "pitch": 86, "duration": 14, "velocity": 122}, {"time": 4646, "pitch": 88, "duration": 4, "velocity": 112}, {"time": 4652, "pitch": 86, "duration": 5, "velocity": 117}, {"time": 4658, "pitch": 85, "duration": 4, "velocity": 107}, {"time": 4664, "pitch": 83, "duration": 4, "velocity": 95}, {"time": 4670, "pitch": 86, "duration": 5, "velocity": 92}, {"time": 4676, "pitch": 85, "duration": 13, "velocity": 112}, {"time": 4685, "pitch": 86, "duration": 2, "velocity": 95}, {"time": 4688, "pitch": 85, "duration": 1, "velocity": 102}, {"time": 4694, "pitch": 83, "duration": 5, "velocity": 107}, {"time": 4700, "pitch": 81, "duration": 11, "velocity": 112}, {"time": 4712, "pitch": 78, "duration": 5, "velocity": 102}, {"time": 4718, "pitch": 81, "duration": 4, "velocity": 97}, {"time": 4724, "pitch": 83, "duration": 11, "velocity": 117}, {"time": 4754, "pitch": 74, "duration": 5, "velocity": 90}, {"time": 4760, "pitch": 76, "duration": 5, "velocity": 93}, {"time": 4763, "pitch": 78, "duration": 7, "velocity": 69}, {"time": 4772, "pitch": 71, "duration": 48, "velocity": 93}, {"time": 4820, "pitch": 59, "duration": 50, "velocity": 75}, {"time": 4820, "pitch": 71, "duration": 50, "velocity": 63}]}, {"program": 0, "is_drum": false, "name": "PIANO", "notes": [{"time": 20, "pitch": 35, "duration": 45, "velocity": 63}, {"time": 26, "pitch": 42, "duration": 42, "velocity": 45}, {"time": 32, "pitch": 47, "duration": 40, "velocity": 56}, {"time": 38, "pitch": 59, "duration": 42, "velocity": 55}, {"time": 44, "pitch": 62, "duration": 47, "velocity": 72}, {"time": 44, "pitch": 66, "duration": 45, "velocity": 77}, {"time": 68, "pitch": 35, "duration": 29, "velocity": 58}, {"time": 74, "pitch": 42, "duration": 23, "velocity": 36}, {"time": 80, "pitch": 47, "duration": 19, "velocity": 42}, {"time": 86, "pitch": 59, "duration": 31, "velocity": 47}, {"time": 92, "pitch": 62, "duration": 25, "velocity": 41}, {"time": 92, "pitch": 66, "duration": 24, "velocity": 82}, {"time": 116, "pitch": 43, "duration": 45, "velocity": 71}, {"time": 122, "pitch": 50, "duration": 42, "velocity": 63}, {"time": 128, "pitch": 55, "duration": 41, "velocity": 81}, {"time": 134, "pitch": 59, "duration": 20, "velocity": 66}, {"time": 140, "pitch": 62, "duration": 43, "velocity": 79}, {"time": 140, "pitch": 67, "duration": 43, "velocity": 81}, {"time": 158, "pitch": 59, "duration": 20, "velocity": 56}, {"time": 164, "pitch": 43, "duration": 36, "velocity": 67}, {"time": 170, "pitch": 50, "duration": 30, "velocity": 56}, {"time": 176, "pitch": 55, "duration": 15, "velocity": 82}, {"time": 182, "pitch": 59, "duration": 18, "velocity": 64}, {"time": 188, "pitch": 62, "duration": 12, "velocity": 73}, {"time": 188, "pitch": 67, "duration": 12, "velocity": 75}, {"time": 200, "pitch": 45, "duration": 8, "velocity": 59}, {"time": 200, "pitch": 57, "duration": 10, "velocity": 76}, {"time": 200, "pitch": 61, "duration": 10, "velocity": 90}, {"time": 200, "pitch": 64, "duration": 10, "velocity": 78}, {"time": 212, "pitch": 35, "duration": 45, "velocity": 68}, {"time": 218, "pitch": 42, "duration": 42, "velocity": 38}, {"time": 224, "pitch": 47, "duration": 37, "velocity": 77}, {"time": 230, "pitch": 59, "duration": 18, "velocity": 75}, {"time": 236, "pitch": 66, "duration": 42, "velocity": 102}, {"time": 248, "pitch": 62, "duration": 31, "velocity": 58}, {"time": 254, "pitch": 59, "duration": 20, "velocity": 69}, {"time": 260, "pitch": 35, "duration": 32, "velocity": 53}, {"time": 266, "pitch": 42, "duration": 24, "velocity": 66}, {"time": 272, "pitch": 47, "duration": 16, "velocity": 85}, {"time": 278, "pitch": 59, "duration": 19, "velocity": 72}, {"time": 284, "pitch": 66, "duration": 20, "velocity": 117}, {"time": 296, "pitch": 62, "duration": 13, "velocity": 85}, {"time": 302, "pitch": 59, "duration": 8, "velocity": 81}, {"time": 308, "pitch": 43, "duration": 44, "velocity": 83}, {"time": 314, "pitch": 50, "duration": 42, "velocity": 50}, {"time": 320, "pitch": 55, "duration": 14, "velocity": 95}, {"time": 326, "pitch": 59, "duration": 18, "velocity": 88}, {"time": 332, "pitch": 67, "duration": 44, "velocity": 99}, {"time": 338, "pitch": 55, "duration": 29, "velocity": 79}, {"time": 344, "pitch": 62, "duration": 59, "velocity": 82}, {"time": 350, "pitch": 59, "duration": 18, "velocity": 81}, {"time": 356, "pitch": 43, "duration": 37, "velocity": 85}, {"time": 362, "pitch": 50, "duration": 29, "velocity": 63}, {"time": 368, "pitch": 55, "duration": 21, "velocity": 68}, {"time": 374, "pitch": 59, "duration": 29, "velocity": 67}, {"time": 380, "pitch": 67, "duration": 21, "velocity": 61}, {"time": 404, "pitch": 47, "duration": 43, "velocity": 83}, {"time": 410, "pitch": 54, "duration": 20, "velocity": 92}, {"time": 416, "pitch": 59, "duration": 16, "velocity": 75}, {"time": 422, "pitch": 62, "duration": 7, "velocity": 66}, {"time": 428, "pitch": 66, "duration": 24, "velocity": 102}, {"time": 434, "pitch": 54, "duration": 16, "velocity": 54}, {"time": 440, "pitch": 62, "duration": 12, "velocity": 81}, {"time": 446, "pitch": 59, "duration": 6, "velocity": 62}, {"time": 452, "pitch": 47, "duration": 37, "velocity": 75}, {"time": 458, "pitch": 54, "duration": 30, "velocity": 64}, {"time": 464, "pitch": 59, "duration": 15, "velocity": 78}, {"time": 470, "pitch": 62, "duration": 19, "velocity": 76}, {"time": 476, "pitch": 71, "duration": 24, "velocity": 117}, {"time": 482, "pitch": 59, "duration": 4, "velocity": 78}, {"time": 488, "pitch": 66, "duration": 12, "velocity": 107}, {"time": 494, "pitch": 62, "duration": 6, "velocity": 82}, {"time": 500, "pitch": 45, "duration": 45, "velocity": 83}, {"time": 506, "pitch": 52, "duration": 22, "velocity": 73}, {"time": 512, "pitch": 57, "duration": 22, "velocity": 77}, {"time": 518, "pitch": 61, "duration": 6, "velocity": 67}, {"time": 524, "pitch": 64, "duration": 24, "velocity": 89}, {"time": 530, "pitch": 52, "duration": 17, "velocity": 54}, {"time": 536, "pitch": 61, "duration": 12, "velocity": 95}, {"time": 542, "pitch": 57, "duration": 6, "velocity": 71}, {"time": 548, "pitch": 45, "duration": 35, "velocity": 74}, {"time": 554, "pitch": 52, "duration": 22, "velocity": 39}, {"time": 560, "pitch": 57, "duration": 14, "velocity": 77}, {"time": 566, "pitch": 61, "duration": 10, "velocity": 48}, {"time": 572, "pitch": 64, "duration": 23, "velocity": 70}, {"time": 572, "pitch": 69, "duration": 23, "velocity": 69}, {"time": 578, "pitch": 52, "duration": 4, "velocity": 61}, {"time": 584, "pitch": 61, "duration": 12, "velocity": 61}, {"time": 593, "pitch": 43, "duration": 45, "velocity": 75}, {"time": 602, "pitch": 50, "duration": 40, "velocity": 54}, {"time": 608, "pitch": 55, "duration": 14, "velocity": 73}, {"time": 614, "pitch": 59, "duration": 29, "velocity": 57}, {"time": 620, "pitch": 67, "duration": 23, "velocity": 83}, {"time": 626, "pitch": 55, "duration": 14, "velocity": 48}, {"time": 632, "pitch": 62, "duration": 11, "velocity": 62}, {"time": 644, "pitch": 45, "duration": 35, "velocity": 69}, {"time": 650, "pitch": 52, "duration": 21, "velocity": 48}, {"time": 656, "pitch": 57, "duration": 37, "velocity": 74}, {"time": 662, "pitch": 61, "duration": 5, "velocity": 73}, {"time": 668, "pitch": 64, "duration": 24, "velocity": 97}, {"time": 674, "pitch": 52, "duration": 4, "velocity": 48}, {"time": 680, "pitch": 61, "duration": 11, "velocity": 96}, {"time": 692, "pitch": 38, "duration": 31, "velocity": 72}, {"time": 698, "pitch": 45, "duration": 25, "velocity": 79}, {"time": 704, "pitch": 50, "duration": 14, "velocity": 93}, {"time": 710, "pitch": 57, "duration": 18, "velocity": 85}, {"time": 716, "pitch": 66, "duration": 22, "velocity": 112}, {"time": 722, "pitch": 50, "duration": 4, "velocity": 77}, {"time": 728, "pitch": 62, "duration": 11, "velocity": 68}, {"time": 734, "pitch": 57, "duration": 4, "velocity": 66}, {"time": 740, "pitch": 42, "duration": 35, "velocity": 77}, {"time": 746, "pitch": 49, "duration": 28, "velocity": 40}, {"time": 752, "pitch": 54, "duration": 15, "velocity": 90}, {"time": 758, "pitch": 58, "duration": 29, "velocity": 68}, {"time": 764, "pitch": 61, "duration": 23, "velocity": 67}, {"time": 770, "pitch": 54, "duration": 7, "velocity": 73}, {"time": 776, "pitch": 66, "duration": 12, "velocity": 92}, {"time": 788, "pitch": 47, "duration": 45, "velocity": 79}, {"time": 794, "pitch": 54, "duration": 43, "velocity": 82}, {"time": 800, "pitch": 59, "duration": 12, "velocity": 96}, {"time": 806, "pitch": 62, "duration": 6, "velocity": 83}, {"time": 812, "pitch": 66, "duration": 27, "velocity": 100}, {"time": 818, "pitch": 59, "duration": 6, "velocity": 89}, {"time": 824, "pitch": 61, "duration": 8, "velocity": 72}, {"time": 830, "pitch": 62, "duration": 6, "velocity": 60}, {"time": 836, "pitch": 47, "duration": 36, "velocity": 77}, {"time": 842, "pitch": 54, "duration": 21, "velocity": 60}, {"time": 848, "pitch": 59, "duration": 17, "velocity": 47}, {"time": 854, "pitch": 62, "duration": 6, "velocity": 58}, {"time": 860, "pitch": 66, "duration": 23, "velocity": 127}, {"time": 866, "pitch": 54, "duration": 6, "velocity": 77}, {"time": 872, "pitch": 62, "duration": 12, "velocity": 93}, {"time": 878, "pitch": 59, "duration": 6, "velocity": 81}, {"time": 884, "pitch": 45, "duration": 45, "velocity": 79}, {"time": 890, "pitch": 52, "duration": 42, "velocity": 50}, {"time": 896, "pitch": 57, "duration": 13, "velocity": 81}, {"time": 902, "pitch": 61, "duration": 9, "velocity": 78}, {"time": 908, "pitch": 64, "duration": 13, "velocity": 66}, {"time": 908, "pitch": 69, "duration": 40, "velocity": 67}, {"time": 914, "pitch": 57, "duration": 9, "velocity": 70}, {"time": 920, "pitch": 61, "duration": 25, "velocity": 72}, {"time": 926, "pitch": 64, "duration": 31, "velocity": 58}, {"time": 932, "pitch": 45, "duration": 36, "velocity": 61}, {"time": 938, "pitch": 52, "duration": 21, "velocity": 41}, {"time": 944, "pitch": 57, "duration": 6, "velocity": 77}, {"time": 950, "pitch": 61, "duration": 18, "velocity": 83}, {"time": 956, "pitch": 69, "duration": 23, "velocity": 65}, {"time": 962, "pitch": 52, "duration": 6, "velocity": 51}, {"time": 968, "pitch": 64, "duration": 11, "velocity": 59}, {"time": 974, "pitch": 61, "duration": 6, "velocity": 63}, {"time": 980, "pitch": 43, "duration": 40, "velocity": 75}, {"time": 986, "pitch": 50, "duration": 41, "velocity": 68}, {"time": 992, "pitch": 55, "duration": 15, "velocity": 89}, {"time": 998, "pitch": 59, "duration": 19, "velocity": 72}, {"time": 1004, "pitch": 67, "duration": 23, "velocity": 96}, {"time": 1010, "pitch": 55, "duration": 4, "velocity": 55}, {"time": 1016, "pitch": 62, "duration": 12, "velocity": 74}, {"time": 1022, "pitch": 59, "duration": 6, "velocity": 82}, {"time": 1028, "pitch": 45, "duration": 37, "velocity": 66}, {"time": 1034, "pitch": 52, "duration": 20, "velocity": 63}, {"time": 1040, "pitch": 57, "duration": 19, "velocity": 77}, {"time": 1046, "pitch": 61, "duration": 5, "velocity": 90}, {"time": 1052, "pitch": 64, "duration": 24, "velocity": 99}, {"time": 1058, "pitch": 52, "duration": 7, "velocity": 52}, {"time": 1064, "pitch": 61, "duration": 12, "velocity": 90}, {"time": 1070, "pitch": 57, "duration": 6, "velocity": 81}, {"time": 1076, "pitch": 47, "duration": 42, "velocity": 79}, {"time": 1082, "pitch": 54, "duration": 21, "velocity": 70}, {"time": 1088, "pitch": 59, "duration": 14, "velocity": 63}, {"time": 1094, "pitch": 62, "duration": 8, "velocity": 51}, {"time": 1100, "pitch": 66, "duration": 18, "velocity": 107}, {"time": 1106, "pitch": 54, "duration": 8, "velocity": 71}, {"time": 1112, "pitch": 59, "duration": 38, "velocity": 86}, {"time": 1118, "pitch": 62, "duration": 5, "velocity": 81}, {"time": 1124, "pitch": 47, "duration": 28, "velocity": 76}, {"time": 1124, "pitch": 63, "duration": 22, "velocity": 93}, {"time": 1124, "pitch": 66, "duration": 22, "velocity": 107}, {"time": 1148, "pitch": 63, "duration": 15, "velocity": 117}, {"time": 1148, "pitch": 66, "duration": 15, "velocity": 122}, {"time": 1154, "pitch": 47, "duration": 8, "velocity": 90}, {"time": 1160, "pitch": 59, "duration": 11, "velocity": 102}, {"time": 1166, "pitch": 63, "duration": 5, "velocity": 112}, {"time": 1166, "pitch": 66, "duration": 6, "velocity": 127}, {"time": 1172, "pitch": 43, "duration": 45, "velocity": 89}, {"time": 1175, "pitch": 50, "duration": 42, "velocity": 97}, {"time": 1178, "pitch": 55, "duration": 7, "velocity": 95}, {"time": 1181, "pitch": 59, "duration": 7, "velocity": 70}, {"time": 1184, "pitch": 62, "duration": 7, "velocity": 89}, {"time": 1187, "pitch": 55, "duration": 3, "velocity": 76}, {"time": 1190, "pitch": 59, "duration": 7, "velocity": 82}, {"time": 1193, "pitch": 55, "duration": 3, "velocity": 70}, {"time": 1196, "pitch": 67, "duration": 9, "velocity": 97}, {"time": 1199, "pitch": 55, "duration": 3, "velocity": 77}, {"time": 1202, "pitch": 59, "duration": 8, "velocity": 66}, {"time": 1205, "pitch": 55, "duration": 4, "velocity": 59}, {"time": 1208, "pitch": 67, "duration": 10, "velocity": 92}, {"time": 1211, "pitch": 55, "duration": 2, "velocity": 69}, {"time": 1214, "pitch": 62, "duration": 4, "velocity": 77}, {"time": 1217, "pitch": 59, "duration": 2, "velocity": 93}, {"time": 1220, "pitch": 45, "duration": 21, "velocity": 76}, {"time": 1223, "pitch": 52, "duration": 10, "velocity": 77}, {"time": 1226, "pitch": 57, "duration": 5, "velocity": 82}, {"time": 1229, "pitch": 61, "duration": 2, "velocity": 78}, {"time": 1232, "pitch": 64, "duration": 15, "velocity": 97}, {"time": 1235, "pitch": 52, "duration": 8, "velocity": 59}, {"time": 1238, "pitch": 61, "duration": 6, "velocity": 95}, {"time": 1241, "pitch": 57, "duration": 3, "velocity": 76}, {"time": 1244, "pitch": 45, "duration": 15, "velocity": 75}, {"time": 1250, "pitch": 52, "duration": 6, "velocity": 66}, {"time": 1256, "pitch": 64, "duration": 10, "velocity": 102}, {"time": 1259, "pitch": 52, "duration": 1, "velocity": 37}, {"time": 1262, "pitch": 61, "duration": 5, "velocity": 102}, {"time": 1265, "pitch": 57, "duration": 2, "velocity": 82}, {"time": 1268, "pitch": 42, "duration": 22, "velocity": 77}, {"time": 1271, "pitch": 49, "duration": 19, "velocity": 48}, {"time": 1274, "pitch": 54, "duration": 7, "velocity": 92}, {"time": 1277, "pitch": 57, "duration": 5, "velocity": 74}, {"time": 1280, "pitch": 66, "duration": 20, "velocity": 112}, {"time": 1283, "pitch": 54, "duration": 13, "velocity": 76}, {"time": 1286, "pitch": 61, "duration": 14, "velocity": 76}, {"time": 1289, "pitch": 57, "duration": 12, "velocity": 86}, {"time": 1292, "pitch": 42, "duration": 17, "velocity": 89}, {"time": 1298, "pitch": 49, "duration": 10, "velocity": 35}, {"time": 1304, "pitch": 66, "duration": 10, "velocity": 117}, {"time": 1307, "pitch": 54, "duration": 1, "velocity": 82}, {"time": 1310, "pitch": 61, "duration": 4, "velocity": 96}, {"time": 1313, "pitch": 57, "duration": 2, "velocity": 90}, {"time": 1316, "pitch": 40, "duration": 37, "velocity": 75}, {"time": 1319, "pitch": 47, "duration": 34, "velocity": 71}, {"time": 1322, "pitch": 52, "duration": 7, "velocity": 73}, {"time": 1325, "pitch": 56, "duration": 5, "velocity": 56}, {"time": 1328, "pitch": 59, "duration": 8, "velocity": 47}, {"time": 1334, "pitch": 52, "duration": 9, "velocity": 78}, {"time": 1340, "pitch": 56, "duration": 6, "velocity": 81}, {"time": 1340, "pitch": 59, "duration": 13, "velocity": 73}, {"time": 1340, "pitch": 64, "duration": 22, "velocity": 79}, {"time": 1346, "pitch": 52, "duration": 7, "velocity": 82}, {"time": 1352, "pitch": 56, "duration": 7, "velocity": 112}, {"time": 1358, "pitch": 59, "duration": 5, "velocity": 69}, {"time": 1364, "pitch": 43, "duration": 43, "velocity": 88}, {"time": 1367, "pitch": 50, "duration": 24, "velocity": 78}, {"time": 1370, "pitch": 55, "duration": 7, "velocity": 90}, {"time": 1373, "pitch": 59, "duration": 25, "velocity": 72}, {"time": 1376, "pitch": 67, "duration": 21, "velocity": 92}, {"time": 1382, "pitch": 55, "duration": 6, "velocity": 72}, {"time": 1388, "pitch": 62, "duration": 9, "velocity": 95}, {"time": 1394, "pitch": 50, "duration": 6, "velocity": 66}, {"time": 1400, "pitch": 62, "duration": 6, "velocity": 97}, {"time": 1400, "pitch": 67, "duration": 11, "velocity": 99}, {"time": 1403, "pitch": 50, "duration": 7, "velocity": 72}, {"time": 1406, "pitch": 59, "duration": 4, "velocity": 96}, {"time": 1409, "pitch": 62, "duration": 2, "velocity": 70}, {"time": 1412, "pitch": 45, "duration": 36, "velocity": 83}, {"time": 1418, "pitch": 52, "duration": 8, "velocity": 67}, {"time": 1424, "pitch": 61, "duration": 10, "velocity": 112}, {"time": 1430, "pitch": 52, "duration": 9, "velocity": 72}, {"time": 1436, "pitch": 61, "duration": 13, "velocity": 112}, {"time": 1436, "pitch": 64, "duration": 20, "velocity": 92}, {"time": 1442, "pitch": 52, "duration": 4, "velocity": 53}, {"time": 1448, "pitch": 57, "duration": 12, "velocity": 96}, {"time": 1454, "pitch": 61, "duration": 5, "velocity": 50}, {"time": 1460, "pitch": 42, "duration": 40, "velocity": 117}, {"time": 1466, "pitch": 54, "duration": 19, "velocity": 83}, {"time": 1472, "pitch": 57, "duration": 19, "velocity": 95}, {"time": 1478, "pitch": 61, "duration": 18, "velocity": 107}, {"time": 1484, "pitch": 66, "duration": 12, "velocity": 117}, {"time": 1487, "pitch": 54, "duration": 3, "velocity": 85}, {"time": 1496, "pitch": 57, "duration": 6, "velocity": 95}, {"time": 1505, "pitch": 42, "duration": 24, "velocity": 99}, {"time": 1508, "pitch": 59, "duration": 11, "velocity": 102}, {"time": 1508, "pitch": 61, "duration": 11, "velocity": 107}, {"time": 1520, "pitch": 54, "duration": 11, "velocity": 90}, {"time": 1520, "pitch": 61, "duration": 1, "velocity": 43}, {"time": 1526, "pitch": 61, "duration": 4, "velocity": 117}, {"time": 1532, "pitch": 46, "duration": 16, "velocity": 117}, {"time": 1532, "pitch": 54, "duration": 10, "velocity": 81}, {"time": 1532, "pitch": 58, "duration": 10, "velocity": 127}, {"time": 1532, "pitch": 61, "duration": 10, "velocity": 127}, {"time": 1544, "pitch": 58, "duration": 11, "velocity": 107}, {"time": 1544, "pitch": 61, "duration": 11, "velocity": 112}, {"time": 1550, "pitch": 54, "duration": 5, "velocity": 112}, {"time": 1556, "pitch": 47, "duration": 45, "velocity": 88}, {"time": 1565, "pitch": 54, "duration": 13, "velocity": 73}, {"time": 1568, "pitch": 59, "duration": 4, "velocity": 66}, {"time": 1568, "pitch": 62, "duration": 4, "velocity": 97}, {"time": 1568, "pitch": 66, "duration": 4, "velocity": 102}, {"time": 1574, "pitch": 59, "duration": 15, "velocity": 83}, {"time": 1574, "pitch": 62, "duration": 15, "velocity": 90}, {"time": 1574, "pitch": 66, "duration": 15, "velocity": 95}, {"time": 1589, "pitch": 54, "duration": 13, "velocity": 82}, {"time": 1592, "pitch": 62, "duration": 17, "velocity": 95}, {"time": 1592, "pitch": 66, "duration": 17, "velocity": 107}, {"time": 1598, "pitch": 59, "duration": 11, "velocity": 90}, {"time": 1604, "pitch": 47, "duration": 15, "velocity": 92}, {"time": 1613, "pitch": 54, "duration": 11, "velocity": 93}, {"time": 1616, "pitch": 59, "duration": 3, "velocity": 88}, {"time": 1616, "pitch": 62, "duration": 4, "velocity": 89}, {"time": 1616, "pitch": 66, "duration": 4, "velocity": 96}, {"time": 1622, "pitch": 59, "duration": 12, "velocity": 90}, {"time": 1622, "pitch": 62, "duration": 14, "velocity": 81}, {"time": 1622, "pitch": 66, "duration": 15, "velocity": 88}, {"time": 1628, "pitch": 47, "duration": 20, "velocity": 89}, {"time": 1637, "pitch": 54, "duration": 3, "velocity": 93}, {"time": 1640, "pitch": 62, "duration": 6, "velocity": 99}, {"time": 1640, "pitch": 66, "duration": 10, "velocity": 112}, {"time": 1643, "pitch": 54, "duration": 3, "velocity": 93}, {"time": 1646, "pitch": 59, "duration": 5, "velocity": 107}, {"time": 1649, "pitch": 62, "duration": 2, "velocity": 77}, {"time": 1652, "pitch": 45, "duration": 21, "velocity": 88}, {"time": 1661, "pitch": 52, "duration": 14, "velocity": 79}, {"time": 1664, "pitch": 61, "duration": 20, "velocity": 100}, {"time": 1664, "pitch": 64, "duration": 20, "velocity": 90}, {"time": 1670, "pitch": 57, "duration": 12, "velocity": 97}, {"time": 1676, "pitch": 45, "duration": 21, "velocity": 99}, {"time": 1685, "pitch": 52, "duration": 3, "velocity": 99}, {"time": 1688, "pitch": 64, "duration": 12, "velocity": 92}, {"time": 1691, "pitch": 52, "duration": 7, "velocity": 95}, {"time": 1694, "pitch": 61, "duration": 5, "velocity": 102}, {"time": 1697, "pitch": 57, "duration": 2, "velocity": 86}, {"time": 1700, "pitch": 45, "duration": 21, "velocity": 93}, {"time": 1709, "pitch": 52, "duration": 15, "velocity": 86}, {"time": 1712, "pitch": 61, "duration": 7, "velocity": 102}, {"time": 1712, "pitch": 64, "duration": 15, "velocity": 85}, {"time": 1718, "pitch": 57, "duration": 7, "velocity": 96}, {"time": 1724, "pitch": 45, "duration": 17, "velocity": 96}, {"time": 1733, "pitch": 52, "duration": 3, "velocity": 78}, {"time": 1736, "pitch": 61, "duration": 5, "velocity": 99}, {"time": 1736, "pitch": 64, "duration": 11, "velocity": 92}, {"time": 1739, "pitch": 52, "duration": 2, "velocity": 83}, {"time": 1742, "pitch": 57, "duration": 5, "velocity": 93}, {"time": 1745, "pitch": 61, "duration": 2, "velocity": 102}, {"time": 1748, "pitch": 43, "duration": 22, "velocity": 90}, {"time": 1757, "pitch": 50, "duration": 15, "velocity": 88}, {"time": 1760, "pitch": 59, "duration": 16, "velocity": 89}, {"time": 1760, "pitch": 62, "duration": 17, "velocity": 89}, {"time": 1766, "pitch": 55, "duration": 8, "velocity": 96}, {"time": 1772, "pitch": 43, "duration": 18, "velocity": 82}, {"time": 1781, "pitch": 50, "duration": 3, "velocity": 89}, {"time": 1784, "pitch": 59, "duration": 6, "velocity": 88}, {"time": 1784, "pitch": 62, "duration": 10, "velocity": 88}, {"time": 1787, "pitch": 50, "duration": 8, "velocity": 85}, {"time": 1790, "pitch": 55, "duration": 4, "velocity": 97}, {"time": 1793, "pitch": 59, "duration": 2, "velocity": 78}, {"time": 1796, "pitch": 45, "duration": 19, "velocity": 93}, {"time": 1805, "pitch": 52, "duration": 12, "velocity": 86}, {"time": 1808, "pitch": 61, "duration": 11, "velocity": 100}, {"time": 1808, "pitch": 64, "duration": 11, "velocity": 88}, {"time": 1814, "pitch": 57, "duration": 5, "velocity": 93}, {"time": 1820, "pitch": 45, "duration": 13, "velocity": 92}, {"time": 1829, "pitch": 52, "duration": 4, "velocity": 68}, {"time": 1832, "pitch": 61, "duration": 11, "velocity": 100}, {"time": 1832, "pitch": 64, "duration": 10, "velocity": 85}, {"time": 1838, "pitch": 45, "duration": 4, "velocity": 79}, {"time": 1844, "pitch": 38, "duration": 20, "velocity": 86}, {"time": 1853, "pitch": 45, "duration": 13, "velocity": 56}, {"time": 1856, "pitch": 62, "duration": 13, "velocity": 96}, {"time": 1856, "pitch": 66, "duration": 14, "velocity": 107}, {"time": 1862, "pitch": 57, "duration": 7, "velocity": 93}, {"time": 1868, "pitch": 38, "duration": 12, "velocity": 90}, {"time": 1877, "pitch": 45, "duration": 5, "velocity": 81}, {"time": 1880, "pitch": 62, "duration": 10, "velocity": 96}, {"time": 1880, "pitch": 66, "duration": 11, "velocity": 112}, {"time": 1886, "pitch": 57, "duration": 5, "velocity": 99}, {"time": 1892, "pitch": 42, "duration": 22, "velocity": 100}, {"time": 1901, "pitch": 54, "duration": 13, "velocity": 86}, {"time": 1904, "pitch": 61, "duration": 5, "velocity": 112}, {"time": 1904, "pitch": 66, "duration": 7, "velocity": 97}, {"time": 1910, "pitch": 58, "duration": 5, "velocity": 112}, {"time": 1910, "pitch": 61, "duration": 1, "velocity": 50}, {"time": 1913, "pitch": 61, "duration": 2, "velocity": 56}, {"time": 1916, "pitch": 42, "duration": 16, "velocity": 100}, {"time": 1925, "pitch": 54, "duration": 4, "velocity": 96}, {"time": 1928, "pitch": 61, "duration": 6, "velocity": 117}, {"time": 1928, "pitch": 66, "duration": 10, "velocity": 112}, {"time": 1931, "pitch": 54, "duration": 2, "velocity": 96}, {"time": 1934, "pitch": 58, "duration": 4, "velocity": 122}, {"time": 1937, "pitch": 61, "duration": 2, "velocity": 85}, {"time": 1940, "pitch": 47, "duration": 22, "velocity": 70}, {"time": 1949, "pitch": 54, "duration": 13, "velocity": 76}, {"time": 1952, "pitch": 62, "duration": 20, "velocity": 88}, {"time": 1952, "pitch": 66, "duration": 21, "velocity": 93}, {"time": 1958, "pitch": 59, "duration": 10, "velocity": 90}, {"time": 1964, "pitch": 47, "duration": 22, "velocity": 73}, {"time": 1973, "pitch": 54, "duration": 14, "velocity": 81}, {"time": 1976, "pitch": 62, "duration": 14, "velocity": 93}, {"time": 1976, "pitch": 66, "duration": 14, "velocity": 100}, {"time": 1982, "pitch": 59, "duration": 6, "velocity": 83}, {"time": 1988, "pitch": 47, "duration": 21, "velocity": 78}, {"time": 1997, "pitch": 54, "duration": 15, "velocity": 68}, {"time": 2000, "pitch": 62, "duration": 21, "velocity": 93}, {"time": 2000, "pitch": 66, "duration": 21, "velocity": 107}, {"time": 2006, "pitch": 59, "duration": 15, "velocity": 92}, {"time": 2012, "pitch": 47, "duration": 18, "velocity": 85}, {"time": 2021, "pitch": 54, "duration": 2, "velocity": 92}, {"time": 2024, "pitch": 55, "duration": 1, "velocity": 38}, {"time": 2024, "pitch": 62, "duration": 11, "velocity": 96}, {"time": 2024, "pitch": 66, "duration": 11, "velocity": 117}, {"time": 2030, "pitch": 59, "duration": 6, "velocity": 93}, {"time": 2036, "pitch": 45, "duration": 21, "velocity": 73}, {"time": 2045, "pitch": 52, "duration": 15, "velocity": 63}, {"time": 2048, "pitch": 61, "duration": 20, "velocity": 102}, {"time": 2048, "pitch": 64, "duration": 20, "velocity": 93}, {"time": 2054, "pitch": 57, "duration": 9, "velocity": 85}, {"time": 2060, "pitch": 45, "duration": 21, "velocity": 82}, {"time": 2069, "pitch": 52, "duration": 4, "velocity": 59}, {"time": 2072, "pitch": 61, "duration": 6, "velocity": 112}, {"time": 2072, "pitch": 64, "duration": 14, "velocity": 92}, {"time": 2075, "pitch": 52, "duration": 7, "velocity": 72}, {"time": 2078, "pitch": 59, "duration": 4, "velocity": 83}, {"time": 2081, "pitch": 61, "duration": 6, "velocity": 58}, {"time": 2084, "pitch": 45, "duration": 21, "velocity": 92}, {"time": 2093, "pitch": 52, "duration": 14, "velocity": 67}, {"time": 2096, "pitch": 61, "duration": 13, "velocity": 112}, {"time": 2096, "pitch": 64, "duration": 13, "velocity": 86}, {"time": 2102, "pitch": 57, "duration": 6, "velocity": 85}, {"time": 2108, "pitch": 45, "duration": 16, "velocity": 86}, {"time": 2117, "pitch": 52, "duration": 6, "velocity": 76}, {"time": 2120, "pitch": 61, "duration": 3, "velocity": 100}, {"time": 2123, "pitch": 57, "duration": 7, "velocity": 82}, {"time": 2126, "pitch": 64, "duration": 4, "velocity": 93}, {"time": 2129, "pitch": 61, "duration": 2, "velocity": 92}, {"time": 2132, "pitch": 43, "duration": 22, "velocity": 78}, {"time": 2141, "pitch": 50, "duration": 14, "velocity": 55}, {"time": 2144, "pitch": 62, "duration": 12, "velocity": 100}, {"time": 2150, "pitch": 59, "duration": 6, "velocity": 63}, {"time": 2153, "pitch": 55, "duration": 2, "velocity": 73}, {"time": 2156, "pitch": 43, "duration": 20, "velocity": 85}, {"time": 2165, "pitch": 50, "duration": 3, "velocity": 65}, {"time": 2168, "pitch": 62, "duration": 11, "velocity": 99}, {"time": 2171, "pitch": 50, "duration": 8, "velocity": 76}, {"time": 2174, "pitch": 59, "duration": 5, "velocity": 75}, {"time": 2177, "pitch": 55, "duration": 3, "velocity": 83}, {"time": 2180, "pitch": 45, "duration": 22, "velocity": 92}, {"time": 2189, "pitch": 52, "duration": 14, "velocity": 52}, {"time": 2192, "pitch": 64, "duration": 12, "velocity": 96}, {"time": 2198, "pitch": 61, "duration": 6, "velocity": 78}, {"time": 2201, "pitch": 57, "duration": 3, "velocity": 68}, {"time": 2204, "pitch": 45, "duration": 17, "velocity": 79}, {"time": 2213, "pitch": 52, "duration": 14, "velocity": 58}, {"time": 2216, "pitch": 61, "duration": 9, "velocity": 112}, {"time": 2216, "pitch": 64, "duration": 10, "velocity": 96}, {"time": 2222, "pitch": 57, "duration": 5, "velocity": 107}, {"time": 2228, "pitch": 47, "duration": 23, "velocity": 86}, {"time": 2234, "pitch": 54, "duration": 9, "velocity": 63}, {"time": 2240, "pitch": 62, "duration": 15, "velocity": 86}, {"time": 2240, "pitch": 66, "duration": 15, "velocity": 86}, {"time": 2246, "pitch": 59, "duration": 8, "velocity": 88}, {"time": 2249, "pitch": 54, "duration": 2, "velocity": 13}, {"time": 2252, "pitch": 47, "duration": 21, "velocity": 95}, {"time": 2258, "pitch": 54, "duration": 7, "velocity": 76}, {"time": 2261, "pitch": 59, "duration": 5, "velocity": 82}, {"time": 2264, "pitch": 66, "duration": 11, "velocity": 117}, {"time": 2267, "pitch": 54, "duration": 8, "velocity": 79}, {"time": 2270, "pitch": 62, "duration": 6, "velocity": 86}, {"time": 2273, "pitch": 59, "duration": 3, "velocity": 92}, {"time": 2276, "pitch": 47, "duration": 21, "velocity": 82}, {"time": 2282, "pitch": 54, "duration": 17, "velocity": 77}, {"time": 2285, "pitch": 59, "duration": 3, "velocity": 74}, {"time": 2288, "pitch": 66, "duration": 9, "velocity": 117}, {"time": 2291, "pitch": 62, "duration": 3, "velocity": 63}, {"time": 2294, "pitch": 59, "duration": 6, "velocity": 90}, {"time": 2297, "pitch": 62, "duration": 3, "velocity": 73}, {"time": 2300, "pitch": 47, "duration": 16, "velocity": 81}, {"time": 2306, "pitch": 54, "duration": 7, "velocity": 92}, {"time": 2309, "pitch": 59, "duration": 3, "velocity": 68}, {"time": 2312, "pitch": 66, "duration": 4, "velocity": 122}, {"time": 2315, "pitch": 62, "duration": 2, "velocity": 70}, {"time": 2318, "pitch": 59, "duration": 5, "velocity": 85}, {"time": 2318, "pitch": 66, "duration": 1, "velocity": 26}, {"time": 2321, "pitch": 62, "duration": 2, "velocity": 76}, {"time": 2324, "pitch": 45, "duration": 22, "velocity": 86}, {"time": 2330, "pitch": 52, "duration": 18, "velocity": 68}, {"time": 2333, "pitch": 57, "duration": 4, "velocity": 70}, {"time": 2336, "pitch": 64, "duration": 7, "velocity": 90}, {"time": 2339, "pitch": 61, "duration": 3, "velocity": 76}, {"time": 2342, "pitch": 57, "duration": 4, "velocity": 76}, {"time": 2345, "pitch": 61, "duration": 3, "velocity": 89}, {"time": 2348, "pitch": 45, "duration": 19, "velocity": 77}, {"time": 2354, "pitch": 52, "duration": 17, "velocity": 67}, {"time": 2357, "pitch": 57, "duration": 4, "velocity": 76}, {"time": 2360, "pitch": 64, "duration": 7, "velocity": 89}, {"time": 2363, "pitch": 61, "duration": 3, "velocity": 85}, {"time": 2366, "pitch": 57, "duration": 4, "velocity": 92}, {"time": 2369, "pitch": 61, "duration": 2, "velocity": 93}, {"time": 2372, "pitch": 45, "duration": 22, "velocity": 90}, {"time": 2378, "pitch": 52, "duration": 17, "velocity": 74}, {"time": 2381, "pitch": 57, "duration": 3, "velocity": 82}, {"time": 2384, "pitch": 64, "duration": 5, "velocity": 93}, {"time": 2387, "pitch": 61, "duration": 3, "velocity": 96}, {"time": 2390, "pitch": 57, "duration": 4, "velocity": 90}, {"time": 2393, "pitch": 64, "duration": 2, "velocity": 88}, {"time": 2396, "pitch": 45, "duration": 15, "velocity": 89}, {"time": 2402, "pitch": 52, "duration": 8, "velocity": 68}, {"time": 2405, "pitch": 57, "duration": 4, "velocity": 79}, {"time": 2408, "pitch": 61, "duration": 3, "velocity": 88}, {"time": 2411, "pitch": 64, "duration": 7, "velocity": 97}, {"time": 2414, "pitch": 61, "duration": 4, "velocity": 97}, {"time": 2417, "pitch": 57, "duration": 2, "velocity": 96}, {"time": 2420, "pitch": 43, "duration": 22, "velocity": 90}, {"time": 2426, "pitch": 50, "duration": 17, "velocity": 71}, {"time": 2429, "pitch": 55, "duration": 4, "velocity": 72}, {"time": 2432, "pitch": 62, "duration": 10, "velocity": 99}, {"time": 2435, "pitch": 59, "duration": 3, "velocity": 79}, {"time": 2438, "pitch": 55, "duration": 4, "velocity": 93}, {"time": 2441, "pitch": 59, "duration": 3, "velocity": 71}, {"time": 2444, "pitch": 43, "duration": 19, "velocity": 78}, {"time": 2450, "pitch": 50, "duration": 16, "velocity": 61}, {"time": 2453, "pitch": 55, "duration": 5, "velocity": 75}, {"time": 2456, "pitch": 62, "duration": 4, "velocity": 57}, {"time": 2459, "pitch": 59, "duration": 3, "velocity": 71}, {"time": 2462, "pitch": 55, "duration": 5, "velocity": 93}, {"time": 2468, "pitch": 43, "duration": 21, "velocity": 85}, {"time": 2474, "pitch": 50, "duration": 17, "velocity": 69}, {"time": 2477, "pitch": 55, "duration": 5, "velocity": 70}, {"time": 2480, "pitch": 59, "duration": 3, "velocity": 64}, {"time": 2483, "pitch": 62, "duration": 5, "velocity": 92}, {"time": 2486, "pitch": 59, "duration": 4, "velocity": 90}, {"time": 2489, "pitch": 55, "duration": 3, "velocity": 93}, {"time": 2492, "pitch": 43, "duration": 13, "velocity": 81}, {"time": 2498, "pitch": 50, "duration": 6, "velocity": 70}, {"time": 2501, "pitch": 55, "duration": 4, "velocity": 78}, {"time": 2504, "pitch": 59, "duration": 2, "velocity": 90}, {"time": 2507, "pitch": 62, "duration": 8, "velocity": 95}, {"time": 2510, "pitch": 59, "duration": 4, "velocity": 92}, {"time": 2513, "pitch": 55, "duration": 2, "velocity": 93}, {"time": 2516, "pitch": 38, "duration": 20, "velocity": 82}, {"time": 2522, "pitch": 45, "duration": 17, "velocity": 88}, {"time": 2525, "pitch": 50, "duration": 3, "velocity": 77}, {"time": 2528, "pitch": 66, "duration": 12, "velocity": 93}, {"time": 2531, "pitch": 50, "duration": 8, "velocity": 69}, {"time": 2534, "pitch": 62, "duration": 10, "velocity": 72}, {"time": 2537, "pitch": 38, "duration": 23, "velocity": 77}, {"time": 2537, "pitch": 57, "duration": 10, "velocity": 78}, {"time": 2546, "pitch": 50, "duration": 8, "velocity": 86}, {"time": 2549, "pitch": 57, "duration": 4, "velocity": 85}, {"time": 2552, "pitch": 66, "duration": 9, "velocity": 112}, {"time": 2555, "pitch": 50, "duration": 6, "velocity": 47}, {"time": 2555, "pitch": 62, "duration": 3, "velocity": 76}, {"time": 2558, "pitch": 57, "duration": 3, "velocity": 93}, {"time": 2561, "pitch": 62, "duration": 2, "velocity": 75}, {"time": 2570, "pitch": 42, "duration": 3, "velocity": 93}, {"time": 2570, "pitch": 54, "duration": 3, "velocity": 88}, {"time": 2570, "pitch": 58, "duration": 2, "velocity": 79}, {"time": 2570, "pitch": 61, "duration": 3, "velocity": 78}, {"time": 2576, "pitch": 42, "duration": 3, "velocity": 95}, {"time": 2576, "pitch": 54, "duration": 3, "velocity": 95}, {"time": 2576, "pitch": 58, "duration": 3, "velocity": 102}, {"time": 2576, "pitch": 61, "duration": 3, "velocity": 95}, {"time": 2582, "pitch": 42, "duration": 2, "velocity": 95}, {"time": 2582, "pitch": 54, "duration": 2, "velocity": 102}, {"time": 2582, "pitch": 58, "duration": 2, "velocity": 117}, {"time": 2582, "pitch": 61, "duration": 2, "velocity": 102}, {"time": 2612, "pitch": 43, "duration": 22, "velocity": 75}, {"time": 2615, "pitch": 50, "duration": 21, "velocity": 69}, {"time": 2618, "pitch": 55, "duration": 6, "velocity": 72}, {"time": 2621, "pitch": 59, "duration": 4, "velocity": 62}, {"time": 2624, "pitch": 67, "duration": 11, "velocity": 86}, {"time": 2627, "pitch": 55, "duration": 3, "velocity": 77}, {"time": 2630, "pitch": 62, "duration": 5, "velocity": 81}, {"time": 2633, "pitch": 59, "duration": 3, "velocity": 90}, {"time": 2636, "pitch": 43, "duration": 21, "velocity": 72}, {"time": 2639, "pitch": 50, "duration": 19, "velocity": 69}, {"time": 2642, "pitch": 55, "duration": 7, "velocity": 81}, {"time": 2645, "pitch": 59, "duration": 4, "velocity": 86}, {"time": 2648, "pitch": 67, "duration": 9, "velocity": 92}, {"time": 2651, "pitch": 55, "duration": 2, "velocity": 82}, {"time": 2654, "pitch": 62, "duration": 4, "velocity": 82}, {"time": 2657, "pitch": 59, "duration": 2, "velocity": 89}, {"time": 2660, "pitch": 45, "duration": 21, "velocity": 79}, {"time": 2663, "pitch": 52, "duration": 10, "velocity": 67}, {"time": 2666, "pitch": 57, "duration": 3, "velocity": 78}, {"time": 2669, "pitch": 61, "duration": 2, "velocity": 89}, {"time": 2672, "pitch": 64, "duration": 10, "velocity": 93}, {"time": 2675, "pitch": 52, "duration": 7, "velocity": 74}, {"time": 2678, "pitch": 61, "duration": 4, "velocity": 99}, {"time": 2681, "pitch": 57, "duration": 1, "velocity": 86}, {"time": 2684, "pitch": 45, "duration": 16, "velocity": 70}, {"time": 2687, "pitch": 52, "duration": 10, "velocity": 59}, {"time": 2690, "pitch": 57, "duration": 3, "velocity": 78}, {"time": 2693, "pitch": 61, "duration": 2, "velocity": 78}, {"time": 2696, "pitch": 64, "duration": 10, "velocity": 99}, {"time": 2699, "pitch": 52, "duration": 1, "velocity": 67}, {"time": 2702, "pitch": 61, "duration": 5, "velocity": 96}, {"time": 2705, "pitch": 57, "duration": 2, "velocity": 88}, {"time": 2708, "pitch": 42, "duration": 22, "velocity": 69}, {"time": 2711, "pitch": 49, "duration": 19, "velocity": 53}, {"time": 2714, "pitch": 54, "duration": 5, "velocity": 82}, {"time": 2717, "pitch": 58, "duration": 3, "velocity": 74}, {"time": 2720, "pitch": 66, "duration": 7, "velocity": 107}, {"time": 2723, "pitch": 54, "duration": 8, "velocity": 88}, {"time": 2726, "pitch": 61, "duration": 2, "velocity": 96}, {"time": 2729, "pitch": 58, "duration": 3, "velocity": 102}, {"time": 2732, "pitch": 42, "duration": 17, "velocity": 75}, {"time": 2735, "pitch": 49, "duration": 13, "velocity": 41}, {"time": 2738, "pitch": 54, "duration": 6, "velocity": 97}, {"time": 2741, "pitch": 58, "duration": 2, "velocity": 86}, {"time": 2744, "pitch": 66, "duration": 7, "velocity": 112}, {"time": 2747, "pitch": 54, "duration": 1, "velocity": 95}, {"time": 2750, "pitch": 61, "duration": 2, "velocity": 93}, {"time": 2753, "pitch": 58, "duration": 2, "velocity": 107}, {"time": 2756, "pitch": 40, "duration": 21, "velocity": 69}, {"time": 2759, "pitch": 47, "duration": 21, "velocity": 74}, {"time": 2762, "pitch": 52, "duration": 6, "velocity": 88}, {"time": 2765, "pitch": 56, "duration": 4, "velocity": 83}, {"time": 2768, "pitch": 64, "duration": 13, "velocity": 76}, {"time": 2771, "pitch": 52, "duration": 3, "velocity": 78}, {"time": 2774, "pitch": 56, "duration": 6, "velocity": 73}, {"time": 2777, "pitch": 59, "duration": 3, "velocity": 67}, {"time": 2780, "pitch": 40, "duration": 16, "velocity": 74}, {"time": 2783, "pitch": 47, "duration": 14, "velocity": 76}, {"time": 2786, "pitch": 52, "duration": 7, "velocity": 83}, {"time": 2789, "pitch": 56, "duration": 4, "velocity": 70}, {"time": 2792, "pitch": 64, "duration": 11, "velocity": 75}, {"time": 2795, "pitch": 52, "duration": 5, "velocity": 88}, {"time": 2798, "pitch": 59, "duration": 4, "velocity": 63}, {"time": 2801, "pitch": 56, "duration": 2, "velocity": 97}, {"time": 2804, "pitch": 43, "duration": 22, "velocity": 76}, {"time": 2807, "pitch": 50, "duration": 21, "velocity": 82}, {"time": 2810, "pitch": 55, "duration": 6, "velocity": 86}, {"time": 2813, "pitch": 59, "duration": 4, "velocity": 92}, {"time": 2816, "pitch": 62, "duration": 7, "velocity": 93}, {"time": 2819, "pitch": 55, "duration": 3, "velocity": 85}, {"time": 2822, "pitch": 59, "duration": 7, "velocity": 78}, {"time": 2825, "pitch": 62, "duration": 3, "velocity": 72}, {"time": 2828, "pitch": 43, "duration": 20, "velocity": 74}, {"time": 2831, "pitch": 50, "duration": 19, "velocity": 78}, {"time": 2834, "pitch": 55, "duration": 6, "velocity": 85}, {"time": 2837, "pitch": 59, "duration": 4, "velocity": 79}, {"time": 2840, "pitch": 67, "duration": 10, "velocity": 95}, {"time": 2843, "pitch": 55, "duration": 2, "velocity": 86}, {"time": 2846, "pitch": 62, "duration": 4, "velocity": 93}, {"time": 2849, "pitch": 59, "duration": 2, "velocity": 95}, {"time": 2852, "pitch": 45, "duration": 20, "velocity": 89}, {"time": 2855, "pitch": 52, "duration": 10, "velocity": 75}, {"time": 2858, "pitch": 57, "duration": 3, "velocity": 95}, {"time": 2861, "pitch": 61, "duration": 2, "velocity": 93}, {"time": 2864, "pitch": 64, "duration": 10, "velocity": 97}, {"time": 2867, "pitch": 52, "duration": 7, "velocity": 61}, {"time": 2870, "pitch": 61, "duration": 4, "velocity": 97}, {"time": 2873, "pitch": 57, "duration": 1, "velocity": 99}, {"time": 2876, "pitch": 45, "duration": 13, "velocity": 68}, {"time": 2876, "pitch": 52, "duration": 10, "velocity": 74}, {"time": 2882, "pitch": 57, "duration": 3, "velocity": 82}, {"time": 2885, "pitch": 61, "duration": 2, "velocity": 90}, {"time": 2888, "pitch": 64, "duration": 6, "velocity": 97}, {"time": 2891, "pitch": 61, "duration": 2, "velocity": 127}, {"time": 2894, "pitch": 57, "duration": 3, "velocity": 44}, {"time": 2900, "pitch": 42, "duration": 21, "velocity": 92}, {"time": 2903, "pitch": 49, "duration": 19, "velocity": 72}, {"time": 2906, "pitch": 54, "duration": 6, "velocity": 97}, {"time": 2909, "pitch": 57, "duration": 3, "velocity": 79}, {"time": 2912, "pitch": 66, "duration": 9, "velocity": 122}, {"time": 2915, "pitch": 54, "duration": 7, "velocity": 89}, {"time": 2918, "pitch": 61, "duration": 4, "velocity": 99}, {"time": 2921, "pitch": 57, "duration": 3, "velocity": 90}, {"time": 2924, "pitch": 42, "duration": 21, "velocity": 86}, {"time": 2927, "pitch": 49, "duration": 19, "velocity": 45}, {"time": 2930, "pitch": 54, "duration": 6, "velocity": 92}, {"time": 2933, "pitch": 57, "duration": 2, "velocity": 83}, {"time": 2936, "pitch": 66, "duration": 10, "velocity": 107}, {"time": 2939, "pitch": 54, "duration": 7, "velocity": 89}, {"time": 2942, "pitch": 61, "duration": 3, "velocity": 122}, {"time": 2945, "pitch": 57, "duration": 1, "velocity": 95}, {"time": 2948, "pitch": 42, "duration": 22, "velocity": 95}, {"time": 2951, "pitch": 49, "duration": 20, "velocity": 96}, {"time": 2954, "pitch": 54, "duration": 7, "velocity": 107}, {"time": 2957, "pitch": 58, "duration": 4, "velocity": 93}, {"time": 2960, "pitch": 66, "duration": 11, "velocity": 122}, {"time": 2963, "pitch": 54, "duration": 8, "velocity": 96}, {"time": 2966, "pitch": 61, "duration": 6, "velocity": 102}, {"time": 2972, "pitch": 42, "duration": 19, "velocity": 89}, {"time": 2975, "pitch": 49, "duration": 15, "velocity": 96}, {"time": 2978, "pitch": 54, "duration": 6, "velocity": 100}, {"time": 2981, "pitch": 58, "duration": 2, "velocity": 99}, {"time": 2984, "pitch": 66, "duration": 10, "velocity": 127}, {"time": 2987, "pitch": 54, "duration": 3, "velocity": 99}, {"time": 2990, "pitch": 61, "duration": 3, "velocity": 107}, {"time": 2993, "pitch": 58, "duration": 2, "velocity": 107}, {"time": 2996, "pitch": 43, "duration": 44, "velocity": 89}, {"time": 3002, "pitch": 50, "duration": 43, "velocity": 65}, {"time": 3008, "pitch": 55, "duration": 14, "velocity": 90}, {"time": 3014, "pitch": 59, "duration": 21, "velocity": 81}, {"time": 3020, "pitch": 62, "duration": 13, "velocity": 86}, {"time": 3026, "pitch": 55, "duration": 5, "velocity": 71}, {"time": 3032, "pitch": 67, "duration": 25, "velocity": 83}, {"time": 3038, "pitch": 62, "duration": 23, "velocity": 86}, {"time": 3044, "pitch": 43, "duration": 35, "velocity": 75}, {"time": 3050, "pitch": 50, "duration": 21, "velocity": 69}, {"time": 3056, "pitch": 55, "duration": 7, "velocity": 95}, {"time": 3062, "pitch": 59, "duration": 9, "velocity": 93}, {"time": 3068, "pitch": 67, "duration": 21, "velocity": 107}, {"time": 3074, "pitch": 50, "duration": 4, "velocity": 82}, {"time": 3080, "pitch": 62, "duration": 10, "velocity": 102}, {"time": 3086, "pitch": 59, "duration": 6, "velocity": 99}, {"time": 3092, "pitch": 40, "duration": 45, "velocity": 90}, {"time": 3098, "pitch": 47, "duration": 43, "velocity": 77}, {"time": 3104, "pitch": 52, "duration": 13, "velocity": 90}, {"time": 3110, "pitch": 59, "duration": 19, "velocity": 95}, {"time": 3116, "pitch": 67, "duration": 43, "velocity": 107}, {"time": 3122, "pitch": 52, "duration": 11, "velocity": 96}, {"time": 3128, "pitch": 64, "duration": 31, "velocity": 96}, {"time": 3134, "pitch": 59, "duration": 20, "velocity": 99}, {"time": 3140, "pitch": 40, "duration": 35, "velocity": 88}, {"time": 3146, "pitch": 47, "duration": 30, "velocity": 60}, {"time": 3152, "pitch": 52, "duration": 15, "velocity": 93}, {"time": 3158, "pitch": 59, "duration": 12, "velocity": 89}, {"time": 3164, "pitch": 67, "duration": 10, "velocity": 112}, {"time": 3170, "pitch": 52, "duration": 8, "velocity": 83}, {"time": 3176, "pitch": 64, "duration": 11, "velocity": 93}, {"time": 3176, "pitch": 67, "duration": 11, "velocity": 96}, {"time": 3182, "pitch": 59, "duration": 6, "velocity": 95}, {"time": 3188, "pitch": 47, "duration": 44, "velocity": 83}, {"time": 3194, "pitch": 54, "duration": 42, "velocity": 79}, {"time": 3200, "pitch": 59, "duration": 13, "velocity": 97}, {"time": 3206, "pitch": 62, "duration": 4, "velocity": 70}, {"time": 3206, "pitch": 66, "duration": 4, "velocity": 95}, {"time": 3206, "pitch": 71, "duration": 4, "velocity": 83}, {"time": 3212, "pitch": 66, "duration": 13, "velocity": 112}, {"time": 3212, "pitch": 71, "duration": 24, "velocity": 95}, {"time": 3218, "pitch": 59, "duration": 18, "velocity": 89}, {"time": 3224, "pitch": 62, "duration": 12, "velocity": 95}, {"time": 3230, "pitch": 66, "duration": 6, "velocity": 95}, {"time": 3236, "pitch": 45, "duration": 35, "velocity": 92}, {"time": 3242, "pitch": 52, "duration": 20, "velocity": 69}, {"time": 3248, "pitch": 57, "duration": 8, "velocity": 89}, {"time": 3254, "pitch": 61, "duration": 13, "velocity": 81}, {"time": 3260, "pitch": 64, "duration": 12, "velocity": 72}, {"time": 3260, "pitch": 69, "duration": 23, "velocity": 74}, {"time": 3266, "pitch": 52, "duration": 4, "velocity": 77}, {"time": 3272, "pitch": 61, "duration": 12, "velocity": 112}, {"time": 3278, "pitch": 64, "duration": 5, "velocity": 48}, {"time": 3284, "pitch": 40, "duration": 40, "velocity": 79}, {"time": 3290, "pitch": 47, "duration": 37, "velocity": 86}, {"time": 3296, "pitch": 52, "duration": 14, "velocity": 88}, {"time": 3302, "pitch": 56, "duration": 11, "velocity": 70}, {"time": 3308, "pitch": 59, "duration": 13, "velocity": 76}, {"time": 3308, "pitch": 64, "duration": 23, "velocity": 92}, {"time": 3314, "pitch": 52, "duration": 13, "velocity": 74}, {"time": 3320, "pitch": 56, "duration": 10, "velocity": 107}, {"time": 3326, "pitch": 59, "duration": 4, "velocity": 71}, {"time": 3332, "pitch": 42, "duration": 38, "velocity": 97}, {"time": 3338, "pitch": 54, "duration": 20, "velocity": 89}, {"time": 3344, "pitch": 58, "duration": 10, "velocity": 102}, {"time": 3350, "pitch": 61, "duration": 4, "velocity": 68}, {"time": 3350, "pitch": 66, "duration": 4, "velocity": 71}, {"time": 3356, "pitch": 58, "duration": 6, "velocity": 117}, {"time": 3356, "pitch": 61, "duration": 13, "velocity": 127}, {"time": 3356, "pitch": 66, "duration": 16, "velocity": 117}, {"time": 3362, "pitch": 54, "duration": 9, "velocity": 93}, {"time": 3368, "pitch": 58, "duration": 10, "velocity": 117}, {"time": 3374, "pitch": 61, "duration": 4, "velocity": 112}, {"time": 3374, "pitch": 66, "duration": 5, "velocity": 107}, {"time": 3380, "pitch": 43, "duration": 44, "velocity": 90}, {"time": 3386, "pitch": 50, "duration": 43, "velocity": 76}, {"time": 3392, "pitch": 55, "duration": 14, "velocity": 81}, {"time": 3398, "pitch": 59, "duration": 13, "velocity": 82}, {"time": 3398, "pitch": 62, "duration": 1, "velocity": 31}, {"time": 3404, "pitch": 67, "duration": 43, "velocity": 100}, {"time": 3410, "pitch": 55, "duration": 26, "velocity": 82}, {"time": 3416, "pitch": 62, "duration": 31, "velocity": 93}, {"time": 3422, "pitch": 59, "duration": 20, "velocity": 88}, {"time": 3428, "pitch": 43, "duration": 41, "velocity": 69}, {"time": 3434, "pitch": 50, "duration": 34, "velocity": 55}, {"time": 3440, "pitch": 55, "duration": 15, "velocity": 72}, {"time": 3446, "pitch": 59, "duration": 11, "velocity": 85}, {"time": 3452, "pitch": 62, "duration": 13, "velocity": 97}, {"time": 3452, "pitch": 67, "duration": 23, "velocity": 99}, {"time": 3458, "pitch": 55, "duration": 5, "velocity": 72}, {"time": 3464, "pitch": 59, "duration": 12, "velocity": 99}, {"time": 3470, "pitch": 62, "duration": 4, "velocity": 97}, {"time": 3476, "pitch": 40, "duration": 44, "velocity": 82}, {"time": 3482, "pitch": 47, "duration": 42, "velocity": 63}, {"time": 3488, "pitch": 52, "duration": 14, "velocity": 92}, {"time": 3494, "pitch": 59, "duration": 9, "velocity": 53}, {"time": 3500, "pitch": 64, "duration": 14, "velocity": 97}, {"time": 3500, "pitch": 67, "duration": 15, "velocity": 100}, {"time": 3506, "pitch": 52, "duration": 8, "velocity": 93}, {"time": 3512, "pitch": 59, "duration": 27, "velocity": 85}, {"time": 3518, "pitch": 67, "duration": 23, "velocity": 88}, {"time": 3524, "pitch": 40, "duration": 33, "velocity": 82}, {"time": 3530, "pitch": 47, "duration": 28, "velocity": 69}, {"time": 3536, "pitch": 52, "duration": 14, "velocity": 95}, {"time": 3542, "pitch": 59, "duration": 19, "velocity": 92}, {"time": 3548, "pitch": 67, "duration": 22, "velocity": 107}, {"time": 3554, "pitch": 52, "duration": 7, "velocity": 86}, {"time": 3560, "pitch": 64, "duration": 10, "velocity": 97}, {"time": 3566, "pitch": 59, "duration": 7, "velocity": 93}, {"time": 3572, "pitch": 47, "duration": 36, "velocity": 88}, {"time": 3578, "pitch": 54, "duration": 18, "velocity": 88}, {"time": 3584, "pitch": 59, "duration": 17, "velocity": 85}, {"time": 3590, "pitch": 62, "duration": 5, "velocity": 79}, {"time": 3596, "pitch": 66, "duration": 21, "velocity": 127}, {"time": 3602, "pitch": 54, "duration": 5, "velocity": 79}, {"time": 3608, "pitch": 62, "duration": 10, "velocity": 97}, {"time": 3614, "pitch": 59, "duration": 6, "velocity": 99}, {"time": 3617, "pitch": 45, "duration": 36, "velocity": 74}, {"time": 3626, "pitch": 52, "duration": 21, "velocity": 78}, {"time": 3632, "pitch": 57, "duration": 14, "velocity": 88}, {"time": 3638, "pitch": 61, "duration": 4, "velocity": 97}, {"time": 3644, "pitch": 64, "duration": 22, "velocity": 112}, {"time": 3650, "pitch": 52, "duration": 3, "velocity": 70}, {"time": 3656, "pitch": 61, "duration": 10, "velocity": 112}, {"time": 3662, "pitch": 57, "duration": 5, "velocity": 102}, {"time": 3668, "pitch": 42, "duration": 45, "velocity": 97}, {"time": 3674, "pitch": 49, "duration": 41, "velocity": 53}, {"time": 3680, "pitch": 54, "duration": 14, "velocity": 96}, {"time": 3686, "pitch": 58, "duration": 12, "velocity": 90}, {"time": 3692, "pitch": 61, "duration": 15, "velocity": 97}, {"time": 3698, "pitch": 54, "duration": 23, "velocity": 86}, {"time": 3704, "pitch": 58, "duration": 20, "velocity": 92}, {"time": 3710, "pitch": 61, "duration": 14, "velocity": 107}, {"time": 3710, "pitch": 66, "duration": 14, "velocity": 107}, {"time": 3716, "pitch": 42, "duration": 37, "velocity": 78}, {"time": 3722, "pitch": 49, "duration": 31, "velocity": 36}, {"time": 3728, "pitch": 58, "duration": 7, "velocity": 97}, {"time": 3728, "pitch": 61, "duration": 7, "velocity": 112}, {"time": 3728, "pitch": 66, "duration": 7, "velocity": 96}, {"time": 3734, "pitch": 54, "duration": 3, "velocity": 64}, {"time": 3737, "pitch": 58, "duration": 5, "velocity": 97}, {"time": 3737, "pitch": 61, "duration": 6, "velocity": 93}, {"time": 3737, "pitch": 66, "duration": 5, "velocity": 82}, {"time": 3746, "pitch": 58, "duration": 2, "velocity": 97}, {"time": 3746, "pitch": 61, "duration": 3, "velocity": 107}, {"time": 3746, "pitch": 66, "duration": 3, "velocity": 97}, {"time": 3749, "pitch": 54, "duration": 3, "velocity": 39}, {"time": 3752, "pitch": 61, "duration": 2, "velocity": 127}, {"time": 3752, "pitch": 66, "duration": 2, "velocity": 122}, {"time": 3758, "pitch": 58, "duration": 1, "velocity": 100}, {"time": 3758, "pitch": 61, "duration": 1, "velocity": 127}, {"time": 3758, "pitch": 66, "duration": 2, "velocity": 112}, {"time": 3764, "pitch": 47, "duration": 41, "velocity": 89}, {"time": 3770, "pitch": 54, "duration": 8, "velocity": 81}, {"time": 3776, "pitch": 66, "duration": 12, "velocity": 117}, {"time": 3782, "pitch": 54, "duration": 6, "velocity": 86}, {"time": 3788, "pitch": 62, "duration": 6, "velocity": 95}, {"time": 3791, "pitch": 54, "duration": 3, "velocity": 82}, {"time": 3794, "pitch": 59, "duration": 6, "velocity": 85}, {"time": 3797, "pitch": 54, "duration": 3, "velocity": 89}, {"time": 3800, "pitch": 66, "duration": 9, "velocity": 112}, {"time": 3803, "pitch": 54, "duration": 8, "velocity": 81}, {"time": 3806, "pitch": 62, "duration": 6, "velocity": 88}, {"time": 3809, "pitch": 59, "duration": 4, "velocity": 85}, {"time": 3812, "pitch": 47, "duration": 22, "velocity": 74}, {"time": 3818, "pitch": 59, "duration": 4, "velocity": 68}, {"time": 3821, "pitch": 54, "duration": 4, "velocity": 75}, {"time": 3824, "pitch": 66, "duration": 13, "velocity": 99}, {"time": 3827, "pitch": 54, "duration": 8, "velocity": 46}, {"time": 3830, "pitch": 62, "duration": 11, "velocity": 70}, {"time": 3833, "pitch": 59, "duration": 4, "velocity": 88}, {"time": 3836, "pitch": 47, "duration": 17, "velocity": 79}, {"time": 3842, "pitch": 59, "duration": 4, "velocity": 74}, {"time": 3845, "pitch": 54, "duration": 3, "velocity": 57}, {"time": 3848, "pitch": 66, "duration": 11, "velocity": 102}, {"time": 3851, "pitch": 54, "duration": 2, "velocity": 56}, {"time": 3854, "pitch": 62, "duration": 4, "velocity": 71}, {"time": 3857, "pitch": 59, "duration": 4, "velocity": 93}, {"time": 3860, "pitch": 45, "duration": 21, "velocity": 90}, {"time": 3866, "pitch": 52, "duration": 7, "velocity": 85}, {"time": 3869, "pitch": 57, "duration": 4, "velocity": 82}, {"time": 3872, "pitch": 64, "duration": 13, "velocity": 95}, {"time": 3875, "pitch": 52, "duration": 8, "velocity": 71}, {"time": 3878, "pitch": 61, "duration": 4, "velocity": 82}, {"time": 3881, "pitch": 57, "duration": 3, "velocity": 76}, {"time": 3884, "pitch": 45, "duration": 21, "velocity": 89}, {"time": 3890, "pitch": 52, "duration": 6, "velocity": 72}, {"time": 3893, "pitch": 57, "duration": 3, "velocity": 86}, {"time": 3896, "pitch": 64, "duration": 12, "velocity": 92}, {"time": 3899, "pitch": 52, "duration": 9, "velocity": 48}, {"time": 3902, "pitch": 61, "duration": 5, "velocity": 72}, {"time": 3905, "pitch": 57, "duration": 3, "velocity": 73}, {"time": 3908, "pitch": 45, "duration": 21, "velocity": 88}, {"time": 3914, "pitch": 52, "duration": 7, "velocity": 65}, {"time": 3917, "pitch": 57, "duration": 4, "velocity": 82}, {"time": 3920, "pitch": 64, "duration": 13, "velocity": 89}, {"time": 3923, "pitch": 52, "duration": 8, "velocity": 57}, {"time": 3926, "pitch": 61, "duration": 5, "velocity": 88}, {"time": 3929, "pitch": 57, "duration": 3, "velocity": 81}, {"time": 3932, "pitch": 45, "duration": 18, "velocity": 70}, {"time": 3938, "pitch": 52, "duration": 7, "velocity": 72}, {"time": 3941, "pitch": 57, "duration": 2, "velocity": 69}, {"time": 3944, "pitch": 64, "duration": 10, "velocity": 96}, {"time": 3947, "pitch": 52, "duration": 2, "velocity": 66}, {"time": 3950, "pitch": 61, "duration": 3, "velocity": 92}, {"time": 3953, "pitch": 57, "duration": 2, "velocity": 79}, {"time": 3956, "pitch": 43, "duration": 21, "velocity": 73}, {"time": 3962, "pitch": 50, "duration": 18, "velocity": 74}, {"time": 3965, "pitch": 55, "duration": 3, "velocity": 65}, {"time": 3968, "pitch": 59, "duration": 4, "velocity": 81}, {"time": 3971, "pitch": 55, "duration": 3, "velocity": 66}, {"time": 3974, "pitch": 62, "duration": 3, "velocity": 81}, {"time": 3977, "pitch": 59, "duration": 4, "velocity": 79}, {"time": 3980, "pitch": 43, "duration": 21, "velocity": 73}, {"time": 3986, "pitch": 50, "duration": 18, "velocity": 70}, {"time": 3989, "pitch": 55, "duration": 3, "velocity": 75}, {"time": 3992, "pitch": 59, "duration": 7, "velocity": 85}, {"time": 3995, "pitch": 55, "duration": 2, "velocity": 72}, {"time": 3998, "pitch": 67, "duration": 5, "velocity": 89}, {"time": 4001, "pitch": 62, "duration": 3, "velocity": 69}, {"time": 4004, "pitch": 45, "duration": 22, "velocity": 86}, {"time": 4010, "pitch": 52, "duration": 7, "velocity": 68}, {"time": 4013, "pitch": 57, "duration": 4, "velocity": 81}, {"time": 4016, "pitch": 64, "duration": 13, "velocity": 86}, {"time": 4019, "pitch": 52, "duration": 8, "velocity": 59}, {"time": 4022, "pitch": 61, "duration": 6, "velocity": 93}, {"time": 4025, "pitch": 57, "duration": 4, "velocity": 92}, {"time": 4028, "pitch": 45, "duration": 16, "velocity": 85}, {"time": 4034, "pitch": 57, "duration": 3, "velocity": 73}, {"time": 4037, "pitch": 52, "duration": 3, "velocity": 70}, {"time": 4040, "pitch": 64, "duration": 9, "velocity": 97}, {"time": 4043, "pitch": 52, "duration": 1, "velocity": 72}, {"time": 4046, "pitch": 61, "duration": 3, "velocity": 97}, {"time": 4049, "pitch": 57, "duration": 3, "velocity": 90}, {"time": 4052, "pitch": 38, "duration": 23, "velocity": 90}, {"time": 4058, "pitch": 45, "duration": 19, "velocity": 73}, {"time": 4061, "pitch": 57, "duration": 3, "velocity": 79}, {"time": 4064, "pitch": 50, "duration": 11, "velocity": 82}, {"time": 4064, "pitch": 66, "duration": 1, "velocity": 68}, {"time": 4070, "pitch": 62, "duration": 15, "velocity": 77}, {"time": 4070, "pitch": 66, "duration": 15, "velocity": 99}, {"time": 4076, "pitch": 38, "duration": 15, "velocity": 85}, {"time": 4082, "pitch": 45, "duration": 10, "velocity": 82}, {"time": 4085, "pitch": 50, "duration": 3, "velocity": 90}, {"time": 4088, "pitch": 57, "duration": 6, "velocity": 93}, {"time": 4091, "pitch": 50, "duration": 2, "velocity": 95}, {"time": 4094, "pitch": 66, "duration": 4, "velocity": 127}, {"time": 4097, "pitch": 57, "duration": 3, "velocity": 93}, {"time": 4100, "pitch": 42, "duration": 13, "velocity": 107}, {"time": 4106, "pitch": 54, "duration": 4, "velocity": 97}, {"time": 4109, "pitch": 58, "duration": 1, "velocity": 55}, {"time": 4112, "pitch": 58, "duration": 2, "velocity": 89}, {"time": 4112, "pitch": 61, "duration": 2, "velocity": 122}, {"time": 4115, "pitch": 42, "duration": 7, "velocity": 79}, {"time": 4118, "pitch": 58, "duration": 1, "velocity": 100}, {"time": 4118, "pitch": 61, "duration": 1, "velocity": 107}, {"time": 4121, "pitch": 54, "duration": 3, "velocity": 107}, {"time": 4121, "pitch": 61, "duration": 1, "velocity": 67}, {"time": 4124, "pitch": 42, "duration": 13, "velocity": 92}, {"time": 4130, "pitch": 54, "duration": 1, "velocity": 88}, {"time": 4130, "pitch": 58, "duration": 1, "velocity": 97}, {"time": 4130, "pitch": 61, "duration": 1, "velocity": 95}, {"time": 4136, "pitch": 54, "duration": 1, "velocity": 100}, {"time": 4136, "pitch": 58, "duration": 1, "velocity": 127}, {"time": 4136, "pitch": 61, "duration": 1, "velocity": 127}, {"time": 4142, "pitch": 58, "duration": 1, "velocity": 122}, {"time": 4142, "pitch": 61, "duration": 1, "velocity": 117}, {"time": 4148, "pitch": 47, "duration": 22, "velocity": 89}, {"time": 4154, "pitch": 54, "duration": 6, "velocity": 95}, {"time": 4157, "pitch": 59, "duration": 3, "velocity": 90}, {"time": 4160, "pitch": 66, "duration": 8, "velocity": 117}, {"time": 4163, "pitch": 54, "duration": 9, "velocity": 88}, {"time": 4166, "pitch": 62, "duration": 4, "velocity": 86}, {"time": 4169, "pitch": 59, "duration": 3, "velocity": 81}, {"time": 4172, "pitch": 47, "duration": 21, "velocity": 74}, {"time": 4178, "pitch": 54, "duration": 7, "velocity": 90}, {"time": 4181, "pitch": 59, "duration": 4, "velocity": 63}, {"time": 4184, "pitch": 66, "duration": 10, "velocity": 112}, {"time": 4187, "pitch": 54, "duration": 8, "velocity": 77}, {"time": 4190, "pitch": 62, "duration": 7, "velocity": 88}, {"time": 4193, "pitch": 59, "duration": 4, "velocity": 90}, {"time": 4196, "pitch": 47, "duration": 22, "velocity": 82}, {"time": 4202, "pitch": 54, "duration": 6, "velocity": 86}, {"time": 4205, "pitch": 59, "duration": 3, "velocity": 72}, {"time": 4208, "pitch": 66, "duration": 9, "velocity": 107}, {"time": 4211, "pitch": 54, "duration": 8, "velocity": 85}, {"time": 4214, "pitch": 62, "duration": 4, "velocity": 88}, {"time": 4217, "pitch": 59, "duration": 4, "velocity": 95}, {"time": 4220, "pitch": 47, "duration": 16, "velocity": 86}, {"time": 4226, "pitch": 54, "duration": 6, "velocity": 93}, {"time": 4229, "pitch": 59, "duration": 4, "velocity": 69}, {"time": 4232, "pitch": 66, "duration": 10, "velocity": 127}, {"time": 4238, "pitch": 62, "duration": 5, "velocity": 95}, {"time": 4241, "pitch": 59, "duration": 3, "velocity": 93}, {"time": 4244, "pitch": 45, "duration": 18, "velocity": 83}, {"time": 4250, "pitch": 52, "duration": 6, "velocity": 74}, {"time": 4253, "pitch": 57, "duration": 4, "velocity": 77}, {"time": 4256, "pitch": 64, "duration": 10, "velocity": 95}, {"time": 4259, "pitch": 52, "duration": 8, "velocity": 61}, {"time": 4262, "pitch": 61, "duration": 5, "velocity": 89}, {"time": 4265, "pitch": 57, "duration": 4, "velocity": 88}, {"time": 4268, "pitch": 45, "duration": 20, "velocity": 82}, {"time": 4274, "pitch": 52, "duration": 6, "velocity": 86}, {"time": 4277, "pitch": 57, "duration": 3, "velocity": 79}, {"time": 4280, "pitch": 64, "duration": 10, "velocity": 92}, {"time": 4283, "pitch": 52, "duration": 8, "velocity": 70}, {"time": 4286, "pitch": 61, "duration": 4, "velocity": 83}, {"time": 4289, "pitch": 57, "duration": 3, "velocity": 95}, {"time": 4292, "pitch": 45, "duration": 21, "velocity": 82}, {"time": 4298, "pitch": 52, "duration": 6, "velocity": 83}, {"time": 4301, "pitch": 57, "duration": 2, "velocity": 85}, {"time": 4304, "pitch": 64, "duration": 10, "velocity": 93}, {"time": 4307, "pitch": 52, "duration": 7, "velocity": 66}, {"time": 4310, "pitch": 61, "duration": 4, "velocity": 97}, {"time": 4313, "pitch": 57, "duration": 3, "velocity": 93}, {"time": 4316, "pitch": 45, "duration": 14, "velocity": 82}, {"time": 4322, "pitch": 52, "duration": 7, "velocity": 78}, {"time": 4325, "pitch": 57, "duration": 2, "velocity": 76}, {"time": 4328, "pitch": 64, "duration": 11, "velocity": 97}, {"time": 4334, "pitch": 61, "duration": 3, "velocity": 102}, {"time": 4337, "pitch": 57, "duration": 2, "velocity": 83}, {"time": 4340, "pitch": 43, "duration": 21, "velocity": 88}, {"time": 4346, "pitch": 50, "duration": 6, "velocity": 72}, {"time": 4349, "pitch": 59, "duration": 2, "velocity": 75}, {"time": 4352, "pitch": 62, "duration": 11, "velocity": 95}, {"time": 4355, "pitch": 50, "duration": 7, "velocity": 69}, {"time": 4358, "pitch": 59, "duration": 6, "velocity": 79}, {"time": 4361, "pitch": 55, "duration": 3, "velocity": 83}, {"time": 4364, "pitch": 43, "duration": 20, "velocity": 79}, {"time": 4370, "pitch": 50, "duration": 6, "velocity": 74}, {"time": 4373, "pitch": 55, "duration": 4, "velocity": 75}, {"time": 4376, "pitch": 62, "duration": 10, "velocity": 93}, {"time": 4379, "pitch": 50, "duration": 7, "velocity": 81}, {"time": 4382, "pitch": 59, "duration": 4, "velocity": 76}, {"time": 4385, "pitch": 55, "duration": 2, "velocity": 89}, {"time": 4388, "pitch": 45, "duration": 21, "velocity": 88}, {"time": 4394, "pitch": 52, "duration": 6, "velocity": 77}, {"time": 4397, "pitch": 57, "duration": 4, "velocity": 82}, {"time": 4400, "pitch": 64, "duration": 11, "velocity": 93}, {"time": 4403, "pitch": 52, "duration": 8, "velocity": 60}, {"time": 4406, "pitch": 61, "duration": 6, "velocity": 82}, {"time": 4409, "pitch": 57, "duration": 3, "velocity": 88}, {"time": 4412, "pitch": 45, "duration": 18, "velocity": 92}, {"time": 4418, "pitch": 52, "duration": 17, "velocity": 63}, {"time": 4424, "pitch": 57, "duration": 3, "velocity": 77}, {"time": 4424, "pitch": 61, "duration": 4, "velocity": 117}, {"time": 4424, "pitch": 64, "duration": 4, "velocity": 96}, {"time": 4430, "pitch": 57, "duration": 4, "velocity": 92}, {"time": 4430, "pitch": 61, "duration": 3, "velocity": 96}, {"time": 4430, "pitch": 64, "duration": 5, "velocity": 79}, {"time": 4436, "pitch": 47, "duration": 45, "velocity": 74}, {"time": 4442, "pitch": 54, "duration": 7, "velocity": 83}, {"time": 4445, "pitch": 59, "duration": 5, "velocity": 66}, {"time": 4448, "pitch": 66, "duration": 19, "velocity": 127}, {"time": 4451, "pitch": 54, "duration": 7, "velocity": 66}, {"time": 4454, "pitch": 62, "duration": 13, "velocity": 51}, {"time": 4460, "pitch": 54, "duration": 23, "velocity": 67}, {"time": 4466, "pitch": 59, "duration": 18, "velocity": 59}, {"time": 4472, "pitch": 66, "duration": 12, "velocity": 97}, {"time": 4478, "pitch": 62, "duration": 5, "velocity": 55}, {"time": 4484, "pitch": 47, "duration": 45, "velocity": 38}, {"time": 4490, "pitch": 54, "duration": 10, "velocity": 44}, {"time": 4496, "pitch": 66, "duration": 36, "velocity": 93}, {"time": 4502, "pitch": 54, "duration": 11, "velocity": 53}, {"time": 4508, "pitch": 62, "duration": 14, "velocity": 47}, {"time": 4517, "pitch": 54, "duration": 13, "velocity": 61}, {"time": 4520, "pitch": 59, "duration": 12, "velocity": 66}, {"time": 4526, "pitch": 62, "duration": 6, "velocity": 54}, {"time": 4532, "pitch": 43, "duration": 44, "velocity": 73}, {"time": 4538, "pitch": 50, "duration": 19, "velocity": 41}, {"time": 4544, "pitch": 55, "duration": 7, "velocity": 74}, {"time": 4550, "pitch": 59, "duration": 20, "velocity": 72}, {"time": 4556, "pitch": 62, "duration": 32, "velocity": 93}, {"time": 4562, "pitch": 50, "duration": 17, "velocity": 39}, {"time": 4568, "pitch": 55, "duration": 19, "velocity": 76}, {"time": 4574, "pitch": 59, "duration": 18, "velocity": 77}, {"time": 4580, "pitch": 43, "duration": 33, "velocity": 67}, {"time": 4586, "pitch": 50, "duration": 30, "velocity": 61}, {"time": 4592, "pitch": 55, "duration": 13, "velocity": 75}, {"time": 4598, "pitch": 62, "duration": 10, "velocity": 78}, {"time": 4604, "pitch": 59, "duration": 11, "velocity": 81}, {"time": 4610, "pitch": 55, "duration": 3, "velocity": 55}, {"time": 4616, "pitch": 45, "duration": 9, "velocity": 70}, {"time": 4616, "pitch": 57, "duration": 11, "velocity": 81}, {"time": 4616, "pitch": 61, "duration": 10, "velocity": 89}, {"time": 4616, "pitch": 64, "duration": 10, "velocity": 90}, {"time": 4628, "pitch": 47, "duration": 44, "velocity": 77}, {"time": 4634, "pitch": 54, "duration": 21, "velocity": 82}, {"time": 4640, "pitch": 59, "duration": 19, "velocity": 67}, {"time": 4646, "pitch": 62, "duration": 6, "velocity": 58}, {"time": 4652, "pitch": 66, "duration": 40, "velocity": 122}, {"time": 4658, "pitch": 54, "duration": 18, "velocity": 75}, {"time": 4664, "pitch": 62, "duration": 25, "velocity": 88}, {"time": 4667, "pitch": 59, "duration": 14, "velocity": 75}, {"time": 4676, "pitch": 47, "duration": 37, "velocity": 63}, {"time": 4682, "pitch": 54, "duration": 22, "velocity": 79}, {"time": 4688, "pitch": 59, "duration": 16, "velocity": 70}, {"time": 4694, "pitch": 62, "duration": 5, "velocity": 66}, {"time": 4700, "pitch": 66, "duration": 22, "velocity": 122}, {"time": 4706, "pitch": 54, "duration": 5, "velocity": 72}, {"time": 4712, "pitch": 62, "duration": 12, "velocity": 90}, {"time": 4718, "pitch": 59, "duration": 13, "velocity": 85}, {"time": 4724, "pitch": 43, "duration": 41, "velocity": 82}, {"time": 4730, "pitch": 50, "duration": 40, "velocity": 75}, {"time": 4736, "pitch": 55, "duration": 14, "velocity": 83}, {"time": 4736, "pitch": 62, "duration": 2, "velocity": 17}, {"time": 4742, "pitch": 59, "duration": 19, "velocity": 72}, {"time": 4748, "pitch": 67, "duration": 20, "velocity": 100}, {"time": 4754, "pitch": 55, "duration": 66, "velocity": 66}, {"time": 4760, "pitch": 62, "duration": 10, "velocity": 66}, {"time": 4766, "pitch": 59, "duration": 54, "velocity": 72}, {"time": 4772, "pitch": 43, "duration": 48, "velocity": 69}, {"time": 4772, "pitch": 50, "duration": 48, "velocity": 43}, {"time": 4772, "pitch": 62, "duration": 47, "velocity": 71}, {"time": 4772, "pitch": 67, "duration": 47, "velocity": 81}, {"time": 4820, "pitch": 47, "duration": 96, "velocity": 67}, {"time": 4820, "pitch": 59, "duration": 96, "velocity": 49}, {"time": 4820, "pitch": 63, "duration": 95, "velocity": 57}, {"time": 4820, "pitch": 66, "duration": 96, "velocity": 48}], "annotations": [{"time": 20, "annotation": {"number": 64, "value": 127}, "group": "control_change"}, {"time": 64, "annotation": {"number": 64, "value": 0}, "group": "control_change"}, {"time": 68, "annotation": {"number": 64, "value": 127}, "group": "control_change"}, {"time": 112, "annotation": {"number": 64, "value": 0}, "group": "control_change"}, {"time": 116, "annotation": {"number": 64, "value": 127}, "group": "control_change"}, {"time": 158, "annotation": {"number": 64, "value": 0}, "group": "control_change"}, {"time": 164, "annotation": {"number": 64, "value": 127}, "group": "control_change"}, {"time": 164, "annotation": {"number": 64, "value": 0}, "group": "control_change"}, {"time": 213, "annotation": {"number": 64, "value": 127}, "group": "control_change"}, {"time": 213, "annotation": {"number": 64, "value": 0}, "group": "control_change"}, {"time": 255, "annotation": {"number": 64, "value": 0}, "group": "control_change"}, {"time": 260, "annotation": {"number": 64, "value": 127}, "group": "control_change"}, {"time": 303, "annotation": {"number": 64, "value": 0}, "group": "control_change"}, {"time": 308, "annotation": {"number": 64, "value": 127}, "group": "control_change"}, {"time": 350, "annotation": {"number": 64, "value": 0}, "group": "control_change"}, {"time": 356, "annotation": {"number": 64, "value": 127}, "group": "control_change"}, {"time": 399, "annotation": {"number": 64, "value": 0}, "group": "control_change"}, {"time": 404, "annotation": {"number": 64, "value": 127}, "group": "control_change"}, {"time": 447, "annotation": {"number": 64, "value": 0}, "group": "control_change"}, {"time": 453, "annotation": {"number": 64, "value": 127}, "group": "control_change"}, {"time": 496, "annotation": {"number": 64, "value": 0}, "group": "control_change"}, {"time": 500, "annotation": {"number": 64, "value": 127}, "group": "control_change"}, {"time": 544, "annotation": {"number": 64, "value": 0}, "group": "control_change"}, {"time": 548, "annotation": {"number": 64, "value": 127}, "group": "control_change"}, {"time": 591, "annotation": {"number": 64, "value": 0}, "group": "control_change"}, {"time": 596, "annotation": {"number": 64, "value": 127}, "group": "control_change"}, {"time": 640, "annotation": {"number": 64, "value": 0}, "group": "control_change"}, {"time": 647, "annotation": {"number": 64, "value": 127}, "group": "control_change"}, {"time": 688, "annotation": {"number": 64, "value": 0}, "group": "control_change"}, {"time": 692, "annotation": {"number": 64, "value": 127}, "group": "control_change"}, {"time": 737, "annotation": {"number": 64, "value": 0}, "group": "control_change"}, {"time": 740, "annotation": {"number": 64, "value": 127}, "group": "control_change"}, {"time": 783, "annotation": {"number": 64, "value": 0}, "group": "control_change"}, {"time": 788, "annotation": {"number": 64, "value": 127}, "group": "control_change"}, {"time": 830, "annotation": {"number": 64, "value": 0}, "group": "control_change"}, {"time": 835, "annotation": {"number": 64, "value": 127}, "group": "control_change"}, {"time": 879, "annotation": {"number": 64, "value": 0}, "group": "control_change"}, {"time": 883, "annotation": {"number": 64, "value": 127}, "group": "control_change"}, {"time": 928, "annotation": {"number": 64, "value": 0}, "group": "control_change"}, {"time": 930, "annotation": {"number": 64, "value": 127}, "group": "control_change"}, {"time": 975, "annotation": {"number": 64, "value": 0}, "group": "control_change"}, {"time": 979, "annotation": {"number": 64, "value": 127}, "group": "control_change"}, {"time": 1022, "annotation": {"number": 64, "value": 0}, "group": "control_change"}, {"time": 1027, "annotation": {"number": 64, "value": 127}, "group": "control_change"}, {"time": 1071, "annotation": {"number": 64, "value": 0}, "group": "control_change"}, {"time": 1076, "annotation": {"number": 64, "value": 127}, "group": "control_change"}, {"time": 1121, "annotation": {"number": 64, "value": 0}, "group": "control_change"}, {"time": 1176, "annotation": {"number": 64, "value": 127}, "group": "control_change"}, {"time": 1216, "annotation": {"number": 64, "value": 0}, "group": "control_change"}, {"time": 1220, "annotation": {"number": 64, "value": 127}, "group": "control_change"}, {"time": 1265, "annotation": {"number": 64, "value": 0}, "group": "control_change"}, {"time": 1267, "annotation": {"number": 64, "value": 127}, "group": "control_change"}, {"time": 1313, "annotation": {"number": 64, "value": 0}, "group": "control_change"}, {"time": 1316, "annotation": {"number": 64, "value": 127}, "group": "control_change"}, {"time": 1361, "annotation": {"number": 64, "value": 0}, "group": "control_change"}, {"time": 1365, "annotation": {"number": 64, "value": 127}, "group": "control_change"}, {"time": 1409, "annotation": {"number": 64, "value": 0}, "group": "control_change"}, {"time": 1411, "annotation": {"number": 64, "value": 127}, "group": "control_change"}, {"time": 1458, "annotation": {"number": 64, "value": 0}, "group": "control_change"}, {"time": 1460, "annotation": {"number": 64, "value": 127}, "group": "control_change"}, {"time": 1529, "annotation": {"number": 64, "value": 0}, "group": "control_change"}, {"time": 1532, "annotation": {"number": 64, "value": 127}, "group": "control_change"}, {"time": 1552, "annotation": {"number": 64, "value": 0}, "group": "control_change"}, {"time": 1556, "annotation": {"number": 64, "value": 127}, "group": "control_change"}, {"time": 1565, "annotation": {"number": 64, "value": 0}, "group": "control_change"}, {"time": 1567, "annotation": {"number": 64, "value": 127}, "group": "control_change"}, {"time": 1577, "annotation": {"number": 64, "value": 0}, "group": "control_change"}, {"time": 1579, "annotation": {"number": 64, "value": 127}, "group": "control_change"}, {"time": 1589, "annotation": {"number": 64, "value": 0}, "group": "control_change"}, {"time": 1592, "annotation": {"number": 64, "value": 127}, "group": "control_change"}, {"time": 1601, "annotation": {"number": 64, "value": 0}, "group": "control_change"}, {"time": 1604, "annotation": {"number": 64, "value": 127}, "group": "control_change"}, {"time": 1613, "annotation": {"number": 64, "value": 0}, "group": "control_change"}, {"time": 1615, "annotation": {"number": 64, "value": 127}, "group": "control_change"}, {"time": 1625, "annotation": {"number": 64, "value": 0}, "group": "control_change"}, {"time": 1627, "annotation": {"number": 64, "value": 127}, "group": "control_change"}, {"time": 1637, "annotation": {"number": 64, "value": 0}, "group": "control_change"}, {"time": 1640, "annotation": {"number": 64, "value": 127}, "group": "control_change"}, {"time": 1649, "annotation": {"number": 64, "value": 0}, "group": "control_change"}, {"time": 1651, "annotation": {"number": 64, "value": 127}, "group": "control_change"}, {"time": 1661, "annotation": {"number": 64, "value": 0}, "group": "control_change"}, {"time": 1664, "annotation": {"number": 64, "value": 127}, "group": "control_change"}, {"time": 1673, "annotation": {"number": 64, "value": 0}, "group": "control_change"}, {"time": 1676, "annotation": {"number": 64, "value": 127}, "group": "control_change"}, {"time": 1685, "annotation": {"number": 64, "value": 0}, "group": "control_change"}, {"time": 1688, "annotation": {"number": 64, "value": 127}, "group": "control_change"}, {"time": 1697, "annotation": {"number": 64, "value": 0}, "group": "control_change"}, {"time": 1700, "annotation": {"number": 64, "value": 127}, "group": "control_change"}, {"time": 1709, "annotation": {"number": 64, "value": 0}, "group": "control_change"}, {"time": 1712, "annotation": {"number": 64, "value": 127}, "group": "control_change"}, {"time": 1721, "annotation": {"number": 64, "value": 0}, "group": "control_change"}, {"time": 1723, "annotation": {"number": 64, "value": 127}, "group": "control_change"}, {"time": 1734, "annotation": {"number": 64, "value": 0}, "group": "control_change"}, {"time": 1735, "annotation": {"number": 64, "value": 127}, "group": "control_change"}, {"time": 1769, "annotation": {"number": 64, "value": 0}, "group": "control_change"}, {"time": 1771, "annotation": {"number": 64, "value": 127}, "group": "control_change"}, {"time": 1793, "annotation": {"number": 64, "value": 0}, "group": "control_change"}, {"time": 1795, "annotation": {"number": 64, "value": 127}, "group": "control_change"}, {"time": 1806, "annotation": {"number": 64, "value": 0}, "group": "control_change"}, {"time": 1808, "annotation": {"number": 64, "value": 127}, "group": "control_change"}, {"time": 1829, "annotation": {"number": 64, "value": 0}, "group": "control_change"}, {"time": 1831, "annotation": {"number": 64, "value": 127}, "group": "control_change"}, {"time": 1841, "annotation": {"number": 64, "value": 0}, "group": "control_change"}, {"time": 1843, "annotation": {"number": 64, "value": 127}, "group": "control_change"}, {"time": 1854, "annotation": {"number": 64, "value": 0}, "group": "control_change"}, {"time": 1856, "annotation": {"number": 64, "value": 127}, "group": "control_change"}, {"time": 1864, "annotation": {"number": 64, "value": 0}, "group": "control_change"}, {"time": 1867, "annotation": {"number": 64, "value": 127}, "group": "control_change"}, {"time": 1889, "annotation": {"number": 64, "value": 0}, "group": "control_change"}, {"time": 1891, "annotation": {"number": 64, "value": 127}, "group": "control_change"}, {"time": 1902, "annotation": {"number": 64, "value": 0}, "group": "control_change"}, {"time": 1904, "annotation": {"number": 64, "value": 127}, "group": "control_change"}, {"time": 1913, "annotation": {"number": 64, "value": 0}, "group": "control_change"}, {"time": 1916, "annotation": {"number": 64, "value": 127}, "group": "control_change"}, {"time": 1936, "annotation": {"number": 64, "value": 0}, "group": "control_change"}, {"time": 1939, "annotation": {"number": 64, "value": 127}, "group": "control_change"}, {"time": 1961, "annotation": {"number": 64, "value": 0}, "group": "control_change"}, {"time": 1963, "annotation": {"number": 64, "value": 127}, "group": "control_change"}, {"time": 1985, "annotation": {"number": 64, "value": 0}, "group": "control_change"}, {"time": 1987, "annotation": {"number": 64, "value": 127}, "group": "control_change"}, {"time": 2033, "annotation": {"number": 64, "value": 0}, "group": "control_change"}, {"time": 2035, "annotation": {"number": 64, "value": 127}, "group": "control_change"}, {"time": 2116, "annotation": {"number": 64, "value": 0}, "group": "control_change"}, {"time": 2118, "annotation": {"number": 64, "value": 127}, "group": "control_change"}, {"time": 2130, "annotation": {"number": 64, "value": 0}, "group": "control_change"}, {"time": 2131, "annotation": {"number": 64, "value": 127}, "group": "control_change"}, {"time": 2177, "annotation": {"number": 64, "value": 0}, "group": "control_change"}, {"time": 2180, "annotation": {"number": 64, "value": 127}, "group": "control_change"}, {"time": 2222, "annotation": {"number": 64, "value": 0}, "group": "control_change"}, {"time": 2227, "annotation": {"number": 64, "value": 127}, "group": "control_change"}, {"time": 2251, "annotation": {"number": 64, "value": 0}, "group": "control_change"}, {"time": 2252, "annotation": {"number": 64, "value": 127}, "group": "control_change"}, {"time": 2273, "annotation": {"number": 64, "value": 0}, "group": "control_change"}, {"time": 2275, "annotation": {"number": 64, "value": 127}, "group": "control_change"}, {"time": 2321, "annotation": {"number": 64, "value": 0}, "group": "control_change"}, {"time": 2323, "annotation": {"number": 64, "value": 127}, "group": "control_change"}, {"time": 2346, "annotation": {"number": 64, "value": 0}, "group": "control_change"}, {"time": 2347, "annotation": {"number": 64, "value": 127}, "group": "control_change"}, {"time": 2371, "annotation": {"number": 64, "value": 0}, "group": "control_change"}, {"time": 2372, "annotation": {"number": 64, "value": 127}, "group": "control_change"}, {"time": 2393, "annotation": {"number": 64, "value": 0}, "group": "control_change"}, {"time": 2395, "annotation": {"number": 64, "value": 127}, "group": "control_change"}, {"time": 2417, "annotation": {"number": 64, "value": 0}, "group": "control_change"}, {"time": 2420, "annotation": {"number": 64, "value": 127}, "group": "control_change"}, {"time": 2441, "annotation": {"number": 64, "value": 0}, "group": "control_change"}, {"time": 2443, "annotation": {"number": 64, "value": 127}, "group": "control_change"}, {"time": 2466, "annotation": {"number": 64, "value": 0}, "group": "control_change"}, {"time": 2468, "annotation": {"number": 64, "value": 127}, "group": "control_change"}, {"time": 2489, "annotation": {"number": 64, "value": 0}, "group": "control_change"}, {"time": 2491, "annotation": {"number": 64, "value": 127}, "group": "control_change"}, {"time": 2513, "annotation": {"number": 64, "value": 0}, "group": "control_change"}, {"time": 2515, "annotation": {"number": 64, "value": 127}, "group": "control_change"}, {"time": 2527, "annotation": {"number": 64, "value": 127}, "group": "control_change"}, {"time": 2533, "annotation": {"number": 64, "value": 0}, "group": "control_change"}, {"time": 2539, "annotation": {"number": 64, "value": 127}, "group": "control_change"}, {"time": 2557, "annotation": {"number": 64, "value": 0}, "group": "control_change"}, {"time": 2569, "annotation": {"number": 64, "value": 127}, "group": "control_change"}, {"time": 2571, "annotation": {"number": 64, "value": 0}, "group": "control_change"}, {"time": 2611, "annotation": {"number": 64, "value": 127}, "group": "control_change"}, {"time": 2634, "annotation": {"number": 64, "value": 0}, "group": "control_change"}, {"time": 2635, "annotation": {"number": 64, "value": 127}, "group": "control_change"}, {"time": 2657, "annotation": {"number": 64, "value": 0}, "group": "control_change"}, {"time": 2659, "annotation": {"number": 64, "value": 127}, "group": "control_change"}, {"time": 2681, "annotation": {"number": 64, "value": 0}, "group": "control_change"}, {"time": 2683, "annotation": {"number": 64, "value": 127}, "group": "control_change"}, {"time": 2705, "annotation": {"number": 64, "value": 0}, "group": "control_change"}, {"time": 2708, "annotation": {"number": 64, "value": 127}, "group": "control_change"}, {"time": 2730, "annotation": {"number": 64, "value": 0}, "group": "control_change"}, {"time": 2732, "annotation": {"number": 64, "value": 127}, "group": "control_change"}, {"time": 2754, "annotation": {"number": 64, "value": 0}, "group": "control_change"}, {"time": 2756, "annotation": {"number": 64, "value": 127}, "group": "control_change"}, {"time": 2778, "annotation": {"number": 64, "value": 0}, "group": "control_change"}, {"time": 2780, "annotation": {"number": 64, "value": 127}, "group": "control_change"}, {"time": 2801, "annotation": {"number": 64, "value": 0}, "group": "control_change"}, {"time": 2803, "annotation": {"number": 64, "value": 127}, "group": "control_change"}, {"time": 2825, "annotation": {"number": 64, "value": 0}, "group": "control_change"}, {"time": 2828, "annotation": {"number": 64, "value": 127}, "group": "control_change"}, {"time": 2849, "annotation": {"number": 64, "value": 0}, "group": "control_change"}, {"time": 2851, "annotation": {"number": 64, "value": 127}, "group": "control_change"}, {"time": 2873, "annotation": {"number": 64, "value": 0}, "group": "control_change"}, {"time": 2875, "annotation": {"number": 64, "value": 127}, "group": "control_change"}, {"time": 2898, "annotation": {"number": 64, "value": 0}, "group": "control_change"}, {"time": 2900, "annotation": {"number": 64, "value": 127}, "group": "control_change"}, {"time": 2920, "annotation": {"number": 64, "value": 0}, "group": "control_change"}, {"time": 2922, "annotation": {"number": 64, "value": 127}, "group": "control_change"}, {"time": 2945, "annotation": {"number": 64, "value": 0}, "group": "control_change"}, {"time": 2947, "annotation": {"number": 64, "value": 127}, "group": "control_change"}, {"time": 2970, "annotation": {"number": 64, "value": 0}, "group": "control_change"}, {"time": 2972, "annotation": {"number": 64, "value": 127}, "group": "control_change"}, {"time": 2992, "annotation": {"number": 64, "value": 0}, "group": "control_change"}, {"time": 2996, "annotation": {"number": 64, "value": 127}, "group": "control_change"}, {"time": 3041, "annotation": {"number": 64, "value": 0}, "group": "control_change"}, {"time": 3044, "annotation": {"number": 64, "value": 127}, "group": "control_change"}, {"time": 3087, "annotation": {"number": 64, "value": 0}, "group": "control_change"}, {"time": 3092, "annotation": {"number": 64, "value": 127}, "group": "control_change"}, {"time": 3137, "annotation": {"number": 64, "value": 0}, "group": "control_change"}, {"time": 3141, "annotation": {"number": 64, "value": 127}, "group": "control_change"}, {"time": 3184, "annotation": {"number": 64, "value": 0}, "group": "control_change"}, {"time": 3188, "annotation": {"number": 64, "value": 127}, "group": "control_change"}, {"time": 3230, "annotation": {"number": 64, "value": 0}, "group": "control_change"}, {"time": 3236, "annotation": {"number": 64, "value": 127}, "group": "control_change"}, {"time": 3280, "annotation": {"number": 64, "value": 0}, "group": "control_change"}, {"time": 3284, "annotation": {"number": 64, "value": 127}, "group": "control_change"}, {"time": 3328, "annotation": {"number": 64, "value": 0}, "group": "control_change"}, {"time": 3332, "annotation": {"number": 64, "value": 127}, "group": "control_change"}, {"time": 3376, "annotation": {"number": 64, "value": 0}, "group": "control_change"}, {"time": 3380, "annotation": {"number": 64, "value": 127}, "group": "control_change"}, {"time": 3425, "annotation": {"number": 64, "value": 0}, "group": "control_change"}, {"time": 3427, "annotation": {"number": 64, "value": 127}, "group": "control_change"}, {"time": 3472, "annotation": {"number": 64, "value": 0}, "group": "control_change"}, {"time": 3476, "annotation": {"number": 64, "value": 127}, "group": "control_change"}, {"time": 3520, "annotation": {"number": 64, "value": 0}, "group": "control_change"}, {"time": 3523, "annotation": {"number": 64, "value": 127}, "group": "control_change"}, {"time": 3567, "annotation": {"number": 64, "value": 0}, "group": "control_change"}, {"time": 3571, "annotation": {"number": 64, "value": 127}, "group": "control_change"}, {"time": 3617, "annotation": {"number": 64, "value": 0}, "group": "control_change"}, {"time": 3626, "annotation": {"number": 64, "value": 127}, "group": "control_change"}, {"time": 3662, "annotation": {"number": 64, "value": 0}, "group": "control_change"}, {"time": 3669, "annotation": {"number": 64, "value": 127}, "group": "control_change"}, {"time": 3712, "annotation": {"number": 64, "value": 0}, "group": "control_change"}, {"time": 3716, "annotation": {"number": 64, "value": 127}, "group": "control_change"}, {"time": 3761, "annotation": {"number": 64, "value": 0}, "group": "control_change"}, {"time": 3764, "annotation": {"number": 64, "value": 127}, "group": "control_change"}, {"time": 3809, "annotation": {"number": 64, "value": 0}, "group": "control_change"}, {"time": 3811, "annotation": {"number": 64, "value": 127}, "group": "control_change"}, {"time": 3857, "annotation": {"number": 64, "value": 0}, "group": "control_change"}, {"time": 3859, "annotation": {"number": 64, "value": 127}, "group": "control_change"}, {"time": 3882, "annotation": {"number": 64, "value": 0}, "group": "control_change"}, {"time": 3884, "annotation": {"number": 64, "value": 127}, "group": "control_change"}, {"time": 3905, "annotation": {"number": 64, "value": 0}, "group": "control_change"}, {"time": 3907, "annotation": {"number": 64, "value": 127}, "group": "control_change"}, {"time": 3953, "annotation": {"number": 64, "value": 0}, "group": "control_change"}, {"time": 3955, "annotation": {"number": 64, "value": 127}, "group": "control_change"}, {"time": 3977, "annotation": {"number": 64, "value": 0}, "group": "control_change"}, {"time": 3979, "annotation": {"number": 64, "value": 127}, "group": "control_change"}, {"time": 4000, "annotation": {"number": 64, "value": 0}, "group": "control_change"}, {"time": 4002, "annotation": {"number": 64, "value": 127}, "group": "control_change"}, {"time": 4003, "annotation": {"number": 64, "value": 127}, "group": "control_change"}, {"time": 4026, "annotation": {"number": 64, "value": 0}, "group": "control_change"}, {"time": 4027, "annotation": {"number": 64, "value": 127}, "group": "control_change"}, {"time": 4049, "annotation": {"number": 64, "value": 0}, "group": "control_change"}, {"time": 4052, "annotation": {"number": 64, "value": 127}, "group": "control_change"}, {"time": 4075, "annotation": {"number": 64, "value": 0}, "group": "control_change"}, {"time": 4076, "annotation": {"number": 64, "value": 127}, "group": "control_change"}, {"time": 4096, "annotation": {"number": 64, "value": 0}, "group": "control_change"}, {"time": 4099, "annotation": {"number": 64, "value": 127}, "group": "control_change"}, {"time": 4145, "annotation": {"number": 64, "value": 0}, "group": "control_change"}, {"time": 4148, "annotation": {"number": 64, "value": 127}, "group": "control_change"}, {"time": 4169, "annotation": {"number": 64, "value": 0}, "group": "control_change"}, {"time": 4171, "annotation": {"number": 64, "value": 127}, "group": "control_change"}, {"time": 4193, "annotation": {"number": 64, "value": 0}, "group": "control_change"}, {"time": 4195, "annotation": {"number": 64, "value": 127}, "group": "control_change"}, {"time": 4241, "annotation": {"number": 64, "value": 0}, "group": "control_change"}, {"time": 4243, "annotation": {"number": 64, "value": 127}, "group": "control_change"}, {"time": 4266, "annotation": {"number": 64, "value": 0}, "group": "control_change"}, {"time": 4267, "annotation": {"number": 64, "value": 127}, "group": "control_change"}, {"time": 4336, "annotation": {"number": 64, "value": 0}, "group": "control_change"}, {"time": 4340, "annotation": {"number": 64, "value": 127}, "group": "control_change"}, {"time": 4360, "annotation": {"number": 64, "value": 0}, "group": "control_change"}, {"time": 4363, "annotation": {"number": 64, "value": 127}, "group": "control_change"}, {"time": 4385, "annotation": {"number": 64, "value": 0}, "group": "control_change"}, {"time": 4387, "annotation": {"number": 64, "value": 127}, "group": "control_change"}, {"time": 4428, "annotation": {"number": 64, "value": 0}, "group": "control_change"}, {"time": 4449, "annotation": {"number": 64, "value": 127}, "group": "control_change"}, {"time": 4455, "annotation": {"number": 64, "value": 0}, "group": "control_change"}, {"time": 4532, "annotation": {"number": 64, "value": 127}, "group": "control_change"}, {"time": 4573, "annotation": {"number": 64, "value": 0}, "group": "control_change"}, {"time": 4580, "annotation": {"number": 64, "value": 127}, "group": "control_change"}, {"time": 4614, "annotation": {"number": 64, "value": 0}, "group": "control_change"}, {"time": 4627, "annotation": {"number": 64, "value": 127}, "group": "control_change"}, {"time": 4671, "annotation": {"number": 64, "value": 0}, "group": "control_change"}, {"time": 4675, "annotation": {"number": 64, "value": 127}, "group": "control_change"}, {"time": 4719, "annotation": {"number": 64, "value": 0}, "group": "control_change"}, {"time": 4724, "annotation": {"number": 64, "value": 127}, "group": "control_change"}, {"time": 4770, "annotation": {"number": 64, "value": 0}, "group": "control_change"}, {"time": 4817, "annotation": {"number": 64, "value": 127}, "group": "control_change"}, {"time": 4820, "annotation": {"number": 64, "value": 0}, "group": "control_change"}, {"time": 4832, "annotation": {"number": 64, "value": 127}, "group": "control_change"}, {"time": 4967, "annotation": {"number": 64, "value": 127}, "group": "control_change"}, {"time": 4968, "annotation": {"number": 64, "value": 0}, "group": "control_change"}, {"time": 4972, "annotation": {"number": 64, "value": 127}, "group": "control_change"}, {"time": 4974, "annotation": {"number": 64, "value": 0}, "group": "control_change"}]}]}