{"metadata": {"schema_version": "0.2", "title": "None", "source_filename": "751.mid", "source_format": "midi"}, "resolution": 12, "tempos": [{"time": 0, "qpm": 75.0}], "time_signatures": [{"time": 0, "numerator": 1, "denominator": 4}], "tracks": [{"program": 4, "is_drum": false, "name": "MELODY", "notes": [{"time": 406, "pitch": 69, "duration": 7, "velocity": 99}, {"time": 412, "pitch": 73, "duration": 5, "velocity": 99}, {"time": 418, "pitch": 73, "duration": 16, "velocity": 112}, {"time": 442, "pitch": 73, "duration": 6, "velocity": 127}, {"time": 448, "pitch": 71, "duration": 6, "velocity": 90}, {"time": 454, "pitch": 69, "duration": 6, "velocity": 93}, {"time": 460, "pitch": 71, "duration": 9, "velocity": 99}, {"time": 472, "pitch": 73, "duration": 15, "velocity": 112}, {"time": 502, "pitch": 69, "duration": 7, "velocity": 95}, {"time": 508, "pitch": 73, "duration": 5, "velocity": 95}, {"time": 514, "pitch": 73, "duration": 16, "velocity": 102}, {"time": 538, "pitch": 74, "duration": 6, "velocity": 99}, {"time": 544, "pitch": 73, "duration": 5, "velocity": 100}, {"time": 550, "pitch": 76, "duration": 7, "velocity": 100}, {"time": 559, "pitch": 69, "duration": 26, "velocity": 96}, {"time": 598, "pitch": 69, "duration": 7, "velocity": 86}, {"time": 604, "pitch": 74, "duration": 3, "velocity": 96}, {"time": 610, "pitch": 74, "duration": 19, "velocity": 97}, {"time": 634, "pitch": 74, "duration": 6, "velocity": 112}, {"time": 640, "pitch": 73, "duration": 7, "velocity": 96}, {"time": 646, "pitch": 69, "duration": 7, "velocity": 74}, {"time": 652, "pitch": 64, "duration": 14, "velocity": 76}, {"time": 664, "pitch": 73, "duration": 25, "velocity": 107}, {"time": 694, "pitch": 69, "duration": 4, "velocity": 92}, {"time": 697, "pitch": 73, "duration": 3, "velocity": 99}, {"time": 703, "pitch": 71, "duration": 14, "velocity": 96}, {"time": 718, "pitch": 69, "duration": 4, "velocity": 99}, {"time": 721, "pitch": 73, "duration": 2, "velocity": 112}, {"time": 727, "pitch": 71, "duration": 10, "velocity": 107}, {"time": 742, "pitch": 69, "duration": 2, "velocity": 96}, {"time": 745, "pitch": 73, "duration": 2, "velocity": 107}, {"time": 751, "pitch": 71, "duration": 25, "velocity": 112}, {"time": 790, "pitch": 69, "duration": 7, "velocity": 99}, {"time": 796, "pitch": 73, "duration": 5, "velocity": 99}, {"time": 802, "pitch": 73, "duration": 16, "velocity": 112}, {"time": 826, "pitch": 73, "duration": 6, "velocity": 127}, {"time": 832, "pitch": 71, "duration": 6, "velocity": 90}, {"time": 838, "pitch": 69, "duration": 6, "velocity": 93}, {"time": 844, "pitch": 71, "duration": 9, "velocity": 99}, {"time": 856, "pitch": 76, "duration": 15, "velocity": 112}, {"time": 886, "pitch": 69, "duration": 7, "velocity": 95}, {"time": 892, "pitch": 73, "duration": 5, "velocity": 95}, {"time": 898, "pitch": 73, "duration": 16, "velocity": 102}, {"time": 922, "pitch": 74, "duration": 6, "velocity": 99}, {"time": 928, "pitch": 73, "duration": 5, "velocity": 100}, {"time": 934, "pitch": 76, "duration": 7, "velocity": 100}, {"time": 943, "pitch": 69, "duration": 26, "velocity": 96}, {"time": 982, "pitch": 69, "duration": 7, "velocity": 86}, {"time": 988, "pitch": 74, "duration": 3, "velocity": 96}, {"time": 994, "pitch": 74, "duration": 19, "velocity": 97}, {"time": 1018, "pitch": 74, "duration": 6, "velocity": 112}, {"time": 1024, "pitch": 73, "duration": 7, "velocity": 96}, {"time": 1030, "pitch": 69, "duration": 7, "velocity": 74}, {"time": 1036, "pitch": 76, "duration": 7, "velocity": 122}, {"time": 1048, "pitch": 73, "duration": 6, "velocity": 107}, {"time": 1054, "pitch": 73, "duration": 5, "velocity": 117}, {"time": 1060, "pitch": 81, "duration": 13, "velocity": 112}, {"time": 1090, "pitch": 76, "duration": 6, "velocity": 117}, {"time": 1096, "pitch": 74, "duration": 6, "velocity": 107}, {"time": 1102, "pitch": 74, "duration": 4, "velocity": 112}, {"time": 1108, "pitch": 69, "duration": 4, "velocity": 86}, {"time": 1114, "pitch": 69, "duration": 7, "velocity": 102}, {"time": 1126, "pitch": 68, "duration": 4, "velocity": 99}, {"time": 1132, "pitch": 69, "duration": 25, "velocity": 93}, {"time": 1162, "pitch": 69, "duration": 5, "velocity": 100}, {"time": 1168, "pitch": 71, "duration": 3, "velocity": 112}, {"time": 1174, "pitch": 73, "duration": 3, "velocity": 127}, {"time": 1180, "pitch": 76, "duration": 2, "velocity": 112}, {"time": 1183, "pitch": 76, "duration": 14, "velocity": 122}, {"time": 1210, "pitch": 73, "duration": 5, "velocity": 127}, {"time": 1216, "pitch": 71, "duration": 4, "velocity": 107}, {"time": 1222, "pitch": 69, "duration": 4, "velocity": 102}, {"time": 1228, "pitch": 71, "duration": 2, "velocity": 127}, {"time": 1231, "pitch": 73, "duration": 17, "velocity": 127}, {"time": 1258, "pitch": 69, "duration": 5, "velocity": 112}, {"time": 1264, "pitch": 71, "duration": 4, "velocity": 100}, {"time": 1270, "pitch": 73, "duration": 4, "velocity": 127}, {"time": 1276, "pitch": 81, "duration": 2, "velocity": 122}, {"time": 1279, "pitch": 81, "duration": 5, "velocity": 122}, {"time": 1285, "pitch": 83, "duration": 3, "velocity": 122}, {"time": 1288, "pitch": 81, "duration": 9, "velocity": 117}, {"time": 1300, "pitch": 81, "duration": 4, "velocity": 127}, {"time": 1306, "pitch": 80, "duration": 5, "velocity": 127}, {"time": 1312, "pitch": 78, "duration": 4, "velocity": 127}, {"time": 1318, "pitch": 76, "duration": 5, "velocity": 127}, {"time": 1324, "pitch": 78, "duration": 2, "velocity": 127}, {"time": 1327, "pitch": 78, "duration": 6, "velocity": 122}, {"time": 1333, "pitch": 76, "duration": 14, "velocity": 112}, {"time": 1354, "pitch": 69, "duration": 5, "velocity": 112}, {"time": 1360, "pitch": 71, "duration": 4, "velocity": 97}, {"time": 1366, "pitch": 73, "duration": 5, "velocity": 122}, {"time": 1372, "pitch": 76, "duration": 2, "velocity": 127}, {"time": 1375, "pitch": 76, "duration": 12, "velocity": 127}, {"time": 1402, "pitch": 73, "duration": 4, "velocity": 127}, {"time": 1408, "pitch": 71, "duration": 4, "velocity": 102}, {"time": 1414, "pitch": 69, "duration": 3, "velocity": 112}, {"time": 1420, "pitch": 71, "duration": 2, "velocity": 122}, {"time": 1423, "pitch": 69, "duration": 15, "velocity": 112}, {"time": 1450, "pitch": 69, "duration": 4, "velocity": 107}, {"time": 1456, "pitch": 71, "duration": 4, "velocity": 112}, {"time": 1462, "pitch": 73, "duration": 5, "velocity": 122}, {"time": 1468, "pitch": 76, "duration": 4, "velocity": 127}, {"time": 1474, "pitch": 76, "duration": 6, "velocity": 127}, {"time": 1480, "pitch": 74, "duration": 4, "velocity": 122}, {"time": 1486, "pitch": 74, "duration": 4, "velocity": 112}, {"time": 1492, "pitch": 73, "duration": 5, "velocity": 127}, {"time": 1498, "pitch": 81, "duration": 9, "velocity": 127}, {"time": 1510, "pitch": 73, "duration": 4, "velocity": 127}, {"time": 1516, "pitch": 73, "duration": 6, "velocity": 127}, {"time": 1522, "pitch": 71, "duration": 16, "velocity": 117}, {"time": 1546, "pitch": 69, "duration": 5, "velocity": 112}, {"time": 1552, "pitch": 71, "duration": 4, "velocity": 97}, {"time": 1558, "pitch": 73, "duration": 5, "velocity": 122}, {"time": 1564, "pitch": 76, "duration": 2, "velocity": 127}, {"time": 1567, "pitch": 76, "duration": 12, "velocity": 127}, {"time": 1594, "pitch": 73, "duration": 4, "velocity": 127}, {"time": 1600, "pitch": 71, "duration": 4, "velocity": 102}, {"time": 1606, "pitch": 69, "duration": 3, "velocity": 112}, {"time": 1612, "pitch": 71, "duration": 2, "velocity": 122}, {"time": 1615, "pitch": 73, "duration": 15, "velocity": 112}, {"time": 1642, "pitch": 69, "duration": 4, "velocity": 107}, {"time": 1648, "pitch": 71, "duration": 4, "velocity": 112}, {"time": 1654, "pitch": 73, "duration": 4, "velocity": 127}, {"time": 1660, "pitch": 81, "duration": 2, "velocity": 122}, {"time": 1663, "pitch": 81, "duration": 5, "velocity": 122}, {"time": 1669, "pitch": 83, "duration": 3, "velocity": 122}, {"time": 1672, "pitch": 81, "duration": 9, "velocity": 117}, {"time": 1684, "pitch": 81, "duration": 4, "velocity": 127}, {"time": 1690, "pitch": 80, "duration": 5, "velocity": 127}, {"time": 1696, "pitch": 78, "duration": 4, "velocity": 127}, {"time": 1702, "pitch": 76, "duration": 5, "velocity": 127}, {"time": 1708, "pitch": 78, "duration": 2, "velocity": 127}, {"time": 1711, "pitch": 78, "duration": 6, "velocity": 122}, {"time": 1717, "pitch": 76, "duration": 14, "velocity": 112}, {"time": 1738, "pitch": 69, "duration": 5, "velocity": 112}, {"time": 1744, "pitch": 71, "duration": 4, "velocity": 97}, {"time": 1750, "pitch": 73, "duration": 5, "velocity": 122}, {"time": 1756, "pitch": 76, "duration": 2, "velocity": 127}, {"time": 1759, "pitch": 76, "duration": 12, "velocity": 127}, {"time": 1786, "pitch": 73, "duration": 4, "velocity": 127}, {"time": 1792, "pitch": 71, "duration": 4, "velocity": 102}, {"time": 1798, "pitch": 69, "duration": 3, "velocity": 112}, {"time": 1804, "pitch": 71, "duration": 2, "velocity": 122}, {"time": 1807, "pitch": 69, "duration": 15, "velocity": 112}, {"time": 1834, "pitch": 69, "duration": 4, "velocity": 112}, {"time": 1840, "pitch": 71, "duration": 4, "velocity": 102}, {"time": 1846, "pitch": 73, "duration": 4, "velocity": 117}, {"time": 1852, "pitch": 76, "duration": 3, "velocity": 112}, {"time": 1855, "pitch": 69, "duration": 20, "velocity": 107}, {"time": 1882, "pitch": 69, "duration": 5, "velocity": 127}, {"time": 1888, "pitch": 68, "duration": 4, "velocity": 117}, {"time": 1894, "pitch": 66, "duration": 4, "velocity": 122}, {"time": 1900, "pitch": 68, "duration": 2, "velocity": 127}, {"time": 1903, "pitch": 69, "duration": 35, "velocity": 127}, {"time": 2326, "pitch": 69, "duration": 7, "velocity": 99}, {"time": 2332, "pitch": 73, "duration": 5, "velocity": 99}, {"time": 2338, "pitch": 73, "duration": 16, "velocity": 112}, {"time": 2362, "pitch": 73, "duration": 6, "velocity": 127}, {"time": 2368, "pitch": 71, "duration": 6, "velocity": 90}, {"time": 2374, "pitch": 69, "duration": 6, "velocity": 93}, {"time": 2380, "pitch": 71, "duration": 9, "velocity": 99}, {"time": 2392, "pitch": 76, "duration": 15, "velocity": 112}, {"time": 2422, "pitch": 69, "duration": 7, "velocity": 95}, {"time": 2428, "pitch": 73, "duration": 5, "velocity": 95}, {"time": 2434, "pitch": 73, "duration": 16, "velocity": 102}, {"time": 2458, "pitch": 74, "duration": 6, "velocity": 99}, {"time": 2464, "pitch": 73, "duration": 5, "velocity": 100}, {"time": 2470, "pitch": 76, "duration": 7, "velocity": 100}, {"time": 2479, "pitch": 69, "duration": 26, "velocity": 96}, {"time": 2518, "pitch": 69, "duration": 7, "velocity": 86}, {"time": 2524, "pitch": 74, "duration": 3, "velocity": 96}, {"time": 2530, "pitch": 74, "duration": 19, "velocity": 97}, {"time": 2554, "pitch": 74, "duration": 6, "velocity": 112}, {"time": 2560, "pitch": 73, "duration": 7, "velocity": 96}, {"time": 2566, "pitch": 69, "duration": 7, "velocity": 74}, {"time": 2572, "pitch": 76, "duration": 7, "velocity": 122}, {"time": 2584, "pitch": 73, "duration": 6, "velocity": 107}, {"time": 2590, "pitch": 73, "duration": 5, "velocity": 117}, {"time": 2596, "pitch": 81, "duration": 13, "velocity": 112}, {"time": 2626, "pitch": 76, "duration": 6, "velocity": 117}, {"time": 2632, "pitch": 74, "duration": 6, "velocity": 107}, {"time": 2638, "pitch": 74, "duration": 4, "velocity": 112}, {"time": 2644, "pitch": 69, "duration": 4, "velocity": 86}, {"time": 2650, "pitch": 69, "duration": 7, "velocity": 102}, {"time": 2662, "pitch": 68, "duration": 4, "velocity": 99}, {"time": 2668, "pitch": 69, "duration": 25, "velocity": 93}, {"time": 2698, "pitch": 69, "duration": 5, "velocity": 100}, {"time": 2704, "pitch": 71, "duration": 3, "velocity": 112}, {"time": 2710, "pitch": 73, "duration": 3, "velocity": 127}, {"time": 2716, "pitch": 76, "duration": 2, "velocity": 112}, {"time": 2719, "pitch": 76, "duration": 14, "velocity": 122}, {"time": 2746, "pitch": 73, "duration": 5, "velocity": 127}, {"time": 2752, "pitch": 71, "duration": 4, "velocity": 107}, {"time": 2758, "pitch": 69, "duration": 4, "velocity": 102}, {"time": 2764, "pitch": 71, "duration": 2, "velocity": 127}, {"time": 2767, "pitch": 73, "duration": 17, "velocity": 127}, {"time": 2794, "pitch": 69, "duration": 5, "velocity": 112}, {"time": 2800, "pitch": 71, "duration": 4, "velocity": 100}, {"time": 2806, "pitch": 73, "duration": 4, "velocity": 127}, {"time": 2812, "pitch": 81, "duration": 2, "velocity": 122}, {"time": 2815, "pitch": 81, "duration": 5, "velocity": 122}, {"time": 2821, "pitch": 83, "duration": 3, "velocity": 122}, {"time": 2824, "pitch": 81, "duration": 9, "velocity": 117}, {"time": 2836, "pitch": 81, "duration": 4, "velocity": 127}, {"time": 2842, "pitch": 80, "duration": 5, "velocity": 127}, {"time": 2848, "pitch": 78, "duration": 4, "velocity": 127}, {"time": 2854, "pitch": 76, "duration": 5, "velocity": 127}, {"time": 2860, "pitch": 78, "duration": 2, "velocity": 127}, {"time": 2863, "pitch": 78, "duration": 6, "velocity": 122}, {"time": 2869, "pitch": 76, "duration": 14, "velocity": 112}, {"time": 2890, "pitch": 69, "duration": 5, "velocity": 112}, {"time": 2896, "pitch": 71, "duration": 4, "velocity": 97}, {"time": 2902, "pitch": 73, "duration": 5, "velocity": 122}, {"time": 2908, "pitch": 76, "duration": 2, "velocity": 127}, {"time": 2911, "pitch": 76, "duration": 12, "velocity": 127}, {"time": 2938, "pitch": 73, "duration": 4, "velocity": 127}, {"time": 2944, "pitch": 71, "duration": 4, "velocity": 102}, {"time": 2950, "pitch": 69, "duration": 3, "velocity": 112}, {"time": 2956, "pitch": 71, "duration": 2, "velocity": 122}, {"time": 2959, "pitch": 69, "duration": 15, "velocity": 112}, {"time": 2986, "pitch": 69, "duration": 4, "velocity": 107}, {"time": 2992, "pitch": 71, "duration": 4, "velocity": 112}, {"time": 2998, "pitch": 73, "duration": 5, "velocity": 122}, {"time": 3004, "pitch": 76, "duration": 4, "velocity": 127}, {"time": 3010, "pitch": 76, "duration": 6, "velocity": 127}, {"time": 3016, "pitch": 74, "duration": 4, "velocity": 122}, {"time": 3022, "pitch": 74, "duration": 4, "velocity": 112}, {"time": 3028, "pitch": 73, "duration": 5, "velocity": 127}, {"time": 3034, "pitch": 81, "duration": 9, "velocity": 127}, {"time": 3046, "pitch": 73, "duration": 4, "velocity": 127}, {"time": 3052, "pitch": 73, "duration": 6, "velocity": 127}, {"time": 3058, "pitch": 71, "duration": 16, "velocity": 117}, {"time": 3082, "pitch": 69, "duration": 5, "velocity": 112}, {"time": 3088, "pitch": 71, "duration": 4, "velocity": 97}, {"time": 3094, "pitch": 73, "duration": 5, "velocity": 122}, {"time": 3100, "pitch": 76, "duration": 2, "velocity": 127}, {"time": 3103, "pitch": 76, "duration": 12, "velocity": 127}, {"time": 3130, "pitch": 73, "duration": 4, "velocity": 127}, {"time": 3136, "pitch": 71, "duration": 4, "velocity": 102}, {"time": 3142, "pitch": 69, "duration": 3, "velocity": 112}, {"time": 3148, "pitch": 71, "duration": 2, "velocity": 122}, {"time": 3151, "pitch": 73, "duration": 15, "velocity": 112}, {"time": 3178, "pitch": 69, "duration": 4, "velocity": 107}, {"time": 3184, "pitch": 71, "duration": 4, "velocity": 112}, {"time": 3190, "pitch": 73, "duration": 4, "velocity": 127}, {"time": 3196, "pitch": 81, "duration": 2, "velocity": 122}, {"time": 3199, "pitch": 81, "duration": 5, "velocity": 122}, {"time": 3205, "pitch": 83, "duration": 3, "velocity": 122}, {"time": 3208, "pitch": 81, "duration": 9, "velocity": 117}, {"time": 3220, "pitch": 81, "duration": 4, "velocity": 127}, {"time": 3226, "pitch": 80, "duration": 5, "velocity": 127}, {"time": 3232, "pitch": 78, "duration": 4, "velocity": 127}, {"time": 3238, "pitch": 76, "duration": 5, "velocity": 127}, {"time": 3244, "pitch": 78, "duration": 2, "velocity": 127}, {"time": 3247, "pitch": 78, "duration": 6, "velocity": 122}, {"time": 3253, "pitch": 76, "duration": 14, "velocity": 112}, {"time": 3274, "pitch": 69, "duration": 5, "velocity": 112}, {"time": 3280, "pitch": 71, "duration": 4, "velocity": 97}, {"time": 3286, "pitch": 73, "duration": 5, "velocity": 122}, {"time": 3292, "pitch": 76, "duration": 2, "velocity": 127}, {"time": 3295, "pitch": 76, "duration": 12, "velocity": 127}, {"time": 3322, "pitch": 73, "duration": 4, "velocity": 127}, {"time": 3328, "pitch": 71, "duration": 4, "velocity": 102}, {"time": 3334, "pitch": 69, "duration": 3, "velocity": 112}, {"time": 3340, "pitch": 71, "duration": 2, "velocity": 122}, {"time": 3343, "pitch": 69, "duration": 15, "velocity": 112}, {"time": 3370, "pitch": 69, "duration": 4, "velocity": 112}, {"time": 3376, "pitch": 71, "duration": 4, "velocity": 102}, {"time": 3382, "pitch": 73, "duration": 4, "velocity": 117}, {"time": 3388, "pitch": 76, "duration": 3, "velocity": 112}, {"time": 3391, "pitch": 69, "duration": 20, "velocity": 107}, {"time": 3418, "pitch": 69, "duration": 5, "velocity": 127}, {"time": 3424, "pitch": 68, "duration": 4, "velocity": 117}, {"time": 3430, "pitch": 66, "duration": 4, "velocity": 122}, {"time": 3454, "pitch": 68, "duration": 11, "velocity": 127}, {"time": 3466, "pitch": 69, "duration": 4, "velocity": 117}, {"time": 3469, "pitch": 68, "duration": 3, "velocity": 122}, {"time": 3472, "pitch": 69, "duration": 42, "velocity": 100}, {"time": 3520, "pitch": 81, "duration": 45, "velocity": 127}, {"time": 3568, "pitch": 85, "duration": 11, "velocity": 127}, {"time": 3580, "pitch": 83, "duration": 9, "velocity": 127}, {"time": 3592, "pitch": 81, "duration": 3, "velocity": 107}, {"time": 3595, "pitch": 83, "duration": 3, "velocity": 97}, {"time": 3598, "pitch": 78, "duration": 6, "velocity": 127}, {"time": 3604, "pitch": 76, "duration": 7, "velocity": 95}, {"time": 3610, "pitch": 78, "duration": 10, "velocity": 127}]}, {"program": 0, "is_drum": false, "name": "PIANO", "notes": [{"time": 34, "pitch": 38, "duration": 23, "velocity": 95}, {"time": 40, "pitch": 45, "duration": 19, "velocity": 64}, {"time": 46, "pitch": 50, "duration": 13, "velocity": 83}, {"time": 52, "pitch": 66, "duration": 9, "velocity": 89}, {"time": 58, "pitch": 40, "duration": 21, "velocity": 71}, {"time": 64, "pitch": 47, "duration": 16, "velocity": 65}, {"time": 70, "pitch": 52, "duration": 9, "velocity": 75}, {"time": 70, "pitch": 64, "duration": 13, "velocity": 72}, {"time": 70, "pitch": 68, "duration": 13, "velocity": 81}, {"time": 76, "pitch": 59, "duration": 7, "velocity": 69}, {"time": 82, "pitch": 45, "duration": 22, "velocity": 75}, {"time": 88, "pitch": 52, "duration": 9, "velocity": 68}, {"time": 94, "pitch": 61, "duration": 20, "velocity": 97}, {"time": 94, "pitch": 64, "duration": 19, "velocity": 83}, {"time": 100, "pitch": 57, "duration": 13, "velocity": 68}, {"time": 106, "pitch": 45, "duration": 15, "velocity": 72}, {"time": 112, "pitch": 52, "duration": 8, "velocity": 79}, {"time": 118, "pitch": 64, "duration": 13, "velocity": 97}, {"time": 121, "pitch": 61, "duration": 10, "velocity": 78}, {"time": 124, "pitch": 57, "duration": 12, "velocity": 88}, {"time": 130, "pitch": 38, "duration": 15, "velocity": 78}, {"time": 136, "pitch": 45, "duration": 9, "velocity": 57}, {"time": 142, "pitch": 66, "duration": 13, "velocity": 122}, {"time": 148, "pitch": 62, "duration": 7, "velocity": 66}, {"time": 151, "pitch": 57, "duration": 4, "velocity": 63}, {"time": 154, "pitch": 40, "duration": 17, "velocity": 90}, {"time": 160, "pitch": 47, "duration": 11, "velocity": 53}, {"time": 166, "pitch": 52, "duration": 8, "velocity": 56}, {"time": 166, "pitch": 68, "duration": 13, "velocity": 102}, {"time": 172, "pitch": 64, "duration": 7, "velocity": 66}, {"time": 178, "pitch": 45, "duration": 22, "velocity": 78}, {"time": 184, "pitch": 52, "duration": 8, "velocity": 58}, {"time": 190, "pitch": 64, "duration": 36, "velocity": 93}, {"time": 193, "pitch": 52, "duration": 9, "velocity": 54}, {"time": 196, "pitch": 57, "duration": 10, "velocity": 69}, {"time": 199, "pitch": 67, "duration": 12, "velocity": 77}, {"time": 202, "pitch": 45, "duration": 22, "velocity": 88}, {"time": 205, "pitch": 52, "duration": 10, "velocity": 74}, {"time": 208, "pitch": 57, "duration": 10, "velocity": 66}, {"time": 211, "pitch": 61, "duration": 11, "velocity": 83}, {"time": 214, "pitch": 67, "duration": 12, "velocity": 95}, {"time": 217, "pitch": 52, "duration": 7, "velocity": 71}, {"time": 220, "pitch": 57, "duration": 7, "velocity": 73}, {"time": 223, "pitch": 61, "duration": 3, "velocity": 90}, {"time": 226, "pitch": 50, "duration": 16, "velocity": 78}, {"time": 232, "pitch": 57, "duration": 17, "velocity": 81}, {"time": 238, "pitch": 66, "duration": 12, "velocity": 107}, {"time": 244, "pitch": 62, "duration": 5, "velocity": 72}, {"time": 250, "pitch": 49, "duration": 13, "velocity": 76}, {"time": 256, "pitch": 61, "duration": 8, "velocity": 85}, {"time": 262, "pitch": 65, "duration": 12, "velocity": 69}, {"time": 262, "pitch": 68, "duration": 13, "velocity": 76}, {"time": 268, "pitch": 61, "duration": 7, "velocity": 66}, {"time": 274, "pitch": 42, "duration": 16, "velocity": 81}, {"time": 280, "pitch": 49, "duration": 9, "velocity": 42}, {"time": 286, "pitch": 54, "duration": 6, "velocity": 71}, {"time": 286, "pitch": 61, "duration": 11, "velocity": 89}, {"time": 286, "pitch": 66, "duration": 10, "velocity": 82}, {"time": 292, "pitch": 57, "duration": 3, "velocity": 62}, {"time": 298, "pitch": 51, "duration": 15, "velocity": 66}, {"time": 298, "pitch": 59, "duration": 20, "velocity": 69}, {"time": 298, "pitch": 63, "duration": 20, "velocity": 88}, {"time": 298, "pitch": 66, "duration": 20, "velocity": 95}, {"time": 322, "pitch": 38, "duration": 16, "velocity": 60}, {"time": 322, "pitch": 57, "duration": 20, "velocity": 71}, {"time": 322, "pitch": 62, "duration": 11, "velocity": 77}, {"time": 322, "pitch": 66, "duration": 11, "velocity": 71}, {"time": 334, "pitch": 62, "duration": 11, "velocity": 71}, {"time": 334, "pitch": 66, "duration": 8, "velocity": 69}, {"time": 346, "pitch": 40, "duration": 16, "velocity": 63}, {"time": 346, "pitch": 59, "duration": 12, "velocity": 72}, {"time": 346, "pitch": 64, "duration": 11, "velocity": 63}, {"time": 346, "pitch": 68, "duration": 24, "velocity": 56}, {"time": 352, "pitch": 47, "duration": 10, "velocity": 38}, {"time": 358, "pitch": 52, "duration": 11, "velocity": 62}, {"time": 358, "pitch": 64, "duration": 12, "velocity": 90}, {"time": 364, "pitch": 59, "duration": 8, "velocity": 66}, {"time": 370, "pitch": 45, "duration": 24, "velocity": 73}, {"time": 376, "pitch": 52, "duration": 8, "velocity": 50}, {"time": 382, "pitch": 57, "duration": 37, "velocity": 70}, {"time": 382, "pitch": 62, "duration": 11, "velocity": 82}, {"time": 382, "pitch": 64, "duration": 11, "velocity": 77}, {"time": 388, "pitch": 52, "duration": 7, "velocity": 68}, {"time": 394, "pitch": 45, "duration": 22, "velocity": 86}, {"time": 394, "pitch": 61, "duration": 25, "velocity": 61}, {"time": 394, "pitch": 64, "duration": 26, "velocity": 58}, {"time": 418, "pitch": 45, "duration": 39, "velocity": 67}, {"time": 424, "pitch": 52, "duration": 8, "velocity": 48}, {"time": 430, "pitch": 64, "duration": 21, "velocity": 75}, {"time": 436, "pitch": 52, "duration": 8, "velocity": 41}, {"time": 442, "pitch": 61, "duration": 12, "velocity": 63}, {"time": 448, "pitch": 52, "duration": 7, "velocity": 45}, {"time": 454, "pitch": 64, "duration": 16, "velocity": 88}, {"time": 460, "pitch": 61, "duration": 10, "velocity": 57}, {"time": 466, "pitch": 44, "duration": 23, "velocity": 76}, {"time": 472, "pitch": 56, "duration": 20, "velocity": 50}, {"time": 478, "pitch": 64, "duration": 21, "velocity": 83}, {"time": 484, "pitch": 61, "duration": 14, "velocity": 60}, {"time": 490, "pitch": 44, "duration": 21, "velocity": 53}, {"time": 496, "pitch": 56, "duration": 9, "velocity": 47}, {"time": 502, "pitch": 61, "duration": 13, "velocity": 93}, {"time": 502, "pitch": 64, "duration": 13, "velocity": 85}, {"time": 508, "pitch": 57, "duration": 5, "velocity": 48}, {"time": 514, "pitch": 43, "duration": 41, "velocity": 70}, {"time": 520, "pitch": 55, "duration": 9, "velocity": 63}, {"time": 526, "pitch": 64, "duration": 21, "velocity": 86}, {"time": 532, "pitch": 55, "duration": 9, "velocity": 66}, {"time": 538, "pitch": 61, "duration": 10, "velocity": 51}, {"time": 544, "pitch": 55, "duration": 19, "velocity": 52}, {"time": 550, "pitch": 64, "duration": 13, "velocity": 77}, {"time": 556, "pitch": 61, "duration": 7, "velocity": 56}, {"time": 562, "pitch": 38, "duration": 40, "velocity": 78}, {"time": 568, "pitch": 45, "duration": 36, "velocity": 50}, {"time": 574, "pitch": 50, "duration": 16, "velocity": 72}, {"time": 580, "pitch": 57, "duration": 19, "velocity": 63}, {"time": 586, "pitch": 66, "duration": 24, "velocity": 85}, {"time": 592, "pitch": 50, "duration": 9, "velocity": 48}, {"time": 598, "pitch": 62, "duration": 21, "velocity": 64}, {"time": 604, "pitch": 57, "duration": 11, "velocity": 57}, {"time": 610, "pitch": 41, "duration": 24, "velocity": 72}, {"time": 616, "pitch": 57, "duration": 23, "velocity": 55}, {"time": 622, "pitch": 65, "duration": 17, "velocity": 75}, {"time": 628, "pitch": 62, "duration": 12, "velocity": 52}, {"time": 634, "pitch": 41, "duration": 11, "velocity": 47}, {"time": 640, "pitch": 57, "duration": 18, "velocity": 56}, {"time": 646, "pitch": 65, "duration": 12, "velocity": 76}, {"time": 652, "pitch": 62, "duration": 6, "velocity": 52}, {"time": 658, "pitch": 37, "duration": 16, "velocity": 77}, {"time": 664, "pitch": 49, "duration": 13, "velocity": 37}, {"time": 670, "pitch": 56, "duration": 12, "velocity": 78}, {"time": 676, "pitch": 52, "duration": 7, "velocity": 67}, {"time": 682, "pitch": 42, "duration": 19, "velocity": 61}, {"time": 688, "pitch": 54, "duration": 10, "velocity": 50}, {"time": 694, "pitch": 57, "duration": 11, "velocity": 63}, {"time": 694, "pitch": 61, "duration": 12, "velocity": 81}, {"time": 706, "pitch": 47, "duration": 22, "velocity": 70}, {"time": 712, "pitch": 54, "duration": 19, "velocity": 42}, {"time": 718, "pitch": 62, "duration": 22, "velocity": 75}, {"time": 718, "pitch": 66, "duration": 22, "velocity": 72}, {"time": 724, "pitch": 59, "duration": 16, "velocity": 48}, {"time": 730, "pitch": 47, "duration": 17, "velocity": 62}, {"time": 736, "pitch": 54, "duration": 8, "velocity": 41}, {"time": 742, "pitch": 62, "duration": 14, "velocity": 67}, {"time": 742, "pitch": 66, "duration": 14, "velocity": 64}, {"time": 748, "pitch": 59, "duration": 8, "velocity": 59}, {"time": 754, "pitch": 40, "duration": 38, "velocity": 73}, {"time": 760, "pitch": 47, "duration": 33, "velocity": 58}, {"time": 766, "pitch": 52, "duration": 26, "velocity": 86}, {"time": 772, "pitch": 56, "duration": 7, "velocity": 75}, {"time": 778, "pitch": 59, "duration": 2, "velocity": 92}, {"time": 784, "pitch": 64, "duration": 19, "velocity": 66}, {"time": 790, "pitch": 71, "duration": 13, "velocity": 93}, {"time": 796, "pitch": 68, "duration": 7, "velocity": 52}, {"time": 802, "pitch": 45, "duration": 38, "velocity": 78}, {"time": 808, "pitch": 52, "duration": 9, "velocity": 69}, {"time": 814, "pitch": 57, "duration": 41, "velocity": 93}, {"time": 820, "pitch": 52, "duration": 9, "velocity": 53}, {"time": 826, "pitch": 61, "duration": 10, "velocity": 61}, {"time": 832, "pitch": 52, "duration": 7, "velocity": 66}, {"time": 838, "pitch": 64, "duration": 18, "velocity": 90}, {"time": 844, "pitch": 61, "duration": 10, "velocity": 61}, {"time": 850, "pitch": 44, "duration": 43, "velocity": 79}, {"time": 856, "pitch": 56, "duration": 8, "velocity": 62}, {"time": 862, "pitch": 64, "duration": 23, "velocity": 89}, {"time": 868, "pitch": 56, "duration": 9, "velocity": 71}, {"time": 874, "pitch": 61, "duration": 11, "velocity": 93}, {"time": 880, "pitch": 56, "duration": 8, "velocity": 76}, {"time": 886, "pitch": 64, "duration": 14, "velocity": 90}, {"time": 889, "pitch": 56, "duration": 3, "velocity": 66}, {"time": 892, "pitch": 61, "duration": 7, "velocity": 77}, {"time": 898, "pitch": 43, "duration": 37, "velocity": 70}, {"time": 904, "pitch": 55, "duration": 22, "velocity": 63}, {"time": 910, "pitch": 64, "duration": 22, "velocity": 89}, {"time": 916, "pitch": 57, "duration": 30, "velocity": 70}, {"time": 922, "pitch": 61, "duration": 10, "velocity": 95}, {"time": 928, "pitch": 55, "duration": 7, "velocity": 42}, {"time": 934, "pitch": 64, "duration": 11, "velocity": 90}, {"time": 940, "pitch": 61, "duration": 6, "velocity": 52}, {"time": 946, "pitch": 42, "duration": 45, "velocity": 89}, {"time": 952, "pitch": 54, "duration": 9, "velocity": 59}, {"time": 958, "pitch": 57, "duration": 15, "velocity": 75}, {"time": 964, "pitch": 54, "duration": 9, "velocity": 59}, {"time": 970, "pitch": 62, "duration": 14, "velocity": 71}, {"time": 970, "pitch": 66, "duration": 24, "velocity": 83}, {"time": 976, "pitch": 54, "duration": 11, "velocity": 49}, {"time": 982, "pitch": 57, "duration": 11, "velocity": 77}, {"time": 988, "pitch": 62, "duration": 6, "velocity": 69}, {"time": 994, "pitch": 41, "duration": 38, "velocity": 72}, {"time": 1000, "pitch": 50, "duration": 9, "velocity": 57}, {"time": 1006, "pitch": 57, "duration": 2, "velocity": 36}, {"time": 1006, "pitch": 62, "duration": 21, "velocity": 70}, {"time": 1006, "pitch": 65, "duration": 21, "velocity": 68}, {"time": 1012, "pitch": 50, "duration": 8, "velocity": 43}, {"time": 1018, "pitch": 57, "duration": 25, "velocity": 72}, {"time": 1024, "pitch": 50, "duration": 7, "velocity": 49}, {"time": 1030, "pitch": 65, "duration": 12, "velocity": 73}, {"time": 1036, "pitch": 62, "duration": 6, "velocity": 58}, {"time": 1042, "pitch": 37, "duration": 17, "velocity": 90}, {"time": 1048, "pitch": 49, "duration": 17, "velocity": 72}, {"time": 1054, "pitch": 52, "duration": 12, "velocity": 82}, {"time": 1060, "pitch": 61, "duration": 7, "velocity": 77}, {"time": 1066, "pitch": 42, "duration": 15, "velocity": 90}, {"time": 1072, "pitch": 54, "duration": 10, "velocity": 65}, {"time": 1078, "pitch": 61, "duration": 13, "velocity": 100}, {"time": 1084, "pitch": 57, "duration": 7, "velocity": 73}, {"time": 1090, "pitch": 47, "duration": 15, "velocity": 71}, {"time": 1096, "pitch": 54, "duration": 7, "velocity": 56}, {"time": 1102, "pitch": 66, "duration": 10, "velocity": 97}, {"time": 1108, "pitch": 59, "duration": 31, "velocity": 73}, {"time": 1114, "pitch": 40, "duration": 16, "velocity": 78}, {"time": 1120, "pitch": 47, "duration": 10, "velocity": 44}, {"time": 1126, "pitch": 52, "duration": 7, "velocity": 66}, {"time": 1126, "pitch": 68, "duration": 13, "velocity": 102}, {"time": 1132, "pitch": 64, "duration": 6, "velocity": 73}, {"time": 1138, "pitch": 45, "duration": 23, "velocity": 85}, {"time": 1144, "pitch": 52, "duration": 7, "velocity": 79}, {"time": 1150, "pitch": 64, "duration": 11, "velocity": 97}, {"time": 1153, "pitch": 52, "duration": 9, "velocity": 88}, {"time": 1156, "pitch": 57, "duration": 5, "velocity": 90}, {"time": 1162, "pitch": 45, "duration": 18, "velocity": 88}, {"time": 1162, "pitch": 57, "duration": 15, "velocity": 97}, {"time": 1162, "pitch": 61, "duration": 11, "velocity": 122}, {"time": 1162, "pitch": 64, "duration": 10, "velocity": 99}, {"time": 1162, "pitch": 67, "duration": 10, "velocity": 92}, {"time": 1168, "pitch": 52, "duration": 8, "velocity": 90}, {"time": 1174, "pitch": 61, "duration": 8, "velocity": 55}, {"time": 1174, "pitch": 64, "duration": 13, "velocity": 70}, {"time": 1174, "pitch": 67, "duration": 13, "velocity": 95}, {"time": 1177, "pitch": 52, "duration": 3, "velocity": 93}, {"time": 1180, "pitch": 57, "duration": 7, "velocity": 89}, {"time": 1183, "pitch": 61, "duration": 3, "velocity": 93}, {"time": 1186, "pitch": 38, "duration": 22, "velocity": 97}, {"time": 1192, "pitch": 45, "duration": 10, "velocity": 88}, {"time": 1198, "pitch": 50, "duration": 8, "velocity": 89}, {"time": 1198, "pitch": 57, "duration": 6, "velocity": 92}, {"time": 1198, "pitch": 66, "duration": 12, "velocity": 117}, {"time": 1204, "pitch": 45, "duration": 4, "velocity": 93}, {"time": 1204, "pitch": 57, "duration": 6, "velocity": 88}, {"time": 1210, "pitch": 40, "duration": 18, "velocity": 70}, {"time": 1216, "pitch": 47, "duration": 14, "velocity": 93}, {"time": 1222, "pitch": 52, "duration": 7, "velocity": 86}, {"time": 1222, "pitch": 59, "duration": 8, "velocity": 93}, {"time": 1222, "pitch": 68, "duration": 12, "velocity": 117}, {"time": 1228, "pitch": 52, "duration": 1, "velocity": 90}, {"time": 1231, "pitch": 40, "duration": 3, "velocity": 97}, {"time": 1234, "pitch": 45, "duration": 22, "velocity": 78}, {"time": 1237, "pitch": 52, "duration": 10, "velocity": 83}, {"time": 1240, "pitch": 57, "duration": 5, "velocity": 86}, {"time": 1243, "pitch": 61, "duration": 3, "velocity": 117}, {"time": 1246, "pitch": 64, "duration": 13, "velocity": 95}, {"time": 1255, "pitch": 57, "duration": 4, "velocity": 88}, {"time": 1258, "pitch": 45, "duration": 18, "velocity": 89}, {"time": 1261, "pitch": 52, "duration": 11, "velocity": 77}, {"time": 1264, "pitch": 57, "duration": 3, "velocity": 90}, {"time": 1267, "pitch": 61, "duration": 11, "velocity": 107}, {"time": 1270, "pitch": 64, "duration": 12, "velocity": 96}, {"time": 1279, "pitch": 61, "duration": 4, "velocity": 127}, {"time": 1282, "pitch": 38, "duration": 22, "velocity": 93}, {"time": 1285, "pitch": 45, "duration": 21, "velocity": 93}, {"time": 1288, "pitch": 50, "duration": 7, "velocity": 85}, {"time": 1291, "pitch": 57, "duration": 7, "velocity": 96}, {"time": 1294, "pitch": 66, "duration": 12, "velocity": 117}, {"time": 1303, "pitch": 57, "duration": 4, "velocity": 99}, {"time": 1306, "pitch": 40, "duration": 17, "velocity": 83}, {"time": 1309, "pitch": 47, "duration": 14, "velocity": 81}, {"time": 1312, "pitch": 52, "duration": 7, "velocity": 86}, {"time": 1315, "pitch": 59, "duration": 6, "velocity": 100}, {"time": 1327, "pitch": 59, "duration": 4, "velocity": 100}, {"time": 1330, "pitch": 45, "duration": 14, "velocity": 72}, {"time": 1333, "pitch": 52, "duration": 11, "velocity": 79}, {"time": 1336, "pitch": 57, "duration": 4, "velocity": 86}, {"time": 1339, "pitch": 61, "duration": 3, "velocity": 127}, {"time": 1342, "pitch": 64, "duration": 14, "velocity": 99}, {"time": 1345, "pitch": 45, "duration": 7, "velocity": 54}, {"time": 1351, "pitch": 57, "duration": 3, "velocity": 96}, {"time": 1354, "pitch": 45, "duration": 19, "velocity": 93}, {"time": 1357, "pitch": 52, "duration": 12, "velocity": 93}, {"time": 1360, "pitch": 55, "duration": 8, "velocity": 96}, {"time": 1363, "pitch": 57, "duration": 8, "velocity": 99}, {"time": 1366, "pitch": 64, "duration": 12, "velocity": 102}, {"time": 1375, "pitch": 57, "duration": 6, "velocity": 93}, {"time": 1378, "pitch": 38, "duration": 10, "velocity": 83}, {"time": 1381, "pitch": 45, "duration": 8, "velocity": 90}, {"time": 1384, "pitch": 50, "duration": 4, "velocity": 89}, {"time": 1387, "pitch": 57, "duration": 6, "velocity": 95}, {"time": 1390, "pitch": 66, "duration": 12, "velocity": 127}, {"time": 1399, "pitch": 62, "duration": 2, "velocity": 88}, {"time": 1402, "pitch": 37, "duration": 16, "velocity": 92}, {"time": 1405, "pitch": 44, "duration": 13, "velocity": 36}, {"time": 1408, "pitch": 49, "duration": 7, "velocity": 88}, {"time": 1411, "pitch": 53, "duration": 5, "velocity": 88}, {"time": 1414, "pitch": 61, "duration": 12, "velocity": 107}, {"time": 1423, "pitch": 53, "duration": 3, "velocity": 83}, {"time": 1426, "pitch": 42, "duration": 18, "velocity": 78}, {"time": 1429, "pitch": 49, "duration": 14, "velocity": 35}, {"time": 1432, "pitch": 54, "duration": 7, "velocity": 90}, {"time": 1435, "pitch": 57, "duration": 7, "velocity": 86}, {"time": 1438, "pitch": 66, "duration": 12, "velocity": 117}, {"time": 1447, "pitch": 57, "duration": 3, "velocity": 89}, {"time": 1450, "pitch": 51, "duration": 17, "velocity": 107}, {"time": 1453, "pitch": 59, "duration": 5, "velocity": 60}, {"time": 1456, "pitch": 63, "duration": 5, "velocity": 95}, {"time": 1459, "pitch": 59, "duration": 5, "velocity": 78}, {"time": 1462, "pitch": 66, "duration": 12, "velocity": 122}, {"time": 1471, "pitch": 63, "duration": 3, "velocity": 82}, {"time": 1474, "pitch": 38, "duration": 16, "velocity": 77}, {"time": 1477, "pitch": 45, "duration": 13, "velocity": 81}, {"time": 1480, "pitch": 50, "duration": 7, "velocity": 82}, {"time": 1483, "pitch": 57, "duration": 9, "velocity": 89}, {"time": 1486, "pitch": 66, "duration": 13, "velocity": 127}, {"time": 1495, "pitch": 57, "duration": 4, "velocity": 97}, {"time": 1498, "pitch": 47, "duration": 18, "velocity": 90}, {"time": 1501, "pitch": 54, "duration": 11, "velocity": 86}, {"time": 1504, "pitch": 59, "duration": 8, "velocity": 81}, {"time": 1507, "pitch": 62, "duration": 10, "velocity": 97}, {"time": 1510, "pitch": 66, "duration": 11, "velocity": 127}, {"time": 1519, "pitch": 62, "duration": 3, "velocity": 107}, {"time": 1522, "pitch": 40, "duration": 23, "velocity": 100}, {"time": 1525, "pitch": 47, "duration": 22, "velocity": 102}, {"time": 1528, "pitch": 52, "duration": 7, "velocity": 97}, {"time": 1531, "pitch": 59, "duration": 5, "velocity": 95}, {"time": 1537, "pitch": 52, "duration": 3, "velocity": 100}, {"time": 1540, "pitch": 59, "duration": 13, "velocity": 89}, {"time": 1546, "pitch": 40, "duration": 19, "velocity": 89}, {"time": 1549, "pitch": 47, "duration": 15, "velocity": 88}, {"time": 1552, "pitch": 52, "duration": 8, "velocity": 90}, {"time": 1555, "pitch": 59, "duration": 8, "velocity": 89}, {"time": 1567, "pitch": 59, "duration": 4, "velocity": 97}, {"time": 1570, "pitch": 38, "duration": 22, "velocity": 81}, {"time": 1573, "pitch": 45, "duration": 21, "velocity": 82}, {"time": 1576, "pitch": 50, "duration": 7, "velocity": 79}, {"time": 1579, "pitch": 57, "duration": 7, "velocity": 95}, {"time": 1582, "pitch": 66, "duration": 13, "velocity": 97}, {"time": 1591, "pitch": 57, "duration": 4, "velocity": 93}, {"time": 1594, "pitch": 40, "duration": 18, "velocity": 86}, {"time": 1597, "pitch": 47, "duration": 15, "velocity": 81}, {"time": 1600, "pitch": 52, "duration": 7, "velocity": 85}, {"time": 1603, "pitch": 59, "duration": 5, "velocity": 92}, {"time": 1615, "pitch": 59, "duration": 4, "velocity": 95}, {"time": 1618, "pitch": 45, "duration": 22, "velocity": 76}, {"time": 1621, "pitch": 52, "duration": 11, "velocity": 35}, {"time": 1624, "pitch": 57, "duration": 7, "velocity": 66}, {"time": 1627, "pitch": 61, "duration": 4, "velocity": 83}, {"time": 1630, "pitch": 64, "duration": 20, "velocity": 96}, {"time": 1639, "pitch": 57, "duration": 6, "velocity": 95}, {"time": 1642, "pitch": 45, "duration": 19, "velocity": 86}, {"time": 1645, "pitch": 52, "duration": 11, "velocity": 83}, {"time": 1648, "pitch": 57, "duration": 8, "velocity": 86}, {"time": 1651, "pitch": 61, "duration": 3, "velocity": 102}, {"time": 1654, "pitch": 64, "duration": 11, "velocity": 102}, {"time": 1663, "pitch": 57, "duration": 4, "velocity": 95}, {"time": 1666, "pitch": 38, "duration": 23, "velocity": 73}, {"time": 1669, "pitch": 45, "duration": 21, "velocity": 92}, {"time": 1672, "pitch": 50, "duration": 7, "velocity": 83}, {"time": 1675, "pitch": 57, "duration": 5, "velocity": 95}, {"time": 1678, "pitch": 66, "duration": 12, "velocity": 117}, {"time": 1687, "pitch": 57, "duration": 4, "velocity": 99}, {"time": 1690, "pitch": 40, "duration": 18, "velocity": 92}, {"time": 1693, "pitch": 47, "duration": 15, "velocity": 90}, {"time": 1696, "pitch": 52, "duration": 8, "velocity": 86}, {"time": 1699, "pitch": 59, "duration": 6, "velocity": 90}, {"time": 1711, "pitch": 59, "duration": 4, "velocity": 96}, {"time": 1714, "pitch": 45, "duration": 22, "velocity": 79}, {"time": 1717, "pitch": 52, "duration": 10, "velocity": 83}, {"time": 1720, "pitch": 57, "duration": 6, "velocity": 92}, {"time": 1723, "pitch": 61, "duration": 3, "velocity": 127}, {"time": 1726, "pitch": 64, "duration": 19, "velocity": 99}, {"time": 1735, "pitch": 57, "duration": 3, "velocity": 97}, {"time": 1738, "pitch": 45, "duration": 19, "velocity": 82}, {"time": 1741, "pitch": 52, "duration": 15, "velocity": 99}, {"time": 1744, "pitch": 55, "duration": 8, "velocity": 92}, {"time": 1747, "pitch": 57, "duration": 7, "velocity": 96}, {"time": 1750, "pitch": 64, "duration": 12, "velocity": 93}, {"time": 1759, "pitch": 57, "duration": 6, "velocity": 92}, {"time": 1762, "pitch": 38, "duration": 17, "velocity": 75}, {"time": 1765, "pitch": 45, "duration": 14, "velocity": 78}, {"time": 1768, "pitch": 50, "duration": 7, "velocity": 86}, {"time": 1771, "pitch": 57, "duration": 8, "velocity": 93}, {"time": 1774, "pitch": 66, "duration": 12, "velocity": 117}, {"time": 1783, "pitch": 57, "duration": 4, "velocity": 92}, {"time": 1786, "pitch": 37, "duration": 17, "velocity": 68}, {"time": 1789, "pitch": 44, "duration": 14, "velocity": 35}, {"time": 1792, "pitch": 49, "duration": 7, "velocity": 85}, {"time": 1795, "pitch": 53, "duration": 5, "velocity": 79}, {"time": 1798, "pitch": 56, "duration": 7, "velocity": 112}, {"time": 1807, "pitch": 56, "duration": 3, "velocity": 100}, {"time": 1810, "pitch": 42, "duration": 18, "velocity": 93}, {"time": 1813, "pitch": 54, "duration": 10, "velocity": 90}, {"time": 1816, "pitch": 57, "duration": 9, "velocity": 74}, {"time": 1819, "pitch": 61, "duration": 3, "velocity": 100}, {"time": 1822, "pitch": 66, "duration": 12, "velocity": 100}, {"time": 1831, "pitch": 61, "duration": 3, "velocity": 92}, {"time": 1834, "pitch": 39, "duration": 19, "velocity": 99}, {"time": 1840, "pitch": 51, "duration": 10, "velocity": 66}, {"time": 1846, "pitch": 66, "duration": 16, "velocity": 100}, {"time": 1858, "pitch": 47, "duration": 17, "velocity": 85}, {"time": 1864, "pitch": 59, "duration": 7, "velocity": 73}, {"time": 1870, "pitch": 62, "duration": 13, "velocity": 66}, {"time": 1870, "pitch": 66, "duration": 12, "velocity": 92}, {"time": 1876, "pitch": 59, "duration": 7, "velocity": 76}, {"time": 1882, "pitch": 40, "duration": 16, "velocity": 85}, {"time": 1888, "pitch": 47, "duration": 10, "velocity": 47}, {"time": 1894, "pitch": 52, "duration": 7, "velocity": 79}, {"time": 1894, "pitch": 64, "duration": 12, "velocity": 88}, {"time": 1894, "pitch": 68, "duration": 12, "velocity": 95}, {"time": 1900, "pitch": 59, "duration": 7, "velocity": 79}, {"time": 1906, "pitch": 45, "duration": 23, "velocity": 70}, {"time": 1909, "pitch": 52, "duration": 11, "velocity": 69}, {"time": 1912, "pitch": 57, "duration": 8, "velocity": 74}, {"time": 1915, "pitch": 59, "duration": 4, "velocity": 73}, {"time": 1918, "pitch": 64, "duration": 23, "velocity": 96}, {"time": 1921, "pitch": 52, "duration": 9, "velocity": 73}, {"time": 1924, "pitch": 61, "duration": 17, "velocity": 99}, {"time": 1927, "pitch": 59, "duration": 14, "velocity": 58}, {"time": 1930, "pitch": 45, "duration": 21, "velocity": 89}, {"time": 1930, "pitch": 57, "duration": 12, "velocity": 93}, {"time": 1936, "pitch": 52, "duration": 8, "velocity": 73}, {"time": 1942, "pitch": 59, "duration": 13, "velocity": 79}, {"time": 1942, "pitch": 61, "duration": 13, "velocity": 102}, {"time": 1942, "pitch": 64, "duration": 13, "velocity": 93}, {"time": 1948, "pitch": 57, "duration": 7, "velocity": 60}, {"time": 1954, "pitch": 38, "duration": 20, "velocity": 66}, {"time": 1960, "pitch": 45, "duration": 17, "velocity": 51}, {"time": 1966, "pitch": 50, "duration": 7, "velocity": 39}, {"time": 1972, "pitch": 57, "duration": 8, "velocity": 54}, {"time": 1978, "pitch": 40, "duration": 14, "velocity": 61}, {"time": 1984, "pitch": 47, "duration": 9, "velocity": 52}, {"time": 1990, "pitch": 59, "duration": 12, "velocity": 71}, {"time": 2002, "pitch": 45, "duration": 39, "velocity": 65}, {"time": 2008, "pitch": 52, "duration": 21, "velocity": 51}, {"time": 2014, "pitch": 64, "duration": 22, "velocity": 73}, {"time": 2020, "pitch": 57, "duration": 36, "velocity": 53}, {"time": 2026, "pitch": 61, "duration": 10, "velocity": 51}, {"time": 2032, "pitch": 52, "duration": 7, "velocity": 48}, {"time": 2038, "pitch": 64, "duration": 13, "velocity": 85}, {"time": 2044, "pitch": 61, "duration": 7, "velocity": 43}, {"time": 2050, "pitch": 38, "duration": 20, "velocity": 68}, {"time": 2056, "pitch": 45, "duration": 18, "velocity": 48}, {"time": 2062, "pitch": 50, "duration": 7, "velocity": 77}, {"time": 2068, "pitch": 57, "duration": 7, "velocity": 72}, {"time": 2074, "pitch": 40, "duration": 15, "velocity": 61}, {"time": 2080, "pitch": 47, "duration": 9, "velocity": 42}, {"time": 2086, "pitch": 59, "duration": 13, "velocity": 79}, {"time": 2092, "pitch": 56, "duration": 6, "velocity": 45}, {"time": 2098, "pitch": 45, "duration": 48, "velocity": 68}, {"time": 2104, "pitch": 52, "duration": 9, "velocity": 53}, {"time": 2110, "pitch": 64, "duration": 36, "velocity": 82}, {"time": 2116, "pitch": 52, "duration": 9, "velocity": 38}, {"time": 2122, "pitch": 61, "duration": 13, "velocity": 50}, {"time": 2128, "pitch": 52, "duration": 7, "velocity": 52}, {"time": 2134, "pitch": 57, "duration": 12, "velocity": 102}, {"time": 2137, "pitch": 52, "duration": 6, "velocity": 71}, {"time": 2140, "pitch": 61, "duration": 6, "velocity": 107}, {"time": 2146, "pitch": 51, "duration": 22, "velocity": 112}, {"time": 2149, "pitch": 59, "duration": 5, "velocity": 75}, {"time": 2152, "pitch": 63, "duration": 5, "velocity": 97}, {"time": 2155, "pitch": 59, "duration": 5, "velocity": 82}, {"time": 2158, "pitch": 66, "duration": 12, "velocity": 117}, {"time": 2161, "pitch": 59, "duration": 4, "velocity": 90}, {"time": 2164, "pitch": 63, "duration": 5, "velocity": 95}, {"time": 2167, "pitch": 59, "duration": 4, "velocity": 83}, {"time": 2170, "pitch": 50, "duration": 13, "velocity": 88}, {"time": 2173, "pitch": 57, "duration": 5, "velocity": 82}, {"time": 2176, "pitch": 62, "duration": 5, "velocity": 71}, {"time": 2179, "pitch": 57, "duration": 5, "velocity": 82}, {"time": 2182, "pitch": 66, "duration": 11, "velocity": 107}, {"time": 2185, "pitch": 57, "duration": 4, "velocity": 82}, {"time": 2188, "pitch": 62, "duration": 5, "velocity": 68}, {"time": 2191, "pitch": 57, "duration": 4, "velocity": 92}, {"time": 2194, "pitch": 49, "duration": 24, "velocity": 89}, {"time": 2197, "pitch": 56, "duration": 5, "velocity": 59}, {"time": 2200, "pitch": 61, "duration": 5, "velocity": 53}, {"time": 2203, "pitch": 56, "duration": 4, "velocity": 70}, {"time": 2206, "pitch": 64, "duration": 12, "velocity": 89}, {"time": 2209, "pitch": 56, "duration": 4, "velocity": 83}, {"time": 2212, "pitch": 61, "duration": 6, "velocity": 76}, {"time": 2215, "pitch": 56, "duration": 3, "velocity": 102}, {"time": 2218, "pitch": 42, "duration": 17, "velocity": 89}, {"time": 2221, "pitch": 49, "duration": 12, "velocity": 43}, {"time": 2224, "pitch": 54, "duration": 8, "velocity": 71}, {"time": 2227, "pitch": 57, "duration": 6, "velocity": 93}, {"time": 2230, "pitch": 66, "duration": 13, "velocity": 95}, {"time": 2233, "pitch": 54, "duration": 4, "velocity": 79}, {"time": 2236, "pitch": 57, "duration": 6, "velocity": 86}, {"time": 2239, "pitch": 61, "duration": 3, "velocity": 96}, {"time": 2242, "pitch": 47, "duration": 18, "velocity": 67}, {"time": 2245, "pitch": 54, "duration": 11, "velocity": 82}, {"time": 2248, "pitch": 59, "duration": 6, "velocity": 82}, {"time": 2251, "pitch": 62, "duration": 3, "velocity": 61}, {"time": 2254, "pitch": 66, "duration": 11, "velocity": 99}, {"time": 2257, "pitch": 54, "duration": 2, "velocity": 66}, {"time": 2260, "pitch": 62, "duration": 6, "velocity": 83}, {"time": 2263, "pitch": 59, "duration": 4, "velocity": 83}, {"time": 2266, "pitch": 40, "duration": 18, "velocity": 67}, {"time": 2269, "pitch": 47, "duration": 15, "velocity": 81}, {"time": 2272, "pitch": 52, "duration": 7, "velocity": 82}, {"time": 2275, "pitch": 59, "duration": 9, "velocity": 95}, {"time": 2278, "pitch": 68, "duration": 13, "velocity": 100}, {"time": 2281, "pitch": 52, "duration": 5, "velocity": 72}, {"time": 2284, "pitch": 64, "duration": 6, "velocity": 85}, {"time": 2287, "pitch": 59, "duration": 4, "velocity": 83}, {"time": 2290, "pitch": 45, "duration": 23, "velocity": 71}, {"time": 2293, "pitch": 52, "duration": 10, "velocity": 78}, {"time": 2296, "pitch": 57, "duration": 5, "velocity": 86}, {"time": 2299, "pitch": 59, "duration": 4, "velocity": 76}, {"time": 2302, "pitch": 64, "duration": 24, "velocity": 89}, {"time": 2305, "pitch": 52, "duration": 10, "velocity": 47}, {"time": 2308, "pitch": 61, "duration": 18, "velocity": 100}, {"time": 2311, "pitch": 59, "duration": 15, "velocity": 72}, {"time": 2314, "pitch": 45, "duration": 24, "velocity": 81}, {"time": 2314, "pitch": 57, "duration": 24, "velocity": 86}, {"time": 2326, "pitch": 59, "duration": 12, "velocity": 63}, {"time": 2326, "pitch": 61, "duration": 11, "velocity": 60}, {"time": 2326, "pitch": 64, "duration": 12, "velocity": 70}, {"time": 2338, "pitch": 45, "duration": 38, "velocity": 78}, {"time": 2344, "pitch": 52, "duration": 9, "velocity": 69}, {"time": 2350, "pitch": 57, "duration": 41, "velocity": 93}, {"time": 2356, "pitch": 52, "duration": 9, "velocity": 53}, {"time": 2362, "pitch": 61, "duration": 10, "velocity": 61}, {"time": 2368, "pitch": 52, "duration": 7, "velocity": 66}, {"time": 2374, "pitch": 64, "duration": 18, "velocity": 90}, {"time": 2380, "pitch": 61, "duration": 10, "velocity": 61}, {"time": 2386, "pitch": 44, "duration": 43, "velocity": 79}, {"time": 2392, "pitch": 56, "duration": 8, "velocity": 62}, {"time": 2398, "pitch": 64, "duration": 23, "velocity": 89}, {"time": 2404, "pitch": 56, "duration": 9, "velocity": 71}, {"time": 2410, "pitch": 61, "duration": 11, "velocity": 93}, {"time": 2416, "pitch": 56, "duration": 8, "velocity": 76}, {"time": 2422, "pitch": 64, "duration": 14, "velocity": 90}, {"time": 2425, "pitch": 56, "duration": 3, "velocity": 66}, {"time": 2428, "pitch": 61, "duration": 7, "velocity": 77}, {"time": 2434, "pitch": 43, "duration": 37, "velocity": 70}, {"time": 2440, "pitch": 55, "duration": 22, "velocity": 63}, {"time": 2446, "pitch": 64, "duration": 22, "velocity": 89}, {"time": 2452, "pitch": 57, "duration": 30, "velocity": 70}, {"time": 2458, "pitch": 61, "duration": 10, "velocity": 95}, {"time": 2464, "pitch": 55, "duration": 7, "velocity": 42}, {"time": 2470, "pitch": 64, "duration": 11, "velocity": 90}, {"time": 2476, "pitch": 61, "duration": 6, "velocity": 52}, {"time": 2482, "pitch": 42, "duration": 45, "velocity": 89}, {"time": 2488, "pitch": 54, "duration": 9, "velocity": 59}, {"time": 2494, "pitch": 57, "duration": 15, "velocity": 75}, {"time": 2500, "pitch": 54, "duration": 9, "velocity": 59}, {"time": 2506, "pitch": 62, "duration": 14, "velocity": 71}, {"time": 2506, "pitch": 66, "duration": 24, "velocity": 83}, {"time": 2512, "pitch": 54, "duration": 11, "velocity": 49}, {"time": 2518, "pitch": 57, "duration": 11, "velocity": 77}, {"time": 2524, "pitch": 62, "duration": 6, "velocity": 69}, {"time": 2530, "pitch": 41, "duration": 38, "velocity": 72}, {"time": 2536, "pitch": 50, "duration": 9, "velocity": 57}, {"time": 2542, "pitch": 57, "duration": 2, "velocity": 36}, {"time": 2542, "pitch": 62, "duration": 21, "velocity": 70}, {"time": 2542, "pitch": 65, "duration": 21, "velocity": 68}, {"time": 2548, "pitch": 50, "duration": 8, "velocity": 43}, {"time": 2554, "pitch": 57, "duration": 25, "velocity": 72}, {"time": 2560, "pitch": 50, "duration": 7, "velocity": 49}, {"time": 2566, "pitch": 65, "duration": 12, "velocity": 73}, {"time": 2572, "pitch": 62, "duration": 6, "velocity": 58}, {"time": 2578, "pitch": 37, "duration": 17, "velocity": 90}, {"time": 2584, "pitch": 49, "duration": 17, "velocity": 72}, {"time": 2590, "pitch": 52, "duration": 12, "velocity": 82}, {"time": 2596, "pitch": 61, "duration": 7, "velocity": 77}, {"time": 2602, "pitch": 42, "duration": 15, "velocity": 90}, {"time": 2608, "pitch": 54, "duration": 10, "velocity": 65}, {"time": 2614, "pitch": 61, "duration": 13, "velocity": 100}, {"time": 2620, "pitch": 57, "duration": 7, "velocity": 73}, {"time": 2626, "pitch": 47, "duration": 15, "velocity": 71}, {"time": 2632, "pitch": 54, "duration": 7, "velocity": 56}, {"time": 2638, "pitch": 66, "duration": 10, "velocity": 97}, {"time": 2644, "pitch": 59, "duration": 31, "velocity": 73}, {"time": 2650, "pitch": 40, "duration": 16, "velocity": 78}, {"time": 2656, "pitch": 47, "duration": 10, "velocity": 44}, {"time": 2662, "pitch": 52, "duration": 7, "velocity": 66}, {"time": 2662, "pitch": 68, "duration": 13, "velocity": 102}, {"time": 2668, "pitch": 64, "duration": 6, "velocity": 73}, {"time": 2674, "pitch": 45, "duration": 23, "velocity": 85}, {"time": 2680, "pitch": 52, "duration": 7, "velocity": 79}, {"time": 2686, "pitch": 64, "duration": 11, "velocity": 97}, {"time": 2689, "pitch": 52, "duration": 9, "velocity": 88}, {"time": 2692, "pitch": 57, "duration": 5, "velocity": 90}, {"time": 2698, "pitch": 45, "duration": 18, "velocity": 88}, {"time": 2698, "pitch": 57, "duration": 15, "velocity": 97}, {"time": 2698, "pitch": 61, "duration": 11, "velocity": 122}, {"time": 2698, "pitch": 64, "duration": 10, "velocity": 99}, {"time": 2698, "pitch": 67, "duration": 10, "velocity": 92}, {"time": 2704, "pitch": 52, "duration": 8, "velocity": 90}, {"time": 2710, "pitch": 61, "duration": 8, "velocity": 55}, {"time": 2710, "pitch": 64, "duration": 13, "velocity": 70}, {"time": 2710, "pitch": 67, "duration": 13, "velocity": 95}, {"time": 2713, "pitch": 52, "duration": 3, "velocity": 93}, {"time": 2716, "pitch": 57, "duration": 7, "velocity": 89}, {"time": 2719, "pitch": 61, "duration": 3, "velocity": 93}, {"time": 2722, "pitch": 38, "duration": 22, "velocity": 97}, {"time": 2728, "pitch": 45, "duration": 10, "velocity": 88}, {"time": 2734, "pitch": 50, "duration": 8, "velocity": 89}, {"time": 2734, "pitch": 57, "duration": 6, "velocity": 92}, {"time": 2734, "pitch": 66, "duration": 12, "velocity": 117}, {"time": 2740, "pitch": 45, "duration": 4, "velocity": 93}, {"time": 2740, "pitch": 57, "duration": 6, "velocity": 88}, {"time": 2746, "pitch": 40, "duration": 18, "velocity": 70}, {"time": 2752, "pitch": 47, "duration": 14, "velocity": 93}, {"time": 2758, "pitch": 52, "duration": 7, "velocity": 86}, {"time": 2758, "pitch": 59, "duration": 8, "velocity": 93}, {"time": 2758, "pitch": 68, "duration": 12, "velocity": 117}, {"time": 2764, "pitch": 52, "duration": 1, "velocity": 90}, {"time": 2767, "pitch": 40, "duration": 3, "velocity": 97}, {"time": 2770, "pitch": 45, "duration": 22, "velocity": 78}, {"time": 2773, "pitch": 52, "duration": 10, "velocity": 83}, {"time": 2776, "pitch": 57, "duration": 5, "velocity": 86}, {"time": 2779, "pitch": 61, "duration": 3, "velocity": 117}, {"time": 2782, "pitch": 64, "duration": 13, "velocity": 95}, {"time": 2791, "pitch": 57, "duration": 4, "velocity": 88}, {"time": 2794, "pitch": 45, "duration": 18, "velocity": 89}, {"time": 2797, "pitch": 52, "duration": 11, "velocity": 77}, {"time": 2800, "pitch": 57, "duration": 3, "velocity": 90}, {"time": 2803, "pitch": 61, "duration": 11, "velocity": 107}, {"time": 2806, "pitch": 64, "duration": 12, "velocity": 96}, {"time": 2815, "pitch": 61, "duration": 4, "velocity": 127}, {"time": 2818, "pitch": 38, "duration": 22, "velocity": 93}, {"time": 2821, "pitch": 45, "duration": 21, "velocity": 93}, {"time": 2824, "pitch": 50, "duration": 7, "velocity": 85}, {"time": 2827, "pitch": 57, "duration": 7, "velocity": 96}, {"time": 2830, "pitch": 66, "duration": 12, "velocity": 117}, {"time": 2839, "pitch": 57, "duration": 4, "velocity": 99}, {"time": 2842, "pitch": 40, "duration": 17, "velocity": 83}, {"time": 2845, "pitch": 47, "duration": 14, "velocity": 81}, {"time": 2848, "pitch": 52, "duration": 7, "velocity": 86}, {"time": 2851, "pitch": 59, "duration": 6, "velocity": 100}, {"time": 2863, "pitch": 59, "duration": 4, "velocity": 100}, {"time": 2866, "pitch": 45, "duration": 14, "velocity": 72}, {"time": 2869, "pitch": 52, "duration": 11, "velocity": 79}, {"time": 2872, "pitch": 57, "duration": 4, "velocity": 86}, {"time": 2875, "pitch": 61, "duration": 3, "velocity": 127}, {"time": 2878, "pitch": 64, "duration": 14, "velocity": 99}, {"time": 2881, "pitch": 45, "duration": 7, "velocity": 54}, {"time": 2887, "pitch": 57, "duration": 3, "velocity": 96}, {"time": 2890, "pitch": 45, "duration": 19, "velocity": 93}, {"time": 2893, "pitch": 52, "duration": 12, "velocity": 93}, {"time": 2896, "pitch": 55, "duration": 8, "velocity": 96}, {"time": 2899, "pitch": 57, "duration": 8, "velocity": 99}, {"time": 2902, "pitch": 64, "duration": 12, "velocity": 102}, {"time": 2911, "pitch": 57, "duration": 6, "velocity": 93}, {"time": 2914, "pitch": 38, "duration": 10, "velocity": 83}, {"time": 2917, "pitch": 45, "duration": 8, "velocity": 90}, {"time": 2920, "pitch": 50, "duration": 4, "velocity": 89}, {"time": 2923, "pitch": 57, "duration": 6, "velocity": 95}, {"time": 2926, "pitch": 66, "duration": 12, "velocity": 127}, {"time": 2935, "pitch": 62, "duration": 2, "velocity": 88}, {"time": 2938, "pitch": 37, "duration": 16, "velocity": 92}, {"time": 2941, "pitch": 44, "duration": 13, "velocity": 36}, {"time": 2944, "pitch": 49, "duration": 7, "velocity": 88}, {"time": 2947, "pitch": 53, "duration": 5, "velocity": 88}, {"time": 2950, "pitch": 61, "duration": 12, "velocity": 107}, {"time": 2959, "pitch": 53, "duration": 3, "velocity": 83}, {"time": 2962, "pitch": 42, "duration": 18, "velocity": 78}, {"time": 2965, "pitch": 49, "duration": 14, "velocity": 35}, {"time": 2968, "pitch": 54, "duration": 7, "velocity": 90}, {"time": 2971, "pitch": 57, "duration": 7, "velocity": 86}, {"time": 2974, "pitch": 66, "duration": 12, "velocity": 117}, {"time": 2983, "pitch": 57, "duration": 3, "velocity": 89}, {"time": 2986, "pitch": 51, "duration": 17, "velocity": 107}, {"time": 2989, "pitch": 59, "duration": 5, "velocity": 60}, {"time": 2992, "pitch": 63, "duration": 5, "velocity": 95}, {"time": 2995, "pitch": 59, "duration": 5, "velocity": 78}, {"time": 2998, "pitch": 66, "duration": 12, "velocity": 122}, {"time": 3007, "pitch": 63, "duration": 3, "velocity": 82}, {"time": 3010, "pitch": 38, "duration": 16, "velocity": 77}, {"time": 3013, "pitch": 45, "duration": 13, "velocity": 81}, {"time": 3016, "pitch": 50, "duration": 7, "velocity": 82}, {"time": 3019, "pitch": 57, "duration": 9, "velocity": 89}, {"time": 3022, "pitch": 66, "duration": 13, "velocity": 127}, {"time": 3031, "pitch": 57, "duration": 4, "velocity": 97}, {"time": 3034, "pitch": 47, "duration": 18, "velocity": 90}, {"time": 3037, "pitch": 54, "duration": 11, "velocity": 86}, {"time": 3040, "pitch": 59, "duration": 8, "velocity": 81}, {"time": 3043, "pitch": 62, "duration": 10, "velocity": 97}, {"time": 3046, "pitch": 66, "duration": 11, "velocity": 127}, {"time": 3055, "pitch": 62, "duration": 3, "velocity": 107}, {"time": 3058, "pitch": 40, "duration": 23, "velocity": 100}, {"time": 3061, "pitch": 47, "duration": 22, "velocity": 102}, {"time": 3064, "pitch": 52, "duration": 7, "velocity": 97}, {"time": 3067, "pitch": 59, "duration": 5, "velocity": 95}, {"time": 3073, "pitch": 52, "duration": 3, "velocity": 100}, {"time": 3076, "pitch": 59, "duration": 13, "velocity": 89}, {"time": 3082, "pitch": 40, "duration": 19, "velocity": 89}, {"time": 3085, "pitch": 47, "duration": 15, "velocity": 88}, {"time": 3088, "pitch": 52, "duration": 8, "velocity": 90}, {"time": 3091, "pitch": 59, "duration": 8, "velocity": 89}, {"time": 3103, "pitch": 59, "duration": 4, "velocity": 97}, {"time": 3106, "pitch": 38, "duration": 22, "velocity": 81}, {"time": 3109, "pitch": 45, "duration": 21, "velocity": 82}, {"time": 3112, "pitch": 50, "duration": 7, "velocity": 79}, {"time": 3115, "pitch": 57, "duration": 7, "velocity": 95}, {"time": 3118, "pitch": 66, "duration": 13, "velocity": 97}, {"time": 3127, "pitch": 57, "duration": 4, "velocity": 93}, {"time": 3130, "pitch": 40, "duration": 18, "velocity": 86}, {"time": 3133, "pitch": 47, "duration": 15, "velocity": 81}, {"time": 3136, "pitch": 52, "duration": 7, "velocity": 85}, {"time": 3139, "pitch": 59, "duration": 5, "velocity": 92}, {"time": 3151, "pitch": 59, "duration": 4, "velocity": 95}, {"time": 3154, "pitch": 45, "duration": 22, "velocity": 76}, {"time": 3157, "pitch": 52, "duration": 11, "velocity": 35}, {"time": 3160, "pitch": 57, "duration": 7, "velocity": 66}, {"time": 3163, "pitch": 61, "duration": 4, "velocity": 83}, {"time": 3166, "pitch": 64, "duration": 20, "velocity": 96}, {"time": 3175, "pitch": 57, "duration": 6, "velocity": 95}, {"time": 3178, "pitch": 45, "duration": 19, "velocity": 86}, {"time": 3181, "pitch": 52, "duration": 11, "velocity": 83}, {"time": 3184, "pitch": 57, "duration": 8, "velocity": 86}, {"time": 3187, "pitch": 61, "duration": 3, "velocity": 102}, {"time": 3190, "pitch": 64, "duration": 11, "velocity": 102}, {"time": 3199, "pitch": 57, "duration": 4, "velocity": 95}, {"time": 3202, "pitch": 38, "duration": 23, "velocity": 73}, {"time": 3205, "pitch": 45, "duration": 21, "velocity": 92}, {"time": 3208, "pitch": 50, "duration": 7, "velocity": 83}, {"time": 3211, "pitch": 57, "duration": 5, "velocity": 95}, {"time": 3214, "pitch": 66, "duration": 12, "velocity": 117}, {"time": 3223, "pitch": 57, "duration": 4, "velocity": 99}, {"time": 3226, "pitch": 40, "duration": 18, "velocity": 92}, {"time": 3229, "pitch": 47, "duration": 15, "velocity": 90}, {"time": 3232, "pitch": 52, "duration": 8, "velocity": 86}, {"time": 3235, "pitch": 59, "duration": 6, "velocity": 90}, {"time": 3247, "pitch": 59, "duration": 4, "velocity": 96}, {"time": 3250, "pitch": 45, "duration": 22, "velocity": 79}, {"time": 3253, "pitch": 52, "duration": 10, "velocity": 83}, {"time": 3256, "pitch": 57, "duration": 6, "velocity": 92}, {"time": 3259, "pitch": 61, "duration": 3, "velocity": 127}, {"time": 3262, "pitch": 64, "duration": 19, "velocity": 99}, {"time": 3271, "pitch": 57, "duration": 3, "velocity": 97}, {"time": 3274, "pitch": 45, "duration": 19, "velocity": 82}, {"time": 3277, "pitch": 52, "duration": 15, "velocity": 99}, {"time": 3280, "pitch": 55, "duration": 8, "velocity": 92}, {"time": 3283, "pitch": 57, "duration": 7, "velocity": 96}, {"time": 3286, "pitch": 64, "duration": 12, "velocity": 93}, {"time": 3295, "pitch": 57, "duration": 6, "velocity": 92}, {"time": 3298, "pitch": 38, "duration": 17, "velocity": 75}, {"time": 3301, "pitch": 45, "duration": 14, "velocity": 78}, {"time": 3304, "pitch": 50, "duration": 7, "velocity": 86}, {"time": 3307, "pitch": 57, "duration": 8, "velocity": 93}, {"time": 3310, "pitch": 66, "duration": 12, "velocity": 117}, {"time": 3319, "pitch": 57, "duration": 4, "velocity": 92}, {"time": 3322, "pitch": 37, "duration": 17, "velocity": 68}, {"time": 3325, "pitch": 44, "duration": 14, "velocity": 35}, {"time": 3328, "pitch": 49, "duration": 7, "velocity": 85}, {"time": 3331, "pitch": 53, "duration": 5, "velocity": 79}, {"time": 3334, "pitch": 56, "duration": 7, "velocity": 112}, {"time": 3343, "pitch": 56, "duration": 3, "velocity": 100}, {"time": 3346, "pitch": 42, "duration": 18, "velocity": 93}, {"time": 3349, "pitch": 54, "duration": 10, "velocity": 90}, {"time": 3352, "pitch": 57, "duration": 9, "velocity": 74}, {"time": 3355, "pitch": 61, "duration": 3, "velocity": 100}, {"time": 3358, "pitch": 66, "duration": 12, "velocity": 100}, {"time": 3367, "pitch": 61, "duration": 3, "velocity": 92}, {"time": 3370, "pitch": 39, "duration": 19, "velocity": 99}, {"time": 3376, "pitch": 51, "duration": 10, "velocity": 66}, {"time": 3382, "pitch": 66, "duration": 16, "velocity": 100}, {"time": 3394, "pitch": 47, "duration": 17, "velocity": 85}, {"time": 3400, "pitch": 59, "duration": 7, "velocity": 73}, {"time": 3406, "pitch": 62, "duration": 13, "velocity": 66}, {"time": 3406, "pitch": 66, "duration": 12, "velocity": 92}, {"time": 3412, "pitch": 59, "duration": 7, "velocity": 76}, {"time": 3418, "pitch": 40, "duration": 41, "velocity": 83}, {"time": 3424, "pitch": 47, "duration": 33, "velocity": 42}, {"time": 3430, "pitch": 52, "duration": 26, "velocity": 74}, {"time": 3436, "pitch": 59, "duration": 21, "velocity": 48}, {"time": 3442, "pitch": 64, "duration": 11, "velocity": 52}, {"time": 3442, "pitch": 68, "duration": 11, "velocity": 56}, {"time": 3454, "pitch": 64, "duration": 10, "velocity": 79}, {"time": 3454, "pitch": 68, "duration": 11, "velocity": 97}, {"time": 3460, "pitch": 59, "duration": 7, "velocity": 96}, {"time": 3466, "pitch": 38, "duration": 19, "velocity": 78}, {"time": 3469, "pitch": 45, "duration": 20, "velocity": 81}, {"time": 3472, "pitch": 50, "duration": 7, "velocity": 81}, {"time": 3475, "pitch": 57, "duration": 7, "velocity": 86}, {"time": 3478, "pitch": 66, "duration": 12, "velocity": 117}, {"time": 3481, "pitch": 50, "duration": 3, "velocity": 81}, {"time": 3484, "pitch": 62, "duration": 6, "velocity": 72}, {"time": 3487, "pitch": 57, "duration": 4, "velocity": 92}, {"time": 3490, "pitch": 40, "duration": 17, "velocity": 77}, {"time": 3493, "pitch": 47, "duration": 14, "velocity": 86}, {"time": 3496, "pitch": 52, "duration": 7, "velocity": 88}, {"time": 3499, "pitch": 59, "duration": 10, "velocity": 88}, {"time": 3502, "pitch": 68, "duration": 13, "velocity": 122}, {"time": 3508, "pitch": 64, "duration": 7, "velocity": 81}, {"time": 3511, "pitch": 59, "duration": 4, "velocity": 88}, {"time": 3514, "pitch": 45, "duration": 22, "velocity": 75}, {"time": 3517, "pitch": 52, "duration": 10, "velocity": 72}, {"time": 3520, "pitch": 57, "duration": 5, "velocity": 73}, {"time": 3523, "pitch": 61, "duration": 3, "velocity": 122}, {"time": 3526, "pitch": 64, "duration": 14, "velocity": 96}, {"time": 3529, "pitch": 52, "duration": 9, "velocity": 70}, {"time": 3532, "pitch": 61, "duration": 8, "velocity": 95}, {"time": 3535, "pitch": 57, "duration": 4, "velocity": 93}, {"time": 3538, "pitch": 45, "duration": 18, "velocity": 90}, {"time": 3541, "pitch": 52, "duration": 11, "velocity": 90}, {"time": 3544, "pitch": 57, "duration": 4, "velocity": 96}, {"time": 3547, "pitch": 59, "duration": 5, "velocity": 97}, {"time": 3550, "pitch": 64, "duration": 11, "velocity": 102}, {"time": 3553, "pitch": 52, "duration": 2, "velocity": 92}, {"time": 3556, "pitch": 61, "duration": 5, "velocity": 112}, {"time": 3559, "pitch": 57, "duration": 4, "velocity": 95}, {"time": 3562, "pitch": 38, "duration": 22, "velocity": 81}, {"time": 3565, "pitch": 45, "duration": 21, "velocity": 53}, {"time": 3568, "pitch": 50, "duration": 7, "velocity": 83}, {"time": 3571, "pitch": 57, "duration": 8, "velocity": 90}, {"time": 3574, "pitch": 66, "duration": 13, "velocity": 99}, {"time": 3580, "pitch": 62, "duration": 6, "velocity": 90}, {"time": 3583, "pitch": 57, "duration": 4, "velocity": 89}, {"time": 3586, "pitch": 40, "duration": 18, "velocity": 86}, {"time": 3589, "pitch": 47, "duration": 15, "velocity": 85}, {"time": 3592, "pitch": 52, "duration": 7, "velocity": 89}, {"time": 3595, "pitch": 59, "duration": 6, "velocity": 97}, {"time": 3598, "pitch": 68, "duration": 11, "velocity": 127}, {"time": 3601, "pitch": 52, "duration": 8, "velocity": 90}, {"time": 3604, "pitch": 64, "duration": 5, "velocity": 90}, {"time": 3604, "pitch": 66, "duration": 1, "velocity": 39}, {"time": 3607, "pitch": 59, "duration": 4, "velocity": 95}, {"time": 3610, "pitch": 45, "duration": 23, "velocity": 72}, {"time": 3613, "pitch": 52, "duration": 11, "velocity": 85}, {"time": 3616, "pitch": 57, "duration": 4, "velocity": 97}, {"time": 3619, "pitch": 61, "duration": 4, "velocity": 122}, {"time": 3622, "pitch": 64, "duration": 16, "velocity": 99}, {"time": 3625, "pitch": 52, "duration": 9, "velocity": 89}, {"time": 3628, "pitch": 61, "duration": 9, "velocity": 117}, {"time": 3631, "pitch": 57, "duration": 4, "velocity": 97}, {"time": 3634, "pitch": 45, "duration": 18, "velocity": 97}, {"time": 3637, "pitch": 52, "duration": 11, "velocity": 89}, {"time": 3640, "pitch": 55, "duration": 7, "velocity": 112}, {"time": 3643, "pitch": 57, "duration": 8, "velocity": 99}, {"time": 3646, "pitch": 64, "duration": 12, "velocity": 107}, {"time": 3649, "pitch": 52, "duration": 3, "velocity": 90}, {"time": 3652, "pitch": 61, "duration": 6, "velocity": 127}, {"time": 3655, "pitch": 57, "duration": 8, "velocity": 96}, {"time": 3658, "pitch": 38, "duration": 17, "velocity": 81}, {"time": 3661, "pitch": 45, "duration": 14, "velocity": 86}, {"time": 3664, "pitch": 50, "duration": 7, "velocity": 85}, {"time": 3667, "pitch": 57, "duration": 8, "velocity": 96}, {"time": 3670, "pitch": 66, "duration": 12, "velocity": 122}, {"time": 3673, "pitch": 50, "duration": 2, "velocity": 81}, {"time": 3676, "pitch": 62, "duration": 5, "velocity": 83}, {"time": 3679, "pitch": 57, "duration": 4, "velocity": 97}, {"time": 3682, "pitch": 37, "duration": 17, "velocity": 85}, {"time": 3685, "pitch": 44, "duration": 14, "velocity": 63}, {"time": 3688, "pitch": 49, "duration": 7, "velocity": 90}, {"time": 3691, "pitch": 53, "duration": 8, "velocity": 86}, {"time": 3694, "pitch": 61, "duration": 12, "velocity": 122}, {"time": 3697, "pitch": 49, "duration": 4, "velocity": 99}, {"time": 3700, "pitch": 56, "duration": 6, "velocity": 96}, {"time": 3703, "pitch": 53, "duration": 3, "velocity": 89}, {"time": 3706, "pitch": 42, "duration": 17, "velocity": 73}, {"time": 3709, "pitch": 49, "duration": 14, "velocity": 58}, {"time": 3712, "pitch": 54, "duration": 7, "velocity": 93}, {"time": 3715, "pitch": 57, "duration": 10, "velocity": 89}, {"time": 3718, "pitch": 66, "duration": 13, "velocity": 102}, {"time": 3721, "pitch": 54, "duration": 4, "velocity": 100}, {"time": 3724, "pitch": 61, "duration": 6, "velocity": 99}, {"time": 3727, "pitch": 57, "duration": 3, "velocity": 86}, {"time": 3730, "pitch": 51, "duration": 18, "velocity": 88}, {"time": 3733, "pitch": 59, "duration": 5, "velocity": 85}, {"time": 3736, "pitch": 63, "duration": 5, "velocity": 77}, {"time": 3739, "pitch": 59, "duration": 15, "velocity": 63}, {"time": 3742, "pitch": 66, "duration": 13, "velocity": 100}, {"time": 3754, "pitch": 38, "duration": 22, "velocity": 74}, {"time": 3760, "pitch": 45, "duration": 18, "velocity": 66}, {"time": 3766, "pitch": 50, "duration": 4, "velocity": 72}, {"time": 3766, "pitch": 62, "duration": 14, "velocity": 72}, {"time": 3766, "pitch": 66, "duration": 11, "velocity": 78}, {"time": 3772, "pitch": 57, "duration": 7, "velocity": 54}, {"time": 3778, "pitch": 40, "duration": 15, "velocity": 83}, {"time": 3784, "pitch": 47, "duration": 10, "velocity": 47}, {"time": 3790, "pitch": 52, "duration": 4, "velocity": 71}, {"time": 3790, "pitch": 59, "duration": 7, "velocity": 48}, {"time": 3790, "pitch": 64, "duration": 6, "velocity": 89}, {"time": 3790, "pitch": 68, "duration": 6, "velocity": 92}, {"time": 3802, "pitch": 45, "duration": 16, "velocity": 66}, {"time": 3802, "pitch": 57, "duration": 11, "velocity": 86}, {"time": 3802, "pitch": 62, "duration": 11, "velocity": 89}, {"time": 3802, "pitch": 64, "duration": 11, "velocity": 82}, {"time": 3814, "pitch": 57, "duration": 10, "velocity": 73}, {"time": 3814, "pitch": 62, "duration": 10, "velocity": 89}, {"time": 3814, "pitch": 64, "duration": 9, "velocity": 89}, {"time": 3820, "pitch": 45, "duration": 5, "velocity": 48}, {"time": 3826, "pitch": 45, "duration": 41, "velocity": 53}, {"time": 3826, "pitch": 52, "duration": 40, "velocity": 78}, {"time": 3826, "pitch": 57, "duration": 40, "velocity": 77}, {"time": 3826, "pitch": 61, "duration": 40, "velocity": 82}, {"time": 3826, "pitch": 64, "duration": 40, "velocity": 77}], "annotations": [{"time": 66, "annotation": {"number": 64, "value": 127}, "group": "control_change"}, {"time": 81, "annotation": {"number": 64, "value": 0}, "group": "control_change"}, {"time": 83, "annotation": {"number": 64, "value": 127}, "group": "control_change"}, {"time": 129, "annotation": {"number": 64, "value": 0}, "group": "control_change"}, {"time": 131, "annotation": {"number": 64, "value": 127}, "group": "control_change"}, {"time": 152, "annotation": {"number": 64, "value": 0}, "group": "control_change"}, {"time": 155, "annotation": {"number": 64, "value": 127}, "group": "control_change"}, {"time": 176, "annotation": {"number": 64, "value": 0}, "group": "control_change"}, {"time": 179, "annotation": {"number": 64, "value": 127}, "group": "control_change"}, {"time": 201, "annotation": {"number": 64, "value": 0}, "group": "control_change"}, {"time": 203, "annotation": {"number": 64, "value": 127}, "group": "control_change"}, {"time": 224, "annotation": {"number": 64, "value": 0}, "group": "control_change"}, {"time": 227, "annotation": {"number": 64, "value": 127}, "group": "control_change"}, {"time": 273, "annotation": {"number": 64, "value": 0}, "group": "control_change"}, {"time": 274, "annotation": {"number": 64, "value": 127}, "group": "control_change"}, {"time": 296, "annotation": {"number": 64, "value": 0}, "group": "control_change"}, {"time": 298, "annotation": {"number": 64, "value": 127}, "group": "control_change"}, {"time": 321, "annotation": {"number": 64, "value": 0}, "group": "control_change"}, {"time": 323, "annotation": {"number": 64, "value": 127}, "group": "control_change"}, {"time": 344, "annotation": {"number": 64, "value": 0}, "group": "control_change"}, {"time": 346, "annotation": {"number": 64, "value": 127}, "group": "control_change"}, {"time": 368, "annotation": {"number": 64, "value": 0}, "group": "control_change"}, {"time": 371, "annotation": {"number": 64, "value": 127}, "group": "control_change"}, {"time": 392, "annotation": {"number": 64, "value": 0}, "group": "control_change"}, {"time": 395, "annotation": {"number": 64, "value": 127}, "group": "control_change"}, {"time": 414, "annotation": {"number": 64, "value": 0}, "group": "control_change"}, {"time": 418, "annotation": {"number": 64, "value": 127}, "group": "control_change"}, {"time": 561, "annotation": {"number": 64, "value": 0}, "group": "control_change"}, {"time": 563, "annotation": {"number": 64, "value": 127}, "group": "control_change"}, {"time": 659, "annotation": {"number": 64, "value": 127}, "group": "control_change"}, {"time": 680, "annotation": {"number": 64, "value": 0}, "group": "control_change"}, {"time": 683, "annotation": {"number": 64, "value": 127}, "group": "control_change"}, {"time": 704, "annotation": {"number": 64, "value": 0}, "group": "control_change"}, {"time": 707, "annotation": {"number": 64, "value": 127}, "group": "control_change"}, {"time": 728, "annotation": {"number": 64, "value": 0}, "group": "control_change"}, {"time": 731, "annotation": {"number": 64, "value": 127}, "group": "control_change"}, {"time": 751, "annotation": {"number": 64, "value": 0}, "group": "control_change"}, {"time": 755, "annotation": {"number": 64, "value": 127}, "group": "control_change"}, {"time": 800, "annotation": {"number": 64, "value": 0}, "group": "control_change"}, {"time": 803, "annotation": {"number": 64, "value": 127}, "group": "control_change"}, {"time": 848, "annotation": {"number": 64, "value": 0}, "group": "control_change"}, {"time": 851, "annotation": {"number": 64, "value": 127}, "group": "control_change"}, {"time": 896, "annotation": {"number": 64, "value": 0}, "group": "control_change"}, {"time": 899, "annotation": {"number": 64, "value": 127}, "group": "control_change"}, {"time": 944, "annotation": {"number": 64, "value": 0}, "group": "control_change"}, {"time": 947, "annotation": {"number": 64, "value": 127}, "group": "control_change"}, {"time": 991, "annotation": {"number": 64, "value": 0}, "group": "control_change"}, {"time": 995, "annotation": {"number": 64, "value": 127}, "group": "control_change"}, {"time": 1040, "annotation": {"number": 64, "value": 0}, "group": "control_change"}, {"time": 1043, "annotation": {"number": 64, "value": 127}, "group": "control_change"}, {"time": 1064, "annotation": {"number": 64, "value": 0}, "group": "control_change"}, {"time": 1067, "annotation": {"number": 64, "value": 127}, "group": "control_change"}, {"time": 1088, "annotation": {"number": 64, "value": 0}, "group": "control_change"}, {"time": 1091, "annotation": {"number": 64, "value": 127}, "group": "control_change"}, {"time": 1112, "annotation": {"number": 64, "value": 0}, "group": "control_change"}, {"time": 1115, "annotation": {"number": 64, "value": 127}, "group": "control_change"}, {"time": 1136, "annotation": {"number": 64, "value": 0}, "group": "control_change"}, {"time": 1139, "annotation": {"number": 64, "value": 127}, "group": "control_change"}, {"time": 1160, "annotation": {"number": 64, "value": 0}, "group": "control_change"}, {"time": 1163, "annotation": {"number": 64, "value": 127}, "group": "control_change"}, {"time": 1184, "annotation": {"number": 64, "value": 0}, "group": "control_change"}, {"time": 1187, "annotation": {"number": 64, "value": 127}, "group": "control_change"}, {"time": 1207, "annotation": {"number": 64, "value": 0}, "group": "control_change"}, {"time": 1210, "annotation": {"number": 64, "value": 127}, "group": "control_change"}, {"time": 1232, "annotation": {"number": 64, "value": 0}, "group": "control_change"}, {"time": 1235, "annotation": {"number": 64, "value": 127}, "group": "control_change"}, {"time": 1256, "annotation": {"number": 64, "value": 0}, "group": "control_change"}, {"time": 1258, "annotation": {"number": 64, "value": 127}, "group": "control_change"}, {"time": 1280, "annotation": {"number": 64, "value": 0}, "group": "control_change"}, {"time": 1282, "annotation": {"number": 64, "value": 127}, "group": "control_change"}, {"time": 1303, "annotation": {"number": 64, "value": 0}, "group": "control_change"}, {"time": 1306, "annotation": {"number": 64, "value": 127}, "group": "control_change"}, {"time": 1328, "annotation": {"number": 64, "value": 0}, "group": "control_change"}, {"time": 1331, "annotation": {"number": 64, "value": 127}, "group": "control_change"}, {"time": 1351, "annotation": {"number": 64, "value": 0}, "group": "control_change"}, {"time": 1354, "annotation": {"number": 64, "value": 127}, "group": "control_change"}, {"time": 1376, "annotation": {"number": 64, "value": 0}, "group": "control_change"}, {"time": 1379, "annotation": {"number": 64, "value": 127}, "group": "control_change"}, {"time": 1400, "annotation": {"number": 64, "value": 0}, "group": "control_change"}, {"time": 1403, "annotation": {"number": 64, "value": 127}, "group": "control_change"}, {"time": 1424, "annotation": {"number": 64, "value": 0}, "group": "control_change"}, {"time": 1427, "annotation": {"number": 64, "value": 127}, "group": "control_change"}, {"time": 1448, "annotation": {"number": 64, "value": 0}, "group": "control_change"}, {"time": 1451, "annotation": {"number": 64, "value": 127}, "group": "control_change"}, {"time": 1472, "annotation": {"number": 64, "value": 0}, "group": "control_change"}, {"time": 1475, "annotation": {"number": 64, "value": 127}, "group": "control_change"}, {"time": 1497, "annotation": {"number": 64, "value": 0}, "group": "control_change"}, {"time": 1499, "annotation": {"number": 64, "value": 127}, "group": "control_change"}, {"time": 1520, "annotation": {"number": 64, "value": 0}, "group": "control_change"}, {"time": 1523, "annotation": {"number": 64, "value": 127}, "group": "control_change"}, {"time": 1544, "annotation": {"number": 64, "value": 0}, "group": "control_change"}, {"time": 1546, "annotation": {"number": 64, "value": 127}, "group": "control_change"}, {"time": 1568, "annotation": {"number": 64, "value": 0}, "group": "control_change"}, {"time": 1571, "annotation": {"number": 64, "value": 127}, "group": "control_change"}, {"time": 1592, "annotation": {"number": 64, "value": 0}, "group": "control_change"}, {"time": 1594, "annotation": {"number": 64, "value": 127}, "group": "control_change"}, {"time": 1616, "annotation": {"number": 64, "value": 0}, "group": "control_change"}, {"time": 1619, "annotation": {"number": 64, "value": 127}, "group": "control_change"}, {"time": 1639, "annotation": {"number": 64, "value": 0}, "group": "control_change"}, {"time": 1642, "annotation": {"number": 64, "value": 127}, "group": "control_change"}, {"time": 1663, "annotation": {"number": 64, "value": 0}, "group": "control_change"}, {"time": 1666, "annotation": {"number": 64, "value": 127}, "group": "control_change"}, {"time": 1688, "annotation": {"number": 64, "value": 0}, "group": "control_change"}, {"time": 1691, "annotation": {"number": 64, "value": 127}, "group": "control_change"}, {"time": 1712, "annotation": {"number": 64, "value": 0}, "group": "control_change"}, {"time": 1715, "annotation": {"number": 64, "value": 127}, "group": "control_change"}, {"time": 1735, "annotation": {"number": 64, "value": 0}, "group": "control_change"}, {"time": 1738, "annotation": {"number": 64, "value": 127}, "group": "control_change"}, {"time": 1760, "annotation": {"number": 64, "value": 0}, "group": "control_change"}, {"time": 1763, "annotation": {"number": 64, "value": 127}, "group": "control_change"}, {"time": 1784, "annotation": {"number": 64, "value": 0}, "group": "control_change"}, {"time": 1787, "annotation": {"number": 64, "value": 127}, "group": "control_change"}, {"time": 1808, "annotation": {"number": 64, "value": 0}, "group": "control_change"}, {"time": 1811, "annotation": {"number": 64, "value": 127}, "group": "control_change"}, {"time": 1832, "annotation": {"number": 64, "value": 0}, "group": "control_change"}, {"time": 1834, "annotation": {"number": 64, "value": 127}, "group": "control_change"}, {"time": 1857, "annotation": {"number": 64, "value": 0}, "group": "control_change"}, {"time": 1859, "annotation": {"number": 64, "value": 127}, "group": "control_change"}, {"time": 1880, "annotation": {"number": 64, "value": 0}, "group": "control_change"}, {"time": 1883, "annotation": {"number": 64, "value": 127}, "group": "control_change"}, {"time": 1903, "annotation": {"number": 64, "value": 0}, "group": "control_change"}, {"time": 1907, "annotation": {"number": 64, "value": 127}, "group": "control_change"}, {"time": 1928, "annotation": {"number": 64, "value": 0}, "group": "control_change"}, {"time": 1955, "annotation": {"number": 64, "value": 127}, "group": "control_change"}, {"time": 1976, "annotation": {"number": 64, "value": 0}, "group": "control_change"}, {"time": 1979, "annotation": {"number": 64, "value": 127}, "group": "control_change"}, {"time": 2001, "annotation": {"number": 64, "value": 0}, "group": "control_change"}, {"time": 2003, "annotation": {"number": 64, "value": 127}, "group": "control_change"}, {"time": 2047, "annotation": {"number": 64, "value": 0}, "group": "control_change"}, {"time": 2051, "annotation": {"number": 64, "value": 127}, "group": "control_change"}, {"time": 2072, "annotation": {"number": 64, "value": 0}, "group": "control_change"}, {"time": 2075, "annotation": {"number": 64, "value": 127}, "group": "control_change"}, {"time": 2096, "annotation": {"number": 64, "value": 0}, "group": "control_change"}, {"time": 2099, "annotation": {"number": 64, "value": 127}, "group": "control_change"}, {"time": 2132, "annotation": {"number": 64, "value": 0}, "group": "control_change"}, {"time": 2147, "annotation": {"number": 64, "value": 127}, "group": "control_change"}, {"time": 2168, "annotation": {"number": 64, "value": 0}, "group": "control_change"}, {"time": 2171, "annotation": {"number": 64, "value": 127}, "group": "control_change"}, {"time": 2193, "annotation": {"number": 64, "value": 0}, "group": "control_change"}, {"time": 2195, "annotation": {"number": 64, "value": 127}, "group": "control_change"}, {"time": 2216, "annotation": {"number": 64, "value": 0}, "group": "control_change"}, {"time": 2219, "annotation": {"number": 64, "value": 127}, "group": "control_change"}, {"time": 2240, "annotation": {"number": 64, "value": 0}, "group": "control_change"}, {"time": 2243, "annotation": {"number": 64, "value": 127}, "group": "control_change"}, {"time": 2264, "annotation": {"number": 64, "value": 0}, "group": "control_change"}, {"time": 2267, "annotation": {"number": 64, "value": 127}, "group": "control_change"}, {"time": 2287, "annotation": {"number": 64, "value": 0}, "group": "control_change"}, {"time": 2291, "annotation": {"number": 64, "value": 127}, "group": "control_change"}, {"time": 2312, "annotation": {"number": 64, "value": 0}, "group": "control_change"}, {"time": 2339, "annotation": {"number": 64, "value": 127}, "group": "control_change"}, {"time": 2384, "annotation": {"number": 64, "value": 0}, "group": "control_change"}, {"time": 2387, "annotation": {"number": 64, "value": 127}, "group": "control_change"}, {"time": 2432, "annotation": {"number": 64, "value": 0}, "group": "control_change"}, {"time": 2435, "annotation": {"number": 64, "value": 127}, "group": "control_change"}, {"time": 2480, "annotation": {"number": 64, "value": 0}, "group": "control_change"}, {"time": 2483, "annotation": {"number": 64, "value": 127}, "group": "control_change"}, {"time": 2527, "annotation": {"number": 64, "value": 0}, "group": "control_change"}, {"time": 2531, "annotation": {"number": 64, "value": 127}, "group": "control_change"}, {"time": 2576, "annotation": {"number": 64, "value": 0}, "group": "control_change"}, {"time": 2579, "annotation": {"number": 64, "value": 127}, "group": "control_change"}, {"time": 2600, "annotation": {"number": 64, "value": 0}, "group": "control_change"}, {"time": 2603, "annotation": {"number": 64, "value": 127}, "group": "control_change"}, {"time": 2624, "annotation": {"number": 64, "value": 0}, "group": "control_change"}, {"time": 2627, "annotation": {"number": 64, "value": 127}, "group": "control_change"}, {"time": 2648, "annotation": {"number": 64, "value": 0}, "group": "control_change"}, {"time": 2651, "annotation": {"number": 64, "value": 127}, "group": "control_change"}, {"time": 2672, "annotation": {"number": 64, "value": 0}, "group": "control_change"}, {"time": 2675, "annotation": {"number": 64, "value": 127}, "group": "control_change"}, {"time": 2696, "annotation": {"number": 64, "value": 0}, "group": "control_change"}, {"time": 2699, "annotation": {"number": 64, "value": 127}, "group": "control_change"}, {"time": 2720, "annotation": {"number": 64, "value": 0}, "group": "control_change"}, {"time": 2723, "annotation": {"number": 64, "value": 127}, "group": "control_change"}, {"time": 2743, "annotation": {"number": 64, "value": 0}, "group": "control_change"}, {"time": 2746, "annotation": {"number": 64, "value": 127}, "group": "control_change"}, {"time": 2768, "annotation": {"number": 64, "value": 0}, "group": "control_change"}, {"time": 2771, "annotation": {"number": 64, "value": 127}, "group": "control_change"}, {"time": 2792, "annotation": {"number": 64, "value": 0}, "group": "control_change"}, {"time": 2794, "annotation": {"number": 64, "value": 127}, "group": "control_change"}, {"time": 2816, "annotation": {"number": 64, "value": 0}, "group": "control_change"}, {"time": 2818, "annotation": {"number": 64, "value": 127}, "group": "control_change"}, {"time": 2839, "annotation": {"number": 64, "value": 0}, "group": "control_change"}, {"time": 2842, "annotation": {"number": 64, "value": 127}, "group": "control_change"}, {"time": 2864, "annotation": {"number": 64, "value": 0}, "group": "control_change"}, {"time": 2867, "annotation": {"number": 64, "value": 127}, "group": "control_change"}, {"time": 2887, "annotation": {"number": 64, "value": 0}, "group": "control_change"}, {"time": 2890, "annotation": {"number": 64, "value": 127}, "group": "control_change"}, {"time": 2912, "annotation": {"number": 64, "value": 0}, "group": "control_change"}, {"time": 2915, "annotation": {"number": 64, "value": 127}, "group": "control_change"}, {"time": 2936, "annotation": {"number": 64, "value": 0}, "group": "control_change"}, {"time": 2939, "annotation": {"number": 64, "value": 127}, "group": "control_change"}, {"time": 2960, "annotation": {"number": 64, "value": 0}, "group": "control_change"}, {"time": 2963, "annotation": {"number": 64, "value": 127}, "group": "control_change"}, {"time": 2984, "annotation": {"number": 64, "value": 0}, "group": "control_change"}, {"time": 2987, "annotation": {"number": 64, "value": 127}, "group": "control_change"}, {"time": 3008, "annotation": {"number": 64, "value": 0}, "group": "control_change"}, {"time": 3011, "annotation": {"number": 64, "value": 127}, "group": "control_change"}, {"time": 3033, "annotation": {"number": 64, "value": 0}, "group": "control_change"}, {"time": 3035, "annotation": {"number": 64, "value": 127}, "group": "control_change"}, {"time": 3056, "annotation": {"number": 64, "value": 0}, "group": "control_change"}, {"time": 3059, "annotation": {"number": 64, "value": 127}, "group": "control_change"}, {"time": 3080, "annotation": {"number": 64, "value": 0}, "group": "control_change"}, {"time": 3082, "annotation": {"number": 64, "value": 127}, "group": "control_change"}, {"time": 3104, "annotation": {"number": 64, "value": 0}, "group": "control_change"}, {"time": 3107, "annotation": {"number": 64, "value": 127}, "group": "control_change"}, {"time": 3128, "annotation": {"number": 64, "value": 0}, "group": "control_change"}, {"time": 3130, "annotation": {"number": 64, "value": 127}, "group": "control_change"}, {"time": 3152, "annotation": {"number": 64, "value": 0}, "group": "control_change"}, {"time": 3155, "annotation": {"number": 64, "value": 127}, "group": "control_change"}, {"time": 3175, "annotation": {"number": 64, "value": 0}, "group": "control_change"}, {"time": 3178, "annotation": {"number": 64, "value": 127}, "group": "control_change"}, {"time": 3199, "annotation": {"number": 64, "value": 0}, "group": "control_change"}, {"time": 3202, "annotation": {"number": 64, "value": 127}, "group": "control_change"}, {"time": 3224, "annotation": {"number": 64, "value": 0}, "group": "control_change"}, {"time": 3227, "annotation": {"number": 64, "value": 127}, "group": "control_change"}, {"time": 3248, "annotation": {"number": 64, "value": 0}, "group": "control_change"}, {"time": 3251, "annotation": {"number": 64, "value": 127}, "group": "control_change"}, {"time": 3271, "annotation": {"number": 64, "value": 0}, "group": "control_change"}, {"time": 3274, "annotation": {"number": 64, "value": 127}, "group": "control_change"}, {"time": 3296, "annotation": {"number": 64, "value": 0}, "group": "control_change"}, {"time": 3299, "annotation": {"number": 64, "value": 127}, "group": "control_change"}, {"time": 3320, "annotation": {"number": 64, "value": 0}, "group": "control_change"}, {"time": 3323, "annotation": {"number": 64, "value": 127}, "group": "control_change"}, {"time": 3344, "annotation": {"number": 64, "value": 0}, "group": "control_change"}, {"time": 3347, "annotation": {"number": 64, "value": 127}, "group": "control_change"}, {"time": 3368, "annotation": {"number": 64, "value": 0}, "group": "control_change"}, {"time": 3370, "annotation": {"number": 64, "value": 127}, "group": "control_change"}, {"time": 3393, "annotation": {"number": 64, "value": 0}, "group": "control_change"}, {"time": 3395, "annotation": {"number": 64, "value": 127}, "group": "control_change"}, {"time": 3416, "annotation": {"number": 64, "value": 0}, "group": "control_change"}, {"time": 3419, "annotation": {"number": 64, "value": 127}, "group": "control_change"}, {"time": 3463, "annotation": {"number": 64, "value": 0}, "group": "control_change"}, {"time": 3467, "annotation": {"number": 64, "value": 127}, "group": "control_change"}, {"time": 3487, "annotation": {"number": 64, "value": 0}, "group": "control_change"}, {"time": 3491, "annotation": {"number": 64, "value": 127}, "group": "control_change"}, {"time": 3512, "annotation": {"number": 64, "value": 0}, "group": "control_change"}, {"time": 3515, "annotation": {"number": 64, "value": 127}, "group": "control_change"}, {"time": 3535, "annotation": {"number": 64, "value": 0}, "group": "control_change"}, {"time": 3539, "annotation": {"number": 64, "value": 127}, "group": "control_change"}, {"time": 3560, "annotation": {"number": 64, "value": 0}, "group": "control_change"}, {"time": 3563, "annotation": {"number": 64, "value": 127}, "group": "control_change"}, {"time": 3584, "annotation": {"number": 64, "value": 0}, "group": "control_change"}, {"time": 3587, "annotation": {"number": 64, "value": 127}, "group": "control_change"}, {"time": 3608, "annotation": {"number": 64, "value": 0}, "group": "control_change"}, {"time": 3611, "annotation": {"number": 64, "value": 127}, "group": "control_change"}, {"time": 3632, "annotation": {"number": 64, "value": 0}, "group": "control_change"}, {"time": 3634, "annotation": {"number": 64, "value": 127}, "group": "control_change"}, {"time": 3656, "annotation": {"number": 64, "value": 0}, "group": "control_change"}, {"time": 3658, "annotation": {"number": 64, "value": 127}, "group": "control_change"}, {"time": 3681, "annotation": {"number": 64, "value": 0}, "group": "control_change"}, {"time": 3683, "annotation": {"number": 64, "value": 127}, "group": "control_change"}, {"time": 3704, "annotation": {"number": 64, "value": 0}, "group": "control_change"}, {"time": 3706, "annotation": {"number": 64, "value": 127}, "group": "control_change"}, {"time": 3728, "annotation": {"number": 64, "value": 0}, "group": "control_change"}, {"time": 3731, "annotation": {"number": 64, "value": 127}, "group": "control_change"}, {"time": 3752, "annotation": {"number": 64, "value": 0}, "group": "control_change"}, {"time": 3755, "annotation": {"number": 64, "value": 127}, "group": "control_change"}, {"time": 3775, "annotation": {"number": 64, "value": 0}, "group": "control_change"}, {"time": 3779, "annotation": {"number": 64, "value": 127}, "group": "control_change"}, {"time": 3800, "annotation": {"number": 64, "value": 0}, "group": "control_change"}, {"time": 3802, "annotation": {"number": 64, "value": 127}, "group": "control_change"}, {"time": 3824, "annotation": {"number": 64, "value": 0}, "group": "control_change"}, {"time": 3838, "annotation": {"number": 64, "value": 127}, "group": "control_change"}, {"time": 3921, "annotation": {"number": 64, "value": 0}, "group": "control_change"}, {"time": 3922, "annotation": {"number": 64, "value": 127}, "group": "control_change"}, {"time": 3924, "annotation": {"number": 64, "value": 0}, "group": "control_change"}, {"time": 3925, "annotation": {"number": 64, "value": 127}, "group": "control_change"}, {"time": 3929, "annotation": {"number": 64, "value": 0}, "group": "control_change"}]}]}