{"metadata": {"schema_version": "0.2", "title": "None", "source_filename": "752.mid", "source_format": "midi"}, "resolution": 12, "tempos": [{"time": 0, "qpm": 94.00012846684224}], "time_signatures": [{"time": 0, "numerator": 1, "denominator": 4}], "tracks": [{"program": 0, "is_drum": false, "name": "MELODY", "notes": [{"time": 591, "pitch": 71, "duration": 5, "velocity": 107}, {"time": 621, "pitch": 67, "duration": 6, "velocity": 89}, {"time": 627, "pitch": 69, "duration": 4, "velocity": 90}, {"time": 633, "pitch": 71, "duration": 1, "velocity": 122}, {"time": 639, "pitch": 69, "duration": 1, "velocity": 97}, {"time": 645, "pitch": 69, "duration": 1, "velocity": 96}, {"time": 651, "pitch": 71, "duration": 7, "velocity": 112}, {"time": 657, "pitch": 69, "duration": 18, "velocity": 96}, {"time": 687, "pitch": 67, "duration": 22, "velocity": 95}, {"time": 717, "pitch": 67, "duration": 4, "velocity": 92}, {"time": 723, "pitch": 69, "duration": 2, "velocity": 100}, {"time": 729, "pitch": 71, "duration": 6, "velocity": 102}, {"time": 735, "pitch": 69, "duration": 1, "velocity": 95}, {"time": 741, "pitch": 69, "duration": 3, "velocity": 95}, {"time": 747, "pitch": 71, "duration": 4, "velocity": 102}, {"time": 753, "pitch": 69, "duration": 11, "velocity": 88}, {"time": 783, "pitch": 64, "duration": 9, "velocity": 96}, {"time": 795, "pitch": 66, "duration": 4, "velocity": 93}, {"time": 801, "pitch": 67, "duration": 9, "velocity": 85}, {"time": 813, "pitch": 69, "duration": 11, "velocity": 96}, {"time": 831, "pitch": 62, "duration": 10, "velocity": 90}, {"time": 843, "pitch": 66, "duration": 4, "velocity": 88}, {"time": 849, "pitch": 67, "duration": 6, "velocity": 85}, {"time": 861, "pitch": 67, "duration": 2, "velocity": 78}, {"time": 867, "pitch": 69, "duration": 4, "velocity": 96}, {"time": 873, "pitch": 71, "duration": 3, "velocity": 81}, {"time": 879, "pitch": 72, "duration": 7, "velocity": 112}, {"time": 891, "pitch": 71, "duration": 7, "velocity": 102}, {"time": 903, "pitch": 69, "duration": 4, "velocity": 112}, {"time": 909, "pitch": 67, "duration": 5, "velocity": 96}, {"time": 921, "pitch": 71, "duration": 6, "velocity": 97}, {"time": 933, "pitch": 69, "duration": 6, "velocity": 102}, {"time": 945, "pitch": 67, "duration": 7, "velocity": 97}, {"time": 957, "pitch": 69, "duration": 10, "velocity": 102}, {"time": 975, "pitch": 71, "duration": 5, "velocity": 107}, {"time": 1005, "pitch": 67, "duration": 6, "velocity": 89}, {"time": 1011, "pitch": 69, "duration": 4, "velocity": 90}, {"time": 1017, "pitch": 71, "duration": 1, "velocity": 122}, {"time": 1023, "pitch": 69, "duration": 1, "velocity": 97}, {"time": 1029, "pitch": 69, "duration": 1, "velocity": 96}, {"time": 1035, "pitch": 71, "duration": 7, "velocity": 112}, {"time": 1041, "pitch": 69, "duration": 18, "velocity": 96}, {"time": 1071, "pitch": 67, "duration": 22, "velocity": 95}, {"time": 1101, "pitch": 67, "duration": 4, "velocity": 92}, {"time": 1107, "pitch": 69, "duration": 2, "velocity": 100}, {"time": 1113, "pitch": 71, "duration": 6, "velocity": 102}, {"time": 1119, "pitch": 69, "duration": 1, "velocity": 95}, {"time": 1125, "pitch": 69, "duration": 3, "velocity": 95}, {"time": 1131, "pitch": 71, "duration": 4, "velocity": 102}, {"time": 1137, "pitch": 69, "duration": 11, "velocity": 88}, {"time": 1167, "pitch": 64, "duration": 9, "velocity": 96}, {"time": 1179, "pitch": 66, "duration": 4, "velocity": 93}, {"time": 1185, "pitch": 67, "duration": 9, "velocity": 85}, {"time": 1197, "pitch": 69, "duration": 11, "velocity": 96}, {"time": 1215, "pitch": 62, "duration": 10, "velocity": 90}, {"time": 1227, "pitch": 67, "duration": 4, "velocity": 88}, {"time": 1233, "pitch": 67, "duration": 6, "velocity": 85}, {"time": 1245, "pitch": 67, "duration": 2, "velocity": 78}, {"time": 1251, "pitch": 69, "duration": 4, "velocity": 96}, {"time": 1257, "pitch": 71, "duration": 3, "velocity": 81}, {"time": 1263, "pitch": 72, "duration": 7, "velocity": 112}, {"time": 1275, "pitch": 71, "duration": 7, "velocity": 102}, {"time": 1287, "pitch": 69, "duration": 4, "velocity": 112}, {"time": 1293, "pitch": 67, "duration": 5, "velocity": 96}, {"time": 1305, "pitch": 71, "duration": 6, "velocity": 97}, {"time": 1317, "pitch": 69, "duration": 6, "velocity": 102}, {"time": 1329, "pitch": 67, "duration": 7, "velocity": 97}, {"time": 1341, "pitch": 69, "duration": 10, "velocity": 102}, {"time": 1359, "pitch": 67, "duration": 8, "velocity": 100}, {"time": 1371, "pitch": 69, "duration": 6, "velocity": 117}, {"time": 1383, "pitch": 71, "duration": 8, "velocity": 102}, {"time": 1395, "pitch": 72, "duration": 5, "velocity": 122}, {"time": 1407, "pitch": 74, "duration": 6, "velocity": 122}, {"time": 1419, "pitch": 76, "duration": 6, "velocity": 122}, {"time": 1425, "pitch": 74, "duration": 5, "velocity": 112}, {"time": 1437, "pitch": 76, "duration": 9, "velocity": 102}, {"time": 1449, "pitch": 78, "duration": 3, "velocity": 112}, {"time": 1455, "pitch": 79, "duration": 5, "velocity": 112}, {"time": 1467, "pitch": 79, "duration": 7, "velocity": 117}, {"time": 1479, "pitch": 79, "duration": 7, "velocity": 112}, {"time": 1491, "pitch": 79, "duration": 7, "velocity": 112}, {"time": 1503, "pitch": 78, "duration": 7, "velocity": 127}, {"time": 1512, "pitch": 76, "duration": 4, "velocity": 127}, {"time": 1521, "pitch": 74, "duration": 8, "velocity": 112}, {"time": 1533, "pitch": 74, "duration": 3, "velocity": 122}, {"time": 1539, "pitch": 74, "duration": 2, "velocity": 100}, {"time": 1545, "pitch": 74, "duration": 3, "velocity": 99}, {"time": 1551, "pitch": 76, "duration": 4, "velocity": 117}, {"time": 1557, "pitch": 67, "duration": 3, "velocity": 99}, {"time": 1563, "pitch": 67, "duration": 2, "velocity": 95}, {"time": 1569, "pitch": 67, "duration": 6, "velocity": 96}, {"time": 1581, "pitch": 76, "duration": 2, "velocity": 127}, {"time": 1587, "pitch": 76, "duration": 2, "velocity": 102}, {"time": 1593, "pitch": 76, "duration": 2, "velocity": 122}, {"time": 1599, "pitch": 74, "duration": 4, "velocity": 102}, {"time": 1605, "pitch": 67, "duration": 3, "velocity": 95}, {"time": 1611, "pitch": 67, "duration": 2, "velocity": 97}, {"time": 1617, "pitch": 67, "duration": 6, "velocity": 100}, {"time": 1629, "pitch": 67, "duration": 4, "velocity": 96}, {"time": 1635, "pitch": 69, "duration": 4, "velocity": 100}, {"time": 1641, "pitch": 71, "duration": 3, "velocity": 102}, {"time": 1647, "pitch": 72, "duration": 8, "velocity": 117}, {"time": 1659, "pitch": 71, "duration": 8, "velocity": 122}, {"time": 1671, "pitch": 69, "duration": 6, "velocity": 112}, {"time": 1683, "pitch": 67, "duration": 5, "velocity": 122}, {"time": 1689, "pitch": 71, "duration": 4, "velocity": 122}, {"time": 1701, "pitch": 69, "duration": 7, "velocity": 122}, {"time": 1713, "pitch": 67, "duration": 7, "velocity": 102}, {"time": 1725, "pitch": 69, "duration": 16, "velocity": 127}, {"time": 1743, "pitch": 67, "duration": 7, "velocity": 107}, {"time": 1755, "pitch": 69, "duration": 7, "velocity": 117}, {"time": 1767, "pitch": 71, "duration": 7, "velocity": 112}, {"time": 1779, "pitch": 72, "duration": 8, "velocity": 127}, {"time": 1791, "pitch": 74, "duration": 7, "velocity": 127}, {"time": 1803, "pitch": 76, "duration": 3, "velocity": 122}, {"time": 1809, "pitch": 74, "duration": 4, "velocity": 107}, {"time": 1821, "pitch": 76, "duration": 8, "velocity": 99}, {"time": 1833, "pitch": 78, "duration": 4, "velocity": 107}, {"time": 1839, "pitch": 79, "duration": 7, "velocity": 102}, {"time": 1851, "pitch": 79, "duration": 6, "velocity": 107}, {"time": 1863, "pitch": 79, "duration": 6, "velocity": 112}, {"time": 1875, "pitch": 79, "duration": 4, "velocity": 107}, {"time": 1887, "pitch": 78, "duration": 5, "velocity": 127}, {"time": 1893, "pitch": 76, "duration": 8, "velocity": 102}, {"time": 1905, "pitch": 74, "duration": 7, "velocity": 95}, {"time": 1917, "pitch": 74, "duration": 4, "velocity": 100}, {"time": 1923, "pitch": 74, "duration": 3, "velocity": 95}, {"time": 1929, "pitch": 74, "duration": 3, "velocity": 102}, {"time": 1935, "pitch": 76, "duration": 4, "velocity": 107}, {"time": 1941, "pitch": 67, "duration": 4, "velocity": 92}, {"time": 1947, "pitch": 67, "duration": 2, "velocity": 93}, {"time": 1953, "pitch": 67, "duration": 3, "velocity": 102}, {"time": 1965, "pitch": 76, "duration": 3, "velocity": 107}, {"time": 1971, "pitch": 76, "duration": 2, "velocity": 102}, {"time": 1977, "pitch": 76, "duration": 3, "velocity": 100}, {"time": 1983, "pitch": 74, "duration": 3, "velocity": 96}, {"time": 1989, "pitch": 67, "duration": 3, "velocity": 89}, {"time": 1995, "pitch": 67, "duration": 2, "velocity": 93}, {"time": 2001, "pitch": 67, "duration": 4, "velocity": 102}, {"time": 2013, "pitch": 67, "duration": 3, "velocity": 100}, {"time": 2019, "pitch": 69, "duration": 3, "velocity": 97}, {"time": 2025, "pitch": 71, "duration": 2, "velocity": 96}, {"time": 2031, "pitch": 72, "duration": 6, "velocity": 117}, {"time": 2043, "pitch": 71, "duration": 6, "velocity": 122}, {"time": 2055, "pitch": 69, "duration": 3, "velocity": 112}, {"time": 2061, "pitch": 67, "duration": 5, "velocity": 107}, {"time": 2073, "pitch": 71, "duration": 6, "velocity": 107}, {"time": 2085, "pitch": 69, "duration": 4, "velocity": 127}, {"time": 2103, "pitch": 67, "duration": 4, "velocity": 102}, {"time": 2109, "pitch": 69, "duration": 7, "velocity": 117}, {"time": 2121, "pitch": 67, "duration": 24, "velocity": 107}, {"time": 2607, "pitch": 71, "duration": 5, "velocity": 107}, {"time": 2637, "pitch": 67, "duration": 6, "velocity": 89}, {"time": 2643, "pitch": 69, "duration": 4, "velocity": 90}, {"time": 2649, "pitch": 71, "duration": 1, "velocity": 122}, {"time": 2655, "pitch": 69, "duration": 1, "velocity": 97}, {"time": 2661, "pitch": 69, "duration": 1, "velocity": 96}, {"time": 2667, "pitch": 71, "duration": 7, "velocity": 112}, {"time": 2673, "pitch": 69, "duration": 18, "velocity": 96}, {"time": 2703, "pitch": 67, "duration": 22, "velocity": 95}, {"time": 2733, "pitch": 67, "duration": 4, "velocity": 92}, {"time": 2739, "pitch": 69, "duration": 2, "velocity": 100}, {"time": 2745, "pitch": 71, "duration": 6, "velocity": 102}, {"time": 2751, "pitch": 69, "duration": 1, "velocity": 95}, {"time": 2757, "pitch": 69, "duration": 3, "velocity": 95}, {"time": 2763, "pitch": 71, "duration": 4, "velocity": 102}, {"time": 2769, "pitch": 69, "duration": 11, "velocity": 88}, {"time": 2799, "pitch": 64, "duration": 9, "velocity": 96}, {"time": 2811, "pitch": 66, "duration": 4, "velocity": 93}, {"time": 2817, "pitch": 67, "duration": 9, "velocity": 85}, {"time": 2829, "pitch": 69, "duration": 11, "velocity": 96}, {"time": 2847, "pitch": 62, "duration": 10, "velocity": 90}, {"time": 2859, "pitch": 67, "duration": 4, "velocity": 88}, {"time": 2865, "pitch": 67, "duration": 6, "velocity": 85}, {"time": 2877, "pitch": 67, "duration": 2, "velocity": 78}, {"time": 2883, "pitch": 69, "duration": 4, "velocity": 96}, {"time": 2889, "pitch": 71, "duration": 3, "velocity": 81}, {"time": 2895, "pitch": 72, "duration": 7, "velocity": 112}, {"time": 2907, "pitch": 71, "duration": 7, "velocity": 102}, {"time": 2919, "pitch": 69, "duration": 4, "velocity": 112}, {"time": 2925, "pitch": 67, "duration": 5, "velocity": 96}, {"time": 2937, "pitch": 71, "duration": 6, "velocity": 97}, {"time": 2949, "pitch": 69, "duration": 6, "velocity": 102}, {"time": 2961, "pitch": 67, "duration": 7, "velocity": 97}, {"time": 2973, "pitch": 69, "duration": 10, "velocity": 102}, {"time": 2991, "pitch": 67, "duration": 8, "velocity": 100}, {"time": 3003, "pitch": 69, "duration": 6, "velocity": 117}, {"time": 3015, "pitch": 71, "duration": 8, "velocity": 102}, {"time": 3027, "pitch": 72, "duration": 5, "velocity": 122}, {"time": 3039, "pitch": 74, "duration": 6, "velocity": 122}, {"time": 3051, "pitch": 76, "duration": 6, "velocity": 122}, {"time": 3057, "pitch": 74, "duration": 5, "velocity": 112}, {"time": 3069, "pitch": 76, "duration": 9, "velocity": 102}, {"time": 3081, "pitch": 78, "duration": 3, "velocity": 112}, {"time": 3087, "pitch": 79, "duration": 5, "velocity": 112}, {"time": 3099, "pitch": 79, "duration": 7, "velocity": 117}, {"time": 3111, "pitch": 79, "duration": 7, "velocity": 112}, {"time": 3123, "pitch": 79, "duration": 7, "velocity": 112}, {"time": 3135, "pitch": 78, "duration": 7, "velocity": 127}, {"time": 3144, "pitch": 76, "duration": 4, "velocity": 127}, {"time": 3153, "pitch": 74, "duration": 8, "velocity": 112}, {"time": 3165, "pitch": 74, "duration": 3, "velocity": 122}, {"time": 3171, "pitch": 74, "duration": 2, "velocity": 100}, {"time": 3177, "pitch": 74, "duration": 3, "velocity": 99}, {"time": 3183, "pitch": 76, "duration": 4, "velocity": 117}, {"time": 3189, "pitch": 67, "duration": 3, "velocity": 99}, {"time": 3195, "pitch": 67, "duration": 2, "velocity": 95}, {"time": 3201, "pitch": 67, "duration": 6, "velocity": 96}, {"time": 3213, "pitch": 76, "duration": 2, "velocity": 127}, {"time": 3219, "pitch": 76, "duration": 2, "velocity": 102}, {"time": 3225, "pitch": 76, "duration": 2, "velocity": 122}, {"time": 3231, "pitch": 74, "duration": 4, "velocity": 102}, {"time": 3237, "pitch": 67, "duration": 3, "velocity": 95}, {"time": 3243, "pitch": 67, "duration": 2, "velocity": 97}, {"time": 3249, "pitch": 67, "duration": 6, "velocity": 100}, {"time": 3261, "pitch": 67, "duration": 4, "velocity": 96}, {"time": 3267, "pitch": 69, "duration": 4, "velocity": 100}, {"time": 3273, "pitch": 71, "duration": 3, "velocity": 102}, {"time": 3279, "pitch": 72, "duration": 8, "velocity": 117}, {"time": 3291, "pitch": 71, "duration": 8, "velocity": 122}, {"time": 3303, "pitch": 69, "duration": 6, "velocity": 112}, {"time": 3315, "pitch": 67, "duration": 5, "velocity": 122}, {"time": 3321, "pitch": 71, "duration": 4, "velocity": 122}, {"time": 3333, "pitch": 69, "duration": 7, "velocity": 122}, {"time": 3345, "pitch": 67, "duration": 7, "velocity": 102}, {"time": 3357, "pitch": 69, "duration": 16, "velocity": 127}, {"time": 3375, "pitch": 67, "duration": 7, "velocity": 107}, {"time": 3387, "pitch": 69, "duration": 7, "velocity": 117}, {"time": 3399, "pitch": 71, "duration": 7, "velocity": 112}, {"time": 3411, "pitch": 72, "duration": 8, "velocity": 127}, {"time": 3423, "pitch": 74, "duration": 7, "velocity": 127}, {"time": 3435, "pitch": 76, "duration": 3, "velocity": 122}, {"time": 3441, "pitch": 74, "duration": 4, "velocity": 107}, {"time": 3453, "pitch": 76, "duration": 8, "velocity": 99}, {"time": 3465, "pitch": 78, "duration": 4, "velocity": 107}, {"time": 3471, "pitch": 79, "duration": 7, "velocity": 102}, {"time": 3483, "pitch": 79, "duration": 6, "velocity": 107}, {"time": 3495, "pitch": 79, "duration": 6, "velocity": 112}, {"time": 3507, "pitch": 79, "duration": 4, "velocity": 107}, {"time": 3519, "pitch": 78, "duration": 5, "velocity": 127}, {"time": 3525, "pitch": 76, "duration": 8, "velocity": 102}, {"time": 3537, "pitch": 74, "duration": 7, "velocity": 95}, {"time": 3549, "pitch": 74, "duration": 4, "velocity": 100}, {"time": 3555, "pitch": 74, "duration": 3, "velocity": 95}, {"time": 3561, "pitch": 74, "duration": 3, "velocity": 102}, {"time": 3567, "pitch": 76, "duration": 4, "velocity": 107}, {"time": 3573, "pitch": 67, "duration": 4, "velocity": 92}, {"time": 3579, "pitch": 67, "duration": 2, "velocity": 93}, {"time": 3585, "pitch": 67, "duration": 3, "velocity": 102}, {"time": 3597, "pitch": 76, "duration": 3, "velocity": 107}, {"time": 3603, "pitch": 76, "duration": 2, "velocity": 102}, {"time": 3609, "pitch": 76, "duration": 3, "velocity": 100}, {"time": 3615, "pitch": 74, "duration": 3, "velocity": 96}, {"time": 3621, "pitch": 67, "duration": 3, "velocity": 89}, {"time": 3627, "pitch": 67, "duration": 2, "velocity": 93}, {"time": 3633, "pitch": 67, "duration": 4, "velocity": 102}, {"time": 3645, "pitch": 67, "duration": 3, "velocity": 100}, {"time": 3651, "pitch": 69, "duration": 3, "velocity": 97}, {"time": 3657, "pitch": 71, "duration": 2, "velocity": 96}, {"time": 3663, "pitch": 72, "duration": 6, "velocity": 117}, {"time": 3675, "pitch": 71, "duration": 6, "velocity": 122}, {"time": 3687, "pitch": 69, "duration": 3, "velocity": 112}, {"time": 3693, "pitch": 67, "duration": 5, "velocity": 107}, {"time": 3705, "pitch": 71, "duration": 6, "velocity": 107}, {"time": 3717, "pitch": 69, "duration": 4, "velocity": 127}, {"time": 3735, "pitch": 67, "duration": 4, "velocity": 102}, {"time": 3741, "pitch": 69, "duration": 7, "velocity": 117}, {"time": 3753, "pitch": 67, "duration": 24, "velocity": 107}, {"time": 3807, "pitch": 79, "duration": 36, "velocity": 127}, {"time": 3855, "pitch": 67, "duration": 8, "velocity": 100}, {"time": 3867, "pitch": 69, "duration": 6, "velocity": 117}, {"time": 3879, "pitch": 71, "duration": 8, "velocity": 102}, {"time": 3891, "pitch": 72, "duration": 5, "velocity": 122}, {"time": 3903, "pitch": 74, "duration": 6, "velocity": 122}, {"time": 3915, "pitch": 76, "duration": 6, "velocity": 122}, {"time": 3921, "pitch": 74, "duration": 5, "velocity": 112}, {"time": 3933, "pitch": 76, "duration": 9, "velocity": 102}, {"time": 3945, "pitch": 78, "duration": 3, "velocity": 112}, {"time": 3951, "pitch": 79, "duration": 5, "velocity": 112}, {"time": 3963, "pitch": 79, "duration": 7, "velocity": 117}, {"time": 3975, "pitch": 79, "duration": 7, "velocity": 112}, {"time": 3987, "pitch": 79, "duration": 7, "velocity": 112}, {"time": 3999, "pitch": 78, "duration": 7, "velocity": 127}, {"time": 4008, "pitch": 76, "duration": 4, "velocity": 127}, {"time": 4017, "pitch": 74, "duration": 8, "velocity": 112}, {"time": 4029, "pitch": 74, "duration": 3, "velocity": 122}, {"time": 4035, "pitch": 74, "duration": 2, "velocity": 100}, {"time": 4041, "pitch": 74, "duration": 3, "velocity": 99}, {"time": 4047, "pitch": 76, "duration": 4, "velocity": 117}, {"time": 4053, "pitch": 67, "duration": 3, "velocity": 99}, {"time": 4059, "pitch": 67, "duration": 2, "velocity": 95}, {"time": 4065, "pitch": 67, "duration": 6, "velocity": 96}, {"time": 4077, "pitch": 76, "duration": 2, "velocity": 127}, {"time": 4083, "pitch": 76, "duration": 2, "velocity": 102}, {"time": 4089, "pitch": 76, "duration": 2, "velocity": 122}, {"time": 4095, "pitch": 74, "duration": 4, "velocity": 102}, {"time": 4101, "pitch": 67, "duration": 3, "velocity": 95}, {"time": 4107, "pitch": 67, "duration": 2, "velocity": 97}, {"time": 4113, "pitch": 67, "duration": 6, "velocity": 100}, {"time": 4125, "pitch": 67, "duration": 4, "velocity": 96}, {"time": 4131, "pitch": 69, "duration": 4, "velocity": 100}, {"time": 4137, "pitch": 71, "duration": 3, "velocity": 102}, {"time": 4143, "pitch": 72, "duration": 8, "velocity": 117}, {"time": 4155, "pitch": 71, "duration": 8, "velocity": 122}, {"time": 4167, "pitch": 69, "duration": 6, "velocity": 112}, {"time": 4179, "pitch": 67, "duration": 5, "velocity": 122}, {"time": 4185, "pitch": 71, "duration": 4, "velocity": 122}, {"time": 4197, "pitch": 69, "duration": 7, "velocity": 122}, {"time": 4209, "pitch": 67, "duration": 7, "velocity": 102}, {"time": 4221, "pitch": 69, "duration": 16, "velocity": 127}, {"time": 4239, "pitch": 67, "duration": 7, "velocity": 107}, {"time": 4251, "pitch": 69, "duration": 7, "velocity": 117}, {"time": 4263, "pitch": 71, "duration": 7, "velocity": 112}, {"time": 4275, "pitch": 72, "duration": 8, "velocity": 127}, {"time": 4287, "pitch": 74, "duration": 7, "velocity": 127}, {"time": 4299, "pitch": 76, "duration": 3, "velocity": 122}, {"time": 4305, "pitch": 74, "duration": 4, "velocity": 107}, {"time": 4317, "pitch": 76, "duration": 8, "velocity": 99}, {"time": 4329, "pitch": 78, "duration": 4, "velocity": 107}, {"time": 4335, "pitch": 79, "duration": 7, "velocity": 102}, {"time": 4347, "pitch": 79, "duration": 6, "velocity": 107}, {"time": 4359, "pitch": 79, "duration": 6, "velocity": 112}, {"time": 4371, "pitch": 79, "duration": 4, "velocity": 107}, {"time": 4383, "pitch": 78, "duration": 5, "velocity": 127}, {"time": 4389, "pitch": 76, "duration": 8, "velocity": 102}, {"time": 4401, "pitch": 74, "duration": 7, "velocity": 95}, {"time": 4413, "pitch": 74, "duration": 4, "velocity": 100}, {"time": 4419, "pitch": 74, "duration": 3, "velocity": 95}, {"time": 4425, "pitch": 74, "duration": 3, "velocity": 102}, {"time": 4431, "pitch": 76, "duration": 4, "velocity": 107}, {"time": 4437, "pitch": 67, "duration": 4, "velocity": 92}, {"time": 4443, "pitch": 67, "duration": 2, "velocity": 93}, {"time": 4449, "pitch": 67, "duration": 3, "velocity": 102}, {"time": 4461, "pitch": 76, "duration": 3, "velocity": 107}, {"time": 4467, "pitch": 76, "duration": 2, "velocity": 102}, {"time": 4473, "pitch": 76, "duration": 3, "velocity": 100}, {"time": 4479, "pitch": 74, "duration": 3, "velocity": 96}, {"time": 4485, "pitch": 67, "duration": 3, "velocity": 89}, {"time": 4491, "pitch": 67, "duration": 2, "velocity": 93}, {"time": 4497, "pitch": 67, "duration": 4, "velocity": 102}, {"time": 4509, "pitch": 67, "duration": 3, "velocity": 100}, {"time": 4515, "pitch": 69, "duration": 3, "velocity": 97}, {"time": 4521, "pitch": 71, "duration": 2, "velocity": 96}, {"time": 4527, "pitch": 72, "duration": 6, "velocity": 117}, {"time": 4539, "pitch": 71, "duration": 6, "velocity": 122}, {"time": 4551, "pitch": 69, "duration": 3, "velocity": 112}, {"time": 4557, "pitch": 67, "duration": 5, "velocity": 107}, {"time": 4569, "pitch": 71, "duration": 6, "velocity": 107}, {"time": 4581, "pitch": 69, "duration": 4, "velocity": 127}, {"time": 4599, "pitch": 67, "duration": 4, "velocity": 102}, {"time": 4605, "pitch": 69, "duration": 7, "velocity": 117}, {"time": 4617, "pitch": 67, "duration": 24, "velocity": 107}]}, {"program": 0, "is_drum": false, "name": "BRIDGE", "notes": [{"time": 15, "pitch": 83, "duration": 5, "velocity": 96}, {"time": 21, "pitch": 74, "duration": 6, "velocity": 68}, {"time": 27, "pitch": 83, "duration": 7, "velocity": 100}, {"time": 36, "pitch": 81, "duration": 7, "velocity": 99}, {"time": 51, "pitch": 81, "duration": 11, "velocity": 122}, {"time": 63, "pitch": 79, "duration": 9, "velocity": 93}, {"time": 111, "pitch": 83, "duration": 8, "velocity": 97}, {"time": 117, "pitch": 74, "duration": 5, "velocity": 82}, {"time": 123, "pitch": 83, "duration": 7, "velocity": 82}, {"time": 132, "pitch": 81, "duration": 8, "velocity": 85}, {"time": 147, "pitch": 81, "duration": 7, "velocity": 97}, {"time": 159, "pitch": 79, "duration": 4, "velocity": 93}, {"time": 165, "pitch": 83, "duration": 2, "velocity": 79}, {"time": 168, "pitch": 86, "duration": 3, "velocity": 71}, {"time": 174, "pitch": 79, "duration": 8, "velocity": 86}, {"time": 189, "pitch": 64, "duration": 2, "velocity": 92}, {"time": 192, "pitch": 66, "duration": 3, "velocity": 90}, {"time": 195, "pitch": 67, "duration": 2, "velocity": 95}, {"time": 198, "pitch": 69, "duration": 2, "velocity": 92}, {"time": 201, "pitch": 71, "duration": 4, "velocity": 90}, {"time": 204, "pitch": 72, "duration": 3, "velocity": 93}, {"time": 207, "pitch": 74, "duration": 48, "velocity": 122}, {"time": 219, "pitch": 57, "duration": 11, "velocity": 88}, {"time": 231, "pitch": 59, "duration": 11, "velocity": 82}, {"time": 243, "pitch": 60, "duration": 12, "velocity": 83}, {"time": 255, "pitch": 62, "duration": 24, "velocity": 90}, {"time": 267, "pitch": 74, "duration": 12, "velocity": 93}, {"time": 279, "pitch": 76, "duration": 11, "velocity": 90}, {"time": 291, "pitch": 78, "duration": 12, "velocity": 100}, {"time": 303, "pitch": 79, "duration": 21, "velocity": 96}, {"time": 309, "pitch": 52, "duration": 6, "velocity": 69}, {"time": 315, "pitch": 54, "duration": 10, "velocity": 76}, {"time": 327, "pitch": 55, "duration": 11, "velocity": 78}, {"time": 339, "pitch": 59, "duration": 11, "velocity": 86}, {"time": 351, "pitch": 54, "duration": 24, "velocity": 82}, {"time": 363, "pitch": 71, "duration": 11, "velocity": 95}, {"time": 375, "pitch": 72, "duration": 13, "velocity": 86}, {"time": 387, "pitch": 74, "duration": 12, "velocity": 93}, {"time": 399, "pitch": 76, "duration": 20, "velocity": 95}, {"time": 417, "pitch": 74, "duration": 10, "velocity": 99}, {"time": 435, "pitch": 72, "duration": 11, "velocity": 96}, {"time": 447, "pitch": 74, "duration": 12, "velocity": 102}, {"time": 465, "pitch": 67, "duration": 14, "velocity": 96}, {"time": 477, "pitch": 69, "duration": 6, "velocity": 86}, {"time": 483, "pitch": 71, "duration": 6, "velocity": 90}, {"time": 489, "pitch": 74, "duration": 5, "velocity": 89}, {"time": 495, "pitch": 72, "duration": 12, "velocity": 96}, {"time": 519, "pitch": 71, "duration": 18, "velocity": 117}, {"time": 543, "pitch": 67, "duration": 14, "velocity": 88}, {"time": 543, "pitch": 74, "duration": 32, "velocity": 117}, {"time": 561, "pitch": 66, "duration": 24, "velocity": 100}, {"time": 1119, "pitch": 54, "duration": 18, "velocity": 78}, {"time": 1143, "pitch": 59, "duration": 12, "velocity": 88}, {"time": 1155, "pitch": 62, "duration": 12, "velocity": 95}, {"time": 1167, "pitch": 64, "duration": 32, "velocity": 88}, {"time": 1197, "pitch": 66, "duration": 6, "velocity": 85}, {"time": 1203, "pitch": 67, "duration": 12, "velocity": 92}, {"time": 1215, "pitch": 62, "duration": 29, "velocity": 76}, {"time": 1215, "pitch": 69, "duration": 29, "velocity": 69}, {"time": 1341, "pitch": 69, "duration": 18, "velocity": 99}, {"time": 1358, "pitch": 71, "duration": 35, "velocity": 99}, {"time": 1394, "pitch": 67, "duration": 11, "velocity": 99}, {"time": 1406, "pitch": 69, "duration": 31, "velocity": 100}, {"time": 1537, "pitch": 74, "duration": 14, "velocity": 102}, {"time": 1551, "pitch": 76, "duration": 37, "velocity": 102}, {"time": 1575, "pitch": 88, "duration": 23, "velocity": 102}, {"time": 1599, "pitch": 86, "duration": 23, "velocity": 102}, {"time": 1623, "pitch": 83, "duration": 20, "velocity": 102}, {"time": 1659, "pitch": 64, "duration": 12, "velocity": 102}, {"time": 1670, "pitch": 66, "duration": 11, "velocity": 102}, {"time": 1682, "pitch": 67, "duration": 9, "velocity": 102}, {"time": 1694, "pitch": 67, "duration": 25, "velocity": 102}, {"time": 1719, "pitch": 69, "duration": 21, "velocity": 102}, {"time": 1910, "pitch": 83, "duration": 12, "velocity": 102}, {"time": 1922, "pitch": 81, "duration": 12, "velocity": 102}, {"time": 1934, "pitch": 79, "duration": 32, "velocity": 102}, {"time": 1970, "pitch": 76, "duration": 12, "velocity": 102}, {"time": 1983, "pitch": 74, "duration": 31, "velocity": 102}, {"time": 2127, "pitch": 65, "duration": 7, "velocity": 79}, {"time": 2133, "pitch": 62, "duration": 6, "velocity": 86}, {"time": 2139, "pitch": 74, "duration": 6, "velocity": 97}, {"time": 2145, "pitch": 62, "duration": 2, "velocity": 85}, {"time": 2148, "pitch": 67, "duration": 3, "velocity": 78}, {"time": 2154, "pitch": 62, "duration": 2, "velocity": 82}, {"time": 2157, "pitch": 65, "duration": 3, "velocity": 72}, {"time": 2160, "pitch": 74, "duration": 6, "velocity": 89}, {"time": 2166, "pitch": 65, "duration": 3, "velocity": 88}, {"time": 2169, "pitch": 67, "duration": 3, "velocity": 64}, {"time": 2172, "pitch": 62, "duration": 3, "velocity": 56}, {"time": 2175, "pitch": 64, "duration": 10, "velocity": 64}, {"time": 2181, "pitch": 62, "duration": 6, "velocity": 82}, {"time": 2187, "pitch": 74, "duration": 2, "velocity": 99}, {"time": 2193, "pitch": 62, "duration": 2, "velocity": 69}, {"time": 2196, "pitch": 67, "duration": 7, "velocity": 69}, {"time": 2202, "pitch": 62, "duration": 3, "velocity": 58}, {"time": 2205, "pitch": 67, "duration": 3, "velocity": 63}, {"time": 2208, "pitch": 74, "duration": 6, "velocity": 92}, {"time": 2223, "pitch": 65, "duration": 5, "velocity": 72}, {"time": 2229, "pitch": 62, "duration": 5, "velocity": 82}, {"time": 2235, "pitch": 74, "duration": 2, "velocity": 92}, {"time": 2241, "pitch": 62, "duration": 2, "velocity": 76}, {"time": 2244, "pitch": 65, "duration": 5, "velocity": 61}, {"time": 2250, "pitch": 62, "duration": 3, "velocity": 64}, {"time": 2253, "pitch": 65, "duration": 5, "velocity": 71}, {"time": 2256, "pitch": 62, "duration": 3, "velocity": 76}, {"time": 2259, "pitch": 74, "duration": 2, "velocity": 89}, {"time": 2262, "pitch": 74, "duration": 1, "velocity": 75}, {"time": 2265, "pitch": 74, "duration": 3, "velocity": 83}, {"time": 2271, "pitch": 52, "duration": 14, "velocity": 89}, {"time": 2289, "pitch": 52, "duration": 6, "velocity": 93}, {"time": 2295, "pitch": 50, "duration": 5, "velocity": 92}, {"time": 2304, "pitch": 43, "duration": 8, "velocity": 81}, {"time": 2313, "pitch": 38, "duration": 6, "velocity": 93}, {"time": 2325, "pitch": 62, "duration": 3, "velocity": 97}, {"time": 2331, "pitch": 62, "duration": 4, "velocity": 93}, {"time": 2337, "pitch": 67, "duration": 3, "velocity": 92}, {"time": 2343, "pitch": 67, "duration": 3, "velocity": 97}, {"time": 2349, "pitch": 70, "duration": 3, "velocity": 102}, {"time": 2355, "pitch": 70, "duration": 3, "velocity": 117}, {"time": 2361, "pitch": 74, "duration": 3, "velocity": 100}, {"time": 2367, "pitch": 72, "duration": 5, "velocity": 122}, {"time": 2376, "pitch": 69, "duration": 4, "velocity": 95}, {"time": 2385, "pitch": 65, "duration": 5, "velocity": 99}, {"time": 2397, "pitch": 62, "duration": 1, "velocity": 77}, {"time": 2400, "pitch": 62, "duration": 1, "velocity": 68}, {"time": 2403, "pitch": 62, "duration": 2, "velocity": 83}, {"time": 2409, "pitch": 65, "duration": 1, "velocity": 88}, {"time": 2421, "pitch": 62, "duration": 2, "velocity": 96}, {"time": 2427, "pitch": 62, "duration": 2, "velocity": 97}, {"time": 2433, "pitch": 67, "duration": 2, "velocity": 83}, {"time": 2439, "pitch": 67, "duration": 3, "velocity": 107}, {"time": 2445, "pitch": 70, "duration": 2, "velocity": 107}, {"time": 2451, "pitch": 70, "duration": 3, "velocity": 112}, {"time": 2457, "pitch": 74, "duration": 3, "velocity": 112}, {"time": 2463, "pitch": 72, "duration": 5, "velocity": 127}, {"time": 2472, "pitch": 69, "duration": 4, "velocity": 95}, {"time": 2481, "pitch": 65, "duration": 11, "velocity": 96}, {"time": 2493, "pitch": 62, "duration": 6, "velocity": 86}, {"time": 2499, "pitch": 69, "duration": 6, "velocity": 96}, {"time": 2505, "pitch": 67, "duration": 48, "velocity": 95}, {"time": 2559, "pitch": 74, "duration": 48, "velocity": 112}, {"time": 2673, "pitch": 50, "duration": 4, "velocity": 20}, {"time": 2679, "pitch": 52, "duration": 11, "velocity": 72}, {"time": 2691, "pitch": 54, "duration": 10, "velocity": 92}, {"time": 2703, "pitch": 55, "duration": 21, "velocity": 89}, {"time": 2769, "pitch": 62, "duration": 5, "velocity": 72}, {"time": 2775, "pitch": 64, "duration": 12, "velocity": 71}, {"time": 2787, "pitch": 66, "duration": 14, "velocity": 95}, {"time": 2799, "pitch": 67, "duration": 43, "velocity": 89}, {"time": 3735, "pitch": 81, "duration": 20, "velocity": 96}, {"time": 3759, "pitch": 79, "duration": 2, "velocity": 102}, {"time": 3765, "pitch": 79, "duration": 2, "velocity": 90}, {"time": 3768, "pitch": 81, "duration": 2, "velocity": 77}, {"time": 3771, "pitch": 86, "duration": 3, "velocity": 92}, {"time": 3774, "pitch": 81, "duration": 2, "velocity": 82}, {"time": 3777, "pitch": 79, "duration": 2, "velocity": 100}, {"time": 3786, "pitch": 74, "duration": 4, "velocity": 89}, {"time": 3789, "pitch": 79, "duration": 4, "velocity": 82}, {"time": 3792, "pitch": 81, "duration": 3, "velocity": 81}, {"time": 3795, "pitch": 86, "duration": 3, "velocity": 92}, {"time": 3798, "pitch": 81, "duration": 3, "velocity": 89}, {"time": 3801, "pitch": 79, "duration": 3, "velocity": 117}, {"time": 3813, "pitch": 74, "duration": 2, "velocity": 93}, {"time": 3816, "pitch": 79, "duration": 3, "velocity": 79}, {"time": 3819, "pitch": 81, "duration": 3, "velocity": 89}, {"time": 3822, "pitch": 84, "duration": 3, "velocity": 102}, {"time": 3825, "pitch": 86, "duration": 2, "velocity": 88}, {"time": 3834, "pitch": 70, "duration": 1, "velocity": 100}, {"time": 3837, "pitch": 71, "duration": 3, "velocity": 77}, {"time": 3840, "pitch": 72, "duration": 3, "velocity": 92}, {"time": 3843, "pitch": 74, "duration": 1, "velocity": 99}, {"time": 3846, "pitch": 79, "duration": 2, "velocity": 99}, {"time": 3849, "pitch": 83, "duration": 4, "velocity": 96}, {"time": 3852, "pitch": 84, "duration": 4, "velocity": 97}, {"time": 3855, "pitch": 86, "duration": 48, "velocity": 127}, {"time": 4022, "pitch": 71, "duration": 12, "velocity": 115}, {"time": 4035, "pitch": 69, "duration": 11, "velocity": 127}, {"time": 4046, "pitch": 64, "duration": 25, "velocity": 127}, {"time": 4047, "pitch": 71, "duration": 26, "velocity": 117}, {"time": 4072, "pitch": 66, "duration": 12, "velocity": 127}, {"time": 4084, "pitch": 67, "duration": 11, "velocity": 123}, {"time": 4095, "pitch": 62, "duration": 23, "velocity": 127}, {"time": 4119, "pitch": 66, "duration": 13, "velocity": 127}, {"time": 4132, "pitch": 67, "duration": 10, "velocity": 127}, {"time": 4143, "pitch": 64, "duration": 19, "velocity": 127}, {"time": 4234, "pitch": 71, "duration": 3, "velocity": 127}, {"time": 4237, "pitch": 72, "duration": 3, "velocity": 117}, {"time": 4240, "pitch": 74, "duration": 43, "velocity": 127}, {"time": 4310, "pitch": 76, "duration": 11, "velocity": 127}, {"time": 4323, "pitch": 78, "duration": 10, "velocity": 127}, {"time": 4334, "pitch": 79, "duration": 38, "velocity": 127}, {"time": 4384, "pitch": 78, "duration": 24, "velocity": 127}, {"time": 4407, "pitch": 74, "duration": 11, "velocity": 127}, {"time": 4419, "pitch": 71, "duration": 11, "velocity": 124}, {"time": 4430, "pitch": 76, "duration": 23, "velocity": 127}, {"time": 4456, "pitch": 74, "duration": 11, "velocity": 127}, {"time": 4467, "pitch": 72, "duration": 11, "velocity": 127}, {"time": 4479, "pitch": 71, "duration": 23, "velocity": 127}, {"time": 4635, "pitch": 59, "duration": 11, "velocity": 92}, {"time": 4647, "pitch": 62, "duration": 12, "velocity": 99}, {"time": 4659, "pitch": 67, "duration": 13, "velocity": 107}, {"time": 4695, "pitch": 69, "duration": 44, "velocity": 100}, {"time": 4743, "pitch": 71, "duration": 23, "velocity": 100}, {"time": 4767, "pitch": 69, "duration": 39, "velocity": 90}, {"time": 4797, "pitch": 67, "duration": 103, "velocity": 83}, {"time": 4827, "pitch": 62, "duration": 72, "velocity": 94}]}, {"program": 0, "is_drum": false, "name": "PIANO", "notes": [{"time": 15, "pitch": 43, "duration": 20, "velocity": 74}, {"time": 21, "pitch": 55, "duration": 17, "velocity": 69}, {"time": 27, "pitch": 62, "duration": 14, "velocity": 93}, {"time": 33, "pitch": 59, "duration": 7, "velocity": 56}, {"time": 36, "pitch": 48, "duration": 26, "velocity": 74}, {"time": 45, "pitch": 55, "duration": 9, "velocity": 70}, {"time": 51, "pitch": 62, "duration": 15, "velocity": 89}, {"time": 57, "pitch": 55, "duration": 5, "velocity": 67}, {"time": 63, "pitch": 47, "duration": 20, "velocity": 69}, {"time": 69, "pitch": 55, "duration": 7, "velocity": 63}, {"time": 75, "pitch": 62, "duration": 19, "velocity": 81}, {"time": 81, "pitch": 55, "duration": 2, "velocity": 72}, {"time": 84, "pitch": 45, "duration": 24, "velocity": 76}, {"time": 93, "pitch": 57, "duration": 7, "velocity": 60}, {"time": 99, "pitch": 62, "duration": 12, "velocity": 82}, {"time": 105, "pitch": 57, "duration": 6, "velocity": 78}, {"time": 111, "pitch": 43, "duration": 20, "velocity": 76}, {"time": 117, "pitch": 55, "duration": 8, "velocity": 69}, {"time": 123, "pitch": 62, "duration": 8, "velocity": 96}, {"time": 129, "pitch": 55, "duration": 5, "velocity": 81}, {"time": 132, "pitch": 48, "duration": 16, "velocity": 78}, {"time": 141, "pitch": 55, "duration": 13, "velocity": 72}, {"time": 147, "pitch": 62, "duration": 2, "velocity": 67}, {"time": 150, "pitch": 48, "duration": 8, "velocity": 76}, {"time": 153, "pitch": 62, "duration": 8, "velocity": 85}, {"time": 156, "pitch": 55, "duration": 2, "velocity": 57}, {"time": 159, "pitch": 47, "duration": 19, "velocity": 93}, {"time": 165, "pitch": 59, "duration": 6, "velocity": 63}, {"time": 171, "pitch": 62, "duration": 8, "velocity": 90}, {"time": 177, "pitch": 59, "duration": 2, "velocity": 82}, {"time": 180, "pitch": 45, "duration": 16, "velocity": 85}, {"time": 189, "pitch": 57, "duration": 7, "velocity": 79}, {"time": 195, "pitch": 62, "duration": 7, "velocity": 85}, {"time": 198, "pitch": 45, "duration": 7, "velocity": 67}, {"time": 201, "pitch": 57, "duration": 3, "velocity": 92}, {"time": 207, "pitch": 43, "duration": 21, "velocity": 83}, {"time": 213, "pitch": 55, "duration": 8, "velocity": 70}, {"time": 219, "pitch": 62, "duration": 12, "velocity": 96}, {"time": 228, "pitch": 55, "duration": 2, "velocity": 92}, {"time": 231, "pitch": 43, "duration": 2, "velocity": 92}, {"time": 237, "pitch": 43, "duration": 10, "velocity": 90}, {"time": 243, "pitch": 62, "duration": 14, "velocity": 93}, {"time": 249, "pitch": 55, "duration": 6, "velocity": 90}, {"time": 255, "pitch": 42, "duration": 22, "velocity": 97}, {"time": 264, "pitch": 54, "duration": 13, "velocity": 22}, {"time": 267, "pitch": 62, "duration": 17, "velocity": 99}, {"time": 276, "pitch": 59, "duration": 8, "velocity": 59}, {"time": 279, "pitch": 42, "duration": 2, "velocity": 96}, {"time": 285, "pitch": 42, "duration": 11, "velocity": 78}, {"time": 291, "pitch": 62, "duration": 11, "velocity": 99}, {"time": 297, "pitch": 59, "duration": 5, "velocity": 70}, {"time": 303, "pitch": 40, "duration": 22, "velocity": 76}, {"time": 309, "pitch": 47, "duration": 16, "velocity": 58}, {"time": 315, "pitch": 59, "duration": 19, "velocity": 82}, {"time": 324, "pitch": 52, "duration": 3, "velocity": 78}, {"time": 327, "pitch": 40, "duration": 2, "velocity": 89}, {"time": 333, "pitch": 40, "duration": 10, "velocity": 75}, {"time": 339, "pitch": 59, "duration": 12, "velocity": 93}, {"time": 345, "pitch": 52, "duration": 4, "velocity": 72}, {"time": 348, "pitch": 55, "duration": 2, "velocity": 66}, {"time": 351, "pitch": 47, "duration": 21, "velocity": 82}, {"time": 357, "pitch": 54, "duration": 16, "velocity": 60}, {"time": 363, "pitch": 66, "duration": 20, "velocity": 99}, {"time": 372, "pitch": 59, "duration": 8, "velocity": 78}, {"time": 375, "pitch": 47, "duration": 2, "velocity": 88}, {"time": 381, "pitch": 47, "duration": 10, "velocity": 83}, {"time": 387, "pitch": 66, "duration": 9, "velocity": 117}, {"time": 393, "pitch": 59, "duration": 5, "velocity": 86}, {"time": 399, "pitch": 48, "duration": 15, "velocity": 97}, {"time": 405, "pitch": 60, "duration": 8, "velocity": 63}, {"time": 411, "pitch": 64, "duration": 1, "velocity": 78}, {"time": 411, "pitch": 67, "duration": 1, "velocity": 81}, {"time": 417, "pitch": 48, "duration": 18, "velocity": 88}, {"time": 417, "pitch": 60, "duration": 15, "velocity": 95}, {"time": 417, "pitch": 64, "duration": 15, "velocity": 96}, {"time": 417, "pitch": 67, "duration": 15, "velocity": 90}, {"time": 435, "pitch": 64, "duration": 5, "velocity": 95}, {"time": 435, "pitch": 67, "duration": 11, "velocity": 95}, {"time": 438, "pitch": 48, "duration": 7, "velocity": 76}, {"time": 441, "pitch": 60, "duration": 5, "velocity": 93}, {"time": 444, "pitch": 64, "duration": 2, "velocity": 56}, {"time": 447, "pitch": 47, "duration": 14, "velocity": 99}, {"time": 453, "pitch": 59, "duration": 7, "velocity": 76}, {"time": 459, "pitch": 62, "duration": 1, "velocity": 82}, {"time": 459, "pitch": 66, "duration": 1, "velocity": 96}, {"time": 465, "pitch": 52, "duration": 19, "velocity": 86}, {"time": 465, "pitch": 59, "duration": 16, "velocity": 90}, {"time": 465, "pitch": 64, "duration": 16, "velocity": 86}, {"time": 465, "pitch": 67, "duration": 15, "velocity": 86}, {"time": 483, "pitch": 64, "duration": 12, "velocity": 96}, {"time": 483, "pitch": 67, "duration": 12, "velocity": 96}, {"time": 486, "pitch": 52, "duration": 7, "velocity": 69}, {"time": 489, "pitch": 59, "duration": 6, "velocity": 85}, {"time": 495, "pitch": 45, "duration": 18, "velocity": 86}, {"time": 501, "pitch": 52, "duration": 9, "velocity": 47}, {"time": 507, "pitch": 60, "duration": 14, "velocity": 79}, {"time": 507, "pitch": 64, "duration": 13, "velocity": 74}, {"time": 516, "pitch": 45, "duration": 3, "velocity": 81}, {"time": 519, "pitch": 48, "duration": 2, "velocity": 67}, {"time": 525, "pitch": 48, "duration": 9, "velocity": 85}, {"time": 531, "pitch": 60, "duration": 12, "velocity": 86}, {"time": 531, "pitch": 64, "duration": 9, "velocity": 79}, {"time": 537, "pitch": 55, "duration": 4, "velocity": 70}, {"time": 543, "pitch": 38, "duration": 15, "velocity": 76}, {"time": 549, "pitch": 57, "duration": 8, "velocity": 58}, {"time": 555, "pitch": 66, "duration": 1, "velocity": 97}, {"time": 561, "pitch": 38, "duration": 20, "velocity": 69}, {"time": 561, "pitch": 50, "duration": 27, "velocity": 83}, {"time": 561, "pitch": 57, "duration": 30, "velocity": 92}, {"time": 561, "pitch": 62, "duration": 30, "velocity": 96}, {"time": 561, "pitch": 66, "duration": 30, "velocity": 93}, {"time": 591, "pitch": 43, "duration": 22, "velocity": 78}, {"time": 597, "pitch": 50, "duration": 18, "velocity": 63}, {"time": 603, "pitch": 59, "duration": 20, "velocity": 69}, {"time": 603, "pitch": 62, "duration": 20, "velocity": 68}, {"time": 612, "pitch": 55, "duration": 10, "velocity": 58}, {"time": 615, "pitch": 43, "duration": 14, "velocity": 75}, {"time": 621, "pitch": 50, "duration": 8, "velocity": 57}, {"time": 627, "pitch": 59, "duration": 13, "velocity": 64}, {"time": 627, "pitch": 62, "duration": 13, "velocity": 66}, {"time": 633, "pitch": 55, "duration": 4, "velocity": 41}, {"time": 639, "pitch": 42, "duration": 23, "velocity": 72}, {"time": 645, "pitch": 54, "duration": 18, "velocity": 48}, {"time": 651, "pitch": 62, "duration": 19, "velocity": 65}, {"time": 651, "pitch": 66, "duration": 19, "velocity": 70}, {"time": 660, "pitch": 59, "duration": 7, "velocity": 57}, {"time": 663, "pitch": 42, "duration": 17, "velocity": 76}, {"time": 669, "pitch": 59, "duration": 9, "velocity": 64}, {"time": 675, "pitch": 66, "duration": 13, "velocity": 93}, {"time": 681, "pitch": 62, "duration": 7, "velocity": 62}, {"time": 687, "pitch": 40, "duration": 21, "velocity": 63}, {"time": 693, "pitch": 47, "duration": 18, "velocity": 53}, {"time": 699, "pitch": 64, "duration": 19, "velocity": 67}, {"time": 699, "pitch": 67, "duration": 19, "velocity": 64}, {"time": 708, "pitch": 59, "duration": 9, "velocity": 72}, {"time": 711, "pitch": 40, "duration": 15, "velocity": 72}, {"time": 717, "pitch": 47, "duration": 10, "velocity": 63}, {"time": 723, "pitch": 64, "duration": 13, "velocity": 76}, {"time": 723, "pitch": 67, "duration": 13, "velocity": 73}, {"time": 729, "pitch": 59, "duration": 7, "velocity": 73}, {"time": 735, "pitch": 47, "duration": 22, "velocity": 62}, {"time": 741, "pitch": 54, "duration": 17, "velocity": 69}, {"time": 747, "pitch": 62, "duration": 19, "velocity": 61}, {"time": 747, "pitch": 66, "duration": 19, "velocity": 82}, {"time": 756, "pitch": 59, "duration": 17, "velocity": 67}, {"time": 759, "pitch": 47, "duration": 18, "velocity": 67}, {"time": 765, "pitch": 54, "duration": 8, "velocity": 74}, {"time": 771, "pitch": 66, "duration": 11, "velocity": 102}, {"time": 777, "pitch": 62, "duration": 5, "velocity": 71}, {"time": 780, "pitch": 59, "duration": 4, "velocity": 72}, {"time": 783, "pitch": 36, "duration": 21, "velocity": 64}, {"time": 789, "pitch": 43, "duration": 17, "velocity": 69}, {"time": 795, "pitch": 60, "duration": 20, "velocity": 72}, {"time": 795, "pitch": 64, "duration": 20, "velocity": 76}, {"time": 804, "pitch": 55, "duration": 12, "velocity": 59}, {"time": 807, "pitch": 36, "duration": 16, "velocity": 70}, {"time": 813, "pitch": 43, "duration": 10, "velocity": 62}, {"time": 819, "pitch": 64, "duration": 13, "velocity": 86}, {"time": 825, "pitch": 55, "duration": 5, "velocity": 72}, {"time": 828, "pitch": 60, "duration": 4, "velocity": 62}, {"time": 831, "pitch": 47, "duration": 22, "velocity": 56}, {"time": 837, "pitch": 54, "duration": 18, "velocity": 83}, {"time": 843, "pitch": 66, "duration": 25, "velocity": 95}, {"time": 852, "pitch": 62, "duration": 15, "velocity": 56}, {"time": 855, "pitch": 47, "duration": 15, "velocity": 76}, {"time": 861, "pitch": 54, "duration": 8, "velocity": 71}, {"time": 867, "pitch": 59, "duration": 13, "velocity": 85}, {"time": 873, "pitch": 66, "duration": 6, "velocity": 92}, {"time": 879, "pitch": 45, "duration": 22, "velocity": 69}, {"time": 885, "pitch": 52, "duration": 17, "velocity": 57}, {"time": 891, "pitch": 64, "duration": 21, "velocity": 88}, {"time": 900, "pitch": 60, "duration": 11, "velocity": 65}, {"time": 903, "pitch": 45, "duration": 13, "velocity": 63}, {"time": 909, "pitch": 52, "duration": 7, "velocity": 73}, {"time": 915, "pitch": 64, "duration": 12, "velocity": 90}, {"time": 921, "pitch": 57, "duration": 6, "velocity": 74}, {"time": 927, "pitch": 38, "duration": 24, "velocity": 67}, {"time": 933, "pitch": 45, "duration": 39, "velocity": 37}, {"time": 939, "pitch": 50, "duration": 14, "velocity": 48}, {"time": 939, "pitch": 66, "duration": 19, "velocity": 99}, {"time": 948, "pitch": 57, "duration": 10, "velocity": 77}, {"time": 951, "pitch": 62, "duration": 7, "velocity": 65}, {"time": 954, "pitch": 38, "duration": 20, "velocity": 30}, {"time": 957, "pitch": 50, "duration": 8, "velocity": 73}, {"time": 963, "pitch": 62, "duration": 12, "velocity": 88}, {"time": 963, "pitch": 66, "duration": 12, "velocity": 97}, {"time": 969, "pitch": 57, "duration": 6, "velocity": 74}, {"time": 975, "pitch": 43, "duration": 22, "velocity": 78}, {"time": 981, "pitch": 50, "duration": 18, "velocity": 63}, {"time": 987, "pitch": 59, "duration": 20, "velocity": 69}, {"time": 987, "pitch": 62, "duration": 20, "velocity": 68}, {"time": 996, "pitch": 55, "duration": 10, "velocity": 58}, {"time": 999, "pitch": 43, "duration": 14, "velocity": 75}, {"time": 1005, "pitch": 50, "duration": 8, "velocity": 57}, {"time": 1011, "pitch": 59, "duration": 13, "velocity": 64}, {"time": 1011, "pitch": 62, "duration": 13, "velocity": 66}, {"time": 1017, "pitch": 55, "duration": 4, "velocity": 41}, {"time": 1023, "pitch": 42, "duration": 23, "velocity": 72}, {"time": 1029, "pitch": 54, "duration": 18, "velocity": 48}, {"time": 1035, "pitch": 62, "duration": 19, "velocity": 65}, {"time": 1035, "pitch": 66, "duration": 19, "velocity": 70}, {"time": 1044, "pitch": 59, "duration": 7, "velocity": 57}, {"time": 1047, "pitch": 42, "duration": 17, "velocity": 76}, {"time": 1053, "pitch": 59, "duration": 9, "velocity": 64}, {"time": 1059, "pitch": 66, "duration": 13, "velocity": 93}, {"time": 1065, "pitch": 62, "duration": 7, "velocity": 62}, {"time": 1071, "pitch": 40, "duration": 21, "velocity": 63}, {"time": 1077, "pitch": 47, "duration": 18, "velocity": 53}, {"time": 1083, "pitch": 64, "duration": 19, "velocity": 67}, {"time": 1083, "pitch": 67, "duration": 19, "velocity": 64}, {"time": 1092, "pitch": 59, "duration": 9, "velocity": 72}, {"time": 1095, "pitch": 40, "duration": 15, "velocity": 72}, {"time": 1101, "pitch": 47, "duration": 10, "velocity": 63}, {"time": 1107, "pitch": 64, "duration": 13, "velocity": 76}, {"time": 1107, "pitch": 67, "duration": 13, "velocity": 73}, {"time": 1113, "pitch": 59, "duration": 7, "velocity": 73}, {"time": 1119, "pitch": 47, "duration": 22, "velocity": 62}, {"time": 1125, "pitch": 54, "duration": 17, "velocity": 69}, {"time": 1131, "pitch": 62, "duration": 19, "velocity": 61}, {"time": 1131, "pitch": 66, "duration": 19, "velocity": 82}, {"time": 1140, "pitch": 59, "duration": 17, "velocity": 67}, {"time": 1143, "pitch": 47, "duration": 18, "velocity": 67}, {"time": 1149, "pitch": 54, "duration": 8, "velocity": 74}, {"time": 1155, "pitch": 66, "duration": 11, "velocity": 102}, {"time": 1161, "pitch": 62, "duration": 5, "velocity": 71}, {"time": 1164, "pitch": 59, "duration": 4, "velocity": 72}, {"time": 1167, "pitch": 36, "duration": 21, "velocity": 64}, {"time": 1173, "pitch": 43, "duration": 17, "velocity": 69}, {"time": 1179, "pitch": 60, "duration": 20, "velocity": 72}, {"time": 1179, "pitch": 64, "duration": 20, "velocity": 76}, {"time": 1188, "pitch": 55, "duration": 12, "velocity": 59}, {"time": 1191, "pitch": 36, "duration": 16, "velocity": 70}, {"time": 1197, "pitch": 43, "duration": 10, "velocity": 62}, {"time": 1203, "pitch": 64, "duration": 12, "velocity": 86}, {"time": 1209, "pitch": 55, "duration": 5, "velocity": 72}, {"time": 1212, "pitch": 60, "duration": 3, "velocity": 62}, {"time": 1215, "pitch": 43, "duration": 15, "velocity": 73}, {"time": 1221, "pitch": 50, "duration": 9, "velocity": 60}, {"time": 1227, "pitch": 67, "duration": 11, "velocity": 85}, {"time": 1227, "pitch": 71, "duration": 12, "velocity": 76}, {"time": 1236, "pitch": 62, "duration": 4, "velocity": 85}, {"time": 1239, "pitch": 40, "duration": 2, "velocity": 82}, {"time": 1245, "pitch": 40, "duration": 12, "velocity": 70}, {"time": 1251, "pitch": 64, "duration": 14, "velocity": 85}, {"time": 1251, "pitch": 67, "duration": 14, "velocity": 83}, {"time": 1257, "pitch": 59, "duration": 5, "velocity": 77}, {"time": 1263, "pitch": 36, "duration": 21, "velocity": 90}, {"time": 1269, "pitch": 43, "duration": 16, "velocity": 58}, {"time": 1275, "pitch": 64, "duration": 20, "velocity": 89}, {"time": 1275, "pitch": 67, "duration": 20, "velocity": 83}, {"time": 1284, "pitch": 60, "duration": 3, "velocity": 92}, {"time": 1287, "pitch": 36, "duration": 2, "velocity": 77}, {"time": 1293, "pitch": 36, "duration": 6, "velocity": 82}, {"time": 1299, "pitch": 48, "duration": 10, "velocity": 88}, {"time": 1299, "pitch": 60, "duration": 1, "velocity": 69}, {"time": 1299, "pitch": 64, "duration": 12, "velocity": 83}, {"time": 1299, "pitch": 67, "duration": 13, "velocity": 83}, {"time": 1305, "pitch": 60, "duration": 6, "velocity": 88}, {"time": 1311, "pitch": 38, "duration": 15, "velocity": 92}, {"time": 1317, "pitch": 45, "duration": 9, "velocity": 42}, {"time": 1323, "pitch": 50, "duration": 1, "velocity": 33}, {"time": 1323, "pitch": 57, "duration": 3, "velocity": 81}, {"time": 1323, "pitch": 62, "duration": 3, "velocity": 81}, {"time": 1323, "pitch": 66, "duration": 3, "velocity": 88}, {"time": 1329, "pitch": 38, "duration": 2, "velocity": 56}, {"time": 1329, "pitch": 50, "duration": 3, "velocity": 96}, {"time": 1329, "pitch": 57, "duration": 3, "velocity": 82}, {"time": 1329, "pitch": 62, "duration": 3, "velocity": 88}, {"time": 1329, "pitch": 66, "duration": 3, "velocity": 78}, {"time": 1335, "pitch": 38, "duration": 2, "velocity": 72}, {"time": 1335, "pitch": 50, "duration": 3, "velocity": 95}, {"time": 1335, "pitch": 57, "duration": 3, "velocity": 97}, {"time": 1335, "pitch": 62, "duration": 3, "velocity": 99}, {"time": 1335, "pitch": 66, "duration": 3, "velocity": 100}, {"time": 1341, "pitch": 38, "duration": 2, "velocity": 76}, {"time": 1341, "pitch": 50, "duration": 3, "velocity": 97}, {"time": 1341, "pitch": 57, "duration": 3, "velocity": 92}, {"time": 1341, "pitch": 62, "duration": 3, "velocity": 99}, {"time": 1341, "pitch": 66, "duration": 3, "velocity": 100}, {"time": 1347, "pitch": 38, "duration": 2, "velocity": 78}, {"time": 1347, "pitch": 50, "duration": 2, "velocity": 97}, {"time": 1347, "pitch": 57, "duration": 2, "velocity": 100}, {"time": 1347, "pitch": 62, "duration": 2, "velocity": 112}, {"time": 1347, "pitch": 66, "duration": 2, "velocity": 107}, {"time": 1353, "pitch": 50, "duration": 3, "velocity": 107}, {"time": 1353, "pitch": 57, "duration": 3, "velocity": 100}, {"time": 1353, "pitch": 62, "duration": 3, "velocity": 127}, {"time": 1353, "pitch": 66, "duration": 4, "velocity": 117}, {"time": 1359, "pitch": 43, "duration": 22, "velocity": 96}, {"time": 1365, "pitch": 62, "duration": 4, "velocity": 76}, {"time": 1365, "pitch": 67, "duration": 4, "velocity": 90}, {"time": 1365, "pitch": 71, "duration": 3, "velocity": 99}, {"time": 1371, "pitch": 50, "duration": 12, "velocity": 35}, {"time": 1371, "pitch": 55, "duration": 2, "velocity": 38}, {"time": 1371, "pitch": 62, "duration": 7, "velocity": 99}, {"time": 1371, "pitch": 67, "duration": 7, "velocity": 112}, {"time": 1371, "pitch": 71, "duration": 7, "velocity": 100}, {"time": 1380, "pitch": 62, "duration": 9, "velocity": 99}, {"time": 1380, "pitch": 67, "duration": 9, "velocity": 107}, {"time": 1380, "pitch": 71, "duration": 10, "velocity": 95}, {"time": 1383, "pitch": 43, "duration": 2, "velocity": 90}, {"time": 1389, "pitch": 43, "duration": 7, "velocity": 90}, {"time": 1395, "pitch": 67, "duration": 3, "velocity": 100}, {"time": 1395, "pitch": 71, "duration": 3, "velocity": 112}, {"time": 1398, "pitch": 43, "duration": 6, "velocity": 90}, {"time": 1401, "pitch": 67, "duration": 4, "velocity": 97}, {"time": 1401, "pitch": 71, "duration": 4, "velocity": 93}, {"time": 1404, "pitch": 62, "duration": 3, "velocity": 86}, {"time": 1407, "pitch": 38, "duration": 21, "velocity": 97}, {"time": 1413, "pitch": 45, "duration": 16, "velocity": 73}, {"time": 1413, "pitch": 50, "duration": 16, "velocity": 82}, {"time": 1419, "pitch": 57, "duration": 7, "velocity": 89}, {"time": 1419, "pitch": 62, "duration": 7, "velocity": 102}, {"time": 1419, "pitch": 66, "duration": 7, "velocity": 102}, {"time": 1428, "pitch": 57, "duration": 9, "velocity": 88}, {"time": 1428, "pitch": 62, "duration": 9, "velocity": 99}, {"time": 1428, "pitch": 66, "duration": 9, "velocity": 95}, {"time": 1431, "pitch": 38, "duration": 9, "velocity": 85}, {"time": 1437, "pitch": 45, "duration": 17, "velocity": 89}, {"time": 1437, "pitch": 50, "duration": 17, "velocity": 92}, {"time": 1443, "pitch": 62, "duration": 4, "velocity": 102}, {"time": 1443, "pitch": 66, "duration": 4, "velocity": 117}, {"time": 1446, "pitch": 38, "duration": 5, "velocity": 89}, {"time": 1449, "pitch": 62, "duration": 5, "velocity": 99}, {"time": 1449, "pitch": 66, "duration": 5, "velocity": 112}, {"time": 1452, "pitch": 57, "duration": 3, "velocity": 86}, {"time": 1455, "pitch": 40, "duration": 22, "velocity": 97}, {"time": 1461, "pitch": 47, "duration": 18, "velocity": 93}, {"time": 1467, "pitch": 59, "duration": 8, "velocity": 95}, {"time": 1467, "pitch": 64, "duration": 7, "velocity": 99}, {"time": 1467, "pitch": 67, "duration": 8, "velocity": 96}, {"time": 1473, "pitch": 52, "duration": 2, "velocity": 38}, {"time": 1476, "pitch": 59, "duration": 10, "velocity": 86}, {"time": 1476, "pitch": 64, "duration": 10, "velocity": 92}, {"time": 1476, "pitch": 67, "duration": 10, "velocity": 89}, {"time": 1479, "pitch": 40, "duration": 3, "velocity": 85}, {"time": 1485, "pitch": 40, "duration": 11, "velocity": 95}, {"time": 1491, "pitch": 64, "duration": 6, "velocity": 97}, {"time": 1491, "pitch": 67, "duration": 11, "velocity": 96}, {"time": 1494, "pitch": 52, "duration": 7, "velocity": 83}, {"time": 1497, "pitch": 59, "duration": 6, "velocity": 117}, {"time": 1500, "pitch": 64, "duration": 2, "velocity": 77}, {"time": 1503, "pitch": 47, "duration": 21, "velocity": 96}, {"time": 1509, "pitch": 54, "duration": 17, "velocity": 95}, {"time": 1515, "pitch": 59, "duration": 6, "velocity": 86}, {"time": 1515, "pitch": 62, "duration": 7, "velocity": 97}, {"time": 1515, "pitch": 66, "duration": 7, "velocity": 107}, {"time": 1524, "pitch": 59, "duration": 10, "velocity": 89}, {"time": 1524, "pitch": 62, "duration": 10, "velocity": 99}, {"time": 1524, "pitch": 66, "duration": 11, "velocity": 112}, {"time": 1527, "pitch": 47, "duration": 2, "velocity": 99}, {"time": 1533, "pitch": 47, "duration": 5, "velocity": 99}, {"time": 1539, "pitch": 62, "duration": 2, "velocity": 102}, {"time": 1539, "pitch": 66, "duration": 3, "velocity": 122}, {"time": 1542, "pitch": 47, "duration": 8, "velocity": 100}, {"time": 1545, "pitch": 62, "duration": 4, "velocity": 99}, {"time": 1545, "pitch": 66, "duration": 4, "velocity": 122}, {"time": 1548, "pitch": 59, "duration": 3, "velocity": 90}, {"time": 1551, "pitch": 48, "duration": 21, "velocity": 93}, {"time": 1557, "pitch": 55, "duration": 7, "velocity": 93}, {"time": 1563, "pitch": 60, "duration": 18, "velocity": 82}, {"time": 1563, "pitch": 64, "duration": 18, "velocity": 96}, {"time": 1572, "pitch": 55, "duration": 7, "velocity": 89}, {"time": 1575, "pitch": 48, "duration": 1, "velocity": 79}, {"time": 1581, "pitch": 48, "duration": 11, "velocity": 97}, {"time": 1587, "pitch": 60, "duration": 7, "velocity": 96}, {"time": 1587, "pitch": 64, "duration": 12, "velocity": 95}, {"time": 1593, "pitch": 55, "duration": 4, "velocity": 95}, {"time": 1596, "pitch": 60, "duration": 2, "velocity": 81}, {"time": 1599, "pitch": 47, "duration": 12, "velocity": 88}, {"time": 1605, "pitch": 54, "duration": 6, "velocity": 92}, {"time": 1611, "pitch": 62, "duration": 11, "velocity": 97}, {"time": 1611, "pitch": 66, "duration": 11, "velocity": 122}, {"time": 1620, "pitch": 59, "duration": 8, "velocity": 93}, {"time": 1623, "pitch": 40, "duration": 2, "velocity": 90}, {"time": 1629, "pitch": 40, "duration": 11, "velocity": 90}, {"time": 1635, "pitch": 64, "duration": 7, "velocity": 92}, {"time": 1635, "pitch": 67, "duration": 12, "velocity": 89}, {"time": 1638, "pitch": 47, "duration": 3, "velocity": 81}, {"time": 1641, "pitch": 59, "duration": 6, "velocity": 100}, {"time": 1644, "pitch": 64, "duration": 2, "velocity": 78}, {"time": 1647, "pitch": 45, "duration": 21, "velocity": 89}, {"time": 1653, "pitch": 52, "duration": 16, "velocity": 90}, {"time": 1659, "pitch": 60, "duration": 11, "velocity": 99}, {"time": 1659, "pitch": 64, "duration": 12, "velocity": 93}, {"time": 1668, "pitch": 57, "duration": 3, "velocity": 102}, {"time": 1671, "pitch": 47, "duration": 2, "velocity": 83}, {"time": 1677, "pitch": 47, "duration": 14, "velocity": 82}, {"time": 1683, "pitch": 54, "duration": 6, "velocity": 69}, {"time": 1683, "pitch": 62, "duration": 8, "velocity": 96}, {"time": 1683, "pitch": 66, "duration": 12, "velocity": 112}, {"time": 1689, "pitch": 59, "duration": 5, "velocity": 100}, {"time": 1695, "pitch": 48, "duration": 13, "velocity": 90}, {"time": 1701, "pitch": 60, "duration": 4, "velocity": 95}, {"time": 1707, "pitch": 64, "duration": 9, "velocity": 102}, {"time": 1707, "pitch": 67, "duration": 10, "velocity": 107}, {"time": 1716, "pitch": 60, "duration": 3, "velocity": 100}, {"time": 1719, "pitch": 38, "duration": 2, "velocity": 96}, {"time": 1725, "pitch": 38, "duration": 7, "velocity": 89}, {"time": 1731, "pitch": 62, "duration": 4, "velocity": 97}, {"time": 1731, "pitch": 66, "duration": 5, "velocity": 122}, {"time": 1734, "pitch": 38, "duration": 3, "velocity": 93}, {"time": 1737, "pitch": 57, "duration": 7, "velocity": 107}, {"time": 1737, "pitch": 62, "duration": 6, "velocity": 56}, {"time": 1737, "pitch": 66, "duration": 7, "velocity": 39}, {"time": 1743, "pitch": 43, "duration": 15, "velocity": 82}, {"time": 1749, "pitch": 50, "duration": 16, "velocity": 90}, {"time": 1755, "pitch": 59, "duration": 15, "velocity": 95}, {"time": 1755, "pitch": 62, "duration": 15, "velocity": 93}, {"time": 1764, "pitch": 55, "duration": 3, "velocity": 95}, {"time": 1767, "pitch": 43, "duration": 2, "velocity": 95}, {"time": 1773, "pitch": 43, "duration": 9, "velocity": 93}, {"time": 1779, "pitch": 59, "duration": 7, "velocity": 93}, {"time": 1779, "pitch": 62, "duration": 12, "velocity": 95}, {"time": 1785, "pitch": 55, "duration": 5, "velocity": 95}, {"time": 1788, "pitch": 59, "duration": 2, "velocity": 78}, {"time": 1791, "pitch": 38, "duration": 20, "velocity": 83}, {"time": 1797, "pitch": 45, "duration": 16, "velocity": 54}, {"time": 1803, "pitch": 57, "duration": 19, "velocity": 76}, {"time": 1803, "pitch": 62, "duration": 19, "velocity": 89}, {"time": 1803, "pitch": 66, "duration": 19, "velocity": 92}, {"time": 1812, "pitch": 50, "duration": 2, "velocity": 69}, {"time": 1815, "pitch": 38, "duration": 3, "velocity": 93}, {"time": 1821, "pitch": 38, "duration": 6, "velocity": 78}, {"time": 1827, "pitch": 62, "duration": 6, "velocity": 97}, {"time": 1827, "pitch": 66, "duration": 12, "velocity": 107}, {"time": 1830, "pitch": 38, "duration": 5, "velocity": 79}, {"time": 1833, "pitch": 57, "duration": 5, "velocity": 100}, {"time": 1836, "pitch": 62, "duration": 4, "velocity": 77}, {"time": 1839, "pitch": 40, "duration": 22, "velocity": 90}, {"time": 1845, "pitch": 47, "duration": 17, "velocity": 69}, {"time": 1851, "pitch": 64, "duration": 7, "velocity": 93}, {"time": 1851, "pitch": 67, "duration": 21, "velocity": 90}, {"time": 1854, "pitch": 52, "duration": 4, "velocity": 69}, {"time": 1857, "pitch": 59, "duration": 15, "velocity": 92}, {"time": 1860, "pitch": 64, "duration": 12, "velocity": 75}, {"time": 1863, "pitch": 40, "duration": 16, "velocity": 82}, {"time": 1869, "pitch": 47, "duration": 10, "velocity": 100}, {"time": 1875, "pitch": 64, "duration": 6, "velocity": 95}, {"time": 1875, "pitch": 67, "duration": 12, "velocity": 89}, {"time": 1878, "pitch": 52, "duration": 4, "velocity": 56}, {"time": 1881, "pitch": 59, "duration": 8, "velocity": 100}, {"time": 1884, "pitch": 64, "duration": 3, "velocity": 85}, {"time": 1887, "pitch": 47, "duration": 21, "velocity": 83}, {"time": 1893, "pitch": 54, "duration": 7, "velocity": 97}, {"time": 1899, "pitch": 62, "duration": 4, "velocity": 99}, {"time": 1899, "pitch": 66, "duration": 21, "velocity": 117}, {"time": 1902, "pitch": 54, "duration": 9, "velocity": 69}, {"time": 1905, "pitch": 59, "duration": 13, "velocity": 92}, {"time": 1908, "pitch": 62, "duration": 10, "velocity": 69}, {"time": 1911, "pitch": 47, "duration": 2, "velocity": 85}, {"time": 1917, "pitch": 47, "duration": 11, "velocity": 95}, {"time": 1923, "pitch": 62, "duration": 3, "velocity": 93}, {"time": 1923, "pitch": 66, "duration": 10, "velocity": 117}, {"time": 1926, "pitch": 54, "duration": 2, "velocity": 93}, {"time": 1929, "pitch": 59, "duration": 5, "velocity": 97}, {"time": 1932, "pitch": 62, "duration": 2, "velocity": 90}, {"time": 1935, "pitch": 36, "duration": 21, "velocity": 79}, {"time": 1941, "pitch": 48, "duration": 13, "velocity": 85}, {"time": 1947, "pitch": 60, "duration": 4, "velocity": 86}, {"time": 1947, "pitch": 64, "duration": 21, "velocity": 88}, {"time": 1950, "pitch": 43, "duration": 9, "velocity": 38}, {"time": 1953, "pitch": 55, "duration": 15, "velocity": 86}, {"time": 1956, "pitch": 60, "duration": 10, "velocity": 69}, {"time": 1959, "pitch": 36, "duration": 15, "velocity": 83}, {"time": 1965, "pitch": 43, "duration": 9, "velocity": 86}, {"time": 1971, "pitch": 48, "duration": 4, "velocity": 71}, {"time": 1971, "pitch": 60, "duration": 7, "velocity": 90}, {"time": 1971, "pitch": 64, "duration": 12, "velocity": 90}, {"time": 1977, "pitch": 55, "duration": 4, "velocity": 92}, {"time": 1980, "pitch": 60, "duration": 2, "velocity": 64}, {"time": 1983, "pitch": 43, "duration": 15, "velocity": 93}, {"time": 1989, "pitch": 50, "duration": 7, "velocity": 76}, {"time": 1995, "pitch": 62, "duration": 8, "velocity": 75}, {"time": 1995, "pitch": 67, "duration": 8, "velocity": 69}, {"time": 1995, "pitch": 67, "duration": 8, "velocity": 89}, {"time": 1995, "pitch": 71, "duration": 8, "velocity": 67}, {"time": 1995, "pitch": 71, "duration": 8, "velocity": 85}, {"time": 2004, "pitch": 62, "duration": 1, "velocity": 53}, {"time": 2004, "pitch": 62, "duration": 1, "velocity": 93}, {"time": 2004, "pitch": 67, "duration": 1, "velocity": 71}, {"time": 2004, "pitch": 71, "duration": 1, "velocity": 65}, {"time": 2007, "pitch": 40, "duration": 2, "velocity": 76}, {"time": 2013, "pitch": 40, "duration": 14, "velocity": 79}, {"time": 2013, "pitch": 62, "duration": 3, "velocity": 79}, {"time": 2013, "pitch": 67, "duration": 4, "velocity": 82}, {"time": 2013, "pitch": 71, "duration": 5, "velocity": 79}, {"time": 2019, "pitch": 64, "duration": 10, "velocity": 88}, {"time": 2019, "pitch": 67, "duration": 10, "velocity": 85}, {"time": 2025, "pitch": 59, "duration": 5, "velocity": 83}, {"time": 2031, "pitch": 36, "duration": 22, "velocity": 85}, {"time": 2037, "pitch": 43, "duration": 17, "velocity": 56}, {"time": 2043, "pitch": 60, "duration": 19, "velocity": 89}, {"time": 2043, "pitch": 64, "duration": 19, "velocity": 88}, {"time": 2052, "pitch": 55, "duration": 7, "velocity": 89}, {"time": 2055, "pitch": 36, "duration": 2, "velocity": 76}, {"time": 2061, "pitch": 36, "duration": 15, "velocity": 90}, {"time": 2067, "pitch": 60, "duration": 11, "velocity": 83}, {"time": 2067, "pitch": 64, "duration": 12, "velocity": 83}, {"time": 2073, "pitch": 55, "duration": 5, "velocity": 78}, {"time": 2079, "pitch": 38, "duration": 21, "velocity": 89}, {"time": 2085, "pitch": 50, "duration": 15, "velocity": 95}, {"time": 2091, "pitch": 62, "duration": 18, "velocity": 93}, {"time": 2091, "pitch": 66, "duration": 19, "velocity": 99}, {"time": 2100, "pitch": 57, "duration": 4, "velocity": 77}, {"time": 2103, "pitch": 38, "duration": 2, "velocity": 88}, {"time": 2109, "pitch": 38, "duration": 7, "velocity": 85}, {"time": 2115, "pitch": 62, "duration": 12, "velocity": 95}, {"time": 2115, "pitch": 66, "duration": 12, "velocity": 100}, {"time": 2127, "pitch": 41, "duration": 22, "velocity": 70}, {"time": 2133, "pitch": 48, "duration": 16, "velocity": 60}, {"time": 2139, "pitch": 65, "duration": 21, "velocity": 67}, {"time": 2139, "pitch": 69, "duration": 21, "velocity": 64}, {"time": 2148, "pitch": 60, "duration": 12, "velocity": 52}, {"time": 2151, "pitch": 41, "duration": 2, "velocity": 68}, {"time": 2157, "pitch": 41, "duration": 16, "velocity": 58}, {"time": 2163, "pitch": 65, "duration": 12, "velocity": 72}, {"time": 2163, "pitch": 69, "duration": 13, "velocity": 73}, {"time": 2172, "pitch": 60, "duration": 1, "velocity": 33}, {"time": 2175, "pitch": 40, "duration": 22, "velocity": 72}, {"time": 2181, "pitch": 47, "duration": 18, "velocity": 52}, {"time": 2187, "pitch": 64, "duration": 19, "velocity": 72}, {"time": 2187, "pitch": 67, "duration": 19, "velocity": 70}, {"time": 2196, "pitch": 59, "duration": 10, "velocity": 55}, {"time": 2199, "pitch": 40, "duration": 16, "velocity": 85}, {"time": 2205, "pitch": 47, "duration": 10, "velocity": 85}, {"time": 2211, "pitch": 64, "duration": 14, "velocity": 71}, {"time": 2211, "pitch": 67, "duration": 14, "velocity": 69}, {"time": 2217, "pitch": 59, "duration": 6, "velocity": 70}, {"time": 2223, "pitch": 41, "duration": 21, "velocity": 66}, {"time": 2229, "pitch": 48, "duration": 17, "velocity": 61}, {"time": 2235, "pitch": 65, "duration": 20, "velocity": 73}, {"time": 2235, "pitch": 69, "duration": 20, "velocity": 72}, {"time": 2244, "pitch": 60, "duration": 4, "velocity": 72}, {"time": 2247, "pitch": 41, "duration": 16, "velocity": 86}, {"time": 2253, "pitch": 48, "duration": 10, "velocity": 90}, {"time": 2259, "pitch": 65, "duration": 14, "velocity": 112}, {"time": 2259, "pitch": 69, "duration": 12, "velocity": 107}, {"time": 2265, "pitch": 60, "duration": 6, "velocity": 69}, {"time": 2271, "pitch": 40, "duration": 38, "velocity": 88}, {"time": 2277, "pitch": 52, "duration": 9, "velocity": 36}, {"time": 2277, "pitch": 59, "duration": 4, "velocity": 72}, {"time": 2277, "pitch": 64, "duration": 4, "velocity": 79}, {"time": 2277, "pitch": 67, "duration": 4, "velocity": 85}, {"time": 2283, "pitch": 64, "duration": 8, "velocity": 100}, {"time": 2283, "pitch": 67, "duration": 9, "velocity": 95}, {"time": 2292, "pitch": 52, "duration": 6, "velocity": 75}, {"time": 2295, "pitch": 59, "duration": 9, "velocity": 73}, {"time": 2295, "pitch": 64, "duration": 9, "velocity": 95}, {"time": 2295, "pitch": 67, "duration": 9, "velocity": 90}, {"time": 2301, "pitch": 52, "duration": 5, "velocity": 102}, {"time": 2307, "pitch": 64, "duration": 6, "velocity": 102}, {"time": 2307, "pitch": 67, "duration": 11, "velocity": 122}, {"time": 2313, "pitch": 59, "duration": 6, "velocity": 99}, {"time": 2316, "pitch": 64, "duration": 3, "velocity": 67}, {"time": 2319, "pitch": 36, "duration": 41, "velocity": 92}, {"time": 2325, "pitch": 48, "duration": 15, "velocity": 62}, {"time": 2331, "pitch": 55, "duration": 12, "velocity": 71}, {"time": 2331, "pitch": 60, "duration": 8, "velocity": 96}, {"time": 2331, "pitch": 63, "duration": 8, "velocity": 112}, {"time": 2340, "pitch": 60, "duration": 2, "velocity": 77}, {"time": 2340, "pitch": 63, "duration": 2, "velocity": 79}, {"time": 2343, "pitch": 48, "duration": 9, "velocity": 72}, {"time": 2349, "pitch": 55, "duration": 10, "velocity": 83}, {"time": 2349, "pitch": 60, "duration": 10, "velocity": 92}, {"time": 2349, "pitch": 63, "duration": 10, "velocity": 97}, {"time": 2355, "pitch": 48, "duration": 5, "velocity": 58}, {"time": 2361, "pitch": 55, "duration": 5, "velocity": 62}, {"time": 2361, "pitch": 60, "duration": 5, "velocity": 93}, {"time": 2361, "pitch": 63, "duration": 6, "velocity": 99}, {"time": 2367, "pitch": 38, "duration": 23, "velocity": 77}, {"time": 2373, "pitch": 50, "duration": 13, "velocity": 73}, {"time": 2379, "pitch": 57, "duration": 8, "velocity": 85}, {"time": 2379, "pitch": 62, "duration": 8, "velocity": 92}, {"time": 2379, "pitch": 65, "duration": 8, "velocity": 90}, {"time": 2385, "pitch": 45, "duration": 3, "velocity": 28}, {"time": 2388, "pitch": 57, "duration": 2, "velocity": 65}, {"time": 2388, "pitch": 62, "duration": 2, "velocity": 72}, {"time": 2388, "pitch": 65, "duration": 2, "velocity": 73}, {"time": 2391, "pitch": 38, "duration": 2, "velocity": 86}, {"time": 2397, "pitch": 38, "duration": 7, "velocity": 78}, {"time": 2403, "pitch": 62, "duration": 10, "velocity": 99}, {"time": 2403, "pitch": 65, "duration": 10, "velocity": 92}, {"time": 2409, "pitch": 57, "duration": 6, "velocity": 89}, {"time": 2415, "pitch": 39, "duration": 21, "velocity": 85}, {"time": 2421, "pitch": 51, "duration": 17, "velocity": 61}, {"time": 2427, "pitch": 55, "duration": 7, "velocity": 79}, {"time": 2427, "pitch": 58, "duration": 7, "velocity": 96}, {"time": 2427, "pitch": 63, "duration": 7, "velocity": 92}, {"time": 2436, "pitch": 55, "duration": 2, "velocity": 70}, {"time": 2436, "pitch": 58, "duration": 2, "velocity": 89}, {"time": 2436, "pitch": 63, "duration": 3, "velocity": 81}, {"time": 2439, "pitch": 39, "duration": 2, "velocity": 90}, {"time": 2445, "pitch": 39, "duration": 7, "velocity": 89}, {"time": 2451, "pitch": 58, "duration": 11, "velocity": 117}, {"time": 2451, "pitch": 63, "duration": 11, "velocity": 107}, {"time": 2457, "pitch": 55, "duration": 6, "velocity": 82}, {"time": 2463, "pitch": 41, "duration": 21, "velocity": 85}, {"time": 2469, "pitch": 48, "duration": 16, "velocity": 77}, {"time": 2475, "pitch": 53, "duration": 6, "velocity": 86}, {"time": 2475, "pitch": 57, "duration": 7, "velocity": 93}, {"time": 2475, "pitch": 60, "duration": 7, "velocity": 90}, {"time": 2484, "pitch": 53, "duration": 2, "velocity": 82}, {"time": 2484, "pitch": 57, "duration": 1, "velocity": 82}, {"time": 2484, "pitch": 60, "duration": 2, "velocity": 79}, {"time": 2487, "pitch": 41, "duration": 1, "velocity": 70}, {"time": 2493, "pitch": 41, "duration": 8, "velocity": 79}, {"time": 2499, "pitch": 53, "duration": 5, "velocity": 89}, {"time": 2499, "pitch": 57, "duration": 5, "velocity": 95}, {"time": 2499, "pitch": 60, "duration": 5, "velocity": 95}, {"time": 2511, "pitch": 43, "duration": 11, "velocity": 77}, {"time": 2511, "pitch": 55, "duration": 8, "velocity": 89}, {"time": 2511, "pitch": 60, "duration": 8, "velocity": 89}, {"time": 2511, "pitch": 62, "duration": 8, "velocity": 90}, {"time": 2520, "pitch": 55, "duration": 1, "velocity": 72}, {"time": 2520, "pitch": 60, "duration": 1, "velocity": 83}, {"time": 2520, "pitch": 62, "duration": 1, "velocity": 79}, {"time": 2529, "pitch": 43, "duration": 18, "velocity": 57}, {"time": 2529, "pitch": 50, "duration": 18, "velocity": 76}, {"time": 2529, "pitch": 55, "duration": 16, "velocity": 76}, {"time": 2529, "pitch": 59, "duration": 16, "velocity": 82}, {"time": 2529, "pitch": 61, "duration": 1, "velocity": 65}, {"time": 2529, "pitch": 62, "duration": 15, "velocity": 85}, {"time": 2547, "pitch": 59, "duration": 4, "velocity": 83}, {"time": 2547, "pitch": 62, "duration": 4, "velocity": 89}, {"time": 2550, "pitch": 43, "duration": 8, "velocity": 78}, {"time": 2553, "pitch": 55, "duration": 13, "velocity": 90}, {"time": 2553, "pitch": 62, "duration": 1, "velocity": 35}, {"time": 2559, "pitch": 48, "duration": 7, "velocity": 89}, {"time": 2559, "pitch": 60, "duration": 7, "velocity": 88}, {"time": 2559, "pitch": 62, "duration": 7, "velocity": 83}, {"time": 2568, "pitch": 48, "duration": 1, "velocity": 53}, {"time": 2568, "pitch": 55, "duration": 1, "velocity": 62}, {"time": 2568, "pitch": 60, "duration": 1, "velocity": 78}, {"time": 2568, "pitch": 62, "duration": 1, "velocity": 77}, {"time": 2577, "pitch": 43, "duration": 30, "velocity": 78}, {"time": 2577, "pitch": 55, "duration": 30, "velocity": 78}, {"time": 2577, "pitch": 59, "duration": 30, "velocity": 72}, {"time": 2577, "pitch": 62, "duration": 30, "velocity": 73}, {"time": 2607, "pitch": 43, "duration": 22, "velocity": 78}, {"time": 2613, "pitch": 50, "duration": 18, "velocity": 63}, {"time": 2619, "pitch": 59, "duration": 20, "velocity": 69}, {"time": 2619, "pitch": 62, "duration": 20, "velocity": 68}, {"time": 2628, "pitch": 55, "duration": 10, "velocity": 58}, {"time": 2631, "pitch": 43, "duration": 14, "velocity": 75}, {"time": 2637, "pitch": 50, "duration": 8, "velocity": 57}, {"time": 2643, "pitch": 59, "duration": 13, "velocity": 64}, {"time": 2643, "pitch": 62, "duration": 13, "velocity": 66}, {"time": 2649, "pitch": 55, "duration": 4, "velocity": 41}, {"time": 2655, "pitch": 42, "duration": 23, "velocity": 72}, {"time": 2661, "pitch": 54, "duration": 18, "velocity": 48}, {"time": 2667, "pitch": 62, "duration": 19, "velocity": 65}, {"time": 2667, "pitch": 66, "duration": 19, "velocity": 70}, {"time": 2676, "pitch": 59, "duration": 7, "velocity": 57}, {"time": 2679, "pitch": 42, "duration": 17, "velocity": 76}, {"time": 2685, "pitch": 59, "duration": 9, "velocity": 64}, {"time": 2691, "pitch": 66, "duration": 13, "velocity": 93}, {"time": 2697, "pitch": 62, "duration": 7, "velocity": 62}, {"time": 2703, "pitch": 40, "duration": 21, "velocity": 63}, {"time": 2709, "pitch": 47, "duration": 18, "velocity": 53}, {"time": 2715, "pitch": 64, "duration": 19, "velocity": 67}, {"time": 2715, "pitch": 67, "duration": 19, "velocity": 64}, {"time": 2724, "pitch": 59, "duration": 9, "velocity": 72}, {"time": 2727, "pitch": 40, "duration": 15, "velocity": 72}, {"time": 2733, "pitch": 47, "duration": 10, "velocity": 63}, {"time": 2739, "pitch": 64, "duration": 13, "velocity": 76}, {"time": 2739, "pitch": 67, "duration": 13, "velocity": 73}, {"time": 2745, "pitch": 59, "duration": 7, "velocity": 73}, {"time": 2751, "pitch": 47, "duration": 22, "velocity": 62}, {"time": 2757, "pitch": 54, "duration": 17, "velocity": 69}, {"time": 2763, "pitch": 62, "duration": 19, "velocity": 61}, {"time": 2763, "pitch": 66, "duration": 19, "velocity": 82}, {"time": 2772, "pitch": 59, "duration": 17, "velocity": 67}, {"time": 2775, "pitch": 47, "duration": 18, "velocity": 67}, {"time": 2781, "pitch": 54, "duration": 8, "velocity": 74}, {"time": 2787, "pitch": 66, "duration": 11, "velocity": 102}, {"time": 2793, "pitch": 62, "duration": 5, "velocity": 71}, {"time": 2796, "pitch": 59, "duration": 4, "velocity": 72}, {"time": 2799, "pitch": 36, "duration": 21, "velocity": 64}, {"time": 2805, "pitch": 43, "duration": 17, "velocity": 69}, {"time": 2811, "pitch": 60, "duration": 20, "velocity": 72}, {"time": 2811, "pitch": 64, "duration": 20, "velocity": 76}, {"time": 2820, "pitch": 55, "duration": 12, "velocity": 59}, {"time": 2823, "pitch": 36, "duration": 16, "velocity": 70}, {"time": 2829, "pitch": 43, "duration": 10, "velocity": 62}, {"time": 2835, "pitch": 64, "duration": 12, "velocity": 86}, {"time": 2841, "pitch": 55, "duration": 5, "velocity": 72}, {"time": 2844, "pitch": 60, "duration": 3, "velocity": 62}, {"time": 2847, "pitch": 43, "duration": 15, "velocity": 73}, {"time": 2853, "pitch": 50, "duration": 9, "velocity": 60}, {"time": 2859, "pitch": 67, "duration": 11, "velocity": 85}, {"time": 2859, "pitch": 71, "duration": 12, "velocity": 76}, {"time": 2868, "pitch": 62, "duration": 4, "velocity": 85}, {"time": 2871, "pitch": 40, "duration": 2, "velocity": 82}, {"time": 2877, "pitch": 40, "duration": 12, "velocity": 70}, {"time": 2883, "pitch": 64, "duration": 14, "velocity": 85}, {"time": 2883, "pitch": 67, "duration": 14, "velocity": 83}, {"time": 2889, "pitch": 59, "duration": 5, "velocity": 77}, {"time": 2895, "pitch": 36, "duration": 21, "velocity": 90}, {"time": 2901, "pitch": 43, "duration": 16, "velocity": 58}, {"time": 2907, "pitch": 64, "duration": 20, "velocity": 89}, {"time": 2907, "pitch": 67, "duration": 20, "velocity": 83}, {"time": 2916, "pitch": 60, "duration": 3, "velocity": 92}, {"time": 2919, "pitch": 36, "duration": 2, "velocity": 77}, {"time": 2925, "pitch": 36, "duration": 6, "velocity": 82}, {"time": 2931, "pitch": 48, "duration": 10, "velocity": 88}, {"time": 2931, "pitch": 60, "duration": 1, "velocity": 69}, {"time": 2931, "pitch": 64, "duration": 12, "velocity": 83}, {"time": 2931, "pitch": 67, "duration": 13, "velocity": 83}, {"time": 2937, "pitch": 60, "duration": 6, "velocity": 88}, {"time": 2943, "pitch": 38, "duration": 15, "velocity": 92}, {"time": 2949, "pitch": 45, "duration": 9, "velocity": 42}, {"time": 2955, "pitch": 50, "duration": 1, "velocity": 33}, {"time": 2955, "pitch": 57, "duration": 3, "velocity": 81}, {"time": 2955, "pitch": 62, "duration": 3, "velocity": 81}, {"time": 2955, "pitch": 66, "duration": 3, "velocity": 88}, {"time": 2961, "pitch": 38, "duration": 2, "velocity": 56}, {"time": 2961, "pitch": 50, "duration": 3, "velocity": 96}, {"time": 2961, "pitch": 57, "duration": 3, "velocity": 82}, {"time": 2961, "pitch": 62, "duration": 3, "velocity": 88}, {"time": 2961, "pitch": 66, "duration": 3, "velocity": 78}, {"time": 2967, "pitch": 38, "duration": 2, "velocity": 72}, {"time": 2967, "pitch": 50, "duration": 3, "velocity": 95}, {"time": 2967, "pitch": 57, "duration": 3, "velocity": 97}, {"time": 2967, "pitch": 62, "duration": 3, "velocity": 99}, {"time": 2967, "pitch": 66, "duration": 3, "velocity": 100}, {"time": 2973, "pitch": 38, "duration": 2, "velocity": 76}, {"time": 2973, "pitch": 50, "duration": 3, "velocity": 97}, {"time": 2973, "pitch": 57, "duration": 3, "velocity": 92}, {"time": 2973, "pitch": 62, "duration": 3, "velocity": 99}, {"time": 2973, "pitch": 66, "duration": 3, "velocity": 100}, {"time": 2979, "pitch": 38, "duration": 2, "velocity": 78}, {"time": 2979, "pitch": 50, "duration": 2, "velocity": 97}, {"time": 2979, "pitch": 57, "duration": 2, "velocity": 100}, {"time": 2979, "pitch": 62, "duration": 2, "velocity": 112}, {"time": 2979, "pitch": 66, "duration": 2, "velocity": 107}, {"time": 2985, "pitch": 50, "duration": 3, "velocity": 107}, {"time": 2985, "pitch": 57, "duration": 3, "velocity": 100}, {"time": 2985, "pitch": 62, "duration": 3, "velocity": 127}, {"time": 2985, "pitch": 66, "duration": 4, "velocity": 117}, {"time": 2991, "pitch": 43, "duration": 22, "velocity": 96}, {"time": 2997, "pitch": 62, "duration": 4, "velocity": 76}, {"time": 2997, "pitch": 67, "duration": 4, "velocity": 90}, {"time": 2997, "pitch": 71, "duration": 3, "velocity": 99}, {"time": 3003, "pitch": 50, "duration": 12, "velocity": 35}, {"time": 3003, "pitch": 55, "duration": 2, "velocity": 38}, {"time": 3003, "pitch": 62, "duration": 7, "velocity": 99}, {"time": 3003, "pitch": 67, "duration": 7, "velocity": 112}, {"time": 3003, "pitch": 71, "duration": 7, "velocity": 100}, {"time": 3012, "pitch": 62, "duration": 9, "velocity": 99}, {"time": 3012, "pitch": 67, "duration": 9, "velocity": 107}, {"time": 3012, "pitch": 71, "duration": 10, "velocity": 95}, {"time": 3015, "pitch": 43, "duration": 2, "velocity": 90}, {"time": 3021, "pitch": 43, "duration": 7, "velocity": 90}, {"time": 3027, "pitch": 67, "duration": 3, "velocity": 100}, {"time": 3027, "pitch": 71, "duration": 3, "velocity": 112}, {"time": 3030, "pitch": 43, "duration": 6, "velocity": 90}, {"time": 3033, "pitch": 67, "duration": 4, "velocity": 97}, {"time": 3033, "pitch": 71, "duration": 4, "velocity": 93}, {"time": 3036, "pitch": 62, "duration": 3, "velocity": 86}, {"time": 3039, "pitch": 38, "duration": 21, "velocity": 97}, {"time": 3045, "pitch": 45, "duration": 16, "velocity": 73}, {"time": 3045, "pitch": 50, "duration": 16, "velocity": 82}, {"time": 3051, "pitch": 57, "duration": 7, "velocity": 89}, {"time": 3051, "pitch": 62, "duration": 7, "velocity": 102}, {"time": 3051, "pitch": 66, "duration": 7, "velocity": 102}, {"time": 3060, "pitch": 57, "duration": 9, "velocity": 88}, {"time": 3060, "pitch": 62, "duration": 9, "velocity": 99}, {"time": 3060, "pitch": 66, "duration": 9, "velocity": 95}, {"time": 3063, "pitch": 38, "duration": 9, "velocity": 85}, {"time": 3069, "pitch": 45, "duration": 17, "velocity": 89}, {"time": 3069, "pitch": 50, "duration": 17, "velocity": 92}, {"time": 3075, "pitch": 62, "duration": 4, "velocity": 102}, {"time": 3075, "pitch": 66, "duration": 4, "velocity": 117}, {"time": 3078, "pitch": 38, "duration": 5, "velocity": 89}, {"time": 3081, "pitch": 62, "duration": 5, "velocity": 99}, {"time": 3081, "pitch": 66, "duration": 5, "velocity": 112}, {"time": 3084, "pitch": 57, "duration": 3, "velocity": 86}, {"time": 3087, "pitch": 40, "duration": 22, "velocity": 97}, {"time": 3093, "pitch": 47, "duration": 18, "velocity": 93}, {"time": 3099, "pitch": 59, "duration": 8, "velocity": 95}, {"time": 3099, "pitch": 64, "duration": 7, "velocity": 99}, {"time": 3099, "pitch": 67, "duration": 8, "velocity": 96}, {"time": 3105, "pitch": 52, "duration": 2, "velocity": 38}, {"time": 3108, "pitch": 59, "duration": 10, "velocity": 86}, {"time": 3108, "pitch": 64, "duration": 10, "velocity": 92}, {"time": 3108, "pitch": 67, "duration": 10, "velocity": 89}, {"time": 3111, "pitch": 40, "duration": 3, "velocity": 85}, {"time": 3117, "pitch": 40, "duration": 11, "velocity": 95}, {"time": 3123, "pitch": 64, "duration": 6, "velocity": 97}, {"time": 3123, "pitch": 67, "duration": 11, "velocity": 96}, {"time": 3126, "pitch": 52, "duration": 7, "velocity": 83}, {"time": 3129, "pitch": 59, "duration": 6, "velocity": 117}, {"time": 3132, "pitch": 64, "duration": 2, "velocity": 77}, {"time": 3135, "pitch": 47, "duration": 21, "velocity": 96}, {"time": 3141, "pitch": 54, "duration": 17, "velocity": 95}, {"time": 3147, "pitch": 59, "duration": 6, "velocity": 86}, {"time": 3147, "pitch": 62, "duration": 7, "velocity": 97}, {"time": 3147, "pitch": 66, "duration": 7, "velocity": 107}, {"time": 3156, "pitch": 59, "duration": 10, "velocity": 89}, {"time": 3156, "pitch": 62, "duration": 10, "velocity": 99}, {"time": 3156, "pitch": 66, "duration": 11, "velocity": 112}, {"time": 3159, "pitch": 47, "duration": 2, "velocity": 99}, {"time": 3165, "pitch": 47, "duration": 5, "velocity": 99}, {"time": 3171, "pitch": 62, "duration": 2, "velocity": 102}, {"time": 3171, "pitch": 66, "duration": 3, "velocity": 122}, {"time": 3174, "pitch": 47, "duration": 8, "velocity": 100}, {"time": 3177, "pitch": 62, "duration": 4, "velocity": 99}, {"time": 3177, "pitch": 66, "duration": 4, "velocity": 122}, {"time": 3180, "pitch": 59, "duration": 3, "velocity": 90}, {"time": 3183, "pitch": 48, "duration": 21, "velocity": 93}, {"time": 3189, "pitch": 55, "duration": 7, "velocity": 93}, {"time": 3195, "pitch": 60, "duration": 18, "velocity": 82}, {"time": 3195, "pitch": 64, "duration": 18, "velocity": 96}, {"time": 3204, "pitch": 55, "duration": 7, "velocity": 89}, {"time": 3207, "pitch": 48, "duration": 1, "velocity": 79}, {"time": 3213, "pitch": 48, "duration": 11, "velocity": 97}, {"time": 3219, "pitch": 60, "duration": 7, "velocity": 96}, {"time": 3219, "pitch": 64, "duration": 12, "velocity": 95}, {"time": 3225, "pitch": 55, "duration": 4, "velocity": 95}, {"time": 3228, "pitch": 60, "duration": 2, "velocity": 81}, {"time": 3231, "pitch": 47, "duration": 12, "velocity": 88}, {"time": 3237, "pitch": 54, "duration": 6, "velocity": 92}, {"time": 3243, "pitch": 62, "duration": 11, "velocity": 97}, {"time": 3243, "pitch": 66, "duration": 11, "velocity": 122}, {"time": 3252, "pitch": 59, "duration": 8, "velocity": 93}, {"time": 3255, "pitch": 40, "duration": 2, "velocity": 90}, {"time": 3261, "pitch": 40, "duration": 11, "velocity": 90}, {"time": 3267, "pitch": 64, "duration": 7, "velocity": 92}, {"time": 3267, "pitch": 67, "duration": 12, "velocity": 89}, {"time": 3270, "pitch": 47, "duration": 3, "velocity": 81}, {"time": 3273, "pitch": 59, "duration": 6, "velocity": 100}, {"time": 3276, "pitch": 64, "duration": 2, "velocity": 78}, {"time": 3279, "pitch": 45, "duration": 21, "velocity": 89}, {"time": 3285, "pitch": 52, "duration": 16, "velocity": 90}, {"time": 3291, "pitch": 60, "duration": 11, "velocity": 99}, {"time": 3291, "pitch": 64, "duration": 12, "velocity": 93}, {"time": 3300, "pitch": 57, "duration": 3, "velocity": 102}, {"time": 3303, "pitch": 47, "duration": 2, "velocity": 83}, {"time": 3309, "pitch": 47, "duration": 14, "velocity": 82}, {"time": 3315, "pitch": 54, "duration": 6, "velocity": 69}, {"time": 3315, "pitch": 62, "duration": 8, "velocity": 96}, {"time": 3315, "pitch": 66, "duration": 12, "velocity": 112}, {"time": 3321, "pitch": 59, "duration": 5, "velocity": 100}, {"time": 3327, "pitch": 48, "duration": 13, "velocity": 90}, {"time": 3333, "pitch": 60, "duration": 4, "velocity": 95}, {"time": 3339, "pitch": 64, "duration": 9, "velocity": 102}, {"time": 3339, "pitch": 67, "duration": 10, "velocity": 107}, {"time": 3348, "pitch": 60, "duration": 3, "velocity": 100}, {"time": 3351, "pitch": 38, "duration": 2, "velocity": 96}, {"time": 3357, "pitch": 38, "duration": 7, "velocity": 89}, {"time": 3363, "pitch": 62, "duration": 4, "velocity": 97}, {"time": 3363, "pitch": 66, "duration": 5, "velocity": 122}, {"time": 3366, "pitch": 38, "duration": 3, "velocity": 93}, {"time": 3369, "pitch": 57, "duration": 7, "velocity": 107}, {"time": 3369, "pitch": 62, "duration": 6, "velocity": 56}, {"time": 3369, "pitch": 66, "duration": 7, "velocity": 39}, {"time": 3375, "pitch": 43, "duration": 15, "velocity": 82}, {"time": 3381, "pitch": 50, "duration": 16, "velocity": 90}, {"time": 3387, "pitch": 59, "duration": 15, "velocity": 95}, {"time": 3387, "pitch": 62, "duration": 15, "velocity": 93}, {"time": 3396, "pitch": 55, "duration": 3, "velocity": 95}, {"time": 3399, "pitch": 43, "duration": 2, "velocity": 95}, {"time": 3405, "pitch": 43, "duration": 9, "velocity": 93}, {"time": 3411, "pitch": 59, "duration": 7, "velocity": 93}, {"time": 3411, "pitch": 62, "duration": 12, "velocity": 95}, {"time": 3417, "pitch": 55, "duration": 5, "velocity": 95}, {"time": 3420, "pitch": 59, "duration": 2, "velocity": 78}, {"time": 3423, "pitch": 38, "duration": 20, "velocity": 83}, {"time": 3429, "pitch": 45, "duration": 16, "velocity": 54}, {"time": 3435, "pitch": 57, "duration": 19, "velocity": 76}, {"time": 3435, "pitch": 62, "duration": 19, "velocity": 89}, {"time": 3435, "pitch": 66, "duration": 19, "velocity": 92}, {"time": 3444, "pitch": 50, "duration": 2, "velocity": 69}, {"time": 3447, "pitch": 38, "duration": 3, "velocity": 93}, {"time": 3453, "pitch": 38, "duration": 6, "velocity": 78}, {"time": 3459, "pitch": 62, "duration": 6, "velocity": 97}, {"time": 3459, "pitch": 66, "duration": 12, "velocity": 107}, {"time": 3462, "pitch": 38, "duration": 5, "velocity": 79}, {"time": 3465, "pitch": 57, "duration": 5, "velocity": 100}, {"time": 3468, "pitch": 62, "duration": 4, "velocity": 77}, {"time": 3471, "pitch": 40, "duration": 22, "velocity": 90}, {"time": 3477, "pitch": 47, "duration": 17, "velocity": 69}, {"time": 3483, "pitch": 64, "duration": 7, "velocity": 93}, {"time": 3483, "pitch": 67, "duration": 21, "velocity": 90}, {"time": 3486, "pitch": 52, "duration": 4, "velocity": 69}, {"time": 3489, "pitch": 59, "duration": 15, "velocity": 92}, {"time": 3492, "pitch": 64, "duration": 12, "velocity": 75}, {"time": 3495, "pitch": 40, "duration": 16, "velocity": 82}, {"time": 3501, "pitch": 47, "duration": 10, "velocity": 100}, {"time": 3507, "pitch": 64, "duration": 6, "velocity": 95}, {"time": 3507, "pitch": 67, "duration": 12, "velocity": 89}, {"time": 3510, "pitch": 52, "duration": 4, "velocity": 56}, {"time": 3513, "pitch": 59, "duration": 8, "velocity": 100}, {"time": 3516, "pitch": 64, "duration": 3, "velocity": 85}, {"time": 3519, "pitch": 47, "duration": 21, "velocity": 83}, {"time": 3525, "pitch": 54, "duration": 7, "velocity": 97}, {"time": 3531, "pitch": 62, "duration": 4, "velocity": 99}, {"time": 3531, "pitch": 66, "duration": 21, "velocity": 117}, {"time": 3534, "pitch": 54, "duration": 9, "velocity": 69}, {"time": 3537, "pitch": 59, "duration": 13, "velocity": 92}, {"time": 3540, "pitch": 62, "duration": 10, "velocity": 69}, {"time": 3543, "pitch": 47, "duration": 2, "velocity": 85}, {"time": 3549, "pitch": 47, "duration": 11, "velocity": 95}, {"time": 3555, "pitch": 62, "duration": 3, "velocity": 93}, {"time": 3555, "pitch": 66, "duration": 10, "velocity": 117}, {"time": 3558, "pitch": 54, "duration": 2, "velocity": 93}, {"time": 3561, "pitch": 59, "duration": 5, "velocity": 97}, {"time": 3564, "pitch": 62, "duration": 2, "velocity": 90}, {"time": 3567, "pitch": 36, "duration": 21, "velocity": 79}, {"time": 3573, "pitch": 48, "duration": 13, "velocity": 85}, {"time": 3579, "pitch": 60, "duration": 4, "velocity": 86}, {"time": 3579, "pitch": 64, "duration": 21, "velocity": 88}, {"time": 3582, "pitch": 43, "duration": 9, "velocity": 38}, {"time": 3585, "pitch": 55, "duration": 15, "velocity": 86}, {"time": 3588, "pitch": 60, "duration": 10, "velocity": 69}, {"time": 3591, "pitch": 36, "duration": 15, "velocity": 83}, {"time": 3597, "pitch": 43, "duration": 9, "velocity": 86}, {"time": 3603, "pitch": 48, "duration": 4, "velocity": 71}, {"time": 3603, "pitch": 60, "duration": 7, "velocity": 90}, {"time": 3603, "pitch": 64, "duration": 12, "velocity": 90}, {"time": 3609, "pitch": 55, "duration": 4, "velocity": 92}, {"time": 3612, "pitch": 60, "duration": 2, "velocity": 64}, {"time": 3615, "pitch": 43, "duration": 15, "velocity": 93}, {"time": 3621, "pitch": 50, "duration": 7, "velocity": 76}, {"time": 3627, "pitch": 62, "duration": 8, "velocity": 75}, {"time": 3627, "pitch": 67, "duration": 8, "velocity": 69}, {"time": 3627, "pitch": 67, "duration": 8, "velocity": 89}, {"time": 3627, "pitch": 71, "duration": 8, "velocity": 67}, {"time": 3627, "pitch": 71, "duration": 8, "velocity": 85}, {"time": 3636, "pitch": 62, "duration": 1, "velocity": 53}, {"time": 3636, "pitch": 62, "duration": 1, "velocity": 93}, {"time": 3636, "pitch": 67, "duration": 1, "velocity": 71}, {"time": 3636, "pitch": 71, "duration": 1, "velocity": 65}, {"time": 3639, "pitch": 40, "duration": 2, "velocity": 76}, {"time": 3645, "pitch": 40, "duration": 14, "velocity": 79}, {"time": 3645, "pitch": 62, "duration": 3, "velocity": 79}, {"time": 3645, "pitch": 67, "duration": 4, "velocity": 82}, {"time": 3645, "pitch": 71, "duration": 5, "velocity": 79}, {"time": 3651, "pitch": 64, "duration": 10, "velocity": 88}, {"time": 3651, "pitch": 67, "duration": 10, "velocity": 85}, {"time": 3657, "pitch": 59, "duration": 5, "velocity": 83}, {"time": 3663, "pitch": 36, "duration": 22, "velocity": 85}, {"time": 3669, "pitch": 43, "duration": 17, "velocity": 56}, {"time": 3675, "pitch": 60, "duration": 19, "velocity": 89}, {"time": 3675, "pitch": 64, "duration": 19, "velocity": 88}, {"time": 3684, "pitch": 55, "duration": 7, "velocity": 89}, {"time": 3687, "pitch": 36, "duration": 2, "velocity": 76}, {"time": 3693, "pitch": 36, "duration": 15, "velocity": 90}, {"time": 3699, "pitch": 60, "duration": 11, "velocity": 83}, {"time": 3699, "pitch": 64, "duration": 12, "velocity": 83}, {"time": 3705, "pitch": 55, "duration": 5, "velocity": 78}, {"time": 3711, "pitch": 38, "duration": 14, "velocity": 68}, {"time": 3711, "pitch": 50, "duration": 13, "velocity": 88}, {"time": 3711, "pitch": 57, "duration": 12, "velocity": 77}, {"time": 3711, "pitch": 62, "duration": 11, "velocity": 89}, {"time": 3711, "pitch": 66, "duration": 11, "velocity": 88}, {"time": 3729, "pitch": 38, "duration": 17, "velocity": 66}, {"time": 3729, "pitch": 50, "duration": 23, "velocity": 88}, {"time": 3729, "pitch": 57, "duration": 16, "velocity": 90}, {"time": 3729, "pitch": 62, "duration": 16, "velocity": 93}, {"time": 3729, "pitch": 66, "duration": 16, "velocity": 96}, {"time": 3747, "pitch": 57, "duration": 4, "velocity": 76}, {"time": 3747, "pitch": 62, "duration": 4, "velocity": 81}, {"time": 3747, "pitch": 66, "duration": 4, "velocity": 69}, {"time": 3759, "pitch": 41, "duration": 3, "velocity": 93}, {"time": 3759, "pitch": 60, "duration": 2, "velocity": 85}, {"time": 3759, "pitch": 65, "duration": 2, "velocity": 78}, {"time": 3759, "pitch": 69, "duration": 2, "velocity": 79}, {"time": 3765, "pitch": 41, "duration": 2, "velocity": 60}, {"time": 3765, "pitch": 60, "duration": 2, "velocity": 73}, {"time": 3765, "pitch": 65, "duration": 2, "velocity": 67}, {"time": 3765, "pitch": 69, "duration": 2, "velocity": 71}, {"time": 3771, "pitch": 41, "duration": 3, "velocity": 72}, {"time": 3771, "pitch": 60, "duration": 2, "velocity": 72}, {"time": 3771, "pitch": 65, "duration": 2, "velocity": 64}, {"time": 3771, "pitch": 69, "duration": 3, "velocity": 71}, {"time": 3777, "pitch": 41, "duration": 2, "velocity": 81}, {"time": 3777, "pitch": 60, "duration": 2, "velocity": 83}, {"time": 3777, "pitch": 65, "duration": 2, "velocity": 76}, {"time": 3777, "pitch": 69, "duration": 2, "velocity": 71}, {"time": 3783, "pitch": 40, "duration": 2, "velocity": 81}, {"time": 3783, "pitch": 64, "duration": 2, "velocity": 82}, {"time": 3783, "pitch": 67, "duration": 2, "velocity": 93}, {"time": 3783, "pitch": 71, "duration": 2, "velocity": 88}, {"time": 3789, "pitch": 40, "duration": 2, "velocity": 76}, {"time": 3789, "pitch": 64, "duration": 2, "velocity": 72}, {"time": 3789, "pitch": 67, "duration": 2, "velocity": 78}, {"time": 3789, "pitch": 71, "duration": 2, "velocity": 74}, {"time": 3795, "pitch": 40, "duration": 2, "velocity": 85}, {"time": 3795, "pitch": 64, "duration": 2, "velocity": 83}, {"time": 3795, "pitch": 67, "duration": 2, "velocity": 86}, {"time": 3795, "pitch": 71, "duration": 2, "velocity": 82}, {"time": 3801, "pitch": 40, "duration": 2, "velocity": 86}, {"time": 3801, "pitch": 64, "duration": 2, "velocity": 86}, {"time": 3801, "pitch": 67, "duration": 1, "velocity": 89}, {"time": 3801, "pitch": 71, "duration": 1, "velocity": 82}, {"time": 3807, "pitch": 39, "duration": 2, "velocity": 99}, {"time": 3807, "pitch": 63, "duration": 1, "velocity": 90}, {"time": 3807, "pitch": 70, "duration": 1, "velocity": 71}, {"time": 3813, "pitch": 39, "duration": 2, "velocity": 85}, {"time": 3813, "pitch": 63, "duration": 2, "velocity": 89}, {"time": 3813, "pitch": 70, "duration": 1, "velocity": 83}, {"time": 3819, "pitch": 39, "duration": 2, "velocity": 86}, {"time": 3819, "pitch": 63, "duration": 2, "velocity": 102}, {"time": 3819, "pitch": 70, "duration": 1, "velocity": 92}, {"time": 3825, "pitch": 39, "duration": 2, "velocity": 95}, {"time": 3825, "pitch": 63, "duration": 2, "velocity": 102}, {"time": 3825, "pitch": 70, "duration": 1, "velocity": 60}, {"time": 3831, "pitch": 38, "duration": 2, "velocity": 90}, {"time": 3831, "pitch": 62, "duration": 2, "velocity": 90}, {"time": 3831, "pitch": 69, "duration": 2, "velocity": 86}, {"time": 3837, "pitch": 38, "duration": 2, "velocity": 92}, {"time": 3837, "pitch": 62, "duration": 2, "velocity": 86}, {"time": 3837, "pitch": 66, "duration": 2, "velocity": 93}, {"time": 3837, "pitch": 69, "duration": 2, "velocity": 77}, {"time": 3843, "pitch": 38, "duration": 2, "velocity": 99}, {"time": 3843, "pitch": 62, "duration": 1, "velocity": 92}, {"time": 3843, "pitch": 66, "duration": 1, "velocity": 100}, {"time": 3843, "pitch": 69, "duration": 2, "velocity": 88}, {"time": 3849, "pitch": 38, "duration": 3, "velocity": 100}, {"time": 3849, "pitch": 62, "duration": 2, "velocity": 96}, {"time": 3849, "pitch": 66, "duration": 2, "velocity": 117}, {"time": 3849, "pitch": 69, "duration": 2, "velocity": 93}, {"time": 3855, "pitch": 43, "duration": 22, "velocity": 96}, {"time": 3861, "pitch": 62, "duration": 4, "velocity": 76}, {"time": 3861, "pitch": 67, "duration": 4, "velocity": 90}, {"time": 3861, "pitch": 71, "duration": 3, "velocity": 99}, {"time": 3867, "pitch": 50, "duration": 12, "velocity": 35}, {"time": 3867, "pitch": 55, "duration": 2, "velocity": 38}, {"time": 3867, "pitch": 62, "duration": 7, "velocity": 99}, {"time": 3867, "pitch": 67, "duration": 7, "velocity": 112}, {"time": 3867, "pitch": 71, "duration": 7, "velocity": 100}, {"time": 3876, "pitch": 62, "duration": 9, "velocity": 99}, {"time": 3876, "pitch": 67, "duration": 9, "velocity": 107}, {"time": 3876, "pitch": 71, "duration": 10, "velocity": 95}, {"time": 3879, "pitch": 43, "duration": 2, "velocity": 90}, {"time": 3885, "pitch": 43, "duration": 7, "velocity": 90}, {"time": 3891, "pitch": 67, "duration": 3, "velocity": 100}, {"time": 3891, "pitch": 71, "duration": 3, "velocity": 112}, {"time": 3894, "pitch": 43, "duration": 6, "velocity": 90}, {"time": 3897, "pitch": 67, "duration": 4, "velocity": 97}, {"time": 3897, "pitch": 71, "duration": 4, "velocity": 93}, {"time": 3900, "pitch": 62, "duration": 3, "velocity": 86}, {"time": 3903, "pitch": 38, "duration": 21, "velocity": 97}, {"time": 3909, "pitch": 45, "duration": 16, "velocity": 73}, {"time": 3909, "pitch": 50, "duration": 16, "velocity": 82}, {"time": 3915, "pitch": 57, "duration": 7, "velocity": 89}, {"time": 3915, "pitch": 62, "duration": 7, "velocity": 102}, {"time": 3915, "pitch": 66, "duration": 7, "velocity": 102}, {"time": 3924, "pitch": 57, "duration": 9, "velocity": 88}, {"time": 3924, "pitch": 62, "duration": 9, "velocity": 99}, {"time": 3924, "pitch": 66, "duration": 9, "velocity": 95}, {"time": 3927, "pitch": 38, "duration": 9, "velocity": 85}, {"time": 3933, "pitch": 45, "duration": 17, "velocity": 89}, {"time": 3933, "pitch": 50, "duration": 17, "velocity": 92}, {"time": 3939, "pitch": 62, "duration": 4, "velocity": 102}, {"time": 3939, "pitch": 66, "duration": 4, "velocity": 117}, {"time": 3942, "pitch": 38, "duration": 5, "velocity": 89}, {"time": 3945, "pitch": 62, "duration": 5, "velocity": 99}, {"time": 3945, "pitch": 66, "duration": 5, "velocity": 112}, {"time": 3948, "pitch": 57, "duration": 3, "velocity": 86}, {"time": 3951, "pitch": 40, "duration": 22, "velocity": 97}, {"time": 3957, "pitch": 47, "duration": 18, "velocity": 93}, {"time": 3963, "pitch": 59, "duration": 8, "velocity": 95}, {"time": 3963, "pitch": 64, "duration": 7, "velocity": 99}, {"time": 3963, "pitch": 67, "duration": 8, "velocity": 96}, {"time": 3969, "pitch": 52, "duration": 2, "velocity": 38}, {"time": 3972, "pitch": 59, "duration": 10, "velocity": 86}, {"time": 3972, "pitch": 64, "duration": 10, "velocity": 92}, {"time": 3972, "pitch": 67, "duration": 10, "velocity": 89}, {"time": 3975, "pitch": 40, "duration": 3, "velocity": 85}, {"time": 3981, "pitch": 40, "duration": 11, "velocity": 95}, {"time": 3987, "pitch": 64, "duration": 6, "velocity": 97}, {"time": 3987, "pitch": 67, "duration": 11, "velocity": 96}, {"time": 3990, "pitch": 52, "duration": 7, "velocity": 83}, {"time": 3993, "pitch": 59, "duration": 6, "velocity": 117}, {"time": 3996, "pitch": 64, "duration": 2, "velocity": 77}, {"time": 3999, "pitch": 47, "duration": 21, "velocity": 96}, {"time": 4005, "pitch": 54, "duration": 17, "velocity": 95}, {"time": 4011, "pitch": 59, "duration": 6, "velocity": 86}, {"time": 4011, "pitch": 62, "duration": 7, "velocity": 97}, {"time": 4011, "pitch": 66, "duration": 7, "velocity": 107}, {"time": 4020, "pitch": 59, "duration": 10, "velocity": 89}, {"time": 4020, "pitch": 62, "duration": 10, "velocity": 99}, {"time": 4020, "pitch": 66, "duration": 11, "velocity": 112}, {"time": 4023, "pitch": 47, "duration": 2, "velocity": 99}, {"time": 4029, "pitch": 47, "duration": 5, "velocity": 99}, {"time": 4035, "pitch": 62, "duration": 2, "velocity": 102}, {"time": 4035, "pitch": 66, "duration": 3, "velocity": 122}, {"time": 4038, "pitch": 47, "duration": 8, "velocity": 100}, {"time": 4041, "pitch": 62, "duration": 4, "velocity": 99}, {"time": 4041, "pitch": 66, "duration": 4, "velocity": 122}, {"time": 4044, "pitch": 59, "duration": 3, "velocity": 90}, {"time": 4047, "pitch": 48, "duration": 21, "velocity": 93}, {"time": 4053, "pitch": 55, "duration": 7, "velocity": 93}, {"time": 4059, "pitch": 60, "duration": 18, "velocity": 82}, {"time": 4059, "pitch": 64, "duration": 18, "velocity": 96}, {"time": 4068, "pitch": 55, "duration": 7, "velocity": 89}, {"time": 4071, "pitch": 48, "duration": 1, "velocity": 79}, {"time": 4077, "pitch": 48, "duration": 11, "velocity": 97}, {"time": 4083, "pitch": 60, "duration": 7, "velocity": 96}, {"time": 4083, "pitch": 64, "duration": 12, "velocity": 95}, {"time": 4089, "pitch": 55, "duration": 4, "velocity": 95}, {"time": 4092, "pitch": 60, "duration": 2, "velocity": 81}, {"time": 4095, "pitch": 47, "duration": 12, "velocity": 88}, {"time": 4101, "pitch": 54, "duration": 6, "velocity": 92}, {"time": 4107, "pitch": 62, "duration": 11, "velocity": 97}, {"time": 4107, "pitch": 66, "duration": 11, "velocity": 122}, {"time": 4116, "pitch": 59, "duration": 8, "velocity": 93}, {"time": 4119, "pitch": 40, "duration": 2, "velocity": 90}, {"time": 4125, "pitch": 40, "duration": 11, "velocity": 90}, {"time": 4131, "pitch": 64, "duration": 7, "velocity": 92}, {"time": 4131, "pitch": 67, "duration": 12, "velocity": 89}, {"time": 4134, "pitch": 47, "duration": 3, "velocity": 81}, {"time": 4137, "pitch": 59, "duration": 6, "velocity": 100}, {"time": 4140, "pitch": 64, "duration": 2, "velocity": 78}, {"time": 4143, "pitch": 45, "duration": 21, "velocity": 89}, {"time": 4149, "pitch": 52, "duration": 16, "velocity": 90}, {"time": 4155, "pitch": 60, "duration": 11, "velocity": 99}, {"time": 4155, "pitch": 64, "duration": 12, "velocity": 93}, {"time": 4164, "pitch": 57, "duration": 3, "velocity": 102}, {"time": 4167, "pitch": 47, "duration": 2, "velocity": 83}, {"time": 4173, "pitch": 47, "duration": 14, "velocity": 82}, {"time": 4179, "pitch": 54, "duration": 6, "velocity": 69}, {"time": 4179, "pitch": 62, "duration": 8, "velocity": 96}, {"time": 4179, "pitch": 66, "duration": 12, "velocity": 112}, {"time": 4185, "pitch": 59, "duration": 5, "velocity": 100}, {"time": 4191, "pitch": 48, "duration": 13, "velocity": 90}, {"time": 4197, "pitch": 60, "duration": 4, "velocity": 95}, {"time": 4203, "pitch": 64, "duration": 9, "velocity": 102}, {"time": 4203, "pitch": 67, "duration": 10, "velocity": 107}, {"time": 4212, "pitch": 60, "duration": 3, "velocity": 100}, {"time": 4215, "pitch": 38, "duration": 2, "velocity": 96}, {"time": 4221, "pitch": 38, "duration": 7, "velocity": 89}, {"time": 4227, "pitch": 62, "duration": 4, "velocity": 97}, {"time": 4227, "pitch": 66, "duration": 5, "velocity": 122}, {"time": 4230, "pitch": 38, "duration": 3, "velocity": 93}, {"time": 4233, "pitch": 57, "duration": 7, "velocity": 107}, {"time": 4233, "pitch": 62, "duration": 6, "velocity": 56}, {"time": 4233, "pitch": 66, "duration": 7, "velocity": 39}, {"time": 4239, "pitch": 43, "duration": 15, "velocity": 82}, {"time": 4245, "pitch": 50, "duration": 16, "velocity": 90}, {"time": 4251, "pitch": 59, "duration": 15, "velocity": 95}, {"time": 4251, "pitch": 62, "duration": 15, "velocity": 93}, {"time": 4260, "pitch": 55, "duration": 3, "velocity": 95}, {"time": 4263, "pitch": 43, "duration": 2, "velocity": 95}, {"time": 4269, "pitch": 43, "duration": 9, "velocity": 93}, {"time": 4275, "pitch": 59, "duration": 7, "velocity": 93}, {"time": 4275, "pitch": 62, "duration": 12, "velocity": 95}, {"time": 4281, "pitch": 55, "duration": 5, "velocity": 95}, {"time": 4284, "pitch": 59, "duration": 2, "velocity": 78}, {"time": 4287, "pitch": 38, "duration": 20, "velocity": 83}, {"time": 4293, "pitch": 45, "duration": 16, "velocity": 54}, {"time": 4299, "pitch": 57, "duration": 19, "velocity": 76}, {"time": 4299, "pitch": 62, "duration": 19, "velocity": 89}, {"time": 4299, "pitch": 66, "duration": 19, "velocity": 92}, {"time": 4308, "pitch": 50, "duration": 2, "velocity": 69}, {"time": 4311, "pitch": 38, "duration": 3, "velocity": 93}, {"time": 4317, "pitch": 38, "duration": 6, "velocity": 78}, {"time": 4323, "pitch": 62, "duration": 6, "velocity": 97}, {"time": 4323, "pitch": 66, "duration": 12, "velocity": 107}, {"time": 4326, "pitch": 38, "duration": 5, "velocity": 79}, {"time": 4329, "pitch": 57, "duration": 5, "velocity": 100}, {"time": 4332, "pitch": 62, "duration": 4, "velocity": 77}, {"time": 4335, "pitch": 40, "duration": 22, "velocity": 90}, {"time": 4341, "pitch": 47, "duration": 17, "velocity": 69}, {"time": 4347, "pitch": 64, "duration": 7, "velocity": 93}, {"time": 4347, "pitch": 67, "duration": 21, "velocity": 90}, {"time": 4350, "pitch": 52, "duration": 4, "velocity": 69}, {"time": 4353, "pitch": 59, "duration": 15, "velocity": 92}, {"time": 4356, "pitch": 64, "duration": 12, "velocity": 75}, {"time": 4359, "pitch": 40, "duration": 16, "velocity": 82}, {"time": 4365, "pitch": 47, "duration": 10, "velocity": 100}, {"time": 4371, "pitch": 64, "duration": 6, "velocity": 95}, {"time": 4371, "pitch": 67, "duration": 12, "velocity": 89}, {"time": 4374, "pitch": 52, "duration": 4, "velocity": 56}, {"time": 4377, "pitch": 59, "duration": 8, "velocity": 100}, {"time": 4380, "pitch": 64, "duration": 3, "velocity": 85}, {"time": 4383, "pitch": 47, "duration": 21, "velocity": 83}, {"time": 4389, "pitch": 54, "duration": 7, "velocity": 97}, {"time": 4395, "pitch": 62, "duration": 4, "velocity": 99}, {"time": 4395, "pitch": 66, "duration": 21, "velocity": 117}, {"time": 4398, "pitch": 54, "duration": 9, "velocity": 69}, {"time": 4401, "pitch": 59, "duration": 13, "velocity": 92}, {"time": 4404, "pitch": 62, "duration": 10, "velocity": 69}, {"time": 4407, "pitch": 47, "duration": 2, "velocity": 85}, {"time": 4413, "pitch": 47, "duration": 11, "velocity": 95}, {"time": 4419, "pitch": 62, "duration": 3, "velocity": 93}, {"time": 4419, "pitch": 66, "duration": 10, "velocity": 117}, {"time": 4422, "pitch": 54, "duration": 2, "velocity": 93}, {"time": 4425, "pitch": 59, "duration": 5, "velocity": 97}, {"time": 4428, "pitch": 62, "duration": 2, "velocity": 90}, {"time": 4431, "pitch": 36, "duration": 21, "velocity": 79}, {"time": 4437, "pitch": 48, "duration": 13, "velocity": 85}, {"time": 4443, "pitch": 60, "duration": 4, "velocity": 86}, {"time": 4443, "pitch": 64, "duration": 21, "velocity": 88}, {"time": 4446, "pitch": 43, "duration": 9, "velocity": 38}, {"time": 4449, "pitch": 55, "duration": 15, "velocity": 86}, {"time": 4452, "pitch": 60, "duration": 10, "velocity": 69}, {"time": 4455, "pitch": 36, "duration": 15, "velocity": 83}, {"time": 4461, "pitch": 43, "duration": 9, "velocity": 86}, {"time": 4467, "pitch": 48, "duration": 4, "velocity": 71}, {"time": 4467, "pitch": 60, "duration": 7, "velocity": 90}, {"time": 4467, "pitch": 64, "duration": 12, "velocity": 90}, {"time": 4473, "pitch": 55, "duration": 4, "velocity": 92}, {"time": 4476, "pitch": 60, "duration": 2, "velocity": 64}, {"time": 4479, "pitch": 43, "duration": 15, "velocity": 93}, {"time": 4485, "pitch": 50, "duration": 7, "velocity": 76}, {"time": 4491, "pitch": 62, "duration": 8, "velocity": 75}, {"time": 4491, "pitch": 67, "duration": 8, "velocity": 69}, {"time": 4491, "pitch": 67, "duration": 8, "velocity": 89}, {"time": 4491, "pitch": 71, "duration": 8, "velocity": 67}, {"time": 4491, "pitch": 71, "duration": 8, "velocity": 85}, {"time": 4500, "pitch": 62, "duration": 1, "velocity": 53}, {"time": 4500, "pitch": 62, "duration": 1, "velocity": 93}, {"time": 4500, "pitch": 67, "duration": 1, "velocity": 71}, {"time": 4500, "pitch": 71, "duration": 1, "velocity": 65}, {"time": 4503, "pitch": 40, "duration": 2, "velocity": 76}, {"time": 4509, "pitch": 40, "duration": 14, "velocity": 79}, {"time": 4509, "pitch": 62, "duration": 3, "velocity": 79}, {"time": 4509, "pitch": 67, "duration": 4, "velocity": 82}, {"time": 4509, "pitch": 71, "duration": 5, "velocity": 79}, {"time": 4515, "pitch": 64, "duration": 10, "velocity": 88}, {"time": 4515, "pitch": 67, "duration": 10, "velocity": 85}, {"time": 4521, "pitch": 59, "duration": 5, "velocity": 83}, {"time": 4527, "pitch": 36, "duration": 22, "velocity": 85}, {"time": 4533, "pitch": 43, "duration": 17, "velocity": 56}, {"time": 4539, "pitch": 60, "duration": 19, "velocity": 89}, {"time": 4539, "pitch": 64, "duration": 19, "velocity": 88}, {"time": 4548, "pitch": 55, "duration": 7, "velocity": 89}, {"time": 4551, "pitch": 36, "duration": 2, "velocity": 76}, {"time": 4557, "pitch": 36, "duration": 15, "velocity": 90}, {"time": 4563, "pitch": 60, "duration": 11, "velocity": 83}, {"time": 4563, "pitch": 64, "duration": 12, "velocity": 83}, {"time": 4569, "pitch": 55, "duration": 5, "velocity": 78}, {"time": 4575, "pitch": 38, "duration": 7, "velocity": 85}, {"time": 4575, "pitch": 57, "duration": 10, "velocity": 85}, {"time": 4575, "pitch": 62, "duration": 9, "velocity": 93}, {"time": 4575, "pitch": 66, "duration": 10, "velocity": 90}, {"time": 4584, "pitch": 38, "duration": 4, "velocity": 57}, {"time": 4584, "pitch": 50, "duration": 3, "velocity": 86}, {"time": 4587, "pitch": 57, "duration": 1, "velocity": 69}, {"time": 4587, "pitch": 62, "duration": 1, "velocity": 92}, {"time": 4587, "pitch": 66, "duration": 1, "velocity": 92}, {"time": 4593, "pitch": 38, "duration": 29, "velocity": 81}, {"time": 4593, "pitch": 50, "duration": 29, "velocity": 95}, {"time": 4593, "pitch": 57, "duration": 29, "velocity": 90}, {"time": 4593, "pitch": 62, "duration": 29, "velocity": 97}, {"time": 4593, "pitch": 66, "duration": 29, "velocity": 96}, {"time": 4623, "pitch": 43, "duration": 21, "velocity": 88}, {"time": 4629, "pitch": 50, "duration": 16, "velocity": 65}, {"time": 4635, "pitch": 62, "duration": 19, "velocity": 90}, {"time": 4644, "pitch": 55, "duration": 7, "velocity": 73}, {"time": 4647, "pitch": 43, "duration": 2, "velocity": 72}, {"time": 4652, "pitch": 43, "duration": 10, "velocity": 79}, {"time": 4659, "pitch": 62, "duration": 23, "velocity": 81}, {"time": 4665, "pitch": 55, "duration": 4, "velocity": 73}, {"time": 4668, "pitch": 59, "duration": 6, "velocity": 56}, {"time": 4671, "pitch": 42, "duration": 22, "velocity": 76}, {"time": 4677, "pitch": 54, "duration": 17, "velocity": 50}, {"time": 4683, "pitch": 62, "duration": 37, "velocity": 55}, {"time": 4683, "pitch": 66, "duration": 21, "velocity": 72}, {"time": 4692, "pitch": 59, "duration": 10, "velocity": 56}, {"time": 4695, "pitch": 42, "duration": 2, "velocity": 74}, {"time": 4701, "pitch": 42, "duration": 15, "velocity": 93}, {"time": 4706, "pitch": 66, "duration": 14, "velocity": 88}, {"time": 4712, "pitch": 59, "duration": 8, "velocity": 74}, {"time": 4719, "pitch": 40, "duration": 22, "velocity": 68}, {"time": 4725, "pitch": 52, "duration": 16, "velocity": 34}, {"time": 4731, "pitch": 67, "duration": 36, "velocity": 75}, {"time": 4739, "pitch": 59, "duration": 14, "velocity": 69}, {"time": 4742, "pitch": 40, "duration": 3, "velocity": 75}, {"time": 4748, "pitch": 40, "duration": 11, "velocity": 63}, {"time": 4755, "pitch": 64, "duration": 11, "velocity": 79}, {"time": 4761, "pitch": 59, "duration": 7, "velocity": 55}, {"time": 4767, "pitch": 36, "duration": 23, "velocity": 69}, {"time": 4773, "pitch": 48, "duration": 18, "velocity": 54}, {"time": 4780, "pitch": 64, "duration": 41, "velocity": 81}, {"time": 4788, "pitch": 55, "duration": 13, "velocity": 55}, {"time": 4792, "pitch": 36, "duration": 4, "velocity": 66}, {"time": 4798, "pitch": 36, "duration": 18, "velocity": 41}, {"time": 4807, "pitch": 60, "duration": 14, "velocity": 76}, {"time": 4825, "pitch": 31, "duration": 70, "velocity": 59}, {"time": 4827, "pitch": 38, "duration": 66, "velocity": 53}, {"time": 4828, "pitch": 55, "duration": 66, "velocity": 57}, {"time": 4829, "pitch": 43, "duration": 65, "velocity": 70}, {"time": 4829, "pitch": 59, "duration": 64, "velocity": 61}, {"time": 4831, "pitch": 62, "duration": 63, "velocity": 88}], "annotations": [{"time": 15, "annotation": {"number": 64, "value": 127}, "group": "control_change"}, {"time": 22, "annotation": {"number": 64, "value": 0}, "group": "control_change"}, {"time": 26, "annotation": {"number": 64, "value": 127}, "group": "control_change"}, {"time": 33, "annotation": {"number": 64, "value": 0}, "group": "control_change"}, {"time": 39, "annotation": {"number": 64, "value": 127}, "group": "control_change"}, {"time": 46, "annotation": {"number": 64, "value": 0}, "group": "control_change"}, {"time": 51, "annotation": {"number": 64, "value": 127}, "group": "control_change"}, {"time": 59, "annotation": {"number": 64, "value": 0}, "group": "control_change"}, {"time": 63, "annotation": {"number": 64, "value": 127}, "group": "control_change"}, {"time": 71, "annotation": {"number": 64, "value": 0}, "group": "control_change"}, {"time": 75, "annotation": {"number": 64, "value": 127}, "group": "control_change"}, {"time": 82, "annotation": {"number": 64, "value": 0}, "group": "control_change"}, {"time": 87, "annotation": {"number": 64, "value": 127}, "group": "control_change"}, {"time": 95, "annotation": {"number": 64, "value": 0}, "group": "control_change"}, {"time": 99, "annotation": {"number": 64, "value": 127}, "group": "control_change"}, {"time": 107, "annotation": {"number": 64, "value": 0}, "group": "control_change"}, {"time": 123, "annotation": {"number": 64, "value": 127}, "group": "control_change"}, {"time": 125, "annotation": {"number": 64, "value": 0}, "group": "control_change"}, {"time": 219, "annotation": {"number": 64, "value": 127}, "group": "control_change"}, {"time": 221, "annotation": {"number": 64, "value": 0}, "group": "control_change"}, {"time": 242, "annotation": {"number": 64, "value": 127}, "group": "control_change"}, {"time": 252, "annotation": {"number": 64, "value": 0}, "group": "control_change"}, {"time": 255, "annotation": {"number": 64, "value": 127}, "group": "control_change"}, {"time": 275, "annotation": {"number": 64, "value": 0}, "group": "control_change"}, {"time": 278, "annotation": {"number": 64, "value": 127}, "group": "control_change"}, {"time": 286, "annotation": {"number": 64, "value": 0}, "group": "control_change"}, {"time": 290, "annotation": {"number": 64, "value": 127}, "group": "control_change"}, {"time": 299, "annotation": {"number": 64, "value": 0}, "group": "control_change"}, {"time": 303, "annotation": {"number": 64, "value": 127}, "group": "control_change"}, {"time": 323, "annotation": {"number": 64, "value": 0}, "group": "control_change"}, {"time": 326, "annotation": {"number": 64, "value": 127}, "group": "control_change"}, {"time": 335, "annotation": {"number": 64, "value": 0}, "group": "control_change"}, {"time": 338, "annotation": {"number": 64, "value": 127}, "group": "control_change"}, {"time": 347, "annotation": {"number": 64, "value": 0}, "group": "control_change"}, {"time": 350, "annotation": {"number": 64, "value": 127}, "group": "control_change"}, {"time": 359, "annotation": {"number": 64, "value": 0}, "group": "control_change"}, {"time": 362, "annotation": {"number": 64, "value": 127}, "group": "control_change"}, {"time": 370, "annotation": {"number": 64, "value": 0}, "group": "control_change"}, {"time": 374, "annotation": {"number": 64, "value": 127}, "group": "control_change"}, {"time": 380, "annotation": {"number": 64, "value": 0}, "group": "control_change"}, {"time": 386, "annotation": {"number": 64, "value": 127}, "group": "control_change"}, {"time": 394, "annotation": {"number": 64, "value": 0}, "group": "control_change"}, {"time": 398, "annotation": {"number": 64, "value": 127}, "group": "control_change"}, {"time": 401, "annotation": {"number": 64, "value": 127}, "group": "control_change"}, {"time": 408, "annotation": {"number": 64, "value": 0}, "group": "control_change"}, {"time": 411, "annotation": {"number": 64, "value": 127}, "group": "control_change"}, {"time": 412, "annotation": {"number": 64, "value": 0}, "group": "control_change"}, {"time": 422, "annotation": {"number": 64, "value": 127}, "group": "control_change"}, {"time": 432, "annotation": {"number": 64, "value": 0}, "group": "control_change"}, {"time": 446, "annotation": {"number": 64, "value": 127}, "group": "control_change"}, {"time": 457, "annotation": {"number": 64, "value": 0}, "group": "control_change"}, {"time": 470, "annotation": {"number": 64, "value": 127}, "group": "control_change"}, {"time": 481, "annotation": {"number": 64, "value": 0}, "group": "control_change"}, {"time": 482, "annotation": {"number": 64, "value": 127}, "group": "control_change"}, {"time": 483, "annotation": {"number": 64, "value": 0}, "group": "control_change"}, {"time": 484, "annotation": {"number": 64, "value": 127}, "group": "control_change"}, {"time": 488, "annotation": {"number": 64, "value": 0}, "group": "control_change"}, {"time": 495, "annotation": {"number": 64, "value": 127}, "group": "control_change"}, {"time": 514, "annotation": {"number": 64, "value": 0}, "group": "control_change"}, {"time": 519, "annotation": {"number": 64, "value": 127}, "group": "control_change"}, {"time": 521, "annotation": {"number": 64, "value": 0}, "group": "control_change"}, {"time": 530, "annotation": {"number": 64, "value": 127}, "group": "control_change"}, {"time": 537, "annotation": {"number": 64, "value": 0}, "group": "control_change"}, {"time": 542, "annotation": {"number": 64, "value": 127}, "group": "control_change"}, {"time": 547, "annotation": {"number": 64, "value": 0}, "group": "control_change"}, {"time": 555, "annotation": {"number": 64, "value": 127}, "group": "control_change"}, {"time": 556, "annotation": {"number": 64, "value": 0}, "group": "control_change"}, {"time": 579, "annotation": {"number": 64, "value": 127}, "group": "control_change"}, {"time": 582, "annotation": {"number": 64, "value": 0}, "group": "control_change"}, {"time": 591, "annotation": {"number": 64, "value": 127}, "group": "control_change"}, {"time": 610, "annotation": {"number": 64, "value": 0}, "group": "control_change"}, {"time": 615, "annotation": {"number": 64, "value": 127}, "group": "control_change"}, {"time": 659, "annotation": {"number": 64, "value": 0}, "group": "control_change"}, {"time": 663, "annotation": {"number": 64, "value": 127}, "group": "control_change"}, {"time": 683, "annotation": {"number": 64, "value": 0}, "group": "control_change"}, {"time": 687, "annotation": {"number": 64, "value": 127}, "group": "control_change"}, {"time": 706, "annotation": {"number": 64, "value": 0}, "group": "control_change"}, {"time": 710, "annotation": {"number": 64, "value": 127}, "group": "control_change"}, {"time": 730, "annotation": {"number": 64, "value": 0}, "group": "control_change"}, {"time": 734, "annotation": {"number": 64, "value": 127}, "group": "control_change"}, {"time": 754, "annotation": {"number": 64, "value": 0}, "group": "control_change"}, {"time": 759, "annotation": {"number": 64, "value": 127}, "group": "control_change"}, {"time": 778, "annotation": {"number": 64, "value": 0}, "group": "control_change"}, {"time": 782, "annotation": {"number": 64, "value": 127}, "group": "control_change"}, {"time": 794, "annotation": {"number": 64, "value": 0}, "group": "control_change"}, {"time": 795, "annotation": {"number": 64, "value": 127}, "group": "control_change"}, {"time": 802, "annotation": {"number": 64, "value": 0}, "group": "control_change"}, {"time": 807, "annotation": {"number": 64, "value": 127}, "group": "control_change"}, {"time": 826, "annotation": {"number": 64, "value": 0}, "group": "control_change"}, {"time": 830, "annotation": {"number": 64, "value": 127}, "group": "control_change"}, {"time": 851, "annotation": {"number": 64, "value": 0}, "group": "control_change"}, {"time": 855, "annotation": {"number": 64, "value": 127}, "group": "control_change"}, {"time": 874, "annotation": {"number": 64, "value": 0}, "group": "control_change"}, {"time": 879, "annotation": {"number": 64, "value": 127}, "group": "control_change"}, {"time": 899, "annotation": {"number": 64, "value": 0}, "group": "control_change"}, {"time": 902, "annotation": {"number": 64, "value": 127}, "group": "control_change"}, {"time": 924, "annotation": {"number": 64, "value": 0}, "group": "control_change"}, {"time": 927, "annotation": {"number": 64, "value": 127}, "group": "control_change"}, {"time": 948, "annotation": {"number": 64, "value": 0}, "group": "control_change"}, {"time": 951, "annotation": {"number": 64, "value": 127}, "group": "control_change"}, {"time": 969, "annotation": {"number": 64, "value": 0}, "group": "control_change"}, {"time": 975, "annotation": {"number": 64, "value": 127}, "group": "control_change"}, {"time": 994, "annotation": {"number": 64, "value": 0}, "group": "control_change"}, {"time": 999, "annotation": {"number": 64, "value": 127}, "group": "control_change"}, {"time": 1043, "annotation": {"number": 64, "value": 0}, "group": "control_change"}, {"time": 1047, "annotation": {"number": 64, "value": 127}, "group": "control_change"}, {"time": 1067, "annotation": {"number": 64, "value": 0}, "group": "control_change"}, {"time": 1071, "annotation": {"number": 64, "value": 127}, "group": "control_change"}, {"time": 1090, "annotation": {"number": 64, "value": 0}, "group": "control_change"}, {"time": 1094, "annotation": {"number": 64, "value": 127}, "group": "control_change"}, {"time": 1114, "annotation": {"number": 64, "value": 0}, "group": "control_change"}, {"time": 1118, "annotation": {"number": 64, "value": 127}, "group": "control_change"}, {"time": 1138, "annotation": {"number": 64, "value": 0}, "group": "control_change"}, {"time": 1143, "annotation": {"number": 64, "value": 127}, "group": "control_change"}, {"time": 1162, "annotation": {"number": 64, "value": 0}, "group": "control_change"}, {"time": 1166, "annotation": {"number": 64, "value": 127}, "group": "control_change"}, {"time": 1178, "annotation": {"number": 64, "value": 0}, "group": "control_change"}, {"time": 1179, "annotation": {"number": 64, "value": 127}, "group": "control_change"}, {"time": 1186, "annotation": {"number": 64, "value": 0}, "group": "control_change"}, {"time": 1191, "annotation": {"number": 64, "value": 127}, "group": "control_change"}, {"time": 1210, "annotation": {"number": 64, "value": 0}, "group": "control_change"}, {"time": 1214, "annotation": {"number": 64, "value": 127}, "group": "control_change"}, {"time": 1215, "annotation": {"number": 64, "value": 127}, "group": "control_change"}, {"time": 1233, "annotation": {"number": 64, "value": 0}, "group": "control_change"}, {"time": 1238, "annotation": {"number": 64, "value": 127}, "group": "control_change"}, {"time": 1248, "annotation": {"number": 64, "value": 0}, "group": "control_change"}, {"time": 1263, "annotation": {"number": 64, "value": 127}, "group": "control_change"}, {"time": 1270, "annotation": {"number": 64, "value": 0}, "group": "control_change"}, {"time": 1286, "annotation": {"number": 64, "value": 127}, "group": "control_change"}, {"time": 1289, "annotation": {"number": 64, "value": 0}, "group": "control_change"}, {"time": 1311, "annotation": {"number": 64, "value": 127}, "group": "control_change"}, {"time": 1317, "annotation": {"number": 64, "value": 0}, "group": "control_change"}, {"time": 1371, "annotation": {"number": 64, "value": 127}, "group": "control_change"}, {"time": 1374, "annotation": {"number": 64, "value": 0}, "group": "control_change"}, {"time": 1382, "annotation": {"number": 64, "value": 127}, "group": "control_change"}, {"time": 1384, "annotation": {"number": 64, "value": 0}, "group": "control_change"}, {"time": 1394, "annotation": {"number": 64, "value": 127}, "group": "control_change"}, {"time": 1397, "annotation": {"number": 64, "value": 0}, "group": "control_change"}, {"time": 1406, "annotation": {"number": 64, "value": 127}, "group": "control_change"}, {"time": 1413, "annotation": {"number": 64, "value": 0}, "group": "control_change"}, {"time": 1418, "annotation": {"number": 64, "value": 127}, "group": "control_change"}, {"time": 1425, "annotation": {"number": 64, "value": 0}, "group": "control_change"}, {"time": 1430, "annotation": {"number": 64, "value": 127}, "group": "control_change"}, {"time": 1436, "annotation": {"number": 64, "value": 0}, "group": "control_change"}, {"time": 1442, "annotation": {"number": 64, "value": 127}, "group": "control_change"}, {"time": 1449, "annotation": {"number": 64, "value": 0}, "group": "control_change"}, {"time": 1455, "annotation": {"number": 64, "value": 127}, "group": "control_change"}, {"time": 1461, "annotation": {"number": 64, "value": 0}, "group": "control_change"}, {"time": 1466, "annotation": {"number": 64, "value": 127}, "group": "control_change"}, {"time": 1474, "annotation": {"number": 64, "value": 0}, "group": "control_change"}, {"time": 1479, "annotation": {"number": 64, "value": 127}, "group": "control_change"}, {"time": 1484, "annotation": {"number": 64, "value": 0}, "group": "control_change"}, {"time": 1490, "annotation": {"number": 64, "value": 127}, "group": "control_change"}, {"time": 1497, "annotation": {"number": 64, "value": 0}, "group": "control_change"}, {"time": 1503, "annotation": {"number": 64, "value": 127}, "group": "control_change"}, {"time": 1522, "annotation": {"number": 64, "value": 0}, "group": "control_change"}, {"time": 1527, "annotation": {"number": 64, "value": 127}, "group": "control_change"}, {"time": 1534, "annotation": {"number": 64, "value": 0}, "group": "control_change"}, {"time": 1550, "annotation": {"number": 64, "value": 127}, "group": "control_change"}, {"time": 1562, "annotation": {"number": 64, "value": 0}, "group": "control_change"}, {"time": 1563, "annotation": {"number": 64, "value": 127}, "group": "control_change"}, {"time": 1570, "annotation": {"number": 64, "value": 0}, "group": "control_change"}, {"time": 1574, "annotation": {"number": 64, "value": 127}, "group": "control_change"}, {"time": 1595, "annotation": {"number": 64, "value": 0}, "group": "control_change"}, {"time": 1599, "annotation": {"number": 64, "value": 127}, "group": "control_change"}, {"time": 1610, "annotation": {"number": 64, "value": 0}, "group": "control_change"}, {"time": 1610, "annotation": {"number": 64, "value": 127}, "group": "control_change"}, {"time": 1618, "annotation": {"number": 64, "value": 0}, "group": "control_change"}, {"time": 1622, "annotation": {"number": 64, "value": 127}, "group": "control_change"}, {"time": 1628, "annotation": {"number": 64, "value": 0}, "group": "control_change"}, {"time": 1634, "annotation": {"number": 64, "value": 127}, "group": "control_change"}, {"time": 1642, "annotation": {"number": 64, "value": 0}, "group": "control_change"}, {"time": 1647, "annotation": {"number": 64, "value": 127}, "group": "control_change"}, {"time": 1665, "annotation": {"number": 64, "value": 0}, "group": "control_change"}, {"time": 1670, "annotation": {"number": 64, "value": 127}, "group": "control_change"}, {"time": 1676, "annotation": {"number": 64, "value": 0}, "group": "control_change"}, {"time": 1682, "annotation": {"number": 64, "value": 127}, "group": "control_change"}, {"time": 1690, "annotation": {"number": 64, "value": 0}, "group": "control_change"}, {"time": 1695, "annotation": {"number": 64, "value": 127}, "group": "control_change"}, {"time": 1701, "annotation": {"number": 64, "value": 0}, "group": "control_change"}, {"time": 1707, "annotation": {"number": 64, "value": 127}, "group": "control_change"}, {"time": 1714, "annotation": {"number": 64, "value": 0}, "group": "control_change"}, {"time": 1718, "annotation": {"number": 64, "value": 127}, "group": "control_change"}, {"time": 1724, "annotation": {"number": 64, "value": 0}, "group": "control_change"}, {"time": 1730, "annotation": {"number": 64, "value": 127}, "group": "control_change"}, {"time": 1733, "annotation": {"number": 64, "value": 0}, "group": "control_change"}, {"time": 1742, "annotation": {"number": 64, "value": 127}, "group": "control_change"}, {"time": 1746, "annotation": {"number": 64, "value": 0}, "group": "control_change"}, {"time": 1755, "annotation": {"number": 64, "value": 127}, "group": "control_change"}, {"time": 1762, "annotation": {"number": 64, "value": 0}, "group": "control_change"}, {"time": 1767, "annotation": {"number": 64, "value": 127}, "group": "control_change"}, {"time": 1769, "annotation": {"number": 64, "value": 0}, "group": "control_change"}, {"time": 1778, "annotation": {"number": 64, "value": 127}, "group": "control_change"}, {"time": 1787, "annotation": {"number": 64, "value": 0}, "group": "control_change"}, {"time": 1792, "annotation": {"number": 64, "value": 127}, "group": "control_change"}, {"time": 1797, "annotation": {"number": 64, "value": 0}, "group": "control_change"}, {"time": 1803, "annotation": {"number": 64, "value": 127}, "group": "control_change"}, {"time": 1810, "annotation": {"number": 64, "value": 0}, "group": "control_change"}, {"time": 1815, "annotation": {"number": 64, "value": 127}, "group": "control_change"}, {"time": 1818, "annotation": {"number": 64, "value": 0}, "group": "control_change"}, {"time": 1827, "annotation": {"number": 64, "value": 127}, "group": "control_change"}, {"time": 1831, "annotation": {"number": 64, "value": 0}, "group": "control_change"}, {"time": 1838, "annotation": {"number": 64, "value": 127}, "group": "control_change"}, {"time": 1846, "annotation": {"number": 64, "value": 0}, "group": "control_change"}, {"time": 1851, "annotation": {"number": 64, "value": 127}, "group": "control_change"}, {"time": 1858, "annotation": {"number": 64, "value": 0}, "group": "control_change"}, {"time": 1864, "annotation": {"number": 64, "value": 127}, "group": "control_change"}, {"time": 1869, "annotation": {"number": 64, "value": 0}, "group": "control_change"}, {"time": 1875, "annotation": {"number": 64, "value": 127}, "group": "control_change"}, {"time": 1881, "annotation": {"number": 64, "value": 0}, "group": "control_change"}, {"time": 1887, "annotation": {"number": 64, "value": 127}, "group": "control_change"}, {"time": 1894, "annotation": {"number": 64, "value": 0}, "group": "control_change"}, {"time": 1898, "annotation": {"number": 64, "value": 127}, "group": "control_change"}, {"time": 1905, "annotation": {"number": 64, "value": 0}, "group": "control_change"}, {"time": 1911, "annotation": {"number": 64, "value": 127}, "group": "control_change"}, {"time": 1917, "annotation": {"number": 64, "value": 0}, "group": "control_change"}, {"time": 1923, "annotation": {"number": 64, "value": 127}, "group": "control_change"}, {"time": 1930, "annotation": {"number": 64, "value": 0}, "group": "control_change"}, {"time": 1935, "annotation": {"number": 64, "value": 127}, "group": "control_change"}, {"time": 1941, "annotation": {"number": 64, "value": 0}, "group": "control_change"}, {"time": 1946, "annotation": {"number": 64, "value": 127}, "group": "control_change"}, {"time": 1954, "annotation": {"number": 64, "value": 0}, "group": "control_change"}, {"time": 1959, "annotation": {"number": 64, "value": 127}, "group": "control_change"}, {"time": 1966, "annotation": {"number": 64, "value": 0}, "group": "control_change"}, {"time": 1971, "annotation": {"number": 64, "value": 127}, "group": "control_change"}, {"time": 1978, "annotation": {"number": 64, "value": 0}, "group": "control_change"}, {"time": 1991, "annotation": {"number": 64, "value": 127}, "group": "control_change"}, {"time": 2002, "annotation": {"number": 64, "value": 0}, "group": "control_change"}, {"time": 2018, "annotation": {"number": 64, "value": 127}, "group": "control_change"}, {"time": 2025, "annotation": {"number": 64, "value": 0}, "group": "control_change"}, {"time": 2031, "annotation": {"number": 64, "value": 127}, "group": "control_change"}, {"time": 2037, "annotation": {"number": 64, "value": 0}, "group": "control_change"}, {"time": 2043, "annotation": {"number": 64, "value": 127}, "group": "control_change"}, {"time": 2049, "annotation": {"number": 64, "value": 0}, "group": "control_change"}, {"time": 2055, "annotation": {"number": 64, "value": 127}, "group": "control_change"}, {"time": 2056, "annotation": {"number": 64, "value": 0}, "group": "control_change"}, {"time": 2066, "annotation": {"number": 64, "value": 127}, "group": "control_change"}, {"time": 2070, "annotation": {"number": 64, "value": 0}, "group": "control_change"}, {"time": 2079, "annotation": {"number": 64, "value": 127}, "group": "control_change"}, {"time": 2083, "annotation": {"number": 64, "value": 0}, "group": "control_change"}, {"time": 2091, "annotation": {"number": 64, "value": 127}, "group": "control_change"}, {"time": 2096, "annotation": {"number": 64, "value": 0}, "group": "control_change"}, {"time": 2127, "annotation": {"number": 64, "value": 127}, "group": "control_change"}, {"time": 2134, "annotation": {"number": 64, "value": 0}, "group": "control_change"}, {"time": 2367, "annotation": {"number": 64, "value": 127}, "group": "control_change"}, {"time": 2370, "annotation": {"number": 64, "value": 0}, "group": "control_change"}, {"time": 2390, "annotation": {"number": 64, "value": 127}, "group": "control_change"}, {"time": 2393, "annotation": {"number": 64, "value": 0}, "group": "control_change"}, {"time": 2403, "annotation": {"number": 64, "value": 127}, "group": "control_change"}, {"time": 2410, "annotation": {"number": 64, "value": 0}, "group": "control_change"}, {"time": 2415, "annotation": {"number": 64, "value": 127}, "group": "control_change"}, {"time": 2422, "annotation": {"number": 64, "value": 0}, "group": "control_change"}, {"time": 2438, "annotation": {"number": 64, "value": 127}, "group": "control_change"}, {"time": 2439, "annotation": {"number": 64, "value": 0}, "group": "control_change"}, {"time": 2464, "annotation": {"number": 64, "value": 127}, "group": "control_change"}, {"time": 2467, "annotation": {"number": 64, "value": 0}, "group": "control_change"}, {"time": 2486, "annotation": {"number": 64, "value": 127}, "group": "control_change"}, {"time": 2486, "annotation": {"number": 64, "value": 0}, "group": "control_change"}, {"time": 2499, "annotation": {"number": 64, "value": 127}, "group": "control_change"}, {"time": 2502, "annotation": {"number": 64, "value": 0}, "group": "control_change"}, {"time": 2511, "annotation": {"number": 64, "value": 127}, "group": "control_change"}, {"time": 2511, "annotation": {"number": 64, "value": 0}, "group": "control_change"}, {"time": 2522, "annotation": {"number": 64, "value": 127}, "group": "control_change"}, {"time": 2523, "annotation": {"number": 64, "value": 0}, "group": "control_change"}, {"time": 2535, "annotation": {"number": 64, "value": 127}, "group": "control_change"}, {"time": 2539, "annotation": {"number": 64, "value": 0}, "group": "control_change"}, {"time": 2547, "annotation": {"number": 64, "value": 127}, "group": "control_change"}, {"time": 2550, "annotation": {"number": 64, "value": 0}, "group": "control_change"}, {"time": 2559, "annotation": {"number": 64, "value": 127}, "group": "control_change"}, {"time": 2562, "annotation": {"number": 64, "value": 0}, "group": "control_change"}, {"time": 2582, "annotation": {"number": 64, "value": 127}, "group": "control_change"}, {"time": 2583, "annotation": {"number": 64, "value": 0}, "group": "control_change"}, {"time": 2607, "annotation": {"number": 64, "value": 127}, "group": "control_change"}, {"time": 2626, "annotation": {"number": 64, "value": 0}, "group": "control_change"}, {"time": 2631, "annotation": {"number": 64, "value": 127}, "group": "control_change"}, {"time": 2675, "annotation": {"number": 64, "value": 0}, "group": "control_change"}, {"time": 2679, "annotation": {"number": 64, "value": 127}, "group": "control_change"}, {"time": 2699, "annotation": {"number": 64, "value": 0}, "group": "control_change"}, {"time": 2703, "annotation": {"number": 64, "value": 127}, "group": "control_change"}, {"time": 2722, "annotation": {"number": 64, "value": 0}, "group": "control_change"}, {"time": 2726, "annotation": {"number": 64, "value": 127}, "group": "control_change"}, {"time": 2746, "annotation": {"number": 64, "value": 0}, "group": "control_change"}, {"time": 2750, "annotation": {"number": 64, "value": 127}, "group": "control_change"}, {"time": 2770, "annotation": {"number": 64, "value": 0}, "group": "control_change"}, {"time": 2775, "annotation": {"number": 64, "value": 127}, "group": "control_change"}, {"time": 2794, "annotation": {"number": 64, "value": 0}, "group": "control_change"}, {"time": 2798, "annotation": {"number": 64, "value": 127}, "group": "control_change"}, {"time": 2810, "annotation": {"number": 64, "value": 0}, "group": "control_change"}, {"time": 2811, "annotation": {"number": 64, "value": 127}, "group": "control_change"}, {"time": 2818, "annotation": {"number": 64, "value": 0}, "group": "control_change"}, {"time": 2823, "annotation": {"number": 64, "value": 127}, "group": "control_change"}, {"time": 2842, "annotation": {"number": 64, "value": 0}, "group": "control_change"}, {"time": 2846, "annotation": {"number": 64, "value": 127}, "group": "control_change"}, {"time": 2847, "annotation": {"number": 64, "value": 127}, "group": "control_change"}, {"time": 2865, "annotation": {"number": 64, "value": 0}, "group": "control_change"}, {"time": 2870, "annotation": {"number": 64, "value": 127}, "group": "control_change"}, {"time": 2880, "annotation": {"number": 64, "value": 0}, "group": "control_change"}, {"time": 2895, "annotation": {"number": 64, "value": 127}, "group": "control_change"}, {"time": 2902, "annotation": {"number": 64, "value": 0}, "group": "control_change"}, {"time": 2918, "annotation": {"number": 64, "value": 127}, "group": "control_change"}, {"time": 2921, "annotation": {"number": 64, "value": 0}, "group": "control_change"}, {"time": 2943, "annotation": {"number": 64, "value": 127}, "group": "control_change"}, {"time": 2949, "annotation": {"number": 64, "value": 0}, "group": "control_change"}, {"time": 3003, "annotation": {"number": 64, "value": 127}, "group": "control_change"}, {"time": 3006, "annotation": {"number": 64, "value": 0}, "group": "control_change"}, {"time": 3014, "annotation": {"number": 64, "value": 127}, "group": "control_change"}, {"time": 3016, "annotation": {"number": 64, "value": 0}, "group": "control_change"}, {"time": 3026, "annotation": {"number": 64, "value": 127}, "group": "control_change"}, {"time": 3029, "annotation": {"number": 64, "value": 0}, "group": "control_change"}, {"time": 3038, "annotation": {"number": 64, "value": 127}, "group": "control_change"}, {"time": 3045, "annotation": {"number": 64, "value": 0}, "group": "control_change"}, {"time": 3050, "annotation": {"number": 64, "value": 127}, "group": "control_change"}, {"time": 3057, "annotation": {"number": 64, "value": 0}, "group": "control_change"}, {"time": 3062, "annotation": {"number": 64, "value": 127}, "group": "control_change"}, {"time": 3068, "annotation": {"number": 64, "value": 0}, "group": "control_change"}, {"time": 3074, "annotation": {"number": 64, "value": 127}, "group": "control_change"}, {"time": 3081, "annotation": {"number": 64, "value": 0}, "group": "control_change"}, {"time": 3087, "annotation": {"number": 64, "value": 127}, "group": "control_change"}, {"time": 3093, "annotation": {"number": 64, "value": 0}, "group": "control_change"}, {"time": 3098, "annotation": {"number": 64, "value": 127}, "group": "control_change"}, {"time": 3106, "annotation": {"number": 64, "value": 0}, "group": "control_change"}, {"time": 3111, "annotation": {"number": 64, "value": 127}, "group": "control_change"}, {"time": 3116, "annotation": {"number": 64, "value": 0}, "group": "control_change"}, {"time": 3122, "annotation": {"number": 64, "value": 127}, "group": "control_change"}, {"time": 3129, "annotation": {"number": 64, "value": 0}, "group": "control_change"}, {"time": 3135, "annotation": {"number": 64, "value": 127}, "group": "control_change"}, {"time": 3154, "annotation": {"number": 64, "value": 0}, "group": "control_change"}, {"time": 3159, "annotation": {"number": 64, "value": 127}, "group": "control_change"}, {"time": 3166, "annotation": {"number": 64, "value": 0}, "group": "control_change"}, {"time": 3182, "annotation": {"number": 64, "value": 127}, "group": "control_change"}, {"time": 3194, "annotation": {"number": 64, "value": 0}, "group": "control_change"}, {"time": 3195, "annotation": {"number": 64, "value": 127}, "group": "control_change"}, {"time": 3202, "annotation": {"number": 64, "value": 0}, "group": "control_change"}, {"time": 3206, "annotation": {"number": 64, "value": 127}, "group": "control_change"}, {"time": 3227, "annotation": {"number": 64, "value": 0}, "group": "control_change"}, {"time": 3231, "annotation": {"number": 64, "value": 127}, "group": "control_change"}, {"time": 3242, "annotation": {"number": 64, "value": 0}, "group": "control_change"}, {"time": 3242, "annotation": {"number": 64, "value": 127}, "group": "control_change"}, {"time": 3250, "annotation": {"number": 64, "value": 0}, "group": "control_change"}, {"time": 3254, "annotation": {"number": 64, "value": 127}, "group": "control_change"}, {"time": 3260, "annotation": {"number": 64, "value": 0}, "group": "control_change"}, {"time": 3266, "annotation": {"number": 64, "value": 127}, "group": "control_change"}, {"time": 3274, "annotation": {"number": 64, "value": 0}, "group": "control_change"}, {"time": 3279, "annotation": {"number": 64, "value": 127}, "group": "control_change"}, {"time": 3297, "annotation": {"number": 64, "value": 0}, "group": "control_change"}, {"time": 3302, "annotation": {"number": 64, "value": 127}, "group": "control_change"}, {"time": 3308, "annotation": {"number": 64, "value": 0}, "group": "control_change"}, {"time": 3314, "annotation": {"number": 64, "value": 127}, "group": "control_change"}, {"time": 3322, "annotation": {"number": 64, "value": 0}, "group": "control_change"}, {"time": 3327, "annotation": {"number": 64, "value": 127}, "group": "control_change"}, {"time": 3333, "annotation": {"number": 64, "value": 0}, "group": "control_change"}, {"time": 3339, "annotation": {"number": 64, "value": 127}, "group": "control_change"}, {"time": 3346, "annotation": {"number": 64, "value": 0}, "group": "control_change"}, {"time": 3350, "annotation": {"number": 64, "value": 127}, "group": "control_change"}, {"time": 3356, "annotation": {"number": 64, "value": 0}, "group": "control_change"}, {"time": 3362, "annotation": {"number": 64, "value": 127}, "group": "control_change"}, {"time": 3365, "annotation": {"number": 64, "value": 0}, "group": "control_change"}, {"time": 3374, "annotation": {"number": 64, "value": 127}, "group": "control_change"}, {"time": 3378, "annotation": {"number": 64, "value": 0}, "group": "control_change"}, {"time": 3387, "annotation": {"number": 64, "value": 127}, "group": "control_change"}, {"time": 3394, "annotation": {"number": 64, "value": 0}, "group": "control_change"}, {"time": 3399, "annotation": {"number": 64, "value": 127}, "group": "control_change"}, {"time": 3401, "annotation": {"number": 64, "value": 0}, "group": "control_change"}, {"time": 3410, "annotation": {"number": 64, "value": 127}, "group": "control_change"}, {"time": 3419, "annotation": {"number": 64, "value": 0}, "group": "control_change"}, {"time": 3424, "annotation": {"number": 64, "value": 127}, "group": "control_change"}, {"time": 3429, "annotation": {"number": 64, "value": 0}, "group": "control_change"}, {"time": 3435, "annotation": {"number": 64, "value": 127}, "group": "control_change"}, {"time": 3442, "annotation": {"number": 64, "value": 0}, "group": "control_change"}, {"time": 3447, "annotation": {"number": 64, "value": 127}, "group": "control_change"}, {"time": 3450, "annotation": {"number": 64, "value": 0}, "group": "control_change"}, {"time": 3459, "annotation": {"number": 64, "value": 127}, "group": "control_change"}, {"time": 3463, "annotation": {"number": 64, "value": 0}, "group": "control_change"}, {"time": 3470, "annotation": {"number": 64, "value": 127}, "group": "control_change"}, {"time": 3478, "annotation": {"number": 64, "value": 0}, "group": "control_change"}, {"time": 3483, "annotation": {"number": 64, "value": 127}, "group": "control_change"}, {"time": 3490, "annotation": {"number": 64, "value": 0}, "group": "control_change"}, {"time": 3496, "annotation": {"number": 64, "value": 127}, "group": "control_change"}, {"time": 3501, "annotation": {"number": 64, "value": 0}, "group": "control_change"}, {"time": 3507, "annotation": {"number": 64, "value": 127}, "group": "control_change"}, {"time": 3513, "annotation": {"number": 64, "value": 0}, "group": "control_change"}, {"time": 3519, "annotation": {"number": 64, "value": 127}, "group": "control_change"}, {"time": 3526, "annotation": {"number": 64, "value": 0}, "group": "control_change"}, {"time": 3530, "annotation": {"number": 64, "value": 127}, "group": "control_change"}, {"time": 3537, "annotation": {"number": 64, "value": 0}, "group": "control_change"}, {"time": 3543, "annotation": {"number": 64, "value": 127}, "group": "control_change"}, {"time": 3549, "annotation": {"number": 64, "value": 0}, "group": "control_change"}, {"time": 3555, "annotation": {"number": 64, "value": 127}, "group": "control_change"}, {"time": 3562, "annotation": {"number": 64, "value": 0}, "group": "control_change"}, {"time": 3567, "annotation": {"number": 64, "value": 127}, "group": "control_change"}, {"time": 3573, "annotation": {"number": 64, "value": 0}, "group": "control_change"}, {"time": 3578, "annotation": {"number": 64, "value": 127}, "group": "control_change"}, {"time": 3586, "annotation": {"number": 64, "value": 0}, "group": "control_change"}, {"time": 3591, "annotation": {"number": 64, "value": 127}, "group": "control_change"}, {"time": 3598, "annotation": {"number": 64, "value": 0}, "group": "control_change"}, {"time": 3603, "annotation": {"number": 64, "value": 127}, "group": "control_change"}, {"time": 3610, "annotation": {"number": 64, "value": 0}, "group": "control_change"}, {"time": 3623, "annotation": {"number": 64, "value": 127}, "group": "control_change"}, {"time": 3634, "annotation": {"number": 64, "value": 0}, "group": "control_change"}, {"time": 3650, "annotation": {"number": 64, "value": 127}, "group": "control_change"}, {"time": 3657, "annotation": {"number": 64, "value": 0}, "group": "control_change"}, {"time": 3663, "annotation": {"number": 64, "value": 127}, "group": "control_change"}, {"time": 3669, "annotation": {"number": 64, "value": 0}, "group": "control_change"}, {"time": 3675, "annotation": {"number": 64, "value": 127}, "group": "control_change"}, {"time": 3681, "annotation": {"number": 64, "value": 0}, "group": "control_change"}, {"time": 3687, "annotation": {"number": 64, "value": 127}, "group": "control_change"}, {"time": 3688, "annotation": {"number": 64, "value": 0}, "group": "control_change"}, {"time": 3698, "annotation": {"number": 64, "value": 127}, "group": "control_change"}, {"time": 3702, "annotation": {"number": 64, "value": 0}, "group": "control_change"}, {"time": 3711, "annotation": {"number": 64, "value": 127}, "group": "control_change"}, {"time": 3714, "annotation": {"number": 64, "value": 0}, "group": "control_change"}, {"time": 3867, "annotation": {"number": 64, "value": 127}, "group": "control_change"}, {"time": 3870, "annotation": {"number": 64, "value": 0}, "group": "control_change"}, {"time": 3878, "annotation": {"number": 64, "value": 127}, "group": "control_change"}, {"time": 3880, "annotation": {"number": 64, "value": 0}, "group": "control_change"}, {"time": 3890, "annotation": {"number": 64, "value": 127}, "group": "control_change"}, {"time": 3893, "annotation": {"number": 64, "value": 0}, "group": "control_change"}, {"time": 3902, "annotation": {"number": 64, "value": 127}, "group": "control_change"}, {"time": 3909, "annotation": {"number": 64, "value": 0}, "group": "control_change"}, {"time": 3914, "annotation": {"number": 64, "value": 127}, "group": "control_change"}, {"time": 3921, "annotation": {"number": 64, "value": 0}, "group": "control_change"}, {"time": 3926, "annotation": {"number": 64, "value": 127}, "group": "control_change"}, {"time": 3932, "annotation": {"number": 64, "value": 0}, "group": "control_change"}, {"time": 3938, "annotation": {"number": 64, "value": 127}, "group": "control_change"}, {"time": 3945, "annotation": {"number": 64, "value": 0}, "group": "control_change"}, {"time": 3951, "annotation": {"number": 64, "value": 127}, "group": "control_change"}, {"time": 3957, "annotation": {"number": 64, "value": 0}, "group": "control_change"}, {"time": 3962, "annotation": {"number": 64, "value": 127}, "group": "control_change"}, {"time": 3970, "annotation": {"number": 64, "value": 0}, "group": "control_change"}, {"time": 3975, "annotation": {"number": 64, "value": 127}, "group": "control_change"}, {"time": 3980, "annotation": {"number": 64, "value": 0}, "group": "control_change"}, {"time": 3986, "annotation": {"number": 64, "value": 127}, "group": "control_change"}, {"time": 3993, "annotation": {"number": 64, "value": 0}, "group": "control_change"}, {"time": 3999, "annotation": {"number": 64, "value": 127}, "group": "control_change"}, {"time": 4018, "annotation": {"number": 64, "value": 0}, "group": "control_change"}, {"time": 4023, "annotation": {"number": 64, "value": 127}, "group": "control_change"}, {"time": 4030, "annotation": {"number": 64, "value": 0}, "group": "control_change"}, {"time": 4046, "annotation": {"number": 64, "value": 127}, "group": "control_change"}, {"time": 4058, "annotation": {"number": 64, "value": 0}, "group": "control_change"}, {"time": 4059, "annotation": {"number": 64, "value": 127}, "group": "control_change"}, {"time": 4066, "annotation": {"number": 64, "value": 0}, "group": "control_change"}, {"time": 4070, "annotation": {"number": 64, "value": 127}, "group": "control_change"}, {"time": 4091, "annotation": {"number": 64, "value": 0}, "group": "control_change"}, {"time": 4095, "annotation": {"number": 64, "value": 127}, "group": "control_change"}, {"time": 4106, "annotation": {"number": 64, "value": 0}, "group": "control_change"}, {"time": 4106, "annotation": {"number": 64, "value": 127}, "group": "control_change"}, {"time": 4114, "annotation": {"number": 64, "value": 0}, "group": "control_change"}, {"time": 4118, "annotation": {"number": 64, "value": 127}, "group": "control_change"}, {"time": 4124, "annotation": {"number": 64, "value": 0}, "group": "control_change"}, {"time": 4130, "annotation": {"number": 64, "value": 127}, "group": "control_change"}, {"time": 4138, "annotation": {"number": 64, "value": 0}, "group": "control_change"}, {"time": 4143, "annotation": {"number": 64, "value": 127}, "group": "control_change"}, {"time": 4161, "annotation": {"number": 64, "value": 0}, "group": "control_change"}, {"time": 4166, "annotation": {"number": 64, "value": 127}, "group": "control_change"}, {"time": 4172, "annotation": {"number": 64, "value": 0}, "group": "control_change"}, {"time": 4178, "annotation": {"number": 64, "value": 127}, "group": "control_change"}, {"time": 4186, "annotation": {"number": 64, "value": 0}, "group": "control_change"}, {"time": 4191, "annotation": {"number": 64, "value": 127}, "group": "control_change"}, {"time": 4197, "annotation": {"number": 64, "value": 0}, "group": "control_change"}, {"time": 4203, "annotation": {"number": 64, "value": 127}, "group": "control_change"}, {"time": 4210, "annotation": {"number": 64, "value": 0}, "group": "control_change"}, {"time": 4214, "annotation": {"number": 64, "value": 127}, "group": "control_change"}, {"time": 4220, "annotation": {"number": 64, "value": 0}, "group": "control_change"}, {"time": 4226, "annotation": {"number": 64, "value": 127}, "group": "control_change"}, {"time": 4229, "annotation": {"number": 64, "value": 0}, "group": "control_change"}, {"time": 4238, "annotation": {"number": 64, "value": 127}, "group": "control_change"}, {"time": 4242, "annotation": {"number": 64, "value": 0}, "group": "control_change"}, {"time": 4251, "annotation": {"number": 64, "value": 127}, "group": "control_change"}, {"time": 4258, "annotation": {"number": 64, "value": 0}, "group": "control_change"}, {"time": 4263, "annotation": {"number": 64, "value": 127}, "group": "control_change"}, {"time": 4265, "annotation": {"number": 64, "value": 0}, "group": "control_change"}, {"time": 4274, "annotation": {"number": 64, "value": 127}, "group": "control_change"}, {"time": 4283, "annotation": {"number": 64, "value": 0}, "group": "control_change"}, {"time": 4288, "annotation": {"number": 64, "value": 127}, "group": "control_change"}, {"time": 4293, "annotation": {"number": 64, "value": 0}, "group": "control_change"}, {"time": 4299, "annotation": {"number": 64, "value": 127}, "group": "control_change"}, {"time": 4306, "annotation": {"number": 64, "value": 0}, "group": "control_change"}, {"time": 4311, "annotation": {"number": 64, "value": 127}, "group": "control_change"}, {"time": 4314, "annotation": {"number": 64, "value": 0}, "group": "control_change"}, {"time": 4323, "annotation": {"number": 64, "value": 127}, "group": "control_change"}, {"time": 4327, "annotation": {"number": 64, "value": 0}, "group": "control_change"}, {"time": 4334, "annotation": {"number": 64, "value": 127}, "group": "control_change"}, {"time": 4342, "annotation": {"number": 64, "value": 0}, "group": "control_change"}, {"time": 4347, "annotation": {"number": 64, "value": 127}, "group": "control_change"}, {"time": 4354, "annotation": {"number": 64, "value": 0}, "group": "control_change"}, {"time": 4360, "annotation": {"number": 64, "value": 127}, "group": "control_change"}, {"time": 4365, "annotation": {"number": 64, "value": 0}, "group": "control_change"}, {"time": 4371, "annotation": {"number": 64, "value": 127}, "group": "control_change"}, {"time": 4377, "annotation": {"number": 64, "value": 0}, "group": "control_change"}, {"time": 4383, "annotation": {"number": 64, "value": 127}, "group": "control_change"}, {"time": 4390, "annotation": {"number": 64, "value": 0}, "group": "control_change"}, {"time": 4394, "annotation": {"number": 64, "value": 127}, "group": "control_change"}, {"time": 4401, "annotation": {"number": 64, "value": 0}, "group": "control_change"}, {"time": 4407, "annotation": {"number": 64, "value": 127}, "group": "control_change"}, {"time": 4413, "annotation": {"number": 64, "value": 0}, "group": "control_change"}, {"time": 4419, "annotation": {"number": 64, "value": 127}, "group": "control_change"}, {"time": 4426, "annotation": {"number": 64, "value": 0}, "group": "control_change"}, {"time": 4431, "annotation": {"number": 64, "value": 127}, "group": "control_change"}, {"time": 4437, "annotation": {"number": 64, "value": 0}, "group": "control_change"}, {"time": 4442, "annotation": {"number": 64, "value": 127}, "group": "control_change"}, {"time": 4450, "annotation": {"number": 64, "value": 0}, "group": "control_change"}, {"time": 4455, "annotation": {"number": 64, "value": 127}, "group": "control_change"}, {"time": 4462, "annotation": {"number": 64, "value": 0}, "group": "control_change"}, {"time": 4467, "annotation": {"number": 64, "value": 127}, "group": "control_change"}, {"time": 4474, "annotation": {"number": 64, "value": 0}, "group": "control_change"}, {"time": 4487, "annotation": {"number": 64, "value": 127}, "group": "control_change"}, {"time": 4498, "annotation": {"number": 64, "value": 0}, "group": "control_change"}, {"time": 4514, "annotation": {"number": 64, "value": 127}, "group": "control_change"}, {"time": 4521, "annotation": {"number": 64, "value": 0}, "group": "control_change"}, {"time": 4527, "annotation": {"number": 64, "value": 127}, "group": "control_change"}, {"time": 4533, "annotation": {"number": 64, "value": 0}, "group": "control_change"}, {"time": 4539, "annotation": {"number": 64, "value": 127}, "group": "control_change"}, {"time": 4545, "annotation": {"number": 64, "value": 0}, "group": "control_change"}, {"time": 4551, "annotation": {"number": 64, "value": 127}, "group": "control_change"}, {"time": 4552, "annotation": {"number": 64, "value": 0}, "group": "control_change"}, {"time": 4562, "annotation": {"number": 64, "value": 127}, "group": "control_change"}, {"time": 4566, "annotation": {"number": 64, "value": 0}, "group": "control_change"}, {"time": 4586, "annotation": {"number": 64, "value": 127}, "group": "control_change"}, {"time": 4587, "annotation": {"number": 64, "value": 0}, "group": "control_change"}, {"time": 4663, "annotation": {"number": 64, "value": 127}, "group": "control_change"}, {"time": 4667, "annotation": {"number": 64, "value": 0}, "group": "control_change"}, {"time": 4671, "annotation": {"number": 64, "value": 127}, "group": "control_change"}, {"time": 4691, "annotation": {"number": 64, "value": 0}, "group": "control_change"}, {"time": 4708, "annotation": {"number": 64, "value": 127}, "group": "control_change"}, {"time": 4711, "annotation": {"number": 64, "value": 0}, "group": "control_change"}, {"time": 4720, "annotation": {"number": 64, "value": 127}, "group": "control_change"}, {"time": 4738, "annotation": {"number": 64, "value": 0}, "group": "control_change"}, {"time": 4768, "annotation": {"number": 64, "value": 127}, "group": "control_change"}, {"time": 4788, "annotation": {"number": 64, "value": 0}, "group": "control_change"}, {"time": 4815, "annotation": {"number": 64, "value": 127}, "group": "control_change"}, {"time": 4967, "annotation": {"number": 64, "value": 0}, "group": "control_change"}, {"time": 4968, "annotation": {"number": 64, "value": 127}, "group": "control_change"}, {"time": 4969, "annotation": {"number": 64, "value": 0}, "group": "control_change"}, {"time": 4971, "annotation": {"number": 64, "value": 127}, "group": "control_change"}, {"time": 4973, "annotation": {"number": 64, "value": 0}, "group": "control_change"}]}]}