{"metadata": {"schema_version": "0.2", "title": "None", "source_filename": "753.mid", "source_format": "midi"}, "resolution": 12, "tempos": [{"time": 0, "qpm": 61.99999586666694}, {"time": 792, "qpm": 59.00006686674245}, {"time": 996, "qpm": 58.80000940800151}, {"time": 1128, "qpm": 58.00004253336452}, {"time": 1164, "qpm": 54.00000540000054}, {"time": 1200, "qpm": 60.0}, {"time": 1296, "qpm": 60.99997255001235}, {"time": 1392, "qpm": 61.99999586666694}, {"time": 1560, "qpm": 60.0}, {"time": 1572, "qpm": 59.00006686674245}, {"time": 1584, "qpm": 60.0}, {"time": 1596, "qpm": 59.00006686674245}, {"time": 1764, "qpm": 58.80000940800151}, {"time": 1896, "qpm": 58.00004253336452}, {"time": 1944, "qpm": 57.000031350017245}, {"time": 1980, "qpm": 60.0}, {"time": 2148, "qpm": 58.00004253336452}, {"time": 2220, "qpm": 60.0}, {"time": 2244, "qpm": 61.99999586666694}, {"time": 2268, "qpm": 60.0}, {"time": 2280, "qpm": 58.00004253336452}, {"time": 2376, "qpm": 57.000031350017245}, {"time": 2448, "qpm": 58.00004253336452}, {"time": 2472, "qpm": 59.00006686674245}, {"time": 2592, "qpm": 55.99997760000896}, {"time": 2616, "qpm": 55.00000458333371}], "time_signatures": [{"time": 0, "numerator": 1, "denominator": 4}], "tracks": [{"program": 0, "is_drum": false, "name": "MELODY", "notes": [{"time": 249, "pitch": 59, "duration": 4, "velocity": 97}, {"time": 255, "pitch": 59, "duration": 5, "velocity": 92}, {"time": 261, "pitch": 61, "duration": 4, "velocity": 96}, {"time": 267, "pitch": 63, "duration": 6, "velocity": 85}, {"time": 276, "pitch": 66, "duration": 14, "velocity": 90}, {"time": 297, "pitch": 68, "duration": 5, "velocity": 112}, {"time": 303, "pitch": 68, "duration": 5, "velocity": 99}, {"time": 309, "pitch": 63, "duration": 5, "velocity": 96}, {"time": 315, "pitch": 66, "duration": 9, "velocity": 96}, {"time": 345, "pitch": 68, "duration": 4, "velocity": 100}, {"time": 351, "pitch": 68, "duration": 4, "velocity": 100}, {"time": 357, "pitch": 63, "duration": 5, "velocity": 97}, {"time": 363, "pitch": 66, "duration": 8, "velocity": 97}, {"time": 369, "pitch": 63, "duration": 5, "velocity": 97}, {"time": 375, "pitch": 61, "duration": 10, "velocity": 107}, {"time": 387, "pitch": 61, "duration": 4, "velocity": 99}, {"time": 393, "pitch": 59, "duration": 4, "velocity": 93}, {"time": 399, "pitch": 59, "duration": 5, "velocity": 93}, {"time": 405, "pitch": 63, "duration": 5, "velocity": 96}, {"time": 411, "pitch": 61, "duration": 15, "velocity": 95}, {"time": 441, "pitch": 59, "duration": 4, "velocity": 90}, {"time": 447, "pitch": 59, "duration": 4, "velocity": 97}, {"time": 453, "pitch": 61, "duration": 4, "velocity": 96}, {"time": 459, "pitch": 63, "duration": 8, "velocity": 97}, {"time": 468, "pitch": 66, "duration": 13, "velocity": 107}, {"time": 489, "pitch": 68, "duration": 4, "velocity": 97}, {"time": 495, "pitch": 68, "duration": 4, "velocity": 99}, {"time": 501, "pitch": 63, "duration": 4, "velocity": 95}, {"time": 507, "pitch": 66, "duration": 15, "velocity": 89}, {"time": 537, "pitch": 68, "duration": 4, "velocity": 99}, {"time": 543, "pitch": 68, "duration": 5, "velocity": 97}, {"time": 549, "pitch": 63, "duration": 4, "velocity": 95}, {"time": 555, "pitch": 66, "duration": 4, "velocity": 97}, {"time": 561, "pitch": 63, "duration": 4, "velocity": 92}, {"time": 567, "pitch": 61, "duration": 5, "velocity": 89}, {"time": 573, "pitch": 59, "duration": 11, "velocity": 95}, {"time": 585, "pitch": 56, "duration": 4, "velocity": 93}, {"time": 591, "pitch": 59, "duration": 4, "velocity": 97}, {"time": 597, "pitch": 61, "duration": 6, "velocity": 97}, {"time": 603, "pitch": 59, "duration": 19, "velocity": 90}, {"time": 627, "pitch": 59, "duration": 4, "velocity": 96}, {"time": 633, "pitch": 61, "duration": 3, "velocity": 93}, {"time": 636, "pitch": 63, "duration": 7, "velocity": 89}, {"time": 645, "pitch": 68, "duration": 4, "velocity": 99}, {"time": 651, "pitch": 66, "duration": 6, "velocity": 127}, {"time": 657, "pitch": 63, "duration": 12, "velocity": 99}, {"time": 675, "pitch": 59, "duration": 7, "velocity": 93}, {"time": 681, "pitch": 56, "duration": 4, "velocity": 100}, {"time": 687, "pitch": 59, "duration": 7, "velocity": 93}, {"time": 696, "pitch": 61, "duration": 4, "velocity": 96}, {"time": 699, "pitch": 63, "duration": 14, "velocity": 97}, {"time": 720, "pitch": 56, "duration": 3, "velocity": 88}, {"time": 723, "pitch": 59, "duration": 4, "velocity": 93}, {"time": 729, "pitch": 56, "duration": 3, "velocity": 89}, {"time": 732, "pitch": 59, "duration": 4, "velocity": 93}, {"time": 744, "pitch": 71, "duration": 3, "velocity": 117}, {"time": 747, "pitch": 70, "duration": 5, "velocity": 117}, {"time": 753, "pitch": 71, "duration": 5, "velocity": 100}, {"time": 759, "pitch": 66, "duration": 6, "velocity": 97}, {"time": 765, "pitch": 63, "duration": 6, "velocity": 96}, {"time": 771, "pitch": 68, "duration": 25, "velocity": 102}, {"time": 816, "pitch": 66, "duration": 1, "velocity": 95}, {"time": 819, "pitch": 68, "duration": 4, "velocity": 102}, {"time": 825, "pitch": 63, "duration": 2, "velocity": 96}, {"time": 828, "pitch": 66, "duration": 9, "velocity": 117}, {"time": 840, "pitch": 66, "duration": 2, "velocity": 102}, {"time": 843, "pitch": 68, "duration": 2, "velocity": 122}, {"time": 846, "pitch": 71, "duration": 2, "velocity": 112}, {"time": 849, "pitch": 68, "duration": 2, "velocity": 107}, {"time": 852, "pitch": 66, "duration": 2, "velocity": 93}, {"time": 855, "pitch": 63, "duration": 2, "velocity": 127}, {"time": 858, "pitch": 61, "duration": 2, "velocity": 122}, {"time": 861, "pitch": 59, "duration": 2, "velocity": 107}, {"time": 864, "pitch": 61, "duration": 1, "velocity": 112}, {"time": 867, "pitch": 63, "duration": 4, "velocity": 127}, {"time": 873, "pitch": 56, "duration": 2, "velocity": 102}, {"time": 876, "pitch": 59, "duration": 10, "velocity": 127}, {"time": 888, "pitch": 61, "duration": 2, "velocity": 97}, {"time": 891, "pitch": 63, "duration": 2, "velocity": 97}, {"time": 894, "pitch": 66, "duration": 2, "velocity": 100}, {"time": 897, "pitch": 63, "duration": 2, "velocity": 96}, {"time": 900, "pitch": 61, "duration": 2, "velocity": 99}, {"time": 903, "pitch": 59, "duration": 2, "velocity": 102}, {"time": 906, "pitch": 61, "duration": 2, "velocity": 93}, {"time": 909, "pitch": 63, "duration": 2, "velocity": 96}, {"time": 912, "pitch": 66, "duration": 2, "velocity": 100}, {"time": 915, "pitch": 68, "duration": 3, "velocity": 122}, {"time": 921, "pitch": 63, "duration": 2, "velocity": 97}, {"time": 924, "pitch": 66, "duration": 7, "velocity": 102}, {"time": 936, "pitch": 63, "duration": 2, "velocity": 102}, {"time": 939, "pitch": 61, "duration": 3, "velocity": 112}, {"time": 945, "pitch": 63, "duration": 2, "velocity": 102}, {"time": 948, "pitch": 59, "duration": 9, "velocity": 100}, {"time": 960, "pitch": 63, "duration": 2, "velocity": 117}, {"time": 963, "pitch": 61, "duration": 2, "velocity": 112}, {"time": 966, "pitch": 59, "duration": 2, "velocity": 107}, {"time": 969, "pitch": 59, "duration": 2, "velocity": 96}, {"time": 972, "pitch": 56, "duration": 2, "velocity": 89}, {"time": 975, "pitch": 59, "duration": 2, "velocity": 99}, {"time": 978, "pitch": 61, "duration": 2, "velocity": 107}, {"time": 984, "pitch": 63, "duration": 3, "velocity": 97}, {"time": 987, "pitch": 61, "duration": 9, "velocity": 122}, {"time": 996, "pitch": 54, "duration": 2, "velocity": 93}, {"time": 999, "pitch": 59, "duration": 2, "velocity": 96}, {"time": 1002, "pitch": 61, "duration": 3, "velocity": 96}, {"time": 1005, "pitch": 63, "duration": 1, "velocity": 107}, {"time": 1008, "pitch": 66, "duration": 2, "velocity": 102}, {"time": 1011, "pitch": 68, "duration": 4, "velocity": 112}, {"time": 1017, "pitch": 63, "duration": 2, "velocity": 95}, {"time": 1020, "pitch": 66, "duration": 7, "velocity": 117}, {"time": 1032, "pitch": 66, "duration": 2, "velocity": 102}, {"time": 1035, "pitch": 68, "duration": 2, "velocity": 112}, {"time": 1038, "pitch": 71, "duration": 1, "velocity": 112}, {"time": 1041, "pitch": 68, "duration": 2, "velocity": 107}, {"time": 1044, "pitch": 66, "duration": 2, "velocity": 100}, {"time": 1047, "pitch": 63, "duration": 1, "velocity": 102}, {"time": 1050, "pitch": 61, "duration": 2, "velocity": 112}, {"time": 1053, "pitch": 59, "duration": 2, "velocity": 100}, {"time": 1056, "pitch": 61, "duration": 1, "velocity": 95}, {"time": 1059, "pitch": 63, "duration": 4, "velocity": 127}, {"time": 1065, "pitch": 56, "duration": 2, "velocity": 95}, {"time": 1068, "pitch": 59, "duration": 8, "velocity": 107}, {"time": 1080, "pitch": 61, "duration": 2, "velocity": 100}, {"time": 1083, "pitch": 63, "duration": 1, "velocity": 112}, {"time": 1086, "pitch": 66, "duration": 1, "velocity": 86}, {"time": 1089, "pitch": 63, "duration": 2, "velocity": 102}, {"time": 1092, "pitch": 61, "duration": 1, "velocity": 90}, {"time": 1095, "pitch": 59, "duration": 2, "velocity": 96}, {"time": 1098, "pitch": 61, "duration": 2, "velocity": 97}, {"time": 1101, "pitch": 63, "duration": 2, "velocity": 112}, {"time": 1104, "pitch": 66, "duration": 2, "velocity": 96}, {"time": 1107, "pitch": 68, "duration": 4, "velocity": 117}, {"time": 1119, "pitch": 68, "duration": 3, "velocity": 102}, {"time": 1122, "pitch": 66, "duration": 3, "velocity": 82}, {"time": 1125, "pitch": 63, "duration": 4, "velocity": 97}, {"time": 1128, "pitch": 68, "duration": 3, "velocity": 97}, {"time": 1131, "pitch": 66, "duration": 6, "velocity": 112}, {"time": 1143, "pitch": 66, "duration": 2, "velocity": 96}, {"time": 1146, "pitch": 68, "duration": 2, "velocity": 102}, {"time": 1149, "pitch": 71, "duration": 2, "velocity": 97}, {"time": 1152, "pitch": 68, "duration": 2, "velocity": 102}, {"time": 1155, "pitch": 71, "duration": 3, "velocity": 112}, {"time": 1158, "pitch": 68, "duration": 3, "velocity": 102}, {"time": 1161, "pitch": 66, "duration": 2, "velocity": 92}, {"time": 1164, "pitch": 68, "duration": 4, "velocity": 99}, {"time": 1170, "pitch": 63, "duration": 9, "velocity": 99}, {"time": 1179, "pitch": 61, "duration": 3, "velocity": 102}, {"time": 1182, "pitch": 63, "duration": 2, "velocity": 93}, {"time": 1185, "pitch": 66, "duration": 2, "velocity": 97}, {"time": 1188, "pitch": 63, "duration": 4, "velocity": 112}, {"time": 1191, "pitch": 61, "duration": 2, "velocity": 112}, {"time": 1194, "pitch": 59, "duration": 3, "velocity": 107}, {"time": 1203, "pitch": 56, "duration": 7, "velocity": 92}, {"time": 1209, "pitch": 59, "duration": 19, "velocity": 99}, {"time": 1395, "pitch": 59, "duration": 4, "velocity": 96}, {"time": 1401, "pitch": 61, "duration": 3, "velocity": 93}, {"time": 1404, "pitch": 63, "duration": 7, "velocity": 89}, {"time": 1413, "pitch": 68, "duration": 4, "velocity": 99}, {"time": 1419, "pitch": 66, "duration": 6, "velocity": 127}, {"time": 1425, "pitch": 63, "duration": 12, "velocity": 99}, {"time": 1443, "pitch": 59, "duration": 7, "velocity": 93}, {"time": 1449, "pitch": 56, "duration": 4, "velocity": 100}, {"time": 1455, "pitch": 59, "duration": 7, "velocity": 93}, {"time": 1464, "pitch": 61, "duration": 4, "velocity": 96}, {"time": 1467, "pitch": 63, "duration": 14, "velocity": 97}, {"time": 1488, "pitch": 56, "duration": 3, "velocity": 88}, {"time": 1491, "pitch": 59, "duration": 4, "velocity": 93}, {"time": 1497, "pitch": 56, "duration": 3, "velocity": 89}, {"time": 1500, "pitch": 59, "duration": 4, "velocity": 93}, {"time": 1512, "pitch": 71, "duration": 3, "velocity": 117}, {"time": 1515, "pitch": 70, "duration": 5, "velocity": 117}, {"time": 1521, "pitch": 71, "duration": 5, "velocity": 100}, {"time": 1527, "pitch": 66, "duration": 6, "velocity": 97}, {"time": 1533, "pitch": 63, "duration": 6, "velocity": 96}, {"time": 1539, "pitch": 68, "duration": 25, "velocity": 102}, {"time": 1560, "pitch": 70, "duration": 2, "velocity": 100}, {"time": 1563, "pitch": 66, "duration": 8, "velocity": 95}, {"time": 1563, "pitch": 68, "duration": 1, "velocity": 72}, {"time": 1584, "pitch": 66, "duration": 2, "velocity": 95}, {"time": 1587, "pitch": 68, "duration": 4, "velocity": 102}, {"time": 1593, "pitch": 63, "duration": 2, "velocity": 96}, {"time": 1596, "pitch": 66, "duration": 9, "velocity": 117}, {"time": 1608, "pitch": 66, "duration": 2, "velocity": 102}, {"time": 1611, "pitch": 68, "duration": 2, "velocity": 122}, {"time": 1614, "pitch": 71, "duration": 2, "velocity": 112}, {"time": 1617, "pitch": 68, "duration": 2, "velocity": 107}, {"time": 1620, "pitch": 66, "duration": 2, "velocity": 93}, {"time": 1623, "pitch": 63, "duration": 2, "velocity": 127}, {"time": 1626, "pitch": 61, "duration": 2, "velocity": 122}, {"time": 1629, "pitch": 59, "duration": 2, "velocity": 107}, {"time": 1632, "pitch": 61, "duration": 1, "velocity": 112}, {"time": 1635, "pitch": 63, "duration": 4, "velocity": 127}, {"time": 1641, "pitch": 56, "duration": 2, "velocity": 102}, {"time": 1644, "pitch": 59, "duration": 10, "velocity": 127}, {"time": 1656, "pitch": 61, "duration": 2, "velocity": 97}, {"time": 1659, "pitch": 63, "duration": 2, "velocity": 97}, {"time": 1662, "pitch": 66, "duration": 2, "velocity": 100}, {"time": 1665, "pitch": 63, "duration": 2, "velocity": 96}, {"time": 1668, "pitch": 61, "duration": 2, "velocity": 99}, {"time": 1671, "pitch": 59, "duration": 2, "velocity": 102}, {"time": 1674, "pitch": 61, "duration": 2, "velocity": 93}, {"time": 1677, "pitch": 63, "duration": 2, "velocity": 96}, {"time": 1680, "pitch": 66, "duration": 2, "velocity": 100}, {"time": 1683, "pitch": 68, "duration": 3, "velocity": 122}, {"time": 1689, "pitch": 63, "duration": 2, "velocity": 97}, {"time": 1692, "pitch": 66, "duration": 7, "velocity": 102}, {"time": 1704, "pitch": 63, "duration": 2, "velocity": 102}, {"time": 1707, "pitch": 61, "duration": 3, "velocity": 112}, {"time": 1713, "pitch": 63, "duration": 2, "velocity": 102}, {"time": 1716, "pitch": 59, "duration": 9, "velocity": 100}, {"time": 1728, "pitch": 63, "duration": 2, "velocity": 117}, {"time": 1731, "pitch": 61, "duration": 2, "velocity": 112}, {"time": 1734, "pitch": 59, "duration": 2, "velocity": 107}, {"time": 1737, "pitch": 59, "duration": 2, "velocity": 96}, {"time": 1740, "pitch": 56, "duration": 2, "velocity": 89}, {"time": 1743, "pitch": 59, "duration": 2, "velocity": 99}, {"time": 1746, "pitch": 61, "duration": 2, "velocity": 107}, {"time": 1752, "pitch": 63, "duration": 3, "velocity": 97}, {"time": 1755, "pitch": 61, "duration": 9, "velocity": 122}, {"time": 1764, "pitch": 54, "duration": 2, "velocity": 93}, {"time": 1767, "pitch": 59, "duration": 2, "velocity": 96}, {"time": 1770, "pitch": 61, "duration": 3, "velocity": 96}, {"time": 1773, "pitch": 63, "duration": 1, "velocity": 107}, {"time": 1776, "pitch": 66, "duration": 2, "velocity": 102}, {"time": 1779, "pitch": 68, "duration": 4, "velocity": 112}, {"time": 1785, "pitch": 63, "duration": 2, "velocity": 95}, {"time": 1788, "pitch": 66, "duration": 7, "velocity": 117}, {"time": 1800, "pitch": 66, "duration": 2, "velocity": 102}, {"time": 1803, "pitch": 68, "duration": 2, "velocity": 112}, {"time": 1806, "pitch": 71, "duration": 1, "velocity": 112}, {"time": 1809, "pitch": 68, "duration": 2, "velocity": 107}, {"time": 1812, "pitch": 66, "duration": 2, "velocity": 100}, {"time": 1815, "pitch": 63, "duration": 1, "velocity": 102}, {"time": 1818, "pitch": 61, "duration": 2, "velocity": 112}, {"time": 1821, "pitch": 59, "duration": 2, "velocity": 100}, {"time": 1824, "pitch": 61, "duration": 1, "velocity": 95}, {"time": 1827, "pitch": 63, "duration": 4, "velocity": 127}, {"time": 1833, "pitch": 56, "duration": 2, "velocity": 95}, {"time": 1836, "pitch": 59, "duration": 8, "velocity": 107}, {"time": 1848, "pitch": 61, "duration": 2, "velocity": 100}, {"time": 1851, "pitch": 63, "duration": 1, "velocity": 112}, {"time": 1854, "pitch": 66, "duration": 1, "velocity": 86}, {"time": 1857, "pitch": 63, "duration": 2, "velocity": 102}, {"time": 1860, "pitch": 61, "duration": 1, "velocity": 90}, {"time": 1863, "pitch": 59, "duration": 2, "velocity": 96}, {"time": 1866, "pitch": 61, "duration": 2, "velocity": 97}, {"time": 1869, "pitch": 63, "duration": 2, "velocity": 112}, {"time": 1872, "pitch": 66, "duration": 2, "velocity": 96}, {"time": 1875, "pitch": 68, "duration": 4, "velocity": 117}, {"time": 1887, "pitch": 68, "duration": 3, "velocity": 102}, {"time": 1890, "pitch": 66, "duration": 3, "velocity": 82}, {"time": 1893, "pitch": 63, "duration": 4, "velocity": 97}, {"time": 1896, "pitch": 68, "duration": 3, "velocity": 97}, {"time": 1899, "pitch": 66, "duration": 6, "velocity": 112}, {"time": 1911, "pitch": 66, "duration": 2, "velocity": 96}, {"time": 1914, "pitch": 68, "duration": 2, "velocity": 102}, {"time": 1917, "pitch": 71, "duration": 2, "velocity": 97}, {"time": 1920, "pitch": 68, "duration": 2, "velocity": 102}, {"time": 1923, "pitch": 71, "duration": 3, "velocity": 112}, {"time": 1926, "pitch": 68, "duration": 3, "velocity": 102}, {"time": 1929, "pitch": 66, "duration": 2, "velocity": 92}, {"time": 1932, "pitch": 68, "duration": 4, "velocity": 99}, {"time": 1938, "pitch": 63, "duration": 9, "velocity": 99}, {"time": 1947, "pitch": 61, "duration": 3, "velocity": 102}, {"time": 1950, "pitch": 63, "duration": 2, "velocity": 93}, {"time": 1953, "pitch": 66, "duration": 2, "velocity": 97}, {"time": 1956, "pitch": 63, "duration": 4, "velocity": 112}, {"time": 1959, "pitch": 61, "duration": 2, "velocity": 112}, {"time": 1962, "pitch": 59, "duration": 3, "velocity": 107}, {"time": 1971, "pitch": 56, "duration": 7, "velocity": 92}, {"time": 1977, "pitch": 59, "duration": 19, "velocity": 99}, {"time": 1998, "pitch": 54, "duration": 2, "velocity": 95}, {"time": 2001, "pitch": 61, "duration": 2, "velocity": 100}, {"time": 2004, "pitch": 63, "duration": 2, "velocity": 107}, {"time": 2007, "pitch": 66, "duration": 3, "velocity": 112}, {"time": 2013, "pitch": 63, "duration": 4, "velocity": 95}, {"time": 2019, "pitch": 61, "duration": 6, "velocity": 117}, {"time": 2025, "pitch": 63, "duration": 11, "velocity": 122}, {"time": 2046, "pitch": 54, "duration": 3, "velocity": 73}, {"time": 2049, "pitch": 61, "duration": 3, "velocity": 100}, {"time": 2052, "pitch": 63, "duration": 2, "velocity": 97}, {"time": 2055, "pitch": 66, "duration": 3, "velocity": 122}, {"time": 2058, "pitch": 63, "duration": 4, "velocity": 107}, {"time": 2064, "pitch": 61, "duration": 2, "velocity": 107}, {"time": 2067, "pitch": 61, "duration": 5, "velocity": 117}, {"time": 2073, "pitch": 63, "duration": 3, "velocity": 102}, {"time": 2076, "pitch": 59, "duration": 12, "velocity": 117}, {"time": 2094, "pitch": 59, "duration": 1, "velocity": 100}, {"time": 2097, "pitch": 59, "duration": 2, "velocity": 93}, {"time": 2100, "pitch": 61, "duration": 2, "velocity": 112}, {"time": 2103, "pitch": 63, "duration": 3, "velocity": 107}, {"time": 2109, "pitch": 66, "duration": 2, "velocity": 117}, {"time": 2112, "pitch": 70, "duration": 4, "velocity": 112}, {"time": 2121, "pitch": 66, "duration": 11, "velocity": 107}, {"time": 2136, "pitch": 66, "duration": 1, "velocity": 112}, {"time": 2139, "pitch": 68, "duration": 5, "velocity": 127}, {"time": 2145, "pitch": 66, "duration": 1, "velocity": 122}, {"time": 2148, "pitch": 63, "duration": 6, "velocity": 107}, {"time": 2157, "pitch": 61, "duration": 1, "velocity": 112}, {"time": 2160, "pitch": 61, "duration": 6, "velocity": 117}, {"time": 2169, "pitch": 63, "duration": 2, "velocity": 122}, {"time": 2175, "pitch": 61, "duration": 4, "velocity": 117}, {"time": 2178, "pitch": 59, "duration": 10, "velocity": 89}, {"time": 2196, "pitch": 68, "duration": 3, "velocity": 127}, {"time": 2199, "pitch": 66, "duration": 3, "velocity": 99}, {"time": 2202, "pitch": 63, "duration": 2, "velocity": 100}, {"time": 2205, "pitch": 61, "duration": 3, "velocity": 100}, {"time": 2208, "pitch": 59, "duration": 2, "velocity": 97}, {"time": 2211, "pitch": 63, "duration": 5, "velocity": 107}, {"time": 2217, "pitch": 59, "duration": 2, "velocity": 100}, {"time": 2223, "pitch": 59, "duration": 6, "velocity": 112}, {"time": 2226, "pitch": 56, "duration": 12, "velocity": 100}, {"time": 2256, "pitch": 66, "duration": 2, "velocity": 95}, {"time": 2259, "pitch": 68, "duration": 4, "velocity": 102}, {"time": 2265, "pitch": 63, "duration": 2, "velocity": 96}, {"time": 2268, "pitch": 66, "duration": 9, "velocity": 117}, {"time": 2280, "pitch": 66, "duration": 2, "velocity": 102}, {"time": 2283, "pitch": 68, "duration": 2, "velocity": 122}, {"time": 2286, "pitch": 71, "duration": 2, "velocity": 112}, {"time": 2289, "pitch": 68, "duration": 2, "velocity": 107}, {"time": 2292, "pitch": 66, "duration": 2, "velocity": 93}, {"time": 2295, "pitch": 63, "duration": 2, "velocity": 127}, {"time": 2298, "pitch": 61, "duration": 2, "velocity": 122}, {"time": 2301, "pitch": 59, "duration": 2, "velocity": 107}, {"time": 2304, "pitch": 61, "duration": 1, "velocity": 112}, {"time": 2307, "pitch": 63, "duration": 4, "velocity": 127}, {"time": 2313, "pitch": 56, "duration": 2, "velocity": 102}, {"time": 2316, "pitch": 59, "duration": 10, "velocity": 127}, {"time": 2328, "pitch": 61, "duration": 2, "velocity": 97}, {"time": 2331, "pitch": 63, "duration": 2, "velocity": 97}, {"time": 2334, "pitch": 66, "duration": 2, "velocity": 100}, {"time": 2337, "pitch": 63, "duration": 2, "velocity": 96}, {"time": 2340, "pitch": 61, "duration": 2, "velocity": 99}, {"time": 2343, "pitch": 59, "duration": 2, "velocity": 102}, {"time": 2346, "pitch": 61, "duration": 2, "velocity": 93}, {"time": 2349, "pitch": 63, "duration": 2, "velocity": 96}, {"time": 2352, "pitch": 66, "duration": 2, "velocity": 100}, {"time": 2355, "pitch": 68, "duration": 3, "velocity": 122}, {"time": 2361, "pitch": 63, "duration": 2, "velocity": 97}, {"time": 2364, "pitch": 66, "duration": 7, "velocity": 102}, {"time": 2376, "pitch": 63, "duration": 2, "velocity": 102}, {"time": 2379, "pitch": 61, "duration": 3, "velocity": 112}, {"time": 2385, "pitch": 63, "duration": 2, "velocity": 102}, {"time": 2388, "pitch": 59, "duration": 9, "velocity": 100}, {"time": 2400, "pitch": 63, "duration": 2, "velocity": 117}, {"time": 2403, "pitch": 61, "duration": 2, "velocity": 112}, {"time": 2406, "pitch": 59, "duration": 2, "velocity": 107}, {"time": 2409, "pitch": 59, "duration": 2, "velocity": 96}, {"time": 2412, "pitch": 56, "duration": 2, "velocity": 89}, {"time": 2415, "pitch": 59, "duration": 2, "velocity": 99}, {"time": 2418, "pitch": 61, "duration": 2, "velocity": 107}, {"time": 2424, "pitch": 63, "duration": 3, "velocity": 97}, {"time": 2427, "pitch": 61, "duration": 9, "velocity": 122}, {"time": 2436, "pitch": 54, "duration": 2, "velocity": 93}, {"time": 2439, "pitch": 59, "duration": 2, "velocity": 96}, {"time": 2442, "pitch": 61, "duration": 3, "velocity": 96}, {"time": 2445, "pitch": 63, "duration": 1, "velocity": 107}, {"time": 2448, "pitch": 66, "duration": 2, "velocity": 102}, {"time": 2451, "pitch": 68, "duration": 4, "velocity": 112}, {"time": 2457, "pitch": 63, "duration": 2, "velocity": 95}, {"time": 2460, "pitch": 66, "duration": 7, "velocity": 117}, {"time": 2472, "pitch": 66, "duration": 2, "velocity": 102}, {"time": 2475, "pitch": 68, "duration": 2, "velocity": 112}, {"time": 2478, "pitch": 71, "duration": 1, "velocity": 112}, {"time": 2481, "pitch": 68, "duration": 2, "velocity": 107}, {"time": 2484, "pitch": 66, "duration": 2, "velocity": 100}, {"time": 2487, "pitch": 63, "duration": 1, "velocity": 102}, {"time": 2490, "pitch": 61, "duration": 2, "velocity": 112}, {"time": 2493, "pitch": 59, "duration": 2, "velocity": 100}, {"time": 2496, "pitch": 61, "duration": 1, "velocity": 95}, {"time": 2499, "pitch": 63, "duration": 4, "velocity": 127}, {"time": 2505, "pitch": 56, "duration": 2, "velocity": 95}, {"time": 2508, "pitch": 59, "duration": 8, "velocity": 107}, {"time": 2520, "pitch": 61, "duration": 2, "velocity": 100}, {"time": 2523, "pitch": 63, "duration": 1, "velocity": 112}, {"time": 2526, "pitch": 66, "duration": 1, "velocity": 86}, {"time": 2529, "pitch": 63, "duration": 2, "velocity": 102}, {"time": 2532, "pitch": 61, "duration": 1, "velocity": 90}, {"time": 2535, "pitch": 59, "duration": 2, "velocity": 96}, {"time": 2538, "pitch": 61, "duration": 2, "velocity": 97}, {"time": 2541, "pitch": 63, "duration": 2, "velocity": 112}, {"time": 2544, "pitch": 66, "duration": 2, "velocity": 96}, {"time": 2547, "pitch": 68, "duration": 4, "velocity": 117}, {"time": 2559, "pitch": 68, "duration": 3, "velocity": 102}, {"time": 2562, "pitch": 66, "duration": 3, "velocity": 82}, {"time": 2565, "pitch": 63, "duration": 4, "velocity": 97}, {"time": 2568, "pitch": 68, "duration": 3, "velocity": 97}, {"time": 2571, "pitch": 66, "duration": 6, "velocity": 112}, {"time": 2583, "pitch": 66, "duration": 2, "velocity": 96}, {"time": 2586, "pitch": 68, "duration": 2, "velocity": 102}, {"time": 2589, "pitch": 71, "duration": 2, "velocity": 97}, {"time": 2592, "pitch": 68, "duration": 2, "velocity": 102}, {"time": 2595, "pitch": 71, "duration": 3, "velocity": 112}, {"time": 2598, "pitch": 68, "duration": 3, "velocity": 102}, {"time": 2601, "pitch": 66, "duration": 2, "velocity": 92}, {"time": 2604, "pitch": 68, "duration": 4, "velocity": 99}, {"time": 2610, "pitch": 63, "duration": 9, "velocity": 99}, {"time": 2619, "pitch": 61, "duration": 3, "velocity": 102}, {"time": 2622, "pitch": 63, "duration": 2, "velocity": 93}, {"time": 2625, "pitch": 66, "duration": 2, "velocity": 97}, {"time": 2628, "pitch": 63, "duration": 4, "velocity": 112}, {"time": 2631, "pitch": 61, "duration": 2, "velocity": 112}, {"time": 2634, "pitch": 59, "duration": 3, "velocity": 107}, {"time": 2649, "pitch": 56, "duration": 6, "velocity": 99}, {"time": 2655, "pitch": 59, "duration": 12, "velocity": 112}, {"time": 2685, "pitch": 66, "duration": 2, "velocity": 100}, {"time": 2690, "pitch": 68, "duration": 6, "velocity": 107}, {"time": 2696, "pitch": 66, "duration": 3, "velocity": 117}, {"time": 2702, "pitch": 63, "duration": 5, "velocity": 95}, {"time": 2707, "pitch": 61, "duration": 5, "velocity": 97}, {"time": 2716, "pitch": 66, "duration": 23, "velocity": 107}, {"time": 2745, "pitch": 58, "duration": 7, "velocity": 90}, {"time": 2756, "pitch": 59, "duration": 38, "velocity": 95}]}, {"program": 0, "is_drum": false, "name": "PIANO", "notes": [{"time": 27, "pitch": 47, "duration": 18, "velocity": 72}, {"time": 33, "pitch": 54, "duration": 10, "velocity": 49}, {"time": 39, "pitch": 66, "duration": 14, "velocity": 76}, {"time": 45, "pitch": 63, "duration": 8, "velocity": 81}, {"time": 51, "pitch": 39, "duration": 14, "velocity": 77}, {"time": 57, "pitch": 46, "duration": 12, "velocity": 58}, {"time": 63, "pitch": 66, "duration": 13, "velocity": 96}, {"time": 69, "pitch": 63, "duration": 7, "velocity": 70}, {"time": 75, "pitch": 40, "duration": 17, "velocity": 86}, {"time": 81, "pitch": 47, "duration": 11, "velocity": 52}, {"time": 87, "pitch": 52, "duration": 4, "velocity": 41}, {"time": 87, "pitch": 59, "duration": 8, "velocity": 89}, {"time": 93, "pitch": 56, "duration": 7, "velocity": 85}, {"time": 99, "pitch": 39, "duration": 18, "velocity": 82}, {"time": 105, "pitch": 46, "duration": 18, "velocity": 52}, {"time": 111, "pitch": 51, "duration": 5, "velocity": 59}, {"time": 111, "pitch": 66, "duration": 14, "velocity": 93}, {"time": 117, "pitch": 63, "duration": 8, "velocity": 89}, {"time": 123, "pitch": 40, "duration": 18, "velocity": 73}, {"time": 129, "pitch": 47, "duration": 12, "velocity": 54}, {"time": 135, "pitch": 52, "duration": 4, "velocity": 59}, {"time": 135, "pitch": 59, "duration": 12, "velocity": 90}, {"time": 141, "pitch": 56, "duration": 6, "velocity": 92}, {"time": 147, "pitch": 39, "duration": 11, "velocity": 90}, {"time": 147, "pitch": 58, "duration": 12, "velocity": 82}, {"time": 147, "pitch": 63, "duration": 9, "velocity": 93}, {"time": 147, "pitch": 66, "duration": 23, "velocity": 89}, {"time": 153, "pitch": 46, "duration": 5, "velocity": 79}, {"time": 159, "pitch": 38, "duration": 12, "velocity": 122}, {"time": 159, "pitch": 62, "duration": 12, "velocity": 127}, {"time": 159, "pitch": 70, "duration": 10, "velocity": 41}, {"time": 171, "pitch": 37, "duration": 19, "velocity": 78}, {"time": 171, "pitch": 61, "duration": 16, "velocity": 88}, {"time": 171, "pitch": 64, "duration": 20, "velocity": 92}, {"time": 171, "pitch": 68, "duration": 19, "velocity": 97}, {"time": 177, "pitch": 44, "duration": 14, "velocity": 57}, {"time": 183, "pitch": 49, "duration": 12, "velocity": 90}, {"time": 189, "pitch": 61, "duration": 3, "velocity": 95}, {"time": 195, "pitch": 40, "duration": 42, "velocity": 83}, {"time": 195, "pitch": 59, "duration": 48, "velocity": 96}, {"time": 195, "pitch": 64, "duration": 47, "velocity": 99}, {"time": 195, "pitch": 67, "duration": 47, "velocity": 102}, {"time": 201, "pitch": 47, "duration": 35, "velocity": 56}, {"time": 207, "pitch": 52, "duration": 27, "velocity": 82}, {"time": 243, "pitch": 35, "duration": 19, "velocity": 72}, {"time": 243, "pitch": 59, "duration": 5, "velocity": 77}, {"time": 243, "pitch": 63, "duration": 6, "velocity": 83}, {"time": 243, "pitch": 66, "duration": 5, "velocity": 81}, {"time": 255, "pitch": 47, "duration": 11, "velocity": 40}, {"time": 255, "pitch": 66, "duration": 7, "velocity": 81}, {"time": 255, "pitch": 71, "duration": 6, "velocity": 79}, {"time": 255, "pitch": 75, "duration": 5, "velocity": 76}, {"time": 267, "pitch": 39, "duration": 20, "velocity": 70}, {"time": 267, "pitch": 63, "duration": 9, "velocity": 70}, {"time": 267, "pitch": 66, "duration": 9, "velocity": 72}, {"time": 267, "pitch": 70, "duration": 9, "velocity": 69}, {"time": 267, "pitch": 73, "duration": 2, "velocity": 59}, {"time": 273, "pitch": 46, "duration": 9, "velocity": 37}, {"time": 279, "pitch": 51, "duration": 7, "velocity": 55}, {"time": 279, "pitch": 63, "duration": 6, "velocity": 71}, {"time": 279, "pitch": 66, "duration": 6, "velocity": 75}, {"time": 279, "pitch": 70, "duration": 6, "velocity": 73}, {"time": 285, "pitch": 46, "duration": 7, "velocity": 56}, {"time": 291, "pitch": 40, "duration": 21, "velocity": 63}, {"time": 291, "pitch": 59, "duration": 10, "velocity": 86}, {"time": 291, "pitch": 64, "duration": 10, "velocity": 79}, {"time": 291, "pitch": 68, "duration": 10, "velocity": 78}, {"time": 297, "pitch": 47, "duration": 9, "velocity": 33}, {"time": 303, "pitch": 52, "duration": 6, "velocity": 44}, {"time": 303, "pitch": 59, "duration": 6, "velocity": 81}, {"time": 303, "pitch": 64, "duration": 5, "velocity": 90}, {"time": 303, "pitch": 68, "duration": 6, "velocity": 78}, {"time": 309, "pitch": 47, "duration": 4, "velocity": 50}, {"time": 315, "pitch": 39, "duration": 18, "velocity": 66}, {"time": 315, "pitch": 63, "duration": 7, "velocity": 77}, {"time": 315, "pitch": 66, "duration": 6, "velocity": 88}, {"time": 315, "pitch": 70, "duration": 7, "velocity": 79}, {"time": 315, "pitch": 73, "duration": 7, "velocity": 79}, {"time": 321, "pitch": 46, "duration": 14, "velocity": 39}, {"time": 327, "pitch": 49, "duration": 2, "velocity": 24}, {"time": 327, "pitch": 51, "duration": 1, "velocity": 28}, {"time": 327, "pitch": 63, "duration": 8, "velocity": 72}, {"time": 327, "pitch": 66, "duration": 8, "velocity": 77}, {"time": 327, "pitch": 70, "duration": 8, "velocity": 72}, {"time": 327, "pitch": 73, "duration": 8, "velocity": 75}, {"time": 339, "pitch": 40, "duration": 22, "velocity": 71}, {"time": 339, "pitch": 64, "duration": 9, "velocity": 85}, {"time": 339, "pitch": 68, "duration": 9, "velocity": 77}, {"time": 339, "pitch": 71, "duration": 9, "velocity": 72}, {"time": 339, "pitch": 75, "duration": 7, "velocity": 73}, {"time": 345, "pitch": 47, "duration": 10, "velocity": 37}, {"time": 351, "pitch": 52, "duration": 6, "velocity": 42}, {"time": 351, "pitch": 64, "duration": 7, "velocity": 72}, {"time": 351, "pitch": 68, "duration": 6, "velocity": 83}, {"time": 351, "pitch": 71, "duration": 6, "velocity": 77}, {"time": 351, "pitch": 75, "duration": 6, "velocity": 76}, {"time": 357, "pitch": 47, "duration": 4, "velocity": 49}, {"time": 363, "pitch": 39, "duration": 5, "velocity": 71}, {"time": 363, "pitch": 63, "duration": 5, "velocity": 86}, {"time": 363, "pitch": 66, "duration": 4, "velocity": 92}, {"time": 363, "pitch": 70, "duration": 4, "velocity": 92}, {"time": 363, "pitch": 73, "duration": 3, "velocity": 83}, {"time": 375, "pitch": 35, "duration": 4, "velocity": 74}, {"time": 375, "pitch": 59, "duration": 9, "velocity": 92}, {"time": 375, "pitch": 63, "duration": 9, "velocity": 86}, {"time": 375, "pitch": 66, "duration": 7, "velocity": 88}, {"time": 387, "pitch": 40, "duration": 23, "velocity": 69}, {"time": 387, "pitch": 59, "duration": 10, "velocity": 82}, {"time": 387, "pitch": 64, "duration": 9, "velocity": 77}, {"time": 387, "pitch": 68, "duration": 9, "velocity": 77}, {"time": 393, "pitch": 47, "duration": 8, "velocity": 42}, {"time": 399, "pitch": 52, "duration": 7, "velocity": 39}, {"time": 399, "pitch": 59, "duration": 8, "velocity": 73}, {"time": 399, "pitch": 64, "duration": 7, "velocity": 89}, {"time": 399, "pitch": 68, "duration": 7, "velocity": 78}, {"time": 405, "pitch": 47, "duration": 7, "velocity": 34}, {"time": 411, "pitch": 42, "duration": 20, "velocity": 61}, {"time": 411, "pitch": 61, "duration": 11, "velocity": 82}, {"time": 411, "pitch": 66, "duration": 11, "velocity": 81}, {"time": 411, "pitch": 70, "duration": 11, "velocity": 78}, {"time": 417, "pitch": 49, "duration": 8, "velocity": 38}, {"time": 423, "pitch": 54, "duration": 6, "velocity": 48}, {"time": 423, "pitch": 61, "duration": 9, "velocity": 76}, {"time": 423, "pitch": 66, "duration": 6, "velocity": 86}, {"time": 423, "pitch": 70, "duration": 6, "velocity": 82}, {"time": 429, "pitch": 49, "duration": 2, "velocity": 57}, {"time": 435, "pitch": 35, "duration": 19, "velocity": 77}, {"time": 435, "pitch": 59, "duration": 8, "velocity": 79}, {"time": 435, "pitch": 63, "duration": 7, "velocity": 82}, {"time": 435, "pitch": 66, "duration": 8, "velocity": 78}, {"time": 441, "pitch": 42, "duration": 8, "velocity": 48}, {"time": 447, "pitch": 47, "duration": 12, "velocity": 44}, {"time": 447, "pitch": 59, "duration": 7, "velocity": 83}, {"time": 447, "pitch": 63, "duration": 6, "velocity": 89}, {"time": 447, "pitch": 66, "duration": 7, "velocity": 83}, {"time": 453, "pitch": 42, "duration": 5, "velocity": 37}, {"time": 459, "pitch": 39, "duration": 24, "velocity": 68}, {"time": 459, "pitch": 63, "duration": 10, "velocity": 79}, {"time": 459, "pitch": 66, "duration": 10, "velocity": 82}, {"time": 459, "pitch": 70, "duration": 8, "velocity": 78}, {"time": 465, "pitch": 46, "duration": 8, "velocity": 40}, {"time": 471, "pitch": 51, "duration": 7, "velocity": 42}, {"time": 471, "pitch": 63, "duration": 6, "velocity": 77}, {"time": 471, "pitch": 66, "duration": 6, "velocity": 81}, {"time": 471, "pitch": 70, "duration": 6, "velocity": 69}, {"time": 483, "pitch": 40, "duration": 22, "velocity": 67}, {"time": 483, "pitch": 59, "duration": 10, "velocity": 81}, {"time": 483, "pitch": 64, "duration": 9, "velocity": 76}, {"time": 483, "pitch": 68, "duration": 8, "velocity": 71}, {"time": 489, "pitch": 47, "duration": 7, "velocity": 33}, {"time": 495, "pitch": 52, "duration": 6, "velocity": 48}, {"time": 495, "pitch": 59, "duration": 7, "velocity": 77}, {"time": 495, "pitch": 64, "duration": 6, "velocity": 79}, {"time": 495, "pitch": 68, "duration": 6, "velocity": 72}, {"time": 501, "pitch": 47, "duration": 5, "velocity": 50}, {"time": 507, "pitch": 39, "duration": 17, "velocity": 70}, {"time": 507, "pitch": 58, "duration": 9, "velocity": 72}, {"time": 507, "pitch": 63, "duration": 8, "velocity": 77}, {"time": 507, "pitch": 66, "duration": 8, "velocity": 71}, {"time": 513, "pitch": 46, "duration": 14, "velocity": 33}, {"time": 519, "pitch": 51, "duration": 4, "velocity": 39}, {"time": 519, "pitch": 58, "duration": 7, "velocity": 67}, {"time": 519, "pitch": 63, "duration": 11, "velocity": 72}, {"time": 519, "pitch": 66, "duration": 7, "velocity": 62}, {"time": 528, "pitch": 46, "duration": 2, "velocity": 19}, {"time": 531, "pitch": 40, "duration": 23, "velocity": 59}, {"time": 531, "pitch": 59, "duration": 10, "velocity": 86}, {"time": 531, "pitch": 64, "duration": 10, "velocity": 83}, {"time": 531, "pitch": 68, "duration": 10, "velocity": 78}, {"time": 537, "pitch": 47, "duration": 9, "velocity": 47}, {"time": 543, "pitch": 52, "duration": 6, "velocity": 38}, {"time": 543, "pitch": 59, "duration": 6, "velocity": 75}, {"time": 543, "pitch": 64, "duration": 6, "velocity": 81}, {"time": 543, "pitch": 68, "duration": 6, "velocity": 72}, {"time": 549, "pitch": 47, "duration": 2, "velocity": 47}, {"time": 555, "pitch": 39, "duration": 7, "velocity": 69}, {"time": 555, "pitch": 63, "duration": 7, "velocity": 82}, {"time": 555, "pitch": 66, "duration": 6, "velocity": 88}, {"time": 555, "pitch": 70, "duration": 6, "velocity": 86}, {"time": 567, "pitch": 44, "duration": 6, "velocity": 63}, {"time": 567, "pitch": 56, "duration": 8, "velocity": 77}, {"time": 567, "pitch": 59, "duration": 9, "velocity": 76}, {"time": 567, "pitch": 63, "duration": 8, "velocity": 74}, {"time": 579, "pitch": 37, "duration": 3, "velocity": 64}, {"time": 579, "pitch": 56, "duration": 9, "velocity": 82}, {"time": 579, "pitch": 61, "duration": 6, "velocity": 89}, {"time": 579, "pitch": 65, "duration": 6, "velocity": 86}, {"time": 591, "pitch": 42, "duration": 4, "velocity": 72}, {"time": 591, "pitch": 54, "duration": 8, "velocity": 83}, {"time": 591, "pitch": 58, "duration": 8, "velocity": 82}, {"time": 591, "pitch": 61, "duration": 7, "velocity": 85}, {"time": 603, "pitch": 35, "duration": 3, "velocity": 67}, {"time": 603, "pitch": 54, "duration": 12, "velocity": 86}, {"time": 603, "pitch": 59, "duration": 8, "velocity": 73}, {"time": 603, "pitch": 63, "duration": 6, "velocity": 73}, {"time": 615, "pitch": 46, "duration": 4, "velocity": 66}, {"time": 615, "pitch": 58, "duration": 8, "velocity": 86}, {"time": 615, "pitch": 61, "duration": 6, "velocity": 90}, {"time": 627, "pitch": 44, "duration": 21, "velocity": 75}, {"time": 627, "pitch": 56, "duration": 8, "velocity": 90}, {"time": 627, "pitch": 59, "duration": 7, "velocity": 88}, {"time": 627, "pitch": 63, "duration": 7, "velocity": 82}, {"time": 633, "pitch": 51, "duration": 9, "velocity": 61}, {"time": 639, "pitch": 56, "duration": 5, "velocity": 79}, {"time": 639, "pitch": 59, "duration": 5, "velocity": 88}, {"time": 639, "pitch": 63, "duration": 5, "velocity": 81}, {"time": 645, "pitch": 51, "duration": 2, "velocity": 52}, {"time": 651, "pitch": 39, "duration": 23, "velocity": 86}, {"time": 651, "pitch": 58, "duration": 9, "velocity": 79}, {"time": 651, "pitch": 61, "duration": 8, "velocity": 89}, {"time": 651, "pitch": 63, "duration": 8, "velocity": 86}, {"time": 651, "pitch": 66, "duration": 8, "velocity": 86}, {"time": 657, "pitch": 46, "duration": 8, "velocity": 54}, {"time": 663, "pitch": 51, "duration": 6, "velocity": 61}, {"time": 663, "pitch": 58, "duration": 7, "velocity": 88}, {"time": 663, "pitch": 61, "duration": 7, "velocity": 92}, {"time": 663, "pitch": 63, "duration": 7, "velocity": 93}, {"time": 663, "pitch": 66, "duration": 7, "velocity": 88}, {"time": 669, "pitch": 46, "duration": 5, "velocity": 44}, {"time": 675, "pitch": 37, "duration": 4, "velocity": 73}, {"time": 675, "pitch": 56, "duration": 9, "velocity": 93}, {"time": 675, "pitch": 61, "duration": 7, "velocity": 93}, {"time": 675, "pitch": 64, "duration": 7, "velocity": 88}, {"time": 684, "pitch": 42, "duration": 2, "velocity": 28}, {"time": 687, "pitch": 42, "duration": 11, "velocity": 88}, {"time": 687, "pitch": 54, "duration": 10, "velocity": 93}, {"time": 687, "pitch": 58, "duration": 11, "velocity": 85}, {"time": 687, "pitch": 61, "duration": 8, "velocity": 85}, {"time": 699, "pitch": 47, "duration": 12, "velocity": 86}, {"time": 699, "pitch": 54, "duration": 13, "velocity": 90}, {"time": 699, "pitch": 59, "duration": 10, "velocity": 85}, {"time": 699, "pitch": 63, "duration": 8, "velocity": 83}, {"time": 711, "pitch": 46, "duration": 5, "velocity": 81}, {"time": 711, "pitch": 58, "duration": 9, "velocity": 82}, {"time": 711, "pitch": 61, "duration": 6, "velocity": 69}, {"time": 723, "pitch": 44, "duration": 22, "velocity": 75}, {"time": 723, "pitch": 56, "duration": 8, "velocity": 89}, {"time": 723, "pitch": 59, "duration": 8, "velocity": 89}, {"time": 723, "pitch": 63, "duration": 8, "velocity": 79}, {"time": 729, "pitch": 51, "duration": 9, "velocity": 53}, {"time": 735, "pitch": 56, "duration": 8, "velocity": 82}, {"time": 735, "pitch": 59, "duration": 7, "velocity": 92}, {"time": 735, "pitch": 63, "duration": 7, "velocity": 89}, {"time": 741, "pitch": 51, "duration": 4, "velocity": 48}, {"time": 747, "pitch": 42, "duration": 22, "velocity": 72}, {"time": 747, "pitch": 54, "duration": 5, "velocity": 83}, {"time": 747, "pitch": 58, "duration": 5, "velocity": 90}, {"time": 747, "pitch": 61, "duration": 5, "velocity": 83}, {"time": 753, "pitch": 49, "duration": 8, "velocity": 41}, {"time": 759, "pitch": 54, "duration": 6, "velocity": 55}, {"time": 759, "pitch": 61, "duration": 7, "velocity": 95}, {"time": 759, "pitch": 66, "duration": 6, "velocity": 95}, {"time": 759, "pitch": 70, "duration": 6, "velocity": 90}, {"time": 765, "pitch": 49, "duration": 5, "velocity": 48}, {"time": 771, "pitch": 40, "duration": 22, "velocity": 73}, {"time": 771, "pitch": 59, "duration": 6, "velocity": 93}, {"time": 771, "pitch": 64, "duration": 5, "velocity": 92}, {"time": 771, "pitch": 68, "duration": 5, "velocity": 85}, {"time": 777, "pitch": 47, "duration": 8, "velocity": 57}, {"time": 783, "pitch": 52, "duration": 5, "velocity": 37}, {"time": 783, "pitch": 56, "duration": 8, "velocity": 93}, {"time": 783, "pitch": 59, "duration": 7, "velocity": 95}, {"time": 789, "pitch": 47, "duration": 7, "velocity": 38}, {"time": 795, "pitch": 42, "duration": 23, "velocity": 79}, {"time": 795, "pitch": 54, "duration": 10, "velocity": 82}, {"time": 795, "pitch": 58, "duration": 10, "velocity": 82}, {"time": 795, "pitch": 61, "duration": 7, "velocity": 83}, {"time": 800, "pitch": 49, "duration": 7, "velocity": 38}, {"time": 806, "pitch": 58, "duration": 13, "velocity": 93}, {"time": 806, "pitch": 61, "duration": 13, "velocity": 92}, {"time": 809, "pitch": 49, "duration": 6, "velocity": 86}, {"time": 812, "pitch": 54, "duration": 7, "velocity": 107}, {"time": 819, "pitch": 47, "duration": 36, "velocity": 112}, {"time": 825, "pitch": 54, "duration": 9, "velocity": 89}, {"time": 831, "pitch": 63, "duration": 11, "velocity": 122}, {"time": 837, "pitch": 54, "duration": 11, "velocity": 76}, {"time": 843, "pitch": 59, "duration": 12, "velocity": 82}, {"time": 843, "pitch": 63, "duration": 25, "velocity": 85}, {"time": 849, "pitch": 54, "duration": 6, "velocity": 71}, {"time": 855, "pitch": 46, "duration": 12, "velocity": 112}, {"time": 861, "pitch": 58, "duration": 7, "velocity": 70}, {"time": 867, "pitch": 44, "duration": 23, "velocity": 85}, {"time": 873, "pitch": 51, "duration": 19, "velocity": 60}, {"time": 879, "pitch": 59, "duration": 22, "velocity": 97}, {"time": 879, "pitch": 63, "duration": 22, "velocity": 92}, {"time": 885, "pitch": 56, "duration": 13, "velocity": 76}, {"time": 891, "pitch": 44, "duration": 18, "velocity": 89}, {"time": 897, "pitch": 51, "duration": 7, "velocity": 59}, {"time": 903, "pitch": 63, "duration": 13, "velocity": 112}, {"time": 906, "pitch": 51, "duration": 2, "velocity": 71}, {"time": 909, "pitch": 59, "duration": 7, "velocity": 99}, {"time": 912, "pitch": 56, "duration": 4, "velocity": 92}, {"time": 915, "pitch": 40, "duration": 20, "velocity": 90}, {"time": 921, "pitch": 47, "duration": 14, "velocity": 51}, {"time": 927, "pitch": 52, "duration": 5, "velocity": 76}, {"time": 927, "pitch": 59, "duration": 13, "velocity": 88}, {"time": 933, "pitch": 56, "duration": 7, "velocity": 83}, {"time": 936, "pitch": 63, "duration": 4, "velocity": 61}, {"time": 939, "pitch": 39, "duration": 19, "velocity": 92}, {"time": 945, "pitch": 46, "duration": 13, "velocity": 49}, {"time": 951, "pitch": 51, "duration": 4, "velocity": 86}, {"time": 954, "pitch": 54, "duration": 9, "velocity": 83}, {"time": 957, "pitch": 58, "duration": 7, "velocity": 96}, {"time": 960, "pitch": 61, "duration": 4, "velocity": 90}, {"time": 963, "pitch": 37, "duration": 16, "velocity": 97}, {"time": 969, "pitch": 44, "duration": 11, "velocity": 62}, {"time": 975, "pitch": 49, "duration": 10, "velocity": 82}, {"time": 975, "pitch": 56, "duration": 12, "velocity": 117}, {"time": 981, "pitch": 52, "duration": 6, "velocity": 99}, {"time": 987, "pitch": 42, "duration": 19, "velocity": 95}, {"time": 990, "pitch": 49, "duration": 11, "velocity": 66}, {"time": 993, "pitch": 54, "duration": 4, "velocity": 99}, {"time": 996, "pitch": 58, "duration": 4, "velocity": 117}, {"time": 999, "pitch": 61, "duration": 11, "velocity": 117}, {"time": 1002, "pitch": 49, "duration": 3, "velocity": 83}, {"time": 1005, "pitch": 58, "duration": 6, "velocity": 122}, {"time": 1008, "pitch": 54, "duration": 4, "velocity": 102}, {"time": 1011, "pitch": 35, "duration": 23, "velocity": 100}, {"time": 1014, "pitch": 42, "duration": 21, "velocity": 59}, {"time": 1017, "pitch": 47, "duration": 7, "velocity": 79}, {"time": 1020, "pitch": 54, "duration": 7, "velocity": 93}, {"time": 1023, "pitch": 63, "duration": 18, "velocity": 112}, {"time": 1026, "pitch": 47, "duration": 18, "velocity": 90}, {"time": 1029, "pitch": 59, "duration": 13, "velocity": 92}, {"time": 1032, "pitch": 54, "duration": 7, "velocity": 89}, {"time": 1035, "pitch": 35, "duration": 7, "velocity": 88}, {"time": 1041, "pitch": 54, "duration": 5, "velocity": 86}, {"time": 1044, "pitch": 63, "duration": 16, "velocity": 86}, {"time": 1047, "pitch": 46, "duration": 7, "velocity": 122}, {"time": 1053, "pitch": 58, "duration": 6, "velocity": 100}, {"time": 1056, "pitch": 59, "duration": 4, "velocity": 79}, {"time": 1059, "pitch": 44, "duration": 23, "velocity": 93}, {"time": 1065, "pitch": 51, "duration": 18, "velocity": 82}, {"time": 1071, "pitch": 63, "duration": 22, "velocity": 122}, {"time": 1077, "pitch": 59, "duration": 16, "velocity": 82}, {"time": 1080, "pitch": 56, "duration": 14, "velocity": 86}, {"time": 1083, "pitch": 44, "duration": 17, "velocity": 96}, {"time": 1089, "pitch": 51, "duration": 8, "velocity": 85}, {"time": 1095, "pitch": 63, "duration": 13, "velocity": 112}, {"time": 1098, "pitch": 51, "duration": 2, "velocity": 58}, {"time": 1101, "pitch": 59, "duration": 7, "velocity": 95}, {"time": 1104, "pitch": 56, "duration": 4, "velocity": 88}, {"time": 1107, "pitch": 40, "duration": 17, "velocity": 89}, {"time": 1113, "pitch": 47, "duration": 11, "velocity": 49}, {"time": 1119, "pitch": 52, "duration": 3, "velocity": 64}, {"time": 1119, "pitch": 59, "duration": 13, "velocity": 102}, {"time": 1119, "pitch": 63, "duration": 13, "velocity": 93}, {"time": 1125, "pitch": 56, "duration": 7, "velocity": 66}, {"time": 1131, "pitch": 39, "duration": 17, "velocity": 93}, {"time": 1137, "pitch": 46, "duration": 11, "velocity": 48}, {"time": 1143, "pitch": 51, "duration": 4, "velocity": 58}, {"time": 1143, "pitch": 58, "duration": 12, "velocity": 86}, {"time": 1143, "pitch": 61, "duration": 12, "velocity": 93}, {"time": 1149, "pitch": 54, "duration": 6, "velocity": 82}, {"time": 1155, "pitch": 37, "duration": 15, "velocity": 95}, {"time": 1161, "pitch": 44, "duration": 9, "velocity": 39}, {"time": 1167, "pitch": 49, "duration": 5, "velocity": 81}, {"time": 1167, "pitch": 61, "duration": 13, "velocity": 107}, {"time": 1167, "pitch": 64, "duration": 13, "velocity": 100}, {"time": 1173, "pitch": 56, "duration": 6, "velocity": 74}, {"time": 1179, "pitch": 42, "duration": 17, "velocity": 92}, {"time": 1182, "pitch": 49, "duration": 13, "velocity": 68}, {"time": 1185, "pitch": 54, "duration": 5, "velocity": 89}, {"time": 1188, "pitch": 58, "duration": 15, "velocity": 88}, {"time": 1191, "pitch": 61, "duration": 11, "velocity": 99}, {"time": 1197, "pitch": 54, "duration": 6, "velocity": 96}, {"time": 1203, "pitch": 35, "duration": 17, "velocity": 90}, {"time": 1209, "pitch": 42, "duration": 11, "velocity": 56}, {"time": 1215, "pitch": 47, "duration": 9, "velocity": 66}, {"time": 1215, "pitch": 59, "duration": 13, "velocity": 95}, {"time": 1215, "pitch": 63, "duration": 13, "velocity": 93}, {"time": 1221, "pitch": 54, "duration": 8, "velocity": 86}, {"time": 1227, "pitch": 39, "duration": 19, "velocity": 81}, {"time": 1230, "pitch": 46, "duration": 21, "velocity": 51}, {"time": 1233, "pitch": 51, "duration": 11, "velocity": 77}, {"time": 1236, "pitch": 54, "duration": 4, "velocity": 76}, {"time": 1239, "pitch": 58, "duration": 13, "velocity": 88}, {"time": 1239, "pitch": 63, "duration": 14, "velocity": 99}, {"time": 1245, "pitch": 54, "duration": 7, "velocity": 90}, {"time": 1251, "pitch": 40, "duration": 20, "velocity": 83}, {"time": 1254, "pitch": 47, "duration": 22, "velocity": 67}, {"time": 1257, "pitch": 52, "duration": 10, "velocity": 90}, {"time": 1260, "pitch": 56, "duration": 4, "velocity": 72}, {"time": 1263, "pitch": 59, "duration": 7, "velocity": 127}, {"time": 1269, "pitch": 56, "duration": 6, "velocity": 92}, {"time": 1272, "pitch": 59, "duration": 3, "velocity": 96}, {"time": 1275, "pitch": 42, "duration": 22, "velocity": 88}, {"time": 1278, "pitch": 49, "duration": 10, "velocity": 92}, {"time": 1281, "pitch": 54, "duration": 4, "velocity": 96}, {"time": 1284, "pitch": 58, "duration": 11, "velocity": 127}, {"time": 1287, "pitch": 61, "duration": 12, "velocity": 117}, {"time": 1290, "pitch": 49, "duration": 9, "velocity": 122}, {"time": 1293, "pitch": 54, "duration": 4, "velocity": 117}, {"time": 1296, "pitch": 58, "duration": 3, "velocity": 122}, {"time": 1299, "pitch": 44, "duration": 17, "velocity": 90}, {"time": 1302, "pitch": 51, "duration": 11, "velocity": 90}, {"time": 1305, "pitch": 56, "duration": 5, "velocity": 99}, {"time": 1311, "pitch": 59, "duration": 7, "velocity": 117}, {"time": 1311, "pitch": 63, "duration": 13, "velocity": 102}, {"time": 1314, "pitch": 51, "duration": 2, "velocity": 88}, {"time": 1317, "pitch": 56, "duration": 6, "velocity": 112}, {"time": 1320, "pitch": 59, "duration": 3, "velocity": 117}, {"time": 1323, "pitch": 39, "duration": 18, "velocity": 92}, {"time": 1326, "pitch": 46, "duration": 16, "velocity": 89}, {"time": 1329, "pitch": 51, "duration": 8, "velocity": 92}, {"time": 1332, "pitch": 54, "duration": 5, "velocity": 75}, {"time": 1335, "pitch": 58, "duration": 12, "velocity": 95}, {"time": 1335, "pitch": 63, "duration": 12, "velocity": 102}, {"time": 1338, "pitch": 51, "duration": 4, "velocity": 97}, {"time": 1341, "pitch": 54, "duration": 6, "velocity": 102}, {"time": 1347, "pitch": 42, "duration": 18, "velocity": 76}, {"time": 1347, "pitch": 54, "duration": 22, "velocity": 89}, {"time": 1347, "pitch": 58, "duration": 21, "velocity": 93}, {"time": 1347, "pitch": 61, "duration": 21, "velocity": 96}, {"time": 1347, "pitch": 64, "duration": 20, "velocity": 78}, {"time": 1371, "pitch": 40, "duration": 11, "velocity": 83}, {"time": 1371, "pitch": 52, "duration": 11, "velocity": 90}, {"time": 1371, "pitch": 56, "duration": 11, "velocity": 92}, {"time": 1371, "pitch": 59, "duration": 11, "velocity": 92}, {"time": 1383, "pitch": 40, "duration": 6, "velocity": 93}, {"time": 1383, "pitch": 52, "duration": 4, "velocity": 96}, {"time": 1383, "pitch": 56, "duration": 5, "velocity": 97}, {"time": 1383, "pitch": 59, "duration": 6, "velocity": 97}, {"time": 1385, "pitch": 50, "duration": 37, "velocity": 1}, {"time": 1389, "pitch": 42, "duration": 8, "velocity": 100}, {"time": 1389, "pitch": 54, "duration": 7, "velocity": 93}, {"time": 1389, "pitch": 58, "duration": 7, "velocity": 112}, {"time": 1395, "pitch": 44, "duration": 17, "velocity": 89}, {"time": 1398, "pitch": 51, "duration": 10, "velocity": 72}, {"time": 1401, "pitch": 56, "duration": 9, "velocity": 93}, {"time": 1404, "pitch": 59, "duration": 4, "velocity": 69}, {"time": 1407, "pitch": 63, "duration": 12, "velocity": 100}, {"time": 1413, "pitch": 59, "duration": 6, "velocity": 88}, {"time": 1419, "pitch": 39, "duration": 18, "velocity": 92}, {"time": 1422, "pitch": 46, "duration": 15, "velocity": 69}, {"time": 1425, "pitch": 51, "duration": 10, "velocity": 88}, {"time": 1428, "pitch": 54, "duration": 12, "velocity": 78}, {"time": 1431, "pitch": 61, "duration": 9, "velocity": 99}, {"time": 1437, "pitch": 58, "duration": 3, "velocity": 70}, {"time": 1443, "pitch": 37, "duration": 4, "velocity": 76}, {"time": 1443, "pitch": 49, "duration": 4, "velocity": 82}, {"time": 1443, "pitch": 52, "duration": 5, "velocity": 88}, {"time": 1443, "pitch": 56, "duration": 6, "velocity": 88}, {"time": 1455, "pitch": 42, "duration": 12, "velocity": 74}, {"time": 1455, "pitch": 54, "duration": 24, "velocity": 89}, {"time": 1455, "pitch": 58, "duration": 11, "velocity": 89}, {"time": 1455, "pitch": 61, "duration": 9, "velocity": 86}, {"time": 1467, "pitch": 47, "duration": 12, "velocity": 90}, {"time": 1467, "pitch": 59, "duration": 14, "velocity": 100}, {"time": 1467, "pitch": 63, "duration": 13, "velocity": 100}, {"time": 1479, "pitch": 46, "duration": 12, "velocity": 77}, {"time": 1479, "pitch": 58, "duration": 13, "velocity": 102}, {"time": 1491, "pitch": 44, "duration": 18, "velocity": 86}, {"time": 1494, "pitch": 51, "duration": 10, "velocity": 83}, {"time": 1497, "pitch": 56, "duration": 7, "velocity": 73}, {"time": 1500, "pitch": 59, "duration": 6, "velocity": 86}, {"time": 1503, "pitch": 63, "duration": 13, "velocity": 95}, {"time": 1506, "pitch": 51, "duration": 3, "velocity": 48}, {"time": 1509, "pitch": 59, "duration": 7, "velocity": 74}, {"time": 1515, "pitch": 42, "duration": 17, "velocity": 73}, {"time": 1518, "pitch": 49, "duration": 11, "velocity": 58}, {"time": 1521, "pitch": 54, "duration": 8, "velocity": 70}, {"time": 1524, "pitch": 58, "duration": 4, "velocity": 76}, {"time": 1527, "pitch": 61, "duration": 8, "velocity": 112}, {"time": 1533, "pitch": 54, "duration": 6, "velocity": 85}, {"time": 1539, "pitch": 40, "duration": 19, "velocity": 71}, {"time": 1539, "pitch": 56, "duration": 10, "velocity": 97}, {"time": 1539, "pitch": 59, "duration": 11, "velocity": 97}, {"time": 1545, "pitch": 47, "duration": 8, "velocity": 76}, {"time": 1551, "pitch": 52, "duration": 5, "velocity": 97}, {"time": 1551, "pitch": 56, "duration": 7, "velocity": 100}, {"time": 1551, "pitch": 59, "duration": 8, "velocity": 95}, {"time": 1554, "pitch": 47, "duration": 5, "velocity": 74}, {"time": 1557, "pitch": 52, "duration": 3, "velocity": 89}, {"time": 1563, "pitch": 42, "duration": 17, "velocity": 78}, {"time": 1563, "pitch": 54, "duration": 1, "velocity": 85}, {"time": 1563, "pitch": 58, "duration": 6, "velocity": 100}, {"time": 1563, "pitch": 61, "duration": 7, "velocity": 96}, {"time": 1566, "pitch": 49, "duration": 10, "velocity": 95}, {"time": 1569, "pitch": 54, "duration": 4, "velocity": 102}, {"time": 1572, "pitch": 58, "duration": 3, "velocity": 117}, {"time": 1575, "pitch": 61, "duration": 12, "velocity": 127}, {"time": 1578, "pitch": 49, "duration": 2, "velocity": 99}, {"time": 1581, "pitch": 58, "duration": 7, "velocity": 122}, {"time": 1584, "pitch": 54, "duration": 4, "velocity": 93}, {"time": 1587, "pitch": 35, "duration": 22, "velocity": 96}, {"time": 1590, "pitch": 42, "duration": 20, "velocity": 85}, {"time": 1593, "pitch": 47, "duration": 7, "velocity": 97}, {"time": 1596, "pitch": 54, "duration": 9, "velocity": 90}, {"time": 1599, "pitch": 63, "duration": 18, "velocity": 117}, {"time": 1602, "pitch": 47, "duration": 9, "velocity": 72}, {"time": 1605, "pitch": 59, "duration": 13, "velocity": 95}, {"time": 1608, "pitch": 54, "duration": 8, "velocity": 95}, {"time": 1611, "pitch": 35, "duration": 8, "velocity": 95}, {"time": 1614, "pitch": 47, "duration": 8, "velocity": 95}, {"time": 1617, "pitch": 54, "duration": 5, "velocity": 74}, {"time": 1620, "pitch": 63, "duration": 10, "velocity": 100}, {"time": 1623, "pitch": 46, "duration": 8, "velocity": 107}, {"time": 1626, "pitch": 58, "duration": 7, "velocity": 85}, {"time": 1629, "pitch": 59, "duration": 7, "velocity": 112}, {"time": 1632, "pitch": 63, "duration": 5, "velocity": 95}, {"time": 1635, "pitch": 44, "duration": 23, "velocity": 78}, {"time": 1638, "pitch": 51, "duration": 10, "velocity": 79}, {"time": 1641, "pitch": 56, "duration": 8, "velocity": 73}, {"time": 1644, "pitch": 59, "duration": 4, "velocity": 69}, {"time": 1647, "pitch": 63, "duration": 13, "velocity": 100}, {"time": 1650, "pitch": 51, "duration": 9, "velocity": 79}, {"time": 1653, "pitch": 59, "duration": 6, "velocity": 78}, {"time": 1656, "pitch": 56, "duration": 4, "velocity": 96}, {"time": 1659, "pitch": 44, "duration": 18, "velocity": 85}, {"time": 1662, "pitch": 51, "duration": 14, "velocity": 93}, {"time": 1665, "pitch": 56, "duration": 7, "velocity": 90}, {"time": 1668, "pitch": 63, "duration": 15, "velocity": 76}, {"time": 1671, "pitch": 68, "duration": 13, "velocity": 122}, {"time": 1674, "pitch": 56, "duration": 2, "velocity": 89}, {"time": 1677, "pitch": 70, "duration": 7, "velocity": 89}, {"time": 1683, "pitch": 40, "duration": 18, "velocity": 83}, {"time": 1686, "pitch": 47, "duration": 11, "velocity": 83}, {"time": 1689, "pitch": 52, "duration": 6, "velocity": 79}, {"time": 1692, "pitch": 56, "duration": 4, "velocity": 93}, {"time": 1695, "pitch": 59, "duration": 8, "velocity": 102}, {"time": 1698, "pitch": 47, "duration": 3, "velocity": 50}, {"time": 1701, "pitch": 56, "duration": 6, "velocity": 90}, {"time": 1704, "pitch": 59, "duration": 3, "velocity": 88}, {"time": 1707, "pitch": 39, "duration": 19, "velocity": 83}, {"time": 1710, "pitch": 46, "duration": 16, "velocity": 73}, {"time": 1713, "pitch": 51, "duration": 8, "velocity": 75}, {"time": 1716, "pitch": 54, "duration": 10, "velocity": 82}, {"time": 1719, "pitch": 63, "duration": 13, "velocity": 112}, {"time": 1722, "pitch": 51, "duration": 2, "velocity": 85}, {"time": 1725, "pitch": 58, "duration": 6, "velocity": 88}, {"time": 1728, "pitch": 54, "duration": 3, "velocity": 89}, {"time": 1731, "pitch": 37, "duration": 17, "velocity": 92}, {"time": 1734, "pitch": 44, "duration": 15, "velocity": 71}, {"time": 1737, "pitch": 49, "duration": 7, "velocity": 89}, {"time": 1740, "pitch": 56, "duration": 10, "velocity": 90}, {"time": 1743, "pitch": 64, "duration": 12, "velocity": 112}, {"time": 1746, "pitch": 49, "duration": 4, "velocity": 83}, {"time": 1749, "pitch": 61, "duration": 7, "velocity": 107}, {"time": 1752, "pitch": 56, "duration": 4, "velocity": 122}, {"time": 1755, "pitch": 42, "duration": 18, "velocity": 107}, {"time": 1758, "pitch": 49, "duration": 11, "velocity": 107}, {"time": 1761, "pitch": 54, "duration": 3, "velocity": 99}, {"time": 1764, "pitch": 58, "duration": 2, "velocity": 95}, {"time": 1764, "pitch": 61, "duration": 2, "velocity": 100}, {"time": 1767, "pitch": 58, "duration": 7, "velocity": 107}, {"time": 1767, "pitch": 61, "duration": 12, "velocity": 100}, {"time": 1770, "pitch": 49, "duration": 2, "velocity": 100}, {"time": 1773, "pitch": 54, "duration": 7, "velocity": 102}, {"time": 1776, "pitch": 58, "duration": 3, "velocity": 122}, {"time": 1779, "pitch": 35, "duration": 22, "velocity": 97}, {"time": 1782, "pitch": 42, "duration": 21, "velocity": 88}, {"time": 1785, "pitch": 47, "duration": 7, "velocity": 92}, {"time": 1788, "pitch": 54, "duration": 4, "velocity": 92}, {"time": 1791, "pitch": 59, "duration": 8, "velocity": 99}, {"time": 1791, "pitch": 63, "duration": 18, "velocity": 122}, {"time": 1794, "pitch": 47, "duration": 10, "velocity": 90}, {"time": 1797, "pitch": 54, "duration": 11, "velocity": 100}, {"time": 1800, "pitch": 59, "duration": 10, "velocity": 99}, {"time": 1803, "pitch": 35, "duration": 7, "velocity": 93}, {"time": 1806, "pitch": 47, "duration": 8, "velocity": 90}, {"time": 1809, "pitch": 54, "duration": 6, "velocity": 67}, {"time": 1812, "pitch": 63, "duration": 11, "velocity": 107}, {"time": 1815, "pitch": 46, "duration": 7, "velocity": 112}, {"time": 1818, "pitch": 58, "duration": 7, "velocity": 93}, {"time": 1821, "pitch": 59, "duration": 7, "velocity": 112}, {"time": 1824, "pitch": 63, "duration": 5, "velocity": 90}, {"time": 1827, "pitch": 44, "duration": 22, "velocity": 90}, {"time": 1830, "pitch": 51, "duration": 10, "velocity": 93}, {"time": 1833, "pitch": 56, "duration": 8, "velocity": 72}, {"time": 1836, "pitch": 59, "duration": 3, "velocity": 85}, {"time": 1839, "pitch": 63, "duration": 23, "velocity": 112}, {"time": 1842, "pitch": 51, "duration": 10, "velocity": 59}, {"time": 1845, "pitch": 59, "duration": 13, "velocity": 107}, {"time": 1848, "pitch": 56, "duration": 6, "velocity": 96}, {"time": 1851, "pitch": 44, "duration": 18, "velocity": 79}, {"time": 1854, "pitch": 51, "duration": 10, "velocity": 78}, {"time": 1857, "pitch": 56, "duration": 6, "velocity": 74}, {"time": 1860, "pitch": 59, "duration": 2, "velocity": 57}, {"time": 1863, "pitch": 59, "duration": 7, "velocity": 102}, {"time": 1863, "pitch": 63, "duration": 12, "velocity": 97}, {"time": 1866, "pitch": 51, "duration": 2, "velocity": 72}, {"time": 1869, "pitch": 56, "duration": 7, "velocity": 99}, {"time": 1872, "pitch": 59, "duration": 3, "velocity": 90}, {"time": 1875, "pitch": 40, "duration": 18, "velocity": 89}, {"time": 1878, "pitch": 47, "duration": 15, "velocity": 83}, {"time": 1881, "pitch": 52, "duration": 8, "velocity": 85}, {"time": 1884, "pitch": 56, "duration": 4, "velocity": 79}, {"time": 1887, "pitch": 59, "duration": 7, "velocity": 107}, {"time": 1887, "pitch": 64, "duration": 13, "velocity": 107}, {"time": 1890, "pitch": 52, "duration": 2, "velocity": 92}, {"time": 1893, "pitch": 56, "duration": 6, "velocity": 99}, {"time": 1896, "pitch": 59, "duration": 3, "velocity": 90}, {"time": 1899, "pitch": 39, "duration": 19, "velocity": 82}, {"time": 1902, "pitch": 46, "duration": 15, "velocity": 69}, {"time": 1905, "pitch": 51, "duration": 8, "velocity": 82}, {"time": 1908, "pitch": 54, "duration": 5, "velocity": 83}, {"time": 1911, "pitch": 58, "duration": 7, "velocity": 97}, {"time": 1911, "pitch": 63, "duration": 12, "velocity": 100}, {"time": 1914, "pitch": 51, "duration": 2, "velocity": 81}, {"time": 1917, "pitch": 54, "duration": 5, "velocity": 95}, {"time": 1920, "pitch": 58, "duration": 2, "velocity": 92}, {"time": 1923, "pitch": 37, "duration": 17, "velocity": 92}, {"time": 1926, "pitch": 44, "duration": 14, "velocity": 73}, {"time": 1927, "pitch": 48, "duration": 10, "velocity": 1}, {"time": 1929, "pitch": 49, "duration": 11, "velocity": 75}, {"time": 1932, "pitch": 56, "duration": 7, "velocity": 52}, {"time": 1935, "pitch": 61, "duration": 7, "velocity": 102}, {"time": 1935, "pitch": 64, "duration": 8, "velocity": 100}, {"time": 1941, "pitch": 56, "duration": 5, "velocity": 86}, {"time": 1947, "pitch": 42, "duration": 24, "velocity": 93}, {"time": 1947, "pitch": 58, "duration": 10, "velocity": 102}, {"time": 1947, "pitch": 61, "duration": 11, "velocity": 100}, {"time": 1953, "pitch": 49, "duration": 7, "velocity": 75}, {"time": 1959, "pitch": 54, "duration": 3, "velocity": 89}, {"time": 1959, "pitch": 58, "duration": 12, "velocity": 99}, {"time": 1959, "pitch": 61, "duration": 12, "velocity": 99}, {"time": 1965, "pitch": 54, "duration": 6, "velocity": 100}, {"time": 1971, "pitch": 47, "duration": 24, "velocity": 99}, {"time": 1977, "pitch": 54, "duration": 19, "velocity": 100}, {"time": 1983, "pitch": 63, "duration": 18, "velocity": 100}, {"time": 1983, "pitch": 66, "duration": 20, "velocity": 112}, {"time": 1989, "pitch": 59, "duration": 10, "velocity": 97}, {"time": 1995, "pitch": 47, "duration": 18, "velocity": 86}, {"time": 1998, "pitch": 54, "duration": 10, "velocity": 112}, {"time": 2001, "pitch": 59, "duration": 6, "velocity": 96}, {"time": 2004, "pitch": 63, "duration": 4, "velocity": 96}, {"time": 2007, "pitch": 66, "duration": 13, "velocity": 122}, {"time": 2010, "pitch": 54, "duration": 3, "velocity": 95}, {"time": 2013, "pitch": 63, "duration": 7, "velocity": 102}, {"time": 2016, "pitch": 58, "duration": 4, "velocity": 96}, {"time": 2019, "pitch": 44, "duration": 23, "velocity": 82}, {"time": 2022, "pitch": 51, "duration": 11, "velocity": 88}, {"time": 2025, "pitch": 56, "duration": 4, "velocity": 89}, {"time": 2028, "pitch": 59, "duration": 3, "velocity": 66}, {"time": 2031, "pitch": 63, "duration": 12, "velocity": 112}, {"time": 2034, "pitch": 51, "duration": 9, "velocity": 77}, {"time": 2037, "pitch": 59, "duration": 6, "velocity": 89}, {"time": 2040, "pitch": 56, "duration": 3, "velocity": 99}, {"time": 2043, "pitch": 44, "duration": 17, "velocity": 83}, {"time": 2046, "pitch": 51, "duration": 11, "velocity": 85}, {"time": 2049, "pitch": 56, "duration": 5, "velocity": 97}, {"time": 2052, "pitch": 63, "duration": 4, "velocity": 102}, {"time": 2055, "pitch": 71, "duration": 12, "velocity": 127}, {"time": 2058, "pitch": 68, "duration": 6, "velocity": 97}, {"time": 2061, "pitch": 42, "duration": 6, "velocity": 107}, {"time": 2064, "pitch": 66, "duration": 4, "velocity": 79}, {"time": 2067, "pitch": 40, "duration": 22, "velocity": 88}, {"time": 2070, "pitch": 47, "duration": 22, "velocity": 86}, {"time": 2073, "pitch": 52, "duration": 7, "velocity": 85}, {"time": 2076, "pitch": 59, "duration": 7, "velocity": 93}, {"time": 2079, "pitch": 68, "duration": 23, "velocity": 127}, {"time": 2082, "pitch": 52, "duration": 13, "velocity": 90}, {"time": 2085, "pitch": 64, "duration": 16, "velocity": 86}, {"time": 2088, "pitch": 59, "duration": 11, "velocity": 102}, {"time": 2091, "pitch": 40, "duration": 23, "velocity": 72}, {"time": 2094, "pitch": 47, "duration": 15, "velocity": 69}, {"time": 2097, "pitch": 52, "duration": 7, "velocity": 78}, {"time": 2100, "pitch": 59, "duration": 10, "velocity": 71}, {"time": 2103, "pitch": 68, "duration": 12, "velocity": 122}, {"time": 2106, "pitch": 52, "duration": 2, "velocity": 85}, {"time": 2109, "pitch": 64, "duration": 6, "velocity": 82}, {"time": 2112, "pitch": 59, "duration": 3, "velocity": 95}, {"time": 2115, "pitch": 39, "duration": 36, "velocity": 99}, {"time": 2118, "pitch": 46, "duration": 26, "velocity": 95}, {"time": 2121, "pitch": 51, "duration": 7, "velocity": 92}, {"time": 2124, "pitch": 58, "duration": 3, "velocity": 72}, {"time": 2127, "pitch": 66, "duration": 11, "velocity": 97}, {"time": 2130, "pitch": 51, "duration": 15, "velocity": 93}, {"time": 2133, "pitch": 63, "duration": 4, "velocity": 88}, {"time": 2136, "pitch": 58, "duration": 7, "velocity": 90}, {"time": 2139, "pitch": 66, "duration": 12, "velocity": 107}, {"time": 2145, "pitch": 63, "duration": 3, "velocity": 102}, {"time": 2148, "pitch": 58, "duration": 3, "velocity": 66}, {"time": 2151, "pitch": 49, "duration": 11, "velocity": 58}, {"time": 2151, "pitch": 53, "duration": 10, "velocity": 69}, {"time": 2151, "pitch": 57, "duration": 10, "velocity": 66}, {"time": 2151, "pitch": 61, "duration": 11, "velocity": 102}, {"time": 2151, "pitch": 65, "duration": 11, "velocity": 127}, {"time": 2151, "pitch": 69, "duration": 11, "velocity": 117}, {"time": 2163, "pitch": 37, "duration": 22, "velocity": 64}, {"time": 2166, "pitch": 44, "duration": 21, "velocity": 64}, {"time": 2169, "pitch": 49, "duration": 7, "velocity": 85}, {"time": 2172, "pitch": 56, "duration": 8, "velocity": 96}, {"time": 2175, "pitch": 64, "duration": 18, "velocity": 100}, {"time": 2178, "pitch": 49, "duration": 24, "velocity": 72}, {"time": 2181, "pitch": 63, "duration": 9, "velocity": 86}, {"time": 2184, "pitch": 61, "duration": 11, "velocity": 90}, {"time": 2187, "pitch": 37, "duration": 18, "velocity": 78}, {"time": 2193, "pitch": 44, "duration": 12, "velocity": 66}, {"time": 2199, "pitch": 61, "duration": 7, "velocity": 112}, {"time": 2199, "pitch": 64, "duration": 7, "velocity": 112}, {"time": 2205, "pitch": 56, "duration": 6, "velocity": 102}, {"time": 2211, "pitch": 42, "duration": 33, "velocity": 96}, {"time": 2217, "pitch": 49, "duration": 11, "velocity": 63}, {"time": 2223, "pitch": 54, "duration": 11, "velocity": 90}, {"time": 2223, "pitch": 58, "duration": 30, "velocity": 97}, {"time": 2223, "pitch": 61, "duration": 29, "velocity": 88}, {"time": 2229, "pitch": 49, "duration": 14, "velocity": 54}, {"time": 2235, "pitch": 54, "duration": 19, "velocity": 83}, {"time": 2260, "pitch": 70, "duration": 29, "velocity": 68}, {"time": 2260, "pitch": 35, "duration": 27, "velocity": 73}, {"time": 2260, "pitch": 59, "duration": 32, "velocity": 78}, {"time": 2260, "pitch": 63, "duration": 29, "velocity": 83}, {"time": 2260, "pitch": 66, "duration": 29, "velocity": 69}, {"time": 2295, "pitch": 46, "duration": 12, "velocity": 81}, {"time": 2295, "pitch": 58, "duration": 8, "velocity": 90}, {"time": 2295, "pitch": 61, "duration": 7, "velocity": 86}, {"time": 2307, "pitch": 44, "duration": 30, "velocity": 74}, {"time": 2307, "pitch": 63, "duration": 32, "velocity": 82}, {"time": 2307, "pitch": 59, "duration": 32, "velocity": 93}, {"time": 2307, "pitch": 56, "duration": 34, "velocity": 93}, {"time": 2343, "pitch": 42, "duration": 11, "velocity": 65}, {"time": 2343, "pitch": 54, "duration": 10, "velocity": 82}, {"time": 2343, "pitch": 58, "duration": 9, "velocity": 78}, {"time": 2343, "pitch": 61, "duration": 8, "velocity": 77}, {"time": 2355, "pitch": 40, "duration": 19, "velocity": 72}, {"time": 2355, "pitch": 52, "duration": 22, "velocity": 92}, {"time": 2355, "pitch": 59, "duration": 20, "velocity": 83}, {"time": 2355, "pitch": 56, "duration": 20, "velocity": 73}, {"time": 2361, "pitch": 47, "duration": 9, "velocity": 35}, {"time": 2367, "pitch": 63, "duration": 8, "velocity": 39}, {"time": 2379, "pitch": 39, "duration": 17, "velocity": 74}, {"time": 2379, "pitch": 51, "duration": 17, "velocity": 92}, {"time": 2379, "pitch": 54, "duration": 18, "velocity": 92}, {"time": 2379, "pitch": 58, "duration": 18, "velocity": 92}, {"time": 2403, "pitch": 37, "duration": 16, "velocity": 81}, {"time": 2403, "pitch": 56, "duration": 20, "velocity": 96}, {"time": 2403, "pitch": 61, "duration": 18, "velocity": 95}, {"time": 2403, "pitch": 64, "duration": 18, "velocity": 92}, {"time": 2426, "pitch": 42, "duration": 25, "velocity": 74}, {"time": 2426, "pitch": 54, "duration": 8, "velocity": 93}, {"time": 2426, "pitch": 61, "duration": 11, "velocity": 92}, {"time": 2426, "pitch": 58, "duration": 9, "velocity": 95}, {"time": 2432, "pitch": 49, "duration": 7, "velocity": 62}, {"time": 2439, "pitch": 58, "duration": 13, "velocity": 107}, {"time": 2439, "pitch": 61, "duration": 13, "velocity": 107}, {"time": 2442, "pitch": 49, "duration": 5, "velocity": 76}, {"time": 2445, "pitch": 54, "duration": 6, "velocity": 107}, {"time": 2451, "pitch": 35, "duration": 22, "velocity": 96}, {"time": 2454, "pitch": 42, "duration": 21, "velocity": 83}, {"time": 2457, "pitch": 47, "duration": 7, "velocity": 90}, {"time": 2460, "pitch": 54, "duration": 6, "velocity": 95}, {"time": 2463, "pitch": 63, "duration": 19, "velocity": 117}, {"time": 2466, "pitch": 47, "duration": 9, "velocity": 78}, {"time": 2469, "pitch": 59, "duration": 13, "velocity": 102}, {"time": 2472, "pitch": 54, "duration": 7, "velocity": 89}, {"time": 2475, "pitch": 35, "duration": 7, "velocity": 92}, {"time": 2478, "pitch": 47, "duration": 6, "velocity": 95}, {"time": 2481, "pitch": 54, "duration": 4, "velocity": 92}, {"time": 2484, "pitch": 63, "duration": 8, "velocity": 99}, {"time": 2487, "pitch": 46, "duration": 7, "velocity": 112}, {"time": 2490, "pitch": 58, "duration": 10, "velocity": 83}, {"time": 2493, "pitch": 59, "duration": 8, "velocity": 102}, {"time": 2499, "pitch": 44, "duration": 22, "velocity": 95}, {"time": 2502, "pitch": 51, "duration": 10, "velocity": 86}, {"time": 2505, "pitch": 56, "duration": 7, "velocity": 73}, {"time": 2508, "pitch": 59, "duration": 4, "velocity": 96}, {"time": 2511, "pitch": 63, "duration": 13, "velocity": 107}, {"time": 2514, "pitch": 51, "duration": 9, "velocity": 78}, {"time": 2517, "pitch": 59, "duration": 7, "velocity": 93}, {"time": 2520, "pitch": 56, "duration": 3, "velocity": 96}, {"time": 2523, "pitch": 44, "duration": 18, "velocity": 96}, {"time": 2526, "pitch": 51, "duration": 11, "velocity": 86}, {"time": 2529, "pitch": 56, "duration": 7, "velocity": 99}, {"time": 2532, "pitch": 63, "duration": 4, "velocity": 100}, {"time": 2535, "pitch": 71, "duration": 13, "velocity": 122}, {"time": 2538, "pitch": 51, "duration": 2, "velocity": 37}, {"time": 2538, "pitch": 68, "duration": 4, "velocity": 95}, {"time": 2541, "pitch": 66, "duration": 4, "velocity": 100}, {"time": 2544, "pitch": 68, "duration": 4, "velocity": 95}, {"time": 2547, "pitch": 40, "duration": 19, "velocity": 82}, {"time": 2550, "pitch": 47, "duration": 11, "velocity": 77}, {"time": 2553, "pitch": 52, "duration": 7, "velocity": 83}, {"time": 2556, "pitch": 56, "duration": 3, "velocity": 67}, {"time": 2559, "pitch": 59, "duration": 8, "velocity": 117}, {"time": 2562, "pitch": 47, "duration": 3, "velocity": 74}, {"time": 2565, "pitch": 56, "duration": 7, "velocity": 97}, {"time": 2568, "pitch": 59, "duration": 4, "velocity": 89}, {"time": 2571, "pitch": 39, "duration": 19, "velocity": 82}, {"time": 2574, "pitch": 46, "duration": 16, "velocity": 77}, {"time": 2577, "pitch": 51, "duration": 8, "velocity": 73}, {"time": 2580, "pitch": 54, "duration": 4, "velocity": 86}, {"time": 2583, "pitch": 58, "duration": 9, "velocity": 122}, {"time": 2586, "pitch": 51, "duration": 2, "velocity": 76}, {"time": 2589, "pitch": 54, "duration": 6, "velocity": 97}, {"time": 2592, "pitch": 58, "duration": 4, "velocity": 56}, {"time": 2595, "pitch": 37, "duration": 16, "velocity": 92}, {"time": 2598, "pitch": 44, "duration": 14, "velocity": 78}, {"time": 2601, "pitch": 49, "duration": 8, "velocity": 79}, {"time": 2604, "pitch": 56, "duration": 3, "velocity": 69}, {"time": 2607, "pitch": 61, "duration": 12, "velocity": 122}, {"time": 2607, "pitch": 64, "duration": 12, "velocity": 107}, {"time": 2610, "pitch": 49, "duration": 4, "velocity": 65}, {"time": 2613, "pitch": 56, "duration": 7, "velocity": 99}, {"time": 2619, "pitch": 42, "duration": 19, "velocity": 86}, {"time": 2622, "pitch": 49, "duration": 15, "velocity": 74}, {"time": 2625, "pitch": 54, "duration": 6, "velocity": 83}, {"time": 2631, "pitch": 58, "duration": 12, "velocity": 96}, {"time": 2631, "pitch": 61, "duration": 12, "velocity": 96}, {"time": 2637, "pitch": 54, "duration": 6, "velocity": 93}, {"time": 2643, "pitch": 35, "duration": 16, "velocity": 95}, {"time": 2643, "pitch": 54, "duration": 1, "velocity": 92}, {"time": 2643, "pitch": 59, "duration": 10, "velocity": 100}, {"time": 2643, "pitch": 63, "duration": 10, "velocity": 96}, {"time": 2648, "pitch": 42, "duration": 11, "velocity": 39}, {"time": 2654, "pitch": 47, "duration": 7, "velocity": 96}, {"time": 2655, "pitch": 59, "duration": 5, "velocity": 112}, {"time": 2655, "pitch": 63, "duration": 10, "velocity": 107}, {"time": 2660, "pitch": 58, "duration": 5, "velocity": 112}, {"time": 2666, "pitch": 51, "duration": 15, "velocity": 92}, {"time": 2666, "pitch": 44, "duration": 17, "velocity": 79}, {"time": 2666, "pitch": 60, "duration": 22, "velocity": 107}, {"time": 2666, "pitch": 63, "duration": 19, "velocity": 92}, {"time": 2666, "pitch": 56, "duration": 19, "velocity": 112}, {"time": 2690, "pitch": 56, "duration": 6, "velocity": 54}, {"time": 2690, "pitch": 37, "duration": 5, "velocity": 71}, {"time": 2690, "pitch": 61, "duration": 5, "velocity": 69}, {"time": 2690, "pitch": 64, "duration": 5, "velocity": 69}, {"time": 2701, "pitch": 61, "duration": 9, "velocity": 71}, {"time": 2701, "pitch": 39, "duration": 7, "velocity": 57}, {"time": 2701, "pitch": 51, "duration": 8, "velocity": 66}, {"time": 2702, "pitch": 54, "duration": 7, "velocity": 70}, {"time": 2702, "pitch": 58, "duration": 7, "velocity": 69}, {"time": 2715, "pitch": 40, "duration": 9, "velocity": 65}, {"time": 2715, "pitch": 63, "duration": 9, "velocity": 69}, {"time": 2715, "pitch": 56, "duration": 9, "velocity": 85}, {"time": 2715, "pitch": 52, "duration": 9, "velocity": 90}, {"time": 2715, "pitch": 59, "duration": 9, "velocity": 75}, {"time": 2729, "pitch": 54, "duration": 12, "velocity": 43}, {"time": 2730, "pitch": 49, "duration": 11, "velocity": 50}, {"time": 2730, "pitch": 58, "duration": 12, "velocity": 59}, {"time": 2730, "pitch": 42, "duration": 12, "velocity": 32}, {"time": 2731, "pitch": 61, "duration": 11, "velocity": 39}, {"time": 2731, "pitch": 64, "duration": 12, "velocity": 69}, {"time": 2754, "pitch": 54, "duration": 7, "velocity": 50}, {"time": 2754, "pitch": 59, "duration": 7, "velocity": 74}, {"time": 2755, "pitch": 63, "duration": 6, "velocity": 72}, {"time": 2755, "pitch": 35, "duration": 37, "velocity": 96}, {"time": 2755, "pitch": 66, "duration": 5, "velocity": 77}, {"time": 2761, "pitch": 42, "duration": 31, "velocity": 53}, {"time": 2763, "pitch": 47, "duration": 29, "velocity": 76}, {"time": 2765, "pitch": 51, "duration": 3, "velocity": 63}, {"time": 2767, "pitch": 54, "duration": 4, "velocity": 61}, {"time": 2770, "pitch": 59, "duration": 2, "velocity": 61}, {"time": 2773, "pitch": 63, "duration": 2, "velocity": 65}, {"time": 2778, "pitch": 71, "duration": 1, "velocity": 51}, {"time": 2782, "pitch": 75, "duration": 1, "velocity": 40}, {"time": 2788, "pitch": 83, "duration": 3, "velocity": 27}], "annotations": [{"time": 33, "annotation": {"number": 64, "value": 127}, "group": "control_change"}, {"time": 51, "annotation": {"number": 64, "value": 0}, "group": "control_change"}, {"time": 52, "annotation": {"number": 64, "value": 127}, "group": "control_change"}, {"time": 74, "annotation": {"number": 64, "value": 0}, "group": "control_change"}, {"time": 76, "annotation": {"number": 64, "value": 127}, "group": "control_change"}, {"time": 98, "annotation": {"number": 64, "value": 0}, "group": "control_change"}, {"time": 100, "annotation": {"number": 64, "value": 127}, "group": "control_change"}, {"time": 121, "annotation": {"number": 64, "value": 0}, "group": "control_change"}, {"time": 123, "annotation": {"number": 64, "value": 127}, "group": "control_change"}, {"time": 146, "annotation": {"number": 64, "value": 0}, "group": "control_change"}, {"time": 148, "annotation": {"number": 64, "value": 127}, "group": "control_change"}, {"time": 160, "annotation": {"number": 64, "value": 0}, "group": "control_change"}, {"time": 172, "annotation": {"number": 64, "value": 127}, "group": "control_change"}, {"time": 195, "annotation": {"number": 64, "value": 0}, "group": "control_change"}, {"time": 197, "annotation": {"number": 64, "value": 127}, "group": "control_change"}, {"time": 242, "annotation": {"number": 64, "value": 0}, "group": "control_change"}, {"time": 243, "annotation": {"number": 64, "value": 127}, "group": "control_change"}, {"time": 265, "annotation": {"number": 64, "value": 0}, "group": "control_change"}, {"time": 267, "annotation": {"number": 64, "value": 127}, "group": "control_change"}, {"time": 289, "annotation": {"number": 64, "value": 0}, "group": "control_change"}, {"time": 291, "annotation": {"number": 64, "value": 127}, "group": "control_change"}, {"time": 313, "annotation": {"number": 64, "value": 0}, "group": "control_change"}, {"time": 315, "annotation": {"number": 64, "value": 127}, "group": "control_change"}, {"time": 337, "annotation": {"number": 64, "value": 0}, "group": "control_change"}, {"time": 339, "annotation": {"number": 64, "value": 127}, "group": "control_change"}, {"time": 361, "annotation": {"number": 64, "value": 0}, "group": "control_change"}, {"time": 363, "annotation": {"number": 64, "value": 127}, "group": "control_change"}, {"time": 374, "annotation": {"number": 64, "value": 0}, "group": "control_change"}, {"time": 375, "annotation": {"number": 64, "value": 127}, "group": "control_change"}, {"time": 385, "annotation": {"number": 64, "value": 0}, "group": "control_change"}, {"time": 387, "annotation": {"number": 64, "value": 127}, "group": "control_change"}, {"time": 408, "annotation": {"number": 64, "value": 0}, "group": "control_change"}, {"time": 411, "annotation": {"number": 64, "value": 127}, "group": "control_change"}, {"time": 434, "annotation": {"number": 64, "value": 0}, "group": "control_change"}, {"time": 436, "annotation": {"number": 64, "value": 127}, "group": "control_change"}, {"time": 457, "annotation": {"number": 64, "value": 0}, "group": "control_change"}, {"time": 459, "annotation": {"number": 64, "value": 127}, "group": "control_change"}, {"time": 482, "annotation": {"number": 64, "value": 0}, "group": "control_change"}, {"time": 484, "annotation": {"number": 64, "value": 127}, "group": "control_change"}, {"time": 506, "annotation": {"number": 64, "value": 0}, "group": "control_change"}, {"time": 507, "annotation": {"number": 64, "value": 127}, "group": "control_change"}, {"time": 530, "annotation": {"number": 64, "value": 0}, "group": "control_change"}, {"time": 532, "annotation": {"number": 64, "value": 127}, "group": "control_change"}, {"time": 554, "annotation": {"number": 64, "value": 0}, "group": "control_change"}, {"time": 556, "annotation": {"number": 64, "value": 127}, "group": "control_change"}, {"time": 566, "annotation": {"number": 64, "value": 0}, "group": "control_change"}, {"time": 567, "annotation": {"number": 64, "value": 127}, "group": "control_change"}, {"time": 577, "annotation": {"number": 64, "value": 0}, "group": "control_change"}, {"time": 579, "annotation": {"number": 64, "value": 127}, "group": "control_change"}, {"time": 589, "annotation": {"number": 64, "value": 0}, "group": "control_change"}, {"time": 591, "annotation": {"number": 64, "value": 127}, "group": "control_change"}, {"time": 602, "annotation": {"number": 64, "value": 0}, "group": "control_change"}, {"time": 603, "annotation": {"number": 64, "value": 127}, "group": "control_change"}, {"time": 613, "annotation": {"number": 64, "value": 0}, "group": "control_change"}, {"time": 615, "annotation": {"number": 64, "value": 127}, "group": "control_change"}, {"time": 626, "annotation": {"number": 64, "value": 0}, "group": "control_change"}, {"time": 627, "annotation": {"number": 64, "value": 127}, "group": "control_change"}, {"time": 650, "annotation": {"number": 64, "value": 0}, "group": "control_change"}, {"time": 651, "annotation": {"number": 64, "value": 127}, "group": "control_change"}, {"time": 673, "annotation": {"number": 64, "value": 0}, "group": "control_change"}, {"time": 675, "annotation": {"number": 64, "value": 127}, "group": "control_change"}, {"time": 685, "annotation": {"number": 64, "value": 0}, "group": "control_change"}, {"time": 687, "annotation": {"number": 64, "value": 127}, "group": "control_change"}, {"time": 698, "annotation": {"number": 64, "value": 0}, "group": "control_change"}, {"time": 699, "annotation": {"number": 64, "value": 127}, "group": "control_change"}, {"time": 708, "annotation": {"number": 64, "value": 0}, "group": "control_change"}, {"time": 711, "annotation": {"number": 64, "value": 127}, "group": "control_change"}, {"time": 722, "annotation": {"number": 64, "value": 0}, "group": "control_change"}, {"time": 723, "annotation": {"number": 64, "value": 127}, "group": "control_change"}, {"time": 746, "annotation": {"number": 64, "value": 0}, "group": "control_change"}, {"time": 747, "annotation": {"number": 64, "value": 127}, "group": "control_change"}, {"time": 770, "annotation": {"number": 64, "value": 0}, "group": "control_change"}, {"time": 771, "annotation": {"number": 64, "value": 127}, "group": "control_change"}, {"time": 794, "annotation": {"number": 64, "value": 0}, "group": "control_change"}, {"time": 854, "annotation": {"number": 64, "value": 0}, "group": "control_change"}, {"time": 868, "annotation": {"number": 64, "value": 127}, "group": "control_change"}, {"time": 912, "annotation": {"number": 64, "value": 0}, "group": "control_change"}, {"time": 915, "annotation": {"number": 64, "value": 127}, "group": "control_change"}, {"time": 937, "annotation": {"number": 64, "value": 0}, "group": "control_change"}, {"time": 939, "annotation": {"number": 64, "value": 127}, "group": "control_change"}, {"time": 961, "annotation": {"number": 64, "value": 0}, "group": "control_change"}, {"time": 963, "annotation": {"number": 64, "value": 127}, "group": "control_change"}, {"time": 985, "annotation": {"number": 64, "value": 0}, "group": "control_change"}, {"time": 987, "annotation": {"number": 64, "value": 127}, "group": "control_change"}, {"time": 1009, "annotation": {"number": 64, "value": 0}, "group": "control_change"}, {"time": 1012, "annotation": {"number": 64, "value": 127}, "group": "control_change"}, {"time": 1057, "annotation": {"number": 64, "value": 0}, "group": "control_change"}, {"time": 1060, "annotation": {"number": 64, "value": 127}, "group": "control_change"}, {"time": 1107, "annotation": {"number": 64, "value": 0}, "group": "control_change"}, {"time": 1108, "annotation": {"number": 64, "value": 127}, "group": "control_change"}, {"time": 1130, "annotation": {"number": 64, "value": 0}, "group": "control_change"}, {"time": 1132, "annotation": {"number": 64, "value": 127}, "group": "control_change"}, {"time": 1154, "annotation": {"number": 64, "value": 0}, "group": "control_change"}, {"time": 1155, "annotation": {"number": 64, "value": 127}, "group": "control_change"}, {"time": 1178, "annotation": {"number": 64, "value": 0}, "group": "control_change"}, {"time": 1180, "annotation": {"number": 64, "value": 127}, "group": "control_change"}, {"time": 1201, "annotation": {"number": 64, "value": 0}, "group": "control_change"}, {"time": 1203, "annotation": {"number": 64, "value": 127}, "group": "control_change"}, {"time": 1226, "annotation": {"number": 64, "value": 0}, "group": "control_change"}, {"time": 1228, "annotation": {"number": 64, "value": 127}, "group": "control_change"}, {"time": 1250, "annotation": {"number": 64, "value": 0}, "group": "control_change"}, {"time": 1251, "annotation": {"number": 64, "value": 127}, "group": "control_change"}, {"time": 1274, "annotation": {"number": 64, "value": 0}, "group": "control_change"}, {"time": 1276, "annotation": {"number": 64, "value": 127}, "group": "control_change"}, {"time": 1287, "annotation": {"number": 64, "value": 0}, "group": "control_change"}, {"time": 1288, "annotation": {"number": 64, "value": 127}, "group": "control_change"}, {"time": 1297, "annotation": {"number": 64, "value": 0}, "group": "control_change"}, {"time": 1299, "annotation": {"number": 64, "value": 127}, "group": "control_change"}, {"time": 1322, "annotation": {"number": 64, "value": 0}, "group": "control_change"}, {"time": 1323, "annotation": {"number": 64, "value": 127}, "group": "control_change"}, {"time": 1346, "annotation": {"number": 64, "value": 0}, "group": "control_change"}, {"time": 1348, "annotation": {"number": 64, "value": 127}, "group": "control_change"}, {"time": 1369, "annotation": {"number": 64, "value": 0}, "group": "control_change"}, {"time": 1371, "annotation": {"number": 64, "value": 127}, "group": "control_change"}, {"time": 1381, "annotation": {"number": 64, "value": 0}, "group": "control_change"}, {"time": 1396, "annotation": {"number": 64, "value": 127}, "group": "control_change"}, {"time": 1419, "annotation": {"number": 64, "value": 0}, "group": "control_change"}, {"time": 1420, "annotation": {"number": 64, "value": 127}, "group": "control_change"}, {"time": 1442, "annotation": {"number": 64, "value": 0}, "group": "control_change"}, {"time": 1444, "annotation": {"number": 64, "value": 127}, "group": "control_change"}, {"time": 1456, "annotation": {"number": 64, "value": 0}, "group": "control_change"}, {"time": 1467, "annotation": {"number": 64, "value": 127}, "group": "control_change"}, {"time": 1479, "annotation": {"number": 64, "value": 0}, "group": "control_change"}, {"time": 1492, "annotation": {"number": 64, "value": 127}, "group": "control_change"}, {"time": 1514, "annotation": {"number": 64, "value": 0}, "group": "control_change"}, {"time": 1515, "annotation": {"number": 64, "value": 127}, "group": "control_change"}, {"time": 1538, "annotation": {"number": 64, "value": 0}, "group": "control_change"}, {"time": 1540, "annotation": {"number": 64, "value": 127}, "group": "control_change"}, {"time": 1562, "annotation": {"number": 64, "value": 0}, "group": "control_change"}, {"time": 1563, "annotation": {"number": 64, "value": 127}, "group": "control_change"}, {"time": 1586, "annotation": {"number": 64, "value": 0}, "group": "control_change"}, {"time": 1588, "annotation": {"number": 64, "value": 127}, "group": "control_change"}, {"time": 1625, "annotation": {"number": 64, "value": 0}, "group": "control_change"}, {"time": 1635, "annotation": {"number": 64, "value": 127}, "group": "control_change"}, {"time": 1657, "annotation": {"number": 64, "value": 0}, "group": "control_change"}, {"time": 1659, "annotation": {"number": 64, "value": 127}, "group": "control_change"}, {"time": 1681, "annotation": {"number": 64, "value": 0}, "group": "control_change"}, {"time": 1683, "annotation": {"number": 64, "value": 127}, "group": "control_change"}, {"time": 1705, "annotation": {"number": 64, "value": 0}, "group": "control_change"}, {"time": 1707, "annotation": {"number": 64, "value": 127}, "group": "control_change"}, {"time": 1728, "annotation": {"number": 64, "value": 0}, "group": "control_change"}, {"time": 1732, "annotation": {"number": 64, "value": 127}, "group": "control_change"}, {"time": 1754, "annotation": {"number": 64, "value": 0}, "group": "control_change"}, {"time": 1755, "annotation": {"number": 64, "value": 127}, "group": "control_change"}, {"time": 1778, "annotation": {"number": 64, "value": 0}, "group": "control_change"}, {"time": 1780, "annotation": {"number": 64, "value": 127}, "group": "control_change"}, {"time": 1802, "annotation": {"number": 64, "value": 0}, "group": "control_change"}, {"time": 1804, "annotation": {"number": 64, "value": 127}, "group": "control_change"}, {"time": 1816, "annotation": {"number": 64, "value": 0}, "group": "control_change"}, {"time": 1828, "annotation": {"number": 64, "value": 127}, "group": "control_change"}, {"time": 1874, "annotation": {"number": 64, "value": 0}, "group": "control_change"}, {"time": 1876, "annotation": {"number": 64, "value": 127}, "group": "control_change"}, {"time": 1898, "annotation": {"number": 64, "value": 0}, "group": "control_change"}, {"time": 1899, "annotation": {"number": 64, "value": 127}, "group": "control_change"}, {"time": 1921, "annotation": {"number": 64, "value": 0}, "group": "control_change"}, {"time": 1923, "annotation": {"number": 64, "value": 127}, "group": "control_change"}, {"time": 1945, "annotation": {"number": 64, "value": 0}, "group": "control_change"}, {"time": 1947, "annotation": {"number": 64, "value": 127}, "group": "control_change"}, {"time": 1968, "annotation": {"number": 64, "value": 0}, "group": "control_change"}, {"time": 1971, "annotation": {"number": 64, "value": 127}, "group": "control_change"}, {"time": 2018, "annotation": {"number": 64, "value": 0}, "group": "control_change"}, {"time": 2020, "annotation": {"number": 64, "value": 127}, "group": "control_change"}, {"time": 2062, "annotation": {"number": 64, "value": 0}, "group": "control_change"}, {"time": 2068, "annotation": {"number": 64, "value": 127}, "group": "control_change"}, {"time": 2114, "annotation": {"number": 64, "value": 0}, "group": "control_change"}, {"time": 2116, "annotation": {"number": 64, "value": 127}, "group": "control_change"}, {"time": 2139, "annotation": {"number": 64, "value": 0}, "group": "control_change"}, {"time": 2140, "annotation": {"number": 64, "value": 127}, "group": "control_change"}, {"time": 2150, "annotation": {"number": 64, "value": 0}, "group": "control_change"}, {"time": 2210, "annotation": {"number": 64, "value": 0}, "group": "control_change"}, {"time": 2211, "annotation": {"number": 64, "value": 127}, "group": "control_change"}, {"time": 2257, "annotation": {"number": 64, "value": 0}, "group": "control_change"}, {"time": 2259, "annotation": {"number": 64, "value": 127}, "group": "control_change"}, {"time": 2261, "annotation": {"number": 64, "value": 127}, "group": "control_change"}, {"time": 2297, "annotation": {"number": 64, "value": 0}, "group": "control_change"}, {"time": 2307, "annotation": {"number": 64, "value": 127}, "group": "control_change"}, {"time": 2343, "annotation": {"number": 64, "value": 0}, "group": "control_change"}, {"time": 2356, "annotation": {"number": 64, "value": 127}, "group": "control_change"}, {"time": 2378, "annotation": {"number": 64, "value": 0}, "group": "control_change"}, {"time": 2380, "annotation": {"number": 64, "value": 127}, "group": "control_change"}, {"time": 2401, "annotation": {"number": 64, "value": 0}, "group": "control_change"}, {"time": 2404, "annotation": {"number": 64, "value": 127}, "group": "control_change"}, {"time": 2425, "annotation": {"number": 64, "value": 0}, "group": "control_change"}, {"time": 2452, "annotation": {"number": 64, "value": 127}, "group": "control_change"}, {"time": 2487, "annotation": {"number": 64, "value": 0}, "group": "control_change"}, {"time": 2499, "annotation": {"number": 64, "value": 127}, "group": "control_change"}, {"time": 2545, "annotation": {"number": 64, "value": 0}, "group": "control_change"}, {"time": 2547, "annotation": {"number": 64, "value": 127}, "group": "control_change"}, {"time": 2570, "annotation": {"number": 64, "value": 0}, "group": "control_change"}, {"time": 2571, "annotation": {"number": 64, "value": 127}, "group": "control_change"}, {"time": 2594, "annotation": {"number": 64, "value": 0}, "group": "control_change"}, {"time": 2596, "annotation": {"number": 64, "value": 127}, "group": "control_change"}, {"time": 2618, "annotation": {"number": 64, "value": 0}, "group": "control_change"}, {"time": 2620, "annotation": {"number": 64, "value": 127}, "group": "control_change"}, {"time": 2642, "annotation": {"number": 64, "value": 0}, "group": "control_change"}, {"time": 2643, "annotation": {"number": 64, "value": 127}, "group": "control_change"}, {"time": 2665, "annotation": {"number": 64, "value": 0}, "group": "control_change"}, {"time": 2678, "annotation": {"number": 64, "value": 127}, "group": "control_change"}, {"time": 2688, "annotation": {"number": 64, "value": 0}, "group": "control_change"}, {"time": 2693, "annotation": {"number": 64, "value": 127}, "group": "control_change"}, {"time": 2701, "annotation": {"number": 64, "value": 0}, "group": "control_change"}, {"time": 2707, "annotation": {"number": 64, "value": 127}, "group": "control_change"}, {"time": 2715, "annotation": {"number": 64, "value": 0}, "group": "control_change"}, {"time": 2723, "annotation": {"number": 64, "value": 127}, "group": "control_change"}, {"time": 2729, "annotation": {"number": 64, "value": 0}, "group": "control_change"}, {"time": 2740, "annotation": {"number": 64, "value": 127}, "group": "control_change"}, {"time": 2755, "annotation": {"number": 64, "value": 0}, "group": "control_change"}, {"time": 2758, "annotation": {"number": 64, "value": 127}, "group": "control_change"}, {"time": 2812, "annotation": {"number": 64, "value": 0}, "group": "control_change"}, {"time": 2812, "annotation": {"number": 64, "value": 127}, "group": "control_change"}, {"time": 2813, "annotation": {"number": 64, "value": 0}, "group": "control_change"}, {"time": 2814, "annotation": {"number": 64, "value": 127}, "group": "control_change"}, {"time": 2818, "annotation": {"number": 64, "value": 0}, "group": "control_change"}]}]}