{"metadata": {"schema_version": "0.2", "title": "None", "source_filename": "754.mid", "source_format": "midi"}, "resolution": 12, "tempos": [{"time": 0, "qpm": 101.96035781288235}], "time_signatures": [{"time": 0, "numerator": 1, "denominator": 4}], "tracks": [{"program": 0, "is_drum": false, "name": "MELODY", "notes": [{"time": 462, "pitch": 60, "duration": 2, "velocity": 112}, {"time": 468, "pitch": 60, "duration": 2, "velocity": 100}, {"time": 474, "pitch": 60, "duration": 2, "velocity": 97}, {"time": 480, "pitch": 63, "duration": 2, "velocity": 122}, {"time": 486, "pitch": 65, "duration": 4, "velocity": 102}, {"time": 492, "pitch": 63, "duration": 2, "velocity": 117}, {"time": 498, "pitch": 60, "duration": 4, "velocity": 112}, {"time": 504, "pitch": 56, "duration": 6, "velocity": 112}, {"time": 510, "pitch": 58, "duration": 18, "velocity": 102}, {"time": 558, "pitch": 60, "duration": 3, "velocity": 112}, {"time": 564, "pitch": 60, "duration": 2, "velocity": 96}, {"time": 570, "pitch": 60, "duration": 3, "velocity": 97}, {"time": 576, "pitch": 63, "duration": 3, "velocity": 112}, {"time": 582, "pitch": 65, "duration": 3, "velocity": 97}, {"time": 588, "pitch": 63, "duration": 3, "velocity": 127}, {"time": 594, "pitch": 58, "duration": 3, "velocity": 122}, {"time": 600, "pitch": 56, "duration": 4, "velocity": 96}, {"time": 606, "pitch": 53, "duration": 20, "velocity": 95}, {"time": 654, "pitch": 51, "duration": 2, "velocity": 95}, {"time": 660, "pitch": 51, "duration": 2, "velocity": 90}, {"time": 666, "pitch": 51, "duration": 4, "velocity": 100}, {"time": 672, "pitch": 53, "duration": 4, "velocity": 86}, {"time": 678, "pitch": 56, "duration": 9, "velocity": 102}, {"time": 690, "pitch": 56, "duration": 6, "velocity": 117}, {"time": 702, "pitch": 60, "duration": 3, "velocity": 99}, {"time": 708, "pitch": 63, "duration": 2, "velocity": 100}, {"time": 714, "pitch": 63, "duration": 3, "velocity": 112}, {"time": 720, "pitch": 55, "duration": 4, "velocity": 95}, {"time": 726, "pitch": 60, "duration": 12, "velocity": 112}, {"time": 750, "pitch": 58, "duration": 2, "velocity": 117}, {"time": 756, "pitch": 58, "duration": 2, "velocity": 107}, {"time": 762, "pitch": 58, "duration": 2, "velocity": 102}, {"time": 768, "pitch": 56, "duration": 2, "velocity": 99}, {"time": 774, "pitch": 58, "duration": 2, "velocity": 127}, {"time": 780, "pitch": 56, "duration": 2, "velocity": 107}, {"time": 786, "pitch": 55, "duration": 3, "velocity": 95}, {"time": 792, "pitch": 55, "duration": 3, "velocity": 95}, {"time": 798, "pitch": 53, "duration": 15, "velocity": 83}, {"time": 846, "pitch": 60, "duration": 2, "velocity": 112}, {"time": 852, "pitch": 60, "duration": 2, "velocity": 100}, {"time": 858, "pitch": 60, "duration": 2, "velocity": 97}, {"time": 864, "pitch": 63, "duration": 2, "velocity": 122}, {"time": 870, "pitch": 65, "duration": 4, "velocity": 102}, {"time": 876, "pitch": 63, "duration": 2, "velocity": 117}, {"time": 882, "pitch": 60, "duration": 4, "velocity": 112}, {"time": 888, "pitch": 56, "duration": 6, "velocity": 112}, {"time": 894, "pitch": 58, "duration": 18, "velocity": 102}, {"time": 942, "pitch": 60, "duration": 3, "velocity": 112}, {"time": 948, "pitch": 60, "duration": 2, "velocity": 96}, {"time": 954, "pitch": 60, "duration": 3, "velocity": 97}, {"time": 960, "pitch": 63, "duration": 3, "velocity": 112}, {"time": 966, "pitch": 65, "duration": 3, "velocity": 97}, {"time": 972, "pitch": 63, "duration": 3, "velocity": 127}, {"time": 978, "pitch": 58, "duration": 3, "velocity": 122}, {"time": 984, "pitch": 56, "duration": 4, "velocity": 96}, {"time": 990, "pitch": 53, "duration": 20, "velocity": 95}, {"time": 1038, "pitch": 51, "duration": 2, "velocity": 95}, {"time": 1044, "pitch": 51, "duration": 2, "velocity": 90}, {"time": 1050, "pitch": 51, "duration": 4, "velocity": 100}, {"time": 1056, "pitch": 53, "duration": 4, "velocity": 86}, {"time": 1062, "pitch": 56, "duration": 9, "velocity": 102}, {"time": 1074, "pitch": 56, "duration": 6, "velocity": 117}, {"time": 1080, "pitch": 58, "duration": 4, "velocity": 112}, {"time": 1086, "pitch": 60, "duration": 3, "velocity": 99}, {"time": 1098, "pitch": 63, "duration": 3, "velocity": 112}, {"time": 1104, "pitch": 55, "duration": 4, "velocity": 95}, {"time": 1110, "pitch": 60, "duration": 12, "velocity": 112}, {"time": 1134, "pitch": 58, "duration": 2, "velocity": 117}, {"time": 1140, "pitch": 58, "duration": 2, "velocity": 107}, {"time": 1146, "pitch": 58, "duration": 2, "velocity": 102}, {"time": 1152, "pitch": 56, "duration": 2, "velocity": 99}, {"time": 1158, "pitch": 51, "duration": 6, "velocity": 96}, {"time": 1170, "pitch": 56, "duration": 9, "velocity": 99}, {"time": 1182, "pitch": 53, "duration": 30, "velocity": 89}, {"time": 1224, "pitch": 60, "duration": 2, "velocity": 107}, {"time": 1230, "pitch": 65, "duration": 2, "velocity": 117}, {"time": 1236, "pitch": 65, "duration": 2, "velocity": 99}, {"time": 1242, "pitch": 65, "duration": 3, "velocity": 99}, {"time": 1248, "pitch": 63, "duration": 2, "velocity": 102}, {"time": 1254, "pitch": 60, "duration": 5, "velocity": 117}, {"time": 1260, "pitch": 63, "duration": 6, "velocity": 122}, {"time": 1272, "pitch": 60, "duration": 5, "velocity": 107}, {"time": 1278, "pitch": 65, "duration": 2, "velocity": 107}, {"time": 1284, "pitch": 65, "duration": 2, "velocity": 96}, {"time": 1290, "pitch": 65, "duration": 2, "velocity": 95}, {"time": 1296, "pitch": 63, "duration": 2, "velocity": 112}, {"time": 1302, "pitch": 65, "duration": 8, "velocity": 102}, {"time": 1326, "pitch": 65, "duration": 2, "velocity": 99}, {"time": 1332, "pitch": 65, "duration": 2, "velocity": 88}, {"time": 1338, "pitch": 65, "duration": 2, "velocity": 95}, {"time": 1344, "pitch": 63, "duration": 2, "velocity": 100}, {"time": 1350, "pitch": 65, "duration": 5, "velocity": 100}, {"time": 1362, "pitch": 63, "duration": 3, "velocity": 102}, {"time": 1368, "pitch": 63, "duration": 2, "velocity": 102}, {"time": 1374, "pitch": 58, "duration": 9, "velocity": 107}, {"time": 1386, "pitch": 63, "duration": 7, "velocity": 107}, {"time": 1398, "pitch": 60, "duration": 8, "velocity": 102}, {"time": 1422, "pitch": 58, "duration": 3, "velocity": 127}, {"time": 1428, "pitch": 58, "duration": 3, "velocity": 112}, {"time": 1434, "pitch": 58, "duration": 3, "velocity": 127}, {"time": 1440, "pitch": 56, "duration": 2, "velocity": 117}, {"time": 1446, "pitch": 53, "duration": 8, "velocity": 100}, {"time": 1470, "pitch": 58, "duration": 3, "velocity": 117}, {"time": 1476, "pitch": 58, "duration": 2, "velocity": 112}, {"time": 1482, "pitch": 58, "duration": 3, "velocity": 112}, {"time": 1488, "pitch": 56, "duration": 5, "velocity": 107}, {"time": 1494, "pitch": 51, "duration": 9, "velocity": 100}, {"time": 1518, "pitch": 68, "duration": 3, "velocity": 127}, {"time": 1524, "pitch": 68, "duration": 3, "velocity": 117}, {"time": 1530, "pitch": 68, "duration": 4, "velocity": 127}, {"time": 1536, "pitch": 65, "duration": 5, "velocity": 97}, {"time": 1542, "pitch": 67, "duration": 8, "velocity": 122}, {"time": 1554, "pitch": 63, "duration": 3, "velocity": 127}, {"time": 1560, "pitch": 63, "duration": 3, "velocity": 117}, {"time": 1566, "pitch": 60, "duration": 6, "velocity": 117}, {"time": 1572, "pitch": 60, "duration": 1, "velocity": 127}, {"time": 1578, "pitch": 67, "duration": 7, "velocity": 112}, {"time": 1590, "pitch": 65, "duration": 9, "velocity": 127}, {"time": 1611, "pitch": 60, "duration": 2, "velocity": 93}, {"time": 1614, "pitch": 65, "duration": 2, "velocity": 102}, {"time": 1620, "pitch": 65, "duration": 2, "velocity": 97}, {"time": 1626, "pitch": 65, "duration": 2, "velocity": 99}, {"time": 1632, "pitch": 63, "duration": 2, "velocity": 107}, {"time": 1638, "pitch": 60, "duration": 8, "velocity": 97}, {"time": 1644, "pitch": 63, "duration": 7, "velocity": 100}, {"time": 1659, "pitch": 60, "duration": 3, "velocity": 96}, {"time": 1662, "pitch": 65, "duration": 3, "velocity": 112}, {"time": 1668, "pitch": 65, "duration": 2, "velocity": 100}, {"time": 1674, "pitch": 65, "duration": 2, "velocity": 96}, {"time": 1680, "pitch": 63, "duration": 3, "velocity": 96}, {"time": 1686, "pitch": 65, "duration": 7, "velocity": 100}, {"time": 1710, "pitch": 65, "duration": 2, "velocity": 100}, {"time": 1716, "pitch": 65, "duration": 2, "velocity": 96}, {"time": 1722, "pitch": 65, "duration": 3, "velocity": 95}, {"time": 1728, "pitch": 63, "duration": 2, "velocity": 102}, {"time": 1734, "pitch": 65, "duration": 9, "velocity": 102}, {"time": 1746, "pitch": 63, "duration": 2, "velocity": 117}, {"time": 1752, "pitch": 63, "duration": 3, "velocity": 127}, {"time": 1758, "pitch": 58, "duration": 9, "velocity": 112}, {"time": 1770, "pitch": 63, "duration": 9, "velocity": 127}, {"time": 1782, "pitch": 60, "duration": 15, "velocity": 100}, {"time": 1806, "pitch": 58, "duration": 3, "velocity": 117}, {"time": 1812, "pitch": 58, "duration": 3, "velocity": 97}, {"time": 1818, "pitch": 58, "duration": 2, "velocity": 112}, {"time": 1824, "pitch": 60, "duration": 3, "velocity": 97}, {"time": 1830, "pitch": 56, "duration": 5, "velocity": 107}, {"time": 1836, "pitch": 53, "duration": 7, "velocity": 93}, {"time": 1854, "pitch": 58, "duration": 3, "velocity": 127}, {"time": 1860, "pitch": 58, "duration": 3, "velocity": 107}, {"time": 1866, "pitch": 58, "duration": 3, "velocity": 117}, {"time": 1872, "pitch": 60, "duration": 3, "velocity": 97}, {"time": 1878, "pitch": 51, "duration": 8, "velocity": 97}, {"time": 1902, "pitch": 68, "duration": 2, "velocity": 127}, {"time": 1908, "pitch": 68, "duration": 2, "velocity": 112}, {"time": 1914, "pitch": 68, "duration": 2, "velocity": 127}, {"time": 1920, "pitch": 65, "duration": 3, "velocity": 102}, {"time": 1926, "pitch": 67, "duration": 5, "velocity": 117}, {"time": 1938, "pitch": 63, "duration": 2, "velocity": 127}, {"time": 1944, "pitch": 63, "duration": 2, "velocity": 117}, {"time": 1950, "pitch": 60, "duration": 2, "velocity": 102}, {"time": 1956, "pitch": 60, "duration": 2, "velocity": 100}, {"time": 1962, "pitch": 67, "duration": 8, "velocity": 127}, {"time": 1974, "pitch": 65, "duration": 18, "velocity": 127}, {"time": 2022, "pitch": 53, "duration": 9, "velocity": 96}, {"time": 2034, "pitch": 56, "duration": 8, "velocity": 102}, {"time": 2046, "pitch": 58, "duration": 27, "velocity": 122}, {"time": 2118, "pitch": 58, "duration": 7, "velocity": 112}, {"time": 2130, "pitch": 60, "duration": 7, "velocity": 97}, {"time": 2142, "pitch": 56, "duration": 6, "velocity": 89}, {"time": 2148, "pitch": 53, "duration": 52, "velocity": 89}, {"time": 2214, "pitch": 53, "duration": 10, "velocity": 97}, {"time": 2226, "pitch": 56, "duration": 9, "velocity": 107}, {"time": 2238, "pitch": 58, "duration": 47, "velocity": 112}, {"time": 2310, "pitch": 56, "duration": 2, "velocity": 100}, {"time": 2316, "pitch": 48, "duration": 3, "velocity": 86}, {"time": 2322, "pitch": 56, "duration": 2, "velocity": 97}, {"time": 2328, "pitch": 53, "duration": 53, "velocity": 99}, {"time": 2766, "pitch": 60, "duration": 2, "velocity": 112}, {"time": 2772, "pitch": 60, "duration": 2, "velocity": 100}, {"time": 2778, "pitch": 60, "duration": 2, "velocity": 97}, {"time": 2784, "pitch": 63, "duration": 2, "velocity": 122}, {"time": 2790, "pitch": 65, "duration": 4, "velocity": 102}, {"time": 2796, "pitch": 63, "duration": 2, "velocity": 117}, {"time": 2802, "pitch": 60, "duration": 4, "velocity": 112}, {"time": 2808, "pitch": 56, "duration": 6, "velocity": 112}, {"time": 2814, "pitch": 58, "duration": 18, "velocity": 102}, {"time": 2862, "pitch": 60, "duration": 3, "velocity": 112}, {"time": 2868, "pitch": 60, "duration": 2, "velocity": 96}, {"time": 2874, "pitch": 60, "duration": 3, "velocity": 97}, {"time": 2880, "pitch": 63, "duration": 3, "velocity": 112}, {"time": 2886, "pitch": 65, "duration": 3, "velocity": 97}, {"time": 2892, "pitch": 63, "duration": 3, "velocity": 127}, {"time": 2898, "pitch": 60, "duration": 3, "velocity": 122}, {"time": 2900, "pitch": 58, "duration": 4, "velocity": 100}, {"time": 2904, "pitch": 56, "duration": 4, "velocity": 96}, {"time": 2910, "pitch": 53, "duration": 20, "velocity": 95}, {"time": 2958, "pitch": 51, "duration": 2, "velocity": 95}, {"time": 2964, "pitch": 51, "duration": 2, "velocity": 90}, {"time": 2976, "pitch": 53, "duration": 4, "velocity": 86}, {"time": 2982, "pitch": 56, "duration": 9, "velocity": 102}, {"time": 2994, "pitch": 56, "duration": 6, "velocity": 117}, {"time": 3006, "pitch": 60, "duration": 3, "velocity": 99}, {"time": 3012, "pitch": 63, "duration": 2, "velocity": 100}, {"time": 3024, "pitch": 55, "duration": 4, "velocity": 95}, {"time": 3030, "pitch": 60, "duration": 12, "velocity": 112}, {"time": 3054, "pitch": 58, "duration": 2, "velocity": 117}, {"time": 3060, "pitch": 58, "duration": 2, "velocity": 107}, {"time": 3066, "pitch": 58, "duration": 2, "velocity": 102}, {"time": 3072, "pitch": 56, "duration": 2, "velocity": 99}, {"time": 3078, "pitch": 51, "duration": 10, "velocity": 102}, {"time": 3090, "pitch": 56, "duration": 3, "velocity": 95}, {"time": 3096, "pitch": 55, "duration": 3, "velocity": 95}, {"time": 3102, "pitch": 53, "duration": 15, "velocity": 83}, {"time": 3150, "pitch": 60, "duration": 2, "velocity": 112}, {"time": 3156, "pitch": 60, "duration": 2, "velocity": 100}, {"time": 3162, "pitch": 60, "duration": 2, "velocity": 97}, {"time": 3168, "pitch": 63, "duration": 2, "velocity": 122}, {"time": 3174, "pitch": 65, "duration": 4, "velocity": 102}, {"time": 3180, "pitch": 63, "duration": 2, "velocity": 117}, {"time": 3186, "pitch": 60, "duration": 3, "velocity": 112}, {"time": 3188, "pitch": 58, "duration": 4, "velocity": 100}, {"time": 3192, "pitch": 56, "duration": 6, "velocity": 112}, {"time": 3198, "pitch": 58, "duration": 18, "velocity": 102}, {"time": 3246, "pitch": 60, "duration": 3, "velocity": 112}, {"time": 3252, "pitch": 60, "duration": 2, "velocity": 96}, {"time": 3258, "pitch": 60, "duration": 3, "velocity": 97}, {"time": 3264, "pitch": 63, "duration": 3, "velocity": 112}, {"time": 3270, "pitch": 65, "duration": 3, "velocity": 97}, {"time": 3276, "pitch": 63, "duration": 3, "velocity": 127}, {"time": 3282, "pitch": 60, "duration": 3, "velocity": 122}, {"time": 3284, "pitch": 58, "duration": 3, "velocity": 100}, {"time": 3288, "pitch": 56, "duration": 4, "velocity": 96}, {"time": 3294, "pitch": 53, "duration": 20, "velocity": 95}, {"time": 3342, "pitch": 51, "duration": 2, "velocity": 95}, {"time": 3348, "pitch": 51, "duration": 2, "velocity": 90}, {"time": 3354, "pitch": 51, "duration": 4, "velocity": 100}, {"time": 3360, "pitch": 53, "duration": 4, "velocity": 86}, {"time": 3366, "pitch": 56, "duration": 9, "velocity": 102}, {"time": 3378, "pitch": 56, "duration": 6, "velocity": 117}, {"time": 3384, "pitch": 58, "duration": 4, "velocity": 112}, {"time": 3390, "pitch": 60, "duration": 3, "velocity": 99}, {"time": 3402, "pitch": 63, "duration": 3, "velocity": 112}, {"time": 3408, "pitch": 55, "duration": 4, "velocity": 95}, {"time": 3414, "pitch": 60, "duration": 12, "velocity": 112}, {"time": 3438, "pitch": 58, "duration": 2, "velocity": 117}, {"time": 3444, "pitch": 58, "duration": 2, "velocity": 107}, {"time": 3450, "pitch": 58, "duration": 2, "velocity": 102}, {"time": 3456, "pitch": 56, "duration": 2, "velocity": 99}, {"time": 3462, "pitch": 51, "duration": 6, "velocity": 96}, {"time": 3474, "pitch": 56, "duration": 6, "velocity": 99}, {"time": 3480, "pitch": 55, "duration": 6, "velocity": 97}, {"time": 3486, "pitch": 53, "duration": 30, "velocity": 89}, {"time": 3528, "pitch": 60, "duration": 2, "velocity": 107}, {"time": 3534, "pitch": 65, "duration": 2, "velocity": 117}, {"time": 3540, "pitch": 65, "duration": 2, "velocity": 99}, {"time": 3546, "pitch": 65, "duration": 3, "velocity": 99}, {"time": 3552, "pitch": 63, "duration": 2, "velocity": 102}, {"time": 3558, "pitch": 60, "duration": 5, "velocity": 117}, {"time": 3564, "pitch": 63, "duration": 6, "velocity": 122}, {"time": 3576, "pitch": 60, "duration": 5, "velocity": 107}, {"time": 3582, "pitch": 65, "duration": 2, "velocity": 107}, {"time": 3588, "pitch": 65, "duration": 2, "velocity": 96}, {"time": 3594, "pitch": 65, "duration": 2, "velocity": 95}, {"time": 3600, "pitch": 63, "duration": 2, "velocity": 112}, {"time": 3606, "pitch": 65, "duration": 8, "velocity": 102}, {"time": 3630, "pitch": 65, "duration": 2, "velocity": 99}, {"time": 3636, "pitch": 65, "duration": 2, "velocity": 88}, {"time": 3642, "pitch": 65, "duration": 2, "velocity": 95}, {"time": 3648, "pitch": 63, "duration": 2, "velocity": 100}, {"time": 3654, "pitch": 65, "duration": 5, "velocity": 100}, {"time": 3666, "pitch": 63, "duration": 3, "velocity": 102}, {"time": 3672, "pitch": 63, "duration": 2, "velocity": 102}, {"time": 3678, "pitch": 58, "duration": 9, "velocity": 107}, {"time": 3690, "pitch": 63, "duration": 7, "velocity": 107}, {"time": 3702, "pitch": 60, "duration": 8, "velocity": 102}, {"time": 3726, "pitch": 58, "duration": 3, "velocity": 127}, {"time": 3732, "pitch": 58, "duration": 3, "velocity": 112}, {"time": 3738, "pitch": 58, "duration": 3, "velocity": 127}, {"time": 3744, "pitch": 56, "duration": 2, "velocity": 117}, {"time": 3750, "pitch": 53, "duration": 8, "velocity": 100}, {"time": 3774, "pitch": 58, "duration": 3, "velocity": 117}, {"time": 3780, "pitch": 58, "duration": 2, "velocity": 112}, {"time": 3786, "pitch": 58, "duration": 3, "velocity": 112}, {"time": 3792, "pitch": 56, "duration": 5, "velocity": 107}, {"time": 3798, "pitch": 51, "duration": 9, "velocity": 100}, {"time": 3822, "pitch": 68, "duration": 3, "velocity": 127}, {"time": 3828, "pitch": 68, "duration": 3, "velocity": 117}, {"time": 3834, "pitch": 68, "duration": 4, "velocity": 127}, {"time": 3840, "pitch": 65, "duration": 5, "velocity": 97}, {"time": 3846, "pitch": 67, "duration": 8, "velocity": 122}, {"time": 3858, "pitch": 63, "duration": 3, "velocity": 127}, {"time": 3864, "pitch": 63, "duration": 3, "velocity": 117}, {"time": 3870, "pitch": 60, "duration": 6, "velocity": 117}, {"time": 3876, "pitch": 60, "duration": 1, "velocity": 127}, {"time": 3882, "pitch": 67, "duration": 7, "velocity": 112}, {"time": 3894, "pitch": 65, "duration": 9, "velocity": 127}, {"time": 3912, "pitch": 60, "duration": 3, "velocity": 93}, {"time": 3918, "pitch": 65, "duration": 2, "velocity": 102}, {"time": 3924, "pitch": 65, "duration": 2, "velocity": 97}, {"time": 3930, "pitch": 65, "duration": 2, "velocity": 99}, {"time": 3936, "pitch": 63, "duration": 2, "velocity": 107}, {"time": 3942, "pitch": 60, "duration": 8, "velocity": 97}, {"time": 3948, "pitch": 63, "duration": 7, "velocity": 100}, {"time": 3960, "pitch": 60, "duration": 3, "velocity": 96}, {"time": 3966, "pitch": 65, "duration": 3, "velocity": 112}, {"time": 3972, "pitch": 65, "duration": 2, "velocity": 100}, {"time": 3978, "pitch": 65, "duration": 2, "velocity": 96}, {"time": 3984, "pitch": 63, "duration": 3, "velocity": 96}, {"time": 3990, "pitch": 65, "duration": 7, "velocity": 100}, {"time": 4014, "pitch": 65, "duration": 2, "velocity": 100}, {"time": 4020, "pitch": 65, "duration": 2, "velocity": 96}, {"time": 4026, "pitch": 65, "duration": 3, "velocity": 95}, {"time": 4032, "pitch": 63, "duration": 2, "velocity": 102}, {"time": 4038, "pitch": 65, "duration": 9, "velocity": 102}, {"time": 4050, "pitch": 63, "duration": 2, "velocity": 117}, {"time": 4056, "pitch": 63, "duration": 3, "velocity": 127}, {"time": 4062, "pitch": 58, "duration": 9, "velocity": 112}, {"time": 4074, "pitch": 63, "duration": 9, "velocity": 127}, {"time": 4086, "pitch": 60, "duration": 15, "velocity": 100}, {"time": 4110, "pitch": 58, "duration": 3, "velocity": 117}, {"time": 4116, "pitch": 58, "duration": 3, "velocity": 97}, {"time": 4122, "pitch": 58, "duration": 2, "velocity": 112}, {"time": 4128, "pitch": 60, "duration": 3, "velocity": 97}, {"time": 4134, "pitch": 56, "duration": 5, "velocity": 107}, {"time": 4140, "pitch": 53, "duration": 7, "velocity": 93}, {"time": 4158, "pitch": 58, "duration": 3, "velocity": 127}, {"time": 4164, "pitch": 58, "duration": 3, "velocity": 107}, {"time": 4170, "pitch": 58, "duration": 3, "velocity": 117}, {"time": 4176, "pitch": 60, "duration": 3, "velocity": 97}, {"time": 4182, "pitch": 51, "duration": 8, "velocity": 97}, {"time": 4206, "pitch": 68, "duration": 2, "velocity": 127}, {"time": 4212, "pitch": 68, "duration": 2, "velocity": 112}, {"time": 4218, "pitch": 68, "duration": 2, "velocity": 127}, {"time": 4224, "pitch": 65, "duration": 3, "velocity": 102}, {"time": 4230, "pitch": 67, "duration": 5, "velocity": 117}, {"time": 4242, "pitch": 63, "duration": 2, "velocity": 127}, {"time": 4248, "pitch": 63, "duration": 2, "velocity": 117}, {"time": 4254, "pitch": 60, "duration": 2, "velocity": 102}, {"time": 4260, "pitch": 60, "duration": 2, "velocity": 100}, {"time": 4266, "pitch": 67, "duration": 8, "velocity": 127}, {"time": 4278, "pitch": 65, "duration": 18, "velocity": 127}, {"time": 4296, "pitch": 60, "duration": 2, "velocity": 107}, {"time": 4302, "pitch": 65, "duration": 2, "velocity": 117}, {"time": 4308, "pitch": 65, "duration": 2, "velocity": 99}, {"time": 4314, "pitch": 65, "duration": 3, "velocity": 99}, {"time": 4320, "pitch": 63, "duration": 2, "velocity": 102}, {"time": 4326, "pitch": 60, "duration": 5, "velocity": 117}, {"time": 4332, "pitch": 63, "duration": 6, "velocity": 122}, {"time": 4344, "pitch": 60, "duration": 5, "velocity": 107}, {"time": 4350, "pitch": 65, "duration": 2, "velocity": 107}, {"time": 4356, "pitch": 65, "duration": 2, "velocity": 96}, {"time": 4362, "pitch": 65, "duration": 2, "velocity": 95}, {"time": 4368, "pitch": 63, "duration": 2, "velocity": 112}, {"time": 4374, "pitch": 65, "duration": 8, "velocity": 102}, {"time": 4398, "pitch": 65, "duration": 2, "velocity": 99}, {"time": 4404, "pitch": 65, "duration": 2, "velocity": 88}, {"time": 4410, "pitch": 65, "duration": 2, "velocity": 95}, {"time": 4416, "pitch": 63, "duration": 2, "velocity": 100}, {"time": 4422, "pitch": 65, "duration": 5, "velocity": 100}, {"time": 4434, "pitch": 63, "duration": 3, "velocity": 102}, {"time": 4440, "pitch": 63, "duration": 2, "velocity": 102}, {"time": 4446, "pitch": 58, "duration": 9, "velocity": 107}, {"time": 4458, "pitch": 63, "duration": 7, "velocity": 107}, {"time": 4470, "pitch": 60, "duration": 8, "velocity": 102}, {"time": 4494, "pitch": 58, "duration": 3, "velocity": 127}, {"time": 4500, "pitch": 58, "duration": 3, "velocity": 112}, {"time": 4506, "pitch": 58, "duration": 3, "velocity": 127}, {"time": 4512, "pitch": 56, "duration": 2, "velocity": 117}, {"time": 4518, "pitch": 53, "duration": 8, "velocity": 100}, {"time": 4542, "pitch": 58, "duration": 3, "velocity": 117}, {"time": 4548, "pitch": 58, "duration": 2, "velocity": 112}, {"time": 4554, "pitch": 58, "duration": 3, "velocity": 112}, {"time": 4560, "pitch": 56, "duration": 5, "velocity": 107}, {"time": 4566, "pitch": 51, "duration": 9, "velocity": 100}, {"time": 4590, "pitch": 68, "duration": 3, "velocity": 127}, {"time": 4596, "pitch": 68, "duration": 3, "velocity": 117}, {"time": 4602, "pitch": 68, "duration": 4, "velocity": 127}, {"time": 4608, "pitch": 65, "duration": 5, "velocity": 97}, {"time": 4614, "pitch": 67, "duration": 8, "velocity": 122}, {"time": 4626, "pitch": 63, "duration": 3, "velocity": 127}, {"time": 4632, "pitch": 63, "duration": 3, "velocity": 117}, {"time": 4638, "pitch": 60, "duration": 6, "velocity": 117}, {"time": 4644, "pitch": 60, "duration": 1, "velocity": 127}, {"time": 4650, "pitch": 67, "duration": 7, "velocity": 112}, {"time": 4662, "pitch": 65, "duration": 9, "velocity": 127}, {"time": 4680, "pitch": 60, "duration": 3, "velocity": 93}, {"time": 4686, "pitch": 65, "duration": 2, "velocity": 102}, {"time": 4692, "pitch": 65, "duration": 2, "velocity": 97}, {"time": 4698, "pitch": 65, "duration": 2, "velocity": 99}, {"time": 4704, "pitch": 63, "duration": 2, "velocity": 107}, {"time": 4710, "pitch": 60, "duration": 8, "velocity": 97}, {"time": 4716, "pitch": 63, "duration": 7, "velocity": 100}, {"time": 4728, "pitch": 60, "duration": 2, "velocity": 96}, {"time": 4734, "pitch": 65, "duration": 3, "velocity": 112}, {"time": 4740, "pitch": 65, "duration": 2, "velocity": 100}, {"time": 4746, "pitch": 65, "duration": 2, "velocity": 96}, {"time": 4752, "pitch": 63, "duration": 3, "velocity": 96}, {"time": 4758, "pitch": 65, "duration": 7, "velocity": 100}, {"time": 4782, "pitch": 65, "duration": 2, "velocity": 100}, {"time": 4788, "pitch": 65, "duration": 2, "velocity": 96}, {"time": 4794, "pitch": 65, "duration": 3, "velocity": 95}, {"time": 4800, "pitch": 63, "duration": 2, "velocity": 102}, {"time": 4806, "pitch": 65, "duration": 9, "velocity": 102}, {"time": 4818, "pitch": 63, "duration": 2, "velocity": 117}, {"time": 4824, "pitch": 63, "duration": 3, "velocity": 127}, {"time": 4830, "pitch": 58, "duration": 9, "velocity": 112}, {"time": 4842, "pitch": 63, "duration": 6, "velocity": 127}, {"time": 4848, "pitch": 61, "duration": 5, "velocity": 97}, {"time": 4854, "pitch": 60, "duration": 15, "velocity": 100}, {"time": 4878, "pitch": 58, "duration": 3, "velocity": 117}, {"time": 4884, "pitch": 58, "duration": 3, "velocity": 97}, {"time": 4890, "pitch": 58, "duration": 2, "velocity": 112}, {"time": 4896, "pitch": 60, "duration": 3, "velocity": 97}, {"time": 4902, "pitch": 56, "duration": 5, "velocity": 107}, {"time": 4908, "pitch": 53, "duration": 7, "velocity": 93}, {"time": 4926, "pitch": 58, "duration": 3, "velocity": 127}, {"time": 4932, "pitch": 58, "duration": 3, "velocity": 107}, {"time": 4938, "pitch": 58, "duration": 3, "velocity": 117}, {"time": 4944, "pitch": 60, "duration": 3, "velocity": 97}, {"time": 4950, "pitch": 51, "duration": 8, "velocity": 97}, {"time": 4974, "pitch": 68, "duration": 2, "velocity": 127}, {"time": 4980, "pitch": 68, "duration": 2, "velocity": 112}, {"time": 4986, "pitch": 68, "duration": 2, "velocity": 127}, {"time": 4992, "pitch": 65, "duration": 3, "velocity": 102}, {"time": 4998, "pitch": 67, "duration": 5, "velocity": 117}, {"time": 5010, "pitch": 63, "duration": 2, "velocity": 127}, {"time": 5016, "pitch": 63, "duration": 2, "velocity": 117}, {"time": 5022, "pitch": 60, "duration": 2, "velocity": 102}, {"time": 5028, "pitch": 60, "duration": 2, "velocity": 100}, {"time": 5034, "pitch": 67, "duration": 8, "velocity": 127}, {"time": 5046, "pitch": 65, "duration": 18, "velocity": 127}, {"time": 5094, "pitch": 53, "duration": 9, "velocity": 96}, {"time": 5106, "pitch": 56, "duration": 8, "velocity": 102}, {"time": 5118, "pitch": 58, "duration": 27, "velocity": 122}, {"time": 5190, "pitch": 58, "duration": 7, "velocity": 112}, {"time": 5202, "pitch": 60, "duration": 7, "velocity": 97}, {"time": 5214, "pitch": 56, "duration": 6, "velocity": 89}, {"time": 5220, "pitch": 53, "duration": 52, "velocity": 89}, {"time": 5286, "pitch": 53, "duration": 10, "velocity": 97}, {"time": 5298, "pitch": 56, "duration": 9, "velocity": 107}, {"time": 5310, "pitch": 58, "duration": 47, "velocity": 112}, {"time": 5382, "pitch": 56, "duration": 2, "velocity": 100}, {"time": 5388, "pitch": 48, "duration": 3, "velocity": 86}, {"time": 5394, "pitch": 56, "duration": 2, "velocity": 97}, {"time": 5400, "pitch": 53, "duration": 53, "velocity": 99}]}, {"program": 0, "is_drum": false, "name": "BRIDGE", "notes": [{"time": 84, "pitch": 60, "duration": 5, "velocity": 100}, {"time": 90, "pitch": 63, "duration": 5, "velocity": 117}, {"time": 96, "pitch": 60, "duration": 3, "velocity": 95}, {"time": 102, "pitch": 65, "duration": 5, "velocity": 107}, {"time": 111, "pitch": 63, "duration": 5, "velocity": 112}, {"time": 120, "pitch": 60, "duration": 4, "velocity": 102}, {"time": 126, "pitch": 58, "duration": 34, "velocity": 122}, {"time": 132, "pitch": 72, "duration": 4, "velocity": 86}, {"time": 138, "pitch": 75, "duration": 6, "velocity": 112}, {"time": 144, "pitch": 72, "duration": 3, "velocity": 88}, {"time": 150, "pitch": 77, "duration": 4, "velocity": 97}, {"time": 156, "pitch": 75, "duration": 11, "velocity": 100}, {"time": 168, "pitch": 72, "duration": 6, "velocity": 97}, {"time": 174, "pitch": 70, "duration": 21, "velocity": 97}, {"time": 180, "pitch": 58, "duration": 3, "velocity": 117}, {"time": 186, "pitch": 60, "duration": 2, "velocity": 100}, {"time": 192, "pitch": 63, "duration": 2, "velocity": 107}, {"time": 198, "pitch": 65, "duration": 5, "velocity": 107}, {"time": 207, "pitch": 63, "duration": 6, "velocity": 127}, {"time": 216, "pitch": 65, "duration": 3, "velocity": 100}, {"time": 222, "pitch": 60, "duration": 23, "velocity": 102}, {"time": 228, "pitch": 70, "duration": 4, "velocity": 99}, {"time": 234, "pitch": 72, "duration": 4, "velocity": 92}, {"time": 240, "pitch": 75, "duration": 2, "velocity": 97}, {"time": 246, "pitch": 77, "duration": 7, "velocity": 96}, {"time": 252, "pitch": 79, "duration": 5, "velocity": 96}, {"time": 258, "pitch": 77, "duration": 5, "velocity": 95}, {"time": 264, "pitch": 75, "duration": 6, "velocity": 93}, {"time": 270, "pitch": 72, "duration": 26, "velocity": 100}, {"time": 276, "pitch": 60, "duration": 5, "velocity": 66}, {"time": 282, "pitch": 63, "duration": 6, "velocity": 112}, {"time": 288, "pitch": 60, "duration": 3, "velocity": 95}, {"time": 294, "pitch": 65, "duration": 5, "velocity": 107}, {"time": 303, "pitch": 63, "duration": 4, "velocity": 127}, {"time": 312, "pitch": 60, "duration": 4, "velocity": 102}, {"time": 318, "pitch": 58, "duration": 8, "velocity": 107}, {"time": 324, "pitch": 75, "duration": 5, "velocity": 100}, {"time": 330, "pitch": 77, "duration": 3, "velocity": 96}, {"time": 336, "pitch": 80, "duration": 5, "velocity": 122}, {"time": 342, "pitch": 82, "duration": 6, "velocity": 95}, {"time": 348, "pitch": 84, "duration": 7, "velocity": 85}, {"time": 354, "pitch": 82, "duration": 6, "velocity": 107}, {"time": 360, "pitch": 80, "duration": 7, "velocity": 100}, {"time": 366, "pitch": 82, "duration": 41, "velocity": 122}, {"time": 372, "pitch": 65, "duration": 4, "velocity": 107}, {"time": 378, "pitch": 63, "duration": 3, "velocity": 127}, {"time": 384, "pitch": 60, "duration": 3, "velocity": 97}, {"time": 390, "pitch": 58, "duration": 4, "velocity": 107}, {"time": 399, "pitch": 56, "duration": 7, "velocity": 112}, {"time": 408, "pitch": 58, "duration": 4, "velocity": 117}, {"time": 414, "pitch": 53, "duration": 26, "velocity": 97}, {"time": 420, "pitch": 82, "duration": 5, "velocity": 107}, {"time": 426, "pitch": 80, "duration": 5, "velocity": 107}, {"time": 432, "pitch": 79, "duration": 6, "velocity": 117}, {"time": 438, "pitch": 77, "duration": 6, "velocity": 88}, {"time": 444, "pitch": 75, "duration": 5, "velocity": 107}, {"time": 450, "pitch": 72, "duration": 5, "velocity": 95}, {"time": 456, "pitch": 70, "duration": 6, "velocity": 93}, {"time": 462, "pitch": 72, "duration": 18, "velocity": 92}, {"time": 804, "pitch": 51, "duration": 4, "velocity": 90}, {"time": 810, "pitch": 53, "duration": 4, "velocity": 93}, {"time": 816, "pitch": 56, "duration": 3, "velocity": 100}, {"time": 822, "pitch": 58, "duration": 6, "velocity": 117}, {"time": 831, "pitch": 60, "duration": 10, "velocity": 99}, {"time": 840, "pitch": 63, "duration": 6, "velocity": 102}, {"time": 846, "pitch": 60, "duration": 7, "velocity": 95}, {"time": 2004, "pitch": 51, "duration": 4, "velocity": 89}, {"time": 2010, "pitch": 53, "duration": 5, "velocity": 77}, {"time": 2016, "pitch": 56, "duration": 5, "velocity": 77}, {"time": 2022, "pitch": 60, "duration": 9, "velocity": 86}, {"time": 2031, "pitch": 58, "duration": 10, "velocity": 96}, {"time": 2040, "pitch": 56, "duration": 7, "velocity": 88}, {"time": 2046, "pitch": 58, "duration": 18, "velocity": 93}, {"time": 2070, "pitch": 65, "duration": 11, "velocity": 88}, {"time": 2082, "pitch": 68, "duration": 12, "velocity": 93}, {"time": 2094, "pitch": 70, "duration": 47, "velocity": 90}, {"time": 2166, "pitch": 80, "duration": 5, "velocity": 102}, {"time": 2172, "pitch": 79, "duration": 5, "velocity": 85}, {"time": 2178, "pitch": 77, "duration": 6, "velocity": 88}, {"time": 2184, "pitch": 75, "duration": 6, "velocity": 95}, {"time": 2190, "pitch": 72, "duration": 17, "velocity": 90}, {"time": 2196, "pitch": 51, "duration": 5, "velocity": 82}, {"time": 2202, "pitch": 53, "duration": 6, "velocity": 85}, {"time": 2208, "pitch": 56, "duration": 7, "velocity": 70}, {"time": 2214, "pitch": 60, "duration": 7, "velocity": 89}, {"time": 2226, "pitch": 58, "duration": 8, "velocity": 107}, {"time": 2232, "pitch": 56, "duration": 7, "velocity": 86}, {"time": 2238, "pitch": 58, "duration": 19, "velocity": 90}, {"time": 2262, "pitch": 65, "duration": 12, "velocity": 97}, {"time": 2274, "pitch": 68, "duration": 13, "velocity": 85}, {"time": 2286, "pitch": 70, "duration": 45, "velocity": 97}, {"time": 2388, "pitch": 72, "duration": 6, "velocity": 93}, {"time": 2394, "pitch": 75, "duration": 7, "velocity": 102}, {"time": 2400, "pitch": 72, "duration": 5, "velocity": 88}, {"time": 2406, "pitch": 77, "duration": 9, "velocity": 100}, {"time": 2415, "pitch": 75, "duration": 9, "velocity": 97}, {"time": 2424, "pitch": 72, "duration": 7, "velocity": 96}, {"time": 2430, "pitch": 70, "duration": 35, "velocity": 112}, {"time": 2436, "pitch": 60, "duration": 3, "velocity": 95}, {"time": 2442, "pitch": 63, "duration": 4, "velocity": 102}, {"time": 2448, "pitch": 60, "duration": 4, "velocity": 85}, {"time": 2454, "pitch": 65, "duration": 6, "velocity": 93}, {"time": 2463, "pitch": 63, "duration": 7, "velocity": 102}, {"time": 2472, "pitch": 60, "duration": 7, "velocity": 93}, {"time": 2478, "pitch": 58, "duration": 44, "velocity": 95}, {"time": 2484, "pitch": 70, "duration": 6, "velocity": 97}, {"time": 2490, "pitch": 72, "duration": 5, "velocity": 97}, {"time": 2496, "pitch": 75, "duration": 4, "velocity": 107}, {"time": 2502, "pitch": 77, "duration": 7, "velocity": 100}, {"time": 2511, "pitch": 75, "duration": 6, "velocity": 100}, {"time": 2520, "pitch": 77, "duration": 6, "velocity": 97}, {"time": 2526, "pitch": 72, "duration": 44, "velocity": 100}, {"time": 2532, "pitch": 58, "duration": 4, "velocity": 97}, {"time": 2538, "pitch": 60, "duration": 4, "velocity": 92}, {"time": 2544, "pitch": 63, "duration": 3, "velocity": 107}, {"time": 2550, "pitch": 65, "duration": 6, "velocity": 100}, {"time": 2559, "pitch": 63, "duration": 5, "velocity": 107}, {"time": 2568, "pitch": 65, "duration": 3, "velocity": 97}, {"time": 2574, "pitch": 60, "duration": 30, "velocity": 97}, {"time": 2580, "pitch": 72, "duration": 6, "velocity": 100}, {"time": 2586, "pitch": 75, "duration": 6, "velocity": 100}, {"time": 2592, "pitch": 72, "duration": 6, "velocity": 100}, {"time": 2598, "pitch": 77, "duration": 7, "velocity": 112}, {"time": 2604, "pitch": 75, "duration": 9, "velocity": 95}, {"time": 2613, "pitch": 72, "duration": 8, "velocity": 99}, {"time": 2622, "pitch": 70, "duration": 36, "velocity": 96}, {"time": 2628, "pitch": 60, "duration": 5, "velocity": 96}, {"time": 2634, "pitch": 63, "duration": 4, "velocity": 99}, {"time": 2640, "pitch": 60, "duration": 3, "velocity": 96}, {"time": 2646, "pitch": 65, "duration": 6, "velocity": 107}, {"time": 2655, "pitch": 63, "duration": 7, "velocity": 112}, {"time": 2664, "pitch": 60, "duration": 6, "velocity": 96}, {"time": 2670, "pitch": 58, "duration": 30, "velocity": 99}, {"time": 2676, "pitch": 77, "duration": 4, "velocity": 117}, {"time": 2682, "pitch": 75, "duration": 6, "velocity": 107}, {"time": 2688, "pitch": 72, "duration": 6, "velocity": 92}, {"time": 2694, "pitch": 70, "duration": 8, "velocity": 107}, {"time": 2700, "pitch": 68, "duration": 10, "velocity": 95}, {"time": 2712, "pitch": 70, "duration": 7, "velocity": 93}, {"time": 2718, "pitch": 65, "duration": 22, "velocity": 90}, {"time": 2724, "pitch": 68, "duration": 4, "velocity": 127}, {"time": 2730, "pitch": 67, "duration": 5, "velocity": 107}, {"time": 2736, "pitch": 65, "duration": 4, "velocity": 99}, {"time": 2742, "pitch": 63, "duration": 4, "velocity": 107}, {"time": 2748, "pitch": 60, "duration": 5, "velocity": 93}, {"time": 2754, "pitch": 58, "duration": 6, "velocity": 99}, {"time": 2760, "pitch": 56, "duration": 6, "velocity": 73}, {"time": 2766, "pitch": 53, "duration": 12, "velocity": 93}, {"time": 3108, "pitch": 51, "duration": 4, "velocity": 90}, {"time": 3114, "pitch": 53, "duration": 4, "velocity": 93}, {"time": 3120, "pitch": 56, "duration": 3, "velocity": 100}, {"time": 3126, "pitch": 58, "duration": 6, "velocity": 117}, {"time": 3135, "pitch": 60, "duration": 10, "velocity": 99}, {"time": 3144, "pitch": 63, "duration": 6, "velocity": 102}, {"time": 3150, "pitch": 60, "duration": 7, "velocity": 95}, {"time": 5076, "pitch": 51, "duration": 4, "velocity": 89}, {"time": 5082, "pitch": 53, "duration": 5, "velocity": 77}, {"time": 5088, "pitch": 56, "duration": 5, "velocity": 77}, {"time": 5094, "pitch": 60, "duration": 9, "velocity": 86}, {"time": 5103, "pitch": 58, "duration": 10, "velocity": 96}, {"time": 5112, "pitch": 56, "duration": 7, "velocity": 88}, {"time": 5118, "pitch": 58, "duration": 18, "velocity": 93}, {"time": 5142, "pitch": 65, "duration": 11, "velocity": 88}, {"time": 5154, "pitch": 68, "duration": 12, "velocity": 93}, {"time": 5166, "pitch": 70, "duration": 47, "velocity": 90}, {"time": 5238, "pitch": 80, "duration": 5, "velocity": 102}, {"time": 5244, "pitch": 79, "duration": 5, "velocity": 85}, {"time": 5250, "pitch": 77, "duration": 6, "velocity": 88}, {"time": 5256, "pitch": 75, "duration": 6, "velocity": 95}, {"time": 5262, "pitch": 72, "duration": 17, "velocity": 90}, {"time": 5268, "pitch": 51, "duration": 5, "velocity": 82}, {"time": 5274, "pitch": 53, "duration": 6, "velocity": 85}, {"time": 5280, "pitch": 56, "duration": 7, "velocity": 70}, {"time": 5286, "pitch": 60, "duration": 7, "velocity": 89}, {"time": 5295, "pitch": 58, "duration": 8, "velocity": 107}, {"time": 5304, "pitch": 56, "duration": 7, "velocity": 86}, {"time": 5310, "pitch": 58, "duration": 19, "velocity": 90}, {"time": 5334, "pitch": 77, "duration": 4, "velocity": 86}, {"time": 5340, "pitch": 75, "duration": 13, "velocity": 88}, {"time": 5352, "pitch": 77, "duration": 4, "velocity": 76}, {"time": 5358, "pitch": 70, "duration": 26, "velocity": 83}, {"time": 5412, "pitch": 63, "duration": 5, "velocity": 95}, {"time": 5418, "pitch": 65, "duration": 5, "velocity": 76}, {"time": 5424, "pitch": 68, "duration": 7, "velocity": 77}, {"time": 5430, "pitch": 70, "duration": 8, "velocity": 77}, {"time": 5436, "pitch": 68, "duration": 6, "velocity": 95}, {"time": 5442, "pitch": 65, "duration": 6, "velocity": 90}, {"time": 5448, "pitch": 63, "duration": 7, "velocity": 63}, {"time": 5454, "pitch": 65, "duration": 18, "velocity": 86}, {"time": 5460, "pitch": 60, "duration": 5, "velocity": 100}, {"time": 5466, "pitch": 63, "duration": 5, "velocity": 117}, {"time": 5472, "pitch": 60, "duration": 3, "velocity": 95}, {"time": 5478, "pitch": 65, "duration": 5, "velocity": 107}, {"time": 5487, "pitch": 63, "duration": 5, "velocity": 112}, {"time": 5496, "pitch": 60, "duration": 4, "velocity": 102}, {"time": 5502, "pitch": 58, "duration": 34, "velocity": 122}, {"time": 5508, "pitch": 72, "duration": 4, "velocity": 86}, {"time": 5514, "pitch": 75, "duration": 6, "velocity": 112}, {"time": 5520, "pitch": 72, "duration": 3, "velocity": 88}, {"time": 5526, "pitch": 77, "duration": 4, "velocity": 97}, {"time": 5532, "pitch": 75, "duration": 11, "velocity": 100}, {"time": 5544, "pitch": 72, "duration": 6, "velocity": 97}, {"time": 5550, "pitch": 70, "duration": 21, "velocity": 97}, {"time": 5556, "pitch": 58, "duration": 3, "velocity": 117}, {"time": 5562, "pitch": 60, "duration": 2, "velocity": 100}, {"time": 5568, "pitch": 63, "duration": 2, "velocity": 107}, {"time": 5574, "pitch": 65, "duration": 5, "velocity": 107}, {"time": 5583, "pitch": 63, "duration": 6, "velocity": 127}, {"time": 5592, "pitch": 65, "duration": 3, "velocity": 100}, {"time": 5598, "pitch": 60, "duration": 23, "velocity": 102}, {"time": 5604, "pitch": 70, "duration": 4, "velocity": 99}, {"time": 5610, "pitch": 72, "duration": 4, "velocity": 92}, {"time": 5616, "pitch": 75, "duration": 2, "velocity": 97}, {"time": 5622, "pitch": 77, "duration": 7, "velocity": 96}, {"time": 5628, "pitch": 79, "duration": 5, "velocity": 96}, {"time": 5634, "pitch": 77, "duration": 5, "velocity": 95}, {"time": 5640, "pitch": 75, "duration": 6, "velocity": 93}, {"time": 5646, "pitch": 72, "duration": 26, "velocity": 100}, {"time": 5652, "pitch": 60, "duration": 5, "velocity": 66}, {"time": 5658, "pitch": 63, "duration": 6, "velocity": 112}, {"time": 5664, "pitch": 60, "duration": 3, "velocity": 95}, {"time": 5670, "pitch": 65, "duration": 5, "velocity": 107}, {"time": 5679, "pitch": 63, "duration": 4, "velocity": 127}, {"time": 5688, "pitch": 60, "duration": 4, "velocity": 102}, {"time": 5694, "pitch": 58, "duration": 8, "velocity": 107}, {"time": 5700, "pitch": 75, "duration": 5, "velocity": 100}, {"time": 5706, "pitch": 77, "duration": 3, "velocity": 96}, {"time": 5712, "pitch": 80, "duration": 5, "velocity": 122}, {"time": 5718, "pitch": 82, "duration": 6, "velocity": 95}, {"time": 5724, "pitch": 84, "duration": 7, "velocity": 85}, {"time": 5730, "pitch": 82, "duration": 6, "velocity": 107}, {"time": 5736, "pitch": 80, "duration": 7, "velocity": 100}, {"time": 5742, "pitch": 82, "duration": 41, "velocity": 122}, {"time": 5748, "pitch": 65, "duration": 4, "velocity": 107}, {"time": 5754, "pitch": 63, "duration": 3, "velocity": 127}, {"time": 5760, "pitch": 60, "duration": 3, "velocity": 97}, {"time": 5766, "pitch": 58, "duration": 4, "velocity": 107}, {"time": 5775, "pitch": 56, "duration": 7, "velocity": 112}, {"time": 5784, "pitch": 58, "duration": 4, "velocity": 117}, {"time": 5814, "pitch": 53, "duration": 106, "velocity": 112}, {"time": 5836, "pitch": 80, "duration": 14, "velocity": 99}, {"time": 5847, "pitch": 79, "duration": 12, "velocity": 96}, {"time": 5859, "pitch": 77, "duration": 12, "velocity": 99}, {"time": 5869, "pitch": 75, "duration": 19, "velocity": 96}, {"time": 5892, "pitch": 72, "duration": 89, "velocity": 85}]}, {"program": 0, "is_drum": false, "name": "PIANO", "notes": [{"time": 126, "pitch": 46, "duration": 23, "velocity": 97}, {"time": 132, "pitch": 53, "duration": 17, "velocity": 61}, {"time": 138, "pitch": 58, "duration": 8, "velocity": 100}, {"time": 138, "pitch": 61, "duration": 8, "velocity": 95}, {"time": 138, "pitch": 65, "duration": 7, "velocity": 62}, {"time": 147, "pitch": 58, "duration": 7, "velocity": 79}, {"time": 147, "pitch": 61, "duration": 7, "velocity": 68}, {"time": 147, "pitch": 65, "duration": 5, "velocity": 50}, {"time": 150, "pitch": 46, "duration": 2, "velocity": 73}, {"time": 156, "pitch": 46, "duration": 7, "velocity": 93}, {"time": 162, "pitch": 61, "duration": 12, "velocity": 86}, {"time": 162, "pitch": 65, "duration": 11, "velocity": 76}, {"time": 168, "pitch": 58, "duration": 6, "velocity": 79}, {"time": 174, "pitch": 39, "duration": 21, "velocity": 96}, {"time": 180, "pitch": 46, "duration": 16, "velocity": 47}, {"time": 186, "pitch": 55, "duration": 4, "velocity": 66}, {"time": 186, "pitch": 58, "duration": 19, "velocity": 96}, {"time": 186, "pitch": 63, "duration": 20, "velocity": 93}, {"time": 195, "pitch": 55, "duration": 3, "velocity": 83}, {"time": 198, "pitch": 39, "duration": 2, "velocity": 85}, {"time": 204, "pitch": 39, "duration": 9, "velocity": 82}, {"time": 210, "pitch": 58, "duration": 11, "velocity": 112}, {"time": 210, "pitch": 63, "duration": 12, "velocity": 100}, {"time": 216, "pitch": 55, "duration": 5, "velocity": 92}, {"time": 222, "pitch": 44, "duration": 22, "velocity": 97}, {"time": 228, "pitch": 56, "duration": 17, "velocity": 89}, {"time": 234, "pitch": 60, "duration": 5, "velocity": 74}, {"time": 234, "pitch": 63, "duration": 36, "velocity": 96}, {"time": 234, "pitch": 68, "duration": 36, "velocity": 90}, {"time": 243, "pitch": 60, "duration": 5, "velocity": 88}, {"time": 246, "pitch": 44, "duration": 2, "velocity": 107}, {"time": 252, "pitch": 44, "duration": 13, "velocity": 97}, {"time": 258, "pitch": 56, "duration": 6, "velocity": 112}, {"time": 264, "pitch": 60, "duration": 7, "velocity": 102}, {"time": 270, "pitch": 41, "duration": 22, "velocity": 78}, {"time": 276, "pitch": 48, "duration": 17, "velocity": 48}, {"time": 282, "pitch": 56, "duration": 17, "velocity": 97}, {"time": 282, "pitch": 60, "duration": 16, "velocity": 85}, {"time": 291, "pitch": 53, "duration": 3, "velocity": 90}, {"time": 294, "pitch": 41, "duration": 2, "velocity": 75}, {"time": 300, "pitch": 41, "duration": 7, "velocity": 88}, {"time": 306, "pitch": 56, "duration": 10, "velocity": 107}, {"time": 306, "pitch": 60, "duration": 10, "velocity": 93}, {"time": 312, "pitch": 53, "duration": 5, "velocity": 86}, {"time": 318, "pitch": 46, "duration": 22, "velocity": 77}, {"time": 330, "pitch": 58, "duration": 13, "velocity": 97}, {"time": 330, "pitch": 61, "duration": 14, "velocity": 72}, {"time": 330, "pitch": 65, "duration": 15, "velocity": 67}, {"time": 339, "pitch": 53, "duration": 3, "velocity": 70}, {"time": 342, "pitch": 46, "duration": 3, "velocity": 93}, {"time": 348, "pitch": 46, "duration": 7, "velocity": 86}, {"time": 354, "pitch": 58, "duration": 3, "velocity": 76}, {"time": 354, "pitch": 61, "duration": 11, "velocity": 86}, {"time": 354, "pitch": 65, "duration": 11, "velocity": 59}, {"time": 360, "pitch": 58, "duration": 6, "velocity": 88}, {"time": 366, "pitch": 39, "duration": 21, "velocity": 96}, {"time": 372, "pitch": 51, "duration": 16, "velocity": 72}, {"time": 378, "pitch": 55, "duration": 6, "velocity": 79}, {"time": 378, "pitch": 58, "duration": 12, "velocity": 93}, {"time": 378, "pitch": 63, "duration": 12, "velocity": 83}, {"time": 387, "pitch": 55, "duration": 3, "velocity": 78}, {"time": 390, "pitch": 39, "duration": 2, "velocity": 97}, {"time": 396, "pitch": 39, "duration": 7, "velocity": 92}, {"time": 402, "pitch": 58, "duration": 11, "velocity": 102}, {"time": 402, "pitch": 63, "duration": 10, "velocity": 100}, {"time": 408, "pitch": 55, "duration": 5, "velocity": 93}, {"time": 414, "pitch": 41, "duration": 22, "velocity": 88}, {"time": 420, "pitch": 48, "duration": 16, "velocity": 56}, {"time": 426, "pitch": 56, "duration": 16, "velocity": 99}, {"time": 426, "pitch": 60, "duration": 18, "velocity": 89}, {"time": 435, "pitch": 53, "duration": 3, "velocity": 77}, {"time": 438, "pitch": 41, "duration": 2, "velocity": 82}, {"time": 444, "pitch": 41, "duration": 15, "velocity": 85}, {"time": 450, "pitch": 56, "duration": 9, "velocity": 107}, {"time": 450, "pitch": 60, "duration": 10, "velocity": 93}, {"time": 456, "pitch": 53, "duration": 5, "velocity": 72}, {"time": 462, "pitch": 41, "duration": 7, "velocity": 90}, {"time": 462, "pitch": 53, "duration": 8, "velocity": 90}, {"time": 462, "pitch": 56, "duration": 7, "velocity": 100}, {"time": 462, "pitch": 60, "duration": 8, "velocity": 82}, {"time": 510, "pitch": 46, "duration": 23, "velocity": 88}, {"time": 516, "pitch": 58, "duration": 7, "velocity": 78}, {"time": 522, "pitch": 65, "duration": 16, "velocity": 55}, {"time": 531, "pitch": 61, "duration": 7, "velocity": 66}, {"time": 534, "pitch": 46, "duration": 2, "velocity": 72}, {"time": 540, "pitch": 46, "duration": 16, "velocity": 95}, {"time": 546, "pitch": 65, "duration": 12, "velocity": 69}, {"time": 552, "pitch": 58, "duration": 6, "velocity": 81}, {"time": 558, "pitch": 48, "duration": 22, "velocity": 88}, {"time": 564, "pitch": 55, "duration": 21, "velocity": 45}, {"time": 570, "pitch": 63, "duration": 20, "velocity": 100}, {"time": 579, "pitch": 60, "duration": 10, "velocity": 85}, {"time": 582, "pitch": 48, "duration": 2, "velocity": 85}, {"time": 588, "pitch": 48, "duration": 17, "velocity": 95}, {"time": 594, "pitch": 60, "duration": 11, "velocity": 95}, {"time": 594, "pitch": 63, "duration": 11, "velocity": 107}, {"time": 600, "pitch": 55, "duration": 6, "velocity": 77}, {"time": 606, "pitch": 41, "duration": 21, "velocity": 72}, {"time": 612, "pitch": 48, "duration": 18, "velocity": 63}, {"time": 618, "pitch": 56, "duration": 18, "velocity": 89}, {"time": 618, "pitch": 60, "duration": 19, "velocity": 88}, {"time": 627, "pitch": 53, "duration": 5, "velocity": 86}, {"time": 630, "pitch": 41, "duration": 2, "velocity": 81}, {"time": 636, "pitch": 41, "duration": 7, "velocity": 92}, {"time": 642, "pitch": 56, "duration": 11, "velocity": 96}, {"time": 642, "pitch": 60, "duration": 11, "velocity": 82}, {"time": 648, "pitch": 53, "duration": 5, "velocity": 77}, {"time": 654, "pitch": 44, "duration": 21, "velocity": 97}, {"time": 660, "pitch": 51, "duration": 15, "velocity": 63}, {"time": 666, "pitch": 60, "duration": 11, "velocity": 75}, {"time": 666, "pitch": 63, "duration": 13, "velocity": 93}, {"time": 675, "pitch": 56, "duration": 4, "velocity": 95}, {"time": 678, "pitch": 44, "duration": 2, "velocity": 90}, {"time": 684, "pitch": 44, "duration": 15, "velocity": 93}, {"time": 690, "pitch": 60, "duration": 12, "velocity": 95}, {"time": 690, "pitch": 63, "duration": 13, "velocity": 93}, {"time": 696, "pitch": 56, "duration": 6, "velocity": 72}, {"time": 702, "pitch": 48, "duration": 22, "velocity": 81}, {"time": 708, "pitch": 55, "duration": 7, "velocity": 40}, {"time": 714, "pitch": 60, "duration": 12, "velocity": 88}, {"time": 714, "pitch": 63, "duration": 12, "velocity": 93}, {"time": 723, "pitch": 55, "duration": 4, "velocity": 83}, {"time": 726, "pitch": 48, "duration": 2, "velocity": 82}, {"time": 732, "pitch": 48, "duration": 8, "velocity": 88}, {"time": 738, "pitch": 60, "duration": 10, "velocity": 90}, {"time": 738, "pitch": 63, "duration": 10, "velocity": 97}, {"time": 744, "pitch": 55, "duration": 4, "velocity": 85}, {"time": 750, "pitch": 46, "duration": 12, "velocity": 89}, {"time": 756, "pitch": 58, "duration": 7, "velocity": 78}, {"time": 762, "pitch": 61, "duration": 11, "velocity": 69}, {"time": 762, "pitch": 65, "duration": 10, "velocity": 68}, {"time": 771, "pitch": 58, "duration": 3, "velocity": 92}, {"time": 774, "pitch": 39, "duration": 3, "velocity": 96}, {"time": 780, "pitch": 39, "duration": 7, "velocity": 63}, {"time": 786, "pitch": 55, "duration": 10, "velocity": 76}, {"time": 786, "pitch": 58, "duration": 11, "velocity": 83}, {"time": 792, "pitch": 51, "duration": 4, "velocity": 72}, {"time": 798, "pitch": 41, "duration": 18, "velocity": 72}, {"time": 804, "pitch": 48, "duration": 16, "velocity": 47}, {"time": 810, "pitch": 56, "duration": 12, "velocity": 83}, {"time": 810, "pitch": 60, "duration": 13, "velocity": 73}, {"time": 819, "pitch": 53, "duration": 3, "velocity": 89}, {"time": 822, "pitch": 41, "duration": 2, "velocity": 79}, {"time": 828, "pitch": 41, "duration": 16, "velocity": 81}, {"time": 834, "pitch": 60, "duration": 11, "velocity": 95}, {"time": 840, "pitch": 56, "duration": 12, "velocity": 90}, {"time": 846, "pitch": 41, "duration": 7, "velocity": 88}, {"time": 846, "pitch": 53, "duration": 5, "velocity": 99}, {"time": 846, "pitch": 60, "duration": 6, "velocity": 76}, {"time": 894, "pitch": 46, "duration": 22, "velocity": 90}, {"time": 906, "pitch": 61, "duration": 17, "velocity": 74}, {"time": 906, "pitch": 65, "duration": 16, "velocity": 71}, {"time": 915, "pitch": 58, "duration": 8, "velocity": 90}, {"time": 918, "pitch": 46, "duration": 2, "velocity": 83}, {"time": 924, "pitch": 46, "duration": 16, "velocity": 96}, {"time": 930, "pitch": 61, "duration": 12, "velocity": 64}, {"time": 930, "pitch": 65, "duration": 11, "velocity": 59}, {"time": 936, "pitch": 58, "duration": 6, "velocity": 88}, {"time": 942, "pitch": 48, "duration": 22, "velocity": 72}, {"time": 948, "pitch": 55, "duration": 7, "velocity": 82}, {"time": 954, "pitch": 60, "duration": 12, "velocity": 78}, {"time": 954, "pitch": 63, "duration": 12, "velocity": 83}, {"time": 963, "pitch": 55, "duration": 4, "velocity": 81}, {"time": 966, "pitch": 48, "duration": 2, "velocity": 76}, {"time": 972, "pitch": 48, "duration": 11, "velocity": 89}, {"time": 978, "pitch": 60, "duration": 12, "velocity": 76}, {"time": 978, "pitch": 63, "duration": 11, "velocity": 76}, {"time": 984, "pitch": 55, "duration": 7, "velocity": 79}, {"time": 990, "pitch": 41, "duration": 20, "velocity": 77}, {"time": 996, "pitch": 48, "duration": 17, "velocity": 69}, {"time": 1002, "pitch": 56, "duration": 16, "velocity": 93}, {"time": 1002, "pitch": 60, "duration": 16, "velocity": 78}, {"time": 1011, "pitch": 53, "duration": 6, "velocity": 83}, {"time": 1014, "pitch": 41, "duration": 2, "velocity": 81}, {"time": 1020, "pitch": 41, "duration": 12, "velocity": 85}, {"time": 1026, "pitch": 56, "duration": 6, "velocity": 107}, {"time": 1026, "pitch": 60, "duration": 11, "velocity": 93}, {"time": 1032, "pitch": 53, "duration": 4, "velocity": 97}, {"time": 1035, "pitch": 56, "duration": 2, "velocity": 83}, {"time": 1038, "pitch": 44, "duration": 22, "velocity": 89}, {"time": 1044, "pitch": 56, "duration": 6, "velocity": 89}, {"time": 1050, "pitch": 60, "duration": 11, "velocity": 66}, {"time": 1050, "pitch": 63, "duration": 13, "velocity": 73}, {"time": 1059, "pitch": 56, "duration": 5, "velocity": 95}, {"time": 1062, "pitch": 44, "duration": 2, "velocity": 89}, {"time": 1068, "pitch": 44, "duration": 16, "velocity": 88}, {"time": 1074, "pitch": 60, "duration": 11, "velocity": 86}, {"time": 1074, "pitch": 63, "duration": 11, "velocity": 90}, {"time": 1080, "pitch": 56, "duration": 5, "velocity": 77}, {"time": 1086, "pitch": 48, "duration": 22, "velocity": 79}, {"time": 1092, "pitch": 55, "duration": 8, "velocity": 68}, {"time": 1098, "pitch": 60, "duration": 11, "velocity": 90}, {"time": 1098, "pitch": 63, "duration": 11, "velocity": 92}, {"time": 1107, "pitch": 55, "duration": 3, "velocity": 81}, {"time": 1110, "pitch": 48, "duration": 2, "velocity": 73}, {"time": 1116, "pitch": 48, "duration": 13, "velocity": 83}, {"time": 1122, "pitch": 60, "duration": 11, "velocity": 82}, {"time": 1122, "pitch": 63, "duration": 11, "velocity": 89}, {"time": 1128, "pitch": 55, "duration": 6, "velocity": 69}, {"time": 1134, "pitch": 46, "duration": 17, "velocity": 97}, {"time": 1140, "pitch": 58, "duration": 7, "velocity": 88}, {"time": 1146, "pitch": 61, "duration": 10, "velocity": 70}, {"time": 1146, "pitch": 65, "duration": 10, "velocity": 65}, {"time": 1155, "pitch": 58, "duration": 3, "velocity": 64}, {"time": 1158, "pitch": 39, "duration": 3, "velocity": 92}, {"time": 1164, "pitch": 39, "duration": 8, "velocity": 88}, {"time": 1170, "pitch": 55, "duration": 10, "velocity": 82}, {"time": 1170, "pitch": 58, "duration": 12, "velocity": 88}, {"time": 1176, "pitch": 51, "duration": 5, "velocity": 62}, {"time": 1182, "pitch": 41, "duration": 21, "velocity": 82}, {"time": 1188, "pitch": 53, "duration": 6, "velocity": 74}, {"time": 1194, "pitch": 56, "duration": 11, "velocity": 93}, {"time": 1194, "pitch": 60, "duration": 13, "velocity": 90}, {"time": 1203, "pitch": 53, "duration": 4, "velocity": 88}, {"time": 1206, "pitch": 41, "duration": 3, "velocity": 92}, {"time": 1212, "pitch": 41, "duration": 15, "velocity": 97}, {"time": 1218, "pitch": 56, "duration": 11, "velocity": 115}, {"time": 1218, "pitch": 60, "duration": 11, "velocity": 115}, {"time": 1224, "pitch": 53, "duration": 5, "velocity": 115}, {"time": 1230, "pitch": 41, "duration": 21, "velocity": 115}, {"time": 1236, "pitch": 48, "duration": 17, "velocity": 107}, {"time": 1242, "pitch": 53, "duration": 10, "velocity": 96}, {"time": 1242, "pitch": 65, "duration": 20, "velocity": 100}, {"time": 1242, "pitch": 68, "duration": 20, "velocity": 122}, {"time": 1251, "pitch": 60, "duration": 10, "velocity": 112}, {"time": 1254, "pitch": 41, "duration": 3, "velocity": 96}, {"time": 1260, "pitch": 41, "duration": 6, "velocity": 96}, {"time": 1266, "pitch": 65, "duration": 4, "velocity": 112}, {"time": 1266, "pitch": 68, "duration": 4, "velocity": 127}, {"time": 1269, "pitch": 41, "duration": 6, "velocity": 99}, {"time": 1272, "pitch": 60, "duration": 8, "velocity": 97}, {"time": 1272, "pitch": 65, "duration": 1, "velocity": 55}, {"time": 1272, "pitch": 68, "duration": 1, "velocity": 66}, {"time": 1278, "pitch": 41, "duration": 22, "velocity": 127}, {"time": 1284, "pitch": 60, "duration": 7, "velocity": 93}, {"time": 1290, "pitch": 65, "duration": 7, "velocity": 102}, {"time": 1290, "pitch": 68, "duration": 7, "velocity": 127}, {"time": 1299, "pitch": 60, "duration": 6, "velocity": 99}, {"time": 1299, "pitch": 65, "duration": 7, "velocity": 100}, {"time": 1299, "pitch": 68, "duration": 7, "velocity": 112}, {"time": 1302, "pitch": 41, "duration": 2, "velocity": 97}, {"time": 1308, "pitch": 41, "duration": 7, "velocity": 99}, {"time": 1314, "pitch": 65, "duration": 4, "velocity": 117}, {"time": 1314, "pitch": 68, "duration": 13, "velocity": 127}, {"time": 1317, "pitch": 48, "duration": 5, "velocity": 93}, {"time": 1320, "pitch": 60, "duration": 5, "velocity": 112}, {"time": 1323, "pitch": 65, "duration": 3, "velocity": 65}, {"time": 1326, "pitch": 49, "duration": 22, "velocity": 99}, {"time": 1332, "pitch": 61, "duration": 4, "velocity": 93}, {"time": 1338, "pitch": 65, "duration": 6, "velocity": 107}, {"time": 1338, "pitch": 68, "duration": 7, "velocity": 102}, {"time": 1347, "pitch": 61, "duration": 3, "velocity": 122}, {"time": 1347, "pitch": 68, "duration": 1, "velocity": 33}, {"time": 1350, "pitch": 49, "duration": 2, "velocity": 97}, {"time": 1356, "pitch": 49, "duration": 17, "velocity": 102}, {"time": 1362, "pitch": 65, "duration": 7, "velocity": 112}, {"time": 1362, "pitch": 68, "duration": 8, "velocity": 112}, {"time": 1368, "pitch": 61, "duration": 4, "velocity": 102}, {"time": 1374, "pitch": 46, "duration": 6, "velocity": 102}, {"time": 1386, "pitch": 39, "duration": 9, "velocity": 112}, {"time": 1386, "pitch": 51, "duration": 6, "velocity": 96}, {"time": 1386, "pitch": 55, "duration": 5, "velocity": 86}, {"time": 1386, "pitch": 58, "duration": 7, "velocity": 86}, {"time": 1398, "pitch": 44, "duration": 13, "velocity": 93}, {"time": 1404, "pitch": 56, "duration": 4, "velocity": 107}, {"time": 1410, "pitch": 60, "duration": 4, "velocity": 96}, {"time": 1410, "pitch": 63, "duration": 4, "velocity": 107}, {"time": 1413, "pitch": 44, "duration": 8, "velocity": 93}, {"time": 1416, "pitch": 56, "duration": 4, "velocity": 97}, {"time": 1419, "pitch": 60, "duration": 3, "velocity": 69}, {"time": 1419, "pitch": 63, "duration": 2, "velocity": 23}, {"time": 1422, "pitch": 46, "duration": 22, "velocity": 102}, {"time": 1428, "pitch": 53, "duration": 7, "velocity": 68}, {"time": 1434, "pitch": 58, "duration": 11, "velocity": 95}, {"time": 1434, "pitch": 61, "duration": 11, "velocity": 100}, {"time": 1443, "pitch": 53, "duration": 12, "velocity": 100}, {"time": 1446, "pitch": 46, "duration": 3, "velocity": 111}, {"time": 1452, "pitch": 46, "duration": 6, "velocity": 110}, {"time": 1458, "pitch": 58, "duration": 6, "velocity": 109}, {"time": 1458, "pitch": 61, "duration": 11, "velocity": 109}, {"time": 1461, "pitch": 46, "duration": 2, "velocity": 109}, {"time": 1464, "pitch": 53, "duration": 4, "velocity": 109}, {"time": 1467, "pitch": 58, "duration": 3, "velocity": 111}, {"time": 1470, "pitch": 39, "duration": 20, "velocity": 117}, {"time": 1476, "pitch": 51, "duration": 7, "velocity": 99}, {"time": 1482, "pitch": 55, "duration": 6, "velocity": 83}, {"time": 1482, "pitch": 58, "duration": 7, "velocity": 117}, {"time": 1482, "pitch": 63, "duration": 6, "velocity": 100}, {"time": 1485, "pitch": 51, "duration": 3, "velocity": 28}, {"time": 1491, "pitch": 55, "duration": 3, "velocity": 86}, {"time": 1491, "pitch": 58, "duration": 2, "velocity": 107}, {"time": 1491, "pitch": 63, "duration": 3, "velocity": 99}, {"time": 1494, "pitch": 39, "duration": 1, "velocity": 77}, {"time": 1494, "pitch": 51, "duration": 2, "velocity": 79}, {"time": 1500, "pitch": 39, "duration": 9, "velocity": 92}, {"time": 1500, "pitch": 51, "duration": 8, "velocity": 90}, {"time": 1506, "pitch": 58, "duration": 9, "velocity": 112}, {"time": 1506, "pitch": 63, "duration": 10, "velocity": 112}, {"time": 1512, "pitch": 55, "duration": 5, "velocity": 93}, {"time": 1518, "pitch": 37, "duration": 22, "velocity": 90}, {"time": 1524, "pitch": 49, "duration": 4, "velocity": 83}, {"time": 1530, "pitch": 53, "duration": 6, "velocity": 93}, {"time": 1530, "pitch": 56, "duration": 6, "velocity": 95}, {"time": 1539, "pitch": 49, "duration": 2, "velocity": 99}, {"time": 1539, "pitch": 56, "duration": 1, "velocity": 38}, {"time": 1542, "pitch": 39, "duration": 2, "velocity": 89}, {"time": 1548, "pitch": 39, "duration": 8, "velocity": 102}, {"time": 1554, "pitch": 55, "duration": 11, "velocity": 112}, {"time": 1554, "pitch": 58, "duration": 11, "velocity": 100}, {"time": 1560, "pitch": 51, "duration": 5, "velocity": 88}, {"time": 1566, "pitch": 48, "duration": 22, "velocity": 97}, {"time": 1572, "pitch": 55, "duration": 5, "velocity": 66}, {"time": 1578, "pitch": 60, "duration": 10, "velocity": 99}, {"time": 1578, "pitch": 63, "duration": 10, "velocity": 107}, {"time": 1587, "pitch": 55, "duration": 4, "velocity": 86}, {"time": 1590, "pitch": 41, "duration": 2, "velocity": 86}, {"time": 1596, "pitch": 41, "duration": 15, "velocity": 85}, {"time": 1602, "pitch": 56, "duration": 11, "velocity": 112}, {"time": 1602, "pitch": 60, "duration": 13, "velocity": 92}, {"time": 1608, "pitch": 53, "duration": 5, "velocity": 90}, {"time": 1614, "pitch": 41, "duration": 21, "velocity": 89}, {"time": 1620, "pitch": 48, "duration": 16, "velocity": 72}, {"time": 1626, "pitch": 56, "duration": 12, "velocity": 102}, {"time": 1626, "pitch": 60, "duration": 12, "velocity": 90}, {"time": 1635, "pitch": 53, "duration": 3, "velocity": 97}, {"time": 1638, "pitch": 41, "duration": 2, "velocity": 88}, {"time": 1644, "pitch": 41, "duration": 5, "velocity": 96}, {"time": 1650, "pitch": 56, "duration": 3, "velocity": 122}, {"time": 1650, "pitch": 60, "duration": 2, "velocity": 100}, {"time": 1653, "pitch": 41, "duration": 7, "velocity": 96}, {"time": 1656, "pitch": 56, "duration": 5, "velocity": 112}, {"time": 1656, "pitch": 60, "duration": 6, "velocity": 96}, {"time": 1659, "pitch": 53, "duration": 3, "velocity": 83}, {"time": 1662, "pitch": 41, "duration": 22, "velocity": 93}, {"time": 1668, "pitch": 53, "duration": 3, "velocity": 44}, {"time": 1674, "pitch": 56, "duration": 12, "velocity": 117}, {"time": 1674, "pitch": 60, "duration": 12, "velocity": 97}, {"time": 1683, "pitch": 53, "duration": 6, "velocity": 99}, {"time": 1686, "pitch": 41, "duration": 2, "velocity": 92}, {"time": 1692, "pitch": 41, "duration": 6, "velocity": 99}, {"time": 1698, "pitch": 56, "duration": 5, "velocity": 112}, {"time": 1698, "pitch": 60, "duration": 10, "velocity": 96}, {"time": 1701, "pitch": 41, "duration": 3, "velocity": 97}, {"time": 1704, "pitch": 53, "duration": 4, "velocity": 112}, {"time": 1707, "pitch": 56, "duration": 3, "velocity": 96}, {"time": 1710, "pitch": 37, "duration": 21, "velocity": 122}, {"time": 1716, "pitch": 49, "duration": 15, "velocity": 89}, {"time": 1722, "pitch": 56, "duration": 12, "velocity": 112}, {"time": 1722, "pitch": 61, "duration": 12, "velocity": 107}, {"time": 1731, "pitch": 53, "duration": 3, "velocity": 73}, {"time": 1734, "pitch": 37, "duration": 2, "velocity": 112}, {"time": 1740, "pitch": 37, "duration": 11, "velocity": 93}, {"time": 1746, "pitch": 56, "duration": 7, "velocity": 107}, {"time": 1746, "pitch": 61, "duration": 11, "velocity": 107}, {"time": 1749, "pitch": 49, "duration": 4, "velocity": 90}, {"time": 1752, "pitch": 53, "duration": 5, "velocity": 93}, {"time": 1758, "pitch": 46, "duration": 11, "velocity": 107}, {"time": 1770, "pitch": 39, "duration": 10, "velocity": 88}, {"time": 1770, "pitch": 51, "duration": 3, "velocity": 95}, {"time": 1770, "pitch": 55, "duration": 3, "velocity": 96}, {"time": 1770, "pitch": 58, "duration": 4, "velocity": 73}, {"time": 1782, "pitch": 44, "duration": 13, "velocity": 88}, {"time": 1782, "pitch": 56, "duration": 10, "velocity": 102}, {"time": 1782, "pitch": 60, "duration": 9, "velocity": 100}, {"time": 1782, "pitch": 63, "duration": 9, "velocity": 97}, {"time": 1794, "pitch": 56, "duration": 3, "velocity": 81}, {"time": 1794, "pitch": 60, "duration": 4, "velocity": 102}, {"time": 1794, "pitch": 63, "duration": 5, "velocity": 102}, {"time": 1797, "pitch": 44, "duration": 7, "velocity": 89}, {"time": 1800, "pitch": 56, "duration": 5, "velocity": 88}, {"time": 1800, "pitch": 60, "duration": 1, "velocity": 41}, {"time": 1800, "pitch": 63, "duration": 5, "velocity": 27}, {"time": 1803, "pitch": 60, "duration": 2, "velocity": 36}, {"time": 1806, "pitch": 46, "duration": 22, "velocity": 117}, {"time": 1818, "pitch": 53, "duration": 2, "velocity": 55}, {"time": 1818, "pitch": 58, "duration": 15, "velocity": 97}, {"time": 1818, "pitch": 61, "duration": 15, "velocity": 97}, {"time": 1827, "pitch": 53, "duration": 5, "velocity": 86}, {"time": 1830, "pitch": 46, "duration": 2, "velocity": 86}, {"time": 1836, "pitch": 46, "duration": 6, "velocity": 102}, {"time": 1842, "pitch": 58, "duration": 8, "velocity": 100}, {"time": 1842, "pitch": 61, "duration": 11, "velocity": 100}, {"time": 1845, "pitch": 46, "duration": 3, "velocity": 107}, {"time": 1848, "pitch": 53, "duration": 4, "velocity": 97}, {"time": 1851, "pitch": 58, "duration": 3, "velocity": 65}, {"time": 1854, "pitch": 39, "duration": 21, "velocity": 100}, {"time": 1860, "pitch": 51, "duration": 15, "velocity": 86}, {"time": 1866, "pitch": 58, "duration": 13, "velocity": 102}, {"time": 1866, "pitch": 63, "duration": 14, "velocity": 96}, {"time": 1875, "pitch": 55, "duration": 3, "velocity": 70}, {"time": 1878, "pitch": 39, "duration": 2, "velocity": 102}, {"time": 1884, "pitch": 39, "duration": 16, "velocity": 96}, {"time": 1890, "pitch": 51, "duration": 9, "velocity": 92}, {"time": 1896, "pitch": 55, "duration": 6, "velocity": 81}, {"time": 1896, "pitch": 58, "duration": 3, "velocity": 100}, {"time": 1896, "pitch": 63, "duration": 4, "velocity": 99}, {"time": 1902, "pitch": 37, "duration": 21, "velocity": 89}, {"time": 1908, "pitch": 49, "duration": 3, "velocity": 63}, {"time": 1914, "pitch": 53, "duration": 9, "velocity": 93}, {"time": 1914, "pitch": 56, "duration": 10, "velocity": 99}, {"time": 1920, "pitch": 49, "duration": 3, "velocity": 82}, {"time": 1926, "pitch": 39, "duration": 3, "velocity": 96}, {"time": 1932, "pitch": 39, "duration": 13, "velocity": 97}, {"time": 1938, "pitch": 55, "duration": 8, "velocity": 96}, {"time": 1938, "pitch": 58, "duration": 8, "velocity": 89}, {"time": 1944, "pitch": 51, "duration": 3, "velocity": 85}, {"time": 1950, "pitch": 36, "duration": 21, "velocity": 66}, {"time": 1953, "pitch": 48, "duration": 5, "velocity": 68}, {"time": 1962, "pitch": 51, "duration": 10, "velocity": 97}, {"time": 1962, "pitch": 55, "duration": 10, "velocity": 92}, {"time": 1968, "pitch": 48, "duration": 2, "velocity": 79}, {"time": 1974, "pitch": 41, "duration": 2, "velocity": 96}, {"time": 1980, "pitch": 41, "duration": 10, "velocity": 97}, {"time": 1986, "pitch": 56, "duration": 12, "velocity": 117}, {"time": 1986, "pitch": 60, "duration": 12, "velocity": 95}, {"time": 1992, "pitch": 53, "duration": 5, "velocity": 82}, {"time": 1998, "pitch": 41, "duration": 17, "velocity": 82}, {"time": 2010, "pitch": 56, "duration": 12, "velocity": 100}, {"time": 2010, "pitch": 60, "duration": 12, "velocity": 89}, {"time": 2016, "pitch": 53, "duration": 6, "velocity": 68}, {"time": 2022, "pitch": 41, "duration": 21, "velocity": 74}, {"time": 2028, "pitch": 53, "duration": 8, "velocity": 75}, {"time": 2034, "pitch": 56, "duration": 7, "velocity": 67}, {"time": 2034, "pitch": 60, "duration": 9, "velocity": 73}, {"time": 2046, "pitch": 46, "duration": 43, "velocity": 89}, {"time": 2052, "pitch": 53, "duration": 8, "velocity": 42}, {"time": 2058, "pitch": 61, "duration": 21, "velocity": 72}, {"time": 2064, "pitch": 53, "duration": 20, "velocity": 55}, {"time": 2076, "pitch": 58, "duration": 17, "velocity": 45}, {"time": 2082, "pitch": 61, "duration": 11, "velocity": 93}, {"time": 2088, "pitch": 53, "duration": 5, "velocity": 63}, {"time": 2094, "pitch": 39, "duration": 39, "velocity": 86}, {"time": 2100, "pitch": 51, "duration": 19, "velocity": 52}, {"time": 2106, "pitch": 63, "duration": 20, "velocity": 93}, {"time": 2112, "pitch": 58, "duration": 28, "velocity": 83}, {"time": 2124, "pitch": 51, "duration": 10, "velocity": 53}, {"time": 2130, "pitch": 63, "duration": 11, "velocity": 90}, {"time": 2136, "pitch": 55, "duration": 7, "velocity": 71}, {"time": 2142, "pitch": 41, "duration": 44, "velocity": 67}, {"time": 2148, "pitch": 48, "duration": 18, "velocity": 43}, {"time": 2154, "pitch": 60, "duration": 40, "velocity": 88}, {"time": 2160, "pitch": 56, "duration": 14, "velocity": 72}, {"time": 2172, "pitch": 48, "duration": 18, "velocity": 58}, {"time": 2178, "pitch": 56, "duration": 14, "velocity": 85}, {"time": 2184, "pitch": 53, "duration": 8, "velocity": 73}, {"time": 2190, "pitch": 41, "duration": 37, "velocity": 74}, {"time": 2196, "pitch": 48, "duration": 19, "velocity": 78}, {"time": 2202, "pitch": 60, "duration": 12, "velocity": 95}, {"time": 2208, "pitch": 56, "duration": 3, "velocity": 112}, {"time": 2220, "pitch": 48, "duration": 8, "velocity": 72}, {"time": 2226, "pitch": 65, "duration": 12, "velocity": 95}, {"time": 2226, "pitch": 68, "duration": 12, "velocity": 107}, {"time": 2232, "pitch": 60, "duration": 7, "velocity": 60}, {"time": 2238, "pitch": 46, "duration": 35, "velocity": 97}, {"time": 2244, "pitch": 58, "duration": 18, "velocity": 76}, {"time": 2250, "pitch": 61, "duration": 17, "velocity": 88}, {"time": 2256, "pitch": 65, "duration": 15, "velocity": 78}, {"time": 2268, "pitch": 58, "duration": 4, "velocity": 72}, {"time": 2274, "pitch": 61, "duration": 11, "velocity": 99}, {"time": 2280, "pitch": 65, "duration": 3, "velocity": 64}, {"time": 2286, "pitch": 39, "duration": 34, "velocity": 95}, {"time": 2292, "pitch": 51, "duration": 17, "velocity": 76}, {"time": 2298, "pitch": 55, "duration": 21, "velocity": 68}, {"time": 2304, "pitch": 63, "duration": 30, "velocity": 99}, {"time": 2316, "pitch": 51, "duration": 6, "velocity": 65}, {"time": 2322, "pitch": 58, "duration": 14, "velocity": 96}, {"time": 2328, "pitch": 55, "duration": 11, "velocity": 63}, {"time": 2334, "pitch": 41, "duration": 47, "velocity": 77}, {"time": 2340, "pitch": 48, "duration": 9, "velocity": 72}, {"time": 2346, "pitch": 60, "duration": 79, "velocity": 86}, {"time": 2358, "pitch": 48, "duration": 5, "velocity": 43}, {"time": 2358, "pitch": 56, "duration": 12, "velocity": 86}, {"time": 2364, "pitch": 48, "duration": 16, "velocity": 42}, {"time": 2370, "pitch": 55, "duration": 10, "velocity": 39}, {"time": 2382, "pitch": 41, "duration": 42, "velocity": 68}, {"time": 2382, "pitch": 53, "duration": 36, "velocity": 59}, {"time": 2382, "pitch": 65, "duration": 35, "velocity": 50}, {"time": 2382, "pitch": 68, "duration": 35, "velocity": 58}, {"time": 2382, "pitch": 72, "duration": 36, "velocity": 60}, {"time": 2430, "pitch": 46, "duration": 24, "velocity": 97}, {"time": 2436, "pitch": 53, "duration": 17, "velocity": 61}, {"time": 2442, "pitch": 58, "duration": 8, "velocity": 100}, {"time": 2442, "pitch": 61, "duration": 8, "velocity": 95}, {"time": 2442, "pitch": 65, "duration": 7, "velocity": 62}, {"time": 2451, "pitch": 58, "duration": 8, "velocity": 79}, {"time": 2451, "pitch": 61, "duration": 7, "velocity": 68}, {"time": 2451, "pitch": 65, "duration": 6, "velocity": 50}, {"time": 2454, "pitch": 46, "duration": 2, "velocity": 73}, {"time": 2460, "pitch": 46, "duration": 8, "velocity": 93}, {"time": 2466, "pitch": 61, "duration": 12, "velocity": 86}, {"time": 2466, "pitch": 65, "duration": 11, "velocity": 76}, {"time": 2472, "pitch": 58, "duration": 7, "velocity": 79}, {"time": 2478, "pitch": 39, "duration": 21, "velocity": 96}, {"time": 2484, "pitch": 46, "duration": 16, "velocity": 47}, {"time": 2490, "pitch": 55, "duration": 4, "velocity": 66}, {"time": 2490, "pitch": 58, "duration": 20, "velocity": 96}, {"time": 2490, "pitch": 63, "duration": 20, "velocity": 93}, {"time": 2499, "pitch": 55, "duration": 3, "velocity": 83}, {"time": 2502, "pitch": 39, "duration": 3, "velocity": 85}, {"time": 2508, "pitch": 39, "duration": 9, "velocity": 82}, {"time": 2514, "pitch": 58, "duration": 12, "velocity": 112}, {"time": 2514, "pitch": 63, "duration": 12, "velocity": 100}, {"time": 2520, "pitch": 55, "duration": 5, "velocity": 92}, {"time": 2526, "pitch": 44, "duration": 22, "velocity": 97}, {"time": 2532, "pitch": 56, "duration": 17, "velocity": 89}, {"time": 2538, "pitch": 60, "duration": 6, "velocity": 74}, {"time": 2538, "pitch": 63, "duration": 37, "velocity": 96}, {"time": 2538, "pitch": 68, "duration": 36, "velocity": 90}, {"time": 2547, "pitch": 60, "duration": 5, "velocity": 88}, {"time": 2550, "pitch": 44, "duration": 2, "velocity": 107}, {"time": 2556, "pitch": 44, "duration": 14, "velocity": 97}, {"time": 2562, "pitch": 56, "duration": 6, "velocity": 112}, {"time": 2568, "pitch": 60, "duration": 7, "velocity": 102}, {"time": 2574, "pitch": 41, "duration": 23, "velocity": 78}, {"time": 2580, "pitch": 48, "duration": 17, "velocity": 48}, {"time": 2586, "pitch": 56, "duration": 17, "velocity": 97}, {"time": 2586, "pitch": 60, "duration": 16, "velocity": 85}, {"time": 2595, "pitch": 53, "duration": 3, "velocity": 90}, {"time": 2598, "pitch": 41, "duration": 2, "velocity": 75}, {"time": 2604, "pitch": 41, "duration": 7, "velocity": 88}, {"time": 2610, "pitch": 56, "duration": 10, "velocity": 107}, {"time": 2610, "pitch": 60, "duration": 11, "velocity": 93}, {"time": 2616, "pitch": 53, "duration": 5, "velocity": 86}, {"time": 2622, "pitch": 46, "duration": 22, "velocity": 77}, {"time": 2634, "pitch": 58, "duration": 14, "velocity": 97}, {"time": 2634, "pitch": 61, "duration": 15, "velocity": 72}, {"time": 2634, "pitch": 65, "duration": 15, "velocity": 67}, {"time": 2643, "pitch": 53, "duration": 3, "velocity": 70}, {"time": 2646, "pitch": 46, "duration": 3, "velocity": 93}, {"time": 2652, "pitch": 46, "duration": 8, "velocity": 86}, {"time": 2658, "pitch": 58, "duration": 3, "velocity": 76}, {"time": 2658, "pitch": 61, "duration": 12, "velocity": 86}, {"time": 2658, "pitch": 65, "duration": 11, "velocity": 59}, {"time": 2664, "pitch": 58, "duration": 6, "velocity": 88}, {"time": 2670, "pitch": 39, "duration": 22, "velocity": 96}, {"time": 2676, "pitch": 51, "duration": 16, "velocity": 72}, {"time": 2682, "pitch": 55, "duration": 6, "velocity": 79}, {"time": 2682, "pitch": 58, "duration": 13, "velocity": 93}, {"time": 2682, "pitch": 63, "duration": 13, "velocity": 83}, {"time": 2691, "pitch": 55, "duration": 3, "velocity": 78}, {"time": 2694, "pitch": 39, "duration": 2, "velocity": 97}, {"time": 2700, "pitch": 39, "duration": 7, "velocity": 92}, {"time": 2706, "pitch": 58, "duration": 11, "velocity": 102}, {"time": 2706, "pitch": 63, "duration": 10, "velocity": 100}, {"time": 2712, "pitch": 55, "duration": 6, "velocity": 93}, {"time": 2718, "pitch": 41, "duration": 22, "velocity": 88}, {"time": 2724, "pitch": 48, "duration": 16, "velocity": 56}, {"time": 2730, "pitch": 56, "duration": 16, "velocity": 99}, {"time": 2730, "pitch": 60, "duration": 18, "velocity": 89}, {"time": 2739, "pitch": 53, "duration": 4, "velocity": 77}, {"time": 2742, "pitch": 41, "duration": 2, "velocity": 82}, {"time": 2748, "pitch": 41, "duration": 16, "velocity": 85}, {"time": 2754, "pitch": 56, "duration": 9, "velocity": 107}, {"time": 2754, "pitch": 60, "duration": 10, "velocity": 93}, {"time": 2760, "pitch": 53, "duration": 5, "velocity": 72}, {"time": 2766, "pitch": 41, "duration": 8, "velocity": 90}, {"time": 2766, "pitch": 53, "duration": 8, "velocity": 90}, {"time": 2766, "pitch": 56, "duration": 8, "velocity": 100}, {"time": 2766, "pitch": 60, "duration": 8, "velocity": 82}, {"time": 2814, "pitch": 46, "duration": 24, "velocity": 88}, {"time": 2820, "pitch": 58, "duration": 8, "velocity": 78}, {"time": 2826, "pitch": 65, "duration": 16, "velocity": 55}, {"time": 2835, "pitch": 61, "duration": 7, "velocity": 66}, {"time": 2838, "pitch": 46, "duration": 3, "velocity": 72}, {"time": 2844, "pitch": 46, "duration": 17, "velocity": 95}, {"time": 2850, "pitch": 65, "duration": 12, "velocity": 69}, {"time": 2856, "pitch": 58, "duration": 7, "velocity": 81}, {"time": 2862, "pitch": 48, "duration": 23, "velocity": 88}, {"time": 2868, "pitch": 55, "duration": 21, "velocity": 45}, {"time": 2874, "pitch": 63, "duration": 20, "velocity": 100}, {"time": 2883, "pitch": 60, "duration": 11, "velocity": 85}, {"time": 2886, "pitch": 48, "duration": 3, "velocity": 85}, {"time": 2892, "pitch": 48, "duration": 18, "velocity": 95}, {"time": 2898, "pitch": 60, "duration": 12, "velocity": 95}, {"time": 2898, "pitch": 63, "duration": 11, "velocity": 107}, {"time": 2904, "pitch": 55, "duration": 7, "velocity": 77}, {"time": 2910, "pitch": 41, "duration": 22, "velocity": 72}, {"time": 2916, "pitch": 48, "duration": 18, "velocity": 63}, {"time": 2922, "pitch": 56, "duration": 18, "velocity": 89}, {"time": 2922, "pitch": 60, "duration": 19, "velocity": 88}, {"time": 2931, "pitch": 53, "duration": 6, "velocity": 86}, {"time": 2934, "pitch": 41, "duration": 3, "velocity": 81}, {"time": 2940, "pitch": 41, "duration": 7, "velocity": 92}, {"time": 2946, "pitch": 56, "duration": 12, "velocity": 96}, {"time": 2946, "pitch": 60, "duration": 12, "velocity": 82}, {"time": 2952, "pitch": 53, "duration": 6, "velocity": 77}, {"time": 2958, "pitch": 44, "duration": 22, "velocity": 97}, {"time": 2964, "pitch": 51, "duration": 15, "velocity": 63}, {"time": 2970, "pitch": 60, "duration": 11, "velocity": 75}, {"time": 2970, "pitch": 63, "duration": 14, "velocity": 93}, {"time": 2979, "pitch": 56, "duration": 4, "velocity": 95}, {"time": 2982, "pitch": 44, "duration": 3, "velocity": 90}, {"time": 2988, "pitch": 44, "duration": 16, "velocity": 93}, {"time": 2994, "pitch": 60, "duration": 12, "velocity": 95}, {"time": 2994, "pitch": 63, "duration": 13, "velocity": 93}, {"time": 3000, "pitch": 56, "duration": 6, "velocity": 72}, {"time": 3006, "pitch": 48, "duration": 23, "velocity": 81}, {"time": 3012, "pitch": 55, "duration": 7, "velocity": 40}, {"time": 3018, "pitch": 60, "duration": 13, "velocity": 88}, {"time": 3018, "pitch": 63, "duration": 12, "velocity": 93}, {"time": 3027, "pitch": 55, "duration": 4, "velocity": 83}, {"time": 3030, "pitch": 48, "duration": 3, "velocity": 82}, {"time": 3036, "pitch": 48, "duration": 8, "velocity": 88}, {"time": 3042, "pitch": 60, "duration": 10, "velocity": 90}, {"time": 3042, "pitch": 63, "duration": 10, "velocity": 97}, {"time": 3048, "pitch": 55, "duration": 4, "velocity": 85}, {"time": 3054, "pitch": 46, "duration": 13, "velocity": 89}, {"time": 3060, "pitch": 58, "duration": 8, "velocity": 78}, {"time": 3066, "pitch": 61, "duration": 11, "velocity": 69}, {"time": 3066, "pitch": 65, "duration": 11, "velocity": 68}, {"time": 3075, "pitch": 58, "duration": 3, "velocity": 92}, {"time": 3078, "pitch": 39, "duration": 3, "velocity": 96}, {"time": 3084, "pitch": 39, "duration": 8, "velocity": 63}, {"time": 3090, "pitch": 55, "duration": 10, "velocity": 76}, {"time": 3090, "pitch": 58, "duration": 11, "velocity": 83}, {"time": 3096, "pitch": 51, "duration": 5, "velocity": 72}, {"time": 3102, "pitch": 41, "duration": 19, "velocity": 72}, {"time": 3108, "pitch": 48, "duration": 16, "velocity": 47}, {"time": 3114, "pitch": 56, "duration": 12, "velocity": 83}, {"time": 3114, "pitch": 60, "duration": 14, "velocity": 73}, {"time": 3123, "pitch": 53, "duration": 3, "velocity": 89}, {"time": 3126, "pitch": 41, "duration": 2, "velocity": 79}, {"time": 3132, "pitch": 41, "duration": 16, "velocity": 81}, {"time": 3138, "pitch": 60, "duration": 12, "velocity": 95}, {"time": 3144, "pitch": 56, "duration": 12, "velocity": 90}, {"time": 3150, "pitch": 41, "duration": 7, "velocity": 88}, {"time": 3150, "pitch": 53, "duration": 6, "velocity": 99}, {"time": 3150, "pitch": 60, "duration": 7, "velocity": 76}, {"time": 3198, "pitch": 46, "duration": 22, "velocity": 90}, {"time": 3210, "pitch": 61, "duration": 17, "velocity": 74}, {"time": 3210, "pitch": 65, "duration": 16, "velocity": 71}, {"time": 3219, "pitch": 58, "duration": 8, "velocity": 90}, {"time": 3222, "pitch": 46, "duration": 3, "velocity": 83}, {"time": 3228, "pitch": 46, "duration": 16, "velocity": 96}, {"time": 3234, "pitch": 61, "duration": 12, "velocity": 64}, {"time": 3234, "pitch": 65, "duration": 12, "velocity": 59}, {"time": 3240, "pitch": 58, "duration": 6, "velocity": 88}, {"time": 3246, "pitch": 48, "duration": 22, "velocity": 72}, {"time": 3252, "pitch": 55, "duration": 8, "velocity": 82}, {"time": 3258, "pitch": 60, "duration": 13, "velocity": 78}, {"time": 3258, "pitch": 63, "duration": 13, "velocity": 83}, {"time": 3267, "pitch": 55, "duration": 4, "velocity": 81}, {"time": 3270, "pitch": 48, "duration": 3, "velocity": 76}, {"time": 3276, "pitch": 48, "duration": 12, "velocity": 89}, {"time": 3282, "pitch": 60, "duration": 12, "velocity": 76}, {"time": 3282, "pitch": 63, "duration": 12, "velocity": 76}, {"time": 3288, "pitch": 55, "duration": 7, "velocity": 79}, {"time": 3294, "pitch": 41, "duration": 21, "velocity": 77}, {"time": 3300, "pitch": 48, "duration": 17, "velocity": 69}, {"time": 3306, "pitch": 56, "duration": 17, "velocity": 93}, {"time": 3306, "pitch": 60, "duration": 17, "velocity": 78}, {"time": 3315, "pitch": 53, "duration": 6, "velocity": 83}, {"time": 3318, "pitch": 41, "duration": 2, "velocity": 81}, {"time": 3324, "pitch": 41, "duration": 13, "velocity": 85}, {"time": 3330, "pitch": 56, "duration": 7, "velocity": 107}, {"time": 3330, "pitch": 60, "duration": 12, "velocity": 93}, {"time": 3336, "pitch": 53, "duration": 5, "velocity": 97}, {"time": 3339, "pitch": 56, "duration": 3, "velocity": 83}, {"time": 3342, "pitch": 44, "duration": 22, "velocity": 89}, {"time": 3348, "pitch": 56, "duration": 7, "velocity": 89}, {"time": 3354, "pitch": 60, "duration": 11, "velocity": 66}, {"time": 3354, "pitch": 63, "duration": 13, "velocity": 73}, {"time": 3363, "pitch": 56, "duration": 5, "velocity": 95}, {"time": 3366, "pitch": 44, "duration": 2, "velocity": 89}, {"time": 3372, "pitch": 44, "duration": 16, "velocity": 88}, {"time": 3378, "pitch": 60, "duration": 12, "velocity": 86}, {"time": 3378, "pitch": 63, "duration": 11, "velocity": 90}, {"time": 3384, "pitch": 56, "duration": 5, "velocity": 77}, {"time": 3390, "pitch": 48, "duration": 22, "velocity": 79}, {"time": 3396, "pitch": 55, "duration": 8, "velocity": 68}, {"time": 3402, "pitch": 60, "duration": 11, "velocity": 90}, {"time": 3402, "pitch": 63, "duration": 11, "velocity": 92}, {"time": 3411, "pitch": 55, "duration": 3, "velocity": 81}, {"time": 3414, "pitch": 48, "duration": 3, "velocity": 73}, {"time": 3420, "pitch": 48, "duration": 13, "velocity": 83}, {"time": 3426, "pitch": 60, "duration": 11, "velocity": 82}, {"time": 3426, "pitch": 63, "duration": 11, "velocity": 89}, {"time": 3432, "pitch": 55, "duration": 6, "velocity": 69}, {"time": 3438, "pitch": 46, "duration": 18, "velocity": 97}, {"time": 3444, "pitch": 58, "duration": 7, "velocity": 88}, {"time": 3450, "pitch": 61, "duration": 10, "velocity": 70}, {"time": 3450, "pitch": 65, "duration": 10, "velocity": 65}, {"time": 3459, "pitch": 58, "duration": 3, "velocity": 64}, {"time": 3462, "pitch": 39, "duration": 3, "velocity": 92}, {"time": 3468, "pitch": 39, "duration": 9, "velocity": 88}, {"time": 3474, "pitch": 55, "duration": 11, "velocity": 82}, {"time": 3474, "pitch": 58, "duration": 12, "velocity": 88}, {"time": 3480, "pitch": 51, "duration": 6, "velocity": 62}, {"time": 3486, "pitch": 41, "duration": 22, "velocity": 82}, {"time": 3492, "pitch": 53, "duration": 6, "velocity": 74}, {"time": 3498, "pitch": 56, "duration": 11, "velocity": 93}, {"time": 3498, "pitch": 60, "duration": 13, "velocity": 90}, {"time": 3507, "pitch": 53, "duration": 4, "velocity": 88}, {"time": 3510, "pitch": 41, "duration": 3, "velocity": 92}, {"time": 3516, "pitch": 41, "duration": 15, "velocity": 97}, {"time": 3522, "pitch": 56, "duration": 11, "velocity": 115}, {"time": 3522, "pitch": 60, "duration": 12, "velocity": 115}, {"time": 3528, "pitch": 53, "duration": 5, "velocity": 115}, {"time": 3534, "pitch": 41, "duration": 22, "velocity": 115}, {"time": 3540, "pitch": 48, "duration": 17, "velocity": 107}, {"time": 3546, "pitch": 53, "duration": 10, "velocity": 96}, {"time": 3546, "pitch": 65, "duration": 20, "velocity": 100}, {"time": 3546, "pitch": 68, "duration": 20, "velocity": 122}, {"time": 3555, "pitch": 60, "duration": 10, "velocity": 112}, {"time": 3558, "pitch": 41, "duration": 3, "velocity": 96}, {"time": 3564, "pitch": 41, "duration": 6, "velocity": 96}, {"time": 3570, "pitch": 65, "duration": 5, "velocity": 112}, {"time": 3570, "pitch": 68, "duration": 5, "velocity": 127}, {"time": 3573, "pitch": 41, "duration": 6, "velocity": 99}, {"time": 3576, "pitch": 60, "duration": 8, "velocity": 97}, {"time": 3576, "pitch": 65, "duration": 1, "velocity": 55}, {"time": 3576, "pitch": 68, "duration": 2, "velocity": 66}, {"time": 3582, "pitch": 41, "duration": 22, "velocity": 127}, {"time": 3588, "pitch": 60, "duration": 8, "velocity": 93}, {"time": 3594, "pitch": 65, "duration": 7, "velocity": 102}, {"time": 3594, "pitch": 68, "duration": 7, "velocity": 127}, {"time": 3603, "pitch": 60, "duration": 6, "velocity": 99}, {"time": 3603, "pitch": 65, "duration": 7, "velocity": 100}, {"time": 3603, "pitch": 68, "duration": 7, "velocity": 112}, {"time": 3606, "pitch": 41, "duration": 3, "velocity": 97}, {"time": 3612, "pitch": 41, "duration": 7, "velocity": 99}, {"time": 3618, "pitch": 65, "duration": 5, "velocity": 117}, {"time": 3618, "pitch": 68, "duration": 13, "velocity": 127}, {"time": 3621, "pitch": 48, "duration": 6, "velocity": 93}, {"time": 3624, "pitch": 60, "duration": 6, "velocity": 112}, {"time": 3627, "pitch": 65, "duration": 3, "velocity": 65}, {"time": 3630, "pitch": 49, "duration": 22, "velocity": 99}, {"time": 3636, "pitch": 61, "duration": 4, "velocity": 93}, {"time": 3642, "pitch": 65, "duration": 7, "velocity": 107}, {"time": 3642, "pitch": 68, "duration": 7, "velocity": 102}, {"time": 3651, "pitch": 61, "duration": 3, "velocity": 122}, {"time": 3651, "pitch": 68, "duration": 2, "velocity": 33}, {"time": 3654, "pitch": 49, "duration": 2, "velocity": 97}, {"time": 3660, "pitch": 49, "duration": 17, "velocity": 102}, {"time": 3666, "pitch": 65, "duration": 8, "velocity": 112}, {"time": 3666, "pitch": 68, "duration": 8, "velocity": 112}, {"time": 3672, "pitch": 61, "duration": 5, "velocity": 102}, {"time": 3678, "pitch": 46, "duration": 6, "velocity": 102}, {"time": 3690, "pitch": 39, "duration": 9, "velocity": 112}, {"time": 3690, "pitch": 51, "duration": 6, "velocity": 96}, {"time": 3690, "pitch": 55, "duration": 6, "velocity": 86}, {"time": 3690, "pitch": 58, "duration": 7, "velocity": 86}, {"time": 3702, "pitch": 44, "duration": 14, "velocity": 93}, {"time": 3708, "pitch": 56, "duration": 5, "velocity": 107}, {"time": 3714, "pitch": 60, "duration": 5, "velocity": 96}, {"time": 3714, "pitch": 63, "duration": 5, "velocity": 107}, {"time": 3717, "pitch": 44, "duration": 8, "velocity": 93}, {"time": 3720, "pitch": 56, "duration": 4, "velocity": 97}, {"time": 3723, "pitch": 60, "duration": 3, "velocity": 69}, {"time": 3723, "pitch": 63, "duration": 2, "velocity": 23}, {"time": 3726, "pitch": 46, "duration": 22, "velocity": 102}, {"time": 3732, "pitch": 53, "duration": 7, "velocity": 68}, {"time": 3738, "pitch": 58, "duration": 12, "velocity": 95}, {"time": 3738, "pitch": 61, "duration": 11, "velocity": 100}, {"time": 3747, "pitch": 53, "duration": 12, "velocity": 100}, {"time": 3750, "pitch": 46, "duration": 3, "velocity": 111}, {"time": 3756, "pitch": 46, "duration": 6, "velocity": 110}, {"time": 3762, "pitch": 58, "duration": 7, "velocity": 109}, {"time": 3762, "pitch": 61, "duration": 12, "velocity": 109}, {"time": 3765, "pitch": 46, "duration": 3, "velocity": 109}, {"time": 3768, "pitch": 53, "duration": 5, "velocity": 109}, {"time": 3771, "pitch": 58, "duration": 3, "velocity": 111}, {"time": 3774, "pitch": 39, "duration": 20, "velocity": 117}, {"time": 3780, "pitch": 51, "duration": 7, "velocity": 99}, {"time": 3786, "pitch": 55, "duration": 7, "velocity": 83}, {"time": 3786, "pitch": 58, "duration": 7, "velocity": 117}, {"time": 3786, "pitch": 63, "duration": 7, "velocity": 100}, {"time": 3789, "pitch": 51, "duration": 4, "velocity": 28}, {"time": 3795, "pitch": 55, "duration": 3, "velocity": 86}, {"time": 3795, "pitch": 58, "duration": 3, "velocity": 107}, {"time": 3795, "pitch": 63, "duration": 3, "velocity": 99}, {"time": 3798, "pitch": 39, "duration": 2, "velocity": 77}, {"time": 3798, "pitch": 51, "duration": 2, "velocity": 79}, {"time": 3804, "pitch": 39, "duration": 9, "velocity": 92}, {"time": 3804, "pitch": 51, "duration": 9, "velocity": 90}, {"time": 3810, "pitch": 58, "duration": 10, "velocity": 112}, {"time": 3810, "pitch": 63, "duration": 11, "velocity": 112}, {"time": 3816, "pitch": 55, "duration": 5, "velocity": 93}, {"time": 3822, "pitch": 37, "duration": 22, "velocity": 90}, {"time": 3828, "pitch": 49, "duration": 4, "velocity": 83}, {"time": 3834, "pitch": 53, "duration": 6, "velocity": 93}, {"time": 3834, "pitch": 56, "duration": 6, "velocity": 95}, {"time": 3843, "pitch": 49, "duration": 3, "velocity": 99}, {"time": 3843, "pitch": 56, "duration": 1, "velocity": 38}, {"time": 3846, "pitch": 39, "duration": 3, "velocity": 89}, {"time": 3852, "pitch": 39, "duration": 8, "velocity": 102}, {"time": 3858, "pitch": 55, "duration": 11, "velocity": 112}, {"time": 3858, "pitch": 58, "duration": 11, "velocity": 100}, {"time": 3864, "pitch": 51, "duration": 6, "velocity": 88}, {"time": 3870, "pitch": 48, "duration": 22, "velocity": 97}, {"time": 3876, "pitch": 55, "duration": 5, "velocity": 66}, {"time": 3882, "pitch": 60, "duration": 11, "velocity": 99}, {"time": 3882, "pitch": 63, "duration": 10, "velocity": 107}, {"time": 3891, "pitch": 55, "duration": 4, "velocity": 86}, {"time": 3894, "pitch": 41, "duration": 3, "velocity": 86}, {"time": 3900, "pitch": 41, "duration": 15, "velocity": 85}, {"time": 3906, "pitch": 56, "duration": 11, "velocity": 112}, {"time": 3906, "pitch": 60, "duration": 13, "velocity": 92}, {"time": 3912, "pitch": 53, "duration": 5, "velocity": 90}, {"time": 3918, "pitch": 41, "duration": 21, "velocity": 89}, {"time": 3924, "pitch": 48, "duration": 17, "velocity": 72}, {"time": 3930, "pitch": 56, "duration": 13, "velocity": 102}, {"time": 3930, "pitch": 60, "duration": 13, "velocity": 90}, {"time": 3939, "pitch": 53, "duration": 3, "velocity": 97}, {"time": 3942, "pitch": 41, "duration": 3, "velocity": 88}, {"time": 3948, "pitch": 41, "duration": 5, "velocity": 96}, {"time": 3954, "pitch": 56, "duration": 3, "velocity": 122}, {"time": 3954, "pitch": 60, "duration": 3, "velocity": 100}, {"time": 3957, "pitch": 41, "duration": 7, "velocity": 96}, {"time": 3960, "pitch": 56, "duration": 6, "velocity": 112}, {"time": 3960, "pitch": 60, "duration": 7, "velocity": 96}, {"time": 3963, "pitch": 53, "duration": 4, "velocity": 83}, {"time": 3966, "pitch": 41, "duration": 23, "velocity": 93}, {"time": 3972, "pitch": 53, "duration": 3, "velocity": 44}, {"time": 3978, "pitch": 56, "duration": 12, "velocity": 117}, {"time": 3978, "pitch": 60, "duration": 13, "velocity": 97}, {"time": 3987, "pitch": 53, "duration": 7, "velocity": 99}, {"time": 3990, "pitch": 41, "duration": 3, "velocity": 92}, {"time": 3996, "pitch": 41, "duration": 6, "velocity": 99}, {"time": 4002, "pitch": 56, "duration": 5, "velocity": 112}, {"time": 4002, "pitch": 60, "duration": 11, "velocity": 96}, {"time": 4005, "pitch": 41, "duration": 3, "velocity": 97}, {"time": 4008, "pitch": 53, "duration": 4, "velocity": 112}, {"time": 4011, "pitch": 56, "duration": 3, "velocity": 96}, {"time": 4014, "pitch": 37, "duration": 21, "velocity": 122}, {"time": 4020, "pitch": 49, "duration": 16, "velocity": 89}, {"time": 4026, "pitch": 56, "duration": 13, "velocity": 112}, {"time": 4026, "pitch": 61, "duration": 13, "velocity": 107}, {"time": 4035, "pitch": 53, "duration": 3, "velocity": 73}, {"time": 4038, "pitch": 37, "duration": 2, "velocity": 112}, {"time": 4044, "pitch": 37, "duration": 12, "velocity": 93}, {"time": 4050, "pitch": 56, "duration": 8, "velocity": 107}, {"time": 4050, "pitch": 61, "duration": 11, "velocity": 107}, {"time": 4053, "pitch": 49, "duration": 5, "velocity": 90}, {"time": 4056, "pitch": 53, "duration": 5, "velocity": 93}, {"time": 4062, "pitch": 46, "duration": 11, "velocity": 107}, {"time": 4074, "pitch": 39, "duration": 11, "velocity": 88}, {"time": 4074, "pitch": 51, "duration": 4, "velocity": 95}, {"time": 4074, "pitch": 55, "duration": 3, "velocity": 96}, {"time": 4074, "pitch": 58, "duration": 4, "velocity": 73}, {"time": 4086, "pitch": 44, "duration": 13, "velocity": 88}, {"time": 4086, "pitch": 56, "duration": 10, "velocity": 102}, {"time": 4086, "pitch": 60, "duration": 9, "velocity": 100}, {"time": 4086, "pitch": 63, "duration": 9, "velocity": 97}, {"time": 4098, "pitch": 56, "duration": 4, "velocity": 81}, {"time": 4098, "pitch": 60, "duration": 5, "velocity": 102}, {"time": 4098, "pitch": 63, "duration": 6, "velocity": 102}, {"time": 4101, "pitch": 44, "duration": 8, "velocity": 89}, {"time": 4104, "pitch": 56, "duration": 6, "velocity": 88}, {"time": 4104, "pitch": 60, "duration": 2, "velocity": 41}, {"time": 4104, "pitch": 63, "duration": 5, "velocity": 27}, {"time": 4107, "pitch": 60, "duration": 2, "velocity": 36}, {"time": 4110, "pitch": 46, "duration": 22, "velocity": 117}, {"time": 4122, "pitch": 53, "duration": 3, "velocity": 55}, {"time": 4122, "pitch": 58, "duration": 16, "velocity": 97}, {"time": 4122, "pitch": 61, "duration": 15, "velocity": 97}, {"time": 4131, "pitch": 53, "duration": 6, "velocity": 86}, {"time": 4134, "pitch": 46, "duration": 3, "velocity": 86}, {"time": 4140, "pitch": 46, "duration": 7, "velocity": 102}, {"time": 4146, "pitch": 58, "duration": 8, "velocity": 100}, {"time": 4146, "pitch": 61, "duration": 12, "velocity": 100}, {"time": 4149, "pitch": 46, "duration": 4, "velocity": 107}, {"time": 4152, "pitch": 53, "duration": 5, "velocity": 97}, {"time": 4155, "pitch": 58, "duration": 4, "velocity": 65}, {"time": 4158, "pitch": 39, "duration": 21, "velocity": 100}, {"time": 4164, "pitch": 51, "duration": 15, "velocity": 86}, {"time": 4170, "pitch": 58, "duration": 14, "velocity": 102}, {"time": 4170, "pitch": 63, "duration": 14, "velocity": 96}, {"time": 4179, "pitch": 55, "duration": 4, "velocity": 70}, {"time": 4182, "pitch": 39, "duration": 2, "velocity": 102}, {"time": 4188, "pitch": 39, "duration": 16, "velocity": 96}, {"time": 4194, "pitch": 51, "duration": 9, "velocity": 92}, {"time": 4200, "pitch": 55, "duration": 7, "velocity": 81}, {"time": 4200, "pitch": 58, "duration": 3, "velocity": 100}, {"time": 4200, "pitch": 63, "duration": 5, "velocity": 99}, {"time": 4206, "pitch": 37, "duration": 21, "velocity": 89}, {"time": 4212, "pitch": 49, "duration": 4, "velocity": 63}, {"time": 4218, "pitch": 53, "duration": 9, "velocity": 93}, {"time": 4218, "pitch": 56, "duration": 11, "velocity": 99}, {"time": 4224, "pitch": 49, "duration": 3, "velocity": 82}, {"time": 4230, "pitch": 39, "duration": 3, "velocity": 96}, {"time": 4236, "pitch": 39, "duration": 13, "velocity": 97}, {"time": 4242, "pitch": 55, "duration": 8, "velocity": 96}, {"time": 4242, "pitch": 58, "duration": 9, "velocity": 89}, {"time": 4248, "pitch": 51, "duration": 4, "velocity": 85}, {"time": 4254, "pitch": 36, "duration": 21, "velocity": 66}, {"time": 4257, "pitch": 48, "duration": 5, "velocity": 68}, {"time": 4266, "pitch": 51, "duration": 10, "velocity": 97}, {"time": 4266, "pitch": 55, "duration": 10, "velocity": 92}, {"time": 4272, "pitch": 48, "duration": 3, "velocity": 79}, {"time": 4278, "pitch": 41, "duration": 3, "velocity": 96}, {"time": 4284, "pitch": 41, "duration": 11, "velocity": 97}, {"time": 4290, "pitch": 56, "duration": 12, "velocity": 117}, {"time": 4290, "pitch": 60, "duration": 12, "velocity": 95}, {"time": 4296, "pitch": 53, "duration": 6, "velocity": 82}, {"time": 4302, "pitch": 41, "duration": 22, "velocity": 115}, {"time": 4308, "pitch": 48, "duration": 17, "velocity": 107}, {"time": 4314, "pitch": 53, "duration": 10, "velocity": 96}, {"time": 4314, "pitch": 65, "duration": 20, "velocity": 100}, {"time": 4314, "pitch": 68, "duration": 20, "velocity": 122}, {"time": 4323, "pitch": 60, "duration": 10, "velocity": 112}, {"time": 4326, "pitch": 41, "duration": 3, "velocity": 96}, {"time": 4332, "pitch": 41, "duration": 6, "velocity": 96}, {"time": 4338, "pitch": 65, "duration": 5, "velocity": 112}, {"time": 4338, "pitch": 68, "duration": 5, "velocity": 127}, {"time": 4341, "pitch": 41, "duration": 6, "velocity": 99}, {"time": 4344, "pitch": 60, "duration": 8, "velocity": 97}, {"time": 4344, "pitch": 65, "duration": 1, "velocity": 55}, {"time": 4344, "pitch": 68, "duration": 2, "velocity": 66}, {"time": 4350, "pitch": 41, "duration": 22, "velocity": 127}, {"time": 4356, "pitch": 60, "duration": 8, "velocity": 93}, {"time": 4362, "pitch": 65, "duration": 7, "velocity": 102}, {"time": 4362, "pitch": 68, "duration": 7, "velocity": 127}, {"time": 4371, "pitch": 60, "duration": 6, "velocity": 99}, {"time": 4371, "pitch": 65, "duration": 7, "velocity": 100}, {"time": 4371, "pitch": 68, "duration": 7, "velocity": 112}, {"time": 4374, "pitch": 41, "duration": 3, "velocity": 97}, {"time": 4380, "pitch": 41, "duration": 7, "velocity": 99}, {"time": 4386, "pitch": 65, "duration": 5, "velocity": 117}, {"time": 4386, "pitch": 68, "duration": 13, "velocity": 127}, {"time": 4389, "pitch": 48, "duration": 6, "velocity": 93}, {"time": 4392, "pitch": 60, "duration": 6, "velocity": 112}, {"time": 4395, "pitch": 65, "duration": 3, "velocity": 65}, {"time": 4398, "pitch": 49, "duration": 22, "velocity": 99}, {"time": 4404, "pitch": 61, "duration": 4, "velocity": 93}, {"time": 4410, "pitch": 65, "duration": 7, "velocity": 107}, {"time": 4410, "pitch": 68, "duration": 7, "velocity": 102}, {"time": 4419, "pitch": 61, "duration": 3, "velocity": 122}, {"time": 4419, "pitch": 68, "duration": 2, "velocity": 33}, {"time": 4422, "pitch": 49, "duration": 2, "velocity": 97}, {"time": 4428, "pitch": 49, "duration": 17, "velocity": 102}, {"time": 4434, "pitch": 65, "duration": 8, "velocity": 112}, {"time": 4434, "pitch": 68, "duration": 8, "velocity": 112}, {"time": 4440, "pitch": 61, "duration": 5, "velocity": 102}, {"time": 4446, "pitch": 46, "duration": 6, "velocity": 102}, {"time": 4458, "pitch": 39, "duration": 9, "velocity": 112}, {"time": 4458, "pitch": 51, "duration": 6, "velocity": 96}, {"time": 4458, "pitch": 55, "duration": 6, "velocity": 86}, {"time": 4458, "pitch": 58, "duration": 7, "velocity": 86}, {"time": 4470, "pitch": 44, "duration": 14, "velocity": 93}, {"time": 4476, "pitch": 56, "duration": 5, "velocity": 107}, {"time": 4482, "pitch": 60, "duration": 5, "velocity": 96}, {"time": 4482, "pitch": 63, "duration": 5, "velocity": 107}, {"time": 4485, "pitch": 44, "duration": 8, "velocity": 93}, {"time": 4488, "pitch": 56, "duration": 4, "velocity": 97}, {"time": 4491, "pitch": 60, "duration": 3, "velocity": 69}, {"time": 4491, "pitch": 63, "duration": 2, "velocity": 23}, {"time": 4494, "pitch": 46, "duration": 22, "velocity": 102}, {"time": 4500, "pitch": 53, "duration": 7, "velocity": 68}, {"time": 4506, "pitch": 58, "duration": 12, "velocity": 95}, {"time": 4506, "pitch": 61, "duration": 11, "velocity": 100}, {"time": 4515, "pitch": 53, "duration": 12, "velocity": 100}, {"time": 4518, "pitch": 46, "duration": 3, "velocity": 111}, {"time": 4524, "pitch": 46, "duration": 6, "velocity": 110}, {"time": 4530, "pitch": 58, "duration": 7, "velocity": 109}, {"time": 4530, "pitch": 61, "duration": 12, "velocity": 109}, {"time": 4533, "pitch": 46, "duration": 3, "velocity": 109}, {"time": 4536, "pitch": 53, "duration": 5, "velocity": 109}, {"time": 4539, "pitch": 58, "duration": 3, "velocity": 111}, {"time": 4542, "pitch": 39, "duration": 20, "velocity": 117}, {"time": 4548, "pitch": 51, "duration": 7, "velocity": 99}, {"time": 4554, "pitch": 55, "duration": 7, "velocity": 83}, {"time": 4554, "pitch": 58, "duration": 7, "velocity": 117}, {"time": 4554, "pitch": 63, "duration": 7, "velocity": 100}, {"time": 4557, "pitch": 51, "duration": 4, "velocity": 28}, {"time": 4563, "pitch": 55, "duration": 3, "velocity": 86}, {"time": 4563, "pitch": 58, "duration": 3, "velocity": 107}, {"time": 4563, "pitch": 63, "duration": 3, "velocity": 99}, {"time": 4566, "pitch": 39, "duration": 2, "velocity": 77}, {"time": 4566, "pitch": 51, "duration": 2, "velocity": 79}, {"time": 4572, "pitch": 39, "duration": 9, "velocity": 92}, {"time": 4572, "pitch": 51, "duration": 9, "velocity": 90}, {"time": 4578, "pitch": 58, "duration": 10, "velocity": 112}, {"time": 4578, "pitch": 63, "duration": 11, "velocity": 112}, {"time": 4584, "pitch": 55, "duration": 5, "velocity": 93}, {"time": 4590, "pitch": 37, "duration": 22, "velocity": 90}, {"time": 4596, "pitch": 49, "duration": 4, "velocity": 83}, {"time": 4602, "pitch": 53, "duration": 6, "velocity": 93}, {"time": 4602, "pitch": 56, "duration": 6, "velocity": 95}, {"time": 4611, "pitch": 49, "duration": 3, "velocity": 99}, {"time": 4611, "pitch": 56, "duration": 1, "velocity": 38}, {"time": 4614, "pitch": 39, "duration": 3, "velocity": 89}, {"time": 4620, "pitch": 39, "duration": 8, "velocity": 102}, {"time": 4626, "pitch": 55, "duration": 11, "velocity": 112}, {"time": 4626, "pitch": 58, "duration": 11, "velocity": 100}, {"time": 4632, "pitch": 51, "duration": 6, "velocity": 88}, {"time": 4638, "pitch": 48, "duration": 22, "velocity": 97}, {"time": 4644, "pitch": 55, "duration": 5, "velocity": 66}, {"time": 4650, "pitch": 60, "duration": 11, "velocity": 99}, {"time": 4650, "pitch": 63, "duration": 10, "velocity": 107}, {"time": 4659, "pitch": 55, "duration": 4, "velocity": 86}, {"time": 4662, "pitch": 41, "duration": 3, "velocity": 86}, {"time": 4668, "pitch": 41, "duration": 15, "velocity": 85}, {"time": 4674, "pitch": 56, "duration": 11, "velocity": 112}, {"time": 4674, "pitch": 60, "duration": 13, "velocity": 92}, {"time": 4680, "pitch": 53, "duration": 5, "velocity": 90}, {"time": 4686, "pitch": 41, "duration": 21, "velocity": 89}, {"time": 4692, "pitch": 48, "duration": 17, "velocity": 72}, {"time": 4698, "pitch": 56, "duration": 13, "velocity": 102}, {"time": 4698, "pitch": 60, "duration": 13, "velocity": 90}, {"time": 4707, "pitch": 53, "duration": 3, "velocity": 97}, {"time": 4710, "pitch": 41, "duration": 3, "velocity": 88}, {"time": 4716, "pitch": 41, "duration": 5, "velocity": 96}, {"time": 4722, "pitch": 56, "duration": 3, "velocity": 122}, {"time": 4722, "pitch": 60, "duration": 3, "velocity": 100}, {"time": 4725, "pitch": 41, "duration": 7, "velocity": 96}, {"time": 4728, "pitch": 56, "duration": 6, "velocity": 112}, {"time": 4728, "pitch": 60, "duration": 7, "velocity": 96}, {"time": 4731, "pitch": 53, "duration": 4, "velocity": 83}, {"time": 4734, "pitch": 41, "duration": 23, "velocity": 93}, {"time": 4740, "pitch": 53, "duration": 3, "velocity": 44}, {"time": 4746, "pitch": 56, "duration": 12, "velocity": 117}, {"time": 4746, "pitch": 60, "duration": 13, "velocity": 97}, {"time": 4755, "pitch": 53, "duration": 7, "velocity": 99}, {"time": 4758, "pitch": 41, "duration": 3, "velocity": 92}, {"time": 4764, "pitch": 41, "duration": 6, "velocity": 99}, {"time": 4770, "pitch": 56, "duration": 5, "velocity": 112}, {"time": 4770, "pitch": 60, "duration": 11, "velocity": 96}, {"time": 4773, "pitch": 41, "duration": 3, "velocity": 97}, {"time": 4776, "pitch": 53, "duration": 4, "velocity": 112}, {"time": 4779, "pitch": 56, "duration": 3, "velocity": 96}, {"time": 4782, "pitch": 37, "duration": 21, "velocity": 122}, {"time": 4788, "pitch": 49, "duration": 16, "velocity": 89}, {"time": 4794, "pitch": 56, "duration": 13, "velocity": 112}, {"time": 4794, "pitch": 61, "duration": 13, "velocity": 107}, {"time": 4803, "pitch": 53, "duration": 3, "velocity": 73}, {"time": 4806, "pitch": 37, "duration": 2, "velocity": 112}, {"time": 4812, "pitch": 37, "duration": 12, "velocity": 93}, {"time": 4818, "pitch": 56, "duration": 8, "velocity": 107}, {"time": 4818, "pitch": 61, "duration": 11, "velocity": 107}, {"time": 4821, "pitch": 49, "duration": 5, "velocity": 90}, {"time": 4824, "pitch": 53, "duration": 5, "velocity": 93}, {"time": 4830, "pitch": 46, "duration": 11, "velocity": 107}, {"time": 4842, "pitch": 39, "duration": 11, "velocity": 88}, {"time": 4842, "pitch": 51, "duration": 4, "velocity": 95}, {"time": 4842, "pitch": 55, "duration": 3, "velocity": 96}, {"time": 4842, "pitch": 58, "duration": 4, "velocity": 73}, {"time": 4854, "pitch": 44, "duration": 13, "velocity": 88}, {"time": 4854, "pitch": 56, "duration": 10, "velocity": 102}, {"time": 4854, "pitch": 60, "duration": 9, "velocity": 100}, {"time": 4854, "pitch": 63, "duration": 9, "velocity": 97}, {"time": 4866, "pitch": 56, "duration": 4, "velocity": 81}, {"time": 4866, "pitch": 60, "duration": 5, "velocity": 102}, {"time": 4866, "pitch": 63, "duration": 6, "velocity": 102}, {"time": 4869, "pitch": 44, "duration": 8, "velocity": 89}, {"time": 4872, "pitch": 56, "duration": 6, "velocity": 88}, {"time": 4872, "pitch": 60, "duration": 2, "velocity": 41}, {"time": 4872, "pitch": 63, "duration": 5, "velocity": 27}, {"time": 4875, "pitch": 60, "duration": 2, "velocity": 36}, {"time": 4878, "pitch": 46, "duration": 22, "velocity": 117}, {"time": 4890, "pitch": 53, "duration": 3, "velocity": 55}, {"time": 4890, "pitch": 58, "duration": 16, "velocity": 97}, {"time": 4890, "pitch": 61, "duration": 15, "velocity": 97}, {"time": 4899, "pitch": 53, "duration": 6, "velocity": 86}, {"time": 4902, "pitch": 46, "duration": 3, "velocity": 86}, {"time": 4908, "pitch": 46, "duration": 7, "velocity": 102}, {"time": 4914, "pitch": 58, "duration": 8, "velocity": 100}, {"time": 4914, "pitch": 61, "duration": 12, "velocity": 100}, {"time": 4917, "pitch": 46, "duration": 4, "velocity": 107}, {"time": 4920, "pitch": 53, "duration": 5, "velocity": 97}, {"time": 4923, "pitch": 58, "duration": 4, "velocity": 65}, {"time": 4926, "pitch": 39, "duration": 21, "velocity": 100}, {"time": 4932, "pitch": 51, "duration": 15, "velocity": 86}, {"time": 4938, "pitch": 58, "duration": 14, "velocity": 102}, {"time": 4938, "pitch": 63, "duration": 14, "velocity": 96}, {"time": 4947, "pitch": 55, "duration": 4, "velocity": 70}, {"time": 4950, "pitch": 39, "duration": 2, "velocity": 102}, {"time": 4956, "pitch": 39, "duration": 16, "velocity": 96}, {"time": 4962, "pitch": 51, "duration": 9, "velocity": 92}, {"time": 4968, "pitch": 55, "duration": 7, "velocity": 81}, {"time": 4968, "pitch": 58, "duration": 3, "velocity": 100}, {"time": 4968, "pitch": 63, "duration": 5, "velocity": 99}, {"time": 4974, "pitch": 37, "duration": 21, "velocity": 89}, {"time": 4980, "pitch": 49, "duration": 4, "velocity": 63}, {"time": 4986, "pitch": 53, "duration": 9, "velocity": 93}, {"time": 4986, "pitch": 56, "duration": 11, "velocity": 99}, {"time": 4992, "pitch": 49, "duration": 3, "velocity": 82}, {"time": 4998, "pitch": 39, "duration": 3, "velocity": 96}, {"time": 5004, "pitch": 39, "duration": 13, "velocity": 97}, {"time": 5010, "pitch": 55, "duration": 8, "velocity": 96}, {"time": 5010, "pitch": 58, "duration": 9, "velocity": 89}, {"time": 5016, "pitch": 51, "duration": 4, "velocity": 85}, {"time": 5022, "pitch": 36, "duration": 21, "velocity": 66}, {"time": 5025, "pitch": 48, "duration": 5, "velocity": 68}, {"time": 5034, "pitch": 51, "duration": 10, "velocity": 97}, {"time": 5034, "pitch": 55, "duration": 10, "velocity": 92}, {"time": 5040, "pitch": 48, "duration": 3, "velocity": 79}, {"time": 5046, "pitch": 41, "duration": 3, "velocity": 96}, {"time": 5052, "pitch": 41, "duration": 11, "velocity": 97}, {"time": 5058, "pitch": 56, "duration": 13, "velocity": 117}, {"time": 5058, "pitch": 60, "duration": 13, "velocity": 95}, {"time": 5064, "pitch": 53, "duration": 6, "velocity": 82}, {"time": 5070, "pitch": 41, "duration": 18, "velocity": 82}, {"time": 5082, "pitch": 56, "duration": 12, "velocity": 100}, {"time": 5082, "pitch": 60, "duration": 12, "velocity": 89}, {"time": 5088, "pitch": 53, "duration": 6, "velocity": 68}, {"time": 5094, "pitch": 41, "duration": 22, "velocity": 74}, {"time": 5100, "pitch": 53, "duration": 9, "velocity": 75}, {"time": 5106, "pitch": 56, "duration": 8, "velocity": 67}, {"time": 5106, "pitch": 60, "duration": 9, "velocity": 73}, {"time": 5118, "pitch": 46, "duration": 44, "velocity": 89}, {"time": 5124, "pitch": 53, "duration": 9, "velocity": 42}, {"time": 5130, "pitch": 61, "duration": 21, "velocity": 72}, {"time": 5136, "pitch": 53, "duration": 21, "velocity": 55}, {"time": 5148, "pitch": 58, "duration": 17, "velocity": 45}, {"time": 5154, "pitch": 61, "duration": 11, "velocity": 93}, {"time": 5160, "pitch": 53, "duration": 5, "velocity": 63}, {"time": 5166, "pitch": 39, "duration": 39, "velocity": 86}, {"time": 5172, "pitch": 51, "duration": 19, "velocity": 52}, {"time": 5178, "pitch": 63, "duration": 20, "velocity": 93}, {"time": 5184, "pitch": 58, "duration": 29, "velocity": 83}, {"time": 5196, "pitch": 51, "duration": 10, "velocity": 53}, {"time": 5202, "pitch": 63, "duration": 11, "velocity": 90}, {"time": 5208, "pitch": 55, "duration": 7, "velocity": 71}, {"time": 5214, "pitch": 41, "duration": 44, "velocity": 67}, {"time": 5220, "pitch": 48, "duration": 19, "velocity": 43}, {"time": 5226, "pitch": 60, "duration": 41, "velocity": 88}, {"time": 5232, "pitch": 56, "duration": 14, "velocity": 72}, {"time": 5244, "pitch": 48, "duration": 19, "velocity": 58}, {"time": 5250, "pitch": 56, "duration": 14, "velocity": 85}, {"time": 5256, "pitch": 53, "duration": 8, "velocity": 73}, {"time": 5262, "pitch": 41, "duration": 37, "velocity": 74}, {"time": 5268, "pitch": 48, "duration": 19, "velocity": 78}, {"time": 5274, "pitch": 60, "duration": 13, "velocity": 95}, {"time": 5280, "pitch": 56, "duration": 4, "velocity": 112}, {"time": 5292, "pitch": 48, "duration": 8, "velocity": 72}, {"time": 5298, "pitch": 65, "duration": 13, "velocity": 95}, {"time": 5298, "pitch": 68, "duration": 13, "velocity": 107}, {"time": 5304, "pitch": 60, "duration": 7, "velocity": 60}, {"time": 5310, "pitch": 46, "duration": 36, "velocity": 97}, {"time": 5316, "pitch": 58, "duration": 18, "velocity": 76}, {"time": 5322, "pitch": 61, "duration": 17, "velocity": 88}, {"time": 5328, "pitch": 65, "duration": 15, "velocity": 78}, {"time": 5340, "pitch": 58, "duration": 5, "velocity": 72}, {"time": 5346, "pitch": 61, "duration": 12, "velocity": 99}, {"time": 5352, "pitch": 65, "duration": 4, "velocity": 64}, {"time": 5358, "pitch": 39, "duration": 35, "velocity": 95}, {"time": 5364, "pitch": 51, "duration": 17, "velocity": 76}, {"time": 5370, "pitch": 55, "duration": 21, "velocity": 68}, {"time": 5376, "pitch": 63, "duration": 30, "velocity": 99}, {"time": 5388, "pitch": 51, "duration": 6, "velocity": 65}, {"time": 5394, "pitch": 58, "duration": 14, "velocity": 96}, {"time": 5400, "pitch": 55, "duration": 11, "velocity": 63}, {"time": 5406, "pitch": 41, "duration": 48, "velocity": 77}, {"time": 5412, "pitch": 48, "duration": 10, "velocity": 72}, {"time": 5418, "pitch": 60, "duration": 79, "velocity": 86}, {"time": 5430, "pitch": 48, "duration": 6, "velocity": 43}, {"time": 5430, "pitch": 56, "duration": 12, "velocity": 86}, {"time": 5436, "pitch": 48, "duration": 17, "velocity": 42}, {"time": 5442, "pitch": 55, "duration": 11, "velocity": 39}, {"time": 5454, "pitch": 41, "duration": 42, "velocity": 68}, {"time": 5454, "pitch": 53, "duration": 37, "velocity": 59}, {"time": 5454, "pitch": 65, "duration": 35, "velocity": 50}, {"time": 5454, "pitch": 68, "duration": 35, "velocity": 58}, {"time": 5454, "pitch": 72, "duration": 36, "velocity": 60}, {"time": 5502, "pitch": 46, "duration": 23, "velocity": 97}, {"time": 5508, "pitch": 53, "duration": 17, "velocity": 61}, {"time": 5514, "pitch": 58, "duration": 8, "velocity": 100}, {"time": 5514, "pitch": 61, "duration": 8, "velocity": 95}, {"time": 5514, "pitch": 65, "duration": 7, "velocity": 62}, {"time": 5523, "pitch": 58, "duration": 7, "velocity": 79}, {"time": 5523, "pitch": 61, "duration": 7, "velocity": 68}, {"time": 5523, "pitch": 65, "duration": 5, "velocity": 50}, {"time": 5526, "pitch": 46, "duration": 2, "velocity": 73}, {"time": 5532, "pitch": 46, "duration": 7, "velocity": 93}, {"time": 5538, "pitch": 61, "duration": 12, "velocity": 86}, {"time": 5538, "pitch": 65, "duration": 11, "velocity": 76}, {"time": 5544, "pitch": 58, "duration": 6, "velocity": 79}, {"time": 5550, "pitch": 39, "duration": 21, "velocity": 96}, {"time": 5556, "pitch": 46, "duration": 16, "velocity": 47}, {"time": 5562, "pitch": 55, "duration": 4, "velocity": 66}, {"time": 5562, "pitch": 58, "duration": 19, "velocity": 96}, {"time": 5562, "pitch": 63, "duration": 20, "velocity": 93}, {"time": 5571, "pitch": 55, "duration": 3, "velocity": 83}, {"time": 5574, "pitch": 39, "duration": 2, "velocity": 85}, {"time": 5580, "pitch": 39, "duration": 9, "velocity": 82}, {"time": 5586, "pitch": 58, "duration": 11, "velocity": 112}, {"time": 5586, "pitch": 63, "duration": 12, "velocity": 100}, {"time": 5592, "pitch": 55, "duration": 5, "velocity": 92}, {"time": 5598, "pitch": 44, "duration": 22, "velocity": 97}, {"time": 5604, "pitch": 56, "duration": 17, "velocity": 89}, {"time": 5610, "pitch": 60, "duration": 5, "velocity": 74}, {"time": 5610, "pitch": 63, "duration": 36, "velocity": 96}, {"time": 5610, "pitch": 68, "duration": 36, "velocity": 90}, {"time": 5619, "pitch": 60, "duration": 5, "velocity": 88}, {"time": 5622, "pitch": 44, "duration": 2, "velocity": 107}, {"time": 5628, "pitch": 44, "duration": 13, "velocity": 97}, {"time": 5634, "pitch": 56, "duration": 6, "velocity": 112}, {"time": 5640, "pitch": 60, "duration": 7, "velocity": 102}, {"time": 5646, "pitch": 41, "duration": 22, "velocity": 78}, {"time": 5652, "pitch": 48, "duration": 17, "velocity": 48}, {"time": 5658, "pitch": 56, "duration": 17, "velocity": 97}, {"time": 5658, "pitch": 60, "duration": 16, "velocity": 85}, {"time": 5667, "pitch": 53, "duration": 3, "velocity": 90}, {"time": 5670, "pitch": 41, "duration": 2, "velocity": 75}, {"time": 5676, "pitch": 41, "duration": 7, "velocity": 88}, {"time": 5682, "pitch": 56, "duration": 10, "velocity": 107}, {"time": 5682, "pitch": 60, "duration": 10, "velocity": 93}, {"time": 5688, "pitch": 53, "duration": 5, "velocity": 86}, {"time": 5694, "pitch": 46, "duration": 22, "velocity": 77}, {"time": 5706, "pitch": 58, "duration": 13, "velocity": 97}, {"time": 5706, "pitch": 61, "duration": 14, "velocity": 72}, {"time": 5706, "pitch": 65, "duration": 15, "velocity": 67}, {"time": 5715, "pitch": 53, "duration": 3, "velocity": 70}, {"time": 5718, "pitch": 46, "duration": 3, "velocity": 93}, {"time": 5724, "pitch": 46, "duration": 7, "velocity": 86}, {"time": 5730, "pitch": 58, "duration": 3, "velocity": 76}, {"time": 5730, "pitch": 61, "duration": 11, "velocity": 86}, {"time": 5730, "pitch": 65, "duration": 11, "velocity": 59}, {"time": 5736, "pitch": 58, "duration": 6, "velocity": 88}, {"time": 5742, "pitch": 39, "duration": 21, "velocity": 96}, {"time": 5748, "pitch": 51, "duration": 16, "velocity": 72}, {"time": 5754, "pitch": 55, "duration": 6, "velocity": 79}, {"time": 5754, "pitch": 58, "duration": 12, "velocity": 93}, {"time": 5754, "pitch": 63, "duration": 12, "velocity": 83}, {"time": 5763, "pitch": 55, "duration": 3, "velocity": 78}, {"time": 5766, "pitch": 39, "duration": 2, "velocity": 97}, {"time": 5772, "pitch": 39, "duration": 7, "velocity": 92}, {"time": 5778, "pitch": 58, "duration": 11, "velocity": 102}, {"time": 5778, "pitch": 63, "duration": 10, "velocity": 100}, {"time": 5784, "pitch": 55, "duration": 5, "velocity": 93}, {"time": 5814, "pitch": 41, "duration": 120, "velocity": 72}, {"time": 5814, "pitch": 53, "duration": 119, "velocity": 96}, {"time": 5814, "pitch": 60, "duration": 119, "velocity": 93}, {"time": 5814, "pitch": 65, "duration": 119, "velocity": 97}, {"time": 5814, "pitch": 68, "duration": 119, "velocity": 95}], "annotations": [{"time": 125, "annotation": {"number": 64, "value": 127}, "group": "control_change"}, {"time": 146, "annotation": {"number": 64, "value": 0}, "group": "control_change"}, {"time": 149, "annotation": {"number": 64, "value": 127}, "group": "control_change"}, {"time": 159, "annotation": {"number": 64, "value": 0}, "group": "control_change"}, {"time": 162, "annotation": {"number": 64, "value": 127}, "group": "control_change"}, {"time": 171, "annotation": {"number": 64, "value": 0}, "group": "control_change"}, {"time": 174, "annotation": {"number": 64, "value": 127}, "group": "control_change"}, {"time": 183, "annotation": {"number": 64, "value": 0}, "group": "control_change"}, {"time": 186, "annotation": {"number": 64, "value": 127}, "group": "control_change"}, {"time": 195, "annotation": {"number": 64, "value": 0}, "group": "control_change"}, {"time": 198, "annotation": {"number": 64, "value": 127}, "group": "control_change"}, {"time": 207, "annotation": {"number": 64, "value": 0}, "group": "control_change"}, {"time": 210, "annotation": {"number": 64, "value": 127}, "group": "control_change"}, {"time": 219, "annotation": {"number": 64, "value": 0}, "group": "control_change"}, {"time": 222, "annotation": {"number": 64, "value": 127}, "group": "control_change"}, {"time": 232, "annotation": {"number": 64, "value": 0}, "group": "control_change"}, {"time": 234, "annotation": {"number": 64, "value": 127}, "group": "control_change"}, {"time": 243, "annotation": {"number": 64, "value": 0}, "group": "control_change"}, {"time": 245, "annotation": {"number": 64, "value": 127}, "group": "control_change"}, {"time": 255, "annotation": {"number": 64, "value": 0}, "group": "control_change"}, {"time": 258, "annotation": {"number": 64, "value": 127}, "group": "control_change"}, {"time": 267, "annotation": {"number": 64, "value": 0}, "group": "control_change"}, {"time": 270, "annotation": {"number": 64, "value": 127}, "group": "control_change"}, {"time": 279, "annotation": {"number": 64, "value": 0}, "group": "control_change"}, {"time": 282, "annotation": {"number": 64, "value": 127}, "group": "control_change"}, {"time": 291, "annotation": {"number": 64, "value": 0}, "group": "control_change"}, {"time": 294, "annotation": {"number": 64, "value": 127}, "group": "control_change"}, {"time": 303, "annotation": {"number": 64, "value": 0}, "group": "control_change"}, {"time": 305, "annotation": {"number": 64, "value": 127}, "group": "control_change"}, {"time": 315, "annotation": {"number": 64, "value": 0}, "group": "control_change"}, {"time": 318, "annotation": {"number": 64, "value": 127}, "group": "control_change"}, {"time": 327, "annotation": {"number": 64, "value": 0}, "group": "control_change"}, {"time": 330, "annotation": {"number": 64, "value": 127}, "group": "control_change"}, {"time": 339, "annotation": {"number": 64, "value": 0}, "group": "control_change"}, {"time": 342, "annotation": {"number": 64, "value": 127}, "group": "control_change"}, {"time": 351, "annotation": {"number": 64, "value": 0}, "group": "control_change"}, {"time": 354, "annotation": {"number": 64, "value": 127}, "group": "control_change"}, {"time": 363, "annotation": {"number": 64, "value": 0}, "group": "control_change"}, {"time": 366, "annotation": {"number": 64, "value": 127}, "group": "control_change"}, {"time": 376, "annotation": {"number": 64, "value": 0}, "group": "control_change"}, {"time": 377, "annotation": {"number": 64, "value": 127}, "group": "control_change"}, {"time": 386, "annotation": {"number": 64, "value": 0}, "group": "control_change"}, {"time": 389, "annotation": {"number": 64, "value": 127}, "group": "control_change"}, {"time": 399, "annotation": {"number": 64, "value": 0}, "group": "control_change"}, {"time": 401, "annotation": {"number": 64, "value": 127}, "group": "control_change"}, {"time": 410, "annotation": {"number": 64, "value": 0}, "group": "control_change"}, {"time": 414, "annotation": {"number": 64, "value": 127}, "group": "control_change"}, {"time": 423, "annotation": {"number": 64, "value": 0}, "group": "control_change"}, {"time": 426, "annotation": {"number": 64, "value": 127}, "group": "control_change"}, {"time": 434, "annotation": {"number": 64, "value": 0}, "group": "control_change"}, {"time": 437, "annotation": {"number": 64, "value": 127}, "group": "control_change"}, {"time": 446, "annotation": {"number": 64, "value": 0}, "group": "control_change"}, {"time": 449, "annotation": {"number": 64, "value": 127}, "group": "control_change"}, {"time": 458, "annotation": {"number": 64, "value": 0}, "group": "control_change"}, {"time": 462, "annotation": {"number": 64, "value": 127}, "group": "control_change"}, {"time": 462, "annotation": {"number": 64, "value": 0}, "group": "control_change"}, {"time": 464, "annotation": {"number": 64, "value": 127}, "group": "control_change"}, {"time": 465, "annotation": {"number": 64, "value": 0}, "group": "control_change"}, {"time": 510, "annotation": {"number": 64, "value": 127}, "group": "control_change"}, {"time": 520, "annotation": {"number": 64, "value": 0}, "group": "control_change"}, {"time": 522, "annotation": {"number": 64, "value": 127}, "group": "control_change"}, {"time": 531, "annotation": {"number": 64, "value": 0}, "group": "control_change"}, {"time": 533, "annotation": {"number": 64, "value": 127}, "group": "control_change"}, {"time": 543, "annotation": {"number": 64, "value": 0}, "group": "control_change"}, {"time": 546, "annotation": {"number": 64, "value": 127}, "group": "control_change"}, {"time": 555, "annotation": {"number": 64, "value": 0}, "group": "control_change"}, {"time": 558, "annotation": {"number": 64, "value": 127}, "group": "control_change"}, {"time": 568, "annotation": {"number": 64, "value": 0}, "group": "control_change"}, {"time": 570, "annotation": {"number": 64, "value": 127}, "group": "control_change"}, {"time": 579, "annotation": {"number": 64, "value": 0}, "group": "control_change"}, {"time": 582, "annotation": {"number": 64, "value": 127}, "group": "control_change"}, {"time": 591, "annotation": {"number": 64, "value": 0}, "group": "control_change"}, {"time": 593, "annotation": {"number": 64, "value": 127}, "group": "control_change"}, {"time": 602, "annotation": {"number": 64, "value": 0}, "group": "control_change"}, {"time": 605, "annotation": {"number": 64, "value": 127}, "group": "control_change"}, {"time": 614, "annotation": {"number": 64, "value": 0}, "group": "control_change"}, {"time": 617, "annotation": {"number": 64, "value": 127}, "group": "control_change"}, {"time": 627, "annotation": {"number": 64, "value": 0}, "group": "control_change"}, {"time": 629, "annotation": {"number": 64, "value": 127}, "group": "control_change"}, {"time": 638, "annotation": {"number": 64, "value": 0}, "group": "control_change"}, {"time": 642, "annotation": {"number": 64, "value": 127}, "group": "control_change"}, {"time": 651, "annotation": {"number": 64, "value": 0}, "group": "control_change"}, {"time": 654, "annotation": {"number": 64, "value": 127}, "group": "control_change"}, {"time": 663, "annotation": {"number": 64, "value": 0}, "group": "control_change"}, {"time": 665, "annotation": {"number": 64, "value": 127}, "group": "control_change"}, {"time": 674, "annotation": {"number": 64, "value": 0}, "group": "control_change"}, {"time": 677, "annotation": {"number": 64, "value": 127}, "group": "control_change"}, {"time": 686, "annotation": {"number": 64, "value": 0}, "group": "control_change"}, {"time": 689, "annotation": {"number": 64, "value": 127}, "group": "control_change"}, {"time": 698, "annotation": {"number": 64, "value": 0}, "group": "control_change"}, {"time": 701, "annotation": {"number": 64, "value": 127}, "group": "control_change"}, {"time": 711, "annotation": {"number": 64, "value": 0}, "group": "control_change"}, {"time": 714, "annotation": {"number": 64, "value": 127}, "group": "control_change"}, {"time": 723, "annotation": {"number": 64, "value": 0}, "group": "control_change"}, {"time": 725, "annotation": {"number": 64, "value": 127}, "group": "control_change"}, {"time": 734, "annotation": {"number": 64, "value": 0}, "group": "control_change"}, {"time": 737, "annotation": {"number": 64, "value": 127}, "group": "control_change"}, {"time": 747, "annotation": {"number": 64, "value": 0}, "group": "control_change"}, {"time": 749, "annotation": {"number": 64, "value": 127}, "group": "control_change"}, {"time": 759, "annotation": {"number": 64, "value": 0}, "group": "control_change"}, {"time": 761, "annotation": {"number": 64, "value": 127}, "group": "control_change"}, {"time": 770, "annotation": {"number": 64, "value": 0}, "group": "control_change"}, {"time": 773, "annotation": {"number": 64, "value": 127}, "group": "control_change"}, {"time": 782, "annotation": {"number": 64, "value": 0}, "group": "control_change"}, {"time": 785, "annotation": {"number": 64, "value": 127}, "group": "control_change"}, {"time": 794, "annotation": {"number": 64, "value": 0}, "group": "control_change"}, {"time": 797, "annotation": {"number": 64, "value": 127}, "group": "control_change"}, {"time": 806, "annotation": {"number": 64, "value": 0}, "group": "control_change"}, {"time": 809, "annotation": {"number": 64, "value": 127}, "group": "control_change"}, {"time": 818, "annotation": {"number": 64, "value": 0}, "group": "control_change"}, {"time": 821, "annotation": {"number": 64, "value": 127}, "group": "control_change"}, {"time": 830, "annotation": {"number": 64, "value": 0}, "group": "control_change"}, {"time": 833, "annotation": {"number": 64, "value": 127}, "group": "control_change"}, {"time": 842, "annotation": {"number": 64, "value": 0}, "group": "control_change"}, {"time": 846, "annotation": {"number": 64, "value": 127}, "group": "control_change"}, {"time": 848, "annotation": {"number": 64, "value": 0}, "group": "control_change"}, {"time": 894, "annotation": {"number": 64, "value": 127}, "group": "control_change"}, {"time": 903, "annotation": {"number": 64, "value": 0}, "group": "control_change"}, {"time": 905, "annotation": {"number": 64, "value": 127}, "group": "control_change"}, {"time": 914, "annotation": {"number": 64, "value": 0}, "group": "control_change"}, {"time": 917, "annotation": {"number": 64, "value": 127}, "group": "control_change"}, {"time": 926, "annotation": {"number": 64, "value": 0}, "group": "control_change"}, {"time": 929, "annotation": {"number": 64, "value": 127}, "group": "control_change"}, {"time": 939, "annotation": {"number": 64, "value": 0}, "group": "control_change"}, {"time": 942, "annotation": {"number": 64, "value": 127}, "group": "control_change"}, {"time": 951, "annotation": {"number": 64, "value": 0}, "group": "control_change"}, {"time": 953, "annotation": {"number": 64, "value": 127}, "group": "control_change"}, {"time": 963, "annotation": {"number": 64, "value": 0}, "group": "control_change"}, {"time": 965, "annotation": {"number": 64, "value": 127}, "group": "control_change"}, {"time": 974, "annotation": {"number": 64, "value": 0}, "group": "control_change"}, {"time": 977, "annotation": {"number": 64, "value": 127}, "group": "control_change"}, {"time": 987, "annotation": {"number": 64, "value": 0}, "group": "control_change"}, {"time": 990, "annotation": {"number": 64, "value": 127}, "group": "control_change"}, {"time": 998, "annotation": {"number": 64, "value": 0}, "group": "control_change"}, {"time": 1001, "annotation": {"number": 64, "value": 127}, "group": "control_change"}, {"time": 1010, "annotation": {"number": 64, "value": 0}, "group": "control_change"}, {"time": 1014, "annotation": {"number": 64, "value": 127}, "group": "control_change"}, {"time": 1022, "annotation": {"number": 64, "value": 0}, "group": "control_change"}, {"time": 1026, "annotation": {"number": 64, "value": 127}, "group": "control_change"}, {"time": 1034, "annotation": {"number": 64, "value": 0}, "group": "control_change"}, {"time": 1038, "annotation": {"number": 64, "value": 127}, "group": "control_change"}, {"time": 1046, "annotation": {"number": 64, "value": 0}, "group": "control_change"}, {"time": 1050, "annotation": {"number": 64, "value": 127}, "group": "control_change"}, {"time": 1059, "annotation": {"number": 64, "value": 0}, "group": "control_change"}, {"time": 1062, "annotation": {"number": 64, "value": 127}, "group": "control_change"}, {"time": 1071, "annotation": {"number": 64, "value": 0}, "group": "control_change"}, {"time": 1073, "annotation": {"number": 64, "value": 127}, "group": "control_change"}, {"time": 1094, "annotation": {"number": 64, "value": 0}, "group": "control_change"}, {"time": 1097, "annotation": {"number": 64, "value": 127}, "group": "control_change"}, {"time": 1106, "annotation": {"number": 64, "value": 0}, "group": "control_change"}, {"time": 1109, "annotation": {"number": 64, "value": 127}, "group": "control_change"}, {"time": 1118, "annotation": {"number": 64, "value": 0}, "group": "control_change"}, {"time": 1121, "annotation": {"number": 64, "value": 127}, "group": "control_change"}, {"time": 1131, "annotation": {"number": 64, "value": 0}, "group": "control_change"}, {"time": 1133, "annotation": {"number": 64, "value": 127}, "group": "control_change"}, {"time": 1143, "annotation": {"number": 64, "value": 0}, "group": "control_change"}, {"time": 1146, "annotation": {"number": 64, "value": 127}, "group": "control_change"}, {"time": 1154, "annotation": {"number": 64, "value": 0}, "group": "control_change"}, {"time": 1157, "annotation": {"number": 64, "value": 127}, "group": "control_change"}, {"time": 1166, "annotation": {"number": 64, "value": 0}, "group": "control_change"}, {"time": 1169, "annotation": {"number": 64, "value": 127}, "group": "control_change"}, {"time": 1179, "annotation": {"number": 64, "value": 0}, "group": "control_change"}, {"time": 1181, "annotation": {"number": 64, "value": 127}, "group": "control_change"}, {"time": 1190, "annotation": {"number": 64, "value": 0}, "group": "control_change"}, {"time": 1193, "annotation": {"number": 64, "value": 127}, "group": "control_change"}, {"time": 1202, "annotation": {"number": 64, "value": 0}, "group": "control_change"}, {"time": 1205, "annotation": {"number": 64, "value": 127}, "group": "control_change"}, {"time": 1214, "annotation": {"number": 64, "value": 0}, "group": "control_change"}, {"time": 1217, "annotation": {"number": 64, "value": 127}, "group": "control_change"}, {"time": 1226, "annotation": {"number": 64, "value": 0}, "group": "control_change"}, {"time": 1230, "annotation": {"number": 64, "value": 127}, "group": "control_change"}, {"time": 1239, "annotation": {"number": 64, "value": 0}, "group": "control_change"}, {"time": 1242, "annotation": {"number": 64, "value": 127}, "group": "control_change"}, {"time": 1251, "annotation": {"number": 64, "value": 0}, "group": "control_change"}, {"time": 1254, "annotation": {"number": 64, "value": 127}, "group": "control_change"}, {"time": 1261, "annotation": {"number": 64, "value": 0}, "group": "control_change"}, {"time": 1265, "annotation": {"number": 64, "value": 127}, "group": "control_change"}, {"time": 1274, "annotation": {"number": 64, "value": 0}, "group": "control_change"}, {"time": 1278, "annotation": {"number": 64, "value": 127}, "group": "control_change"}, {"time": 1286, "annotation": {"number": 64, "value": 0}, "group": "control_change"}, {"time": 1289, "annotation": {"number": 64, "value": 127}, "group": "control_change"}, {"time": 1299, "annotation": {"number": 64, "value": 0}, "group": "control_change"}, {"time": 1301, "annotation": {"number": 64, "value": 127}, "group": "control_change"}, {"time": 1310, "annotation": {"number": 64, "value": 0}, "group": "control_change"}, {"time": 1313, "annotation": {"number": 64, "value": 127}, "group": "control_change"}, {"time": 1322, "annotation": {"number": 64, "value": 0}, "group": "control_change"}, {"time": 1325, "annotation": {"number": 64, "value": 127}, "group": "control_change"}, {"time": 1334, "annotation": {"number": 64, "value": 0}, "group": "control_change"}, {"time": 1337, "annotation": {"number": 64, "value": 127}, "group": "control_change"}, {"time": 1346, "annotation": {"number": 64, "value": 0}, "group": "control_change"}, {"time": 1349, "annotation": {"number": 64, "value": 127}, "group": "control_change"}, {"time": 1358, "annotation": {"number": 64, "value": 0}, "group": "control_change"}, {"time": 1361, "annotation": {"number": 64, "value": 127}, "group": "control_change"}, {"time": 1370, "annotation": {"number": 64, "value": 0}, "group": "control_change"}, {"time": 1373, "annotation": {"number": 64, "value": 127}, "group": "control_change"}, {"time": 1383, "annotation": {"number": 64, "value": 0}, "group": "control_change"}, {"time": 1386, "annotation": {"number": 64, "value": 127}, "group": "control_change"}, {"time": 1394, "annotation": {"number": 64, "value": 0}, "group": "control_change"}, {"time": 1397, "annotation": {"number": 64, "value": 127}, "group": "control_change"}, {"time": 1405, "annotation": {"number": 64, "value": 0}, "group": "control_change"}, {"time": 1409, "annotation": {"number": 64, "value": 127}, "group": "control_change"}, {"time": 1419, "annotation": {"number": 64, "value": 0}, "group": "control_change"}, {"time": 1422, "annotation": {"number": 64, "value": 127}, "group": "control_change"}, {"time": 1430, "annotation": {"number": 64, "value": 0}, "group": "control_change"}, {"time": 1434, "annotation": {"number": 64, "value": 127}, "group": "control_change"}, {"time": 1442, "annotation": {"number": 64, "value": 0}, "group": "control_change"}, {"time": 1445, "annotation": {"number": 64, "value": 127}, "group": "control_change"}, {"time": 1454, "annotation": {"number": 64, "value": 0}, "group": "control_change"}, {"time": 1457, "annotation": {"number": 64, "value": 127}, "group": "control_change"}, {"time": 1459, "annotation": {"number": 64, "value": 0}, "group": "control_change"}, {"time": 1459, "annotation": {"number": 64, "value": 127}, "group": "control_change"}, {"time": 1465, "annotation": {"number": 64, "value": 0}, "group": "control_change"}, {"time": 1470, "annotation": {"number": 64, "value": 127}, "group": "control_change"}, {"time": 1479, "annotation": {"number": 64, "value": 0}, "group": "control_change"}, {"time": 1482, "annotation": {"number": 64, "value": 127}, "group": "control_change"}, {"time": 1489, "annotation": {"number": 64, "value": 0}, "group": "control_change"}, {"time": 1493, "annotation": {"number": 64, "value": 127}, "group": "control_change"}, {"time": 1501, "annotation": {"number": 64, "value": 0}, "group": "control_change"}, {"time": 1506, "annotation": {"number": 64, "value": 127}, "group": "control_change"}, {"time": 1515, "annotation": {"number": 64, "value": 0}, "group": "control_change"}, {"time": 1518, "annotation": {"number": 64, "value": 127}, "group": "control_change"}, {"time": 1527, "annotation": {"number": 64, "value": 0}, "group": "control_change"}, {"time": 1530, "annotation": {"number": 64, "value": 127}, "group": "control_change"}, {"time": 1538, "annotation": {"number": 64, "value": 0}, "group": "control_change"}, {"time": 1541, "annotation": {"number": 64, "value": 127}, "group": "control_change"}, {"time": 1550, "annotation": {"number": 64, "value": 0}, "group": "control_change"}, {"time": 1553, "annotation": {"number": 64, "value": 127}, "group": "control_change"}, {"time": 1563, "annotation": {"number": 64, "value": 0}, "group": "control_change"}, {"time": 1566, "annotation": {"number": 64, "value": 127}, "group": "control_change"}, {"time": 1574, "annotation": {"number": 64, "value": 0}, "group": "control_change"}, {"time": 1578, "annotation": {"number": 64, "value": 127}, "group": "control_change"}, {"time": 1586, "annotation": {"number": 64, "value": 0}, "group": "control_change"}, {"time": 1601, "annotation": {"number": 64, "value": 127}, "group": "control_change"}, {"time": 1603, "annotation": {"number": 64, "value": 0}, "group": "control_change"}, {"time": 1613, "annotation": {"number": 64, "value": 127}, "group": "control_change"}, {"time": 1621, "annotation": {"number": 64, "value": 0}, "group": "control_change"}, {"time": 1626, "annotation": {"number": 64, "value": 127}, "group": "control_change"}, {"time": 1631, "annotation": {"number": 64, "value": 0}, "group": "control_change"}, {"time": 1637, "annotation": {"number": 64, "value": 127}, "group": "control_change"}, {"time": 1644, "annotation": {"number": 64, "value": 0}, "group": "control_change"}, {"time": 1649, "annotation": {"number": 64, "value": 127}, "group": "control_change"}, {"time": 1650, "annotation": {"number": 64, "value": 0}, "group": "control_change"}, {"time": 1662, "annotation": {"number": 64, "value": 127}, "group": "control_change"}, {"time": 1669, "annotation": {"number": 64, "value": 0}, "group": "control_change"}, {"time": 1674, "annotation": {"number": 64, "value": 127}, "group": "control_change"}, {"time": 1681, "annotation": {"number": 64, "value": 0}, "group": "control_change"}, {"time": 1686, "annotation": {"number": 64, "value": 127}, "group": "control_change"}, {"time": 1692, "annotation": {"number": 64, "value": 0}, "group": "control_change"}, {"time": 1698, "annotation": {"number": 64, "value": 127}, "group": "control_change"}, {"time": 1702, "annotation": {"number": 64, "value": 0}, "group": "control_change"}, {"time": 1710, "annotation": {"number": 64, "value": 127}, "group": "control_change"}, {"time": 1716, "annotation": {"number": 64, "value": 0}, "group": "control_change"}, {"time": 1722, "annotation": {"number": 64, "value": 127}, "group": "control_change"}, {"time": 1729, "annotation": {"number": 64, "value": 0}, "group": "control_change"}, {"time": 1734, "annotation": {"number": 64, "value": 127}, "group": "control_change"}, {"time": 1735, "annotation": {"number": 64, "value": 0}, "group": "control_change"}, {"time": 1745, "annotation": {"number": 64, "value": 127}, "group": "control_change"}, {"time": 1753, "annotation": {"number": 64, "value": 0}, "group": "control_change"}, {"time": 1758, "annotation": {"number": 64, "value": 127}, "group": "control_change"}, {"time": 1764, "annotation": {"number": 64, "value": 0}, "group": "control_change"}, {"time": 1770, "annotation": {"number": 64, "value": 127}, "group": "control_change"}, {"time": 1778, "annotation": {"number": 64, "value": 0}, "group": "control_change"}, {"time": 1782, "annotation": {"number": 64, "value": 127}, "group": "control_change"}, {"time": 1788, "annotation": {"number": 64, "value": 0}, "group": "control_change"}, {"time": 1794, "annotation": {"number": 64, "value": 127}, "group": "control_change"}, {"time": 1801, "annotation": {"number": 64, "value": 0}, "group": "control_change"}, {"time": 1806, "annotation": {"number": 64, "value": 127}, "group": "control_change"}, {"time": 1812, "annotation": {"number": 64, "value": 0}, "group": "control_change"}, {"time": 1817, "annotation": {"number": 64, "value": 127}, "group": "control_change"}, {"time": 1825, "annotation": {"number": 64, "value": 0}, "group": "control_change"}, {"time": 1829, "annotation": {"number": 64, "value": 127}, "group": "control_change"}, {"time": 1835, "annotation": {"number": 64, "value": 0}, "group": "control_change"}, {"time": 1841, "annotation": {"number": 64, "value": 127}, "group": "control_change"}, {"time": 1848, "annotation": {"number": 64, "value": 0}, "group": "control_change"}, {"time": 1854, "annotation": {"number": 64, "value": 127}, "group": "control_change"}, {"time": 1861, "annotation": {"number": 64, "value": 0}, "group": "control_change"}, {"time": 1866, "annotation": {"number": 64, "value": 127}, "group": "control_change"}, {"time": 1873, "annotation": {"number": 64, "value": 0}, "group": "control_change"}, {"time": 1877, "annotation": {"number": 64, "value": 127}, "group": "control_change"}, {"time": 1884, "annotation": {"number": 64, "value": 0}, "group": "control_change"}, {"time": 1890, "annotation": {"number": 64, "value": 127}, "group": "control_change"}, {"time": 1897, "annotation": {"number": 64, "value": 0}, "group": "control_change"}, {"time": 1902, "annotation": {"number": 64, "value": 127}, "group": "control_change"}, {"time": 1908, "annotation": {"number": 64, "value": 0}, "group": "control_change"}, {"time": 1913, "annotation": {"number": 64, "value": 127}, "group": "control_change"}, {"time": 1921, "annotation": {"number": 64, "value": 0}, "group": "control_change"}, {"time": 1926, "annotation": {"number": 64, "value": 127}, "group": "control_change"}, {"time": 1932, "annotation": {"number": 64, "value": 0}, "group": "control_change"}, {"time": 1937, "annotation": {"number": 64, "value": 127}, "group": "control_change"}, {"time": 1945, "annotation": {"number": 64, "value": 0}, "group": "control_change"}, {"time": 1949, "annotation": {"number": 64, "value": 127}, "group": "control_change"}, {"time": 1956, "annotation": {"number": 64, "value": 0}, "group": "control_change"}, {"time": 1961, "annotation": {"number": 64, "value": 127}, "group": "control_change"}, {"time": 1969, "annotation": {"number": 64, "value": 0}, "group": "control_change"}, {"time": 1973, "annotation": {"number": 64, "value": 127}, "group": "control_change"}, {"time": 1980, "annotation": {"number": 64, "value": 0}, "group": "control_change"}, {"time": 2045, "annotation": {"number": 64, "value": 127}, "group": "control_change"}, {"time": 2093, "annotation": {"number": 64, "value": 0}, "group": "control_change"}, {"time": 2094, "annotation": {"number": 64, "value": 127}, "group": "control_change"}, {"time": 2095, "annotation": {"number": 64, "value": 0}, "group": "control_change"}, {"time": 2097, "annotation": {"number": 64, "value": 127}, "group": "control_change"}, {"time": 2099, "annotation": {"number": 64, "value": 0}, "group": "control_change"}, {"time": 2105, "annotation": {"number": 64, "value": 127}, "group": "control_change"}, {"time": 2186, "annotation": {"number": 64, "value": 0}, "group": "control_change"}, {"time": 2190, "annotation": {"number": 64, "value": 127}, "group": "control_change"}, {"time": 2329, "annotation": {"number": 64, "value": 0}, "group": "control_change"}, {"time": 2334, "annotation": {"number": 64, "value": 127}, "group": "control_change"}, {"time": 2378, "annotation": {"number": 64, "value": 0}, "group": "control_change"}, {"time": 2430, "annotation": {"number": 64, "value": 127}, "group": "control_change"}, {"time": 2451, "annotation": {"number": 64, "value": 0}, "group": "control_change"}, {"time": 2453, "annotation": {"number": 64, "value": 127}, "group": "control_change"}, {"time": 2463, "annotation": {"number": 64, "value": 0}, "group": "control_change"}, {"time": 2466, "annotation": {"number": 64, "value": 127}, "group": "control_change"}, {"time": 2476, "annotation": {"number": 64, "value": 0}, "group": "control_change"}, {"time": 2479, "annotation": {"number": 64, "value": 127}, "group": "control_change"}, {"time": 2488, "annotation": {"number": 64, "value": 0}, "group": "control_change"}, {"time": 2490, "annotation": {"number": 64, "value": 127}, "group": "control_change"}, {"time": 2500, "annotation": {"number": 64, "value": 0}, "group": "control_change"}, {"time": 2502, "annotation": {"number": 64, "value": 127}, "group": "control_change"}, {"time": 2512, "annotation": {"number": 64, "value": 0}, "group": "control_change"}, {"time": 2514, "annotation": {"number": 64, "value": 127}, "group": "control_change"}, {"time": 2524, "annotation": {"number": 64, "value": 0}, "group": "control_change"}, {"time": 2526, "annotation": {"number": 64, "value": 127}, "group": "control_change"}, {"time": 2536, "annotation": {"number": 64, "value": 0}, "group": "control_change"}, {"time": 2538, "annotation": {"number": 64, "value": 127}, "group": "control_change"}, {"time": 2547, "annotation": {"number": 64, "value": 0}, "group": "control_change"}, {"time": 2550, "annotation": {"number": 64, "value": 127}, "group": "control_change"}, {"time": 2559, "annotation": {"number": 64, "value": 0}, "group": "control_change"}, {"time": 2562, "annotation": {"number": 64, "value": 127}, "group": "control_change"}, {"time": 2572, "annotation": {"number": 64, "value": 0}, "group": "control_change"}, {"time": 2574, "annotation": {"number": 64, "value": 127}, "group": "control_change"}, {"time": 2584, "annotation": {"number": 64, "value": 0}, "group": "control_change"}, {"time": 2587, "annotation": {"number": 64, "value": 127}, "group": "control_change"}, {"time": 2596, "annotation": {"number": 64, "value": 0}, "group": "control_change"}, {"time": 2598, "annotation": {"number": 64, "value": 127}, "group": "control_change"}, {"time": 2607, "annotation": {"number": 64, "value": 0}, "group": "control_change"}, {"time": 2610, "annotation": {"number": 64, "value": 127}, "group": "control_change"}, {"time": 2620, "annotation": {"number": 64, "value": 0}, "group": "control_change"}, {"time": 2622, "annotation": {"number": 64, "value": 127}, "group": "control_change"}, {"time": 2631, "annotation": {"number": 64, "value": 0}, "group": "control_change"}, {"time": 2634, "annotation": {"number": 64, "value": 127}, "group": "control_change"}, {"time": 2644, "annotation": {"number": 64, "value": 0}, "group": "control_change"}, {"time": 2646, "annotation": {"number": 64, "value": 127}, "group": "control_change"}, {"time": 2655, "annotation": {"number": 64, "value": 0}, "group": "control_change"}, {"time": 2658, "annotation": {"number": 64, "value": 127}, "group": "control_change"}, {"time": 2668, "annotation": {"number": 64, "value": 0}, "group": "control_change"}, {"time": 2670, "annotation": {"number": 64, "value": 127}, "group": "control_change"}, {"time": 2680, "annotation": {"number": 64, "value": 0}, "group": "control_change"}, {"time": 2681, "annotation": {"number": 64, "value": 127}, "group": "control_change"}, {"time": 2691, "annotation": {"number": 64, "value": 0}, "group": "control_change"}, {"time": 2693, "annotation": {"number": 64, "value": 127}, "group": "control_change"}, {"time": 2703, "annotation": {"number": 64, "value": 0}, "group": "control_change"}, {"time": 2706, "annotation": {"number": 64, "value": 127}, "group": "control_change"}, {"time": 2715, "annotation": {"number": 64, "value": 0}, "group": "control_change"}, {"time": 2718, "annotation": {"number": 64, "value": 127}, "group": "control_change"}, {"time": 2728, "annotation": {"number": 64, "value": 0}, "group": "control_change"}, {"time": 2730, "annotation": {"number": 64, "value": 127}, "group": "control_change"}, {"time": 2738, "annotation": {"number": 64, "value": 0}, "group": "control_change"}, {"time": 2741, "annotation": {"number": 64, "value": 127}, "group": "control_change"}, {"time": 2751, "annotation": {"number": 64, "value": 0}, "group": "control_change"}, {"time": 2754, "annotation": {"number": 64, "value": 127}, "group": "control_change"}, {"time": 2763, "annotation": {"number": 64, "value": 0}, "group": "control_change"}, {"time": 2766, "annotation": {"number": 64, "value": 127}, "group": "control_change"}, {"time": 2767, "annotation": {"number": 64, "value": 0}, "group": "control_change"}, {"time": 2769, "annotation": {"number": 64, "value": 127}, "group": "control_change"}, {"time": 2769, "annotation": {"number": 64, "value": 0}, "group": "control_change"}, {"time": 2814, "annotation": {"number": 64, "value": 127}, "group": "control_change"}, {"time": 2825, "annotation": {"number": 64, "value": 0}, "group": "control_change"}, {"time": 2826, "annotation": {"number": 64, "value": 127}, "group": "control_change"}, {"time": 2835, "annotation": {"number": 64, "value": 0}, "group": "control_change"}, {"time": 2838, "annotation": {"number": 64, "value": 127}, "group": "control_change"}, {"time": 2847, "annotation": {"number": 64, "value": 0}, "group": "control_change"}, {"time": 2850, "annotation": {"number": 64, "value": 127}, "group": "control_change"}, {"time": 2860, "annotation": {"number": 64, "value": 0}, "group": "control_change"}, {"time": 2862, "annotation": {"number": 64, "value": 127}, "group": "control_change"}, {"time": 2872, "annotation": {"number": 64, "value": 0}, "group": "control_change"}, {"time": 2874, "annotation": {"number": 64, "value": 127}, "group": "control_change"}, {"time": 2884, "annotation": {"number": 64, "value": 0}, "group": "control_change"}, {"time": 2886, "annotation": {"number": 64, "value": 127}, "group": "control_change"}, {"time": 2895, "annotation": {"number": 64, "value": 0}, "group": "control_change"}, {"time": 2898, "annotation": {"number": 64, "value": 127}, "group": "control_change"}, {"time": 2907, "annotation": {"number": 64, "value": 0}, "group": "control_change"}, {"time": 2910, "annotation": {"number": 64, "value": 127}, "group": "control_change"}, {"time": 2919, "annotation": {"number": 64, "value": 0}, "group": "control_change"}, {"time": 2922, "annotation": {"number": 64, "value": 127}, "group": "control_change"}, {"time": 2931, "annotation": {"number": 64, "value": 0}, "group": "control_change"}, {"time": 2934, "annotation": {"number": 64, "value": 127}, "group": "control_change"}, {"time": 2943, "annotation": {"number": 64, "value": 0}, "group": "control_change"}, {"time": 2946, "annotation": {"number": 64, "value": 127}, "group": "control_change"}, {"time": 2955, "annotation": {"number": 64, "value": 0}, "group": "control_change"}, {"time": 2958, "annotation": {"number": 64, "value": 127}, "group": "control_change"}, {"time": 2967, "annotation": {"number": 64, "value": 0}, "group": "control_change"}, {"time": 2970, "annotation": {"number": 64, "value": 127}, "group": "control_change"}, {"time": 2979, "annotation": {"number": 64, "value": 0}, "group": "control_change"}, {"time": 2981, "annotation": {"number": 64, "value": 127}, "group": "control_change"}, {"time": 2991, "annotation": {"number": 64, "value": 0}, "group": "control_change"}, {"time": 2993, "annotation": {"number": 64, "value": 127}, "group": "control_change"}, {"time": 3003, "annotation": {"number": 64, "value": 0}, "group": "control_change"}, {"time": 3005, "annotation": {"number": 64, "value": 127}, "group": "control_change"}, {"time": 3015, "annotation": {"number": 64, "value": 0}, "group": "control_change"}, {"time": 3018, "annotation": {"number": 64, "value": 127}, "group": "control_change"}, {"time": 3027, "annotation": {"number": 64, "value": 0}, "group": "control_change"}, {"time": 3030, "annotation": {"number": 64, "value": 127}, "group": "control_change"}, {"time": 3039, "annotation": {"number": 64, "value": 0}, "group": "control_change"}, {"time": 3042, "annotation": {"number": 64, "value": 127}, "group": "control_change"}, {"time": 3051, "annotation": {"number": 64, "value": 0}, "group": "control_change"}, {"time": 3054, "annotation": {"number": 64, "value": 127}, "group": "control_change"}, {"time": 3063, "annotation": {"number": 64, "value": 0}, "group": "control_change"}, {"time": 3066, "annotation": {"number": 64, "value": 127}, "group": "control_change"}, {"time": 3075, "annotation": {"number": 64, "value": 0}, "group": "control_change"}, {"time": 3077, "annotation": {"number": 64, "value": 127}, "group": "control_change"}, {"time": 3086, "annotation": {"number": 64, "value": 0}, "group": "control_change"}, {"time": 3089, "annotation": {"number": 64, "value": 127}, "group": "control_change"}, {"time": 3098, "annotation": {"number": 64, "value": 0}, "group": "control_change"}, {"time": 3102, "annotation": {"number": 64, "value": 127}, "group": "control_change"}, {"time": 3111, "annotation": {"number": 64, "value": 0}, "group": "control_change"}, {"time": 3114, "annotation": {"number": 64, "value": 127}, "group": "control_change"}, {"time": 3123, "annotation": {"number": 64, "value": 0}, "group": "control_change"}, {"time": 3126, "annotation": {"number": 64, "value": 127}, "group": "control_change"}, {"time": 3135, "annotation": {"number": 64, "value": 0}, "group": "control_change"}, {"time": 3137, "annotation": {"number": 64, "value": 127}, "group": "control_change"}, {"time": 3146, "annotation": {"number": 64, "value": 0}, "group": "control_change"}, {"time": 3150, "annotation": {"number": 64, "value": 127}, "group": "control_change"}, {"time": 3152, "annotation": {"number": 64, "value": 0}, "group": "control_change"}, {"time": 3199, "annotation": {"number": 64, "value": 127}, "group": "control_change"}, {"time": 3207, "annotation": {"number": 64, "value": 0}, "group": "control_change"}, {"time": 3210, "annotation": {"number": 64, "value": 127}, "group": "control_change"}, {"time": 3219, "annotation": {"number": 64, "value": 0}, "group": "control_change"}, {"time": 3222, "annotation": {"number": 64, "value": 127}, "group": "control_change"}, {"time": 3231, "annotation": {"number": 64, "value": 0}, "group": "control_change"}, {"time": 3234, "annotation": {"number": 64, "value": 127}, "group": "control_change"}, {"time": 3243, "annotation": {"number": 64, "value": 0}, "group": "control_change"}, {"time": 3246, "annotation": {"number": 64, "value": 127}, "group": "control_change"}, {"time": 3255, "annotation": {"number": 64, "value": 0}, "group": "control_change"}, {"time": 3258, "annotation": {"number": 64, "value": 127}, "group": "control_change"}, {"time": 3267, "annotation": {"number": 64, "value": 0}, "group": "control_change"}, {"time": 3270, "annotation": {"number": 64, "value": 127}, "group": "control_change"}, {"time": 3279, "annotation": {"number": 64, "value": 0}, "group": "control_change"}, {"time": 3282, "annotation": {"number": 64, "value": 127}, "group": "control_change"}, {"time": 3291, "annotation": {"number": 64, "value": 0}, "group": "control_change"}, {"time": 3294, "annotation": {"number": 64, "value": 127}, "group": "control_change"}, {"time": 3303, "annotation": {"number": 64, "value": 0}, "group": "control_change"}, {"time": 3306, "annotation": {"number": 64, "value": 127}, "group": "control_change"}, {"time": 3315, "annotation": {"number": 64, "value": 0}, "group": "control_change"}, {"time": 3318, "annotation": {"number": 64, "value": 127}, "group": "control_change"}, {"time": 3326, "annotation": {"number": 64, "value": 0}, "group": "control_change"}, {"time": 3330, "annotation": {"number": 64, "value": 127}, "group": "control_change"}, {"time": 3339, "annotation": {"number": 64, "value": 0}, "group": "control_change"}, {"time": 3342, "annotation": {"number": 64, "value": 127}, "group": "control_change"}, {"time": 3351, "annotation": {"number": 64, "value": 0}, "group": "control_change"}, {"time": 3354, "annotation": {"number": 64, "value": 127}, "group": "control_change"}, {"time": 3363, "annotation": {"number": 64, "value": 0}, "group": "control_change"}, {"time": 3366, "annotation": {"number": 64, "value": 127}, "group": "control_change"}, {"time": 3376, "annotation": {"number": 64, "value": 0}, "group": "control_change"}, {"time": 3378, "annotation": {"number": 64, "value": 127}, "group": "control_change"}, {"time": 3398, "annotation": {"number": 64, "value": 0}, "group": "control_change"}, {"time": 3401, "annotation": {"number": 64, "value": 127}, "group": "control_change"}, {"time": 3410, "annotation": {"number": 64, "value": 0}, "group": "control_change"}, {"time": 3413, "annotation": {"number": 64, "value": 127}, "group": "control_change"}, {"time": 3422, "annotation": {"number": 64, "value": 0}, "group": "control_change"}, {"time": 3425, "annotation": {"number": 64, "value": 127}, "group": "control_change"}, {"time": 3435, "annotation": {"number": 64, "value": 0}, "group": "control_change"}, {"time": 3438, "annotation": {"number": 64, "value": 127}, "group": "control_change"}, {"time": 3447, "annotation": {"number": 64, "value": 0}, "group": "control_change"}, {"time": 3450, "annotation": {"number": 64, "value": 127}, "group": "control_change"}, {"time": 3458, "annotation": {"number": 64, "value": 0}, "group": "control_change"}, {"time": 3461, "annotation": {"number": 64, "value": 127}, "group": "control_change"}, {"time": 3470, "annotation": {"number": 64, "value": 0}, "group": "control_change"}, {"time": 3473, "annotation": {"number": 64, "value": 127}, "group": "control_change"}, {"time": 3483, "annotation": {"number": 64, "value": 0}, "group": "control_change"}, {"time": 3486, "annotation": {"number": 64, "value": 127}, "group": "control_change"}, {"time": 3495, "annotation": {"number": 64, "value": 0}, "group": "control_change"}, {"time": 3498, "annotation": {"number": 64, "value": 127}, "group": "control_change"}, {"time": 3507, "annotation": {"number": 64, "value": 0}, "group": "control_change"}, {"time": 3510, "annotation": {"number": 64, "value": 127}, "group": "control_change"}, {"time": 3518, "annotation": {"number": 64, "value": 0}, "group": "control_change"}, {"time": 3521, "annotation": {"number": 64, "value": 127}, "group": "control_change"}, {"time": 3530, "annotation": {"number": 64, "value": 0}, "group": "control_change"}, {"time": 3534, "annotation": {"number": 64, "value": 127}, "group": "control_change"}, {"time": 3543, "annotation": {"number": 64, "value": 0}, "group": "control_change"}, {"time": 3546, "annotation": {"number": 64, "value": 127}, "group": "control_change"}, {"time": 3555, "annotation": {"number": 64, "value": 0}, "group": "control_change"}, {"time": 3558, "annotation": {"number": 64, "value": 127}, "group": "control_change"}, {"time": 3566, "annotation": {"number": 64, "value": 0}, "group": "control_change"}, {"time": 3569, "annotation": {"number": 64, "value": 127}, "group": "control_change"}, {"time": 3579, "annotation": {"number": 64, "value": 0}, "group": "control_change"}, {"time": 3582, "annotation": {"number": 64, "value": 127}, "group": "control_change"}, {"time": 3590, "annotation": {"number": 64, "value": 0}, "group": "control_change"}, {"time": 3594, "annotation": {"number": 64, "value": 127}, "group": "control_change"}, {"time": 3603, "annotation": {"number": 64, "value": 0}, "group": "control_change"}, {"time": 3606, "annotation": {"number": 64, "value": 127}, "group": "control_change"}, {"time": 3614, "annotation": {"number": 64, "value": 0}, "group": "control_change"}, {"time": 3618, "annotation": {"number": 64, "value": 127}, "group": "control_change"}, {"time": 3626, "annotation": {"number": 64, "value": 0}, "group": "control_change"}, {"time": 3630, "annotation": {"number": 64, "value": 127}, "group": "control_change"}, {"time": 3639, "annotation": {"number": 64, "value": 0}, "group": "control_change"}, {"time": 3642, "annotation": {"number": 64, "value": 127}, "group": "control_change"}, {"time": 3650, "annotation": {"number": 64, "value": 0}, "group": "control_change"}, {"time": 3654, "annotation": {"number": 64, "value": 127}, "group": "control_change"}, {"time": 3663, "annotation": {"number": 64, "value": 0}, "group": "control_change"}, {"time": 3666, "annotation": {"number": 64, "value": 127}, "group": "control_change"}, {"time": 3675, "annotation": {"number": 64, "value": 0}, "group": "control_change"}, {"time": 3678, "annotation": {"number": 64, "value": 127}, "group": "control_change"}, {"time": 3687, "annotation": {"number": 64, "value": 0}, "group": "control_change"}, {"time": 3690, "annotation": {"number": 64, "value": 127}, "group": "control_change"}, {"time": 3698, "annotation": {"number": 64, "value": 0}, "group": "control_change"}, {"time": 3702, "annotation": {"number": 64, "value": 127}, "group": "control_change"}, {"time": 3710, "annotation": {"number": 64, "value": 0}, "group": "control_change"}, {"time": 3714, "annotation": {"number": 64, "value": 127}, "group": "control_change"}, {"time": 3723, "annotation": {"number": 64, "value": 0}, "group": "control_change"}, {"time": 3726, "annotation": {"number": 64, "value": 127}, "group": "control_change"}, {"time": 3735, "annotation": {"number": 64, "value": 0}, "group": "control_change"}, {"time": 3738, "annotation": {"number": 64, "value": 127}, "group": "control_change"}, {"time": 3747, "annotation": {"number": 64, "value": 0}, "group": "control_change"}, {"time": 3750, "annotation": {"number": 64, "value": 127}, "group": "control_change"}, {"time": 3758, "annotation": {"number": 64, "value": 0}, "group": "control_change"}, {"time": 3762, "annotation": {"number": 64, "value": 127}, "group": "control_change"}, {"time": 3763, "annotation": {"number": 64, "value": 0}, "group": "control_change"}, {"time": 3764, "annotation": {"number": 64, "value": 127}, "group": "control_change"}, {"time": 3770, "annotation": {"number": 64, "value": 0}, "group": "control_change"}, {"time": 3774, "annotation": {"number": 64, "value": 127}, "group": "control_change"}, {"time": 3783, "annotation": {"number": 64, "value": 0}, "group": "control_change"}, {"time": 3786, "annotation": {"number": 64, "value": 127}, "group": "control_change"}, {"time": 3793, "annotation": {"number": 64, "value": 0}, "group": "control_change"}, {"time": 3798, "annotation": {"number": 64, "value": 127}, "group": "control_change"}, {"time": 3806, "annotation": {"number": 64, "value": 0}, "group": "control_change"}, {"time": 3810, "annotation": {"number": 64, "value": 127}, "group": "control_change"}, {"time": 3820, "annotation": {"number": 64, "value": 0}, "group": "control_change"}, {"time": 3822, "annotation": {"number": 64, "value": 127}, "group": "control_change"}, {"time": 3831, "annotation": {"number": 64, "value": 0}, "group": "control_change"}, {"time": 3834, "annotation": {"number": 64, "value": 127}, "group": "control_change"}, {"time": 3843, "annotation": {"number": 64, "value": 0}, "group": "control_change"}, {"time": 3846, "annotation": {"number": 64, "value": 127}, "group": "control_change"}, {"time": 3854, "annotation": {"number": 64, "value": 0}, "group": "control_change"}, {"time": 3857, "annotation": {"number": 64, "value": 127}, "group": "control_change"}, {"time": 3867, "annotation": {"number": 64, "value": 0}, "group": "control_change"}, {"time": 3870, "annotation": {"number": 64, "value": 127}, "group": "control_change"}, {"time": 3878, "annotation": {"number": 64, "value": 0}, "group": "control_change"}, {"time": 3882, "annotation": {"number": 64, "value": 127}, "group": "control_change"}, {"time": 3891, "annotation": {"number": 64, "value": 0}, "group": "control_change"}, {"time": 3906, "annotation": {"number": 64, "value": 127}, "group": "control_change"}, {"time": 3907, "annotation": {"number": 64, "value": 0}, "group": "control_change"}, {"time": 3918, "annotation": {"number": 64, "value": 127}, "group": "control_change"}, {"time": 3926, "annotation": {"number": 64, "value": 0}, "group": "control_change"}, {"time": 3930, "annotation": {"number": 64, "value": 127}, "group": "control_change"}, {"time": 3936, "annotation": {"number": 64, "value": 0}, "group": "control_change"}, {"time": 3942, "annotation": {"number": 64, "value": 127}, "group": "control_change"}, {"time": 3948, "annotation": {"number": 64, "value": 0}, "group": "control_change"}, {"time": 3954, "annotation": {"number": 64, "value": 127}, "group": "control_change"}, {"time": 3955, "annotation": {"number": 64, "value": 0}, "group": "control_change"}, {"time": 3966, "annotation": {"number": 64, "value": 127}, "group": "control_change"}, {"time": 3973, "annotation": {"number": 64, "value": 0}, "group": "control_change"}, {"time": 3978, "annotation": {"number": 64, "value": 127}, "group": "control_change"}, {"time": 3986, "annotation": {"number": 64, "value": 0}, "group": "control_change"}, {"time": 3990, "annotation": {"number": 64, "value": 127}, "group": "control_change"}, {"time": 3997, "annotation": {"number": 64, "value": 0}, "group": "control_change"}, {"time": 4002, "annotation": {"number": 64, "value": 127}, "group": "control_change"}, {"time": 4007, "annotation": {"number": 64, "value": 0}, "group": "control_change"}, {"time": 4014, "annotation": {"number": 64, "value": 127}, "group": "control_change"}, {"time": 4020, "annotation": {"number": 64, "value": 0}, "group": "control_change"}, {"time": 4026, "annotation": {"number": 64, "value": 127}, "group": "control_change"}, {"time": 4033, "annotation": {"number": 64, "value": 0}, "group": "control_change"}, {"time": 4038, "annotation": {"number": 64, "value": 127}, "group": "control_change"}, {"time": 4039, "annotation": {"number": 64, "value": 0}, "group": "control_change"}, {"time": 4050, "annotation": {"number": 64, "value": 127}, "group": "control_change"}, {"time": 4058, "annotation": {"number": 64, "value": 0}, "group": "control_change"}, {"time": 4063, "annotation": {"number": 64, "value": 127}, "group": "control_change"}, {"time": 4069, "annotation": {"number": 64, "value": 0}, "group": "control_change"}, {"time": 4074, "annotation": {"number": 64, "value": 127}, "group": "control_change"}, {"time": 4082, "annotation": {"number": 64, "value": 0}, "group": "control_change"}, {"time": 4086, "annotation": {"number": 64, "value": 127}, "group": "control_change"}, {"time": 4093, "annotation": {"number": 64, "value": 0}, "group": "control_change"}, {"time": 4098, "annotation": {"number": 64, "value": 127}, "group": "control_change"}, {"time": 4106, "annotation": {"number": 64, "value": 0}, "group": "control_change"}, {"time": 4110, "annotation": {"number": 64, "value": 127}, "group": "control_change"}, {"time": 4117, "annotation": {"number": 64, "value": 0}, "group": "control_change"}, {"time": 4122, "annotation": {"number": 64, "value": 127}, "group": "control_change"}, {"time": 4130, "annotation": {"number": 64, "value": 0}, "group": "control_change"}, {"time": 4134, "annotation": {"number": 64, "value": 127}, "group": "control_change"}, {"time": 4139, "annotation": {"number": 64, "value": 0}, "group": "control_change"}, {"time": 4146, "annotation": {"number": 64, "value": 127}, "group": "control_change"}, {"time": 4153, "annotation": {"number": 64, "value": 0}, "group": "control_change"}, {"time": 4158, "annotation": {"number": 64, "value": 127}, "group": "control_change"}, {"time": 4165, "annotation": {"number": 64, "value": 0}, "group": "control_change"}, {"time": 4170, "annotation": {"number": 64, "value": 127}, "group": "control_change"}, {"time": 4177, "annotation": {"number": 64, "value": 0}, "group": "control_change"}, {"time": 4182, "annotation": {"number": 64, "value": 127}, "group": "control_change"}, {"time": 4188, "annotation": {"number": 64, "value": 0}, "group": "control_change"}, {"time": 4194, "annotation": {"number": 64, "value": 127}, "group": "control_change"}, {"time": 4202, "annotation": {"number": 64, "value": 0}, "group": "control_change"}, {"time": 4206, "annotation": {"number": 64, "value": 127}, "group": "control_change"}, {"time": 4213, "annotation": {"number": 64, "value": 0}, "group": "control_change"}, {"time": 4217, "annotation": {"number": 64, "value": 127}, "group": "control_change"}, {"time": 4225, "annotation": {"number": 64, "value": 0}, "group": "control_change"}, {"time": 4230, "annotation": {"number": 64, "value": 127}, "group": "control_change"}, {"time": 4236, "annotation": {"number": 64, "value": 0}, "group": "control_change"}, {"time": 4241, "annotation": {"number": 64, "value": 127}, "group": "control_change"}, {"time": 4249, "annotation": {"number": 64, "value": 0}, "group": "control_change"}, {"time": 4254, "annotation": {"number": 64, "value": 127}, "group": "control_change"}, {"time": 4261, "annotation": {"number": 64, "value": 0}, "group": "control_change"}, {"time": 4265, "annotation": {"number": 64, "value": 127}, "group": "control_change"}, {"time": 4273, "annotation": {"number": 64, "value": 0}, "group": "control_change"}, {"time": 4278, "annotation": {"number": 64, "value": 127}, "group": "control_change"}, {"time": 4284, "annotation": {"number": 64, "value": 0}, "group": "control_change"}, {"time": 4302, "annotation": {"number": 64, "value": 127}, "group": "control_change"}, {"time": 4311, "annotation": {"number": 64, "value": 0}, "group": "control_change"}, {"time": 4314, "annotation": {"number": 64, "value": 127}, "group": "control_change"}, {"time": 4323, "annotation": {"number": 64, "value": 0}, "group": "control_change"}, {"time": 4326, "annotation": {"number": 64, "value": 127}, "group": "control_change"}, {"time": 4334, "annotation": {"number": 64, "value": 0}, "group": "control_change"}, {"time": 4337, "annotation": {"number": 64, "value": 127}, "group": "control_change"}, {"time": 4347, "annotation": {"number": 64, "value": 0}, "group": "control_change"}, {"time": 4350, "annotation": {"number": 64, "value": 127}, "group": "control_change"}, {"time": 4358, "annotation": {"number": 64, "value": 0}, "group": "control_change"}, {"time": 4362, "annotation": {"number": 64, "value": 127}, "group": "control_change"}, {"time": 4371, "annotation": {"number": 64, "value": 0}, "group": "control_change"}, {"time": 4374, "annotation": {"number": 64, "value": 127}, "group": "control_change"}, {"time": 4382, "annotation": {"number": 64, "value": 0}, "group": "control_change"}, {"time": 4386, "annotation": {"number": 64, "value": 127}, "group": "control_change"}, {"time": 4394, "annotation": {"number": 64, "value": 0}, "group": "control_change"}, {"time": 4398, "annotation": {"number": 64, "value": 127}, "group": "control_change"}, {"time": 4407, "annotation": {"number": 64, "value": 0}, "group": "control_change"}, {"time": 4410, "annotation": {"number": 64, "value": 127}, "group": "control_change"}, {"time": 4418, "annotation": {"number": 64, "value": 0}, "group": "control_change"}, {"time": 4422, "annotation": {"number": 64, "value": 127}, "group": "control_change"}, {"time": 4431, "annotation": {"number": 64, "value": 0}, "group": "control_change"}, {"time": 4434, "annotation": {"number": 64, "value": 127}, "group": "control_change"}, {"time": 4443, "annotation": {"number": 64, "value": 0}, "group": "control_change"}, {"time": 4446, "annotation": {"number": 64, "value": 127}, "group": "control_change"}, {"time": 4455, "annotation": {"number": 64, "value": 0}, "group": "control_change"}, {"time": 4458, "annotation": {"number": 64, "value": 127}, "group": "control_change"}, {"time": 4466, "annotation": {"number": 64, "value": 0}, "group": "control_change"}, {"time": 4470, "annotation": {"number": 64, "value": 127}, "group": "control_change"}, {"time": 4478, "annotation": {"number": 64, "value": 0}, "group": "control_change"}, {"time": 4482, "annotation": {"number": 64, "value": 127}, "group": "control_change"}, {"time": 4491, "annotation": {"number": 64, "value": 0}, "group": "control_change"}, {"time": 4494, "annotation": {"number": 64, "value": 127}, "group": "control_change"}, {"time": 4503, "annotation": {"number": 64, "value": 0}, "group": "control_change"}, {"time": 4506, "annotation": {"number": 64, "value": 127}, "group": "control_change"}, {"time": 4515, "annotation": {"number": 64, "value": 0}, "group": "control_change"}, {"time": 4518, "annotation": {"number": 64, "value": 127}, "group": "control_change"}, {"time": 4526, "annotation": {"number": 64, "value": 0}, "group": "control_change"}, {"time": 4530, "annotation": {"number": 64, "value": 127}, "group": "control_change"}, {"time": 4531, "annotation": {"number": 64, "value": 0}, "group": "control_change"}, {"time": 4532, "annotation": {"number": 64, "value": 127}, "group": "control_change"}, {"time": 4538, "annotation": {"number": 64, "value": 0}, "group": "control_change"}, {"time": 4542, "annotation": {"number": 64, "value": 127}, "group": "control_change"}, {"time": 4551, "annotation": {"number": 64, "value": 0}, "group": "control_change"}, {"time": 4554, "annotation": {"number": 64, "value": 127}, "group": "control_change"}, {"time": 4561, "annotation": {"number": 64, "value": 0}, "group": "control_change"}, {"time": 4566, "annotation": {"number": 64, "value": 127}, "group": "control_change"}, {"time": 4574, "annotation": {"number": 64, "value": 0}, "group": "control_change"}, {"time": 4578, "annotation": {"number": 64, "value": 127}, "group": "control_change"}, {"time": 4588, "annotation": {"number": 64, "value": 0}, "group": "control_change"}, {"time": 4590, "annotation": {"number": 64, "value": 127}, "group": "control_change"}, {"time": 4599, "annotation": {"number": 64, "value": 0}, "group": "control_change"}, {"time": 4602, "annotation": {"number": 64, "value": 127}, "group": "control_change"}, {"time": 4611, "annotation": {"number": 64, "value": 0}, "group": "control_change"}, {"time": 4614, "annotation": {"number": 64, "value": 127}, "group": "control_change"}, {"time": 4622, "annotation": {"number": 64, "value": 0}, "group": "control_change"}, {"time": 4625, "annotation": {"number": 64, "value": 127}, "group": "control_change"}, {"time": 4635, "annotation": {"number": 64, "value": 0}, "group": "control_change"}, {"time": 4638, "annotation": {"number": 64, "value": 127}, "group": "control_change"}, {"time": 4646, "annotation": {"number": 64, "value": 0}, "group": "control_change"}, {"time": 4650, "annotation": {"number": 64, "value": 127}, "group": "control_change"}, {"time": 4659, "annotation": {"number": 64, "value": 0}, "group": "control_change"}, {"time": 4674, "annotation": {"number": 64, "value": 127}, "group": "control_change"}, {"time": 4675, "annotation": {"number": 64, "value": 0}, "group": "control_change"}, {"time": 4686, "annotation": {"number": 64, "value": 127}, "group": "control_change"}, {"time": 4694, "annotation": {"number": 64, "value": 0}, "group": "control_change"}, {"time": 4698, "annotation": {"number": 64, "value": 127}, "group": "control_change"}, {"time": 4704, "annotation": {"number": 64, "value": 0}, "group": "control_change"}, {"time": 4710, "annotation": {"number": 64, "value": 127}, "group": "control_change"}, {"time": 4716, "annotation": {"number": 64, "value": 0}, "group": "control_change"}, {"time": 4722, "annotation": {"number": 64, "value": 127}, "group": "control_change"}, {"time": 4723, "annotation": {"number": 64, "value": 0}, "group": "control_change"}, {"time": 4734, "annotation": {"number": 64, "value": 127}, "group": "control_change"}, {"time": 4741, "annotation": {"number": 64, "value": 0}, "group": "control_change"}, {"time": 4746, "annotation": {"number": 64, "value": 127}, "group": "control_change"}, {"time": 4754, "annotation": {"number": 64, "value": 0}, "group": "control_change"}, {"time": 4758, "annotation": {"number": 64, "value": 127}, "group": "control_change"}, {"time": 4765, "annotation": {"number": 64, "value": 0}, "group": "control_change"}, {"time": 4770, "annotation": {"number": 64, "value": 127}, "group": "control_change"}, {"time": 4775, "annotation": {"number": 64, "value": 0}, "group": "control_change"}, {"time": 4782, "annotation": {"number": 64, "value": 127}, "group": "control_change"}, {"time": 4788, "annotation": {"number": 64, "value": 0}, "group": "control_change"}, {"time": 4794, "annotation": {"number": 64, "value": 127}, "group": "control_change"}, {"time": 4801, "annotation": {"number": 64, "value": 0}, "group": "control_change"}, {"time": 4806, "annotation": {"number": 64, "value": 127}, "group": "control_change"}, {"time": 4807, "annotation": {"number": 64, "value": 0}, "group": "control_change"}, {"time": 4818, "annotation": {"number": 64, "value": 127}, "group": "control_change"}, {"time": 4826, "annotation": {"number": 64, "value": 0}, "group": "control_change"}, {"time": 4831, "annotation": {"number": 64, "value": 127}, "group": "control_change"}, {"time": 4837, "annotation": {"number": 64, "value": 0}, "group": "control_change"}, {"time": 4842, "annotation": {"number": 64, "value": 127}, "group": "control_change"}, {"time": 4850, "annotation": {"number": 64, "value": 0}, "group": "control_change"}, {"time": 4854, "annotation": {"number": 64, "value": 127}, "group": "control_change"}, {"time": 4861, "annotation": {"number": 64, "value": 0}, "group": "control_change"}, {"time": 4866, "annotation": {"number": 64, "value": 127}, "group": "control_change"}, {"time": 4874, "annotation": {"number": 64, "value": 0}, "group": "control_change"}, {"time": 4878, "annotation": {"number": 64, "value": 127}, "group": "control_change"}, {"time": 4885, "annotation": {"number": 64, "value": 0}, "group": "control_change"}, {"time": 4890, "annotation": {"number": 64, "value": 127}, "group": "control_change"}, {"time": 4898, "annotation": {"number": 64, "value": 0}, "group": "control_change"}, {"time": 4902, "annotation": {"number": 64, "value": 127}, "group": "control_change"}, {"time": 4907, "annotation": {"number": 64, "value": 0}, "group": "control_change"}, {"time": 4914, "annotation": {"number": 64, "value": 127}, "group": "control_change"}, {"time": 4921, "annotation": {"number": 64, "value": 0}, "group": "control_change"}, {"time": 4926, "annotation": {"number": 64, "value": 127}, "group": "control_change"}, {"time": 4933, "annotation": {"number": 64, "value": 0}, "group": "control_change"}, {"time": 4938, "annotation": {"number": 64, "value": 127}, "group": "control_change"}, {"time": 4945, "annotation": {"number": 64, "value": 0}, "group": "control_change"}, {"time": 4950, "annotation": {"number": 64, "value": 127}, "group": "control_change"}, {"time": 4956, "annotation": {"number": 64, "value": 0}, "group": "control_change"}, {"time": 4962, "annotation": {"number": 64, "value": 127}, "group": "control_change"}, {"time": 4970, "annotation": {"number": 64, "value": 0}, "group": "control_change"}, {"time": 4974, "annotation": {"number": 64, "value": 127}, "group": "control_change"}, {"time": 4981, "annotation": {"number": 64, "value": 0}, "group": "control_change"}, {"time": 4985, "annotation": {"number": 64, "value": 127}, "group": "control_change"}, {"time": 4993, "annotation": {"number": 64, "value": 0}, "group": "control_change"}, {"time": 4998, "annotation": {"number": 64, "value": 127}, "group": "control_change"}, {"time": 5004, "annotation": {"number": 64, "value": 0}, "group": "control_change"}, {"time": 5009, "annotation": {"number": 64, "value": 127}, "group": "control_change"}, {"time": 5017, "annotation": {"number": 64, "value": 0}, "group": "control_change"}, {"time": 5022, "annotation": {"number": 64, "value": 127}, "group": "control_change"}, {"time": 5029, "annotation": {"number": 64, "value": 0}, "group": "control_change"}, {"time": 5033, "annotation": {"number": 64, "value": 127}, "group": "control_change"}, {"time": 5041, "annotation": {"number": 64, "value": 0}, "group": "control_change"}, {"time": 5046, "annotation": {"number": 64, "value": 127}, "group": "control_change"}, {"time": 5052, "annotation": {"number": 64, "value": 0}, "group": "control_change"}, {"time": 5118, "annotation": {"number": 64, "value": 127}, "group": "control_change"}, {"time": 5165, "annotation": {"number": 64, "value": 0}, "group": "control_change"}, {"time": 5166, "annotation": {"number": 64, "value": 127}, "group": "control_change"}, {"time": 5167, "annotation": {"number": 64, "value": 0}, "group": "control_change"}, {"time": 5169, "annotation": {"number": 64, "value": 127}, "group": "control_change"}, {"time": 5171, "annotation": {"number": 64, "value": 0}, "group": "control_change"}, {"time": 5177, "annotation": {"number": 64, "value": 127}, "group": "control_change"}, {"time": 5258, "annotation": {"number": 64, "value": 0}, "group": "control_change"}, {"time": 5263, "annotation": {"number": 64, "value": 127}, "group": "control_change"}, {"time": 5402, "annotation": {"number": 64, "value": 0}, "group": "control_change"}, {"time": 5406, "annotation": {"number": 64, "value": 127}, "group": "control_change"}, {"time": 5450, "annotation": {"number": 64, "value": 0}, "group": "control_change"}, {"time": 5522, "annotation": {"number": 64, "value": 0}, "group": "control_change"}, {"time": 5525, "annotation": {"number": 64, "value": 127}, "group": "control_change"}, {"time": 5535, "annotation": {"number": 64, "value": 0}, "group": "control_change"}, {"time": 5538, "annotation": {"number": 64, "value": 127}, "group": "control_change"}, {"time": 5547, "annotation": {"number": 64, "value": 0}, "group": "control_change"}, {"time": 5550, "annotation": {"number": 64, "value": 127}, "group": "control_change"}, {"time": 5559, "annotation": {"number": 64, "value": 0}, "group": "control_change"}, {"time": 5562, "annotation": {"number": 64, "value": 127}, "group": "control_change"}, {"time": 5571, "annotation": {"number": 64, "value": 0}, "group": "control_change"}, {"time": 5574, "annotation": {"number": 64, "value": 127}, "group": "control_change"}, {"time": 5583, "annotation": {"number": 64, "value": 0}, "group": "control_change"}, {"time": 5586, "annotation": {"number": 64, "value": 127}, "group": "control_change"}, {"time": 5595, "annotation": {"number": 64, "value": 0}, "group": "control_change"}, {"time": 5598, "annotation": {"number": 64, "value": 127}, "group": "control_change"}, {"time": 5608, "annotation": {"number": 64, "value": 0}, "group": "control_change"}, {"time": 5610, "annotation": {"number": 64, "value": 127}, "group": "control_change"}, {"time": 5619, "annotation": {"number": 64, "value": 0}, "group": "control_change"}, {"time": 5621, "annotation": {"number": 64, "value": 127}, "group": "control_change"}, {"time": 5631, "annotation": {"number": 64, "value": 0}, "group": "control_change"}, {"time": 5634, "annotation": {"number": 64, "value": 127}, "group": "control_change"}, {"time": 5643, "annotation": {"number": 64, "value": 0}, "group": "control_change"}, {"time": 5646, "annotation": {"number": 64, "value": 127}, "group": "control_change"}, {"time": 5655, "annotation": {"number": 64, "value": 0}, "group": "control_change"}, {"time": 5658, "annotation": {"number": 64, "value": 127}, "group": "control_change"}, {"time": 5667, "annotation": {"number": 64, "value": 0}, "group": "control_change"}, {"time": 5670, "annotation": {"number": 64, "value": 127}, "group": "control_change"}, {"time": 5679, "annotation": {"number": 64, "value": 0}, "group": "control_change"}, {"time": 5681, "annotation": {"number": 64, "value": 127}, "group": "control_change"}, {"time": 5691, "annotation": {"number": 64, "value": 0}, "group": "control_change"}, {"time": 5694, "annotation": {"number": 64, "value": 127}, "group": "control_change"}, {"time": 5703, "annotation": {"number": 64, "value": 0}, "group": "control_change"}, {"time": 5706, "annotation": {"number": 64, "value": 127}, "group": "control_change"}, {"time": 5715, "annotation": {"number": 64, "value": 0}, "group": "control_change"}, {"time": 5718, "annotation": {"number": 64, "value": 127}, "group": "control_change"}, {"time": 5727, "annotation": {"number": 64, "value": 0}, "group": "control_change"}, {"time": 5730, "annotation": {"number": 64, "value": 127}, "group": "control_change"}, {"time": 5739, "annotation": {"number": 64, "value": 0}, "group": "control_change"}, {"time": 5742, "annotation": {"number": 64, "value": 127}, "group": "control_change"}, {"time": 5752, "annotation": {"number": 64, "value": 0}, "group": "control_change"}, {"time": 5753, "annotation": {"number": 64, "value": 127}, "group": "control_change"}, {"time": 5762, "annotation": {"number": 64, "value": 0}, "group": "control_change"}, {"time": 5765, "annotation": {"number": 64, "value": 127}, "group": "control_change"}, {"time": 5775, "annotation": {"number": 64, "value": 0}, "group": "control_change"}, {"time": 5777, "annotation": {"number": 64, "value": 127}, "group": "control_change"}, {"time": 5786, "annotation": {"number": 64, "value": 0}, "group": "control_change"}, {"time": 5790, "annotation": {"number": 64, "value": 127}, "group": "control_change"}, {"time": 5907, "annotation": {"number": 64, "value": 127}, "group": "control_change"}, {"time": 5965, "annotation": {"number": 64, "value": 0}, "group": "control_change"}, {"time": 5966, "annotation": {"number": 64, "value": 127}, "group": "control_change"}, {"time": 5973, "annotation": {"number": 64, "value": 0}, "group": "control_change"}]}]}