{"metadata": {"schema_version": "0.2", "title": "None", "source_filename": "755.mid", "source_format": "midi"}, "resolution": 12, "tempos": [{"time": 0, "qpm": 70.24996106981324}, {"time": 552, "qpm": 70.49998590000283}, {"time": 1380, "qpm": 62.99999685000016}, {"time": 1392, "qpm": 70.49998590000283}, {"time": 1680, "qpm": 70.10000934666792}, {"time": 1836, "qpm": 70.39997747200721}, {"time": 2280, "qpm": 64.99999458333379}, {"time": 2316, "qpm": 69.00009660013524}], "time_signatures": [{"time": 0, "numerator": 1, "denominator": 4}], "tracks": [{"program": 0, "is_drum": false, "name": "MELODY", "notes": [{"time": 230, "pitch": 66, "duration": 10, "velocity": 107}, {"time": 242, "pitch": 66, "duration": 5, "velocity": 117}, {"time": 248, "pitch": 66, "duration": 4, "velocity": 97}, {"time": 254, "pitch": 71, "duration": 13, "velocity": 122}, {"time": 272, "pitch": 73, "duration": 3, "velocity": 127}, {"time": 278, "pitch": 73, "duration": 5, "velocity": 127}, {"time": 290, "pitch": 71, "duration": 4, "velocity": 117}, {"time": 296, "pitch": 69, "duration": 5, "velocity": 99}, {"time": 302, "pitch": 66, "duration": 16, "velocity": 99}, {"time": 326, "pitch": 71, "duration": 6, "velocity": 127}, {"time": 334, "pitch": 71, "duration": 4, "velocity": 97}, {"time": 338, "pitch": 69, "duration": 7, "velocity": 117}, {"time": 347, "pitch": 71, "duration": 2, "velocity": 122}, {"time": 350, "pitch": 73, "duration": 8, "velocity": 117}, {"time": 362, "pitch": 76, "duration": 5, "velocity": 112}, {"time": 368, "pitch": 73, "duration": 6, "velocity": 100}, {"time": 374, "pitch": 76, "duration": 5, "velocity": 97}, {"time": 379, "pitch": 78, "duration": 13, "velocity": 122}, {"time": 422, "pitch": 73, "duration": 8, "velocity": 127}, {"time": 434, "pitch": 69, "duration": 4, "velocity": 102}, {"time": 440, "pitch": 71, "duration": 3, "velocity": 100}, {"time": 446, "pitch": 73, "duration": 10, "velocity": 127}, {"time": 464, "pitch": 76, "duration": 2, "velocity": 117}, {"time": 467, "pitch": 78, "duration": 2, "velocity": 96}, {"time": 470, "pitch": 73, "duration": 9, "velocity": 127}, {"time": 482, "pitch": 71, "duration": 6, "velocity": 117}, {"time": 488, "pitch": 69, "duration": 5, "velocity": 90}, {"time": 494, "pitch": 61, "duration": 12, "velocity": 97}, {"time": 506, "pitch": 64, "duration": 7, "velocity": 93}, {"time": 518, "pitch": 66, "duration": 10, "velocity": 122}, {"time": 527, "pitch": 64, "duration": 5, "velocity": 100}, {"time": 536, "pitch": 66, "duration": 4, "velocity": 102}, {"time": 542, "pitch": 71, "duration": 7, "velocity": 122}, {"time": 554, "pitch": 73, "duration": 6, "velocity": 117}, {"time": 560, "pitch": 69, "duration": 6, "velocity": 97}, {"time": 566, "pitch": 66, "duration": 10, "velocity": 100}, {"time": 614, "pitch": 66, "duration": 9, "velocity": 127}, {"time": 626, "pitch": 66, "duration": 9, "velocity": 122}, {"time": 638, "pitch": 71, "duration": 16, "velocity": 127}, {"time": 656, "pitch": 73, "duration": 4, "velocity": 127}, {"time": 662, "pitch": 73, "duration": 9, "velocity": 127}, {"time": 674, "pitch": 71, "duration": 6, "velocity": 117}, {"time": 680, "pitch": 69, "duration": 5, "velocity": 89}, {"time": 686, "pitch": 66, "duration": 18, "velocity": 96}, {"time": 710, "pitch": 71, "duration": 6, "velocity": 127}, {"time": 719, "pitch": 71, "duration": 3, "velocity": 112}, {"time": 722, "pitch": 69, "duration": 4, "velocity": 97}, {"time": 728, "pitch": 71, "duration": 4, "velocity": 127}, {"time": 734, "pitch": 73, "duration": 9, "velocity": 127}, {"time": 746, "pitch": 76, "duration": 5, "velocity": 102}, {"time": 752, "pitch": 73, "duration": 5, "velocity": 83}, {"time": 758, "pitch": 78, "duration": 31, "velocity": 117}, {"time": 806, "pitch": 73, "duration": 8, "velocity": 127}, {"time": 818, "pitch": 69, "duration": 4, "velocity": 102}, {"time": 824, "pitch": 71, "duration": 3, "velocity": 100}, {"time": 830, "pitch": 73, "duration": 10, "velocity": 127}, {"time": 843, "pitch": 78, "duration": 2, "velocity": 96}, {"time": 851, "pitch": 78, "duration": 1, "velocity": 117}, {"time": 854, "pitch": 73, "duration": 9, "velocity": 127}, {"time": 866, "pitch": 71, "duration": 6, "velocity": 117}, {"time": 872, "pitch": 69, "duration": 5, "velocity": 90}, {"time": 878, "pitch": 61, "duration": 12, "velocity": 97}, {"time": 890, "pitch": 64, "duration": 7, "velocity": 93}, {"time": 902, "pitch": 66, "duration": 3, "velocity": 122}, {"time": 908, "pitch": 66, "duration": 5, "velocity": 102}, {"time": 914, "pitch": 64, "duration": 5, "velocity": 100}, {"time": 920, "pitch": 66, "duration": 4, "velocity": 102}, {"time": 926, "pitch": 71, "duration": 7, "velocity": 122}, {"time": 938, "pitch": 73, "duration": 6, "velocity": 117}, {"time": 944, "pitch": 69, "duration": 6, "velocity": 97}, {"time": 950, "pitch": 66, "duration": 36, "velocity": 100}, {"time": 1382, "pitch": 66, "duration": 10, "velocity": 107}, {"time": 1394, "pitch": 66, "duration": 5, "velocity": 117}, {"time": 1400, "pitch": 66, "duration": 4, "velocity": 97}, {"time": 1406, "pitch": 71, "duration": 13, "velocity": 122}, {"time": 1424, "pitch": 73, "duration": 3, "velocity": 127}, {"time": 1430, "pitch": 73, "duration": 5, "velocity": 127}, {"time": 1442, "pitch": 71, "duration": 4, "velocity": 117}, {"time": 1448, "pitch": 69, "duration": 5, "velocity": 99}, {"time": 1454, "pitch": 66, "duration": 16, "velocity": 99}, {"time": 1478, "pitch": 71, "duration": 7, "velocity": 127}, {"time": 1487, "pitch": 71, "duration": 2, "velocity": 97}, {"time": 1490, "pitch": 69, "duration": 6, "velocity": 117}, {"time": 1496, "pitch": 71, "duration": 2, "velocity": 122}, {"time": 1502, "pitch": 73, "duration": 8, "velocity": 117}, {"time": 1514, "pitch": 76, "duration": 5, "velocity": 112}, {"time": 1520, "pitch": 73, "duration": 6, "velocity": 100}, {"time": 1526, "pitch": 76, "duration": 4, "velocity": 97}, {"time": 1530, "pitch": 78, "duration": 14, "velocity": 122}, {"time": 1574, "pitch": 73, "duration": 8, "velocity": 127}, {"time": 1586, "pitch": 69, "duration": 4, "velocity": 102}, {"time": 1592, "pitch": 71, "duration": 3, "velocity": 100}, {"time": 1598, "pitch": 73, "duration": 10, "velocity": 127}, {"time": 1610, "pitch": 73, "duration": 2, "velocity": 117}, {"time": 1616, "pitch": 78, "duration": 2, "velocity": 96}, {"time": 1622, "pitch": 73, "duration": 9, "velocity": 127}, {"time": 1634, "pitch": 71, "duration": 6, "velocity": 117}, {"time": 1640, "pitch": 69, "duration": 5, "velocity": 90}, {"time": 1646, "pitch": 61, "duration": 12, "velocity": 97}, {"time": 1658, "pitch": 64, "duration": 7, "velocity": 93}, {"time": 1670, "pitch": 66, "duration": 10, "velocity": 122}, {"time": 1682, "pitch": 64, "duration": 5, "velocity": 100}, {"time": 1688, "pitch": 66, "duration": 4, "velocity": 102}, {"time": 1694, "pitch": 71, "duration": 7, "velocity": 122}, {"time": 1706, "pitch": 73, "duration": 6, "velocity": 117}, {"time": 1712, "pitch": 69, "duration": 6, "velocity": 97}, {"time": 1718, "pitch": 66, "duration": 10, "velocity": 100}, {"time": 1766, "pitch": 66, "duration": 9, "velocity": 127}, {"time": 1778, "pitch": 66, "duration": 4, "velocity": 122}, {"time": 1784, "pitch": 66, "duration": 6, "velocity": 112}, {"time": 1790, "pitch": 71, "duration": 16, "velocity": 127}, {"time": 1808, "pitch": 73, "duration": 4, "velocity": 127}, {"time": 1814, "pitch": 73, "duration": 9, "velocity": 127}, {"time": 1826, "pitch": 71, "duration": 6, "velocity": 117}, {"time": 1832, "pitch": 69, "duration": 5, "velocity": 89}, {"time": 1838, "pitch": 66, "duration": 18, "velocity": 96}, {"time": 1862, "pitch": 71, "duration": 6, "velocity": 127}, {"time": 1871, "pitch": 71, "duration": 3, "velocity": 112}, {"time": 1874, "pitch": 69, "duration": 4, "velocity": 97}, {"time": 1880, "pitch": 71, "duration": 4, "velocity": 127}, {"time": 1886, "pitch": 73, "duration": 9, "velocity": 127}, {"time": 1898, "pitch": 76, "duration": 5, "velocity": 102}, {"time": 1904, "pitch": 73, "duration": 5, "velocity": 83}, {"time": 1910, "pitch": 78, "duration": 31, "velocity": 117}, {"time": 1958, "pitch": 73, "duration": 8, "velocity": 127}, {"time": 1970, "pitch": 69, "duration": 4, "velocity": 102}, {"time": 1976, "pitch": 71, "duration": 3, "velocity": 100}, {"time": 1982, "pitch": 73, "duration": 14, "velocity": 127}, {"time": 2000, "pitch": 78, "duration": 2, "velocity": 96}, {"time": 2003, "pitch": 78, "duration": 1, "velocity": 117}, {"time": 2006, "pitch": 73, "duration": 9, "velocity": 127}, {"time": 2018, "pitch": 71, "duration": 6, "velocity": 117}, {"time": 2024, "pitch": 69, "duration": 5, "velocity": 90}, {"time": 2030, "pitch": 61, "duration": 12, "velocity": 97}, {"time": 2042, "pitch": 64, "duration": 7, "velocity": 93}, {"time": 2054, "pitch": 66, "duration": 8, "velocity": 122}, {"time": 2066, "pitch": 64, "duration": 5, "velocity": 100}, {"time": 2072, "pitch": 66, "duration": 4, "velocity": 102}, {"time": 2078, "pitch": 71, "duration": 7, "velocity": 122}, {"time": 2090, "pitch": 73, "duration": 6, "velocity": 117}, {"time": 2096, "pitch": 69, "duration": 6, "velocity": 97}, {"time": 2102, "pitch": 66, "duration": 36, "velocity": 100}, {"time": 2150, "pitch": 73, "duration": 8, "velocity": 127}, {"time": 2162, "pitch": 69, "duration": 4, "velocity": 102}, {"time": 2168, "pitch": 71, "duration": 3, "velocity": 100}, {"time": 2174, "pitch": 73, "duration": 14, "velocity": 127}, {"time": 2192, "pitch": 78, "duration": 2, "velocity": 96}, {"time": 2195, "pitch": 78, "duration": 1, "velocity": 117}, {"time": 2198, "pitch": 73, "duration": 9, "velocity": 127}, {"time": 2210, "pitch": 71, "duration": 6, "velocity": 117}, {"time": 2216, "pitch": 69, "duration": 5, "velocity": 90}, {"time": 2222, "pitch": 61, "duration": 12, "velocity": 97}, {"time": 2234, "pitch": 64, "duration": 7, "velocity": 93}, {"time": 2246, "pitch": 66, "duration": 8, "velocity": 122}, {"time": 2258, "pitch": 64, "duration": 5, "velocity": 100}, {"time": 2264, "pitch": 66, "duration": 4, "velocity": 102}, {"time": 2273, "pitch": 71, "duration": 17, "velocity": 112}, {"time": 2287, "pitch": 73, "duration": 15, "velocity": 127}, {"time": 2306, "pitch": 78, "duration": 19, "velocity": 127}]}, {"program": 0, "is_drum": false, "name": "PIANO", "notes": [{"time": 14, "pitch": 37, "duration": 16, "velocity": 44}, {"time": 14, "pitch": 49, "duration": 19, "velocity": 59}, {"time": 14, "pitch": 61, "duration": 23, "velocity": 66}, {"time": 14, "pitch": 68, "duration": 22, "velocity": 67}, {"time": 38, "pitch": 42, "duration": 22, "velocity": 92}, {"time": 44, "pitch": 54, "duration": 18, "velocity": 55}, {"time": 50, "pitch": 61, "duration": 22, "velocity": 112}, {"time": 56, "pitch": 57, "duration": 32, "velocity": 78}, {"time": 62, "pitch": 42, "duration": 16, "velocity": 88}, {"time": 68, "pitch": 54, "duration": 11, "velocity": 59}, {"time": 74, "pitch": 66, "duration": 12, "velocity": 99}, {"time": 80, "pitch": 61, "duration": 7, "velocity": 78}, {"time": 86, "pitch": 45, "duration": 18, "velocity": 79}, {"time": 92, "pitch": 52, "duration": 10, "velocity": 63}, {"time": 98, "pitch": 64, "duration": 11, "velocity": 95}, {"time": 104, "pitch": 57, "duration": 6, "velocity": 89}, {"time": 110, "pitch": 44, "duration": 19, "velocity": 70}, {"time": 116, "pitch": 49, "duration": 13, "velocity": 73}, {"time": 122, "pitch": 56, "duration": 11, "velocity": 79}, {"time": 128, "pitch": 52, "duration": 5, "velocity": 69}, {"time": 134, "pitch": 42, "duration": 16, "velocity": 92}, {"time": 140, "pitch": 54, "duration": 8, "velocity": 63}, {"time": 146, "pitch": 61, "duration": 11, "velocity": 107}, {"time": 152, "pitch": 57, "duration": 6, "velocity": 86}, {"time": 158, "pitch": 44, "duration": 17, "velocity": 59}, {"time": 164, "pitch": 49, "duration": 12, "velocity": 79}, {"time": 170, "pitch": 56, "duration": 11, "velocity": 70}, {"time": 176, "pitch": 52, "duration": 5, "velocity": 73}, {"time": 182, "pitch": 42, "duration": 21, "velocity": 86}, {"time": 188, "pitch": 54, "duration": 7, "velocity": 86}, {"time": 194, "pitch": 61, "duration": 22, "velocity": 112}, {"time": 197, "pitch": 54, "duration": 9, "velocity": 75}, {"time": 200, "pitch": 57, "duration": 24, "velocity": 73}, {"time": 206, "pitch": 42, "duration": 22, "velocity": 74}, {"time": 212, "pitch": 54, "duration": 7, "velocity": 58}, {"time": 218, "pitch": 61, "duration": 12, "velocity": 100}, {"time": 221, "pitch": 54, "duration": 9, "velocity": 73}, {"time": 224, "pitch": 59, "duration": 6, "velocity": 68}, {"time": 227, "pitch": 57, "duration": 9, "velocity": 51}, {"time": 230, "pitch": 42, "duration": 20, "velocity": 92}, {"time": 236, "pitch": 54, "duration": 14, "velocity": 68}, {"time": 242, "pitch": 61, "duration": 12, "velocity": 90}, {"time": 248, "pitch": 57, "duration": 6, "velocity": 81}, {"time": 248, "pitch": 66, "duration": 7, "velocity": 1}, {"time": 254, "pitch": 47, "duration": 15, "velocity": 72}, {"time": 260, "pitch": 54, "duration": 8, "velocity": 64}, {"time": 266, "pitch": 66, "duration": 11, "velocity": 96}, {"time": 272, "pitch": 59, "duration": 6, "velocity": 77}, {"time": 278, "pitch": 37, "duration": 14, "velocity": 83}, {"time": 284, "pitch": 49, "duration": 14, "velocity": 52}, {"time": 290, "pitch": 56, "duration": 11, "velocity": 78}, {"time": 296, "pitch": 52, "duration": 5, "velocity": 69}, {"time": 302, "pitch": 42, "duration": 16, "velocity": 81}, {"time": 308, "pitch": 54, "duration": 7, "velocity": 83}, {"time": 314, "pitch": 61, "duration": 12, "velocity": 117}, {"time": 317, "pitch": 54, "duration": 3, "velocity": 85}, {"time": 320, "pitch": 57, "duration": 7, "velocity": 82}, {"time": 326, "pitch": 47, "duration": 15, "velocity": 81}, {"time": 332, "pitch": 54, "duration": 8, "velocity": 77}, {"time": 338, "pitch": 66, "duration": 11, "velocity": 95}, {"time": 344, "pitch": 59, "duration": 6, "velocity": 82}, {"time": 350, "pitch": 37, "duration": 14, "velocity": 81}, {"time": 356, "pitch": 49, "duration": 11, "velocity": 69}, {"time": 362, "pitch": 56, "duration": 12, "velocity": 89}, {"time": 368, "pitch": 52, "duration": 5, "velocity": 72}, {"time": 374, "pitch": 42, "duration": 22, "velocity": 82}, {"time": 380, "pitch": 54, "duration": 18, "velocity": 88}, {"time": 386, "pitch": 61, "duration": 19, "velocity": 102}, {"time": 392, "pitch": 57, "duration": 19, "velocity": 81}, {"time": 398, "pitch": 42, "duration": 18, "velocity": 90}, {"time": 404, "pitch": 54, "duration": 11, "velocity": 92}, {"time": 410, "pitch": 61, "duration": 3, "velocity": 100}, {"time": 413, "pitch": 57, "duration": 3, "velocity": 83}, {"time": 416, "pitch": 56, "duration": 6, "velocity": 95}, {"time": 422, "pitch": 42, "duration": 22, "velocity": 93}, {"time": 428, "pitch": 54, "duration": 16, "velocity": 86}, {"time": 434, "pitch": 61, "duration": 21, "velocity": 107}, {"time": 440, "pitch": 57, "duration": 18, "velocity": 88}, {"time": 446, "pitch": 42, "duration": 21, "velocity": 96}, {"time": 452, "pitch": 49, "duration": 18, "velocity": 57}, {"time": 458, "pitch": 54, "duration": 13, "velocity": 82}, {"time": 458, "pitch": 61, "duration": 20, "velocity": 90}, {"time": 464, "pitch": 57, "duration": 41, "velocity": 77}, {"time": 470, "pitch": 42, "duration": 22, "velocity": 93}, {"time": 476, "pitch": 49, "duration": 17, "velocity": 50}, {"time": 482, "pitch": 54, "duration": 13, "velocity": 83}, {"time": 482, "pitch": 66, "duration": 38, "velocity": 99}, {"time": 488, "pitch": 61, "duration": 14, "velocity": 83}, {"time": 494, "pitch": 42, "duration": 17, "velocity": 89}, {"time": 500, "pitch": 49, "duration": 9, "velocity": 43}, {"time": 506, "pitch": 54, "duration": 3, "velocity": 72}, {"time": 506, "pitch": 61, "duration": 13, "velocity": 97}, {"time": 512, "pitch": 57, "duration": 30, "velocity": 77}, {"time": 518, "pitch": 38, "duration": 12, "velocity": 81}, {"time": 524, "pitch": 45, "duration": 6, "velocity": 63}, {"time": 530, "pitch": 66, "duration": 11, "velocity": 102}, {"time": 536, "pitch": 62, "duration": 5, "velocity": 81}, {"time": 542, "pitch": 37, "duration": 14, "velocity": 85}, {"time": 548, "pitch": 44, "duration": 8, "velocity": 37}, {"time": 554, "pitch": 49, "duration": 5, "velocity": 56}, {"time": 554, "pitch": 56, "duration": 12, "velocity": 89}, {"time": 554, "pitch": 61, "duration": 11, "velocity": 19}, {"time": 560, "pitch": 52, "duration": 6, "velocity": 73}, {"time": 566, "pitch": 42, "duration": 21, "velocity": 81}, {"time": 572, "pitch": 49, "duration": 18, "velocity": 59}, {"time": 578, "pitch": 54, "duration": 13, "velocity": 78}, {"time": 578, "pitch": 61, "duration": 25, "velocity": 100}, {"time": 584, "pitch": 57, "duration": 15, "velocity": 78}, {"time": 590, "pitch": 42, "duration": 22, "velocity": 88}, {"time": 596, "pitch": 49, "duration": 17, "velocity": 63}, {"time": 602, "pitch": 54, "duration": 12, "velocity": 86}, {"time": 602, "pitch": 59, "duration": 6, "velocity": 93}, {"time": 608, "pitch": 57, "duration": 17, "velocity": 90}, {"time": 614, "pitch": 42, "duration": 16, "velocity": 99}, {"time": 620, "pitch": 49, "duration": 9, "velocity": 66}, {"time": 626, "pitch": 54, "duration": 5, "velocity": 79}, {"time": 626, "pitch": 61, "duration": 12, "velocity": 97}, {"time": 626, "pitch": 66, "duration": 13, "velocity": 43}, {"time": 632, "pitch": 57, "duration": 7, "velocity": 74}, {"time": 638, "pitch": 47, "duration": 14, "velocity": 71}, {"time": 644, "pitch": 54, "duration": 7, "velocity": 61}, {"time": 650, "pitch": 62, "duration": 12, "velocity": 75}, {"time": 650, "pitch": 66, "duration": 12, "velocity": 83}, {"time": 656, "pitch": 59, "duration": 7, "velocity": 78}, {"time": 662, "pitch": 37, "duration": 14, "velocity": 82}, {"time": 668, "pitch": 44, "duration": 8, "velocity": 42}, {"time": 674, "pitch": 49, "duration": 5, "velocity": 77}, {"time": 674, "pitch": 56, "duration": 12, "velocity": 78}, {"time": 674, "pitch": 61, "duration": 13, "velocity": 79}, {"time": 680, "pitch": 52, "duration": 6, "velocity": 72}, {"time": 686, "pitch": 42, "duration": 15, "velocity": 78}, {"time": 692, "pitch": 49, "duration": 9, "velocity": 38}, {"time": 698, "pitch": 54, "duration": 5, "velocity": 69}, {"time": 698, "pitch": 61, "duration": 12, "velocity": 77}, {"time": 698, "pitch": 66, "duration": 13, "velocity": 72}, {"time": 704, "pitch": 57, "duration": 7, "velocity": 72}, {"time": 710, "pitch": 47, "duration": 12, "velocity": 75}, {"time": 716, "pitch": 54, "duration": 6, "velocity": 53}, {"time": 722, "pitch": 62, "duration": 11, "velocity": 82}, {"time": 722, "pitch": 66, "duration": 12, "velocity": 79}, {"time": 728, "pitch": 59, "duration": 6, "velocity": 62}, {"time": 734, "pitch": 37, "duration": 13, "velocity": 86}, {"time": 740, "pitch": 44, "duration": 7, "velocity": 51}, {"time": 746, "pitch": 49, "duration": 4, "velocity": 71}, {"time": 746, "pitch": 56, "duration": 13, "velocity": 88}, {"time": 746, "pitch": 61, "duration": 13, "velocity": 86}, {"time": 752, "pitch": 52, "duration": 6, "velocity": 76}, {"time": 758, "pitch": 42, "duration": 21, "velocity": 85}, {"time": 764, "pitch": 49, "duration": 16, "velocity": 34}, {"time": 770, "pitch": 54, "duration": 13, "velocity": 72}, {"time": 770, "pitch": 61, "duration": 20, "velocity": 112}, {"time": 776, "pitch": 57, "duration": 13, "velocity": 89}, {"time": 782, "pitch": 42, "duration": 22, "velocity": 83}, {"time": 785, "pitch": 49, "duration": 21, "velocity": 77}, {"time": 788, "pitch": 54, "duration": 7, "velocity": 93}, {"time": 791, "pitch": 57, "duration": 7, "velocity": 90}, {"time": 794, "pitch": 66, "duration": 12, "velocity": 96}, {"time": 797, "pitch": 54, "duration": 9, "velocity": 85}, {"time": 800, "pitch": 61, "duration": 6, "velocity": 102}, {"time": 803, "pitch": 57, "duration": 3, "velocity": 81}, {"time": 806, "pitch": 42, "duration": 22, "velocity": 93}, {"time": 812, "pitch": 49, "duration": 18, "velocity": 52}, {"time": 818, "pitch": 54, "duration": 12, "velocity": 74}, {"time": 818, "pitch": 61, "duration": 22, "velocity": 100}, {"time": 818, "pitch": 66, "duration": 22, "velocity": 35}, {"time": 824, "pitch": 57, "duration": 84, "velocity": 74}, {"time": 830, "pitch": 42, "duration": 22, "velocity": 77}, {"time": 836, "pitch": 49, "duration": 18, "velocity": 40}, {"time": 842, "pitch": 54, "duration": 14, "velocity": 74}, {"time": 842, "pitch": 66, "duration": 21, "velocity": 95}, {"time": 848, "pitch": 61, "duration": 15, "velocity": 96}, {"time": 854, "pitch": 42, "duration": 21, "velocity": 78}, {"time": 860, "pitch": 49, "duration": 17, "velocity": 59}, {"time": 866, "pitch": 54, "duration": 12, "velocity": 69}, {"time": 866, "pitch": 66, "duration": 20, "velocity": 97}, {"time": 872, "pitch": 61, "duration": 12, "velocity": 97}, {"time": 878, "pitch": 42, "duration": 17, "velocity": 79}, {"time": 884, "pitch": 49, "duration": 9, "velocity": 59}, {"time": 890, "pitch": 54, "duration": 3, "velocity": 59}, {"time": 890, "pitch": 66, "duration": 13, "velocity": 102}, {"time": 896, "pitch": 61, "duration": 6, "velocity": 96}, {"time": 902, "pitch": 38, "duration": 14, "velocity": 81}, {"time": 905, "pitch": 45, "duration": 11, "velocity": 72}, {"time": 908, "pitch": 50, "duration": 6, "velocity": 77}, {"time": 911, "pitch": 57, "duration": 16, "velocity": 78}, {"time": 914, "pitch": 66, "duration": 12, "velocity": 117}, {"time": 920, "pitch": 62, "duration": 6, "velocity": 73}, {"time": 926, "pitch": 37, "duration": 15, "velocity": 79}, {"time": 932, "pitch": 44, "duration": 8, "velocity": 53}, {"time": 938, "pitch": 49, "duration": 6, "velocity": 74}, {"time": 938, "pitch": 56, "duration": 12, "velocity": 96}, {"time": 944, "pitch": 52, "duration": 6, "velocity": 72}, {"time": 950, "pitch": 42, "duration": 21, "velocity": 78}, {"time": 953, "pitch": 49, "duration": 20, "velocity": 69}, {"time": 956, "pitch": 54, "duration": 6, "velocity": 81}, {"time": 959, "pitch": 57, "duration": 6, "velocity": 82}, {"time": 962, "pitch": 61, "duration": 10, "velocity": 107}, {"time": 965, "pitch": 54, "duration": 10, "velocity": 82}, {"time": 968, "pitch": 59, "duration": 7, "velocity": 72}, {"time": 971, "pitch": 57, "duration": 8, "velocity": 79}, {"time": 974, "pitch": 42, "duration": 21, "velocity": 77}, {"time": 977, "pitch": 49, "duration": 16, "velocity": 53}, {"time": 980, "pitch": 54, "duration": 6, "velocity": 81}, {"time": 983, "pitch": 57, "duration": 7, "velocity": 82}, {"time": 986, "pitch": 64, "duration": 12, "velocity": 97}, {"time": 989, "pitch": 54, "duration": 4, "velocity": 88}, {"time": 992, "pitch": 61, "duration": 6, "velocity": 90}, {"time": 995, "pitch": 57, "duration": 3, "velocity": 89}, {"time": 998, "pitch": 42, "duration": 18, "velocity": 85}, {"time": 1004, "pitch": 49, "duration": 10, "velocity": 33}, {"time": 1007, "pitch": 54, "duration": 4, "velocity": 75}, {"time": 1010, "pitch": 61, "duration": 7, "velocity": 99}, {"time": 1013, "pitch": 54, "duration": 2, "velocity": 63}, {"time": 1016, "pitch": 57, "duration": 10, "velocity": 83}, {"time": 1019, "pitch": 61, "duration": 3, "velocity": 66}, {"time": 1022, "pitch": 38, "duration": 14, "velocity": 73}, {"time": 1025, "pitch": 45, "duration": 11, "velocity": 59}, {"time": 1028, "pitch": 50, "duration": 9, "velocity": 76}, {"time": 1031, "pitch": 57, "duration": 16, "velocity": 75}, {"time": 1034, "pitch": 66, "duration": 13, "velocity": 99}, {"time": 1040, "pitch": 62, "duration": 5, "velocity": 66}, {"time": 1046, "pitch": 42, "duration": 22, "velocity": 73}, {"time": 1049, "pitch": 49, "duration": 19, "velocity": 34}, {"time": 1052, "pitch": 54, "duration": 6, "velocity": 81}, {"time": 1055, "pitch": 57, "duration": 9, "velocity": 71}, {"time": 1058, "pitch": 66, "duration": 18, "velocity": 97}, {"time": 1061, "pitch": 54, "duration": 10, "velocity": 57}, {"time": 1064, "pitch": 61, "duration": 11, "velocity": 69}, {"time": 1067, "pitch": 57, "duration": 9, "velocity": 65}, {"time": 1070, "pitch": 42, "duration": 16, "velocity": 81}, {"time": 1073, "pitch": 49, "duration": 12, "velocity": 64}, {"time": 1076, "pitch": 54, "duration": 6, "velocity": 75}, {"time": 1079, "pitch": 57, "duration": 15, "velocity": 86}, {"time": 1082, "pitch": 66, "duration": 12, "velocity": 100}, {"time": 1085, "pitch": 54, "duration": 3, "velocity": 85}, {"time": 1088, "pitch": 61, "duration": 5, "velocity": 95}, {"time": 1094, "pitch": 47, "duration": 17, "velocity": 72}, {"time": 1097, "pitch": 54, "duration": 10, "velocity": 71}, {"time": 1100, "pitch": 59, "duration": 3, "velocity": 66}, {"time": 1103, "pitch": 66, "duration": 14, "velocity": 97}, {"time": 1106, "pitch": 62, "duration": 6, "velocity": 83}, {"time": 1109, "pitch": 54, "duration": 2, "velocity": 53}, {"time": 1112, "pitch": 59, "duration": 5, "velocity": 90}, {"time": 1115, "pitch": 62, "duration": 2, "velocity": 61}, {"time": 1118, "pitch": 49, "duration": 14, "velocity": 76}, {"time": 1121, "pitch": 56, "duration": 4, "velocity": 56}, {"time": 1124, "pitch": 61, "duration": 8, "velocity": 59}, {"time": 1127, "pitch": 56, "duration": 3, "velocity": 73}, {"time": 1130, "pitch": 64, "duration": 12, "velocity": 59}, {"time": 1133, "pitch": 56, "duration": 4, "velocity": 49}, {"time": 1136, "pitch": 61, "duration": 6, "velocity": 65}, {"time": 1142, "pitch": 42, "duration": 18, "velocity": 60}, {"time": 1145, "pitch": 49, "duration": 14, "velocity": 60}, {"time": 1148, "pitch": 54, "duration": 6, "velocity": 72}, {"time": 1151, "pitch": 57, "duration": 6, "velocity": 68}, {"time": 1154, "pitch": 66, "duration": 11, "velocity": 93}, {"time": 1157, "pitch": 54, "duration": 2, "velocity": 72}, {"time": 1160, "pitch": 61, "duration": 5, "velocity": 74}, {"time": 1163, "pitch": 57, "duration": 4, "velocity": 90}, {"time": 1166, "pitch": 38, "duration": 22, "velocity": 74}, {"time": 1169, "pitch": 45, "duration": 19, "velocity": 71}, {"time": 1172, "pitch": 50, "duration": 7, "velocity": 72}, {"time": 1175, "pitch": 57, "duration": 9, "velocity": 81}, {"time": 1178, "pitch": 66, "duration": 12, "velocity": 112}, {"time": 1181, "pitch": 50, "duration": 7, "velocity": 66}, {"time": 1184, "pitch": 62, "duration": 6, "velocity": 72}, {"time": 1187, "pitch": 57, "duration": 3, "velocity": 76}, {"time": 1190, "pitch": 42, "duration": 22, "velocity": 92}, {"time": 1196, "pitch": 54, "duration": 18, "velocity": 55}, {"time": 1202, "pitch": 61, "duration": 22, "velocity": 112}, {"time": 1208, "pitch": 57, "duration": 32, "velocity": 78}, {"time": 1214, "pitch": 42, "duration": 16, "velocity": 88}, {"time": 1220, "pitch": 54, "duration": 11, "velocity": 59}, {"time": 1226, "pitch": 66, "duration": 12, "velocity": 99}, {"time": 1232, "pitch": 61, "duration": 7, "velocity": 78}, {"time": 1238, "pitch": 45, "duration": 18, "velocity": 79}, {"time": 1244, "pitch": 52, "duration": 10, "velocity": 63}, {"time": 1250, "pitch": 64, "duration": 11, "velocity": 95}, {"time": 1256, "pitch": 57, "duration": 6, "velocity": 89}, {"time": 1262, "pitch": 44, "duration": 19, "velocity": 70}, {"time": 1268, "pitch": 49, "duration": 13, "velocity": 73}, {"time": 1274, "pitch": 56, "duration": 11, "velocity": 79}, {"time": 1280, "pitch": 52, "duration": 5, "velocity": 69}, {"time": 1286, "pitch": 42, "duration": 16, "velocity": 92}, {"time": 1292, "pitch": 54, "duration": 8, "velocity": 63}, {"time": 1298, "pitch": 61, "duration": 11, "velocity": 107}, {"time": 1304, "pitch": 57, "duration": 6, "velocity": 86}, {"time": 1310, "pitch": 44, "duration": 17, "velocity": 59}, {"time": 1316, "pitch": 49, "duration": 12, "velocity": 79}, {"time": 1322, "pitch": 56, "duration": 11, "velocity": 70}, {"time": 1328, "pitch": 52, "duration": 5, "velocity": 73}, {"time": 1334, "pitch": 42, "duration": 21, "velocity": 86}, {"time": 1340, "pitch": 54, "duration": 7, "velocity": 86}, {"time": 1346, "pitch": 61, "duration": 22, "velocity": 112}, {"time": 1349, "pitch": 54, "duration": 9, "velocity": 75}, {"time": 1352, "pitch": 57, "duration": 24, "velocity": 73}, {"time": 1358, "pitch": 42, "duration": 22, "velocity": 74}, {"time": 1364, "pitch": 54, "duration": 7, "velocity": 58}, {"time": 1370, "pitch": 61, "duration": 12, "velocity": 100}, {"time": 1373, "pitch": 54, "duration": 9, "velocity": 73}, {"time": 1376, "pitch": 59, "duration": 6, "velocity": 68}, {"time": 1379, "pitch": 57, "duration": 9, "velocity": 51}, {"time": 1382, "pitch": 42, "duration": 20, "velocity": 92}, {"time": 1388, "pitch": 54, "duration": 14, "velocity": 68}, {"time": 1394, "pitch": 61, "duration": 12, "velocity": 90}, {"time": 1400, "pitch": 57, "duration": 6, "velocity": 81}, {"time": 1400, "pitch": 66, "duration": 7, "velocity": 1}, {"time": 1406, "pitch": 47, "duration": 15, "velocity": 72}, {"time": 1412, "pitch": 54, "duration": 8, "velocity": 64}, {"time": 1418, "pitch": 66, "duration": 11, "velocity": 96}, {"time": 1424, "pitch": 59, "duration": 6, "velocity": 77}, {"time": 1430, "pitch": 37, "duration": 14, "velocity": 83}, {"time": 1436, "pitch": 49, "duration": 14, "velocity": 52}, {"time": 1442, "pitch": 56, "duration": 11, "velocity": 78}, {"time": 1448, "pitch": 52, "duration": 5, "velocity": 69}, {"time": 1454, "pitch": 42, "duration": 16, "velocity": 81}, {"time": 1460, "pitch": 54, "duration": 7, "velocity": 83}, {"time": 1466, "pitch": 61, "duration": 12, "velocity": 117}, {"time": 1469, "pitch": 54, "duration": 3, "velocity": 85}, {"time": 1472, "pitch": 57, "duration": 7, "velocity": 82}, {"time": 1478, "pitch": 47, "duration": 15, "velocity": 81}, {"time": 1484, "pitch": 54, "duration": 8, "velocity": 77}, {"time": 1490, "pitch": 66, "duration": 11, "velocity": 95}, {"time": 1496, "pitch": 59, "duration": 6, "velocity": 82}, {"time": 1502, "pitch": 37, "duration": 14, "velocity": 81}, {"time": 1508, "pitch": 49, "duration": 11, "velocity": 69}, {"time": 1514, "pitch": 56, "duration": 12, "velocity": 89}, {"time": 1520, "pitch": 52, "duration": 5, "velocity": 72}, {"time": 1526, "pitch": 42, "duration": 22, "velocity": 82}, {"time": 1532, "pitch": 54, "duration": 18, "velocity": 88}, {"time": 1538, "pitch": 61, "duration": 19, "velocity": 102}, {"time": 1544, "pitch": 57, "duration": 19, "velocity": 81}, {"time": 1550, "pitch": 42, "duration": 18, "velocity": 90}, {"time": 1556, "pitch": 54, "duration": 11, "velocity": 92}, {"time": 1562, "pitch": 61, "duration": 3, "velocity": 100}, {"time": 1565, "pitch": 57, "duration": 3, "velocity": 83}, {"time": 1568, "pitch": 56, "duration": 6, "velocity": 95}, {"time": 1574, "pitch": 42, "duration": 22, "velocity": 93}, {"time": 1580, "pitch": 54, "duration": 16, "velocity": 86}, {"time": 1586, "pitch": 61, "duration": 21, "velocity": 107}, {"time": 1592, "pitch": 57, "duration": 18, "velocity": 88}, {"time": 1598, "pitch": 42, "duration": 21, "velocity": 96}, {"time": 1604, "pitch": 49, "duration": 18, "velocity": 57}, {"time": 1610, "pitch": 54, "duration": 13, "velocity": 82}, {"time": 1610, "pitch": 61, "duration": 20, "velocity": 90}, {"time": 1616, "pitch": 57, "duration": 41, "velocity": 77}, {"time": 1622, "pitch": 42, "duration": 22, "velocity": 93}, {"time": 1628, "pitch": 49, "duration": 17, "velocity": 50}, {"time": 1634, "pitch": 54, "duration": 13, "velocity": 83}, {"time": 1634, "pitch": 66, "duration": 38, "velocity": 99}, {"time": 1640, "pitch": 61, "duration": 14, "velocity": 83}, {"time": 1646, "pitch": 42, "duration": 17, "velocity": 89}, {"time": 1652, "pitch": 49, "duration": 9, "velocity": 43}, {"time": 1658, "pitch": 54, "duration": 3, "velocity": 72}, {"time": 1658, "pitch": 61, "duration": 13, "velocity": 97}, {"time": 1664, "pitch": 57, "duration": 30, "velocity": 77}, {"time": 1670, "pitch": 38, "duration": 12, "velocity": 81}, {"time": 1676, "pitch": 45, "duration": 6, "velocity": 63}, {"time": 1682, "pitch": 66, "duration": 11, "velocity": 102}, {"time": 1688, "pitch": 62, "duration": 5, "velocity": 81}, {"time": 1694, "pitch": 37, "duration": 14, "velocity": 85}, {"time": 1700, "pitch": 44, "duration": 8, "velocity": 37}, {"time": 1706, "pitch": 49, "duration": 5, "velocity": 56}, {"time": 1706, "pitch": 56, "duration": 12, "velocity": 89}, {"time": 1706, "pitch": 61, "duration": 11, "velocity": 19}, {"time": 1712, "pitch": 52, "duration": 6, "velocity": 73}, {"time": 1718, "pitch": 42, "duration": 21, "velocity": 81}, {"time": 1724, "pitch": 49, "duration": 18, "velocity": 59}, {"time": 1730, "pitch": 54, "duration": 13, "velocity": 78}, {"time": 1730, "pitch": 61, "duration": 25, "velocity": 100}, {"time": 1736, "pitch": 57, "duration": 15, "velocity": 78}, {"time": 1742, "pitch": 42, "duration": 22, "velocity": 88}, {"time": 1748, "pitch": 49, "duration": 17, "velocity": 63}, {"time": 1754, "pitch": 54, "duration": 12, "velocity": 86}, {"time": 1754, "pitch": 59, "duration": 6, "velocity": 93}, {"time": 1760, "pitch": 57, "duration": 17, "velocity": 90}, {"time": 1766, "pitch": 42, "duration": 16, "velocity": 99}, {"time": 1772, "pitch": 49, "duration": 9, "velocity": 66}, {"time": 1778, "pitch": 54, "duration": 5, "velocity": 79}, {"time": 1778, "pitch": 61, "duration": 12, "velocity": 97}, {"time": 1778, "pitch": 66, "duration": 13, "velocity": 43}, {"time": 1784, "pitch": 57, "duration": 7, "velocity": 74}, {"time": 1790, "pitch": 47, "duration": 14, "velocity": 71}, {"time": 1796, "pitch": 54, "duration": 7, "velocity": 61}, {"time": 1802, "pitch": 62, "duration": 12, "velocity": 75}, {"time": 1802, "pitch": 66, "duration": 12, "velocity": 83}, {"time": 1808, "pitch": 59, "duration": 7, "velocity": 78}, {"time": 1814, "pitch": 37, "duration": 14, "velocity": 82}, {"time": 1820, "pitch": 44, "duration": 8, "velocity": 42}, {"time": 1826, "pitch": 49, "duration": 5, "velocity": 77}, {"time": 1826, "pitch": 56, "duration": 12, "velocity": 78}, {"time": 1826, "pitch": 61, "duration": 13, "velocity": 79}, {"time": 1832, "pitch": 52, "duration": 6, "velocity": 72}, {"time": 1838, "pitch": 42, "duration": 15, "velocity": 78}, {"time": 1844, "pitch": 49, "duration": 9, "velocity": 38}, {"time": 1850, "pitch": 54, "duration": 5, "velocity": 69}, {"time": 1850, "pitch": 61, "duration": 12, "velocity": 77}, {"time": 1850, "pitch": 66, "duration": 13, "velocity": 72}, {"time": 1856, "pitch": 57, "duration": 7, "velocity": 72}, {"time": 1862, "pitch": 47, "duration": 12, "velocity": 75}, {"time": 1868, "pitch": 54, "duration": 6, "velocity": 53}, {"time": 1874, "pitch": 62, "duration": 11, "velocity": 82}, {"time": 1874, "pitch": 66, "duration": 12, "velocity": 79}, {"time": 1880, "pitch": 59, "duration": 6, "velocity": 62}, {"time": 1886, "pitch": 37, "duration": 13, "velocity": 86}, {"time": 1892, "pitch": 44, "duration": 7, "velocity": 51}, {"time": 1898, "pitch": 49, "duration": 4, "velocity": 71}, {"time": 1898, "pitch": 56, "duration": 13, "velocity": 88}, {"time": 1898, "pitch": 61, "duration": 13, "velocity": 86}, {"time": 1904, "pitch": 52, "duration": 6, "velocity": 76}, {"time": 1910, "pitch": 42, "duration": 21, "velocity": 85}, {"time": 1916, "pitch": 49, "duration": 16, "velocity": 34}, {"time": 1922, "pitch": 54, "duration": 13, "velocity": 72}, {"time": 1922, "pitch": 61, "duration": 20, "velocity": 112}, {"time": 1928, "pitch": 57, "duration": 13, "velocity": 89}, {"time": 1934, "pitch": 42, "duration": 22, "velocity": 83}, {"time": 1937, "pitch": 49, "duration": 21, "velocity": 77}, {"time": 1940, "pitch": 54, "duration": 7, "velocity": 93}, {"time": 1943, "pitch": 57, "duration": 7, "velocity": 90}, {"time": 1946, "pitch": 66, "duration": 12, "velocity": 96}, {"time": 1949, "pitch": 54, "duration": 9, "velocity": 85}, {"time": 1952, "pitch": 61, "duration": 6, "velocity": 102}, {"time": 1955, "pitch": 57, "duration": 3, "velocity": 81}, {"time": 1958, "pitch": 42, "duration": 22, "velocity": 93}, {"time": 1964, "pitch": 49, "duration": 18, "velocity": 52}, {"time": 1970, "pitch": 54, "duration": 12, "velocity": 74}, {"time": 1970, "pitch": 61, "duration": 22, "velocity": 100}, {"time": 1970, "pitch": 66, "duration": 22, "velocity": 35}, {"time": 1976, "pitch": 57, "duration": 84, "velocity": 74}, {"time": 1982, "pitch": 42, "duration": 22, "velocity": 77}, {"time": 1988, "pitch": 49, "duration": 18, "velocity": 40}, {"time": 1994, "pitch": 54, "duration": 14, "velocity": 74}, {"time": 1994, "pitch": 66, "duration": 21, "velocity": 95}, {"time": 2000, "pitch": 61, "duration": 15, "velocity": 96}, {"time": 2006, "pitch": 42, "duration": 21, "velocity": 78}, {"time": 2012, "pitch": 49, "duration": 17, "velocity": 59}, {"time": 2018, "pitch": 54, "duration": 12, "velocity": 69}, {"time": 2018, "pitch": 66, "duration": 20, "velocity": 97}, {"time": 2024, "pitch": 61, "duration": 12, "velocity": 97}, {"time": 2030, "pitch": 42, "duration": 17, "velocity": 79}, {"time": 2036, "pitch": 49, "duration": 9, "velocity": 59}, {"time": 2042, "pitch": 54, "duration": 3, "velocity": 59}, {"time": 2042, "pitch": 66, "duration": 13, "velocity": 102}, {"time": 2048, "pitch": 61, "duration": 6, "velocity": 96}, {"time": 2054, "pitch": 38, "duration": 14, "velocity": 81}, {"time": 2057, "pitch": 45, "duration": 11, "velocity": 72}, {"time": 2060, "pitch": 50, "duration": 6, "velocity": 77}, {"time": 2063, "pitch": 57, "duration": 16, "velocity": 78}, {"time": 2066, "pitch": 66, "duration": 12, "velocity": 117}, {"time": 2072, "pitch": 62, "duration": 6, "velocity": 73}, {"time": 2078, "pitch": 37, "duration": 15, "velocity": 79}, {"time": 2084, "pitch": 44, "duration": 8, "velocity": 53}, {"time": 2090, "pitch": 49, "duration": 6, "velocity": 74}, {"time": 2090, "pitch": 56, "duration": 12, "velocity": 96}, {"time": 2096, "pitch": 52, "duration": 6, "velocity": 72}, {"time": 2102, "pitch": 42, "duration": 21, "velocity": 78}, {"time": 2105, "pitch": 49, "duration": 20, "velocity": 69}, {"time": 2108, "pitch": 54, "duration": 6, "velocity": 81}, {"time": 2111, "pitch": 57, "duration": 6, "velocity": 82}, {"time": 2114, "pitch": 61, "duration": 10, "velocity": 107}, {"time": 2117, "pitch": 54, "duration": 10, "velocity": 82}, {"time": 2120, "pitch": 59, "duration": 7, "velocity": 72}, {"time": 2123, "pitch": 57, "duration": 8, "velocity": 79}, {"time": 2126, "pitch": 42, "duration": 21, "velocity": 77}, {"time": 2129, "pitch": 49, "duration": 16, "velocity": 53}, {"time": 2132, "pitch": 54, "duration": 6, "velocity": 81}, {"time": 2135, "pitch": 57, "duration": 7, "velocity": 82}, {"time": 2138, "pitch": 64, "duration": 12, "velocity": 97}, {"time": 2141, "pitch": 54, "duration": 4, "velocity": 88}, {"time": 2144, "pitch": 61, "duration": 6, "velocity": 90}, {"time": 2147, "pitch": 57, "duration": 3, "velocity": 89}, {"time": 2150, "pitch": 42, "duration": 21, "velocity": 90}, {"time": 2153, "pitch": 54, "duration": 4, "velocity": 40}, {"time": 2156, "pitch": 57, "duration": 12, "velocity": 79}, {"time": 2159, "pitch": 54, "duration": 3, "velocity": 66}, {"time": 2162, "pitch": 66, "duration": 11, "velocity": 100}, {"time": 2165, "pitch": 54, "duration": 8, "velocity": 71}, {"time": 2168, "pitch": 61, "duration": 6, "velocity": 95}, {"time": 2171, "pitch": 57, "duration": 10, "velocity": 82}, {"time": 2174, "pitch": 42, "duration": 22, "velocity": 81}, {"time": 2177, "pitch": 49, "duration": 20, "velocity": 56}, {"time": 2180, "pitch": 54, "duration": 6, "velocity": 73}, {"time": 2183, "pitch": 57, "duration": 9, "velocity": 85}, {"time": 2186, "pitch": 66, "duration": 12, "velocity": 90}, {"time": 2189, "pitch": 54, "duration": 10, "velocity": 72}, {"time": 2192, "pitch": 61, "duration": 5, "velocity": 107}, {"time": 2195, "pitch": 57, "duration": 9, "velocity": 74}, {"time": 2198, "pitch": 42, "duration": 22, "velocity": 81}, {"time": 2201, "pitch": 49, "duration": 21, "velocity": 36}, {"time": 2204, "pitch": 54, "duration": 6, "velocity": 79}, {"time": 2207, "pitch": 57, "duration": 9, "velocity": 77}, {"time": 2210, "pitch": 66, "duration": 20, "velocity": 107}, {"time": 2213, "pitch": 54, "duration": 10, "velocity": 72}, {"time": 2216, "pitch": 61, "duration": 14, "velocity": 88}, {"time": 2219, "pitch": 57, "duration": 10, "velocity": 78}, {"time": 2222, "pitch": 42, "duration": 17, "velocity": 77}, {"time": 2225, "pitch": 49, "duration": 13, "velocity": 71}, {"time": 2228, "pitch": 54, "duration": 6, "velocity": 90}, {"time": 2231, "pitch": 57, "duration": 9, "velocity": 78}, {"time": 2234, "pitch": 66, "duration": 11, "velocity": 112}, {"time": 2237, "pitch": 54, "duration": 2, "velocity": 89}, {"time": 2240, "pitch": 61, "duration": 4, "velocity": 95}, {"time": 2243, "pitch": 57, "duration": 3, "velocity": 90}, {"time": 2246, "pitch": 38, "duration": 32, "velocity": 59}, {"time": 2246, "pitch": 45, "duration": 32, "velocity": 60}, {"time": 2246, "pitch": 50, "duration": 32, "velocity": 63}, {"time": 2246, "pitch": 57, "duration": 31, "velocity": 78}, {"time": 2246, "pitch": 62, "duration": 32, "velocity": 90}, {"time": 2246, "pitch": 66, "duration": 32, "velocity": 86}, {"time": 2306, "pitch": 42, "duration": 22, "velocity": 90}, {"time": 2312, "pitch": 49, "duration": 18, "velocity": 66}, {"time": 2315, "pitch": 54, "duration": 4, "velocity": 58}, {"time": 2318, "pitch": 66, "duration": 17, "velocity": 102}, {"time": 2321, "pitch": 54, "duration": 10, "velocity": 77}, {"time": 2324, "pitch": 61, "duration": 10, "velocity": 67}, {"time": 2327, "pitch": 57, "duration": 9, "velocity": 86}, {"time": 2330, "pitch": 42, "duration": 22, "velocity": 69}, {"time": 2333, "pitch": 49, "duration": 20, "velocity": 57}, {"time": 2336, "pitch": 54, "duration": 6, "velocity": 82}, {"time": 2339, "pitch": 57, "duration": 8, "velocity": 79}, {"time": 2342, "pitch": 66, "duration": 14, "velocity": 117}, {"time": 2345, "pitch": 54, "duration": 10, "velocity": 74}, {"time": 2348, "pitch": 61, "duration": 7, "velocity": 74}, {"time": 2351, "pitch": 57, "duration": 4, "velocity": 74}, {"time": 2354, "pitch": 42, "duration": 22, "velocity": 85}, {"time": 2357, "pitch": 49, "duration": 21, "velocity": 58}, {"time": 2360, "pitch": 54, "duration": 7, "velocity": 86}, {"time": 2363, "pitch": 57, "duration": 4, "velocity": 82}, {"time": 2366, "pitch": 66, "duration": 21, "velocity": 117}, {"time": 2369, "pitch": 54, "duration": 10, "velocity": 66}, {"time": 2372, "pitch": 61, "duration": 15, "velocity": 75}, {"time": 2375, "pitch": 57, "duration": 13, "velocity": 85}, {"time": 2378, "pitch": 42, "duration": 19, "velocity": 70}, {"time": 2384, "pitch": 49, "duration": 13, "velocity": 41}, {"time": 2390, "pitch": 54, "duration": 7, "velocity": 88}, {"time": 2390, "pitch": 57, "duration": 1, "velocity": 24}, {"time": 2390, "pitch": 66, "duration": 10, "velocity": 112}, {"time": 2396, "pitch": 61, "duration": 5, "velocity": 100}, {"time": 2402, "pitch": 42, "duration": 34, "velocity": 57}, {"time": 2402, "pitch": 49, "duration": 33, "velocity": 64}, {"time": 2402, "pitch": 54, "duration": 33, "velocity": 77}, {"time": 2402, "pitch": 57, "duration": 33, "velocity": 77}, {"time": 2402, "pitch": 61, "duration": 33, "velocity": 86}, {"time": 2402, "pitch": 66, "duration": 33, "velocity": 77}], "annotations": [{"time": 38, "annotation": {"number": 64, "value": 127}, "group": "control_change"}, {"time": 60, "annotation": {"number": 64, "value": 0}, "group": "control_change"}, {"time": 62, "annotation": {"number": 64, "value": 127}, "group": "control_change"}, {"time": 84, "annotation": {"number": 64, "value": 0}, "group": "control_change"}, {"time": 86, "annotation": {"number": 64, "value": 127}, "group": "control_change"}, {"time": 108, "annotation": {"number": 64, "value": 0}, "group": "control_change"}, {"time": 110, "annotation": {"number": 64, "value": 127}, "group": "control_change"}, {"time": 132, "annotation": {"number": 64, "value": 0}, "group": "control_change"}, {"time": 134, "annotation": {"number": 64, "value": 127}, "group": "control_change"}, {"time": 156, "annotation": {"number": 64, "value": 0}, "group": "control_change"}, {"time": 159, "annotation": {"number": 64, "value": 127}, "group": "control_change"}, {"time": 180, "annotation": {"number": 64, "value": 0}, "group": "control_change"}, {"time": 182, "annotation": {"number": 64, "value": 127}, "group": "control_change"}, {"time": 203, "annotation": {"number": 64, "value": 0}, "group": "control_change"}, {"time": 206, "annotation": {"number": 64, "value": 127}, "group": "control_change"}, {"time": 226, "annotation": {"number": 64, "value": 0}, "group": "control_change"}, {"time": 229, "annotation": {"number": 64, "value": 127}, "group": "control_change"}, {"time": 252, "annotation": {"number": 64, "value": 0}, "group": "control_change"}, {"time": 255, "annotation": {"number": 64, "value": 127}, "group": "control_change"}, {"time": 276, "annotation": {"number": 64, "value": 0}, "group": "control_change"}, {"time": 278, "annotation": {"number": 64, "value": 127}, "group": "control_change"}, {"time": 299, "annotation": {"number": 64, "value": 0}, "group": "control_change"}, {"time": 302, "annotation": {"number": 64, "value": 127}, "group": "control_change"}, {"time": 323, "annotation": {"number": 64, "value": 0}, "group": "control_change"}, {"time": 325, "annotation": {"number": 64, "value": 127}, "group": "control_change"}, {"time": 348, "annotation": {"number": 64, "value": 0}, "group": "control_change"}, {"time": 350, "annotation": {"number": 64, "value": 127}, "group": "control_change"}, {"time": 371, "annotation": {"number": 64, "value": 0}, "group": "control_change"}, {"time": 373, "annotation": {"number": 64, "value": 127}, "group": "control_change"}, {"time": 395, "annotation": {"number": 64, "value": 0}, "group": "control_change"}, {"time": 397, "annotation": {"number": 64, "value": 127}, "group": "control_change"}, {"time": 419, "annotation": {"number": 64, "value": 0}, "group": "control_change"}, {"time": 422, "annotation": {"number": 64, "value": 127}, "group": "control_change"}, {"time": 443, "annotation": {"number": 64, "value": 0}, "group": "control_change"}, {"time": 445, "annotation": {"number": 64, "value": 127}, "group": "control_change"}, {"time": 466, "annotation": {"number": 64, "value": 0}, "group": "control_change"}, {"time": 469, "annotation": {"number": 64, "value": 127}, "group": "control_change"}, {"time": 490, "annotation": {"number": 64, "value": 0}, "group": "control_change"}, {"time": 493, "annotation": {"number": 64, "value": 127}, "group": "control_change"}, {"time": 515, "annotation": {"number": 64, "value": 0}, "group": "control_change"}, {"time": 518, "annotation": {"number": 64, "value": 127}, "group": "control_change"}, {"time": 539, "annotation": {"number": 64, "value": 0}, "group": "control_change"}, {"time": 541, "annotation": {"number": 64, "value": 127}, "group": "control_change"}, {"time": 563, "annotation": {"number": 64, "value": 0}, "group": "control_change"}, {"time": 565, "annotation": {"number": 64, "value": 127}, "group": "control_change"}, {"time": 587, "annotation": {"number": 64, "value": 0}, "group": "control_change"}, {"time": 589, "annotation": {"number": 64, "value": 127}, "group": "control_change"}, {"time": 610, "annotation": {"number": 64, "value": 0}, "group": "control_change"}, {"time": 613, "annotation": {"number": 64, "value": 127}, "group": "control_change"}, {"time": 635, "annotation": {"number": 64, "value": 0}, "group": "control_change"}, {"time": 637, "annotation": {"number": 64, "value": 127}, "group": "control_change"}, {"time": 659, "annotation": {"number": 64, "value": 0}, "group": "control_change"}, {"time": 662, "annotation": {"number": 64, "value": 127}, "group": "control_change"}, {"time": 684, "annotation": {"number": 64, "value": 0}, "group": "control_change"}, {"time": 686, "annotation": {"number": 64, "value": 127}, "group": "control_change"}, {"time": 707, "annotation": {"number": 64, "value": 0}, "group": "control_change"}, {"time": 710, "annotation": {"number": 64, "value": 127}, "group": "control_change"}, {"time": 731, "annotation": {"number": 64, "value": 0}, "group": "control_change"}, {"time": 734, "annotation": {"number": 64, "value": 127}, "group": "control_change"}, {"time": 756, "annotation": {"number": 64, "value": 0}, "group": "control_change"}, {"time": 758, "annotation": {"number": 64, "value": 127}, "group": "control_change"}, {"time": 779, "annotation": {"number": 64, "value": 0}, "group": "control_change"}, {"time": 782, "annotation": {"number": 64, "value": 127}, "group": "control_change"}, {"time": 802, "annotation": {"number": 64, "value": 0}, "group": "control_change"}, {"time": 805, "annotation": {"number": 64, "value": 127}, "group": "control_change"}, {"time": 826, "annotation": {"number": 64, "value": 0}, "group": "control_change"}, {"time": 829, "annotation": {"number": 64, "value": 127}, "group": "control_change"}, {"time": 851, "annotation": {"number": 64, "value": 0}, "group": "control_change"}, {"time": 854, "annotation": {"number": 64, "value": 127}, "group": "control_change"}, {"time": 875, "annotation": {"number": 64, "value": 0}, "group": "control_change"}, {"time": 878, "annotation": {"number": 64, "value": 127}, "group": "control_change"}, {"time": 899, "annotation": {"number": 64, "value": 0}, "group": "control_change"}, {"time": 902, "annotation": {"number": 64, "value": 127}, "group": "control_change"}, {"time": 923, "annotation": {"number": 64, "value": 0}, "group": "control_change"}, {"time": 925, "annotation": {"number": 64, "value": 127}, "group": "control_change"}, {"time": 948, "annotation": {"number": 64, "value": 0}, "group": "control_change"}, {"time": 950, "annotation": {"number": 64, "value": 127}, "group": "control_change"}, {"time": 971, "annotation": {"number": 64, "value": 0}, "group": "control_change"}, {"time": 974, "annotation": {"number": 64, "value": 127}, "group": "control_change"}, {"time": 993, "annotation": {"number": 64, "value": 0}, "group": "control_change"}, {"time": 998, "annotation": {"number": 64, "value": 127}, "group": "control_change"}, {"time": 1019, "annotation": {"number": 64, "value": 0}, "group": "control_change"}, {"time": 1022, "annotation": {"number": 64, "value": 127}, "group": "control_change"}, {"time": 1044, "annotation": {"number": 64, "value": 0}, "group": "control_change"}, {"time": 1046, "annotation": {"number": 64, "value": 127}, "group": "control_change"}, {"time": 1067, "annotation": {"number": 64, "value": 0}, "group": "control_change"}, {"time": 1070, "annotation": {"number": 64, "value": 127}, "group": "control_change"}, {"time": 1091, "annotation": {"number": 64, "value": 0}, "group": "control_change"}, {"time": 1094, "annotation": {"number": 64, "value": 127}, "group": "control_change"}, {"time": 1116, "annotation": {"number": 64, "value": 0}, "group": "control_change"}, {"time": 1117, "annotation": {"number": 64, "value": 127}, "group": "control_change"}, {"time": 1139, "annotation": {"number": 64, "value": 0}, "group": "control_change"}, {"time": 1142, "annotation": {"number": 64, "value": 127}, "group": "control_change"}, {"time": 1164, "annotation": {"number": 64, "value": 0}, "group": "control_change"}, {"time": 1166, "annotation": {"number": 64, "value": 127}, "group": "control_change"}, {"time": 1186, "annotation": {"number": 64, "value": 0}, "group": "control_change"}, {"time": 1190, "annotation": {"number": 64, "value": 127}, "group": "control_change"}, {"time": 1212, "annotation": {"number": 64, "value": 0}, "group": "control_change"}, {"time": 1214, "annotation": {"number": 64, "value": 127}, "group": "control_change"}, {"time": 1236, "annotation": {"number": 64, "value": 0}, "group": "control_change"}, {"time": 1238, "annotation": {"number": 64, "value": 127}, "group": "control_change"}, {"time": 1260, "annotation": {"number": 64, "value": 0}, "group": "control_change"}, {"time": 1262, "annotation": {"number": 64, "value": 127}, "group": "control_change"}, {"time": 1284, "annotation": {"number": 64, "value": 0}, "group": "control_change"}, {"time": 1286, "annotation": {"number": 64, "value": 127}, "group": "control_change"}, {"time": 1308, "annotation": {"number": 64, "value": 0}, "group": "control_change"}, {"time": 1311, "annotation": {"number": 64, "value": 127}, "group": "control_change"}, {"time": 1332, "annotation": {"number": 64, "value": 0}, "group": "control_change"}, {"time": 1334, "annotation": {"number": 64, "value": 127}, "group": "control_change"}, {"time": 1355, "annotation": {"number": 64, "value": 0}, "group": "control_change"}, {"time": 1358, "annotation": {"number": 64, "value": 127}, "group": "control_change"}, {"time": 1378, "annotation": {"number": 64, "value": 0}, "group": "control_change"}, {"time": 1381, "annotation": {"number": 64, "value": 127}, "group": "control_change"}, {"time": 1404, "annotation": {"number": 64, "value": 0}, "group": "control_change"}, {"time": 1407, "annotation": {"number": 64, "value": 127}, "group": "control_change"}, {"time": 1428, "annotation": {"number": 64, "value": 0}, "group": "control_change"}, {"time": 1430, "annotation": {"number": 64, "value": 127}, "group": "control_change"}, {"time": 1451, "annotation": {"number": 64, "value": 0}, "group": "control_change"}, {"time": 1454, "annotation": {"number": 64, "value": 127}, "group": "control_change"}, {"time": 1475, "annotation": {"number": 64, "value": 0}, "group": "control_change"}, {"time": 1477, "annotation": {"number": 64, "value": 127}, "group": "control_change"}, {"time": 1500, "annotation": {"number": 64, "value": 0}, "group": "control_change"}, {"time": 1502, "annotation": {"number": 64, "value": 127}, "group": "control_change"}, {"time": 1523, "annotation": {"number": 64, "value": 0}, "group": "control_change"}, {"time": 1525, "annotation": {"number": 64, "value": 127}, "group": "control_change"}, {"time": 1547, "annotation": {"number": 64, "value": 0}, "group": "control_change"}, {"time": 1549, "annotation": {"number": 64, "value": 127}, "group": "control_change"}, {"time": 1571, "annotation": {"number": 64, "value": 0}, "group": "control_change"}, {"time": 1574, "annotation": {"number": 64, "value": 127}, "group": "control_change"}, {"time": 1595, "annotation": {"number": 64, "value": 0}, "group": "control_change"}, {"time": 1597, "annotation": {"number": 64, "value": 127}, "group": "control_change"}, {"time": 1618, "annotation": {"number": 64, "value": 0}, "group": "control_change"}, {"time": 1621, "annotation": {"number": 64, "value": 127}, "group": "control_change"}, {"time": 1642, "annotation": {"number": 64, "value": 0}, "group": "control_change"}, {"time": 1645, "annotation": {"number": 64, "value": 127}, "group": "control_change"}, {"time": 1667, "annotation": {"number": 64, "value": 0}, "group": "control_change"}, {"time": 1670, "annotation": {"number": 64, "value": 127}, "group": "control_change"}, {"time": 1691, "annotation": {"number": 64, "value": 0}, "group": "control_change"}, {"time": 1693, "annotation": {"number": 64, "value": 127}, "group": "control_change"}, {"time": 1715, "annotation": {"number": 64, "value": 0}, "group": "control_change"}, {"time": 1717, "annotation": {"number": 64, "value": 127}, "group": "control_change"}, {"time": 1739, "annotation": {"number": 64, "value": 0}, "group": "control_change"}, {"time": 1741, "annotation": {"number": 64, "value": 127}, "group": "control_change"}, {"time": 1762, "annotation": {"number": 64, "value": 0}, "group": "control_change"}, {"time": 1765, "annotation": {"number": 64, "value": 127}, "group": "control_change"}, {"time": 1787, "annotation": {"number": 64, "value": 0}, "group": "control_change"}, {"time": 1789, "annotation": {"number": 64, "value": 127}, "group": "control_change"}, {"time": 1811, "annotation": {"number": 64, "value": 0}, "group": "control_change"}, {"time": 1814, "annotation": {"number": 64, "value": 127}, "group": "control_change"}, {"time": 1836, "annotation": {"number": 64, "value": 0}, "group": "control_change"}, {"time": 1838, "annotation": {"number": 64, "value": 127}, "group": "control_change"}, {"time": 1859, "annotation": {"number": 64, "value": 0}, "group": "control_change"}, {"time": 1862, "annotation": {"number": 64, "value": 127}, "group": "control_change"}, {"time": 1883, "annotation": {"number": 64, "value": 0}, "group": "control_change"}, {"time": 1886, "annotation": {"number": 64, "value": 127}, "group": "control_change"}, {"time": 1908, "annotation": {"number": 64, "value": 0}, "group": "control_change"}, {"time": 1910, "annotation": {"number": 64, "value": 127}, "group": "control_change"}, {"time": 1931, "annotation": {"number": 64, "value": 0}, "group": "control_change"}, {"time": 1934, "annotation": {"number": 64, "value": 127}, "group": "control_change"}, {"time": 1954, "annotation": {"number": 64, "value": 0}, "group": "control_change"}, {"time": 1957, "annotation": {"number": 64, "value": 127}, "group": "control_change"}, {"time": 1978, "annotation": {"number": 64, "value": 0}, "group": "control_change"}, {"time": 1981, "annotation": {"number": 64, "value": 127}, "group": "control_change"}, {"time": 2003, "annotation": {"number": 64, "value": 0}, "group": "control_change"}, {"time": 2006, "annotation": {"number": 64, "value": 127}, "group": "control_change"}, {"time": 2027, "annotation": {"number": 64, "value": 0}, "group": "control_change"}, {"time": 2030, "annotation": {"number": 64, "value": 127}, "group": "control_change"}, {"time": 2051, "annotation": {"number": 64, "value": 0}, "group": "control_change"}, {"time": 2054, "annotation": {"number": 64, "value": 127}, "group": "control_change"}, {"time": 2075, "annotation": {"number": 64, "value": 0}, "group": "control_change"}, {"time": 2077, "annotation": {"number": 64, "value": 127}, "group": "control_change"}, {"time": 2100, "annotation": {"number": 64, "value": 0}, "group": "control_change"}, {"time": 2102, "annotation": {"number": 64, "value": 127}, "group": "control_change"}, {"time": 2123, "annotation": {"number": 64, "value": 0}, "group": "control_change"}, {"time": 2126, "annotation": {"number": 64, "value": 127}, "group": "control_change"}, {"time": 2145, "annotation": {"number": 64, "value": 0}, "group": "control_change"}, {"time": 2151, "annotation": {"number": 64, "value": 127}, "group": "control_change"}, {"time": 2171, "annotation": {"number": 64, "value": 0}, "group": "control_change"}, {"time": 2173, "annotation": {"number": 64, "value": 127}, "group": "control_change"}, {"time": 2195, "annotation": {"number": 64, "value": 0}, "group": "control_change"}, {"time": 2198, "annotation": {"number": 64, "value": 127}, "group": "control_change"}, {"time": 2219, "annotation": {"number": 64, "value": 0}, "group": "control_change"}, {"time": 2222, "annotation": {"number": 64, "value": 127}, "group": "control_change"}, {"time": 2244, "annotation": {"number": 64, "value": 0}, "group": "control_change"}, {"time": 2306, "annotation": {"number": 64, "value": 127}, "group": "control_change"}, {"time": 2327, "annotation": {"number": 64, "value": 0}, "group": "control_change"}, {"time": 2330, "annotation": {"number": 64, "value": 127}, "group": "control_change"}, {"time": 2351, "annotation": {"number": 64, "value": 0}, "group": "control_change"}, {"time": 2354, "annotation": {"number": 64, "value": 127}, "group": "control_change"}, {"time": 2375, "annotation": {"number": 64, "value": 0}, "group": "control_change"}, {"time": 2378, "annotation": {"number": 64, "value": 127}, "group": "control_change"}, {"time": 2399, "annotation": {"number": 64, "value": 0}, "group": "control_change"}, {"time": 2429, "annotation": {"number": 64, "value": 127}, "group": "control_change"}, {"time": 2454, "annotation": {"number": 64, "value": 0}, "group": "control_change"}, {"time": 2455, "annotation": {"number": 64, "value": 127}, "group": "control_change"}, {"time": 2456, "annotation": {"number": 64, "value": 0}, "group": "control_change"}, {"time": 2457, "annotation": {"number": 64, "value": 127}, "group": "control_change"}, {"time": 2466, "annotation": {"number": 64, "value": 0}, "group": "control_change"}]}]}