{"metadata": {"schema_version": "0.2", "title": "None", "source_filename": "756.mid", "source_format": "midi"}, "resolution": 12, "tempos": [{"time": 0, "qpm": 92.50023510476423}], "time_signatures": [{"time": 0, "numerator": 1, "denominator": 4}], "tracks": [{"program": 0, "is_drum": false, "name": "MELODY", "notes": [{"time": 410, "pitch": 55, "duration": 6, "velocity": 62}, {"time": 416, "pitch": 59, "duration": 4, "velocity": 76}, {"time": 428, "pitch": 59, "duration": 2, "velocity": 85}, {"time": 434, "pitch": 59, "duration": 3, "velocity": 79}, {"time": 440, "pitch": 57, "duration": 3, "velocity": 81}, {"time": 446, "pitch": 55, "duration": 4, "velocity": 77}, {"time": 452, "pitch": 59, "duration": 16, "velocity": 90}, {"time": 476, "pitch": 57, "duration": 3, "velocity": 86}, {"time": 482, "pitch": 55, "duration": 3, "velocity": 71}, {"time": 488, "pitch": 57, "duration": 3, "velocity": 77}, {"time": 494, "pitch": 59, "duration": 20, "velocity": 92}, {"time": 524, "pitch": 59, "duration": 2, "velocity": 81}, {"time": 530, "pitch": 57, "duration": 2, "velocity": 74}, {"time": 536, "pitch": 57, "duration": 2, "velocity": 79}, {"time": 542, "pitch": 55, "duration": 3, "velocity": 86}, {"time": 548, "pitch": 57, "duration": 2, "velocity": 78}, {"time": 554, "pitch": 57, "duration": 6, "velocity": 97}, {"time": 572, "pitch": 55, "duration": 3, "velocity": 82}, {"time": 578, "pitch": 57, "duration": 8, "velocity": 79}, {"time": 596, "pitch": 55, "duration": 4, "velocity": 85}, {"time": 602, "pitch": 57, "duration": 3, "velocity": 74}, {"time": 608, "pitch": 57, "duration": 3, "velocity": 79}, {"time": 614, "pitch": 55, "duration": 3, "velocity": 72}, {"time": 620, "pitch": 55, "duration": 3, "velocity": 79}, {"time": 626, "pitch": 55, "duration": 3, "velocity": 81}, {"time": 632, "pitch": 57, "duration": 3, "velocity": 89}, {"time": 638, "pitch": 59, "duration": 2, "velocity": 86}, {"time": 644, "pitch": 57, "duration": 6, "velocity": 88}, {"time": 686, "pitch": 57, "duration": 6, "velocity": 93}, {"time": 692, "pitch": 55, "duration": 6, "velocity": 73}, {"time": 698, "pitch": 57, "duration": 4, "velocity": 72}, {"time": 704, "pitch": 57, "duration": 4, "velocity": 89}, {"time": 710, "pitch": 59, "duration": 25, "velocity": 89}, {"time": 758, "pitch": 59, "duration": 5, "velocity": 79}, {"time": 764, "pitch": 57, "duration": 2, "velocity": 72}, {"time": 770, "pitch": 55, "duration": 6, "velocity": 77}, {"time": 776, "pitch": 57, "duration": 4, "velocity": 83}, {"time": 788, "pitch": 57, "duration": 9, "velocity": 83}, {"time": 806, "pitch": 54, "duration": 5, "velocity": 73}, {"time": 812, "pitch": 50, "duration": 2, "velocity": 53}, {"time": 830, "pitch": 59, "duration": 3, "velocity": 86}, {"time": 842, "pitch": 55, "duration": 3, "velocity": 79}, {"time": 848, "pitch": 62, "duration": 4, "velocity": 88}, {"time": 854, "pitch": 64, "duration": 9, "velocity": 95}, {"time": 884, "pitch": 64, "duration": 3, "velocity": 85}, {"time": 890, "pitch": 62, "duration": 2, "velocity": 81}, {"time": 896, "pitch": 64, "duration": 2, "velocity": 82}, {"time": 902, "pitch": 62, "duration": 3, "velocity": 90}, {"time": 914, "pitch": 62, "duration": 3, "velocity": 83}, {"time": 920, "pitch": 57, "duration": 9, "velocity": 86}, {"time": 974, "pitch": 57, "duration": 8, "velocity": 85}, {"time": 986, "pitch": 59, "duration": 36, "velocity": 83}, {"time": 1046, "pitch": 59, "duration": 5, "velocity": 83}, {"time": 1052, "pitch": 57, "duration": 5, "velocity": 78}, {"time": 1058, "pitch": 55, "duration": 6, "velocity": 69}, {"time": 1064, "pitch": 59, "duration": 3, "velocity": 85}, {"time": 1070, "pitch": 59, "duration": 5, "velocity": 89}, {"time": 1082, "pitch": 57, "duration": 6, "velocity": 83}, {"time": 1094, "pitch": 59, "duration": 3, "velocity": 95}, {"time": 1100, "pitch": 57, "duration": 4, "velocity": 82}, {"time": 1106, "pitch": 59, "duration": 4, "velocity": 92}, {"time": 1118, "pitch": 59, "duration": 7, "velocity": 90}, {"time": 1130, "pitch": 55, "duration": 4, "velocity": 78}, {"time": 1136, "pitch": 62, "duration": 4, "velocity": 95}, {"time": 1142, "pitch": 64, "duration": 4, "velocity": 93}, {"time": 1172, "pitch": 64, "duration": 4, "velocity": 89}, {"time": 1178, "pitch": 62, "duration": 3, "velocity": 75}, {"time": 1184, "pitch": 62, "duration": 6, "velocity": 83}, {"time": 1190, "pitch": 64, "duration": 4, "velocity": 85}, {"time": 1202, "pitch": 64, "duration": 4, "velocity": 89}, {"time": 1208, "pitch": 62, "duration": 4, "velocity": 83}, {"time": 1226, "pitch": 62, "duration": 6, "velocity": 95}, {"time": 1238, "pitch": 57, "duration": 6, "velocity": 82}, {"time": 1262, "pitch": 62, "duration": 6, "velocity": 95}, {"time": 1274, "pitch": 59, "duration": 27, "velocity": 96}, {"time": 1340, "pitch": 55, "duration": 3, "velocity": 79}, {"time": 1346, "pitch": 55, "duration": 3, "velocity": 75}, {"time": 1352, "pitch": 59, "duration": 7, "velocity": 88}, {"time": 1364, "pitch": 57, "duration": 5, "velocity": 92}, {"time": 1370, "pitch": 59, "duration": 3, "velocity": 73}, {"time": 1376, "pitch": 54, "duration": 10, "velocity": 90}, {"time": 1406, "pitch": 59, "duration": 4, "velocity": 78}, {"time": 1412, "pitch": 57, "duration": 4, "velocity": 72}, {"time": 1418, "pitch": 55, "duration": 3, "velocity": 81}, {"time": 1424, "pitch": 62, "duration": 6, "velocity": 92}, {"time": 1430, "pitch": 64, "duration": 7, "velocity": 92}, {"time": 1490, "pitch": 50, "duration": 3, "velocity": 76}, {"time": 1496, "pitch": 62, "duration": 4, "velocity": 88}, {"time": 1502, "pitch": 59, "duration": 22, "velocity": 81}, {"time": 1526, "pitch": 57, "duration": 4, "velocity": 93}, {"time": 1532, "pitch": 57, "duration": 29, "velocity": 89}, {"time": 1562, "pitch": 62, "duration": 5, "velocity": 82}, {"time": 1568, "pitch": 71, "duration": 8, "velocity": 92}, {"time": 1580, "pitch": 71, "duration": 4, "velocity": 97}, {"time": 1586, "pitch": 71, "duration": 4, "velocity": 92}, {"time": 1592, "pitch": 69, "duration": 4, "velocity": 97}, {"time": 1598, "pitch": 67, "duration": 7, "velocity": 78}, {"time": 1604, "pitch": 71, "duration": 5, "velocity": 100}, {"time": 1616, "pitch": 66, "duration": 12, "velocity": 102}, {"time": 1634, "pitch": 66, "duration": 4, "velocity": 107}, {"time": 1640, "pitch": 71, "duration": 8, "velocity": 100}, {"time": 1652, "pitch": 71, "duration": 12, "velocity": 112}, {"time": 1670, "pitch": 69, "duration": 4, "velocity": 107}, {"time": 1676, "pitch": 71, "duration": 9, "velocity": 112}, {"time": 1694, "pitch": 67, "duration": 3, "velocity": 85}, {"time": 1700, "pitch": 67, "duration": 2, "velocity": 93}, {"time": 1706, "pitch": 67, "duration": 3, "velocity": 86}, {"time": 1712, "pitch": 72, "duration": 8, "velocity": 99}, {"time": 1724, "pitch": 72, "duration": 4, "velocity": 112}, {"time": 1730, "pitch": 72, "duration": 5, "velocity": 112}, {"time": 1742, "pitch": 71, "duration": 4, "velocity": 100}, {"time": 1748, "pitch": 69, "duration": 3, "velocity": 93}, {"time": 1754, "pitch": 72, "duration": 16, "velocity": 112}, {"time": 1778, "pitch": 74, "duration": 4, "velocity": 97}, {"time": 1784, "pitch": 69, "duration": 12, "velocity": 100}, {"time": 1802, "pitch": 67, "duration": 10, "velocity": 100}, {"time": 1820, "pitch": 69, "duration": 19, "velocity": 99}, {"time": 1850, "pitch": 62, "duration": 5, "velocity": 82}, {"time": 1856, "pitch": 71, "duration": 8, "velocity": 92}, {"time": 1868, "pitch": 71, "duration": 4, "velocity": 97}, {"time": 1874, "pitch": 71, "duration": 4, "velocity": 92}, {"time": 1880, "pitch": 69, "duration": 4, "velocity": 97}, {"time": 1886, "pitch": 67, "duration": 7, "velocity": 78}, {"time": 1892, "pitch": 71, "duration": 5, "velocity": 100}, {"time": 1910, "pitch": 71, "duration": 7, "velocity": 102}, {"time": 1922, "pitch": 67, "duration": 4, "velocity": 93}, {"time": 1928, "pitch": 66, "duration": 12, "velocity": 97}, {"time": 1946, "pitch": 74, "duration": 18, "velocity": 102}, {"time": 1976, "pitch": 62, "duration": 4, "velocity": 99}, {"time": 1982, "pitch": 71, "duration": 8, "velocity": 97}, {"time": 1994, "pitch": 71, "duration": 3, "velocity": 112}, {"time": 2000, "pitch": 72, "duration": 3, "velocity": 112}, {"time": 2006, "pitch": 71, "duration": 2, "velocity": 112}, {"time": 2012, "pitch": 69, "duration": 6, "velocity": 100}, {"time": 2018, "pitch": 69, "duration": 1, "velocity": 99}, {"time": 2030, "pitch": 71, "duration": 3, "velocity": 90}, {"time": 2036, "pitch": 72, "duration": 3, "velocity": 95}, {"time": 2042, "pitch": 69, "duration": 18, "velocity": 97}, {"time": 2072, "pitch": 67, "duration": 5, "velocity": 99}, {"time": 2078, "pitch": 69, "duration": 3, "velocity": 93}, {"time": 2084, "pitch": 71, "duration": 3, "velocity": 95}, {"time": 2090, "pitch": 69, "duration": 28, "velocity": 117}, {"time": 2702, "pitch": 57, "duration": 7, "velocity": 100}, {"time": 2714, "pitch": 55, "duration": 5, "velocity": 88}, {"time": 2720, "pitch": 57, "duration": 7, "velocity": 92}, {"time": 2726, "pitch": 59, "duration": 34, "velocity": 95}, {"time": 2774, "pitch": 59, "duration": 5, "velocity": 83}, {"time": 2780, "pitch": 57, "duration": 5, "velocity": 78}, {"time": 2786, "pitch": 55, "duration": 6, "velocity": 69}, {"time": 2792, "pitch": 59, "duration": 3, "velocity": 85}, {"time": 2798, "pitch": 59, "duration": 5, "velocity": 89}, {"time": 2810, "pitch": 57, "duration": 6, "velocity": 83}, {"time": 2822, "pitch": 59, "duration": 3, "velocity": 95}, {"time": 2828, "pitch": 57, "duration": 4, "velocity": 82}, {"time": 2834, "pitch": 59, "duration": 4, "velocity": 92}, {"time": 2846, "pitch": 59, "duration": 7, "velocity": 90}, {"time": 2858, "pitch": 55, "duration": 4, "velocity": 78}, {"time": 2864, "pitch": 62, "duration": 4, "velocity": 95}, {"time": 2870, "pitch": 64, "duration": 4, "velocity": 93}, {"time": 2900, "pitch": 64, "duration": 4, "velocity": 89}, {"time": 2906, "pitch": 62, "duration": 3, "velocity": 75}, {"time": 2912, "pitch": 62, "duration": 6, "velocity": 83}, {"time": 2918, "pitch": 64, "duration": 4, "velocity": 85}, {"time": 2930, "pitch": 64, "duration": 4, "velocity": 89}, {"time": 2936, "pitch": 62, "duration": 4, "velocity": 83}, {"time": 2954, "pitch": 62, "duration": 6, "velocity": 95}, {"time": 2966, "pitch": 57, "duration": 6, "velocity": 82}, {"time": 2990, "pitch": 62, "duration": 6, "velocity": 95}, {"time": 3002, "pitch": 59, "duration": 27, "velocity": 96}, {"time": 3068, "pitch": 55, "duration": 3, "velocity": 79}, {"time": 3074, "pitch": 55, "duration": 3, "velocity": 75}, {"time": 3080, "pitch": 59, "duration": 7, "velocity": 88}, {"time": 3092, "pitch": 57, "duration": 5, "velocity": 92}, {"time": 3098, "pitch": 59, "duration": 3, "velocity": 73}, {"time": 3104, "pitch": 54, "duration": 10, "velocity": 90}, {"time": 3134, "pitch": 59, "duration": 4, "velocity": 78}, {"time": 3140, "pitch": 57, "duration": 4, "velocity": 72}, {"time": 3146, "pitch": 55, "duration": 3, "velocity": 81}, {"time": 3152, "pitch": 62, "duration": 6, "velocity": 92}, {"time": 3158, "pitch": 64, "duration": 7, "velocity": 92}, {"time": 3218, "pitch": 50, "duration": 3, "velocity": 76}, {"time": 3224, "pitch": 62, "duration": 4, "velocity": 88}, {"time": 3230, "pitch": 59, "duration": 22, "velocity": 81}, {"time": 3254, "pitch": 57, "duration": 4, "velocity": 93}, {"time": 3260, "pitch": 57, "duration": 29, "velocity": 89}, {"time": 3290, "pitch": 62, "duration": 5, "velocity": 82}, {"time": 3296, "pitch": 71, "duration": 8, "velocity": 92}, {"time": 3308, "pitch": 71, "duration": 4, "velocity": 97}, {"time": 3314, "pitch": 71, "duration": 4, "velocity": 92}, {"time": 3320, "pitch": 69, "duration": 4, "velocity": 97}, {"time": 3326, "pitch": 67, "duration": 7, "velocity": 78}, {"time": 3332, "pitch": 71, "duration": 5, "velocity": 100}, {"time": 3344, "pitch": 66, "duration": 12, "velocity": 102}, {"time": 3362, "pitch": 66, "duration": 4, "velocity": 107}, {"time": 3368, "pitch": 71, "duration": 8, "velocity": 100}, {"time": 3380, "pitch": 71, "duration": 12, "velocity": 112}, {"time": 3398, "pitch": 69, "duration": 4, "velocity": 107}, {"time": 3404, "pitch": 71, "duration": 9, "velocity": 112}, {"time": 3422, "pitch": 67, "duration": 3, "velocity": 85}, {"time": 3428, "pitch": 67, "duration": 2, "velocity": 93}, {"time": 3434, "pitch": 67, "duration": 3, "velocity": 86}, {"time": 3440, "pitch": 72, "duration": 8, "velocity": 99}, {"time": 3452, "pitch": 72, "duration": 4, "velocity": 112}, {"time": 3458, "pitch": 72, "duration": 5, "velocity": 112}, {"time": 3470, "pitch": 71, "duration": 4, "velocity": 100}, {"time": 3476, "pitch": 69, "duration": 3, "velocity": 93}, {"time": 3482, "pitch": 72, "duration": 16, "velocity": 112}, {"time": 3506, "pitch": 74, "duration": 4, "velocity": 97}, {"time": 3512, "pitch": 69, "duration": 12, "velocity": 100}, {"time": 3530, "pitch": 67, "duration": 10, "velocity": 100}, {"time": 3548, "pitch": 69, "duration": 19, "velocity": 99}, {"time": 3578, "pitch": 62, "duration": 5, "velocity": 82}, {"time": 3584, "pitch": 71, "duration": 8, "velocity": 92}, {"time": 3596, "pitch": 71, "duration": 4, "velocity": 97}, {"time": 3602, "pitch": 71, "duration": 4, "velocity": 92}, {"time": 3608, "pitch": 69, "duration": 4, "velocity": 97}, {"time": 3614, "pitch": 67, "duration": 7, "velocity": 78}, {"time": 3620, "pitch": 71, "duration": 5, "velocity": 100}, {"time": 3638, "pitch": 71, "duration": 7, "velocity": 102}, {"time": 3650, "pitch": 67, "duration": 4, "velocity": 93}, {"time": 3656, "pitch": 66, "duration": 12, "velocity": 97}, {"time": 3674, "pitch": 74, "duration": 18, "velocity": 102}, {"time": 3704, "pitch": 62, "duration": 4, "velocity": 99}, {"time": 3710, "pitch": 71, "duration": 8, "velocity": 97}, {"time": 3722, "pitch": 71, "duration": 3, "velocity": 112}, {"time": 3728, "pitch": 72, "duration": 3, "velocity": 112}, {"time": 3734, "pitch": 71, "duration": 2, "velocity": 112}, {"time": 3740, "pitch": 69, "duration": 6, "velocity": 100}, {"time": 3746, "pitch": 69, "duration": 1, "velocity": 99}, {"time": 3758, "pitch": 71, "duration": 3, "velocity": 90}, {"time": 3764, "pitch": 72, "duration": 3, "velocity": 95}, {"time": 3770, "pitch": 69, "duration": 18, "velocity": 97}, {"time": 3800, "pitch": 67, "duration": 5, "velocity": 99}, {"time": 3806, "pitch": 69, "duration": 3, "velocity": 93}, {"time": 3812, "pitch": 71, "duration": 3, "velocity": 95}, {"time": 3818, "pitch": 69, "duration": 6, "velocity": 117}, {"time": 3836, "pitch": 74, "duration": 20, "velocity": 127}, {"time": 3866, "pitch": 74, "duration": 3, "velocity": 112}, {"time": 3872, "pitch": 74, "duration": 6, "velocity": 112}, {"time": 3884, "pitch": 74, "duration": 3, "velocity": 127}, {"time": 3890, "pitch": 74, "duration": 3, "velocity": 102}, {"time": 3896, "pitch": 72, "duration": 4, "velocity": 117}, {"time": 3902, "pitch": 71, "duration": 5, "velocity": 89}, {"time": 3908, "pitch": 74, "duration": 7, "velocity": 127}, {"time": 3920, "pitch": 71, "duration": 12, "velocity": 112}, {"time": 3938, "pitch": 71, "duration": 5, "velocity": 99}, {"time": 3944, "pitch": 74, "duration": 8, "velocity": 127}, {"time": 3956, "pitch": 74, "duration": 13, "velocity": 122}, {"time": 3974, "pitch": 71, "duration": 5, "velocity": 112}, {"time": 3980, "pitch": 74, "duration": 8, "velocity": 117}, {"time": 3998, "pitch": 74, "duration": 4, "velocity": 102}, {"time": 4004, "pitch": 74, "duration": 3, "velocity": 99}, {"time": 4010, "pitch": 74, "duration": 3, "velocity": 112}, {"time": 4016, "pitch": 76, "duration": 10, "velocity": 127}, {"time": 4028, "pitch": 76, "duration": 4, "velocity": 122}, {"time": 4034, "pitch": 76, "duration": 7, "velocity": 107}, {"time": 4046, "pitch": 74, "duration": 3, "velocity": 112}, {"time": 4052, "pitch": 72, "duration": 4, "velocity": 117}, {"time": 4058, "pitch": 76, "duration": 7, "velocity": 112}, {"time": 4082, "pitch": 76, "duration": 3, "velocity": 100}, {"time": 4088, "pitch": 74, "duration": 18, "velocity": 95}, {"time": 4106, "pitch": 71, "duration": 11, "velocity": 100}, {"time": 4118, "pitch": 74, "duration": 2, "velocity": 102}, {"time": 4124, "pitch": 74, "duration": 24, "velocity": 112}, {"time": 4154, "pitch": 62, "duration": 3, "velocity": 96}, {"time": 4160, "pitch": 74, "duration": 7, "velocity": 107}, {"time": 4172, "pitch": 74, "duration": 3, "velocity": 122}, {"time": 4178, "pitch": 74, "duration": 7, "velocity": 122}, {"time": 4190, "pitch": 71, "duration": 5, "velocity": 89}, {"time": 4196, "pitch": 74, "duration": 8, "velocity": 112}, {"time": 4214, "pitch": 74, "duration": 6, "velocity": 112}, {"time": 4226, "pitch": 71, "duration": 3, "velocity": 99}, {"time": 4232, "pitch": 71, "duration": 15, "velocity": 102}, {"time": 4250, "pitch": 78, "duration": 12, "velocity": 127}, {"time": 4268, "pitch": 74, "duration": 7, "velocity": 100}, {"time": 4280, "pitch": 67, "duration": 4, "velocity": 95}, {"time": 4286, "pitch": 74, "duration": 8, "velocity": 102}, {"time": 4298, "pitch": 74, "duration": 3, "velocity": 112}, {"time": 4304, "pitch": 76, "duration": 6, "velocity": 102}, {"time": 4310, "pitch": 74, "duration": 4, "velocity": 122}, {"time": 4316, "pitch": 72, "duration": 2, "velocity": 112}, {"time": 4322, "pitch": 72, "duration": 13, "velocity": 117}, {"time": 4334, "pitch": 74, "duration": 3, "velocity": 112}, {"time": 4340, "pitch": 76, "duration": 3, "velocity": 92}, {"time": 4346, "pitch": 72, "duration": 11, "velocity": 112}, {"time": 4376, "pitch": 69, "duration": 3, "velocity": 100}, {"time": 4382, "pitch": 69, "duration": 3, "velocity": 99}, {"time": 4388, "pitch": 71, "duration": 3, "velocity": 102}, {"time": 4394, "pitch": 69, "duration": 12, "velocity": 112}, {"time": 4466, "pitch": 67, "duration": 7, "velocity": 86}, {"time": 4478, "pitch": 66, "duration": 3, "velocity": 89}, {"time": 4487, "pitch": 66, "duration": 5, "velocity": 86}, {"time": 4493, "pitch": 67, "duration": 41, "velocity": 83}]}, {"program": 0, "is_drum": false, "name": "PIANO", "notes": [{"time": 128, "pitch": 43, "duration": 35, "velocity": 63}, {"time": 134, "pitch": 50, "duration": 15, "velocity": 54}, {"time": 140, "pitch": 55, "duration": 6, "velocity": 52}, {"time": 146, "pitch": 59, "duration": 15, "velocity": 72}, {"time": 152, "pitch": 50, "duration": 12, "velocity": 27}, {"time": 158, "pitch": 55, "duration": 12, "velocity": 63}, {"time": 164, "pitch": 43, "duration": 36, "velocity": 83}, {"time": 170, "pitch": 50, "duration": 15, "velocity": 42}, {"time": 176, "pitch": 55, "duration": 7, "velocity": 53}, {"time": 182, "pitch": 59, "duration": 18, "velocity": 69}, {"time": 188, "pitch": 50, "duration": 10, "velocity": 53}, {"time": 194, "pitch": 55, "duration": 6, "velocity": 69}, {"time": 200, "pitch": 47, "duration": 34, "velocity": 63}, {"time": 206, "pitch": 54, "duration": 14, "velocity": 44}, {"time": 212, "pitch": 59, "duration": 7, "velocity": 65}, {"time": 218, "pitch": 62, "duration": 13, "velocity": 83}, {"time": 224, "pitch": 54, "duration": 12, "velocity": 59}, {"time": 230, "pitch": 59, "duration": 13, "velocity": 69}, {"time": 236, "pitch": 47, "duration": 38, "velocity": 68}, {"time": 242, "pitch": 54, "duration": 28, "velocity": 52}, {"time": 248, "pitch": 59, "duration": 6, "velocity": 61}, {"time": 254, "pitch": 62, "duration": 7, "velocity": 88}, {"time": 260, "pitch": 60, "duration": 6, "velocity": 73}, {"time": 266, "pitch": 59, "duration": 6, "velocity": 59}, {"time": 272, "pitch": 45, "duration": 34, "velocity": 69}, {"time": 278, "pitch": 52, "duration": 15, "velocity": 40}, {"time": 284, "pitch": 57, "duration": 7, "velocity": 66}, {"time": 290, "pitch": 60, "duration": 27, "velocity": 89}, {"time": 296, "pitch": 52, "duration": 9, "velocity": 39}, {"time": 302, "pitch": 57, "duration": 14, "velocity": 69}, {"time": 308, "pitch": 45, "duration": 37, "velocity": 65}, {"time": 314, "pitch": 52, "duration": 14, "velocity": 53}, {"time": 320, "pitch": 57, "duration": 7, "velocity": 57}, {"time": 326, "pitch": 60, "duration": 13, "velocity": 82}, {"time": 332, "pitch": 52, "duration": 9, "velocity": 48}, {"time": 338, "pitch": 57, "duration": 7, "velocity": 72}, {"time": 344, "pitch": 38, "duration": 73, "velocity": 69}, {"time": 350, "pitch": 50, "duration": 13, "velocity": 53}, {"time": 356, "pitch": 54, "duration": 7, "velocity": 70}, {"time": 362, "pitch": 57, "duration": 10, "velocity": 72}, {"time": 368, "pitch": 50, "duration": 49, "velocity": 61}, {"time": 374, "pitch": 54, "duration": 8, "velocity": 52}, {"time": 380, "pitch": 62, "duration": 37, "velocity": 66}, {"time": 416, "pitch": 43, "duration": 30, "velocity": 59}, {"time": 422, "pitch": 50, "duration": 14, "velocity": 38}, {"time": 428, "pitch": 55, "duration": 7, "velocity": 43}, {"time": 434, "pitch": 59, "duration": 30, "velocity": 64}, {"time": 440, "pitch": 50, "duration": 11, "velocity": 32}, {"time": 446, "pitch": 55, "duration": 13, "velocity": 48}, {"time": 452, "pitch": 43, "duration": 26, "velocity": 48}, {"time": 458, "pitch": 50, "duration": 18, "velocity": 40}, {"time": 464, "pitch": 55, "duration": 7, "velocity": 43}, {"time": 470, "pitch": 59, "duration": 18, "velocity": 71}, {"time": 476, "pitch": 55, "duration": 14, "velocity": 59}, {"time": 488, "pitch": 35, "duration": 33, "velocity": 52}, {"time": 494, "pitch": 42, "duration": 31, "velocity": 42}, {"time": 500, "pitch": 47, "duration": 31, "velocity": 61}, {"time": 506, "pitch": 50, "duration": 41, "velocity": 59}, {"time": 512, "pitch": 59, "duration": 27, "velocity": 79}, {"time": 518, "pitch": 54, "duration": 21, "velocity": 52}, {"time": 524, "pitch": 35, "duration": 28, "velocity": 47}, {"time": 530, "pitch": 42, "duration": 20, "velocity": 39}, {"time": 536, "pitch": 47, "duration": 14, "velocity": 49}, {"time": 542, "pitch": 59, "duration": 20, "velocity": 69}, {"time": 548, "pitch": 54, "duration": 13, "velocity": 63}, {"time": 554, "pitch": 50, "duration": 7, "velocity": 35}, {"time": 560, "pitch": 33, "duration": 33, "velocity": 62}, {"time": 566, "pitch": 40, "duration": 30, "velocity": 37}, {"time": 572, "pitch": 45, "duration": 27, "velocity": 64}, {"time": 578, "pitch": 52, "duration": 27, "velocity": 47}, {"time": 584, "pitch": 60, "duration": 25, "velocity": 81}, {"time": 590, "pitch": 57, "duration": 17, "velocity": 53}, {"time": 596, "pitch": 33, "duration": 23, "velocity": 53}, {"time": 602, "pitch": 45, "duration": 21, "velocity": 63}, {"time": 608, "pitch": 52, "duration": 12, "velocity": 56}, {"time": 614, "pitch": 60, "duration": 20, "velocity": 74}, {"time": 620, "pitch": 57, "duration": 13, "velocity": 81}, {"time": 626, "pitch": 52, "duration": 9, "velocity": 55}, {"time": 632, "pitch": 38, "duration": 34, "velocity": 62}, {"time": 638, "pitch": 45, "duration": 14, "velocity": 48}, {"time": 644, "pitch": 50, "duration": 13, "velocity": 59}, {"time": 650, "pitch": 57, "duration": 28, "velocity": 78}, {"time": 656, "pitch": 54, "duration": 18, "velocity": 81}, {"time": 662, "pitch": 50, "duration": 14, "velocity": 60}, {"time": 668, "pitch": 38, "duration": 25, "velocity": 58}, {"time": 674, "pitch": 45, "duration": 19, "velocity": 51}, {"time": 680, "pitch": 50, "duration": 12, "velocity": 55}, {"time": 686, "pitch": 57, "duration": 18, "velocity": 93}, {"time": 692, "pitch": 54, "duration": 12, "velocity": 77}, {"time": 698, "pitch": 50, "duration": 6, "velocity": 65}, {"time": 704, "pitch": 43, "duration": 35, "velocity": 60}, {"time": 710, "pitch": 50, "duration": 31, "velocity": 47}, {"time": 716, "pitch": 55, "duration": 8, "velocity": 65}, {"time": 722, "pitch": 62, "duration": 29, "velocity": 82}, {"time": 728, "pitch": 59, "duration": 25, "velocity": 69}, {"time": 734, "pitch": 55, "duration": 14, "velocity": 58}, {"time": 740, "pitch": 43, "duration": 26, "velocity": 70}, {"time": 746, "pitch": 50, "duration": 19, "velocity": 40}, {"time": 752, "pitch": 55, "duration": 12, "velocity": 67}, {"time": 758, "pitch": 62, "duration": 21, "velocity": 90}, {"time": 764, "pitch": 59, "duration": 14, "velocity": 79}, {"time": 770, "pitch": 55, "duration": 9, "velocity": 60}, {"time": 776, "pitch": 35, "duration": 32, "velocity": 61}, {"time": 782, "pitch": 42, "duration": 30, "velocity": 41}, {"time": 788, "pitch": 47, "duration": 14, "velocity": 59}, {"time": 794, "pitch": 50, "duration": 34, "velocity": 56}, {"time": 800, "pitch": 59, "duration": 28, "velocity": 88}, {"time": 806, "pitch": 47, "duration": 5, "velocity": 35}, {"time": 812, "pitch": 35, "duration": 25, "velocity": 60}, {"time": 818, "pitch": 42, "duration": 20, "velocity": 51}, {"time": 824, "pitch": 47, "duration": 14, "velocity": 46}, {"time": 830, "pitch": 59, "duration": 19, "velocity": 73}, {"time": 836, "pitch": 54, "duration": 12, "velocity": 74}, {"time": 842, "pitch": 50, "duration": 6, "velocity": 65}, {"time": 848, "pitch": 36, "duration": 31, "velocity": 73}, {"time": 854, "pitch": 43, "duration": 31, "velocity": 45}, {"time": 860, "pitch": 48, "duration": 14, "velocity": 73}, {"time": 866, "pitch": 52, "duration": 38, "velocity": 62}, {"time": 872, "pitch": 60, "duration": 26, "velocity": 93}, {"time": 878, "pitch": 55, "duration": 20, "velocity": 61}, {"time": 884, "pitch": 36, "duration": 25, "velocity": 75}, {"time": 890, "pitch": 43, "duration": 28, "velocity": 45}, {"time": 896, "pitch": 48, "duration": 8, "velocity": 72}, {"time": 902, "pitch": 60, "duration": 20, "velocity": 77}, {"time": 908, "pitch": 55, "duration": 12, "velocity": 85}, {"time": 914, "pitch": 52, "duration": 7, "velocity": 55}, {"time": 920, "pitch": 38, "duration": 33, "velocity": 72}, {"time": 926, "pitch": 45, "duration": 31, "velocity": 45}, {"time": 932, "pitch": 50, "duration": 14, "velocity": 82}, {"time": 938, "pitch": 57, "duration": 19, "velocity": 61}, {"time": 944, "pitch": 66, "duration": 32, "velocity": 95}, {"time": 950, "pitch": 62, "duration": 26, "velocity": 71}, {"time": 956, "pitch": 38, "duration": 26, "velocity": 69}, {"time": 962, "pitch": 45, "duration": 21, "velocity": 44}, {"time": 968, "pitch": 50, "duration": 16, "velocity": 74}, {"time": 974, "pitch": 57, "duration": 18, "velocity": 53}, {"time": 980, "pitch": 66, "duration": 13, "velocity": 122}, {"time": 986, "pitch": 62, "duration": 7, "velocity": 86}, {"time": 992, "pitch": 43, "duration": 32, "velocity": 74}, {"time": 998, "pitch": 50, "duration": 32, "velocity": 60}, {"time": 1004, "pitch": 55, "duration": 8, "velocity": 90}, {"time": 1010, "pitch": 59, "duration": 25, "velocity": 81}, {"time": 1016, "pitch": 62, "duration": 21, "velocity": 90}, {"time": 1022, "pitch": 55, "duration": 7, "velocity": 63}, {"time": 1028, "pitch": 43, "duration": 25, "velocity": 59}, {"time": 1031, "pitch": 50, "duration": 22, "velocity": 39}, {"time": 1040, "pitch": 55, "duration": 7, "velocity": 82}, {"time": 1046, "pitch": 59, "duration": 9, "velocity": 81}, {"time": 1052, "pitch": 62, "duration": 13, "velocity": 96}, {"time": 1058, "pitch": 59, "duration": 7, "velocity": 60}, {"time": 1064, "pitch": 47, "duration": 34, "velocity": 59}, {"time": 1070, "pitch": 54, "duration": 31, "velocity": 59}, {"time": 1076, "pitch": 59, "duration": 13, "velocity": 59}, {"time": 1082, "pitch": 66, "duration": 28, "velocity": 93}, {"time": 1088, "pitch": 62, "duration": 26, "velocity": 83}, {"time": 1094, "pitch": 59, "duration": 15, "velocity": 59}, {"time": 1100, "pitch": 47, "duration": 26, "velocity": 40}, {"time": 1106, "pitch": 54, "duration": 19, "velocity": 43}, {"time": 1112, "pitch": 59, "duration": 14, "velocity": 72}, {"time": 1118, "pitch": 62, "duration": 7, "velocity": 48}, {"time": 1124, "pitch": 66, "duration": 13, "velocity": 102}, {"time": 1130, "pitch": 59, "duration": 9, "velocity": 64}, {"time": 1136, "pitch": 45, "duration": 34, "velocity": 59}, {"time": 1142, "pitch": 52, "duration": 30, "velocity": 42}, {"time": 1148, "pitch": 57, "duration": 23, "velocity": 55}, {"time": 1154, "pitch": 60, "duration": 5, "velocity": 55}, {"time": 1160, "pitch": 64, "duration": 22, "velocity": 93}, {"time": 1166, "pitch": 60, "duration": 18, "velocity": 73}, {"time": 1172, "pitch": 45, "duration": 27, "velocity": 72}, {"time": 1178, "pitch": 52, "duration": 19, "velocity": 47}, {"time": 1184, "pitch": 57, "duration": 10, "velocity": 63}, {"time": 1190, "pitch": 64, "duration": 18, "velocity": 81}, {"time": 1196, "pitch": 60, "duration": 11, "velocity": 99}, {"time": 1202, "pitch": 57, "duration": 10, "velocity": 69}, {"time": 1208, "pitch": 38, "duration": 33, "velocity": 69}, {"time": 1214, "pitch": 45, "duration": 31, "velocity": 48}, {"time": 1220, "pitch": 50, "duration": 31, "velocity": 64}, {"time": 1226, "pitch": 57, "duration": 33, "velocity": 73}, {"time": 1232, "pitch": 66, "duration": 32, "velocity": 93}, {"time": 1238, "pitch": 62, "duration": 26, "velocity": 66}, {"time": 1244, "pitch": 38, "duration": 27, "velocity": 62}, {"time": 1250, "pitch": 45, "duration": 22, "velocity": 57}, {"time": 1256, "pitch": 50, "duration": 23, "velocity": 51}, {"time": 1262, "pitch": 57, "duration": 19, "velocity": 63}, {"time": 1268, "pitch": 66, "duration": 12, "velocity": 95}, {"time": 1274, "pitch": 62, "duration": 7, "velocity": 65}, {"time": 1280, "pitch": 43, "duration": 33, "velocity": 63}, {"time": 1286, "pitch": 50, "duration": 31, "velocity": 40}, {"time": 1289, "pitch": 55, "duration": 11, "velocity": 82}, {"time": 1298, "pitch": 59, "duration": 31, "velocity": 71}, {"time": 1304, "pitch": 62, "duration": 24, "velocity": 89}, {"time": 1310, "pitch": 55, "duration": 11, "velocity": 69}, {"time": 1316, "pitch": 43, "duration": 32, "velocity": 68}, {"time": 1322, "pitch": 50, "duration": 27, "velocity": 44}, {"time": 1328, "pitch": 55, "duration": 13, "velocity": 58}, {"time": 1334, "pitch": 62, "duration": 18, "velocity": 92}, {"time": 1340, "pitch": 59, "duration": 12, "velocity": 66}, {"time": 1346, "pitch": 55, "duration": 5, "velocity": 65}, {"time": 1352, "pitch": 47, "duration": 34, "velocity": 63}, {"time": 1358, "pitch": 54, "duration": 31, "velocity": 59}, {"time": 1364, "pitch": 59, "duration": 12, "velocity": 60}, {"time": 1370, "pitch": 66, "duration": 30, "velocity": 95}, {"time": 1376, "pitch": 62, "duration": 26, "velocity": 59}, {"time": 1382, "pitch": 59, "duration": 15, "velocity": 72}, {"time": 1388, "pitch": 47, "duration": 22, "velocity": 61}, {"time": 1394, "pitch": 54, "duration": 14, "velocity": 59}, {"time": 1400, "pitch": 59, "duration": 11, "velocity": 61}, {"time": 1406, "pitch": 66, "duration": 18, "velocity": 97}, {"time": 1412, "pitch": 62, "duration": 12, "velocity": 79}, {"time": 1415, "pitch": 59, "duration": 8, "velocity": 73}, {"time": 1421, "pitch": 36, "duration": 34, "velocity": 83}, {"time": 1430, "pitch": 43, "duration": 30, "velocity": 45}, {"time": 1436, "pitch": 48, "duration": 29, "velocity": 75}, {"time": 1442, "pitch": 55, "duration": 43, "velocity": 68}, {"time": 1448, "pitch": 64, "duration": 28, "velocity": 85}, {"time": 1454, "pitch": 60, "duration": 24, "velocity": 74}, {"time": 1460, "pitch": 36, "duration": 34, "velocity": 58}, {"time": 1466, "pitch": 43, "duration": 31, "velocity": 47}, {"time": 1472, "pitch": 48, "duration": 14, "velocity": 66}, {"time": 1478, "pitch": 64, "duration": 20, "velocity": 92}, {"time": 1484, "pitch": 60, "duration": 15, "velocity": 88}, {"time": 1490, "pitch": 55, "duration": 9, "velocity": 83}, {"time": 1496, "pitch": 38, "duration": 33, "velocity": 73}, {"time": 1502, "pitch": 45, "duration": 31, "velocity": 47}, {"time": 1508, "pitch": 50, "duration": 25, "velocity": 69}, {"time": 1514, "pitch": 62, "duration": 32, "velocity": 67}, {"time": 1520, "pitch": 57, "duration": 30, "velocity": 62}, {"time": 1526, "pitch": 54, "duration": 21, "velocity": 82}, {"time": 1532, "pitch": 38, "duration": 25, "velocity": 69}, {"time": 1538, "pitch": 45, "duration": 20, "velocity": 48}, {"time": 1544, "pitch": 50, "duration": 15, "velocity": 89}, {"time": 1550, "pitch": 54, "duration": 2, "velocity": 32}, {"time": 1550, "pitch": 62, "duration": 16, "velocity": 66}, {"time": 1556, "pitch": 57, "duration": 9, "velocity": 90}, {"time": 1562, "pitch": 54, "duration": 4, "velocity": 99}, {"time": 1568, "pitch": 43, "duration": 33, "velocity": 88}, {"time": 1574, "pitch": 50, "duration": 31, "velocity": 64}, {"time": 1577, "pitch": 55, "duration": 10, "velocity": 77}, {"time": 1580, "pitch": 59, "duration": 7, "velocity": 93}, {"time": 1586, "pitch": 62, "duration": 25, "velocity": 99}, {"time": 1592, "pitch": 59, "duration": 17, "velocity": 99}, {"time": 1598, "pitch": 55, "duration": 7, "velocity": 85}, {"time": 1604, "pitch": 43, "duration": 26, "velocity": 83}, {"time": 1610, "pitch": 50, "duration": 22, "velocity": 64}, {"time": 1613, "pitch": 55, "duration": 5, "velocity": 79}, {"time": 1616, "pitch": 62, "duration": 10, "velocity": 96}, {"time": 1622, "pitch": 59, "duration": 10, "velocity": 92}, {"time": 1628, "pitch": 55, "duration": 10, "velocity": 79}, {"time": 1634, "pitch": 62, "duration": 6, "velocity": 86}, {"time": 1640, "pitch": 47, "duration": 34, "velocity": 76}, {"time": 1646, "pitch": 54, "duration": 31, "velocity": 40}, {"time": 1649, "pitch": 59, "duration": 5, "velocity": 55}, {"time": 1652, "pitch": 66, "duration": 14, "velocity": 86}, {"time": 1658, "pitch": 62, "duration": 28, "velocity": 78}, {"time": 1664, "pitch": 59, "duration": 17, "velocity": 78}, {"time": 1670, "pitch": 66, "duration": 13, "velocity": 82}, {"time": 1676, "pitch": 47, "duration": 34, "velocity": 76}, {"time": 1682, "pitch": 54, "duration": 18, "velocity": 55}, {"time": 1685, "pitch": 59, "duration": 6, "velocity": 70}, {"time": 1688, "pitch": 66, "duration": 12, "velocity": 100}, {"time": 1694, "pitch": 62, "duration": 19, "velocity": 72}, {"time": 1700, "pitch": 59, "duration": 14, "velocity": 89}, {"time": 1706, "pitch": 66, "duration": 7, "velocity": 95}, {"time": 1712, "pitch": 45, "duration": 33, "velocity": 75}, {"time": 1718, "pitch": 52, "duration": 31, "velocity": 55}, {"time": 1721, "pitch": 57, "duration": 5, "velocity": 70}, {"time": 1724, "pitch": 64, "duration": 33, "velocity": 89}, {"time": 1730, "pitch": 60, "duration": 8, "velocity": 78}, {"time": 1736, "pitch": 57, "duration": 19, "velocity": 82}, {"time": 1742, "pitch": 60, "duration": 16, "velocity": 70}, {"time": 1748, "pitch": 45, "duration": 27, "velocity": 75}, {"time": 1754, "pitch": 52, "duration": 19, "velocity": 59}, {"time": 1757, "pitch": 57, "duration": 4, "velocity": 72}, {"time": 1760, "pitch": 64, "duration": 14, "velocity": 90}, {"time": 1766, "pitch": 60, "duration": 8, "velocity": 85}, {"time": 1772, "pitch": 57, "duration": 14, "velocity": 90}, {"time": 1778, "pitch": 64, "duration": 7, "velocity": 97}, {"time": 1784, "pitch": 38, "duration": 32, "velocity": 88}, {"time": 1790, "pitch": 45, "duration": 14, "velocity": 74}, {"time": 1793, "pitch": 50, "duration": 9, "velocity": 76}, {"time": 1796, "pitch": 54, "duration": 6, "velocity": 100}, {"time": 1802, "pitch": 57, "duration": 17, "velocity": 93}, {"time": 1808, "pitch": 45, "duration": 8, "velocity": 31}, {"time": 1808, "pitch": 54, "duration": 11, "velocity": 117}, {"time": 1814, "pitch": 50, "duration": 5, "velocity": 89}, {"time": 1820, "pitch": 38, "duration": 25, "velocity": 93}, {"time": 1826, "pitch": 45, "duration": 19, "velocity": 96}, {"time": 1832, "pitch": 50, "duration": 14, "velocity": 86}, {"time": 1838, "pitch": 57, "duration": 5, "velocity": 67}, {"time": 1838, "pitch": 62, "duration": 4, "velocity": 57}, {"time": 1844, "pitch": 57, "duration": 11, "velocity": 100}, {"time": 1844, "pitch": 62, "duration": 11, "velocity": 96}, {"time": 1850, "pitch": 54, "duration": 6, "velocity": 86}, {"time": 1856, "pitch": 43, "duration": 34, "velocity": 93}, {"time": 1862, "pitch": 50, "duration": 8, "velocity": 66}, {"time": 1868, "pitch": 59, "duration": 14, "velocity": 95}, {"time": 1868, "pitch": 62, "duration": 25, "velocity": 97}, {"time": 1874, "pitch": 50, "duration": 18, "velocity": 81}, {"time": 1880, "pitch": 55, "duration": 7, "velocity": 89}, {"time": 1886, "pitch": 59, "duration": 44, "velocity": 81}, {"time": 1892, "pitch": 43, "duration": 26, "velocity": 72}, {"time": 1898, "pitch": 50, "duration": 23, "velocity": 67}, {"time": 1904, "pitch": 55, "duration": 9, "velocity": 99}, {"time": 1910, "pitch": 62, "duration": 6, "velocity": 112}, {"time": 1916, "pitch": 67, "duration": 13, "velocity": 122}, {"time": 1922, "pitch": 62, "duration": 7, "velocity": 99}, {"time": 1928, "pitch": 47, "duration": 33, "velocity": 85}, {"time": 1934, "pitch": 54, "duration": 21, "velocity": 92}, {"time": 1940, "pitch": 59, "duration": 6, "velocity": 57}, {"time": 1946, "pitch": 62, "duration": 5, "velocity": 86}, {"time": 1946, "pitch": 66, "duration": 4, "velocity": 97}, {"time": 1952, "pitch": 62, "duration": 22, "velocity": 107}, {"time": 1952, "pitch": 66, "duration": 22, "velocity": 127}, {"time": 1958, "pitch": 54, "duration": 3, "velocity": 27}, {"time": 1958, "pitch": 59, "duration": 14, "velocity": 85}, {"time": 1964, "pitch": 47, "duration": 27, "velocity": 72}, {"time": 1970, "pitch": 54, "duration": 8, "velocity": 62}, {"time": 1976, "pitch": 66, "duration": 23, "velocity": 95}, {"time": 1982, "pitch": 54, "duration": 7, "velocity": 81}, {"time": 1988, "pitch": 62, "duration": 13, "velocity": 107}, {"time": 1994, "pitch": 59, "duration": 7, "velocity": 67}, {"time": 2000, "pitch": 45, "duration": 33, "velocity": 75}, {"time": 2006, "pitch": 52, "duration": 31, "velocity": 43}, {"time": 2012, "pitch": 57, "duration": 8, "velocity": 73}, {"time": 2018, "pitch": 64, "duration": 30, "velocity": 93}, {"time": 2024, "pitch": 60, "duration": 24, "velocity": 107}, {"time": 2030, "pitch": 57, "duration": 14, "velocity": 90}, {"time": 2036, "pitch": 45, "duration": 26, "velocity": 72}, {"time": 2042, "pitch": 52, "duration": 17, "velocity": 53}, {"time": 2048, "pitch": 57, "duration": 10, "velocity": 65}, {"time": 2054, "pitch": 64, "duration": 18, "velocity": 89}, {"time": 2060, "pitch": 60, "duration": 11, "velocity": 107}, {"time": 2066, "pitch": 57, "duration": 9, "velocity": 85}, {"time": 2072, "pitch": 38, "duration": 32, "velocity": 75}, {"time": 2078, "pitch": 45, "duration": 31, "velocity": 40}, {"time": 2084, "pitch": 50, "duration": 16, "velocity": 72}, {"time": 2090, "pitch": 57, "duration": 54, "velocity": 75}, {"time": 2096, "pitch": 66, "duration": 48, "velocity": 107}, {"time": 2102, "pitch": 64, "duration": 42, "velocity": 62}, {"time": 2108, "pitch": 38, "duration": 37, "velocity": 57}, {"time": 2144, "pitch": 43, "duration": 32, "velocity": 54}, {"time": 2150, "pitch": 50, "duration": 30, "velocity": 52}, {"time": 2156, "pitch": 55, "duration": 7, "velocity": 78}, {"time": 2162, "pitch": 62, "duration": 31, "velocity": 127}, {"time": 2168, "pitch": 59, "duration": 26, "velocity": 66}, {"time": 2174, "pitch": 55, "duration": 13, "velocity": 96}, {"time": 2180, "pitch": 43, "duration": 26, "velocity": 82}, {"time": 2186, "pitch": 50, "duration": 19, "velocity": 51}, {"time": 2192, "pitch": 55, "duration": 10, "velocity": 72}, {"time": 2198, "pitch": 62, "duration": 19, "velocity": 100}, {"time": 2204, "pitch": 59, "duration": 13, "velocity": 75}, {"time": 2210, "pitch": 55, "duration": 7, "velocity": 81}, {"time": 2216, "pitch": 40, "duration": 33, "velocity": 78}, {"time": 2222, "pitch": 47, "duration": 31, "velocity": 43}, {"time": 2228, "pitch": 52, "duration": 13, "velocity": 77}, {"time": 2234, "pitch": 64, "duration": 33, "velocity": 100}, {"time": 2240, "pitch": 59, "duration": 34, "velocity": 53}, {"time": 2246, "pitch": 67, "duration": 21, "velocity": 71}, {"time": 2252, "pitch": 40, "duration": 28, "velocity": 68}, {"time": 2258, "pitch": 47, "duration": 23, "velocity": 39}, {"time": 2264, "pitch": 52, "duration": 20, "velocity": 73}, {"time": 2270, "pitch": 67, "duration": 20, "velocity": 100}, {"time": 2276, "pitch": 64, "duration": 14, "velocity": 102}, {"time": 2282, "pitch": 59, "duration": 8, "velocity": 96}, {"time": 2288, "pitch": 45, "duration": 33, "velocity": 74}, {"time": 2294, "pitch": 52, "duration": 30, "velocity": 64}, {"time": 2300, "pitch": 57, "duration": 12, "velocity": 58}, {"time": 2306, "pitch": 64, "duration": 18, "velocity": 107}, {"time": 2312, "pitch": 60, "duration": 12, "velocity": 77}, {"time": 2318, "pitch": 57, "duration": 6, "velocity": 92}, {"time": 2324, "pitch": 44, "duration": 29, "velocity": 72}, {"time": 2330, "pitch": 56, "duration": 16, "velocity": 64}, {"time": 2336, "pitch": 59, "duration": 6, "velocity": 60}, {"time": 2342, "pitch": 62, "duration": 21, "velocity": 112}, {"time": 2348, "pitch": 56, "duration": 3, "velocity": 60}, {"time": 2354, "pitch": 59, "duration": 15, "velocity": 89}, {"time": 2360, "pitch": 43, "duration": 27, "velocity": 66}, {"time": 2366, "pitch": 50, "duration": 20, "velocity": 46}, {"time": 2372, "pitch": 55, "duration": 10, "velocity": 70}, {"time": 2378, "pitch": 62, "duration": 19, "velocity": 107}, {"time": 2384, "pitch": 59, "duration": 12, "velocity": 85}, {"time": 2390, "pitch": 55, "duration": 7, "velocity": 81}, {"time": 2396, "pitch": 38, "duration": 21, "velocity": 69}, {"time": 2402, "pitch": 45, "duration": 23, "velocity": 38}, {"time": 2408, "pitch": 50, "duration": 16, "velocity": 81}, {"time": 2414, "pitch": 66, "duration": 18, "velocity": 99}, {"time": 2415, "pitch": 42, "duration": 15, "velocity": 99}, {"time": 2420, "pitch": 62, "duration": 12, "velocity": 82}, {"time": 2426, "pitch": 57, "duration": 6, "velocity": 79}, {"time": 2432, "pitch": 43, "duration": 32, "velocity": 90}, {"time": 2438, "pitch": 50, "duration": 15, "velocity": 77}, {"time": 2444, "pitch": 55, "duration": 9, "velocity": 75}, {"time": 2450, "pitch": 62, "duration": 32, "velocity": 112}, {"time": 2456, "pitch": 50, "duration": 9, "velocity": 22}, {"time": 2456, "pitch": 59, "duration": 25, "velocity": 82}, {"time": 2462, "pitch": 55, "duration": 16, "velocity": 86}, {"time": 2468, "pitch": 43, "duration": 20, "velocity": 81}, {"time": 2474, "pitch": 50, "duration": 13, "velocity": 62}, {"time": 2480, "pitch": 55, "duration": 8, "velocity": 74}, {"time": 2486, "pitch": 62, "duration": 20, "velocity": 112}, {"time": 2492, "pitch": 59, "duration": 14, "velocity": 89}, {"time": 2498, "pitch": 55, "duration": 8, "velocity": 88}, {"time": 2504, "pitch": 40, "duration": 33, "velocity": 81}, {"time": 2510, "pitch": 47, "duration": 31, "velocity": 53}, {"time": 2516, "pitch": 52, "duration": 10, "velocity": 82}, {"time": 2522, "pitch": 64, "duration": 34, "velocity": 99}, {"time": 2528, "pitch": 52, "duration": 6, "velocity": 71}, {"time": 2534, "pitch": 59, "duration": 22, "velocity": 83}, {"time": 2540, "pitch": 40, "duration": 26, "velocity": 81}, {"time": 2546, "pitch": 47, "duration": 20, "velocity": 63}, {"time": 2552, "pitch": 52, "duration": 10, "velocity": 82}, {"time": 2558, "pitch": 64, "duration": 19, "velocity": 107}, {"time": 2564, "pitch": 59, "duration": 13, "velocity": 82}, {"time": 2570, "pitch": 55, "duration": 7, "velocity": 75}, {"time": 2576, "pitch": 45, "duration": 34, "velocity": 72}, {"time": 2582, "pitch": 52, "duration": 31, "velocity": 62}, {"time": 2588, "pitch": 57, "duration": 9, "velocity": 76}, {"time": 2594, "pitch": 64, "duration": 29, "velocity": 102}, {"time": 2600, "pitch": 60, "duration": 22, "velocity": 96}, {"time": 2606, "pitch": 57, "duration": 8, "velocity": 93}, {"time": 2612, "pitch": 45, "duration": 23, "velocity": 85}, {"time": 2618, "pitch": 52, "duration": 15, "velocity": 66}, {"time": 2624, "pitch": 57, "duration": 9, "velocity": 82}, {"time": 2630, "pitch": 64, "duration": 19, "velocity": 127}, {"time": 2636, "pitch": 60, "duration": 13, "velocity": 100}, {"time": 2642, "pitch": 57, "duration": 7, "velocity": 97}, {"time": 2648, "pitch": 38, "duration": 32, "velocity": 81}, {"time": 2654, "pitch": 45, "duration": 31, "velocity": 77}, {"time": 2660, "pitch": 50, "duration": 10, "velocity": 81}, {"time": 2666, "pitch": 57, "duration": 16, "velocity": 112}, {"time": 2672, "pitch": 54, "duration": 10, "velocity": 102}, {"time": 2678, "pitch": 52, "duration": 4, "velocity": 71}, {"time": 2684, "pitch": 38, "duration": 34, "velocity": 93}, {"time": 2684, "pitch": 50, "duration": 35, "velocity": 93}, {"time": 2684, "pitch": 54, "duration": 35, "velocity": 72}, {"time": 2684, "pitch": 57, "duration": 36, "velocity": 78}, {"time": 2720, "pitch": 43, "duration": 32, "velocity": 74}, {"time": 2726, "pitch": 50, "duration": 32, "velocity": 60}, {"time": 2732, "pitch": 55, "duration": 8, "velocity": 90}, {"time": 2738, "pitch": 59, "duration": 25, "velocity": 81}, {"time": 2744, "pitch": 62, "duration": 21, "velocity": 90}, {"time": 2750, "pitch": 55, "duration": 7, "velocity": 63}, {"time": 2756, "pitch": 43, "duration": 25, "velocity": 59}, {"time": 2759, "pitch": 50, "duration": 22, "velocity": 39}, {"time": 2768, "pitch": 55, "duration": 7, "velocity": 82}, {"time": 2774, "pitch": 59, "duration": 9, "velocity": 81}, {"time": 2780, "pitch": 62, "duration": 13, "velocity": 96}, {"time": 2786, "pitch": 59, "duration": 7, "velocity": 60}, {"time": 2792, "pitch": 47, "duration": 34, "velocity": 59}, {"time": 2798, "pitch": 54, "duration": 31, "velocity": 59}, {"time": 2804, "pitch": 59, "duration": 13, "velocity": 59}, {"time": 2810, "pitch": 66, "duration": 28, "velocity": 93}, {"time": 2816, "pitch": 62, "duration": 26, "velocity": 83}, {"time": 2822, "pitch": 59, "duration": 15, "velocity": 59}, {"time": 2828, "pitch": 47, "duration": 26, "velocity": 40}, {"time": 2834, "pitch": 54, "duration": 19, "velocity": 43}, {"time": 2840, "pitch": 59, "duration": 14, "velocity": 72}, {"time": 2846, "pitch": 62, "duration": 7, "velocity": 48}, {"time": 2852, "pitch": 66, "duration": 13, "velocity": 102}, {"time": 2858, "pitch": 59, "duration": 9, "velocity": 64}, {"time": 2864, "pitch": 45, "duration": 34, "velocity": 59}, {"time": 2870, "pitch": 52, "duration": 30, "velocity": 42}, {"time": 2876, "pitch": 57, "duration": 23, "velocity": 55}, {"time": 2882, "pitch": 60, "duration": 5, "velocity": 55}, {"time": 2888, "pitch": 64, "duration": 22, "velocity": 93}, {"time": 2894, "pitch": 60, "duration": 18, "velocity": 73}, {"time": 2900, "pitch": 45, "duration": 27, "velocity": 72}, {"time": 2906, "pitch": 52, "duration": 19, "velocity": 47}, {"time": 2912, "pitch": 57, "duration": 10, "velocity": 63}, {"time": 2918, "pitch": 64, "duration": 18, "velocity": 81}, {"time": 2924, "pitch": 60, "duration": 11, "velocity": 99}, {"time": 2930, "pitch": 57, "duration": 10, "velocity": 69}, {"time": 2936, "pitch": 38, "duration": 33, "velocity": 69}, {"time": 2942, "pitch": 45, "duration": 31, "velocity": 48}, {"time": 2948, "pitch": 50, "duration": 31, "velocity": 64}, {"time": 2954, "pitch": 57, "duration": 33, "velocity": 73}, {"time": 2960, "pitch": 66, "duration": 32, "velocity": 93}, {"time": 2966, "pitch": 62, "duration": 26, "velocity": 66}, {"time": 2972, "pitch": 38, "duration": 27, "velocity": 62}, {"time": 2978, "pitch": 45, "duration": 22, "velocity": 57}, {"time": 2984, "pitch": 50, "duration": 23, "velocity": 51}, {"time": 2990, "pitch": 57, "duration": 19, "velocity": 63}, {"time": 2996, "pitch": 66, "duration": 12, "velocity": 95}, {"time": 3002, "pitch": 62, "duration": 7, "velocity": 65}, {"time": 3008, "pitch": 43, "duration": 33, "velocity": 63}, {"time": 3014, "pitch": 50, "duration": 31, "velocity": 40}, {"time": 3020, "pitch": 55, "duration": 11, "velocity": 82}, {"time": 3026, "pitch": 59, "duration": 31, "velocity": 71}, {"time": 3032, "pitch": 62, "duration": 24, "velocity": 89}, {"time": 3038, "pitch": 55, "duration": 11, "velocity": 69}, {"time": 3044, "pitch": 43, "duration": 32, "velocity": 68}, {"time": 3050, "pitch": 50, "duration": 27, "velocity": 44}, {"time": 3056, "pitch": 55, "duration": 13, "velocity": 58}, {"time": 3062, "pitch": 62, "duration": 18, "velocity": 92}, {"time": 3068, "pitch": 59, "duration": 12, "velocity": 66}, {"time": 3074, "pitch": 55, "duration": 5, "velocity": 65}, {"time": 3080, "pitch": 47, "duration": 34, "velocity": 63}, {"time": 3086, "pitch": 54, "duration": 31, "velocity": 59}, {"time": 3092, "pitch": 59, "duration": 12, "velocity": 60}, {"time": 3098, "pitch": 66, "duration": 30, "velocity": 95}, {"time": 3104, "pitch": 62, "duration": 26, "velocity": 59}, {"time": 3110, "pitch": 59, "duration": 15, "velocity": 72}, {"time": 3116, "pitch": 47, "duration": 22, "velocity": 61}, {"time": 3122, "pitch": 54, "duration": 14, "velocity": 59}, {"time": 3128, "pitch": 59, "duration": 11, "velocity": 61}, {"time": 3134, "pitch": 66, "duration": 18, "velocity": 97}, {"time": 3140, "pitch": 62, "duration": 12, "velocity": 79}, {"time": 3143, "pitch": 59, "duration": 8, "velocity": 73}, {"time": 3149, "pitch": 36, "duration": 34, "velocity": 83}, {"time": 3158, "pitch": 43, "duration": 30, "velocity": 45}, {"time": 3164, "pitch": 48, "duration": 29, "velocity": 75}, {"time": 3170, "pitch": 55, "duration": 43, "velocity": 68}, {"time": 3176, "pitch": 64, "duration": 28, "velocity": 85}, {"time": 3182, "pitch": 60, "duration": 24, "velocity": 74}, {"time": 3188, "pitch": 36, "duration": 34, "velocity": 58}, {"time": 3194, "pitch": 43, "duration": 31, "velocity": 47}, {"time": 3200, "pitch": 48, "duration": 14, "velocity": 66}, {"time": 3206, "pitch": 64, "duration": 20, "velocity": 92}, {"time": 3212, "pitch": 60, "duration": 15, "velocity": 88}, {"time": 3218, "pitch": 55, "duration": 9, "velocity": 83}, {"time": 3224, "pitch": 38, "duration": 33, "velocity": 73}, {"time": 3230, "pitch": 45, "duration": 31, "velocity": 47}, {"time": 3236, "pitch": 50, "duration": 25, "velocity": 69}, {"time": 3242, "pitch": 62, "duration": 32, "velocity": 67}, {"time": 3248, "pitch": 57, "duration": 30, "velocity": 62}, {"time": 3254, "pitch": 54, "duration": 21, "velocity": 82}, {"time": 3260, "pitch": 38, "duration": 25, "velocity": 69}, {"time": 3266, "pitch": 45, "duration": 20, "velocity": 48}, {"time": 3272, "pitch": 50, "duration": 15, "velocity": 89}, {"time": 3278, "pitch": 54, "duration": 2, "velocity": 32}, {"time": 3278, "pitch": 62, "duration": 16, "velocity": 66}, {"time": 3284, "pitch": 57, "duration": 9, "velocity": 90}, {"time": 3290, "pitch": 54, "duration": 4, "velocity": 99}, {"time": 3296, "pitch": 43, "duration": 33, "velocity": 88}, {"time": 3302, "pitch": 50, "duration": 31, "velocity": 64}, {"time": 3305, "pitch": 55, "duration": 10, "velocity": 77}, {"time": 3308, "pitch": 59, "duration": 7, "velocity": 93}, {"time": 3314, "pitch": 62, "duration": 25, "velocity": 99}, {"time": 3320, "pitch": 59, "duration": 17, "velocity": 99}, {"time": 3326, "pitch": 55, "duration": 7, "velocity": 85}, {"time": 3332, "pitch": 43, "duration": 26, "velocity": 83}, {"time": 3338, "pitch": 50, "duration": 22, "velocity": 64}, {"time": 3341, "pitch": 55, "duration": 5, "velocity": 79}, {"time": 3344, "pitch": 62, "duration": 10, "velocity": 96}, {"time": 3350, "pitch": 59, "duration": 10, "velocity": 92}, {"time": 3356, "pitch": 55, "duration": 10, "velocity": 79}, {"time": 3362, "pitch": 62, "duration": 6, "velocity": 86}, {"time": 3368, "pitch": 47, "duration": 34, "velocity": 76}, {"time": 3374, "pitch": 54, "duration": 31, "velocity": 40}, {"time": 3377, "pitch": 59, "duration": 5, "velocity": 55}, {"time": 3380, "pitch": 66, "duration": 14, "velocity": 86}, {"time": 3386, "pitch": 62, "duration": 28, "velocity": 78}, {"time": 3392, "pitch": 59, "duration": 17, "velocity": 78}, {"time": 3398, "pitch": 66, "duration": 13, "velocity": 82}, {"time": 3404, "pitch": 47, "duration": 34, "velocity": 76}, {"time": 3410, "pitch": 54, "duration": 18, "velocity": 55}, {"time": 3413, "pitch": 59, "duration": 6, "velocity": 70}, {"time": 3416, "pitch": 66, "duration": 12, "velocity": 100}, {"time": 3422, "pitch": 62, "duration": 19, "velocity": 72}, {"time": 3428, "pitch": 59, "duration": 14, "velocity": 89}, {"time": 3434, "pitch": 66, "duration": 7, "velocity": 95}, {"time": 3440, "pitch": 45, "duration": 33, "velocity": 75}, {"time": 3446, "pitch": 52, "duration": 31, "velocity": 55}, {"time": 3449, "pitch": 57, "duration": 5, "velocity": 70}, {"time": 3452, "pitch": 64, "duration": 33, "velocity": 89}, {"time": 3458, "pitch": 60, "duration": 8, "velocity": 78}, {"time": 3464, "pitch": 57, "duration": 19, "velocity": 82}, {"time": 3470, "pitch": 60, "duration": 16, "velocity": 70}, {"time": 3476, "pitch": 45, "duration": 27, "velocity": 75}, {"time": 3482, "pitch": 52, "duration": 19, "velocity": 59}, {"time": 3485, "pitch": 57, "duration": 4, "velocity": 72}, {"time": 3488, "pitch": 64, "duration": 14, "velocity": 90}, {"time": 3494, "pitch": 60, "duration": 8, "velocity": 85}, {"time": 3500, "pitch": 57, "duration": 14, "velocity": 90}, {"time": 3506, "pitch": 64, "duration": 7, "velocity": 97}, {"time": 3512, "pitch": 38, "duration": 32, "velocity": 88}, {"time": 3518, "pitch": 45, "duration": 14, "velocity": 74}, {"time": 3521, "pitch": 50, "duration": 9, "velocity": 76}, {"time": 3524, "pitch": 54, "duration": 6, "velocity": 100}, {"time": 3530, "pitch": 57, "duration": 17, "velocity": 93}, {"time": 3536, "pitch": 45, "duration": 8, "velocity": 31}, {"time": 3536, "pitch": 54, "duration": 11, "velocity": 117}, {"time": 3542, "pitch": 50, "duration": 5, "velocity": 89}, {"time": 3548, "pitch": 38, "duration": 25, "velocity": 93}, {"time": 3554, "pitch": 45, "duration": 19, "velocity": 96}, {"time": 3560, "pitch": 50, "duration": 14, "velocity": 86}, {"time": 3566, "pitch": 57, "duration": 5, "velocity": 67}, {"time": 3566, "pitch": 62, "duration": 4, "velocity": 57}, {"time": 3572, "pitch": 57, "duration": 11, "velocity": 100}, {"time": 3572, "pitch": 62, "duration": 11, "velocity": 96}, {"time": 3578, "pitch": 54, "duration": 6, "velocity": 86}, {"time": 3584, "pitch": 43, "duration": 34, "velocity": 93}, {"time": 3590, "pitch": 50, "duration": 8, "velocity": 66}, {"time": 3596, "pitch": 59, "duration": 14, "velocity": 95}, {"time": 3596, "pitch": 62, "duration": 25, "velocity": 97}, {"time": 3602, "pitch": 50, "duration": 18, "velocity": 81}, {"time": 3608, "pitch": 55, "duration": 7, "velocity": 89}, {"time": 3614, "pitch": 59, "duration": 44, "velocity": 81}, {"time": 3620, "pitch": 43, "duration": 26, "velocity": 72}, {"time": 3626, "pitch": 50, "duration": 23, "velocity": 67}, {"time": 3632, "pitch": 55, "duration": 9, "velocity": 99}, {"time": 3638, "pitch": 62, "duration": 6, "velocity": 112}, {"time": 3644, "pitch": 67, "duration": 13, "velocity": 122}, {"time": 3650, "pitch": 62, "duration": 7, "velocity": 99}, {"time": 3656, "pitch": 47, "duration": 33, "velocity": 85}, {"time": 3662, "pitch": 54, "duration": 21, "velocity": 92}, {"time": 3668, "pitch": 59, "duration": 6, "velocity": 57}, {"time": 3674, "pitch": 62, "duration": 5, "velocity": 86}, {"time": 3674, "pitch": 66, "duration": 4, "velocity": 97}, {"time": 3680, "pitch": 62, "duration": 22, "velocity": 107}, {"time": 3680, "pitch": 66, "duration": 22, "velocity": 127}, {"time": 3686, "pitch": 54, "duration": 3, "velocity": 27}, {"time": 3686, "pitch": 59, "duration": 14, "velocity": 85}, {"time": 3692, "pitch": 47, "duration": 27, "velocity": 72}, {"time": 3698, "pitch": 54, "duration": 8, "velocity": 62}, {"time": 3704, "pitch": 66, "duration": 23, "velocity": 95}, {"time": 3710, "pitch": 54, "duration": 7, "velocity": 81}, {"time": 3716, "pitch": 62, "duration": 13, "velocity": 107}, {"time": 3722, "pitch": 59, "duration": 7, "velocity": 67}, {"time": 3728, "pitch": 45, "duration": 33, "velocity": 75}, {"time": 3734, "pitch": 52, "duration": 31, "velocity": 43}, {"time": 3740, "pitch": 57, "duration": 8, "velocity": 73}, {"time": 3746, "pitch": 64, "duration": 30, "velocity": 93}, {"time": 3752, "pitch": 60, "duration": 24, "velocity": 107}, {"time": 3758, "pitch": 57, "duration": 14, "velocity": 90}, {"time": 3764, "pitch": 45, "duration": 26, "velocity": 72}, {"time": 3770, "pitch": 52, "duration": 17, "velocity": 53}, {"time": 3776, "pitch": 57, "duration": 10, "velocity": 65}, {"time": 3782, "pitch": 64, "duration": 18, "velocity": 89}, {"time": 3788, "pitch": 60, "duration": 11, "velocity": 107}, {"time": 3794, "pitch": 57, "duration": 6, "velocity": 85}, {"time": 3800, "pitch": 38, "duration": 32, "velocity": 92}, {"time": 3806, "pitch": 45, "duration": 30, "velocity": 59}, {"time": 3812, "pitch": 50, "duration": 22, "velocity": 63}, {"time": 3818, "pitch": 57, "duration": 1, "velocity": 23}, {"time": 3818, "pitch": 66, "duration": 33, "velocity": 122}, {"time": 3824, "pitch": 62, "duration": 28, "velocity": 67}, {"time": 3830, "pitch": 57, "duration": 22, "velocity": 81}, {"time": 3836, "pitch": 38, "duration": 28, "velocity": 82}, {"time": 3842, "pitch": 45, "duration": 22, "velocity": 37}, {"time": 3848, "pitch": 50, "duration": 9, "velocity": 60}, {"time": 3854, "pitch": 62, "duration": 18, "velocity": 107}, {"time": 3854, "pitch": 66, "duration": 18, "velocity": 127}, {"time": 3860, "pitch": 50, "duration": 7, "velocity": 64}, {"time": 3866, "pitch": 57, "duration": 7, "velocity": 93}, {"time": 3872, "pitch": 43, "duration": 33, "velocity": 82}, {"time": 3878, "pitch": 50, "duration": 30, "velocity": 63}, {"time": 3884, "pitch": 55, "duration": 7, "velocity": 90}, {"time": 3890, "pitch": 62, "duration": 25, "velocity": 122}, {"time": 3896, "pitch": 59, "duration": 14, "velocity": 102}, {"time": 3902, "pitch": 55, "duration": 9, "velocity": 96}, {"time": 3908, "pitch": 43, "duration": 30, "velocity": 96}, {"time": 3914, "pitch": 50, "duration": 15, "velocity": 89}, {"time": 3920, "pitch": 55, "duration": 4, "velocity": 77}, {"time": 3926, "pitch": 59, "duration": 18, "velocity": 122}, {"time": 3926, "pitch": 62, "duration": 17, "velocity": 117}, {"time": 3932, "pitch": 50, "duration": 5, "velocity": 96}, {"time": 3938, "pitch": 55, "duration": 8, "velocity": 97}, {"time": 3944, "pitch": 38, "duration": 34, "velocity": 93}, {"time": 3950, "pitch": 45, "duration": 31, "velocity": 48}, {"time": 3956, "pitch": 50, "duration": 15, "velocity": 90}, {"time": 3962, "pitch": 57, "duration": 4, "velocity": 68}, {"time": 3968, "pitch": 62, "duration": 32, "velocity": 127}, {"time": 3968, "pitch": 66, "duration": 32, "velocity": 127}, {"time": 3974, "pitch": 50, "duration": 6, "velocity": 52}, {"time": 3980, "pitch": 38, "duration": 29, "velocity": 95}, {"time": 3986, "pitch": 45, "duration": 21, "velocity": 53}, {"time": 3992, "pitch": 50, "duration": 9, "velocity": 92}, {"time": 3998, "pitch": 57, "duration": 20, "velocity": 81}, {"time": 4004, "pitch": 66, "duration": 12, "velocity": 127}, {"time": 4010, "pitch": 62, "duration": 7, "velocity": 107}, {"time": 4016, "pitch": 36, "duration": 34, "velocity": 86}, {"time": 4022, "pitch": 43, "duration": 31, "velocity": 59}, {"time": 4028, "pitch": 48, "duration": 30, "velocity": 82}, {"time": 4034, "pitch": 55, "duration": 28, "velocity": 73}, {"time": 4040, "pitch": 64, "duration": 21, "velocity": 127}, {"time": 4046, "pitch": 60, "duration": 15, "velocity": 112}, {"time": 4052, "pitch": 36, "duration": 27, "velocity": 85}, {"time": 4058, "pitch": 43, "duration": 28, "velocity": 66}, {"time": 4064, "pitch": 64, "duration": 25, "velocity": 112}, {"time": 4070, "pitch": 48, "duration": 8, "velocity": 71}, {"time": 4076, "pitch": 60, "duration": 12, "velocity": 117}, {"time": 4082, "pitch": 55, "duration": 8, "velocity": 97}, {"time": 4088, "pitch": 38, "duration": 33, "velocity": 90}, {"time": 4094, "pitch": 45, "duration": 30, "velocity": 62}, {"time": 4100, "pitch": 66, "duration": 23, "velocity": 127}, {"time": 4106, "pitch": 50, "duration": 8, "velocity": 70}, {"time": 4112, "pitch": 62, "duration": 10, "velocity": 100}, {"time": 4118, "pitch": 57, "duration": 4, "velocity": 97}, {"time": 4124, "pitch": 38, "duration": 28, "velocity": 88}, {"time": 4124, "pitch": 57, "duration": 15, "velocity": 89}, {"time": 4124, "pitch": 62, "duration": 15, "velocity": 99}, {"time": 4124, "pitch": 66, "duration": 15, "velocity": 127}, {"time": 4130, "pitch": 45, "duration": 22, "velocity": 77}, {"time": 4136, "pitch": 50, "duration": 10, "velocity": 96}, {"time": 4142, "pitch": 62, "duration": 18, "velocity": 127}, {"time": 4142, "pitch": 66, "duration": 18, "velocity": 127}, {"time": 4148, "pitch": 50, "duration": 8, "velocity": 82}, {"time": 4154, "pitch": 57, "duration": 6, "velocity": 107}, {"time": 4160, "pitch": 43, "duration": 31, "velocity": 90}, {"time": 4166, "pitch": 50, "duration": 30, "velocity": 74}, {"time": 4172, "pitch": 55, "duration": 9, "velocity": 74}, {"time": 4178, "pitch": 62, "duration": 31, "velocity": 117}, {"time": 4184, "pitch": 59, "duration": 26, "velocity": 99}, {"time": 4190, "pitch": 55, "duration": 12, "velocity": 90}, {"time": 4196, "pitch": 43, "duration": 26, "velocity": 93}, {"time": 4202, "pitch": 50, "duration": 18, "velocity": 63}, {"time": 4208, "pitch": 55, "duration": 8, "velocity": 72}, {"time": 4214, "pitch": 62, "duration": 18, "velocity": 127}, {"time": 4220, "pitch": 59, "duration": 12, "velocity": 97}, {"time": 4226, "pitch": 55, "duration": 8, "velocity": 93}, {"time": 4232, "pitch": 38, "duration": 33, "velocity": 89}, {"time": 4238, "pitch": 45, "duration": 31, "velocity": 58}, {"time": 4244, "pitch": 50, "duration": 23, "velocity": 79}, {"time": 4250, "pitch": 66, "duration": 32, "velocity": 127}, {"time": 4256, "pitch": 62, "duration": 27, "velocity": 76}, {"time": 4262, "pitch": 57, "duration": 27, "velocity": 93}, {"time": 4268, "pitch": 38, "duration": 26, "velocity": 77}, {"time": 4274, "pitch": 45, "duration": 21, "velocity": 36}, {"time": 4280, "pitch": 50, "duration": 17, "velocity": 72}, {"time": 4286, "pitch": 66, "duration": 19, "velocity": 127}, {"time": 4292, "pitch": 62, "duration": 12, "velocity": 102}, {"time": 4298, "pitch": 57, "duration": 9, "velocity": 97}, {"time": 4304, "pitch": 45, "duration": 33, "velocity": 78}, {"time": 4310, "pitch": 52, "duration": 31, "velocity": 69}, {"time": 4316, "pitch": 57, "duration": 11, "velocity": 77}, {"time": 4322, "pitch": 64, "duration": 32, "velocity": 122}, {"time": 4328, "pitch": 60, "duration": 26, "velocity": 97}, {"time": 4334, "pitch": 57, "duration": 13, "velocity": 90}, {"time": 4340, "pitch": 45, "duration": 29, "velocity": 95}, {"time": 4346, "pitch": 52, "duration": 22, "velocity": 69}, {"time": 4352, "pitch": 57, "duration": 9, "velocity": 73}, {"time": 4358, "pitch": 64, "duration": 19, "velocity": 112}, {"time": 4364, "pitch": 60, "duration": 12, "velocity": 99}, {"time": 4370, "pitch": 57, "duration": 10, "velocity": 99}, {"time": 4376, "pitch": 38, "duration": 33, "velocity": 83}, {"time": 4382, "pitch": 45, "duration": 29, "velocity": 63}, {"time": 4388, "pitch": 50, "duration": 9, "velocity": 63}, {"time": 4394, "pitch": 66, "duration": 68, "velocity": 127}, {"time": 4400, "pitch": 50, "duration": 10, "velocity": 62}, {"time": 4406, "pitch": 62, "duration": 56, "velocity": 92}, {"time": 4412, "pitch": 38, "duration": 51, "velocity": 58}, {"time": 4412, "pitch": 45, "duration": 50, "velocity": 56}, {"time": 4412, "pitch": 50, "duration": 50, "velocity": 72}, {"time": 4412, "pitch": 57, "duration": 50, "velocity": 68}, {"time": 4515, "pitch": 43, "duration": 36, "velocity": 35}, {"time": 4518, "pitch": 50, "duration": 33, "velocity": 49}, {"time": 4519, "pitch": 55, "duration": 32, "velocity": 55}, {"time": 4520, "pitch": 62, "duration": 32, "velocity": 57}, {"time": 4522, "pitch": 67, "duration": 30, "velocity": 58}, {"time": 4524, "pitch": 71, "duration": 28, "velocity": 64}, {"time": 4526, "pitch": 74, "duration": 27, "velocity": 54}], "annotations": [{"time": 128, "annotation": {"number": 64, "value": 127}, "group": "control_change"}, {"time": 147, "annotation": {"number": 64, "value": 0}, "group": "control_change"}, {"time": 179, "annotation": {"number": 64, "value": 127}, "group": "control_change"}, {"time": 183, "annotation": {"number": 64, "value": 0}, "group": "control_change"}, {"time": 348, "annotation": {"number": 64, "value": 127}, "group": "control_change"}, {"time": 350, "annotation": {"number": 64, "value": 0}, "group": "control_change"}, {"time": 374, "annotation": {"number": 64, "value": 127}, "group": "control_change"}, {"time": 379, "annotation": {"number": 64, "value": 0}, "group": "control_change"}, {"time": 405, "annotation": {"number": 64, "value": 127}, "group": "control_change"}, {"time": 415, "annotation": {"number": 64, "value": 0}, "group": "control_change"}, {"time": 419, "annotation": {"number": 64, "value": 127}, "group": "control_change"}, {"time": 448, "annotation": {"number": 64, "value": 0}, "group": "control_change"}, {"time": 452, "annotation": {"number": 64, "value": 127}, "group": "control_change"}, {"time": 485, "annotation": {"number": 64, "value": 0}, "group": "control_change"}, {"time": 488, "annotation": {"number": 64, "value": 127}, "group": "control_change"}, {"time": 520, "annotation": {"number": 64, "value": 0}, "group": "control_change"}, {"time": 524, "annotation": {"number": 64, "value": 127}, "group": "control_change"}, {"time": 556, "annotation": {"number": 64, "value": 0}, "group": "control_change"}, {"time": 561, "annotation": {"number": 64, "value": 127}, "group": "control_change"}, {"time": 592, "annotation": {"number": 64, "value": 0}, "group": "control_change"}, {"time": 596, "annotation": {"number": 64, "value": 127}, "group": "control_change"}, {"time": 628, "annotation": {"number": 64, "value": 0}, "group": "control_change"}, {"time": 632, "annotation": {"number": 64, "value": 127}, "group": "control_change"}, {"time": 665, "annotation": {"number": 64, "value": 0}, "group": "control_change"}, {"time": 669, "annotation": {"number": 64, "value": 127}, "group": "control_change"}, {"time": 701, "annotation": {"number": 64, "value": 0}, "group": "control_change"}, {"time": 704, "annotation": {"number": 64, "value": 127}, "group": "control_change"}, {"time": 737, "annotation": {"number": 64, "value": 0}, "group": "control_change"}, {"time": 740, "annotation": {"number": 64, "value": 127}, "group": "control_change"}, {"time": 773, "annotation": {"number": 64, "value": 0}, "group": "control_change"}, {"time": 777, "annotation": {"number": 64, "value": 127}, "group": "control_change"}, {"time": 808, "annotation": {"number": 64, "value": 0}, "group": "control_change"}, {"time": 812, "annotation": {"number": 64, "value": 127}, "group": "control_change"}, {"time": 844, "annotation": {"number": 64, "value": 0}, "group": "control_change"}, {"time": 848, "annotation": {"number": 64, "value": 127}, "group": "control_change"}, {"time": 880, "annotation": {"number": 64, "value": 0}, "group": "control_change"}, {"time": 884, "annotation": {"number": 64, "value": 127}, "group": "control_change"}, {"time": 916, "annotation": {"number": 64, "value": 0}, "group": "control_change"}, {"time": 920, "annotation": {"number": 64, "value": 127}, "group": "control_change"}, {"time": 953, "annotation": {"number": 64, "value": 0}, "group": "control_change"}, {"time": 956, "annotation": {"number": 64, "value": 127}, "group": "control_change"}, {"time": 989, "annotation": {"number": 64, "value": 0}, "group": "control_change"}, {"time": 992, "annotation": {"number": 64, "value": 127}, "group": "control_change"}, {"time": 1023, "annotation": {"number": 64, "value": 0}, "group": "control_change"}, {"time": 1028, "annotation": {"number": 64, "value": 127}, "group": "control_change"}, {"time": 1060, "annotation": {"number": 64, "value": 0}, "group": "control_change"}, {"time": 1064, "annotation": {"number": 64, "value": 127}, "group": "control_change"}, {"time": 1096, "annotation": {"number": 64, "value": 0}, "group": "control_change"}, {"time": 1100, "annotation": {"number": 64, "value": 127}, "group": "control_change"}, {"time": 1132, "annotation": {"number": 64, "value": 0}, "group": "control_change"}, {"time": 1136, "annotation": {"number": 64, "value": 127}, "group": "control_change"}, {"time": 1168, "annotation": {"number": 64, "value": 0}, "group": "control_change"}, {"time": 1172, "annotation": {"number": 64, "value": 127}, "group": "control_change"}, {"time": 1204, "annotation": {"number": 64, "value": 0}, "group": "control_change"}, {"time": 1209, "annotation": {"number": 64, "value": 127}, "group": "control_change"}, {"time": 1240, "annotation": {"number": 64, "value": 0}, "group": "control_change"}, {"time": 1244, "annotation": {"number": 64, "value": 127}, "group": "control_change"}, {"time": 1276, "annotation": {"number": 64, "value": 0}, "group": "control_change"}, {"time": 1280, "annotation": {"number": 64, "value": 127}, "group": "control_change"}, {"time": 1312, "annotation": {"number": 64, "value": 0}, "group": "control_change"}, {"time": 1316, "annotation": {"number": 64, "value": 127}, "group": "control_change"}, {"time": 1349, "annotation": {"number": 64, "value": 0}, "group": "control_change"}, {"time": 1353, "annotation": {"number": 64, "value": 127}, "group": "control_change"}, {"time": 1385, "annotation": {"number": 64, "value": 0}, "group": "control_change"}, {"time": 1389, "annotation": {"number": 64, "value": 127}, "group": "control_change"}, {"time": 1421, "annotation": {"number": 64, "value": 0}, "group": "control_change"}, {"time": 1424, "annotation": {"number": 64, "value": 127}, "group": "control_change"}, {"time": 1456, "annotation": {"number": 64, "value": 0}, "group": "control_change"}, {"time": 1460, "annotation": {"number": 64, "value": 127}, "group": "control_change"}, {"time": 1493, "annotation": {"number": 64, "value": 0}, "group": "control_change"}, {"time": 1496, "annotation": {"number": 64, "value": 127}, "group": "control_change"}, {"time": 1528, "annotation": {"number": 64, "value": 0}, "group": "control_change"}, {"time": 1532, "annotation": {"number": 64, "value": 127}, "group": "control_change"}, {"time": 1563, "annotation": {"number": 64, "value": 0}, "group": "control_change"}, {"time": 1568, "annotation": {"number": 64, "value": 127}, "group": "control_change"}, {"time": 1599, "annotation": {"number": 64, "value": 0}, "group": "control_change"}, {"time": 1603, "annotation": {"number": 64, "value": 127}, "group": "control_change"}, {"time": 1637, "annotation": {"number": 64, "value": 0}, "group": "control_change"}, {"time": 1640, "annotation": {"number": 64, "value": 127}, "group": "control_change"}, {"time": 1672, "annotation": {"number": 64, "value": 0}, "group": "control_change"}, {"time": 1676, "annotation": {"number": 64, "value": 127}, "group": "control_change"}, {"time": 1709, "annotation": {"number": 64, "value": 0}, "group": "control_change"}, {"time": 1713, "annotation": {"number": 64, "value": 127}, "group": "control_change"}, {"time": 1744, "annotation": {"number": 64, "value": 0}, "group": "control_change"}, {"time": 1747, "annotation": {"number": 64, "value": 127}, "group": "control_change"}, {"time": 1781, "annotation": {"number": 64, "value": 0}, "group": "control_change"}, {"time": 1784, "annotation": {"number": 64, "value": 127}, "group": "control_change"}, {"time": 1816, "annotation": {"number": 64, "value": 0}, "group": "control_change"}, {"time": 1820, "annotation": {"number": 64, "value": 127}, "group": "control_change"}, {"time": 1852, "annotation": {"number": 64, "value": 0}, "group": "control_change"}, {"time": 1856, "annotation": {"number": 64, "value": 127}, "group": "control_change"}, {"time": 1888, "annotation": {"number": 64, "value": 0}, "group": "control_change"}, {"time": 1891, "annotation": {"number": 64, "value": 127}, "group": "control_change"}, {"time": 1925, "annotation": {"number": 64, "value": 0}, "group": "control_change"}, {"time": 1928, "annotation": {"number": 64, "value": 127}, "group": "control_change"}, {"time": 1960, "annotation": {"number": 64, "value": 0}, "group": "control_change"}, {"time": 1964, "annotation": {"number": 64, "value": 127}, "group": "control_change"}, {"time": 1996, "annotation": {"number": 64, "value": 0}, "group": "control_change"}, {"time": 2000, "annotation": {"number": 64, "value": 127}, "group": "control_change"}, {"time": 2032, "annotation": {"number": 64, "value": 0}, "group": "control_change"}, {"time": 2037, "annotation": {"number": 64, "value": 127}, "group": "control_change"}, {"time": 2069, "annotation": {"number": 64, "value": 0}, "group": "control_change"}, {"time": 2073, "annotation": {"number": 64, "value": 127}, "group": "control_change"}, {"time": 2104, "annotation": {"number": 64, "value": 0}, "group": "control_change"}, {"time": 2109, "annotation": {"number": 64, "value": 127}, "group": "control_change"}, {"time": 2138, "annotation": {"number": 64, "value": 0}, "group": "control_change"}, {"time": 2449, "annotation": {"number": 64, "value": 127}, "group": "control_change"}, {"time": 2464, "annotation": {"number": 64, "value": 0}, "group": "control_change"}, {"time": 2468, "annotation": {"number": 64, "value": 127}, "group": "control_change"}, {"time": 2500, "annotation": {"number": 64, "value": 0}, "group": "control_change"}, {"time": 2505, "annotation": {"number": 64, "value": 127}, "group": "control_change"}, {"time": 2535, "annotation": {"number": 64, "value": 0}, "group": "control_change"}, {"time": 2540, "annotation": {"number": 64, "value": 127}, "group": "control_change"}, {"time": 2570, "annotation": {"number": 64, "value": 0}, "group": "control_change"}, {"time": 2576, "annotation": {"number": 64, "value": 127}, "group": "control_change"}, {"time": 2608, "annotation": {"number": 64, "value": 0}, "group": "control_change"}, {"time": 2613, "annotation": {"number": 64, "value": 127}, "group": "control_change"}, {"time": 2644, "annotation": {"number": 64, "value": 0}, "group": "control_change"}, {"time": 2649, "annotation": {"number": 64, "value": 127}, "group": "control_change"}, {"time": 2682, "annotation": {"number": 64, "value": 0}, "group": "control_change"}, {"time": 2720, "annotation": {"number": 64, "value": 127}, "group": "control_change"}, {"time": 2751, "annotation": {"number": 64, "value": 0}, "group": "control_change"}, {"time": 2756, "annotation": {"number": 64, "value": 127}, "group": "control_change"}, {"time": 2788, "annotation": {"number": 64, "value": 0}, "group": "control_change"}, {"time": 2792, "annotation": {"number": 64, "value": 127}, "group": "control_change"}, {"time": 2824, "annotation": {"number": 64, "value": 0}, "group": "control_change"}, {"time": 2828, "annotation": {"number": 64, "value": 127}, "group": "control_change"}, {"time": 2860, "annotation": {"number": 64, "value": 0}, "group": "control_change"}, {"time": 2864, "annotation": {"number": 64, "value": 127}, "group": "control_change"}, {"time": 2896, "annotation": {"number": 64, "value": 0}, "group": "control_change"}, {"time": 2900, "annotation": {"number": 64, "value": 127}, "group": "control_change"}, {"time": 2932, "annotation": {"number": 64, "value": 0}, "group": "control_change"}, {"time": 2937, "annotation": {"number": 64, "value": 127}, "group": "control_change"}, {"time": 2968, "annotation": {"number": 64, "value": 0}, "group": "control_change"}, {"time": 2972, "annotation": {"number": 64, "value": 127}, "group": "control_change"}, {"time": 3004, "annotation": {"number": 64, "value": 0}, "group": "control_change"}, {"time": 3008, "annotation": {"number": 64, "value": 127}, "group": "control_change"}, {"time": 3040, "annotation": {"number": 64, "value": 0}, "group": "control_change"}, {"time": 3044, "annotation": {"number": 64, "value": 127}, "group": "control_change"}, {"time": 3077, "annotation": {"number": 64, "value": 0}, "group": "control_change"}, {"time": 3081, "annotation": {"number": 64, "value": 127}, "group": "control_change"}, {"time": 3113, "annotation": {"number": 64, "value": 0}, "group": "control_change"}, {"time": 3117, "annotation": {"number": 64, "value": 127}, "group": "control_change"}, {"time": 3149, "annotation": {"number": 64, "value": 0}, "group": "control_change"}, {"time": 3152, "annotation": {"number": 64, "value": 127}, "group": "control_change"}, {"time": 3184, "annotation": {"number": 64, "value": 0}, "group": "control_change"}, {"time": 3188, "annotation": {"number": 64, "value": 127}, "group": "control_change"}, {"time": 3221, "annotation": {"number": 64, "value": 0}, "group": "control_change"}, {"time": 3224, "annotation": {"number": 64, "value": 127}, "group": "control_change"}, {"time": 3256, "annotation": {"number": 64, "value": 0}, "group": "control_change"}, {"time": 3260, "annotation": {"number": 64, "value": 127}, "group": "control_change"}, {"time": 3291, "annotation": {"number": 64, "value": 0}, "group": "control_change"}, {"time": 3296, "annotation": {"number": 64, "value": 127}, "group": "control_change"}, {"time": 3327, "annotation": {"number": 64, "value": 0}, "group": "control_change"}, {"time": 3331, "annotation": {"number": 64, "value": 127}, "group": "control_change"}, {"time": 3365, "annotation": {"number": 64, "value": 0}, "group": "control_change"}, {"time": 3368, "annotation": {"number": 64, "value": 127}, "group": "control_change"}, {"time": 3400, "annotation": {"number": 64, "value": 0}, "group": "control_change"}, {"time": 3404, "annotation": {"number": 64, "value": 127}, "group": "control_change"}, {"time": 3437, "annotation": {"number": 64, "value": 0}, "group": "control_change"}, {"time": 3441, "annotation": {"number": 64, "value": 127}, "group": "control_change"}, {"time": 3472, "annotation": {"number": 64, "value": 0}, "group": "control_change"}, {"time": 3475, "annotation": {"number": 64, "value": 127}, "group": "control_change"}, {"time": 3509, "annotation": {"number": 64, "value": 0}, "group": "control_change"}, {"time": 3512, "annotation": {"number": 64, "value": 127}, "group": "control_change"}, {"time": 3544, "annotation": {"number": 64, "value": 0}, "group": "control_change"}, {"time": 3548, "annotation": {"number": 64, "value": 127}, "group": "control_change"}, {"time": 3580, "annotation": {"number": 64, "value": 0}, "group": "control_change"}, {"time": 3584, "annotation": {"number": 64, "value": 127}, "group": "control_change"}, {"time": 3616, "annotation": {"number": 64, "value": 0}, "group": "control_change"}, {"time": 3619, "annotation": {"number": 64, "value": 127}, "group": "control_change"}, {"time": 3653, "annotation": {"number": 64, "value": 0}, "group": "control_change"}, {"time": 3656, "annotation": {"number": 64, "value": 127}, "group": "control_change"}, {"time": 3688, "annotation": {"number": 64, "value": 0}, "group": "control_change"}, {"time": 3692, "annotation": {"number": 64, "value": 127}, "group": "control_change"}, {"time": 3724, "annotation": {"number": 64, "value": 0}, "group": "control_change"}, {"time": 3728, "annotation": {"number": 64, "value": 127}, "group": "control_change"}, {"time": 3760, "annotation": {"number": 64, "value": 0}, "group": "control_change"}, {"time": 3765, "annotation": {"number": 64, "value": 127}, "group": "control_change"}, {"time": 3797, "annotation": {"number": 64, "value": 0}, "group": "control_change"}, {"time": 3873, "annotation": {"number": 64, "value": 127}, "group": "control_change"}, {"time": 3889, "annotation": {"number": 64, "value": 0}, "group": "control_change"}, {"time": 3945, "annotation": {"number": 64, "value": 127}, "group": "control_change"}, {"time": 3969, "annotation": {"number": 64, "value": 0}, "group": "control_change"}, {"time": 4017, "annotation": {"number": 64, "value": 127}, "group": "control_change"}, {"time": 4019, "annotation": {"number": 64, "value": 0}, "group": "control_change"}, {"time": 4530, "annotation": {"number": 64, "value": 127}, "group": "control_change"}, {"time": 4585, "annotation": {"number": 64, "value": 0}, "group": "control_change"}, {"time": 4587, "annotation": {"number": 64, "value": 127}, "group": "control_change"}, {"time": 4589, "annotation": {"number": 64, "value": 0}, "group": "control_change"}, {"time": 4589, "annotation": {"number": 64, "value": 127}, "group": "control_change"}, {"time": 4593, "annotation": {"number": 64, "value": 0}, "group": "control_change"}]}]}