{"metadata": {"schema_version": "0.2", "title": "None", "source_filename": "757.mid", "source_format": "midi"}, "resolution": 12, "tempos": [{"time": 0, "qpm": 68.75010026056287}, {"time": 936, "qpm": 68.45009588717599}, {"time": 1128, "qpm": 68.70003503701787}, {"time": 1272, "qpm": 68.80008072542805}, {"time": 1284, "qpm": 69.00009660013524}, {"time": 1452, "qpm": 69.50010888350391}, {"time": 1548, "qpm": 69.00009660013524}, {"time": 1644, "qpm": 69.50010888350391}, {"time": 1680, "qpm": 69.00009660013524}, {"time": 1728, "qpm": 68.0000725334107}, {"time": 1836, "qpm": 69.00009660013524}, {"time": 2280, "qpm": 69.50010888350391}, {"time": 2436, "qpm": 69.00009660013524}, {"time": 2460, "qpm": 68.0000725334107}, {"time": 2520, "qpm": 68.45009588717599}, {"time": 2712, "qpm": 68.70003503701787}, {"time": 2784, "qpm": 69.00009660013524}, {"time": 2856, "qpm": 68.80008072542805}, {"time": 2868, "qpm": 69.00009660013524}, {"time": 3036, "qpm": 69.50010888350391}, {"time": 3132, "qpm": 69.00009660013524}, {"time": 3228, "qpm": 69.50010888350391}, {"time": 3264, "qpm": 69.00009660013524}, {"time": 3312, "qpm": 68.0000725334107}, {"time": 3372, "qpm": 69.00009660013524}, {"time": 3468, "qpm": 69.50010888350391}, {"time": 3564, "qpm": 69.00009660013524}, {"time": 3660, "qpm": 69.50010888350391}, {"time": 3696, "qpm": 69.00009660013524}, {"time": 3744, "qpm": 68.0000725334107}], "time_signatures": [{"time": 0, "numerator": 1, "denominator": 4}], "tracks": [{"program": 4, "is_drum": false, "name": "MELODY", "notes": [{"time": 529, "pitch": 57, "duration": 9, "velocity": 92}, {"time": 541, "pitch": 57, "duration": 5, "velocity": 92}, {"time": 547, "pitch": 55, "duration": 7, "velocity": 61}, {"time": 553, "pitch": 57, "duration": 17, "velocity": 77}, {"time": 577, "pitch": 57, "duration": 5, "velocity": 89}, {"time": 583, "pitch": 60, "duration": 6, "velocity": 99}, {"time": 589, "pitch": 57, "duration": 6, "velocity": 83}, {"time": 595, "pitch": 55, "duration": 6, "velocity": 75}, {"time": 601, "pitch": 57, "duration": 17, "velocity": 73}, {"time": 625, "pitch": 53, "duration": 10, "velocity": 85}, {"time": 637, "pitch": 53, "duration": 6, "velocity": 86}, {"time": 643, "pitch": 55, "duration": 6, "velocity": 76}, {"time": 649, "pitch": 57, "duration": 6, "velocity": 70}, {"time": 655, "pitch": 60, "duration": 6, "velocity": 79}, {"time": 661, "pitch": 57, "duration": 9, "velocity": 78}, {"time": 673, "pitch": 55, "duration": 9, "velocity": 71}, {"time": 685, "pitch": 55, "duration": 5, "velocity": 79}, {"time": 691, "pitch": 53, "duration": 6, "velocity": 70}, {"time": 697, "pitch": 55, "duration": 20, "velocity": 72}, {"time": 721, "pitch": 57, "duration": 16, "velocity": 93}, {"time": 739, "pitch": 60, "duration": 4, "velocity": 99}, {"time": 742, "pitch": 57, "duration": 3, "velocity": 62}, {"time": 745, "pitch": 62, "duration": 6, "velocity": 100}, {"time": 751, "pitch": 60, "duration": 14, "velocity": 73}, {"time": 769, "pitch": 62, "duration": 6, "velocity": 97}, {"time": 775, "pitch": 60, "duration": 5, "velocity": 81}, {"time": 781, "pitch": 60, "duration": 6, "velocity": 86}, {"time": 787, "pitch": 57, "duration": 6, "velocity": 86}, {"time": 793, "pitch": 60, "duration": 11, "velocity": 83}, {"time": 817, "pitch": 57, "duration": 11, "velocity": 96}, {"time": 829, "pitch": 55, "duration": 6, "velocity": 93}, {"time": 835, "pitch": 57, "duration": 6, "velocity": 72}, {"time": 841, "pitch": 60, "duration": 11, "velocity": 85}, {"time": 853, "pitch": 57, "duration": 6, "velocity": 79}, {"time": 859, "pitch": 55, "duration": 5, "velocity": 73}, {"time": 865, "pitch": 55, "duration": 17, "velocity": 74}, {"time": 877, "pitch": 55, "duration": 5, "velocity": 85}, {"time": 883, "pitch": 53, "duration": 6, "velocity": 69}, {"time": 889, "pitch": 55, "duration": 19, "velocity": 70}, {"time": 913, "pitch": 57, "duration": 9, "velocity": 92}, {"time": 925, "pitch": 57, "duration": 5, "velocity": 92}, {"time": 931, "pitch": 55, "duration": 7, "velocity": 61}, {"time": 937, "pitch": 57, "duration": 17, "velocity": 77}, {"time": 961, "pitch": 57, "duration": 5, "velocity": 89}, {"time": 967, "pitch": 60, "duration": 6, "velocity": 99}, {"time": 973, "pitch": 57, "duration": 6, "velocity": 83}, {"time": 979, "pitch": 55, "duration": 6, "velocity": 75}, {"time": 985, "pitch": 57, "duration": 17, "velocity": 73}, {"time": 1009, "pitch": 53, "duration": 10, "velocity": 85}, {"time": 1021, "pitch": 53, "duration": 6, "velocity": 86}, {"time": 1027, "pitch": 55, "duration": 6, "velocity": 76}, {"time": 1033, "pitch": 57, "duration": 6, "velocity": 70}, {"time": 1039, "pitch": 60, "duration": 6, "velocity": 79}, {"time": 1045, "pitch": 57, "duration": 9, "velocity": 78}, {"time": 1057, "pitch": 55, "duration": 9, "velocity": 71}, {"time": 1069, "pitch": 55, "duration": 5, "velocity": 79}, {"time": 1075, "pitch": 53, "duration": 6, "velocity": 70}, {"time": 1081, "pitch": 55, "duration": 20, "velocity": 72}, {"time": 1105, "pitch": 57, "duration": 16, "velocity": 93}, {"time": 1123, "pitch": 60, "duration": 4, "velocity": 99}, {"time": 1126, "pitch": 57, "duration": 3, "velocity": 62}, {"time": 1129, "pitch": 62, "duration": 6, "velocity": 100}, {"time": 1135, "pitch": 60, "duration": 14, "velocity": 73}, {"time": 1153, "pitch": 62, "duration": 6, "velocity": 97}, {"time": 1159, "pitch": 60, "duration": 5, "velocity": 81}, {"time": 1165, "pitch": 60, "duration": 6, "velocity": 86}, {"time": 1171, "pitch": 57, "duration": 6, "velocity": 86}, {"time": 1177, "pitch": 60, "duration": 11, "velocity": 83}, {"time": 1201, "pitch": 57, "duration": 11, "velocity": 96}, {"time": 1213, "pitch": 55, "duration": 6, "velocity": 93}, {"time": 1219, "pitch": 57, "duration": 6, "velocity": 72}, {"time": 1225, "pitch": 60, "duration": 11, "velocity": 85}, {"time": 1237, "pitch": 57, "duration": 6, "velocity": 79}, {"time": 1243, "pitch": 55, "duration": 5, "velocity": 73}, {"time": 1249, "pitch": 55, "duration": 6, "velocity": 86}, {"time": 1255, "pitch": 53, "duration": 30, "velocity": 81}, {"time": 1333, "pitch": 53, "duration": 6, "velocity": 96}, {"time": 1339, "pitch": 55, "duration": 5, "velocity": 95}, {"time": 1345, "pitch": 57, "duration": 10, "velocity": 99}, {"time": 1357, "pitch": 57, "duration": 6, "velocity": 100}, {"time": 1363, "pitch": 60, "duration": 5, "velocity": 99}, {"time": 1369, "pitch": 62, "duration": 11, "velocity": 102}, {"time": 1381, "pitch": 62, "duration": 4, "velocity": 107}, {"time": 1387, "pitch": 69, "duration": 4, "velocity": 102}, {"time": 1393, "pitch": 67, "duration": 5, "velocity": 117}, {"time": 1399, "pitch": 65, "duration": 4, "velocity": 78}, {"time": 1405, "pitch": 65, "duration": 4, "velocity": 100}, {"time": 1411, "pitch": 62, "duration": 4, "velocity": 95}, {"time": 1417, "pitch": 60, "duration": 10, "velocity": 112}, {"time": 1441, "pitch": 62, "duration": 5, "velocity": 99}, {"time": 1447, "pitch": 60, "duration": 4, "velocity": 99}, {"time": 1453, "pitch": 57, "duration": 6, "velocity": 95}, {"time": 1459, "pitch": 55, "duration": 6, "velocity": 70}, {"time": 1465, "pitch": 53, "duration": 12, "velocity": 81}, {"time": 1477, "pitch": 50, "duration": 5, "velocity": 90}, {"time": 1483, "pitch": 53, "duration": 4, "velocity": 89}, {"time": 1489, "pitch": 53, "duration": 6, "velocity": 96}, {"time": 1494, "pitch": 55, "duration": 7, "velocity": 100}, {"time": 1501, "pitch": 55, "duration": 5, "velocity": 92}, {"time": 1507, "pitch": 53, "duration": 6, "velocity": 92}, {"time": 1513, "pitch": 55, "duration": 11, "velocity": 97}, {"time": 1525, "pitch": 53, "duration": 6, "velocity": 96}, {"time": 1531, "pitch": 55, "duration": 5, "velocity": 95}, {"time": 1537, "pitch": 57, "duration": 10, "velocity": 99}, {"time": 1549, "pitch": 57, "duration": 6, "velocity": 100}, {"time": 1555, "pitch": 60, "duration": 5, "velocity": 99}, {"time": 1561, "pitch": 62, "duration": 11, "velocity": 102}, {"time": 1573, "pitch": 62, "duration": 4, "velocity": 107}, {"time": 1579, "pitch": 69, "duration": 4, "velocity": 102}, {"time": 1585, "pitch": 67, "duration": 5, "velocity": 117}, {"time": 1591, "pitch": 65, "duration": 4, "velocity": 78}, {"time": 1597, "pitch": 65, "duration": 4, "velocity": 100}, {"time": 1603, "pitch": 67, "duration": 4, "velocity": 95}, {"time": 1609, "pitch": 67, "duration": 4, "velocity": 112}, {"time": 1615, "pitch": 65, "duration": 6, "velocity": 112}, {"time": 1633, "pitch": 60, "duration": 9, "velocity": 100}, {"time": 1645, "pitch": 60, "duration": 5, "velocity": 107}, {"time": 1651, "pitch": 57, "duration": 4, "velocity": 99}, {"time": 1657, "pitch": 64, "duration": 6, "velocity": 100}, {"time": 1663, "pitch": 65, "duration": 4, "velocity": 100}, {"time": 1669, "pitch": 53, "duration": 4, "velocity": 95}, {"time": 1675, "pitch": 55, "duration": 5, "velocity": 90}, {"time": 1681, "pitch": 57, "duration": 9, "velocity": 95}, {"time": 1705, "pitch": 55, "duration": 24, "velocity": 78}, {"time": 1729, "pitch": 53, "duration": 30, "velocity": 76}, {"time": 2113, "pitch": 57, "duration": 9, "velocity": 92}, {"time": 2125, "pitch": 57, "duration": 5, "velocity": 92}, {"time": 2131, "pitch": 55, "duration": 7, "velocity": 61}, {"time": 2137, "pitch": 57, "duration": 17, "velocity": 77}, {"time": 2161, "pitch": 57, "duration": 5, "velocity": 89}, {"time": 2167, "pitch": 60, "duration": 6, "velocity": 99}, {"time": 2173, "pitch": 57, "duration": 6, "velocity": 83}, {"time": 2179, "pitch": 55, "duration": 6, "velocity": 75}, {"time": 2185, "pitch": 57, "duration": 17, "velocity": 73}, {"time": 2209, "pitch": 53, "duration": 10, "velocity": 85}, {"time": 2221, "pitch": 53, "duration": 6, "velocity": 86}, {"time": 2227, "pitch": 55, "duration": 6, "velocity": 76}, {"time": 2233, "pitch": 57, "duration": 6, "velocity": 70}, {"time": 2239, "pitch": 60, "duration": 6, "velocity": 79}, {"time": 2245, "pitch": 57, "duration": 9, "velocity": 78}, {"time": 2257, "pitch": 55, "duration": 9, "velocity": 71}, {"time": 2269, "pitch": 55, "duration": 5, "velocity": 79}, {"time": 2275, "pitch": 53, "duration": 6, "velocity": 70}, {"time": 2281, "pitch": 55, "duration": 20, "velocity": 72}, {"time": 2305, "pitch": 57, "duration": 16, "velocity": 93}, {"time": 2323, "pitch": 60, "duration": 4, "velocity": 99}, {"time": 2326, "pitch": 57, "duration": 3, "velocity": 62}, {"time": 2329, "pitch": 62, "duration": 6, "velocity": 100}, {"time": 2335, "pitch": 60, "duration": 14, "velocity": 73}, {"time": 2353, "pitch": 62, "duration": 6, "velocity": 97}, {"time": 2359, "pitch": 60, "duration": 5, "velocity": 81}, {"time": 2365, "pitch": 60, "duration": 6, "velocity": 86}, {"time": 2371, "pitch": 57, "duration": 6, "velocity": 86}, {"time": 2377, "pitch": 60, "duration": 11, "velocity": 83}, {"time": 2398, "pitch": 48, "duration": 3, "velocity": 88}, {"time": 2401, "pitch": 57, "duration": 11, "velocity": 96}, {"time": 2413, "pitch": 55, "duration": 6, "velocity": 93}, {"time": 2419, "pitch": 57, "duration": 6, "velocity": 72}, {"time": 2425, "pitch": 60, "duration": 11, "velocity": 85}, {"time": 2437, "pitch": 57, "duration": 6, "velocity": 79}, {"time": 2443, "pitch": 55, "duration": 5, "velocity": 73}, {"time": 2449, "pitch": 55, "duration": 17, "velocity": 74}, {"time": 2461, "pitch": 55, "duration": 5, "velocity": 85}, {"time": 2467, "pitch": 53, "duration": 6, "velocity": 69}, {"time": 2473, "pitch": 55, "duration": 19, "velocity": 70}, {"time": 2497, "pitch": 57, "duration": 9, "velocity": 92}, {"time": 2509, "pitch": 57, "duration": 5, "velocity": 92}, {"time": 2515, "pitch": 55, "duration": 7, "velocity": 61}, {"time": 2521, "pitch": 57, "duration": 17, "velocity": 77}, {"time": 2545, "pitch": 57, "duration": 5, "velocity": 89}, {"time": 2551, "pitch": 60, "duration": 6, "velocity": 99}, {"time": 2557, "pitch": 57, "duration": 6, "velocity": 83}, {"time": 2563, "pitch": 55, "duration": 6, "velocity": 75}, {"time": 2569, "pitch": 57, "duration": 17, "velocity": 73}, {"time": 2593, "pitch": 53, "duration": 10, "velocity": 85}, {"time": 2605, "pitch": 53, "duration": 6, "velocity": 86}, {"time": 2611, "pitch": 55, "duration": 6, "velocity": 76}, {"time": 2617, "pitch": 57, "duration": 6, "velocity": 70}, {"time": 2623, "pitch": 60, "duration": 6, "velocity": 79}, {"time": 2629, "pitch": 57, "duration": 9, "velocity": 78}, {"time": 2641, "pitch": 55, "duration": 9, "velocity": 71}, {"time": 2653, "pitch": 55, "duration": 5, "velocity": 79}, {"time": 2659, "pitch": 53, "duration": 6, "velocity": 70}, {"time": 2665, "pitch": 55, "duration": 20, "velocity": 72}, {"time": 2689, "pitch": 57, "duration": 16, "velocity": 93}, {"time": 2707, "pitch": 60, "duration": 4, "velocity": 99}, {"time": 2710, "pitch": 57, "duration": 3, "velocity": 62}, {"time": 2713, "pitch": 62, "duration": 6, "velocity": 100}, {"time": 2719, "pitch": 60, "duration": 14, "velocity": 73}, {"time": 2737, "pitch": 62, "duration": 6, "velocity": 97}, {"time": 2743, "pitch": 60, "duration": 5, "velocity": 81}, {"time": 2749, "pitch": 60, "duration": 6, "velocity": 86}, {"time": 2755, "pitch": 57, "duration": 6, "velocity": 86}, {"time": 2761, "pitch": 60, "duration": 11, "velocity": 83}, {"time": 2791, "pitch": 57, "duration": 4, "velocity": 96}, {"time": 2797, "pitch": 55, "duration": 6, "velocity": 93}, {"time": 2803, "pitch": 57, "duration": 6, "velocity": 72}, {"time": 2809, "pitch": 60, "duration": 11, "velocity": 85}, {"time": 2821, "pitch": 57, "duration": 6, "velocity": 79}, {"time": 2827, "pitch": 55, "duration": 5, "velocity": 73}, {"time": 2833, "pitch": 55, "duration": 6, "velocity": 86}, {"time": 2839, "pitch": 53, "duration": 30, "velocity": 81}, {"time": 2917, "pitch": 53, "duration": 6, "velocity": 96}, {"time": 2923, "pitch": 55, "duration": 5, "velocity": 95}, {"time": 2929, "pitch": 57, "duration": 10, "velocity": 99}, {"time": 2941, "pitch": 57, "duration": 6, "velocity": 100}, {"time": 2947, "pitch": 60, "duration": 5, "velocity": 99}, {"time": 2953, "pitch": 62, "duration": 11, "velocity": 102}, {"time": 2965, "pitch": 62, "duration": 4, "velocity": 107}, {"time": 2971, "pitch": 69, "duration": 4, "velocity": 102}, {"time": 2977, "pitch": 67, "duration": 5, "velocity": 117}, {"time": 2983, "pitch": 65, "duration": 4, "velocity": 78}, {"time": 2989, "pitch": 65, "duration": 4, "velocity": 100}, {"time": 2995, "pitch": 62, "duration": 4, "velocity": 95}, {"time": 3001, "pitch": 60, "duration": 10, "velocity": 112}, {"time": 3025, "pitch": 62, "duration": 5, "velocity": 99}, {"time": 3031, "pitch": 60, "duration": 4, "velocity": 99}, {"time": 3037, "pitch": 57, "duration": 6, "velocity": 95}, {"time": 3043, "pitch": 55, "duration": 6, "velocity": 70}, {"time": 3049, "pitch": 53, "duration": 12, "velocity": 81}, {"time": 3061, "pitch": 50, "duration": 5, "velocity": 90}, {"time": 3067, "pitch": 53, "duration": 4, "velocity": 89}, {"time": 3073, "pitch": 53, "duration": 6, "velocity": 96}, {"time": 3078, "pitch": 55, "duration": 7, "velocity": 100}, {"time": 3085, "pitch": 55, "duration": 5, "velocity": 92}, {"time": 3091, "pitch": 53, "duration": 6, "velocity": 92}, {"time": 3097, "pitch": 55, "duration": 11, "velocity": 97}, {"time": 3109, "pitch": 53, "duration": 6, "velocity": 96}, {"time": 3115, "pitch": 55, "duration": 5, "velocity": 95}, {"time": 3121, "pitch": 57, "duration": 10, "velocity": 99}, {"time": 3133, "pitch": 57, "duration": 6, "velocity": 100}, {"time": 3139, "pitch": 60, "duration": 5, "velocity": 99}, {"time": 3145, "pitch": 62, "duration": 11, "velocity": 102}, {"time": 3157, "pitch": 62, "duration": 4, "velocity": 107}, {"time": 3163, "pitch": 69, "duration": 4, "velocity": 102}, {"time": 3169, "pitch": 67, "duration": 5, "velocity": 117}, {"time": 3175, "pitch": 65, "duration": 4, "velocity": 78}, {"time": 3181, "pitch": 65, "duration": 4, "velocity": 100}, {"time": 3187, "pitch": 67, "duration": 4, "velocity": 95}, {"time": 3193, "pitch": 67, "duration": 4, "velocity": 112}, {"time": 3199, "pitch": 65, "duration": 6, "velocity": 112}, {"time": 3217, "pitch": 60, "duration": 9, "velocity": 100}, {"time": 3229, "pitch": 60, "duration": 5, "velocity": 107}, {"time": 3235, "pitch": 57, "duration": 4, "velocity": 99}, {"time": 3241, "pitch": 64, "duration": 6, "velocity": 100}, {"time": 3247, "pitch": 65, "duration": 4, "velocity": 100}, {"time": 3253, "pitch": 53, "duration": 4, "velocity": 95}, {"time": 3259, "pitch": 55, "duration": 5, "velocity": 90}, {"time": 3265, "pitch": 57, "duration": 9, "velocity": 95}, {"time": 3289, "pitch": 55, "duration": 24, "velocity": 78}, {"time": 3313, "pitch": 53, "duration": 30, "velocity": 76}, {"time": 3349, "pitch": 55, "duration": 6, "velocity": 96}, {"time": 3355, "pitch": 57, "duration": 5, "velocity": 95}, {"time": 3361, "pitch": 59, "duration": 10, "velocity": 99}, {"time": 3373, "pitch": 59, "duration": 6, "velocity": 100}, {"time": 3379, "pitch": 62, "duration": 5, "velocity": 99}, {"time": 3385, "pitch": 64, "duration": 11, "velocity": 102}, {"time": 3397, "pitch": 64, "duration": 4, "velocity": 107}, {"time": 3403, "pitch": 71, "duration": 4, "velocity": 102}, {"time": 3409, "pitch": 69, "duration": 5, "velocity": 117}, {"time": 3415, "pitch": 67, "duration": 4, "velocity": 78}, {"time": 3421, "pitch": 67, "duration": 4, "velocity": 100}, {"time": 3427, "pitch": 64, "duration": 4, "velocity": 95}, {"time": 3433, "pitch": 62, "duration": 10, "velocity": 112}, {"time": 3457, "pitch": 64, "duration": 5, "velocity": 99}, {"time": 3463, "pitch": 62, "duration": 4, "velocity": 99}, {"time": 3469, "pitch": 59, "duration": 6, "velocity": 95}, {"time": 3475, "pitch": 57, "duration": 6, "velocity": 70}, {"time": 3481, "pitch": 55, "duration": 12, "velocity": 81}, {"time": 3493, "pitch": 52, "duration": 5, "velocity": 90}, {"time": 3499, "pitch": 55, "duration": 4, "velocity": 89}, {"time": 3505, "pitch": 55, "duration": 6, "velocity": 96}, {"time": 3510, "pitch": 57, "duration": 7, "velocity": 100}, {"time": 3517, "pitch": 57, "duration": 5, "velocity": 92}, {"time": 3523, "pitch": 55, "duration": 6, "velocity": 92}, {"time": 3529, "pitch": 57, "duration": 11, "velocity": 97}, {"time": 3541, "pitch": 55, "duration": 6, "velocity": 96}, {"time": 3547, "pitch": 57, "duration": 5, "velocity": 95}, {"time": 3553, "pitch": 59, "duration": 10, "velocity": 99}, {"time": 3565, "pitch": 59, "duration": 6, "velocity": 100}, {"time": 3571, "pitch": 62, "duration": 5, "velocity": 99}, {"time": 3577, "pitch": 64, "duration": 11, "velocity": 102}, {"time": 3589, "pitch": 64, "duration": 4, "velocity": 107}, {"time": 3595, "pitch": 71, "duration": 4, "velocity": 102}, {"time": 3601, "pitch": 69, "duration": 5, "velocity": 117}, {"time": 3607, "pitch": 67, "duration": 4, "velocity": 78}, {"time": 3613, "pitch": 67, "duration": 4, "velocity": 100}, {"time": 3619, "pitch": 69, "duration": 4, "velocity": 95}, {"time": 3625, "pitch": 69, "duration": 4, "velocity": 112}, {"time": 3631, "pitch": 67, "duration": 6, "velocity": 112}, {"time": 3673, "pitch": 62, "duration": 9, "velocity": 100}, {"time": 3685, "pitch": 62, "duration": 5, "velocity": 107}, {"time": 3691, "pitch": 59, "duration": 4, "velocity": 99}, {"time": 3697, "pitch": 66, "duration": 6, "velocity": 100}, {"time": 3703, "pitch": 67, "duration": 4, "velocity": 100}, {"time": 3709, "pitch": 55, "duration": 4, "velocity": 95}, {"time": 3715, "pitch": 57, "duration": 5, "velocity": 90}, {"time": 3721, "pitch": 59, "duration": 9, "velocity": 95}, {"time": 3745, "pitch": 57, "duration": 24, "velocity": 78}, {"time": 3769, "pitch": 55, "duration": 30, "velocity": 76}]}, {"program": 0, "is_drum": false, "name": "PIANO", "notes": [{"time": 49, "pitch": 41, "duration": 21, "velocity": 82}, {"time": 55, "pitch": 48, "duration": 16, "velocity": 61}, {"time": 61, "pitch": 60, "duration": 12, "velocity": 93}, {"time": 67, "pitch": 57, "duration": 6, "velocity": 66}, {"time": 73, "pitch": 47, "duration": 13, "velocity": 95}, {"time": 79, "pitch": 59, "duration": 18, "velocity": 89}, {"time": 85, "pitch": 65, "duration": 14, "velocity": 102}, {"time": 91, "pitch": 62, "duration": 8, "velocity": 86}, {"time": 97, "pitch": 46, "duration": 16, "velocity": 96}, {"time": 103, "pitch": 58, "duration": 8, "velocity": 77}, {"time": 109, "pitch": 65, "duration": 12, "velocity": 99}, {"time": 115, "pitch": 62, "duration": 7, "velocity": 90}, {"time": 121, "pitch": 45, "duration": 17, "velocity": 74}, {"time": 127, "pitch": 52, "duration": 9, "velocity": 63}, {"time": 133, "pitch": 64, "duration": 13, "velocity": 97}, {"time": 139, "pitch": 60, "duration": 7, "velocity": 69}, {"time": 145, "pitch": 43, "duration": 19, "velocity": 83}, {"time": 151, "pitch": 50, "duration": 15, "velocity": 63}, {"time": 169, "pitch": 45, "duration": 20, "velocity": 86}, {"time": 181, "pitch": 64, "duration": 13, "velocity": 95}, {"time": 187, "pitch": 60, "duration": 7, "velocity": 97}, {"time": 193, "pitch": 47, "duration": 18, "velocity": 81}, {"time": 199, "pitch": 53, "duration": 12, "velocity": 57}, {"time": 205, "pitch": 59, "duration": 13, "velocity": 100}, {"time": 211, "pitch": 62, "duration": 6, "velocity": 97}, {"time": 217, "pitch": 36, "duration": 18, "velocity": 82}, {"time": 220, "pitch": 43, "duration": 15, "velocity": 56}, {"time": 223, "pitch": 48, "duration": 8, "velocity": 92}, {"time": 226, "pitch": 55, "duration": 6, "velocity": 99}, {"time": 232, "pitch": 48, "duration": 4, "velocity": 88}, {"time": 235, "pitch": 60, "duration": 6, "velocity": 78}, {"time": 238, "pitch": 55, "duration": 4, "velocity": 77}, {"time": 241, "pitch": 41, "duration": 16, "velocity": 93}, {"time": 247, "pitch": 48, "duration": 11, "velocity": 64}, {"time": 253, "pitch": 60, "duration": 11, "velocity": 122}, {"time": 259, "pitch": 57, "duration": 5, "velocity": 99}, {"time": 265, "pitch": 47, "duration": 14, "velocity": 83}, {"time": 271, "pitch": 53, "duration": 8, "velocity": 76}, {"time": 277, "pitch": 65, "duration": 12, "velocity": 112}, {"time": 283, "pitch": 62, "duration": 6, "velocity": 96}, {"time": 289, "pitch": 48, "duration": 13, "velocity": 77}, {"time": 295, "pitch": 55, "duration": 7, "velocity": 85}, {"time": 301, "pitch": 67, "duration": 12, "velocity": 112}, {"time": 307, "pitch": 60, "duration": 6, "velocity": 96}, {"time": 313, "pitch": 46, "duration": 17, "velocity": 90}, {"time": 319, "pitch": 53, "duration": 11, "velocity": 59}, {"time": 325, "pitch": 58, "duration": 5, "velocity": 36}, {"time": 325, "pitch": 61, "duration": 11, "velocity": 86}, {"time": 325, "pitch": 65, "duration": 12, "velocity": 71}, {"time": 337, "pitch": 48, "duration": 25, "velocity": 72}, {"time": 343, "pitch": 55, "duration": 19, "velocity": 65}, {"time": 349, "pitch": 64, "duration": 13, "velocity": 67}, {"time": 349, "pitch": 67, "duration": 13, "velocity": 67}, {"time": 361, "pitch": 38, "duration": 16, "velocity": 77}, {"time": 367, "pitch": 45, "duration": 10, "velocity": 63}, {"time": 373, "pitch": 50, "duration": 5, "velocity": 45}, {"time": 373, "pitch": 65, "duration": 11, "velocity": 95}, {"time": 379, "pitch": 57, "duration": 6, "velocity": 88}, {"time": 385, "pitch": 43, "duration": 15, "velocity": 82}, {"time": 391, "pitch": 50, "duration": 8, "velocity": 74}, {"time": 397, "pitch": 62, "duration": 12, "velocity": 95}, {"time": 403, "pitch": 58, "duration": 6, "velocity": 86}, {"time": 409, "pitch": 36, "duration": 17, "velocity": 79}, {"time": 415, "pitch": 43, "duration": 11, "velocity": 56}, {"time": 421, "pitch": 48, "duration": 6, "velocity": 58}, {"time": 421, "pitch": 64, "duration": 13, "velocity": 92}, {"time": 427, "pitch": 60, "duration": 7, "velocity": 63}, {"time": 433, "pitch": 41, "duration": 42, "velocity": 92}, {"time": 439, "pitch": 48, "duration": 43, "velocity": 57}, {"time": 445, "pitch": 53, "duration": 16, "velocity": 83}, {"time": 451, "pitch": 55, "duration": 20, "velocity": 69}, {"time": 457, "pitch": 57, "duration": 12, "velocity": 67}, {"time": 463, "pitch": 53, "duration": 6, "velocity": 43}, {"time": 469, "pitch": 60, "duration": 62, "velocity": 85}, {"time": 475, "pitch": 57, "duration": 19, "velocity": 37}, {"time": 481, "pitch": 41, "duration": 42, "velocity": 69}, {"time": 487, "pitch": 48, "duration": 36, "velocity": 52}, {"time": 493, "pitch": 53, "duration": 37, "velocity": 65}, {"time": 499, "pitch": 55, "duration": 31, "velocity": 58}, {"time": 505, "pitch": 57, "duration": 25, "velocity": 63}, {"time": 529, "pitch": 41, "duration": 17, "velocity": 56}, {"time": 535, "pitch": 48, "duration": 10, "velocity": 53}, {"time": 541, "pitch": 57, "duration": 18, "velocity": 67}, {"time": 547, "pitch": 53, "duration": 8, "velocity": 50}, {"time": 553, "pitch": 40, "duration": 15, "velocity": 66}, {"time": 559, "pitch": 52, "duration": 18, "velocity": 52}, {"time": 565, "pitch": 60, "duration": 13, "velocity": 71}, {"time": 571, "pitch": 57, "duration": 7, "velocity": 35}, {"time": 577, "pitch": 38, "duration": 18, "velocity": 70}, {"time": 583, "pitch": 45, "duration": 9, "velocity": 56}, {"time": 589, "pitch": 65, "duration": 13, "velocity": 78}, {"time": 595, "pitch": 62, "duration": 6, "velocity": 58}, {"time": 601, "pitch": 36, "duration": 14, "velocity": 65}, {"time": 607, "pitch": 43, "duration": 7, "velocity": 39}, {"time": 613, "pitch": 64, "duration": 13, "velocity": 82}, {"time": 619, "pitch": 60, "duration": 6, "velocity": 65}, {"time": 625, "pitch": 46, "duration": 18, "velocity": 75}, {"time": 631, "pitch": 53, "duration": 11, "velocity": 40}, {"time": 637, "pitch": 58, "duration": 5, "velocity": 43}, {"time": 637, "pitch": 65, "duration": 12, "velocity": 63}, {"time": 643, "pitch": 62, "duration": 6, "velocity": 49}, {"time": 649, "pitch": 45, "duration": 15, "velocity": 68}, {"time": 655, "pitch": 52, "duration": 8, "velocity": 49}, {"time": 661, "pitch": 64, "duration": 13, "velocity": 75}, {"time": 667, "pitch": 60, "duration": 7, "velocity": 56}, {"time": 673, "pitch": 43, "duration": 17, "velocity": 61}, {"time": 679, "pitch": 50, "duration": 9, "velocity": 56}, {"time": 685, "pitch": 62, "duration": 12, "velocity": 77}, {"time": 691, "pitch": 58, "duration": 6, "velocity": 48}, {"time": 697, "pitch": 36, "duration": 24, "velocity": 69}, {"time": 703, "pitch": 43, "duration": 16, "velocity": 47}, {"time": 709, "pitch": 64, "duration": 13, "velocity": 90}, {"time": 712, "pitch": 48, "duration": 9, "velocity": 52}, {"time": 715, "pitch": 60, "duration": 7, "velocity": 47}, {"time": 718, "pitch": 55, "duration": 5, "velocity": 40}, {"time": 721, "pitch": 38, "duration": 17, "velocity": 75}, {"time": 727, "pitch": 45, "duration": 11, "velocity": 65}, {"time": 733, "pitch": 50, "duration": 7, "velocity": 53}, {"time": 733, "pitch": 65, "duration": 12, "velocity": 78}, {"time": 739, "pitch": 62, "duration": 7, "velocity": 67}, {"time": 745, "pitch": 45, "duration": 15, "velocity": 69}, {"time": 751, "pitch": 52, "duration": 9, "velocity": 59}, {"time": 757, "pitch": 64, "duration": 12, "velocity": 89}, {"time": 763, "pitch": 60, "duration": 6, "velocity": 72}, {"time": 769, "pitch": 46, "duration": 17, "velocity": 75}, {"time": 775, "pitch": 58, "duration": 18, "velocity": 85}, {"time": 781, "pitch": 62, "duration": 13, "velocity": 70}, {"time": 787, "pitch": 65, "duration": 7, "velocity": 68}, {"time": 793, "pitch": 45, "duration": 15, "velocity": 69}, {"time": 799, "pitch": 52, "duration": 7, "velocity": 58}, {"time": 805, "pitch": 64, "duration": 13, "velocity": 97}, {"time": 811, "pitch": 60, "duration": 7, "velocity": 45}, {"time": 817, "pitch": 43, "duration": 15, "velocity": 70}, {"time": 823, "pitch": 50, "duration": 8, "velocity": 58}, {"time": 829, "pitch": 62, "duration": 12, "velocity": 99}, {"time": 835, "pitch": 58, "duration": 5, "velocity": 88}, {"time": 841, "pitch": 43, "duration": 24, "velocity": 75}, {"time": 847, "pitch": 50, "duration": 17, "velocity": 51}, {"time": 853, "pitch": 62, "duration": 13, "velocity": 83}, {"time": 859, "pitch": 58, "duration": 6, "velocity": 60}, {"time": 865, "pitch": 36, "duration": 10, "velocity": 63}, {"time": 871, "pitch": 43, "duration": 18, "velocity": 45}, {"time": 877, "pitch": 48, "duration": 13, "velocity": 30}, {"time": 877, "pitch": 64, "duration": 21, "velocity": 89}, {"time": 883, "pitch": 60, "duration": 15, "velocity": 56}, {"time": 889, "pitch": 36, "duration": 14, "velocity": 60}, {"time": 895, "pitch": 48, "duration": 16, "velocity": 61}, {"time": 901, "pitch": 64, "duration": 13, "velocity": 90}, {"time": 904, "pitch": 60, "duration": 10, "velocity": 58}, {"time": 907, "pitch": 55, "duration": 7, "velocity": 69}, {"time": 913, "pitch": 41, "duration": 23, "velocity": 79}, {"time": 919, "pitch": 48, "duration": 7, "velocity": 49}, {"time": 925, "pitch": 60, "duration": 12, "velocity": 93}, {"time": 931, "pitch": 57, "duration": 6, "velocity": 72}, {"time": 937, "pitch": 40, "duration": 17, "velocity": 72}, {"time": 943, "pitch": 52, "duration": 13, "velocity": 59}, {"time": 949, "pitch": 60, "duration": 11, "velocity": 90}, {"time": 955, "pitch": 57, "duration": 5, "velocity": 64}, {"time": 961, "pitch": 38, "duration": 14, "velocity": 82}, {"time": 967, "pitch": 45, "duration": 8, "velocity": 46}, {"time": 973, "pitch": 65, "duration": 12, "velocity": 93}, {"time": 979, "pitch": 62, "duration": 6, "velocity": 71}, {"time": 985, "pitch": 36, "duration": 13, "velocity": 86}, {"time": 991, "pitch": 43, "duration": 7, "velocity": 59}, {"time": 997, "pitch": 64, "duration": 12, "velocity": 81}, {"time": 1003, "pitch": 60, "duration": 6, "velocity": 69}, {"time": 1009, "pitch": 46, "duration": 15, "velocity": 61}, {"time": 1015, "pitch": 53, "duration": 9, "velocity": 66}, {"time": 1021, "pitch": 65, "duration": 13, "velocity": 79}, {"time": 1027, "pitch": 58, "duration": 7, "velocity": 85}, {"time": 1033, "pitch": 45, "duration": 17, "velocity": 72}, {"time": 1039, "pitch": 52, "duration": 10, "velocity": 72}, {"time": 1045, "pitch": 64, "duration": 13, "velocity": 93}, {"time": 1051, "pitch": 60, "duration": 6, "velocity": 79}, {"time": 1057, "pitch": 43, "duration": 16, "velocity": 73}, {"time": 1063, "pitch": 50, "duration": 9, "velocity": 56}, {"time": 1069, "pitch": 62, "duration": 13, "velocity": 96}, {"time": 1075, "pitch": 58, "duration": 6, "velocity": 51}, {"time": 1081, "pitch": 36, "duration": 16, "velocity": 70}, {"time": 1084, "pitch": 43, "duration": 14, "velocity": 58}, {"time": 1087, "pitch": 48, "duration": 6, "velocity": 75}, {"time": 1090, "pitch": 55, "duration": 15, "velocity": 74}, {"time": 1093, "pitch": 64, "duration": 13, "velocity": 92}, {"time": 1099, "pitch": 60, "duration": 6, "velocity": 79}, {"time": 1105, "pitch": 38, "duration": 14, "velocity": 76}, {"time": 1111, "pitch": 45, "duration": 8, "velocity": 58}, {"time": 1117, "pitch": 65, "duration": 12, "velocity": 97}, {"time": 1123, "pitch": 62, "duration": 7, "velocity": 63}, {"time": 1126, "pitch": 57, "duration": 1, "velocity": 32}, {"time": 1129, "pitch": 45, "duration": 15, "velocity": 74}, {"time": 1132, "pitch": 52, "duration": 12, "velocity": 78}, {"time": 1135, "pitch": 57, "duration": 19, "velocity": 56}, {"time": 1141, "pitch": 64, "duration": 11, "velocity": 92}, {"time": 1147, "pitch": 60, "duration": 5, "velocity": 62}, {"time": 1153, "pitch": 46, "duration": 16, "velocity": 78}, {"time": 1159, "pitch": 58, "duration": 7, "velocity": 85}, {"time": 1165, "pitch": 65, "duration": 13, "velocity": 70}, {"time": 1171, "pitch": 62, "duration": 6, "velocity": 70}, {"time": 1177, "pitch": 45, "duration": 15, "velocity": 71}, {"time": 1183, "pitch": 57, "duration": 18, "velocity": 75}, {"time": 1189, "pitch": 64, "duration": 12, "velocity": 95}, {"time": 1195, "pitch": 60, "duration": 6, "velocity": 75}, {"time": 1201, "pitch": 43, "duration": 15, "velocity": 77}, {"time": 1207, "pitch": 50, "duration": 8, "velocity": 56}, {"time": 1213, "pitch": 62, "duration": 12, "velocity": 93}, {"time": 1219, "pitch": 58, "duration": 5, "velocity": 52}, {"time": 1225, "pitch": 36, "duration": 13, "velocity": 77}, {"time": 1231, "pitch": 43, "duration": 7, "velocity": 59}, {"time": 1237, "pitch": 64, "duration": 12, "velocity": 89}, {"time": 1243, "pitch": 60, "duration": 7, "velocity": 59}, {"time": 1249, "pitch": 41, "duration": 22, "velocity": 75}, {"time": 1255, "pitch": 48, "duration": 18, "velocity": 66}, {"time": 1261, "pitch": 57, "duration": 13, "velocity": 97}, {"time": 1267, "pitch": 55, "duration": 6, "velocity": 72}, {"time": 1273, "pitch": 41, "duration": 22, "velocity": 89}, {"time": 1279, "pitch": 48, "duration": 7, "velocity": 74}, {"time": 1285, "pitch": 60, "duration": 12, "velocity": 117}, {"time": 1288, "pitch": 48, "duration": 9, "velocity": 85}, {"time": 1291, "pitch": 57, "duration": 6, "velocity": 107}, {"time": 1294, "pitch": 53, "duration": 3, "velocity": 93}, {"time": 1297, "pitch": 41, "duration": 22, "velocity": 90}, {"time": 1303, "pitch": 48, "duration": 17, "velocity": 34}, {"time": 1309, "pitch": 57, "duration": 11, "velocity": 95}, {"time": 1309, "pitch": 60, "duration": 10, "velocity": 90}, {"time": 1315, "pitch": 53, "duration": 5, "velocity": 68}, {"time": 1321, "pitch": 36, "duration": 17, "velocity": 72}, {"time": 1321, "pitch": 55, "duration": 13, "velocity": 81}, {"time": 1321, "pitch": 60, "duration": 11, "velocity": 82}, {"time": 1321, "pitch": 64, "duration": 11, "velocity": 76}, {"time": 1327, "pitch": 48, "duration": 7, "velocity": 47}, {"time": 1333, "pitch": 60, "duration": 12, "velocity": 97}, {"time": 1333, "pitch": 64, "duration": 12, "velocity": 92}, {"time": 1336, "pitch": 48, "duration": 3, "velocity": 63}, {"time": 1339, "pitch": 55, "duration": 5, "velocity": 97}, {"time": 1345, "pitch": 41, "duration": 17, "velocity": 85}, {"time": 1348, "pitch": 48, "duration": 13, "velocity": 86}, {"time": 1351, "pitch": 53, "duration": 7, "velocity": 89}, {"time": 1354, "pitch": 57, "duration": 5, "velocity": 89}, {"time": 1357, "pitch": 64, "duration": 11, "velocity": 112}, {"time": 1360, "pitch": 53, "duration": 5, "velocity": 92}, {"time": 1363, "pitch": 60, "duration": 5, "velocity": 95}, {"time": 1366, "pitch": 57, "duration": 3, "velocity": 88}, {"time": 1369, "pitch": 47, "duration": 18, "velocity": 71}, {"time": 1372, "pitch": 53, "duration": 10, "velocity": 56}, {"time": 1375, "pitch": 59, "duration": 4, "velocity": 85}, {"time": 1378, "pitch": 62, "duration": 3, "velocity": 92}, {"time": 1381, "pitch": 65, "duration": 10, "velocity": 107}, {"time": 1384, "pitch": 53, "duration": 2, "velocity": 34}, {"time": 1387, "pitch": 62, "duration": 4, "velocity": 92}, {"time": 1390, "pitch": 59, "duration": 3, "velocity": 82}, {"time": 1393, "pitch": 46, "duration": 22, "velocity": 96}, {"time": 1396, "pitch": 50, "duration": 21, "velocity": 65}, {"time": 1399, "pitch": 53, "duration": 7, "velocity": 75}, {"time": 1402, "pitch": 58, "duration": 15, "velocity": 82}, {"time": 1405, "pitch": 65, "duration": 13, "velocity": 83}, {"time": 1408, "pitch": 53, "duration": 8, "velocity": 69}, {"time": 1417, "pitch": 45, "duration": 19, "velocity": 63}, {"time": 1420, "pitch": 52, "duration": 10, "velocity": 53}, {"time": 1423, "pitch": 57, "duration": 5, "velocity": 59}, {"time": 1426, "pitch": 60, "duration": 3, "velocity": 76}, {"time": 1429, "pitch": 64, "duration": 12, "velocity": 93}, {"time": 1432, "pitch": 52, "duration": 3, "velocity": 59}, {"time": 1435, "pitch": 60, "duration": 6, "velocity": 86}, {"time": 1438, "pitch": 57, "duration": 3, "velocity": 96}, {"time": 1441, "pitch": 43, "duration": 21, "velocity": 77}, {"time": 1444, "pitch": 50, "duration": 9, "velocity": 66}, {"time": 1447, "pitch": 55, "duration": 6, "velocity": 67}, {"time": 1450, "pitch": 58, "duration": 3, "velocity": 79}, {"time": 1453, "pitch": 62, "duration": 12, "velocity": 96}, {"time": 1456, "pitch": 50, "duration": 9, "velocity": 69}, {"time": 1459, "pitch": 58, "duration": 6, "velocity": 96}, {"time": 1462, "pitch": 55, "duration": 3, "velocity": 86}, {"time": 1465, "pitch": 45, "duration": 17, "velocity": 81}, {"time": 1468, "pitch": 52, "duration": 10, "velocity": 73}, {"time": 1471, "pitch": 57, "duration": 6, "velocity": 72}, {"time": 1474, "pitch": 60, "duration": 3, "velocity": 89}, {"time": 1477, "pitch": 64, "duration": 10, "velocity": 112}, {"time": 1480, "pitch": 52, "duration": 2, "velocity": 67}, {"time": 1483, "pitch": 60, "duration": 4, "velocity": 100}, {"time": 1486, "pitch": 57, "duration": 2, "velocity": 96}, {"time": 1489, "pitch": 46, "duration": 15, "velocity": 81}, {"time": 1492, "pitch": 58, "duration": 4, "velocity": 88}, {"time": 1495, "pitch": 61, "duration": 7, "velocity": 65}, {"time": 1498, "pitch": 58, "duration": 4, "velocity": 71}, {"time": 1501, "pitch": 65, "duration": 11, "velocity": 74}, {"time": 1504, "pitch": 58, "duration": 4, "velocity": 92}, {"time": 1507, "pitch": 61, "duration": 4, "velocity": 73}, {"time": 1510, "pitch": 58, "duration": 2, "velocity": 97}, {"time": 1513, "pitch": 36, "duration": 17, "velocity": 77}, {"time": 1516, "pitch": 43, "duration": 14, "velocity": 71}, {"time": 1519, "pitch": 48, "duration": 7, "velocity": 89}, {"time": 1522, "pitch": 55, "duration": 5, "velocity": 99}, {"time": 1525, "pitch": 64, "duration": 12, "velocity": 122}, {"time": 1528, "pitch": 48, "duration": 3, "velocity": 100}, {"time": 1531, "pitch": 60, "duration": 6, "velocity": 122}, {"time": 1534, "pitch": 55, "duration": 3, "velocity": 112}, {"time": 1537, "pitch": 41, "duration": 16, "velocity": 81}, {"time": 1540, "pitch": 48, "duration": 13, "velocity": 78}, {"time": 1543, "pitch": 53, "duration": 7, "velocity": 93}, {"time": 1546, "pitch": 57, "duration": 2, "velocity": 107}, {"time": 1549, "pitch": 60, "duration": 7, "velocity": 117}, {"time": 1552, "pitch": 53, "duration": 3, "velocity": 99}, {"time": 1555, "pitch": 57, "duration": 4, "velocity": 117}, {"time": 1558, "pitch": 60, "duration": 3, "velocity": 102}, {"time": 1561, "pitch": 47, "duration": 18, "velocity": 74}, {"time": 1564, "pitch": 53, "duration": 10, "velocity": 81}, {"time": 1567, "pitch": 59, "duration": 5, "velocity": 78}, {"time": 1570, "pitch": 62, "duration": 3, "velocity": 89}, {"time": 1573, "pitch": 65, "duration": 11, "velocity": 112}, {"time": 1576, "pitch": 53, "duration": 2, "velocity": 72}, {"time": 1579, "pitch": 62, "duration": 5, "velocity": 99}, {"time": 1582, "pitch": 59, "duration": 3, "velocity": 81}, {"time": 1585, "pitch": 46, "duration": 20, "velocity": 88}, {"time": 1588, "pitch": 50, "duration": 13, "velocity": 58}, {"time": 1591, "pitch": 53, "duration": 7, "velocity": 75}, {"time": 1594, "pitch": 58, "duration": 3, "velocity": 90}, {"time": 1597, "pitch": 65, "duration": 14, "velocity": 92}, {"time": 1600, "pitch": 53, "duration": 9, "velocity": 81}, {"time": 1603, "pitch": 58, "duration": 3, "velocity": 93}, {"time": 1606, "pitch": 62, "duration": 2, "velocity": 82}, {"time": 1609, "pitch": 46, "duration": 23, "velocity": 82}, {"time": 1612, "pitch": 49, "duration": 21, "velocity": 70}, {"time": 1615, "pitch": 53, "duration": 7, "velocity": 81}, {"time": 1618, "pitch": 58, "duration": 4, "velocity": 88}, {"time": 1621, "pitch": 61, "duration": 7, "velocity": 102}, {"time": 1624, "pitch": 53, "duration": 9, "velocity": 79}, {"time": 1627, "pitch": 58, "duration": 6, "velocity": 88}, {"time": 1630, "pitch": 61, "duration": 3, "velocity": 100}, {"time": 1633, "pitch": 45, "duration": 17, "velocity": 77}, {"time": 1636, "pitch": 52, "duration": 10, "velocity": 71}, {"time": 1639, "pitch": 57, "duration": 6, "velocity": 70}, {"time": 1642, "pitch": 60, "duration": 3, "velocity": 82}, {"time": 1645, "pitch": 64, "duration": 10, "velocity": 99}, {"time": 1648, "pitch": 52, "duration": 2, "velocity": 71}, {"time": 1651, "pitch": 60, "duration": 4, "velocity": 122}, {"time": 1654, "pitch": 57, "duration": 4, "velocity": 96}, {"time": 1657, "pitch": 38, "duration": 16, "velocity": 85}, {"time": 1660, "pitch": 45, "duration": 14, "velocity": 62}, {"time": 1663, "pitch": 50, "duration": 7, "velocity": 89}, {"time": 1666, "pitch": 57, "duration": 4, "velocity": 88}, {"time": 1669, "pitch": 65, "duration": 11, "velocity": 112}, {"time": 1672, "pitch": 50, "duration": 4, "velocity": 88}, {"time": 1675, "pitch": 62, "duration": 5, "velocity": 93}, {"time": 1678, "pitch": 57, "duration": 3, "velocity": 88}, {"time": 1681, "pitch": 43, "duration": 17, "velocity": 82}, {"time": 1684, "pitch": 50, "duration": 10, "velocity": 78}, {"time": 1687, "pitch": 55, "duration": 7, "velocity": 70}, {"time": 1690, "pitch": 58, "duration": 2, "velocity": 89}, {"time": 1693, "pitch": 62, "duration": 11, "velocity": 99}, {"time": 1696, "pitch": 50, "duration": 2, "velocity": 81}, {"time": 1699, "pitch": 58, "duration": 5, "velocity": 85}, {"time": 1702, "pitch": 55, "duration": 3, "velocity": 52}, {"time": 1705, "pitch": 36, "duration": 14, "velocity": 85}, {"time": 1708, "pitch": 43, "duration": 12, "velocity": 48}, {"time": 1711, "pitch": 48, "duration": 12, "velocity": 74}, {"time": 1714, "pitch": 55, "duration": 16, "velocity": 69}, {"time": 1717, "pitch": 64, "duration": 13, "velocity": 92}, {"time": 1723, "pitch": 60, "duration": 6, "velocity": 66}, {"time": 1729, "pitch": 41, "duration": 23, "velocity": 77}, {"time": 1735, "pitch": 48, "duration": 19, "velocity": 49}, {"time": 1741, "pitch": 60, "duration": 21, "velocity": 95}, {"time": 1747, "pitch": 57, "duration": 17, "velocity": 62}, {"time": 1753, "pitch": 41, "duration": 16, "velocity": 63}, {"time": 1759, "pitch": 48, "duration": 11, "velocity": 52}, {"time": 1765, "pitch": 60, "duration": 13, "velocity": 88}, {"time": 1771, "pitch": 57, "duration": 6, "velocity": 70}, {"time": 1777, "pitch": 47, "duration": 18, "velocity": 72}, {"time": 1783, "pitch": 59, "duration": 18, "velocity": 62}, {"time": 1789, "pitch": 65, "duration": 12, "velocity": 89}, {"time": 1795, "pitch": 62, "duration": 5, "velocity": 50}, {"time": 1801, "pitch": 47, "duration": 14, "velocity": 78}, {"time": 1807, "pitch": 53, "duration": 8, "velocity": 58}, {"time": 1813, "pitch": 65, "duration": 9, "velocity": 96}, {"time": 1819, "pitch": 59, "duration": 6, "velocity": 66}, {"time": 1825, "pitch": 46, "duration": 22, "velocity": 76}, {"time": 1831, "pitch": 58, "duration": 7, "velocity": 81}, {"time": 1837, "pitch": 65, "duration": 15, "velocity": 82}, {"time": 1843, "pitch": 58, "duration": 6, "velocity": 96}, {"time": 1849, "pitch": 46, "duration": 15, "velocity": 78}, {"time": 1855, "pitch": 50, "duration": 8, "velocity": 40}, {"time": 1861, "pitch": 58, "duration": 13, "velocity": 99}, {"time": 1867, "pitch": 65, "duration": 7, "velocity": 82}, {"time": 1873, "pitch": 41, "duration": 21, "velocity": 92}, {"time": 1879, "pitch": 48, "duration": 19, "velocity": 52}, {"time": 1885, "pitch": 53, "duration": 3, "velocity": 53}, {"time": 1885, "pitch": 60, "duration": 22, "velocity": 107}, {"time": 1891, "pitch": 57, "duration": 16, "velocity": 67}, {"time": 1897, "pitch": 41, "duration": 17, "velocity": 70}, {"time": 1903, "pitch": 48, "duration": 7, "velocity": 53}, {"time": 1909, "pitch": 60, "duration": 12, "velocity": 117}, {"time": 1912, "pitch": 48, "duration": 2, "velocity": 69}, {"time": 1915, "pitch": 57, "duration": 6, "velocity": 93}, {"time": 1918, "pitch": 53, "duration": 3, "velocity": 85}, {"time": 1921, "pitch": 38, "duration": 22, "velocity": 88}, {"time": 1924, "pitch": 45, "duration": 21, "velocity": 71}, {"time": 1927, "pitch": 50, "duration": 7, "velocity": 89}, {"time": 1930, "pitch": 57, "duration": 5, "velocity": 86}, {"time": 1933, "pitch": 65, "duration": 19, "velocity": 107}, {"time": 1936, "pitch": 50, "duration": 4, "velocity": 89}, {"time": 1939, "pitch": 62, "duration": 13, "velocity": 86}, {"time": 1942, "pitch": 57, "duration": 9, "velocity": 83}, {"time": 1945, "pitch": 38, "duration": 15, "velocity": 70}, {"time": 1948, "pitch": 45, "duration": 11, "velocity": 76}, {"time": 1951, "pitch": 50, "duration": 7, "velocity": 90}, {"time": 1954, "pitch": 57, "duration": 5, "velocity": 79}, {"time": 1957, "pitch": 65, "duration": 12, "velocity": 112}, {"time": 1960, "pitch": 50, "duration": 2, "velocity": 64}, {"time": 1963, "pitch": 62, "duration": 6, "velocity": 89}, {"time": 1966, "pitch": 57, "duration": 3, "velocity": 93}, {"time": 1969, "pitch": 47, "duration": 23, "velocity": 96}, {"time": 1972, "pitch": 50, "duration": 21, "velocity": 85}, {"time": 1975, "pitch": 53, "duration": 6, "velocity": 92}, {"time": 1978, "pitch": 59, "duration": 5, "velocity": 89}, {"time": 1981, "pitch": 65, "duration": 23, "velocity": 112}, {"time": 1984, "pitch": 53, "duration": 23, "velocity": 93}, {"time": 1987, "pitch": 62, "duration": 17, "velocity": 78}, {"time": 1990, "pitch": 59, "duration": 20, "velocity": 93}, {"time": 1993, "pitch": 47, "duration": 17, "velocity": 74}, {"time": 1999, "pitch": 50, "duration": 11, "velocity": 43}, {"time": 2005, "pitch": 62, "duration": 1, "velocity": 59}, {"time": 2005, "pitch": 65, "duration": 12, "velocity": 95}, {"time": 2011, "pitch": 59, "duration": 7, "velocity": 78}, {"time": 2017, "pitch": 46, "duration": 22, "velocity": 96}, {"time": 2020, "pitch": 50, "duration": 21, "velocity": 49}, {"time": 2023, "pitch": 53, "duration": 7, "velocity": 88}, {"time": 2026, "pitch": 58, "duration": 4, "velocity": 89}, {"time": 2029, "pitch": 65, "duration": 36, "velocity": 96}, {"time": 2032, "pitch": 53, "duration": 9, "velocity": 85}, {"time": 2035, "pitch": 58, "duration": 15, "velocity": 92}, {"time": 2038, "pitch": 57, "duration": 3, "velocity": 73}, {"time": 2041, "pitch": 46, "duration": 17, "velocity": 86}, {"time": 2044, "pitch": 50, "duration": 13, "velocity": 52}, {"time": 2047, "pitch": 53, "duration": 10, "velocity": 86}, {"time": 2050, "pitch": 57, "duration": 5, "velocity": 66}, {"time": 2053, "pitch": 62, "duration": 12, "velocity": 69}, {"time": 2065, "pitch": 41, "duration": 23, "velocity": 85}, {"time": 2068, "pitch": 48, "duration": 10, "velocity": 59}, {"time": 2071, "pitch": 53, "duration": 6, "velocity": 86}, {"time": 2074, "pitch": 57, "duration": 3, "velocity": 85}, {"time": 2077, "pitch": 60, "duration": 37, "velocity": 92}, {"time": 2080, "pitch": 48, "duration": 9, "velocity": 52}, {"time": 2083, "pitch": 57, "duration": 31, "velocity": 86}, {"time": 2089, "pitch": 41, "duration": 25, "velocity": 64}, {"time": 2089, "pitch": 53, "duration": 25, "velocity": 75}, {"time": 2113, "pitch": 41, "duration": 1, "velocity": 56}, {"time": 2119, "pitch": 48, "duration": 10, "velocity": 53}, {"time": 2125, "pitch": 57, "duration": 18, "velocity": 67}, {"time": 2131, "pitch": 53, "duration": 8, "velocity": 50}, {"time": 2137, "pitch": 40, "duration": 15, "velocity": 66}, {"time": 2143, "pitch": 52, "duration": 18, "velocity": 52}, {"time": 2149, "pitch": 60, "duration": 13, "velocity": 71}, {"time": 2155, "pitch": 57, "duration": 7, "velocity": 35}, {"time": 2161, "pitch": 38, "duration": 18, "velocity": 70}, {"time": 2167, "pitch": 45, "duration": 9, "velocity": 56}, {"time": 2173, "pitch": 65, "duration": 13, "velocity": 78}, {"time": 2179, "pitch": 62, "duration": 6, "velocity": 58}, {"time": 2185, "pitch": 36, "duration": 14, "velocity": 65}, {"time": 2191, "pitch": 43, "duration": 7, "velocity": 39}, {"time": 2197, "pitch": 64, "duration": 13, "velocity": 82}, {"time": 2203, "pitch": 60, "duration": 6, "velocity": 65}, {"time": 2209, "pitch": 46, "duration": 18, "velocity": 75}, {"time": 2215, "pitch": 53, "duration": 11, "velocity": 40}, {"time": 2221, "pitch": 58, "duration": 5, "velocity": 43}, {"time": 2221, "pitch": 65, "duration": 12, "velocity": 63}, {"time": 2227, "pitch": 62, "duration": 6, "velocity": 49}, {"time": 2233, "pitch": 45, "duration": 15, "velocity": 68}, {"time": 2239, "pitch": 52, "duration": 8, "velocity": 49}, {"time": 2245, "pitch": 64, "duration": 13, "velocity": 75}, {"time": 2251, "pitch": 60, "duration": 7, "velocity": 56}, {"time": 2257, "pitch": 43, "duration": 17, "velocity": 61}, {"time": 2263, "pitch": 50, "duration": 9, "velocity": 56}, {"time": 2269, "pitch": 62, "duration": 12, "velocity": 77}, {"time": 2275, "pitch": 58, "duration": 6, "velocity": 48}, {"time": 2281, "pitch": 36, "duration": 24, "velocity": 69}, {"time": 2287, "pitch": 43, "duration": 16, "velocity": 47}, {"time": 2293, "pitch": 64, "duration": 13, "velocity": 90}, {"time": 2296, "pitch": 48, "duration": 9, "velocity": 52}, {"time": 2299, "pitch": 60, "duration": 7, "velocity": 47}, {"time": 2302, "pitch": 55, "duration": 5, "velocity": 40}, {"time": 2305, "pitch": 38, "duration": 17, "velocity": 75}, {"time": 2311, "pitch": 45, "duration": 11, "velocity": 65}, {"time": 2317, "pitch": 50, "duration": 7, "velocity": 53}, {"time": 2317, "pitch": 65, "duration": 12, "velocity": 78}, {"time": 2323, "pitch": 62, "duration": 7, "velocity": 67}, {"time": 2329, "pitch": 45, "duration": 15, "velocity": 69}, {"time": 2335, "pitch": 52, "duration": 9, "velocity": 59}, {"time": 2341, "pitch": 64, "duration": 12, "velocity": 89}, {"time": 2347, "pitch": 60, "duration": 6, "velocity": 72}, {"time": 2353, "pitch": 46, "duration": 17, "velocity": 75}, {"time": 2359, "pitch": 58, "duration": 18, "velocity": 85}, {"time": 2365, "pitch": 62, "duration": 13, "velocity": 70}, {"time": 2371, "pitch": 65, "duration": 7, "velocity": 68}, {"time": 2377, "pitch": 45, "duration": 15, "velocity": 69}, {"time": 2383, "pitch": 52, "duration": 7, "velocity": 58}, {"time": 2389, "pitch": 64, "duration": 13, "velocity": 97}, {"time": 2395, "pitch": 60, "duration": 7, "velocity": 45}, {"time": 2401, "pitch": 43, "duration": 15, "velocity": 70}, {"time": 2407, "pitch": 50, "duration": 8, "velocity": 58}, {"time": 2413, "pitch": 62, "duration": 12, "velocity": 99}, {"time": 2419, "pitch": 58, "duration": 5, "velocity": 88}, {"time": 2425, "pitch": 43, "duration": 24, "velocity": 75}, {"time": 2431, "pitch": 50, "duration": 17, "velocity": 51}, {"time": 2437, "pitch": 62, "duration": 13, "velocity": 83}, {"time": 2443, "pitch": 58, "duration": 6, "velocity": 60}, {"time": 2449, "pitch": 36, "duration": 10, "velocity": 63}, {"time": 2455, "pitch": 43, "duration": 18, "velocity": 45}, {"time": 2461, "pitch": 48, "duration": 13, "velocity": 30}, {"time": 2461, "pitch": 64, "duration": 21, "velocity": 89}, {"time": 2467, "pitch": 60, "duration": 15, "velocity": 56}, {"time": 2473, "pitch": 36, "duration": 14, "velocity": 60}, {"time": 2479, "pitch": 48, "duration": 16, "velocity": 61}, {"time": 2485, "pitch": 64, "duration": 13, "velocity": 90}, {"time": 2488, "pitch": 60, "duration": 10, "velocity": 58}, {"time": 2491, "pitch": 55, "duration": 7, "velocity": 69}, {"time": 2497, "pitch": 41, "duration": 23, "velocity": 79}, {"time": 2503, "pitch": 48, "duration": 7, "velocity": 49}, {"time": 2509, "pitch": 60, "duration": 12, "velocity": 93}, {"time": 2515, "pitch": 57, "duration": 6, "velocity": 72}, {"time": 2521, "pitch": 40, "duration": 17, "velocity": 72}, {"time": 2527, "pitch": 52, "duration": 13, "velocity": 59}, {"time": 2533, "pitch": 60, "duration": 11, "velocity": 90}, {"time": 2539, "pitch": 57, "duration": 5, "velocity": 64}, {"time": 2545, "pitch": 38, "duration": 14, "velocity": 82}, {"time": 2551, "pitch": 45, "duration": 8, "velocity": 46}, {"time": 2557, "pitch": 65, "duration": 12, "velocity": 93}, {"time": 2563, "pitch": 62, "duration": 6, "velocity": 71}, {"time": 2569, "pitch": 36, "duration": 13, "velocity": 86}, {"time": 2575, "pitch": 43, "duration": 7, "velocity": 59}, {"time": 2581, "pitch": 64, "duration": 12, "velocity": 81}, {"time": 2587, "pitch": 60, "duration": 6, "velocity": 69}, {"time": 2593, "pitch": 46, "duration": 15, "velocity": 61}, {"time": 2599, "pitch": 53, "duration": 9, "velocity": 66}, {"time": 2605, "pitch": 65, "duration": 13, "velocity": 79}, {"time": 2611, "pitch": 58, "duration": 7, "velocity": 85}, {"time": 2617, "pitch": 45, "duration": 17, "velocity": 72}, {"time": 2623, "pitch": 52, "duration": 10, "velocity": 72}, {"time": 2629, "pitch": 64, "duration": 13, "velocity": 93}, {"time": 2635, "pitch": 60, "duration": 6, "velocity": 79}, {"time": 2641, "pitch": 43, "duration": 16, "velocity": 73}, {"time": 2647, "pitch": 50, "duration": 9, "velocity": 56}, {"time": 2653, "pitch": 62, "duration": 13, "velocity": 96}, {"time": 2659, "pitch": 58, "duration": 6, "velocity": 51}, {"time": 2665, "pitch": 36, "duration": 16, "velocity": 70}, {"time": 2668, "pitch": 43, "duration": 14, "velocity": 58}, {"time": 2671, "pitch": 48, "duration": 6, "velocity": 75}, {"time": 2674, "pitch": 55, "duration": 15, "velocity": 74}, {"time": 2677, "pitch": 64, "duration": 13, "velocity": 92}, {"time": 2683, "pitch": 60, "duration": 6, "velocity": 79}, {"time": 2689, "pitch": 38, "duration": 14, "velocity": 76}, {"time": 2695, "pitch": 45, "duration": 8, "velocity": 58}, {"time": 2701, "pitch": 65, "duration": 12, "velocity": 97}, {"time": 2707, "pitch": 62, "duration": 7, "velocity": 63}, {"time": 2710, "pitch": 57, "duration": 1, "velocity": 32}, {"time": 2713, "pitch": 45, "duration": 15, "velocity": 74}, {"time": 2716, "pitch": 52, "duration": 12, "velocity": 78}, {"time": 2719, "pitch": 57, "duration": 19, "velocity": 56}, {"time": 2725, "pitch": 64, "duration": 11, "velocity": 92}, {"time": 2731, "pitch": 60, "duration": 5, "velocity": 62}, {"time": 2737, "pitch": 46, "duration": 16, "velocity": 78}, {"time": 2743, "pitch": 58, "duration": 7, "velocity": 85}, {"time": 2749, "pitch": 65, "duration": 13, "velocity": 70}, {"time": 2755, "pitch": 62, "duration": 6, "velocity": 70}, {"time": 2761, "pitch": 45, "duration": 15, "velocity": 71}, {"time": 2767, "pitch": 57, "duration": 18, "velocity": 75}, {"time": 2773, "pitch": 64, "duration": 12, "velocity": 95}, {"time": 2779, "pitch": 60, "duration": 6, "velocity": 75}, {"time": 2785, "pitch": 43, "duration": 15, "velocity": 77}, {"time": 2791, "pitch": 50, "duration": 8, "velocity": 56}, {"time": 2797, "pitch": 62, "duration": 12, "velocity": 93}, {"time": 2803, "pitch": 58, "duration": 5, "velocity": 52}, {"time": 2809, "pitch": 36, "duration": 13, "velocity": 77}, {"time": 2815, "pitch": 43, "duration": 7, "velocity": 59}, {"time": 2821, "pitch": 64, "duration": 12, "velocity": 89}, {"time": 2827, "pitch": 60, "duration": 7, "velocity": 59}, {"time": 2833, "pitch": 41, "duration": 22, "velocity": 75}, {"time": 2839, "pitch": 48, "duration": 18, "velocity": 66}, {"time": 2845, "pitch": 57, "duration": 13, "velocity": 97}, {"time": 2851, "pitch": 55, "duration": 6, "velocity": 72}, {"time": 2857, "pitch": 41, "duration": 22, "velocity": 89}, {"time": 2863, "pitch": 48, "duration": 7, "velocity": 74}, {"time": 2869, "pitch": 60, "duration": 12, "velocity": 117}, {"time": 2872, "pitch": 48, "duration": 9, "velocity": 85}, {"time": 2875, "pitch": 57, "duration": 6, "velocity": 107}, {"time": 2878, "pitch": 53, "duration": 3, "velocity": 93}, {"time": 2881, "pitch": 41, "duration": 22, "velocity": 90}, {"time": 2887, "pitch": 48, "duration": 17, "velocity": 34}, {"time": 2893, "pitch": 57, "duration": 11, "velocity": 95}, {"time": 2893, "pitch": 60, "duration": 10, "velocity": 90}, {"time": 2899, "pitch": 53, "duration": 5, "velocity": 68}, {"time": 2905, "pitch": 36, "duration": 17, "velocity": 72}, {"time": 2905, "pitch": 55, "duration": 13, "velocity": 81}, {"time": 2905, "pitch": 60, "duration": 11, "velocity": 82}, {"time": 2905, "pitch": 64, "duration": 11, "velocity": 76}, {"time": 2911, "pitch": 48, "duration": 7, "velocity": 47}, {"time": 2917, "pitch": 60, "duration": 12, "velocity": 97}, {"time": 2917, "pitch": 64, "duration": 12, "velocity": 92}, {"time": 2920, "pitch": 48, "duration": 3, "velocity": 63}, {"time": 2923, "pitch": 55, "duration": 5, "velocity": 97}, {"time": 2929, "pitch": 41, "duration": 17, "velocity": 85}, {"time": 2932, "pitch": 48, "duration": 13, "velocity": 86}, {"time": 2935, "pitch": 53, "duration": 7, "velocity": 89}, {"time": 2938, "pitch": 57, "duration": 5, "velocity": 89}, {"time": 2941, "pitch": 64, "duration": 11, "velocity": 112}, {"time": 2944, "pitch": 53, "duration": 5, "velocity": 92}, {"time": 2947, "pitch": 60, "duration": 5, "velocity": 95}, {"time": 2950, "pitch": 57, "duration": 3, "velocity": 88}, {"time": 2953, "pitch": 47, "duration": 18, "velocity": 71}, {"time": 2956, "pitch": 53, "duration": 10, "velocity": 56}, {"time": 2959, "pitch": 59, "duration": 4, "velocity": 85}, {"time": 2962, "pitch": 62, "duration": 3, "velocity": 92}, {"time": 2965, "pitch": 65, "duration": 10, "velocity": 107}, {"time": 2968, "pitch": 53, "duration": 2, "velocity": 34}, {"time": 2971, "pitch": 62, "duration": 4, "velocity": 92}, {"time": 2974, "pitch": 59, "duration": 3, "velocity": 82}, {"time": 2977, "pitch": 46, "duration": 22, "velocity": 96}, {"time": 2980, "pitch": 50, "duration": 21, "velocity": 65}, {"time": 2983, "pitch": 53, "duration": 7, "velocity": 75}, {"time": 2986, "pitch": 58, "duration": 15, "velocity": 82}, {"time": 2989, "pitch": 65, "duration": 13, "velocity": 83}, {"time": 2992, "pitch": 53, "duration": 8, "velocity": 69}, {"time": 3001, "pitch": 45, "duration": 19, "velocity": 63}, {"time": 3004, "pitch": 52, "duration": 10, "velocity": 53}, {"time": 3007, "pitch": 57, "duration": 5, "velocity": 59}, {"time": 3010, "pitch": 60, "duration": 3, "velocity": 76}, {"time": 3013, "pitch": 64, "duration": 12, "velocity": 93}, {"time": 3016, "pitch": 52, "duration": 3, "velocity": 59}, {"time": 3019, "pitch": 60, "duration": 6, "velocity": 86}, {"time": 3022, "pitch": 57, "duration": 3, "velocity": 96}, {"time": 3025, "pitch": 43, "duration": 21, "velocity": 77}, {"time": 3028, "pitch": 50, "duration": 9, "velocity": 66}, {"time": 3031, "pitch": 55, "duration": 6, "velocity": 67}, {"time": 3034, "pitch": 58, "duration": 3, "velocity": 79}, {"time": 3037, "pitch": 62, "duration": 12, "velocity": 96}, {"time": 3040, "pitch": 50, "duration": 9, "velocity": 69}, {"time": 3043, "pitch": 58, "duration": 6, "velocity": 96}, {"time": 3046, "pitch": 55, "duration": 3, "velocity": 86}, {"time": 3049, "pitch": 45, "duration": 17, "velocity": 81}, {"time": 3052, "pitch": 52, "duration": 10, "velocity": 73}, {"time": 3055, "pitch": 57, "duration": 6, "velocity": 72}, {"time": 3058, "pitch": 60, "duration": 3, "velocity": 89}, {"time": 3061, "pitch": 64, "duration": 10, "velocity": 112}, {"time": 3064, "pitch": 52, "duration": 2, "velocity": 67}, {"time": 3067, "pitch": 60, "duration": 4, "velocity": 100}, {"time": 3070, "pitch": 57, "duration": 2, "velocity": 96}, {"time": 3073, "pitch": 46, "duration": 15, "velocity": 81}, {"time": 3076, "pitch": 58, "duration": 4, "velocity": 88}, {"time": 3079, "pitch": 61, "duration": 7, "velocity": 65}, {"time": 3082, "pitch": 58, "duration": 4, "velocity": 71}, {"time": 3085, "pitch": 65, "duration": 11, "velocity": 74}, {"time": 3088, "pitch": 58, "duration": 4, "velocity": 92}, {"time": 3091, "pitch": 61, "duration": 4, "velocity": 73}, {"time": 3094, "pitch": 58, "duration": 2, "velocity": 97}, {"time": 3097, "pitch": 36, "duration": 17, "velocity": 77}, {"time": 3100, "pitch": 43, "duration": 14, "velocity": 71}, {"time": 3103, "pitch": 48, "duration": 7, "velocity": 89}, {"time": 3106, "pitch": 55, "duration": 5, "velocity": 99}, {"time": 3109, "pitch": 64, "duration": 12, "velocity": 122}, {"time": 3112, "pitch": 48, "duration": 3, "velocity": 100}, {"time": 3115, "pitch": 60, "duration": 6, "velocity": 122}, {"time": 3118, "pitch": 55, "duration": 3, "velocity": 112}, {"time": 3121, "pitch": 41, "duration": 16, "velocity": 81}, {"time": 3124, "pitch": 48, "duration": 13, "velocity": 78}, {"time": 3127, "pitch": 53, "duration": 7, "velocity": 93}, {"time": 3130, "pitch": 57, "duration": 2, "velocity": 107}, {"time": 3133, "pitch": 60, "duration": 7, "velocity": 117}, {"time": 3136, "pitch": 53, "duration": 3, "velocity": 99}, {"time": 3139, "pitch": 57, "duration": 4, "velocity": 117}, {"time": 3142, "pitch": 60, "duration": 3, "velocity": 102}, {"time": 3145, "pitch": 47, "duration": 18, "velocity": 74}, {"time": 3148, "pitch": 53, "duration": 10, "velocity": 81}, {"time": 3151, "pitch": 59, "duration": 5, "velocity": 78}, {"time": 3154, "pitch": 62, "duration": 3, "velocity": 89}, {"time": 3157, "pitch": 65, "duration": 11, "velocity": 112}, {"time": 3160, "pitch": 53, "duration": 2, "velocity": 72}, {"time": 3163, "pitch": 62, "duration": 5, "velocity": 99}, {"time": 3166, "pitch": 59, "duration": 3, "velocity": 81}, {"time": 3169, "pitch": 46, "duration": 20, "velocity": 88}, {"time": 3172, "pitch": 50, "duration": 13, "velocity": 58}, {"time": 3175, "pitch": 53, "duration": 7, "velocity": 75}, {"time": 3178, "pitch": 58, "duration": 3, "velocity": 90}, {"time": 3181, "pitch": 65, "duration": 14, "velocity": 92}, {"time": 3184, "pitch": 53, "duration": 9, "velocity": 81}, {"time": 3187, "pitch": 58, "duration": 3, "velocity": 93}, {"time": 3190, "pitch": 62, "duration": 2, "velocity": 82}, {"time": 3193, "pitch": 46, "duration": 23, "velocity": 82}, {"time": 3196, "pitch": 49, "duration": 21, "velocity": 70}, {"time": 3199, "pitch": 53, "duration": 7, "velocity": 81}, {"time": 3202, "pitch": 58, "duration": 4, "velocity": 88}, {"time": 3205, "pitch": 61, "duration": 7, "velocity": 102}, {"time": 3208, "pitch": 53, "duration": 9, "velocity": 79}, {"time": 3211, "pitch": 58, "duration": 6, "velocity": 88}, {"time": 3214, "pitch": 61, "duration": 3, "velocity": 100}, {"time": 3217, "pitch": 45, "duration": 17, "velocity": 77}, {"time": 3220, "pitch": 52, "duration": 10, "velocity": 71}, {"time": 3223, "pitch": 57, "duration": 6, "velocity": 70}, {"time": 3226, "pitch": 60, "duration": 3, "velocity": 82}, {"time": 3229, "pitch": 64, "duration": 10, "velocity": 99}, {"time": 3232, "pitch": 52, "duration": 2, "velocity": 71}, {"time": 3235, "pitch": 60, "duration": 4, "velocity": 122}, {"time": 3238, "pitch": 57, "duration": 4, "velocity": 96}, {"time": 3241, "pitch": 38, "duration": 16, "velocity": 85}, {"time": 3244, "pitch": 45, "duration": 14, "velocity": 62}, {"time": 3247, "pitch": 50, "duration": 7, "velocity": 89}, {"time": 3250, "pitch": 57, "duration": 4, "velocity": 88}, {"time": 3253, "pitch": 65, "duration": 11, "velocity": 112}, {"time": 3256, "pitch": 50, "duration": 4, "velocity": 88}, {"time": 3259, "pitch": 62, "duration": 5, "velocity": 93}, {"time": 3262, "pitch": 57, "duration": 3, "velocity": 88}, {"time": 3265, "pitch": 43, "duration": 17, "velocity": 82}, {"time": 3268, "pitch": 50, "duration": 10, "velocity": 78}, {"time": 3271, "pitch": 55, "duration": 7, "velocity": 70}, {"time": 3274, "pitch": 58, "duration": 2, "velocity": 89}, {"time": 3277, "pitch": 62, "duration": 11, "velocity": 99}, {"time": 3280, "pitch": 50, "duration": 2, "velocity": 81}, {"time": 3283, "pitch": 58, "duration": 5, "velocity": 85}, {"time": 3286, "pitch": 55, "duration": 3, "velocity": 52}, {"time": 3289, "pitch": 36, "duration": 14, "velocity": 85}, {"time": 3292, "pitch": 43, "duration": 12, "velocity": 48}, {"time": 3295, "pitch": 48, "duration": 12, "velocity": 74}, {"time": 3298, "pitch": 55, "duration": 15, "velocity": 69}, {"time": 3301, "pitch": 64, "duration": 12, "velocity": 92}, {"time": 3307, "pitch": 60, "duration": 6, "velocity": 66}, {"time": 3313, "pitch": 41, "duration": 13, "velocity": 89}, {"time": 3319, "pitch": 48, "duration": 7, "velocity": 77}, {"time": 3325, "pitch": 65, "duration": 6, "velocity": 93}, {"time": 3331, "pitch": 69, "duration": 2, "velocity": 73}, {"time": 3337, "pitch": 38, "duration": 20, "velocity": 97}, {"time": 3337, "pitch": 57, "duration": 9, "velocity": 93}, {"time": 3337, "pitch": 62, "duration": 10, "velocity": 112}, {"time": 3337, "pitch": 67, "duration": 10, "velocity": 117}, {"time": 3343, "pitch": 45, "duration": 13, "velocity": 56}, {"time": 3349, "pitch": 50, "duration": 4, "velocity": 85}, {"time": 3349, "pitch": 62, "duration": 11, "velocity": 117}, {"time": 3349, "pitch": 66, "duration": 12, "velocity": 127}, {"time": 3355, "pitch": 57, "duration": 5, "velocity": 90}, {"time": 3361, "pitch": 43, "duration": 17, "velocity": 85}, {"time": 3364, "pitch": 50, "duration": 13, "velocity": 86}, {"time": 3367, "pitch": 55, "duration": 7, "velocity": 89}, {"time": 3370, "pitch": 59, "duration": 5, "velocity": 89}, {"time": 3373, "pitch": 66, "duration": 11, "velocity": 112}, {"time": 3376, "pitch": 55, "duration": 5, "velocity": 92}, {"time": 3379, "pitch": 62, "duration": 5, "velocity": 95}, {"time": 3382, "pitch": 59, "duration": 3, "velocity": 88}, {"time": 3385, "pitch": 49, "duration": 18, "velocity": 71}, {"time": 3388, "pitch": 55, "duration": 10, "velocity": 56}, {"time": 3391, "pitch": 61, "duration": 4, "velocity": 85}, {"time": 3394, "pitch": 64, "duration": 3, "velocity": 92}, {"time": 3397, "pitch": 67, "duration": 10, "velocity": 107}, {"time": 3400, "pitch": 55, "duration": 2, "velocity": 34}, {"time": 3403, "pitch": 64, "duration": 4, "velocity": 92}, {"time": 3406, "pitch": 61, "duration": 3, "velocity": 82}, {"time": 3409, "pitch": 48, "duration": 22, "velocity": 96}, {"time": 3412, "pitch": 52, "duration": 21, "velocity": 65}, {"time": 3415, "pitch": 55, "duration": 7, "velocity": 75}, {"time": 3418, "pitch": 60, "duration": 15, "velocity": 82}, {"time": 3421, "pitch": 67, "duration": 13, "velocity": 83}, {"time": 3424, "pitch": 55, "duration": 8, "velocity": 69}, {"time": 3433, "pitch": 47, "duration": 19, "velocity": 63}, {"time": 3436, "pitch": 54, "duration": 10, "velocity": 53}, {"time": 3439, "pitch": 59, "duration": 5, "velocity": 59}, {"time": 3442, "pitch": 62, "duration": 3, "velocity": 76}, {"time": 3445, "pitch": 66, "duration": 12, "velocity": 93}, {"time": 3448, "pitch": 54, "duration": 3, "velocity": 59}, {"time": 3451, "pitch": 62, "duration": 6, "velocity": 86}, {"time": 3454, "pitch": 59, "duration": 3, "velocity": 96}, {"time": 3457, "pitch": 45, "duration": 21, "velocity": 77}, {"time": 3460, "pitch": 52, "duration": 9, "velocity": 66}, {"time": 3463, "pitch": 57, "duration": 6, "velocity": 67}, {"time": 3466, "pitch": 60, "duration": 3, "velocity": 79}, {"time": 3469, "pitch": 64, "duration": 12, "velocity": 96}, {"time": 3472, "pitch": 52, "duration": 9, "velocity": 69}, {"time": 3475, "pitch": 60, "duration": 6, "velocity": 96}, {"time": 3478, "pitch": 57, "duration": 3, "velocity": 86}, {"time": 3481, "pitch": 47, "duration": 17, "velocity": 81}, {"time": 3484, "pitch": 54, "duration": 10, "velocity": 73}, {"time": 3487, "pitch": 59, "duration": 6, "velocity": 72}, {"time": 3490, "pitch": 62, "duration": 3, "velocity": 89}, {"time": 3493, "pitch": 66, "duration": 10, "velocity": 112}, {"time": 3496, "pitch": 54, "duration": 2, "velocity": 67}, {"time": 3499, "pitch": 62, "duration": 4, "velocity": 100}, {"time": 3502, "pitch": 59, "duration": 2, "velocity": 96}, {"time": 3505, "pitch": 48, "duration": 15, "velocity": 81}, {"time": 3508, "pitch": 60, "duration": 4, "velocity": 88}, {"time": 3511, "pitch": 63, "duration": 7, "velocity": 65}, {"time": 3514, "pitch": 60, "duration": 4, "velocity": 71}, {"time": 3517, "pitch": 67, "duration": 11, "velocity": 74}, {"time": 3520, "pitch": 60, "duration": 4, "velocity": 92}, {"time": 3523, "pitch": 63, "duration": 4, "velocity": 73}, {"time": 3526, "pitch": 60, "duration": 2, "velocity": 97}, {"time": 3529, "pitch": 38, "duration": 17, "velocity": 77}, {"time": 3532, "pitch": 45, "duration": 14, "velocity": 71}, {"time": 3535, "pitch": 50, "duration": 7, "velocity": 89}, {"time": 3538, "pitch": 57, "duration": 5, "velocity": 99}, {"time": 3541, "pitch": 66, "duration": 12, "velocity": 122}, {"time": 3544, "pitch": 50, "duration": 3, "velocity": 100}, {"time": 3547, "pitch": 62, "duration": 6, "velocity": 122}, {"time": 3550, "pitch": 57, "duration": 3, "velocity": 112}, {"time": 3553, "pitch": 43, "duration": 16, "velocity": 81}, {"time": 3556, "pitch": 50, "duration": 13, "velocity": 78}, {"time": 3559, "pitch": 55, "duration": 7, "velocity": 93}, {"time": 3562, "pitch": 59, "duration": 2, "velocity": 107}, {"time": 3565, "pitch": 62, "duration": 7, "velocity": 117}, {"time": 3568, "pitch": 55, "duration": 3, "velocity": 99}, {"time": 3571, "pitch": 59, "duration": 4, "velocity": 117}, {"time": 3574, "pitch": 62, "duration": 3, "velocity": 102}, {"time": 3577, "pitch": 49, "duration": 18, "velocity": 74}, {"time": 3580, "pitch": 55, "duration": 10, "velocity": 81}, {"time": 3583, "pitch": 61, "duration": 5, "velocity": 78}, {"time": 3586, "pitch": 64, "duration": 3, "velocity": 89}, {"time": 3589, "pitch": 67, "duration": 11, "velocity": 112}, {"time": 3592, "pitch": 55, "duration": 2, "velocity": 72}, {"time": 3595, "pitch": 64, "duration": 5, "velocity": 99}, {"time": 3598, "pitch": 61, "duration": 3, "velocity": 81}, {"time": 3601, "pitch": 48, "duration": 20, "velocity": 88}, {"time": 3604, "pitch": 52, "duration": 13, "velocity": 58}, {"time": 3607, "pitch": 55, "duration": 7, "velocity": 75}, {"time": 3610, "pitch": 60, "duration": 3, "velocity": 90}, {"time": 3613, "pitch": 67, "duration": 12, "velocity": 92}, {"time": 3616, "pitch": 55, "duration": 9, "velocity": 81}, {"time": 3619, "pitch": 60, "duration": 3, "velocity": 93}, {"time": 3622, "pitch": 64, "duration": 2, "velocity": 82}, {"time": 3625, "pitch": 36, "duration": 47, "velocity": 83}, {"time": 3625, "pitch": 55, "duration": 15, "velocity": 63}, {"time": 3625, "pitch": 60, "duration": 21, "velocity": 71}, {"time": 3625, "pitch": 63, "duration": 21, "velocity": 74}, {"time": 3631, "pitch": 43, "duration": 40, "velocity": 51}, {"time": 3637, "pitch": 48, "duration": 35, "velocity": 70}, {"time": 3643, "pitch": 55, "duration": 29, "velocity": 46}, {"time": 3649, "pitch": 60, "duration": 23, "velocity": 69}, {"time": 3649, "pitch": 63, "duration": 23, "velocity": 67}, {"time": 3673, "pitch": 47, "duration": 14, "velocity": 76}, {"time": 3679, "pitch": 54, "duration": 7, "velocity": 66}, {"time": 3685, "pitch": 66, "duration": 9, "velocity": 112}, {"time": 3691, "pitch": 62, "duration": 12, "velocity": 82}, {"time": 3697, "pitch": 40, "duration": 14, "velocity": 76}, {"time": 3703, "pitch": 47, "duration": 10, "velocity": 49}, {"time": 3709, "pitch": 67, "duration": 12, "velocity": 97}, {"time": 3715, "pitch": 64, "duration": 6, "velocity": 66}, {"time": 3721, "pitch": 45, "duration": 17, "velocity": 77}, {"time": 3727, "pitch": 52, "duration": 11, "velocity": 59}, {"time": 3733, "pitch": 64, "duration": 13, "velocity": 93}, {"time": 3739, "pitch": 60, "duration": 7, "velocity": 70}, {"time": 3745, "pitch": 38, "duration": 24, "velocity": 75}, {"time": 3751, "pitch": 45, "duration": 17, "velocity": 53}, {"time": 3757, "pitch": 50, "duration": 12, "velocity": 63}, {"time": 3757, "pitch": 66, "duration": 12, "velocity": 97}, {"time": 3763, "pitch": 62, "duration": 6, "velocity": 62}, {"time": 3769, "pitch": 43, "duration": 22, "velocity": 90}, {"time": 3775, "pitch": 50, "duration": 18, "velocity": 62}, {"time": 3781, "pitch": 62, "duration": 20, "velocity": 97}, {"time": 3787, "pitch": 59, "duration": 15, "velocity": 72}, {"time": 3792, "pitch": 43, "duration": 17, "velocity": 78}, {"time": 3799, "pitch": 50, "duration": 10, "velocity": 52}, {"time": 3805, "pitch": 62, "duration": 12, "velocity": 97}, {"time": 3810, "pitch": 55, "duration": 7, "velocity": 72}, {"time": 3816, "pitch": 40, "duration": 38, "velocity": 86}, {"time": 3822, "pitch": 47, "duration": 32, "velocity": 53}, {"time": 3828, "pitch": 52, "duration": 13, "velocity": 96}, {"time": 3834, "pitch": 55, "duration": 18, "velocity": 82}, {"time": 3840, "pitch": 64, "duration": 26, "velocity": 92}, {"time": 3845, "pitch": 52, "duration": 6, "velocity": 72}, {"time": 3852, "pitch": 59, "duration": 13, "velocity": 96}, {"time": 3858, "pitch": 55, "duration": 7, "velocity": 76}, {"time": 3865, "pitch": 36, "duration": 21, "velocity": 85}, {"time": 3871, "pitch": 43, "duration": 15, "velocity": 33}, {"time": 3875, "pitch": 64, "duration": 11, "velocity": 86}, {"time": 3875, "pitch": 48, "duration": 7, "velocity": 69}, {"time": 3882, "pitch": 55, "duration": 4, "velocity": 81}, {"time": 3887, "pitch": 35, "duration": 12, "velocity": 90}, {"time": 3894, "pitch": 59, "duration": 6, "velocity": 89}, {"time": 3899, "pitch": 40, "duration": 11, "velocity": 78}, {"time": 3905, "pitch": 52, "duration": 8, "velocity": 70}, {"time": 3911, "pitch": 33, "duration": 19, "velocity": 85}, {"time": 3919, "pitch": 40, "duration": 12, "velocity": 57}, {"time": 3924, "pitch": 45, "duration": 11, "velocity": 77}, {"time": 3930, "pitch": 60, "duration": 8, "velocity": 97}, {"time": 3936, "pitch": 38, "duration": 28, "velocity": 77}, {"time": 3943, "pitch": 45, "duration": 20, "velocity": 66}, {"time": 3950, "pitch": 50, "duration": 23, "velocity": 56}, {"time": 3957, "pitch": 54, "duration": 15, "velocity": 45}, {"time": 3961, "pitch": 31, "duration": 112, "velocity": 62}, {"time": 3973, "pitch": 43, "duration": 100, "velocity": 54}, {"time": 3980, "pitch": 50, "duration": 8, "velocity": 54}, {"time": 3987, "pitch": 55, "duration": 7, "velocity": 60}, {"time": 3993, "pitch": 59, "duration": 2, "velocity": 66}, {"time": 4001, "pitch": 62, "duration": 16, "velocity": 82}, {"time": 4009, "pitch": 67, "duration": 8, "velocity": 67}, {"time": 4017, "pitch": 71, "duration": 2, "velocity": 63}, {"time": 4025, "pitch": 74, "duration": 48, "velocity": 88}, {"time": 4035, "pitch": 79, "duration": 38, "velocity": 49}, {"time": 4045, "pitch": 83, "duration": 28, "velocity": 43}, {"time": 4053, "pitch": 86, "duration": 20, "velocity": 69}], "annotations": [{"time": 73, "annotation": {"number": 64, "value": 127}, "group": "control_change"}, {"time": 96, "annotation": {"number": 64, "value": 0}, "group": "control_change"}, {"time": 98, "annotation": {"number": 64, "value": 127}, "group": "control_change"}, {"time": 119, "annotation": {"number": 64, "value": 0}, "group": "control_change"}, {"time": 122, "annotation": {"number": 64, "value": 127}, "group": "control_change"}, {"time": 143, "annotation": {"number": 64, "value": 0}, "group": "control_change"}, {"time": 193, "annotation": {"number": 64, "value": 127}, "group": "control_change"}, {"time": 196, "annotation": {"number": 64, "value": 0}, "group": "control_change"}, {"time": 217, "annotation": {"number": 64, "value": 127}, "group": "control_change"}, {"time": 238, "annotation": {"number": 64, "value": 0}, "group": "control_change"}, {"time": 241, "annotation": {"number": 64, "value": 127}, "group": "control_change"}, {"time": 262, "annotation": {"number": 64, "value": 0}, "group": "control_change"}, {"time": 265, "annotation": {"number": 64, "value": 127}, "group": "control_change"}, {"time": 286, "annotation": {"number": 64, "value": 0}, "group": "control_change"}, {"time": 289, "annotation": {"number": 64, "value": 127}, "group": "control_change"}, {"time": 311, "annotation": {"number": 64, "value": 0}, "group": "control_change"}, {"time": 313, "annotation": {"number": 64, "value": 127}, "group": "control_change"}, {"time": 334, "annotation": {"number": 64, "value": 0}, "group": "control_change"}, {"time": 362, "annotation": {"number": 64, "value": 127}, "group": "control_change"}, {"time": 383, "annotation": {"number": 64, "value": 0}, "group": "control_change"}, {"time": 386, "annotation": {"number": 64, "value": 127}, "group": "control_change"}, {"time": 407, "annotation": {"number": 64, "value": 0}, "group": "control_change"}, {"time": 410, "annotation": {"number": 64, "value": 127}, "group": "control_change"}, {"time": 431, "annotation": {"number": 64, "value": 0}, "group": "control_change"}, {"time": 434, "annotation": {"number": 64, "value": 127}, "group": "control_change"}, {"time": 479, "annotation": {"number": 64, "value": 0}, "group": "control_change"}, {"time": 577, "annotation": {"number": 64, "value": 127}, "group": "control_change"}, {"time": 600, "annotation": {"number": 64, "value": 0}, "group": "control_change"}, {"time": 602, "annotation": {"number": 64, "value": 127}, "group": "control_change"}, {"time": 624, "annotation": {"number": 64, "value": 0}, "group": "control_change"}, {"time": 626, "annotation": {"number": 64, "value": 127}, "group": "control_change"}, {"time": 647, "annotation": {"number": 64, "value": 0}, "group": "control_change"}, {"time": 650, "annotation": {"number": 64, "value": 127}, "group": "control_change"}, {"time": 670, "annotation": {"number": 64, "value": 0}, "group": "control_change"}, {"time": 674, "annotation": {"number": 64, "value": 127}, "group": "control_change"}, {"time": 718, "annotation": {"number": 64, "value": 0}, "group": "control_change"}, {"time": 733, "annotation": {"number": 64, "value": 127}, "group": "control_change"}, {"time": 742, "annotation": {"number": 64, "value": 0}, "group": "control_change"}, {"time": 745, "annotation": {"number": 64, "value": 127}, "group": "control_change"}, {"time": 767, "annotation": {"number": 64, "value": 0}, "group": "control_change"}, {"time": 769, "annotation": {"number": 64, "value": 127}, "group": "control_change"}, {"time": 790, "annotation": {"number": 64, "value": 0}, "group": "control_change"}, {"time": 792, "annotation": {"number": 64, "value": 127}, "group": "control_change"}, {"time": 814, "annotation": {"number": 64, "value": 0}, "group": "control_change"}, {"time": 817, "annotation": {"number": 64, "value": 127}, "group": "control_change"}, {"time": 839, "annotation": {"number": 64, "value": 0}, "group": "control_change"}, {"time": 852, "annotation": {"number": 64, "value": 127}, "group": "control_change"}, {"time": 853, "annotation": {"number": 64, "value": 0}, "group": "control_change"}, {"time": 865, "annotation": {"number": 64, "value": 127}, "group": "control_change"}, {"time": 887, "annotation": {"number": 64, "value": 0}, "group": "control_change"}, {"time": 890, "annotation": {"number": 64, "value": 127}, "group": "control_change"}, {"time": 909, "annotation": {"number": 64, "value": 0}, "group": "control_change"}, {"time": 913, "annotation": {"number": 64, "value": 127}, "group": "control_change"}, {"time": 934, "annotation": {"number": 64, "value": 0}, "group": "control_change"}, {"time": 937, "annotation": {"number": 64, "value": 127}, "group": "control_change"}, {"time": 958, "annotation": {"number": 64, "value": 0}, "group": "control_change"}, {"time": 962, "annotation": {"number": 64, "value": 127}, "group": "control_change"}, {"time": 983, "annotation": {"number": 64, "value": 0}, "group": "control_change"}, {"time": 986, "annotation": {"number": 64, "value": 127}, "group": "control_change"}, {"time": 1007, "annotation": {"number": 64, "value": 0}, "group": "control_change"}, {"time": 1009, "annotation": {"number": 64, "value": 127}, "group": "control_change"}, {"time": 1030, "annotation": {"number": 64, "value": 0}, "group": "control_change"}, {"time": 1032, "annotation": {"number": 64, "value": 127}, "group": "control_change"}, {"time": 1052, "annotation": {"number": 64, "value": 0}, "group": "control_change"}, {"time": 1057, "annotation": {"number": 64, "value": 127}, "group": "control_change"}, {"time": 1078, "annotation": {"number": 64, "value": 0}, "group": "control_change"}, {"time": 1081, "annotation": {"number": 64, "value": 127}, "group": "control_change"}, {"time": 1100, "annotation": {"number": 64, "value": 0}, "group": "control_change"}, {"time": 1105, "annotation": {"number": 64, "value": 127}, "group": "control_change"}, {"time": 1126, "annotation": {"number": 64, "value": 0}, "group": "control_change"}, {"time": 1129, "annotation": {"number": 64, "value": 127}, "group": "control_change"}, {"time": 1149, "annotation": {"number": 64, "value": 0}, "group": "control_change"}, {"time": 1153, "annotation": {"number": 64, "value": 127}, "group": "control_change"}, {"time": 1174, "annotation": {"number": 64, "value": 0}, "group": "control_change"}, {"time": 1177, "annotation": {"number": 64, "value": 127}, "group": "control_change"}, {"time": 1200, "annotation": {"number": 64, "value": 0}, "group": "control_change"}, {"time": 1211, "annotation": {"number": 64, "value": 127}, "group": "control_change"}, {"time": 1221, "annotation": {"number": 64, "value": 0}, "group": "control_change"}, {"time": 1225, "annotation": {"number": 64, "value": 127}, "group": "control_change"}, {"time": 1230, "annotation": {"number": 64, "value": 0}, "group": "control_change"}, {"time": 1232, "annotation": {"number": 64, "value": 127}, "group": "control_change"}, {"time": 1245, "annotation": {"number": 64, "value": 0}, "group": "control_change"}, {"time": 1248, "annotation": {"number": 64, "value": 127}, "group": "control_change"}, {"time": 1269, "annotation": {"number": 64, "value": 0}, "group": "control_change"}, {"time": 1273, "annotation": {"number": 64, "value": 127}, "group": "control_change"}, {"time": 1294, "annotation": {"number": 64, "value": 0}, "group": "control_change"}, {"time": 1297, "annotation": {"number": 64, "value": 127}, "group": "control_change"}, {"time": 1319, "annotation": {"number": 64, "value": 0}, "group": "control_change"}, {"time": 1345, "annotation": {"number": 64, "value": 127}, "group": "control_change"}, {"time": 1366, "annotation": {"number": 64, "value": 0}, "group": "control_change"}, {"time": 1370, "annotation": {"number": 64, "value": 127}, "group": "control_change"}, {"time": 1372, "annotation": {"number": 64, "value": 0}, "group": "control_change"}, {"time": 1380, "annotation": {"number": 64, "value": 127}, "group": "control_change"}, {"time": 1390, "annotation": {"number": 64, "value": 0}, "group": "control_change"}, {"time": 1392, "annotation": {"number": 64, "value": 127}, "group": "control_change"}, {"time": 1414, "annotation": {"number": 64, "value": 0}, "group": "control_change"}, {"time": 1417, "annotation": {"number": 64, "value": 127}, "group": "control_change"}, {"time": 1438, "annotation": {"number": 64, "value": 0}, "group": "control_change"}, {"time": 1441, "annotation": {"number": 64, "value": 127}, "group": "control_change"}, {"time": 1465, "annotation": {"number": 64, "value": 0}, "group": "control_change"}, {"time": 1465, "annotation": {"number": 64, "value": 127}, "group": "control_change"}, {"time": 1466, "annotation": {"number": 64, "value": 0}, "group": "control_change"}, {"time": 1470, "annotation": {"number": 64, "value": 127}, "group": "control_change"}, {"time": 1486, "annotation": {"number": 64, "value": 0}, "group": "control_change"}, {"time": 1489, "annotation": {"number": 64, "value": 127}, "group": "control_change"}, {"time": 1510, "annotation": {"number": 64, "value": 0}, "group": "control_change"}, {"time": 1513, "annotation": {"number": 64, "value": 127}, "group": "control_change"}, {"time": 1534, "annotation": {"number": 64, "value": 0}, "group": "control_change"}, {"time": 1536, "annotation": {"number": 64, "value": 127}, "group": "control_change"}, {"time": 1559, "annotation": {"number": 64, "value": 0}, "group": "control_change"}, {"time": 1561, "annotation": {"number": 64, "value": 127}, "group": "control_change"}, {"time": 1583, "annotation": {"number": 64, "value": 0}, "group": "control_change"}, {"time": 1586, "annotation": {"number": 64, "value": 127}, "group": "control_change"}, {"time": 1630, "annotation": {"number": 64, "value": 0}, "group": "control_change"}, {"time": 1633, "annotation": {"number": 64, "value": 127}, "group": "control_change"}, {"time": 1654, "annotation": {"number": 64, "value": 0}, "group": "control_change"}, {"time": 1657, "annotation": {"number": 64, "value": 127}, "group": "control_change"}, {"time": 1679, "annotation": {"number": 64, "value": 0}, "group": "control_change"}, {"time": 1681, "annotation": {"number": 64, "value": 127}, "group": "control_change"}, {"time": 1702, "annotation": {"number": 64, "value": 0}, "group": "control_change"}, {"time": 1705, "annotation": {"number": 64, "value": 127}, "group": "control_change"}, {"time": 1726, "annotation": {"number": 64, "value": 0}, "group": "control_change"}, {"time": 1729, "annotation": {"number": 64, "value": 127}, "group": "control_change"}, {"time": 1750, "annotation": {"number": 64, "value": 0}, "group": "control_change"}, {"time": 1754, "annotation": {"number": 64, "value": 127}, "group": "control_change"}, {"time": 1775, "annotation": {"number": 64, "value": 0}, "group": "control_change"}, {"time": 1778, "annotation": {"number": 64, "value": 127}, "group": "control_change"}, {"time": 1799, "annotation": {"number": 64, "value": 0}, "group": "control_change"}, {"time": 1801, "annotation": {"number": 64, "value": 127}, "group": "control_change"}, {"time": 1822, "annotation": {"number": 64, "value": 0}, "group": "control_change"}, {"time": 1825, "annotation": {"number": 64, "value": 127}, "group": "control_change"}, {"time": 1846, "annotation": {"number": 64, "value": 0}, "group": "control_change"}, {"time": 1849, "annotation": {"number": 64, "value": 127}, "group": "control_change"}, {"time": 1869, "annotation": {"number": 64, "value": 0}, "group": "control_change"}, {"time": 1873, "annotation": {"number": 64, "value": 127}, "group": "control_change"}, {"time": 1917, "annotation": {"number": 64, "value": 0}, "group": "control_change"}, {"time": 1921, "annotation": {"number": 64, "value": 127}, "group": "control_change"}, {"time": 1943, "annotation": {"number": 64, "value": 0}, "group": "control_change"}, {"time": 1945, "annotation": {"number": 64, "value": 127}, "group": "control_change"}, {"time": 1966, "annotation": {"number": 64, "value": 0}, "group": "control_change"}, {"time": 1969, "annotation": {"number": 64, "value": 127}, "group": "control_change"}, {"time": 1990, "annotation": {"number": 64, "value": 0}, "group": "control_change"}, {"time": 1993, "annotation": {"number": 64, "value": 127}, "group": "control_change"}, {"time": 2061, "annotation": {"number": 64, "value": 0}, "group": "control_change"}, {"time": 2065, "annotation": {"number": 64, "value": 127}, "group": "control_change"}, {"time": 2090, "annotation": {"number": 64, "value": 0}, "group": "control_change"}, {"time": 2161, "annotation": {"number": 64, "value": 127}, "group": "control_change"}, {"time": 2184, "annotation": {"number": 64, "value": 0}, "group": "control_change"}, {"time": 2186, "annotation": {"number": 64, "value": 127}, "group": "control_change"}, {"time": 2208, "annotation": {"number": 64, "value": 0}, "group": "control_change"}, {"time": 2210, "annotation": {"number": 64, "value": 127}, "group": "control_change"}, {"time": 2231, "annotation": {"number": 64, "value": 0}, "group": "control_change"}, {"time": 2234, "annotation": {"number": 64, "value": 127}, "group": "control_change"}, {"time": 2254, "annotation": {"number": 64, "value": 0}, "group": "control_change"}, {"time": 2258, "annotation": {"number": 64, "value": 127}, "group": "control_change"}, {"time": 2302, "annotation": {"number": 64, "value": 0}, "group": "control_change"}, {"time": 2317, "annotation": {"number": 64, "value": 127}, "group": "control_change"}, {"time": 2326, "annotation": {"number": 64, "value": 0}, "group": "control_change"}, {"time": 2329, "annotation": {"number": 64, "value": 127}, "group": "control_change"}, {"time": 2351, "annotation": {"number": 64, "value": 0}, "group": "control_change"}, {"time": 2353, "annotation": {"number": 64, "value": 127}, "group": "control_change"}, {"time": 2374, "annotation": {"number": 64, "value": 0}, "group": "control_change"}, {"time": 2376, "annotation": {"number": 64, "value": 127}, "group": "control_change"}, {"time": 2398, "annotation": {"number": 64, "value": 0}, "group": "control_change"}, {"time": 2401, "annotation": {"number": 64, "value": 127}, "group": "control_change"}, {"time": 2423, "annotation": {"number": 64, "value": 0}, "group": "control_change"}, {"time": 2436, "annotation": {"number": 64, "value": 127}, "group": "control_change"}, {"time": 2437, "annotation": {"number": 64, "value": 0}, "group": "control_change"}, {"time": 2449, "annotation": {"number": 64, "value": 127}, "group": "control_change"}, {"time": 2471, "annotation": {"number": 64, "value": 0}, "group": "control_change"}, {"time": 2474, "annotation": {"number": 64, "value": 127}, "group": "control_change"}, {"time": 2493, "annotation": {"number": 64, "value": 0}, "group": "control_change"}, {"time": 2497, "annotation": {"number": 64, "value": 127}, "group": "control_change"}, {"time": 2518, "annotation": {"number": 64, "value": 0}, "group": "control_change"}, {"time": 2521, "annotation": {"number": 64, "value": 127}, "group": "control_change"}, {"time": 2542, "annotation": {"number": 64, "value": 0}, "group": "control_change"}, {"time": 2546, "annotation": {"number": 64, "value": 127}, "group": "control_change"}, {"time": 2567, "annotation": {"number": 64, "value": 0}, "group": "control_change"}, {"time": 2570, "annotation": {"number": 64, "value": 127}, "group": "control_change"}, {"time": 2591, "annotation": {"number": 64, "value": 0}, "group": "control_change"}, {"time": 2593, "annotation": {"number": 64, "value": 127}, "group": "control_change"}, {"time": 2614, "annotation": {"number": 64, "value": 0}, "group": "control_change"}, {"time": 2616, "annotation": {"number": 64, "value": 127}, "group": "control_change"}, {"time": 2636, "annotation": {"number": 64, "value": 0}, "group": "control_change"}, {"time": 2641, "annotation": {"number": 64, "value": 127}, "group": "control_change"}, {"time": 2662, "annotation": {"number": 64, "value": 0}, "group": "control_change"}, {"time": 2665, "annotation": {"number": 64, "value": 127}, "group": "control_change"}, {"time": 2684, "annotation": {"number": 64, "value": 0}, "group": "control_change"}, {"time": 2689, "annotation": {"number": 64, "value": 127}, "group": "control_change"}, {"time": 2710, "annotation": {"number": 64, "value": 0}, "group": "control_change"}, {"time": 2713, "annotation": {"number": 64, "value": 127}, "group": "control_change"}, {"time": 2733, "annotation": {"number": 64, "value": 0}, "group": "control_change"}, {"time": 2737, "annotation": {"number": 64, "value": 127}, "group": "control_change"}, {"time": 2758, "annotation": {"number": 64, "value": 0}, "group": "control_change"}, {"time": 2761, "annotation": {"number": 64, "value": 127}, "group": "control_change"}, {"time": 2784, "annotation": {"number": 64, "value": 0}, "group": "control_change"}, {"time": 2795, "annotation": {"number": 64, "value": 127}, "group": "control_change"}, {"time": 2805, "annotation": {"number": 64, "value": 0}, "group": "control_change"}, {"time": 2809, "annotation": {"number": 64, "value": 127}, "group": "control_change"}, {"time": 2814, "annotation": {"number": 64, "value": 0}, "group": "control_change"}, {"time": 2816, "annotation": {"number": 64, "value": 127}, "group": "control_change"}, {"time": 2829, "annotation": {"number": 64, "value": 0}, "group": "control_change"}, {"time": 2832, "annotation": {"number": 64, "value": 127}, "group": "control_change"}, {"time": 2853, "annotation": {"number": 64, "value": 0}, "group": "control_change"}, {"time": 2857, "annotation": {"number": 64, "value": 127}, "group": "control_change"}, {"time": 2878, "annotation": {"number": 64, "value": 0}, "group": "control_change"}, {"time": 2881, "annotation": {"number": 64, "value": 127}, "group": "control_change"}, {"time": 2903, "annotation": {"number": 64, "value": 0}, "group": "control_change"}, {"time": 2929, "annotation": {"number": 64, "value": 127}, "group": "control_change"}, {"time": 2950, "annotation": {"number": 64, "value": 0}, "group": "control_change"}, {"time": 2954, "annotation": {"number": 64, "value": 127}, "group": "control_change"}, {"time": 2956, "annotation": {"number": 64, "value": 0}, "group": "control_change"}, {"time": 2964, "annotation": {"number": 64, "value": 127}, "group": "control_change"}, {"time": 2974, "annotation": {"number": 64, "value": 0}, "group": "control_change"}, {"time": 2976, "annotation": {"number": 64, "value": 127}, "group": "control_change"}, {"time": 2998, "annotation": {"number": 64, "value": 0}, "group": "control_change"}, {"time": 3001, "annotation": {"number": 64, "value": 127}, "group": "control_change"}, {"time": 3022, "annotation": {"number": 64, "value": 0}, "group": "control_change"}, {"time": 3025, "annotation": {"number": 64, "value": 127}, "group": "control_change"}, {"time": 3049, "annotation": {"number": 64, "value": 0}, "group": "control_change"}, {"time": 3049, "annotation": {"number": 64, "value": 127}, "group": "control_change"}, {"time": 3050, "annotation": {"number": 64, "value": 0}, "group": "control_change"}, {"time": 3054, "annotation": {"number": 64, "value": 127}, "group": "control_change"}, {"time": 3070, "annotation": {"number": 64, "value": 0}, "group": "control_change"}, {"time": 3073, "annotation": {"number": 64, "value": 127}, "group": "control_change"}, {"time": 3094, "annotation": {"number": 64, "value": 0}, "group": "control_change"}, {"time": 3097, "annotation": {"number": 64, "value": 127}, "group": "control_change"}, {"time": 3118, "annotation": {"number": 64, "value": 0}, "group": "control_change"}, {"time": 3120, "annotation": {"number": 64, "value": 127}, "group": "control_change"}, {"time": 3143, "annotation": {"number": 64, "value": 0}, "group": "control_change"}, {"time": 3145, "annotation": {"number": 64, "value": 127}, "group": "control_change"}, {"time": 3167, "annotation": {"number": 64, "value": 0}, "group": "control_change"}, {"time": 3170, "annotation": {"number": 64, "value": 127}, "group": "control_change"}, {"time": 3214, "annotation": {"number": 64, "value": 0}, "group": "control_change"}, {"time": 3217, "annotation": {"number": 64, "value": 127}, "group": "control_change"}, {"time": 3238, "annotation": {"number": 64, "value": 0}, "group": "control_change"}, {"time": 3241, "annotation": {"number": 64, "value": 127}, "group": "control_change"}, {"time": 3263, "annotation": {"number": 64, "value": 0}, "group": "control_change"}, {"time": 3265, "annotation": {"number": 64, "value": 127}, "group": "control_change"}, {"time": 3286, "annotation": {"number": 64, "value": 0}, "group": "control_change"}, {"time": 3289, "annotation": {"number": 64, "value": 127}, "group": "control_change"}, {"time": 3310, "annotation": {"number": 64, "value": 0}, "group": "control_change"}, {"time": 3313, "annotation": {"number": 64, "value": 127}, "group": "control_change"}, {"time": 3337, "annotation": {"number": 64, "value": 0}, "group": "control_change"}, {"time": 3382, "annotation": {"number": 64, "value": 0}, "group": "control_change"}, {"time": 3386, "annotation": {"number": 64, "value": 127}, "group": "control_change"}, {"time": 3388, "annotation": {"number": 64, "value": 0}, "group": "control_change"}, {"time": 3396, "annotation": {"number": 64, "value": 127}, "group": "control_change"}, {"time": 3406, "annotation": {"number": 64, "value": 0}, "group": "control_change"}, {"time": 3408, "annotation": {"number": 64, "value": 127}, "group": "control_change"}, {"time": 3430, "annotation": {"number": 64, "value": 0}, "group": "control_change"}, {"time": 3433, "annotation": {"number": 64, "value": 127}, "group": "control_change"}, {"time": 3454, "annotation": {"number": 64, "value": 0}, "group": "control_change"}, {"time": 3457, "annotation": {"number": 64, "value": 127}, "group": "control_change"}, {"time": 3481, "annotation": {"number": 64, "value": 0}, "group": "control_change"}, {"time": 3481, "annotation": {"number": 64, "value": 127}, "group": "control_change"}, {"time": 3482, "annotation": {"number": 64, "value": 0}, "group": "control_change"}, {"time": 3486, "annotation": {"number": 64, "value": 127}, "group": "control_change"}, {"time": 3502, "annotation": {"number": 64, "value": 0}, "group": "control_change"}, {"time": 3505, "annotation": {"number": 64, "value": 127}, "group": "control_change"}, {"time": 3526, "annotation": {"number": 64, "value": 0}, "group": "control_change"}, {"time": 3529, "annotation": {"number": 64, "value": 127}, "group": "control_change"}, {"time": 3550, "annotation": {"number": 64, "value": 0}, "group": "control_change"}, {"time": 3552, "annotation": {"number": 64, "value": 127}, "group": "control_change"}, {"time": 3575, "annotation": {"number": 64, "value": 0}, "group": "control_change"}, {"time": 3577, "annotation": {"number": 64, "value": 127}, "group": "control_change"}, {"time": 3599, "annotation": {"number": 64, "value": 0}, "group": "control_change"}, {"time": 3602, "annotation": {"number": 64, "value": 127}, "group": "control_change"}, {"time": 3673, "annotation": {"number": 64, "value": 127}, "group": "control_change"}, {"time": 3694, "annotation": {"number": 64, "value": 0}, "group": "control_change"}, {"time": 3698, "annotation": {"number": 64, "value": 127}, "group": "control_change"}, {"time": 3718, "annotation": {"number": 64, "value": 0}, "group": "control_change"}, {"time": 3722, "annotation": {"number": 64, "value": 127}, "group": "control_change"}, {"time": 3742, "annotation": {"number": 64, "value": 0}, "group": "control_change"}, {"time": 3770, "annotation": {"number": 64, "value": 127}, "group": "control_change"}, {"time": 3813, "annotation": {"number": 64, "value": 0}, "group": "control_change"}, {"time": 3817, "annotation": {"number": 64, "value": 127}, "group": "control_change"}, {"time": 3862, "annotation": {"number": 64, "value": 0}, "group": "control_change"}, {"time": 3984, "annotation": {"number": 64, "value": 127}, "group": "control_change"}, {"time": 4070, "annotation": {"number": 64, "value": 0}, "group": "control_change"}, {"time": 4071, "annotation": {"number": 64, "value": 127}, "group": "control_change"}, {"time": 4074, "annotation": {"number": 64, "value": 0}, "group": "control_change"}]}]}