{"metadata": {"schema_version": "0.2", "title": "None", "source_filename": "758.mid", "source_format": "midi"}, "resolution": 12, "tempos": [{"time": 0, "qpm": 78.000078000078}], "time_signatures": [{"time": 0, "numerator": 1, "denominator": 4}], "tracks": [{"program": 4, "is_drum": false, "name": "MELODY", "notes": [{"time": 200, "pitch": 60, "duration": 11, "velocity": 77}, {"time": 218, "pitch": 55, "duration": 5, "velocity": 82}, {"time": 224, "pitch": 62, "duration": 9, "velocity": 89}, {"time": 242, "pitch": 55, "duration": 4, "velocity": 79}, {"time": 248, "pitch": 63, "duration": 5, "velocity": 99}, {"time": 254, "pitch": 62, "duration": 5, "velocity": 95}, {"time": 260, "pitch": 60, "duration": 6, "velocity": 83}, {"time": 266, "pitch": 58, "duration": 5, "velocity": 70}, {"time": 272, "pitch": 55, "duration": 8, "velocity": 77}, {"time": 296, "pitch": 53, "duration": 7, "velocity": 83}, {"time": 308, "pitch": 63, "duration": 10, "velocity": 96}, {"time": 320, "pitch": 62, "duration": 9, "velocity": 89}, {"time": 326, "pitch": 60, "duration": 3, "velocity": 85}, {"time": 332, "pitch": 58, "duration": 3, "velocity": 88}, {"time": 338, "pitch": 53, "duration": 4, "velocity": 66}, {"time": 344, "pitch": 55, "duration": 18, "velocity": 64}, {"time": 386, "pitch": 55, "duration": 5, "velocity": 70}, {"time": 392, "pitch": 60, "duration": 13, "velocity": 70}, {"time": 410, "pitch": 55, "duration": 6, "velocity": 88}, {"time": 416, "pitch": 62, "duration": 12, "velocity": 92}, {"time": 434, "pitch": 55, "duration": 4, "velocity": 74}, {"time": 440, "pitch": 63, "duration": 5, "velocity": 107}, {"time": 446, "pitch": 62, "duration": 6, "velocity": 88}, {"time": 452, "pitch": 63, "duration": 5, "velocity": 99}, {"time": 458, "pitch": 65, "duration": 5, "velocity": 97}, {"time": 464, "pitch": 67, "duration": 11, "velocity": 100}, {"time": 488, "pitch": 65, "duration": 5, "velocity": 96}, {"time": 500, "pitch": 60, "duration": 7, "velocity": 92}, {"time": 512, "pitch": 62, "duration": 10, "velocity": 93}, {"time": 530, "pitch": 58, "duration": 5, "velocity": 82}, {"time": 536, "pitch": 60, "duration": 20, "velocity": 93}, {"time": 584, "pitch": 65, "duration": 6, "velocity": 99}, {"time": 602, "pitch": 60, "duration": 6, "velocity": 96}, {"time": 608, "pitch": 63, "duration": 11, "velocity": 112}, {"time": 626, "pitch": 61, "duration": 6, "velocity": 97}, {"time": 632, "pitch": 60, "duration": 7, "velocity": 97}, {"time": 638, "pitch": 63, "duration": 4, "velocity": 122}, {"time": 644, "pitch": 63, "duration": 4, "velocity": 102}, {"time": 650, "pitch": 65, "duration": 6, "velocity": 97}, {"time": 656, "pitch": 60, "duration": 11, "velocity": 102}, {"time": 674, "pitch": 56, "duration": 4, "velocity": 96}, {"time": 680, "pitch": 58, "duration": 7, "velocity": 127}, {"time": 698, "pitch": 65, "duration": 5, "velocity": 100}, {"time": 704, "pitch": 65, "duration": 5, "velocity": 97}, {"time": 713, "pitch": 63, "duration": 6, "velocity": 100}, {"time": 722, "pitch": 65, "duration": 4, "velocity": 95}, {"time": 728, "pitch": 67, "duration": 24, "velocity": 102}, {"time": 764, "pitch": 65, "duration": 4, "velocity": 107}, {"time": 770, "pitch": 67, "duration": 4, "velocity": 107}, {"time": 776, "pitch": 68, "duration": 7, "velocity": 127}, {"time": 788, "pitch": 72, "duration": 9, "velocity": 107}, {"time": 800, "pitch": 67, "duration": 9, "velocity": 112}, {"time": 824, "pitch": 65, "duration": 4, "velocity": 102}, {"time": 830, "pitch": 67, "duration": 4, "velocity": 99}, {"time": 836, "pitch": 68, "duration": 4, "velocity": 122}, {"time": 842, "pitch": 65, "duration": 4, "velocity": 97}, {"time": 848, "pitch": 63, "duration": 12, "velocity": 107}, {"time": 872, "pitch": 61, "duration": 5, "velocity": 102}, {"time": 884, "pitch": 68, "duration": 9, "velocity": 112}, {"time": 896, "pitch": 67, "duration": 8, "velocity": 122}, {"time": 902, "pitch": 65, "duration": 6, "velocity": 99}, {"time": 908, "pitch": 63, "duration": 3, "velocity": 100}, {"time": 914, "pitch": 58, "duration": 6, "velocity": 95}, {"time": 920, "pitch": 60, "duration": 22, "velocity": 102}, {"time": 956, "pitch": 65, "duration": 5, "velocity": 122}, {"time": 962, "pitch": 67, "duration": 4, "velocity": 99}, {"time": 968, "pitch": 68, "duration": 9, "velocity": 127}, {"time": 980, "pitch": 72, "duration": 8, "velocity": 127}, {"time": 992, "pitch": 67, "duration": 11, "velocity": 117}, {"time": 1016, "pitch": 65, "duration": 5, "velocity": 107}, {"time": 1022, "pitch": 67, "duration": 4, "velocity": 122}, {"time": 1028, "pitch": 68, "duration": 4, "velocity": 117}, {"time": 1034, "pitch": 70, "duration": 4, "velocity": 127}, {"time": 1040, "pitch": 72, "duration": 11, "velocity": 127}, {"time": 1064, "pitch": 70, "duration": 11, "velocity": 127}, {"time": 1076, "pitch": 65, "duration": 9, "velocity": 100}, {"time": 1088, "pitch": 67, "duration": 11, "velocity": 107}, {"time": 1106, "pitch": 63, "duration": 6, "velocity": 112}, {"time": 1112, "pitch": 65, "duration": 36, "velocity": 112}, {"time": 1352, "pitch": 60, "duration": 11, "velocity": 77}, {"time": 1370, "pitch": 55, "duration": 5, "velocity": 82}, {"time": 1376, "pitch": 62, "duration": 9, "velocity": 89}, {"time": 1394, "pitch": 55, "duration": 4, "velocity": 79}, {"time": 1400, "pitch": 63, "duration": 5, "velocity": 99}, {"time": 1406, "pitch": 62, "duration": 5, "velocity": 95}, {"time": 1412, "pitch": 60, "duration": 6, "velocity": 83}, {"time": 1418, "pitch": 58, "duration": 5, "velocity": 70}, {"time": 1424, "pitch": 55, "duration": 8, "velocity": 77}, {"time": 1448, "pitch": 53, "duration": 7, "velocity": 83}, {"time": 1460, "pitch": 63, "duration": 10, "velocity": 96}, {"time": 1472, "pitch": 62, "duration": 9, "velocity": 89}, {"time": 1478, "pitch": 60, "duration": 3, "velocity": 85}, {"time": 1484, "pitch": 58, "duration": 3, "velocity": 88}, {"time": 1490, "pitch": 53, "duration": 4, "velocity": 66}, {"time": 1496, "pitch": 55, "duration": 18, "velocity": 64}, {"time": 1538, "pitch": 55, "duration": 5, "velocity": 70}, {"time": 1544, "pitch": 60, "duration": 13, "velocity": 70}, {"time": 1562, "pitch": 55, "duration": 6, "velocity": 88}, {"time": 1568, "pitch": 62, "duration": 12, "velocity": 92}, {"time": 1586, "pitch": 55, "duration": 4, "velocity": 74}, {"time": 1592, "pitch": 63, "duration": 5, "velocity": 107}, {"time": 1598, "pitch": 62, "duration": 6, "velocity": 88}, {"time": 1604, "pitch": 63, "duration": 5, "velocity": 99}, {"time": 1610, "pitch": 65, "duration": 5, "velocity": 97}, {"time": 1616, "pitch": 67, "duration": 11, "velocity": 100}, {"time": 1640, "pitch": 65, "duration": 5, "velocity": 96}, {"time": 1652, "pitch": 60, "duration": 7, "velocity": 92}, {"time": 1664, "pitch": 62, "duration": 10, "velocity": 93}, {"time": 1682, "pitch": 58, "duration": 5, "velocity": 82}, {"time": 1688, "pitch": 60, "duration": 20, "velocity": 93}, {"time": 1736, "pitch": 65, "duration": 6, "velocity": 99}, {"time": 1754, "pitch": 60, "duration": 6, "velocity": 96}, {"time": 1760, "pitch": 63, "duration": 11, "velocity": 112}, {"time": 1778, "pitch": 61, "duration": 6, "velocity": 97}, {"time": 1784, "pitch": 60, "duration": 7, "velocity": 97}, {"time": 1790, "pitch": 63, "duration": 4, "velocity": 122}, {"time": 1796, "pitch": 63, "duration": 4, "velocity": 102}, {"time": 1802, "pitch": 65, "duration": 6, "velocity": 97}, {"time": 1808, "pitch": 60, "duration": 11, "velocity": 102}, {"time": 1826, "pitch": 56, "duration": 4, "velocity": 96}, {"time": 1832, "pitch": 58, "duration": 7, "velocity": 127}, {"time": 1850, "pitch": 65, "duration": 5, "velocity": 100}, {"time": 1856, "pitch": 65, "duration": 5, "velocity": 97}, {"time": 1865, "pitch": 63, "duration": 6, "velocity": 100}, {"time": 1874, "pitch": 65, "duration": 4, "velocity": 95}, {"time": 1880, "pitch": 67, "duration": 24, "velocity": 102}, {"time": 1916, "pitch": 65, "duration": 4, "velocity": 107}, {"time": 1922, "pitch": 67, "duration": 4, "velocity": 107}, {"time": 1928, "pitch": 68, "duration": 7, "velocity": 127}, {"time": 1940, "pitch": 72, "duration": 9, "velocity": 107}, {"time": 1952, "pitch": 67, "duration": 9, "velocity": 112}, {"time": 1976, "pitch": 65, "duration": 4, "velocity": 102}, {"time": 1982, "pitch": 67, "duration": 4, "velocity": 99}, {"time": 1988, "pitch": 68, "duration": 4, "velocity": 122}, {"time": 1994, "pitch": 65, "duration": 4, "velocity": 97}, {"time": 2000, "pitch": 63, "duration": 12, "velocity": 107}, {"time": 2024, "pitch": 61, "duration": 5, "velocity": 102}, {"time": 2036, "pitch": 68, "duration": 9, "velocity": 112}, {"time": 2048, "pitch": 67, "duration": 8, "velocity": 122}, {"time": 2054, "pitch": 65, "duration": 6, "velocity": 99}, {"time": 2060, "pitch": 63, "duration": 3, "velocity": 100}, {"time": 2066, "pitch": 58, "duration": 6, "velocity": 95}, {"time": 2072, "pitch": 60, "duration": 22, "velocity": 102}, {"time": 2108, "pitch": 65, "duration": 5, "velocity": 122}, {"time": 2114, "pitch": 67, "duration": 4, "velocity": 99}, {"time": 2120, "pitch": 68, "duration": 9, "velocity": 127}, {"time": 2132, "pitch": 72, "duration": 8, "velocity": 127}, {"time": 2144, "pitch": 67, "duration": 11, "velocity": 117}, {"time": 2168, "pitch": 65, "duration": 5, "velocity": 107}, {"time": 2174, "pitch": 67, "duration": 4, "velocity": 122}, {"time": 2180, "pitch": 68, "duration": 4, "velocity": 117}, {"time": 2186, "pitch": 70, "duration": 4, "velocity": 127}, {"time": 2192, "pitch": 72, "duration": 11, "velocity": 127}, {"time": 2216, "pitch": 70, "duration": 11, "velocity": 127}, {"time": 2228, "pitch": 65, "duration": 9, "velocity": 100}, {"time": 2240, "pitch": 67, "duration": 11, "velocity": 107}, {"time": 2258, "pitch": 63, "duration": 6, "velocity": 112}, {"time": 2264, "pitch": 65, "duration": 24, "velocity": 112}, {"time": 2300, "pitch": 65, "duration": 4, "velocity": 107}, {"time": 2306, "pitch": 67, "duration": 4, "velocity": 107}, {"time": 2312, "pitch": 68, "duration": 7, "velocity": 127}, {"time": 2324, "pitch": 72, "duration": 9, "velocity": 107}, {"time": 2336, "pitch": 67, "duration": 9, "velocity": 112}, {"time": 2360, "pitch": 65, "duration": 4, "velocity": 102}, {"time": 2366, "pitch": 67, "duration": 4, "velocity": 99}, {"time": 2372, "pitch": 68, "duration": 4, "velocity": 122}, {"time": 2378, "pitch": 65, "duration": 4, "velocity": 97}, {"time": 2384, "pitch": 63, "duration": 12, "velocity": 107}, {"time": 2408, "pitch": 61, "duration": 5, "velocity": 102}, {"time": 2420, "pitch": 68, "duration": 9, "velocity": 112}, {"time": 2432, "pitch": 67, "duration": 8, "velocity": 122}, {"time": 2438, "pitch": 65, "duration": 6, "velocity": 99}, {"time": 2444, "pitch": 63, "duration": 3, "velocity": 100}, {"time": 2450, "pitch": 58, "duration": 6, "velocity": 95}, {"time": 2456, "pitch": 60, "duration": 22, "velocity": 102}, {"time": 2492, "pitch": 65, "duration": 5, "velocity": 122}, {"time": 2498, "pitch": 67, "duration": 4, "velocity": 99}, {"time": 2504, "pitch": 68, "duration": 9, "velocity": 127}, {"time": 2516, "pitch": 72, "duration": 8, "velocity": 127}, {"time": 2528, "pitch": 67, "duration": 11, "velocity": 117}, {"time": 2552, "pitch": 65, "duration": 5, "velocity": 107}, {"time": 2558, "pitch": 67, "duration": 4, "velocity": 122}, {"time": 2564, "pitch": 68, "duration": 4, "velocity": 117}, {"time": 2570, "pitch": 70, "duration": 4, "velocity": 127}, {"time": 2576, "pitch": 72, "duration": 11, "velocity": 127}, {"time": 2600, "pitch": 70, "duration": 11, "velocity": 127}, {"time": 2612, "pitch": 65, "duration": 9, "velocity": 100}, {"time": 2624, "pitch": 67, "duration": 11, "velocity": 107}, {"time": 2642, "pitch": 63, "duration": 6, "velocity": 112}, {"time": 2648, "pitch": 65, "duration": 24, "velocity": 112}, {"time": 3116, "pitch": 67, "duration": 4, "velocity": 107}, {"time": 3122, "pitch": 69, "duration": 4, "velocity": 107}, {"time": 3128, "pitch": 70, "duration": 7, "velocity": 127}, {"time": 3140, "pitch": 74, "duration": 9, "velocity": 107}, {"time": 3152, "pitch": 69, "duration": 9, "velocity": 112}, {"time": 3176, "pitch": 67, "duration": 4, "velocity": 102}, {"time": 3182, "pitch": 69, "duration": 4, "velocity": 99}, {"time": 3188, "pitch": 70, "duration": 4, "velocity": 122}, {"time": 3194, "pitch": 67, "duration": 4, "velocity": 97}, {"time": 3200, "pitch": 65, "duration": 12, "velocity": 107}, {"time": 3224, "pitch": 63, "duration": 5, "velocity": 102}, {"time": 3236, "pitch": 70, "duration": 9, "velocity": 112}, {"time": 3248, "pitch": 69, "duration": 8, "velocity": 122}, {"time": 3254, "pitch": 67, "duration": 6, "velocity": 99}, {"time": 3260, "pitch": 65, "duration": 3, "velocity": 100}, {"time": 3266, "pitch": 60, "duration": 6, "velocity": 95}, {"time": 3272, "pitch": 62, "duration": 22, "velocity": 102}, {"time": 3308, "pitch": 67, "duration": 5, "velocity": 122}, {"time": 3314, "pitch": 69, "duration": 4, "velocity": 99}, {"time": 3320, "pitch": 70, "duration": 9, "velocity": 127}, {"time": 3332, "pitch": 74, "duration": 8, "velocity": 127}, {"time": 3344, "pitch": 69, "duration": 11, "velocity": 117}, {"time": 3368, "pitch": 67, "duration": 5, "velocity": 107}, {"time": 3374, "pitch": 69, "duration": 4, "velocity": 122}, {"time": 3380, "pitch": 70, "duration": 4, "velocity": 117}, {"time": 3386, "pitch": 72, "duration": 4, "velocity": 127}, {"time": 3392, "pitch": 74, "duration": 11, "velocity": 127}, {"time": 3416, "pitch": 72, "duration": 11, "velocity": 127}, {"time": 3428, "pitch": 67, "duration": 9, "velocity": 100}, {"time": 3440, "pitch": 69, "duration": 11, "velocity": 107}, {"time": 3458, "pitch": 65, "duration": 6, "velocity": 112}, {"time": 3464, "pitch": 67, "duration": 24, "velocity": 112}, {"time": 3515, "pitch": 72, "duration": 13, "velocity": 117}, {"time": 3542, "pitch": 67, "duration": 6, "velocity": 81}, {"time": 3551, "pitch": 69, "duration": 16, "velocity": 102}, {"time": 3593, "pitch": 65, "duration": 25, "velocity": 96}, {"time": 3617, "pitch": 67, "duration": 45, "velocity": 92}]}, {"program": 0, "is_drum": false, "name": "PIANO", "notes": [{"time": 8, "pitch": 44, "duration": 21, "velocity": 86}, {"time": 14, "pitch": 56, "duration": 18, "velocity": 82}, {"time": 20, "pitch": 60, "duration": 14, "velocity": 76}, {"time": 26, "pitch": 63, "duration": 6, "velocity": 56}, {"time": 32, "pitch": 46, "duration": 12, "velocity": 35}, {"time": 38, "pitch": 58, "duration": 19, "velocity": 63}, {"time": 44, "pitch": 62, "duration": 14, "velocity": 86}, {"time": 56, "pitch": 36, "duration": 21, "velocity": 71}, {"time": 62, "pitch": 43, "duration": 15, "velocity": 59}, {"time": 68, "pitch": 48, "duration": 9, "velocity": 58}, {"time": 74, "pitch": 55, "duration": 12, "velocity": 72}, {"time": 80, "pitch": 63, "duration": 22, "velocity": 102}, {"time": 86, "pitch": 60, "duration": 8, "velocity": 79}, {"time": 92, "pitch": 55, "duration": 7, "velocity": 85}, {"time": 98, "pitch": 60, "duration": 5, "velocity": 89}, {"time": 104, "pitch": 44, "duration": 4, "velocity": 96}, {"time": 107, "pitch": 44, "duration": 1, "velocity": 64}, {"time": 107, "pitch": 51, "duration": 13, "velocity": 34}, {"time": 110, "pitch": 56, "duration": 7, "velocity": 69}, {"time": 113, "pitch": 60, "duration": 5, "velocity": 79}, {"time": 116, "pitch": 68, "duration": 12, "velocity": 127}, {"time": 119, "pitch": 56, "duration": 4, "velocity": 81}, {"time": 122, "pitch": 63, "duration": 6, "velocity": 95}, {"time": 125, "pitch": 60, "duration": 4, "velocity": 95}, {"time": 128, "pitch": 46, "duration": 23, "velocity": 102}, {"time": 134, "pitch": 58, "duration": 10, "velocity": 97}, {"time": 140, "pitch": 62, "duration": 60, "velocity": 86}, {"time": 146, "pitch": 58, "duration": 54, "velocity": 57}, {"time": 152, "pitch": 46, "duration": 37, "velocity": 72}, {"time": 152, "pitch": 65, "duration": 48, "velocity": 72}, {"time": 200, "pitch": 36, "duration": 19, "velocity": 77}, {"time": 206, "pitch": 43, "duration": 12, "velocity": 56}, {"time": 212, "pitch": 63, "duration": 12, "velocity": 97}, {"time": 218, "pitch": 60, "duration": 7, "velocity": 63}, {"time": 224, "pitch": 46, "duration": 20, "velocity": 58}, {"time": 230, "pitch": 50, "duration": 17, "velocity": 50}, {"time": 236, "pitch": 53, "duration": 10, "velocity": 45}, {"time": 248, "pitch": 44, "duration": 13, "velocity": 72}, {"time": 254, "pitch": 56, "duration": 10, "velocity": 90}, {"time": 260, "pitch": 63, "duration": 12, "velocity": 86}, {"time": 266, "pitch": 56, "duration": 6, "velocity": 71}, {"time": 272, "pitch": 39, "duration": 15, "velocity": 74}, {"time": 278, "pitch": 51, "duration": 9, "velocity": 81}, {"time": 284, "pitch": 63, "duration": 12, "velocity": 117}, {"time": 290, "pitch": 55, "duration": 8, "velocity": 66}, {"time": 296, "pitch": 41, "duration": 14, "velocity": 69}, {"time": 302, "pitch": 48, "duration": 9, "velocity": 37}, {"time": 308, "pitch": 60, "duration": 11, "velocity": 92}, {"time": 314, "pitch": 56, "duration": 6, "velocity": 53}, {"time": 320, "pitch": 46, "duration": 16, "velocity": 92}, {"time": 326, "pitch": 58, "duration": 7, "velocity": 73}, {"time": 332, "pitch": 62, "duration": 13, "velocity": 82}, {"time": 344, "pitch": 39, "duration": 15, "velocity": 81}, {"time": 350, "pitch": 51, "duration": 11, "velocity": 66}, {"time": 356, "pitch": 63, "duration": 13, "velocity": 102}, {"time": 362, "pitch": 58, "duration": 7, "velocity": 57}, {"time": 368, "pitch": 43, "duration": 17, "velocity": 73}, {"time": 374, "pitch": 50, "duration": 10, "velocity": 63}, {"time": 380, "pitch": 62, "duration": 14, "velocity": 92}, {"time": 386, "pitch": 58, "duration": 7, "velocity": 62}, {"time": 392, "pitch": 36, "duration": 14, "velocity": 70}, {"time": 398, "pitch": 43, "duration": 9, "velocity": 56}, {"time": 404, "pitch": 63, "duration": 11, "velocity": 99}, {"time": 410, "pitch": 55, "duration": 8, "velocity": 72}, {"time": 416, "pitch": 46, "duration": 17, "velocity": 86}, {"time": 422, "pitch": 50, "duration": 17, "velocity": 60}, {"time": 428, "pitch": 53, "duration": 11, "velocity": 60}, {"time": 428, "pitch": 65, "duration": 11, "velocity": 63}, {"time": 434, "pitch": 58, "duration": 5, "velocity": 64}, {"time": 440, "pitch": 44, "duration": 12, "velocity": 95}, {"time": 446, "pitch": 56, "duration": 5, "velocity": 81}, {"time": 452, "pitch": 46, "duration": 8, "velocity": 99}, {"time": 458, "pitch": 58, "duration": 8, "velocity": 74}, {"time": 464, "pitch": 39, "duration": 13, "velocity": 85}, {"time": 470, "pitch": 51, "duration": 9, "velocity": 77}, {"time": 476, "pitch": 63, "duration": 11, "velocity": 97}, {"time": 482, "pitch": 55, "duration": 7, "velocity": 58}, {"time": 488, "pitch": 41, "duration": 18, "velocity": 77}, {"time": 494, "pitch": 48, "duration": 17, "velocity": 58}, {"time": 500, "pitch": 60, "duration": 13, "velocity": 92}, {"time": 506, "pitch": 56, "duration": 6, "velocity": 65}, {"time": 512, "pitch": 43, "duration": 16, "velocity": 71}, {"time": 518, "pitch": 50, "duration": 9, "velocity": 52}, {"time": 524, "pitch": 62, "duration": 13, "velocity": 88}, {"time": 530, "pitch": 58, "duration": 6, "velocity": 48}, {"time": 536, "pitch": 36, "duration": 38, "velocity": 82}, {"time": 542, "pitch": 43, "duration": 32, "velocity": 37}, {"time": 548, "pitch": 48, "duration": 15, "velocity": 88}, {"time": 554, "pitch": 63, "duration": 16, "velocity": 99}, {"time": 560, "pitch": 60, "duration": 11, "velocity": 92}, {"time": 566, "pitch": 48, "duration": 8, "velocity": 68}, {"time": 572, "pitch": 63, "duration": 11, "velocity": 112}, {"time": 584, "pitch": 37, "duration": 39, "velocity": 90}, {"time": 590, "pitch": 49, "duration": 31, "velocity": 71}, {"time": 596, "pitch": 53, "duration": 38, "velocity": 83}, {"time": 602, "pitch": 56, "duration": 31, "velocity": 86}, {"time": 608, "pitch": 61, "duration": 25, "velocity": 100}, {"time": 632, "pitch": 36, "duration": 17, "velocity": 72}, {"time": 638, "pitch": 43, "duration": 11, "velocity": 57}, {"time": 644, "pitch": 48, "duration": 11, "velocity": 73}, {"time": 650, "pitch": 51, "duration": 6, "velocity": 93}, {"time": 656, "pitch": 41, "duration": 13, "velocity": 73}, {"time": 662, "pitch": 48, "duration": 7, "velocity": 69}, {"time": 665, "pitch": 56, "duration": 1, "velocity": 28}, {"time": 668, "pitch": 56, "duration": 12, "velocity": 76}, {"time": 668, "pitch": 60, "duration": 12, "velocity": 92}, {"time": 674, "pitch": 53, "duration": 6, "velocity": 63}, {"time": 680, "pitch": 46, "duration": 40, "velocity": 99}, {"time": 686, "pitch": 58, "duration": 21, "velocity": 93}, {"time": 692, "pitch": 61, "duration": 7, "velocity": 107}, {"time": 698, "pitch": 65, "duration": 17, "velocity": 88}, {"time": 704, "pitch": 61, "duration": 11, "velocity": 97}, {"time": 716, "pitch": 58, "duration": 2, "velocity": 59}, {"time": 716, "pitch": 61, "duration": 13, "velocity": 72}, {"time": 716, "pitch": 65, "duration": 13, "velocity": 72}, {"time": 722, "pitch": 58, "duration": 6, "velocity": 66}, {"time": 728, "pitch": 36, "duration": 27, "velocity": 83}, {"time": 734, "pitch": 43, "duration": 22, "velocity": 63}, {"time": 740, "pitch": 48, "duration": 7, "velocity": 95}, {"time": 746, "pitch": 52, "duration": 5, "velocity": 100}, {"time": 749, "pitch": 55, "duration": 1, "velocity": 30}, {"time": 752, "pitch": 48, "duration": 6, "velocity": 127}, {"time": 752, "pitch": 52, "duration": 6, "velocity": 117}, {"time": 752, "pitch": 55, "duration": 6, "velocity": 117}, {"time": 758, "pitch": 36, "duration": 8, "velocity": 67}, {"time": 764, "pitch": 55, "duration": 11, "velocity": 88}, {"time": 764, "pitch": 60, "duration": 11, "velocity": 107}, {"time": 764, "pitch": 64, "duration": 11, "velocity": 96}, {"time": 776, "pitch": 41, "duration": 16, "velocity": 102}, {"time": 779, "pitch": 48, "duration": 10, "velocity": 95}, {"time": 782, "pitch": 53, "duration": 4, "velocity": 92}, {"time": 785, "pitch": 56, "duration": 3, "velocity": 112}, {"time": 788, "pitch": 60, "duration": 11, "velocity": 107}, {"time": 791, "pitch": 48, "duration": 2, "velocity": 93}, {"time": 794, "pitch": 56, "duration": 5, "velocity": 112}, {"time": 797, "pitch": 52, "duration": 1, "velocity": 61}, {"time": 797, "pitch": 53, "duration": 3, "velocity": 73}, {"time": 800, "pitch": 39, "duration": 18, "velocity": 55}, {"time": 803, "pitch": 46, "duration": 13, "velocity": 40}, {"time": 806, "pitch": 51, "duration": 7, "velocity": 97}, {"time": 809, "pitch": 55, "duration": 5, "velocity": 83}, {"time": 812, "pitch": 63, "duration": 10, "velocity": 127}, {"time": 815, "pitch": 51, "duration": 2, "velocity": 102}, {"time": 818, "pitch": 58, "duration": 4, "velocity": 112}, {"time": 821, "pitch": 55, "duration": 3, "velocity": 95}, {"time": 824, "pitch": 37, "duration": 18, "velocity": 99}, {"time": 827, "pitch": 49, "duration": 10, "velocity": 78}, {"time": 830, "pitch": 53, "duration": 7, "velocity": 67}, {"time": 833, "pitch": 56, "duration": 2, "velocity": 88}, {"time": 836, "pitch": 61, "duration": 11, "velocity": 127}, {"time": 839, "pitch": 49, "duration": 2, "velocity": 97}, {"time": 842, "pitch": 56, "duration": 5, "velocity": 99}, {"time": 845, "pitch": 53, "duration": 3, "velocity": 89}, {"time": 848, "pitch": 36, "duration": 17, "velocity": 76}, {"time": 851, "pitch": 43, "duration": 13, "velocity": 88}, {"time": 854, "pitch": 48, "duration": 7, "velocity": 93}, {"time": 857, "pitch": 55, "duration": 6, "velocity": 93}, {"time": 860, "pitch": 63, "duration": 11, "velocity": 122}, {"time": 863, "pitch": 48, "duration": 3, "velocity": 93}, {"time": 866, "pitch": 60, "duration": 5, "velocity": 112}, {"time": 869, "pitch": 55, "duration": 2, "velocity": 95}, {"time": 872, "pitch": 46, "duration": 18, "velocity": 99}, {"time": 875, "pitch": 53, "duration": 13, "velocity": 57}, {"time": 878, "pitch": 58, "duration": 7, "velocity": 93}, {"time": 881, "pitch": 61, "duration": 5, "velocity": 93}, {"time": 884, "pitch": 70, "duration": 13, "velocity": 127}, {"time": 887, "pitch": 58, "duration": 3, "velocity": 100}, {"time": 890, "pitch": 61, "duration": 6, "velocity": 86}, {"time": 893, "pitch": 65, "duration": 4, "velocity": 69}, {"time": 896, "pitch": 39, "duration": 20, "velocity": 100}, {"time": 899, "pitch": 51, "duration": 11, "velocity": 72}, {"time": 902, "pitch": 55, "duration": 9, "velocity": 72}, {"time": 905, "pitch": 58, "duration": 3, "velocity": 92}, {"time": 908, "pitch": 63, "duration": 11, "velocity": 122}, {"time": 911, "pitch": 51, "duration": 7, "velocity": 90}, {"time": 914, "pitch": 58, "duration": 5, "velocity": 107}, {"time": 917, "pitch": 55, "duration": 2, "velocity": 92}, {"time": 920, "pitch": 44, "duration": 21, "velocity": 85}, {"time": 923, "pitch": 51, "duration": 19, "velocity": 39}, {"time": 926, "pitch": 56, "duration": 7, "velocity": 99}, {"time": 929, "pitch": 60, "duration": 6, "velocity": 79}, {"time": 932, "pitch": 68, "duration": 9, "velocity": 127}, {"time": 935, "pitch": 56, "duration": 8, "velocity": 95}, {"time": 938, "pitch": 63, "duration": 4, "velocity": 107}, {"time": 941, "pitch": 60, "duration": 2, "velocity": 97}, {"time": 944, "pitch": 44, "duration": 18, "velocity": 93}, {"time": 944, "pitch": 60, "duration": 7, "velocity": 79}, {"time": 944, "pitch": 63, "duration": 9, "velocity": 127}, {"time": 944, "pitch": 68, "duration": 9, "velocity": 112}, {"time": 947, "pitch": 51, "duration": 13, "velocity": 73}, {"time": 950, "pitch": 56, "duration": 7, "velocity": 107}, {"time": 953, "pitch": 60, "duration": 6, "velocity": 93}, {"time": 956, "pitch": 68, "duration": 10, "velocity": 127}, {"time": 959, "pitch": 56, "duration": 2, "velocity": 102}, {"time": 962, "pitch": 63, "duration": 4, "velocity": 112}, {"time": 965, "pitch": 60, "duration": 5, "velocity": 112}, {"time": 968, "pitch": 41, "duration": 17, "velocity": 69}, {"time": 971, "pitch": 48, "duration": 14, "velocity": 81}, {"time": 974, "pitch": 53, "duration": 7, "velocity": 90}, {"time": 977, "pitch": 60, "duration": 6, "velocity": 95}, {"time": 980, "pitch": 68, "duration": 10, "velocity": 117}, {"time": 983, "pitch": 53, "duration": 2, "velocity": 85}, {"time": 986, "pitch": 65, "duration": 5, "velocity": 90}, {"time": 989, "pitch": 60, "duration": 3, "velocity": 97}, {"time": 992, "pitch": 39, "duration": 17, "velocity": 73}, {"time": 995, "pitch": 46, "duration": 14, "velocity": 65}, {"time": 998, "pitch": 51, "duration": 8, "velocity": 99}, {"time": 1001, "pitch": 55, "duration": 6, "velocity": 82}, {"time": 1004, "pitch": 63, "duration": 11, "velocity": 112}, {"time": 1007, "pitch": 51, "duration": 2, "velocity": 96}, {"time": 1010, "pitch": 58, "duration": 5, "velocity": 100}, {"time": 1013, "pitch": 55, "duration": 2, "velocity": 90}, {"time": 1016, "pitch": 37, "duration": 17, "velocity": 93}, {"time": 1019, "pitch": 49, "duration": 11, "velocity": 97}, {"time": 1022, "pitch": 53, "duration": 8, "velocity": 89}, {"time": 1025, "pitch": 56, "duration": 3, "velocity": 76}, {"time": 1028, "pitch": 61, "duration": 12, "velocity": 117}, {"time": 1031, "pitch": 49, "duration": 3, "velocity": 93}, {"time": 1034, "pitch": 53, "duration": 5, "velocity": 93}, {"time": 1037, "pitch": 56, "duration": 3, "velocity": 107}, {"time": 1040, "pitch": 44, "duration": 16, "velocity": 88}, {"time": 1043, "pitch": 48, "duration": 12, "velocity": 61}, {"time": 1046, "pitch": 51, "duration": 7, "velocity": 92}, {"time": 1049, "pitch": 56, "duration": 5, "velocity": 86}, {"time": 1052, "pitch": 63, "duration": 6, "velocity": 102}, {"time": 1055, "pitch": 51, "duration": 3, "velocity": 95}, {"time": 1058, "pitch": 56, "duration": 4, "velocity": 112}, {"time": 1061, "pitch": 63, "duration": 2, "velocity": 97}, {"time": 1064, "pitch": 46, "duration": 18, "velocity": 93}, {"time": 1067, "pitch": 58, "duration": 11, "velocity": 92}, {"time": 1070, "pitch": 61, "duration": 8, "velocity": 85}, {"time": 1076, "pitch": 65, "duration": 11, "velocity": 83}, {"time": 1079, "pitch": 58, "duration": 2, "velocity": 86}, {"time": 1088, "pitch": 36, "duration": 15, "velocity": 51}, {"time": 1091, "pitch": 43, "duration": 12, "velocity": 67}, {"time": 1094, "pitch": 48, "duration": 9, "velocity": 86}, {"time": 1097, "pitch": 55, "duration": 17, "velocity": 72}, {"time": 1100, "pitch": 63, "duration": 12, "velocity": 112}, {"time": 1112, "pitch": 41, "duration": 23, "velocity": 76}, {"time": 1115, "pitch": 48, "duration": 11, "velocity": 59}, {"time": 1118, "pitch": 53, "duration": 7, "velocity": 73}, {"time": 1121, "pitch": 55, "duration": 4, "velocity": 72}, {"time": 1124, "pitch": 60, "duration": 36, "velocity": 97}, {"time": 1127, "pitch": 48, "duration": 9, "velocity": 83}, {"time": 1130, "pitch": 56, "duration": 29, "velocity": 95}, {"time": 1136, "pitch": 41, "duration": 24, "velocity": 88}, {"time": 1136, "pitch": 53, "duration": 24, "velocity": 95}, {"time": 1160, "pitch": 36, "duration": 12, "velocity": 79}, {"time": 1166, "pitch": 43, "duration": 6, "velocity": 65}, {"time": 1172, "pitch": 60, "duration": 12, "velocity": 82}, {"time": 1172, "pitch": 63, "duration": 11, "velocity": 89}, {"time": 1178, "pitch": 55, "duration": 6, "velocity": 72}, {"time": 1184, "pitch": 46, "duration": 17, "velocity": 100}, {"time": 1190, "pitch": 50, "duration": 11, "velocity": 65}, {"time": 1196, "pitch": 53, "duration": 5, "velocity": 81}, {"time": 1196, "pitch": 62, "duration": 11, "velocity": 95}, {"time": 1202, "pitch": 58, "duration": 6, "velocity": 92}, {"time": 1208, "pitch": 44, "duration": 15, "velocity": 92}, {"time": 1214, "pitch": 56, "duration": 8, "velocity": 90}, {"time": 1220, "pitch": 60, "duration": 12, "velocity": 93}, {"time": 1226, "pitch": 63, "duration": 5, "velocity": 42}, {"time": 1232, "pitch": 39, "duration": 18, "velocity": 93}, {"time": 1238, "pitch": 51, "duration": 7, "velocity": 95}, {"time": 1244, "pitch": 63, "duration": 11, "velocity": 127}, {"time": 1247, "pitch": 51, "duration": 2, "velocity": 81}, {"time": 1250, "pitch": 58, "duration": 5, "velocity": 122}, {"time": 1253, "pitch": 55, "duration": 5, "velocity": 97}, {"time": 1256, "pitch": 36, "duration": 13, "velocity": 85}, {"time": 1259, "pitch": 43, "duration": 10, "velocity": 85}, {"time": 1262, "pitch": 48, "duration": 10, "velocity": 95}, {"time": 1265, "pitch": 55, "duration": 5, "velocity": 92}, {"time": 1268, "pitch": 63, "duration": 11, "velocity": 127}, {"time": 1274, "pitch": 60, "duration": 6, "velocity": 95}, {"time": 1280, "pitch": 46, "duration": 17, "velocity": 99}, {"time": 1283, "pitch": 50, "duration": 14, "velocity": 54}, {"time": 1286, "pitch": 53, "duration": 8, "velocity": 88}, {"time": 1289, "pitch": 58, "duration": 6, "velocity": 82}, {"time": 1292, "pitch": 65, "duration": 12, "velocity": 73}, {"time": 1298, "pitch": 58, "duration": 6, "velocity": 93}, {"time": 1304, "pitch": 45, "duration": 23, "velocity": 81}, {"time": 1304, "pitch": 57, "duration": 7, "velocity": 90}, {"time": 1304, "pitch": 60, "duration": 18, "velocity": 102}, {"time": 1304, "pitch": 63, "duration": 19, "velocity": 102}, {"time": 1310, "pitch": 51, "duration": 9, "velocity": 85}, {"time": 1316, "pitch": 57, "duration": 10, "velocity": 92}, {"time": 1322, "pitch": 51, "duration": 5, "velocity": 61}, {"time": 1328, "pitch": 45, "duration": 23, "velocity": 61}, {"time": 1328, "pitch": 51, "duration": 23, "velocity": 68}, {"time": 1328, "pitch": 57, "duration": 23, "velocity": 88}, {"time": 1328, "pitch": 60, "duration": 23, "velocity": 97}, {"time": 1328, "pitch": 63, "duration": 23, "velocity": 99}, {"time": 1352, "pitch": 36, "duration": 19, "velocity": 77}, {"time": 1358, "pitch": 43, "duration": 12, "velocity": 56}, {"time": 1364, "pitch": 63, "duration": 12, "velocity": 97}, {"time": 1370, "pitch": 60, "duration": 7, "velocity": 63}, {"time": 1376, "pitch": 46, "duration": 20, "velocity": 58}, {"time": 1382, "pitch": 50, "duration": 17, "velocity": 50}, {"time": 1388, "pitch": 53, "duration": 10, "velocity": 45}, {"time": 1400, "pitch": 44, "duration": 13, "velocity": 72}, {"time": 1406, "pitch": 56, "duration": 10, "velocity": 90}, {"time": 1412, "pitch": 63, "duration": 12, "velocity": 86}, {"time": 1418, "pitch": 56, "duration": 6, "velocity": 71}, {"time": 1424, "pitch": 39, "duration": 15, "velocity": 74}, {"time": 1430, "pitch": 51, "duration": 9, "velocity": 81}, {"time": 1436, "pitch": 63, "duration": 12, "velocity": 117}, {"time": 1442, "pitch": 55, "duration": 8, "velocity": 66}, {"time": 1448, "pitch": 41, "duration": 14, "velocity": 69}, {"time": 1454, "pitch": 48, "duration": 9, "velocity": 37}, {"time": 1460, "pitch": 60, "duration": 11, "velocity": 92}, {"time": 1466, "pitch": 56, "duration": 6, "velocity": 53}, {"time": 1472, "pitch": 46, "duration": 16, "velocity": 92}, {"time": 1478, "pitch": 58, "duration": 7, "velocity": 73}, {"time": 1484, "pitch": 62, "duration": 13, "velocity": 82}, {"time": 1496, "pitch": 39, "duration": 15, "velocity": 81}, {"time": 1502, "pitch": 51, "duration": 11, "velocity": 66}, {"time": 1508, "pitch": 63, "duration": 13, "velocity": 102}, {"time": 1514, "pitch": 58, "duration": 7, "velocity": 57}, {"time": 1520, "pitch": 43, "duration": 17, "velocity": 73}, {"time": 1526, "pitch": 50, "duration": 10, "velocity": 63}, {"time": 1532, "pitch": 62, "duration": 14, "velocity": 92}, {"time": 1538, "pitch": 58, "duration": 7, "velocity": 62}, {"time": 1544, "pitch": 36, "duration": 14, "velocity": 70}, {"time": 1550, "pitch": 43, "duration": 9, "velocity": 56}, {"time": 1556, "pitch": 63, "duration": 11, "velocity": 99}, {"time": 1562, "pitch": 55, "duration": 8, "velocity": 72}, {"time": 1568, "pitch": 46, "duration": 17, "velocity": 86}, {"time": 1574, "pitch": 50, "duration": 17, "velocity": 60}, {"time": 1580, "pitch": 53, "duration": 11, "velocity": 60}, {"time": 1580, "pitch": 65, "duration": 11, "velocity": 63}, {"time": 1586, "pitch": 58, "duration": 5, "velocity": 64}, {"time": 1592, "pitch": 44, "duration": 12, "velocity": 95}, {"time": 1598, "pitch": 56, "duration": 5, "velocity": 81}, {"time": 1604, "pitch": 46, "duration": 8, "velocity": 99}, {"time": 1610, "pitch": 58, "duration": 8, "velocity": 74}, {"time": 1616, "pitch": 39, "duration": 13, "velocity": 85}, {"time": 1622, "pitch": 51, "duration": 9, "velocity": 77}, {"time": 1628, "pitch": 63, "duration": 11, "velocity": 97}, {"time": 1634, "pitch": 55, "duration": 7, "velocity": 58}, {"time": 1640, "pitch": 41, "duration": 18, "velocity": 77}, {"time": 1646, "pitch": 48, "duration": 17, "velocity": 58}, {"time": 1652, "pitch": 60, "duration": 13, "velocity": 92}, {"time": 1658, "pitch": 56, "duration": 6, "velocity": 65}, {"time": 1664, "pitch": 43, "duration": 16, "velocity": 71}, {"time": 1670, "pitch": 50, "duration": 9, "velocity": 52}, {"time": 1676, "pitch": 62, "duration": 13, "velocity": 88}, {"time": 1682, "pitch": 58, "duration": 6, "velocity": 48}, {"time": 1688, "pitch": 36, "duration": 38, "velocity": 82}, {"time": 1694, "pitch": 43, "duration": 32, "velocity": 37}, {"time": 1700, "pitch": 48, "duration": 15, "velocity": 88}, {"time": 1706, "pitch": 63, "duration": 16, "velocity": 99}, {"time": 1712, "pitch": 60, "duration": 11, "velocity": 92}, {"time": 1718, "pitch": 48, "duration": 8, "velocity": 68}, {"time": 1724, "pitch": 63, "duration": 11, "velocity": 112}, {"time": 1736, "pitch": 37, "duration": 39, "velocity": 90}, {"time": 1742, "pitch": 49, "duration": 31, "velocity": 71}, {"time": 1748, "pitch": 53, "duration": 38, "velocity": 83}, {"time": 1754, "pitch": 56, "duration": 31, "velocity": 86}, {"time": 1760, "pitch": 61, "duration": 25, "velocity": 100}, {"time": 1784, "pitch": 36, "duration": 17, "velocity": 72}, {"time": 1790, "pitch": 43, "duration": 11, "velocity": 57}, {"time": 1796, "pitch": 48, "duration": 11, "velocity": 73}, {"time": 1802, "pitch": 51, "duration": 6, "velocity": 93}, {"time": 1808, "pitch": 41, "duration": 13, "velocity": 73}, {"time": 1814, "pitch": 48, "duration": 7, "velocity": 69}, {"time": 1817, "pitch": 56, "duration": 1, "velocity": 28}, {"time": 1820, "pitch": 56, "duration": 12, "velocity": 76}, {"time": 1820, "pitch": 60, "duration": 12, "velocity": 92}, {"time": 1826, "pitch": 53, "duration": 6, "velocity": 63}, {"time": 1832, "pitch": 46, "duration": 40, "velocity": 99}, {"time": 1838, "pitch": 58, "duration": 21, "velocity": 93}, {"time": 1844, "pitch": 61, "duration": 7, "velocity": 107}, {"time": 1850, "pitch": 65, "duration": 17, "velocity": 88}, {"time": 1856, "pitch": 61, "duration": 11, "velocity": 97}, {"time": 1868, "pitch": 58, "duration": 2, "velocity": 59}, {"time": 1868, "pitch": 61, "duration": 13, "velocity": 72}, {"time": 1868, "pitch": 65, "duration": 13, "velocity": 72}, {"time": 1874, "pitch": 58, "duration": 6, "velocity": 66}, {"time": 1880, "pitch": 36, "duration": 27, "velocity": 83}, {"time": 1886, "pitch": 43, "duration": 22, "velocity": 63}, {"time": 1892, "pitch": 48, "duration": 7, "velocity": 95}, {"time": 1898, "pitch": 52, "duration": 5, "velocity": 100}, {"time": 1901, "pitch": 55, "duration": 1, "velocity": 30}, {"time": 1904, "pitch": 48, "duration": 6, "velocity": 127}, {"time": 1904, "pitch": 52, "duration": 6, "velocity": 117}, {"time": 1904, "pitch": 55, "duration": 6, "velocity": 117}, {"time": 1910, "pitch": 36, "duration": 8, "velocity": 67}, {"time": 1916, "pitch": 55, "duration": 11, "velocity": 88}, {"time": 1916, "pitch": 60, "duration": 11, "velocity": 107}, {"time": 1916, "pitch": 64, "duration": 11, "velocity": 96}, {"time": 1928, "pitch": 41, "duration": 16, "velocity": 102}, {"time": 1931, "pitch": 48, "duration": 10, "velocity": 95}, {"time": 1934, "pitch": 53, "duration": 4, "velocity": 92}, {"time": 1937, "pitch": 56, "duration": 3, "velocity": 112}, {"time": 1940, "pitch": 60, "duration": 11, "velocity": 107}, {"time": 1943, "pitch": 48, "duration": 2, "velocity": 93}, {"time": 1946, "pitch": 56, "duration": 5, "velocity": 112}, {"time": 1949, "pitch": 52, "duration": 1, "velocity": 61}, {"time": 1949, "pitch": 53, "duration": 3, "velocity": 73}, {"time": 1952, "pitch": 39, "duration": 18, "velocity": 55}, {"time": 1955, "pitch": 46, "duration": 13, "velocity": 40}, {"time": 1958, "pitch": 51, "duration": 7, "velocity": 97}, {"time": 1961, "pitch": 55, "duration": 5, "velocity": 83}, {"time": 1964, "pitch": 63, "duration": 10, "velocity": 127}, {"time": 1967, "pitch": 51, "duration": 2, "velocity": 102}, {"time": 1970, "pitch": 58, "duration": 4, "velocity": 112}, {"time": 1973, "pitch": 55, "duration": 3, "velocity": 95}, {"time": 1976, "pitch": 37, "duration": 18, "velocity": 99}, {"time": 1979, "pitch": 49, "duration": 10, "velocity": 78}, {"time": 1982, "pitch": 53, "duration": 7, "velocity": 67}, {"time": 1985, "pitch": 56, "duration": 2, "velocity": 88}, {"time": 1988, "pitch": 61, "duration": 11, "velocity": 127}, {"time": 1991, "pitch": 49, "duration": 2, "velocity": 97}, {"time": 1994, "pitch": 56, "duration": 5, "velocity": 99}, {"time": 1997, "pitch": 53, "duration": 3, "velocity": 89}, {"time": 2000, "pitch": 36, "duration": 17, "velocity": 76}, {"time": 2003, "pitch": 43, "duration": 13, "velocity": 88}, {"time": 2006, "pitch": 48, "duration": 7, "velocity": 93}, {"time": 2009, "pitch": 55, "duration": 6, "velocity": 93}, {"time": 2012, "pitch": 63, "duration": 11, "velocity": 122}, {"time": 2015, "pitch": 48, "duration": 3, "velocity": 93}, {"time": 2018, "pitch": 60, "duration": 5, "velocity": 112}, {"time": 2021, "pitch": 55, "duration": 2, "velocity": 95}, {"time": 2024, "pitch": 46, "duration": 18, "velocity": 99}, {"time": 2027, "pitch": 53, "duration": 13, "velocity": 57}, {"time": 2030, "pitch": 58, "duration": 7, "velocity": 93}, {"time": 2033, "pitch": 61, "duration": 5, "velocity": 93}, {"time": 2036, "pitch": 70, "duration": 13, "velocity": 127}, {"time": 2039, "pitch": 58, "duration": 3, "velocity": 100}, {"time": 2042, "pitch": 61, "duration": 6, "velocity": 86}, {"time": 2045, "pitch": 65, "duration": 4, "velocity": 69}, {"time": 2048, "pitch": 39, "duration": 20, "velocity": 100}, {"time": 2051, "pitch": 51, "duration": 11, "velocity": 72}, {"time": 2054, "pitch": 55, "duration": 9, "velocity": 72}, {"time": 2057, "pitch": 58, "duration": 3, "velocity": 92}, {"time": 2060, "pitch": 63, "duration": 11, "velocity": 122}, {"time": 2063, "pitch": 51, "duration": 7, "velocity": 90}, {"time": 2066, "pitch": 58, "duration": 5, "velocity": 107}, {"time": 2069, "pitch": 55, "duration": 2, "velocity": 92}, {"time": 2072, "pitch": 44, "duration": 21, "velocity": 85}, {"time": 2075, "pitch": 51, "duration": 19, "velocity": 39}, {"time": 2078, "pitch": 56, "duration": 7, "velocity": 99}, {"time": 2081, "pitch": 60, "duration": 6, "velocity": 79}, {"time": 2084, "pitch": 68, "duration": 9, "velocity": 127}, {"time": 2087, "pitch": 56, "duration": 8, "velocity": 95}, {"time": 2090, "pitch": 63, "duration": 4, "velocity": 107}, {"time": 2093, "pitch": 60, "duration": 2, "velocity": 97}, {"time": 2096, "pitch": 44, "duration": 18, "velocity": 93}, {"time": 2096, "pitch": 60, "duration": 7, "velocity": 79}, {"time": 2096, "pitch": 63, "duration": 9, "velocity": 127}, {"time": 2096, "pitch": 68, "duration": 9, "velocity": 112}, {"time": 2099, "pitch": 51, "duration": 13, "velocity": 73}, {"time": 2102, "pitch": 56, "duration": 7, "velocity": 107}, {"time": 2105, "pitch": 60, "duration": 6, "velocity": 93}, {"time": 2108, "pitch": 68, "duration": 10, "velocity": 127}, {"time": 2111, "pitch": 56, "duration": 2, "velocity": 102}, {"time": 2114, "pitch": 63, "duration": 4, "velocity": 112}, {"time": 2117, "pitch": 60, "duration": 5, "velocity": 112}, {"time": 2120, "pitch": 41, "duration": 17, "velocity": 69}, {"time": 2123, "pitch": 48, "duration": 14, "velocity": 81}, {"time": 2126, "pitch": 53, "duration": 7, "velocity": 90}, {"time": 2129, "pitch": 60, "duration": 6, "velocity": 95}, {"time": 2132, "pitch": 68, "duration": 10, "velocity": 117}, {"time": 2135, "pitch": 53, "duration": 2, "velocity": 85}, {"time": 2138, "pitch": 65, "duration": 5, "velocity": 90}, {"time": 2141, "pitch": 60, "duration": 3, "velocity": 97}, {"time": 2144, "pitch": 39, "duration": 17, "velocity": 73}, {"time": 2147, "pitch": 46, "duration": 14, "velocity": 65}, {"time": 2150, "pitch": 51, "duration": 8, "velocity": 99}, {"time": 2153, "pitch": 55, "duration": 6, "velocity": 82}, {"time": 2156, "pitch": 63, "duration": 11, "velocity": 112}, {"time": 2159, "pitch": 51, "duration": 2, "velocity": 96}, {"time": 2162, "pitch": 58, "duration": 5, "velocity": 100}, {"time": 2165, "pitch": 55, "duration": 2, "velocity": 90}, {"time": 2168, "pitch": 37, "duration": 17, "velocity": 93}, {"time": 2171, "pitch": 49, "duration": 11, "velocity": 97}, {"time": 2174, "pitch": 53, "duration": 8, "velocity": 89}, {"time": 2177, "pitch": 56, "duration": 3, "velocity": 76}, {"time": 2180, "pitch": 61, "duration": 12, "velocity": 117}, {"time": 2183, "pitch": 49, "duration": 3, "velocity": 93}, {"time": 2186, "pitch": 53, "duration": 5, "velocity": 93}, {"time": 2189, "pitch": 56, "duration": 3, "velocity": 107}, {"time": 2192, "pitch": 44, "duration": 16, "velocity": 88}, {"time": 2195, "pitch": 48, "duration": 12, "velocity": 61}, {"time": 2198, "pitch": 51, "duration": 7, "velocity": 92}, {"time": 2201, "pitch": 56, "duration": 5, "velocity": 86}, {"time": 2204, "pitch": 63, "duration": 6, "velocity": 102}, {"time": 2207, "pitch": 51, "duration": 3, "velocity": 95}, {"time": 2210, "pitch": 56, "duration": 4, "velocity": 112}, {"time": 2213, "pitch": 63, "duration": 2, "velocity": 97}, {"time": 2216, "pitch": 46, "duration": 18, "velocity": 93}, {"time": 2219, "pitch": 58, "duration": 11, "velocity": 92}, {"time": 2222, "pitch": 61, "duration": 8, "velocity": 85}, {"time": 2228, "pitch": 65, "duration": 11, "velocity": 83}, {"time": 2231, "pitch": 58, "duration": 2, "velocity": 86}, {"time": 2240, "pitch": 36, "duration": 15, "velocity": 73}, {"time": 2243, "pitch": 43, "duration": 12, "velocity": 67}, {"time": 2246, "pitch": 48, "duration": 9, "velocity": 86}, {"time": 2249, "pitch": 55, "duration": 2, "velocity": 80}, {"time": 2252, "pitch": 55, "duration": 13, "velocity": 80}, {"time": 2252, "pitch": 63, "duration": 12, "velocity": 80}, {"time": 2252, "pitch": 51, "duration": 13, "velocity": 78}, {"time": 2264, "pitch": 53, "duration": 4, "velocity": 80}, {"time": 2264, "pitch": 60, "duration": 4, "velocity": 80}, {"time": 2264, "pitch": 65, "duration": 3, "velocity": 80}, {"time": 2264, "pitch": 68, "duration": 3, "velocity": 80}, {"time": 2273, "pitch": 51, "duration": 4, "velocity": 83}, {"time": 2273, "pitch": 63, "duration": 4, "velocity": 83}, {"time": 2273, "pitch": 67, "duration": 3, "velocity": 83}, {"time": 2273, "pitch": 70, "duration": 3, "velocity": 83}, {"time": 2282, "pitch": 49, "duration": 29, "velocity": 83}, {"time": 2282, "pitch": 61, "duration": 18, "velocity": 83}, {"time": 2282, "pitch": 65, "duration": 16, "velocity": 83}, {"time": 2282, "pitch": 68, "duration": 15, "velocity": 83}, {"time": 2291, "pitch": 77, "duration": 1, "velocity": 65}, {"time": 2293, "pitch": 75, "duration": 1, "velocity": 70}, {"time": 2294, "pitch": 73, "duration": 1, "velocity": 70}, {"time": 2294, "pitch": 72, "duration": 1, "velocity": 70}, {"time": 2295, "pitch": 70, "duration": 1, "velocity": 70}, {"time": 2296, "pitch": 68, "duration": 1, "velocity": 72}, {"time": 2297, "pitch": 67, "duration": 1, "velocity": 72}, {"time": 2297, "pitch": 65, "duration": 1, "velocity": 76}, {"time": 2298, "pitch": 63, "duration": 1, "velocity": 74}, {"time": 2299, "pitch": 61, "duration": 1, "velocity": 74}, {"time": 2300, "pitch": 60, "duration": 1, "velocity": 72}, {"time": 2301, "pitch": 58, "duration": 2, "velocity": 74}, {"time": 2303, "pitch": 60, "duration": 1, "velocity": 78}, {"time": 2303, "pitch": 61, "duration": 1, "velocity": 83}, {"time": 2304, "pitch": 63, "duration": 1, "velocity": 83}, {"time": 2305, "pitch": 65, "duration": 1, "velocity": 85}, {"time": 2306, "pitch": 67, "duration": 1, "velocity": 87}, {"time": 2306, "pitch": 68, "duration": 1, "velocity": 91}, {"time": 2307, "pitch": 70, "duration": 1, "velocity": 96}, {"time": 2308, "pitch": 72, "duration": 1, "velocity": 102}, {"time": 2309, "pitch": 73, "duration": 1, "velocity": 102}, {"time": 2310, "pitch": 75, "duration": 1, "velocity": 102}, {"time": 2311, "pitch": 77, "duration": 7, "velocity": 127}, {"time": 2312, "pitch": 41, "duration": 16, "velocity": 102}, {"time": 2315, "pitch": 48, "duration": 10, "velocity": 95}, {"time": 2318, "pitch": 53, "duration": 4, "velocity": 92}, {"time": 2321, "pitch": 56, "duration": 3, "velocity": 112}, {"time": 2324, "pitch": 60, "duration": 11, "velocity": 107}, {"time": 2327, "pitch": 48, "duration": 2, "velocity": 93}, {"time": 2330, "pitch": 56, "duration": 5, "velocity": 112}, {"time": 2333, "pitch": 52, "duration": 1, "velocity": 61}, {"time": 2333, "pitch": 53, "duration": 3, "velocity": 73}, {"time": 2336, "pitch": 39, "duration": 18, "velocity": 55}, {"time": 2339, "pitch": 46, "duration": 13, "velocity": 40}, {"time": 2342, "pitch": 51, "duration": 7, "velocity": 97}, {"time": 2345, "pitch": 55, "duration": 5, "velocity": 83}, {"time": 2348, "pitch": 63, "duration": 10, "velocity": 127}, {"time": 2351, "pitch": 51, "duration": 2, "velocity": 102}, {"time": 2354, "pitch": 58, "duration": 4, "velocity": 112}, {"time": 2357, "pitch": 55, "duration": 3, "velocity": 95}, {"time": 2360, "pitch": 37, "duration": 18, "velocity": 99}, {"time": 2363, "pitch": 49, "duration": 10, "velocity": 78}, {"time": 2366, "pitch": 53, "duration": 7, "velocity": 67}, {"time": 2369, "pitch": 56, "duration": 2, "velocity": 88}, {"time": 2372, "pitch": 61, "duration": 11, "velocity": 127}, {"time": 2375, "pitch": 49, "duration": 2, "velocity": 97}, {"time": 2378, "pitch": 56, "duration": 5, "velocity": 99}, {"time": 2381, "pitch": 53, "duration": 3, "velocity": 89}, {"time": 2384, "pitch": 36, "duration": 17, "velocity": 76}, {"time": 2387, "pitch": 43, "duration": 13, "velocity": 88}, {"time": 2390, "pitch": 48, "duration": 7, "velocity": 93}, {"time": 2393, "pitch": 55, "duration": 6, "velocity": 93}, {"time": 2396, "pitch": 63, "duration": 11, "velocity": 122}, {"time": 2399, "pitch": 48, "duration": 3, "velocity": 93}, {"time": 2402, "pitch": 60, "duration": 5, "velocity": 112}, {"time": 2405, "pitch": 55, "duration": 2, "velocity": 95}, {"time": 2408, "pitch": 46, "duration": 18, "velocity": 99}, {"time": 2411, "pitch": 53, "duration": 13, "velocity": 57}, {"time": 2414, "pitch": 58, "duration": 7, "velocity": 93}, {"time": 2417, "pitch": 61, "duration": 5, "velocity": 93}, {"time": 2420, "pitch": 70, "duration": 13, "velocity": 127}, {"time": 2423, "pitch": 58, "duration": 3, "velocity": 100}, {"time": 2426, "pitch": 61, "duration": 6, "velocity": 86}, {"time": 2429, "pitch": 65, "duration": 4, "velocity": 69}, {"time": 2432, "pitch": 39, "duration": 20, "velocity": 100}, {"time": 2435, "pitch": 51, "duration": 11, "velocity": 72}, {"time": 2438, "pitch": 55, "duration": 9, "velocity": 72}, {"time": 2441, "pitch": 58, "duration": 3, "velocity": 92}, {"time": 2444, "pitch": 63, "duration": 11, "velocity": 122}, {"time": 2447, "pitch": 51, "duration": 7, "velocity": 90}, {"time": 2450, "pitch": 58, "duration": 5, "velocity": 107}, {"time": 2453, "pitch": 55, "duration": 2, "velocity": 92}, {"time": 2456, "pitch": 44, "duration": 21, "velocity": 85}, {"time": 2459, "pitch": 51, "duration": 19, "velocity": 39}, {"time": 2462, "pitch": 56, "duration": 7, "velocity": 99}, {"time": 2465, "pitch": 60, "duration": 6, "velocity": 79}, {"time": 2468, "pitch": 68, "duration": 9, "velocity": 127}, {"time": 2471, "pitch": 56, "duration": 8, "velocity": 95}, {"time": 2474, "pitch": 63, "duration": 4, "velocity": 107}, {"time": 2477, "pitch": 60, "duration": 2, "velocity": 97}, {"time": 2480, "pitch": 44, "duration": 18, "velocity": 93}, {"time": 2480, "pitch": 60, "duration": 7, "velocity": 79}, {"time": 2480, "pitch": 63, "duration": 9, "velocity": 127}, {"time": 2480, "pitch": 68, "duration": 9, "velocity": 112}, {"time": 2483, "pitch": 51, "duration": 13, "velocity": 73}, {"time": 2486, "pitch": 56, "duration": 7, "velocity": 107}, {"time": 2489, "pitch": 60, "duration": 6, "velocity": 93}, {"time": 2492, "pitch": 68, "duration": 10, "velocity": 127}, {"time": 2495, "pitch": 56, "duration": 2, "velocity": 102}, {"time": 2498, "pitch": 63, "duration": 4, "velocity": 112}, {"time": 2501, "pitch": 60, "duration": 5, "velocity": 112}, {"time": 2504, "pitch": 41, "duration": 17, "velocity": 69}, {"time": 2507, "pitch": 48, "duration": 14, "velocity": 81}, {"time": 2510, "pitch": 53, "duration": 7, "velocity": 90}, {"time": 2513, "pitch": 60, "duration": 6, "velocity": 95}, {"time": 2516, "pitch": 68, "duration": 10, "velocity": 117}, {"time": 2519, "pitch": 53, "duration": 2, "velocity": 85}, {"time": 2522, "pitch": 65, "duration": 5, "velocity": 90}, {"time": 2525, "pitch": 60, "duration": 3, "velocity": 97}, {"time": 2528, "pitch": 39, "duration": 17, "velocity": 73}, {"time": 2531, "pitch": 46, "duration": 14, "velocity": 65}, {"time": 2534, "pitch": 51, "duration": 8, "velocity": 99}, {"time": 2537, "pitch": 55, "duration": 6, "velocity": 82}, {"time": 2540, "pitch": 63, "duration": 11, "velocity": 112}, {"time": 2543, "pitch": 51, "duration": 2, "velocity": 96}, {"time": 2546, "pitch": 58, "duration": 5, "velocity": 100}, {"time": 2549, "pitch": 55, "duration": 2, "velocity": 90}, {"time": 2552, "pitch": 37, "duration": 17, "velocity": 93}, {"time": 2555, "pitch": 49, "duration": 11, "velocity": 97}, {"time": 2558, "pitch": 53, "duration": 8, "velocity": 89}, {"time": 2561, "pitch": 56, "duration": 3, "velocity": 76}, {"time": 2564, "pitch": 61, "duration": 12, "velocity": 117}, {"time": 2567, "pitch": 49, "duration": 3, "velocity": 93}, {"time": 2570, "pitch": 53, "duration": 5, "velocity": 93}, {"time": 2573, "pitch": 56, "duration": 3, "velocity": 107}, {"time": 2576, "pitch": 44, "duration": 16, "velocity": 88}, {"time": 2579, "pitch": 48, "duration": 12, "velocity": 61}, {"time": 2582, "pitch": 51, "duration": 7, "velocity": 92}, {"time": 2585, "pitch": 56, "duration": 5, "velocity": 86}, {"time": 2588, "pitch": 63, "duration": 6, "velocity": 102}, {"time": 2591, "pitch": 51, "duration": 3, "velocity": 95}, {"time": 2594, "pitch": 56, "duration": 4, "velocity": 112}, {"time": 2597, "pitch": 63, "duration": 2, "velocity": 97}, {"time": 2600, "pitch": 46, "duration": 18, "velocity": 93}, {"time": 2603, "pitch": 58, "duration": 11, "velocity": 92}, {"time": 2606, "pitch": 61, "duration": 8, "velocity": 85}, {"time": 2612, "pitch": 65, "duration": 11, "velocity": 83}, {"time": 2615, "pitch": 58, "duration": 2, "velocity": 86}, {"time": 2624, "pitch": 36, "duration": 15, "velocity": 51}, {"time": 2627, "pitch": 43, "duration": 12, "velocity": 67}, {"time": 2630, "pitch": 48, "duration": 9, "velocity": 86}, {"time": 2633, "pitch": 55, "duration": 15, "velocity": 72}, {"time": 2636, "pitch": 63, "duration": 12, "velocity": 112}, {"time": 2648, "pitch": 41, "duration": 22, "velocity": 86}, {"time": 2651, "pitch": 48, "duration": 21, "velocity": 83}, {"time": 2654, "pitch": 53, "duration": 7, "velocity": 92}, {"time": 2657, "pitch": 60, "duration": 5, "velocity": 99}, {"time": 2660, "pitch": 68, "duration": 21, "velocity": 127}, {"time": 2663, "pitch": 53, "duration": 9, "velocity": 89}, {"time": 2666, "pitch": 65, "duration": 15, "velocity": 107}, {"time": 2669, "pitch": 60, "duration": 10, "velocity": 99}, {"time": 2672, "pitch": 41, "duration": 22, "velocity": 86}, {"time": 2675, "pitch": 48, "duration": 20, "velocity": 79}, {"time": 2678, "pitch": 53, "duration": 7, "velocity": 93}, {"time": 2681, "pitch": 60, "duration": 7, "velocity": 95}, {"time": 2684, "pitch": 68, "duration": 11, "velocity": 127}, {"time": 2687, "pitch": 53, "duration": 6, "velocity": 97}, {"time": 2690, "pitch": 65, "duration": 6, "velocity": 117}, {"time": 2693, "pitch": 60, "duration": 3, "velocity": 102}, {"time": 2696, "pitch": 44, "duration": 17, "velocity": 96}, {"time": 2699, "pitch": 51, "duration": 13, "velocity": 89}, {"time": 2702, "pitch": 56, "duration": 6, "velocity": 99}, {"time": 2705, "pitch": 59, "duration": 5, "velocity": 90}, {"time": 2708, "pitch": 68, "duration": 10, "velocity": 127}, {"time": 2711, "pitch": 56, "duration": 2, "velocity": 100}, {"time": 2714, "pitch": 63, "duration": 5, "velocity": 107}, {"time": 2717, "pitch": 59, "duration": 3, "velocity": 99}, {"time": 2720, "pitch": 42, "duration": 19, "velocity": 107}, {"time": 2723, "pitch": 54, "duration": 11, "velocity": 100}, {"time": 2726, "pitch": 58, "duration": 5, "velocity": 112}, {"time": 2729, "pitch": 61, "duration": 2, "velocity": 100}, {"time": 2732, "pitch": 61, "duration": 6, "velocity": 127}, {"time": 2735, "pitch": 54, "duration": 3, "velocity": 107}, {"time": 2738, "pitch": 58, "duration": 6, "velocity": 102}, {"time": 2741, "pitch": 61, "duration": 3, "velocity": 127}, {"time": 2744, "pitch": 40, "duration": 16, "velocity": 82}, {"time": 2747, "pitch": 47, "duration": 13, "velocity": 97}, {"time": 2750, "pitch": 52, "duration": 7, "velocity": 95}, {"time": 2753, "pitch": 56, "duration": 3, "velocity": 107}, {"time": 2756, "pitch": 59, "duration": 5, "velocity": 112}, {"time": 2759, "pitch": 52, "duration": 3, "velocity": 88}, {"time": 2762, "pitch": 56, "duration": 4, "velocity": 102}, {"time": 2765, "pitch": 59, "duration": 2, "velocity": 100}, {"time": 2768, "pitch": 47, "duration": 17, "velocity": 88}, {"time": 2771, "pitch": 54, "duration": 10, "velocity": 92}, {"time": 2774, "pitch": 59, "duration": 8, "velocity": 88}, {"time": 2777, "pitch": 63, "duration": 3, "velocity": 112}, {"time": 2780, "pitch": 66, "duration": 10, "velocity": 127}, {"time": 2783, "pitch": 54, "duration": 2, "velocity": 99}, {"time": 2786, "pitch": 63, "duration": 5, "velocity": 127}, {"time": 2789, "pitch": 59, "duration": 5, "velocity": 112}, {"time": 2792, "pitch": 44, "duration": 18, "velocity": 112}, {"time": 2795, "pitch": 56, "duration": 11, "velocity": 107}, {"time": 2798, "pitch": 59, "duration": 7, "velocity": 99}, {"time": 2801, "pitch": 63, "duration": 2, "velocity": 99}, {"time": 2804, "pitch": 68, "duration": 10, "velocity": 122}, {"time": 2807, "pitch": 56, "duration": 2, "velocity": 100}, {"time": 2810, "pitch": 63, "duration": 4, "velocity": 112}, {"time": 2813, "pitch": 59, "duration": 3, "velocity": 112}, {"time": 2816, "pitch": 42, "duration": 18, "velocity": 112}, {"time": 2819, "pitch": 54, "duration": 10, "velocity": 96}, {"time": 2822, "pitch": 58, "duration": 6, "velocity": 90}, {"time": 2828, "pitch": 63, "duration": 7, "velocity": 127}, {"time": 2831, "pitch": 54, "duration": 2, "velocity": 100}, {"time": 2834, "pitch": 58, "duration": 4, "velocity": 122}, {"time": 2837, "pitch": 63, "duration": 3, "velocity": 127}, {"time": 2840, "pitch": 40, "duration": 22, "velocity": 73}, {"time": 2843, "pitch": 47, "duration": 22, "velocity": 85}, {"time": 2846, "pitch": 52, "duration": 7, "velocity": 93}, {"time": 2849, "pitch": 56, "duration": 5, "velocity": 83}, {"time": 2852, "pitch": 64, "duration": 19, "velocity": 67}, {"time": 2855, "pitch": 52, "duration": 10, "velocity": 86}, {"time": 2858, "pitch": 56, "duration": 9, "velocity": 96}, {"time": 2861, "pitch": 59, "duration": 11, "velocity": 69}, {"time": 2864, "pitch": 40, "duration": 12, "velocity": 86}, {"time": 2867, "pitch": 47, "duration": 10, "velocity": 95}, {"time": 2870, "pitch": 52, "duration": 6, "velocity": 117}, {"time": 2873, "pitch": 56, "duration": 4, "velocity": 100}, {"time": 2873, "pitch": 59, "duration": 1, "velocity": 55}, {"time": 2876, "pitch": 64, "duration": 11, "velocity": 93}, {"time": 2879, "pitch": 56, "duration": 4, "velocity": 107}, {"time": 2882, "pitch": 59, "duration": 4, "velocity": 71}, {"time": 2885, "pitch": 56, "duration": 3, "velocity": 117}, {"time": 2888, "pitch": 37, "duration": 17, "velocity": 95}, {"time": 2891, "pitch": 44, "duration": 13, "velocity": 83}, {"time": 2894, "pitch": 49, "duration": 7, "velocity": 102}, {"time": 2897, "pitch": 52, "duration": 6, "velocity": 90}, {"time": 2900, "pitch": 61, "duration": 11, "velocity": 127}, {"time": 2903, "pitch": 49, "duration": 4, "velocity": 97}, {"time": 2906, "pitch": 56, "duration": 5, "velocity": 100}, {"time": 2909, "pitch": 52, "duration": 2, "velocity": 107}, {"time": 2912, "pitch": 42, "duration": 18, "velocity": 122}, {"time": 2915, "pitch": 54, "duration": 11, "velocity": 100}, {"time": 2918, "pitch": 58, "duration": 6, "velocity": 112}, {"time": 2921, "pitch": 61, "duration": 3, "velocity": 117}, {"time": 2924, "pitch": 66, "duration": 9, "velocity": 117}, {"time": 2927, "pitch": 54, "duration": 3, "velocity": 89}, {"time": 2930, "pitch": 58, "duration": 5, "velocity": 107}, {"time": 2933, "pitch": 39, "duration": 1, "velocity": 37}, {"time": 2933, "pitch": 61, "duration": 2, "velocity": 112}, {"time": 2936, "pitch": 39, "duration": 11, "velocity": 100}, {"time": 2939, "pitch": 51, "duration": 3, "velocity": 99}, {"time": 2942, "pitch": 58, "duration": 4, "velocity": 107}, {"time": 2945, "pitch": 51, "duration": 3, "velocity": 117}, {"time": 2948, "pitch": 43, "duration": 7, "velocity": 99}, {"time": 2951, "pitch": 51, "duration": 4, "velocity": 99}, {"time": 2954, "pitch": 55, "duration": 5, "velocity": 72}, {"time": 2957, "pitch": 51, "duration": 3, "velocity": 117}, {"time": 2960, "pitch": 44, "duration": 18, "velocity": 93}, {"time": 2963, "pitch": 51, "duration": 13, "velocity": 42}, {"time": 2966, "pitch": 56, "duration": 7, "velocity": 97}, {"time": 2969, "pitch": 59, "duration": 7, "velocity": 90}, {"time": 2972, "pitch": 68, "duration": 11, "velocity": 127}, {"time": 2975, "pitch": 56, "duration": 2, "velocity": 99}, {"time": 2978, "pitch": 63, "duration": 5, "velocity": 117}, {"time": 2981, "pitch": 59, "duration": 4, "velocity": 88}, {"time": 2984, "pitch": 36, "duration": 46, "velocity": 79}, {"time": 2990, "pitch": 43, "duration": 42, "velocity": 47}, {"time": 2996, "pitch": 48, "duration": 17, "velocity": 72}, {"time": 3002, "pitch": 55, "duration": 4, "velocity": 69}, {"time": 3008, "pitch": 55, "duration": 10, "velocity": 100}, {"time": 3008, "pitch": 60, "duration": 11, "velocity": 93}, {"time": 3014, "pitch": 48, "duration": 7, "velocity": 50}, {"time": 3020, "pitch": 55, "duration": 12, "velocity": 107}, {"time": 3020, "pitch": 60, "duration": 12, "velocity": 107}, {"time": 3026, "pitch": 48, "duration": 7, "velocity": 63}, {"time": 3032, "pitch": 38, "duration": 46, "velocity": 99}, {"time": 3038, "pitch": 45, "duration": 24, "velocity": 70}, {"time": 3044, "pitch": 50, "duration": 21, "velocity": 96}, {"time": 3050, "pitch": 55, "duration": 7, "velocity": 97}, {"time": 3056, "pitch": 57, "duration": 13, "velocity": 102}, {"time": 3062, "pitch": 45, "duration": 17, "velocity": 69}, {"time": 3068, "pitch": 55, "duration": 7, "velocity": 122}, {"time": 3074, "pitch": 57, "duration": 5, "velocity": 83}, {"time": 3080, "pitch": 38, "duration": 33, "velocity": 59}, {"time": 3080, "pitch": 45, "duration": 33, "velocity": 59}, {"time": 3080, "pitch": 50, "duration": 34, "velocity": 95}, {"time": 3080, "pitch": 54, "duration": 34, "velocity": 100}, {"time": 3080, "pitch": 57, "duration": 34, "velocity": 89}, {"time": 3128, "pitch": 43, "duration": 17, "velocity": 82}, {"time": 3134, "pitch": 50, "duration": 11, "velocity": 66}, {"time": 3140, "pitch": 62, "duration": 13, "velocity": 89}, {"time": 3146, "pitch": 55, "duration": 7, "velocity": 66}, {"time": 3152, "pitch": 41, "duration": 15, "velocity": 69}, {"time": 3158, "pitch": 48, "duration": 8, "velocity": 56}, {"time": 3164, "pitch": 60, "duration": 12, "velocity": 92}, {"time": 3176, "pitch": 39, "duration": 15, "velocity": 95}, {"time": 3182, "pitch": 51, "duration": 11, "velocity": 74}, {"time": 3188, "pitch": 58, "duration": 13, "velocity": 89}, {"time": 3194, "pitch": 55, "duration": 7, "velocity": 69}, {"time": 3200, "pitch": 46, "duration": 20, "velocity": 72}, {"time": 3206, "pitch": 50, "duration": 13, "velocity": 36}, {"time": 3212, "pitch": 53, "duration": 7, "velocity": 56}, {"time": 3212, "pitch": 58, "duration": 12, "velocity": 75}, {"time": 3218, "pitch": 62, "duration": 6, "velocity": 69}, {"time": 3224, "pitch": 36, "duration": 15, "velocity": 81}, {"time": 3230, "pitch": 43, "duration": 9, "velocity": 56}, {"time": 3236, "pitch": 48, "duration": 10, "velocity": 82}, {"time": 3236, "pitch": 60, "duration": 13, "velocity": 95}, {"time": 3236, "pitch": 63, "duration": 12, "velocity": 112}, {"time": 3242, "pitch": 55, "duration": 7, "velocity": 85}, {"time": 3248, "pitch": 41, "duration": 14, "velocity": 93}, {"time": 3254, "pitch": 48, "duration": 9, "velocity": 79}, {"time": 3260, "pitch": 57, "duration": 9, "velocity": 92}, {"time": 3260, "pitch": 60, "duration": 9, "velocity": 90}, {"time": 3266, "pitch": 53, "duration": 4, "velocity": 88}, {"time": 3272, "pitch": 46, "duration": 19, "velocity": 112}, {"time": 3275, "pitch": 50, "duration": 15, "velocity": 61}, {"time": 3278, "pitch": 53, "duration": 12, "velocity": 85}, {"time": 3281, "pitch": 58, "duration": 3, "velocity": 96}, {"time": 3284, "pitch": 65, "duration": 7, "velocity": 79}, {"time": 3287, "pitch": 62, "duration": 4, "velocity": 71}, {"time": 3290, "pitch": 58, "duration": 1, "velocity": 107}, {"time": 3293, "pitch": 46, "duration": 1, "velocity": 112}, {"time": 3293, "pitch": 50, "duration": 1, "velocity": 107}, {"time": 3293, "pitch": 53, "duration": 1, "velocity": 112}, {"time": 3293, "pitch": 58, "duration": 1, "velocity": 127}, {"time": 3293, "pitch": 62, "duration": 1, "velocity": 112}, {"time": 3293, "pitch": 65, "duration": 1, "velocity": 95}, {"time": 3299, "pitch": 46, "duration": 12, "velocity": 127}, {"time": 3299, "pitch": 50, "duration": 11, "velocity": 112}, {"time": 3299, "pitch": 53, "duration": 11, "velocity": 112}, {"time": 3299, "pitch": 58, "duration": 13, "velocity": 127}, {"time": 3299, "pitch": 62, "duration": 13, "velocity": 107}, {"time": 3299, "pitch": 65, "duration": 12, "velocity": 97}, {"time": 3320, "pitch": 43, "duration": 22, "velocity": 88}, {"time": 3323, "pitch": 50, "duration": 10, "velocity": 89}, {"time": 3326, "pitch": 55, "duration": 4, "velocity": 89}, {"time": 3329, "pitch": 58, "duration": 2, "velocity": 96}, {"time": 3332, "pitch": 62, "duration": 12, "velocity": 112}, {"time": 3335, "pitch": 50, "duration": 7, "velocity": 90}, {"time": 3338, "pitch": 58, "duration": 6, "velocity": 127}, {"time": 3341, "pitch": 55, "duration": 3, "velocity": 97}, {"time": 3344, "pitch": 41, "duration": 17, "velocity": 79}, {"time": 3347, "pitch": 48, "duration": 14, "velocity": 92}, {"time": 3350, "pitch": 53, "duration": 7, "velocity": 95}, {"time": 3353, "pitch": 60, "duration": 7, "velocity": 95}, {"time": 3356, "pitch": 69, "duration": 10, "velocity": 99}, {"time": 3359, "pitch": 53, "duration": 2, "velocity": 86}, {"time": 3362, "pitch": 65, "duration": 4, "velocity": 102}, {"time": 3365, "pitch": 60, "duration": 2, "velocity": 97}, {"time": 3368, "pitch": 39, "duration": 9, "velocity": 99}, {"time": 3371, "pitch": 51, "duration": 6, "velocity": 107}, {"time": 3374, "pitch": 63, "duration": 3, "velocity": 122}, {"time": 3377, "pitch": 55, "duration": 3, "velocity": 88}, {"time": 3380, "pitch": 41, "duration": 8, "velocity": 102}, {"time": 3383, "pitch": 53, "duration": 7, "velocity": 81}, {"time": 3386, "pitch": 57, "duration": 4, "velocity": 99}, {"time": 3389, "pitch": 60, "duration": 2, "velocity": 96}, {"time": 3392, "pitch": 46, "duration": 21, "velocity": 127}, {"time": 3395, "pitch": 50, "duration": 15, "velocity": 78}, {"time": 3398, "pitch": 53, "duration": 7, "velocity": 89}, {"time": 3401, "pitch": 58, "duration": 2, "velocity": 93}, {"time": 3404, "pitch": 65, "duration": 6, "velocity": 96}, {"time": 3407, "pitch": 53, "duration": 4, "velocity": 85}, {"time": 3410, "pitch": 62, "duration": 6, "velocity": 89}, {"time": 3413, "pitch": 58, "duration": 3, "velocity": 102}, {"time": 3416, "pitch": 36, "duration": 22, "velocity": 90}, {"time": 3419, "pitch": 43, "duration": 21, "velocity": 95}, {"time": 3422, "pitch": 48, "duration": 7, "velocity": 93}, {"time": 3425, "pitch": 55, "duration": 5, "velocity": 92}, {"time": 3428, "pitch": 63, "duration": 11, "velocity": 122}, {"time": 3431, "pitch": 48, "duration": 3, "velocity": 83}, {"time": 3434, "pitch": 60, "duration": 5, "velocity": 95}, {"time": 3437, "pitch": 55, "duration": 3, "velocity": 90}, {"time": 3440, "pitch": 38, "duration": 16, "velocity": 83}, {"time": 3443, "pitch": 45, "duration": 13, "velocity": 90}, {"time": 3446, "pitch": 50, "duration": 17, "velocity": 86}, {"time": 3449, "pitch": 57, "duration": 15, "velocity": 79}, {"time": 3452, "pitch": 65, "duration": 12, "velocity": 100}, {"time": 3458, "pitch": 62, "duration": 6, "velocity": 100}, {"time": 3464, "pitch": 39, "duration": 49, "velocity": 86}, {"time": 3468, "pitch": 46, "duration": 45, "velocity": 71}, {"time": 3471, "pitch": 51, "duration": 42, "velocity": 93}, {"time": 3475, "pitch": 55, "duration": 8, "velocity": 92}, {"time": 3480, "pitch": 58, "duration": 7, "velocity": 99}, {"time": 3484, "pitch": 63, "duration": 3, "velocity": 107}, {"time": 3488, "pitch": 58, "duration": 25, "velocity": 72}, {"time": 3488, "pitch": 63, "duration": 25, "velocity": 127}, {"time": 3500, "pitch": 55, "duration": 13, "velocity": 82}, {"time": 3514, "pitch": 55, "duration": 18, "velocity": 33}, {"time": 3514, "pitch": 60, "duration": 18, "velocity": 52}, {"time": 3515, "pitch": 43, "duration": 17, "velocity": 36}, {"time": 3515, "pitch": 36, "duration": 17, "velocity": 33}, {"time": 3515, "pitch": 48, "duration": 16, "velocity": 31}, {"time": 3516, "pitch": 63, "duration": 17, "velocity": 56}, {"time": 3547, "pitch": 57, "duration": 64, "velocity": 38}, {"time": 3548, "pitch": 62, "duration": 62, "velocity": 37}, {"time": 3549, "pitch": 38, "duration": 62, "velocity": 34}, {"time": 3549, "pitch": 50, "duration": 62, "velocity": 31}, {"time": 3549, "pitch": 45, "duration": 62, "velocity": 29}, {"time": 3550, "pitch": 65, "duration": 61, "velocity": 40}, {"time": 3611, "pitch": 43, "duration": 58, "velocity": 72}, {"time": 3619, "pitch": 50, "duration": 50, "velocity": 41}, {"time": 3628, "pitch": 55, "duration": 41, "velocity": 88}, {"time": 3634, "pitch": 62, "duration": 9, "velocity": 72}, {"time": 3642, "pitch": 67, "duration": 2, "velocity": 64}, {"time": 3650, "pitch": 74, "duration": 10, "velocity": 70}, {"time": 3659, "pitch": 79, "duration": 8, "velocity": 52}, {"time": 3666, "pitch": 74, "duration": 2, "velocity": 70}, {"time": 3675, "pitch": 43, "duration": 78, "velocity": 46}, {"time": 3678, "pitch": 50, "duration": 75, "velocity": 26}, {"time": 3678, "pitch": 55, "duration": 75, "velocity": 36}, {"time": 3679, "pitch": 67, "duration": 74, "velocity": 41}, {"time": 3680, "pitch": 71, "duration": 73, "velocity": 48}, {"time": 3682, "pitch": 74, "duration": 71, "velocity": 35}], "annotations": [{"time": 8, "annotation": {"number": 64, "value": 127}, "group": "control_change"}, {"time": 54, "annotation": {"number": 64, "value": 0}, "group": "control_change"}, {"time": 57, "annotation": {"number": 64, "value": 127}, "group": "control_change"}, {"time": 100, "annotation": {"number": 64, "value": 0}, "group": "control_change"}, {"time": 104, "annotation": {"number": 64, "value": 127}, "group": "control_change"}, {"time": 126, "annotation": {"number": 64, "value": 0}, "group": "control_change"}, {"time": 128, "annotation": {"number": 64, "value": 127}, "group": "control_change"}, {"time": 199, "annotation": {"number": 64, "value": 0}, "group": "control_change"}, {"time": 211, "annotation": {"number": 64, "value": 127}, "group": "control_change"}, {"time": 227, "annotation": {"number": 64, "value": 0}, "group": "control_change"}, {"time": 231, "annotation": {"number": 64, "value": 127}, "group": "control_change"}, {"time": 247, "annotation": {"number": 64, "value": 0}, "group": "control_change"}, {"time": 248, "annotation": {"number": 64, "value": 127}, "group": "control_change"}, {"time": 270, "annotation": {"number": 64, "value": 0}, "group": "control_change"}, {"time": 276, "annotation": {"number": 64, "value": 127}, "group": "control_change"}, {"time": 294, "annotation": {"number": 64, "value": 0}, "group": "control_change"}, {"time": 297, "annotation": {"number": 64, "value": 127}, "group": "control_change"}, {"time": 318, "annotation": {"number": 64, "value": 0}, "group": "control_change"}, {"time": 321, "annotation": {"number": 64, "value": 127}, "group": "control_change"}, {"time": 341, "annotation": {"number": 64, "value": 0}, "group": "control_change"}, {"time": 344, "annotation": {"number": 64, "value": 127}, "group": "control_change"}, {"time": 366, "annotation": {"number": 64, "value": 0}, "group": "control_change"}, {"time": 369, "annotation": {"number": 64, "value": 127}, "group": "control_change"}, {"time": 389, "annotation": {"number": 64, "value": 0}, "group": "control_change"}, {"time": 392, "annotation": {"number": 64, "value": 127}, "group": "control_change"}, {"time": 414, "annotation": {"number": 64, "value": 0}, "group": "control_change"}, {"time": 416, "annotation": {"number": 64, "value": 127}, "group": "control_change"}, {"time": 437, "annotation": {"number": 64, "value": 0}, "group": "control_change"}, {"time": 440, "annotation": {"number": 64, "value": 127}, "group": "control_change"}, {"time": 451, "annotation": {"number": 64, "value": 0}, "group": "control_change"}, {"time": 453, "annotation": {"number": 64, "value": 127}, "group": "control_change"}, {"time": 462, "annotation": {"number": 64, "value": 0}, "group": "control_change"}, {"time": 465, "annotation": {"number": 64, "value": 127}, "group": "control_change"}, {"time": 485, "annotation": {"number": 64, "value": 0}, "group": "control_change"}, {"time": 488, "annotation": {"number": 64, "value": 127}, "group": "control_change"}, {"time": 508, "annotation": {"number": 64, "value": 0}, "group": "control_change"}, {"time": 512, "annotation": {"number": 64, "value": 127}, "group": "control_change"}, {"time": 533, "annotation": {"number": 64, "value": 0}, "group": "control_change"}, {"time": 536, "annotation": {"number": 64, "value": 127}, "group": "control_change"}, {"time": 581, "annotation": {"number": 64, "value": 0}, "group": "control_change"}, {"time": 584, "annotation": {"number": 64, "value": 127}, "group": "control_change"}, {"time": 629, "annotation": {"number": 64, "value": 0}, "group": "control_change"}, {"time": 633, "annotation": {"number": 64, "value": 127}, "group": "control_change"}, {"time": 654, "annotation": {"number": 64, "value": 0}, "group": "control_change"}, {"time": 656, "annotation": {"number": 64, "value": 127}, "group": "control_change"}, {"time": 677, "annotation": {"number": 64, "value": 0}, "group": "control_change"}, {"time": 681, "annotation": {"number": 64, "value": 127}, "group": "control_change"}, {"time": 726, "annotation": {"number": 64, "value": 0}, "group": "control_change"}, {"time": 729, "annotation": {"number": 64, "value": 127}, "group": "control_change"}, {"time": 768, "annotation": {"number": 64, "value": 0}, "group": "control_change"}, {"time": 776, "annotation": {"number": 64, "value": 127}, "group": "control_change"}, {"time": 797, "annotation": {"number": 64, "value": 0}, "group": "control_change"}, {"time": 800, "annotation": {"number": 64, "value": 127}, "group": "control_change"}, {"time": 821, "annotation": {"number": 64, "value": 0}, "group": "control_change"}, {"time": 824, "annotation": {"number": 64, "value": 127}, "group": "control_change"}, {"time": 846, "annotation": {"number": 64, "value": 0}, "group": "control_change"}, {"time": 849, "annotation": {"number": 64, "value": 127}, "group": "control_change"}, {"time": 869, "annotation": {"number": 64, "value": 0}, "group": "control_change"}, {"time": 872, "annotation": {"number": 64, "value": 127}, "group": "control_change"}, {"time": 894, "annotation": {"number": 64, "value": 0}, "group": "control_change"}, {"time": 897, "annotation": {"number": 64, "value": 127}, "group": "control_change"}, {"time": 918, "annotation": {"number": 64, "value": 0}, "group": "control_change"}, {"time": 921, "annotation": {"number": 64, "value": 127}, "group": "control_change"}, {"time": 942, "annotation": {"number": 64, "value": 0}, "group": "control_change"}, {"time": 944, "annotation": {"number": 64, "value": 127}, "group": "control_change"}, {"time": 965, "annotation": {"number": 64, "value": 0}, "group": "control_change"}, {"time": 969, "annotation": {"number": 64, "value": 127}, "group": "control_change"}, {"time": 990, "annotation": {"number": 64, "value": 0}, "group": "control_change"}, {"time": 993, "annotation": {"number": 64, "value": 127}, "group": "control_change"}, {"time": 1013, "annotation": {"number": 64, "value": 0}, "group": "control_change"}, {"time": 1016, "annotation": {"number": 64, "value": 127}, "group": "control_change"}, {"time": 1038, "annotation": {"number": 64, "value": 0}, "group": "control_change"}, {"time": 1041, "annotation": {"number": 64, "value": 127}, "group": "control_change"}, {"time": 1062, "annotation": {"number": 64, "value": 0}, "group": "control_change"}, {"time": 1065, "annotation": {"number": 64, "value": 127}, "group": "control_change"}, {"time": 1086, "annotation": {"number": 64, "value": 0}, "group": "control_change"}, {"time": 1088, "annotation": {"number": 64, "value": 127}, "group": "control_change"}, {"time": 1109, "annotation": {"number": 64, "value": 0}, "group": "control_change"}, {"time": 1112, "annotation": {"number": 64, "value": 127}, "group": "control_change"}, {"time": 1135, "annotation": {"number": 64, "value": 0}, "group": "control_change"}, {"time": 1165, "annotation": {"number": 64, "value": 127}, "group": "control_change"}, {"time": 1182, "annotation": {"number": 64, "value": 0}, "group": "control_change"}, {"time": 1184, "annotation": {"number": 64, "value": 127}, "group": "control_change"}, {"time": 1205, "annotation": {"number": 64, "value": 0}, "group": "control_change"}, {"time": 1208, "annotation": {"number": 64, "value": 127}, "group": "control_change"}, {"time": 1229, "annotation": {"number": 64, "value": 0}, "group": "control_change"}, {"time": 1232, "annotation": {"number": 64, "value": 127}, "group": "control_change"}, {"time": 1254, "annotation": {"number": 64, "value": 0}, "group": "control_change"}, {"time": 1256, "annotation": {"number": 64, "value": 127}, "group": "control_change"}, {"time": 1277, "annotation": {"number": 64, "value": 0}, "group": "control_change"}, {"time": 1280, "annotation": {"number": 64, "value": 127}, "group": "control_change"}, {"time": 1301, "annotation": {"number": 64, "value": 0}, "group": "control_change"}, {"time": 1305, "annotation": {"number": 64, "value": 127}, "group": "control_change"}, {"time": 1328, "annotation": {"number": 64, "value": 0}, "group": "control_change"}, {"time": 1363, "annotation": {"number": 64, "value": 127}, "group": "control_change"}, {"time": 1379, "annotation": {"number": 64, "value": 0}, "group": "control_change"}, {"time": 1383, "annotation": {"number": 64, "value": 127}, "group": "control_change"}, {"time": 1399, "annotation": {"number": 64, "value": 0}, "group": "control_change"}, {"time": 1400, "annotation": {"number": 64, "value": 127}, "group": "control_change"}, {"time": 1422, "annotation": {"number": 64, "value": 0}, "group": "control_change"}, {"time": 1428, "annotation": {"number": 64, "value": 127}, "group": "control_change"}, {"time": 1446, "annotation": {"number": 64, "value": 0}, "group": "control_change"}, {"time": 1449, "annotation": {"number": 64, "value": 127}, "group": "control_change"}, {"time": 1470, "annotation": {"number": 64, "value": 0}, "group": "control_change"}, {"time": 1473, "annotation": {"number": 64, "value": 127}, "group": "control_change"}, {"time": 1493, "annotation": {"number": 64, "value": 0}, "group": "control_change"}, {"time": 1496, "annotation": {"number": 64, "value": 127}, "group": "control_change"}, {"time": 1518, "annotation": {"number": 64, "value": 0}, "group": "control_change"}, {"time": 1521, "annotation": {"number": 64, "value": 127}, "group": "control_change"}, {"time": 1541, "annotation": {"number": 64, "value": 0}, "group": "control_change"}, {"time": 1544, "annotation": {"number": 64, "value": 127}, "group": "control_change"}, {"time": 1566, "annotation": {"number": 64, "value": 0}, "group": "control_change"}, {"time": 1568, "annotation": {"number": 64, "value": 127}, "group": "control_change"}, {"time": 1589, "annotation": {"number": 64, "value": 0}, "group": "control_change"}, {"time": 1592, "annotation": {"number": 64, "value": 127}, "group": "control_change"}, {"time": 1603, "annotation": {"number": 64, "value": 0}, "group": "control_change"}, {"time": 1605, "annotation": {"number": 64, "value": 127}, "group": "control_change"}, {"time": 1614, "annotation": {"number": 64, "value": 0}, "group": "control_change"}, {"time": 1617, "annotation": {"number": 64, "value": 127}, "group": "control_change"}, {"time": 1637, "annotation": {"number": 64, "value": 0}, "group": "control_change"}, {"time": 1640, "annotation": {"number": 64, "value": 127}, "group": "control_change"}, {"time": 1660, "annotation": {"number": 64, "value": 0}, "group": "control_change"}, {"time": 1664, "annotation": {"number": 64, "value": 127}, "group": "control_change"}, {"time": 1685, "annotation": {"number": 64, "value": 0}, "group": "control_change"}, {"time": 1688, "annotation": {"number": 64, "value": 127}, "group": "control_change"}, {"time": 1733, "annotation": {"number": 64, "value": 0}, "group": "control_change"}, {"time": 1736, "annotation": {"number": 64, "value": 127}, "group": "control_change"}, {"time": 1781, "annotation": {"number": 64, "value": 0}, "group": "control_change"}, {"time": 1785, "annotation": {"number": 64, "value": 127}, "group": "control_change"}, {"time": 1806, "annotation": {"number": 64, "value": 0}, "group": "control_change"}, {"time": 1808, "annotation": {"number": 64, "value": 127}, "group": "control_change"}, {"time": 1829, "annotation": {"number": 64, "value": 0}, "group": "control_change"}, {"time": 1833, "annotation": {"number": 64, "value": 127}, "group": "control_change"}, {"time": 1878, "annotation": {"number": 64, "value": 0}, "group": "control_change"}, {"time": 1881, "annotation": {"number": 64, "value": 127}, "group": "control_change"}, {"time": 1920, "annotation": {"number": 64, "value": 0}, "group": "control_change"}, {"time": 1928, "annotation": {"number": 64, "value": 127}, "group": "control_change"}, {"time": 1949, "annotation": {"number": 64, "value": 0}, "group": "control_change"}, {"time": 1952, "annotation": {"number": 64, "value": 127}, "group": "control_change"}, {"time": 1973, "annotation": {"number": 64, "value": 0}, "group": "control_change"}, {"time": 1976, "annotation": {"number": 64, "value": 127}, "group": "control_change"}, {"time": 1998, "annotation": {"number": 64, "value": 0}, "group": "control_change"}, {"time": 2001, "annotation": {"number": 64, "value": 127}, "group": "control_change"}, {"time": 2021, "annotation": {"number": 64, "value": 0}, "group": "control_change"}, {"time": 2024, "annotation": {"number": 64, "value": 127}, "group": "control_change"}, {"time": 2046, "annotation": {"number": 64, "value": 0}, "group": "control_change"}, {"time": 2049, "annotation": {"number": 64, "value": 127}, "group": "control_change"}, {"time": 2070, "annotation": {"number": 64, "value": 0}, "group": "control_change"}, {"time": 2073, "annotation": {"number": 64, "value": 127}, "group": "control_change"}, {"time": 2094, "annotation": {"number": 64, "value": 0}, "group": "control_change"}, {"time": 2096, "annotation": {"number": 64, "value": 127}, "group": "control_change"}, {"time": 2117, "annotation": {"number": 64, "value": 0}, "group": "control_change"}, {"time": 2121, "annotation": {"number": 64, "value": 127}, "group": "control_change"}, {"time": 2142, "annotation": {"number": 64, "value": 0}, "group": "control_change"}, {"time": 2145, "annotation": {"number": 64, "value": 127}, "group": "control_change"}, {"time": 2165, "annotation": {"number": 64, "value": 0}, "group": "control_change"}, {"time": 2168, "annotation": {"number": 64, "value": 127}, "group": "control_change"}, {"time": 2190, "annotation": {"number": 64, "value": 0}, "group": "control_change"}, {"time": 2193, "annotation": {"number": 64, "value": 127}, "group": "control_change"}, {"time": 2214, "annotation": {"number": 64, "value": 0}, "group": "control_change"}, {"time": 2217, "annotation": {"number": 64, "value": 127}, "group": "control_change"}, {"time": 2238, "annotation": {"number": 64, "value": 0}, "group": "control_change"}, {"time": 2240, "annotation": {"number": 64, "value": 127}, "group": "control_change"}, {"time": 2261, "annotation": {"number": 64, "value": 0}, "group": "control_change"}, {"time": 2263, "annotation": {"number": 64, "value": 127}, "group": "control_change"}, {"time": 2267, "annotation": {"number": 64, "value": 0}, "group": "control_change"}, {"time": 2312, "annotation": {"number": 64, "value": 127}, "group": "control_change"}, {"time": 2333, "annotation": {"number": 64, "value": 0}, "group": "control_change"}, {"time": 2336, "annotation": {"number": 64, "value": 127}, "group": "control_change"}, {"time": 2357, "annotation": {"number": 64, "value": 0}, "group": "control_change"}, {"time": 2360, "annotation": {"number": 64, "value": 127}, "group": "control_change"}, {"time": 2382, "annotation": {"number": 64, "value": 0}, "group": "control_change"}, {"time": 2385, "annotation": {"number": 64, "value": 127}, "group": "control_change"}, {"time": 2405, "annotation": {"number": 64, "value": 0}, "group": "control_change"}, {"time": 2408, "annotation": {"number": 64, "value": 127}, "group": "control_change"}, {"time": 2430, "annotation": {"number": 64, "value": 0}, "group": "control_change"}, {"time": 2433, "annotation": {"number": 64, "value": 127}, "group": "control_change"}, {"time": 2454, "annotation": {"number": 64, "value": 0}, "group": "control_change"}, {"time": 2457, "annotation": {"number": 64, "value": 127}, "group": "control_change"}, {"time": 2478, "annotation": {"number": 64, "value": 0}, "group": "control_change"}, {"time": 2480, "annotation": {"number": 64, "value": 127}, "group": "control_change"}, {"time": 2501, "annotation": {"number": 64, "value": 0}, "group": "control_change"}, {"time": 2505, "annotation": {"number": 64, "value": 127}, "group": "control_change"}, {"time": 2526, "annotation": {"number": 64, "value": 0}, "group": "control_change"}, {"time": 2529, "annotation": {"number": 64, "value": 127}, "group": "control_change"}, {"time": 2549, "annotation": {"number": 64, "value": 0}, "group": "control_change"}, {"time": 2552, "annotation": {"number": 64, "value": 127}, "group": "control_change"}, {"time": 2574, "annotation": {"number": 64, "value": 0}, "group": "control_change"}, {"time": 2577, "annotation": {"number": 64, "value": 127}, "group": "control_change"}, {"time": 2598, "annotation": {"number": 64, "value": 0}, "group": "control_change"}, {"time": 2601, "annotation": {"number": 64, "value": 127}, "group": "control_change"}, {"time": 2622, "annotation": {"number": 64, "value": 0}, "group": "control_change"}, {"time": 2624, "annotation": {"number": 64, "value": 127}, "group": "control_change"}, {"time": 2645, "annotation": {"number": 64, "value": 0}, "group": "control_change"}, {"time": 2647, "annotation": {"number": 64, "value": 127}, "group": "control_change"}, {"time": 2649, "annotation": {"number": 64, "value": 127}, "group": "control_change"}, {"time": 2669, "annotation": {"number": 64, "value": 0}, "group": "control_change"}, {"time": 2672, "annotation": {"number": 64, "value": 127}, "group": "control_change"}, {"time": 2693, "annotation": {"number": 64, "value": 0}, "group": "control_change"}, {"time": 2697, "annotation": {"number": 64, "value": 127}, "group": "control_change"}, {"time": 2718, "annotation": {"number": 64, "value": 0}, "group": "control_change"}, {"time": 2720, "annotation": {"number": 64, "value": 127}, "group": "control_change"}, {"time": 2742, "annotation": {"number": 64, "value": 0}, "group": "control_change"}, {"time": 2745, "annotation": {"number": 64, "value": 127}, "group": "control_change"}, {"time": 2766, "annotation": {"number": 64, "value": 0}, "group": "control_change"}, {"time": 2769, "annotation": {"number": 64, "value": 127}, "group": "control_change"}, {"time": 2790, "annotation": {"number": 64, "value": 0}, "group": "control_change"}, {"time": 2792, "annotation": {"number": 64, "value": 127}, "group": "control_change"}, {"time": 2814, "annotation": {"number": 64, "value": 0}, "group": "control_change"}, {"time": 2817, "annotation": {"number": 64, "value": 127}, "group": "control_change"}, {"time": 2838, "annotation": {"number": 64, "value": 0}, "group": "control_change"}, {"time": 2841, "annotation": {"number": 64, "value": 127}, "group": "control_change"}, {"time": 2862, "annotation": {"number": 64, "value": 0}, "group": "control_change"}, {"time": 2864, "annotation": {"number": 64, "value": 127}, "group": "control_change"}, {"time": 2886, "annotation": {"number": 64, "value": 0}, "group": "control_change"}, {"time": 2889, "annotation": {"number": 64, "value": 127}, "group": "control_change"}, {"time": 2910, "annotation": {"number": 64, "value": 0}, "group": "control_change"}, {"time": 2913, "annotation": {"number": 64, "value": 127}, "group": "control_change"}, {"time": 2934, "annotation": {"number": 64, "value": 0}, "group": "control_change"}, {"time": 2936, "annotation": {"number": 64, "value": 127}, "group": "control_change"}, {"time": 2946, "annotation": {"number": 64, "value": 0}, "group": "control_change"}, {"time": 2960, "annotation": {"number": 64, "value": 127}, "group": "control_change"}, {"time": 2982, "annotation": {"number": 64, "value": 0}, "group": "control_change"}, {"time": 2985, "annotation": {"number": 64, "value": 127}, "group": "control_change"}, {"time": 3030, "annotation": {"number": 64, "value": 0}, "group": "control_change"}, {"time": 3032, "annotation": {"number": 64, "value": 127}, "group": "control_change"}, {"time": 3079, "annotation": {"number": 64, "value": 0}, "group": "control_change"}, {"time": 3103, "annotation": {"number": 64, "value": 127}, "group": "control_change"}, {"time": 3125, "annotation": {"number": 64, "value": 0}, "group": "control_change"}, {"time": 3129, "annotation": {"number": 64, "value": 127}, "group": "control_change"}, {"time": 3149, "annotation": {"number": 64, "value": 0}, "group": "control_change"}, {"time": 3152, "annotation": {"number": 64, "value": 127}, "group": "control_change"}, {"time": 3173, "annotation": {"number": 64, "value": 0}, "group": "control_change"}, {"time": 3176, "annotation": {"number": 64, "value": 127}, "group": "control_change"}, {"time": 3198, "annotation": {"number": 64, "value": 0}, "group": "control_change"}, {"time": 3201, "annotation": {"number": 64, "value": 127}, "group": "control_change"}, {"time": 3221, "annotation": {"number": 64, "value": 0}, "group": "control_change"}, {"time": 3224, "annotation": {"number": 64, "value": 127}, "group": "control_change"}, {"time": 3245, "annotation": {"number": 64, "value": 0}, "group": "control_change"}, {"time": 3248, "annotation": {"number": 64, "value": 127}, "group": "control_change"}, {"time": 3269, "annotation": {"number": 64, "value": 0}, "group": "control_change"}, {"time": 3273, "annotation": {"number": 64, "value": 127}, "group": "control_change"}, {"time": 3291, "annotation": {"number": 64, "value": 0}, "group": "control_change"}, {"time": 3321, "annotation": {"number": 64, "value": 127}, "group": "control_change"}, {"time": 3342, "annotation": {"number": 64, "value": 0}, "group": "control_change"}, {"time": 3344, "annotation": {"number": 64, "value": 127}, "group": "control_change"}, {"time": 3365, "annotation": {"number": 64, "value": 0}, "group": "control_change"}, {"time": 3368, "annotation": {"number": 64, "value": 127}, "group": "control_change"}, {"time": 3376, "annotation": {"number": 64, "value": 0}, "group": "control_change"}, {"time": 3393, "annotation": {"number": 64, "value": 127}, "group": "control_change"}, {"time": 3413, "annotation": {"number": 64, "value": 0}, "group": "control_change"}, {"time": 3416, "annotation": {"number": 64, "value": 127}, "group": "control_change"}, {"time": 3437, "annotation": {"number": 64, "value": 0}, "group": "control_change"}, {"time": 3440, "annotation": {"number": 64, "value": 127}, "group": "control_change"}, {"time": 3461, "annotation": {"number": 64, "value": 0}, "group": "control_change"}, {"time": 3464, "annotation": {"number": 64, "value": 127}, "group": "control_change"}, {"time": 3510, "annotation": {"number": 64, "value": 0}, "group": "control_change"}, {"time": 3524, "annotation": {"number": 64, "value": 127}, "group": "control_change"}, {"time": 3550, "annotation": {"number": 64, "value": 0}, "group": "control_change"}, {"time": 3611, "annotation": {"number": 64, "value": 127}, "group": "control_change"}, {"time": 3728, "annotation": {"number": 64, "value": 0}, "group": "control_change"}, {"time": 3746, "annotation": {"number": 64, "value": 127}, "group": "control_change"}, {"time": 3770, "annotation": {"number": 64, "value": 0}, "group": "control_change"}, {"time": 3770, "annotation": {"number": 64, "value": 127}, "group": "control_change"}, {"time": 3772, "annotation": {"number": 64, "value": 0}, "group": "control_change"}, {"time": 3773, "annotation": {"number": 64, "value": 127}, "group": "control_change"}, {"time": 3775, "annotation": {"number": 64, "value": 0}, "group": "control_change"}, {"time": 3776, "annotation": {"number": 64, "value": 127}, "group": "control_change"}]}]}