{"metadata": {"schema_version": "0.2", "title": "None", "source_filename": "759.mid", "source_format": "midi"}, "resolution": 12, "tempos": [{"time": 0, "qpm": 94.00012846684224}], "time_signatures": [{"time": 0, "numerator": 1, "denominator": 4}], "tracks": [{"program": 4, "is_drum": false, "name": "MELODY", "notes": [{"time": 427, "pitch": 65, "duration": 7, "velocity": 85}, {"time": 433, "pitch": 67, "duration": 7, "velocity": 66}, {"time": 439, "pitch": 70, "duration": 18, "velocity": 95}, {"time": 457, "pitch": 72, "duration": 5, "velocity": 88}, {"time": 463, "pitch": 74, "duration": 6, "velocity": 96}, {"time": 475, "pitch": 77, "duration": 4, "velocity": 97}, {"time": 481, "pitch": 77, "duration": 3, "velocity": 92}, {"time": 487, "pitch": 79, "duration": 11, "velocity": 102}, {"time": 505, "pitch": 77, "duration": 3, "velocity": 90}, {"time": 511, "pitch": 74, "duration": 6, "velocity": 93}, {"time": 523, "pitch": 74, "duration": 5, "velocity": 88}, {"time": 529, "pitch": 72, "duration": 6, "velocity": 92}, {"time": 535, "pitch": 70, "duration": 13, "velocity": 89}, {"time": 553, "pitch": 70, "duration": 3, "velocity": 112}, {"time": 559, "pitch": 70, "duration": 3, "velocity": 100}, {"time": 565, "pitch": 67, "duration": 3, "velocity": 83}, {"time": 571, "pitch": 67, "duration": 5, "velocity": 97}, {"time": 577, "pitch": 70, "duration": 4, "velocity": 93}, {"time": 583, "pitch": 72, "duration": 30, "velocity": 97}, {"time": 619, "pitch": 65, "duration": 3, "velocity": 90}, {"time": 625, "pitch": 67, "duration": 3, "velocity": 85}, {"time": 631, "pitch": 70, "duration": 9, "velocity": 102}, {"time": 649, "pitch": 72, "duration": 3, "velocity": 102}, {"time": 655, "pitch": 74, "duration": 5, "velocity": 117}, {"time": 667, "pitch": 77, "duration": 3, "velocity": 107}, {"time": 673, "pitch": 77, "duration": 3, "velocity": 92}, {"time": 679, "pitch": 79, "duration": 15, "velocity": 107}, {"time": 697, "pitch": 77, "duration": 4, "velocity": 117}, {"time": 703, "pitch": 74, "duration": 5, "velocity": 102}, {"time": 715, "pitch": 74, "duration": 6, "velocity": 112}, {"time": 721, "pitch": 72, "duration": 5, "velocity": 96}, {"time": 727, "pitch": 70, "duration": 13, "velocity": 97}, {"time": 745, "pitch": 70, "duration": 3, "velocity": 107}, {"time": 751, "pitch": 70, "duration": 4, "velocity": 112}, {"time": 757, "pitch": 67, "duration": 6, "velocity": 96}, {"time": 763, "pitch": 67, "duration": 6, "velocity": 82}, {"time": 769, "pitch": 65, "duration": 5, "velocity": 90}, {"time": 775, "pitch": 70, "duration": 13, "velocity": 102}, {"time": 811, "pitch": 70, "duration": 4, "velocity": 112}, {"time": 817, "pitch": 70, "duration": 4, "velocity": 100}, {"time": 823, "pitch": 72, "duration": 15, "velocity": 112}, {"time": 841, "pitch": 70, "duration": 6, "velocity": 102}, {"time": 847, "pitch": 72, "duration": 7, "velocity": 97}, {"time": 859, "pitch": 74, "duration": 5, "velocity": 95}, {"time": 865, "pitch": 75, "duration": 4, "velocity": 100}, {"time": 871, "pitch": 77, "duration": 15, "velocity": 102}, {"time": 889, "pitch": 79, "duration": 5, "velocity": 107}, {"time": 895, "pitch": 77, "duration": 6, "velocity": 102}, {"time": 907, "pitch": 74, "duration": 5, "velocity": 102}, {"time": 913, "pitch": 77, "duration": 7, "velocity": 100}, {"time": 919, "pitch": 79, "duration": 15, "velocity": 97}, {"time": 937, "pitch": 79, "duration": 3, "velocity": 107}, {"time": 943, "pitch": 79, "duration": 4, "velocity": 127}, {"time": 955, "pitch": 77, "duration": 5, "velocity": 112}, {"time": 961, "pitch": 74, "duration": 4, "velocity": 100}, {"time": 967, "pitch": 72, "duration": 12, "velocity": 102}, {"time": 985, "pitch": 70, "duration": 5, "velocity": 100}, {"time": 991, "pitch": 72, "duration": 5, "velocity": 112}, {"time": 1003, "pitch": 65, "duration": 4, "velocity": 93}, {"time": 1009, "pitch": 67, "duration": 5, "velocity": 92}, {"time": 1015, "pitch": 70, "duration": 9, "velocity": 102}, {"time": 1033, "pitch": 72, "duration": 3, "velocity": 112}, {"time": 1039, "pitch": 74, "duration": 4, "velocity": 112}, {"time": 1051, "pitch": 77, "duration": 3, "velocity": 117}, {"time": 1057, "pitch": 77, "duration": 4, "velocity": 97}, {"time": 1063, "pitch": 79, "duration": 14, "velocity": 127}, {"time": 1081, "pitch": 77, "duration": 3, "velocity": 99}, {"time": 1087, "pitch": 74, "duration": 4, "velocity": 122}, {"time": 1099, "pitch": 74, "duration": 5, "velocity": 117}, {"time": 1105, "pitch": 72, "duration": 5, "velocity": 100}, {"time": 1111, "pitch": 70, "duration": 14, "velocity": 122}, {"time": 1129, "pitch": 70, "duration": 3, "velocity": 127}, {"time": 1135, "pitch": 70, "duration": 4, "velocity": 127}, {"time": 1141, "pitch": 67, "duration": 4, "velocity": 97}, {"time": 1147, "pitch": 67, "duration": 5, "velocity": 93}, {"time": 1153, "pitch": 65, "duration": 5, "velocity": 83}, {"time": 1159, "pitch": 70, "duration": 30, "velocity": 122}, {"time": 1435, "pitch": 65, "duration": 7, "velocity": 85}, {"time": 1441, "pitch": 67, "duration": 7, "velocity": 66}, {"time": 1447, "pitch": 70, "duration": 18, "velocity": 95}, {"time": 1465, "pitch": 72, "duration": 5, "velocity": 88}, {"time": 1471, "pitch": 74, "duration": 6, "velocity": 96}, {"time": 1483, "pitch": 77, "duration": 4, "velocity": 97}, {"time": 1489, "pitch": 77, "duration": 3, "velocity": 92}, {"time": 1495, "pitch": 79, "duration": 11, "velocity": 102}, {"time": 1513, "pitch": 77, "duration": 3, "velocity": 90}, {"time": 1519, "pitch": 74, "duration": 6, "velocity": 93}, {"time": 1531, "pitch": 74, "duration": 5, "velocity": 88}, {"time": 1537, "pitch": 72, "duration": 6, "velocity": 92}, {"time": 1543, "pitch": 70, "duration": 13, "velocity": 89}, {"time": 1561, "pitch": 70, "duration": 3, "velocity": 112}, {"time": 1567, "pitch": 70, "duration": 3, "velocity": 100}, {"time": 1573, "pitch": 67, "duration": 3, "velocity": 83}, {"time": 1579, "pitch": 67, "duration": 5, "velocity": 97}, {"time": 1585, "pitch": 70, "duration": 4, "velocity": 93}, {"time": 1591, "pitch": 72, "duration": 30, "velocity": 97}, {"time": 1627, "pitch": 65, "duration": 3, "velocity": 90}, {"time": 1633, "pitch": 67, "duration": 3, "velocity": 85}, {"time": 1639, "pitch": 70, "duration": 9, "velocity": 102}, {"time": 1657, "pitch": 72, "duration": 3, "velocity": 102}, {"time": 1663, "pitch": 74, "duration": 5, "velocity": 117}, {"time": 1675, "pitch": 77, "duration": 3, "velocity": 107}, {"time": 1681, "pitch": 77, "duration": 3, "velocity": 92}, {"time": 1687, "pitch": 79, "duration": 15, "velocity": 107}, {"time": 1705, "pitch": 77, "duration": 4, "velocity": 117}, {"time": 1711, "pitch": 74, "duration": 5, "velocity": 102}, {"time": 1723, "pitch": 74, "duration": 6, "velocity": 112}, {"time": 1729, "pitch": 72, "duration": 5, "velocity": 96}, {"time": 1735, "pitch": 70, "duration": 13, "velocity": 97}, {"time": 1753, "pitch": 70, "duration": 3, "velocity": 107}, {"time": 1759, "pitch": 70, "duration": 4, "velocity": 112}, {"time": 1765, "pitch": 67, "duration": 6, "velocity": 96}, {"time": 1771, "pitch": 67, "duration": 6, "velocity": 82}, {"time": 1777, "pitch": 65, "duration": 5, "velocity": 90}, {"time": 1783, "pitch": 70, "duration": 13, "velocity": 102}, {"time": 1819, "pitch": 70, "duration": 4, "velocity": 112}, {"time": 1825, "pitch": 70, "duration": 4, "velocity": 100}, {"time": 1831, "pitch": 72, "duration": 15, "velocity": 112}, {"time": 1849, "pitch": 70, "duration": 6, "velocity": 102}, {"time": 1855, "pitch": 72, "duration": 7, "velocity": 97}, {"time": 1867, "pitch": 74, "duration": 5, "velocity": 95}, {"time": 1873, "pitch": 75, "duration": 4, "velocity": 100}, {"time": 1879, "pitch": 77, "duration": 15, "velocity": 102}, {"time": 1897, "pitch": 79, "duration": 5, "velocity": 107}, {"time": 1903, "pitch": 77, "duration": 6, "velocity": 102}, {"time": 1915, "pitch": 74, "duration": 5, "velocity": 102}, {"time": 1921, "pitch": 77, "duration": 7, "velocity": 100}, {"time": 1927, "pitch": 79, "duration": 15, "velocity": 97}, {"time": 1945, "pitch": 79, "duration": 3, "velocity": 107}, {"time": 1951, "pitch": 79, "duration": 4, "velocity": 127}, {"time": 1963, "pitch": 77, "duration": 5, "velocity": 112}, {"time": 1969, "pitch": 74, "duration": 4, "velocity": 100}, {"time": 1975, "pitch": 72, "duration": 12, "velocity": 102}, {"time": 1993, "pitch": 70, "duration": 5, "velocity": 100}, {"time": 1999, "pitch": 72, "duration": 5, "velocity": 112}, {"time": 2011, "pitch": 65, "duration": 4, "velocity": 93}, {"time": 2017, "pitch": 67, "duration": 5, "velocity": 92}, {"time": 2023, "pitch": 70, "duration": 9, "velocity": 102}, {"time": 2041, "pitch": 72, "duration": 3, "velocity": 112}, {"time": 2047, "pitch": 74, "duration": 4, "velocity": 112}, {"time": 2059, "pitch": 77, "duration": 3, "velocity": 117}, {"time": 2065, "pitch": 77, "duration": 4, "velocity": 97}, {"time": 2071, "pitch": 79, "duration": 14, "velocity": 127}, {"time": 2089, "pitch": 77, "duration": 3, "velocity": 99}, {"time": 2095, "pitch": 74, "duration": 4, "velocity": 122}, {"time": 2107, "pitch": 74, "duration": 5, "velocity": 117}, {"time": 2113, "pitch": 72, "duration": 5, "velocity": 100}, {"time": 2119, "pitch": 70, "duration": 14, "velocity": 122}, {"time": 2137, "pitch": 70, "duration": 3, "velocity": 127}, {"time": 2143, "pitch": 70, "duration": 4, "velocity": 127}, {"time": 2149, "pitch": 67, "duration": 4, "velocity": 97}, {"time": 2155, "pitch": 67, "duration": 5, "velocity": 93}, {"time": 2161, "pitch": 65, "duration": 5, "velocity": 83}, {"time": 2167, "pitch": 70, "duration": 30, "velocity": 122}, {"time": 2203, "pitch": 66, "duration": 7, "velocity": 85}, {"time": 2209, "pitch": 68, "duration": 7, "velocity": 66}, {"time": 2215, "pitch": 71, "duration": 18, "velocity": 95}, {"time": 2233, "pitch": 73, "duration": 5, "velocity": 88}, {"time": 2239, "pitch": 75, "duration": 6, "velocity": 96}, {"time": 2251, "pitch": 78, "duration": 4, "velocity": 97}, {"time": 2257, "pitch": 78, "duration": 3, "velocity": 92}, {"time": 2263, "pitch": 80, "duration": 11, "velocity": 102}, {"time": 2281, "pitch": 78, "duration": 3, "velocity": 90}, {"time": 2287, "pitch": 75, "duration": 6, "velocity": 93}, {"time": 2299, "pitch": 75, "duration": 5, "velocity": 88}, {"time": 2305, "pitch": 73, "duration": 6, "velocity": 92}, {"time": 2311, "pitch": 71, "duration": 13, "velocity": 89}, {"time": 2329, "pitch": 71, "duration": 3, "velocity": 112}, {"time": 2335, "pitch": 71, "duration": 3, "velocity": 100}, {"time": 2341, "pitch": 68, "duration": 3, "velocity": 83}, {"time": 2347, "pitch": 68, "duration": 5, "velocity": 97}, {"time": 2353, "pitch": 71, "duration": 4, "velocity": 93}, {"time": 2359, "pitch": 73, "duration": 30, "velocity": 97}, {"time": 2395, "pitch": 66, "duration": 3, "velocity": 90}, {"time": 2401, "pitch": 68, "duration": 3, "velocity": 85}, {"time": 2407, "pitch": 71, "duration": 9, "velocity": 102}, {"time": 2425, "pitch": 73, "duration": 3, "velocity": 102}, {"time": 2431, "pitch": 75, "duration": 5, "velocity": 117}, {"time": 2443, "pitch": 78, "duration": 3, "velocity": 107}, {"time": 2449, "pitch": 78, "duration": 3, "velocity": 92}, {"time": 2455, "pitch": 80, "duration": 15, "velocity": 107}, {"time": 2473, "pitch": 78, "duration": 4, "velocity": 117}, {"time": 2479, "pitch": 75, "duration": 5, "velocity": 102}, {"time": 2491, "pitch": 75, "duration": 6, "velocity": 112}, {"time": 2497, "pitch": 73, "duration": 5, "velocity": 96}, {"time": 2503, "pitch": 71, "duration": 13, "velocity": 97}, {"time": 2521, "pitch": 71, "duration": 3, "velocity": 107}, {"time": 2527, "pitch": 71, "duration": 4, "velocity": 112}, {"time": 2533, "pitch": 68, "duration": 6, "velocity": 96}, {"time": 2539, "pitch": 68, "duration": 6, "velocity": 82}, {"time": 2545, "pitch": 66, "duration": 5, "velocity": 90}, {"time": 2551, "pitch": 71, "duration": 13, "velocity": 102}, {"time": 2587, "pitch": 71, "duration": 4, "velocity": 112}, {"time": 2593, "pitch": 71, "duration": 4, "velocity": 100}, {"time": 2599, "pitch": 73, "duration": 15, "velocity": 112}, {"time": 2617, "pitch": 71, "duration": 6, "velocity": 102}, {"time": 2623, "pitch": 73, "duration": 7, "velocity": 97}, {"time": 2635, "pitch": 75, "duration": 5, "velocity": 95}, {"time": 2641, "pitch": 76, "duration": 4, "velocity": 100}, {"time": 2647, "pitch": 78, "duration": 15, "velocity": 102}, {"time": 2665, "pitch": 80, "duration": 5, "velocity": 107}, {"time": 2671, "pitch": 78, "duration": 6, "velocity": 102}, {"time": 2683, "pitch": 75, "duration": 5, "velocity": 102}, {"time": 2689, "pitch": 78, "duration": 7, "velocity": 100}, {"time": 2695, "pitch": 80, "duration": 15, "velocity": 97}, {"time": 2713, "pitch": 80, "duration": 3, "velocity": 107}, {"time": 2719, "pitch": 80, "duration": 4, "velocity": 127}, {"time": 2731, "pitch": 78, "duration": 5, "velocity": 112}, {"time": 2737, "pitch": 75, "duration": 4, "velocity": 100}, {"time": 2743, "pitch": 73, "duration": 12, "velocity": 102}, {"time": 2761, "pitch": 71, "duration": 5, "velocity": 100}, {"time": 2767, "pitch": 73, "duration": 5, "velocity": 112}, {"time": 2779, "pitch": 66, "duration": 4, "velocity": 93}, {"time": 2785, "pitch": 68, "duration": 5, "velocity": 92}, {"time": 2791, "pitch": 71, "duration": 9, "velocity": 102}, {"time": 2809, "pitch": 73, "duration": 3, "velocity": 112}, {"time": 2815, "pitch": 75, "duration": 4, "velocity": 112}, {"time": 2827, "pitch": 78, "duration": 3, "velocity": 117}, {"time": 2833, "pitch": 78, "duration": 4, "velocity": 97}, {"time": 2839, "pitch": 80, "duration": 14, "velocity": 127}, {"time": 2857, "pitch": 78, "duration": 3, "velocity": 99}, {"time": 2863, "pitch": 75, "duration": 4, "velocity": 122}, {"time": 2875, "pitch": 75, "duration": 5, "velocity": 117}, {"time": 2881, "pitch": 73, "duration": 5, "velocity": 100}, {"time": 2887, "pitch": 71, "duration": 14, "velocity": 122}, {"time": 2905, "pitch": 71, "duration": 3, "velocity": 127}, {"time": 2911, "pitch": 71, "duration": 4, "velocity": 127}, {"time": 2917, "pitch": 68, "duration": 4, "velocity": 97}, {"time": 2923, "pitch": 68, "duration": 5, "velocity": 93}, {"time": 2929, "pitch": 66, "duration": 5, "velocity": 83}, {"time": 2935, "pitch": 71, "duration": 30, "velocity": 122}], "annotations": [{"time": 0, "annotation": {"number": 7, "value": 101}, "group": "control_change"}, {"time": 3454, "annotation": {"number": 7, "value": 101}, "group": "control_change"}, {"time": 3457, "annotation": {"number": 7, "value": 100}, "group": "control_change"}, {"time": 3459, "annotation": {"number": 7, "value": 99}, "group": "control_change"}, {"time": 3462, "annotation": {"number": 7, "value": 98}, "group": "control_change"}, {"time": 3464, "annotation": {"number": 7, "value": 97}, "group": "control_change"}, {"time": 3467, "annotation": {"number": 7, "value": 95}, "group": "control_change"}, {"time": 3469, "annotation": {"number": 7, "value": 94}, "group": "control_change"}, {"time": 3472, "annotation": {"number": 7, "value": 93}, "group": "control_change"}, {"time": 3474, "annotation": {"number": 7, "value": 92}, "group": "control_change"}, {"time": 3477, "annotation": {"number": 7, "value": 91}, "group": "control_change"}, {"time": 3479, "annotation": {"number": 7, "value": 90}, "group": "control_change"}, {"time": 3482, "annotation": {"number": 7, "value": 89}, "group": "control_change"}, {"time": 3484, "annotation": {"number": 7, "value": 88}, "group": "control_change"}, {"time": 3487, "annotation": {"number": 7, "value": 87}, "group": "control_change"}, {"time": 3489, "annotation": {"number": 7, "value": 85}, "group": "control_change"}, {"time": 3492, "annotation": {"number": 7, "value": 84}, "group": "control_change"}, {"time": 3494, "annotation": {"number": 7, "value": 83}, "group": "control_change"}, {"time": 3497, "annotation": {"number": 7, "value": 82}, "group": "control_change"}, {"time": 3499, "annotation": {"number": 7, "value": 81}, "group": "control_change"}, {"time": 3502, "annotation": {"number": 7, "value": 80}, "group": "control_change"}, {"time": 3504, "annotation": {"number": 7, "value": 79}, "group": "control_change"}, {"time": 3507, "annotation": {"number": 7, "value": 78}, "group": "control_change"}, {"time": 3509, "annotation": {"number": 7, "value": 77}, "group": "control_change"}, {"time": 3512, "annotation": {"number": 7, "value": 76}, "group": "control_change"}, {"time": 3514, "annotation": {"number": 7, "value": 74}, "group": "control_change"}, {"time": 3517, "annotation": {"number": 7, "value": 73}, "group": "control_change"}, {"time": 3519, "annotation": {"number": 7, "value": 72}, "group": "control_change"}, {"time": 3522, "annotation": {"number": 7, "value": 71}, "group": "control_change"}, {"time": 3524, "annotation": {"number": 7, "value": 70}, "group": "control_change"}, {"time": 3527, "annotation": {"number": 7, "value": 69}, "group": "control_change"}, {"time": 3529, "annotation": {"number": 7, "value": 68}, "group": "control_change"}, {"time": 3532, "annotation": {"number": 7, "value": 67}, "group": "control_change"}, {"time": 3534, "annotation": {"number": 7, "value": 66}, "group": "control_change"}, {"time": 3537, "annotation": {"number": 7, "value": 64}, "group": "control_change"}, {"time": 3539, "annotation": {"number": 7, "value": 63}, "group": "control_change"}, {"time": 3542, "annotation": {"number": 7, "value": 62}, "group": "control_change"}, {"time": 3544, "annotation": {"number": 7, "value": 61}, "group": "control_change"}, {"time": 3547, "annotation": {"number": 7, "value": 60}, "group": "control_change"}, {"time": 3549, "annotation": {"number": 7, "value": 59}, "group": "control_change"}, {"time": 3552, "annotation": {"number": 7, "value": 58}, "group": "control_change"}, {"time": 3554, "annotation": {"number": 7, "value": 57}, "group": "control_change"}, {"time": 3557, "annotation": {"number": 7, "value": 56}, "group": "control_change"}, {"time": 3559, "annotation": {"number": 7, "value": 54}, "group": "control_change"}, {"time": 3562, "annotation": {"number": 7, "value": 53}, "group": "control_change"}, {"time": 3564, "annotation": {"number": 7, "value": 52}, "group": "control_change"}, {"time": 3567, "annotation": {"number": 7, "value": 51}, "group": "control_change"}, {"time": 3569, "annotation": {"number": 7, "value": 50}, "group": "control_change"}, {"time": 3572, "annotation": {"number": 7, "value": 49}, "group": "control_change"}, {"time": 3574, "annotation": {"number": 7, "value": 48}, "group": "control_change"}, {"time": 3577, "annotation": {"number": 7, "value": 47}, "group": "control_change"}, {"time": 3579, "annotation": {"number": 7, "value": 46}, "group": "control_change"}, {"time": 3582, "annotation": {"number": 7, "value": 45}, "group": "control_change"}, {"time": 3584, "annotation": {"number": 7, "value": 43}, "group": "control_change"}, {"time": 3587, "annotation": {"number": 7, "value": 42}, "group": "control_change"}, {"time": 3589, "annotation": {"number": 7, "value": 41}, "group": "control_change"}, {"time": 3592, "annotation": {"number": 7, "value": 40}, "group": "control_change"}, {"time": 3594, "annotation": {"number": 7, "value": 39}, "group": "control_change"}, {"time": 3597, "annotation": {"number": 7, "value": 38}, "group": "control_change"}, {"time": 3599, "annotation": {"number": 7, "value": 37}, "group": "control_change"}, {"time": 3602, "annotation": {"number": 7, "value": 36}, "group": "control_change"}, {"time": 3604, "annotation": {"number": 7, "value": 35}, "group": "control_change"}, {"time": 3607, "annotation": {"number": 7, "value": 33}, "group": "control_change"}, {"time": 3609, "annotation": {"number": 7, "value": 32}, "group": "control_change"}, {"time": 3612, "annotation": {"number": 7, "value": 31}, "group": "control_change"}, {"time": 3614, "annotation": {"number": 7, "value": 30}, "group": "control_change"}, {"time": 3617, "annotation": {"number": 7, "value": 29}, "group": "control_change"}, {"time": 3619, "annotation": {"number": 7, "value": 28}, "group": "control_change"}, {"time": 3622, "annotation": {"number": 7, "value": 27}, "group": "control_change"}, {"time": 3624, "annotation": {"number": 7, "value": 26}, "group": "control_change"}, {"time": 3627, "annotation": {"number": 7, "value": 25}, "group": "control_change"}, {"time": 3629, "annotation": {"number": 7, "value": 23}, "group": "control_change"}, {"time": 3632, "annotation": {"number": 7, "value": 22}, "group": "control_change"}, {"time": 3634, "annotation": {"number": 7, "value": 21}, "group": "control_change"}, {"time": 3637, "annotation": {"number": 7, "value": 20}, "group": "control_change"}, {"time": 3639, "annotation": {"number": 7, "value": 19}, "group": "control_change"}, {"time": 3642, "annotation": {"number": 7, "value": 18}, "group": "control_change"}, {"time": 3644, "annotation": {"number": 7, "value": 17}, "group": "control_change"}, {"time": 3647, "annotation": {"number": 7, "value": 16}, "group": "control_change"}, {"time": 3649, "annotation": {"number": 7, "value": 15}, "group": "control_change"}, {"time": 3652, "annotation": {"number": 7, "value": 14}, "group": "control_change"}, {"time": 3654, "annotation": {"number": 7, "value": 12}, "group": "control_change"}, {"time": 3657, "annotation": {"number": 7, "value": 11}, "group": "control_change"}, {"time": 3659, "annotation": {"number": 7, "value": 10}, "group": "control_change"}, {"time": 3662, "annotation": {"number": 7, "value": 9}, "group": "control_change"}, {"time": 3664, "annotation": {"number": 7, "value": 8}, "group": "control_change"}, {"time": 3667, "annotation": {"number": 7, "value": 7}, "group": "control_change"}, {"time": 3669, "annotation": {"number": 7, "value": 6}, "group": "control_change"}, {"time": 3672, "annotation": {"number": 7, "value": 5}, "group": "control_change"}, {"time": 3674, "annotation": {"number": 7, "value": 4}, "group": "control_change"}, {"time": 3677, "annotation": {"number": 7, "value": 2}, "group": "control_change"}, {"time": 3679, "annotation": {"number": 7, "value": 1}, "group": "control_change"}, {"time": 3682, "annotation": {"number": 7, "value": 0}, "group": "control_change"}]}, {"program": 0, "is_drum": false, "name": "PIANO", "notes": [{"time": 7, "pitch": 46, "duration": 36, "velocity": 99}, {"time": 13, "pitch": 58, "duration": 20, "velocity": 57}, {"time": 19, "pitch": 62, "duration": 7, "velocity": 52}, {"time": 25, "pitch": 65, "duration": 30, "velocity": 89}, {"time": 37, "pitch": 58, "duration": 5, "velocity": 41}, {"time": 43, "pitch": 62, "duration": 13, "velocity": 85}, {"time": 55, "pitch": 43, "duration": 27, "velocity": 73}, {"time": 61, "pitch": 50, "duration": 19, "velocity": 62}, {"time": 67, "pitch": 55, "duration": 26, "velocity": 69}, {"time": 73, "pitch": 62, "duration": 29, "velocity": 73}, {"time": 91, "pitch": 58, "duration": 14, "velocity": 55}, {"time": 97, "pitch": 55, "duration": 10, "velocity": 62}, {"time": 103, "pitch": 39, "duration": 36, "velocity": 76}, {"time": 109, "pitch": 46, "duration": 28, "velocity": 56}, {"time": 115, "pitch": 51, "duration": 14, "velocity": 50}, {"time": 121, "pitch": 63, "duration": 31, "velocity": 97}, {"time": 133, "pitch": 51, "duration": 6, "velocity": 50}, {"time": 139, "pitch": 58, "duration": 12, "velocity": 79}, {"time": 151, "pitch": 41, "duration": 36, "velocity": 78}, {"time": 157, "pitch": 48, "duration": 29, "velocity": 63}, {"time": 163, "pitch": 53, "duration": 16, "velocity": 95}, {"time": 169, "pitch": 57, "duration": 9, "velocity": 88}, {"time": 175, "pitch": 65, "duration": 26, "velocity": 107}, {"time": 181, "pitch": 53, "duration": 7, "velocity": 97}, {"time": 187, "pitch": 60, "duration": 13, "velocity": 95}, {"time": 193, "pitch": 57, "duration": 7, "velocity": 61}, {"time": 199, "pitch": 46, "duration": 36, "velocity": 72}, {"time": 205, "pitch": 53, "duration": 29, "velocity": 56}, {"time": 211, "pitch": 58, "duration": 15, "velocity": 82}, {"time": 217, "pitch": 62, "duration": 19, "velocity": 99}, {"time": 229, "pitch": 58, "duration": 5, "velocity": 67}, {"time": 235, "pitch": 65, "duration": 12, "velocity": 97}, {"time": 247, "pitch": 43, "duration": 35, "velocity": 75}, {"time": 253, "pitch": 50, "duration": 20, "velocity": 55}, {"time": 259, "pitch": 55, "duration": 18, "velocity": 59}, {"time": 265, "pitch": 62, "duration": 29, "velocity": 97}, {"time": 277, "pitch": 50, "duration": 5, "velocity": 44}, {"time": 283, "pitch": 58, "duration": 13, "velocity": 89}, {"time": 289, "pitch": 55, "duration": 7, "velocity": 71}, {"time": 295, "pitch": 39, "duration": 17, "velocity": 81}, {"time": 301, "pitch": 46, "duration": 11, "velocity": 41}, {"time": 307, "pitch": 51, "duration": 6, "velocity": 86}, {"time": 313, "pitch": 63, "duration": 7, "velocity": 95}, {"time": 319, "pitch": 41, "duration": 12, "velocity": 67}, {"time": 325, "pitch": 53, "duration": 8, "velocity": 61}, {"time": 331, "pitch": 60, "duration": 13, "velocity": 83}, {"time": 337, "pitch": 57, "duration": 7, "velocity": 55}, {"time": 343, "pitch": 46, "duration": 37, "velocity": 56}, {"time": 349, "pitch": 53, "duration": 40, "velocity": 60}, {"time": 355, "pitch": 58, "duration": 15, "velocity": 63}, {"time": 361, "pitch": 62, "duration": 7, "velocity": 58}, {"time": 367, "pitch": 65, "duration": 30, "velocity": 88}, {"time": 379, "pitch": 62, "duration": 15, "velocity": 63}, {"time": 391, "pitch": 46, "duration": 46, "velocity": 75}, {"time": 397, "pitch": 53, "duration": 42, "velocity": 50}, {"time": 403, "pitch": 58, "duration": 37, "velocity": 60}, {"time": 409, "pitch": 62, "duration": 9, "velocity": 38}, {"time": 415, "pitch": 65, "duration": 43, "velocity": 72}, {"time": 418, "pitch": 62, "duration": 1, "velocity": 27}, {"time": 439, "pitch": 46, "duration": 37, "velocity": 85}, {"time": 445, "pitch": 53, "duration": 30, "velocity": 44}, {"time": 451, "pitch": 58, "duration": 14, "velocity": 85}, {"time": 457, "pitch": 62, "duration": 8, "velocity": 54}, {"time": 463, "pitch": 65, "duration": 14, "velocity": 117}, {"time": 469, "pitch": 58, "duration": 4, "velocity": 78}, {"time": 475, "pitch": 62, "duration": 13, "velocity": 95}, {"time": 481, "pitch": 65, "duration": 6, "velocity": 78}, {"time": 487, "pitch": 43, "duration": 30, "velocity": 69}, {"time": 493, "pitch": 50, "duration": 22, "velocity": 57}, {"time": 499, "pitch": 55, "duration": 14, "velocity": 52}, {"time": 505, "pitch": 58, "duration": 7, "velocity": 61}, {"time": 511, "pitch": 62, "duration": 25, "velocity": 99}, {"time": 523, "pitch": 55, "duration": 14, "velocity": 88}, {"time": 535, "pitch": 39, "duration": 36, "velocity": 73}, {"time": 541, "pitch": 46, "duration": 29, "velocity": 63}, {"time": 547, "pitch": 51, "duration": 25, "velocity": 69}, {"time": 553, "pitch": 55, "duration": 32, "velocity": 64}, {"time": 559, "pitch": 63, "duration": 25, "velocity": 112}, {"time": 571, "pitch": 58, "duration": 14, "velocity": 97}, {"time": 583, "pitch": 41, "duration": 35, "velocity": 68}, {"time": 589, "pitch": 48, "duration": 22, "velocity": 50}, {"time": 595, "pitch": 53, "duration": 9, "velocity": 85}, {"time": 601, "pitch": 57, "duration": 7, "velocity": 93}, {"time": 607, "pitch": 60, "duration": 24, "velocity": 99}, {"time": 613, "pitch": 48, "duration": 6, "velocity": 64}, {"time": 619, "pitch": 57, "duration": 12, "velocity": 81}, {"time": 631, "pitch": 46, "duration": 34, "velocity": 74}, {"time": 637, "pitch": 53, "duration": 22, "velocity": 58}, {"time": 643, "pitch": 58, "duration": 15, "velocity": 89}, {"time": 649, "pitch": 62, "duration": 7, "velocity": 95}, {"time": 655, "pitch": 65, "duration": 23, "velocity": 112}, {"time": 661, "pitch": 62, "duration": 18, "velocity": 96}, {"time": 667, "pitch": 45, "duration": 13, "velocity": 82}, {"time": 679, "pitch": 43, "duration": 33, "velocity": 72}, {"time": 685, "pitch": 50, "duration": 21, "velocity": 69}, {"time": 691, "pitch": 55, "duration": 25, "velocity": 63}, {"time": 697, "pitch": 58, "duration": 7, "velocity": 78}, {"time": 703, "pitch": 62, "duration": 24, "velocity": 96}, {"time": 709, "pitch": 50, "duration": 4, "velocity": 65}, {"time": 715, "pitch": 58, "duration": 13, "velocity": 78}, {"time": 721, "pitch": 55, "duration": 6, "velocity": 51}, {"time": 727, "pitch": 39, "duration": 29, "velocity": 75}, {"time": 733, "pitch": 46, "duration": 21, "velocity": 40}, {"time": 739, "pitch": 51, "duration": 17, "velocity": 77}, {"time": 745, "pitch": 55, "duration": 8, "velocity": 76}, {"time": 751, "pitch": 63, "duration": 10, "velocity": 127}, {"time": 757, "pitch": 55, "duration": 5, "velocity": 78}, {"time": 763, "pitch": 41, "duration": 7, "velocity": 70}, {"time": 769, "pitch": 53, "duration": 8, "velocity": 77}, {"time": 775, "pitch": 46, "duration": 40, "velocity": 55}, {"time": 781, "pitch": 53, "duration": 32, "velocity": 59}, {"time": 787, "pitch": 58, "duration": 13, "velocity": 93}, {"time": 793, "pitch": 62, "duration": 7, "velocity": 92}, {"time": 799, "pitch": 65, "duration": 14, "velocity": 102}, {"time": 805, "pitch": 58, "duration": 8, "velocity": 112}, {"time": 811, "pitch": 62, "duration": 12, "velocity": 127}, {"time": 817, "pitch": 65, "duration": 6, "velocity": 97}, {"time": 823, "pitch": 36, "duration": 40, "velocity": 93}, {"time": 829, "pitch": 43, "duration": 40, "velocity": 76}, {"time": 835, "pitch": 48, "duration": 15, "velocity": 89}, {"time": 841, "pitch": 55, "duration": 12, "velocity": 88}, {"time": 847, "pitch": 63, "duration": 24, "velocity": 117}, {"time": 853, "pitch": 48, "duration": 5, "velocity": 73}, {"time": 859, "pitch": 60, "duration": 12, "velocity": 90}, {"time": 865, "pitch": 55, "duration": 7, "velocity": 83}, {"time": 871, "pitch": 38, "duration": 36, "velocity": 90}, {"time": 877, "pitch": 45, "duration": 30, "velocity": 63}, {"time": 883, "pitch": 50, "duration": 15, "velocity": 90}, {"time": 889, "pitch": 57, "duration": 8, "velocity": 85}, {"time": 895, "pitch": 62, "duration": 14, "velocity": 88}, {"time": 895, "pitch": 65, "duration": 25, "velocity": 100}, {"time": 901, "pitch": 50, "duration": 8, "velocity": 95}, {"time": 907, "pitch": 57, "duration": 13, "velocity": 102}, {"time": 913, "pitch": 62, "duration": 6, "velocity": 100}, {"time": 919, "pitch": 43, "duration": 38, "velocity": 89}, {"time": 925, "pitch": 50, "duration": 22, "velocity": 74}, {"time": 928, "pitch": 55, "duration": 7, "velocity": 76}, {"time": 931, "pitch": 58, "duration": 7, "velocity": 86}, {"time": 937, "pitch": 62, "duration": 5, "velocity": 82}, {"time": 943, "pitch": 58, "duration": 15, "velocity": 117}, {"time": 943, "pitch": 62, "duration": 24, "velocity": 100}, {"time": 949, "pitch": 50, "duration": 6, "velocity": 76}, {"time": 955, "pitch": 55, "duration": 36, "velocity": 107}, {"time": 961, "pitch": 58, "duration": 8, "velocity": 112}, {"time": 967, "pitch": 36, "duration": 17, "velocity": 90}, {"time": 973, "pitch": 43, "duration": 11, "velocity": 82}, {"time": 979, "pitch": 48, "duration": 8, "velocity": 96}, {"time": 985, "pitch": 60, "duration": 7, "velocity": 92}, {"time": 985, "pitch": 63, "duration": 7, "velocity": 99}, {"time": 991, "pitch": 41, "duration": 16, "velocity": 73}, {"time": 997, "pitch": 48, "duration": 11, "velocity": 95}, {"time": 1003, "pitch": 53, "duration": 3, "velocity": 85}, {"time": 1003, "pitch": 57, "duration": 11, "velocity": 100}, {"time": 1009, "pitch": 60, "duration": 5, "velocity": 99}, {"time": 1015, "pitch": 46, "duration": 15, "velocity": 102}, {"time": 1021, "pitch": 53, "duration": 21, "velocity": 58}, {"time": 1027, "pitch": 62, "duration": 20, "velocity": 99}, {"time": 1033, "pitch": 46, "duration": 21, "velocity": 112}, {"time": 1045, "pitch": 53, "duration": 10, "velocity": 93}, {"time": 1051, "pitch": 62, "duration": 13, "velocity": 100}, {"time": 1057, "pitch": 45, "duration": 6, "velocity": 96}, {"time": 1063, "pitch": 43, "duration": 37, "velocity": 76}, {"time": 1069, "pitch": 50, "duration": 20, "velocity": 51}, {"time": 1075, "pitch": 55, "duration": 9, "velocity": 88}, {"time": 1081, "pitch": 58, "duration": 7, "velocity": 99}, {"time": 1087, "pitch": 62, "duration": 22, "velocity": 96}, {"time": 1093, "pitch": 50, "duration": 5, "velocity": 83}, {"time": 1099, "pitch": 58, "duration": 13, "velocity": 100}, {"time": 1105, "pitch": 55, "duration": 9, "velocity": 79}, {"time": 1111, "pitch": 39, "duration": 40, "velocity": 82}, {"time": 1117, "pitch": 46, "duration": 3, "velocity": 47}, {"time": 1123, "pitch": 46, "duration": 23, "velocity": 30}, {"time": 1123, "pitch": 51, "duration": 15, "velocity": 88}, {"time": 1129, "pitch": 55, "duration": 14, "velocity": 76}, {"time": 1135, "pitch": 63, "duration": 21, "velocity": 122}, {"time": 1141, "pitch": 51, "duration": 11, "velocity": 88}, {"time": 1147, "pitch": 58, "duration": 12, "velocity": 79}, {"time": 1153, "pitch": 55, "duration": 6, "velocity": 77}, {"time": 1159, "pitch": 46, "duration": 41, "velocity": 92}, {"time": 1165, "pitch": 50, "duration": 40, "velocity": 47}, {"time": 1171, "pitch": 53, "duration": 15, "velocity": 89}, {"time": 1177, "pitch": 58, "duration": 6, "velocity": 89}, {"time": 1183, "pitch": 62, "duration": 11, "velocity": 95}, {"time": 1189, "pitch": 53, "duration": 15, "velocity": 79}, {"time": 1195, "pitch": 60, "duration": 8, "velocity": 99}, {"time": 1201, "pitch": 62, "duration": 6, "velocity": 81}, {"time": 1207, "pitch": 46, "duration": 15, "velocity": 92}, {"time": 1213, "pitch": 50, "duration": 9, "velocity": 40}, {"time": 1219, "pitch": 65, "duration": 29, "velocity": 90}, {"time": 1225, "pitch": 46, "duration": 4, "velocity": 100}, {"time": 1231, "pitch": 46, "duration": 15, "velocity": 102}, {"time": 1237, "pitch": 58, "duration": 6, "velocity": 71}, {"time": 1243, "pitch": 62, "duration": 11, "velocity": 89}, {"time": 1249, "pitch": 58, "duration": 12, "velocity": 100}, {"time": 1255, "pitch": 43, "duration": 15, "velocity": 89}, {"time": 1261, "pitch": 50, "duration": 11, "velocity": 52}, {"time": 1267, "pitch": 62, "duration": 17, "velocity": 100}, {"time": 1273, "pitch": 43, "duration": 3, "velocity": 92}, {"time": 1279, "pitch": 43, "duration": 11, "velocity": 92}, {"time": 1285, "pitch": 55, "duration": 42, "velocity": 75}, {"time": 1291, "pitch": 62, "duration": 7, "velocity": 99}, {"time": 1297, "pitch": 58, "duration": 10, "velocity": 97}, {"time": 1303, "pitch": 39, "duration": 15, "velocity": 86}, {"time": 1309, "pitch": 46, "duration": 8, "velocity": 58}, {"time": 1315, "pitch": 63, "duration": 12, "velocity": 112}, {"time": 1321, "pitch": 39, "duration": 3, "velocity": 85}, {"time": 1327, "pitch": 41, "duration": 13, "velocity": 70}, {"time": 1333, "pitch": 48, "duration": 8, "velocity": 81}, {"time": 1339, "pitch": 60, "duration": 12, "velocity": 95}, {"time": 1345, "pitch": 53, "duration": 7, "velocity": 81}, {"time": 1351, "pitch": 46, "duration": 38, "velocity": 72}, {"time": 1357, "pitch": 53, "duration": 32, "velocity": 59}, {"time": 1363, "pitch": 58, "duration": 16, "velocity": 79}, {"time": 1369, "pitch": 62, "duration": 8, "velocity": 52}, {"time": 1375, "pitch": 65, "duration": 13, "velocity": 77}, {"time": 1378, "pitch": 58, "duration": 1, "velocity": 44}, {"time": 1387, "pitch": 62, "duration": 17, "velocity": 69}, {"time": 1393, "pitch": 46, "duration": 4, "velocity": 51}, {"time": 1399, "pitch": 46, "duration": 45, "velocity": 82}, {"time": 1405, "pitch": 58, "duration": 10, "velocity": 65}, {"time": 1411, "pitch": 62, "duration": 12, "velocity": 53}, {"time": 1417, "pitch": 58, "duration": 27, "velocity": 47}, {"time": 1423, "pitch": 65, "duration": 27, "velocity": 85}, {"time": 1435, "pitch": 62, "duration": 16, "velocity": 53}, {"time": 1447, "pitch": 46, "duration": 15, "velocity": 95}, {"time": 1453, "pitch": 58, "duration": 10, "velocity": 82}, {"time": 1459, "pitch": 65, "duration": 21, "velocity": 95}, {"time": 1465, "pitch": 46, "duration": 23, "velocity": 89}, {"time": 1477, "pitch": 58, "duration": 9, "velocity": 82}, {"time": 1483, "pitch": 65, "duration": 11, "velocity": 112}, {"time": 1489, "pitch": 62, "duration": 6, "velocity": 71}, {"time": 1495, "pitch": 43, "duration": 16, "velocity": 73}, {"time": 1501, "pitch": 50, "duration": 9, "velocity": 50}, {"time": 1507, "pitch": 62, "duration": 20, "velocity": 90}, {"time": 1513, "pitch": 43, "duration": 3, "velocity": 78}, {"time": 1519, "pitch": 43, "duration": 14, "velocity": 75}, {"time": 1525, "pitch": 55, "duration": 10, "velocity": 64}, {"time": 1531, "pitch": 62, "duration": 10, "velocity": 90}, {"time": 1537, "pitch": 58, "duration": 9, "velocity": 62}, {"time": 1543, "pitch": 39, "duration": 16, "velocity": 73}, {"time": 1549, "pitch": 51, "duration": 11, "velocity": 60}, {"time": 1555, "pitch": 63, "duration": 36, "velocity": 99}, {"time": 1561, "pitch": 39, "duration": 3, "velocity": 72}, {"time": 1567, "pitch": 39, "duration": 14, "velocity": 89}, {"time": 1573, "pitch": 51, "duration": 8, "velocity": 83}, {"time": 1579, "pitch": 58, "duration": 12, "velocity": 112}, {"time": 1585, "pitch": 55, "duration": 8, "velocity": 85}, {"time": 1591, "pitch": 41, "duration": 15, "velocity": 79}, {"time": 1597, "pitch": 48, "duration": 11, "velocity": 81}, {"time": 1603, "pitch": 57, "duration": 19, "velocity": 82}, {"time": 1603, "pitch": 60, "duration": 31, "velocity": 88}, {"time": 1609, "pitch": 41, "duration": 3, "velocity": 93}, {"time": 1615, "pitch": 41, "duration": 12, "velocity": 86}, {"time": 1621, "pitch": 53, "duration": 19, "velocity": 100}, {"time": 1627, "pitch": 43, "duration": 7, "velocity": 82}, {"time": 1633, "pitch": 45, "duration": 4, "velocity": 107}, {"time": 1639, "pitch": 46, "duration": 15, "velocity": 102}, {"time": 1645, "pitch": 53, "duration": 22, "velocity": 66}, {"time": 1651, "pitch": 58, "duration": 16, "velocity": 93}, {"time": 1651, "pitch": 62, "duration": 14, "velocity": 88}, {"time": 1657, "pitch": 46, "duration": 3, "velocity": 100}, {"time": 1663, "pitch": 46, "duration": 20, "velocity": 100}, {"time": 1669, "pitch": 53, "duration": 13, "velocity": 83}, {"time": 1675, "pitch": 62, "duration": 20, "velocity": 100}, {"time": 1681, "pitch": 58, "duration": 17, "velocity": 107}, {"time": 1687, "pitch": 43, "duration": 17, "velocity": 81}, {"time": 1693, "pitch": 50, "duration": 11, "velocity": 78}, {"time": 1699, "pitch": 62, "duration": 18, "velocity": 93}, {"time": 1705, "pitch": 43, "duration": 3, "velocity": 79}, {"time": 1711, "pitch": 43, "duration": 11, "velocity": 86}, {"time": 1717, "pitch": 55, "duration": 18, "velocity": 96}, {"time": 1723, "pitch": 62, "duration": 8, "velocity": 90}, {"time": 1729, "pitch": 58, "duration": 6, "velocity": 75}, {"time": 1735, "pitch": 39, "duration": 22, "velocity": 74}, {"time": 1741, "pitch": 46, "duration": 17, "velocity": 62}, {"time": 1747, "pitch": 51, "duration": 10, "velocity": 53}, {"time": 1747, "pitch": 63, "duration": 22, "velocity": 99}, {"time": 1753, "pitch": 55, "duration": 7, "velocity": 89}, {"time": 1759, "pitch": 39, "duration": 10, "velocity": 73}, {"time": 1765, "pitch": 55, "duration": 7, "velocity": 90}, {"time": 1771, "pitch": 41, "duration": 7, "velocity": 88}, {"time": 1777, "pitch": 53, "duration": 7, "velocity": 77}, {"time": 1783, "pitch": 46, "duration": 39, "velocity": 95}, {"time": 1789, "pitch": 50, "duration": 31, "velocity": 46}, {"time": 1795, "pitch": 53, "duration": 14, "velocity": 86}, {"time": 1801, "pitch": 58, "duration": 5, "velocity": 90}, {"time": 1801, "pitch": 62, "duration": 5, "velocity": 64}, {"time": 1801, "pitch": 65, "duration": 5, "velocity": 52}, {"time": 1807, "pitch": 58, "duration": 8, "velocity": 90}, {"time": 1807, "pitch": 62, "duration": 24, "velocity": 88}, {"time": 1807, "pitch": 65, "duration": 23, "velocity": 76}, {"time": 1813, "pitch": 53, "duration": 7, "velocity": 82}, {"time": 1819, "pitch": 58, "duration": 12, "velocity": 122}, {"time": 1825, "pitch": 55, "duration": 6, "velocity": 63}, {"time": 1831, "pitch": 36, "duration": 14, "velocity": 99}, {"time": 1837, "pitch": 43, "duration": 9, "velocity": 58}, {"time": 1843, "pitch": 55, "duration": 16, "velocity": 72}, {"time": 1843, "pitch": 60, "duration": 15, "velocity": 88}, {"time": 1843, "pitch": 63, "duration": 15, "velocity": 96}, {"time": 1849, "pitch": 36, "duration": 3, "velocity": 90}, {"time": 1855, "pitch": 36, "duration": 15, "velocity": 90}, {"time": 1861, "pitch": 60, "duration": 8, "velocity": 97}, {"time": 1861, "pitch": 63, "duration": 19, "velocity": 112}, {"time": 1867, "pitch": 55, "duration": 12, "velocity": 93}, {"time": 1873, "pitch": 60, "duration": 7, "velocity": 102}, {"time": 1879, "pitch": 38, "duration": 14, "velocity": 99}, {"time": 1885, "pitch": 45, "duration": 10, "velocity": 79}, {"time": 1891, "pitch": 62, "duration": 22, "velocity": 97}, {"time": 1891, "pitch": 65, "duration": 21, "velocity": 95}, {"time": 1897, "pitch": 38, "duration": 3, "velocity": 86}, {"time": 1903, "pitch": 38, "duration": 12, "velocity": 79}, {"time": 1909, "pitch": 50, "duration": 9, "velocity": 96}, {"time": 1915, "pitch": 62, "duration": 11, "velocity": 97}, {"time": 1915, "pitch": 65, "duration": 11, "velocity": 95}, {"time": 1921, "pitch": 57, "duration": 8, "velocity": 93}, {"time": 1927, "pitch": 43, "duration": 15, "velocity": 75}, {"time": 1933, "pitch": 50, "duration": 11, "velocity": 86}, {"time": 1939, "pitch": 58, "duration": 27, "velocity": 117}, {"time": 1939, "pitch": 62, "duration": 36, "velocity": 95}, {"time": 1945, "pitch": 43, "duration": 3, "velocity": 76}, {"time": 1951, "pitch": 43, "duration": 15, "velocity": 83}, {"time": 1957, "pitch": 50, "duration": 8, "velocity": 85}, {"time": 1963, "pitch": 55, "duration": 36, "velocity": 102}, {"time": 1969, "pitch": 58, "duration": 10, "velocity": 99}, {"time": 1975, "pitch": 36, "duration": 13, "velocity": 88}, {"time": 1981, "pitch": 43, "duration": 9, "velocity": 71}, {"time": 1987, "pitch": 60, "duration": 12, "velocity": 100}, {"time": 1987, "pitch": 63, "duration": 12, "velocity": 117}, {"time": 1993, "pitch": 36, "duration": 4, "velocity": 86}, {"time": 1999, "pitch": 41, "duration": 14, "velocity": 89}, {"time": 2005, "pitch": 48, "duration": 10, "velocity": 93}, {"time": 2011, "pitch": 57, "duration": 10, "velocity": 93}, {"time": 2011, "pitch": 60, "duration": 10, "velocity": 92}, {"time": 2017, "pitch": 53, "duration": 8, "velocity": 88}, {"time": 2023, "pitch": 46, "duration": 15, "velocity": 100}, {"time": 2029, "pitch": 53, "duration": 21, "velocity": 67}, {"time": 2035, "pitch": 58, "duration": 17, "velocity": 99}, {"time": 2035, "pitch": 62, "duration": 15, "velocity": 93}, {"time": 2041, "pitch": 46, "duration": 3, "velocity": 95}, {"time": 2047, "pitch": 46, "duration": 14, "velocity": 96}, {"time": 2053, "pitch": 53, "duration": 10, "velocity": 86}, {"time": 2059, "pitch": 58, "duration": 6, "velocity": 112}, {"time": 2059, "pitch": 62, "duration": 7, "velocity": 97}, {"time": 2065, "pitch": 45, "duration": 7, "velocity": 102}, {"time": 2071, "pitch": 43, "duration": 16, "velocity": 79}, {"time": 2077, "pitch": 50, "duration": 12, "velocity": 92}, {"time": 2083, "pitch": 55, "duration": 16, "velocity": 62}, {"time": 2083, "pitch": 58, "duration": 18, "velocity": 96}, {"time": 2083, "pitch": 62, "duration": 17, "velocity": 92}, {"time": 2089, "pitch": 43, "duration": 3, "velocity": 88}, {"time": 2095, "pitch": 43, "duration": 14, "velocity": 78}, {"time": 2101, "pitch": 50, "duration": 6, "velocity": 40}, {"time": 2101, "pitch": 55, "duration": 8, "velocity": 90}, {"time": 2107, "pitch": 58, "duration": 9, "velocity": 102}, {"time": 2107, "pitch": 62, "duration": 8, "velocity": 97}, {"time": 2110, "pitch": 39, "duration": 1, "velocity": 45}, {"time": 2113, "pitch": 55, "duration": 21, "velocity": 96}, {"time": 2119, "pitch": 39, "duration": 16, "velocity": 96}, {"time": 2125, "pitch": 51, "duration": 10, "velocity": 77}, {"time": 2131, "pitch": 58, "duration": 22, "velocity": 112}, {"time": 2131, "pitch": 63, "duration": 22, "velocity": 127}, {"time": 2137, "pitch": 39, "duration": 4, "velocity": 97}, {"time": 2143, "pitch": 39, "duration": 8, "velocity": 52}, {"time": 2143, "pitch": 51, "duration": 7, "velocity": 102}, {"time": 2149, "pitch": 55, "duration": 6, "velocity": 93}, {"time": 2155, "pitch": 41, "duration": 7, "velocity": 88}, {"time": 2161, "pitch": 53, "duration": 6, "velocity": 75}, {"time": 2161, "pitch": 57, "duration": 6, "velocity": 82}, {"time": 2161, "pitch": 60, "duration": 6, "velocity": 79}, {"time": 2167, "pitch": 46, "duration": 12, "velocity": 112}, {"time": 2173, "pitch": 53, "duration": 3, "velocity": 100}, {"time": 2179, "pitch": 42, "duration": 31, "velocity": 99}, {"time": 2179, "pitch": 54, "duration": 32, "velocity": 102}, {"time": 2179, "pitch": 58, "duration": 32, "velocity": 117}, {"time": 2179, "pitch": 61, "duration": 33, "velocity": 117}, {"time": 2215, "pitch": 47, "duration": 15, "velocity": 95}, {"time": 2221, "pitch": 54, "duration": 9, "velocity": 96}, {"time": 2227, "pitch": 63, "duration": 17, "velocity": 112}, {"time": 2227, "pitch": 66, "duration": 17, "velocity": 112}, {"time": 2233, "pitch": 47, "duration": 3, "velocity": 86}, {"time": 2239, "pitch": 47, "duration": 21, "velocity": 89}, {"time": 2245, "pitch": 59, "duration": 8, "velocity": 99}, {"time": 2251, "pitch": 63, "duration": 11, "velocity": 117}, {"time": 2251, "pitch": 66, "duration": 11, "velocity": 122}, {"time": 2257, "pitch": 59, "duration": 6, "velocity": 99}, {"time": 2263, "pitch": 44, "duration": 15, "velocity": 99}, {"time": 2269, "pitch": 56, "duration": 10, "velocity": 100}, {"time": 2275, "pitch": 59, "duration": 21, "velocity": 93}, {"time": 2275, "pitch": 63, "duration": 21, "velocity": 100}, {"time": 2281, "pitch": 44, "duration": 4, "velocity": 102}, {"time": 2287, "pitch": 44, "duration": 21, "velocity": 122}, {"time": 2293, "pitch": 56, "duration": 13, "velocity": 112}, {"time": 2299, "pitch": 63, "duration": 12, "velocity": 127}, {"time": 2299, "pitch": 68, "duration": 12, "velocity": 127}, {"time": 2305, "pitch": 59, "duration": 6, "velocity": 97}, {"time": 2311, "pitch": 40, "duration": 14, "velocity": 96}, {"time": 2317, "pitch": 47, "duration": 9, "velocity": 70}, {"time": 2323, "pitch": 59, "duration": 12, "velocity": 85}, {"time": 2323, "pitch": 64, "duration": 15, "velocity": 89}, {"time": 2323, "pitch": 68, "duration": 15, "velocity": 90}, {"time": 2329, "pitch": 40, "duration": 3, "velocity": 82}, {"time": 2335, "pitch": 40, "duration": 18, "velocity": 93}, {"time": 2347, "pitch": 64, "duration": 11, "velocity": 100}, {"time": 2347, "pitch": 68, "duration": 11, "velocity": 107}, {"time": 2353, "pitch": 59, "duration": 5, "velocity": 93}, {"time": 2359, "pitch": 42, "duration": 15, "velocity": 100}, {"time": 2365, "pitch": 54, "duration": 9, "velocity": 89}, {"time": 2371, "pitch": 58, "duration": 11, "velocity": 95}, {"time": 2371, "pitch": 61, "duration": 14, "velocity": 107}, {"time": 2371, "pitch": 66, "duration": 15, "velocity": 93}, {"time": 2377, "pitch": 42, "duration": 3, "velocity": 86}, {"time": 2377, "pitch": 54, "duration": 2, "velocity": 76}, {"time": 2383, "pitch": 42, "duration": 19, "velocity": 82}, {"time": 2383, "pitch": 54, "duration": 21, "velocity": 112}, {"time": 2389, "pitch": 58, "duration": 8, "velocity": 72}, {"time": 2395, "pitch": 61, "duration": 11, "velocity": 100}, {"time": 2395, "pitch": 66, "duration": 11, "velocity": 112}, {"time": 2401, "pitch": 58, "duration": 5, "velocity": 95}, {"time": 2407, "pitch": 47, "duration": 15, "velocity": 95}, {"time": 2413, "pitch": 54, "duration": 10, "velocity": 92}, {"time": 2419, "pitch": 59, "duration": 15, "velocity": 82}, {"time": 2419, "pitch": 63, "duration": 15, "velocity": 107}, {"time": 2419, "pitch": 66, "duration": 15, "velocity": 99}, {"time": 2425, "pitch": 47, "duration": 3, "velocity": 93}, {"time": 2431, "pitch": 47, "duration": 15, "velocity": 90}, {"time": 2437, "pitch": 63, "duration": 19, "velocity": 100}, {"time": 2437, "pitch": 66, "duration": 19, "velocity": 117}, {"time": 2443, "pitch": 59, "duration": 13, "velocity": 107}, {"time": 2449, "pitch": 46, "duration": 6, "velocity": 97}, {"time": 2455, "pitch": 44, "duration": 14, "velocity": 112}, {"time": 2461, "pitch": 56, "duration": 10, "velocity": 97}, {"time": 2467, "pitch": 59, "duration": 22, "velocity": 66}, {"time": 2467, "pitch": 63, "duration": 21, "velocity": 89}, {"time": 2473, "pitch": 44, "duration": 3, "velocity": 102}, {"time": 2479, "pitch": 44, "duration": 17, "velocity": 102}, {"time": 2485, "pitch": 56, "duration": 8, "velocity": 100}, {"time": 2491, "pitch": 63, "duration": 12, "velocity": 96}, {"time": 2491, "pitch": 68, "duration": 12, "velocity": 112}, {"time": 2497, "pitch": 59, "duration": 7, "velocity": 90}, {"time": 2503, "pitch": 40, "duration": 15, "velocity": 86}, {"time": 2509, "pitch": 47, "duration": 10, "velocity": 77}, {"time": 2515, "pitch": 52, "duration": 11, "velocity": 83}, {"time": 2515, "pitch": 56, "duration": 16, "velocity": 82}, {"time": 2515, "pitch": 59, "duration": 23, "velocity": 82}, {"time": 2521, "pitch": 40, "duration": 3, "velocity": 89}, {"time": 2527, "pitch": 40, "duration": 10, "velocity": 92}, {"time": 2533, "pitch": 52, "duration": 5, "velocity": 92}, {"time": 2533, "pitch": 56, "duration": 4, "velocity": 40}, {"time": 2539, "pitch": 42, "duration": 10, "velocity": 92}, {"time": 2551, "pitch": 47, "duration": 15, "velocity": 83}, {"time": 2557, "pitch": 54, "duration": 11, "velocity": 82}, {"time": 2563, "pitch": 63, "duration": 21, "velocity": 93}, {"time": 2563, "pitch": 66, "duration": 21, "velocity": 93}, {"time": 2569, "pitch": 47, "duration": 3, "velocity": 90}, {"time": 2575, "pitch": 47, "duration": 17, "velocity": 86}, {"time": 2581, "pitch": 54, "duration": 11, "velocity": 88}, {"time": 2587, "pitch": 63, "duration": 11, "velocity": 117}, {"time": 2587, "pitch": 66, "duration": 11, "velocity": 102}, {"time": 2593, "pitch": 59, "duration": 5, "velocity": 90}, {"time": 2599, "pitch": 37, "duration": 16, "velocity": 97}, {"time": 2605, "pitch": 49, "duration": 10, "velocity": 89}, {"time": 2611, "pitch": 52, "duration": 13, "velocity": 86}, {"time": 2611, "pitch": 56, "duration": 14, "velocity": 93}, {"time": 2611, "pitch": 61, "duration": 14, "velocity": 86}, {"time": 2617, "pitch": 37, "duration": 3, "velocity": 92}, {"time": 2623, "pitch": 37, "duration": 14, "velocity": 83}, {"time": 2629, "pitch": 49, "duration": 10, "velocity": 88}, {"time": 2635, "pitch": 56, "duration": 11, "velocity": 107}, {"time": 2635, "pitch": 61, "duration": 11, "velocity": 112}, {"time": 2641, "pitch": 52, "duration": 5, "velocity": 85}, {"time": 2647, "pitch": 39, "duration": 15, "velocity": 90}, {"time": 2653, "pitch": 51, "duration": 10, "velocity": 85}, {"time": 2659, "pitch": 54, "duration": 20, "velocity": 102}, {"time": 2659, "pitch": 58, "duration": 18, "velocity": 93}, {"time": 2665, "pitch": 39, "duration": 3, "velocity": 112}, {"time": 2671, "pitch": 39, "duration": 3, "velocity": 85}, {"time": 2674, "pitch": 39, "duration": 9, "velocity": 33}, {"time": 2677, "pitch": 51, "duration": 9, "velocity": 102}, {"time": 2683, "pitch": 58, "duration": 10, "velocity": 102}, {"time": 2683, "pitch": 63, "duration": 11, "velocity": 92}, {"time": 2689, "pitch": 54, "duration": 6, "velocity": 93}, {"time": 2695, "pitch": 44, "duration": 15, "velocity": 99}, {"time": 2701, "pitch": 56, "duration": 5, "velocity": 86}, {"time": 2707, "pitch": 56, "duration": 20, "velocity": 122}, {"time": 2707, "pitch": 59, "duration": 18, "velocity": 95}, {"time": 2707, "pitch": 63, "duration": 20, "velocity": 97}, {"time": 2713, "pitch": 44, "duration": 3, "velocity": 102}, {"time": 2719, "pitch": 44, "duration": 3, "velocity": 100}, {"time": 2725, "pitch": 44, "duration": 10, "velocity": 107}, {"time": 2731, "pitch": 59, "duration": 10, "velocity": 107}, {"time": 2731, "pitch": 63, "duration": 11, "velocity": 102}, {"time": 2737, "pitch": 56, "duration": 6, "velocity": 100}, {"time": 2743, "pitch": 37, "duration": 14, "velocity": 102}, {"time": 2749, "pitch": 49, "duration": 9, "velocity": 82}, {"time": 2755, "pitch": 52, "duration": 8, "velocity": 83}, {"time": 2755, "pitch": 56, "duration": 9, "velocity": 100}, {"time": 2755, "pitch": 61, "duration": 11, "velocity": 92}, {"time": 2761, "pitch": 37, "duration": 4, "velocity": 107}, {"time": 2767, "pitch": 42, "duration": 14, "velocity": 97}, {"time": 2773, "pitch": 54, "duration": 8, "velocity": 97}, {"time": 2779, "pitch": 58, "duration": 11, "velocity": 99}, {"time": 2779, "pitch": 61, "duration": 12, "velocity": 112}, {"time": 2785, "pitch": 54, "duration": 6, "velocity": 112}, {"time": 2791, "pitch": 47, "duration": 15, "velocity": 97}, {"time": 2797, "pitch": 54, "duration": 10, "velocity": 89}, {"time": 2803, "pitch": 59, "duration": 14, "velocity": 85}, {"time": 2803, "pitch": 63, "duration": 16, "velocity": 99}, {"time": 2803, "pitch": 66, "duration": 16, "velocity": 93}, {"time": 2809, "pitch": 47, "duration": 3, "velocity": 90}, {"time": 2815, "pitch": 47, "duration": 10, "velocity": 92}, {"time": 2821, "pitch": 59, "duration": 6, "velocity": 88}, {"time": 2821, "pitch": 63, "duration": 6, "velocity": 102}, {"time": 2821, "pitch": 66, "duration": 7, "velocity": 96}, {"time": 2827, "pitch": 46, "duration": 10, "velocity": 97}, {"time": 2833, "pitch": 59, "duration": 6, "velocity": 81}, {"time": 2833, "pitch": 63, "duration": 6, "velocity": 85}, {"time": 2833, "pitch": 66, "duration": 6, "velocity": 72}, {"time": 2839, "pitch": 44, "duration": 16, "velocity": 112}, {"time": 2845, "pitch": 56, "duration": 10, "velocity": 89}, {"time": 2851, "pitch": 59, "duration": 19, "velocity": 76}, {"time": 2851, "pitch": 63, "duration": 20, "velocity": 99}, {"time": 2851, "pitch": 68, "duration": 21, "velocity": 93}, {"time": 2857, "pitch": 44, "duration": 2, "velocity": 99}, {"time": 2863, "pitch": 44, "duration": 15, "velocity": 92}, {"time": 2869, "pitch": 56, "duration": 7, "velocity": 90}, {"time": 2875, "pitch": 63, "duration": 10, "velocity": 112}, {"time": 2875, "pitch": 68, "duration": 10, "velocity": 99}, {"time": 2881, "pitch": 59, "duration": 5, "velocity": 83}, {"time": 2887, "pitch": 40, "duration": 15, "velocity": 93}, {"time": 2893, "pitch": 47, "duration": 10, "velocity": 58}, {"time": 2899, "pitch": 52, "duration": 8, "velocity": 78}, {"time": 2899, "pitch": 56, "duration": 12, "velocity": 86}, {"time": 2899, "pitch": 59, "duration": 12, "velocity": 83}, {"time": 2905, "pitch": 40, "duration": 3, "velocity": 75}, {"time": 2911, "pitch": 40, "duration": 9, "velocity": 92}, {"time": 2917, "pitch": 52, "duration": 6, "velocity": 92}, {"time": 2923, "pitch": 42, "duration": 9, "velocity": 99}, {"time": 2929, "pitch": 54, "duration": 6, "velocity": 92}, {"time": 2935, "pitch": 47, "duration": 14, "velocity": 78}, {"time": 2941, "pitch": 54, "duration": 9, "velocity": 67}, {"time": 2947, "pitch": 59, "duration": 15, "velocity": 75}, {"time": 2947, "pitch": 63, "duration": 15, "velocity": 85}, {"time": 2947, "pitch": 66, "duration": 15, "velocity": 92}, {"time": 2953, "pitch": 47, "duration": 3, "velocity": 79}, {"time": 2959, "pitch": 47, "duration": 22, "velocity": 85}, {"time": 2965, "pitch": 59, "duration": 5, "velocity": 73}, {"time": 2971, "pitch": 63, "duration": 10, "velocity": 107}, {"time": 2971, "pitch": 66, "duration": 10, "velocity": 107}, {"time": 2977, "pitch": 59, "duration": 7, "velocity": 96}, {"time": 2983, "pitch": 44, "duration": 15, "velocity": 102}, {"time": 2989, "pitch": 56, "duration": 10, "velocity": 85}, {"time": 2995, "pitch": 59, "duration": 20, "velocity": 78}, {"time": 2995, "pitch": 63, "duration": 20, "velocity": 92}, {"time": 2995, "pitch": 68, "duration": 20, "velocity": 82}, {"time": 3001, "pitch": 44, "duration": 3, "velocity": 95}, {"time": 3007, "pitch": 44, "duration": 13, "velocity": 96}, {"time": 3013, "pitch": 56, "duration": 6, "velocity": 107}, {"time": 3019, "pitch": 63, "duration": 12, "velocity": 117}, {"time": 3019, "pitch": 68, "duration": 11, "velocity": 99}, {"time": 3025, "pitch": 59, "duration": 6, "velocity": 90}, {"time": 3031, "pitch": 40, "duration": 15, "velocity": 76}, {"time": 3037, "pitch": 47, "duration": 10, "velocity": 74}, {"time": 3043, "pitch": 52, "duration": 15, "velocity": 59}, {"time": 3043, "pitch": 56, "duration": 15, "velocity": 86}, {"time": 3043, "pitch": 59, "duration": 16, "velocity": 81}, {"time": 3049, "pitch": 40, "duration": 3, "velocity": 77}, {"time": 3055, "pitch": 40, "duration": 14, "velocity": 88}, {"time": 3061, "pitch": 47, "duration": 10, "velocity": 63}, {"time": 3067, "pitch": 56, "duration": 12, "velocity": 95}, {"time": 3067, "pitch": 59, "duration": 11, "velocity": 83}, {"time": 3073, "pitch": 52, "duration": 5, "velocity": 90}, {"time": 3079, "pitch": 42, "duration": 15, "velocity": 88}, {"time": 3085, "pitch": 54, "duration": 9, "velocity": 77}, {"time": 3088, "pitch": 49, "duration": 5, "velocity": 25}, {"time": 3091, "pitch": 58, "duration": 15, "velocity": 97}, {"time": 3091, "pitch": 61, "duration": 15, "velocity": 100}, {"time": 3091, "pitch": 66, "duration": 15, "velocity": 92}, {"time": 3097, "pitch": 42, "duration": 3, "velocity": 78}, {"time": 3097, "pitch": 54, "duration": 2, "velocity": 89}, {"time": 3103, "pitch": 42, "duration": 13, "velocity": 88}, {"time": 3103, "pitch": 54, "duration": 15, "velocity": 102}, {"time": 3109, "pitch": 58, "duration": 8, "velocity": 112}, {"time": 3115, "pitch": 61, "duration": 12, "velocity": 127}, {"time": 3115, "pitch": 66, "duration": 11, "velocity": 127}, {"time": 3121, "pitch": 58, "duration": 6, "velocity": 97}, {"time": 3127, "pitch": 47, "duration": 15, "velocity": 88}, {"time": 3133, "pitch": 54, "duration": 10, "velocity": 75}, {"time": 3139, "pitch": 59, "duration": 14, "velocity": 72}, {"time": 3139, "pitch": 63, "duration": 15, "velocity": 107}, {"time": 3139, "pitch": 66, "duration": 15, "velocity": 97}, {"time": 3145, "pitch": 47, "duration": 3, "velocity": 81}, {"time": 3151, "pitch": 47, "duration": 10, "velocity": 86}, {"time": 3157, "pitch": 63, "duration": 14, "velocity": 127}, {"time": 3157, "pitch": 66, "duration": 15, "velocity": 122}, {"time": 3163, "pitch": 46, "duration": 10, "velocity": 95}, {"time": 3169, "pitch": 59, "duration": 10, "velocity": 86}, {"time": 3175, "pitch": 44, "duration": 15, "velocity": 107}, {"time": 3181, "pitch": 56, "duration": 10, "velocity": 69}, {"time": 3187, "pitch": 59, "duration": 20, "velocity": 83}, {"time": 3187, "pitch": 63, "duration": 20, "velocity": 97}, {"time": 3187, "pitch": 68, "duration": 21, "velocity": 88}, {"time": 3193, "pitch": 44, "duration": 3, "velocity": 89}, {"time": 3199, "pitch": 44, "duration": 13, "velocity": 97}, {"time": 3205, "pitch": 56, "duration": 6, "velocity": 100}, {"time": 3211, "pitch": 63, "duration": 11, "velocity": 127}, {"time": 3211, "pitch": 68, "duration": 10, "velocity": 107}, {"time": 3217, "pitch": 59, "duration": 5, "velocity": 93}, {"time": 3223, "pitch": 40, "duration": 13, "velocity": 86}, {"time": 3229, "pitch": 47, "duration": 7, "velocity": 76}, {"time": 3235, "pitch": 56, "duration": 10, "velocity": 100}, {"time": 3235, "pitch": 59, "duration": 9, "velocity": 89}, {"time": 3241, "pitch": 52, "duration": 3, "velocity": 86}, {"time": 3247, "pitch": 42, "duration": 17, "velocity": 93}, {"time": 3253, "pitch": 54, "duration": 5, "velocity": 55}, {"time": 3259, "pitch": 58, "duration": 11, "velocity": 107}, {"time": 3259, "pitch": 61, "duration": 11, "velocity": 107}, {"time": 3265, "pitch": 54, "duration": 5, "velocity": 72}, {"time": 3271, "pitch": 42, "duration": 14, "velocity": 93}, {"time": 3277, "pitch": 54, "duration": 20, "velocity": 78}, {"time": 3283, "pitch": 58, "duration": 3, "velocity": 86}, {"time": 3283, "pitch": 61, "duration": 16, "velocity": 102}, {"time": 3286, "pitch": 58, "duration": 9, "velocity": 26}, {"time": 3289, "pitch": 42, "duration": 3, "velocity": 102}, {"time": 3295, "pitch": 42, "duration": 21, "velocity": 100}, {"time": 3301, "pitch": 54, "duration": 8, "velocity": 93}, {"time": 3307, "pitch": 58, "duration": 12, "velocity": 99}, {"time": 3307, "pitch": 61, "duration": 12, "velocity": 112}, {"time": 3313, "pitch": 54, "duration": 6, "velocity": 99}, {"time": 3319, "pitch": 47, "duration": 14, "velocity": 78}, {"time": 3325, "pitch": 54, "duration": 9, "velocity": 67}, {"time": 3331, "pitch": 59, "duration": 15, "velocity": 75}, {"time": 3331, "pitch": 63, "duration": 15, "velocity": 85}, {"time": 3331, "pitch": 66, "duration": 15, "velocity": 92}, {"time": 3337, "pitch": 47, "duration": 3, "velocity": 79}, {"time": 3343, "pitch": 47, "duration": 22, "velocity": 85}, {"time": 3349, "pitch": 59, "duration": 5, "velocity": 73}, {"time": 3355, "pitch": 63, "duration": 10, "velocity": 107}, {"time": 3355, "pitch": 66, "duration": 10, "velocity": 107}, {"time": 3361, "pitch": 59, "duration": 7, "velocity": 96}, {"time": 3367, "pitch": 44, "duration": 15, "velocity": 102}, {"time": 3373, "pitch": 56, "duration": 10, "velocity": 85}, {"time": 3379, "pitch": 59, "duration": 20, "velocity": 78}, {"time": 3379, "pitch": 63, "duration": 20, "velocity": 92}, {"time": 3379, "pitch": 68, "duration": 20, "velocity": 82}, {"time": 3385, "pitch": 44, "duration": 3, "velocity": 95}, {"time": 3391, "pitch": 44, "duration": 13, "velocity": 96}, {"time": 3397, "pitch": 56, "duration": 6, "velocity": 107}, {"time": 3403, "pitch": 63, "duration": 12, "velocity": 117}, {"time": 3403, "pitch": 68, "duration": 11, "velocity": 99}, {"time": 3409, "pitch": 59, "duration": 6, "velocity": 90}, {"time": 3415, "pitch": 40, "duration": 15, "velocity": 76}, {"time": 3421, "pitch": 47, "duration": 10, "velocity": 74}, {"time": 3427, "pitch": 52, "duration": 15, "velocity": 59}, {"time": 3427, "pitch": 56, "duration": 15, "velocity": 86}, {"time": 3427, "pitch": 59, "duration": 16, "velocity": 81}, {"time": 3433, "pitch": 40, "duration": 3, "velocity": 77}, {"time": 3439, "pitch": 40, "duration": 14, "velocity": 88}, {"time": 3445, "pitch": 47, "duration": 10, "velocity": 63}, {"time": 3451, "pitch": 56, "duration": 12, "velocity": 95}, {"time": 3451, "pitch": 59, "duration": 11, "velocity": 83}, {"time": 3457, "pitch": 52, "duration": 5, "velocity": 90}, {"time": 3463, "pitch": 42, "duration": 15, "velocity": 88}, {"time": 3469, "pitch": 54, "duration": 9, "velocity": 77}, {"time": 3472, "pitch": 49, "duration": 5, "velocity": 25}, {"time": 3475, "pitch": 58, "duration": 15, "velocity": 97}, {"time": 3475, "pitch": 61, "duration": 15, "velocity": 100}, {"time": 3475, "pitch": 66, "duration": 15, "velocity": 92}, {"time": 3481, "pitch": 42, "duration": 3, "velocity": 78}, {"time": 3481, "pitch": 54, "duration": 2, "velocity": 89}, {"time": 3487, "pitch": 42, "duration": 13, "velocity": 88}, {"time": 3487, "pitch": 54, "duration": 15, "velocity": 102}, {"time": 3493, "pitch": 58, "duration": 8, "velocity": 112}, {"time": 3499, "pitch": 61, "duration": 12, "velocity": 127}, {"time": 3499, "pitch": 66, "duration": 11, "velocity": 127}, {"time": 3505, "pitch": 58, "duration": 6, "velocity": 97}, {"time": 3511, "pitch": 47, "duration": 15, "velocity": 88}, {"time": 3517, "pitch": 54, "duration": 10, "velocity": 75}, {"time": 3523, "pitch": 59, "duration": 14, "velocity": 72}, {"time": 3523, "pitch": 63, "duration": 15, "velocity": 107}, {"time": 3523, "pitch": 66, "duration": 15, "velocity": 97}, {"time": 3529, "pitch": 47, "duration": 3, "velocity": 81}, {"time": 3535, "pitch": 47, "duration": 10, "velocity": 86}, {"time": 3541, "pitch": 63, "duration": 14, "velocity": 127}, {"time": 3541, "pitch": 66, "duration": 15, "velocity": 122}, {"time": 3547, "pitch": 46, "duration": 10, "velocity": 95}, {"time": 3553, "pitch": 59, "duration": 10, "velocity": 86}, {"time": 3559, "pitch": 44, "duration": 15, "velocity": 107}, {"time": 3565, "pitch": 56, "duration": 10, "velocity": 69}, {"time": 3571, "pitch": 59, "duration": 20, "velocity": 83}, {"time": 3571, "pitch": 63, "duration": 20, "velocity": 97}, {"time": 3571, "pitch": 68, "duration": 21, "velocity": 88}, {"time": 3577, "pitch": 44, "duration": 3, "velocity": 89}, {"time": 3583, "pitch": 44, "duration": 13, "velocity": 97}, {"time": 3589, "pitch": 56, "duration": 6, "velocity": 100}, {"time": 3595, "pitch": 63, "duration": 11, "velocity": 127}, {"time": 3595, "pitch": 68, "duration": 10, "velocity": 107}, {"time": 3601, "pitch": 59, "duration": 5, "velocity": 93}, {"time": 3607, "pitch": 40, "duration": 13, "velocity": 86}, {"time": 3613, "pitch": 47, "duration": 7, "velocity": 76}, {"time": 3619, "pitch": 56, "duration": 10, "velocity": 100}, {"time": 3619, "pitch": 59, "duration": 9, "velocity": 89}, {"time": 3625, "pitch": 52, "duration": 3, "velocity": 86}, {"time": 3631, "pitch": 42, "duration": 17, "velocity": 93}, {"time": 3637, "pitch": 54, "duration": 5, "velocity": 55}, {"time": 3643, "pitch": 58, "duration": 11, "velocity": 107}, {"time": 3643, "pitch": 61, "duration": 11, "velocity": 107}, {"time": 3649, "pitch": 54, "duration": 5, "velocity": 72}, {"time": 3655, "pitch": 42, "duration": 14, "velocity": 93}, {"time": 3661, "pitch": 54, "duration": 20, "velocity": 78}, {"time": 3667, "pitch": 58, "duration": 3, "velocity": 86}, {"time": 3667, "pitch": 61, "duration": 16, "velocity": 102}, {"time": 3670, "pitch": 58, "duration": 9, "velocity": 26}, {"time": 3673, "pitch": 42, "duration": 3, "velocity": 102}, {"time": 3679, "pitch": 42, "duration": 21, "velocity": 100}, {"time": 3685, "pitch": 54, "duration": 8, "velocity": 93}, {"time": 3691, "pitch": 58, "duration": 12, "velocity": 99}, {"time": 3691, "pitch": 61, "duration": 12, "velocity": 112}, {"time": 3697, "pitch": 54, "duration": 6, "velocity": 99}], "annotations": [{"time": 0, "annotation": {"number": 7, "value": 101}, "group": "control_change"}, {"time": 18, "annotation": {"number": 64, "value": 127}, "group": "control_change"}, {"time": 52, "annotation": {"number": 64, "value": 0}, "group": "control_change"}, {"time": 57, "annotation": {"number": 64, "value": 127}, "group": "control_change"}, {"time": 98, "annotation": {"number": 64, "value": 0}, "group": "control_change"}, {"time": 103, "annotation": {"number": 64, "value": 127}, "group": "control_change"}, {"time": 148, "annotation": {"number": 64, "value": 0}, "group": "control_change"}, {"time": 151, "annotation": {"number": 64, "value": 127}, "group": "control_change"}, {"time": 196, "annotation": {"number": 64, "value": 0}, "group": "control_change"}, {"time": 200, "annotation": {"number": 64, "value": 127}, "group": "control_change"}, {"time": 244, "annotation": {"number": 64, "value": 0}, "group": "control_change"}, {"time": 248, "annotation": {"number": 64, "value": 127}, "group": "control_change"}, {"time": 291, "annotation": {"number": 64, "value": 0}, "group": "control_change"}, {"time": 296, "annotation": {"number": 64, "value": 127}, "group": "control_change"}, {"time": 318, "annotation": {"number": 64, "value": 0}, "group": "control_change"}, {"time": 322, "annotation": {"number": 64, "value": 127}, "group": "control_change"}, {"time": 340, "annotation": {"number": 64, "value": 0}, "group": "control_change"}, {"time": 343, "annotation": {"number": 64, "value": 127}, "group": "control_change"}, {"time": 387, "annotation": {"number": 64, "value": 0}, "group": "control_change"}, {"time": 398, "annotation": {"number": 64, "value": 127}, "group": "control_change"}, {"time": 435, "annotation": {"number": 64, "value": 0}, "group": "control_change"}, {"time": 440, "annotation": {"number": 64, "value": 127}, "group": "control_change"}, {"time": 483, "annotation": {"number": 64, "value": 0}, "group": "control_change"}, {"time": 488, "annotation": {"number": 64, "value": 127}, "group": "control_change"}, {"time": 572, "annotation": {"number": 64, "value": 0}, "group": "control_change"}, {"time": 584, "annotation": {"number": 64, "value": 127}, "group": "control_change"}, {"time": 626, "annotation": {"number": 64, "value": 0}, "group": "control_change"}, {"time": 632, "annotation": {"number": 64, "value": 127}, "group": "control_change"}, {"time": 668, "annotation": {"number": 64, "value": 0}, "group": "control_change"}, {"time": 679, "annotation": {"number": 64, "value": 127}, "group": "control_change"}, {"time": 699, "annotation": {"number": 64, "value": 0}, "group": "control_change"}, {"time": 703, "annotation": {"number": 64, "value": 127}, "group": "control_change"}, {"time": 722, "annotation": {"number": 64, "value": 0}, "group": "control_change"}, {"time": 727, "annotation": {"number": 64, "value": 127}, "group": "control_change"}, {"time": 761, "annotation": {"number": 64, "value": 0}, "group": "control_change"}, {"time": 776, "annotation": {"number": 64, "value": 127}, "group": "control_change"}, {"time": 818, "annotation": {"number": 64, "value": 0}, "group": "control_change"}, {"time": 823, "annotation": {"number": 64, "value": 127}, "group": "control_change"}, {"time": 868, "annotation": {"number": 64, "value": 0}, "group": "control_change"}, {"time": 872, "annotation": {"number": 64, "value": 127}, "group": "control_change"}, {"time": 914, "annotation": {"number": 64, "value": 0}, "group": "control_change"}, {"time": 919, "annotation": {"number": 64, "value": 127}, "group": "control_change"}, {"time": 963, "annotation": {"number": 64, "value": 0}, "group": "control_change"}, {"time": 967, "annotation": {"number": 64, "value": 127}, "group": "control_change"}, {"time": 988, "annotation": {"number": 64, "value": 0}, "group": "control_change"}, {"time": 991, "annotation": {"number": 64, "value": 127}, "group": "control_change"}, {"time": 1013, "annotation": {"number": 64, "value": 0}, "group": "control_change"}, {"time": 1015, "annotation": {"number": 64, "value": 127}, "group": "control_change"}, {"time": 1029, "annotation": {"number": 64, "value": 0}, "group": "control_change"}, {"time": 1038, "annotation": {"number": 64, "value": 127}, "group": "control_change"}, {"time": 1057, "annotation": {"number": 64, "value": 0}, "group": "control_change"}, {"time": 1063, "annotation": {"number": 64, "value": 127}, "group": "control_change"}, {"time": 1107, "annotation": {"number": 64, "value": 0}, "group": "control_change"}, {"time": 1111, "annotation": {"number": 64, "value": 127}, "group": "control_change"}, {"time": 1156, "annotation": {"number": 64, "value": 0}, "group": "control_change"}, {"time": 1159, "annotation": {"number": 64, "value": 127}, "group": "control_change"}, {"time": 1202, "annotation": {"number": 64, "value": 0}, "group": "control_change"}, {"time": 1207, "annotation": {"number": 64, "value": 127}, "group": "control_change"}, {"time": 1227, "annotation": {"number": 64, "value": 0}, "group": "control_change"}, {"time": 1232, "annotation": {"number": 64, "value": 127}, "group": "control_change"}, {"time": 1252, "annotation": {"number": 64, "value": 0}, "group": "control_change"}, {"time": 1256, "annotation": {"number": 64, "value": 127}, "group": "control_change"}, {"time": 1272, "annotation": {"number": 64, "value": 0}, "group": "control_change"}, {"time": 1280, "annotation": {"number": 64, "value": 127}, "group": "control_change"}, {"time": 1299, "annotation": {"number": 64, "value": 0}, "group": "control_change"}, {"time": 1303, "annotation": {"number": 64, "value": 127}, "group": "control_change"}, {"time": 1322, "annotation": {"number": 64, "value": 0}, "group": "control_change"}, {"time": 1327, "annotation": {"number": 64, "value": 127}, "group": "control_change"}, {"time": 1348, "annotation": {"number": 64, "value": 0}, "group": "control_change"}, {"time": 1351, "annotation": {"number": 64, "value": 127}, "group": "control_change"}, {"time": 1390, "annotation": {"number": 64, "value": 0}, "group": "control_change"}, {"time": 1399, "annotation": {"number": 64, "value": 127}, "group": "control_change"}, {"time": 1442, "annotation": {"number": 64, "value": 0}, "group": "control_change"}, {"time": 1447, "annotation": {"number": 64, "value": 127}, "group": "control_change"}, {"time": 1464, "annotation": {"number": 64, "value": 0}, "group": "control_change"}, {"time": 1471, "annotation": {"number": 64, "value": 127}, "group": "control_change"}, {"time": 1490, "annotation": {"number": 64, "value": 0}, "group": "control_change"}, {"time": 1495, "annotation": {"number": 64, "value": 127}, "group": "control_change"}, {"time": 1512, "annotation": {"number": 64, "value": 0}, "group": "control_change"}, {"time": 1543, "annotation": {"number": 64, "value": 127}, "group": "control_change"}, {"time": 1557, "annotation": {"number": 64, "value": 0}, "group": "control_change"}, {"time": 1562, "annotation": {"number": 64, "value": 127}, "group": "control_change"}, {"time": 1565, "annotation": {"number": 64, "value": 0}, "group": "control_change"}, {"time": 1570, "annotation": {"number": 64, "value": 127}, "group": "control_change"}, {"time": 1587, "annotation": {"number": 64, "value": 0}, "group": "control_change"}, {"time": 1591, "annotation": {"number": 64, "value": 127}, "group": "control_change"}, {"time": 1605, "annotation": {"number": 64, "value": 0}, "group": "control_change"}, {"time": 1609, "annotation": {"number": 64, "value": 127}, "group": "control_change"}, {"time": 1611, "annotation": {"number": 64, "value": 0}, "group": "control_change"}, {"time": 1616, "annotation": {"number": 64, "value": 127}, "group": "control_change"}, {"time": 1627, "annotation": {"number": 64, "value": 0}, "group": "control_change"}, {"time": 1639, "annotation": {"number": 64, "value": 127}, "group": "control_change"}, {"time": 1653, "annotation": {"number": 64, "value": 0}, "group": "control_change"}, {"time": 1660, "annotation": {"number": 64, "value": 127}, "group": "control_change"}, {"time": 1682, "annotation": {"number": 64, "value": 0}, "group": "control_change"}, {"time": 1687, "annotation": {"number": 64, "value": 127}, "group": "control_change"}, {"time": 1701, "annotation": {"number": 64, "value": 0}, "group": "control_change"}, {"time": 1706, "annotation": {"number": 64, "value": 127}, "group": "control_change"}, {"time": 1708, "annotation": {"number": 64, "value": 0}, "group": "control_change"}, {"time": 1712, "annotation": {"number": 64, "value": 127}, "group": "control_change"}, {"time": 1731, "annotation": {"number": 64, "value": 0}, "group": "control_change"}, {"time": 1735, "annotation": {"number": 64, "value": 127}, "group": "control_change"}, {"time": 1736, "annotation": {"number": 64, "value": 127}, "group": "control_change"}, {"time": 1758, "annotation": {"number": 64, "value": 0}, "group": "control_change"}, {"time": 1783, "annotation": {"number": 64, "value": 127}, "group": "control_change"}, {"time": 1825, "annotation": {"number": 64, "value": 0}, "group": "control_change"}, {"time": 1832, "annotation": {"number": 64, "value": 127}, "group": "control_change"}, {"time": 1844, "annotation": {"number": 64, "value": 0}, "group": "control_change"}, {"time": 1851, "annotation": {"number": 64, "value": 127}, "group": "control_change"}, {"time": 1852, "annotation": {"number": 64, "value": 0}, "group": "control_change"}, {"time": 1856, "annotation": {"number": 64, "value": 127}, "group": "control_change"}, {"time": 1875, "annotation": {"number": 64, "value": 0}, "group": "control_change"}, {"time": 1879, "annotation": {"number": 64, "value": 127}, "group": "control_change"}, {"time": 1892, "annotation": {"number": 64, "value": 0}, "group": "control_change"}, {"time": 1905, "annotation": {"number": 64, "value": 127}, "group": "control_change"}, {"time": 1921, "annotation": {"number": 64, "value": 0}, "group": "control_change"}, {"time": 1927, "annotation": {"number": 64, "value": 127}, "group": "control_change"}, {"time": 1941, "annotation": {"number": 64, "value": 0}, "group": "control_change"}, {"time": 1954, "annotation": {"number": 64, "value": 127}, "group": "control_change"}, {"time": 1957, "annotation": {"number": 64, "value": 0}, "group": "control_change"}, {"time": 1975, "annotation": {"number": 64, "value": 127}, "group": "control_change"}, {"time": 1988, "annotation": {"number": 64, "value": 0}, "group": "control_change"}, {"time": 1993, "annotation": {"number": 64, "value": 127}, "group": "control_change"}, {"time": 1996, "annotation": {"number": 64, "value": 0}, "group": "control_change"}, {"time": 2000, "annotation": {"number": 64, "value": 127}, "group": "control_change"}, {"time": 2006, "annotation": {"number": 64, "value": 0}, "group": "control_change"}, {"time": 2011, "annotation": {"number": 64, "value": 127}, "group": "control_change"}, {"time": 2018, "annotation": {"number": 64, "value": 0}, "group": "control_change"}, {"time": 2023, "annotation": {"number": 64, "value": 127}, "group": "control_change"}, {"time": 2030, "annotation": {"number": 64, "value": 0}, "group": "control_change"}, {"time": 2036, "annotation": {"number": 64, "value": 127}, "group": "control_change"}, {"time": 2038, "annotation": {"number": 64, "value": 0}, "group": "control_change"}, {"time": 2048, "annotation": {"number": 64, "value": 127}, "group": "control_change"}, {"time": 2054, "annotation": {"number": 64, "value": 0}, "group": "control_change"}, {"time": 2059, "annotation": {"number": 64, "value": 127}, "group": "control_change"}, {"time": 2062, "annotation": {"number": 64, "value": 0}, "group": "control_change"}, {"time": 2070, "annotation": {"number": 64, "value": 127}, "group": "control_change"}, {"time": 2082, "annotation": {"number": 64, "value": 0}, "group": "control_change"}, {"time": 2119, "annotation": {"number": 64, "value": 127}, "group": "control_change"}, {"time": 2124, "annotation": {"number": 64, "value": 0}, "group": "control_change"}, {"time": 2145, "annotation": {"number": 64, "value": 127}, "group": "control_change"}, {"time": 2148, "annotation": {"number": 64, "value": 0}, "group": "control_change"}, {"time": 2156, "annotation": {"number": 64, "value": 127}, "group": "control_change"}, {"time": 2157, "annotation": {"number": 64, "value": 0}, "group": "control_change"}, {"time": 2166, "annotation": {"number": 64, "value": 127}, "group": "control_change"}, {"time": 2167, "annotation": {"number": 64, "value": 127}, "group": "control_change"}, {"time": 2178, "annotation": {"number": 64, "value": 0}, "group": "control_change"}, {"time": 2216, "annotation": {"number": 64, "value": 127}, "group": "control_change"}, {"time": 2228, "annotation": {"number": 64, "value": 0}, "group": "control_change"}, {"time": 2240, "annotation": {"number": 64, "value": 127}, "group": "control_change"}, {"time": 2260, "annotation": {"number": 64, "value": 0}, "group": "control_change"}, {"time": 2293, "annotation": {"number": 64, "value": 127}, "group": "control_change"}, {"time": 2307, "annotation": {"number": 64, "value": 0}, "group": "control_change"}, {"time": 2313, "annotation": {"number": 64, "value": 127}, "group": "control_change"}, {"time": 2324, "annotation": {"number": 64, "value": 0}, "group": "control_change"}, {"time": 2329, "annotation": {"number": 64, "value": 127}, "group": "control_change"}, {"time": 2340, "annotation": {"number": 64, "value": 0}, "group": "control_change"}, {"time": 2359, "annotation": {"number": 64, "value": 127}, "group": "control_change"}, {"time": 2372, "annotation": {"number": 64, "value": 0}, "group": "control_change"}, {"time": 2408, "annotation": {"number": 64, "value": 127}, "group": "control_change"}, {"time": 2420, "annotation": {"number": 64, "value": 0}, "group": "control_change"}, {"time": 2426, "annotation": {"number": 64, "value": 127}, "group": "control_change"}, {"time": 2438, "annotation": {"number": 64, "value": 0}, "group": "control_change"}, {"time": 2455, "annotation": {"number": 64, "value": 127}, "group": "control_change"}, {"time": 2468, "annotation": {"number": 64, "value": 0}, "group": "control_change"}, {"time": 2480, "annotation": {"number": 64, "value": 127}, "group": "control_change"}, {"time": 2498, "annotation": {"number": 64, "value": 0}, "group": "control_change"}, {"time": 2503, "annotation": {"number": 64, "value": 127}, "group": "control_change"}, {"time": 2517, "annotation": {"number": 64, "value": 0}, "group": "control_change"}, {"time": 2553, "annotation": {"number": 64, "value": 127}, "group": "control_change"}, {"time": 2571, "annotation": {"number": 64, "value": 0}, "group": "control_change"}, {"time": 2599, "annotation": {"number": 64, "value": 127}, "group": "control_change"}, {"time": 2613, "annotation": {"number": 64, "value": 0}, "group": "control_change"}, {"time": 2618, "annotation": {"number": 64, "value": 127}, "group": "control_change"}, {"time": 2621, "annotation": {"number": 64, "value": 0}, "group": "control_change"}, {"time": 2624, "annotation": {"number": 64, "value": 127}, "group": "control_change"}, {"time": 2643, "annotation": {"number": 64, "value": 0}, "group": "control_change"}, {"time": 2647, "annotation": {"number": 64, "value": 127}, "group": "control_change"}, {"time": 2660, "annotation": {"number": 64, "value": 0}, "group": "control_change"}, {"time": 2665, "annotation": {"number": 64, "value": 127}, "group": "control_change"}, {"time": 2690, "annotation": {"number": 64, "value": 0}, "group": "control_change"}, {"time": 2695, "annotation": {"number": 64, "value": 127}, "group": "control_change"}, {"time": 2707, "annotation": {"number": 64, "value": 0}, "group": "control_change"}, {"time": 2713, "annotation": {"number": 64, "value": 127}, "group": "control_change"}, {"time": 2717, "annotation": {"number": 64, "value": 0}, "group": "control_change"}, {"time": 2729, "annotation": {"number": 64, "value": 127}, "group": "control_change"}, {"time": 2739, "annotation": {"number": 64, "value": 0}, "group": "control_change"}, {"time": 2743, "annotation": {"number": 64, "value": 127}, "group": "control_change"}, {"time": 2757, "annotation": {"number": 64, "value": 0}, "group": "control_change"}, {"time": 2761, "annotation": {"number": 64, "value": 127}, "group": "control_change"}, {"time": 2764, "annotation": {"number": 64, "value": 0}, "group": "control_change"}, {"time": 2779, "annotation": {"number": 64, "value": 127}, "group": "control_change"}, {"time": 2783, "annotation": {"number": 64, "value": 0}, "group": "control_change"}, {"time": 2793, "annotation": {"number": 64, "value": 127}, "group": "control_change"}, {"time": 2804, "annotation": {"number": 64, "value": 0}, "group": "control_change"}, {"time": 2810, "annotation": {"number": 64, "value": 127}, "group": "control_change"}, {"time": 2812, "annotation": {"number": 64, "value": 0}, "group": "control_change"}, {"time": 2913, "annotation": {"number": 64, "value": 127}, "group": "control_change"}, {"time": 2917, "annotation": {"number": 64, "value": 0}, "group": "control_change"}, {"time": 3128, "annotation": {"number": 64, "value": 127}, "group": "control_change"}, {"time": 3141, "annotation": {"number": 64, "value": 0}, "group": "control_change"}, {"time": 3152, "annotation": {"number": 64, "value": 127}, "group": "control_change"}, {"time": 3157, "annotation": {"number": 64, "value": 0}, "group": "control_change"}, {"time": 3175, "annotation": {"number": 64, "value": 127}, "group": "control_change"}, {"time": 3185, "annotation": {"number": 64, "value": 0}, "group": "control_change"}, {"time": 3200, "annotation": {"number": 64, "value": 127}, "group": "control_change"}, {"time": 3217, "annotation": {"number": 64, "value": 0}, "group": "control_change"}, {"time": 3223, "annotation": {"number": 64, "value": 127}, "group": "control_change"}, {"time": 3243, "annotation": {"number": 64, "value": 0}, "group": "control_change"}, {"time": 3454, "annotation": {"number": 7, "value": 101}, "group": "control_change"}, {"time": 3457, "annotation": {"number": 7, "value": 100}, "group": "control_change"}, {"time": 3459, "annotation": {"number": 7, "value": 99}, "group": "control_change"}, {"time": 3462, "annotation": {"number": 7, "value": 97}, "group": "control_change"}, {"time": 3464, "annotation": {"number": 7, "value": 96}, "group": "control_change"}, {"time": 3467, "annotation": {"number": 7, "value": 95}, "group": "control_change"}, {"time": 3469, "annotation": {"number": 7, "value": 94}, "group": "control_change"}, {"time": 3472, "annotation": {"number": 7, "value": 93}, "group": "control_change"}, {"time": 3474, "annotation": {"number": 7, "value": 92}, "group": "control_change"}, {"time": 3477, "annotation": {"number": 7, "value": 90}, "group": "control_change"}, {"time": 3479, "annotation": {"number": 7, "value": 89}, "group": "control_change"}, {"time": 3482, "annotation": {"number": 7, "value": 88}, "group": "control_change"}, {"time": 3484, "annotation": {"number": 7, "value": 87}, "group": "control_change"}, {"time": 3487, "annotation": {"number": 7, "value": 86}, "group": "control_change"}, {"time": 3489, "annotation": {"number": 7, "value": 84}, "group": "control_change"}, {"time": 3492, "annotation": {"number": 7, "value": 83}, "group": "control_change"}, {"time": 3494, "annotation": {"number": 7, "value": 82}, "group": "control_change"}, {"time": 3497, "annotation": {"number": 7, "value": 81}, "group": "control_change"}, {"time": 3499, "annotation": {"number": 7, "value": 80}, "group": "control_change"}, {"time": 3502, "annotation": {"number": 7, "value": 79}, "group": "control_change"}, {"time": 3504, "annotation": {"number": 7, "value": 77}, "group": "control_change"}, {"time": 3507, "annotation": {"number": 7, "value": 76}, "group": "control_change"}, {"time": 3509, "annotation": {"number": 7, "value": 75}, "group": "control_change"}, {"time": 3512, "annotation": {"number": 7, "value": 74}, "group": "control_change"}, {"time": 3512, "annotation": {"number": 64, "value": 127}, "group": "control_change"}, {"time": 3514, "annotation": {"number": 7, "value": 73}, "group": "control_change"}, {"time": 3517, "annotation": {"number": 7, "value": 71}, "group": "control_change"}, {"time": 3519, "annotation": {"number": 7, "value": 70}, "group": "control_change"}, {"time": 3522, "annotation": {"number": 7, "value": 69}, "group": "control_change"}, {"time": 3524, "annotation": {"number": 7, "value": 68}, "group": "control_change"}, {"time": 3525, "annotation": {"number": 64, "value": 0}, "group": "control_change"}, {"time": 3527, "annotation": {"number": 7, "value": 67}, "group": "control_change"}, {"time": 3529, "annotation": {"number": 7, "value": 66}, "group": "control_change"}, {"time": 3532, "annotation": {"number": 7, "value": 64}, "group": "control_change"}, {"time": 3534, "annotation": {"number": 7, "value": 63}, "group": "control_change"}, {"time": 3536, "annotation": {"number": 64, "value": 127}, "group": "control_change"}, {"time": 3537, "annotation": {"number": 7, "value": 62}, "group": "control_change"}, {"time": 3539, "annotation": {"number": 7, "value": 61}, "group": "control_change"}, {"time": 3541, "annotation": {"number": 64, "value": 0}, "group": "control_change"}, {"time": 3542, "annotation": {"number": 7, "value": 60}, "group": "control_change"}, {"time": 3544, "annotation": {"number": 7, "value": 58}, "group": "control_change"}, {"time": 3547, "annotation": {"number": 7, "value": 57}, "group": "control_change"}, {"time": 3549, "annotation": {"number": 7, "value": 56}, "group": "control_change"}, {"time": 3552, "annotation": {"number": 7, "value": 55}, "group": "control_change"}, {"time": 3554, "annotation": {"number": 7, "value": 54}, "group": "control_change"}, {"time": 3557, "annotation": {"number": 7, "value": 53}, "group": "control_change"}, {"time": 3559, "annotation": {"number": 64, "value": 127}, "group": "control_change"}, {"time": 3559, "annotation": {"number": 7, "value": 51}, "group": "control_change"}, {"time": 3562, "annotation": {"number": 7, "value": 50}, "group": "control_change"}, {"time": 3564, "annotation": {"number": 7, "value": 49}, "group": "control_change"}, {"time": 3567, "annotation": {"number": 7, "value": 48}, "group": "control_change"}, {"time": 3569, "annotation": {"number": 64, "value": 0}, "group": "control_change"}, {"time": 3569, "annotation": {"number": 7, "value": 47}, "group": "control_change"}, {"time": 3572, "annotation": {"number": 7, "value": 46}, "group": "control_change"}, {"time": 3574, "annotation": {"number": 7, "value": 44}, "group": "control_change"}, {"time": 3577, "annotation": {"number": 7, "value": 43}, "group": "control_change"}, {"time": 3579, "annotation": {"number": 7, "value": 42}, "group": "control_change"}, {"time": 3582, "annotation": {"number": 7, "value": 41}, "group": "control_change"}, {"time": 3584, "annotation": {"number": 64, "value": 127}, "group": "control_change"}, {"time": 3584, "annotation": {"number": 7, "value": 40}, "group": "control_change"}, {"time": 3587, "annotation": {"number": 7, "value": 38}, "group": "control_change"}, {"time": 3589, "annotation": {"number": 7, "value": 37}, "group": "control_change"}, {"time": 3592, "annotation": {"number": 7, "value": 36}, "group": "control_change"}, {"time": 3594, "annotation": {"number": 7, "value": 35}, "group": "control_change"}, {"time": 3597, "annotation": {"number": 7, "value": 34}, "group": "control_change"}, {"time": 3599, "annotation": {"number": 7, "value": 33}, "group": "control_change"}, {"time": 3601, "annotation": {"number": 64, "value": 0}, "group": "control_change"}, {"time": 3602, "annotation": {"number": 7, "value": 31}, "group": "control_change"}, {"time": 3604, "annotation": {"number": 7, "value": 30}, "group": "control_change"}, {"time": 3607, "annotation": {"number": 7, "value": 29}, "group": "control_change"}, {"time": 3607, "annotation": {"number": 64, "value": 127}, "group": "control_change"}, {"time": 3609, "annotation": {"number": 7, "value": 28}, "group": "control_change"}, {"time": 3612, "annotation": {"number": 7, "value": 27}, "group": "control_change"}, {"time": 3614, "annotation": {"number": 7, "value": 25}, "group": "control_change"}, {"time": 3617, "annotation": {"number": 7, "value": 24}, "group": "control_change"}, {"time": 3619, "annotation": {"number": 7, "value": 23}, "group": "control_change"}, {"time": 3622, "annotation": {"number": 7, "value": 22}, "group": "control_change"}, {"time": 3624, "annotation": {"number": 7, "value": 21}, "group": "control_change"}, {"time": 3627, "annotation": {"number": 7, "value": 20}, "group": "control_change"}, {"time": 3627, "annotation": {"number": 64, "value": 0}, "group": "control_change"}, {"time": 3629, "annotation": {"number": 7, "value": 18}, "group": "control_change"}, {"time": 3632, "annotation": {"number": 7, "value": 17}, "group": "control_change"}, {"time": 3634, "annotation": {"number": 7, "value": 16}, "group": "control_change"}, {"time": 3637, "annotation": {"number": 7, "value": 15}, "group": "control_change"}, {"time": 3639, "annotation": {"number": 7, "value": 14}, "group": "control_change"}, {"time": 3642, "annotation": {"number": 7, "value": 12}, "group": "control_change"}, {"time": 3644, "annotation": {"number": 7, "value": 11}, "group": "control_change"}, {"time": 3647, "annotation": {"number": 7, "value": 10}, "group": "control_change"}, {"time": 3649, "annotation": {"number": 7, "value": 9}, "group": "control_change"}, {"time": 3652, "annotation": {"number": 7, "value": 8}, "group": "control_change"}, {"time": 3654, "annotation": {"number": 7, "value": 7}, "group": "control_change"}, {"time": 3657, "annotation": {"number": 7, "value": 5}, "group": "control_change"}, {"time": 3659, "annotation": {"number": 7, "value": 4}, "group": "control_change"}, {"time": 3662, "annotation": {"number": 7, "value": 3}, "group": "control_change"}, {"time": 3664, "annotation": {"number": 7, "value": 2}, "group": "control_change"}, {"time": 3667, "annotation": {"number": 7, "value": 1}, "group": "control_change"}, {"time": 3668, "annotation": {"number": 7, "value": 0}, "group": "control_change"}]}]}