{"metadata": {"schema_version": "0.2", "title": "None", "source_filename": "761.mid", "source_format": "midi"}, "resolution": 12, "tempos": [{"time": 0, "qpm": 68.0000725334107}], "time_signatures": [{"time": 0, "numerator": 1, "denominator": 4}], "tracks": [{"program": 0, "is_drum": false, "name": "MELODY", "notes": [{"time": 396, "pitch": 64, "duration": 5, "velocity": 83}, {"time": 402, "pitch": 65, "duration": 6, "velocity": 92}, {"time": 408, "pitch": 67, "duration": 10, "velocity": 86}, {"time": 420, "pitch": 67, "duration": 4, "velocity": 85}, {"time": 426, "pitch": 67, "duration": 3, "velocity": 89}, {"time": 432, "pitch": 67, "duration": 5, "velocity": 112}, {"time": 444, "pitch": 69, "duration": 5, "velocity": 95}, {"time": 450, "pitch": 71, "duration": 5, "velocity": 97}, {"time": 456, "pitch": 72, "duration": 8, "velocity": 102}, {"time": 486, "pitch": 72, "duration": 6, "velocity": 122}, {"time": 492, "pitch": 71, "duration": 5, "velocity": 95}, {"time": 498, "pitch": 74, "duration": 6, "velocity": 102}, {"time": 504, "pitch": 67, "duration": 4, "velocity": 86}, {"time": 507, "pitch": 69, "duration": 7, "velocity": 93}, {"time": 516, "pitch": 67, "duration": 4, "velocity": 97}, {"time": 522, "pitch": 67, "duration": 6, "velocity": 92}, {"time": 528, "pitch": 74, "duration": 9, "velocity": 112}, {"time": 540, "pitch": 72, "duration": 4, "velocity": 100}, {"time": 546, "pitch": 76, "duration": 6, "velocity": 122}, {"time": 555, "pitch": 76, "duration": 23, "velocity": 117}, {"time": 582, "pitch": 72, "duration": 4, "velocity": 117}, {"time": 588, "pitch": 74, "duration": 5, "velocity": 112}, {"time": 594, "pitch": 76, "duration": 4, "velocity": 127}, {"time": 600, "pitch": 76, "duration": 8, "velocity": 127}, {"time": 612, "pitch": 76, "duration": 3, "velocity": 112}, {"time": 618, "pitch": 77, "duration": 3, "velocity": 117}, {"time": 624, "pitch": 76, "duration": 7, "velocity": 122}, {"time": 636, "pitch": 74, "duration": 2, "velocity": 97}, {"time": 642, "pitch": 76, "duration": 8, "velocity": 117}, {"time": 651, "pitch": 72, "duration": 18, "velocity": 100}, {"time": 678, "pitch": 69, "duration": 4, "velocity": 96}, {"time": 684, "pitch": 71, "duration": 4, "velocity": 102}, {"time": 690, "pitch": 72, "duration": 4, "velocity": 107}, {"time": 696, "pitch": 74, "duration": 8, "velocity": 122}, {"time": 708, "pitch": 72, "duration": 4, "velocity": 100}, {"time": 714, "pitch": 72, "duration": 4, "velocity": 93}, {"time": 720, "pitch": 69, "duration": 6, "velocity": 99}, {"time": 732, "pitch": 76, "duration": 3, "velocity": 112}, {"time": 738, "pitch": 76, "duration": 4, "velocity": 112}, {"time": 744, "pitch": 74, "duration": 25, "velocity": 117}, {"time": 780, "pitch": 64, "duration": 5, "velocity": 83}, {"time": 786, "pitch": 65, "duration": 6, "velocity": 92}, {"time": 792, "pitch": 67, "duration": 10, "velocity": 86}, {"time": 804, "pitch": 67, "duration": 4, "velocity": 85}, {"time": 810, "pitch": 67, "duration": 3, "velocity": 89}, {"time": 816, "pitch": 67, "duration": 5, "velocity": 112}, {"time": 828, "pitch": 69, "duration": 5, "velocity": 95}, {"time": 834, "pitch": 71, "duration": 5, "velocity": 97}, {"time": 840, "pitch": 67, "duration": 1, "velocity": 92}, {"time": 843, "pitch": 74, "duration": 6, "velocity": 112}, {"time": 849, "pitch": 72, "duration": 15, "velocity": 117}, {"time": 870, "pitch": 72, "duration": 6, "velocity": 122}, {"time": 876, "pitch": 71, "duration": 5, "velocity": 95}, {"time": 882, "pitch": 74, "duration": 6, "velocity": 102}, {"time": 888, "pitch": 67, "duration": 4, "velocity": 86}, {"time": 891, "pitch": 69, "duration": 7, "velocity": 93}, {"time": 900, "pitch": 67, "duration": 4, "velocity": 97}, {"time": 906, "pitch": 67, "duration": 6, "velocity": 92}, {"time": 912, "pitch": 74, "duration": 9, "velocity": 112}, {"time": 924, "pitch": 72, "duration": 4, "velocity": 100}, {"time": 930, "pitch": 76, "duration": 6, "velocity": 122}, {"time": 939, "pitch": 76, "duration": 23, "velocity": 117}, {"time": 966, "pitch": 72, "duration": 4, "velocity": 117}, {"time": 972, "pitch": 74, "duration": 5, "velocity": 112}, {"time": 978, "pitch": 76, "duration": 4, "velocity": 127}, {"time": 984, "pitch": 76, "duration": 8, "velocity": 127}, {"time": 996, "pitch": 76, "duration": 3, "velocity": 112}, {"time": 1002, "pitch": 77, "duration": 3, "velocity": 117}, {"time": 1008, "pitch": 76, "duration": 7, "velocity": 122}, {"time": 1020, "pitch": 74, "duration": 2, "velocity": 97}, {"time": 1026, "pitch": 76, "duration": 8, "velocity": 117}, {"time": 1035, "pitch": 72, "duration": 18, "velocity": 100}, {"time": 1062, "pitch": 69, "duration": 4, "velocity": 96}, {"time": 1068, "pitch": 71, "duration": 4, "velocity": 102}, {"time": 1074, "pitch": 72, "duration": 4, "velocity": 107}, {"time": 1080, "pitch": 74, "duration": 8, "velocity": 122}, {"time": 1092, "pitch": 72, "duration": 4, "velocity": 100}, {"time": 1098, "pitch": 72, "duration": 4, "velocity": 93}, {"time": 1104, "pitch": 69, "duration": 6, "velocity": 99}, {"time": 1116, "pitch": 76, "duration": 3, "velocity": 112}, {"time": 1122, "pitch": 76, "duration": 4, "velocity": 112}, {"time": 1128, "pitch": 74, "duration": 25, "velocity": 117}, {"time": 1158, "pitch": 64, "duration": 5, "velocity": 122}, {"time": 1164, "pitch": 67, "duration": 5, "velocity": 122}, {"time": 1170, "pitch": 72, "duration": 6, "velocity": 127}, {"time": 1176, "pitch": 76, "duration": 5, "velocity": 127}, {"time": 1182, "pitch": 76, "duration": 12, "velocity": 127}, {"time": 1200, "pitch": 77, "duration": 3, "velocity": 117}, {"time": 1203, "pitch": 76, "duration": 3, "velocity": 90}, {"time": 1206, "pitch": 74, "duration": 11, "velocity": 112}, {"time": 1230, "pitch": 74, "duration": 7, "velocity": 122}, {"time": 1242, "pitch": 79, "duration": 4, "velocity": 127}, {"time": 1248, "pitch": 71, "duration": 5, "velocity": 117}, {"time": 1254, "pitch": 72, "duration": 9, "velocity": 127}, {"time": 1278, "pitch": 76, "duration": 4, "velocity": 127}, {"time": 1284, "pitch": 77, "duration": 4, "velocity": 127}, {"time": 1290, "pitch": 79, "duration": 4, "velocity": 112}, {"time": 1296, "pitch": 72, "duration": 4, "velocity": 102}, {"time": 1302, "pitch": 72, "duration": 8, "velocity": 117}, {"time": 1314, "pitch": 74, "duration": 3, "velocity": 127}, {"time": 1317, "pitch": 76, "duration": 4, "velocity": 112}, {"time": 1326, "pitch": 76, "duration": 21, "velocity": 127}, {"time": 1350, "pitch": 64, "duration": 6, "velocity": 117}, {"time": 1356, "pitch": 67, "duration": 6, "velocity": 100}, {"time": 1362, "pitch": 72, "duration": 6, "velocity": 107}, {"time": 1368, "pitch": 76, "duration": 4, "velocity": 112}, {"time": 1374, "pitch": 76, "duration": 15, "velocity": 127}, {"time": 1392, "pitch": 77, "duration": 3, "velocity": 127}, {"time": 1395, "pitch": 76, "duration": 3, "velocity": 93}, {"time": 1398, "pitch": 74, "duration": 13, "velocity": 122}, {"time": 1422, "pitch": 74, "duration": 11, "velocity": 112}, {"time": 1434, "pitch": 79, "duration": 6, "velocity": 127}, {"time": 1440, "pitch": 71, "duration": 7, "velocity": 112}, {"time": 1446, "pitch": 72, "duration": 10, "velocity": 122}, {"time": 1470, "pitch": 76, "duration": 5, "velocity": 122}, {"time": 1476, "pitch": 77, "duration": 5, "velocity": 112}, {"time": 1482, "pitch": 79, "duration": 5, "velocity": 127}, {"time": 1488, "pitch": 72, "duration": 4, "velocity": 112}, {"time": 1494, "pitch": 72, "duration": 5, "velocity": 127}, {"time": 1506, "pitch": 74, "duration": 12, "velocity": 127}, {"time": 1518, "pitch": 72, "duration": 19, "velocity": 127}, {"time": 1932, "pitch": 64, "duration": 5, "velocity": 83}, {"time": 1938, "pitch": 65, "duration": 6, "velocity": 92}, {"time": 1944, "pitch": 67, "duration": 10, "velocity": 86}, {"time": 1956, "pitch": 67, "duration": 4, "velocity": 85}, {"time": 1962, "pitch": 67, "duration": 3, "velocity": 89}, {"time": 1968, "pitch": 67, "duration": 5, "velocity": 112}, {"time": 1980, "pitch": 69, "duration": 5, "velocity": 95}, {"time": 1986, "pitch": 71, "duration": 5, "velocity": 97}, {"time": 1992, "pitch": 67, "duration": 1, "velocity": 92}, {"time": 1995, "pitch": 74, "duration": 6, "velocity": 112}, {"time": 2001, "pitch": 72, "duration": 15, "velocity": 117}, {"time": 2022, "pitch": 72, "duration": 6, "velocity": 122}, {"time": 2028, "pitch": 71, "duration": 5, "velocity": 95}, {"time": 2034, "pitch": 74, "duration": 6, "velocity": 102}, {"time": 2040, "pitch": 67, "duration": 4, "velocity": 86}, {"time": 2043, "pitch": 69, "duration": 7, "velocity": 93}, {"time": 2052, "pitch": 67, "duration": 4, "velocity": 97}, {"time": 2058, "pitch": 67, "duration": 6, "velocity": 92}, {"time": 2064, "pitch": 74, "duration": 9, "velocity": 112}, {"time": 2076, "pitch": 72, "duration": 4, "velocity": 100}, {"time": 2082, "pitch": 76, "duration": 6, "velocity": 122}, {"time": 2091, "pitch": 76, "duration": 23, "velocity": 117}, {"time": 2118, "pitch": 72, "duration": 4, "velocity": 117}, {"time": 2124, "pitch": 74, "duration": 5, "velocity": 112}, {"time": 2130, "pitch": 76, "duration": 4, "velocity": 127}, {"time": 2136, "pitch": 76, "duration": 8, "velocity": 127}, {"time": 2148, "pitch": 76, "duration": 3, "velocity": 112}, {"time": 2154, "pitch": 77, "duration": 3, "velocity": 117}, {"time": 2160, "pitch": 76, "duration": 7, "velocity": 122}, {"time": 2172, "pitch": 74, "duration": 2, "velocity": 97}, {"time": 2178, "pitch": 76, "duration": 8, "velocity": 117}, {"time": 2187, "pitch": 72, "duration": 18, "velocity": 100}, {"time": 2214, "pitch": 69, "duration": 4, "velocity": 96}, {"time": 2220, "pitch": 71, "duration": 4, "velocity": 102}, {"time": 2226, "pitch": 72, "duration": 4, "velocity": 107}, {"time": 2232, "pitch": 74, "duration": 8, "velocity": 122}, {"time": 2244, "pitch": 72, "duration": 4, "velocity": 100}, {"time": 2250, "pitch": 72, "duration": 4, "velocity": 93}, {"time": 2256, "pitch": 69, "duration": 6, "velocity": 99}, {"time": 2268, "pitch": 76, "duration": 3, "velocity": 112}, {"time": 2274, "pitch": 76, "duration": 4, "velocity": 112}, {"time": 2280, "pitch": 74, "duration": 25, "velocity": 117}, {"time": 2310, "pitch": 64, "duration": 5, "velocity": 122}, {"time": 2316, "pitch": 67, "duration": 5, "velocity": 122}, {"time": 2322, "pitch": 72, "duration": 6, "velocity": 127}, {"time": 2328, "pitch": 76, "duration": 5, "velocity": 127}, {"time": 2334, "pitch": 76, "duration": 12, "velocity": 127}, {"time": 2352, "pitch": 77, "duration": 3, "velocity": 117}, {"time": 2355, "pitch": 76, "duration": 3, "velocity": 90}, {"time": 2358, "pitch": 74, "duration": 11, "velocity": 112}, {"time": 2382, "pitch": 74, "duration": 7, "velocity": 122}, {"time": 2394, "pitch": 79, "duration": 4, "velocity": 127}, {"time": 2400, "pitch": 71, "duration": 5, "velocity": 117}, {"time": 2406, "pitch": 72, "duration": 9, "velocity": 127}, {"time": 2430, "pitch": 76, "duration": 4, "velocity": 127}, {"time": 2436, "pitch": 77, "duration": 4, "velocity": 127}, {"time": 2442, "pitch": 79, "duration": 4, "velocity": 112}, {"time": 2448, "pitch": 72, "duration": 4, "velocity": 102}, {"time": 2454, "pitch": 72, "duration": 8, "velocity": 117}, {"time": 2466, "pitch": 74, "duration": 3, "velocity": 127}, {"time": 2469, "pitch": 76, "duration": 4, "velocity": 112}, {"time": 2478, "pitch": 76, "duration": 21, "velocity": 127}, {"time": 2502, "pitch": 64, "duration": 6, "velocity": 117}, {"time": 2508, "pitch": 67, "duration": 6, "velocity": 100}, {"time": 2514, "pitch": 72, "duration": 6, "velocity": 107}, {"time": 2520, "pitch": 76, "duration": 4, "velocity": 112}, {"time": 2526, "pitch": 76, "duration": 15, "velocity": 127}, {"time": 2544, "pitch": 77, "duration": 3, "velocity": 127}, {"time": 2547, "pitch": 76, "duration": 3, "velocity": 93}, {"time": 2550, "pitch": 74, "duration": 13, "velocity": 122}, {"time": 2574, "pitch": 74, "duration": 11, "velocity": 112}, {"time": 2586, "pitch": 79, "duration": 6, "velocity": 127}, {"time": 2592, "pitch": 71, "duration": 7, "velocity": 112}, {"time": 2598, "pitch": 72, "duration": 10, "velocity": 122}, {"time": 2622, "pitch": 76, "duration": 5, "velocity": 122}, {"time": 2628, "pitch": 77, "duration": 5, "velocity": 112}, {"time": 2634, "pitch": 79, "duration": 5, "velocity": 127}, {"time": 2640, "pitch": 72, "duration": 4, "velocity": 112}, {"time": 2646, "pitch": 72, "duration": 5, "velocity": 127}, {"time": 2658, "pitch": 74, "duration": 12, "velocity": 127}, {"time": 2670, "pitch": 72, "duration": 19, "velocity": 127}, {"time": 2694, "pitch": 81, "duration": 5, "velocity": 127}, {"time": 2700, "pitch": 79, "duration": 4, "velocity": 127}, {"time": 2706, "pitch": 76, "duration": 4, "velocity": 127}, {"time": 2712, "pitch": 74, "duration": 3, "velocity": 127}, {"time": 2715, "pitch": 72, "duration": 3, "velocity": 102}, {"time": 2718, "pitch": 76, "duration": 14, "velocity": 127}, {"time": 2736, "pitch": 77, "duration": 3, "velocity": 117}, {"time": 2739, "pitch": 76, "duration": 3, "velocity": 90}, {"time": 2742, "pitch": 74, "duration": 11, "velocity": 112}, {"time": 2766, "pitch": 81, "duration": 5, "velocity": 127}, {"time": 2772, "pitch": 79, "duration": 5, "velocity": 127}, {"time": 2784, "pitch": 71, "duration": 5, "velocity": 117}, {"time": 2790, "pitch": 72, "duration": 9, "velocity": 127}, {"time": 2814, "pitch": 76, "duration": 4, "velocity": 127}, {"time": 2820, "pitch": 77, "duration": 4, "velocity": 127}, {"time": 2826, "pitch": 79, "duration": 4, "velocity": 112}, {"time": 2832, "pitch": 72, "duration": 4, "velocity": 102}, {"time": 2838, "pitch": 72, "duration": 8, "velocity": 117}, {"time": 2850, "pitch": 74, "duration": 3, "velocity": 127}, {"time": 2856, "pitch": 76, "duration": 2, "velocity": 112}, {"time": 2859, "pitch": 76, "duration": 21, "velocity": 127}, {"time": 2886, "pitch": 64, "duration": 6, "velocity": 117}, {"time": 2892, "pitch": 67, "duration": 6, "velocity": 100}, {"time": 2898, "pitch": 72, "duration": 6, "velocity": 107}, {"time": 2904, "pitch": 76, "duration": 4, "velocity": 112}, {"time": 2910, "pitch": 76, "duration": 15, "velocity": 127}, {"time": 2928, "pitch": 74, "duration": 4, "velocity": 127}, {"time": 2934, "pitch": 74, "duration": 13, "velocity": 122}, {"time": 2958, "pitch": 74, "duration": 11, "velocity": 112}, {"time": 2970, "pitch": 79, "duration": 6, "velocity": 127}, {"time": 2976, "pitch": 71, "duration": 7, "velocity": 112}, {"time": 2982, "pitch": 74, "duration": 6, "velocity": 122}, {"time": 2988, "pitch": 72, "duration": 12, "velocity": 127}, {"time": 3006, "pitch": 76, "duration": 5, "velocity": 122}, {"time": 3012, "pitch": 77, "duration": 5, "velocity": 112}, {"time": 3018, "pitch": 79, "duration": 5, "velocity": 127}, {"time": 3024, "pitch": 72, "duration": 4, "velocity": 112}, {"time": 3030, "pitch": 72, "duration": 5, "velocity": 127}, {"time": 3042, "pitch": 74, "duration": 12, "velocity": 127}, {"time": 3054, "pitch": 72, "duration": 19, "velocity": 127}]}, {"program": 0, "is_drum": false, "name": "PIANO", "notes": [{"time": 30, "pitch": 41, "duration": 22, "velocity": 55}, {"time": 30, "pitch": 57, "duration": 15, "velocity": 47}, {"time": 30, "pitch": 60, "duration": 19, "velocity": 58}, {"time": 36, "pitch": 48, "duration": 17, "velocity": 36}, {"time": 42, "pitch": 53, "duration": 24, "velocity": 44}, {"time": 48, "pitch": 57, "duration": 23, "velocity": 63}, {"time": 54, "pitch": 41, "duration": 14, "velocity": 48}, {"time": 54, "pitch": 60, "duration": 17, "velocity": 55}, {"time": 54, "pitch": 64, "duration": 17, "velocity": 59}, {"time": 78, "pitch": 40, "duration": 18, "velocity": 77}, {"time": 84, "pitch": 47, "duration": 13, "velocity": 57}, {"time": 90, "pitch": 52, "duration": 10, "velocity": 59}, {"time": 90, "pitch": 55, "duration": 13, "velocity": 65}, {"time": 96, "pitch": 59, "duration": 6, "velocity": 61}, {"time": 96, "pitch": 64, "duration": 9, "velocity": 56}, {"time": 102, "pitch": 45, "duration": 14, "velocity": 72}, {"time": 108, "pitch": 52, "duration": 6, "velocity": 65}, {"time": 114, "pitch": 60, "duration": 13, "velocity": 82}, {"time": 114, "pitch": 64, "duration": 13, "velocity": 86}, {"time": 120, "pitch": 57, "duration": 7, "velocity": 69}, {"time": 126, "pitch": 38, "duration": 13, "velocity": 70}, {"time": 132, "pitch": 45, "duration": 8, "velocity": 42}, {"time": 138, "pitch": 62, "duration": 12, "velocity": 69}, {"time": 138, "pitch": 65, "duration": 12, "velocity": 66}, {"time": 144, "pitch": 57, "duration": 7, "velocity": 51}, {"time": 150, "pitch": 43, "duration": 15, "velocity": 65}, {"time": 156, "pitch": 50, "duration": 8, "velocity": 55}, {"time": 162, "pitch": 59, "duration": 21, "velocity": 60}, {"time": 162, "pitch": 62, "duration": 12, "velocity": 65}, {"time": 168, "pitch": 55, "duration": 22, "velocity": 48}, {"time": 171, "pitch": 36, "duration": 17, "velocity": 78}, {"time": 180, "pitch": 48, "duration": 13, "velocity": 65}, {"time": 186, "pitch": 60, "duration": 20, "velocity": 90}, {"time": 186, "pitch": 64, "duration": 22, "velocity": 86}, {"time": 192, "pitch": 55, "duration": 6, "velocity": 69}, {"time": 198, "pitch": 46, "duration": 15, "velocity": 60}, {"time": 198, "pitch": 58, "duration": 8, "velocity": 86}, {"time": 204, "pitch": 55, "duration": 7, "velocity": 71}, {"time": 210, "pitch": 58, "duration": 11, "velocity": 99}, {"time": 210, "pitch": 60, "duration": 12, "velocity": 95}, {"time": 210, "pitch": 64, "duration": 12, "velocity": 85}, {"time": 216, "pitch": 55, "duration": 6, "velocity": 86}, {"time": 222, "pitch": 41, "duration": 38, "velocity": 73}, {"time": 228, "pitch": 48, "duration": 31, "velocity": 46}, {"time": 234, "pitch": 53, "duration": 15, "velocity": 59}, {"time": 234, "pitch": 60, "duration": 22, "velocity": 63}, {"time": 240, "pitch": 57, "duration": 12, "velocity": 64}, {"time": 246, "pitch": 65, "duration": 24, "velocity": 69}, {"time": 252, "pitch": 53, "duration": 5, "velocity": 52}, {"time": 258, "pitch": 60, "duration": 12, "velocity": 86}, {"time": 264, "pitch": 57, "duration": 6, "velocity": 56}, {"time": 270, "pitch": 40, "duration": 17, "velocity": 79}, {"time": 276, "pitch": 47, "duration": 12, "velocity": 56}, {"time": 282, "pitch": 52, "duration": 7, "velocity": 70}, {"time": 288, "pitch": 55, "duration": 6, "velocity": 88}, {"time": 288, "pitch": 59, "duration": 5, "velocity": 13}, {"time": 294, "pitch": 45, "duration": 13, "velocity": 69}, {"time": 300, "pitch": 52, "duration": 7, "velocity": 62}, {"time": 306, "pitch": 60, "duration": 13, "velocity": 66}, {"time": 306, "pitch": 64, "duration": 12, "velocity": 58}, {"time": 312, "pitch": 57, "duration": 11, "velocity": 58}, {"time": 318, "pitch": 38, "duration": 14, "velocity": 69}, {"time": 324, "pitch": 45, "duration": 8, "velocity": 56}, {"time": 330, "pitch": 62, "duration": 12, "velocity": 69}, {"time": 330, "pitch": 65, "duration": 12, "velocity": 61}, {"time": 336, "pitch": 57, "duration": 7, "velocity": 43}, {"time": 342, "pitch": 43, "duration": 15, "velocity": 70}, {"time": 348, "pitch": 50, "duration": 7, "velocity": 53}, {"time": 354, "pitch": 59, "duration": 9, "velocity": 76}, {"time": 354, "pitch": 62, "duration": 9, "velocity": 75}, {"time": 360, "pitch": 55, "duration": 2, "velocity": 32}, {"time": 366, "pitch": 41, "duration": 15, "velocity": 58}, {"time": 366, "pitch": 53, "duration": 14, "velocity": 66}, {"time": 366, "pitch": 56, "duration": 11, "velocity": 63}, {"time": 366, "pitch": 60, "duration": 11, "velocity": 67}, {"time": 378, "pitch": 56, "duration": 7, "velocity": 66}, {"time": 378, "pitch": 60, "duration": 7, "velocity": 63}, {"time": 390, "pitch": 36, "duration": 13, "velocity": 64}, {"time": 390, "pitch": 55, "duration": 26, "velocity": 58}, {"time": 390, "pitch": 60, "duration": 24, "velocity": 63}, {"time": 390, "pitch": 64, "duration": 25, "velocity": 64}, {"time": 396, "pitch": 43, "duration": 7, "velocity": 35}, {"time": 414, "pitch": 36, "duration": 13, "velocity": 79}, {"time": 420, "pitch": 43, "duration": 8, "velocity": 45}, {"time": 426, "pitch": 60, "duration": 17, "velocity": 69}, {"time": 426, "pitch": 64, "duration": 17, "velocity": 83}, {"time": 432, "pitch": 55, "duration": 6, "velocity": 63}, {"time": 438, "pitch": 47, "duration": 14, "velocity": 74}, {"time": 444, "pitch": 59, "duration": 7, "velocity": 69}, {"time": 450, "pitch": 64, "duration": 14, "velocity": 79}, {"time": 450, "pitch": 67, "duration": 13, "velocity": 72}, {"time": 456, "pitch": 59, "duration": 9, "velocity": 50}, {"time": 462, "pitch": 45, "duration": 17, "velocity": 68}, {"time": 468, "pitch": 52, "duration": 10, "velocity": 63}, {"time": 474, "pitch": 60, "duration": 14, "velocity": 69}, {"time": 480, "pitch": 57, "duration": 9, "velocity": 79}, {"time": 486, "pitch": 43, "duration": 16, "velocity": 72}, {"time": 492, "pitch": 50, "duration": 9, "velocity": 59}, {"time": 498, "pitch": 62, "duration": 13, "velocity": 96}, {"time": 504, "pitch": 55, "duration": 7, "velocity": 78}, {"time": 510, "pitch": 41, "duration": 14, "velocity": 65}, {"time": 516, "pitch": 48, "duration": 8, "velocity": 58}, {"time": 522, "pitch": 57, "duration": 13, "velocity": 67}, {"time": 522, "pitch": 60, "duration": 13, "velocity": 69}, {"time": 528, "pitch": 53, "duration": 7, "velocity": 56}, {"time": 534, "pitch": 43, "duration": 15, "velocity": 71}, {"time": 540, "pitch": 50, "duration": 8, "velocity": 67}, {"time": 546, "pitch": 59, "duration": 12, "velocity": 81}, {"time": 546, "pitch": 62, "duration": 12, "velocity": 76}, {"time": 552, "pitch": 55, "duration": 25, "velocity": 63}, {"time": 558, "pitch": 36, "duration": 23, "velocity": 69}, {"time": 564, "pitch": 43, "duration": 18, "velocity": 51}, {"time": 570, "pitch": 60, "duration": 22, "velocity": 72}, {"time": 570, "pitch": 64, "duration": 22, "velocity": 75}, {"time": 576, "pitch": 48, "duration": 7, "velocity": 33}, {"time": 579, "pitch": 55, "duration": 14, "velocity": 66}, {"time": 582, "pitch": 36, "duration": 16, "velocity": 67}, {"time": 588, "pitch": 43, "duration": 9, "velocity": 49}, {"time": 594, "pitch": 48, "duration": 6, "velocity": 46}, {"time": 594, "pitch": 60, "duration": 6, "velocity": 92}, {"time": 594, "pitch": 64, "duration": 6, "velocity": 86}, {"time": 600, "pitch": 55, "duration": 2, "velocity": 69}, {"time": 606, "pitch": 47, "duration": 13, "velocity": 65}, {"time": 606, "pitch": 52, "duration": 14, "velocity": 71}, {"time": 606, "pitch": 56, "duration": 11, "velocity": 69}, {"time": 606, "pitch": 59, "duration": 11, "velocity": 65}, {"time": 606, "pitch": 62, "duration": 10, "velocity": 61}, {"time": 618, "pitch": 56, "duration": 3, "velocity": 47}, {"time": 618, "pitch": 59, "duration": 4, "velocity": 65}, {"time": 618, "pitch": 62, "duration": 5, "velocity": 65}, {"time": 630, "pitch": 40, "duration": 12, "velocity": 40}, {"time": 630, "pitch": 52, "duration": 11, "velocity": 69}, {"time": 630, "pitch": 56, "duration": 10, "velocity": 70}, {"time": 630, "pitch": 59, "duration": 10, "velocity": 65}, {"time": 630, "pitch": 62, "duration": 8, "velocity": 65}, {"time": 642, "pitch": 56, "duration": 12, "velocity": 70}, {"time": 642, "pitch": 59, "duration": 2, "velocity": 65}, {"time": 648, "pitch": 52, "duration": 6, "velocity": 69}, {"time": 654, "pitch": 45, "duration": 15, "velocity": 67}, {"time": 660, "pitch": 52, "duration": 7, "velocity": 45}, {"time": 666, "pitch": 64, "duration": 14, "velocity": 74}, {"time": 672, "pitch": 57, "duration": 7, "velocity": 81}, {"time": 678, "pitch": 43, "duration": 18, "velocity": 72}, {"time": 684, "pitch": 50, "duration": 11, "velocity": 52}, {"time": 690, "pitch": 59, "duration": 12, "velocity": 72}, {"time": 690, "pitch": 62, "duration": 12, "velocity": 74}, {"time": 696, "pitch": 55, "duration": 5, "velocity": 64}, {"time": 702, "pitch": 38, "duration": 38, "velocity": 79}, {"time": 708, "pitch": 45, "duration": 31, "velocity": 58}, {"time": 714, "pitch": 50, "duration": 15, "velocity": 64}, {"time": 714, "pitch": 57, "duration": 14, "velocity": 75}, {"time": 720, "pitch": 62, "duration": 5, "velocity": 66}, {"time": 726, "pitch": 62, "duration": 9, "velocity": 76}, {"time": 726, "pitch": 65, "duration": 24, "velocity": 71}, {"time": 732, "pitch": 50, "duration": 7, "velocity": 47}, {"time": 738, "pitch": 62, "duration": 13, "velocity": 92}, {"time": 744, "pitch": 57, "duration": 6, "velocity": 66}, {"time": 750, "pitch": 43, "duration": 40, "velocity": 77}, {"time": 756, "pitch": 50, "duration": 33, "velocity": 60}, {"time": 762, "pitch": 55, "duration": 9, "velocity": 75}, {"time": 768, "pitch": 62, "duration": 2, "velocity": 69}, {"time": 774, "pitch": 55, "duration": 26, "velocity": 68}, {"time": 774, "pitch": 59, "duration": 21, "velocity": 65}, {"time": 774, "pitch": 62, "duration": 21, "velocity": 70}, {"time": 798, "pitch": 36, "duration": 13, "velocity": 97}, {"time": 804, "pitch": 48, "duration": 8, "velocity": 82}, {"time": 810, "pitch": 60, "duration": 12, "velocity": 112}, {"time": 810, "pitch": 64, "duration": 13, "velocity": 107}, {"time": 816, "pitch": 55, "duration": 6, "velocity": 88}, {"time": 822, "pitch": 47, "duration": 15, "velocity": 93}, {"time": 828, "pitch": 59, "duration": 7, "velocity": 96}, {"time": 834, "pitch": 64, "duration": 12, "velocity": 93}, {"time": 834, "pitch": 67, "duration": 12, "velocity": 93}, {"time": 840, "pitch": 59, "duration": 7, "velocity": 70}, {"time": 846, "pitch": 45, "duration": 16, "velocity": 78}, {"time": 852, "pitch": 52, "duration": 8, "velocity": 66}, {"time": 858, "pitch": 60, "duration": 13, "velocity": 99}, {"time": 858, "pitch": 64, "duration": 13, "velocity": 92}, {"time": 864, "pitch": 57, "duration": 6, "velocity": 86}, {"time": 870, "pitch": 43, "duration": 16, "velocity": 92}, {"time": 876, "pitch": 50, "duration": 10, "velocity": 64}, {"time": 882, "pitch": 59, "duration": 13, "velocity": 89}, {"time": 882, "pitch": 62, "duration": 13, "velocity": 93}, {"time": 888, "pitch": 55, "duration": 6, "velocity": 88}, {"time": 894, "pitch": 41, "duration": 18, "velocity": 86}, {"time": 900, "pitch": 48, "duration": 16, "velocity": 63}, {"time": 906, "pitch": 53, "duration": 5, "velocity": 75}, {"time": 906, "pitch": 60, "duration": 12, "velocity": 92}, {"time": 912, "pitch": 57, "duration": 7, "velocity": 77}, {"time": 918, "pitch": 43, "duration": 15, "velocity": 74}, {"time": 924, "pitch": 50, "duration": 8, "velocity": 73}, {"time": 930, "pitch": 59, "duration": 12, "velocity": 90}, {"time": 930, "pitch": 62, "duration": 11, "velocity": 86}, {"time": 936, "pitch": 55, "duration": 6, "velocity": 92}, {"time": 942, "pitch": 36, "duration": 40, "velocity": 92}, {"time": 948, "pitch": 43, "duration": 33, "velocity": 65}, {"time": 954, "pitch": 60, "duration": 10, "velocity": 96}, {"time": 954, "pitch": 64, "duration": 10, "velocity": 93}, {"time": 960, "pitch": 48, "duration": 8, "velocity": 61}, {"time": 966, "pitch": 55, "duration": 11, "velocity": 97}, {"time": 966, "pitch": 60, "duration": 8, "velocity": 99}, {"time": 966, "pitch": 64, "duration": 11, "velocity": 83}, {"time": 972, "pitch": 48, "duration": 8, "velocity": 67}, {"time": 978, "pitch": 55, "duration": 10, "velocity": 83}, {"time": 978, "pitch": 60, "duration": 10, "velocity": 107}, {"time": 978, "pitch": 64, "duration": 9, "velocity": 89}, {"time": 984, "pitch": 59, "duration": 4, "velocity": 71}, {"time": 990, "pitch": 47, "duration": 15, "velocity": 86}, {"time": 990, "pitch": 52, "duration": 11, "velocity": 89}, {"time": 990, "pitch": 56, "duration": 11, "velocity": 107}, {"time": 990, "pitch": 59, "duration": 11, "velocity": 93}, {"time": 1002, "pitch": 52, "duration": 11, "velocity": 72}, {"time": 1002, "pitch": 56, "duration": 10, "velocity": 102}, {"time": 1002, "pitch": 59, "duration": 11, "velocity": 86}, {"time": 1008, "pitch": 47, "duration": 5, "velocity": 78}, {"time": 1014, "pitch": 44, "duration": 13, "velocity": 89}, {"time": 1014, "pitch": 56, "duration": 10, "velocity": 96}, {"time": 1014, "pitch": 59, "duration": 10, "velocity": 83}, {"time": 1026, "pitch": 56, "duration": 7, "velocity": 85}, {"time": 1026, "pitch": 59, "duration": 13, "velocity": 72}, {"time": 1032, "pitch": 52, "duration": 5, "velocity": 83}, {"time": 1035, "pitch": 56, "duration": 3, "velocity": 61}, {"time": 1038, "pitch": 45, "duration": 17, "velocity": 77}, {"time": 1044, "pitch": 52, "duration": 10, "velocity": 74}, {"time": 1050, "pitch": 64, "duration": 12, "velocity": 100}, {"time": 1056, "pitch": 57, "duration": 6, "velocity": 95}, {"time": 1062, "pitch": 43, "duration": 5, "velocity": 89}, {"time": 1068, "pitch": 55, "duration": 7, "velocity": 77}, {"time": 1074, "pitch": 59, "duration": 12, "velocity": 81}, {"time": 1074, "pitch": 62, "duration": 12, "velocity": 83}, {"time": 1080, "pitch": 55, "duration": 6, "velocity": 86}, {"time": 1086, "pitch": 38, "duration": 21, "velocity": 96}, {"time": 1092, "pitch": 45, "duration": 18, "velocity": 64}, {"time": 1098, "pitch": 54, "duration": 13, "velocity": 107}, {"time": 1098, "pitch": 57, "duration": 13, "velocity": 92}, {"time": 1104, "pitch": 50, "duration": 6, "velocity": 69}, {"time": 1110, "pitch": 38, "duration": 13, "velocity": 92}, {"time": 1116, "pitch": 45, "duration": 7, "velocity": 59}, {"time": 1122, "pitch": 50, "duration": 2, "velocity": 50}, {"time": 1122, "pitch": 62, "duration": 7, "velocity": 112}, {"time": 1122, "pitch": 66, "duration": 7, "velocity": 122}, {"time": 1128, "pitch": 57, "duration": 2, "velocity": 78}, {"time": 1134, "pitch": 43, "duration": 22, "velocity": 93}, {"time": 1134, "pitch": 55, "duration": 10, "velocity": 77}, {"time": 1134, "pitch": 60, "duration": 10, "velocity": 96}, {"time": 1134, "pitch": 62, "duration": 10, "velocity": 96}, {"time": 1140, "pitch": 48, "duration": 8, "velocity": 44}, {"time": 1146, "pitch": 50, "duration": 6, "velocity": 74}, {"time": 1146, "pitch": 60, "duration": 4, "velocity": 117}, {"time": 1146, "pitch": 62, "duration": 4, "velocity": 117}, {"time": 1149, "pitch": 55, "duration": 1, "velocity": 37}, {"time": 1152, "pitch": 48, "duration": 5, "velocity": 56}, {"time": 1152, "pitch": 55, "duration": 5, "velocity": 97}, {"time": 1152, "pitch": 60, "duration": 4, "velocity": 112}, {"time": 1152, "pitch": 62, "duration": 4, "velocity": 97}, {"time": 1158, "pitch": 43, "duration": 14, "velocity": 92}, {"time": 1158, "pitch": 55, "duration": 11, "velocity": 117}, {"time": 1158, "pitch": 59, "duration": 11, "velocity": 107}, {"time": 1158, "pitch": 62, "duration": 11, "velocity": 107}, {"time": 1170, "pitch": 42, "duration": 11, "velocity": 85}, {"time": 1170, "pitch": 54, "duration": 11, "velocity": 76}, {"time": 1170, "pitch": 61, "duration": 12, "velocity": 99}, {"time": 1170, "pitch": 66, "duration": 11, "velocity": 90}, {"time": 1170, "pitch": 69, "duration": 11, "velocity": 81}, {"time": 1182, "pitch": 41, "duration": 21, "velocity": 93}, {"time": 1185, "pitch": 48, "duration": 21, "velocity": 93}, {"time": 1188, "pitch": 53, "duration": 7, "velocity": 96}, {"time": 1191, "pitch": 60, "duration": 9, "velocity": 107}, {"time": 1194, "pitch": 69, "duration": 14, "velocity": 112}, {"time": 1197, "pitch": 53, "duration": 2, "velocity": 92}, {"time": 1200, "pitch": 65, "duration": 8, "velocity": 112}, {"time": 1203, "pitch": 60, "duration": 10, "velocity": 102}, {"time": 1206, "pitch": 41, "duration": 20, "velocity": 78}, {"time": 1209, "pitch": 48, "duration": 17, "velocity": 82}, {"time": 1212, "pitch": 53, "duration": 8, "velocity": 86}, {"time": 1215, "pitch": 60, "duration": 6, "velocity": 107}, {"time": 1215, "pitch": 65, "duration": 1, "velocity": 50}, {"time": 1218, "pitch": 65, "duration": 13, "velocity": 112}, {"time": 1218, "pitch": 69, "duration": 13, "velocity": 93}, {"time": 1221, "pitch": 53, "duration": 2, "velocity": 96}, {"time": 1224, "pitch": 60, "duration": 7, "velocity": 112}, {"time": 1230, "pitch": 40, "duration": 17, "velocity": 81}, {"time": 1233, "pitch": 47, "duration": 15, "velocity": 82}, {"time": 1236, "pitch": 52, "duration": 7, "velocity": 97}, {"time": 1239, "pitch": 55, "duration": 4, "velocity": 88}, {"time": 1242, "pitch": 59, "duration": 7, "velocity": 117}, {"time": 1245, "pitch": 52, "duration": 3, "velocity": 93}, {"time": 1248, "pitch": 55, "duration": 5, "velocity": 107}, {"time": 1251, "pitch": 59, "duration": 3, "velocity": 127}, {"time": 1254, "pitch": 45, "duration": 18, "velocity": 90}, {"time": 1257, "pitch": 52, "duration": 10, "velocity": 93}, {"time": 1260, "pitch": 57, "duration": 7, "velocity": 92}, {"time": 1263, "pitch": 60, "duration": 3, "velocity": 97}, {"time": 1266, "pitch": 64, "duration": 11, "velocity": 112}, {"time": 1269, "pitch": 52, "duration": 2, "velocity": 82}, {"time": 1272, "pitch": 60, "duration": 5, "velocity": 107}, {"time": 1275, "pitch": 57, "duration": 4, "velocity": 99}, {"time": 1278, "pitch": 38, "duration": 16, "velocity": 90}, {"time": 1281, "pitch": 45, "duration": 13, "velocity": 82}, {"time": 1284, "pitch": 50, "duration": 7, "velocity": 93}, {"time": 1287, "pitch": 57, "duration": 7, "velocity": 102}, {"time": 1290, "pitch": 65, "duration": 11, "velocity": 117}, {"time": 1293, "pitch": 50, "duration": 3, "velocity": 92}, {"time": 1296, "pitch": 62, "duration": 5, "velocity": 100}, {"time": 1299, "pitch": 57, "duration": 3, "velocity": 102}, {"time": 1302, "pitch": 43, "duration": 17, "velocity": 85}, {"time": 1305, "pitch": 50, "duration": 10, "velocity": 83}, {"time": 1308, "pitch": 55, "duration": 3, "velocity": 92}, {"time": 1311, "pitch": 59, "duration": 3, "velocity": 99}, {"time": 1314, "pitch": 62, "duration": 8, "velocity": 117}, {"time": 1317, "pitch": 50, "duration": 2, "velocity": 93}, {"time": 1320, "pitch": 59, "duration": 5, "velocity": 100}, {"time": 1323, "pitch": 55, "duration": 3, "velocity": 95}, {"time": 1326, "pitch": 36, "duration": 18, "velocity": 92}, {"time": 1329, "pitch": 43, "duration": 13, "velocity": 92}, {"time": 1332, "pitch": 48, "duration": 7, "velocity": 100}, {"time": 1335, "pitch": 55, "duration": 5, "velocity": 97}, {"time": 1338, "pitch": 64, "duration": 14, "velocity": 102}, {"time": 1341, "pitch": 48, "duration": 5, "velocity": 112}, {"time": 1344, "pitch": 55, "duration": 7, "velocity": 97}, {"time": 1347, "pitch": 60, "duration": 5, "velocity": 102}, {"time": 1350, "pitch": 46, "duration": 14, "velocity": 127}, {"time": 1353, "pitch": 55, "duration": 4, "velocity": 90}, {"time": 1353, "pitch": 64, "duration": 2, "velocity": 34}, {"time": 1356, "pitch": 58, "duration": 5, "velocity": 127}, {"time": 1356, "pitch": 60, "duration": 1, "velocity": 57}, {"time": 1359, "pitch": 55, "duration": 5, "velocity": 107}, {"time": 1362, "pitch": 58, "duration": 7, "velocity": 127}, {"time": 1362, "pitch": 60, "duration": 12, "velocity": 117}, {"time": 1362, "pitch": 64, "duration": 11, "velocity": 127}, {"time": 1365, "pitch": 46, "duration": 2, "velocity": 117}, {"time": 1368, "pitch": 55, "duration": 6, "velocity": 107}, {"time": 1371, "pitch": 58, "duration": 3, "velocity": 75}, {"time": 1374, "pitch": 41, "duration": 22, "velocity": 89}, {"time": 1377, "pitch": 48, "duration": 11, "velocity": 76}, {"time": 1380, "pitch": 53, "duration": 3, "velocity": 95}, {"time": 1383, "pitch": 57, "duration": 3, "velocity": 102}, {"time": 1386, "pitch": 60, "duration": 12, "velocity": 112}, {"time": 1389, "pitch": 48, "duration": 8, "velocity": 92}, {"time": 1392, "pitch": 53, "duration": 4, "velocity": 95}, {"time": 1395, "pitch": 57, "duration": 3, "velocity": 107}, {"time": 1398, "pitch": 41, "duration": 22, "velocity": 76}, {"time": 1401, "pitch": 48, "duration": 19, "velocity": 86}, {"time": 1404, "pitch": 53, "duration": 7, "velocity": 88}, {"time": 1407, "pitch": 65, "duration": 4, "velocity": 76}, {"time": 1410, "pitch": 69, "duration": 8, "velocity": 93}, {"time": 1410, "pitch": 72, "duration": 13, "velocity": 127}, {"time": 1413, "pitch": 53, "duration": 2, "velocity": 93}, {"time": 1416, "pitch": 64, "duration": 7, "velocity": 102}, {"time": 1419, "pitch": 69, "duration": 4, "velocity": 73}, {"time": 1422, "pitch": 40, "duration": 17, "velocity": 90}, {"time": 1425, "pitch": 47, "duration": 14, "velocity": 90}, {"time": 1428, "pitch": 52, "duration": 7, "velocity": 89}, {"time": 1431, "pitch": 64, "duration": 8, "velocity": 89}, {"time": 1434, "pitch": 71, "duration": 11, "velocity": 127}, {"time": 1437, "pitch": 52, "duration": 3, "velocity": 107}, {"time": 1440, "pitch": 67, "duration": 5, "velocity": 100}, {"time": 1443, "pitch": 64, "duration": 3, "velocity": 97}, {"time": 1446, "pitch": 45, "duration": 17, "velocity": 82}, {"time": 1449, "pitch": 52, "duration": 10, "velocity": 74}, {"time": 1452, "pitch": 57, "duration": 3, "velocity": 93}, {"time": 1455, "pitch": 60, "duration": 4, "velocity": 100}, {"time": 1458, "pitch": 64, "duration": 11, "velocity": 107}, {"time": 1461, "pitch": 52, "duration": 2, "velocity": 92}, {"time": 1464, "pitch": 60, "duration": 5, "velocity": 99}, {"time": 1467, "pitch": 57, "duration": 4, "velocity": 92}, {"time": 1470, "pitch": 38, "duration": 13, "velocity": 86}, {"time": 1473, "pitch": 45, "duration": 9, "velocity": 83}, {"time": 1476, "pitch": 50, "duration": 8, "velocity": 89}, {"time": 1479, "pitch": 57, "duration": 5, "velocity": 85}, {"time": 1482, "pitch": 65, "duration": 12, "velocity": 112}, {"time": 1485, "pitch": 62, "duration": 4, "velocity": 89}, {"time": 1488, "pitch": 57, "duration": 7, "velocity": 93}, {"time": 1491, "pitch": 62, "duration": 3, "velocity": 83}, {"time": 1494, "pitch": 43, "duration": 17, "velocity": 92}, {"time": 1497, "pitch": 50, "duration": 10, "velocity": 79}, {"time": 1500, "pitch": 55, "duration": 8, "velocity": 78}, {"time": 1503, "pitch": 59, "duration": 3, "velocity": 83}, {"time": 1506, "pitch": 62, "duration": 12, "velocity": 100}, {"time": 1509, "pitch": 50, "duration": 2, "velocity": 72}, {"time": 1512, "pitch": 59, "duration": 5, "velocity": 82}, {"time": 1515, "pitch": 55, "duration": 3, "velocity": 72}, {"time": 1518, "pitch": 36, "duration": 22, "velocity": 74}, {"time": 1521, "pitch": 43, "duration": 21, "velocity": 61}, {"time": 1524, "pitch": 48, "duration": 7, "velocity": 66}, {"time": 1527, "pitch": 55, "duration": 5, "velocity": 72}, {"time": 1530, "pitch": 60, "duration": 7, "velocity": 92}, {"time": 1530, "pitch": 64, "duration": 21, "velocity": 93}, {"time": 1533, "pitch": 48, "duration": 4, "velocity": 78}, {"time": 1536, "pitch": 55, "duration": 13, "velocity": 74}, {"time": 1539, "pitch": 60, "duration": 13, "velocity": 90}, {"time": 1542, "pitch": 36, "duration": 16, "velocity": 89}, {"time": 1545, "pitch": 43, "duration": 12, "velocity": 67}, {"time": 1548, "pitch": 48, "duration": 7, "velocity": 85}, {"time": 1551, "pitch": 55, "duration": 11, "velocity": 95}, {"time": 1554, "pitch": 64, "duration": 13, "velocity": 107}, {"time": 1557, "pitch": 48, "duration": 5, "velocity": 95}, {"time": 1560, "pitch": 60, "duration": 7, "velocity": 93}, {"time": 1563, "pitch": 47, "duration": 2, "velocity": 92}, {"time": 1566, "pitch": 45, "duration": 22, "velocity": 78}, {"time": 1569, "pitch": 52, "duration": 9, "velocity": 69}, {"time": 1572, "pitch": 57, "duration": 7, "velocity": 89}, {"time": 1575, "pitch": 60, "duration": 3, "velocity": 74}, {"time": 1578, "pitch": 64, "duration": 13, "velocity": 99}, {"time": 1581, "pitch": 52, "duration": 9, "velocity": 85}, {"time": 1584, "pitch": 60, "duration": 7, "velocity": 95}, {"time": 1587, "pitch": 57, "duration": 3, "velocity": 86}, {"time": 1590, "pitch": 45, "duration": 17, "velocity": 85}, {"time": 1593, "pitch": 52, "duration": 10, "velocity": 66}, {"time": 1596, "pitch": 57, "duration": 3, "velocity": 82}, {"time": 1599, "pitch": 60, "duration": 4, "velocity": 89}, {"time": 1602, "pitch": 64, "duration": 8, "velocity": 97}, {"time": 1605, "pitch": 52, "duration": 2, "velocity": 83}, {"time": 1608, "pitch": 60, "duration": 6, "velocity": 96}, {"time": 1611, "pitch": 64, "duration": 3, "velocity": 75}, {"time": 1614, "pitch": 42, "duration": 22, "velocity": 99}, {"time": 1617, "pitch": 54, "duration": 10, "velocity": 70}, {"time": 1620, "pitch": 57, "duration": 4, "velocity": 79}, {"time": 1623, "pitch": 60, "duration": 2, "velocity": 89}, {"time": 1626, "pitch": 60, "duration": 6, "velocity": 99}, {"time": 1629, "pitch": 54, "duration": 9, "velocity": 86}, {"time": 1632, "pitch": 57, "duration": 11, "velocity": 89}, {"time": 1635, "pitch": 60, "duration": 9, "velocity": 92}, {"time": 1638, "pitch": 42, "duration": 18, "velocity": 81}, {"time": 1641, "pitch": 54, "duration": 11, "velocity": 86}, {"time": 1644, "pitch": 57, "duration": 9, "velocity": 85}, {"time": 1647, "pitch": 60, "duration": 4, "velocity": 79}, {"time": 1650, "pitch": 66, "duration": 10, "velocity": 95}, {"time": 1653, "pitch": 54, "duration": 3, "velocity": 89}, {"time": 1656, "pitch": 60, "duration": 6, "velocity": 95}, {"time": 1659, "pitch": 57, "duration": 4, "velocity": 90}, {"time": 1662, "pitch": 41, "duration": 22, "velocity": 74}, {"time": 1665, "pitch": 48, "duration": 21, "velocity": 83}, {"time": 1668, "pitch": 53, "duration": 7, "velocity": 88}, {"time": 1671, "pitch": 57, "duration": 5, "velocity": 81}, {"time": 1674, "pitch": 65, "duration": 12, "velocity": 112}, {"time": 1677, "pitch": 53, "duration": 2, "velocity": 95}, {"time": 1680, "pitch": 60, "duration": 5, "velocity": 92}, {"time": 1683, "pitch": 57, "duration": 3, "velocity": 112}, {"time": 1686, "pitch": 43, "duration": 19, "velocity": 92}, {"time": 1689, "pitch": 50, "duration": 11, "velocity": 127}, {"time": 1692, "pitch": 55, "duration": 3, "velocity": 117}, {"time": 1695, "pitch": 59, "duration": 4, "velocity": 102}, {"time": 1698, "pitch": 67, "duration": 12, "velocity": 100}, {"time": 1701, "pitch": 50, "duration": 2, "velocity": 96}, {"time": 1704, "pitch": 62, "duration": 6, "velocity": 97}, {"time": 1707, "pitch": 59, "duration": 3, "velocity": 107}, {"time": 1710, "pitch": 36, "duration": 22, "velocity": 95}, {"time": 1713, "pitch": 43, "duration": 22, "velocity": 93}, {"time": 1716, "pitch": 48, "duration": 7, "velocity": 97}, {"time": 1719, "pitch": 55, "duration": 10, "velocity": 93}, {"time": 1722, "pitch": 64, "duration": 22, "velocity": 100}, {"time": 1725, "pitch": 48, "duration": 12, "velocity": 92}, {"time": 1728, "pitch": 60, "duration": 17, "velocity": 97}, {"time": 1731, "pitch": 55, "duration": 10, "velocity": 89}, {"time": 1734, "pitch": 36, "duration": 17, "velocity": 79}, {"time": 1737, "pitch": 43, "duration": 14, "velocity": 66}, {"time": 1740, "pitch": 48, "duration": 8, "velocity": 90}, {"time": 1743, "pitch": 55, "duration": 4, "velocity": 82}, {"time": 1746, "pitch": 64, "duration": 13, "velocity": 102}, {"time": 1749, "pitch": 48, "duration": 3, "velocity": 88}, {"time": 1749, "pitch": 60, "duration": 3, "velocity": 90}, {"time": 1752, "pitch": 59, "duration": 4, "velocity": 90}, {"time": 1755, "pitch": 60, "duration": 4, "velocity": 92}, {"time": 1758, "pitch": 45, "duration": 22, "velocity": 86}, {"time": 1761, "pitch": 52, "duration": 10, "velocity": 85}, {"time": 1764, "pitch": 57, "duration": 7, "velocity": 72}, {"time": 1767, "pitch": 60, "duration": 2, "velocity": 85}, {"time": 1770, "pitch": 64, "duration": 13, "velocity": 102}, {"time": 1773, "pitch": 52, "duration": 9, "velocity": 78}, {"time": 1776, "pitch": 60, "duration": 7, "velocity": 90}, {"time": 1779, "pitch": 57, "duration": 3, "velocity": 96}, {"time": 1782, "pitch": 45, "duration": 16, "velocity": 81}, {"time": 1785, "pitch": 52, "duration": 10, "velocity": 71}, {"time": 1788, "pitch": 57, "duration": 3, "velocity": 82}, {"time": 1791, "pitch": 60, "duration": 3, "velocity": 90}, {"time": 1794, "pitch": 64, "duration": 11, "velocity": 99}, {"time": 1797, "pitch": 52, "duration": 1, "velocity": 93}, {"time": 1800, "pitch": 60, "duration": 6, "velocity": 93}, {"time": 1803, "pitch": 57, "duration": 4, "velocity": 90}, {"time": 1806, "pitch": 42, "duration": 22, "velocity": 86}, {"time": 1809, "pitch": 54, "duration": 10, "velocity": 76}, {"time": 1812, "pitch": 57, "duration": 9, "velocity": 85}, {"time": 1815, "pitch": 60, "duration": 3, "velocity": 90}, {"time": 1818, "pitch": 66, "duration": 18, "velocity": 102}, {"time": 1821, "pitch": 54, "duration": 25, "velocity": 88}, {"time": 1824, "pitch": 60, "duration": 11, "velocity": 83}, {"time": 1827, "pitch": 57, "duration": 7, "velocity": 86}, {"time": 1830, "pitch": 42, "duration": 17, "velocity": 70}, {"time": 1836, "pitch": 57, "duration": 7, "velocity": 88}, {"time": 1839, "pitch": 60, "duration": 3, "velocity": 75}, {"time": 1842, "pitch": 66, "duration": 11, "velocity": 122}, {"time": 1845, "pitch": 57, "duration": 3, "velocity": 85}, {"time": 1848, "pitch": 60, "duration": 6, "velocity": 88}, {"time": 1851, "pitch": 57, "duration": 4, "velocity": 95}, {"time": 1854, "pitch": 41, "duration": 22, "velocity": 76}, {"time": 1857, "pitch": 48, "duration": 21, "velocity": 74}, {"time": 1860, "pitch": 53, "duration": 7, "velocity": 78}, {"time": 1863, "pitch": 57, "duration": 4, "velocity": 89}, {"time": 1866, "pitch": 65, "duration": 11, "velocity": 96}, {"time": 1869, "pitch": 53, "duration": 2, "velocity": 85}, {"time": 1872, "pitch": 60, "duration": 5, "velocity": 85}, {"time": 1875, "pitch": 57, "duration": 3, "velocity": 96}, {"time": 1878, "pitch": 43, "duration": 18, "velocity": 82}, {"time": 1881, "pitch": 50, "duration": 10, "velocity": 76}, {"time": 1884, "pitch": 55, "duration": 3, "velocity": 78}, {"time": 1887, "pitch": 59, "duration": 3, "velocity": 83}, {"time": 1890, "pitch": 62, "duration": 12, "velocity": 97}, {"time": 1893, "pitch": 50, "duration": 2, "velocity": 55}, {"time": 1896, "pitch": 59, "duration": 5, "velocity": 81}, {"time": 1899, "pitch": 55, "duration": 3, "velocity": 69}, {"time": 1902, "pitch": 36, "duration": 48, "velocity": 73}, {"time": 1905, "pitch": 43, "duration": 45, "velocity": 55}, {"time": 1908, "pitch": 48, "duration": 8, "velocity": 59}, {"time": 1911, "pitch": 55, "duration": 39, "velocity": 63}, {"time": 1914, "pitch": 64, "duration": 36, "velocity": 71}, {"time": 1920, "pitch": 62, "duration": 6, "velocity": 66}, {"time": 1926, "pitch": 48, "duration": 24, "velocity": 57}, {"time": 1926, "pitch": 60, "duration": 24, "velocity": 63}, {"time": 1950, "pitch": 36, "duration": 13, "velocity": 97}, {"time": 1956, "pitch": 48, "duration": 8, "velocity": 82}, {"time": 1962, "pitch": 60, "duration": 12, "velocity": 112}, {"time": 1962, "pitch": 64, "duration": 13, "velocity": 107}, {"time": 1968, "pitch": 55, "duration": 6, "velocity": 88}, {"time": 1974, "pitch": 47, "duration": 15, "velocity": 93}, {"time": 1980, "pitch": 59, "duration": 7, "velocity": 96}, {"time": 1986, "pitch": 64, "duration": 12, "velocity": 93}, {"time": 1986, "pitch": 67, "duration": 12, "velocity": 93}, {"time": 1992, "pitch": 59, "duration": 7, "velocity": 70}, {"time": 1998, "pitch": 45, "duration": 16, "velocity": 78}, {"time": 2004, "pitch": 52, "duration": 8, "velocity": 66}, {"time": 2010, "pitch": 60, "duration": 13, "velocity": 99}, {"time": 2010, "pitch": 64, "duration": 13, "velocity": 92}, {"time": 2016, "pitch": 57, "duration": 6, "velocity": 86}, {"time": 2022, "pitch": 43, "duration": 16, "velocity": 92}, {"time": 2028, "pitch": 50, "duration": 10, "velocity": 64}, {"time": 2034, "pitch": 59, "duration": 13, "velocity": 89}, {"time": 2034, "pitch": 62, "duration": 13, "velocity": 93}, {"time": 2040, "pitch": 55, "duration": 6, "velocity": 88}, {"time": 2046, "pitch": 41, "duration": 18, "velocity": 86}, {"time": 2052, "pitch": 48, "duration": 16, "velocity": 63}, {"time": 2058, "pitch": 53, "duration": 5, "velocity": 75}, {"time": 2058, "pitch": 60, "duration": 12, "velocity": 92}, {"time": 2064, "pitch": 57, "duration": 7, "velocity": 77}, {"time": 2070, "pitch": 43, "duration": 15, "velocity": 74}, {"time": 2076, "pitch": 50, "duration": 8, "velocity": 73}, {"time": 2082, "pitch": 59, "duration": 12, "velocity": 90}, {"time": 2082, "pitch": 62, "duration": 11, "velocity": 86}, {"time": 2088, "pitch": 55, "duration": 6, "velocity": 92}, {"time": 2094, "pitch": 36, "duration": 40, "velocity": 92}, {"time": 2100, "pitch": 43, "duration": 33, "velocity": 65}, {"time": 2106, "pitch": 60, "duration": 10, "velocity": 96}, {"time": 2106, "pitch": 64, "duration": 10, "velocity": 93}, {"time": 2112, "pitch": 48, "duration": 8, "velocity": 61}, {"time": 2118, "pitch": 55, "duration": 11, "velocity": 97}, {"time": 2118, "pitch": 60, "duration": 8, "velocity": 99}, {"time": 2118, "pitch": 64, "duration": 11, "velocity": 83}, {"time": 2124, "pitch": 48, "duration": 8, "velocity": 67}, {"time": 2130, "pitch": 55, "duration": 10, "velocity": 83}, {"time": 2130, "pitch": 60, "duration": 10, "velocity": 107}, {"time": 2130, "pitch": 64, "duration": 9, "velocity": 89}, {"time": 2136, "pitch": 59, "duration": 4, "velocity": 71}, {"time": 2142, "pitch": 47, "duration": 15, "velocity": 86}, {"time": 2142, "pitch": 52, "duration": 11, "velocity": 89}, {"time": 2142, "pitch": 56, "duration": 11, "velocity": 107}, {"time": 2142, "pitch": 59, "duration": 11, "velocity": 93}, {"time": 2154, "pitch": 52, "duration": 11, "velocity": 72}, {"time": 2154, "pitch": 56, "duration": 10, "velocity": 102}, {"time": 2154, "pitch": 59, "duration": 11, "velocity": 86}, {"time": 2160, "pitch": 47, "duration": 5, "velocity": 78}, {"time": 2166, "pitch": 44, "duration": 13, "velocity": 89}, {"time": 2166, "pitch": 56, "duration": 10, "velocity": 96}, {"time": 2166, "pitch": 59, "duration": 10, "velocity": 83}, {"time": 2178, "pitch": 56, "duration": 7, "velocity": 85}, {"time": 2178, "pitch": 59, "duration": 13, "velocity": 72}, {"time": 2184, "pitch": 52, "duration": 5, "velocity": 83}, {"time": 2187, "pitch": 56, "duration": 3, "velocity": 61}, {"time": 2190, "pitch": 45, "duration": 17, "velocity": 77}, {"time": 2196, "pitch": 52, "duration": 10, "velocity": 74}, {"time": 2202, "pitch": 64, "duration": 12, "velocity": 100}, {"time": 2208, "pitch": 57, "duration": 6, "velocity": 95}, {"time": 2214, "pitch": 43, "duration": 5, "velocity": 89}, {"time": 2220, "pitch": 55, "duration": 7, "velocity": 77}, {"time": 2226, "pitch": 59, "duration": 12, "velocity": 81}, {"time": 2226, "pitch": 62, "duration": 12, "velocity": 83}, {"time": 2232, "pitch": 55, "duration": 6, "velocity": 86}, {"time": 2238, "pitch": 38, "duration": 21, "velocity": 96}, {"time": 2244, "pitch": 45, "duration": 18, "velocity": 64}, {"time": 2250, "pitch": 54, "duration": 13, "velocity": 107}, {"time": 2250, "pitch": 57, "duration": 13, "velocity": 92}, {"time": 2256, "pitch": 50, "duration": 6, "velocity": 69}, {"time": 2262, "pitch": 38, "duration": 13, "velocity": 92}, {"time": 2268, "pitch": 45, "duration": 7, "velocity": 59}, {"time": 2274, "pitch": 50, "duration": 2, "velocity": 50}, {"time": 2274, "pitch": 62, "duration": 7, "velocity": 112}, {"time": 2274, "pitch": 66, "duration": 7, "velocity": 122}, {"time": 2280, "pitch": 57, "duration": 2, "velocity": 78}, {"time": 2286, "pitch": 43, "duration": 22, "velocity": 93}, {"time": 2286, "pitch": 55, "duration": 10, "velocity": 77}, {"time": 2286, "pitch": 60, "duration": 10, "velocity": 96}, {"time": 2286, "pitch": 62, "duration": 10, "velocity": 96}, {"time": 2292, "pitch": 48, "duration": 8, "velocity": 44}, {"time": 2298, "pitch": 50, "duration": 6, "velocity": 74}, {"time": 2298, "pitch": 60, "duration": 4, "velocity": 117}, {"time": 2298, "pitch": 62, "duration": 4, "velocity": 117}, {"time": 2301, "pitch": 55, "duration": 1, "velocity": 37}, {"time": 2304, "pitch": 48, "duration": 5, "velocity": 56}, {"time": 2304, "pitch": 55, "duration": 5, "velocity": 97}, {"time": 2304, "pitch": 60, "duration": 4, "velocity": 112}, {"time": 2304, "pitch": 62, "duration": 4, "velocity": 97}, {"time": 2310, "pitch": 43, "duration": 14, "velocity": 92}, {"time": 2310, "pitch": 55, "duration": 11, "velocity": 117}, {"time": 2310, "pitch": 59, "duration": 11, "velocity": 107}, {"time": 2310, "pitch": 62, "duration": 11, "velocity": 107}, {"time": 2322, "pitch": 42, "duration": 11, "velocity": 99}, {"time": 2322, "pitch": 54, "duration": 10, "velocity": 102}, {"time": 2322, "pitch": 57, "duration": 10, "velocity": 93}, {"time": 2322, "pitch": 60, "duration": 11, "velocity": 90}, {"time": 2334, "pitch": 41, "duration": 21, "velocity": 93}, {"time": 2337, "pitch": 48, "duration": 21, "velocity": 93}, {"time": 2340, "pitch": 53, "duration": 7, "velocity": 96}, {"time": 2343, "pitch": 60, "duration": 9, "velocity": 107}, {"time": 2346, "pitch": 69, "duration": 14, "velocity": 112}, {"time": 2349, "pitch": 53, "duration": 2, "velocity": 92}, {"time": 2352, "pitch": 65, "duration": 8, "velocity": 112}, {"time": 2355, "pitch": 60, "duration": 10, "velocity": 102}, {"time": 2358, "pitch": 41, "duration": 20, "velocity": 78}, {"time": 2361, "pitch": 48, "duration": 17, "velocity": 82}, {"time": 2364, "pitch": 53, "duration": 8, "velocity": 86}, {"time": 2367, "pitch": 60, "duration": 6, "velocity": 107}, {"time": 2367, "pitch": 65, "duration": 1, "velocity": 50}, {"time": 2370, "pitch": 64, "duration": 1, "velocity": 74}, {"time": 2370, "pitch": 65, "duration": 13, "velocity": 112}, {"time": 2370, "pitch": 69, "duration": 13, "velocity": 93}, {"time": 2373, "pitch": 53, "duration": 2, "velocity": 96}, {"time": 2376, "pitch": 60, "duration": 7, "velocity": 112}, {"time": 2379, "pitch": 64, "duration": 4, "velocity": 90}, {"time": 2382, "pitch": 40, "duration": 17, "velocity": 81}, {"time": 2385, "pitch": 47, "duration": 15, "velocity": 82}, {"time": 2388, "pitch": 52, "duration": 7, "velocity": 97}, {"time": 2391, "pitch": 55, "duration": 4, "velocity": 88}, {"time": 2394, "pitch": 59, "duration": 7, "velocity": 117}, {"time": 2397, "pitch": 52, "duration": 3, "velocity": 93}, {"time": 2400, "pitch": 55, "duration": 5, "velocity": 107}, {"time": 2403, "pitch": 59, "duration": 3, "velocity": 127}, {"time": 2406, "pitch": 45, "duration": 18, "velocity": 90}, {"time": 2409, "pitch": 52, "duration": 10, "velocity": 93}, {"time": 2412, "pitch": 57, "duration": 7, "velocity": 92}, {"time": 2415, "pitch": 60, "duration": 3, "velocity": 97}, {"time": 2418, "pitch": 64, "duration": 11, "velocity": 112}, {"time": 2421, "pitch": 52, "duration": 2, "velocity": 82}, {"time": 2424, "pitch": 60, "duration": 5, "velocity": 107}, {"time": 2427, "pitch": 57, "duration": 4, "velocity": 99}, {"time": 2430, "pitch": 38, "duration": 16, "velocity": 90}, {"time": 2433, "pitch": 45, "duration": 13, "velocity": 82}, {"time": 2436, "pitch": 50, "duration": 7, "velocity": 93}, {"time": 2439, "pitch": 57, "duration": 7, "velocity": 102}, {"time": 2442, "pitch": 65, "duration": 11, "velocity": 117}, {"time": 2445, "pitch": 50, "duration": 3, "velocity": 92}, {"time": 2448, "pitch": 62, "duration": 5, "velocity": 100}, {"time": 2451, "pitch": 57, "duration": 3, "velocity": 102}, {"time": 2454, "pitch": 43, "duration": 17, "velocity": 85}, {"time": 2457, "pitch": 50, "duration": 10, "velocity": 83}, {"time": 2460, "pitch": 55, "duration": 3, "velocity": 92}, {"time": 2463, "pitch": 59, "duration": 3, "velocity": 99}, {"time": 2466, "pitch": 62, "duration": 8, "velocity": 117}, {"time": 2469, "pitch": 50, "duration": 2, "velocity": 93}, {"time": 2472, "pitch": 59, "duration": 5, "velocity": 100}, {"time": 2475, "pitch": 55, "duration": 3, "velocity": 95}, {"time": 2478, "pitch": 36, "duration": 18, "velocity": 92}, {"time": 2481, "pitch": 43, "duration": 13, "velocity": 92}, {"time": 2484, "pitch": 48, "duration": 7, "velocity": 100}, {"time": 2487, "pitch": 55, "duration": 5, "velocity": 97}, {"time": 2490, "pitch": 64, "duration": 14, "velocity": 102}, {"time": 2493, "pitch": 48, "duration": 5, "velocity": 112}, {"time": 2496, "pitch": 55, "duration": 7, "velocity": 97}, {"time": 2499, "pitch": 60, "duration": 5, "velocity": 102}, {"time": 2502, "pitch": 46, "duration": 14, "velocity": 127}, {"time": 2505, "pitch": 55, "duration": 4, "velocity": 90}, {"time": 2505, "pitch": 64, "duration": 2, "velocity": 34}, {"time": 2508, "pitch": 58, "duration": 5, "velocity": 127}, {"time": 2508, "pitch": 60, "duration": 1, "velocity": 57}, {"time": 2511, "pitch": 55, "duration": 5, "velocity": 107}, {"time": 2514, "pitch": 42, "duration": 10, "velocity": 76}, {"time": 2514, "pitch": 54, "duration": 9, "velocity": 70}, {"time": 2514, "pitch": 61, "duration": 10, "velocity": 100}, {"time": 2514, "pitch": 66, "duration": 10, "velocity": 100}, {"time": 2514, "pitch": 69, "duration": 10, "velocity": 73}, {"time": 2526, "pitch": 41, "duration": 22, "velocity": 89}, {"time": 2529, "pitch": 48, "duration": 11, "velocity": 76}, {"time": 2532, "pitch": 53, "duration": 3, "velocity": 95}, {"time": 2535, "pitch": 57, "duration": 3, "velocity": 102}, {"time": 2538, "pitch": 60, "duration": 12, "velocity": 112}, {"time": 2541, "pitch": 48, "duration": 8, "velocity": 92}, {"time": 2544, "pitch": 53, "duration": 4, "velocity": 95}, {"time": 2547, "pitch": 57, "duration": 3, "velocity": 107}, {"time": 2550, "pitch": 41, "duration": 22, "velocity": 76}, {"time": 2553, "pitch": 48, "duration": 19, "velocity": 86}, {"time": 2556, "pitch": 53, "duration": 7, "velocity": 88}, {"time": 2559, "pitch": 65, "duration": 4, "velocity": 76}, {"time": 2562, "pitch": 69, "duration": 8, "velocity": 93}, {"time": 2562, "pitch": 72, "duration": 13, "velocity": 127}, {"time": 2565, "pitch": 53, "duration": 2, "velocity": 93}, {"time": 2568, "pitch": 64, "duration": 7, "velocity": 102}, {"time": 2571, "pitch": 69, "duration": 4, "velocity": 73}, {"time": 2574, "pitch": 40, "duration": 17, "velocity": 90}, {"time": 2577, "pitch": 47, "duration": 14, "velocity": 90}, {"time": 2580, "pitch": 52, "duration": 7, "velocity": 89}, {"time": 2583, "pitch": 64, "duration": 8, "velocity": 89}, {"time": 2586, "pitch": 71, "duration": 11, "velocity": 127}, {"time": 2589, "pitch": 52, "duration": 3, "velocity": 107}, {"time": 2592, "pitch": 67, "duration": 5, "velocity": 100}, {"time": 2595, "pitch": 64, "duration": 3, "velocity": 97}, {"time": 2598, "pitch": 45, "duration": 17, "velocity": 82}, {"time": 2601, "pitch": 52, "duration": 10, "velocity": 74}, {"time": 2604, "pitch": 57, "duration": 3, "velocity": 93}, {"time": 2607, "pitch": 60, "duration": 4, "velocity": 100}, {"time": 2610, "pitch": 64, "duration": 11, "velocity": 107}, {"time": 2613, "pitch": 52, "duration": 2, "velocity": 92}, {"time": 2616, "pitch": 60, "duration": 5, "velocity": 99}, {"time": 2619, "pitch": 57, "duration": 4, "velocity": 92}, {"time": 2622, "pitch": 38, "duration": 13, "velocity": 86}, {"time": 2625, "pitch": 45, "duration": 9, "velocity": 83}, {"time": 2628, "pitch": 50, "duration": 8, "velocity": 89}, {"time": 2631, "pitch": 57, "duration": 5, "velocity": 85}, {"time": 2634, "pitch": 65, "duration": 12, "velocity": 112}, {"time": 2637, "pitch": 62, "duration": 4, "velocity": 89}, {"time": 2640, "pitch": 57, "duration": 7, "velocity": 93}, {"time": 2643, "pitch": 62, "duration": 3, "velocity": 83}, {"time": 2646, "pitch": 43, "duration": 17, "velocity": 92}, {"time": 2649, "pitch": 50, "duration": 10, "velocity": 79}, {"time": 2652, "pitch": 55, "duration": 8, "velocity": 78}, {"time": 2655, "pitch": 59, "duration": 3, "velocity": 83}, {"time": 2658, "pitch": 62, "duration": 12, "velocity": 100}, {"time": 2661, "pitch": 50, "duration": 2, "velocity": 72}, {"time": 2664, "pitch": 59, "duration": 5, "velocity": 82}, {"time": 2667, "pitch": 55, "duration": 3, "velocity": 72}, {"time": 2670, "pitch": 36, "duration": 10, "velocity": 83}, {"time": 2670, "pitch": 55, "duration": 4, "velocity": 83}, {"time": 2670, "pitch": 60, "duration": 4, "velocity": 85}, {"time": 2670, "pitch": 64, "duration": 4, "velocity": 78}, {"time": 2676, "pitch": 48, "duration": 4, "velocity": 51}, {"time": 2676, "pitch": 55, "duration": 4, "velocity": 62}, {"time": 2676, "pitch": 60, "duration": 4, "velocity": 72}, {"time": 2676, "pitch": 64, "duration": 4, "velocity": 68}, {"time": 2682, "pitch": 36, "duration": 3, "velocity": 56}, {"time": 2682, "pitch": 48, "duration": 3, "velocity": 102}, {"time": 2682, "pitch": 55, "duration": 4, "velocity": 95}, {"time": 2682, "pitch": 60, "duration": 3, "velocity": 102}, {"time": 2682, "pitch": 64, "duration": 4, "velocity": 95}, {"time": 2688, "pitch": 36, "duration": 1, "velocity": 67}, {"time": 2688, "pitch": 48, "duration": 3, "velocity": 107}, {"time": 2688, "pitch": 55, "duration": 3, "velocity": 102}, {"time": 2688, "pitch": 60, "duration": 1, "velocity": 95}, {"time": 2688, "pitch": 64, "duration": 1, "velocity": 82}, {"time": 2694, "pitch": 46, "duration": 11, "velocity": 127}, {"time": 2694, "pitch": 58, "duration": 10, "velocity": 127}, {"time": 2694, "pitch": 62, "duration": 11, "velocity": 102}, {"time": 2694, "pitch": 65, "duration": 10, "velocity": 99}, {"time": 2706, "pitch": 42, "duration": 12, "velocity": 96}, {"time": 2706, "pitch": 54, "duration": 12, "velocity": 117}, {"time": 2706, "pitch": 57, "duration": 12, "velocity": 96}, {"time": 2706, "pitch": 60, "duration": 12, "velocity": 90}, {"time": 2718, "pitch": 41, "duration": 21, "velocity": 93}, {"time": 2721, "pitch": 48, "duration": 21, "velocity": 93}, {"time": 2724, "pitch": 53, "duration": 7, "velocity": 96}, {"time": 2727, "pitch": 60, "duration": 9, "velocity": 107}, {"time": 2730, "pitch": 69, "duration": 14, "velocity": 112}, {"time": 2733, "pitch": 53, "duration": 2, "velocity": 92}, {"time": 2736, "pitch": 65, "duration": 8, "velocity": 112}, {"time": 2739, "pitch": 60, "duration": 10, "velocity": 102}, {"time": 2742, "pitch": 41, "duration": 20, "velocity": 78}, {"time": 2745, "pitch": 48, "duration": 17, "velocity": 82}, {"time": 2748, "pitch": 53, "duration": 8, "velocity": 86}, {"time": 2751, "pitch": 60, "duration": 6, "velocity": 107}, {"time": 2754, "pitch": 65, "duration": 13, "velocity": 112}, {"time": 2754, "pitch": 69, "duration": 13, "velocity": 93}, {"time": 2757, "pitch": 53, "duration": 2, "velocity": 96}, {"time": 2760, "pitch": 60, "duration": 7, "velocity": 112}, {"time": 2766, "pitch": 40, "duration": 17, "velocity": 81}, {"time": 2769, "pitch": 47, "duration": 15, "velocity": 82}, {"time": 2772, "pitch": 52, "duration": 7, "velocity": 97}, {"time": 2775, "pitch": 55, "duration": 4, "velocity": 88}, {"time": 2778, "pitch": 59, "duration": 7, "velocity": 117}, {"time": 2781, "pitch": 52, "duration": 3, "velocity": 93}, {"time": 2784, "pitch": 55, "duration": 5, "velocity": 107}, {"time": 2787, "pitch": 59, "duration": 3, "velocity": 127}, {"time": 2790, "pitch": 45, "duration": 18, "velocity": 90}, {"time": 2793, "pitch": 52, "duration": 10, "velocity": 93}, {"time": 2796, "pitch": 57, "duration": 7, "velocity": 92}, {"time": 2799, "pitch": 60, "duration": 3, "velocity": 97}, {"time": 2802, "pitch": 64, "duration": 11, "velocity": 112}, {"time": 2805, "pitch": 52, "duration": 2, "velocity": 82}, {"time": 2808, "pitch": 60, "duration": 5, "velocity": 107}, {"time": 2811, "pitch": 57, "duration": 4, "velocity": 99}, {"time": 2814, "pitch": 38, "duration": 16, "velocity": 90}, {"time": 2817, "pitch": 45, "duration": 13, "velocity": 82}, {"time": 2820, "pitch": 50, "duration": 7, "velocity": 93}, {"time": 2823, "pitch": 57, "duration": 7, "velocity": 102}, {"time": 2826, "pitch": 65, "duration": 11, "velocity": 117}, {"time": 2829, "pitch": 50, "duration": 3, "velocity": 92}, {"time": 2832, "pitch": 62, "duration": 5, "velocity": 100}, {"time": 2835, "pitch": 57, "duration": 3, "velocity": 102}, {"time": 2838, "pitch": 43, "duration": 17, "velocity": 85}, {"time": 2841, "pitch": 50, "duration": 10, "velocity": 83}, {"time": 2844, "pitch": 55, "duration": 3, "velocity": 92}, {"time": 2847, "pitch": 59, "duration": 3, "velocity": 99}, {"time": 2850, "pitch": 62, "duration": 8, "velocity": 117}, {"time": 2853, "pitch": 50, "duration": 2, "velocity": 93}, {"time": 2856, "pitch": 59, "duration": 5, "velocity": 100}, {"time": 2859, "pitch": 55, "duration": 3, "velocity": 95}, {"time": 2862, "pitch": 36, "duration": 18, "velocity": 92}, {"time": 2865, "pitch": 43, "duration": 13, "velocity": 92}, {"time": 2868, "pitch": 48, "duration": 7, "velocity": 100}, {"time": 2871, "pitch": 55, "duration": 5, "velocity": 97}, {"time": 2874, "pitch": 64, "duration": 14, "velocity": 102}, {"time": 2877, "pitch": 48, "duration": 5, "velocity": 112}, {"time": 2880, "pitch": 55, "duration": 7, "velocity": 97}, {"time": 2883, "pitch": 60, "duration": 5, "velocity": 102}, {"time": 2886, "pitch": 46, "duration": 14, "velocity": 127}, {"time": 2889, "pitch": 55, "duration": 4, "velocity": 90}, {"time": 2889, "pitch": 64, "duration": 2, "velocity": 34}, {"time": 2892, "pitch": 58, "duration": 5, "velocity": 127}, {"time": 2892, "pitch": 60, "duration": 1, "velocity": 57}, {"time": 2895, "pitch": 55, "duration": 5, "velocity": 107}, {"time": 2898, "pitch": 42, "duration": 12, "velocity": 79}, {"time": 2898, "pitch": 54, "duration": 11, "velocity": 99}, {"time": 2898, "pitch": 57, "duration": 11, "velocity": 93}, {"time": 2898, "pitch": 60, "duration": 11, "velocity": 86}, {"time": 2910, "pitch": 41, "duration": 22, "velocity": 89}, {"time": 2913, "pitch": 48, "duration": 11, "velocity": 76}, {"time": 2916, "pitch": 53, "duration": 3, "velocity": 95}, {"time": 2919, "pitch": 57, "duration": 3, "velocity": 102}, {"time": 2922, "pitch": 60, "duration": 12, "velocity": 112}, {"time": 2925, "pitch": 48, "duration": 8, "velocity": 92}, {"time": 2928, "pitch": 53, "duration": 4, "velocity": 95}, {"time": 2931, "pitch": 57, "duration": 3, "velocity": 107}, {"time": 2934, "pitch": 41, "duration": 22, "velocity": 76}, {"time": 2937, "pitch": 48, "duration": 19, "velocity": 86}, {"time": 2940, "pitch": 53, "duration": 7, "velocity": 88}, {"time": 2943, "pitch": 65, "duration": 4, "velocity": 76}, {"time": 2946, "pitch": 69, "duration": 8, "velocity": 93}, {"time": 2946, "pitch": 72, "duration": 13, "velocity": 127}, {"time": 2949, "pitch": 53, "duration": 2, "velocity": 93}, {"time": 2952, "pitch": 64, "duration": 7, "velocity": 102}, {"time": 2955, "pitch": 69, "duration": 4, "velocity": 73}, {"time": 2958, "pitch": 40, "duration": 17, "velocity": 90}, {"time": 2961, "pitch": 47, "duration": 14, "velocity": 90}, {"time": 2964, "pitch": 52, "duration": 7, "velocity": 89}, {"time": 2967, "pitch": 64, "duration": 8, "velocity": 89}, {"time": 2970, "pitch": 71, "duration": 11, "velocity": 127}, {"time": 2973, "pitch": 52, "duration": 3, "velocity": 107}, {"time": 2976, "pitch": 67, "duration": 5, "velocity": 100}, {"time": 2979, "pitch": 64, "duration": 3, "velocity": 97}, {"time": 2982, "pitch": 45, "duration": 17, "velocity": 82}, {"time": 2985, "pitch": 52, "duration": 10, "velocity": 74}, {"time": 2988, "pitch": 57, "duration": 3, "velocity": 93}, {"time": 2991, "pitch": 60, "duration": 4, "velocity": 100}, {"time": 2994, "pitch": 64, "duration": 11, "velocity": 107}, {"time": 2997, "pitch": 52, "duration": 2, "velocity": 92}, {"time": 3000, "pitch": 60, "duration": 5, "velocity": 99}, {"time": 3003, "pitch": 57, "duration": 4, "velocity": 92}, {"time": 3006, "pitch": 38, "duration": 13, "velocity": 86}, {"time": 3009, "pitch": 45, "duration": 9, "velocity": 83}, {"time": 3012, "pitch": 50, "duration": 8, "velocity": 89}, {"time": 3015, "pitch": 57, "duration": 5, "velocity": 85}, {"time": 3018, "pitch": 65, "duration": 12, "velocity": 112}, {"time": 3021, "pitch": 62, "duration": 4, "velocity": 89}, {"time": 3024, "pitch": 57, "duration": 7, "velocity": 93}, {"time": 3027, "pitch": 62, "duration": 3, "velocity": 83}, {"time": 3030, "pitch": 43, "duration": 17, "velocity": 92}, {"time": 3033, "pitch": 50, "duration": 10, "velocity": 79}, {"time": 3036, "pitch": 55, "duration": 8, "velocity": 78}, {"time": 3039, "pitch": 59, "duration": 3, "velocity": 83}, {"time": 3042, "pitch": 62, "duration": 12, "velocity": 100}, {"time": 3045, "pitch": 50, "duration": 2, "velocity": 72}, {"time": 3048, "pitch": 59, "duration": 5, "velocity": 82}, {"time": 3051, "pitch": 55, "duration": 3, "velocity": 72}, {"time": 3054, "pitch": 36, "duration": 36, "velocity": 92}, {"time": 3060, "pitch": 43, "duration": 30, "velocity": 63}, {"time": 3066, "pitch": 60, "duration": 12, "velocity": 96}, {"time": 3072, "pitch": 48, "duration": 17, "velocity": 60}, {"time": 3078, "pitch": 64, "duration": 25, "velocity": 88}, {"time": 3084, "pitch": 55, "duration": 7, "velocity": 42}, {"time": 3090, "pitch": 60, "duration": 13, "velocity": 70}, {"time": 3096, "pitch": 55, "duration": 6, "velocity": 49}, {"time": 3102, "pitch": 41, "duration": 18, "velocity": 59}, {"time": 3108, "pitch": 48, "duration": 13, "velocity": 59}, {"time": 3114, "pitch": 53, "duration": 5, "velocity": 48}, {"time": 3114, "pitch": 65, "duration": 12, "velocity": 69}, {"time": 3120, "pitch": 57, "duration": 7, "velocity": 49}, {"time": 3126, "pitch": 43, "duration": 16, "velocity": 70}, {"time": 3132, "pitch": 50, "duration": 11, "velocity": 39}, {"time": 3138, "pitch": 62, "duration": 13, "velocity": 76}, {"time": 3144, "pitch": 59, "duration": 7, "velocity": 58}, {"time": 3150, "pitch": 45, "duration": 14, "velocity": 73}, {"time": 3156, "pitch": 52, "duration": 7, "velocity": 56}, {"time": 3162, "pitch": 64, "duration": 13, "velocity": 97}, {"time": 3168, "pitch": 57, "duration": 7, "velocity": 72}, {"time": 3174, "pitch": 43, "duration": 15, "velocity": 79}, {"time": 3180, "pitch": 50, "duration": 8, "velocity": 63}, {"time": 3186, "pitch": 59, "duration": 12, "velocity": 82}, {"time": 3186, "pitch": 62, "duration": 13, "velocity": 90}, {"time": 3192, "pitch": 55, "duration": 7, "velocity": 51}, {"time": 3198, "pitch": 41, "duration": 14, "velocity": 71}, {"time": 3204, "pitch": 48, "duration": 9, "velocity": 61}, {"time": 3210, "pitch": 60, "duration": 12, "velocity": 76}, {"time": 3216, "pitch": 57, "duration": 7, "velocity": 59}, {"time": 3222, "pitch": 43, "duration": 15, "velocity": 72}, {"time": 3228, "pitch": 50, "duration": 8, "velocity": 50}, {"time": 3234, "pitch": 59, "duration": 13, "velocity": 71}, {"time": 3234, "pitch": 62, "duration": 13, "velocity": 72}, {"time": 3240, "pitch": 55, "duration": 7, "velocity": 47}, {"time": 3246, "pitch": 36, "duration": 50, "velocity": 73}, {"time": 3252, "pitch": 43, "duration": 44, "velocity": 54}, {"time": 3258, "pitch": 53, "duration": 11, "velocity": 63}, {"time": 3258, "pitch": 55, "duration": 38, "velocity": 58}, {"time": 3270, "pitch": 48, "duration": 26, "velocity": 37}, {"time": 3270, "pitch": 52, "duration": 26, "velocity": 50}], "annotations": [{"time": 24, "annotation": {"number": 64, "value": 127}, "group": "control_change"}, {"time": 26, "annotation": {"number": 64, "value": 0}, "group": "control_change"}, {"time": 29, "annotation": {"number": 64, "value": 127}, "group": "control_change"}, {"time": 53, "annotation": {"number": 64, "value": 0}, "group": "control_change"}, {"time": 54, "annotation": {"number": 64, "value": 127}, "group": "control_change"}, {"time": 76, "annotation": {"number": 64, "value": 0}, "group": "control_change"}, {"time": 78, "annotation": {"number": 64, "value": 127}, "group": "control_change"}, {"time": 100, "annotation": {"number": 64, "value": 0}, "group": "control_change"}, {"time": 102, "annotation": {"number": 64, "value": 127}, "group": "control_change"}, {"time": 124, "annotation": {"number": 64, "value": 0}, "group": "control_change"}, {"time": 126, "annotation": {"number": 64, "value": 127}, "group": "control_change"}, {"time": 147, "annotation": {"number": 64, "value": 0}, "group": "control_change"}, {"time": 150, "annotation": {"number": 64, "value": 127}, "group": "control_change"}, {"time": 172, "annotation": {"number": 64, "value": 0}, "group": "control_change"}, {"time": 173, "annotation": {"number": 64, "value": 127}, "group": "control_change"}, {"time": 196, "annotation": {"number": 64, "value": 0}, "group": "control_change"}, {"time": 198, "annotation": {"number": 64, "value": 127}, "group": "control_change"}, {"time": 218, "annotation": {"number": 64, "value": 0}, "group": "control_change"}, {"time": 222, "annotation": {"number": 64, "value": 127}, "group": "control_change"}, {"time": 267, "annotation": {"number": 64, "value": 0}, "group": "control_change"}, {"time": 269, "annotation": {"number": 64, "value": 127}, "group": "control_change"}, {"time": 292, "annotation": {"number": 64, "value": 0}, "group": "control_change"}, {"time": 293, "annotation": {"number": 64, "value": 127}, "group": "control_change"}, {"time": 316, "annotation": {"number": 64, "value": 0}, "group": "control_change"}, {"time": 317, "annotation": {"number": 64, "value": 127}, "group": "control_change"}, {"time": 340, "annotation": {"number": 64, "value": 0}, "group": "control_change"}, {"time": 341, "annotation": {"number": 64, "value": 127}, "group": "control_change"}, {"time": 364, "annotation": {"number": 64, "value": 0}, "group": "control_change"}, {"time": 366, "annotation": {"number": 64, "value": 127}, "group": "control_change"}, {"time": 388, "annotation": {"number": 64, "value": 0}, "group": "control_change"}, {"time": 390, "annotation": {"number": 64, "value": 127}, "group": "control_change"}, {"time": 412, "annotation": {"number": 64, "value": 0}, "group": "control_change"}, {"time": 414, "annotation": {"number": 64, "value": 127}, "group": "control_change"}, {"time": 459, "annotation": {"number": 64, "value": 0}, "group": "control_change"}, {"time": 461, "annotation": {"number": 64, "value": 127}, "group": "control_change"}, {"time": 483, "annotation": {"number": 64, "value": 0}, "group": "control_change"}, {"time": 485, "annotation": {"number": 64, "value": 127}, "group": "control_change"}, {"time": 507, "annotation": {"number": 64, "value": 0}, "group": "control_change"}, {"time": 510, "annotation": {"number": 64, "value": 127}, "group": "control_change"}, {"time": 532, "annotation": {"number": 64, "value": 0}, "group": "control_change"}, {"time": 534, "annotation": {"number": 64, "value": 127}, "group": "control_change"}, {"time": 556, "annotation": {"number": 64, "value": 0}, "group": "control_change"}, {"time": 558, "annotation": {"number": 64, "value": 127}, "group": "control_change"}, {"time": 605, "annotation": {"number": 64, "value": 0}, "group": "control_change"}, {"time": 606, "annotation": {"number": 64, "value": 127}, "group": "control_change"}, {"time": 628, "annotation": {"number": 64, "value": 0}, "group": "control_change"}, {"time": 630, "annotation": {"number": 64, "value": 127}, "group": "control_change"}, {"time": 653, "annotation": {"number": 64, "value": 0}, "group": "control_change"}, {"time": 654, "annotation": {"number": 64, "value": 127}, "group": "control_change"}, {"time": 675, "annotation": {"number": 64, "value": 0}, "group": "control_change"}, {"time": 678, "annotation": {"number": 64, "value": 127}, "group": "control_change"}, {"time": 700, "annotation": {"number": 64, "value": 0}, "group": "control_change"}, {"time": 702, "annotation": {"number": 64, "value": 127}, "group": "control_change"}, {"time": 748, "annotation": {"number": 64, "value": 0}, "group": "control_change"}, {"time": 750, "annotation": {"number": 64, "value": 127}, "group": "control_change"}, {"time": 796, "annotation": {"number": 64, "value": 0}, "group": "control_change"}, {"time": 798, "annotation": {"number": 64, "value": 127}, "group": "control_change"}, {"time": 820, "annotation": {"number": 64, "value": 0}, "group": "control_change"}, {"time": 821, "annotation": {"number": 64, "value": 127}, "group": "control_change"}, {"time": 843, "annotation": {"number": 64, "value": 0}, "group": "control_change"}, {"time": 845, "annotation": {"number": 64, "value": 127}, "group": "control_change"}, {"time": 867, "annotation": {"number": 64, "value": 0}, "group": "control_change"}, {"time": 869, "annotation": {"number": 64, "value": 127}, "group": "control_change"}, {"time": 891, "annotation": {"number": 64, "value": 0}, "group": "control_change"}, {"time": 894, "annotation": {"number": 64, "value": 127}, "group": "control_change"}, {"time": 915, "annotation": {"number": 64, "value": 0}, "group": "control_change"}, {"time": 918, "annotation": {"number": 64, "value": 127}, "group": "control_change"}, {"time": 940, "annotation": {"number": 64, "value": 0}, "group": "control_change"}, {"time": 942, "annotation": {"number": 64, "value": 127}, "group": "control_change"}, {"time": 989, "annotation": {"number": 64, "value": 0}, "group": "control_change"}, {"time": 990, "annotation": {"number": 64, "value": 127}, "group": "control_change"}, {"time": 1013, "annotation": {"number": 64, "value": 0}, "group": "control_change"}, {"time": 1014, "annotation": {"number": 64, "value": 127}, "group": "control_change"}, {"time": 1036, "annotation": {"number": 64, "value": 0}, "group": "control_change"}, {"time": 1038, "annotation": {"number": 64, "value": 127}, "group": "control_change"}, {"time": 1060, "annotation": {"number": 64, "value": 0}, "group": "control_change"}, {"time": 1062, "annotation": {"number": 64, "value": 127}, "group": "control_change"}, {"time": 1084, "annotation": {"number": 64, "value": 0}, "group": "control_change"}, {"time": 1086, "annotation": {"number": 64, "value": 127}, "group": "control_change"}, {"time": 1108, "annotation": {"number": 64, "value": 0}, "group": "control_change"}, {"time": 1109, "annotation": {"number": 64, "value": 127}, "group": "control_change"}, {"time": 1132, "annotation": {"number": 64, "value": 0}, "group": "control_change"}, {"time": 1133, "annotation": {"number": 64, "value": 127}, "group": "control_change"}, {"time": 1156, "annotation": {"number": 64, "value": 0}, "group": "control_change"}, {"time": 1202, "annotation": {"number": 64, "value": 0}, "group": "control_change"}, {"time": 1204, "annotation": {"number": 64, "value": 127}, "group": "control_change"}, {"time": 1228, "annotation": {"number": 64, "value": 0}, "group": "control_change"}, {"time": 1230, "annotation": {"number": 64, "value": 127}, "group": "control_change"}, {"time": 1251, "annotation": {"number": 64, "value": 0}, "group": "control_change"}, {"time": 1254, "annotation": {"number": 64, "value": 127}, "group": "control_change"}, {"time": 1276, "annotation": {"number": 64, "value": 0}, "group": "control_change"}, {"time": 1278, "annotation": {"number": 64, "value": 127}, "group": "control_change"}, {"time": 1299, "annotation": {"number": 64, "value": 0}, "group": "control_change"}, {"time": 1302, "annotation": {"number": 64, "value": 127}, "group": "control_change"}, {"time": 1324, "annotation": {"number": 64, "value": 0}, "group": "control_change"}, {"time": 1326, "annotation": {"number": 64, "value": 127}, "group": "control_change"}, {"time": 1348, "annotation": {"number": 64, "value": 0}, "group": "control_change"}, {"time": 1350, "annotation": {"number": 64, "value": 127}, "group": "control_change"}, {"time": 1370, "annotation": {"number": 64, "value": 0}, "group": "control_change"}, {"time": 1373, "annotation": {"number": 64, "value": 127}, "group": "control_change"}, {"time": 1395, "annotation": {"number": 64, "value": 0}, "group": "control_change"}, {"time": 1397, "annotation": {"number": 64, "value": 127}, "group": "control_change"}, {"time": 1420, "annotation": {"number": 64, "value": 0}, "group": "control_change"}, {"time": 1421, "annotation": {"number": 64, "value": 127}, "group": "control_change"}, {"time": 1443, "annotation": {"number": 64, "value": 0}, "group": "control_change"}, {"time": 1445, "annotation": {"number": 64, "value": 127}, "group": "control_change"}, {"time": 1467, "annotation": {"number": 64, "value": 0}, "group": "control_change"}, {"time": 1470, "annotation": {"number": 64, "value": 127}, "group": "control_change"}, {"time": 1491, "annotation": {"number": 64, "value": 0}, "group": "control_change"}, {"time": 1494, "annotation": {"number": 64, "value": 127}, "group": "control_change"}, {"time": 1516, "annotation": {"number": 64, "value": 0}, "group": "control_change"}, {"time": 1518, "annotation": {"number": 64, "value": 127}, "group": "control_change"}, {"time": 1539, "annotation": {"number": 64, "value": 0}, "group": "control_change"}, {"time": 1542, "annotation": {"number": 64, "value": 127}, "group": "control_change"}, {"time": 1563, "annotation": {"number": 64, "value": 0}, "group": "control_change"}, {"time": 1565, "annotation": {"number": 64, "value": 127}, "group": "control_change"}, {"time": 1586, "annotation": {"number": 64, "value": 0}, "group": "control_change"}, {"time": 1589, "annotation": {"number": 64, "value": 127}, "group": "control_change"}, {"time": 1612, "annotation": {"number": 64, "value": 0}, "group": "control_change"}, {"time": 1613, "annotation": {"number": 64, "value": 127}, "group": "control_change"}, {"time": 1636, "annotation": {"number": 64, "value": 0}, "group": "control_change"}, {"time": 1637, "annotation": {"number": 64, "value": 127}, "group": "control_change"}, {"time": 1660, "annotation": {"number": 64, "value": 0}, "group": "control_change"}, {"time": 1662, "annotation": {"number": 64, "value": 127}, "group": "control_change"}, {"time": 1683, "annotation": {"number": 64, "value": 0}, "group": "control_change"}, {"time": 1685, "annotation": {"number": 64, "value": 127}, "group": "control_change"}, {"time": 1707, "annotation": {"number": 64, "value": 0}, "group": "control_change"}, {"time": 1710, "annotation": {"number": 64, "value": 127}, "group": "control_change"}, {"time": 1756, "annotation": {"number": 64, "value": 0}, "group": "control_change"}, {"time": 1758, "annotation": {"number": 64, "value": 127}, "group": "control_change"}, {"time": 1778, "annotation": {"number": 64, "value": 0}, "group": "control_change"}, {"time": 1781, "annotation": {"number": 64, "value": 127}, "group": "control_change"}, {"time": 1804, "annotation": {"number": 64, "value": 0}, "group": "control_change"}, {"time": 1806, "annotation": {"number": 64, "value": 127}, "group": "control_change"}, {"time": 1827, "annotation": {"number": 64, "value": 0}, "group": "control_change"}, {"time": 1829, "annotation": {"number": 64, "value": 127}, "group": "control_change"}, {"time": 1852, "annotation": {"number": 64, "value": 0}, "group": "control_change"}, {"time": 1854, "annotation": {"number": 64, "value": 127}, "group": "control_change"}, {"time": 1874, "annotation": {"number": 64, "value": 0}, "group": "control_change"}, {"time": 1878, "annotation": {"number": 64, "value": 127}, "group": "control_change"}, {"time": 1899, "annotation": {"number": 64, "value": 0}, "group": "control_change"}, {"time": 1902, "annotation": {"number": 64, "value": 127}, "group": "control_change"}, {"time": 1944, "annotation": {"number": 64, "value": 0}, "group": "control_change"}, {"time": 1972, "annotation": {"number": 64, "value": 0}, "group": "control_change"}, {"time": 1973, "annotation": {"number": 64, "value": 127}, "group": "control_change"}, {"time": 1995, "annotation": {"number": 64, "value": 0}, "group": "control_change"}, {"time": 1997, "annotation": {"number": 64, "value": 127}, "group": "control_change"}, {"time": 2019, "annotation": {"number": 64, "value": 0}, "group": "control_change"}, {"time": 2021, "annotation": {"number": 64, "value": 127}, "group": "control_change"}, {"time": 2043, "annotation": {"number": 64, "value": 0}, "group": "control_change"}, {"time": 2046, "annotation": {"number": 64, "value": 127}, "group": "control_change"}, {"time": 2067, "annotation": {"number": 64, "value": 0}, "group": "control_change"}, {"time": 2070, "annotation": {"number": 64, "value": 127}, "group": "control_change"}, {"time": 2092, "annotation": {"number": 64, "value": 0}, "group": "control_change"}, {"time": 2094, "annotation": {"number": 64, "value": 127}, "group": "control_change"}, {"time": 2141, "annotation": {"number": 64, "value": 0}, "group": "control_change"}, {"time": 2142, "annotation": {"number": 64, "value": 127}, "group": "control_change"}, {"time": 2165, "annotation": {"number": 64, "value": 0}, "group": "control_change"}, {"time": 2166, "annotation": {"number": 64, "value": 127}, "group": "control_change"}, {"time": 2188, "annotation": {"number": 64, "value": 0}, "group": "control_change"}, {"time": 2190, "annotation": {"number": 64, "value": 127}, "group": "control_change"}, {"time": 2212, "annotation": {"number": 64, "value": 0}, "group": "control_change"}, {"time": 2214, "annotation": {"number": 64, "value": 127}, "group": "control_change"}, {"time": 2236, "annotation": {"number": 64, "value": 0}, "group": "control_change"}, {"time": 2238, "annotation": {"number": 64, "value": 127}, "group": "control_change"}, {"time": 2260, "annotation": {"number": 64, "value": 0}, "group": "control_change"}, {"time": 2261, "annotation": {"number": 64, "value": 127}, "group": "control_change"}, {"time": 2284, "annotation": {"number": 64, "value": 0}, "group": "control_change"}, {"time": 2285, "annotation": {"number": 64, "value": 127}, "group": "control_change"}, {"time": 2308, "annotation": {"number": 64, "value": 0}, "group": "control_change"}, {"time": 2321, "annotation": {"number": 64, "value": 127}, "group": "control_change"}, {"time": 2322, "annotation": {"number": 64, "value": 0}, "group": "control_change"}, {"time": 2354, "annotation": {"number": 64, "value": 0}, "group": "control_change"}, {"time": 2356, "annotation": {"number": 64, "value": 127}, "group": "control_change"}, {"time": 2380, "annotation": {"number": 64, "value": 0}, "group": "control_change"}, {"time": 2382, "annotation": {"number": 64, "value": 127}, "group": "control_change"}, {"time": 2403, "annotation": {"number": 64, "value": 0}, "group": "control_change"}, {"time": 2406, "annotation": {"number": 64, "value": 127}, "group": "control_change"}, {"time": 2428, "annotation": {"number": 64, "value": 0}, "group": "control_change"}, {"time": 2430, "annotation": {"number": 64, "value": 127}, "group": "control_change"}, {"time": 2451, "annotation": {"number": 64, "value": 0}, "group": "control_change"}, {"time": 2454, "annotation": {"number": 64, "value": 127}, "group": "control_change"}, {"time": 2476, "annotation": {"number": 64, "value": 0}, "group": "control_change"}, {"time": 2478, "annotation": {"number": 64, "value": 127}, "group": "control_change"}, {"time": 2500, "annotation": {"number": 64, "value": 0}, "group": "control_change"}, {"time": 2502, "annotation": {"number": 64, "value": 127}, "group": "control_change"}, {"time": 2547, "annotation": {"number": 64, "value": 0}, "group": "control_change"}, {"time": 2549, "annotation": {"number": 64, "value": 127}, "group": "control_change"}, {"time": 2572, "annotation": {"number": 64, "value": 0}, "group": "control_change"}, {"time": 2573, "annotation": {"number": 64, "value": 127}, "group": "control_change"}, {"time": 2595, "annotation": {"number": 64, "value": 0}, "group": "control_change"}, {"time": 2597, "annotation": {"number": 64, "value": 127}, "group": "control_change"}, {"time": 2619, "annotation": {"number": 64, "value": 0}, "group": "control_change"}, {"time": 2622, "annotation": {"number": 64, "value": 127}, "group": "control_change"}, {"time": 2643, "annotation": {"number": 64, "value": 0}, "group": "control_change"}, {"time": 2646, "annotation": {"number": 64, "value": 127}, "group": "control_change"}, {"time": 2668, "annotation": {"number": 64, "value": 0}, "group": "control_change"}, {"time": 2670, "annotation": {"number": 64, "value": 127}, "group": "control_change"}, {"time": 2692, "annotation": {"number": 64, "value": 0}, "group": "control_change"}, {"time": 2738, "annotation": {"number": 64, "value": 0}, "group": "control_change"}, {"time": 2740, "annotation": {"number": 64, "value": 127}, "group": "control_change"}, {"time": 2764, "annotation": {"number": 64, "value": 0}, "group": "control_change"}, {"time": 2766, "annotation": {"number": 64, "value": 127}, "group": "control_change"}, {"time": 2787, "annotation": {"number": 64, "value": 0}, "group": "control_change"}, {"time": 2790, "annotation": {"number": 64, "value": 127}, "group": "control_change"}, {"time": 2812, "annotation": {"number": 64, "value": 0}, "group": "control_change"}, {"time": 2814, "annotation": {"number": 64, "value": 127}, "group": "control_change"}, {"time": 2835, "annotation": {"number": 64, "value": 0}, "group": "control_change"}, {"time": 2838, "annotation": {"number": 64, "value": 127}, "group": "control_change"}, {"time": 2860, "annotation": {"number": 64, "value": 0}, "group": "control_change"}, {"time": 2862, "annotation": {"number": 64, "value": 127}, "group": "control_change"}, {"time": 2884, "annotation": {"number": 64, "value": 0}, "group": "control_change"}, {"time": 2886, "annotation": {"number": 64, "value": 127}, "group": "control_change"}, {"time": 2931, "annotation": {"number": 64, "value": 0}, "group": "control_change"}, {"time": 2933, "annotation": {"number": 64, "value": 127}, "group": "control_change"}, {"time": 2956, "annotation": {"number": 64, "value": 0}, "group": "control_change"}, {"time": 2957, "annotation": {"number": 64, "value": 127}, "group": "control_change"}, {"time": 2979, "annotation": {"number": 64, "value": 0}, "group": "control_change"}, {"time": 2981, "annotation": {"number": 64, "value": 127}, "group": "control_change"}, {"time": 3003, "annotation": {"number": 64, "value": 0}, "group": "control_change"}, {"time": 3006, "annotation": {"number": 64, "value": 127}, "group": "control_change"}, {"time": 3027, "annotation": {"number": 64, "value": 0}, "group": "control_change"}, {"time": 3030, "annotation": {"number": 64, "value": 127}, "group": "control_change"}, {"time": 3052, "annotation": {"number": 64, "value": 0}, "group": "control_change"}, {"time": 3054, "annotation": {"number": 64, "value": 127}, "group": "control_change"}, {"time": 3099, "annotation": {"number": 64, "value": 0}, "group": "control_change"}, {"time": 3102, "annotation": {"number": 64, "value": 127}, "group": "control_change"}, {"time": 3122, "annotation": {"number": 64, "value": 0}, "group": "control_change"}, {"time": 3126, "annotation": {"number": 64, "value": 127}, "group": "control_change"}, {"time": 3147, "annotation": {"number": 64, "value": 0}, "group": "control_change"}, {"time": 3150, "annotation": {"number": 64, "value": 127}, "group": "control_change"}, {"time": 3171, "annotation": {"number": 64, "value": 0}, "group": "control_change"}, {"time": 3173, "annotation": {"number": 64, "value": 127}, "group": "control_change"}, {"time": 3195, "annotation": {"number": 64, "value": 0}, "group": "control_change"}, {"time": 3198, "annotation": {"number": 64, "value": 127}, "group": "control_change"}, {"time": 3219, "annotation": {"number": 64, "value": 0}, "group": "control_change"}, {"time": 3222, "annotation": {"number": 64, "value": 127}, "group": "control_change"}, {"time": 3244, "annotation": {"number": 64, "value": 0}, "group": "control_change"}, {"time": 3246, "annotation": {"number": 64, "value": 127}, "group": "control_change"}, {"time": 3270, "annotation": {"number": 64, "value": 0}, "group": "control_change"}, {"time": 3292, "annotation": {"number": 64, "value": 127}, "group": "control_change"}, {"time": 3310, "annotation": {"number": 64, "value": 0}, "group": "control_change"}, {"time": 3311, "annotation": {"number": 64, "value": 127}, "group": "control_change"}, {"time": 3318, "annotation": {"number": 64, "value": 0}, "group": "control_change"}]}]}