{"metadata": {"schema_version": "0.2", "title": "None", "source_filename": "762.mid", "source_format": "midi"}, "resolution": 12, "tempos": [{"time": 0, "qpm": 89.98996611877776}], "time_signatures": [{"time": 0, "numerator": 1, "denominator": 4}], "tracks": [{"program": 0, "is_drum": false, "name": "MELODY", "notes": [{"time": 15, "pitch": 58, "duration": 5, "velocity": 117}, {"time": 21, "pitch": 60, "duration": 4, "velocity": 88}, {"time": 27, "pitch": 63, "duration": 3, "velocity": 107}, {"time": 33, "pitch": 65, "duration": 2, "velocity": 100}, {"time": 39, "pitch": 67, "duration": 5, "velocity": 122}, {"time": 48, "pitch": 65, "duration": 6, "velocity": 117}, {"time": 57, "pitch": 63, "duration": 3, "velocity": 122}, {"time": 63, "pitch": 60, "duration": 33, "velocity": 92}, {"time": 111, "pitch": 58, "duration": 4, "velocity": 117}, {"time": 117, "pitch": 60, "duration": 3, "velocity": 102}, {"time": 123, "pitch": 63, "duration": 3, "velocity": 107}, {"time": 129, "pitch": 65, "duration": 3, "velocity": 102}, {"time": 135, "pitch": 67, "duration": 5, "velocity": 127}, {"time": 144, "pitch": 70, "duration": 7, "velocity": 127}, {"time": 153, "pitch": 65, "duration": 22, "velocity": 127}, {"time": 213, "pitch": 65, "duration": 7, "velocity": 117}, {"time": 225, "pitch": 58, "duration": 4, "velocity": 117}, {"time": 231, "pitch": 65, "duration": 2, "velocity": 107}, {"time": 237, "pitch": 65, "duration": 2, "velocity": 112}, {"time": 243, "pitch": 67, "duration": 2, "velocity": 127}, {"time": 249, "pitch": 65, "duration": 2, "velocity": 127}, {"time": 255, "pitch": 63, "duration": 11, "velocity": 127}, {"time": 309, "pitch": 65, "duration": 2, "velocity": 96}, {"time": 315, "pitch": 65, "duration": 3, "velocity": 96}, {"time": 321, "pitch": 65, "duration": 2, "velocity": 96}, {"time": 327, "pitch": 58, "duration": 3, "velocity": 112}, {"time": 333, "pitch": 60, "duration": 4, "velocity": 96}, {"time": 339, "pitch": 63, "duration": 2, "velocity": 100}, {"time": 345, "pitch": 60, "duration": 26, "velocity": 112}, {"time": 405, "pitch": 68, "duration": 7, "velocity": 117}, {"time": 417, "pitch": 68, "duration": 6, "velocity": 122}, {"time": 423, "pitch": 67, "duration": 4, "velocity": 117}, {"time": 429, "pitch": 65, "duration": 3, "velocity": 100}, {"time": 435, "pitch": 63, "duration": 2, "velocity": 96}, {"time": 441, "pitch": 65, "duration": 3, "velocity": 122}, {"time": 447, "pitch": 65, "duration": 25, "velocity": 117}, {"time": 501, "pitch": 68, "duration": 7, "velocity": 122}, {"time": 513, "pitch": 72, "duration": 6, "velocity": 127}, {"time": 519, "pitch": 70, "duration": 2, "velocity": 99}, {"time": 525, "pitch": 68, "duration": 2, "velocity": 102}, {"time": 531, "pitch": 67, "duration": 3, "velocity": 112}, {"time": 537, "pitch": 65, "duration": 19, "velocity": 112}, {"time": 597, "pitch": 65, "duration": 7, "velocity": 127}, {"time": 609, "pitch": 58, "duration": 4, "velocity": 100}, {"time": 615, "pitch": 65, "duration": 2, "velocity": 117}, {"time": 621, "pitch": 65, "duration": 2, "velocity": 107}, {"time": 627, "pitch": 67, "duration": 2, "velocity": 122}, {"time": 633, "pitch": 65, "duration": 1, "velocity": 117}, {"time": 639, "pitch": 63, "duration": 20, "velocity": 127}, {"time": 693, "pitch": 65, "duration": 1, "velocity": 127}, {"time": 699, "pitch": 65, "duration": 2, "velocity": 122}, {"time": 705, "pitch": 65, "duration": 2, "velocity": 122}, {"time": 711, "pitch": 58, "duration": 2, "velocity": 127}, {"time": 717, "pitch": 60, "duration": 4, "velocity": 117}, {"time": 723, "pitch": 63, "duration": 5, "velocity": 102}, {"time": 729, "pitch": 60, "duration": 28, "velocity": 117}, {"time": 789, "pitch": 70, "duration": 2, "velocity": 122}, {"time": 795, "pitch": 70, "duration": 2, "velocity": 117}, {"time": 801, "pitch": 70, "duration": 2, "velocity": 122}, {"time": 807, "pitch": 70, "duration": 2, "velocity": 127}, {"time": 813, "pitch": 70, "duration": 1, "velocity": 112}, {"time": 819, "pitch": 70, "duration": 4, "velocity": 127}, {"time": 825, "pitch": 72, "duration": 2, "velocity": 112}, {"time": 831, "pitch": 72, "duration": 15, "velocity": 127}, {"time": 885, "pitch": 72, "duration": 2, "velocity": 127}, {"time": 891, "pitch": 72, "duration": 2, "velocity": 112}, {"time": 897, "pitch": 72, "duration": 2, "velocity": 122}, {"time": 903, "pitch": 75, "duration": 3, "velocity": 112}, {"time": 909, "pitch": 72, "duration": 2, "velocity": 117}, {"time": 915, "pitch": 72, "duration": 3, "velocity": 122}, {"time": 921, "pitch": 70, "duration": 15, "velocity": 112}, {"time": 981, "pitch": 70, "duration": 1, "velocity": 127}, {"time": 987, "pitch": 70, "duration": 1, "velocity": 127}, {"time": 993, "pitch": 70, "duration": 2, "velocity": 122}, {"time": 999, "pitch": 70, "duration": 1, "velocity": 127}, {"time": 1005, "pitch": 72, "duration": 3, "velocity": 102}, {"time": 1011, "pitch": 75, "duration": 4, "velocity": 127}, {"time": 1017, "pitch": 72, "duration": 20, "velocity": 122}, {"time": 1059, "pitch": 70, "duration": 5, "velocity": 112}, {"time": 1065, "pitch": 72, "duration": 3, "velocity": 102}, {"time": 1071, "pitch": 79, "duration": 20, "velocity": 127}, {"time": 1119, "pitch": 77, "duration": 43, "velocity": 127}, {"time": 1989, "pitch": 68, "duration": 7, "velocity": 117}, {"time": 2001, "pitch": 68, "duration": 6, "velocity": 122}, {"time": 2007, "pitch": 67, "duration": 4, "velocity": 117}, {"time": 2013, "pitch": 65, "duration": 3, "velocity": 100}, {"time": 2019, "pitch": 63, "duration": 2, "velocity": 96}, {"time": 2025, "pitch": 65, "duration": 3, "velocity": 122}, {"time": 2031, "pitch": 65, "duration": 25, "velocity": 117}, {"time": 2085, "pitch": 68, "duration": 7, "velocity": 122}, {"time": 2097, "pitch": 72, "duration": 6, "velocity": 127}, {"time": 2103, "pitch": 70, "duration": 2, "velocity": 99}, {"time": 2109, "pitch": 68, "duration": 2, "velocity": 102}, {"time": 2115, "pitch": 67, "duration": 3, "velocity": 112}, {"time": 2121, "pitch": 65, "duration": 19, "velocity": 112}, {"time": 2181, "pitch": 65, "duration": 7, "velocity": 127}, {"time": 2193, "pitch": 58, "duration": 4, "velocity": 100}, {"time": 2199, "pitch": 65, "duration": 2, "velocity": 117}, {"time": 2205, "pitch": 65, "duration": 2, "velocity": 107}, {"time": 2211, "pitch": 67, "duration": 2, "velocity": 122}, {"time": 2217, "pitch": 65, "duration": 1, "velocity": 117}, {"time": 2223, "pitch": 63, "duration": 20, "velocity": 127}, {"time": 2277, "pitch": 65, "duration": 1, "velocity": 127}, {"time": 2283, "pitch": 65, "duration": 2, "velocity": 122}, {"time": 2289, "pitch": 65, "duration": 2, "velocity": 122}, {"time": 2295, "pitch": 58, "duration": 2, "velocity": 127}, {"time": 2301, "pitch": 60, "duration": 4, "velocity": 117}, {"time": 2307, "pitch": 63, "duration": 5, "velocity": 102}, {"time": 2313, "pitch": 60, "duration": 28, "velocity": 117}, {"time": 2373, "pitch": 68, "duration": 7, "velocity": 117}, {"time": 2385, "pitch": 68, "duration": 6, "velocity": 122}, {"time": 2391, "pitch": 67, "duration": 4, "velocity": 117}, {"time": 2397, "pitch": 65, "duration": 3, "velocity": 100}, {"time": 2403, "pitch": 63, "duration": 2, "velocity": 96}, {"time": 2409, "pitch": 65, "duration": 3, "velocity": 122}, {"time": 2415, "pitch": 65, "duration": 25, "velocity": 117}, {"time": 2469, "pitch": 68, "duration": 7, "velocity": 122}, {"time": 2481, "pitch": 72, "duration": 6, "velocity": 127}, {"time": 2487, "pitch": 70, "duration": 2, "velocity": 99}, {"time": 2493, "pitch": 68, "duration": 2, "velocity": 102}, {"time": 2499, "pitch": 67, "duration": 3, "velocity": 112}, {"time": 2505, "pitch": 65, "duration": 19, "velocity": 112}, {"time": 2565, "pitch": 65, "duration": 7, "velocity": 127}, {"time": 2577, "pitch": 58, "duration": 4, "velocity": 100}, {"time": 2583, "pitch": 65, "duration": 2, "velocity": 117}, {"time": 2589, "pitch": 65, "duration": 2, "velocity": 107}, {"time": 2595, "pitch": 67, "duration": 2, "velocity": 122}, {"time": 2601, "pitch": 65, "duration": 1, "velocity": 117}, {"time": 2607, "pitch": 63, "duration": 20, "velocity": 127}, {"time": 2661, "pitch": 65, "duration": 1, "velocity": 127}, {"time": 2667, "pitch": 65, "duration": 2, "velocity": 122}, {"time": 2673, "pitch": 65, "duration": 2, "velocity": 122}, {"time": 2679, "pitch": 58, "duration": 2, "velocity": 127}, {"time": 2685, "pitch": 60, "duration": 4, "velocity": 117}, {"time": 2691, "pitch": 63, "duration": 5, "velocity": 102}, {"time": 2697, "pitch": 60, "duration": 28, "velocity": 117}, {"time": 2757, "pitch": 70, "duration": 2, "velocity": 122}, {"time": 2763, "pitch": 70, "duration": 2, "velocity": 117}, {"time": 2769, "pitch": 70, "duration": 2, "velocity": 122}, {"time": 2775, "pitch": 70, "duration": 2, "velocity": 127}, {"time": 2781, "pitch": 70, "duration": 1, "velocity": 112}, {"time": 2787, "pitch": 70, "duration": 4, "velocity": 127}, {"time": 2793, "pitch": 72, "duration": 2, "velocity": 112}, {"time": 2799, "pitch": 72, "duration": 15, "velocity": 127}, {"time": 2853, "pitch": 72, "duration": 2, "velocity": 127}, {"time": 2859, "pitch": 72, "duration": 2, "velocity": 112}, {"time": 2865, "pitch": 72, "duration": 2, "velocity": 122}, {"time": 2871, "pitch": 75, "duration": 3, "velocity": 112}, {"time": 2877, "pitch": 72, "duration": 2, "velocity": 117}, {"time": 2883, "pitch": 72, "duration": 3, "velocity": 122}, {"time": 2889, "pitch": 70, "duration": 15, "velocity": 112}, {"time": 2949, "pitch": 70, "duration": 1, "velocity": 127}, {"time": 2955, "pitch": 70, "duration": 1, "velocity": 127}, {"time": 2961, "pitch": 70, "duration": 2, "velocity": 122}, {"time": 2967, "pitch": 70, "duration": 1, "velocity": 127}, {"time": 2973, "pitch": 72, "duration": 3, "velocity": 102}, {"time": 2979, "pitch": 75, "duration": 4, "velocity": 127}, {"time": 2985, "pitch": 72, "duration": 20, "velocity": 122}, {"time": 3027, "pitch": 70, "duration": 5, "velocity": 112}, {"time": 3033, "pitch": 72, "duration": 3, "velocity": 102}, {"time": 3039, "pitch": 79, "duration": 20, "velocity": 127}, {"time": 3087, "pitch": 77, "duration": 43, "velocity": 127}, {"time": 3549, "pitch": 68, "duration": 2, "velocity": 122}, {"time": 3555, "pitch": 68, "duration": 2, "velocity": 117}, {"time": 3561, "pitch": 68, "duration": 3, "velocity": 112}, {"time": 3567, "pitch": 67, "duration": 3, "velocity": 122}, {"time": 3573, "pitch": 65, "duration": 3, "velocity": 97}, {"time": 3579, "pitch": 63, "duration": 3, "velocity": 102}, {"time": 3585, "pitch": 67, "duration": 4, "velocity": 127}, {"time": 3591, "pitch": 65, "duration": 49, "velocity": 117}, {"time": 3645, "pitch": 68, "duration": 3, "velocity": 117}, {"time": 3651, "pitch": 68, "duration": 3, "velocity": 107}, {"time": 3657, "pitch": 72, "duration": 3, "velocity": 127}, {"time": 3663, "pitch": 70, "duration": 4, "velocity": 122}, {"time": 3669, "pitch": 68, "duration": 4, "velocity": 122}, {"time": 3675, "pitch": 67, "duration": 5, "velocity": 112}, {"time": 3681, "pitch": 65, "duration": 27, "velocity": 102}, {"time": 3741, "pitch": 65, "duration": 3, "velocity": 102}, {"time": 3747, "pitch": 65, "duration": 4, "velocity": 100}, {"time": 3753, "pitch": 58, "duration": 4, "velocity": 97}, {"time": 3759, "pitch": 65, "duration": 3, "velocity": 112}, {"time": 3765, "pitch": 65, "duration": 3, "velocity": 107}, {"time": 3771, "pitch": 67, "duration": 3, "velocity": 117}, {"time": 3777, "pitch": 65, "duration": 3, "velocity": 127}, {"time": 3783, "pitch": 63, "duration": 32, "velocity": 122}, {"time": 3837, "pitch": 65, "duration": 2, "velocity": 112}, {"time": 3843, "pitch": 65, "duration": 2, "velocity": 99}, {"time": 3849, "pitch": 65, "duration": 2, "velocity": 122}, {"time": 3855, "pitch": 58, "duration": 3, "velocity": 117}, {"time": 3861, "pitch": 60, "duration": 4, "velocity": 100}, {"time": 3867, "pitch": 63, "duration": 3, "velocity": 112}, {"time": 3873, "pitch": 60, "duration": 25, "velocity": 102}, {"time": 3933, "pitch": 68, "duration": 2, "velocity": 107}, {"time": 3939, "pitch": 68, "duration": 2, "velocity": 102}, {"time": 3945, "pitch": 68, "duration": 3, "velocity": 107}, {"time": 3951, "pitch": 67, "duration": 3, "velocity": 117}, {"time": 3957, "pitch": 65, "duration": 2, "velocity": 107}, {"time": 3963, "pitch": 63, "duration": 3, "velocity": 100}, {"time": 3969, "pitch": 67, "duration": 3, "velocity": 127}, {"time": 3975, "pitch": 65, "duration": 43, "velocity": 112}, {"time": 4029, "pitch": 68, "duration": 3, "velocity": 117}, {"time": 4035, "pitch": 68, "duration": 3, "velocity": 107}, {"time": 4041, "pitch": 72, "duration": 5, "velocity": 127}, {"time": 4047, "pitch": 70, "duration": 3, "velocity": 112}, {"time": 4053, "pitch": 68, "duration": 3, "velocity": 112}, {"time": 4059, "pitch": 67, "duration": 3, "velocity": 112}, {"time": 4065, "pitch": 65, "duration": 46, "velocity": 122}, {"time": 4125, "pitch": 65, "duration": 2, "velocity": 127}, {"time": 4131, "pitch": 65, "duration": 2, "velocity": 107}, {"time": 4137, "pitch": 58, "duration": 4, "velocity": 107}, {"time": 4143, "pitch": 65, "duration": 3, "velocity": 107}, {"time": 4149, "pitch": 65, "duration": 2, "velocity": 112}, {"time": 4155, "pitch": 67, "duration": 3, "velocity": 122}, {"time": 4161, "pitch": 65, "duration": 3, "velocity": 102}, {"time": 4167, "pitch": 63, "duration": 33, "velocity": 112}, {"time": 4221, "pitch": 65, "duration": 3, "velocity": 102}, {"time": 4227, "pitch": 65, "duration": 2, "velocity": 102}, {"time": 4233, "pitch": 65, "duration": 2, "velocity": 107}, {"time": 4239, "pitch": 58, "duration": 3, "velocity": 112}, {"time": 4245, "pitch": 60, "duration": 4, "velocity": 107}, {"time": 4251, "pitch": 63, "duration": 5, "velocity": 122}, {"time": 4257, "pitch": 60, "duration": 24, "velocity": 100}, {"time": 4317, "pitch": 68, "duration": 3, "velocity": 117}, {"time": 4323, "pitch": 68, "duration": 3, "velocity": 122}, {"time": 4329, "pitch": 68, "duration": 3, "velocity": 112}, {"time": 4335, "pitch": 67, "duration": 4, "velocity": 122}, {"time": 4341, "pitch": 65, "duration": 3, "velocity": 117}, {"time": 4347, "pitch": 63, "duration": 5, "velocity": 102}, {"time": 4353, "pitch": 67, "duration": 5, "velocity": 127}, {"time": 4359, "pitch": 65, "duration": 35, "velocity": 122}, {"time": 4413, "pitch": 68, "duration": 3, "velocity": 127}, {"time": 4419, "pitch": 68, "duration": 2, "velocity": 122}, {"time": 4425, "pitch": 72, "duration": 4, "velocity": 127}, {"time": 4431, "pitch": 70, "duration": 3, "velocity": 117}, {"time": 4437, "pitch": 68, "duration": 4, "velocity": 127}, {"time": 4443, "pitch": 67, "duration": 4, "velocity": 127}, {"time": 4449, "pitch": 65, "duration": 29, "velocity": 112}, {"time": 4509, "pitch": 65, "duration": 3, "velocity": 107}, {"time": 4515, "pitch": 65, "duration": 2, "velocity": 102}, {"time": 4521, "pitch": 58, "duration": 3, "velocity": 127}, {"time": 4527, "pitch": 65, "duration": 3, "velocity": 112}, {"time": 4533, "pitch": 65, "duration": 2, "velocity": 112}, {"time": 4539, "pitch": 67, "duration": 3, "velocity": 127}, {"time": 4545, "pitch": 65, "duration": 3, "velocity": 127}, {"time": 4551, "pitch": 63, "duration": 25, "velocity": 122}, {"time": 4605, "pitch": 65, "duration": 4, "velocity": 107}, {"time": 4611, "pitch": 65, "duration": 2, "velocity": 107}, {"time": 4617, "pitch": 65, "duration": 2, "velocity": 112}, {"time": 4623, "pitch": 58, "duration": 4, "velocity": 102}, {"time": 4629, "pitch": 60, "duration": 4, "velocity": 107}, {"time": 4635, "pitch": 63, "duration": 3, "velocity": 107}, {"time": 4641, "pitch": 60, "duration": 31, "velocity": 100}]}, {"program": 0, "is_drum": false, "name": "PIANO", "notes": [{"time": 63, "pitch": 44, "duration": 45, "velocity": 100}, {"time": 69, "pitch": 51, "duration": 26, "velocity": 76}, {"time": 75, "pitch": 60, "duration": 8, "velocity": 97}, {"time": 75, "pitch": 63, "duration": 9, "velocity": 99}, {"time": 75, "pitch": 68, "duration": 8, "velocity": 93}, {"time": 84, "pitch": 60, "duration": 10, "velocity": 95}, {"time": 84, "pitch": 63, "duration": 10, "velocity": 92}, {"time": 84, "pitch": 68, "duration": 10, "velocity": 88}, {"time": 93, "pitch": 56, "duration": 11, "velocity": 102}, {"time": 99, "pitch": 60, "duration": 12, "velocity": 93}, {"time": 99, "pitch": 63, "duration": 12, "velocity": 107}, {"time": 99, "pitch": 68, "duration": 12, "velocity": 93}, {"time": 105, "pitch": 51, "duration": 4, "velocity": 93}, {"time": 111, "pitch": 39, "duration": 41, "velocity": 81}, {"time": 117, "pitch": 46, "duration": 8, "velocity": 89}, {"time": 123, "pitch": 51, "duration": 9, "velocity": 93}, {"time": 123, "pitch": 55, "duration": 8, "velocity": 107}, {"time": 123, "pitch": 58, "duration": 7, "velocity": 74}, {"time": 132, "pitch": 46, "duration": 22, "velocity": 46}, {"time": 132, "pitch": 55, "duration": 7, "velocity": 96}, {"time": 132, "pitch": 58, "duration": 7, "velocity": 90}, {"time": 141, "pitch": 51, "duration": 9, "velocity": 88}, {"time": 147, "pitch": 63, "duration": 13, "velocity": 117}, {"time": 147, "pitch": 67, "duration": 13, "velocity": 117}, {"time": 153, "pitch": 51, "duration": 2, "velocity": 83}, {"time": 159, "pitch": 46, "duration": 45, "velocity": 69}, {"time": 165, "pitch": 53, "duration": 8, "velocity": 102}, {"time": 171, "pitch": 62, "duration": 7, "velocity": 117}, {"time": 171, "pitch": 65, "duration": 7, "velocity": 93}, {"time": 180, "pitch": 58, "duration": 9, "velocity": 89}, {"time": 180, "pitch": 62, "duration": 10, "velocity": 96}, {"time": 180, "pitch": 65, "duration": 10, "velocity": 83}, {"time": 189, "pitch": 53, "duration": 6, "velocity": 85}, {"time": 195, "pitch": 62, "duration": 17, "velocity": 127}, {"time": 195, "pitch": 65, "duration": 18, "velocity": 99}, {"time": 198, "pitch": 53, "duration": 8, "velocity": 90}, {"time": 201, "pitch": 58, "duration": 8, "velocity": 96}, {"time": 207, "pitch": 46, "duration": 27, "velocity": 90}, {"time": 213, "pitch": 53, "duration": 8, "velocity": 89}, {"time": 219, "pitch": 58, "duration": 7, "velocity": 95}, {"time": 219, "pitch": 62, "duration": 7, "velocity": 112}, {"time": 219, "pitch": 65, "duration": 7, "velocity": 89}, {"time": 225, "pitch": 53, "duration": 11, "velocity": 37}, {"time": 228, "pitch": 58, "duration": 9, "velocity": 88}, {"time": 228, "pitch": 62, "duration": 10, "velocity": 88}, {"time": 228, "pitch": 65, "duration": 10, "velocity": 76}, {"time": 237, "pitch": 46, "duration": 15, "velocity": 89}, {"time": 243, "pitch": 62, "duration": 7, "velocity": 127}, {"time": 243, "pitch": 65, "duration": 12, "velocity": 96}, {"time": 246, "pitch": 53, "duration": 8, "velocity": 89}, {"time": 249, "pitch": 58, "duration": 5, "velocity": 107}, {"time": 252, "pitch": 62, "duration": 2, "velocity": 102}, {"time": 255, "pitch": 48, "duration": 44, "velocity": 96}, {"time": 261, "pitch": 55, "duration": 10, "velocity": 102}, {"time": 267, "pitch": 60, "duration": 7, "velocity": 96}, {"time": 267, "pitch": 63, "duration": 7, "velocity": 127}, {"time": 267, "pitch": 67, "duration": 7, "velocity": 112}, {"time": 273, "pitch": 55, "duration": 6, "velocity": 63}, {"time": 276, "pitch": 60, "duration": 9, "velocity": 97}, {"time": 276, "pitch": 63, "duration": 9, "velocity": 100}, {"time": 276, "pitch": 67, "duration": 10, "velocity": 99}, {"time": 285, "pitch": 55, "duration": 6, "velocity": 97}, {"time": 291, "pitch": 63, "duration": 6, "velocity": 127}, {"time": 291, "pitch": 67, "duration": 11, "velocity": 127}, {"time": 294, "pitch": 55, "duration": 3, "velocity": 96}, {"time": 297, "pitch": 60, "duration": 4, "velocity": 127}, {"time": 300, "pitch": 63, "duration": 3, "velocity": 89}, {"time": 303, "pitch": 46, "duration": 42, "velocity": 93}, {"time": 309, "pitch": 53, "duration": 9, "velocity": 107}, {"time": 315, "pitch": 62, "duration": 8, "velocity": 86}, {"time": 321, "pitch": 53, "duration": 7, "velocity": 88}, {"time": 324, "pitch": 58, "duration": 10, "velocity": 85}, {"time": 324, "pitch": 62, "duration": 10, "velocity": 74}, {"time": 324, "pitch": 65, "duration": 10, "velocity": 72}, {"time": 333, "pitch": 53, "duration": 6, "velocity": 95}, {"time": 339, "pitch": 65, "duration": 12, "velocity": 89}, {"time": 342, "pitch": 53, "duration": 2, "velocity": 81}, {"time": 345, "pitch": 58, "duration": 4, "velocity": 93}, {"time": 348, "pitch": 62, "duration": 4, "velocity": 63}, {"time": 351, "pitch": 44, "duration": 39, "velocity": 93}, {"time": 357, "pitch": 51, "duration": 9, "velocity": 78}, {"time": 363, "pitch": 60, "duration": 20, "velocity": 93}, {"time": 363, "pitch": 63, "duration": 20, "velocity": 93}, {"time": 369, "pitch": 51, "duration": 6, "velocity": 73}, {"time": 372, "pitch": 56, "duration": 11, "velocity": 100}, {"time": 381, "pitch": 51, "duration": 7, "velocity": 82}, {"time": 387, "pitch": 60, "duration": 11, "velocity": 92}, {"time": 387, "pitch": 63, "duration": 11, "velocity": 93}, {"time": 393, "pitch": 56, "duration": 5, "velocity": 66}, {"time": 399, "pitch": 41, "duration": 40, "velocity": 88}, {"time": 405, "pitch": 48, "duration": 35, "velocity": 70}, {"time": 411, "pitch": 53, "duration": 13, "velocity": 90}, {"time": 417, "pitch": 60, "duration": 18, "velocity": 78}, {"time": 423, "pitch": 65, "duration": 9, "velocity": 81}, {"time": 423, "pitch": 68, "duration": 9, "velocity": 86}, {"time": 429, "pitch": 53, "duration": 7, "velocity": 93}, {"time": 435, "pitch": 65, "duration": 7, "velocity": 93}, {"time": 435, "pitch": 68, "duration": 13, "velocity": 90}, {"time": 438, "pitch": 53, "duration": 4, "velocity": 90}, {"time": 441, "pitch": 60, "duration": 6, "velocity": 99}, {"time": 444, "pitch": 65, "duration": 3, "velocity": 67}, {"time": 447, "pitch": 46, "duration": 21, "velocity": 86}, {"time": 453, "pitch": 53, "duration": 17, "velocity": 78}, {"time": 459, "pitch": 62, "duration": 19, "velocity": 112}, {"time": 459, "pitch": 65, "duration": 20, "velocity": 86}, {"time": 465, "pitch": 58, "duration": 15, "velocity": 77}, {"time": 471, "pitch": 46, "duration": 19, "velocity": 88}, {"time": 477, "pitch": 53, "duration": 7, "velocity": 107}, {"time": 483, "pitch": 65, "duration": 12, "velocity": 102}, {"time": 486, "pitch": 53, "duration": 2, "velocity": 88}, {"time": 489, "pitch": 62, "duration": 5, "velocity": 117}, {"time": 492, "pitch": 58, "duration": 4, "velocity": 93}, {"time": 495, "pitch": 41, "duration": 36, "velocity": 89}, {"time": 501, "pitch": 48, "duration": 30, "velocity": 78}, {"time": 507, "pitch": 65, "duration": 13, "velocity": 95}, {"time": 513, "pitch": 53, "duration": 9, "velocity": 75}, {"time": 519, "pitch": 68, "duration": 23, "velocity": 95}, {"time": 525, "pitch": 53, "duration": 8, "velocity": 99}, {"time": 531, "pitch": 65, "duration": 12, "velocity": 96}, {"time": 537, "pitch": 60, "duration": 7, "velocity": 92}, {"time": 543, "pitch": 46, "duration": 47, "velocity": 96}, {"time": 549, "pitch": 53, "duration": 8, "velocity": 88}, {"time": 555, "pitch": 65, "duration": 44, "velocity": 107}, {"time": 561, "pitch": 53, "duration": 8, "velocity": 86}, {"time": 567, "pitch": 58, "duration": 2, "velocity": 55}, {"time": 567, "pitch": 62, "duration": 13, "velocity": 107}, {"time": 573, "pitch": 53, "duration": 7, "velocity": 92}, {"time": 579, "pitch": 58, "duration": 19, "velocity": 112}, {"time": 585, "pitch": 53, "duration": 6, "velocity": 92}, {"time": 591, "pitch": 46, "duration": 26, "velocity": 93}, {"time": 597, "pitch": 53, "duration": 9, "velocity": 89}, {"time": 603, "pitch": 65, "duration": 36, "velocity": 96}, {"time": 609, "pitch": 53, "duration": 11, "velocity": 79}, {"time": 615, "pitch": 62, "duration": 13, "velocity": 112}, {"time": 621, "pitch": 46, "duration": 10, "velocity": 86}, {"time": 627, "pitch": 58, "duration": 13, "velocity": 100}, {"time": 633, "pitch": 62, "duration": 5, "velocity": 102}, {"time": 639, "pitch": 48, "duration": 22, "velocity": 92}, {"time": 645, "pitch": 55, "duration": 18, "velocity": 82}, {"time": 651, "pitch": 63, "duration": 19, "velocity": 96}, {"time": 651, "pitch": 67, "duration": 19, "velocity": 107}, {"time": 657, "pitch": 60, "duration": 12, "velocity": 81}, {"time": 663, "pitch": 48, "duration": 15, "velocity": 72}, {"time": 669, "pitch": 55, "duration": 8, "velocity": 96}, {"time": 675, "pitch": 63, "duration": 13, "velocity": 97}, {"time": 675, "pitch": 67, "duration": 13, "velocity": 122}, {"time": 681, "pitch": 60, "duration": 7, "velocity": 88}, {"time": 687, "pitch": 46, "duration": 22, "velocity": 88}, {"time": 693, "pitch": 53, "duration": 17, "velocity": 86}, {"time": 699, "pitch": 62, "duration": 20, "velocity": 107}, {"time": 699, "pitch": 65, "duration": 20, "velocity": 86}, {"time": 708, "pitch": 58, "duration": 10, "velocity": 92}, {"time": 711, "pitch": 46, "duration": 14, "velocity": 89}, {"time": 717, "pitch": 53, "duration": 7, "velocity": 96}, {"time": 723, "pitch": 62, "duration": 12, "velocity": 112}, {"time": 723, "pitch": 65, "duration": 13, "velocity": 89}, {"time": 729, "pitch": 58, "duration": 7, "velocity": 79}, {"time": 735, "pitch": 44, "duration": 21, "velocity": 82}, {"time": 741, "pitch": 51, "duration": 17, "velocity": 99}, {"time": 747, "pitch": 60, "duration": 20, "velocity": 85}, {"time": 747, "pitch": 63, "duration": 20, "velocity": 92}, {"time": 756, "pitch": 56, "duration": 10, "velocity": 81}, {"time": 759, "pitch": 44, "duration": 14, "velocity": 88}, {"time": 765, "pitch": 51, "duration": 7, "velocity": 97}, {"time": 771, "pitch": 60, "duration": 11, "velocity": 92}, {"time": 771, "pitch": 63, "duration": 11, "velocity": 83}, {"time": 777, "pitch": 56, "duration": 7, "velocity": 74}, {"time": 783, "pitch": 39, "duration": 37, "velocity": 68}, {"time": 789, "pitch": 46, "duration": 32, "velocity": 56}, {"time": 795, "pitch": 58, "duration": 7, "velocity": 81}, {"time": 795, "pitch": 63, "duration": 20, "velocity": 96}, {"time": 795, "pitch": 67, "duration": 21, "velocity": 86}, {"time": 804, "pitch": 51, "duration": 7, "velocity": 70}, {"time": 807, "pitch": 58, "duration": 9, "velocity": 97}, {"time": 813, "pitch": 51, "duration": 7, "velocity": 72}, {"time": 819, "pitch": 63, "duration": 12, "velocity": 102}, {"time": 819, "pitch": 67, "duration": 12, "velocity": 107}, {"time": 825, "pitch": 58, "duration": 7, "velocity": 92}, {"time": 831, "pitch": 44, "duration": 21, "velocity": 83}, {"time": 837, "pitch": 51, "duration": 17, "velocity": 82}, {"time": 843, "pitch": 60, "duration": 20, "velocity": 96}, {"time": 843, "pitch": 63, "duration": 20, "velocity": 97}, {"time": 852, "pitch": 56, "duration": 11, "velocity": 95}, {"time": 855, "pitch": 44, "duration": 20, "velocity": 92}, {"time": 861, "pitch": 51, "duration": 17, "velocity": 92}, {"time": 867, "pitch": 60, "duration": 13, "velocity": 97}, {"time": 867, "pitch": 63, "duration": 13, "velocity": 96}, {"time": 873, "pitch": 56, "duration": 7, "velocity": 82}, {"time": 879, "pitch": 44, "duration": 21, "velocity": 93}, {"time": 885, "pitch": 51, "duration": 17, "velocity": 81}, {"time": 891, "pitch": 60, "duration": 20, "velocity": 96}, {"time": 891, "pitch": 63, "duration": 20, "velocity": 95}, {"time": 900, "pitch": 56, "duration": 11, "velocity": 100}, {"time": 903, "pitch": 44, "duration": 14, "velocity": 79}, {"time": 909, "pitch": 51, "duration": 8, "velocity": 99}, {"time": 915, "pitch": 60, "duration": 11, "velocity": 96}, {"time": 915, "pitch": 63, "duration": 11, "velocity": 89}, {"time": 921, "pitch": 56, "duration": 5, "velocity": 89}, {"time": 927, "pitch": 39, "duration": 22, "velocity": 83}, {"time": 933, "pitch": 46, "duration": 18, "velocity": 67}, {"time": 939, "pitch": 51, "duration": 10, "velocity": 85}, {"time": 939, "pitch": 63, "duration": 20, "velocity": 107}, {"time": 939, "pitch": 67, "duration": 20, "velocity": 102}, {"time": 948, "pitch": 58, "duration": 10, "velocity": 93}, {"time": 951, "pitch": 39, "duration": 21, "velocity": 83}, {"time": 957, "pitch": 46, "duration": 18, "velocity": 78}, {"time": 963, "pitch": 51, "duration": 12, "velocity": 83}, {"time": 963, "pitch": 63, "duration": 20, "velocity": 95}, {"time": 963, "pitch": 67, "duration": 20, "velocity": 96}, {"time": 969, "pitch": 58, "duration": 13, "velocity": 93}, {"time": 975, "pitch": 39, "duration": 21, "velocity": 93}, {"time": 981, "pitch": 46, "duration": 17, "velocity": 66}, {"time": 987, "pitch": 51, "duration": 12, "velocity": 92}, {"time": 987, "pitch": 63, "duration": 20, "velocity": 102}, {"time": 987, "pitch": 67, "duration": 20, "velocity": 97}, {"time": 996, "pitch": 58, "duration": 10, "velocity": 97}, {"time": 999, "pitch": 39, "duration": 14, "velocity": 90}, {"time": 1005, "pitch": 46, "duration": 8, "velocity": 58}, {"time": 1011, "pitch": 51, "duration": 4, "velocity": 73}, {"time": 1011, "pitch": 63, "duration": 11, "velocity": 100}, {"time": 1011, "pitch": 67, "duration": 11, "velocity": 107}, {"time": 1017, "pitch": 58, "duration": 6, "velocity": 96}, {"time": 1023, "pitch": 44, "duration": 22, "velocity": 93}, {"time": 1029, "pitch": 51, "duration": 18, "velocity": 89}, {"time": 1035, "pitch": 60, "duration": 19, "velocity": 97}, {"time": 1035, "pitch": 63, "duration": 19, "velocity": 100}, {"time": 1044, "pitch": 56, "duration": 10, "velocity": 96}, {"time": 1047, "pitch": 44, "duration": 14, "velocity": 88}, {"time": 1053, "pitch": 51, "duration": 8, "velocity": 96}, {"time": 1059, "pitch": 60, "duration": 11, "velocity": 107}, {"time": 1059, "pitch": 63, "duration": 11, "velocity": 100}, {"time": 1065, "pitch": 56, "duration": 5, "velocity": 89}, {"time": 1071, "pitch": 39, "duration": 21, "velocity": 93}, {"time": 1077, "pitch": 46, "duration": 17, "velocity": 69}, {"time": 1083, "pitch": 51, "duration": 11, "velocity": 96}, {"time": 1083, "pitch": 63, "duration": 20, "velocity": 97}, {"time": 1083, "pitch": 67, "duration": 20, "velocity": 99}, {"time": 1092, "pitch": 58, "duration": 10, "velocity": 96}, {"time": 1095, "pitch": 39, "duration": 15, "velocity": 96}, {"time": 1101, "pitch": 46, "duration": 8, "velocity": 88}, {"time": 1107, "pitch": 51, "duration": 6, "velocity": 88}, {"time": 1107, "pitch": 63, "duration": 12, "velocity": 117}, {"time": 1107, "pitch": 67, "duration": 12, "velocity": 117}, {"time": 1113, "pitch": 46, "duration": 1, "velocity": 35}, {"time": 1113, "pitch": 58, "duration": 6, "velocity": 97}, {"time": 1119, "pitch": 46, "duration": 44, "velocity": 69}, {"time": 1119, "pitch": 53, "duration": 44, "velocity": 79}, {"time": 1119, "pitch": 58, "duration": 46, "velocity": 107}, {"time": 1119, "pitch": 62, "duration": 46, "velocity": 122}, {"time": 1119, "pitch": 65, "duration": 46, "velocity": 99}, {"time": 1239, "pitch": 44, "duration": 22, "velocity": 93}, {"time": 1245, "pitch": 51, "duration": 16, "velocity": 86}, {"time": 1251, "pitch": 60, "duration": 18, "velocity": 96}, {"time": 1251, "pitch": 63, "duration": 18, "velocity": 92}, {"time": 1260, "pitch": 56, "duration": 9, "velocity": 97}, {"time": 1263, "pitch": 44, "duration": 15, "velocity": 100}, {"time": 1269, "pitch": 51, "duration": 9, "velocity": 97}, {"time": 1275, "pitch": 60, "duration": 13, "velocity": 112}, {"time": 1275, "pitch": 63, "duration": 14, "velocity": 100}, {"time": 1281, "pitch": 56, "duration": 8, "velocity": 97}, {"time": 1287, "pitch": 39, "duration": 22, "velocity": 92}, {"time": 1293, "pitch": 46, "duration": 18, "velocity": 70}, {"time": 1299, "pitch": 51, "duration": 11, "velocity": 93}, {"time": 1299, "pitch": 63, "duration": 19, "velocity": 100}, {"time": 1299, "pitch": 67, "duration": 8, "velocity": 107}, {"time": 1308, "pitch": 58, "duration": 12, "velocity": 107}, {"time": 1311, "pitch": 39, "duration": 16, "velocity": 95}, {"time": 1317, "pitch": 46, "duration": 11, "velocity": 85}, {"time": 1323, "pitch": 51, "duration": 7, "velocity": 79}, {"time": 1323, "pitch": 63, "duration": 14, "velocity": 102}, {"time": 1329, "pitch": 58, "duration": 13, "velocity": 97}, {"time": 1329, "pitch": 67, "duration": 9, "velocity": 33}, {"time": 1335, "pitch": 46, "duration": 22, "velocity": 81}, {"time": 1341, "pitch": 53, "duration": 18, "velocity": 96}, {"time": 1347, "pitch": 65, "duration": 20, "velocity": 99}, {"time": 1356, "pitch": 62, "duration": 10, "velocity": 85}, {"time": 1359, "pitch": 46, "duration": 20, "velocity": 85}, {"time": 1365, "pitch": 53, "duration": 7, "velocity": 97}, {"time": 1371, "pitch": 62, "duration": 19, "velocity": 127}, {"time": 1371, "pitch": 65, "duration": 19, "velocity": 95}, {"time": 1374, "pitch": 53, "duration": 8, "velocity": 65}, {"time": 1377, "pitch": 58, "duration": 12, "velocity": 99}, {"time": 1383, "pitch": 46, "duration": 22, "velocity": 93}, {"time": 1389, "pitch": 53, "duration": 17, "velocity": 93}, {"time": 1395, "pitch": 62, "duration": 21, "velocity": 122}, {"time": 1395, "pitch": 65, "duration": 21, "velocity": 89}, {"time": 1404, "pitch": 58, "duration": 12, "velocity": 93}, {"time": 1407, "pitch": 46, "duration": 14, "velocity": 82}, {"time": 1413, "pitch": 53, "duration": 9, "velocity": 96}, {"time": 1419, "pitch": 62, "duration": 11, "velocity": 127}, {"time": 1419, "pitch": 65, "duration": 11, "velocity": 95}, {"time": 1425, "pitch": 58, "duration": 6, "velocity": 95}, {"time": 1431, "pitch": 48, "duration": 22, "velocity": 83}, {"time": 1437, "pitch": 55, "duration": 17, "velocity": 97}, {"time": 1443, "pitch": 63, "duration": 20, "velocity": 96}, {"time": 1443, "pitch": 67, "duration": 19, "velocity": 107}, {"time": 1452, "pitch": 60, "duration": 11, "velocity": 96}, {"time": 1455, "pitch": 48, "duration": 20, "velocity": 95}, {"time": 1461, "pitch": 55, "duration": 8, "velocity": 107}, {"time": 1467, "pitch": 67, "duration": 12, "velocity": 127}, {"time": 1473, "pitch": 63, "duration": 7, "velocity": 90}, {"time": 1476, "pitch": 60, "duration": 5, "velocity": 95}, {"time": 1479, "pitch": 46, "duration": 22, "velocity": 89}, {"time": 1485, "pitch": 53, "duration": 17, "velocity": 88}, {"time": 1491, "pitch": 62, "duration": 19, "velocity": 97}, {"time": 1491, "pitch": 65, "duration": 19, "velocity": 95}, {"time": 1500, "pitch": 58, "duration": 11, "velocity": 99}, {"time": 1503, "pitch": 46, "duration": 16, "velocity": 82}, {"time": 1509, "pitch": 53, "duration": 9, "velocity": 102}, {"time": 1515, "pitch": 65, "duration": 13, "velocity": 107}, {"time": 1521, "pitch": 62, "duration": 7, "velocity": 93}, {"time": 1527, "pitch": 44, "duration": 22, "velocity": 89}, {"time": 1533, "pitch": 51, "duration": 17, "velocity": 88}, {"time": 1539, "pitch": 63, "duration": 20, "velocity": 102}, {"time": 1548, "pitch": 60, "duration": 11, "velocity": 96}, {"time": 1551, "pitch": 44, "duration": 18, "velocity": 99}, {"time": 1557, "pitch": 51, "duration": 17, "velocity": 97}, {"time": 1563, "pitch": 63, "duration": 10, "velocity": 112}, {"time": 1569, "pitch": 60, "duration": 4, "velocity": 100}, {"time": 1575, "pitch": 44, "duration": 10, "velocity": 82}, {"time": 1575, "pitch": 56, "duration": 10, "velocity": 100}, {"time": 1575, "pitch": 60, "duration": 11, "velocity": 92}, {"time": 1575, "pitch": 63, "duration": 11, "velocity": 92}, {"time": 1647, "pitch": 44, "duration": 23, "velocity": 90}, {"time": 1653, "pitch": 51, "duration": 17, "velocity": 88}, {"time": 1659, "pitch": 63, "duration": 37, "velocity": 97}, {"time": 1668, "pitch": 56, "duration": 10, "velocity": 99}, {"time": 1671, "pitch": 44, "duration": 14, "velocity": 83}, {"time": 1677, "pitch": 51, "duration": 8, "velocity": 99}, {"time": 1683, "pitch": 60, "duration": 12, "velocity": 95}, {"time": 1689, "pitch": 56, "duration": 7, "velocity": 82}, {"time": 1695, "pitch": 39, "duration": 22, "velocity": 78}, {"time": 1701, "pitch": 46, "duration": 18, "velocity": 59}, {"time": 1707, "pitch": 51, "duration": 11, "velocity": 75}, {"time": 1707, "pitch": 63, "duration": 21, "velocity": 92}, {"time": 1707, "pitch": 67, "duration": 21, "velocity": 107}, {"time": 1716, "pitch": 58, "duration": 12, "velocity": 97}, {"time": 1719, "pitch": 39, "duration": 19, "velocity": 93}, {"time": 1725, "pitch": 46, "duration": 14, "velocity": 67}, {"time": 1731, "pitch": 51, "duration": 8, "velocity": 69}, {"time": 1731, "pitch": 63, "duration": 12, "velocity": 93}, {"time": 1731, "pitch": 67, "duration": 12, "velocity": 97}, {"time": 1737, "pitch": 58, "duration": 6, "velocity": 90}, {"time": 1743, "pitch": 46, "duration": 22, "velocity": 95}, {"time": 1749, "pitch": 53, "duration": 18, "velocity": 77}, {"time": 1755, "pitch": 65, "duration": 20, "velocity": 95}, {"time": 1764, "pitch": 62, "duration": 10, "velocity": 97}, {"time": 1767, "pitch": 46, "duration": 20, "velocity": 88}, {"time": 1773, "pitch": 53, "duration": 17, "velocity": 92}, {"time": 1779, "pitch": 62, "duration": 17, "velocity": 127}, {"time": 1779, "pitch": 65, "duration": 18, "velocity": 95}, {"time": 1785, "pitch": 58, "duration": 8, "velocity": 97}, {"time": 1791, "pitch": 46, "duration": 22, "velocity": 89}, {"time": 1797, "pitch": 53, "duration": 17, "velocity": 83}, {"time": 1803, "pitch": 65, "duration": 21, "velocity": 99}, {"time": 1812, "pitch": 62, "duration": 12, "velocity": 88}, {"time": 1815, "pitch": 46, "duration": 18, "velocity": 89}, {"time": 1821, "pitch": 53, "duration": 16, "velocity": 95}, {"time": 1827, "pitch": 62, "duration": 12, "velocity": 102}, {"time": 1827, "pitch": 65, "duration": 13, "velocity": 89}, {"time": 1833, "pitch": 58, "duration": 7, "velocity": 99}, {"time": 1839, "pitch": 48, "duration": 22, "velocity": 86}, {"time": 1845, "pitch": 55, "duration": 17, "velocity": 92}, {"time": 1851, "pitch": 63, "duration": 19, "velocity": 100}, {"time": 1851, "pitch": 67, "duration": 20, "velocity": 107}, {"time": 1860, "pitch": 60, "duration": 10, "velocity": 96}, {"time": 1863, "pitch": 48, "duration": 14, "velocity": 93}, {"time": 1869, "pitch": 55, "duration": 7, "velocity": 96}, {"time": 1875, "pitch": 63, "duration": 12, "velocity": 95}, {"time": 1875, "pitch": 67, "duration": 12, "velocity": 97}, {"time": 1881, "pitch": 60, "duration": 6, "velocity": 92}, {"time": 1887, "pitch": 46, "duration": 22, "velocity": 93}, {"time": 1893, "pitch": 53, "duration": 17, "velocity": 90}, {"time": 1899, "pitch": 62, "duration": 21, "velocity": 96}, {"time": 1899, "pitch": 65, "duration": 20, "velocity": 93}, {"time": 1908, "pitch": 58, "duration": 11, "velocity": 95}, {"time": 1911, "pitch": 46, "duration": 14, "velocity": 96}, {"time": 1917, "pitch": 53, "duration": 8, "velocity": 95}, {"time": 1923, "pitch": 62, "duration": 11, "velocity": 117}, {"time": 1923, "pitch": 65, "duration": 11, "velocity": 89}, {"time": 1929, "pitch": 58, "duration": 5, "velocity": 92}, {"time": 1935, "pitch": 44, "duration": 22, "velocity": 90}, {"time": 1941, "pitch": 51, "duration": 17, "velocity": 93}, {"time": 1947, "pitch": 60, "duration": 19, "velocity": 96}, {"time": 1947, "pitch": 63, "duration": 19, "velocity": 97}, {"time": 1956, "pitch": 56, "duration": 10, "velocity": 99}, {"time": 1959, "pitch": 44, "duration": 22, "velocity": 86}, {"time": 1965, "pitch": 51, "duration": 11, "velocity": 96}, {"time": 1971, "pitch": 60, "duration": 12, "velocity": 102}, {"time": 1971, "pitch": 63, "duration": 12, "velocity": 95}, {"time": 1977, "pitch": 56, "duration": 6, "velocity": 93}, {"time": 1983, "pitch": 41, "duration": 40, "velocity": 88}, {"time": 1989, "pitch": 48, "duration": 35, "velocity": 70}, {"time": 1995, "pitch": 53, "duration": 13, "velocity": 90}, {"time": 2001, "pitch": 60, "duration": 18, "velocity": 78}, {"time": 2007, "pitch": 65, "duration": 9, "velocity": 81}, {"time": 2007, "pitch": 68, "duration": 9, "velocity": 86}, {"time": 2013, "pitch": 53, "duration": 7, "velocity": 93}, {"time": 2019, "pitch": 65, "duration": 7, "velocity": 93}, {"time": 2019, "pitch": 68, "duration": 13, "velocity": 90}, {"time": 2022, "pitch": 53, "duration": 4, "velocity": 90}, {"time": 2025, "pitch": 60, "duration": 6, "velocity": 99}, {"time": 2028, "pitch": 65, "duration": 3, "velocity": 67}, {"time": 2031, "pitch": 46, "duration": 21, "velocity": 86}, {"time": 2037, "pitch": 53, "duration": 17, "velocity": 78}, {"time": 2043, "pitch": 62, "duration": 19, "velocity": 112}, {"time": 2043, "pitch": 65, "duration": 20, "velocity": 86}, {"time": 2049, "pitch": 58, "duration": 15, "velocity": 77}, {"time": 2055, "pitch": 46, "duration": 19, "velocity": 88}, {"time": 2061, "pitch": 53, "duration": 7, "velocity": 107}, {"time": 2067, "pitch": 65, "duration": 12, "velocity": 102}, {"time": 2070, "pitch": 53, "duration": 2, "velocity": 88}, {"time": 2073, "pitch": 62, "duration": 5, "velocity": 117}, {"time": 2076, "pitch": 58, "duration": 4, "velocity": 93}, {"time": 2079, "pitch": 41, "duration": 36, "velocity": 89}, {"time": 2085, "pitch": 48, "duration": 30, "velocity": 78}, {"time": 2091, "pitch": 65, "duration": 13, "velocity": 95}, {"time": 2097, "pitch": 53, "duration": 9, "velocity": 75}, {"time": 2103, "pitch": 68, "duration": 23, "velocity": 95}, {"time": 2109, "pitch": 53, "duration": 8, "velocity": 99}, {"time": 2115, "pitch": 65, "duration": 12, "velocity": 96}, {"time": 2121, "pitch": 60, "duration": 7, "velocity": 92}, {"time": 2127, "pitch": 46, "duration": 47, "velocity": 96}, {"time": 2133, "pitch": 53, "duration": 8, "velocity": 88}, {"time": 2139, "pitch": 65, "duration": 44, "velocity": 107}, {"time": 2145, "pitch": 53, "duration": 8, "velocity": 86}, {"time": 2151, "pitch": 58, "duration": 2, "velocity": 55}, {"time": 2151, "pitch": 62, "duration": 13, "velocity": 107}, {"time": 2157, "pitch": 53, "duration": 7, "velocity": 92}, {"time": 2163, "pitch": 58, "duration": 19, "velocity": 112}, {"time": 2169, "pitch": 53, "duration": 6, "velocity": 92}, {"time": 2175, "pitch": 46, "duration": 26, "velocity": 93}, {"time": 2181, "pitch": 53, "duration": 9, "velocity": 89}, {"time": 2187, "pitch": 65, "duration": 36, "velocity": 96}, {"time": 2193, "pitch": 53, "duration": 11, "velocity": 79}, {"time": 2199, "pitch": 62, "duration": 13, "velocity": 112}, {"time": 2205, "pitch": 46, "duration": 10, "velocity": 86}, {"time": 2211, "pitch": 58, "duration": 13, "velocity": 100}, {"time": 2217, "pitch": 62, "duration": 5, "velocity": 102}, {"time": 2223, "pitch": 48, "duration": 22, "velocity": 92}, {"time": 2229, "pitch": 55, "duration": 18, "velocity": 82}, {"time": 2235, "pitch": 63, "duration": 19, "velocity": 96}, {"time": 2235, "pitch": 67, "duration": 19, "velocity": 107}, {"time": 2241, "pitch": 60, "duration": 12, "velocity": 81}, {"time": 2247, "pitch": 48, "duration": 15, "velocity": 72}, {"time": 2253, "pitch": 55, "duration": 8, "velocity": 96}, {"time": 2259, "pitch": 63, "duration": 13, "velocity": 97}, {"time": 2259, "pitch": 67, "duration": 13, "velocity": 122}, {"time": 2265, "pitch": 60, "duration": 7, "velocity": 88}, {"time": 2271, "pitch": 46, "duration": 22, "velocity": 88}, {"time": 2277, "pitch": 53, "duration": 17, "velocity": 86}, {"time": 2283, "pitch": 62, "duration": 20, "velocity": 107}, {"time": 2283, "pitch": 65, "duration": 20, "velocity": 86}, {"time": 2292, "pitch": 58, "duration": 10, "velocity": 92}, {"time": 2295, "pitch": 46, "duration": 14, "velocity": 89}, {"time": 2301, "pitch": 53, "duration": 7, "velocity": 96}, {"time": 2307, "pitch": 62, "duration": 12, "velocity": 112}, {"time": 2307, "pitch": 65, "duration": 13, "velocity": 89}, {"time": 2313, "pitch": 58, "duration": 7, "velocity": 79}, {"time": 2319, "pitch": 44, "duration": 21, "velocity": 82}, {"time": 2325, "pitch": 51, "duration": 17, "velocity": 99}, {"time": 2331, "pitch": 60, "duration": 20, "velocity": 85}, {"time": 2331, "pitch": 63, "duration": 20, "velocity": 92}, {"time": 2340, "pitch": 56, "duration": 10, "velocity": 81}, {"time": 2343, "pitch": 44, "duration": 14, "velocity": 88}, {"time": 2349, "pitch": 51, "duration": 7, "velocity": 97}, {"time": 2355, "pitch": 60, "duration": 11, "velocity": 92}, {"time": 2355, "pitch": 63, "duration": 11, "velocity": 83}, {"time": 2361, "pitch": 56, "duration": 6, "velocity": 74}, {"time": 2367, "pitch": 41, "duration": 40, "velocity": 88}, {"time": 2373, "pitch": 48, "duration": 35, "velocity": 70}, {"time": 2379, "pitch": 53, "duration": 13, "velocity": 90}, {"time": 2385, "pitch": 60, "duration": 18, "velocity": 78}, {"time": 2391, "pitch": 65, "duration": 9, "velocity": 81}, {"time": 2391, "pitch": 68, "duration": 9, "velocity": 86}, {"time": 2397, "pitch": 53, "duration": 7, "velocity": 93}, {"time": 2403, "pitch": 65, "duration": 7, "velocity": 93}, {"time": 2403, "pitch": 68, "duration": 13, "velocity": 90}, {"time": 2406, "pitch": 53, "duration": 4, "velocity": 90}, {"time": 2409, "pitch": 60, "duration": 6, "velocity": 99}, {"time": 2412, "pitch": 65, "duration": 3, "velocity": 67}, {"time": 2415, "pitch": 46, "duration": 21, "velocity": 86}, {"time": 2421, "pitch": 53, "duration": 17, "velocity": 78}, {"time": 2427, "pitch": 62, "duration": 19, "velocity": 112}, {"time": 2427, "pitch": 65, "duration": 20, "velocity": 86}, {"time": 2433, "pitch": 58, "duration": 15, "velocity": 77}, {"time": 2439, "pitch": 46, "duration": 19, "velocity": 88}, {"time": 2445, "pitch": 53, "duration": 7, "velocity": 107}, {"time": 2451, "pitch": 65, "duration": 12, "velocity": 102}, {"time": 2454, "pitch": 53, "duration": 2, "velocity": 88}, {"time": 2457, "pitch": 62, "duration": 5, "velocity": 117}, {"time": 2460, "pitch": 58, "duration": 4, "velocity": 93}, {"time": 2463, "pitch": 41, "duration": 36, "velocity": 89}, {"time": 2469, "pitch": 48, "duration": 30, "velocity": 78}, {"time": 2475, "pitch": 65, "duration": 13, "velocity": 95}, {"time": 2481, "pitch": 53, "duration": 9, "velocity": 75}, {"time": 2487, "pitch": 68, "duration": 23, "velocity": 95}, {"time": 2493, "pitch": 53, "duration": 8, "velocity": 99}, {"time": 2499, "pitch": 65, "duration": 12, "velocity": 96}, {"time": 2505, "pitch": 60, "duration": 7, "velocity": 92}, {"time": 2511, "pitch": 46, "duration": 47, "velocity": 96}, {"time": 2517, "pitch": 53, "duration": 8, "velocity": 88}, {"time": 2523, "pitch": 65, "duration": 44, "velocity": 107}, {"time": 2529, "pitch": 53, "duration": 8, "velocity": 86}, {"time": 2535, "pitch": 58, "duration": 2, "velocity": 55}, {"time": 2535, "pitch": 62, "duration": 13, "velocity": 107}, {"time": 2541, "pitch": 53, "duration": 7, "velocity": 92}, {"time": 2547, "pitch": 58, "duration": 19, "velocity": 112}, {"time": 2553, "pitch": 53, "duration": 6, "velocity": 92}, {"time": 2559, "pitch": 46, "duration": 26, "velocity": 93}, {"time": 2565, "pitch": 53, "duration": 9, "velocity": 89}, {"time": 2571, "pitch": 65, "duration": 36, "velocity": 96}, {"time": 2577, "pitch": 53, "duration": 11, "velocity": 79}, {"time": 2583, "pitch": 62, "duration": 13, "velocity": 112}, {"time": 2589, "pitch": 46, "duration": 10, "velocity": 86}, {"time": 2595, "pitch": 58, "duration": 13, "velocity": 100}, {"time": 2601, "pitch": 62, "duration": 5, "velocity": 102}, {"time": 2607, "pitch": 48, "duration": 22, "velocity": 92}, {"time": 2613, "pitch": 55, "duration": 18, "velocity": 82}, {"time": 2619, "pitch": 63, "duration": 19, "velocity": 96}, {"time": 2619, "pitch": 67, "duration": 19, "velocity": 107}, {"time": 2625, "pitch": 60, "duration": 12, "velocity": 81}, {"time": 2631, "pitch": 48, "duration": 15, "velocity": 72}, {"time": 2637, "pitch": 55, "duration": 8, "velocity": 96}, {"time": 2643, "pitch": 63, "duration": 13, "velocity": 97}, {"time": 2643, "pitch": 67, "duration": 13, "velocity": 122}, {"time": 2649, "pitch": 60, "duration": 7, "velocity": 88}, {"time": 2655, "pitch": 46, "duration": 22, "velocity": 88}, {"time": 2661, "pitch": 53, "duration": 17, "velocity": 86}, {"time": 2667, "pitch": 62, "duration": 20, "velocity": 107}, {"time": 2667, "pitch": 65, "duration": 20, "velocity": 86}, {"time": 2676, "pitch": 58, "duration": 10, "velocity": 92}, {"time": 2679, "pitch": 46, "duration": 14, "velocity": 89}, {"time": 2685, "pitch": 53, "duration": 7, "velocity": 96}, {"time": 2691, "pitch": 62, "duration": 12, "velocity": 112}, {"time": 2691, "pitch": 65, "duration": 13, "velocity": 89}, {"time": 2697, "pitch": 58, "duration": 7, "velocity": 79}, {"time": 2703, "pitch": 44, "duration": 21, "velocity": 82}, {"time": 2709, "pitch": 51, "duration": 17, "velocity": 99}, {"time": 2715, "pitch": 60, "duration": 20, "velocity": 85}, {"time": 2715, "pitch": 63, "duration": 20, "velocity": 92}, {"time": 2724, "pitch": 56, "duration": 10, "velocity": 81}, {"time": 2727, "pitch": 44, "duration": 14, "velocity": 88}, {"time": 2733, "pitch": 51, "duration": 7, "velocity": 97}, {"time": 2739, "pitch": 60, "duration": 11, "velocity": 92}, {"time": 2739, "pitch": 63, "duration": 11, "velocity": 83}, {"time": 2745, "pitch": 56, "duration": 7, "velocity": 74}, {"time": 2751, "pitch": 39, "duration": 37, "velocity": 68}, {"time": 2757, "pitch": 46, "duration": 32, "velocity": 56}, {"time": 2763, "pitch": 58, "duration": 7, "velocity": 81}, {"time": 2763, "pitch": 63, "duration": 20, "velocity": 96}, {"time": 2763, "pitch": 67, "duration": 21, "velocity": 86}, {"time": 2772, "pitch": 51, "duration": 7, "velocity": 70}, {"time": 2775, "pitch": 58, "duration": 9, "velocity": 97}, {"time": 2781, "pitch": 51, "duration": 7, "velocity": 72}, {"time": 2787, "pitch": 63, "duration": 12, "velocity": 102}, {"time": 2787, "pitch": 67, "duration": 12, "velocity": 107}, {"time": 2793, "pitch": 58, "duration": 7, "velocity": 92}, {"time": 2799, "pitch": 44, "duration": 21, "velocity": 83}, {"time": 2805, "pitch": 51, "duration": 17, "velocity": 82}, {"time": 2811, "pitch": 60, "duration": 20, "velocity": 96}, {"time": 2811, "pitch": 63, "duration": 20, "velocity": 97}, {"time": 2820, "pitch": 56, "duration": 11, "velocity": 95}, {"time": 2823, "pitch": 44, "duration": 20, "velocity": 92}, {"time": 2829, "pitch": 51, "duration": 17, "velocity": 92}, {"time": 2835, "pitch": 60, "duration": 13, "velocity": 97}, {"time": 2835, "pitch": 63, "duration": 13, "velocity": 96}, {"time": 2841, "pitch": 56, "duration": 7, "velocity": 82}, {"time": 2847, "pitch": 44, "duration": 21, "velocity": 93}, {"time": 2853, "pitch": 51, "duration": 17, "velocity": 81}, {"time": 2859, "pitch": 60, "duration": 20, "velocity": 96}, {"time": 2859, "pitch": 63, "duration": 20, "velocity": 95}, {"time": 2868, "pitch": 56, "duration": 11, "velocity": 100}, {"time": 2871, "pitch": 44, "duration": 14, "velocity": 79}, {"time": 2877, "pitch": 51, "duration": 8, "velocity": 99}, {"time": 2883, "pitch": 60, "duration": 11, "velocity": 96}, {"time": 2883, "pitch": 63, "duration": 11, "velocity": 89}, {"time": 2889, "pitch": 56, "duration": 5, "velocity": 89}, {"time": 2895, "pitch": 39, "duration": 22, "velocity": 83}, {"time": 2901, "pitch": 46, "duration": 18, "velocity": 67}, {"time": 2907, "pitch": 51, "duration": 10, "velocity": 85}, {"time": 2907, "pitch": 63, "duration": 20, "velocity": 107}, {"time": 2907, "pitch": 67, "duration": 20, "velocity": 102}, {"time": 2916, "pitch": 58, "duration": 10, "velocity": 93}, {"time": 2919, "pitch": 39, "duration": 21, "velocity": 83}, {"time": 2925, "pitch": 46, "duration": 18, "velocity": 78}, {"time": 2931, "pitch": 51, "duration": 12, "velocity": 83}, {"time": 2931, "pitch": 63, "duration": 20, "velocity": 95}, {"time": 2931, "pitch": 67, "duration": 20, "velocity": 96}, {"time": 2937, "pitch": 58, "duration": 13, "velocity": 93}, {"time": 2943, "pitch": 39, "duration": 21, "velocity": 93}, {"time": 2949, "pitch": 46, "duration": 17, "velocity": 66}, {"time": 2955, "pitch": 51, "duration": 12, "velocity": 92}, {"time": 2955, "pitch": 63, "duration": 20, "velocity": 102}, {"time": 2955, "pitch": 67, "duration": 20, "velocity": 97}, {"time": 2964, "pitch": 58, "duration": 10, "velocity": 97}, {"time": 2967, "pitch": 39, "duration": 14, "velocity": 90}, {"time": 2973, "pitch": 46, "duration": 8, "velocity": 58}, {"time": 2979, "pitch": 51, "duration": 4, "velocity": 73}, {"time": 2979, "pitch": 63, "duration": 11, "velocity": 100}, {"time": 2979, "pitch": 67, "duration": 11, "velocity": 107}, {"time": 2985, "pitch": 58, "duration": 6, "velocity": 96}, {"time": 2991, "pitch": 44, "duration": 22, "velocity": 93}, {"time": 2997, "pitch": 51, "duration": 18, "velocity": 89}, {"time": 3003, "pitch": 60, "duration": 19, "velocity": 97}, {"time": 3003, "pitch": 63, "duration": 19, "velocity": 100}, {"time": 3012, "pitch": 56, "duration": 10, "velocity": 96}, {"time": 3015, "pitch": 44, "duration": 14, "velocity": 88}, {"time": 3021, "pitch": 51, "duration": 8, "velocity": 96}, {"time": 3027, "pitch": 60, "duration": 11, "velocity": 107}, {"time": 3027, "pitch": 63, "duration": 11, "velocity": 100}, {"time": 3033, "pitch": 56, "duration": 5, "velocity": 89}, {"time": 3039, "pitch": 39, "duration": 21, "velocity": 93}, {"time": 3045, "pitch": 46, "duration": 17, "velocity": 69}, {"time": 3051, "pitch": 51, "duration": 11, "velocity": 96}, {"time": 3051, "pitch": 63, "duration": 20, "velocity": 97}, {"time": 3051, "pitch": 67, "duration": 20, "velocity": 99}, {"time": 3060, "pitch": 58, "duration": 10, "velocity": 96}, {"time": 3063, "pitch": 39, "duration": 15, "velocity": 96}, {"time": 3069, "pitch": 46, "duration": 8, "velocity": 88}, {"time": 3075, "pitch": 51, "duration": 6, "velocity": 88}, {"time": 3075, "pitch": 63, "duration": 12, "velocity": 117}, {"time": 3075, "pitch": 67, "duration": 12, "velocity": 117}, {"time": 3081, "pitch": 46, "duration": 1, "velocity": 35}, {"time": 3081, "pitch": 58, "duration": 6, "velocity": 97}, {"time": 3087, "pitch": 46, "duration": 86, "velocity": 70}, {"time": 3087, "pitch": 53, "duration": 86, "velocity": 81}, {"time": 3087, "pitch": 58, "duration": 85, "velocity": 102}, {"time": 3087, "pitch": 62, "duration": 85, "velocity": 107}, {"time": 3087, "pitch": 65, "duration": 86, "velocity": 97}, {"time": 3207, "pitch": 44, "duration": 22, "velocity": 93}, {"time": 3213, "pitch": 51, "duration": 16, "velocity": 86}, {"time": 3219, "pitch": 60, "duration": 18, "velocity": 96}, {"time": 3219, "pitch": 63, "duration": 18, "velocity": 92}, {"time": 3228, "pitch": 56, "duration": 9, "velocity": 97}, {"time": 3231, "pitch": 44, "duration": 15, "velocity": 100}, {"time": 3237, "pitch": 51, "duration": 9, "velocity": 97}, {"time": 3243, "pitch": 60, "duration": 13, "velocity": 112}, {"time": 3243, "pitch": 63, "duration": 14, "velocity": 100}, {"time": 3249, "pitch": 56, "duration": 8, "velocity": 97}, {"time": 3255, "pitch": 39, "duration": 22, "velocity": 92}, {"time": 3261, "pitch": 46, "duration": 18, "velocity": 70}, {"time": 3267, "pitch": 51, "duration": 11, "velocity": 93}, {"time": 3267, "pitch": 63, "duration": 19, "velocity": 100}, {"time": 3267, "pitch": 67, "duration": 8, "velocity": 107}, {"time": 3276, "pitch": 58, "duration": 12, "velocity": 107}, {"time": 3279, "pitch": 39, "duration": 16, "velocity": 95}, {"time": 3285, "pitch": 46, "duration": 11, "velocity": 85}, {"time": 3291, "pitch": 51, "duration": 7, "velocity": 79}, {"time": 3291, "pitch": 63, "duration": 14, "velocity": 102}, {"time": 3297, "pitch": 58, "duration": 13, "velocity": 97}, {"time": 3297, "pitch": 67, "duration": 9, "velocity": 33}, {"time": 3303, "pitch": 46, "duration": 22, "velocity": 81}, {"time": 3309, "pitch": 53, "duration": 18, "velocity": 96}, {"time": 3315, "pitch": 65, "duration": 20, "velocity": 99}, {"time": 3324, "pitch": 62, "duration": 10, "velocity": 85}, {"time": 3327, "pitch": 46, "duration": 20, "velocity": 85}, {"time": 3333, "pitch": 53, "duration": 7, "velocity": 97}, {"time": 3339, "pitch": 62, "duration": 19, "velocity": 127}, {"time": 3339, "pitch": 65, "duration": 19, "velocity": 95}, {"time": 3342, "pitch": 53, "duration": 8, "velocity": 65}, {"time": 3345, "pitch": 58, "duration": 12, "velocity": 99}, {"time": 3351, "pitch": 46, "duration": 22, "velocity": 93}, {"time": 3357, "pitch": 53, "duration": 17, "velocity": 93}, {"time": 3363, "pitch": 62, "duration": 21, "velocity": 122}, {"time": 3363, "pitch": 65, "duration": 21, "velocity": 89}, {"time": 3372, "pitch": 58, "duration": 12, "velocity": 93}, {"time": 3375, "pitch": 46, "duration": 14, "velocity": 82}, {"time": 3381, "pitch": 53, "duration": 9, "velocity": 96}, {"time": 3387, "pitch": 62, "duration": 11, "velocity": 127}, {"time": 3387, "pitch": 65, "duration": 11, "velocity": 95}, {"time": 3393, "pitch": 58, "duration": 6, "velocity": 95}, {"time": 3399, "pitch": 48, "duration": 22, "velocity": 83}, {"time": 3405, "pitch": 55, "duration": 17, "velocity": 97}, {"time": 3411, "pitch": 63, "duration": 20, "velocity": 96}, {"time": 3411, "pitch": 67, "duration": 19, "velocity": 107}, {"time": 3420, "pitch": 60, "duration": 11, "velocity": 96}, {"time": 3423, "pitch": 48, "duration": 20, "velocity": 95}, {"time": 3429, "pitch": 55, "duration": 8, "velocity": 107}, {"time": 3435, "pitch": 67, "duration": 12, "velocity": 127}, {"time": 3441, "pitch": 63, "duration": 7, "velocity": 90}, {"time": 3444, "pitch": 60, "duration": 5, "velocity": 95}, {"time": 3447, "pitch": 46, "duration": 22, "velocity": 89}, {"time": 3453, "pitch": 53, "duration": 17, "velocity": 88}, {"time": 3459, "pitch": 62, "duration": 19, "velocity": 97}, {"time": 3459, "pitch": 65, "duration": 19, "velocity": 95}, {"time": 3468, "pitch": 58, "duration": 11, "velocity": 99}, {"time": 3471, "pitch": 46, "duration": 16, "velocity": 82}, {"time": 3477, "pitch": 53, "duration": 9, "velocity": 102}, {"time": 3483, "pitch": 65, "duration": 13, "velocity": 107}, {"time": 3489, "pitch": 62, "duration": 7, "velocity": 93}, {"time": 3495, "pitch": 44, "duration": 22, "velocity": 89}, {"time": 3501, "pitch": 51, "duration": 17, "velocity": 88}, {"time": 3507, "pitch": 63, "duration": 20, "velocity": 102}, {"time": 3516, "pitch": 60, "duration": 11, "velocity": 96}, {"time": 3519, "pitch": 44, "duration": 18, "velocity": 99}, {"time": 3525, "pitch": 51, "duration": 17, "velocity": 97}, {"time": 3531, "pitch": 63, "duration": 10, "velocity": 112}, {"time": 3537, "pitch": 60, "duration": 4, "velocity": 100}, {"time": 3543, "pitch": 41, "duration": 40, "velocity": 88}, {"time": 3549, "pitch": 48, "duration": 35, "velocity": 70}, {"time": 3555, "pitch": 53, "duration": 13, "velocity": 90}, {"time": 3561, "pitch": 60, "duration": 18, "velocity": 78}, {"time": 3567, "pitch": 65, "duration": 9, "velocity": 81}, {"time": 3567, "pitch": 68, "duration": 9, "velocity": 86}, {"time": 3573, "pitch": 53, "duration": 7, "velocity": 93}, {"time": 3579, "pitch": 65, "duration": 7, "velocity": 93}, {"time": 3579, "pitch": 68, "duration": 13, "velocity": 90}, {"time": 3582, "pitch": 53, "duration": 4, "velocity": 90}, {"time": 3585, "pitch": 60, "duration": 6, "velocity": 99}, {"time": 3588, "pitch": 65, "duration": 3, "velocity": 67}, {"time": 3591, "pitch": 46, "duration": 21, "velocity": 86}, {"time": 3597, "pitch": 53, "duration": 17, "velocity": 78}, {"time": 3603, "pitch": 62, "duration": 19, "velocity": 112}, {"time": 3603, "pitch": 65, "duration": 20, "velocity": 86}, {"time": 3609, "pitch": 58, "duration": 15, "velocity": 77}, {"time": 3615, "pitch": 46, "duration": 19, "velocity": 88}, {"time": 3621, "pitch": 53, "duration": 7, "velocity": 107}, {"time": 3627, "pitch": 65, "duration": 12, "velocity": 102}, {"time": 3630, "pitch": 53, "duration": 2, "velocity": 88}, {"time": 3633, "pitch": 62, "duration": 5, "velocity": 117}, {"time": 3636, "pitch": 58, "duration": 4, "velocity": 93}, {"time": 3639, "pitch": 41, "duration": 36, "velocity": 89}, {"time": 3645, "pitch": 48, "duration": 30, "velocity": 78}, {"time": 3651, "pitch": 65, "duration": 13, "velocity": 95}, {"time": 3657, "pitch": 53, "duration": 9, "velocity": 75}, {"time": 3663, "pitch": 68, "duration": 23, "velocity": 95}, {"time": 3669, "pitch": 53, "duration": 8, "velocity": 99}, {"time": 3675, "pitch": 65, "duration": 12, "velocity": 96}, {"time": 3681, "pitch": 60, "duration": 7, "velocity": 92}, {"time": 3687, "pitch": 46, "duration": 47, "velocity": 96}, {"time": 3693, "pitch": 53, "duration": 8, "velocity": 88}, {"time": 3699, "pitch": 65, "duration": 44, "velocity": 107}, {"time": 3705, "pitch": 53, "duration": 8, "velocity": 86}, {"time": 3711, "pitch": 58, "duration": 2, "velocity": 55}, {"time": 3711, "pitch": 62, "duration": 13, "velocity": 107}, {"time": 3717, "pitch": 53, "duration": 7, "velocity": 92}, {"time": 3723, "pitch": 58, "duration": 19, "velocity": 112}, {"time": 3729, "pitch": 53, "duration": 6, "velocity": 92}, {"time": 3735, "pitch": 46, "duration": 26, "velocity": 93}, {"time": 3741, "pitch": 53, "duration": 9, "velocity": 89}, {"time": 3747, "pitch": 65, "duration": 36, "velocity": 96}, {"time": 3753, "pitch": 53, "duration": 11, "velocity": 79}, {"time": 3759, "pitch": 62, "duration": 13, "velocity": 112}, {"time": 3765, "pitch": 46, "duration": 10, "velocity": 86}, {"time": 3771, "pitch": 58, "duration": 13, "velocity": 100}, {"time": 3777, "pitch": 62, "duration": 5, "velocity": 102}, {"time": 3783, "pitch": 48, "duration": 22, "velocity": 92}, {"time": 3789, "pitch": 55, "duration": 18, "velocity": 82}, {"time": 3795, "pitch": 63, "duration": 19, "velocity": 96}, {"time": 3795, "pitch": 67, "duration": 19, "velocity": 107}, {"time": 3801, "pitch": 60, "duration": 12, "velocity": 81}, {"time": 3807, "pitch": 48, "duration": 15, "velocity": 72}, {"time": 3813, "pitch": 55, "duration": 8, "velocity": 96}, {"time": 3819, "pitch": 63, "duration": 13, "velocity": 97}, {"time": 3819, "pitch": 67, "duration": 13, "velocity": 122}, {"time": 3825, "pitch": 60, "duration": 7, "velocity": 88}, {"time": 3831, "pitch": 46, "duration": 22, "velocity": 88}, {"time": 3837, "pitch": 53, "duration": 17, "velocity": 86}, {"time": 3843, "pitch": 62, "duration": 20, "velocity": 107}, {"time": 3843, "pitch": 65, "duration": 20, "velocity": 86}, {"time": 3852, "pitch": 58, "duration": 10, "velocity": 92}, {"time": 3855, "pitch": 46, "duration": 14, "velocity": 89}, {"time": 3861, "pitch": 53, "duration": 7, "velocity": 96}, {"time": 3867, "pitch": 62, "duration": 12, "velocity": 112}, {"time": 3867, "pitch": 65, "duration": 12, "velocity": 89}, {"time": 3873, "pitch": 58, "duration": 6, "velocity": 79}, {"time": 3879, "pitch": 44, "duration": 23, "velocity": 92}, {"time": 3885, "pitch": 51, "duration": 18, "velocity": 63}, {"time": 3891, "pitch": 63, "duration": 8, "velocity": 95}, {"time": 3891, "pitch": 68, "duration": 8, "velocity": 95}, {"time": 3891, "pitch": 72, "duration": 8, "velocity": 83}, {"time": 3900, "pitch": 63, "duration": 1, "velocity": 88}, {"time": 3900, "pitch": 68, "duration": 11, "velocity": 85}, {"time": 3900, "pitch": 72, "duration": 2, "velocity": 59}, {"time": 3903, "pitch": 44, "duration": 17, "velocity": 75}, {"time": 3909, "pitch": 51, "duration": 12, "velocity": 82}, {"time": 3915, "pitch": 68, "duration": 11, "velocity": 102}, {"time": 3915, "pitch": 72, "duration": 11, "velocity": 99}, {"time": 3921, "pitch": 63, "duration": 5, "velocity": 95}, {"time": 3927, "pitch": 41, "duration": 40, "velocity": 88}, {"time": 3933, "pitch": 48, "duration": 35, "velocity": 70}, {"time": 3939, "pitch": 53, "duration": 13, "velocity": 90}, {"time": 3945, "pitch": 60, "duration": 18, "velocity": 78}, {"time": 3951, "pitch": 65, "duration": 9, "velocity": 81}, {"time": 3951, "pitch": 68, "duration": 9, "velocity": 86}, {"time": 3957, "pitch": 53, "duration": 7, "velocity": 93}, {"time": 3963, "pitch": 65, "duration": 7, "velocity": 93}, {"time": 3963, "pitch": 68, "duration": 13, "velocity": 90}, {"time": 3966, "pitch": 53, "duration": 4, "velocity": 90}, {"time": 3969, "pitch": 60, "duration": 6, "velocity": 99}, {"time": 3972, "pitch": 65, "duration": 3, "velocity": 67}, {"time": 3975, "pitch": 46, "duration": 21, "velocity": 86}, {"time": 3981, "pitch": 53, "duration": 17, "velocity": 78}, {"time": 3987, "pitch": 62, "duration": 19, "velocity": 112}, {"time": 3987, "pitch": 65, "duration": 20, "velocity": 86}, {"time": 3993, "pitch": 58, "duration": 15, "velocity": 77}, {"time": 3999, "pitch": 46, "duration": 19, "velocity": 88}, {"time": 4005, "pitch": 53, "duration": 7, "velocity": 107}, {"time": 4011, "pitch": 65, "duration": 12, "velocity": 102}, {"time": 4014, "pitch": 53, "duration": 2, "velocity": 88}, {"time": 4017, "pitch": 62, "duration": 5, "velocity": 117}, {"time": 4020, "pitch": 58, "duration": 4, "velocity": 93}, {"time": 4023, "pitch": 41, "duration": 36, "velocity": 89}, {"time": 4029, "pitch": 48, "duration": 30, "velocity": 78}, {"time": 4035, "pitch": 65, "duration": 13, "velocity": 95}, {"time": 4041, "pitch": 53, "duration": 9, "velocity": 75}, {"time": 4047, "pitch": 68, "duration": 23, "velocity": 95}, {"time": 4053, "pitch": 53, "duration": 8, "velocity": 99}, {"time": 4059, "pitch": 65, "duration": 12, "velocity": 96}, {"time": 4065, "pitch": 60, "duration": 7, "velocity": 92}, {"time": 4071, "pitch": 46, "duration": 47, "velocity": 96}, {"time": 4077, "pitch": 53, "duration": 8, "velocity": 88}, {"time": 4083, "pitch": 65, "duration": 44, "velocity": 107}, {"time": 4089, "pitch": 53, "duration": 8, "velocity": 86}, {"time": 4095, "pitch": 58, "duration": 2, "velocity": 55}, {"time": 4095, "pitch": 62, "duration": 13, "velocity": 107}, {"time": 4101, "pitch": 53, "duration": 7, "velocity": 92}, {"time": 4107, "pitch": 58, "duration": 19, "velocity": 112}, {"time": 4113, "pitch": 53, "duration": 6, "velocity": 92}, {"time": 4119, "pitch": 46, "duration": 26, "velocity": 93}, {"time": 4125, "pitch": 53, "duration": 9, "velocity": 89}, {"time": 4131, "pitch": 65, "duration": 36, "velocity": 96}, {"time": 4137, "pitch": 53, "duration": 11, "velocity": 79}, {"time": 4143, "pitch": 62, "duration": 13, "velocity": 112}, {"time": 4149, "pitch": 46, "duration": 10, "velocity": 86}, {"time": 4155, "pitch": 58, "duration": 13, "velocity": 100}, {"time": 4161, "pitch": 62, "duration": 5, "velocity": 102}, {"time": 4167, "pitch": 48, "duration": 22, "velocity": 92}, {"time": 4173, "pitch": 55, "duration": 18, "velocity": 82}, {"time": 4179, "pitch": 63, "duration": 19, "velocity": 96}, {"time": 4179, "pitch": 67, "duration": 19, "velocity": 107}, {"time": 4185, "pitch": 60, "duration": 12, "velocity": 81}, {"time": 4191, "pitch": 48, "duration": 15, "velocity": 72}, {"time": 4197, "pitch": 55, "duration": 8, "velocity": 96}, {"time": 4203, "pitch": 63, "duration": 12, "velocity": 97}, {"time": 4203, "pitch": 67, "duration": 12, "velocity": 122}, {"time": 4209, "pitch": 60, "duration": 6, "velocity": 88}, {"time": 4215, "pitch": 46, "duration": 22, "velocity": 107}, {"time": 4221, "pitch": 53, "duration": 17, "velocity": 93}, {"time": 4227, "pitch": 65, "duration": 20, "velocity": 112}, {"time": 4236, "pitch": 62, "duration": 10, "velocity": 93}, {"time": 4239, "pitch": 46, "duration": 18, "velocity": 92}, {"time": 4245, "pitch": 53, "duration": 11, "velocity": 96}, {"time": 4251, "pitch": 62, "duration": 10, "velocity": 122}, {"time": 4251, "pitch": 65, "duration": 10, "velocity": 96}, {"time": 4257, "pitch": 58, "duration": 4, "velocity": 97}, {"time": 4263, "pitch": 44, "duration": 23, "velocity": 92}, {"time": 4269, "pitch": 51, "duration": 18, "velocity": 63}, {"time": 4275, "pitch": 63, "duration": 8, "velocity": 95}, {"time": 4275, "pitch": 68, "duration": 8, "velocity": 95}, {"time": 4275, "pitch": 72, "duration": 8, "velocity": 83}, {"time": 4284, "pitch": 63, "duration": 1, "velocity": 88}, {"time": 4284, "pitch": 68, "duration": 11, "velocity": 85}, {"time": 4284, "pitch": 72, "duration": 2, "velocity": 59}, {"time": 4287, "pitch": 44, "duration": 17, "velocity": 75}, {"time": 4293, "pitch": 51, "duration": 12, "velocity": 82}, {"time": 4299, "pitch": 68, "duration": 11, "velocity": 102}, {"time": 4299, "pitch": 72, "duration": 11, "velocity": 99}, {"time": 4305, "pitch": 63, "duration": 5, "velocity": 95}, {"time": 4311, "pitch": 41, "duration": 40, "velocity": 88}, {"time": 4317, "pitch": 48, "duration": 35, "velocity": 70}, {"time": 4323, "pitch": 53, "duration": 13, "velocity": 90}, {"time": 4329, "pitch": 60, "duration": 18, "velocity": 78}, {"time": 4335, "pitch": 65, "duration": 9, "velocity": 81}, {"time": 4335, "pitch": 68, "duration": 9, "velocity": 86}, {"time": 4341, "pitch": 53, "duration": 7, "velocity": 93}, {"time": 4347, "pitch": 65, "duration": 7, "velocity": 93}, {"time": 4347, "pitch": 68, "duration": 13, "velocity": 90}, {"time": 4350, "pitch": 53, "duration": 4, "velocity": 90}, {"time": 4353, "pitch": 60, "duration": 6, "velocity": 99}, {"time": 4356, "pitch": 65, "duration": 3, "velocity": 67}, {"time": 4359, "pitch": 46, "duration": 21, "velocity": 86}, {"time": 4365, "pitch": 53, "duration": 17, "velocity": 78}, {"time": 4371, "pitch": 62, "duration": 19, "velocity": 112}, {"time": 4371, "pitch": 65, "duration": 20, "velocity": 86}, {"time": 4377, "pitch": 58, "duration": 15, "velocity": 77}, {"time": 4383, "pitch": 46, "duration": 19, "velocity": 88}, {"time": 4389, "pitch": 53, "duration": 7, "velocity": 107}, {"time": 4395, "pitch": 65, "duration": 12, "velocity": 102}, {"time": 4398, "pitch": 53, "duration": 2, "velocity": 88}, {"time": 4401, "pitch": 62, "duration": 5, "velocity": 117}, {"time": 4404, "pitch": 58, "duration": 4, "velocity": 93}, {"time": 4407, "pitch": 41, "duration": 36, "velocity": 89}, {"time": 4413, "pitch": 48, "duration": 30, "velocity": 78}, {"time": 4419, "pitch": 65, "duration": 13, "velocity": 95}, {"time": 4425, "pitch": 53, "duration": 9, "velocity": 75}, {"time": 4431, "pitch": 68, "duration": 23, "velocity": 95}, {"time": 4437, "pitch": 53, "duration": 8, "velocity": 99}, {"time": 4443, "pitch": 65, "duration": 12, "velocity": 96}, {"time": 4449, "pitch": 60, "duration": 7, "velocity": 92}, {"time": 4455, "pitch": 46, "duration": 47, "velocity": 96}, {"time": 4461, "pitch": 53, "duration": 8, "velocity": 88}, {"time": 4467, "pitch": 65, "duration": 44, "velocity": 107}, {"time": 4473, "pitch": 53, "duration": 8, "velocity": 86}, {"time": 4479, "pitch": 58, "duration": 2, "velocity": 55}, {"time": 4479, "pitch": 62, "duration": 13, "velocity": 107}, {"time": 4485, "pitch": 53, "duration": 7, "velocity": 92}, {"time": 4491, "pitch": 58, "duration": 19, "velocity": 112}, {"time": 4497, "pitch": 53, "duration": 6, "velocity": 92}, {"time": 4503, "pitch": 46, "duration": 26, "velocity": 93}, {"time": 4509, "pitch": 53, "duration": 9, "velocity": 89}, {"time": 4515, "pitch": 65, "duration": 36, "velocity": 96}, {"time": 4521, "pitch": 53, "duration": 11, "velocity": 79}, {"time": 4527, "pitch": 62, "duration": 13, "velocity": 112}, {"time": 4533, "pitch": 46, "duration": 10, "velocity": 86}, {"time": 4539, "pitch": 58, "duration": 13, "velocity": 100}, {"time": 4545, "pitch": 62, "duration": 5, "velocity": 102}, {"time": 4551, "pitch": 48, "duration": 22, "velocity": 92}, {"time": 4557, "pitch": 55, "duration": 18, "velocity": 82}, {"time": 4563, "pitch": 63, "duration": 19, "velocity": 96}, {"time": 4563, "pitch": 67, "duration": 19, "velocity": 107}, {"time": 4569, "pitch": 60, "duration": 12, "velocity": 81}, {"time": 4575, "pitch": 48, "duration": 15, "velocity": 72}, {"time": 4581, "pitch": 55, "duration": 8, "velocity": 96}, {"time": 4587, "pitch": 63, "duration": 12, "velocity": 97}, {"time": 4587, "pitch": 67, "duration": 12, "velocity": 122}, {"time": 4593, "pitch": 60, "duration": 6, "velocity": 88}, {"time": 4599, "pitch": 46, "duration": 22, "velocity": 107}, {"time": 4605, "pitch": 53, "duration": 17, "velocity": 93}, {"time": 4611, "pitch": 65, "duration": 20, "velocity": 112}, {"time": 4620, "pitch": 62, "duration": 10, "velocity": 93}, {"time": 4623, "pitch": 46, "duration": 18, "velocity": 92}, {"time": 4629, "pitch": 53, "duration": 11, "velocity": 96}, {"time": 4635, "pitch": 62, "duration": 10, "velocity": 122}, {"time": 4635, "pitch": 65, "duration": 10, "velocity": 96}, {"time": 4641, "pitch": 58, "duration": 4, "velocity": 97}, {"time": 4647, "pitch": 44, "duration": 105, "velocity": 65}, {"time": 4647, "pitch": 51, "duration": 104, "velocity": 69}, {"time": 4647, "pitch": 56, "duration": 104, "velocity": 99}, {"time": 4647, "pitch": 63, "duration": 104, "velocity": 99}, {"time": 4647, "pitch": 68, "duration": 104, "velocity": 99}, {"time": 4647, "pitch": 72, "duration": 104, "velocity": 95}], "annotations": [{"time": 63, "annotation": {"number": 64, "value": 127}, "group": "control_change"}, {"time": 110, "annotation": {"number": 64, "value": 0}, "group": "control_change"}, {"time": 111, "annotation": {"number": 64, "value": 127}, "group": "control_change"}, {"time": 157, "annotation": {"number": 64, "value": 0}, "group": "control_change"}, {"time": 159, "annotation": {"number": 64, "value": 127}, "group": "control_change"}, {"time": 204, "annotation": {"number": 64, "value": 0}, "group": "control_change"}, {"time": 206, "annotation": {"number": 64, "value": 127}, "group": "control_change"}, {"time": 252, "annotation": {"number": 64, "value": 0}, "group": "control_change"}, {"time": 254, "annotation": {"number": 64, "value": 127}, "group": "control_change"}, {"time": 300, "annotation": {"number": 64, "value": 0}, "group": "control_change"}, {"time": 302, "annotation": {"number": 64, "value": 127}, "group": "control_change"}, {"time": 348, "annotation": {"number": 64, "value": 0}, "group": "control_change"}, {"time": 350, "annotation": {"number": 64, "value": 127}, "group": "control_change"}, {"time": 396, "annotation": {"number": 64, "value": 0}, "group": "control_change"}, {"time": 399, "annotation": {"number": 64, "value": 127}, "group": "control_change"}, {"time": 444, "annotation": {"number": 64, "value": 0}, "group": "control_change"}, {"time": 446, "annotation": {"number": 64, "value": 127}, "group": "control_change"}, {"time": 592, "annotation": {"number": 64, "value": 0}, "group": "control_change"}, {"time": 595, "annotation": {"number": 64, "value": 127}, "group": "control_change"}, {"time": 637, "annotation": {"number": 64, "value": 0}, "group": "control_change"}, {"time": 639, "annotation": {"number": 64, "value": 127}, "group": "control_change"}, {"time": 995, "annotation": {"number": 64, "value": 0}, "group": "control_change"}, {"time": 999, "annotation": {"number": 64, "value": 127}, "group": "control_change"}, {"time": 1045, "annotation": {"number": 64, "value": 0}, "group": "control_change"}, {"time": 1047, "annotation": {"number": 64, "value": 127}, "group": "control_change"}, {"time": 1080, "annotation": {"number": 64, "value": 0}, "group": "control_change"}, {"time": 1082, "annotation": {"number": 64, "value": 127}, "group": "control_change"}, {"time": 1116, "annotation": {"number": 64, "value": 0}, "group": "control_change"}, {"time": 1118, "annotation": {"number": 64, "value": 127}, "group": "control_change"}, {"time": 1124, "annotation": {"number": 64, "value": 127}, "group": "control_change"}, {"time": 1128, "annotation": {"number": 64, "value": 0}, "group": "control_change"}, {"time": 1239, "annotation": {"number": 64, "value": 127}, "group": "control_change"}, {"time": 1260, "annotation": {"number": 64, "value": 0}, "group": "control_change"}, {"time": 1263, "annotation": {"number": 64, "value": 127}, "group": "control_change"}, {"time": 1285, "annotation": {"number": 64, "value": 0}, "group": "control_change"}, {"time": 1287, "annotation": {"number": 64, "value": 127}, "group": "control_change"}, {"time": 1309, "annotation": {"number": 64, "value": 0}, "group": "control_change"}, {"time": 1311, "annotation": {"number": 64, "value": 127}, "group": "control_change"}, {"time": 1333, "annotation": {"number": 64, "value": 0}, "group": "control_change"}, {"time": 1335, "annotation": {"number": 64, "value": 127}, "group": "control_change"}, {"time": 1358, "annotation": {"number": 64, "value": 0}, "group": "control_change"}, {"time": 1360, "annotation": {"number": 64, "value": 127}, "group": "control_change"}, {"time": 1429, "annotation": {"number": 64, "value": 0}, "group": "control_change"}, {"time": 1431, "annotation": {"number": 64, "value": 127}, "group": "control_change"}, {"time": 1499, "annotation": {"number": 64, "value": 0}, "group": "control_change"}, {"time": 1502, "annotation": {"number": 64, "value": 127}, "group": "control_change"}, {"time": 1524, "annotation": {"number": 64, "value": 0}, "group": "control_change"}, {"time": 1527, "annotation": {"number": 64, "value": 127}, "group": "control_change"}, {"time": 1572, "annotation": {"number": 64, "value": 0}, "group": "control_change"}, {"time": 1647, "annotation": {"number": 64, "value": 127}, "group": "control_change"}, {"time": 1692, "annotation": {"number": 64, "value": 0}, "group": "control_change"}, {"time": 1695, "annotation": {"number": 64, "value": 127}, "group": "control_change"}, {"time": 1741, "annotation": {"number": 64, "value": 0}, "group": "control_change"}, {"time": 1743, "annotation": {"number": 64, "value": 127}, "group": "control_change"}, {"time": 1788, "annotation": {"number": 64, "value": 0}, "group": "control_change"}, {"time": 1790, "annotation": {"number": 64, "value": 127}, "group": "control_change"}, {"time": 1884, "annotation": {"number": 64, "value": 0}, "group": "control_change"}, {"time": 1886, "annotation": {"number": 64, "value": 127}, "group": "control_change"}, {"time": 1932, "annotation": {"number": 64, "value": 0}, "group": "control_change"}, {"time": 1934, "annotation": {"number": 64, "value": 127}, "group": "control_change"}, {"time": 1955, "annotation": {"number": 64, "value": 0}, "group": "control_change"}, {"time": 1959, "annotation": {"number": 64, "value": 127}, "group": "control_change"}, {"time": 1978, "annotation": {"number": 64, "value": 0}, "group": "control_change"}, {"time": 1983, "annotation": {"number": 64, "value": 127}, "group": "control_change"}, {"time": 2028, "annotation": {"number": 64, "value": 0}, "group": "control_change"}, {"time": 2030, "annotation": {"number": 64, "value": 127}, "group": "control_change"}, {"time": 2176, "annotation": {"number": 64, "value": 0}, "group": "control_change"}, {"time": 2179, "annotation": {"number": 64, "value": 127}, "group": "control_change"}, {"time": 2221, "annotation": {"number": 64, "value": 0}, "group": "control_change"}, {"time": 2223, "annotation": {"number": 64, "value": 127}, "group": "control_change"}, {"time": 2367, "annotation": {"number": 64, "value": 127}, "group": "control_change"}, {"time": 2412, "annotation": {"number": 64, "value": 0}, "group": "control_change"}, {"time": 2414, "annotation": {"number": 64, "value": 127}, "group": "control_change"}, {"time": 2560, "annotation": {"number": 64, "value": 0}, "group": "control_change"}, {"time": 2563, "annotation": {"number": 64, "value": 127}, "group": "control_change"}, {"time": 2605, "annotation": {"number": 64, "value": 0}, "group": "control_change"}, {"time": 2607, "annotation": {"number": 64, "value": 127}, "group": "control_change"}, {"time": 2963, "annotation": {"number": 64, "value": 0}, "group": "control_change"}, {"time": 2967, "annotation": {"number": 64, "value": 127}, "group": "control_change"}, {"time": 3013, "annotation": {"number": 64, "value": 0}, "group": "control_change"}, {"time": 3015, "annotation": {"number": 64, "value": 127}, "group": "control_change"}, {"time": 3048, "annotation": {"number": 64, "value": 0}, "group": "control_change"}, {"time": 3050, "annotation": {"number": 64, "value": 127}, "group": "control_change"}, {"time": 3080, "annotation": {"number": 64, "value": 127}, "group": "control_change"}, {"time": 3084, "annotation": {"number": 64, "value": 0}, "group": "control_change"}, {"time": 3086, "annotation": {"number": 64, "value": 127}, "group": "control_change"}, {"time": 3203, "annotation": {"number": 64, "value": 127}, "group": "control_change"}, {"time": 3204, "annotation": {"number": 64, "value": 0}, "group": "control_change"}, {"time": 3207, "annotation": {"number": 64, "value": 127}, "group": "control_change"}, {"time": 3228, "annotation": {"number": 64, "value": 0}, "group": "control_change"}, {"time": 3231, "annotation": {"number": 64, "value": 127}, "group": "control_change"}, {"time": 3253, "annotation": {"number": 64, "value": 0}, "group": "control_change"}, {"time": 3255, "annotation": {"number": 64, "value": 127}, "group": "control_change"}, {"time": 3277, "annotation": {"number": 64, "value": 0}, "group": "control_change"}, {"time": 3279, "annotation": {"number": 64, "value": 127}, "group": "control_change"}, {"time": 3301, "annotation": {"number": 64, "value": 0}, "group": "control_change"}, {"time": 3303, "annotation": {"number": 64, "value": 127}, "group": "control_change"}, {"time": 3326, "annotation": {"number": 64, "value": 0}, "group": "control_change"}, {"time": 3328, "annotation": {"number": 64, "value": 127}, "group": "control_change"}, {"time": 3397, "annotation": {"number": 64, "value": 0}, "group": "control_change"}, {"time": 3399, "annotation": {"number": 64, "value": 127}, "group": "control_change"}, {"time": 3467, "annotation": {"number": 64, "value": 0}, "group": "control_change"}, {"time": 3470, "annotation": {"number": 64, "value": 127}, "group": "control_change"}, {"time": 3492, "annotation": {"number": 64, "value": 0}, "group": "control_change"}, {"time": 3495, "annotation": {"number": 64, "value": 127}, "group": "control_change"}, {"time": 3540, "annotation": {"number": 64, "value": 0}, "group": "control_change"}, {"time": 3543, "annotation": {"number": 64, "value": 127}, "group": "control_change"}, {"time": 3588, "annotation": {"number": 64, "value": 0}, "group": "control_change"}, {"time": 3590, "annotation": {"number": 64, "value": 127}, "group": "control_change"}, {"time": 3736, "annotation": {"number": 64, "value": 0}, "group": "control_change"}, {"time": 3739, "annotation": {"number": 64, "value": 127}, "group": "control_change"}, {"time": 3781, "annotation": {"number": 64, "value": 0}, "group": "control_change"}, {"time": 3783, "annotation": {"number": 64, "value": 127}, "group": "control_change"}, {"time": 3903, "annotation": {"number": 64, "value": 127}, "group": "control_change"}, {"time": 3924, "annotation": {"number": 64, "value": 0}, "group": "control_change"}, {"time": 3927, "annotation": {"number": 64, "value": 127}, "group": "control_change"}, {"time": 3972, "annotation": {"number": 64, "value": 0}, "group": "control_change"}, {"time": 3974, "annotation": {"number": 64, "value": 127}, "group": "control_change"}, {"time": 4120, "annotation": {"number": 64, "value": 0}, "group": "control_change"}, {"time": 4123, "annotation": {"number": 64, "value": 127}, "group": "control_change"}, {"time": 4165, "annotation": {"number": 64, "value": 0}, "group": "control_change"}, {"time": 4167, "annotation": {"number": 64, "value": 127}, "group": "control_change"}, {"time": 4215, "annotation": {"number": 64, "value": 127}, "group": "control_change"}, {"time": 4225, "annotation": {"number": 64, "value": 0}, "group": "control_change"}, {"time": 4239, "annotation": {"number": 64, "value": 127}, "group": "control_change"}, {"time": 4242, "annotation": {"number": 64, "value": 0}, "group": "control_change"}, {"time": 4287, "annotation": {"number": 64, "value": 127}, "group": "control_change"}, {"time": 4308, "annotation": {"number": 64, "value": 0}, "group": "control_change"}, {"time": 4311, "annotation": {"number": 64, "value": 127}, "group": "control_change"}, {"time": 4356, "annotation": {"number": 64, "value": 0}, "group": "control_change"}, {"time": 4358, "annotation": {"number": 64, "value": 127}, "group": "control_change"}, {"time": 4504, "annotation": {"number": 64, "value": 0}, "group": "control_change"}, {"time": 4507, "annotation": {"number": 64, "value": 127}, "group": "control_change"}, {"time": 4549, "annotation": {"number": 64, "value": 0}, "group": "control_change"}, {"time": 4551, "annotation": {"number": 64, "value": 127}, "group": "control_change"}, {"time": 4599, "annotation": {"number": 64, "value": 127}, "group": "control_change"}, {"time": 4609, "annotation": {"number": 64, "value": 0}, "group": "control_change"}, {"time": 4623, "annotation": {"number": 64, "value": 127}, "group": "control_change"}, {"time": 4626, "annotation": {"number": 64, "value": 0}, "group": "control_change"}, {"time": 4700, "annotation": {"number": 64, "value": 127}, "group": "control_change"}, {"time": 4789, "annotation": {"number": 64, "value": 0}, "group": "control_change"}, {"time": 4790, "annotation": {"number": 64, "value": 127}, "group": "control_change"}, {"time": 4793, "annotation": {"number": 64, "value": 0}, "group": "control_change"}, {"time": 4794, "annotation": {"number": 64, "value": 127}, "group": "control_change"}, {"time": 4798, "annotation": {"number": 64, "value": 0}, "group": "control_change"}, {"time": 4799, "annotation": {"number": 64, "value": 127}, "group": "control_change"}, {"time": 4804, "annotation": {"number": 64, "value": 0}, "group": "control_change"}]}]}