{"metadata": {"schema_version": "0.2", "title": "None", "source_filename": "763.mid", "source_format": "midi"}, "resolution": 12, "tempos": [{"time": 0, "qpm": 64.0}], "time_signatures": [{"time": 0, "numerator": 1, "denominator": 4}], "tracks": [{"program": 4, "is_drum": false, "name": "MELODY", "notes": [{"time": 419, "pitch": 59, "duration": 7, "velocity": 93}, {"time": 428, "pitch": 62, "duration": 1, "velocity": 66}, {"time": 431, "pitch": 62, "duration": 4, "velocity": 85}, {"time": 437, "pitch": 64, "duration": 4, "velocity": 85}, {"time": 443, "pitch": 62, "duration": 7, "velocity": 83}, {"time": 461, "pitch": 55, "duration": 3, "velocity": 72}, {"time": 464, "pitch": 57, "duration": 2, "velocity": 61}, {"time": 467, "pitch": 59, "duration": 6, "velocity": 78}, {"time": 476, "pitch": 64, "duration": 3, "velocity": 92}, {"time": 479, "pitch": 62, "duration": 5, "velocity": 81}, {"time": 485, "pitch": 59, "duration": 5, "velocity": 90}, {"time": 491, "pitch": 57, "duration": 14, "velocity": 88}, {"time": 515, "pitch": 55, "duration": 7, "velocity": 86}, {"time": 524, "pitch": 55, "duration": 1, "velocity": 41}, {"time": 527, "pitch": 55, "duration": 3, "velocity": 85}, {"time": 533, "pitch": 67, "duration": 5, "velocity": 90}, {"time": 539, "pitch": 66, "duration": 6, "velocity": 96}, {"time": 545, "pitch": 64, "duration": 5, "velocity": 82}, {"time": 551, "pitch": 62, "duration": 7, "velocity": 83}, {"time": 563, "pitch": 64, "duration": 4, "velocity": 93}, {"time": 572, "pitch": 52, "duration": 4, "velocity": 89}, {"time": 575, "pitch": 55, "duration": 4, "velocity": 99}, {"time": 581, "pitch": 59, "duration": 6, "velocity": 99}, {"time": 587, "pitch": 57, "duration": 16, "velocity": 97}, {"time": 611, "pitch": 59, "duration": 3, "velocity": 90}, {"time": 617, "pitch": 62, "duration": 4, "velocity": 88}, {"time": 629, "pitch": 55, "duration": 2, "velocity": 92}, {"time": 632, "pitch": 57, "duration": 3, "velocity": 74}, {"time": 635, "pitch": 55, "duration": 5, "velocity": 71}, {"time": 641, "pitch": 52, "duration": 9, "velocity": 83}, {"time": 659, "pitch": 52, "duration": 4, "velocity": 65}, {"time": 665, "pitch": 64, "duration": 3, "velocity": 93}, {"time": 668, "pitch": 62, "duration": 3, "velocity": 63}, {"time": 671, "pitch": 59, "duration": 3, "velocity": 79}, {"time": 674, "pitch": 62, "duration": 5, "velocity": 82}, {"time": 680, "pitch": 55, "duration": 3, "velocity": 76}, {"time": 683, "pitch": 59, "duration": 3, "velocity": 72}, {"time": 686, "pitch": 57, "duration": 15, "velocity": 72}, {"time": 707, "pitch": 57, "duration": 6, "velocity": 77}, {"time": 716, "pitch": 59, "duration": 2, "velocity": 86}, {"time": 719, "pitch": 62, "duration": 5, "velocity": 89}, {"time": 725, "pitch": 64, "duration": 3, "velocity": 96}, {"time": 731, "pitch": 59, "duration": 3, "velocity": 83}, {"time": 734, "pitch": 62, "duration": 3, "velocity": 95}, {"time": 740, "pitch": 59, "duration": 3, "velocity": 79}, {"time": 743, "pitch": 55, "duration": 7, "velocity": 82}, {"time": 755, "pitch": 52, "duration": 4, "velocity": 89}, {"time": 761, "pitch": 62, "duration": 2, "velocity": 107}, {"time": 764, "pitch": 59, "duration": 3, "velocity": 89}, {"time": 767, "pitch": 57, "duration": 2, "velocity": 65}, {"time": 770, "pitch": 59, "duration": 3, "velocity": 90}, {"time": 776, "pitch": 52, "duration": 3, "velocity": 85}, {"time": 779, "pitch": 55, "duration": 19, "velocity": 69}, {"time": 821, "pitch": 62, "duration": 4, "velocity": 95}, {"time": 824, "pitch": 64, "duration": 2, "velocity": 89}, {"time": 827, "pitch": 71, "duration": 5, "velocity": 90}, {"time": 833, "pitch": 71, "duration": 1, "velocity": 100}, {"time": 836, "pitch": 71, "duration": 2, "velocity": 93}, {"time": 839, "pitch": 69, "duration": 3, "velocity": 96}, {"time": 848, "pitch": 71, "duration": 1, "velocity": 96}, {"time": 851, "pitch": 59, "duration": 6, "velocity": 95}, {"time": 857, "pitch": 62, "duration": 7, "velocity": 90}, {"time": 869, "pitch": 62, "duration": 2, "velocity": 99}, {"time": 872, "pitch": 64, "duration": 3, "velocity": 95}, {"time": 875, "pitch": 67, "duration": 4, "velocity": 95}, {"time": 881, "pitch": 67, "duration": 1, "velocity": 112}, {"time": 884, "pitch": 69, "duration": 1, "velocity": 88}, {"time": 887, "pitch": 67, "duration": 3, "velocity": 107}, {"time": 896, "pitch": 64, "duration": 2, "velocity": 99}, {"time": 899, "pitch": 62, "duration": 5, "velocity": 97}, {"time": 905, "pitch": 59, "duration": 7, "velocity": 85}, {"time": 917, "pitch": 62, "duration": 1, "velocity": 93}, {"time": 920, "pitch": 62, "duration": 1, "velocity": 81}, {"time": 923, "pitch": 64, "duration": 5, "velocity": 102}, {"time": 929, "pitch": 67, "duration": 4, "velocity": 95}, {"time": 935, "pitch": 67, "duration": 3, "velocity": 107}, {"time": 938, "pitch": 67, "duration": 1, "velocity": 102}, {"time": 941, "pitch": 67, "duration": 1, "velocity": 95}, {"time": 944, "pitch": 64, "duration": 1, "velocity": 102}, {"time": 947, "pitch": 62, "duration": 4, "velocity": 97}, {"time": 953, "pitch": 71, "duration": 9, "velocity": 127}, {"time": 971, "pitch": 69, "duration": 1, "velocity": 122}, {"time": 974, "pitch": 69, "duration": 1, "velocity": 89}, {"time": 977, "pitch": 69, "duration": 1, "velocity": 100}, {"time": 980, "pitch": 71, "duration": 1, "velocity": 99}, {"time": 983, "pitch": 69, "duration": 1, "velocity": 112}, {"time": 986, "pitch": 67, "duration": 3, "velocity": 107}, {"time": 992, "pitch": 71, "duration": 1, "velocity": 102}, {"time": 995, "pitch": 71, "duration": 6, "velocity": 122}, {"time": 1001, "pitch": 69, "duration": 10, "velocity": 112}, {"time": 1013, "pitch": 62, "duration": 2, "velocity": 99}, {"time": 1016, "pitch": 64, "duration": 2, "velocity": 90}, {"time": 1019, "pitch": 71, "duration": 3, "velocity": 102}, {"time": 1025, "pitch": 71, "duration": 1, "velocity": 112}, {"time": 1028, "pitch": 71, "duration": 1, "velocity": 99}, {"time": 1031, "pitch": 69, "duration": 5, "velocity": 112}, {"time": 1040, "pitch": 71, "duration": 1, "velocity": 117}, {"time": 1043, "pitch": 59, "duration": 6, "velocity": 93}, {"time": 1049, "pitch": 62, "duration": 8, "velocity": 96}, {"time": 1061, "pitch": 62, "duration": 2, "velocity": 96}, {"time": 1064, "pitch": 64, "duration": 2, "velocity": 95}, {"time": 1067, "pitch": 67, "duration": 3, "velocity": 112}, {"time": 1073, "pitch": 67, "duration": 1, "velocity": 112}, {"time": 1076, "pitch": 69, "duration": 1, "velocity": 97}, {"time": 1079, "pitch": 67, "duration": 2, "velocity": 117}, {"time": 1088, "pitch": 64, "duration": 2, "velocity": 95}, {"time": 1091, "pitch": 62, "duration": 5, "velocity": 96}, {"time": 1097, "pitch": 59, "duration": 7, "velocity": 95}, {"time": 1109, "pitch": 62, "duration": 1, "velocity": 95}, {"time": 1112, "pitch": 62, "duration": 2, "velocity": 93}, {"time": 1115, "pitch": 64, "duration": 4, "velocity": 100}, {"time": 1121, "pitch": 67, "duration": 1, "velocity": 97}, {"time": 1124, "pitch": 67, "duration": 1, "velocity": 95}, {"time": 1127, "pitch": 67, "duration": 3, "velocity": 127}, {"time": 1136, "pitch": 64, "duration": 3, "velocity": 81}, {"time": 1139, "pitch": 62, "duration": 5, "velocity": 102}, {"time": 1145, "pitch": 71, "duration": 9, "velocity": 102}, {"time": 1163, "pitch": 69, "duration": 1, "velocity": 122}, {"time": 1166, "pitch": 69, "duration": 1, "velocity": 95}, {"time": 1169, "pitch": 69, "duration": 1, "velocity": 102}, {"time": 1172, "pitch": 71, "duration": 2, "velocity": 117}, {"time": 1175, "pitch": 69, "duration": 3, "velocity": 122}, {"time": 1181, "pitch": 67, "duration": 1, "velocity": 112}, {"time": 1184, "pitch": 64, "duration": 2, "velocity": 89}, {"time": 1187, "pitch": 69, "duration": 7, "velocity": 117}, {"time": 1196, "pitch": 67, "duration": 6, "velocity": 112}, {"time": 1835, "pitch": 59, "duration": 7, "velocity": 93}, {"time": 1844, "pitch": 62, "duration": 1, "velocity": 66}, {"time": 1847, "pitch": 62, "duration": 4, "velocity": 85}, {"time": 1853, "pitch": 64, "duration": 4, "velocity": 85}, {"time": 1859, "pitch": 62, "duration": 7, "velocity": 83}, {"time": 1877, "pitch": 55, "duration": 3, "velocity": 72}, {"time": 1880, "pitch": 57, "duration": 2, "velocity": 61}, {"time": 1883, "pitch": 59, "duration": 6, "velocity": 78}, {"time": 1892, "pitch": 64, "duration": 3, "velocity": 92}, {"time": 1895, "pitch": 62, "duration": 5, "velocity": 81}, {"time": 1901, "pitch": 59, "duration": 5, "velocity": 90}, {"time": 1907, "pitch": 57, "duration": 14, "velocity": 88}, {"time": 1931, "pitch": 55, "duration": 7, "velocity": 86}, {"time": 1940, "pitch": 55, "duration": 1, "velocity": 41}, {"time": 1943, "pitch": 55, "duration": 3, "velocity": 85}, {"time": 1949, "pitch": 67, "duration": 5, "velocity": 90}, {"time": 1955, "pitch": 66, "duration": 6, "velocity": 96}, {"time": 1961, "pitch": 64, "duration": 5, "velocity": 82}, {"time": 1967, "pitch": 62, "duration": 7, "velocity": 83}, {"time": 1979, "pitch": 64, "duration": 4, "velocity": 93}, {"time": 1988, "pitch": 52, "duration": 4, "velocity": 89}, {"time": 1991, "pitch": 55, "duration": 4, "velocity": 99}, {"time": 1997, "pitch": 59, "duration": 6, "velocity": 99}, {"time": 2003, "pitch": 57, "duration": 16, "velocity": 97}, {"time": 2027, "pitch": 59, "duration": 3, "velocity": 90}, {"time": 2033, "pitch": 62, "duration": 4, "velocity": 88}, {"time": 2045, "pitch": 55, "duration": 2, "velocity": 92}, {"time": 2048, "pitch": 57, "duration": 3, "velocity": 74}, {"time": 2051, "pitch": 55, "duration": 5, "velocity": 71}, {"time": 2057, "pitch": 52, "duration": 9, "velocity": 83}, {"time": 2075, "pitch": 52, "duration": 4, "velocity": 65}, {"time": 2081, "pitch": 64, "duration": 3, "velocity": 93}, {"time": 2084, "pitch": 62, "duration": 3, "velocity": 63}, {"time": 2087, "pitch": 59, "duration": 3, "velocity": 79}, {"time": 2090, "pitch": 62, "duration": 5, "velocity": 82}, {"time": 2096, "pitch": 55, "duration": 3, "velocity": 76}, {"time": 2099, "pitch": 59, "duration": 3, "velocity": 72}, {"time": 2102, "pitch": 57, "duration": 15, "velocity": 72}, {"time": 2123, "pitch": 57, "duration": 6, "velocity": 77}, {"time": 2132, "pitch": 59, "duration": 2, "velocity": 86}, {"time": 2135, "pitch": 62, "duration": 5, "velocity": 89}, {"time": 2141, "pitch": 64, "duration": 3, "velocity": 96}, {"time": 2147, "pitch": 59, "duration": 3, "velocity": 83}, {"time": 2150, "pitch": 62, "duration": 3, "velocity": 95}, {"time": 2156, "pitch": 59, "duration": 3, "velocity": 79}, {"time": 2159, "pitch": 55, "duration": 7, "velocity": 82}, {"time": 2171, "pitch": 52, "duration": 4, "velocity": 89}, {"time": 2177, "pitch": 62, "duration": 2, "velocity": 107}, {"time": 2180, "pitch": 59, "duration": 3, "velocity": 89}, {"time": 2183, "pitch": 57, "duration": 2, "velocity": 65}, {"time": 2186, "pitch": 59, "duration": 3, "velocity": 90}, {"time": 2192, "pitch": 52, "duration": 3, "velocity": 85}, {"time": 2195, "pitch": 55, "duration": 19, "velocity": 69}, {"time": 2237, "pitch": 62, "duration": 4, "velocity": 95}, {"time": 2240, "pitch": 64, "duration": 2, "velocity": 89}, {"time": 2243, "pitch": 71, "duration": 5, "velocity": 90}, {"time": 2249, "pitch": 71, "duration": 1, "velocity": 100}, {"time": 2252, "pitch": 71, "duration": 2, "velocity": 93}, {"time": 2255, "pitch": 69, "duration": 3, "velocity": 96}, {"time": 2264, "pitch": 71, "duration": 1, "velocity": 96}, {"time": 2267, "pitch": 59, "duration": 6, "velocity": 95}, {"time": 2273, "pitch": 62, "duration": 7, "velocity": 90}, {"time": 2285, "pitch": 62, "duration": 2, "velocity": 99}, {"time": 2288, "pitch": 64, "duration": 3, "velocity": 95}, {"time": 2291, "pitch": 67, "duration": 4, "velocity": 95}, {"time": 2297, "pitch": 67, "duration": 1, "velocity": 112}, {"time": 2300, "pitch": 69, "duration": 1, "velocity": 88}, {"time": 2303, "pitch": 67, "duration": 3, "velocity": 107}, {"time": 2312, "pitch": 64, "duration": 2, "velocity": 99}, {"time": 2315, "pitch": 62, "duration": 5, "velocity": 97}, {"time": 2321, "pitch": 59, "duration": 7, "velocity": 85}, {"time": 2333, "pitch": 62, "duration": 1, "velocity": 93}, {"time": 2336, "pitch": 62, "duration": 1, "velocity": 81}, {"time": 2339, "pitch": 64, "duration": 5, "velocity": 102}, {"time": 2345, "pitch": 67, "duration": 4, "velocity": 95}, {"time": 2351, "pitch": 67, "duration": 3, "velocity": 107}, {"time": 2354, "pitch": 67, "duration": 1, "velocity": 102}, {"time": 2357, "pitch": 67, "duration": 1, "velocity": 95}, {"time": 2360, "pitch": 64, "duration": 1, "velocity": 102}, {"time": 2363, "pitch": 62, "duration": 4, "velocity": 97}, {"time": 2369, "pitch": 71, "duration": 9, "velocity": 127}, {"time": 2387, "pitch": 69, "duration": 1, "velocity": 122}, {"time": 2390, "pitch": 69, "duration": 1, "velocity": 89}, {"time": 2393, "pitch": 69, "duration": 1, "velocity": 100}, {"time": 2396, "pitch": 71, "duration": 1, "velocity": 99}, {"time": 2399, "pitch": 69, "duration": 1, "velocity": 112}, {"time": 2402, "pitch": 67, "duration": 3, "velocity": 107}, {"time": 2408, "pitch": 71, "duration": 1, "velocity": 102}, {"time": 2411, "pitch": 71, "duration": 6, "velocity": 122}, {"time": 2417, "pitch": 69, "duration": 10, "velocity": 112}, {"time": 2429, "pitch": 62, "duration": 2, "velocity": 99}, {"time": 2432, "pitch": 64, "duration": 2, "velocity": 90}, {"time": 2435, "pitch": 71, "duration": 3, "velocity": 102}, {"time": 2441, "pitch": 71, "duration": 1, "velocity": 112}, {"time": 2444, "pitch": 71, "duration": 1, "velocity": 99}, {"time": 2447, "pitch": 69, "duration": 5, "velocity": 112}, {"time": 2456, "pitch": 71, "duration": 1, "velocity": 117}, {"time": 2459, "pitch": 59, "duration": 6, "velocity": 93}, {"time": 2465, "pitch": 62, "duration": 8, "velocity": 96}, {"time": 2477, "pitch": 62, "duration": 2, "velocity": 96}, {"time": 2480, "pitch": 64, "duration": 2, "velocity": 95}, {"time": 2483, "pitch": 67, "duration": 3, "velocity": 112}, {"time": 2489, "pitch": 67, "duration": 1, "velocity": 112}, {"time": 2492, "pitch": 69, "duration": 1, "velocity": 97}, {"time": 2495, "pitch": 67, "duration": 2, "velocity": 117}, {"time": 2504, "pitch": 64, "duration": 2, "velocity": 95}, {"time": 2507, "pitch": 62, "duration": 5, "velocity": 96}, {"time": 2513, "pitch": 59, "duration": 7, "velocity": 95}, {"time": 2525, "pitch": 62, "duration": 1, "velocity": 95}, {"time": 2528, "pitch": 62, "duration": 2, "velocity": 93}, {"time": 2531, "pitch": 64, "duration": 4, "velocity": 100}, {"time": 2537, "pitch": 67, "duration": 1, "velocity": 97}, {"time": 2540, "pitch": 67, "duration": 1, "velocity": 95}, {"time": 2543, "pitch": 67, "duration": 3, "velocity": 127}, {"time": 2552, "pitch": 64, "duration": 3, "velocity": 81}, {"time": 2555, "pitch": 62, "duration": 5, "velocity": 102}, {"time": 2561, "pitch": 71, "duration": 9, "velocity": 102}, {"time": 2579, "pitch": 69, "duration": 1, "velocity": 122}, {"time": 2582, "pitch": 69, "duration": 1, "velocity": 95}, {"time": 2585, "pitch": 69, "duration": 1, "velocity": 102}, {"time": 2588, "pitch": 71, "duration": 2, "velocity": 117}, {"time": 2591, "pitch": 69, "duration": 3, "velocity": 122}, {"time": 2597, "pitch": 67, "duration": 1, "velocity": 112}, {"time": 2600, "pitch": 64, "duration": 2, "velocity": 89}, {"time": 2603, "pitch": 69, "duration": 7, "velocity": 117}, {"time": 2612, "pitch": 67, "duration": 6, "velocity": 112}, {"time": 2657, "pitch": 66, "duration": 1, "velocity": 122}, {"time": 2660, "pitch": 66, "duration": 1, "velocity": 97}, {"time": 2663, "pitch": 66, "duration": 4, "velocity": 107}, {"time": 2669, "pitch": 59, "duration": 4, "velocity": 117}, {"time": 2675, "pitch": 69, "duration": 5, "velocity": 127}, {"time": 2681, "pitch": 67, "duration": 8, "velocity": 127}, {"time": 2693, "pitch": 66, "duration": 2, "velocity": 117}, {"time": 2696, "pitch": 67, "duration": 3, "velocity": 88}, {"time": 2699, "pitch": 64, "duration": 18, "velocity": 99}, {"time": 2738, "pitch": 62, "duration": 3, "velocity": 96}, {"time": 2744, "pitch": 62, "duration": 2, "velocity": 97}, {"time": 2747, "pitch": 64, "duration": 4, "velocity": 117}, {"time": 2753, "pitch": 67, "duration": 1, "velocity": 99}, {"time": 2756, "pitch": 67, "duration": 4, "velocity": 117}, {"time": 2765, "pitch": 64, "duration": 2, "velocity": 96}, {"time": 2768, "pitch": 67, "duration": 1, "velocity": 96}, {"time": 2771, "pitch": 67, "duration": 4, "velocity": 97}, {"time": 2777, "pitch": 64, "duration": 4, "velocity": 107}, {"time": 2783, "pitch": 64, "duration": 1, "velocity": 99}, {"time": 2786, "pitch": 67, "duration": 6, "velocity": 107}, {"time": 2795, "pitch": 69, "duration": 12, "velocity": 122}, {"time": 2807, "pitch": 74, "duration": 16, "velocity": 117}, {"time": 2837, "pitch": 62, "duration": 3, "velocity": 97}, {"time": 2840, "pitch": 64, "duration": 3, "velocity": 102}, {"time": 2843, "pitch": 71, "duration": 5, "velocity": 90}, {"time": 2849, "pitch": 71, "duration": 1, "velocity": 100}, {"time": 2852, "pitch": 71, "duration": 2, "velocity": 93}, {"time": 2855, "pitch": 69, "duration": 3, "velocity": 96}, {"time": 2864, "pitch": 71, "duration": 1, "velocity": 96}, {"time": 2867, "pitch": 59, "duration": 6, "velocity": 95}, {"time": 2873, "pitch": 62, "duration": 7, "velocity": 90}, {"time": 2885, "pitch": 62, "duration": 2, "velocity": 99}, {"time": 2888, "pitch": 64, "duration": 3, "velocity": 95}, {"time": 2891, "pitch": 67, "duration": 4, "velocity": 95}, {"time": 2897, "pitch": 67, "duration": 1, "velocity": 112}, {"time": 2900, "pitch": 69, "duration": 1, "velocity": 88}, {"time": 2903, "pitch": 67, "duration": 3, "velocity": 107}, {"time": 2912, "pitch": 64, "duration": 2, "velocity": 99}, {"time": 2915, "pitch": 62, "duration": 5, "velocity": 97}, {"time": 2921, "pitch": 59, "duration": 7, "velocity": 85}, {"time": 2933, "pitch": 62, "duration": 1, "velocity": 93}, {"time": 2936, "pitch": 62, "duration": 1, "velocity": 81}, {"time": 2939, "pitch": 64, "duration": 5, "velocity": 102}, {"time": 2945, "pitch": 67, "duration": 4, "velocity": 95}, {"time": 2951, "pitch": 67, "duration": 3, "velocity": 107}, {"time": 2954, "pitch": 67, "duration": 1, "velocity": 102}, {"time": 2957, "pitch": 67, "duration": 1, "velocity": 95}, {"time": 2960, "pitch": 64, "duration": 1, "velocity": 102}, {"time": 2963, "pitch": 62, "duration": 4, "velocity": 97}, {"time": 2969, "pitch": 71, "duration": 9, "velocity": 127}, {"time": 2987, "pitch": 69, "duration": 1, "velocity": 122}, {"time": 2990, "pitch": 69, "duration": 1, "velocity": 89}, {"time": 2993, "pitch": 69, "duration": 1, "velocity": 100}, {"time": 2996, "pitch": 71, "duration": 1, "velocity": 99}, {"time": 2999, "pitch": 69, "duration": 1, "velocity": 112}, {"time": 3002, "pitch": 67, "duration": 3, "velocity": 107}, {"time": 3008, "pitch": 71, "duration": 1, "velocity": 102}, {"time": 3011, "pitch": 71, "duration": 6, "velocity": 122}, {"time": 3017, "pitch": 69, "duration": 10, "velocity": 112}, {"time": 3029, "pitch": 62, "duration": 2, "velocity": 99}, {"time": 3032, "pitch": 64, "duration": 2, "velocity": 90}, {"time": 3035, "pitch": 71, "duration": 3, "velocity": 102}, {"time": 3041, "pitch": 71, "duration": 1, "velocity": 112}, {"time": 3044, "pitch": 71, "duration": 1, "velocity": 99}, {"time": 3047, "pitch": 69, "duration": 5, "velocity": 112}, {"time": 3056, "pitch": 71, "duration": 1, "velocity": 117}, {"time": 3059, "pitch": 59, "duration": 6, "velocity": 93}, {"time": 3065, "pitch": 62, "duration": 8, "velocity": 96}, {"time": 3077, "pitch": 62, "duration": 2, "velocity": 96}, {"time": 3080, "pitch": 64, "duration": 2, "velocity": 95}, {"time": 3083, "pitch": 67, "duration": 3, "velocity": 112}, {"time": 3089, "pitch": 67, "duration": 1, "velocity": 112}, {"time": 3092, "pitch": 69, "duration": 1, "velocity": 97}, {"time": 3095, "pitch": 67, "duration": 2, "velocity": 117}, {"time": 3104, "pitch": 64, "duration": 2, "velocity": 95}, {"time": 3107, "pitch": 62, "duration": 5, "velocity": 96}, {"time": 3113, "pitch": 59, "duration": 7, "velocity": 95}, {"time": 3125, "pitch": 62, "duration": 1, "velocity": 95}, {"time": 3128, "pitch": 62, "duration": 2, "velocity": 93}, {"time": 3131, "pitch": 64, "duration": 4, "velocity": 100}, {"time": 3137, "pitch": 67, "duration": 1, "velocity": 97}, {"time": 3140, "pitch": 67, "duration": 1, "velocity": 95}, {"time": 3143, "pitch": 67, "duration": 3, "velocity": 127}, {"time": 3152, "pitch": 64, "duration": 3, "velocity": 81}, {"time": 3155, "pitch": 62, "duration": 5, "velocity": 102}, {"time": 3161, "pitch": 71, "duration": 9, "velocity": 102}, {"time": 3179, "pitch": 69, "duration": 1, "velocity": 122}, {"time": 3182, "pitch": 69, "duration": 1, "velocity": 95}, {"time": 3185, "pitch": 69, "duration": 1, "velocity": 102}, {"time": 3188, "pitch": 71, "duration": 2, "velocity": 117}, {"time": 3191, "pitch": 69, "duration": 3, "velocity": 122}, {"time": 3197, "pitch": 67, "duration": 1, "velocity": 112}, {"time": 3200, "pitch": 64, "duration": 2, "velocity": 89}, {"time": 3203, "pitch": 69, "duration": 7, "velocity": 117}, {"time": 3212, "pitch": 67, "duration": 6, "velocity": 112}, {"time": 3245, "pitch": 62, "duration": 1, "velocity": 112}, {"time": 3248, "pitch": 62, "duration": 2, "velocity": 82}, {"time": 3251, "pitch": 64, "duration": 5, "velocity": 122}, {"time": 3257, "pitch": 67, "duration": 1, "velocity": 107}, {"time": 3260, "pitch": 67, "duration": 1, "velocity": 93}, {"time": 3263, "pitch": 67, "duration": 6, "velocity": 100}, {"time": 3272, "pitch": 64, "duration": 2, "velocity": 93}, {"time": 3275, "pitch": 62, "duration": 5, "velocity": 90}, {"time": 3281, "pitch": 71, "duration": 10, "velocity": 117}, {"time": 3300, "pitch": 69, "duration": 3, "velocity": 99}, {"time": 3304, "pitch": 69, "duration": 3, "velocity": 96}, {"time": 3309, "pitch": 69, "duration": 2, "velocity": 112}, {"time": 3313, "pitch": 71, "duration": 8, "velocity": 122}, {"time": 3328, "pitch": 69, "duration": 7, "velocity": 107}, {"time": 3333, "pitch": 67, "duration": 6, "velocity": 96}, {"time": 3339, "pitch": 64, "duration": 15, "velocity": 89}, {"time": 3358, "pitch": 69, "duration": 11, "velocity": 122}, {"time": 3371, "pitch": 67, "duration": 77, "velocity": 122}]}, {"program": 0, "is_drum": false, "name": "PIANO", "notes": [{"time": 11, "pitch": 43, "duration": 15, "velocity": 63}, {"time": 14, "pitch": 50, "duration": 12, "velocity": 37}, {"time": 17, "pitch": 55, "duration": 5, "velocity": 67}, {"time": 20, "pitch": 59, "duration": 15, "velocity": 57}, {"time": 23, "pitch": 62, "duration": 12, "velocity": 59}, {"time": 35, "pitch": 38, "duration": 17, "velocity": 60}, {"time": 38, "pitch": 45, "duration": 10, "velocity": 38}, {"time": 41, "pitch": 50, "duration": 4, "velocity": 50}, {"time": 44, "pitch": 54, "duration": 3, "velocity": 59}, {"time": 47, "pitch": 57, "duration": 12, "velocity": 69}, {"time": 53, "pitch": 54, "duration": 6, "velocity": 33}, {"time": 59, "pitch": 40, "duration": 16, "velocity": 63}, {"time": 62, "pitch": 47, "duration": 11, "velocity": 46}, {"time": 65, "pitch": 52, "duration": 7, "velocity": 69}, {"time": 68, "pitch": 55, "duration": 15, "velocity": 58}, {"time": 71, "pitch": 64, "duration": 12, "velocity": 79}, {"time": 83, "pitch": 35, "duration": 18, "velocity": 59}, {"time": 86, "pitch": 42, "duration": 15, "velocity": 43}, {"time": 89, "pitch": 47, "duration": 8, "velocity": 59}, {"time": 92, "pitch": 54, "duration": 3, "velocity": 44}, {"time": 95, "pitch": 59, "duration": 13, "velocity": 71}, {"time": 98, "pitch": 47, "duration": 4, "velocity": 54}, {"time": 101, "pitch": 54, "duration": 6, "velocity": 45}, {"time": 107, "pitch": 36, "duration": 17, "velocity": 63}, {"time": 113, "pitch": 43, "duration": 8, "velocity": 66}, {"time": 119, "pitch": 55, "duration": 12, "velocity": 89}, {"time": 122, "pitch": 43, "duration": 2, "velocity": 37}, {"time": 125, "pitch": 52, "duration": 6, "velocity": 67}, {"time": 128, "pitch": 48, "duration": 3, "velocity": 58}, {"time": 131, "pitch": 31, "duration": 18, "velocity": 70}, {"time": 137, "pitch": 43, "duration": 7, "velocity": 52}, {"time": 140, "pitch": 50, "duration": 6, "velocity": 56}, {"time": 143, "pitch": 59, "duration": 12, "velocity": 90}, {"time": 146, "pitch": 43, "duration": 7, "velocity": 72}, {"time": 149, "pitch": 55, "duration": 6, "velocity": 60}, {"time": 152, "pitch": 50, "duration": 3, "velocity": 55}, {"time": 155, "pitch": 33, "duration": 16, "velocity": 66}, {"time": 158, "pitch": 40, "duration": 13, "velocity": 38}, {"time": 161, "pitch": 45, "duration": 7, "velocity": 79}, {"time": 164, "pitch": 52, "duration": 7, "velocity": 62}, {"time": 167, "pitch": 60, "duration": 11, "velocity": 97}, {"time": 170, "pitch": 45, "duration": 4, "velocity": 66}, {"time": 173, "pitch": 57, "duration": 5, "velocity": 78}, {"time": 176, "pitch": 52, "duration": 2, "velocity": 69}, {"time": 179, "pitch": 38, "duration": 16, "velocity": 78}, {"time": 182, "pitch": 45, "duration": 13, "velocity": 71}, {"time": 185, "pitch": 50, "duration": 7, "velocity": 92}, {"time": 188, "pitch": 57, "duration": 4, "velocity": 83}, {"time": 191, "pitch": 66, "duration": 12, "velocity": 127}, {"time": 194, "pitch": 50, "duration": 4, "velocity": 72}, {"time": 197, "pitch": 62, "duration": 7, "velocity": 93}, {"time": 203, "pitch": 43, "duration": 19, "velocity": 85}, {"time": 206, "pitch": 50, "duration": 15, "velocity": 85}, {"time": 209, "pitch": 55, "duration": 8, "velocity": 97}, {"time": 212, "pitch": 59, "duration": 3, "velocity": 95}, {"time": 215, "pitch": 67, "duration": 12, "velocity": 97}, {"time": 218, "pitch": 62, "duration": 3, "velocity": 93}, {"time": 221, "pitch": 59, "duration": 6, "velocity": 88}, {"time": 224, "pitch": 62, "duration": 4, "velocity": 72}, {"time": 227, "pitch": 38, "duration": 22, "velocity": 72}, {"time": 230, "pitch": 45, "duration": 21, "velocity": 65}, {"time": 233, "pitch": 50, "duration": 10, "velocity": 59}, {"time": 236, "pitch": 57, "duration": 5, "velocity": 78}, {"time": 239, "pitch": 66, "duration": 13, "velocity": 102}, {"time": 242, "pitch": 62, "duration": 3, "velocity": 52}, {"time": 245, "pitch": 57, "duration": 7, "velocity": 73}, {"time": 248, "pitch": 62, "duration": 4, "velocity": 66}, {"time": 251, "pitch": 40, "duration": 17, "velocity": 73}, {"time": 254, "pitch": 47, "duration": 14, "velocity": 52}, {"time": 257, "pitch": 52, "duration": 7, "velocity": 67}, {"time": 260, "pitch": 59, "duration": 9, "velocity": 73}, {"time": 263, "pitch": 67, "duration": 11, "velocity": 96}, {"time": 266, "pitch": 52, "duration": 4, "velocity": 73}, {"time": 269, "pitch": 64, "duration": 5, "velocity": 81}, {"time": 272, "pitch": 59, "duration": 4, "velocity": 86}, {"time": 275, "pitch": 47, "duration": 17, "velocity": 69}, {"time": 278, "pitch": 54, "duration": 11, "velocity": 67}, {"time": 281, "pitch": 59, "duration": 7, "velocity": 74}, {"time": 284, "pitch": 62, "duration": 3, "velocity": 85}, {"time": 287, "pitch": 66, "duration": 11, "velocity": 117}, {"time": 290, "pitch": 54, "duration": 2, "velocity": 74}, {"time": 293, "pitch": 62, "duration": 5, "velocity": 96}, {"time": 296, "pitch": 59, "duration": 3, "velocity": 90}, {"time": 299, "pitch": 36, "duration": 18, "velocity": 89}, {"time": 302, "pitch": 43, "duration": 14, "velocity": 67}, {"time": 305, "pitch": 48, "duration": 7, "velocity": 90}, {"time": 308, "pitch": 55, "duration": 5, "velocity": 93}, {"time": 311, "pitch": 64, "duration": 12, "velocity": 99}, {"time": 314, "pitch": 48, "duration": 2, "velocity": 86}, {"time": 317, "pitch": 60, "duration": 6, "velocity": 107}, {"time": 320, "pitch": 55, "duration": 3, "velocity": 78}, {"time": 323, "pitch": 31, "duration": 19, "velocity": 82}, {"time": 326, "pitch": 38, "duration": 20, "velocity": 52}, {"time": 329, "pitch": 43, "duration": 6, "velocity": 82}, {"time": 332, "pitch": 55, "duration": 4, "velocity": 83}, {"time": 335, "pitch": 62, "duration": 12, "velocity": 102}, {"time": 338, "pitch": 43, "duration": 3, "velocity": 93}, {"time": 341, "pitch": 59, "duration": 7, "velocity": 89}, {"time": 347, "pitch": 33, "duration": 10, "velocity": 89}, {"time": 350, "pitch": 40, "duration": 8, "velocity": 76}, {"time": 353, "pitch": 45, "duration": 4, "velocity": 97}, {"time": 356, "pitch": 57, "duration": 4, "velocity": 97}, {"time": 359, "pitch": 38, "duration": 7, "velocity": 93}, {"time": 362, "pitch": 57, "duration": 9, "velocity": 78}, {"time": 365, "pitch": 66, "duration": 6, "velocity": 100}, {"time": 368, "pitch": 62, "duration": 3, "velocity": 85}, {"time": 371, "pitch": 31, "duration": 20, "velocity": 66}, {"time": 374, "pitch": 38, "duration": 21, "velocity": 51}, {"time": 377, "pitch": 43, "duration": 7, "velocity": 83}, {"time": 380, "pitch": 50, "duration": 33, "velocity": 72}, {"time": 383, "pitch": 59, "duration": 6, "velocity": 82}, {"time": 386, "pitch": 43, "duration": 2, "velocity": 70}, {"time": 389, "pitch": 57, "duration": 8, "velocity": 82}, {"time": 392, "pitch": 59, "duration": 26, "velocity": 63}, {"time": 395, "pitch": 31, "duration": 16, "velocity": 52}, {"time": 395, "pitch": 55, "duration": 23, "velocity": 55}, {"time": 419, "pitch": 43, "duration": 22, "velocity": 69}, {"time": 425, "pitch": 50, "duration": 18, "velocity": 50}, {"time": 431, "pitch": 55, "duration": 17, "velocity": 52}, {"time": 431, "pitch": 67, "duration": 13, "velocity": 75}, {"time": 437, "pitch": 62, "duration": 9, "velocity": 57}, {"time": 443, "pitch": 43, "duration": 18, "velocity": 64}, {"time": 449, "pitch": 50, "duration": 11, "velocity": 47}, {"time": 455, "pitch": 55, "duration": 4, "velocity": 55}, {"time": 455, "pitch": 67, "duration": 14, "velocity": 70}, {"time": 461, "pitch": 62, "duration": 6, "velocity": 56}, {"time": 467, "pitch": 40, "duration": 18, "velocity": 69}, {"time": 473, "pitch": 47, "duration": 12, "velocity": 45}, {"time": 479, "pitch": 52, "duration": 8, "velocity": 62}, {"time": 479, "pitch": 64, "duration": 13, "velocity": 62}, {"time": 479, "pitch": 67, "duration": 13, "velocity": 81}, {"time": 485, "pitch": 59, "duration": 8, "velocity": 58}, {"time": 491, "pitch": 45, "duration": 15, "velocity": 68}, {"time": 497, "pitch": 52, "duration": 8, "velocity": 56}, {"time": 503, "pitch": 64, "duration": 12, "velocity": 77}, {"time": 509, "pitch": 60, "duration": 7, "velocity": 51}, {"time": 515, "pitch": 36, "duration": 17, "velocity": 81}, {"time": 521, "pitch": 43, "duration": 10, "velocity": 38}, {"time": 527, "pitch": 48, "duration": 7, "velocity": 53}, {"time": 527, "pitch": 64, "duration": 13, "velocity": 93}, {"time": 533, "pitch": 60, "duration": 7, "velocity": 58}, {"time": 539, "pitch": 43, "duration": 17, "velocity": 69}, {"time": 545, "pitch": 50, "duration": 10, "velocity": 50}, {"time": 551, "pitch": 62, "duration": 12, "velocity": 78}, {"time": 557, "pitch": 59, "duration": 6, "velocity": 49}, {"time": 563, "pitch": 36, "duration": 21, "velocity": 66}, {"time": 569, "pitch": 43, "duration": 17, "velocity": 49}, {"time": 575, "pitch": 48, "duration": 4, "velocity": 61}, {"time": 575, "pitch": 64, "duration": 12, "velocity": 81}, {"time": 581, "pitch": 55, "duration": 7, "velocity": 71}, {"time": 587, "pitch": 38, "duration": 16, "velocity": 43}, {"time": 590, "pitch": 45, "duration": 13, "velocity": 52}, {"time": 593, "pitch": 50, "duration": 7, "velocity": 70}, {"time": 596, "pitch": 57, "duration": 5, "velocity": 75}, {"time": 599, "pitch": 66, "duration": 13, "velocity": 122}, {"time": 602, "pitch": 50, "duration": 3, "velocity": 66}, {"time": 605, "pitch": 62, "duration": 6, "velocity": 88}, {"time": 608, "pitch": 57, "duration": 4, "velocity": 70}, {"time": 611, "pitch": 43, "duration": 19, "velocity": 79}, {"time": 617, "pitch": 50, "duration": 13, "velocity": 50}, {"time": 623, "pitch": 55, "duration": 4, "velocity": 69}, {"time": 623, "pitch": 67, "duration": 11, "velocity": 64}, {"time": 623, "pitch": 71, "duration": 11, "velocity": 66}, {"time": 629, "pitch": 62, "duration": 6, "velocity": 61}, {"time": 635, "pitch": 40, "duration": 18, "velocity": 72}, {"time": 641, "pitch": 47, "duration": 11, "velocity": 42}, {"time": 647, "pitch": 52, "duration": 5, "velocity": 63}, {"time": 647, "pitch": 64, "duration": 10, "velocity": 81}, {"time": 653, "pitch": 59, "duration": 6, "velocity": 67}, {"time": 659, "pitch": 43, "duration": 17, "velocity": 74}, {"time": 665, "pitch": 50, "duration": 10, "velocity": 44}, {"time": 671, "pitch": 55, "duration": 3, "velocity": 38}, {"time": 671, "pitch": 71, "duration": 12, "velocity": 81}, {"time": 677, "pitch": 67, "duration": 6, "velocity": 64}, {"time": 683, "pitch": 38, "duration": 16, "velocity": 75}, {"time": 689, "pitch": 45, "duration": 10, "velocity": 49}, {"time": 695, "pitch": 50, "duration": 5, "velocity": 53}, {"time": 695, "pitch": 66, "duration": 13, "velocity": 92}, {"time": 701, "pitch": 62, "duration": 6, "velocity": 63}, {"time": 707, "pitch": 45, "duration": 15, "velocity": 70}, {"time": 713, "pitch": 52, "duration": 8, "velocity": 59}, {"time": 719, "pitch": 64, "duration": 12, "velocity": 89}, {"time": 725, "pitch": 60, "duration": 6, "velocity": 64}, {"time": 731, "pitch": 40, "duration": 19, "velocity": 85}, {"time": 737, "pitch": 47, "duration": 12, "velocity": 44}, {"time": 743, "pitch": 52, "duration": 5, "velocity": 58}, {"time": 743, "pitch": 67, "duration": 10, "velocity": 79}, {"time": 749, "pitch": 64, "duration": 4, "velocity": 76}, {"time": 755, "pitch": 36, "duration": 11, "velocity": 83}, {"time": 761, "pitch": 64, "duration": 5, "velocity": 93}, {"time": 767, "pitch": 38, "duration": 6, "velocity": 88}, {"time": 773, "pitch": 62, "duration": 6, "velocity": 83}, {"time": 773, "pitch": 66, "duration": 6, "velocity": 83}, {"time": 779, "pitch": 43, "duration": 18, "velocity": 67}, {"time": 782, "pitch": 50, "duration": 10, "velocity": 63}, {"time": 785, "pitch": 55, "duration": 6, "velocity": 70}, {"time": 788, "pitch": 57, "duration": 3, "velocity": 58}, {"time": 791, "pitch": 62, "duration": 7, "velocity": 99}, {"time": 794, "pitch": 50, "duration": 2, "velocity": 59}, {"time": 797, "pitch": 59, "duration": 4, "velocity": 99}, {"time": 800, "pitch": 55, "duration": 13, "velocity": 67}, {"time": 803, "pitch": 36, "duration": 11, "velocity": 97}, {"time": 803, "pitch": 60, "duration": 7, "velocity": 112}, {"time": 803, "pitch": 64, "duration": 7, "velocity": 100}, {"time": 806, "pitch": 43, "duration": 9, "velocity": 78}, {"time": 809, "pitch": 48, "duration": 5, "velocity": 100}, {"time": 815, "pitch": 38, "duration": 4, "velocity": 96}, {"time": 815, "pitch": 57, "duration": 12, "velocity": 93}, {"time": 815, "pitch": 62, "duration": 12, "velocity": 107}, {"time": 815, "pitch": 66, "duration": 12, "velocity": 117}, {"time": 827, "pitch": 43, "duration": 20, "velocity": 99}, {"time": 830, "pitch": 50, "duration": 10, "velocity": 88}, {"time": 833, "pitch": 55, "duration": 4, "velocity": 93}, {"time": 836, "pitch": 59, "duration": 8, "velocity": 90}, {"time": 839, "pitch": 67, "duration": 11, "velocity": 117}, {"time": 842, "pitch": 50, "duration": 5, "velocity": 93}, {"time": 845, "pitch": 62, "duration": 6, "velocity": 107}, {"time": 848, "pitch": 59, "duration": 3, "velocity": 96}, {"time": 851, "pitch": 38, "duration": 21, "velocity": 90}, {"time": 854, "pitch": 45, "duration": 20, "velocity": 76}, {"time": 857, "pitch": 50, "duration": 6, "velocity": 83}, {"time": 860, "pitch": 57, "duration": 6, "velocity": 90}, {"time": 863, "pitch": 66, "duration": 11, "velocity": 127}, {"time": 866, "pitch": 50, "duration": 3, "velocity": 97}, {"time": 869, "pitch": 62, "duration": 5, "velocity": 99}, {"time": 872, "pitch": 57, "duration": 3, "velocity": 96}, {"time": 875, "pitch": 40, "duration": 16, "velocity": 90}, {"time": 878, "pitch": 47, "duration": 13, "velocity": 81}, {"time": 881, "pitch": 52, "duration": 6, "velocity": 88}, {"time": 884, "pitch": 59, "duration": 7, "velocity": 93}, {"time": 887, "pitch": 67, "duration": 11, "velocity": 107}, {"time": 890, "pitch": 52, "duration": 3, "velocity": 97}, {"time": 893, "pitch": 64, "duration": 4, "velocity": 97}, {"time": 896, "pitch": 59, "duration": 3, "velocity": 97}, {"time": 899, "pitch": 47, "duration": 19, "velocity": 78}, {"time": 902, "pitch": 54, "duration": 15, "velocity": 72}, {"time": 905, "pitch": 59, "duration": 7, "velocity": 93}, {"time": 908, "pitch": 62, "duration": 8, "velocity": 93}, {"time": 911, "pitch": 71, "duration": 11, "velocity": 100}, {"time": 914, "pitch": 59, "duration": 2, "velocity": 96}, {"time": 917, "pitch": 66, "duration": 5, "velocity": 117}, {"time": 920, "pitch": 62, "duration": 3, "velocity": 89}, {"time": 923, "pitch": 36, "duration": 17, "velocity": 81}, {"time": 926, "pitch": 43, "duration": 14, "velocity": 68}, {"time": 929, "pitch": 48, "duration": 7, "velocity": 79}, {"time": 932, "pitch": 55, "duration": 7, "velocity": 86}, {"time": 935, "pitch": 64, "duration": 12, "velocity": 95}, {"time": 938, "pitch": 48, "duration": 4, "velocity": 73}, {"time": 941, "pitch": 60, "duration": 6, "velocity": 83}, {"time": 944, "pitch": 55, "duration": 2, "velocity": 88}, {"time": 947, "pitch": 43, "duration": 19, "velocity": 79}, {"time": 950, "pitch": 50, "duration": 20, "velocity": 67}, {"time": 953, "pitch": 55, "duration": 7, "velocity": 93}, {"time": 956, "pitch": 62, "duration": 6, "velocity": 92}, {"time": 959, "pitch": 71, "duration": 12, "velocity": 107}, {"time": 962, "pitch": 55, "duration": 3, "velocity": 90}, {"time": 965, "pitch": 67, "duration": 5, "velocity": 90}, {"time": 968, "pitch": 62, "duration": 3, "velocity": 96}, {"time": 971, "pitch": 45, "duration": 17, "velocity": 92}, {"time": 974, "pitch": 52, "duration": 10, "velocity": 82}, {"time": 977, "pitch": 57, "duration": 3, "velocity": 95}, {"time": 980, "pitch": 60, "duration": 9, "velocity": 112}, {"time": 983, "pitch": 64, "duration": 11, "velocity": 99}, {"time": 986, "pitch": 52, "duration": 2, "velocity": 82}, {"time": 989, "pitch": 57, "duration": 14, "velocity": 100}, {"time": 992, "pitch": 45, "duration": 1, "velocity": 39}, {"time": 992, "pitch": 60, "duration": 4, "velocity": 112}, {"time": 995, "pitch": 38, "duration": 17, "velocity": 90}, {"time": 998, "pitch": 45, "duration": 14, "velocity": 81}, {"time": 1001, "pitch": 50, "duration": 6, "velocity": 93}, {"time": 1004, "pitch": 62, "duration": 1, "velocity": 96}, {"time": 1004, "pitch": 66, "duration": 2, "velocity": 112}, {"time": 1007, "pitch": 62, "duration": 6, "velocity": 100}, {"time": 1007, "pitch": 66, "duration": 11, "velocity": 122}, {"time": 1010, "pitch": 50, "duration": 4, "velocity": 97}, {"time": 1013, "pitch": 57, "duration": 5, "velocity": 100}, {"time": 1016, "pitch": 62, "duration": 2, "velocity": 102}, {"time": 1019, "pitch": 43, "duration": 18, "velocity": 85}, {"time": 1022, "pitch": 50, "duration": 14, "velocity": 77}, {"time": 1025, "pitch": 55, "duration": 7, "velocity": 92}, {"time": 1028, "pitch": 62, "duration": 8, "velocity": 99}, {"time": 1031, "pitch": 71, "duration": 11, "velocity": 99}, {"time": 1034, "pitch": 55, "duration": 2, "velocity": 96}, {"time": 1037, "pitch": 67, "duration": 5, "velocity": 99}, {"time": 1040, "pitch": 62, "duration": 3, "velocity": 100}, {"time": 1043, "pitch": 38, "duration": 22, "velocity": 72}, {"time": 1046, "pitch": 45, "duration": 20, "velocity": 50}, {"time": 1049, "pitch": 50, "duration": 6, "velocity": 76}, {"time": 1052, "pitch": 57, "duration": 6, "velocity": 88}, {"time": 1055, "pitch": 66, "duration": 12, "velocity": 117}, {"time": 1058, "pitch": 50, "duration": 3, "velocity": 90}, {"time": 1061, "pitch": 62, "duration": 6, "velocity": 89}, {"time": 1064, "pitch": 57, "duration": 4, "velocity": 96}, {"time": 1067, "pitch": 40, "duration": 17, "velocity": 77}, {"time": 1070, "pitch": 47, "duration": 14, "velocity": 70}, {"time": 1073, "pitch": 52, "duration": 7, "velocity": 86}, {"time": 1076, "pitch": 59, "duration": 9, "velocity": 88}, {"time": 1079, "pitch": 67, "duration": 12, "velocity": 96}, {"time": 1082, "pitch": 52, "duration": 4, "velocity": 75}, {"time": 1085, "pitch": 64, "duration": 5, "velocity": 93}, {"time": 1088, "pitch": 59, "duration": 4, "velocity": 90}, {"time": 1091, "pitch": 47, "duration": 17, "velocity": 70}, {"time": 1094, "pitch": 54, "duration": 13, "velocity": 73}, {"time": 1097, "pitch": 59, "duration": 8, "velocity": 85}, {"time": 1100, "pitch": 62, "duration": 5, "velocity": 85}, {"time": 1103, "pitch": 71, "duration": 12, "velocity": 100}, {"time": 1106, "pitch": 66, "duration": 3, "velocity": 92}, {"time": 1109, "pitch": 62, "duration": 6, "velocity": 93}, {"time": 1112, "pitch": 66, "duration": 3, "velocity": 93}, {"time": 1115, "pitch": 36, "duration": 17, "velocity": 78}, {"time": 1118, "pitch": 43, "duration": 15, "velocity": 53}, {"time": 1121, "pitch": 48, "duration": 7, "velocity": 81}, {"time": 1124, "pitch": 55, "duration": 9, "velocity": 79}, {"time": 1127, "pitch": 64, "duration": 12, "velocity": 93}, {"time": 1130, "pitch": 48, "duration": 4, "velocity": 72}, {"time": 1133, "pitch": 60, "duration": 6, "velocity": 97}, {"time": 1136, "pitch": 55, "duration": 3, "velocity": 92}, {"time": 1139, "pitch": 43, "duration": 21, "velocity": 75}, {"time": 1142, "pitch": 50, "duration": 20, "velocity": 54}, {"time": 1145, "pitch": 55, "duration": 7, "velocity": 89}, {"time": 1148, "pitch": 59, "duration": 9, "velocity": 86}, {"time": 1151, "pitch": 67, "duration": 11, "velocity": 99}, {"time": 1154, "pitch": 55, "duration": 3, "velocity": 89}, {"time": 1157, "pitch": 62, "duration": 4, "velocity": 90}, {"time": 1160, "pitch": 59, "duration": 3, "velocity": 93}, {"time": 1163, "pitch": 45, "duration": 11, "velocity": 92}, {"time": 1166, "pitch": 57, "duration": 10, "velocity": 90}, {"time": 1169, "pitch": 64, "duration": 5, "velocity": 92}, {"time": 1172, "pitch": 60, "duration": 2, "velocity": 92}, {"time": 1175, "pitch": 50, "duration": 11, "velocity": 92}, {"time": 1178, "pitch": 57, "duration": 7, "velocity": 78}, {"time": 1181, "pitch": 66, "duration": 5, "velocity": 117}, {"time": 1184, "pitch": 62, "duration": 3, "velocity": 99}, {"time": 1187, "pitch": 43, "duration": 21, "velocity": 48}, {"time": 1190, "pitch": 50, "duration": 11, "velocity": 53}, {"time": 1193, "pitch": 55, "duration": 6, "velocity": 86}, {"time": 1196, "pitch": 59, "duration": 3, "velocity": 96}, {"time": 1199, "pitch": 62, "duration": 10, "velocity": 96}, {"time": 1202, "pitch": 50, "duration": 8, "velocity": 65}, {"time": 1205, "pitch": 59, "duration": 4, "velocity": 90}, {"time": 1208, "pitch": 55, "duration": 10, "velocity": 78}, {"time": 1211, "pitch": 43, "duration": 21, "velocity": 93}, {"time": 1211, "pitch": 59, "duration": 7, "velocity": 79}, {"time": 1211, "pitch": 62, "duration": 7, "velocity": 86}, {"time": 1217, "pitch": 50, "duration": 6, "velocity": 66}, {"time": 1220, "pitch": 59, "duration": 2, "velocity": 66}, {"time": 1220, "pitch": 62, "duration": 2, "velocity": 62}, {"time": 1223, "pitch": 59, "duration": 6, "velocity": 95}, {"time": 1223, "pitch": 62, "duration": 12, "velocity": 95}, {"time": 1226, "pitch": 50, "duration": 4, "velocity": 90}, {"time": 1229, "pitch": 55, "duration": 6, "velocity": 112}, {"time": 1232, "pitch": 59, "duration": 3, "velocity": 96}, {"time": 1235, "pitch": 41, "duration": 17, "velocity": 92}, {"time": 1244, "pitch": 57, "duration": 6, "velocity": 83}, {"time": 1244, "pitch": 60, "duration": 6, "velocity": 86}, {"time": 1244, "pitch": 65, "duration": 7, "velocity": 75}, {"time": 1250, "pitch": 53, "duration": 1, "velocity": 73}, {"time": 1253, "pitch": 41, "duration": 28, "velocity": 65}, {"time": 1253, "pitch": 53, "duration": 13, "velocity": 76}, {"time": 1253, "pitch": 57, "duration": 14, "velocity": 97}, {"time": 1253, "pitch": 60, "duration": 16, "velocity": 95}, {"time": 1253, "pitch": 65, "duration": 16, "velocity": 95}, {"time": 1265, "pitch": 48, "duration": 18, "velocity": 42}, {"time": 1268, "pitch": 53, "duration": 4, "velocity": 93}, {"time": 1271, "pitch": 60, "duration": 7, "velocity": 99}, {"time": 1271, "pitch": 65, "duration": 12, "velocity": 100}, {"time": 1274, "pitch": 53, "duration": 3, "velocity": 82}, {"time": 1277, "pitch": 57, "duration": 6, "velocity": 92}, {"time": 1280, "pitch": 60, "duration": 3, "velocity": 90}, {"time": 1283, "pitch": 43, "duration": 42, "velocity": 79}, {"time": 1286, "pitch": 50, "duration": 35, "velocity": 72}, {"time": 1289, "pitch": 55, "duration": 7, "velocity": 93}, {"time": 1292, "pitch": 59, "duration": 11, "velocity": 95}, {"time": 1292, "pitch": 62, "duration": 8, "velocity": 100}, {"time": 1292, "pitch": 67, "duration": 8, "velocity": 96}, {"time": 1298, "pitch": 55, "duration": 10, "velocity": 77}, {"time": 1301, "pitch": 62, "duration": 12, "velocity": 99}, {"time": 1301, "pitch": 67, "duration": 14, "velocity": 95}, {"time": 1307, "pitch": 59, "duration": 3, "velocity": 69}, {"time": 1310, "pitch": 55, "duration": 4, "velocity": 83}, {"time": 1313, "pitch": 59, "duration": 11, "velocity": 67}, {"time": 1316, "pitch": 55, "duration": 4, "velocity": 93}, {"time": 1319, "pitch": 67, "duration": 12, "velocity": 117}, {"time": 1322, "pitch": 50, "duration": 2, "velocity": 65}, {"time": 1322, "pitch": 55, "duration": 2, "velocity": 89}, {"time": 1325, "pitch": 62, "duration": 6, "velocity": 100}, {"time": 1328, "pitch": 59, "duration": 3, "velocity": 97}, {"time": 1331, "pitch": 41, "duration": 45, "velocity": 83}, {"time": 1337, "pitch": 53, "duration": 7, "velocity": 88}, {"time": 1340, "pitch": 57, "duration": 8, "velocity": 81}, {"time": 1340, "pitch": 60, "duration": 8, "velocity": 96}, {"time": 1340, "pitch": 65, "duration": 7, "velocity": 82}, {"time": 1340, "pitch": 67, "duration": 2, "velocity": 79}, {"time": 1346, "pitch": 53, "duration": 7, "velocity": 89}, {"time": 1349, "pitch": 57, "duration": 7, "velocity": 85}, {"time": 1349, "pitch": 60, "duration": 7, "velocity": 99}, {"time": 1349, "pitch": 65, "duration": 7, "velocity": 96}, {"time": 1355, "pitch": 53, "duration": 5, "velocity": 88}, {"time": 1358, "pitch": 57, "duration": 6, "velocity": 77}, {"time": 1358, "pitch": 60, "duration": 7, "velocity": 79}, {"time": 1358, "pitch": 65, "duration": 7, "velocity": 78}, {"time": 1364, "pitch": 53, "duration": 5, "velocity": 75}, {"time": 1367, "pitch": 60, "duration": 6, "velocity": 93}, {"time": 1367, "pitch": 65, "duration": 12, "velocity": 90}, {"time": 1370, "pitch": 53, "duration": 3, "velocity": 68}, {"time": 1373, "pitch": 57, "duration": 5, "velocity": 95}, {"time": 1376, "pitch": 60, "duration": 3, "velocity": 92}, {"time": 1379, "pitch": 48, "duration": 3, "velocity": 95}, {"time": 1379, "pitch": 60, "duration": 1, "velocity": 92}, {"time": 1379, "pitch": 64, "duration": 2, "velocity": 86}, {"time": 1379, "pitch": 67, "duration": 3, "velocity": 86}, {"time": 1388, "pitch": 50, "duration": 3, "velocity": 107}, {"time": 1388, "pitch": 62, "duration": 3, "velocity": 102}, {"time": 1388, "pitch": 69, "duration": 3, "velocity": 100}, {"time": 1397, "pitch": 52, "duration": 3, "velocity": 117}, {"time": 1397, "pitch": 64, "duration": 3, "velocity": 99}, {"time": 1397, "pitch": 71, "duration": 3, "velocity": 100}, {"time": 1406, "pitch": 54, "duration": 4, "velocity": 102}, {"time": 1406, "pitch": 66, "duration": 5, "velocity": 122}, {"time": 1415, "pitch": 55, "duration": 4, "velocity": 100}, {"time": 1415, "pitch": 67, "duration": 4, "velocity": 117}, {"time": 1418, "pitch": 54, "duration": 2, "velocity": 117}, {"time": 1418, "pitch": 66, "duration": 2, "velocity": 127}, {"time": 1421, "pitch": 52, "duration": 3, "velocity": 63}, {"time": 1421, "pitch": 64, "duration": 2, "velocity": 102}, {"time": 1424, "pitch": 50, "duration": 3, "velocity": 93}, {"time": 1424, "pitch": 62, "duration": 3, "velocity": 97}, {"time": 1427, "pitch": 43, "duration": 18, "velocity": 97}, {"time": 1430, "pitch": 50, "duration": 14, "velocity": 58}, {"time": 1433, "pitch": 55, "duration": 7, "velocity": 95}, {"time": 1436, "pitch": 62, "duration": 5, "velocity": 86}, {"time": 1439, "pitch": 71, "duration": 10, "velocity": 112}, {"time": 1442, "pitch": 55, "duration": 2, "velocity": 93}, {"time": 1445, "pitch": 67, "duration": 4, "velocity": 96}, {"time": 1448, "pitch": 62, "duration": 3, "velocity": 97}, {"time": 1451, "pitch": 38, "duration": 22, "velocity": 75}, {"time": 1454, "pitch": 45, "duration": 21, "velocity": 54}, {"time": 1457, "pitch": 50, "duration": 7, "velocity": 86}, {"time": 1460, "pitch": 57, "duration": 7, "velocity": 90}, {"time": 1463, "pitch": 66, "duration": 12, "velocity": 107}, {"time": 1466, "pitch": 50, "duration": 2, "velocity": 92}, {"time": 1469, "pitch": 62, "duration": 6, "velocity": 86}, {"time": 1472, "pitch": 57, "duration": 4, "velocity": 89}, {"time": 1475, "pitch": 40, "duration": 16, "velocity": 83}, {"time": 1478, "pitch": 47, "duration": 13, "velocity": 81}, {"time": 1481, "pitch": 52, "duration": 7, "velocity": 88}, {"time": 1484, "pitch": 59, "duration": 9, "velocity": 95}, {"time": 1487, "pitch": 67, "duration": 11, "velocity": 97}, {"time": 1490, "pitch": 52, "duration": 4, "velocity": 78}, {"time": 1493, "pitch": 64, "duration": 5, "velocity": 89}, {"time": 1496, "pitch": 59, "duration": 3, "velocity": 93}, {"time": 1499, "pitch": 47, "duration": 18, "velocity": 64}, {"time": 1502, "pitch": 54, "duration": 15, "velocity": 82}, {"time": 1505, "pitch": 59, "duration": 8, "velocity": 86}, {"time": 1508, "pitch": 62, "duration": 9, "velocity": 96}, {"time": 1511, "pitch": 71, "duration": 11, "velocity": 100}, {"time": 1514, "pitch": 59, "duration": 2, "velocity": 92}, {"time": 1517, "pitch": 66, "duration": 5, "velocity": 112}, {"time": 1520, "pitch": 62, "duration": 3, "velocity": 93}, {"time": 1523, "pitch": 36, "duration": 22, "velocity": 83}, {"time": 1526, "pitch": 43, "duration": 21, "velocity": 63}, {"time": 1529, "pitch": 48, "duration": 7, "velocity": 92}, {"time": 1532, "pitch": 55, "duration": 9, "velocity": 90}, {"time": 1535, "pitch": 64, "duration": 12, "velocity": 95}, {"time": 1538, "pitch": 48, "duration": 4, "velocity": 72}, {"time": 1541, "pitch": 60, "duration": 6, "velocity": 95}, {"time": 1544, "pitch": 55, "duration": 3, "velocity": 93}, {"time": 1547, "pitch": 43, "duration": 21, "velocity": 82}, {"time": 1550, "pitch": 50, "duration": 21, "velocity": 82}, {"time": 1553, "pitch": 55, "duration": 8, "velocity": 86}, {"time": 1556, "pitch": 59, "duration": 9, "velocity": 82}, {"time": 1559, "pitch": 67, "duration": 11, "velocity": 97}, {"time": 1562, "pitch": 55, "duration": 3, "velocity": 88}, {"time": 1565, "pitch": 62, "duration": 6, "velocity": 97}, {"time": 1568, "pitch": 59, "duration": 3, "velocity": 93}, {"time": 1571, "pitch": 45, "duration": 17, "velocity": 88}, {"time": 1574, "pitch": 52, "duration": 10, "velocity": 88}, {"time": 1577, "pitch": 57, "duration": 3, "velocity": 96}, {"time": 1580, "pitch": 60, "duration": 3, "velocity": 107}, {"time": 1583, "pitch": 64, "duration": 12, "velocity": 100}, {"time": 1586, "pitch": 52, "duration": 2, "velocity": 81}, {"time": 1589, "pitch": 60, "duration": 5, "velocity": 100}, {"time": 1592, "pitch": 57, "duration": 4, "velocity": 93}, {"time": 1595, "pitch": 38, "duration": 18, "velocity": 73}, {"time": 1598, "pitch": 45, "duration": 15, "velocity": 96}, {"time": 1601, "pitch": 50, "duration": 6, "velocity": 92}, {"time": 1604, "pitch": 57, "duration": 4, "velocity": 77}, {"time": 1607, "pitch": 62, "duration": 7, "velocity": 90}, {"time": 1607, "pitch": 66, "duration": 11, "velocity": 117}, {"time": 1610, "pitch": 50, "duration": 5, "velocity": 96}, {"time": 1613, "pitch": 57, "duration": 5, "velocity": 96}, {"time": 1616, "pitch": 62, "duration": 6, "velocity": 112}, {"time": 1619, "pitch": 43, "duration": 18, "velocity": 73}, {"time": 1622, "pitch": 50, "duration": 14, "velocity": 63}, {"time": 1625, "pitch": 55, "duration": 7, "velocity": 89}, {"time": 1628, "pitch": 59, "duration": 7, "velocity": 90}, {"time": 1631, "pitch": 67, "duration": 11, "velocity": 107}, {"time": 1634, "pitch": 55, "duration": 2, "velocity": 96}, {"time": 1637, "pitch": 62, "duration": 6, "velocity": 99}, {"time": 1640, "pitch": 59, "duration": 3, "velocity": 93}, {"time": 1643, "pitch": 38, "duration": 19, "velocity": 71}, {"time": 1646, "pitch": 45, "duration": 16, "velocity": 67}, {"time": 1649, "pitch": 50, "duration": 7, "velocity": 86}, {"time": 1652, "pitch": 57, "duration": 7, "velocity": 90}, {"time": 1655, "pitch": 66, "duration": 11, "velocity": 112}, {"time": 1658, "pitch": 50, "duration": 5, "velocity": 69}, {"time": 1661, "pitch": 62, "duration": 5, "velocity": 96}, {"time": 1664, "pitch": 57, "duration": 2, "velocity": 99}, {"time": 1667, "pitch": 40, "duration": 16, "velocity": 78}, {"time": 1670, "pitch": 47, "duration": 13, "velocity": 73}, {"time": 1673, "pitch": 52, "duration": 7, "velocity": 86}, {"time": 1676, "pitch": 59, "duration": 9, "velocity": 85}, {"time": 1679, "pitch": 67, "duration": 11, "velocity": 102}, {"time": 1682, "pitch": 52, "duration": 2, "velocity": 92}, {"time": 1685, "pitch": 64, "duration": 5, "velocity": 86}, {"time": 1688, "pitch": 59, "duration": 3, "velocity": 90}, {"time": 1691, "pitch": 47, "duration": 17, "velocity": 69}, {"time": 1694, "pitch": 54, "duration": 14, "velocity": 82}, {"time": 1697, "pitch": 59, "duration": 7, "velocity": 83}, {"time": 1700, "pitch": 62, "duration": 7, "velocity": 89}, {"time": 1703, "pitch": 71, "duration": 12, "velocity": 102}, {"time": 1706, "pitch": 59, "duration": 2, "velocity": 92}, {"time": 1709, "pitch": 66, "duration": 6, "velocity": 107}, {"time": 1712, "pitch": 62, "duration": 3, "velocity": 107}, {"time": 1715, "pitch": 36, "duration": 17, "velocity": 76}, {"time": 1718, "pitch": 43, "duration": 14, "velocity": 92}, {"time": 1721, "pitch": 48, "duration": 7, "velocity": 96}, {"time": 1724, "pitch": 55, "duration": 7, "velocity": 89}, {"time": 1727, "pitch": 64, "duration": 12, "velocity": 99}, {"time": 1730, "pitch": 48, "duration": 4, "velocity": 83}, {"time": 1733, "pitch": 60, "duration": 5, "velocity": 96}, {"time": 1736, "pitch": 55, "duration": 2, "velocity": 100}, {"time": 1739, "pitch": 43, "duration": 20, "velocity": 74}, {"time": 1742, "pitch": 50, "duration": 19, "velocity": 78}, {"time": 1745, "pitch": 55, "duration": 7, "velocity": 86}, {"time": 1748, "pitch": 59, "duration": 8, "velocity": 90}, {"time": 1751, "pitch": 67, "duration": 10, "velocity": 100}, {"time": 1754, "pitch": 55, "duration": 3, "velocity": 90}, {"time": 1757, "pitch": 62, "duration": 4, "velocity": 97}, {"time": 1760, "pitch": 59, "duration": 3, "velocity": 93}, {"time": 1763, "pitch": 45, "duration": 5, "velocity": 93}, {"time": 1766, "pitch": 57, "duration": 9, "velocity": 97}, {"time": 1769, "pitch": 64, "duration": 5, "velocity": 99}, {"time": 1772, "pitch": 60, "duration": 2, "velocity": 92}, {"time": 1775, "pitch": 38, "duration": 8, "velocity": 82}, {"time": 1778, "pitch": 45, "duration": 6, "velocity": 74}, {"time": 1781, "pitch": 50, "duration": 5, "velocity": 79}, {"time": 1784, "pitch": 66, "duration": 3, "velocity": 99}, {"time": 1787, "pitch": 43, "duration": 22, "velocity": 69}, {"time": 1790, "pitch": 50, "duration": 21, "velocity": 77}, {"time": 1793, "pitch": 55, "duration": 7, "velocity": 82}, {"time": 1796, "pitch": 59, "duration": 9, "velocity": 71}, {"time": 1799, "pitch": 67, "duration": 35, "velocity": 90}, {"time": 1802, "pitch": 55, "duration": 32, "velocity": 72}, {"time": 1805, "pitch": 62, "duration": 29, "velocity": 73}, {"time": 1808, "pitch": 59, "duration": 26, "velocity": 68}, {"time": 1811, "pitch": 43, "duration": 23, "velocity": 68}, {"time": 1835, "pitch": 43, "duration": 22, "velocity": 69}, {"time": 1841, "pitch": 50, "duration": 18, "velocity": 50}, {"time": 1847, "pitch": 55, "duration": 17, "velocity": 52}, {"time": 1847, "pitch": 67, "duration": 13, "velocity": 75}, {"time": 1853, "pitch": 62, "duration": 9, "velocity": 57}, {"time": 1859, "pitch": 43, "duration": 18, "velocity": 64}, {"time": 1865, "pitch": 50, "duration": 11, "velocity": 47}, {"time": 1871, "pitch": 55, "duration": 4, "velocity": 55}, {"time": 1871, "pitch": 67, "duration": 14, "velocity": 70}, {"time": 1877, "pitch": 62, "duration": 6, "velocity": 56}, {"time": 1883, "pitch": 40, "duration": 18, "velocity": 69}, {"time": 1889, "pitch": 47, "duration": 12, "velocity": 45}, {"time": 1895, "pitch": 52, "duration": 8, "velocity": 62}, {"time": 1895, "pitch": 64, "duration": 13, "velocity": 62}, {"time": 1895, "pitch": 67, "duration": 13, "velocity": 81}, {"time": 1901, "pitch": 59, "duration": 8, "velocity": 58}, {"time": 1907, "pitch": 45, "duration": 15, "velocity": 68}, {"time": 1913, "pitch": 52, "duration": 8, "velocity": 56}, {"time": 1919, "pitch": 64, "duration": 12, "velocity": 77}, {"time": 1925, "pitch": 60, "duration": 7, "velocity": 51}, {"time": 1931, "pitch": 36, "duration": 17, "velocity": 81}, {"time": 1937, "pitch": 43, "duration": 10, "velocity": 38}, {"time": 1943, "pitch": 48, "duration": 7, "velocity": 53}, {"time": 1943, "pitch": 64, "duration": 13, "velocity": 93}, {"time": 1949, "pitch": 60, "duration": 7, "velocity": 58}, {"time": 1955, "pitch": 43, "duration": 17, "velocity": 69}, {"time": 1961, "pitch": 50, "duration": 10, "velocity": 50}, {"time": 1967, "pitch": 62, "duration": 12, "velocity": 78}, {"time": 1973, "pitch": 59, "duration": 6, "velocity": 49}, {"time": 1979, "pitch": 36, "duration": 21, "velocity": 66}, {"time": 1985, "pitch": 43, "duration": 17, "velocity": 49}, {"time": 1991, "pitch": 48, "duration": 4, "velocity": 61}, {"time": 1991, "pitch": 64, "duration": 12, "velocity": 81}, {"time": 1997, "pitch": 55, "duration": 7, "velocity": 71}, {"time": 2003, "pitch": 38, "duration": 16, "velocity": 43}, {"time": 2006, "pitch": 45, "duration": 13, "velocity": 52}, {"time": 2009, "pitch": 50, "duration": 7, "velocity": 70}, {"time": 2012, "pitch": 57, "duration": 5, "velocity": 75}, {"time": 2015, "pitch": 66, "duration": 13, "velocity": 122}, {"time": 2018, "pitch": 50, "duration": 3, "velocity": 66}, {"time": 2021, "pitch": 62, "duration": 6, "velocity": 88}, {"time": 2024, "pitch": 57, "duration": 4, "velocity": 70}, {"time": 2027, "pitch": 43, "duration": 19, "velocity": 79}, {"time": 2033, "pitch": 50, "duration": 13, "velocity": 50}, {"time": 2039, "pitch": 55, "duration": 4, "velocity": 69}, {"time": 2039, "pitch": 67, "duration": 11, "velocity": 64}, {"time": 2039, "pitch": 71, "duration": 11, "velocity": 66}, {"time": 2045, "pitch": 62, "duration": 6, "velocity": 61}, {"time": 2051, "pitch": 40, "duration": 18, "velocity": 72}, {"time": 2057, "pitch": 47, "duration": 11, "velocity": 42}, {"time": 2063, "pitch": 52, "duration": 5, "velocity": 63}, {"time": 2063, "pitch": 64, "duration": 10, "velocity": 81}, {"time": 2069, "pitch": 59, "duration": 6, "velocity": 67}, {"time": 2075, "pitch": 43, "duration": 17, "velocity": 74}, {"time": 2081, "pitch": 50, "duration": 10, "velocity": 44}, {"time": 2087, "pitch": 55, "duration": 3, "velocity": 38}, {"time": 2087, "pitch": 71, "duration": 12, "velocity": 81}, {"time": 2093, "pitch": 67, "duration": 6, "velocity": 64}, {"time": 2099, "pitch": 38, "duration": 16, "velocity": 75}, {"time": 2105, "pitch": 45, "duration": 10, "velocity": 49}, {"time": 2111, "pitch": 50, "duration": 5, "velocity": 53}, {"time": 2111, "pitch": 66, "duration": 13, "velocity": 92}, {"time": 2117, "pitch": 62, "duration": 6, "velocity": 63}, {"time": 2123, "pitch": 45, "duration": 15, "velocity": 70}, {"time": 2129, "pitch": 52, "duration": 8, "velocity": 59}, {"time": 2135, "pitch": 64, "duration": 12, "velocity": 89}, {"time": 2141, "pitch": 60, "duration": 6, "velocity": 64}, {"time": 2147, "pitch": 40, "duration": 19, "velocity": 85}, {"time": 2153, "pitch": 47, "duration": 12, "velocity": 44}, {"time": 2159, "pitch": 52, "duration": 5, "velocity": 58}, {"time": 2159, "pitch": 67, "duration": 10, "velocity": 79}, {"time": 2165, "pitch": 64, "duration": 4, "velocity": 76}, {"time": 2171, "pitch": 36, "duration": 11, "velocity": 83}, {"time": 2177, "pitch": 64, "duration": 5, "velocity": 93}, {"time": 2183, "pitch": 38, "duration": 6, "velocity": 88}, {"time": 2189, "pitch": 62, "duration": 6, "velocity": 83}, {"time": 2189, "pitch": 66, "duration": 6, "velocity": 83}, {"time": 2195, "pitch": 43, "duration": 18, "velocity": 67}, {"time": 2198, "pitch": 50, "duration": 10, "velocity": 63}, {"time": 2201, "pitch": 55, "duration": 6, "velocity": 70}, {"time": 2204, "pitch": 57, "duration": 3, "velocity": 58}, {"time": 2207, "pitch": 62, "duration": 7, "velocity": 99}, {"time": 2210, "pitch": 50, "duration": 2, "velocity": 59}, {"time": 2213, "pitch": 59, "duration": 4, "velocity": 99}, {"time": 2216, "pitch": 55, "duration": 13, "velocity": 67}, {"time": 2219, "pitch": 36, "duration": 11, "velocity": 97}, {"time": 2219, "pitch": 60, "duration": 7, "velocity": 112}, {"time": 2219, "pitch": 64, "duration": 7, "velocity": 100}, {"time": 2222, "pitch": 43, "duration": 9, "velocity": 78}, {"time": 2225, "pitch": 48, "duration": 5, "velocity": 100}, {"time": 2231, "pitch": 38, "duration": 4, "velocity": 96}, {"time": 2231, "pitch": 57, "duration": 12, "velocity": 93}, {"time": 2231, "pitch": 62, "duration": 12, "velocity": 107}, {"time": 2231, "pitch": 66, "duration": 12, "velocity": 117}, {"time": 2243, "pitch": 43, "duration": 20, "velocity": 99}, {"time": 2246, "pitch": 50, "duration": 10, "velocity": 88}, {"time": 2249, "pitch": 55, "duration": 4, "velocity": 93}, {"time": 2252, "pitch": 59, "duration": 8, "velocity": 90}, {"time": 2255, "pitch": 67, "duration": 11, "velocity": 117}, {"time": 2258, "pitch": 50, "duration": 5, "velocity": 93}, {"time": 2261, "pitch": 62, "duration": 6, "velocity": 107}, {"time": 2264, "pitch": 59, "duration": 3, "velocity": 96}, {"time": 2267, "pitch": 38, "duration": 21, "velocity": 90}, {"time": 2270, "pitch": 45, "duration": 20, "velocity": 76}, {"time": 2273, "pitch": 50, "duration": 6, "velocity": 83}, {"time": 2276, "pitch": 57, "duration": 6, "velocity": 90}, {"time": 2279, "pitch": 66, "duration": 11, "velocity": 127}, {"time": 2282, "pitch": 50, "duration": 3, "velocity": 97}, {"time": 2285, "pitch": 62, "duration": 5, "velocity": 99}, {"time": 2288, "pitch": 57, "duration": 3, "velocity": 96}, {"time": 2291, "pitch": 40, "duration": 16, "velocity": 90}, {"time": 2294, "pitch": 47, "duration": 13, "velocity": 81}, {"time": 2297, "pitch": 52, "duration": 6, "velocity": 88}, {"time": 2300, "pitch": 59, "duration": 7, "velocity": 93}, {"time": 2303, "pitch": 67, "duration": 11, "velocity": 107}, {"time": 2306, "pitch": 52, "duration": 3, "velocity": 97}, {"time": 2309, "pitch": 64, "duration": 4, "velocity": 97}, {"time": 2312, "pitch": 59, "duration": 3, "velocity": 97}, {"time": 2315, "pitch": 47, "duration": 19, "velocity": 78}, {"time": 2318, "pitch": 54, "duration": 15, "velocity": 72}, {"time": 2321, "pitch": 59, "duration": 7, "velocity": 93}, {"time": 2324, "pitch": 62, "duration": 8, "velocity": 93}, {"time": 2327, "pitch": 71, "duration": 11, "velocity": 100}, {"time": 2330, "pitch": 59, "duration": 2, "velocity": 96}, {"time": 2333, "pitch": 66, "duration": 5, "velocity": 117}, {"time": 2336, "pitch": 62, "duration": 3, "velocity": 89}, {"time": 2339, "pitch": 36, "duration": 17, "velocity": 81}, {"time": 2342, "pitch": 43, "duration": 14, "velocity": 68}, {"time": 2345, "pitch": 48, "duration": 7, "velocity": 79}, {"time": 2348, "pitch": 55, "duration": 7, "velocity": 86}, {"time": 2351, "pitch": 64, "duration": 12, "velocity": 95}, {"time": 2354, "pitch": 48, "duration": 4, "velocity": 73}, {"time": 2357, "pitch": 60, "duration": 6, "velocity": 83}, {"time": 2360, "pitch": 55, "duration": 2, "velocity": 88}, {"time": 2363, "pitch": 43, "duration": 19, "velocity": 79}, {"time": 2366, "pitch": 50, "duration": 20, "velocity": 67}, {"time": 2369, "pitch": 55, "duration": 7, "velocity": 93}, {"time": 2372, "pitch": 62, "duration": 6, "velocity": 92}, {"time": 2375, "pitch": 71, "duration": 12, "velocity": 107}, {"time": 2378, "pitch": 55, "duration": 3, "velocity": 90}, {"time": 2381, "pitch": 67, "duration": 5, "velocity": 90}, {"time": 2384, "pitch": 62, "duration": 3, "velocity": 96}, {"time": 2387, "pitch": 45, "duration": 17, "velocity": 92}, {"time": 2390, "pitch": 52, "duration": 10, "velocity": 82}, {"time": 2393, "pitch": 57, "duration": 3, "velocity": 95}, {"time": 2396, "pitch": 60, "duration": 9, "velocity": 112}, {"time": 2399, "pitch": 64, "duration": 11, "velocity": 99}, {"time": 2402, "pitch": 52, "duration": 2, "velocity": 82}, {"time": 2405, "pitch": 57, "duration": 14, "velocity": 100}, {"time": 2408, "pitch": 45, "duration": 1, "velocity": 39}, {"time": 2408, "pitch": 60, "duration": 4, "velocity": 112}, {"time": 2411, "pitch": 38, "duration": 17, "velocity": 90}, {"time": 2414, "pitch": 45, "duration": 14, "velocity": 81}, {"time": 2417, "pitch": 50, "duration": 6, "velocity": 93}, {"time": 2420, "pitch": 62, "duration": 1, "velocity": 96}, {"time": 2420, "pitch": 66, "duration": 2, "velocity": 112}, {"time": 2423, "pitch": 62, "duration": 6, "velocity": 100}, {"time": 2423, "pitch": 66, "duration": 11, "velocity": 122}, {"time": 2426, "pitch": 50, "duration": 4, "velocity": 97}, {"time": 2429, "pitch": 57, "duration": 5, "velocity": 100}, {"time": 2432, "pitch": 62, "duration": 2, "velocity": 102}, {"time": 2435, "pitch": 43, "duration": 18, "velocity": 85}, {"time": 2438, "pitch": 50, "duration": 14, "velocity": 77}, {"time": 2441, "pitch": 55, "duration": 7, "velocity": 92}, {"time": 2444, "pitch": 62, "duration": 8, "velocity": 99}, {"time": 2447, "pitch": 71, "duration": 11, "velocity": 99}, {"time": 2450, "pitch": 55, "duration": 2, "velocity": 96}, {"time": 2453, "pitch": 67, "duration": 5, "velocity": 99}, {"time": 2456, "pitch": 62, "duration": 3, "velocity": 100}, {"time": 2459, "pitch": 38, "duration": 22, "velocity": 72}, {"time": 2462, "pitch": 45, "duration": 20, "velocity": 50}, {"time": 2465, "pitch": 50, "duration": 6, "velocity": 76}, {"time": 2468, "pitch": 57, "duration": 6, "velocity": 88}, {"time": 2471, "pitch": 66, "duration": 12, "velocity": 117}, {"time": 2474, "pitch": 50, "duration": 3, "velocity": 90}, {"time": 2477, "pitch": 62, "duration": 6, "velocity": 89}, {"time": 2480, "pitch": 57, "duration": 4, "velocity": 96}, {"time": 2483, "pitch": 40, "duration": 17, "velocity": 77}, {"time": 2486, "pitch": 47, "duration": 14, "velocity": 70}, {"time": 2489, "pitch": 52, "duration": 7, "velocity": 86}, {"time": 2492, "pitch": 59, "duration": 9, "velocity": 88}, {"time": 2495, "pitch": 67, "duration": 12, "velocity": 96}, {"time": 2498, "pitch": 52, "duration": 4, "velocity": 75}, {"time": 2501, "pitch": 64, "duration": 5, "velocity": 93}, {"time": 2504, "pitch": 59, "duration": 4, "velocity": 90}, {"time": 2507, "pitch": 47, "duration": 17, "velocity": 70}, {"time": 2510, "pitch": 54, "duration": 13, "velocity": 73}, {"time": 2513, "pitch": 59, "duration": 8, "velocity": 85}, {"time": 2516, "pitch": 62, "duration": 5, "velocity": 85}, {"time": 2519, "pitch": 71, "duration": 12, "velocity": 100}, {"time": 2522, "pitch": 66, "duration": 3, "velocity": 92}, {"time": 2525, "pitch": 62, "duration": 6, "velocity": 93}, {"time": 2528, "pitch": 66, "duration": 3, "velocity": 93}, {"time": 2531, "pitch": 36, "duration": 17, "velocity": 78}, {"time": 2534, "pitch": 43, "duration": 15, "velocity": 53}, {"time": 2537, "pitch": 48, "duration": 7, "velocity": 81}, {"time": 2540, "pitch": 55, "duration": 9, "velocity": 79}, {"time": 2543, "pitch": 64, "duration": 12, "velocity": 93}, {"time": 2546, "pitch": 48, "duration": 4, "velocity": 72}, {"time": 2549, "pitch": 60, "duration": 6, "velocity": 97}, {"time": 2552, "pitch": 55, "duration": 3, "velocity": 92}, {"time": 2555, "pitch": 43, "duration": 21, "velocity": 75}, {"time": 2558, "pitch": 50, "duration": 20, "velocity": 54}, {"time": 2561, "pitch": 55, "duration": 7, "velocity": 89}, {"time": 2564, "pitch": 59, "duration": 9, "velocity": 86}, {"time": 2567, "pitch": 67, "duration": 11, "velocity": 99}, {"time": 2570, "pitch": 55, "duration": 3, "velocity": 89}, {"time": 2573, "pitch": 62, "duration": 4, "velocity": 90}, {"time": 2576, "pitch": 59, "duration": 3, "velocity": 93}, {"time": 2579, "pitch": 45, "duration": 11, "velocity": 92}, {"time": 2582, "pitch": 57, "duration": 10, "velocity": 90}, {"time": 2585, "pitch": 64, "duration": 5, "velocity": 92}, {"time": 2588, "pitch": 60, "duration": 2, "velocity": 92}, {"time": 2591, "pitch": 50, "duration": 11, "velocity": 92}, {"time": 2594, "pitch": 57, "duration": 7, "velocity": 78}, {"time": 2597, "pitch": 66, "duration": 5, "velocity": 117}, {"time": 2600, "pitch": 62, "duration": 3, "velocity": 99}, {"time": 2603, "pitch": 43, "duration": 23, "velocity": 92}, {"time": 2606, "pitch": 50, "duration": 21, "velocity": 82}, {"time": 2609, "pitch": 55, "duration": 6, "velocity": 92}, {"time": 2612, "pitch": 59, "duration": 4, "velocity": 72}, {"time": 2615, "pitch": 67, "duration": 7, "velocity": 122}, {"time": 2618, "pitch": 55, "duration": 2, "velocity": 79}, {"time": 2621, "pitch": 62, "duration": 2, "velocity": 90}, {"time": 2624, "pitch": 59, "duration": 10, "velocity": 99}, {"time": 2624, "pitch": 62, "duration": 10, "velocity": 102}, {"time": 2624, "pitch": 67, "duration": 10, "velocity": 96}, {"time": 2627, "pitch": 43, "duration": 20, "velocity": 83}, {"time": 2630, "pitch": 50, "duration": 11, "velocity": 82}, {"time": 2633, "pitch": 55, "duration": 4, "velocity": 102}, {"time": 2636, "pitch": 59, "duration": 2, "velocity": 77}, {"time": 2636, "pitch": 62, "duration": 2, "velocity": 83}, {"time": 2636, "pitch": 67, "duration": 2, "velocity": 78}, {"time": 2639, "pitch": 59, "duration": 4, "velocity": 102}, {"time": 2639, "pitch": 62, "duration": 4, "velocity": 122}, {"time": 2639, "pitch": 67, "duration": 4, "velocity": 112}, {"time": 2642, "pitch": 50, "duration": 7, "velocity": 99}, {"time": 2645, "pitch": 59, "duration": 1, "velocity": 100}, {"time": 2645, "pitch": 62, "duration": 2, "velocity": 117}, {"time": 2645, "pitch": 67, "duration": 5, "velocity": 112}, {"time": 2648, "pitch": 59, "duration": 2, "velocity": 117}, {"time": 2648, "pitch": 62, "duration": 2, "velocity": 67}, {"time": 2651, "pitch": 47, "duration": 22, "velocity": 92}, {"time": 2654, "pitch": 54, "duration": 10, "velocity": 86}, {"time": 2657, "pitch": 59, "duration": 5, "velocity": 92}, {"time": 2660, "pitch": 63, "duration": 5, "velocity": 93}, {"time": 2663, "pitch": 66, "duration": 19, "velocity": 112}, {"time": 2666, "pitch": 54, "duration": 9, "velocity": 95}, {"time": 2669, "pitch": 63, "duration": 12, "velocity": 112}, {"time": 2672, "pitch": 59, "duration": 4, "velocity": 95}, {"time": 2675, "pitch": 47, "duration": 18, "velocity": 74}, {"time": 2678, "pitch": 54, "duration": 10, "velocity": 96}, {"time": 2681, "pitch": 59, "duration": 2, "velocity": 89}, {"time": 2684, "pitch": 63, "duration": 2, "velocity": 112}, {"time": 2684, "pitch": 66, "duration": 2, "velocity": 97}, {"time": 2687, "pitch": 63, "duration": 6, "velocity": 127}, {"time": 2687, "pitch": 66, "duration": 9, "velocity": 127}, {"time": 2690, "pitch": 54, "duration": 2, "velocity": 96}, {"time": 2693, "pitch": 59, "duration": 5, "velocity": 122}, {"time": 2696, "pitch": 63, "duration": 2, "velocity": 99}, {"time": 2699, "pitch": 40, "duration": 21, "velocity": 93}, {"time": 2699, "pitch": 59, "duration": 6, "velocity": 71}, {"time": 2699, "pitch": 64, "duration": 10, "velocity": 96}, {"time": 2699, "pitch": 67, "duration": 9, "velocity": 93}, {"time": 2702, "pitch": 47, "duration": 20, "velocity": 95}, {"time": 2705, "pitch": 52, "duration": 5, "velocity": 86}, {"time": 2708, "pitch": 59, "duration": 4, "velocity": 86}, {"time": 2711, "pitch": 64, "duration": 6, "velocity": 102}, {"time": 2711, "pitch": 67, "duration": 6, "velocity": 100}, {"time": 2714, "pitch": 52, "duration": 5, "velocity": 97}, {"time": 2717, "pitch": 59, "duration": 4, "velocity": 77}, {"time": 2720, "pitch": 64, "duration": 1, "velocity": 85}, {"time": 2720, "pitch": 67, "duration": 1, "velocity": 75}, {"time": 2723, "pitch": 40, "duration": 11, "velocity": 97}, {"time": 2723, "pitch": 59, "duration": 1, "velocity": 66}, {"time": 2723, "pitch": 64, "duration": 4, "velocity": 127}, {"time": 2723, "pitch": 67, "duration": 4, "velocity": 127}, {"time": 2726, "pitch": 59, "duration": 4, "velocity": 73}, {"time": 2729, "pitch": 64, "duration": 4, "velocity": 117}, {"time": 2729, "pitch": 67, "duration": 4, "velocity": 112}, {"time": 2732, "pitch": 59, "duration": 1, "velocity": 95}, {"time": 2735, "pitch": 38, "duration": 11, "velocity": 112}, {"time": 2735, "pitch": 57, "duration": 3, "velocity": 96}, {"time": 2735, "pitch": 62, "duration": 7, "velocity": 112}, {"time": 2735, "pitch": 66, "duration": 9, "velocity": 127}, {"time": 2741, "pitch": 57, "duration": 3, "velocity": 112}, {"time": 2744, "pitch": 62, "duration": 2, "velocity": 95}, {"time": 2747, "pitch": 36, "duration": 22, "velocity": 92}, {"time": 2747, "pitch": 60, "duration": 7, "velocity": 81}, {"time": 2747, "pitch": 64, "duration": 4, "velocity": 100}, {"time": 2750, "pitch": 43, "duration": 21, "velocity": 96}, {"time": 2753, "pitch": 48, "duration": 7, "velocity": 102}, {"time": 2756, "pitch": 60, "duration": 5, "velocity": 96}, {"time": 2759, "pitch": 67, "duration": 12, "velocity": 122}, {"time": 2762, "pitch": 48, "duration": 12, "velocity": 100}, {"time": 2765, "pitch": 64, "duration": 6, "velocity": 112}, {"time": 2768, "pitch": 60, "duration": 4, "velocity": 100}, {"time": 2771, "pitch": 36, "duration": 22, "velocity": 78}, {"time": 2774, "pitch": 43, "duration": 21, "velocity": 69}, {"time": 2777, "pitch": 48, "duration": 7, "velocity": 85}, {"time": 2780, "pitch": 55, "duration": 9, "velocity": 89}, {"time": 2783, "pitch": 64, "duration": 8, "velocity": 117}, {"time": 2786, "pitch": 48, "duration": 3, "velocity": 97}, {"time": 2789, "pitch": 60, "duration": 4, "velocity": 107}, {"time": 2792, "pitch": 57, "duration": 2, "velocity": 79}, {"time": 2795, "pitch": 38, "duration": 22, "velocity": 88}, {"time": 2795, "pitch": 57, "duration": 7, "velocity": 78}, {"time": 2795, "pitch": 62, "duration": 10, "velocity": 122}, {"time": 2795, "pitch": 66, "duration": 10, "velocity": 127}, {"time": 2798, "pitch": 45, "duration": 22, "velocity": 74}, {"time": 2801, "pitch": 50, "duration": 7, "velocity": 88}, {"time": 2804, "pitch": 57, "duration": 2, "velocity": 90}, {"time": 2807, "pitch": 57, "duration": 3, "velocity": 70}, {"time": 2807, "pitch": 62, "duration": 7, "velocity": 122}, {"time": 2807, "pitch": 66, "duration": 6, "velocity": 122}, {"time": 2810, "pitch": 50, "duration": 9, "velocity": 88}, {"time": 2813, "pitch": 57, "duration": 12, "velocity": 83}, {"time": 2816, "pitch": 62, "duration": 9, "velocity": 102}, {"time": 2816, "pitch": 66, "duration": 9, "velocity": 122}, {"time": 2819, "pitch": 38, "duration": 17, "velocity": 82}, {"time": 2822, "pitch": 45, "duration": 15, "velocity": 78}, {"time": 2825, "pitch": 50, "duration": 9, "velocity": 88}, {"time": 2828, "pitch": 57, "duration": 1, "velocity": 72}, {"time": 2828, "pitch": 62, "duration": 1, "velocity": 99}, {"time": 2828, "pitch": 66, "duration": 1, "velocity": 95}, {"time": 2831, "pitch": 57, "duration": 11, "velocity": 96}, {"time": 2831, "pitch": 62, "duration": 12, "velocity": 107}, {"time": 2831, "pitch": 66, "duration": 12, "velocity": 122}, {"time": 2843, "pitch": 43, "duration": 21, "velocity": 69}, {"time": 2846, "pitch": 50, "duration": 18, "velocity": 47}, {"time": 2849, "pitch": 55, "duration": 10, "velocity": 81}, {"time": 2852, "pitch": 62, "duration": 9, "velocity": 79}, {"time": 2855, "pitch": 71, "duration": 11, "velocity": 99}, {"time": 2861, "pitch": 67, "duration": 4, "velocity": 72}, {"time": 2864, "pitch": 62, "duration": 3, "velocity": 61}, {"time": 2867, "pitch": 38, "duration": 20, "velocity": 76}, {"time": 2873, "pitch": 45, "duration": 18, "velocity": 50}, {"time": 2879, "pitch": 50, "duration": 4, "velocity": 58}, {"time": 2879, "pitch": 62, "duration": 17, "velocity": 74}, {"time": 2879, "pitch": 66, "duration": 11, "velocity": 85}, {"time": 2885, "pitch": 57, "duration": 7, "velocity": 59}, {"time": 2891, "pitch": 40, "duration": 14, "velocity": 75}, {"time": 2897, "pitch": 47, "duration": 9, "velocity": 41}, {"time": 2903, "pitch": 52, "duration": 5, "velocity": 36}, {"time": 2903, "pitch": 64, "duration": 13, "velocity": 76}, {"time": 2903, "pitch": 67, "duration": 13, "velocity": 77}, {"time": 2909, "pitch": 59, "duration": 7, "velocity": 56}, {"time": 2915, "pitch": 47, "duration": 15, "velocity": 68}, {"time": 2921, "pitch": 54, "duration": 7, "velocity": 64}, {"time": 2927, "pitch": 62, "duration": 12, "velocity": 82}, {"time": 2927, "pitch": 66, "duration": 13, "velocity": 95}, {"time": 2933, "pitch": 59, "duration": 7, "velocity": 88}, {"time": 2939, "pitch": 36, "duration": 17, "velocity": 89}, {"time": 2945, "pitch": 43, "duration": 12, "velocity": 42}, {"time": 2951, "pitch": 48, "duration": 8, "velocity": 62}, {"time": 2951, "pitch": 60, "duration": 12, "velocity": 90}, {"time": 2951, "pitch": 64, "duration": 12, "velocity": 92}, {"time": 2957, "pitch": 55, "duration": 6, "velocity": 74}, {"time": 2963, "pitch": 43, "duration": 21, "velocity": 74}, {"time": 2969, "pitch": 50, "duration": 18, "velocity": 53}, {"time": 2975, "pitch": 62, "duration": 13, "velocity": 93}, {"time": 2981, "pitch": 59, "duration": 6, "velocity": 81}, {"time": 2987, "pitch": 45, "duration": 18, "velocity": 92}, {"time": 2993, "pitch": 52, "duration": 11, "velocity": 78}, {"time": 2999, "pitch": 60, "duration": 8, "velocity": 100}, {"time": 2999, "pitch": 64, "duration": 7, "velocity": 95}, {"time": 3005, "pitch": 57, "duration": 4, "velocity": 76}, {"time": 3011, "pitch": 38, "duration": 18, "velocity": 96}, {"time": 3011, "pitch": 57, "duration": 7, "velocity": 117}, {"time": 3011, "pitch": 62, "duration": 8, "velocity": 122}, {"time": 3011, "pitch": 66, "duration": 10, "velocity": 127}, {"time": 3014, "pitch": 45, "duration": 16, "velocity": 92}, {"time": 3017, "pitch": 50, "duration": 6, "velocity": 112}, {"time": 3020, "pitch": 57, "duration": 5, "velocity": 112}, {"time": 3020, "pitch": 62, "duration": 1, "velocity": 55}, {"time": 3023, "pitch": 62, "duration": 6, "velocity": 122}, {"time": 3023, "pitch": 66, "duration": 12, "velocity": 127}, {"time": 3026, "pitch": 50, "duration": 5, "velocity": 112}, {"time": 3029, "pitch": 57, "duration": 6, "velocity": 117}, {"time": 3032, "pitch": 62, "duration": 3, "velocity": 107}, {"time": 3035, "pitch": 43, "duration": 18, "velocity": 85}, {"time": 3038, "pitch": 50, "duration": 14, "velocity": 99}, {"time": 3041, "pitch": 55, "duration": 7, "velocity": 102}, {"time": 3044, "pitch": 62, "duration": 6, "velocity": 102}, {"time": 3047, "pitch": 71, "duration": 11, "velocity": 127}, {"time": 3050, "pitch": 55, "duration": 1, "velocity": 95}, {"time": 3053, "pitch": 67, "duration": 5, "velocity": 117}, {"time": 3056, "pitch": 62, "duration": 3, "velocity": 122}, {"time": 3059, "pitch": 38, "duration": 22, "velocity": 65}, {"time": 3062, "pitch": 45, "duration": 20, "velocity": 96}, {"time": 3065, "pitch": 50, "duration": 7, "velocity": 95}, {"time": 3068, "pitch": 57, "duration": 7, "velocity": 99}, {"time": 3071, "pitch": 66, "duration": 12, "velocity": 127}, {"time": 3074, "pitch": 50, "duration": 9, "velocity": 92}, {"time": 3077, "pitch": 62, "duration": 6, "velocity": 112}, {"time": 3080, "pitch": 57, "duration": 3, "velocity": 100}, {"time": 3083, "pitch": 40, "duration": 16, "velocity": 89}, {"time": 3086, "pitch": 47, "duration": 13, "velocity": 96}, {"time": 3089, "pitch": 52, "duration": 7, "velocity": 96}, {"time": 3092, "pitch": 59, "duration": 4, "velocity": 102}, {"time": 3095, "pitch": 67, "duration": 12, "velocity": 117}, {"time": 3098, "pitch": 52, "duration": 3, "velocity": 93}, {"time": 3101, "pitch": 64, "duration": 6, "velocity": 99}, {"time": 3104, "pitch": 59, "duration": 3, "velocity": 96}, {"time": 3107, "pitch": 47, "duration": 18, "velocity": 93}, {"time": 3110, "pitch": 54, "duration": 14, "velocity": 86}, {"time": 3113, "pitch": 59, "duration": 7, "velocity": 99}, {"time": 3116, "pitch": 62, "duration": 6, "velocity": 93}, {"time": 3119, "pitch": 71, "duration": 10, "velocity": 112}, {"time": 3122, "pitch": 59, "duration": 2, "velocity": 93}, {"time": 3125, "pitch": 66, "duration": 4, "velocity": 117}, {"time": 3128, "pitch": 62, "duration": 2, "velocity": 100}, {"time": 3131, "pitch": 36, "duration": 17, "velocity": 74}, {"time": 3134, "pitch": 43, "duration": 15, "velocity": 72}, {"time": 3137, "pitch": 48, "duration": 7, "velocity": 89}, {"time": 3140, "pitch": 55, "duration": 10, "velocity": 99}, {"time": 3143, "pitch": 64, "duration": 13, "velocity": 100}, {"time": 3146, "pitch": 48, "duration": 5, "velocity": 86}, {"time": 3149, "pitch": 60, "duration": 7, "velocity": 99}, {"time": 3152, "pitch": 55, "duration": 3, "velocity": 92}, {"time": 3155, "pitch": 43, "duration": 21, "velocity": 73}, {"time": 3158, "pitch": 50, "duration": 20, "velocity": 82}, {"time": 3161, "pitch": 55, "duration": 7, "velocity": 78}, {"time": 3164, "pitch": 59, "duration": 8, "velocity": 97}, {"time": 3167, "pitch": 67, "duration": 10, "velocity": 102}, {"time": 3170, "pitch": 55, "duration": 3, "velocity": 85}, {"time": 3173, "pitch": 62, "duration": 4, "velocity": 99}, {"time": 3176, "pitch": 59, "duration": 3, "velocity": 99}, {"time": 3179, "pitch": 45, "duration": 5, "velocity": 99}, {"time": 3182, "pitch": 57, "duration": 9, "velocity": 76}, {"time": 3185, "pitch": 64, "duration": 5, "velocity": 102}, {"time": 3188, "pitch": 60, "duration": 2, "velocity": 99}, {"time": 3191, "pitch": 38, "duration": 8, "velocity": 76}, {"time": 3194, "pitch": 45, "duration": 6, "velocity": 81}, {"time": 3197, "pitch": 50, "duration": 5, "velocity": 97}, {"time": 3200, "pitch": 66, "duration": 3, "velocity": 99}, {"time": 3203, "pitch": 43, "duration": 22, "velocity": 82}, {"time": 3206, "pitch": 50, "duration": 10, "velocity": 67}, {"time": 3209, "pitch": 55, "duration": 4, "velocity": 85}, {"time": 3212, "pitch": 59, "duration": 2, "velocity": 96}, {"time": 3215, "pitch": 62, "duration": 21, "velocity": 100}, {"time": 3218, "pitch": 50, "duration": 9, "velocity": 64}, {"time": 3221, "pitch": 59, "duration": 16, "velocity": 89}, {"time": 3224, "pitch": 55, "duration": 14, "velocity": 86}, {"time": 3227, "pitch": 43, "duration": 18, "velocity": 77}, {"time": 3233, "pitch": 50, "duration": 7, "velocity": 74}, {"time": 3239, "pitch": 62, "duration": 11, "velocity": 107}, {"time": 3242, "pitch": 50, "duration": 2, "velocity": 58}, {"time": 3245, "pitch": 59, "duration": 5, "velocity": 77}, {"time": 3248, "pitch": 55, "duration": 3, "velocity": 59}, {"time": 3251, "pitch": 36, "duration": 13, "velocity": 72}, {"time": 3254, "pitch": 43, "duration": 11, "velocity": 69}, {"time": 3257, "pitch": 48, "duration": 9, "velocity": 78}, {"time": 3260, "pitch": 55, "duration": 16, "velocity": 61}, {"time": 3263, "pitch": 64, "duration": 13, "velocity": 95}, {"time": 3275, "pitch": 43, "duration": 19, "velocity": 72}, {"time": 3281, "pitch": 50, "duration": 18, "velocity": 36}, {"time": 3287, "pitch": 62, "duration": 7, "velocity": 90}, {"time": 3299, "pitch": 45, "duration": 19, "velocity": 72}, {"time": 3305, "pitch": 52, "duration": 12, "velocity": 38}, {"time": 3311, "pitch": 60, "duration": 22, "velocity": 60}, {"time": 3311, "pitch": 64, "duration": 21, "velocity": 61}, {"time": 3332, "pitch": 38, "duration": 26, "velocity": 59}, {"time": 3338, "pitch": 45, "duration": 19, "velocity": 44}, {"time": 3344, "pitch": 50, "duration": 12, "velocity": 48}, {"time": 3350, "pitch": 54, "duration": 19, "velocity": 39}, {"time": 3371, "pitch": 43, "duration": 21, "velocity": 100}, {"time": 3374, "pitch": 50, "duration": 18, "velocity": 88}, {"time": 3377, "pitch": 55, "duration": 7, "velocity": 95}, {"time": 3380, "pitch": 59, "duration": 3, "velocity": 76}, {"time": 3383, "pitch": 62, "duration": 6, "velocity": 117}, {"time": 3386, "pitch": 55, "duration": 3, "velocity": 90}, {"time": 3389, "pitch": 59, "duration": 4, "velocity": 95}, {"time": 3392, "pitch": 62, "duration": 4, "velocity": 112}, {"time": 3395, "pitch": 38, "duration": 22, "velocity": 89}, {"time": 3398, "pitch": 45, "duration": 21, "velocity": 83}, {"time": 3401, "pitch": 50, "duration": 7, "velocity": 90}, {"time": 3404, "pitch": 57, "duration": 5, "velocity": 68}, {"time": 3407, "pitch": 66, "duration": 11, "velocity": 122}, {"time": 3410, "pitch": 50, "duration": 2, "velocity": 93}, {"time": 3413, "pitch": 62, "duration": 6, "velocity": 99}, {"time": 3416, "pitch": 57, "duration": 3, "velocity": 95}, {"time": 3419, "pitch": 40, "duration": 16, "velocity": 95}, {"time": 3422, "pitch": 47, "duration": 14, "velocity": 82}, {"time": 3425, "pitch": 52, "duration": 7, "velocity": 90}, {"time": 3428, "pitch": 59, "duration": 7, "velocity": 93}, {"time": 3431, "pitch": 67, "duration": 11, "velocity": 100}, {"time": 3434, "pitch": 52, "duration": 3, "velocity": 83}, {"time": 3437, "pitch": 64, "duration": 5, "velocity": 96}, {"time": 3440, "pitch": 59, "duration": 3, "velocity": 86}, {"time": 3443, "pitch": 47, "duration": 19, "velocity": 86}, {"time": 3446, "pitch": 54, "duration": 10, "velocity": 81}, {"time": 3449, "pitch": 59, "duration": 3, "velocity": 88}, {"time": 3452, "pitch": 62, "duration": 3, "velocity": 90}, {"time": 3455, "pitch": 66, "duration": 11, "velocity": 127}, {"time": 3458, "pitch": 54, "duration": 2, "velocity": 86}, {"time": 3461, "pitch": 62, "duration": 5, "velocity": 97}, {"time": 3464, "pitch": 59, "duration": 2, "velocity": 88}, {"time": 3467, "pitch": 36, "duration": 17, "velocity": 89}, {"time": 3470, "pitch": 43, "duration": 14, "velocity": 77}, {"time": 3473, "pitch": 48, "duration": 7, "velocity": 88}, {"time": 3476, "pitch": 55, "duration": 5, "velocity": 86}, {"time": 3479, "pitch": 64, "duration": 12, "velocity": 107}, {"time": 3482, "pitch": 48, "duration": 4, "velocity": 90}, {"time": 3485, "pitch": 60, "duration": 7, "velocity": 96}, {"time": 3488, "pitch": 55, "duration": 3, "velocity": 89}, {"time": 3491, "pitch": 43, "duration": 22, "velocity": 69}, {"time": 3494, "pitch": 50, "duration": 10, "velocity": 83}, {"time": 3497, "pitch": 55, "duration": 3, "velocity": 90}, {"time": 3500, "pitch": 59, "duration": 2, "velocity": 99}, {"time": 3503, "pitch": 62, "duration": 11, "velocity": 107}, {"time": 3506, "pitch": 50, "duration": 9, "velocity": 73}, {"time": 3509, "pitch": 59, "duration": 5, "velocity": 83}, {"time": 3512, "pitch": 55, "duration": 2, "velocity": 81}, {"time": 3515, "pitch": 45, "duration": 19, "velocity": 89}, {"time": 3518, "pitch": 52, "duration": 10, "velocity": 78}, {"time": 3521, "pitch": 57, "duration": 3, "velocity": 89}, {"time": 3524, "pitch": 60, "duration": 2, "velocity": 89}, {"time": 3527, "pitch": 64, "duration": 9, "velocity": 100}, {"time": 3530, "pitch": 52, "duration": 2, "velocity": 72}, {"time": 3533, "pitch": 60, "duration": 4, "velocity": 93}, {"time": 3536, "pitch": 57, "duration": 5, "velocity": 76}, {"time": 3539, "pitch": 38, "duration": 19, "velocity": 92}, {"time": 3542, "pitch": 45, "duration": 20, "velocity": 92}, {"time": 3545, "pitch": 50, "duration": 6, "velocity": 85}, {"time": 3548, "pitch": 57, "duration": 6, "velocity": 73}, {"time": 3551, "pitch": 66, "duration": 8, "velocity": 122}, {"time": 3554, "pitch": 50, "duration": 6, "velocity": 79}, {"time": 3557, "pitch": 57, "duration": 30, "velocity": 86}, {"time": 3563, "pitch": 38, "duration": 20, "velocity": 51}, {"time": 3563, "pitch": 45, "duration": 19, "velocity": 64}, {"time": 3563, "pitch": 50, "duration": 20, "velocity": 73}, {"time": 3563, "pitch": 62, "duration": 25, "velocity": 72}, {"time": 3563, "pitch": 66, "duration": 26, "velocity": 97}, {"time": 3587, "pitch": 43, "duration": 61, "velocity": 90}, {"time": 3593, "pitch": 50, "duration": 57, "velocity": 69}, {"time": 3596, "pitch": 55, "duration": 53, "velocity": 96}, {"time": 3599, "pitch": 57, "duration": 5, "velocity": 72}, {"time": 3602, "pitch": 59, "duration": 3, "velocity": 72}, {"time": 3605, "pitch": 62, "duration": 1, "velocity": 69}, {"time": 3608, "pitch": 67, "duration": 6, "velocity": 82}, {"time": 3611, "pitch": 69, "duration": 3, "velocity": 68}, {"time": 3614, "pitch": 71, "duration": 1, "velocity": 47}, {"time": 3617, "pitch": 79, "duration": 8, "velocity": 63}, {"time": 3623, "pitch": 83, "duration": 5, "velocity": 63}, {"time": 3626, "pitch": 86, "duration": 2, "velocity": 72}, {"time": 3632, "pitch": 91, "duration": 21, "velocity": 64}, {"time": 3635, "pitch": 95, "duration": 16, "velocity": 59}, {"time": 3641, "pitch": 98, "duration": 10, "velocity": 63}, {"time": 3653, "pitch": 43, "duration": 53, "velocity": 42}, {"time": 3653, "pitch": 50, "duration": 50, "velocity": 25}, {"time": 3653, "pitch": 98, "duration": 53, "velocity": 52}, {"time": 3656, "pitch": 55, "duration": 50, "velocity": 33}, {"time": 3656, "pitch": 91, "duration": 50, "velocity": 29}, {"time": 3656, "pitch": 95, "duration": 51, "velocity": 33}], "annotations": [{"time": 12, "annotation": {"number": 64, "value": 127}, "group": "control_change"}, {"time": 33, "annotation": {"number": 64, "value": 0}, "group": "control_change"}, {"time": 35, "annotation": {"number": 64, "value": 127}, "group": "control_change"}, {"time": 57, "annotation": {"number": 64, "value": 0}, "group": "control_change"}, {"time": 58, "annotation": {"number": 64, "value": 127}, "group": "control_change"}, {"time": 80, "annotation": {"number": 64, "value": 0}, "group": "control_change"}, {"time": 82, "annotation": {"number": 64, "value": 127}, "group": "control_change"}, {"time": 105, "annotation": {"number": 64, "value": 0}, "group": "control_change"}, {"time": 107, "annotation": {"number": 64, "value": 127}, "group": "control_change"}, {"time": 129, "annotation": {"number": 64, "value": 0}, "group": "control_change"}, {"time": 131, "annotation": {"number": 64, "value": 127}, "group": "control_change"}, {"time": 152, "annotation": {"number": 64, "value": 0}, "group": "control_change"}, {"time": 154, "annotation": {"number": 64, "value": 127}, "group": "control_change"}, {"time": 178, "annotation": {"number": 64, "value": 0}, "group": "control_change"}, {"time": 179, "annotation": {"number": 64, "value": 127}, "group": "control_change"}, {"time": 201, "annotation": {"number": 64, "value": 0}, "group": "control_change"}, {"time": 203, "annotation": {"number": 64, "value": 127}, "group": "control_change"}, {"time": 225, "annotation": {"number": 64, "value": 0}, "group": "control_change"}, {"time": 227, "annotation": {"number": 64, "value": 127}, "group": "control_change"}, {"time": 248, "annotation": {"number": 64, "value": 0}, "group": "control_change"}, {"time": 251, "annotation": {"number": 64, "value": 127}, "group": "control_change"}, {"time": 273, "annotation": {"number": 64, "value": 0}, "group": "control_change"}, {"time": 274, "annotation": {"number": 64, "value": 127}, "group": "control_change"}, {"time": 297, "annotation": {"number": 64, "value": 0}, "group": "control_change"}, {"time": 298, "annotation": {"number": 64, "value": 127}, "group": "control_change"}, {"time": 321, "annotation": {"number": 64, "value": 0}, "group": "control_change"}, {"time": 323, "annotation": {"number": 64, "value": 127}, "group": "control_change"}, {"time": 345, "annotation": {"number": 64, "value": 0}, "group": "control_change"}, {"time": 347, "annotation": {"number": 64, "value": 127}, "group": "control_change"}, {"time": 357, "annotation": {"number": 64, "value": 0}, "group": "control_change"}, {"time": 359, "annotation": {"number": 64, "value": 127}, "group": "control_change"}, {"time": 368, "annotation": {"number": 64, "value": 0}, "group": "control_change"}, {"time": 370, "annotation": {"number": 64, "value": 127}, "group": "control_change"}, {"time": 392, "annotation": {"number": 64, "value": 0}, "group": "control_change"}, {"time": 395, "annotation": {"number": 64, "value": 127}, "group": "control_change"}, {"time": 417, "annotation": {"number": 64, "value": 0}, "group": "control_change"}, {"time": 419, "annotation": {"number": 64, "value": 127}, "group": "control_change"}, {"time": 440, "annotation": {"number": 64, "value": 0}, "group": "control_change"}, {"time": 442, "annotation": {"number": 64, "value": 127}, "group": "control_change"}, {"time": 464, "annotation": {"number": 64, "value": 0}, "group": "control_change"}, {"time": 466, "annotation": {"number": 64, "value": 127}, "group": "control_change"}, {"time": 489, "annotation": {"number": 64, "value": 0}, "group": "control_change"}, {"time": 491, "annotation": {"number": 64, "value": 127}, "group": "control_change"}, {"time": 512, "annotation": {"number": 64, "value": 0}, "group": "control_change"}, {"time": 515, "annotation": {"number": 64, "value": 127}, "group": "control_change"}, {"time": 585, "annotation": {"number": 64, "value": 0}, "group": "control_change"}, {"time": 587, "annotation": {"number": 64, "value": 127}, "group": "control_change"}, {"time": 609, "annotation": {"number": 64, "value": 0}, "group": "control_change"}, {"time": 611, "annotation": {"number": 64, "value": 127}, "group": "control_change"}, {"time": 633, "annotation": {"number": 64, "value": 0}, "group": "control_change"}, {"time": 635, "annotation": {"number": 64, "value": 127}, "group": "control_change"}, {"time": 657, "annotation": {"number": 64, "value": 0}, "group": "control_change"}, {"time": 659, "annotation": {"number": 64, "value": 127}, "group": "control_change"}, {"time": 681, "annotation": {"number": 64, "value": 0}, "group": "control_change"}, {"time": 683, "annotation": {"number": 64, "value": 127}, "group": "control_change"}, {"time": 705, "annotation": {"number": 64, "value": 0}, "group": "control_change"}, {"time": 707, "annotation": {"number": 64, "value": 127}, "group": "control_change"}, {"time": 728, "annotation": {"number": 64, "value": 0}, "group": "control_change"}, {"time": 730, "annotation": {"number": 64, "value": 127}, "group": "control_change"}, {"time": 753, "annotation": {"number": 64, "value": 0}, "group": "control_change"}, {"time": 755, "annotation": {"number": 64, "value": 127}, "group": "control_change"}, {"time": 765, "annotation": {"number": 64, "value": 0}, "group": "control_change"}, {"time": 767, "annotation": {"number": 64, "value": 127}, "group": "control_change"}, {"time": 778, "annotation": {"number": 64, "value": 0}, "group": "control_change"}, {"time": 779, "annotation": {"number": 64, "value": 127}, "group": "control_change"}, {"time": 801, "annotation": {"number": 64, "value": 0}, "group": "control_change"}, {"time": 802, "annotation": {"number": 64, "value": 127}, "group": "control_change"}, {"time": 813, "annotation": {"number": 64, "value": 0}, "group": "control_change"}, {"time": 815, "annotation": {"number": 64, "value": 127}, "group": "control_change"}, {"time": 825, "annotation": {"number": 64, "value": 0}, "group": "control_change"}, {"time": 827, "annotation": {"number": 64, "value": 127}, "group": "control_change"}, {"time": 849, "annotation": {"number": 64, "value": 0}, "group": "control_change"}, {"time": 851, "annotation": {"number": 64, "value": 127}, "group": "control_change"}, {"time": 873, "annotation": {"number": 64, "value": 0}, "group": "control_change"}, {"time": 874, "annotation": {"number": 64, "value": 127}, "group": "control_change"}, {"time": 897, "annotation": {"number": 64, "value": 0}, "group": "control_change"}, {"time": 898, "annotation": {"number": 64, "value": 127}, "group": "control_change"}, {"time": 921, "annotation": {"number": 64, "value": 0}, "group": "control_change"}, {"time": 923, "annotation": {"number": 64, "value": 127}, "group": "control_change"}, {"time": 945, "annotation": {"number": 64, "value": 0}, "group": "control_change"}, {"time": 947, "annotation": {"number": 64, "value": 127}, "group": "control_change"}, {"time": 969, "annotation": {"number": 64, "value": 0}, "group": "control_change"}, {"time": 971, "annotation": {"number": 64, "value": 127}, "group": "control_change"}, {"time": 992, "annotation": {"number": 64, "value": 0}, "group": "control_change"}, {"time": 994, "annotation": {"number": 64, "value": 127}, "group": "control_change"}, {"time": 1017, "annotation": {"number": 64, "value": 0}, "group": "control_change"}, {"time": 1019, "annotation": {"number": 64, "value": 127}, "group": "control_change"}, {"time": 1041, "annotation": {"number": 64, "value": 0}, "group": "control_change"}, {"time": 1042, "annotation": {"number": 64, "value": 127}, "group": "control_change"}, {"time": 1065, "annotation": {"number": 64, "value": 0}, "group": "control_change"}, {"time": 1066, "annotation": {"number": 64, "value": 127}, "group": "control_change"}, {"time": 1089, "annotation": {"number": 64, "value": 0}, "group": "control_change"}, {"time": 1091, "annotation": {"number": 64, "value": 127}, "group": "control_change"}, {"time": 1113, "annotation": {"number": 64, "value": 0}, "group": "control_change"}, {"time": 1115, "annotation": {"number": 64, "value": 127}, "group": "control_change"}, {"time": 1136, "annotation": {"number": 64, "value": 0}, "group": "control_change"}, {"time": 1138, "annotation": {"number": 64, "value": 127}, "group": "control_change"}, {"time": 1161, "annotation": {"number": 64, "value": 0}, "group": "control_change"}, {"time": 1163, "annotation": {"number": 64, "value": 127}, "group": "control_change"}, {"time": 1173, "annotation": {"number": 64, "value": 0}, "group": "control_change"}, {"time": 1175, "annotation": {"number": 64, "value": 127}, "group": "control_change"}, {"time": 1184, "annotation": {"number": 64, "value": 0}, "group": "control_change"}, {"time": 1187, "annotation": {"number": 64, "value": 127}, "group": "control_change"}, {"time": 1210, "annotation": {"number": 64, "value": 0}, "group": "control_change"}, {"time": 1212, "annotation": {"number": 64, "value": 127}, "group": "control_change"}, {"time": 1231, "annotation": {"number": 64, "value": 0}, "group": "control_change"}, {"time": 1234, "annotation": {"number": 64, "value": 127}, "group": "control_change"}, {"time": 1251, "annotation": {"number": 64, "value": 0}, "group": "control_change"}, {"time": 1258, "annotation": {"number": 64, "value": 127}, "group": "control_change"}, {"time": 1281, "annotation": {"number": 64, "value": 0}, "group": "control_change"}, {"time": 1283, "annotation": {"number": 64, "value": 127}, "group": "control_change"}, {"time": 1292, "annotation": {"number": 64, "value": 0}, "group": "control_change"}, {"time": 1295, "annotation": {"number": 64, "value": 127}, "group": "control_change"}, {"time": 1329, "annotation": {"number": 64, "value": 0}, "group": "control_change"}, {"time": 1331, "annotation": {"number": 64, "value": 127}, "group": "control_change"}, {"time": 1340, "annotation": {"number": 64, "value": 0}, "group": "control_change"}, {"time": 1341, "annotation": {"number": 64, "value": 127}, "group": "control_change"}, {"time": 1377, "annotation": {"number": 64, "value": 0}, "group": "control_change"}, {"time": 1379, "annotation": {"number": 64, "value": 127}, "group": "control_change"}, {"time": 1380, "annotation": {"number": 64, "value": 0}, "group": "control_change"}, {"time": 1428, "annotation": {"number": 64, "value": 127}, "group": "control_change"}, {"time": 1430, "annotation": {"number": 64, "value": 0}, "group": "control_change"}, {"time": 1434, "annotation": {"number": 64, "value": 127}, "group": "control_change"}, {"time": 1449, "annotation": {"number": 64, "value": 0}, "group": "control_change"}, {"time": 1451, "annotation": {"number": 64, "value": 127}, "group": "control_change"}, {"time": 1472, "annotation": {"number": 64, "value": 0}, "group": "control_change"}, {"time": 1475, "annotation": {"number": 64, "value": 127}, "group": "control_change"}, {"time": 1497, "annotation": {"number": 64, "value": 0}, "group": "control_change"}, {"time": 1499, "annotation": {"number": 64, "value": 127}, "group": "control_change"}, {"time": 1521, "annotation": {"number": 64, "value": 0}, "group": "control_change"}, {"time": 1523, "annotation": {"number": 64, "value": 127}, "group": "control_change"}, {"time": 1545, "annotation": {"number": 64, "value": 0}, "group": "control_change"}, {"time": 1547, "annotation": {"number": 64, "value": 127}, "group": "control_change"}, {"time": 1569, "annotation": {"number": 64, "value": 0}, "group": "control_change"}, {"time": 1571, "annotation": {"number": 64, "value": 127}, "group": "control_change"}, {"time": 1592, "annotation": {"number": 64, "value": 0}, "group": "control_change"}, {"time": 1595, "annotation": {"number": 64, "value": 127}, "group": "control_change"}, {"time": 1617, "annotation": {"number": 64, "value": 0}, "group": "control_change"}, {"time": 1619, "annotation": {"number": 64, "value": 127}, "group": "control_change"}, {"time": 1641, "annotation": {"number": 64, "value": 0}, "group": "control_change"}, {"time": 1643, "annotation": {"number": 64, "value": 127}, "group": "control_change"}, {"time": 1665, "annotation": {"number": 64, "value": 0}, "group": "control_change"}, {"time": 1668, "annotation": {"number": 64, "value": 127}, "group": "control_change"}, {"time": 1688, "annotation": {"number": 64, "value": 0}, "group": "control_change"}, {"time": 1691, "annotation": {"number": 64, "value": 127}, "group": "control_change"}, {"time": 1713, "annotation": {"number": 64, "value": 0}, "group": "control_change"}, {"time": 1715, "annotation": {"number": 64, "value": 127}, "group": "control_change"}, {"time": 1736, "annotation": {"number": 64, "value": 0}, "group": "control_change"}, {"time": 1738, "annotation": {"number": 64, "value": 127}, "group": "control_change"}, {"time": 1761, "annotation": {"number": 64, "value": 0}, "group": "control_change"}, {"time": 1763, "annotation": {"number": 64, "value": 127}, "group": "control_change"}, {"time": 1773, "annotation": {"number": 64, "value": 0}, "group": "control_change"}, {"time": 1775, "annotation": {"number": 64, "value": 127}, "group": "control_change"}, {"time": 1776, "annotation": {"number": 64, "value": 0}, "group": "control_change"}, {"time": 1784, "annotation": {"number": 64, "value": 0}, "group": "control_change"}, {"time": 1786, "annotation": {"number": 64, "value": 127}, "group": "control_change"}, {"time": 1809, "annotation": {"number": 64, "value": 0}, "group": "control_change"}, {"time": 1811, "annotation": {"number": 64, "value": 127}, "group": "control_change"}, {"time": 1830, "annotation": {"number": 64, "value": 0}, "group": "control_change"}, {"time": 1835, "annotation": {"number": 64, "value": 127}, "group": "control_change"}, {"time": 1856, "annotation": {"number": 64, "value": 0}, "group": "control_change"}, {"time": 1858, "annotation": {"number": 64, "value": 127}, "group": "control_change"}, {"time": 1880, "annotation": {"number": 64, "value": 0}, "group": "control_change"}, {"time": 1882, "annotation": {"number": 64, "value": 127}, "group": "control_change"}, {"time": 1905, "annotation": {"number": 64, "value": 0}, "group": "control_change"}, {"time": 1907, "annotation": {"number": 64, "value": 127}, "group": "control_change"}, {"time": 1928, "annotation": {"number": 64, "value": 0}, "group": "control_change"}, {"time": 1931, "annotation": {"number": 64, "value": 127}, "group": "control_change"}, {"time": 2001, "annotation": {"number": 64, "value": 0}, "group": "control_change"}, {"time": 2003, "annotation": {"number": 64, "value": 127}, "group": "control_change"}, {"time": 2025, "annotation": {"number": 64, "value": 0}, "group": "control_change"}, {"time": 2027, "annotation": {"number": 64, "value": 127}, "group": "control_change"}, {"time": 2049, "annotation": {"number": 64, "value": 0}, "group": "control_change"}, {"time": 2051, "annotation": {"number": 64, "value": 127}, "group": "control_change"}, {"time": 2073, "annotation": {"number": 64, "value": 0}, "group": "control_change"}, {"time": 2075, "annotation": {"number": 64, "value": 127}, "group": "control_change"}, {"time": 2097, "annotation": {"number": 64, "value": 0}, "group": "control_change"}, {"time": 2099, "annotation": {"number": 64, "value": 127}, "group": "control_change"}, {"time": 2121, "annotation": {"number": 64, "value": 0}, "group": "control_change"}, {"time": 2123, "annotation": {"number": 64, "value": 127}, "group": "control_change"}, {"time": 2144, "annotation": {"number": 64, "value": 0}, "group": "control_change"}, {"time": 2146, "annotation": {"number": 64, "value": 127}, "group": "control_change"}, {"time": 2169, "annotation": {"number": 64, "value": 0}, "group": "control_change"}, {"time": 2171, "annotation": {"number": 64, "value": 127}, "group": "control_change"}, {"time": 2181, "annotation": {"number": 64, "value": 0}, "group": "control_change"}, {"time": 2183, "annotation": {"number": 64, "value": 127}, "group": "control_change"}, {"time": 2194, "annotation": {"number": 64, "value": 0}, "group": "control_change"}, {"time": 2195, "annotation": {"number": 64, "value": 127}, "group": "control_change"}, {"time": 2217, "annotation": {"number": 64, "value": 0}, "group": "control_change"}, {"time": 2218, "annotation": {"number": 64, "value": 127}, "group": "control_change"}, {"time": 2229, "annotation": {"number": 64, "value": 0}, "group": "control_change"}, {"time": 2231, "annotation": {"number": 64, "value": 127}, "group": "control_change"}, {"time": 2241, "annotation": {"number": 64, "value": 0}, "group": "control_change"}, {"time": 2243, "annotation": {"number": 64, "value": 127}, "group": "control_change"}, {"time": 2265, "annotation": {"number": 64, "value": 0}, "group": "control_change"}, {"time": 2267, "annotation": {"number": 64, "value": 127}, "group": "control_change"}, {"time": 2289, "annotation": {"number": 64, "value": 0}, "group": "control_change"}, {"time": 2290, "annotation": {"number": 64, "value": 127}, "group": "control_change"}, {"time": 2313, "annotation": {"number": 64, "value": 0}, "group": "control_change"}, {"time": 2314, "annotation": {"number": 64, "value": 127}, "group": "control_change"}, {"time": 2337, "annotation": {"number": 64, "value": 0}, "group": "control_change"}, {"time": 2339, "annotation": {"number": 64, "value": 127}, "group": "control_change"}, {"time": 2361, "annotation": {"number": 64, "value": 0}, "group": "control_change"}, {"time": 2363, "annotation": {"number": 64, "value": 127}, "group": "control_change"}, {"time": 2385, "annotation": {"number": 64, "value": 0}, "group": "control_change"}, {"time": 2387, "annotation": {"number": 64, "value": 127}, "group": "control_change"}, {"time": 2408, "annotation": {"number": 64, "value": 0}, "group": "control_change"}, {"time": 2410, "annotation": {"number": 64, "value": 127}, "group": "control_change"}, {"time": 2433, "annotation": {"number": 64, "value": 0}, "group": "control_change"}, {"time": 2435, "annotation": {"number": 64, "value": 127}, "group": "control_change"}, {"time": 2457, "annotation": {"number": 64, "value": 0}, "group": "control_change"}, {"time": 2458, "annotation": {"number": 64, "value": 127}, "group": "control_change"}, {"time": 2481, "annotation": {"number": 64, "value": 0}, "group": "control_change"}, {"time": 2482, "annotation": {"number": 64, "value": 127}, "group": "control_change"}, {"time": 2505, "annotation": {"number": 64, "value": 0}, "group": "control_change"}, {"time": 2507, "annotation": {"number": 64, "value": 127}, "group": "control_change"}, {"time": 2529, "annotation": {"number": 64, "value": 0}, "group": "control_change"}, {"time": 2531, "annotation": {"number": 64, "value": 127}, "group": "control_change"}, {"time": 2552, "annotation": {"number": 64, "value": 0}, "group": "control_change"}, {"time": 2554, "annotation": {"number": 64, "value": 127}, "group": "control_change"}, {"time": 2577, "annotation": {"number": 64, "value": 0}, "group": "control_change"}, {"time": 2579, "annotation": {"number": 64, "value": 127}, "group": "control_change"}, {"time": 2589, "annotation": {"number": 64, "value": 0}, "group": "control_change"}, {"time": 2591, "annotation": {"number": 64, "value": 127}, "group": "control_change"}, {"time": 2600, "annotation": {"number": 64, "value": 0}, "group": "control_change"}, {"time": 2603, "annotation": {"number": 64, "value": 127}, "group": "control_change"}, {"time": 2625, "annotation": {"number": 64, "value": 0}, "group": "control_change"}, {"time": 2627, "annotation": {"number": 64, "value": 127}, "group": "control_change"}, {"time": 2649, "annotation": {"number": 64, "value": 0}, "group": "control_change"}, {"time": 2650, "annotation": {"number": 64, "value": 127}, "group": "control_change"}, {"time": 2651, "annotation": {"number": 64, "value": 127}, "group": "control_change"}, {"time": 2672, "annotation": {"number": 64, "value": 0}, "group": "control_change"}, {"time": 2674, "annotation": {"number": 64, "value": 127}, "group": "control_change"}, {"time": 2697, "annotation": {"number": 64, "value": 0}, "group": "control_change"}, {"time": 2699, "annotation": {"number": 64, "value": 127}, "group": "control_change"}, {"time": 2722, "annotation": {"number": 64, "value": 0}, "group": "control_change"}, {"time": 2722, "annotation": {"number": 64, "value": 127}, "group": "control_change"}, {"time": 2734, "annotation": {"number": 64, "value": 0}, "group": "control_change"}, {"time": 2747, "annotation": {"number": 64, "value": 127}, "group": "control_change"}, {"time": 2769, "annotation": {"number": 64, "value": 0}, "group": "control_change"}, {"time": 2771, "annotation": {"number": 64, "value": 127}, "group": "control_change"}, {"time": 2793, "annotation": {"number": 64, "value": 0}, "group": "control_change"}, {"time": 2795, "annotation": {"number": 64, "value": 127}, "group": "control_change"}, {"time": 2817, "annotation": {"number": 64, "value": 0}, "group": "control_change"}, {"time": 2818, "annotation": {"number": 64, "value": 127}, "group": "control_change"}, {"time": 2839, "annotation": {"number": 64, "value": 0}, "group": "control_change"}, {"time": 2843, "annotation": {"number": 64, "value": 127}, "group": "control_change"}, {"time": 2864, "annotation": {"number": 64, "value": 0}, "group": "control_change"}, {"time": 2867, "annotation": {"number": 64, "value": 127}, "group": "control_change"}, {"time": 2888, "annotation": {"number": 64, "value": 0}, "group": "control_change"}, {"time": 2890, "annotation": {"number": 64, "value": 127}, "group": "control_change"}, {"time": 2913, "annotation": {"number": 64, "value": 0}, "group": "control_change"}, {"time": 2915, "annotation": {"number": 64, "value": 127}, "group": "control_change"}, {"time": 2936, "annotation": {"number": 64, "value": 0}, "group": "control_change"}, {"time": 2939, "annotation": {"number": 64, "value": 127}, "group": "control_change"}, {"time": 2960, "annotation": {"number": 64, "value": 0}, "group": "control_change"}, {"time": 2962, "annotation": {"number": 64, "value": 127}, "group": "control_change"}, {"time": 2984, "annotation": {"number": 64, "value": 0}, "group": "control_change"}, {"time": 2986, "annotation": {"number": 64, "value": 127}, "group": "control_change"}, {"time": 3008, "annotation": {"number": 64, "value": 0}, "group": "control_change"}, {"time": 3010, "annotation": {"number": 64, "value": 127}, "group": "control_change"}, {"time": 3032, "annotation": {"number": 64, "value": 0}, "group": "control_change"}, {"time": 3035, "annotation": {"number": 64, "value": 127}, "group": "control_change"}, {"time": 3057, "annotation": {"number": 64, "value": 0}, "group": "control_change"}, {"time": 3059, "annotation": {"number": 64, "value": 127}, "group": "control_change"}, {"time": 3080, "annotation": {"number": 64, "value": 0}, "group": "control_change"}, {"time": 3082, "annotation": {"number": 64, "value": 127}, "group": "control_change"}, {"time": 3104, "annotation": {"number": 64, "value": 0}, "group": "control_change"}, {"time": 3106, "annotation": {"number": 64, "value": 127}, "group": "control_change"}, {"time": 3128, "annotation": {"number": 64, "value": 0}, "group": "control_change"}, {"time": 3130, "annotation": {"number": 64, "value": 127}, "group": "control_change"}, {"time": 3153, "annotation": {"number": 64, "value": 0}, "group": "control_change"}, {"time": 3155, "annotation": {"number": 64, "value": 127}, "group": "control_change"}, {"time": 3176, "annotation": {"number": 64, "value": 0}, "group": "control_change"}, {"time": 3179, "annotation": {"number": 64, "value": 127}, "group": "control_change"}, {"time": 3188, "annotation": {"number": 64, "value": 0}, "group": "control_change"}, {"time": 3190, "annotation": {"number": 64, "value": 127}, "group": "control_change"}, {"time": 3200, "annotation": {"number": 64, "value": 0}, "group": "control_change"}, {"time": 3202, "annotation": {"number": 64, "value": 127}, "group": "control_change"}, {"time": 3224, "annotation": {"number": 64, "value": 0}, "group": "control_change"}, {"time": 3226, "annotation": {"number": 64, "value": 127}, "group": "control_change"}, {"time": 3248, "annotation": {"number": 64, "value": 0}, "group": "control_change"}, {"time": 3251, "annotation": {"number": 64, "value": 127}, "group": "control_change"}, {"time": 3272, "annotation": {"number": 64, "value": 0}, "group": "control_change"}, {"time": 3275, "annotation": {"number": 64, "value": 127}, "group": "control_change"}, {"time": 3297, "annotation": {"number": 64, "value": 0}, "group": "control_change"}, {"time": 3299, "annotation": {"number": 64, "value": 127}, "group": "control_change"}, {"time": 3368, "annotation": {"number": 64, "value": 0}, "group": "control_change"}, {"time": 3371, "annotation": {"number": 64, "value": 127}, "group": "control_change"}, {"time": 3392, "annotation": {"number": 64, "value": 0}, "group": "control_change"}, {"time": 3394, "annotation": {"number": 64, "value": 127}, "group": "control_change"}, {"time": 3416, "annotation": {"number": 64, "value": 0}, "group": "control_change"}, {"time": 3419, "annotation": {"number": 64, "value": 127}, "group": "control_change"}, {"time": 3441, "annotation": {"number": 64, "value": 0}, "group": "control_change"}, {"time": 3443, "annotation": {"number": 64, "value": 127}, "group": "control_change"}, {"time": 3465, "annotation": {"number": 64, "value": 0}, "group": "control_change"}, {"time": 3467, "annotation": {"number": 64, "value": 127}, "group": "control_change"}, {"time": 3489, "annotation": {"number": 64, "value": 0}, "group": "control_change"}, {"time": 3491, "annotation": {"number": 64, "value": 127}, "group": "control_change"}, {"time": 3512, "annotation": {"number": 64, "value": 0}, "group": "control_change"}, {"time": 3515, "annotation": {"number": 64, "value": 127}, "group": "control_change"}, {"time": 3536, "annotation": {"number": 64, "value": 0}, "group": "control_change"}, {"time": 3539, "annotation": {"number": 64, "value": 127}, "group": "control_change"}, {"time": 3563, "annotation": {"number": 64, "value": 0}, "group": "control_change"}, {"time": 3588, "annotation": {"number": 64, "value": 127}, "group": "control_change"}, {"time": 3698, "annotation": {"number": 64, "value": 0}, "group": "control_change"}, {"time": 3701, "annotation": {"number": 64, "value": 127}, "group": "control_change"}, {"time": 3715, "annotation": {"number": 64, "value": 0}, "group": "control_change"}, {"time": 3715, "annotation": {"number": 64, "value": 127}, "group": "control_change"}, {"time": 3717, "annotation": {"number": 64, "value": 0}, "group": "control_change"}]}]}