{"metadata": {"schema_version": "0.2", "title": "None", "source_filename": "764.mid", "source_format": "midi"}, "resolution": 12, "tempos": [{"time": 0, "qpm": 51.59998658400349}, {"time": 792, "qpm": 51.2}], "time_signatures": [{"time": 0, "numerator": 1, "denominator": 4}], "tracks": [{"program": 4, "is_drum": false, "name": "MELODY", "notes": [{"time": 112, "pitch": 69, "duration": 6, "velocity": 107}, {"time": 118, "pitch": 69, "duration": 2, "velocity": 100}, {"time": 121, "pitch": 69, "duration": 2, "velocity": 93}, {"time": 124, "pitch": 70, "duration": 4, "velocity": 112}, {"time": 130, "pitch": 72, "duration": 4, "velocity": 102}, {"time": 136, "pitch": 69, "duration": 5, "velocity": 99}, {"time": 148, "pitch": 67, "duration": 5, "velocity": 95}, {"time": 160, "pitch": 65, "duration": 3, "velocity": 96}, {"time": 166, "pitch": 65, "duration": 2, "velocity": 93}, {"time": 169, "pitch": 65, "duration": 3, "velocity": 96}, {"time": 172, "pitch": 67, "duration": 5, "velocity": 127}, {"time": 178, "pitch": 69, "duration": 5, "velocity": 107}, {"time": 184, "pitch": 69, "duration": 12, "velocity": 102}, {"time": 196, "pitch": 64, "duration": 10, "velocity": 90}, {"time": 208, "pitch": 62, "duration": 6, "velocity": 95}, {"time": 214, "pitch": 69, "duration": 5, "velocity": 107}, {"time": 220, "pitch": 67, "duration": 8, "velocity": 112}, {"time": 232, "pitch": 62, "duration": 6, "velocity": 96}, {"time": 238, "pitch": 69, "duration": 5, "velocity": 99}, {"time": 244, "pitch": 67, "duration": 5, "velocity": 102}, {"time": 256, "pitch": 62, "duration": 5, "velocity": 102}, {"time": 262, "pitch": 69, "duration": 5, "velocity": 100}, {"time": 268, "pitch": 67, "duration": 6, "velocity": 96}, {"time": 277, "pitch": 65, "duration": 2, "velocity": 92}, {"time": 280, "pitch": 65, "duration": 20, "velocity": 112}, {"time": 328, "pitch": 69, "duration": 6, "velocity": 107}, {"time": 334, "pitch": 69, "duration": 2, "velocity": 100}, {"time": 337, "pitch": 69, "duration": 2, "velocity": 93}, {"time": 340, "pitch": 70, "duration": 4, "velocity": 112}, {"time": 346, "pitch": 72, "duration": 4, "velocity": 102}, {"time": 352, "pitch": 69, "duration": 5, "velocity": 99}, {"time": 364, "pitch": 67, "duration": 5, "velocity": 95}, {"time": 376, "pitch": 65, "duration": 3, "velocity": 96}, {"time": 382, "pitch": 65, "duration": 2, "velocity": 93}, {"time": 385, "pitch": 65, "duration": 3, "velocity": 96}, {"time": 388, "pitch": 67, "duration": 5, "velocity": 127}, {"time": 394, "pitch": 69, "duration": 5, "velocity": 107}, {"time": 400, "pitch": 69, "duration": 12, "velocity": 102}, {"time": 412, "pitch": 64, "duration": 10, "velocity": 90}, {"time": 424, "pitch": 62, "duration": 6, "velocity": 95}, {"time": 430, "pitch": 69, "duration": 5, "velocity": 107}, {"time": 436, "pitch": 67, "duration": 8, "velocity": 112}, {"time": 448, "pitch": 62, "duration": 6, "velocity": 96}, {"time": 454, "pitch": 69, "duration": 5, "velocity": 99}, {"time": 460, "pitch": 67, "duration": 5, "velocity": 102}, {"time": 472, "pitch": 62, "duration": 5, "velocity": 102}, {"time": 478, "pitch": 69, "duration": 5, "velocity": 100}, {"time": 484, "pitch": 67, "duration": 6, "velocity": 96}, {"time": 493, "pitch": 65, "duration": 2, "velocity": 92}, {"time": 496, "pitch": 65, "duration": 20, "velocity": 112}, {"time": 532, "pitch": 69, "duration": 6, "velocity": 122}, {"time": 538, "pitch": 67, "duration": 7, "velocity": 97}, {"time": 544, "pitch": 72, "duration": 12, "velocity": 122}, {"time": 562, "pitch": 70, "duration": 4, "velocity": 85}, {"time": 565, "pitch": 69, "duration": 3, "velocity": 99}, {"time": 568, "pitch": 67, "duration": 14, "velocity": 92}, {"time": 586, "pitch": 72, "duration": 3, "velocity": 99}, {"time": 589, "pitch": 70, "duration": 2, "velocity": 89}, {"time": 592, "pitch": 69, "duration": 4, "velocity": 99}, {"time": 598, "pitch": 70, "duration": 2, "velocity": 107}, {"time": 601, "pitch": 72, "duration": 7, "velocity": 112}, {"time": 610, "pitch": 69, "duration": 4, "velocity": 102}, {"time": 616, "pitch": 67, "duration": 13, "velocity": 99}, {"time": 637, "pitch": 65, "duration": 3, "velocity": 99}, {"time": 640, "pitch": 62, "duration": 6, "velocity": 97}, {"time": 646, "pitch": 69, "duration": 6, "velocity": 97}, {"time": 652, "pitch": 67, "duration": 6, "velocity": 102}, {"time": 661, "pitch": 62, "duration": 2, "velocity": 93}, {"time": 664, "pitch": 60, "duration": 5, "velocity": 100}, {"time": 670, "pitch": 67, "duration": 5, "velocity": 102}, {"time": 676, "pitch": 65, "duration": 10, "velocity": 107}, {"time": 688, "pitch": 70, "duration": 2, "velocity": 122}, {"time": 691, "pitch": 69, "duration": 2, "velocity": 89}, {"time": 694, "pitch": 70, "duration": 2, "velocity": 122}, {"time": 697, "pitch": 69, "duration": 2, "velocity": 102}, {"time": 700, "pitch": 65, "duration": 7, "velocity": 99}, {"time": 712, "pitch": 70, "duration": 3, "velocity": 127}, {"time": 715, "pitch": 69, "duration": 4, "velocity": 89}, {"time": 718, "pitch": 70, "duration": 3, "velocity": 107}, {"time": 721, "pitch": 69, "duration": 2, "velocity": 93}, {"time": 724, "pitch": 65, "duration": 5, "velocity": 102}, {"time": 733, "pitch": 67, "duration": 8, "velocity": 100}, {"time": 742, "pitch": 65, "duration": 25, "velocity": 96}]}, {"program": 0, "is_drum": false, "name": "PIANO", "notes": [{"time": 16, "pitch": 41, "duration": 23, "velocity": 82}, {"time": 19, "pitch": 48, "duration": 11, "velocity": 66}, {"time": 22, "pitch": 53, "duration": 8, "velocity": 54}, {"time": 25, "pitch": 57, "duration": 4, "velocity": 38}, {"time": 28, "pitch": 60, "duration": 14, "velocity": 74}, {"time": 34, "pitch": 57, "duration": 8, "velocity": 52}, {"time": 40, "pitch": 41, "duration": 22, "velocity": 64}, {"time": 43, "pitch": 48, "duration": 22, "velocity": 41}, {"time": 46, "pitch": 53, "duration": 19, "velocity": 56}, {"time": 49, "pitch": 57, "duration": 10, "velocity": 50}, {"time": 52, "pitch": 65, "duration": 20, "velocity": 73}, {"time": 58, "pitch": 60, "duration": 14, "velocity": 50}, {"time": 61, "pitch": 57, "duration": 11, "velocity": 70}, {"time": 64, "pitch": 41, "duration": 23, "velocity": 60}, {"time": 67, "pitch": 48, "duration": 22, "velocity": 55}, {"time": 70, "pitch": 53, "duration": 22, "velocity": 43}, {"time": 73, "pitch": 57, "duration": 5, "velocity": 63}, {"time": 76, "pitch": 65, "duration": 20, "velocity": 78}, {"time": 79, "pitch": 57, "duration": 4, "velocity": 47}, {"time": 82, "pitch": 60, "duration": 16, "velocity": 53}, {"time": 85, "pitch": 57, "duration": 12, "velocity": 43}, {"time": 88, "pitch": 41, "duration": 22, "velocity": 56}, {"time": 91, "pitch": 48, "duration": 21, "velocity": 50}, {"time": 94, "pitch": 53, "duration": 8, "velocity": 43}, {"time": 97, "pitch": 57, "duration": 16, "velocity": 55}, {"time": 100, "pitch": 65, "duration": 13, "velocity": 86}, {"time": 106, "pitch": 60, "duration": 7, "velocity": 56}, {"time": 112, "pitch": 41, "duration": 23, "velocity": 69}, {"time": 115, "pitch": 48, "duration": 13, "velocity": 47}, {"time": 118, "pitch": 53, "duration": 8, "velocity": 61}, {"time": 121, "pitch": 57, "duration": 5, "velocity": 65}, {"time": 124, "pitch": 65, "duration": 11, "velocity": 88}, {"time": 127, "pitch": 57, "duration": 2, "velocity": 22}, {"time": 130, "pitch": 60, "duration": 8, "velocity": 79}, {"time": 133, "pitch": 57, "duration": 5, "velocity": 64}, {"time": 136, "pitch": 40, "duration": 19, "velocity": 67}, {"time": 142, "pitch": 48, "duration": 11, "velocity": 38}, {"time": 145, "pitch": 57, "duration": 6, "velocity": 62}, {"time": 148, "pitch": 64, "duration": 14, "velocity": 97}, {"time": 151, "pitch": 60, "duration": 10, "velocity": 69}, {"time": 154, "pitch": 57, "duration": 8, "velocity": 66}, {"time": 160, "pitch": 38, "duration": 18, "velocity": 75}, {"time": 163, "pitch": 45, "duration": 15, "velocity": 39}, {"time": 166, "pitch": 50, "duration": 7, "velocity": 63}, {"time": 169, "pitch": 57, "duration": 9, "velocity": 64}, {"time": 172, "pitch": 65, "duration": 13, "velocity": 93}, {"time": 175, "pitch": 50, "duration": 4, "velocity": 46}, {"time": 178, "pitch": 62, "duration": 7, "velocity": 42}, {"time": 181, "pitch": 57, "duration": 4, "velocity": 68}, {"time": 184, "pitch": 45, "duration": 18, "velocity": 69}, {"time": 187, "pitch": 52, "duration": 10, "velocity": 42}, {"time": 190, "pitch": 57, "duration": 7, "velocity": 58}, {"time": 193, "pitch": 60, "duration": 4, "velocity": 63}, {"time": 196, "pitch": 64, "duration": 12, "velocity": 96}, {"time": 199, "pitch": 52, "duration": 3, "velocity": 56}, {"time": 202, "pitch": 60, "duration": 6, "velocity": 93}, {"time": 205, "pitch": 57, "duration": 3, "velocity": 75}, {"time": 208, "pitch": 46, "duration": 10, "velocity": 75}, {"time": 211, "pitch": 53, "duration": 8, "velocity": 75}, {"time": 214, "pitch": 62, "duration": 6, "velocity": 83}, {"time": 217, "pitch": 58, "duration": 3, "velocity": 74}, {"time": 220, "pitch": 48, "duration": 8, "velocity": 69}, {"time": 226, "pitch": 60, "duration": 6, "velocity": 65}, {"time": 226, "pitch": 64, "duration": 6, "velocity": 65}, {"time": 232, "pitch": 46, "duration": 11, "velocity": 88}, {"time": 235, "pitch": 53, "duration": 8, "velocity": 48}, {"time": 238, "pitch": 62, "duration": 6, "velocity": 90}, {"time": 241, "pitch": 58, "duration": 3, "velocity": 66}, {"time": 244, "pitch": 48, "duration": 9, "velocity": 56}, {"time": 247, "pitch": 55, "duration": 9, "velocity": 46}, {"time": 250, "pitch": 64, "duration": 6, "velocity": 73}, {"time": 256, "pitch": 46, "duration": 12, "velocity": 85}, {"time": 259, "pitch": 53, "duration": 9, "velocity": 54}, {"time": 262, "pitch": 62, "duration": 6, "velocity": 69}, {"time": 265, "pitch": 58, "duration": 3, "velocity": 56}, {"time": 268, "pitch": 48, "duration": 7, "velocity": 61}, {"time": 271, "pitch": 55, "duration": 10, "velocity": 38}, {"time": 274, "pitch": 64, "duration": 7, "velocity": 74}, {"time": 280, "pitch": 38, "duration": 23, "velocity": 68}, {"time": 283, "pitch": 45, "duration": 22, "velocity": 55}, {"time": 286, "pitch": 50, "duration": 7, "velocity": 66}, {"time": 289, "pitch": 53, "duration": 9, "velocity": 66}, {"time": 292, "pitch": 62, "duration": 22, "velocity": 63}, {"time": 295, "pitch": 50, "duration": 13, "velocity": 44}, {"time": 298, "pitch": 57, "duration": 15, "velocity": 57}, {"time": 301, "pitch": 53, "duration": 10, "velocity": 44}, {"time": 304, "pitch": 38, "duration": 18, "velocity": 53}, {"time": 307, "pitch": 45, "duration": 15, "velocity": 37}, {"time": 310, "pitch": 50, "duration": 7, "velocity": 52}, {"time": 313, "pitch": 53, "duration": 10, "velocity": 47}, {"time": 316, "pitch": 62, "duration": 12, "velocity": 93}, {"time": 319, "pitch": 50, "duration": 5, "velocity": 75}, {"time": 322, "pitch": 57, "duration": 6, "velocity": 92}, {"time": 325, "pitch": 53, "duration": 3, "velocity": 77}, {"time": 328, "pitch": 41, "duration": 18, "velocity": 86}, {"time": 331, "pitch": 48, "duration": 15, "velocity": 72}, {"time": 334, "pitch": 53, "duration": 7, "velocity": 83}, {"time": 337, "pitch": 57, "duration": 10, "velocity": 82}, {"time": 340, "pitch": 65, "duration": 13, "velocity": 93}, {"time": 343, "pitch": 53, "duration": 3, "velocity": 67}, {"time": 346, "pitch": 60, "duration": 9, "velocity": 58}, {"time": 352, "pitch": 40, "duration": 19, "velocity": 77}, {"time": 355, "pitch": 45, "duration": 16, "velocity": 42}, {"time": 358, "pitch": 57, "duration": 8, "velocity": 70}, {"time": 361, "pitch": 60, "duration": 3, "velocity": 71}, {"time": 364, "pitch": 64, "duration": 13, "velocity": 99}, {"time": 370, "pitch": 60, "duration": 7, "velocity": 86}, {"time": 376, "pitch": 38, "duration": 14, "velocity": 67}, {"time": 379, "pitch": 45, "duration": 11, "velocity": 39}, {"time": 382, "pitch": 50, "duration": 8, "velocity": 66}, {"time": 385, "pitch": 57, "duration": 10, "velocity": 76}, {"time": 388, "pitch": 65, "duration": 12, "velocity": 89}, {"time": 394, "pitch": 62, "duration": 6, "velocity": 66}, {"time": 397, "pitch": 57, "duration": 5, "velocity": 68}, {"time": 400, "pitch": 45, "duration": 19, "velocity": 66}, {"time": 403, "pitch": 52, "duration": 11, "velocity": 58}, {"time": 406, "pitch": 57, "duration": 7, "velocity": 57}, {"time": 409, "pitch": 60, "duration": 4, "velocity": 58}, {"time": 412, "pitch": 64, "duration": 11, "velocity": 92}, {"time": 418, "pitch": 60, "duration": 5, "velocity": 74}, {"time": 424, "pitch": 46, "duration": 12, "velocity": 85}, {"time": 427, "pitch": 53, "duration": 8, "velocity": 65}, {"time": 430, "pitch": 62, "duration": 6, "velocity": 72}, {"time": 433, "pitch": 58, "duration": 4, "velocity": 61}, {"time": 436, "pitch": 48, "duration": 10, "velocity": 56}, {"time": 439, "pitch": 55, "duration": 10, "velocity": 49}, {"time": 442, "pitch": 64, "duration": 6, "velocity": 82}, {"time": 448, "pitch": 46, "duration": 12, "velocity": 76}, {"time": 451, "pitch": 53, "duration": 9, "velocity": 54}, {"time": 454, "pitch": 62, "duration": 6, "velocity": 79}, {"time": 457, "pitch": 58, "duration": 4, "velocity": 72}, {"time": 460, "pitch": 48, "duration": 11, "velocity": 68}, {"time": 463, "pitch": 55, "duration": 10, "velocity": 49}, {"time": 466, "pitch": 64, "duration": 5, "velocity": 67}, {"time": 472, "pitch": 46, "duration": 11, "velocity": 88}, {"time": 475, "pitch": 53, "duration": 8, "velocity": 71}, {"time": 478, "pitch": 62, "duration": 5, "velocity": 74}, {"time": 481, "pitch": 58, "duration": 2, "velocity": 85}, {"time": 484, "pitch": 48, "duration": 7, "velocity": 68}, {"time": 487, "pitch": 55, "duration": 10, "velocity": 59}, {"time": 490, "pitch": 64, "duration": 6, "velocity": 79}, {"time": 496, "pitch": 38, "duration": 17, "velocity": 60}, {"time": 499, "pitch": 45, "duration": 14, "velocity": 35}, {"time": 502, "pitch": 50, "duration": 6, "velocity": 74}, {"time": 505, "pitch": 57, "duration": 5, "velocity": 70}, {"time": 508, "pitch": 65, "duration": 12, "velocity": 93}, {"time": 511, "pitch": 57, "duration": 4, "velocity": 68}, {"time": 514, "pitch": 62, "duration": 5, "velocity": 82}, {"time": 517, "pitch": 57, "duration": 3, "velocity": 70}, {"time": 520, "pitch": 36, "duration": 18, "velocity": 71}, {"time": 523, "pitch": 43, "duration": 15, "velocity": 46}, {"time": 526, "pitch": 48, "duration": 8, "velocity": 75}, {"time": 529, "pitch": 55, "duration": 6, "velocity": 76}, {"time": 532, "pitch": 64, "duration": 12, "velocity": 122}, {"time": 535, "pitch": 48, "duration": 5, "velocity": 81}, {"time": 538, "pitch": 60, "duration": 6, "velocity": 97}, {"time": 541, "pitch": 55, "duration": 3, "velocity": 89}, {"time": 544, "pitch": 41, "duration": 18, "velocity": 86}, {"time": 547, "pitch": 48, "duration": 15, "velocity": 85}, {"time": 550, "pitch": 53, "duration": 7, "velocity": 96}, {"time": 553, "pitch": 57, "duration": 5, "velocity": 96}, {"time": 556, "pitch": 65, "duration": 12, "velocity": 122}, {"time": 559, "pitch": 53, "duration": 3, "velocity": 95}, {"time": 562, "pitch": 60, "duration": 11, "velocity": 93}, {"time": 565, "pitch": 57, "duration": 5, "velocity": 100}, {"time": 568, "pitch": 40, "duration": 21, "velocity": 79}, {"time": 571, "pitch": 45, "duration": 17, "velocity": 67}, {"time": 574, "pitch": 52, "duration": 11, "velocity": 67}, {"time": 577, "pitch": 57, "duration": 5, "velocity": 90}, {"time": 580, "pitch": 64, "duration": 13, "velocity": 100}, {"time": 583, "pitch": 60, "duration": 4, "velocity": 82}, {"time": 586, "pitch": 57, "duration": 8, "velocity": 83}, {"time": 589, "pitch": 60, "duration": 3, "velocity": 89}, {"time": 592, "pitch": 38, "duration": 16, "velocity": 70}, {"time": 595, "pitch": 45, "duration": 13, "velocity": 59}, {"time": 598, "pitch": 50, "duration": 6, "velocity": 89}, {"time": 601, "pitch": 57, "duration": 6, "velocity": 92}, {"time": 604, "pitch": 65, "duration": 12, "velocity": 112}, {"time": 607, "pitch": 62, "duration": 4, "velocity": 86}, {"time": 610, "pitch": 57, "duration": 7, "velocity": 100}, {"time": 613, "pitch": 62, "duration": 3, "velocity": 95}, {"time": 616, "pitch": 36, "duration": 18, "velocity": 63}, {"time": 619, "pitch": 43, "duration": 15, "velocity": 65}, {"time": 622, "pitch": 48, "duration": 15, "velocity": 71}, {"time": 625, "pitch": 55, "duration": 5, "velocity": 85}, {"time": 628, "pitch": 64, "duration": 12, "velocity": 107}, {"time": 631, "pitch": 60, "duration": 4, "velocity": 93}, {"time": 634, "pitch": 55, "duration": 7, "velocity": 82}, {"time": 637, "pitch": 60, "duration": 3, "velocity": 88}, {"time": 640, "pitch": 46, "duration": 12, "velocity": 102}, {"time": 643, "pitch": 53, "duration": 9, "velocity": 79}, {"time": 646, "pitch": 62, "duration": 7, "velocity": 93}, {"time": 649, "pitch": 58, "duration": 3, "velocity": 97}, {"time": 652, "pitch": 48, "duration": 11, "velocity": 93}, {"time": 655, "pitch": 55, "duration": 7, "velocity": 85}, {"time": 658, "pitch": 64, "duration": 7, "velocity": 92}, {"time": 661, "pitch": 60, "duration": 4, "velocity": 96}, {"time": 664, "pitch": 45, "duration": 7, "velocity": 93}, {"time": 667, "pitch": 57, "duration": 10, "velocity": 75}, {"time": 670, "pitch": 60, "duration": 6, "velocity": 107}, {"time": 673, "pitch": 64, "duration": 4, "velocity": 90}, {"time": 676, "pitch": 38, "duration": 9, "velocity": 67}, {"time": 679, "pitch": 45, "duration": 7, "velocity": 61}, {"time": 682, "pitch": 50, "duration": 5, "velocity": 81}, {"time": 685, "pitch": 57, "duration": 4, "velocity": 79}, {"time": 688, "pitch": 43, "duration": 19, "velocity": 70}, {"time": 691, "pitch": 50, "duration": 10, "velocity": 57}, {"time": 694, "pitch": 55, "duration": 4, "velocity": 81}, {"time": 697, "pitch": 58, "duration": 3, "velocity": 97}, {"time": 700, "pitch": 62, "duration": 12, "velocity": 93}, {"time": 703, "pitch": 50, "duration": 3, "velocity": 48}, {"time": 706, "pitch": 58, "duration": 5, "velocity": 97}, {"time": 709, "pitch": 55, "duration": 4, "velocity": 76}, {"time": 712, "pitch": 36, "duration": 19, "velocity": 70}, {"time": 715, "pitch": 43, "duration": 16, "velocity": 41}, {"time": 718, "pitch": 48, "duration": 8, "velocity": 81}, {"time": 721, "pitch": 55, "duration": 6, "velocity": 88}, {"time": 724, "pitch": 64, "duration": 12, "velocity": 100}, {"time": 727, "pitch": 48, "duration": 6, "velocity": 89}, {"time": 730, "pitch": 60, "duration": 6, "velocity": 92}, {"time": 733, "pitch": 55, "duration": 3, "velocity": 71}, {"time": 736, "pitch": 41, "duration": 21, "velocity": 75}, {"time": 739, "pitch": 48, "duration": 17, "velocity": 68}, {"time": 742, "pitch": 53, "duration": 8, "velocity": 85}, {"time": 745, "pitch": 57, "duration": 5, "velocity": 77}, {"time": 748, "pitch": 65, "duration": 12, "velocity": 102}, {"time": 751, "pitch": 53, "duration": 3, "velocity": 82}, {"time": 754, "pitch": 57, "duration": 6, "velocity": 86}, {"time": 757, "pitch": 60, "duration": 10, "velocity": 86}, {"time": 760, "pitch": 40, "duration": 19, "velocity": 76}, {"time": 763, "pitch": 45, "duration": 16, "velocity": 37}, {"time": 766, "pitch": 52, "duration": 8, "velocity": 58}, {"time": 769, "pitch": 57, "duration": 6, "velocity": 76}, {"time": 772, "pitch": 64, "duration": 12, "velocity": 96}, {"time": 775, "pitch": 52, "duration": 3, "velocity": 65}, {"time": 778, "pitch": 60, "duration": 6, "velocity": 79}, {"time": 781, "pitch": 57, "duration": 4, "velocity": 66}, {"time": 784, "pitch": 38, "duration": 16, "velocity": 68}, {"time": 787, "pitch": 45, "duration": 14, "velocity": 47}, {"time": 790, "pitch": 50, "duration": 12, "velocity": 83}, {"time": 793, "pitch": 57, "duration": 5, "velocity": 78}, {"time": 796, "pitch": 65, "duration": 13, "velocity": 100}, {"time": 799, "pitch": 62, "duration": 4, "velocity": 81}, {"time": 802, "pitch": 57, "duration": 7, "velocity": 90}, {"time": 805, "pitch": 62, "duration": 4, "velocity": 63}, {"time": 808, "pitch": 45, "duration": 20, "velocity": 79}, {"time": 811, "pitch": 52, "duration": 11, "velocity": 56}, {"time": 814, "pitch": 57, "duration": 7, "velocity": 63}, {"time": 817, "pitch": 60, "duration": 3, "velocity": 65}, {"time": 820, "pitch": 64, "duration": 12, "velocity": 97}, {"time": 823, "pitch": 52, "duration": 4, "velocity": 67}, {"time": 826, "pitch": 60, "duration": 6, "velocity": 83}, {"time": 829, "pitch": 57, "duration": 3, "velocity": 69}, {"time": 832, "pitch": 46, "duration": 12, "velocity": 92}, {"time": 835, "pitch": 53, "duration": 8, "velocity": 47}, {"time": 838, "pitch": 58, "duration": 6, "velocity": 77}, {"time": 841, "pitch": 62, "duration": 3, "velocity": 70}, {"time": 844, "pitch": 48, "duration": 12, "velocity": 58}, {"time": 847, "pitch": 55, "duration": 9, "velocity": 55}, {"time": 850, "pitch": 64, "duration": 6, "velocity": 78}, {"time": 853, "pitch": 60, "duration": 4, "velocity": 77}, {"time": 856, "pitch": 45, "duration": 7, "velocity": 69}, {"time": 859, "pitch": 57, "duration": 10, "velocity": 58}, {"time": 862, "pitch": 60, "duration": 6, "velocity": 97}, {"time": 865, "pitch": 64, "duration": 4, "velocity": 76}, {"time": 868, "pitch": 38, "duration": 13, "velocity": 68}, {"time": 871, "pitch": 45, "duration": 9, "velocity": 70}, {"time": 874, "pitch": 50, "duration": 7, "velocity": 83}, {"time": 877, "pitch": 65, "duration": 4, "velocity": 86}, {"time": 880, "pitch": 43, "duration": 12, "velocity": 78}, {"time": 883, "pitch": 50, "duration": 8, "velocity": 58}, {"time": 887, "pitch": 55, "duration": 3, "velocity": 83}, {"time": 890, "pitch": 58, "duration": 5, "velocity": 88}, {"time": 895, "pitch": 36, "duration": 21, "velocity": 72}, {"time": 898, "pitch": 43, "duration": 18, "velocity": 59}, {"time": 903, "pitch": 48, "duration": 11, "velocity": 86}, {"time": 907, "pitch": 55, "duration": 18, "velocity": 66}, {"time": 912, "pitch": 60, "duration": 12, "velocity": 41}, {"time": 929, "pitch": 60, "duration": 13, "velocity": 60}, {"time": 930, "pitch": 59, "duration": 1, "velocity": 58}, {"time": 931, "pitch": 57, "duration": 9, "velocity": 62}, {"time": 932, "pitch": 53, "duration": 6, "velocity": 66}, {"time": 933, "pitch": 41, "duration": 44, "velocity": 68}, {"time": 939, "pitch": 48, "duration": 38, "velocity": 58}, {"time": 941, "pitch": 53, "duration": 36, "velocity": 58}, {"time": 943, "pitch": 55, "duration": 5, "velocity": 52}, {"time": 944, "pitch": 60, "duration": 1, "velocity": 26}, {"time": 946, "pitch": 57, "duration": 2, "velocity": 51}, {"time": 948, "pitch": 60, "duration": 1, "velocity": 50}, {"time": 951, "pitch": 65, "duration": 6, "velocity": 43}, {"time": 954, "pitch": 69, "duration": 3, "velocity": 45}, {"time": 957, "pitch": 72, "duration": 1, "velocity": 42}, {"time": 961, "pitch": 77, "duration": 16, "velocity": 27}, {"time": 967, "pitch": 81, "duration": 10, "velocity": 25}, {"time": 968, "pitch": 84, "duration": 9, "velocity": 20}], "annotations": [{"time": 16, "annotation": {"number": 64, "value": 127}, "group": "control_change"}, {"time": 38, "annotation": {"number": 64, "value": 0}, "group": "control_change"}, {"time": 40, "annotation": {"number": 64, "value": 127}, "group": "control_change"}, {"time": 61, "annotation": {"number": 64, "value": 0}, "group": "control_change"}, {"time": 64, "annotation": {"number": 64, "value": 127}, "group": "control_change"}, {"time": 86, "annotation": {"number": 64, "value": 0}, "group": "control_change"}, {"time": 88, "annotation": {"number": 64, "value": 127}, "group": "control_change"}, {"time": 110, "annotation": {"number": 64, "value": 0}, "group": "control_change"}, {"time": 112, "annotation": {"number": 64, "value": 127}, "group": "control_change"}, {"time": 134, "annotation": {"number": 64, "value": 0}, "group": "control_change"}, {"time": 136, "annotation": {"number": 64, "value": 127}, "group": "control_change"}, {"time": 148, "annotation": {"number": 64, "value": 0}, "group": "control_change"}, {"time": 148, "annotation": {"number": 64, "value": 127}, "group": "control_change"}, {"time": 158, "annotation": {"number": 64, "value": 0}, "group": "control_change"}, {"time": 160, "annotation": {"number": 64, "value": 127}, "group": "control_change"}, {"time": 181, "annotation": {"number": 64, "value": 0}, "group": "control_change"}, {"time": 184, "annotation": {"number": 64, "value": 127}, "group": "control_change"}, {"time": 208, "annotation": {"number": 64, "value": 127}, "group": "control_change"}, {"time": 218, "annotation": {"number": 64, "value": 0}, "group": "control_change"}, {"time": 220, "annotation": {"number": 64, "value": 127}, "group": "control_change"}, {"time": 230, "annotation": {"number": 64, "value": 0}, "group": "control_change"}, {"time": 232, "annotation": {"number": 64, "value": 127}, "group": "control_change"}, {"time": 243, "annotation": {"number": 64, "value": 0}, "group": "control_change"}, {"time": 245, "annotation": {"number": 64, "value": 127}, "group": "control_change"}, {"time": 254, "annotation": {"number": 64, "value": 0}, "group": "control_change"}, {"time": 256, "annotation": {"number": 64, "value": 127}, "group": "control_change"}, {"time": 266, "annotation": {"number": 64, "value": 0}, "group": "control_change"}, {"time": 268, "annotation": {"number": 64, "value": 127}, "group": "control_change"}, {"time": 279, "annotation": {"number": 64, "value": 0}, "group": "control_change"}, {"time": 280, "annotation": {"number": 64, "value": 127}, "group": "control_change"}, {"time": 301, "annotation": {"number": 64, "value": 0}, "group": "control_change"}, {"time": 304, "annotation": {"number": 64, "value": 127}, "group": "control_change"}, {"time": 326, "annotation": {"number": 64, "value": 0}, "group": "control_change"}, {"time": 328, "annotation": {"number": 64, "value": 127}, "group": "control_change"}, {"time": 350, "annotation": {"number": 64, "value": 0}, "group": "control_change"}, {"time": 352, "annotation": {"number": 64, "value": 127}, "group": "control_change"}, {"time": 373, "annotation": {"number": 64, "value": 0}, "group": "control_change"}, {"time": 376, "annotation": {"number": 64, "value": 127}, "group": "control_change"}, {"time": 398, "annotation": {"number": 64, "value": 0}, "group": "control_change"}, {"time": 400, "annotation": {"number": 64, "value": 127}, "group": "control_change"}, {"time": 422, "annotation": {"number": 64, "value": 0}, "group": "control_change"}, {"time": 424, "annotation": {"number": 64, "value": 127}, "group": "control_change"}, {"time": 434, "annotation": {"number": 64, "value": 0}, "group": "control_change"}, {"time": 436, "annotation": {"number": 64, "value": 127}, "group": "control_change"}, {"time": 446, "annotation": {"number": 64, "value": 0}, "group": "control_change"}, {"time": 448, "annotation": {"number": 64, "value": 127}, "group": "control_change"}, {"time": 457, "annotation": {"number": 64, "value": 0}, "group": "control_change"}, {"time": 460, "annotation": {"number": 64, "value": 127}, "group": "control_change"}, {"time": 470, "annotation": {"number": 64, "value": 0}, "group": "control_change"}, {"time": 473, "annotation": {"number": 64, "value": 127}, "group": "control_change"}, {"time": 481, "annotation": {"number": 64, "value": 0}, "group": "control_change"}, {"time": 484, "annotation": {"number": 64, "value": 127}, "group": "control_change"}, {"time": 494, "annotation": {"number": 64, "value": 0}, "group": "control_change"}, {"time": 496, "annotation": {"number": 64, "value": 127}, "group": "control_change"}, {"time": 518, "annotation": {"number": 64, "value": 0}, "group": "control_change"}, {"time": 520, "annotation": {"number": 64, "value": 127}, "group": "control_change"}, {"time": 543, "annotation": {"number": 64, "value": 0}, "group": "control_change"}, {"time": 544, "annotation": {"number": 64, "value": 127}, "group": "control_change"}, {"time": 566, "annotation": {"number": 64, "value": 0}, "group": "control_change"}, {"time": 568, "annotation": {"number": 64, "value": 127}, "group": "control_change"}, {"time": 579, "annotation": {"number": 64, "value": 0}, "group": "control_change"}, {"time": 581, "annotation": {"number": 64, "value": 127}, "group": "control_change"}, {"time": 590, "annotation": {"number": 64, "value": 0}, "group": "control_change"}, {"time": 592, "annotation": {"number": 64, "value": 127}, "group": "control_change"}, {"time": 613, "annotation": {"number": 64, "value": 0}, "group": "control_change"}, {"time": 616, "annotation": {"number": 64, "value": 127}, "group": "control_change"}, {"time": 638, "annotation": {"number": 64, "value": 0}, "group": "control_change"}, {"time": 641, "annotation": {"number": 64, "value": 127}, "group": "control_change"}, {"time": 651, "annotation": {"number": 64, "value": 0}, "group": "control_change"}, {"time": 653, "annotation": {"number": 64, "value": 127}, "group": "control_change"}, {"time": 662, "annotation": {"number": 64, "value": 0}, "group": "control_change"}, {"time": 665, "annotation": {"number": 64, "value": 127}, "group": "control_change"}, {"time": 675, "annotation": {"number": 64, "value": 0}, "group": "control_change"}, {"time": 677, "annotation": {"number": 64, "value": 127}, "group": "control_change"}, {"time": 687, "annotation": {"number": 64, "value": 0}, "group": "control_change"}, {"time": 689, "annotation": {"number": 64, "value": 127}, "group": "control_change"}, {"time": 709, "annotation": {"number": 64, "value": 0}, "group": "control_change"}, {"time": 712, "annotation": {"number": 64, "value": 127}, "group": "control_change"}, {"time": 734, "annotation": {"number": 64, "value": 0}, "group": "control_change"}, {"time": 737, "annotation": {"number": 64, "value": 127}, "group": "control_change"}, {"time": 758, "annotation": {"number": 64, "value": 0}, "group": "control_change"}, {"time": 761, "annotation": {"number": 64, "value": 127}, "group": "control_change"}, {"time": 771, "annotation": {"number": 64, "value": 0}, "group": "control_change"}, {"time": 772, "annotation": {"number": 64, "value": 127}, "group": "control_change"}, {"time": 781, "annotation": {"number": 64, "value": 0}, "group": "control_change"}, {"time": 785, "annotation": {"number": 64, "value": 127}, "group": "control_change"}, {"time": 805, "annotation": {"number": 64, "value": 0}, "group": "control_change"}, {"time": 808, "annotation": {"number": 64, "value": 127}, "group": "control_change"}, {"time": 842, "annotation": {"number": 64, "value": 0}, "group": "control_change"}, {"time": 845, "annotation": {"number": 64, "value": 127}, "group": "control_change"}, {"time": 854, "annotation": {"number": 64, "value": 0}, "group": "control_change"}, {"time": 857, "annotation": {"number": 64, "value": 127}, "group": "control_change"}, {"time": 866, "annotation": {"number": 64, "value": 0}, "group": "control_change"}, {"time": 869, "annotation": {"number": 64, "value": 127}, "group": "control_change"}, {"time": 878, "annotation": {"number": 64, "value": 0}, "group": "control_change"}, {"time": 881, "annotation": {"number": 64, "value": 127}, "group": "control_change"}, {"time": 893, "annotation": {"number": 64, "value": 0}, "group": "control_change"}, {"time": 896, "annotation": {"number": 64, "value": 127}, "group": "control_change"}, {"time": 930, "annotation": {"number": 64, "value": 0}, "group": "control_change"}, {"time": 940, "annotation": {"number": 64, "value": 127}, "group": "control_change"}, {"time": 996, "annotation": {"number": 64, "value": 0}, "group": "control_change"}, {"time": 996, "annotation": {"number": 64, "value": 127}, "group": "control_change"}, {"time": 997, "annotation": {"number": 64, "value": 0}, "group": "control_change"}, {"time": 998, "annotation": {"number": 64, "value": 127}, "group": "control_change"}, {"time": 1002, "annotation": {"number": 64, "value": 0}, "group": "control_change"}]}]}