{"metadata": {"schema_version": "0.2", "title": "None", "source_filename": "765.mid", "source_format": "midi"}, "resolution": 12, "tempos": [{"time": 0, "qpm": 70.00007000007}], "time_signatures": [{"time": 0, "numerator": 1, "denominator": 4}], "tracks": [{"program": 0, "is_drum": false, "name": "MELODY", "notes": [{"time": 717, "pitch": 70, "duration": 4, "velocity": 107}, {"time": 723, "pitch": 70, "duration": 4, "velocity": 122}, {"time": 729, "pitch": 70, "duration": 3, "velocity": 100}, {"time": 735, "pitch": 70, "duration": 4, "velocity": 117}, {"time": 741, "pitch": 72, "duration": 4, "velocity": 100}, {"time": 747, "pitch": 74, "duration": 4, "velocity": 81}, {"time": 753, "pitch": 70, "duration": 6, "velocity": 96}, {"time": 765, "pitch": 70, "duration": 3, "velocity": 90}, {"time": 771, "pitch": 70, "duration": 4, "velocity": 96}, {"time": 777, "pitch": 70, "duration": 4, "velocity": 100}, {"time": 783, "pitch": 70, "duration": 4, "velocity": 107}, {"time": 789, "pitch": 72, "duration": 4, "velocity": 97}, {"time": 795, "pitch": 70, "duration": 3, "velocity": 117}, {"time": 801, "pitch": 74, "duration": 12, "velocity": 112}, {"time": 849, "pitch": 70, "duration": 2, "velocity": 99}, {"time": 852, "pitch": 72, "duration": 2, "velocity": 86}, {"time": 855, "pitch": 74, "duration": 3, "velocity": 93}, {"time": 861, "pitch": 75, "duration": 3, "velocity": 107}, {"time": 867, "pitch": 74, "duration": 3, "velocity": 107}, {"time": 873, "pitch": 72, "duration": 9, "velocity": 100}, {"time": 885, "pitch": 74, "duration": 3, "velocity": 97}, {"time": 891, "pitch": 72, "duration": 3, "velocity": 100}, {"time": 897, "pitch": 70, "duration": 8, "velocity": 92}, {"time": 909, "pitch": 70, "duration": 3, "velocity": 112}, {"time": 915, "pitch": 70, "duration": 3, "velocity": 107}, {"time": 921, "pitch": 70, "duration": 3, "velocity": 117}, {"time": 927, "pitch": 70, "duration": 3, "velocity": 117}, {"time": 933, "pitch": 72, "duration": 3, "velocity": 90}, {"time": 939, "pitch": 74, "duration": 4, "velocity": 97}, {"time": 945, "pitch": 70, "duration": 7, "velocity": 92}, {"time": 957, "pitch": 70, "duration": 3, "velocity": 117}, {"time": 963, "pitch": 70, "duration": 3, "velocity": 107}, {"time": 969, "pitch": 70, "duration": 3, "velocity": 117}, {"time": 975, "pitch": 69, "duration": 4, "velocity": 102}, {"time": 981, "pitch": 70, "duration": 4, "velocity": 99}, {"time": 987, "pitch": 69, "duration": 3, "velocity": 89}, {"time": 993, "pitch": 69, "duration": 11, "velocity": 83}, {"time": 1005, "pitch": 67, "duration": 32, "velocity": 75}, {"time": 1065, "pitch": 74, "duration": 4, "velocity": 97}, {"time": 1071, "pitch": 82, "duration": 4, "velocity": 117}, {"time": 1077, "pitch": 81, "duration": 4, "velocity": 100}, {"time": 1083, "pitch": 79, "duration": 4, "velocity": 97}, {"time": 1089, "pitch": 77, "duration": 6, "velocity": 107}, {"time": 1095, "pitch": 79, "duration": 9, "velocity": 107}, {"time": 1107, "pitch": 79, "duration": 8, "velocity": 107}, {"time": 1119, "pitch": 79, "duration": 4, "velocity": 99}, {"time": 1125, "pitch": 77, "duration": 3, "velocity": 96}, {"time": 1131, "pitch": 74, "duration": 4, "velocity": 107}, {"time": 1137, "pitch": 77, "duration": 18, "velocity": 102}, {"time": 1164, "pitch": 74, "duration": 2, "velocity": 92}, {"time": 1167, "pitch": 72, "duration": 5, "velocity": 93}, {"time": 1173, "pitch": 77, "duration": 3, "velocity": 75}, {"time": 1179, "pitch": 77, "duration": 4, "velocity": 107}, {"time": 1185, "pitch": 74, "duration": 5, "velocity": 93}, {"time": 1191, "pitch": 77, "duration": 12, "velocity": 112}, {"time": 1203, "pitch": 77, "duration": 3, "velocity": 112}, {"time": 1209, "pitch": 77, "duration": 4, "velocity": 97}, {"time": 1215, "pitch": 74, "duration": 4, "velocity": 99}, {"time": 1221, "pitch": 77, "duration": 4, "velocity": 112}, {"time": 1227, "pitch": 77, "duration": 4, "velocity": 112}, {"time": 1233, "pitch": 84, "duration": 6, "velocity": 117}, {"time": 1239, "pitch": 82, "duration": 21, "velocity": 107}, {"time": 1263, "pitch": 82, "duration": 3, "velocity": 127}, {"time": 1269, "pitch": 81, "duration": 5, "velocity": 112}, {"time": 1275, "pitch": 79, "duration": 5, "velocity": 99}, {"time": 1281, "pitch": 77, "duration": 5, "velocity": 97}, {"time": 1287, "pitch": 79, "duration": 12, "velocity": 107}, {"time": 1299, "pitch": 79, "duration": 1, "velocity": 117}, {"time": 1305, "pitch": 79, "duration": 3, "velocity": 117}, {"time": 1311, "pitch": 79, "duration": 4, "velocity": 102}, {"time": 1317, "pitch": 77, "duration": 3, "velocity": 97}, {"time": 1323, "pitch": 74, "duration": 5, "velocity": 92}, {"time": 1329, "pitch": 79, "duration": 11, "velocity": 97}, {"time": 1341, "pitch": 77, "duration": 14, "velocity": 96}, {"time": 1359, "pitch": 74, "duration": 5, "velocity": 96}, {"time": 1365, "pitch": 75, "duration": 4, "velocity": 99}, {"time": 1371, "pitch": 77, "duration": 3, "velocity": 93}, {"time": 1377, "pitch": 70, "duration": 14, "velocity": 99}, {"time": 1395, "pitch": 74, "duration": 6, "velocity": 99}, {"time": 1401, "pitch": 72, "duration": 14, "velocity": 79}, {"time": 1419, "pitch": 70, "duration": 4, "velocity": 100}, {"time": 1428, "pitch": 70, "duration": 32, "velocity": 112}, {"time": 1869, "pitch": 70, "duration": 4, "velocity": 107}, {"time": 1875, "pitch": 70, "duration": 4, "velocity": 122}, {"time": 1881, "pitch": 70, "duration": 3, "velocity": 100}, {"time": 1887, "pitch": 70, "duration": 4, "velocity": 117}, {"time": 1893, "pitch": 72, "duration": 4, "velocity": 100}, {"time": 1899, "pitch": 74, "duration": 4, "velocity": 81}, {"time": 1905, "pitch": 70, "duration": 6, "velocity": 96}, {"time": 1917, "pitch": 70, "duration": 3, "velocity": 90}, {"time": 1923, "pitch": 70, "duration": 4, "velocity": 96}, {"time": 1929, "pitch": 70, "duration": 4, "velocity": 100}, {"time": 1935, "pitch": 70, "duration": 4, "velocity": 107}, {"time": 1941, "pitch": 72, "duration": 4, "velocity": 97}, {"time": 1947, "pitch": 70, "duration": 3, "velocity": 117}, {"time": 1953, "pitch": 75, "duration": 6, "velocity": 112}, {"time": 1965, "pitch": 74, "duration": 26, "velocity": 107}, {"time": 2001, "pitch": 70, "duration": 2, "velocity": 99}, {"time": 2004, "pitch": 72, "duration": 2, "velocity": 86}, {"time": 2007, "pitch": 74, "duration": 3, "velocity": 93}, {"time": 2013, "pitch": 75, "duration": 3, "velocity": 107}, {"time": 2019, "pitch": 74, "duration": 3, "velocity": 107}, {"time": 2025, "pitch": 72, "duration": 9, "velocity": 100}, {"time": 2037, "pitch": 74, "duration": 3, "velocity": 97}, {"time": 2043, "pitch": 72, "duration": 3, "velocity": 100}, {"time": 2049, "pitch": 70, "duration": 8, "velocity": 92}, {"time": 2061, "pitch": 70, "duration": 3, "velocity": 112}, {"time": 2067, "pitch": 70, "duration": 3, "velocity": 107}, {"time": 2073, "pitch": 70, "duration": 3, "velocity": 117}, {"time": 2079, "pitch": 70, "duration": 3, "velocity": 117}, {"time": 2085, "pitch": 72, "duration": 3, "velocity": 90}, {"time": 2091, "pitch": 74, "duration": 4, "velocity": 97}, {"time": 2097, "pitch": 70, "duration": 7, "velocity": 92}, {"time": 2109, "pitch": 70, "duration": 3, "velocity": 117}, {"time": 2115, "pitch": 70, "duration": 3, "velocity": 107}, {"time": 2121, "pitch": 70, "duration": 3, "velocity": 117}, {"time": 2127, "pitch": 69, "duration": 4, "velocity": 102}, {"time": 2133, "pitch": 70, "duration": 4, "velocity": 99}, {"time": 2139, "pitch": 69, "duration": 3, "velocity": 89}, {"time": 2145, "pitch": 69, "duration": 11, "velocity": 83}, {"time": 2157, "pitch": 67, "duration": 18, "velocity": 75}, {"time": 2181, "pitch": 67, "duration": 5, "velocity": 95}, {"time": 2187, "pitch": 70, "duration": 4, "velocity": 107}, {"time": 2193, "pitch": 72, "duration": 11, "velocity": 107}, {"time": 2205, "pitch": 70, "duration": 15, "velocity": 97}, {"time": 2217, "pitch": 74, "duration": 4, "velocity": 97}, {"time": 2223, "pitch": 82, "duration": 4, "velocity": 117}, {"time": 2229, "pitch": 81, "duration": 4, "velocity": 100}, {"time": 2235, "pitch": 79, "duration": 4, "velocity": 97}, {"time": 2241, "pitch": 77, "duration": 6, "velocity": 107}, {"time": 2247, "pitch": 79, "duration": 9, "velocity": 107}, {"time": 2259, "pitch": 79, "duration": 8, "velocity": 107}, {"time": 2271, "pitch": 79, "duration": 4, "velocity": 99}, {"time": 2277, "pitch": 77, "duration": 3, "velocity": 96}, {"time": 2283, "pitch": 74, "duration": 4, "velocity": 107}, {"time": 2289, "pitch": 77, "duration": 25, "velocity": 102}, {"time": 2319, "pitch": 74, "duration": 5, "velocity": 93}, {"time": 2325, "pitch": 77, "duration": 3, "velocity": 75}, {"time": 2331, "pitch": 77, "duration": 4, "velocity": 107}, {"time": 2337, "pitch": 74, "duration": 5, "velocity": 93}, {"time": 2343, "pitch": 77, "duration": 8, "velocity": 112}, {"time": 2355, "pitch": 77, "duration": 3, "velocity": 112}, {"time": 2361, "pitch": 77, "duration": 4, "velocity": 97}, {"time": 2367, "pitch": 74, "duration": 4, "velocity": 99}, {"time": 2373, "pitch": 77, "duration": 4, "velocity": 112}, {"time": 2379, "pitch": 77, "duration": 4, "velocity": 112}, {"time": 2385, "pitch": 84, "duration": 6, "velocity": 117}, {"time": 2391, "pitch": 82, "duration": 21, "velocity": 107}, {"time": 2415, "pitch": 82, "duration": 3, "velocity": 127}, {"time": 2421, "pitch": 81, "duration": 5, "velocity": 112}, {"time": 2427, "pitch": 79, "duration": 5, "velocity": 99}, {"time": 2433, "pitch": 77, "duration": 5, "velocity": 97}, {"time": 2439, "pitch": 79, "duration": 12, "velocity": 107}, {"time": 2451, "pitch": 79, "duration": 1, "velocity": 117}, {"time": 2457, "pitch": 79, "duration": 3, "velocity": 117}, {"time": 2463, "pitch": 79, "duration": 4, "velocity": 102}, {"time": 2469, "pitch": 77, "duration": 3, "velocity": 97}, {"time": 2475, "pitch": 74, "duration": 5, "velocity": 92}, {"time": 2481, "pitch": 79, "duration": 11, "velocity": 97}, {"time": 2493, "pitch": 77, "duration": 14, "velocity": 96}, {"time": 2511, "pitch": 74, "duration": 5, "velocity": 96}, {"time": 2517, "pitch": 75, "duration": 4, "velocity": 99}, {"time": 2523, "pitch": 77, "duration": 3, "velocity": 93}, {"time": 2529, "pitch": 70, "duration": 14, "velocity": 99}, {"time": 2547, "pitch": 74, "duration": 6, "velocity": 99}, {"time": 2553, "pitch": 72, "duration": 14, "velocity": 79}, {"time": 2571, "pitch": 70, "duration": 4, "velocity": 100}, {"time": 2577, "pitch": 70, "duration": 18, "velocity": 112}, {"time": 2601, "pitch": 74, "duration": 5, "velocity": 99}, {"time": 2607, "pitch": 82, "duration": 4, "velocity": 117}, {"time": 2613, "pitch": 81, "duration": 4, "velocity": 100}, {"time": 2619, "pitch": 79, "duration": 4, "velocity": 97}, {"time": 2625, "pitch": 77, "duration": 6, "velocity": 107}, {"time": 2631, "pitch": 79, "duration": 9, "velocity": 107}, {"time": 2643, "pitch": 79, "duration": 8, "velocity": 107}, {"time": 2655, "pitch": 79, "duration": 4, "velocity": 99}, {"time": 2661, "pitch": 77, "duration": 3, "velocity": 96}, {"time": 2667, "pitch": 74, "duration": 4, "velocity": 107}, {"time": 2673, "pitch": 77, "duration": 25, "velocity": 102}, {"time": 2703, "pitch": 74, "duration": 5, "velocity": 93}, {"time": 2709, "pitch": 77, "duration": 3, "velocity": 75}, {"time": 2715, "pitch": 77, "duration": 4, "velocity": 107}, {"time": 2721, "pitch": 74, "duration": 5, "velocity": 93}, {"time": 2727, "pitch": 77, "duration": 8, "velocity": 112}, {"time": 2739, "pitch": 77, "duration": 3, "velocity": 112}, {"time": 2745, "pitch": 77, "duration": 4, "velocity": 97}, {"time": 2751, "pitch": 74, "duration": 4, "velocity": 99}, {"time": 2757, "pitch": 77, "duration": 4, "velocity": 112}, {"time": 2763, "pitch": 77, "duration": 4, "velocity": 112}, {"time": 2769, "pitch": 84, "duration": 6, "velocity": 117}, {"time": 2781, "pitch": 82, "duration": 11, "velocity": 107}, {"time": 2799, "pitch": 82, "duration": 3, "velocity": 127}, {"time": 2805, "pitch": 81, "duration": 5, "velocity": 112}, {"time": 2811, "pitch": 79, "duration": 5, "velocity": 99}, {"time": 2817, "pitch": 77, "duration": 5, "velocity": 97}, {"time": 2823, "pitch": 79, "duration": 12, "velocity": 107}, {"time": 2835, "pitch": 79, "duration": 1, "velocity": 117}, {"time": 2841, "pitch": 79, "duration": 3, "velocity": 117}, {"time": 2847, "pitch": 79, "duration": 4, "velocity": 102}, {"time": 2853, "pitch": 77, "duration": 3, "velocity": 97}, {"time": 2859, "pitch": 74, "duration": 5, "velocity": 92}, {"time": 2865, "pitch": 79, "duration": 11, "velocity": 97}, {"time": 2877, "pitch": 77, "duration": 14, "velocity": 96}, {"time": 2889, "pitch": 65, "duration": 4, "velocity": 97}, {"time": 2895, "pitch": 74, "duration": 5, "velocity": 96}, {"time": 2901, "pitch": 75, "duration": 4, "velocity": 99}, {"time": 2907, "pitch": 77, "duration": 3, "velocity": 93}, {"time": 2913, "pitch": 70, "duration": 14, "velocity": 99}, {"time": 2931, "pitch": 74, "duration": 6, "velocity": 99}, {"time": 2937, "pitch": 72, "duration": 14, "velocity": 79}, {"time": 2955, "pitch": 70, "duration": 4, "velocity": 100}, {"time": 2961, "pitch": 70, "duration": 32, "velocity": 112}]}, {"program": 0, "is_drum": false, "name": "BRIDGE", "notes": [{"time": 105, "pitch": 74, "duration": 6, "velocity": 79}, {"time": 111, "pitch": 82, "duration": 5, "velocity": 88}, {"time": 117, "pitch": 81, "duration": 5, "velocity": 79}, {"time": 123, "pitch": 79, "duration": 6, "velocity": 88}, {"time": 129, "pitch": 77, "duration": 6, "velocity": 73}, {"time": 135, "pitch": 79, "duration": 12, "velocity": 82}, {"time": 147, "pitch": 79, "duration": 4, "velocity": 83}, {"time": 153, "pitch": 79, "duration": 4, "velocity": 81}, {"time": 159, "pitch": 79, "duration": 6, "velocity": 82}, {"time": 165, "pitch": 77, "duration": 6, "velocity": 72}, {"time": 171, "pitch": 74, "duration": 6, "velocity": 73}, {"time": 177, "pitch": 79, "duration": 7, "velocity": 69}, {"time": 183, "pitch": 77, "duration": 22, "velocity": 75}, {"time": 207, "pitch": 74, "duration": 6, "velocity": 86}, {"time": 213, "pitch": 77, "duration": 5, "velocity": 65}, {"time": 219, "pitch": 77, "duration": 6, "velocity": 81}, {"time": 225, "pitch": 74, "duration": 7, "velocity": 77}, {"time": 231, "pitch": 77, "duration": 12, "velocity": 95}, {"time": 243, "pitch": 77, "duration": 1, "velocity": 86}, {"time": 249, "pitch": 77, "duration": 4, "velocity": 92}, {"time": 255, "pitch": 74, "duration": 6, "velocity": 88}, {"time": 261, "pitch": 77, "duration": 5, "velocity": 86}, {"time": 267, "pitch": 77, "duration": 5, "velocity": 79}, {"time": 273, "pitch": 84, "duration": 6, "velocity": 100}, {"time": 279, "pitch": 82, "duration": 19, "velocity": 95}, {"time": 315, "pitch": 67, "duration": 2, "velocity": 83}, {"time": 317, "pitch": 69, "duration": 3, "velocity": 59}, {"time": 319, "pitch": 70, "duration": 3, "velocity": 90}, {"time": 321, "pitch": 72, "duration": 3, "velocity": 96}, {"time": 323, "pitch": 74, "duration": 2, "velocity": 85}, {"time": 325, "pitch": 77, "duration": 2, "velocity": 77}, {"time": 327, "pitch": 79, "duration": 20, "velocity": 90}, {"time": 351, "pitch": 79, "duration": 6, "velocity": 86}, {"time": 357, "pitch": 77, "duration": 6, "velocity": 78}, {"time": 363, "pitch": 74, "duration": 6, "velocity": 88}, {"time": 369, "pitch": 72, "duration": 6, "velocity": 89}, {"time": 375, "pitch": 74, "duration": 22, "velocity": 97}, {"time": 408, "pitch": 72, "duration": 3, "velocity": 75}, {"time": 411, "pitch": 74, "duration": 6, "velocity": 96}, {"time": 417, "pitch": 77, "duration": 7, "velocity": 85}, {"time": 423, "pitch": 79, "duration": 20, "velocity": 100}, {"time": 453, "pitch": 74, "duration": 6, "velocity": 93}, {"time": 459, "pitch": 70, "duration": 5, "velocity": 99}, {"time": 465, "pitch": 69, "duration": 6, "velocity": 78}, {"time": 471, "pitch": 67, "duration": 21, "velocity": 83}, {"time": 489, "pitch": 58, "duration": 5, "velocity": 100}, {"time": 495, "pitch": 60, "duration": 4, "velocity": 93}, {"time": 499, "pitch": 62, "duration": 4, "velocity": 95}, {"time": 503, "pitch": 65, "duration": 4, "velocity": 90}, {"time": 507, "pitch": 69, "duration": 11, "velocity": 95}, {"time": 513, "pitch": 70, "duration": 6, "velocity": 92}, {"time": 519, "pitch": 74, "duration": 19, "velocity": 85}, {"time": 525, "pitch": 79, "duration": 6, "velocity": 86}, {"time": 530, "pitch": 86, "duration": 5, "velocity": 95}, {"time": 537, "pitch": 86, "duration": 6, "velocity": 92}, {"time": 543, "pitch": 84, "duration": 14, "velocity": 99}, {"time": 556, "pitch": 72, "duration": 4, "velocity": 93}, {"time": 559, "pitch": 70, "duration": 5, "velocity": 99}, {"time": 563, "pitch": 66, "duration": 4, "velocity": 77}, {"time": 567, "pitch": 65, "duration": 12, "velocity": 81}, {"time": 573, "pitch": 77, "duration": 6, "velocity": 85}, {"time": 579, "pitch": 84, "duration": 4, "velocity": 90}, {"time": 585, "pitch": 84, "duration": 6, "velocity": 89}, {"time": 591, "pitch": 83, "duration": 18, "velocity": 83}, {"time": 597, "pitch": 80, "duration": 5, "velocity": 97}, {"time": 603, "pitch": 79, "duration": 6, "velocity": 89}, {"time": 609, "pitch": 77, "duration": 6, "velocity": 73}, {"time": 615, "pitch": 75, "duration": 20, "velocity": 90}, {"time": 639, "pitch": 74, "duration": 12, "velocity": 93}, {"time": 651, "pitch": 72, "duration": 12, "velocity": 85}, {"time": 663, "pitch": 70, "duration": 45, "velocity": 89}, {"time": 997, "pitch": 69, "duration": 2, "velocity": 50}, {"time": 998, "pitch": 70, "duration": 2, "velocity": 67}, {"time": 999, "pitch": 72, "duration": 8, "velocity": 90}, {"time": 1005, "pitch": 55, "duration": 6, "velocity": 83}, {"time": 1011, "pitch": 57, "duration": 6, "velocity": 77}, {"time": 1017, "pitch": 58, "duration": 7, "velocity": 83}, {"time": 1023, "pitch": 62, "duration": 4, "velocity": 82}, {"time": 1027, "pitch": 65, "duration": 4, "velocity": 72}, {"time": 1031, "pitch": 72, "duration": 3, "velocity": 97}, {"time": 1034, "pitch": 70, "duration": 5, "velocity": 97}, {"time": 1038, "pitch": 69, "duration": 4, "velocity": 85}, {"time": 1042, "pitch": 65, "duration": 4, "velocity": 76}, {"time": 1046, "pitch": 62, "duration": 26, "velocity": 88}, {"time": 1143, "pitch": 74, "duration": 6, "velocity": 89}, {"time": 1149, "pitch": 77, "duration": 5, "velocity": 92}, {"time": 1155, "pitch": 72, "duration": 6, "velocity": 77}, {"time": 1161, "pitch": 74, "duration": 21, "velocity": 55}, {"time": 1334, "pitch": 77, "duration": 13, "velocity": 102}, {"time": 1347, "pitch": 74, "duration": 12, "velocity": 90}, {"time": 1359, "pitch": 77, "duration": 23, "velocity": 70}, {"time": 1455, "pitch": 82, "duration": 6, "velocity": 107}, {"time": 1461, "pitch": 81, "duration": 6, "velocity": 96}, {"time": 1466, "pitch": 79, "duration": 7, "velocity": 86}, {"time": 1472, "pitch": 77, "duration": 5, "velocity": 78}, {"time": 1478, "pitch": 79, "duration": 11, "velocity": 89}, {"time": 1491, "pitch": 79, "duration": 6, "velocity": 97}, {"time": 1497, "pitch": 77, "duration": 6, "velocity": 79}, {"time": 1503, "pitch": 79, "duration": 7, "velocity": 82}, {"time": 1509, "pitch": 82, "duration": 6, "velocity": 95}, {"time": 1515, "pitch": 84, "duration": 6, "velocity": 85}, {"time": 1521, "pitch": 86, "duration": 5, "velocity": 90}, {"time": 1527, "pitch": 77, "duration": 20, "velocity": 85}, {"time": 1556, "pitch": 77, "duration": 5, "velocity": 86}, {"time": 1563, "pitch": 77, "duration": 5, "velocity": 83}, {"time": 1568, "pitch": 79, "duration": 8, "velocity": 83}, {"time": 1574, "pitch": 70, "duration": 17, "velocity": 78}, {"time": 1592, "pitch": 67, "duration": 6, "velocity": 86}, {"time": 1598, "pitch": 70, "duration": 7, "velocity": 85}, {"time": 1604, "pitch": 72, "duration": 7, "velocity": 90}, {"time": 1610, "pitch": 74, "duration": 7, "velocity": 85}, {"time": 1617, "pitch": 77, "duration": 6, "velocity": 82}, {"time": 1623, "pitch": 74, "duration": 21, "velocity": 86}, {"time": 1641, "pitch": 60, "duration": 6, "velocity": 85}, {"time": 1647, "pitch": 62, "duration": 7, "velocity": 82}, {"time": 1653, "pitch": 65, "duration": 4, "velocity": 95}, {"time": 1659, "pitch": 67, "duration": 5, "velocity": 96}, {"time": 1663, "pitch": 70, "duration": 5, "velocity": 100}, {"time": 1667, "pitch": 72, "duration": 5, "velocity": 86}, {"time": 1671, "pitch": 74, "duration": 16, "velocity": 89}, {"time": 1695, "pitch": 72, "duration": 7, "velocity": 95}, {"time": 1703, "pitch": 75, "duration": 6, "velocity": 107}, {"time": 1710, "pitch": 74, "duration": 6, "velocity": 95}, {"time": 1715, "pitch": 72, "duration": 2, "velocity": 72}, {"time": 1719, "pitch": 72, "duration": 10, "velocity": 77}, {"time": 1742, "pitch": 71, "duration": 8, "velocity": 82}, {"time": 1752, "pitch": 72, "duration": 9, "velocity": 107}, {"time": 1761, "pitch": 74, "duration": 6, "velocity": 102}, {"time": 1767, "pitch": 75, "duration": 16, "velocity": 102}, {"time": 1779, "pitch": 74, "duration": 12, "velocity": 93}, {"time": 1791, "pitch": 70, "duration": 13, "velocity": 95}, {"time": 1812, "pitch": 69, "duration": 3, "velocity": 75}, {"time": 1815, "pitch": 70, "duration": 38, "velocity": 93}, {"time": 2151, "pitch": 60, "duration": 2, "velocity": 77}, {"time": 2152, "pitch": 62, "duration": 2, "velocity": 78}, {"time": 2154, "pitch": 69, "duration": 4, "velocity": 99}, {"time": 2157, "pitch": 72, "duration": 3, "velocity": 97}, {"time": 2160, "pitch": 69, "duration": 2, "velocity": 89}, {"time": 2163, "pitch": 65, "duration": 8, "velocity": 93}, {"time": 2167, "pitch": 58, "duration": 4, "velocity": 81}, {"time": 2170, "pitch": 62, "duration": 6, "velocity": 79}, {"time": 2179, "pitch": 72, "duration": 7, "velocity": 112}, {"time": 2188, "pitch": 70, "duration": 2, "velocity": 112}, {"time": 2190, "pitch": 69, "duration": 2, "velocity": 83}, {"time": 2191, "pitch": 70, "duration": 19, "velocity": 102}, {"time": 2247, "pitch": 86, "duration": 36, "velocity": 127}, {"time": 2283, "pitch": 84, "duration": 9, "velocity": 127}, {"time": 2295, "pitch": 86, "duration": 24, "velocity": 127}, {"time": 2343, "pitch": 79, "duration": 23, "velocity": 127}, {"time": 2367, "pitch": 82, "duration": 9, "velocity": 127}, {"time": 2379, "pitch": 81, "duration": 10, "velocity": 127}, {"time": 2391, "pitch": 82, "duration": 20, "velocity": 127}, {"time": 2403, "pitch": 84, "duration": 10, "velocity": 127}, {"time": 2415, "pitch": 86, "duration": 10, "velocity": 127}, {"time": 2427, "pitch": 77, "duration": 10, "velocity": 127}, {"time": 2439, "pitch": 86, "duration": 34, "velocity": 127}, {"time": 2475, "pitch": 84, "duration": 10, "velocity": 127}, {"time": 2487, "pitch": 86, "duration": 34, "velocity": 127}, {"time": 2535, "pitch": 79, "duration": 22, "velocity": 127}, {"time": 2559, "pitch": 82, "duration": 10, "velocity": 127}, {"time": 2571, "pitch": 81, "duration": 9, "velocity": 127}, {"time": 2582, "pitch": 70, "duration": 5, "velocity": 102}, {"time": 2583, "pitch": 82, "duration": 12, "velocity": 127}, {"time": 2588, "pitch": 70, "duration": 5, "velocity": 99}, {"time": 2594, "pitch": 72, "duration": 5, "velocity": 102}, {"time": 2595, "pitch": 84, "duration": 10, "velocity": 127}, {"time": 2600, "pitch": 72, "duration": 5, "velocity": 100}, {"time": 2606, "pitch": 74, "duration": 5, "velocity": 127}, {"time": 2607, "pitch": 86, "duration": 11, "velocity": 127}, {"time": 2627, "pitch": 74, "duration": 2, "velocity": 73}, {"time": 2629, "pitch": 77, "duration": 2, "velocity": 97}, {"time": 2631, "pitch": 79, "duration": 24, "velocity": 102}, {"time": 2655, "pitch": 77, "duration": 24, "velocity": 102}, {"time": 2679, "pitch": 74, "duration": 9, "velocity": 96}, {"time": 2691, "pitch": 72, "duration": 13, "velocity": 122}, {"time": 2703, "pitch": 74, "duration": 17, "velocity": 100}, {"time": 2720, "pitch": 72, "duration": 7, "velocity": 102}, {"time": 2726, "pitch": 70, "duration": 26, "velocity": 112}, {"time": 2751, "pitch": 72, "duration": 17, "velocity": 122}, {"time": 2769, "pitch": 72, "duration": 6, "velocity": 112}, {"time": 2775, "pitch": 74, "duration": 16, "velocity": 97}, {"time": 2792, "pitch": 72, "duration": 7, "velocity": 100}, {"time": 2799, "pitch": 74, "duration": 6, "velocity": 122}, {"time": 2804, "pitch": 77, "duration": 6, "velocity": 122}, {"time": 2810, "pitch": 82, "duration": 6, "velocity": 127}, {"time": 2816, "pitch": 81, "duration": 7, "velocity": 100}, {"time": 2823, "pitch": 79, "duration": 28, "velocity": 122}, {"time": 2858, "pitch": 77, "duration": 13, "velocity": 112}, {"time": 2871, "pitch": 74, "duration": 18, "velocity": 97}, {"time": 2882, "pitch": 72, "duration": 7, "velocity": 117}, {"time": 2889, "pitch": 77, "duration": 6, "velocity": 107}, {"time": 2895, "pitch": 74, "duration": 17, "velocity": 102}, {"time": 2907, "pitch": 72, "duration": 11, "velocity": 107}, {"time": 2919, "pitch": 70, "duration": 21, "velocity": 100}, {"time": 2942, "pitch": 72, "duration": 23, "velocity": 117}, {"time": 2966, "pitch": 70, "duration": 5, "velocity": 102}, {"time": 2972, "pitch": 70, "duration": 5, "velocity": 100}, {"time": 2979, "pitch": 70, "duration": 4, "velocity": 112}, {"time": 2985, "pitch": 70, "duration": 4, "velocity": 127}, {"time": 3015, "pitch": 79, "duration": 9, "velocity": 96}, {"time": 3027, "pitch": 79, "duration": 5, "velocity": 99}, {"time": 3032, "pitch": 77, "duration": 7, "velocity": 88}, {"time": 3039, "pitch": 79, "duration": 10, "velocity": 89}, {"time": 3044, "pitch": 82, "duration": 7, "velocity": 100}, {"time": 3051, "pitch": 84, "duration": 6, "velocity": 92}, {"time": 3056, "pitch": 86, "duration": 6, "velocity": 75}, {"time": 3062, "pitch": 77, "duration": 23, "velocity": 79}, {"time": 3092, "pitch": 77, "duration": 5, "velocity": 96}, {"time": 3099, "pitch": 77, "duration": 6, "velocity": 95}, {"time": 3105, "pitch": 79, "duration": 6, "velocity": 85}, {"time": 3111, "pitch": 70, "duration": 17, "velocity": 97}, {"time": 3128, "pitch": 67, "duration": 7, "velocity": 81}, {"time": 3134, "pitch": 70, "duration": 7, "velocity": 89}, {"time": 3140, "pitch": 72, "duration": 7, "velocity": 89}, {"time": 3146, "pitch": 74, "duration": 6, "velocity": 83}, {"time": 3152, "pitch": 77, "duration": 7, "velocity": 81}, {"time": 3158, "pitch": 74, "duration": 29, "velocity": 93}, {"time": 3177, "pitch": 60, "duration": 6, "velocity": 90}, {"time": 3183, "pitch": 62, "duration": 5, "velocity": 82}, {"time": 3189, "pitch": 65, "duration": 5, "velocity": 88}, {"time": 3195, "pitch": 67, "duration": 4, "velocity": 99}, {"time": 3199, "pitch": 70, "duration": 5, "velocity": 92}, {"time": 3203, "pitch": 72, "duration": 5, "velocity": 92}, {"time": 3207, "pitch": 74, "duration": 13, "velocity": 112}, {"time": 3231, "pitch": 72, "duration": 11, "velocity": 85}, {"time": 3239, "pitch": 75, "duration": 4, "velocity": 100}, {"time": 3247, "pitch": 74, "duration": 4, "velocity": 99}, {"time": 3252, "pitch": 72, "duration": 2, "velocity": 92}, {"time": 3255, "pitch": 72, "duration": 13, "velocity": 97}, {"time": 3279, "pitch": 62, "duration": 8, "velocity": 93}, {"time": 3288, "pitch": 63, "duration": 7, "velocity": 95}, {"time": 3288, "pitch": 72, "duration": 9, "velocity": 102}, {"time": 3296, "pitch": 65, "duration": 7, "velocity": 90}, {"time": 3297, "pitch": 74, "duration": 6, "velocity": 96}, {"time": 3303, "pitch": 67, "duration": 16, "velocity": 95}, {"time": 3303, "pitch": 75, "duration": 16, "velocity": 107}, {"time": 3327, "pitch": 70, "duration": 22, "velocity": 93}, {"time": 3348, "pitch": 69, "duration": 3, "velocity": 86}, {"time": 3351, "pitch": 70, "duration": 47, "velocity": 93}, {"time": 3402, "pitch": 70, "duration": 2, "velocity": 99}, {"time": 3404, "pitch": 65, "duration": 3, "velocity": 69}, {"time": 3406, "pitch": 60, "duration": 48, "velocity": 83}]}, {"program": 0, "is_drum": false, "name": "PIANO", "notes": [{"time": 135, "pitch": 39, "duration": 14, "velocity": 73}, {"time": 141, "pitch": 46, "duration": 7, "velocity": 31}, {"time": 147, "pitch": 63, "duration": 12, "velocity": 92}, {"time": 153, "pitch": 58, "duration": 6, "velocity": 60}, {"time": 159, "pitch": 41, "duration": 14, "velocity": 68}, {"time": 165, "pitch": 48, "duration": 8, "velocity": 55}, {"time": 171, "pitch": 60, "duration": 12, "velocity": 63}, {"time": 171, "pitch": 65, "duration": 12, "velocity": 62}, {"time": 177, "pitch": 57, "duration": 6, "velocity": 49}, {"time": 183, "pitch": 46, "duration": 38, "velocity": 63}, {"time": 189, "pitch": 53, "duration": 31, "velocity": 48}, {"time": 195, "pitch": 58, "duration": 14, "velocity": 82}, {"time": 201, "pitch": 62, "duration": 8, "velocity": 52}, {"time": 207, "pitch": 65, "duration": 25, "velocity": 72}, {"time": 213, "pitch": 58, "duration": 7, "velocity": 52}, {"time": 219, "pitch": 62, "duration": 13, "velocity": 66}, {"time": 225, "pitch": 60, "duration": 7, "velocity": 43}, {"time": 231, "pitch": 39, "duration": 17, "velocity": 76}, {"time": 237, "pitch": 46, "duration": 10, "velocity": 28}, {"time": 243, "pitch": 51, "duration": 7, "velocity": 59}, {"time": 243, "pitch": 63, "duration": 13, "velocity": 85}, {"time": 249, "pitch": 58, "duration": 7, "velocity": 44}, {"time": 255, "pitch": 41, "duration": 15, "velocity": 66}, {"time": 261, "pitch": 48, "duration": 11, "velocity": 59}, {"time": 267, "pitch": 60, "duration": 12, "velocity": 83}, {"time": 273, "pitch": 57, "duration": 6, "velocity": 59}, {"time": 279, "pitch": 43, "duration": 39, "velocity": 70}, {"time": 285, "pitch": 50, "duration": 32, "velocity": 66}, {"time": 291, "pitch": 55, "duration": 14, "velocity": 72}, {"time": 297, "pitch": 58, "duration": 7, "velocity": 67}, {"time": 303, "pitch": 67, "duration": 6, "velocity": 68}, {"time": 309, "pitch": 55, "duration": 5, "velocity": 68}, {"time": 315, "pitch": 62, "duration": 13, "velocity": 88}, {"time": 321, "pitch": 58, "duration": 7, "velocity": 83}, {"time": 324, "pitch": 55, "duration": 3, "velocity": 41}, {"time": 327, "pitch": 39, "duration": 16, "velocity": 85}, {"time": 333, "pitch": 46, "duration": 10, "velocity": 57}, {"time": 339, "pitch": 51, "duration": 6, "velocity": 82}, {"time": 339, "pitch": 63, "duration": 12, "velocity": 107}, {"time": 345, "pitch": 58, "duration": 6, "velocity": 71}, {"time": 351, "pitch": 41, "duration": 14, "velocity": 67}, {"time": 357, "pitch": 48, "duration": 8, "velocity": 65}, {"time": 363, "pitch": 60, "duration": 12, "velocity": 89}, {"time": 369, "pitch": 57, "duration": 6, "velocity": 57}, {"time": 375, "pitch": 46, "duration": 37, "velocity": 63}, {"time": 381, "pitch": 53, "duration": 30, "velocity": 56}, {"time": 387, "pitch": 58, "duration": 13, "velocity": 79}, {"time": 393, "pitch": 62, "duration": 7, "velocity": 70}, {"time": 399, "pitch": 65, "duration": 12, "velocity": 95}, {"time": 405, "pitch": 58, "duration": 5, "velocity": 78}, {"time": 411, "pitch": 62, "duration": 12, "velocity": 78}, {"time": 417, "pitch": 65, "duration": 6, "velocity": 60}, {"time": 423, "pitch": 39, "duration": 16, "velocity": 72}, {"time": 429, "pitch": 46, "duration": 10, "velocity": 32}, {"time": 435, "pitch": 51, "duration": 4, "velocity": 45}, {"time": 435, "pitch": 58, "duration": 12, "velocity": 89}, {"time": 441, "pitch": 55, "duration": 7, "velocity": 63}, {"time": 447, "pitch": 41, "duration": 14, "velocity": 66}, {"time": 453, "pitch": 48, "duration": 9, "velocity": 61}, {"time": 459, "pitch": 60, "duration": 12, "velocity": 86}, {"time": 465, "pitch": 57, "duration": 7, "velocity": 55}, {"time": 471, "pitch": 43, "duration": 39, "velocity": 68}, {"time": 477, "pitch": 50, "duration": 21, "velocity": 59}, {"time": 483, "pitch": 55, "duration": 11, "velocity": 59}, {"time": 489, "pitch": 58, "duration": 15, "velocity": 66}, {"time": 495, "pitch": 62, "duration": 23, "velocity": 86}, {"time": 501, "pitch": 50, "duration": 8, "velocity": 55}, {"time": 507, "pitch": 58, "duration": 11, "velocity": 88}, {"time": 513, "pitch": 55, "duration": 5, "velocity": 64}, {"time": 519, "pitch": 39, "duration": 19, "velocity": 69}, {"time": 525, "pitch": 46, "duration": 12, "velocity": 29}, {"time": 531, "pitch": 51, "duration": 7, "velocity": 42}, {"time": 531, "pitch": 63, "duration": 12, "velocity": 89}, {"time": 537, "pitch": 58, "duration": 6, "velocity": 60}, {"time": 543, "pitch": 42, "duration": 15, "velocity": 88}, {"time": 549, "pitch": 54, "duration": 8, "velocity": 67}, {"time": 555, "pitch": 57, "duration": 11, "velocity": 70}, {"time": 561, "pitch": 60, "duration": 5, "velocity": 59}, {"time": 567, "pitch": 38, "duration": 13, "velocity": 69}, {"time": 573, "pitch": 45, "duration": 8, "velocity": 56}, {"time": 579, "pitch": 53, "duration": 12, "velocity": 61}, {"time": 579, "pitch": 57, "duration": 12, "velocity": 69}, {"time": 585, "pitch": 50, "duration": 6, "velocity": 55}, {"time": 591, "pitch": 43, "duration": 15, "velocity": 67}, {"time": 597, "pitch": 50, "duration": 8, "velocity": 51}, {"time": 603, "pitch": 55, "duration": 4, "velocity": 58}, {"time": 603, "pitch": 59, "duration": 12, "velocity": 69}, {"time": 603, "pitch": 62, "duration": 12, "velocity": 73}, {"time": 609, "pitch": 55, "duration": 6, "velocity": 55}, {"time": 615, "pitch": 36, "duration": 13, "velocity": 72}, {"time": 621, "pitch": 43, "duration": 7, "velocity": 58}, {"time": 627, "pitch": 51, "duration": 11, "velocity": 78}, {"time": 627, "pitch": 55, "duration": 12, "velocity": 77}, {"time": 633, "pitch": 48, "duration": 5, "velocity": 54}, {"time": 639, "pitch": 41, "duration": 15, "velocity": 69}, {"time": 645, "pitch": 48, "duration": 9, "velocity": 50}, {"time": 651, "pitch": 53, "duration": 10, "velocity": 40}, {"time": 651, "pitch": 57, "duration": 8, "velocity": 73}, {"time": 663, "pitch": 46, "duration": 15, "velocity": 62}, {"time": 663, "pitch": 63, "duration": 9, "velocity": 69}, {"time": 663, "pitch": 65, "duration": 9, "velocity": 66}, {"time": 675, "pitch": 63, "duration": 7, "velocity": 67}, {"time": 675, "pitch": 65, "duration": 7, "velocity": 62}, {"time": 681, "pitch": 46, "duration": 5, "velocity": 50}, {"time": 687, "pitch": 46, "duration": 21, "velocity": 68}, {"time": 687, "pitch": 58, "duration": 22, "velocity": 58}, {"time": 687, "pitch": 62, "duration": 22, "velocity": 73}, {"time": 687, "pitch": 65, "duration": 22, "velocity": 62}, {"time": 711, "pitch": 39, "duration": 40, "velocity": 68}, {"time": 711, "pitch": 53, "duration": 10, "velocity": 60}, {"time": 711, "pitch": 58, "duration": 10, "velocity": 57}, {"time": 711, "pitch": 62, "duration": 10, "velocity": 60}, {"time": 723, "pitch": 53, "duration": 10, "velocity": 57}, {"time": 723, "pitch": 58, "duration": 7, "velocity": 59}, {"time": 723, "pitch": 62, "duration": 7, "velocity": 63}, {"time": 729, "pitch": 51, "duration": 8, "velocity": 47}, {"time": 735, "pitch": 53, "duration": 11, "velocity": 56}, {"time": 735, "pitch": 58, "duration": 11, "velocity": 63}, {"time": 735, "pitch": 62, "duration": 10, "velocity": 66}, {"time": 747, "pitch": 53, "duration": 1, "velocity": 34}, {"time": 747, "pitch": 58, "duration": 10, "velocity": 72}, {"time": 747, "pitch": 62, "duration": 10, "velocity": 73}, {"time": 753, "pitch": 53, "duration": 17, "velocity": 45}, {"time": 759, "pitch": 41, "duration": 44, "velocity": 37}, {"time": 759, "pitch": 58, "duration": 9, "velocity": 61}, {"time": 759, "pitch": 62, "duration": 10, "velocity": 74}, {"time": 771, "pitch": 53, "duration": 23, "velocity": 59}, {"time": 771, "pitch": 58, "duration": 8, "velocity": 62}, {"time": 771, "pitch": 62, "duration": 11, "velocity": 68}, {"time": 783, "pitch": 62, "duration": 11, "velocity": 53}, {"time": 795, "pitch": 53, "duration": 5, "velocity": 54}, {"time": 795, "pitch": 58, "duration": 8, "velocity": 83}, {"time": 795, "pitch": 62, "duration": 9, "velocity": 82}, {"time": 801, "pitch": 53, "duration": 5, "velocity": 48}, {"time": 807, "pitch": 45, "duration": 41, "velocity": 54}, {"time": 807, "pitch": 53, "duration": 11, "velocity": 58}, {"time": 807, "pitch": 57, "duration": 10, "velocity": 69}, {"time": 807, "pitch": 58, "duration": 10, "velocity": 64}, {"time": 807, "pitch": 62, "duration": 10, "velocity": 64}, {"time": 819, "pitch": 53, "duration": 10, "velocity": 52}, {"time": 819, "pitch": 57, "duration": 10, "velocity": 64}, {"time": 819, "pitch": 58, "duration": 10, "velocity": 56}, {"time": 819, "pitch": 62, "duration": 10, "velocity": 59}, {"time": 831, "pitch": 53, "duration": 9, "velocity": 51}, {"time": 831, "pitch": 57, "duration": 9, "velocity": 58}, {"time": 831, "pitch": 58, "duration": 10, "velocity": 47}, {"time": 831, "pitch": 62, "duration": 10, "velocity": 48}, {"time": 843, "pitch": 57, "duration": 11, "velocity": 65}, {"time": 843, "pitch": 58, "duration": 12, "velocity": 59}, {"time": 843, "pitch": 62, "duration": 12, "velocity": 62}, {"time": 849, "pitch": 53, "duration": 6, "velocity": 56}, {"time": 855, "pitch": 43, "duration": 18, "velocity": 76}, {"time": 861, "pitch": 50, "duration": 12, "velocity": 61}, {"time": 867, "pitch": 55, "duration": 1, "velocity": 40}, {"time": 867, "pitch": 62, "duration": 13, "velocity": 99}, {"time": 873, "pitch": 55, "duration": 8, "velocity": 74}, {"time": 879, "pitch": 41, "duration": 15, "velocity": 77}, {"time": 885, "pitch": 48, "duration": 10, "velocity": 59}, {"time": 891, "pitch": 53, "duration": 3, "velocity": 69}, {"time": 891, "pitch": 60, "duration": 12, "velocity": 97}, {"time": 897, "pitch": 57, "duration": 6, "velocity": 61}, {"time": 903, "pitch": 39, "duration": 39, "velocity": 97}, {"time": 909, "pitch": 46, "duration": 32, "velocity": 56}, {"time": 915, "pitch": 51, "duration": 15, "velocity": 85}, {"time": 921, "pitch": 55, "duration": 31, "velocity": 60}, {"time": 927, "pitch": 58, "duration": 13, "velocity": 67}, {"time": 927, "pitch": 63, "duration": 10, "velocity": 96}, {"time": 933, "pitch": 51, "duration": 10, "velocity": 52}, {"time": 939, "pitch": 63, "duration": 12, "velocity": 99}, {"time": 945, "pitch": 58, "duration": 6, "velocity": 63}, {"time": 951, "pitch": 41, "duration": 44, "velocity": 88}, {"time": 957, "pitch": 48, "duration": 43, "velocity": 62}, {"time": 963, "pitch": 60, "duration": 13, "velocity": 97}, {"time": 969, "pitch": 53, "duration": 9, "velocity": 66}, {"time": 975, "pitch": 57, "duration": 13, "velocity": 82}, {"time": 981, "pitch": 53, "duration": 7, "velocity": 49}, {"time": 987, "pitch": 60, "duration": 13, "velocity": 71}, {"time": 999, "pitch": 43, "duration": 41, "velocity": 55}, {"time": 1005, "pitch": 50, "duration": 21, "velocity": 48}, {"time": 1011, "pitch": 55, "duration": 13, "velocity": 88}, {"time": 1017, "pitch": 57, "duration": 7, "velocity": 64}, {"time": 1023, "pitch": 58, "duration": 10, "velocity": 99}, {"time": 1029, "pitch": 50, "duration": 12, "velocity": 86}, {"time": 1035, "pitch": 62, "duration": 12, "velocity": 107}, {"time": 1041, "pitch": 55, "duration": 6, "velocity": 85}, {"time": 1047, "pitch": 43, "duration": 17, "velocity": 60}, {"time": 1047, "pitch": 50, "duration": 17, "velocity": 64}, {"time": 1047, "pitch": 55, "duration": 17, "velocity": 78}, {"time": 1047, "pitch": 58, "duration": 17, "velocity": 81}, {"time": 1047, "pitch": 62, "duration": 17, "velocity": 72}, {"time": 1095, "pitch": 39, "duration": 17, "velocity": 99}, {"time": 1095, "pitch": 46, "duration": 12, "velocity": 65}, {"time": 1095, "pitch": 51, "duration": 6, "velocity": 92}, {"time": 1095, "pitch": 55, "duration": 6, "velocity": 79}, {"time": 1095, "pitch": 63, "duration": 10, "velocity": 122}, {"time": 1107, "pitch": 51, "duration": 2, "velocity": 85}, {"time": 1107, "pitch": 55, "duration": 6, "velocity": 79}, {"time": 1107, "pitch": 63, "duration": 10, "velocity": 122}, {"time": 1113, "pitch": 58, "duration": 4, "velocity": 86}, {"time": 1119, "pitch": 41, "duration": 16, "velocity": 66}, {"time": 1119, "pitch": 48, "duration": 13, "velocity": 62}, {"time": 1119, "pitch": 53, "duration": 7, "velocity": 85}, {"time": 1119, "pitch": 57, "duration": 6, "velocity": 92}, {"time": 1119, "pitch": 65, "duration": 12, "velocity": 97}, {"time": 1131, "pitch": 53, "duration": 7, "velocity": 85}, {"time": 1131, "pitch": 57, "duration": 6, "velocity": 92}, {"time": 1131, "pitch": 65, "duration": 1, "velocity": 97}, {"time": 1137, "pitch": 60, "duration": 5, "velocity": 88}, {"time": 1143, "pitch": 46, "duration": 22, "velocity": 77}, {"time": 1143, "pitch": 53, "duration": 21, "velocity": 79}, {"time": 1143, "pitch": 58, "duration": 7, "velocity": 79}, {"time": 1143, "pitch": 62, "duration": 6, "velocity": 79}, {"time": 1143, "pitch": 70, "duration": 6, "velocity": 79}, {"time": 1155, "pitch": 58, "duration": 7, "velocity": 95}, {"time": 1155, "pitch": 62, "duration": 5, "velocity": 93}, {"time": 1155, "pitch": 65, "duration": 7, "velocity": 86}, {"time": 1161, "pitch": 62, "duration": 2, "velocity": 83}, {"time": 1167, "pitch": 46, "duration": 17, "velocity": 85}, {"time": 1167, "pitch": 53, "duration": 13, "velocity": 85}, {"time": 1167, "pitch": 58, "duration": 7, "velocity": 83}, {"time": 1167, "pitch": 62, "duration": 6, "velocity": 83}, {"time": 1167, "pitch": 65, "duration": 7, "velocity": 83}, {"time": 1167, "pitch": 70, "duration": 7, "velocity": 83}, {"time": 1173, "pitch": 58, "duration": 1, "velocity": 81}, {"time": 1179, "pitch": 58, "duration": 1, "velocity": 95}, {"time": 1179, "pitch": 62, "duration": 6, "velocity": 93}, {"time": 1179, "pitch": 65, "duration": 7, "velocity": 86}, {"time": 1185, "pitch": 65, "duration": 1, "velocity": 85}, {"time": 1188, "pitch": 62, "duration": 3, "velocity": 92}, {"time": 1191, "pitch": 39, "duration": 17, "velocity": 83}, {"time": 1191, "pitch": 46, "duration": 13, "velocity": 58}, {"time": 1191, "pitch": 51, "duration": 6, "velocity": 82}, {"time": 1191, "pitch": 55, "duration": 6, "velocity": 81}, {"time": 1191, "pitch": 63, "duration": 11, "velocity": 112}, {"time": 1203, "pitch": 51, "duration": 2, "velocity": 92}, {"time": 1203, "pitch": 55, "duration": 6, "velocity": 81}, {"time": 1203, "pitch": 63, "duration": 11, "velocity": 112}, {"time": 1209, "pitch": 58, "duration": 5, "velocity": 89}, {"time": 1215, "pitch": 41, "duration": 19, "velocity": 75}, {"time": 1215, "pitch": 48, "duration": 10, "velocity": 55}, {"time": 1215, "pitch": 53, "duration": 4, "velocity": 83}, {"time": 1215, "pitch": 57, "duration": 3, "velocity": 78}, {"time": 1215, "pitch": 60, "duration": 11, "velocity": 97}, {"time": 1227, "pitch": 48, "duration": 9, "velocity": 70}, {"time": 1227, "pitch": 53, "duration": 4, "velocity": 83}, {"time": 1227, "pitch": 57, "duration": 3, "velocity": 78}, {"time": 1227, "pitch": 60, "duration": 11, "velocity": 97}, {"time": 1233, "pitch": 57, "duration": 5, "velocity": 79}, {"time": 1236, "pitch": 53, "duration": 2, "velocity": 81}, {"time": 1239, "pitch": 43, "duration": 22, "velocity": 83}, {"time": 1239, "pitch": 50, "duration": 10, "velocity": 56}, {"time": 1239, "pitch": 55, "duration": 4, "velocity": 85}, {"time": 1239, "pitch": 58, "duration": 4, "velocity": 92}, {"time": 1239, "pitch": 62, "duration": 13, "velocity": 92}, {"time": 1251, "pitch": 55, "duration": 4, "velocity": 85}, {"time": 1251, "pitch": 58, "duration": 4, "velocity": 92}, {"time": 1251, "pitch": 62, "duration": 1, "velocity": 92}, {"time": 1254, "pitch": 50, "duration": 9, "velocity": 69}, {"time": 1257, "pitch": 58, "duration": 3, "velocity": 86}, {"time": 1260, "pitch": 57, "duration": 2, "velocity": 77}, {"time": 1263, "pitch": 43, "duration": 17, "velocity": 82}, {"time": 1263, "pitch": 50, "duration": 10, "velocity": 81}, {"time": 1263, "pitch": 55, "duration": 3, "velocity": 86}, {"time": 1263, "pitch": 58, "duration": 3, "velocity": 96}, {"time": 1263, "pitch": 62, "duration": 10, "velocity": 96}, {"time": 1275, "pitch": 55, "duration": 3, "velocity": 86}, {"time": 1275, "pitch": 58, "duration": 2, "velocity": 96}, {"time": 1275, "pitch": 62, "duration": 10, "velocity": 96}, {"time": 1278, "pitch": 50, "duration": 1, "velocity": 72}, {"time": 1281, "pitch": 58, "duration": 5, "velocity": 99}, {"time": 1284, "pitch": 55, "duration": 3, "velocity": 85}, {"time": 1287, "pitch": 39, "duration": 17, "velocity": 77}, {"time": 1287, "pitch": 46, "duration": 14, "velocity": 47}, {"time": 1287, "pitch": 51, "duration": 6, "velocity": 69}, {"time": 1287, "pitch": 55, "duration": 1, "velocity": 74}, {"time": 1287, "pitch": 63, "duration": 10, "velocity": 112}, {"time": 1299, "pitch": 51, "duration": 6, "velocity": 69}, {"time": 1299, "pitch": 55, "duration": 5, "velocity": 74}, {"time": 1299, "pitch": 63, "duration": 10, "velocity": 112}, {"time": 1305, "pitch": 58, "duration": 5, "velocity": 93}, {"time": 1308, "pitch": 55, "duration": 3, "velocity": 97}, {"time": 1311, "pitch": 41, "duration": 16, "velocity": 74}, {"time": 1311, "pitch": 48, "duration": 10, "velocity": 59}, {"time": 1311, "pitch": 53, "duration": 5, "velocity": 75}, {"time": 1311, "pitch": 57, "duration": 3, "velocity": 67}, {"time": 1311, "pitch": 60, "duration": 11, "velocity": 95}, {"time": 1323, "pitch": 53, "duration": 5, "velocity": 75}, {"time": 1323, "pitch": 57, "duration": 3, "velocity": 67}, {"time": 1323, "pitch": 60, "duration": 11, "velocity": 95}, {"time": 1326, "pitch": 48, "duration": 2, "velocity": 58}, {"time": 1329, "pitch": 57, "duration": 5, "velocity": 85}, {"time": 1332, "pitch": 53, "duration": 2, "velocity": 73}, {"time": 1335, "pitch": 46, "duration": 21, "velocity": 85}, {"time": 1335, "pitch": 53, "duration": 20, "velocity": 64}, {"time": 1335, "pitch": 58, "duration": 6, "velocity": 93}, {"time": 1335, "pitch": 62, "duration": 3, "velocity": 79}, {"time": 1335, "pitch": 65, "duration": 7, "velocity": 100}, {"time": 1347, "pitch": 58, "duration": 6, "velocity": 93}, {"time": 1347, "pitch": 62, "duration": 3, "velocity": 79}, {"time": 1347, "pitch": 65, "duration": 7, "velocity": 100}, {"time": 1353, "pitch": 62, "duration": 5, "velocity": 92}, {"time": 1359, "pitch": 46, "duration": 17, "velocity": 68}, {"time": 1359, "pitch": 53, "duration": 13, "velocity": 57}, {"time": 1359, "pitch": 58, "duration": 7, "velocity": 88}, {"time": 1359, "pitch": 62, "duration": 4, "velocity": 90}, {"time": 1359, "pitch": 70, "duration": 12, "velocity": 117}, {"time": 1371, "pitch": 58, "duration": 7, "velocity": 88}, {"time": 1371, "pitch": 62, "duration": 4, "velocity": 90}, {"time": 1371, "pitch": 70, "duration": 12, "velocity": 74}, {"time": 1383, "pitch": 39, "duration": 17, "velocity": 69}, {"time": 1383, "pitch": 46, "duration": 13, "velocity": 56}, {"time": 1383, "pitch": 51, "duration": 6, "velocity": 67}, {"time": 1383, "pitch": 55, "duration": 6, "velocity": 77}, {"time": 1383, "pitch": 63, "duration": 11, "velocity": 102}, {"time": 1395, "pitch": 51, "duration": 6, "velocity": 67}, {"time": 1395, "pitch": 55, "duration": 6, "velocity": 77}, {"time": 1395, "pitch": 63, "duration": 11, "velocity": 102}, {"time": 1401, "pitch": 58, "duration": 5, "velocity": 82}, {"time": 1407, "pitch": 41, "duration": 22, "velocity": 58}, {"time": 1407, "pitch": 48, "duration": 10, "velocity": 40}, {"time": 1407, "pitch": 53, "duration": 6, "velocity": 90}, {"time": 1407, "pitch": 57, "duration": 3, "velocity": 95}, {"time": 1407, "pitch": 60, "duration": 12, "velocity": 99}, {"time": 1419, "pitch": 53, "duration": 6, "velocity": 90}, {"time": 1419, "pitch": 57, "duration": 3, "velocity": 95}, {"time": 1419, "pitch": 60, "duration": 1, "velocity": 99}, {"time": 1422, "pitch": 48, "duration": 9, "velocity": 62}, {"time": 1425, "pitch": 57, "duration": 6, "velocity": 54}, {"time": 1428, "pitch": 53, "duration": 3, "velocity": 58}, {"time": 1431, "pitch": 43, "duration": 22, "velocity": 67}, {"time": 1431, "pitch": 50, "duration": 9, "velocity": 42}, {"time": 1431, "pitch": 55, "duration": 5, "velocity": 76}, {"time": 1431, "pitch": 58, "duration": 3, "velocity": 74}, {"time": 1431, "pitch": 62, "duration": 18, "velocity": 89}, {"time": 1443, "pitch": 55, "duration": 5, "velocity": 76}, {"time": 1443, "pitch": 58, "duration": 3, "velocity": 74}, {"time": 1443, "pitch": 62, "duration": 6, "velocity": 89}, {"time": 1446, "pitch": 50, "duration": 9, "velocity": 76}, {"time": 1449, "pitch": 58, "duration": 17, "velocity": 85}, {"time": 1455, "pitch": 43, "duration": 15, "velocity": 73}, {"time": 1461, "pitch": 50, "duration": 8, "velocity": 40}, {"time": 1467, "pitch": 62, "duration": 11, "velocity": 69}, {"time": 1479, "pitch": 39, "duration": 15, "velocity": 89}, {"time": 1485, "pitch": 46, "duration": 9, "velocity": 30}, {"time": 1491, "pitch": 51, "duration": 4, "velocity": 39}, {"time": 1491, "pitch": 58, "duration": 13, "velocity": 65}, {"time": 1491, "pitch": 63, "duration": 13, "velocity": 77}, {"time": 1497, "pitch": 55, "duration": 7, "velocity": 55}, {"time": 1503, "pitch": 41, "duration": 14, "velocity": 58}, {"time": 1509, "pitch": 48, "duration": 10, "velocity": 56}, {"time": 1515, "pitch": 60, "duration": 12, "velocity": 82}, {"time": 1521, "pitch": 53, "duration": 6, "velocity": 63}, {"time": 1527, "pitch": 46, "duration": 21, "velocity": 66}, {"time": 1533, "pitch": 53, "duration": 9, "velocity": 52}, {"time": 1539, "pitch": 58, "duration": 18, "velocity": 63}, {"time": 1539, "pitch": 62, "duration": 22, "velocity": 53}, {"time": 1539, "pitch": 65, "duration": 20, "velocity": 57}, {"time": 1545, "pitch": 53, "duration": 5, "velocity": 27}, {"time": 1551, "pitch": 46, "duration": 16, "velocity": 69}, {"time": 1557, "pitch": 53, "duration": 9, "velocity": 34}, {"time": 1563, "pitch": 58, "duration": 3, "velocity": 67}, {"time": 1563, "pitch": 65, "duration": 12, "velocity": 85}, {"time": 1569, "pitch": 62, "duration": 6, "velocity": 59}, {"time": 1575, "pitch": 39, "duration": 16, "velocity": 73}, {"time": 1581, "pitch": 46, "duration": 10, "velocity": 38}, {"time": 1587, "pitch": 51, "duration": 5, "velocity": 38}, {"time": 1587, "pitch": 58, "duration": 14, "velocity": 66}, {"time": 1587, "pitch": 63, "duration": 14, "velocity": 79}, {"time": 1593, "pitch": 55, "duration": 7, "velocity": 25}, {"time": 1599, "pitch": 41, "duration": 13, "velocity": 67}, {"time": 1605, "pitch": 48, "duration": 8, "velocity": 39}, {"time": 1611, "pitch": 57, "duration": 11, "velocity": 73}, {"time": 1611, "pitch": 60, "duration": 12, "velocity": 72}, {"time": 1617, "pitch": 53, "duration": 5, "velocity": 47}, {"time": 1623, "pitch": 46, "duration": 20, "velocity": 58}, {"time": 1629, "pitch": 53, "duration": 8, "velocity": 43}, {"time": 1635, "pitch": 58, "duration": 18, "velocity": 72}, {"time": 1635, "pitch": 62, "duration": 22, "velocity": 63}, {"time": 1635, "pitch": 65, "duration": 21, "velocity": 44}, {"time": 1641, "pitch": 53, "duration": 6, "velocity": 36}, {"time": 1647, "pitch": 46, "duration": 14, "velocity": 69}, {"time": 1653, "pitch": 53, "duration": 7, "velocity": 33}, {"time": 1659, "pitch": 58, "duration": 2, "velocity": 59}, {"time": 1659, "pitch": 65, "duration": 11, "velocity": 102}, {"time": 1665, "pitch": 62, "duration": 5, "velocity": 47}, {"time": 1671, "pitch": 39, "duration": 18, "velocity": 90}, {"time": 1677, "pitch": 46, "duration": 12, "velocity": 37}, {"time": 1683, "pitch": 51, "duration": 6, "velocity": 47}, {"time": 1683, "pitch": 55, "duration": 11, "velocity": 70}, {"time": 1683, "pitch": 58, "duration": 12, "velocity": 61}, {"time": 1695, "pitch": 42, "duration": 13, "velocity": 67}, {"time": 1701, "pitch": 45, "duration": 7, "velocity": 50}, {"time": 1707, "pitch": 54, "duration": 12, "velocity": 68}, {"time": 1707, "pitch": 57, "duration": 13, "velocity": 63}, {"time": 1707, "pitch": 60, "duration": 13, "velocity": 60}, {"time": 1719, "pitch": 38, "duration": 13, "velocity": 71}, {"time": 1725, "pitch": 45, "duration": 8, "velocity": 44}, {"time": 1731, "pitch": 53, "duration": 11, "velocity": 72}, {"time": 1731, "pitch": 57, "duration": 12, "velocity": 77}, {"time": 1737, "pitch": 50, "duration": 5, "velocity": 55}, {"time": 1743, "pitch": 43, "duration": 14, "velocity": 85}, {"time": 1749, "pitch": 50, "duration": 7, "velocity": 71}, {"time": 1755, "pitch": 59, "duration": 12, "velocity": 90}, {"time": 1755, "pitch": 62, "duration": 12, "velocity": 95}, {"time": 1761, "pitch": 55, "duration": 7, "velocity": 86}, {"time": 1767, "pitch": 36, "duration": 15, "velocity": 86}, {"time": 1770, "pitch": 43, "duration": 11, "velocity": 63}, {"time": 1773, "pitch": 48, "duration": 7, "velocity": 68}, {"time": 1776, "pitch": 51, "duration": 4, "velocity": 85}, {"time": 1779, "pitch": 55, "duration": 11, "velocity": 92}, {"time": 1785, "pitch": 51, "duration": 5, "velocity": 81}, {"time": 1791, "pitch": 41, "duration": 15, "velocity": 89}, {"time": 1797, "pitch": 48, "duration": 8, "velocity": 63}, {"time": 1803, "pitch": 53, "duration": 8, "velocity": 69}, {"time": 1803, "pitch": 57, "duration": 9, "velocity": 90}, {"time": 1815, "pitch": 46, "duration": 23, "velocity": 85}, {"time": 1821, "pitch": 58, "duration": 8, "velocity": 75}, {"time": 1827, "pitch": 63, "duration": 8, "velocity": 66}, {"time": 1827, "pitch": 65, "duration": 7, "velocity": 63}, {"time": 1833, "pitch": 58, "duration": 26, "velocity": 65}, {"time": 1839, "pitch": 46, "duration": 21, "velocity": 58}, {"time": 1839, "pitch": 62, "duration": 21, "velocity": 56}, {"time": 1839, "pitch": 65, "duration": 21, "velocity": 52}, {"time": 1863, "pitch": 39, "duration": 22, "velocity": 93}, {"time": 1869, "pitch": 51, "duration": 19, "velocity": 77}, {"time": 1875, "pitch": 58, "duration": 22, "velocity": 90}, {"time": 1875, "pitch": 63, "duration": 21, "velocity": 99}, {"time": 1881, "pitch": 55, "duration": 19, "velocity": 72}, {"time": 1887, "pitch": 39, "duration": 16, "velocity": 73}, {"time": 1893, "pitch": 51, "duration": 11, "velocity": 70}, {"time": 1899, "pitch": 63, "duration": 12, "velocity": 112}, {"time": 1905, "pitch": 55, "duration": 7, "velocity": 78}, {"time": 1911, "pitch": 41, "duration": 22, "velocity": 72}, {"time": 1917, "pitch": 48, "duration": 18, "velocity": 63}, {"time": 1923, "pitch": 60, "duration": 36, "velocity": 100}, {"time": 1929, "pitch": 53, "duration": 16, "velocity": 93}, {"time": 1935, "pitch": 41, "duration": 15, "velocity": 79}, {"time": 1941, "pitch": 48, "duration": 10, "velocity": 93}, {"time": 1947, "pitch": 57, "duration": 11, "velocity": 96}, {"time": 1953, "pitch": 53, "duration": 4, "velocity": 86}, {"time": 1959, "pitch": 46, "duration": 19, "velocity": 95}, {"time": 1962, "pitch": 50, "duration": 22, "velocity": 55}, {"time": 1965, "pitch": 53, "duration": 7, "velocity": 79}, {"time": 1968, "pitch": 57, "duration": 4, "velocity": 81}, {"time": 1971, "pitch": 58, "duration": 21, "velocity": 107}, {"time": 1977, "pitch": 57, "duration": 11, "velocity": 75}, {"time": 1983, "pitch": 46, "duration": 18, "velocity": 74}, {"time": 1983, "pitch": 62, "duration": 7, "velocity": 69}, {"time": 1983, "pitch": 65, "duration": 7, "velocity": 72}, {"time": 1989, "pitch": 50, "duration": 7, "velocity": 55}, {"time": 1995, "pitch": 62, "duration": 12, "velocity": 102}, {"time": 1998, "pitch": 50, "duration": 8, "velocity": 62}, {"time": 2001, "pitch": 58, "duration": 5, "velocity": 88}, {"time": 2007, "pitch": 43, "duration": 16, "velocity": 86}, {"time": 2013, "pitch": 50, "duration": 9, "velocity": 73}, {"time": 2019, "pitch": 58, "duration": 13, "velocity": 89}, {"time": 2019, "pitch": 62, "duration": 13, "velocity": 83}, {"time": 2025, "pitch": 55, "duration": 7, "velocity": 72}, {"time": 2031, "pitch": 41, "duration": 13, "velocity": 82}, {"time": 2037, "pitch": 48, "duration": 7, "velocity": 70}, {"time": 2043, "pitch": 60, "duration": 11, "velocity": 99}, {"time": 2049, "pitch": 53, "duration": 5, "velocity": 76}, {"time": 2055, "pitch": 39, "duration": 40, "velocity": 88}, {"time": 2061, "pitch": 46, "duration": 34, "velocity": 53}, {"time": 2067, "pitch": 51, "duration": 12, "velocity": 70}, {"time": 2067, "pitch": 63, "duration": 21, "velocity": 102}, {"time": 2073, "pitch": 55, "duration": 13, "velocity": 83}, {"time": 2079, "pitch": 58, "duration": 9, "velocity": 99}, {"time": 2085, "pitch": 51, "duration": 7, "velocity": 89}, {"time": 2091, "pitch": 58, "duration": 12, "velocity": 96}, {"time": 2091, "pitch": 63, "duration": 12, "velocity": 92}, {"time": 2097, "pitch": 55, "duration": 6, "velocity": 83}, {"time": 2103, "pitch": 41, "duration": 46, "velocity": 67}, {"time": 2109, "pitch": 48, "duration": 19, "velocity": 61}, {"time": 2115, "pitch": 60, "duration": 21, "velocity": 92}, {"time": 2121, "pitch": 53, "duration": 19, "velocity": 83}, {"time": 2127, "pitch": 57, "duration": 9, "velocity": 100}, {"time": 2133, "pitch": 48, "duration": 7, "velocity": 89}, {"time": 2139, "pitch": 60, "duration": 13, "velocity": 102}, {"time": 2142, "pitch": 48, "duration": 9, "velocity": 74}, {"time": 2145, "pitch": 53, "duration": 5, "velocity": 82}, {"time": 2148, "pitch": 57, "duration": 3, "velocity": 73}, {"time": 2151, "pitch": 43, "duration": 48, "velocity": 88}, {"time": 2157, "pitch": 50, "duration": 7, "velocity": 74}, {"time": 2163, "pitch": 58, "duration": 22, "velocity": 97}, {"time": 2163, "pitch": 62, "duration": 22, "velocity": 95}, {"time": 2169, "pitch": 50, "duration": 10, "velocity": 58}, {"time": 2175, "pitch": 55, "duration": 10, "velocity": 90}, {"time": 2181, "pitch": 50, "duration": 6, "velocity": 63}, {"time": 2187, "pitch": 58, "duration": 11, "velocity": 107}, {"time": 2187, "pitch": 62, "duration": 12, "velocity": 96}, {"time": 2190, "pitch": 50, "duration": 7, "velocity": 83}, {"time": 2193, "pitch": 55, "duration": 6, "velocity": 95}, {"time": 2199, "pitch": 43, "duration": 22, "velocity": 69}, {"time": 2199, "pitch": 55, "duration": 8, "velocity": 102}, {"time": 2199, "pitch": 62, "duration": 10, "velocity": 95}, {"time": 2205, "pitch": 50, "duration": 7, "velocity": 55}, {"time": 2211, "pitch": 55, "duration": 10, "velocity": 89}, {"time": 2211, "pitch": 58, "duration": 11, "velocity": 76}, {"time": 2211, "pitch": 62, "duration": 10, "velocity": 78}, {"time": 2223, "pitch": 43, "duration": 9, "velocity": 85}, {"time": 2223, "pitch": 55, "duration": 8, "velocity": 93}, {"time": 2223, "pitch": 58, "duration": 9, "velocity": 95}, {"time": 2223, "pitch": 62, "duration": 9, "velocity": 92}, {"time": 2235, "pitch": 43, "duration": 7, "velocity": 99}, {"time": 2235, "pitch": 55, "duration": 4, "velocity": 93}, {"time": 2235, "pitch": 58, "duration": 10, "velocity": 127}, {"time": 2235, "pitch": 62, "duration": 11, "velocity": 100}, {"time": 2241, "pitch": 55, "duration": 3, "velocity": 77}, {"time": 2247, "pitch": 39, "duration": 17, "velocity": 99}, {"time": 2250, "pitch": 46, "duration": 12, "velocity": 65}, {"time": 2253, "pitch": 51, "duration": 6, "velocity": 92}, {"time": 2256, "pitch": 55, "duration": 6, "velocity": 79}, {"time": 2259, "pitch": 63, "duration": 10, "velocity": 122}, {"time": 2262, "pitch": 51, "duration": 2, "velocity": 85}, {"time": 2265, "pitch": 58, "duration": 4, "velocity": 86}, {"time": 2268, "pitch": 55, "duration": 3, "velocity": 79}, {"time": 2271, "pitch": 41, "duration": 16, "velocity": 66}, {"time": 2274, "pitch": 48, "duration": 13, "velocity": 62}, {"time": 2277, "pitch": 53, "duration": 7, "velocity": 85}, {"time": 2280, "pitch": 57, "duration": 6, "velocity": 92}, {"time": 2283, "pitch": 65, "duration": 12, "velocity": 97}, {"time": 2286, "pitch": 53, "duration": 3, "velocity": 90}, {"time": 2289, "pitch": 60, "duration": 5, "velocity": 88}, {"time": 2292, "pitch": 57, "duration": 2, "velocity": 93}, {"time": 2295, "pitch": 46, "duration": 22, "velocity": 52}, {"time": 2298, "pitch": 53, "duration": 21, "velocity": 67}, {"time": 2301, "pitch": 58, "duration": 6, "velocity": 95}, {"time": 2304, "pitch": 62, "duration": 6, "velocity": 93}, {"time": 2307, "pitch": 70, "duration": 19, "velocity": 122}, {"time": 2310, "pitch": 58, "duration": 10, "velocity": 95}, {"time": 2313, "pitch": 65, "duration": 14, "velocity": 86}, {"time": 2316, "pitch": 62, "duration": 9, "velocity": 83}, {"time": 2319, "pitch": 46, "duration": 17, "velocity": 76}, {"time": 2322, "pitch": 53, "duration": 13, "velocity": 38}, {"time": 2325, "pitch": 58, "duration": 7, "velocity": 81}, {"time": 2328, "pitch": 62, "duration": 9, "velocity": 86}, {"time": 2331, "pitch": 70, "duration": 12, "velocity": 127}, {"time": 2334, "pitch": 58, "duration": 1, "velocity": 95}, {"time": 2337, "pitch": 65, "duration": 6, "velocity": 85}, {"time": 2340, "pitch": 62, "duration": 3, "velocity": 92}, {"time": 2343, "pitch": 39, "duration": 17, "velocity": 83}, {"time": 2346, "pitch": 46, "duration": 13, "velocity": 58}, {"time": 2349, "pitch": 51, "duration": 6, "velocity": 82}, {"time": 2352, "pitch": 55, "duration": 6, "velocity": 81}, {"time": 2355, "pitch": 63, "duration": 11, "velocity": 112}, {"time": 2358, "pitch": 51, "duration": 2, "velocity": 92}, {"time": 2361, "pitch": 58, "duration": 5, "velocity": 89}, {"time": 2364, "pitch": 55, "duration": 3, "velocity": 82}, {"time": 2367, "pitch": 41, "duration": 19, "velocity": 75}, {"time": 2370, "pitch": 48, "duration": 10, "velocity": 55}, {"time": 2373, "pitch": 53, "duration": 4, "velocity": 83}, {"time": 2376, "pitch": 57, "duration": 3, "velocity": 78}, {"time": 2379, "pitch": 60, "duration": 11, "velocity": 97}, {"time": 2382, "pitch": 48, "duration": 8, "velocity": 70}, {"time": 2385, "pitch": 57, "duration": 5, "velocity": 79}, {"time": 2388, "pitch": 53, "duration": 2, "velocity": 81}, {"time": 2391, "pitch": 43, "duration": 22, "velocity": 83}, {"time": 2394, "pitch": 50, "duration": 10, "velocity": 56}, {"time": 2397, "pitch": 55, "duration": 4, "velocity": 85}, {"time": 2400, "pitch": 58, "duration": 4, "velocity": 92}, {"time": 2403, "pitch": 62, "duration": 13, "velocity": 92}, {"time": 2406, "pitch": 50, "duration": 9, "velocity": 69}, {"time": 2409, "pitch": 58, "duration": 7, "velocity": 86}, {"time": 2412, "pitch": 57, "duration": 2, "velocity": 77}, {"time": 2415, "pitch": 43, "duration": 17, "velocity": 82}, {"time": 2418, "pitch": 50, "duration": 10, "velocity": 81}, {"time": 2421, "pitch": 55, "duration": 3, "velocity": 86}, {"time": 2424, "pitch": 58, "duration": 2, "velocity": 96}, {"time": 2427, "pitch": 62, "duration": 10, "velocity": 96}, {"time": 2430, "pitch": 50, "duration": 1, "velocity": 72}, {"time": 2433, "pitch": 58, "duration": 5, "velocity": 99}, {"time": 2436, "pitch": 55, "duration": 3, "velocity": 85}, {"time": 2439, "pitch": 39, "duration": 17, "velocity": 77}, {"time": 2442, "pitch": 46, "duration": 14, "velocity": 47}, {"time": 2445, "pitch": 51, "duration": 6, "velocity": 69}, {"time": 2448, "pitch": 55, "duration": 5, "velocity": 74}, {"time": 2451, "pitch": 63, "duration": 10, "velocity": 112}, {"time": 2454, "pitch": 51, "duration": 3, "velocity": 83}, {"time": 2457, "pitch": 58, "duration": 5, "velocity": 93}, {"time": 2460, "pitch": 55, "duration": 3, "velocity": 97}, {"time": 2463, "pitch": 41, "duration": 16, "velocity": 74}, {"time": 2466, "pitch": 48, "duration": 10, "velocity": 59}, {"time": 2469, "pitch": 53, "duration": 5, "velocity": 75}, {"time": 2472, "pitch": 57, "duration": 3, "velocity": 67}, {"time": 2475, "pitch": 60, "duration": 11, "velocity": 95}, {"time": 2478, "pitch": 48, "duration": 2, "velocity": 58}, {"time": 2481, "pitch": 57, "duration": 5, "velocity": 85}, {"time": 2484, "pitch": 53, "duration": 2, "velocity": 73}, {"time": 2487, "pitch": 46, "duration": 21, "velocity": 85}, {"time": 2490, "pitch": 53, "duration": 20, "velocity": 64}, {"time": 2493, "pitch": 58, "duration": 6, "velocity": 93}, {"time": 2496, "pitch": 62, "duration": 3, "velocity": 79}, {"time": 2499, "pitch": 65, "duration": 7, "velocity": 100}, {"time": 2502, "pitch": 58, "duration": 10, "velocity": 95}, {"time": 2505, "pitch": 62, "duration": 5, "velocity": 92}, {"time": 2508, "pitch": 65, "duration": 3, "velocity": 83}, {"time": 2511, "pitch": 46, "duration": 17, "velocity": 68}, {"time": 2514, "pitch": 53, "duration": 13, "velocity": 57}, {"time": 2517, "pitch": 58, "duration": 7, "velocity": 88}, {"time": 2520, "pitch": 62, "duration": 4, "velocity": 90}, {"time": 2523, "pitch": 70, "duration": 12, "velocity": 117}, {"time": 2526, "pitch": 58, "duration": 1, "velocity": 97}, {"time": 2529, "pitch": 65, "duration": 5, "velocity": 90}, {"time": 2532, "pitch": 62, "duration": 3, "velocity": 88}, {"time": 2535, "pitch": 39, "duration": 17, "velocity": 69}, {"time": 2538, "pitch": 46, "duration": 13, "velocity": 56}, {"time": 2541, "pitch": 51, "duration": 6, "velocity": 67}, {"time": 2544, "pitch": 55, "duration": 6, "velocity": 77}, {"time": 2547, "pitch": 63, "duration": 11, "velocity": 102}, {"time": 2550, "pitch": 51, "duration": 2, "velocity": 85}, {"time": 2553, "pitch": 55, "duration": 1, "velocity": 33}, {"time": 2553, "pitch": 58, "duration": 5, "velocity": 82}, {"time": 2556, "pitch": 55, "duration": 3, "velocity": 75}, {"time": 2559, "pitch": 41, "duration": 22, "velocity": 58}, {"time": 2562, "pitch": 48, "duration": 10, "velocity": 40}, {"time": 2565, "pitch": 53, "duration": 6, "velocity": 90}, {"time": 2568, "pitch": 57, "duration": 3, "velocity": 95}, {"time": 2571, "pitch": 60, "duration": 12, "velocity": 99}, {"time": 2574, "pitch": 48, "duration": 9, "velocity": 62}, {"time": 2577, "pitch": 57, "duration": 6, "velocity": 54}, {"time": 2580, "pitch": 53, "duration": 3, "velocity": 58}, {"time": 2583, "pitch": 43, "duration": 4, "velocity": 83}, {"time": 2583, "pitch": 62, "duration": 3, "velocity": 89}, {"time": 2583, "pitch": 67, "duration": 3, "velocity": 93}, {"time": 2583, "pitch": 70, "duration": 3, "velocity": 99}, {"time": 2589, "pitch": 43, "duration": 3, "velocity": 66}, {"time": 2589, "pitch": 50, "duration": 3, "velocity": 54}, {"time": 2589, "pitch": 55, "duration": 3, "velocity": 82}, {"time": 2589, "pitch": 62, "duration": 4, "velocity": 81}, {"time": 2589, "pitch": 67, "duration": 4, "velocity": 86}, {"time": 2589, "pitch": 70, "duration": 4, "velocity": 89}, {"time": 2595, "pitch": 43, "duration": 4, "velocity": 69}, {"time": 2595, "pitch": 50, "duration": 4, "velocity": 59}, {"time": 2595, "pitch": 55, "duration": 4, "velocity": 86}, {"time": 2595, "pitch": 62, "duration": 4, "velocity": 90}, {"time": 2595, "pitch": 67, "duration": 4, "velocity": 93}, {"time": 2595, "pitch": 70, "duration": 4, "velocity": 97}, {"time": 2601, "pitch": 43, "duration": 4, "velocity": 66}, {"time": 2601, "pitch": 50, "duration": 4, "velocity": 85}, {"time": 2601, "pitch": 55, "duration": 4, "velocity": 69}, {"time": 2601, "pitch": 62, "duration": 4, "velocity": 88}, {"time": 2601, "pitch": 67, "duration": 4, "velocity": 100}, {"time": 2601, "pitch": 70, "duration": 4, "velocity": 100}, {"time": 2607, "pitch": 43, "duration": 20, "velocity": 74}, {"time": 2607, "pitch": 50, "duration": 19, "velocity": 85}, {"time": 2607, "pitch": 55, "duration": 12, "velocity": 99}, {"time": 2607, "pitch": 62, "duration": 11, "velocity": 99}, {"time": 2607, "pitch": 67, "duration": 10, "velocity": 97}, {"time": 2607, "pitch": 70, "duration": 10, "velocity": 107}, {"time": 2619, "pitch": 62, "duration": 1, "velocity": 35}, {"time": 2619, "pitch": 67, "duration": 8, "velocity": 99}, {"time": 2619, "pitch": 70, "duration": 12, "velocity": 127}, {"time": 2622, "pitch": 55, "duration": 3, "velocity": 95}, {"time": 2625, "pitch": 62, "duration": 5, "velocity": 112}, {"time": 2628, "pitch": 67, "duration": 2, "velocity": 85}, {"time": 2631, "pitch": 39, "duration": 17, "velocity": 99}, {"time": 2634, "pitch": 46, "duration": 12, "velocity": 65}, {"time": 2637, "pitch": 51, "duration": 6, "velocity": 92}, {"time": 2640, "pitch": 55, "duration": 6, "velocity": 79}, {"time": 2643, "pitch": 63, "duration": 10, "velocity": 122}, {"time": 2646, "pitch": 51, "duration": 2, "velocity": 85}, {"time": 2649, "pitch": 58, "duration": 4, "velocity": 86}, {"time": 2652, "pitch": 55, "duration": 3, "velocity": 79}, {"time": 2655, "pitch": 41, "duration": 16, "velocity": 66}, {"time": 2658, "pitch": 48, "duration": 13, "velocity": 62}, {"time": 2661, "pitch": 53, "duration": 7, "velocity": 85}, {"time": 2664, "pitch": 57, "duration": 6, "velocity": 92}, {"time": 2667, "pitch": 65, "duration": 12, "velocity": 97}, {"time": 2670, "pitch": 53, "duration": 3, "velocity": 90}, {"time": 2673, "pitch": 60, "duration": 5, "velocity": 88}, {"time": 2676, "pitch": 57, "duration": 2, "velocity": 93}, {"time": 2679, "pitch": 46, "duration": 22, "velocity": 52}, {"time": 2682, "pitch": 53, "duration": 21, "velocity": 67}, {"time": 2685, "pitch": 58, "duration": 6, "velocity": 95}, {"time": 2688, "pitch": 62, "duration": 6, "velocity": 93}, {"time": 2691, "pitch": 70, "duration": 19, "velocity": 122}, {"time": 2694, "pitch": 58, "duration": 10, "velocity": 95}, {"time": 2697, "pitch": 65, "duration": 14, "velocity": 86}, {"time": 2700, "pitch": 62, "duration": 9, "velocity": 83}, {"time": 2703, "pitch": 46, "duration": 17, "velocity": 76}, {"time": 2706, "pitch": 53, "duration": 13, "velocity": 38}, {"time": 2709, "pitch": 58, "duration": 7, "velocity": 81}, {"time": 2712, "pitch": 62, "duration": 9, "velocity": 86}, {"time": 2715, "pitch": 70, "duration": 12, "velocity": 127}, {"time": 2718, "pitch": 58, "duration": 1, "velocity": 95}, {"time": 2721, "pitch": 65, "duration": 6, "velocity": 85}, {"time": 2724, "pitch": 62, "duration": 3, "velocity": 92}, {"time": 2727, "pitch": 39, "duration": 17, "velocity": 83}, {"time": 2730, "pitch": 46, "duration": 13, "velocity": 58}, {"time": 2733, "pitch": 51, "duration": 6, "velocity": 82}, {"time": 2736, "pitch": 55, "duration": 6, "velocity": 81}, {"time": 2739, "pitch": 63, "duration": 11, "velocity": 112}, {"time": 2742, "pitch": 51, "duration": 2, "velocity": 92}, {"time": 2745, "pitch": 58, "duration": 5, "velocity": 89}, {"time": 2748, "pitch": 55, "duration": 3, "velocity": 82}, {"time": 2751, "pitch": 41, "duration": 19, "velocity": 75}, {"time": 2754, "pitch": 48, "duration": 10, "velocity": 55}, {"time": 2757, "pitch": 53, "duration": 4, "velocity": 83}, {"time": 2760, "pitch": 57, "duration": 3, "velocity": 78}, {"time": 2763, "pitch": 60, "duration": 11, "velocity": 97}, {"time": 2766, "pitch": 48, "duration": 8, "velocity": 70}, {"time": 2769, "pitch": 57, "duration": 5, "velocity": 79}, {"time": 2772, "pitch": 53, "duration": 2, "velocity": 81}, {"time": 2775, "pitch": 43, "duration": 22, "velocity": 83}, {"time": 2778, "pitch": 50, "duration": 10, "velocity": 56}, {"time": 2781, "pitch": 55, "duration": 4, "velocity": 85}, {"time": 2784, "pitch": 58, "duration": 4, "velocity": 92}, {"time": 2787, "pitch": 62, "duration": 13, "velocity": 92}, {"time": 2790, "pitch": 50, "duration": 9, "velocity": 69}, {"time": 2793, "pitch": 58, "duration": 7, "velocity": 86}, {"time": 2796, "pitch": 57, "duration": 2, "velocity": 77}, {"time": 2799, "pitch": 43, "duration": 17, "velocity": 82}, {"time": 2802, "pitch": 50, "duration": 10, "velocity": 81}, {"time": 2805, "pitch": 55, "duration": 3, "velocity": 86}, {"time": 2808, "pitch": 58, "duration": 2, "velocity": 96}, {"time": 2811, "pitch": 62, "duration": 10, "velocity": 96}, {"time": 2814, "pitch": 50, "duration": 1, "velocity": 72}, {"time": 2817, "pitch": 58, "duration": 5, "velocity": 99}, {"time": 2820, "pitch": 55, "duration": 3, "velocity": 85}, {"time": 2823, "pitch": 39, "duration": 17, "velocity": 77}, {"time": 2826, "pitch": 46, "duration": 14, "velocity": 47}, {"time": 2829, "pitch": 51, "duration": 6, "velocity": 69}, {"time": 2832, "pitch": 55, "duration": 5, "velocity": 74}, {"time": 2835, "pitch": 63, "duration": 10, "velocity": 112}, {"time": 2838, "pitch": 51, "duration": 3, "velocity": 83}, {"time": 2841, "pitch": 58, "duration": 5, "velocity": 93}, {"time": 2844, "pitch": 55, "duration": 3, "velocity": 97}, {"time": 2847, "pitch": 41, "duration": 16, "velocity": 74}, {"time": 2850, "pitch": 48, "duration": 10, "velocity": 59}, {"time": 2853, "pitch": 53, "duration": 5, "velocity": 75}, {"time": 2856, "pitch": 57, "duration": 3, "velocity": 67}, {"time": 2859, "pitch": 60, "duration": 11, "velocity": 95}, {"time": 2862, "pitch": 48, "duration": 2, "velocity": 58}, {"time": 2865, "pitch": 57, "duration": 5, "velocity": 85}, {"time": 2868, "pitch": 53, "duration": 2, "velocity": 73}, {"time": 2871, "pitch": 46, "duration": 21, "velocity": 85}, {"time": 2874, "pitch": 53, "duration": 20, "velocity": 64}, {"time": 2877, "pitch": 58, "duration": 6, "velocity": 93}, {"time": 2880, "pitch": 62, "duration": 3, "velocity": 79}, {"time": 2883, "pitch": 65, "duration": 7, "velocity": 100}, {"time": 2886, "pitch": 58, "duration": 10, "velocity": 95}, {"time": 2889, "pitch": 62, "duration": 5, "velocity": 92}, {"time": 2892, "pitch": 65, "duration": 3, "velocity": 83}, {"time": 2895, "pitch": 46, "duration": 17, "velocity": 68}, {"time": 2898, "pitch": 53, "duration": 13, "velocity": 57}, {"time": 2901, "pitch": 58, "duration": 7, "velocity": 88}, {"time": 2904, "pitch": 62, "duration": 4, "velocity": 90}, {"time": 2907, "pitch": 70, "duration": 12, "velocity": 117}, {"time": 2910, "pitch": 58, "duration": 1, "velocity": 97}, {"time": 2913, "pitch": 65, "duration": 5, "velocity": 90}, {"time": 2916, "pitch": 62, "duration": 3, "velocity": 88}, {"time": 2919, "pitch": 39, "duration": 17, "velocity": 69}, {"time": 2922, "pitch": 46, "duration": 13, "velocity": 56}, {"time": 2925, "pitch": 51, "duration": 6, "velocity": 67}, {"time": 2928, "pitch": 55, "duration": 6, "velocity": 77}, {"time": 2931, "pitch": 63, "duration": 11, "velocity": 102}, {"time": 2934, "pitch": 51, "duration": 2, "velocity": 85}, {"time": 2937, "pitch": 55, "duration": 1, "velocity": 33}, {"time": 2937, "pitch": 58, "duration": 5, "velocity": 82}, {"time": 2940, "pitch": 55, "duration": 3, "velocity": 75}, {"time": 2943, "pitch": 41, "duration": 22, "velocity": 58}, {"time": 2946, "pitch": 48, "duration": 10, "velocity": 40}, {"time": 2949, "pitch": 53, "duration": 6, "velocity": 90}, {"time": 2952, "pitch": 57, "duration": 3, "velocity": 95}, {"time": 2955, "pitch": 60, "duration": 12, "velocity": 99}, {"time": 2958, "pitch": 48, "duration": 9, "velocity": 62}, {"time": 2961, "pitch": 57, "duration": 6, "velocity": 54}, {"time": 2964, "pitch": 53, "duration": 3, "velocity": 58}, {"time": 2967, "pitch": 43, "duration": 4, "velocity": 58}, {"time": 2967, "pitch": 55, "duration": 4, "velocity": 88}, {"time": 2967, "pitch": 62, "duration": 4, "velocity": 83}, {"time": 2967, "pitch": 67, "duration": 4, "velocity": 93}, {"time": 2967, "pitch": 70, "duration": 4, "velocity": 97}, {"time": 2973, "pitch": 43, "duration": 4, "velocity": 58}, {"time": 2973, "pitch": 55, "duration": 4, "velocity": 81}, {"time": 2973, "pitch": 62, "duration": 4, "velocity": 85}, {"time": 2973, "pitch": 67, "duration": 4, "velocity": 85}, {"time": 2973, "pitch": 70, "duration": 4, "velocity": 90}, {"time": 2979, "pitch": 43, "duration": 4, "velocity": 57}, {"time": 2979, "pitch": 55, "duration": 4, "velocity": 88}, {"time": 2979, "pitch": 62, "duration": 4, "velocity": 86}, {"time": 2979, "pitch": 67, "duration": 4, "velocity": 88}, {"time": 2979, "pitch": 70, "duration": 4, "velocity": 93}, {"time": 2985, "pitch": 43, "duration": 4, "velocity": 74}, {"time": 2985, "pitch": 55, "duration": 4, "velocity": 97}, {"time": 2985, "pitch": 62, "duration": 4, "velocity": 89}, {"time": 2985, "pitch": 67, "duration": 4, "velocity": 97}, {"time": 2985, "pitch": 70, "duration": 4, "velocity": 112}, {"time": 3015, "pitch": 39, "duration": 15, "velocity": 88}, {"time": 3021, "pitch": 46, "duration": 7, "velocity": 35}, {"time": 3027, "pitch": 63, "duration": 12, "velocity": 93}, {"time": 3033, "pitch": 55, "duration": 6, "velocity": 67}, {"time": 3039, "pitch": 41, "duration": 12, "velocity": 69}, {"time": 3045, "pitch": 48, "duration": 8, "velocity": 44}, {"time": 3051, "pitch": 60, "duration": 12, "velocity": 88}, {"time": 3057, "pitch": 57, "duration": 6, "velocity": 57}, {"time": 3063, "pitch": 46, "duration": 40, "velocity": 70}, {"time": 3069, "pitch": 53, "duration": 33, "velocity": 37}, {"time": 3075, "pitch": 58, "duration": 14, "velocity": 73}, {"time": 3081, "pitch": 62, "duration": 12, "velocity": 59}, {"time": 3087, "pitch": 65, "duration": 24, "velocity": 79}, {"time": 3093, "pitch": 58, "duration": 7, "velocity": 72}, {"time": 3099, "pitch": 62, "duration": 13, "velocity": 69}, {"time": 3105, "pitch": 60, "duration": 7, "velocity": 40}, {"time": 3111, "pitch": 39, "duration": 16, "velocity": 79}, {"time": 3117, "pitch": 51, "duration": 11, "velocity": 56}, {"time": 3123, "pitch": 63, "duration": 13, "velocity": 92}, {"time": 3129, "pitch": 58, "duration": 6, "velocity": 54}, {"time": 3135, "pitch": 41, "duration": 19, "velocity": 70}, {"time": 3141, "pitch": 48, "duration": 18, "velocity": 58}, {"time": 3147, "pitch": 60, "duration": 12, "velocity": 92}, {"time": 3153, "pitch": 57, "duration": 6, "velocity": 66}, {"time": 3159, "pitch": 46, "duration": 39, "velocity": 96}, {"time": 3165, "pitch": 53, "duration": 32, "velocity": 53}, {"time": 3171, "pitch": 58, "duration": 14, "velocity": 64}, {"time": 3177, "pitch": 62, "duration": 10, "velocity": 55}, {"time": 3183, "pitch": 65, "duration": 12, "velocity": 75}, {"time": 3189, "pitch": 58, "duration": 5, "velocity": 63}, {"time": 3195, "pitch": 62, "duration": 11, "velocity": 76}, {"time": 3201, "pitch": 65, "duration": 5, "velocity": 58}, {"time": 3207, "pitch": 39, "duration": 16, "velocity": 75}, {"time": 3213, "pitch": 51, "duration": 11, "velocity": 79}, {"time": 3219, "pitch": 63, "duration": 6, "velocity": 92}, {"time": 3225, "pitch": 55, "duration": 6, "velocity": 53}, {"time": 3231, "pitch": 42, "duration": 15, "velocity": 53}, {"time": 3231, "pitch": 54, "duration": 12, "velocity": 58}, {"time": 3231, "pitch": 57, "duration": 24, "velocity": 61}, {"time": 3231, "pitch": 60, "duration": 24, "velocity": 66}, {"time": 3255, "pitch": 38, "duration": 16, "velocity": 71}, {"time": 3261, "pitch": 45, "duration": 11, "velocity": 58}, {"time": 3267, "pitch": 50, "duration": 8, "velocity": 53}, {"time": 3267, "pitch": 62, "duration": 14, "velocity": 64}, {"time": 3273, "pitch": 53, "duration": 6, "velocity": 61}, {"time": 3279, "pitch": 43, "duration": 14, "velocity": 78}, {"time": 3285, "pitch": 50, "duration": 7, "velocity": 58}, {"time": 3291, "pitch": 59, "duration": 12, "velocity": 65}, {"time": 3291, "pitch": 62, "duration": 11, "velocity": 74}, {"time": 3297, "pitch": 55, "duration": 11, "velocity": 72}, {"time": 3303, "pitch": 36, "duration": 19, "velocity": 89}, {"time": 3309, "pitch": 43, "duration": 12, "velocity": 52}, {"time": 3315, "pitch": 48, "duration": 7, "velocity": 63}, {"time": 3315, "pitch": 60, "duration": 11, "velocity": 85}, {"time": 3315, "pitch": 63, "duration": 11, "velocity": 95}, {"time": 3321, "pitch": 55, "duration": 5, "velocity": 82}, {"time": 3327, "pitch": 41, "duration": 13, "velocity": 63}, {"time": 3327, "pitch": 53, "duration": 11, "velocity": 70}, {"time": 3327, "pitch": 57, "duration": 11, "velocity": 70}, {"time": 3327, "pitch": 60, "duration": 11, "velocity": 71}, {"time": 3339, "pitch": 60, "duration": 4, "velocity": 70}, {"time": 3339, "pitch": 53, "duration": 4, "velocity": 58}, {"time": 3339, "pitch": 57, "duration": 4, "velocity": 66}, {"time": 3350, "pitch": 58, "duration": 20, "velocity": 57}, {"time": 3350, "pitch": 65, "duration": 21, "velocity": 60}, {"time": 3350, "pitch": 63, "duration": 10, "velocity": 68}, {"time": 3351, "pitch": 46, "duration": 22, "velocity": 51}, {"time": 3362, "pitch": 63, "duration": 10, "velocity": 68}, {"time": 3375, "pitch": 65, "duration": 14, "velocity": 60}, {"time": 3375, "pitch": 46, "duration": 15, "velocity": 36}, {"time": 3375, "pitch": 58, "duration": 15, "velocity": 40}, {"time": 3375, "pitch": 62, "duration": 14, "velocity": 52}, {"time": 3401, "pitch": 53, "duration": 68, "velocity": 43}, {"time": 3402, "pitch": 58, "duration": 67, "velocity": 71}, {"time": 3403, "pitch": 46, "duration": 66, "velocity": 32}, {"time": 3403, "pitch": 34, "duration": 66, "velocity": 32}, {"time": 3404, "pitch": 62, "duration": 65, "velocity": 63}, {"time": 3405, "pitch": 65, "duration": 64, "velocity": 68}], "annotations": [{"time": 134, "annotation": {"number": 64, "value": 127}, "group": "control_change"}, {"time": 157, "annotation": {"number": 64, "value": 0}, "group": "control_change"}, {"time": 159, "annotation": {"number": 64, "value": 127}, "group": "control_change"}, {"time": 181, "annotation": {"number": 64, "value": 0}, "group": "control_change"}, {"time": 183, "annotation": {"number": 64, "value": 127}, "group": "control_change"}, {"time": 278, "annotation": {"number": 64, "value": 0}, "group": "control_change"}, {"time": 279, "annotation": {"number": 64, "value": 127}, "group": "control_change"}, {"time": 325, "annotation": {"number": 64, "value": 0}, "group": "control_change"}, {"time": 328, "annotation": {"number": 64, "value": 127}, "group": "control_change"}, {"time": 350, "annotation": {"number": 64, "value": 0}, "group": "control_change"}, {"time": 351, "annotation": {"number": 64, "value": 127}, "group": "control_change"}, {"time": 374, "annotation": {"number": 64, "value": 0}, "group": "control_change"}, {"time": 375, "annotation": {"number": 64, "value": 127}, "group": "control_change"}, {"time": 421, "annotation": {"number": 64, "value": 0}, "group": "control_change"}, {"time": 422, "annotation": {"number": 64, "value": 127}, "group": "control_change"}, {"time": 445, "annotation": {"number": 64, "value": 0}, "group": "control_change"}, {"time": 447, "annotation": {"number": 64, "value": 127}, "group": "control_change"}, {"time": 468, "annotation": {"number": 64, "value": 0}, "group": "control_change"}, {"time": 471, "annotation": {"number": 64, "value": 127}, "group": "control_change"}, {"time": 515, "annotation": {"number": 64, "value": 0}, "group": "control_change"}, {"time": 519, "annotation": {"number": 64, "value": 127}, "group": "control_change"}, {"time": 541, "annotation": {"number": 64, "value": 0}, "group": "control_change"}, {"time": 543, "annotation": {"number": 64, "value": 127}, "group": "control_change"}, {"time": 565, "annotation": {"number": 64, "value": 0}, "group": "control_change"}, {"time": 567, "annotation": {"number": 64, "value": 127}, "group": "control_change"}, {"time": 588, "annotation": {"number": 64, "value": 0}, "group": "control_change"}, {"time": 591, "annotation": {"number": 64, "value": 127}, "group": "control_change"}, {"time": 635, "annotation": {"number": 64, "value": 0}, "group": "control_change"}, {"time": 639, "annotation": {"number": 64, "value": 127}, "group": "control_change"}, {"time": 662, "annotation": {"number": 64, "value": 0}, "group": "control_change"}, {"time": 663, "annotation": {"number": 64, "value": 127}, "group": "control_change"}, {"time": 685, "annotation": {"number": 64, "value": 0}, "group": "control_change"}, {"time": 711, "annotation": {"number": 64, "value": 127}, "group": "control_change"}, {"time": 757, "annotation": {"number": 64, "value": 0}, "group": "control_change"}, {"time": 759, "annotation": {"number": 64, "value": 127}, "group": "control_change"}, {"time": 805, "annotation": {"number": 64, "value": 0}, "group": "control_change"}, {"time": 807, "annotation": {"number": 64, "value": 127}, "group": "control_change"}, {"time": 852, "annotation": {"number": 64, "value": 0}, "group": "control_change"}, {"time": 855, "annotation": {"number": 64, "value": 127}, "group": "control_change"}, {"time": 876, "annotation": {"number": 64, "value": 0}, "group": "control_change"}, {"time": 879, "annotation": {"number": 64, "value": 127}, "group": "control_change"}, {"time": 900, "annotation": {"number": 64, "value": 0}, "group": "control_change"}, {"time": 903, "annotation": {"number": 64, "value": 127}, "group": "control_change"}, {"time": 948, "annotation": {"number": 64, "value": 0}, "group": "control_change"}, {"time": 951, "annotation": {"number": 64, "value": 127}, "group": "control_change"}, {"time": 972, "annotation": {"number": 64, "value": 0}, "group": "control_change"}, {"time": 975, "annotation": {"number": 64, "value": 127}, "group": "control_change"}, {"time": 994, "annotation": {"number": 64, "value": 0}, "group": "control_change"}, {"time": 999, "annotation": {"number": 64, "value": 127}, "group": "control_change"}, {"time": 1042, "annotation": {"number": 64, "value": 0}, "group": "control_change"}, {"time": 1047, "annotation": {"number": 64, "value": 127}, "group": "control_change"}, {"time": 1059, "annotation": {"number": 64, "value": 127}, "group": "control_change"}, {"time": 1082, "annotation": {"number": 64, "value": 0}, "group": "control_change"}, {"time": 1095, "annotation": {"number": 64, "value": 127}, "group": "control_change"}, {"time": 1116, "annotation": {"number": 64, "value": 0}, "group": "control_change"}, {"time": 1119, "annotation": {"number": 64, "value": 127}, "group": "control_change"}, {"time": 1141, "annotation": {"number": 64, "value": 0}, "group": "control_change"}, {"time": 1142, "annotation": {"number": 64, "value": 127}, "group": "control_change"}, {"time": 1166, "annotation": {"number": 64, "value": 0}, "group": "control_change"}, {"time": 1166, "annotation": {"number": 64, "value": 127}, "group": "control_change"}, {"time": 1189, "annotation": {"number": 64, "value": 0}, "group": "control_change"}, {"time": 1190, "annotation": {"number": 64, "value": 127}, "group": "control_change"}, {"time": 1212, "annotation": {"number": 64, "value": 0}, "group": "control_change"}, {"time": 1215, "annotation": {"number": 64, "value": 127}, "group": "control_change"}, {"time": 1235, "annotation": {"number": 64, "value": 0}, "group": "control_change"}, {"time": 1238, "annotation": {"number": 64, "value": 127}, "group": "control_change"}, {"time": 1259, "annotation": {"number": 64, "value": 0}, "group": "control_change"}, {"time": 1262, "annotation": {"number": 64, "value": 127}, "group": "control_change"}, {"time": 1285, "annotation": {"number": 64, "value": 0}, "group": "control_change"}, {"time": 1286, "annotation": {"number": 64, "value": 127}, "group": "control_change"}, {"time": 1308, "annotation": {"number": 64, "value": 0}, "group": "control_change"}, {"time": 1311, "annotation": {"number": 64, "value": 127}, "group": "control_change"}, {"time": 1333, "annotation": {"number": 64, "value": 0}, "group": "control_change"}, {"time": 1335, "annotation": {"number": 64, "value": 127}, "group": "control_change"}, {"time": 1356, "annotation": {"number": 64, "value": 0}, "group": "control_change"}, {"time": 1358, "annotation": {"number": 64, "value": 127}, "group": "control_change"}, {"time": 1381, "annotation": {"number": 64, "value": 0}, "group": "control_change"}, {"time": 1383, "annotation": {"number": 64, "value": 127}, "group": "control_change"}, {"time": 1404, "annotation": {"number": 64, "value": 0}, "group": "control_change"}, {"time": 1407, "annotation": {"number": 64, "value": 127}, "group": "control_change"}, {"time": 1427, "annotation": {"number": 64, "value": 0}, "group": "control_change"}, {"time": 1431, "annotation": {"number": 64, "value": 127}, "group": "control_change"}, {"time": 1451, "annotation": {"number": 64, "value": 0}, "group": "control_change"}, {"time": 1454, "annotation": {"number": 64, "value": 127}, "group": "control_change"}, {"time": 1476, "annotation": {"number": 64, "value": 0}, "group": "control_change"}, {"time": 1479, "annotation": {"number": 64, "value": 127}, "group": "control_change"}, {"time": 1500, "annotation": {"number": 64, "value": 0}, "group": "control_change"}, {"time": 1503, "annotation": {"number": 64, "value": 127}, "group": "control_change"}, {"time": 1524, "annotation": {"number": 64, "value": 0}, "group": "control_change"}, {"time": 1527, "annotation": {"number": 64, "value": 127}, "group": "control_change"}, {"time": 1548, "annotation": {"number": 64, "value": 0}, "group": "control_change"}, {"time": 1551, "annotation": {"number": 64, "value": 127}, "group": "control_change"}, {"time": 1572, "annotation": {"number": 64, "value": 0}, "group": "control_change"}, {"time": 1575, "annotation": {"number": 64, "value": 127}, "group": "control_change"}, {"time": 1596, "annotation": {"number": 64, "value": 0}, "group": "control_change"}, {"time": 1599, "annotation": {"number": 64, "value": 127}, "group": "control_change"}, {"time": 1620, "annotation": {"number": 64, "value": 0}, "group": "control_change"}, {"time": 1623, "annotation": {"number": 64, "value": 127}, "group": "control_change"}, {"time": 1644, "annotation": {"number": 64, "value": 0}, "group": "control_change"}, {"time": 1647, "annotation": {"number": 64, "value": 127}, "group": "control_change"}, {"time": 1668, "annotation": {"number": 64, "value": 0}, "group": "control_change"}, {"time": 1671, "annotation": {"number": 64, "value": 127}, "group": "control_change"}, {"time": 1694, "annotation": {"number": 64, "value": 0}, "group": "control_change"}, {"time": 1701, "annotation": {"number": 64, "value": 127}, "group": "control_change"}, {"time": 1716, "annotation": {"number": 64, "value": 0}, "group": "control_change"}, {"time": 1719, "annotation": {"number": 64, "value": 127}, "group": "control_change"}, {"time": 1740, "annotation": {"number": 64, "value": 0}, "group": "control_change"}, {"time": 1743, "annotation": {"number": 64, "value": 127}, "group": "control_change"}, {"time": 1763, "annotation": {"number": 64, "value": 0}, "group": "control_change"}, {"time": 1767, "annotation": {"number": 64, "value": 127}, "group": "control_change"}, {"time": 1788, "annotation": {"number": 64, "value": 0}, "group": "control_change"}, {"time": 1791, "annotation": {"number": 64, "value": 127}, "group": "control_change"}, {"time": 1813, "annotation": {"number": 64, "value": 0}, "group": "control_change"}, {"time": 1814, "annotation": {"number": 64, "value": 127}, "group": "control_change"}, {"time": 1837, "annotation": {"number": 64, "value": 0}, "group": "control_change"}, {"time": 1863, "annotation": {"number": 64, "value": 127}, "group": "control_change"}, {"time": 1884, "annotation": {"number": 64, "value": 0}, "group": "control_change"}, {"time": 1887, "annotation": {"number": 64, "value": 127}, "group": "control_change"}, {"time": 1908, "annotation": {"number": 64, "value": 0}, "group": "control_change"}, {"time": 1912, "annotation": {"number": 64, "value": 127}, "group": "control_change"}, {"time": 1932, "annotation": {"number": 64, "value": 0}, "group": "control_change"}, {"time": 1935, "annotation": {"number": 64, "value": 127}, "group": "control_change"}, {"time": 1956, "annotation": {"number": 64, "value": 0}, "group": "control_change"}, {"time": 1959, "annotation": {"number": 64, "value": 127}, "group": "control_change"}, {"time": 1980, "annotation": {"number": 64, "value": 0}, "group": "control_change"}, {"time": 1983, "annotation": {"number": 64, "value": 127}, "group": "control_change"}, {"time": 2002, "annotation": {"number": 64, "value": 0}, "group": "control_change"}, {"time": 2008, "annotation": {"number": 64, "value": 127}, "group": "control_change"}, {"time": 2027, "annotation": {"number": 64, "value": 0}, "group": "control_change"}, {"time": 2030, "annotation": {"number": 64, "value": 127}, "group": "control_change"}, {"time": 2052, "annotation": {"number": 64, "value": 0}, "group": "control_change"}, {"time": 2055, "annotation": {"number": 64, "value": 127}, "group": "control_change"}, {"time": 2076, "annotation": {"number": 64, "value": 0}, "group": "control_change"}, {"time": 2079, "annotation": {"number": 64, "value": 127}, "group": "control_change"}, {"time": 2099, "annotation": {"number": 64, "value": 0}, "group": "control_change"}, {"time": 2103, "annotation": {"number": 64, "value": 127}, "group": "control_change"}, {"time": 2147, "annotation": {"number": 64, "value": 0}, "group": "control_change"}, {"time": 2151, "annotation": {"number": 64, "value": 127}, "group": "control_change"}, {"time": 2172, "annotation": {"number": 64, "value": 0}, "group": "control_change"}, {"time": 2175, "annotation": {"number": 64, "value": 127}, "group": "control_change"}, {"time": 2192, "annotation": {"number": 64, "value": 0}, "group": "control_change"}, {"time": 2200, "annotation": {"number": 64, "value": 127}, "group": "control_change"}, {"time": 2219, "annotation": {"number": 64, "value": 0}, "group": "control_change"}, {"time": 2247, "annotation": {"number": 64, "value": 127}, "group": "control_change"}, {"time": 2268, "annotation": {"number": 64, "value": 0}, "group": "control_change"}, {"time": 2271, "annotation": {"number": 64, "value": 127}, "group": "control_change"}, {"time": 2293, "annotation": {"number": 64, "value": 0}, "group": "control_change"}, {"time": 2294, "annotation": {"number": 64, "value": 127}, "group": "control_change"}, {"time": 2318, "annotation": {"number": 64, "value": 0}, "group": "control_change"}, {"time": 2318, "annotation": {"number": 64, "value": 127}, "group": "control_change"}, {"time": 2341, "annotation": {"number": 64, "value": 0}, "group": "control_change"}, {"time": 2342, "annotation": {"number": 64, "value": 127}, "group": "control_change"}, {"time": 2364, "annotation": {"number": 64, "value": 0}, "group": "control_change"}, {"time": 2367, "annotation": {"number": 64, "value": 127}, "group": "control_change"}, {"time": 2387, "annotation": {"number": 64, "value": 0}, "group": "control_change"}, {"time": 2390, "annotation": {"number": 64, "value": 127}, "group": "control_change"}, {"time": 2411, "annotation": {"number": 64, "value": 0}, "group": "control_change"}, {"time": 2414, "annotation": {"number": 64, "value": 127}, "group": "control_change"}, {"time": 2437, "annotation": {"number": 64, "value": 0}, "group": "control_change"}, {"time": 2438, "annotation": {"number": 64, "value": 127}, "group": "control_change"}, {"time": 2460, "annotation": {"number": 64, "value": 0}, "group": "control_change"}, {"time": 2463, "annotation": {"number": 64, "value": 127}, "group": "control_change"}, {"time": 2485, "annotation": {"number": 64, "value": 0}, "group": "control_change"}, {"time": 2487, "annotation": {"number": 64, "value": 127}, "group": "control_change"}, {"time": 2508, "annotation": {"number": 64, "value": 0}, "group": "control_change"}, {"time": 2510, "annotation": {"number": 64, "value": 127}, "group": "control_change"}, {"time": 2533, "annotation": {"number": 64, "value": 0}, "group": "control_change"}, {"time": 2535, "annotation": {"number": 64, "value": 127}, "group": "control_change"}, {"time": 2556, "annotation": {"number": 64, "value": 0}, "group": "control_change"}, {"time": 2559, "annotation": {"number": 64, "value": 127}, "group": "control_change"}, {"time": 2579, "annotation": {"number": 64, "value": 0}, "group": "control_change"}, {"time": 2582, "annotation": {"number": 64, "value": 127}, "group": "control_change"}, {"time": 2583, "annotation": {"number": 64, "value": 127}, "group": "control_change"}, {"time": 2585, "annotation": {"number": 64, "value": 0}, "group": "control_change"}, {"time": 2589, "annotation": {"number": 64, "value": 127}, "group": "control_change"}, {"time": 2591, "annotation": {"number": 64, "value": 0}, "group": "control_change"}, {"time": 2607, "annotation": {"number": 64, "value": 127}, "group": "control_change"}, {"time": 2614, "annotation": {"number": 64, "value": 0}, "group": "control_change"}, {"time": 2631, "annotation": {"number": 64, "value": 127}, "group": "control_change"}, {"time": 2652, "annotation": {"number": 64, "value": 0}, "group": "control_change"}, {"time": 2655, "annotation": {"number": 64, "value": 127}, "group": "control_change"}, {"time": 2677, "annotation": {"number": 64, "value": 0}, "group": "control_change"}, {"time": 2678, "annotation": {"number": 64, "value": 127}, "group": "control_change"}, {"time": 2702, "annotation": {"number": 64, "value": 0}, "group": "control_change"}, {"time": 2702, "annotation": {"number": 64, "value": 127}, "group": "control_change"}, {"time": 2725, "annotation": {"number": 64, "value": 0}, "group": "control_change"}, {"time": 2726, "annotation": {"number": 64, "value": 127}, "group": "control_change"}, {"time": 2748, "annotation": {"number": 64, "value": 0}, "group": "control_change"}, {"time": 2751, "annotation": {"number": 64, "value": 127}, "group": "control_change"}, {"time": 2771, "annotation": {"number": 64, "value": 0}, "group": "control_change"}, {"time": 2774, "annotation": {"number": 64, "value": 127}, "group": "control_change"}, {"time": 2795, "annotation": {"number": 64, "value": 0}, "group": "control_change"}, {"time": 2798, "annotation": {"number": 64, "value": 127}, "group": "control_change"}, {"time": 2821, "annotation": {"number": 64, "value": 0}, "group": "control_change"}, {"time": 2822, "annotation": {"number": 64, "value": 127}, "group": "control_change"}, {"time": 2844, "annotation": {"number": 64, "value": 0}, "group": "control_change"}, {"time": 2847, "annotation": {"number": 64, "value": 127}, "group": "control_change"}, {"time": 2869, "annotation": {"number": 64, "value": 0}, "group": "control_change"}, {"time": 2871, "annotation": {"number": 64, "value": 127}, "group": "control_change"}, {"time": 2892, "annotation": {"number": 64, "value": 0}, "group": "control_change"}, {"time": 2894, "annotation": {"number": 64, "value": 127}, "group": "control_change"}, {"time": 2917, "annotation": {"number": 64, "value": 0}, "group": "control_change"}, {"time": 2919, "annotation": {"number": 64, "value": 127}, "group": "control_change"}, {"time": 2940, "annotation": {"number": 64, "value": 0}, "group": "control_change"}, {"time": 2943, "annotation": {"number": 64, "value": 127}, "group": "control_change"}, {"time": 2963, "annotation": {"number": 64, "value": 0}, "group": "control_change"}, {"time": 2965, "annotation": {"number": 64, "value": 127}, "group": "control_change"}, {"time": 2967, "annotation": {"number": 64, "value": 127}, "group": "control_change"}, {"time": 2967, "annotation": {"number": 64, "value": 0}, "group": "control_change"}, {"time": 2977, "annotation": {"number": 64, "value": 127}, "group": "control_change"}, {"time": 2983, "annotation": {"number": 64, "value": 0}, "group": "control_change"}, {"time": 3015, "annotation": {"number": 64, "value": 127}, "group": "control_change"}, {"time": 3036, "annotation": {"number": 64, "value": 0}, "group": "control_change"}, {"time": 3039, "annotation": {"number": 64, "value": 127}, "group": "control_change"}, {"time": 3060, "annotation": {"number": 64, "value": 0}, "group": "control_change"}, {"time": 3063, "annotation": {"number": 64, "value": 127}, "group": "control_change"}, {"time": 3084, "annotation": {"number": 64, "value": 0}, "group": "control_change"}, {"time": 3087, "annotation": {"number": 64, "value": 127}, "group": "control_change"}, {"time": 3106, "annotation": {"number": 64, "value": 0}, "group": "control_change"}, {"time": 3111, "annotation": {"number": 64, "value": 127}, "group": "control_change"}, {"time": 3132, "annotation": {"number": 64, "value": 0}, "group": "control_change"}, {"time": 3135, "annotation": {"number": 64, "value": 127}, "group": "control_change"}, {"time": 3154, "annotation": {"number": 64, "value": 0}, "group": "control_change"}, {"time": 3159, "annotation": {"number": 64, "value": 127}, "group": "control_change"}, {"time": 3204, "annotation": {"number": 64, "value": 0}, "group": "control_change"}, {"time": 3208, "annotation": {"number": 64, "value": 127}, "group": "control_change"}, {"time": 3229, "annotation": {"number": 64, "value": 0}, "group": "control_change"}, {"time": 3242, "annotation": {"number": 64, "value": 127}, "group": "control_change"}, {"time": 3252, "annotation": {"number": 64, "value": 0}, "group": "control_change"}, {"time": 3255, "annotation": {"number": 64, "value": 127}, "group": "control_change"}, {"time": 3276, "annotation": {"number": 64, "value": 0}, "group": "control_change"}, {"time": 3279, "annotation": {"number": 64, "value": 127}, "group": "control_change"}, {"time": 3298, "annotation": {"number": 64, "value": 0}, "group": "control_change"}, {"time": 3303, "annotation": {"number": 64, "value": 127}, "group": "control_change"}, {"time": 3322, "annotation": {"number": 64, "value": 0}, "group": "control_change"}, {"time": 3327, "annotation": {"number": 64, "value": 127}, "group": "control_change"}, {"time": 3336, "annotation": {"number": 64, "value": 0}, "group": "control_change"}, {"time": 3338, "annotation": {"number": 64, "value": 127}, "group": "control_change"}, {"time": 3405, "annotation": {"number": 64, "value": 0}, "group": "control_change"}, {"time": 3467, "annotation": {"number": 64, "value": 127}, "group": "control_change"}, {"time": 3478, "annotation": {"number": 64, "value": 0}, "group": "control_change"}, {"time": 3479, "annotation": {"number": 64, "value": 127}, "group": "control_change"}, {"time": 3482, "annotation": {"number": 64, "value": 0}, "group": "control_change"}]}]}