{"metadata": {"schema_version": "0.2", "title": "None", "source_filename": "766.mid", "source_format": "midi"}, "resolution": 12, "tempos": [{"time": 0, "qpm": 54.00000540000054}, {"time": 252, "qpm": 55.00000458333371}, {"time": 360, "qpm": 54.00000540000054}, {"time": 492, "qpm": 53.000022083342536}, {"time": 588, "qpm": 54.00000540000054}, {"time": 672, "qpm": 53.000022083342536}, {"time": 864, "qpm": 54.00000540000054}, {"time": 948, "qpm": 53.000022083342536}, {"time": 1104, "qpm": 53.50001560417122}, {"time": 1248, "qpm": 53.000022083342536}, {"time": 1272, "qpm": 54.00000540000054}, {"time": 1476, "qpm": 55.00000458333371}, {"time": 1524, "qpm": 54.00000540000054}, {"time": 1740, "qpm": 53.000022083342536}, {"time": 2004, "qpm": 54.00000540000054}, {"time": 2028, "qpm": 53.50001560417122}, {"time": 2208, "qpm": 53.299979390674636}, {"time": 2424, "qpm": 53.000022083342536}, {"time": 2652, "qpm": 54.00000540000054}, {"time": 2736, "qpm": 53.000022083342536}], "time_signatures": [{"time": 0, "numerator": 1, "denominator": 4}], "tracks": [{"program": 0, "is_drum": false, "name": "MELODY", "notes": [{"time": 488, "pitch": 71, "duration": 4, "velocity": 127}, {"time": 494, "pitch": 71, "duration": 1, "velocity": 117}, {"time": 497, "pitch": 71, "duration": 2, "velocity": 122}, {"time": 500, "pitch": 71, "duration": 6, "velocity": 99}, {"time": 506, "pitch": 66, "duration": 3, "velocity": 97}, {"time": 509, "pitch": 64, "duration": 2, "velocity": 90}, {"time": 512, "pitch": 62, "duration": 18, "velocity": 95}, {"time": 530, "pitch": 59, "duration": 2, "velocity": 81}, {"time": 536, "pitch": 64, "duration": 4, "velocity": 97}, {"time": 542, "pitch": 64, "duration": 2, "velocity": 95}, {"time": 545, "pitch": 67, "duration": 2, "velocity": 92}, {"time": 548, "pitch": 66, "duration": 3, "velocity": 93}, {"time": 551, "pitch": 64, "duration": 2, "velocity": 72}, {"time": 554, "pitch": 62, "duration": 6, "velocity": 85}, {"time": 560, "pitch": 64, "duration": 20, "velocity": 97}, {"time": 584, "pitch": 64, "duration": 9, "velocity": 100}, {"time": 596, "pitch": 67, "duration": 5, "velocity": 102}, {"time": 602, "pitch": 64, "duration": 4, "velocity": 100}, {"time": 608, "pitch": 76, "duration": 7, "velocity": 122}, {"time": 614, "pitch": 71, "duration": 3, "velocity": 107}, {"time": 617, "pitch": 69, "duration": 3, "velocity": 77}, {"time": 620, "pitch": 67, "duration": 9, "velocity": 92}, {"time": 629, "pitch": 64, "duration": 2, "velocity": 92}, {"time": 632, "pitch": 69, "duration": 6, "velocity": 102}, {"time": 638, "pitch": 71, "duration": 5, "velocity": 100}, {"time": 644, "pitch": 72, "duration": 4, "velocity": 112}, {"time": 650, "pitch": 71, "duration": 3, "velocity": 99}, {"time": 653, "pitch": 69, "duration": 2, "velocity": 89}, {"time": 656, "pitch": 69, "duration": 19, "velocity": 117}, {"time": 680, "pitch": 71, "duration": 4, "velocity": 122}, {"time": 686, "pitch": 71, "duration": 1, "velocity": 93}, {"time": 689, "pitch": 71, "duration": 1, "velocity": 93}, {"time": 692, "pitch": 71, "duration": 4, "velocity": 117}, {"time": 698, "pitch": 66, "duration": 2, "velocity": 117}, {"time": 701, "pitch": 64, "duration": 3, "velocity": 93}, {"time": 704, "pitch": 62, "duration": 14, "velocity": 100}, {"time": 728, "pitch": 64, "duration": 3, "velocity": 117}, {"time": 734, "pitch": 64, "duration": 1, "velocity": 112}, {"time": 737, "pitch": 67, "duration": 1, "velocity": 96}, {"time": 740, "pitch": 66, "duration": 3, "velocity": 127}, {"time": 743, "pitch": 64, "duration": 2, "velocity": 82}, {"time": 746, "pitch": 62, "duration": 6, "velocity": 99}, {"time": 752, "pitch": 64, "duration": 18, "velocity": 96}, {"time": 776, "pitch": 64, "duration": 9, "velocity": 99}, {"time": 788, "pitch": 67, "duration": 5, "velocity": 117}, {"time": 794, "pitch": 64, "duration": 4, "velocity": 100}, {"time": 800, "pitch": 76, "duration": 7, "velocity": 127}, {"time": 806, "pitch": 71, "duration": 3, "velocity": 122}, {"time": 809, "pitch": 69, "duration": 2, "velocity": 100}, {"time": 812, "pitch": 67, "duration": 7, "velocity": 96}, {"time": 821, "pitch": 64, "duration": 3, "velocity": 97}, {"time": 824, "pitch": 69, "duration": 3, "velocity": 112}, {"time": 830, "pitch": 69, "duration": 2, "velocity": 112}, {"time": 833, "pitch": 72, "duration": 2, "velocity": 117}, {"time": 836, "pitch": 71, "duration": 6, "velocity": 122}, {"time": 845, "pitch": 69, "duration": 2, "velocity": 92}, {"time": 848, "pitch": 71, "duration": 6, "velocity": 102}, {"time": 854, "pitch": 67, "duration": 14, "velocity": 107}, {"time": 872, "pitch": 74, "duration": 4, "velocity": 127}, {"time": 878, "pitch": 74, "duration": 2, "velocity": 127}, {"time": 881, "pitch": 76, "duration": 1, "velocity": 99}, {"time": 884, "pitch": 76, "duration": 3, "velocity": 122}, {"time": 890, "pitch": 71, "duration": 3, "velocity": 102}, {"time": 893, "pitch": 69, "duration": 2, "velocity": 100}, {"time": 896, "pitch": 67, "duration": 4, "velocity": 100}, {"time": 911, "pitch": 67, "duration": 2, "velocity": 97}, {"time": 914, "pitch": 64, "duration": 2, "velocity": 100}, {"time": 920, "pitch": 74, "duration": 3, "velocity": 127}, {"time": 926, "pitch": 74, "duration": 2, "velocity": 122}, {"time": 929, "pitch": 76, "duration": 1, "velocity": 112}, {"time": 932, "pitch": 76, "duration": 4, "velocity": 127}, {"time": 938, "pitch": 72, "duration": 3, "velocity": 122}, {"time": 941, "pitch": 71, "duration": 3, "velocity": 96}, {"time": 944, "pitch": 69, "duration": 18, "velocity": 112}, {"time": 968, "pitch": 69, "duration": 6, "velocity": 127}, {"time": 977, "pitch": 67, "duration": 2, "velocity": 93}, {"time": 980, "pitch": 69, "duration": 5, "velocity": 117}, {"time": 986, "pitch": 71, "duration": 6, "velocity": 117}, {"time": 992, "pitch": 74, "duration": 6, "velocity": 127}, {"time": 998, "pitch": 76, "duration": 4, "velocity": 127}, {"time": 1004, "pitch": 74, "duration": 5, "velocity": 112}, {"time": 1010, "pitch": 71, "duration": 3, "velocity": 112}, {"time": 1016, "pitch": 69, "duration": 6, "velocity": 122}, {"time": 1025, "pitch": 67, "duration": 1, "velocity": 96}, {"time": 1028, "pitch": 69, "duration": 2, "velocity": 107}, {"time": 1031, "pitch": 67, "duration": 3, "velocity": 95}, {"time": 1034, "pitch": 69, "duration": 2, "velocity": 122}, {"time": 1037, "pitch": 71, "duration": 2, "velocity": 117}, {"time": 1040, "pitch": 74, "duration": 5, "velocity": 127}, {"time": 1046, "pitch": 74, "duration": 13, "velocity": 127}, {"time": 1064, "pitch": 74, "duration": 3, "velocity": 127}, {"time": 1070, "pitch": 74, "duration": 2, "velocity": 127}, {"time": 1073, "pitch": 76, "duration": 1, "velocity": 100}, {"time": 1076, "pitch": 76, "duration": 3, "velocity": 117}, {"time": 1082, "pitch": 71, "duration": 2, "velocity": 122}, {"time": 1085, "pitch": 69, "duration": 3, "velocity": 112}, {"time": 1088, "pitch": 67, "duration": 10, "velocity": 102}, {"time": 1112, "pitch": 74, "duration": 4, "velocity": 127}, {"time": 1118, "pitch": 74, "duration": 2, "velocity": 122}, {"time": 1121, "pitch": 76, "duration": 1, "velocity": 99}, {"time": 1124, "pitch": 76, "duration": 3, "velocity": 117}, {"time": 1130, "pitch": 72, "duration": 2, "velocity": 117}, {"time": 1133, "pitch": 71, "duration": 2, "velocity": 117}, {"time": 1136, "pitch": 69, "duration": 10, "velocity": 107}, {"time": 1160, "pitch": 69, "duration": 3, "velocity": 127}, {"time": 1166, "pitch": 69, "duration": 2, "velocity": 117}, {"time": 1169, "pitch": 67, "duration": 3, "velocity": 97}, {"time": 1172, "pitch": 69, "duration": 5, "velocity": 112}, {"time": 1178, "pitch": 69, "duration": 2, "velocity": 99}, {"time": 1181, "pitch": 71, "duration": 2, "velocity": 99}, {"time": 1184, "pitch": 74, "duration": 5, "velocity": 112}, {"time": 1190, "pitch": 74, "duration": 2, "velocity": 127}, {"time": 1193, "pitch": 76, "duration": 3, "velocity": 99}, {"time": 1196, "pitch": 74, "duration": 4, "velocity": 112}, {"time": 1202, "pitch": 71, "duration": 2, "velocity": 117}, {"time": 1208, "pitch": 69, "duration": 4, "velocity": 122}, {"time": 1217, "pitch": 71, "duration": 2, "velocity": 122}, {"time": 1220, "pitch": 66, "duration": 2, "velocity": 122}, {"time": 1223, "pitch": 64, "duration": 2, "velocity": 97}, {"time": 1226, "pitch": 62, "duration": 3, "velocity": 92}, {"time": 1229, "pitch": 64, "duration": 3, "velocity": 97}, {"time": 1232, "pitch": 67, "duration": 1, "velocity": 112}, {"time": 1238, "pitch": 67, "duration": 17, "velocity": 102}, {"time": 1664, "pitch": 71, "duration": 4, "velocity": 127}, {"time": 1673, "pitch": 71, "duration": 1, "velocity": 117}, {"time": 1676, "pitch": 71, "duration": 2, "velocity": 122}, {"time": 1679, "pitch": 71, "duration": 1, "velocity": 99}, {"time": 1681, "pitch": 66, "duration": 3, "velocity": 97}, {"time": 1685, "pitch": 64, "duration": 2, "velocity": 90}, {"time": 1688, "pitch": 62, "duration": 17, "velocity": 95}, {"time": 1706, "pitch": 59, "duration": 2, "velocity": 81}, {"time": 1712, "pitch": 64, "duration": 4, "velocity": 97}, {"time": 1718, "pitch": 64, "duration": 2, "velocity": 95}, {"time": 1721, "pitch": 67, "duration": 2, "velocity": 92}, {"time": 1724, "pitch": 66, "duration": 3, "velocity": 93}, {"time": 1727, "pitch": 64, "duration": 2, "velocity": 72}, {"time": 1730, "pitch": 62, "duration": 6, "velocity": 85}, {"time": 1736, "pitch": 64, "duration": 20, "velocity": 97}, {"time": 1760, "pitch": 64, "duration": 9, "velocity": 100}, {"time": 1772, "pitch": 67, "duration": 5, "velocity": 102}, {"time": 1778, "pitch": 64, "duration": 4, "velocity": 100}, {"time": 1784, "pitch": 76, "duration": 7, "velocity": 122}, {"time": 1790, "pitch": 71, "duration": 3, "velocity": 107}, {"time": 1793, "pitch": 69, "duration": 3, "velocity": 77}, {"time": 1796, "pitch": 67, "duration": 9, "velocity": 92}, {"time": 1805, "pitch": 64, "duration": 2, "velocity": 92}, {"time": 1808, "pitch": 69, "duration": 6, "velocity": 102}, {"time": 1814, "pitch": 69, "duration": 2, "velocity": 99}, {"time": 1817, "pitch": 71, "duration": 2, "velocity": 90}, {"time": 1820, "pitch": 72, "duration": 4, "velocity": 112}, {"time": 1826, "pitch": 71, "duration": 3, "velocity": 99}, {"time": 1829, "pitch": 69, "duration": 2, "velocity": 89}, {"time": 1832, "pitch": 69, "duration": 19, "velocity": 117}, {"time": 1856, "pitch": 71, "duration": 4, "velocity": 122}, {"time": 1862, "pitch": 71, "duration": 1, "velocity": 93}, {"time": 1865, "pitch": 71, "duration": 1, "velocity": 93}, {"time": 1868, "pitch": 71, "duration": 4, "velocity": 117}, {"time": 1874, "pitch": 66, "duration": 2, "velocity": 117}, {"time": 1877, "pitch": 64, "duration": 3, "velocity": 93}, {"time": 1880, "pitch": 62, "duration": 14, "velocity": 100}, {"time": 1904, "pitch": 64, "duration": 3, "velocity": 117}, {"time": 1910, "pitch": 64, "duration": 1, "velocity": 112}, {"time": 1913, "pitch": 67, "duration": 1, "velocity": 96}, {"time": 1916, "pitch": 66, "duration": 3, "velocity": 127}, {"time": 1919, "pitch": 64, "duration": 2, "velocity": 82}, {"time": 1922, "pitch": 62, "duration": 6, "velocity": 99}, {"time": 1928, "pitch": 64, "duration": 18, "velocity": 96}, {"time": 1952, "pitch": 64, "duration": 9, "velocity": 99}, {"time": 1964, "pitch": 67, "duration": 5, "velocity": 117}, {"time": 1970, "pitch": 64, "duration": 4, "velocity": 100}, {"time": 1976, "pitch": 76, "duration": 7, "velocity": 127}, {"time": 1982, "pitch": 71, "duration": 3, "velocity": 122}, {"time": 1985, "pitch": 69, "duration": 2, "velocity": 100}, {"time": 1988, "pitch": 67, "duration": 7, "velocity": 96}, {"time": 1997, "pitch": 64, "duration": 3, "velocity": 97}, {"time": 2000, "pitch": 69, "duration": 3, "velocity": 112}, {"time": 2006, "pitch": 69, "duration": 2, "velocity": 112}, {"time": 2009, "pitch": 72, "duration": 2, "velocity": 117}, {"time": 2012, "pitch": 71, "duration": 6, "velocity": 122}, {"time": 2021, "pitch": 69, "duration": 2, "velocity": 92}, {"time": 2024, "pitch": 71, "duration": 6, "velocity": 102}, {"time": 2030, "pitch": 67, "duration": 14, "velocity": 107}, {"time": 2048, "pitch": 74, "duration": 4, "velocity": 127}, {"time": 2054, "pitch": 74, "duration": 2, "velocity": 127}, {"time": 2057, "pitch": 76, "duration": 1, "velocity": 99}, {"time": 2060, "pitch": 76, "duration": 3, "velocity": 122}, {"time": 2066, "pitch": 71, "duration": 3, "velocity": 102}, {"time": 2069, "pitch": 69, "duration": 2, "velocity": 100}, {"time": 2072, "pitch": 67, "duration": 4, "velocity": 100}, {"time": 2087, "pitch": 67, "duration": 2, "velocity": 97}, {"time": 2090, "pitch": 64, "duration": 2, "velocity": 100}, {"time": 2096, "pitch": 74, "duration": 3, "velocity": 127}, {"time": 2102, "pitch": 74, "duration": 2, "velocity": 122}, {"time": 2105, "pitch": 76, "duration": 1, "velocity": 112}, {"time": 2108, "pitch": 76, "duration": 4, "velocity": 127}, {"time": 2114, "pitch": 72, "duration": 3, "velocity": 122}, {"time": 2117, "pitch": 71, "duration": 3, "velocity": 96}, {"time": 2120, "pitch": 69, "duration": 18, "velocity": 112}, {"time": 2144, "pitch": 69, "duration": 6, "velocity": 127}, {"time": 2153, "pitch": 67, "duration": 2, "velocity": 93}, {"time": 2156, "pitch": 69, "duration": 5, "velocity": 117}, {"time": 2162, "pitch": 71, "duration": 6, "velocity": 117}, {"time": 2168, "pitch": 74, "duration": 6, "velocity": 127}, {"time": 2174, "pitch": 76, "duration": 4, "velocity": 127}, {"time": 2180, "pitch": 74, "duration": 5, "velocity": 112}, {"time": 2186, "pitch": 71, "duration": 3, "velocity": 112}, {"time": 2192, "pitch": 69, "duration": 6, "velocity": 122}, {"time": 2201, "pitch": 67, "duration": 1, "velocity": 96}, {"time": 2204, "pitch": 69, "duration": 2, "velocity": 107}, {"time": 2207, "pitch": 67, "duration": 3, "velocity": 95}, {"time": 2210, "pitch": 69, "duration": 2, "velocity": 122}, {"time": 2213, "pitch": 71, "duration": 2, "velocity": 117}, {"time": 2216, "pitch": 74, "duration": 18, "velocity": 127}, {"time": 2240, "pitch": 74, "duration": 3, "velocity": 127}, {"time": 2246, "pitch": 74, "duration": 2, "velocity": 127}, {"time": 2249, "pitch": 76, "duration": 1, "velocity": 100}, {"time": 2252, "pitch": 76, "duration": 3, "velocity": 117}, {"time": 2258, "pitch": 71, "duration": 2, "velocity": 122}, {"time": 2261, "pitch": 69, "duration": 3, "velocity": 112}, {"time": 2264, "pitch": 67, "duration": 10, "velocity": 102}, {"time": 2288, "pitch": 74, "duration": 4, "velocity": 127}, {"time": 2294, "pitch": 74, "duration": 2, "velocity": 122}, {"time": 2297, "pitch": 76, "duration": 1, "velocity": 99}, {"time": 2300, "pitch": 76, "duration": 3, "velocity": 117}, {"time": 2306, "pitch": 72, "duration": 2, "velocity": 117}, {"time": 2309, "pitch": 71, "duration": 2, "velocity": 117}, {"time": 2312, "pitch": 69, "duration": 10, "velocity": 107}, {"time": 2336, "pitch": 69, "duration": 3, "velocity": 127}, {"time": 2342, "pitch": 69, "duration": 2, "velocity": 117}, {"time": 2345, "pitch": 67, "duration": 3, "velocity": 97}, {"time": 2348, "pitch": 69, "duration": 5, "velocity": 112}, {"time": 2354, "pitch": 69, "duration": 2, "velocity": 99}, {"time": 2357, "pitch": 71, "duration": 2, "velocity": 99}, {"time": 2360, "pitch": 74, "duration": 5, "velocity": 112}, {"time": 2366, "pitch": 74, "duration": 2, "velocity": 127}, {"time": 2369, "pitch": 76, "duration": 3, "velocity": 99}, {"time": 2372, "pitch": 74, "duration": 4, "velocity": 112}, {"time": 2378, "pitch": 71, "duration": 2, "velocity": 117}, {"time": 2384, "pitch": 69, "duration": 4, "velocity": 122}, {"time": 2393, "pitch": 71, "duration": 2, "velocity": 122}, {"time": 2396, "pitch": 66, "duration": 2, "velocity": 122}, {"time": 2399, "pitch": 64, "duration": 2, "velocity": 97}, {"time": 2402, "pitch": 62, "duration": 3, "velocity": 92}, {"time": 2405, "pitch": 64, "duration": 3, "velocity": 97}, {"time": 2408, "pitch": 67, "duration": 17, "velocity": 112}, {"time": 2456, "pitch": 75, "duration": 4, "velocity": 127}, {"time": 2462, "pitch": 75, "duration": 2, "velocity": 127}, {"time": 2465, "pitch": 77, "duration": 1, "velocity": 99}, {"time": 2468, "pitch": 77, "duration": 3, "velocity": 122}, {"time": 2474, "pitch": 72, "duration": 3, "velocity": 102}, {"time": 2477, "pitch": 70, "duration": 2, "velocity": 100}, {"time": 2480, "pitch": 68, "duration": 4, "velocity": 100}, {"time": 2495, "pitch": 68, "duration": 2, "velocity": 97}, {"time": 2498, "pitch": 65, "duration": 2, "velocity": 100}, {"time": 2504, "pitch": 75, "duration": 3, "velocity": 127}, {"time": 2510, "pitch": 75, "duration": 2, "velocity": 122}, {"time": 2513, "pitch": 77, "duration": 1, "velocity": 112}, {"time": 2516, "pitch": 77, "duration": 4, "velocity": 127}, {"time": 2522, "pitch": 73, "duration": 3, "velocity": 122}, {"time": 2525, "pitch": 72, "duration": 3, "velocity": 96}, {"time": 2528, "pitch": 70, "duration": 18, "velocity": 112}, {"time": 2552, "pitch": 70, "duration": 6, "velocity": 127}, {"time": 2561, "pitch": 68, "duration": 2, "velocity": 93}, {"time": 2564, "pitch": 70, "duration": 5, "velocity": 117}, {"time": 2570, "pitch": 72, "duration": 6, "velocity": 117}, {"time": 2576, "pitch": 75, "duration": 6, "velocity": 127}, {"time": 2582, "pitch": 77, "duration": 4, "velocity": 127}, {"time": 2588, "pitch": 75, "duration": 5, "velocity": 112}, {"time": 2594, "pitch": 72, "duration": 3, "velocity": 112}, {"time": 2600, "pitch": 70, "duration": 6, "velocity": 122}, {"time": 2609, "pitch": 68, "duration": 1, "velocity": 96}, {"time": 2612, "pitch": 70, "duration": 2, "velocity": 107}, {"time": 2615, "pitch": 68, "duration": 3, "velocity": 95}, {"time": 2618, "pitch": 70, "duration": 2, "velocity": 122}, {"time": 2621, "pitch": 72, "duration": 2, "velocity": 117}, {"time": 2624, "pitch": 75, "duration": 18, "velocity": 127}, {"time": 2648, "pitch": 75, "duration": 3, "velocity": 127}, {"time": 2654, "pitch": 75, "duration": 2, "velocity": 127}, {"time": 2657, "pitch": 77, "duration": 1, "velocity": 100}, {"time": 2660, "pitch": 77, "duration": 3, "velocity": 117}, {"time": 2666, "pitch": 72, "duration": 2, "velocity": 122}, {"time": 2669, "pitch": 70, "duration": 3, "velocity": 112}, {"time": 2672, "pitch": 68, "duration": 10, "velocity": 102}, {"time": 2696, "pitch": 75, "duration": 4, "velocity": 127}, {"time": 2702, "pitch": 75, "duration": 2, "velocity": 122}, {"time": 2705, "pitch": 77, "duration": 1, "velocity": 99}, {"time": 2708, "pitch": 77, "duration": 3, "velocity": 117}, {"time": 2714, "pitch": 73, "duration": 2, "velocity": 117}, {"time": 2717, "pitch": 72, "duration": 2, "velocity": 117}, {"time": 2720, "pitch": 70, "duration": 10, "velocity": 107}, {"time": 2744, "pitch": 70, "duration": 3, "velocity": 127}, {"time": 2750, "pitch": 70, "duration": 2, "velocity": 117}, {"time": 2753, "pitch": 68, "duration": 3, "velocity": 97}, {"time": 2756, "pitch": 70, "duration": 5, "velocity": 112}, {"time": 2762, "pitch": 70, "duration": 2, "velocity": 99}, {"time": 2765, "pitch": 72, "duration": 2, "velocity": 99}, {"time": 2768, "pitch": 75, "duration": 5, "velocity": 112}, {"time": 2774, "pitch": 75, "duration": 2, "velocity": 127}, {"time": 2777, "pitch": 77, "duration": 3, "velocity": 99}, {"time": 2780, "pitch": 75, "duration": 4, "velocity": 112}, {"time": 2786, "pitch": 72, "duration": 2, "velocity": 117}, {"time": 2792, "pitch": 70, "duration": 4, "velocity": 122}, {"time": 2801, "pitch": 72, "duration": 2, "velocity": 122}, {"time": 2804, "pitch": 67, "duration": 2, "velocity": 122}, {"time": 2807, "pitch": 65, "duration": 2, "velocity": 97}, {"time": 2810, "pitch": 63, "duration": 3, "velocity": 92}, {"time": 2813, "pitch": 65, "duration": 3, "velocity": 97}, {"time": 2816, "pitch": 68, "duration": 3, "velocity": 112}, {"time": 2822, "pitch": 68, "duration": 12, "velocity": 127}, {"time": 2839, "pitch": 70, "duration": 5, "velocity": 127}, {"time": 2845, "pitch": 70, "duration": 10, "velocity": 127}, {"time": 2857, "pitch": 70, "duration": 5, "velocity": 127}, {"time": 2864, "pitch": 77, "duration": 36, "velocity": 127}, {"time": 2899, "pitch": 75, "duration": 8, "velocity": 107}, {"time": 2912, "pitch": 75, "duration": 49, "velocity": 127}]}, {"program": 0, "is_drum": false, "name": "BRIDGE", "notes": [{"time": 32, "pitch": 62, "duration": 1, "velocity": 82}, {"time": 32, "pitch": 63, "duration": 2, "velocity": 69}, {"time": 34, "pitch": 62, "duration": 1, "velocity": 58}, {"time": 34, "pitch": 63, "duration": 1, "velocity": 43}, {"time": 35, "pitch": 62, "duration": 1, "velocity": 40}, {"time": 36, "pitch": 63, "duration": 1, "velocity": 47}, {"time": 37, "pitch": 62, "duration": 1, "velocity": 68}, {"time": 37, "pitch": 63, "duration": 1, "velocity": 50}, {"time": 38, "pitch": 62, "duration": 1, "velocity": 69}, {"time": 38, "pitch": 63, "duration": 1, "velocity": 55}, {"time": 39, "pitch": 63, "duration": 1, "velocity": 50}, {"time": 40, "pitch": 62, "duration": 1, "velocity": 61}, {"time": 41, "pitch": 63, "duration": 1, "velocity": 56}, {"time": 42, "pitch": 62, "duration": 1, "velocity": 68}, {"time": 42, "pitch": 63, "duration": 1, "velocity": 59}, {"time": 43, "pitch": 62, "duration": 1, "velocity": 66}, {"time": 44, "pitch": 63, "duration": 1, "velocity": 61}, {"time": 45, "pitch": 62, "duration": 1, "velocity": 75}, {"time": 46, "pitch": 63, "duration": 1, "velocity": 67}, {"time": 46, "pitch": 62, "duration": 1, "velocity": 69}, {"time": 47, "pitch": 63, "duration": 1, "velocity": 69}, {"time": 48, "pitch": 62, "duration": 1, "velocity": 73}, {"time": 49, "pitch": 63, "duration": 1, "velocity": 68}, {"time": 50, "pitch": 62, "duration": 1, "velocity": 75}, {"time": 51, "pitch": 63, "duration": 1, "velocity": 66}, {"time": 51, "pitch": 62, "duration": 1, "velocity": 76}, {"time": 52, "pitch": 63, "duration": 1, "velocity": 65}, {"time": 53, "pitch": 62, "duration": 1, "velocity": 72}, {"time": 54, "pitch": 63, "duration": 1, "velocity": 56}, {"time": 55, "pitch": 62, "duration": 1, "velocity": 66}, {"time": 56, "pitch": 63, "duration": 1, "velocity": 62}, {"time": 56, "pitch": 62, "duration": 1, "velocity": 69}, {"time": 57, "pitch": 63, "duration": 1, "velocity": 63}, {"time": 58, "pitch": 62, "duration": 1, "velocity": 59}, {"time": 59, "pitch": 63, "duration": 1, "velocity": 58}, {"time": 60, "pitch": 62, "duration": 1, "velocity": 64}, {"time": 61, "pitch": 63, "duration": 1, "velocity": 63}, {"time": 61, "pitch": 62, "duration": 1, "velocity": 65}, {"time": 62, "pitch": 63, "duration": 1, "velocity": 63}, {"time": 63, "pitch": 62, "duration": 1, "velocity": 70}, {"time": 64, "pitch": 63, "duration": 1, "velocity": 71}, {"time": 65, "pitch": 62, "duration": 1, "velocity": 70}, {"time": 66, "pitch": 63, "duration": 1, "velocity": 68}, {"time": 67, "pitch": 62, "duration": 1, "velocity": 77}, {"time": 68, "pitch": 63, "duration": 1, "velocity": 66}, {"time": 68, "pitch": 62, "duration": 1, "velocity": 74}, {"time": 69, "pitch": 63, "duration": 1, "velocity": 85}, {"time": 70, "pitch": 62, "duration": 1, "velocity": 76}, {"time": 71, "pitch": 63, "duration": 1, "velocity": 76}, {"time": 72, "pitch": 62, "duration": 1, "velocity": 76}, {"time": 73, "pitch": 63, "duration": 1, "velocity": 83}, {"time": 74, "pitch": 62, "duration": 1, "velocity": 78}, {"time": 75, "pitch": 63, "duration": 1, "velocity": 81}, {"time": 75, "pitch": 62, "duration": 1, "velocity": 82}, {"time": 76, "pitch": 63, "duration": 1, "velocity": 99}, {"time": 77, "pitch": 62, "duration": 1, "velocity": 100}, {"time": 80, "pitch": 74, "duration": 8, "velocity": 127}, {"time": 89, "pitch": 76, "duration": 1, "velocity": 100}, {"time": 92, "pitch": 76, "duration": 4, "velocity": 117}, {"time": 98, "pitch": 71, "duration": 2, "velocity": 122}, {"time": 101, "pitch": 69, "duration": 2, "velocity": 93}, {"time": 104, "pitch": 67, "duration": 18, "velocity": 100}, {"time": 110, "pitch": 74, "duration": 2, "velocity": 95}, {"time": 113, "pitch": 76, "duration": 1, "velocity": 92}, {"time": 116, "pitch": 76, "duration": 4, "velocity": 112}, {"time": 122, "pitch": 71, "duration": 2, "velocity": 99}, {"time": 125, "pitch": 69, "duration": 3, "velocity": 81}, {"time": 128, "pitch": 74, "duration": 7, "velocity": 112}, {"time": 137, "pitch": 76, "duration": 1, "velocity": 96}, {"time": 140, "pitch": 76, "duration": 3, "velocity": 102}, {"time": 146, "pitch": 72, "duration": 3, "velocity": 100}, {"time": 149, "pitch": 71, "duration": 3, "velocity": 100}, {"time": 152, "pitch": 69, "duration": 15, "velocity": 102}, {"time": 158, "pitch": 74, "duration": 2, "velocity": 100}, {"time": 161, "pitch": 76, "duration": 3, "velocity": 85}, {"time": 164, "pitch": 72, "duration": 5, "velocity": 95}, {"time": 170, "pitch": 69, "duration": 3, "velocity": 86}, {"time": 173, "pitch": 71, "duration": 3, "velocity": 88}, {"time": 176, "pitch": 69, "duration": 13, "velocity": 122}, {"time": 194, "pitch": 71, "duration": 4, "velocity": 122}, {"time": 200, "pitch": 66, "duration": 5, "velocity": 127}, {"time": 206, "pitch": 64, "duration": 5, "velocity": 102}, {"time": 212, "pitch": 62, "duration": 5, "velocity": 99}, {"time": 224, "pitch": 64, "duration": 8, "velocity": 100}, {"time": 230, "pitch": 76, "duration": 4, "velocity": 100}, {"time": 236, "pitch": 76, "duration": 5, "velocity": 122}, {"time": 242, "pitch": 74, "duration": 5, "velocity": 100}, {"time": 248, "pitch": 71, "duration": 13, "velocity": 96}, {"time": 252, "pitch": 62, "duration": 2, "velocity": 96}, {"time": 253, "pitch": 64, "duration": 2, "velocity": 74}, {"time": 254, "pitch": 66, "duration": 1, "velocity": 107}, {"time": 256, "pitch": 67, "duration": 1, "velocity": 89}, {"time": 257, "pitch": 69, "duration": 3, "velocity": 93}, {"time": 258, "pitch": 71, "duration": 3, "velocity": 86}, {"time": 260, "pitch": 72, "duration": 1, "velocity": 96}, {"time": 261, "pitch": 74, "duration": 2, "velocity": 102}, {"time": 263, "pitch": 76, "duration": 1, "velocity": 85}, {"time": 264, "pitch": 78, "duration": 1, "velocity": 95}, {"time": 265, "pitch": 79, "duration": 2, "velocity": 86}, {"time": 267, "pitch": 81, "duration": 2, "velocity": 85}, {"time": 268, "pitch": 83, "duration": 1, "velocity": 127}, {"time": 270, "pitch": 84, "duration": 1, "velocity": 97}, {"time": 272, "pitch": 74, "duration": 7, "velocity": 122}, {"time": 272, "pitch": 86, "duration": 7, "velocity": 112}, {"time": 281, "pitch": 76, "duration": 1, "velocity": 96}, {"time": 281, "pitch": 88, "duration": 1, "velocity": 117}, {"time": 284, "pitch": 76, "duration": 3, "velocity": 112}, {"time": 284, "pitch": 88, "duration": 3, "velocity": 117}, {"time": 290, "pitch": 71, "duration": 3, "velocity": 102}, {"time": 290, "pitch": 83, "duration": 2, "velocity": 112}, {"time": 293, "pitch": 69, "duration": 3, "velocity": 93}, {"time": 293, "pitch": 81, "duration": 2, "velocity": 88}, {"time": 296, "pitch": 67, "duration": 14, "velocity": 96}, {"time": 296, "pitch": 79, "duration": 22, "velocity": 107}, {"time": 320, "pitch": 74, "duration": 8, "velocity": 122}, {"time": 320, "pitch": 86, "duration": 8, "velocity": 107}, {"time": 329, "pitch": 76, "duration": 2, "velocity": 99}, {"time": 329, "pitch": 88, "duration": 1, "velocity": 117}, {"time": 332, "pitch": 76, "duration": 4, "velocity": 127}, {"time": 332, "pitch": 88, "duration": 4, "velocity": 107}, {"time": 338, "pitch": 72, "duration": 2, "velocity": 102}, {"time": 338, "pitch": 84, "duration": 2, "velocity": 107}, {"time": 341, "pitch": 71, "duration": 3, "velocity": 90}, {"time": 341, "pitch": 83, "duration": 2, "velocity": 89}, {"time": 344, "pitch": 69, "duration": 17, "velocity": 100}, {"time": 344, "pitch": 81, "duration": 21, "velocity": 99}, {"time": 368, "pitch": 69, "duration": 14, "velocity": 127}, {"time": 368, "pitch": 81, "duration": 18, "velocity": 107}, {"time": 386, "pitch": 71, "duration": 4, "velocity": 117}, {"time": 386, "pitch": 83, "duration": 4, "velocity": 100}, {"time": 392, "pitch": 66, "duration": 5, "velocity": 112}, {"time": 392, "pitch": 78, "duration": 4, "velocity": 112}, {"time": 398, "pitch": 64, "duration": 5, "velocity": 99}, {"time": 398, "pitch": 76, "duration": 3, "velocity": 99}, {"time": 404, "pitch": 59, "duration": 5, "velocity": 89}, {"time": 404, "pitch": 71, "duration": 6, "velocity": 96}, {"time": 410, "pitch": 62, "duration": 6, "velocity": 86}, {"time": 410, "pitch": 74, "duration": 5, "velocity": 97}, {"time": 416, "pitch": 64, "duration": 9, "velocity": 92}, {"time": 416, "pitch": 76, "duration": 7, "velocity": 100}, {"time": 425, "pitch": 83, "duration": 2, "velocity": 97}, {"time": 428, "pitch": 78, "duration": 3, "velocity": 95}, {"time": 431, "pitch": 76, "duration": 2, "velocity": 85}, {"time": 434, "pitch": 74, "duration": 3, "velocity": 88}, {"time": 437, "pitch": 76, "duration": 4, "velocity": 88}, {"time": 440, "pitch": 79, "duration": 43, "velocity": 112}, {"time": 662, "pitch": 69, "duration": 3, "velocity": 83}, {"time": 665, "pitch": 76, "duration": 2, "velocity": 96}, {"time": 668, "pitch": 74, "duration": 3, "velocity": 82}, {"time": 671, "pitch": 76, "duration": 3, "velocity": 96}, {"time": 674, "pitch": 72, "duration": 2, "velocity": 97}, {"time": 677, "pitch": 69, "duration": 3, "velocity": 79}, {"time": 680, "pitch": 71, "duration": 20, "velocity": 97}, {"time": 710, "pitch": 74, "duration": 2, "velocity": 102}, {"time": 713, "pitch": 76, "duration": 1, "velocity": 92}, {"time": 716, "pitch": 76, "duration": 2, "velocity": 97}, {"time": 719, "pitch": 76, "duration": 3, "velocity": 95}, {"time": 722, "pitch": 71, "duration": 2, "velocity": 85}, {"time": 725, "pitch": 69, "duration": 2, "velocity": 82}, {"time": 728, "pitch": 67, "duration": 18, "velocity": 83}, {"time": 758, "pitch": 76, "duration": 5, "velocity": 102}, {"time": 764, "pitch": 71, "duration": 6, "velocity": 76}, {"time": 770, "pitch": 69, "duration": 3, "velocity": 90}, {"time": 773, "pitch": 67, "duration": 3, "velocity": 69}, {"time": 776, "pitch": 64, "duration": 17, "velocity": 88}, {"time": 854, "pitch": 62, "duration": 4, "velocity": 86}, {"time": 857, "pitch": 64, "duration": 3, "velocity": 70}, {"time": 860, "pitch": 66, "duration": 5, "velocity": 102}, {"time": 863, "pitch": 64, "duration": 3, "velocity": 86}, {"time": 866, "pitch": 62, "duration": 6, "velocity": 95}, {"time": 872, "pitch": 67, "duration": 12, "velocity": 97}, {"time": 902, "pitch": 74, "duration": 2, "velocity": 99}, {"time": 905, "pitch": 76, "duration": 2, "velocity": 92}, {"time": 908, "pitch": 76, "duration": 4, "velocity": 93}, {"time": 914, "pitch": 71, "duration": 3, "velocity": 88}, {"time": 917, "pitch": 69, "duration": 3, "velocity": 89}, {"time": 920, "pitch": 68, "duration": 20, "velocity": 90}, {"time": 956, "pitch": 72, "duration": 3, "velocity": 117}, {"time": 959, "pitch": 74, "duration": 3, "velocity": 93}, {"time": 962, "pitch": 72, "duration": 3, "velocity": 92}, {"time": 965, "pitch": 71, "duration": 3, "velocity": 92}, {"time": 968, "pitch": 69, "duration": 15, "velocity": 96}, {"time": 1094, "pitch": 74, "duration": 2, "velocity": 112}, {"time": 1097, "pitch": 76, "duration": 1, "velocity": 90}, {"time": 1100, "pitch": 76, "duration": 3, "velocity": 96}, {"time": 1106, "pitch": 71, "duration": 4, "velocity": 97}, {"time": 1109, "pitch": 69, "duration": 2, "velocity": 86}, {"time": 1112, "pitch": 68, "duration": 19, "velocity": 95}, {"time": 1142, "pitch": 74, "duration": 2, "velocity": 107}, {"time": 1145, "pitch": 76, "duration": 1, "velocity": 83}, {"time": 1148, "pitch": 76, "duration": 2, "velocity": 99}, {"time": 1151, "pitch": 74, "duration": 2, "velocity": 95}, {"time": 1154, "pitch": 72, "duration": 3, "velocity": 83}, {"time": 1157, "pitch": 71, "duration": 3, "velocity": 88}, {"time": 1160, "pitch": 69, "duration": 15, "velocity": 93}, {"time": 1256, "pitch": 74, "duration": 8, "velocity": 127}, {"time": 1265, "pitch": 76, "duration": 1, "velocity": 100}, {"time": 1268, "pitch": 76, "duration": 4, "velocity": 117}, {"time": 1274, "pitch": 71, "duration": 2, "velocity": 122}, {"time": 1277, "pitch": 69, "duration": 2, "velocity": 93}, {"time": 1280, "pitch": 67, "duration": 18, "velocity": 100}, {"time": 1286, "pitch": 74, "duration": 2, "velocity": 95}, {"time": 1289, "pitch": 76, "duration": 1, "velocity": 92}, {"time": 1292, "pitch": 76, "duration": 4, "velocity": 112}, {"time": 1298, "pitch": 71, "duration": 2, "velocity": 99}, {"time": 1301, "pitch": 69, "duration": 3, "velocity": 81}, {"time": 1304, "pitch": 74, "duration": 7, "velocity": 112}, {"time": 1313, "pitch": 76, "duration": 1, "velocity": 96}, {"time": 1316, "pitch": 76, "duration": 3, "velocity": 102}, {"time": 1322, "pitch": 72, "duration": 3, "velocity": 100}, {"time": 1325, "pitch": 71, "duration": 3, "velocity": 100}, {"time": 1328, "pitch": 69, "duration": 15, "velocity": 102}, {"time": 1334, "pitch": 74, "duration": 2, "velocity": 100}, {"time": 1337, "pitch": 76, "duration": 3, "velocity": 85}, {"time": 1340, "pitch": 72, "duration": 5, "velocity": 95}, {"time": 1346, "pitch": 69, "duration": 3, "velocity": 86}, {"time": 1349, "pitch": 71, "duration": 3, "velocity": 88}, {"time": 1352, "pitch": 69, "duration": 13, "velocity": 122}, {"time": 1370, "pitch": 71, "duration": 4, "velocity": 122}, {"time": 1376, "pitch": 66, "duration": 5, "velocity": 127}, {"time": 1382, "pitch": 64, "duration": 5, "velocity": 102}, {"time": 1388, "pitch": 62, "duration": 5, "velocity": 99}, {"time": 1400, "pitch": 64, "duration": 8, "velocity": 100}, {"time": 1406, "pitch": 76, "duration": 4, "velocity": 100}, {"time": 1412, "pitch": 76, "duration": 5, "velocity": 122}, {"time": 1418, "pitch": 74, "duration": 5, "velocity": 100}, {"time": 1424, "pitch": 71, "duration": 13, "velocity": 96}, {"time": 1428, "pitch": 62, "duration": 2, "velocity": 96}, {"time": 1429, "pitch": 64, "duration": 2, "velocity": 74}, {"time": 1430, "pitch": 66, "duration": 1, "velocity": 107}, {"time": 1432, "pitch": 67, "duration": 1, "velocity": 89}, {"time": 1433, "pitch": 69, "duration": 3, "velocity": 93}, {"time": 1434, "pitch": 71, "duration": 3, "velocity": 86}, {"time": 1436, "pitch": 72, "duration": 1, "velocity": 96}, {"time": 1437, "pitch": 74, "duration": 2, "velocity": 102}, {"time": 1439, "pitch": 76, "duration": 1, "velocity": 85}, {"time": 1440, "pitch": 78, "duration": 1, "velocity": 95}, {"time": 1441, "pitch": 79, "duration": 2, "velocity": 86}, {"time": 1443, "pitch": 81, "duration": 2, "velocity": 85}, {"time": 1444, "pitch": 83, "duration": 1, "velocity": 127}, {"time": 1446, "pitch": 84, "duration": 1, "velocity": 97}, {"time": 1448, "pitch": 74, "duration": 7, "velocity": 122}, {"time": 1448, "pitch": 86, "duration": 7, "velocity": 112}, {"time": 1457, "pitch": 76, "duration": 1, "velocity": 96}, {"time": 1457, "pitch": 88, "duration": 1, "velocity": 117}, {"time": 1460, "pitch": 76, "duration": 3, "velocity": 112}, {"time": 1460, "pitch": 88, "duration": 3, "velocity": 117}, {"time": 1466, "pitch": 71, "duration": 3, "velocity": 102}, {"time": 1466, "pitch": 83, "duration": 2, "velocity": 112}, {"time": 1469, "pitch": 69, "duration": 3, "velocity": 93}, {"time": 1469, "pitch": 81, "duration": 2, "velocity": 88}, {"time": 1472, "pitch": 67, "duration": 14, "velocity": 96}, {"time": 1472, "pitch": 79, "duration": 22, "velocity": 107}, {"time": 1496, "pitch": 74, "duration": 8, "velocity": 122}, {"time": 1496, "pitch": 86, "duration": 8, "velocity": 107}, {"time": 1505, "pitch": 76, "duration": 2, "velocity": 99}, {"time": 1505, "pitch": 88, "duration": 1, "velocity": 117}, {"time": 1508, "pitch": 76, "duration": 4, "velocity": 127}, {"time": 1508, "pitch": 88, "duration": 4, "velocity": 107}, {"time": 1514, "pitch": 72, "duration": 2, "velocity": 102}, {"time": 1514, "pitch": 84, "duration": 2, "velocity": 107}, {"time": 1517, "pitch": 71, "duration": 3, "velocity": 90}, {"time": 1517, "pitch": 83, "duration": 2, "velocity": 89}, {"time": 1520, "pitch": 69, "duration": 17, "velocity": 100}, {"time": 1520, "pitch": 81, "duration": 21, "velocity": 99}, {"time": 1544, "pitch": 69, "duration": 14, "velocity": 127}, {"time": 1544, "pitch": 81, "duration": 18, "velocity": 107}, {"time": 1562, "pitch": 71, "duration": 4, "velocity": 117}, {"time": 1562, "pitch": 83, "duration": 4, "velocity": 100}, {"time": 1568, "pitch": 66, "duration": 5, "velocity": 112}, {"time": 1568, "pitch": 78, "duration": 4, "velocity": 112}, {"time": 1574, "pitch": 64, "duration": 5, "velocity": 99}, {"time": 1574, "pitch": 76, "duration": 3, "velocity": 99}, {"time": 1580, "pitch": 59, "duration": 5, "velocity": 89}, {"time": 1580, "pitch": 71, "duration": 6, "velocity": 96}, {"time": 1586, "pitch": 62, "duration": 6, "velocity": 86}, {"time": 1586, "pitch": 74, "duration": 5, "velocity": 97}, {"time": 1592, "pitch": 64, "duration": 9, "velocity": 92}, {"time": 1592, "pitch": 76, "duration": 7, "velocity": 100}, {"time": 1601, "pitch": 83, "duration": 2, "velocity": 97}, {"time": 1604, "pitch": 78, "duration": 3, "velocity": 95}, {"time": 1607, "pitch": 76, "duration": 2, "velocity": 85}, {"time": 1610, "pitch": 74, "duration": 3, "velocity": 88}, {"time": 1613, "pitch": 76, "duration": 4, "velocity": 88}, {"time": 1616, "pitch": 79, "duration": 43, "velocity": 112}, {"time": 1838, "pitch": 69, "duration": 3, "velocity": 83}, {"time": 1841, "pitch": 76, "duration": 2, "velocity": 96}, {"time": 1844, "pitch": 74, "duration": 3, "velocity": 82}, {"time": 1847, "pitch": 76, "duration": 3, "velocity": 96}, {"time": 1850, "pitch": 72, "duration": 2, "velocity": 97}, {"time": 1853, "pitch": 69, "duration": 3, "velocity": 79}, {"time": 1856, "pitch": 71, "duration": 20, "velocity": 97}, {"time": 1886, "pitch": 74, "duration": 2, "velocity": 102}, {"time": 1889, "pitch": 76, "duration": 1, "velocity": 92}, {"time": 1892, "pitch": 76, "duration": 2, "velocity": 97}, {"time": 1895, "pitch": 76, "duration": 3, "velocity": 95}, {"time": 1898, "pitch": 71, "duration": 2, "velocity": 85}, {"time": 1901, "pitch": 69, "duration": 2, "velocity": 82}, {"time": 1904, "pitch": 67, "duration": 18, "velocity": 83}, {"time": 1934, "pitch": 76, "duration": 5, "velocity": 102}, {"time": 1940, "pitch": 71, "duration": 6, "velocity": 76}, {"time": 1946, "pitch": 69, "duration": 3, "velocity": 90}, {"time": 1949, "pitch": 67, "duration": 3, "velocity": 69}, {"time": 1952, "pitch": 64, "duration": 17, "velocity": 88}, {"time": 2030, "pitch": 62, "duration": 4, "velocity": 86}, {"time": 2033, "pitch": 64, "duration": 3, "velocity": 70}, {"time": 2036, "pitch": 66, "duration": 5, "velocity": 102}, {"time": 2039, "pitch": 64, "duration": 3, "velocity": 86}, {"time": 2042, "pitch": 62, "duration": 6, "velocity": 95}, {"time": 2048, "pitch": 67, "duration": 12, "velocity": 97}, {"time": 2078, "pitch": 74, "duration": 2, "velocity": 99}, {"time": 2081, "pitch": 76, "duration": 2, "velocity": 92}, {"time": 2084, "pitch": 76, "duration": 4, "velocity": 93}, {"time": 2090, "pitch": 71, "duration": 3, "velocity": 88}, {"time": 2093, "pitch": 69, "duration": 3, "velocity": 89}, {"time": 2096, "pitch": 68, "duration": 20, "velocity": 90}, {"time": 2132, "pitch": 72, "duration": 3, "velocity": 117}, {"time": 2135, "pitch": 74, "duration": 3, "velocity": 93}, {"time": 2138, "pitch": 72, "duration": 3, "velocity": 92}, {"time": 2141, "pitch": 71, "duration": 3, "velocity": 92}, {"time": 2144, "pitch": 69, "duration": 15, "velocity": 96}, {"time": 2270, "pitch": 74, "duration": 2, "velocity": 112}, {"time": 2273, "pitch": 76, "duration": 1, "velocity": 90}, {"time": 2276, "pitch": 76, "duration": 3, "velocity": 96}, {"time": 2282, "pitch": 71, "duration": 4, "velocity": 97}, {"time": 2285, "pitch": 69, "duration": 2, "velocity": 86}, {"time": 2288, "pitch": 68, "duration": 19, "velocity": 95}, {"time": 2318, "pitch": 74, "duration": 2, "velocity": 107}, {"time": 2321, "pitch": 76, "duration": 1, "velocity": 83}, {"time": 2324, "pitch": 76, "duration": 2, "velocity": 99}, {"time": 2327, "pitch": 74, "duration": 2, "velocity": 95}, {"time": 2330, "pitch": 72, "duration": 3, "velocity": 83}, {"time": 2333, "pitch": 71, "duration": 3, "velocity": 88}, {"time": 2336, "pitch": 69, "duration": 15, "velocity": 93}, {"time": 2456, "pitch": 69, "duration": 20, "velocity": 90}, {"time": 2492, "pitch": 73, "duration": 3, "velocity": 117}, {"time": 2495, "pitch": 75, "duration": 3, "velocity": 93}, {"time": 2498, "pitch": 73, "duration": 3, "velocity": 92}, {"time": 2501, "pitch": 72, "duration": 3, "velocity": 92}, {"time": 2504, "pitch": 70, "duration": 15, "velocity": 96}, {"time": 2630, "pitch": 75, "duration": 2, "velocity": 112}, {"time": 2633, "pitch": 77, "duration": 1, "velocity": 90}, {"time": 2636, "pitch": 77, "duration": 3, "velocity": 96}, {"time": 2642, "pitch": 72, "duration": 4, "velocity": 97}, {"time": 2645, "pitch": 70, "duration": 2, "velocity": 86}, {"time": 2648, "pitch": 69, "duration": 19, "velocity": 95}, {"time": 2678, "pitch": 75, "duration": 2, "velocity": 107}, {"time": 2681, "pitch": 77, "duration": 1, "velocity": 83}, {"time": 2684, "pitch": 77, "duration": 2, "velocity": 99}, {"time": 2687, "pitch": 75, "duration": 2, "velocity": 95}, {"time": 2690, "pitch": 73, "duration": 3, "velocity": 83}, {"time": 2693, "pitch": 72, "duration": 3, "velocity": 88}, {"time": 2696, "pitch": 70, "duration": 15, "velocity": 93}]}, {"program": 0, "is_drum": false, "name": "PIANO", "notes": [{"time": 29, "pitch": 38, "duration": 23, "velocity": 90}, {"time": 29, "pitch": 62, "duration": 22, "velocity": 79}, {"time": 29, "pitch": 66, "duration": 23, "velocity": 92}, {"time": 29, "pitch": 69, "duration": 23, "velocity": 81}, {"time": 56, "pitch": 38, "duration": 17, "velocity": 70}, {"time": 56, "pitch": 50, "duration": 21, "velocity": 86}, {"time": 56, "pitch": 62, "duration": 22, "velocity": 92}, {"time": 56, "pitch": 66, "duration": 21, "velocity": 107}, {"time": 56, "pitch": 69, "duration": 20, "velocity": 92}, {"time": 80, "pitch": 43, "duration": 18, "velocity": 90}, {"time": 83, "pitch": 50, "duration": 10, "velocity": 59}, {"time": 86, "pitch": 55, "duration": 9, "velocity": 82}, {"time": 89, "pitch": 62, "duration": 7, "velocity": 90}, {"time": 92, "pitch": 71, "duration": 11, "velocity": 102}, {"time": 95, "pitch": 50, "duration": 3, "velocity": 77}, {"time": 98, "pitch": 62, "duration": 1, "velocity": 31}, {"time": 98, "pitch": 67, "duration": 5, "velocity": 93}, {"time": 101, "pitch": 62, "duration": 3, "velocity": 92}, {"time": 104, "pitch": 40, "duration": 21, "velocity": 83}, {"time": 107, "pitch": 47, "duration": 19, "velocity": 65}, {"time": 110, "pitch": 52, "duration": 6, "velocity": 86}, {"time": 113, "pitch": 59, "duration": 6, "velocity": 93}, {"time": 116, "pitch": 67, "duration": 10, "velocity": 100}, {"time": 119, "pitch": 52, "duration": 5, "velocity": 95}, {"time": 122, "pitch": 64, "duration": 4, "velocity": 85}, {"time": 125, "pitch": 59, "duration": 2, "velocity": 74}, {"time": 128, "pitch": 44, "duration": 17, "velocity": 100}, {"time": 131, "pitch": 52, "duration": 10, "velocity": 76}, {"time": 134, "pitch": 56, "duration": 7, "velocity": 90}, {"time": 137, "pitch": 59, "duration": 9, "velocity": 75}, {"time": 140, "pitch": 64, "duration": 6, "velocity": 72}, {"time": 143, "pitch": 52, "duration": 6, "velocity": 67}, {"time": 146, "pitch": 56, "duration": 4, "velocity": 93}, {"time": 149, "pitch": 59, "duration": 2, "velocity": 86}, {"time": 152, "pitch": 45, "duration": 17, "velocity": 85}, {"time": 155, "pitch": 52, "duration": 9, "velocity": 57}, {"time": 158, "pitch": 57, "duration": 4, "velocity": 92}, {"time": 161, "pitch": 60, "duration": 3, "velocity": 77}, {"time": 164, "pitch": 64, "duration": 11, "velocity": 97}, {"time": 167, "pitch": 52, "duration": 2, "velocity": 74}, {"time": 170, "pitch": 60, "duration": 4, "velocity": 93}, {"time": 173, "pitch": 57, "duration": 3, "velocity": 90}, {"time": 176, "pitch": 38, "duration": 21, "velocity": 78}, {"time": 179, "pitch": 45, "duration": 20, "velocity": 57}, {"time": 182, "pitch": 50, "duration": 7, "velocity": 74}, {"time": 185, "pitch": 57, "duration": 8, "velocity": 82}, {"time": 188, "pitch": 66, "duration": 12, "velocity": 112}, {"time": 191, "pitch": 50, "duration": 8, "velocity": 73}, {"time": 194, "pitch": 62, "duration": 6, "velocity": 86}, {"time": 197, "pitch": 57, "duration": 3, "velocity": 83}, {"time": 200, "pitch": 47, "duration": 18, "velocity": 83}, {"time": 203, "pitch": 54, "duration": 10, "velocity": 75}, {"time": 206, "pitch": 59, "duration": 8, "velocity": 82}, {"time": 209, "pitch": 62, "duration": 2, "velocity": 79}, {"time": 212, "pitch": 66, "duration": 12, "velocity": 117}, {"time": 215, "pitch": 54, "duration": 2, "velocity": 44}, {"time": 218, "pitch": 62, "duration": 6, "velocity": 93}, {"time": 224, "pitch": 40, "duration": 22, "velocity": 79}, {"time": 227, "pitch": 47, "duration": 20, "velocity": 41}, {"time": 230, "pitch": 52, "duration": 6, "velocity": 75}, {"time": 233, "pitch": 59, "duration": 9, "velocity": 77}, {"time": 236, "pitch": 67, "duration": 11, "velocity": 100}, {"time": 239, "pitch": 52, "duration": 8, "velocity": 72}, {"time": 242, "pitch": 64, "duration": 5, "velocity": 92}, {"time": 245, "pitch": 59, "duration": 2, "velocity": 82}, {"time": 248, "pitch": 43, "duration": 23, "velocity": 83}, {"time": 251, "pitch": 50, "duration": 10, "velocity": 76}, {"time": 254, "pitch": 55, "duration": 4, "velocity": 83}, {"time": 257, "pitch": 59, "duration": 3, "velocity": 71}, {"time": 260, "pitch": 62, "duration": 12, "velocity": 107}, {"time": 263, "pitch": 50, "duration": 8, "velocity": 50}, {"time": 266, "pitch": 59, "duration": 6, "velocity": 86}, {"time": 272, "pitch": 43, "duration": 18, "velocity": 83}, {"time": 275, "pitch": 50, "duration": 9, "velocity": 53}, {"time": 278, "pitch": 55, "duration": 3, "velocity": 88}, {"time": 281, "pitch": 62, "duration": 5, "velocity": 83}, {"time": 284, "pitch": 71, "duration": 11, "velocity": 117}, {"time": 287, "pitch": 50, "duration": 2, "velocity": 48}, {"time": 290, "pitch": 67, "duration": 5, "velocity": 93}, {"time": 293, "pitch": 62, "duration": 3, "velocity": 82}, {"time": 296, "pitch": 40, "duration": 20, "velocity": 77}, {"time": 299, "pitch": 47, "duration": 19, "velocity": 52}, {"time": 302, "pitch": 52, "duration": 6, "velocity": 72}, {"time": 305, "pitch": 59, "duration": 4, "velocity": 74}, {"time": 308, "pitch": 67, "duration": 11, "velocity": 99}, {"time": 311, "pitch": 52, "duration": 3, "velocity": 69}, {"time": 314, "pitch": 64, "duration": 5, "velocity": 85}, {"time": 317, "pitch": 59, "duration": 2, "velocity": 85}, {"time": 320, "pitch": 44, "duration": 17, "velocity": 85}, {"time": 323, "pitch": 52, "duration": 10, "velocity": 66}, {"time": 326, "pitch": 56, "duration": 9, "velocity": 93}, {"time": 329, "pitch": 59, "duration": 10, "velocity": 82}, {"time": 332, "pitch": 64, "duration": 6, "velocity": 45}, {"time": 335, "pitch": 52, "duration": 5, "velocity": 59}, {"time": 338, "pitch": 56, "duration": 4, "velocity": 89}, {"time": 341, "pitch": 59, "duration": 2, "velocity": 83}, {"time": 344, "pitch": 45, "duration": 19, "velocity": 86}, {"time": 347, "pitch": 52, "duration": 10, "velocity": 45}, {"time": 350, "pitch": 57, "duration": 4, "velocity": 72}, {"time": 353, "pitch": 60, "duration": 3, "velocity": 77}, {"time": 356, "pitch": 64, "duration": 12, "velocity": 95}, {"time": 359, "pitch": 52, "duration": 3, "velocity": 56}, {"time": 362, "pitch": 60, "duration": 5, "velocity": 102}, {"time": 365, "pitch": 57, "duration": 3, "velocity": 85}, {"time": 368, "pitch": 38, "duration": 18, "velocity": 78}, {"time": 371, "pitch": 45, "duration": 15, "velocity": 47}, {"time": 374, "pitch": 50, "duration": 7, "velocity": 76}, {"time": 377, "pitch": 57, "duration": 5, "velocity": 88}, {"time": 380, "pitch": 66, "duration": 12, "velocity": 127}, {"time": 383, "pitch": 50, "duration": 4, "velocity": 64}, {"time": 386, "pitch": 62, "duration": 5, "velocity": 99}, {"time": 389, "pitch": 57, "duration": 2, "velocity": 86}, {"time": 392, "pitch": 47, "duration": 21, "velocity": 88}, {"time": 395, "pitch": 54, "duration": 9, "velocity": 92}, {"time": 398, "pitch": 59, "duration": 7, "velocity": 74}, {"time": 401, "pitch": 62, "duration": 2, "velocity": 89}, {"time": 404, "pitch": 66, "duration": 12, "velocity": 127}, {"time": 407, "pitch": 54, "duration": 8, "velocity": 81}, {"time": 410, "pitch": 62, "duration": 5, "velocity": 88}, {"time": 413, "pitch": 59, "duration": 2, "velocity": 89}, {"time": 416, "pitch": 47, "duration": 17, "velocity": 88}, {"time": 419, "pitch": 54, "duration": 13, "velocity": 82}, {"time": 422, "pitch": 59, "duration": 17, "velocity": 69}, {"time": 425, "pitch": 62, "duration": 14, "velocity": 40}, {"time": 428, "pitch": 66, "duration": 12, "velocity": 83}, {"time": 440, "pitch": 43, "duration": 22, "velocity": 73}, {"time": 443, "pitch": 50, "duration": 10, "velocity": 57}, {"time": 446, "pitch": 55, "duration": 7, "velocity": 64}, {"time": 449, "pitch": 57, "duration": 4, "velocity": 50}, {"time": 452, "pitch": 62, "duration": 12, "velocity": 97}, {"time": 455, "pitch": 50, "duration": 8, "velocity": 61}, {"time": 458, "pitch": 57, "duration": 5, "velocity": 64}, {"time": 461, "pitch": 59, "duration": 3, "velocity": 67}, {"time": 464, "pitch": 43, "duration": 20, "velocity": 72}, {"time": 467, "pitch": 50, "duration": 21, "velocity": 40}, {"time": 470, "pitch": 55, "duration": 7, "velocity": 41}, {"time": 473, "pitch": 62, "duration": 15, "velocity": 76}, {"time": 476, "pitch": 71, "duration": 12, "velocity": 85}, {"time": 479, "pitch": 55, "duration": 2, "velocity": 61}, {"time": 482, "pitch": 69, "duration": 6, "velocity": 63}, {"time": 485, "pitch": 67, "duration": 3, "velocity": 52}, {"time": 488, "pitch": 43, "duration": 16, "velocity": 59}, {"time": 491, "pitch": 50, "duration": 14, "velocity": 41}, {"time": 494, "pitch": 55, "duration": 6, "velocity": 44}, {"time": 497, "pitch": 57, "duration": 10, "velocity": 43}, {"time": 500, "pitch": 62, "duration": 11, "velocity": 73}, {"time": 506, "pitch": 59, "duration": 5, "velocity": 58}, {"time": 512, "pitch": 47, "duration": 18, "velocity": 81}, {"time": 518, "pitch": 54, "duration": 8, "velocity": 60}, {"time": 524, "pitch": 66, "duration": 13, "velocity": 93}, {"time": 527, "pitch": 54, "duration": 2, "velocity": 36}, {"time": 530, "pitch": 62, "duration": 6, "velocity": 55}, {"time": 536, "pitch": 40, "duration": 20, "velocity": 77}, {"time": 542, "pitch": 47, "duration": 14, "velocity": 35}, {"time": 548, "pitch": 52, "duration": 10, "velocity": 67}, {"time": 548, "pitch": 67, "duration": 12, "velocity": 81}, {"time": 554, "pitch": 64, "duration": 5, "velocity": 66}, {"time": 560, "pitch": 40, "duration": 22, "velocity": 76}, {"time": 566, "pitch": 47, "duration": 19, "velocity": 50}, {"time": 572, "pitch": 52, "duration": 6, "velocity": 44}, {"time": 572, "pitch": 67, "duration": 22, "velocity": 89}, {"time": 578, "pitch": 64, "duration": 16, "velocity": 60}, {"time": 584, "pitch": 40, "duration": 22, "velocity": 66}, {"time": 590, "pitch": 47, "duration": 18, "velocity": 44}, {"time": 596, "pitch": 52, "duration": 12, "velocity": 51}, {"time": 596, "pitch": 67, "duration": 21, "velocity": 89}, {"time": 602, "pitch": 64, "duration": 15, "velocity": 85}, {"time": 608, "pitch": 40, "duration": 17, "velocity": 72}, {"time": 614, "pitch": 47, "duration": 11, "velocity": 48}, {"time": 620, "pitch": 52, "duration": 7, "velocity": 56}, {"time": 620, "pitch": 67, "duration": 13, "velocity": 93}, {"time": 626, "pitch": 64, "duration": 7, "velocity": 72}, {"time": 632, "pitch": 45, "duration": 16, "velocity": 77}, {"time": 638, "pitch": 52, "duration": 9, "velocity": 50}, {"time": 644, "pitch": 64, "duration": 13, "velocity": 96}, {"time": 650, "pitch": 60, "duration": 6, "velocity": 56}, {"time": 656, "pitch": 38, "duration": 15, "velocity": 66}, {"time": 662, "pitch": 45, "duration": 10, "velocity": 52}, {"time": 668, "pitch": 50, "duration": 3, "velocity": 78}, {"time": 668, "pitch": 66, "duration": 12, "velocity": 122}, {"time": 671, "pitch": 62, "duration": 9, "velocity": 79}, {"time": 674, "pitch": 57, "duration": 6, "velocity": 96}, {"time": 680, "pitch": 43, "duration": 16, "velocity": 78}, {"time": 686, "pitch": 50, "duration": 11, "velocity": 48}, {"time": 692, "pitch": 55, "duration": 6, "velocity": 71}, {"time": 692, "pitch": 62, "duration": 11, "velocity": 117}, {"time": 698, "pitch": 59, "duration": 6, "velocity": 90}, {"time": 704, "pitch": 47, "duration": 17, "velocity": 81}, {"time": 710, "pitch": 54, "duration": 8, "velocity": 67}, {"time": 716, "pitch": 66, "duration": 12, "velocity": 112}, {"time": 719, "pitch": 62, "duration": 9, "velocity": 85}, {"time": 722, "pitch": 59, "duration": 6, "velocity": 89}, {"time": 728, "pitch": 40, "duration": 21, "velocity": 86}, {"time": 734, "pitch": 47, "duration": 18, "velocity": 63}, {"time": 740, "pitch": 52, "duration": 6, "velocity": 73}, {"time": 740, "pitch": 67, "duration": 13, "velocity": 86}, {"time": 743, "pitch": 59, "duration": 10, "velocity": 60}, {"time": 746, "pitch": 62, "duration": 7, "velocity": 76}, {"time": 752, "pitch": 40, "duration": 22, "velocity": 82}, {"time": 758, "pitch": 47, "duration": 18, "velocity": 52}, {"time": 761, "pitch": 59, "duration": 21, "velocity": 53}, {"time": 764, "pitch": 52, "duration": 6, "velocity": 59}, {"time": 764, "pitch": 67, "duration": 18, "velocity": 79}, {"time": 776, "pitch": 40, "duration": 21, "velocity": 73}, {"time": 785, "pitch": 47, "duration": 16, "velocity": 35}, {"time": 788, "pitch": 52, "duration": 6, "velocity": 77}, {"time": 788, "pitch": 67, "duration": 22, "velocity": 95}, {"time": 794, "pitch": 64, "duration": 13, "velocity": 75}, {"time": 797, "pitch": 59, "duration": 16, "velocity": 43}, {"time": 800, "pitch": 40, "duration": 19, "velocity": 71}, {"time": 806, "pitch": 47, "duration": 13, "velocity": 54}, {"time": 812, "pitch": 52, "duration": 2, "velocity": 73}, {"time": 812, "pitch": 67, "duration": 12, "velocity": 100}, {"time": 815, "pitch": 64, "duration": 4, "velocity": 79}, {"time": 818, "pitch": 59, "duration": 7, "velocity": 92}, {"time": 821, "pitch": 64, "duration": 3, "velocity": 82}, {"time": 824, "pitch": 38, "duration": 17, "velocity": 76}, {"time": 830, "pitch": 45, "duration": 12, "velocity": 41}, {"time": 836, "pitch": 50, "duration": 7, "velocity": 74}, {"time": 836, "pitch": 57, "duration": 1, "velocity": 32}, {"time": 836, "pitch": 66, "duration": 12, "velocity": 102}, {"time": 839, "pitch": 62, "duration": 9, "velocity": 60}, {"time": 842, "pitch": 57, "duration": 6, "velocity": 74}, {"time": 848, "pitch": 43, "duration": 22, "velocity": 81}, {"time": 851, "pitch": 50, "duration": 10, "velocity": 37}, {"time": 854, "pitch": 55, "duration": 4, "velocity": 86}, {"time": 857, "pitch": 57, "duration": 4, "velocity": 72}, {"time": 860, "pitch": 62, "duration": 12, "velocity": 127}, {"time": 863, "pitch": 50, "duration": 8, "velocity": 100}, {"time": 866, "pitch": 59, "duration": 5, "velocity": 117}, {"time": 869, "pitch": 57, "duration": 2, "velocity": 102}, {"time": 872, "pitch": 43, "duration": 19, "velocity": 102}, {"time": 875, "pitch": 50, "duration": 10, "velocity": 89}, {"time": 878, "pitch": 55, "duration": 5, "velocity": 99}, {"time": 881, "pitch": 62, "duration": 6, "velocity": 97}, {"time": 884, "pitch": 71, "duration": 12, "velocity": 112}, {"time": 887, "pitch": 50, "duration": 4, "velocity": 102}, {"time": 890, "pitch": 67, "duration": 6, "velocity": 96}, {"time": 893, "pitch": 66, "duration": 3, "velocity": 97}, {"time": 896, "pitch": 40, "duration": 22, "velocity": 93}, {"time": 899, "pitch": 47, "duration": 19, "velocity": 72}, {"time": 902, "pitch": 52, "duration": 7, "velocity": 93}, {"time": 905, "pitch": 55, "duration": 7, "velocity": 83}, {"time": 908, "pitch": 64, "duration": 11, "velocity": 99}, {"time": 911, "pitch": 52, "duration": 3, "velocity": 95}, {"time": 914, "pitch": 59, "duration": 5, "velocity": 100}, {"time": 917, "pitch": 55, "duration": 3, "velocity": 97}, {"time": 920, "pitch": 44, "duration": 18, "velocity": 92}, {"time": 923, "pitch": 52, "duration": 10, "velocity": 75}, {"time": 926, "pitch": 56, "duration": 14, "velocity": 100}, {"time": 929, "pitch": 59, "duration": 15, "velocity": 82}, {"time": 932, "pitch": 64, "duration": 3, "velocity": 72}, {"time": 935, "pitch": 52, "duration": 8, "velocity": 76}, {"time": 938, "pitch": 62, "duration": 6, "velocity": 62}, {"time": 941, "pitch": 56, "duration": 2, "velocity": 76}, {"time": 944, "pitch": 45, "duration": 18, "velocity": 82}, {"time": 947, "pitch": 52, "duration": 9, "velocity": 75}, {"time": 950, "pitch": 57, "duration": 3, "velocity": 82}, {"time": 953, "pitch": 59, "duration": 3, "velocity": 75}, {"time": 956, "pitch": 64, "duration": 12, "velocity": 100}, {"time": 959, "pitch": 52, "duration": 3, "velocity": 89}, {"time": 962, "pitch": 60, "duration": 6, "velocity": 100}, {"time": 965, "pitch": 57, "duration": 3, "velocity": 93}, {"time": 968, "pitch": 38, "duration": 17, "velocity": 90}, {"time": 971, "pitch": 45, "duration": 15, "velocity": 55}, {"time": 974, "pitch": 50, "duration": 6, "velocity": 81}, {"time": 977, "pitch": 57, "duration": 6, "velocity": 82}, {"time": 980, "pitch": 66, "duration": 11, "velocity": 117}, {"time": 983, "pitch": 50, "duration": 4, "velocity": 73}, {"time": 986, "pitch": 62, "duration": 5, "velocity": 99}, {"time": 989, "pitch": 57, "duration": 2, "velocity": 95}, {"time": 992, "pitch": 43, "duration": 18, "velocity": 93}, {"time": 995, "pitch": 50, "duration": 10, "velocity": 72}, {"time": 998, "pitch": 55, "duration": 4, "velocity": 77}, {"time": 1001, "pitch": 57, "duration": 3, "velocity": 89}, {"time": 1004, "pitch": 62, "duration": 12, "velocity": 107}, {"time": 1007, "pitch": 50, "duration": 3, "velocity": 92}, {"time": 1010, "pitch": 59, "duration": 5, "velocity": 99}, {"time": 1013, "pitch": 55, "duration": 3, "velocity": 90}, {"time": 1016, "pitch": 38, "duration": 21, "velocity": 96}, {"time": 1019, "pitch": 45, "duration": 20, "velocity": 74}, {"time": 1022, "pitch": 50, "duration": 6, "velocity": 86}, {"time": 1025, "pitch": 57, "duration": 5, "velocity": 89}, {"time": 1028, "pitch": 66, "duration": 13, "velocity": 122}, {"time": 1031, "pitch": 50, "duration": 3, "velocity": 88}, {"time": 1034, "pitch": 64, "duration": 4, "velocity": 89}, {"time": 1037, "pitch": 62, "duration": 3, "velocity": 92}, {"time": 1040, "pitch": 38, "duration": 17, "velocity": 74}, {"time": 1043, "pitch": 45, "duration": 15, "velocity": 77}, {"time": 1046, "pitch": 50, "duration": 7, "velocity": 83}, {"time": 1049, "pitch": 57, "duration": 6, "velocity": 90}, {"time": 1052, "pitch": 66, "duration": 11, "velocity": 127}, {"time": 1055, "pitch": 50, "duration": 4, "velocity": 86}, {"time": 1058, "pitch": 62, "duration": 5, "velocity": 99}, {"time": 1061, "pitch": 57, "duration": 2, "velocity": 93}, {"time": 1064, "pitch": 43, "duration": 17, "velocity": 86}, {"time": 1067, "pitch": 50, "duration": 10, "velocity": 88}, {"time": 1070, "pitch": 55, "duration": 4, "velocity": 89}, {"time": 1073, "pitch": 57, "duration": 4, "velocity": 83}, {"time": 1076, "pitch": 62, "duration": 11, "velocity": 112}, {"time": 1079, "pitch": 50, "duration": 2, "velocity": 58}, {"time": 1082, "pitch": 59, "duration": 5, "velocity": 89}, {"time": 1085, "pitch": 55, "duration": 2, "velocity": 83}, {"time": 1088, "pitch": 36, "duration": 16, "velocity": 85}, {"time": 1091, "pitch": 43, "duration": 14, "velocity": 51}, {"time": 1094, "pitch": 48, "duration": 6, "velocity": 85}, {"time": 1097, "pitch": 55, "duration": 4, "velocity": 78}, {"time": 1100, "pitch": 64, "duration": 11, "velocity": 107}, {"time": 1103, "pitch": 48, "duration": 3, "velocity": 97}, {"time": 1106, "pitch": 60, "duration": 5, "velocity": 88}, {"time": 1109, "pitch": 55, "duration": 3, "velocity": 96}, {"time": 1112, "pitch": 40, "duration": 3, "velocity": 83}, {"time": 1115, "pitch": 44, "duration": 9, "velocity": 89}, {"time": 1118, "pitch": 52, "duration": 8, "velocity": 76}, {"time": 1121, "pitch": 56, "duration": 7, "velocity": 95}, {"time": 1124, "pitch": 47, "duration": 6, "velocity": 63}, {"time": 1124, "pitch": 59, "duration": 11, "velocity": 89}, {"time": 1127, "pitch": 62, "duration": 9, "velocity": 66}, {"time": 1130, "pitch": 52, "duration": 5, "velocity": 78}, {"time": 1133, "pitch": 56, "duration": 2, "velocity": 89}, {"time": 1136, "pitch": 45, "duration": 18, "velocity": 88}, {"time": 1139, "pitch": 52, "duration": 10, "velocity": 67}, {"time": 1142, "pitch": 57, "duration": 3, "velocity": 93}, {"time": 1145, "pitch": 59, "duration": 4, "velocity": 81}, {"time": 1148, "pitch": 64, "duration": 11, "velocity": 102}, {"time": 1151, "pitch": 52, "duration": 3, "velocity": 63}, {"time": 1154, "pitch": 60, "duration": 5, "velocity": 79}, {"time": 1157, "pitch": 57, "duration": 3, "velocity": 92}, {"time": 1160, "pitch": 38, "duration": 22, "velocity": 79}, {"time": 1163, "pitch": 45, "duration": 21, "velocity": 60}, {"time": 1166, "pitch": 50, "duration": 7, "velocity": 86}, {"time": 1169, "pitch": 57, "duration": 7, "velocity": 86}, {"time": 1172, "pitch": 66, "duration": 13, "velocity": 102}, {"time": 1175, "pitch": 50, "duration": 4, "velocity": 93}, {"time": 1178, "pitch": 57, "duration": 6, "velocity": 89}, {"time": 1181, "pitch": 64, "duration": 3, "velocity": 72}, {"time": 1184, "pitch": 38, "duration": 22, "velocity": 76}, {"time": 1187, "pitch": 45, "duration": 21, "velocity": 55}, {"time": 1190, "pitch": 50, "duration": 6, "velocity": 67}, {"time": 1193, "pitch": 57, "duration": 5, "velocity": 82}, {"time": 1196, "pitch": 66, "duration": 12, "velocity": 127}, {"time": 1199, "pitch": 50, "duration": 3, "velocity": 82}, {"time": 1202, "pitch": 57, "duration": 6, "velocity": 78}, {"time": 1205, "pitch": 64, "duration": 3, "velocity": 82}, {"time": 1208, "pitch": 38, "duration": 17, "velocity": 74}, {"time": 1211, "pitch": 45, "duration": 15, "velocity": 65}, {"time": 1214, "pitch": 50, "duration": 6, "velocity": 76}, {"time": 1217, "pitch": 57, "duration": 5, "velocity": 85}, {"time": 1220, "pitch": 66, "duration": 11, "velocity": 122}, {"time": 1223, "pitch": 50, "duration": 4, "velocity": 82}, {"time": 1226, "pitch": 62, "duration": 5, "velocity": 92}, {"time": 1229, "pitch": 57, "duration": 2, "velocity": 92}, {"time": 1232, "pitch": 43, "duration": 24, "velocity": 86}, {"time": 1235, "pitch": 50, "duration": 10, "velocity": 78}, {"time": 1238, "pitch": 55, "duration": 4, "velocity": 89}, {"time": 1241, "pitch": 57, "duration": 3, "velocity": 85}, {"time": 1244, "pitch": 62, "duration": 12, "velocity": 107}, {"time": 1247, "pitch": 50, "duration": 9, "velocity": 88}, {"time": 1250, "pitch": 57, "duration": 3, "velocity": 97}, {"time": 1253, "pitch": 59, "duration": 3, "velocity": 97}, {"time": 1256, "pitch": 43, "duration": 1, "velocity": 90}, {"time": 1259, "pitch": 50, "duration": 10, "velocity": 59}, {"time": 1262, "pitch": 55, "duration": 9, "velocity": 82}, {"time": 1265, "pitch": 62, "duration": 7, "velocity": 90}, {"time": 1268, "pitch": 71, "duration": 11, "velocity": 102}, {"time": 1271, "pitch": 50, "duration": 3, "velocity": 77}, {"time": 1274, "pitch": 62, "duration": 1, "velocity": 31}, {"time": 1274, "pitch": 67, "duration": 5, "velocity": 93}, {"time": 1277, "pitch": 62, "duration": 3, "velocity": 92}, {"time": 1280, "pitch": 40, "duration": 21, "velocity": 83}, {"time": 1283, "pitch": 47, "duration": 19, "velocity": 65}, {"time": 1286, "pitch": 52, "duration": 6, "velocity": 86}, {"time": 1289, "pitch": 59, "duration": 6, "velocity": 93}, {"time": 1292, "pitch": 67, "duration": 10, "velocity": 100}, {"time": 1295, "pitch": 52, "duration": 5, "velocity": 95}, {"time": 1298, "pitch": 64, "duration": 4, "velocity": 85}, {"time": 1301, "pitch": 59, "duration": 2, "velocity": 74}, {"time": 1304, "pitch": 44, "duration": 17, "velocity": 100}, {"time": 1307, "pitch": 52, "duration": 10, "velocity": 76}, {"time": 1310, "pitch": 56, "duration": 7, "velocity": 90}, {"time": 1313, "pitch": 59, "duration": 9, "velocity": 75}, {"time": 1316, "pitch": 64, "duration": 6, "velocity": 72}, {"time": 1319, "pitch": 52, "duration": 6, "velocity": 67}, {"time": 1322, "pitch": 56, "duration": 4, "velocity": 93}, {"time": 1325, "pitch": 59, "duration": 2, "velocity": 86}, {"time": 1328, "pitch": 45, "duration": 17, "velocity": 85}, {"time": 1331, "pitch": 52, "duration": 9, "velocity": 57}, {"time": 1334, "pitch": 57, "duration": 4, "velocity": 92}, {"time": 1337, "pitch": 60, "duration": 3, "velocity": 77}, {"time": 1340, "pitch": 64, "duration": 11, "velocity": 97}, {"time": 1343, "pitch": 52, "duration": 2, "velocity": 74}, {"time": 1346, "pitch": 60, "duration": 4, "velocity": 93}, {"time": 1349, "pitch": 57, "duration": 3, "velocity": 90}, {"time": 1352, "pitch": 38, "duration": 21, "velocity": 78}, {"time": 1355, "pitch": 45, "duration": 20, "velocity": 57}, {"time": 1358, "pitch": 50, "duration": 7, "velocity": 74}, {"time": 1361, "pitch": 57, "duration": 8, "velocity": 82}, {"time": 1364, "pitch": 66, "duration": 12, "velocity": 112}, {"time": 1367, "pitch": 50, "duration": 8, "velocity": 73}, {"time": 1370, "pitch": 62, "duration": 6, "velocity": 86}, {"time": 1373, "pitch": 57, "duration": 3, "velocity": 83}, {"time": 1376, "pitch": 47, "duration": 18, "velocity": 83}, {"time": 1379, "pitch": 54, "duration": 10, "velocity": 75}, {"time": 1382, "pitch": 59, "duration": 8, "velocity": 82}, {"time": 1385, "pitch": 62, "duration": 2, "velocity": 79}, {"time": 1388, "pitch": 66, "duration": 12, "velocity": 117}, {"time": 1391, "pitch": 54, "duration": 2, "velocity": 44}, {"time": 1394, "pitch": 62, "duration": 6, "velocity": 93}, {"time": 1400, "pitch": 40, "duration": 22, "velocity": 79}, {"time": 1403, "pitch": 47, "duration": 20, "velocity": 41}, {"time": 1406, "pitch": 52, "duration": 6, "velocity": 75}, {"time": 1409, "pitch": 59, "duration": 9, "velocity": 77}, {"time": 1412, "pitch": 67, "duration": 11, "velocity": 100}, {"time": 1415, "pitch": 52, "duration": 8, "velocity": 72}, {"time": 1418, "pitch": 64, "duration": 5, "velocity": 92}, {"time": 1421, "pitch": 59, "duration": 2, "velocity": 82}, {"time": 1424, "pitch": 43, "duration": 23, "velocity": 83}, {"time": 1427, "pitch": 50, "duration": 10, "velocity": 76}, {"time": 1430, "pitch": 55, "duration": 4, "velocity": 83}, {"time": 1433, "pitch": 59, "duration": 3, "velocity": 71}, {"time": 1436, "pitch": 62, "duration": 12, "velocity": 107}, {"time": 1439, "pitch": 50, "duration": 8, "velocity": 50}, {"time": 1442, "pitch": 59, "duration": 6, "velocity": 86}, {"time": 1448, "pitch": 43, "duration": 18, "velocity": 83}, {"time": 1451, "pitch": 50, "duration": 9, "velocity": 53}, {"time": 1454, "pitch": 55, "duration": 3, "velocity": 88}, {"time": 1457, "pitch": 62, "duration": 5, "velocity": 83}, {"time": 1460, "pitch": 71, "duration": 11, "velocity": 117}, {"time": 1463, "pitch": 50, "duration": 2, "velocity": 48}, {"time": 1466, "pitch": 67, "duration": 5, "velocity": 93}, {"time": 1469, "pitch": 62, "duration": 3, "velocity": 82}, {"time": 1472, "pitch": 40, "duration": 20, "velocity": 77}, {"time": 1475, "pitch": 47, "duration": 19, "velocity": 52}, {"time": 1478, "pitch": 52, "duration": 6, "velocity": 72}, {"time": 1481, "pitch": 59, "duration": 4, "velocity": 74}, {"time": 1484, "pitch": 67, "duration": 11, "velocity": 99}, {"time": 1487, "pitch": 52, "duration": 3, "velocity": 69}, {"time": 1490, "pitch": 64, "duration": 5, "velocity": 85}, {"time": 1493, "pitch": 59, "duration": 2, "velocity": 85}, {"time": 1496, "pitch": 44, "duration": 17, "velocity": 85}, {"time": 1499, "pitch": 52, "duration": 10, "velocity": 66}, {"time": 1502, "pitch": 56, "duration": 9, "velocity": 93}, {"time": 1505, "pitch": 59, "duration": 10, "velocity": 82}, {"time": 1508, "pitch": 64, "duration": 6, "velocity": 45}, {"time": 1511, "pitch": 52, "duration": 5, "velocity": 59}, {"time": 1514, "pitch": 56, "duration": 4, "velocity": 89}, {"time": 1517, "pitch": 59, "duration": 2, "velocity": 83}, {"time": 1520, "pitch": 45, "duration": 19, "velocity": 86}, {"time": 1523, "pitch": 52, "duration": 10, "velocity": 45}, {"time": 1526, "pitch": 57, "duration": 4, "velocity": 72}, {"time": 1529, "pitch": 60, "duration": 3, "velocity": 77}, {"time": 1532, "pitch": 64, "duration": 12, "velocity": 95}, {"time": 1535, "pitch": 52, "duration": 3, "velocity": 56}, {"time": 1538, "pitch": 60, "duration": 5, "velocity": 102}, {"time": 1541, "pitch": 57, "duration": 3, "velocity": 85}, {"time": 1544, "pitch": 38, "duration": 18, "velocity": 78}, {"time": 1547, "pitch": 45, "duration": 15, "velocity": 47}, {"time": 1550, "pitch": 50, "duration": 7, "velocity": 76}, {"time": 1553, "pitch": 57, "duration": 5, "velocity": 88}, {"time": 1556, "pitch": 66, "duration": 12, "velocity": 127}, {"time": 1559, "pitch": 50, "duration": 4, "velocity": 64}, {"time": 1562, "pitch": 62, "duration": 5, "velocity": 99}, {"time": 1565, "pitch": 57, "duration": 2, "velocity": 86}, {"time": 1568, "pitch": 47, "duration": 21, "velocity": 88}, {"time": 1571, "pitch": 54, "duration": 9, "velocity": 92}, {"time": 1574, "pitch": 59, "duration": 7, "velocity": 74}, {"time": 1577, "pitch": 62, "duration": 2, "velocity": 89}, {"time": 1580, "pitch": 66, "duration": 12, "velocity": 127}, {"time": 1583, "pitch": 54, "duration": 8, "velocity": 81}, {"time": 1586, "pitch": 62, "duration": 5, "velocity": 88}, {"time": 1589, "pitch": 59, "duration": 2, "velocity": 89}, {"time": 1592, "pitch": 47, "duration": 17, "velocity": 88}, {"time": 1595, "pitch": 54, "duration": 13, "velocity": 82}, {"time": 1598, "pitch": 59, "duration": 17, "velocity": 69}, {"time": 1601, "pitch": 62, "duration": 14, "velocity": 40}, {"time": 1604, "pitch": 66, "duration": 12, "velocity": 83}, {"time": 1616, "pitch": 43, "duration": 22, "velocity": 73}, {"time": 1619, "pitch": 50, "duration": 10, "velocity": 57}, {"time": 1622, "pitch": 55, "duration": 7, "velocity": 64}, {"time": 1625, "pitch": 57, "duration": 4, "velocity": 50}, {"time": 1628, "pitch": 62, "duration": 12, "velocity": 97}, {"time": 1631, "pitch": 50, "duration": 8, "velocity": 61}, {"time": 1634, "pitch": 57, "duration": 5, "velocity": 64}, {"time": 1637, "pitch": 59, "duration": 3, "velocity": 67}, {"time": 1640, "pitch": 43, "duration": 20, "velocity": 72}, {"time": 1643, "pitch": 50, "duration": 21, "velocity": 40}, {"time": 1646, "pitch": 55, "duration": 7, "velocity": 41}, {"time": 1649, "pitch": 62, "duration": 15, "velocity": 76}, {"time": 1652, "pitch": 71, "duration": 12, "velocity": 85}, {"time": 1655, "pitch": 55, "duration": 2, "velocity": 61}, {"time": 1658, "pitch": 69, "duration": 6, "velocity": 63}, {"time": 1661, "pitch": 67, "duration": 3, "velocity": 52}, {"time": 1664, "pitch": 43, "duration": 16, "velocity": 59}, {"time": 1667, "pitch": 50, "duration": 14, "velocity": 41}, {"time": 1670, "pitch": 55, "duration": 6, "velocity": 44}, {"time": 1673, "pitch": 57, "duration": 10, "velocity": 43}, {"time": 1676, "pitch": 62, "duration": 11, "velocity": 73}, {"time": 1682, "pitch": 59, "duration": 5, "velocity": 58}, {"time": 1688, "pitch": 47, "duration": 18, "velocity": 81}, {"time": 1694, "pitch": 54, "duration": 8, "velocity": 60}, {"time": 1700, "pitch": 66, "duration": 13, "velocity": 93}, {"time": 1703, "pitch": 54, "duration": 2, "velocity": 36}, {"time": 1706, "pitch": 62, "duration": 6, "velocity": 55}, {"time": 1712, "pitch": 40, "duration": 20, "velocity": 77}, {"time": 1718, "pitch": 47, "duration": 14, "velocity": 35}, {"time": 1724, "pitch": 52, "duration": 10, "velocity": 67}, {"time": 1724, "pitch": 67, "duration": 12, "velocity": 81}, {"time": 1730, "pitch": 64, "duration": 5, "velocity": 66}, {"time": 1736, "pitch": 40, "duration": 22, "velocity": 76}, {"time": 1742, "pitch": 47, "duration": 19, "velocity": 50}, {"time": 1748, "pitch": 52, "duration": 6, "velocity": 44}, {"time": 1748, "pitch": 67, "duration": 22, "velocity": 89}, {"time": 1754, "pitch": 64, "duration": 16, "velocity": 60}, {"time": 1760, "pitch": 40, "duration": 22, "velocity": 66}, {"time": 1766, "pitch": 47, "duration": 18, "velocity": 44}, {"time": 1772, "pitch": 52, "duration": 12, "velocity": 51}, {"time": 1772, "pitch": 67, "duration": 21, "velocity": 89}, {"time": 1778, "pitch": 64, "duration": 15, "velocity": 85}, {"time": 1784, "pitch": 40, "duration": 17, "velocity": 72}, {"time": 1790, "pitch": 47, "duration": 11, "velocity": 48}, {"time": 1796, "pitch": 52, "duration": 7, "velocity": 56}, {"time": 1796, "pitch": 67, "duration": 13, "velocity": 93}, {"time": 1802, "pitch": 64, "duration": 7, "velocity": 72}, {"time": 1808, "pitch": 45, "duration": 16, "velocity": 77}, {"time": 1814, "pitch": 52, "duration": 9, "velocity": 50}, {"time": 1820, "pitch": 64, "duration": 13, "velocity": 96}, {"time": 1826, "pitch": 60, "duration": 6, "velocity": 56}, {"time": 1832, "pitch": 38, "duration": 15, "velocity": 66}, {"time": 1838, "pitch": 45, "duration": 10, "velocity": 52}, {"time": 1844, "pitch": 50, "duration": 3, "velocity": 78}, {"time": 1844, "pitch": 66, "duration": 12, "velocity": 122}, {"time": 1847, "pitch": 62, "duration": 9, "velocity": 79}, {"time": 1850, "pitch": 57, "duration": 6, "velocity": 96}, {"time": 1856, "pitch": 43, "duration": 16, "velocity": 78}, {"time": 1862, "pitch": 50, "duration": 11, "velocity": 48}, {"time": 1868, "pitch": 55, "duration": 6, "velocity": 71}, {"time": 1868, "pitch": 62, "duration": 11, "velocity": 117}, {"time": 1874, "pitch": 59, "duration": 6, "velocity": 90}, {"time": 1880, "pitch": 47, "duration": 17, "velocity": 81}, {"time": 1886, "pitch": 54, "duration": 8, "velocity": 67}, {"time": 1892, "pitch": 66, "duration": 12, "velocity": 112}, {"time": 1895, "pitch": 62, "duration": 9, "velocity": 85}, {"time": 1898, "pitch": 59, "duration": 6, "velocity": 89}, {"time": 1904, "pitch": 40, "duration": 21, "velocity": 86}, {"time": 1910, "pitch": 47, "duration": 18, "velocity": 63}, {"time": 1916, "pitch": 52, "duration": 6, "velocity": 73}, {"time": 1916, "pitch": 67, "duration": 13, "velocity": 86}, {"time": 1919, "pitch": 59, "duration": 10, "velocity": 60}, {"time": 1922, "pitch": 62, "duration": 7, "velocity": 76}, {"time": 1928, "pitch": 40, "duration": 22, "velocity": 82}, {"time": 1934, "pitch": 47, "duration": 18, "velocity": 52}, {"time": 1937, "pitch": 59, "duration": 21, "velocity": 53}, {"time": 1940, "pitch": 52, "duration": 6, "velocity": 59}, {"time": 1940, "pitch": 67, "duration": 18, "velocity": 79}, {"time": 1952, "pitch": 40, "duration": 21, "velocity": 73}, {"time": 1961, "pitch": 47, "duration": 16, "velocity": 35}, {"time": 1964, "pitch": 52, "duration": 6, "velocity": 77}, {"time": 1964, "pitch": 67, "duration": 22, "velocity": 95}, {"time": 1970, "pitch": 64, "duration": 13, "velocity": 75}, {"time": 1973, "pitch": 59, "duration": 16, "velocity": 43}, {"time": 1976, "pitch": 40, "duration": 19, "velocity": 71}, {"time": 1982, "pitch": 47, "duration": 13, "velocity": 54}, {"time": 1988, "pitch": 52, "duration": 2, "velocity": 73}, {"time": 1988, "pitch": 67, "duration": 12, "velocity": 100}, {"time": 1991, "pitch": 64, "duration": 4, "velocity": 79}, {"time": 1994, "pitch": 59, "duration": 7, "velocity": 92}, {"time": 1997, "pitch": 64, "duration": 3, "velocity": 82}, {"time": 2000, "pitch": 38, "duration": 17, "velocity": 76}, {"time": 2006, "pitch": 45, "duration": 12, "velocity": 41}, {"time": 2012, "pitch": 50, "duration": 7, "velocity": 74}, {"time": 2012, "pitch": 57, "duration": 1, "velocity": 32}, {"time": 2012, "pitch": 66, "duration": 12, "velocity": 102}, {"time": 2015, "pitch": 62, "duration": 9, "velocity": 60}, {"time": 2018, "pitch": 57, "duration": 6, "velocity": 74}, {"time": 2024, "pitch": 43, "duration": 22, "velocity": 81}, {"time": 2027, "pitch": 50, "duration": 10, "velocity": 37}, {"time": 2030, "pitch": 55, "duration": 4, "velocity": 86}, {"time": 2033, "pitch": 57, "duration": 4, "velocity": 72}, {"time": 2036, "pitch": 62, "duration": 12, "velocity": 127}, {"time": 2039, "pitch": 50, "duration": 8, "velocity": 100}, {"time": 2042, "pitch": 59, "duration": 5, "velocity": 117}, {"time": 2045, "pitch": 57, "duration": 2, "velocity": 102}, {"time": 2048, "pitch": 43, "duration": 19, "velocity": 102}, {"time": 2051, "pitch": 50, "duration": 10, "velocity": 89}, {"time": 2054, "pitch": 55, "duration": 5, "velocity": 99}, {"time": 2057, "pitch": 62, "duration": 6, "velocity": 97}, {"time": 2060, "pitch": 71, "duration": 12, "velocity": 112}, {"time": 2063, "pitch": 50, "duration": 4, "velocity": 102}, {"time": 2066, "pitch": 67, "duration": 6, "velocity": 96}, {"time": 2069, "pitch": 66, "duration": 3, "velocity": 97}, {"time": 2072, "pitch": 40, "duration": 22, "velocity": 93}, {"time": 2075, "pitch": 47, "duration": 19, "velocity": 72}, {"time": 2078, "pitch": 52, "duration": 7, "velocity": 93}, {"time": 2081, "pitch": 55, "duration": 7, "velocity": 83}, {"time": 2084, "pitch": 64, "duration": 11, "velocity": 99}, {"time": 2087, "pitch": 52, "duration": 3, "velocity": 95}, {"time": 2090, "pitch": 59, "duration": 5, "velocity": 100}, {"time": 2093, "pitch": 55, "duration": 3, "velocity": 97}, {"time": 2096, "pitch": 44, "duration": 18, "velocity": 92}, {"time": 2099, "pitch": 52, "duration": 10, "velocity": 75}, {"time": 2102, "pitch": 56, "duration": 14, "velocity": 100}, {"time": 2105, "pitch": 59, "duration": 15, "velocity": 82}, {"time": 2108, "pitch": 64, "duration": 3, "velocity": 72}, {"time": 2111, "pitch": 52, "duration": 8, "velocity": 76}, {"time": 2114, "pitch": 62, "duration": 6, "velocity": 62}, {"time": 2117, "pitch": 56, "duration": 2, "velocity": 76}, {"time": 2120, "pitch": 45, "duration": 18, "velocity": 82}, {"time": 2123, "pitch": 52, "duration": 9, "velocity": 75}, {"time": 2126, "pitch": 57, "duration": 3, "velocity": 82}, {"time": 2129, "pitch": 59, "duration": 3, "velocity": 75}, {"time": 2132, "pitch": 64, "duration": 12, "velocity": 100}, {"time": 2135, "pitch": 52, "duration": 3, "velocity": 89}, {"time": 2138, "pitch": 60, "duration": 6, "velocity": 100}, {"time": 2141, "pitch": 57, "duration": 3, "velocity": 93}, {"time": 2144, "pitch": 38, "duration": 17, "velocity": 90}, {"time": 2147, "pitch": 45, "duration": 15, "velocity": 55}, {"time": 2150, "pitch": 50, "duration": 6, "velocity": 81}, {"time": 2153, "pitch": 57, "duration": 6, "velocity": 82}, {"time": 2156, "pitch": 66, "duration": 11, "velocity": 117}, {"time": 2159, "pitch": 50, "duration": 4, "velocity": 73}, {"time": 2162, "pitch": 62, "duration": 5, "velocity": 99}, {"time": 2165, "pitch": 57, "duration": 2, "velocity": 95}, {"time": 2168, "pitch": 43, "duration": 18, "velocity": 93}, {"time": 2171, "pitch": 50, "duration": 10, "velocity": 72}, {"time": 2174, "pitch": 55, "duration": 4, "velocity": 77}, {"time": 2177, "pitch": 57, "duration": 3, "velocity": 89}, {"time": 2180, "pitch": 62, "duration": 12, "velocity": 107}, {"time": 2183, "pitch": 50, "duration": 3, "velocity": 92}, {"time": 2186, "pitch": 59, "duration": 5, "velocity": 99}, {"time": 2189, "pitch": 55, "duration": 3, "velocity": 90}, {"time": 2192, "pitch": 38, "duration": 21, "velocity": 96}, {"time": 2195, "pitch": 45, "duration": 20, "velocity": 74}, {"time": 2198, "pitch": 50, "duration": 6, "velocity": 86}, {"time": 2201, "pitch": 57, "duration": 5, "velocity": 89}, {"time": 2204, "pitch": 66, "duration": 13, "velocity": 122}, {"time": 2207, "pitch": 50, "duration": 3, "velocity": 88}, {"time": 2210, "pitch": 64, "duration": 4, "velocity": 89}, {"time": 2213, "pitch": 62, "duration": 3, "velocity": 92}, {"time": 2216, "pitch": 38, "duration": 17, "velocity": 74}, {"time": 2219, "pitch": 45, "duration": 15, "velocity": 77}, {"time": 2222, "pitch": 50, "duration": 7, "velocity": 83}, {"time": 2225, "pitch": 57, "duration": 6, "velocity": 90}, {"time": 2228, "pitch": 66, "duration": 11, "velocity": 127}, {"time": 2231, "pitch": 50, "duration": 4, "velocity": 86}, {"time": 2234, "pitch": 62, "duration": 5, "velocity": 99}, {"time": 2237, "pitch": 57, "duration": 2, "velocity": 93}, {"time": 2240, "pitch": 43, "duration": 17, "velocity": 86}, {"time": 2243, "pitch": 50, "duration": 10, "velocity": 88}, {"time": 2246, "pitch": 55, "duration": 4, "velocity": 89}, {"time": 2249, "pitch": 57, "duration": 4, "velocity": 83}, {"time": 2252, "pitch": 62, "duration": 11, "velocity": 112}, {"time": 2255, "pitch": 50, "duration": 2, "velocity": 58}, {"time": 2258, "pitch": 59, "duration": 5, "velocity": 89}, {"time": 2261, "pitch": 55, "duration": 2, "velocity": 83}, {"time": 2264, "pitch": 36, "duration": 16, "velocity": 85}, {"time": 2267, "pitch": 43, "duration": 14, "velocity": 51}, {"time": 2270, "pitch": 48, "duration": 6, "velocity": 85}, {"time": 2273, "pitch": 55, "duration": 4, "velocity": 78}, {"time": 2276, "pitch": 64, "duration": 11, "velocity": 107}, {"time": 2279, "pitch": 48, "duration": 3, "velocity": 97}, {"time": 2282, "pitch": 60, "duration": 5, "velocity": 88}, {"time": 2285, "pitch": 55, "duration": 3, "velocity": 96}, {"time": 2288, "pitch": 40, "duration": 3, "velocity": 83}, {"time": 2291, "pitch": 44, "duration": 9, "velocity": 89}, {"time": 2294, "pitch": 52, "duration": 8, "velocity": 76}, {"time": 2297, "pitch": 56, "duration": 7, "velocity": 95}, {"time": 2300, "pitch": 47, "duration": 6, "velocity": 63}, {"time": 2300, "pitch": 59, "duration": 11, "velocity": 89}, {"time": 2303, "pitch": 62, "duration": 9, "velocity": 66}, {"time": 2306, "pitch": 52, "duration": 5, "velocity": 78}, {"time": 2309, "pitch": 56, "duration": 2, "velocity": 89}, {"time": 2312, "pitch": 45, "duration": 18, "velocity": 88}, {"time": 2315, "pitch": 52, "duration": 10, "velocity": 67}, {"time": 2318, "pitch": 57, "duration": 3, "velocity": 93}, {"time": 2321, "pitch": 59, "duration": 4, "velocity": 81}, {"time": 2324, "pitch": 64, "duration": 11, "velocity": 102}, {"time": 2327, "pitch": 52, "duration": 3, "velocity": 63}, {"time": 2330, "pitch": 60, "duration": 5, "velocity": 79}, {"time": 2333, "pitch": 57, "duration": 3, "velocity": 92}, {"time": 2336, "pitch": 38, "duration": 22, "velocity": 79}, {"time": 2339, "pitch": 45, "duration": 21, "velocity": 60}, {"time": 2342, "pitch": 50, "duration": 7, "velocity": 86}, {"time": 2345, "pitch": 57, "duration": 7, "velocity": 86}, {"time": 2348, "pitch": 66, "duration": 13, "velocity": 102}, {"time": 2351, "pitch": 50, "duration": 4, "velocity": 93}, {"time": 2354, "pitch": 57, "duration": 6, "velocity": 89}, {"time": 2357, "pitch": 64, "duration": 3, "velocity": 72}, {"time": 2360, "pitch": 38, "duration": 22, "velocity": 76}, {"time": 2363, "pitch": 45, "duration": 21, "velocity": 55}, {"time": 2366, "pitch": 50, "duration": 6, "velocity": 67}, {"time": 2369, "pitch": 57, "duration": 5, "velocity": 82}, {"time": 2372, "pitch": 66, "duration": 12, "velocity": 127}, {"time": 2375, "pitch": 50, "duration": 3, "velocity": 82}, {"time": 2378, "pitch": 57, "duration": 6, "velocity": 78}, {"time": 2381, "pitch": 64, "duration": 3, "velocity": 82}, {"time": 2384, "pitch": 38, "duration": 17, "velocity": 74}, {"time": 2387, "pitch": 45, "duration": 15, "velocity": 65}, {"time": 2390, "pitch": 50, "duration": 6, "velocity": 76}, {"time": 2393, "pitch": 57, "duration": 5, "velocity": 85}, {"time": 2396, "pitch": 66, "duration": 11, "velocity": 122}, {"time": 2399, "pitch": 50, "duration": 4, "velocity": 82}, {"time": 2402, "pitch": 62, "duration": 5, "velocity": 92}, {"time": 2405, "pitch": 57, "duration": 2, "velocity": 92}, {"time": 2408, "pitch": 43, "duration": 24, "velocity": 86}, {"time": 2411, "pitch": 50, "duration": 10, "velocity": 78}, {"time": 2414, "pitch": 55, "duration": 4, "velocity": 89}, {"time": 2417, "pitch": 57, "duration": 3, "velocity": 85}, {"time": 2420, "pitch": 62, "duration": 12, "velocity": 107}, {"time": 2423, "pitch": 50, "duration": 9, "velocity": 88}, {"time": 2426, "pitch": 57, "duration": 3, "velocity": 97}, {"time": 2429, "pitch": 59, "duration": 3, "velocity": 97}, {"time": 2432, "pitch": 44, "duration": 4, "velocity": 107}, {"time": 2432, "pitch": 56, "duration": 4, "velocity": 96}, {"time": 2432, "pitch": 60, "duration": 1, "velocity": 97}, {"time": 2432, "pitch": 63, "duration": 1, "velocity": 95}, {"time": 2435, "pitch": 60, "duration": 1, "velocity": 24}, {"time": 2438, "pitch": 44, "duration": 1, "velocity": 107}, {"time": 2438, "pitch": 56, "duration": 1, "velocity": 88}, {"time": 2438, "pitch": 60, "duration": 1, "velocity": 99}, {"time": 2438, "pitch": 63, "duration": 1, "velocity": 90}, {"time": 2441, "pitch": 44, "duration": 3, "velocity": 89}, {"time": 2441, "pitch": 56, "duration": 2, "velocity": 88}, {"time": 2441, "pitch": 60, "duration": 2, "velocity": 96}, {"time": 2441, "pitch": 63, "duration": 2, "velocity": 89}, {"time": 2447, "pitch": 44, "duration": 1, "velocity": 102}, {"time": 2447, "pitch": 56, "duration": 1, "velocity": 92}, {"time": 2447, "pitch": 60, "duration": 1, "velocity": 97}, {"time": 2447, "pitch": 63, "duration": 1, "velocity": 97}, {"time": 2450, "pitch": 44, "duration": 4, "velocity": 127}, {"time": 2450, "pitch": 56, "duration": 1, "velocity": 97}, {"time": 2450, "pitch": 60, "duration": 2, "velocity": 117}, {"time": 2450, "pitch": 63, "duration": 2, "velocity": 102}, {"time": 2453, "pitch": 44, "duration": 1, "velocity": 88}, {"time": 2453, "pitch": 56, "duration": 3, "velocity": 88}, {"time": 2453, "pitch": 60, "duration": 2, "velocity": 93}, {"time": 2453, "pitch": 63, "duration": 3, "velocity": 90}, {"time": 2456, "pitch": 44, "duration": 1, "velocity": 102}, {"time": 2459, "pitch": 51, "duration": 10, "velocity": 89}, {"time": 2462, "pitch": 56, "duration": 5, "velocity": 99}, {"time": 2465, "pitch": 63, "duration": 6, "velocity": 97}, {"time": 2468, "pitch": 72, "duration": 12, "velocity": 112}, {"time": 2471, "pitch": 51, "duration": 4, "velocity": 102}, {"time": 2474, "pitch": 68, "duration": 6, "velocity": 96}, {"time": 2477, "pitch": 67, "duration": 3, "velocity": 97}, {"time": 2480, "pitch": 41, "duration": 22, "velocity": 93}, {"time": 2483, "pitch": 48, "duration": 19, "velocity": 72}, {"time": 2486, "pitch": 53, "duration": 7, "velocity": 93}, {"time": 2489, "pitch": 56, "duration": 7, "velocity": 83}, {"time": 2492, "pitch": 65, "duration": 11, "velocity": 99}, {"time": 2495, "pitch": 53, "duration": 3, "velocity": 95}, {"time": 2498, "pitch": 60, "duration": 5, "velocity": 100}, {"time": 2501, "pitch": 56, "duration": 3, "velocity": 97}, {"time": 2504, "pitch": 45, "duration": 18, "velocity": 92}, {"time": 2507, "pitch": 53, "duration": 10, "velocity": 75}, {"time": 2510, "pitch": 57, "duration": 14, "velocity": 100}, {"time": 2513, "pitch": 60, "duration": 15, "velocity": 82}, {"time": 2516, "pitch": 65, "duration": 3, "velocity": 72}, {"time": 2519, "pitch": 53, "duration": 8, "velocity": 76}, {"time": 2522, "pitch": 63, "duration": 6, "velocity": 62}, {"time": 2525, "pitch": 57, "duration": 2, "velocity": 76}, {"time": 2528, "pitch": 46, "duration": 18, "velocity": 82}, {"time": 2531, "pitch": 53, "duration": 9, "velocity": 75}, {"time": 2534, "pitch": 58, "duration": 3, "velocity": 82}, {"time": 2537, "pitch": 60, "duration": 3, "velocity": 75}, {"time": 2540, "pitch": 65, "duration": 12, "velocity": 100}, {"time": 2543, "pitch": 53, "duration": 3, "velocity": 89}, {"time": 2546, "pitch": 61, "duration": 6, "velocity": 100}, {"time": 2549, "pitch": 58, "duration": 3, "velocity": 93}, {"time": 2552, "pitch": 39, "duration": 17, "velocity": 90}, {"time": 2555, "pitch": 46, "duration": 15, "velocity": 55}, {"time": 2558, "pitch": 51, "duration": 6, "velocity": 81}, {"time": 2561, "pitch": 58, "duration": 6, "velocity": 82}, {"time": 2564, "pitch": 67, "duration": 11, "velocity": 117}, {"time": 2567, "pitch": 51, "duration": 4, "velocity": 73}, {"time": 2570, "pitch": 63, "duration": 5, "velocity": 99}, {"time": 2573, "pitch": 58, "duration": 2, "velocity": 95}, {"time": 2576, "pitch": 44, "duration": 18, "velocity": 93}, {"time": 2579, "pitch": 51, "duration": 10, "velocity": 72}, {"time": 2582, "pitch": 56, "duration": 4, "velocity": 77}, {"time": 2585, "pitch": 58, "duration": 3, "velocity": 89}, {"time": 2588, "pitch": 63, "duration": 12, "velocity": 107}, {"time": 2591, "pitch": 51, "duration": 3, "velocity": 92}, {"time": 2594, "pitch": 60, "duration": 5, "velocity": 99}, {"time": 2597, "pitch": 56, "duration": 3, "velocity": 90}, {"time": 2600, "pitch": 39, "duration": 21, "velocity": 96}, {"time": 2603, "pitch": 46, "duration": 20, "velocity": 74}, {"time": 2606, "pitch": 51, "duration": 6, "velocity": 86}, {"time": 2609, "pitch": 58, "duration": 5, "velocity": 89}, {"time": 2612, "pitch": 67, "duration": 13, "velocity": 122}, {"time": 2615, "pitch": 51, "duration": 3, "velocity": 88}, {"time": 2618, "pitch": 65, "duration": 4, "velocity": 89}, {"time": 2621, "pitch": 63, "duration": 3, "velocity": 92}, {"time": 2624, "pitch": 39, "duration": 17, "velocity": 74}, {"time": 2627, "pitch": 46, "duration": 15, "velocity": 77}, {"time": 2630, "pitch": 51, "duration": 7, "velocity": 83}, {"time": 2633, "pitch": 58, "duration": 6, "velocity": 90}, {"time": 2636, "pitch": 67, "duration": 11, "velocity": 127}, {"time": 2639, "pitch": 51, "duration": 4, "velocity": 86}, {"time": 2642, "pitch": 63, "duration": 5, "velocity": 99}, {"time": 2645, "pitch": 58, "duration": 2, "velocity": 93}, {"time": 2648, "pitch": 44, "duration": 17, "velocity": 86}, {"time": 2651, "pitch": 51, "duration": 10, "velocity": 88}, {"time": 2654, "pitch": 56, "duration": 4, "velocity": 89}, {"time": 2657, "pitch": 58, "duration": 4, "velocity": 83}, {"time": 2660, "pitch": 63, "duration": 11, "velocity": 112}, {"time": 2663, "pitch": 51, "duration": 2, "velocity": 58}, {"time": 2666, "pitch": 60, "duration": 5, "velocity": 89}, {"time": 2669, "pitch": 56, "duration": 2, "velocity": 83}, {"time": 2672, "pitch": 37, "duration": 16, "velocity": 85}, {"time": 2675, "pitch": 44, "duration": 14, "velocity": 51}, {"time": 2678, "pitch": 49, "duration": 6, "velocity": 85}, {"time": 2681, "pitch": 56, "duration": 4, "velocity": 78}, {"time": 2684, "pitch": 65, "duration": 11, "velocity": 107}, {"time": 2687, "pitch": 49, "duration": 3, "velocity": 97}, {"time": 2690, "pitch": 61, "duration": 5, "velocity": 88}, {"time": 2693, "pitch": 56, "duration": 3, "velocity": 96}, {"time": 2696, "pitch": 41, "duration": 3, "velocity": 83}, {"time": 2699, "pitch": 45, "duration": 9, "velocity": 89}, {"time": 2702, "pitch": 53, "duration": 8, "velocity": 76}, {"time": 2705, "pitch": 57, "duration": 7, "velocity": 95}, {"time": 2708, "pitch": 48, "duration": 6, "velocity": 63}, {"time": 2708, "pitch": 60, "duration": 11, "velocity": 89}, {"time": 2711, "pitch": 63, "duration": 9, "velocity": 66}, {"time": 2714, "pitch": 53, "duration": 5, "velocity": 78}, {"time": 2717, "pitch": 57, "duration": 2, "velocity": 89}, {"time": 2720, "pitch": 46, "duration": 18, "velocity": 88}, {"time": 2723, "pitch": 53, "duration": 10, "velocity": 67}, {"time": 2726, "pitch": 58, "duration": 3, "velocity": 93}, {"time": 2729, "pitch": 60, "duration": 4, "velocity": 81}, {"time": 2732, "pitch": 65, "duration": 11, "velocity": 102}, {"time": 2735, "pitch": 53, "duration": 3, "velocity": 63}, {"time": 2738, "pitch": 61, "duration": 5, "velocity": 79}, {"time": 2741, "pitch": 58, "duration": 3, "velocity": 92}, {"time": 2744, "pitch": 39, "duration": 22, "velocity": 79}, {"time": 2747, "pitch": 46, "duration": 21, "velocity": 60}, {"time": 2750, "pitch": 51, "duration": 7, "velocity": 86}, {"time": 2753, "pitch": 58, "duration": 7, "velocity": 86}, {"time": 2756, "pitch": 67, "duration": 13, "velocity": 102}, {"time": 2759, "pitch": 51, "duration": 4, "velocity": 93}, {"time": 2762, "pitch": 58, "duration": 6, "velocity": 89}, {"time": 2765, "pitch": 65, "duration": 3, "velocity": 72}, {"time": 2768, "pitch": 39, "duration": 22, "velocity": 76}, {"time": 2771, "pitch": 46, "duration": 21, "velocity": 55}, {"time": 2774, "pitch": 51, "duration": 6, "velocity": 67}, {"time": 2777, "pitch": 58, "duration": 5, "velocity": 82}, {"time": 2780, "pitch": 67, "duration": 12, "velocity": 127}, {"time": 2783, "pitch": 51, "duration": 3, "velocity": 82}, {"time": 2786, "pitch": 58, "duration": 6, "velocity": 78}, {"time": 2789, "pitch": 65, "duration": 3, "velocity": 82}, {"time": 2792, "pitch": 39, "duration": 17, "velocity": 74}, {"time": 2795, "pitch": 46, "duration": 15, "velocity": 65}, {"time": 2798, "pitch": 51, "duration": 6, "velocity": 76}, {"time": 2801, "pitch": 58, "duration": 5, "velocity": 85}, {"time": 2804, "pitch": 67, "duration": 11, "velocity": 122}, {"time": 2807, "pitch": 51, "duration": 4, "velocity": 82}, {"time": 2810, "pitch": 63, "duration": 5, "velocity": 92}, {"time": 2813, "pitch": 58, "duration": 2, "velocity": 92}, {"time": 2816, "pitch": 44, "duration": 24, "velocity": 86}, {"time": 2819, "pitch": 51, "duration": 10, "velocity": 78}, {"time": 2822, "pitch": 56, "duration": 4, "velocity": 89}, {"time": 2825, "pitch": 58, "duration": 3, "velocity": 85}, {"time": 2828, "pitch": 63, "duration": 12, "velocity": 107}, {"time": 2831, "pitch": 51, "duration": 9, "velocity": 88}, {"time": 2834, "pitch": 58, "duration": 3, "velocity": 97}, {"time": 2837, "pitch": 60, "duration": 3, "velocity": 97}, {"time": 2840, "pitch": 43, "duration": 22, "velocity": 83}, {"time": 2840, "pitch": 58, "duration": 21, "velocity": 127}, {"time": 2840, "pitch": 61, "duration": 21, "velocity": 127}, {"time": 2840, "pitch": 55, "duration": 21, "velocity": 100}, {"time": 2863, "pitch": 61, "duration": 20, "velocity": 107}, {"time": 2863, "pitch": 58, "duration": 20, "velocity": 112}, {"time": 2863, "pitch": 55, "duration": 22, "velocity": 92}, {"time": 2863, "pitch": 43, "duration": 23, "velocity": 93}, {"time": 2887, "pitch": 56, "duration": 11, "velocity": 100}, {"time": 2887, "pitch": 53, "duration": 12, "velocity": 93}, {"time": 2887, "pitch": 60, "duration": 12, "velocity": 79}, {"time": 2888, "pitch": 41, "duration": 12, "velocity": 99}, {"time": 2899, "pitch": 58, "duration": 7, "velocity": 100}, {"time": 2899, "pitch": 46, "duration": 6, "velocity": 112}, {"time": 2899, "pitch": 65, "duration": 7, "velocity": 72}, {"time": 2899, "pitch": 62, "duration": 7, "velocity": 81}, {"time": 2911, "pitch": 63, "duration": 42, "velocity": 117}, {"time": 2911, "pitch": 59, "duration": 43, "velocity": 93}, {"time": 2911, "pitch": 66, "duration": 42, "velocity": 117}, {"time": 2911, "pitch": 47, "duration": 44, "velocity": 117}, {"time": 2960, "pitch": 56, "duration": 22, "velocity": 117}, {"time": 2960, "pitch": 63, "duration": 22, "velocity": 122}, {"time": 2960, "pitch": 60, "duration": 22, "velocity": 127}, {"time": 2960, "pitch": 44, "duration": 23, "velocity": 117}, {"time": 2983, "pitch": 56, "duration": 23, "velocity": 73}, {"time": 2983, "pitch": 44, "duration": 24, "velocity": 65}, {"time": 2983, "pitch": 60, "duration": 21, "velocity": 76}, {"time": 2983, "pitch": 63, "duration": 21, "velocity": 58}, {"time": 3007, "pitch": 56, "duration": 5, "velocity": 107}, {"time": 3007, "pitch": 60, "duration": 5, "velocity": 96}, {"time": 3007, "pitch": 63, "duration": 5, "velocity": 97}, {"time": 3007, "pitch": 44, "duration": 5, "velocity": 117}, {"time": 3013, "pitch": 51, "duration": 32, "velocity": 83}, {"time": 3013, "pitch": 44, "duration": 32, "velocity": 93}, {"time": 3013, "pitch": 56, "duration": 32, "velocity": 102}, {"time": 3013, "pitch": 60, "duration": 32, "velocity": 102}, {"time": 3013, "pitch": 63, "duration": 32, "velocity": 102}], "annotations": [{"time": 79, "annotation": {"number": 64, "value": 127}, "group": "control_change"}, {"time": 101, "annotation": {"number": 64, "value": 0}, "group": "control_change"}, {"time": 103, "annotation": {"number": 64, "value": 127}, "group": "control_change"}, {"time": 125, "annotation": {"number": 64, "value": 0}, "group": "control_change"}, {"time": 127, "annotation": {"number": 64, "value": 127}, "group": "control_change"}, {"time": 149, "annotation": {"number": 64, "value": 0}, "group": "control_change"}, {"time": 152, "annotation": {"number": 64, "value": 127}, "group": "control_change"}, {"time": 174, "annotation": {"number": 64, "value": 0}, "group": "control_change"}, {"time": 176, "annotation": {"number": 64, "value": 127}, "group": "control_change"}, {"time": 197, "annotation": {"number": 64, "value": 0}, "group": "control_change"}, {"time": 200, "annotation": {"number": 64, "value": 127}, "group": "control_change"}, {"time": 220, "annotation": {"number": 64, "value": 0}, "group": "control_change"}, {"time": 224, "annotation": {"number": 64, "value": 127}, "group": "control_change"}, {"time": 245, "annotation": {"number": 64, "value": 0}, "group": "control_change"}, {"time": 252, "annotation": {"number": 64, "value": 127}, "group": "control_change"}, {"time": 268, "annotation": {"number": 64, "value": 0}, "group": "control_change"}, {"time": 272, "annotation": {"number": 64, "value": 127}, "group": "control_change"}, {"time": 292, "annotation": {"number": 64, "value": 0}, "group": "control_change"}, {"time": 296, "annotation": {"number": 64, "value": 127}, "group": "control_change"}, {"time": 318, "annotation": {"number": 64, "value": 0}, "group": "control_change"}, {"time": 320, "annotation": {"number": 64, "value": 127}, "group": "control_change"}, {"time": 341, "annotation": {"number": 64, "value": 0}, "group": "control_change"}, {"time": 344, "annotation": {"number": 64, "value": 127}, "group": "control_change"}, {"time": 365, "annotation": {"number": 64, "value": 0}, "group": "control_change"}, {"time": 368, "annotation": {"number": 64, "value": 127}, "group": "control_change"}, {"time": 389, "annotation": {"number": 64, "value": 0}, "group": "control_change"}, {"time": 393, "annotation": {"number": 64, "value": 127}, "group": "control_change"}, {"time": 413, "annotation": {"number": 64, "value": 0}, "group": "control_change"}, {"time": 416, "annotation": {"number": 64, "value": 127}, "group": "control_change"}, {"time": 436, "annotation": {"number": 64, "value": 0}, "group": "control_change"}, {"time": 440, "annotation": {"number": 64, "value": 127}, "group": "control_change"}, {"time": 462, "annotation": {"number": 64, "value": 0}, "group": "control_change"}, {"time": 464, "annotation": {"number": 64, "value": 127}, "group": "control_change"}, {"time": 485, "annotation": {"number": 64, "value": 0}, "group": "control_change"}, {"time": 488, "annotation": {"number": 64, "value": 127}, "group": "control_change"}, {"time": 509, "annotation": {"number": 64, "value": 0}, "group": "control_change"}, {"time": 512, "annotation": {"number": 64, "value": 127}, "group": "control_change"}, {"time": 532, "annotation": {"number": 64, "value": 0}, "group": "control_change"}, {"time": 536, "annotation": {"number": 64, "value": 127}, "group": "control_change"}, {"time": 557, "annotation": {"number": 64, "value": 0}, "group": "control_change"}, {"time": 560, "annotation": {"number": 64, "value": 127}, "group": "control_change"}, {"time": 580, "annotation": {"number": 64, "value": 0}, "group": "control_change"}, {"time": 583, "annotation": {"number": 64, "value": 127}, "group": "control_change"}, {"time": 604, "annotation": {"number": 64, "value": 0}, "group": "control_change"}, {"time": 608, "annotation": {"number": 64, "value": 127}, "group": "control_change"}, {"time": 628, "annotation": {"number": 64, "value": 0}, "group": "control_change"}, {"time": 632, "annotation": {"number": 64, "value": 127}, "group": "control_change"}, {"time": 652, "annotation": {"number": 64, "value": 0}, "group": "control_change"}, {"time": 656, "annotation": {"number": 64, "value": 127}, "group": "control_change"}, {"time": 677, "annotation": {"number": 64, "value": 0}, "group": "control_change"}, {"time": 681, "annotation": {"number": 64, "value": 127}, "group": "control_change"}, {"time": 701, "annotation": {"number": 64, "value": 0}, "group": "control_change"}, {"time": 704, "annotation": {"number": 64, "value": 127}, "group": "control_change"}, {"time": 724, "annotation": {"number": 64, "value": 0}, "group": "control_change"}, {"time": 728, "annotation": {"number": 64, "value": 127}, "group": "control_change"}, {"time": 748, "annotation": {"number": 64, "value": 0}, "group": "control_change"}, {"time": 752, "annotation": {"number": 64, "value": 127}, "group": "control_change"}, {"time": 773, "annotation": {"number": 64, "value": 0}, "group": "control_change"}, {"time": 776, "annotation": {"number": 64, "value": 127}, "group": "control_change"}, {"time": 796, "annotation": {"number": 64, "value": 0}, "group": "control_change"}, {"time": 800, "annotation": {"number": 64, "value": 127}, "group": "control_change"}, {"time": 820, "annotation": {"number": 64, "value": 0}, "group": "control_change"}, {"time": 824, "annotation": {"number": 64, "value": 127}, "group": "control_change"}, {"time": 843, "annotation": {"number": 64, "value": 0}, "group": "control_change"}, {"time": 848, "annotation": {"number": 64, "value": 127}, "group": "control_change"}, {"time": 868, "annotation": {"number": 64, "value": 0}, "group": "control_change"}, {"time": 872, "annotation": {"number": 64, "value": 127}, "group": "control_change"}, {"time": 893, "annotation": {"number": 64, "value": 0}, "group": "control_change"}, {"time": 896, "annotation": {"number": 64, "value": 127}, "group": "control_change"}, {"time": 918, "annotation": {"number": 64, "value": 0}, "group": "control_change"}, {"time": 920, "annotation": {"number": 64, "value": 127}, "group": "control_change"}, {"time": 942, "annotation": {"number": 64, "value": 0}, "group": "control_change"}, {"time": 944, "annotation": {"number": 64, "value": 127}, "group": "control_change"}, {"time": 965, "annotation": {"number": 64, "value": 0}, "group": "control_change"}, {"time": 968, "annotation": {"number": 64, "value": 127}, "group": "control_change"}, {"time": 991, "annotation": {"number": 64, "value": 0}, "group": "control_change"}, {"time": 996, "annotation": {"number": 64, "value": 127}, "group": "control_change"}, {"time": 1011, "annotation": {"number": 64, "value": 0}, "group": "control_change"}, {"time": 1016, "annotation": {"number": 64, "value": 127}, "group": "control_change"}, {"time": 1037, "annotation": {"number": 64, "value": 0}, "group": "control_change"}, {"time": 1040, "annotation": {"number": 64, "value": 127}, "group": "control_change"}, {"time": 1060, "annotation": {"number": 64, "value": 0}, "group": "control_change"}, {"time": 1064, "annotation": {"number": 64, "value": 127}, "group": "control_change"}, {"time": 1085, "annotation": {"number": 64, "value": 0}, "group": "control_change"}, {"time": 1088, "annotation": {"number": 64, "value": 127}, "group": "control_change"}, {"time": 1110, "annotation": {"number": 64, "value": 0}, "group": "control_change"}, {"time": 1112, "annotation": {"number": 64, "value": 127}, "group": "control_change"}, {"time": 1133, "annotation": {"number": 64, "value": 0}, "group": "control_change"}, {"time": 1136, "annotation": {"number": 64, "value": 127}, "group": "control_change"}, {"time": 1156, "annotation": {"number": 64, "value": 0}, "group": "control_change"}, {"time": 1160, "annotation": {"number": 64, "value": 127}, "group": "control_change"}, {"time": 1181, "annotation": {"number": 64, "value": 0}, "group": "control_change"}, {"time": 1184, "annotation": {"number": 64, "value": 127}, "group": "control_change"}, {"time": 1205, "annotation": {"number": 64, "value": 0}, "group": "control_change"}, {"time": 1208, "annotation": {"number": 64, "value": 127}, "group": "control_change"}, {"time": 1228, "annotation": {"number": 64, "value": 0}, "group": "control_change"}, {"time": 1232, "annotation": {"number": 64, "value": 127}, "group": "control_change"}, {"time": 1252, "annotation": {"number": 64, "value": 0}, "group": "control_change"}, {"time": 1277, "annotation": {"number": 64, "value": 0}, "group": "control_change"}, {"time": 1279, "annotation": {"number": 64, "value": 127}, "group": "control_change"}, {"time": 1301, "annotation": {"number": 64, "value": 0}, "group": "control_change"}, {"time": 1303, "annotation": {"number": 64, "value": 127}, "group": "control_change"}, {"time": 1325, "annotation": {"number": 64, "value": 0}, "group": "control_change"}, {"time": 1328, "annotation": {"number": 64, "value": 127}, "group": "control_change"}, {"time": 1350, "annotation": {"number": 64, "value": 0}, "group": "control_change"}, {"time": 1352, "annotation": {"number": 64, "value": 127}, "group": "control_change"}, {"time": 1373, "annotation": {"number": 64, "value": 0}, "group": "control_change"}, {"time": 1376, "annotation": {"number": 64, "value": 127}, "group": "control_change"}, {"time": 1396, "annotation": {"number": 64, "value": 0}, "group": "control_change"}, {"time": 1400, "annotation": {"number": 64, "value": 127}, "group": "control_change"}, {"time": 1421, "annotation": {"number": 64, "value": 0}, "group": "control_change"}, {"time": 1428, "annotation": {"number": 64, "value": 127}, "group": "control_change"}, {"time": 1444, "annotation": {"number": 64, "value": 0}, "group": "control_change"}, {"time": 1448, "annotation": {"number": 64, "value": 127}, "group": "control_change"}, {"time": 1468, "annotation": {"number": 64, "value": 0}, "group": "control_change"}, {"time": 1472, "annotation": {"number": 64, "value": 127}, "group": "control_change"}, {"time": 1494, "annotation": {"number": 64, "value": 0}, "group": "control_change"}, {"time": 1496, "annotation": {"number": 64, "value": 127}, "group": "control_change"}, {"time": 1517, "annotation": {"number": 64, "value": 0}, "group": "control_change"}, {"time": 1520, "annotation": {"number": 64, "value": 127}, "group": "control_change"}, {"time": 1541, "annotation": {"number": 64, "value": 0}, "group": "control_change"}, {"time": 1544, "annotation": {"number": 64, "value": 127}, "group": "control_change"}, {"time": 1565, "annotation": {"number": 64, "value": 0}, "group": "control_change"}, {"time": 1569, "annotation": {"number": 64, "value": 127}, "group": "control_change"}, {"time": 1589, "annotation": {"number": 64, "value": 0}, "group": "control_change"}, {"time": 1592, "annotation": {"number": 64, "value": 127}, "group": "control_change"}, {"time": 1612, "annotation": {"number": 64, "value": 0}, "group": "control_change"}, {"time": 1616, "annotation": {"number": 64, "value": 127}, "group": "control_change"}, {"time": 1638, "annotation": {"number": 64, "value": 0}, "group": "control_change"}, {"time": 1640, "annotation": {"number": 64, "value": 127}, "group": "control_change"}, {"time": 1661, "annotation": {"number": 64, "value": 0}, "group": "control_change"}, {"time": 1664, "annotation": {"number": 64, "value": 127}, "group": "control_change"}, {"time": 1685, "annotation": {"number": 64, "value": 0}, "group": "control_change"}, {"time": 1688, "annotation": {"number": 64, "value": 127}, "group": "control_change"}, {"time": 1708, "annotation": {"number": 64, "value": 0}, "group": "control_change"}, {"time": 1712, "annotation": {"number": 64, "value": 127}, "group": "control_change"}, {"time": 1733, "annotation": {"number": 64, "value": 0}, "group": "control_change"}, {"time": 1736, "annotation": {"number": 64, "value": 127}, "group": "control_change"}, {"time": 1756, "annotation": {"number": 64, "value": 0}, "group": "control_change"}, {"time": 1759, "annotation": {"number": 64, "value": 127}, "group": "control_change"}, {"time": 1780, "annotation": {"number": 64, "value": 0}, "group": "control_change"}, {"time": 1784, "annotation": {"number": 64, "value": 127}, "group": "control_change"}, {"time": 1804, "annotation": {"number": 64, "value": 0}, "group": "control_change"}, {"time": 1808, "annotation": {"number": 64, "value": 127}, "group": "control_change"}, {"time": 1828, "annotation": {"number": 64, "value": 0}, "group": "control_change"}, {"time": 1832, "annotation": {"number": 64, "value": 127}, "group": "control_change"}, {"time": 1853, "annotation": {"number": 64, "value": 0}, "group": "control_change"}, {"time": 1857, "annotation": {"number": 64, "value": 127}, "group": "control_change"}, {"time": 1877, "annotation": {"number": 64, "value": 0}, "group": "control_change"}, {"time": 1880, "annotation": {"number": 64, "value": 127}, "group": "control_change"}, {"time": 1900, "annotation": {"number": 64, "value": 0}, "group": "control_change"}, {"time": 1904, "annotation": {"number": 64, "value": 127}, "group": "control_change"}, {"time": 1924, "annotation": {"number": 64, "value": 0}, "group": "control_change"}, {"time": 1928, "annotation": {"number": 64, "value": 127}, "group": "control_change"}, {"time": 1949, "annotation": {"number": 64, "value": 0}, "group": "control_change"}, {"time": 1952, "annotation": {"number": 64, "value": 127}, "group": "control_change"}, {"time": 1972, "annotation": {"number": 64, "value": 0}, "group": "control_change"}, {"time": 1976, "annotation": {"number": 64, "value": 127}, "group": "control_change"}, {"time": 1996, "annotation": {"number": 64, "value": 0}, "group": "control_change"}, {"time": 2000, "annotation": {"number": 64, "value": 127}, "group": "control_change"}, {"time": 2019, "annotation": {"number": 64, "value": 0}, "group": "control_change"}, {"time": 2024, "annotation": {"number": 64, "value": 127}, "group": "control_change"}, {"time": 2044, "annotation": {"number": 64, "value": 0}, "group": "control_change"}, {"time": 2048, "annotation": {"number": 64, "value": 127}, "group": "control_change"}, {"time": 2069, "annotation": {"number": 64, "value": 0}, "group": "control_change"}, {"time": 2072, "annotation": {"number": 64, "value": 127}, "group": "control_change"}, {"time": 2094, "annotation": {"number": 64, "value": 0}, "group": "control_change"}, {"time": 2096, "annotation": {"number": 64, "value": 127}, "group": "control_change"}, {"time": 2118, "annotation": {"number": 64, "value": 0}, "group": "control_change"}, {"time": 2120, "annotation": {"number": 64, "value": 127}, "group": "control_change"}, {"time": 2141, "annotation": {"number": 64, "value": 0}, "group": "control_change"}, {"time": 2144, "annotation": {"number": 64, "value": 127}, "group": "control_change"}, {"time": 2167, "annotation": {"number": 64, "value": 0}, "group": "control_change"}, {"time": 2172, "annotation": {"number": 64, "value": 127}, "group": "control_change"}, {"time": 2187, "annotation": {"number": 64, "value": 0}, "group": "control_change"}, {"time": 2192, "annotation": {"number": 64, "value": 127}, "group": "control_change"}, {"time": 2213, "annotation": {"number": 64, "value": 0}, "group": "control_change"}, {"time": 2216, "annotation": {"number": 64, "value": 127}, "group": "control_change"}, {"time": 2236, "annotation": {"number": 64, "value": 0}, "group": "control_change"}, {"time": 2240, "annotation": {"number": 64, "value": 127}, "group": "control_change"}, {"time": 2261, "annotation": {"number": 64, "value": 0}, "group": "control_change"}, {"time": 2264, "annotation": {"number": 64, "value": 127}, "group": "control_change"}, {"time": 2286, "annotation": {"number": 64, "value": 0}, "group": "control_change"}, {"time": 2288, "annotation": {"number": 64, "value": 127}, "group": "control_change"}, {"time": 2309, "annotation": {"number": 64, "value": 0}, "group": "control_change"}, {"time": 2312, "annotation": {"number": 64, "value": 127}, "group": "control_change"}, {"time": 2332, "annotation": {"number": 64, "value": 0}, "group": "control_change"}, {"time": 2336, "annotation": {"number": 64, "value": 127}, "group": "control_change"}, {"time": 2357, "annotation": {"number": 64, "value": 0}, "group": "control_change"}, {"time": 2360, "annotation": {"number": 64, "value": 127}, "group": "control_change"}, {"time": 2381, "annotation": {"number": 64, "value": 0}, "group": "control_change"}, {"time": 2384, "annotation": {"number": 64, "value": 127}, "group": "control_change"}, {"time": 2404, "annotation": {"number": 64, "value": 0}, "group": "control_change"}, {"time": 2408, "annotation": {"number": 64, "value": 127}, "group": "control_change"}, {"time": 2428, "annotation": {"number": 64, "value": 0}, "group": "control_change"}, {"time": 2432, "annotation": {"number": 64, "value": 127}, "group": "control_change"}, {"time": 2434, "annotation": {"number": 64, "value": 0}, "group": "control_change"}, {"time": 2456, "annotation": {"number": 64, "value": 127}, "group": "control_change"}, {"time": 2477, "annotation": {"number": 64, "value": 0}, "group": "control_change"}, {"time": 2480, "annotation": {"number": 64, "value": 127}, "group": "control_change"}, {"time": 2502, "annotation": {"number": 64, "value": 0}, "group": "control_change"}, {"time": 2504, "annotation": {"number": 64, "value": 127}, "group": "control_change"}, {"time": 2526, "annotation": {"number": 64, "value": 0}, "group": "control_change"}, {"time": 2528, "annotation": {"number": 64, "value": 127}, "group": "control_change"}, {"time": 2549, "annotation": {"number": 64, "value": 0}, "group": "control_change"}, {"time": 2552, "annotation": {"number": 64, "value": 127}, "group": "control_change"}, {"time": 2575, "annotation": {"number": 64, "value": 0}, "group": "control_change"}, {"time": 2580, "annotation": {"number": 64, "value": 127}, "group": "control_change"}, {"time": 2595, "annotation": {"number": 64, "value": 0}, "group": "control_change"}, {"time": 2600, "annotation": {"number": 64, "value": 127}, "group": "control_change"}, {"time": 2621, "annotation": {"number": 64, "value": 0}, "group": "control_change"}, {"time": 2624, "annotation": {"number": 64, "value": 127}, "group": "control_change"}, {"time": 2644, "annotation": {"number": 64, "value": 0}, "group": "control_change"}, {"time": 2648, "annotation": {"number": 64, "value": 127}, "group": "control_change"}, {"time": 2669, "annotation": {"number": 64, "value": 0}, "group": "control_change"}, {"time": 2672, "annotation": {"number": 64, "value": 127}, "group": "control_change"}, {"time": 2694, "annotation": {"number": 64, "value": 0}, "group": "control_change"}, {"time": 2696, "annotation": {"number": 64, "value": 127}, "group": "control_change"}, {"time": 2717, "annotation": {"number": 64, "value": 0}, "group": "control_change"}, {"time": 2720, "annotation": {"number": 64, "value": 127}, "group": "control_change"}, {"time": 2740, "annotation": {"number": 64, "value": 0}, "group": "control_change"}, {"time": 2744, "annotation": {"number": 64, "value": 127}, "group": "control_change"}, {"time": 2765, "annotation": {"number": 64, "value": 0}, "group": "control_change"}, {"time": 2768, "annotation": {"number": 64, "value": 127}, "group": "control_change"}, {"time": 2789, "annotation": {"number": 64, "value": 0}, "group": "control_change"}, {"time": 2792, "annotation": {"number": 64, "value": 127}, "group": "control_change"}, {"time": 2812, "annotation": {"number": 64, "value": 0}, "group": "control_change"}, {"time": 2816, "annotation": {"number": 64, "value": 127}, "group": "control_change"}, {"time": 2836, "annotation": {"number": 64, "value": 0}, "group": "control_change"}, {"time": 2840, "annotation": {"number": 64, "value": 127}, "group": "control_change"}, {"time": 2860, "annotation": {"number": 64, "value": 0}, "group": "control_change"}, {"time": 2901, "annotation": {"number": 64, "value": 127}, "group": "control_change"}, {"time": 2910, "annotation": {"number": 64, "value": 0}, "group": "control_change"}, {"time": 3042, "annotation": {"number": 64, "value": 127}, "group": "control_change"}, {"time": 3062, "annotation": {"number": 64, "value": 0}, "group": "control_change"}, {"time": 3062, "annotation": {"number": 64, "value": 127}, "group": "control_change"}, {"time": 3063, "annotation": {"number": 64, "value": 0}, "group": "control_change"}, {"time": 3065, "annotation": {"number": 64, "value": 127}, "group": "control_change"}, {"time": 3072, "annotation": {"number": 64, "value": 0}, "group": "control_change"}]}]}