{"metadata": {"schema_version": "0.2", "title": "None", "source_filename": "767.mid", "source_format": "midi"}, "resolution": 12, "tempos": [{"time": 0, "qpm": 64.0}], "time_signatures": [{"time": 0, "numerator": 1, "denominator": 4}], "tracks": [{"program": 4, "is_drum": false, "name": "MELODY", "notes": [{"time": 234, "pitch": 68, "duration": 2, "velocity": 127}, {"time": 237, "pitch": 76, "duration": 3, "velocity": 100}, {"time": 240, "pitch": 75, "duration": 3, "velocity": 127}, {"time": 243, "pitch": 71, "duration": 3, "velocity": 102}, {"time": 246, "pitch": 73, "duration": 5, "velocity": 127}, {"time": 252, "pitch": 73, "duration": 3, "velocity": 127}, {"time": 258, "pitch": 71, "duration": 3, "velocity": 117}, {"time": 264, "pitch": 73, "duration": 1, "velocity": 127}, {"time": 267, "pitch": 75, "duration": 8, "velocity": 127}, {"time": 276, "pitch": 68, "duration": 5, "velocity": 127}, {"time": 288, "pitch": 68, "duration": 2, "velocity": 127}, {"time": 291, "pitch": 71, "duration": 1, "velocity": 97}, {"time": 294, "pitch": 73, "duration": 2, "velocity": 127}, {"time": 300, "pitch": 73, "duration": 2, "velocity": 127}, {"time": 306, "pitch": 71, "duration": 2, "velocity": 107}, {"time": 312, "pitch": 64, "duration": 2, "velocity": 112}, {"time": 315, "pitch": 71, "duration": 4, "velocity": 112}, {"time": 321, "pitch": 68, "duration": 9, "velocity": 127}, {"time": 336, "pitch": 66, "duration": 1, "velocity": 122}, {"time": 339, "pitch": 66, "duration": 1, "velocity": 112}, {"time": 342, "pitch": 66, "duration": 3, "velocity": 127}, {"time": 348, "pitch": 68, "duration": 1, "velocity": 127}, {"time": 351, "pitch": 73, "duration": 4, "velocity": 83}, {"time": 360, "pitch": 68, "duration": 1, "velocity": 127}, {"time": 363, "pitch": 66, "duration": 1, "velocity": 117}, {"time": 366, "pitch": 68, "duration": 3, "velocity": 127}, {"time": 372, "pitch": 73, "duration": 1, "velocity": 127}, {"time": 375, "pitch": 76, "duration": 6, "velocity": 122}, {"time": 387, "pitch": 73, "duration": 1, "velocity": 107}, {"time": 390, "pitch": 80, "duration": 3, "velocity": 127}, {"time": 393, "pitch": 78, "duration": 2, "velocity": 127}, {"time": 399, "pitch": 76, "duration": 1, "velocity": 102}, {"time": 402, "pitch": 76, "duration": 3, "velocity": 127}, {"time": 405, "pitch": 75, "duration": 1, "velocity": 127}, {"time": 411, "pitch": 73, "duration": 1, "velocity": 127}, {"time": 414, "pitch": 75, "duration": 8, "velocity": 127}, {"time": 426, "pitch": 68, "duration": 2, "velocity": 127}, {"time": 429, "pitch": 76, "duration": 3, "velocity": 100}, {"time": 432, "pitch": 75, "duration": 3, "velocity": 127}, {"time": 435, "pitch": 71, "duration": 3, "velocity": 102}, {"time": 438, "pitch": 73, "duration": 5, "velocity": 127}, {"time": 444, "pitch": 73, "duration": 3, "velocity": 127}, {"time": 450, "pitch": 71, "duration": 3, "velocity": 117}, {"time": 456, "pitch": 73, "duration": 1, "velocity": 127}, {"time": 459, "pitch": 75, "duration": 8, "velocity": 127}, {"time": 468, "pitch": 68, "duration": 5, "velocity": 127}, {"time": 480, "pitch": 68, "duration": 2, "velocity": 127}, {"time": 483, "pitch": 71, "duration": 1, "velocity": 97}, {"time": 486, "pitch": 73, "duration": 2, "velocity": 127}, {"time": 492, "pitch": 73, "duration": 2, "velocity": 127}, {"time": 498, "pitch": 71, "duration": 2, "velocity": 107}, {"time": 504, "pitch": 64, "duration": 2, "velocity": 112}, {"time": 507, "pitch": 71, "duration": 4, "velocity": 112}, {"time": 513, "pitch": 68, "duration": 9, "velocity": 127}, {"time": 528, "pitch": 66, "duration": 1, "velocity": 122}, {"time": 531, "pitch": 66, "duration": 1, "velocity": 112}, {"time": 534, "pitch": 66, "duration": 3, "velocity": 127}, {"time": 540, "pitch": 68, "duration": 1, "velocity": 127}, {"time": 543, "pitch": 73, "duration": 4, "velocity": 83}, {"time": 552, "pitch": 68, "duration": 1, "velocity": 127}, {"time": 555, "pitch": 66, "duration": 1, "velocity": 117}, {"time": 558, "pitch": 68, "duration": 3, "velocity": 127}, {"time": 564, "pitch": 73, "duration": 1, "velocity": 127}, {"time": 567, "pitch": 76, "duration": 6, "velocity": 122}, {"time": 579, "pitch": 73, "duration": 1, "velocity": 107}, {"time": 582, "pitch": 80, "duration": 3, "velocity": 127}, {"time": 585, "pitch": 78, "duration": 2, "velocity": 127}, {"time": 591, "pitch": 76, "duration": 1, "velocity": 102}, {"time": 594, "pitch": 76, "duration": 3, "velocity": 127}, {"time": 597, "pitch": 75, "duration": 1, "velocity": 127}, {"time": 603, "pitch": 73, "duration": 1, "velocity": 127}, {"time": 606, "pitch": 75, "duration": 8, "velocity": 127}, {"time": 621, "pitch": 73, "duration": 3, "velocity": 127}, {"time": 627, "pitch": 72, "duration": 2, "velocity": 127}, {"time": 630, "pitch": 73, "duration": 16, "velocity": 127}, {"time": 684, "pitch": 61, "duration": 1, "velocity": 117}, {"time": 687, "pitch": 63, "duration": 2, "velocity": 97}, {"time": 690, "pitch": 64, "duration": 4, "velocity": 102}, {"time": 696, "pitch": 61, "duration": 2, "velocity": 107}, {"time": 702, "pitch": 68, "duration": 4, "velocity": 122}, {"time": 708, "pitch": 66, "duration": 1, "velocity": 100}, {"time": 711, "pitch": 66, "duration": 7, "velocity": 127}, {"time": 738, "pitch": 71, "duration": 2, "velocity": 107}, {"time": 741, "pitch": 68, "duration": 2, "velocity": 117}, {"time": 747, "pitch": 66, "duration": 1, "velocity": 107}, {"time": 750, "pitch": 64, "duration": 6, "velocity": 100}, {"time": 759, "pitch": 61, "duration": 11, "velocity": 107}, {"time": 780, "pitch": 61, "duration": 1, "velocity": 100}, {"time": 783, "pitch": 63, "duration": 1, "velocity": 95}, {"time": 786, "pitch": 64, "duration": 3, "velocity": 100}, {"time": 792, "pitch": 61, "duration": 3, "velocity": 112}, {"time": 798, "pitch": 68, "duration": 4, "velocity": 127}, {"time": 804, "pitch": 66, "duration": 1, "velocity": 122}, {"time": 807, "pitch": 66, "duration": 6, "velocity": 127}, {"time": 816, "pitch": 64, "duration": 2, "velocity": 96}, {"time": 819, "pitch": 66, "duration": 2, "velocity": 97}, {"time": 822, "pitch": 68, "duration": 4, "velocity": 117}, {"time": 831, "pitch": 68, "duration": 1, "velocity": 117}, {"time": 834, "pitch": 71, "duration": 2, "velocity": 117}, {"time": 837, "pitch": 68, "duration": 2, "velocity": 127}, {"time": 843, "pitch": 66, "duration": 1, "velocity": 102}, {"time": 846, "pitch": 68, "duration": 10, "velocity": 127}, {"time": 876, "pitch": 66, "duration": 1, "velocity": 127}, {"time": 879, "pitch": 66, "duration": 1, "velocity": 97}, {"time": 882, "pitch": 66, "duration": 3, "velocity": 127}, {"time": 888, "pitch": 68, "duration": 1, "velocity": 102}, {"time": 891, "pitch": 69, "duration": 10, "velocity": 117}, {"time": 912, "pitch": 69, "duration": 1, "velocity": 112}, {"time": 915, "pitch": 69, "duration": 1, "velocity": 96}, {"time": 918, "pitch": 68, "duration": 3, "velocity": 117}, {"time": 924, "pitch": 66, "duration": 1, "velocity": 97}, {"time": 927, "pitch": 68, "duration": 4, "velocity": 117}, {"time": 936, "pitch": 64, "duration": 12, "velocity": 112}, {"time": 960, "pitch": 63, "duration": 1, "velocity": 117}, {"time": 963, "pitch": 63, "duration": 1, "velocity": 93}, {"time": 966, "pitch": 64, "duration": 9, "velocity": 112}, {"time": 981, "pitch": 61, "duration": 3, "velocity": 99}, {"time": 987, "pitch": 63, "duration": 1, "velocity": 100}, {"time": 990, "pitch": 64, "duration": 7, "velocity": 99}, {"time": 1002, "pitch": 64, "duration": 4, "velocity": 102}, {"time": 1008, "pitch": 66, "duration": 4, "velocity": 112}, {"time": 1014, "pitch": 68, "duration": 4, "velocity": 122}, {"time": 1020, "pitch": 68, "duration": 1, "velocity": 122}, {"time": 1023, "pitch": 68, "duration": 2, "velocity": 127}, {"time": 1029, "pitch": 66, "duration": 3, "velocity": 117}, {"time": 1035, "pitch": 68, "duration": 11, "velocity": 117}, {"time": 1068, "pitch": 61, "duration": 1, "velocity": 117}, {"time": 1071, "pitch": 63, "duration": 2, "velocity": 97}, {"time": 1074, "pitch": 64, "duration": 4, "velocity": 102}, {"time": 1080, "pitch": 61, "duration": 2, "velocity": 107}, {"time": 1086, "pitch": 68, "duration": 4, "velocity": 122}, {"time": 1092, "pitch": 66, "duration": 1, "velocity": 100}, {"time": 1095, "pitch": 66, "duration": 7, "velocity": 127}, {"time": 1122, "pitch": 71, "duration": 2, "velocity": 107}, {"time": 1125, "pitch": 68, "duration": 2, "velocity": 117}, {"time": 1131, "pitch": 66, "duration": 1, "velocity": 107}, {"time": 1134, "pitch": 64, "duration": 6, "velocity": 100}, {"time": 1143, "pitch": 61, "duration": 11, "velocity": 107}, {"time": 1164, "pitch": 61, "duration": 1, "velocity": 100}, {"time": 1167, "pitch": 63, "duration": 1, "velocity": 95}, {"time": 1170, "pitch": 64, "duration": 3, "velocity": 100}, {"time": 1176, "pitch": 61, "duration": 3, "velocity": 112}, {"time": 1182, "pitch": 68, "duration": 4, "velocity": 127}, {"time": 1188, "pitch": 66, "duration": 1, "velocity": 122}, {"time": 1191, "pitch": 66, "duration": 6, "velocity": 127}, {"time": 1200, "pitch": 64, "duration": 2, "velocity": 96}, {"time": 1203, "pitch": 66, "duration": 2, "velocity": 97}, {"time": 1206, "pitch": 68, "duration": 4, "velocity": 117}, {"time": 1215, "pitch": 68, "duration": 1, "velocity": 117}, {"time": 1218, "pitch": 71, "duration": 2, "velocity": 117}, {"time": 1221, "pitch": 68, "duration": 2, "velocity": 127}, {"time": 1227, "pitch": 66, "duration": 1, "velocity": 102}, {"time": 1230, "pitch": 68, "duration": 24, "velocity": 127}, {"time": 1260, "pitch": 66, "duration": 1, "velocity": 127}, {"time": 1263, "pitch": 66, "duration": 1, "velocity": 97}, {"time": 1266, "pitch": 66, "duration": 3, "velocity": 127}, {"time": 1272, "pitch": 68, "duration": 1, "velocity": 102}, {"time": 1275, "pitch": 69, "duration": 11, "velocity": 117}, {"time": 1296, "pitch": 68, "duration": 1, "velocity": 127}, {"time": 1299, "pitch": 76, "duration": 2, "velocity": 97}, {"time": 1302, "pitch": 75, "duration": 3, "velocity": 127}, {"time": 1308, "pitch": 73, "duration": 1, "velocity": 122}, {"time": 1311, "pitch": 73, "duration": 2, "velocity": 100}, {"time": 1317, "pitch": 68, "duration": 11, "velocity": 117}, {"time": 1344, "pitch": 66, "duration": 1, "velocity": 107}, {"time": 1347, "pitch": 68, "duration": 1, "velocity": 99}, {"time": 1350, "pitch": 69, "duration": 8, "velocity": 117}, {"time": 1365, "pitch": 66, "duration": 3, "velocity": 122}, {"time": 1371, "pitch": 68, "duration": 1, "velocity": 117}, {"time": 1374, "pitch": 69, "duration": 6, "velocity": 117}, {"time": 1386, "pitch": 68, "duration": 4, "velocity": 127}, {"time": 1392, "pitch": 66, "duration": 4, "velocity": 117}, {"time": 1398, "pitch": 68, "duration": 3, "velocity": 127}, {"time": 1404, "pitch": 68, "duration": 1, "velocity": 122}, {"time": 1407, "pitch": 68, "duration": 3, "velocity": 112}, {"time": 1413, "pitch": 76, "duration": 7, "velocity": 102}, {"time": 1422, "pitch": 75, "duration": 4, "velocity": 127}, {"time": 1434, "pitch": 68, "duration": 2, "velocity": 127}, {"time": 1437, "pitch": 76, "duration": 3, "velocity": 100}, {"time": 1440, "pitch": 75, "duration": 3, "velocity": 127}, {"time": 1443, "pitch": 71, "duration": 3, "velocity": 102}, {"time": 1446, "pitch": 73, "duration": 5, "velocity": 127}, {"time": 1452, "pitch": 73, "duration": 3, "velocity": 127}, {"time": 1458, "pitch": 71, "duration": 3, "velocity": 117}, {"time": 1464, "pitch": 73, "duration": 1, "velocity": 127}, {"time": 1467, "pitch": 75, "duration": 8, "velocity": 127}, {"time": 1476, "pitch": 68, "duration": 5, "velocity": 127}, {"time": 1488, "pitch": 68, "duration": 2, "velocity": 127}, {"time": 1491, "pitch": 71, "duration": 1, "velocity": 97}, {"time": 1494, "pitch": 73, "duration": 2, "velocity": 127}, {"time": 1500, "pitch": 73, "duration": 2, "velocity": 127}, {"time": 1506, "pitch": 71, "duration": 2, "velocity": 107}, {"time": 1512, "pitch": 64, "duration": 2, "velocity": 112}, {"time": 1515, "pitch": 71, "duration": 4, "velocity": 112}, {"time": 1521, "pitch": 68, "duration": 9, "velocity": 127}, {"time": 1536, "pitch": 66, "duration": 1, "velocity": 122}, {"time": 1539, "pitch": 66, "duration": 1, "velocity": 112}, {"time": 1542, "pitch": 66, "duration": 3, "velocity": 127}, {"time": 1548, "pitch": 68, "duration": 1, "velocity": 127}, {"time": 1551, "pitch": 73, "duration": 4, "velocity": 83}, {"time": 1560, "pitch": 68, "duration": 1, "velocity": 127}, {"time": 1563, "pitch": 66, "duration": 1, "velocity": 117}, {"time": 1566, "pitch": 68, "duration": 3, "velocity": 127}, {"time": 1572, "pitch": 73, "duration": 1, "velocity": 127}, {"time": 1575, "pitch": 76, "duration": 6, "velocity": 122}, {"time": 1587, "pitch": 73, "duration": 1, "velocity": 107}, {"time": 1590, "pitch": 80, "duration": 3, "velocity": 127}, {"time": 1593, "pitch": 78, "duration": 2, "velocity": 127}, {"time": 1599, "pitch": 76, "duration": 1, "velocity": 102}, {"time": 1602, "pitch": 76, "duration": 3, "velocity": 127}, {"time": 1605, "pitch": 75, "duration": 1, "velocity": 127}, {"time": 1611, "pitch": 73, "duration": 1, "velocity": 127}, {"time": 1614, "pitch": 75, "duration": 8, "velocity": 127}, {"time": 1626, "pitch": 68, "duration": 2, "velocity": 127}, {"time": 1629, "pitch": 76, "duration": 3, "velocity": 100}, {"time": 1632, "pitch": 75, "duration": 3, "velocity": 127}, {"time": 1635, "pitch": 71, "duration": 3, "velocity": 102}, {"time": 1638, "pitch": 73, "duration": 5, "velocity": 127}, {"time": 1644, "pitch": 73, "duration": 3, "velocity": 127}, {"time": 1650, "pitch": 71, "duration": 3, "velocity": 117}, {"time": 1656, "pitch": 73, "duration": 1, "velocity": 127}, {"time": 1659, "pitch": 75, "duration": 8, "velocity": 127}, {"time": 1668, "pitch": 68, "duration": 5, "velocity": 127}, {"time": 1680, "pitch": 68, "duration": 2, "velocity": 127}, {"time": 1683, "pitch": 71, "duration": 1, "velocity": 97}, {"time": 1686, "pitch": 73, "duration": 2, "velocity": 127}, {"time": 1692, "pitch": 73, "duration": 2, "velocity": 127}, {"time": 1698, "pitch": 71, "duration": 2, "velocity": 107}, {"time": 1704, "pitch": 64, "duration": 2, "velocity": 112}, {"time": 1707, "pitch": 71, "duration": 4, "velocity": 112}, {"time": 1713, "pitch": 68, "duration": 9, "velocity": 127}, {"time": 1728, "pitch": 66, "duration": 1, "velocity": 122}, {"time": 1731, "pitch": 66, "duration": 1, "velocity": 112}, {"time": 1734, "pitch": 66, "duration": 3, "velocity": 127}, {"time": 1740, "pitch": 68, "duration": 1, "velocity": 127}, {"time": 1743, "pitch": 73, "duration": 4, "velocity": 83}, {"time": 1752, "pitch": 68, "duration": 1, "velocity": 127}, {"time": 1755, "pitch": 66, "duration": 1, "velocity": 117}, {"time": 1758, "pitch": 68, "duration": 3, "velocity": 127}, {"time": 1764, "pitch": 73, "duration": 1, "velocity": 127}, {"time": 1767, "pitch": 76, "duration": 6, "velocity": 122}, {"time": 1779, "pitch": 73, "duration": 1, "velocity": 107}, {"time": 1782, "pitch": 80, "duration": 3, "velocity": 127}, {"time": 1785, "pitch": 78, "duration": 2, "velocity": 127}, {"time": 1791, "pitch": 76, "duration": 1, "velocity": 102}, {"time": 1794, "pitch": 76, "duration": 3, "velocity": 127}, {"time": 1797, "pitch": 75, "duration": 1, "velocity": 127}, {"time": 1803, "pitch": 73, "duration": 1, "velocity": 127}, {"time": 1806, "pitch": 75, "duration": 8, "velocity": 127}, {"time": 1821, "pitch": 73, "duration": 3, "velocity": 127}, {"time": 1827, "pitch": 72, "duration": 2, "velocity": 127}, {"time": 1830, "pitch": 73, "duration": 16, "velocity": 127}, {"time": 2412, "pitch": 61, "duration": 1, "velocity": 117}, {"time": 2415, "pitch": 63, "duration": 2, "velocity": 97}, {"time": 2418, "pitch": 64, "duration": 4, "velocity": 102}, {"time": 2424, "pitch": 61, "duration": 2, "velocity": 107}, {"time": 2430, "pitch": 68, "duration": 4, "velocity": 122}, {"time": 2436, "pitch": 66, "duration": 1, "velocity": 100}, {"time": 2439, "pitch": 66, "duration": 7, "velocity": 127}, {"time": 2466, "pitch": 71, "duration": 2, "velocity": 107}, {"time": 2469, "pitch": 68, "duration": 2, "velocity": 117}, {"time": 2475, "pitch": 66, "duration": 1, "velocity": 107}, {"time": 2478, "pitch": 64, "duration": 6, "velocity": 100}, {"time": 2487, "pitch": 61, "duration": 11, "velocity": 107}, {"time": 2508, "pitch": 61, "duration": 1, "velocity": 100}, {"time": 2511, "pitch": 63, "duration": 1, "velocity": 95}, {"time": 2514, "pitch": 64, "duration": 3, "velocity": 100}, {"time": 2520, "pitch": 61, "duration": 3, "velocity": 112}, {"time": 2526, "pitch": 68, "duration": 4, "velocity": 127}, {"time": 2532, "pitch": 66, "duration": 1, "velocity": 122}, {"time": 2535, "pitch": 66, "duration": 6, "velocity": 127}, {"time": 2544, "pitch": 64, "duration": 2, "velocity": 96}, {"time": 2547, "pitch": 66, "duration": 2, "velocity": 97}, {"time": 2550, "pitch": 68, "duration": 4, "velocity": 117}, {"time": 2559, "pitch": 68, "duration": 1, "velocity": 117}, {"time": 2562, "pitch": 71, "duration": 2, "velocity": 117}, {"time": 2565, "pitch": 68, "duration": 2, "velocity": 127}, {"time": 2571, "pitch": 66, "duration": 1, "velocity": 102}, {"time": 2574, "pitch": 68, "duration": 24, "velocity": 127}, {"time": 2604, "pitch": 66, "duration": 1, "velocity": 127}, {"time": 2607, "pitch": 66, "duration": 1, "velocity": 97}, {"time": 2610, "pitch": 66, "duration": 3, "velocity": 127}, {"time": 2616, "pitch": 68, "duration": 1, "velocity": 102}, {"time": 2619, "pitch": 69, "duration": 11, "velocity": 117}, {"time": 2640, "pitch": 68, "duration": 1, "velocity": 127}, {"time": 2643, "pitch": 76, "duration": 2, "velocity": 97}, {"time": 2646, "pitch": 75, "duration": 3, "velocity": 127}, {"time": 2652, "pitch": 73, "duration": 1, "velocity": 122}, {"time": 2655, "pitch": 73, "duration": 2, "velocity": 100}, {"time": 2661, "pitch": 68, "duration": 11, "velocity": 117}, {"time": 2688, "pitch": 66, "duration": 1, "velocity": 107}, {"time": 2691, "pitch": 68, "duration": 1, "velocity": 99}, {"time": 2694, "pitch": 69, "duration": 8, "velocity": 117}, {"time": 2709, "pitch": 66, "duration": 3, "velocity": 122}, {"time": 2715, "pitch": 68, "duration": 1, "velocity": 117}, {"time": 2718, "pitch": 69, "duration": 6, "velocity": 117}, {"time": 2730, "pitch": 68, "duration": 4, "velocity": 127}, {"time": 2736, "pitch": 66, "duration": 4, "velocity": 117}, {"time": 2742, "pitch": 68, "duration": 3, "velocity": 127}, {"time": 2748, "pitch": 68, "duration": 1, "velocity": 122}, {"time": 2751, "pitch": 68, "duration": 3, "velocity": 112}, {"time": 2757, "pitch": 76, "duration": 7, "velocity": 102}, {"time": 2766, "pitch": 75, "duration": 4, "velocity": 127}, {"time": 2778, "pitch": 68, "duration": 2, "velocity": 127}, {"time": 2781, "pitch": 76, "duration": 3, "velocity": 100}, {"time": 2784, "pitch": 75, "duration": 3, "velocity": 127}, {"time": 2787, "pitch": 71, "duration": 3, "velocity": 102}, {"time": 2790, "pitch": 73, "duration": 5, "velocity": 127}, {"time": 2796, "pitch": 73, "duration": 3, "velocity": 127}, {"time": 2802, "pitch": 71, "duration": 3, "velocity": 117}, {"time": 2808, "pitch": 73, "duration": 1, "velocity": 127}, {"time": 2811, "pitch": 75, "duration": 8, "velocity": 127}, {"time": 2820, "pitch": 68, "duration": 5, "velocity": 127}, {"time": 2832, "pitch": 68, "duration": 2, "velocity": 127}, {"time": 2835, "pitch": 71, "duration": 1, "velocity": 97}, {"time": 2838, "pitch": 73, "duration": 2, "velocity": 127}, {"time": 2844, "pitch": 73, "duration": 2, "velocity": 127}, {"time": 2850, "pitch": 71, "duration": 2, "velocity": 107}, {"time": 2856, "pitch": 64, "duration": 2, "velocity": 112}, {"time": 2859, "pitch": 71, "duration": 4, "velocity": 112}, {"time": 2865, "pitch": 68, "duration": 9, "velocity": 127}, {"time": 2880, "pitch": 66, "duration": 1, "velocity": 122}, {"time": 2883, "pitch": 66, "duration": 1, "velocity": 112}, {"time": 2886, "pitch": 66, "duration": 3, "velocity": 127}, {"time": 2892, "pitch": 68, "duration": 1, "velocity": 127}, {"time": 2895, "pitch": 73, "duration": 4, "velocity": 83}, {"time": 2904, "pitch": 68, "duration": 1, "velocity": 127}, {"time": 2907, "pitch": 66, "duration": 1, "velocity": 117}, {"time": 2910, "pitch": 68, "duration": 3, "velocity": 127}, {"time": 2916, "pitch": 73, "duration": 1, "velocity": 127}, {"time": 2919, "pitch": 76, "duration": 6, "velocity": 122}, {"time": 2931, "pitch": 73, "duration": 1, "velocity": 107}, {"time": 2934, "pitch": 80, "duration": 3, "velocity": 127}, {"time": 2937, "pitch": 78, "duration": 2, "velocity": 127}, {"time": 2943, "pitch": 76, "duration": 1, "velocity": 102}, {"time": 2946, "pitch": 76, "duration": 3, "velocity": 127}, {"time": 2949, "pitch": 75, "duration": 1, "velocity": 127}, {"time": 2955, "pitch": 73, "duration": 1, "velocity": 127}, {"time": 2958, "pitch": 75, "duration": 8, "velocity": 127}, {"time": 2970, "pitch": 68, "duration": 2, "velocity": 127}, {"time": 2973, "pitch": 76, "duration": 3, "velocity": 100}, {"time": 2976, "pitch": 75, "duration": 3, "velocity": 127}, {"time": 2979, "pitch": 71, "duration": 3, "velocity": 102}, {"time": 2982, "pitch": 73, "duration": 5, "velocity": 127}, {"time": 2988, "pitch": 73, "duration": 3, "velocity": 127}, {"time": 2994, "pitch": 71, "duration": 3, "velocity": 117}, {"time": 3000, "pitch": 73, "duration": 1, "velocity": 127}, {"time": 3003, "pitch": 75, "duration": 8, "velocity": 127}, {"time": 3012, "pitch": 68, "duration": 5, "velocity": 127}, {"time": 3024, "pitch": 68, "duration": 2, "velocity": 127}, {"time": 3027, "pitch": 71, "duration": 1, "velocity": 97}, {"time": 3030, "pitch": 73, "duration": 2, "velocity": 127}, {"time": 3036, "pitch": 73, "duration": 2, "velocity": 127}, {"time": 3042, "pitch": 71, "duration": 2, "velocity": 107}, {"time": 3048, "pitch": 64, "duration": 2, "velocity": 112}, {"time": 3051, "pitch": 71, "duration": 4, "velocity": 112}, {"time": 3057, "pitch": 68, "duration": 9, "velocity": 127}, {"time": 3072, "pitch": 66, "duration": 1, "velocity": 122}, {"time": 3075, "pitch": 66, "duration": 1, "velocity": 112}, {"time": 3078, "pitch": 66, "duration": 3, "velocity": 127}, {"time": 3084, "pitch": 68, "duration": 1, "velocity": 127}, {"time": 3087, "pitch": 73, "duration": 4, "velocity": 83}, {"time": 3096, "pitch": 68, "duration": 1, "velocity": 127}, {"time": 3099, "pitch": 66, "duration": 1, "velocity": 117}, {"time": 3102, "pitch": 68, "duration": 3, "velocity": 127}, {"time": 3108, "pitch": 73, "duration": 1, "velocity": 127}, {"time": 3111, "pitch": 76, "duration": 6, "velocity": 122}, {"time": 3123, "pitch": 73, "duration": 1, "velocity": 107}, {"time": 3126, "pitch": 80, "duration": 3, "velocity": 127}, {"time": 3129, "pitch": 78, "duration": 2, "velocity": 127}, {"time": 3135, "pitch": 76, "duration": 1, "velocity": 102}, {"time": 3138, "pitch": 76, "duration": 3, "velocity": 127}, {"time": 3141, "pitch": 75, "duration": 1, "velocity": 127}, {"time": 3147, "pitch": 73, "duration": 1, "velocity": 127}, {"time": 3150, "pitch": 75, "duration": 8, "velocity": 127}, {"time": 3165, "pitch": 73, "duration": 3, "velocity": 127}, {"time": 3171, "pitch": 72, "duration": 2, "velocity": 127}, {"time": 3174, "pitch": 73, "duration": 16, "velocity": 127}, {"time": 3210, "pitch": 68, "duration": 2, "velocity": 127}, {"time": 3213, "pitch": 76, "duration": 3, "velocity": 100}, {"time": 3216, "pitch": 75, "duration": 3, "velocity": 127}, {"time": 3219, "pitch": 71, "duration": 3, "velocity": 102}, {"time": 3222, "pitch": 73, "duration": 5, "velocity": 127}, {"time": 3228, "pitch": 73, "duration": 3, "velocity": 127}, {"time": 3234, "pitch": 71, "duration": 3, "velocity": 117}, {"time": 3240, "pitch": 73, "duration": 1, "velocity": 127}, {"time": 3243, "pitch": 75, "duration": 8, "velocity": 127}, {"time": 3252, "pitch": 68, "duration": 5, "velocity": 127}, {"time": 3264, "pitch": 68, "duration": 2, "velocity": 127}, {"time": 3267, "pitch": 71, "duration": 1, "velocity": 97}, {"time": 3270, "pitch": 73, "duration": 2, "velocity": 127}, {"time": 3276, "pitch": 73, "duration": 2, "velocity": 127}, {"time": 3282, "pitch": 71, "duration": 2, "velocity": 107}, {"time": 3288, "pitch": 64, "duration": 2, "velocity": 112}, {"time": 3291, "pitch": 71, "duration": 4, "velocity": 112}, {"time": 3297, "pitch": 68, "duration": 9, "velocity": 127}, {"time": 3312, "pitch": 66, "duration": 1, "velocity": 122}, {"time": 3315, "pitch": 66, "duration": 1, "velocity": 112}, {"time": 3318, "pitch": 66, "duration": 3, "velocity": 127}, {"time": 3324, "pitch": 68, "duration": 1, "velocity": 127}, {"time": 3327, "pitch": 73, "duration": 4, "velocity": 83}, {"time": 3336, "pitch": 68, "duration": 1, "velocity": 127}, {"time": 3339, "pitch": 66, "duration": 1, "velocity": 117}, {"time": 3342, "pitch": 68, "duration": 3, "velocity": 127}, {"time": 3348, "pitch": 73, "duration": 1, "velocity": 127}, {"time": 3351, "pitch": 76, "duration": 6, "velocity": 122}, {"time": 3363, "pitch": 73, "duration": 1, "velocity": 107}, {"time": 3366, "pitch": 80, "duration": 3, "velocity": 127}, {"time": 3369, "pitch": 78, "duration": 2, "velocity": 127}, {"time": 3375, "pitch": 76, "duration": 1, "velocity": 102}, {"time": 3378, "pitch": 76, "duration": 3, "velocity": 127}, {"time": 3381, "pitch": 75, "duration": 1, "velocity": 127}, {"time": 3387, "pitch": 73, "duration": 1, "velocity": 127}, {"time": 3390, "pitch": 75, "duration": 8, "velocity": 127}, {"time": 3402, "pitch": 68, "duration": 2, "velocity": 127}, {"time": 3405, "pitch": 76, "duration": 3, "velocity": 100}, {"time": 3408, "pitch": 75, "duration": 3, "velocity": 127}, {"time": 3411, "pitch": 71, "duration": 3, "velocity": 102}, {"time": 3414, "pitch": 73, "duration": 5, "velocity": 127}, {"time": 3420, "pitch": 73, "duration": 3, "velocity": 127}, {"time": 3426, "pitch": 71, "duration": 3, "velocity": 117}, {"time": 3432, "pitch": 73, "duration": 1, "velocity": 127}, {"time": 3435, "pitch": 75, "duration": 8, "velocity": 127}, {"time": 3444, "pitch": 68, "duration": 5, "velocity": 127}, {"time": 3456, "pitch": 68, "duration": 2, "velocity": 127}, {"time": 3459, "pitch": 71, "duration": 1, "velocity": 97}, {"time": 3462, "pitch": 73, "duration": 2, "velocity": 127}, {"time": 3468, "pitch": 73, "duration": 2, "velocity": 127}, {"time": 3474, "pitch": 71, "duration": 2, "velocity": 107}, {"time": 3480, "pitch": 64, "duration": 2, "velocity": 112}, {"time": 3483, "pitch": 71, "duration": 4, "velocity": 112}, {"time": 3489, "pitch": 68, "duration": 9, "velocity": 127}, {"time": 3504, "pitch": 66, "duration": 1, "velocity": 122}, {"time": 3507, "pitch": 66, "duration": 1, "velocity": 112}, {"time": 3510, "pitch": 66, "duration": 3, "velocity": 127}, {"time": 3516, "pitch": 68, "duration": 1, "velocity": 127}, {"time": 3519, "pitch": 73, "duration": 4, "velocity": 83}, {"time": 3528, "pitch": 68, "duration": 1, "velocity": 127}, {"time": 3531, "pitch": 66, "duration": 1, "velocity": 117}, {"time": 3534, "pitch": 68, "duration": 3, "velocity": 127}, {"time": 3540, "pitch": 73, "duration": 1, "velocity": 127}, {"time": 3543, "pitch": 76, "duration": 6, "velocity": 122}, {"time": 3555, "pitch": 73, "duration": 1, "velocity": 107}, {"time": 3558, "pitch": 80, "duration": 3, "velocity": 127}, {"time": 3561, "pitch": 78, "duration": 2, "velocity": 127}, {"time": 3567, "pitch": 76, "duration": 1, "velocity": 102}, {"time": 3570, "pitch": 76, "duration": 3, "velocity": 127}, {"time": 3573, "pitch": 75, "duration": 1, "velocity": 127}, {"time": 3579, "pitch": 73, "duration": 1, "velocity": 127}, {"time": 3582, "pitch": 75, "duration": 8, "velocity": 127}, {"time": 3597, "pitch": 73, "duration": 3, "velocity": 127}, {"time": 3603, "pitch": 72, "duration": 2, "velocity": 127}, {"time": 3606, "pitch": 73, "duration": 16, "velocity": 127}]}, {"program": 0, "is_drum": false, "name": "PIANO", "notes": [{"time": 54, "pitch": 37, "duration": 38, "velocity": 75}, {"time": 60, "pitch": 44, "duration": 32, "velocity": 45}, {"time": 66, "pitch": 52, "duration": 31, "velocity": 71}, {"time": 72, "pitch": 49, "duration": 8, "velocity": 58}, {"time": 78, "pitch": 56, "duration": 10, "velocity": 64}, {"time": 78, "pitch": 61, "duration": 11, "velocity": 61}, {"time": 84, "pitch": 49, "duration": 9, "velocity": 59}, {"time": 90, "pitch": 61, "duration": 12, "velocity": 99}, {"time": 96, "pitch": 56, "duration": 6, "velocity": 52}, {"time": 102, "pitch": 44, "duration": 22, "velocity": 83}, {"time": 108, "pitch": 51, "duration": 18, "velocity": 37}, {"time": 114, "pitch": 56, "duration": 12, "velocity": 47}, {"time": 114, "pitch": 63, "duration": 23, "velocity": 72}, {"time": 120, "pitch": 68, "duration": 14, "velocity": 56}, {"time": 126, "pitch": 44, "duration": 16, "velocity": 63}, {"time": 126, "pitch": 60, "duration": 10, "velocity": 71}, {"time": 132, "pitch": 51, "duration": 9, "velocity": 32}, {"time": 138, "pitch": 56, "duration": 2, "velocity": 54}, {"time": 138, "pitch": 63, "duration": 13, "velocity": 69}, {"time": 138, "pitch": 68, "duration": 12, "velocity": 86}, {"time": 144, "pitch": 60, "duration": 6, "velocity": 82}, {"time": 150, "pitch": 42, "duration": 21, "velocity": 93}, {"time": 156, "pitch": 49, "duration": 14, "velocity": 34}, {"time": 162, "pitch": 54, "duration": 9, "velocity": 69}, {"time": 162, "pitch": 61, "duration": 12, "velocity": 99}, {"time": 168, "pitch": 57, "duration": 6, "velocity": 88}, {"time": 171, "pitch": 66, "duration": 3, "velocity": 21}, {"time": 174, "pitch": 45, "duration": 14, "velocity": 69}, {"time": 180, "pitch": 52, "duration": 8, "velocity": 42}, {"time": 186, "pitch": 64, "duration": 12, "velocity": 88}, {"time": 192, "pitch": 61, "duration": 6, "velocity": 77}, {"time": 198, "pitch": 44, "duration": 22, "velocity": 95}, {"time": 204, "pitch": 51, "duration": 17, "velocity": 44}, {"time": 210, "pitch": 68, "duration": 8, "velocity": 97}, {"time": 216, "pitch": 63, "duration": 5, "velocity": 92}, {"time": 222, "pitch": 44, "duration": 1, "velocity": 69}, {"time": 222, "pitch": 51, "duration": 1, "velocity": 55}, {"time": 222, "pitch": 56, "duration": 2, "velocity": 92}, {"time": 222, "pitch": 60, "duration": 2, "velocity": 93}, {"time": 222, "pitch": 63, "duration": 2, "velocity": 102}, {"time": 222, "pitch": 68, "duration": 2, "velocity": 97}, {"time": 225, "pitch": 44, "duration": 3, "velocity": 72}, {"time": 225, "pitch": 51, "duration": 1, "velocity": 35}, {"time": 225, "pitch": 56, "duration": 2, "velocity": 69}, {"time": 225, "pitch": 60, "duration": 2, "velocity": 97}, {"time": 225, "pitch": 63, "duration": 2, "velocity": 102}, {"time": 225, "pitch": 68, "duration": 2, "velocity": 102}, {"time": 246, "pitch": 37, "duration": 16, "velocity": 92}, {"time": 249, "pitch": 44, "duration": 12, "velocity": 71}, {"time": 252, "pitch": 49, "duration": 7, "velocity": 92}, {"time": 255, "pitch": 52, "duration": 7, "velocity": 92}, {"time": 258, "pitch": 61, "duration": 12, "velocity": 127}, {"time": 261, "pitch": 49, "duration": 3, "velocity": 100}, {"time": 264, "pitch": 56, "duration": 6, "velocity": 100}, {"time": 267, "pitch": 52, "duration": 3, "velocity": 93}, {"time": 270, "pitch": 44, "duration": 17, "velocity": 88}, {"time": 273, "pitch": 51, "duration": 14, "velocity": 34}, {"time": 276, "pitch": 56, "duration": 7, "velocity": 95}, {"time": 279, "pitch": 59, "duration": 7, "velocity": 96}, {"time": 282, "pitch": 68, "duration": 10, "velocity": 127}, {"time": 285, "pitch": 56, "duration": 3, "velocity": 95}, {"time": 288, "pitch": 63, "duration": 5, "velocity": 117}, {"time": 291, "pitch": 59, "duration": 3, "velocity": 102}, {"time": 294, "pitch": 45, "duration": 11, "velocity": 93}, {"time": 297, "pitch": 52, "duration": 8, "velocity": 95}, {"time": 300, "pitch": 57, "duration": 6, "velocity": 99}, {"time": 303, "pitch": 61, "duration": 3, "velocity": 127}, {"time": 306, "pitch": 47, "duration": 7, "velocity": 88}, {"time": 309, "pitch": 59, "duration": 9, "velocity": 92}, {"time": 312, "pitch": 63, "duration": 6, "velocity": 97}, {"time": 315, "pitch": 66, "duration": 3, "velocity": 107}, {"time": 318, "pitch": 40, "duration": 16, "velocity": 76}, {"time": 321, "pitch": 47, "duration": 14, "velocity": 60}, {"time": 324, "pitch": 52, "duration": 8, "velocity": 88}, {"time": 327, "pitch": 56, "duration": 5, "velocity": 93}, {"time": 330, "pitch": 64, "duration": 12, "velocity": 86}, {"time": 333, "pitch": 52, "duration": 3, "velocity": 92}, {"time": 336, "pitch": 56, "duration": 6, "velocity": 99}, {"time": 339, "pitch": 59, "duration": 3, "velocity": 76}, {"time": 342, "pitch": 42, "duration": 17, "velocity": 82}, {"time": 345, "pitch": 49, "duration": 13, "velocity": 37}, {"time": 348, "pitch": 54, "duration": 6, "velocity": 74}, {"time": 351, "pitch": 57, "duration": 10, "velocity": 92}, {"time": 354, "pitch": 66, "duration": 11, "velocity": 107}, {"time": 357, "pitch": 54, "duration": 1, "velocity": 95}, {"time": 360, "pitch": 61, "duration": 5, "velocity": 100}, {"time": 363, "pitch": 57, "duration": 3, "velocity": 95}, {"time": 366, "pitch": 37, "duration": 17, "velocity": 92}, {"time": 369, "pitch": 44, "duration": 12, "velocity": 71}, {"time": 372, "pitch": 49, "duration": 6, "velocity": 86}, {"time": 375, "pitch": 52, "duration": 10, "velocity": 90}, {"time": 378, "pitch": 61, "duration": 11, "velocity": 127}, {"time": 381, "pitch": 49, "duration": 2, "velocity": 93}, {"time": 384, "pitch": 56, "duration": 4, "velocity": 117}, {"time": 387, "pitch": 52, "duration": 2, "velocity": 95}, {"time": 390, "pitch": 45, "duration": 17, "velocity": 96}, {"time": 393, "pitch": 49, "duration": 13, "velocity": 93}, {"time": 396, "pitch": 52, "duration": 6, "velocity": 89}, {"time": 399, "pitch": 57, "duration": 5, "velocity": 100}, {"time": 402, "pitch": 64, "duration": 8, "velocity": 102}, {"time": 405, "pitch": 52, "duration": 2, "velocity": 96}, {"time": 408, "pitch": 61, "duration": 2, "velocity": 99}, {"time": 411, "pitch": 57, "duration": 1, "velocity": 97}, {"time": 414, "pitch": 44, "duration": 1, "velocity": 90}, {"time": 414, "pitch": 51, "duration": 1, "velocity": 102}, {"time": 414, "pitch": 56, "duration": 2, "velocity": 112}, {"time": 414, "pitch": 60, "duration": 2, "velocity": 107}, {"time": 414, "pitch": 63, "duration": 2, "velocity": 112}, {"time": 417, "pitch": 44, "duration": 3, "velocity": 100}, {"time": 417, "pitch": 51, "duration": 3, "velocity": 107}, {"time": 417, "pitch": 56, "duration": 3, "velocity": 102}, {"time": 417, "pitch": 60, "duration": 3, "velocity": 100}, {"time": 417, "pitch": 63, "duration": 3, "velocity": 107}, {"time": 438, "pitch": 37, "duration": 15, "velocity": 90}, {"time": 441, "pitch": 44, "duration": 12, "velocity": 38}, {"time": 444, "pitch": 49, "duration": 7, "velocity": 93}, {"time": 447, "pitch": 52, "duration": 7, "velocity": 90}, {"time": 450, "pitch": 61, "duration": 12, "velocity": 117}, {"time": 453, "pitch": 49, "duration": 2, "velocity": 93}, {"time": 456, "pitch": 56, "duration": 6, "velocity": 99}, {"time": 459, "pitch": 52, "duration": 3, "velocity": 89}, {"time": 462, "pitch": 44, "duration": 17, "velocity": 88}, {"time": 465, "pitch": 51, "duration": 13, "velocity": 40}, {"time": 468, "pitch": 56, "duration": 7, "velocity": 95}, {"time": 471, "pitch": 59, "duration": 9, "velocity": 96}, {"time": 474, "pitch": 68, "duration": 10, "velocity": 122}, {"time": 477, "pitch": 56, "duration": 2, "velocity": 97}, {"time": 480, "pitch": 63, "duration": 4, "velocity": 107}, {"time": 483, "pitch": 59, "duration": 3, "velocity": 102}, {"time": 486, "pitch": 45, "duration": 10, "velocity": 89}, {"time": 489, "pitch": 52, "duration": 8, "velocity": 86}, {"time": 492, "pitch": 57, "duration": 5, "velocity": 99}, {"time": 495, "pitch": 64, "duration": 3, "velocity": 99}, {"time": 498, "pitch": 47, "duration": 5, "velocity": 85}, {"time": 501, "pitch": 59, "duration": 6, "velocity": 88}, {"time": 504, "pitch": 63, "duration": 6, "velocity": 102}, {"time": 507, "pitch": 66, "duration": 3, "velocity": 117}, {"time": 510, "pitch": 40, "duration": 16, "velocity": 77}, {"time": 513, "pitch": 47, "duration": 13, "velocity": 78}, {"time": 516, "pitch": 52, "duration": 7, "velocity": 83}, {"time": 519, "pitch": 56, "duration": 6, "velocity": 107}, {"time": 522, "pitch": 64, "duration": 12, "velocity": 69}, {"time": 525, "pitch": 52, "duration": 2, "velocity": 77}, {"time": 528, "pitch": 56, "duration": 5, "velocity": 102}, {"time": 531, "pitch": 59, "duration": 3, "velocity": 68}, {"time": 534, "pitch": 42, "duration": 17, "velocity": 89}, {"time": 537, "pitch": 49, "duration": 13, "velocity": 66}, {"time": 540, "pitch": 54, "duration": 6, "velocity": 82}, {"time": 543, "pitch": 57, "duration": 8, "velocity": 89}, {"time": 546, "pitch": 66, "duration": 12, "velocity": 117}, {"time": 549, "pitch": 54, "duration": 1, "velocity": 99}, {"time": 552, "pitch": 61, "duration": 6, "velocity": 107}, {"time": 555, "pitch": 57, "duration": 3, "velocity": 92}, {"time": 558, "pitch": 37, "duration": 17, "velocity": 86}, {"time": 561, "pitch": 44, "duration": 13, "velocity": 57}, {"time": 564, "pitch": 49, "duration": 7, "velocity": 79}, {"time": 567, "pitch": 52, "duration": 10, "velocity": 86}, {"time": 570, "pitch": 61, "duration": 12, "velocity": 127}, {"time": 573, "pitch": 49, "duration": 2, "velocity": 82}, {"time": 576, "pitch": 56, "duration": 5, "velocity": 97}, {"time": 579, "pitch": 52, "duration": 2, "velocity": 95}, {"time": 582, "pitch": 45, "duration": 17, "velocity": 82}, {"time": 585, "pitch": 52, "duration": 10, "velocity": 82}, {"time": 588, "pitch": 57, "duration": 4, "velocity": 92}, {"time": 591, "pitch": 61, "duration": 2, "velocity": 112}, {"time": 594, "pitch": 64, "duration": 11, "velocity": 96}, {"time": 597, "pitch": 52, "duration": 2, "velocity": 81}, {"time": 600, "pitch": 61, "duration": 5, "velocity": 117}, {"time": 603, "pitch": 57, "duration": 3, "velocity": 95}, {"time": 606, "pitch": 44, "duration": 20, "velocity": 88}, {"time": 609, "pitch": 51, "duration": 16, "velocity": 33}, {"time": 612, "pitch": 56, "duration": 6, "velocity": 88}, {"time": 615, "pitch": 60, "duration": 5, "velocity": 72}, {"time": 618, "pitch": 68, "duration": 12, "velocity": 122}, {"time": 621, "pitch": 56, "duration": 3, "velocity": 89}, {"time": 624, "pitch": 63, "duration": 6, "velocity": 107}, {"time": 627, "pitch": 60, "duration": 3, "velocity": 99}, {"time": 630, "pitch": 37, "duration": 22, "velocity": 97}, {"time": 633, "pitch": 49, "duration": 10, "velocity": 66}, {"time": 636, "pitch": 52, "duration": 10, "velocity": 68}, {"time": 639, "pitch": 56, "duration": 4, "velocity": 79}, {"time": 642, "pitch": 61, "duration": 34, "velocity": 102}, {"time": 645, "pitch": 49, "duration": 10, "velocity": 76}, {"time": 648, "pitch": 56, "duration": 28, "velocity": 93}, {"time": 651, "pitch": 52, "duration": 21, "velocity": 82}, {"time": 654, "pitch": 37, "duration": 16, "velocity": 88}, {"time": 657, "pitch": 49, "duration": 13, "velocity": 33}, {"time": 678, "pitch": 45, "duration": 17, "velocity": 79}, {"time": 681, "pitch": 52, "duration": 11, "velocity": 60}, {"time": 684, "pitch": 57, "duration": 5, "velocity": 73}, {"time": 687, "pitch": 61, "duration": 3, "velocity": 59}, {"time": 690, "pitch": 64, "duration": 13, "velocity": 88}, {"time": 693, "pitch": 52, "duration": 1, "velocity": 27}, {"time": 696, "pitch": 61, "duration": 6, "velocity": 60}, {"time": 702, "pitch": 47, "duration": 17, "velocity": 72}, {"time": 708, "pitch": 54, "duration": 11, "velocity": 71}, {"time": 714, "pitch": 66, "duration": 12, "velocity": 122}, {"time": 720, "pitch": 63, "duration": 6, "velocity": 72}, {"time": 723, "pitch": 59, "duration": 3, "velocity": 72}, {"time": 726, "pitch": 44, "duration": 15, "velocity": 89}, {"time": 732, "pitch": 51, "duration": 9, "velocity": 47}, {"time": 738, "pitch": 56, "duration": 3, "velocity": 47}, {"time": 738, "pitch": 63, "duration": 11, "velocity": 99}, {"time": 744, "pitch": 59, "duration": 6, "velocity": 76}, {"time": 750, "pitch": 37, "duration": 16, "velocity": 75}, {"time": 756, "pitch": 44, "duration": 10, "velocity": 37}, {"time": 762, "pitch": 49, "duration": 4, "velocity": 52}, {"time": 762, "pitch": 56, "duration": 11, "velocity": 96}, {"time": 768, "pitch": 52, "duration": 5, "velocity": 78}, {"time": 774, "pitch": 45, "duration": 15, "velocity": 82}, {"time": 780, "pitch": 52, "duration": 10, "velocity": 70}, {"time": 786, "pitch": 64, "duration": 12, "velocity": 97}, {"time": 792, "pitch": 61, "duration": 6, "velocity": 93}, {"time": 798, "pitch": 47, "duration": 15, "velocity": 77}, {"time": 804, "pitch": 54, "duration": 8, "velocity": 81}, {"time": 810, "pitch": 66, "duration": 12, "velocity": 99}, {"time": 816, "pitch": 63, "duration": 7, "velocity": 67}, {"time": 822, "pitch": 40, "duration": 15, "velocity": 86}, {"time": 828, "pitch": 47, "duration": 10, "velocity": 49}, {"time": 834, "pitch": 52, "duration": 5, "velocity": 73}, {"time": 834, "pitch": 64, "duration": 12, "velocity": 72}, {"time": 840, "pitch": 56, "duration": 5, "velocity": 89}, {"time": 846, "pitch": 44, "duration": 17, "velocity": 86}, {"time": 852, "pitch": 51, "duration": 11, "velocity": 38}, {"time": 858, "pitch": 56, "duration": 4, "velocity": 63}, {"time": 858, "pitch": 60, "duration": 2, "velocity": 65}, {"time": 858, "pitch": 63, "duration": 13, "velocity": 99}, {"time": 864, "pitch": 60, "duration": 7, "velocity": 66}, {"time": 870, "pitch": 42, "duration": 22, "velocity": 83}, {"time": 876, "pitch": 49, "duration": 18, "velocity": 44}, {"time": 882, "pitch": 54, "duration": 12, "velocity": 52}, {"time": 882, "pitch": 61, "duration": 22, "velocity": 88}, {"time": 888, "pitch": 57, "duration": 21, "velocity": 66}, {"time": 894, "pitch": 42, "duration": 16, "velocity": 63}, {"time": 900, "pitch": 49, "duration": 9, "velocity": 52}, {"time": 906, "pitch": 54, "duration": 2, "velocity": 50}, {"time": 906, "pitch": 66, "duration": 12, "velocity": 102}, {"time": 909, "pitch": 61, "duration": 9, "velocity": 82}, {"time": 912, "pitch": 57, "duration": 6, "velocity": 66}, {"time": 918, "pitch": 37, "duration": 22, "velocity": 83}, {"time": 924, "pitch": 44, "duration": 18, "velocity": 36}, {"time": 930, "pitch": 49, "duration": 13, "velocity": 69}, {"time": 930, "pitch": 61, "duration": 20, "velocity": 97}, {"time": 936, "pitch": 56, "duration": 16, "velocity": 85}, {"time": 942, "pitch": 37, "duration": 15, "velocity": 62}, {"time": 942, "pitch": 52, "duration": 12, "velocity": 79}, {"time": 945, "pitch": 49, "duration": 2, "velocity": 20}, {"time": 948, "pitch": 44, "duration": 8, "velocity": 59}, {"time": 954, "pitch": 49, "duration": 4, "velocity": 71}, {"time": 954, "pitch": 61, "duration": 11, "velocity": 112}, {"time": 960, "pitch": 56, "duration": 5, "velocity": 95}, {"time": 966, "pitch": 45, "duration": 22, "velocity": 88}, {"time": 972, "pitch": 52, "duration": 18, "velocity": 48}, {"time": 978, "pitch": 64, "duration": 21, "velocity": 96}, {"time": 984, "pitch": 61, "duration": 14, "velocity": 86}, {"time": 990, "pitch": 45, "duration": 17, "velocity": 81}, {"time": 996, "pitch": 52, "duration": 11, "velocity": 50}, {"time": 1002, "pitch": 64, "duration": 13, "velocity": 92}, {"time": 1008, "pitch": 61, "duration": 6, "velocity": 73}, {"time": 1014, "pitch": 44, "duration": 21, "velocity": 81}, {"time": 1017, "pitch": 51, "duration": 21, "velocity": 34}, {"time": 1020, "pitch": 56, "duration": 7, "velocity": 86}, {"time": 1023, "pitch": 60, "duration": 5, "velocity": 61}, {"time": 1026, "pitch": 63, "duration": 7, "velocity": 117}, {"time": 1029, "pitch": 56, "duration": 21, "velocity": 51}, {"time": 1032, "pitch": 60, "duration": 22, "velocity": 74}, {"time": 1038, "pitch": 44, "duration": 17, "velocity": 85}, {"time": 1044, "pitch": 51, "duration": 11, "velocity": 46}, {"time": 1050, "pitch": 68, "duration": 12, "velocity": 117}, {"time": 1053, "pitch": 56, "duration": 3, "velocity": 85}, {"time": 1056, "pitch": 63, "duration": 7, "velocity": 97}, {"time": 1062, "pitch": 45, "duration": 16, "velocity": 90}, {"time": 1068, "pitch": 52, "duration": 11, "velocity": 51}, {"time": 1074, "pitch": 64, "duration": 12, "velocity": 102}, {"time": 1080, "pitch": 61, "duration": 6, "velocity": 102}, {"time": 1086, "pitch": 47, "duration": 16, "velocity": 83}, {"time": 1092, "pitch": 54, "duration": 8, "velocity": 73}, {"time": 1098, "pitch": 66, "duration": 12, "velocity": 122}, {"time": 1101, "pitch": 54, "duration": 2, "velocity": 70}, {"time": 1104, "pitch": 63, "duration": 6, "velocity": 70}, {"time": 1107, "pitch": 59, "duration": 3, "velocity": 89}, {"time": 1110, "pitch": 44, "duration": 16, "velocity": 97}, {"time": 1116, "pitch": 51, "duration": 9, "velocity": 61}, {"time": 1122, "pitch": 56, "duration": 3, "velocity": 69}, {"time": 1122, "pitch": 59, "duration": 1, "velocity": 26}, {"time": 1122, "pitch": 68, "duration": 12, "velocity": 102}, {"time": 1128, "pitch": 63, "duration": 6, "velocity": 79}, {"time": 1134, "pitch": 37, "duration": 17, "velocity": 93}, {"time": 1140, "pitch": 44, "duration": 10, "velocity": 44}, {"time": 1146, "pitch": 49, "duration": 4, "velocity": 59}, {"time": 1146, "pitch": 61, "duration": 12, "velocity": 107}, {"time": 1149, "pitch": 56, "duration": 9, "velocity": 73}, {"time": 1152, "pitch": 52, "duration": 5, "velocity": 82}, {"time": 1158, "pitch": 45, "duration": 18, "velocity": 79}, {"time": 1164, "pitch": 52, "duration": 7, "velocity": 61}, {"time": 1170, "pitch": 64, "duration": 12, "velocity": 95}, {"time": 1173, "pitch": 52, "duration": 4, "velocity": 55}, {"time": 1176, "pitch": 61, "duration": 6, "velocity": 78}, {"time": 1182, "pitch": 47, "duration": 17, "velocity": 82}, {"time": 1188, "pitch": 54, "duration": 7, "velocity": 58}, {"time": 1194, "pitch": 66, "duration": 11, "velocity": 107}, {"time": 1197, "pitch": 54, "duration": 2, "velocity": 66}, {"time": 1200, "pitch": 63, "duration": 6, "velocity": 85}, {"time": 1203, "pitch": 59, "duration": 4, "velocity": 81}, {"time": 1206, "pitch": 40, "duration": 16, "velocity": 81}, {"time": 1209, "pitch": 47, "duration": 13, "velocity": 47}, {"time": 1212, "pitch": 52, "duration": 7, "velocity": 81}, {"time": 1215, "pitch": 56, "duration": 5, "velocity": 82}, {"time": 1218, "pitch": 64, "duration": 12, "velocity": 75}, {"time": 1221, "pitch": 52, "duration": 2, "velocity": 72}, {"time": 1224, "pitch": 56, "duration": 6, "velocity": 90}, {"time": 1230, "pitch": 44, "duration": 17, "velocity": 93}, {"time": 1233, "pitch": 51, "duration": 14, "velocity": 33}, {"time": 1236, "pitch": 56, "duration": 7, "velocity": 95}, {"time": 1239, "pitch": 60, "duration": 6, "velocity": 79}, {"time": 1242, "pitch": 68, "duration": 13, "velocity": 127}, {"time": 1245, "pitch": 56, "duration": 2, "velocity": 102}, {"time": 1248, "pitch": 63, "duration": 7, "velocity": 117}, {"time": 1251, "pitch": 60, "duration": 4, "velocity": 96}, {"time": 1254, "pitch": 42, "duration": 22, "velocity": 73}, {"time": 1257, "pitch": 49, "duration": 21, "velocity": 45}, {"time": 1260, "pitch": 54, "duration": 18, "velocity": 81}, {"time": 1266, "pitch": 66, "duration": 22, "velocity": 127}, {"time": 1272, "pitch": 61, "duration": 17, "velocity": 96}, {"time": 1275, "pitch": 57, "duration": 17, "velocity": 90}, {"time": 1278, "pitch": 42, "duration": 16, "velocity": 69}, {"time": 1284, "pitch": 49, "duration": 8, "velocity": 41}, {"time": 1290, "pitch": 54, "duration": 2, "velocity": 90}, {"time": 1290, "pitch": 66, "duration": 12, "velocity": 122}, {"time": 1293, "pitch": 61, "duration": 10, "velocity": 97}, {"time": 1296, "pitch": 57, "duration": 7, "velocity": 90}, {"time": 1302, "pitch": 37, "duration": 22, "velocity": 88}, {"time": 1308, "pitch": 44, "duration": 7, "velocity": 41}, {"time": 1314, "pitch": 49, "duration": 19, "velocity": 74}, {"time": 1314, "pitch": 56, "duration": 22, "velocity": 97}, {"time": 1314, "pitch": 61, "duration": 11, "velocity": 89}, {"time": 1320, "pitch": 44, "duration": 5, "velocity": 29}, {"time": 1326, "pitch": 37, "duration": 15, "velocity": 79}, {"time": 1326, "pitch": 61, "duration": 6, "velocity": 52}, {"time": 1326, "pitch": 64, "duration": 8, "velocity": 72}, {"time": 1332, "pitch": 44, "duration": 9, "velocity": 66}, {"time": 1338, "pitch": 49, "duration": 5, "velocity": 81}, {"time": 1338, "pitch": 61, "duration": 12, "velocity": 102}, {"time": 1338, "pitch": 64, "duration": 12, "velocity": 92}, {"time": 1344, "pitch": 56, "duration": 5, "velocity": 96}, {"time": 1350, "pitch": 45, "duration": 23, "velocity": 93}, {"time": 1356, "pitch": 52, "duration": 17, "velocity": 72}, {"time": 1362, "pitch": 64, "duration": 21, "velocity": 112}, {"time": 1368, "pitch": 61, "duration": 16, "velocity": 112}, {"time": 1371, "pitch": 57, "duration": 9, "velocity": 81}, {"time": 1374, "pitch": 45, "duration": 17, "velocity": 77}, {"time": 1380, "pitch": 52, "duration": 7, "velocity": 81}, {"time": 1386, "pitch": 64, "duration": 11, "velocity": 107}, {"time": 1389, "pitch": 52, "duration": 2, "velocity": 74}, {"time": 1392, "pitch": 61, "duration": 5, "velocity": 107}, {"time": 1395, "pitch": 57, "duration": 2, "velocity": 95}, {"time": 1398, "pitch": 44, "duration": 20, "velocity": 90}, {"time": 1404, "pitch": 51, "duration": 13, "velocity": 41}, {"time": 1410, "pitch": 68, "duration": 8, "velocity": 127}, {"time": 1413, "pitch": 56, "duration": 4, "velocity": 97}, {"time": 1416, "pitch": 63, "duration": 4, "velocity": 117}, {"time": 1419, "pitch": 60, "duration": 2, "velocity": 96}, {"time": 1422, "pitch": 44, "duration": 1, "velocity": 77}, {"time": 1422, "pitch": 51, "duration": 1, "velocity": 112}, {"time": 1422, "pitch": 56, "duration": 1, "velocity": 112}, {"time": 1422, "pitch": 60, "duration": 2, "velocity": 99}, {"time": 1422, "pitch": 63, "duration": 2, "velocity": 122}, {"time": 1422, "pitch": 68, "duration": 2, "velocity": 122}, {"time": 1425, "pitch": 44, "duration": 3, "velocity": 71}, {"time": 1425, "pitch": 51, "duration": 2, "velocity": 45}, {"time": 1425, "pitch": 56, "duration": 2, "velocity": 117}, {"time": 1425, "pitch": 60, "duration": 2, "velocity": 102}, {"time": 1425, "pitch": 63, "duration": 2, "velocity": 127}, {"time": 1425, "pitch": 68, "duration": 2, "velocity": 112}, {"time": 1446, "pitch": 37, "duration": 16, "velocity": 92}, {"time": 1449, "pitch": 44, "duration": 12, "velocity": 71}, {"time": 1452, "pitch": 49, "duration": 7, "velocity": 92}, {"time": 1455, "pitch": 52, "duration": 7, "velocity": 92}, {"time": 1458, "pitch": 61, "duration": 12, "velocity": 127}, {"time": 1461, "pitch": 49, "duration": 3, "velocity": 100}, {"time": 1464, "pitch": 56, "duration": 6, "velocity": 100}, {"time": 1467, "pitch": 52, "duration": 3, "velocity": 93}, {"time": 1470, "pitch": 44, "duration": 17, "velocity": 88}, {"time": 1473, "pitch": 51, "duration": 14, "velocity": 34}, {"time": 1476, "pitch": 56, "duration": 7, "velocity": 95}, {"time": 1479, "pitch": 59, "duration": 7, "velocity": 96}, {"time": 1482, "pitch": 68, "duration": 10, "velocity": 127}, {"time": 1485, "pitch": 56, "duration": 3, "velocity": 95}, {"time": 1488, "pitch": 63, "duration": 5, "velocity": 117}, {"time": 1491, "pitch": 59, "duration": 3, "velocity": 102}, {"time": 1494, "pitch": 45, "duration": 11, "velocity": 93}, {"time": 1497, "pitch": 52, "duration": 8, "velocity": 95}, {"time": 1500, "pitch": 57, "duration": 6, "velocity": 99}, {"time": 1503, "pitch": 61, "duration": 3, "velocity": 127}, {"time": 1506, "pitch": 47, "duration": 7, "velocity": 88}, {"time": 1509, "pitch": 59, "duration": 9, "velocity": 92}, {"time": 1512, "pitch": 63, "duration": 6, "velocity": 97}, {"time": 1515, "pitch": 66, "duration": 3, "velocity": 107}, {"time": 1518, "pitch": 40, "duration": 16, "velocity": 76}, {"time": 1521, "pitch": 47, "duration": 14, "velocity": 60}, {"time": 1524, "pitch": 52, "duration": 8, "velocity": 88}, {"time": 1527, "pitch": 56, "duration": 5, "velocity": 93}, {"time": 1530, "pitch": 64, "duration": 12, "velocity": 86}, {"time": 1533, "pitch": 52, "duration": 3, "velocity": 92}, {"time": 1536, "pitch": 56, "duration": 6, "velocity": 99}, {"time": 1539, "pitch": 59, "duration": 3, "velocity": 76}, {"time": 1542, "pitch": 42, "duration": 17, "velocity": 82}, {"time": 1545, "pitch": 49, "duration": 13, "velocity": 37}, {"time": 1548, "pitch": 54, "duration": 6, "velocity": 74}, {"time": 1551, "pitch": 57, "duration": 10, "velocity": 92}, {"time": 1554, "pitch": 66, "duration": 11, "velocity": 107}, {"time": 1557, "pitch": 54, "duration": 1, "velocity": 95}, {"time": 1560, "pitch": 61, "duration": 5, "velocity": 100}, {"time": 1563, "pitch": 57, "duration": 3, "velocity": 95}, {"time": 1566, "pitch": 37, "duration": 17, "velocity": 92}, {"time": 1569, "pitch": 44, "duration": 12, "velocity": 71}, {"time": 1572, "pitch": 49, "duration": 6, "velocity": 86}, {"time": 1575, "pitch": 52, "duration": 10, "velocity": 90}, {"time": 1578, "pitch": 61, "duration": 11, "velocity": 127}, {"time": 1581, "pitch": 49, "duration": 2, "velocity": 93}, {"time": 1584, "pitch": 56, "duration": 4, "velocity": 117}, {"time": 1587, "pitch": 52, "duration": 2, "velocity": 95}, {"time": 1590, "pitch": 45, "duration": 17, "velocity": 96}, {"time": 1593, "pitch": 49, "duration": 13, "velocity": 93}, {"time": 1596, "pitch": 52, "duration": 6, "velocity": 89}, {"time": 1599, "pitch": 57, "duration": 5, "velocity": 100}, {"time": 1602, "pitch": 64, "duration": 8, "velocity": 102}, {"time": 1605, "pitch": 52, "duration": 2, "velocity": 96}, {"time": 1608, "pitch": 61, "duration": 2, "velocity": 99}, {"time": 1611, "pitch": 57, "duration": 1, "velocity": 97}, {"time": 1614, "pitch": 44, "duration": 1, "velocity": 90}, {"time": 1614, "pitch": 51, "duration": 1, "velocity": 102}, {"time": 1614, "pitch": 56, "duration": 2, "velocity": 112}, {"time": 1614, "pitch": 60, "duration": 2, "velocity": 107}, {"time": 1614, "pitch": 63, "duration": 2, "velocity": 112}, {"time": 1617, "pitch": 44, "duration": 3, "velocity": 100}, {"time": 1617, "pitch": 51, "duration": 3, "velocity": 107}, {"time": 1617, "pitch": 56, "duration": 3, "velocity": 102}, {"time": 1617, "pitch": 60, "duration": 3, "velocity": 100}, {"time": 1617, "pitch": 63, "duration": 3, "velocity": 107}, {"time": 1638, "pitch": 37, "duration": 15, "velocity": 90}, {"time": 1641, "pitch": 44, "duration": 12, "velocity": 38}, {"time": 1644, "pitch": 49, "duration": 7, "velocity": 93}, {"time": 1647, "pitch": 52, "duration": 7, "velocity": 90}, {"time": 1650, "pitch": 61, "duration": 12, "velocity": 117}, {"time": 1653, "pitch": 49, "duration": 2, "velocity": 93}, {"time": 1656, "pitch": 56, "duration": 6, "velocity": 99}, {"time": 1659, "pitch": 52, "duration": 3, "velocity": 89}, {"time": 1662, "pitch": 44, "duration": 17, "velocity": 88}, {"time": 1665, "pitch": 51, "duration": 13, "velocity": 40}, {"time": 1668, "pitch": 56, "duration": 7, "velocity": 95}, {"time": 1671, "pitch": 59, "duration": 9, "velocity": 96}, {"time": 1674, "pitch": 68, "duration": 10, "velocity": 122}, {"time": 1677, "pitch": 56, "duration": 2, "velocity": 97}, {"time": 1680, "pitch": 63, "duration": 4, "velocity": 107}, {"time": 1683, "pitch": 59, "duration": 3, "velocity": 102}, {"time": 1686, "pitch": 45, "duration": 10, "velocity": 89}, {"time": 1689, "pitch": 52, "duration": 8, "velocity": 86}, {"time": 1692, "pitch": 57, "duration": 5, "velocity": 99}, {"time": 1695, "pitch": 64, "duration": 3, "velocity": 99}, {"time": 1698, "pitch": 47, "duration": 5, "velocity": 85}, {"time": 1701, "pitch": 59, "duration": 6, "velocity": 88}, {"time": 1704, "pitch": 63, "duration": 6, "velocity": 102}, {"time": 1707, "pitch": 66, "duration": 3, "velocity": 117}, {"time": 1710, "pitch": 40, "duration": 16, "velocity": 77}, {"time": 1713, "pitch": 47, "duration": 13, "velocity": 78}, {"time": 1716, "pitch": 52, "duration": 7, "velocity": 83}, {"time": 1719, "pitch": 56, "duration": 6, "velocity": 107}, {"time": 1722, "pitch": 64, "duration": 12, "velocity": 69}, {"time": 1725, "pitch": 52, "duration": 2, "velocity": 77}, {"time": 1728, "pitch": 56, "duration": 5, "velocity": 102}, {"time": 1731, "pitch": 59, "duration": 3, "velocity": 68}, {"time": 1734, "pitch": 42, "duration": 17, "velocity": 89}, {"time": 1737, "pitch": 49, "duration": 13, "velocity": 66}, {"time": 1740, "pitch": 54, "duration": 6, "velocity": 82}, {"time": 1743, "pitch": 57, "duration": 8, "velocity": 89}, {"time": 1746, "pitch": 66, "duration": 12, "velocity": 117}, {"time": 1749, "pitch": 54, "duration": 1, "velocity": 99}, {"time": 1752, "pitch": 61, "duration": 6, "velocity": 107}, {"time": 1755, "pitch": 57, "duration": 3, "velocity": 92}, {"time": 1758, "pitch": 37, "duration": 17, "velocity": 86}, {"time": 1761, "pitch": 44, "duration": 13, "velocity": 57}, {"time": 1764, "pitch": 49, "duration": 7, "velocity": 79}, {"time": 1767, "pitch": 52, "duration": 10, "velocity": 86}, {"time": 1770, "pitch": 61, "duration": 12, "velocity": 127}, {"time": 1773, "pitch": 49, "duration": 2, "velocity": 82}, {"time": 1776, "pitch": 56, "duration": 5, "velocity": 97}, {"time": 1779, "pitch": 52, "duration": 2, "velocity": 95}, {"time": 1782, "pitch": 45, "duration": 17, "velocity": 82}, {"time": 1785, "pitch": 52, "duration": 10, "velocity": 82}, {"time": 1788, "pitch": 57, "duration": 4, "velocity": 92}, {"time": 1791, "pitch": 61, "duration": 2, "velocity": 112}, {"time": 1794, "pitch": 64, "duration": 11, "velocity": 96}, {"time": 1797, "pitch": 52, "duration": 2, "velocity": 81}, {"time": 1800, "pitch": 61, "duration": 5, "velocity": 117}, {"time": 1803, "pitch": 57, "duration": 3, "velocity": 95}, {"time": 1806, "pitch": 44, "duration": 20, "velocity": 88}, {"time": 1809, "pitch": 51, "duration": 16, "velocity": 33}, {"time": 1812, "pitch": 56, "duration": 6, "velocity": 88}, {"time": 1815, "pitch": 60, "duration": 5, "velocity": 72}, {"time": 1818, "pitch": 68, "duration": 12, "velocity": 122}, {"time": 1821, "pitch": 56, "duration": 3, "velocity": 89}, {"time": 1824, "pitch": 63, "duration": 6, "velocity": 107}, {"time": 1827, "pitch": 60, "duration": 3, "velocity": 99}, {"time": 1830, "pitch": 37, "duration": 22, "velocity": 96}, {"time": 1833, "pitch": 44, "duration": 21, "velocity": 38}, {"time": 1836, "pitch": 49, "duration": 7, "velocity": 55}, {"time": 1839, "pitch": 52, "duration": 9, "velocity": 67}, {"time": 1842, "pitch": 61, "duration": 22, "velocity": 127}, {"time": 1845, "pitch": 49, "duration": 26, "velocity": 56}, {"time": 1848, "pitch": 56, "duration": 17, "velocity": 95}, {"time": 1854, "pitch": 37, "duration": 16, "velocity": 100}, {"time": 1866, "pitch": 61, "duration": 13, "velocity": 102}, {"time": 1878, "pitch": 37, "duration": 15, "velocity": 72}, {"time": 1884, "pitch": 49, "duration": 8, "velocity": 62}, {"time": 1890, "pitch": 61, "duration": 12, "velocity": 100}, {"time": 1896, "pitch": 56, "duration": 5, "velocity": 46}, {"time": 1902, "pitch": 44, "duration": 20, "velocity": 85}, {"time": 1905, "pitch": 51, "duration": 15, "velocity": 49}, {"time": 1908, "pitch": 56, "duration": 7, "velocity": 69}, {"time": 1911, "pitch": 59, "duration": 4, "velocity": 78}, {"time": 1914, "pitch": 63, "duration": 12, "velocity": 89}, {"time": 1920, "pitch": 59, "duration": 6, "velocity": 75}, {"time": 1926, "pitch": 45, "duration": 9, "velocity": 76}, {"time": 1929, "pitch": 52, "duration": 8, "velocity": 63}, {"time": 1932, "pitch": 57, "duration": 4, "velocity": 97}, {"time": 1935, "pitch": 64, "duration": 3, "velocity": 89}, {"time": 1938, "pitch": 47, "duration": 6, "velocity": 75}, {"time": 1941, "pitch": 59, "duration": 9, "velocity": 81}, {"time": 1944, "pitch": 63, "duration": 6, "velocity": 74}, {"time": 1947, "pitch": 66, "duration": 3, "velocity": 89}, {"time": 1950, "pitch": 37, "duration": 20, "velocity": 78}, {"time": 1953, "pitch": 44, "duration": 16, "velocity": 61}, {"time": 1956, "pitch": 49, "duration": 6, "velocity": 86}, {"time": 1959, "pitch": 52, "duration": 7, "velocity": 83}, {"time": 1962, "pitch": 61, "duration": 10, "velocity": 127}, {"time": 1965, "pitch": 49, "duration": 5, "velocity": 122}, {"time": 1968, "pitch": 56, "duration": 4, "velocity": 127}, {"time": 1971, "pitch": 52, "duration": 4, "velocity": 99}, {"time": 1974, "pitch": 37, "duration": 16, "velocity": 102}, {"time": 1977, "pitch": 44, "duration": 11, "velocity": 51}, {"time": 1980, "pitch": 49, "duration": 6, "velocity": 99}, {"time": 1983, "pitch": 52, "duration": 14, "velocity": 86}, {"time": 1986, "pitch": 61, "duration": 9, "velocity": 127}, {"time": 1989, "pitch": 49, "duration": 3, "velocity": 99}, {"time": 1992, "pitch": 56, "duration": 5, "velocity": 117}, {"time": 1995, "pitch": 61, "duration": 2, "velocity": 28}, {"time": 1998, "pitch": 44, "duration": 18, "velocity": 85}, {"time": 2001, "pitch": 51, "duration": 15, "velocity": 83}, {"time": 2004, "pitch": 56, "duration": 7, "velocity": 99}, {"time": 2007, "pitch": 59, "duration": 7, "velocity": 86}, {"time": 2010, "pitch": 68, "duration": 11, "velocity": 122}, {"time": 2013, "pitch": 56, "duration": 2, "velocity": 100}, {"time": 2016, "pitch": 63, "duration": 5, "velocity": 112}, {"time": 2019, "pitch": 59, "duration": 3, "velocity": 90}, {"time": 2022, "pitch": 45, "duration": 9, "velocity": 83}, {"time": 2025, "pitch": 52, "duration": 8, "velocity": 92}, {"time": 2028, "pitch": 57, "duration": 5, "velocity": 97}, {"time": 2031, "pitch": 64, "duration": 3, "velocity": 97}, {"time": 2034, "pitch": 47, "duration": 6, "velocity": 97}, {"time": 2037, "pitch": 59, "duration": 8, "velocity": 89}, {"time": 2040, "pitch": 63, "duration": 5, "velocity": 99}, {"time": 2043, "pitch": 66, "duration": 3, "velocity": 112}, {"time": 2046, "pitch": 40, "duration": 20, "velocity": 77}, {"time": 2049, "pitch": 47, "duration": 18, "velocity": 92}, {"time": 2052, "pitch": 52, "duration": 8, "velocity": 92}, {"time": 2058, "pitch": 64, "duration": 7, "velocity": 89}, {"time": 2061, "pitch": 52, "duration": 6, "velocity": 88}, {"time": 2064, "pitch": 59, "duration": 6, "velocity": 90}, {"time": 2067, "pitch": 64, "duration": 3, "velocity": 92}, {"time": 2070, "pitch": 42, "duration": 17, "velocity": 76}, {"time": 2073, "pitch": 49, "duration": 13, "velocity": 62}, {"time": 2076, "pitch": 54, "duration": 7, "velocity": 97}, {"time": 2079, "pitch": 57, "duration": 7, "velocity": 92}, {"time": 2082, "pitch": 66, "duration": 12, "velocity": 127}, {"time": 2085, "pitch": 54, "duration": 1, "velocity": 112}, {"time": 2088, "pitch": 61, "duration": 6, "velocity": 117}, {"time": 2091, "pitch": 57, "duration": 3, "velocity": 96}, {"time": 2094, "pitch": 37, "duration": 17, "velocity": 79}, {"time": 2097, "pitch": 44, "duration": 12, "velocity": 69}, {"time": 2100, "pitch": 49, "duration": 6, "velocity": 89}, {"time": 2103, "pitch": 52, "duration": 7, "velocity": 92}, {"time": 2106, "pitch": 61, "duration": 7, "velocity": 127}, {"time": 2109, "pitch": 49, "duration": 3, "velocity": 117}, {"time": 2112, "pitch": 56, "duration": 4, "velocity": 122}, {"time": 2115, "pitch": 61, "duration": 3, "velocity": 127}, {"time": 2118, "pitch": 45, "duration": 18, "velocity": 95}, {"time": 2121, "pitch": 52, "duration": 9, "velocity": 85}, {"time": 2124, "pitch": 57, "duration": 3, "velocity": 102}, {"time": 2127, "pitch": 61, "duration": 2, "velocity": 127}, {"time": 2130, "pitch": 64, "duration": 9, "velocity": 100}, {"time": 2133, "pitch": 52, "duration": 2, "velocity": 92}, {"time": 2136, "pitch": 61, "duration": 2, "velocity": 127}, {"time": 2139, "pitch": 57, "duration": 1, "velocity": 77}, {"time": 2142, "pitch": 44, "duration": 2, "velocity": 117}, {"time": 2142, "pitch": 56, "duration": 2, "velocity": 112}, {"time": 2142, "pitch": 60, "duration": 2, "velocity": 102}, {"time": 2142, "pitch": 63, "duration": 2, "velocity": 117}, {"time": 2145, "pitch": 44, "duration": 11, "velocity": 127}, {"time": 2145, "pitch": 56, "duration": 8, "velocity": 96}, {"time": 2145, "pitch": 60, "duration": 8, "velocity": 96}, {"time": 2145, "pitch": 63, "duration": 8, "velocity": 99}, {"time": 2154, "pitch": 56, "duration": 1, "velocity": 100}, {"time": 2154, "pitch": 60, "duration": 6, "velocity": 127}, {"time": 2154, "pitch": 63, "duration": 11, "velocity": 127}, {"time": 2157, "pitch": 44, "duration": 4, "velocity": 117}, {"time": 2160, "pitch": 56, "duration": 4, "velocity": 122}, {"time": 2163, "pitch": 60, "duration": 2, "velocity": 85}, {"time": 2166, "pitch": 37, "duration": 16, "velocity": 83}, {"time": 2169, "pitch": 44, "duration": 13, "velocity": 49}, {"time": 2172, "pitch": 49, "duration": 7, "velocity": 97}, {"time": 2175, "pitch": 56, "duration": 7, "velocity": 93}, {"time": 2178, "pitch": 64, "duration": 12, "velocity": 92}, {"time": 2181, "pitch": 49, "duration": 3, "velocity": 96}, {"time": 2184, "pitch": 61, "duration": 6, "velocity": 83}, {"time": 2187, "pitch": 56, "duration": 3, "velocity": 107}, {"time": 2190, "pitch": 44, "duration": 17, "velocity": 92}, {"time": 2193, "pitch": 51, "duration": 13, "velocity": 38}, {"time": 2196, "pitch": 56, "duration": 7, "velocity": 96}, {"time": 2199, "pitch": 59, "duration": 9, "velocity": 81}, {"time": 2202, "pitch": 68, "duration": 11, "velocity": 122}, {"time": 2205, "pitch": 56, "duration": 2, "velocity": 95}, {"time": 2208, "pitch": 63, "duration": 5, "velocity": 112}, {"time": 2211, "pitch": 59, "duration": 3, "velocity": 96}, {"time": 2214, "pitch": 45, "duration": 8, "velocity": 85}, {"time": 2217, "pitch": 52, "duration": 8, "velocity": 96}, {"time": 2220, "pitch": 57, "duration": 5, "velocity": 100}, {"time": 2223, "pitch": 64, "duration": 3, "velocity": 99}, {"time": 2226, "pitch": 47, "duration": 6, "velocity": 96}, {"time": 2229, "pitch": 59, "duration": 9, "velocity": 88}, {"time": 2232, "pitch": 63, "duration": 6, "velocity": 117}, {"time": 2235, "pitch": 66, "duration": 3, "velocity": 117}, {"time": 2238, "pitch": 40, "duration": 16, "velocity": 86}, {"time": 2241, "pitch": 47, "duration": 14, "velocity": 77}, {"time": 2244, "pitch": 52, "duration": 7, "velocity": 93}, {"time": 2247, "pitch": 56, "duration": 6, "velocity": 82}, {"time": 2250, "pitch": 64, "duration": 12, "velocity": 72}, {"time": 2253, "pitch": 52, "duration": 3, "velocity": 92}, {"time": 2256, "pitch": 56, "duration": 6, "velocity": 97}, {"time": 2259, "pitch": 59, "duration": 3, "velocity": 65}, {"time": 2262, "pitch": 42, "duration": 16, "velocity": 88}, {"time": 2265, "pitch": 49, "duration": 12, "velocity": 68}, {"time": 2268, "pitch": 54, "duration": 7, "velocity": 88}, {"time": 2271, "pitch": 57, "duration": 9, "velocity": 74}, {"time": 2274, "pitch": 66, "duration": 11, "velocity": 117}, {"time": 2277, "pitch": 54, "duration": 2, "velocity": 95}, {"time": 2280, "pitch": 61, "duration": 5, "velocity": 95}, {"time": 2283, "pitch": 57, "duration": 3, "velocity": 86}, {"time": 2286, "pitch": 37, "duration": 16, "velocity": 76}, {"time": 2289, "pitch": 44, "duration": 13, "velocity": 63}, {"time": 2292, "pitch": 49, "duration": 7, "velocity": 63}, {"time": 2295, "pitch": 52, "duration": 5, "velocity": 88}, {"time": 2298, "pitch": 61, "duration": 6, "velocity": 117}, {"time": 2301, "pitch": 49, "duration": 3, "velocity": 70}, {"time": 2304, "pitch": 56, "duration": 4, "velocity": 97}, {"time": 2307, "pitch": 61, "duration": 2, "velocity": 107}, {"time": 2310, "pitch": 45, "duration": 18, "velocity": 81}, {"time": 2313, "pitch": 52, "duration": 10, "velocity": 83}, {"time": 2316, "pitch": 57, "duration": 6, "velocity": 79}, {"time": 2319, "pitch": 61, "duration": 2, "velocity": 107}, {"time": 2322, "pitch": 64, "duration": 11, "velocity": 102}, {"time": 2325, "pitch": 52, "duration": 2, "velocity": 82}, {"time": 2328, "pitch": 61, "duration": 5, "velocity": 127}, {"time": 2331, "pitch": 57, "duration": 3, "velocity": 99}, {"time": 2334, "pitch": 44, "duration": 20, "velocity": 78}, {"time": 2337, "pitch": 51, "duration": 17, "velocity": 34}, {"time": 2340, "pitch": 56, "duration": 7, "velocity": 89}, {"time": 2343, "pitch": 60, "duration": 5, "velocity": 78}, {"time": 2346, "pitch": 68, "duration": 13, "velocity": 127}, {"time": 2349, "pitch": 56, "duration": 4, "velocity": 102}, {"time": 2352, "pitch": 63, "duration": 7, "velocity": 107}, {"time": 2355, "pitch": 60, "duration": 4, "velocity": 96}, {"time": 2358, "pitch": 37, "duration": 21, "velocity": 69}, {"time": 2361, "pitch": 44, "duration": 20, "velocity": 39}, {"time": 2364, "pitch": 49, "duration": 6, "velocity": 74}, {"time": 2367, "pitch": 52, "duration": 9, "velocity": 67}, {"time": 2370, "pitch": 61, "duration": 10, "velocity": 112}, {"time": 2373, "pitch": 49, "duration": 8, "velocity": 86}, {"time": 2376, "pitch": 56, "duration": 4, "velocity": 88}, {"time": 2379, "pitch": 52, "duration": 28, "velocity": 73}, {"time": 2382, "pitch": 37, "duration": 25, "velocity": 59}, {"time": 2382, "pitch": 49, "duration": 25, "velocity": 85}, {"time": 2382, "pitch": 56, "duration": 24, "velocity": 66}, {"time": 2382, "pitch": 61, "duration": 25, "velocity": 81}, {"time": 2406, "pitch": 45, "duration": 16, "velocity": 90}, {"time": 2412, "pitch": 52, "duration": 11, "velocity": 51}, {"time": 2418, "pitch": 64, "duration": 12, "velocity": 102}, {"time": 2424, "pitch": 61, "duration": 6, "velocity": 102}, {"time": 2430, "pitch": 47, "duration": 16, "velocity": 83}, {"time": 2436, "pitch": 54, "duration": 8, "velocity": 73}, {"time": 2442, "pitch": 66, "duration": 12, "velocity": 122}, {"time": 2445, "pitch": 54, "duration": 2, "velocity": 70}, {"time": 2448, "pitch": 63, "duration": 6, "velocity": 70}, {"time": 2451, "pitch": 59, "duration": 3, "velocity": 89}, {"time": 2454, "pitch": 44, "duration": 16, "velocity": 97}, {"time": 2460, "pitch": 51, "duration": 9, "velocity": 61}, {"time": 2466, "pitch": 56, "duration": 3, "velocity": 69}, {"time": 2466, "pitch": 59, "duration": 1, "velocity": 26}, {"time": 2466, "pitch": 68, "duration": 12, "velocity": 102}, {"time": 2472, "pitch": 63, "duration": 6, "velocity": 79}, {"time": 2478, "pitch": 37, "duration": 17, "velocity": 93}, {"time": 2484, "pitch": 44, "duration": 10, "velocity": 44}, {"time": 2490, "pitch": 49, "duration": 4, "velocity": 59}, {"time": 2490, "pitch": 61, "duration": 12, "velocity": 107}, {"time": 2493, "pitch": 56, "duration": 9, "velocity": 73}, {"time": 2496, "pitch": 52, "duration": 5, "velocity": 82}, {"time": 2502, "pitch": 45, "duration": 18, "velocity": 79}, {"time": 2508, "pitch": 52, "duration": 7, "velocity": 61}, {"time": 2514, "pitch": 64, "duration": 12, "velocity": 95}, {"time": 2517, "pitch": 52, "duration": 4, "velocity": 55}, {"time": 2520, "pitch": 61, "duration": 6, "velocity": 78}, {"time": 2526, "pitch": 47, "duration": 17, "velocity": 82}, {"time": 2532, "pitch": 54, "duration": 7, "velocity": 58}, {"time": 2538, "pitch": 66, "duration": 11, "velocity": 107}, {"time": 2541, "pitch": 54, "duration": 2, "velocity": 66}, {"time": 2544, "pitch": 63, "duration": 6, "velocity": 85}, {"time": 2547, "pitch": 59, "duration": 4, "velocity": 81}, {"time": 2550, "pitch": 40, "duration": 16, "velocity": 81}, {"time": 2553, "pitch": 47, "duration": 13, "velocity": 47}, {"time": 2556, "pitch": 52, "duration": 7, "velocity": 81}, {"time": 2559, "pitch": 56, "duration": 5, "velocity": 82}, {"time": 2562, "pitch": 64, "duration": 12, "velocity": 75}, {"time": 2565, "pitch": 52, "duration": 2, "velocity": 72}, {"time": 2568, "pitch": 56, "duration": 6, "velocity": 90}, {"time": 2574, "pitch": 44, "duration": 17, "velocity": 93}, {"time": 2577, "pitch": 51, "duration": 14, "velocity": 33}, {"time": 2580, "pitch": 56, "duration": 7, "velocity": 95}, {"time": 2583, "pitch": 60, "duration": 6, "velocity": 79}, {"time": 2586, "pitch": 68, "duration": 13, "velocity": 127}, {"time": 2589, "pitch": 56, "duration": 2, "velocity": 102}, {"time": 2592, "pitch": 63, "duration": 7, "velocity": 117}, {"time": 2595, "pitch": 60, "duration": 4, "velocity": 96}, {"time": 2598, "pitch": 42, "duration": 22, "velocity": 73}, {"time": 2601, "pitch": 49, "duration": 21, "velocity": 45}, {"time": 2604, "pitch": 54, "duration": 18, "velocity": 81}, {"time": 2610, "pitch": 66, "duration": 22, "velocity": 127}, {"time": 2616, "pitch": 61, "duration": 17, "velocity": 96}, {"time": 2619, "pitch": 57, "duration": 17, "velocity": 90}, {"time": 2622, "pitch": 42, "duration": 16, "velocity": 69}, {"time": 2628, "pitch": 49, "duration": 8, "velocity": 41}, {"time": 2634, "pitch": 54, "duration": 2, "velocity": 90}, {"time": 2634, "pitch": 66, "duration": 12, "velocity": 122}, {"time": 2637, "pitch": 61, "duration": 10, "velocity": 97}, {"time": 2640, "pitch": 57, "duration": 7, "velocity": 90}, {"time": 2646, "pitch": 37, "duration": 22, "velocity": 88}, {"time": 2652, "pitch": 44, "duration": 7, "velocity": 41}, {"time": 2658, "pitch": 49, "duration": 19, "velocity": 74}, {"time": 2658, "pitch": 56, "duration": 22, "velocity": 97}, {"time": 2658, "pitch": 61, "duration": 11, "velocity": 89}, {"time": 2664, "pitch": 44, "duration": 5, "velocity": 29}, {"time": 2670, "pitch": 37, "duration": 15, "velocity": 79}, {"time": 2670, "pitch": 61, "duration": 6, "velocity": 52}, {"time": 2670, "pitch": 64, "duration": 8, "velocity": 72}, {"time": 2676, "pitch": 44, "duration": 9, "velocity": 66}, {"time": 2682, "pitch": 49, "duration": 5, "velocity": 81}, {"time": 2682, "pitch": 61, "duration": 12, "velocity": 102}, {"time": 2682, "pitch": 64, "duration": 12, "velocity": 92}, {"time": 2688, "pitch": 56, "duration": 5, "velocity": 96}, {"time": 2694, "pitch": 45, "duration": 23, "velocity": 93}, {"time": 2700, "pitch": 52, "duration": 17, "velocity": 72}, {"time": 2706, "pitch": 64, "duration": 21, "velocity": 112}, {"time": 2712, "pitch": 61, "duration": 16, "velocity": 112}, {"time": 2715, "pitch": 57, "duration": 9, "velocity": 81}, {"time": 2718, "pitch": 45, "duration": 17, "velocity": 77}, {"time": 2724, "pitch": 52, "duration": 7, "velocity": 81}, {"time": 2730, "pitch": 64, "duration": 11, "velocity": 107}, {"time": 2733, "pitch": 52, "duration": 2, "velocity": 74}, {"time": 2736, "pitch": 61, "duration": 5, "velocity": 107}, {"time": 2739, "pitch": 57, "duration": 2, "velocity": 95}, {"time": 2742, "pitch": 44, "duration": 20, "velocity": 90}, {"time": 2748, "pitch": 51, "duration": 13, "velocity": 41}, {"time": 2754, "pitch": 68, "duration": 8, "velocity": 127}, {"time": 2757, "pitch": 56, "duration": 4, "velocity": 97}, {"time": 2760, "pitch": 63, "duration": 4, "velocity": 117}, {"time": 2763, "pitch": 60, "duration": 2, "velocity": 96}, {"time": 2766, "pitch": 44, "duration": 1, "velocity": 77}, {"time": 2766, "pitch": 51, "duration": 1, "velocity": 112}, {"time": 2766, "pitch": 56, "duration": 1, "velocity": 112}, {"time": 2766, "pitch": 60, "duration": 2, "velocity": 99}, {"time": 2766, "pitch": 63, "duration": 2, "velocity": 122}, {"time": 2766, "pitch": 68, "duration": 2, "velocity": 122}, {"time": 2769, "pitch": 44, "duration": 3, "velocity": 71}, {"time": 2769, "pitch": 51, "duration": 2, "velocity": 45}, {"time": 2769, "pitch": 56, "duration": 2, "velocity": 117}, {"time": 2769, "pitch": 60, "duration": 2, "velocity": 102}, {"time": 2769, "pitch": 63, "duration": 2, "velocity": 127}, {"time": 2769, "pitch": 68, "duration": 2, "velocity": 112}, {"time": 2790, "pitch": 37, "duration": 16, "velocity": 92}, {"time": 2793, "pitch": 44, "duration": 12, "velocity": 71}, {"time": 2796, "pitch": 49, "duration": 7, "velocity": 92}, {"time": 2799, "pitch": 52, "duration": 7, "velocity": 92}, {"time": 2802, "pitch": 61, "duration": 12, "velocity": 127}, {"time": 2805, "pitch": 49, "duration": 3, "velocity": 100}, {"time": 2808, "pitch": 56, "duration": 6, "velocity": 100}, {"time": 2811, "pitch": 52, "duration": 3, "velocity": 93}, {"time": 2814, "pitch": 44, "duration": 17, "velocity": 88}, {"time": 2817, "pitch": 51, "duration": 14, "velocity": 34}, {"time": 2820, "pitch": 56, "duration": 7, "velocity": 95}, {"time": 2823, "pitch": 59, "duration": 7, "velocity": 96}, {"time": 2826, "pitch": 68, "duration": 10, "velocity": 127}, {"time": 2829, "pitch": 56, "duration": 3, "velocity": 95}, {"time": 2832, "pitch": 63, "duration": 5, "velocity": 117}, {"time": 2835, "pitch": 59, "duration": 3, "velocity": 102}, {"time": 2838, "pitch": 45, "duration": 11, "velocity": 93}, {"time": 2841, "pitch": 52, "duration": 8, "velocity": 95}, {"time": 2844, "pitch": 57, "duration": 6, "velocity": 99}, {"time": 2847, "pitch": 61, "duration": 3, "velocity": 127}, {"time": 2850, "pitch": 47, "duration": 7, "velocity": 88}, {"time": 2853, "pitch": 59, "duration": 9, "velocity": 92}, {"time": 2856, "pitch": 63, "duration": 6, "velocity": 97}, {"time": 2859, "pitch": 66, "duration": 3, "velocity": 107}, {"time": 2862, "pitch": 40, "duration": 16, "velocity": 76}, {"time": 2865, "pitch": 47, "duration": 14, "velocity": 60}, {"time": 2868, "pitch": 52, "duration": 8, "velocity": 88}, {"time": 2871, "pitch": 56, "duration": 5, "velocity": 93}, {"time": 2874, "pitch": 64, "duration": 12, "velocity": 86}, {"time": 2877, "pitch": 52, "duration": 3, "velocity": 92}, {"time": 2880, "pitch": 56, "duration": 6, "velocity": 99}, {"time": 2883, "pitch": 59, "duration": 3, "velocity": 76}, {"time": 2886, "pitch": 42, "duration": 17, "velocity": 82}, {"time": 2889, "pitch": 49, "duration": 13, "velocity": 37}, {"time": 2892, "pitch": 54, "duration": 6, "velocity": 74}, {"time": 2895, "pitch": 57, "duration": 10, "velocity": 92}, {"time": 2898, "pitch": 66, "duration": 11, "velocity": 107}, {"time": 2901, "pitch": 54, "duration": 1, "velocity": 95}, {"time": 2904, "pitch": 61, "duration": 5, "velocity": 100}, {"time": 2907, "pitch": 57, "duration": 3, "velocity": 95}, {"time": 2910, "pitch": 37, "duration": 17, "velocity": 92}, {"time": 2913, "pitch": 44, "duration": 12, "velocity": 71}, {"time": 2916, "pitch": 49, "duration": 6, "velocity": 86}, {"time": 2919, "pitch": 52, "duration": 10, "velocity": 90}, {"time": 2922, "pitch": 61, "duration": 11, "velocity": 127}, {"time": 2925, "pitch": 49, "duration": 2, "velocity": 93}, {"time": 2928, "pitch": 56, "duration": 4, "velocity": 117}, {"time": 2931, "pitch": 52, "duration": 2, "velocity": 95}, {"time": 2934, "pitch": 45, "duration": 17, "velocity": 96}, {"time": 2937, "pitch": 49, "duration": 13, "velocity": 93}, {"time": 2940, "pitch": 52, "duration": 6, "velocity": 89}, {"time": 2943, "pitch": 57, "duration": 5, "velocity": 100}, {"time": 2946, "pitch": 64, "duration": 8, "velocity": 102}, {"time": 2949, "pitch": 52, "duration": 2, "velocity": 96}, {"time": 2952, "pitch": 61, "duration": 2, "velocity": 99}, {"time": 2955, "pitch": 57, "duration": 1, "velocity": 97}, {"time": 2958, "pitch": 44, "duration": 1, "velocity": 90}, {"time": 2958, "pitch": 51, "duration": 1, "velocity": 102}, {"time": 2958, "pitch": 56, "duration": 2, "velocity": 112}, {"time": 2958, "pitch": 60, "duration": 2, "velocity": 107}, {"time": 2958, "pitch": 63, "duration": 2, "velocity": 112}, {"time": 2961, "pitch": 44, "duration": 3, "velocity": 100}, {"time": 2961, "pitch": 51, "duration": 3, "velocity": 107}, {"time": 2961, "pitch": 56, "duration": 3, "velocity": 102}, {"time": 2961, "pitch": 60, "duration": 3, "velocity": 100}, {"time": 2961, "pitch": 63, "duration": 3, "velocity": 107}, {"time": 2982, "pitch": 37, "duration": 15, "velocity": 90}, {"time": 2985, "pitch": 44, "duration": 12, "velocity": 38}, {"time": 2988, "pitch": 49, "duration": 7, "velocity": 93}, {"time": 2991, "pitch": 52, "duration": 7, "velocity": 90}, {"time": 2994, "pitch": 61, "duration": 12, "velocity": 117}, {"time": 2997, "pitch": 49, "duration": 2, "velocity": 93}, {"time": 3000, "pitch": 56, "duration": 6, "velocity": 99}, {"time": 3003, "pitch": 52, "duration": 3, "velocity": 89}, {"time": 3006, "pitch": 44, "duration": 17, "velocity": 88}, {"time": 3009, "pitch": 51, "duration": 13, "velocity": 40}, {"time": 3012, "pitch": 56, "duration": 7, "velocity": 95}, {"time": 3015, "pitch": 59, "duration": 9, "velocity": 96}, {"time": 3018, "pitch": 68, "duration": 10, "velocity": 122}, {"time": 3021, "pitch": 56, "duration": 2, "velocity": 97}, {"time": 3024, "pitch": 63, "duration": 4, "velocity": 107}, {"time": 3027, "pitch": 59, "duration": 3, "velocity": 102}, {"time": 3030, "pitch": 45, "duration": 10, "velocity": 89}, {"time": 3033, "pitch": 52, "duration": 8, "velocity": 86}, {"time": 3036, "pitch": 57, "duration": 5, "velocity": 99}, {"time": 3039, "pitch": 64, "duration": 3, "velocity": 99}, {"time": 3042, "pitch": 47, "duration": 5, "velocity": 85}, {"time": 3045, "pitch": 59, "duration": 6, "velocity": 88}, {"time": 3048, "pitch": 63, "duration": 6, "velocity": 102}, {"time": 3051, "pitch": 66, "duration": 3, "velocity": 117}, {"time": 3054, "pitch": 40, "duration": 16, "velocity": 77}, {"time": 3057, "pitch": 47, "duration": 13, "velocity": 78}, {"time": 3060, "pitch": 52, "duration": 7, "velocity": 83}, {"time": 3063, "pitch": 56, "duration": 6, "velocity": 107}, {"time": 3066, "pitch": 64, "duration": 12, "velocity": 69}, {"time": 3069, "pitch": 52, "duration": 2, "velocity": 77}, {"time": 3072, "pitch": 56, "duration": 5, "velocity": 102}, {"time": 3075, "pitch": 59, "duration": 3, "velocity": 68}, {"time": 3078, "pitch": 42, "duration": 17, "velocity": 89}, {"time": 3081, "pitch": 49, "duration": 13, "velocity": 66}, {"time": 3084, "pitch": 54, "duration": 6, "velocity": 82}, {"time": 3087, "pitch": 57, "duration": 8, "velocity": 89}, {"time": 3090, "pitch": 66, "duration": 12, "velocity": 117}, {"time": 3093, "pitch": 54, "duration": 1, "velocity": 99}, {"time": 3096, "pitch": 61, "duration": 6, "velocity": 107}, {"time": 3099, "pitch": 57, "duration": 3, "velocity": 92}, {"time": 3102, "pitch": 37, "duration": 17, "velocity": 86}, {"time": 3105, "pitch": 44, "duration": 13, "velocity": 57}, {"time": 3108, "pitch": 49, "duration": 7, "velocity": 79}, {"time": 3111, "pitch": 52, "duration": 10, "velocity": 86}, {"time": 3114, "pitch": 61, "duration": 12, "velocity": 127}, {"time": 3117, "pitch": 49, "duration": 2, "velocity": 82}, {"time": 3120, "pitch": 56, "duration": 5, "velocity": 97}, {"time": 3123, "pitch": 52, "duration": 2, "velocity": 95}, {"time": 3126, "pitch": 45, "duration": 17, "velocity": 82}, {"time": 3129, "pitch": 52, "duration": 10, "velocity": 82}, {"time": 3132, "pitch": 57, "duration": 4, "velocity": 92}, {"time": 3135, "pitch": 61, "duration": 2, "velocity": 112}, {"time": 3138, "pitch": 64, "duration": 11, "velocity": 96}, {"time": 3141, "pitch": 52, "duration": 2, "velocity": 81}, {"time": 3144, "pitch": 61, "duration": 5, "velocity": 117}, {"time": 3147, "pitch": 57, "duration": 3, "velocity": 95}, {"time": 3150, "pitch": 44, "duration": 20, "velocity": 88}, {"time": 3153, "pitch": 51, "duration": 16, "velocity": 33}, {"time": 3156, "pitch": 56, "duration": 6, "velocity": 88}, {"time": 3159, "pitch": 60, "duration": 5, "velocity": 72}, {"time": 3162, "pitch": 68, "duration": 12, "velocity": 122}, {"time": 3165, "pitch": 56, "duration": 3, "velocity": 89}, {"time": 3168, "pitch": 63, "duration": 6, "velocity": 107}, {"time": 3171, "pitch": 60, "duration": 3, "velocity": 99}, {"time": 3174, "pitch": 37, "duration": 40, "velocity": 96}, {"time": 3180, "pitch": 44, "duration": 34, "velocity": 39}, {"time": 3186, "pitch": 49, "duration": 28, "velocity": 66}, {"time": 3192, "pitch": 52, "duration": 36, "velocity": 60}, {"time": 3198, "pitch": 61, "duration": 34, "velocity": 102}, {"time": 3222, "pitch": 37, "duration": 14, "velocity": 86}, {"time": 3228, "pitch": 44, "duration": 8, "velocity": 38}, {"time": 3234, "pitch": 49, "duration": 4, "velocity": 54}, {"time": 3234, "pitch": 61, "duration": 12, "velocity": 112}, {"time": 3240, "pitch": 56, "duration": 5, "velocity": 63}, {"time": 3246, "pitch": 44, "duration": 16, "velocity": 79}, {"time": 3252, "pitch": 51, "duration": 9, "velocity": 38}, {"time": 3258, "pitch": 56, "duration": 4, "velocity": 58}, {"time": 3258, "pitch": 63, "duration": 12, "velocity": 73}, {"time": 3258, "pitch": 68, "duration": 12, "velocity": 88}, {"time": 3264, "pitch": 59, "duration": 7, "velocity": 71}, {"time": 3270, "pitch": 45, "duration": 12, "velocity": 66}, {"time": 3273, "pitch": 61, "duration": 3, "velocity": 26}, {"time": 3276, "pitch": 57, "duration": 6, "velocity": 79}, {"time": 3279, "pitch": 61, "duration": 6, "velocity": 89}, {"time": 3282, "pitch": 47, "duration": 5, "velocity": 73}, {"time": 3285, "pitch": 59, "duration": 10, "velocity": 72}, {"time": 3288, "pitch": 66, "duration": 7, "velocity": 96}, {"time": 3294, "pitch": 40, "duration": 15, "velocity": 72}, {"time": 3297, "pitch": 47, "duration": 12, "velocity": 43}, {"time": 3300, "pitch": 52, "duration": 8, "velocity": 72}, {"time": 3303, "pitch": 56, "duration": 15, "velocity": 56}, {"time": 3306, "pitch": 64, "duration": 11, "velocity": 42}, {"time": 3318, "pitch": 42, "duration": 15, "velocity": 89}, {"time": 3324, "pitch": 49, "duration": 8, "velocity": 63}, {"time": 3330, "pitch": 54, "duration": 2, "velocity": 55}, {"time": 3330, "pitch": 61, "duration": 11, "velocity": 99}, {"time": 3336, "pitch": 57, "duration": 6, "velocity": 81}, {"time": 3342, "pitch": 37, "duration": 18, "velocity": 81}, {"time": 3345, "pitch": 44, "duration": 14, "velocity": 50}, {"time": 3348, "pitch": 49, "duration": 12, "velocity": 78}, {"time": 3351, "pitch": 52, "duration": 10, "velocity": 66}, {"time": 3354, "pitch": 61, "duration": 11, "velocity": 122}, {"time": 3360, "pitch": 56, "duration": 5, "velocity": 89}, {"time": 3366, "pitch": 45, "duration": 18, "velocity": 112}, {"time": 3372, "pitch": 49, "duration": 15, "velocity": 71}, {"time": 3378, "pitch": 57, "duration": 3, "velocity": 99}, {"time": 3378, "pitch": 61, "duration": 6, "velocity": 127}, {"time": 3378, "pitch": 64, "duration": 7, "velocity": 100}, {"time": 3381, "pitch": 52, "duration": 5, "velocity": 83}, {"time": 3384, "pitch": 57, "duration": 3, "velocity": 117}, {"time": 3387, "pitch": 60, "duration": 1, "velocity": 35}, {"time": 3390, "pitch": 44, "duration": 2, "velocity": 127}, {"time": 3390, "pitch": 56, "duration": 2, "velocity": 112}, {"time": 3390, "pitch": 60, "duration": 2, "velocity": 117}, {"time": 3390, "pitch": 63, "duration": 2, "velocity": 127}, {"time": 3393, "pitch": 44, "duration": 4, "velocity": 122}, {"time": 3393, "pitch": 56, "duration": 3, "velocity": 117}, {"time": 3393, "pitch": 60, "duration": 3, "velocity": 107}, {"time": 3393, "pitch": 63, "duration": 3, "velocity": 127}, {"time": 3402, "pitch": 44, "duration": 11, "velocity": 96}, {"time": 3402, "pitch": 56, "duration": 11, "velocity": 95}, {"time": 3402, "pitch": 60, "duration": 11, "velocity": 92}, {"time": 3402, "pitch": 63, "duration": 11, "velocity": 100}, {"time": 3414, "pitch": 37, "duration": 15, "velocity": 90}, {"time": 3417, "pitch": 44, "duration": 12, "velocity": 38}, {"time": 3420, "pitch": 49, "duration": 7, "velocity": 93}, {"time": 3423, "pitch": 52, "duration": 7, "velocity": 90}, {"time": 3426, "pitch": 61, "duration": 12, "velocity": 117}, {"time": 3429, "pitch": 49, "duration": 2, "velocity": 93}, {"time": 3432, "pitch": 56, "duration": 6, "velocity": 99}, {"time": 3435, "pitch": 52, "duration": 3, "velocity": 89}, {"time": 3438, "pitch": 44, "duration": 17, "velocity": 88}, {"time": 3441, "pitch": 51, "duration": 13, "velocity": 40}, {"time": 3444, "pitch": 56, "duration": 7, "velocity": 95}, {"time": 3447, "pitch": 59, "duration": 9, "velocity": 96}, {"time": 3450, "pitch": 68, "duration": 10, "velocity": 122}, {"time": 3453, "pitch": 56, "duration": 2, "velocity": 97}, {"time": 3456, "pitch": 63, "duration": 4, "velocity": 107}, {"time": 3459, "pitch": 59, "duration": 3, "velocity": 102}, {"time": 3462, "pitch": 45, "duration": 10, "velocity": 89}, {"time": 3465, "pitch": 52, "duration": 8, "velocity": 86}, {"time": 3468, "pitch": 57, "duration": 5, "velocity": 99}, {"time": 3471, "pitch": 64, "duration": 3, "velocity": 99}, {"time": 3474, "pitch": 47, "duration": 5, "velocity": 85}, {"time": 3477, "pitch": 59, "duration": 6, "velocity": 88}, {"time": 3480, "pitch": 63, "duration": 6, "velocity": 102}, {"time": 3483, "pitch": 66, "duration": 3, "velocity": 117}, {"time": 3486, "pitch": 40, "duration": 16, "velocity": 77}, {"time": 3489, "pitch": 47, "duration": 13, "velocity": 78}, {"time": 3492, "pitch": 52, "duration": 7, "velocity": 83}, {"time": 3495, "pitch": 56, "duration": 6, "velocity": 107}, {"time": 3498, "pitch": 64, "duration": 12, "velocity": 69}, {"time": 3501, "pitch": 52, "duration": 2, "velocity": 77}, {"time": 3504, "pitch": 56, "duration": 5, "velocity": 102}, {"time": 3507, "pitch": 59, "duration": 3, "velocity": 68}, {"time": 3510, "pitch": 42, "duration": 17, "velocity": 89}, {"time": 3513, "pitch": 49, "duration": 13, "velocity": 66}, {"time": 3516, "pitch": 54, "duration": 6, "velocity": 82}, {"time": 3519, "pitch": 57, "duration": 8, "velocity": 89}, {"time": 3522, "pitch": 66, "duration": 12, "velocity": 117}, {"time": 3525, "pitch": 54, "duration": 1, "velocity": 99}, {"time": 3528, "pitch": 61, "duration": 6, "velocity": 107}, {"time": 3531, "pitch": 57, "duration": 3, "velocity": 92}, {"time": 3534, "pitch": 37, "duration": 17, "velocity": 86}, {"time": 3537, "pitch": 44, "duration": 13, "velocity": 57}, {"time": 3540, "pitch": 49, "duration": 7, "velocity": 79}, {"time": 3543, "pitch": 52, "duration": 10, "velocity": 86}, {"time": 3546, "pitch": 61, "duration": 12, "velocity": 127}, {"time": 3549, "pitch": 49, "duration": 2, "velocity": 82}, {"time": 3552, "pitch": 56, "duration": 5, "velocity": 97}, {"time": 3555, "pitch": 52, "duration": 2, "velocity": 95}, {"time": 3558, "pitch": 45, "duration": 17, "velocity": 82}, {"time": 3561, "pitch": 52, "duration": 10, "velocity": 82}, {"time": 3564, "pitch": 57, "duration": 4, "velocity": 92}, {"time": 3567, "pitch": 61, "duration": 2, "velocity": 112}, {"time": 3570, "pitch": 64, "duration": 11, "velocity": 96}, {"time": 3573, "pitch": 52, "duration": 2, "velocity": 81}, {"time": 3576, "pitch": 61, "duration": 5, "velocity": 117}, {"time": 3579, "pitch": 57, "duration": 3, "velocity": 95}, {"time": 3582, "pitch": 44, "duration": 20, "velocity": 88}, {"time": 3585, "pitch": 51, "duration": 16, "velocity": 33}, {"time": 3588, "pitch": 56, "duration": 6, "velocity": 88}, {"time": 3591, "pitch": 60, "duration": 5, "velocity": 72}, {"time": 3594, "pitch": 68, "duration": 12, "velocity": 122}, {"time": 3597, "pitch": 56, "duration": 3, "velocity": 89}, {"time": 3600, "pitch": 63, "duration": 6, "velocity": 107}, {"time": 3603, "pitch": 60, "duration": 3, "velocity": 99}, {"time": 3606, "pitch": 37, "duration": 44, "velocity": 61}, {"time": 3606, "pitch": 44, "duration": 42, "velocity": 63}, {"time": 3606, "pitch": 49, "duration": 42, "velocity": 90}, {"time": 3606, "pitch": 52, "duration": 46, "velocity": 89}, {"time": 3606, "pitch": 56, "duration": 46, "velocity": 97}, {"time": 3606, "pitch": 61, "duration": 46, "velocity": 88}, {"time": 3654, "pitch": 37, "duration": 18, "velocity": 93}, {"time": 3657, "pitch": 44, "duration": 15, "velocity": 52}, {"time": 3660, "pitch": 49, "duration": 14, "velocity": 81}, {"time": 3663, "pitch": 61, "duration": 16, "velocity": 77}, {"time": 3666, "pitch": 64, "duration": 12, "velocity": 62}, {"time": 3678, "pitch": 44, "duration": 18, "velocity": 69}, {"time": 3681, "pitch": 51, "duration": 14, "velocity": 35}, {"time": 3684, "pitch": 56, "duration": 11, "velocity": 78}, {"time": 3687, "pitch": 59, "duration": 18, "velocity": 68}, {"time": 3704, "pitch": 45, "duration": 10, "velocity": 72}, {"time": 3708, "pitch": 52, "duration": 9, "velocity": 46}, {"time": 3712, "pitch": 57, "duration": 8, "velocity": 71}, {"time": 3715, "pitch": 61, "duration": 7, "velocity": 58}, {"time": 3719, "pitch": 47, "duration": 10, "velocity": 67}, {"time": 3723, "pitch": 59, "duration": 17, "velocity": 59}, {"time": 3727, "pitch": 66, "duration": 13, "velocity": 83}, {"time": 3731, "pitch": 63, "duration": 10, "velocity": 59}, {"time": 3737, "pitch": 37, "duration": 78, "velocity": 63}, {"time": 3742, "pitch": 44, "duration": 73, "velocity": 35}, {"time": 3746, "pitch": 49, "duration": 69, "velocity": 59}, {"time": 3750, "pitch": 52, "duration": 5, "velocity": 57}, {"time": 3754, "pitch": 56, "duration": 4, "velocity": 62}, {"time": 3758, "pitch": 61, "duration": 1, "velocity": 64}, {"time": 3762, "pitch": 64, "duration": 5, "velocity": 73}, {"time": 3766, "pitch": 68, "duration": 4, "velocity": 66}, {"time": 3769, "pitch": 73, "duration": 2, "velocity": 70}, {"time": 3774, "pitch": 76, "duration": 7, "velocity": 66}, {"time": 3779, "pitch": 80, "duration": 14, "velocity": 58}, {"time": 3784, "pitch": 85, "duration": 11, "velocity": 53}, {"time": 3790, "pitch": 88, "duration": 10, "velocity": 66}, {"time": 3804, "pitch": 85, "duration": 11, "velocity": 35}, {"time": 3806, "pitch": 88, "duration": 9, "velocity": 37}, {"time": 3806, "pitch": 92, "duration": 9, "velocity": 38}], "annotations": [{"time": 54, "annotation": {"number": 64, "value": 127}, "group": "control_change"}, {"time": 102, "annotation": {"number": 64, "value": 127}, "group": "control_change"}, {"time": 125, "annotation": {"number": 64, "value": 0}, "group": "control_change"}, {"time": 126, "annotation": {"number": 64, "value": 127}, "group": "control_change"}, {"time": 149, "annotation": {"number": 64, "value": 0}, "group": "control_change"}, {"time": 150, "annotation": {"number": 64, "value": 127}, "group": "control_change"}, {"time": 172, "annotation": {"number": 64, "value": 0}, "group": "control_change"}, {"time": 175, "annotation": {"number": 64, "value": 127}, "group": "control_change"}, {"time": 196, "annotation": {"number": 64, "value": 0}, "group": "control_change"}, {"time": 198, "annotation": {"number": 64, "value": 127}, "group": "control_change"}, {"time": 221, "annotation": {"number": 64, "value": 0}, "group": "control_change"}, {"time": 228, "annotation": {"number": 64, "value": 127}, "group": "control_change"}, {"time": 229, "annotation": {"number": 64, "value": 0}, "group": "control_change"}, {"time": 246, "annotation": {"number": 64, "value": 127}, "group": "control_change"}, {"time": 268, "annotation": {"number": 64, "value": 0}, "group": "control_change"}, {"time": 270, "annotation": {"number": 64, "value": 127}, "group": "control_change"}, {"time": 292, "annotation": {"number": 64, "value": 0}, "group": "control_change"}, {"time": 294, "annotation": {"number": 64, "value": 127}, "group": "control_change"}, {"time": 305, "annotation": {"number": 64, "value": 0}, "group": "control_change"}, {"time": 306, "annotation": {"number": 64, "value": 127}, "group": "control_change"}, {"time": 316, "annotation": {"number": 64, "value": 0}, "group": "control_change"}, {"time": 318, "annotation": {"number": 64, "value": 127}, "group": "control_change"}, {"time": 341, "annotation": {"number": 64, "value": 0}, "group": "control_change"}, {"time": 342, "annotation": {"number": 64, "value": 127}, "group": "control_change"}, {"time": 364, "annotation": {"number": 64, "value": 0}, "group": "control_change"}, {"time": 366, "annotation": {"number": 64, "value": 127}, "group": "control_change"}, {"time": 388, "annotation": {"number": 64, "value": 0}, "group": "control_change"}, {"time": 390, "annotation": {"number": 64, "value": 127}, "group": "control_change"}, {"time": 413, "annotation": {"number": 64, "value": 0}, "group": "control_change"}, {"time": 423, "annotation": {"number": 64, "value": 127}, "group": "control_change"}, {"time": 424, "annotation": {"number": 64, "value": 0}, "group": "control_change"}, {"time": 438, "annotation": {"number": 64, "value": 127}, "group": "control_change"}, {"time": 460, "annotation": {"number": 64, "value": 0}, "group": "control_change"}, {"time": 462, "annotation": {"number": 64, "value": 127}, "group": "control_change"}, {"time": 484, "annotation": {"number": 64, "value": 0}, "group": "control_change"}, {"time": 486, "annotation": {"number": 64, "value": 127}, "group": "control_change"}, {"time": 496, "annotation": {"number": 64, "value": 0}, "group": "control_change"}, {"time": 498, "annotation": {"number": 64, "value": 127}, "group": "control_change"}, {"time": 508, "annotation": {"number": 64, "value": 0}, "group": "control_change"}, {"time": 510, "annotation": {"number": 64, "value": 127}, "group": "control_change"}, {"time": 531, "annotation": {"number": 64, "value": 0}, "group": "control_change"}, {"time": 534, "annotation": {"number": 64, "value": 127}, "group": "control_change"}, {"time": 555, "annotation": {"number": 64, "value": 0}, "group": "control_change"}, {"time": 558, "annotation": {"number": 64, "value": 127}, "group": "control_change"}, {"time": 579, "annotation": {"number": 64, "value": 0}, "group": "control_change"}, {"time": 582, "annotation": {"number": 64, "value": 127}, "group": "control_change"}, {"time": 603, "annotation": {"number": 64, "value": 0}, "group": "control_change"}, {"time": 606, "annotation": {"number": 64, "value": 127}, "group": "control_change"}, {"time": 628, "annotation": {"number": 64, "value": 0}, "group": "control_change"}, {"time": 630, "annotation": {"number": 64, "value": 127}, "group": "control_change"}, {"time": 651, "annotation": {"number": 64, "value": 0}, "group": "control_change"}, {"time": 654, "annotation": {"number": 64, "value": 127}, "group": "control_change"}, {"time": 676, "annotation": {"number": 64, "value": 0}, "group": "control_change"}, {"time": 678, "annotation": {"number": 64, "value": 127}, "group": "control_change"}, {"time": 701, "annotation": {"number": 64, "value": 0}, "group": "control_change"}, {"time": 702, "annotation": {"number": 64, "value": 127}, "group": "control_change"}, {"time": 725, "annotation": {"number": 64, "value": 0}, "group": "control_change"}, {"time": 727, "annotation": {"number": 64, "value": 127}, "group": "control_change"}, {"time": 748, "annotation": {"number": 64, "value": 0}, "group": "control_change"}, {"time": 750, "annotation": {"number": 64, "value": 127}, "group": "control_change"}, {"time": 772, "annotation": {"number": 64, "value": 0}, "group": "control_change"}, {"time": 774, "annotation": {"number": 64, "value": 127}, "group": "control_change"}, {"time": 797, "annotation": {"number": 64, "value": 0}, "group": "control_change"}, {"time": 798, "annotation": {"number": 64, "value": 127}, "group": "control_change"}, {"time": 819, "annotation": {"number": 64, "value": 0}, "group": "control_change"}, {"time": 822, "annotation": {"number": 64, "value": 127}, "group": "control_change"}, {"time": 845, "annotation": {"number": 64, "value": 0}, "group": "control_change"}, {"time": 847, "annotation": {"number": 64, "value": 127}, "group": "control_change"}, {"time": 868, "annotation": {"number": 64, "value": 0}, "group": "control_change"}, {"time": 870, "annotation": {"number": 64, "value": 127}, "group": "control_change"}, {"time": 891, "annotation": {"number": 64, "value": 0}, "group": "control_change"}, {"time": 894, "annotation": {"number": 64, "value": 127}, "group": "control_change"}, {"time": 916, "annotation": {"number": 64, "value": 0}, "group": "control_change"}, {"time": 918, "annotation": {"number": 64, "value": 127}, "group": "control_change"}, {"time": 964, "annotation": {"number": 64, "value": 0}, "group": "control_change"}, {"time": 966, "annotation": {"number": 64, "value": 127}, "group": "control_change"}, {"time": 1011, "annotation": {"number": 64, "value": 0}, "group": "control_change"}, {"time": 1014, "annotation": {"number": 64, "value": 127}, "group": "control_change"}, {"time": 1036, "annotation": {"number": 64, "value": 0}, "group": "control_change"}, {"time": 1038, "annotation": {"number": 64, "value": 127}, "group": "control_change"}, {"time": 1060, "annotation": {"number": 64, "value": 0}, "group": "control_change"}, {"time": 1062, "annotation": {"number": 64, "value": 127}, "group": "control_change"}, {"time": 1083, "annotation": {"number": 64, "value": 0}, "group": "control_change"}, {"time": 1086, "annotation": {"number": 64, "value": 127}, "group": "control_change"}, {"time": 1108, "annotation": {"number": 64, "value": 0}, "group": "control_change"}, {"time": 1110, "annotation": {"number": 64, "value": 127}, "group": "control_change"}, {"time": 1132, "annotation": {"number": 64, "value": 0}, "group": "control_change"}, {"time": 1134, "annotation": {"number": 64, "value": 127}, "group": "control_change"}, {"time": 1155, "annotation": {"number": 64, "value": 0}, "group": "control_change"}, {"time": 1158, "annotation": {"number": 64, "value": 127}, "group": "control_change"}, {"time": 1179, "annotation": {"number": 64, "value": 0}, "group": "control_change"}, {"time": 1181, "annotation": {"number": 64, "value": 127}, "group": "control_change"}, {"time": 1203, "annotation": {"number": 64, "value": 0}, "group": "control_change"}, {"time": 1206, "annotation": {"number": 64, "value": 127}, "group": "control_change"}, {"time": 1227, "annotation": {"number": 64, "value": 0}, "group": "control_change"}, {"time": 1230, "annotation": {"number": 64, "value": 127}, "group": "control_change"}, {"time": 1251, "annotation": {"number": 64, "value": 0}, "group": "control_change"}, {"time": 1254, "annotation": {"number": 64, "value": 127}, "group": "control_change"}, {"time": 1277, "annotation": {"number": 64, "value": 0}, "group": "control_change"}, {"time": 1277, "annotation": {"number": 64, "value": 127}, "group": "control_change"}, {"time": 1289, "annotation": {"number": 64, "value": 0}, "group": "control_change"}, {"time": 1290, "annotation": {"number": 64, "value": 127}, "group": "control_change"}, {"time": 1301, "annotation": {"number": 64, "value": 0}, "group": "control_change"}, {"time": 1302, "annotation": {"number": 64, "value": 127}, "group": "control_change"}, {"time": 1349, "annotation": {"number": 64, "value": 0}, "group": "control_change"}, {"time": 1350, "annotation": {"number": 64, "value": 127}, "group": "control_change"}, {"time": 1371, "annotation": {"number": 64, "value": 0}, "group": "control_change"}, {"time": 1374, "annotation": {"number": 64, "value": 127}, "group": "control_change"}, {"time": 1395, "annotation": {"number": 64, "value": 0}, "group": "control_change"}, {"time": 1398, "annotation": {"number": 64, "value": 127}, "group": "control_change"}, {"time": 1421, "annotation": {"number": 64, "value": 0}, "group": "control_change"}, {"time": 1468, "annotation": {"number": 64, "value": 0}, "group": "control_change"}, {"time": 1470, "annotation": {"number": 64, "value": 127}, "group": "control_change"}, {"time": 1492, "annotation": {"number": 64, "value": 0}, "group": "control_change"}, {"time": 1494, "annotation": {"number": 64, "value": 127}, "group": "control_change"}, {"time": 1505, "annotation": {"number": 64, "value": 0}, "group": "control_change"}, {"time": 1506, "annotation": {"number": 64, "value": 127}, "group": "control_change"}, {"time": 1516, "annotation": {"number": 64, "value": 0}, "group": "control_change"}, {"time": 1518, "annotation": {"number": 64, "value": 127}, "group": "control_change"}, {"time": 1541, "annotation": {"number": 64, "value": 0}, "group": "control_change"}, {"time": 1542, "annotation": {"number": 64, "value": 127}, "group": "control_change"}, {"time": 1564, "annotation": {"number": 64, "value": 0}, "group": "control_change"}, {"time": 1566, "annotation": {"number": 64, "value": 127}, "group": "control_change"}, {"time": 1588, "annotation": {"number": 64, "value": 0}, "group": "control_change"}, {"time": 1590, "annotation": {"number": 64, "value": 127}, "group": "control_change"}, {"time": 1613, "annotation": {"number": 64, "value": 0}, "group": "control_change"}, {"time": 1623, "annotation": {"number": 64, "value": 127}, "group": "control_change"}, {"time": 1624, "annotation": {"number": 64, "value": 0}, "group": "control_change"}, {"time": 1638, "annotation": {"number": 64, "value": 127}, "group": "control_change"}, {"time": 1660, "annotation": {"number": 64, "value": 0}, "group": "control_change"}, {"time": 1662, "annotation": {"number": 64, "value": 127}, "group": "control_change"}, {"time": 1684, "annotation": {"number": 64, "value": 0}, "group": "control_change"}, {"time": 1686, "annotation": {"number": 64, "value": 127}, "group": "control_change"}, {"time": 1696, "annotation": {"number": 64, "value": 0}, "group": "control_change"}, {"time": 1698, "annotation": {"number": 64, "value": 127}, "group": "control_change"}, {"time": 1708, "annotation": {"number": 64, "value": 0}, "group": "control_change"}, {"time": 1710, "annotation": {"number": 64, "value": 127}, "group": "control_change"}, {"time": 1731, "annotation": {"number": 64, "value": 0}, "group": "control_change"}, {"time": 1734, "annotation": {"number": 64, "value": 127}, "group": "control_change"}, {"time": 1755, "annotation": {"number": 64, "value": 0}, "group": "control_change"}, {"time": 1758, "annotation": {"number": 64, "value": 127}, "group": "control_change"}, {"time": 1779, "annotation": {"number": 64, "value": 0}, "group": "control_change"}, {"time": 1782, "annotation": {"number": 64, "value": 127}, "group": "control_change"}, {"time": 1803, "annotation": {"number": 64, "value": 0}, "group": "control_change"}, {"time": 1806, "annotation": {"number": 64, "value": 127}, "group": "control_change"}, {"time": 1828, "annotation": {"number": 64, "value": 0}, "group": "control_change"}, {"time": 1830, "annotation": {"number": 64, "value": 127}, "group": "control_change"}, {"time": 1851, "annotation": {"number": 64, "value": 0}, "group": "control_change"}, {"time": 1854, "annotation": {"number": 64, "value": 127}, "group": "control_change"}, {"time": 1876, "annotation": {"number": 64, "value": 0}, "group": "control_change"}, {"time": 1878, "annotation": {"number": 64, "value": 127}, "group": "control_change"}, {"time": 1900, "annotation": {"number": 64, "value": 0}, "group": "control_change"}, {"time": 1902, "annotation": {"number": 64, "value": 127}, "group": "control_change"}, {"time": 1923, "annotation": {"number": 64, "value": 0}, "group": "control_change"}, {"time": 1926, "annotation": {"number": 64, "value": 127}, "group": "control_change"}, {"time": 1936, "annotation": {"number": 64, "value": 0}, "group": "control_change"}, {"time": 1938, "annotation": {"number": 64, "value": 127}, "group": "control_change"}, {"time": 1948, "annotation": {"number": 64, "value": 0}, "group": "control_change"}, {"time": 1950, "annotation": {"number": 64, "value": 127}, "group": "control_change"}, {"time": 1972, "annotation": {"number": 64, "value": 0}, "group": "control_change"}, {"time": 1974, "annotation": {"number": 64, "value": 127}, "group": "control_change"}, {"time": 1997, "annotation": {"number": 64, "value": 0}, "group": "control_change"}, {"time": 1998, "annotation": {"number": 64, "value": 127}, "group": "control_change"}, {"time": 2019, "annotation": {"number": 64, "value": 0}, "group": "control_change"}, {"time": 2022, "annotation": {"number": 64, "value": 127}, "group": "control_change"}, {"time": 2032, "annotation": {"number": 64, "value": 0}, "group": "control_change"}, {"time": 2034, "annotation": {"number": 64, "value": 127}, "group": "control_change"}, {"time": 2044, "annotation": {"number": 64, "value": 0}, "group": "control_change"}, {"time": 2046, "annotation": {"number": 64, "value": 127}, "group": "control_change"}, {"time": 2068, "annotation": {"number": 64, "value": 0}, "group": "control_change"}, {"time": 2070, "annotation": {"number": 64, "value": 127}, "group": "control_change"}, {"time": 2092, "annotation": {"number": 64, "value": 0}, "group": "control_change"}, {"time": 2094, "annotation": {"number": 64, "value": 127}, "group": "control_change"}, {"time": 2116, "annotation": {"number": 64, "value": 0}, "group": "control_change"}, {"time": 2118, "annotation": {"number": 64, "value": 127}, "group": "control_change"}, {"time": 2140, "annotation": {"number": 64, "value": 0}, "group": "control_change"}, {"time": 2142, "annotation": {"number": 64, "value": 127}, "group": "control_change"}, {"time": 2144, "annotation": {"number": 64, "value": 0}, "group": "control_change"}, {"time": 2154, "annotation": {"number": 64, "value": 127}, "group": "control_change"}, {"time": 2164, "annotation": {"number": 64, "value": 0}, "group": "control_change"}, {"time": 2166, "annotation": {"number": 64, "value": 127}, "group": "control_change"}, {"time": 2188, "annotation": {"number": 64, "value": 0}, "group": "control_change"}, {"time": 2190, "annotation": {"number": 64, "value": 127}, "group": "control_change"}, {"time": 2212, "annotation": {"number": 64, "value": 0}, "group": "control_change"}, {"time": 2214, "annotation": {"number": 64, "value": 127}, "group": "control_change"}, {"time": 2224, "annotation": {"number": 64, "value": 0}, "group": "control_change"}, {"time": 2226, "annotation": {"number": 64, "value": 127}, "group": "control_change"}, {"time": 2236, "annotation": {"number": 64, "value": 0}, "group": "control_change"}, {"time": 2238, "annotation": {"number": 64, "value": 127}, "group": "control_change"}, {"time": 2260, "annotation": {"number": 64, "value": 0}, "group": "control_change"}, {"time": 2262, "annotation": {"number": 64, "value": 127}, "group": "control_change"}, {"time": 2284, "annotation": {"number": 64, "value": 0}, "group": "control_change"}, {"time": 2286, "annotation": {"number": 64, "value": 127}, "group": "control_change"}, {"time": 2308, "annotation": {"number": 64, "value": 0}, "group": "control_change"}, {"time": 2310, "annotation": {"number": 64, "value": 127}, "group": "control_change"}, {"time": 2332, "annotation": {"number": 64, "value": 0}, "group": "control_change"}, {"time": 2334, "annotation": {"number": 64, "value": 127}, "group": "control_change"}, {"time": 2356, "annotation": {"number": 64, "value": 0}, "group": "control_change"}, {"time": 2358, "annotation": {"number": 64, "value": 127}, "group": "control_change"}, {"time": 2381, "annotation": {"number": 64, "value": 0}, "group": "control_change"}, {"time": 2383, "annotation": {"number": 64, "value": 127}, "group": "control_change"}, {"time": 2405, "annotation": {"number": 64, "value": 0}, "group": "control_change"}, {"time": 2406, "annotation": {"number": 64, "value": 127}, "group": "control_change"}, {"time": 2427, "annotation": {"number": 64, "value": 0}, "group": "control_change"}, {"time": 2430, "annotation": {"number": 64, "value": 127}, "group": "control_change"}, {"time": 2452, "annotation": {"number": 64, "value": 0}, "group": "control_change"}, {"time": 2454, "annotation": {"number": 64, "value": 127}, "group": "control_change"}, {"time": 2476, "annotation": {"number": 64, "value": 0}, "group": "control_change"}, {"time": 2478, "annotation": {"number": 64, "value": 127}, "group": "control_change"}, {"time": 2499, "annotation": {"number": 64, "value": 0}, "group": "control_change"}, {"time": 2502, "annotation": {"number": 64, "value": 127}, "group": "control_change"}, {"time": 2523, "annotation": {"number": 64, "value": 0}, "group": "control_change"}, {"time": 2525, "annotation": {"number": 64, "value": 127}, "group": "control_change"}, {"time": 2547, "annotation": {"number": 64, "value": 0}, "group": "control_change"}, {"time": 2550, "annotation": {"number": 64, "value": 127}, "group": "control_change"}, {"time": 2571, "annotation": {"number": 64, "value": 0}, "group": "control_change"}, {"time": 2574, "annotation": {"number": 64, "value": 127}, "group": "control_change"}, {"time": 2595, "annotation": {"number": 64, "value": 0}, "group": "control_change"}, {"time": 2598, "annotation": {"number": 64, "value": 127}, "group": "control_change"}, {"time": 2621, "annotation": {"number": 64, "value": 0}, "group": "control_change"}, {"time": 2621, "annotation": {"number": 64, "value": 127}, "group": "control_change"}, {"time": 2633, "annotation": {"number": 64, "value": 0}, "group": "control_change"}, {"time": 2634, "annotation": {"number": 64, "value": 127}, "group": "control_change"}, {"time": 2645, "annotation": {"number": 64, "value": 0}, "group": "control_change"}, {"time": 2646, "annotation": {"number": 64, "value": 127}, "group": "control_change"}, {"time": 2693, "annotation": {"number": 64, "value": 0}, "group": "control_change"}, {"time": 2694, "annotation": {"number": 64, "value": 127}, "group": "control_change"}, {"time": 2715, "annotation": {"number": 64, "value": 0}, "group": "control_change"}, {"time": 2718, "annotation": {"number": 64, "value": 127}, "group": "control_change"}, {"time": 2739, "annotation": {"number": 64, "value": 0}, "group": "control_change"}, {"time": 2742, "annotation": {"number": 64, "value": 127}, "group": "control_change"}, {"time": 2765, "annotation": {"number": 64, "value": 0}, "group": "control_change"}, {"time": 2812, "annotation": {"number": 64, "value": 0}, "group": "control_change"}, {"time": 2814, "annotation": {"number": 64, "value": 127}, "group": "control_change"}, {"time": 2836, "annotation": {"number": 64, "value": 0}, "group": "control_change"}, {"time": 2838, "annotation": {"number": 64, "value": 127}, "group": "control_change"}, {"time": 2849, "annotation": {"number": 64, "value": 0}, "group": "control_change"}, {"time": 2850, "annotation": {"number": 64, "value": 127}, "group": "control_change"}, {"time": 2860, "annotation": {"number": 64, "value": 0}, "group": "control_change"}, {"time": 2862, "annotation": {"number": 64, "value": 127}, "group": "control_change"}, {"time": 2885, "annotation": {"number": 64, "value": 0}, "group": "control_change"}, {"time": 2886, "annotation": {"number": 64, "value": 127}, "group": "control_change"}, {"time": 2908, "annotation": {"number": 64, "value": 0}, "group": "control_change"}, {"time": 2910, "annotation": {"number": 64, "value": 127}, "group": "control_change"}, {"time": 2932, "annotation": {"number": 64, "value": 0}, "group": "control_change"}, {"time": 2934, "annotation": {"number": 64, "value": 127}, "group": "control_change"}, {"time": 2957, "annotation": {"number": 64, "value": 0}, "group": "control_change"}, {"time": 2967, "annotation": {"number": 64, "value": 127}, "group": "control_change"}, {"time": 2968, "annotation": {"number": 64, "value": 0}, "group": "control_change"}, {"time": 2982, "annotation": {"number": 64, "value": 127}, "group": "control_change"}, {"time": 3004, "annotation": {"number": 64, "value": 0}, "group": "control_change"}, {"time": 3006, "annotation": {"number": 64, "value": 127}, "group": "control_change"}, {"time": 3028, "annotation": {"number": 64, "value": 0}, "group": "control_change"}, {"time": 3030, "annotation": {"number": 64, "value": 127}, "group": "control_change"}, {"time": 3040, "annotation": {"number": 64, "value": 0}, "group": "control_change"}, {"time": 3042, "annotation": {"number": 64, "value": 127}, "group": "control_change"}, {"time": 3052, "annotation": {"number": 64, "value": 0}, "group": "control_change"}, {"time": 3054, "annotation": {"number": 64, "value": 127}, "group": "control_change"}, {"time": 3075, "annotation": {"number": 64, "value": 0}, "group": "control_change"}, {"time": 3078, "annotation": {"number": 64, "value": 127}, "group": "control_change"}, {"time": 3099, "annotation": {"number": 64, "value": 0}, "group": "control_change"}, {"time": 3102, "annotation": {"number": 64, "value": 127}, "group": "control_change"}, {"time": 3123, "annotation": {"number": 64, "value": 0}, "group": "control_change"}, {"time": 3126, "annotation": {"number": 64, "value": 127}, "group": "control_change"}, {"time": 3147, "annotation": {"number": 64, "value": 0}, "group": "control_change"}, {"time": 3150, "annotation": {"number": 64, "value": 127}, "group": "control_change"}, {"time": 3172, "annotation": {"number": 64, "value": 0}, "group": "control_change"}, {"time": 3174, "annotation": {"number": 64, "value": 127}, "group": "control_change"}, {"time": 3219, "annotation": {"number": 64, "value": 0}, "group": "control_change"}, {"time": 3222, "annotation": {"number": 64, "value": 127}, "group": "control_change"}, {"time": 3243, "annotation": {"number": 64, "value": 0}, "group": "control_change"}, {"time": 3246, "annotation": {"number": 64, "value": 127}, "group": "control_change"}, {"time": 3267, "annotation": {"number": 64, "value": 0}, "group": "control_change"}, {"time": 3270, "annotation": {"number": 64, "value": 127}, "group": "control_change"}, {"time": 3279, "annotation": {"number": 64, "value": 0}, "group": "control_change"}, {"time": 3282, "annotation": {"number": 64, "value": 127}, "group": "control_change"}, {"time": 3291, "annotation": {"number": 64, "value": 0}, "group": "control_change"}, {"time": 3294, "annotation": {"number": 64, "value": 127}, "group": "control_change"}, {"time": 3316, "annotation": {"number": 64, "value": 0}, "group": "control_change"}, {"time": 3318, "annotation": {"number": 64, "value": 127}, "group": "control_change"}, {"time": 3341, "annotation": {"number": 64, "value": 0}, "group": "control_change"}, {"time": 3342, "annotation": {"number": 64, "value": 127}, "group": "control_change"}, {"time": 3365, "annotation": {"number": 64, "value": 0}, "group": "control_change"}, {"time": 3366, "annotation": {"number": 64, "value": 127}, "group": "control_change"}, {"time": 3377, "annotation": {"number": 64, "value": 0}, "group": "control_change"}, {"time": 3378, "annotation": {"number": 64, "value": 127}, "group": "control_change"}, {"time": 3389, "annotation": {"number": 64, "value": 0}, "group": "control_change"}, {"time": 3399, "annotation": {"number": 64, "value": 127}, "group": "control_change"}, {"time": 3401, "annotation": {"number": 64, "value": 0}, "group": "control_change"}, {"time": 3414, "annotation": {"number": 64, "value": 127}, "group": "control_change"}, {"time": 3436, "annotation": {"number": 64, "value": 0}, "group": "control_change"}, {"time": 3438, "annotation": {"number": 64, "value": 127}, "group": "control_change"}, {"time": 3460, "annotation": {"number": 64, "value": 0}, "group": "control_change"}, {"time": 3462, "annotation": {"number": 64, "value": 127}, "group": "control_change"}, {"time": 3472, "annotation": {"number": 64, "value": 0}, "group": "control_change"}, {"time": 3474, "annotation": {"number": 64, "value": 127}, "group": "control_change"}, {"time": 3484, "annotation": {"number": 64, "value": 0}, "group": "control_change"}, {"time": 3486, "annotation": {"number": 64, "value": 127}, "group": "control_change"}, {"time": 3507, "annotation": {"number": 64, "value": 0}, "group": "control_change"}, {"time": 3510, "annotation": {"number": 64, "value": 127}, "group": "control_change"}, {"time": 3531, "annotation": {"number": 64, "value": 0}, "group": "control_change"}, {"time": 3534, "annotation": {"number": 64, "value": 127}, "group": "control_change"}, {"time": 3555, "annotation": {"number": 64, "value": 0}, "group": "control_change"}, {"time": 3558, "annotation": {"number": 64, "value": 127}, "group": "control_change"}, {"time": 3579, "annotation": {"number": 64, "value": 0}, "group": "control_change"}, {"time": 3582, "annotation": {"number": 64, "value": 127}, "group": "control_change"}, {"time": 3604, "annotation": {"number": 64, "value": 0}, "group": "control_change"}, {"time": 3617, "annotation": {"number": 64, "value": 127}, "group": "control_change"}, {"time": 3640, "annotation": {"number": 64, "value": 0}, "group": "control_change"}, {"time": 3641, "annotation": {"number": 64, "value": 127}, "group": "control_change"}, {"time": 3650, "annotation": {"number": 64, "value": 0}, "group": "control_change"}, {"time": 3654, "annotation": {"number": 64, "value": 127}, "group": "control_change"}, {"time": 3655, "annotation": {"number": 64, "value": 127}, "group": "control_change"}, {"time": 3676, "annotation": {"number": 64, "value": 0}, "group": "control_change"}, {"time": 3678, "annotation": {"number": 64, "value": 127}, "group": "control_change"}, {"time": 3702, "annotation": {"number": 64, "value": 0}, "group": "control_change"}, {"time": 3704, "annotation": {"number": 64, "value": 127}, "group": "control_change"}, {"time": 3717, "annotation": {"number": 64, "value": 0}, "group": "control_change"}, {"time": 3720, "annotation": {"number": 64, "value": 127}, "group": "control_change"}, {"time": 3829, "annotation": {"number": 64, "value": 0}, "group": "control_change"}, {"time": 3832, "annotation": {"number": 64, "value": 127}, "group": "control_change"}, {"time": 3834, "annotation": {"number": 64, "value": 0}, "group": "control_change"}]}]}