{"metadata": {"schema_version": "0.2", "title": "None", "source_filename": "768.mid", "source_format": "midi"}, "resolution": 12, "tempos": [{"time": 0, "qpm": 75.99996960001216}], "time_signatures": [{"time": 0, "numerator": 1, "denominator": 4}], "tracks": [{"program": 4, "is_drum": false, "name": "MELODY", "notes": [{"time": 403, "pitch": 60, "duration": 7, "velocity": 97}, {"time": 409, "pitch": 63, "duration": 7, "velocity": 102}, {"time": 415, "pitch": 65, "duration": 6, "velocity": 89}, {"time": 421, "pitch": 68, "duration": 6, "velocity": 112}, {"time": 427, "pitch": 65, "duration": 7, "velocity": 90}, {"time": 433, "pitch": 70, "duration": 20, "velocity": 122}, {"time": 463, "pitch": 72, "duration": 4, "velocity": 100}, {"time": 466, "pitch": 70, "duration": 4, "velocity": 90}, {"time": 469, "pitch": 68, "duration": 16, "velocity": 89}, {"time": 487, "pitch": 68, "duration": 6, "velocity": 112}, {"time": 493, "pitch": 70, "duration": 5, "velocity": 99}, {"time": 499, "pitch": 72, "duration": 5, "velocity": 83}, {"time": 505, "pitch": 72, "duration": 7, "velocity": 112}, {"time": 511, "pitch": 70, "duration": 5, "velocity": 79}, {"time": 517, "pitch": 70, "duration": 7, "velocity": 112}, {"time": 523, "pitch": 68, "duration": 6, "velocity": 90}, {"time": 529, "pitch": 65, "duration": 27, "velocity": 89}, {"time": 595, "pitch": 60, "duration": 6, "velocity": 93}, {"time": 601, "pitch": 63, "duration": 10, "velocity": 107}, {"time": 613, "pitch": 65, "duration": 7, "velocity": 93}, {"time": 619, "pitch": 68, "duration": 7, "velocity": 102}, {"time": 625, "pitch": 70, "duration": 8, "velocity": 100}, {"time": 637, "pitch": 70, "duration": 9, "velocity": 112}, {"time": 649, "pitch": 70, "duration": 8, "velocity": 122}, {"time": 661, "pitch": 70, "duration": 6, "velocity": 112}, {"time": 667, "pitch": 68, "duration": 11, "velocity": 100}, {"time": 679, "pitch": 70, "duration": 5, "velocity": 117}, {"time": 685, "pitch": 70, "duration": 5, "velocity": 122}, {"time": 691, "pitch": 72, "duration": 4, "velocity": 97}, {"time": 697, "pitch": 72, "duration": 6, "velocity": 100}, {"time": 703, "pitch": 70, "duration": 4, "velocity": 66}, {"time": 709, "pitch": 70, "duration": 7, "velocity": 112}, {"time": 715, "pitch": 68, "duration": 7, "velocity": 73}, {"time": 721, "pitch": 65, "duration": 35, "velocity": 85}, {"time": 787, "pitch": 60, "duration": 7, "velocity": 97}, {"time": 793, "pitch": 63, "duration": 7, "velocity": 102}, {"time": 799, "pitch": 65, "duration": 6, "velocity": 89}, {"time": 805, "pitch": 68, "duration": 6, "velocity": 112}, {"time": 811, "pitch": 65, "duration": 7, "velocity": 90}, {"time": 817, "pitch": 70, "duration": 20, "velocity": 122}, {"time": 847, "pitch": 72, "duration": 4, "velocity": 100}, {"time": 850, "pitch": 70, "duration": 4, "velocity": 90}, {"time": 853, "pitch": 68, "duration": 16, "velocity": 89}, {"time": 871, "pitch": 68, "duration": 6, "velocity": 112}, {"time": 877, "pitch": 70, "duration": 5, "velocity": 99}, {"time": 883, "pitch": 72, "duration": 5, "velocity": 83}, {"time": 889, "pitch": 72, "duration": 7, "velocity": 112}, {"time": 895, "pitch": 70, "duration": 5, "velocity": 79}, {"time": 901, "pitch": 70, "duration": 7, "velocity": 112}, {"time": 907, "pitch": 68, "duration": 6, "velocity": 90}, {"time": 913, "pitch": 65, "duration": 27, "velocity": 89}, {"time": 979, "pitch": 60, "duration": 6, "velocity": 93}, {"time": 985, "pitch": 63, "duration": 10, "velocity": 107}, {"time": 997, "pitch": 65, "duration": 7, "velocity": 93}, {"time": 1003, "pitch": 68, "duration": 7, "velocity": 102}, {"time": 1009, "pitch": 70, "duration": 8, "velocity": 100}, {"time": 1021, "pitch": 70, "duration": 9, "velocity": 112}, {"time": 1033, "pitch": 70, "duration": 8, "velocity": 122}, {"time": 1045, "pitch": 70, "duration": 6, "velocity": 112}, {"time": 1051, "pitch": 68, "duration": 11, "velocity": 100}, {"time": 1063, "pitch": 70, "duration": 5, "velocity": 117}, {"time": 1069, "pitch": 70, "duration": 5, "velocity": 122}, {"time": 1075, "pitch": 72, "duration": 4, "velocity": 97}, {"time": 1081, "pitch": 72, "duration": 6, "velocity": 100}, {"time": 1087, "pitch": 70, "duration": 4, "velocity": 66}, {"time": 1093, "pitch": 70, "duration": 7, "velocity": 112}, {"time": 1099, "pitch": 68, "duration": 7, "velocity": 73}, {"time": 1105, "pitch": 65, "duration": 35, "velocity": 85}, {"time": 1171, "pitch": 68, "duration": 4, "velocity": 82}, {"time": 1177, "pitch": 68, "duration": 10, "velocity": 122}, {"time": 1189, "pitch": 70, "duration": 5, "velocity": 122}, {"time": 1195, "pitch": 72, "duration": 7, "velocity": 90}, {"time": 1201, "pitch": 75, "duration": 5, "velocity": 122}, {"time": 1207, "pitch": 75, "duration": 5, "velocity": 102}, {"time": 1213, "pitch": 75, "duration": 6, "velocity": 112}, {"time": 1219, "pitch": 72, "duration": 6, "velocity": 86}, {"time": 1225, "pitch": 75, "duration": 5, "velocity": 122}, {"time": 1231, "pitch": 77, "duration": 4, "velocity": 112}, {"time": 1237, "pitch": 77, "duration": 5, "velocity": 96}, {"time": 1243, "pitch": 75, "duration": 5, "velocity": 102}, {"time": 1249, "pitch": 77, "duration": 5, "velocity": 107}, {"time": 1255, "pitch": 77, "duration": 4, "velocity": 107}, {"time": 1261, "pitch": 77, "duration": 4, "velocity": 102}, {"time": 1267, "pitch": 75, "duration": 5, "velocity": 102}, {"time": 1273, "pitch": 72, "duration": 6, "velocity": 107}, {"time": 1285, "pitch": 75, "duration": 6, "velocity": 127}, {"time": 1291, "pitch": 77, "duration": 5, "velocity": 107}, {"time": 1297, "pitch": 80, "duration": 4, "velocity": 122}, {"time": 1303, "pitch": 80, "duration": 5, "velocity": 127}, {"time": 1309, "pitch": 80, "duration": 5, "velocity": 127}, {"time": 1315, "pitch": 80, "duration": 4, "velocity": 127}, {"time": 1321, "pitch": 80, "duration": 4, "velocity": 127}, {"time": 1327, "pitch": 77, "duration": 5, "velocity": 112}, {"time": 1333, "pitch": 77, "duration": 4, "velocity": 96}, {"time": 1339, "pitch": 80, "duration": 5, "velocity": 127}, {"time": 1345, "pitch": 77, "duration": 5, "velocity": 117}, {"time": 1351, "pitch": 77, "duration": 5, "velocity": 99}, {"time": 1357, "pitch": 77, "duration": 4, "velocity": 107}, {"time": 1363, "pitch": 75, "duration": 4, "velocity": 127}, {"time": 1369, "pitch": 72, "duration": 9, "velocity": 117}, {"time": 1381, "pitch": 75, "duration": 6, "velocity": 127}, {"time": 1387, "pitch": 72, "duration": 6, "velocity": 100}, {"time": 1393, "pitch": 70, "duration": 4, "velocity": 112}, {"time": 1399, "pitch": 70, "duration": 5, "velocity": 112}, {"time": 1405, "pitch": 70, "duration": 5, "velocity": 127}, {"time": 1411, "pitch": 68, "duration": 5, "velocity": 112}, {"time": 1417, "pitch": 65, "duration": 8, "velocity": 100}, {"time": 1429, "pitch": 68, "duration": 5, "velocity": 127}, {"time": 1435, "pitch": 70, "duration": 4, "velocity": 112}, {"time": 1441, "pitch": 70, "duration": 11, "velocity": 122}, {"time": 1453, "pitch": 70, "duration": 5, "velocity": 117}, {"time": 1459, "pitch": 72, "duration": 6, "velocity": 102}, {"time": 1465, "pitch": 75, "duration": 5, "velocity": 122}, {"time": 1471, "pitch": 77, "duration": 4, "velocity": 127}, {"time": 1477, "pitch": 77, "duration": 6, "velocity": 107}, {"time": 1483, "pitch": 75, "duration": 8, "velocity": 117}, {"time": 1495, "pitch": 72, "duration": 17, "velocity": 112}, {"time": 1525, "pitch": 68, "duration": 6, "velocity": 122}, {"time": 1531, "pitch": 70, "duration": 5, "velocity": 117}, {"time": 1537, "pitch": 75, "duration": 5, "velocity": 122}, {"time": 1543, "pitch": 75, "duration": 5, "velocity": 102}, {"time": 1549, "pitch": 75, "duration": 6, "velocity": 112}, {"time": 1555, "pitch": 72, "duration": 6, "velocity": 86}, {"time": 1561, "pitch": 75, "duration": 5, "velocity": 122}, {"time": 1567, "pitch": 77, "duration": 4, "velocity": 112}, {"time": 1573, "pitch": 77, "duration": 5, "velocity": 96}, {"time": 1579, "pitch": 75, "duration": 5, "velocity": 102}, {"time": 1585, "pitch": 77, "duration": 5, "velocity": 107}, {"time": 1591, "pitch": 77, "duration": 4, "velocity": 107}, {"time": 1597, "pitch": 77, "duration": 4, "velocity": 102}, {"time": 1603, "pitch": 75, "duration": 5, "velocity": 102}, {"time": 1609, "pitch": 72, "duration": 6, "velocity": 107}, {"time": 1621, "pitch": 75, "duration": 6, "velocity": 127}, {"time": 1627, "pitch": 77, "duration": 5, "velocity": 107}, {"time": 1633, "pitch": 80, "duration": 4, "velocity": 122}, {"time": 1639, "pitch": 80, "duration": 5, "velocity": 127}, {"time": 1645, "pitch": 80, "duration": 5, "velocity": 127}, {"time": 1651, "pitch": 80, "duration": 4, "velocity": 127}, {"time": 1657, "pitch": 80, "duration": 4, "velocity": 127}, {"time": 1663, "pitch": 77, "duration": 5, "velocity": 112}, {"time": 1669, "pitch": 77, "duration": 4, "velocity": 96}, {"time": 1675, "pitch": 80, "duration": 5, "velocity": 127}, {"time": 1681, "pitch": 77, "duration": 5, "velocity": 117}, {"time": 1687, "pitch": 77, "duration": 5, "velocity": 99}, {"time": 1693, "pitch": 77, "duration": 4, "velocity": 107}, {"time": 1699, "pitch": 75, "duration": 4, "velocity": 127}, {"time": 1705, "pitch": 72, "duration": 9, "velocity": 117}, {"time": 1717, "pitch": 75, "duration": 6, "velocity": 127}, {"time": 1723, "pitch": 72, "duration": 6, "velocity": 100}, {"time": 1729, "pitch": 70, "duration": 4, "velocity": 112}, {"time": 1735, "pitch": 70, "duration": 5, "velocity": 112}, {"time": 1741, "pitch": 70, "duration": 5, "velocity": 127}, {"time": 1747, "pitch": 68, "duration": 5, "velocity": 112}, {"time": 1753, "pitch": 65, "duration": 8, "velocity": 100}, {"time": 1765, "pitch": 68, "duration": 5, "velocity": 127}, {"time": 1771, "pitch": 70, "duration": 4, "velocity": 112}, {"time": 1777, "pitch": 70, "duration": 11, "velocity": 122}, {"time": 1789, "pitch": 70, "duration": 5, "velocity": 117}, {"time": 1795, "pitch": 72, "duration": 6, "velocity": 102}, {"time": 1801, "pitch": 70, "duration": 9, "velocity": 107}, {"time": 1813, "pitch": 68, "duration": 6, "velocity": 107}, {"time": 1819, "pitch": 65, "duration": 5, "velocity": 75}, {"time": 1825, "pitch": 65, "duration": 33, "velocity": 99}, {"time": 2035, "pitch": 60, "duration": 7, "velocity": 97}, {"time": 2041, "pitch": 63, "duration": 7, "velocity": 102}, {"time": 2047, "pitch": 65, "duration": 6, "velocity": 89}, {"time": 2053, "pitch": 68, "duration": 6, "velocity": 112}, {"time": 2059, "pitch": 65, "duration": 7, "velocity": 90}, {"time": 2065, "pitch": 70, "duration": 20, "velocity": 122}, {"time": 2095, "pitch": 72, "duration": 4, "velocity": 100}, {"time": 2098, "pitch": 70, "duration": 4, "velocity": 90}, {"time": 2101, "pitch": 68, "duration": 16, "velocity": 89}, {"time": 2119, "pitch": 68, "duration": 6, "velocity": 112}, {"time": 2125, "pitch": 70, "duration": 5, "velocity": 99}, {"time": 2131, "pitch": 72, "duration": 5, "velocity": 83}, {"time": 2137, "pitch": 72, "duration": 7, "velocity": 112}, {"time": 2143, "pitch": 70, "duration": 5, "velocity": 79}, {"time": 2149, "pitch": 70, "duration": 7, "velocity": 112}, {"time": 2155, "pitch": 68, "duration": 6, "velocity": 90}, {"time": 2161, "pitch": 65, "duration": 27, "velocity": 89}, {"time": 2227, "pitch": 60, "duration": 6, "velocity": 93}, {"time": 2233, "pitch": 63, "duration": 10, "velocity": 107}, {"time": 2245, "pitch": 65, "duration": 7, "velocity": 93}, {"time": 2251, "pitch": 68, "duration": 7, "velocity": 102}, {"time": 2257, "pitch": 70, "duration": 8, "velocity": 100}, {"time": 2269, "pitch": 70, "duration": 9, "velocity": 112}, {"time": 2281, "pitch": 70, "duration": 8, "velocity": 122}, {"time": 2293, "pitch": 70, "duration": 6, "velocity": 112}, {"time": 2299, "pitch": 68, "duration": 11, "velocity": 100}, {"time": 2311, "pitch": 70, "duration": 5, "velocity": 117}, {"time": 2317, "pitch": 70, "duration": 5, "velocity": 122}, {"time": 2323, "pitch": 72, "duration": 4, "velocity": 97}, {"time": 2329, "pitch": 72, "duration": 6, "velocity": 100}, {"time": 2335, "pitch": 70, "duration": 4, "velocity": 66}, {"time": 2341, "pitch": 70, "duration": 7, "velocity": 112}, {"time": 2347, "pitch": 68, "duration": 7, "velocity": 73}, {"time": 2353, "pitch": 65, "duration": 35, "velocity": 85}, {"time": 2419, "pitch": 68, "duration": 4, "velocity": 82}, {"time": 2425, "pitch": 68, "duration": 10, "velocity": 122}, {"time": 2437, "pitch": 70, "duration": 5, "velocity": 122}, {"time": 2443, "pitch": 72, "duration": 7, "velocity": 90}, {"time": 2449, "pitch": 75, "duration": 5, "velocity": 122}, {"time": 2455, "pitch": 75, "duration": 5, "velocity": 102}, {"time": 2461, "pitch": 75, "duration": 6, "velocity": 112}, {"time": 2467, "pitch": 72, "duration": 6, "velocity": 86}, {"time": 2473, "pitch": 75, "duration": 5, "velocity": 122}, {"time": 2479, "pitch": 77, "duration": 4, "velocity": 112}, {"time": 2485, "pitch": 77, "duration": 5, "velocity": 96}, {"time": 2491, "pitch": 75, "duration": 5, "velocity": 102}, {"time": 2497, "pitch": 77, "duration": 5, "velocity": 107}, {"time": 2503, "pitch": 77, "duration": 4, "velocity": 107}, {"time": 2509, "pitch": 77, "duration": 4, "velocity": 102}, {"time": 2515, "pitch": 75, "duration": 5, "velocity": 102}, {"time": 2521, "pitch": 72, "duration": 6, "velocity": 107}, {"time": 2533, "pitch": 75, "duration": 6, "velocity": 127}, {"time": 2539, "pitch": 77, "duration": 5, "velocity": 107}, {"time": 2545, "pitch": 80, "duration": 4, "velocity": 122}, {"time": 2551, "pitch": 80, "duration": 5, "velocity": 127}, {"time": 2557, "pitch": 80, "duration": 5, "velocity": 127}, {"time": 2563, "pitch": 80, "duration": 4, "velocity": 127}, {"time": 2569, "pitch": 80, "duration": 4, "velocity": 127}, {"time": 2575, "pitch": 77, "duration": 5, "velocity": 112}, {"time": 2581, "pitch": 77, "duration": 4, "velocity": 96}, {"time": 2587, "pitch": 80, "duration": 5, "velocity": 127}, {"time": 2593, "pitch": 77, "duration": 5, "velocity": 117}, {"time": 2599, "pitch": 77, "duration": 5, "velocity": 99}, {"time": 2605, "pitch": 77, "duration": 4, "velocity": 107}, {"time": 2611, "pitch": 75, "duration": 4, "velocity": 127}, {"time": 2617, "pitch": 72, "duration": 9, "velocity": 117}, {"time": 2629, "pitch": 75, "duration": 6, "velocity": 127}, {"time": 2635, "pitch": 72, "duration": 6, "velocity": 100}, {"time": 2641, "pitch": 70, "duration": 4, "velocity": 112}, {"time": 2647, "pitch": 70, "duration": 5, "velocity": 112}, {"time": 2653, "pitch": 70, "duration": 5, "velocity": 127}, {"time": 2659, "pitch": 68, "duration": 5, "velocity": 112}, {"time": 2665, "pitch": 65, "duration": 8, "velocity": 100}, {"time": 2677, "pitch": 68, "duration": 5, "velocity": 127}, {"time": 2683, "pitch": 70, "duration": 4, "velocity": 112}, {"time": 2689, "pitch": 70, "duration": 11, "velocity": 122}, {"time": 2701, "pitch": 70, "duration": 5, "velocity": 117}, {"time": 2707, "pitch": 72, "duration": 6, "velocity": 102}, {"time": 2713, "pitch": 75, "duration": 5, "velocity": 122}, {"time": 2719, "pitch": 77, "duration": 4, "velocity": 127}, {"time": 2725, "pitch": 77, "duration": 6, "velocity": 107}, {"time": 2731, "pitch": 75, "duration": 8, "velocity": 117}, {"time": 2743, "pitch": 72, "duration": 17, "velocity": 112}, {"time": 2773, "pitch": 68, "duration": 6, "velocity": 122}, {"time": 2779, "pitch": 70, "duration": 5, "velocity": 117}, {"time": 2785, "pitch": 75, "duration": 5, "velocity": 122}, {"time": 2791, "pitch": 75, "duration": 5, "velocity": 102}, {"time": 2797, "pitch": 75, "duration": 6, "velocity": 112}, {"time": 2803, "pitch": 72, "duration": 6, "velocity": 86}, {"time": 2809, "pitch": 75, "duration": 5, "velocity": 122}, {"time": 2815, "pitch": 77, "duration": 4, "velocity": 112}, {"time": 2821, "pitch": 77, "duration": 5, "velocity": 96}, {"time": 2827, "pitch": 75, "duration": 5, "velocity": 102}, {"time": 2833, "pitch": 77, "duration": 5, "velocity": 107}, {"time": 2839, "pitch": 77, "duration": 4, "velocity": 107}, {"time": 2845, "pitch": 77, "duration": 4, "velocity": 102}, {"time": 2851, "pitch": 75, "duration": 5, "velocity": 102}, {"time": 2857, "pitch": 72, "duration": 6, "velocity": 107}, {"time": 2869, "pitch": 75, "duration": 6, "velocity": 127}, {"time": 2875, "pitch": 77, "duration": 5, "velocity": 107}, {"time": 2881, "pitch": 80, "duration": 4, "velocity": 122}, {"time": 2887, "pitch": 80, "duration": 5, "velocity": 127}, {"time": 2893, "pitch": 80, "duration": 5, "velocity": 127}, {"time": 2899, "pitch": 80, "duration": 4, "velocity": 127}, {"time": 2905, "pitch": 80, "duration": 4, "velocity": 127}, {"time": 2911, "pitch": 77, "duration": 5, "velocity": 112}, {"time": 2917, "pitch": 77, "duration": 4, "velocity": 96}, {"time": 2923, "pitch": 80, "duration": 5, "velocity": 127}, {"time": 2929, "pitch": 77, "duration": 5, "velocity": 117}, {"time": 2935, "pitch": 77, "duration": 5, "velocity": 99}, {"time": 2941, "pitch": 77, "duration": 4, "velocity": 107}, {"time": 2947, "pitch": 75, "duration": 4, "velocity": 127}, {"time": 2953, "pitch": 72, "duration": 9, "velocity": 117}, {"time": 2965, "pitch": 75, "duration": 6, "velocity": 127}, {"time": 2971, "pitch": 72, "duration": 6, "velocity": 100}, {"time": 2977, "pitch": 70, "duration": 4, "velocity": 112}, {"time": 2983, "pitch": 70, "duration": 5, "velocity": 112}, {"time": 2989, "pitch": 70, "duration": 5, "velocity": 127}, {"time": 2995, "pitch": 68, "duration": 5, "velocity": 112}, {"time": 3001, "pitch": 65, "duration": 8, "velocity": 100}, {"time": 3013, "pitch": 68, "duration": 5, "velocity": 127}, {"time": 3019, "pitch": 70, "duration": 4, "velocity": 112}, {"time": 3025, "pitch": 70, "duration": 11, "velocity": 122}, {"time": 3037, "pitch": 70, "duration": 5, "velocity": 117}, {"time": 3043, "pitch": 72, "duration": 6, "velocity": 102}, {"time": 3049, "pitch": 70, "duration": 9, "velocity": 107}, {"time": 3061, "pitch": 68, "duration": 6, "velocity": 107}, {"time": 3067, "pitch": 65, "duration": 5, "velocity": 75}, {"time": 3073, "pitch": 65, "duration": 33, "velocity": 99}, {"time": 3571, "pitch": 68, "duration": 4, "velocity": 112}, {"time": 3577, "pitch": 68, "duration": 10, "velocity": 127}, {"time": 3589, "pitch": 70, "duration": 7, "velocity": 127}, {"time": 3595, "pitch": 72, "duration": 4, "velocity": 112}, {"time": 3601, "pitch": 75, "duration": 5, "velocity": 122}, {"time": 3607, "pitch": 75, "duration": 5, "velocity": 102}, {"time": 3613, "pitch": 75, "duration": 6, "velocity": 112}, {"time": 3619, "pitch": 72, "duration": 6, "velocity": 86}, {"time": 3625, "pitch": 75, "duration": 5, "velocity": 122}, {"time": 3631, "pitch": 77, "duration": 4, "velocity": 112}, {"time": 3637, "pitch": 77, "duration": 5, "velocity": 96}, {"time": 3643, "pitch": 75, "duration": 5, "velocity": 102}, {"time": 3649, "pitch": 77, "duration": 5, "velocity": 107}, {"time": 3655, "pitch": 77, "duration": 4, "velocity": 107}, {"time": 3661, "pitch": 77, "duration": 4, "velocity": 102}, {"time": 3667, "pitch": 75, "duration": 5, "velocity": 102}, {"time": 3673, "pitch": 72, "duration": 6, "velocity": 107}, {"time": 3685, "pitch": 75, "duration": 6, "velocity": 127}, {"time": 3691, "pitch": 77, "duration": 5, "velocity": 107}, {"time": 3697, "pitch": 80, "duration": 4, "velocity": 122}, {"time": 3703, "pitch": 80, "duration": 5, "velocity": 127}, {"time": 3709, "pitch": 80, "duration": 5, "velocity": 127}, {"time": 3715, "pitch": 80, "duration": 4, "velocity": 127}, {"time": 3721, "pitch": 80, "duration": 4, "velocity": 127}, {"time": 3727, "pitch": 77, "duration": 5, "velocity": 112}, {"time": 3733, "pitch": 77, "duration": 4, "velocity": 96}, {"time": 3739, "pitch": 80, "duration": 5, "velocity": 127}, {"time": 3745, "pitch": 77, "duration": 5, "velocity": 117}, {"time": 3751, "pitch": 77, "duration": 5, "velocity": 99}, {"time": 3757, "pitch": 77, "duration": 4, "velocity": 107}, {"time": 3763, "pitch": 75, "duration": 4, "velocity": 127}, {"time": 3769, "pitch": 72, "duration": 9, "velocity": 117}, {"time": 3781, "pitch": 75, "duration": 6, "velocity": 127}, {"time": 3787, "pitch": 72, "duration": 6, "velocity": 100}, {"time": 3793, "pitch": 70, "duration": 4, "velocity": 112}, {"time": 3799, "pitch": 70, "duration": 5, "velocity": 112}, {"time": 3805, "pitch": 70, "duration": 5, "velocity": 127}, {"time": 3811, "pitch": 68, "duration": 5, "velocity": 112}, {"time": 3817, "pitch": 65, "duration": 8, "velocity": 100}, {"time": 3829, "pitch": 68, "duration": 5, "velocity": 127}, {"time": 3835, "pitch": 70, "duration": 4, "velocity": 112}, {"time": 3841, "pitch": 70, "duration": 11, "velocity": 122}, {"time": 3853, "pitch": 70, "duration": 5, "velocity": 117}, {"time": 3859, "pitch": 72, "duration": 6, "velocity": 102}, {"time": 3865, "pitch": 75, "duration": 5, "velocity": 122}, {"time": 3871, "pitch": 77, "duration": 4, "velocity": 127}, {"time": 3877, "pitch": 77, "duration": 6, "velocity": 107}, {"time": 3883, "pitch": 75, "duration": 8, "velocity": 117}, {"time": 3895, "pitch": 72, "duration": 17, "velocity": 112}, {"time": 3925, "pitch": 68, "duration": 6, "velocity": 122}, {"time": 3931, "pitch": 70, "duration": 5, "velocity": 117}, {"time": 3937, "pitch": 75, "duration": 5, "velocity": 122}, {"time": 3943, "pitch": 75, "duration": 5, "velocity": 102}, {"time": 3949, "pitch": 75, "duration": 6, "velocity": 112}, {"time": 3955, "pitch": 72, "duration": 6, "velocity": 86}, {"time": 3961, "pitch": 75, "duration": 5, "velocity": 122}, {"time": 3967, "pitch": 77, "duration": 4, "velocity": 112}, {"time": 3973, "pitch": 77, "duration": 5, "velocity": 96}, {"time": 3979, "pitch": 75, "duration": 5, "velocity": 102}, {"time": 3985, "pitch": 77, "duration": 5, "velocity": 107}, {"time": 3991, "pitch": 77, "duration": 4, "velocity": 107}, {"time": 3997, "pitch": 77, "duration": 4, "velocity": 102}, {"time": 4003, "pitch": 75, "duration": 5, "velocity": 102}, {"time": 4009, "pitch": 72, "duration": 6, "velocity": 107}, {"time": 4021, "pitch": 75, "duration": 6, "velocity": 127}, {"time": 4027, "pitch": 77, "duration": 5, "velocity": 107}, {"time": 4033, "pitch": 80, "duration": 4, "velocity": 122}, {"time": 4039, "pitch": 80, "duration": 5, "velocity": 127}, {"time": 4045, "pitch": 80, "duration": 5, "velocity": 127}, {"time": 4051, "pitch": 80, "duration": 4, "velocity": 127}, {"time": 4057, "pitch": 80, "duration": 4, "velocity": 127}, {"time": 4063, "pitch": 77, "duration": 5, "velocity": 112}, {"time": 4069, "pitch": 77, "duration": 4, "velocity": 96}, {"time": 4075, "pitch": 80, "duration": 5, "velocity": 127}, {"time": 4081, "pitch": 77, "duration": 5, "velocity": 117}, {"time": 4087, "pitch": 77, "duration": 5, "velocity": 99}, {"time": 4093, "pitch": 77, "duration": 4, "velocity": 107}, {"time": 4099, "pitch": 75, "duration": 4, "velocity": 127}, {"time": 4105, "pitch": 72, "duration": 9, "velocity": 117}, {"time": 4117, "pitch": 75, "duration": 6, "velocity": 127}, {"time": 4123, "pitch": 72, "duration": 6, "velocity": 100}, {"time": 4129, "pitch": 70, "duration": 4, "velocity": 112}, {"time": 4135, "pitch": 70, "duration": 5, "velocity": 112}, {"time": 4141, "pitch": 70, "duration": 5, "velocity": 127}, {"time": 4147, "pitch": 68, "duration": 5, "velocity": 112}, {"time": 4153, "pitch": 65, "duration": 8, "velocity": 100}, {"time": 4165, "pitch": 68, "duration": 5, "velocity": 127}, {"time": 4171, "pitch": 70, "duration": 4, "velocity": 112}, {"time": 4177, "pitch": 70, "duration": 11, "velocity": 122}, {"time": 4189, "pitch": 70, "duration": 5, "velocity": 117}, {"time": 4195, "pitch": 72, "duration": 6, "velocity": 102}, {"time": 4201, "pitch": 70, "duration": 9, "velocity": 107}, {"time": 4213, "pitch": 68, "duration": 6, "velocity": 107}, {"time": 4219, "pitch": 65, "duration": 5, "velocity": 75}, {"time": 4225, "pitch": 65, "duration": 33, "velocity": 99}]}, {"program": 0, "is_drum": false, "name": "PIANO", "notes": [{"time": 1, "pitch": 46, "duration": 40, "velocity": 83}, {"time": 7, "pitch": 53, "duration": 8, "velocity": 48}, {"time": 13, "pitch": 58, "duration": 18, "velocity": 66}, {"time": 19, "pitch": 53, "duration": 7, "velocity": 36}, {"time": 25, "pitch": 61, "duration": 25, "velocity": 66}, {"time": 31, "pitch": 53, "duration": 8, "velocity": 48}, {"time": 37, "pitch": 58, "duration": 1, "velocity": 29}, {"time": 37, "pitch": 65, "duration": 11, "velocity": 60}, {"time": 43, "pitch": 58, "duration": 7, "velocity": 52}, {"time": 49, "pitch": 41, "duration": 38, "velocity": 66}, {"time": 55, "pitch": 48, "duration": 8, "velocity": 43}, {"time": 61, "pitch": 56, "duration": 13, "velocity": 63}, {"time": 67, "pitch": 48, "duration": 8, "velocity": 53}, {"time": 73, "pitch": 60, "duration": 26, "velocity": 69}, {"time": 79, "pitch": 48, "duration": 7, "velocity": 45}, {"time": 85, "pitch": 56, "duration": 13, "velocity": 77}, {"time": 91, "pitch": 53, "duration": 7, "velocity": 47}, {"time": 97, "pitch": 36, "duration": 39, "velocity": 76}, {"time": 103, "pitch": 48, "duration": 9, "velocity": 47}, {"time": 109, "pitch": 55, "duration": 13, "velocity": 58}, {"time": 115, "pitch": 48, "duration": 9, "velocity": 53}, {"time": 121, "pitch": 60, "duration": 8, "velocity": 65}, {"time": 127, "pitch": 48, "duration": 14, "velocity": 50}, {"time": 133, "pitch": 60, "duration": 13, "velocity": 67}, {"time": 139, "pitch": 55, "duration": 8, "velocity": 63}, {"time": 145, "pitch": 41, "duration": 41, "velocity": 61}, {"time": 151, "pitch": 48, "duration": 8, "velocity": 53}, {"time": 157, "pitch": 53, "duration": 15, "velocity": 69}, {"time": 163, "pitch": 48, "duration": 8, "velocity": 52}, {"time": 169, "pitch": 56, "duration": 12, "velocity": 67}, {"time": 175, "pitch": 48, "duration": 12, "velocity": 38}, {"time": 181, "pitch": 60, "duration": 11, "velocity": 82}, {"time": 187, "pitch": 56, "duration": 6, "velocity": 66}, {"time": 193, "pitch": 46, "duration": 40, "velocity": 74}, {"time": 199, "pitch": 53, "duration": 8, "velocity": 59}, {"time": 205, "pitch": 58, "duration": 17, "velocity": 72}, {"time": 211, "pitch": 53, "duration": 8, "velocity": 47}, {"time": 217, "pitch": 65, "duration": 20, "velocity": 57}, {"time": 223, "pitch": 53, "duration": 9, "velocity": 44}, {"time": 229, "pitch": 61, "duration": 12, "velocity": 47}, {"time": 235, "pitch": 58, "duration": 7, "velocity": 59}, {"time": 241, "pitch": 41, "duration": 39, "velocity": 61}, {"time": 247, "pitch": 48, "duration": 8, "velocity": 51}, {"time": 253, "pitch": 53, "duration": 26, "velocity": 76}, {"time": 259, "pitch": 48, "duration": 7, "velocity": 39}, {"time": 265, "pitch": 56, "duration": 9, "velocity": 67}, {"time": 271, "pitch": 48, "duration": 8, "velocity": 51}, {"time": 277, "pitch": 60, "duration": 13, "velocity": 74}, {"time": 283, "pitch": 53, "duration": 7, "velocity": 61}, {"time": 289, "pitch": 36, "duration": 38, "velocity": 69}, {"time": 295, "pitch": 43, "duration": 32, "velocity": 53}, {"time": 301, "pitch": 51, "duration": 25, "velocity": 72}, {"time": 307, "pitch": 48, "duration": 8, "velocity": 33}, {"time": 313, "pitch": 55, "duration": 25, "velocity": 62}, {"time": 319, "pitch": 48, "duration": 8, "velocity": 44}, {"time": 325, "pitch": 60, "duration": 12, "velocity": 51}, {"time": 331, "pitch": 51, "duration": 7, "velocity": 58}, {"time": 337, "pitch": 41, "duration": 41, "velocity": 62}, {"time": 343, "pitch": 48, "duration": 8, "velocity": 47}, {"time": 349, "pitch": 53, "duration": 27, "velocity": 67}, {"time": 355, "pitch": 48, "duration": 8, "velocity": 42}, {"time": 361, "pitch": 56, "duration": 12, "velocity": 62}, {"time": 367, "pitch": 48, "duration": 18, "velocity": 40}, {"time": 373, "pitch": 60, "duration": 38, "velocity": 73}, {"time": 379, "pitch": 56, "duration": 31, "velocity": 49}, {"time": 385, "pitch": 41, "duration": 23, "velocity": 58}, {"time": 433, "pitch": 46, "duration": 39, "velocity": 58}, {"time": 439, "pitch": 53, "duration": 8, "velocity": 45}, {"time": 445, "pitch": 58, "duration": 14, "velocity": 76}, {"time": 451, "pitch": 53, "duration": 8, "velocity": 38}, {"time": 457, "pitch": 61, "duration": 14, "velocity": 74}, {"time": 463, "pitch": 53, "duration": 7, "velocity": 52}, {"time": 469, "pitch": 65, "duration": 12, "velocity": 68}, {"time": 475, "pitch": 58, "duration": 7, "velocity": 66}, {"time": 481, "pitch": 41, "duration": 41, "velocity": 69}, {"time": 487, "pitch": 48, "duration": 8, "velocity": 61}, {"time": 493, "pitch": 53, "duration": 23, "velocity": 86}, {"time": 499, "pitch": 48, "duration": 8, "velocity": 55}, {"time": 505, "pitch": 60, "duration": 30, "velocity": 81}, {"time": 511, "pitch": 48, "duration": 19, "velocity": 55}, {"time": 517, "pitch": 56, "duration": 14, "velocity": 59}, {"time": 523, "pitch": 53, "duration": 7, "velocity": 74}, {"time": 529, "pitch": 41, "duration": 38, "velocity": 73}, {"time": 535, "pitch": 48, "duration": 7, "velocity": 60}, {"time": 541, "pitch": 53, "duration": 22, "velocity": 86}, {"time": 547, "pitch": 48, "duration": 8, "velocity": 56}, {"time": 553, "pitch": 60, "duration": 24, "velocity": 89}, {"time": 559, "pitch": 48, "duration": 7, "velocity": 52}, {"time": 565, "pitch": 56, "duration": 13, "velocity": 88}, {"time": 571, "pitch": 53, "duration": 7, "velocity": 66}, {"time": 577, "pitch": 36, "duration": 39, "velocity": 71}, {"time": 583, "pitch": 43, "duration": 33, "velocity": 58}, {"time": 589, "pitch": 51, "duration": 16, "velocity": 89}, {"time": 595, "pitch": 48, "duration": 8, "velocity": 55}, {"time": 601, "pitch": 60, "duration": 24, "velocity": 65}, {"time": 607, "pitch": 48, "duration": 8, "velocity": 63}, {"time": 613, "pitch": 51, "duration": 12, "velocity": 81}, {"time": 619, "pitch": 55, "duration": 6, "velocity": 72}, {"time": 625, "pitch": 34, "duration": 37, "velocity": 82}, {"time": 631, "pitch": 46, "duration": 8, "velocity": 60}, {"time": 637, "pitch": 49, "duration": 17, "velocity": 70}, {"time": 643, "pitch": 46, "duration": 9, "velocity": 63}, {"time": 649, "pitch": 58, "duration": 13, "velocity": 85}, {"time": 655, "pitch": 46, "duration": 8, "velocity": 59}, {"time": 661, "pitch": 53, "duration": 9, "velocity": 73}, {"time": 667, "pitch": 58, "duration": 6, "velocity": 63}, {"time": 673, "pitch": 39, "duration": 36, "velocity": 75}, {"time": 679, "pitch": 46, "duration": 30, "velocity": 41}, {"time": 685, "pitch": 55, "duration": 25, "velocity": 74}, {"time": 691, "pitch": 51, "duration": 10, "velocity": 63}, {"time": 697, "pitch": 63, "duration": 24, "velocity": 93}, {"time": 703, "pitch": 51, "duration": 7, "velocity": 61}, {"time": 709, "pitch": 58, "duration": 13, "velocity": 86}, {"time": 715, "pitch": 55, "duration": 7, "velocity": 63}, {"time": 721, "pitch": 41, "duration": 48, "velocity": 67}, {"time": 727, "pitch": 48, "duration": 8, "velocity": 57}, {"time": 733, "pitch": 53, "duration": 15, "velocity": 81}, {"time": 739, "pitch": 48, "duration": 9, "velocity": 63}, {"time": 745, "pitch": 56, "duration": 14, "velocity": 74}, {"time": 751, "pitch": 48, "duration": 19, "velocity": 56}, {"time": 757, "pitch": 55, "duration": 7, "velocity": 62}, {"time": 763, "pitch": 56, "duration": 51, "velocity": 44}, {"time": 769, "pitch": 41, "duration": 44, "velocity": 63}, {"time": 769, "pitch": 53, "duration": 45, "velocity": 42}, {"time": 769, "pitch": 60, "duration": 46, "velocity": 35}, {"time": 818, "pitch": 46, "duration": 39, "velocity": 58}, {"time": 824, "pitch": 53, "duration": 7, "velocity": 45}, {"time": 830, "pitch": 58, "duration": 14, "velocity": 76}, {"time": 836, "pitch": 53, "duration": 8, "velocity": 38}, {"time": 842, "pitch": 61, "duration": 14, "velocity": 74}, {"time": 848, "pitch": 53, "duration": 7, "velocity": 52}, {"time": 854, "pitch": 65, "duration": 12, "velocity": 68}, {"time": 860, "pitch": 58, "duration": 7, "velocity": 66}, {"time": 866, "pitch": 41, "duration": 41, "velocity": 69}, {"time": 872, "pitch": 48, "duration": 8, "velocity": 61}, {"time": 878, "pitch": 53, "duration": 22, "velocity": 86}, {"time": 884, "pitch": 48, "duration": 7, "velocity": 55}, {"time": 890, "pitch": 60, "duration": 29, "velocity": 81}, {"time": 896, "pitch": 48, "duration": 18, "velocity": 55}, {"time": 902, "pitch": 56, "duration": 14, "velocity": 59}, {"time": 908, "pitch": 53, "duration": 7, "velocity": 74}, {"time": 914, "pitch": 41, "duration": 37, "velocity": 73}, {"time": 920, "pitch": 48, "duration": 7, "velocity": 60}, {"time": 926, "pitch": 53, "duration": 22, "velocity": 86}, {"time": 932, "pitch": 48, "duration": 8, "velocity": 56}, {"time": 938, "pitch": 60, "duration": 24, "velocity": 89}, {"time": 944, "pitch": 48, "duration": 6, "velocity": 52}, {"time": 950, "pitch": 56, "duration": 13, "velocity": 88}, {"time": 956, "pitch": 53, "duration": 7, "velocity": 66}, {"time": 962, "pitch": 36, "duration": 39, "velocity": 71}, {"time": 968, "pitch": 43, "duration": 32, "velocity": 58}, {"time": 974, "pitch": 51, "duration": 15, "velocity": 89}, {"time": 980, "pitch": 48, "duration": 8, "velocity": 55}, {"time": 986, "pitch": 60, "duration": 23, "velocity": 65}, {"time": 992, "pitch": 48, "duration": 8, "velocity": 63}, {"time": 998, "pitch": 51, "duration": 12, "velocity": 81}, {"time": 1004, "pitch": 55, "duration": 6, "velocity": 72}, {"time": 1010, "pitch": 34, "duration": 36, "velocity": 82}, {"time": 1016, "pitch": 46, "duration": 8, "velocity": 60}, {"time": 1022, "pitch": 49, "duration": 17, "velocity": 70}, {"time": 1028, "pitch": 46, "duration": 8, "velocity": 63}, {"time": 1034, "pitch": 58, "duration": 13, "velocity": 85}, {"time": 1040, "pitch": 46, "duration": 8, "velocity": 59}, {"time": 1046, "pitch": 53, "duration": 8, "velocity": 73}, {"time": 1052, "pitch": 58, "duration": 6, "velocity": 63}, {"time": 1058, "pitch": 39, "duration": 36, "velocity": 75}, {"time": 1064, "pitch": 46, "duration": 30, "velocity": 41}, {"time": 1070, "pitch": 55, "duration": 25, "velocity": 74}, {"time": 1076, "pitch": 51, "duration": 9, "velocity": 63}, {"time": 1082, "pitch": 63, "duration": 24, "velocity": 93}, {"time": 1088, "pitch": 51, "duration": 7, "velocity": 61}, {"time": 1094, "pitch": 58, "duration": 12, "velocity": 86}, {"time": 1100, "pitch": 55, "duration": 7, "velocity": 63}, {"time": 1106, "pitch": 41, "duration": 47, "velocity": 67}, {"time": 1112, "pitch": 48, "duration": 8, "velocity": 57}, {"time": 1118, "pitch": 53, "duration": 14, "velocity": 81}, {"time": 1124, "pitch": 48, "duration": 9, "velocity": 63}, {"time": 1130, "pitch": 56, "duration": 14, "velocity": 74}, {"time": 1136, "pitch": 48, "duration": 19, "velocity": 56}, {"time": 1142, "pitch": 55, "duration": 7, "velocity": 62}, {"time": 1148, "pitch": 56, "duration": 51, "velocity": 44}, {"time": 1154, "pitch": 41, "duration": 43, "velocity": 63}, {"time": 1154, "pitch": 53, "duration": 45, "velocity": 42}, {"time": 1154, "pitch": 60, "duration": 45, "velocity": 35}, {"time": 1201, "pitch": 44, "duration": 23, "velocity": 92}, {"time": 1204, "pitch": 51, "duration": 21, "velocity": 59}, {"time": 1207, "pitch": 60, "duration": 7, "velocity": 72}, {"time": 1210, "pitch": 56, "duration": 4, "velocity": 81}, {"time": 1213, "pitch": 63, "duration": 7, "velocity": 97}, {"time": 1216, "pitch": 56, "duration": 10, "velocity": 79}, {"time": 1219, "pitch": 68, "duration": 14, "velocity": 99}, {"time": 1222, "pitch": 60, "duration": 10, "velocity": 75}, {"time": 1225, "pitch": 44, "duration": 19, "velocity": 61}, {"time": 1228, "pitch": 51, "duration": 14, "velocity": 59}, {"time": 1231, "pitch": 56, "duration": 7, "velocity": 83}, {"time": 1234, "pitch": 60, "duration": 5, "velocity": 82}, {"time": 1237, "pitch": 68, "duration": 11, "velocity": 100}, {"time": 1240, "pitch": 56, "duration": 2, "velocity": 73}, {"time": 1243, "pitch": 63, "duration": 5, "velocity": 81}, {"time": 1246, "pitch": 60, "duration": 4, "velocity": 81}, {"time": 1249, "pitch": 41, "duration": 19, "velocity": 42}, {"time": 1252, "pitch": 48, "duration": 10, "velocity": 64}, {"time": 1255, "pitch": 53, "duration": 7, "velocity": 77}, {"time": 1258, "pitch": 56, "duration": 2, "velocity": 81}, {"time": 1261, "pitch": 60, "duration": 12, "velocity": 95}, {"time": 1264, "pitch": 48, "duration": 3, "velocity": 64}, {"time": 1267, "pitch": 56, "duration": 5, "velocity": 97}, {"time": 1270, "pitch": 53, "duration": 4, "velocity": 83}, {"time": 1273, "pitch": 41, "duration": 25, "velocity": 73}, {"time": 1276, "pitch": 48, "duration": 21, "velocity": 67}, {"time": 1279, "pitch": 53, "duration": 7, "velocity": 86}, {"time": 1282, "pitch": 56, "duration": 6, "velocity": 72}, {"time": 1285, "pitch": 65, "duration": 13, "velocity": 68}, {"time": 1288, "pitch": 53, "duration": 6, "velocity": 75}, {"time": 1291, "pitch": 60, "duration": 7, "velocity": 60}, {"time": 1294, "pitch": 56, "duration": 4, "velocity": 66}, {"time": 1297, "pitch": 37, "duration": 22, "velocity": 82}, {"time": 1300, "pitch": 44, "duration": 21, "velocity": 65}, {"time": 1303, "pitch": 49, "duration": 7, "velocity": 92}, {"time": 1306, "pitch": 53, "duration": 5, "velocity": 73}, {"time": 1309, "pitch": 61, "duration": 14, "velocity": 102}, {"time": 1312, "pitch": 49, "duration": 10, "velocity": 86}, {"time": 1315, "pitch": 56, "duration": 7, "velocity": 66}, {"time": 1318, "pitch": 53, "duration": 4, "velocity": 82}, {"time": 1321, "pitch": 37, "duration": 17, "velocity": 78}, {"time": 1324, "pitch": 44, "duration": 14, "velocity": 33}, {"time": 1327, "pitch": 49, "duration": 8, "velocity": 79}, {"time": 1330, "pitch": 53, "duration": 5, "velocity": 71}, {"time": 1333, "pitch": 61, "duration": 11, "velocity": 112}, {"time": 1336, "pitch": 49, "duration": 3, "velocity": 82}, {"time": 1339, "pitch": 56, "duration": 5, "velocity": 77}, {"time": 1342, "pitch": 53, "duration": 3, "velocity": 75}, {"time": 1345, "pitch": 41, "duration": 21, "velocity": 72}, {"time": 1348, "pitch": 48, "duration": 21, "velocity": 53}, {"time": 1351, "pitch": 53, "duration": 7, "velocity": 77}, {"time": 1354, "pitch": 56, "duration": 4, "velocity": 73}, {"time": 1357, "pitch": 60, "duration": 7, "velocity": 75}, {"time": 1360, "pitch": 53, "duration": 3, "velocity": 77}, {"time": 1363, "pitch": 56, "duration": 9, "velocity": 65}, {"time": 1366, "pitch": 60, "duration": 10, "velocity": 59}, {"time": 1369, "pitch": 41, "duration": 17, "velocity": 72}, {"time": 1372, "pitch": 48, "duration": 13, "velocity": 56}, {"time": 1375, "pitch": 53, "duration": 7, "velocity": 73}, {"time": 1378, "pitch": 56, "duration": 5, "velocity": 73}, {"time": 1381, "pitch": 65, "duration": 11, "velocity": 60}, {"time": 1384, "pitch": 53, "duration": 4, "velocity": 69}, {"time": 1387, "pitch": 56, "duration": 5, "velocity": 89}, {"time": 1390, "pitch": 60, "duration": 3, "velocity": 64}, {"time": 1393, "pitch": 46, "duration": 23, "velocity": 62}, {"time": 1396, "pitch": 53, "duration": 21, "velocity": 50}, {"time": 1399, "pitch": 58, "duration": 7, "velocity": 89}, {"time": 1402, "pitch": 61, "duration": 4, "velocity": 82}, {"time": 1405, "pitch": 65, "duration": 7, "velocity": 75}, {"time": 1408, "pitch": 58, "duration": 11, "velocity": 81}, {"time": 1411, "pitch": 61, "duration": 9, "velocity": 78}, {"time": 1414, "pitch": 70, "duration": 10, "velocity": 86}, {"time": 1417, "pitch": 46, "duration": 22, "velocity": 72}, {"time": 1420, "pitch": 53, "duration": 21, "velocity": 63}, {"time": 1423, "pitch": 58, "duration": 8, "velocity": 86}, {"time": 1426, "pitch": 61, "duration": 8, "velocity": 78}, {"time": 1429, "pitch": 70, "duration": 20, "velocity": 95}, {"time": 1432, "pitch": 58, "duration": 9, "velocity": 85}, {"time": 1435, "pitch": 65, "duration": 8, "velocity": 56}, {"time": 1438, "pitch": 61, "duration": 6, "velocity": 82}, {"time": 1441, "pitch": 46, "duration": 22, "velocity": 81}, {"time": 1444, "pitch": 53, "duration": 21, "velocity": 63}, {"time": 1447, "pitch": 58, "duration": 7, "velocity": 73}, {"time": 1450, "pitch": 61, "duration": 7, "velocity": 78}, {"time": 1453, "pitch": 70, "duration": 21, "velocity": 99}, {"time": 1456, "pitch": 58, "duration": 10, "velocity": 81}, {"time": 1459, "pitch": 65, "duration": 13, "velocity": 65}, {"time": 1462, "pitch": 61, "duration": 7, "velocity": 83}, {"time": 1465, "pitch": 46, "duration": 18, "velocity": 77}, {"time": 1468, "pitch": 53, "duration": 14, "velocity": 64}, {"time": 1471, "pitch": 58, "duration": 7, "velocity": 88}, {"time": 1474, "pitch": 61, "duration": 7, "velocity": 82}, {"time": 1477, "pitch": 70, "duration": 12, "velocity": 112}, {"time": 1480, "pitch": 58, "duration": 2, "velocity": 89}, {"time": 1483, "pitch": 61, "duration": 7, "velocity": 82}, {"time": 1486, "pitch": 65, "duration": 3, "velocity": 66}, {"time": 1489, "pitch": 36, "duration": 22, "velocity": 67}, {"time": 1492, "pitch": 43, "duration": 11, "velocity": 64}, {"time": 1495, "pitch": 48, "duration": 5, "velocity": 89}, {"time": 1498, "pitch": 51, "duration": 4, "velocity": 99}, {"time": 1501, "pitch": 55, "duration": 12, "velocity": 93}, {"time": 1504, "pitch": 43, "duration": 8, "velocity": 77}, {"time": 1507, "pitch": 51, "duration": 5, "velocity": 100}, {"time": 1510, "pitch": 48, "duration": 2, "velocity": 86}, {"time": 1513, "pitch": 36, "duration": 23, "velocity": 79}, {"time": 1516, "pitch": 43, "duration": 19, "velocity": 81}, {"time": 1519, "pitch": 48, "duration": 7, "velocity": 90}, {"time": 1522, "pitch": 60, "duration": 5, "velocity": 107}, {"time": 1525, "pitch": 67, "duration": 13, "velocity": 99}, {"time": 1528, "pitch": 48, "duration": 6, "velocity": 83}, {"time": 1531, "pitch": 63, "duration": 7, "velocity": 96}, {"time": 1534, "pitch": 60, "duration": 4, "velocity": 79}, {"time": 1537, "pitch": 44, "duration": 23, "velocity": 92}, {"time": 1540, "pitch": 51, "duration": 21, "velocity": 59}, {"time": 1543, "pitch": 60, "duration": 7, "velocity": 72}, {"time": 1546, "pitch": 56, "duration": 4, "velocity": 81}, {"time": 1549, "pitch": 63, "duration": 7, "velocity": 97}, {"time": 1552, "pitch": 56, "duration": 10, "velocity": 79}, {"time": 1555, "pitch": 68, "duration": 14, "velocity": 99}, {"time": 1558, "pitch": 60, "duration": 10, "velocity": 75}, {"time": 1561, "pitch": 44, "duration": 19, "velocity": 61}, {"time": 1564, "pitch": 51, "duration": 14, "velocity": 59}, {"time": 1567, "pitch": 56, "duration": 7, "velocity": 83}, {"time": 1570, "pitch": 60, "duration": 5, "velocity": 82}, {"time": 1573, "pitch": 68, "duration": 11, "velocity": 100}, {"time": 1576, "pitch": 56, "duration": 2, "velocity": 73}, {"time": 1579, "pitch": 63, "duration": 5, "velocity": 81}, {"time": 1582, "pitch": 60, "duration": 4, "velocity": 81}, {"time": 1585, "pitch": 41, "duration": 19, "velocity": 42}, {"time": 1588, "pitch": 48, "duration": 10, "velocity": 64}, {"time": 1591, "pitch": 53, "duration": 7, "velocity": 77}, {"time": 1594, "pitch": 56, "duration": 2, "velocity": 81}, {"time": 1597, "pitch": 60, "duration": 12, "velocity": 95}, {"time": 1600, "pitch": 48, "duration": 3, "velocity": 64}, {"time": 1603, "pitch": 56, "duration": 5, "velocity": 97}, {"time": 1606, "pitch": 53, "duration": 4, "velocity": 83}, {"time": 1609, "pitch": 41, "duration": 25, "velocity": 73}, {"time": 1612, "pitch": 48, "duration": 21, "velocity": 67}, {"time": 1615, "pitch": 53, "duration": 7, "velocity": 86}, {"time": 1618, "pitch": 56, "duration": 6, "velocity": 72}, {"time": 1621, "pitch": 65, "duration": 13, "velocity": 68}, {"time": 1624, "pitch": 53, "duration": 6, "velocity": 75}, {"time": 1627, "pitch": 60, "duration": 7, "velocity": 60}, {"time": 1630, "pitch": 56, "duration": 4, "velocity": 66}, {"time": 1633, "pitch": 37, "duration": 22, "velocity": 82}, {"time": 1636, "pitch": 44, "duration": 21, "velocity": 65}, {"time": 1639, "pitch": 49, "duration": 7, "velocity": 92}, {"time": 1642, "pitch": 53, "duration": 5, "velocity": 73}, {"time": 1645, "pitch": 61, "duration": 14, "velocity": 102}, {"time": 1648, "pitch": 49, "duration": 10, "velocity": 86}, {"time": 1651, "pitch": 56, "duration": 7, "velocity": 66}, {"time": 1654, "pitch": 53, "duration": 4, "velocity": 82}, {"time": 1657, "pitch": 37, "duration": 17, "velocity": 78}, {"time": 1660, "pitch": 44, "duration": 14, "velocity": 33}, {"time": 1663, "pitch": 49, "duration": 8, "velocity": 79}, {"time": 1666, "pitch": 53, "duration": 5, "velocity": 71}, {"time": 1669, "pitch": 61, "duration": 11, "velocity": 112}, {"time": 1672, "pitch": 49, "duration": 3, "velocity": 82}, {"time": 1675, "pitch": 56, "duration": 5, "velocity": 77}, {"time": 1678, "pitch": 53, "duration": 3, "velocity": 75}, {"time": 1681, "pitch": 41, "duration": 21, "velocity": 72}, {"time": 1684, "pitch": 48, "duration": 21, "velocity": 53}, {"time": 1687, "pitch": 53, "duration": 7, "velocity": 77}, {"time": 1690, "pitch": 56, "duration": 4, "velocity": 73}, {"time": 1693, "pitch": 60, "duration": 7, "velocity": 75}, {"time": 1696, "pitch": 53, "duration": 3, "velocity": 77}, {"time": 1699, "pitch": 56, "duration": 9, "velocity": 65}, {"time": 1702, "pitch": 60, "duration": 10, "velocity": 59}, {"time": 1705, "pitch": 41, "duration": 17, "velocity": 72}, {"time": 1708, "pitch": 48, "duration": 13, "velocity": 56}, {"time": 1711, "pitch": 53, "duration": 7, "velocity": 73}, {"time": 1714, "pitch": 56, "duration": 5, "velocity": 73}, {"time": 1717, "pitch": 65, "duration": 11, "velocity": 60}, {"time": 1720, "pitch": 53, "duration": 4, "velocity": 69}, {"time": 1723, "pitch": 56, "duration": 5, "velocity": 89}, {"time": 1726, "pitch": 60, "duration": 3, "velocity": 64}, {"time": 1729, "pitch": 46, "duration": 23, "velocity": 62}, {"time": 1732, "pitch": 53, "duration": 21, "velocity": 50}, {"time": 1735, "pitch": 58, "duration": 7, "velocity": 89}, {"time": 1738, "pitch": 61, "duration": 4, "velocity": 82}, {"time": 1741, "pitch": 65, "duration": 7, "velocity": 75}, {"time": 1744, "pitch": 58, "duration": 11, "velocity": 81}, {"time": 1747, "pitch": 61, "duration": 9, "velocity": 78}, {"time": 1750, "pitch": 70, "duration": 10, "velocity": 86}, {"time": 1753, "pitch": 46, "duration": 22, "velocity": 72}, {"time": 1756, "pitch": 53, "duration": 21, "velocity": 63}, {"time": 1759, "pitch": 58, "duration": 8, "velocity": 86}, {"time": 1762, "pitch": 61, "duration": 8, "velocity": 78}, {"time": 1765, "pitch": 70, "duration": 20, "velocity": 95}, {"time": 1768, "pitch": 58, "duration": 9, "velocity": 85}, {"time": 1771, "pitch": 65, "duration": 8, "velocity": 56}, {"time": 1774, "pitch": 61, "duration": 6, "velocity": 82}, {"time": 1777, "pitch": 46, "duration": 22, "velocity": 81}, {"time": 1780, "pitch": 53, "duration": 21, "velocity": 63}, {"time": 1783, "pitch": 58, "duration": 7, "velocity": 73}, {"time": 1786, "pitch": 61, "duration": 7, "velocity": 78}, {"time": 1789, "pitch": 70, "duration": 21, "velocity": 99}, {"time": 1792, "pitch": 58, "duration": 10, "velocity": 81}, {"time": 1795, "pitch": 65, "duration": 13, "velocity": 65}, {"time": 1798, "pitch": 61, "duration": 7, "velocity": 83}, {"time": 1801, "pitch": 46, "duration": 18, "velocity": 77}, {"time": 1804, "pitch": 53, "duration": 14, "velocity": 64}, {"time": 1807, "pitch": 58, "duration": 7, "velocity": 88}, {"time": 1810, "pitch": 61, "duration": 7, "velocity": 82}, {"time": 1813, "pitch": 70, "duration": 12, "velocity": 112}, {"time": 1816, "pitch": 58, "duration": 2, "velocity": 89}, {"time": 1819, "pitch": 61, "duration": 6, "velocity": 82}, {"time": 1822, "pitch": 65, "duration": 3, "velocity": 66}, {"time": 1825, "pitch": 41, "duration": 22, "velocity": 89}, {"time": 1828, "pitch": 48, "duration": 22, "velocity": 56}, {"time": 1831, "pitch": 53, "duration": 7, "velocity": 70}, {"time": 1834, "pitch": 56, "duration": 5, "velocity": 72}, {"time": 1837, "pitch": 65, "duration": 19, "velocity": 57}, {"time": 1840, "pitch": 53, "duration": 4, "velocity": 59}, {"time": 1843, "pitch": 60, "duration": 30, "velocity": 64}, {"time": 1846, "pitch": 56, "duration": 17, "velocity": 81}, {"time": 1849, "pitch": 41, "duration": 23, "velocity": 61}, {"time": 1861, "pitch": 65, "duration": 10, "velocity": 18}, {"time": 1873, "pitch": 41, "duration": 45, "velocity": 75}, {"time": 1879, "pitch": 48, "duration": 43, "velocity": 41}, {"time": 1885, "pitch": 56, "duration": 19, "velocity": 63}, {"time": 1891, "pitch": 53, "duration": 9, "velocity": 50}, {"time": 1897, "pitch": 60, "duration": 46, "velocity": 69}, {"time": 1903, "pitch": 53, "duration": 10, "velocity": 53}, {"time": 1909, "pitch": 56, "duration": 1, "velocity": 21}, {"time": 1909, "pitch": 65, "duration": 21, "velocity": 50}, {"time": 1915, "pitch": 56, "duration": 12, "velocity": 52}, {"time": 1921, "pitch": 41, "duration": 46, "velocity": 72}, {"time": 1927, "pitch": 48, "duration": 42, "velocity": 47}, {"time": 1933, "pitch": 56, "duration": 16, "velocity": 64}, {"time": 1939, "pitch": 53, "duration": 9, "velocity": 52}, {"time": 1945, "pitch": 65, "duration": 24, "velocity": 66}, {"time": 1951, "pitch": 53, "duration": 18, "velocity": 51}, {"time": 1957, "pitch": 60, "duration": 12, "velocity": 63}, {"time": 1969, "pitch": 41, "duration": 12, "velocity": 76}, {"time": 1975, "pitch": 48, "duration": 6, "velocity": 52}, {"time": 1981, "pitch": 56, "duration": 5, "velocity": 67}, {"time": 1987, "pitch": 39, "duration": 30, "velocity": 58}, {"time": 1987, "pitch": 51, "duration": 30, "velocity": 61}, {"time": 1987, "pitch": 55, "duration": 30, "velocity": 72}, {"time": 1987, "pitch": 58, "duration": 29, "velocity": 58}, {"time": 1987, "pitch": 63, "duration": 30, "velocity": 58}, {"time": 2017, "pitch": 41, "duration": 22, "velocity": 49}, {"time": 2017, "pitch": 48, "duration": 22, "velocity": 51}, {"time": 2017, "pitch": 53, "duration": 21, "velocity": 47}, {"time": 2017, "pitch": 60, "duration": 23, "velocity": 59}, {"time": 2017, "pitch": 65, "duration": 23, "velocity": 70}, {"time": 2017, "pitch": 68, "duration": 24, "velocity": 63}, {"time": 2066, "pitch": 46, "duration": 39, "velocity": 58}, {"time": 2072, "pitch": 53, "duration": 7, "velocity": 45}, {"time": 2078, "pitch": 58, "duration": 14, "velocity": 76}, {"time": 2084, "pitch": 53, "duration": 8, "velocity": 38}, {"time": 2090, "pitch": 61, "duration": 14, "velocity": 74}, {"time": 2096, "pitch": 53, "duration": 7, "velocity": 52}, {"time": 2102, "pitch": 65, "duration": 12, "velocity": 68}, {"time": 2108, "pitch": 58, "duration": 7, "velocity": 66}, {"time": 2114, "pitch": 41, "duration": 41, "velocity": 69}, {"time": 2120, "pitch": 48, "duration": 8, "velocity": 61}, {"time": 2126, "pitch": 53, "duration": 22, "velocity": 86}, {"time": 2132, "pitch": 48, "duration": 7, "velocity": 55}, {"time": 2138, "pitch": 60, "duration": 29, "velocity": 81}, {"time": 2144, "pitch": 48, "duration": 18, "velocity": 55}, {"time": 2150, "pitch": 56, "duration": 14, "velocity": 59}, {"time": 2156, "pitch": 53, "duration": 7, "velocity": 74}, {"time": 2162, "pitch": 41, "duration": 37, "velocity": 73}, {"time": 2168, "pitch": 48, "duration": 7, "velocity": 60}, {"time": 2174, "pitch": 53, "duration": 22, "velocity": 86}, {"time": 2180, "pitch": 48, "duration": 8, "velocity": 56}, {"time": 2186, "pitch": 60, "duration": 24, "velocity": 89}, {"time": 2192, "pitch": 48, "duration": 6, "velocity": 52}, {"time": 2198, "pitch": 56, "duration": 13, "velocity": 88}, {"time": 2204, "pitch": 53, "duration": 7, "velocity": 66}, {"time": 2210, "pitch": 36, "duration": 39, "velocity": 71}, {"time": 2216, "pitch": 43, "duration": 32, "velocity": 58}, {"time": 2222, "pitch": 51, "duration": 15, "velocity": 89}, {"time": 2228, "pitch": 48, "duration": 8, "velocity": 55}, {"time": 2234, "pitch": 60, "duration": 23, "velocity": 65}, {"time": 2240, "pitch": 48, "duration": 8, "velocity": 63}, {"time": 2246, "pitch": 51, "duration": 12, "velocity": 81}, {"time": 2252, "pitch": 55, "duration": 6, "velocity": 72}, {"time": 2258, "pitch": 34, "duration": 36, "velocity": 82}, {"time": 2264, "pitch": 46, "duration": 8, "velocity": 60}, {"time": 2270, "pitch": 49, "duration": 17, "velocity": 70}, {"time": 2276, "pitch": 46, "duration": 8, "velocity": 63}, {"time": 2282, "pitch": 58, "duration": 13, "velocity": 85}, {"time": 2288, "pitch": 46, "duration": 8, "velocity": 59}, {"time": 2294, "pitch": 53, "duration": 8, "velocity": 73}, {"time": 2300, "pitch": 58, "duration": 6, "velocity": 63}, {"time": 2306, "pitch": 39, "duration": 36, "velocity": 75}, {"time": 2312, "pitch": 46, "duration": 30, "velocity": 41}, {"time": 2318, "pitch": 55, "duration": 25, "velocity": 74}, {"time": 2324, "pitch": 51, "duration": 9, "velocity": 63}, {"time": 2330, "pitch": 63, "duration": 24, "velocity": 93}, {"time": 2336, "pitch": 51, "duration": 7, "velocity": 61}, {"time": 2342, "pitch": 58, "duration": 12, "velocity": 86}, {"time": 2348, "pitch": 55, "duration": 7, "velocity": 63}, {"time": 2354, "pitch": 41, "duration": 47, "velocity": 67}, {"time": 2360, "pitch": 48, "duration": 8, "velocity": 57}, {"time": 2366, "pitch": 53, "duration": 14, "velocity": 81}, {"time": 2372, "pitch": 48, "duration": 9, "velocity": 63}, {"time": 2378, "pitch": 56, "duration": 14, "velocity": 74}, {"time": 2384, "pitch": 48, "duration": 19, "velocity": 56}, {"time": 2390, "pitch": 55, "duration": 7, "velocity": 62}, {"time": 2396, "pitch": 56, "duration": 51, "velocity": 44}, {"time": 2402, "pitch": 41, "duration": 43, "velocity": 63}, {"time": 2402, "pitch": 53, "duration": 45, "velocity": 42}, {"time": 2402, "pitch": 60, "duration": 45, "velocity": 35}, {"time": 2449, "pitch": 44, "duration": 23, "velocity": 92}, {"time": 2452, "pitch": 51, "duration": 21, "velocity": 59}, {"time": 2455, "pitch": 60, "duration": 7, "velocity": 72}, {"time": 2458, "pitch": 56, "duration": 4, "velocity": 81}, {"time": 2461, "pitch": 63, "duration": 7, "velocity": 97}, {"time": 2464, "pitch": 56, "duration": 10, "velocity": 79}, {"time": 2467, "pitch": 68, "duration": 14, "velocity": 99}, {"time": 2470, "pitch": 60, "duration": 10, "velocity": 75}, {"time": 2473, "pitch": 44, "duration": 19, "velocity": 61}, {"time": 2476, "pitch": 51, "duration": 14, "velocity": 59}, {"time": 2479, "pitch": 56, "duration": 7, "velocity": 83}, {"time": 2482, "pitch": 60, "duration": 5, "velocity": 82}, {"time": 2485, "pitch": 68, "duration": 11, "velocity": 100}, {"time": 2488, "pitch": 56, "duration": 2, "velocity": 73}, {"time": 2491, "pitch": 63, "duration": 5, "velocity": 81}, {"time": 2494, "pitch": 60, "duration": 4, "velocity": 81}, {"time": 2497, "pitch": 41, "duration": 19, "velocity": 42}, {"time": 2500, "pitch": 48, "duration": 10, "velocity": 64}, {"time": 2503, "pitch": 53, "duration": 7, "velocity": 77}, {"time": 2506, "pitch": 56, "duration": 2, "velocity": 81}, {"time": 2509, "pitch": 60, "duration": 12, "velocity": 95}, {"time": 2512, "pitch": 48, "duration": 3, "velocity": 64}, {"time": 2515, "pitch": 56, "duration": 5, "velocity": 97}, {"time": 2518, "pitch": 53, "duration": 4, "velocity": 83}, {"time": 2521, "pitch": 41, "duration": 25, "velocity": 73}, {"time": 2524, "pitch": 48, "duration": 21, "velocity": 67}, {"time": 2527, "pitch": 53, "duration": 7, "velocity": 86}, {"time": 2530, "pitch": 56, "duration": 6, "velocity": 72}, {"time": 2533, "pitch": 65, "duration": 13, "velocity": 68}, {"time": 2536, "pitch": 53, "duration": 6, "velocity": 75}, {"time": 2539, "pitch": 60, "duration": 7, "velocity": 60}, {"time": 2542, "pitch": 56, "duration": 4, "velocity": 66}, {"time": 2545, "pitch": 37, "duration": 22, "velocity": 82}, {"time": 2548, "pitch": 44, "duration": 21, "velocity": 65}, {"time": 2551, "pitch": 49, "duration": 7, "velocity": 92}, {"time": 2554, "pitch": 53, "duration": 5, "velocity": 73}, {"time": 2557, "pitch": 61, "duration": 14, "velocity": 102}, {"time": 2560, "pitch": 49, "duration": 10, "velocity": 86}, {"time": 2563, "pitch": 56, "duration": 7, "velocity": 66}, {"time": 2566, "pitch": 53, "duration": 4, "velocity": 82}, {"time": 2569, "pitch": 37, "duration": 17, "velocity": 78}, {"time": 2572, "pitch": 44, "duration": 14, "velocity": 33}, {"time": 2575, "pitch": 49, "duration": 8, "velocity": 79}, {"time": 2578, "pitch": 53, "duration": 5, "velocity": 71}, {"time": 2581, "pitch": 61, "duration": 11, "velocity": 112}, {"time": 2584, "pitch": 49, "duration": 3, "velocity": 82}, {"time": 2587, "pitch": 56, "duration": 5, "velocity": 77}, {"time": 2590, "pitch": 53, "duration": 3, "velocity": 75}, {"time": 2593, "pitch": 41, "duration": 21, "velocity": 72}, {"time": 2596, "pitch": 48, "duration": 21, "velocity": 53}, {"time": 2599, "pitch": 53, "duration": 7, "velocity": 77}, {"time": 2602, "pitch": 56, "duration": 4, "velocity": 73}, {"time": 2605, "pitch": 60, "duration": 7, "velocity": 75}, {"time": 2608, "pitch": 53, "duration": 3, "velocity": 77}, {"time": 2611, "pitch": 56, "duration": 9, "velocity": 65}, {"time": 2614, "pitch": 60, "duration": 10, "velocity": 59}, {"time": 2617, "pitch": 41, "duration": 17, "velocity": 72}, {"time": 2620, "pitch": 48, "duration": 13, "velocity": 56}, {"time": 2623, "pitch": 53, "duration": 7, "velocity": 73}, {"time": 2626, "pitch": 56, "duration": 5, "velocity": 73}, {"time": 2629, "pitch": 65, "duration": 11, "velocity": 60}, {"time": 2632, "pitch": 53, "duration": 4, "velocity": 69}, {"time": 2635, "pitch": 56, "duration": 5, "velocity": 89}, {"time": 2638, "pitch": 60, "duration": 3, "velocity": 64}, {"time": 2641, "pitch": 46, "duration": 23, "velocity": 62}, {"time": 2644, "pitch": 53, "duration": 21, "velocity": 50}, {"time": 2647, "pitch": 58, "duration": 7, "velocity": 89}, {"time": 2650, "pitch": 61, "duration": 4, "velocity": 82}, {"time": 2653, "pitch": 65, "duration": 7, "velocity": 75}, {"time": 2656, "pitch": 58, "duration": 11, "velocity": 81}, {"time": 2659, "pitch": 61, "duration": 9, "velocity": 78}, {"time": 2662, "pitch": 70, "duration": 10, "velocity": 86}, {"time": 2665, "pitch": 46, "duration": 22, "velocity": 72}, {"time": 2668, "pitch": 53, "duration": 21, "velocity": 63}, {"time": 2671, "pitch": 58, "duration": 8, "velocity": 86}, {"time": 2674, "pitch": 61, "duration": 8, "velocity": 78}, {"time": 2677, "pitch": 70, "duration": 20, "velocity": 95}, {"time": 2680, "pitch": 58, "duration": 9, "velocity": 85}, {"time": 2683, "pitch": 65, "duration": 8, "velocity": 56}, {"time": 2686, "pitch": 61, "duration": 6, "velocity": 82}, {"time": 2689, "pitch": 46, "duration": 22, "velocity": 81}, {"time": 2692, "pitch": 53, "duration": 21, "velocity": 63}, {"time": 2695, "pitch": 58, "duration": 7, "velocity": 73}, {"time": 2698, "pitch": 61, "duration": 7, "velocity": 78}, {"time": 2701, "pitch": 70, "duration": 21, "velocity": 99}, {"time": 2704, "pitch": 58, "duration": 10, "velocity": 81}, {"time": 2707, "pitch": 65, "duration": 13, "velocity": 65}, {"time": 2710, "pitch": 61, "duration": 7, "velocity": 83}, {"time": 2713, "pitch": 46, "duration": 18, "velocity": 77}, {"time": 2716, "pitch": 53, "duration": 14, "velocity": 64}, {"time": 2719, "pitch": 58, "duration": 7, "velocity": 88}, {"time": 2722, "pitch": 61, "duration": 7, "velocity": 82}, {"time": 2725, "pitch": 70, "duration": 12, "velocity": 112}, {"time": 2728, "pitch": 58, "duration": 2, "velocity": 89}, {"time": 2731, "pitch": 61, "duration": 7, "velocity": 82}, {"time": 2734, "pitch": 65, "duration": 3, "velocity": 66}, {"time": 2737, "pitch": 36, "duration": 22, "velocity": 67}, {"time": 2740, "pitch": 43, "duration": 11, "velocity": 64}, {"time": 2743, "pitch": 48, "duration": 5, "velocity": 89}, {"time": 2746, "pitch": 51, "duration": 4, "velocity": 99}, {"time": 2749, "pitch": 55, "duration": 12, "velocity": 93}, {"time": 2752, "pitch": 43, "duration": 8, "velocity": 77}, {"time": 2755, "pitch": 51, "duration": 5, "velocity": 100}, {"time": 2758, "pitch": 48, "duration": 2, "velocity": 86}, {"time": 2761, "pitch": 36, "duration": 23, "velocity": 79}, {"time": 2764, "pitch": 43, "duration": 19, "velocity": 81}, {"time": 2767, "pitch": 48, "duration": 7, "velocity": 90}, {"time": 2770, "pitch": 60, "duration": 5, "velocity": 107}, {"time": 2773, "pitch": 67, "duration": 13, "velocity": 99}, {"time": 2776, "pitch": 48, "duration": 6, "velocity": 83}, {"time": 2779, "pitch": 63, "duration": 7, "velocity": 96}, {"time": 2782, "pitch": 60, "duration": 4, "velocity": 79}, {"time": 2785, "pitch": 44, "duration": 23, "velocity": 92}, {"time": 2788, "pitch": 51, "duration": 21, "velocity": 59}, {"time": 2791, "pitch": 60, "duration": 7, "velocity": 72}, {"time": 2794, "pitch": 56, "duration": 4, "velocity": 81}, {"time": 2797, "pitch": 63, "duration": 7, "velocity": 97}, {"time": 2800, "pitch": 56, "duration": 10, "velocity": 79}, {"time": 2803, "pitch": 68, "duration": 14, "velocity": 99}, {"time": 2806, "pitch": 60, "duration": 10, "velocity": 75}, {"time": 2809, "pitch": 44, "duration": 19, "velocity": 61}, {"time": 2812, "pitch": 51, "duration": 14, "velocity": 59}, {"time": 2815, "pitch": 56, "duration": 7, "velocity": 83}, {"time": 2818, "pitch": 60, "duration": 5, "velocity": 82}, {"time": 2821, "pitch": 68, "duration": 11, "velocity": 100}, {"time": 2824, "pitch": 56, "duration": 2, "velocity": 73}, {"time": 2827, "pitch": 63, "duration": 5, "velocity": 81}, {"time": 2830, "pitch": 60, "duration": 4, "velocity": 81}, {"time": 2833, "pitch": 41, "duration": 19, "velocity": 42}, {"time": 2836, "pitch": 48, "duration": 10, "velocity": 64}, {"time": 2839, "pitch": 53, "duration": 7, "velocity": 77}, {"time": 2842, "pitch": 56, "duration": 2, "velocity": 81}, {"time": 2845, "pitch": 60, "duration": 12, "velocity": 95}, {"time": 2848, "pitch": 48, "duration": 3, "velocity": 64}, {"time": 2851, "pitch": 56, "duration": 5, "velocity": 97}, {"time": 2854, "pitch": 53, "duration": 4, "velocity": 83}, {"time": 2857, "pitch": 41, "duration": 25, "velocity": 73}, {"time": 2860, "pitch": 48, "duration": 21, "velocity": 67}, {"time": 2863, "pitch": 53, "duration": 7, "velocity": 86}, {"time": 2866, "pitch": 56, "duration": 6, "velocity": 72}, {"time": 2869, "pitch": 65, "duration": 13, "velocity": 68}, {"time": 2872, "pitch": 53, "duration": 6, "velocity": 75}, {"time": 2875, "pitch": 60, "duration": 7, "velocity": 60}, {"time": 2878, "pitch": 56, "duration": 4, "velocity": 66}, {"time": 2881, "pitch": 37, "duration": 22, "velocity": 82}, {"time": 2884, "pitch": 44, "duration": 21, "velocity": 65}, {"time": 2887, "pitch": 49, "duration": 7, "velocity": 92}, {"time": 2890, "pitch": 53, "duration": 5, "velocity": 73}, {"time": 2893, "pitch": 61, "duration": 14, "velocity": 102}, {"time": 2896, "pitch": 49, "duration": 10, "velocity": 86}, {"time": 2899, "pitch": 56, "duration": 7, "velocity": 66}, {"time": 2902, "pitch": 53, "duration": 4, "velocity": 82}, {"time": 2905, "pitch": 37, "duration": 17, "velocity": 78}, {"time": 2908, "pitch": 44, "duration": 14, "velocity": 33}, {"time": 2911, "pitch": 49, "duration": 8, "velocity": 79}, {"time": 2914, "pitch": 53, "duration": 5, "velocity": 71}, {"time": 2917, "pitch": 61, "duration": 11, "velocity": 112}, {"time": 2920, "pitch": 49, "duration": 3, "velocity": 82}, {"time": 2923, "pitch": 56, "duration": 5, "velocity": 77}, {"time": 2926, "pitch": 53, "duration": 3, "velocity": 75}, {"time": 2929, "pitch": 41, "duration": 21, "velocity": 72}, {"time": 2932, "pitch": 48, "duration": 21, "velocity": 53}, {"time": 2935, "pitch": 53, "duration": 7, "velocity": 77}, {"time": 2938, "pitch": 56, "duration": 4, "velocity": 73}, {"time": 2941, "pitch": 60, "duration": 7, "velocity": 75}, {"time": 2944, "pitch": 53, "duration": 3, "velocity": 77}, {"time": 2947, "pitch": 56, "duration": 9, "velocity": 65}, {"time": 2950, "pitch": 60, "duration": 10, "velocity": 59}, {"time": 2953, "pitch": 41, "duration": 17, "velocity": 72}, {"time": 2956, "pitch": 48, "duration": 13, "velocity": 56}, {"time": 2959, "pitch": 53, "duration": 7, "velocity": 73}, {"time": 2962, "pitch": 56, "duration": 5, "velocity": 73}, {"time": 2965, "pitch": 65, "duration": 11, "velocity": 60}, {"time": 2968, "pitch": 53, "duration": 4, "velocity": 69}, {"time": 2971, "pitch": 56, "duration": 5, "velocity": 89}, {"time": 2974, "pitch": 60, "duration": 3, "velocity": 64}, {"time": 2977, "pitch": 46, "duration": 23, "velocity": 62}, {"time": 2980, "pitch": 53, "duration": 21, "velocity": 50}, {"time": 2983, "pitch": 58, "duration": 7, "velocity": 89}, {"time": 2986, "pitch": 61, "duration": 4, "velocity": 82}, {"time": 2989, "pitch": 65, "duration": 7, "velocity": 75}, {"time": 2992, "pitch": 58, "duration": 11, "velocity": 81}, {"time": 2995, "pitch": 61, "duration": 9, "velocity": 78}, {"time": 2998, "pitch": 70, "duration": 10, "velocity": 86}, {"time": 3001, "pitch": 46, "duration": 22, "velocity": 72}, {"time": 3004, "pitch": 53, "duration": 21, "velocity": 63}, {"time": 3007, "pitch": 58, "duration": 8, "velocity": 86}, {"time": 3010, "pitch": 61, "duration": 8, "velocity": 78}, {"time": 3013, "pitch": 70, "duration": 20, "velocity": 95}, {"time": 3016, "pitch": 58, "duration": 9, "velocity": 85}, {"time": 3019, "pitch": 65, "duration": 8, "velocity": 56}, {"time": 3022, "pitch": 61, "duration": 6, "velocity": 82}, {"time": 3025, "pitch": 46, "duration": 22, "velocity": 81}, {"time": 3028, "pitch": 53, "duration": 21, "velocity": 63}, {"time": 3031, "pitch": 58, "duration": 7, "velocity": 73}, {"time": 3034, "pitch": 61, "duration": 7, "velocity": 78}, {"time": 3037, "pitch": 70, "duration": 12, "velocity": 99}, {"time": 3040, "pitch": 58, "duration": 9, "velocity": 81}, {"time": 3043, "pitch": 65, "duration": 6, "velocity": 65}, {"time": 3046, "pitch": 61, "duration": 3, "velocity": 83}, {"time": 3049, "pitch": 46, "duration": 21, "velocity": 55}, {"time": 3049, "pitch": 53, "duration": 20, "velocity": 66}, {"time": 3049, "pitch": 58, "duration": 22, "velocity": 55}, {"time": 3049, "pitch": 61, "duration": 22, "velocity": 67}, {"time": 3049, "pitch": 65, "duration": 22, "velocity": 56}, {"time": 3049, "pitch": 68, "duration": 23, "velocity": 60}, {"time": 3073, "pitch": 41, "duration": 24, "velocity": 67}, {"time": 3079, "pitch": 48, "duration": 19, "velocity": 57}, {"time": 3085, "pitch": 60, "duration": 15, "velocity": 73}, {"time": 3091, "pitch": 56, "duration": 8, "velocity": 51}, {"time": 3094, "pitch": 53, "duration": 4, "velocity": 44}, {"time": 3097, "pitch": 41, "duration": 23, "velocity": 71}, {"time": 3103, "pitch": 48, "duration": 19, "velocity": 42}, {"time": 3109, "pitch": 68, "duration": 18, "velocity": 90}, {"time": 3115, "pitch": 65, "duration": 8, "velocity": 46}, {"time": 3118, "pitch": 60, "duration": 5, "velocity": 47}, {"time": 3121, "pitch": 41, "duration": 46, "velocity": 59}, {"time": 3127, "pitch": 48, "duration": 41, "velocity": 38}, {"time": 3133, "pitch": 65, "duration": 36, "velocity": 74}, {"time": 3139, "pitch": 60, "duration": 21, "velocity": 58}, {"time": 3142, "pitch": 68, "duration": 28, "velocity": 70}, {"time": 3145, "pitch": 53, "duration": 23, "velocity": 53}, {"time": 3169, "pitch": 41, "duration": 22, "velocity": 79}, {"time": 3175, "pitch": 48, "duration": 18, "velocity": 56}, {"time": 3178, "pitch": 53, "duration": 5, "velocity": 50}, {"time": 3181, "pitch": 60, "duration": 12, "velocity": 92}, {"time": 3187, "pitch": 56, "duration": 6, "velocity": 60}, {"time": 3190, "pitch": 53, "duration": 3, "velocity": 65}, {"time": 3193, "pitch": 41, "duration": 14, "velocity": 62}, {"time": 3196, "pitch": 48, "duration": 11, "velocity": 43}, {"time": 3199, "pitch": 53, "duration": 7, "velocity": 52}, {"time": 3202, "pitch": 60, "duration": 11, "velocity": 66}, {"time": 3205, "pitch": 68, "duration": 12, "velocity": 95}, {"time": 3211, "pitch": 65, "duration": 6, "velocity": 69}, {"time": 3217, "pitch": 39, "duration": 22, "velocity": 81}, {"time": 3220, "pitch": 46, "duration": 21, "velocity": 35}, {"time": 3223, "pitch": 51, "duration": 7, "velocity": 60}, {"time": 3226, "pitch": 55, "duration": 6, "velocity": 58}, {"time": 3229, "pitch": 63, "duration": 22, "velocity": 97}, {"time": 3232, "pitch": 51, "duration": 10, "velocity": 60}, {"time": 3235, "pitch": 58, "duration": 16, "velocity": 47}, {"time": 3238, "pitch": 55, "duration": 17, "velocity": 56}, {"time": 3241, "pitch": 39, "duration": 14, "velocity": 83}, {"time": 3247, "pitch": 51, "duration": 7, "velocity": 65}, {"time": 3253, "pitch": 63, "duration": 11, "velocity": 99}, {"time": 3259, "pitch": 58, "duration": 6, "velocity": 66}, {"time": 3262, "pitch": 55, "duration": 3, "velocity": 63}, {"time": 3265, "pitch": 37, "duration": 22, "velocity": 60}, {"time": 3268, "pitch": 49, "duration": 6, "velocity": 71}, {"time": 3271, "pitch": 53, "duration": 9, "velocity": 58}, {"time": 3274, "pitch": 49, "duration": 4, "velocity": 68}, {"time": 3277, "pitch": 61, "duration": 21, "velocity": 83}, {"time": 3280, "pitch": 49, "duration": 8, "velocity": 59}, {"time": 3283, "pitch": 56, "duration": 7, "velocity": 38}, {"time": 3286, "pitch": 53, "duration": 9, "velocity": 72}, {"time": 3289, "pitch": 37, "duration": 18, "velocity": 58}, {"time": 3292, "pitch": 44, "duration": 14, "velocity": 46}, {"time": 3295, "pitch": 49, "duration": 7, "velocity": 67}, {"time": 3298, "pitch": 53, "duration": 7, "velocity": 69}, {"time": 3301, "pitch": 61, "duration": 12, "velocity": 90}, {"time": 3304, "pitch": 49, "duration": 2, "velocity": 82}, {"time": 3307, "pitch": 56, "duration": 6, "velocity": 38}, {"time": 3310, "pitch": 53, "duration": 3, "velocity": 63}, {"time": 3313, "pitch": 36, "duration": 23, "velocity": 61}, {"time": 3316, "pitch": 43, "duration": 22, "velocity": 37}, {"time": 3319, "pitch": 48, "duration": 7, "velocity": 67}, {"time": 3322, "pitch": 55, "duration": 7, "velocity": 65}, {"time": 3325, "pitch": 63, "duration": 21, "velocity": 95}, {"time": 3328, "pitch": 48, "duration": 10, "velocity": 68}, {"time": 3331, "pitch": 60, "duration": 15, "velocity": 61}, {"time": 3334, "pitch": 55, "duration": 10, "velocity": 55}, {"time": 3337, "pitch": 36, "duration": 17, "velocity": 72}, {"time": 3340, "pitch": 43, "duration": 13, "velocity": 40}, {"time": 3343, "pitch": 48, "duration": 8, "velocity": 68}, {"time": 3346, "pitch": 55, "duration": 15, "velocity": 69}, {"time": 3349, "pitch": 63, "duration": 12, "velocity": 95}, {"time": 3355, "pitch": 60, "duration": 7, "velocity": 70}, {"time": 3361, "pitch": 41, "duration": 22, "velocity": 81}, {"time": 3364, "pitch": 48, "duration": 11, "velocity": 43}, {"time": 3367, "pitch": 53, "duration": 6, "velocity": 74}, {"time": 3370, "pitch": 56, "duration": 4, "velocity": 56}, {"time": 3373, "pitch": 60, "duration": 17, "velocity": 83}, {"time": 3376, "pitch": 48, "duration": 9, "velocity": 53}, {"time": 3379, "pitch": 56, "duration": 10, "velocity": 53}, {"time": 3382, "pitch": 53, "duration": 5, "velocity": 61}, {"time": 3385, "pitch": 41, "duration": 14, "velocity": 62}, {"time": 3388, "pitch": 48, "duration": 11, "velocity": 58}, {"time": 3391, "pitch": 53, "duration": 8, "velocity": 62}, {"time": 3394, "pitch": 56, "duration": 3, "velocity": 54}, {"time": 3397, "pitch": 60, "duration": 13, "velocity": 82}, {"time": 3400, "pitch": 56, "duration": 4, "velocity": 63}, {"time": 3403, "pitch": 53, "duration": 6, "velocity": 59}, {"time": 3406, "pitch": 56, "duration": 3, "velocity": 73}, {"time": 3409, "pitch": 39, "duration": 22, "velocity": 65}, {"time": 3412, "pitch": 46, "duration": 21, "velocity": 46}, {"time": 3415, "pitch": 51, "duration": 7, "velocity": 73}, {"time": 3418, "pitch": 55, "duration": 6, "velocity": 67}, {"time": 3421, "pitch": 63, "duration": 21, "velocity": 90}, {"time": 3424, "pitch": 51, "duration": 9, "velocity": 57}, {"time": 3427, "pitch": 58, "duration": 15, "velocity": 40}, {"time": 3430, "pitch": 55, "duration": 10, "velocity": 55}, {"time": 3433, "pitch": 39, "duration": 18, "velocity": 66}, {"time": 3436, "pitch": 46, "duration": 14, "velocity": 53}, {"time": 3439, "pitch": 51, "duration": 7, "velocity": 55}, {"time": 3442, "pitch": 55, "duration": 6, "velocity": 59}, {"time": 3445, "pitch": 63, "duration": 12, "velocity": 96}, {"time": 3448, "pitch": 51, "duration": 2, "velocity": 81}, {"time": 3451, "pitch": 58, "duration": 6, "velocity": 50}, {"time": 3454, "pitch": 55, "duration": 3, "velocity": 70}, {"time": 3457, "pitch": 37, "duration": 23, "velocity": 72}, {"time": 3460, "pitch": 44, "duration": 21, "velocity": 29}, {"time": 3463, "pitch": 49, "duration": 7, "velocity": 69}, {"time": 3466, "pitch": 53, "duration": 4, "velocity": 45}, {"time": 3469, "pitch": 61, "duration": 22, "velocity": 82}, {"time": 3472, "pitch": 49, "duration": 10, "velocity": 67}, {"time": 3475, "pitch": 56, "duration": 17, "velocity": 44}, {"time": 3478, "pitch": 53, "duration": 15, "velocity": 59}, {"time": 3481, "pitch": 37, "duration": 17, "velocity": 68}, {"time": 3487, "pitch": 49, "duration": 9, "velocity": 50}, {"time": 3493, "pitch": 56, "duration": 11, "velocity": 70}, {"time": 3493, "pitch": 61, "duration": 11, "velocity": 60}, {"time": 3499, "pitch": 53, "duration": 6, "velocity": 50}, {"time": 3505, "pitch": 36, "duration": 23, "velocity": 73}, {"time": 3508, "pitch": 43, "duration": 21, "velocity": 39}, {"time": 3511, "pitch": 48, "duration": 7, "velocity": 61}, {"time": 3514, "pitch": 55, "duration": 10, "velocity": 52}, {"time": 3517, "pitch": 63, "duration": 22, "velocity": 90}, {"time": 3520, "pitch": 48, "duration": 9, "velocity": 45}, {"time": 3523, "pitch": 60, "duration": 14, "velocity": 53}, {"time": 3526, "pitch": 55, "duration": 22, "velocity": 52}, {"time": 3529, "pitch": 36, "duration": 14, "velocity": 75}, {"time": 3535, "pitch": 48, "duration": 12, "velocity": 56}, {"time": 3541, "pitch": 63, "duration": 8, "velocity": 95}, {"time": 3553, "pitch": 41, "duration": 48, "velocity": 72}, {"time": 3553, "pitch": 60, "duration": 5, "velocity": 35}, {"time": 3559, "pitch": 48, "duration": 8, "velocity": 58}, {"time": 3565, "pitch": 56, "duration": 22, "velocity": 66}, {"time": 3571, "pitch": 48, "duration": 8, "velocity": 44}, {"time": 3577, "pitch": 60, "duration": 10, "velocity": 62}, {"time": 3583, "pitch": 48, "duration": 7, "velocity": 67}, {"time": 3589, "pitch": 60, "duration": 13, "velocity": 92}, {"time": 3592, "pitch": 48, "duration": 8, "velocity": 65}, {"time": 3595, "pitch": 56, "duration": 7, "velocity": 71}, {"time": 3598, "pitch": 53, "duration": 4, "velocity": 92}, {"time": 3601, "pitch": 44, "duration": 23, "velocity": 92}, {"time": 3604, "pitch": 51, "duration": 21, "velocity": 59}, {"time": 3607, "pitch": 60, "duration": 7, "velocity": 72}, {"time": 3610, "pitch": 56, "duration": 4, "velocity": 81}, {"time": 3613, "pitch": 63, "duration": 7, "velocity": 97}, {"time": 3616, "pitch": 56, "duration": 10, "velocity": 79}, {"time": 3619, "pitch": 68, "duration": 14, "velocity": 99}, {"time": 3622, "pitch": 60, "duration": 10, "velocity": 75}, {"time": 3625, "pitch": 44, "duration": 19, "velocity": 61}, {"time": 3628, "pitch": 51, "duration": 14, "velocity": 59}, {"time": 3631, "pitch": 56, "duration": 7, "velocity": 83}, {"time": 3634, "pitch": 60, "duration": 5, "velocity": 82}, {"time": 3637, "pitch": 68, "duration": 11, "velocity": 100}, {"time": 3640, "pitch": 56, "duration": 2, "velocity": 73}, {"time": 3643, "pitch": 63, "duration": 5, "velocity": 81}, {"time": 3646, "pitch": 60, "duration": 4, "velocity": 81}, {"time": 3649, "pitch": 41, "duration": 19, "velocity": 42}, {"time": 3652, "pitch": 48, "duration": 10, "velocity": 64}, {"time": 3655, "pitch": 53, "duration": 7, "velocity": 77}, {"time": 3658, "pitch": 56, "duration": 2, "velocity": 81}, {"time": 3661, "pitch": 60, "duration": 12, "velocity": 95}, {"time": 3664, "pitch": 48, "duration": 3, "velocity": 64}, {"time": 3667, "pitch": 56, "duration": 5, "velocity": 97}, {"time": 3670, "pitch": 53, "duration": 4, "velocity": 83}, {"time": 3673, "pitch": 41, "duration": 25, "velocity": 73}, {"time": 3676, "pitch": 48, "duration": 21, "velocity": 67}, {"time": 3679, "pitch": 53, "duration": 7, "velocity": 86}, {"time": 3682, "pitch": 56, "duration": 6, "velocity": 72}, {"time": 3685, "pitch": 65, "duration": 13, "velocity": 68}, {"time": 3688, "pitch": 53, "duration": 6, "velocity": 75}, {"time": 3691, "pitch": 60, "duration": 7, "velocity": 60}, {"time": 3694, "pitch": 56, "duration": 4, "velocity": 66}, {"time": 3697, "pitch": 37, "duration": 22, "velocity": 82}, {"time": 3700, "pitch": 44, "duration": 21, "velocity": 65}, {"time": 3703, "pitch": 49, "duration": 7, "velocity": 92}, {"time": 3706, "pitch": 53, "duration": 5, "velocity": 73}, {"time": 3709, "pitch": 61, "duration": 14, "velocity": 102}, {"time": 3712, "pitch": 49, "duration": 10, "velocity": 86}, {"time": 3715, "pitch": 56, "duration": 7, "velocity": 66}, {"time": 3718, "pitch": 53, "duration": 4, "velocity": 82}, {"time": 3721, "pitch": 37, "duration": 17, "velocity": 78}, {"time": 3724, "pitch": 44, "duration": 14, "velocity": 33}, {"time": 3727, "pitch": 49, "duration": 8, "velocity": 79}, {"time": 3730, "pitch": 53, "duration": 5, "velocity": 71}, {"time": 3733, "pitch": 61, "duration": 11, "velocity": 112}, {"time": 3736, "pitch": 49, "duration": 3, "velocity": 82}, {"time": 3739, "pitch": 56, "duration": 5, "velocity": 77}, {"time": 3742, "pitch": 53, "duration": 3, "velocity": 75}, {"time": 3745, "pitch": 41, "duration": 21, "velocity": 72}, {"time": 3748, "pitch": 48, "duration": 21, "velocity": 53}, {"time": 3751, "pitch": 53, "duration": 7, "velocity": 77}, {"time": 3754, "pitch": 56, "duration": 4, "velocity": 73}, {"time": 3757, "pitch": 60, "duration": 7, "velocity": 75}, {"time": 3760, "pitch": 53, "duration": 3, "velocity": 77}, {"time": 3763, "pitch": 56, "duration": 9, "velocity": 65}, {"time": 3766, "pitch": 60, "duration": 10, "velocity": 59}, {"time": 3769, "pitch": 41, "duration": 17, "velocity": 72}, {"time": 3772, "pitch": 48, "duration": 13, "velocity": 56}, {"time": 3775, "pitch": 53, "duration": 7, "velocity": 73}, {"time": 3778, "pitch": 56, "duration": 5, "velocity": 73}, {"time": 3781, "pitch": 65, "duration": 11, "velocity": 60}, {"time": 3784, "pitch": 53, "duration": 4, "velocity": 69}, {"time": 3787, "pitch": 56, "duration": 5, "velocity": 89}, {"time": 3790, "pitch": 60, "duration": 3, "velocity": 64}, {"time": 3793, "pitch": 46, "duration": 23, "velocity": 62}, {"time": 3796, "pitch": 53, "duration": 21, "velocity": 50}, {"time": 3799, "pitch": 58, "duration": 7, "velocity": 89}, {"time": 3802, "pitch": 61, "duration": 4, "velocity": 82}, {"time": 3805, "pitch": 65, "duration": 7, "velocity": 75}, {"time": 3808, "pitch": 58, "duration": 11, "velocity": 81}, {"time": 3811, "pitch": 61, "duration": 9, "velocity": 78}, {"time": 3814, "pitch": 70, "duration": 10, "velocity": 86}, {"time": 3817, "pitch": 46, "duration": 22, "velocity": 72}, {"time": 3820, "pitch": 53, "duration": 21, "velocity": 63}, {"time": 3823, "pitch": 58, "duration": 8, "velocity": 86}, {"time": 3826, "pitch": 61, "duration": 8, "velocity": 78}, {"time": 3829, "pitch": 70, "duration": 20, "velocity": 95}, {"time": 3832, "pitch": 58, "duration": 9, "velocity": 85}, {"time": 3835, "pitch": 65, "duration": 8, "velocity": 56}, {"time": 3838, "pitch": 61, "duration": 6, "velocity": 82}, {"time": 3841, "pitch": 46, "duration": 22, "velocity": 81}, {"time": 3844, "pitch": 53, "duration": 21, "velocity": 63}, {"time": 3847, "pitch": 58, "duration": 7, "velocity": 73}, {"time": 3850, "pitch": 61, "duration": 7, "velocity": 78}, {"time": 3853, "pitch": 70, "duration": 21, "velocity": 99}, {"time": 3856, "pitch": 58, "duration": 10, "velocity": 81}, {"time": 3859, "pitch": 65, "duration": 13, "velocity": 65}, {"time": 3862, "pitch": 61, "duration": 7, "velocity": 83}, {"time": 3865, "pitch": 46, "duration": 18, "velocity": 77}, {"time": 3868, "pitch": 53, "duration": 14, "velocity": 64}, {"time": 3871, "pitch": 58, "duration": 7, "velocity": 88}, {"time": 3874, "pitch": 61, "duration": 7, "velocity": 82}, {"time": 3877, "pitch": 70, "duration": 12, "velocity": 112}, {"time": 3880, "pitch": 58, "duration": 2, "velocity": 89}, {"time": 3883, "pitch": 61, "duration": 7, "velocity": 82}, {"time": 3886, "pitch": 65, "duration": 3, "velocity": 66}, {"time": 3889, "pitch": 36, "duration": 22, "velocity": 67}, {"time": 3892, "pitch": 43, "duration": 11, "velocity": 64}, {"time": 3895, "pitch": 48, "duration": 5, "velocity": 89}, {"time": 3898, "pitch": 51, "duration": 4, "velocity": 99}, {"time": 3901, "pitch": 55, "duration": 12, "velocity": 93}, {"time": 3904, "pitch": 43, "duration": 8, "velocity": 77}, {"time": 3907, "pitch": 51, "duration": 5, "velocity": 100}, {"time": 3910, "pitch": 48, "duration": 2, "velocity": 86}, {"time": 3913, "pitch": 36, "duration": 23, "velocity": 79}, {"time": 3916, "pitch": 43, "duration": 19, "velocity": 81}, {"time": 3919, "pitch": 48, "duration": 7, "velocity": 90}, {"time": 3922, "pitch": 60, "duration": 5, "velocity": 107}, {"time": 3925, "pitch": 67, "duration": 13, "velocity": 99}, {"time": 3928, "pitch": 48, "duration": 6, "velocity": 83}, {"time": 3931, "pitch": 63, "duration": 7, "velocity": 96}, {"time": 3934, "pitch": 60, "duration": 4, "velocity": 79}, {"time": 3937, "pitch": 44, "duration": 23, "velocity": 92}, {"time": 3940, "pitch": 51, "duration": 21, "velocity": 59}, {"time": 3943, "pitch": 60, "duration": 7, "velocity": 72}, {"time": 3946, "pitch": 56, "duration": 4, "velocity": 81}, {"time": 3949, "pitch": 63, "duration": 7, "velocity": 97}, {"time": 3952, "pitch": 56, "duration": 10, "velocity": 79}, {"time": 3955, "pitch": 68, "duration": 14, "velocity": 99}, {"time": 3958, "pitch": 60, "duration": 10, "velocity": 75}, {"time": 3961, "pitch": 44, "duration": 19, "velocity": 61}, {"time": 3964, "pitch": 51, "duration": 14, "velocity": 59}, {"time": 3967, "pitch": 56, "duration": 7, "velocity": 83}, {"time": 3970, "pitch": 60, "duration": 5, "velocity": 82}, {"time": 3973, "pitch": 68, "duration": 11, "velocity": 100}, {"time": 3976, "pitch": 56, "duration": 2, "velocity": 73}, {"time": 3979, "pitch": 63, "duration": 5, "velocity": 81}, {"time": 3982, "pitch": 60, "duration": 4, "velocity": 81}, {"time": 3985, "pitch": 41, "duration": 19, "velocity": 42}, {"time": 3988, "pitch": 48, "duration": 10, "velocity": 64}, {"time": 3991, "pitch": 53, "duration": 7, "velocity": 77}, {"time": 3994, "pitch": 56, "duration": 2, "velocity": 81}, {"time": 3997, "pitch": 60, "duration": 12, "velocity": 95}, {"time": 4000, "pitch": 48, "duration": 3, "velocity": 64}, {"time": 4003, "pitch": 56, "duration": 5, "velocity": 97}, {"time": 4006, "pitch": 53, "duration": 4, "velocity": 83}, {"time": 4009, "pitch": 41, "duration": 25, "velocity": 73}, {"time": 4012, "pitch": 48, "duration": 21, "velocity": 67}, {"time": 4015, "pitch": 53, "duration": 7, "velocity": 86}, {"time": 4018, "pitch": 56, "duration": 6, "velocity": 72}, {"time": 4021, "pitch": 65, "duration": 13, "velocity": 68}, {"time": 4024, "pitch": 53, "duration": 6, "velocity": 75}, {"time": 4027, "pitch": 60, "duration": 7, "velocity": 60}, {"time": 4030, "pitch": 56, "duration": 4, "velocity": 66}, {"time": 4033, "pitch": 37, "duration": 22, "velocity": 82}, {"time": 4036, "pitch": 44, "duration": 21, "velocity": 65}, {"time": 4039, "pitch": 49, "duration": 7, "velocity": 92}, {"time": 4042, "pitch": 53, "duration": 5, "velocity": 73}, {"time": 4045, "pitch": 61, "duration": 14, "velocity": 102}, {"time": 4048, "pitch": 49, "duration": 10, "velocity": 86}, {"time": 4051, "pitch": 56, "duration": 7, "velocity": 66}, {"time": 4054, "pitch": 53, "duration": 4, "velocity": 82}, {"time": 4057, "pitch": 37, "duration": 17, "velocity": 78}, {"time": 4060, "pitch": 44, "duration": 14, "velocity": 33}, {"time": 4063, "pitch": 49, "duration": 8, "velocity": 79}, {"time": 4066, "pitch": 53, "duration": 5, "velocity": 71}, {"time": 4069, "pitch": 61, "duration": 11, "velocity": 112}, {"time": 4072, "pitch": 49, "duration": 3, "velocity": 82}, {"time": 4075, "pitch": 56, "duration": 5, "velocity": 77}, {"time": 4078, "pitch": 53, "duration": 3, "velocity": 75}, {"time": 4081, "pitch": 41, "duration": 21, "velocity": 72}, {"time": 4084, "pitch": 48, "duration": 21, "velocity": 53}, {"time": 4087, "pitch": 53, "duration": 7, "velocity": 77}, {"time": 4090, "pitch": 56, "duration": 4, "velocity": 73}, {"time": 4093, "pitch": 60, "duration": 7, "velocity": 75}, {"time": 4096, "pitch": 53, "duration": 3, "velocity": 77}, {"time": 4099, "pitch": 56, "duration": 9, "velocity": 65}, {"time": 4102, "pitch": 60, "duration": 10, "velocity": 59}, {"time": 4105, "pitch": 41, "duration": 17, "velocity": 72}, {"time": 4108, "pitch": 48, "duration": 13, "velocity": 56}, {"time": 4111, "pitch": 53, "duration": 7, "velocity": 73}, {"time": 4114, "pitch": 56, "duration": 5, "velocity": 73}, {"time": 4117, "pitch": 65, "duration": 11, "velocity": 60}, {"time": 4120, "pitch": 53, "duration": 4, "velocity": 69}, {"time": 4123, "pitch": 56, "duration": 5, "velocity": 89}, {"time": 4126, "pitch": 60, "duration": 3, "velocity": 64}, {"time": 4129, "pitch": 46, "duration": 23, "velocity": 62}, {"time": 4132, "pitch": 53, "duration": 21, "velocity": 50}, {"time": 4135, "pitch": 58, "duration": 7, "velocity": 89}, {"time": 4138, "pitch": 61, "duration": 4, "velocity": 82}, {"time": 4141, "pitch": 65, "duration": 7, "velocity": 75}, {"time": 4144, "pitch": 58, "duration": 11, "velocity": 81}, {"time": 4147, "pitch": 61, "duration": 9, "velocity": 78}, {"time": 4150, "pitch": 70, "duration": 10, "velocity": 86}, {"time": 4153, "pitch": 46, "duration": 22, "velocity": 72}, {"time": 4156, "pitch": 53, "duration": 21, "velocity": 63}, {"time": 4159, "pitch": 58, "duration": 8, "velocity": 86}, {"time": 4162, "pitch": 61, "duration": 8, "velocity": 78}, {"time": 4165, "pitch": 70, "duration": 20, "velocity": 95}, {"time": 4168, "pitch": 58, "duration": 9, "velocity": 85}, {"time": 4171, "pitch": 65, "duration": 8, "velocity": 56}, {"time": 4174, "pitch": 61, "duration": 6, "velocity": 82}, {"time": 4177, "pitch": 46, "duration": 22, "velocity": 81}, {"time": 4180, "pitch": 53, "duration": 21, "velocity": 63}, {"time": 4183, "pitch": 58, "duration": 7, "velocity": 73}, {"time": 4186, "pitch": 61, "duration": 7, "velocity": 78}, {"time": 4189, "pitch": 70, "duration": 12, "velocity": 99}, {"time": 4192, "pitch": 58, "duration": 9, "velocity": 81}, {"time": 4195, "pitch": 65, "duration": 6, "velocity": 65}, {"time": 4198, "pitch": 61, "duration": 3, "velocity": 83}, {"time": 4201, "pitch": 46, "duration": 17, "velocity": 83}, {"time": 4201, "pitch": 58, "duration": 23, "velocity": 69}, {"time": 4201, "pitch": 61, "duration": 23, "velocity": 71}, {"time": 4201, "pitch": 65, "duration": 23, "velocity": 69}, {"time": 4225, "pitch": 41, "duration": 47, "velocity": 75}, {"time": 4231, "pitch": 48, "duration": 43, "velocity": 44}, {"time": 4237, "pitch": 60, "duration": 32, "velocity": 70}, {"time": 4243, "pitch": 53, "duration": 10, "velocity": 60}, {"time": 4255, "pitch": 53, "duration": 10, "velocity": 47}, {"time": 4261, "pitch": 68, "duration": 46, "velocity": 99}, {"time": 4267, "pitch": 65, "duration": 15, "velocity": 56}, {"time": 4270, "pitch": 60, "duration": 15, "velocity": 58}, {"time": 4273, "pitch": 41, "duration": 46, "velocity": 63}, {"time": 4279, "pitch": 48, "duration": 43, "velocity": 51}, {"time": 4285, "pitch": 53, "duration": 16, "velocity": 47}, {"time": 4285, "pitch": 65, "duration": 23, "velocity": 71}, {"time": 4291, "pitch": 60, "duration": 26, "velocity": 58}, {"time": 4303, "pitch": 53, "duration": 11, "velocity": 47}, {"time": 4309, "pitch": 68, "duration": 47, "velocity": 85}, {"time": 4315, "pitch": 65, "duration": 19, "velocity": 54}, {"time": 4318, "pitch": 60, "duration": 11, "velocity": 53}, {"time": 4321, "pitch": 41, "duration": 47, "velocity": 63}, {"time": 4327, "pitch": 48, "duration": 43, "velocity": 49}, {"time": 4333, "pitch": 60, "duration": 31, "velocity": 63}, {"time": 4339, "pitch": 53, "duration": 20, "velocity": 42}, {"time": 4339, "pitch": 65, "duration": 18, "velocity": 59}, {"time": 4357, "pitch": 68, "duration": 58, "velocity": 96}, {"time": 4360, "pitch": 53, "duration": 13, "velocity": 44}, {"time": 4363, "pitch": 65, "duration": 52, "velocity": 52}, {"time": 4366, "pitch": 60, "duration": 14, "velocity": 42}, {"time": 4369, "pitch": 41, "duration": 46, "velocity": 60}, {"time": 4375, "pitch": 48, "duration": 41, "velocity": 41}, {"time": 4381, "pitch": 53, "duration": 34, "velocity": 51}, {"time": 4387, "pitch": 60, "duration": 28, "velocity": 55}, {"time": 4417, "pitch": 41, "duration": 29, "velocity": 46}, {"time": 4417, "pitch": 48, "duration": 28, "velocity": 40}, {"time": 4417, "pitch": 53, "duration": 28, "velocity": 38}, {"time": 4417, "pitch": 60, "duration": 30, "velocity": 39}, {"time": 4417, "pitch": 65, "duration": 29, "velocity": 49}, {"time": 4417, "pitch": 68, "duration": 29, "velocity": 41}], "annotations": [{"time": 1, "annotation": {"number": 64, "value": 127}, "group": "control_change"}, {"time": 47, "annotation": {"number": 64, "value": 0}, "group": "control_change"}, {"time": 50, "annotation": {"number": 64, "value": 127}, "group": "control_change"}, {"time": 72, "annotation": {"number": 64, "value": 0}, "group": "control_change"}, {"time": 73, "annotation": {"number": 64, "value": 127}, "group": "control_change"}, {"time": 95, "annotation": {"number": 64, "value": 0}, "group": "control_change"}, {"time": 98, "annotation": {"number": 64, "value": 127}, "group": "control_change"}, {"time": 119, "annotation": {"number": 64, "value": 0}, "group": "control_change"}, {"time": 121, "annotation": {"number": 64, "value": 127}, "group": "control_change"}, {"time": 142, "annotation": {"number": 64, "value": 0}, "group": "control_change"}, {"time": 145, "annotation": {"number": 64, "value": 127}, "group": "control_change"}, {"time": 166, "annotation": {"number": 64, "value": 0}, "group": "control_change"}, {"time": 169, "annotation": {"number": 64, "value": 127}, "group": "control_change"}, {"time": 179, "annotation": {"number": 64, "value": 0}, "group": "control_change"}, {"time": 182, "annotation": {"number": 64, "value": 127}, "group": "control_change"}, {"time": 190, "annotation": {"number": 64, "value": 0}, "group": "control_change"}, {"time": 193, "annotation": {"number": 64, "value": 127}, "group": "control_change"}, {"time": 194, "annotation": {"number": 64, "value": 127}, "group": "control_change"}, {"time": 200, "annotation": {"number": 64, "value": 0}, "group": "control_change"}, {"time": 205, "annotation": {"number": 64, "value": 127}, "group": "control_change"}, {"time": 214, "annotation": {"number": 64, "value": 0}, "group": "control_change"}, {"time": 218, "annotation": {"number": 64, "value": 127}, "group": "control_change"}, {"time": 225, "annotation": {"number": 64, "value": 0}, "group": "control_change"}, {"time": 229, "annotation": {"number": 64, "value": 127}, "group": "control_change"}, {"time": 237, "annotation": {"number": 64, "value": 0}, "group": "control_change"}, {"time": 241, "annotation": {"number": 64, "value": 127}, "group": "control_change"}, {"time": 262, "annotation": {"number": 64, "value": 0}, "group": "control_change"}, {"time": 265, "annotation": {"number": 64, "value": 127}, "group": "control_change"}, {"time": 275, "annotation": {"number": 64, "value": 0}, "group": "control_change"}, {"time": 278, "annotation": {"number": 64, "value": 127}, "group": "control_change"}, {"time": 285, "annotation": {"number": 64, "value": 0}, "group": "control_change"}, {"time": 289, "annotation": {"number": 64, "value": 127}, "group": "control_change"}, {"time": 323, "annotation": {"number": 64, "value": 0}, "group": "control_change"}, {"time": 326, "annotation": {"number": 64, "value": 127}, "group": "control_change"}, {"time": 334, "annotation": {"number": 64, "value": 0}, "group": "control_change"}, {"time": 337, "annotation": {"number": 64, "value": 127}, "group": "control_change"}, {"time": 381, "annotation": {"number": 64, "value": 0}, "group": "control_change"}, {"time": 385, "annotation": {"number": 64, "value": 127}, "group": "control_change"}, {"time": 408, "annotation": {"number": 64, "value": 0}, "group": "control_change"}, {"time": 433, "annotation": {"number": 64, "value": 127}, "group": "control_change"}, {"time": 479, "annotation": {"number": 64, "value": 0}, "group": "control_change"}, {"time": 482, "annotation": {"number": 64, "value": 127}, "group": "control_change"}, {"time": 525, "annotation": {"number": 64, "value": 0}, "group": "control_change"}, {"time": 529, "annotation": {"number": 64, "value": 127}, "group": "control_change"}, {"time": 574, "annotation": {"number": 64, "value": 0}, "group": "control_change"}, {"time": 578, "annotation": {"number": 64, "value": 127}, "group": "control_change"}, {"time": 623, "annotation": {"number": 64, "value": 0}, "group": "control_change"}, {"time": 626, "annotation": {"number": 64, "value": 127}, "group": "control_change"}, {"time": 694, "annotation": {"number": 64, "value": 0}, "group": "control_change"}, {"time": 697, "annotation": {"number": 64, "value": 127}, "group": "control_change"}, {"time": 718, "annotation": {"number": 64, "value": 0}, "group": "control_change"}, {"time": 722, "annotation": {"number": 64, "value": 127}, "group": "control_change"}, {"time": 755, "annotation": {"number": 64, "value": 0}, "group": "control_change"}, {"time": 770, "annotation": {"number": 64, "value": 127}, "group": "control_change"}, {"time": 814, "annotation": {"number": 64, "value": 0}, "group": "control_change"}, {"time": 817, "annotation": {"number": 64, "value": 127}, "group": "control_change"}, {"time": 863, "annotation": {"number": 64, "value": 0}, "group": "control_change"}, {"time": 866, "annotation": {"number": 64, "value": 127}, "group": "control_change"}, {"time": 910, "annotation": {"number": 64, "value": 0}, "group": "control_change"}, {"time": 914, "annotation": {"number": 64, "value": 127}, "group": "control_change"}, {"time": 959, "annotation": {"number": 64, "value": 0}, "group": "control_change"}, {"time": 962, "annotation": {"number": 64, "value": 127}, "group": "control_change"}, {"time": 1008, "annotation": {"number": 64, "value": 0}, "group": "control_change"}, {"time": 1011, "annotation": {"number": 64, "value": 127}, "group": "control_change"}, {"time": 1079, "annotation": {"number": 64, "value": 0}, "group": "control_change"}, {"time": 1082, "annotation": {"number": 64, "value": 127}, "group": "control_change"}, {"time": 1102, "annotation": {"number": 64, "value": 0}, "group": "control_change"}, {"time": 1106, "annotation": {"number": 64, "value": 127}, "group": "control_change"}, {"time": 1140, "annotation": {"number": 64, "value": 0}, "group": "control_change"}, {"time": 1154, "annotation": {"number": 64, "value": 127}, "group": "control_change"}, {"time": 1198, "annotation": {"number": 64, "value": 0}, "group": "control_change"}, {"time": 1200, "annotation": {"number": 64, "value": 127}, "group": "control_change"}, {"time": 1223, "annotation": {"number": 64, "value": 0}, "group": "control_change"}, {"time": 1225, "annotation": {"number": 64, "value": 127}, "group": "control_change"}, {"time": 1247, "annotation": {"number": 64, "value": 0}, "group": "control_change"}, {"time": 1249, "annotation": {"number": 64, "value": 127}, "group": "control_change"}, {"time": 1271, "annotation": {"number": 64, "value": 0}, "group": "control_change"}, {"time": 1273, "annotation": {"number": 64, "value": 127}, "group": "control_change"}, {"time": 1296, "annotation": {"number": 64, "value": 0}, "group": "control_change"}, {"time": 1318, "annotation": {"number": 64, "value": 0}, "group": "control_change"}, {"time": 1321, "annotation": {"number": 64, "value": 127}, "group": "control_change"}, {"time": 1343, "annotation": {"number": 64, "value": 0}, "group": "control_change"}, {"time": 1346, "annotation": {"number": 64, "value": 127}, "group": "control_change"}, {"time": 1367, "annotation": {"number": 64, "value": 0}, "group": "control_change"}, {"time": 1369, "annotation": {"number": 64, "value": 127}, "group": "control_change"}, {"time": 1390, "annotation": {"number": 64, "value": 0}, "group": "control_change"}, {"time": 1393, "annotation": {"number": 64, "value": 127}, "group": "control_change"}, {"time": 1415, "annotation": {"number": 64, "value": 0}, "group": "control_change"}, {"time": 1417, "annotation": {"number": 64, "value": 127}, "group": "control_change"}, {"time": 1439, "annotation": {"number": 64, "value": 0}, "group": "control_change"}, {"time": 1442, "annotation": {"number": 64, "value": 127}, "group": "control_change"}, {"time": 1463, "annotation": {"number": 64, "value": 0}, "group": "control_change"}, {"time": 1466, "annotation": {"number": 64, "value": 127}, "group": "control_change"}, {"time": 1487, "annotation": {"number": 64, "value": 0}, "group": "control_change"}, {"time": 1490, "annotation": {"number": 64, "value": 127}, "group": "control_change"}, {"time": 1510, "annotation": {"number": 64, "value": 0}, "group": "control_change"}, {"time": 1513, "annotation": {"number": 64, "value": 127}, "group": "control_change"}, {"time": 1534, "annotation": {"number": 64, "value": 0}, "group": "control_change"}, {"time": 1559, "annotation": {"number": 64, "value": 0}, "group": "control_change"}, {"time": 1561, "annotation": {"number": 64, "value": 127}, "group": "control_change"}, {"time": 1583, "annotation": {"number": 64, "value": 0}, "group": "control_change"}, {"time": 1585, "annotation": {"number": 64, "value": 127}, "group": "control_change"}, {"time": 1607, "annotation": {"number": 64, "value": 0}, "group": "control_change"}, {"time": 1609, "annotation": {"number": 64, "value": 127}, "group": "control_change"}, {"time": 1632, "annotation": {"number": 64, "value": 0}, "group": "control_change"}, {"time": 1654, "annotation": {"number": 64, "value": 0}, "group": "control_change"}, {"time": 1657, "annotation": {"number": 64, "value": 127}, "group": "control_change"}, {"time": 1679, "annotation": {"number": 64, "value": 0}, "group": "control_change"}, {"time": 1682, "annotation": {"number": 64, "value": 127}, "group": "control_change"}, {"time": 1703, "annotation": {"number": 64, "value": 0}, "group": "control_change"}, {"time": 1705, "annotation": {"number": 64, "value": 127}, "group": "control_change"}, {"time": 1726, "annotation": {"number": 64, "value": 0}, "group": "control_change"}, {"time": 1729, "annotation": {"number": 64, "value": 127}, "group": "control_change"}, {"time": 1751, "annotation": {"number": 64, "value": 0}, "group": "control_change"}, {"time": 1753, "annotation": {"number": 64, "value": 127}, "group": "control_change"}, {"time": 1775, "annotation": {"number": 64, "value": 0}, "group": "control_change"}, {"time": 1778, "annotation": {"number": 64, "value": 127}, "group": "control_change"}, {"time": 1799, "annotation": {"number": 64, "value": 0}, "group": "control_change"}, {"time": 1802, "annotation": {"number": 64, "value": 127}, "group": "control_change"}, {"time": 1823, "annotation": {"number": 64, "value": 0}, "group": "control_change"}, {"time": 1826, "annotation": {"number": 64, "value": 127}, "group": "control_change"}, {"time": 1847, "annotation": {"number": 64, "value": 0}, "group": "control_change"}, {"time": 1849, "annotation": {"number": 64, "value": 127}, "group": "control_change"}, {"time": 1871, "annotation": {"number": 64, "value": 0}, "group": "control_change"}, {"time": 1874, "annotation": {"number": 64, "value": 127}, "group": "control_change"}, {"time": 1916, "annotation": {"number": 64, "value": 0}, "group": "control_change"}, {"time": 1922, "annotation": {"number": 64, "value": 127}, "group": "control_change"}, {"time": 1943, "annotation": {"number": 64, "value": 0}, "group": "control_change"}, {"time": 1946, "annotation": {"number": 64, "value": 127}, "group": "control_change"}, {"time": 1965, "annotation": {"number": 64, "value": 0}, "group": "control_change"}, {"time": 1969, "annotation": {"number": 64, "value": 127}, "group": "control_change"}, {"time": 1987, "annotation": {"number": 64, "value": 0}, "group": "control_change"}, {"time": 2032, "annotation": {"number": 64, "value": 127}, "group": "control_change"}, {"time": 2051, "annotation": {"number": 64, "value": 0}, "group": "control_change"}, {"time": 2065, "annotation": {"number": 64, "value": 127}, "group": "control_change"}, {"time": 2111, "annotation": {"number": 64, "value": 0}, "group": "control_change"}, {"time": 2114, "annotation": {"number": 64, "value": 127}, "group": "control_change"}, {"time": 2158, "annotation": {"number": 64, "value": 0}, "group": "control_change"}, {"time": 2162, "annotation": {"number": 64, "value": 127}, "group": "control_change"}, {"time": 2207, "annotation": {"number": 64, "value": 0}, "group": "control_change"}, {"time": 2210, "annotation": {"number": 64, "value": 127}, "group": "control_change"}, {"time": 2256, "annotation": {"number": 64, "value": 0}, "group": "control_change"}, {"time": 2259, "annotation": {"number": 64, "value": 127}, "group": "control_change"}, {"time": 2327, "annotation": {"number": 64, "value": 0}, "group": "control_change"}, {"time": 2330, "annotation": {"number": 64, "value": 127}, "group": "control_change"}, {"time": 2350, "annotation": {"number": 64, "value": 0}, "group": "control_change"}, {"time": 2354, "annotation": {"number": 64, "value": 127}, "group": "control_change"}, {"time": 2388, "annotation": {"number": 64, "value": 0}, "group": "control_change"}, {"time": 2402, "annotation": {"number": 64, "value": 127}, "group": "control_change"}, {"time": 2446, "annotation": {"number": 64, "value": 0}, "group": "control_change"}, {"time": 2448, "annotation": {"number": 64, "value": 127}, "group": "control_change"}, {"time": 2471, "annotation": {"number": 64, "value": 0}, "group": "control_change"}, {"time": 2473, "annotation": {"number": 64, "value": 127}, "group": "control_change"}, {"time": 2495, "annotation": {"number": 64, "value": 0}, "group": "control_change"}, {"time": 2497, "annotation": {"number": 64, "value": 127}, "group": "control_change"}, {"time": 2519, "annotation": {"number": 64, "value": 0}, "group": "control_change"}, {"time": 2521, "annotation": {"number": 64, "value": 127}, "group": "control_change"}, {"time": 2544, "annotation": {"number": 64, "value": 0}, "group": "control_change"}, {"time": 2566, "annotation": {"number": 64, "value": 0}, "group": "control_change"}, {"time": 2569, "annotation": {"number": 64, "value": 127}, "group": "control_change"}, {"time": 2591, "annotation": {"number": 64, "value": 0}, "group": "control_change"}, {"time": 2594, "annotation": {"number": 64, "value": 127}, "group": "control_change"}, {"time": 2615, "annotation": {"number": 64, "value": 0}, "group": "control_change"}, {"time": 2617, "annotation": {"number": 64, "value": 127}, "group": "control_change"}, {"time": 2638, "annotation": {"number": 64, "value": 0}, "group": "control_change"}, {"time": 2641, "annotation": {"number": 64, "value": 127}, "group": "control_change"}, {"time": 2663, "annotation": {"number": 64, "value": 0}, "group": "control_change"}, {"time": 2665, "annotation": {"number": 64, "value": 127}, "group": "control_change"}, {"time": 2687, "annotation": {"number": 64, "value": 0}, "group": "control_change"}, {"time": 2690, "annotation": {"number": 64, "value": 127}, "group": "control_change"}, {"time": 2711, "annotation": {"number": 64, "value": 0}, "group": "control_change"}, {"time": 2714, "annotation": {"number": 64, "value": 127}, "group": "control_change"}, {"time": 2735, "annotation": {"number": 64, "value": 0}, "group": "control_change"}, {"time": 2738, "annotation": {"number": 64, "value": 127}, "group": "control_change"}, {"time": 2758, "annotation": {"number": 64, "value": 0}, "group": "control_change"}, {"time": 2761, "annotation": {"number": 64, "value": 127}, "group": "control_change"}, {"time": 2782, "annotation": {"number": 64, "value": 0}, "group": "control_change"}, {"time": 2807, "annotation": {"number": 64, "value": 0}, "group": "control_change"}, {"time": 2809, "annotation": {"number": 64, "value": 127}, "group": "control_change"}, {"time": 2831, "annotation": {"number": 64, "value": 0}, "group": "control_change"}, {"time": 2833, "annotation": {"number": 64, "value": 127}, "group": "control_change"}, {"time": 2855, "annotation": {"number": 64, "value": 0}, "group": "control_change"}, {"time": 2857, "annotation": {"number": 64, "value": 127}, "group": "control_change"}, {"time": 2880, "annotation": {"number": 64, "value": 0}, "group": "control_change"}, {"time": 2902, "annotation": {"number": 64, "value": 0}, "group": "control_change"}, {"time": 2905, "annotation": {"number": 64, "value": 127}, "group": "control_change"}, {"time": 2927, "annotation": {"number": 64, "value": 0}, "group": "control_change"}, {"time": 2930, "annotation": {"number": 64, "value": 127}, "group": "control_change"}, {"time": 2951, "annotation": {"number": 64, "value": 0}, "group": "control_change"}, {"time": 2953, "annotation": {"number": 64, "value": 127}, "group": "control_change"}, {"time": 2974, "annotation": {"number": 64, "value": 0}, "group": "control_change"}, {"time": 2977, "annotation": {"number": 64, "value": 127}, "group": "control_change"}, {"time": 2999, "annotation": {"number": 64, "value": 0}, "group": "control_change"}, {"time": 3001, "annotation": {"number": 64, "value": 127}, "group": "control_change"}, {"time": 3023, "annotation": {"number": 64, "value": 0}, "group": "control_change"}, {"time": 3026, "annotation": {"number": 64, "value": 127}, "group": "control_change"}, {"time": 3047, "annotation": {"number": 64, "value": 0}, "group": "control_change"}, {"time": 3073, "annotation": {"number": 64, "value": 127}, "group": "control_change"}, {"time": 3096, "annotation": {"number": 64, "value": 0}, "group": "control_change"}, {"time": 3098, "annotation": {"number": 64, "value": 127}, "group": "control_change"}, {"time": 3119, "annotation": {"number": 64, "value": 0}, "group": "control_change"}, {"time": 3122, "annotation": {"number": 64, "value": 127}, "group": "control_change"}, {"time": 3166, "annotation": {"number": 64, "value": 0}, "group": "control_change"}, {"time": 3170, "annotation": {"number": 64, "value": 127}, "group": "control_change"}, {"time": 3190, "annotation": {"number": 64, "value": 0}, "group": "control_change"}, {"time": 3193, "annotation": {"number": 64, "value": 127}, "group": "control_change"}, {"time": 3215, "annotation": {"number": 64, "value": 0}, "group": "control_change"}, {"time": 3217, "annotation": {"number": 64, "value": 127}, "group": "control_change"}, {"time": 3239, "annotation": {"number": 64, "value": 0}, "group": "control_change"}, {"time": 3241, "annotation": {"number": 64, "value": 127}, "group": "control_change"}, {"time": 3262, "annotation": {"number": 64, "value": 0}, "group": "control_change"}, {"time": 3265, "annotation": {"number": 64, "value": 127}, "group": "control_change"}, {"time": 3311, "annotation": {"number": 64, "value": 0}, "group": "control_change"}, {"time": 3314, "annotation": {"number": 64, "value": 127}, "group": "control_change"}, {"time": 3334, "annotation": {"number": 64, "value": 0}, "group": "control_change"}, {"time": 3337, "annotation": {"number": 64, "value": 127}, "group": "control_change"}, {"time": 3358, "annotation": {"number": 64, "value": 0}, "group": "control_change"}, {"time": 3361, "annotation": {"number": 64, "value": 127}, "group": "control_change"}, {"time": 3382, "annotation": {"number": 64, "value": 0}, "group": "control_change"}, {"time": 3385, "annotation": {"number": 64, "value": 127}, "group": "control_change"}, {"time": 3406, "annotation": {"number": 64, "value": 0}, "group": "control_change"}, {"time": 3409, "annotation": {"number": 64, "value": 127}, "group": "control_change"}, {"time": 3430, "annotation": {"number": 64, "value": 0}, "group": "control_change"}, {"time": 3433, "annotation": {"number": 64, "value": 127}, "group": "control_change"}, {"time": 3454, "annotation": {"number": 64, "value": 0}, "group": "control_change"}, {"time": 3457, "annotation": {"number": 64, "value": 127}, "group": "control_change"}, {"time": 3478, "annotation": {"number": 64, "value": 0}, "group": "control_change"}, {"time": 3481, "annotation": {"number": 64, "value": 127}, "group": "control_change"}, {"time": 3502, "annotation": {"number": 64, "value": 0}, "group": "control_change"}, {"time": 3505, "annotation": {"number": 64, "value": 127}, "group": "control_change"}, {"time": 3526, "annotation": {"number": 64, "value": 0}, "group": "control_change"}, {"time": 3529, "annotation": {"number": 64, "value": 127}, "group": "control_change"}, {"time": 3550, "annotation": {"number": 64, "value": 0}, "group": "control_change"}, {"time": 3553, "annotation": {"number": 64, "value": 127}, "group": "control_change"}, {"time": 3594, "annotation": {"number": 64, "value": 0}, "group": "control_change"}, {"time": 3623, "annotation": {"number": 64, "value": 0}, "group": "control_change"}, {"time": 3625, "annotation": {"number": 64, "value": 127}, "group": "control_change"}, {"time": 3647, "annotation": {"number": 64, "value": 0}, "group": "control_change"}, {"time": 3649, "annotation": {"number": 64, "value": 127}, "group": "control_change"}, {"time": 3671, "annotation": {"number": 64, "value": 0}, "group": "control_change"}, {"time": 3673, "annotation": {"number": 64, "value": 127}, "group": "control_change"}, {"time": 3696, "annotation": {"number": 64, "value": 0}, "group": "control_change"}, {"time": 3718, "annotation": {"number": 64, "value": 0}, "group": "control_change"}, {"time": 3721, "annotation": {"number": 64, "value": 127}, "group": "control_change"}, {"time": 3743, "annotation": {"number": 64, "value": 0}, "group": "control_change"}, {"time": 3746, "annotation": {"number": 64, "value": 127}, "group": "control_change"}, {"time": 3767, "annotation": {"number": 64, "value": 0}, "group": "control_change"}, {"time": 3769, "annotation": {"number": 64, "value": 127}, "group": "control_change"}, {"time": 3790, "annotation": {"number": 64, "value": 0}, "group": "control_change"}, {"time": 3793, "annotation": {"number": 64, "value": 127}, "group": "control_change"}, {"time": 3815, "annotation": {"number": 64, "value": 0}, "group": "control_change"}, {"time": 3817, "annotation": {"number": 64, "value": 127}, "group": "control_change"}, {"time": 3839, "annotation": {"number": 64, "value": 0}, "group": "control_change"}, {"time": 3842, "annotation": {"number": 64, "value": 127}, "group": "control_change"}, {"time": 3863, "annotation": {"number": 64, "value": 0}, "group": "control_change"}, {"time": 3866, "annotation": {"number": 64, "value": 127}, "group": "control_change"}, {"time": 3887, "annotation": {"number": 64, "value": 0}, "group": "control_change"}, {"time": 3890, "annotation": {"number": 64, "value": 127}, "group": "control_change"}, {"time": 3910, "annotation": {"number": 64, "value": 0}, "group": "control_change"}, {"time": 3913, "annotation": {"number": 64, "value": 127}, "group": "control_change"}, {"time": 3934, "annotation": {"number": 64, "value": 0}, "group": "control_change"}, {"time": 3959, "annotation": {"number": 64, "value": 0}, "group": "control_change"}, {"time": 3961, "annotation": {"number": 64, "value": 127}, "group": "control_change"}, {"time": 3983, "annotation": {"number": 64, "value": 0}, "group": "control_change"}, {"time": 3985, "annotation": {"number": 64, "value": 127}, "group": "control_change"}, {"time": 4007, "annotation": {"number": 64, "value": 0}, "group": "control_change"}, {"time": 4009, "annotation": {"number": 64, "value": 127}, "group": "control_change"}, {"time": 4032, "annotation": {"number": 64, "value": 0}, "group": "control_change"}, {"time": 4054, "annotation": {"number": 64, "value": 0}, "group": "control_change"}, {"time": 4057, "annotation": {"number": 64, "value": 127}, "group": "control_change"}, {"time": 4079, "annotation": {"number": 64, "value": 0}, "group": "control_change"}, {"time": 4082, "annotation": {"number": 64, "value": 127}, "group": "control_change"}, {"time": 4103, "annotation": {"number": 64, "value": 0}, "group": "control_change"}, {"time": 4105, "annotation": {"number": 64, "value": 127}, "group": "control_change"}, {"time": 4126, "annotation": {"number": 64, "value": 0}, "group": "control_change"}, {"time": 4129, "annotation": {"number": 64, "value": 127}, "group": "control_change"}, {"time": 4151, "annotation": {"number": 64, "value": 0}, "group": "control_change"}, {"time": 4153, "annotation": {"number": 64, "value": 127}, "group": "control_change"}, {"time": 4175, "annotation": {"number": 64, "value": 0}, "group": "control_change"}, {"time": 4178, "annotation": {"number": 64, "value": 127}, "group": "control_change"}, {"time": 4199, "annotation": {"number": 64, "value": 0}, "group": "control_change"}, {"time": 4213, "annotation": {"number": 64, "value": 127}, "group": "control_change"}, {"time": 4221, "annotation": {"number": 64, "value": 0}, "group": "control_change"}, {"time": 4225, "annotation": {"number": 64, "value": 127}, "group": "control_change"}, {"time": 4270, "annotation": {"number": 64, "value": 0}, "group": "control_change"}, {"time": 4274, "annotation": {"number": 64, "value": 127}, "group": "control_change"}, {"time": 4293, "annotation": {"number": 64, "value": 0}, "group": "control_change"}, {"time": 4296, "annotation": {"number": 64, "value": 127}, "group": "control_change"}, {"time": 4316, "annotation": {"number": 64, "value": 0}, "group": "control_change"}, {"time": 4321, "annotation": {"number": 64, "value": 127}, "group": "control_change"}, {"time": 4339, "annotation": {"number": 64, "value": 0}, "group": "control_change"}, {"time": 4346, "annotation": {"number": 64, "value": 127}, "group": "control_change"}, {"time": 4365, "annotation": {"number": 64, "value": 0}, "group": "control_change"}, {"time": 4370, "annotation": {"number": 64, "value": 127}, "group": "control_change"}, {"time": 4413, "annotation": {"number": 64, "value": 0}, "group": "control_change"}, {"time": 4436, "annotation": {"number": 64, "value": 127}, "group": "control_change"}, {"time": 4489, "annotation": {"number": 64, "value": 0}, "group": "control_change"}, {"time": 4492, "annotation": {"number": 64, "value": 127}, "group": "control_change"}, {"time": 4493, "annotation": {"number": 64, "value": 0}, "group": "control_change"}, {"time": 4494, "annotation": {"number": 64, "value": 127}, "group": "control_change"}, {"time": 4499, "annotation": {"number": 64, "value": 0}, "group": "control_change"}]}]}