{"metadata": {"schema_version": "0.2", "title": "None", "source_filename": "769.mid", "source_format": "midi"}, "resolution": 12, "tempos": [{"time": 0, "qpm": 85.00004250002125}], "time_signatures": [{"time": 0, "numerator": 1, "denominator": 4}], "tracks": [{"program": 0, "is_drum": false, "name": "MELODY", "notes": [{"time": 402, "pitch": 66, "duration": 5, "velocity": 90}, {"time": 408, "pitch": 67, "duration": 4, "velocity": 89}, {"time": 414, "pitch": 69, "duration": 14, "velocity": 99}, {"time": 432, "pitch": 69, "duration": 4, "velocity": 81}, {"time": 444, "pitch": 69, "duration": 5, "velocity": 92}, {"time": 450, "pitch": 67, "duration": 4, "velocity": 93}, {"time": 456, "pitch": 66, "duration": 6, "velocity": 72}, {"time": 462, "pitch": 64, "duration": 4, "velocity": 75}, {"time": 468, "pitch": 64, "duration": 6, "velocity": 66}, {"time": 474, "pitch": 66, "duration": 6, "velocity": 86}, {"time": 480, "pitch": 64, "duration": 10, "velocity": 89}, {"time": 492, "pitch": 64, "duration": 3, "velocity": 83}, {"time": 498, "pitch": 66, "duration": 6, "velocity": 96}, {"time": 504, "pitch": 64, "duration": 5, "velocity": 71}, {"time": 510, "pitch": 64, "duration": 5, "velocity": 89}, {"time": 516, "pitch": 62, "duration": 4, "velocity": 62}, {"time": 522, "pitch": 62, "duration": 4, "velocity": 81}, {"time": 528, "pitch": 62, "duration": 6, "velocity": 85}, {"time": 534, "pitch": 62, "duration": 5, "velocity": 89}, {"time": 540, "pitch": 74, "duration": 6, "velocity": 95}, {"time": 546, "pitch": 73, "duration": 3, "velocity": 95}, {"time": 552, "pitch": 66, "duration": 5, "velocity": 83}, {"time": 558, "pitch": 69, "duration": 19, "velocity": 88}, {"time": 594, "pitch": 69, "duration": 3, "velocity": 93}, {"time": 600, "pitch": 69, "duration": 3, "velocity": 79}, {"time": 606, "pitch": 71, "duration": 10, "velocity": 95}, {"time": 624, "pitch": 62, "duration": 6, "velocity": 97}, {"time": 636, "pitch": 71, "duration": 4, "velocity": 95}, {"time": 642, "pitch": 71, "duration": 5, "velocity": 97}, {"time": 648, "pitch": 69, "duration": 4, "velocity": 95}, {"time": 654, "pitch": 69, "duration": 3, "velocity": 96}, {"time": 660, "pitch": 62, "duration": 4, "velocity": 92}, {"time": 666, "pitch": 64, "duration": 6, "velocity": 86}, {"time": 672, "pitch": 62, "duration": 4, "velocity": 67}, {"time": 675, "pitch": 66, "duration": 18, "velocity": 97}, {"time": 696, "pitch": 66, "duration": 4, "velocity": 92}, {"time": 702, "pitch": 67, "duration": 4, "velocity": 88}, {"time": 708, "pitch": 67, "duration": 4, "velocity": 89}, {"time": 714, "pitch": 67, "duration": 5, "velocity": 93}, {"time": 720, "pitch": 66, "duration": 4, "velocity": 90}, {"time": 726, "pitch": 64, "duration": 4, "velocity": 81}, {"time": 732, "pitch": 62, "duration": 4, "velocity": 90}, {"time": 738, "pitch": 66, "duration": 2, "velocity": 97}, {"time": 744, "pitch": 66, "duration": 9, "velocity": 97}, {"time": 756, "pitch": 64, "duration": 18, "velocity": 85}, {"time": 786, "pitch": 66, "duration": 5, "velocity": 90}, {"time": 792, "pitch": 67, "duration": 4, "velocity": 89}, {"time": 798, "pitch": 69, "duration": 14, "velocity": 99}, {"time": 816, "pitch": 69, "duration": 4, "velocity": 81}, {"time": 828, "pitch": 69, "duration": 5, "velocity": 92}, {"time": 834, "pitch": 67, "duration": 4, "velocity": 93}, {"time": 840, "pitch": 66, "duration": 6, "velocity": 72}, {"time": 846, "pitch": 64, "duration": 4, "velocity": 75}, {"time": 852, "pitch": 64, "duration": 6, "velocity": 66}, {"time": 858, "pitch": 66, "duration": 6, "velocity": 86}, {"time": 864, "pitch": 64, "duration": 10, "velocity": 89}, {"time": 882, "pitch": 66, "duration": 6, "velocity": 96}, {"time": 888, "pitch": 64, "duration": 5, "velocity": 71}, {"time": 894, "pitch": 64, "duration": 5, "velocity": 89}, {"time": 900, "pitch": 62, "duration": 4, "velocity": 62}, {"time": 906, "pitch": 62, "duration": 4, "velocity": 81}, {"time": 912, "pitch": 62, "duration": 3, "velocity": 85}, {"time": 918, "pitch": 62, "duration": 5, "velocity": 89}, {"time": 924, "pitch": 74, "duration": 6, "velocity": 95}, {"time": 930, "pitch": 73, "duration": 3, "velocity": 95}, {"time": 936, "pitch": 66, "duration": 5, "velocity": 83}, {"time": 942, "pitch": 69, "duration": 19, "velocity": 88}, {"time": 972, "pitch": 69, "duration": 4, "velocity": 93}, {"time": 978, "pitch": 69, "duration": 3, "velocity": 93}, {"time": 984, "pitch": 69, "duration": 3, "velocity": 79}, {"time": 990, "pitch": 71, "duration": 10, "velocity": 95}, {"time": 1008, "pitch": 62, "duration": 6, "velocity": 97}, {"time": 1020, "pitch": 71, "duration": 4, "velocity": 95}, {"time": 1026, "pitch": 71, "duration": 5, "velocity": 97}, {"time": 1032, "pitch": 69, "duration": 4, "velocity": 95}, {"time": 1038, "pitch": 69, "duration": 3, "velocity": 96}, {"time": 1044, "pitch": 62, "duration": 4, "velocity": 92}, {"time": 1050, "pitch": 64, "duration": 6, "velocity": 86}, {"time": 1056, "pitch": 66, "duration": 18, "velocity": 97}, {"time": 1080, "pitch": 66, "duration": 4, "velocity": 92}, {"time": 1086, "pitch": 67, "duration": 4, "velocity": 88}, {"time": 1092, "pitch": 67, "duration": 4, "velocity": 89}, {"time": 1098, "pitch": 67, "duration": 5, "velocity": 93}, {"time": 1104, "pitch": 66, "duration": 4, "velocity": 90}, {"time": 1110, "pitch": 64, "duration": 4, "velocity": 81}, {"time": 1116, "pitch": 62, "duration": 4, "velocity": 90}, {"time": 1122, "pitch": 64, "duration": 3, "velocity": 92}, {"time": 1128, "pitch": 64, "duration": 10, "velocity": 100}, {"time": 1140, "pitch": 62, "duration": 18, "velocity": 95}, {"time": 1164, "pitch": 74, "duration": 4, "velocity": 96}, {"time": 1170, "pitch": 73, "duration": 4, "velocity": 100}, {"time": 1176, "pitch": 74, "duration": 3, "velocity": 99}, {"time": 1182, "pitch": 71, "duration": 18, "velocity": 100}, {"time": 1200, "pitch": 71, "duration": 5, "velocity": 102}, {"time": 1212, "pitch": 73, "duration": 3, "velocity": 117}, {"time": 1218, "pitch": 73, "duration": 5, "velocity": 122}, {"time": 1224, "pitch": 74, "duration": 3, "velocity": 99}, {"time": 1230, "pitch": 69, "duration": 5, "velocity": 93}, {"time": 1236, "pitch": 66, "duration": 5, "velocity": 96}, {"time": 1242, "pitch": 69, "duration": 4, "velocity": 92}, {"time": 1248, "pitch": 64, "duration": 5, "velocity": 93}, {"time": 1254, "pitch": 66, "duration": 8, "velocity": 96}, {"time": 1272, "pitch": 66, "duration": 5, "velocity": 92}, {"time": 1278, "pitch": 67, "duration": 5, "velocity": 85}, {"time": 1284, "pitch": 67, "duration": 4, "velocity": 78}, {"time": 1290, "pitch": 67, "duration": 4, "velocity": 96}, {"time": 1296, "pitch": 74, "duration": 8, "velocity": 100}, {"time": 1308, "pitch": 73, "duration": 3, "velocity": 117}, {"time": 1314, "pitch": 73, "duration": 6, "velocity": 102}, {"time": 1320, "pitch": 71, "duration": 5, "velocity": 83}, {"time": 1326, "pitch": 69, "duration": 23, "velocity": 99}, {"time": 1356, "pitch": 69, "duration": 4, "velocity": 95}, {"time": 1362, "pitch": 69, "duration": 3, "velocity": 86}, {"time": 1368, "pitch": 69, "duration": 4, "velocity": 92}, {"time": 1374, "pitch": 70, "duration": 12, "velocity": 107}, {"time": 1392, "pitch": 78, "duration": 8, "velocity": 107}, {"time": 1404, "pitch": 76, "duration": 4, "velocity": 112}, {"time": 1410, "pitch": 76, "duration": 4, "velocity": 96}, {"time": 1416, "pitch": 76, "duration": 3, "velocity": 100}, {"time": 1422, "pitch": 76, "duration": 5, "velocity": 100}, {"time": 1428, "pitch": 74, "duration": 4, "velocity": 99}, {"time": 1434, "pitch": 73, "duration": 4, "velocity": 112}, {"time": 1440, "pitch": 74, "duration": 7, "velocity": 112}, {"time": 1464, "pitch": 74, "duration": 4, "velocity": 95}, {"time": 1470, "pitch": 74, "duration": 3, "velocity": 93}, {"time": 1476, "pitch": 66, "duration": 4, "velocity": 102}, {"time": 1482, "pitch": 66, "duration": 5, "velocity": 107}, {"time": 1488, "pitch": 67, "duration": 4, "velocity": 97}, {"time": 1494, "pitch": 67, "duration": 4, "velocity": 107}, {"time": 1500, "pitch": 67, "duration": 4, "velocity": 96}, {"time": 1506, "pitch": 66, "duration": 3, "velocity": 107}, {"time": 1512, "pitch": 66, "duration": 12, "velocity": 102}, {"time": 1524, "pitch": 64, "duration": 14, "velocity": 95}, {"time": 1548, "pitch": 74, "duration": 4, "velocity": 96}, {"time": 1554, "pitch": 73, "duration": 4, "velocity": 100}, {"time": 1560, "pitch": 74, "duration": 3, "velocity": 99}, {"time": 1566, "pitch": 71, "duration": 18, "velocity": 100}, {"time": 1584, "pitch": 71, "duration": 5, "velocity": 102}, {"time": 1596, "pitch": 73, "duration": 3, "velocity": 117}, {"time": 1602, "pitch": 73, "duration": 5, "velocity": 122}, {"time": 1608, "pitch": 74, "duration": 3, "velocity": 99}, {"time": 1614, "pitch": 69, "duration": 5, "velocity": 93}, {"time": 1620, "pitch": 66, "duration": 5, "velocity": 96}, {"time": 1626, "pitch": 69, "duration": 4, "velocity": 92}, {"time": 1632, "pitch": 64, "duration": 5, "velocity": 93}, {"time": 1638, "pitch": 66, "duration": 8, "velocity": 96}, {"time": 1656, "pitch": 66, "duration": 5, "velocity": 92}, {"time": 1662, "pitch": 67, "duration": 5, "velocity": 85}, {"time": 1668, "pitch": 67, "duration": 4, "velocity": 78}, {"time": 1674, "pitch": 67, "duration": 4, "velocity": 96}, {"time": 1680, "pitch": 74, "duration": 8, "velocity": 100}, {"time": 1692, "pitch": 73, "duration": 3, "velocity": 117}, {"time": 1698, "pitch": 73, "duration": 6, "velocity": 102}, {"time": 1704, "pitch": 71, "duration": 5, "velocity": 83}, {"time": 1710, "pitch": 71, "duration": 7, "velocity": 127}, {"time": 1716, "pitch": 69, "duration": 16, "velocity": 99}, {"time": 1740, "pitch": 69, "duration": 4, "velocity": 95}, {"time": 1746, "pitch": 69, "duration": 3, "velocity": 86}, {"time": 1752, "pitch": 69, "duration": 4, "velocity": 92}, {"time": 1758, "pitch": 70, "duration": 12, "velocity": 107}, {"time": 1776, "pitch": 78, "duration": 8, "velocity": 107}, {"time": 1788, "pitch": 76, "duration": 4, "velocity": 112}, {"time": 1794, "pitch": 76, "duration": 4, "velocity": 96}, {"time": 1800, "pitch": 76, "duration": 3, "velocity": 100}, {"time": 1806, "pitch": 76, "duration": 5, "velocity": 100}, {"time": 1812, "pitch": 74, "duration": 4, "velocity": 99}, {"time": 1818, "pitch": 73, "duration": 4, "velocity": 112}, {"time": 1824, "pitch": 74, "duration": 7, "velocity": 112}, {"time": 1848, "pitch": 74, "duration": 4, "velocity": 95}, {"time": 1854, "pitch": 74, "duration": 3, "velocity": 93}, {"time": 1860, "pitch": 66, "duration": 4, "velocity": 102}, {"time": 1866, "pitch": 66, "duration": 5, "velocity": 107}, {"time": 1872, "pitch": 67, "duration": 11, "velocity": 102}, {"time": 1896, "pitch": 74, "duration": 4, "velocity": 117}, {"time": 1902, "pitch": 74, "duration": 3, "velocity": 97}, {"time": 1908, "pitch": 67, "duration": 5, "velocity": 112}, {"time": 1914, "pitch": 66, "duration": 4, "velocity": 107}, {"time": 1920, "pitch": 67, "duration": 12, "velocity": 100}, {"time": 1932, "pitch": 67, "duration": 6, "velocity": 107}, {"time": 1944, "pitch": 66, "duration": 7, "velocity": 95}, {"time": 1956, "pitch": 62, "duration": 32, "velocity": 96}, {"time": 2034, "pitch": 66, "duration": 5, "velocity": 90}, {"time": 2040, "pitch": 67, "duration": 4, "velocity": 89}, {"time": 2046, "pitch": 69, "duration": 14, "velocity": 99}, {"time": 2064, "pitch": 69, "duration": 4, "velocity": 81}, {"time": 2076, "pitch": 69, "duration": 5, "velocity": 92}, {"time": 2082, "pitch": 67, "duration": 4, "velocity": 93}, {"time": 2088, "pitch": 66, "duration": 6, "velocity": 72}, {"time": 2094, "pitch": 64, "duration": 4, "velocity": 75}, {"time": 2100, "pitch": 64, "duration": 6, "velocity": 66}, {"time": 2106, "pitch": 66, "duration": 6, "velocity": 86}, {"time": 2112, "pitch": 64, "duration": 10, "velocity": 89}, {"time": 2124, "pitch": 64, "duration": 3, "velocity": 83}, {"time": 2130, "pitch": 66, "duration": 6, "velocity": 96}, {"time": 2136, "pitch": 64, "duration": 5, "velocity": 71}, {"time": 2142, "pitch": 64, "duration": 5, "velocity": 89}, {"time": 2148, "pitch": 62, "duration": 4, "velocity": 62}, {"time": 2154, "pitch": 62, "duration": 4, "velocity": 81}, {"time": 2160, "pitch": 62, "duration": 6, "velocity": 85}, {"time": 2166, "pitch": 62, "duration": 5, "velocity": 89}, {"time": 2172, "pitch": 74, "duration": 6, "velocity": 95}, {"time": 2178, "pitch": 73, "duration": 3, "velocity": 95}, {"time": 2184, "pitch": 66, "duration": 5, "velocity": 83}, {"time": 2190, "pitch": 69, "duration": 19, "velocity": 88}, {"time": 2226, "pitch": 69, "duration": 3, "velocity": 93}, {"time": 2232, "pitch": 69, "duration": 3, "velocity": 79}, {"time": 2238, "pitch": 71, "duration": 10, "velocity": 95}, {"time": 2256, "pitch": 62, "duration": 6, "velocity": 97}, {"time": 2268, "pitch": 71, "duration": 4, "velocity": 95}, {"time": 2274, "pitch": 71, "duration": 5, "velocity": 97}, {"time": 2280, "pitch": 69, "duration": 4, "velocity": 95}, {"time": 2286, "pitch": 69, "duration": 3, "velocity": 96}, {"time": 2292, "pitch": 62, "duration": 4, "velocity": 92}, {"time": 2298, "pitch": 64, "duration": 6, "velocity": 86}, {"time": 2304, "pitch": 62, "duration": 4, "velocity": 67}, {"time": 2307, "pitch": 66, "duration": 18, "velocity": 97}, {"time": 2328, "pitch": 66, "duration": 4, "velocity": 92}, {"time": 2334, "pitch": 67, "duration": 4, "velocity": 88}, {"time": 2340, "pitch": 67, "duration": 4, "velocity": 89}, {"time": 2346, "pitch": 67, "duration": 5, "velocity": 93}, {"time": 2352, "pitch": 66, "duration": 4, "velocity": 90}, {"time": 2358, "pitch": 64, "duration": 4, "velocity": 81}, {"time": 2364, "pitch": 62, "duration": 4, "velocity": 90}, {"time": 2370, "pitch": 66, "duration": 2, "velocity": 97}, {"time": 2376, "pitch": 66, "duration": 9, "velocity": 97}, {"time": 2388, "pitch": 64, "duration": 18, "velocity": 85}, {"time": 2418, "pitch": 66, "duration": 5, "velocity": 90}, {"time": 2424, "pitch": 67, "duration": 4, "velocity": 89}, {"time": 2430, "pitch": 69, "duration": 14, "velocity": 99}, {"time": 2448, "pitch": 69, "duration": 4, "velocity": 81}, {"time": 2460, "pitch": 69, "duration": 5, "velocity": 92}, {"time": 2466, "pitch": 67, "duration": 4, "velocity": 93}, {"time": 2472, "pitch": 66, "duration": 6, "velocity": 72}, {"time": 2478, "pitch": 64, "duration": 4, "velocity": 75}, {"time": 2484, "pitch": 64, "duration": 6, "velocity": 66}, {"time": 2490, "pitch": 66, "duration": 6, "velocity": 86}, {"time": 2496, "pitch": 64, "duration": 10, "velocity": 89}, {"time": 2514, "pitch": 66, "duration": 6, "velocity": 96}, {"time": 2520, "pitch": 64, "duration": 5, "velocity": 71}, {"time": 2526, "pitch": 64, "duration": 5, "velocity": 89}, {"time": 2532, "pitch": 62, "duration": 4, "velocity": 62}, {"time": 2538, "pitch": 62, "duration": 4, "velocity": 81}, {"time": 2544, "pitch": 62, "duration": 3, "velocity": 85}, {"time": 2550, "pitch": 62, "duration": 5, "velocity": 89}, {"time": 2556, "pitch": 74, "duration": 6, "velocity": 95}, {"time": 2562, "pitch": 73, "duration": 3, "velocity": 95}, {"time": 2568, "pitch": 66, "duration": 5, "velocity": 83}, {"time": 2574, "pitch": 69, "duration": 19, "velocity": 88}, {"time": 2604, "pitch": 69, "duration": 4, "velocity": 93}, {"time": 2610, "pitch": 69, "duration": 3, "velocity": 93}, {"time": 2616, "pitch": 69, "duration": 3, "velocity": 79}, {"time": 2622, "pitch": 71, "duration": 10, "velocity": 95}, {"time": 2640, "pitch": 62, "duration": 6, "velocity": 97}, {"time": 2652, "pitch": 71, "duration": 4, "velocity": 95}, {"time": 2658, "pitch": 71, "duration": 5, "velocity": 97}, {"time": 2664, "pitch": 69, "duration": 4, "velocity": 95}, {"time": 2670, "pitch": 69, "duration": 3, "velocity": 96}, {"time": 2676, "pitch": 62, "duration": 4, "velocity": 92}, {"time": 2682, "pitch": 64, "duration": 6, "velocity": 86}, {"time": 2688, "pitch": 66, "duration": 18, "velocity": 97}, {"time": 2712, "pitch": 66, "duration": 4, "velocity": 92}, {"time": 2718, "pitch": 67, "duration": 4, "velocity": 88}, {"time": 2724, "pitch": 67, "duration": 4, "velocity": 89}, {"time": 2730, "pitch": 67, "duration": 5, "velocity": 93}, {"time": 2736, "pitch": 66, "duration": 4, "velocity": 90}, {"time": 2742, "pitch": 64, "duration": 4, "velocity": 81}, {"time": 2748, "pitch": 62, "duration": 4, "velocity": 90}, {"time": 2754, "pitch": 64, "duration": 3, "velocity": 92}, {"time": 2760, "pitch": 64, "duration": 10, "velocity": 100}, {"time": 2772, "pitch": 62, "duration": 18, "velocity": 95}, {"time": 2796, "pitch": 74, "duration": 4, "velocity": 96}, {"time": 2802, "pitch": 73, "duration": 4, "velocity": 100}, {"time": 2808, "pitch": 74, "duration": 3, "velocity": 99}, {"time": 2814, "pitch": 71, "duration": 18, "velocity": 100}, {"time": 2832, "pitch": 71, "duration": 5, "velocity": 102}, {"time": 2844, "pitch": 73, "duration": 3, "velocity": 117}, {"time": 2850, "pitch": 73, "duration": 5, "velocity": 122}, {"time": 2856, "pitch": 74, "duration": 3, "velocity": 99}, {"time": 2862, "pitch": 69, "duration": 5, "velocity": 93}, {"time": 2868, "pitch": 66, "duration": 5, "velocity": 96}, {"time": 2874, "pitch": 69, "duration": 4, "velocity": 92}, {"time": 2880, "pitch": 64, "duration": 5, "velocity": 93}, {"time": 2886, "pitch": 66, "duration": 8, "velocity": 96}, {"time": 2904, "pitch": 66, "duration": 5, "velocity": 92}, {"time": 2910, "pitch": 67, "duration": 5, "velocity": 85}, {"time": 2916, "pitch": 67, "duration": 4, "velocity": 78}, {"time": 2922, "pitch": 67, "duration": 4, "velocity": 96}, {"time": 2928, "pitch": 74, "duration": 8, "velocity": 100}, {"time": 2940, "pitch": 73, "duration": 3, "velocity": 117}, {"time": 2946, "pitch": 73, "duration": 6, "velocity": 102}, {"time": 2952, "pitch": 71, "duration": 5, "velocity": 83}, {"time": 2958, "pitch": 69, "duration": 23, "velocity": 99}, {"time": 2988, "pitch": 69, "duration": 4, "velocity": 95}, {"time": 2994, "pitch": 69, "duration": 3, "velocity": 86}, {"time": 3000, "pitch": 69, "duration": 4, "velocity": 92}, {"time": 3006, "pitch": 70, "duration": 12, "velocity": 107}, {"time": 3024, "pitch": 78, "duration": 8, "velocity": 107}, {"time": 3036, "pitch": 76, "duration": 4, "velocity": 112}, {"time": 3042, "pitch": 76, "duration": 4, "velocity": 96}, {"time": 3048, "pitch": 76, "duration": 3, "velocity": 100}, {"time": 3054, "pitch": 76, "duration": 5, "velocity": 100}, {"time": 3060, "pitch": 74, "duration": 4, "velocity": 99}, {"time": 3066, "pitch": 73, "duration": 4, "velocity": 112}, {"time": 3072, "pitch": 74, "duration": 7, "velocity": 112}, {"time": 3096, "pitch": 74, "duration": 4, "velocity": 95}, {"time": 3102, "pitch": 74, "duration": 3, "velocity": 93}, {"time": 3108, "pitch": 66, "duration": 4, "velocity": 102}, {"time": 3114, "pitch": 66, "duration": 5, "velocity": 107}, {"time": 3120, "pitch": 67, "duration": 4, "velocity": 97}, {"time": 3126, "pitch": 67, "duration": 4, "velocity": 107}, {"time": 3132, "pitch": 67, "duration": 4, "velocity": 96}, {"time": 3138, "pitch": 66, "duration": 3, "velocity": 107}, {"time": 3144, "pitch": 66, "duration": 12, "velocity": 102}, {"time": 3156, "pitch": 64, "duration": 14, "velocity": 95}, {"time": 3180, "pitch": 74, "duration": 4, "velocity": 96}, {"time": 3186, "pitch": 73, "duration": 4, "velocity": 100}, {"time": 3192, "pitch": 74, "duration": 3, "velocity": 99}, {"time": 3198, "pitch": 71, "duration": 18, "velocity": 100}, {"time": 3216, "pitch": 71, "duration": 5, "velocity": 102}, {"time": 3228, "pitch": 73, "duration": 3, "velocity": 117}, {"time": 3234, "pitch": 73, "duration": 5, "velocity": 122}, {"time": 3240, "pitch": 74, "duration": 3, "velocity": 99}, {"time": 3246, "pitch": 69, "duration": 5, "velocity": 93}, {"time": 3252, "pitch": 66, "duration": 5, "velocity": 96}, {"time": 3258, "pitch": 69, "duration": 4, "velocity": 92}, {"time": 3264, "pitch": 64, "duration": 5, "velocity": 93}, {"time": 3270, "pitch": 66, "duration": 8, "velocity": 96}, {"time": 3288, "pitch": 66, "duration": 5, "velocity": 92}, {"time": 3294, "pitch": 67, "duration": 5, "velocity": 85}, {"time": 3300, "pitch": 67, "duration": 4, "velocity": 78}, {"time": 3306, "pitch": 67, "duration": 4, "velocity": 96}, {"time": 3312, "pitch": 74, "duration": 8, "velocity": 100}, {"time": 3324, "pitch": 73, "duration": 3, "velocity": 117}, {"time": 3330, "pitch": 73, "duration": 6, "velocity": 102}, {"time": 3336, "pitch": 71, "duration": 5, "velocity": 83}, {"time": 3342, "pitch": 71, "duration": 7, "velocity": 127}, {"time": 3348, "pitch": 69, "duration": 16, "velocity": 99}, {"time": 3372, "pitch": 69, "duration": 4, "velocity": 95}, {"time": 3378, "pitch": 69, "duration": 3, "velocity": 86}, {"time": 3384, "pitch": 69, "duration": 4, "velocity": 92}, {"time": 3390, "pitch": 70, "duration": 12, "velocity": 107}, {"time": 3408, "pitch": 78, "duration": 8, "velocity": 107}, {"time": 3420, "pitch": 76, "duration": 4, "velocity": 112}, {"time": 3426, "pitch": 76, "duration": 4, "velocity": 96}, {"time": 3432, "pitch": 76, "duration": 3, "velocity": 100}, {"time": 3438, "pitch": 76, "duration": 5, "velocity": 100}, {"time": 3444, "pitch": 74, "duration": 4, "velocity": 99}, {"time": 3450, "pitch": 73, "duration": 4, "velocity": 112}, {"time": 3456, "pitch": 74, "duration": 7, "velocity": 112}, {"time": 3480, "pitch": 74, "duration": 4, "velocity": 95}, {"time": 3486, "pitch": 74, "duration": 3, "velocity": 93}, {"time": 3492, "pitch": 66, "duration": 4, "velocity": 102}, {"time": 3498, "pitch": 66, "duration": 5, "velocity": 107}, {"time": 3504, "pitch": 67, "duration": 6, "velocity": 102}, {"time": 3510, "pitch": 67, "duration": 4, "velocity": 112}, {"time": 3516, "pitch": 67, "duration": 4, "velocity": 107}, {"time": 3522, "pitch": 78, "duration": 4, "velocity": 127}, {"time": 3528, "pitch": 78, "duration": 10, "velocity": 127}, {"time": 3540, "pitch": 76, "duration": 13, "velocity": 122}, {"time": 3564, "pitch": 74, "duration": 4, "velocity": 96}, {"time": 3570, "pitch": 73, "duration": 4, "velocity": 100}, {"time": 3576, "pitch": 74, "duration": 3, "velocity": 99}, {"time": 3582, "pitch": 71, "duration": 18, "velocity": 100}, {"time": 3600, "pitch": 71, "duration": 5, "velocity": 102}, {"time": 3612, "pitch": 73, "duration": 3, "velocity": 117}, {"time": 3618, "pitch": 73, "duration": 5, "velocity": 122}, {"time": 3624, "pitch": 74, "duration": 3, "velocity": 99}, {"time": 3630, "pitch": 69, "duration": 5, "velocity": 93}, {"time": 3636, "pitch": 66, "duration": 5, "velocity": 96}, {"time": 3642, "pitch": 69, "duration": 4, "velocity": 92}, {"time": 3648, "pitch": 64, "duration": 5, "velocity": 93}, {"time": 3654, "pitch": 66, "duration": 8, "velocity": 96}, {"time": 3672, "pitch": 66, "duration": 5, "velocity": 92}, {"time": 3678, "pitch": 67, "duration": 5, "velocity": 85}, {"time": 3684, "pitch": 67, "duration": 4, "velocity": 78}, {"time": 3690, "pitch": 67, "duration": 4, "velocity": 96}, {"time": 3696, "pitch": 74, "duration": 8, "velocity": 100}, {"time": 3708, "pitch": 73, "duration": 3, "velocity": 117}, {"time": 3714, "pitch": 73, "duration": 6, "velocity": 102}, {"time": 3720, "pitch": 71, "duration": 5, "velocity": 83}, {"time": 3726, "pitch": 69, "duration": 23, "velocity": 99}, {"time": 3756, "pitch": 69, "duration": 4, "velocity": 95}, {"time": 3762, "pitch": 69, "duration": 3, "velocity": 86}, {"time": 3768, "pitch": 69, "duration": 4, "velocity": 92}, {"time": 3774, "pitch": 70, "duration": 12, "velocity": 107}, {"time": 3792, "pitch": 78, "duration": 8, "velocity": 107}, {"time": 3804, "pitch": 76, "duration": 4, "velocity": 112}, {"time": 3810, "pitch": 76, "duration": 4, "velocity": 96}, {"time": 3816, "pitch": 76, "duration": 3, "velocity": 100}, {"time": 3822, "pitch": 76, "duration": 5, "velocity": 100}, {"time": 3828, "pitch": 74, "duration": 4, "velocity": 99}, {"time": 3834, "pitch": 73, "duration": 4, "velocity": 112}, {"time": 3840, "pitch": 74, "duration": 7, "velocity": 112}, {"time": 3864, "pitch": 74, "duration": 4, "velocity": 95}, {"time": 3870, "pitch": 74, "duration": 3, "velocity": 93}, {"time": 3876, "pitch": 66, "duration": 4, "velocity": 102}, {"time": 3882, "pitch": 66, "duration": 5, "velocity": 107}, {"time": 3888, "pitch": 67, "duration": 4, "velocity": 97}, {"time": 3894, "pitch": 67, "duration": 4, "velocity": 107}, {"time": 3900, "pitch": 67, "duration": 4, "velocity": 96}, {"time": 3906, "pitch": 66, "duration": 3, "velocity": 107}, {"time": 3912, "pitch": 66, "duration": 12, "velocity": 102}, {"time": 3924, "pitch": 64, "duration": 14, "velocity": 95}, {"time": 3948, "pitch": 74, "duration": 4, "velocity": 96}, {"time": 3954, "pitch": 73, "duration": 4, "velocity": 100}, {"time": 3960, "pitch": 74, "duration": 3, "velocity": 99}, {"time": 3966, "pitch": 71, "duration": 18, "velocity": 100}, {"time": 3984, "pitch": 71, "duration": 5, "velocity": 102}, {"time": 3996, "pitch": 73, "duration": 3, "velocity": 117}, {"time": 4002, "pitch": 73, "duration": 5, "velocity": 122}, {"time": 4008, "pitch": 74, "duration": 3, "velocity": 99}, {"time": 4014, "pitch": 69, "duration": 5, "velocity": 93}, {"time": 4020, "pitch": 66, "duration": 5, "velocity": 96}, {"time": 4026, "pitch": 69, "duration": 4, "velocity": 92}, {"time": 4032, "pitch": 64, "duration": 5, "velocity": 93}, {"time": 4038, "pitch": 66, "duration": 8, "velocity": 96}, {"time": 4056, "pitch": 66, "duration": 5, "velocity": 92}, {"time": 4062, "pitch": 67, "duration": 5, "velocity": 85}, {"time": 4068, "pitch": 67, "duration": 4, "velocity": 78}, {"time": 4074, "pitch": 67, "duration": 4, "velocity": 96}, {"time": 4080, "pitch": 74, "duration": 8, "velocity": 100}, {"time": 4092, "pitch": 73, "duration": 3, "velocity": 117}, {"time": 4098, "pitch": 73, "duration": 6, "velocity": 102}, {"time": 4104, "pitch": 71, "duration": 5, "velocity": 83}, {"time": 4110, "pitch": 71, "duration": 7, "velocity": 127}, {"time": 4116, "pitch": 69, "duration": 16, "velocity": 99}, {"time": 4140, "pitch": 69, "duration": 4, "velocity": 95}, {"time": 4146, "pitch": 69, "duration": 3, "velocity": 86}, {"time": 4152, "pitch": 69, "duration": 4, "velocity": 92}, {"time": 4158, "pitch": 70, "duration": 12, "velocity": 107}, {"time": 4176, "pitch": 78, "duration": 8, "velocity": 107}, {"time": 4188, "pitch": 76, "duration": 4, "velocity": 112}, {"time": 4194, "pitch": 76, "duration": 4, "velocity": 96}, {"time": 4200, "pitch": 76, "duration": 3, "velocity": 100}, {"time": 4206, "pitch": 76, "duration": 5, "velocity": 100}, {"time": 4212, "pitch": 74, "duration": 4, "velocity": 99}, {"time": 4218, "pitch": 73, "duration": 4, "velocity": 112}, {"time": 4224, "pitch": 74, "duration": 7, "velocity": 112}, {"time": 4248, "pitch": 74, "duration": 4, "velocity": 95}, {"time": 4254, "pitch": 74, "duration": 3, "velocity": 93}, {"time": 4260, "pitch": 66, "duration": 4, "velocity": 102}, {"time": 4266, "pitch": 66, "duration": 5, "velocity": 107}, {"time": 4272, "pitch": 67, "duration": 11, "velocity": 102}, {"time": 4296, "pitch": 74, "duration": 4, "velocity": 117}, {"time": 4302, "pitch": 74, "duration": 3, "velocity": 97}, {"time": 4308, "pitch": 67, "duration": 5, "velocity": 112}, {"time": 4314, "pitch": 66, "duration": 4, "velocity": 107}, {"time": 4320, "pitch": 67, "duration": 12, "velocity": 100}, {"time": 4332, "pitch": 67, "duration": 6, "velocity": 107}, {"time": 4344, "pitch": 66, "duration": 7, "velocity": 95}, {"time": 4356, "pitch": 62, "duration": 32, "velocity": 96}]}, {"program": 0, "is_drum": false, "name": "PIANO", "notes": [{"time": 30, "pitch": 47, "duration": 38, "velocity": 77}, {"time": 36, "pitch": 54, "duration": 19, "velocity": 70}, {"time": 42, "pitch": 59, "duration": 14, "velocity": 65}, {"time": 48, "pitch": 66, "duration": 25, "velocity": 102}, {"time": 54, "pitch": 62, "duration": 13, "velocity": 56}, {"time": 60, "pitch": 54, "duration": 6, "velocity": 39}, {"time": 66, "pitch": 59, "duration": 18, "velocity": 70}, {"time": 72, "pitch": 62, "duration": 13, "velocity": 43}, {"time": 78, "pitch": 43, "duration": 39, "velocity": 67}, {"time": 84, "pitch": 50, "duration": 34, "velocity": 53}, {"time": 90, "pitch": 55, "duration": 13, "velocity": 69}, {"time": 96, "pitch": 67, "duration": 30, "velocity": 97}, {"time": 102, "pitch": 59, "duration": 13, "velocity": 54}, {"time": 108, "pitch": 55, "duration": 9, "velocity": 56}, {"time": 114, "pitch": 62, "duration": 13, "velocity": 85}, {"time": 120, "pitch": 59, "duration": 8, "velocity": 60}, {"time": 126, "pitch": 45, "duration": 36, "velocity": 82}, {"time": 132, "pitch": 52, "duration": 21, "velocity": 76}, {"time": 138, "pitch": 57, "duration": 12, "velocity": 72}, {"time": 144, "pitch": 64, "duration": 31, "velocity": 93}, {"time": 150, "pitch": 61, "duration": 15, "velocity": 78}, {"time": 156, "pitch": 52, "duration": 5, "velocity": 56}, {"time": 162, "pitch": 57, "duration": 16, "velocity": 86}, {"time": 168, "pitch": 61, "duration": 7, "velocity": 82}, {"time": 174, "pitch": 38, "duration": 37, "velocity": 70}, {"time": 180, "pitch": 45, "duration": 31, "velocity": 48}, {"time": 186, "pitch": 50, "duration": 15, "velocity": 70}, {"time": 192, "pitch": 57, "duration": 15, "velocity": 79}, {"time": 198, "pitch": 66, "duration": 21, "velocity": 112}, {"time": 204, "pitch": 50, "duration": 9, "velocity": 79}, {"time": 210, "pitch": 62, "duration": 13, "velocity": 88}, {"time": 216, "pitch": 57, "duration": 6, "velocity": 81}, {"time": 222, "pitch": 43, "duration": 35, "velocity": 75}, {"time": 228, "pitch": 50, "duration": 29, "velocity": 46}, {"time": 234, "pitch": 55, "duration": 15, "velocity": 78}, {"time": 240, "pitch": 67, "duration": 30, "velocity": 86}, {"time": 246, "pitch": 59, "duration": 14, "velocity": 68}, {"time": 252, "pitch": 55, "duration": 5, "velocity": 82}, {"time": 258, "pitch": 62, "duration": 12, "velocity": 79}, {"time": 264, "pitch": 59, "duration": 6, "velocity": 72}, {"time": 270, "pitch": 42, "duration": 13, "velocity": 78}, {"time": 276, "pitch": 54, "duration": 9, "velocity": 75}, {"time": 282, "pitch": 57, "duration": 12, "velocity": 85}, {"time": 288, "pitch": 66, "duration": 10, "velocity": 96}, {"time": 294, "pitch": 47, "duration": 15, "velocity": 73}, {"time": 300, "pitch": 54, "duration": 7, "velocity": 74}, {"time": 306, "pitch": 66, "duration": 13, "velocity": 96}, {"time": 318, "pitch": 40, "duration": 17, "velocity": 74}, {"time": 324, "pitch": 47, "duration": 11, "velocity": 56}, {"time": 330, "pitch": 52, "duration": 7, "velocity": 61}, {"time": 336, "pitch": 55, "duration": 7, "velocity": 85}, {"time": 342, "pitch": 45, "duration": 15, "velocity": 74}, {"time": 348, "pitch": 52, "duration": 8, "velocity": 73}, {"time": 354, "pitch": 64, "duration": 13, "velocity": 86}, {"time": 360, "pitch": 61, "duration": 6, "velocity": 56}, {"time": 366, "pitch": 38, "duration": 41, "velocity": 69}, {"time": 372, "pitch": 45, "duration": 41, "velocity": 51}, {"time": 378, "pitch": 50, "duration": 16, "velocity": 72}, {"time": 384, "pitch": 57, "duration": 19, "velocity": 85}, {"time": 390, "pitch": 66, "duration": 42, "velocity": 102}, {"time": 396, "pitch": 50, "duration": 9, "velocity": 62}, {"time": 402, "pitch": 62, "duration": 15, "velocity": 54}, {"time": 414, "pitch": 38, "duration": 40, "velocity": 72}, {"time": 420, "pitch": 45, "duration": 34, "velocity": 57}, {"time": 426, "pitch": 50, "duration": 14, "velocity": 58}, {"time": 432, "pitch": 57, "duration": 20, "velocity": 40}, {"time": 438, "pitch": 66, "duration": 15, "velocity": 93}, {"time": 444, "pitch": 50, "duration": 11, "velocity": 50}, {"time": 450, "pitch": 62, "duration": 13, "velocity": 56}, {"time": 456, "pitch": 66, "duration": 8, "velocity": 72}, {"time": 462, "pitch": 45, "duration": 38, "velocity": 61}, {"time": 468, "pitch": 52, "duration": 17, "velocity": 54}, {"time": 474, "pitch": 57, "duration": 24, "velocity": 50}, {"time": 480, "pitch": 64, "duration": 31, "velocity": 89}, {"time": 492, "pitch": 52, "duration": 8, "velocity": 55}, {"time": 498, "pitch": 61, "duration": 12, "velocity": 99}, {"time": 504, "pitch": 57, "duration": 7, "velocity": 67}, {"time": 510, "pitch": 47, "duration": 35, "velocity": 62}, {"time": 516, "pitch": 54, "duration": 20, "velocity": 58}, {"time": 522, "pitch": 59, "duration": 10, "velocity": 58}, {"time": 528, "pitch": 66, "duration": 31, "velocity": 117}, {"time": 534, "pitch": 59, "duration": 11, "velocity": 66}, {"time": 540, "pitch": 54, "duration": 5, "velocity": 63}, {"time": 546, "pitch": 62, "duration": 12, "velocity": 89}, {"time": 552, "pitch": 59, "duration": 8, "velocity": 78}, {"time": 558, "pitch": 42, "duration": 38, "velocity": 76}, {"time": 564, "pitch": 49, "duration": 30, "velocity": 33}, {"time": 570, "pitch": 54, "duration": 14, "velocity": 72}, {"time": 576, "pitch": 57, "duration": 15, "velocity": 73}, {"time": 582, "pitch": 66, "duration": 25, "velocity": 79}, {"time": 582, "pitch": 85, "duration": 5, "velocity": 79}, {"time": 588, "pitch": 81, "duration": 8, "velocity": 73}, {"time": 588, "pitch": 54, "duration": 8, "velocity": 69}, {"time": 594, "pitch": 61, "duration": 12, "velocity": 68}, {"time": 594, "pitch": 78, "duration": 6, "velocity": 74}, {"time": 600, "pitch": 57, "duration": 8, "velocity": 85}, {"time": 606, "pitch": 43, "duration": 37, "velocity": 72}, {"time": 612, "pitch": 50, "duration": 30, "velocity": 57}, {"time": 618, "pitch": 55, "duration": 16, "velocity": 82}, {"time": 624, "pitch": 59, "duration": 17, "velocity": 68}, {"time": 630, "pitch": 67, "duration": 25, "velocity": 96}, {"time": 636, "pitch": 55, "duration": 5, "velocity": 75}, {"time": 642, "pitch": 62, "duration": 12, "velocity": 96}, {"time": 648, "pitch": 59, "duration": 7, "velocity": 79}, {"time": 654, "pitch": 38, "duration": 22, "velocity": 79}, {"time": 660, "pitch": 45, "duration": 16, "velocity": 61}, {"time": 666, "pitch": 50, "duration": 11, "velocity": 82}, {"time": 672, "pitch": 62, "duration": 6, "velocity": 86}, {"time": 678, "pitch": 51, "duration": 12, "velocity": 92}, {"time": 684, "pitch": 59, "duration": 21, "velocity": 76}, {"time": 690, "pitch": 66, "duration": 14, "velocity": 92}, {"time": 696, "pitch": 63, "duration": 8, "velocity": 58}, {"time": 702, "pitch": 40, "duration": 37, "velocity": 73}, {"time": 708, "pitch": 47, "duration": 31, "velocity": 50}, {"time": 714, "pitch": 52, "duration": 15, "velocity": 74}, {"time": 720, "pitch": 59, "duration": 20, "velocity": 70}, {"time": 726, "pitch": 67, "duration": 26, "velocity": 88}, {"time": 732, "pitch": 52, "duration": 8, "velocity": 61}, {"time": 738, "pitch": 64, "duration": 13, "velocity": 72}, {"time": 744, "pitch": 59, "duration": 7, "velocity": 82}, {"time": 750, "pitch": 45, "duration": 42, "velocity": 78}, {"time": 756, "pitch": 52, "duration": 36, "velocity": 56}, {"time": 762, "pitch": 57, "duration": 14, "velocity": 97}, {"time": 768, "pitch": 61, "duration": 7, "velocity": 112}, {"time": 774, "pitch": 64, "duration": 24, "velocity": 95}, {"time": 780, "pitch": 57, "duration": 6, "velocity": 70}, {"time": 786, "pitch": 61, "duration": 12, "velocity": 93}, {"time": 792, "pitch": 57, "duration": 6, "velocity": 95}, {"time": 798, "pitch": 38, "duration": 40, "velocity": 72}, {"time": 804, "pitch": 45, "duration": 34, "velocity": 57}, {"time": 810, "pitch": 50, "duration": 14, "velocity": 58}, {"time": 816, "pitch": 57, "duration": 20, "velocity": 40}, {"time": 822, "pitch": 66, "duration": 15, "velocity": 93}, {"time": 828, "pitch": 50, "duration": 11, "velocity": 50}, {"time": 834, "pitch": 62, "duration": 13, "velocity": 56}, {"time": 840, "pitch": 66, "duration": 8, "velocity": 72}, {"time": 846, "pitch": 45, "duration": 38, "velocity": 61}, {"time": 852, "pitch": 52, "duration": 17, "velocity": 54}, {"time": 858, "pitch": 57, "duration": 24, "velocity": 50}, {"time": 864, "pitch": 64, "duration": 31, "velocity": 89}, {"time": 876, "pitch": 52, "duration": 8, "velocity": 55}, {"time": 882, "pitch": 61, "duration": 12, "velocity": 99}, {"time": 888, "pitch": 57, "duration": 7, "velocity": 67}, {"time": 894, "pitch": 47, "duration": 35, "velocity": 62}, {"time": 900, "pitch": 54, "duration": 20, "velocity": 58}, {"time": 906, "pitch": 59, "duration": 10, "velocity": 58}, {"time": 912, "pitch": 66, "duration": 31, "velocity": 117}, {"time": 918, "pitch": 59, "duration": 11, "velocity": 66}, {"time": 924, "pitch": 54, "duration": 5, "velocity": 63}, {"time": 930, "pitch": 62, "duration": 12, "velocity": 89}, {"time": 936, "pitch": 59, "duration": 8, "velocity": 78}, {"time": 942, "pitch": 42, "duration": 38, "velocity": 76}, {"time": 948, "pitch": 49, "duration": 30, "velocity": 33}, {"time": 954, "pitch": 54, "duration": 14, "velocity": 72}, {"time": 960, "pitch": 57, "duration": 15, "velocity": 73}, {"time": 966, "pitch": 85, "duration": 7, "velocity": 89}, {"time": 966, "pitch": 66, "duration": 25, "velocity": 89}, {"time": 972, "pitch": 81, "duration": 7, "velocity": 89}, {"time": 972, "pitch": 54, "duration": 8, "velocity": 89}, {"time": 978, "pitch": 78, "duration": 6, "velocity": 90}, {"time": 978, "pitch": 61, "duration": 12, "velocity": 89}, {"time": 984, "pitch": 76, "duration": 6, "velocity": 84}, {"time": 984, "pitch": 57, "duration": 8, "velocity": 79}, {"time": 990, "pitch": 74, "duration": 13, "velocity": 78}, {"time": 990, "pitch": 43, "duration": 37, "velocity": 78}, {"time": 996, "pitch": 50, "duration": 30, "velocity": 57}, {"time": 1002, "pitch": 55, "duration": 16, "velocity": 82}, {"time": 1008, "pitch": 59, "duration": 17, "velocity": 68}, {"time": 1014, "pitch": 67, "duration": 25, "velocity": 96}, {"time": 1020, "pitch": 55, "duration": 5, "velocity": 75}, {"time": 1026, "pitch": 62, "duration": 12, "velocity": 96}, {"time": 1032, "pitch": 59, "duration": 7, "velocity": 79}, {"time": 1038, "pitch": 38, "duration": 22, "velocity": 79}, {"time": 1044, "pitch": 45, "duration": 16, "velocity": 61}, {"time": 1050, "pitch": 50, "duration": 11, "velocity": 82}, {"time": 1056, "pitch": 62, "duration": 6, "velocity": 86}, {"time": 1062, "pitch": 51, "duration": 12, "velocity": 92}, {"time": 1068, "pitch": 59, "duration": 18, "velocity": 76}, {"time": 1074, "pitch": 66, "duration": 12, "velocity": 92}, {"time": 1080, "pitch": 63, "duration": 6, "velocity": 58}, {"time": 1086, "pitch": 40, "duration": 14, "velocity": 79}, {"time": 1092, "pitch": 47, "duration": 8, "velocity": 79}, {"time": 1098, "pitch": 55, "duration": 6, "velocity": 76}, {"time": 1104, "pitch": 59, "duration": 7, "velocity": 86}, {"time": 1110, "pitch": 45, "duration": 16, "velocity": 70}, {"time": 1116, "pitch": 52, "duration": 9, "velocity": 52}, {"time": 1122, "pitch": 64, "duration": 13, "velocity": 88}, {"time": 1134, "pitch": 38, "duration": 37, "velocity": 75}, {"time": 1140, "pitch": 45, "duration": 32, "velocity": 53}, {"time": 1146, "pitch": 50, "duration": 15, "velocity": 72}, {"time": 1152, "pitch": 57, "duration": 16, "velocity": 73}, {"time": 1158, "pitch": 66, "duration": 15, "velocity": 117}, {"time": 1164, "pitch": 50, "duration": 10, "velocity": 71}, {"time": 1170, "pitch": 64, "duration": 7, "velocity": 83}, {"time": 1176, "pitch": 62, "duration": 6, "velocity": 107}, {"time": 1182, "pitch": 43, "duration": 21, "velocity": 74}, {"time": 1185, "pitch": 50, "duration": 21, "velocity": 63}, {"time": 1188, "pitch": 55, "duration": 7, "velocity": 82}, {"time": 1191, "pitch": 59, "duration": 5, "velocity": 76}, {"time": 1194, "pitch": 67, "duration": 14, "velocity": 90}, {"time": 1197, "pitch": 55, "duration": 8, "velocity": 66}, {"time": 1200, "pitch": 62, "duration": 7, "velocity": 74}, {"time": 1203, "pitch": 59, "duration": 4, "velocity": 93}, {"time": 1206, "pitch": 45, "duration": 18, "velocity": 77}, {"time": 1209, "pitch": 52, "duration": 10, "velocity": 63}, {"time": 1212, "pitch": 57, "duration": 5, "velocity": 88}, {"time": 1215, "pitch": 61, "duration": 3, "velocity": 77}, {"time": 1218, "pitch": 64, "duration": 11, "velocity": 92}, {"time": 1221, "pitch": 52, "duration": 2, "velocity": 64}, {"time": 1224, "pitch": 61, "duration": 6, "velocity": 95}, {"time": 1227, "pitch": 57, "duration": 3, "velocity": 75}, {"time": 1230, "pitch": 42, "duration": 17, "velocity": 69}, {"time": 1233, "pitch": 49, "duration": 14, "velocity": 63}, {"time": 1236, "pitch": 54, "duration": 7, "velocity": 82}, {"time": 1239, "pitch": 57, "duration": 5, "velocity": 89}, {"time": 1242, "pitch": 66, "duration": 11, "velocity": 112}, {"time": 1245, "pitch": 54, "duration": 4, "velocity": 85}, {"time": 1248, "pitch": 61, "duration": 4, "velocity": 89}, {"time": 1251, "pitch": 57, "duration": 4, "velocity": 88}, {"time": 1254, "pitch": 47, "duration": 18, "velocity": 65}, {"time": 1257, "pitch": 54, "duration": 10, "velocity": 79}, {"time": 1260, "pitch": 59, "duration": 6, "velocity": 76}, {"time": 1263, "pitch": 62, "duration": 2, "velocity": 62}, {"time": 1266, "pitch": 66, "duration": 9, "velocity": 112}, {"time": 1269, "pitch": 54, "duration": 3, "velocity": 82}, {"time": 1272, "pitch": 62, "duration": 4, "velocity": 99}, {"time": 1275, "pitch": 59, "duration": 5, "velocity": 82}, {"time": 1278, "pitch": 40, "duration": 17, "velocity": 68}, {"time": 1281, "pitch": 47, "duration": 14, "velocity": 63}, {"time": 1284, "pitch": 52, "duration": 7, "velocity": 66}, {"time": 1287, "pitch": 59, "duration": 5, "velocity": 72}, {"time": 1290, "pitch": 67, "duration": 11, "velocity": 102}, {"time": 1293, "pitch": 52, "duration": 3, "velocity": 66}, {"time": 1296, "pitch": 64, "duration": 5, "velocity": 82}, {"time": 1299, "pitch": 59, "duration": 4, "velocity": 82}, {"time": 1302, "pitch": 45, "duration": 20, "velocity": 41}, {"time": 1305, "pitch": 52, "duration": 11, "velocity": 50}, {"time": 1308, "pitch": 57, "duration": 6, "velocity": 92}, {"time": 1311, "pitch": 61, "duration": 3, "velocity": 100}, {"time": 1314, "pitch": 64, "duration": 11, "velocity": 88}, {"time": 1317, "pitch": 52, "duration": 4, "velocity": 75}, {"time": 1320, "pitch": 61, "duration": 4, "velocity": 117}, {"time": 1323, "pitch": 57, "duration": 3, "velocity": 69}, {"time": 1326, "pitch": 38, "duration": 22, "velocity": 83}, {"time": 1329, "pitch": 45, "duration": 21, "velocity": 83}, {"time": 1332, "pitch": 50, "duration": 7, "velocity": 93}, {"time": 1335, "pitch": 57, "duration": 5, "velocity": 86}, {"time": 1338, "pitch": 66, "duration": 17, "velocity": 122}, {"time": 1341, "pitch": 50, "duration": 7, "velocity": 100}, {"time": 1344, "pitch": 57, "duration": 8, "velocity": 86}, {"time": 1347, "pitch": 62, "duration": 7, "velocity": 102}, {"time": 1350, "pitch": 38, "duration": 21, "velocity": 81}, {"time": 1353, "pitch": 45, "duration": 19, "velocity": 86}, {"time": 1356, "pitch": 50, "duration": 16, "velocity": 96}, {"time": 1359, "pitch": 57, "duration": 8, "velocity": 97}, {"time": 1362, "pitch": 60, "duration": 5, "velocity": 107}, {"time": 1365, "pitch": 62, "duration": 4, "velocity": 97}, {"time": 1368, "pitch": 66, "duration": 6, "velocity": 99}, {"time": 1371, "pitch": 62, "duration": 3, "velocity": 85}, {"time": 1374, "pitch": 42, "duration": 22, "velocity": 86}, {"time": 1377, "pitch": 49, "duration": 20, "velocity": 62}, {"time": 1380, "pitch": 54, "duration": 7, "velocity": 67}, {"time": 1383, "pitch": 58, "duration": 4, "velocity": 81}, {"time": 1386, "pitch": 66, "duration": 8, "velocity": 93}, {"time": 1389, "pitch": 54, "duration": 10, "velocity": 67}, {"time": 1392, "pitch": 61, "duration": 4, "velocity": 83}, {"time": 1395, "pitch": 58, "duration": 6, "velocity": 97}, {"time": 1398, "pitch": 42, "duration": 17, "velocity": 72}, {"time": 1401, "pitch": 49, "duration": 14, "velocity": 36}, {"time": 1404, "pitch": 54, "duration": 8, "velocity": 77}, {"time": 1407, "pitch": 58, "duration": 5, "velocity": 82}, {"time": 1410, "pitch": 66, "duration": 8, "velocity": 100}, {"time": 1413, "pitch": 54, "duration": 3, "velocity": 83}, {"time": 1416, "pitch": 61, "duration": 4, "velocity": 97}, {"time": 1419, "pitch": 58, "duration": 3, "velocity": 99}, {"time": 1422, "pitch": 47, "duration": 19, "velocity": 56}, {"time": 1425, "pitch": 54, "duration": 11, "velocity": 78}, {"time": 1428, "pitch": 59, "duration": 6, "velocity": 61}, {"time": 1431, "pitch": 62, "duration": 3, "velocity": 68}, {"time": 1434, "pitch": 66, "duration": 11, "velocity": 122}, {"time": 1437, "pitch": 54, "duration": 3, "velocity": 76}, {"time": 1440, "pitch": 62, "duration": 5, "velocity": 92}, {"time": 1443, "pitch": 59, "duration": 3, "velocity": 86}, {"time": 1446, "pitch": 45, "duration": 19, "velocity": 67}, {"time": 1449, "pitch": 52, "duration": 11, "velocity": 66}, {"time": 1452, "pitch": 57, "duration": 5, "velocity": 72}, {"time": 1455, "pitch": 61, "duration": 3, "velocity": 89}, {"time": 1458, "pitch": 64, "duration": 11, "velocity": 100}, {"time": 1461, "pitch": 52, "duration": 2, "velocity": 59}, {"time": 1464, "pitch": 61, "duration": 5, "velocity": 97}, {"time": 1467, "pitch": 57, "duration": 3, "velocity": 85}, {"time": 1470, "pitch": 40, "duration": 21, "velocity": 73}, {"time": 1473, "pitch": 47, "duration": 20, "velocity": 78}, {"time": 1476, "pitch": 52, "duration": 7, "velocity": 81}, {"time": 1479, "pitch": 55, "duration": 5, "velocity": 73}, {"time": 1482, "pitch": 64, "duration": 17, "velocity": 96}, {"time": 1485, "pitch": 52, "duration": 5, "velocity": 65}, {"time": 1488, "pitch": 59, "duration": 8, "velocity": 74}, {"time": 1491, "pitch": 55, "duration": 5, "velocity": 77}, {"time": 1494, "pitch": 40, "duration": 17, "velocity": 73}, {"time": 1497, "pitch": 47, "duration": 14, "velocity": 71}, {"time": 1500, "pitch": 52, "duration": 7, "velocity": 71}, {"time": 1503, "pitch": 55, "duration": 4, "velocity": 72}, {"time": 1506, "pitch": 64, "duration": 12, "velocity": 99}, {"time": 1509, "pitch": 52, "duration": 4, "velocity": 69}, {"time": 1512, "pitch": 59, "duration": 5, "velocity": 79}, {"time": 1515, "pitch": 55, "duration": 3, "velocity": 81}, {"time": 1518, "pitch": 45, "duration": 22, "velocity": 69}, {"time": 1521, "pitch": 52, "duration": 10, "velocity": 55}, {"time": 1524, "pitch": 57, "duration": 5, "velocity": 71}, {"time": 1527, "pitch": 61, "duration": 3, "velocity": 93}, {"time": 1530, "pitch": 64, "duration": 14, "velocity": 97}, {"time": 1533, "pitch": 52, "duration": 9, "velocity": 92}, {"time": 1536, "pitch": 61, "duration": 7, "velocity": 97}, {"time": 1539, "pitch": 57, "duration": 3, "velocity": 95}, {"time": 1542, "pitch": 45, "duration": 22, "velocity": 78}, {"time": 1545, "pitch": 52, "duration": 10, "velocity": 66}, {"time": 1548, "pitch": 57, "duration": 4, "velocity": 66}, {"time": 1551, "pitch": 61, "duration": 4, "velocity": 99}, {"time": 1554, "pitch": 64, "duration": 12, "velocity": 97}, {"time": 1557, "pitch": 52, "duration": 6, "velocity": 77}, {"time": 1560, "pitch": 61, "duration": 6, "velocity": 95}, {"time": 1563, "pitch": 57, "duration": 3, "velocity": 89}, {"time": 1566, "pitch": 43, "duration": 21, "velocity": 74}, {"time": 1569, "pitch": 50, "duration": 21, "velocity": 63}, {"time": 1572, "pitch": 55, "duration": 7, "velocity": 82}, {"time": 1575, "pitch": 59, "duration": 5, "velocity": 76}, {"time": 1578, "pitch": 67, "duration": 14, "velocity": 90}, {"time": 1581, "pitch": 55, "duration": 8, "velocity": 66}, {"time": 1584, "pitch": 62, "duration": 7, "velocity": 74}, {"time": 1587, "pitch": 59, "duration": 4, "velocity": 93}, {"time": 1590, "pitch": 45, "duration": 18, "velocity": 77}, {"time": 1593, "pitch": 52, "duration": 10, "velocity": 63}, {"time": 1596, "pitch": 57, "duration": 5, "velocity": 88}, {"time": 1599, "pitch": 61, "duration": 3, "velocity": 77}, {"time": 1602, "pitch": 64, "duration": 11, "velocity": 92}, {"time": 1605, "pitch": 52, "duration": 2, "velocity": 64}, {"time": 1608, "pitch": 61, "duration": 6, "velocity": 95}, {"time": 1611, "pitch": 57, "duration": 3, "velocity": 75}, {"time": 1614, "pitch": 42, "duration": 17, "velocity": 69}, {"time": 1617, "pitch": 49, "duration": 14, "velocity": 63}, {"time": 1620, "pitch": 54, "duration": 7, "velocity": 82}, {"time": 1623, "pitch": 57, "duration": 5, "velocity": 89}, {"time": 1626, "pitch": 66, "duration": 11, "velocity": 112}, {"time": 1629, "pitch": 54, "duration": 4, "velocity": 85}, {"time": 1632, "pitch": 61, "duration": 4, "velocity": 89}, {"time": 1635, "pitch": 57, "duration": 4, "velocity": 88}, {"time": 1638, "pitch": 47, "duration": 18, "velocity": 65}, {"time": 1641, "pitch": 54, "duration": 10, "velocity": 79}, {"time": 1644, "pitch": 59, "duration": 6, "velocity": 76}, {"time": 1647, "pitch": 62, "duration": 2, "velocity": 62}, {"time": 1650, "pitch": 66, "duration": 9, "velocity": 112}, {"time": 1653, "pitch": 54, "duration": 3, "velocity": 82}, {"time": 1656, "pitch": 62, "duration": 4, "velocity": 99}, {"time": 1659, "pitch": 59, "duration": 5, "velocity": 82}, {"time": 1662, "pitch": 40, "duration": 17, "velocity": 68}, {"time": 1665, "pitch": 47, "duration": 14, "velocity": 63}, {"time": 1668, "pitch": 52, "duration": 7, "velocity": 66}, {"time": 1671, "pitch": 59, "duration": 5, "velocity": 72}, {"time": 1674, "pitch": 67, "duration": 11, "velocity": 102}, {"time": 1677, "pitch": 52, "duration": 3, "velocity": 66}, {"time": 1680, "pitch": 64, "duration": 5, "velocity": 82}, {"time": 1683, "pitch": 59, "duration": 4, "velocity": 82}, {"time": 1686, "pitch": 45, "duration": 20, "velocity": 41}, {"time": 1689, "pitch": 52, "duration": 11, "velocity": 50}, {"time": 1692, "pitch": 57, "duration": 6, "velocity": 92}, {"time": 1695, "pitch": 61, "duration": 3, "velocity": 100}, {"time": 1698, "pitch": 64, "duration": 11, "velocity": 88}, {"time": 1701, "pitch": 52, "duration": 4, "velocity": 75}, {"time": 1704, "pitch": 61, "duration": 4, "velocity": 117}, {"time": 1707, "pitch": 57, "duration": 3, "velocity": 69}, {"time": 1710, "pitch": 38, "duration": 22, "velocity": 83}, {"time": 1713, "pitch": 45, "duration": 21, "velocity": 83}, {"time": 1716, "pitch": 50, "duration": 7, "velocity": 93}, {"time": 1719, "pitch": 57, "duration": 5, "velocity": 86}, {"time": 1722, "pitch": 66, "duration": 17, "velocity": 122}, {"time": 1725, "pitch": 50, "duration": 7, "velocity": 100}, {"time": 1728, "pitch": 57, "duration": 8, "velocity": 86}, {"time": 1731, "pitch": 62, "duration": 7, "velocity": 102}, {"time": 1734, "pitch": 38, "duration": 21, "velocity": 81}, {"time": 1737, "pitch": 45, "duration": 19, "velocity": 86}, {"time": 1740, "pitch": 50, "duration": 16, "velocity": 96}, {"time": 1743, "pitch": 57, "duration": 8, "velocity": 97}, {"time": 1746, "pitch": 60, "duration": 5, "velocity": 107}, {"time": 1749, "pitch": 62, "duration": 4, "velocity": 97}, {"time": 1752, "pitch": 66, "duration": 6, "velocity": 99}, {"time": 1755, "pitch": 62, "duration": 3, "velocity": 85}, {"time": 1758, "pitch": 42, "duration": 22, "velocity": 86}, {"time": 1761, "pitch": 49, "duration": 20, "velocity": 62}, {"time": 1764, "pitch": 54, "duration": 7, "velocity": 67}, {"time": 1767, "pitch": 58, "duration": 4, "velocity": 81}, {"time": 1770, "pitch": 66, "duration": 8, "velocity": 93}, {"time": 1773, "pitch": 54, "duration": 10, "velocity": 67}, {"time": 1776, "pitch": 61, "duration": 4, "velocity": 83}, {"time": 1779, "pitch": 58, "duration": 6, "velocity": 97}, {"time": 1782, "pitch": 42, "duration": 17, "velocity": 72}, {"time": 1785, "pitch": 49, "duration": 14, "velocity": 36}, {"time": 1788, "pitch": 54, "duration": 8, "velocity": 77}, {"time": 1791, "pitch": 58, "duration": 5, "velocity": 82}, {"time": 1794, "pitch": 66, "duration": 8, "velocity": 100}, {"time": 1797, "pitch": 54, "duration": 3, "velocity": 83}, {"time": 1800, "pitch": 61, "duration": 4, "velocity": 97}, {"time": 1803, "pitch": 58, "duration": 3, "velocity": 99}, {"time": 1806, "pitch": 47, "duration": 19, "velocity": 56}, {"time": 1809, "pitch": 54, "duration": 11, "velocity": 78}, {"time": 1812, "pitch": 59, "duration": 6, "velocity": 61}, {"time": 1815, "pitch": 62, "duration": 3, "velocity": 68}, {"time": 1818, "pitch": 66, "duration": 11, "velocity": 122}, {"time": 1821, "pitch": 54, "duration": 3, "velocity": 76}, {"time": 1824, "pitch": 62, "duration": 5, "velocity": 92}, {"time": 1827, "pitch": 59, "duration": 3, "velocity": 86}, {"time": 1830, "pitch": 45, "duration": 19, "velocity": 67}, {"time": 1833, "pitch": 52, "duration": 11, "velocity": 66}, {"time": 1836, "pitch": 57, "duration": 5, "velocity": 72}, {"time": 1839, "pitch": 61, "duration": 3, "velocity": 89}, {"time": 1842, "pitch": 64, "duration": 11, "velocity": 100}, {"time": 1845, "pitch": 52, "duration": 2, "velocity": 59}, {"time": 1848, "pitch": 61, "duration": 5, "velocity": 97}, {"time": 1851, "pitch": 57, "duration": 3, "velocity": 85}, {"time": 1854, "pitch": 40, "duration": 21, "velocity": 73}, {"time": 1857, "pitch": 47, "duration": 20, "velocity": 78}, {"time": 1860, "pitch": 52, "duration": 7, "velocity": 81}, {"time": 1863, "pitch": 55, "duration": 5, "velocity": 73}, {"time": 1866, "pitch": 64, "duration": 17, "velocity": 96}, {"time": 1869, "pitch": 52, "duration": 5, "velocity": 65}, {"time": 1872, "pitch": 59, "duration": 8, "velocity": 74}, {"time": 1875, "pitch": 55, "duration": 5, "velocity": 77}, {"time": 1878, "pitch": 40, "duration": 17, "velocity": 73}, {"time": 1881, "pitch": 47, "duration": 14, "velocity": 71}, {"time": 1884, "pitch": 52, "duration": 7, "velocity": 71}, {"time": 1887, "pitch": 55, "duration": 4, "velocity": 72}, {"time": 1890, "pitch": 64, "duration": 12, "velocity": 99}, {"time": 1893, "pitch": 52, "duration": 4, "velocity": 69}, {"time": 1896, "pitch": 59, "duration": 5, "velocity": 79}, {"time": 1899, "pitch": 55, "duration": 3, "velocity": 81}, {"time": 1902, "pitch": 45, "duration": 22, "velocity": 69}, {"time": 1905, "pitch": 52, "duration": 10, "velocity": 55}, {"time": 1908, "pitch": 57, "duration": 5, "velocity": 71}, {"time": 1911, "pitch": 61, "duration": 3, "velocity": 93}, {"time": 1914, "pitch": 64, "duration": 14, "velocity": 97}, {"time": 1917, "pitch": 52, "duration": 9, "velocity": 92}, {"time": 1920, "pitch": 61, "duration": 7, "velocity": 97}, {"time": 1923, "pitch": 57, "duration": 3, "velocity": 95}, {"time": 1926, "pitch": 45, "duration": 22, "velocity": 78}, {"time": 1929, "pitch": 52, "duration": 10, "velocity": 66}, {"time": 1932, "pitch": 57, "duration": 4, "velocity": 66}, {"time": 1935, "pitch": 61, "duration": 4, "velocity": 99}, {"time": 1938, "pitch": 64, "duration": 12, "velocity": 97}, {"time": 1941, "pitch": 52, "duration": 6, "velocity": 77}, {"time": 1944, "pitch": 61, "duration": 6, "velocity": 95}, {"time": 1947, "pitch": 57, "duration": 3, "velocity": 89}, {"time": 1950, "pitch": 38, "duration": 47, "velocity": 88}, {"time": 1956, "pitch": 45, "duration": 43, "velocity": 54}, {"time": 1962, "pitch": 50, "duration": 14, "velocity": 86}, {"time": 1968, "pitch": 57, "duration": 13, "velocity": 78}, {"time": 1974, "pitch": 66, "duration": 45, "velocity": 107}, {"time": 1980, "pitch": 50, "duration": 21, "velocity": 69}, {"time": 1986, "pitch": 64, "duration": 19, "velocity": 75}, {"time": 1992, "pitch": 62, "duration": 13, "velocity": 67}, {"time": 1998, "pitch": 38, "duration": 48, "velocity": 78}, {"time": 2004, "pitch": 45, "duration": 41, "velocity": 44}, {"time": 2010, "pitch": 50, "duration": 13, "velocity": 60}, {"time": 2016, "pitch": 57, "duration": 30, "velocity": 53}, {"time": 2022, "pitch": 66, "duration": 24, "velocity": 99}, {"time": 2028, "pitch": 50, "duration": 18, "velocity": 63}, {"time": 2034, "pitch": 64, "duration": 12, "velocity": 65}, {"time": 2040, "pitch": 62, "duration": 6, "velocity": 56}, {"time": 2046, "pitch": 38, "duration": 1, "velocity": 72}, {"time": 2052, "pitch": 45, "duration": 34, "velocity": 57}, {"time": 2058, "pitch": 50, "duration": 14, "velocity": 58}, {"time": 2064, "pitch": 57, "duration": 20, "velocity": 40}, {"time": 2070, "pitch": 66, "duration": 15, "velocity": 93}, {"time": 2076, "pitch": 50, "duration": 11, "velocity": 50}, {"time": 2082, "pitch": 62, "duration": 13, "velocity": 56}, {"time": 2088, "pitch": 66, "duration": 8, "velocity": 72}, {"time": 2094, "pitch": 45, "duration": 38, "velocity": 61}, {"time": 2100, "pitch": 52, "duration": 17, "velocity": 54}, {"time": 2106, "pitch": 57, "duration": 24, "velocity": 50}, {"time": 2112, "pitch": 64, "duration": 31, "velocity": 89}, {"time": 2124, "pitch": 52, "duration": 8, "velocity": 55}, {"time": 2130, "pitch": 61, "duration": 12, "velocity": 99}, {"time": 2136, "pitch": 57, "duration": 7, "velocity": 67}, {"time": 2142, "pitch": 47, "duration": 35, "velocity": 62}, {"time": 2148, "pitch": 54, "duration": 20, "velocity": 58}, {"time": 2154, "pitch": 59, "duration": 10, "velocity": 58}, {"time": 2160, "pitch": 66, "duration": 31, "velocity": 117}, {"time": 2166, "pitch": 59, "duration": 11, "velocity": 66}, {"time": 2172, "pitch": 54, "duration": 5, "velocity": 63}, {"time": 2178, "pitch": 62, "duration": 12, "velocity": 89}, {"time": 2184, "pitch": 59, "duration": 8, "velocity": 78}, {"time": 2190, "pitch": 42, "duration": 38, "velocity": 76}, {"time": 2196, "pitch": 49, "duration": 30, "velocity": 33}, {"time": 2202, "pitch": 54, "duration": 14, "velocity": 72}, {"time": 2208, "pitch": 57, "duration": 15, "velocity": 73}, {"time": 2214, "pitch": 85, "duration": 7, "velocity": 89}, {"time": 2214, "pitch": 66, "duration": 25, "velocity": 80}, {"time": 2220, "pitch": 81, "duration": 7, "velocity": 52}, {"time": 2220, "pitch": 54, "duration": 8, "velocity": 49}, {"time": 2226, "pitch": 78, "duration": 9, "velocity": 58}, {"time": 2226, "pitch": 61, "duration": 12, "velocity": 57}, {"time": 2232, "pitch": 57, "duration": 8, "velocity": 85}, {"time": 2238, "pitch": 43, "duration": 37, "velocity": 72}, {"time": 2244, "pitch": 50, "duration": 30, "velocity": 57}, {"time": 2250, "pitch": 55, "duration": 16, "velocity": 82}, {"time": 2256, "pitch": 59, "duration": 17, "velocity": 68}, {"time": 2262, "pitch": 67, "duration": 25, "velocity": 96}, {"time": 2268, "pitch": 55, "duration": 5, "velocity": 75}, {"time": 2274, "pitch": 62, "duration": 12, "velocity": 96}, {"time": 2280, "pitch": 59, "duration": 7, "velocity": 79}, {"time": 2286, "pitch": 38, "duration": 22, "velocity": 79}, {"time": 2292, "pitch": 45, "duration": 16, "velocity": 61}, {"time": 2298, "pitch": 50, "duration": 11, "velocity": 82}, {"time": 2304, "pitch": 62, "duration": 6, "velocity": 86}, {"time": 2310, "pitch": 51, "duration": 12, "velocity": 92}, {"time": 2316, "pitch": 59, "duration": 21, "velocity": 76}, {"time": 2322, "pitch": 66, "duration": 14, "velocity": 92}, {"time": 2328, "pitch": 63, "duration": 8, "velocity": 58}, {"time": 2334, "pitch": 40, "duration": 37, "velocity": 73}, {"time": 2340, "pitch": 47, "duration": 31, "velocity": 50}, {"time": 2346, "pitch": 52, "duration": 15, "velocity": 74}, {"time": 2352, "pitch": 59, "duration": 20, "velocity": 70}, {"time": 2358, "pitch": 67, "duration": 26, "velocity": 88}, {"time": 2364, "pitch": 52, "duration": 8, "velocity": 61}, {"time": 2370, "pitch": 64, "duration": 13, "velocity": 72}, {"time": 2376, "pitch": 59, "duration": 7, "velocity": 82}, {"time": 2382, "pitch": 45, "duration": 42, "velocity": 78}, {"time": 2388, "pitch": 52, "duration": 36, "velocity": 56}, {"time": 2394, "pitch": 57, "duration": 14, "velocity": 97}, {"time": 2400, "pitch": 61, "duration": 7, "velocity": 112}, {"time": 2406, "pitch": 64, "duration": 24, "velocity": 95}, {"time": 2412, "pitch": 57, "duration": 6, "velocity": 70}, {"time": 2418, "pitch": 61, "duration": 12, "velocity": 93}, {"time": 2424, "pitch": 57, "duration": 6, "velocity": 95}, {"time": 2430, "pitch": 38, "duration": 40, "velocity": 72}, {"time": 2436, "pitch": 45, "duration": 34, "velocity": 57}, {"time": 2442, "pitch": 50, "duration": 14, "velocity": 58}, {"time": 2448, "pitch": 57, "duration": 20, "velocity": 40}, {"time": 2454, "pitch": 66, "duration": 15, "velocity": 93}, {"time": 2460, "pitch": 50, "duration": 11, "velocity": 50}, {"time": 2466, "pitch": 62, "duration": 13, "velocity": 56}, {"time": 2472, "pitch": 66, "duration": 8, "velocity": 72}, {"time": 2478, "pitch": 45, "duration": 38, "velocity": 61}, {"time": 2484, "pitch": 52, "duration": 17, "velocity": 54}, {"time": 2490, "pitch": 57, "duration": 24, "velocity": 50}, {"time": 2496, "pitch": 64, "duration": 31, "velocity": 89}, {"time": 2508, "pitch": 52, "duration": 8, "velocity": 55}, {"time": 2514, "pitch": 61, "duration": 12, "velocity": 99}, {"time": 2520, "pitch": 57, "duration": 7, "velocity": 67}, {"time": 2526, "pitch": 47, "duration": 35, "velocity": 62}, {"time": 2532, "pitch": 54, "duration": 20, "velocity": 58}, {"time": 2538, "pitch": 59, "duration": 10, "velocity": 58}, {"time": 2544, "pitch": 66, "duration": 31, "velocity": 117}, {"time": 2550, "pitch": 59, "duration": 11, "velocity": 66}, {"time": 2556, "pitch": 54, "duration": 5, "velocity": 63}, {"time": 2562, "pitch": 62, "duration": 12, "velocity": 89}, {"time": 2568, "pitch": 59, "duration": 8, "velocity": 78}, {"time": 2574, "pitch": 42, "duration": 38, "velocity": 76}, {"time": 2580, "pitch": 49, "duration": 30, "velocity": 33}, {"time": 2586, "pitch": 54, "duration": 14, "velocity": 72}, {"time": 2592, "pitch": 57, "duration": 15, "velocity": 73}, {"time": 2598, "pitch": 85, "duration": 6, "velocity": 70}, {"time": 2598, "pitch": 66, "duration": 25, "velocity": 70}, {"time": 2604, "pitch": 81, "duration": 6, "velocity": 68}, {"time": 2604, "pitch": 54, "duration": 8, "velocity": 68}, {"time": 2610, "pitch": 78, "duration": 6, "velocity": 58}, {"time": 2610, "pitch": 61, "duration": 12, "velocity": 59}, {"time": 2616, "pitch": 76, "duration": 7, "velocity": 56}, {"time": 2616, "pitch": 57, "duration": 8, "velocity": 56}, {"time": 2622, "pitch": 74, "duration": 11, "velocity": 64}, {"time": 2622, "pitch": 43, "duration": 37, "velocity": 65}, {"time": 2628, "pitch": 50, "duration": 30, "velocity": 57}, {"time": 2634, "pitch": 55, "duration": 16, "velocity": 82}, {"time": 2640, "pitch": 59, "duration": 17, "velocity": 68}, {"time": 2646, "pitch": 67, "duration": 25, "velocity": 96}, {"time": 2652, "pitch": 55, "duration": 5, "velocity": 75}, {"time": 2658, "pitch": 62, "duration": 12, "velocity": 96}, {"time": 2664, "pitch": 59, "duration": 7, "velocity": 79}, {"time": 2670, "pitch": 38, "duration": 22, "velocity": 79}, {"time": 2676, "pitch": 45, "duration": 16, "velocity": 61}, {"time": 2682, "pitch": 50, "duration": 11, "velocity": 82}, {"time": 2688, "pitch": 62, "duration": 6, "velocity": 86}, {"time": 2694, "pitch": 51, "duration": 12, "velocity": 92}, {"time": 2700, "pitch": 59, "duration": 18, "velocity": 76}, {"time": 2706, "pitch": 66, "duration": 12, "velocity": 92}, {"time": 2712, "pitch": 63, "duration": 6, "velocity": 58}, {"time": 2718, "pitch": 40, "duration": 14, "velocity": 79}, {"time": 2724, "pitch": 47, "duration": 8, "velocity": 79}, {"time": 2730, "pitch": 55, "duration": 6, "velocity": 76}, {"time": 2736, "pitch": 59, "duration": 7, "velocity": 86}, {"time": 2742, "pitch": 45, "duration": 16, "velocity": 70}, {"time": 2748, "pitch": 52, "duration": 9, "velocity": 52}, {"time": 2754, "pitch": 64, "duration": 13, "velocity": 88}, {"time": 2766, "pitch": 38, "duration": 37, "velocity": 75}, {"time": 2772, "pitch": 45, "duration": 32, "velocity": 53}, {"time": 2778, "pitch": 50, "duration": 15, "velocity": 72}, {"time": 2784, "pitch": 57, "duration": 16, "velocity": 73}, {"time": 2790, "pitch": 66, "duration": 15, "velocity": 117}, {"time": 2796, "pitch": 50, "duration": 10, "velocity": 71}, {"time": 2802, "pitch": 64, "duration": 7, "velocity": 83}, {"time": 2808, "pitch": 62, "duration": 6, "velocity": 107}, {"time": 2814, "pitch": 43, "duration": 21, "velocity": 74}, {"time": 2817, "pitch": 50, "duration": 21, "velocity": 63}, {"time": 2820, "pitch": 55, "duration": 7, "velocity": 82}, {"time": 2823, "pitch": 59, "duration": 5, "velocity": 76}, {"time": 2826, "pitch": 67, "duration": 14, "velocity": 90}, {"time": 2829, "pitch": 55, "duration": 8, "velocity": 66}, {"time": 2832, "pitch": 62, "duration": 7, "velocity": 74}, {"time": 2835, "pitch": 59, "duration": 4, "velocity": 93}, {"time": 2838, "pitch": 45, "duration": 18, "velocity": 77}, {"time": 2841, "pitch": 52, "duration": 10, "velocity": 63}, {"time": 2844, "pitch": 57, "duration": 5, "velocity": 88}, {"time": 2847, "pitch": 61, "duration": 3, "velocity": 77}, {"time": 2850, "pitch": 64, "duration": 11, "velocity": 92}, {"time": 2853, "pitch": 52, "duration": 2, "velocity": 64}, {"time": 2856, "pitch": 61, "duration": 6, "velocity": 95}, {"time": 2859, "pitch": 57, "duration": 3, "velocity": 75}, {"time": 2862, "pitch": 42, "duration": 17, "velocity": 69}, {"time": 2865, "pitch": 49, "duration": 14, "velocity": 63}, {"time": 2868, "pitch": 54, "duration": 7, "velocity": 82}, {"time": 2871, "pitch": 57, "duration": 5, "velocity": 89}, {"time": 2874, "pitch": 66, "duration": 11, "velocity": 112}, {"time": 2877, "pitch": 54, "duration": 4, "velocity": 85}, {"time": 2880, "pitch": 61, "duration": 4, "velocity": 89}, {"time": 2883, "pitch": 57, "duration": 4, "velocity": 88}, {"time": 2886, "pitch": 47, "duration": 18, "velocity": 65}, {"time": 2889, "pitch": 54, "duration": 10, "velocity": 79}, {"time": 2892, "pitch": 59, "duration": 6, "velocity": 76}, {"time": 2895, "pitch": 62, "duration": 2, "velocity": 62}, {"time": 2898, "pitch": 66, "duration": 9, "velocity": 112}, {"time": 2901, "pitch": 54, "duration": 3, "velocity": 82}, {"time": 2904, "pitch": 62, "duration": 4, "velocity": 99}, {"time": 2907, "pitch": 59, "duration": 5, "velocity": 82}, {"time": 2910, "pitch": 40, "duration": 17, "velocity": 68}, {"time": 2913, "pitch": 47, "duration": 14, "velocity": 63}, {"time": 2916, "pitch": 52, "duration": 7, "velocity": 66}, {"time": 2919, "pitch": 59, "duration": 5, "velocity": 72}, {"time": 2922, "pitch": 67, "duration": 11, "velocity": 102}, {"time": 2925, "pitch": 52, "duration": 3, "velocity": 66}, {"time": 2928, "pitch": 64, "duration": 5, "velocity": 82}, {"time": 2931, "pitch": 59, "duration": 4, "velocity": 82}, {"time": 2934, "pitch": 45, "duration": 20, "velocity": 41}, {"time": 2937, "pitch": 52, "duration": 11, "velocity": 50}, {"time": 2940, "pitch": 57, "duration": 6, "velocity": 92}, {"time": 2943, "pitch": 61, "duration": 3, "velocity": 100}, {"time": 2946, "pitch": 64, "duration": 11, "velocity": 88}, {"time": 2949, "pitch": 52, "duration": 4, "velocity": 75}, {"time": 2952, "pitch": 61, "duration": 4, "velocity": 117}, {"time": 2955, "pitch": 57, "duration": 3, "velocity": 69}, {"time": 2958, "pitch": 38, "duration": 22, "velocity": 83}, {"time": 2961, "pitch": 45, "duration": 21, "velocity": 83}, {"time": 2964, "pitch": 50, "duration": 7, "velocity": 93}, {"time": 2967, "pitch": 57, "duration": 5, "velocity": 86}, {"time": 2970, "pitch": 66, "duration": 17, "velocity": 122}, {"time": 2973, "pitch": 50, "duration": 7, "velocity": 100}, {"time": 2976, "pitch": 57, "duration": 8, "velocity": 86}, {"time": 2979, "pitch": 62, "duration": 7, "velocity": 102}, {"time": 2982, "pitch": 38, "duration": 21, "velocity": 81}, {"time": 2985, "pitch": 45, "duration": 19, "velocity": 86}, {"time": 2988, "pitch": 50, "duration": 16, "velocity": 96}, {"time": 2991, "pitch": 57, "duration": 8, "velocity": 97}, {"time": 2994, "pitch": 60, "duration": 5, "velocity": 107}, {"time": 2997, "pitch": 62, "duration": 4, "velocity": 97}, {"time": 3000, "pitch": 66, "duration": 6, "velocity": 99}, {"time": 3003, "pitch": 62, "duration": 3, "velocity": 85}, {"time": 3006, "pitch": 42, "duration": 22, "velocity": 86}, {"time": 3009, "pitch": 49, "duration": 20, "velocity": 62}, {"time": 3012, "pitch": 54, "duration": 7, "velocity": 67}, {"time": 3015, "pitch": 58, "duration": 4, "velocity": 81}, {"time": 3018, "pitch": 66, "duration": 8, "velocity": 93}, {"time": 3021, "pitch": 54, "duration": 10, "velocity": 67}, {"time": 3024, "pitch": 61, "duration": 4, "velocity": 83}, {"time": 3027, "pitch": 58, "duration": 6, "velocity": 97}, {"time": 3030, "pitch": 42, "duration": 17, "velocity": 72}, {"time": 3033, "pitch": 49, "duration": 14, "velocity": 36}, {"time": 3036, "pitch": 54, "duration": 8, "velocity": 77}, {"time": 3039, "pitch": 58, "duration": 5, "velocity": 82}, {"time": 3042, "pitch": 66, "duration": 8, "velocity": 100}, {"time": 3045, "pitch": 54, "duration": 3, "velocity": 83}, {"time": 3048, "pitch": 61, "duration": 4, "velocity": 97}, {"time": 3051, "pitch": 58, "duration": 3, "velocity": 99}, {"time": 3054, "pitch": 47, "duration": 19, "velocity": 56}, {"time": 3057, "pitch": 54, "duration": 11, "velocity": 78}, {"time": 3060, "pitch": 59, "duration": 6, "velocity": 61}, {"time": 3063, "pitch": 62, "duration": 3, "velocity": 68}, {"time": 3066, "pitch": 66, "duration": 11, "velocity": 122}, {"time": 3069, "pitch": 54, "duration": 3, "velocity": 76}, {"time": 3072, "pitch": 62, "duration": 5, "velocity": 92}, {"time": 3075, "pitch": 59, "duration": 3, "velocity": 86}, {"time": 3078, "pitch": 45, "duration": 19, "velocity": 67}, {"time": 3081, "pitch": 52, "duration": 11, "velocity": 66}, {"time": 3084, "pitch": 57, "duration": 5, "velocity": 72}, {"time": 3087, "pitch": 61, "duration": 3, "velocity": 89}, {"time": 3090, "pitch": 64, "duration": 11, "velocity": 100}, {"time": 3093, "pitch": 52, "duration": 2, "velocity": 59}, {"time": 3096, "pitch": 61, "duration": 5, "velocity": 97}, {"time": 3099, "pitch": 57, "duration": 3, "velocity": 85}, {"time": 3102, "pitch": 40, "duration": 21, "velocity": 73}, {"time": 3105, "pitch": 47, "duration": 20, "velocity": 78}, {"time": 3108, "pitch": 52, "duration": 7, "velocity": 81}, {"time": 3111, "pitch": 55, "duration": 5, "velocity": 73}, {"time": 3114, "pitch": 64, "duration": 17, "velocity": 96}, {"time": 3117, "pitch": 52, "duration": 5, "velocity": 65}, {"time": 3120, "pitch": 59, "duration": 8, "velocity": 74}, {"time": 3123, "pitch": 55, "duration": 5, "velocity": 77}, {"time": 3126, "pitch": 40, "duration": 17, "velocity": 73}, {"time": 3129, "pitch": 47, "duration": 14, "velocity": 71}, {"time": 3132, "pitch": 52, "duration": 7, "velocity": 71}, {"time": 3135, "pitch": 55, "duration": 4, "velocity": 72}, {"time": 3138, "pitch": 64, "duration": 12, "velocity": 99}, {"time": 3141, "pitch": 52, "duration": 4, "velocity": 69}, {"time": 3144, "pitch": 59, "duration": 5, "velocity": 79}, {"time": 3147, "pitch": 55, "duration": 3, "velocity": 81}, {"time": 3150, "pitch": 45, "duration": 22, "velocity": 69}, {"time": 3153, "pitch": 52, "duration": 10, "velocity": 55}, {"time": 3156, "pitch": 57, "duration": 5, "velocity": 71}, {"time": 3159, "pitch": 61, "duration": 3, "velocity": 93}, {"time": 3162, "pitch": 64, "duration": 14, "velocity": 97}, {"time": 3165, "pitch": 52, "duration": 9, "velocity": 92}, {"time": 3168, "pitch": 61, "duration": 7, "velocity": 97}, {"time": 3171, "pitch": 57, "duration": 3, "velocity": 95}, {"time": 3174, "pitch": 45, "duration": 22, "velocity": 78}, {"time": 3177, "pitch": 52, "duration": 10, "velocity": 66}, {"time": 3180, "pitch": 57, "duration": 4, "velocity": 66}, {"time": 3183, "pitch": 61, "duration": 4, "velocity": 99}, {"time": 3186, "pitch": 64, "duration": 12, "velocity": 97}, {"time": 3189, "pitch": 52, "duration": 6, "velocity": 77}, {"time": 3192, "pitch": 61, "duration": 6, "velocity": 95}, {"time": 3195, "pitch": 57, "duration": 3, "velocity": 89}, {"time": 3198, "pitch": 43, "duration": 21, "velocity": 74}, {"time": 3201, "pitch": 50, "duration": 21, "velocity": 63}, {"time": 3204, "pitch": 55, "duration": 7, "velocity": 82}, {"time": 3207, "pitch": 59, "duration": 5, "velocity": 76}, {"time": 3210, "pitch": 67, "duration": 14, "velocity": 90}, {"time": 3213, "pitch": 55, "duration": 8, "velocity": 66}, {"time": 3216, "pitch": 62, "duration": 7, "velocity": 74}, {"time": 3219, "pitch": 59, "duration": 4, "velocity": 93}, {"time": 3222, "pitch": 45, "duration": 18, "velocity": 77}, {"time": 3225, "pitch": 52, "duration": 10, "velocity": 63}, {"time": 3228, "pitch": 57, "duration": 5, "velocity": 88}, {"time": 3231, "pitch": 61, "duration": 3, "velocity": 77}, {"time": 3234, "pitch": 64, "duration": 11, "velocity": 92}, {"time": 3237, "pitch": 52, "duration": 2, "velocity": 64}, {"time": 3240, "pitch": 61, "duration": 6, "velocity": 95}, {"time": 3243, "pitch": 57, "duration": 3, "velocity": 75}, {"time": 3246, "pitch": 42, "duration": 17, "velocity": 69}, {"time": 3249, "pitch": 49, "duration": 14, "velocity": 63}, {"time": 3252, "pitch": 54, "duration": 7, "velocity": 82}, {"time": 3255, "pitch": 57, "duration": 5, "velocity": 89}, {"time": 3258, "pitch": 66, "duration": 11, "velocity": 112}, {"time": 3261, "pitch": 54, "duration": 4, "velocity": 85}, {"time": 3264, "pitch": 61, "duration": 4, "velocity": 89}, {"time": 3267, "pitch": 57, "duration": 4, "velocity": 88}, {"time": 3270, "pitch": 47, "duration": 18, "velocity": 65}, {"time": 3273, "pitch": 54, "duration": 10, "velocity": 79}, {"time": 3276, "pitch": 59, "duration": 6, "velocity": 76}, {"time": 3279, "pitch": 62, "duration": 2, "velocity": 62}, {"time": 3282, "pitch": 66, "duration": 9, "velocity": 112}, {"time": 3285, "pitch": 54, "duration": 3, "velocity": 82}, {"time": 3288, "pitch": 62, "duration": 4, "velocity": 99}, {"time": 3291, "pitch": 59, "duration": 5, "velocity": 82}, {"time": 3294, "pitch": 40, "duration": 17, "velocity": 68}, {"time": 3297, "pitch": 47, "duration": 14, "velocity": 63}, {"time": 3300, "pitch": 52, "duration": 7, "velocity": 66}, {"time": 3303, "pitch": 59, "duration": 5, "velocity": 72}, {"time": 3306, "pitch": 67, "duration": 11, "velocity": 102}, {"time": 3309, "pitch": 52, "duration": 3, "velocity": 66}, {"time": 3312, "pitch": 64, "duration": 5, "velocity": 82}, {"time": 3315, "pitch": 59, "duration": 4, "velocity": 82}, {"time": 3318, "pitch": 45, "duration": 20, "velocity": 41}, {"time": 3321, "pitch": 52, "duration": 11, "velocity": 50}, {"time": 3324, "pitch": 57, "duration": 6, "velocity": 92}, {"time": 3327, "pitch": 61, "duration": 3, "velocity": 100}, {"time": 3330, "pitch": 64, "duration": 11, "velocity": 88}, {"time": 3333, "pitch": 52, "duration": 4, "velocity": 75}, {"time": 3336, "pitch": 61, "duration": 4, "velocity": 117}, {"time": 3339, "pitch": 57, "duration": 3, "velocity": 69}, {"time": 3342, "pitch": 38, "duration": 22, "velocity": 83}, {"time": 3345, "pitch": 45, "duration": 21, "velocity": 83}, {"time": 3348, "pitch": 50, "duration": 7, "velocity": 93}, {"time": 3351, "pitch": 57, "duration": 5, "velocity": 86}, {"time": 3354, "pitch": 66, "duration": 17, "velocity": 122}, {"time": 3357, "pitch": 50, "duration": 7, "velocity": 100}, {"time": 3360, "pitch": 57, "duration": 8, "velocity": 86}, {"time": 3363, "pitch": 62, "duration": 7, "velocity": 102}, {"time": 3366, "pitch": 38, "duration": 21, "velocity": 81}, {"time": 3369, "pitch": 45, "duration": 19, "velocity": 86}, {"time": 3372, "pitch": 50, "duration": 16, "velocity": 96}, {"time": 3375, "pitch": 57, "duration": 8, "velocity": 97}, {"time": 3378, "pitch": 60, "duration": 5, "velocity": 107}, {"time": 3381, "pitch": 62, "duration": 4, "velocity": 97}, {"time": 3384, "pitch": 66, "duration": 6, "velocity": 99}, {"time": 3387, "pitch": 62, "duration": 3, "velocity": 85}, {"time": 3390, "pitch": 42, "duration": 22, "velocity": 86}, {"time": 3393, "pitch": 49, "duration": 20, "velocity": 62}, {"time": 3396, "pitch": 54, "duration": 7, "velocity": 67}, {"time": 3399, "pitch": 58, "duration": 4, "velocity": 81}, {"time": 3402, "pitch": 66, "duration": 8, "velocity": 93}, {"time": 3405, "pitch": 54, "duration": 10, "velocity": 67}, {"time": 3408, "pitch": 61, "duration": 4, "velocity": 83}, {"time": 3411, "pitch": 58, "duration": 6, "velocity": 97}, {"time": 3414, "pitch": 42, "duration": 17, "velocity": 72}, {"time": 3417, "pitch": 49, "duration": 14, "velocity": 36}, {"time": 3420, "pitch": 54, "duration": 8, "velocity": 77}, {"time": 3423, "pitch": 58, "duration": 5, "velocity": 82}, {"time": 3426, "pitch": 66, "duration": 8, "velocity": 100}, {"time": 3429, "pitch": 54, "duration": 3, "velocity": 83}, {"time": 3432, "pitch": 61, "duration": 4, "velocity": 97}, {"time": 3435, "pitch": 58, "duration": 3, "velocity": 99}, {"time": 3438, "pitch": 47, "duration": 19, "velocity": 56}, {"time": 3441, "pitch": 54, "duration": 11, "velocity": 78}, {"time": 3444, "pitch": 59, "duration": 6, "velocity": 61}, {"time": 3447, "pitch": 62, "duration": 3, "velocity": 68}, {"time": 3450, "pitch": 66, "duration": 11, "velocity": 122}, {"time": 3453, "pitch": 54, "duration": 3, "velocity": 76}, {"time": 3456, "pitch": 62, "duration": 5, "velocity": 92}, {"time": 3459, "pitch": 59, "duration": 3, "velocity": 86}, {"time": 3462, "pitch": 45, "duration": 19, "velocity": 67}, {"time": 3465, "pitch": 52, "duration": 11, "velocity": 66}, {"time": 3468, "pitch": 57, "duration": 5, "velocity": 72}, {"time": 3471, "pitch": 61, "duration": 3, "velocity": 89}, {"time": 3474, "pitch": 64, "duration": 11, "velocity": 100}, {"time": 3477, "pitch": 52, "duration": 2, "velocity": 59}, {"time": 3480, "pitch": 61, "duration": 5, "velocity": 97}, {"time": 3483, "pitch": 57, "duration": 3, "velocity": 85}, {"time": 3486, "pitch": 40, "duration": 21, "velocity": 73}, {"time": 3489, "pitch": 47, "duration": 20, "velocity": 78}, {"time": 3492, "pitch": 52, "duration": 7, "velocity": 81}, {"time": 3495, "pitch": 55, "duration": 5, "velocity": 73}, {"time": 3498, "pitch": 64, "duration": 17, "velocity": 96}, {"time": 3501, "pitch": 52, "duration": 5, "velocity": 65}, {"time": 3504, "pitch": 59, "duration": 8, "velocity": 74}, {"time": 3507, "pitch": 55, "duration": 5, "velocity": 77}, {"time": 3510, "pitch": 40, "duration": 17, "velocity": 73}, {"time": 3513, "pitch": 47, "duration": 14, "velocity": 71}, {"time": 3516, "pitch": 52, "duration": 7, "velocity": 71}, {"time": 3519, "pitch": 55, "duration": 4, "velocity": 72}, {"time": 3522, "pitch": 64, "duration": 12, "velocity": 99}, {"time": 3525, "pitch": 52, "duration": 4, "velocity": 69}, {"time": 3528, "pitch": 59, "duration": 5, "velocity": 79}, {"time": 3531, "pitch": 55, "duration": 3, "velocity": 81}, {"time": 3534, "pitch": 45, "duration": 22, "velocity": 69}, {"time": 3537, "pitch": 52, "duration": 10, "velocity": 55}, {"time": 3540, "pitch": 57, "duration": 5, "velocity": 71}, {"time": 3543, "pitch": 61, "duration": 3, "velocity": 93}, {"time": 3546, "pitch": 64, "duration": 14, "velocity": 97}, {"time": 3549, "pitch": 52, "duration": 9, "velocity": 92}, {"time": 3552, "pitch": 61, "duration": 7, "velocity": 97}, {"time": 3555, "pitch": 57, "duration": 3, "velocity": 95}, {"time": 3558, "pitch": 45, "duration": 22, "velocity": 78}, {"time": 3561, "pitch": 52, "duration": 10, "velocity": 66}, {"time": 3564, "pitch": 57, "duration": 4, "velocity": 66}, {"time": 3567, "pitch": 61, "duration": 4, "velocity": 99}, {"time": 3570, "pitch": 64, "duration": 12, "velocity": 97}, {"time": 3573, "pitch": 52, "duration": 6, "velocity": 77}, {"time": 3576, "pitch": 61, "duration": 6, "velocity": 95}, {"time": 3579, "pitch": 57, "duration": 3, "velocity": 89}, {"time": 3582, "pitch": 43, "duration": 21, "velocity": 74}, {"time": 3585, "pitch": 50, "duration": 21, "velocity": 63}, {"time": 3588, "pitch": 55, "duration": 7, "velocity": 82}, {"time": 3591, "pitch": 59, "duration": 5, "velocity": 76}, {"time": 3594, "pitch": 67, "duration": 14, "velocity": 90}, {"time": 3597, "pitch": 55, "duration": 8, "velocity": 66}, {"time": 3600, "pitch": 62, "duration": 7, "velocity": 74}, {"time": 3603, "pitch": 59, "duration": 4, "velocity": 93}, {"time": 3606, "pitch": 45, "duration": 18, "velocity": 77}, {"time": 3609, "pitch": 52, "duration": 10, "velocity": 63}, {"time": 3612, "pitch": 57, "duration": 5, "velocity": 88}, {"time": 3615, "pitch": 61, "duration": 3, "velocity": 77}, {"time": 3618, "pitch": 64, "duration": 11, "velocity": 92}, {"time": 3621, "pitch": 52, "duration": 2, "velocity": 64}, {"time": 3624, "pitch": 61, "duration": 6, "velocity": 95}, {"time": 3627, "pitch": 57, "duration": 3, "velocity": 75}, {"time": 3630, "pitch": 42, "duration": 17, "velocity": 69}, {"time": 3633, "pitch": 49, "duration": 14, "velocity": 63}, {"time": 3636, "pitch": 54, "duration": 7, "velocity": 82}, {"time": 3639, "pitch": 57, "duration": 5, "velocity": 89}, {"time": 3642, "pitch": 66, "duration": 11, "velocity": 112}, {"time": 3645, "pitch": 54, "duration": 4, "velocity": 85}, {"time": 3648, "pitch": 61, "duration": 4, "velocity": 89}, {"time": 3651, "pitch": 57, "duration": 4, "velocity": 88}, {"time": 3654, "pitch": 47, "duration": 18, "velocity": 65}, {"time": 3657, "pitch": 54, "duration": 10, "velocity": 79}, {"time": 3660, "pitch": 59, "duration": 6, "velocity": 76}, {"time": 3663, "pitch": 62, "duration": 2, "velocity": 62}, {"time": 3666, "pitch": 66, "duration": 9, "velocity": 112}, {"time": 3669, "pitch": 54, "duration": 3, "velocity": 82}, {"time": 3672, "pitch": 62, "duration": 4, "velocity": 99}, {"time": 3675, "pitch": 59, "duration": 5, "velocity": 82}, {"time": 3678, "pitch": 40, "duration": 17, "velocity": 68}, {"time": 3681, "pitch": 47, "duration": 14, "velocity": 63}, {"time": 3684, "pitch": 52, "duration": 7, "velocity": 66}, {"time": 3687, "pitch": 59, "duration": 5, "velocity": 72}, {"time": 3690, "pitch": 67, "duration": 11, "velocity": 102}, {"time": 3693, "pitch": 52, "duration": 3, "velocity": 66}, {"time": 3696, "pitch": 64, "duration": 5, "velocity": 82}, {"time": 3699, "pitch": 59, "duration": 4, "velocity": 82}, {"time": 3702, "pitch": 45, "duration": 20, "velocity": 41}, {"time": 3705, "pitch": 52, "duration": 11, "velocity": 50}, {"time": 3708, "pitch": 57, "duration": 6, "velocity": 92}, {"time": 3711, "pitch": 61, "duration": 3, "velocity": 100}, {"time": 3714, "pitch": 64, "duration": 11, "velocity": 88}, {"time": 3717, "pitch": 52, "duration": 4, "velocity": 75}, {"time": 3720, "pitch": 61, "duration": 4, "velocity": 117}, {"time": 3723, "pitch": 57, "duration": 3, "velocity": 69}, {"time": 3726, "pitch": 38, "duration": 22, "velocity": 83}, {"time": 3729, "pitch": 45, "duration": 21, "velocity": 83}, {"time": 3732, "pitch": 50, "duration": 7, "velocity": 93}, {"time": 3735, "pitch": 57, "duration": 5, "velocity": 86}, {"time": 3738, "pitch": 66, "duration": 17, "velocity": 122}, {"time": 3741, "pitch": 50, "duration": 7, "velocity": 100}, {"time": 3744, "pitch": 57, "duration": 8, "velocity": 86}, {"time": 3747, "pitch": 62, "duration": 7, "velocity": 102}, {"time": 3750, "pitch": 38, "duration": 21, "velocity": 81}, {"time": 3753, "pitch": 45, "duration": 19, "velocity": 86}, {"time": 3756, "pitch": 50, "duration": 16, "velocity": 96}, {"time": 3759, "pitch": 57, "duration": 8, "velocity": 97}, {"time": 3762, "pitch": 60, "duration": 5, "velocity": 107}, {"time": 3765, "pitch": 62, "duration": 4, "velocity": 97}, {"time": 3768, "pitch": 66, "duration": 6, "velocity": 99}, {"time": 3771, "pitch": 62, "duration": 3, "velocity": 85}, {"time": 3774, "pitch": 42, "duration": 22, "velocity": 86}, {"time": 3777, "pitch": 49, "duration": 20, "velocity": 62}, {"time": 3780, "pitch": 54, "duration": 7, "velocity": 67}, {"time": 3783, "pitch": 58, "duration": 4, "velocity": 81}, {"time": 3786, "pitch": 66, "duration": 8, "velocity": 93}, {"time": 3789, "pitch": 54, "duration": 10, "velocity": 67}, {"time": 3792, "pitch": 61, "duration": 4, "velocity": 83}, {"time": 3795, "pitch": 58, "duration": 6, "velocity": 97}, {"time": 3798, "pitch": 42, "duration": 17, "velocity": 72}, {"time": 3801, "pitch": 49, "duration": 14, "velocity": 36}, {"time": 3804, "pitch": 54, "duration": 8, "velocity": 77}, {"time": 3807, "pitch": 58, "duration": 5, "velocity": 82}, {"time": 3810, "pitch": 66, "duration": 8, "velocity": 100}, {"time": 3813, "pitch": 54, "duration": 3, "velocity": 83}, {"time": 3816, "pitch": 61, "duration": 4, "velocity": 97}, {"time": 3819, "pitch": 58, "duration": 3, "velocity": 99}, {"time": 3822, "pitch": 47, "duration": 19, "velocity": 56}, {"time": 3825, "pitch": 54, "duration": 11, "velocity": 78}, {"time": 3828, "pitch": 59, "duration": 6, "velocity": 61}, {"time": 3831, "pitch": 62, "duration": 3, "velocity": 68}, {"time": 3834, "pitch": 66, "duration": 11, "velocity": 122}, {"time": 3837, "pitch": 54, "duration": 3, "velocity": 76}, {"time": 3840, "pitch": 62, "duration": 5, "velocity": 92}, {"time": 3843, "pitch": 59, "duration": 3, "velocity": 86}, {"time": 3846, "pitch": 45, "duration": 19, "velocity": 67}, {"time": 3849, "pitch": 52, "duration": 11, "velocity": 66}, {"time": 3852, "pitch": 57, "duration": 5, "velocity": 72}, {"time": 3855, "pitch": 61, "duration": 3, "velocity": 89}, {"time": 3858, "pitch": 64, "duration": 11, "velocity": 100}, {"time": 3861, "pitch": 52, "duration": 2, "velocity": 59}, {"time": 3864, "pitch": 61, "duration": 5, "velocity": 97}, {"time": 3867, "pitch": 57, "duration": 3, "velocity": 85}, {"time": 3870, "pitch": 40, "duration": 21, "velocity": 73}, {"time": 3873, "pitch": 47, "duration": 20, "velocity": 78}, {"time": 3876, "pitch": 52, "duration": 7, "velocity": 81}, {"time": 3879, "pitch": 55, "duration": 5, "velocity": 73}, {"time": 3882, "pitch": 64, "duration": 17, "velocity": 96}, {"time": 3885, "pitch": 52, "duration": 5, "velocity": 65}, {"time": 3888, "pitch": 59, "duration": 8, "velocity": 74}, {"time": 3891, "pitch": 55, "duration": 5, "velocity": 77}, {"time": 3894, "pitch": 40, "duration": 17, "velocity": 73}, {"time": 3897, "pitch": 47, "duration": 14, "velocity": 71}, {"time": 3900, "pitch": 52, "duration": 7, "velocity": 71}, {"time": 3903, "pitch": 55, "duration": 4, "velocity": 72}, {"time": 3906, "pitch": 64, "duration": 12, "velocity": 99}, {"time": 3909, "pitch": 52, "duration": 4, "velocity": 69}, {"time": 3912, "pitch": 59, "duration": 5, "velocity": 79}, {"time": 3915, "pitch": 55, "duration": 3, "velocity": 81}, {"time": 3918, "pitch": 45, "duration": 22, "velocity": 69}, {"time": 3921, "pitch": 52, "duration": 10, "velocity": 55}, {"time": 3924, "pitch": 57, "duration": 5, "velocity": 71}, {"time": 3927, "pitch": 61, "duration": 3, "velocity": 93}, {"time": 3930, "pitch": 64, "duration": 14, "velocity": 97}, {"time": 3933, "pitch": 52, "duration": 9, "velocity": 92}, {"time": 3936, "pitch": 61, "duration": 7, "velocity": 97}, {"time": 3939, "pitch": 57, "duration": 3, "velocity": 95}, {"time": 3942, "pitch": 45, "duration": 22, "velocity": 78}, {"time": 3945, "pitch": 52, "duration": 10, "velocity": 66}, {"time": 3948, "pitch": 57, "duration": 4, "velocity": 66}, {"time": 3951, "pitch": 61, "duration": 4, "velocity": 99}, {"time": 3954, "pitch": 64, "duration": 12, "velocity": 97}, {"time": 3957, "pitch": 52, "duration": 6, "velocity": 77}, {"time": 3960, "pitch": 61, "duration": 6, "velocity": 95}, {"time": 3963, "pitch": 57, "duration": 3, "velocity": 89}, {"time": 3966, "pitch": 43, "duration": 21, "velocity": 74}, {"time": 3969, "pitch": 50, "duration": 21, "velocity": 63}, {"time": 3972, "pitch": 55, "duration": 7, "velocity": 82}, {"time": 3975, "pitch": 59, "duration": 5, "velocity": 76}, {"time": 3978, "pitch": 67, "duration": 14, "velocity": 90}, {"time": 3981, "pitch": 55, "duration": 8, "velocity": 66}, {"time": 3984, "pitch": 62, "duration": 7, "velocity": 74}, {"time": 3987, "pitch": 59, "duration": 4, "velocity": 93}, {"time": 3990, "pitch": 45, "duration": 18, "velocity": 77}, {"time": 3993, "pitch": 52, "duration": 10, "velocity": 63}, {"time": 3996, "pitch": 57, "duration": 5, "velocity": 88}, {"time": 3999, "pitch": 61, "duration": 3, "velocity": 77}, {"time": 4002, "pitch": 64, "duration": 11, "velocity": 92}, {"time": 4005, "pitch": 52, "duration": 2, "velocity": 64}, {"time": 4008, "pitch": 61, "duration": 6, "velocity": 95}, {"time": 4011, "pitch": 57, "duration": 3, "velocity": 75}, {"time": 4014, "pitch": 42, "duration": 17, "velocity": 69}, {"time": 4017, "pitch": 49, "duration": 14, "velocity": 63}, {"time": 4020, "pitch": 54, "duration": 7, "velocity": 82}, {"time": 4023, "pitch": 57, "duration": 5, "velocity": 89}, {"time": 4026, "pitch": 66, "duration": 11, "velocity": 112}, {"time": 4029, "pitch": 54, "duration": 4, "velocity": 85}, {"time": 4032, "pitch": 61, "duration": 4, "velocity": 89}, {"time": 4035, "pitch": 57, "duration": 4, "velocity": 88}, {"time": 4038, "pitch": 47, "duration": 18, "velocity": 65}, {"time": 4041, "pitch": 54, "duration": 10, "velocity": 79}, {"time": 4044, "pitch": 59, "duration": 6, "velocity": 76}, {"time": 4047, "pitch": 62, "duration": 2, "velocity": 62}, {"time": 4050, "pitch": 66, "duration": 9, "velocity": 112}, {"time": 4053, "pitch": 54, "duration": 3, "velocity": 82}, {"time": 4056, "pitch": 62, "duration": 4, "velocity": 99}, {"time": 4059, "pitch": 59, "duration": 5, "velocity": 82}, {"time": 4062, "pitch": 40, "duration": 17, "velocity": 68}, {"time": 4065, "pitch": 47, "duration": 14, "velocity": 63}, {"time": 4068, "pitch": 52, "duration": 7, "velocity": 66}, {"time": 4071, "pitch": 59, "duration": 5, "velocity": 72}, {"time": 4074, "pitch": 67, "duration": 11, "velocity": 102}, {"time": 4077, "pitch": 52, "duration": 3, "velocity": 66}, {"time": 4080, "pitch": 64, "duration": 5, "velocity": 82}, {"time": 4083, "pitch": 59, "duration": 4, "velocity": 82}, {"time": 4086, "pitch": 45, "duration": 20, "velocity": 41}, {"time": 4089, "pitch": 52, "duration": 11, "velocity": 50}, {"time": 4092, "pitch": 57, "duration": 6, "velocity": 92}, {"time": 4095, "pitch": 61, "duration": 3, "velocity": 100}, {"time": 4098, "pitch": 64, "duration": 11, "velocity": 88}, {"time": 4101, "pitch": 52, "duration": 4, "velocity": 75}, {"time": 4104, "pitch": 61, "duration": 4, "velocity": 117}, {"time": 4107, "pitch": 57, "duration": 3, "velocity": 69}, {"time": 4110, "pitch": 38, "duration": 22, "velocity": 83}, {"time": 4113, "pitch": 45, "duration": 21, "velocity": 83}, {"time": 4116, "pitch": 50, "duration": 7, "velocity": 93}, {"time": 4119, "pitch": 57, "duration": 5, "velocity": 86}, {"time": 4122, "pitch": 66, "duration": 17, "velocity": 122}, {"time": 4125, "pitch": 50, "duration": 7, "velocity": 100}, {"time": 4128, "pitch": 57, "duration": 8, "velocity": 86}, {"time": 4131, "pitch": 62, "duration": 7, "velocity": 102}, {"time": 4134, "pitch": 38, "duration": 21, "velocity": 81}, {"time": 4137, "pitch": 45, "duration": 19, "velocity": 86}, {"time": 4140, "pitch": 50, "duration": 16, "velocity": 96}, {"time": 4143, "pitch": 57, "duration": 8, "velocity": 97}, {"time": 4146, "pitch": 60, "duration": 5, "velocity": 107}, {"time": 4149, "pitch": 62, "duration": 4, "velocity": 97}, {"time": 4152, "pitch": 66, "duration": 6, "velocity": 99}, {"time": 4155, "pitch": 62, "duration": 3, "velocity": 85}, {"time": 4158, "pitch": 42, "duration": 22, "velocity": 86}, {"time": 4161, "pitch": 49, "duration": 20, "velocity": 62}, {"time": 4164, "pitch": 54, "duration": 7, "velocity": 67}, {"time": 4167, "pitch": 58, "duration": 4, "velocity": 81}, {"time": 4170, "pitch": 66, "duration": 8, "velocity": 93}, {"time": 4173, "pitch": 54, "duration": 10, "velocity": 67}, {"time": 4176, "pitch": 61, "duration": 4, "velocity": 83}, {"time": 4179, "pitch": 58, "duration": 6, "velocity": 97}, {"time": 4182, "pitch": 42, "duration": 17, "velocity": 72}, {"time": 4185, "pitch": 49, "duration": 14, "velocity": 36}, {"time": 4188, "pitch": 54, "duration": 8, "velocity": 77}, {"time": 4191, "pitch": 58, "duration": 5, "velocity": 82}, {"time": 4194, "pitch": 66, "duration": 8, "velocity": 100}, {"time": 4197, "pitch": 54, "duration": 3, "velocity": 83}, {"time": 4200, "pitch": 61, "duration": 4, "velocity": 97}, {"time": 4203, "pitch": 58, "duration": 3, "velocity": 99}, {"time": 4206, "pitch": 47, "duration": 19, "velocity": 56}, {"time": 4209, "pitch": 54, "duration": 11, "velocity": 78}, {"time": 4212, "pitch": 59, "duration": 6, "velocity": 61}, {"time": 4215, "pitch": 62, "duration": 3, "velocity": 68}, {"time": 4218, "pitch": 66, "duration": 11, "velocity": 122}, {"time": 4221, "pitch": 54, "duration": 3, "velocity": 76}, {"time": 4224, "pitch": 62, "duration": 5, "velocity": 92}, {"time": 4227, "pitch": 59, "duration": 3, "velocity": 86}, {"time": 4230, "pitch": 45, "duration": 19, "velocity": 67}, {"time": 4233, "pitch": 52, "duration": 11, "velocity": 66}, {"time": 4236, "pitch": 57, "duration": 5, "velocity": 72}, {"time": 4239, "pitch": 61, "duration": 3, "velocity": 89}, {"time": 4242, "pitch": 64, "duration": 11, "velocity": 100}, {"time": 4245, "pitch": 52, "duration": 2, "velocity": 59}, {"time": 4248, "pitch": 61, "duration": 5, "velocity": 97}, {"time": 4251, "pitch": 57, "duration": 3, "velocity": 85}, {"time": 4254, "pitch": 40, "duration": 38, "velocity": 92}, {"time": 4260, "pitch": 47, "duration": 32, "velocity": 60}, {"time": 4266, "pitch": 52, "duration": 26, "velocity": 76}, {"time": 4272, "pitch": 59, "duration": 31, "velocity": 70}, {"time": 4272, "pitch": 64, "duration": 30, "velocity": 69}, {"time": 4272, "pitch": 67, "duration": 30, "velocity": 75}, {"time": 4302, "pitch": 45, "duration": 44, "velocity": 88}, {"time": 4308, "pitch": 52, "duration": 37, "velocity": 56}, {"time": 4314, "pitch": 57, "duration": 21, "velocity": 47}, {"time": 4320, "pitch": 61, "duration": 28, "velocity": 78}, {"time": 4320, "pitch": 64, "duration": 28, "velocity": 78}, {"time": 4338, "pitch": 57, "duration": 10, "velocity": 71}, {"time": 4351, "pitch": 38, "duration": 33, "velocity": 85}, {"time": 4357, "pitch": 45, "duration": 28, "velocity": 42}, {"time": 4363, "pitch": 50, "duration": 24, "velocity": 74}, {"time": 4368, "pitch": 57, "duration": 22, "velocity": 60}, {"time": 4374, "pitch": 66, "duration": 19, "velocity": 97}, {"time": 4386, "pitch": 62, "duration": 7, "velocity": 88}, {"time": 4400, "pitch": 43, "duration": 31, "velocity": 82}, {"time": 4400, "pitch": 59, "duration": 24, "velocity": 79}, {"time": 4400, "pitch": 62, "duration": 23, "velocity": 85}, {"time": 4407, "pitch": 50, "duration": 26, "velocity": 56}, {"time": 4415, "pitch": 55, "duration": 11, "velocity": 79}, {"time": 4423, "pitch": 67, "duration": 1, "velocity": 82}, {"time": 4432, "pitch": 58, "duration": 7, "velocity": 90}, {"time": 4432, "pitch": 62, "duration": 8, "velocity": 88}, {"time": 4432, "pitch": 43, "duration": 36, "velocity": 88}, {"time": 4440, "pitch": 50, "duration": 26, "velocity": 40}, {"time": 4447, "pitch": 55, "duration": 15, "velocity": 52}, {"time": 4448, "pitch": 70, "duration": 32, "velocity": 75}, {"time": 4456, "pitch": 67, "duration": 10, "velocity": 64}, {"time": 4464, "pitch": 74, "duration": 15, "velocity": 82}, {"time": 4471, "pitch": 40, "duration": 1, "velocity": 38}, {"time": 4476, "pitch": 38, "duration": 74, "velocity": 86}, {"time": 4481, "pitch": 45, "duration": 68, "velocity": 39}, {"time": 4485, "pitch": 50, "duration": 64, "velocity": 73}, {"time": 4489, "pitch": 54, "duration": 5, "velocity": 48}, {"time": 4494, "pitch": 57, "duration": 1, "velocity": 61}, {"time": 4498, "pitch": 62, "duration": 6, "velocity": 77}, {"time": 4501, "pitch": 66, "duration": 5, "velocity": 54}, {"time": 4506, "pitch": 69, "duration": 1, "velocity": 58}, {"time": 4510, "pitch": 74, "duration": 19, "velocity": 58}, {"time": 4515, "pitch": 78, "duration": 14, "velocity": 55}, {"time": 4520, "pitch": 81, "duration": 10, "velocity": 57}, {"time": 4528, "pitch": 86, "duration": 3, "velocity": 53}, {"time": 4539, "pitch": 86, "duration": 15, "velocity": 33}, {"time": 4540, "pitch": 90, "duration": 14, "velocity": 37}, {"time": 4542, "pitch": 93, "duration": 12, "velocity": 35}, {"time": 4545, "pitch": 98, "duration": 9, "velocity": 46}], "annotations": [{"time": 30, "annotation": {"number": 64, "value": 127}, "group": "control_change"}, {"time": 75, "annotation": {"number": 64, "value": 0}, "group": "control_change"}, {"time": 78, "annotation": {"number": 64, "value": 127}, "group": "control_change"}, {"time": 122, "annotation": {"number": 64, "value": 0}, "group": "control_change"}, {"time": 127, "annotation": {"number": 64, "value": 127}, "group": "control_change"}, {"time": 172, "annotation": {"number": 64, "value": 0}, "group": "control_change"}, {"time": 175, "annotation": {"number": 64, "value": 127}, "group": "control_change"}, {"time": 175, "annotation": {"number": 64, "value": 0}, "group": "control_change"}, {"time": 176, "annotation": {"number": 64, "value": 127}, "group": "control_change"}, {"time": 218, "annotation": {"number": 64, "value": 0}, "group": "control_change"}, {"time": 222, "annotation": {"number": 64, "value": 127}, "group": "control_change"}, {"time": 267, "annotation": {"number": 64, "value": 0}, "group": "control_change"}, {"time": 270, "annotation": {"number": 64, "value": 127}, "group": "control_change"}, {"time": 291, "annotation": {"number": 64, "value": 0}, "group": "control_change"}, {"time": 294, "annotation": {"number": 64, "value": 127}, "group": "control_change"}, {"time": 315, "annotation": {"number": 64, "value": 0}, "group": "control_change"}, {"time": 318, "annotation": {"number": 64, "value": 127}, "group": "control_change"}, {"time": 339, "annotation": {"number": 64, "value": 0}, "group": "control_change"}, {"time": 342, "annotation": {"number": 64, "value": 127}, "group": "control_change"}, {"time": 363, "annotation": {"number": 64, "value": 0}, "group": "control_change"}, {"time": 366, "annotation": {"number": 64, "value": 127}, "group": "control_change"}, {"time": 410, "annotation": {"number": 64, "value": 0}, "group": "control_change"}, {"time": 414, "annotation": {"number": 64, "value": 127}, "group": "control_change"}, {"time": 459, "annotation": {"number": 64, "value": 0}, "group": "control_change"}, {"time": 462, "annotation": {"number": 64, "value": 127}, "group": "control_change"}, {"time": 604, "annotation": {"number": 64, "value": 0}, "group": "control_change"}, {"time": 606, "annotation": {"number": 64, "value": 127}, "group": "control_change"}, {"time": 652, "annotation": {"number": 64, "value": 0}, "group": "control_change"}, {"time": 655, "annotation": {"number": 64, "value": 127}, "group": "control_change"}, {"time": 678, "annotation": {"number": 64, "value": 127}, "group": "control_change"}, {"time": 680, "annotation": {"number": 64, "value": 0}, "group": "control_change"}, {"time": 699, "annotation": {"number": 64, "value": 0}, "group": "control_change"}, {"time": 702, "annotation": {"number": 64, "value": 127}, "group": "control_change"}, {"time": 746, "annotation": {"number": 64, "value": 0}, "group": "control_change"}, {"time": 751, "annotation": {"number": 64, "value": 127}, "group": "control_change"}, {"time": 796, "annotation": {"number": 64, "value": 0}, "group": "control_change"}, {"time": 798, "annotation": {"number": 64, "value": 127}, "group": "control_change"}, {"time": 843, "annotation": {"number": 64, "value": 0}, "group": "control_change"}, {"time": 846, "annotation": {"number": 64, "value": 127}, "group": "control_change"}, {"time": 988, "annotation": {"number": 64, "value": 0}, "group": "control_change"}, {"time": 990, "annotation": {"number": 64, "value": 127}, "group": "control_change"}, {"time": 1036, "annotation": {"number": 64, "value": 0}, "group": "control_change"}, {"time": 1039, "annotation": {"number": 64, "value": 127}, "group": "control_change"}, {"time": 1062, "annotation": {"number": 64, "value": 127}, "group": "control_change"}, {"time": 1064, "annotation": {"number": 64, "value": 0}, "group": "control_change"}, {"time": 1083, "annotation": {"number": 64, "value": 0}, "group": "control_change"}, {"time": 1088, "annotation": {"number": 64, "value": 127}, "group": "control_change"}, {"time": 1108, "annotation": {"number": 64, "value": 0}, "group": "control_change"}, {"time": 1111, "annotation": {"number": 64, "value": 127}, "group": "control_change"}, {"time": 1131, "annotation": {"number": 64, "value": 0}, "group": "control_change"}, {"time": 1134, "annotation": {"number": 64, "value": 127}, "group": "control_change"}, {"time": 1180, "annotation": {"number": 64, "value": 0}, "group": "control_change"}, {"time": 1182, "annotation": {"number": 64, "value": 127}, "group": "control_change"}, {"time": 1206, "annotation": {"number": 64, "value": 0}, "group": "control_change"}, {"time": 1210, "annotation": {"number": 64, "value": 127}, "group": "control_change"}, {"time": 1228, "annotation": {"number": 64, "value": 0}, "group": "control_change"}, {"time": 1230, "annotation": {"number": 64, "value": 127}, "group": "control_change"}, {"time": 1252, "annotation": {"number": 64, "value": 0}, "group": "control_change"}, {"time": 1255, "annotation": {"number": 64, "value": 127}, "group": "control_change"}, {"time": 1276, "annotation": {"number": 64, "value": 0}, "group": "control_change"}, {"time": 1279, "annotation": {"number": 64, "value": 127}, "group": "control_change"}, {"time": 1300, "annotation": {"number": 64, "value": 0}, "group": "control_change"}, {"time": 1303, "annotation": {"number": 64, "value": 127}, "group": "control_change"}, {"time": 1323, "annotation": {"number": 64, "value": 0}, "group": "control_change"}, {"time": 1327, "annotation": {"number": 64, "value": 127}, "group": "control_change"}, {"time": 1347, "annotation": {"number": 64, "value": 0}, "group": "control_change"}, {"time": 1350, "annotation": {"number": 64, "value": 127}, "group": "control_change"}, {"time": 1373, "annotation": {"number": 64, "value": 0}, "group": "control_change"}, {"time": 1374, "annotation": {"number": 64, "value": 127}, "group": "control_change"}, {"time": 1395, "annotation": {"number": 64, "value": 0}, "group": "control_change"}, {"time": 1398, "annotation": {"number": 64, "value": 127}, "group": "control_change"}, {"time": 1419, "annotation": {"number": 64, "value": 0}, "group": "control_change"}, {"time": 1422, "annotation": {"number": 64, "value": 127}, "group": "control_change"}, {"time": 1443, "annotation": {"number": 64, "value": 0}, "group": "control_change"}, {"time": 1446, "annotation": {"number": 64, "value": 127}, "group": "control_change"}, {"time": 1468, "annotation": {"number": 64, "value": 0}, "group": "control_change"}, {"time": 1472, "annotation": {"number": 64, "value": 127}, "group": "control_change"}, {"time": 1491, "annotation": {"number": 64, "value": 0}, "group": "control_change"}, {"time": 1495, "annotation": {"number": 64, "value": 127}, "group": "control_change"}, {"time": 1515, "annotation": {"number": 64, "value": 0}, "group": "control_change"}, {"time": 1519, "annotation": {"number": 64, "value": 127}, "group": "control_change"}, {"time": 1543, "annotation": {"number": 64, "value": 0}, "group": "control_change"}, {"time": 1544, "annotation": {"number": 64, "value": 127}, "group": "control_change"}, {"time": 1565, "annotation": {"number": 64, "value": 0}, "group": "control_change"}, {"time": 1566, "annotation": {"number": 64, "value": 127}, "group": "control_change"}, {"time": 1590, "annotation": {"number": 64, "value": 0}, "group": "control_change"}, {"time": 1594, "annotation": {"number": 64, "value": 127}, "group": "control_change"}, {"time": 1612, "annotation": {"number": 64, "value": 0}, "group": "control_change"}, {"time": 1614, "annotation": {"number": 64, "value": 127}, "group": "control_change"}, {"time": 1636, "annotation": {"number": 64, "value": 0}, "group": "control_change"}, {"time": 1639, "annotation": {"number": 64, "value": 127}, "group": "control_change"}, {"time": 1660, "annotation": {"number": 64, "value": 0}, "group": "control_change"}, {"time": 1663, "annotation": {"number": 64, "value": 127}, "group": "control_change"}, {"time": 1684, "annotation": {"number": 64, "value": 0}, "group": "control_change"}, {"time": 1687, "annotation": {"number": 64, "value": 127}, "group": "control_change"}, {"time": 1707, "annotation": {"number": 64, "value": 0}, "group": "control_change"}, {"time": 1711, "annotation": {"number": 64, "value": 127}, "group": "control_change"}, {"time": 1731, "annotation": {"number": 64, "value": 0}, "group": "control_change"}, {"time": 1734, "annotation": {"number": 64, "value": 127}, "group": "control_change"}, {"time": 1757, "annotation": {"number": 64, "value": 0}, "group": "control_change"}, {"time": 1758, "annotation": {"number": 64, "value": 127}, "group": "control_change"}, {"time": 1779, "annotation": {"number": 64, "value": 0}, "group": "control_change"}, {"time": 1782, "annotation": {"number": 64, "value": 127}, "group": "control_change"}, {"time": 1803, "annotation": {"number": 64, "value": 0}, "group": "control_change"}, {"time": 1806, "annotation": {"number": 64, "value": 127}, "group": "control_change"}, {"time": 1827, "annotation": {"number": 64, "value": 0}, "group": "control_change"}, {"time": 1830, "annotation": {"number": 64, "value": 127}, "group": "control_change"}, {"time": 1852, "annotation": {"number": 64, "value": 0}, "group": "control_change"}, {"time": 1856, "annotation": {"number": 64, "value": 127}, "group": "control_change"}, {"time": 1875, "annotation": {"number": 64, "value": 0}, "group": "control_change"}, {"time": 1879, "annotation": {"number": 64, "value": 127}, "group": "control_change"}, {"time": 1899, "annotation": {"number": 64, "value": 0}, "group": "control_change"}, {"time": 1903, "annotation": {"number": 64, "value": 127}, "group": "control_change"}, {"time": 1927, "annotation": {"number": 64, "value": 0}, "group": "control_change"}, {"time": 1928, "annotation": {"number": 64, "value": 127}, "group": "control_change"}, {"time": 1949, "annotation": {"number": 64, "value": 0}, "group": "control_change"}, {"time": 1950, "annotation": {"number": 64, "value": 127}, "group": "control_change"}, {"time": 1995, "annotation": {"number": 64, "value": 0}, "group": "control_change"}, {"time": 1999, "annotation": {"number": 64, "value": 127}, "group": "control_change"}, {"time": 2043, "annotation": {"number": 64, "value": 0}, "group": "control_change"}, {"time": 2046, "annotation": {"number": 64, "value": 127}, "group": "control_change"}, {"time": 2091, "annotation": {"number": 64, "value": 0}, "group": "control_change"}, {"time": 2094, "annotation": {"number": 64, "value": 127}, "group": "control_change"}, {"time": 2236, "annotation": {"number": 64, "value": 0}, "group": "control_change"}, {"time": 2238, "annotation": {"number": 64, "value": 127}, "group": "control_change"}, {"time": 2284, "annotation": {"number": 64, "value": 0}, "group": "control_change"}, {"time": 2287, "annotation": {"number": 64, "value": 127}, "group": "control_change"}, {"time": 2310, "annotation": {"number": 64, "value": 127}, "group": "control_change"}, {"time": 2312, "annotation": {"number": 64, "value": 0}, "group": "control_change"}, {"time": 2331, "annotation": {"number": 64, "value": 0}, "group": "control_change"}, {"time": 2334, "annotation": {"number": 64, "value": 127}, "group": "control_change"}, {"time": 2378, "annotation": {"number": 64, "value": 0}, "group": "control_change"}, {"time": 2383, "annotation": {"number": 64, "value": 127}, "group": "control_change"}, {"time": 2428, "annotation": {"number": 64, "value": 0}, "group": "control_change"}, {"time": 2430, "annotation": {"number": 64, "value": 127}, "group": "control_change"}, {"time": 2475, "annotation": {"number": 64, "value": 0}, "group": "control_change"}, {"time": 2478, "annotation": {"number": 64, "value": 127}, "group": "control_change"}, {"time": 2620, "annotation": {"number": 64, "value": 0}, "group": "control_change"}, {"time": 2622, "annotation": {"number": 64, "value": 127}, "group": "control_change"}, {"time": 2668, "annotation": {"number": 64, "value": 0}, "group": "control_change"}, {"time": 2671, "annotation": {"number": 64, "value": 127}, "group": "control_change"}, {"time": 2694, "annotation": {"number": 64, "value": 127}, "group": "control_change"}, {"time": 2696, "annotation": {"number": 64, "value": 0}, "group": "control_change"}, {"time": 2715, "annotation": {"number": 64, "value": 0}, "group": "control_change"}, {"time": 2720, "annotation": {"number": 64, "value": 127}, "group": "control_change"}, {"time": 2740, "annotation": {"number": 64, "value": 0}, "group": "control_change"}, {"time": 2743, "annotation": {"number": 64, "value": 127}, "group": "control_change"}, {"time": 2763, "annotation": {"number": 64, "value": 0}, "group": "control_change"}, {"time": 2766, "annotation": {"number": 64, "value": 127}, "group": "control_change"}, {"time": 2812, "annotation": {"number": 64, "value": 0}, "group": "control_change"}, {"time": 2814, "annotation": {"number": 64, "value": 127}, "group": "control_change"}, {"time": 2838, "annotation": {"number": 64, "value": 0}, "group": "control_change"}, {"time": 2842, "annotation": {"number": 64, "value": 127}, "group": "control_change"}, {"time": 2860, "annotation": {"number": 64, "value": 0}, "group": "control_change"}, {"time": 2862, "annotation": {"number": 64, "value": 127}, "group": "control_change"}, {"time": 2884, "annotation": {"number": 64, "value": 0}, "group": "control_change"}, {"time": 2887, "annotation": {"number": 64, "value": 127}, "group": "control_change"}, {"time": 2908, "annotation": {"number": 64, "value": 0}, "group": "control_change"}, {"time": 2911, "annotation": {"number": 64, "value": 127}, "group": "control_change"}, {"time": 2932, "annotation": {"number": 64, "value": 0}, "group": "control_change"}, {"time": 2935, "annotation": {"number": 64, "value": 127}, "group": "control_change"}, {"time": 2955, "annotation": {"number": 64, "value": 0}, "group": "control_change"}, {"time": 2959, "annotation": {"number": 64, "value": 127}, "group": "control_change"}, {"time": 2979, "annotation": {"number": 64, "value": 0}, "group": "control_change"}, {"time": 2982, "annotation": {"number": 64, "value": 127}, "group": "control_change"}, {"time": 3005, "annotation": {"number": 64, "value": 0}, "group": "control_change"}, {"time": 3006, "annotation": {"number": 64, "value": 127}, "group": "control_change"}, {"time": 3027, "annotation": {"number": 64, "value": 0}, "group": "control_change"}, {"time": 3030, "annotation": {"number": 64, "value": 127}, "group": "control_change"}, {"time": 3051, "annotation": {"number": 64, "value": 0}, "group": "control_change"}, {"time": 3054, "annotation": {"number": 64, "value": 127}, "group": "control_change"}, {"time": 3075, "annotation": {"number": 64, "value": 0}, "group": "control_change"}, {"time": 3078, "annotation": {"number": 64, "value": 127}, "group": "control_change"}, {"time": 3100, "annotation": {"number": 64, "value": 0}, "group": "control_change"}, {"time": 3104, "annotation": {"number": 64, "value": 127}, "group": "control_change"}, {"time": 3123, "annotation": {"number": 64, "value": 0}, "group": "control_change"}, {"time": 3127, "annotation": {"number": 64, "value": 127}, "group": "control_change"}, {"time": 3147, "annotation": {"number": 64, "value": 0}, "group": "control_change"}, {"time": 3151, "annotation": {"number": 64, "value": 127}, "group": "control_change"}, {"time": 3175, "annotation": {"number": 64, "value": 0}, "group": "control_change"}, {"time": 3176, "annotation": {"number": 64, "value": 127}, "group": "control_change"}, {"time": 3197, "annotation": {"number": 64, "value": 0}, "group": "control_change"}, {"time": 3198, "annotation": {"number": 64, "value": 127}, "group": "control_change"}, {"time": 3222, "annotation": {"number": 64, "value": 0}, "group": "control_change"}, {"time": 3226, "annotation": {"number": 64, "value": 127}, "group": "control_change"}, {"time": 3244, "annotation": {"number": 64, "value": 0}, "group": "control_change"}, {"time": 3246, "annotation": {"number": 64, "value": 127}, "group": "control_change"}, {"time": 3268, "annotation": {"number": 64, "value": 0}, "group": "control_change"}, {"time": 3271, "annotation": {"number": 64, "value": 127}, "group": "control_change"}, {"time": 3292, "annotation": {"number": 64, "value": 0}, "group": "control_change"}, {"time": 3295, "annotation": {"number": 64, "value": 127}, "group": "control_change"}, {"time": 3316, "annotation": {"number": 64, "value": 0}, "group": "control_change"}, {"time": 3319, "annotation": {"number": 64, "value": 127}, "group": "control_change"}, {"time": 3339, "annotation": {"number": 64, "value": 0}, "group": "control_change"}, {"time": 3343, "annotation": {"number": 64, "value": 127}, "group": "control_change"}, {"time": 3363, "annotation": {"number": 64, "value": 0}, "group": "control_change"}, {"time": 3366, "annotation": {"number": 64, "value": 127}, "group": "control_change"}, {"time": 3389, "annotation": {"number": 64, "value": 0}, "group": "control_change"}, {"time": 3390, "annotation": {"number": 64, "value": 127}, "group": "control_change"}, {"time": 3411, "annotation": {"number": 64, "value": 0}, "group": "control_change"}, {"time": 3414, "annotation": {"number": 64, "value": 127}, "group": "control_change"}, {"time": 3435, "annotation": {"number": 64, "value": 0}, "group": "control_change"}, {"time": 3438, "annotation": {"number": 64, "value": 127}, "group": "control_change"}, {"time": 3459, "annotation": {"number": 64, "value": 0}, "group": "control_change"}, {"time": 3462, "annotation": {"number": 64, "value": 127}, "group": "control_change"}, {"time": 3484, "annotation": {"number": 64, "value": 0}, "group": "control_change"}, {"time": 3488, "annotation": {"number": 64, "value": 127}, "group": "control_change"}, {"time": 3507, "annotation": {"number": 64, "value": 0}, "group": "control_change"}, {"time": 3511, "annotation": {"number": 64, "value": 127}, "group": "control_change"}, {"time": 3531, "annotation": {"number": 64, "value": 0}, "group": "control_change"}, {"time": 3535, "annotation": {"number": 64, "value": 127}, "group": "control_change"}, {"time": 3559, "annotation": {"number": 64, "value": 0}, "group": "control_change"}, {"time": 3560, "annotation": {"number": 64, "value": 127}, "group": "control_change"}, {"time": 3581, "annotation": {"number": 64, "value": 0}, "group": "control_change"}, {"time": 3582, "annotation": {"number": 64, "value": 127}, "group": "control_change"}, {"time": 3606, "annotation": {"number": 64, "value": 0}, "group": "control_change"}, {"time": 3610, "annotation": {"number": 64, "value": 127}, "group": "control_change"}, {"time": 3628, "annotation": {"number": 64, "value": 0}, "group": "control_change"}, {"time": 3630, "annotation": {"number": 64, "value": 127}, "group": "control_change"}, {"time": 3652, "annotation": {"number": 64, "value": 0}, "group": "control_change"}, {"time": 3655, "annotation": {"number": 64, "value": 127}, "group": "control_change"}, {"time": 3676, "annotation": {"number": 64, "value": 0}, "group": "control_change"}, {"time": 3679, "annotation": {"number": 64, "value": 127}, "group": "control_change"}, {"time": 3700, "annotation": {"number": 64, "value": 0}, "group": "control_change"}, {"time": 3703, "annotation": {"number": 64, "value": 127}, "group": "control_change"}, {"time": 3723, "annotation": {"number": 64, "value": 0}, "group": "control_change"}, {"time": 3727, "annotation": {"number": 64, "value": 127}, "group": "control_change"}, {"time": 3747, "annotation": {"number": 64, "value": 0}, "group": "control_change"}, {"time": 3750, "annotation": {"number": 64, "value": 127}, "group": "control_change"}, {"time": 3773, "annotation": {"number": 64, "value": 0}, "group": "control_change"}, {"time": 3774, "annotation": {"number": 64, "value": 127}, "group": "control_change"}, {"time": 3795, "annotation": {"number": 64, "value": 0}, "group": "control_change"}, {"time": 3798, "annotation": {"number": 64, "value": 127}, "group": "control_change"}, {"time": 3819, "annotation": {"number": 64, "value": 0}, "group": "control_change"}, {"time": 3822, "annotation": {"number": 64, "value": 127}, "group": "control_change"}, {"time": 3843, "annotation": {"number": 64, "value": 0}, "group": "control_change"}, {"time": 3846, "annotation": {"number": 64, "value": 127}, "group": "control_change"}, {"time": 3868, "annotation": {"number": 64, "value": 0}, "group": "control_change"}, {"time": 3872, "annotation": {"number": 64, "value": 127}, "group": "control_change"}, {"time": 3891, "annotation": {"number": 64, "value": 0}, "group": "control_change"}, {"time": 3895, "annotation": {"number": 64, "value": 127}, "group": "control_change"}, {"time": 3915, "annotation": {"number": 64, "value": 0}, "group": "control_change"}, {"time": 3919, "annotation": {"number": 64, "value": 127}, "group": "control_change"}, {"time": 3943, "annotation": {"number": 64, "value": 0}, "group": "control_change"}, {"time": 3944, "annotation": {"number": 64, "value": 127}, "group": "control_change"}, {"time": 3965, "annotation": {"number": 64, "value": 0}, "group": "control_change"}, {"time": 3966, "annotation": {"number": 64, "value": 127}, "group": "control_change"}, {"time": 3990, "annotation": {"number": 64, "value": 0}, "group": "control_change"}, {"time": 3994, "annotation": {"number": 64, "value": 127}, "group": "control_change"}, {"time": 4012, "annotation": {"number": 64, "value": 0}, "group": "control_change"}, {"time": 4014, "annotation": {"number": 64, "value": 127}, "group": "control_change"}, {"time": 4036, "annotation": {"number": 64, "value": 0}, "group": "control_change"}, {"time": 4039, "annotation": {"number": 64, "value": 127}, "group": "control_change"}, {"time": 4060, "annotation": {"number": 64, "value": 0}, "group": "control_change"}, {"time": 4063, "annotation": {"number": 64, "value": 127}, "group": "control_change"}, {"time": 4084, "annotation": {"number": 64, "value": 0}, "group": "control_change"}, {"time": 4087, "annotation": {"number": 64, "value": 127}, "group": "control_change"}, {"time": 4107, "annotation": {"number": 64, "value": 0}, "group": "control_change"}, {"time": 4111, "annotation": {"number": 64, "value": 127}, "group": "control_change"}, {"time": 4131, "annotation": {"number": 64, "value": 0}, "group": "control_change"}, {"time": 4134, "annotation": {"number": 64, "value": 127}, "group": "control_change"}, {"time": 4157, "annotation": {"number": 64, "value": 0}, "group": "control_change"}, {"time": 4158, "annotation": {"number": 64, "value": 127}, "group": "control_change"}, {"time": 4179, "annotation": {"number": 64, "value": 0}, "group": "control_change"}, {"time": 4182, "annotation": {"number": 64, "value": 127}, "group": "control_change"}, {"time": 4203, "annotation": {"number": 64, "value": 0}, "group": "control_change"}, {"time": 4206, "annotation": {"number": 64, "value": 127}, "group": "control_change"}, {"time": 4227, "annotation": {"number": 64, "value": 0}, "group": "control_change"}, {"time": 4230, "annotation": {"number": 64, "value": 127}, "group": "control_change"}, {"time": 4252, "annotation": {"number": 64, "value": 0}, "group": "control_change"}, {"time": 4255, "annotation": {"number": 64, "value": 127}, "group": "control_change"}, {"time": 4299, "annotation": {"number": 64, "value": 0}, "group": "control_change"}, {"time": 4303, "annotation": {"number": 64, "value": 127}, "group": "control_change"}, {"time": 4346, "annotation": {"number": 64, "value": 0}, "group": "control_change"}, {"time": 4352, "annotation": {"number": 64, "value": 127}, "group": "control_change"}, {"time": 4397, "annotation": {"number": 64, "value": 0}, "group": "control_change"}, {"time": 4403, "annotation": {"number": 64, "value": 127}, "group": "control_change"}, {"time": 4435, "annotation": {"number": 64, "value": 0}, "group": "control_change"}, {"time": 4436, "annotation": {"number": 64, "value": 127}, "group": "control_change"}]}]}