{"metadata": {"schema_version": "0.2", "title": "None", "source_filename": "771.mid", "source_format": "midi"}, "resolution": 12, "tempos": [{"time": 0, "qpm": 88.00002346667293}], "key_signatures": [{"time": 0, "root": 0, "mode": "major"}], "time_signatures": [{"time": 0, "numerator": 1, "denominator": 4}], "tracks": [{"program": 4, "is_drum": false, "name": "MELODY", "notes": [{"time": 212, "pitch": 65, "duration": 3, "velocity": 107}, {"time": 218, "pitch": 65, "duration": 3, "velocity": 86}, {"time": 224, "pitch": 65, "duration": 3, "velocity": 100}, {"time": 230, "pitch": 65, "duration": 3, "velocity": 89}, {"time": 236, "pitch": 65, "duration": 4, "velocity": 102}, {"time": 242, "pitch": 66, "duration": 18, "velocity": 112}, {"time": 266, "pitch": 66, "duration": 3, "velocity": 112}, {"time": 272, "pitch": 66, "duration": 6, "velocity": 102}, {"time": 284, "pitch": 66, "duration": 3, "velocity": 112}, {"time": 290, "pitch": 68, "duration": 6, "velocity": 99}, {"time": 302, "pitch": 65, "duration": 10, "velocity": 97}, {"time": 314, "pitch": 65, "duration": 3, "velocity": 99}, {"time": 320, "pitch": 65, "duration": 8, "velocity": 112}, {"time": 332, "pitch": 66, "duration": 4, "velocity": 96}, {"time": 338, "pitch": 68, "duration": 7, "velocity": 112}, {"time": 350, "pitch": 63, "duration": 11, "velocity": 97}, {"time": 404, "pitch": 65, "duration": 4, "velocity": 93}, {"time": 410, "pitch": 65, "duration": 3, "velocity": 86}, {"time": 416, "pitch": 65, "duration": 3, "velocity": 93}, {"time": 422, "pitch": 65, "duration": 3, "velocity": 86}, {"time": 428, "pitch": 65, "duration": 3, "velocity": 96}, {"time": 434, "pitch": 66, "duration": 14, "velocity": 102}, {"time": 458, "pitch": 66, "duration": 3, "velocity": 107}, {"time": 464, "pitch": 66, "duration": 7, "velocity": 102}, {"time": 476, "pitch": 66, "duration": 4, "velocity": 107}, {"time": 482, "pitch": 68, "duration": 8, "velocity": 99}, {"time": 494, "pitch": 65, "duration": 10, "velocity": 100}, {"time": 506, "pitch": 58, "duration": 1, "velocity": 102}, {"time": 512, "pitch": 65, "duration": 8, "velocity": 99}, {"time": 524, "pitch": 65, "duration": 4, "velocity": 96}, {"time": 530, "pitch": 68, "duration": 8, "velocity": 127}, {"time": 542, "pitch": 63, "duration": 19, "velocity": 100}, {"time": 596, "pitch": 73, "duration": 5, "velocity": 122}, {"time": 602, "pitch": 70, "duration": 2, "velocity": 102}, {"time": 608, "pitch": 70, "duration": 4, "velocity": 102}, {"time": 614, "pitch": 68, "duration": 5, "velocity": 122}, {"time": 620, "pitch": 65, "duration": 6, "velocity": 90}, {"time": 626, "pitch": 68, "duration": 8, "velocity": 97}, {"time": 644, "pitch": 73, "duration": 5, "velocity": 117}, {"time": 650, "pitch": 70, "duration": 2, "velocity": 95}, {"time": 656, "pitch": 70, "duration": 4, "velocity": 99}, {"time": 662, "pitch": 68, "duration": 4, "velocity": 93}, {"time": 668, "pitch": 65, "duration": 6, "velocity": 90}, {"time": 674, "pitch": 68, "duration": 8, "velocity": 96}, {"time": 692, "pitch": 73, "duration": 4, "velocity": 112}, {"time": 698, "pitch": 70, "duration": 2, "velocity": 117}, {"time": 704, "pitch": 70, "duration": 5, "velocity": 96}, {"time": 710, "pitch": 68, "duration": 2, "velocity": 92}, {"time": 716, "pitch": 65, "duration": 4, "velocity": 95}, {"time": 722, "pitch": 63, "duration": 6, "velocity": 93}, {"time": 725, "pitch": 65, "duration": 3, "velocity": 88}, {"time": 728, "pitch": 63, "duration": 22, "velocity": 99}, {"time": 788, "pitch": 73, "duration": 5, "velocity": 122}, {"time": 794, "pitch": 70, "duration": 2, "velocity": 102}, {"time": 800, "pitch": 70, "duration": 4, "velocity": 102}, {"time": 806, "pitch": 68, "duration": 5, "velocity": 122}, {"time": 812, "pitch": 65, "duration": 6, "velocity": 90}, {"time": 818, "pitch": 68, "duration": 8, "velocity": 97}, {"time": 836, "pitch": 73, "duration": 5, "velocity": 117}, {"time": 842, "pitch": 70, "duration": 2, "velocity": 95}, {"time": 848, "pitch": 70, "duration": 4, "velocity": 99}, {"time": 854, "pitch": 68, "duration": 4, "velocity": 93}, {"time": 860, "pitch": 65, "duration": 6, "velocity": 90}, {"time": 866, "pitch": 68, "duration": 8, "velocity": 96}, {"time": 884, "pitch": 73, "duration": 4, "velocity": 112}, {"time": 890, "pitch": 70, "duration": 2, "velocity": 117}, {"time": 896, "pitch": 70, "duration": 5, "velocity": 96}, {"time": 902, "pitch": 68, "duration": 2, "velocity": 92}, {"time": 908, "pitch": 65, "duration": 4, "velocity": 95}, {"time": 914, "pitch": 63, "duration": 6, "velocity": 93}, {"time": 917, "pitch": 65, "duration": 3, "velocity": 107}, {"time": 920, "pitch": 63, "duration": 27, "velocity": 100}, {"time": 986, "pitch": 68, "duration": 5, "velocity": 107}, {"time": 992, "pitch": 77, "duration": 5, "velocity": 117}, {"time": 998, "pitch": 75, "duration": 5, "velocity": 127}, {"time": 1004, "pitch": 73, "duration": 3, "velocity": 112}, {"time": 1010, "pitch": 73, "duration": 16, "velocity": 112}, {"time": 1034, "pitch": 68, "duration": 4, "velocity": 102}, {"time": 1040, "pitch": 77, "duration": 4, "velocity": 122}, {"time": 1046, "pitch": 75, "duration": 4, "velocity": 117}, {"time": 1052, "pitch": 73, "duration": 3, "velocity": 107}, {"time": 1058, "pitch": 75, "duration": 10, "velocity": 122}, {"time": 1070, "pitch": 72, "duration": 4, "velocity": 127}, {"time": 1082, "pitch": 68, "duration": 2, "velocity": 96}, {"time": 1088, "pitch": 77, "duration": 6, "velocity": 97}, {"time": 1094, "pitch": 75, "duration": 5, "velocity": 100}, {"time": 1100, "pitch": 73, "duration": 2, "velocity": 85}, {"time": 1106, "pitch": 73, "duration": 9, "velocity": 117}, {"time": 1118, "pitch": 70, "duration": 3, "velocity": 112}, {"time": 1124, "pitch": 73, "duration": 2, "velocity": 117}, {"time": 1130, "pitch": 70, "duration": 2, "velocity": 97}, {"time": 1136, "pitch": 73, "duration": 3, "velocity": 112}, {"time": 1142, "pitch": 70, "duration": 3, "velocity": 102}, {"time": 1148, "pitch": 73, "duration": 3, "velocity": 122}, {"time": 1154, "pitch": 75, "duration": 3, "velocity": 100}, {"time": 1160, "pitch": 77, "duration": 9, "velocity": 122}, {"time": 1166, "pitch": 75, "duration": 5, "velocity": 117}, {"time": 1172, "pitch": 73, "duration": 2, "velocity": 117}, {"time": 1178, "pitch": 73, "duration": 6, "velocity": 112}, {"time": 1190, "pitch": 77, "duration": 3, "velocity": 107}, {"time": 1196, "pitch": 78, "duration": 4, "velocity": 117}, {"time": 1202, "pitch": 77, "duration": 7, "velocity": 112}, {"time": 1214, "pitch": 73, "duration": 5, "velocity": 100}, {"time": 1220, "pitch": 73, "duration": 2, "velocity": 117}, {"time": 1226, "pitch": 73, "duration": 2, "velocity": 107}, {"time": 1232, "pitch": 73, "duration": 4, "velocity": 122}, {"time": 1238, "pitch": 75, "duration": 3, "velocity": 107}, {"time": 1250, "pitch": 77, "duration": 8, "velocity": 122}, {"time": 1262, "pitch": 78, "duration": 3, "velocity": 122}, {"time": 1268, "pitch": 77, "duration": 3, "velocity": 112}, {"time": 1274, "pitch": 75, "duration": 3, "velocity": 102}, {"time": 1280, "pitch": 73, "duration": 7, "velocity": 112}, {"time": 1292, "pitch": 70, "duration": 4, "velocity": 99}, {"time": 1298, "pitch": 73, "duration": 4, "velocity": 117}, {"time": 1310, "pitch": 70, "duration": 2, "velocity": 102}, {"time": 1316, "pitch": 73, "duration": 2, "velocity": 127}, {"time": 1322, "pitch": 70, "duration": 2, "velocity": 95}, {"time": 1328, "pitch": 73, "duration": 3, "velocity": 117}, {"time": 1334, "pitch": 75, "duration": 3, "velocity": 107}, {"time": 1340, "pitch": 77, "duration": 3, "velocity": 117}, {"time": 1346, "pitch": 75, "duration": 10, "velocity": 127}, {"time": 1370, "pitch": 68, "duration": 4, "velocity": 102}, {"time": 1376, "pitch": 77, "duration": 5, "velocity": 117}, {"time": 1382, "pitch": 75, "duration": 5, "velocity": 127}, {"time": 1388, "pitch": 73, "duration": 3, "velocity": 112}, {"time": 1394, "pitch": 73, "duration": 16, "velocity": 112}, {"time": 1418, "pitch": 68, "duration": 4, "velocity": 102}, {"time": 1424, "pitch": 77, "duration": 4, "velocity": 122}, {"time": 1430, "pitch": 75, "duration": 4, "velocity": 117}, {"time": 1436, "pitch": 73, "duration": 3, "velocity": 107}, {"time": 1442, "pitch": 75, "duration": 10, "velocity": 122}, {"time": 1454, "pitch": 72, "duration": 4, "velocity": 127}, {"time": 1466, "pitch": 68, "duration": 2, "velocity": 96}, {"time": 1472, "pitch": 77, "duration": 6, "velocity": 97}, {"time": 1478, "pitch": 75, "duration": 5, "velocity": 100}, {"time": 1484, "pitch": 73, "duration": 2, "velocity": 85}, {"time": 1490, "pitch": 73, "duration": 9, "velocity": 117}, {"time": 1502, "pitch": 70, "duration": 3, "velocity": 112}, {"time": 1508, "pitch": 73, "duration": 2, "velocity": 117}, {"time": 1514, "pitch": 70, "duration": 2, "velocity": 97}, {"time": 1520, "pitch": 73, "duration": 3, "velocity": 112}, {"time": 1526, "pitch": 70, "duration": 3, "velocity": 102}, {"time": 1532, "pitch": 73, "duration": 3, "velocity": 122}, {"time": 1538, "pitch": 75, "duration": 3, "velocity": 100}, {"time": 1544, "pitch": 77, "duration": 9, "velocity": 122}, {"time": 1550, "pitch": 75, "duration": 5, "velocity": 117}, {"time": 1556, "pitch": 73, "duration": 2, "velocity": 117}, {"time": 1562, "pitch": 73, "duration": 6, "velocity": 112}, {"time": 1574, "pitch": 77, "duration": 3, "velocity": 107}, {"time": 1580, "pitch": 78, "duration": 4, "velocity": 117}, {"time": 1586, "pitch": 77, "duration": 7, "velocity": 112}, {"time": 1598, "pitch": 73, "duration": 5, "velocity": 100}, {"time": 1604, "pitch": 73, "duration": 2, "velocity": 117}, {"time": 1610, "pitch": 73, "duration": 2, "velocity": 107}, {"time": 1616, "pitch": 73, "duration": 4, "velocity": 122}, {"time": 1622, "pitch": 75, "duration": 3, "velocity": 107}, {"time": 1634, "pitch": 77, "duration": 8, "velocity": 122}, {"time": 1646, "pitch": 78, "duration": 3, "velocity": 122}, {"time": 1652, "pitch": 77, "duration": 3, "velocity": 112}, {"time": 1658, "pitch": 75, "duration": 3, "velocity": 102}, {"time": 1664, "pitch": 73, "duration": 7, "velocity": 112}, {"time": 1676, "pitch": 70, "duration": 4, "velocity": 99}, {"time": 1682, "pitch": 73, "duration": 4, "velocity": 117}, {"time": 1694, "pitch": 70, "duration": 2, "velocity": 102}, {"time": 1700, "pitch": 73, "duration": 2, "velocity": 127}, {"time": 1706, "pitch": 70, "duration": 2, "velocity": 95}, {"time": 1712, "pitch": 73, "duration": 3, "velocity": 117}, {"time": 1718, "pitch": 75, "duration": 3, "velocity": 107}, {"time": 1724, "pitch": 77, "duration": 3, "velocity": 117}, {"time": 1730, "pitch": 75, "duration": 10, "velocity": 127}, {"time": 1754, "pitch": 68, "duration": 5, "velocity": 102}, {"time": 1760, "pitch": 77, "duration": 5, "velocity": 112}, {"time": 1766, "pitch": 75, "duration": 5, "velocity": 117}, {"time": 1772, "pitch": 73, "duration": 3, "velocity": 99}, {"time": 1778, "pitch": 73, "duration": 34, "velocity": 117}, {"time": 2234, "pitch": 68, "duration": 5, "velocity": 107}, {"time": 2240, "pitch": 77, "duration": 5, "velocity": 117}, {"time": 2246, "pitch": 75, "duration": 5, "velocity": 127}, {"time": 2252, "pitch": 73, "duration": 3, "velocity": 112}, {"time": 2258, "pitch": 73, "duration": 16, "velocity": 112}, {"time": 2282, "pitch": 68, "duration": 4, "velocity": 102}, {"time": 2288, "pitch": 77, "duration": 4, "velocity": 122}, {"time": 2294, "pitch": 75, "duration": 4, "velocity": 117}, {"time": 2300, "pitch": 73, "duration": 3, "velocity": 107}, {"time": 2306, "pitch": 75, "duration": 10, "velocity": 122}, {"time": 2318, "pitch": 72, "duration": 4, "velocity": 127}, {"time": 2330, "pitch": 68, "duration": 2, "velocity": 96}, {"time": 2336, "pitch": 77, "duration": 6, "velocity": 97}, {"time": 2342, "pitch": 75, "duration": 5, "velocity": 100}, {"time": 2348, "pitch": 73, "duration": 2, "velocity": 85}, {"time": 2354, "pitch": 73, "duration": 9, "velocity": 117}, {"time": 2366, "pitch": 70, "duration": 3, "velocity": 112}, {"time": 2372, "pitch": 73, "duration": 2, "velocity": 117}, {"time": 2378, "pitch": 70, "duration": 2, "velocity": 97}, {"time": 2384, "pitch": 73, "duration": 3, "velocity": 112}, {"time": 2390, "pitch": 70, "duration": 3, "velocity": 102}, {"time": 2396, "pitch": 73, "duration": 3, "velocity": 122}, {"time": 2402, "pitch": 75, "duration": 3, "velocity": 100}, {"time": 2408, "pitch": 77, "duration": 9, "velocity": 122}, {"time": 2414, "pitch": 75, "duration": 5, "velocity": 117}, {"time": 2420, "pitch": 73, "duration": 2, "velocity": 117}, {"time": 2426, "pitch": 73, "duration": 6, "velocity": 112}, {"time": 2438, "pitch": 77, "duration": 3, "velocity": 107}, {"time": 2444, "pitch": 78, "duration": 4, "velocity": 117}, {"time": 2450, "pitch": 77, "duration": 7, "velocity": 112}, {"time": 2462, "pitch": 73, "duration": 5, "velocity": 100}, {"time": 2468, "pitch": 73, "duration": 2, "velocity": 117}, {"time": 2474, "pitch": 73, "duration": 2, "velocity": 107}, {"time": 2480, "pitch": 73, "duration": 4, "velocity": 122}, {"time": 2486, "pitch": 75, "duration": 3, "velocity": 107}, {"time": 2498, "pitch": 77, "duration": 8, "velocity": 122}, {"time": 2510, "pitch": 78, "duration": 3, "velocity": 122}, {"time": 2516, "pitch": 77, "duration": 3, "velocity": 112}, {"time": 2522, "pitch": 75, "duration": 3, "velocity": 102}, {"time": 2528, "pitch": 73, "duration": 7, "velocity": 112}, {"time": 2540, "pitch": 70, "duration": 4, "velocity": 99}, {"time": 2546, "pitch": 73, "duration": 4, "velocity": 117}, {"time": 2558, "pitch": 70, "duration": 2, "velocity": 102}, {"time": 2564, "pitch": 73, "duration": 2, "velocity": 127}, {"time": 2570, "pitch": 70, "duration": 2, "velocity": 95}, {"time": 2576, "pitch": 73, "duration": 3, "velocity": 117}, {"time": 2582, "pitch": 75, "duration": 3, "velocity": 107}, {"time": 2588, "pitch": 77, "duration": 3, "velocity": 117}, {"time": 2594, "pitch": 75, "duration": 34, "velocity": 127}, {"time": 2648, "pitch": 76, "duration": 13, "velocity": 127}, {"time": 2666, "pitch": 69, "duration": 4, "velocity": 102}, {"time": 2672, "pitch": 78, "duration": 5, "velocity": 117}, {"time": 2678, "pitch": 76, "duration": 5, "velocity": 127}, {"time": 2684, "pitch": 74, "duration": 3, "velocity": 112}, {"time": 2690, "pitch": 74, "duration": 16, "velocity": 112}, {"time": 2714, "pitch": 69, "duration": 4, "velocity": 102}, {"time": 2720, "pitch": 78, "duration": 4, "velocity": 122}, {"time": 2726, "pitch": 76, "duration": 4, "velocity": 117}, {"time": 2732, "pitch": 74, "duration": 3, "velocity": 107}, {"time": 2738, "pitch": 76, "duration": 10, "velocity": 122}, {"time": 2750, "pitch": 73, "duration": 4, "velocity": 127}, {"time": 2762, "pitch": 69, "duration": 2, "velocity": 96}, {"time": 2768, "pitch": 78, "duration": 6, "velocity": 97}, {"time": 2774, "pitch": 76, "duration": 5, "velocity": 100}, {"time": 2780, "pitch": 74, "duration": 2, "velocity": 85}, {"time": 2786, "pitch": 74, "duration": 9, "velocity": 117}, {"time": 2798, "pitch": 71, "duration": 3, "velocity": 112}, {"time": 2804, "pitch": 74, "duration": 2, "velocity": 117}, {"time": 2810, "pitch": 71, "duration": 2, "velocity": 97}, {"time": 2816, "pitch": 74, "duration": 3, "velocity": 112}, {"time": 2822, "pitch": 71, "duration": 3, "velocity": 102}, {"time": 2828, "pitch": 74, "duration": 3, "velocity": 122}, {"time": 2834, "pitch": 76, "duration": 3, "velocity": 100}, {"time": 2840, "pitch": 78, "duration": 9, "velocity": 122}, {"time": 2846, "pitch": 76, "duration": 5, "velocity": 117}, {"time": 2852, "pitch": 74, "duration": 2, "velocity": 117}, {"time": 2858, "pitch": 74, "duration": 6, "velocity": 112}, {"time": 2870, "pitch": 78, "duration": 3, "velocity": 107}, {"time": 2876, "pitch": 79, "duration": 4, "velocity": 117}, {"time": 2882, "pitch": 78, "duration": 7, "velocity": 112}, {"time": 2894, "pitch": 74, "duration": 5, "velocity": 100}, {"time": 2900, "pitch": 74, "duration": 2, "velocity": 117}, {"time": 2906, "pitch": 74, "duration": 2, "velocity": 107}, {"time": 2912, "pitch": 74, "duration": 4, "velocity": 122}, {"time": 2918, "pitch": 76, "duration": 3, "velocity": 107}, {"time": 2930, "pitch": 78, "duration": 8, "velocity": 122}, {"time": 2942, "pitch": 79, "duration": 3, "velocity": 122}, {"time": 2948, "pitch": 78, "duration": 3, "velocity": 112}, {"time": 2954, "pitch": 76, "duration": 3, "velocity": 102}, {"time": 2960, "pitch": 74, "duration": 7, "velocity": 112}, {"time": 2972, "pitch": 71, "duration": 4, "velocity": 99}, {"time": 2978, "pitch": 74, "duration": 4, "velocity": 117}, {"time": 2990, "pitch": 71, "duration": 2, "velocity": 102}, {"time": 2996, "pitch": 74, "duration": 2, "velocity": 127}, {"time": 3002, "pitch": 71, "duration": 2, "velocity": 95}, {"time": 3008, "pitch": 74, "duration": 3, "velocity": 117}, {"time": 3014, "pitch": 76, "duration": 3, "velocity": 107}, {"time": 3020, "pitch": 78, "duration": 3, "velocity": 117}, {"time": 3026, "pitch": 76, "duration": 54, "velocity": 127}, {"time": 3098, "pitch": 69, "duration": 4, "velocity": 117}, {"time": 3104, "pitch": 78, "duration": 6, "velocity": 102}, {"time": 3113, "pitch": 76, "duration": 6, "velocity": 117}, {"time": 3119, "pitch": 74, "duration": 3, "velocity": 122}, {"time": 3128, "pitch": 74, "duration": 69, "velocity": 127}]}, {"program": 0, "is_drum": false, "name": "PIANO", "notes": [{"time": 8, "pitch": 46, "duration": 27, "velocity": 54}, {"time": 8, "pitch": 53, "duration": 27, "velocity": 63}, {"time": 8, "pitch": 58, "duration": 34, "velocity": 63}, {"time": 8, "pitch": 61, "duration": 34, "velocity": 65}, {"time": 8, "pitch": 65, "duration": 34, "velocity": 67}, {"time": 56, "pitch": 42, "duration": 22, "velocity": 60}, {"time": 56, "pitch": 54, "duration": 23, "velocity": 66}, {"time": 56, "pitch": 58, "duration": 24, "velocity": 64}, {"time": 56, "pitch": 61, "duration": 24, "velocity": 69}, {"time": 104, "pitch": 37, "duration": 25, "velocity": 56}, {"time": 104, "pitch": 49, "duration": 29, "velocity": 68}, {"time": 104, "pitch": 56, "duration": 39, "velocity": 68}, {"time": 104, "pitch": 61, "duration": 37, "velocity": 69}, {"time": 104, "pitch": 65, "duration": 37, "velocity": 66}, {"time": 152, "pitch": 44, "duration": 35, "velocity": 63}, {"time": 152, "pitch": 51, "duration": 36, "velocity": 58}, {"time": 152, "pitch": 56, "duration": 47, "velocity": 72}, {"time": 152, "pitch": 60, "duration": 48, "velocity": 66}, {"time": 152, "pitch": 63, "duration": 48, "velocity": 68}, {"time": 200, "pitch": 46, "duration": 37, "velocity": 88}, {"time": 206, "pitch": 53, "duration": 17, "velocity": 54}, {"time": 212, "pitch": 65, "duration": 42, "velocity": 88}, {"time": 218, "pitch": 61, "duration": 19, "velocity": 75}, {"time": 230, "pitch": 53, "duration": 5, "velocity": 47}, {"time": 236, "pitch": 58, "duration": 18, "velocity": 79}, {"time": 242, "pitch": 61, "duration": 12, "velocity": 57}, {"time": 248, "pitch": 42, "duration": 36, "velocity": 73}, {"time": 254, "pitch": 49, "duration": 29, "velocity": 41}, {"time": 260, "pitch": 58, "duration": 24, "velocity": 73}, {"time": 266, "pitch": 66, "duration": 29, "velocity": 90}, {"time": 278, "pitch": 54, "duration": 5, "velocity": 59}, {"time": 284, "pitch": 61, "duration": 16, "velocity": 79}, {"time": 290, "pitch": 58, "duration": 7, "velocity": 74}, {"time": 296, "pitch": 37, "duration": 36, "velocity": 79}, {"time": 302, "pitch": 44, "duration": 29, "velocity": 48}, {"time": 308, "pitch": 56, "duration": 25, "velocity": 88}, {"time": 314, "pitch": 65, "duration": 32, "velocity": 96}, {"time": 326, "pitch": 49, "duration": 8, "velocity": 63}, {"time": 332, "pitch": 61, "duration": 13, "velocity": 83}, {"time": 338, "pitch": 56, "duration": 7, "velocity": 73}, {"time": 344, "pitch": 44, "duration": 37, "velocity": 75}, {"time": 350, "pitch": 51, "duration": 21, "velocity": 47}, {"time": 356, "pitch": 56, "duration": 8, "velocity": 90}, {"time": 362, "pitch": 60, "duration": 14, "velocity": 93}, {"time": 368, "pitch": 68, "duration": 24, "velocity": 99}, {"time": 374, "pitch": 51, "duration": 6, "velocity": 86}, {"time": 380, "pitch": 63, "duration": 12, "velocity": 93}, {"time": 386, "pitch": 60, "duration": 8, "velocity": 68}, {"time": 392, "pitch": 46, "duration": 38, "velocity": 73}, {"time": 398, "pitch": 53, "duration": 15, "velocity": 46}, {"time": 404, "pitch": 58, "duration": 25, "velocity": 71}, {"time": 410, "pitch": 65, "duration": 33, "velocity": 92}, {"time": 422, "pitch": 53, "duration": 5, "velocity": 69}, {"time": 428, "pitch": 61, "duration": 28, "velocity": 93}, {"time": 434, "pitch": 58, "duration": 12, "velocity": 74}, {"time": 440, "pitch": 42, "duration": 37, "velocity": 79}, {"time": 446, "pitch": 49, "duration": 19, "velocity": 58}, {"time": 452, "pitch": 54, "duration": 11, "velocity": 77}, {"time": 458, "pitch": 66, "duration": 31, "velocity": 86}, {"time": 470, "pitch": 49, "duration": 7, "velocity": 59}, {"time": 476, "pitch": 61, "duration": 15, "velocity": 88}, {"time": 482, "pitch": 58, "duration": 7, "velocity": 76}, {"time": 488, "pitch": 37, "duration": 35, "velocity": 74}, {"time": 494, "pitch": 44, "duration": 29, "velocity": 46}, {"time": 500, "pitch": 49, "duration": 13, "velocity": 73}, {"time": 506, "pitch": 65, "duration": 31, "velocity": 90}, {"time": 518, "pitch": 49, "duration": 8, "velocity": 56}, {"time": 524, "pitch": 61, "duration": 13, "velocity": 82}, {"time": 530, "pitch": 56, "duration": 6, "velocity": 51}, {"time": 536, "pitch": 44, "duration": 38, "velocity": 70}, {"time": 542, "pitch": 51, "duration": 21, "velocity": 55}, {"time": 548, "pitch": 56, "duration": 8, "velocity": 86}, {"time": 554, "pitch": 60, "duration": 12, "velocity": 86}, {"time": 560, "pitch": 68, "duration": 24, "velocity": 100}, {"time": 566, "pitch": 51, "duration": 7, "velocity": 92}, {"time": 572, "pitch": 63, "duration": 13, "velocity": 107}, {"time": 578, "pitch": 60, "duration": 7, "velocity": 92}, {"time": 584, "pitch": 46, "duration": 36, "velocity": 76}, {"time": 590, "pitch": 53, "duration": 16, "velocity": 69}, {"time": 596, "pitch": 58, "duration": 7, "velocity": 89}, {"time": 602, "pitch": 65, "duration": 37, "velocity": 99}, {"time": 614, "pitch": 53, "duration": 5, "velocity": 53}, {"time": 620, "pitch": 61, "duration": 18, "velocity": 112}, {"time": 626, "pitch": 58, "duration": 7, "velocity": 79}, {"time": 632, "pitch": 42, "duration": 21, "velocity": 86}, {"time": 638, "pitch": 49, "duration": 18, "velocity": 65}, {"time": 644, "pitch": 65, "duration": 21, "velocity": 95}, {"time": 650, "pitch": 61, "duration": 14, "velocity": 77}, {"time": 656, "pitch": 42, "duration": 2, "velocity": 83}, {"time": 662, "pitch": 42, "duration": 10, "velocity": 90}, {"time": 668, "pitch": 65, "duration": 12, "velocity": 99}, {"time": 674, "pitch": 58, "duration": 6, "velocity": 72}, {"time": 680, "pitch": 37, "duration": 20, "velocity": 86}, {"time": 686, "pitch": 44, "duration": 16, "velocity": 41}, {"time": 692, "pitch": 65, "duration": 22, "velocity": 96}, {"time": 698, "pitch": 56, "duration": 19, "velocity": 78}, {"time": 701, "pitch": 61, "duration": 13, "velocity": 58}, {"time": 704, "pitch": 37, "duration": 3, "velocity": 82}, {"time": 710, "pitch": 37, "duration": 8, "velocity": 79}, {"time": 716, "pitch": 65, "duration": 14, "velocity": 92}, {"time": 722, "pitch": 56, "duration": 11, "velocity": 67}, {"time": 728, "pitch": 44, "duration": 21, "velocity": 72}, {"time": 734, "pitch": 51, "duration": 17, "velocity": 56}, {"time": 740, "pitch": 63, "duration": 20, "velocity": 99}, {"time": 746, "pitch": 60, "duration": 15, "velocity": 51}, {"time": 752, "pitch": 44, "duration": 2, "velocity": 79}, {"time": 758, "pitch": 44, "duration": 15, "velocity": 95}, {"time": 764, "pitch": 63, "duration": 12, "velocity": 99}, {"time": 770, "pitch": 56, "duration": 6, "velocity": 88}, {"time": 776, "pitch": 46, "duration": 22, "velocity": 93}, {"time": 782, "pitch": 58, "duration": 15, "velocity": 72}, {"time": 788, "pitch": 65, "duration": 22, "velocity": 96}, {"time": 794, "pitch": 53, "duration": 7, "velocity": 66}, {"time": 800, "pitch": 46, "duration": 2, "velocity": 71}, {"time": 806, "pitch": 46, "duration": 9, "velocity": 89}, {"time": 812, "pitch": 65, "duration": 10, "velocity": 90}, {"time": 818, "pitch": 58, "duration": 7, "velocity": 73}, {"time": 824, "pitch": 42, "duration": 20, "velocity": 65}, {"time": 830, "pitch": 49, "duration": 15, "velocity": 52}, {"time": 836, "pitch": 61, "duration": 21, "velocity": 97}, {"time": 842, "pitch": 54, "duration": 15, "velocity": 66}, {"time": 848, "pitch": 42, "duration": 2, "velocity": 69}, {"time": 854, "pitch": 42, "duration": 9, "velocity": 90}, {"time": 860, "pitch": 61, "duration": 12, "velocity": 93}, {"time": 866, "pitch": 58, "duration": 6, "velocity": 73}, {"time": 872, "pitch": 37, "duration": 22, "velocity": 74}, {"time": 878, "pitch": 44, "duration": 15, "velocity": 42}, {"time": 884, "pitch": 65, "duration": 26, "velocity": 97}, {"time": 890, "pitch": 49, "duration": 4, "velocity": 38}, {"time": 896, "pitch": 37, "duration": 2, "velocity": 74}, {"time": 902, "pitch": 37, "duration": 9, "velocity": 78}, {"time": 908, "pitch": 61, "duration": 2, "velocity": 96}, {"time": 914, "pitch": 44, "duration": 77, "velocity": 75}, {"time": 914, "pitch": 56, "duration": 75, "velocity": 89}, {"time": 914, "pitch": 60, "duration": 76, "velocity": 95}, {"time": 914, "pitch": 63, "duration": 76, "velocity": 95}, {"time": 1016, "pitch": 37, "duration": 21, "velocity": 75}, {"time": 1019, "pitch": 44, "duration": 21, "velocity": 89}, {"time": 1022, "pitch": 49, "duration": 6, "velocity": 93}, {"time": 1025, "pitch": 53, "duration": 5, "velocity": 70}, {"time": 1028, "pitch": 61, "duration": 20, "velocity": 102}, {"time": 1031, "pitch": 49, "duration": 3, "velocity": 83}, {"time": 1034, "pitch": 56, "duration": 12, "velocity": 71}, {"time": 1037, "pitch": 53, "duration": 5, "velocity": 85}, {"time": 1040, "pitch": 37, "duration": 16, "velocity": 78}, {"time": 1043, "pitch": 44, "duration": 13, "velocity": 77}, {"time": 1046, "pitch": 49, "duration": 6, "velocity": 82}, {"time": 1049, "pitch": 53, "duration": 4, "velocity": 88}, {"time": 1052, "pitch": 61, "duration": 11, "velocity": 99}, {"time": 1055, "pitch": 49, "duration": 5, "velocity": 86}, {"time": 1058, "pitch": 56, "duration": 4, "velocity": 89}, {"time": 1061, "pitch": 53, "duration": 2, "velocity": 92}, {"time": 1064, "pitch": 41, "duration": 21, "velocity": 73}, {"time": 1067, "pitch": 48, "duration": 20, "velocity": 70}, {"time": 1070, "pitch": 53, "duration": 6, "velocity": 85}, {"time": 1073, "pitch": 57, "duration": 4, "velocity": 73}, {"time": 1076, "pitch": 65, "duration": 17, "velocity": 76}, {"time": 1079, "pitch": 53, "duration": 3, "velocity": 79}, {"time": 1082, "pitch": 60, "duration": 7, "velocity": 58}, {"time": 1085, "pitch": 57, "duration": 4, "velocity": 100}, {"time": 1088, "pitch": 41, "duration": 17, "velocity": 72}, {"time": 1091, "pitch": 48, "duration": 14, "velocity": 76}, {"time": 1094, "pitch": 53, "duration": 7, "velocity": 82}, {"time": 1097, "pitch": 57, "duration": 4, "velocity": 92}, {"time": 1100, "pitch": 65, "duration": 11, "velocity": 96}, {"time": 1103, "pitch": 53, "duration": 4, "velocity": 88}, {"time": 1106, "pitch": 60, "duration": 4, "velocity": 64}, {"time": 1109, "pitch": 57, "duration": 2, "velocity": 112}, {"time": 1112, "pitch": 46, "duration": 21, "velocity": 69}, {"time": 1115, "pitch": 53, "duration": 10, "velocity": 73}, {"time": 1118, "pitch": 58, "duration": 4, "velocity": 90}, {"time": 1121, "pitch": 61, "duration": 2, "velocity": 92}, {"time": 1124, "pitch": 65, "duration": 12, "velocity": 97}, {"time": 1127, "pitch": 53, "duration": 8, "velocity": 76}, {"time": 1130, "pitch": 61, "duration": 6, "velocity": 93}, {"time": 1133, "pitch": 58, "duration": 2, "velocity": 90}, {"time": 1136, "pitch": 46, "duration": 18, "velocity": 88}, {"time": 1139, "pitch": 53, "duration": 10, "velocity": 69}, {"time": 1142, "pitch": 58, "duration": 3, "velocity": 86}, {"time": 1145, "pitch": 61, "duration": 3, "velocity": 93}, {"time": 1148, "pitch": 65, "duration": 11, "velocity": 95}, {"time": 1151, "pitch": 53, "duration": 3, "velocity": 79}, {"time": 1154, "pitch": 61, "duration": 4, "velocity": 89}, {"time": 1157, "pitch": 58, "duration": 2, "velocity": 97}, {"time": 1160, "pitch": 44, "duration": 21, "velocity": 64}, {"time": 1163, "pitch": 51, "duration": 20, "velocity": 72}, {"time": 1166, "pitch": 56, "duration": 6, "velocity": 93}, {"time": 1169, "pitch": 60, "duration": 4, "velocity": 81}, {"time": 1172, "pitch": 68, "duration": 12, "velocity": 96}, {"time": 1175, "pitch": 56, "duration": 2, "velocity": 88}, {"time": 1178, "pitch": 63, "duration": 6, "velocity": 89}, {"time": 1181, "pitch": 60, "duration": 3, "velocity": 99}, {"time": 1184, "pitch": 44, "duration": 18, "velocity": 77}, {"time": 1187, "pitch": 51, "duration": 11, "velocity": 89}, {"time": 1190, "pitch": 56, "duration": 4, "velocity": 89}, {"time": 1193, "pitch": 60, "duration": 4, "velocity": 90}, {"time": 1196, "pitch": 68, "duration": 11, "velocity": 107}, {"time": 1199, "pitch": 51, "duration": 2, "velocity": 81}, {"time": 1202, "pitch": 63, "duration": 4, "velocity": 97}, {"time": 1205, "pitch": 60, "duration": 2, "velocity": 95}, {"time": 1208, "pitch": 42, "duration": 21, "velocity": 63}, {"time": 1211, "pitch": 49, "duration": 20, "velocity": 90}, {"time": 1214, "pitch": 54, "duration": 7, "velocity": 86}, {"time": 1217, "pitch": 58, "duration": 4, "velocity": 90}, {"time": 1220, "pitch": 66, "duration": 11, "velocity": 96}, {"time": 1223, "pitch": 54, "duration": 3, "velocity": 81}, {"time": 1226, "pitch": 61, "duration": 4, "velocity": 86}, {"time": 1229, "pitch": 58, "duration": 2, "velocity": 96}, {"time": 1232, "pitch": 44, "duration": 21, "velocity": 77}, {"time": 1235, "pitch": 51, "duration": 19, "velocity": 72}, {"time": 1238, "pitch": 56, "duration": 7, "velocity": 86}, {"time": 1241, "pitch": 60, "duration": 5, "velocity": 96}, {"time": 1244, "pitch": 68, "duration": 10, "velocity": 96}, {"time": 1247, "pitch": 56, "duration": 3, "velocity": 90}, {"time": 1250, "pitch": 63, "duration": 4, "velocity": 88}, {"time": 1253, "pitch": 60, "duration": 2, "velocity": 86}, {"time": 1256, "pitch": 49, "duration": 11, "velocity": 96}, {"time": 1259, "pitch": 56, "duration": 5, "velocity": 92}, {"time": 1262, "pitch": 65, "duration": 5, "velocity": 97}, {"time": 1265, "pitch": 61, "duration": 3, "velocity": 100}, {"time": 1268, "pitch": 48, "duration": 10, "velocity": 100}, {"time": 1271, "pitch": 60, "duration": 3, "velocity": 86}, {"time": 1274, "pitch": 65, "duration": 4, "velocity": 102}, {"time": 1277, "pitch": 60, "duration": 2, "velocity": 88}, {"time": 1280, "pitch": 46, "duration": 12, "velocity": 88}, {"time": 1283, "pitch": 53, "duration": 8, "velocity": 90}, {"time": 1286, "pitch": 58, "duration": 3, "velocity": 95}, {"time": 1289, "pitch": 61, "duration": 2, "velocity": 93}, {"time": 1292, "pitch": 65, "duration": 10, "velocity": 99}, {"time": 1295, "pitch": 61, "duration": 2, "velocity": 93}, {"time": 1298, "pitch": 58, "duration": 4, "velocity": 96}, {"time": 1301, "pitch": 61, "duration": 1, "velocity": 102}, {"time": 1304, "pitch": 39, "duration": 21, "velocity": 73}, {"time": 1307, "pitch": 46, "duration": 21, "velocity": 69}, {"time": 1310, "pitch": 51, "duration": 7, "velocity": 86}, {"time": 1313, "pitch": 55, "duration": 3, "velocity": 82}, {"time": 1316, "pitch": 63, "duration": 14, "velocity": 68}, {"time": 1319, "pitch": 51, "duration": 3, "velocity": 74}, {"time": 1322, "pitch": 58, "duration": 7, "velocity": 66}, {"time": 1325, "pitch": 55, "duration": 3, "velocity": 96}, {"time": 1328, "pitch": 39, "duration": 15, "velocity": 81}, {"time": 1331, "pitch": 46, "duration": 13, "velocity": 69}, {"time": 1334, "pitch": 51, "duration": 11, "velocity": 85}, {"time": 1337, "pitch": 55, "duration": 4, "velocity": 75}, {"time": 1340, "pitch": 63, "duration": 11, "velocity": 60}, {"time": 1343, "pitch": 58, "duration": 2, "velocity": 68}, {"time": 1346, "pitch": 55, "duration": 3, "velocity": 100}, {"time": 1349, "pitch": 58, "duration": 2, "velocity": 71}, {"time": 1352, "pitch": 44, "duration": 22, "velocity": 77}, {"time": 1355, "pitch": 51, "duration": 20, "velocity": 86}, {"time": 1358, "pitch": 56, "duration": 6, "velocity": 93}, {"time": 1361, "pitch": 60, "duration": 4, "velocity": 92}, {"time": 1364, "pitch": 63, "duration": 6, "velocity": 102}, {"time": 1367, "pitch": 56, "duration": 3, "velocity": 96}, {"time": 1370, "pitch": 60, "duration": 9, "velocity": 95}, {"time": 1373, "pitch": 68, "duration": 10, "velocity": 107}, {"time": 1376, "pitch": 44, "duration": 20, "velocity": 95}, {"time": 1379, "pitch": 51, "duration": 10, "velocity": 99}, {"time": 1382, "pitch": 56, "duration": 4, "velocity": 96}, {"time": 1385, "pitch": 60, "duration": 5, "velocity": 97}, {"time": 1388, "pitch": 68, "duration": 10, "velocity": 102}, {"time": 1391, "pitch": 51, "duration": 5, "velocity": 95}, {"time": 1394, "pitch": 63, "duration": 4, "velocity": 97}, {"time": 1397, "pitch": 60, "duration": 2, "velocity": 97}, {"time": 1400, "pitch": 37, "duration": 21, "velocity": 75}, {"time": 1403, "pitch": 44, "duration": 21, "velocity": 89}, {"time": 1406, "pitch": 49, "duration": 6, "velocity": 93}, {"time": 1409, "pitch": 53, "duration": 5, "velocity": 70}, {"time": 1412, "pitch": 61, "duration": 20, "velocity": 102}, {"time": 1415, "pitch": 49, "duration": 3, "velocity": 83}, {"time": 1418, "pitch": 56, "duration": 12, "velocity": 71}, {"time": 1421, "pitch": 53, "duration": 5, "velocity": 85}, {"time": 1424, "pitch": 37, "duration": 16, "velocity": 78}, {"time": 1427, "pitch": 44, "duration": 13, "velocity": 77}, {"time": 1430, "pitch": 49, "duration": 6, "velocity": 82}, {"time": 1433, "pitch": 53, "duration": 4, "velocity": 88}, {"time": 1436, "pitch": 61, "duration": 11, "velocity": 99}, {"time": 1439, "pitch": 49, "duration": 5, "velocity": 86}, {"time": 1442, "pitch": 56, "duration": 4, "velocity": 89}, {"time": 1445, "pitch": 53, "duration": 2, "velocity": 92}, {"time": 1448, "pitch": 41, "duration": 21, "velocity": 73}, {"time": 1451, "pitch": 48, "duration": 20, "velocity": 70}, {"time": 1454, "pitch": 53, "duration": 6, "velocity": 85}, {"time": 1457, "pitch": 57, "duration": 4, "velocity": 73}, {"time": 1460, "pitch": 65, "duration": 17, "velocity": 76}, {"time": 1463, "pitch": 53, "duration": 3, "velocity": 79}, {"time": 1466, "pitch": 60, "duration": 7, "velocity": 58}, {"time": 1469, "pitch": 57, "duration": 4, "velocity": 100}, {"time": 1472, "pitch": 41, "duration": 17, "velocity": 72}, {"time": 1475, "pitch": 48, "duration": 14, "velocity": 76}, {"time": 1478, "pitch": 53, "duration": 7, "velocity": 82}, {"time": 1481, "pitch": 57, "duration": 4, "velocity": 92}, {"time": 1484, "pitch": 65, "duration": 11, "velocity": 96}, {"time": 1487, "pitch": 53, "duration": 4, "velocity": 88}, {"time": 1490, "pitch": 60, "duration": 4, "velocity": 64}, {"time": 1493, "pitch": 57, "duration": 2, "velocity": 112}, {"time": 1496, "pitch": 46, "duration": 21, "velocity": 69}, {"time": 1499, "pitch": 53, "duration": 10, "velocity": 73}, {"time": 1502, "pitch": 58, "duration": 4, "velocity": 90}, {"time": 1505, "pitch": 61, "duration": 2, "velocity": 92}, {"time": 1508, "pitch": 65, "duration": 12, "velocity": 97}, {"time": 1511, "pitch": 53, "duration": 8, "velocity": 76}, {"time": 1514, "pitch": 61, "duration": 6, "velocity": 93}, {"time": 1517, "pitch": 58, "duration": 2, "velocity": 90}, {"time": 1520, "pitch": 46, "duration": 18, "velocity": 88}, {"time": 1523, "pitch": 53, "duration": 10, "velocity": 69}, {"time": 1526, "pitch": 58, "duration": 3, "velocity": 86}, {"time": 1529, "pitch": 61, "duration": 3, "velocity": 93}, {"time": 1532, "pitch": 65, "duration": 11, "velocity": 95}, {"time": 1535, "pitch": 53, "duration": 3, "velocity": 79}, {"time": 1538, "pitch": 61, "duration": 4, "velocity": 89}, {"time": 1541, "pitch": 58, "duration": 2, "velocity": 97}, {"time": 1544, "pitch": 44, "duration": 21, "velocity": 64}, {"time": 1547, "pitch": 51, "duration": 20, "velocity": 72}, {"time": 1550, "pitch": 56, "duration": 6, "velocity": 93}, {"time": 1553, "pitch": 60, "duration": 4, "velocity": 81}, {"time": 1556, "pitch": 68, "duration": 12, "velocity": 96}, {"time": 1559, "pitch": 56, "duration": 2, "velocity": 88}, {"time": 1562, "pitch": 63, "duration": 6, "velocity": 89}, {"time": 1565, "pitch": 60, "duration": 3, "velocity": 99}, {"time": 1568, "pitch": 44, "duration": 18, "velocity": 77}, {"time": 1571, "pitch": 51, "duration": 11, "velocity": 89}, {"time": 1574, "pitch": 56, "duration": 4, "velocity": 89}, {"time": 1577, "pitch": 60, "duration": 4, "velocity": 90}, {"time": 1580, "pitch": 68, "duration": 11, "velocity": 107}, {"time": 1583, "pitch": 51, "duration": 2, "velocity": 81}, {"time": 1586, "pitch": 63, "duration": 4, "velocity": 97}, {"time": 1589, "pitch": 60, "duration": 2, "velocity": 95}, {"time": 1592, "pitch": 42, "duration": 21, "velocity": 63}, {"time": 1595, "pitch": 49, "duration": 20, "velocity": 90}, {"time": 1598, "pitch": 54, "duration": 7, "velocity": 86}, {"time": 1601, "pitch": 58, "duration": 4, "velocity": 90}, {"time": 1604, "pitch": 66, "duration": 11, "velocity": 96}, {"time": 1607, "pitch": 54, "duration": 3, "velocity": 81}, {"time": 1610, "pitch": 61, "duration": 4, "velocity": 86}, {"time": 1613, "pitch": 58, "duration": 2, "velocity": 96}, {"time": 1616, "pitch": 44, "duration": 21, "velocity": 77}, {"time": 1619, "pitch": 51, "duration": 19, "velocity": 72}, {"time": 1622, "pitch": 56, "duration": 7, "velocity": 86}, {"time": 1625, "pitch": 60, "duration": 5, "velocity": 96}, {"time": 1628, "pitch": 68, "duration": 10, "velocity": 96}, {"time": 1631, "pitch": 56, "duration": 3, "velocity": 90}, {"time": 1634, "pitch": 63, "duration": 4, "velocity": 88}, {"time": 1637, "pitch": 60, "duration": 2, "velocity": 86}, {"time": 1640, "pitch": 49, "duration": 11, "velocity": 96}, {"time": 1643, "pitch": 56, "duration": 5, "velocity": 92}, {"time": 1646, "pitch": 65, "duration": 5, "velocity": 97}, {"time": 1649, "pitch": 61, "duration": 3, "velocity": 100}, {"time": 1652, "pitch": 48, "duration": 10, "velocity": 100}, {"time": 1655, "pitch": 60, "duration": 3, "velocity": 86}, {"time": 1658, "pitch": 65, "duration": 4, "velocity": 102}, {"time": 1661, "pitch": 60, "duration": 2, "velocity": 88}, {"time": 1664, "pitch": 46, "duration": 12, "velocity": 88}, {"time": 1667, "pitch": 53, "duration": 8, "velocity": 90}, {"time": 1670, "pitch": 58, "duration": 3, "velocity": 95}, {"time": 1673, "pitch": 61, "duration": 2, "velocity": 93}, {"time": 1676, "pitch": 65, "duration": 10, "velocity": 99}, {"time": 1679, "pitch": 61, "duration": 2, "velocity": 93}, {"time": 1682, "pitch": 58, "duration": 4, "velocity": 96}, {"time": 1685, "pitch": 61, "duration": 1, "velocity": 102}, {"time": 1688, "pitch": 39, "duration": 21, "velocity": 73}, {"time": 1691, "pitch": 46, "duration": 21, "velocity": 69}, {"time": 1694, "pitch": 51, "duration": 7, "velocity": 86}, {"time": 1697, "pitch": 55, "duration": 3, "velocity": 82}, {"time": 1700, "pitch": 63, "duration": 14, "velocity": 68}, {"time": 1703, "pitch": 51, "duration": 3, "velocity": 74}, {"time": 1706, "pitch": 58, "duration": 7, "velocity": 66}, {"time": 1709, "pitch": 55, "duration": 3, "velocity": 96}, {"time": 1712, "pitch": 39, "duration": 15, "velocity": 81}, {"time": 1715, "pitch": 46, "duration": 13, "velocity": 69}, {"time": 1718, "pitch": 51, "duration": 11, "velocity": 85}, {"time": 1721, "pitch": 55, "duration": 4, "velocity": 75}, {"time": 1724, "pitch": 63, "duration": 11, "velocity": 60}, {"time": 1727, "pitch": 58, "duration": 2, "velocity": 68}, {"time": 1730, "pitch": 55, "duration": 3, "velocity": 100}, {"time": 1733, "pitch": 58, "duration": 2, "velocity": 71}, {"time": 1736, "pitch": 44, "duration": 5, "velocity": 79}, {"time": 1736, "pitch": 56, "duration": 4, "velocity": 77}, {"time": 1736, "pitch": 60, "duration": 4, "velocity": 83}, {"time": 1736, "pitch": 63, "duration": 4, "velocity": 89}, {"time": 1742, "pitch": 44, "duration": 3, "velocity": 69}, {"time": 1742, "pitch": 56, "duration": 4, "velocity": 77}, {"time": 1742, "pitch": 60, "duration": 4, "velocity": 75}, {"time": 1742, "pitch": 63, "duration": 4, "velocity": 75}, {"time": 1748, "pitch": 44, "duration": 4, "velocity": 81}, {"time": 1748, "pitch": 56, "duration": 4, "velocity": 76}, {"time": 1748, "pitch": 60, "duration": 4, "velocity": 76}, {"time": 1748, "pitch": 63, "duration": 4, "velocity": 79}, {"time": 1754, "pitch": 44, "duration": 4, "velocity": 90}, {"time": 1754, "pitch": 56, "duration": 4, "velocity": 81}, {"time": 1754, "pitch": 60, "duration": 4, "velocity": 81}, {"time": 1754, "pitch": 63, "duration": 4, "velocity": 85}, {"time": 1760, "pitch": 44, "duration": 4, "velocity": 81}, {"time": 1760, "pitch": 56, "duration": 4, "velocity": 90}, {"time": 1760, "pitch": 60, "duration": 3, "velocity": 88}, {"time": 1760, "pitch": 63, "duration": 4, "velocity": 92}, {"time": 1766, "pitch": 44, "duration": 4, "velocity": 97}, {"time": 1766, "pitch": 56, "duration": 4, "velocity": 86}, {"time": 1766, "pitch": 60, "duration": 4, "velocity": 81}, {"time": 1766, "pitch": 63, "duration": 4, "velocity": 82}, {"time": 1772, "pitch": 44, "duration": 4, "velocity": 97}, {"time": 1772, "pitch": 56, "duration": 4, "velocity": 86}, {"time": 1772, "pitch": 60, "duration": 4, "velocity": 82}, {"time": 1772, "pitch": 63, "duration": 4, "velocity": 81}, {"time": 1778, "pitch": 44, "duration": 6, "velocity": 95}, {"time": 1778, "pitch": 56, "duration": 5, "velocity": 90}, {"time": 1778, "pitch": 60, "duration": 5, "velocity": 86}, {"time": 1778, "pitch": 63, "duration": 5, "velocity": 89}, {"time": 1880, "pitch": 37, "duration": 14, "velocity": 100}, {"time": 1886, "pitch": 44, "duration": 11, "velocity": 66}, {"time": 1892, "pitch": 49, "duration": 3, "velocity": 88}, {"time": 1892, "pitch": 65, "duration": 20, "velocity": 97}, {"time": 1898, "pitch": 37, "duration": 3, "velocity": 82}, {"time": 1904, "pitch": 37, "duration": 18, "velocity": 95}, {"time": 1910, "pitch": 56, "duration": 10, "velocity": 75}, {"time": 1916, "pitch": 65, "duration": 11, "velocity": 99}, {"time": 1919, "pitch": 49, "duration": 8, "velocity": 69}, {"time": 1922, "pitch": 61, "duration": 5, "velocity": 95}, {"time": 1925, "pitch": 56, "duration": 3, "velocity": 85}, {"time": 1928, "pitch": 41, "duration": 15, "velocity": 66}, {"time": 1934, "pitch": 48, "duration": 10, "velocity": 49}, {"time": 1940, "pitch": 60, "duration": 16, "velocity": 100}, {"time": 1946, "pitch": 41, "duration": 2, "velocity": 93}, {"time": 1952, "pitch": 41, "duration": 15, "velocity": 97}, {"time": 1958, "pitch": 53, "duration": 6, "velocity": 88}, {"time": 1964, "pitch": 57, "duration": 10, "velocity": 97}, {"time": 1964, "pitch": 60, "duration": 10, "velocity": 97}, {"time": 1970, "pitch": 53, "duration": 4, "velocity": 86}, {"time": 1976, "pitch": 46, "duration": 21, "velocity": 97}, {"time": 1982, "pitch": 53, "duration": 16, "velocity": 102}, {"time": 1988, "pitch": 61, "duration": 12, "velocity": 99}, {"time": 1988, "pitch": 65, "duration": 12, "velocity": 93}, {"time": 1994, "pitch": 58, "duration": 6, "velocity": 97}, {"time": 2000, "pitch": 46, "duration": 4, "velocity": 81}, {"time": 2006, "pitch": 44, "duration": 2, "velocity": 92}, {"time": 2006, "pitch": 56, "duration": 1, "velocity": 96}, {"time": 2009, "pitch": 46, "duration": 2, "velocity": 93}, {"time": 2009, "pitch": 58, "duration": 1, "velocity": 99}, {"time": 2012, "pitch": 49, "duration": 2, "velocity": 93}, {"time": 2012, "pitch": 61, "duration": 2, "velocity": 102}, {"time": 2015, "pitch": 46, "duration": 2, "velocity": 89}, {"time": 2015, "pitch": 58, "duration": 1, "velocity": 88}, {"time": 2018, "pitch": 49, "duration": 3, "velocity": 107}, {"time": 2018, "pitch": 61, "duration": 3, "velocity": 112}, {"time": 2030, "pitch": 44, "duration": 4, "velocity": 75}, {"time": 2030, "pitch": 56, "duration": 4, "velocity": 68}, {"time": 2030, "pitch": 59, "duration": 4, "velocity": 72}, {"time": 2030, "pitch": 63, "duration": 3, "velocity": 58}, {"time": 2030, "pitch": 66, "duration": 3, "velocity": 42}, {"time": 2036, "pitch": 44, "duration": 4, "velocity": 75}, {"time": 2036, "pitch": 56, "duration": 4, "velocity": 76}, {"time": 2036, "pitch": 59, "duration": 4, "velocity": 85}, {"time": 2036, "pitch": 63, "duration": 4, "velocity": 78}, {"time": 2036, "pitch": 66, "duration": 4, "velocity": 68}, {"time": 2042, "pitch": 44, "duration": 20, "velocity": 81}, {"time": 2042, "pitch": 56, "duration": 16, "velocity": 93}, {"time": 2042, "pitch": 59, "duration": 15, "velocity": 107}, {"time": 2042, "pitch": 63, "duration": 15, "velocity": 90}, {"time": 2042, "pitch": 66, "duration": 15, "velocity": 73}, {"time": 2060, "pitch": 56, "duration": 10, "velocity": 92}, {"time": 2060, "pitch": 59, "duration": 10, "velocity": 102}, {"time": 2060, "pitch": 63, "duration": 10, "velocity": 99}, {"time": 2060, "pitch": 66, "duration": 8, "velocity": 82}, {"time": 2066, "pitch": 44, "duration": 5, "velocity": 62}, {"time": 2072, "pitch": 42, "duration": 39, "velocity": 83}, {"time": 2072, "pitch": 54, "duration": 14, "velocity": 96}, {"time": 2072, "pitch": 58, "duration": 11, "velocity": 93}, {"time": 2072, "pitch": 61, "duration": 11, "velocity": 92}, {"time": 2081, "pitch": 49, "duration": 9, "velocity": 56}, {"time": 2084, "pitch": 58, "duration": 19, "velocity": 77}, {"time": 2084, "pitch": 61, "duration": 20, "velocity": 79}, {"time": 2093, "pitch": 49, "duration": 5, "velocity": 56}, {"time": 2096, "pitch": 54, "duration": 10, "velocity": 82}, {"time": 2102, "pitch": 49, "duration": 5, "velocity": 85}, {"time": 2108, "pitch": 54, "duration": 4, "velocity": 65}, {"time": 2108, "pitch": 58, "duration": 4, "velocity": 93}, {"time": 2108, "pitch": 61, "duration": 4, "velocity": 92}, {"time": 2114, "pitch": 41, "duration": 21, "velocity": 77}, {"time": 2114, "pitch": 53, "duration": 15, "velocity": 95}, {"time": 2114, "pitch": 56, "duration": 15, "velocity": 95}, {"time": 2114, "pitch": 60, "duration": 15, "velocity": 93}, {"time": 2126, "pitch": 48, "duration": 11, "velocity": 77}, {"time": 2132, "pitch": 53, "duration": 4, "velocity": 82}, {"time": 2132, "pitch": 56, "duration": 4, "velocity": 89}, {"time": 2132, "pitch": 60, "duration": 4, "velocity": 83}, {"time": 2138, "pitch": 46, "duration": 10, "velocity": 86}, {"time": 2138, "pitch": 53, "duration": 20, "velocity": 95}, {"time": 2138, "pitch": 58, "duration": 16, "velocity": 97}, {"time": 2138, "pitch": 61, "duration": 16, "velocity": 96}, {"time": 2150, "pitch": 46, "duration": 7, "velocity": 92}, {"time": 2156, "pitch": 58, "duration": 4, "velocity": 102}, {"time": 2156, "pitch": 61, "duration": 8, "velocity": 100}, {"time": 2159, "pitch": 46, "duration": 1, "velocity": 97}, {"time": 2162, "pitch": 58, "duration": 5, "velocity": 83}, {"time": 2165, "pitch": 61, "duration": 1, "velocity": 25}, {"time": 2168, "pitch": 39, "duration": 31, "velocity": 88}, {"time": 2168, "pitch": 58, "duration": 10, "velocity": 92}, {"time": 2168, "pitch": 63, "duration": 9, "velocity": 92}, {"time": 2168, "pitch": 66, "duration": 9, "velocity": 75}, {"time": 2174, "pitch": 46, "duration": 26, "velocity": 59}, {"time": 2180, "pitch": 63, "duration": 13, "velocity": 99}, {"time": 2180, "pitch": 66, "duration": 13, "velocity": 96}, {"time": 2186, "pitch": 51, "duration": 18, "velocity": 66}, {"time": 2192, "pitch": 58, "duration": 8, "velocity": 100}, {"time": 2198, "pitch": 63, "duration": 6, "velocity": 100}, {"time": 2198, "pitch": 66, "duration": 6, "velocity": 100}, {"time": 2204, "pitch": 58, "duration": 1, "velocity": 112}, {"time": 2210, "pitch": 42, "duration": 27, "velocity": 72}, {"time": 2210, "pitch": 54, "duration": 16, "velocity": 102}, {"time": 2210, "pitch": 57, "duration": 15, "velocity": 127}, {"time": 2210, "pitch": 61, "duration": 15, "velocity": 99}, {"time": 2222, "pitch": 49, "duration": 18, "velocity": 55}, {"time": 2228, "pitch": 54, "duration": 3, "velocity": 59}, {"time": 2228, "pitch": 57, "duration": 9, "velocity": 112}, {"time": 2228, "pitch": 61, "duration": 9, "velocity": 92}, {"time": 2234, "pitch": 54, "duration": 3, "velocity": 71}, {"time": 2240, "pitch": 44, "duration": 9, "velocity": 97}, {"time": 2240, "pitch": 56, "duration": 4, "velocity": 81}, {"time": 2240, "pitch": 60, "duration": 4, "velocity": 92}, {"time": 2240, "pitch": 63, "duration": 4, "velocity": 90}, {"time": 2246, "pitch": 51, "duration": 3, "velocity": 70}, {"time": 2246, "pitch": 56, "duration": 3, "velocity": 73}, {"time": 2246, "pitch": 60, "duration": 3, "velocity": 96}, {"time": 2246, "pitch": 63, "duration": 3, "velocity": 95}, {"time": 2252, "pitch": 44, "duration": 3, "velocity": 72}, {"time": 2252, "pitch": 51, "duration": 3, "velocity": 74}, {"time": 2252, "pitch": 56, "duration": 3, "velocity": 95}, {"time": 2252, "pitch": 60, "duration": 3, "velocity": 99}, {"time": 2252, "pitch": 63, "duration": 3, "velocity": 100}, {"time": 2258, "pitch": 44, "duration": 5, "velocity": 90}, {"time": 2258, "pitch": 51, "duration": 5, "velocity": 95}, {"time": 2258, "pitch": 56, "duration": 4, "velocity": 100}, {"time": 2258, "pitch": 60, "duration": 4, "velocity": 102}, {"time": 2258, "pitch": 63, "duration": 5, "velocity": 112}, {"time": 2264, "pitch": 37, "duration": 33, "velocity": 82}, {"time": 2270, "pitch": 44, "duration": 27, "velocity": 56}, {"time": 2276, "pitch": 49, "duration": 14, "velocity": 82}, {"time": 2282, "pitch": 56, "duration": 18, "velocity": 78}, {"time": 2288, "pitch": 65, "duration": 25, "velocity": 99}, {"time": 2294, "pitch": 49, "duration": 8, "velocity": 78}, {"time": 2300, "pitch": 61, "duration": 13, "velocity": 93}, {"time": 2306, "pitch": 56, "duration": 6, "velocity": 75}, {"time": 2312, "pitch": 41, "duration": 34, "velocity": 78}, {"time": 2318, "pitch": 48, "duration": 29, "velocity": 48}, {"time": 2324, "pitch": 53, "duration": 16, "velocity": 83}, {"time": 2330, "pitch": 60, "duration": 15, "velocity": 72}, {"time": 2336, "pitch": 69, "duration": 24, "velocity": 112}, {"time": 2342, "pitch": 53, "duration": 7, "velocity": 72}, {"time": 2348, "pitch": 65, "duration": 12, "velocity": 81}, {"time": 2354, "pitch": 60, "duration": 10, "velocity": 77}, {"time": 2360, "pitch": 46, "duration": 36, "velocity": 63}, {"time": 2366, "pitch": 53, "duration": 20, "velocity": 81}, {"time": 2372, "pitch": 58, "duration": 13, "velocity": 90}, {"time": 2378, "pitch": 61, "duration": 6, "velocity": 82}, {"time": 2384, "pitch": 65, "duration": 24, "velocity": 93}, {"time": 2390, "pitch": 53, "duration": 6, "velocity": 79}, {"time": 2396, "pitch": 61, "duration": 12, "velocity": 92}, {"time": 2402, "pitch": 58, "duration": 6, "velocity": 86}, {"time": 2408, "pitch": 44, "duration": 31, "velocity": 90}, {"time": 2414, "pitch": 51, "duration": 15, "velocity": 76}, {"time": 2420, "pitch": 56, "duration": 7, "velocity": 82}, {"time": 2426, "pitch": 59, "duration": 14, "velocity": 82}, {"time": 2426, "pitch": 63, "duration": 14, "velocity": 85}, {"time": 2438, "pitch": 56, "duration": 6, "velocity": 86}, {"time": 2444, "pitch": 43, "duration": 9, "velocity": 77}, {"time": 2444, "pitch": 55, "duration": 10, "velocity": 86}, {"time": 2456, "pitch": 42, "duration": 17, "velocity": 75}, {"time": 2462, "pitch": 54, "duration": 7, "velocity": 56}, {"time": 2468, "pitch": 58, "duration": 11, "velocity": 76}, {"time": 2468, "pitch": 61, "duration": 12, "velocity": 88}, {"time": 2474, "pitch": 54, "duration": 5, "velocity": 68}, {"time": 2480, "pitch": 44, "duration": 17, "velocity": 74}, {"time": 2486, "pitch": 51, "duration": 8, "velocity": 76}, {"time": 2492, "pitch": 60, "duration": 11, "velocity": 93}, {"time": 2492, "pitch": 63, "duration": 9, "velocity": 93}, {"time": 2498, "pitch": 56, "duration": 8, "velocity": 73}, {"time": 2504, "pitch": 49, "duration": 12, "velocity": 102}, {"time": 2510, "pitch": 56, "duration": 12, "velocity": 96}, {"time": 2516, "pitch": 48, "duration": 12, "velocity": 86}, {"time": 2516, "pitch": 65, "duration": 6, "velocity": 5}, {"time": 2522, "pitch": 60, "duration": 7, "velocity": 81}, {"time": 2528, "pitch": 46, "duration": 14, "velocity": 61}, {"time": 2534, "pitch": 53, "duration": 7, "velocity": 89}, {"time": 2540, "pitch": 61, "duration": 12, "velocity": 96}, {"time": 2540, "pitch": 65, "duration": 12, "velocity": 93}, {"time": 2546, "pitch": 58, "duration": 9, "velocity": 81}, {"time": 2552, "pitch": 42, "duration": 20, "velocity": 83}, {"time": 2558, "pitch": 49, "duration": 15, "velocity": 82}, {"time": 2564, "pitch": 58, "duration": 11, "velocity": 89}, {"time": 2564, "pitch": 61, "duration": 12, "velocity": 85}, {"time": 2570, "pitch": 54, "duration": 5, "velocity": 76}, {"time": 2576, "pitch": 44, "duration": 20, "velocity": 96}, {"time": 2582, "pitch": 51, "duration": 14, "velocity": 75}, {"time": 2588, "pitch": 60, "duration": 10, "velocity": 96}, {"time": 2588, "pitch": 63, "duration": 9, "velocity": 99}, {"time": 2594, "pitch": 56, "duration": 4, "velocity": 85}, {"time": 2600, "pitch": 44, "duration": 3, "velocity": 55}, {"time": 2600, "pitch": 51, "duration": 4, "velocity": 61}, {"time": 2600, "pitch": 56, "duration": 3, "velocity": 52}, {"time": 2600, "pitch": 60, "duration": 4, "velocity": 58}, {"time": 2600, "pitch": 63, "duration": 4, "velocity": 63}, {"time": 2606, "pitch": 44, "duration": 3, "velocity": 62}, {"time": 2606, "pitch": 51, "duration": 3, "velocity": 63}, {"time": 2606, "pitch": 56, "duration": 3, "velocity": 77}, {"time": 2606, "pitch": 60, "duration": 4, "velocity": 71}, {"time": 2606, "pitch": 63, "duration": 4, "velocity": 69}, {"time": 2612, "pitch": 44, "duration": 3, "velocity": 71}, {"time": 2612, "pitch": 51, "duration": 3, "velocity": 85}, {"time": 2612, "pitch": 56, "duration": 3, "velocity": 86}, {"time": 2612, "pitch": 60, "duration": 3, "velocity": 83}, {"time": 2612, "pitch": 63, "duration": 4, "velocity": 85}, {"time": 2618, "pitch": 44, "duration": 3, "velocity": 89}, {"time": 2618, "pitch": 51, "duration": 3, "velocity": 107}, {"time": 2618, "pitch": 56, "duration": 4, "velocity": 100}, {"time": 2618, "pitch": 60, "duration": 4, "velocity": 97}, {"time": 2618, "pitch": 63, "duration": 4, "velocity": 99}, {"time": 2624, "pitch": 44, "duration": 3, "velocity": 96}, {"time": 2624, "pitch": 51, "duration": 2, "velocity": 122}, {"time": 2624, "pitch": 56, "duration": 3, "velocity": 112}, {"time": 2624, "pitch": 60, "duration": 3, "velocity": 102}, {"time": 2624, "pitch": 63, "duration": 3, "velocity": 107}, {"time": 2630, "pitch": 44, "duration": 3, "velocity": 90}, {"time": 2630, "pitch": 51, "duration": 3, "velocity": 96}, {"time": 2630, "pitch": 56, "duration": 3, "velocity": 99}, {"time": 2630, "pitch": 60, "duration": 3, "velocity": 96}, {"time": 2630, "pitch": 62, "duration": 1, "velocity": 82}, {"time": 2630, "pitch": 63, "duration": 4, "velocity": 90}, {"time": 2636, "pitch": 44, "duration": 3, "velocity": 78}, {"time": 2636, "pitch": 51, "duration": 2, "velocity": 95}, {"time": 2636, "pitch": 56, "duration": 3, "velocity": 100}, {"time": 2636, "pitch": 60, "duration": 3, "velocity": 97}, {"time": 2636, "pitch": 63, "duration": 4, "velocity": 100}, {"time": 2642, "pitch": 44, "duration": 3, "velocity": 85}, {"time": 2642, "pitch": 51, "duration": 3, "velocity": 117}, {"time": 2642, "pitch": 56, "duration": 4, "velocity": 100}, {"time": 2642, "pitch": 60, "duration": 3, "velocity": 100}, {"time": 2642, "pitch": 63, "duration": 4, "velocity": 100}, {"time": 2648, "pitch": 45, "duration": 4, "velocity": 112}, {"time": 2648, "pitch": 57, "duration": 5, "velocity": 112}, {"time": 2648, "pitch": 61, "duration": 4, "velocity": 89}, {"time": 2648, "pitch": 64, "duration": 4, "velocity": 88}, {"time": 2654, "pitch": 45, "duration": 3, "velocity": 93}, {"time": 2654, "pitch": 57, "duration": 4, "velocity": 93}, {"time": 2654, "pitch": 61, "duration": 4, "velocity": 90}, {"time": 2654, "pitch": 64, "duration": 3, "velocity": 95}, {"time": 2660, "pitch": 45, "duration": 3, "velocity": 107}, {"time": 2660, "pitch": 57, "duration": 3, "velocity": 117}, {"time": 2660, "pitch": 61, "duration": 3, "velocity": 99}, {"time": 2660, "pitch": 64, "duration": 3, "velocity": 99}, {"time": 2666, "pitch": 45, "duration": 4, "velocity": 122}, {"time": 2666, "pitch": 57, "duration": 4, "velocity": 127}, {"time": 2666, "pitch": 61, "duration": 4, "velocity": 107}, {"time": 2666, "pitch": 64, "duration": 4, "velocity": 112}, {"time": 2696, "pitch": 38, "duration": 21, "velocity": 75}, {"time": 2699, "pitch": 45, "duration": 21, "velocity": 89}, {"time": 2702, "pitch": 50, "duration": 6, "velocity": 93}, {"time": 2705, "pitch": 54, "duration": 5, "velocity": 70}, {"time": 2708, "pitch": 62, "duration": 20, "velocity": 102}, {"time": 2711, "pitch": 50, "duration": 3, "velocity": 83}, {"time": 2714, "pitch": 57, "duration": 12, "velocity": 71}, {"time": 2717, "pitch": 54, "duration": 5, "velocity": 85}, {"time": 2720, "pitch": 38, "duration": 16, "velocity": 78}, {"time": 2723, "pitch": 45, "duration": 13, "velocity": 77}, {"time": 2726, "pitch": 50, "duration": 6, "velocity": 82}, {"time": 2729, "pitch": 54, "duration": 4, "velocity": 88}, {"time": 2732, "pitch": 62, "duration": 11, "velocity": 99}, {"time": 2735, "pitch": 50, "duration": 5, "velocity": 86}, {"time": 2738, "pitch": 57, "duration": 4, "velocity": 89}, {"time": 2741, "pitch": 54, "duration": 2, "velocity": 92}, {"time": 2744, "pitch": 42, "duration": 21, "velocity": 73}, {"time": 2747, "pitch": 49, "duration": 20, "velocity": 70}, {"time": 2750, "pitch": 54, "duration": 6, "velocity": 85}, {"time": 2753, "pitch": 58, "duration": 4, "velocity": 73}, {"time": 2756, "pitch": 66, "duration": 17, "velocity": 76}, {"time": 2759, "pitch": 54, "duration": 3, "velocity": 79}, {"time": 2762, "pitch": 61, "duration": 7, "velocity": 58}, {"time": 2765, "pitch": 58, "duration": 4, "velocity": 100}, {"time": 2768, "pitch": 42, "duration": 17, "velocity": 72}, {"time": 2771, "pitch": 49, "duration": 14, "velocity": 76}, {"time": 2774, "pitch": 54, "duration": 7, "velocity": 82}, {"time": 2777, "pitch": 58, "duration": 4, "velocity": 92}, {"time": 2780, "pitch": 66, "duration": 11, "velocity": 96}, {"time": 2783, "pitch": 54, "duration": 4, "velocity": 88}, {"time": 2786, "pitch": 61, "duration": 4, "velocity": 64}, {"time": 2789, "pitch": 58, "duration": 2, "velocity": 112}, {"time": 2792, "pitch": 47, "duration": 21, "velocity": 69}, {"time": 2795, "pitch": 54, "duration": 10, "velocity": 73}, {"time": 2798, "pitch": 59, "duration": 4, "velocity": 90}, {"time": 2801, "pitch": 62, "duration": 2, "velocity": 92}, {"time": 2804, "pitch": 66, "duration": 12, "velocity": 97}, {"time": 2807, "pitch": 54, "duration": 8, "velocity": 76}, {"time": 2810, "pitch": 62, "duration": 6, "velocity": 93}, {"time": 2813, "pitch": 59, "duration": 2, "velocity": 90}, {"time": 2816, "pitch": 47, "duration": 18, "velocity": 88}, {"time": 2819, "pitch": 54, "duration": 10, "velocity": 69}, {"time": 2822, "pitch": 59, "duration": 3, "velocity": 86}, {"time": 2825, "pitch": 62, "duration": 3, "velocity": 93}, {"time": 2828, "pitch": 66, "duration": 11, "velocity": 95}, {"time": 2831, "pitch": 54, "duration": 3, "velocity": 79}, {"time": 2834, "pitch": 62, "duration": 4, "velocity": 89}, {"time": 2837, "pitch": 59, "duration": 2, "velocity": 97}, {"time": 2840, "pitch": 45, "duration": 21, "velocity": 64}, {"time": 2843, "pitch": 52, "duration": 20, "velocity": 72}, {"time": 2846, "pitch": 57, "duration": 6, "velocity": 93}, {"time": 2849, "pitch": 61, "duration": 4, "velocity": 81}, {"time": 2852, "pitch": 69, "duration": 12, "velocity": 96}, {"time": 2855, "pitch": 57, "duration": 2, "velocity": 88}, {"time": 2858, "pitch": 64, "duration": 6, "velocity": 89}, {"time": 2861, "pitch": 61, "duration": 3, "velocity": 99}, {"time": 2864, "pitch": 45, "duration": 18, "velocity": 77}, {"time": 2867, "pitch": 52, "duration": 11, "velocity": 89}, {"time": 2870, "pitch": 57, "duration": 4, "velocity": 89}, {"time": 2873, "pitch": 61, "duration": 4, "velocity": 90}, {"time": 2876, "pitch": 69, "duration": 11, "velocity": 107}, {"time": 2879, "pitch": 52, "duration": 2, "velocity": 81}, {"time": 2882, "pitch": 64, "duration": 4, "velocity": 97}, {"time": 2885, "pitch": 61, "duration": 2, "velocity": 95}, {"time": 2888, "pitch": 43, "duration": 21, "velocity": 63}, {"time": 2891, "pitch": 50, "duration": 20, "velocity": 90}, {"time": 2894, "pitch": 55, "duration": 7, "velocity": 86}, {"time": 2897, "pitch": 59, "duration": 4, "velocity": 90}, {"time": 2900, "pitch": 67, "duration": 11, "velocity": 96}, {"time": 2903, "pitch": 55, "duration": 3, "velocity": 81}, {"time": 2906, "pitch": 62, "duration": 4, "velocity": 86}, {"time": 2909, "pitch": 59, "duration": 2, "velocity": 96}, {"time": 2912, "pitch": 45, "duration": 21, "velocity": 77}, {"time": 2915, "pitch": 52, "duration": 19, "velocity": 72}, {"time": 2918, "pitch": 57, "duration": 7, "velocity": 86}, {"time": 2921, "pitch": 61, "duration": 5, "velocity": 96}, {"time": 2924, "pitch": 69, "duration": 10, "velocity": 96}, {"time": 2927, "pitch": 57, "duration": 3, "velocity": 90}, {"time": 2930, "pitch": 64, "duration": 4, "velocity": 88}, {"time": 2933, "pitch": 61, "duration": 2, "velocity": 86}, {"time": 2936, "pitch": 50, "duration": 11, "velocity": 96}, {"time": 2939, "pitch": 57, "duration": 5, "velocity": 92}, {"time": 2942, "pitch": 66, "duration": 5, "velocity": 97}, {"time": 2945, "pitch": 62, "duration": 3, "velocity": 100}, {"time": 2948, "pitch": 49, "duration": 10, "velocity": 100}, {"time": 2951, "pitch": 61, "duration": 3, "velocity": 86}, {"time": 2954, "pitch": 66, "duration": 4, "velocity": 102}, {"time": 2957, "pitch": 61, "duration": 2, "velocity": 88}, {"time": 2960, "pitch": 47, "duration": 12, "velocity": 88}, {"time": 2963, "pitch": 54, "duration": 8, "velocity": 90}, {"time": 2966, "pitch": 59, "duration": 3, "velocity": 95}, {"time": 2969, "pitch": 62, "duration": 2, "velocity": 93}, {"time": 2972, "pitch": 66, "duration": 10, "velocity": 99}, {"time": 2975, "pitch": 62, "duration": 2, "velocity": 93}, {"time": 2978, "pitch": 59, "duration": 4, "velocity": 96}, {"time": 2981, "pitch": 62, "duration": 1, "velocity": 102}, {"time": 2984, "pitch": 40, "duration": 21, "velocity": 73}, {"time": 2987, "pitch": 47, "duration": 21, "velocity": 69}, {"time": 2990, "pitch": 52, "duration": 7, "velocity": 86}, {"time": 2993, "pitch": 56, "duration": 3, "velocity": 82}, {"time": 2996, "pitch": 64, "duration": 14, "velocity": 68}, {"time": 2999, "pitch": 52, "duration": 3, "velocity": 74}, {"time": 3002, "pitch": 59, "duration": 7, "velocity": 66}, {"time": 3005, "pitch": 56, "duration": 3, "velocity": 96}, {"time": 3008, "pitch": 40, "duration": 15, "velocity": 81}, {"time": 3011, "pitch": 47, "duration": 13, "velocity": 69}, {"time": 3014, "pitch": 52, "duration": 11, "velocity": 85}, {"time": 3017, "pitch": 56, "duration": 4, "velocity": 75}, {"time": 3020, "pitch": 64, "duration": 11, "velocity": 60}, {"time": 3023, "pitch": 59, "duration": 2, "velocity": 68}, {"time": 3026, "pitch": 56, "duration": 3, "velocity": 100}, {"time": 3029, "pitch": 59, "duration": 2, "velocity": 71}, {"time": 3032, "pitch": 45, "duration": 4, "velocity": 122}, {"time": 3032, "pitch": 57, "duration": 4, "velocity": 93}, {"time": 3032, "pitch": 61, "duration": 4, "velocity": 97}, {"time": 3032, "pitch": 64, "duration": 4, "velocity": 96}, {"time": 3038, "pitch": 45, "duration": 4, "velocity": 97}, {"time": 3038, "pitch": 57, "duration": 4, "velocity": 77}, {"time": 3038, "pitch": 61, "duration": 3, "velocity": 83}, {"time": 3038, "pitch": 64, "duration": 4, "velocity": 76}, {"time": 3044, "pitch": 45, "duration": 4, "velocity": 89}, {"time": 3044, "pitch": 57, "duration": 4, "velocity": 89}, {"time": 3044, "pitch": 61, "duration": 3, "velocity": 59}, {"time": 3044, "pitch": 64, "duration": 4, "velocity": 64}, {"time": 3050, "pitch": 45, "duration": 4, "velocity": 100}, {"time": 3050, "pitch": 57, "duration": 3, "velocity": 97}, {"time": 3050, "pitch": 61, "duration": 3, "velocity": 85}, {"time": 3050, "pitch": 64, "duration": 3, "velocity": 93}, {"time": 3056, "pitch": 45, "duration": 3, "velocity": 107}, {"time": 3056, "pitch": 57, "duration": 3, "velocity": 100}, {"time": 3056, "pitch": 61, "duration": 3, "velocity": 96}, {"time": 3056, "pitch": 64, "duration": 4, "velocity": 95}, {"time": 3062, "pitch": 45, "duration": 4, "velocity": 112}, {"time": 3062, "pitch": 57, "duration": 4, "velocity": 102}, {"time": 3062, "pitch": 61, "duration": 3, "velocity": 112}, {"time": 3062, "pitch": 64, "duration": 4, "velocity": 100}, {"time": 3068, "pitch": 45, "duration": 3, "velocity": 99}, {"time": 3068, "pitch": 57, "duration": 3, "velocity": 96}, {"time": 3068, "pitch": 61, "duration": 3, "velocity": 93}, {"time": 3068, "pitch": 64, "duration": 3, "velocity": 97}, {"time": 3074, "pitch": 45, "duration": 5, "velocity": 117}, {"time": 3074, "pitch": 57, "duration": 4, "velocity": 102}, {"time": 3074, "pitch": 61, "duration": 4, "velocity": 117}, {"time": 3074, "pitch": 64, "duration": 4, "velocity": 112}, {"time": 3161, "pitch": 50, "duration": 9, "velocity": 127}, {"time": 3161, "pitch": 57, "duration": 9, "velocity": 127}, {"time": 3161, "pitch": 62, "duration": 9, "velocity": 127}, {"time": 3174, "pitch": 48, "duration": 9, "velocity": 127}, {"time": 3174, "pitch": 55, "duration": 9, "velocity": 127}, {"time": 3174, "pitch": 60, "duration": 9, "velocity": 127}, {"time": 3189, "pitch": 46, "duration": 10, "velocity": 117}, {"time": 3189, "pitch": 53, "duration": 10, "velocity": 117}, {"time": 3189, "pitch": 58, "duration": 10, "velocity": 117}, {"time": 3206, "pitch": 44, "duration": 15, "velocity": 102}, {"time": 3206, "pitch": 51, "duration": 15, "velocity": 102}, {"time": 3206, "pitch": 56, "duration": 15, "velocity": 102}, {"time": 3228, "pitch": 43, "duration": 94, "velocity": 127}, {"time": 3228, "pitch": 50, "duration": 94, "velocity": 127}, {"time": 3228, "pitch": 55, "duration": 94, "velocity": 127}], "annotations": [{"time": 16, "annotation": {"number": 64, "value": 127}, "group": "control_change"}, {"time": 55, "annotation": {"number": 64, "value": 0}, "group": "control_change"}, {"time": 62, "annotation": {"number": 64, "value": 127}, "group": "control_change"}, {"time": 153, "annotation": {"number": 64, "value": 0}, "group": "control_change"}, {"time": 163, "annotation": {"number": 64, "value": 127}, "group": "control_change"}, {"time": 195, "annotation": {"number": 64, "value": 0}, "group": "control_change"}, {"time": 200, "annotation": {"number": 64, "value": 127}, "group": "control_change"}, {"time": 245, "annotation": {"number": 64, "value": 0}, "group": "control_change"}, {"time": 249, "annotation": {"number": 64, "value": 127}, "group": "control_change"}, {"time": 294, "annotation": {"number": 64, "value": 0}, "group": "control_change"}, {"time": 295, "annotation": {"number": 64, "value": 127}, "group": "control_change"}, {"time": 340, "annotation": {"number": 64, "value": 0}, "group": "control_change"}, {"time": 344, "annotation": {"number": 64, "value": 127}, "group": "control_change"}, {"time": 389, "annotation": {"number": 64, "value": 0}, "group": "control_change"}, {"time": 392, "annotation": {"number": 64, "value": 127}, "group": "control_change"}, {"time": 436, "annotation": {"number": 64, "value": 0}, "group": "control_change"}, {"time": 440, "annotation": {"number": 64, "value": 127}, "group": "control_change"}, {"time": 484, "annotation": {"number": 64, "value": 0}, "group": "control_change"}, {"time": 488, "annotation": {"number": 64, "value": 127}, "group": "control_change"}, {"time": 533, "annotation": {"number": 64, "value": 0}, "group": "control_change"}, {"time": 536, "annotation": {"number": 64, "value": 127}, "group": "control_change"}, {"time": 580, "annotation": {"number": 64, "value": 0}, "group": "control_change"}, {"time": 584, "annotation": {"number": 64, "value": 127}, "group": "control_change"}, {"time": 627, "annotation": {"number": 64, "value": 0}, "group": "control_change"}, {"time": 632, "annotation": {"number": 64, "value": 127}, "group": "control_change"}, {"time": 652, "annotation": {"number": 64, "value": 0}, "group": "control_change"}, {"time": 656, "annotation": {"number": 64, "value": 127}, "group": "control_change"}, {"time": 676, "annotation": {"number": 64, "value": 0}, "group": "control_change"}, {"time": 680, "annotation": {"number": 64, "value": 127}, "group": "control_change"}, {"time": 700, "annotation": {"number": 64, "value": 0}, "group": "control_change"}, {"time": 704, "annotation": {"number": 64, "value": 127}, "group": "control_change"}, {"time": 724, "annotation": {"number": 64, "value": 0}, "group": "control_change"}, {"time": 728, "annotation": {"number": 64, "value": 127}, "group": "control_change"}, {"time": 747, "annotation": {"number": 64, "value": 0}, "group": "control_change"}, {"time": 752, "annotation": {"number": 64, "value": 127}, "group": "control_change"}, {"time": 769, "annotation": {"number": 64, "value": 0}, "group": "control_change"}, {"time": 776, "annotation": {"number": 64, "value": 127}, "group": "control_change"}, {"time": 795, "annotation": {"number": 64, "value": 0}, "group": "control_change"}, {"time": 800, "annotation": {"number": 64, "value": 127}, "group": "control_change"}, {"time": 808, "annotation": {"number": 64, "value": 0}, "group": "control_change"}, {"time": 812, "annotation": {"number": 64, "value": 127}, "group": "control_change"}, {"time": 820, "annotation": {"number": 64, "value": 0}, "group": "control_change"}, {"time": 824, "annotation": {"number": 64, "value": 127}, "group": "control_change"}, {"time": 843, "annotation": {"number": 64, "value": 0}, "group": "control_change"}, {"time": 848, "annotation": {"number": 64, "value": 127}, "group": "control_change"}, {"time": 849, "annotation": {"number": 64, "value": 0}, "group": "control_change"}, {"time": 860, "annotation": {"number": 64, "value": 127}, "group": "control_change"}, {"time": 867, "annotation": {"number": 64, "value": 0}, "group": "control_change"}, {"time": 872, "annotation": {"number": 64, "value": 127}, "group": "control_change"}, {"time": 891, "annotation": {"number": 64, "value": 0}, "group": "control_change"}, {"time": 895, "annotation": {"number": 64, "value": 127}, "group": "control_change"}, {"time": 905, "annotation": {"number": 64, "value": 0}, "group": "control_change"}, {"time": 908, "annotation": {"number": 64, "value": 127}, "group": "control_change"}, {"time": 908, "annotation": {"number": 64, "value": 0}, "group": "control_change"}, {"time": 1016, "annotation": {"number": 64, "value": 127}, "group": "control_change"}, {"time": 1037, "annotation": {"number": 64, "value": 0}, "group": "control_change"}, {"time": 1040, "annotation": {"number": 64, "value": 127}, "group": "control_change"}, {"time": 1061, "annotation": {"number": 64, "value": 0}, "group": "control_change"}, {"time": 1063, "annotation": {"number": 64, "value": 127}, "group": "control_change"}, {"time": 1085, "annotation": {"number": 64, "value": 0}, "group": "control_change"}, {"time": 1087, "annotation": {"number": 64, "value": 127}, "group": "control_change"}, {"time": 1109, "annotation": {"number": 64, "value": 0}, "group": "control_change"}, {"time": 1112, "annotation": {"number": 64, "value": 127}, "group": "control_change"}, {"time": 1133, "annotation": {"number": 64, "value": 0}, "group": "control_change"}, {"time": 1136, "annotation": {"number": 64, "value": 127}, "group": "control_change"}, {"time": 1156, "annotation": {"number": 64, "value": 0}, "group": "control_change"}, {"time": 1160, "annotation": {"number": 64, "value": 127}, "group": "control_change"}, {"time": 1181, "annotation": {"number": 64, "value": 0}, "group": "control_change"}, {"time": 1184, "annotation": {"number": 64, "value": 127}, "group": "control_change"}, {"time": 1204, "annotation": {"number": 64, "value": 0}, "group": "control_change"}, {"time": 1208, "annotation": {"number": 64, "value": 127}, "group": "control_change"}, {"time": 1228, "annotation": {"number": 64, "value": 0}, "group": "control_change"}, {"time": 1232, "annotation": {"number": 64, "value": 127}, "group": "control_change"}, {"time": 1252, "annotation": {"number": 64, "value": 0}, "group": "control_change"}, {"time": 1255, "annotation": {"number": 64, "value": 127}, "group": "control_change"}, {"time": 1266, "annotation": {"number": 64, "value": 0}, "group": "control_change"}, {"time": 1270, "annotation": {"number": 64, "value": 127}, "group": "control_change"}, {"time": 1277, "annotation": {"number": 64, "value": 0}, "group": "control_change"}, {"time": 1280, "annotation": {"number": 64, "value": 127}, "group": "control_change"}, {"time": 1301, "annotation": {"number": 64, "value": 0}, "group": "control_change"}, {"time": 1304, "annotation": {"number": 64, "value": 127}, "group": "control_change"}, {"time": 1324, "annotation": {"number": 64, "value": 0}, "group": "control_change"}, {"time": 1328, "annotation": {"number": 64, "value": 127}, "group": "control_change"}, {"time": 1348, "annotation": {"number": 64, "value": 0}, "group": "control_change"}, {"time": 1352, "annotation": {"number": 64, "value": 127}, "group": "control_change"}, {"time": 1373, "annotation": {"number": 64, "value": 0}, "group": "control_change"}, {"time": 1376, "annotation": {"number": 64, "value": 127}, "group": "control_change"}, {"time": 1396, "annotation": {"number": 64, "value": 0}, "group": "control_change"}, {"time": 1400, "annotation": {"number": 64, "value": 127}, "group": "control_change"}, {"time": 1421, "annotation": {"number": 64, "value": 0}, "group": "control_change"}, {"time": 1424, "annotation": {"number": 64, "value": 127}, "group": "control_change"}, {"time": 1445, "annotation": {"number": 64, "value": 0}, "group": "control_change"}, {"time": 1447, "annotation": {"number": 64, "value": 127}, "group": "control_change"}, {"time": 1469, "annotation": {"number": 64, "value": 0}, "group": "control_change"}, {"time": 1471, "annotation": {"number": 64, "value": 127}, "group": "control_change"}, {"time": 1493, "annotation": {"number": 64, "value": 0}, "group": "control_change"}, {"time": 1496, "annotation": {"number": 64, "value": 127}, "group": "control_change"}, {"time": 1517, "annotation": {"number": 64, "value": 0}, "group": "control_change"}, {"time": 1520, "annotation": {"number": 64, "value": 127}, "group": "control_change"}, {"time": 1540, "annotation": {"number": 64, "value": 0}, "group": "control_change"}, {"time": 1544, "annotation": {"number": 64, "value": 127}, "group": "control_change"}, {"time": 1565, "annotation": {"number": 64, "value": 0}, "group": "control_change"}, {"time": 1568, "annotation": {"number": 64, "value": 127}, "group": "control_change"}, {"time": 1588, "annotation": {"number": 64, "value": 0}, "group": "control_change"}, {"time": 1592, "annotation": {"number": 64, "value": 127}, "group": "control_change"}, {"time": 1612, "annotation": {"number": 64, "value": 0}, "group": "control_change"}, {"time": 1616, "annotation": {"number": 64, "value": 127}, "group": "control_change"}, {"time": 1636, "annotation": {"number": 64, "value": 0}, "group": "control_change"}, {"time": 1639, "annotation": {"number": 64, "value": 127}, "group": "control_change"}, {"time": 1650, "annotation": {"number": 64, "value": 0}, "group": "control_change"}, {"time": 1654, "annotation": {"number": 64, "value": 127}, "group": "control_change"}, {"time": 1661, "annotation": {"number": 64, "value": 0}, "group": "control_change"}, {"time": 1664, "annotation": {"number": 64, "value": 127}, "group": "control_change"}, {"time": 1685, "annotation": {"number": 64, "value": 0}, "group": "control_change"}, {"time": 1688, "annotation": {"number": 64, "value": 127}, "group": "control_change"}, {"time": 1708, "annotation": {"number": 64, "value": 0}, "group": "control_change"}, {"time": 1712, "annotation": {"number": 64, "value": 127}, "group": "control_change"}, {"time": 1732, "annotation": {"number": 64, "value": 0}, "group": "control_change"}, {"time": 1742, "annotation": {"number": 64, "value": 127}, "group": "control_change"}, {"time": 1747, "annotation": {"number": 64, "value": 0}, "group": "control_change"}, {"time": 1753, "annotation": {"number": 64, "value": 127}, "group": "control_change"}, {"time": 1761, "annotation": {"number": 64, "value": 0}, "group": "control_change"}, {"time": 1928, "annotation": {"number": 64, "value": 127}, "group": "control_change"}, {"time": 1944, "annotation": {"number": 64, "value": 0}, "group": "control_change"}, {"time": 1952, "annotation": {"number": 64, "value": 127}, "group": "control_change"}, {"time": 1972, "annotation": {"number": 64, "value": 0}, "group": "control_change"}, {"time": 1976, "annotation": {"number": 64, "value": 127}, "group": "control_change"}, {"time": 1999, "annotation": {"number": 64, "value": 0}, "group": "control_change"}, {"time": 2048, "annotation": {"number": 64, "value": 127}, "group": "control_change"}, {"time": 2067, "annotation": {"number": 64, "value": 0}, "group": "control_change"}, {"time": 2073, "annotation": {"number": 64, "value": 127}, "group": "control_change"}, {"time": 2104, "annotation": {"number": 64, "value": 0}, "group": "control_change"}, {"time": 2107, "annotation": {"number": 64, "value": 127}, "group": "control_change"}, {"time": 2111, "annotation": {"number": 64, "value": 0}, "group": "control_change"}, {"time": 2119, "annotation": {"number": 64, "value": 127}, "group": "control_change"}, {"time": 2134, "annotation": {"number": 64, "value": 0}, "group": "control_change"}, {"time": 2143, "annotation": {"number": 64, "value": 127}, "group": "control_change"}, {"time": 2163, "annotation": {"number": 64, "value": 0}, "group": "control_change"}, {"time": 2168, "annotation": {"number": 64, "value": 127}, "group": "control_change"}, {"time": 2203, "annotation": {"number": 64, "value": 0}, "group": "control_change"}, {"time": 2204, "annotation": {"number": 64, "value": 127}, "group": "control_change"}, {"time": 2207, "annotation": {"number": 64, "value": 0}, "group": "control_change"}, {"time": 2215, "annotation": {"number": 64, "value": 127}, "group": "control_change"}, {"time": 2234, "annotation": {"number": 64, "value": 0}, "group": "control_change"}, {"time": 2263, "annotation": {"number": 64, "value": 127}, "group": "control_change"}, {"time": 2307, "annotation": {"number": 64, "value": 0}, "group": "control_change"}, {"time": 2312, "annotation": {"number": 64, "value": 127}, "group": "control_change"}, {"time": 2356, "annotation": {"number": 64, "value": 0}, "group": "control_change"}, {"time": 2360, "annotation": {"number": 64, "value": 127}, "group": "control_change"}, {"time": 2403, "annotation": {"number": 64, "value": 0}, "group": "control_change"}, {"time": 2408, "annotation": {"number": 64, "value": 127}, "group": "control_change"}, {"time": 2445, "annotation": {"number": 64, "value": 0}, "group": "control_change"}, {"time": 2455, "annotation": {"number": 64, "value": 127}, "group": "control_change"}, {"time": 2475, "annotation": {"number": 64, "value": 0}, "group": "control_change"}, {"time": 2480, "annotation": {"number": 64, "value": 127}, "group": "control_change"}, {"time": 2500, "annotation": {"number": 64, "value": 0}, "group": "control_change"}, {"time": 2504, "annotation": {"number": 64, "value": 127}, "group": "control_change"}, {"time": 2512, "annotation": {"number": 64, "value": 0}, "group": "control_change"}, {"time": 2516, "annotation": {"number": 64, "value": 127}, "group": "control_change"}, {"time": 2524, "annotation": {"number": 64, "value": 0}, "group": "control_change"}, {"time": 2527, "annotation": {"number": 64, "value": 127}, "group": "control_change"}, {"time": 2547, "annotation": {"number": 64, "value": 0}, "group": "control_change"}, {"time": 2552, "annotation": {"number": 64, "value": 127}, "group": "control_change"}, {"time": 2574, "annotation": {"number": 64, "value": 0}, "group": "control_change"}, {"time": 2604, "annotation": {"number": 64, "value": 127}, "group": "control_change"}, {"time": 2605, "annotation": {"number": 64, "value": 0}, "group": "control_change"}, {"time": 2647, "annotation": {"number": 64, "value": 127}, "group": "control_change"}, {"time": 2650, "annotation": {"number": 64, "value": 0}, "group": "control_change"}, {"time": 2696, "annotation": {"number": 64, "value": 127}, "group": "control_change"}, {"time": 2717, "annotation": {"number": 64, "value": 0}, "group": "control_change"}, {"time": 2720, "annotation": {"number": 64, "value": 127}, "group": "control_change"}, {"time": 2741, "annotation": {"number": 64, "value": 0}, "group": "control_change"}, {"time": 2743, "annotation": {"number": 64, "value": 127}, "group": "control_change"}, {"time": 2765, "annotation": {"number": 64, "value": 0}, "group": "control_change"}, {"time": 2767, "annotation": {"number": 64, "value": 127}, "group": "control_change"}, {"time": 2789, "annotation": {"number": 64, "value": 0}, "group": "control_change"}, {"time": 2792, "annotation": {"number": 64, "value": 127}, "group": "control_change"}, {"time": 2813, "annotation": {"number": 64, "value": 0}, "group": "control_change"}, {"time": 2816, "annotation": {"number": 64, "value": 127}, "group": "control_change"}, {"time": 2836, "annotation": {"number": 64, "value": 0}, "group": "control_change"}, {"time": 2840, "annotation": {"number": 64, "value": 127}, "group": "control_change"}, {"time": 2861, "annotation": {"number": 64, "value": 0}, "group": "control_change"}, {"time": 2864, "annotation": {"number": 64, "value": 127}, "group": "control_change"}, {"time": 2884, "annotation": {"number": 64, "value": 0}, "group": "control_change"}, {"time": 2888, "annotation": {"number": 64, "value": 127}, "group": "control_change"}, {"time": 2908, "annotation": {"number": 64, "value": 0}, "group": "control_change"}, {"time": 2912, "annotation": {"number": 64, "value": 127}, "group": "control_change"}, {"time": 2932, "annotation": {"number": 64, "value": 0}, "group": "control_change"}, {"time": 2935, "annotation": {"number": 64, "value": 127}, "group": "control_change"}, {"time": 2946, "annotation": {"number": 64, "value": 0}, "group": "control_change"}, {"time": 2950, "annotation": {"number": 64, "value": 127}, "group": "control_change"}, {"time": 2957, "annotation": {"number": 64, "value": 0}, "group": "control_change"}, {"time": 2960, "annotation": {"number": 64, "value": 127}, "group": "control_change"}, {"time": 2981, "annotation": {"number": 64, "value": 0}, "group": "control_change"}, {"time": 2984, "annotation": {"number": 64, "value": 127}, "group": "control_change"}, {"time": 3004, "annotation": {"number": 64, "value": 0}, "group": "control_change"}, {"time": 3008, "annotation": {"number": 64, "value": 127}, "group": "control_change"}, {"time": 3028, "annotation": {"number": 64, "value": 0}, "group": "control_change"}, {"time": 3031, "annotation": {"number": 64, "value": 127}, "group": "control_change"}, {"time": 3034, "annotation": {"number": 64, "value": 0}, "group": "control_change"}]}]}