{"metadata": {"schema_version": "0.2", "title": "None", "source_filename": "772.mid", "source_format": "midi"}, "resolution": 12, "tempos": [{"time": 0, "qpm": 84.000084000084}], "time_signatures": [{"time": 0, "numerator": 1, "denominator": 4}], "tracks": [{"program": 0, "is_drum": false, "name": "MELODY", "notes": [{"time": 394, "pitch": 62, "duration": 5, "velocity": 89}, {"time": 400, "pitch": 62, "duration": 4, "velocity": 90}, {"time": 406, "pitch": 62, "duration": 5, "velocity": 92}, {"time": 412, "pitch": 62, "duration": 5, "velocity": 100}, {"time": 418, "pitch": 67, "duration": 4, "velocity": 102}, {"time": 424, "pitch": 67, "duration": 6, "velocity": 97}, {"time": 430, "pitch": 62, "duration": 6, "velocity": 92}, {"time": 436, "pitch": 69, "duration": 6, "velocity": 102}, {"time": 445, "pitch": 69, "duration": 6, "velocity": 102}, {"time": 454, "pitch": 62, "duration": 11, "velocity": 99}, {"time": 466, "pitch": 62, "duration": 6, "velocity": 96}, {"time": 472, "pitch": 67, "duration": 5, "velocity": 96}, {"time": 478, "pitch": 66, "duration": 4, "velocity": 93}, {"time": 484, "pitch": 66, "duration": 6, "velocity": 100}, {"time": 490, "pitch": 64, "duration": 13, "velocity": 82}, {"time": 514, "pitch": 64, "duration": 3, "velocity": 93}, {"time": 520, "pitch": 64, "duration": 5, "velocity": 85}, {"time": 526, "pitch": 62, "duration": 4, "velocity": 78}, {"time": 532, "pitch": 62, "duration": 5, "velocity": 96}, {"time": 538, "pitch": 59, "duration": 15, "velocity": 79}, {"time": 550, "pitch": 59, "duration": 3, "velocity": 88}, {"time": 556, "pitch": 59, "duration": 5, "velocity": 86}, {"time": 562, "pitch": 57, "duration": 3, "velocity": 72}, {"time": 568, "pitch": 57, "duration": 6, "velocity": 86}, {"time": 574, "pitch": 55, "duration": 4, "velocity": 68}, {"time": 580, "pitch": 55, "duration": 10, "velocity": 89}, {"time": 604, "pitch": 59, "duration": 5, "velocity": 90}, {"time": 610, "pitch": 57, "duration": 4, "velocity": 77}, {"time": 616, "pitch": 57, "duration": 6, "velocity": 92}, {"time": 622, "pitch": 55, "duration": 6, "velocity": 82}, {"time": 628, "pitch": 62, "duration": 12, "velocity": 102}, {"time": 652, "pitch": 64, "duration": 5, "velocity": 93}, {"time": 658, "pitch": 62, "duration": 3, "velocity": 83}, {"time": 664, "pitch": 64, "duration": 6, "velocity": 97}, {"time": 676, "pitch": 62, "duration": 8, "velocity": 99}, {"time": 685, "pitch": 59, "duration": 34, "velocity": 92}, {"time": 778, "pitch": 62, "duration": 5, "velocity": 89}, {"time": 784, "pitch": 62, "duration": 4, "velocity": 90}, {"time": 790, "pitch": 62, "duration": 5, "velocity": 92}, {"time": 796, "pitch": 62, "duration": 5, "velocity": 100}, {"time": 802, "pitch": 67, "duration": 4, "velocity": 102}, {"time": 808, "pitch": 67, "duration": 6, "velocity": 97}, {"time": 814, "pitch": 62, "duration": 6, "velocity": 92}, {"time": 820, "pitch": 69, "duration": 6, "velocity": 102}, {"time": 829, "pitch": 69, "duration": 6, "velocity": 102}, {"time": 838, "pitch": 62, "duration": 11, "velocity": 99}, {"time": 850, "pitch": 62, "duration": 6, "velocity": 96}, {"time": 856, "pitch": 67, "duration": 5, "velocity": 96}, {"time": 862, "pitch": 66, "duration": 4, "velocity": 93}, {"time": 868, "pitch": 66, "duration": 6, "velocity": 100}, {"time": 874, "pitch": 64, "duration": 13, "velocity": 82}, {"time": 898, "pitch": 62, "duration": 5, "velocity": 95}, {"time": 904, "pitch": 62, "duration": 5, "velocity": 95}, {"time": 910, "pitch": 64, "duration": 4, "velocity": 93}, {"time": 916, "pitch": 62, "duration": 3, "velocity": 95}, {"time": 922, "pitch": 59, "duration": 15, "velocity": 79}, {"time": 940, "pitch": 57, "duration": 5, "velocity": 92}, {"time": 946, "pitch": 59, "duration": 5, "velocity": 90}, {"time": 952, "pitch": 57, "duration": 4, "velocity": 93}, {"time": 958, "pitch": 59, "duration": 5, "velocity": 88}, {"time": 964, "pitch": 55, "duration": 20, "velocity": 82}, {"time": 988, "pitch": 57, "duration": 4, "velocity": 85}, {"time": 994, "pitch": 59, "duration": 6, "velocity": 86}, {"time": 1000, "pitch": 57, "duration": 6, "velocity": 83}, {"time": 1006, "pitch": 55, "duration": 5, "velocity": 86}, {"time": 1012, "pitch": 62, "duration": 12, "velocity": 102}, {"time": 1030, "pitch": 57, "duration": 4, "velocity": 85}, {"time": 1036, "pitch": 59, "duration": 6, "velocity": 79}, {"time": 1042, "pitch": 57, "duration": 3, "velocity": 74}, {"time": 1048, "pitch": 57, "duration": 6, "velocity": 89}, {"time": 1054, "pitch": 55, "duration": 3, "velocity": 76}, {"time": 1060, "pitch": 57, "duration": 12, "velocity": 93}, {"time": 1072, "pitch": 55, "duration": 29, "velocity": 90}, {"time": 1132, "pitch": 66, "duration": 6, "velocity": 122}, {"time": 1138, "pitch": 67, "duration": 5, "velocity": 92}, {"time": 1144, "pitch": 66, "duration": 6, "velocity": 117}, {"time": 1150, "pitch": 59, "duration": 16, "velocity": 99}, {"time": 1180, "pitch": 66, "duration": 4, "velocity": 107}, {"time": 1186, "pitch": 67, "duration": 4, "velocity": 96}, {"time": 1192, "pitch": 66, "duration": 2, "velocity": 117}, {"time": 1198, "pitch": 59, "duration": 21, "velocity": 92}, {"time": 1228, "pitch": 71, "duration": 5, "velocity": 112}, {"time": 1234, "pitch": 69, "duration": 3, "velocity": 90}, {"time": 1240, "pitch": 69, "duration": 5, "velocity": 97}, {"time": 1246, "pitch": 67, "duration": 4, "velocity": 90}, {"time": 1252, "pitch": 69, "duration": 5, "velocity": 100}, {"time": 1258, "pitch": 67, "duration": 3, "velocity": 89}, {"time": 1264, "pitch": 67, "duration": 5, "velocity": 102}, {"time": 1270, "pitch": 67, "duration": 6, "velocity": 102}, {"time": 1276, "pitch": 64, "duration": 7, "velocity": 99}, {"time": 1285, "pitch": 62, "duration": 12, "velocity": 95}, {"time": 1294, "pitch": 64, "duration": 3, "velocity": 96}, {"time": 1300, "pitch": 59, "duration": 12, "velocity": 96}, {"time": 1318, "pitch": 59, "duration": 3, "velocity": 112}, {"time": 1324, "pitch": 59, "duration": 5, "velocity": 100}, {"time": 1330, "pitch": 57, "duration": 4, "velocity": 90}, {"time": 1336, "pitch": 57, "duration": 5, "velocity": 81}, {"time": 1342, "pitch": 55, "duration": 4, "velocity": 93}, {"time": 1348, "pitch": 55, "duration": 13, "velocity": 93}, {"time": 1366, "pitch": 55, "duration": 3, "velocity": 97}, {"time": 1372, "pitch": 59, "duration": 3, "velocity": 92}, {"time": 1378, "pitch": 57, "duration": 3, "velocity": 88}, {"time": 1384, "pitch": 57, "duration": 4, "velocity": 92}, {"time": 1390, "pitch": 55, "duration": 4, "velocity": 90}, {"time": 1396, "pitch": 62, "duration": 6, "velocity": 100}, {"time": 1414, "pitch": 62, "duration": 2, "velocity": 96}, {"time": 1420, "pitch": 64, "duration": 2, "velocity": 99}, {"time": 1426, "pitch": 62, "duration": 3, "velocity": 86}, {"time": 1432, "pitch": 64, "duration": 3, "velocity": 93}, {"time": 1438, "pitch": 62, "duration": 9, "velocity": 93}, {"time": 1450, "pitch": 59, "duration": 16, "velocity": 90}, {"time": 1516, "pitch": 66, "duration": 6, "velocity": 122}, {"time": 1522, "pitch": 67, "duration": 5, "velocity": 92}, {"time": 1528, "pitch": 66, "duration": 6, "velocity": 117}, {"time": 1534, "pitch": 59, "duration": 16, "velocity": 99}, {"time": 1564, "pitch": 66, "duration": 4, "velocity": 107}, {"time": 1570, "pitch": 67, "duration": 4, "velocity": 96}, {"time": 1576, "pitch": 66, "duration": 2, "velocity": 117}, {"time": 1582, "pitch": 59, "duration": 21, "velocity": 92}, {"time": 1612, "pitch": 71, "duration": 5, "velocity": 112}, {"time": 1618, "pitch": 69, "duration": 3, "velocity": 90}, {"time": 1624, "pitch": 69, "duration": 5, "velocity": 97}, {"time": 1630, "pitch": 67, "duration": 4, "velocity": 90}, {"time": 1636, "pitch": 71, "duration": 4, "velocity": 127}, {"time": 1642, "pitch": 69, "duration": 3, "velocity": 96}, {"time": 1648, "pitch": 69, "duration": 4, "velocity": 100}, {"time": 1654, "pitch": 67, "duration": 3, "velocity": 100}, {"time": 1660, "pitch": 69, "duration": 5, "velocity": 112}, {"time": 1669, "pitch": 69, "duration": 6, "velocity": 100}, {"time": 1678, "pitch": 74, "duration": 6, "velocity": 117}, {"time": 1690, "pitch": 71, "duration": 8, "velocity": 117}, {"time": 1702, "pitch": 71, "duration": 4, "velocity": 127}, {"time": 1708, "pitch": 69, "duration": 4, "velocity": 97}, {"time": 1714, "pitch": 71, "duration": 4, "velocity": 102}, {"time": 1720, "pitch": 69, "duration": 3, "velocity": 127}, {"time": 1726, "pitch": 67, "duration": 4, "velocity": 102}, {"time": 1732, "pitch": 64, "duration": 11, "velocity": 96}, {"time": 1750, "pitch": 71, "duration": 3, "velocity": 107}, {"time": 1756, "pitch": 69, "duration": 4, "velocity": 107}, {"time": 1762, "pitch": 71, "duration": 3, "velocity": 102}, {"time": 1768, "pitch": 69, "duration": 2, "velocity": 122}, {"time": 1774, "pitch": 67, "duration": 3, "velocity": 100}, {"time": 1780, "pitch": 69, "duration": 8, "velocity": 122}, {"time": 1798, "pitch": 71, "duration": 4, "velocity": 117}, {"time": 1804, "pitch": 69, "duration": 4, "velocity": 112}, {"time": 1810, "pitch": 71, "duration": 3, "velocity": 75}, {"time": 1816, "pitch": 69, "duration": 3, "velocity": 112}, {"time": 1822, "pitch": 67, "duration": 2, "velocity": 97}, {"time": 1828, "pitch": 69, "duration": 7, "velocity": 100}, {"time": 1834, "pitch": 67, "duration": 5, "velocity": 93}, {"time": 1840, "pitch": 64, "duration": 19, "velocity": 99}, {"time": 1900, "pitch": 69, "duration": 10, "velocity": 117}, {"time": 1912, "pitch": 67, "duration": 12, "velocity": 99}, {"time": 1924, "pitch": 74, "duration": 29, "velocity": 127}, {"time": 2074, "pitch": 62, "duration": 5, "velocity": 89}, {"time": 2080, "pitch": 62, "duration": 4, "velocity": 90}, {"time": 2086, "pitch": 62, "duration": 5, "velocity": 92}, {"time": 2092, "pitch": 62, "duration": 5, "velocity": 100}, {"time": 2098, "pitch": 67, "duration": 4, "velocity": 102}, {"time": 2104, "pitch": 67, "duration": 6, "velocity": 97}, {"time": 2110, "pitch": 62, "duration": 6, "velocity": 92}, {"time": 2116, "pitch": 69, "duration": 6, "velocity": 102}, {"time": 2125, "pitch": 69, "duration": 6, "velocity": 102}, {"time": 2134, "pitch": 62, "duration": 11, "velocity": 99}, {"time": 2146, "pitch": 62, "duration": 6, "velocity": 96}, {"time": 2152, "pitch": 67, "duration": 5, "velocity": 96}, {"time": 2158, "pitch": 66, "duration": 4, "velocity": 93}, {"time": 2164, "pitch": 66, "duration": 6, "velocity": 100}, {"time": 2170, "pitch": 64, "duration": 13, "velocity": 82}, {"time": 2194, "pitch": 62, "duration": 5, "velocity": 95}, {"time": 2200, "pitch": 62, "duration": 5, "velocity": 95}, {"time": 2206, "pitch": 64, "duration": 4, "velocity": 93}, {"time": 2212, "pitch": 62, "duration": 3, "velocity": 95}, {"time": 2218, "pitch": 59, "duration": 15, "velocity": 79}, {"time": 2236, "pitch": 57, "duration": 5, "velocity": 92}, {"time": 2242, "pitch": 59, "duration": 5, "velocity": 90}, {"time": 2248, "pitch": 57, "duration": 4, "velocity": 93}, {"time": 2254, "pitch": 59, "duration": 5, "velocity": 88}, {"time": 2260, "pitch": 55, "duration": 20, "velocity": 82}, {"time": 2284, "pitch": 57, "duration": 4, "velocity": 85}, {"time": 2290, "pitch": 59, "duration": 6, "velocity": 86}, {"time": 2296, "pitch": 57, "duration": 6, "velocity": 83}, {"time": 2302, "pitch": 55, "duration": 5, "velocity": 86}, {"time": 2308, "pitch": 62, "duration": 12, "velocity": 102}, {"time": 2326, "pitch": 57, "duration": 4, "velocity": 85}, {"time": 2332, "pitch": 59, "duration": 6, "velocity": 79}, {"time": 2338, "pitch": 57, "duration": 3, "velocity": 74}, {"time": 2344, "pitch": 57, "duration": 6, "velocity": 89}, {"time": 2350, "pitch": 55, "duration": 3, "velocity": 76}, {"time": 2356, "pitch": 57, "duration": 12, "velocity": 93}, {"time": 2368, "pitch": 55, "duration": 29, "velocity": 90}, {"time": 2428, "pitch": 66, "duration": 6, "velocity": 122}, {"time": 2434, "pitch": 67, "duration": 5, "velocity": 92}, {"time": 2440, "pitch": 66, "duration": 6, "velocity": 117}, {"time": 2446, "pitch": 59, "duration": 16, "velocity": 99}, {"time": 2476, "pitch": 66, "duration": 4, "velocity": 107}, {"time": 2482, "pitch": 67, "duration": 4, "velocity": 96}, {"time": 2488, "pitch": 66, "duration": 2, "velocity": 117}, {"time": 2494, "pitch": 59, "duration": 21, "velocity": 92}, {"time": 2524, "pitch": 71, "duration": 5, "velocity": 112}, {"time": 2530, "pitch": 69, "duration": 3, "velocity": 90}, {"time": 2536, "pitch": 69, "duration": 5, "velocity": 97}, {"time": 2542, "pitch": 67, "duration": 4, "velocity": 90}, {"time": 2548, "pitch": 69, "duration": 5, "velocity": 100}, {"time": 2554, "pitch": 67, "duration": 3, "velocity": 89}, {"time": 2560, "pitch": 67, "duration": 5, "velocity": 102}, {"time": 2566, "pitch": 67, "duration": 6, "velocity": 102}, {"time": 2572, "pitch": 64, "duration": 7, "velocity": 99}, {"time": 2581, "pitch": 62, "duration": 12, "velocity": 95}, {"time": 2590, "pitch": 64, "duration": 3, "velocity": 96}, {"time": 2596, "pitch": 59, "duration": 12, "velocity": 96}, {"time": 2614, "pitch": 59, "duration": 3, "velocity": 112}, {"time": 2620, "pitch": 59, "duration": 5, "velocity": 100}, {"time": 2626, "pitch": 57, "duration": 4, "velocity": 90}, {"time": 2632, "pitch": 57, "duration": 5, "velocity": 81}, {"time": 2638, "pitch": 55, "duration": 4, "velocity": 93}, {"time": 2644, "pitch": 55, "duration": 13, "velocity": 93}, {"time": 2662, "pitch": 55, "duration": 3, "velocity": 97}, {"time": 2668, "pitch": 59, "duration": 3, "velocity": 92}, {"time": 2674, "pitch": 57, "duration": 3, "velocity": 88}, {"time": 2680, "pitch": 57, "duration": 4, "velocity": 92}, {"time": 2686, "pitch": 55, "duration": 4, "velocity": 90}, {"time": 2692, "pitch": 62, "duration": 6, "velocity": 100}, {"time": 2710, "pitch": 62, "duration": 2, "velocity": 96}, {"time": 2716, "pitch": 64, "duration": 2, "velocity": 99}, {"time": 2722, "pitch": 62, "duration": 3, "velocity": 86}, {"time": 2728, "pitch": 64, "duration": 3, "velocity": 93}, {"time": 2734, "pitch": 62, "duration": 9, "velocity": 93}, {"time": 2746, "pitch": 59, "duration": 16, "velocity": 90}, {"time": 2812, "pitch": 66, "duration": 6, "velocity": 122}, {"time": 2818, "pitch": 67, "duration": 5, "velocity": 92}, {"time": 2824, "pitch": 66, "duration": 6, "velocity": 117}, {"time": 2830, "pitch": 59, "duration": 16, "velocity": 99}, {"time": 2860, "pitch": 66, "duration": 4, "velocity": 107}, {"time": 2866, "pitch": 67, "duration": 4, "velocity": 96}, {"time": 2872, "pitch": 66, "duration": 2, "velocity": 117}, {"time": 2878, "pitch": 59, "duration": 21, "velocity": 92}, {"time": 2908, "pitch": 71, "duration": 5, "velocity": 112}, {"time": 2914, "pitch": 69, "duration": 3, "velocity": 90}, {"time": 2920, "pitch": 69, "duration": 5, "velocity": 97}, {"time": 2926, "pitch": 67, "duration": 4, "velocity": 90}, {"time": 2932, "pitch": 71, "duration": 4, "velocity": 127}, {"time": 2938, "pitch": 69, "duration": 3, "velocity": 96}, {"time": 2944, "pitch": 69, "duration": 4, "velocity": 100}, {"time": 2950, "pitch": 67, "duration": 3, "velocity": 100}, {"time": 2956, "pitch": 69, "duration": 5, "velocity": 112}, {"time": 2965, "pitch": 69, "duration": 6, "velocity": 100}, {"time": 2974, "pitch": 74, "duration": 6, "velocity": 117}, {"time": 2986, "pitch": 71, "duration": 8, "velocity": 117}, {"time": 2998, "pitch": 71, "duration": 4, "velocity": 127}, {"time": 3004, "pitch": 69, "duration": 4, "velocity": 97}, {"time": 3010, "pitch": 71, "duration": 4, "velocity": 102}, {"time": 3016, "pitch": 69, "duration": 3, "velocity": 127}, {"time": 3022, "pitch": 67, "duration": 4, "velocity": 102}, {"time": 3028, "pitch": 64, "duration": 11, "velocity": 96}, {"time": 3046, "pitch": 71, "duration": 3, "velocity": 107}, {"time": 3052, "pitch": 69, "duration": 4, "velocity": 107}, {"time": 3058, "pitch": 71, "duration": 3, "velocity": 102}, {"time": 3064, "pitch": 69, "duration": 2, "velocity": 122}, {"time": 3070, "pitch": 67, "duration": 3, "velocity": 100}, {"time": 3076, "pitch": 69, "duration": 8, "velocity": 122}, {"time": 3094, "pitch": 71, "duration": 4, "velocity": 117}, {"time": 3100, "pitch": 69, "duration": 4, "velocity": 112}, {"time": 3106, "pitch": 71, "duration": 3, "velocity": 75}, {"time": 3112, "pitch": 69, "duration": 3, "velocity": 112}, {"time": 3118, "pitch": 67, "duration": 2, "velocity": 97}, {"time": 3124, "pitch": 69, "duration": 7, "velocity": 100}, {"time": 3130, "pitch": 67, "duration": 5, "velocity": 93}, {"time": 3136, "pitch": 64, "duration": 19, "velocity": 99}, {"time": 3172, "pitch": 67, "duration": 17, "velocity": 127}, {"time": 3196, "pitch": 69, "duration": 4, "velocity": 127}, {"time": 3202, "pitch": 71, "duration": 4, "velocity": 127}, {"time": 3208, "pitch": 69, "duration": 3, "velocity": 122}, {"time": 3214, "pitch": 67, "duration": 27, "velocity": 127}, {"time": 3244, "pitch": 69, "duration": 5, "velocity": 127}, {"time": 3250, "pitch": 71, "duration": 5, "velocity": 112}, {"time": 3256, "pitch": 69, "duration": 6, "velocity": 117}, {"time": 3262, "pitch": 67, "duration": 3, "velocity": 90}, {"time": 3265, "pitch": 69, "duration": 19, "velocity": 83}, {"time": 3292, "pitch": 71, "duration": 5, "velocity": 112}, {"time": 3298, "pitch": 69, "duration": 3, "velocity": 90}, {"time": 3304, "pitch": 69, "duration": 5, "velocity": 97}, {"time": 3310, "pitch": 67, "duration": 4, "velocity": 90}, {"time": 3316, "pitch": 71, "duration": 4, "velocity": 127}, {"time": 3322, "pitch": 69, "duration": 3, "velocity": 96}, {"time": 3328, "pitch": 69, "duration": 4, "velocity": 100}, {"time": 3334, "pitch": 67, "duration": 3, "velocity": 100}, {"time": 3340, "pitch": 69, "duration": 5, "velocity": 112}, {"time": 3349, "pitch": 69, "duration": 6, "velocity": 100}, {"time": 3358, "pitch": 74, "duration": 6, "velocity": 117}, {"time": 3370, "pitch": 71, "duration": 8, "velocity": 117}, {"time": 3382, "pitch": 71, "duration": 4, "velocity": 127}, {"time": 3388, "pitch": 69, "duration": 4, "velocity": 97}, {"time": 3394, "pitch": 71, "duration": 4, "velocity": 102}, {"time": 3400, "pitch": 69, "duration": 3, "velocity": 127}, {"time": 3406, "pitch": 67, "duration": 4, "velocity": 102}, {"time": 3412, "pitch": 64, "duration": 11, "velocity": 96}, {"time": 3430, "pitch": 71, "duration": 3, "velocity": 107}, {"time": 3436, "pitch": 69, "duration": 4, "velocity": 107}, {"time": 3442, "pitch": 71, "duration": 3, "velocity": 102}, {"time": 3448, "pitch": 69, "duration": 2, "velocity": 122}, {"time": 3454, "pitch": 67, "duration": 3, "velocity": 100}, {"time": 3460, "pitch": 69, "duration": 8, "velocity": 122}, {"time": 3478, "pitch": 71, "duration": 4, "velocity": 117}, {"time": 3484, "pitch": 69, "duration": 4, "velocity": 112}, {"time": 3490, "pitch": 71, "duration": 3, "velocity": 75}, {"time": 3496, "pitch": 69, "duration": 3, "velocity": 112}, {"time": 3502, "pitch": 67, "duration": 2, "velocity": 97}, {"time": 3508, "pitch": 69, "duration": 7, "velocity": 100}, {"time": 3514, "pitch": 67, "duration": 5, "velocity": 93}, {"time": 3520, "pitch": 64, "duration": 19, "velocity": 99}, {"time": 3580, "pitch": 69, "duration": 9, "velocity": 122}, {"time": 3592, "pitch": 67, "duration": 10, "velocity": 100}, {"time": 3604, "pitch": 74, "duration": 40, "velocity": 127}]}, {"program": 0, "is_drum": false, "name": "PIANO", "notes": [{"time": 4, "pitch": 43, "duration": 35, "velocity": 82}, {"time": 10, "pitch": 50, "duration": 30, "velocity": 60}, {"time": 16, "pitch": 55, "duration": 14, "velocity": 68}, {"time": 22, "pitch": 67, "duration": 39, "velocity": 77}, {"time": 34, "pitch": 55, "duration": 6, "velocity": 52}, {"time": 40, "pitch": 62, "duration": 21, "velocity": 90}, {"time": 46, "pitch": 59, "duration": 9, "velocity": 52}, {"time": 52, "pitch": 42, "duration": 39, "velocity": 79}, {"time": 58, "pitch": 54, "duration": 21, "velocity": 45}, {"time": 64, "pitch": 59, "duration": 26, "velocity": 70}, {"time": 70, "pitch": 62, "duration": 32, "velocity": 83}, {"time": 82, "pitch": 54, "duration": 7, "velocity": 56}, {"time": 88, "pitch": 66, "duration": 13, "velocity": 76}, {"time": 94, "pitch": 59, "duration": 8, "velocity": 63}, {"time": 100, "pitch": 40, "duration": 37, "velocity": 71}, {"time": 106, "pitch": 47, "duration": 30, "velocity": 48}, {"time": 112, "pitch": 52, "duration": 13, "velocity": 62}, {"time": 118, "pitch": 64, "duration": 32, "velocity": 89}, {"time": 130, "pitch": 52, "duration": 6, "velocity": 66}, {"time": 136, "pitch": 59, "duration": 13, "velocity": 77}, {"time": 142, "pitch": 55, "duration": 8, "velocity": 48}, {"time": 148, "pitch": 38, "duration": 38, "velocity": 68}, {"time": 154, "pitch": 45, "duration": 32, "velocity": 57}, {"time": 160, "pitch": 50, "duration": 13, "velocity": 82}, {"time": 166, "pitch": 66, "duration": 29, "velocity": 97}, {"time": 178, "pitch": 50, "duration": 7, "velocity": 65}, {"time": 184, "pitch": 62, "duration": 11, "velocity": 93}, {"time": 190, "pitch": 57, "duration": 8, "velocity": 75}, {"time": 196, "pitch": 36, "duration": 40, "velocity": 90}, {"time": 202, "pitch": 43, "duration": 36, "velocity": 69}, {"time": 208, "pitch": 48, "duration": 14, "velocity": 92}, {"time": 214, "pitch": 64, "duration": 33, "velocity": 100}, {"time": 226, "pitch": 48, "duration": 6, "velocity": 81}, {"time": 232, "pitch": 60, "duration": 14, "velocity": 102}, {"time": 238, "pitch": 55, "duration": 8, "velocity": 79}, {"time": 244, "pitch": 38, "duration": 41, "velocity": 78}, {"time": 250, "pitch": 45, "duration": 41, "velocity": 45}, {"time": 256, "pitch": 50, "duration": 13, "velocity": 82}, {"time": 262, "pitch": 62, "duration": 30, "velocity": 86}, {"time": 262, "pitch": 66, "duration": 30, "velocity": 93}, {"time": 274, "pitch": 50, "duration": 6, "velocity": 46}, {"time": 280, "pitch": 57, "duration": 12, "velocity": 79}, {"time": 292, "pitch": 40, "duration": 21, "velocity": 59}, {"time": 292, "pitch": 59, "duration": 16, "velocity": 73}, {"time": 292, "pitch": 64, "duration": 21, "velocity": 89}, {"time": 292, "pitch": 68, "duration": 18, "velocity": 88}, {"time": 298, "pitch": 47, "duration": 16, "velocity": 31}, {"time": 304, "pitch": 52, "duration": 9, "velocity": 56}, {"time": 310, "pitch": 59, "duration": 5, "velocity": 63}, {"time": 316, "pitch": 40, "duration": 20, "velocity": 50}, {"time": 316, "pitch": 47, "duration": 24, "velocity": 53}, {"time": 316, "pitch": 52, "duration": 25, "velocity": 59}, {"time": 316, "pitch": 59, "duration": 39, "velocity": 57}, {"time": 316, "pitch": 64, "duration": 46, "velocity": 70}, {"time": 316, "pitch": 67, "duration": 45, "velocity": 72}, {"time": 340, "pitch": 40, "duration": 38, "velocity": 66}, {"time": 346, "pitch": 47, "duration": 32, "velocity": 55}, {"time": 352, "pitch": 52, "duration": 15, "velocity": 82}, {"time": 358, "pitch": 59, "duration": 19, "velocity": 56}, {"time": 364, "pitch": 67, "duration": 24, "velocity": 107}, {"time": 370, "pitch": 52, "duration": 11, "velocity": 63}, {"time": 376, "pitch": 64, "duration": 12, "velocity": 99}, {"time": 382, "pitch": 59, "duration": 8, "velocity": 68}, {"time": 388, "pitch": 43, "duration": 36, "velocity": 89}, {"time": 394, "pitch": 50, "duration": 22, "velocity": 41}, {"time": 400, "pitch": 55, "duration": 7, "velocity": 83}, {"time": 406, "pitch": 59, "duration": 13, "velocity": 72}, {"time": 412, "pitch": 67, "duration": 22, "velocity": 122}, {"time": 418, "pitch": 50, "duration": 5, "velocity": 61}, {"time": 424, "pitch": 62, "duration": 12, "velocity": 88}, {"time": 430, "pitch": 59, "duration": 6, "velocity": 72}, {"time": 436, "pitch": 38, "duration": 39, "velocity": 65}, {"time": 442, "pitch": 45, "duration": 35, "velocity": 37}, {"time": 448, "pitch": 50, "duration": 14, "velocity": 59}, {"time": 454, "pitch": 57, "duration": 19, "velocity": 76}, {"time": 460, "pitch": 66, "duration": 25, "velocity": 107}, {"time": 466, "pitch": 50, "duration": 8, "velocity": 47}, {"time": 472, "pitch": 62, "duration": 14, "velocity": 59}, {"time": 478, "pitch": 57, "duration": 9, "velocity": 63}, {"time": 484, "pitch": 40, "duration": 36, "velocity": 70}, {"time": 490, "pitch": 47, "duration": 30, "velocity": 61}, {"time": 496, "pitch": 52, "duration": 14, "velocity": 72}, {"time": 502, "pitch": 55, "duration": 19, "velocity": 75}, {"time": 508, "pitch": 64, "duration": 25, "velocity": 96}, {"time": 514, "pitch": 52, "duration": 8, "velocity": 66}, {"time": 520, "pitch": 59, "duration": 12, "velocity": 83}, {"time": 526, "pitch": 55, "duration": 6, "velocity": 63}, {"time": 532, "pitch": 47, "duration": 38, "velocity": 78}, {"time": 538, "pitch": 54, "duration": 30, "velocity": 53}, {"time": 544, "pitch": 59, "duration": 14, "velocity": 73}, {"time": 550, "pitch": 62, "duration": 19, "velocity": 75}, {"time": 556, "pitch": 71, "duration": 24, "velocity": 97}, {"time": 562, "pitch": 59, "duration": 5, "velocity": 82}, {"time": 568, "pitch": 66, "duration": 12, "velocity": 97}, {"time": 574, "pitch": 62, "duration": 6, "velocity": 81}, {"time": 580, "pitch": 36, "duration": 39, "velocity": 74}, {"time": 586, "pitch": 43, "duration": 36, "velocity": 57}, {"time": 592, "pitch": 48, "duration": 16, "velocity": 66}, {"time": 598, "pitch": 55, "duration": 19, "velocity": 81}, {"time": 604, "pitch": 64, "duration": 25, "velocity": 96}, {"time": 610, "pitch": 48, "duration": 6, "velocity": 55}, {"time": 616, "pitch": 60, "duration": 12, "velocity": 78}, {"time": 622, "pitch": 55, "duration": 8, "velocity": 77}, {"time": 628, "pitch": 38, "duration": 41, "velocity": 73}, {"time": 634, "pitch": 45, "duration": 41, "velocity": 48}, {"time": 640, "pitch": 50, "duration": 15, "velocity": 90}, {"time": 646, "pitch": 57, "duration": 19, "velocity": 76}, {"time": 652, "pitch": 66, "duration": 23, "velocity": 100}, {"time": 658, "pitch": 50, "duration": 6, "velocity": 67}, {"time": 664, "pitch": 62, "duration": 12, "velocity": 79}, {"time": 670, "pitch": 57, "duration": 7, "velocity": 76}, {"time": 676, "pitch": 40, "duration": 46, "velocity": 73}, {"time": 682, "pitch": 47, "duration": 43, "velocity": 58}, {"time": 688, "pitch": 52, "duration": 15, "velocity": 82}, {"time": 694, "pitch": 55, "duration": 19, "velocity": 76}, {"time": 700, "pitch": 64, "duration": 44, "velocity": 95}, {"time": 706, "pitch": 52, "duration": 8, "velocity": 82}, {"time": 712, "pitch": 59, "duration": 32, "velocity": 86}, {"time": 718, "pitch": 55, "duration": 21, "velocity": 88}, {"time": 724, "pitch": 40, "duration": 38, "velocity": 75}, {"time": 730, "pitch": 47, "duration": 32, "velocity": 50}, {"time": 736, "pitch": 52, "duration": 15, "velocity": 92}, {"time": 742, "pitch": 55, "duration": 20, "velocity": 85}, {"time": 748, "pitch": 64, "duration": 24, "velocity": 102}, {"time": 754, "pitch": 52, "duration": 9, "velocity": 92}, {"time": 760, "pitch": 59, "duration": 11, "velocity": 97}, {"time": 766, "pitch": 55, "duration": 6, "velocity": 73}, {"time": 772, "pitch": 43, "duration": 38, "velocity": 82}, {"time": 778, "pitch": 50, "duration": 32, "velocity": 51}, {"time": 784, "pitch": 55, "duration": 15, "velocity": 88}, {"time": 790, "pitch": 59, "duration": 20, "velocity": 82}, {"time": 796, "pitch": 67, "duration": 24, "velocity": 99}, {"time": 802, "pitch": 55, "duration": 5, "velocity": 89}, {"time": 808, "pitch": 62, "duration": 13, "velocity": 92}, {"time": 814, "pitch": 59, "duration": 7, "velocity": 79}, {"time": 820, "pitch": 38, "duration": 39, "velocity": 78}, {"time": 826, "pitch": 45, "duration": 41, "velocity": 52}, {"time": 832, "pitch": 50, "duration": 20, "velocity": 82}, {"time": 838, "pitch": 54, "duration": 9, "velocity": 85}, {"time": 844, "pitch": 62, "duration": 24, "velocity": 70}, {"time": 850, "pitch": 57, "duration": 7, "velocity": 67}, {"time": 856, "pitch": 54, "duration": 8, "velocity": 65}, {"time": 862, "pitch": 57, "duration": 7, "velocity": 66}, {"time": 868, "pitch": 40, "duration": 36, "velocity": 73}, {"time": 874, "pitch": 47, "duration": 30, "velocity": 58}, {"time": 880, "pitch": 52, "duration": 15, "velocity": 77}, {"time": 886, "pitch": 55, "duration": 20, "velocity": 73}, {"time": 892, "pitch": 64, "duration": 25, "velocity": 97}, {"time": 898, "pitch": 52, "duration": 9, "velocity": 65}, {"time": 904, "pitch": 59, "duration": 12, "velocity": 82}, {"time": 910, "pitch": 55, "duration": 6, "velocity": 71}, {"time": 916, "pitch": 47, "duration": 39, "velocity": 68}, {"time": 922, "pitch": 54, "duration": 32, "velocity": 62}, {"time": 928, "pitch": 59, "duration": 16, "velocity": 86}, {"time": 934, "pitch": 62, "duration": 15, "velocity": 79}, {"time": 940, "pitch": 71, "duration": 26, "velocity": 95}, {"time": 946, "pitch": 59, "duration": 7, "velocity": 66}, {"time": 952, "pitch": 66, "duration": 13, "velocity": 95}, {"time": 958, "pitch": 62, "duration": 8, "velocity": 78}, {"time": 964, "pitch": 36, "duration": 39, "velocity": 81}, {"time": 970, "pitch": 43, "duration": 34, "velocity": 56}, {"time": 976, "pitch": 48, "duration": 28, "velocity": 79}, {"time": 982, "pitch": 52, "duration": 20, "velocity": 79}, {"time": 988, "pitch": 55, "duration": 24, "velocity": 78}, {"time": 994, "pitch": 60, "duration": 20, "velocity": 72}, {"time": 1000, "pitch": 64, "duration": 14, "velocity": 73}, {"time": 1006, "pitch": 52, "duration": 8, "velocity": 73}, {"time": 1012, "pitch": 38, "duration": 42, "velocity": 74}, {"time": 1018, "pitch": 45, "duration": 41, "velocity": 56}, {"time": 1024, "pitch": 50, "duration": 19, "velocity": 73}, {"time": 1030, "pitch": 54, "duration": 13, "velocity": 56}, {"time": 1036, "pitch": 62, "duration": 25, "velocity": 69}, {"time": 1042, "pitch": 57, "duration": 7, "velocity": 64}, {"time": 1048, "pitch": 54, "duration": 12, "velocity": 73}, {"time": 1054, "pitch": 57, "duration": 7, "velocity": 62}, {"time": 1060, "pitch": 40, "duration": 45, "velocity": 62}, {"time": 1066, "pitch": 47, "duration": 42, "velocity": 43}, {"time": 1072, "pitch": 52, "duration": 37, "velocity": 81}, {"time": 1078, "pitch": 55, "duration": 12, "velocity": 72}, {"time": 1084, "pitch": 64, "duration": 40, "velocity": 82}, {"time": 1090, "pitch": 59, "duration": 8, "velocity": 77}, {"time": 1096, "pitch": 55, "duration": 28, "velocity": 82}, {"time": 1102, "pitch": 59, "duration": 24, "velocity": 56}, {"time": 1108, "pitch": 40, "duration": 37, "velocity": 79}, {"time": 1114, "pitch": 47, "duration": 31, "velocity": 64}, {"time": 1120, "pitch": 52, "duration": 15, "velocity": 107}, {"time": 1126, "pitch": 55, "duration": 17, "velocity": 90}, {"time": 1132, "pitch": 64, "duration": 23, "velocity": 107}, {"time": 1138, "pitch": 52, "duration": 6, "velocity": 100}, {"time": 1144, "pitch": 59, "duration": 11, "velocity": 107}, {"time": 1150, "pitch": 55, "duration": 5, "velocity": 93}, {"time": 1156, "pitch": 43, "duration": 21, "velocity": 90}, {"time": 1159, "pitch": 50, "duration": 21, "velocity": 61}, {"time": 1162, "pitch": 55, "duration": 7, "velocity": 82}, {"time": 1165, "pitch": 59, "duration": 5, "velocity": 63}, {"time": 1168, "pitch": 67, "duration": 16, "velocity": 92}, {"time": 1171, "pitch": 55, "duration": 5, "velocity": 67}, {"time": 1174, "pitch": 62, "duration": 9, "velocity": 75}, {"time": 1177, "pitch": 59, "duration": 5, "velocity": 79}, {"time": 1180, "pitch": 43, "duration": 18, "velocity": 66}, {"time": 1183, "pitch": 50, "duration": 11, "velocity": 44}, {"time": 1186, "pitch": 55, "duration": 6, "velocity": 73}, {"time": 1189, "pitch": 59, "duration": 5, "velocity": 66}, {"time": 1192, "pitch": 67, "duration": 11, "velocity": 100}, {"time": 1195, "pitch": 50, "duration": 2, "velocity": 58}, {"time": 1198, "pitch": 62, "duration": 5, "velocity": 73}, {"time": 1201, "pitch": 59, "duration": 3, "velocity": 81}, {"time": 1204, "pitch": 38, "duration": 22, "velocity": 56}, {"time": 1207, "pitch": 45, "duration": 21, "velocity": 68}, {"time": 1210, "pitch": 50, "duration": 7, "velocity": 78}, {"time": 1213, "pitch": 54, "duration": 5, "velocity": 67}, {"time": 1216, "pitch": 62, "duration": 6, "velocity": 67}, {"time": 1219, "pitch": 50, "duration": 4, "velocity": 71}, {"time": 1222, "pitch": 57, "duration": 7, "velocity": 63}, {"time": 1225, "pitch": 54, "duration": 4, "velocity": 48}, {"time": 1228, "pitch": 38, "duration": 19, "velocity": 64}, {"time": 1231, "pitch": 45, "duration": 21, "velocity": 56}, {"time": 1234, "pitch": 50, "duration": 8, "velocity": 75}, {"time": 1237, "pitch": 54, "duration": 4, "velocity": 65}, {"time": 1240, "pitch": 62, "duration": 11, "velocity": 71}, {"time": 1243, "pitch": 50, "duration": 3, "velocity": 72}, {"time": 1246, "pitch": 57, "duration": 5, "velocity": 68}, {"time": 1249, "pitch": 54, "duration": 3, "velocity": 77}, {"time": 1252, "pitch": 40, "duration": 21, "velocity": 67}, {"time": 1255, "pitch": 47, "duration": 21, "velocity": 69}, {"time": 1258, "pitch": 52, "duration": 7, "velocity": 78}, {"time": 1261, "pitch": 55, "duration": 5, "velocity": 70}, {"time": 1264, "pitch": 64, "duration": 13, "velocity": 93}, {"time": 1267, "pitch": 52, "duration": 5, "velocity": 74}, {"time": 1270, "pitch": 59, "duration": 7, "velocity": 75}, {"time": 1273, "pitch": 55, "duration": 4, "velocity": 77}, {"time": 1276, "pitch": 40, "duration": 17, "velocity": 59}, {"time": 1279, "pitch": 47, "duration": 14, "velocity": 51}, {"time": 1282, "pitch": 52, "duration": 7, "velocity": 88}, {"time": 1285, "pitch": 55, "duration": 5, "velocity": 72}, {"time": 1288, "pitch": 64, "duration": 12, "velocity": 95}, {"time": 1291, "pitch": 52, "duration": 3, "velocity": 95}, {"time": 1294, "pitch": 59, "duration": 5, "velocity": 74}, {"time": 1297, "pitch": 55, "duration": 2, "velocity": 85}, {"time": 1300, "pitch": 47, "duration": 22, "velocity": 64}, {"time": 1303, "pitch": 54, "duration": 11, "velocity": 70}, {"time": 1306, "pitch": 59, "duration": 5, "velocity": 79}, {"time": 1309, "pitch": 62, "duration": 3, "velocity": 67}, {"time": 1312, "pitch": 66, "duration": 12, "velocity": 112}, {"time": 1315, "pitch": 54, "duration": 7, "velocity": 69}, {"time": 1318, "pitch": 62, "duration": 5, "velocity": 82}, {"time": 1321, "pitch": 59, "duration": 2, "velocity": 83}, {"time": 1324, "pitch": 47, "duration": 17, "velocity": 66}, {"time": 1327, "pitch": 54, "duration": 11, "velocity": 73}, {"time": 1330, "pitch": 59, "duration": 4, "velocity": 73}, {"time": 1333, "pitch": 62, "duration": 3, "velocity": 77}, {"time": 1336, "pitch": 66, "duration": 12, "velocity": 112}, {"time": 1339, "pitch": 62, "duration": 3, "velocity": 66}, {"time": 1342, "pitch": 59, "duration": 5, "velocity": 72}, {"time": 1345, "pitch": 62, "duration": 3, "velocity": 75}, {"time": 1348, "pitch": 36, "duration": 21, "velocity": 50}, {"time": 1351, "pitch": 43, "duration": 21, "velocity": 56}, {"time": 1354, "pitch": 48, "duration": 7, "velocity": 75}, {"time": 1357, "pitch": 52, "duration": 4, "velocity": 76}, {"time": 1360, "pitch": 55, "duration": 7, "velocity": 79}, {"time": 1363, "pitch": 48, "duration": 4, "velocity": 72}, {"time": 1366, "pitch": 52, "duration": 9, "velocity": 70}, {"time": 1369, "pitch": 60, "duration": 7, "velocity": 89}, {"time": 1372, "pitch": 36, "duration": 20, "velocity": 68}, {"time": 1375, "pitch": 43, "duration": 20, "velocity": 64}, {"time": 1378, "pitch": 48, "duration": 7, "velocity": 77}, {"time": 1381, "pitch": 52, "duration": 5, "velocity": 66}, {"time": 1384, "pitch": 60, "duration": 12, "velocity": 90}, {"time": 1387, "pitch": 48, "duration": 4, "velocity": 82}, {"time": 1390, "pitch": 55, "duration": 6, "velocity": 73}, {"time": 1393, "pitch": 52, "duration": 3, "velocity": 57}, {"time": 1396, "pitch": 38, "duration": 22, "velocity": 63}, {"time": 1399, "pitch": 45, "duration": 21, "velocity": 64}, {"time": 1402, "pitch": 50, "duration": 7, "velocity": 67}, {"time": 1405, "pitch": 57, "duration": 8, "velocity": 82}, {"time": 1408, "pitch": 66, "duration": 20, "velocity": 97}, {"time": 1411, "pitch": 50, "duration": 8, "velocity": 65}, {"time": 1414, "pitch": 62, "duration": 17, "velocity": 71}, {"time": 1417, "pitch": 57, "duration": 11, "velocity": 74}, {"time": 1420, "pitch": 38, "duration": 22, "velocity": 69}, {"time": 1423, "pitch": 45, "duration": 21, "velocity": 70}, {"time": 1426, "pitch": 50, "duration": 7, "velocity": 88}, {"time": 1429, "pitch": 57, "duration": 4, "velocity": 79}, {"time": 1432, "pitch": 62, "duration": 6, "velocity": 102}, {"time": 1432, "pitch": 66, "duration": 12, "velocity": 122}, {"time": 1435, "pitch": 50, "duration": 3, "velocity": 90}, {"time": 1438, "pitch": 57, "duration": 6, "velocity": 96}, {"time": 1441, "pitch": 62, "duration": 3, "velocity": 89}, {"time": 1444, "pitch": 40, "duration": 22, "velocity": 90}, {"time": 1447, "pitch": 47, "duration": 21, "velocity": 66}, {"time": 1450, "pitch": 52, "duration": 6, "velocity": 88}, {"time": 1453, "pitch": 59, "duration": 5, "velocity": 76}, {"time": 1456, "pitch": 67, "duration": 14, "velocity": 99}, {"time": 1459, "pitch": 52, "duration": 5, "velocity": 81}, {"time": 1462, "pitch": 59, "duration": 14, "velocity": 83}, {"time": 1465, "pitch": 66, "duration": 5, "velocity": 92}, {"time": 1468, "pitch": 40, "duration": 21, "velocity": 83}, {"time": 1471, "pitch": 47, "duration": 20, "velocity": 72}, {"time": 1474, "pitch": 52, "duration": 6, "velocity": 78}, {"time": 1477, "pitch": 59, "duration": 16, "velocity": 77}, {"time": 1480, "pitch": 67, "duration": 9, "velocity": 90}, {"time": 1483, "pitch": 52, "duration": 3, "velocity": 79}, {"time": 1486, "pitch": 66, "duration": 6, "velocity": 81}, {"time": 1492, "pitch": 40, "duration": 22, "velocity": 90}, {"time": 1495, "pitch": 47, "duration": 21, "velocity": 72}, {"time": 1498, "pitch": 52, "duration": 7, "velocity": 82}, {"time": 1501, "pitch": 59, "duration": 6, "velocity": 73}, {"time": 1504, "pitch": 67, "duration": 12, "velocity": 107}, {"time": 1507, "pitch": 52, "duration": 3, "velocity": 90}, {"time": 1510, "pitch": 64, "duration": 5, "velocity": 85}, {"time": 1513, "pitch": 59, "duration": 3, "velocity": 89}, {"time": 1516, "pitch": 40, "duration": 24, "velocity": 81}, {"time": 1519, "pitch": 47, "duration": 11, "velocity": 81}, {"time": 1522, "pitch": 52, "duration": 5, "velocity": 85}, {"time": 1525, "pitch": 55, "duration": 3, "velocity": 86}, {"time": 1528, "pitch": 59, "duration": 12, "velocity": 99}, {"time": 1531, "pitch": 47, "duration": 7, "velocity": 86}, {"time": 1534, "pitch": 55, "duration": 6, "velocity": 85}, {"time": 1537, "pitch": 52, "duration": 3, "velocity": 70}, {"time": 1540, "pitch": 43, "duration": 21, "velocity": 90}, {"time": 1543, "pitch": 50, "duration": 21, "velocity": 61}, {"time": 1546, "pitch": 55, "duration": 7, "velocity": 82}, {"time": 1549, "pitch": 59, "duration": 5, "velocity": 63}, {"time": 1552, "pitch": 67, "duration": 16, "velocity": 92}, {"time": 1555, "pitch": 55, "duration": 5, "velocity": 67}, {"time": 1558, "pitch": 62, "duration": 9, "velocity": 75}, {"time": 1561, "pitch": 59, "duration": 5, "velocity": 79}, {"time": 1564, "pitch": 43, "duration": 18, "velocity": 66}, {"time": 1567, "pitch": 50, "duration": 11, "velocity": 44}, {"time": 1570, "pitch": 55, "duration": 6, "velocity": 73}, {"time": 1573, "pitch": 59, "duration": 5, "velocity": 66}, {"time": 1576, "pitch": 67, "duration": 11, "velocity": 100}, {"time": 1579, "pitch": 50, "duration": 2, "velocity": 58}, {"time": 1582, "pitch": 62, "duration": 5, "velocity": 73}, {"time": 1585, "pitch": 59, "duration": 3, "velocity": 81}, {"time": 1588, "pitch": 38, "duration": 22, "velocity": 56}, {"time": 1591, "pitch": 45, "duration": 21, "velocity": 68}, {"time": 1594, "pitch": 50, "duration": 7, "velocity": 78}, {"time": 1597, "pitch": 54, "duration": 5, "velocity": 67}, {"time": 1600, "pitch": 62, "duration": 6, "velocity": 67}, {"time": 1603, "pitch": 50, "duration": 4, "velocity": 71}, {"time": 1606, "pitch": 57, "duration": 7, "velocity": 63}, {"time": 1609, "pitch": 54, "duration": 4, "velocity": 48}, {"time": 1612, "pitch": 38, "duration": 19, "velocity": 64}, {"time": 1615, "pitch": 45, "duration": 21, "velocity": 56}, {"time": 1618, "pitch": 50, "duration": 8, "velocity": 75}, {"time": 1621, "pitch": 54, "duration": 4, "velocity": 65}, {"time": 1624, "pitch": 62, "duration": 11, "velocity": 71}, {"time": 1627, "pitch": 50, "duration": 3, "velocity": 72}, {"time": 1630, "pitch": 57, "duration": 5, "velocity": 68}, {"time": 1633, "pitch": 54, "duration": 3, "velocity": 77}, {"time": 1636, "pitch": 40, "duration": 21, "velocity": 67}, {"time": 1639, "pitch": 47, "duration": 21, "velocity": 69}, {"time": 1642, "pitch": 52, "duration": 7, "velocity": 78}, {"time": 1645, "pitch": 55, "duration": 5, "velocity": 70}, {"time": 1648, "pitch": 64, "duration": 13, "velocity": 93}, {"time": 1651, "pitch": 52, "duration": 5, "velocity": 74}, {"time": 1654, "pitch": 59, "duration": 7, "velocity": 75}, {"time": 1657, "pitch": 55, "duration": 4, "velocity": 77}, {"time": 1660, "pitch": 40, "duration": 17, "velocity": 59}, {"time": 1663, "pitch": 47, "duration": 14, "velocity": 51}, {"time": 1666, "pitch": 52, "duration": 7, "velocity": 88}, {"time": 1669, "pitch": 55, "duration": 5, "velocity": 72}, {"time": 1672, "pitch": 64, "duration": 12, "velocity": 95}, {"time": 1675, "pitch": 52, "duration": 3, "velocity": 95}, {"time": 1678, "pitch": 59, "duration": 5, "velocity": 74}, {"time": 1681, "pitch": 55, "duration": 2, "velocity": 85}, {"time": 1684, "pitch": 47, "duration": 22, "velocity": 64}, {"time": 1687, "pitch": 54, "duration": 11, "velocity": 70}, {"time": 1690, "pitch": 59, "duration": 5, "velocity": 79}, {"time": 1693, "pitch": 62, "duration": 3, "velocity": 67}, {"time": 1696, "pitch": 66, "duration": 12, "velocity": 112}, {"time": 1699, "pitch": 54, "duration": 7, "velocity": 69}, {"time": 1702, "pitch": 62, "duration": 5, "velocity": 82}, {"time": 1705, "pitch": 59, "duration": 2, "velocity": 83}, {"time": 1708, "pitch": 47, "duration": 17, "velocity": 66}, {"time": 1711, "pitch": 54, "duration": 11, "velocity": 73}, {"time": 1714, "pitch": 59, "duration": 4, "velocity": 73}, {"time": 1717, "pitch": 62, "duration": 3, "velocity": 77}, {"time": 1720, "pitch": 66, "duration": 12, "velocity": 112}, {"time": 1723, "pitch": 62, "duration": 3, "velocity": 66}, {"time": 1726, "pitch": 59, "duration": 5, "velocity": 72}, {"time": 1729, "pitch": 62, "duration": 3, "velocity": 75}, {"time": 1732, "pitch": 36, "duration": 21, "velocity": 50}, {"time": 1735, "pitch": 43, "duration": 21, "velocity": 56}, {"time": 1738, "pitch": 48, "duration": 7, "velocity": 75}, {"time": 1741, "pitch": 52, "duration": 4, "velocity": 76}, {"time": 1744, "pitch": 55, "duration": 7, "velocity": 79}, {"time": 1747, "pitch": 48, "duration": 4, "velocity": 72}, {"time": 1750, "pitch": 52, "duration": 9, "velocity": 70}, {"time": 1753, "pitch": 60, "duration": 7, "velocity": 89}, {"time": 1756, "pitch": 36, "duration": 20, "velocity": 68}, {"time": 1759, "pitch": 43, "duration": 20, "velocity": 64}, {"time": 1762, "pitch": 48, "duration": 7, "velocity": 77}, {"time": 1765, "pitch": 52, "duration": 5, "velocity": 66}, {"time": 1768, "pitch": 60, "duration": 12, "velocity": 90}, {"time": 1771, "pitch": 48, "duration": 4, "velocity": 82}, {"time": 1774, "pitch": 55, "duration": 6, "velocity": 73}, {"time": 1777, "pitch": 52, "duration": 3, "velocity": 57}, {"time": 1780, "pitch": 38, "duration": 22, "velocity": 63}, {"time": 1783, "pitch": 45, "duration": 21, "velocity": 64}, {"time": 1786, "pitch": 50, "duration": 7, "velocity": 67}, {"time": 1789, "pitch": 57, "duration": 8, "velocity": 82}, {"time": 1792, "pitch": 66, "duration": 20, "velocity": 97}, {"time": 1795, "pitch": 50, "duration": 8, "velocity": 65}, {"time": 1798, "pitch": 62, "duration": 17, "velocity": 71}, {"time": 1801, "pitch": 57, "duration": 11, "velocity": 74}, {"time": 1804, "pitch": 38, "duration": 22, "velocity": 69}, {"time": 1807, "pitch": 45, "duration": 21, "velocity": 70}, {"time": 1810, "pitch": 50, "duration": 7, "velocity": 88}, {"time": 1813, "pitch": 57, "duration": 4, "velocity": 79}, {"time": 1816, "pitch": 62, "duration": 6, "velocity": 102}, {"time": 1816, "pitch": 66, "duration": 12, "velocity": 122}, {"time": 1819, "pitch": 50, "duration": 3, "velocity": 90}, {"time": 1822, "pitch": 57, "duration": 6, "velocity": 96}, {"time": 1825, "pitch": 62, "duration": 3, "velocity": 89}, {"time": 1828, "pitch": 40, "duration": 22, "velocity": 90}, {"time": 1831, "pitch": 47, "duration": 21, "velocity": 66}, {"time": 1834, "pitch": 52, "duration": 6, "velocity": 88}, {"time": 1837, "pitch": 59, "duration": 5, "velocity": 76}, {"time": 1840, "pitch": 67, "duration": 14, "velocity": 99}, {"time": 1843, "pitch": 52, "duration": 5, "velocity": 81}, {"time": 1846, "pitch": 59, "duration": 14, "velocity": 83}, {"time": 1849, "pitch": 66, "duration": 5, "velocity": 92}, {"time": 1852, "pitch": 40, "duration": 21, "velocity": 83}, {"time": 1855, "pitch": 47, "duration": 20, "velocity": 72}, {"time": 1858, "pitch": 52, "duration": 6, "velocity": 78}, {"time": 1861, "pitch": 59, "duration": 15, "velocity": 77}, {"time": 1864, "pitch": 67, "duration": 9, "velocity": 90}, {"time": 1867, "pitch": 52, "duration": 3, "velocity": 79}, {"time": 1870, "pitch": 66, "duration": 6, "velocity": 81}, {"time": 1876, "pitch": 36, "duration": 20, "velocity": 83}, {"time": 1882, "pitch": 43, "duration": 18, "velocity": 69}, {"time": 1888, "pitch": 48, "duration": 4, "velocity": 96}, {"time": 1894, "pitch": 52, "duration": 6, "velocity": 86}, {"time": 1894, "pitch": 55, "duration": 6, "velocity": 85}, {"time": 1900, "pitch": 38, "duration": 21, "velocity": 95}, {"time": 1906, "pitch": 45, "duration": 13, "velocity": 75}, {"time": 1912, "pitch": 54, "duration": 10, "velocity": 102}, {"time": 1912, "pitch": 57, "duration": 11, "velocity": 96}, {"time": 1918, "pitch": 50, "duration": 4, "velocity": 70}, {"time": 1924, "pitch": 36, "duration": 37, "velocity": 85}, {"time": 1930, "pitch": 43, "duration": 31, "velocity": 52}, {"time": 1936, "pitch": 48, "duration": 14, "velocity": 92}, {"time": 1942, "pitch": 55, "duration": 8, "velocity": 83}, {"time": 1948, "pitch": 60, "duration": 15, "velocity": 89}, {"time": 1948, "pitch": 64, "duration": 24, "velocity": 96}, {"time": 1954, "pitch": 48, "duration": 6, "velocity": 86}, {"time": 1960, "pitch": 55, "duration": 12, "velocity": 97}, {"time": 1966, "pitch": 60, "duration": 6, "velocity": 82}, {"time": 1972, "pitch": 40, "duration": 38, "velocity": 78}, {"time": 1978, "pitch": 47, "duration": 31, "velocity": 52}, {"time": 1984, "pitch": 52, "duration": 15, "velocity": 86}, {"time": 1990, "pitch": 59, "duration": 12, "velocity": 73}, {"time": 1996, "pitch": 64, "duration": 13, "velocity": 93}, {"time": 1996, "pitch": 67, "duration": 24, "velocity": 93}, {"time": 2002, "pitch": 52, "duration": 5, "velocity": 81}, {"time": 2008, "pitch": 59, "duration": 13, "velocity": 95}, {"time": 2014, "pitch": 64, "duration": 6, "velocity": 93}, {"time": 2020, "pitch": 36, "duration": 22, "velocity": 73}, {"time": 2026, "pitch": 43, "duration": 17, "velocity": 72}, {"time": 2032, "pitch": 48, "duration": 5, "velocity": 107}, {"time": 2038, "pitch": 64, "duration": 4, "velocity": 96}, {"time": 2044, "pitch": 38, "duration": 19, "velocity": 97}, {"time": 2044, "pitch": 57, "duration": 11, "velocity": 78}, {"time": 2044, "pitch": 62, "duration": 10, "velocity": 102}, {"time": 2044, "pitch": 66, "duration": 10, "velocity": 117}, {"time": 2050, "pitch": 45, "duration": 13, "velocity": 81}, {"time": 2056, "pitch": 50, "duration": 7, "velocity": 88}, {"time": 2056, "pitch": 62, "duration": 11, "velocity": 112}, {"time": 2056, "pitch": 66, "duration": 12, "velocity": 117}, {"time": 2062, "pitch": 57, "duration": 6, "velocity": 93}, {"time": 2068, "pitch": 43, "duration": 38, "velocity": 82}, {"time": 2074, "pitch": 50, "duration": 32, "velocity": 51}, {"time": 2080, "pitch": 55, "duration": 15, "velocity": 88}, {"time": 2086, "pitch": 59, "duration": 20, "velocity": 82}, {"time": 2092, "pitch": 67, "duration": 24, "velocity": 99}, {"time": 2098, "pitch": 55, "duration": 5, "velocity": 89}, {"time": 2104, "pitch": 62, "duration": 13, "velocity": 92}, {"time": 2110, "pitch": 59, "duration": 7, "velocity": 79}, {"time": 2116, "pitch": 38, "duration": 39, "velocity": 78}, {"time": 2122, "pitch": 45, "duration": 41, "velocity": 52}, {"time": 2128, "pitch": 50, "duration": 20, "velocity": 82}, {"time": 2134, "pitch": 54, "duration": 9, "velocity": 85}, {"time": 2140, "pitch": 62, "duration": 24, "velocity": 70}, {"time": 2146, "pitch": 57, "duration": 7, "velocity": 67}, {"time": 2152, "pitch": 54, "duration": 8, "velocity": 65}, {"time": 2158, "pitch": 57, "duration": 7, "velocity": 66}, {"time": 2164, "pitch": 40, "duration": 36, "velocity": 73}, {"time": 2170, "pitch": 47, "duration": 30, "velocity": 58}, {"time": 2176, "pitch": 52, "duration": 15, "velocity": 77}, {"time": 2182, "pitch": 55, "duration": 20, "velocity": 73}, {"time": 2188, "pitch": 64, "duration": 25, "velocity": 97}, {"time": 2194, "pitch": 52, "duration": 9, "velocity": 65}, {"time": 2200, "pitch": 59, "duration": 12, "velocity": 82}, {"time": 2206, "pitch": 55, "duration": 6, "velocity": 71}, {"time": 2212, "pitch": 47, "duration": 39, "velocity": 68}, {"time": 2218, "pitch": 54, "duration": 32, "velocity": 62}, {"time": 2224, "pitch": 59, "duration": 16, "velocity": 86}, {"time": 2230, "pitch": 62, "duration": 15, "velocity": 79}, {"time": 2236, "pitch": 71, "duration": 26, "velocity": 95}, {"time": 2242, "pitch": 59, "duration": 7, "velocity": 66}, {"time": 2248, "pitch": 66, "duration": 13, "velocity": 95}, {"time": 2254, "pitch": 62, "duration": 8, "velocity": 78}, {"time": 2260, "pitch": 36, "duration": 39, "velocity": 81}, {"time": 2266, "pitch": 43, "duration": 34, "velocity": 56}, {"time": 2272, "pitch": 48, "duration": 28, "velocity": 79}, {"time": 2278, "pitch": 52, "duration": 20, "velocity": 79}, {"time": 2284, "pitch": 55, "duration": 24, "velocity": 78}, {"time": 2290, "pitch": 60, "duration": 20, "velocity": 72}, {"time": 2296, "pitch": 64, "duration": 14, "velocity": 73}, {"time": 2302, "pitch": 52, "duration": 8, "velocity": 73}, {"time": 2308, "pitch": 38, "duration": 42, "velocity": 74}, {"time": 2314, "pitch": 45, "duration": 41, "velocity": 56}, {"time": 2320, "pitch": 50, "duration": 19, "velocity": 73}, {"time": 2326, "pitch": 54, "duration": 13, "velocity": 56}, {"time": 2332, "pitch": 62, "duration": 25, "velocity": 69}, {"time": 2338, "pitch": 57, "duration": 7, "velocity": 64}, {"time": 2344, "pitch": 54, "duration": 12, "velocity": 73}, {"time": 2350, "pitch": 57, "duration": 7, "velocity": 62}, {"time": 2356, "pitch": 40, "duration": 45, "velocity": 62}, {"time": 2362, "pitch": 47, "duration": 42, "velocity": 43}, {"time": 2368, "pitch": 52, "duration": 37, "velocity": 81}, {"time": 2374, "pitch": 55, "duration": 12, "velocity": 72}, {"time": 2380, "pitch": 64, "duration": 40, "velocity": 82}, {"time": 2386, "pitch": 59, "duration": 8, "velocity": 77}, {"time": 2392, "pitch": 55, "duration": 28, "velocity": 82}, {"time": 2398, "pitch": 59, "duration": 24, "velocity": 56}, {"time": 2404, "pitch": 40, "duration": 37, "velocity": 79}, {"time": 2410, "pitch": 47, "duration": 31, "velocity": 64}, {"time": 2416, "pitch": 52, "duration": 15, "velocity": 107}, {"time": 2422, "pitch": 55, "duration": 17, "velocity": 90}, {"time": 2428, "pitch": 64, "duration": 23, "velocity": 107}, {"time": 2434, "pitch": 52, "duration": 6, "velocity": 100}, {"time": 2440, "pitch": 59, "duration": 11, "velocity": 107}, {"time": 2446, "pitch": 55, "duration": 5, "velocity": 93}, {"time": 2452, "pitch": 43, "duration": 21, "velocity": 90}, {"time": 2455, "pitch": 50, "duration": 21, "velocity": 61}, {"time": 2458, "pitch": 55, "duration": 7, "velocity": 82}, {"time": 2461, "pitch": 59, "duration": 5, "velocity": 63}, {"time": 2464, "pitch": 67, "duration": 16, "velocity": 92}, {"time": 2467, "pitch": 55, "duration": 5, "velocity": 67}, {"time": 2470, "pitch": 62, "duration": 9, "velocity": 75}, {"time": 2473, "pitch": 59, "duration": 5, "velocity": 79}, {"time": 2476, "pitch": 43, "duration": 18, "velocity": 66}, {"time": 2479, "pitch": 50, "duration": 11, "velocity": 44}, {"time": 2482, "pitch": 55, "duration": 6, "velocity": 73}, {"time": 2485, "pitch": 59, "duration": 5, "velocity": 66}, {"time": 2488, "pitch": 67, "duration": 11, "velocity": 100}, {"time": 2491, "pitch": 50, "duration": 2, "velocity": 58}, {"time": 2494, "pitch": 62, "duration": 5, "velocity": 73}, {"time": 2497, "pitch": 59, "duration": 3, "velocity": 81}, {"time": 2500, "pitch": 38, "duration": 22, "velocity": 56}, {"time": 2503, "pitch": 45, "duration": 21, "velocity": 68}, {"time": 2506, "pitch": 50, "duration": 7, "velocity": 78}, {"time": 2509, "pitch": 54, "duration": 5, "velocity": 67}, {"time": 2512, "pitch": 62, "duration": 6, "velocity": 67}, {"time": 2515, "pitch": 50, "duration": 4, "velocity": 71}, {"time": 2518, "pitch": 57, "duration": 7, "velocity": 63}, {"time": 2521, "pitch": 54, "duration": 4, "velocity": 48}, {"time": 2524, "pitch": 38, "duration": 19, "velocity": 64}, {"time": 2527, "pitch": 45, "duration": 21, "velocity": 56}, {"time": 2530, "pitch": 50, "duration": 8, "velocity": 75}, {"time": 2533, "pitch": 54, "duration": 4, "velocity": 65}, {"time": 2536, "pitch": 62, "duration": 11, "velocity": 71}, {"time": 2539, "pitch": 50, "duration": 3, "velocity": 72}, {"time": 2542, "pitch": 57, "duration": 5, "velocity": 68}, {"time": 2545, "pitch": 54, "duration": 3, "velocity": 77}, {"time": 2548, "pitch": 40, "duration": 21, "velocity": 67}, {"time": 2551, "pitch": 47, "duration": 21, "velocity": 69}, {"time": 2554, "pitch": 52, "duration": 7, "velocity": 78}, {"time": 2557, "pitch": 55, "duration": 5, "velocity": 70}, {"time": 2560, "pitch": 64, "duration": 13, "velocity": 93}, {"time": 2563, "pitch": 52, "duration": 5, "velocity": 74}, {"time": 2566, "pitch": 59, "duration": 7, "velocity": 75}, {"time": 2569, "pitch": 55, "duration": 4, "velocity": 77}, {"time": 2572, "pitch": 40, "duration": 17, "velocity": 59}, {"time": 2575, "pitch": 47, "duration": 14, "velocity": 51}, {"time": 2578, "pitch": 52, "duration": 7, "velocity": 88}, {"time": 2581, "pitch": 55, "duration": 5, "velocity": 72}, {"time": 2584, "pitch": 64, "duration": 12, "velocity": 95}, {"time": 2587, "pitch": 52, "duration": 3, "velocity": 95}, {"time": 2590, "pitch": 59, "duration": 5, "velocity": 74}, {"time": 2593, "pitch": 55, "duration": 2, "velocity": 85}, {"time": 2596, "pitch": 47, "duration": 22, "velocity": 64}, {"time": 2599, "pitch": 54, "duration": 11, "velocity": 70}, {"time": 2602, "pitch": 59, "duration": 5, "velocity": 79}, {"time": 2605, "pitch": 62, "duration": 3, "velocity": 67}, {"time": 2608, "pitch": 66, "duration": 12, "velocity": 112}, {"time": 2611, "pitch": 54, "duration": 7, "velocity": 69}, {"time": 2614, "pitch": 62, "duration": 5, "velocity": 82}, {"time": 2617, "pitch": 59, "duration": 2, "velocity": 83}, {"time": 2620, "pitch": 47, "duration": 17, "velocity": 66}, {"time": 2623, "pitch": 54, "duration": 11, "velocity": 73}, {"time": 2626, "pitch": 59, "duration": 4, "velocity": 73}, {"time": 2629, "pitch": 62, "duration": 3, "velocity": 77}, {"time": 2632, "pitch": 66, "duration": 12, "velocity": 112}, {"time": 2635, "pitch": 62, "duration": 3, "velocity": 66}, {"time": 2638, "pitch": 59, "duration": 5, "velocity": 72}, {"time": 2641, "pitch": 62, "duration": 3, "velocity": 75}, {"time": 2644, "pitch": 36, "duration": 21, "velocity": 50}, {"time": 2647, "pitch": 43, "duration": 21, "velocity": 56}, {"time": 2650, "pitch": 48, "duration": 7, "velocity": 75}, {"time": 2653, "pitch": 52, "duration": 4, "velocity": 76}, {"time": 2656, "pitch": 55, "duration": 7, "velocity": 79}, {"time": 2659, "pitch": 48, "duration": 4, "velocity": 72}, {"time": 2662, "pitch": 52, "duration": 9, "velocity": 70}, {"time": 2665, "pitch": 60, "duration": 7, "velocity": 89}, {"time": 2668, "pitch": 36, "duration": 20, "velocity": 68}, {"time": 2671, "pitch": 43, "duration": 20, "velocity": 64}, {"time": 2674, "pitch": 48, "duration": 7, "velocity": 77}, {"time": 2677, "pitch": 52, "duration": 5, "velocity": 66}, {"time": 2680, "pitch": 60, "duration": 12, "velocity": 90}, {"time": 2683, "pitch": 48, "duration": 4, "velocity": 82}, {"time": 2686, "pitch": 55, "duration": 6, "velocity": 73}, {"time": 2689, "pitch": 52, "duration": 3, "velocity": 57}, {"time": 2692, "pitch": 38, "duration": 22, "velocity": 63}, {"time": 2695, "pitch": 45, "duration": 21, "velocity": 64}, {"time": 2698, "pitch": 50, "duration": 7, "velocity": 67}, {"time": 2701, "pitch": 57, "duration": 8, "velocity": 82}, {"time": 2704, "pitch": 66, "duration": 20, "velocity": 97}, {"time": 2707, "pitch": 50, "duration": 8, "velocity": 65}, {"time": 2710, "pitch": 62, "duration": 17, "velocity": 71}, {"time": 2713, "pitch": 57, "duration": 11, "velocity": 74}, {"time": 2716, "pitch": 38, "duration": 22, "velocity": 69}, {"time": 2719, "pitch": 45, "duration": 21, "velocity": 70}, {"time": 2722, "pitch": 50, "duration": 7, "velocity": 88}, {"time": 2725, "pitch": 57, "duration": 4, "velocity": 79}, {"time": 2728, "pitch": 62, "duration": 6, "velocity": 102}, {"time": 2728, "pitch": 66, "duration": 12, "velocity": 122}, {"time": 2731, "pitch": 50, "duration": 3, "velocity": 90}, {"time": 2734, "pitch": 57, "duration": 6, "velocity": 96}, {"time": 2737, "pitch": 62, "duration": 3, "velocity": 89}, {"time": 2740, "pitch": 40, "duration": 22, "velocity": 90}, {"time": 2743, "pitch": 47, "duration": 21, "velocity": 66}, {"time": 2746, "pitch": 52, "duration": 6, "velocity": 88}, {"time": 2749, "pitch": 59, "duration": 5, "velocity": 76}, {"time": 2752, "pitch": 67, "duration": 14, "velocity": 99}, {"time": 2755, "pitch": 52, "duration": 5, "velocity": 81}, {"time": 2758, "pitch": 59, "duration": 14, "velocity": 83}, {"time": 2761, "pitch": 66, "duration": 5, "velocity": 92}, {"time": 2764, "pitch": 40, "duration": 21, "velocity": 83}, {"time": 2767, "pitch": 47, "duration": 20, "velocity": 72}, {"time": 2770, "pitch": 52, "duration": 6, "velocity": 78}, {"time": 2773, "pitch": 59, "duration": 16, "velocity": 77}, {"time": 2776, "pitch": 67, "duration": 9, "velocity": 90}, {"time": 2779, "pitch": 52, "duration": 3, "velocity": 79}, {"time": 2782, "pitch": 66, "duration": 6, "velocity": 81}, {"time": 2788, "pitch": 40, "duration": 22, "velocity": 90}, {"time": 2791, "pitch": 47, "duration": 21, "velocity": 72}, {"time": 2794, "pitch": 52, "duration": 7, "velocity": 82}, {"time": 2797, "pitch": 59, "duration": 6, "velocity": 73}, {"time": 2800, "pitch": 67, "duration": 12, "velocity": 107}, {"time": 2803, "pitch": 52, "duration": 3, "velocity": 90}, {"time": 2806, "pitch": 64, "duration": 5, "velocity": 85}, {"time": 2809, "pitch": 59, "duration": 3, "velocity": 89}, {"time": 2812, "pitch": 40, "duration": 24, "velocity": 81}, {"time": 2815, "pitch": 47, "duration": 11, "velocity": 81}, {"time": 2818, "pitch": 52, "duration": 5, "velocity": 85}, {"time": 2821, "pitch": 55, "duration": 3, "velocity": 86}, {"time": 2824, "pitch": 59, "duration": 12, "velocity": 99}, {"time": 2827, "pitch": 47, "duration": 7, "velocity": 86}, {"time": 2830, "pitch": 55, "duration": 6, "velocity": 85}, {"time": 2833, "pitch": 52, "duration": 3, "velocity": 70}, {"time": 2836, "pitch": 43, "duration": 21, "velocity": 90}, {"time": 2839, "pitch": 50, "duration": 21, "velocity": 61}, {"time": 2842, "pitch": 55, "duration": 7, "velocity": 82}, {"time": 2845, "pitch": 59, "duration": 5, "velocity": 63}, {"time": 2848, "pitch": 67, "duration": 16, "velocity": 92}, {"time": 2851, "pitch": 55, "duration": 5, "velocity": 67}, {"time": 2854, "pitch": 62, "duration": 9, "velocity": 75}, {"time": 2857, "pitch": 59, "duration": 5, "velocity": 79}, {"time": 2860, "pitch": 43, "duration": 18, "velocity": 66}, {"time": 2863, "pitch": 50, "duration": 11, "velocity": 44}, {"time": 2866, "pitch": 55, "duration": 6, "velocity": 73}, {"time": 2869, "pitch": 59, "duration": 5, "velocity": 66}, {"time": 2872, "pitch": 67, "duration": 11, "velocity": 100}, {"time": 2875, "pitch": 50, "duration": 2, "velocity": 58}, {"time": 2878, "pitch": 62, "duration": 5, "velocity": 73}, {"time": 2881, "pitch": 59, "duration": 3, "velocity": 81}, {"time": 2884, "pitch": 38, "duration": 22, "velocity": 56}, {"time": 2887, "pitch": 45, "duration": 21, "velocity": 68}, {"time": 2890, "pitch": 50, "duration": 7, "velocity": 78}, {"time": 2893, "pitch": 54, "duration": 5, "velocity": 67}, {"time": 2896, "pitch": 62, "duration": 6, "velocity": 67}, {"time": 2899, "pitch": 50, "duration": 4, "velocity": 71}, {"time": 2902, "pitch": 57, "duration": 7, "velocity": 63}, {"time": 2905, "pitch": 54, "duration": 4, "velocity": 48}, {"time": 2908, "pitch": 38, "duration": 19, "velocity": 64}, {"time": 2911, "pitch": 45, "duration": 21, "velocity": 56}, {"time": 2914, "pitch": 50, "duration": 8, "velocity": 75}, {"time": 2917, "pitch": 54, "duration": 4, "velocity": 65}, {"time": 2920, "pitch": 62, "duration": 11, "velocity": 71}, {"time": 2923, "pitch": 50, "duration": 3, "velocity": 72}, {"time": 2926, "pitch": 57, "duration": 5, "velocity": 68}, {"time": 2929, "pitch": 54, "duration": 3, "velocity": 77}, {"time": 2932, "pitch": 40, "duration": 21, "velocity": 67}, {"time": 2935, "pitch": 47, "duration": 21, "velocity": 69}, {"time": 2938, "pitch": 52, "duration": 7, "velocity": 78}, {"time": 2941, "pitch": 55, "duration": 5, "velocity": 70}, {"time": 2944, "pitch": 64, "duration": 13, "velocity": 93}, {"time": 2947, "pitch": 52, "duration": 5, "velocity": 74}, {"time": 2950, "pitch": 59, "duration": 7, "velocity": 75}, {"time": 2953, "pitch": 55, "duration": 4, "velocity": 77}, {"time": 2956, "pitch": 40, "duration": 17, "velocity": 59}, {"time": 2959, "pitch": 47, "duration": 14, "velocity": 51}, {"time": 2962, "pitch": 52, "duration": 7, "velocity": 88}, {"time": 2965, "pitch": 55, "duration": 5, "velocity": 72}, {"time": 2968, "pitch": 64, "duration": 12, "velocity": 95}, {"time": 2971, "pitch": 52, "duration": 3, "velocity": 95}, {"time": 2974, "pitch": 59, "duration": 5, "velocity": 74}, {"time": 2977, "pitch": 55, "duration": 2, "velocity": 85}, {"time": 2980, "pitch": 47, "duration": 22, "velocity": 64}, {"time": 2983, "pitch": 54, "duration": 11, "velocity": 70}, {"time": 2986, "pitch": 59, "duration": 5, "velocity": 79}, {"time": 2989, "pitch": 62, "duration": 3, "velocity": 67}, {"time": 2992, "pitch": 66, "duration": 12, "velocity": 112}, {"time": 2995, "pitch": 54, "duration": 7, "velocity": 69}, {"time": 2998, "pitch": 62, "duration": 5, "velocity": 82}, {"time": 3001, "pitch": 59, "duration": 2, "velocity": 83}, {"time": 3004, "pitch": 47, "duration": 17, "velocity": 66}, {"time": 3007, "pitch": 54, "duration": 11, "velocity": 73}, {"time": 3010, "pitch": 59, "duration": 4, "velocity": 73}, {"time": 3013, "pitch": 62, "duration": 3, "velocity": 77}, {"time": 3016, "pitch": 66, "duration": 12, "velocity": 112}, {"time": 3019, "pitch": 62, "duration": 3, "velocity": 66}, {"time": 3022, "pitch": 59, "duration": 5, "velocity": 72}, {"time": 3025, "pitch": 62, "duration": 3, "velocity": 75}, {"time": 3028, "pitch": 36, "duration": 21, "velocity": 50}, {"time": 3031, "pitch": 43, "duration": 21, "velocity": 56}, {"time": 3034, "pitch": 48, "duration": 7, "velocity": 75}, {"time": 3037, "pitch": 52, "duration": 4, "velocity": 76}, {"time": 3040, "pitch": 55, "duration": 7, "velocity": 79}, {"time": 3043, "pitch": 48, "duration": 4, "velocity": 72}, {"time": 3046, "pitch": 52, "duration": 9, "velocity": 70}, {"time": 3049, "pitch": 60, "duration": 7, "velocity": 89}, {"time": 3052, "pitch": 36, "duration": 20, "velocity": 68}, {"time": 3055, "pitch": 43, "duration": 20, "velocity": 64}, {"time": 3058, "pitch": 48, "duration": 7, "velocity": 77}, {"time": 3061, "pitch": 52, "duration": 5, "velocity": 66}, {"time": 3064, "pitch": 60, "duration": 12, "velocity": 90}, {"time": 3067, "pitch": 48, "duration": 4, "velocity": 82}, {"time": 3070, "pitch": 55, "duration": 6, "velocity": 73}, {"time": 3073, "pitch": 52, "duration": 3, "velocity": 57}, {"time": 3076, "pitch": 38, "duration": 22, "velocity": 63}, {"time": 3079, "pitch": 45, "duration": 21, "velocity": 64}, {"time": 3082, "pitch": 50, "duration": 7, "velocity": 67}, {"time": 3085, "pitch": 57, "duration": 8, "velocity": 82}, {"time": 3088, "pitch": 66, "duration": 20, "velocity": 97}, {"time": 3091, "pitch": 50, "duration": 8, "velocity": 65}, {"time": 3094, "pitch": 62, "duration": 17, "velocity": 71}, {"time": 3097, "pitch": 57, "duration": 11, "velocity": 74}, {"time": 3100, "pitch": 38, "duration": 22, "velocity": 69}, {"time": 3103, "pitch": 45, "duration": 21, "velocity": 70}, {"time": 3106, "pitch": 50, "duration": 7, "velocity": 88}, {"time": 3109, "pitch": 57, "duration": 4, "velocity": 79}, {"time": 3112, "pitch": 62, "duration": 6, "velocity": 102}, {"time": 3112, "pitch": 66, "duration": 12, "velocity": 122}, {"time": 3115, "pitch": 50, "duration": 3, "velocity": 90}, {"time": 3118, "pitch": 57, "duration": 6, "velocity": 96}, {"time": 3121, "pitch": 62, "duration": 3, "velocity": 89}, {"time": 3124, "pitch": 40, "duration": 22, "velocity": 90}, {"time": 3127, "pitch": 47, "duration": 21, "velocity": 66}, {"time": 3130, "pitch": 52, "duration": 6, "velocity": 88}, {"time": 3133, "pitch": 59, "duration": 5, "velocity": 76}, {"time": 3136, "pitch": 67, "duration": 14, "velocity": 99}, {"time": 3139, "pitch": 52, "duration": 5, "velocity": 81}, {"time": 3142, "pitch": 59, "duration": 14, "velocity": 83}, {"time": 3145, "pitch": 66, "duration": 5, "velocity": 92}, {"time": 3148, "pitch": 40, "duration": 21, "velocity": 83}, {"time": 3151, "pitch": 47, "duration": 20, "velocity": 72}, {"time": 3154, "pitch": 52, "duration": 6, "velocity": 78}, {"time": 3157, "pitch": 59, "duration": 15, "velocity": 77}, {"time": 3160, "pitch": 67, "duration": 9, "velocity": 90}, {"time": 3163, "pitch": 52, "duration": 3, "velocity": 79}, {"time": 3166, "pitch": 66, "duration": 6, "velocity": 81}, {"time": 3172, "pitch": 36, "duration": 11, "velocity": 63}, {"time": 3172, "pitch": 48, "duration": 10, "velocity": 90}, {"time": 3172, "pitch": 60, "duration": 5, "velocity": 93}, {"time": 3172, "pitch": 64, "duration": 5, "velocity": 95}, {"time": 3172, "pitch": 67, "duration": 5, "velocity": 88}, {"time": 3178, "pitch": 60, "duration": 4, "velocity": 49}, {"time": 3178, "pitch": 64, "duration": 4, "velocity": 53}, {"time": 3178, "pitch": 67, "duration": 4, "velocity": 60}, {"time": 3184, "pitch": 36, "duration": 5, "velocity": 58}, {"time": 3184, "pitch": 48, "duration": 8, "velocity": 89}, {"time": 3184, "pitch": 60, "duration": 4, "velocity": 95}, {"time": 3184, "pitch": 64, "duration": 3, "velocity": 97}, {"time": 3184, "pitch": 67, "duration": 4, "velocity": 92}, {"time": 3190, "pitch": 60, "duration": 4, "velocity": 90}, {"time": 3190, "pitch": 64, "duration": 4, "velocity": 90}, {"time": 3190, "pitch": 67, "duration": 4, "velocity": 68}, {"time": 3196, "pitch": 38, "duration": 19, "velocity": 66}, {"time": 3196, "pitch": 50, "duration": 21, "velocity": 86}, {"time": 3196, "pitch": 62, "duration": 4, "velocity": 96}, {"time": 3196, "pitch": 66, "duration": 4, "velocity": 107}, {"time": 3196, "pitch": 69, "duration": 4, "velocity": 97}, {"time": 3202, "pitch": 62, "duration": 4, "velocity": 89}, {"time": 3202, "pitch": 66, "duration": 5, "velocity": 95}, {"time": 3202, "pitch": 69, "duration": 5, "velocity": 86}, {"time": 3208, "pitch": 62, "duration": 4, "velocity": 86}, {"time": 3208, "pitch": 66, "duration": 4, "velocity": 102}, {"time": 3208, "pitch": 69, "duration": 4, "velocity": 95}, {"time": 3214, "pitch": 62, "duration": 5, "velocity": 83}, {"time": 3214, "pitch": 66, "duration": 5, "velocity": 99}, {"time": 3214, "pitch": 69, "duration": 6, "velocity": 90}, {"time": 3220, "pitch": 43, "duration": 21, "velocity": 90}, {"time": 3223, "pitch": 50, "duration": 21, "velocity": 61}, {"time": 3226, "pitch": 55, "duration": 7, "velocity": 82}, {"time": 3229, "pitch": 59, "duration": 5, "velocity": 63}, {"time": 3232, "pitch": 67, "duration": 16, "velocity": 92}, {"time": 3235, "pitch": 55, "duration": 5, "velocity": 67}, {"time": 3238, "pitch": 62, "duration": 9, "velocity": 75}, {"time": 3241, "pitch": 59, "duration": 5, "velocity": 79}, {"time": 3244, "pitch": 43, "duration": 18, "velocity": 66}, {"time": 3247, "pitch": 50, "duration": 11, "velocity": 44}, {"time": 3250, "pitch": 55, "duration": 6, "velocity": 73}, {"time": 3253, "pitch": 59, "duration": 5, "velocity": 66}, {"time": 3256, "pitch": 67, "duration": 11, "velocity": 100}, {"time": 3259, "pitch": 50, "duration": 2, "velocity": 58}, {"time": 3262, "pitch": 62, "duration": 5, "velocity": 73}, {"time": 3265, "pitch": 59, "duration": 3, "velocity": 81}, {"time": 3268, "pitch": 38, "duration": 22, "velocity": 56}, {"time": 3271, "pitch": 45, "duration": 21, "velocity": 68}, {"time": 3274, "pitch": 50, "duration": 7, "velocity": 78}, {"time": 3277, "pitch": 54, "duration": 5, "velocity": 67}, {"time": 3280, "pitch": 62, "duration": 6, "velocity": 67}, {"time": 3283, "pitch": 50, "duration": 4, "velocity": 71}, {"time": 3286, "pitch": 57, "duration": 7, "velocity": 63}, {"time": 3289, "pitch": 54, "duration": 4, "velocity": 48}, {"time": 3292, "pitch": 38, "duration": 19, "velocity": 64}, {"time": 3295, "pitch": 45, "duration": 21, "velocity": 56}, {"time": 3298, "pitch": 50, "duration": 8, "velocity": 75}, {"time": 3301, "pitch": 54, "duration": 4, "velocity": 65}, {"time": 3304, "pitch": 62, "duration": 11, "velocity": 71}, {"time": 3307, "pitch": 50, "duration": 3, "velocity": 72}, {"time": 3310, "pitch": 57, "duration": 5, "velocity": 68}, {"time": 3313, "pitch": 54, "duration": 3, "velocity": 77}, {"time": 3316, "pitch": 40, "duration": 21, "velocity": 67}, {"time": 3319, "pitch": 47, "duration": 21, "velocity": 69}, {"time": 3322, "pitch": 52, "duration": 7, "velocity": 78}, {"time": 3325, "pitch": 55, "duration": 5, "velocity": 70}, {"time": 3328, "pitch": 64, "duration": 13, "velocity": 93}, {"time": 3331, "pitch": 52, "duration": 5, "velocity": 74}, {"time": 3334, "pitch": 59, "duration": 7, "velocity": 75}, {"time": 3337, "pitch": 55, "duration": 4, "velocity": 77}, {"time": 3340, "pitch": 40, "duration": 17, "velocity": 59}, {"time": 3343, "pitch": 47, "duration": 14, "velocity": 51}, {"time": 3346, "pitch": 52, "duration": 7, "velocity": 88}, {"time": 3349, "pitch": 55, "duration": 5, "velocity": 72}, {"time": 3352, "pitch": 64, "duration": 12, "velocity": 95}, {"time": 3355, "pitch": 52, "duration": 3, "velocity": 95}, {"time": 3358, "pitch": 59, "duration": 5, "velocity": 74}, {"time": 3361, "pitch": 55, "duration": 2, "velocity": 85}, {"time": 3364, "pitch": 47, "duration": 22, "velocity": 64}, {"time": 3367, "pitch": 54, "duration": 11, "velocity": 70}, {"time": 3370, "pitch": 59, "duration": 5, "velocity": 79}, {"time": 3373, "pitch": 62, "duration": 3, "velocity": 67}, {"time": 3376, "pitch": 66, "duration": 12, "velocity": 112}, {"time": 3379, "pitch": 54, "duration": 7, "velocity": 69}, {"time": 3382, "pitch": 62, "duration": 5, "velocity": 82}, {"time": 3385, "pitch": 59, "duration": 2, "velocity": 83}, {"time": 3388, "pitch": 47, "duration": 17, "velocity": 66}, {"time": 3391, "pitch": 54, "duration": 11, "velocity": 73}, {"time": 3394, "pitch": 59, "duration": 4, "velocity": 73}, {"time": 3397, "pitch": 62, "duration": 3, "velocity": 77}, {"time": 3400, "pitch": 66, "duration": 12, "velocity": 112}, {"time": 3403, "pitch": 62, "duration": 3, "velocity": 66}, {"time": 3406, "pitch": 59, "duration": 5, "velocity": 72}, {"time": 3409, "pitch": 62, "duration": 3, "velocity": 75}, {"time": 3412, "pitch": 36, "duration": 21, "velocity": 50}, {"time": 3415, "pitch": 43, "duration": 21, "velocity": 56}, {"time": 3418, "pitch": 48, "duration": 7, "velocity": 75}, {"time": 3421, "pitch": 52, "duration": 4, "velocity": 76}, {"time": 3424, "pitch": 55, "duration": 7, "velocity": 79}, {"time": 3427, "pitch": 48, "duration": 4, "velocity": 72}, {"time": 3430, "pitch": 52, "duration": 9, "velocity": 70}, {"time": 3433, "pitch": 60, "duration": 7, "velocity": 89}, {"time": 3436, "pitch": 36, "duration": 20, "velocity": 68}, {"time": 3439, "pitch": 43, "duration": 20, "velocity": 64}, {"time": 3442, "pitch": 48, "duration": 7, "velocity": 77}, {"time": 3445, "pitch": 52, "duration": 5, "velocity": 66}, {"time": 3448, "pitch": 60, "duration": 12, "velocity": 90}, {"time": 3451, "pitch": 48, "duration": 4, "velocity": 82}, {"time": 3454, "pitch": 55, "duration": 6, "velocity": 73}, {"time": 3457, "pitch": 52, "duration": 3, "velocity": 57}, {"time": 3460, "pitch": 38, "duration": 22, "velocity": 63}, {"time": 3463, "pitch": 45, "duration": 21, "velocity": 64}, {"time": 3466, "pitch": 50, "duration": 7, "velocity": 67}, {"time": 3469, "pitch": 57, "duration": 8, "velocity": 82}, {"time": 3472, "pitch": 66, "duration": 20, "velocity": 97}, {"time": 3475, "pitch": 50, "duration": 8, "velocity": 65}, {"time": 3478, "pitch": 62, "duration": 17, "velocity": 71}, {"time": 3481, "pitch": 57, "duration": 11, "velocity": 74}, {"time": 3484, "pitch": 38, "duration": 22, "velocity": 69}, {"time": 3487, "pitch": 45, "duration": 21, "velocity": 70}, {"time": 3490, "pitch": 50, "duration": 7, "velocity": 88}, {"time": 3493, "pitch": 57, "duration": 4, "velocity": 79}, {"time": 3496, "pitch": 62, "duration": 6, "velocity": 102}, {"time": 3496, "pitch": 66, "duration": 12, "velocity": 122}, {"time": 3499, "pitch": 50, "duration": 3, "velocity": 90}, {"time": 3502, "pitch": 57, "duration": 6, "velocity": 96}, {"time": 3505, "pitch": 62, "duration": 3, "velocity": 89}, {"time": 3508, "pitch": 40, "duration": 22, "velocity": 90}, {"time": 3511, "pitch": 47, "duration": 21, "velocity": 66}, {"time": 3514, "pitch": 52, "duration": 6, "velocity": 88}, {"time": 3517, "pitch": 59, "duration": 5, "velocity": 76}, {"time": 3520, "pitch": 67, "duration": 14, "velocity": 99}, {"time": 3523, "pitch": 52, "duration": 5, "velocity": 81}, {"time": 3526, "pitch": 59, "duration": 14, "velocity": 83}, {"time": 3529, "pitch": 66, "duration": 5, "velocity": 92}, {"time": 3532, "pitch": 40, "duration": 21, "velocity": 83}, {"time": 3535, "pitch": 47, "duration": 20, "velocity": 72}, {"time": 3538, "pitch": 52, "duration": 6, "velocity": 78}, {"time": 3541, "pitch": 59, "duration": 15, "velocity": 77}, {"time": 3544, "pitch": 67, "duration": 9, "velocity": 90}, {"time": 3547, "pitch": 52, "duration": 3, "velocity": 79}, {"time": 3550, "pitch": 66, "duration": 6, "velocity": 81}, {"time": 3556, "pitch": 36, "duration": 22, "velocity": 95}, {"time": 3559, "pitch": 43, "duration": 20, "velocity": 90}, {"time": 3562, "pitch": 48, "duration": 7, "velocity": 96}, {"time": 3565, "pitch": 55, "duration": 4, "velocity": 73}, {"time": 3568, "pitch": 64, "duration": 11, "velocity": 96}, {"time": 3571, "pitch": 48, "duration": 3, "velocity": 81}, {"time": 3574, "pitch": 60, "duration": 5, "velocity": 96}, {"time": 3577, "pitch": 55, "duration": 4, "velocity": 89}, {"time": 3580, "pitch": 38, "duration": 22, "velocity": 85}, {"time": 3583, "pitch": 45, "duration": 18, "velocity": 93}, {"time": 3586, "pitch": 50, "duration": 7, "velocity": 85}, {"time": 3589, "pitch": 57, "duration": 7, "velocity": 88}, {"time": 3592, "pitch": 66, "duration": 12, "velocity": 122}, {"time": 3595, "pitch": 50, "duration": 7, "velocity": 82}, {"time": 3598, "pitch": 62, "duration": 6, "velocity": 90}, {"time": 3601, "pitch": 57, "duration": 3, "velocity": 93}, {"time": 3604, "pitch": 43, "duration": 21, "velocity": 90}, {"time": 3607, "pitch": 50, "duration": 21, "velocity": 61}, {"time": 3610, "pitch": 55, "duration": 7, "velocity": 82}, {"time": 3613, "pitch": 59, "duration": 5, "velocity": 63}, {"time": 3616, "pitch": 67, "duration": 16, "velocity": 92}, {"time": 3619, "pitch": 55, "duration": 5, "velocity": 67}, {"time": 3622, "pitch": 62, "duration": 9, "velocity": 75}, {"time": 3625, "pitch": 59, "duration": 5, "velocity": 79}, {"time": 3628, "pitch": 43, "duration": 18, "velocity": 66}, {"time": 3631, "pitch": 50, "duration": 11, "velocity": 44}, {"time": 3634, "pitch": 55, "duration": 6, "velocity": 73}, {"time": 3637, "pitch": 59, "duration": 5, "velocity": 66}, {"time": 3640, "pitch": 67, "duration": 11, "velocity": 100}, {"time": 3643, "pitch": 50, "duration": 2, "velocity": 58}, {"time": 3646, "pitch": 62, "duration": 5, "velocity": 73}, {"time": 3649, "pitch": 59, "duration": 3, "velocity": 81}, {"time": 3652, "pitch": 38, "duration": 22, "velocity": 56}, {"time": 3655, "pitch": 45, "duration": 21, "velocity": 68}, {"time": 3658, "pitch": 50, "duration": 7, "velocity": 78}, {"time": 3661, "pitch": 54, "duration": 5, "velocity": 67}, {"time": 3664, "pitch": 62, "duration": 6, "velocity": 67}, {"time": 3667, "pitch": 50, "duration": 4, "velocity": 71}, {"time": 3670, "pitch": 57, "duration": 7, "velocity": 63}, {"time": 3673, "pitch": 54, "duration": 4, "velocity": 48}, {"time": 3676, "pitch": 38, "duration": 19, "velocity": 64}, {"time": 3679, "pitch": 45, "duration": 21, "velocity": 56}, {"time": 3682, "pitch": 50, "duration": 8, "velocity": 75}, {"time": 3685, "pitch": 54, "duration": 4, "velocity": 65}, {"time": 3688, "pitch": 62, "duration": 11, "velocity": 71}, {"time": 3691, "pitch": 50, "duration": 3, "velocity": 72}, {"time": 3694, "pitch": 57, "duration": 5, "velocity": 68}, {"time": 3697, "pitch": 54, "duration": 3, "velocity": 77}, {"time": 3700, "pitch": 40, "duration": 21, "velocity": 67}, {"time": 3703, "pitch": 47, "duration": 21, "velocity": 69}, {"time": 3706, "pitch": 52, "duration": 7, "velocity": 78}, {"time": 3709, "pitch": 55, "duration": 5, "velocity": 70}, {"time": 3712, "pitch": 64, "duration": 13, "velocity": 93}, {"time": 3715, "pitch": 52, "duration": 5, "velocity": 74}, {"time": 3718, "pitch": 59, "duration": 7, "velocity": 75}, {"time": 3721, "pitch": 55, "duration": 4, "velocity": 77}, {"time": 3724, "pitch": 40, "duration": 17, "velocity": 59}, {"time": 3727, "pitch": 47, "duration": 14, "velocity": 51}, {"time": 3730, "pitch": 52, "duration": 7, "velocity": 88}, {"time": 3733, "pitch": 55, "duration": 5, "velocity": 72}, {"time": 3736, "pitch": 64, "duration": 12, "velocity": 95}, {"time": 3739, "pitch": 52, "duration": 3, "velocity": 95}, {"time": 3742, "pitch": 59, "duration": 5, "velocity": 74}, {"time": 3745, "pitch": 55, "duration": 2, "velocity": 85}, {"time": 3748, "pitch": 47, "duration": 22, "velocity": 64}, {"time": 3751, "pitch": 54, "duration": 11, "velocity": 70}, {"time": 3754, "pitch": 59, "duration": 5, "velocity": 79}, {"time": 3757, "pitch": 62, "duration": 3, "velocity": 67}, {"time": 3760, "pitch": 66, "duration": 12, "velocity": 112}, {"time": 3763, "pitch": 54, "duration": 7, "velocity": 69}, {"time": 3766, "pitch": 62, "duration": 5, "velocity": 82}, {"time": 3769, "pitch": 59, "duration": 2, "velocity": 83}, {"time": 3772, "pitch": 47, "duration": 17, "velocity": 66}, {"time": 3775, "pitch": 54, "duration": 11, "velocity": 73}, {"time": 3778, "pitch": 59, "duration": 4, "velocity": 73}, {"time": 3781, "pitch": 62, "duration": 3, "velocity": 77}, {"time": 3784, "pitch": 66, "duration": 12, "velocity": 112}, {"time": 3787, "pitch": 62, "duration": 3, "velocity": 66}, {"time": 3790, "pitch": 59, "duration": 5, "velocity": 72}, {"time": 3793, "pitch": 62, "duration": 3, "velocity": 75}, {"time": 3796, "pitch": 36, "duration": 21, "velocity": 50}, {"time": 3799, "pitch": 43, "duration": 21, "velocity": 56}, {"time": 3802, "pitch": 48, "duration": 7, "velocity": 75}, {"time": 3805, "pitch": 52, "duration": 4, "velocity": 76}, {"time": 3808, "pitch": 55, "duration": 7, "velocity": 79}, {"time": 3811, "pitch": 48, "duration": 4, "velocity": 72}, {"time": 3814, "pitch": 52, "duration": 9, "velocity": 70}, {"time": 3817, "pitch": 60, "duration": 7, "velocity": 89}, {"time": 3820, "pitch": 36, "duration": 20, "velocity": 68}, {"time": 3823, "pitch": 43, "duration": 20, "velocity": 64}, {"time": 3826, "pitch": 48, "duration": 7, "velocity": 77}, {"time": 3829, "pitch": 52, "duration": 5, "velocity": 66}, {"time": 3832, "pitch": 60, "duration": 12, "velocity": 90}, {"time": 3835, "pitch": 48, "duration": 4, "velocity": 82}, {"time": 3838, "pitch": 55, "duration": 6, "velocity": 73}, {"time": 3841, "pitch": 52, "duration": 3, "velocity": 57}, {"time": 3844, "pitch": 38, "duration": 22, "velocity": 63}, {"time": 3847, "pitch": 45, "duration": 21, "velocity": 64}, {"time": 3850, "pitch": 50, "duration": 7, "velocity": 67}, {"time": 3853, "pitch": 57, "duration": 8, "velocity": 82}, {"time": 3856, "pitch": 66, "duration": 20, "velocity": 97}, {"time": 3859, "pitch": 50, "duration": 8, "velocity": 65}, {"time": 3862, "pitch": 62, "duration": 17, "velocity": 71}, {"time": 3865, "pitch": 57, "duration": 11, "velocity": 74}, {"time": 3868, "pitch": 38, "duration": 22, "velocity": 69}, {"time": 3871, "pitch": 45, "duration": 21, "velocity": 70}, {"time": 3874, "pitch": 50, "duration": 7, "velocity": 88}, {"time": 3877, "pitch": 57, "duration": 4, "velocity": 79}, {"time": 3880, "pitch": 62, "duration": 6, "velocity": 102}, {"time": 3880, "pitch": 66, "duration": 12, "velocity": 122}, {"time": 3883, "pitch": 50, "duration": 3, "velocity": 90}, {"time": 3886, "pitch": 57, "duration": 6, "velocity": 96}, {"time": 3889, "pitch": 62, "duration": 3, "velocity": 89}, {"time": 3892, "pitch": 40, "duration": 22, "velocity": 90}, {"time": 3895, "pitch": 47, "duration": 21, "velocity": 66}, {"time": 3898, "pitch": 52, "duration": 6, "velocity": 88}, {"time": 3901, "pitch": 59, "duration": 5, "velocity": 76}, {"time": 3904, "pitch": 67, "duration": 14, "velocity": 99}, {"time": 3907, "pitch": 52, "duration": 5, "velocity": 81}, {"time": 3910, "pitch": 59, "duration": 14, "velocity": 83}, {"time": 3913, "pitch": 66, "duration": 5, "velocity": 92}, {"time": 3916, "pitch": 40, "duration": 21, "velocity": 83}, {"time": 3919, "pitch": 47, "duration": 20, "velocity": 72}, {"time": 3922, "pitch": 52, "duration": 6, "velocity": 78}, {"time": 3925, "pitch": 59, "duration": 15, "velocity": 77}, {"time": 3928, "pitch": 67, "duration": 9, "velocity": 90}, {"time": 3931, "pitch": 52, "duration": 3, "velocity": 79}, {"time": 3934, "pitch": 66, "duration": 6, "velocity": 81}, {"time": 3940, "pitch": 36, "duration": 21, "velocity": 86}, {"time": 3943, "pitch": 43, "duration": 20, "velocity": 85}, {"time": 3946, "pitch": 48, "duration": 7, "velocity": 90}, {"time": 3949, "pitch": 55, "duration": 5, "velocity": 67}, {"time": 3952, "pitch": 64, "duration": 13, "velocity": 100}, {"time": 3955, "pitch": 48, "duration": 4, "velocity": 78}, {"time": 3958, "pitch": 60, "duration": 6, "velocity": 88}, {"time": 3961, "pitch": 55, "duration": 4, "velocity": 83}, {"time": 3964, "pitch": 38, "duration": 19, "velocity": 88}, {"time": 3967, "pitch": 45, "duration": 16, "velocity": 89}, {"time": 3970, "pitch": 50, "duration": 7, "velocity": 86}, {"time": 3973, "pitch": 57, "duration": 5, "velocity": 92}, {"time": 3976, "pitch": 66, "duration": 8, "velocity": 127}, {"time": 3979, "pitch": 50, "duration": 4, "velocity": 88}, {"time": 3982, "pitch": 62, "duration": 2, "velocity": 92}, {"time": 3988, "pitch": 40, "duration": 1, "velocity": 29}, {"time": 3988, "pitch": 40, "duration": 1, "velocity": 56}, {"time": 3988, "pitch": 47, "duration": 79, "velocity": 72}, {"time": 3988, "pitch": 52, "duration": 80, "velocity": 86}, {"time": 3988, "pitch": 56, "duration": 80, "velocity": 93}, {"time": 3988, "pitch": 59, "duration": 79, "velocity": 71}, {"time": 3988, "pitch": 64, "duration": 79, "velocity": 72}], "annotations": [{"time": 4, "annotation": {"number": 64, "value": 127}, "group": "control_change"}, {"time": 49, "annotation": {"number": 64, "value": 0}, "group": "control_change"}, {"time": 52, "annotation": {"number": 64, "value": 127}, "group": "control_change"}, {"time": 97, "annotation": {"number": 64, "value": 0}, "group": "control_change"}, {"time": 101, "annotation": {"number": 64, "value": 127}, "group": "control_change"}, {"time": 144, "annotation": {"number": 64, "value": 0}, "group": "control_change"}, {"time": 149, "annotation": {"number": 64, "value": 127}, "group": "control_change"}, {"time": 192, "annotation": {"number": 64, "value": 0}, "group": "control_change"}, {"time": 196, "annotation": {"number": 64, "value": 127}, "group": "control_change"}, {"time": 240, "annotation": {"number": 64, "value": 0}, "group": "control_change"}, {"time": 245, "annotation": {"number": 64, "value": 127}, "group": "control_change"}, {"time": 287, "annotation": {"number": 64, "value": 0}, "group": "control_change"}, {"time": 292, "annotation": {"number": 64, "value": 127}, "group": "control_change"}, {"time": 316, "annotation": {"number": 64, "value": 0}, "group": "control_change"}, {"time": 389, "annotation": {"number": 64, "value": 127}, "group": "control_change"}, {"time": 435, "annotation": {"number": 64, "value": 0}, "group": "control_change"}, {"time": 437, "annotation": {"number": 64, "value": 127}, "group": "control_change"}, {"time": 530, "annotation": {"number": 64, "value": 0}, "group": "control_change"}, {"time": 533, "annotation": {"number": 64, "value": 127}, "group": "control_change"}, {"time": 577, "annotation": {"number": 64, "value": 0}, "group": "control_change"}, {"time": 581, "annotation": {"number": 64, "value": 127}, "group": "control_change"}, {"time": 625, "annotation": {"number": 64, "value": 0}, "group": "control_change"}, {"time": 628, "annotation": {"number": 64, "value": 127}, "group": "control_change"}, {"time": 672, "annotation": {"number": 64, "value": 0}, "group": "control_change"}, {"time": 676, "annotation": {"number": 64, "value": 127}, "group": "control_change"}, {"time": 719, "annotation": {"number": 64, "value": 0}, "group": "control_change"}, {"time": 724, "annotation": {"number": 64, "value": 127}, "group": "control_change"}, {"time": 766, "annotation": {"number": 64, "value": 0}, "group": "control_change"}, {"time": 778, "annotation": {"number": 64, "value": 127}, "group": "control_change"}, {"time": 814, "annotation": {"number": 64, "value": 0}, "group": "control_change"}, {"time": 820, "annotation": {"number": 64, "value": 127}, "group": "control_change"}, {"time": 862, "annotation": {"number": 64, "value": 0}, "group": "control_change"}, {"time": 868, "annotation": {"number": 64, "value": 127}, "group": "control_change"}, {"time": 912, "annotation": {"number": 64, "value": 0}, "group": "control_change"}, {"time": 917, "annotation": {"number": 64, "value": 127}, "group": "control_change"}, {"time": 962, "annotation": {"number": 64, "value": 0}, "group": "control_change"}, {"time": 965, "annotation": {"number": 64, "value": 127}, "group": "control_change"}, {"time": 1007, "annotation": {"number": 64, "value": 0}, "group": "control_change"}, {"time": 1012, "annotation": {"number": 64, "value": 127}, "group": "control_change"}, {"time": 1057, "annotation": {"number": 64, "value": 0}, "group": "control_change"}, {"time": 1061, "annotation": {"number": 64, "value": 127}, "group": "control_change"}, {"time": 1101, "annotation": {"number": 64, "value": 0}, "group": "control_change"}, {"time": 1108, "annotation": {"number": 64, "value": 127}, "group": "control_change"}, {"time": 1143, "annotation": {"number": 64, "value": 0}, "group": "control_change"}, {"time": 1144, "annotation": {"number": 64, "value": 127}, "group": "control_change"}, {"time": 1151, "annotation": {"number": 64, "value": 0}, "group": "control_change"}, {"time": 1156, "annotation": {"number": 64, "value": 127}, "group": "control_change"}, {"time": 1177, "annotation": {"number": 64, "value": 0}, "group": "control_change"}, {"time": 1180, "annotation": {"number": 64, "value": 127}, "group": "control_change"}, {"time": 1202, "annotation": {"number": 64, "value": 0}, "group": "control_change"}, {"time": 1204, "annotation": {"number": 64, "value": 127}, "group": "control_change"}, {"time": 1205, "annotation": {"number": 64, "value": 0}, "group": "control_change"}, {"time": 1206, "annotation": {"number": 64, "value": 127}, "group": "control_change"}, {"time": 1227, "annotation": {"number": 64, "value": 0}, "group": "control_change"}, {"time": 1228, "annotation": {"number": 64, "value": 127}, "group": "control_change"}, {"time": 1250, "annotation": {"number": 64, "value": 0}, "group": "control_change"}, {"time": 1252, "annotation": {"number": 64, "value": 127}, "group": "control_change"}, {"time": 1273, "annotation": {"number": 64, "value": 0}, "group": "control_change"}, {"time": 1276, "annotation": {"number": 64, "value": 127}, "group": "control_change"}, {"time": 1297, "annotation": {"number": 64, "value": 0}, "group": "control_change"}, {"time": 1300, "annotation": {"number": 64, "value": 127}, "group": "control_change"}, {"time": 1320, "annotation": {"number": 64, "value": 0}, "group": "control_change"}, {"time": 1324, "annotation": {"number": 64, "value": 127}, "group": "control_change"}, {"time": 1346, "annotation": {"number": 64, "value": 0}, "group": "control_change"}, {"time": 1349, "annotation": {"number": 64, "value": 127}, "group": "control_change"}, {"time": 1368, "annotation": {"number": 64, "value": 0}, "group": "control_change"}, {"time": 1372, "annotation": {"number": 64, "value": 127}, "group": "control_change"}, {"time": 1393, "annotation": {"number": 64, "value": 0}, "group": "control_change"}, {"time": 1396, "annotation": {"number": 64, "value": 127}, "group": "control_change"}, {"time": 1417, "annotation": {"number": 64, "value": 0}, "group": "control_change"}, {"time": 1420, "annotation": {"number": 64, "value": 127}, "group": "control_change"}, {"time": 1441, "annotation": {"number": 64, "value": 0}, "group": "control_change"}, {"time": 1444, "annotation": {"number": 64, "value": 127}, "group": "control_change"}, {"time": 1466, "annotation": {"number": 64, "value": 0}, "group": "control_change"}, {"time": 1468, "annotation": {"number": 64, "value": 127}, "group": "control_change"}, {"time": 1489, "annotation": {"number": 64, "value": 0}, "group": "control_change"}, {"time": 1492, "annotation": {"number": 64, "value": 127}, "group": "control_change"}, {"time": 1514, "annotation": {"number": 64, "value": 0}, "group": "control_change"}, {"time": 1517, "annotation": {"number": 64, "value": 127}, "group": "control_change"}, {"time": 1536, "annotation": {"number": 64, "value": 0}, "group": "control_change"}, {"time": 1540, "annotation": {"number": 64, "value": 127}, "group": "control_change"}, {"time": 1561, "annotation": {"number": 64, "value": 0}, "group": "control_change"}, {"time": 1564, "annotation": {"number": 64, "value": 127}, "group": "control_change"}, {"time": 1586, "annotation": {"number": 64, "value": 0}, "group": "control_change"}, {"time": 1588, "annotation": {"number": 64, "value": 127}, "group": "control_change"}, {"time": 1589, "annotation": {"number": 64, "value": 0}, "group": "control_change"}, {"time": 1590, "annotation": {"number": 64, "value": 127}, "group": "control_change"}, {"time": 1611, "annotation": {"number": 64, "value": 0}, "group": "control_change"}, {"time": 1612, "annotation": {"number": 64, "value": 127}, "group": "control_change"}, {"time": 1634, "annotation": {"number": 64, "value": 0}, "group": "control_change"}, {"time": 1636, "annotation": {"number": 64, "value": 127}, "group": "control_change"}, {"time": 1657, "annotation": {"number": 64, "value": 0}, "group": "control_change"}, {"time": 1660, "annotation": {"number": 64, "value": 127}, "group": "control_change"}, {"time": 1681, "annotation": {"number": 64, "value": 0}, "group": "control_change"}, {"time": 1684, "annotation": {"number": 64, "value": 127}, "group": "control_change"}, {"time": 1704, "annotation": {"number": 64, "value": 0}, "group": "control_change"}, {"time": 1708, "annotation": {"number": 64, "value": 127}, "group": "control_change"}, {"time": 1730, "annotation": {"number": 64, "value": 0}, "group": "control_change"}, {"time": 1733, "annotation": {"number": 64, "value": 127}, "group": "control_change"}, {"time": 1752, "annotation": {"number": 64, "value": 0}, "group": "control_change"}, {"time": 1756, "annotation": {"number": 64, "value": 127}, "group": "control_change"}, {"time": 1777, "annotation": {"number": 64, "value": 0}, "group": "control_change"}, {"time": 1780, "annotation": {"number": 64, "value": 127}, "group": "control_change"}, {"time": 1801, "annotation": {"number": 64, "value": 0}, "group": "control_change"}, {"time": 1804, "annotation": {"number": 64, "value": 127}, "group": "control_change"}, {"time": 1825, "annotation": {"number": 64, "value": 0}, "group": "control_change"}, {"time": 1828, "annotation": {"number": 64, "value": 127}, "group": "control_change"}, {"time": 1850, "annotation": {"number": 64, "value": 0}, "group": "control_change"}, {"time": 1852, "annotation": {"number": 64, "value": 127}, "group": "control_change"}, {"time": 1873, "annotation": {"number": 64, "value": 0}, "group": "control_change"}, {"time": 1876, "annotation": {"number": 64, "value": 127}, "group": "control_change"}, {"time": 1878, "annotation": {"number": 64, "value": 127}, "group": "control_change"}, {"time": 1895, "annotation": {"number": 64, "value": 0}, "group": "control_change"}, {"time": 1901, "annotation": {"number": 64, "value": 127}, "group": "control_change"}, {"time": 1918, "annotation": {"number": 64, "value": 0}, "group": "control_change"}, {"time": 1925, "annotation": {"number": 64, "value": 127}, "group": "control_change"}, {"time": 1967, "annotation": {"number": 64, "value": 0}, "group": "control_change"}, {"time": 1972, "annotation": {"number": 64, "value": 127}, "group": "control_change"}, {"time": 2014, "annotation": {"number": 64, "value": 0}, "group": "control_change"}, {"time": 2020, "annotation": {"number": 64, "value": 127}, "group": "control_change"}, {"time": 2042, "annotation": {"number": 64, "value": 0}, "group": "control_change"}, {"time": 2045, "annotation": {"number": 64, "value": 127}, "group": "control_change"}, {"time": 2063, "annotation": {"number": 64, "value": 0}, "group": "control_change"}, {"time": 2074, "annotation": {"number": 64, "value": 127}, "group": "control_change"}, {"time": 2110, "annotation": {"number": 64, "value": 0}, "group": "control_change"}, {"time": 2116, "annotation": {"number": 64, "value": 127}, "group": "control_change"}, {"time": 2158, "annotation": {"number": 64, "value": 0}, "group": "control_change"}, {"time": 2164, "annotation": {"number": 64, "value": 127}, "group": "control_change"}, {"time": 2208, "annotation": {"number": 64, "value": 0}, "group": "control_change"}, {"time": 2213, "annotation": {"number": 64, "value": 127}, "group": "control_change"}, {"time": 2258, "annotation": {"number": 64, "value": 0}, "group": "control_change"}, {"time": 2261, "annotation": {"number": 64, "value": 127}, "group": "control_change"}, {"time": 2303, "annotation": {"number": 64, "value": 0}, "group": "control_change"}, {"time": 2308, "annotation": {"number": 64, "value": 127}, "group": "control_change"}, {"time": 2353, "annotation": {"number": 64, "value": 0}, "group": "control_change"}, {"time": 2357, "annotation": {"number": 64, "value": 127}, "group": "control_change"}, {"time": 2397, "annotation": {"number": 64, "value": 0}, "group": "control_change"}, {"time": 2404, "annotation": {"number": 64, "value": 127}, "group": "control_change"}, {"time": 2439, "annotation": {"number": 64, "value": 0}, "group": "control_change"}, {"time": 2440, "annotation": {"number": 64, "value": 127}, "group": "control_change"}, {"time": 2447, "annotation": {"number": 64, "value": 0}, "group": "control_change"}, {"time": 2452, "annotation": {"number": 64, "value": 127}, "group": "control_change"}, {"time": 2473, "annotation": {"number": 64, "value": 0}, "group": "control_change"}, {"time": 2476, "annotation": {"number": 64, "value": 127}, "group": "control_change"}, {"time": 2498, "annotation": {"number": 64, "value": 0}, "group": "control_change"}, {"time": 2500, "annotation": {"number": 64, "value": 127}, "group": "control_change"}, {"time": 2501, "annotation": {"number": 64, "value": 0}, "group": "control_change"}, {"time": 2502, "annotation": {"number": 64, "value": 127}, "group": "control_change"}, {"time": 2523, "annotation": {"number": 64, "value": 0}, "group": "control_change"}, {"time": 2524, "annotation": {"number": 64, "value": 127}, "group": "control_change"}, {"time": 2546, "annotation": {"number": 64, "value": 0}, "group": "control_change"}, {"time": 2548, "annotation": {"number": 64, "value": 127}, "group": "control_change"}, {"time": 2569, "annotation": {"number": 64, "value": 0}, "group": "control_change"}, {"time": 2572, "annotation": {"number": 64, "value": 127}, "group": "control_change"}, {"time": 2593, "annotation": {"number": 64, "value": 0}, "group": "control_change"}, {"time": 2596, "annotation": {"number": 64, "value": 127}, "group": "control_change"}, {"time": 2616, "annotation": {"number": 64, "value": 0}, "group": "control_change"}, {"time": 2620, "annotation": {"number": 64, "value": 127}, "group": "control_change"}, {"time": 2642, "annotation": {"number": 64, "value": 0}, "group": "control_change"}, {"time": 2645, "annotation": {"number": 64, "value": 127}, "group": "control_change"}, {"time": 2664, "annotation": {"number": 64, "value": 0}, "group": "control_change"}, {"time": 2668, "annotation": {"number": 64, "value": 127}, "group": "control_change"}, {"time": 2689, "annotation": {"number": 64, "value": 0}, "group": "control_change"}, {"time": 2692, "annotation": {"number": 64, "value": 127}, "group": "control_change"}, {"time": 2713, "annotation": {"number": 64, "value": 0}, "group": "control_change"}, {"time": 2716, "annotation": {"number": 64, "value": 127}, "group": "control_change"}, {"time": 2737, "annotation": {"number": 64, "value": 0}, "group": "control_change"}, {"time": 2740, "annotation": {"number": 64, "value": 127}, "group": "control_change"}, {"time": 2762, "annotation": {"number": 64, "value": 0}, "group": "control_change"}, {"time": 2764, "annotation": {"number": 64, "value": 127}, "group": "control_change"}, {"time": 2785, "annotation": {"number": 64, "value": 0}, "group": "control_change"}, {"time": 2788, "annotation": {"number": 64, "value": 127}, "group": "control_change"}, {"time": 2810, "annotation": {"number": 64, "value": 0}, "group": "control_change"}, {"time": 2813, "annotation": {"number": 64, "value": 127}, "group": "control_change"}, {"time": 2832, "annotation": {"number": 64, "value": 0}, "group": "control_change"}, {"time": 2836, "annotation": {"number": 64, "value": 127}, "group": "control_change"}, {"time": 2857, "annotation": {"number": 64, "value": 0}, "group": "control_change"}, {"time": 2860, "annotation": {"number": 64, "value": 127}, "group": "control_change"}, {"time": 2882, "annotation": {"number": 64, "value": 0}, "group": "control_change"}, {"time": 2884, "annotation": {"number": 64, "value": 127}, "group": "control_change"}, {"time": 2885, "annotation": {"number": 64, "value": 0}, "group": "control_change"}, {"time": 2886, "annotation": {"number": 64, "value": 127}, "group": "control_change"}, {"time": 2907, "annotation": {"number": 64, "value": 0}, "group": "control_change"}, {"time": 2908, "annotation": {"number": 64, "value": 127}, "group": "control_change"}, {"time": 2930, "annotation": {"number": 64, "value": 0}, "group": "control_change"}, {"time": 2932, "annotation": {"number": 64, "value": 127}, "group": "control_change"}, {"time": 2953, "annotation": {"number": 64, "value": 0}, "group": "control_change"}, {"time": 2956, "annotation": {"number": 64, "value": 127}, "group": "control_change"}, {"time": 2977, "annotation": {"number": 64, "value": 0}, "group": "control_change"}, {"time": 2980, "annotation": {"number": 64, "value": 127}, "group": "control_change"}, {"time": 3000, "annotation": {"number": 64, "value": 0}, "group": "control_change"}, {"time": 3004, "annotation": {"number": 64, "value": 127}, "group": "control_change"}, {"time": 3026, "annotation": {"number": 64, "value": 0}, "group": "control_change"}, {"time": 3029, "annotation": {"number": 64, "value": 127}, "group": "control_change"}, {"time": 3048, "annotation": {"number": 64, "value": 0}, "group": "control_change"}, {"time": 3052, "annotation": {"number": 64, "value": 127}, "group": "control_change"}, {"time": 3073, "annotation": {"number": 64, "value": 0}, "group": "control_change"}, {"time": 3076, "annotation": {"number": 64, "value": 127}, "group": "control_change"}, {"time": 3097, "annotation": {"number": 64, "value": 0}, "group": "control_change"}, {"time": 3100, "annotation": {"number": 64, "value": 127}, "group": "control_change"}, {"time": 3121, "annotation": {"number": 64, "value": 0}, "group": "control_change"}, {"time": 3124, "annotation": {"number": 64, "value": 127}, "group": "control_change"}, {"time": 3146, "annotation": {"number": 64, "value": 0}, "group": "control_change"}, {"time": 3148, "annotation": {"number": 64, "value": 127}, "group": "control_change"}, {"time": 3169, "annotation": {"number": 64, "value": 0}, "group": "control_change"}, {"time": 3172, "annotation": {"number": 64, "value": 127}, "group": "control_change"}, {"time": 3173, "annotation": {"number": 64, "value": 127}, "group": "control_change"}, {"time": 3193, "annotation": {"number": 64, "value": 0}, "group": "control_change"}, {"time": 3220, "annotation": {"number": 64, "value": 127}, "group": "control_change"}, {"time": 3241, "annotation": {"number": 64, "value": 0}, "group": "control_change"}, {"time": 3244, "annotation": {"number": 64, "value": 127}, "group": "control_change"}, {"time": 3266, "annotation": {"number": 64, "value": 0}, "group": "control_change"}, {"time": 3268, "annotation": {"number": 64, "value": 127}, "group": "control_change"}, {"time": 3269, "annotation": {"number": 64, "value": 0}, "group": "control_change"}, {"time": 3270, "annotation": {"number": 64, "value": 127}, "group": "control_change"}, {"time": 3291, "annotation": {"number": 64, "value": 0}, "group": "control_change"}, {"time": 3292, "annotation": {"number": 64, "value": 127}, "group": "control_change"}, {"time": 3314, "annotation": {"number": 64, "value": 0}, "group": "control_change"}, {"time": 3316, "annotation": {"number": 64, "value": 127}, "group": "control_change"}, {"time": 3337, "annotation": {"number": 64, "value": 0}, "group": "control_change"}, {"time": 3340, "annotation": {"number": 64, "value": 127}, "group": "control_change"}, {"time": 3361, "annotation": {"number": 64, "value": 0}, "group": "control_change"}, {"time": 3364, "annotation": {"number": 64, "value": 127}, "group": "control_change"}, {"time": 3384, "annotation": {"number": 64, "value": 0}, "group": "control_change"}, {"time": 3388, "annotation": {"number": 64, "value": 127}, "group": "control_change"}, {"time": 3410, "annotation": {"number": 64, "value": 0}, "group": "control_change"}, {"time": 3413, "annotation": {"number": 64, "value": 127}, "group": "control_change"}, {"time": 3432, "annotation": {"number": 64, "value": 0}, "group": "control_change"}, {"time": 3436, "annotation": {"number": 64, "value": 127}, "group": "control_change"}, {"time": 3457, "annotation": {"number": 64, "value": 0}, "group": "control_change"}, {"time": 3460, "annotation": {"number": 64, "value": 127}, "group": "control_change"}, {"time": 3481, "annotation": {"number": 64, "value": 0}, "group": "control_change"}, {"time": 3484, "annotation": {"number": 64, "value": 127}, "group": "control_change"}, {"time": 3505, "annotation": {"number": 64, "value": 0}, "group": "control_change"}, {"time": 3508, "annotation": {"number": 64, "value": 127}, "group": "control_change"}, {"time": 3530, "annotation": {"number": 64, "value": 0}, "group": "control_change"}, {"time": 3532, "annotation": {"number": 64, "value": 127}, "group": "control_change"}, {"time": 3553, "annotation": {"number": 64, "value": 0}, "group": "control_change"}, {"time": 3556, "annotation": {"number": 64, "value": 127}, "group": "control_change"}, {"time": 3577, "annotation": {"number": 64, "value": 0}, "group": "control_change"}, {"time": 3580, "annotation": {"number": 64, "value": 127}, "group": "control_change"}, {"time": 3601, "annotation": {"number": 64, "value": 0}, "group": "control_change"}, {"time": 3604, "annotation": {"number": 64, "value": 127}, "group": "control_change"}, {"time": 3625, "annotation": {"number": 64, "value": 0}, "group": "control_change"}, {"time": 3628, "annotation": {"number": 64, "value": 127}, "group": "control_change"}, {"time": 3650, "annotation": {"number": 64, "value": 0}, "group": "control_change"}, {"time": 3652, "annotation": {"number": 64, "value": 127}, "group": "control_change"}, {"time": 3653, "annotation": {"number": 64, "value": 0}, "group": "control_change"}, {"time": 3654, "annotation": {"number": 64, "value": 127}, "group": "control_change"}, {"time": 3675, "annotation": {"number": 64, "value": 0}, "group": "control_change"}, {"time": 3676, "annotation": {"number": 64, "value": 127}, "group": "control_change"}, {"time": 3698, "annotation": {"number": 64, "value": 0}, "group": "control_change"}, {"time": 3700, "annotation": {"number": 64, "value": 127}, "group": "control_change"}, {"time": 3721, "annotation": {"number": 64, "value": 0}, "group": "control_change"}, {"time": 3724, "annotation": {"number": 64, "value": 127}, "group": "control_change"}, {"time": 3745, "annotation": {"number": 64, "value": 0}, "group": "control_change"}, {"time": 3748, "annotation": {"number": 64, "value": 127}, "group": "control_change"}, {"time": 3768, "annotation": {"number": 64, "value": 0}, "group": "control_change"}, {"time": 3772, "annotation": {"number": 64, "value": 127}, "group": "control_change"}, {"time": 3794, "annotation": {"number": 64, "value": 0}, "group": "control_change"}, {"time": 3797, "annotation": {"number": 64, "value": 127}, "group": "control_change"}, {"time": 3816, "annotation": {"number": 64, "value": 0}, "group": "control_change"}, {"time": 3820, "annotation": {"number": 64, "value": 127}, "group": "control_change"}, {"time": 3841, "annotation": {"number": 64, "value": 0}, "group": "control_change"}, {"time": 3844, "annotation": {"number": 64, "value": 127}, "group": "control_change"}, {"time": 3865, "annotation": {"number": 64, "value": 0}, "group": "control_change"}, {"time": 3868, "annotation": {"number": 64, "value": 127}, "group": "control_change"}, {"time": 3889, "annotation": {"number": 64, "value": 0}, "group": "control_change"}, {"time": 3892, "annotation": {"number": 64, "value": 127}, "group": "control_change"}, {"time": 3914, "annotation": {"number": 64, "value": 0}, "group": "control_change"}, {"time": 3916, "annotation": {"number": 64, "value": 127}, "group": "control_change"}, {"time": 3937, "annotation": {"number": 64, "value": 0}, "group": "control_change"}, {"time": 3940, "annotation": {"number": 64, "value": 127}, "group": "control_change"}, {"time": 3941, "annotation": {"number": 64, "value": 127}, "group": "control_change"}, {"time": 3961, "annotation": {"number": 64, "value": 0}, "group": "control_change"}, {"time": 3965, "annotation": {"number": 64, "value": 127}, "group": "control_change"}, {"time": 3990, "annotation": {"number": 64, "value": 0}, "group": "control_change"}, {"time": 4051, "annotation": {"number": 64, "value": 127}, "group": "control_change"}, {"time": 4107, "annotation": {"number": 64, "value": 0}, "group": "control_change"}, {"time": 4108, "annotation": {"number": 64, "value": 127}, "group": "control_change"}, {"time": 4110, "annotation": {"number": 64, "value": 0}, "group": "control_change"}, {"time": 4112, "annotation": {"number": 64, "value": 127}, "group": "control_change"}, {"time": 4115, "annotation": {"number": 64, "value": 0}, "group": "control_change"}, {"time": 4117, "annotation": {"number": 64, "value": 127}, "group": "control_change"}, {"time": 4124, "annotation": {"number": 64, "value": 0}, "group": "control_change"}]}]}