{"metadata": {"schema_version": "0.2", "title": "None", "source_filename": "773.mid", "source_format": "midi"}, "resolution": 12, "tempos": [{"time": 0, "qpm": 59.100024822010425}, {"time": 192, "qpm": 60.0}, {"time": 312, "qpm": 59.00006686674245}, {"time": 396, "qpm": 57.000031350017245}, {"time": 408, "qpm": 58.00004253336452}, {"time": 492, "qpm": 59.00006686674245}, {"time": 588, "qpm": 45.99999386666749}, {"time": 600, "qpm": 59.50008032510844}, {"time": 648, "qpm": 60.49997176667984}, {"time": 768, "qpm": 60.99997255001235}, {"time": 924, "qpm": 60.0}, {"time": 948, "qpm": 60.49997176667984}, {"time": 996, "qpm": 60.0}, {"time": 1140, "qpm": 60.99997255001235}, {"time": 1284, "qpm": 60.0}, {"time": 1416, "qpm": 60.99997255001235}, {"time": 1512, "qpm": 60.49997176667984}], "time_signatures": [{"time": 0, "numerator": 1, "denominator": 4}], "tracks": [{"program": 4, "is_drum": false, "name": "MELODY", "notes": [{"time": 210, "pitch": 59, "duration": 5, "velocity": 107}, {"time": 216, "pitch": 59, "duration": 5, "velocity": 95}, {"time": 222, "pitch": 60, "duration": 6, "velocity": 112}, {"time": 228, "pitch": 59, "duration": 2, "velocity": 96}, {"time": 231, "pitch": 62, "duration": 4, "velocity": 100}, {"time": 237, "pitch": 62, "duration": 7, "velocity": 122}, {"time": 243, "pitch": 64, "duration": 4, "velocity": 99}, {"time": 249, "pitch": 62, "duration": 7, "velocity": 102}, {"time": 261, "pitch": 67, "duration": 4, "velocity": 100}, {"time": 267, "pitch": 67, "duration": 5, "velocity": 100}, {"time": 273, "pitch": 66, "duration": 5, "velocity": 107}, {"time": 282, "pitch": 62, "duration": 4, "velocity": 81}, {"time": 285, "pitch": 59, "duration": 13, "velocity": 78}, {"time": 312, "pitch": 55, "duration": 4, "velocity": 92}, {"time": 318, "pitch": 64, "duration": 4, "velocity": 89}, {"time": 324, "pitch": 55, "duration": 5, "velocity": 79}, {"time": 330, "pitch": 54, "duration": 7, "velocity": 72}, {"time": 336, "pitch": 62, "duration": 5, "velocity": 88}, {"time": 342, "pitch": 62, "duration": 5, "velocity": 92}, {"time": 348, "pitch": 60, "duration": 3, "velocity": 96}, {"time": 351, "pitch": 59, "duration": 4, "velocity": 69}, {"time": 354, "pitch": 60, "duration": 16, "velocity": 77}, {"time": 372, "pitch": 59, "duration": 2, "velocity": 78}, {"time": 375, "pitch": 60, "duration": 2, "velocity": 69}, {"time": 378, "pitch": 62, "duration": 5, "velocity": 75}, {"time": 384, "pitch": 59, "duration": 4, "velocity": 77}, {"time": 390, "pitch": 57, "duration": 8, "velocity": 77}, {"time": 402, "pitch": 59, "duration": 4, "velocity": 92}, {"time": 408, "pitch": 59, "duration": 5, "velocity": 81}, {"time": 414, "pitch": 60, "duration": 5, "velocity": 82}, {"time": 420, "pitch": 59, "duration": 3, "velocity": 78}, {"time": 423, "pitch": 62, "duration": 3, "velocity": 97}, {"time": 429, "pitch": 62, "duration": 5, "velocity": 86}, {"time": 435, "pitch": 64, "duration": 5, "velocity": 82}, {"time": 441, "pitch": 66, "duration": 5, "velocity": 93}, {"time": 456, "pitch": 69, "duration": 4, "velocity": 93}, {"time": 462, "pitch": 67, "duration": 3, "velocity": 96}, {"time": 468, "pitch": 66, "duration": 2, "velocity": 92}, {"time": 471, "pitch": 67, "duration": 5, "velocity": 95}, {"time": 477, "pitch": 64, "duration": 3, "velocity": 78}, {"time": 480, "pitch": 62, "duration": 4, "velocity": 85}, {"time": 486, "pitch": 62, "duration": 6, "velocity": 92}, {"time": 504, "pitch": 66, "duration": 4, "velocity": 112}, {"time": 510, "pitch": 67, "duration": 6, "velocity": 97}, {"time": 516, "pitch": 64, "duration": 5, "velocity": 93}, {"time": 522, "pitch": 62, "duration": 6, "velocity": 93}, {"time": 528, "pitch": 64, "duration": 4, "velocity": 93}, {"time": 534, "pitch": 55, "duration": 4, "velocity": 86}, {"time": 540, "pitch": 60, "duration": 2, "velocity": 92}, {"time": 543, "pitch": 59, "duration": 3, "velocity": 72}, {"time": 546, "pitch": 60, "duration": 3, "velocity": 96}, {"time": 552, "pitch": 67, "duration": 12, "velocity": 96}, {"time": 567, "pitch": 64, "duration": 3, "velocity": 86}, {"time": 570, "pitch": 67, "duration": 17, "velocity": 100}, {"time": 588, "pitch": 66, "duration": 4, "velocity": 99}, {"time": 594, "pitch": 67, "duration": 23, "velocity": 117}, {"time": 798, "pitch": 59, "duration": 2, "velocity": 97}, {"time": 801, "pitch": 60, "duration": 3, "velocity": 82}, {"time": 804, "pitch": 59, "duration": 2, "velocity": 81}, {"time": 807, "pitch": 59, "duration": 4, "velocity": 93}, {"time": 813, "pitch": 57, "duration": 9, "velocity": 95}, {"time": 846, "pitch": 59, "duration": 3, "velocity": 95}, {"time": 849, "pitch": 60, "duration": 4, "velocity": 78}, {"time": 852, "pitch": 59, "duration": 2, "velocity": 57}, {"time": 855, "pitch": 59, "duration": 4, "velocity": 86}, {"time": 861, "pitch": 57, "duration": 10, "velocity": 88}, {"time": 867, "pitch": 55, "duration": 3, "velocity": 86}, {"time": 873, "pitch": 50, "duration": 8, "velocity": 78}, {"time": 894, "pitch": 59, "duration": 3, "velocity": 95}, {"time": 897, "pitch": 60, "duration": 3, "velocity": 69}, {"time": 900, "pitch": 59, "duration": 2, "velocity": 77}, {"time": 903, "pitch": 57, "duration": 3, "velocity": 86}, {"time": 909, "pitch": 55, "duration": 6, "velocity": 83}, {"time": 915, "pitch": 55, "duration": 3, "velocity": 90}, {"time": 924, "pitch": 50, "duration": 3, "velocity": 76}, {"time": 927, "pitch": 52, "duration": 2, "velocity": 69}, {"time": 930, "pitch": 57, "duration": 16, "velocity": 88}, {"time": 945, "pitch": 50, "duration": 3, "velocity": 85}, {"time": 948, "pitch": 52, "duration": 3, "velocity": 82}, {"time": 951, "pitch": 55, "duration": 2, "velocity": 85}, {"time": 954, "pitch": 59, "duration": 5, "velocity": 93}, {"time": 960, "pitch": 60, "duration": 2, "velocity": 93}, {"time": 963, "pitch": 55, "duration": 7, "velocity": 81}, {"time": 969, "pitch": 57, "duration": 13, "velocity": 89}, {"time": 990, "pitch": 59, "duration": 4, "velocity": 88}, {"time": 993, "pitch": 60, "duration": 4, "velocity": 73}, {"time": 996, "pitch": 59, "duration": 2, "velocity": 73}, {"time": 999, "pitch": 59, "duration": 4, "velocity": 88}, {"time": 1005, "pitch": 57, "duration": 5, "velocity": 79}, {"time": 1011, "pitch": 62, "duration": 15, "velocity": 99}, {"time": 1038, "pitch": 62, "duration": 3, "velocity": 95}, {"time": 1041, "pitch": 55, "duration": 2, "velocity": 72}, {"time": 1044, "pitch": 55, "duration": 2, "velocity": 74}, {"time": 1047, "pitch": 54, "duration": 4, "velocity": 70}, {"time": 1053, "pitch": 54, "duration": 6, "velocity": 72}, {"time": 1059, "pitch": 55, "duration": 5, "velocity": 85}, {"time": 1065, "pitch": 57, "duration": 9, "velocity": 86}, {"time": 1086, "pitch": 59, "duration": 2, "velocity": 100}, {"time": 1089, "pitch": 60, "duration": 2, "velocity": 69}, {"time": 1092, "pitch": 59, "duration": 2, "velocity": 92}, {"time": 1095, "pitch": 57, "duration": 4, "velocity": 90}, {"time": 1101, "pitch": 55, "duration": 6, "velocity": 90}, {"time": 1107, "pitch": 62, "duration": 4, "velocity": 99}, {"time": 1113, "pitch": 55, "duration": 2, "velocity": 78}, {"time": 1116, "pitch": 55, "duration": 2, "velocity": 82}, {"time": 1119, "pitch": 62, "duration": 2, "velocity": 90}, {"time": 1122, "pitch": 62, "duration": 5, "velocity": 96}, {"time": 1128, "pitch": 60, "duration": 2, "velocity": 81}, {"time": 1131, "pitch": 60, "duration": 7, "velocity": 89}, {"time": 1143, "pitch": 55, "duration": 3, "velocity": 78}, {"time": 1146, "pitch": 62, "duration": 5, "velocity": 90}, {"time": 1152, "pitch": 60, "duration": 2, "velocity": 78}, {"time": 1155, "pitch": 60, "duration": 5, "velocity": 96}, {"time": 1161, "pitch": 55, "duration": 4, "velocity": 88}, {"time": 1167, "pitch": 62, "duration": 24, "velocity": 89}, {"time": 1218, "pitch": 59, "duration": 5, "velocity": 107}, {"time": 1224, "pitch": 59, "duration": 5, "velocity": 95}, {"time": 1230, "pitch": 60, "duration": 6, "velocity": 112}, {"time": 1236, "pitch": 59, "duration": 2, "velocity": 96}, {"time": 1239, "pitch": 62, "duration": 4, "velocity": 100}, {"time": 1245, "pitch": 62, "duration": 7, "velocity": 122}, {"time": 1251, "pitch": 64, "duration": 4, "velocity": 99}, {"time": 1257, "pitch": 62, "duration": 7, "velocity": 102}, {"time": 1269, "pitch": 67, "duration": 4, "velocity": 100}, {"time": 1275, "pitch": 67, "duration": 5, "velocity": 100}, {"time": 1281, "pitch": 66, "duration": 5, "velocity": 107}, {"time": 1290, "pitch": 62, "duration": 4, "velocity": 81}, {"time": 1293, "pitch": 59, "duration": 13, "velocity": 78}, {"time": 1320, "pitch": 55, "duration": 4, "velocity": 92}, {"time": 1326, "pitch": 64, "duration": 4, "velocity": 89}, {"time": 1332, "pitch": 55, "duration": 5, "velocity": 79}, {"time": 1338, "pitch": 54, "duration": 7, "velocity": 72}, {"time": 1344, "pitch": 62, "duration": 5, "velocity": 88}, {"time": 1350, "pitch": 62, "duration": 5, "velocity": 92}, {"time": 1356, "pitch": 60, "duration": 3, "velocity": 96}, {"time": 1359, "pitch": 59, "duration": 4, "velocity": 69}, {"time": 1362, "pitch": 60, "duration": 16, "velocity": 77}, {"time": 1380, "pitch": 59, "duration": 2, "velocity": 78}, {"time": 1383, "pitch": 60, "duration": 2, "velocity": 69}, {"time": 1386, "pitch": 62, "duration": 5, "velocity": 75}, {"time": 1392, "pitch": 59, "duration": 4, "velocity": 77}, {"time": 1398, "pitch": 57, "duration": 8, "velocity": 77}, {"time": 1410, "pitch": 59, "duration": 4, "velocity": 92}, {"time": 1416, "pitch": 59, "duration": 5, "velocity": 81}, {"time": 1422, "pitch": 60, "duration": 5, "velocity": 82}, {"time": 1428, "pitch": 59, "duration": 3, "velocity": 78}, {"time": 1431, "pitch": 62, "duration": 3, "velocity": 97}, {"time": 1437, "pitch": 62, "duration": 5, "velocity": 86}, {"time": 1443, "pitch": 64, "duration": 5, "velocity": 82}, {"time": 1449, "pitch": 66, "duration": 5, "velocity": 93}, {"time": 1464, "pitch": 69, "duration": 4, "velocity": 93}, {"time": 1470, "pitch": 67, "duration": 3, "velocity": 96}, {"time": 1476, "pitch": 66, "duration": 2, "velocity": 92}, {"time": 1479, "pitch": 67, "duration": 5, "velocity": 95}, {"time": 1485, "pitch": 64, "duration": 3, "velocity": 78}, {"time": 1488, "pitch": 62, "duration": 4, "velocity": 85}, {"time": 1494, "pitch": 62, "duration": 6, "velocity": 92}, {"time": 1512, "pitch": 66, "duration": 4, "velocity": 112}, {"time": 1518, "pitch": 67, "duration": 6, "velocity": 97}, {"time": 1524, "pitch": 64, "duration": 5, "velocity": 93}, {"time": 1530, "pitch": 62, "duration": 6, "velocity": 93}, {"time": 1536, "pitch": 64, "duration": 4, "velocity": 93}, {"time": 1542, "pitch": 55, "duration": 4, "velocity": 86}, {"time": 1548, "pitch": 60, "duration": 2, "velocity": 92}, {"time": 1551, "pitch": 59, "duration": 3, "velocity": 72}, {"time": 1554, "pitch": 60, "duration": 3, "velocity": 96}, {"time": 1560, "pitch": 67, "duration": 12, "velocity": 96}, {"time": 1575, "pitch": 64, "duration": 3, "velocity": 86}, {"time": 1578, "pitch": 67, "duration": 17, "velocity": 100}, {"time": 1596, "pitch": 66, "duration": 6, "velocity": 90}, {"time": 1602, "pitch": 67, "duration": 27, "velocity": 95}, {"time": 1634, "pitch": 65, "duration": 3, "velocity": 72}, {"time": 1636, "pitch": 67, "duration": 3, "velocity": 69}, {"time": 1638, "pitch": 65, "duration": 17, "velocity": 83}, {"time": 1806, "pitch": 59, "duration": 2, "velocity": 97}, {"time": 1809, "pitch": 60, "duration": 3, "velocity": 82}, {"time": 1812, "pitch": 59, "duration": 2, "velocity": 81}, {"time": 1815, "pitch": 59, "duration": 4, "velocity": 93}, {"time": 1821, "pitch": 57, "duration": 9, "velocity": 95}, {"time": 1854, "pitch": 59, "duration": 3, "velocity": 95}, {"time": 1857, "pitch": 60, "duration": 4, "velocity": 78}, {"time": 1860, "pitch": 59, "duration": 2, "velocity": 57}, {"time": 1863, "pitch": 59, "duration": 4, "velocity": 86}, {"time": 1869, "pitch": 57, "duration": 10, "velocity": 88}, {"time": 1875, "pitch": 55, "duration": 3, "velocity": 86}, {"time": 1881, "pitch": 50, "duration": 8, "velocity": 78}, {"time": 1902, "pitch": 59, "duration": 3, "velocity": 95}, {"time": 1905, "pitch": 60, "duration": 3, "velocity": 69}, {"time": 1908, "pitch": 59, "duration": 2, "velocity": 77}, {"time": 1911, "pitch": 57, "duration": 3, "velocity": 86}, {"time": 1917, "pitch": 55, "duration": 6, "velocity": 83}, {"time": 1923, "pitch": 55, "duration": 3, "velocity": 90}, {"time": 1932, "pitch": 50, "duration": 3, "velocity": 76}, {"time": 1935, "pitch": 52, "duration": 2, "velocity": 69}, {"time": 1938, "pitch": 57, "duration": 16, "velocity": 88}, {"time": 1953, "pitch": 50, "duration": 3, "velocity": 85}, {"time": 1956, "pitch": 52, "duration": 3, "velocity": 82}, {"time": 1959, "pitch": 55, "duration": 2, "velocity": 85}, {"time": 1962, "pitch": 59, "duration": 5, "velocity": 93}, {"time": 1968, "pitch": 60, "duration": 2, "velocity": 93}, {"time": 1971, "pitch": 55, "duration": 7, "velocity": 81}, {"time": 1977, "pitch": 57, "duration": 13, "velocity": 89}, {"time": 1998, "pitch": 59, "duration": 4, "velocity": 88}, {"time": 2001, "pitch": 60, "duration": 4, "velocity": 73}, {"time": 2004, "pitch": 59, "duration": 2, "velocity": 73}, {"time": 2007, "pitch": 59, "duration": 4, "velocity": 88}, {"time": 2013, "pitch": 57, "duration": 5, "velocity": 79}, {"time": 2019, "pitch": 62, "duration": 15, "velocity": 99}, {"time": 2046, "pitch": 62, "duration": 3, "velocity": 95}, {"time": 2049, "pitch": 55, "duration": 2, "velocity": 72}, {"time": 2052, "pitch": 55, "duration": 2, "velocity": 74}, {"time": 2055, "pitch": 54, "duration": 4, "velocity": 70}, {"time": 2061, "pitch": 54, "duration": 6, "velocity": 72}, {"time": 2067, "pitch": 55, "duration": 5, "velocity": 85}, {"time": 2073, "pitch": 57, "duration": 9, "velocity": 86}, {"time": 2094, "pitch": 59, "duration": 2, "velocity": 100}, {"time": 2097, "pitch": 60, "duration": 2, "velocity": 69}, {"time": 2100, "pitch": 59, "duration": 2, "velocity": 92}, {"time": 2103, "pitch": 57, "duration": 4, "velocity": 90}, {"time": 2109, "pitch": 55, "duration": 6, "velocity": 90}, {"time": 2115, "pitch": 62, "duration": 4, "velocity": 99}, {"time": 2121, "pitch": 55, "duration": 2, "velocity": 78}, {"time": 2124, "pitch": 55, "duration": 2, "velocity": 82}, {"time": 2127, "pitch": 62, "duration": 2, "velocity": 90}, {"time": 2130, "pitch": 62, "duration": 5, "velocity": 96}, {"time": 2136, "pitch": 60, "duration": 2, "velocity": 81}, {"time": 2139, "pitch": 60, "duration": 7, "velocity": 89}, {"time": 2151, "pitch": 55, "duration": 3, "velocity": 78}, {"time": 2154, "pitch": 62, "duration": 5, "velocity": 90}, {"time": 2160, "pitch": 60, "duration": 2, "velocity": 78}, {"time": 2163, "pitch": 60, "duration": 5, "velocity": 96}, {"time": 2169, "pitch": 55, "duration": 4, "velocity": 88}, {"time": 2175, "pitch": 62, "duration": 24, "velocity": 89}, {"time": 2226, "pitch": 59, "duration": 5, "velocity": 107}, {"time": 2232, "pitch": 59, "duration": 5, "velocity": 95}, {"time": 2238, "pitch": 60, "duration": 6, "velocity": 112}, {"time": 2244, "pitch": 59, "duration": 2, "velocity": 96}, {"time": 2247, "pitch": 62, "duration": 4, "velocity": 100}, {"time": 2253, "pitch": 62, "duration": 7, "velocity": 122}, {"time": 2259, "pitch": 64, "duration": 4, "velocity": 99}, {"time": 2265, "pitch": 62, "duration": 7, "velocity": 102}, {"time": 2277, "pitch": 67, "duration": 4, "velocity": 100}, {"time": 2283, "pitch": 67, "duration": 5, "velocity": 100}, {"time": 2289, "pitch": 66, "duration": 5, "velocity": 107}, {"time": 2298, "pitch": 62, "duration": 4, "velocity": 81}, {"time": 2301, "pitch": 59, "duration": 13, "velocity": 78}, {"time": 2328, "pitch": 55, "duration": 4, "velocity": 92}, {"time": 2334, "pitch": 64, "duration": 4, "velocity": 89}, {"time": 2340, "pitch": 55, "duration": 5, "velocity": 79}, {"time": 2346, "pitch": 54, "duration": 7, "velocity": 72}, {"time": 2352, "pitch": 62, "duration": 5, "velocity": 88}, {"time": 2358, "pitch": 62, "duration": 5, "velocity": 92}, {"time": 2364, "pitch": 60, "duration": 3, "velocity": 96}, {"time": 2367, "pitch": 59, "duration": 4, "velocity": 69}, {"time": 2370, "pitch": 60, "duration": 16, "velocity": 77}, {"time": 2388, "pitch": 59, "duration": 2, "velocity": 78}, {"time": 2391, "pitch": 60, "duration": 2, "velocity": 69}, {"time": 2394, "pitch": 62, "duration": 5, "velocity": 75}, {"time": 2400, "pitch": 59, "duration": 4, "velocity": 77}, {"time": 2406, "pitch": 57, "duration": 8, "velocity": 77}, {"time": 2418, "pitch": 59, "duration": 4, "velocity": 92}, {"time": 2424, "pitch": 59, "duration": 5, "velocity": 81}, {"time": 2430, "pitch": 60, "duration": 5, "velocity": 82}, {"time": 2436, "pitch": 59, "duration": 3, "velocity": 78}, {"time": 2439, "pitch": 62, "duration": 3, "velocity": 97}, {"time": 2445, "pitch": 62, "duration": 5, "velocity": 86}, {"time": 2451, "pitch": 64, "duration": 5, "velocity": 82}, {"time": 2457, "pitch": 66, "duration": 5, "velocity": 93}, {"time": 2472, "pitch": 69, "duration": 4, "velocity": 93}, {"time": 2478, "pitch": 67, "duration": 3, "velocity": 96}, {"time": 2484, "pitch": 66, "duration": 2, "velocity": 92}, {"time": 2487, "pitch": 67, "duration": 5, "velocity": 95}, {"time": 2493, "pitch": 64, "duration": 3, "velocity": 78}, {"time": 2496, "pitch": 62, "duration": 4, "velocity": 85}, {"time": 2502, "pitch": 62, "duration": 6, "velocity": 92}, {"time": 2520, "pitch": 66, "duration": 4, "velocity": 112}, {"time": 2526, "pitch": 67, "duration": 6, "velocity": 97}, {"time": 2532, "pitch": 64, "duration": 5, "velocity": 93}, {"time": 2538, "pitch": 62, "duration": 6, "velocity": 93}, {"time": 2544, "pitch": 64, "duration": 4, "velocity": 93}, {"time": 2550, "pitch": 55, "duration": 4, "velocity": 86}, {"time": 2556, "pitch": 60, "duration": 2, "velocity": 92}, {"time": 2559, "pitch": 59, "duration": 3, "velocity": 72}, {"time": 2562, "pitch": 60, "duration": 3, "velocity": 96}, {"time": 2568, "pitch": 67, "duration": 12, "velocity": 96}, {"time": 2583, "pitch": 64, "duration": 3, "velocity": 86}, {"time": 2586, "pitch": 67, "duration": 17, "velocity": 100}, {"time": 2601, "pitch": 69, "duration": 4, "velocity": 96}, {"time": 2607, "pitch": 69, "duration": 5, "velocity": 107}, {"time": 2613, "pitch": 67, "duration": 28, "velocity": 96}, {"time": 2658, "pitch": 59, "duration": 5, "velocity": 107}, {"time": 2664, "pitch": 59, "duration": 5, "velocity": 95}, {"time": 2670, "pitch": 60, "duration": 6, "velocity": 112}, {"time": 2676, "pitch": 59, "duration": 2, "velocity": 96}, {"time": 2679, "pitch": 62, "duration": 4, "velocity": 100}, {"time": 2685, "pitch": 62, "duration": 7, "velocity": 122}, {"time": 2691, "pitch": 64, "duration": 4, "velocity": 99}, {"time": 2697, "pitch": 62, "duration": 7, "velocity": 102}, {"time": 2709, "pitch": 67, "duration": 4, "velocity": 100}, {"time": 2715, "pitch": 67, "duration": 5, "velocity": 100}, {"time": 2721, "pitch": 66, "duration": 5, "velocity": 107}, {"time": 2730, "pitch": 62, "duration": 4, "velocity": 81}, {"time": 2733, "pitch": 59, "duration": 13, "velocity": 78}, {"time": 2760, "pitch": 55, "duration": 4, "velocity": 92}, {"time": 2766, "pitch": 64, "duration": 4, "velocity": 89}, {"time": 2772, "pitch": 55, "duration": 5, "velocity": 79}, {"time": 2778, "pitch": 54, "duration": 7, "velocity": 72}, {"time": 2784, "pitch": 62, "duration": 5, "velocity": 88}, {"time": 2790, "pitch": 62, "duration": 5, "velocity": 92}, {"time": 2796, "pitch": 60, "duration": 3, "velocity": 96}, {"time": 2799, "pitch": 59, "duration": 4, "velocity": 69}, {"time": 2802, "pitch": 60, "duration": 16, "velocity": 77}, {"time": 2820, "pitch": 59, "duration": 2, "velocity": 78}, {"time": 2823, "pitch": 60, "duration": 2, "velocity": 69}, {"time": 2826, "pitch": 62, "duration": 5, "velocity": 75}, {"time": 2832, "pitch": 59, "duration": 4, "velocity": 77}, {"time": 2838, "pitch": 57, "duration": 8, "velocity": 77}, {"time": 2850, "pitch": 59, "duration": 4, "velocity": 92}, {"time": 2856, "pitch": 59, "duration": 5, "velocity": 81}, {"time": 2862, "pitch": 60, "duration": 5, "velocity": 82}, {"time": 2868, "pitch": 59, "duration": 3, "velocity": 78}, {"time": 2871, "pitch": 62, "duration": 3, "velocity": 97}, {"time": 2877, "pitch": 62, "duration": 5, "velocity": 86}, {"time": 2883, "pitch": 64, "duration": 5, "velocity": 82}, {"time": 2889, "pitch": 66, "duration": 5, "velocity": 93}, {"time": 2904, "pitch": 69, "duration": 4, "velocity": 93}, {"time": 2910, "pitch": 67, "duration": 3, "velocity": 96}, {"time": 2916, "pitch": 66, "duration": 2, "velocity": 92}, {"time": 2919, "pitch": 67, "duration": 5, "velocity": 95}, {"time": 2925, "pitch": 64, "duration": 3, "velocity": 78}, {"time": 2928, "pitch": 62, "duration": 4, "velocity": 85}, {"time": 2934, "pitch": 62, "duration": 6, "velocity": 92}, {"time": 2952, "pitch": 66, "duration": 4, "velocity": 112}, {"time": 2958, "pitch": 67, "duration": 6, "velocity": 97}, {"time": 2964, "pitch": 64, "duration": 5, "velocity": 93}, {"time": 2970, "pitch": 62, "duration": 6, "velocity": 93}, {"time": 2976, "pitch": 64, "duration": 4, "velocity": 93}, {"time": 2982, "pitch": 55, "duration": 4, "velocity": 86}, {"time": 2988, "pitch": 60, "duration": 2, "velocity": 92}, {"time": 2991, "pitch": 59, "duration": 3, "velocity": 72}, {"time": 2994, "pitch": 60, "duration": 3, "velocity": 96}, {"time": 3000, "pitch": 67, "duration": 12, "velocity": 96}, {"time": 3015, "pitch": 64, "duration": 3, "velocity": 86}, {"time": 3018, "pitch": 67, "duration": 17, "velocity": 100}, {"time": 3036, "pitch": 66, "duration": 6, "velocity": 90}, {"time": 3042, "pitch": 67, "duration": 27, "velocity": 95}, {"time": 3099, "pitch": 64, "duration": 3, "velocity": 82}, {"time": 3102, "pitch": 62, "duration": 21, "velocity": 88}, {"time": 3144, "pitch": 66, "duration": 4, "velocity": 99}, {"time": 3150, "pitch": 67, "duration": 4, "velocity": 92}, {"time": 3156, "pitch": 64, "duration": 3, "velocity": 85}, {"time": 3162, "pitch": 62, "duration": 6, "velocity": 92}, {"time": 3168, "pitch": 64, "duration": 3, "velocity": 86}, {"time": 3174, "pitch": 55, "duration": 10, "velocity": 89}, {"time": 3186, "pitch": 60, "duration": 3, "velocity": 95}, {"time": 3189, "pitch": 59, "duration": 3, "velocity": 66}, {"time": 3192, "pitch": 60, "duration": 4, "velocity": 78}, {"time": 3198, "pitch": 67, "duration": 13, "velocity": 102}, {"time": 3214, "pitch": 64, "duration": 4, "velocity": 86}, {"time": 3219, "pitch": 67, "duration": 21, "velocity": 86}, {"time": 3247, "pitch": 66, "duration": 6, "velocity": 93}, {"time": 3255, "pitch": 67, "duration": 64, "velocity": 90}]}, {"program": 0, "is_drum": false, "name": "PIANO", "notes": [{"time": 6, "pitch": 40, "duration": 14, "velocity": 60}, {"time": 12, "pitch": 47, "duration": 8, "velocity": 50}, {"time": 18, "pitch": 59, "duration": 13, "velocity": 81}, {"time": 24, "pitch": 55, "duration": 7, "velocity": 60}, {"time": 30, "pitch": 38, "duration": 16, "velocity": 70}, {"time": 36, "pitch": 45, "duration": 11, "velocity": 37}, {"time": 42, "pitch": 50, "duration": 6, "velocity": 44}, {"time": 42, "pitch": 62, "duration": 12, "velocity": 66}, {"time": 42, "pitch": 66, "duration": 12, "velocity": 56}, {"time": 48, "pitch": 57, "duration": 7, "velocity": 49}, {"time": 54, "pitch": 43, "duration": 23, "velocity": 83}, {"time": 60, "pitch": 50, "duration": 18, "velocity": 59}, {"time": 66, "pitch": 55, "duration": 6, "velocity": 69}, {"time": 66, "pitch": 59, "duration": 13, "velocity": 68}, {"time": 66, "pitch": 62, "duration": 13, "velocity": 68}, {"time": 72, "pitch": 55, "duration": 6, "velocity": 56}, {"time": 78, "pitch": 36, "duration": 13, "velocity": 58}, {"time": 78, "pitch": 55, "duration": 1, "velocity": 49}, {"time": 78, "pitch": 60, "duration": 13, "velocity": 57}, {"time": 78, "pitch": 64, "duration": 13, "velocity": 55}, {"time": 84, "pitch": 48, "duration": 6, "velocity": 40}, {"time": 96, "pitch": 38, "duration": 6, "velocity": 43}, {"time": 96, "pitch": 57, "duration": 6, "velocity": 66}, {"time": 96, "pitch": 62, "duration": 6, "velocity": 71}, {"time": 96, "pitch": 66, "duration": 6, "velocity": 71}, {"time": 102, "pitch": 40, "duration": 16, "velocity": 64}, {"time": 102, "pitch": 59, "duration": 12, "velocity": 51}, {"time": 102, "pitch": 64, "duration": 10, "velocity": 56}, {"time": 102, "pitch": 67, "duration": 10, "velocity": 51}, {"time": 108, "pitch": 47, "duration": 11, "velocity": 52}, {"time": 114, "pitch": 52, "duration": 6, "velocity": 56}, {"time": 114, "pitch": 59, "duration": 2, "velocity": 36}, {"time": 114, "pitch": 67, "duration": 13, "velocity": 81}, {"time": 120, "pitch": 64, "duration": 7, "velocity": 57}, {"time": 126, "pitch": 47, "duration": 18, "velocity": 71}, {"time": 132, "pitch": 54, "duration": 10, "velocity": 48}, {"time": 138, "pitch": 66, "duration": 12, "velocity": 93}, {"time": 144, "pitch": 59, "duration": 6, "velocity": 64}, {"time": 150, "pitch": 43, "duration": 27, "velocity": 31}, {"time": 150, "pitch": 50, "duration": 26, "velocity": 47}, {"time": 150, "pitch": 55, "duration": 28, "velocity": 48}, {"time": 150, "pitch": 59, "duration": 29, "velocity": 55}, {"time": 150, "pitch": 62, "duration": 29, "velocity": 57}, {"time": 180, "pitch": 38, "duration": 29, "velocity": 33}, {"time": 180, "pitch": 50, "duration": 30, "velocity": 41}, {"time": 180, "pitch": 57, "duration": 29, "velocity": 47}, {"time": 180, "pitch": 62, "duration": 29, "velocity": 58}, {"time": 180, "pitch": 66, "duration": 29, "velocity": 48}, {"time": 210, "pitch": 43, "duration": 15, "velocity": 85}, {"time": 216, "pitch": 50, "duration": 9, "velocity": 62}, {"time": 222, "pitch": 62, "duration": 17, "velocity": 93}, {"time": 228, "pitch": 59, "duration": 11, "velocity": 66}, {"time": 234, "pitch": 42, "duration": 17, "velocity": 69}, {"time": 240, "pitch": 59, "duration": 20, "velocity": 63}, {"time": 246, "pitch": 66, "duration": 13, "velocity": 95}, {"time": 252, "pitch": 62, "duration": 7, "velocity": 60}, {"time": 258, "pitch": 40, "duration": 17, "velocity": 69}, {"time": 264, "pitch": 47, "duration": 11, "velocity": 42}, {"time": 270, "pitch": 52, "duration": 7, "velocity": 44}, {"time": 270, "pitch": 64, "duration": 14, "velocity": 76}, {"time": 276, "pitch": 59, "duration": 7, "velocity": 62}, {"time": 282, "pitch": 47, "duration": 16, "velocity": 68}, {"time": 288, "pitch": 54, "duration": 8, "velocity": 52}, {"time": 294, "pitch": 66, "duration": 12, "velocity": 99}, {"time": 297, "pitch": 62, "duration": 9, "velocity": 56}, {"time": 300, "pitch": 59, "duration": 6, "velocity": 69}, {"time": 306, "pitch": 48, "duration": 20, "velocity": 78}, {"time": 309, "pitch": 55, "duration": 14, "velocity": 56}, {"time": 312, "pitch": 59, "duration": 18, "velocity": 59}, {"time": 315, "pitch": 62, "duration": 15, "velocity": 68}, {"time": 324, "pitch": 55, "duration": 6, "velocity": 56}, {"time": 330, "pitch": 47, "duration": 12, "velocity": 72}, {"time": 331, "pitch": 54, "duration": 8, "velocity": 69}, {"time": 331, "pitch": 59, "duration": 6, "velocity": 67}, {"time": 342, "pitch": 40, "duration": 7, "velocity": 73}, {"time": 342, "pitch": 59, "duration": 7, "velocity": 52}, {"time": 342, "pitch": 64, "duration": 6, "velocity": 56}, {"time": 342, "pitch": 67, "duration": 6, "velocity": 58}, {"time": 342, "pitch": 52, "duration": 7, "velocity": 73}, {"time": 354, "pitch": 41, "duration": 15, "velocity": 70}, {"time": 360, "pitch": 48, "duration": 8, "velocity": 52}, {"time": 366, "pitch": 57, "duration": 13, "velocity": 61}, {"time": 366, "pitch": 60, "duration": 13, "velocity": 64}, {"time": 366, "pitch": 67, "duration": 13, "velocity": 64}, {"time": 372, "pitch": 53, "duration": 7, "velocity": 38}, {"time": 378, "pitch": 38, "duration": 18, "velocity": 70}, {"time": 381, "pitch": 45, "duration": 15, "velocity": 51}, {"time": 384, "pitch": 50, "duration": 8, "velocity": 64}, {"time": 387, "pitch": 54, "duration": 4, "velocity": 67}, {"time": 390, "pitch": 57, "duration": 12, "velocity": 86}, {"time": 393, "pitch": 50, "duration": 4, "velocity": 48}, {"time": 396, "pitch": 54, "duration": 6, "velocity": 72}, {"time": 402, "pitch": 43, "duration": 15, "velocity": 75}, {"time": 408, "pitch": 50, "duration": 9, "velocity": 39}, {"time": 414, "pitch": 62, "duration": 13, "velocity": 86}, {"time": 420, "pitch": 59, "duration": 7, "velocity": 56}, {"time": 426, "pitch": 42, "duration": 18, "velocity": 62}, {"time": 432, "pitch": 50, "duration": 10, "velocity": 35}, {"time": 438, "pitch": 62, "duration": 13, "velocity": 72}, {"time": 438, "pitch": 66, "duration": 11, "velocity": 68}, {"time": 444, "pitch": 59, "duration": 18, "velocity": 59}, {"time": 450, "pitch": 40, "duration": 17, "velocity": 63}, {"time": 456, "pitch": 47, "duration": 12, "velocity": 63}, {"time": 462, "pitch": 52, "duration": 8, "velocity": 42}, {"time": 462, "pitch": 64, "duration": 13, "velocity": 76}, {"time": 468, "pitch": 59, "duration": 10, "velocity": 64}, {"time": 474, "pitch": 47, "duration": 18, "velocity": 69}, {"time": 480, "pitch": 54, "duration": 11, "velocity": 55}, {"time": 486, "pitch": 66, "duration": 13, "velocity": 95}, {"time": 489, "pitch": 62, "duration": 9, "velocity": 56}, {"time": 492, "pitch": 59, "duration": 6, "velocity": 77}, {"time": 498, "pitch": 36, "duration": 19, "velocity": 61}, {"time": 501, "pitch": 55, "duration": 12, "velocity": 39}, {"time": 504, "pitch": 59, "duration": 18, "velocity": 78}, {"time": 507, "pitch": 62, "duration": 15, "velocity": 55}, {"time": 516, "pitch": 55, "duration": 6, "velocity": 55}, {"time": 522, "pitch": 47, "duration": 6, "velocity": 66}, {"time": 528, "pitch": 59, "duration": 18, "velocity": 53}, {"time": 534, "pitch": 40, "duration": 7, "velocity": 48}, {"time": 534, "pitch": 64, "duration": 12, "velocity": 62}, {"time": 534, "pitch": 67, "duration": 12, "velocity": 63}, {"time": 546, "pitch": 45, "duration": 16, "velocity": 69}, {"time": 552, "pitch": 52, "duration": 9, "velocity": 44}, {"time": 558, "pitch": 60, "duration": 12, "velocity": 65}, {"time": 558, "pitch": 64, "duration": 12, "velocity": 61}, {"time": 564, "pitch": 57, "duration": 6, "velocity": 52}, {"time": 569, "pitch": 38, "duration": 27, "velocity": 56}, {"time": 570, "pitch": 62, "duration": 26, "velocity": 61}, {"time": 570, "pitch": 50, "duration": 26, "velocity": 55}, {"time": 571, "pitch": 67, "duration": 25, "velocity": 66}, {"time": 572, "pitch": 69, "duration": 25, "velocity": 67}, {"time": 573, "pitch": 74, "duration": 23, "velocity": 73}, {"time": 594, "pitch": 40, "duration": 19, "velocity": 71}, {"time": 600, "pitch": 47, "duration": 13, "velocity": 56}, {"time": 606, "pitch": 52, "duration": 5, "velocity": 48}, {"time": 606, "pitch": 64, "duration": 13, "velocity": 65}, {"time": 612, "pitch": 59, "duration": 8, "velocity": 63}, {"time": 618, "pitch": 38, "duration": 18, "velocity": 70}, {"time": 624, "pitch": 45, "duration": 12, "velocity": 50}, {"time": 630, "pitch": 50, "duration": 4, "velocity": 38}, {"time": 630, "pitch": 66, "duration": 14, "velocity": 102}, {"time": 636, "pitch": 62, "duration": 7, "velocity": 69}, {"time": 642, "pitch": 36, "duration": 42, "velocity": 69}, {"time": 648, "pitch": 43, "duration": 37, "velocity": 38}, {"time": 654, "pitch": 48, "duration": 26, "velocity": 68}, {"time": 660, "pitch": 55, "duration": 17, "velocity": 61}, {"time": 666, "pitch": 60, "duration": 11, "velocity": 53}, {"time": 666, "pitch": 64, "duration": 10, "velocity": 51}, {"time": 678, "pitch": 64, "duration": 13, "velocity": 86}, {"time": 681, "pitch": 48, "duration": 8, "velocity": 62}, {"time": 684, "pitch": 60, "duration": 7, "velocity": 75}, {"time": 687, "pitch": 55, "duration": 4, "velocity": 55}, {"time": 690, "pitch": 40, "duration": 18, "velocity": 78}, {"time": 696, "pitch": 47, "duration": 11, "velocity": 42}, {"time": 702, "pitch": 52, "duration": 4, "velocity": 41}, {"time": 702, "pitch": 64, "duration": 12, "velocity": 65}, {"time": 702, "pitch": 67, "duration": 12, "velocity": 65}, {"time": 708, "pitch": 59, "duration": 7, "velocity": 69}, {"time": 714, "pitch": 38, "duration": 19, "velocity": 69}, {"time": 720, "pitch": 45, "duration": 12, "velocity": 42}, {"time": 726, "pitch": 50, "duration": 4, "velocity": 51}, {"time": 726, "pitch": 62, "duration": 13, "velocity": 79}, {"time": 726, "pitch": 66, "duration": 13, "velocity": 89}, {"time": 732, "pitch": 57, "duration": 8, "velocity": 68}, {"time": 738, "pitch": 36, "duration": 22, "velocity": 76}, {"time": 744, "pitch": 43, "duration": 18, "velocity": 34}, {"time": 750, "pitch": 48, "duration": 5, "velocity": 62}, {"time": 750, "pitch": 60, "duration": 13, "velocity": 66}, {"time": 750, "pitch": 64, "duration": 13, "velocity": 67}, {"time": 756, "pitch": 55, "duration": 7, "velocity": 59}, {"time": 762, "pitch": 38, "duration": 18, "velocity": 81}, {"time": 768, "pitch": 45, "duration": 12, "velocity": 54}, {"time": 774, "pitch": 50, "duration": 8, "velocity": 46}, {"time": 774, "pitch": 62, "duration": 13, "velocity": 68}, {"time": 786, "pitch": 43, "duration": 17, "velocity": 83}, {"time": 792, "pitch": 50, "duration": 11, "velocity": 61}, {"time": 798, "pitch": 62, "duration": 13, "velocity": 72}, {"time": 804, "pitch": 59, "duration": 7, "velocity": 66}, {"time": 810, "pitch": 42, "duration": 18, "velocity": 73}, {"time": 816, "pitch": 54, "duration": 8, "velocity": 50}, {"time": 822, "pitch": 66, "duration": 13, "velocity": 100}, {"time": 828, "pitch": 62, "duration": 7, "velocity": 60}, {"time": 834, "pitch": 40, "duration": 16, "velocity": 74}, {"time": 840, "pitch": 47, "duration": 12, "velocity": 38}, {"time": 846, "pitch": 52, "duration": 7, "velocity": 35}, {"time": 846, "pitch": 67, "duration": 13, "velocity": 79}, {"time": 852, "pitch": 64, "duration": 7, "velocity": 66}, {"time": 858, "pitch": 47, "duration": 18, "velocity": 71}, {"time": 864, "pitch": 54, "duration": 11, "velocity": 58}, {"time": 870, "pitch": 66, "duration": 13, "velocity": 99}, {"time": 873, "pitch": 62, "duration": 10, "velocity": 54}, {"time": 876, "pitch": 59, "duration": 7, "velocity": 69}, {"time": 882, "pitch": 48, "duration": 16, "velocity": 65}, {"time": 888, "pitch": 55, "duration": 9, "velocity": 45}, {"time": 894, "pitch": 64, "duration": 13, "velocity": 66}, {"time": 894, "pitch": 67, "duration": 13, "velocity": 67}, {"time": 900, "pitch": 60, "duration": 8, "velocity": 51}, {"time": 906, "pitch": 47, "duration": 16, "velocity": 69}, {"time": 912, "pitch": 54, "duration": 8, "velocity": 55}, {"time": 918, "pitch": 62, "duration": 12, "velocity": 78}, {"time": 918, "pitch": 66, "duration": 13, "velocity": 93}, {"time": 924, "pitch": 59, "duration": 8, "velocity": 66}, {"time": 930, "pitch": 45, "duration": 23, "velocity": 86}, {"time": 936, "pitch": 57, "duration": 8, "velocity": 60}, {"time": 942, "pitch": 64, "duration": 14, "velocity": 89}, {"time": 942, "pitch": 67, "duration": 14, "velocity": 89}, {"time": 948, "pitch": 57, "duration": 7, "velocity": 67}, {"time": 954, "pitch": 48, "duration": 12, "velocity": 77}, {"time": 957, "pitch": 55, "duration": 8, "velocity": 50}, {"time": 960, "pitch": 64, "duration": 6, "velocity": 83}, {"time": 963, "pitch": 60, "duration": 6, "velocity": 69}, {"time": 966, "pitch": 50, "duration": 7, "velocity": 71}, {"time": 969, "pitch": 57, "duration": 10, "velocity": 70}, {"time": 972, "pitch": 66, "duration": 7, "velocity": 77}, {"time": 975, "pitch": 62, "duration": 4, "velocity": 65}, {"time": 978, "pitch": 43, "duration": 18, "velocity": 67}, {"time": 984, "pitch": 50, "duration": 12, "velocity": 55}, {"time": 990, "pitch": 62, "duration": 13, "velocity": 90}, {"time": 996, "pitch": 55, "duration": 7, "velocity": 73}, {"time": 1002, "pitch": 42, "duration": 18, "velocity": 70}, {"time": 1008, "pitch": 54, "duration": 10, "velocity": 36}, {"time": 1014, "pitch": 66, "duration": 14, "velocity": 83}, {"time": 1020, "pitch": 62, "duration": 8, "velocity": 52}, {"time": 1023, "pitch": 59, "duration": 10, "velocity": 54}, {"time": 1026, "pitch": 40, "duration": 17, "velocity": 67}, {"time": 1032, "pitch": 47, "duration": 11, "velocity": 39}, {"time": 1038, "pitch": 52, "duration": 7, "velocity": 37}, {"time": 1038, "pitch": 59, "duration": 4, "velocity": 32}, {"time": 1038, "pitch": 67, "duration": 13, "velocity": 82}, {"time": 1044, "pitch": 64, "duration": 6, "velocity": 71}, {"time": 1050, "pitch": 47, "duration": 16, "velocity": 68}, {"time": 1056, "pitch": 54, "duration": 8, "velocity": 43}, {"time": 1062, "pitch": 66, "duration": 12, "velocity": 102}, {"time": 1068, "pitch": 62, "duration": 7, "velocity": 63}, {"time": 1074, "pitch": 36, "duration": 16, "velocity": 73}, {"time": 1080, "pitch": 43, "duration": 11, "velocity": 53}, {"time": 1086, "pitch": 48, "duration": 8, "velocity": 47}, {"time": 1086, "pitch": 64, "duration": 13, "velocity": 86}, {"time": 1092, "pitch": 60, "duration": 7, "velocity": 49}, {"time": 1098, "pitch": 47, "duration": 17, "velocity": 70}, {"time": 1104, "pitch": 54, "duration": 8, "velocity": 49}, {"time": 1110, "pitch": 62, "duration": 7, "velocity": 82}, {"time": 1110, "pitch": 66, "duration": 7, "velocity": 89}, {"time": 1116, "pitch": 59, "duration": 5, "velocity": 60}, {"time": 1122, "pitch": 41, "duration": 17, "velocity": 68}, {"time": 1122, "pitch": 57, "duration": 11, "velocity": 76}, {"time": 1122, "pitch": 60, "duration": 11, "velocity": 69}, {"time": 1122, "pitch": 67, "duration": 11, "velocity": 69}, {"time": 1128, "pitch": 48, "duration": 8, "velocity": 46}, {"time": 1134, "pitch": 57, "duration": 13, "velocity": 65}, {"time": 1134, "pitch": 60, "duration": 13, "velocity": 66}, {"time": 1134, "pitch": 67, "duration": 11, "velocity": 69}, {"time": 1146, "pitch": 36, "duration": 22, "velocity": 64}, {"time": 1152, "pitch": 43, "duration": 19, "velocity": 40}, {"time": 1158, "pitch": 48, "duration": 4, "velocity": 53}, {"time": 1158, "pitch": 60, "duration": 11, "velocity": 72}, {"time": 1158, "pitch": 64, "duration": 8, "velocity": 69}, {"time": 1164, "pitch": 55, "duration": 3, "velocity": 52}, {"time": 1170, "pitch": 38, "duration": 18, "velocity": 69}, {"time": 1170, "pitch": 57, "duration": 11, "velocity": 72}, {"time": 1170, "pitch": 62, "duration": 10, "velocity": 81}, {"time": 1170, "pitch": 66, "duration": 10, "velocity": 77}, {"time": 1176, "pitch": 45, "duration": 12, "velocity": 52}, {"time": 1182, "pitch": 62, "duration": 8, "velocity": 100}, {"time": 1182, "pitch": 66, "duration": 6, "velocity": 112}, {"time": 1185, "pitch": 50, "duration": 3, "velocity": 63}, {"time": 1188, "pitch": 57, "duration": 3, "velocity": 90}, {"time": 1194, "pitch": 36, "duration": 8, "velocity": 81}, {"time": 1194, "pitch": 55, "duration": 9, "velocity": 74}, {"time": 1194, "pitch": 60, "duration": 11, "velocity": 68}, {"time": 1194, "pitch": 64, "duration": 8, "velocity": 69}, {"time": 1206, "pitch": 38, "duration": 13, "velocity": 57}, {"time": 1206, "pitch": 57, "duration": 13, "velocity": 66}, {"time": 1206, "pitch": 62, "duration": 12, "velocity": 68}, {"time": 1206, "pitch": 66, "duration": 13, "velocity": 70}, {"time": 1218, "pitch": 43, "duration": 20, "velocity": 78}, {"time": 1221, "pitch": 50, "duration": 17, "velocity": 45}, {"time": 1224, "pitch": 55, "duration": 7, "velocity": 72}, {"time": 1227, "pitch": 59, "duration": 10, "velocity": 70}, {"time": 1230, "pitch": 67, "duration": 10, "velocity": 93}, {"time": 1233, "pitch": 55, "duration": 4, "velocity": 56}, {"time": 1236, "pitch": 62, "duration": 7, "velocity": 78}, {"time": 1239, "pitch": 59, "duration": 5, "velocity": 71}, {"time": 1242, "pitch": 42, "duration": 19, "velocity": 72}, {"time": 1245, "pitch": 54, "duration": 5, "velocity": 58}, {"time": 1248, "pitch": 59, "duration": 13, "velocity": 75}, {"time": 1251, "pitch": 54, "duration": 4, "velocity": 58}, {"time": 1254, "pitch": 66, "duration": 8, "velocity": 89}, {"time": 1257, "pitch": 54, "duration": 2, "velocity": 60}, {"time": 1260, "pitch": 62, "duration": 6, "velocity": 74}, {"time": 1263, "pitch": 59, "duration": 7, "velocity": 73}, {"time": 1266, "pitch": 40, "duration": 17, "velocity": 66}, {"time": 1269, "pitch": 47, "duration": 14, "velocity": 41}, {"time": 1272, "pitch": 52, "duration": 8, "velocity": 68}, {"time": 1275, "pitch": 59, "duration": 10, "velocity": 70}, {"time": 1278, "pitch": 67, "duration": 11, "velocity": 90}, {"time": 1281, "pitch": 52, "duration": 5, "velocity": 54}, {"time": 1284, "pitch": 64, "duration": 5, "velocity": 75}, {"time": 1287, "pitch": 59, "duration": 4, "velocity": 75}, {"time": 1290, "pitch": 47, "duration": 19, "velocity": 58}, {"time": 1293, "pitch": 54, "duration": 11, "velocity": 50}, {"time": 1296, "pitch": 59, "duration": 8, "velocity": 60}, {"time": 1299, "pitch": 62, "duration": 4, "velocity": 53}, {"time": 1302, "pitch": 66, "duration": 12, "velocity": 100}, {"time": 1305, "pitch": 54, "duration": 2, "velocity": 59}, {"time": 1308, "pitch": 62, "duration": 5, "velocity": 86}, {"time": 1311, "pitch": 59, "duration": 4, "velocity": 74}, {"time": 1314, "pitch": 48, "duration": 22, "velocity": 75}, {"time": 1317, "pitch": 55, "duration": 5, "velocity": 62}, {"time": 1320, "pitch": 59, "duration": 5, "velocity": 82}, {"time": 1323, "pitch": 55, "duration": 6, "velocity": 69}, {"time": 1326, "pitch": 62, "duration": 12, "velocity": 100}, {"time": 1329, "pitch": 55, "duration": 5, "velocity": 57}, {"time": 1332, "pitch": 59, "duration": 6, "velocity": 71}, {"time": 1335, "pitch": 55, "duration": 3, "velocity": 79}, {"time": 1338, "pitch": 47, "duration": 7, "velocity": 86}, {"time": 1341, "pitch": 59, "duration": 12, "velocity": 44}, {"time": 1344, "pitch": 66, "duration": 5, "velocity": 96}, {"time": 1347, "pitch": 62, "duration": 9, "velocity": 78}, {"time": 1350, "pitch": 40, "duration": 11, "velocity": 69}, {"time": 1353, "pitch": 47, "duration": 9, "velocity": 57}, {"time": 1356, "pitch": 52, "duration": 5, "velocity": 72}, {"time": 1359, "pitch": 67, "duration": 3, "velocity": 83}, {"time": 1362, "pitch": 41, "duration": 19, "velocity": 64}, {"time": 1365, "pitch": 48, "duration": 10, "velocity": 59}, {"time": 1368, "pitch": 53, "duration": 5, "velocity": 67}, {"time": 1371, "pitch": 57, "duration": 4, "velocity": 62}, {"time": 1374, "pitch": 60, "duration": 13, "velocity": 79}, {"time": 1374, "pitch": 67, "duration": 13, "velocity": 79}, {"time": 1377, "pitch": 48, "duration": 4, "velocity": 47}, {"time": 1380, "pitch": 57, "duration": 6, "velocity": 58}, {"time": 1383, "pitch": 53, "duration": 3, "velocity": 61}, {"time": 1386, "pitch": 38, "duration": 19, "velocity": 65}, {"time": 1389, "pitch": 45, "duration": 16, "velocity": 42}, {"time": 1392, "pitch": 50, "duration": 8, "velocity": 76}, {"time": 1395, "pitch": 57, "duration": 7, "velocity": 82}, {"time": 1398, "pitch": 66, "duration": 12, "velocity": 122}, {"time": 1401, "pitch": 50, "duration": 8, "velocity": 66}, {"time": 1404, "pitch": 62, "duration": 7, "velocity": 82}, {"time": 1407, "pitch": 57, "duration": 4, "velocity": 89}, {"time": 1410, "pitch": 43, "duration": 17, "velocity": 76}, {"time": 1413, "pitch": 50, "duration": 10, "velocity": 56}, {"time": 1416, "pitch": 55, "duration": 4, "velocity": 73}, {"time": 1419, "pitch": 59, "duration": 4, "velocity": 85}, {"time": 1422, "pitch": 62, "duration": 12, "velocity": 97}, {"time": 1425, "pitch": 50, "duration": 2, "velocity": 49}, {"time": 1428, "pitch": 59, "duration": 6, "velocity": 81}, {"time": 1431, "pitch": 55, "duration": 3, "velocity": 81}, {"time": 1434, "pitch": 42, "duration": 20, "velocity": 39}, {"time": 1437, "pitch": 59, "duration": 5, "velocity": 64}, {"time": 1440, "pitch": 62, "duration": 5, "velocity": 57}, {"time": 1443, "pitch": 59, "duration": 7, "velocity": 69}, {"time": 1446, "pitch": 66, "duration": 11, "velocity": 107}, {"time": 1449, "pitch": 54, "duration": 4, "velocity": 44}, {"time": 1452, "pitch": 62, "duration": 6, "velocity": 81}, {"time": 1455, "pitch": 59, "duration": 5, "velocity": 69}, {"time": 1458, "pitch": 40, "duration": 17, "velocity": 63}, {"time": 1461, "pitch": 47, "duration": 14, "velocity": 38}, {"time": 1464, "pitch": 52, "duration": 12, "velocity": 63}, {"time": 1467, "pitch": 59, "duration": 7, "velocity": 63}, {"time": 1470, "pitch": 67, "duration": 13, "velocity": 93}, {"time": 1473, "pitch": 64, "duration": 4, "velocity": 58}, {"time": 1476, "pitch": 59, "duration": 7, "velocity": 72}, {"time": 1479, "pitch": 64, "duration": 3, "velocity": 69}, {"time": 1482, "pitch": 47, "duration": 17, "velocity": 63}, {"time": 1485, "pitch": 54, "duration": 12, "velocity": 65}, {"time": 1488, "pitch": 59, "duration": 8, "velocity": 66}, {"time": 1491, "pitch": 62, "duration": 4, "velocity": 61}, {"time": 1494, "pitch": 66, "duration": 12, "velocity": 112}, {"time": 1497, "pitch": 62, "duration": 4, "velocity": 81}, {"time": 1500, "pitch": 59, "duration": 6, "velocity": 78}, {"time": 1503, "pitch": 62, "duration": 3, "velocity": 62}, {"time": 1506, "pitch": 36, "duration": 21, "velocity": 68}, {"time": 1509, "pitch": 48, "duration": 10, "velocity": 35}, {"time": 1512, "pitch": 55, "duration": 8, "velocity": 74}, {"time": 1515, "pitch": 59, "duration": 4, "velocity": 64}, {"time": 1518, "pitch": 62, "duration": 12, "velocity": 97}, {"time": 1521, "pitch": 55, "duration": 4, "velocity": 52}, {"time": 1524, "pitch": 59, "duration": 5, "velocity": 73}, {"time": 1527, "pitch": 55, "duration": 2, "velocity": 72}, {"time": 1530, "pitch": 47, "duration": 12, "velocity": 69}, {"time": 1536, "pitch": 59, "duration": 7, "velocity": 73}, {"time": 1539, "pitch": 66, "duration": 2, "velocity": 96}, {"time": 1542, "pitch": 52, "duration": 8, "velocity": 66}, {"time": 1545, "pitch": 59, "duration": 9, "velocity": 66}, {"time": 1548, "pitch": 67, "duration": 5, "velocity": 83}, {"time": 1551, "pitch": 64, "duration": 3, "velocity": 70}, {"time": 1554, "pitch": 45, "duration": 18, "velocity": 68}, {"time": 1557, "pitch": 52, "duration": 10, "velocity": 52}, {"time": 1560, "pitch": 57, "duration": 7, "velocity": 61}, {"time": 1563, "pitch": 60, "duration": 3, "velocity": 47}, {"time": 1566, "pitch": 64, "duration": 12, "velocity": 95}, {"time": 1569, "pitch": 52, "duration": 2, "velocity": 61}, {"time": 1572, "pitch": 60, "duration": 6, "velocity": 76}, {"time": 1575, "pitch": 57, "duration": 4, "velocity": 68}, {"time": 1578, "pitch": 38, "duration": 24, "velocity": 70}, {"time": 1581, "pitch": 45, "duration": 21, "velocity": 63}, {"time": 1584, "pitch": 50, "duration": 8, "velocity": 62}, {"time": 1587, "pitch": 57, "duration": 8, "velocity": 61}, {"time": 1590, "pitch": 66, "duration": 12, "velocity": 99}, {"time": 1593, "pitch": 50, "duration": 9, "velocity": 49}, {"time": 1596, "pitch": 62, "duration": 6, "velocity": 68}, {"time": 1599, "pitch": 57, "duration": 3, "velocity": 72}, {"time": 1602, "pitch": 46, "duration": 17, "velocity": 89}, {"time": 1602, "pitch": 58, "duration": 4, "velocity": 74}, {"time": 1602, "pitch": 62, "duration": 9, "velocity": 63}, {"time": 1602, "pitch": 65, "duration": 7, "velocity": 54}, {"time": 1605, "pitch": 57, "duration": 5, "velocity": 56}, {"time": 1608, "pitch": 58, "duration": 7, "velocity": 62}, {"time": 1611, "pitch": 57, "duration": 11, "velocity": 63}, {"time": 1614, "pitch": 65, "duration": 12, "velocity": 83}, {"time": 1620, "pitch": 58, "duration": 7, "velocity": 85}, {"time": 1623, "pitch": 57, "duration": 4, "velocity": 56}, {"time": 1626, "pitch": 41, "duration": 23, "velocity": 67}, {"time": 1629, "pitch": 48, "duration": 11, "velocity": 47}, {"time": 1632, "pitch": 53, "duration": 7, "velocity": 88}, {"time": 1635, "pitch": 57, "duration": 4, "velocity": 61}, {"time": 1638, "pitch": 60, "duration": 18, "velocity": 90}, {"time": 1641, "pitch": 48, "duration": 8, "velocity": 45}, {"time": 1644, "pitch": 57, "duration": 12, "velocity": 66}, {"time": 1647, "pitch": 53, "duration": 5, "velocity": 66}, {"time": 1650, "pitch": 41, "duration": 23, "velocity": 52}, {"time": 1653, "pitch": 48, "duration": 12, "velocity": 37}, {"time": 1656, "pitch": 53, "duration": 13, "velocity": 63}, {"time": 1659, "pitch": 57, "duration": 4, "velocity": 59}, {"time": 1662, "pitch": 60, "duration": 22, "velocity": 90}, {"time": 1665, "pitch": 48, "duration": 9, "velocity": 44}, {"time": 1668, "pitch": 57, "duration": 13, "velocity": 61}, {"time": 1671, "pitch": 53, "duration": 8, "velocity": 57}, {"time": 1674, "pitch": 41, "duration": 17, "velocity": 71}, {"time": 1677, "pitch": 48, "duration": 10, "velocity": 48}, {"time": 1680, "pitch": 53, "duration": 10, "velocity": 54}, {"time": 1683, "pitch": 57, "duration": 3, "velocity": 62}, {"time": 1686, "pitch": 60, "duration": 12, "velocity": 96}, {"time": 1689, "pitch": 48, "duration": 2, "velocity": 58}, {"time": 1692, "pitch": 57, "duration": 6, "velocity": 88}, {"time": 1695, "pitch": 53, "duration": 3, "velocity": 77}, {"time": 1698, "pitch": 36, "duration": 17, "velocity": 83}, {"time": 1701, "pitch": 43, "duration": 13, "velocity": 61}, {"time": 1704, "pitch": 48, "duration": 7, "velocity": 69}, {"time": 1707, "pitch": 55, "duration": 7, "velocity": 69}, {"time": 1710, "pitch": 63, "duration": 10, "velocity": 100}, {"time": 1713, "pitch": 48, "duration": 3, "velocity": 79}, {"time": 1716, "pitch": 60, "duration": 6, "velocity": 86}, {"time": 1719, "pitch": 55, "duration": 3, "velocity": 85}, {"time": 1722, "pitch": 46, "duration": 19, "velocity": 93}, {"time": 1725, "pitch": 50, "duration": 15, "velocity": 61}, {"time": 1728, "pitch": 53, "duration": 8, "velocity": 73}, {"time": 1731, "pitch": 58, "duration": 4, "velocity": 95}, {"time": 1734, "pitch": 65, "duration": 9, "velocity": 86}, {"time": 1737, "pitch": 53, "duration": 3, "velocity": 69}, {"time": 1740, "pitch": 58, "duration": 5, "velocity": 92}, {"time": 1743, "pitch": 62, "duration": 4, "velocity": 71}, {"time": 1746, "pitch": 38, "duration": 21, "velocity": 71}, {"time": 1749, "pitch": 45, "duration": 22, "velocity": 43}, {"time": 1752, "pitch": 50, "duration": 7, "velocity": 72}, {"time": 1755, "pitch": 54, "duration": 4, "velocity": 82}, {"time": 1758, "pitch": 57, "duration": 7, "velocity": 85}, {"time": 1761, "pitch": 50, "duration": 4, "velocity": 62}, {"time": 1764, "pitch": 55, "duration": 3, "velocity": 89}, {"time": 1767, "pitch": 57, "duration": 28, "velocity": 64}, {"time": 1770, "pitch": 38, "duration": 24, "velocity": 77}, {"time": 1770, "pitch": 54, "duration": 24, "velocity": 88}, {"time": 1794, "pitch": 43, "duration": 17, "velocity": 83}, {"time": 1800, "pitch": 50, "duration": 11, "velocity": 61}, {"time": 1806, "pitch": 62, "duration": 13, "velocity": 72}, {"time": 1812, "pitch": 59, "duration": 7, "velocity": 66}, {"time": 1818, "pitch": 42, "duration": 18, "velocity": 73}, {"time": 1824, "pitch": 54, "duration": 8, "velocity": 50}, {"time": 1830, "pitch": 66, "duration": 13, "velocity": 100}, {"time": 1836, "pitch": 62, "duration": 7, "velocity": 60}, {"time": 1842, "pitch": 40, "duration": 16, "velocity": 74}, {"time": 1848, "pitch": 47, "duration": 12, "velocity": 38}, {"time": 1854, "pitch": 52, "duration": 7, "velocity": 35}, {"time": 1854, "pitch": 67, "duration": 13, "velocity": 79}, {"time": 1860, "pitch": 64, "duration": 7, "velocity": 66}, {"time": 1866, "pitch": 47, "duration": 18, "velocity": 71}, {"time": 1872, "pitch": 54, "duration": 11, "velocity": 58}, {"time": 1878, "pitch": 66, "duration": 13, "velocity": 99}, {"time": 1881, "pitch": 62, "duration": 10, "velocity": 54}, {"time": 1884, "pitch": 59, "duration": 7, "velocity": 69}, {"time": 1890, "pitch": 48, "duration": 16, "velocity": 65}, {"time": 1896, "pitch": 55, "duration": 9, "velocity": 45}, {"time": 1902, "pitch": 64, "duration": 13, "velocity": 66}, {"time": 1902, "pitch": 67, "duration": 13, "velocity": 67}, {"time": 1908, "pitch": 60, "duration": 8, "velocity": 51}, {"time": 1914, "pitch": 47, "duration": 16, "velocity": 69}, {"time": 1920, "pitch": 54, "duration": 8, "velocity": 55}, {"time": 1926, "pitch": 62, "duration": 12, "velocity": 78}, {"time": 1926, "pitch": 66, "duration": 13, "velocity": 93}, {"time": 1932, "pitch": 59, "duration": 8, "velocity": 66}, {"time": 1938, "pitch": 45, "duration": 23, "velocity": 86}, {"time": 1944, "pitch": 57, "duration": 8, "velocity": 60}, {"time": 1950, "pitch": 64, "duration": 14, "velocity": 89}, {"time": 1956, "pitch": 57, "duration": 7, "velocity": 67}, {"time": 1962, "pitch": 48, "duration": 12, "velocity": 77}, {"time": 1965, "pitch": 55, "duration": 8, "velocity": 50}, {"time": 1968, "pitch": 64, "duration": 6, "velocity": 83}, {"time": 1971, "pitch": 60, "duration": 6, "velocity": 69}, {"time": 1974, "pitch": 50, "duration": 7, "velocity": 71}, {"time": 1977, "pitch": 57, "duration": 10, "velocity": 70}, {"time": 1980, "pitch": 66, "duration": 7, "velocity": 77}, {"time": 1983, "pitch": 62, "duration": 4, "velocity": 65}, {"time": 1986, "pitch": 43, "duration": 18, "velocity": 67}, {"time": 1992, "pitch": 50, "duration": 12, "velocity": 55}, {"time": 1998, "pitch": 62, "duration": 13, "velocity": 90}, {"time": 2004, "pitch": 55, "duration": 7, "velocity": 73}, {"time": 2010, "pitch": 42, "duration": 18, "velocity": 70}, {"time": 2016, "pitch": 54, "duration": 10, "velocity": 36}, {"time": 2022, "pitch": 66, "duration": 14, "velocity": 83}, {"time": 2028, "pitch": 62, "duration": 8, "velocity": 52}, {"time": 2031, "pitch": 59, "duration": 10, "velocity": 54}, {"time": 2034, "pitch": 40, "duration": 17, "velocity": 67}, {"time": 2040, "pitch": 47, "duration": 11, "velocity": 39}, {"time": 2046, "pitch": 52, "duration": 7, "velocity": 37}, {"time": 2046, "pitch": 59, "duration": 4, "velocity": 32}, {"time": 2046, "pitch": 67, "duration": 13, "velocity": 82}, {"time": 2052, "pitch": 64, "duration": 6, "velocity": 71}, {"time": 2058, "pitch": 47, "duration": 16, "velocity": 68}, {"time": 2064, "pitch": 54, "duration": 8, "velocity": 43}, {"time": 2070, "pitch": 66, "duration": 12, "velocity": 102}, {"time": 2076, "pitch": 62, "duration": 7, "velocity": 63}, {"time": 2082, "pitch": 36, "duration": 16, "velocity": 73}, {"time": 2088, "pitch": 43, "duration": 11, "velocity": 53}, {"time": 2094, "pitch": 48, "duration": 8, "velocity": 47}, {"time": 2094, "pitch": 64, "duration": 13, "velocity": 86}, {"time": 2100, "pitch": 60, "duration": 7, "velocity": 49}, {"time": 2106, "pitch": 47, "duration": 17, "velocity": 70}, {"time": 2112, "pitch": 54, "duration": 8, "velocity": 49}, {"time": 2118, "pitch": 62, "duration": 7, "velocity": 82}, {"time": 2118, "pitch": 66, "duration": 7, "velocity": 89}, {"time": 2124, "pitch": 59, "duration": 5, "velocity": 60}, {"time": 2130, "pitch": 41, "duration": 17, "velocity": 68}, {"time": 2130, "pitch": 57, "duration": 11, "velocity": 76}, {"time": 2130, "pitch": 60, "duration": 11, "velocity": 69}, {"time": 2130, "pitch": 65, "duration": 11, "velocity": 69}, {"time": 2136, "pitch": 48, "duration": 8, "velocity": 46}, {"time": 2139, "pitch": 64, "duration": 3, "velocity": 72}, {"time": 2142, "pitch": 62, "duration": 3, "velocity": 72}, {"time": 2142, "pitch": 57, "duration": 13, "velocity": 65}, {"time": 2142, "pitch": 60, "duration": 7, "velocity": 66}, {"time": 2144, "pitch": 60, "duration": 5, "velocity": 63}, {"time": 2154, "pitch": 36, "duration": 22, "velocity": 64}, {"time": 2160, "pitch": 43, "duration": 19, "velocity": 40}, {"time": 2166, "pitch": 48, "duration": 4, "velocity": 53}, {"time": 2166, "pitch": 60, "duration": 11, "velocity": 72}, {"time": 2166, "pitch": 64, "duration": 8, "velocity": 69}, {"time": 2172, "pitch": 55, "duration": 3, "velocity": 52}, {"time": 2178, "pitch": 38, "duration": 18, "velocity": 69}, {"time": 2178, "pitch": 57, "duration": 11, "velocity": 72}, {"time": 2178, "pitch": 62, "duration": 10, "velocity": 81}, {"time": 2178, "pitch": 66, "duration": 10, "velocity": 77}, {"time": 2184, "pitch": 45, "duration": 12, "velocity": 52}, {"time": 2190, "pitch": 62, "duration": 8, "velocity": 100}, {"time": 2190, "pitch": 66, "duration": 6, "velocity": 112}, {"time": 2193, "pitch": 50, "duration": 3, "velocity": 63}, {"time": 2196, "pitch": 57, "duration": 3, "velocity": 90}, {"time": 2202, "pitch": 36, "duration": 8, "velocity": 81}, {"time": 2202, "pitch": 55, "duration": 9, "velocity": 74}, {"time": 2202, "pitch": 60, "duration": 11, "velocity": 68}, {"time": 2202, "pitch": 64, "duration": 8, "velocity": 69}, {"time": 2214, "pitch": 38, "duration": 13, "velocity": 57}, {"time": 2214, "pitch": 57, "duration": 13, "velocity": 66}, {"time": 2214, "pitch": 62, "duration": 12, "velocity": 68}, {"time": 2214, "pitch": 66, "duration": 13, "velocity": 70}, {"time": 2226, "pitch": 43, "duration": 20, "velocity": 78}, {"time": 2229, "pitch": 50, "duration": 17, "velocity": 45}, {"time": 2232, "pitch": 55, "duration": 7, "velocity": 72}, {"time": 2235, "pitch": 59, "duration": 10, "velocity": 70}, {"time": 2238, "pitch": 67, "duration": 10, "velocity": 93}, {"time": 2241, "pitch": 55, "duration": 4, "velocity": 56}, {"time": 2244, "pitch": 62, "duration": 7, "velocity": 78}, {"time": 2247, "pitch": 59, "duration": 5, "velocity": 71}, {"time": 2250, "pitch": 42, "duration": 19, "velocity": 72}, {"time": 2253, "pitch": 54, "duration": 5, "velocity": 58}, {"time": 2256, "pitch": 59, "duration": 13, "velocity": 75}, {"time": 2259, "pitch": 54, "duration": 4, "velocity": 58}, {"time": 2262, "pitch": 66, "duration": 8, "velocity": 89}, {"time": 2265, "pitch": 54, "duration": 2, "velocity": 60}, {"time": 2268, "pitch": 62, "duration": 6, "velocity": 74}, {"time": 2271, "pitch": 59, "duration": 7, "velocity": 73}, {"time": 2274, "pitch": 40, "duration": 17, "velocity": 66}, {"time": 2277, "pitch": 47, "duration": 14, "velocity": 41}, {"time": 2280, "pitch": 52, "duration": 8, "velocity": 68}, {"time": 2283, "pitch": 59, "duration": 10, "velocity": 70}, {"time": 2286, "pitch": 67, "duration": 11, "velocity": 90}, {"time": 2289, "pitch": 52, "duration": 5, "velocity": 54}, {"time": 2292, "pitch": 64, "duration": 5, "velocity": 75}, {"time": 2295, "pitch": 59, "duration": 4, "velocity": 75}, {"time": 2298, "pitch": 47, "duration": 19, "velocity": 58}, {"time": 2301, "pitch": 54, "duration": 11, "velocity": 50}, {"time": 2304, "pitch": 59, "duration": 8, "velocity": 60}, {"time": 2307, "pitch": 62, "duration": 4, "velocity": 53}, {"time": 2310, "pitch": 66, "duration": 12, "velocity": 100}, {"time": 2313, "pitch": 54, "duration": 2, "velocity": 59}, {"time": 2316, "pitch": 62, "duration": 5, "velocity": 86}, {"time": 2319, "pitch": 59, "duration": 4, "velocity": 74}, {"time": 2322, "pitch": 48, "duration": 22, "velocity": 75}, {"time": 2325, "pitch": 55, "duration": 5, "velocity": 62}, {"time": 2328, "pitch": 59, "duration": 5, "velocity": 82}, {"time": 2331, "pitch": 55, "duration": 6, "velocity": 69}, {"time": 2334, "pitch": 62, "duration": 12, "velocity": 100}, {"time": 2337, "pitch": 55, "duration": 5, "velocity": 57}, {"time": 2340, "pitch": 59, "duration": 6, "velocity": 71}, {"time": 2343, "pitch": 55, "duration": 3, "velocity": 79}, {"time": 2346, "pitch": 47, "duration": 7, "velocity": 86}, {"time": 2349, "pitch": 59, "duration": 12, "velocity": 44}, {"time": 2352, "pitch": 66, "duration": 5, "velocity": 96}, {"time": 2355, "pitch": 62, "duration": 9, "velocity": 78}, {"time": 2358, "pitch": 40, "duration": 11, "velocity": 69}, {"time": 2361, "pitch": 47, "duration": 9, "velocity": 57}, {"time": 2364, "pitch": 52, "duration": 5, "velocity": 72}, {"time": 2367, "pitch": 67, "duration": 3, "velocity": 83}, {"time": 2370, "pitch": 41, "duration": 19, "velocity": 64}, {"time": 2373, "pitch": 48, "duration": 10, "velocity": 59}, {"time": 2376, "pitch": 53, "duration": 5, "velocity": 67}, {"time": 2379, "pitch": 57, "duration": 4, "velocity": 62}, {"time": 2382, "pitch": 60, "duration": 13, "velocity": 79}, {"time": 2382, "pitch": 67, "duration": 13, "velocity": 79}, {"time": 2385, "pitch": 48, "duration": 4, "velocity": 47}, {"time": 2388, "pitch": 57, "duration": 6, "velocity": 58}, {"time": 2391, "pitch": 53, "duration": 3, "velocity": 61}, {"time": 2394, "pitch": 38, "duration": 19, "velocity": 65}, {"time": 2397, "pitch": 45, "duration": 16, "velocity": 42}, {"time": 2400, "pitch": 50, "duration": 8, "velocity": 76}, {"time": 2403, "pitch": 57, "duration": 7, "velocity": 82}, {"time": 2406, "pitch": 66, "duration": 12, "velocity": 122}, {"time": 2409, "pitch": 50, "duration": 8, "velocity": 66}, {"time": 2412, "pitch": 62, "duration": 7, "velocity": 82}, {"time": 2415, "pitch": 57, "duration": 4, "velocity": 89}, {"time": 2418, "pitch": 43, "duration": 17, "velocity": 76}, {"time": 2421, "pitch": 50, "duration": 10, "velocity": 56}, {"time": 2424, "pitch": 55, "duration": 4, "velocity": 73}, {"time": 2427, "pitch": 59, "duration": 4, "velocity": 85}, {"time": 2430, "pitch": 62, "duration": 12, "velocity": 97}, {"time": 2433, "pitch": 50, "duration": 2, "velocity": 49}, {"time": 2436, "pitch": 59, "duration": 6, "velocity": 81}, {"time": 2439, "pitch": 55, "duration": 3, "velocity": 81}, {"time": 2442, "pitch": 42, "duration": 20, "velocity": 39}, {"time": 2445, "pitch": 59, "duration": 5, "velocity": 64}, {"time": 2448, "pitch": 62, "duration": 5, "velocity": 57}, {"time": 2451, "pitch": 59, "duration": 7, "velocity": 69}, {"time": 2454, "pitch": 66, "duration": 11, "velocity": 107}, {"time": 2457, "pitch": 54, "duration": 4, "velocity": 44}, {"time": 2460, "pitch": 62, "duration": 6, "velocity": 81}, {"time": 2463, "pitch": 59, "duration": 5, "velocity": 69}, {"time": 2466, "pitch": 40, "duration": 17, "velocity": 63}, {"time": 2469, "pitch": 47, "duration": 14, "velocity": 38}, {"time": 2472, "pitch": 52, "duration": 12, "velocity": 63}, {"time": 2475, "pitch": 59, "duration": 7, "velocity": 63}, {"time": 2478, "pitch": 67, "duration": 13, "velocity": 93}, {"time": 2481, "pitch": 64, "duration": 4, "velocity": 58}, {"time": 2484, "pitch": 59, "duration": 7, "velocity": 72}, {"time": 2487, "pitch": 64, "duration": 3, "velocity": 69}, {"time": 2490, "pitch": 47, "duration": 17, "velocity": 63}, {"time": 2493, "pitch": 54, "duration": 12, "velocity": 65}, {"time": 2496, "pitch": 59, "duration": 8, "velocity": 66}, {"time": 2499, "pitch": 62, "duration": 4, "velocity": 61}, {"time": 2502, "pitch": 66, "duration": 12, "velocity": 112}, {"time": 2505, "pitch": 62, "duration": 4, "velocity": 81}, {"time": 2508, "pitch": 59, "duration": 6, "velocity": 78}, {"time": 2511, "pitch": 62, "duration": 3, "velocity": 62}, {"time": 2514, "pitch": 36, "duration": 21, "velocity": 68}, {"time": 2517, "pitch": 48, "duration": 10, "velocity": 35}, {"time": 2520, "pitch": 55, "duration": 8, "velocity": 74}, {"time": 2523, "pitch": 59, "duration": 4, "velocity": 64}, {"time": 2526, "pitch": 62, "duration": 12, "velocity": 97}, {"time": 2529, "pitch": 55, "duration": 4, "velocity": 52}, {"time": 2532, "pitch": 59, "duration": 5, "velocity": 73}, {"time": 2535, "pitch": 55, "duration": 2, "velocity": 72}, {"time": 2538, "pitch": 47, "duration": 12, "velocity": 69}, {"time": 2544, "pitch": 59, "duration": 7, "velocity": 73}, {"time": 2547, "pitch": 66, "duration": 2, "velocity": 96}, {"time": 2550, "pitch": 52, "duration": 8, "velocity": 66}, {"time": 2553, "pitch": 59, "duration": 9, "velocity": 66}, {"time": 2556, "pitch": 67, "duration": 5, "velocity": 83}, {"time": 2559, "pitch": 64, "duration": 3, "velocity": 70}, {"time": 2562, "pitch": 45, "duration": 18, "velocity": 68}, {"time": 2565, "pitch": 52, "duration": 10, "velocity": 52}, {"time": 2568, "pitch": 57, "duration": 7, "velocity": 61}, {"time": 2571, "pitch": 60, "duration": 3, "velocity": 47}, {"time": 2574, "pitch": 64, "duration": 12, "velocity": 95}, {"time": 2577, "pitch": 52, "duration": 2, "velocity": 61}, {"time": 2580, "pitch": 60, "duration": 6, "velocity": 76}, {"time": 2583, "pitch": 57, "duration": 3, "velocity": 68}, {"time": 2586, "pitch": 38, "duration": 17, "velocity": 95}, {"time": 2592, "pitch": 45, "duration": 11, "velocity": 40}, {"time": 2598, "pitch": 50, "duration": 6, "velocity": 68}, {"time": 2598, "pitch": 62, "duration": 9, "velocity": 93}, {"time": 2598, "pitch": 66, "duration": 9, "velocity": 97}, {"time": 2604, "pitch": 57, "duration": 7, "velocity": 77}, {"time": 2610, "pitch": 43, "duration": 12, "velocity": 92}, {"time": 2616, "pitch": 50, "duration": 6, "velocity": 55}, {"time": 2616, "pitch": 55, "duration": 5, "velocity": 61}, {"time": 2616, "pitch": 59, "duration": 5, "velocity": 57}, {"time": 2616, "pitch": 62, "duration": 5, "velocity": 56}, {"time": 2622, "pitch": 59, "duration": 5, "velocity": 83}, {"time": 2622, "pitch": 62, "duration": 6, "velocity": 85}, {"time": 2628, "pitch": 55, "duration": 5, "velocity": 83}, {"time": 2628, "pitch": 59, "duration": 2, "velocity": 60}, {"time": 2628, "pitch": 62, "duration": 2, "velocity": 45}, {"time": 2634, "pitch": 39, "duration": 7, "velocity": 86}, {"time": 2634, "pitch": 58, "duration": 6, "velocity": 93}, {"time": 2634, "pitch": 63, "duration": 6, "velocity": 93}, {"time": 2640, "pitch": 51, "duration": 2, "velocity": 45}, {"time": 2640, "pitch": 58, "duration": 5, "velocity": 89}, {"time": 2640, "pitch": 63, "duration": 4, "velocity": 79}, {"time": 2646, "pitch": 41, "duration": 11, "velocity": 70}, {"time": 2646, "pitch": 53, "duration": 5, "velocity": 81}, {"time": 2646, "pitch": 57, "duration": 5, "velocity": 92}, {"time": 2646, "pitch": 60, "duration": 5, "velocity": 92}, {"time": 2652, "pitch": 53, "duration": 6, "velocity": 88}, {"time": 2652, "pitch": 57, "duration": 6, "velocity": 90}, {"time": 2652, "pitch": 60, "duration": 6, "velocity": 88}, {"time": 2658, "pitch": 43, "duration": 14, "velocity": 75}, {"time": 2664, "pitch": 50, "duration": 9, "velocity": 39}, {"time": 2670, "pitch": 62, "duration": 13, "velocity": 86}, {"time": 2676, "pitch": 55, "duration": 7, "velocity": 67}, {"time": 2682, "pitch": 42, "duration": 19, "velocity": 78}, {"time": 2688, "pitch": 59, "duration": 7, "velocity": 61}, {"time": 2694, "pitch": 54, "duration": 5, "velocity": 27}, {"time": 2694, "pitch": 62, "duration": 16, "velocity": 65}, {"time": 2694, "pitch": 66, "duration": 13, "velocity": 59}, {"time": 2706, "pitch": 40, "duration": 16, "velocity": 72}, {"time": 2712, "pitch": 47, "duration": 11, "velocity": 52}, {"time": 2718, "pitch": 52, "duration": 7, "velocity": 43}, {"time": 2718, "pitch": 64, "duration": 14, "velocity": 75}, {"time": 2718, "pitch": 67, "duration": 13, "velocity": 78}, {"time": 2724, "pitch": 59, "duration": 8, "velocity": 63}, {"time": 2730, "pitch": 47, "duration": 18, "velocity": 64}, {"time": 2736, "pitch": 54, "duration": 8, "velocity": 55}, {"time": 2739, "pitch": 59, "duration": 5, "velocity": 54}, {"time": 2742, "pitch": 66, "duration": 13, "velocity": 107}, {"time": 2745, "pitch": 54, "duration": 2, "velocity": 48}, {"time": 2748, "pitch": 62, "duration": 6, "velocity": 54}, {"time": 2751, "pitch": 59, "duration": 4, "velocity": 61}, {"time": 2754, "pitch": 36, "duration": 19, "velocity": 69}, {"time": 2760, "pitch": 55, "duration": 10, "velocity": 56}, {"time": 2763, "pitch": 43, "duration": 5, "velocity": 38}, {"time": 2766, "pitch": 62, "duration": 13, "velocity": 92}, {"time": 2769, "pitch": 43, "duration": 4, "velocity": 45}, {"time": 2772, "pitch": 59, "duration": 6, "velocity": 61}, {"time": 2775, "pitch": 55, "duration": 3, "velocity": 56}, {"time": 2778, "pitch": 47, "duration": 11, "velocity": 69}, {"time": 2781, "pitch": 59, "duration": 9, "velocity": 48}, {"time": 2784, "pitch": 66, "duration": 5, "velocity": 85}, {"time": 2787, "pitch": 62, "duration": 6, "velocity": 55}, {"time": 2790, "pitch": 52, "duration": 7, "velocity": 59}, {"time": 2793, "pitch": 59, "duration": 9, "velocity": 56}, {"time": 2796, "pitch": 67, "duration": 5, "velocity": 63}, {"time": 2799, "pitch": 64, "duration": 3, "velocity": 44}, {"time": 2802, "pitch": 45, "duration": 5, "velocity": 62}, {"time": 2802, "pitch": 57, "duration": 5, "velocity": 56}, {"time": 2802, "pitch": 60, "duration": 5, "velocity": 60}, {"time": 2802, "pitch": 64, "duration": 5, "velocity": 62}, {"time": 2808, "pitch": 45, "duration": 6, "velocity": 57}, {"time": 2808, "pitch": 57, "duration": 4, "velocity": 74}, {"time": 2808, "pitch": 60, "duration": 5, "velocity": 68}, {"time": 2808, "pitch": 64, "duration": 4, "velocity": 64}, {"time": 2814, "pitch": 47, "duration": 5, "velocity": 68}, {"time": 2814, "pitch": 59, "duration": 5, "velocity": 85}, {"time": 2814, "pitch": 62, "duration": 5, "velocity": 82}, {"time": 2814, "pitch": 66, "duration": 5, "velocity": 86}, {"time": 2820, "pitch": 47, "duration": 6, "velocity": 56}, {"time": 2820, "pitch": 59, "duration": 5, "velocity": 79}, {"time": 2820, "pitch": 62, "duration": 5, "velocity": 95}, {"time": 2820, "pitch": 66, "duration": 5, "velocity": 97}, {"time": 2826, "pitch": 48, "duration": 5, "velocity": 61}, {"time": 2826, "pitch": 60, "duration": 5, "velocity": 82}, {"time": 2826, "pitch": 64, "duration": 5, "velocity": 89}, {"time": 2826, "pitch": 67, "duration": 5, "velocity": 88}, {"time": 2832, "pitch": 48, "duration": 5, "velocity": 65}, {"time": 2832, "pitch": 60, "duration": 5, "velocity": 78}, {"time": 2832, "pitch": 64, "duration": 4, "velocity": 92}, {"time": 2832, "pitch": 67, "duration": 5, "velocity": 90}, {"time": 2838, "pitch": 50, "duration": 5, "velocity": 76}, {"time": 2838, "pitch": 62, "duration": 5, "velocity": 89}, {"time": 2838, "pitch": 66, "duration": 6, "velocity": 100}, {"time": 2838, "pitch": 69, "duration": 5, "velocity": 89}, {"time": 2844, "pitch": 50, "duration": 6, "velocity": 69}, {"time": 2844, "pitch": 62, "duration": 6, "velocity": 86}, {"time": 2844, "pitch": 66, "duration": 7, "velocity": 102}, {"time": 2844, "pitch": 69, "duration": 7, "velocity": 93}, {"time": 2850, "pitch": 43, "duration": 17, "velocity": 83}, {"time": 2853, "pitch": 50, "duration": 14, "velocity": 66}, {"time": 2856, "pitch": 55, "duration": 7, "velocity": 90}, {"time": 2859, "pitch": 59, "duration": 4, "velocity": 82}, {"time": 2862, "pitch": 67, "duration": 12, "velocity": 93}, {"time": 2865, "pitch": 55, "duration": 2, "velocity": 85}, {"time": 2868, "pitch": 62, "duration": 6, "velocity": 90}, {"time": 2871, "pitch": 59, "duration": 4, "velocity": 92}, {"time": 2874, "pitch": 42, "duration": 18, "velocity": 74}, {"time": 2877, "pitch": 59, "duration": 4, "velocity": 74}, {"time": 2880, "pitch": 62, "duration": 4, "velocity": 77}, {"time": 2883, "pitch": 59, "duration": 5, "velocity": 82}, {"time": 2886, "pitch": 54, "duration": 4, "velocity": 66}, {"time": 2886, "pitch": 66, "duration": 11, "velocity": 117}, {"time": 2889, "pitch": 59, "duration": 4, "velocity": 77}, {"time": 2892, "pitch": 62, "duration": 6, "velocity": 102}, {"time": 2895, "pitch": 59, "duration": 4, "velocity": 89}, {"time": 2898, "pitch": 40, "duration": 19, "velocity": 90}, {"time": 2901, "pitch": 47, "duration": 15, "velocity": 73}, {"time": 2904, "pitch": 52, "duration": 8, "velocity": 82}, {"time": 2907, "pitch": 55, "duration": 5, "velocity": 90}, {"time": 2910, "pitch": 64, "duration": 12, "velocity": 96}, {"time": 2913, "pitch": 52, "duration": 5, "velocity": 78}, {"time": 2916, "pitch": 55, "duration": 4, "velocity": 92}, {"time": 2919, "pitch": 59, "duration": 3, "velocity": 86}, {"time": 2922, "pitch": 47, "duration": 17, "velocity": 77}, {"time": 2925, "pitch": 54, "duration": 11, "velocity": 75}, {"time": 2928, "pitch": 59, "duration": 6, "velocity": 59}, {"time": 2931, "pitch": 62, "duration": 3, "velocity": 79}, {"time": 2934, "pitch": 66, "duration": 11, "velocity": 127}, {"time": 2937, "pitch": 54, "duration": 2, "velocity": 95}, {"time": 2940, "pitch": 62, "duration": 5, "velocity": 96}, {"time": 2943, "pitch": 59, "duration": 4, "velocity": 88}, {"time": 2946, "pitch": 36, "duration": 19, "velocity": 76}, {"time": 2949, "pitch": 48, "duration": 18, "velocity": 30}, {"time": 2952, "pitch": 55, "duration": 8, "velocity": 78}, {"time": 2955, "pitch": 59, "duration": 3, "velocity": 88}, {"time": 2958, "pitch": 62, "duration": 11, "velocity": 102}, {"time": 2961, "pitch": 55, "duration": 5, "velocity": 79}, {"time": 2964, "pitch": 59, "duration": 4, "velocity": 88}, {"time": 2967, "pitch": 55, "duration": 2, "velocity": 93}, {"time": 2970, "pitch": 47, "duration": 12, "velocity": 75}, {"time": 2973, "pitch": 59, "duration": 9, "velocity": 85}, {"time": 2976, "pitch": 66, "duration": 4, "velocity": 102}, {"time": 2979, "pitch": 62, "duration": 3, "velocity": 88}, {"time": 2982, "pitch": 40, "duration": 8, "velocity": 86}, {"time": 2985, "pitch": 47, "duration": 5, "velocity": 73}, {"time": 2988, "pitch": 52, "duration": 6, "velocity": 73}, {"time": 2988, "pitch": 67, "duration": 5, "velocity": 76}, {"time": 2991, "pitch": 59, "duration": 4, "velocity": 82}, {"time": 2994, "pitch": 45, "duration": 19, "velocity": 77}, {"time": 2997, "pitch": 52, "duration": 9, "velocity": 67}, {"time": 3000, "pitch": 57, "duration": 8, "velocity": 69}, {"time": 3003, "pitch": 60, "duration": 3, "velocity": 69}, {"time": 3006, "pitch": 64, "duration": 11, "velocity": 86}, {"time": 3009, "pitch": 52, "duration": 2, "velocity": 52}, {"time": 3012, "pitch": 60, "duration": 5, "velocity": 86}, {"time": 3015, "pitch": 57, "duration": 4, "velocity": 81}, {"time": 3018, "pitch": 38, "duration": 20, "velocity": 83}, {"time": 3021, "pitch": 45, "duration": 17, "velocity": 58}, {"time": 3024, "pitch": 50, "duration": 18, "velocity": 76}, {"time": 3027, "pitch": 57, "duration": 15, "velocity": 69}, {"time": 3030, "pitch": 66, "duration": 12, "velocity": 96}, {"time": 3042, "pitch": 43, "duration": 23, "velocity": 68}, {"time": 3048, "pitch": 50, "duration": 17, "velocity": 53}, {"time": 3054, "pitch": 62, "duration": 13, "velocity": 76}, {"time": 3060, "pitch": 59, "duration": 6, "velocity": 59}, {"time": 3066, "pitch": 42, "duration": 18, "velocity": 79}, {"time": 3072, "pitch": 54, "duration": 10, "velocity": 45}, {"time": 3078, "pitch": 66, "duration": 14, "velocity": 93}, {"time": 3084, "pitch": 59, "duration": 13, "velocity": 61}, {"time": 3090, "pitch": 40, "duration": 26, "velocity": 70}, {"time": 3096, "pitch": 47, "duration": 18, "velocity": 57}, {"time": 3102, "pitch": 52, "duration": 13, "velocity": 41}, {"time": 3102, "pitch": 67, "duration": 13, "velocity": 72}, {"time": 3108, "pitch": 64, "duration": 6, "velocity": 67}, {"time": 3114, "pitch": 43, "duration": 11, "velocity": 65}, {"time": 3120, "pitch": 50, "duration": 6, "velocity": 45}, {"time": 3126, "pitch": 47, "duration": 11, "velocity": 52}, {"time": 3126, "pitch": 59, "duration": 10, "velocity": 54}, {"time": 3126, "pitch": 62, "duration": 14, "velocity": 67}, {"time": 3126, "pitch": 66, "duration": 8, "velocity": 58}, {"time": 3138, "pitch": 48, "duration": 20, "velocity": 77}, {"time": 3144, "pitch": 55, "duration": 14, "velocity": 62}, {"time": 3150, "pitch": 64, "duration": 12, "velocity": 62}, {"time": 3150, "pitch": 67, "duration": 12, "velocity": 63}, {"time": 3156, "pitch": 60, "duration": 6, "velocity": 60}, {"time": 3162, "pitch": 47, "duration": 18, "velocity": 68}, {"time": 3168, "pitch": 54, "duration": 11, "velocity": 63}, {"time": 3174, "pitch": 66, "duration": 13, "velocity": 69}, {"time": 3174, "pitch": 62, "duration": 13, "velocity": 61}, {"time": 3186, "pitch": 45, "duration": 22, "velocity": 66}, {"time": 3193, "pitch": 52, "duration": 13, "velocity": 48}, {"time": 3200, "pitch": 64, "duration": 14, "velocity": 56}, {"time": 3200, "pitch": 60, "duration": 16, "velocity": 51}, {"time": 3207, "pitch": 57, "duration": 6, "velocity": 47}, {"time": 3217, "pitch": 38, "duration": 31, "velocity": 53}, {"time": 3218, "pitch": 57, "duration": 29, "velocity": 55}, {"time": 3219, "pitch": 50, "duration": 28, "velocity": 67}, {"time": 3220, "pitch": 62, "duration": 27, "velocity": 63}, {"time": 3220, "pitch": 66, "duration": 27, "velocity": 65}, {"time": 3248, "pitch": 43, "duration": 18, "velocity": 68}, {"time": 3255, "pitch": 50, "duration": 11, "velocity": 63}, {"time": 3262, "pitch": 62, "duration": 20, "velocity": 78}, {"time": 3268, "pitch": 59, "duration": 15, "velocity": 68}, {"time": 3274, "pitch": 42, "duration": 25, "velocity": 81}, {"time": 3281, "pitch": 54, "duration": 16, "velocity": 69}, {"time": 3288, "pitch": 66, "duration": 15, "velocity": 99}, {"time": 3295, "pitch": 62, "duration": 9, "velocity": 67}, {"time": 3301, "pitch": 64, "duration": 10, "velocity": 66}, {"time": 3301, "pitch": 52, "duration": 5, "velocity": 38}, {"time": 3302, "pitch": 40, "duration": 6, "velocity": 41}, {"time": 3302, "pitch": 47, "duration": 5, "velocity": 41}, {"time": 3302, "pitch": 67, "duration": 7, "velocity": 61}, {"time": 3303, "pitch": 71, "duration": 6, "velocity": 73}, {"time": 3313, "pitch": 62, "duration": 10, "velocity": 69}, {"time": 3313, "pitch": 66, "duration": 8, "velocity": 63}, {"time": 3314, "pitch": 38, "duration": 6, "velocity": 41}, {"time": 3315, "pitch": 69, "duration": 6, "velocity": 74}, {"time": 3325, "pitch": 36, "duration": 19, "velocity": 23}, {"time": 3325, "pitch": 43, "duration": 20, "velocity": 34}, {"time": 3325, "pitch": 60, "duration": 19, "velocity": 67}, {"time": 3326, "pitch": 48, "duration": 19, "velocity": 33}, {"time": 3326, "pitch": 64, "duration": 20, "velocity": 50}, {"time": 3327, "pitch": 67, "duration": 19, "velocity": 58}, {"time": 3341, "pitch": 45, "duration": 11, "velocity": 35}, {"time": 3341, "pitch": 38, "duration": 11, "velocity": 26}, {"time": 3341, "pitch": 50, "duration": 11, "velocity": 38}, {"time": 3341, "pitch": 62, "duration": 14, "velocity": 75}, {"time": 3342, "pitch": 66, "duration": 12, "velocity": 56}, {"time": 3343, "pitch": 69, "duration": 12, "velocity": 65}, {"time": 3362, "pitch": 71, "duration": 51, "velocity": 56}, {"time": 3363, "pitch": 69, "duration": 49, "velocity": 52}, {"time": 3364, "pitch": 67, "duration": 48, "velocity": 60}, {"time": 3365, "pitch": 62, "duration": 48, "velocity": 45}, {"time": 3365, "pitch": 43, "duration": 47, "velocity": 64}, {"time": 3365, "pitch": 55, "duration": 47, "velocity": 63}, {"time": 3365, "pitch": 50, "duration": 47, "velocity": 58}], "annotations": [{"time": 9, "annotation": {"number": 64, "value": 127}, "group": "control_change"}, {"time": 29, "annotation": {"number": 64, "value": 0}, "group": "control_change"}, {"time": 30, "annotation": {"number": 64, "value": 127}, "group": "control_change"}, {"time": 52, "annotation": {"number": 64, "value": 0}, "group": "control_change"}, {"time": 55, "annotation": {"number": 64, "value": 127}, "group": "control_change"}, {"time": 78, "annotation": {"number": 64, "value": 0}, "group": "control_change"}, {"time": 78, "annotation": {"number": 64, "value": 127}, "group": "control_change"}, {"time": 79, "annotation": {"number": 64, "value": 127}, "group": "control_change"}, {"time": 97, "annotation": {"number": 64, "value": 0}, "group": "control_change"}, {"time": 102, "annotation": {"number": 64, "value": 127}, "group": "control_change"}, {"time": 124, "annotation": {"number": 64, "value": 0}, "group": "control_change"}, {"time": 127, "annotation": {"number": 64, "value": 127}, "group": "control_change"}, {"time": 148, "annotation": {"number": 64, "value": 0}, "group": "control_change"}, {"time": 152, "annotation": {"number": 64, "value": 127}, "group": "control_change"}, {"time": 176, "annotation": {"number": 64, "value": 0}, "group": "control_change"}, {"time": 209, "annotation": {"number": 64, "value": 127}, "group": "control_change"}, {"time": 232, "annotation": {"number": 64, "value": 0}, "group": "control_change"}, {"time": 234, "annotation": {"number": 64, "value": 127}, "group": "control_change"}, {"time": 256, "annotation": {"number": 64, "value": 0}, "group": "control_change"}, {"time": 259, "annotation": {"number": 64, "value": 127}, "group": "control_change"}, {"time": 280, "annotation": {"number": 64, "value": 0}, "group": "control_change"}, {"time": 283, "annotation": {"number": 64, "value": 127}, "group": "control_change"}, {"time": 305, "annotation": {"number": 64, "value": 0}, "group": "control_change"}, {"time": 307, "annotation": {"number": 64, "value": 127}, "group": "control_change"}, {"time": 319, "annotation": {"number": 64, "value": 0}, "group": "control_change"}, {"time": 320, "annotation": {"number": 64, "value": 127}, "group": "control_change"}, {"time": 328, "annotation": {"number": 64, "value": 0}, "group": "control_change"}, {"time": 331, "annotation": {"number": 64, "value": 127}, "group": "control_change"}, {"time": 340, "annotation": {"number": 64, "value": 0}, "group": "control_change"}, {"time": 342, "annotation": {"number": 64, "value": 127}, "group": "control_change"}, {"time": 353, "annotation": {"number": 64, "value": 0}, "group": "control_change"}, {"time": 355, "annotation": {"number": 64, "value": 127}, "group": "control_change"}, {"time": 376, "annotation": {"number": 64, "value": 0}, "group": "control_change"}, {"time": 379, "annotation": {"number": 64, "value": 127}, "group": "control_change"}, {"time": 400, "annotation": {"number": 64, "value": 0}, "group": "control_change"}, {"time": 402, "annotation": {"number": 64, "value": 127}, "group": "control_change"}, {"time": 425, "annotation": {"number": 64, "value": 0}, "group": "control_change"}, {"time": 427, "annotation": {"number": 64, "value": 127}, "group": "control_change"}, {"time": 448, "annotation": {"number": 64, "value": 0}, "group": "control_change"}, {"time": 451, "annotation": {"number": 64, "value": 127}, "group": "control_change"}, {"time": 472, "annotation": {"number": 64, "value": 0}, "group": "control_change"}, {"time": 474, "annotation": {"number": 64, "value": 127}, "group": "control_change"}, {"time": 496, "annotation": {"number": 64, "value": 0}, "group": "control_change"}, {"time": 498, "annotation": {"number": 64, "value": 127}, "group": "control_change"}, {"time": 510, "annotation": {"number": 64, "value": 0}, "group": "control_change"}, {"time": 511, "annotation": {"number": 64, "value": 127}, "group": "control_change"}, {"time": 520, "annotation": {"number": 64, "value": 0}, "group": "control_change"}, {"time": 522, "annotation": {"number": 64, "value": 127}, "group": "control_change"}, {"time": 528, "annotation": {"number": 64, "value": 0}, "group": "control_change"}, {"time": 535, "annotation": {"number": 64, "value": 0}, "group": "control_change"}, {"time": 546, "annotation": {"number": 64, "value": 127}, "group": "control_change"}, {"time": 567, "annotation": {"number": 64, "value": 0}, "group": "control_change"}, {"time": 570, "annotation": {"number": 64, "value": 127}, "group": "control_change"}, {"time": 571, "annotation": {"number": 64, "value": 127}, "group": "control_change"}, {"time": 594, "annotation": {"number": 64, "value": 0}, "group": "control_change"}, {"time": 595, "annotation": {"number": 64, "value": 127}, "group": "control_change"}, {"time": 615, "annotation": {"number": 64, "value": 0}, "group": "control_change"}, {"time": 618, "annotation": {"number": 64, "value": 127}, "group": "control_change"}, {"time": 640, "annotation": {"number": 64, "value": 0}, "group": "control_change"}, {"time": 642, "annotation": {"number": 64, "value": 127}, "group": "control_change"}, {"time": 664, "annotation": {"number": 64, "value": 0}, "group": "control_change"}, {"time": 666, "annotation": {"number": 64, "value": 127}, "group": "control_change"}, {"time": 686, "annotation": {"number": 64, "value": 0}, "group": "control_change"}, {"time": 690, "annotation": {"number": 64, "value": 127}, "group": "control_change"}, {"time": 711, "annotation": {"number": 64, "value": 0}, "group": "control_change"}, {"time": 714, "annotation": {"number": 64, "value": 127}, "group": "control_change"}, {"time": 735, "annotation": {"number": 64, "value": 0}, "group": "control_change"}, {"time": 739, "annotation": {"number": 64, "value": 127}, "group": "control_change"}, {"time": 759, "annotation": {"number": 64, "value": 0}, "group": "control_change"}, {"time": 762, "annotation": {"number": 64, "value": 127}, "group": "control_change"}, {"time": 783, "annotation": {"number": 64, "value": 0}, "group": "control_change"}, {"time": 787, "annotation": {"number": 64, "value": 127}, "group": "control_change"}, {"time": 808, "annotation": {"number": 64, "value": 0}, "group": "control_change"}, {"time": 811, "annotation": {"number": 64, "value": 127}, "group": "control_change"}, {"time": 833, "annotation": {"number": 64, "value": 0}, "group": "control_change"}, {"time": 835, "annotation": {"number": 64, "value": 127}, "group": "control_change"}, {"time": 856, "annotation": {"number": 64, "value": 0}, "group": "control_change"}, {"time": 859, "annotation": {"number": 64, "value": 127}, "group": "control_change"}, {"time": 880, "annotation": {"number": 64, "value": 0}, "group": "control_change"}, {"time": 883, "annotation": {"number": 64, "value": 127}, "group": "control_change"}, {"time": 903, "annotation": {"number": 64, "value": 0}, "group": "control_change"}, {"time": 906, "annotation": {"number": 64, "value": 127}, "group": "control_change"}, {"time": 928, "annotation": {"number": 64, "value": 0}, "group": "control_change"}, {"time": 931, "annotation": {"number": 64, "value": 127}, "group": "control_change"}, {"time": 951, "annotation": {"number": 64, "value": 0}, "group": "control_change"}, {"time": 955, "annotation": {"number": 64, "value": 127}, "group": "control_change"}, {"time": 963, "annotation": {"number": 64, "value": 0}, "group": "control_change"}, {"time": 967, "annotation": {"number": 64, "value": 127}, "group": "control_change"}, {"time": 975, "annotation": {"number": 64, "value": 0}, "group": "control_change"}, {"time": 979, "annotation": {"number": 64, "value": 127}, "group": "control_change"}, {"time": 1000, "annotation": {"number": 64, "value": 0}, "group": "control_change"}, {"time": 1002, "annotation": {"number": 64, "value": 127}, "group": "control_change"}, {"time": 1024, "annotation": {"number": 64, "value": 0}, "group": "control_change"}, {"time": 1026, "annotation": {"number": 64, "value": 127}, "group": "control_change"}, {"time": 1047, "annotation": {"number": 64, "value": 0}, "group": "control_change"}, {"time": 1050, "annotation": {"number": 64, "value": 127}, "group": "control_change"}, {"time": 1071, "annotation": {"number": 64, "value": 0}, "group": "control_change"}, {"time": 1074, "annotation": {"number": 64, "value": 127}, "group": "control_change"}, {"time": 1096, "annotation": {"number": 64, "value": 0}, "group": "control_change"}, {"time": 1098, "annotation": {"number": 64, "value": 127}, "group": "control_change"}, {"time": 1120, "annotation": {"number": 64, "value": 0}, "group": "control_change"}, {"time": 1122, "annotation": {"number": 64, "value": 127}, "group": "control_change"}, {"time": 1143, "annotation": {"number": 64, "value": 0}, "group": "control_change"}, {"time": 1146, "annotation": {"number": 64, "value": 127}, "group": "control_change"}, {"time": 1167, "annotation": {"number": 64, "value": 0}, "group": "control_change"}, {"time": 1170, "annotation": {"number": 64, "value": 127}, "group": "control_change"}, {"time": 1191, "annotation": {"number": 64, "value": 0}, "group": "control_change"}, {"time": 1194, "annotation": {"number": 64, "value": 127}, "group": "control_change"}, {"time": 1195, "annotation": {"number": 64, "value": 127}, "group": "control_change"}, {"time": 1205, "annotation": {"number": 64, "value": 0}, "group": "control_change"}, {"time": 1219, "annotation": {"number": 64, "value": 127}, "group": "control_change"}, {"time": 1239, "annotation": {"number": 64, "value": 0}, "group": "control_change"}, {"time": 1242, "annotation": {"number": 64, "value": 127}, "group": "control_change"}, {"time": 1263, "annotation": {"number": 64, "value": 0}, "group": "control_change"}, {"time": 1267, "annotation": {"number": 64, "value": 127}, "group": "control_change"}, {"time": 1286, "annotation": {"number": 64, "value": 0}, "group": "control_change"}, {"time": 1290, "annotation": {"number": 64, "value": 127}, "group": "control_change"}, {"time": 1312, "annotation": {"number": 64, "value": 0}, "group": "control_change"}, {"time": 1314, "annotation": {"number": 64, "value": 127}, "group": "control_change"}, {"time": 1335, "annotation": {"number": 64, "value": 0}, "group": "control_change"}, {"time": 1338, "annotation": {"number": 64, "value": 127}, "group": "control_change"}, {"time": 1347, "annotation": {"number": 64, "value": 0}, "group": "control_change"}, {"time": 1350, "annotation": {"number": 64, "value": 127}, "group": "control_change"}, {"time": 1359, "annotation": {"number": 64, "value": 0}, "group": "control_change"}, {"time": 1362, "annotation": {"number": 64, "value": 127}, "group": "control_change"}, {"time": 1382, "annotation": {"number": 64, "value": 0}, "group": "control_change"}, {"time": 1386, "annotation": {"number": 64, "value": 127}, "group": "control_change"}, {"time": 1405, "annotation": {"number": 64, "value": 0}, "group": "control_change"}, {"time": 1410, "annotation": {"number": 64, "value": 127}, "group": "control_change"}, {"time": 1430, "annotation": {"number": 64, "value": 0}, "group": "control_change"}, {"time": 1433, "annotation": {"number": 64, "value": 127}, "group": "control_change"}, {"time": 1454, "annotation": {"number": 64, "value": 0}, "group": "control_change"}, {"time": 1458, "annotation": {"number": 64, "value": 127}, "group": "control_change"}, {"time": 1481, "annotation": {"number": 64, "value": 0}, "group": "control_change"}, {"time": 1482, "annotation": {"number": 64, "value": 127}, "group": "control_change"}, {"time": 1503, "annotation": {"number": 64, "value": 0}, "group": "control_change"}, {"time": 1506, "annotation": {"number": 64, "value": 127}, "group": "control_change"}, {"time": 1516, "annotation": {"number": 64, "value": 0}, "group": "control_change"}, {"time": 1518, "annotation": {"number": 64, "value": 127}, "group": "control_change"}, {"time": 1528, "annotation": {"number": 64, "value": 0}, "group": "control_change"}, {"time": 1530, "annotation": {"number": 64, "value": 127}, "group": "control_change"}, {"time": 1539, "annotation": {"number": 64, "value": 0}, "group": "control_change"}, {"time": 1542, "annotation": {"number": 64, "value": 127}, "group": "control_change"}, {"time": 1551, "annotation": {"number": 64, "value": 0}, "group": "control_change"}, {"time": 1554, "annotation": {"number": 64, "value": 127}, "group": "control_change"}, {"time": 1575, "annotation": {"number": 64, "value": 0}, "group": "control_change"}, {"time": 1578, "annotation": {"number": 64, "value": 127}, "group": "control_change"}, {"time": 1599, "annotation": {"number": 64, "value": 0}, "group": "control_change"}, {"time": 1603, "annotation": {"number": 64, "value": 127}, "group": "control_change"}, {"time": 1624, "annotation": {"number": 64, "value": 0}, "group": "control_change"}, {"time": 1627, "annotation": {"number": 64, "value": 127}, "group": "control_change"}, {"time": 1648, "annotation": {"number": 64, "value": 0}, "group": "control_change"}, {"time": 1651, "annotation": {"number": 64, "value": 127}, "group": "control_change"}, {"time": 1672, "annotation": {"number": 64, "value": 0}, "group": "control_change"}, {"time": 1675, "annotation": {"number": 64, "value": 127}, "group": "control_change"}, {"time": 1696, "annotation": {"number": 64, "value": 0}, "group": "control_change"}, {"time": 1698, "annotation": {"number": 64, "value": 127}, "group": "control_change"}, {"time": 1720, "annotation": {"number": 64, "value": 0}, "group": "control_change"}, {"time": 1722, "annotation": {"number": 64, "value": 127}, "group": "control_change"}, {"time": 1744, "annotation": {"number": 64, "value": 0}, "group": "control_change"}, {"time": 1746, "annotation": {"number": 64, "value": 127}, "group": "control_change"}, {"time": 1768, "annotation": {"number": 64, "value": 0}, "group": "control_change"}, {"time": 1771, "annotation": {"number": 64, "value": 127}, "group": "control_change"}, {"time": 1791, "annotation": {"number": 64, "value": 0}, "group": "control_change"}, {"time": 1795, "annotation": {"number": 64, "value": 127}, "group": "control_change"}, {"time": 1816, "annotation": {"number": 64, "value": 0}, "group": "control_change"}, {"time": 1819, "annotation": {"number": 64, "value": 127}, "group": "control_change"}, {"time": 1841, "annotation": {"number": 64, "value": 0}, "group": "control_change"}, {"time": 1843, "annotation": {"number": 64, "value": 127}, "group": "control_change"}, {"time": 1864, "annotation": {"number": 64, "value": 0}, "group": "control_change"}, {"time": 1867, "annotation": {"number": 64, "value": 127}, "group": "control_change"}, {"time": 1888, "annotation": {"number": 64, "value": 0}, "group": "control_change"}, {"time": 1891, "annotation": {"number": 64, "value": 127}, "group": "control_change"}, {"time": 1911, "annotation": {"number": 64, "value": 0}, "group": "control_change"}, {"time": 1914, "annotation": {"number": 64, "value": 127}, "group": "control_change"}, {"time": 1936, "annotation": {"number": 64, "value": 0}, "group": "control_change"}, {"time": 1939, "annotation": {"number": 64, "value": 127}, "group": "control_change"}, {"time": 1959, "annotation": {"number": 64, "value": 0}, "group": "control_change"}, {"time": 1963, "annotation": {"number": 64, "value": 127}, "group": "control_change"}, {"time": 1971, "annotation": {"number": 64, "value": 0}, "group": "control_change"}, {"time": 1975, "annotation": {"number": 64, "value": 127}, "group": "control_change"}, {"time": 1983, "annotation": {"number": 64, "value": 0}, "group": "control_change"}, {"time": 1987, "annotation": {"number": 64, "value": 127}, "group": "control_change"}, {"time": 2008, "annotation": {"number": 64, "value": 0}, "group": "control_change"}, {"time": 2010, "annotation": {"number": 64, "value": 127}, "group": "control_change"}, {"time": 2032, "annotation": {"number": 64, "value": 0}, "group": "control_change"}, {"time": 2034, "annotation": {"number": 64, "value": 127}, "group": "control_change"}, {"time": 2055, "annotation": {"number": 64, "value": 0}, "group": "control_change"}, {"time": 2058, "annotation": {"number": 64, "value": 127}, "group": "control_change"}, {"time": 2079, "annotation": {"number": 64, "value": 0}, "group": "control_change"}, {"time": 2082, "annotation": {"number": 64, "value": 127}, "group": "control_change"}, {"time": 2104, "annotation": {"number": 64, "value": 0}, "group": "control_change"}, {"time": 2106, "annotation": {"number": 64, "value": 127}, "group": "control_change"}, {"time": 2128, "annotation": {"number": 64, "value": 0}, "group": "control_change"}, {"time": 2130, "annotation": {"number": 64, "value": 127}, "group": "control_change"}, {"time": 2151, "annotation": {"number": 64, "value": 0}, "group": "control_change"}, {"time": 2154, "annotation": {"number": 64, "value": 127}, "group": "control_change"}, {"time": 2175, "annotation": {"number": 64, "value": 0}, "group": "control_change"}, {"time": 2178, "annotation": {"number": 64, "value": 127}, "group": "control_change"}, {"time": 2199, "annotation": {"number": 64, "value": 0}, "group": "control_change"}, {"time": 2202, "annotation": {"number": 64, "value": 127}, "group": "control_change"}, {"time": 2203, "annotation": {"number": 64, "value": 127}, "group": "control_change"}, {"time": 2213, "annotation": {"number": 64, "value": 0}, "group": "control_change"}, {"time": 2227, "annotation": {"number": 64, "value": 127}, "group": "control_change"}, {"time": 2247, "annotation": {"number": 64, "value": 0}, "group": "control_change"}, {"time": 2250, "annotation": {"number": 64, "value": 127}, "group": "control_change"}, {"time": 2271, "annotation": {"number": 64, "value": 0}, "group": "control_change"}, {"time": 2275, "annotation": {"number": 64, "value": 127}, "group": "control_change"}, {"time": 2294, "annotation": {"number": 64, "value": 0}, "group": "control_change"}, {"time": 2298, "annotation": {"number": 64, "value": 127}, "group": "control_change"}, {"time": 2320, "annotation": {"number": 64, "value": 0}, "group": "control_change"}, {"time": 2322, "annotation": {"number": 64, "value": 127}, "group": "control_change"}, {"time": 2343, "annotation": {"number": 64, "value": 0}, "group": "control_change"}, {"time": 2346, "annotation": {"number": 64, "value": 127}, "group": "control_change"}, {"time": 2355, "annotation": {"number": 64, "value": 0}, "group": "control_change"}, {"time": 2358, "annotation": {"number": 64, "value": 127}, "group": "control_change"}, {"time": 2367, "annotation": {"number": 64, "value": 0}, "group": "control_change"}, {"time": 2370, "annotation": {"number": 64, "value": 127}, "group": "control_change"}, {"time": 2390, "annotation": {"number": 64, "value": 0}, "group": "control_change"}, {"time": 2394, "annotation": {"number": 64, "value": 127}, "group": "control_change"}, {"time": 2413, "annotation": {"number": 64, "value": 0}, "group": "control_change"}, {"time": 2418, "annotation": {"number": 64, "value": 127}, "group": "control_change"}, {"time": 2438, "annotation": {"number": 64, "value": 0}, "group": "control_change"}, {"time": 2441, "annotation": {"number": 64, "value": 127}, "group": "control_change"}, {"time": 2462, "annotation": {"number": 64, "value": 0}, "group": "control_change"}, {"time": 2466, "annotation": {"number": 64, "value": 127}, "group": "control_change"}, {"time": 2489, "annotation": {"number": 64, "value": 0}, "group": "control_change"}, {"time": 2490, "annotation": {"number": 64, "value": 127}, "group": "control_change"}, {"time": 2511, "annotation": {"number": 64, "value": 0}, "group": "control_change"}, {"time": 2514, "annotation": {"number": 64, "value": 127}, "group": "control_change"}, {"time": 2524, "annotation": {"number": 64, "value": 0}, "group": "control_change"}, {"time": 2526, "annotation": {"number": 64, "value": 127}, "group": "control_change"}, {"time": 2536, "annotation": {"number": 64, "value": 0}, "group": "control_change"}, {"time": 2538, "annotation": {"number": 64, "value": 127}, "group": "control_change"}, {"time": 2547, "annotation": {"number": 64, "value": 0}, "group": "control_change"}, {"time": 2550, "annotation": {"number": 64, "value": 127}, "group": "control_change"}, {"time": 2559, "annotation": {"number": 64, "value": 0}, "group": "control_change"}, {"time": 2562, "annotation": {"number": 64, "value": 127}, "group": "control_change"}, {"time": 2583, "annotation": {"number": 64, "value": 0}, "group": "control_change"}, {"time": 2586, "annotation": {"number": 64, "value": 127}, "group": "control_change"}, {"time": 2606, "annotation": {"number": 64, "value": 0}, "group": "control_change"}, {"time": 2610, "annotation": {"number": 64, "value": 127}, "group": "control_change"}, {"time": 2632, "annotation": {"number": 64, "value": 0}, "group": "control_change"}, {"time": 2634, "annotation": {"number": 64, "value": 127}, "group": "control_change"}, {"time": 2646, "annotation": {"number": 64, "value": 0}, "group": "control_change"}, {"time": 2659, "annotation": {"number": 64, "value": 127}, "group": "control_change"}, {"time": 2680, "annotation": {"number": 64, "value": 0}, "group": "control_change"}, {"time": 2682, "annotation": {"number": 64, "value": 127}, "group": "control_change"}, {"time": 2704, "annotation": {"number": 64, "value": 0}, "group": "control_change"}, {"time": 2706, "annotation": {"number": 64, "value": 127}, "group": "control_change"}, {"time": 2726, "annotation": {"number": 64, "value": 0}, "group": "control_change"}, {"time": 2730, "annotation": {"number": 64, "value": 127}, "group": "control_change"}, {"time": 2752, "annotation": {"number": 64, "value": 0}, "group": "control_change"}, {"time": 2755, "annotation": {"number": 64, "value": 127}, "group": "control_change"}, {"time": 2776, "annotation": {"number": 64, "value": 0}, "group": "control_change"}, {"time": 2779, "annotation": {"number": 64, "value": 127}, "group": "control_change"}, {"time": 2788, "annotation": {"number": 64, "value": 0}, "group": "control_change"}, {"time": 2790, "annotation": {"number": 64, "value": 127}, "group": "control_change"}, {"time": 2800, "annotation": {"number": 64, "value": 0}, "group": "control_change"}, {"time": 2802, "annotation": {"number": 64, "value": 127}, "group": "control_change"}, {"time": 2812, "annotation": {"number": 64, "value": 0}, "group": "control_change"}, {"time": 2814, "annotation": {"number": 64, "value": 127}, "group": "control_change"}, {"time": 2823, "annotation": {"number": 64, "value": 0}, "group": "control_change"}, {"time": 2826, "annotation": {"number": 64, "value": 127}, "group": "control_change"}, {"time": 2836, "annotation": {"number": 64, "value": 0}, "group": "control_change"}, {"time": 2850, "annotation": {"number": 64, "value": 127}, "group": "control_change"}, {"time": 2872, "annotation": {"number": 64, "value": 0}, "group": "control_change"}, {"time": 2874, "annotation": {"number": 64, "value": 127}, "group": "control_change"}, {"time": 2895, "annotation": {"number": 64, "value": 0}, "group": "control_change"}, {"time": 2898, "annotation": {"number": 64, "value": 127}, "group": "control_change"}, {"time": 2920, "annotation": {"number": 64, "value": 0}, "group": "control_change"}, {"time": 2922, "annotation": {"number": 64, "value": 127}, "group": "control_change"}, {"time": 2944, "annotation": {"number": 64, "value": 0}, "group": "control_change"}, {"time": 2946, "annotation": {"number": 64, "value": 127}, "group": "control_change"}, {"time": 2967, "annotation": {"number": 64, "value": 0}, "group": "control_change"}, {"time": 2970, "annotation": {"number": 64, "value": 127}, "group": "control_change"}, {"time": 2979, "annotation": {"number": 64, "value": 0}, "group": "control_change"}, {"time": 2982, "annotation": {"number": 64, "value": 127}, "group": "control_change"}, {"time": 2992, "annotation": {"number": 64, "value": 0}, "group": "control_change"}, {"time": 2994, "annotation": {"number": 64, "value": 127}, "group": "control_change"}, {"time": 3015, "annotation": {"number": 64, "value": 0}, "group": "control_change"}, {"time": 3018, "annotation": {"number": 64, "value": 127}, "group": "control_change"}, {"time": 3040, "annotation": {"number": 64, "value": 0}, "group": "control_change"}, {"time": 3053, "annotation": {"number": 64, "value": 127}, "group": "control_change"}, {"time": 3061, "annotation": {"number": 64, "value": 0}, "group": "control_change"}, {"time": 3066, "annotation": {"number": 64, "value": 127}, "group": "control_change"}, {"time": 3087, "annotation": {"number": 64, "value": 0}, "group": "control_change"}, {"time": 3090, "annotation": {"number": 64, "value": 127}, "group": "control_change"}, {"time": 3110, "annotation": {"number": 64, "value": 0}, "group": "control_change"}, {"time": 3114, "annotation": {"number": 64, "value": 127}, "group": "control_change"}, {"time": 3124, "annotation": {"number": 64, "value": 0}, "group": "control_change"}, {"time": 3132, "annotation": {"number": 64, "value": 127}, "group": "control_change"}, {"time": 3133, "annotation": {"number": 64, "value": 0}, "group": "control_change"}, {"time": 3138, "annotation": {"number": 64, "value": 127}, "group": "control_change"}, {"time": 3156, "annotation": {"number": 64, "value": 0}, "group": "control_change"}, {"time": 3162, "annotation": {"number": 64, "value": 127}, "group": "control_change"}, {"time": 3184, "annotation": {"number": 64, "value": 0}, "group": "control_change"}, {"time": 3187, "annotation": {"number": 64, "value": 127}, "group": "control_change"}, {"time": 3220, "annotation": {"number": 64, "value": 0}, "group": "control_change"}, {"time": 3237, "annotation": {"number": 64, "value": 127}, "group": "control_change"}, {"time": 3245, "annotation": {"number": 64, "value": 0}, "group": "control_change"}, {"time": 3262, "annotation": {"number": 64, "value": 127}, "group": "control_change"}, {"time": 3273, "annotation": {"number": 64, "value": 0}, "group": "control_change"}, {"time": 3275, "annotation": {"number": 64, "value": 127}, "group": "control_change"}, {"time": 3301, "annotation": {"number": 64, "value": 0}, "group": "control_change"}, {"time": 3303, "annotation": {"number": 64, "value": 127}, "group": "control_change"}, {"time": 3314, "annotation": {"number": 64, "value": 0}, "group": "control_change"}, {"time": 3318, "annotation": {"number": 64, "value": 127}, "group": "control_change"}, {"time": 3326, "annotation": {"number": 64, "value": 0}, "group": "control_change"}, {"time": 3345, "annotation": {"number": 64, "value": 127}, "group": "control_change"}, {"time": 3365, "annotation": {"number": 64, "value": 0}, "group": "control_change"}, {"time": 3400, "annotation": {"number": 64, "value": 127}, "group": "control_change"}, {"time": 3417, "annotation": {"number": 64, "value": 0}, "group": "control_change"}, {"time": 3418, "annotation": {"number": 64, "value": 127}, "group": "control_change"}, {"time": 3419, "annotation": {"number": 64, "value": 0}, "group": "control_change"}, {"time": 3420, "annotation": {"number": 64, "value": 127}, "group": "control_change"}, {"time": 3423, "annotation": {"number": 64, "value": 0}, "group": "control_change"}]}]}