{"metadata": {"schema_version": "0.2", "title": "None", "source_filename": "774.mid", "source_format": "midi"}, "resolution": 12, "tempos": [{"time": 0, "qpm": 57.00008550012825}], "time_signatures": [{"time": 0, "numerator": 1, "denominator": 4}], "tracks": [{"program": 4, "is_drum": false, "name": "MELODY", "notes": [{"time": 430, "pitch": 69, "duration": 2, "velocity": 68}, {"time": 433, "pitch": 69, "duration": 1, "velocity": 79}, {"time": 436, "pitch": 69, "duration": 2, "velocity": 97}, {"time": 439, "pitch": 66, "duration": 3, "velocity": 83}, {"time": 442, "pitch": 73, "duration": 3, "velocity": 92}, {"time": 445, "pitch": 71, "duration": 10, "velocity": 86}, {"time": 457, "pitch": 64, "duration": 2, "velocity": 81}, {"time": 460, "pitch": 73, "duration": 4, "velocity": 112}, {"time": 469, "pitch": 71, "duration": 1, "velocity": 92}, {"time": 472, "pitch": 69, "duration": 5, "velocity": 99}, {"time": 478, "pitch": 66, "duration": 11, "velocity": 88}, {"time": 526, "pitch": 69, "duration": 1, "velocity": 92}, {"time": 529, "pitch": 69, "duration": 1, "velocity": 92}, {"time": 532, "pitch": 69, "duration": 2, "velocity": 97}, {"time": 535, "pitch": 64, "duration": 3, "velocity": 90}, {"time": 538, "pitch": 73, "duration": 3, "velocity": 102}, {"time": 541, "pitch": 71, "duration": 10, "velocity": 89}, {"time": 553, "pitch": 71, "duration": 1, "velocity": 92}, {"time": 556, "pitch": 71, "duration": 3, "velocity": 96}, {"time": 562, "pitch": 73, "duration": 2, "velocity": 100}, {"time": 565, "pitch": 76, "duration": 2, "velocity": 97}, {"time": 574, "pitch": 73, "duration": 7, "velocity": 102}, {"time": 610, "pitch": 73, "duration": 2, "velocity": 117}, {"time": 613, "pitch": 76, "duration": 2, "velocity": 85}, {"time": 616, "pitch": 78, "duration": 2, "velocity": 117}, {"time": 619, "pitch": 78, "duration": 1, "velocity": 112}, {"time": 622, "pitch": 78, "duration": 1, "velocity": 112}, {"time": 625, "pitch": 78, "duration": 1, "velocity": 102}, {"time": 628, "pitch": 78, "duration": 2, "velocity": 127}, {"time": 634, "pitch": 78, "duration": 2, "velocity": 117}, {"time": 637, "pitch": 69, "duration": 2, "velocity": 97}, {"time": 643, "pitch": 71, "duration": 9, "velocity": 93}, {"time": 658, "pitch": 71, "duration": 2, "velocity": 95}, {"time": 661, "pitch": 73, "duration": 2, "velocity": 117}, {"time": 664, "pitch": 76, "duration": 1, "velocity": 100}, {"time": 667, "pitch": 76, "duration": 1, "velocity": 93}, {"time": 670, "pitch": 76, "duration": 1, "velocity": 100}, {"time": 673, "pitch": 76, "duration": 1, "velocity": 99}, {"time": 676, "pitch": 76, "duration": 2, "velocity": 117}, {"time": 679, "pitch": 78, "duration": 2, "velocity": 117}, {"time": 685, "pitch": 71, "duration": 3, "velocity": 92}, {"time": 688, "pitch": 73, "duration": 11, "velocity": 99}, {"time": 706, "pitch": 66, "duration": 3, "velocity": 100}, {"time": 709, "pitch": 69, "duration": 3, "velocity": 69}, {"time": 712, "pitch": 73, "duration": 3, "velocity": 97}, {"time": 715, "pitch": 71, "duration": 3, "velocity": 82}, {"time": 718, "pitch": 69, "duration": 4, "velocity": 79}, {"time": 721, "pitch": 71, "duration": 9, "velocity": 88}, {"time": 745, "pitch": 66, "duration": 2, "velocity": 90}, {"time": 748, "pitch": 73, "duration": 3, "velocity": 102}, {"time": 754, "pitch": 71, "duration": 3, "velocity": 92}, {"time": 757, "pitch": 69, "duration": 4, "velocity": 73}, {"time": 760, "pitch": 71, "duration": 18, "velocity": 90}, {"time": 814, "pitch": 69, "duration": 2, "velocity": 83}, {"time": 817, "pitch": 69, "duration": 1, "velocity": 86}, {"time": 820, "pitch": 69, "duration": 2, "velocity": 90}, {"time": 823, "pitch": 66, "duration": 2, "velocity": 95}, {"time": 826, "pitch": 73, "duration": 2, "velocity": 117}, {"time": 829, "pitch": 71, "duration": 11, "velocity": 107}, {"time": 841, "pitch": 64, "duration": 1, "velocity": 90}, {"time": 844, "pitch": 73, "duration": 3, "velocity": 127}, {"time": 847, "pitch": 71, "duration": 4, "velocity": 92}, {"time": 853, "pitch": 69, "duration": 2, "velocity": 83}, {"time": 856, "pitch": 69, "duration": 5, "velocity": 90}, {"time": 862, "pitch": 66, "duration": 15, "velocity": 96}, {"time": 910, "pitch": 69, "duration": 1, "velocity": 55}, {"time": 913, "pitch": 69, "duration": 1, "velocity": 74}, {"time": 916, "pitch": 69, "duration": 3, "velocity": 86}, {"time": 919, "pitch": 64, "duration": 4, "velocity": 64}, {"time": 922, "pitch": 73, "duration": 4, "velocity": 92}, {"time": 925, "pitch": 71, "duration": 8, "velocity": 99}, {"time": 937, "pitch": 71, "duration": 2, "velocity": 89}, {"time": 940, "pitch": 71, "duration": 3, "velocity": 107}, {"time": 946, "pitch": 73, "duration": 2, "velocity": 117}, {"time": 949, "pitch": 76, "duration": 4, "velocity": 100}, {"time": 955, "pitch": 73, "duration": 15, "velocity": 122}, {"time": 994, "pitch": 73, "duration": 2, "velocity": 127}, {"time": 997, "pitch": 76, "duration": 3, "velocity": 127}, {"time": 1000, "pitch": 78, "duration": 2, "velocity": 122}, {"time": 1003, "pitch": 78, "duration": 2, "velocity": 122}, {"time": 1006, "pitch": 78, "duration": 1, "velocity": 127}, {"time": 1009, "pitch": 78, "duration": 1, "velocity": 127}, {"time": 1012, "pitch": 76, "duration": 3, "velocity": 127}, {"time": 1018, "pitch": 78, "duration": 1, "velocity": 127}, {"time": 1021, "pitch": 73, "duration": 5, "velocity": 112}, {"time": 1027, "pitch": 71, "duration": 10, "velocity": 97}, {"time": 1039, "pitch": 73, "duration": 3, "velocity": 107}, {"time": 1042, "pitch": 76, "duration": 3, "velocity": 107}, {"time": 1045, "pitch": 73, "duration": 2, "velocity": 102}, {"time": 1048, "pitch": 76, "duration": 3, "velocity": 112}, {"time": 1051, "pitch": 71, "duration": 2, "velocity": 95}, {"time": 1054, "pitch": 71, "duration": 2, "velocity": 89}, {"time": 1057, "pitch": 73, "duration": 2, "velocity": 112}, {"time": 1060, "pitch": 73, "duration": 4, "velocity": 127}, {"time": 1066, "pitch": 71, "duration": 3, "velocity": 112}, {"time": 1069, "pitch": 69, "duration": 5, "velocity": 100}, {"time": 1075, "pitch": 66, "duration": 10, "velocity": 90}, {"time": 1087, "pitch": 66, "duration": 3, "velocity": 100}, {"time": 1090, "pitch": 69, "duration": 2, "velocity": 95}, {"time": 1093, "pitch": 66, "duration": 2, "velocity": 99}, {"time": 1096, "pitch": 73, "duration": 3, "velocity": 127}, {"time": 1099, "pitch": 71, "duration": 3, "velocity": 96}, {"time": 1102, "pitch": 69, "duration": 4, "velocity": 92}, {"time": 1105, "pitch": 71, "duration": 5, "velocity": 112}, {"time": 1129, "pitch": 69, "duration": 3, "velocity": 97}, {"time": 1132, "pitch": 73, "duration": 4, "velocity": 122}, {"time": 1138, "pitch": 69, "duration": 2, "velocity": 93}, {"time": 1141, "pitch": 73, "duration": 6, "velocity": 127}, {"time": 1150, "pitch": 71, "duration": 11, "velocity": 112}, {"time": 1183, "pitch": 76, "duration": 3, "velocity": 99}, {"time": 1186, "pitch": 78, "duration": 3, "velocity": 122}, {"time": 1189, "pitch": 73, "duration": 3, "velocity": 100}, {"time": 1192, "pitch": 76, "duration": 1, "velocity": 96}, {"time": 1195, "pitch": 76, "duration": 1, "velocity": 100}, {"time": 1198, "pitch": 76, "duration": 1, "velocity": 97}, {"time": 1201, "pitch": 76, "duration": 2, "velocity": 100}, {"time": 1204, "pitch": 76, "duration": 2, "velocity": 122}, {"time": 1207, "pitch": 73, "duration": 3, "velocity": 127}, {"time": 1210, "pitch": 71, "duration": 3, "velocity": 97}, {"time": 1213, "pitch": 73, "duration": 11, "velocity": 122}, {"time": 1225, "pitch": 73, "duration": 1, "velocity": 127}, {"time": 1228, "pitch": 73, "duration": 2, "velocity": 122}, {"time": 1231, "pitch": 71, "duration": 3, "velocity": 100}, {"time": 1237, "pitch": 73, "duration": 1, "velocity": 127}, {"time": 1240, "pitch": 71, "duration": 6, "velocity": 127}, {"time": 1249, "pitch": 69, "duration": 7, "velocity": 107}, {"time": 1282, "pitch": 66, "duration": 2, "velocity": 122}, {"time": 1285, "pitch": 69, "duration": 3, "velocity": 96}, {"time": 1288, "pitch": 73, "duration": 3, "velocity": 122}, {"time": 1291, "pitch": 71, "duration": 2, "velocity": 95}, {"time": 1294, "pitch": 71, "duration": 2, "velocity": 102}, {"time": 1297, "pitch": 71, "duration": 2, "velocity": 107}, {"time": 1300, "pitch": 71, "duration": 3, "velocity": 127}, {"time": 1303, "pitch": 71, "duration": 3, "velocity": 127}, {"time": 1306, "pitch": 69, "duration": 3, "velocity": 99}, {"time": 1309, "pitch": 71, "duration": 3, "velocity": 112}, {"time": 1318, "pitch": 71, "duration": 2, "velocity": 102}, {"time": 1321, "pitch": 69, "duration": 1, "velocity": 99}, {"time": 1324, "pitch": 78, "duration": 3, "velocity": 127}, {"time": 1330, "pitch": 76, "duration": 1, "velocity": 122}, {"time": 1333, "pitch": 69, "duration": 3, "velocity": 107}, {"time": 1339, "pitch": 71, "duration": 11, "velocity": 127}, {"time": 1375, "pitch": 76, "duration": 3, "velocity": 99}, {"time": 1378, "pitch": 78, "duration": 3, "velocity": 122}, {"time": 1381, "pitch": 73, "duration": 3, "velocity": 100}, {"time": 1384, "pitch": 76, "duration": 1, "velocity": 96}, {"time": 1387, "pitch": 76, "duration": 1, "velocity": 100}, {"time": 1390, "pitch": 76, "duration": 1, "velocity": 97}, {"time": 1393, "pitch": 76, "duration": 2, "velocity": 100}, {"time": 1396, "pitch": 76, "duration": 2, "velocity": 122}, {"time": 1399, "pitch": 73, "duration": 3, "velocity": 127}, {"time": 1402, "pitch": 71, "duration": 3, "velocity": 97}, {"time": 1405, "pitch": 73, "duration": 11, "velocity": 122}, {"time": 1417, "pitch": 73, "duration": 1, "velocity": 127}, {"time": 1420, "pitch": 81, "duration": 3, "velocity": 127}, {"time": 1423, "pitch": 80, "duration": 4, "velocity": 122}, {"time": 1429, "pitch": 81, "duration": 2, "velocity": 122}, {"time": 1432, "pitch": 81, "duration": 4, "velocity": 127}, {"time": 1438, "pitch": 80, "duration": 2, "velocity": 117}, {"time": 1441, "pitch": 78, "duration": 8, "velocity": 122}, {"time": 1474, "pitch": 71, "duration": 2, "velocity": 107}, {"time": 1477, "pitch": 73, "duration": 2, "velocity": 112}, {"time": 1480, "pitch": 74, "duration": 4, "velocity": 107}, {"time": 1486, "pitch": 74, "duration": 4, "velocity": 122}, {"time": 1492, "pitch": 74, "duration": 3, "velocity": 127}, {"time": 1495, "pitch": 78, "duration": 8, "velocity": 127}, {"time": 1504, "pitch": 76, "duration": 5, "velocity": 117}, {"time": 1513, "pitch": 73, "duration": 2, "velocity": 122}, {"time": 1516, "pitch": 71, "duration": 6, "velocity": 95}, {"time": 1522, "pitch": 73, "duration": 2, "velocity": 107}, {"time": 1525, "pitch": 71, "duration": 7, "velocity": 100}, {"time": 1534, "pitch": 69, "duration": 19, "velocity": 99}, {"time": 2014, "pitch": 69, "duration": 2, "velocity": 83}, {"time": 2017, "pitch": 69, "duration": 1, "velocity": 86}, {"time": 2020, "pitch": 69, "duration": 2, "velocity": 90}, {"time": 2023, "pitch": 66, "duration": 2, "velocity": 95}, {"time": 2026, "pitch": 73, "duration": 2, "velocity": 117}, {"time": 2029, "pitch": 71, "duration": 11, "velocity": 107}, {"time": 2041, "pitch": 64, "duration": 1, "velocity": 90}, {"time": 2044, "pitch": 73, "duration": 3, "velocity": 127}, {"time": 2047, "pitch": 71, "duration": 4, "velocity": 92}, {"time": 2053, "pitch": 69, "duration": 2, "velocity": 83}, {"time": 2056, "pitch": 69, "duration": 5, "velocity": 90}, {"time": 2062, "pitch": 66, "duration": 15, "velocity": 96}, {"time": 2110, "pitch": 69, "duration": 1, "velocity": 55}, {"time": 2113, "pitch": 69, "duration": 1, "velocity": 74}, {"time": 2116, "pitch": 69, "duration": 3, "velocity": 86}, {"time": 2119, "pitch": 64, "duration": 4, "velocity": 64}, {"time": 2122, "pitch": 73, "duration": 4, "velocity": 92}, {"time": 2125, "pitch": 71, "duration": 8, "velocity": 99}, {"time": 2137, "pitch": 71, "duration": 2, "velocity": 89}, {"time": 2140, "pitch": 71, "duration": 3, "velocity": 107}, {"time": 2146, "pitch": 73, "duration": 2, "velocity": 117}, {"time": 2149, "pitch": 76, "duration": 4, "velocity": 100}, {"time": 2155, "pitch": 73, "duration": 15, "velocity": 122}, {"time": 2194, "pitch": 73, "duration": 2, "velocity": 127}, {"time": 2197, "pitch": 76, "duration": 3, "velocity": 127}, {"time": 2200, "pitch": 78, "duration": 2, "velocity": 122}, {"time": 2203, "pitch": 78, "duration": 2, "velocity": 122}, {"time": 2206, "pitch": 78, "duration": 1, "velocity": 127}, {"time": 2209, "pitch": 78, "duration": 1, "velocity": 127}, {"time": 2212, "pitch": 76, "duration": 3, "velocity": 127}, {"time": 2218, "pitch": 78, "duration": 1, "velocity": 127}, {"time": 2221, "pitch": 73, "duration": 5, "velocity": 112}, {"time": 2227, "pitch": 71, "duration": 10, "velocity": 97}, {"time": 2239, "pitch": 73, "duration": 3, "velocity": 107}, {"time": 2242, "pitch": 76, "duration": 3, "velocity": 107}, {"time": 2245, "pitch": 73, "duration": 2, "velocity": 102}, {"time": 2248, "pitch": 76, "duration": 3, "velocity": 112}, {"time": 2251, "pitch": 71, "duration": 2, "velocity": 95}, {"time": 2254, "pitch": 71, "duration": 2, "velocity": 89}, {"time": 2257, "pitch": 73, "duration": 2, "velocity": 112}, {"time": 2260, "pitch": 73, "duration": 4, "velocity": 127}, {"time": 2266, "pitch": 71, "duration": 3, "velocity": 112}, {"time": 2269, "pitch": 69, "duration": 5, "velocity": 100}, {"time": 2275, "pitch": 66, "duration": 10, "velocity": 90}, {"time": 2287, "pitch": 66, "duration": 3, "velocity": 100}, {"time": 2290, "pitch": 69, "duration": 2, "velocity": 95}, {"time": 2293, "pitch": 66, "duration": 2, "velocity": 99}, {"time": 2296, "pitch": 73, "duration": 3, "velocity": 127}, {"time": 2299, "pitch": 71, "duration": 3, "velocity": 96}, {"time": 2302, "pitch": 69, "duration": 4, "velocity": 92}, {"time": 2305, "pitch": 71, "duration": 5, "velocity": 112}, {"time": 2329, "pitch": 69, "duration": 3, "velocity": 97}, {"time": 2332, "pitch": 73, "duration": 4, "velocity": 122}, {"time": 2338, "pitch": 69, "duration": 2, "velocity": 93}, {"time": 2341, "pitch": 73, "duration": 6, "velocity": 127}, {"time": 2350, "pitch": 71, "duration": 11, "velocity": 112}, {"time": 2383, "pitch": 76, "duration": 3, "velocity": 99}, {"time": 2386, "pitch": 78, "duration": 3, "velocity": 122}, {"time": 2389, "pitch": 73, "duration": 3, "velocity": 100}, {"time": 2392, "pitch": 76, "duration": 1, "velocity": 96}, {"time": 2395, "pitch": 76, "duration": 1, "velocity": 100}, {"time": 2398, "pitch": 76, "duration": 1, "velocity": 97}, {"time": 2401, "pitch": 76, "duration": 2, "velocity": 100}, {"time": 2404, "pitch": 76, "duration": 2, "velocity": 122}, {"time": 2407, "pitch": 73, "duration": 3, "velocity": 127}, {"time": 2410, "pitch": 71, "duration": 3, "velocity": 97}, {"time": 2413, "pitch": 73, "duration": 11, "velocity": 122}, {"time": 2425, "pitch": 73, "duration": 1, "velocity": 127}, {"time": 2428, "pitch": 73, "duration": 2, "velocity": 122}, {"time": 2431, "pitch": 71, "duration": 3, "velocity": 100}, {"time": 2437, "pitch": 73, "duration": 1, "velocity": 127}, {"time": 2440, "pitch": 71, "duration": 6, "velocity": 127}, {"time": 2449, "pitch": 69, "duration": 7, "velocity": 107}, {"time": 2482, "pitch": 66, "duration": 2, "velocity": 122}, {"time": 2485, "pitch": 69, "duration": 3, "velocity": 96}, {"time": 2488, "pitch": 73, "duration": 3, "velocity": 122}, {"time": 2491, "pitch": 71, "duration": 2, "velocity": 95}, {"time": 2494, "pitch": 71, "duration": 2, "velocity": 102}, {"time": 2497, "pitch": 71, "duration": 2, "velocity": 107}, {"time": 2500, "pitch": 71, "duration": 3, "velocity": 127}, {"time": 2503, "pitch": 71, "duration": 3, "velocity": 127}, {"time": 2506, "pitch": 69, "duration": 3, "velocity": 99}, {"time": 2509, "pitch": 71, "duration": 3, "velocity": 112}, {"time": 2518, "pitch": 71, "duration": 2, "velocity": 102}, {"time": 2521, "pitch": 69, "duration": 1, "velocity": 99}, {"time": 2524, "pitch": 78, "duration": 3, "velocity": 127}, {"time": 2530, "pitch": 76, "duration": 1, "velocity": 122}, {"time": 2533, "pitch": 69, "duration": 3, "velocity": 107}, {"time": 2539, "pitch": 71, "duration": 11, "velocity": 127}, {"time": 2575, "pitch": 76, "duration": 3, "velocity": 99}, {"time": 2578, "pitch": 78, "duration": 3, "velocity": 122}, {"time": 2581, "pitch": 73, "duration": 3, "velocity": 100}, {"time": 2584, "pitch": 76, "duration": 1, "velocity": 96}, {"time": 2587, "pitch": 76, "duration": 1, "velocity": 100}, {"time": 2590, "pitch": 76, "duration": 1, "velocity": 97}, {"time": 2593, "pitch": 76, "duration": 2, "velocity": 100}, {"time": 2596, "pitch": 76, "duration": 2, "velocity": 122}, {"time": 2599, "pitch": 73, "duration": 3, "velocity": 127}, {"time": 2602, "pitch": 71, "duration": 3, "velocity": 97}, {"time": 2605, "pitch": 73, "duration": 11, "velocity": 122}, {"time": 2617, "pitch": 73, "duration": 1, "velocity": 127}, {"time": 2620, "pitch": 81, "duration": 3, "velocity": 127}, {"time": 2623, "pitch": 80, "duration": 4, "velocity": 122}, {"time": 2629, "pitch": 81, "duration": 2, "velocity": 122}, {"time": 2632, "pitch": 81, "duration": 4, "velocity": 127}, {"time": 2638, "pitch": 80, "duration": 2, "velocity": 117}, {"time": 2641, "pitch": 78, "duration": 8, "velocity": 122}, {"time": 2674, "pitch": 71, "duration": 2, "velocity": 107}, {"time": 2677, "pitch": 73, "duration": 2, "velocity": 112}, {"time": 2680, "pitch": 74, "duration": 4, "velocity": 107}, {"time": 2686, "pitch": 74, "duration": 4, "velocity": 122}, {"time": 2692, "pitch": 74, "duration": 3, "velocity": 127}, {"time": 2695, "pitch": 78, "duration": 8, "velocity": 127}, {"time": 2704, "pitch": 76, "duration": 5, "velocity": 117}, {"time": 2713, "pitch": 73, "duration": 2, "velocity": 122}, {"time": 2716, "pitch": 71, "duration": 6, "velocity": 95}, {"time": 2722, "pitch": 73, "duration": 2, "velocity": 107}, {"time": 2725, "pitch": 71, "duration": 7, "velocity": 100}, {"time": 2734, "pitch": 69, "duration": 19, "velocity": 99}, {"time": 2767, "pitch": 76, "duration": 3, "velocity": 99}, {"time": 2770, "pitch": 78, "duration": 3, "velocity": 122}, {"time": 2773, "pitch": 73, "duration": 3, "velocity": 100}, {"time": 2776, "pitch": 76, "duration": 1, "velocity": 96}, {"time": 2779, "pitch": 76, "duration": 1, "velocity": 100}, {"time": 2782, "pitch": 76, "duration": 1, "velocity": 97}, {"time": 2785, "pitch": 76, "duration": 2, "velocity": 100}, {"time": 2788, "pitch": 76, "duration": 2, "velocity": 122}, {"time": 2791, "pitch": 73, "duration": 3, "velocity": 127}, {"time": 2794, "pitch": 71, "duration": 3, "velocity": 97}, {"time": 2797, "pitch": 73, "duration": 11, "velocity": 122}, {"time": 2809, "pitch": 73, "duration": 1, "velocity": 127}, {"time": 2812, "pitch": 73, "duration": 2, "velocity": 122}, {"time": 2815, "pitch": 71, "duration": 3, "velocity": 100}, {"time": 2821, "pitch": 73, "duration": 1, "velocity": 127}, {"time": 2824, "pitch": 71, "duration": 6, "velocity": 127}, {"time": 2833, "pitch": 69, "duration": 7, "velocity": 107}, {"time": 2866, "pitch": 66, "duration": 2, "velocity": 122}, {"time": 2869, "pitch": 69, "duration": 3, "velocity": 96}, {"time": 2872, "pitch": 73, "duration": 3, "velocity": 122}, {"time": 2875, "pitch": 71, "duration": 2, "velocity": 95}, {"time": 2878, "pitch": 71, "duration": 2, "velocity": 102}, {"time": 2881, "pitch": 71, "duration": 2, "velocity": 107}, {"time": 2884, "pitch": 71, "duration": 3, "velocity": 127}, {"time": 2887, "pitch": 71, "duration": 3, "velocity": 127}, {"time": 2890, "pitch": 69, "duration": 3, "velocity": 99}, {"time": 2893, "pitch": 71, "duration": 3, "velocity": 112}, {"time": 2902, "pitch": 71, "duration": 2, "velocity": 102}, {"time": 2905, "pitch": 69, "duration": 1, "velocity": 99}, {"time": 2908, "pitch": 78, "duration": 3, "velocity": 127}, {"time": 2914, "pitch": 76, "duration": 1, "velocity": 122}, {"time": 2917, "pitch": 69, "duration": 3, "velocity": 107}, {"time": 2923, "pitch": 71, "duration": 11, "velocity": 127}, {"time": 2959, "pitch": 76, "duration": 3, "velocity": 99}, {"time": 2962, "pitch": 78, "duration": 3, "velocity": 122}, {"time": 2965, "pitch": 73, "duration": 3, "velocity": 100}, {"time": 2968, "pitch": 76, "duration": 1, "velocity": 96}, {"time": 2971, "pitch": 76, "duration": 1, "velocity": 100}, {"time": 2974, "pitch": 76, "duration": 1, "velocity": 97}, {"time": 2977, "pitch": 76, "duration": 2, "velocity": 100}, {"time": 2980, "pitch": 76, "duration": 2, "velocity": 122}, {"time": 2983, "pitch": 73, "duration": 3, "velocity": 127}, {"time": 2986, "pitch": 71, "duration": 3, "velocity": 97}, {"time": 2989, "pitch": 73, "duration": 11, "velocity": 122}, {"time": 3001, "pitch": 73, "duration": 1, "velocity": 127}, {"time": 3004, "pitch": 81, "duration": 3, "velocity": 127}, {"time": 3007, "pitch": 80, "duration": 4, "velocity": 122}, {"time": 3013, "pitch": 81, "duration": 2, "velocity": 122}, {"time": 3016, "pitch": 81, "duration": 4, "velocity": 127}, {"time": 3022, "pitch": 80, "duration": 2, "velocity": 117}, {"time": 3025, "pitch": 78, "duration": 8, "velocity": 122}, {"time": 3058, "pitch": 71, "duration": 2, "velocity": 107}, {"time": 3061, "pitch": 73, "duration": 2, "velocity": 112}, {"time": 3064, "pitch": 74, "duration": 4, "velocity": 107}, {"time": 3070, "pitch": 74, "duration": 4, "velocity": 122}, {"time": 3076, "pitch": 74, "duration": 3, "velocity": 127}, {"time": 3079, "pitch": 78, "duration": 8, "velocity": 127}, {"time": 3088, "pitch": 76, "duration": 5, "velocity": 117}, {"time": 3097, "pitch": 73, "duration": 2, "velocity": 122}, {"time": 3100, "pitch": 71, "duration": 6, "velocity": 95}, {"time": 3106, "pitch": 73, "duration": 2, "velocity": 107}, {"time": 3109, "pitch": 71, "duration": 7, "velocity": 100}, {"time": 3118, "pitch": 69, "duration": 19, "velocity": 99}, {"time": 3151, "pitch": 76, "duration": 3, "velocity": 81}, {"time": 3154, "pitch": 78, "duration": 4, "velocity": 99}, {"time": 3158, "pitch": 73, "duration": 3, "velocity": 90}, {"time": 3161, "pitch": 76, "duration": 4, "velocity": 69}, {"time": 3165, "pitch": 76, "duration": 3, "velocity": 77}, {"time": 3169, "pitch": 76, "duration": 2, "velocity": 100}, {"time": 3172, "pitch": 76, "duration": 2, "velocity": 100}, {"time": 3175, "pitch": 76, "duration": 3, "velocity": 107}, {"time": 3180, "pitch": 73, "duration": 3, "velocity": 107}, {"time": 3183, "pitch": 71, "duration": 4, "velocity": 82}, {"time": 3187, "pitch": 73, "duration": 8, "velocity": 92}, {"time": 3196, "pitch": 73, "duration": 2, "velocity": 100}, {"time": 3199, "pitch": 73, "duration": 3, "velocity": 112}, {"time": 3203, "pitch": 71, "duration": 3, "velocity": 92}, {"time": 3208, "pitch": 73, "duration": 2, "velocity": 107}, {"time": 3211, "pitch": 71, "duration": 8, "velocity": 95}, {"time": 3217, "pitch": 69, "duration": 3, "velocity": 85}, {"time": 3220, "pitch": 66, "duration": 24, "velocity": 96}, {"time": 3252, "pitch": 66, "duration": 4, "velocity": 99}, {"time": 3256, "pitch": 69, "duration": 3, "velocity": 82}, {"time": 3259, "pitch": 73, "duration": 7, "velocity": 102}, {"time": 3265, "pitch": 71, "duration": 2, "velocity": 75}, {"time": 3268, "pitch": 71, "duration": 5, "velocity": 92}, {"time": 3274, "pitch": 71, "duration": 6, "velocity": 93}, {"time": 3282, "pitch": 69, "duration": 4, "velocity": 75}, {"time": 3285, "pitch": 71, "duration": 16, "velocity": 92}, {"time": 3332, "pitch": 64, "duration": 4, "velocity": 95}, {"time": 3339, "pitch": 73, "duration": 5, "velocity": 102}, {"time": 3347, "pitch": 69, "duration": 7, "velocity": 102}, {"time": 3355, "pitch": 71, "duration": 2, "velocity": 107}, {"time": 3360, "pitch": 71, "duration": 8, "velocity": 100}, {"time": 3368, "pitch": 69, "duration": 40, "velocity": 85}]}, {"program": 0, "is_drum": false, "name": "PIANO", "notes": [{"time": 40, "pitch": 45, "duration": 39, "velocity": 59}, {"time": 46, "pitch": 52, "duration": 23, "velocity": 47}, {"time": 52, "pitch": 61, "duration": 23, "velocity": 59}, {"time": 58, "pitch": 57, "duration": 19, "velocity": 55}, {"time": 64, "pitch": 64, "duration": 26, "velocity": 59}, {"time": 70, "pitch": 52, "duration": 8, "velocity": 54}, {"time": 76, "pitch": 61, "duration": 13, "velocity": 97}, {"time": 82, "pitch": 57, "duration": 8, "velocity": 55}, {"time": 88, "pitch": 42, "duration": 38, "velocity": 66}, {"time": 94, "pitch": 49, "duration": 31, "velocity": 40}, {"time": 100, "pitch": 54, "duration": 15, "velocity": 58}, {"time": 106, "pitch": 57, "duration": 41, "velocity": 64}, {"time": 112, "pitch": 61, "duration": 12, "velocity": 65}, {"time": 118, "pitch": 54, "duration": 7, "velocity": 51}, {"time": 124, "pitch": 66, "duration": 15, "velocity": 81}, {"time": 130, "pitch": 61, "duration": 7, "velocity": 52}, {"time": 136, "pitch": 38, "duration": 38, "velocity": 69}, {"time": 142, "pitch": 45, "duration": 32, "velocity": 43}, {"time": 148, "pitch": 50, "duration": 14, "velocity": 67}, {"time": 154, "pitch": 57, "duration": 7, "velocity": 61}, {"time": 160, "pitch": 62, "duration": 13, "velocity": 69}, {"time": 160, "pitch": 66, "duration": 29, "velocity": 60}, {"time": 166, "pitch": 50, "duration": 7, "velocity": 47}, {"time": 172, "pitch": 57, "duration": 7, "velocity": 69}, {"time": 178, "pitch": 62, "duration": 12, "velocity": 63}, {"time": 184, "pitch": 40, "duration": 23, "velocity": 69}, {"time": 190, "pitch": 47, "duration": 10, "velocity": 59}, {"time": 196, "pitch": 52, "duration": 7, "velocity": 59}, {"time": 196, "pitch": 59, "duration": 11, "velocity": 63}, {"time": 202, "pitch": 47, "duration": 7, "velocity": 51}, {"time": 208, "pitch": 40, "duration": 15, "velocity": 93}, {"time": 208, "pitch": 52, "duration": 5, "velocity": 93}, {"time": 208, "pitch": 56, "duration": 5, "velocity": 90}, {"time": 208, "pitch": 59, "duration": 5, "velocity": 81}, {"time": 214, "pitch": 47, "duration": 10, "velocity": 60}, {"time": 220, "pitch": 52, "duration": 6, "velocity": 79}, {"time": 220, "pitch": 68, "duration": 13, "velocity": 100}, {"time": 220, "pitch": 71, "duration": 13, "velocity": 83}, {"time": 226, "pitch": 64, "duration": 7, "velocity": 72}, {"time": 232, "pitch": 45, "duration": 22, "velocity": 79}, {"time": 235, "pitch": 52, "duration": 22, "velocity": 38}, {"time": 238, "pitch": 57, "duration": 8, "velocity": 78}, {"time": 244, "pitch": 64, "duration": 18, "velocity": 83}, {"time": 250, "pitch": 61, "duration": 12, "velocity": 48}, {"time": 256, "pitch": 45, "duration": 18, "velocity": 81}, {"time": 259, "pitch": 52, "duration": 9, "velocity": 56}, {"time": 262, "pitch": 57, "duration": 12, "velocity": 75}, {"time": 265, "pitch": 64, "duration": 14, "velocity": 92}, {"time": 271, "pitch": 52, "duration": 3, "velocity": 55}, {"time": 274, "pitch": 61, "duration": 6, "velocity": 75}, {"time": 277, "pitch": 57, "duration": 4, "velocity": 56}, {"time": 280, "pitch": 42, "duration": 23, "velocity": 67}, {"time": 283, "pitch": 49, "duration": 21, "velocity": 57}, {"time": 286, "pitch": 54, "duration": 7, "velocity": 66}, {"time": 289, "pitch": 66, "duration": 22, "velocity": 95}, {"time": 292, "pitch": 61, "duration": 8, "velocity": 69}, {"time": 295, "pitch": 54, "duration": 9, "velocity": 34}, {"time": 298, "pitch": 57, "duration": 12, "velocity": 63}, {"time": 301, "pitch": 61, "duration": 10, "velocity": 59}, {"time": 304, "pitch": 42, "duration": 18, "velocity": 52}, {"time": 307, "pitch": 49, "duration": 14, "velocity": 36}, {"time": 310, "pitch": 54, "duration": 7, "velocity": 69}, {"time": 313, "pitch": 66, "duration": 15, "velocity": 102}, {"time": 316, "pitch": 61, "duration": 12, "velocity": 64}, {"time": 319, "pitch": 54, "duration": 2, "velocity": 46}, {"time": 322, "pitch": 57, "duration": 7, "velocity": 61}, {"time": 328, "pitch": 38, "duration": 19, "velocity": 67}, {"time": 331, "pitch": 45, "duration": 20, "velocity": 51}, {"time": 334, "pitch": 50, "duration": 7, "velocity": 51}, {"time": 337, "pitch": 57, "duration": 9, "velocity": 56}, {"time": 340, "pitch": 66, "duration": 11, "velocity": 95}, {"time": 343, "pitch": 50, "duration": 3, "velocity": 34}, {"time": 346, "pitch": 62, "duration": 7, "velocity": 64}, {"time": 352, "pitch": 40, "duration": 16, "velocity": 66}, {"time": 355, "pitch": 47, "duration": 13, "velocity": 38}, {"time": 358, "pitch": 52, "duration": 7, "velocity": 63}, {"time": 361, "pitch": 59, "duration": 16, "velocity": 59}, {"time": 364, "pitch": 68, "duration": 12, "velocity": 92}, {"time": 376, "pitch": 45, "duration": 20, "velocity": 79}, {"time": 382, "pitch": 52, "duration": 16, "velocity": 52}, {"time": 388, "pitch": 57, "duration": 33, "velocity": 68}, {"time": 394, "pitch": 59, "duration": 10, "velocity": 63}, {"time": 400, "pitch": 45, "duration": 19, "velocity": 46}, {"time": 400, "pitch": 52, "duration": 19, "velocity": 40}, {"time": 400, "pitch": 61, "duration": 20, "velocity": 42}, {"time": 400, "pitch": 64, "duration": 20, "velocity": 50}, {"time": 424, "pitch": 45, "duration": 17, "velocity": 76}, {"time": 430, "pitch": 52, "duration": 8, "velocity": 50}, {"time": 436, "pitch": 64, "duration": 13, "velocity": 90}, {"time": 442, "pitch": 57, "duration": 6, "velocity": 64}, {"time": 448, "pitch": 44, "duration": 18, "velocity": 72}, {"time": 454, "pitch": 56, "duration": 18, "velocity": 50}, {"time": 460, "pitch": 64, "duration": 13, "velocity": 35}, {"time": 472, "pitch": 42, "duration": 43, "velocity": 89}, {"time": 478, "pitch": 54, "duration": 31, "velocity": 35}, {"time": 484, "pitch": 66, "duration": 20, "velocity": 90}, {"time": 490, "pitch": 61, "duration": 18, "velocity": 44}, {"time": 493, "pitch": 57, "duration": 19, "velocity": 56}, {"time": 508, "pitch": 66, "duration": 12, "velocity": 88}, {"time": 511, "pitch": 54, "duration": 3, "velocity": 59}, {"time": 514, "pitch": 61, "duration": 7, "velocity": 71}, {"time": 517, "pitch": 57, "duration": 4, "velocity": 63}, {"time": 520, "pitch": 45, "duration": 15, "velocity": 67}, {"time": 526, "pitch": 52, "duration": 9, "velocity": 47}, {"time": 532, "pitch": 64, "duration": 12, "velocity": 90}, {"time": 538, "pitch": 61, "duration": 6, "velocity": 53}, {"time": 541, "pitch": 57, "duration": 3, "velocity": 53}, {"time": 544, "pitch": 44, "duration": 15, "velocity": 64}, {"time": 550, "pitch": 56, "duration": 19, "velocity": 54}, {"time": 556, "pitch": 64, "duration": 13, "velocity": 63}, {"time": 568, "pitch": 37, "duration": 42, "velocity": 71}, {"time": 574, "pitch": 49, "duration": 32, "velocity": 42}, {"time": 580, "pitch": 61, "duration": 22, "velocity": 67}, {"time": 586, "pitch": 52, "duration": 11, "velocity": 39}, {"time": 592, "pitch": 56, "duration": 7, "velocity": 62}, {"time": 598, "pitch": 52, "duration": 10, "velocity": 47}, {"time": 604, "pitch": 61, "duration": 13, "velocity": 107}, {"time": 607, "pitch": 49, "duration": 3, "velocity": 67}, {"time": 610, "pitch": 56, "duration": 6, "velocity": 76}, {"time": 613, "pitch": 52, "duration": 3, "velocity": 68}, {"time": 616, "pitch": 38, "duration": 18, "velocity": 82}, {"time": 622, "pitch": 45, "duration": 13, "velocity": 56}, {"time": 628, "pitch": 50, "duration": 5, "velocity": 48}, {"time": 628, "pitch": 66, "duration": 13, "velocity": 97}, {"time": 634, "pitch": 62, "duration": 8, "velocity": 66}, {"time": 640, "pitch": 40, "duration": 16, "velocity": 72}, {"time": 646, "pitch": 47, "duration": 11, "velocity": 53}, {"time": 652, "pitch": 52, "duration": 6, "velocity": 42}, {"time": 652, "pitch": 68, "duration": 11, "velocity": 92}, {"time": 658, "pitch": 64, "duration": 5, "velocity": 59}, {"time": 664, "pitch": 45, "duration": 10, "velocity": 95}, {"time": 670, "pitch": 57, "duration": 5, "velocity": 93}, {"time": 673, "pitch": 64, "duration": 4, "velocity": 77}, {"time": 676, "pitch": 44, "duration": 9, "velocity": 95}, {"time": 682, "pitch": 56, "duration": 6, "velocity": 69}, {"time": 685, "pitch": 64, "duration": 4, "velocity": 62}, {"time": 688, "pitch": 42, "duration": 16, "velocity": 95}, {"time": 694, "pitch": 54, "duration": 13, "velocity": 59}, {"time": 700, "pitch": 61, "duration": 13, "velocity": 69}, {"time": 700, "pitch": 66, "duration": 14, "velocity": 68}, {"time": 706, "pitch": 57, "duration": 7, "velocity": 48}, {"time": 712, "pitch": 47, "duration": 23, "velocity": 66}, {"time": 718, "pitch": 54, "duration": 8, "velocity": 57}, {"time": 724, "pitch": 66, "duration": 19, "velocity": 96}, {"time": 727, "pitch": 54, "duration": 9, "velocity": 58}, {"time": 730, "pitch": 62, "duration": 13, "velocity": 45}, {"time": 733, "pitch": 59, "duration": 10, "velocity": 42}, {"time": 736, "pitch": 47, "duration": 19, "velocity": 39}, {"time": 742, "pitch": 54, "duration": 8, "velocity": 54}, {"time": 748, "pitch": 62, "duration": 13, "velocity": 89}, {"time": 748, "pitch": 66, "duration": 13, "velocity": 99}, {"time": 751, "pitch": 54, "duration": 3, "velocity": 51}, {"time": 754, "pitch": 59, "duration": 7, "velocity": 78}, {"time": 760, "pitch": 40, "duration": 20, "velocity": 70}, {"time": 763, "pitch": 47, "duration": 11, "velocity": 47}, {"time": 766, "pitch": 52, "duration": 6, "velocity": 70}, {"time": 769, "pitch": 56, "duration": 3, "velocity": 59}, {"time": 772, "pitch": 59, "duration": 7, "velocity": 69}, {"time": 775, "pitch": 47, "duration": 9, "velocity": 60}, {"time": 778, "pitch": 56, "duration": 5, "velocity": 73}, {"time": 781, "pitch": 59, "duration": 2, "velocity": 55}, {"time": 784, "pitch": 40, "duration": 16, "velocity": 77}, {"time": 784, "pitch": 52, "duration": 23, "velocity": 75}, {"time": 784, "pitch": 56, "duration": 23, "velocity": 65}, {"time": 784, "pitch": 59, "duration": 24, "velocity": 63}, {"time": 808, "pitch": 45, "duration": 18, "velocity": 71}, {"time": 811, "pitch": 52, "duration": 11, "velocity": 47}, {"time": 814, "pitch": 57, "duration": 9, "velocity": 69}, {"time": 820, "pitch": 64, "duration": 12, "velocity": 93}, {"time": 823, "pitch": 52, "duration": 3, "velocity": 50}, {"time": 826, "pitch": 61, "duration": 6, "velocity": 76}, {"time": 832, "pitch": 44, "duration": 17, "velocity": 82}, {"time": 838, "pitch": 56, "duration": 12, "velocity": 78}, {"time": 844, "pitch": 64, "duration": 10, "velocity": 76}, {"time": 850, "pitch": 61, "duration": 8, "velocity": 69}, {"time": 856, "pitch": 42, "duration": 23, "velocity": 81}, {"time": 862, "pitch": 49, "duration": 18, "velocity": 27}, {"time": 865, "pitch": 54, "duration": 4, "velocity": 52}, {"time": 868, "pitch": 66, "duration": 21, "velocity": 93}, {"time": 871, "pitch": 54, "duration": 8, "velocity": 35}, {"time": 874, "pitch": 61, "duration": 17, "velocity": 44}, {"time": 877, "pitch": 57, "duration": 14, "velocity": 48}, {"time": 880, "pitch": 42, "duration": 18, "velocity": 61}, {"time": 886, "pitch": 49, "duration": 11, "velocity": 35}, {"time": 892, "pitch": 61, "duration": 7, "velocity": 63}, {"time": 892, "pitch": 66, "duration": 11, "velocity": 102}, {"time": 895, "pitch": 54, "duration": 3, "velocity": 63}, {"time": 898, "pitch": 57, "duration": 6, "velocity": 82}, {"time": 901, "pitch": 61, "duration": 3, "velocity": 66}, {"time": 904, "pitch": 45, "duration": 17, "velocity": 71}, {"time": 910, "pitch": 52, "duration": 7, "velocity": 40}, {"time": 913, "pitch": 57, "duration": 7, "velocity": 61}, {"time": 916, "pitch": 64, "duration": 12, "velocity": 83}, {"time": 919, "pitch": 52, "duration": 2, "velocity": 50}, {"time": 922, "pitch": 61, "duration": 6, "velocity": 72}, {"time": 928, "pitch": 44, "duration": 18, "velocity": 82}, {"time": 934, "pitch": 56, "duration": 18, "velocity": 88}, {"time": 940, "pitch": 64, "duration": 13, "velocity": 73}, {"time": 946, "pitch": 61, "duration": 6, "velocity": 37}, {"time": 952, "pitch": 37, "duration": 23, "velocity": 76}, {"time": 958, "pitch": 49, "duration": 18, "velocity": 58}, {"time": 964, "pitch": 61, "duration": 20, "velocity": 92}, {"time": 970, "pitch": 56, "duration": 14, "velocity": 48}, {"time": 973, "pitch": 52, "duration": 7, "velocity": 59}, {"time": 976, "pitch": 37, "duration": 18, "velocity": 57}, {"time": 979, "pitch": 44, "duration": 14, "velocity": 31}, {"time": 982, "pitch": 49, "duration": 7, "velocity": 63}, {"time": 985, "pitch": 52, "duration": 7, "velocity": 72}, {"time": 988, "pitch": 61, "duration": 12, "velocity": 117}, {"time": 991, "pitch": 49, "duration": 3, "velocity": 66}, {"time": 994, "pitch": 56, "duration": 6, "velocity": 79}, {"time": 997, "pitch": 52, "duration": 3, "velocity": 63}, {"time": 1000, "pitch": 38, "duration": 18, "velocity": 78}, {"time": 1003, "pitch": 45, "duration": 15, "velocity": 39}, {"time": 1006, "pitch": 50, "duration": 6, "velocity": 76}, {"time": 1009, "pitch": 57, "duration": 16, "velocity": 63}, {"time": 1012, "pitch": 66, "duration": 12, "velocity": 107}, {"time": 1018, "pitch": 62, "duration": 6, "velocity": 69}, {"time": 1024, "pitch": 40, "duration": 17, "velocity": 81}, {"time": 1030, "pitch": 47, "duration": 11, "velocity": 61}, {"time": 1036, "pitch": 52, "duration": 7, "velocity": 66}, {"time": 1036, "pitch": 64, "duration": 12, "velocity": 76}, {"time": 1039, "pitch": 56, "duration": 4, "velocity": 63}, {"time": 1042, "pitch": 59, "duration": 5, "velocity": 65}, {"time": 1045, "pitch": 56, "duration": 3, "velocity": 82}, {"time": 1048, "pitch": 45, "duration": 10, "velocity": 85}, {"time": 1051, "pitch": 57, "duration": 7, "velocity": 82}, {"time": 1054, "pitch": 64, "duration": 8, "velocity": 97}, {"time": 1057, "pitch": 61, "duration": 5, "velocity": 112}, {"time": 1060, "pitch": 44, "duration": 8, "velocity": 93}, {"time": 1063, "pitch": 56, "duration": 9, "velocity": 72}, {"time": 1066, "pitch": 64, "duration": 7, "velocity": 71}, {"time": 1069, "pitch": 61, "duration": 3, "velocity": 53}, {"time": 1072, "pitch": 42, "duration": 17, "velocity": 69}, {"time": 1075, "pitch": 49, "duration": 14, "velocity": 46}, {"time": 1078, "pitch": 54, "duration": 7, "velocity": 73}, {"time": 1081, "pitch": 57, "duration": 10, "velocity": 69}, {"time": 1084, "pitch": 66, "duration": 12, "velocity": 112}, {"time": 1087, "pitch": 54, "duration": 4, "velocity": 69}, {"time": 1090, "pitch": 61, "duration": 6, "velocity": 97}, {"time": 1093, "pitch": 57, "duration": 3, "velocity": 79}, {"time": 1096, "pitch": 47, "duration": 23, "velocity": 59}, {"time": 1099, "pitch": 54, "duration": 21, "velocity": 75}, {"time": 1102, "pitch": 59, "duration": 13, "velocity": 72}, {"time": 1108, "pitch": 66, "duration": 20, "velocity": 100}, {"time": 1114, "pitch": 62, "duration": 14, "velocity": 88}, {"time": 1117, "pitch": 59, "duration": 13, "velocity": 56}, {"time": 1120, "pitch": 47, "duration": 18, "velocity": 79}, {"time": 1126, "pitch": 54, "duration": 8, "velocity": 92}, {"time": 1132, "pitch": 66, "duration": 11, "velocity": 127}, {"time": 1135, "pitch": 54, "duration": 2, "velocity": 71}, {"time": 1138, "pitch": 62, "duration": 6, "velocity": 107}, {"time": 1141, "pitch": 59, "duration": 4, "velocity": 82}, {"time": 1144, "pitch": 40, "duration": 23, "velocity": 82}, {"time": 1150, "pitch": 47, "duration": 8, "velocity": 62}, {"time": 1153, "pitch": 52, "duration": 4, "velocity": 72}, {"time": 1156, "pitch": 59, "duration": 12, "velocity": 99}, {"time": 1159, "pitch": 47, "duration": 9, "velocity": 82}, {"time": 1162, "pitch": 56, "duration": 5, "velocity": 117}, {"time": 1165, "pitch": 52, "duration": 2, "velocity": 96}, {"time": 1168, "pitch": 40, "duration": 17, "velocity": 96}, {"time": 1168, "pitch": 52, "duration": 2, "velocity": 99}, {"time": 1168, "pitch": 56, "duration": 2, "velocity": 127}, {"time": 1168, "pitch": 59, "duration": 2, "velocity": 97}, {"time": 1171, "pitch": 47, "duration": 15, "velocity": 93}, {"time": 1174, "pitch": 52, "duration": 7, "velocity": 96}, {"time": 1177, "pitch": 64, "duration": 2, "velocity": 78}, {"time": 1177, "pitch": 68, "duration": 2, "velocity": 99}, {"time": 1177, "pitch": 71, "duration": 2, "velocity": 88}, {"time": 1180, "pitch": 64, "duration": 3, "velocity": 102}, {"time": 1180, "pitch": 68, "duration": 7, "velocity": 127}, {"time": 1180, "pitch": 71, "duration": 12, "velocity": 117}, {"time": 1183, "pitch": 52, "duration": 4, "velocity": 102}, {"time": 1186, "pitch": 64, "duration": 6, "velocity": 112}, {"time": 1189, "pitch": 68, "duration": 3, "velocity": 127}, {"time": 1192, "pitch": 45, "duration": 22, "velocity": 95}, {"time": 1195, "pitch": 52, "duration": 10, "velocity": 122}, {"time": 1198, "pitch": 57, "duration": 3, "velocity": 100}, {"time": 1201, "pitch": 61, "duration": 3, "velocity": 127}, {"time": 1204, "pitch": 64, "duration": 14, "velocity": 107}, {"time": 1207, "pitch": 52, "duration": 9, "velocity": 99}, {"time": 1210, "pitch": 61, "duration": 8, "velocity": 122}, {"time": 1213, "pitch": 57, "duration": 5, "velocity": 100}, {"time": 1216, "pitch": 45, "duration": 17, "velocity": 93}, {"time": 1219, "pitch": 52, "duration": 11, "velocity": 89}, {"time": 1222, "pitch": 57, "duration": 4, "velocity": 99}, {"time": 1225, "pitch": 69, "duration": 4, "velocity": 81}, {"time": 1228, "pitch": 73, "duration": 12, "velocity": 127}, {"time": 1231, "pitch": 52, "duration": 2, "velocity": 93}, {"time": 1234, "pitch": 69, "duration": 6, "velocity": 97}, {"time": 1237, "pitch": 44, "duration": 3, "velocity": 95}, {"time": 1240, "pitch": 42, "duration": 22, "velocity": 92}, {"time": 1243, "pitch": 49, "duration": 21, "velocity": 39}, {"time": 1246, "pitch": 54, "duration": 6, "velocity": 96}, {"time": 1249, "pitch": 57, "duration": 6, "velocity": 90}, {"time": 1252, "pitch": 66, "duration": 21, "velocity": 117}, {"time": 1255, "pitch": 54, "duration": 13, "velocity": 96}, {"time": 1258, "pitch": 61, "duration": 14, "velocity": 102}, {"time": 1261, "pitch": 57, "duration": 10, "velocity": 85}, {"time": 1264, "pitch": 42, "duration": 18, "velocity": 85}, {"time": 1267, "pitch": 49, "duration": 15, "velocity": 79}, {"time": 1270, "pitch": 54, "duration": 7, "velocity": 95}, {"time": 1273, "pitch": 57, "duration": 9, "velocity": 96}, {"time": 1276, "pitch": 66, "duration": 13, "velocity": 117}, {"time": 1279, "pitch": 54, "duration": 5, "velocity": 97}, {"time": 1282, "pitch": 61, "duration": 5, "velocity": 117}, {"time": 1285, "pitch": 64, "duration": 4, "velocity": 77}, {"time": 1288, "pitch": 47, "duration": 23, "velocity": 77}, {"time": 1291, "pitch": 54, "duration": 10, "velocity": 95}, {"time": 1294, "pitch": 59, "duration": 8, "velocity": 76}, {"time": 1297, "pitch": 61, "duration": 3, "velocity": 93}, {"time": 1300, "pitch": 66, "duration": 13, "velocity": 122}, {"time": 1303, "pitch": 54, "duration": 10, "velocity": 96}, {"time": 1306, "pitch": 62, "duration": 6, "velocity": 100}, {"time": 1309, "pitch": 59, "duration": 4, "velocity": 73}, {"time": 1312, "pitch": 47, "duration": 18, "velocity": 83}, {"time": 1315, "pitch": 54, "duration": 10, "velocity": 85}, {"time": 1318, "pitch": 59, "duration": 8, "velocity": 73}, {"time": 1321, "pitch": 62, "duration": 3, "velocity": 90}, {"time": 1324, "pitch": 66, "duration": 12, "velocity": 127}, {"time": 1327, "pitch": 54, "duration": 2, "velocity": 95}, {"time": 1330, "pitch": 62, "duration": 6, "velocity": 117}, {"time": 1333, "pitch": 59, "duration": 3, "velocity": 117}, {"time": 1336, "pitch": 40, "duration": 22, "velocity": 93}, {"time": 1339, "pitch": 47, "duration": 21, "velocity": 100}, {"time": 1342, "pitch": 52, "duration": 17, "velocity": 112}, {"time": 1345, "pitch": 56, "duration": 4, "velocity": 127}, {"time": 1348, "pitch": 59, "duration": 1, "velocity": 99}, {"time": 1351, "pitch": 64, "duration": 10, "velocity": 83}, {"time": 1354, "pitch": 68, "duration": 7, "velocity": 117}, {"time": 1357, "pitch": 71, "duration": 4, "velocity": 95}, {"time": 1360, "pitch": 40, "duration": 19, "velocity": 88}, {"time": 1363, "pitch": 47, "duration": 16, "velocity": 92}, {"time": 1366, "pitch": 52, "duration": 7, "velocity": 93}, {"time": 1369, "pitch": 71, "duration": 3, "velocity": 81}, {"time": 1369, "pitch": 76, "duration": 2, "velocity": 96}, {"time": 1369, "pitch": 80, "duration": 2, "velocity": 100}, {"time": 1372, "pitch": 71, "duration": 1, "velocity": 58}, {"time": 1372, "pitch": 76, "duration": 5, "velocity": 100}, {"time": 1372, "pitch": 80, "duration": 12, "velocity": 127}, {"time": 1375, "pitch": 52, "duration": 7, "velocity": 93}, {"time": 1378, "pitch": 71, "duration": 6, "velocity": 107}, {"time": 1381, "pitch": 76, "duration": 3, "velocity": 102}, {"time": 1384, "pitch": 45, "duration": 21, "velocity": 89}, {"time": 1387, "pitch": 52, "duration": 10, "velocity": 71}, {"time": 1390, "pitch": 57, "duration": 4, "velocity": 85}, {"time": 1393, "pitch": 61, "duration": 4, "velocity": 102}, {"time": 1396, "pitch": 64, "duration": 13, "velocity": 95}, {"time": 1399, "pitch": 52, "duration": 8, "velocity": 93}, {"time": 1402, "pitch": 61, "duration": 7, "velocity": 97}, {"time": 1405, "pitch": 57, "duration": 4, "velocity": 88}, {"time": 1408, "pitch": 45, "duration": 18, "velocity": 89}, {"time": 1411, "pitch": 52, "duration": 15, "velocity": 82}, {"time": 1414, "pitch": 57, "duration": 7, "velocity": 96}, {"time": 1417, "pitch": 64, "duration": 4, "velocity": 92}, {"time": 1420, "pitch": 69, "duration": 7, "velocity": 79}, {"time": 1420, "pitch": 73, "duration": 12, "velocity": 117}, {"time": 1423, "pitch": 57, "duration": 2, "velocity": 100}, {"time": 1426, "pitch": 64, "duration": 7, "velocity": 97}, {"time": 1429, "pitch": 69, "duration": 3, "velocity": 85}, {"time": 1432, "pitch": 42, "duration": 22, "velocity": 81}, {"time": 1435, "pitch": 49, "duration": 20, "velocity": 32}, {"time": 1438, "pitch": 54, "duration": 7, "velocity": 83}, {"time": 1441, "pitch": 57, "duration": 7, "velocity": 93}, {"time": 1444, "pitch": 66, "duration": 19, "velocity": 122}, {"time": 1447, "pitch": 54, "duration": 10, "velocity": 89}, {"time": 1450, "pitch": 61, "duration": 14, "velocity": 117}, {"time": 1453, "pitch": 57, "duration": 11, "velocity": 95}, {"time": 1456, "pitch": 42, "duration": 17, "velocity": 76}, {"time": 1459, "pitch": 49, "duration": 14, "velocity": 35}, {"time": 1462, "pitch": 54, "duration": 7, "velocity": 85}, {"time": 1465, "pitch": 57, "duration": 4, "velocity": 92}, {"time": 1468, "pitch": 61, "duration": 7, "velocity": 112}, {"time": 1468, "pitch": 66, "duration": 12, "velocity": 122}, {"time": 1471, "pitch": 54, "duration": 3, "velocity": 89}, {"time": 1474, "pitch": 57, "duration": 5, "velocity": 96}, {"time": 1477, "pitch": 61, "duration": 3, "velocity": 102}, {"time": 1480, "pitch": 47, "duration": 17, "velocity": 79}, {"time": 1483, "pitch": 54, "duration": 11, "velocity": 77}, {"time": 1486, "pitch": 59, "duration": 3, "velocity": 78}, {"time": 1489, "pitch": 62, "duration": 3, "velocity": 89}, {"time": 1492, "pitch": 66, "duration": 9, "velocity": 127}, {"time": 1495, "pitch": 54, "duration": 2, "velocity": 77}, {"time": 1498, "pitch": 62, "duration": 5, "velocity": 99}, {"time": 1501, "pitch": 59, "duration": 6, "velocity": 97}, {"time": 1504, "pitch": 40, "duration": 18, "velocity": 81}, {"time": 1507, "pitch": 47, "duration": 15, "velocity": 73}, {"time": 1510, "pitch": 52, "duration": 7, "velocity": 78}, {"time": 1513, "pitch": 59, "duration": 10, "velocity": 79}, {"time": 1516, "pitch": 68, "duration": 12, "velocity": 117}, {"time": 1519, "pitch": 52, "duration": 2, "velocity": 82}, {"time": 1522, "pitch": 64, "duration": 6, "velocity": 95}, {"time": 1528, "pitch": 38, "duration": 17, "velocity": 86}, {"time": 1531, "pitch": 45, "duration": 14, "velocity": 42}, {"time": 1534, "pitch": 50, "duration": 9, "velocity": 70}, {"time": 1537, "pitch": 57, "duration": 15, "velocity": 65}, {"time": 1540, "pitch": 66, "duration": 13, "velocity": 76}, {"time": 1546, "pitch": 62, "duration": 6, "velocity": 63}, {"time": 1552, "pitch": 37, "duration": 14, "velocity": 70}, {"time": 1558, "pitch": 44, "duration": 8, "velocity": 39}, {"time": 1564, "pitch": 49, "duration": 4, "velocity": 54}, {"time": 1564, "pitch": 64, "duration": 9, "velocity": 53}, {"time": 1564, "pitch": 68, "duration": 12, "velocity": 83}, {"time": 1570, "pitch": 61, "duration": 7, "velocity": 47}, {"time": 1576, "pitch": 47, "duration": 18, "velocity": 73}, {"time": 1582, "pitch": 54, "duration": 8, "velocity": 63}, {"time": 1588, "pitch": 62, "duration": 8, "velocity": 72}, {"time": 1588, "pitch": 66, "duration": 10, "velocity": 99}, {"time": 1591, "pitch": 54, "duration": 2, "velocity": 64}, {"time": 1594, "pitch": 59, "duration": 5, "velocity": 95}, {"time": 1600, "pitch": 40, "duration": 23, "velocity": 96}, {"time": 1600, "pitch": 59, "duration": 7, "velocity": 89}, {"time": 1600, "pitch": 64, "duration": 6, "velocity": 97}, {"time": 1600, "pitch": 68, "duration": 6, "velocity": 117}, {"time": 1606, "pitch": 47, "duration": 19, "velocity": 82}, {"time": 1609, "pitch": 52, "duration": 5, "velocity": 86}, {"time": 1612, "pitch": 59, "duration": 4, "velocity": 100}, {"time": 1612, "pitch": 64, "duration": 8, "velocity": 117}, {"time": 1612, "pitch": 68, "duration": 8, "velocity": 127}, {"time": 1615, "pitch": 52, "duration": 13, "velocity": 92}, {"time": 1618, "pitch": 59, "duration": 12, "velocity": 102}, {"time": 1621, "pitch": 64, "duration": 9, "velocity": 96}, {"time": 1621, "pitch": 68, "duration": 9, "velocity": 117}, {"time": 1624, "pitch": 40, "duration": 19, "velocity": 90}, {"time": 1627, "pitch": 47, "duration": 16, "velocity": 60}, {"time": 1630, "pitch": 52, "duration": 8, "velocity": 95}, {"time": 1633, "pitch": 59, "duration": 2, "velocity": 97}, {"time": 1633, "pitch": 64, "duration": 2, "velocity": 102}, {"time": 1633, "pitch": 68, "duration": 2, "velocity": 112}, {"time": 1636, "pitch": 59, "duration": 4, "velocity": 97}, {"time": 1636, "pitch": 64, "duration": 5, "velocity": 122}, {"time": 1636, "pitch": 68, "duration": 4, "velocity": 127}, {"time": 1639, "pitch": 52, "duration": 6, "velocity": 127}, {"time": 1642, "pitch": 59, "duration": 2, "velocity": 122}, {"time": 1642, "pitch": 64, "duration": 2, "velocity": 122}, {"time": 1642, "pitch": 68, "duration": 2, "velocity": 127}, {"time": 1645, "pitch": 59, "duration": 3, "velocity": 107}, {"time": 1645, "pitch": 64, "duration": 3, "velocity": 117}, {"time": 1645, "pitch": 68, "duration": 3, "velocity": 127}, {"time": 1648, "pitch": 45, "duration": 18, "velocity": 99}, {"time": 1651, "pitch": 52, "duration": 11, "velocity": 95}, {"time": 1654, "pitch": 57, "duration": 3, "velocity": 97}, {"time": 1657, "pitch": 61, "duration": 3, "velocity": 127}, {"time": 1660, "pitch": 64, "duration": 12, "velocity": 107}, {"time": 1663, "pitch": 52, "duration": 3, "velocity": 85}, {"time": 1666, "pitch": 61, "duration": 7, "velocity": 122}, {"time": 1669, "pitch": 57, "duration": 3, "velocity": 54}, {"time": 1672, "pitch": 45, "duration": 18, "velocity": 83}, {"time": 1675, "pitch": 52, "duration": 10, "velocity": 74}, {"time": 1678, "pitch": 57, "duration": 2, "velocity": 100}, {"time": 1681, "pitch": 61, "duration": 3, "velocity": 122}, {"time": 1684, "pitch": 64, "duration": 12, "velocity": 99}, {"time": 1687, "pitch": 52, "duration": 3, "velocity": 93}, {"time": 1690, "pitch": 61, "duration": 5, "velocity": 122}, {"time": 1693, "pitch": 57, "duration": 4, "velocity": 96}, {"time": 1696, "pitch": 42, "duration": 23, "velocity": 96}, {"time": 1699, "pitch": 49, "duration": 22, "velocity": 41}, {"time": 1702, "pitch": 54, "duration": 7, "velocity": 92}, {"time": 1705, "pitch": 57, "duration": 7, "velocity": 90}, {"time": 1708, "pitch": 66, "duration": 20, "velocity": 122}, {"time": 1711, "pitch": 54, "duration": 12, "velocity": 96}, {"time": 1714, "pitch": 61, "duration": 16, "velocity": 112}, {"time": 1717, "pitch": 57, "duration": 11, "velocity": 97}, {"time": 1720, "pitch": 42, "duration": 17, "velocity": 72}, {"time": 1723, "pitch": 49, "duration": 14, "velocity": 65}, {"time": 1726, "pitch": 54, "duration": 8, "velocity": 95}, {"time": 1729, "pitch": 57, "duration": 8, "velocity": 99}, {"time": 1732, "pitch": 66, "duration": 12, "velocity": 127}, {"time": 1735, "pitch": 54, "duration": 4, "velocity": 97}, {"time": 1738, "pitch": 61, "duration": 5, "velocity": 117}, {"time": 1741, "pitch": 57, "duration": 3, "velocity": 100}, {"time": 1744, "pitch": 47, "duration": 22, "velocity": 82}, {"time": 1747, "pitch": 54, "duration": 11, "velocity": 92}, {"time": 1750, "pitch": 59, "duration": 3, "velocity": 96}, {"time": 1753, "pitch": 62, "duration": 3, "velocity": 96}, {"time": 1756, "pitch": 66, "duration": 12, "velocity": 127}, {"time": 1759, "pitch": 54, "duration": 8, "velocity": 97}, {"time": 1762, "pitch": 62, "duration": 6, "velocity": 99}, {"time": 1765, "pitch": 59, "duration": 3, "velocity": 90}, {"time": 1768, "pitch": 47, "duration": 19, "velocity": 68}, {"time": 1771, "pitch": 54, "duration": 15, "velocity": 77}, {"time": 1774, "pitch": 59, "duration": 8, "velocity": 85}, {"time": 1777, "pitch": 62, "duration": 7, "velocity": 89}, {"time": 1780, "pitch": 71, "duration": 12, "velocity": 122}, {"time": 1783, "pitch": 59, "duration": 2, "velocity": 95}, {"time": 1786, "pitch": 66, "duration": 6, "velocity": 117}, {"time": 1789, "pitch": 62, "duration": 3, "velocity": 96}, {"time": 1792, "pitch": 40, "duration": 22, "velocity": 88}, {"time": 1795, "pitch": 47, "duration": 21, "velocity": 99}, {"time": 1798, "pitch": 52, "duration": 7, "velocity": 92}, {"time": 1801, "pitch": 56, "duration": 4, "velocity": 107}, {"time": 1804, "pitch": 59, "duration": 7, "velocity": 96}, {"time": 1807, "pitch": 52, "duration": 3, "velocity": 95}, {"time": 1810, "pitch": 56, "duration": 4, "velocity": 117}, {"time": 1813, "pitch": 59, "duration": 3, "velocity": 102}, {"time": 1816, "pitch": 40, "duration": 18, "velocity": 93}, {"time": 1819, "pitch": 47, "duration": 15, "velocity": 97}, {"time": 1822, "pitch": 52, "duration": 7, "velocity": 102}, {"time": 1825, "pitch": 64, "duration": 2, "velocity": 76}, {"time": 1825, "pitch": 68, "duration": 2, "velocity": 95}, {"time": 1825, "pitch": 71, "duration": 2, "velocity": 85}, {"time": 1828, "pitch": 68, "duration": 7, "velocity": 127}, {"time": 1828, "pitch": 71, "duration": 12, "velocity": 127}, {"time": 1831, "pitch": 52, "duration": 5, "velocity": 107}, {"time": 1834, "pitch": 64, "duration": 7, "velocity": 112}, {"time": 1837, "pitch": 68, "duration": 4, "velocity": 127}, {"time": 1840, "pitch": 45, "duration": 22, "velocity": 93}, {"time": 1843, "pitch": 52, "duration": 21, "velocity": 86}, {"time": 1846, "pitch": 57, "duration": 7, "velocity": 95}, {"time": 1849, "pitch": 61, "duration": 5, "velocity": 95}, {"time": 1852, "pitch": 69, "duration": 20, "velocity": 72}, {"time": 1855, "pitch": 57, "duration": 4, "velocity": 93}, {"time": 1858, "pitch": 61, "duration": 13, "velocity": 96}, {"time": 1861, "pitch": 64, "duration": 11, "velocity": 63}, {"time": 1864, "pitch": 45, "duration": 18, "velocity": 93}, {"time": 1867, "pitch": 52, "duration": 15, "velocity": 81}, {"time": 1870, "pitch": 57, "duration": 8, "velocity": 99}, {"time": 1873, "pitch": 61, "duration": 4, "velocity": 97}, {"time": 1876, "pitch": 69, "duration": 12, "velocity": 83}, {"time": 1879, "pitch": 57, "duration": 2, "velocity": 60}, {"time": 1879, "pitch": 61, "duration": 4, "velocity": 88}, {"time": 1882, "pitch": 64, "duration": 6, "velocity": 57}, {"time": 1885, "pitch": 61, "duration": 3, "velocity": 99}, {"time": 1888, "pitch": 42, "duration": 23, "velocity": 93}, {"time": 1891, "pitch": 49, "duration": 21, "velocity": 57}, {"time": 1894, "pitch": 54, "duration": 7, "velocity": 82}, {"time": 1897, "pitch": 57, "duration": 7, "velocity": 89}, {"time": 1900, "pitch": 66, "duration": 21, "velocity": 117}, {"time": 1903, "pitch": 54, "duration": 12, "velocity": 97}, {"time": 1906, "pitch": 61, "duration": 15, "velocity": 112}, {"time": 1909, "pitch": 57, "duration": 11, "velocity": 89}, {"time": 1912, "pitch": 42, "duration": 17, "velocity": 85}, {"time": 1915, "pitch": 49, "duration": 13, "velocity": 35}, {"time": 1918, "pitch": 54, "duration": 7, "velocity": 83}, {"time": 1921, "pitch": 57, "duration": 7, "velocity": 93}, {"time": 1924, "pitch": 66, "duration": 12, "velocity": 117}, {"time": 1927, "pitch": 54, "duration": 3, "velocity": 85}, {"time": 1930, "pitch": 61, "duration": 5, "velocity": 122}, {"time": 1933, "pitch": 57, "duration": 3, "velocity": 90}, {"time": 1936, "pitch": 47, "duration": 18, "velocity": 75}, {"time": 1939, "pitch": 54, "duration": 11, "velocity": 77}, {"time": 1942, "pitch": 59, "duration": 3, "velocity": 88}, {"time": 1945, "pitch": 62, "duration": 3, "velocity": 96}, {"time": 1948, "pitch": 66, "duration": 11, "velocity": 127}, {"time": 1951, "pitch": 54, "duration": 2, "velocity": 95}, {"time": 1954, "pitch": 62, "duration": 5, "velocity": 100}, {"time": 1957, "pitch": 59, "duration": 6, "velocity": 96}, {"time": 1960, "pitch": 40, "duration": 23, "velocity": 81}, {"time": 1963, "pitch": 47, "duration": 21, "velocity": 77}, {"time": 1966, "pitch": 52, "duration": 7, "velocity": 86}, {"time": 1969, "pitch": 59, "duration": 7, "velocity": 85}, {"time": 1972, "pitch": 68, "duration": 9, "velocity": 122}, {"time": 1975, "pitch": 52, "duration": 7, "velocity": 93}, {"time": 1978, "pitch": 59, "duration": 6, "velocity": 79}, {"time": 1981, "pitch": 64, "duration": 3, "velocity": 77}, {"time": 1984, "pitch": 40, "duration": 25, "velocity": 78}, {"time": 1984, "pitch": 52, "duration": 24, "velocity": 99}, {"time": 1984, "pitch": 59, "duration": 24, "velocity": 72}, {"time": 1984, "pitch": 64, "duration": 24, "velocity": 73}, {"time": 1984, "pitch": 68, "duration": 25, "velocity": 92}, {"time": 2008, "pitch": 45, "duration": 18, "velocity": 71}, {"time": 2011, "pitch": 52, "duration": 11, "velocity": 47}, {"time": 2014, "pitch": 57, "duration": 9, "velocity": 69}, {"time": 2020, "pitch": 64, "duration": 12, "velocity": 93}, {"time": 2023, "pitch": 52, "duration": 3, "velocity": 50}, {"time": 2026, "pitch": 61, "duration": 6, "velocity": 76}, {"time": 2032, "pitch": 44, "duration": 17, "velocity": 82}, {"time": 2038, "pitch": 56, "duration": 12, "velocity": 78}, {"time": 2044, "pitch": 64, "duration": 10, "velocity": 76}, {"time": 2050, "pitch": 61, "duration": 8, "velocity": 69}, {"time": 2056, "pitch": 42, "duration": 23, "velocity": 81}, {"time": 2062, "pitch": 49, "duration": 18, "velocity": 27}, {"time": 2065, "pitch": 54, "duration": 4, "velocity": 52}, {"time": 2068, "pitch": 66, "duration": 21, "velocity": 93}, {"time": 2071, "pitch": 54, "duration": 8, "velocity": 35}, {"time": 2074, "pitch": 61, "duration": 17, "velocity": 44}, {"time": 2077, "pitch": 57, "duration": 14, "velocity": 48}, {"time": 2080, "pitch": 42, "duration": 18, "velocity": 61}, {"time": 2086, "pitch": 49, "duration": 11, "velocity": 35}, {"time": 2092, "pitch": 61, "duration": 7, "velocity": 63}, {"time": 2092, "pitch": 66, "duration": 11, "velocity": 102}, {"time": 2095, "pitch": 54, "duration": 3, "velocity": 63}, {"time": 2098, "pitch": 57, "duration": 6, "velocity": 82}, {"time": 2101, "pitch": 61, "duration": 3, "velocity": 66}, {"time": 2104, "pitch": 45, "duration": 17, "velocity": 71}, {"time": 2110, "pitch": 52, "duration": 7, "velocity": 40}, {"time": 2113, "pitch": 57, "duration": 7, "velocity": 61}, {"time": 2116, "pitch": 64, "duration": 12, "velocity": 83}, {"time": 2119, "pitch": 52, "duration": 2, "velocity": 50}, {"time": 2122, "pitch": 61, "duration": 6, "velocity": 72}, {"time": 2128, "pitch": 44, "duration": 18, "velocity": 82}, {"time": 2134, "pitch": 56, "duration": 18, "velocity": 88}, {"time": 2140, "pitch": 64, "duration": 13, "velocity": 73}, {"time": 2146, "pitch": 61, "duration": 6, "velocity": 37}, {"time": 2152, "pitch": 37, "duration": 23, "velocity": 76}, {"time": 2158, "pitch": 49, "duration": 18, "velocity": 58}, {"time": 2164, "pitch": 61, "duration": 20, "velocity": 92}, {"time": 2170, "pitch": 56, "duration": 14, "velocity": 48}, {"time": 2173, "pitch": 52, "duration": 7, "velocity": 59}, {"time": 2176, "pitch": 37, "duration": 18, "velocity": 57}, {"time": 2179, "pitch": 44, "duration": 14, "velocity": 31}, {"time": 2182, "pitch": 49, "duration": 7, "velocity": 63}, {"time": 2185, "pitch": 52, "duration": 7, "velocity": 72}, {"time": 2188, "pitch": 61, "duration": 12, "velocity": 117}, {"time": 2191, "pitch": 49, "duration": 3, "velocity": 66}, {"time": 2194, "pitch": 56, "duration": 6, "velocity": 79}, {"time": 2197, "pitch": 52, "duration": 3, "velocity": 63}, {"time": 2200, "pitch": 38, "duration": 18, "velocity": 78}, {"time": 2203, "pitch": 45, "duration": 15, "velocity": 39}, {"time": 2206, "pitch": 50, "duration": 6, "velocity": 76}, {"time": 2209, "pitch": 57, "duration": 16, "velocity": 63}, {"time": 2212, "pitch": 66, "duration": 12, "velocity": 107}, {"time": 2218, "pitch": 62, "duration": 6, "velocity": 69}, {"time": 2224, "pitch": 40, "duration": 17, "velocity": 81}, {"time": 2230, "pitch": 47, "duration": 11, "velocity": 61}, {"time": 2236, "pitch": 52, "duration": 7, "velocity": 66}, {"time": 2236, "pitch": 64, "duration": 12, "velocity": 76}, {"time": 2239, "pitch": 56, "duration": 4, "velocity": 63}, {"time": 2242, "pitch": 59, "duration": 5, "velocity": 65}, {"time": 2245, "pitch": 56, "duration": 3, "velocity": 82}, {"time": 2248, "pitch": 45, "duration": 10, "velocity": 85}, {"time": 2251, "pitch": 57, "duration": 7, "velocity": 82}, {"time": 2254, "pitch": 64, "duration": 8, "velocity": 97}, {"time": 2257, "pitch": 61, "duration": 5, "velocity": 112}, {"time": 2260, "pitch": 44, "duration": 8, "velocity": 93}, {"time": 2263, "pitch": 56, "duration": 9, "velocity": 72}, {"time": 2266, "pitch": 64, "duration": 7, "velocity": 71}, {"time": 2269, "pitch": 61, "duration": 3, "velocity": 53}, {"time": 2272, "pitch": 42, "duration": 17, "velocity": 69}, {"time": 2275, "pitch": 49, "duration": 14, "velocity": 46}, {"time": 2278, "pitch": 54, "duration": 7, "velocity": 73}, {"time": 2281, "pitch": 57, "duration": 10, "velocity": 69}, {"time": 2284, "pitch": 66, "duration": 12, "velocity": 112}, {"time": 2287, "pitch": 54, "duration": 4, "velocity": 69}, {"time": 2290, "pitch": 61, "duration": 6, "velocity": 97}, {"time": 2293, "pitch": 57, "duration": 3, "velocity": 79}, {"time": 2296, "pitch": 47, "duration": 23, "velocity": 59}, {"time": 2299, "pitch": 54, "duration": 21, "velocity": 75}, {"time": 2302, "pitch": 59, "duration": 13, "velocity": 72}, {"time": 2308, "pitch": 66, "duration": 20, "velocity": 100}, {"time": 2314, "pitch": 62, "duration": 14, "velocity": 88}, {"time": 2317, "pitch": 59, "duration": 13, "velocity": 56}, {"time": 2320, "pitch": 47, "duration": 18, "velocity": 79}, {"time": 2326, "pitch": 54, "duration": 8, "velocity": 92}, {"time": 2332, "pitch": 66, "duration": 11, "velocity": 127}, {"time": 2335, "pitch": 54, "duration": 2, "velocity": 71}, {"time": 2338, "pitch": 62, "duration": 6, "velocity": 107}, {"time": 2341, "pitch": 59, "duration": 4, "velocity": 82}, {"time": 2344, "pitch": 40, "duration": 23, "velocity": 82}, {"time": 2350, "pitch": 47, "duration": 8, "velocity": 62}, {"time": 2353, "pitch": 52, "duration": 4, "velocity": 72}, {"time": 2356, "pitch": 59, "duration": 12, "velocity": 99}, {"time": 2359, "pitch": 47, "duration": 9, "velocity": 82}, {"time": 2362, "pitch": 56, "duration": 5, "velocity": 117}, {"time": 2365, "pitch": 52, "duration": 2, "velocity": 96}, {"time": 2368, "pitch": 40, "duration": 17, "velocity": 96}, {"time": 2368, "pitch": 52, "duration": 2, "velocity": 99}, {"time": 2368, "pitch": 56, "duration": 2, "velocity": 127}, {"time": 2368, "pitch": 59, "duration": 2, "velocity": 97}, {"time": 2371, "pitch": 47, "duration": 15, "velocity": 93}, {"time": 2374, "pitch": 52, "duration": 7, "velocity": 96}, {"time": 2377, "pitch": 64, "duration": 2, "velocity": 78}, {"time": 2377, "pitch": 68, "duration": 2, "velocity": 99}, {"time": 2377, "pitch": 71, "duration": 2, "velocity": 88}, {"time": 2380, "pitch": 64, "duration": 3, "velocity": 102}, {"time": 2380, "pitch": 68, "duration": 7, "velocity": 127}, {"time": 2380, "pitch": 71, "duration": 12, "velocity": 117}, {"time": 2383, "pitch": 52, "duration": 4, "velocity": 102}, {"time": 2386, "pitch": 64, "duration": 6, "velocity": 112}, {"time": 2389, "pitch": 68, "duration": 3, "velocity": 127}, {"time": 2392, "pitch": 45, "duration": 22, "velocity": 95}, {"time": 2395, "pitch": 52, "duration": 10, "velocity": 122}, {"time": 2398, "pitch": 57, "duration": 3, "velocity": 100}, {"time": 2401, "pitch": 61, "duration": 3, "velocity": 127}, {"time": 2404, "pitch": 64, "duration": 14, "velocity": 107}, {"time": 2407, "pitch": 52, "duration": 9, "velocity": 99}, {"time": 2410, "pitch": 61, "duration": 8, "velocity": 122}, {"time": 2413, "pitch": 57, "duration": 5, "velocity": 100}, {"time": 2416, "pitch": 45, "duration": 17, "velocity": 93}, {"time": 2419, "pitch": 52, "duration": 11, "velocity": 89}, {"time": 2422, "pitch": 57, "duration": 4, "velocity": 99}, {"time": 2425, "pitch": 69, "duration": 4, "velocity": 81}, {"time": 2428, "pitch": 73, "duration": 12, "velocity": 127}, {"time": 2431, "pitch": 52, "duration": 2, "velocity": 93}, {"time": 2434, "pitch": 69, "duration": 6, "velocity": 97}, {"time": 2437, "pitch": 44, "duration": 3, "velocity": 95}, {"time": 2440, "pitch": 42, "duration": 22, "velocity": 92}, {"time": 2443, "pitch": 49, "duration": 21, "velocity": 39}, {"time": 2446, "pitch": 54, "duration": 6, "velocity": 96}, {"time": 2449, "pitch": 57, "duration": 6, "velocity": 90}, {"time": 2452, "pitch": 66, "duration": 21, "velocity": 117}, {"time": 2455, "pitch": 54, "duration": 13, "velocity": 96}, {"time": 2458, "pitch": 61, "duration": 14, "velocity": 102}, {"time": 2461, "pitch": 57, "duration": 10, "velocity": 85}, {"time": 2464, "pitch": 42, "duration": 18, "velocity": 85}, {"time": 2467, "pitch": 49, "duration": 15, "velocity": 79}, {"time": 2470, "pitch": 54, "duration": 7, "velocity": 95}, {"time": 2473, "pitch": 57, "duration": 9, "velocity": 96}, {"time": 2476, "pitch": 66, "duration": 13, "velocity": 117}, {"time": 2479, "pitch": 54, "duration": 5, "velocity": 97}, {"time": 2482, "pitch": 61, "duration": 5, "velocity": 117}, {"time": 2485, "pitch": 64, "duration": 4, "velocity": 77}, {"time": 2488, "pitch": 47, "duration": 23, "velocity": 77}, {"time": 2491, "pitch": 54, "duration": 10, "velocity": 95}, {"time": 2494, "pitch": 59, "duration": 8, "velocity": 76}, {"time": 2497, "pitch": 61, "duration": 3, "velocity": 93}, {"time": 2500, "pitch": 66, "duration": 13, "velocity": 122}, {"time": 2503, "pitch": 54, "duration": 10, "velocity": 96}, {"time": 2506, "pitch": 62, "duration": 6, "velocity": 100}, {"time": 2509, "pitch": 59, "duration": 4, "velocity": 73}, {"time": 2512, "pitch": 47, "duration": 18, "velocity": 83}, {"time": 2515, "pitch": 54, "duration": 10, "velocity": 85}, {"time": 2518, "pitch": 59, "duration": 8, "velocity": 73}, {"time": 2521, "pitch": 62, "duration": 3, "velocity": 90}, {"time": 2524, "pitch": 66, "duration": 12, "velocity": 127}, {"time": 2527, "pitch": 54, "duration": 2, "velocity": 95}, {"time": 2530, "pitch": 62, "duration": 6, "velocity": 117}, {"time": 2533, "pitch": 59, "duration": 3, "velocity": 117}, {"time": 2536, "pitch": 40, "duration": 22, "velocity": 93}, {"time": 2539, "pitch": 47, "duration": 21, "velocity": 100}, {"time": 2542, "pitch": 52, "duration": 17, "velocity": 112}, {"time": 2545, "pitch": 56, "duration": 4, "velocity": 127}, {"time": 2548, "pitch": 59, "duration": 1, "velocity": 99}, {"time": 2551, "pitch": 64, "duration": 10, "velocity": 83}, {"time": 2554, "pitch": 68, "duration": 7, "velocity": 117}, {"time": 2557, "pitch": 71, "duration": 4, "velocity": 95}, {"time": 2560, "pitch": 40, "duration": 19, "velocity": 88}, {"time": 2563, "pitch": 47, "duration": 16, "velocity": 92}, {"time": 2566, "pitch": 52, "duration": 7, "velocity": 93}, {"time": 2569, "pitch": 71, "duration": 3, "velocity": 81}, {"time": 2569, "pitch": 76, "duration": 2, "velocity": 96}, {"time": 2569, "pitch": 80, "duration": 2, "velocity": 100}, {"time": 2572, "pitch": 71, "duration": 1, "velocity": 58}, {"time": 2572, "pitch": 76, "duration": 5, "velocity": 100}, {"time": 2572, "pitch": 80, "duration": 12, "velocity": 127}, {"time": 2575, "pitch": 52, "duration": 7, "velocity": 93}, {"time": 2578, "pitch": 71, "duration": 6, "velocity": 107}, {"time": 2581, "pitch": 76, "duration": 3, "velocity": 102}, {"time": 2584, "pitch": 45, "duration": 21, "velocity": 89}, {"time": 2587, "pitch": 52, "duration": 10, "velocity": 71}, {"time": 2590, "pitch": 57, "duration": 4, "velocity": 85}, {"time": 2593, "pitch": 61, "duration": 4, "velocity": 102}, {"time": 2596, "pitch": 64, "duration": 13, "velocity": 95}, {"time": 2599, "pitch": 52, "duration": 8, "velocity": 93}, {"time": 2602, "pitch": 61, "duration": 7, "velocity": 97}, {"time": 2605, "pitch": 57, "duration": 4, "velocity": 88}, {"time": 2608, "pitch": 45, "duration": 18, "velocity": 89}, {"time": 2611, "pitch": 52, "duration": 15, "velocity": 82}, {"time": 2614, "pitch": 57, "duration": 7, "velocity": 96}, {"time": 2617, "pitch": 64, "duration": 4, "velocity": 92}, {"time": 2620, "pitch": 69, "duration": 7, "velocity": 79}, {"time": 2620, "pitch": 73, "duration": 12, "velocity": 117}, {"time": 2623, "pitch": 57, "duration": 2, "velocity": 100}, {"time": 2626, "pitch": 64, "duration": 7, "velocity": 97}, {"time": 2629, "pitch": 69, "duration": 3, "velocity": 85}, {"time": 2632, "pitch": 42, "duration": 22, "velocity": 81}, {"time": 2635, "pitch": 49, "duration": 20, "velocity": 32}, {"time": 2638, "pitch": 54, "duration": 7, "velocity": 83}, {"time": 2641, "pitch": 57, "duration": 7, "velocity": 93}, {"time": 2644, "pitch": 66, "duration": 19, "velocity": 122}, {"time": 2647, "pitch": 54, "duration": 10, "velocity": 89}, {"time": 2650, "pitch": 61, "duration": 14, "velocity": 117}, {"time": 2653, "pitch": 57, "duration": 11, "velocity": 95}, {"time": 2656, "pitch": 42, "duration": 17, "velocity": 76}, {"time": 2659, "pitch": 49, "duration": 14, "velocity": 35}, {"time": 2662, "pitch": 54, "duration": 7, "velocity": 85}, {"time": 2665, "pitch": 57, "duration": 4, "velocity": 92}, {"time": 2668, "pitch": 61, "duration": 7, "velocity": 112}, {"time": 2668, "pitch": 66, "duration": 12, "velocity": 122}, {"time": 2671, "pitch": 54, "duration": 3, "velocity": 89}, {"time": 2674, "pitch": 57, "duration": 5, "velocity": 96}, {"time": 2677, "pitch": 61, "duration": 3, "velocity": 102}, {"time": 2680, "pitch": 47, "duration": 17, "velocity": 79}, {"time": 2683, "pitch": 54, "duration": 11, "velocity": 77}, {"time": 2686, "pitch": 59, "duration": 3, "velocity": 78}, {"time": 2689, "pitch": 62, "duration": 3, "velocity": 89}, {"time": 2692, "pitch": 66, "duration": 9, "velocity": 127}, {"time": 2695, "pitch": 54, "duration": 2, "velocity": 77}, {"time": 2698, "pitch": 62, "duration": 5, "velocity": 99}, {"time": 2701, "pitch": 59, "duration": 6, "velocity": 97}, {"time": 2704, "pitch": 40, "duration": 18, "velocity": 81}, {"time": 2707, "pitch": 47, "duration": 15, "velocity": 73}, {"time": 2710, "pitch": 52, "duration": 7, "velocity": 78}, {"time": 2713, "pitch": 59, "duration": 10, "velocity": 79}, {"time": 2716, "pitch": 68, "duration": 12, "velocity": 117}, {"time": 2719, "pitch": 52, "duration": 2, "velocity": 82}, {"time": 2722, "pitch": 64, "duration": 6, "velocity": 95}, {"time": 2728, "pitch": 45, "duration": 17, "velocity": 79}, {"time": 2731, "pitch": 52, "duration": 9, "velocity": 70}, {"time": 2734, "pitch": 57, "duration": 7, "velocity": 81}, {"time": 2737, "pitch": 61, "duration": 3, "velocity": 100}, {"time": 2740, "pitch": 64, "duration": 10, "velocity": 99}, {"time": 2743, "pitch": 52, "duration": 1, "velocity": 73}, {"time": 2746, "pitch": 61, "duration": 4, "velocity": 100}, {"time": 2749, "pitch": 59, "duration": 2, "velocity": 82}, {"time": 2752, "pitch": 40, "duration": 2, "velocity": 67}, {"time": 2752, "pitch": 47, "duration": 2, "velocity": 90}, {"time": 2752, "pitch": 52, "duration": 2, "velocity": 95}, {"time": 2752, "pitch": 59, "duration": 2, "velocity": 67}, {"time": 2752, "pitch": 64, "duration": 2, "velocity": 93}, {"time": 2752, "pitch": 68, "duration": 2, "velocity": 99}, {"time": 2755, "pitch": 40, "duration": 3, "velocity": 71}, {"time": 2755, "pitch": 47, "duration": 2, "velocity": 77}, {"time": 2755, "pitch": 52, "duration": 2, "velocity": 95}, {"time": 2755, "pitch": 59, "duration": 2, "velocity": 100}, {"time": 2755, "pitch": 64, "duration": 2, "velocity": 97}, {"time": 2755, "pitch": 68, "duration": 2, "velocity": 100}, {"time": 2758, "pitch": 59, "duration": 2, "velocity": 89}, {"time": 2758, "pitch": 64, "duration": 2, "velocity": 100}, {"time": 2758, "pitch": 68, "duration": 2, "velocity": 100}, {"time": 2761, "pitch": 40, "duration": 2, "velocity": 45}, {"time": 2761, "pitch": 47, "duration": 2, "velocity": 56}, {"time": 2761, "pitch": 52, "duration": 2, "velocity": 68}, {"time": 2761, "pitch": 59, "duration": 2, "velocity": 69}, {"time": 2761, "pitch": 64, "duration": 2, "velocity": 72}, {"time": 2761, "pitch": 68, "duration": 2, "velocity": 50}, {"time": 2764, "pitch": 40, "duration": 2, "velocity": 72}, {"time": 2764, "pitch": 47, "duration": 2, "velocity": 93}, {"time": 2764, "pitch": 52, "duration": 2, "velocity": 99}, {"time": 2764, "pitch": 59, "duration": 2, "velocity": 89}, {"time": 2764, "pitch": 64, "duration": 2, "velocity": 100}, {"time": 2764, "pitch": 68, "duration": 2, "velocity": 99}, {"time": 2767, "pitch": 40, "duration": 1, "velocity": 60}, {"time": 2767, "pitch": 47, "duration": 2, "velocity": 89}, {"time": 2767, "pitch": 52, "duration": 2, "velocity": 85}, {"time": 2767, "pitch": 59, "duration": 2, "velocity": 85}, {"time": 2767, "pitch": 64, "duration": 2, "velocity": 90}, {"time": 2767, "pitch": 68, "duration": 2, "velocity": 79}, {"time": 2770, "pitch": 40, "duration": 1, "velocity": 69}, {"time": 2770, "pitch": 47, "duration": 2, "velocity": 92}, {"time": 2770, "pitch": 52, "duration": 2, "velocity": 88}, {"time": 2770, "pitch": 59, "duration": 2, "velocity": 83}, {"time": 2770, "pitch": 64, "duration": 2, "velocity": 100}, {"time": 2770, "pitch": 68, "duration": 2, "velocity": 95}, {"time": 2773, "pitch": 40, "duration": 3, "velocity": 77}, {"time": 2773, "pitch": 47, "duration": 3, "velocity": 96}, {"time": 2773, "pitch": 52, "duration": 3, "velocity": 100}, {"time": 2773, "pitch": 59, "duration": 2, "velocity": 82}, {"time": 2773, "pitch": 64, "duration": 2, "velocity": 100}, {"time": 2773, "pitch": 68, "duration": 3, "velocity": 107}, {"time": 2776, "pitch": 45, "duration": 2, "velocity": 86}, {"time": 2776, "pitch": 52, "duration": 2, "velocity": 107}, {"time": 2776, "pitch": 57, "duration": 2, "velocity": 100}, {"time": 2776, "pitch": 61, "duration": 3, "velocity": 127}, {"time": 2776, "pitch": 64, "duration": 3, "velocity": 100}, {"time": 2779, "pitch": 45, "duration": 3, "velocity": 77}, {"time": 2779, "pitch": 52, "duration": 3, "velocity": 90}, {"time": 2779, "pitch": 57, "duration": 2, "velocity": 99}, {"time": 2779, "pitch": 61, "duration": 2, "velocity": 117}, {"time": 2779, "pitch": 64, "duration": 3, "velocity": 93}, {"time": 2800, "pitch": 45, "duration": 2, "velocity": 79}, {"time": 2800, "pitch": 52, "duration": 2, "velocity": 97}, {"time": 2800, "pitch": 57, "duration": 2, "velocity": 89}, {"time": 2800, "pitch": 61, "duration": 2, "velocity": 97}, {"time": 2800, "pitch": 64, "duration": 2, "velocity": 83}, {"time": 2803, "pitch": 45, "duration": 3, "velocity": 73}, {"time": 2803, "pitch": 52, "duration": 3, "velocity": 96}, {"time": 2803, "pitch": 57, "duration": 3, "velocity": 90}, {"time": 2803, "pitch": 61, "duration": 3, "velocity": 95}, {"time": 2803, "pitch": 64, "duration": 3, "velocity": 86}, {"time": 2812, "pitch": 45, "duration": 4, "velocity": 127}, {"time": 2812, "pitch": 57, "duration": 4, "velocity": 127}, {"time": 2816, "pitch": 44, "duration": 3, "velocity": 122}, {"time": 2816, "pitch": 56, "duration": 3, "velocity": 127}, {"time": 2820, "pitch": 40, "duration": 3, "velocity": 96}, {"time": 2820, "pitch": 52, "duration": 3, "velocity": 100}, {"time": 2824, "pitch": 42, "duration": 23, "velocity": 88}, {"time": 2827, "pitch": 49, "duration": 21, "velocity": 56}, {"time": 2830, "pitch": 54, "duration": 7, "velocity": 97}, {"time": 2833, "pitch": 57, "duration": 6, "velocity": 92}, {"time": 2836, "pitch": 66, "duration": 20, "velocity": 127}, {"time": 2839, "pitch": 54, "duration": 11, "velocity": 97}, {"time": 2842, "pitch": 61, "duration": 14, "velocity": 107}, {"time": 2845, "pitch": 57, "duration": 10, "velocity": 95}, {"time": 2848, "pitch": 42, "duration": 18, "velocity": 89}, {"time": 2851, "pitch": 49, "duration": 15, "velocity": 64}, {"time": 2854, "pitch": 54, "duration": 7, "velocity": 99}, {"time": 2857, "pitch": 57, "duration": 7, "velocity": 97}, {"time": 2860, "pitch": 66, "duration": 12, "velocity": 122}, {"time": 2863, "pitch": 54, "duration": 4, "velocity": 107}, {"time": 2866, "pitch": 57, "duration": 4, "velocity": 97}, {"time": 2869, "pitch": 61, "duration": 3, "velocity": 122}, {"time": 2872, "pitch": 47, "duration": 22, "velocity": 86}, {"time": 2875, "pitch": 54, "duration": 11, "velocity": 92}, {"time": 2878, "pitch": 59, "duration": 3, "velocity": 97}, {"time": 2881, "pitch": 62, "duration": 3, "velocity": 99}, {"time": 2884, "pitch": 66, "duration": 12, "velocity": 127}, {"time": 2887, "pitch": 54, "duration": 9, "velocity": 97}, {"time": 2890, "pitch": 62, "duration": 7, "velocity": 112}, {"time": 2893, "pitch": 59, "duration": 4, "velocity": 100}, {"time": 2896, "pitch": 47, "duration": 18, "velocity": 81}, {"time": 2899, "pitch": 54, "duration": 10, "velocity": 100}, {"time": 2902, "pitch": 59, "duration": 8, "velocity": 89}, {"time": 2905, "pitch": 62, "duration": 3, "velocity": 97}, {"time": 2908, "pitch": 66, "duration": 9, "velocity": 127}, {"time": 2911, "pitch": 54, "duration": 2, "velocity": 95}, {"time": 2914, "pitch": 62, "duration": 6, "velocity": 117}, {"time": 2917, "pitch": 59, "duration": 4, "velocity": 99}, {"time": 2920, "pitch": 40, "duration": 23, "velocity": 93}, {"time": 2923, "pitch": 47, "duration": 22, "velocity": 97}, {"time": 2926, "pitch": 52, "duration": 7, "velocity": 93}, {"time": 2929, "pitch": 56, "duration": 3, "velocity": 82}, {"time": 2932, "pitch": 56, "duration": 2, "velocity": 68}, {"time": 2932, "pitch": 59, "duration": 5, "velocity": 89}, {"time": 2932, "pitch": 64, "duration": 8, "velocity": 95}, {"time": 2935, "pitch": 52, "duration": 4, "velocity": 78}, {"time": 2938, "pitch": 56, "duration": 7, "velocity": 100}, {"time": 2941, "pitch": 59, "duration": 4, "velocity": 71}, {"time": 2941, "pitch": 64, "duration": 5, "velocity": 78}, {"time": 2944, "pitch": 40, "duration": 24, "velocity": 86}, {"time": 2947, "pitch": 47, "duration": 21, "velocity": 85}, {"time": 2950, "pitch": 52, "duration": 7, "velocity": 102}, {"time": 2953, "pitch": 56, "duration": 2, "velocity": 93}, {"time": 2953, "pitch": 59, "duration": 2, "velocity": 83}, {"time": 2953, "pitch": 64, "duration": 2, "velocity": 85}, {"time": 2956, "pitch": 56, "duration": 3, "velocity": 127}, {"time": 2956, "pitch": 59, "duration": 4, "velocity": 99}, {"time": 2956, "pitch": 64, "duration": 4, "velocity": 99}, {"time": 2959, "pitch": 52, "duration": 3, "velocity": 112}, {"time": 2962, "pitch": 56, "duration": 2, "velocity": 99}, {"time": 2962, "pitch": 59, "duration": 2, "velocity": 95}, {"time": 2962, "pitch": 64, "duration": 2, "velocity": 93}, {"time": 2965, "pitch": 56, "duration": 3, "velocity": 102}, {"time": 2965, "pitch": 59, "duration": 3, "velocity": 95}, {"time": 2965, "pitch": 64, "duration": 3, "velocity": 95}, {"time": 2968, "pitch": 45, "duration": 22, "velocity": 99}, {"time": 2971, "pitch": 52, "duration": 10, "velocity": 95}, {"time": 2974, "pitch": 57, "duration": 3, "velocity": 93}, {"time": 2977, "pitch": 61, "duration": 3, "velocity": 127}, {"time": 2980, "pitch": 64, "duration": 13, "velocity": 127}, {"time": 2983, "pitch": 52, "duration": 9, "velocity": 99}, {"time": 2986, "pitch": 61, "duration": 7, "velocity": 122}, {"time": 2989, "pitch": 57, "duration": 4, "velocity": 97}, {"time": 2992, "pitch": 45, "duration": 17, "velocity": 89}, {"time": 2995, "pitch": 52, "duration": 14, "velocity": 89}, {"time": 2998, "pitch": 57, "duration": 7, "velocity": 102}, {"time": 3001, "pitch": 64, "duration": 6, "velocity": 97}, {"time": 3004, "pitch": 73, "duration": 12, "velocity": 127}, {"time": 3007, "pitch": 57, "duration": 2, "velocity": 100}, {"time": 3010, "pitch": 64, "duration": 6, "velocity": 112}, {"time": 3013, "pitch": 44, "duration": 3, "velocity": 97}, {"time": 3016, "pitch": 42, "duration": 23, "velocity": 90}, {"time": 3019, "pitch": 49, "duration": 21, "velocity": 46}, {"time": 3022, "pitch": 54, "duration": 7, "velocity": 97}, {"time": 3025, "pitch": 57, "duration": 7, "velocity": 86}, {"time": 3028, "pitch": 66, "duration": 19, "velocity": 127}, {"time": 3031, "pitch": 54, "duration": 11, "velocity": 96}, {"time": 3034, "pitch": 61, "duration": 9, "velocity": 107}, {"time": 3037, "pitch": 57, "duration": 10, "velocity": 107}, {"time": 3040, "pitch": 42, "duration": 16, "velocity": 82}, {"time": 3043, "pitch": 49, "duration": 13, "velocity": 79}, {"time": 3046, "pitch": 54, "duration": 7, "velocity": 102}, {"time": 3049, "pitch": 57, "duration": 6, "velocity": 97}, {"time": 3052, "pitch": 66, "duration": 13, "velocity": 127}, {"time": 3055, "pitch": 54, "duration": 4, "velocity": 99}, {"time": 3058, "pitch": 57, "duration": 6, "velocity": 93}, {"time": 3061, "pitch": 61, "duration": 3, "velocity": 122}, {"time": 3064, "pitch": 47, "duration": 23, "velocity": 75}, {"time": 3067, "pitch": 54, "duration": 11, "velocity": 81}, {"time": 3070, "pitch": 59, "duration": 4, "velocity": 82}, {"time": 3073, "pitch": 62, "duration": 3, "velocity": 99}, {"time": 3076, "pitch": 66, "duration": 12, "velocity": 117}, {"time": 3079, "pitch": 54, "duration": 9, "velocity": 86}, {"time": 3082, "pitch": 62, "duration": 6, "velocity": 96}, {"time": 3085, "pitch": 59, "duration": 3, "velocity": 97}, {"time": 3088, "pitch": 40, "duration": 11, "velocity": 85}, {"time": 3091, "pitch": 47, "duration": 8, "velocity": 93}, {"time": 3094, "pitch": 52, "duration": 5, "velocity": 99}, {"time": 3097, "pitch": 59, "duration": 3, "velocity": 74}, {"time": 3100, "pitch": 40, "duration": 8, "velocity": 56}, {"time": 3100, "pitch": 47, "duration": 8, "velocity": 71}, {"time": 3100, "pitch": 52, "duration": 11, "velocity": 90}, {"time": 3100, "pitch": 59, "duration": 12, "velocity": 69}, {"time": 3100, "pitch": 64, "duration": 12, "velocity": 96}, {"time": 3100, "pitch": 68, "duration": 13, "velocity": 112}, {"time": 3112, "pitch": 45, "duration": 22, "velocity": 83}, {"time": 3115, "pitch": 52, "duration": 12, "velocity": 54}, {"time": 3118, "pitch": 57, "duration": 10, "velocity": 79}, {"time": 3121, "pitch": 59, "duration": 5, "velocity": 48}, {"time": 3124, "pitch": 64, "duration": 36, "velocity": 85}, {"time": 3127, "pitch": 52, "duration": 32, "velocity": 54}, {"time": 3130, "pitch": 61, "duration": 30, "velocity": 72}, {"time": 3136, "pitch": 45, "duration": 23, "velocity": 57}, {"time": 3136, "pitch": 57, "duration": 24, "velocity": 48}, {"time": 3161, "pitch": 45, "duration": 25, "velocity": 72}, {"time": 3167, "pitch": 52, "duration": 20, "velocity": 51}, {"time": 3174, "pitch": 64, "duration": 23, "velocity": 77}, {"time": 3180, "pitch": 61, "duration": 17, "velocity": 42}, {"time": 3187, "pitch": 45, "duration": 16, "velocity": 52}, {"time": 3192, "pitch": 52, "duration": 8, "velocity": 45}, {"time": 3198, "pitch": 64, "duration": 14, "velocity": 75}, {"time": 3204, "pitch": 61, "duration": 7, "velocity": 43}, {"time": 3210, "pitch": 42, "duration": 43, "velocity": 60}, {"time": 3216, "pitch": 49, "duration": 37, "velocity": 36}, {"time": 3221, "pitch": 54, "duration": 34, "velocity": 50}, {"time": 3221, "pitch": 66, "duration": 36, "velocity": 63}, {"time": 3227, "pitch": 57, "duration": 30, "velocity": 44}, {"time": 3233, "pitch": 61, "duration": 24, "velocity": 46}, {"time": 3261, "pitch": 47, "duration": 21, "velocity": 67}, {"time": 3267, "pitch": 54, "duration": 14, "velocity": 57}, {"time": 3272, "pitch": 62, "duration": 17, "velocity": 64}, {"time": 3272, "pitch": 66, "duration": 15, "velocity": 59}, {"time": 3279, "pitch": 59, "duration": 9, "velocity": 54}, {"time": 3288, "pitch": 40, "duration": 53, "velocity": 67}, {"time": 3295, "pitch": 47, "duration": 40, "velocity": 49}, {"time": 3301, "pitch": 52, "duration": 33, "velocity": 54}, {"time": 3308, "pitch": 59, "duration": 33, "velocity": 40}, {"time": 3313, "pitch": 68, "duration": 28, "velocity": 46}, {"time": 3313, "pitch": 64, "duration": 28, "velocity": 37}, {"time": 3360, "pitch": 66, "duration": 12, "velocity": 54}, {"time": 3360, "pitch": 69, "duration": 13, "velocity": 33}, {"time": 3361, "pitch": 62, "duration": 12, "velocity": 50}, {"time": 3362, "pitch": 57, "duration": 10, "velocity": 50}, {"time": 3363, "pitch": 38, "duration": 16, "velocity": 67}, {"time": 3369, "pitch": 45, "duration": 11, "velocity": 36}, {"time": 3374, "pitch": 66, "duration": 15, "velocity": 81}, {"time": 3375, "pitch": 50, "duration": 3, "velocity": 44}, {"time": 3375, "pitch": 57, "duration": 1, "velocity": 27}, {"time": 3381, "pitch": 57, "duration": 7, "velocity": 70}, {"time": 3381, "pitch": 69, "duration": 6, "velocity": 1}, {"time": 3386, "pitch": 37, "duration": 15, "velocity": 82}, {"time": 3392, "pitch": 44, "duration": 9, "velocity": 38}, {"time": 3398, "pitch": 49, "duration": 5, "velocity": 56}, {"time": 3398, "pitch": 68, "duration": 13, "velocity": 70}, {"time": 3398, "pitch": 64, "duration": 12, "velocity": 59}, {"time": 3404, "pitch": 61, "duration": 8, "velocity": 53}, {"time": 3411, "pitch": 47, "duration": 30, "velocity": 67}, {"time": 3418, "pitch": 54, "duration": 21, "velocity": 44}, {"time": 3425, "pitch": 66, "duration": 17, "velocity": 54}, {"time": 3426, "pitch": 62, "duration": 16, "velocity": 61}, {"time": 3426, "pitch": 59, "duration": 1, "velocity": 35}, {"time": 3434, "pitch": 59, "duration": 9, "velocity": 58}, {"time": 3456, "pitch": 64, "duration": 7, "velocity": 65}, {"time": 3457, "pitch": 61, "duration": 6, "velocity": 53}, {"time": 3458, "pitch": 59, "duration": 5, "velocity": 55}, {"time": 3458, "pitch": 57, "duration": 5, "velocity": 58}, {"time": 3459, "pitch": 33, "duration": 63, "velocity": 64}, {"time": 3464, "pitch": 40, "duration": 56, "velocity": 49}, {"time": 3467, "pitch": 45, "duration": 53, "velocity": 50}, {"time": 3469, "pitch": 49, "duration": 4, "velocity": 57}, {"time": 3472, "pitch": 52, "duration": 2, "velocity": 57}, {"time": 3477, "pitch": 61, "duration": 4, "velocity": 51}, {"time": 3481, "pitch": 64, "duration": 1, "velocity": 36}, {"time": 3484, "pitch": 69, "duration": 6, "velocity": 33}, {"time": 3488, "pitch": 73, "duration": 4, "velocity": 61}, {"time": 3491, "pitch": 76, "duration": 1, "velocity": 66}, {"time": 3496, "pitch": 81, "duration": 7, "velocity": 26}, {"time": 3500, "pitch": 85, "duration": 4, "velocity": 49}, {"time": 3507, "pitch": 81, "duration": 15, "velocity": 39}, {"time": 3507, "pitch": 85, "duration": 15, "velocity": 48}, {"time": 3509, "pitch": 88, "duration": 12, "velocity": 32}, {"time": 3510, "pitch": 93, "duration": 12, "velocity": 40}], "annotations": [{"time": 46, "annotation": {"number": 64, "value": 127}, "group": "control_change"}, {"time": 87, "annotation": {"number": 64, "value": 0}, "group": "control_change"}, {"time": 89, "annotation": {"number": 64, "value": 127}, "group": "control_change"}, {"time": 134, "annotation": {"number": 64, "value": 0}, "group": "control_change"}, {"time": 137, "annotation": {"number": 64, "value": 127}, "group": "control_change"}, {"time": 181, "annotation": {"number": 64, "value": 0}, "group": "control_change"}, {"time": 184, "annotation": {"number": 64, "value": 127}, "group": "control_change"}, {"time": 207, "annotation": {"number": 64, "value": 0}, "group": "control_change"}, {"time": 208, "annotation": {"number": 64, "value": 127}, "group": "control_change"}, {"time": 229, "annotation": {"number": 64, "value": 0}, "group": "control_change"}, {"time": 232, "annotation": {"number": 64, "value": 127}, "group": "control_change"}, {"time": 269, "annotation": {"number": 64, "value": 0}, "group": "control_change"}, {"time": 269, "annotation": {"number": 64, "value": 127}, "group": "control_change"}, {"time": 279, "annotation": {"number": 64, "value": 0}, "group": "control_change"}, {"time": 280, "annotation": {"number": 64, "value": 127}, "group": "control_change"}, {"time": 301, "annotation": {"number": 64, "value": 0}, "group": "control_change"}, {"time": 304, "annotation": {"number": 64, "value": 127}, "group": "control_change"}, {"time": 325, "annotation": {"number": 64, "value": 0}, "group": "control_change"}, {"time": 328, "annotation": {"number": 64, "value": 127}, "group": "control_change"}, {"time": 348, "annotation": {"number": 64, "value": 0}, "group": "control_change"}, {"time": 352, "annotation": {"number": 64, "value": 127}, "group": "control_change"}, {"time": 373, "annotation": {"number": 64, "value": 0}, "group": "control_change"}, {"time": 376, "annotation": {"number": 64, "value": 127}, "group": "control_change"}, {"time": 397, "annotation": {"number": 64, "value": 0}, "group": "control_change"}, {"time": 400, "annotation": {"number": 64, "value": 127}, "group": "control_change"}, {"time": 418, "annotation": {"number": 64, "value": 0}, "group": "control_change"}, {"time": 424, "annotation": {"number": 64, "value": 127}, "group": "control_change"}, {"time": 446, "annotation": {"number": 64, "value": 0}, "group": "control_change"}, {"time": 448, "annotation": {"number": 64, "value": 127}, "group": "control_change"}, {"time": 470, "annotation": {"number": 64, "value": 0}, "group": "control_change"}, {"time": 472, "annotation": {"number": 64, "value": 127}, "group": "control_change"}, {"time": 494, "annotation": {"number": 64, "value": 0}, "group": "control_change"}, {"time": 496, "annotation": {"number": 64, "value": 127}, "group": "control_change"}, {"time": 518, "annotation": {"number": 64, "value": 0}, "group": "control_change"}, {"time": 520, "annotation": {"number": 64, "value": 127}, "group": "control_change"}, {"time": 541, "annotation": {"number": 64, "value": 0}, "group": "control_change"}, {"time": 544, "annotation": {"number": 64, "value": 127}, "group": "control_change"}, {"time": 565, "annotation": {"number": 64, "value": 0}, "group": "control_change"}, {"time": 567, "annotation": {"number": 64, "value": 127}, "group": "control_change"}, {"time": 590, "annotation": {"number": 64, "value": 0}, "group": "control_change"}, {"time": 592, "annotation": {"number": 64, "value": 127}, "group": "control_change"}, {"time": 613, "annotation": {"number": 64, "value": 0}, "group": "control_change"}, {"time": 616, "annotation": {"number": 64, "value": 127}, "group": "control_change"}, {"time": 637, "annotation": {"number": 64, "value": 0}, "group": "control_change"}, {"time": 640, "annotation": {"number": 64, "value": 127}, "group": "control_change"}, {"time": 662, "annotation": {"number": 64, "value": 0}, "group": "control_change"}, {"time": 664, "annotation": {"number": 64, "value": 127}, "group": "control_change"}, {"time": 674, "annotation": {"number": 64, "value": 0}, "group": "control_change"}, {"time": 676, "annotation": {"number": 64, "value": 127}, "group": "control_change"}, {"time": 686, "annotation": {"number": 64, "value": 0}, "group": "control_change"}, {"time": 688, "annotation": {"number": 64, "value": 127}, "group": "control_change"}, {"time": 709, "annotation": {"number": 64, "value": 0}, "group": "control_change"}, {"time": 712, "annotation": {"number": 64, "value": 127}, "group": "control_change"}, {"time": 733, "annotation": {"number": 64, "value": 0}, "group": "control_change"}, {"time": 736, "annotation": {"number": 64, "value": 127}, "group": "control_change"}, {"time": 757, "annotation": {"number": 64, "value": 0}, "group": "control_change"}, {"time": 760, "annotation": {"number": 64, "value": 127}, "group": "control_change"}, {"time": 781, "annotation": {"number": 64, "value": 0}, "group": "control_change"}, {"time": 785, "annotation": {"number": 64, "value": 127}, "group": "control_change"}, {"time": 795, "annotation": {"number": 64, "value": 0}, "group": "control_change"}, {"time": 796, "annotation": {"number": 64, "value": 127}, "group": "control_change"}, {"time": 805, "annotation": {"number": 64, "value": 0}, "group": "control_change"}, {"time": 808, "annotation": {"number": 64, "value": 127}, "group": "control_change"}, {"time": 830, "annotation": {"number": 64, "value": 0}, "group": "control_change"}, {"time": 832, "annotation": {"number": 64, "value": 127}, "group": "control_change"}, {"time": 854, "annotation": {"number": 64, "value": 0}, "group": "control_change"}, {"time": 856, "annotation": {"number": 64, "value": 127}, "group": "control_change"}, {"time": 878, "annotation": {"number": 64, "value": 0}, "group": "control_change"}, {"time": 880, "annotation": {"number": 64, "value": 127}, "group": "control_change"}, {"time": 901, "annotation": {"number": 64, "value": 0}, "group": "control_change"}, {"time": 904, "annotation": {"number": 64, "value": 127}, "group": "control_change"}, {"time": 926, "annotation": {"number": 64, "value": 0}, "group": "control_change"}, {"time": 928, "annotation": {"number": 64, "value": 127}, "group": "control_change"}, {"time": 950, "annotation": {"number": 64, "value": 0}, "group": "control_change"}, {"time": 952, "annotation": {"number": 64, "value": 127}, "group": "control_change"}, {"time": 974, "annotation": {"number": 64, "value": 0}, "group": "control_change"}, {"time": 976, "annotation": {"number": 64, "value": 127}, "group": "control_change"}, {"time": 997, "annotation": {"number": 64, "value": 0}, "group": "control_change"}, {"time": 1000, "annotation": {"number": 64, "value": 127}, "group": "control_change"}, {"time": 1021, "annotation": {"number": 64, "value": 0}, "group": "control_change"}, {"time": 1024, "annotation": {"number": 64, "value": 127}, "group": "control_change"}, {"time": 1046, "annotation": {"number": 64, "value": 0}, "group": "control_change"}, {"time": 1049, "annotation": {"number": 64, "value": 127}, "group": "control_change"}, {"time": 1058, "annotation": {"number": 64, "value": 0}, "group": "control_change"}, {"time": 1060, "annotation": {"number": 64, "value": 127}, "group": "control_change"}, {"time": 1070, "annotation": {"number": 64, "value": 0}, "group": "control_change"}, {"time": 1072, "annotation": {"number": 64, "value": 127}, "group": "control_change"}, {"time": 1094, "annotation": {"number": 64, "value": 0}, "group": "control_change"}, {"time": 1097, "annotation": {"number": 64, "value": 127}, "group": "control_change"}, {"time": 1118, "annotation": {"number": 64, "value": 0}, "group": "control_change"}, {"time": 1121, "annotation": {"number": 64, "value": 127}, "group": "control_change"}, {"time": 1142, "annotation": {"number": 64, "value": 0}, "group": "control_change"}, {"time": 1144, "annotation": {"number": 64, "value": 127}, "group": "control_change"}, {"time": 1166, "annotation": {"number": 64, "value": 0}, "group": "control_change"}, {"time": 1169, "annotation": {"number": 64, "value": 127}, "group": "control_change"}, {"time": 1190, "annotation": {"number": 64, "value": 0}, "group": "control_change"}, {"time": 1192, "annotation": {"number": 64, "value": 127}, "group": "control_change"}, {"time": 1214, "annotation": {"number": 64, "value": 0}, "group": "control_change"}, {"time": 1216, "annotation": {"number": 64, "value": 127}, "group": "control_change"}, {"time": 1238, "annotation": {"number": 64, "value": 0}, "group": "control_change"}, {"time": 1241, "annotation": {"number": 64, "value": 127}, "group": "control_change"}, {"time": 1262, "annotation": {"number": 64, "value": 0}, "group": "control_change"}, {"time": 1264, "annotation": {"number": 64, "value": 127}, "group": "control_change"}, {"time": 1286, "annotation": {"number": 64, "value": 0}, "group": "control_change"}, {"time": 1289, "annotation": {"number": 64, "value": 127}, "group": "control_change"}, {"time": 1310, "annotation": {"number": 64, "value": 0}, "group": "control_change"}, {"time": 1312, "annotation": {"number": 64, "value": 127}, "group": "control_change"}, {"time": 1334, "annotation": {"number": 64, "value": 0}, "group": "control_change"}, {"time": 1336, "annotation": {"number": 64, "value": 127}, "group": "control_change"}, {"time": 1347, "annotation": {"number": 64, "value": 0}, "group": "control_change"}, {"time": 1348, "annotation": {"number": 64, "value": 127}, "group": "control_change"}, {"time": 1383, "annotation": {"number": 64, "value": 0}, "group": "control_change"}, {"time": 1385, "annotation": {"number": 64, "value": 127}, "group": "control_change"}, {"time": 1405, "annotation": {"number": 64, "value": 0}, "group": "control_change"}, {"time": 1408, "annotation": {"number": 64, "value": 127}, "group": "control_change"}, {"time": 1430, "annotation": {"number": 64, "value": 0}, "group": "control_change"}, {"time": 1432, "annotation": {"number": 64, "value": 127}, "group": "control_change"}, {"time": 1453, "annotation": {"number": 64, "value": 0}, "group": "control_change"}, {"time": 1456, "annotation": {"number": 64, "value": 127}, "group": "control_change"}, {"time": 1478, "annotation": {"number": 64, "value": 0}, "group": "control_change"}, {"time": 1480, "annotation": {"number": 64, "value": 127}, "group": "control_change"}, {"time": 1501, "annotation": {"number": 64, "value": 0}, "group": "control_change"}, {"time": 1504, "annotation": {"number": 64, "value": 127}, "group": "control_change"}, {"time": 1522, "annotation": {"number": 64, "value": 0}, "group": "control_change"}, {"time": 1528, "annotation": {"number": 64, "value": 127}, "group": "control_change"}, {"time": 1549, "annotation": {"number": 64, "value": 0}, "group": "control_change"}, {"time": 1552, "annotation": {"number": 64, "value": 127}, "group": "control_change"}, {"time": 1574, "annotation": {"number": 64, "value": 0}, "group": "control_change"}, {"time": 1577, "annotation": {"number": 64, "value": 127}, "group": "control_change"}, {"time": 1598, "annotation": {"number": 64, "value": 0}, "group": "control_change"}, {"time": 1600, "annotation": {"number": 64, "value": 127}, "group": "control_change"}, {"time": 1622, "annotation": {"number": 64, "value": 0}, "group": "control_change"}, {"time": 1648, "annotation": {"number": 64, "value": 127}, "group": "control_change"}, {"time": 1660, "annotation": {"number": 64, "value": 0}, "group": "control_change"}, {"time": 1661, "annotation": {"number": 64, "value": 127}, "group": "control_change"}, {"time": 1670, "annotation": {"number": 64, "value": 0}, "group": "control_change"}, {"time": 1673, "annotation": {"number": 64, "value": 127}, "group": "control_change"}, {"time": 1694, "annotation": {"number": 64, "value": 0}, "group": "control_change"}, {"time": 1696, "annotation": {"number": 64, "value": 127}, "group": "control_change"}, {"time": 1717, "annotation": {"number": 64, "value": 0}, "group": "control_change"}, {"time": 1720, "annotation": {"number": 64, "value": 127}, "group": "control_change"}, {"time": 1741, "annotation": {"number": 64, "value": 0}, "group": "control_change"}, {"time": 1744, "annotation": {"number": 64, "value": 127}, "group": "control_change"}, {"time": 1765, "annotation": {"number": 64, "value": 0}, "group": "control_change"}, {"time": 1768, "annotation": {"number": 64, "value": 127}, "group": "control_change"}, {"time": 1790, "annotation": {"number": 64, "value": 0}, "group": "control_change"}, {"time": 1792, "annotation": {"number": 64, "value": 127}, "group": "control_change"}, {"time": 1814, "annotation": {"number": 64, "value": 0}, "group": "control_change"}, {"time": 1816, "annotation": {"number": 64, "value": 127}, "group": "control_change"}, {"time": 1837, "annotation": {"number": 64, "value": 0}, "group": "control_change"}, {"time": 1840, "annotation": {"number": 64, "value": 127}, "group": "control_change"}, {"time": 1862, "annotation": {"number": 64, "value": 0}, "group": "control_change"}, {"time": 1864, "annotation": {"number": 64, "value": 127}, "group": "control_change"}, {"time": 1886, "annotation": {"number": 64, "value": 0}, "group": "control_change"}, {"time": 1888, "annotation": {"number": 64, "value": 127}, "group": "control_change"}, {"time": 1909, "annotation": {"number": 64, "value": 0}, "group": "control_change"}, {"time": 1912, "annotation": {"number": 64, "value": 127}, "group": "control_change"}, {"time": 1933, "annotation": {"number": 64, "value": 0}, "group": "control_change"}, {"time": 1936, "annotation": {"number": 64, "value": 127}, "group": "control_change"}, {"time": 1956, "annotation": {"number": 64, "value": 0}, "group": "control_change"}, {"time": 1960, "annotation": {"number": 64, "value": 127}, "group": "control_change"}, {"time": 1983, "annotation": {"number": 64, "value": 0}, "group": "control_change"}, {"time": 2030, "annotation": {"number": 64, "value": 0}, "group": "control_change"}, {"time": 2032, "annotation": {"number": 64, "value": 127}, "group": "control_change"}, {"time": 2054, "annotation": {"number": 64, "value": 0}, "group": "control_change"}, {"time": 2056, "annotation": {"number": 64, "value": 127}, "group": "control_change"}, {"time": 2078, "annotation": {"number": 64, "value": 0}, "group": "control_change"}, {"time": 2080, "annotation": {"number": 64, "value": 127}, "group": "control_change"}, {"time": 2101, "annotation": {"number": 64, "value": 0}, "group": "control_change"}, {"time": 2104, "annotation": {"number": 64, "value": 127}, "group": "control_change"}, {"time": 2126, "annotation": {"number": 64, "value": 0}, "group": "control_change"}, {"time": 2128, "annotation": {"number": 64, "value": 127}, "group": "control_change"}, {"time": 2150, "annotation": {"number": 64, "value": 0}, "group": "control_change"}, {"time": 2152, "annotation": {"number": 64, "value": 127}, "group": "control_change"}, {"time": 2174, "annotation": {"number": 64, "value": 0}, "group": "control_change"}, {"time": 2176, "annotation": {"number": 64, "value": 127}, "group": "control_change"}, {"time": 2197, "annotation": {"number": 64, "value": 0}, "group": "control_change"}, {"time": 2200, "annotation": {"number": 64, "value": 127}, "group": "control_change"}, {"time": 2221, "annotation": {"number": 64, "value": 0}, "group": "control_change"}, {"time": 2224, "annotation": {"number": 64, "value": 127}, "group": "control_change"}, {"time": 2246, "annotation": {"number": 64, "value": 0}, "group": "control_change"}, {"time": 2249, "annotation": {"number": 64, "value": 127}, "group": "control_change"}, {"time": 2258, "annotation": {"number": 64, "value": 0}, "group": "control_change"}, {"time": 2260, "annotation": {"number": 64, "value": 127}, "group": "control_change"}, {"time": 2270, "annotation": {"number": 64, "value": 0}, "group": "control_change"}, {"time": 2272, "annotation": {"number": 64, "value": 127}, "group": "control_change"}, {"time": 2294, "annotation": {"number": 64, "value": 0}, "group": "control_change"}, {"time": 2297, "annotation": {"number": 64, "value": 127}, "group": "control_change"}, {"time": 2318, "annotation": {"number": 64, "value": 0}, "group": "control_change"}, {"time": 2321, "annotation": {"number": 64, "value": 127}, "group": "control_change"}, {"time": 2342, "annotation": {"number": 64, "value": 0}, "group": "control_change"}, {"time": 2344, "annotation": {"number": 64, "value": 127}, "group": "control_change"}, {"time": 2366, "annotation": {"number": 64, "value": 0}, "group": "control_change"}, {"time": 2369, "annotation": {"number": 64, "value": 127}, "group": "control_change"}, {"time": 2390, "annotation": {"number": 64, "value": 0}, "group": "control_change"}, {"time": 2392, "annotation": {"number": 64, "value": 127}, "group": "control_change"}, {"time": 2414, "annotation": {"number": 64, "value": 0}, "group": "control_change"}, {"time": 2416, "annotation": {"number": 64, "value": 127}, "group": "control_change"}, {"time": 2438, "annotation": {"number": 64, "value": 0}, "group": "control_change"}, {"time": 2441, "annotation": {"number": 64, "value": 127}, "group": "control_change"}, {"time": 2462, "annotation": {"number": 64, "value": 0}, "group": "control_change"}, {"time": 2464, "annotation": {"number": 64, "value": 127}, "group": "control_change"}, {"time": 2486, "annotation": {"number": 64, "value": 0}, "group": "control_change"}, {"time": 2489, "annotation": {"number": 64, "value": 127}, "group": "control_change"}, {"time": 2510, "annotation": {"number": 64, "value": 0}, "group": "control_change"}, {"time": 2512, "annotation": {"number": 64, "value": 127}, "group": "control_change"}, {"time": 2534, "annotation": {"number": 64, "value": 0}, "group": "control_change"}, {"time": 2536, "annotation": {"number": 64, "value": 127}, "group": "control_change"}, {"time": 2547, "annotation": {"number": 64, "value": 0}, "group": "control_change"}, {"time": 2548, "annotation": {"number": 64, "value": 127}, "group": "control_change"}, {"time": 2583, "annotation": {"number": 64, "value": 0}, "group": "control_change"}, {"time": 2585, "annotation": {"number": 64, "value": 127}, "group": "control_change"}, {"time": 2605, "annotation": {"number": 64, "value": 0}, "group": "control_change"}, {"time": 2608, "annotation": {"number": 64, "value": 127}, "group": "control_change"}, {"time": 2630, "annotation": {"number": 64, "value": 0}, "group": "control_change"}, {"time": 2632, "annotation": {"number": 64, "value": 127}, "group": "control_change"}, {"time": 2653, "annotation": {"number": 64, "value": 0}, "group": "control_change"}, {"time": 2656, "annotation": {"number": 64, "value": 127}, "group": "control_change"}, {"time": 2678, "annotation": {"number": 64, "value": 0}, "group": "control_change"}, {"time": 2680, "annotation": {"number": 64, "value": 127}, "group": "control_change"}, {"time": 2701, "annotation": {"number": 64, "value": 0}, "group": "control_change"}, {"time": 2704, "annotation": {"number": 64, "value": 127}, "group": "control_change"}, {"time": 2722, "annotation": {"number": 64, "value": 0}, "group": "control_change"}, {"time": 2728, "annotation": {"number": 64, "value": 127}, "group": "control_change"}, {"time": 2751, "annotation": {"number": 64, "value": 0}, "group": "control_change"}, {"time": 2776, "annotation": {"number": 64, "value": 127}, "group": "control_change"}, {"time": 2778, "annotation": {"number": 64, "value": 0}, "group": "control_change"}, {"time": 2796, "annotation": {"number": 64, "value": 127}, "group": "control_change"}, {"time": 2797, "annotation": {"number": 64, "value": 0}, "group": "control_change"}, {"time": 2811, "annotation": {"number": 64, "value": 127}, "group": "control_change"}, {"time": 2813, "annotation": {"number": 64, "value": 0}, "group": "control_change"}, {"time": 2825, "annotation": {"number": 64, "value": 127}, "group": "control_change"}, {"time": 2846, "annotation": {"number": 64, "value": 0}, "group": "control_change"}, {"time": 2848, "annotation": {"number": 64, "value": 127}, "group": "control_change"}, {"time": 2869, "annotation": {"number": 64, "value": 0}, "group": "control_change"}, {"time": 2872, "annotation": {"number": 64, "value": 127}, "group": "control_change"}, {"time": 2892, "annotation": {"number": 64, "value": 0}, "group": "control_change"}, {"time": 2896, "annotation": {"number": 64, "value": 127}, "group": "control_change"}, {"time": 2917, "annotation": {"number": 64, "value": 0}, "group": "control_change"}, {"time": 2920, "annotation": {"number": 64, "value": 127}, "group": "control_change"}, {"time": 2942, "annotation": {"number": 64, "value": 0}, "group": "control_change"}, {"time": 2944, "annotation": {"number": 64, "value": 127}, "group": "control_change"}, {"time": 2955, "annotation": {"number": 64, "value": 0}, "group": "control_change"}, {"time": 2968, "annotation": {"number": 64, "value": 127}, "group": "control_change"}, {"time": 2990, "annotation": {"number": 64, "value": 0}, "group": "control_change"}, {"time": 2992, "annotation": {"number": 64, "value": 127}, "group": "control_change"}, {"time": 3003, "annotation": {"number": 64, "value": 0}, "group": "control_change"}, {"time": 3005, "annotation": {"number": 64, "value": 127}, "group": "control_change"}, {"time": 3005, "annotation": {"number": 64, "value": 0}, "group": "control_change"}, {"time": 3006, "annotation": {"number": 64, "value": 127}, "group": "control_change"}, {"time": 3013, "annotation": {"number": 64, "value": 0}, "group": "control_change"}, {"time": 3016, "annotation": {"number": 64, "value": 127}, "group": "control_change"}, {"time": 3038, "annotation": {"number": 64, "value": 0}, "group": "control_change"}, {"time": 3040, "annotation": {"number": 64, "value": 127}, "group": "control_change"}, {"time": 3062, "annotation": {"number": 64, "value": 0}, "group": "control_change"}, {"time": 3065, "annotation": {"number": 64, "value": 127}, "group": "control_change"}, {"time": 3085, "annotation": {"number": 64, "value": 0}, "group": "control_change"}, {"time": 3088, "annotation": {"number": 64, "value": 127}, "group": "control_change"}, {"time": 3099, "annotation": {"number": 64, "value": 0}, "group": "control_change"}, {"time": 3112, "annotation": {"number": 64, "value": 127}, "group": "control_change"}, {"time": 3133, "annotation": {"number": 64, "value": 0}, "group": "control_change"}, {"time": 3161, "annotation": {"number": 64, "value": 127}, "group": "control_change"}, {"time": 3186, "annotation": {"number": 64, "value": 0}, "group": "control_change"}, {"time": 3188, "annotation": {"number": 64, "value": 127}, "group": "control_change"}, {"time": 3209, "annotation": {"number": 64, "value": 0}, "group": "control_change"}, {"time": 3211, "annotation": {"number": 64, "value": 127}, "group": "control_change"}, {"time": 3262, "annotation": {"number": 64, "value": 0}, "group": "control_change"}, {"time": 3269, "annotation": {"number": 64, "value": 127}, "group": "control_change"}, {"time": 3363, "annotation": {"number": 64, "value": 127}, "group": "control_change"}, {"time": 3384, "annotation": {"number": 64, "value": 0}, "group": "control_change"}, {"time": 3387, "annotation": {"number": 64, "value": 127}, "group": "control_change"}, {"time": 3408, "annotation": {"number": 64, "value": 0}, "group": "control_change"}, {"time": 3411, "annotation": {"number": 64, "value": 127}, "group": "control_change"}, {"time": 3458, "annotation": {"number": 64, "value": 0}, "group": "control_change"}, {"time": 3460, "annotation": {"number": 64, "value": 127}, "group": "control_change"}, {"time": 3531, "annotation": {"number": 64, "value": 0}, "group": "control_change"}, {"time": 3532, "annotation": {"number": 64, "value": 127}, "group": "control_change"}, {"time": 3533, "annotation": {"number": 64, "value": 0}, "group": "control_change"}, {"time": 3533, "annotation": {"number": 64, "value": 127}, "group": "control_change"}, {"time": 3537, "annotation": {"number": 64, "value": 0}, "group": "control_change"}, {"time": 3538, "annotation": {"number": 64, "value": 127}, "group": "control_change"}, {"time": 3540, "annotation": {"number": 64, "value": 0}, "group": "control_change"}]}]}