{"metadata": {"schema_version": "0.2", "title": "None", "source_filename": "775.mid", "source_format": "midi"}, "resolution": 12, "tempos": [{"time": 0, "qpm": 61.99999586666694}], "key_signatures": [{"time": 0, "root": 0, "mode": "major"}], "time_signatures": [{"time": 0, "numerator": 4, "denominator": 4}, {"time": 0, "numerator": 1, "denominator": 4}], "tracks": [{"program": 4, "is_drum": false, "name": "MELODY", "notes": [{"time": 213, "pitch": 51, "duration": 4, "velocity": 90}, {"time": 217, "pitch": 56, "duration": 3, "velocity": 93}, {"time": 221, "pitch": 56, "duration": 2, "velocity": 97}, {"time": 225, "pitch": 56, "duration": 4, "velocity": 107}, {"time": 229, "pitch": 58, "duration": 5, "velocity": 107}, {"time": 233, "pitch": 59, "duration": 3, "velocity": 107}, {"time": 237, "pitch": 59, "duration": 8, "velocity": 127}, {"time": 249, "pitch": 59, "duration": 4, "velocity": 127}, {"time": 253, "pitch": 58, "duration": 4, "velocity": 99}, {"time": 257, "pitch": 56, "duration": 4, "velocity": 99}, {"time": 261, "pitch": 52, "duration": 4, "velocity": 117}, {"time": 265, "pitch": 56, "duration": 2, "velocity": 97}, {"time": 269, "pitch": 56, "duration": 2, "velocity": 97}, {"time": 273, "pitch": 56, "duration": 3, "velocity": 99}, {"time": 277, "pitch": 58, "duration": 4, "velocity": 107}, {"time": 281, "pitch": 59, "duration": 3, "velocity": 102}, {"time": 285, "pitch": 59, "duration": 9, "velocity": 117}, {"time": 309, "pitch": 54, "duration": 4, "velocity": 95}, {"time": 313, "pitch": 58, "duration": 3, "velocity": 83}, {"time": 317, "pitch": 58, "duration": 3, "velocity": 78}, {"time": 321, "pitch": 58, "duration": 4, "velocity": 96}, {"time": 325, "pitch": 59, "duration": 4, "velocity": 112}, {"time": 329, "pitch": 61, "duration": 3, "velocity": 97}, {"time": 333, "pitch": 61, "duration": 7, "velocity": 117}, {"time": 345, "pitch": 61, "duration": 3, "velocity": 97}, {"time": 349, "pitch": 59, "duration": 3, "velocity": 112}, {"time": 353, "pitch": 61, "duration": 3, "velocity": 97}, {"time": 357, "pitch": 58, "duration": 3, "velocity": 100}, {"time": 361, "pitch": 58, "duration": 2, "velocity": 100}, {"time": 365, "pitch": 58, "duration": 2, "velocity": 112}, {"time": 369, "pitch": 58, "duration": 5, "velocity": 99}, {"time": 377, "pitch": 56, "duration": 4, "velocity": 95}, {"time": 381, "pitch": 58, "duration": 11, "velocity": 97}, {"time": 401, "pitch": 56, "duration": 2, "velocity": 95}, {"time": 405, "pitch": 58, "duration": 2, "velocity": 96}, {"time": 405, "pitch": 59, "duration": 2, "velocity": 107}, {"time": 409, "pitch": 59, "duration": 3, "velocity": 122}, {"time": 413, "pitch": 56, "duration": 3, "velocity": 95}, {"time": 417, "pitch": 59, "duration": 3, "velocity": 127}, {"time": 421, "pitch": 59, "duration": 3, "velocity": 117}, {"time": 425, "pitch": 56, "duration": 4, "velocity": 97}, {"time": 429, "pitch": 59, "duration": 3, "velocity": 112}, {"time": 433, "pitch": 61, "duration": 2, "velocity": 122}, {"time": 437, "pitch": 61, "duration": 9, "velocity": 122}, {"time": 449, "pitch": 56, "duration": 2, "velocity": 79}, {"time": 449, "pitch": 58, "duration": 2, "velocity": 117}, {"time": 453, "pitch": 58, "duration": 2, "velocity": 100}, {"time": 457, "pitch": 58, "duration": 2, "velocity": 107}, {"time": 461, "pitch": 56, "duration": 1, "velocity": 99}, {"time": 465, "pitch": 58, "duration": 2, "velocity": 117}, {"time": 469, "pitch": 58, "duration": 2, "velocity": 122}, {"time": 473, "pitch": 56, "duration": 4, "velocity": 96}, {"time": 477, "pitch": 58, "duration": 2, "velocity": 117}, {"time": 481, "pitch": 59, "duration": 1, "velocity": 127}, {"time": 485, "pitch": 58, "duration": 4, "velocity": 107}, {"time": 489, "pitch": 56, "duration": 3, "velocity": 85}, {"time": 497, "pitch": 59, "duration": 1, "velocity": 127}, {"time": 501, "pitch": 58, "duration": 3, "velocity": 117}, {"time": 505, "pitch": 58, "duration": 2, "velocity": 100}, {"time": 509, "pitch": 56, "duration": 3, "velocity": 93}, {"time": 513, "pitch": 58, "duration": 3, "velocity": 127}, {"time": 521, "pitch": 59, "duration": 3, "velocity": 99}, {"time": 525, "pitch": 61, "duration": 5, "velocity": 102}, {"time": 533, "pitch": 59, "duration": 1, "velocity": 117}, {"time": 537, "pitch": 58, "duration": 3, "velocity": 107}, {"time": 541, "pitch": 56, "duration": 2, "velocity": 95}, {"time": 545, "pitch": 56, "duration": 1, "velocity": 100}, {"time": 549, "pitch": 58, "duration": 9, "velocity": 117}, {"time": 569, "pitch": 56, "duration": 4, "velocity": 93}, {"time": 573, "pitch": 55, "duration": 14, "velocity": 93}, {"time": 597, "pitch": 51, "duration": 4, "velocity": 90}, {"time": 601, "pitch": 56, "duration": 3, "velocity": 93}, {"time": 605, "pitch": 56, "duration": 2, "velocity": 97}, {"time": 609, "pitch": 56, "duration": 4, "velocity": 107}, {"time": 613, "pitch": 58, "duration": 5, "velocity": 107}, {"time": 617, "pitch": 59, "duration": 3, "velocity": 107}, {"time": 621, "pitch": 59, "duration": 8, "velocity": 127}, {"time": 633, "pitch": 59, "duration": 4, "velocity": 127}, {"time": 637, "pitch": 58, "duration": 4, "velocity": 99}, {"time": 641, "pitch": 56, "duration": 4, "velocity": 99}, {"time": 645, "pitch": 52, "duration": 4, "velocity": 117}, {"time": 649, "pitch": 56, "duration": 2, "velocity": 97}, {"time": 653, "pitch": 56, "duration": 2, "velocity": 97}, {"time": 657, "pitch": 56, "duration": 3, "velocity": 99}, {"time": 661, "pitch": 58, "duration": 4, "velocity": 107}, {"time": 665, "pitch": 59, "duration": 3, "velocity": 102}, {"time": 669, "pitch": 59, "duration": 24, "velocity": 117}, {"time": 693, "pitch": 54, "duration": 4, "velocity": 95}, {"time": 697, "pitch": 58, "duration": 3, "velocity": 83}, {"time": 701, "pitch": 58, "duration": 3, "velocity": 78}, {"time": 705, "pitch": 58, "duration": 4, "velocity": 96}, {"time": 709, "pitch": 59, "duration": 4, "velocity": 112}, {"time": 713, "pitch": 61, "duration": 3, "velocity": 97}, {"time": 717, "pitch": 61, "duration": 7, "velocity": 117}, {"time": 725, "pitch": 63, "duration": 3, "velocity": 97}, {"time": 729, "pitch": 64, "duration": 4, "velocity": 122}, {"time": 733, "pitch": 61, "duration": 3, "velocity": 96}, {"time": 737, "pitch": 61, "duration": 3, "velocity": 96}, {"time": 741, "pitch": 63, "duration": 10, "velocity": 107}, {"time": 785, "pitch": 61, "duration": 2, "velocity": 100}, {"time": 787, "pitch": 63, "duration": 2, "velocity": 96}, {"time": 789, "pitch": 64, "duration": 4, "velocity": 122}, {"time": 793, "pitch": 64, "duration": 2, "velocity": 122}, {"time": 797, "pitch": 63, "duration": 2, "velocity": 122}, {"time": 801, "pitch": 64, "duration": 5, "velocity": 127}, {"time": 809, "pitch": 63, "duration": 3, "velocity": 127}, {"time": 813, "pitch": 61, "duration": 10, "velocity": 100}, {"time": 833, "pitch": 59, "duration": 2, "velocity": 122}, {"time": 835, "pitch": 61, "duration": 2, "velocity": 96}, {"time": 837, "pitch": 63, "duration": 2, "velocity": 122}, {"time": 841, "pitch": 63, "duration": 2, "velocity": 127}, {"time": 845, "pitch": 61, "duration": 2, "velocity": 97}, {"time": 849, "pitch": 63, "duration": 4, "velocity": 127}, {"time": 857, "pitch": 61, "duration": 2, "velocity": 99}, {"time": 861, "pitch": 61, "duration": 4, "velocity": 117}, {"time": 865, "pitch": 59, "duration": 11, "velocity": 122}, {"time": 881, "pitch": 59, "duration": 4, "velocity": 122}, {"time": 885, "pitch": 58, "duration": 3, "velocity": 99}, {"time": 889, "pitch": 58, "duration": 3, "velocity": 107}, {"time": 893, "pitch": 56, "duration": 3, "velocity": 93}, {"time": 897, "pitch": 58, "duration": 4, "velocity": 112}, {"time": 905, "pitch": 59, "duration": 2, "velocity": 127}, {"time": 909, "pitch": 61, "duration": 5, "velocity": 122}, {"time": 917, "pitch": 59, "duration": 3, "velocity": 127}, {"time": 921, "pitch": 58, "duration": 4, "velocity": 127}, {"time": 925, "pitch": 61, "duration": 3, "velocity": 127}, {"time": 929, "pitch": 63, "duration": 2, "velocity": 112}, {"time": 933, "pitch": 63, "duration": 24, "velocity": 122}, {"time": 969, "pitch": 56, "duration": 3, "velocity": 112}, {"time": 973, "pitch": 68, "duration": 3, "velocity": 102}, {"time": 977, "pitch": 63, "duration": 4, "velocity": 112}, {"time": 981, "pitch": 64, "duration": 3, "velocity": 127}, {"time": 985, "pitch": 64, "duration": 2, "velocity": 122}, {"time": 989, "pitch": 63, "duration": 2, "velocity": 112}, {"time": 993, "pitch": 64, "duration": 2, "velocity": 127}, {"time": 1001, "pitch": 63, "duration": 2, "velocity": 122}, {"time": 1005, "pitch": 64, "duration": 7, "velocity": 127}, {"time": 1017, "pitch": 54, "duration": 2, "velocity": 112}, {"time": 1021, "pitch": 66, "duration": 2, "velocity": 107}, {"time": 1025, "pitch": 61, "duration": 2, "velocity": 112}, {"time": 1029, "pitch": 64, "duration": 3, "velocity": 127}, {"time": 1033, "pitch": 63, "duration": 2, "velocity": 102}, {"time": 1037, "pitch": 63, "duration": 2, "velocity": 112}, {"time": 1041, "pitch": 63, "duration": 2, "velocity": 127}, {"time": 1049, "pitch": 61, "duration": 3, "velocity": 102}, {"time": 1053, "pitch": 63, "duration": 3, "velocity": 117}, {"time": 1057, "pitch": 63, "duration": 6, "velocity": 112}, {"time": 1065, "pitch": 64, "duration": 3, "velocity": 122}, {"time": 1069, "pitch": 63, "duration": 2, "velocity": 107}, {"time": 1073, "pitch": 59, "duration": 3, "velocity": 127}, {"time": 1077, "pitch": 61, "duration": 4, "velocity": 112}, {"time": 1089, "pitch": 64, "duration": 3, "velocity": 127}, {"time": 1093, "pitch": 63, "duration": 3, "velocity": 112}, {"time": 1097, "pitch": 59, "duration": 4, "velocity": 102}, {"time": 1101, "pitch": 58, "duration": 4, "velocity": 122}, {"time": 1113, "pitch": 56, "duration": 2, "velocity": 99}, {"time": 1117, "pitch": 58, "duration": 2, "velocity": 117}, {"time": 1121, "pitch": 59, "duration": 2, "velocity": 127}, {"time": 1125, "pitch": 61, "duration": 5, "velocity": 127}, {"time": 1133, "pitch": 59, "duration": 3, "velocity": 117}, {"time": 1137, "pitch": 61, "duration": 6, "velocity": 102}, {"time": 1145, "pitch": 63, "duration": 3, "velocity": 127}, {"time": 1149, "pitch": 63, "duration": 7, "velocity": 127}, {"time": 1161, "pitch": 56, "duration": 3, "velocity": 112}, {"time": 1165, "pitch": 68, "duration": 3, "velocity": 102}, {"time": 1169, "pitch": 63, "duration": 4, "velocity": 112}, {"time": 1173, "pitch": 64, "duration": 3, "velocity": 127}, {"time": 1177, "pitch": 64, "duration": 2, "velocity": 122}, {"time": 1181, "pitch": 63, "duration": 2, "velocity": 112}, {"time": 1185, "pitch": 64, "duration": 2, "velocity": 127}, {"time": 1193, "pitch": 63, "duration": 2, "velocity": 122}, {"time": 1197, "pitch": 64, "duration": 7, "velocity": 127}, {"time": 1209, "pitch": 71, "duration": 3, "velocity": 127}, {"time": 1213, "pitch": 70, "duration": 3, "velocity": 117}, {"time": 1217, "pitch": 68, "duration": 4, "velocity": 127}, {"time": 1221, "pitch": 64, "duration": 3, "velocity": 127}, {"time": 1225, "pitch": 63, "duration": 2, "velocity": 102}, {"time": 1229, "pitch": 63, "duration": 2, "velocity": 112}, {"time": 1233, "pitch": 63, "duration": 3, "velocity": 127}, {"time": 1237, "pitch": 63, "duration": 3, "velocity": 107}, {"time": 1241, "pitch": 70, "duration": 3, "velocity": 127}, {"time": 1245, "pitch": 68, "duration": 10, "velocity": 102}, {"time": 1257, "pitch": 64, "duration": 3, "velocity": 122}, {"time": 1261, "pitch": 63, "duration": 2, "velocity": 107}, {"time": 1265, "pitch": 59, "duration": 3, "velocity": 127}, {"time": 1269, "pitch": 61, "duration": 4, "velocity": 112}, {"time": 1281, "pitch": 64, "duration": 3, "velocity": 127}, {"time": 1285, "pitch": 63, "duration": 3, "velocity": 112}, {"time": 1289, "pitch": 59, "duration": 4, "velocity": 102}, {"time": 1293, "pitch": 58, "duration": 4, "velocity": 122}, {"time": 1305, "pitch": 59, "duration": 2, "velocity": 127}, {"time": 1309, "pitch": 59, "duration": 3, "velocity": 122}, {"time": 1313, "pitch": 58, "duration": 2, "velocity": 107}, {"time": 1317, "pitch": 58, "duration": 16, "velocity": 117}, {"time": 1337, "pitch": 56, "duration": 3, "velocity": 82}, {"time": 1341, "pitch": 56, "duration": 17, "velocity": 95}, {"time": 1365, "pitch": 51, "duration": 4, "velocity": 90}, {"time": 1369, "pitch": 56, "duration": 3, "velocity": 93}, {"time": 1373, "pitch": 56, "duration": 2, "velocity": 97}, {"time": 1377, "pitch": 56, "duration": 4, "velocity": 107}, {"time": 1381, "pitch": 58, "duration": 5, "velocity": 107}, {"time": 1385, "pitch": 59, "duration": 3, "velocity": 107}, {"time": 1389, "pitch": 59, "duration": 8, "velocity": 127}, {"time": 1401, "pitch": 59, "duration": 4, "velocity": 127}, {"time": 1405, "pitch": 58, "duration": 4, "velocity": 99}, {"time": 1409, "pitch": 56, "duration": 4, "velocity": 99}, {"time": 1413, "pitch": 52, "duration": 4, "velocity": 117}, {"time": 1417, "pitch": 56, "duration": 2, "velocity": 97}, {"time": 1421, "pitch": 56, "duration": 2, "velocity": 97}, {"time": 1425, "pitch": 56, "duration": 3, "velocity": 99}, {"time": 1429, "pitch": 58, "duration": 4, "velocity": 107}, {"time": 1433, "pitch": 59, "duration": 3, "velocity": 102}, {"time": 1437, "pitch": 59, "duration": 24, "velocity": 117}, {"time": 1461, "pitch": 54, "duration": 4, "velocity": 95}, {"time": 1465, "pitch": 58, "duration": 3, "velocity": 83}, {"time": 1469, "pitch": 58, "duration": 3, "velocity": 78}, {"time": 1473, "pitch": 58, "duration": 4, "velocity": 96}, {"time": 1477, "pitch": 59, "duration": 4, "velocity": 112}, {"time": 1481, "pitch": 61, "duration": 3, "velocity": 97}, {"time": 1485, "pitch": 61, "duration": 7, "velocity": 117}, {"time": 1497, "pitch": 64, "duration": 4, "velocity": 122}, {"time": 1501, "pitch": 61, "duration": 3, "velocity": 96}, {"time": 1505, "pitch": 61, "duration": 3, "velocity": 96}, {"time": 1509, "pitch": 63, "duration": 17, "velocity": 107}, {"time": 1529, "pitch": 61, "duration": 2, "velocity": 90}, {"time": 1531, "pitch": 59, "duration": 2, "velocity": 82}, {"time": 1533, "pitch": 61, "duration": 2, "velocity": 90}, {"time": 1535, "pitch": 59, "duration": 12, "velocity": 97}, {"time": 1553, "pitch": 61, "duration": 2, "velocity": 100}, {"time": 1555, "pitch": 63, "duration": 2, "velocity": 96}, {"time": 1557, "pitch": 64, "duration": 4, "velocity": 122}, {"time": 1561, "pitch": 64, "duration": 2, "velocity": 122}, {"time": 1565, "pitch": 63, "duration": 2, "velocity": 122}, {"time": 1569, "pitch": 64, "duration": 5, "velocity": 127}, {"time": 1577, "pitch": 63, "duration": 3, "velocity": 127}, {"time": 1581, "pitch": 61, "duration": 10, "velocity": 100}, {"time": 1601, "pitch": 59, "duration": 2, "velocity": 122}, {"time": 1603, "pitch": 61, "duration": 2, "velocity": 96}, {"time": 1605, "pitch": 63, "duration": 2, "velocity": 122}, {"time": 1609, "pitch": 63, "duration": 2, "velocity": 127}, {"time": 1613, "pitch": 61, "duration": 2, "velocity": 97}, {"time": 1617, "pitch": 63, "duration": 4, "velocity": 127}, {"time": 1625, "pitch": 61, "duration": 2, "velocity": 99}, {"time": 1629, "pitch": 61, "duration": 4, "velocity": 117}, {"time": 1633, "pitch": 59, "duration": 11, "velocity": 122}, {"time": 1649, "pitch": 59, "duration": 4, "velocity": 122}, {"time": 1653, "pitch": 58, "duration": 3, "velocity": 99}, {"time": 1657, "pitch": 58, "duration": 3, "velocity": 107}, {"time": 1661, "pitch": 56, "duration": 3, "velocity": 93}, {"time": 1665, "pitch": 58, "duration": 4, "velocity": 112}, {"time": 1673, "pitch": 59, "duration": 2, "velocity": 127}, {"time": 1677, "pitch": 61, "duration": 5, "velocity": 122}, {"time": 1685, "pitch": 59, "duration": 3, "velocity": 127}, {"time": 1689, "pitch": 58, "duration": 4, "velocity": 127}, {"time": 1693, "pitch": 61, "duration": 3, "velocity": 127}, {"time": 1697, "pitch": 63, "duration": 2, "velocity": 112}, {"time": 1701, "pitch": 63, "duration": 12, "velocity": 122}, {"time": 1721, "pitch": 64, "duration": 3, "velocity": 112}, {"time": 1725, "pitch": 64, "duration": 4, "velocity": 127}, {"time": 1729, "pitch": 63, "duration": 6, "velocity": 96}, {"time": 1737, "pitch": 56, "duration": 3, "velocity": 112}, {"time": 1741, "pitch": 68, "duration": 3, "velocity": 102}, {"time": 1745, "pitch": 63, "duration": 4, "velocity": 112}, {"time": 1749, "pitch": 64, "duration": 3, "velocity": 127}, {"time": 1753, "pitch": 64, "duration": 2, "velocity": 122}, {"time": 1757, "pitch": 63, "duration": 2, "velocity": 112}, {"time": 1761, "pitch": 64, "duration": 2, "velocity": 127}, {"time": 1769, "pitch": 63, "duration": 2, "velocity": 122}, {"time": 1773, "pitch": 64, "duration": 7, "velocity": 127}, {"time": 1785, "pitch": 54, "duration": 2, "velocity": 112}, {"time": 1789, "pitch": 66, "duration": 2, "velocity": 107}, {"time": 1793, "pitch": 61, "duration": 2, "velocity": 112}, {"time": 1797, "pitch": 64, "duration": 3, "velocity": 127}, {"time": 1801, "pitch": 63, "duration": 2, "velocity": 102}, {"time": 1805, "pitch": 63, "duration": 2, "velocity": 112}, {"time": 1809, "pitch": 63, "duration": 2, "velocity": 127}, {"time": 1817, "pitch": 61, "duration": 3, "velocity": 102}, {"time": 1821, "pitch": 63, "duration": 3, "velocity": 117}, {"time": 1825, "pitch": 63, "duration": 6, "velocity": 112}, {"time": 1833, "pitch": 64, "duration": 3, "velocity": 122}, {"time": 1837, "pitch": 63, "duration": 2, "velocity": 107}, {"time": 1841, "pitch": 59, "duration": 3, "velocity": 127}, {"time": 1845, "pitch": 61, "duration": 4, "velocity": 112}, {"time": 1857, "pitch": 64, "duration": 3, "velocity": 127}, {"time": 1861, "pitch": 63, "duration": 3, "velocity": 112}, {"time": 1865, "pitch": 59, "duration": 4, "velocity": 102}, {"time": 1869, "pitch": 58, "duration": 4, "velocity": 122}, {"time": 1881, "pitch": 56, "duration": 2, "velocity": 99}, {"time": 1885, "pitch": 58, "duration": 2, "velocity": 117}, {"time": 1889, "pitch": 59, "duration": 2, "velocity": 127}, {"time": 1893, "pitch": 61, "duration": 5, "velocity": 127}, {"time": 1901, "pitch": 59, "duration": 3, "velocity": 117}, {"time": 1905, "pitch": 61, "duration": 6, "velocity": 102}, {"time": 1913, "pitch": 63, "duration": 3, "velocity": 127}, {"time": 1917, "pitch": 63, "duration": 7, "velocity": 127}, {"time": 1929, "pitch": 56, "duration": 3, "velocity": 112}, {"time": 1933, "pitch": 68, "duration": 3, "velocity": 102}, {"time": 1937, "pitch": 63, "duration": 4, "velocity": 112}, {"time": 1941, "pitch": 64, "duration": 3, "velocity": 127}, {"time": 1945, "pitch": 64, "duration": 2, "velocity": 122}, {"time": 1949, "pitch": 63, "duration": 2, "velocity": 112}, {"time": 1953, "pitch": 64, "duration": 2, "velocity": 127}, {"time": 1961, "pitch": 63, "duration": 2, "velocity": 122}, {"time": 1965, "pitch": 64, "duration": 7, "velocity": 127}, {"time": 1977, "pitch": 71, "duration": 3, "velocity": 127}, {"time": 1981, "pitch": 70, "duration": 3, "velocity": 117}, {"time": 1985, "pitch": 68, "duration": 4, "velocity": 127}, {"time": 1989, "pitch": 64, "duration": 3, "velocity": 127}, {"time": 1993, "pitch": 63, "duration": 2, "velocity": 102}, {"time": 1997, "pitch": 63, "duration": 2, "velocity": 112}, {"time": 2001, "pitch": 63, "duration": 2, "velocity": 127}, {"time": 2005, "pitch": 63, "duration": 3, "velocity": 107}, {"time": 2009, "pitch": 70, "duration": 3, "velocity": 127}, {"time": 2013, "pitch": 68, "duration": 10, "velocity": 102}, {"time": 2025, "pitch": 64, "duration": 3, "velocity": 122}, {"time": 2029, "pitch": 63, "duration": 2, "velocity": 107}, {"time": 2033, "pitch": 59, "duration": 3, "velocity": 127}, {"time": 2037, "pitch": 61, "duration": 4, "velocity": 112}, {"time": 2049, "pitch": 64, "duration": 3, "velocity": 127}, {"time": 2053, "pitch": 63, "duration": 3, "velocity": 112}, {"time": 2057, "pitch": 59, "duration": 4, "velocity": 102}, {"time": 2061, "pitch": 58, "duration": 4, "velocity": 122}, {"time": 2073, "pitch": 59, "duration": 2, "velocity": 127}, {"time": 2077, "pitch": 59, "duration": 3, "velocity": 122}, {"time": 2081, "pitch": 58, "duration": 2, "velocity": 107}, {"time": 2085, "pitch": 58, "duration": 16, "velocity": 117}, {"time": 2105, "pitch": 56, "duration": 3, "velocity": 82}, {"time": 2109, "pitch": 56, "duration": 17, "velocity": 95}, {"time": 2314, "pitch": 63, "duration": 10, "velocity": 122}, {"time": 2325, "pitch": 64, "duration": 3, "velocity": 127}, {"time": 2329, "pitch": 64, "duration": 2, "velocity": 122}, {"time": 2333, "pitch": 63, "duration": 2, "velocity": 112}, {"time": 2337, "pitch": 64, "duration": 2, "velocity": 127}, {"time": 2345, "pitch": 63, "duration": 2, "velocity": 122}, {"time": 2349, "pitch": 64, "duration": 7, "velocity": 127}, {"time": 2361, "pitch": 54, "duration": 2, "velocity": 112}, {"time": 2365, "pitch": 66, "duration": 2, "velocity": 107}, {"time": 2369, "pitch": 61, "duration": 2, "velocity": 112}, {"time": 2373, "pitch": 64, "duration": 3, "velocity": 127}, {"time": 2377, "pitch": 63, "duration": 2, "velocity": 102}, {"time": 2381, "pitch": 63, "duration": 2, "velocity": 112}, {"time": 2385, "pitch": 63, "duration": 2, "velocity": 127}, {"time": 2393, "pitch": 61, "duration": 3, "velocity": 102}, {"time": 2397, "pitch": 63, "duration": 3, "velocity": 117}, {"time": 2401, "pitch": 63, "duration": 6, "velocity": 112}, {"time": 2409, "pitch": 64, "duration": 3, "velocity": 122}, {"time": 2413, "pitch": 63, "duration": 2, "velocity": 107}, {"time": 2417, "pitch": 59, "duration": 3, "velocity": 127}, {"time": 2421, "pitch": 61, "duration": 4, "velocity": 112}, {"time": 2433, "pitch": 64, "duration": 3, "velocity": 127}, {"time": 2437, "pitch": 63, "duration": 3, "velocity": 112}, {"time": 2441, "pitch": 59, "duration": 4, "velocity": 102}, {"time": 2445, "pitch": 58, "duration": 4, "velocity": 122}, {"time": 2457, "pitch": 56, "duration": 2, "velocity": 99}, {"time": 2461, "pitch": 58, "duration": 2, "velocity": 117}, {"time": 2465, "pitch": 59, "duration": 2, "velocity": 127}, {"time": 2469, "pitch": 61, "duration": 5, "velocity": 127}, {"time": 2477, "pitch": 59, "duration": 3, "velocity": 117}, {"time": 2481, "pitch": 61, "duration": 6, "velocity": 102}, {"time": 2489, "pitch": 63, "duration": 3, "velocity": 127}, {"time": 2493, "pitch": 63, "duration": 7, "velocity": 127}, {"time": 2505, "pitch": 56, "duration": 3, "velocity": 112}, {"time": 2509, "pitch": 68, "duration": 3, "velocity": 102}, {"time": 2513, "pitch": 63, "duration": 4, "velocity": 112}, {"time": 2517, "pitch": 64, "duration": 3, "velocity": 127}, {"time": 2521, "pitch": 64, "duration": 2, "velocity": 122}, {"time": 2525, "pitch": 63, "duration": 2, "velocity": 112}, {"time": 2529, "pitch": 64, "duration": 2, "velocity": 127}, {"time": 2537, "pitch": 63, "duration": 2, "velocity": 122}, {"time": 2541, "pitch": 64, "duration": 7, "velocity": 127}, {"time": 2553, "pitch": 71, "duration": 3, "velocity": 127}, {"time": 2557, "pitch": 70, "duration": 3, "velocity": 117}, {"time": 2561, "pitch": 68, "duration": 4, "velocity": 127}, {"time": 2565, "pitch": 64, "duration": 3, "velocity": 127}, {"time": 2569, "pitch": 63, "duration": 2, "velocity": 102}, {"time": 2573, "pitch": 63, "duration": 2, "velocity": 112}, {"time": 2577, "pitch": 63, "duration": 2, "velocity": 127}, {"time": 2581, "pitch": 63, "duration": 3, "velocity": 107}, {"time": 2585, "pitch": 70, "duration": 3, "velocity": 127}, {"time": 2589, "pitch": 68, "duration": 10, "velocity": 102}, {"time": 2601, "pitch": 64, "duration": 3, "velocity": 122}, {"time": 2605, "pitch": 63, "duration": 2, "velocity": 107}, {"time": 2609, "pitch": 59, "duration": 3, "velocity": 127}, {"time": 2613, "pitch": 61, "duration": 4, "velocity": 112}, {"time": 2625, "pitch": 64, "duration": 3, "velocity": 127}, {"time": 2629, "pitch": 63, "duration": 3, "velocity": 112}, {"time": 2633, "pitch": 59, "duration": 4, "velocity": 102}, {"time": 2637, "pitch": 58, "duration": 4, "velocity": 122}, {"time": 2649, "pitch": 59, "duration": 2, "velocity": 127}, {"time": 2653, "pitch": 59, "duration": 3, "velocity": 122}, {"time": 2657, "pitch": 58, "duration": 2, "velocity": 107}, {"time": 2661, "pitch": 58, "duration": 16, "velocity": 117}, {"time": 2681, "pitch": 56, "duration": 3, "velocity": 82}, {"time": 2685, "pitch": 56, "duration": 17, "velocity": 95}, {"time": 2733, "pitch": 63, "duration": 4, "velocity": 97}, {"time": 2737, "pitch": 68, "duration": 3, "velocity": 85}, {"time": 2741, "pitch": 68, "duration": 2, "velocity": 83}, {"time": 2745, "pitch": 68, "duration": 4, "velocity": 95}, {"time": 2749, "pitch": 70, "duration": 4, "velocity": 100}, {"time": 2753, "pitch": 71, "duration": 2, "velocity": 102}, {"time": 2757, "pitch": 71, "duration": 10, "velocity": 117}, {"time": 2768, "pitch": 71, "duration": 3, "velocity": 127}, {"time": 2773, "pitch": 70, "duration": 3, "velocity": 100}, {"time": 2777, "pitch": 68, "duration": 3, "velocity": 92}, {"time": 2781, "pitch": 64, "duration": 3, "velocity": 102}, {"time": 2785, "pitch": 68, "duration": 3, "velocity": 95}, {"time": 2789, "pitch": 68, "duration": 3, "velocity": 100}, {"time": 2793, "pitch": 68, "duration": 4, "velocity": 107}, {"time": 2797, "pitch": 70, "duration": 3, "velocity": 107}, {"time": 2801, "pitch": 71, "duration": 3, "velocity": 100}, {"time": 2805, "pitch": 71, "duration": 16, "velocity": 122}, {"time": 2829, "pitch": 66, "duration": 4, "velocity": 99}, {"time": 2833, "pitch": 70, "duration": 3, "velocity": 93}, {"time": 2837, "pitch": 70, "duration": 2, "velocity": 95}, {"time": 2841, "pitch": 70, "duration": 3, "velocity": 112}, {"time": 2845, "pitch": 71, "duration": 3, "velocity": 107}, {"time": 2849, "pitch": 73, "duration": 2, "velocity": 107}, {"time": 2853, "pitch": 73, "duration": 8, "velocity": 117}, {"time": 2865, "pitch": 73, "duration": 2, "velocity": 112}, {"time": 2869, "pitch": 71, "duration": 3, "velocity": 102}, {"time": 2873, "pitch": 73, "duration": 3, "velocity": 97}, {"time": 2877, "pitch": 70, "duration": 3, "velocity": 100}, {"time": 2881, "pitch": 70, "duration": 2, "velocity": 96}, {"time": 2885, "pitch": 70, "duration": 2, "velocity": 99}, {"time": 2889, "pitch": 70, "duration": 7, "velocity": 117}, {"time": 2897, "pitch": 68, "duration": 2, "velocity": 100}, {"time": 2903, "pitch": 70, "duration": 27, "velocity": 122}]}, {"program": 0, "is_drum": false, "name": "PIANO", "notes": [{"time": 21, "pitch": 37, "duration": 14, "velocity": 83}, {"time": 25, "pitch": 44, "duration": 11, "velocity": 55}, {"time": 29, "pitch": 49, "duration": 9, "velocity": 72}, {"time": 33, "pitch": 64, "duration": 13, "velocity": 99}, {"time": 37, "pitch": 61, "duration": 10, "velocity": 54}, {"time": 45, "pitch": 42, "duration": 20, "velocity": 78}, {"time": 49, "pitch": 49, "duration": 16, "velocity": 49}, {"time": 53, "pitch": 54, "duration": 7, "velocity": 81}, {"time": 57, "pitch": 66, "duration": 12, "velocity": 90}, {"time": 61, "pitch": 54, "duration": 5, "velocity": 36}, {"time": 65, "pitch": 61, "duration": 5, "velocity": 66}, {"time": 69, "pitch": 47, "duration": 18, "velocity": 93}, {"time": 73, "pitch": 51, "duration": 13, "velocity": 65}, {"time": 77, "pitch": 54, "duration": 6, "velocity": 81}, {"time": 81, "pitch": 66, "duration": 12, "velocity": 70}, {"time": 85, "pitch": 54, "duration": 2, "velocity": 64}, {"time": 89, "pitch": 59, "duration": 6, "velocity": 75}, {"time": 93, "pitch": 40, "duration": 19, "velocity": 82}, {"time": 97, "pitch": 47, "duration": 13, "velocity": 62}, {"time": 101, "pitch": 52, "duration": 9, "velocity": 65}, {"time": 105, "pitch": 64, "duration": 13, "velocity": 95}, {"time": 113, "pitch": 59, "duration": 4, "velocity": 52}, {"time": 117, "pitch": 37, "duration": 22, "velocity": 72}, {"time": 121, "pitch": 44, "duration": 19, "velocity": 53}, {"time": 125, "pitch": 49, "duration": 6, "velocity": 96}, {"time": 129, "pitch": 64, "duration": 12, "velocity": 117}, {"time": 133, "pitch": 49, "duration": 3, "velocity": 72}, {"time": 137, "pitch": 61, "duration": 4, "velocity": 89}, {"time": 141, "pitch": 39, "duration": 18, "velocity": 79}, {"time": 145, "pitch": 46, "duration": 14, "velocity": 59}, {"time": 149, "pitch": 51, "duration": 6, "velocity": 92}, {"time": 153, "pitch": 66, "duration": 13, "velocity": 100}, {"time": 157, "pitch": 51, "duration": 5, "velocity": 75}, {"time": 161, "pitch": 63, "duration": 5, "velocity": 73}, {"time": 165, "pitch": 44, "duration": 23, "velocity": 69}, {"time": 169, "pitch": 51, "duration": 20, "velocity": 52}, {"time": 173, "pitch": 56, "duration": 6, "velocity": 71}, {"time": 177, "pitch": 58, "duration": 9, "velocity": 89}, {"time": 181, "pitch": 56, "duration": 3, "velocity": 61}, {"time": 185, "pitch": 59, "duration": 26, "velocity": 93}, {"time": 189, "pitch": 44, "duration": 20, "velocity": 66}, {"time": 189, "pitch": 56, "duration": 21, "velocity": 66}, {"time": 189, "pitch": 63, "duration": 22, "velocity": 57}, {"time": 213, "pitch": 44, "duration": 23, "velocity": 78}, {"time": 217, "pitch": 51, "duration": 10, "velocity": 52}, {"time": 221, "pitch": 56, "duration": 5, "velocity": 78}, {"time": 225, "pitch": 63, "duration": 13, "velocity": 100}, {"time": 229, "pitch": 51, "duration": 8, "velocity": 50}, {"time": 233, "pitch": 59, "duration": 5, "velocity": 65}, {"time": 237, "pitch": 44, "duration": 18, "velocity": 74}, {"time": 241, "pitch": 51, "duration": 10, "velocity": 38}, {"time": 245, "pitch": 56, "duration": 4, "velocity": 72}, {"time": 249, "pitch": 68, "duration": 12, "velocity": 90}, {"time": 249, "pitch": 71, "duration": 12, "velocity": 107}, {"time": 253, "pitch": 51, "duration": 1, "velocity": 53}, {"time": 257, "pitch": 63, "duration": 5, "velocity": 77}, {"time": 261, "pitch": 37, "duration": 22, "velocity": 69}, {"time": 265, "pitch": 44, "duration": 20, "velocity": 54}, {"time": 269, "pitch": 49, "duration": 6, "velocity": 69}, {"time": 273, "pitch": 52, "duration": 6, "velocity": 63}, {"time": 273, "pitch": 56, "duration": 11, "velocity": 68}, {"time": 277, "pitch": 49, "duration": 4, "velocity": 70}, {"time": 281, "pitch": 52, "duration": 3, "velocity": 78}, {"time": 285, "pitch": 37, "duration": 14, "velocity": 70}, {"time": 289, "pitch": 44, "duration": 10, "velocity": 50}, {"time": 293, "pitch": 49, "duration": 5, "velocity": 67}, {"time": 297, "pitch": 61, "duration": 12, "velocity": 85}, {"time": 297, "pitch": 64, "duration": 12, "velocity": 92}, {"time": 305, "pitch": 56, "duration": 5, "velocity": 71}, {"time": 309, "pitch": 42, "duration": 22, "velocity": 77}, {"time": 313, "pitch": 49, "duration": 20, "velocity": 66}, {"time": 317, "pitch": 54, "duration": 6, "velocity": 88}, {"time": 321, "pitch": 61, "duration": 23, "velocity": 85}, {"time": 321, "pitch": 66, "duration": 22, "velocity": 86}, {"time": 325, "pitch": 54, "duration": 3, "velocity": 75}, {"time": 329, "pitch": 58, "duration": 16, "velocity": 79}, {"time": 333, "pitch": 42, "duration": 18, "velocity": 85}, {"time": 341, "pitch": 49, "duration": 10, "velocity": 59}, {"time": 345, "pitch": 61, "duration": 12, "velocity": 77}, {"time": 345, "pitch": 66, "duration": 11, "velocity": 92}, {"time": 349, "pitch": 54, "duration": 4, "velocity": 65}, {"time": 353, "pitch": 58, "duration": 5, "velocity": 83}, {"time": 357, "pitch": 47, "duration": 22, "velocity": 95}, {"time": 361, "pitch": 51, "duration": 19, "velocity": 38}, {"time": 365, "pitch": 54, "duration": 4, "velocity": 67}, {"time": 369, "pitch": 59, "duration": 22, "velocity": 112}, {"time": 369, "pitch": 63, "duration": 21, "velocity": 92}, {"time": 369, "pitch": 66, "duration": 20, "velocity": 77}, {"time": 373, "pitch": 54, "duration": 6, "velocity": 67}, {"time": 377, "pitch": 58, "duration": 4, "velocity": 53}, {"time": 381, "pitch": 47, "duration": 14, "velocity": 88}, {"time": 385, "pitch": 51, "duration": 9, "velocity": 56}, {"time": 389, "pitch": 54, "duration": 5, "velocity": 75}, {"time": 393, "pitch": 66, "duration": 8, "velocity": 97}, {"time": 397, "pitch": 63, "duration": 9, "velocity": 76}, {"time": 401, "pitch": 59, "duration": 5, "velocity": 79}, {"time": 405, "pitch": 37, "duration": 23, "velocity": 77}, {"time": 409, "pitch": 44, "duration": 20, "velocity": 50}, {"time": 413, "pitch": 49, "duration": 6, "velocity": 73}, {"time": 417, "pitch": 61, "duration": 22, "velocity": 83}, {"time": 417, "pitch": 64, "duration": 22, "velocity": 96}, {"time": 421, "pitch": 49, "duration": 3, "velocity": 81}, {"time": 425, "pitch": 56, "duration": 28, "velocity": 81}, {"time": 429, "pitch": 37, "duration": 17, "velocity": 74}, {"time": 433, "pitch": 44, "duration": 13, "velocity": 48}, {"time": 437, "pitch": 49, "duration": 6, "velocity": 75}, {"time": 441, "pitch": 64, "duration": 11, "velocity": 127}, {"time": 445, "pitch": 49, "duration": 3, "velocity": 69}, {"time": 449, "pitch": 61, "duration": 4, "velocity": 99}, {"time": 453, "pitch": 44, "duration": 22, "velocity": 73}, {"time": 457, "pitch": 51, "duration": 10, "velocity": 42}, {"time": 461, "pitch": 56, "duration": 6, "velocity": 90}, {"time": 465, "pitch": 59, "duration": 13, "velocity": 112}, {"time": 469, "pitch": 51, "duration": 8, "velocity": 69}, {"time": 473, "pitch": 58, "duration": 5, "velocity": 83}, {"time": 477, "pitch": 44, "duration": 22, "velocity": 76}, {"time": 481, "pitch": 51, "duration": 20, "velocity": 57}, {"time": 485, "pitch": 56, "duration": 5, "velocity": 82}, {"time": 489, "pitch": 63, "duration": 10, "velocity": 97}, {"time": 493, "pitch": 61, "duration": 5, "velocity": 83}, {"time": 497, "pitch": 59, "duration": 4, "velocity": 92}, {"time": 501, "pitch": 46, "duration": 23, "velocity": 74}, {"time": 505, "pitch": 58, "duration": 11, "velocity": 75}, {"time": 509, "pitch": 61, "duration": 5, "velocity": 97}, {"time": 513, "pitch": 64, "duration": 21, "velocity": 112}, {"time": 517, "pitch": 61, "duration": 17, "velocity": 86}, {"time": 521, "pitch": 58, "duration": 9, "velocity": 79}, {"time": 525, "pitch": 46, "duration": 15, "velocity": 72}, {"time": 529, "pitch": 52, "duration": 9, "velocity": 71}, {"time": 533, "pitch": 58, "duration": 8, "velocity": 83}, {"time": 537, "pitch": 64, "duration": 11, "velocity": 100}, {"time": 541, "pitch": 61, "duration": 8, "velocity": 89}, {"time": 545, "pitch": 58, "duration": 5, "velocity": 79}, {"time": 549, "pitch": 39, "duration": 23, "velocity": 76}, {"time": 553, "pitch": 46, "duration": 10, "velocity": 54}, {"time": 557, "pitch": 51, "duration": 6, "velocity": 77}, {"time": 561, "pitch": 55, "duration": 8, "velocity": 102}, {"time": 565, "pitch": 46, "duration": 8, "velocity": 71}, {"time": 569, "pitch": 58, "duration": 4, "velocity": 86}, {"time": 573, "pitch": 39, "duration": 22, "velocity": 86}, {"time": 573, "pitch": 51, "duration": 25, "velocity": 83}, {"time": 573, "pitch": 55, "duration": 11, "velocity": 79}, {"time": 573, "pitch": 58, "duration": 10, "velocity": 79}, {"time": 585, "pitch": 58, "duration": 14, "velocity": 96}, {"time": 589, "pitch": 46, "duration": 6, "velocity": 53}, {"time": 593, "pitch": 55, "duration": 5, "velocity": 58}, {"time": 597, "pitch": 44, "duration": 23, "velocity": 78}, {"time": 601, "pitch": 51, "duration": 10, "velocity": 52}, {"time": 605, "pitch": 56, "duration": 5, "velocity": 78}, {"time": 609, "pitch": 63, "duration": 13, "velocity": 100}, {"time": 613, "pitch": 51, "duration": 8, "velocity": 50}, {"time": 617, "pitch": 59, "duration": 5, "velocity": 65}, {"time": 621, "pitch": 44, "duration": 18, "velocity": 74}, {"time": 625, "pitch": 51, "duration": 10, "velocity": 38}, {"time": 629, "pitch": 56, "duration": 4, "velocity": 72}, {"time": 633, "pitch": 68, "duration": 12, "velocity": 90}, {"time": 633, "pitch": 71, "duration": 12, "velocity": 107}, {"time": 637, "pitch": 51, "duration": 1, "velocity": 53}, {"time": 641, "pitch": 63, "duration": 5, "velocity": 77}, {"time": 645, "pitch": 37, "duration": 22, "velocity": 69}, {"time": 649, "pitch": 44, "duration": 20, "velocity": 54}, {"time": 653, "pitch": 49, "duration": 6, "velocity": 69}, {"time": 657, "pitch": 52, "duration": 6, "velocity": 63}, {"time": 657, "pitch": 56, "duration": 11, "velocity": 68}, {"time": 661, "pitch": 49, "duration": 4, "velocity": 70}, {"time": 665, "pitch": 52, "duration": 3, "velocity": 78}, {"time": 669, "pitch": 37, "duration": 14, "velocity": 70}, {"time": 673, "pitch": 44, "duration": 10, "velocity": 50}, {"time": 677, "pitch": 49, "duration": 5, "velocity": 67}, {"time": 681, "pitch": 61, "duration": 12, "velocity": 85}, {"time": 681, "pitch": 64, "duration": 12, "velocity": 92}, {"time": 689, "pitch": 56, "duration": 5, "velocity": 71}, {"time": 693, "pitch": 42, "duration": 22, "velocity": 77}, {"time": 697, "pitch": 49, "duration": 20, "velocity": 66}, {"time": 701, "pitch": 54, "duration": 6, "velocity": 88}, {"time": 705, "pitch": 61, "duration": 23, "velocity": 85}, {"time": 705, "pitch": 66, "duration": 22, "velocity": 86}, {"time": 709, "pitch": 54, "duration": 3, "velocity": 75}, {"time": 713, "pitch": 58, "duration": 16, "velocity": 79}, {"time": 717, "pitch": 42, "duration": 18, "velocity": 85}, {"time": 725, "pitch": 49, "duration": 10, "velocity": 59}, {"time": 729, "pitch": 61, "duration": 12, "velocity": 77}, {"time": 729, "pitch": 66, "duration": 11, "velocity": 92}, {"time": 733, "pitch": 54, "duration": 4, "velocity": 65}, {"time": 737, "pitch": 58, "duration": 5, "velocity": 83}, {"time": 741, "pitch": 47, "duration": 22, "velocity": 95}, {"time": 745, "pitch": 51, "duration": 19, "velocity": 38}, {"time": 749, "pitch": 54, "duration": 4, "velocity": 67}, {"time": 753, "pitch": 59, "duration": 22, "velocity": 112}, {"time": 753, "pitch": 63, "duration": 21, "velocity": 92}, {"time": 753, "pitch": 66, "duration": 20, "velocity": 77}, {"time": 757, "pitch": 54, "duration": 6, "velocity": 67}, {"time": 761, "pitch": 58, "duration": 4, "velocity": 53}, {"time": 765, "pitch": 47, "duration": 14, "velocity": 88}, {"time": 769, "pitch": 51, "duration": 9, "velocity": 56}, {"time": 773, "pitch": 54, "duration": 5, "velocity": 75}, {"time": 777, "pitch": 66, "duration": 8, "velocity": 97}, {"time": 781, "pitch": 63, "duration": 9, "velocity": 76}, {"time": 785, "pitch": 59, "duration": 5, "velocity": 79}, {"time": 789, "pitch": 37, "duration": 23, "velocity": 77}, {"time": 793, "pitch": 44, "duration": 20, "velocity": 50}, {"time": 797, "pitch": 49, "duration": 6, "velocity": 73}, {"time": 801, "pitch": 61, "duration": 22, "velocity": 83}, {"time": 801, "pitch": 64, "duration": 22, "velocity": 96}, {"time": 805, "pitch": 49, "duration": 3, "velocity": 81}, {"time": 809, "pitch": 56, "duration": 28, "velocity": 81}, {"time": 813, "pitch": 37, "duration": 17, "velocity": 74}, {"time": 817, "pitch": 44, "duration": 13, "velocity": 48}, {"time": 821, "pitch": 49, "duration": 6, "velocity": 75}, {"time": 825, "pitch": 64, "duration": 11, "velocity": 127}, {"time": 829, "pitch": 49, "duration": 3, "velocity": 69}, {"time": 833, "pitch": 61, "duration": 4, "velocity": 99}, {"time": 837, "pitch": 44, "duration": 22, "velocity": 73}, {"time": 841, "pitch": 51, "duration": 10, "velocity": 42}, {"time": 845, "pitch": 56, "duration": 6, "velocity": 90}, {"time": 849, "pitch": 59, "duration": 13, "velocity": 112}, {"time": 853, "pitch": 51, "duration": 8, "velocity": 69}, {"time": 857, "pitch": 58, "duration": 5, "velocity": 83}, {"time": 861, "pitch": 44, "duration": 22, "velocity": 76}, {"time": 865, "pitch": 51, "duration": 20, "velocity": 57}, {"time": 869, "pitch": 56, "duration": 5, "velocity": 82}, {"time": 873, "pitch": 63, "duration": 10, "velocity": 97}, {"time": 877, "pitch": 61, "duration": 5, "velocity": 83}, {"time": 881, "pitch": 59, "duration": 4, "velocity": 92}, {"time": 885, "pitch": 46, "duration": 23, "velocity": 74}, {"time": 889, "pitch": 58, "duration": 11, "velocity": 75}, {"time": 893, "pitch": 61, "duration": 5, "velocity": 97}, {"time": 897, "pitch": 64, "duration": 21, "velocity": 112}, {"time": 901, "pitch": 61, "duration": 17, "velocity": 86}, {"time": 905, "pitch": 58, "duration": 9, "velocity": 79}, {"time": 909, "pitch": 46, "duration": 15, "velocity": 72}, {"time": 913, "pitch": 52, "duration": 9, "velocity": 71}, {"time": 917, "pitch": 58, "duration": 8, "velocity": 83}, {"time": 921, "pitch": 64, "duration": 11, "velocity": 100}, {"time": 925, "pitch": 61, "duration": 8, "velocity": 89}, {"time": 929, "pitch": 58, "duration": 5, "velocity": 79}, {"time": 933, "pitch": 39, "duration": 23, "velocity": 76}, {"time": 937, "pitch": 46, "duration": 10, "velocity": 54}, {"time": 941, "pitch": 51, "duration": 6, "velocity": 77}, {"time": 945, "pitch": 55, "duration": 8, "velocity": 102}, {"time": 949, "pitch": 46, "duration": 8, "velocity": 71}, {"time": 953, "pitch": 58, "duration": 4, "velocity": 86}, {"time": 957, "pitch": 39, "duration": 14, "velocity": 58}, {"time": 957, "pitch": 46, "duration": 13, "velocity": 78}, {"time": 957, "pitch": 51, "duration": 13, "velocity": 88}, {"time": 957, "pitch": 58, "duration": 13, "velocity": 99}, {"time": 957, "pitch": 63, "duration": 14, "velocity": 99}, {"time": 957, "pitch": 67, "duration": 13, "velocity": 102}, {"time": 981, "pitch": 37, "duration": 18, "velocity": 85}, {"time": 983, "pitch": 44, "duration": 16, "velocity": 68}, {"time": 985, "pitch": 49, "duration": 19, "velocity": 90}, {"time": 987, "pitch": 56, "duration": 3, "velocity": 89}, {"time": 989, "pitch": 61, "duration": 2, "velocity": 78}, {"time": 991, "pitch": 56, "duration": 3, "velocity": 95}, {"time": 993, "pitch": 64, "duration": 3, "velocity": 122}, {"time": 995, "pitch": 56, "duration": 3, "velocity": 83}, {"time": 997, "pitch": 61, "duration": 3, "velocity": 88}, {"time": 999, "pitch": 64, "duration": 5, "velocity": 107}, {"time": 1001, "pitch": 61, "duration": 3, "velocity": 79}, {"time": 1003, "pitch": 56, "duration": 2, "velocity": 92}, {"time": 1005, "pitch": 42, "duration": 17, "velocity": 71}, {"time": 1007, "pitch": 49, "duration": 16, "velocity": 71}, {"time": 1009, "pitch": 54, "duration": 19, "velocity": 86}, {"time": 1011, "pitch": 58, "duration": 2, "velocity": 83}, {"time": 1013, "pitch": 61, "duration": 2, "velocity": 78}, {"time": 1015, "pitch": 58, "duration": 2, "velocity": 93}, {"time": 1017, "pitch": 66, "duration": 3, "velocity": 100}, {"time": 1019, "pitch": 58, "duration": 3, "velocity": 92}, {"time": 1021, "pitch": 61, "duration": 2, "velocity": 85}, {"time": 1023, "pitch": 58, "duration": 5, "velocity": 68}, {"time": 1025, "pitch": 66, "duration": 4, "velocity": 95}, {"time": 1027, "pitch": 61, "duration": 2, "velocity": 83}, {"time": 1029, "pitch": 47, "duration": 17, "velocity": 102}, {"time": 1031, "pitch": 51, "duration": 15, "velocity": 53}, {"time": 1033, "pitch": 54, "duration": 13, "velocity": 83}, {"time": 1035, "pitch": 59, "duration": 2, "velocity": 100}, {"time": 1037, "pitch": 63, "duration": 2, "velocity": 58}, {"time": 1039, "pitch": 59, "duration": 3, "velocity": 97}, {"time": 1041, "pitch": 66, "duration": 3, "velocity": 69}, {"time": 1043, "pitch": 59, "duration": 3, "velocity": 83}, {"time": 1045, "pitch": 63, "duration": 2, "velocity": 46}, {"time": 1047, "pitch": 66, "duration": 5, "velocity": 54}, {"time": 1049, "pitch": 59, "duration": 3, "velocity": 67}, {"time": 1051, "pitch": 63, "duration": 2, "velocity": 60}, {"time": 1053, "pitch": 40, "duration": 17, "velocity": 55}, {"time": 1055, "pitch": 52, "duration": 15, "velocity": 96}, {"time": 1057, "pitch": 56, "duration": 3, "velocity": 89}, {"time": 1059, "pitch": 59, "duration": 2, "velocity": 97}, {"time": 1061, "pitch": 56, "duration": 3, "velocity": 83}, {"time": 1063, "pitch": 59, "duration": 2, "velocity": 112}, {"time": 1065, "pitch": 64, "duration": 3, "velocity": 112}, {"time": 1067, "pitch": 56, "duration": 3, "velocity": 82}, {"time": 1069, "pitch": 59, "duration": 2, "velocity": 100}, {"time": 1071, "pitch": 64, "duration": 3, "velocity": 107}, {"time": 1073, "pitch": 59, "duration": 4, "velocity": 97}, {"time": 1077, "pitch": 46, "duration": 15, "velocity": 81}, {"time": 1077, "pitch": 64, "duration": 2, "velocity": 67}, {"time": 1079, "pitch": 58, "duration": 2, "velocity": 73}, {"time": 1081, "pitch": 61, "duration": 2, "velocity": 88}, {"time": 1083, "pitch": 58, "duration": 2, "velocity": 93}, {"time": 1085, "pitch": 61, "duration": 2, "velocity": 90}, {"time": 1087, "pitch": 58, "duration": 2, "velocity": 90}, {"time": 1089, "pitch": 64, "duration": 2, "velocity": 127}, {"time": 1091, "pitch": 58, "duration": 2, "velocity": 82}, {"time": 1093, "pitch": 61, "duration": 2, "velocity": 89}, {"time": 1095, "pitch": 58, "duration": 4, "velocity": 89}, {"time": 1097, "pitch": 64, "duration": 3, "velocity": 92}, {"time": 1099, "pitch": 61, "duration": 2, "velocity": 93}, {"time": 1101, "pitch": 39, "duration": 19, "velocity": 72}, {"time": 1103, "pitch": 46, "duration": 17, "velocity": 76}, {"time": 1105, "pitch": 51, "duration": 20, "velocity": 78}, {"time": 1107, "pitch": 55, "duration": 3, "velocity": 92}, {"time": 1109, "pitch": 58, "duration": 2, "velocity": 67}, {"time": 1111, "pitch": 55, "duration": 3, "velocity": 83}, {"time": 1113, "pitch": 63, "duration": 3, "velocity": 66}, {"time": 1115, "pitch": 55, "duration": 2, "velocity": 63}, {"time": 1117, "pitch": 58, "duration": 2, "velocity": 68}, {"time": 1119, "pitch": 55, "duration": 3, "velocity": 71}, {"time": 1121, "pitch": 63, "duration": 4, "velocity": 72}, {"time": 1123, "pitch": 55, "duration": 2, "velocity": 67}, {"time": 1125, "pitch": 44, "duration": 23, "velocity": 69}, {"time": 1127, "pitch": 51, "duration": 12, "velocity": 73}, {"time": 1129, "pitch": 56, "duration": 6, "velocity": 77}, {"time": 1131, "pitch": 58, "duration": 2, "velocity": 79}, {"time": 1133, "pitch": 59, "duration": 2, "velocity": 102}, {"time": 1135, "pitch": 58, "duration": 2, "velocity": 85}, {"time": 1137, "pitch": 63, "duration": 3, "velocity": 117}, {"time": 1139, "pitch": 59, "duration": 2, "velocity": 100}, {"time": 1141, "pitch": 56, "duration": 3, "velocity": 100}, {"time": 1143, "pitch": 59, "duration": 2, "velocity": 122}, {"time": 1145, "pitch": 63, "duration": 3, "velocity": 102}, {"time": 1147, "pitch": 56, "duration": 2, "velocity": 97}, {"time": 1149, "pitch": 44, "duration": 23, "velocity": 99}, {"time": 1151, "pitch": 51, "duration": 21, "velocity": 96}, {"time": 1153, "pitch": 56, "duration": 10, "velocity": 107}, {"time": 1155, "pitch": 60, "duration": 2, "velocity": 100}, {"time": 1157, "pitch": 63, "duration": 2, "velocity": 93}, {"time": 1159, "pitch": 60, "duration": 2, "velocity": 102}, {"time": 1161, "pitch": 68, "duration": 3, "velocity": 122}, {"time": 1163, "pitch": 60, "duration": 3, "velocity": 100}, {"time": 1165, "pitch": 63, "duration": 2, "velocity": 102}, {"time": 1167, "pitch": 60, "duration": 3, "velocity": 96}, {"time": 1169, "pitch": 68, "duration": 3, "velocity": 100}, {"time": 1171, "pitch": 60, "duration": 2, "velocity": 100}, {"time": 1173, "pitch": 37, "duration": 18, "velocity": 85}, {"time": 1175, "pitch": 44, "duration": 16, "velocity": 68}, {"time": 1177, "pitch": 49, "duration": 19, "velocity": 90}, {"time": 1179, "pitch": 56, "duration": 3, "velocity": 89}, {"time": 1181, "pitch": 61, "duration": 2, "velocity": 78}, {"time": 1183, "pitch": 56, "duration": 3, "velocity": 95}, {"time": 1185, "pitch": 64, "duration": 3, "velocity": 122}, {"time": 1187, "pitch": 56, "duration": 3, "velocity": 83}, {"time": 1189, "pitch": 61, "duration": 3, "velocity": 88}, {"time": 1191, "pitch": 64, "duration": 5, "velocity": 107}, {"time": 1193, "pitch": 61, "duration": 3, "velocity": 79}, {"time": 1195, "pitch": 56, "duration": 2, "velocity": 92}, {"time": 1197, "pitch": 42, "duration": 17, "velocity": 71}, {"time": 1199, "pitch": 49, "duration": 16, "velocity": 71}, {"time": 1201, "pitch": 54, "duration": 19, "velocity": 86}, {"time": 1203, "pitch": 58, "duration": 2, "velocity": 83}, {"time": 1205, "pitch": 61, "duration": 2, "velocity": 78}, {"time": 1207, "pitch": 58, "duration": 2, "velocity": 93}, {"time": 1209, "pitch": 66, "duration": 3, "velocity": 100}, {"time": 1211, "pitch": 58, "duration": 3, "velocity": 92}, {"time": 1213, "pitch": 61, "duration": 2, "velocity": 85}, {"time": 1215, "pitch": 58, "duration": 5, "velocity": 68}, {"time": 1217, "pitch": 66, "duration": 4, "velocity": 95}, {"time": 1219, "pitch": 61, "duration": 2, "velocity": 83}, {"time": 1221, "pitch": 47, "duration": 17, "velocity": 102}, {"time": 1223, "pitch": 51, "duration": 15, "velocity": 53}, {"time": 1225, "pitch": 54, "duration": 13, "velocity": 83}, {"time": 1227, "pitch": 59, "duration": 2, "velocity": 100}, {"time": 1229, "pitch": 63, "duration": 2, "velocity": 58}, {"time": 1231, "pitch": 59, "duration": 3, "velocity": 97}, {"time": 1233, "pitch": 66, "duration": 3, "velocity": 69}, {"time": 1235, "pitch": 59, "duration": 3, "velocity": 83}, {"time": 1237, "pitch": 63, "duration": 2, "velocity": 46}, {"time": 1239, "pitch": 66, "duration": 5, "velocity": 54}, {"time": 1241, "pitch": 59, "duration": 3, "velocity": 67}, {"time": 1243, "pitch": 63, "duration": 2, "velocity": 60}, {"time": 1245, "pitch": 40, "duration": 17, "velocity": 55}, {"time": 1247, "pitch": 52, "duration": 15, "velocity": 96}, {"time": 1249, "pitch": 56, "duration": 3, "velocity": 89}, {"time": 1251, "pitch": 59, "duration": 2, "velocity": 97}, {"time": 1253, "pitch": 56, "duration": 3, "velocity": 83}, {"time": 1255, "pitch": 59, "duration": 2, "velocity": 112}, {"time": 1257, "pitch": 64, "duration": 3, "velocity": 112}, {"time": 1259, "pitch": 56, "duration": 3, "velocity": 82}, {"time": 1261, "pitch": 59, "duration": 2, "velocity": 100}, {"time": 1263, "pitch": 64, "duration": 3, "velocity": 107}, {"time": 1265, "pitch": 59, "duration": 4, "velocity": 97}, {"time": 1269, "pitch": 46, "duration": 15, "velocity": 81}, {"time": 1269, "pitch": 64, "duration": 2, "velocity": 67}, {"time": 1273, "pitch": 58, "duration": 2, "velocity": 73}, {"time": 1273, "pitch": 61, "duration": 2, "velocity": 88}, {"time": 1277, "pitch": 58, "duration": 2, "velocity": 93}, {"time": 1277, "pitch": 61, "duration": 2, "velocity": 90}, {"time": 1281, "pitch": 58, "duration": 2, "velocity": 90}, {"time": 1281, "pitch": 64, "duration": 2, "velocity": 127}, {"time": 1285, "pitch": 58, "duration": 2, "velocity": 82}, {"time": 1285, "pitch": 61, "duration": 2, "velocity": 89}, {"time": 1289, "pitch": 58, "duration": 4, "velocity": 89}, {"time": 1289, "pitch": 64, "duration": 3, "velocity": 92}, {"time": 1293, "pitch": 39, "duration": 18, "velocity": 72}, {"time": 1293, "pitch": 61, "duration": 2, "velocity": 93}, {"time": 1297, "pitch": 46, "duration": 17, "velocity": 76}, {"time": 1297, "pitch": 51, "duration": 19, "velocity": 78}, {"time": 1301, "pitch": 55, "duration": 3, "velocity": 92}, {"time": 1301, "pitch": 58, "duration": 2, "velocity": 67}, {"time": 1305, "pitch": 55, "duration": 3, "velocity": 83}, {"time": 1305, "pitch": 63, "duration": 2, "velocity": 66}, {"time": 1309, "pitch": 55, "duration": 2, "velocity": 63}, {"time": 1309, "pitch": 58, "duration": 2, "velocity": 68}, {"time": 1313, "pitch": 55, "duration": 3, "velocity": 71}, {"time": 1313, "pitch": 63, "duration": 4, "velocity": 72}, {"time": 1317, "pitch": 44, "duration": 23, "velocity": 69}, {"time": 1317, "pitch": 55, "duration": 2, "velocity": 67}, {"time": 1321, "pitch": 51, "duration": 12, "velocity": 73}, {"time": 1321, "pitch": 56, "duration": 6, "velocity": 77}, {"time": 1325, "pitch": 58, "duration": 2, "velocity": 79}, {"time": 1325, "pitch": 59, "duration": 2, "velocity": 102}, {"time": 1329, "pitch": 58, "duration": 2, "velocity": 85}, {"time": 1329, "pitch": 63, "duration": 3, "velocity": 117}, {"time": 1333, "pitch": 56, "duration": 3, "velocity": 100}, {"time": 1333, "pitch": 59, "duration": 2, "velocity": 100}, {"time": 1337, "pitch": 59, "duration": 2, "velocity": 122}, {"time": 1337, "pitch": 63, "duration": 3, "velocity": 102}, {"time": 1341, "pitch": 44, "duration": 24, "velocity": 92}, {"time": 1341, "pitch": 56, "duration": 2, "velocity": 97}, {"time": 1345, "pitch": 51, "duration": 20, "velocity": 85}, {"time": 1349, "pitch": 56, "duration": 16, "velocity": 82}, {"time": 1353, "pitch": 63, "duration": 12, "velocity": 95}, {"time": 1365, "pitch": 44, "duration": 1, "velocity": 78}, {"time": 1369, "pitch": 51, "duration": 10, "velocity": 52}, {"time": 1373, "pitch": 56, "duration": 5, "velocity": 78}, {"time": 1377, "pitch": 63, "duration": 13, "velocity": 100}, {"time": 1381, "pitch": 51, "duration": 8, "velocity": 50}, {"time": 1385, "pitch": 59, "duration": 5, "velocity": 65}, {"time": 1389, "pitch": 44, "duration": 18, "velocity": 74}, {"time": 1393, "pitch": 51, "duration": 10, "velocity": 38}, {"time": 1397, "pitch": 56, "duration": 4, "velocity": 72}, {"time": 1401, "pitch": 68, "duration": 12, "velocity": 90}, {"time": 1401, "pitch": 71, "duration": 12, "velocity": 107}, {"time": 1405, "pitch": 51, "duration": 1, "velocity": 53}, {"time": 1409, "pitch": 63, "duration": 5, "velocity": 77}, {"time": 1413, "pitch": 37, "duration": 22, "velocity": 69}, {"time": 1417, "pitch": 44, "duration": 20, "velocity": 54}, {"time": 1421, "pitch": 49, "duration": 6, "velocity": 69}, {"time": 1425, "pitch": 52, "duration": 6, "velocity": 63}, {"time": 1425, "pitch": 56, "duration": 11, "velocity": 68}, {"time": 1429, "pitch": 49, "duration": 4, "velocity": 70}, {"time": 1433, "pitch": 52, "duration": 3, "velocity": 78}, {"time": 1437, "pitch": 37, "duration": 14, "velocity": 70}, {"time": 1441, "pitch": 44, "duration": 10, "velocity": 50}, {"time": 1445, "pitch": 49, "duration": 5, "velocity": 67}, {"time": 1449, "pitch": 61, "duration": 12, "velocity": 85}, {"time": 1449, "pitch": 64, "duration": 12, "velocity": 92}, {"time": 1457, "pitch": 56, "duration": 5, "velocity": 71}, {"time": 1461, "pitch": 42, "duration": 22, "velocity": 77}, {"time": 1465, "pitch": 49, "duration": 20, "velocity": 66}, {"time": 1469, "pitch": 54, "duration": 5, "velocity": 88}, {"time": 1473, "pitch": 61, "duration": 23, "velocity": 85}, {"time": 1473, "pitch": 66, "duration": 22, "velocity": 86}, {"time": 1477, "pitch": 54, "duration": 3, "velocity": 75}, {"time": 1481, "pitch": 58, "duration": 16, "velocity": 79}, {"time": 1485, "pitch": 42, "duration": 18, "velocity": 85}, {"time": 1493, "pitch": 49, "duration": 10, "velocity": 59}, {"time": 1497, "pitch": 61, "duration": 12, "velocity": 77}, {"time": 1497, "pitch": 66, "duration": 11, "velocity": 92}, {"time": 1501, "pitch": 54, "duration": 4, "velocity": 65}, {"time": 1505, "pitch": 58, "duration": 5, "velocity": 83}, {"time": 1509, "pitch": 47, "duration": 22, "velocity": 95}, {"time": 1513, "pitch": 51, "duration": 19, "velocity": 38}, {"time": 1517, "pitch": 54, "duration": 4, "velocity": 67}, {"time": 1521, "pitch": 59, "duration": 22, "velocity": 112}, {"time": 1521, "pitch": 63, "duration": 21, "velocity": 92}, {"time": 1521, "pitch": 66, "duration": 20, "velocity": 77}, {"time": 1525, "pitch": 54, "duration": 6, "velocity": 67}, {"time": 1529, "pitch": 58, "duration": 4, "velocity": 53}, {"time": 1533, "pitch": 47, "duration": 14, "velocity": 88}, {"time": 1537, "pitch": 51, "duration": 9, "velocity": 56}, {"time": 1541, "pitch": 54, "duration": 5, "velocity": 75}, {"time": 1545, "pitch": 66, "duration": 8, "velocity": 97}, {"time": 1549, "pitch": 63, "duration": 8, "velocity": 76}, {"time": 1553, "pitch": 59, "duration": 5, "velocity": 79}, {"time": 1557, "pitch": 49, "duration": 1, "velocity": 90}, {"time": 1557, "pitch": 37, "duration": 1, "velocity": 91}, {"time": 1561, "pitch": 49, "duration": 1, "velocity": 95}, {"time": 1561, "pitch": 37, "duration": 1, "velocity": 90}, {"time": 1565, "pitch": 49, "duration": 1, "velocity": 90}, {"time": 1565, "pitch": 37, "duration": 1, "velocity": 88}, {"time": 1569, "pitch": 49, "duration": 1, "velocity": 102}, {"time": 1569, "pitch": 37, "duration": 1, "velocity": 100}, {"time": 1569, "pitch": 61, "duration": 22, "velocity": 83}, {"time": 1569, "pitch": 64, "duration": 22, "velocity": 96}, {"time": 1577, "pitch": 37, "duration": 1, "velocity": 91}, {"time": 1577, "pitch": 49, "duration": 1, "velocity": 85}, {"time": 1577, "pitch": 56, "duration": 28, "velocity": 81}, {"time": 1581, "pitch": 37, "duration": 17, "velocity": 74}, {"time": 1585, "pitch": 44, "duration": 13, "velocity": 48}, {"time": 1589, "pitch": 49, "duration": 6, "velocity": 75}, {"time": 1593, "pitch": 64, "duration": 11, "velocity": 127}, {"time": 1597, "pitch": 49, "duration": 3, "velocity": 69}, {"time": 1601, "pitch": 61, "duration": 4, "velocity": 99}, {"time": 1605, "pitch": 44, "duration": 1, "velocity": 94}, {"time": 1605, "pitch": 32, "duration": 1, "velocity": 92}, {"time": 1609, "pitch": 32, "duration": 1, "velocity": 90}, {"time": 1609, "pitch": 44, "duration": 1, "velocity": 90}, {"time": 1609, "pitch": 51, "duration": 10, "velocity": 42}, {"time": 1613, "pitch": 56, "duration": 6, "velocity": 90}, {"time": 1613, "pitch": 44, "duration": 1, "velocity": 92}, {"time": 1613, "pitch": 32, "duration": 1, "velocity": 92}, {"time": 1617, "pitch": 59, "duration": 13, "velocity": 112}, {"time": 1617, "pitch": 32, "duration": 1, "velocity": 100}, {"time": 1617, "pitch": 44, "duration": 1, "velocity": 99}, {"time": 1621, "pitch": 51, "duration": 8, "velocity": 69}, {"time": 1625, "pitch": 58, "duration": 5, "velocity": 83}, {"time": 1629, "pitch": 44, "duration": 22, "velocity": 76}, {"time": 1633, "pitch": 51, "duration": 20, "velocity": 57}, {"time": 1637, "pitch": 56, "duration": 5, "velocity": 82}, {"time": 1641, "pitch": 63, "duration": 10, "velocity": 97}, {"time": 1645, "pitch": 61, "duration": 5, "velocity": 83}, {"time": 1649, "pitch": 59, "duration": 4, "velocity": 92}, {"time": 1653, "pitch": 46, "duration": 23, "velocity": 74}, {"time": 1657, "pitch": 58, "duration": 11, "velocity": 75}, {"time": 1661, "pitch": 61, "duration": 5, "velocity": 97}, {"time": 1665, "pitch": 64, "duration": 21, "velocity": 112}, {"time": 1669, "pitch": 61, "duration": 17, "velocity": 86}, {"time": 1673, "pitch": 58, "duration": 9, "velocity": 79}, {"time": 1677, "pitch": 46, "duration": 15, "velocity": 72}, {"time": 1681, "pitch": 52, "duration": 9, "velocity": 71}, {"time": 1685, "pitch": 58, "duration": 8, "velocity": 83}, {"time": 1689, "pitch": 64, "duration": 11, "velocity": 100}, {"time": 1693, "pitch": 61, "duration": 8, "velocity": 89}, {"time": 1697, "pitch": 58, "duration": 5, "velocity": 79}, {"time": 1701, "pitch": 39, "duration": 23, "velocity": 76}, {"time": 1705, "pitch": 46, "duration": 10, "velocity": 54}, {"time": 1709, "pitch": 51, "duration": 6, "velocity": 77}, {"time": 1713, "pitch": 55, "duration": 8, "velocity": 102}, {"time": 1717, "pitch": 46, "duration": 8, "velocity": 71}, {"time": 1721, "pitch": 58, "duration": 4, "velocity": 86}, {"time": 1725, "pitch": 39, "duration": 14, "velocity": 58}, {"time": 1725, "pitch": 46, "duration": 13, "velocity": 78}, {"time": 1725, "pitch": 51, "duration": 13, "velocity": 88}, {"time": 1725, "pitch": 58, "duration": 13, "velocity": 99}, {"time": 1725, "pitch": 63, "duration": 14, "velocity": 99}, {"time": 1725, "pitch": 67, "duration": 13, "velocity": 102}, {"time": 1749, "pitch": 37, "duration": 18, "velocity": 85}, {"time": 1751, "pitch": 44, "duration": 16, "velocity": 68}, {"time": 1753, "pitch": 49, "duration": 19, "velocity": 90}, {"time": 1755, "pitch": 56, "duration": 3, "velocity": 89}, {"time": 1757, "pitch": 61, "duration": 2, "velocity": 78}, {"time": 1759, "pitch": 56, "duration": 3, "velocity": 95}, {"time": 1761, "pitch": 64, "duration": 3, "velocity": 122}, {"time": 1763, "pitch": 56, "duration": 3, "velocity": 83}, {"time": 1765, "pitch": 61, "duration": 3, "velocity": 88}, {"time": 1767, "pitch": 64, "duration": 5, "velocity": 107}, {"time": 1769, "pitch": 61, "duration": 3, "velocity": 79}, {"time": 1771, "pitch": 56, "duration": 2, "velocity": 92}, {"time": 1773, "pitch": 42, "duration": 17, "velocity": 71}, {"time": 1775, "pitch": 49, "duration": 16, "velocity": 71}, {"time": 1777, "pitch": 54, "duration": 19, "velocity": 86}, {"time": 1779, "pitch": 58, "duration": 2, "velocity": 83}, {"time": 1781, "pitch": 61, "duration": 2, "velocity": 78}, {"time": 1783, "pitch": 58, "duration": 2, "velocity": 93}, {"time": 1785, "pitch": 66, "duration": 3, "velocity": 100}, {"time": 1787, "pitch": 58, "duration": 3, "velocity": 92}, {"time": 1789, "pitch": 61, "duration": 2, "velocity": 85}, {"time": 1791, "pitch": 58, "duration": 5, "velocity": 68}, {"time": 1793, "pitch": 66, "duration": 4, "velocity": 95}, {"time": 1795, "pitch": 61, "duration": 2, "velocity": 83}, {"time": 1797, "pitch": 47, "duration": 17, "velocity": 102}, {"time": 1799, "pitch": 51, "duration": 15, "velocity": 53}, {"time": 1801, "pitch": 54, "duration": 13, "velocity": 83}, {"time": 1803, "pitch": 59, "duration": 2, "velocity": 100}, {"time": 1805, "pitch": 63, "duration": 2, "velocity": 58}, {"time": 1807, "pitch": 59, "duration": 3, "velocity": 97}, {"time": 1809, "pitch": 66, "duration": 3, "velocity": 69}, {"time": 1811, "pitch": 59, "duration": 3, "velocity": 83}, {"time": 1813, "pitch": 63, "duration": 2, "velocity": 46}, {"time": 1815, "pitch": 66, "duration": 5, "velocity": 54}, {"time": 1817, "pitch": 59, "duration": 3, "velocity": 67}, {"time": 1819, "pitch": 63, "duration": 2, "velocity": 60}, {"time": 1821, "pitch": 40, "duration": 17, "velocity": 55}, {"time": 1823, "pitch": 52, "duration": 15, "velocity": 96}, {"time": 1825, "pitch": 56, "duration": 3, "velocity": 89}, {"time": 1827, "pitch": 59, "duration": 2, "velocity": 97}, {"time": 1829, "pitch": 56, "duration": 3, "velocity": 83}, {"time": 1831, "pitch": 59, "duration": 2, "velocity": 112}, {"time": 1833, "pitch": 64, "duration": 3, "velocity": 112}, {"time": 1835, "pitch": 56, "duration": 3, "velocity": 82}, {"time": 1837, "pitch": 59, "duration": 2, "velocity": 100}, {"time": 1839, "pitch": 64, "duration": 3, "velocity": 107}, {"time": 1841, "pitch": 59, "duration": 4, "velocity": 97}, {"time": 1845, "pitch": 46, "duration": 15, "velocity": 81}, {"time": 1845, "pitch": 64, "duration": 2, "velocity": 67}, {"time": 1847, "pitch": 58, "duration": 2, "velocity": 73}, {"time": 1849, "pitch": 61, "duration": 2, "velocity": 88}, {"time": 1851, "pitch": 58, "duration": 2, "velocity": 93}, {"time": 1853, "pitch": 61, "duration": 2, "velocity": 90}, {"time": 1855, "pitch": 58, "duration": 2, "velocity": 90}, {"time": 1857, "pitch": 64, "duration": 2, "velocity": 127}, {"time": 1859, "pitch": 58, "duration": 2, "velocity": 82}, {"time": 1861, "pitch": 61, "duration": 2, "velocity": 89}, {"time": 1863, "pitch": 58, "duration": 4, "velocity": 89}, {"time": 1865, "pitch": 64, "duration": 3, "velocity": 92}, {"time": 1867, "pitch": 61, "duration": 2, "velocity": 93}, {"time": 1869, "pitch": 39, "duration": 19, "velocity": 72}, {"time": 1871, "pitch": 46, "duration": 17, "velocity": 76}, {"time": 1873, "pitch": 51, "duration": 20, "velocity": 78}, {"time": 1875, "pitch": 55, "duration": 3, "velocity": 92}, {"time": 1877, "pitch": 58, "duration": 2, "velocity": 67}, {"time": 1879, "pitch": 55, "duration": 3, "velocity": 83}, {"time": 1881, "pitch": 63, "duration": 3, "velocity": 66}, {"time": 1883, "pitch": 55, "duration": 2, "velocity": 63}, {"time": 1885, "pitch": 58, "duration": 2, "velocity": 68}, {"time": 1887, "pitch": 55, "duration": 3, "velocity": 71}, {"time": 1889, "pitch": 63, "duration": 4, "velocity": 72}, {"time": 1891, "pitch": 55, "duration": 2, "velocity": 67}, {"time": 1893, "pitch": 44, "duration": 23, "velocity": 69}, {"time": 1895, "pitch": 51, "duration": 12, "velocity": 73}, {"time": 1897, "pitch": 56, "duration": 6, "velocity": 77}, {"time": 1899, "pitch": 58, "duration": 2, "velocity": 79}, {"time": 1901, "pitch": 59, "duration": 2, "velocity": 102}, {"time": 1903, "pitch": 58, "duration": 2, "velocity": 85}, {"time": 1905, "pitch": 63, "duration": 3, "velocity": 117}, {"time": 1907, "pitch": 59, "duration": 2, "velocity": 100}, {"time": 1909, "pitch": 56, "duration": 3, "velocity": 100}, {"time": 1911, "pitch": 59, "duration": 2, "velocity": 122}, {"time": 1913, "pitch": 63, "duration": 3, "velocity": 102}, {"time": 1915, "pitch": 56, "duration": 2, "velocity": 97}, {"time": 1917, "pitch": 44, "duration": 23, "velocity": 99}, {"time": 1919, "pitch": 51, "duration": 21, "velocity": 96}, {"time": 1921, "pitch": 56, "duration": 10, "velocity": 107}, {"time": 1923, "pitch": 60, "duration": 2, "velocity": 100}, {"time": 1925, "pitch": 63, "duration": 2, "velocity": 93}, {"time": 1927, "pitch": 60, "duration": 2, "velocity": 102}, {"time": 1929, "pitch": 68, "duration": 3, "velocity": 122}, {"time": 1931, "pitch": 60, "duration": 3, "velocity": 100}, {"time": 1933, "pitch": 63, "duration": 2, "velocity": 102}, {"time": 1935, "pitch": 60, "duration": 3, "velocity": 96}, {"time": 1937, "pitch": 68, "duration": 3, "velocity": 100}, {"time": 1939, "pitch": 60, "duration": 2, "velocity": 100}, {"time": 1941, "pitch": 37, "duration": 18, "velocity": 85}, {"time": 1943, "pitch": 44, "duration": 16, "velocity": 68}, {"time": 1945, "pitch": 49, "duration": 19, "velocity": 90}, {"time": 1947, "pitch": 56, "duration": 3, "velocity": 89}, {"time": 1949, "pitch": 61, "duration": 2, "velocity": 78}, {"time": 1951, "pitch": 56, "duration": 3, "velocity": 95}, {"time": 1953, "pitch": 64, "duration": 3, "velocity": 122}, {"time": 1955, "pitch": 56, "duration": 3, "velocity": 83}, {"time": 1957, "pitch": 61, "duration": 3, "velocity": 88}, {"time": 1959, "pitch": 64, "duration": 5, "velocity": 107}, {"time": 1961, "pitch": 61, "duration": 3, "velocity": 79}, {"time": 1963, "pitch": 56, "duration": 2, "velocity": 92}, {"time": 1965, "pitch": 42, "duration": 17, "velocity": 71}, {"time": 1967, "pitch": 49, "duration": 16, "velocity": 71}, {"time": 1969, "pitch": 54, "duration": 19, "velocity": 86}, {"time": 1971, "pitch": 58, "duration": 2, "velocity": 83}, {"time": 1973, "pitch": 61, "duration": 2, "velocity": 78}, {"time": 1975, "pitch": 58, "duration": 2, "velocity": 93}, {"time": 1977, "pitch": 66, "duration": 3, "velocity": 100}, {"time": 1979, "pitch": 58, "duration": 3, "velocity": 92}, {"time": 1981, "pitch": 61, "duration": 2, "velocity": 85}, {"time": 1983, "pitch": 58, "duration": 5, "velocity": 68}, {"time": 1985, "pitch": 66, "duration": 4, "velocity": 95}, {"time": 1987, "pitch": 61, "duration": 2, "velocity": 83}, {"time": 1989, "pitch": 47, "duration": 17, "velocity": 102}, {"time": 1991, "pitch": 51, "duration": 15, "velocity": 53}, {"time": 1993, "pitch": 54, "duration": 13, "velocity": 83}, {"time": 1995, "pitch": 59, "duration": 2, "velocity": 100}, {"time": 1997, "pitch": 63, "duration": 2, "velocity": 58}, {"time": 1999, "pitch": 59, "duration": 3, "velocity": 97}, {"time": 2001, "pitch": 66, "duration": 3, "velocity": 69}, {"time": 2003, "pitch": 59, "duration": 3, "velocity": 83}, {"time": 2005, "pitch": 63, "duration": 2, "velocity": 46}, {"time": 2007, "pitch": 66, "duration": 5, "velocity": 54}, {"time": 2009, "pitch": 59, "duration": 3, "velocity": 67}, {"time": 2011, "pitch": 63, "duration": 2, "velocity": 60}, {"time": 2013, "pitch": 40, "duration": 17, "velocity": 55}, {"time": 2015, "pitch": 52, "duration": 15, "velocity": 96}, {"time": 2017, "pitch": 56, "duration": 3, "velocity": 89}, {"time": 2019, "pitch": 59, "duration": 2, "velocity": 97}, {"time": 2021, "pitch": 56, "duration": 3, "velocity": 83}, {"time": 2023, "pitch": 59, "duration": 2, "velocity": 112}, {"time": 2025, "pitch": 64, "duration": 3, "velocity": 112}, {"time": 2027, "pitch": 56, "duration": 3, "velocity": 82}, {"time": 2029, "pitch": 59, "duration": 2, "velocity": 100}, {"time": 2031, "pitch": 64, "duration": 3, "velocity": 107}, {"time": 2033, "pitch": 59, "duration": 4, "velocity": 97}, {"time": 2037, "pitch": 46, "duration": 15, "velocity": 81}, {"time": 2037, "pitch": 64, "duration": 2, "velocity": 67}, {"time": 2039, "pitch": 58, "duration": 2, "velocity": 73}, {"time": 2041, "pitch": 61, "duration": 2, "velocity": 88}, {"time": 2043, "pitch": 58, "duration": 2, "velocity": 93}, {"time": 2045, "pitch": 61, "duration": 2, "velocity": 90}, {"time": 2047, "pitch": 58, "duration": 2, "velocity": 90}, {"time": 2049, "pitch": 64, "duration": 2, "velocity": 127}, {"time": 2051, "pitch": 58, "duration": 2, "velocity": 82}, {"time": 2053, "pitch": 61, "duration": 2, "velocity": 89}, {"time": 2055, "pitch": 58, "duration": 4, "velocity": 89}, {"time": 2057, "pitch": 64, "duration": 3, "velocity": 92}, {"time": 2059, "pitch": 61, "duration": 2, "velocity": 93}, {"time": 2061, "pitch": 39, "duration": 19, "velocity": 72}, {"time": 2063, "pitch": 46, "duration": 17, "velocity": 76}, {"time": 2065, "pitch": 51, "duration": 20, "velocity": 78}, {"time": 2067, "pitch": 55, "duration": 3, "velocity": 92}, {"time": 2069, "pitch": 58, "duration": 2, "velocity": 67}, {"time": 2071, "pitch": 55, "duration": 3, "velocity": 83}, {"time": 2073, "pitch": 63, "duration": 3, "velocity": 66}, {"time": 2075, "pitch": 55, "duration": 2, "velocity": 63}, {"time": 2077, "pitch": 58, "duration": 2, "velocity": 68}, {"time": 2079, "pitch": 55, "duration": 3, "velocity": 71}, {"time": 2081, "pitch": 63, "duration": 4, "velocity": 72}, {"time": 2083, "pitch": 55, "duration": 2, "velocity": 67}, {"time": 2085, "pitch": 44, "duration": 23, "velocity": 69}, {"time": 2087, "pitch": 51, "duration": 12, "velocity": 73}, {"time": 2089, "pitch": 56, "duration": 6, "velocity": 77}, {"time": 2091, "pitch": 58, "duration": 2, "velocity": 79}, {"time": 2093, "pitch": 59, "duration": 2, "velocity": 102}, {"time": 2095, "pitch": 58, "duration": 2, "velocity": 85}, {"time": 2097, "pitch": 63, "duration": 3, "velocity": 117}, {"time": 2099, "pitch": 59, "duration": 2, "velocity": 100}, {"time": 2101, "pitch": 56, "duration": 3, "velocity": 100}, {"time": 2103, "pitch": 59, "duration": 2, "velocity": 122}, {"time": 2105, "pitch": 63, "duration": 3, "velocity": 102}, {"time": 2107, "pitch": 56, "duration": 2, "velocity": 97}, {"time": 2109, "pitch": 44, "duration": 15, "velocity": 93}, {"time": 2109, "pitch": 60, "duration": 7, "velocity": 93}, {"time": 2109, "pitch": 63, "duration": 8, "velocity": 96}, {"time": 2113, "pitch": 51, "duration": 9, "velocity": 89}, {"time": 2115, "pitch": 56, "duration": 1, "velocity": 85}, {"time": 2117, "pitch": 56, "duration": 4, "velocity": 90}, {"time": 2119, "pitch": 60, "duration": 2, "velocity": 93}, {"time": 2121, "pitch": 42, "duration": 12, "velocity": 72}, {"time": 2121, "pitch": 63, "duration": 11, "velocity": 112}, {"time": 2123, "pitch": 51, "duration": 2, "velocity": 97}, {"time": 2125, "pitch": 60, "duration": 5, "velocity": 96}, {"time": 2129, "pitch": 56, "duration": 5, "velocity": 102}, {"time": 2133, "pitch": 40, "duration": 19, "velocity": 76}, {"time": 2137, "pitch": 49, "duration": 9, "velocity": 89}, {"time": 2139, "pitch": 56, "duration": 2, "velocity": 88}, {"time": 2141, "pitch": 61, "duration": 2, "velocity": 77}, {"time": 2143, "pitch": 56, "duration": 3, "velocity": 102}, {"time": 2145, "pitch": 64, "duration": 4, "velocity": 127}, {"time": 2147, "pitch": 49, "duration": 1, "velocity": 26}, {"time": 2147, "pitch": 56, "duration": 3, "velocity": 72}, {"time": 2149, "pitch": 61, "duration": 2, "velocity": 79}, {"time": 2151, "pitch": 56, "duration": 4, "velocity": 76}, {"time": 2153, "pitch": 64, "duration": 3, "velocity": 127}, {"time": 2155, "pitch": 61, "duration": 2, "velocity": 93}, {"time": 2157, "pitch": 42, "duration": 16, "velocity": 93}, {"time": 2159, "pitch": 49, "duration": 15, "velocity": 77}, {"time": 2161, "pitch": 54, "duration": 10, "velocity": 88}, {"time": 2163, "pitch": 58, "duration": 2, "velocity": 89}, {"time": 2165, "pitch": 61, "duration": 2, "velocity": 79}, {"time": 2167, "pitch": 58, "duration": 3, "velocity": 96}, {"time": 2169, "pitch": 66, "duration": 3, "velocity": 102}, {"time": 2171, "pitch": 58, "duration": 3, "velocity": 88}, {"time": 2173, "pitch": 61, "duration": 3, "velocity": 83}, {"time": 2175, "pitch": 58, "duration": 4, "velocity": 96}, {"time": 2177, "pitch": 66, "duration": 3, "velocity": 89}, {"time": 2179, "pitch": 61, "duration": 2, "velocity": 97}, {"time": 2181, "pitch": 47, "duration": 24, "velocity": 79}, {"time": 2183, "pitch": 54, "duration": 3, "velocity": 86}, {"time": 2185, "pitch": 59, "duration": 2, "velocity": 100}, {"time": 2187, "pitch": 54, "duration": 2, "velocity": 92}, {"time": 2189, "pitch": 59, "duration": 2, "velocity": 96}, {"time": 2191, "pitch": 54, "duration": 2, "velocity": 89}, {"time": 2193, "pitch": 66, "duration": 3, "velocity": 77}, {"time": 2195, "pitch": 54, "duration": 3, "velocity": 81}, {"time": 2197, "pitch": 59, "duration": 3, "velocity": 93}, {"time": 2199, "pitch": 54, "duration": 4, "velocity": 81}, {"time": 2201, "pitch": 63, "duration": 3, "velocity": 100}, {"time": 2203, "pitch": 59, "duration": 2, "velocity": 112}, {"time": 2205, "pitch": 40, "duration": 14, "velocity": 90}, {"time": 2207, "pitch": 47, "duration": 11, "velocity": 65}, {"time": 2209, "pitch": 52, "duration": 10, "velocity": 86}, {"time": 2211, "pitch": 56, "duration": 2, "velocity": 86}, {"time": 2213, "pitch": 59, "duration": 2, "velocity": 99}, {"time": 2215, "pitch": 56, "duration": 2, "velocity": 95}, {"time": 2217, "pitch": 64, "duration": 2, "velocity": 127}, {"time": 2219, "pitch": 56, "duration": 3, "velocity": 88}, {"time": 2221, "pitch": 59, "duration": 2, "velocity": 100}, {"time": 2223, "pitch": 56, "duration": 4, "velocity": 92}, {"time": 2225, "pitch": 64, "duration": 3, "velocity": 122}, {"time": 2227, "pitch": 59, "duration": 1, "velocity": 112}, {"time": 2229, "pitch": 46, "duration": 16, "velocity": 78}, {"time": 2231, "pitch": 58, "duration": 2, "velocity": 77}, {"time": 2233, "pitch": 61, "duration": 2, "velocity": 99}, {"time": 2235, "pitch": 58, "duration": 2, "velocity": 99}, {"time": 2237, "pitch": 61, "duration": 2, "velocity": 96}, {"time": 2239, "pitch": 58, "duration": 2, "velocity": 100}, {"time": 2241, "pitch": 64, "duration": 2, "velocity": 127}, {"time": 2243, "pitch": 58, "duration": 2, "velocity": 86}, {"time": 2245, "pitch": 61, "duration": 2, "velocity": 93}, {"time": 2247, "pitch": 58, "duration": 2, "velocity": 95}, {"time": 2249, "pitch": 64, "duration": 3, "velocity": 112}, {"time": 2251, "pitch": 61, "duration": 2, "velocity": 86}, {"time": 2253, "pitch": 39, "duration": 17, "velocity": 82}, {"time": 2255, "pitch": 46, "duration": 15, "velocity": 78}, {"time": 2257, "pitch": 51, "duration": 15, "velocity": 82}, {"time": 2259, "pitch": 55, "duration": 3, "velocity": 81}, {"time": 2261, "pitch": 58, "duration": 2, "velocity": 70}, {"time": 2263, "pitch": 55, "duration": 3, "velocity": 89}, {"time": 2265, "pitch": 63, "duration": 2, "velocity": 48}, {"time": 2267, "pitch": 55, "duration": 3, "velocity": 66}, {"time": 2269, "pitch": 58, "duration": 2, "velocity": 59}, {"time": 2271, "pitch": 55, "duration": 5, "velocity": 82}, {"time": 2273, "pitch": 63, "duration": 3, "velocity": 59}, {"time": 2275, "pitch": 58, "duration": 1, "velocity": 67}, {"time": 2277, "pitch": 44, "duration": 23, "velocity": 85}, {"time": 2279, "pitch": 51, "duration": 22, "velocity": 86}, {"time": 2281, "pitch": 56, "duration": 3, "velocity": 86}, {"time": 2283, "pitch": 59, "duration": 2, "velocity": 100}, {"time": 2285, "pitch": 58, "duration": 3, "velocity": 81}, {"time": 2287, "pitch": 59, "duration": 2, "velocity": 122}, {"time": 2289, "pitch": 63, "duration": 3, "velocity": 112}, {"time": 2291, "pitch": 59, "duration": 3, "velocity": 122}, {"time": 2293, "pitch": 58, "duration": 2, "velocity": 99}, {"time": 2295, "pitch": 59, "duration": 2, "velocity": 122}, {"time": 2297, "pitch": 63, "duration": 2, "velocity": 97}, {"time": 2299, "pitch": 59, "duration": 2, "velocity": 102}, {"time": 2301, "pitch": 44, "duration": 22, "velocity": 95}, {"time": 2305, "pitch": 51, "duration": 10, "velocity": 90}, {"time": 2309, "pitch": 56, "duration": 3, "velocity": 117}, {"time": 2313, "pitch": 60, "duration": 3, "velocity": 100}, {"time": 2313, "pitch": 63, "duration": 3, "velocity": 112}, {"time": 2317, "pitch": 51, "duration": 6, "velocity": 26}, {"time": 2317, "pitch": 60, "duration": 3, "velocity": 95}, {"time": 2317, "pitch": 63, "duration": 3, "velocity": 102}, {"time": 2321, "pitch": 56, "duration": 3, "velocity": 100}, {"time": 2321, "pitch": 60, "duration": 3, "velocity": 96}, {"time": 2321, "pitch": 63, "duration": 3, "velocity": 97}, {"time": 2325, "pitch": 37, "duration": 2, "velocity": 58}, {"time": 2325, "pitch": 44, "duration": 2, "velocity": 83}, {"time": 2325, "pitch": 49, "duration": 2, "velocity": 92}, {"time": 2325, "pitch": 61, "duration": 2, "velocity": 90}, {"time": 2325, "pitch": 64, "duration": 2, "velocity": 112}, {"time": 2325, "pitch": 68, "duration": 2, "velocity": 90}, {"time": 2329, "pitch": 37, "duration": 2, "velocity": 68}, {"time": 2329, "pitch": 44, "duration": 2, "velocity": 96}, {"time": 2329, "pitch": 49, "duration": 2, "velocity": 93}, {"time": 2329, "pitch": 61, "duration": 2, "velocity": 92}, {"time": 2329, "pitch": 64, "duration": 2, "velocity": 117}, {"time": 2329, "pitch": 68, "duration": 2, "velocity": 88}, {"time": 2333, "pitch": 37, "duration": 2, "velocity": 72}, {"time": 2333, "pitch": 44, "duration": 2, "velocity": 107}, {"time": 2333, "pitch": 49, "duration": 2, "velocity": 100}, {"time": 2333, "pitch": 61, "duration": 2, "velocity": 97}, {"time": 2333, "pitch": 64, "duration": 2, "velocity": 122}, {"time": 2333, "pitch": 68, "duration": 2, "velocity": 95}, {"time": 2337, "pitch": 37, "duration": 3, "velocity": 70}, {"time": 2337, "pitch": 44, "duration": 3, "velocity": 93}, {"time": 2337, "pitch": 49, "duration": 4, "velocity": 102}, {"time": 2337, "pitch": 61, "duration": 4, "velocity": 97}, {"time": 2337, "pitch": 64, "duration": 4, "velocity": 122}, {"time": 2337, "pitch": 68, "duration": 4, "velocity": 95}, {"time": 2349, "pitch": 42, "duration": 19, "velocity": 78}, {"time": 2353, "pitch": 49, "duration": 18, "velocity": 57}, {"time": 2357, "pitch": 54, "duration": 4, "velocity": 90}, {"time": 2361, "pitch": 58, "duration": 11, "velocity": 100}, {"time": 2365, "pitch": 61, "duration": 7, "velocity": 69}, {"time": 2369, "pitch": 54, "duration": 4, "velocity": 66}, {"time": 2373, "pitch": 47, "duration": 20, "velocity": 97}, {"time": 2377, "pitch": 51, "duration": 15, "velocity": 66}, {"time": 2381, "pitch": 54, "duration": 11, "velocity": 79}, {"time": 2385, "pitch": 63, "duration": 5, "velocity": 95}, {"time": 2389, "pitch": 59, "duration": 8, "velocity": 88}, {"time": 2393, "pitch": 63, "duration": 5, "velocity": 83}, {"time": 2397, "pitch": 40, "duration": 19, "velocity": 68}, {"time": 2401, "pitch": 47, "duration": 13, "velocity": 56}, {"time": 2405, "pitch": 52, "duration": 6, "velocity": 79}, {"time": 2409, "pitch": 64, "duration": 11, "velocity": 127}, {"time": 2413, "pitch": 52, "duration": 4, "velocity": 107}, {"time": 2417, "pitch": 59, "duration": 3, "velocity": 127}, {"time": 2421, "pitch": 46, "duration": 18, "velocity": 107}, {"time": 2421, "pitch": 58, "duration": 10, "velocity": 86}, {"time": 2421, "pitch": 61, "duration": 10, "velocity": 97}, {"time": 2421, "pitch": 64, "duration": 10, "velocity": 122}, {"time": 2429, "pitch": 52, "duration": 5, "velocity": 83}, {"time": 2433, "pitch": 61, "duration": 12, "velocity": 96}, {"time": 2433, "pitch": 64, "duration": 12, "velocity": 122}, {"time": 2437, "pitch": 52, "duration": 3, "velocity": 96}, {"time": 2441, "pitch": 58, "duration": 6, "velocity": 96}, {"time": 2445, "pitch": 39, "duration": 17, "velocity": 81}, {"time": 2449, "pitch": 46, "duration": 14, "velocity": 58}, {"time": 2453, "pitch": 51, "duration": 6, "velocity": 93}, {"time": 2457, "pitch": 58, "duration": 5, "velocity": 93}, {"time": 2457, "pitch": 63, "duration": 11, "velocity": 112}, {"time": 2457, "pitch": 67, "duration": 11, "velocity": 127}, {"time": 2461, "pitch": 51, "duration": 7, "velocity": 97}, {"time": 2465, "pitch": 58, "duration": 4, "velocity": 107}, {"time": 2469, "pitch": 44, "duration": 22, "velocity": 92}, {"time": 2473, "pitch": 51, "duration": 10, "velocity": 73}, {"time": 2477, "pitch": 56, "duration": 4, "velocity": 112}, {"time": 2481, "pitch": 63, "duration": 11, "velocity": 127}, {"time": 2485, "pitch": 51, "duration": 8, "velocity": 99}, {"time": 2485, "pitch": 59, "duration": 5, "velocity": 127}, {"time": 2489, "pitch": 56, "duration": 3, "velocity": 102}, {"time": 2493, "pitch": 44, "duration": 24, "velocity": 97}, {"time": 2495, "pitch": 51, "duration": 22, "velocity": 100}, {"time": 2497, "pitch": 56, "duration": 11, "velocity": 100}, {"time": 2499, "pitch": 60, "duration": 3, "velocity": 102}, {"time": 2501, "pitch": 63, "duration": 2, "velocity": 99}, {"time": 2503, "pitch": 60, "duration": 2, "velocity": 102}, {"time": 2505, "pitch": 68, "duration": 3, "velocity": 102}, {"time": 2507, "pitch": 60, "duration": 3, "velocity": 99}, {"time": 2509, "pitch": 63, "duration": 2, "velocity": 96}, {"time": 2511, "pitch": 60, "duration": 3, "velocity": 107}, {"time": 2513, "pitch": 68, "duration": 3, "velocity": 100}, {"time": 2515, "pitch": 63, "duration": 2, "velocity": 99}, {"time": 2517, "pitch": 37, "duration": 15, "velocity": 88}, {"time": 2519, "pitch": 44, "duration": 13, "velocity": 97}, {"time": 2521, "pitch": 49, "duration": 10, "velocity": 93}, {"time": 2523, "pitch": 56, "duration": 3, "velocity": 88}, {"time": 2525, "pitch": 61, "duration": 2, "velocity": 85}, {"time": 2527, "pitch": 56, "duration": 2, "velocity": 95}, {"time": 2529, "pitch": 64, "duration": 3, "velocity": 127}, {"time": 2531, "pitch": 56, "duration": 2, "velocity": 78}, {"time": 2533, "pitch": 61, "duration": 2, "velocity": 93}, {"time": 2535, "pitch": 56, "duration": 4, "velocity": 99}, {"time": 2537, "pitch": 64, "duration": 2, "velocity": 112}, {"time": 2539, "pitch": 61, "duration": 2, "velocity": 117}, {"time": 2541, "pitch": 42, "duration": 15, "velocity": 69}, {"time": 2543, "pitch": 49, "duration": 12, "velocity": 90}, {"time": 2545, "pitch": 54, "duration": 10, "velocity": 88}, {"time": 2547, "pitch": 58, "duration": 3, "velocity": 88}, {"time": 2549, "pitch": 61, "duration": 2, "velocity": 92}, {"time": 2551, "pitch": 58, "duration": 2, "velocity": 99}, {"time": 2553, "pitch": 66, "duration": 3, "velocity": 97}, {"time": 2555, "pitch": 58, "duration": 3, "velocity": 96}, {"time": 2557, "pitch": 61, "duration": 3, "velocity": 86}, {"time": 2559, "pitch": 58, "duration": 5, "velocity": 100}, {"time": 2561, "pitch": 66, "duration": 3, "velocity": 96}, {"time": 2563, "pitch": 61, "duration": 1, "velocity": 95}, {"time": 2565, "pitch": 47, "duration": 12, "velocity": 93}, {"time": 2567, "pitch": 59, "duration": 3, "velocity": 93}, {"time": 2569, "pitch": 63, "duration": 2, "velocity": 56}, {"time": 2571, "pitch": 59, "duration": 2, "velocity": 102}, {"time": 2573, "pitch": 63, "duration": 2, "velocity": 45}, {"time": 2575, "pitch": 59, "duration": 3, "velocity": 96}, {"time": 2577, "pitch": 66, "duration": 3, "velocity": 59}, {"time": 2579, "pitch": 59, "duration": 3, "velocity": 89}, {"time": 2581, "pitch": 63, "duration": 2, "velocity": 69}, {"time": 2583, "pitch": 59, "duration": 5, "velocity": 90}, {"time": 2585, "pitch": 66, "duration": 3, "velocity": 56}, {"time": 2587, "pitch": 63, "duration": 2, "velocity": 70}, {"time": 2589, "pitch": 40, "duration": 24, "velocity": 73}, {"time": 2591, "pitch": 47, "duration": 21, "velocity": 46}, {"time": 2593, "pitch": 52, "duration": 16, "velocity": 79}, {"time": 2595, "pitch": 56, "duration": 2, "velocity": 79}, {"time": 2597, "pitch": 59, "duration": 2, "velocity": 85}, {"time": 2599, "pitch": 56, "duration": 3, "velocity": 92}, {"time": 2601, "pitch": 64, "duration": 11, "velocity": 127}, {"time": 2605, "pitch": 59, "duration": 8, "velocity": 100}, {"time": 2609, "pitch": 56, "duration": 4, "velocity": 95}, {"time": 2613, "pitch": 63, "duration": 8, "velocity": 90}, {"time": 2613, "pitch": 71, "duration": 16, "velocity": 96}, {"time": 2613, "pitch": 64, "duration": 16, "velocity": 117}, {"time": 2613, "pitch": 68, "duration": 16, "velocity": 96}, {"time": 2613, "pitch": 52, "duration": 16, "velocity": 100}, {"time": 2637, "pitch": 46, "duration": 14, "velocity": 76}, {"time": 2637, "pitch": 58, "duration": 10, "velocity": 95}, {"time": 2637, "pitch": 61, "duration": 10, "velocity": 107}, {"time": 2637, "pitch": 64, "duration": 10, "velocity": 102}, {"time": 2649, "pitch": 64, "duration": 11, "velocity": 122}, {"time": 2649, "pitch": 61, "duration": 11, "velocity": 107}, {"time": 2653, "pitch": 46, "duration": 2, "velocity": 83}, {"time": 2657, "pitch": 58, "duration": 7, "velocity": 97}, {"time": 2661, "pitch": 39, "duration": 17, "velocity": 97}, {"time": 2665, "pitch": 46, "duration": 14, "velocity": 63}, {"time": 2669, "pitch": 51, "duration": 6, "velocity": 88}, {"time": 2673, "pitch": 63, "duration": 11, "velocity": 102}, {"time": 2677, "pitch": 51, "duration": 5, "velocity": 77}, {"time": 2681, "pitch": 58, "duration": 4, "velocity": 100}, {"time": 2685, "pitch": 44, "duration": 20, "velocity": 88}, {"time": 2689, "pitch": 51, "duration": 10, "velocity": 72}, {"time": 2693, "pitch": 56, "duration": 5, "velocity": 88}, {"time": 2697, "pitch": 59, "duration": 8, "velocity": 127}, {"time": 2701, "pitch": 51, "duration": 8, "velocity": 88}, {"time": 2705, "pitch": 58, "duration": 3, "velocity": 96}, {"time": 2707, "pitch": 59, "duration": 1, "velocity": 31}, {"time": 2709, "pitch": 59, "duration": 23, "velocity": 65}, {"time": 2709, "pitch": 56, "duration": 23, "velocity": 92}, {"time": 2709, "pitch": 63, "duration": 23, "velocity": 72}, {"time": 2709, "pitch": 44, "duration": 23, "velocity": 96}, {"time": 2733, "pitch": 44, "duration": 23, "velocity": 86}, {"time": 2737, "pitch": 51, "duration": 10, "velocity": 61}, {"time": 2741, "pitch": 56, "duration": 6, "velocity": 81}, {"time": 2745, "pitch": 63, "duration": 21, "velocity": 99}, {"time": 2749, "pitch": 51, "duration": 8, "velocity": 63}, {"time": 2753, "pitch": 59, "duration": 14, "velocity": 71}, {"time": 2757, "pitch": 44, "duration": 16, "velocity": 81}, {"time": 2765, "pitch": 51, "duration": 8, "velocity": 55}, {"time": 2769, "pitch": 63, "duration": 13, "velocity": 100}, {"time": 2773, "pitch": 59, "duration": 9, "velocity": 81}, {"time": 2777, "pitch": 56, "duration": 5, "velocity": 70}, {"time": 2781, "pitch": 37, "duration": 22, "velocity": 82}, {"time": 2785, "pitch": 44, "duration": 21, "velocity": 59}, {"time": 2789, "pitch": 49, "duration": 6, "velocity": 88}, {"time": 2793, "pitch": 64, "duration": 23, "velocity": 117}, {"time": 2797, "pitch": 49, "duration": 9, "velocity": 66}, {"time": 2801, "pitch": 61, "duration": 16, "velocity": 85}, {"time": 2805, "pitch": 37, "duration": 16, "velocity": 76}, {"time": 2813, "pitch": 44, "duration": 9, "velocity": 54}, {"time": 2817, "pitch": 64, "duration": 12, "velocity": 112}, {"time": 2821, "pitch": 61, "duration": 9, "velocity": 69}, {"time": 2825, "pitch": 56, "duration": 4, "velocity": 66}, {"time": 2829, "pitch": 42, "duration": 21, "velocity": 78}, {"time": 2833, "pitch": 49, "duration": 20, "velocity": 59}, {"time": 2837, "pitch": 54, "duration": 6, "velocity": 82}, {"time": 2841, "pitch": 61, "duration": 9, "velocity": 117}, {"time": 2845, "pitch": 54, "duration": 8, "velocity": 73}, {"time": 2849, "pitch": 58, "duration": 25, "velocity": 77}, {"time": 2853, "pitch": 42, "duration": 18, "velocity": 69}, {"time": 2857, "pitch": 49, "duration": 14, "velocity": 58}, {"time": 2861, "pitch": 54, "duration": 6, "velocity": 53}, {"time": 2865, "pitch": 66, "duration": 11, "velocity": 99}, {"time": 2869, "pitch": 54, "duration": 5, "velocity": 58}, {"time": 2873, "pitch": 61, "duration": 4, "velocity": 89}, {"time": 2877, "pitch": 47, "duration": 22, "velocity": 97}, {"time": 2881, "pitch": 51, "duration": 21, "velocity": 61}, {"time": 2885, "pitch": 54, "duration": 5, "velocity": 70}, {"time": 2889, "pitch": 59, "duration": 14, "velocity": 100}, {"time": 2893, "pitch": 54, "duration": 9, "velocity": 63}, {"time": 2897, "pitch": 63, "duration": 6, "velocity": 71}, {"time": 2905, "pitch": 39, "duration": 12, "velocity": 52}, {"time": 2906, "pitch": 46, "duration": 12, "velocity": 37}, {"time": 2906, "pitch": 58, "duration": 14, "velocity": 64}, {"time": 2907, "pitch": 51, "duration": 12, "velocity": 36}, {"time": 2908, "pitch": 63, "duration": 12, "velocity": 66}, {"time": 2909, "pitch": 66, "duration": 11, "velocity": 86}, {"time": 2928, "pitch": 51, "duration": 26, "velocity": 55}, {"time": 2928, "pitch": 44, "duration": 27, "velocity": 51}, {"time": 2928, "pitch": 56, "duration": 26, "velocity": 72}, {"time": 2929, "pitch": 59, "duration": 25, "velocity": 64}, {"time": 2930, "pitch": 63, "duration": 24, "velocity": 77}], "annotations": [{"time": 21, "annotation": {"number": 64, "value": 127}, "group": "control_change"}, {"time": 43, "annotation": {"number": 64, "value": 0}, "group": "control_change"}, {"time": 46, "annotation": {"number": 64, "value": 127}, "group": "control_change"}, {"time": 67, "annotation": {"number": 64, "value": 0}, "group": "control_change"}, {"time": 70, "annotation": {"number": 64, "value": 127}, "group": "control_change"}, {"time": 91, "annotation": {"number": 64, "value": 0}, "group": "control_change"}, {"time": 93, "annotation": {"number": 64, "value": 127}, "group": "control_change"}, {"time": 115, "annotation": {"number": 64, "value": 0}, "group": "control_change"}, {"time": 118, "annotation": {"number": 64, "value": 127}, "group": "control_change"}, {"time": 139, "annotation": {"number": 64, "value": 0}, "group": "control_change"}, {"time": 141, "annotation": {"number": 64, "value": 127}, "group": "control_change"}, {"time": 163, "annotation": {"number": 64, "value": 0}, "group": "control_change"}, {"time": 165, "annotation": {"number": 64, "value": 127}, "group": "control_change"}, {"time": 188, "annotation": {"number": 64, "value": 0}, "group": "control_change"}, {"time": 213, "annotation": {"number": 64, "value": 127}, "group": "control_change"}, {"time": 236, "annotation": {"number": 64, "value": 0}, "group": "control_change"}, {"time": 237, "annotation": {"number": 64, "value": 127}, "group": "control_change"}, {"time": 259, "annotation": {"number": 64, "value": 0}, "group": "control_change"}, {"time": 261, "annotation": {"number": 64, "value": 127}, "group": "control_change"}, {"time": 283, "annotation": {"number": 64, "value": 0}, "group": "control_change"}, {"time": 285, "annotation": {"number": 64, "value": 127}, "group": "control_change"}, {"time": 306, "annotation": {"number": 64, "value": 0}, "group": "control_change"}, {"time": 309, "annotation": {"number": 64, "value": 127}, "group": "control_change"}, {"time": 330, "annotation": {"number": 64, "value": 0}, "group": "control_change"}, {"time": 333, "annotation": {"number": 64, "value": 127}, "group": "control_change"}, {"time": 354, "annotation": {"number": 64, "value": 0}, "group": "control_change"}, {"time": 357, "annotation": {"number": 64, "value": 127}, "group": "control_change"}, {"time": 378, "annotation": {"number": 64, "value": 0}, "group": "control_change"}, {"time": 381, "annotation": {"number": 64, "value": 127}, "group": "control_change"}, {"time": 402, "annotation": {"number": 64, "value": 0}, "group": "control_change"}, {"time": 405, "annotation": {"number": 64, "value": 127}, "group": "control_change"}, {"time": 426, "annotation": {"number": 64, "value": 0}, "group": "control_change"}, {"time": 429, "annotation": {"number": 64, "value": 127}, "group": "control_change"}, {"time": 450, "annotation": {"number": 64, "value": 0}, "group": "control_change"}, {"time": 453, "annotation": {"number": 64, "value": 127}, "group": "control_change"}, {"time": 474, "annotation": {"number": 64, "value": 0}, "group": "control_change"}, {"time": 477, "annotation": {"number": 64, "value": 127}, "group": "control_change"}, {"time": 498, "annotation": {"number": 64, "value": 0}, "group": "control_change"}, {"time": 501, "annotation": {"number": 64, "value": 127}, "group": "control_change"}, {"time": 522, "annotation": {"number": 64, "value": 0}, "group": "control_change"}, {"time": 525, "annotation": {"number": 64, "value": 127}, "group": "control_change"}, {"time": 546, "annotation": {"number": 64, "value": 0}, "group": "control_change"}, {"time": 550, "annotation": {"number": 64, "value": 127}, "group": "control_change"}, {"time": 570, "annotation": {"number": 64, "value": 0}, "group": "control_change"}, {"time": 620, "annotation": {"number": 64, "value": 0}, "group": "control_change"}, {"time": 621, "annotation": {"number": 64, "value": 127}, "group": "control_change"}, {"time": 643, "annotation": {"number": 64, "value": 0}, "group": "control_change"}, {"time": 645, "annotation": {"number": 64, "value": 127}, "group": "control_change"}, {"time": 667, "annotation": {"number": 64, "value": 0}, "group": "control_change"}, {"time": 669, "annotation": {"number": 64, "value": 127}, "group": "control_change"}, {"time": 690, "annotation": {"number": 64, "value": 0}, "group": "control_change"}, {"time": 693, "annotation": {"number": 64, "value": 127}, "group": "control_change"}, {"time": 714, "annotation": {"number": 64, "value": 0}, "group": "control_change"}, {"time": 717, "annotation": {"number": 64, "value": 127}, "group": "control_change"}, {"time": 738, "annotation": {"number": 64, "value": 0}, "group": "control_change"}, {"time": 741, "annotation": {"number": 64, "value": 127}, "group": "control_change"}, {"time": 762, "annotation": {"number": 64, "value": 0}, "group": "control_change"}, {"time": 765, "annotation": {"number": 64, "value": 127}, "group": "control_change"}, {"time": 786, "annotation": {"number": 64, "value": 0}, "group": "control_change"}, {"time": 789, "annotation": {"number": 64, "value": 127}, "group": "control_change"}, {"time": 810, "annotation": {"number": 64, "value": 0}, "group": "control_change"}, {"time": 813, "annotation": {"number": 64, "value": 127}, "group": "control_change"}, {"time": 834, "annotation": {"number": 64, "value": 0}, "group": "control_change"}, {"time": 837, "annotation": {"number": 64, "value": 127}, "group": "control_change"}, {"time": 858, "annotation": {"number": 64, "value": 0}, "group": "control_change"}, {"time": 861, "annotation": {"number": 64, "value": 127}, "group": "control_change"}, {"time": 882, "annotation": {"number": 64, "value": 0}, "group": "control_change"}, {"time": 885, "annotation": {"number": 64, "value": 127}, "group": "control_change"}, {"time": 906, "annotation": {"number": 64, "value": 0}, "group": "control_change"}, {"time": 909, "annotation": {"number": 64, "value": 127}, "group": "control_change"}, {"time": 930, "annotation": {"number": 64, "value": 0}, "group": "control_change"}, {"time": 934, "annotation": {"number": 64, "value": 127}, "group": "control_change"}, {"time": 954, "annotation": {"number": 64, "value": 0}, "group": "control_change"}, {"time": 967, "annotation": {"number": 64, "value": 127}, "group": "control_change"}, {"time": 979, "annotation": {"number": 64, "value": 0}, "group": "control_change"}, {"time": 1072, "annotation": {"number": 64, "value": 127}, "group": "control_change"}, {"time": 1076, "annotation": {"number": 64, "value": 0}, "group": "control_change"}, {"time": 1078, "annotation": {"number": 64, "value": 127}, "group": "control_change"}, {"time": 1100, "annotation": {"number": 64, "value": 0}, "group": "control_change"}, {"time": 1102, "annotation": {"number": 64, "value": 127}, "group": "control_change"}, {"time": 1124, "annotation": {"number": 64, "value": 0}, "group": "control_change"}, {"time": 1126, "annotation": {"number": 64, "value": 127}, "group": "control_change"}, {"time": 1148, "annotation": {"number": 64, "value": 0}, "group": "control_change"}, {"time": 1150, "annotation": {"number": 64, "value": 127}, "group": "control_change"}, {"time": 1172, "annotation": {"number": 64, "value": 0}, "group": "control_change"}, {"time": 1264, "annotation": {"number": 64, "value": 127}, "group": "control_change"}, {"time": 1268, "annotation": {"number": 64, "value": 0}, "group": "control_change"}, {"time": 1270, "annotation": {"number": 64, "value": 127}, "group": "control_change"}, {"time": 1292, "annotation": {"number": 64, "value": 0}, "group": "control_change"}, {"time": 1294, "annotation": {"number": 64, "value": 127}, "group": "control_change"}, {"time": 1316, "annotation": {"number": 64, "value": 0}, "group": "control_change"}, {"time": 1318, "annotation": {"number": 64, "value": 127}, "group": "control_change"}, {"time": 1340, "annotation": {"number": 64, "value": 0}, "group": "control_change"}, {"time": 1342, "annotation": {"number": 64, "value": 127}, "group": "control_change"}, {"time": 1356, "annotation": {"number": 64, "value": 0}, "group": "control_change"}, {"time": 1388, "annotation": {"number": 64, "value": 0}, "group": "control_change"}, {"time": 1389, "annotation": {"number": 64, "value": 127}, "group": "control_change"}, {"time": 1411, "annotation": {"number": 64, "value": 0}, "group": "control_change"}, {"time": 1413, "annotation": {"number": 64, "value": 127}, "group": "control_change"}, {"time": 1435, "annotation": {"number": 64, "value": 0}, "group": "control_change"}, {"time": 1437, "annotation": {"number": 64, "value": 127}, "group": "control_change"}, {"time": 1458, "annotation": {"number": 64, "value": 0}, "group": "control_change"}, {"time": 1461, "annotation": {"number": 64, "value": 127}, "group": "control_change"}, {"time": 1482, "annotation": {"number": 64, "value": 0}, "group": "control_change"}, {"time": 1485, "annotation": {"number": 64, "value": 127}, "group": "control_change"}, {"time": 1506, "annotation": {"number": 64, "value": 0}, "group": "control_change"}, {"time": 1509, "annotation": {"number": 64, "value": 127}, "group": "control_change"}, {"time": 1530, "annotation": {"number": 64, "value": 0}, "group": "control_change"}, {"time": 1533, "annotation": {"number": 64, "value": 127}, "group": "control_change"}, {"time": 1554, "annotation": {"number": 64, "value": 0}, "group": "control_change"}, {"time": 1557, "annotation": {"number": 64, "value": 127}, "group": "control_change"}, {"time": 1578, "annotation": {"number": 64, "value": 0}, "group": "control_change"}, {"time": 1581, "annotation": {"number": 64, "value": 127}, "group": "control_change"}, {"time": 1602, "annotation": {"number": 64, "value": 0}, "group": "control_change"}, {"time": 1605, "annotation": {"number": 64, "value": 127}, "group": "control_change"}, {"time": 1626, "annotation": {"number": 64, "value": 0}, "group": "control_change"}, {"time": 1629, "annotation": {"number": 64, "value": 127}, "group": "control_change"}, {"time": 1650, "annotation": {"number": 64, "value": 0}, "group": "control_change"}, {"time": 1653, "annotation": {"number": 64, "value": 127}, "group": "control_change"}, {"time": 1674, "annotation": {"number": 64, "value": 0}, "group": "control_change"}, {"time": 1677, "annotation": {"number": 64, "value": 127}, "group": "control_change"}, {"time": 1698, "annotation": {"number": 64, "value": 0}, "group": "control_change"}, {"time": 1702, "annotation": {"number": 64, "value": 127}, "group": "control_change"}, {"time": 1722, "annotation": {"number": 64, "value": 0}, "group": "control_change"}, {"time": 1735, "annotation": {"number": 64, "value": 127}, "group": "control_change"}, {"time": 1747, "annotation": {"number": 64, "value": 0}, "group": "control_change"}, {"time": 1840, "annotation": {"number": 64, "value": 127}, "group": "control_change"}, {"time": 1844, "annotation": {"number": 64, "value": 0}, "group": "control_change"}, {"time": 1846, "annotation": {"number": 64, "value": 127}, "group": "control_change"}, {"time": 1868, "annotation": {"number": 64, "value": 0}, "group": "control_change"}, {"time": 1870, "annotation": {"number": 64, "value": 127}, "group": "control_change"}, {"time": 1892, "annotation": {"number": 64, "value": 0}, "group": "control_change"}, {"time": 1894, "annotation": {"number": 64, "value": 127}, "group": "control_change"}, {"time": 1916, "annotation": {"number": 64, "value": 0}, "group": "control_change"}, {"time": 1918, "annotation": {"number": 64, "value": 127}, "group": "control_change"}, {"time": 1940, "annotation": {"number": 64, "value": 0}, "group": "control_change"}, {"time": 2032, "annotation": {"number": 64, "value": 127}, "group": "control_change"}, {"time": 2036, "annotation": {"number": 64, "value": 0}, "group": "control_change"}, {"time": 2038, "annotation": {"number": 64, "value": 127}, "group": "control_change"}, {"time": 2060, "annotation": {"number": 64, "value": 0}, "group": "control_change"}, {"time": 2062, "annotation": {"number": 64, "value": 127}, "group": "control_change"}, {"time": 2084, "annotation": {"number": 64, "value": 0}, "group": "control_change"}, {"time": 2086, "annotation": {"number": 64, "value": 127}, "group": "control_change"}, {"time": 2108, "annotation": {"number": 64, "value": 0}, "group": "control_change"}, {"time": 2109, "annotation": {"number": 64, "value": 127}, "group": "control_change"}, {"time": 2131, "annotation": {"number": 64, "value": 0}, "group": "control_change"}, {"time": 2134, "annotation": {"number": 64, "value": 127}, "group": "control_change"}, {"time": 2156, "annotation": {"number": 64, "value": 0}, "group": "control_change"}, {"time": 2158, "annotation": {"number": 64, "value": 127}, "group": "control_change"}, {"time": 2179, "annotation": {"number": 64, "value": 0}, "group": "control_change"}, {"time": 2181, "annotation": {"number": 64, "value": 127}, "group": "control_change"}, {"time": 2203, "annotation": {"number": 64, "value": 0}, "group": "control_change"}, {"time": 2206, "annotation": {"number": 64, "value": 127}, "group": "control_change"}, {"time": 2228, "annotation": {"number": 64, "value": 0}, "group": "control_change"}, {"time": 2230, "annotation": {"number": 64, "value": 127}, "group": "control_change"}, {"time": 2252, "annotation": {"number": 64, "value": 0}, "group": "control_change"}, {"time": 2254, "annotation": {"number": 64, "value": 127}, "group": "control_change"}, {"time": 2275, "annotation": {"number": 64, "value": 0}, "group": "control_change"}, {"time": 2277, "annotation": {"number": 64, "value": 127}, "group": "control_change"}, {"time": 2299, "annotation": {"number": 64, "value": 0}, "group": "control_change"}, {"time": 2337, "annotation": {"number": 64, "value": 127}, "group": "control_change"}, {"time": 2345, "annotation": {"number": 64, "value": 0}, "group": "control_change"}, {"time": 2350, "annotation": {"number": 64, "value": 127}, "group": "control_change"}, {"time": 2371, "annotation": {"number": 64, "value": 0}, "group": "control_change"}, {"time": 2374, "annotation": {"number": 64, "value": 127}, "group": "control_change"}, {"time": 2395, "annotation": {"number": 64, "value": 0}, "group": "control_change"}, {"time": 2398, "annotation": {"number": 64, "value": 127}, "group": "control_change"}, {"time": 2417, "annotation": {"number": 64, "value": 0}, "group": "control_change"}, {"time": 2445, "annotation": {"number": 64, "value": 127}, "group": "control_change"}, {"time": 2465, "annotation": {"number": 64, "value": 0}, "group": "control_change"}, {"time": 2469, "annotation": {"number": 64, "value": 127}, "group": "control_change"}, {"time": 2487, "annotation": {"number": 64, "value": 0}, "group": "control_change"}, {"time": 2487, "annotation": {"number": 64, "value": 127}, "group": "control_change"}, {"time": 2493, "annotation": {"number": 64, "value": 127}, "group": "control_change"}, {"time": 2513, "annotation": {"number": 64, "value": 0}, "group": "control_change"}, {"time": 2517, "annotation": {"number": 64, "value": 127}, "group": "control_change"}, {"time": 2540, "annotation": {"number": 64, "value": 0}, "group": "control_change"}, {"time": 2542, "annotation": {"number": 64, "value": 127}, "group": "control_change"}, {"time": 2563, "annotation": {"number": 64, "value": 0}, "group": "control_change"}, {"time": 2566, "annotation": {"number": 64, "value": 127}, "group": "control_change"}, {"time": 2587, "annotation": {"number": 64, "value": 0}, "group": "control_change"}, {"time": 2590, "annotation": {"number": 64, "value": 127}, "group": "control_change"}, {"time": 2610, "annotation": {"number": 64, "value": 0}, "group": "control_change"}, {"time": 2618, "annotation": {"number": 64, "value": 127}, "group": "control_change"}, {"time": 2637, "annotation": {"number": 64, "value": 0}, "group": "control_change"}, {"time": 2643, "annotation": {"number": 64, "value": 127}, "group": "control_change"}, {"time": 2659, "annotation": {"number": 64, "value": 0}, "group": "control_change"}, {"time": 2662, "annotation": {"number": 64, "value": 127}, "group": "control_change"}, {"time": 2682, "annotation": {"number": 64, "value": 0}, "group": "control_change"}, {"time": 2686, "annotation": {"number": 64, "value": 127}, "group": "control_change"}, {"time": 2708, "annotation": {"number": 64, "value": 0}, "group": "control_change"}, {"time": 2735, "annotation": {"number": 64, "value": 127}, "group": "control_change"}, {"time": 2754, "annotation": {"number": 64, "value": 0}, "group": "control_change"}, {"time": 2757, "annotation": {"number": 64, "value": 127}, "group": "control_change"}, {"time": 2778, "annotation": {"number": 64, "value": 0}, "group": "control_change"}, {"time": 2781, "annotation": {"number": 64, "value": 127}, "group": "control_change"}, {"time": 2801, "annotation": {"number": 64, "value": 0}, "group": "control_change"}, {"time": 2805, "annotation": {"number": 64, "value": 127}, "group": "control_change"}, {"time": 2826, "annotation": {"number": 64, "value": 0}, "group": "control_change"}, {"time": 2830, "annotation": {"number": 64, "value": 127}, "group": "control_change"}, {"time": 2850, "annotation": {"number": 64, "value": 0}, "group": "control_change"}, {"time": 2853, "annotation": {"number": 64, "value": 127}, "group": "control_change"}, {"time": 2874, "annotation": {"number": 64, "value": 0}, "group": "control_change"}, {"time": 2878, "annotation": {"number": 64, "value": 127}, "group": "control_change"}, {"time": 2900, "annotation": {"number": 64, "value": 0}, "group": "control_change"}, {"time": 2911, "annotation": {"number": 64, "value": 127}, "group": "control_change"}, {"time": 2930, "annotation": {"number": 64, "value": 0}, "group": "control_change"}, {"time": 2947, "annotation": {"number": 64, "value": 127}, "group": "control_change"}, {"time": 2971, "annotation": {"number": 64, "value": 0}, "group": "control_change"}, {"time": 2972, "annotation": {"number": 64, "value": 127}, "group": "control_change"}, {"time": 2973, "annotation": {"number": 64, "value": 0}, "group": "control_change"}]}]}