{"metadata": {"schema_version": "0.2", "title": "None", "source_filename": "776.mid", "source_format": "midi"}, "resolution": 12, "tempos": [{"time": 0, "qpm": 61.99999586666694}, {"time": 1538, "qpm": 61.900021149173895}, {"time": 2306, "qpm": 61.99999586666694}], "time_signatures": [{"time": 0, "numerator": 1, "denominator": 4}], "tracks": [{"program": 0, "is_drum": false, "name": "MELODY", "notes": [{"time": 404, "pitch": 66, "duration": 2, "velocity": 100}, {"time": 407, "pitch": 66, "duration": 1, "velocity": 96}, {"time": 410, "pitch": 66, "duration": 5, "velocity": 102}, {"time": 416, "pitch": 64, "duration": 2, "velocity": 86}, {"time": 419, "pitch": 66, "duration": 1, "velocity": 86}, {"time": 422, "pitch": 66, "duration": 4, "velocity": 117}, {"time": 428, "pitch": 64, "duration": 2, "velocity": 93}, {"time": 431, "pitch": 66, "duration": 2, "velocity": 99}, {"time": 437, "pitch": 71, "duration": 8, "velocity": 95}, {"time": 452, "pitch": 62, "duration": 2, "velocity": 97}, {"time": 455, "pitch": 64, "duration": 2, "velocity": 69}, {"time": 458, "pitch": 64, "duration": 4, "velocity": 99}, {"time": 464, "pitch": 62, "duration": 2, "velocity": 86}, {"time": 467, "pitch": 64, "duration": 2, "velocity": 74}, {"time": 470, "pitch": 64, "duration": 5, "velocity": 89}, {"time": 476, "pitch": 62, "duration": 2, "velocity": 93}, {"time": 479, "pitch": 64, "duration": 4, "velocity": 96}, {"time": 485, "pitch": 69, "duration": 13, "velocity": 96}, {"time": 500, "pitch": 62, "duration": 5, "velocity": 93}, {"time": 506, "pitch": 67, "duration": 4, "velocity": 83}, {"time": 512, "pitch": 67, "duration": 1, "velocity": 92}, {"time": 515, "pitch": 67, "duration": 6, "velocity": 92}, {"time": 524, "pitch": 66, "duration": 2, "velocity": 88}, {"time": 527, "pitch": 67, "duration": 5, "velocity": 85}, {"time": 536, "pitch": 66, "duration": 1, "velocity": 89}, {"time": 539, "pitch": 66, "duration": 5, "velocity": 88}, {"time": 548, "pitch": 64, "duration": 3, "velocity": 82}, {"time": 551, "pitch": 67, "duration": 3, "velocity": 79}, {"time": 554, "pitch": 66, "duration": 21, "velocity": 56}, {"time": 596, "pitch": 64, "duration": 2, "velocity": 96}, {"time": 599, "pitch": 66, "duration": 2, "velocity": 90}, {"time": 602, "pitch": 66, "duration": 4, "velocity": 102}, {"time": 608, "pitch": 64, "duration": 2, "velocity": 86}, {"time": 611, "pitch": 66, "duration": 1, "velocity": 93}, {"time": 614, "pitch": 66, "duration": 4, "velocity": 99}, {"time": 620, "pitch": 64, "duration": 2, "velocity": 81}, {"time": 623, "pitch": 66, "duration": 3, "velocity": 97}, {"time": 629, "pitch": 71, "duration": 8, "velocity": 99}, {"time": 644, "pitch": 71, "duration": 2, "velocity": 97}, {"time": 647, "pitch": 73, "duration": 1, "velocity": 102}, {"time": 650, "pitch": 73, "duration": 3, "velocity": 122}, {"time": 656, "pitch": 71, "duration": 1, "velocity": 92}, {"time": 659, "pitch": 73, "duration": 1, "velocity": 107}, {"time": 662, "pitch": 73, "duration": 3, "velocity": 117}, {"time": 668, "pitch": 76, "duration": 4, "velocity": 112}, {"time": 674, "pitch": 74, "duration": 10, "velocity": 107}, {"time": 686, "pitch": 74, "duration": 2, "velocity": 107}, {"time": 689, "pitch": 76, "duration": 1, "velocity": 97}, {"time": 692, "pitch": 78, "duration": 3, "velocity": 122}, {"time": 698, "pitch": 78, "duration": 4, "velocity": 127}, {"time": 704, "pitch": 76, "duration": 1, "velocity": 96}, {"time": 707, "pitch": 76, "duration": 3, "velocity": 117}, {"time": 716, "pitch": 74, "duration": 1, "velocity": 100}, {"time": 719, "pitch": 74, "duration": 4, "velocity": 127}, {"time": 734, "pitch": 74, "duration": 3, "velocity": 96}, {"time": 737, "pitch": 76, "duration": 2, "velocity": 93}, {"time": 740, "pitch": 78, "duration": 3, "velocity": 112}, {"time": 746, "pitch": 78, "duration": 4, "velocity": 127}, {"time": 752, "pitch": 76, "duration": 1, "velocity": 85}, {"time": 755, "pitch": 76, "duration": 4, "velocity": 112}, {"time": 764, "pitch": 74, "duration": 2, "velocity": 107}, {"time": 767, "pitch": 76, "duration": 4, "velocity": 107}, {"time": 776, "pitch": 69, "duration": 3, "velocity": 93}, {"time": 782, "pitch": 74, "duration": 3, "velocity": 102}, {"time": 788, "pitch": 73, "duration": 2, "velocity": 122}, {"time": 791, "pitch": 74, "duration": 5, "velocity": 117}, {"time": 800, "pitch": 73, "duration": 1, "velocity": 117}, {"time": 803, "pitch": 74, "duration": 6, "velocity": 102}, {"time": 812, "pitch": 74, "duration": 1, "velocity": 96}, {"time": 815, "pitch": 73, "duration": 8, "velocity": 100}, {"time": 824, "pitch": 74, "duration": 1, "velocity": 102}, {"time": 827, "pitch": 76, "duration": 5, "velocity": 99}, {"time": 836, "pitch": 71, "duration": 1, "velocity": 97}, {"time": 839, "pitch": 71, "duration": 8, "velocity": 96}, {"time": 848, "pitch": 69, "duration": 7, "velocity": 86}, {"time": 872, "pitch": 69, "duration": 4, "velocity": 96}, {"time": 878, "pitch": 74, "duration": 3, "velocity": 102}, {"time": 884, "pitch": 76, "duration": 2, "velocity": 122}, {"time": 887, "pitch": 74, "duration": 3, "velocity": 83}, {"time": 890, "pitch": 78, "duration": 4, "velocity": 112}, {"time": 896, "pitch": 78, "duration": 1, "velocity": 127}, {"time": 899, "pitch": 78, "duration": 5, "velocity": 122}, {"time": 908, "pitch": 78, "duration": 1, "velocity": 127}, {"time": 911, "pitch": 78, "duration": 4, "velocity": 127}, {"time": 920, "pitch": 76, "duration": 1, "velocity": 102}, {"time": 923, "pitch": 73, "duration": 6, "velocity": 122}, {"time": 932, "pitch": 74, "duration": 3, "velocity": 99}, {"time": 938, "pitch": 78, "duration": 24, "velocity": 122}, {"time": 968, "pitch": 74, "duration": 3, "velocity": 100}, {"time": 974, "pitch": 78, "duration": 4, "velocity": 112}, {"time": 980, "pitch": 74, "duration": 3, "velocity": 102}, {"time": 986, "pitch": 83, "duration": 9, "velocity": 112}, {"time": 998, "pitch": 78, "duration": 3, "velocity": 117}, {"time": 1004, "pitch": 78, "duration": 5, "velocity": 107}, {"time": 1010, "pitch": 76, "duration": 14, "velocity": 95}, {"time": 1031, "pitch": 74, "duration": 1, "velocity": 90}, {"time": 1034, "pitch": 73, "duration": 4, "velocity": 112}, {"time": 1040, "pitch": 74, "duration": 1, "velocity": 89}, {"time": 1043, "pitch": 76, "duration": 6, "velocity": 112}, {"time": 1052, "pitch": 69, "duration": 1, "velocity": 100}, {"time": 1055, "pitch": 74, "duration": 4, "velocity": 107}, {"time": 1079, "pitch": 69, "duration": 1, "velocity": 95}, {"time": 1082, "pitch": 69, "duration": 3, "velocity": 102}, {"time": 1088, "pitch": 67, "duration": 1, "velocity": 88}, {"time": 1091, "pitch": 67, "duration": 3, "velocity": 92}, {"time": 1097, "pitch": 74, "duration": 5, "velocity": 117}, {"time": 1106, "pitch": 74, "duration": 3, "velocity": 117}, {"time": 1112, "pitch": 73, "duration": 1, "velocity": 100}, {"time": 1115, "pitch": 74, "duration": 5, "velocity": 107}, {"time": 1124, "pitch": 76, "duration": 4, "velocity": 112}, {"time": 1130, "pitch": 76, "duration": 18, "velocity": 127}, {"time": 1160, "pitch": 69, "duration": 3, "velocity": 93}, {"time": 1166, "pitch": 74, "duration": 3, "velocity": 102}, {"time": 1172, "pitch": 73, "duration": 2, "velocity": 122}, {"time": 1175, "pitch": 74, "duration": 5, "velocity": 117}, {"time": 1184, "pitch": 73, "duration": 1, "velocity": 117}, {"time": 1187, "pitch": 74, "duration": 6, "velocity": 102}, {"time": 1196, "pitch": 74, "duration": 1, "velocity": 96}, {"time": 1199, "pitch": 73, "duration": 8, "velocity": 100}, {"time": 1208, "pitch": 74, "duration": 1, "velocity": 102}, {"time": 1211, "pitch": 76, "duration": 5, "velocity": 99}, {"time": 1220, "pitch": 71, "duration": 1, "velocity": 97}, {"time": 1223, "pitch": 71, "duration": 8, "velocity": 96}, {"time": 1232, "pitch": 69, "duration": 7, "velocity": 86}, {"time": 1256, "pitch": 69, "duration": 4, "velocity": 96}, {"time": 1262, "pitch": 74, "duration": 3, "velocity": 102}, {"time": 1268, "pitch": 76, "duration": 2, "velocity": 122}, {"time": 1271, "pitch": 74, "duration": 3, "velocity": 83}, {"time": 1274, "pitch": 78, "duration": 4, "velocity": 112}, {"time": 1280, "pitch": 78, "duration": 1, "velocity": 127}, {"time": 1283, "pitch": 78, "duration": 5, "velocity": 122}, {"time": 1292, "pitch": 78, "duration": 1, "velocity": 127}, {"time": 1295, "pitch": 78, "duration": 4, "velocity": 127}, {"time": 1304, "pitch": 76, "duration": 1, "velocity": 102}, {"time": 1307, "pitch": 78, "duration": 6, "velocity": 112}, {"time": 1316, "pitch": 79, "duration": 1, "velocity": 117}, {"time": 1319, "pitch": 79, "duration": 7, "velocity": 127}, {"time": 1325, "pitch": 78, "duration": 21, "velocity": 122}, {"time": 1352, "pitch": 74, "duration": 3, "velocity": 100}, {"time": 1358, "pitch": 78, "duration": 4, "velocity": 112}, {"time": 1364, "pitch": 74, "duration": 3, "velocity": 102}, {"time": 1370, "pitch": 83, "duration": 9, "velocity": 112}, {"time": 1382, "pitch": 78, "duration": 3, "velocity": 117}, {"time": 1388, "pitch": 78, "duration": 5, "velocity": 107}, {"time": 1394, "pitch": 76, "duration": 14, "velocity": 95}, {"time": 1415, "pitch": 74, "duration": 1, "velocity": 90}, {"time": 1418, "pitch": 73, "duration": 4, "velocity": 112}, {"time": 1424, "pitch": 74, "duration": 1, "velocity": 89}, {"time": 1427, "pitch": 76, "duration": 6, "velocity": 112}, {"time": 1436, "pitch": 69, "duration": 1, "velocity": 100}, {"time": 1439, "pitch": 74, "duration": 4, "velocity": 107}, {"time": 1463, "pitch": 69, "duration": 1, "velocity": 95}, {"time": 1466, "pitch": 69, "duration": 3, "velocity": 102}, {"time": 1472, "pitch": 67, "duration": 1, "velocity": 88}, {"time": 1475, "pitch": 67, "duration": 3, "velocity": 92}, {"time": 1484, "pitch": 78, "duration": 1, "velocity": 96}, {"time": 1487, "pitch": 78, "duration": 5, "velocity": 122}, {"time": 1496, "pitch": 74, "duration": 2, "velocity": 99}, {"time": 1499, "pitch": 73, "duration": 6, "velocity": 112}, {"time": 1508, "pitch": 74, "duration": 1, "velocity": 100}, {"time": 1511, "pitch": 76, "duration": 6, "velocity": 117}, {"time": 1520, "pitch": 74, "duration": 19, "velocity": 107}, {"time": 1748, "pitch": 66, "duration": 2, "velocity": 100}, {"time": 1751, "pitch": 66, "duration": 1, "velocity": 96}, {"time": 1754, "pitch": 66, "duration": 5, "velocity": 102}, {"time": 1760, "pitch": 64, "duration": 2, "velocity": 86}, {"time": 1763, "pitch": 66, "duration": 1, "velocity": 86}, {"time": 1766, "pitch": 66, "duration": 4, "velocity": 117}, {"time": 1772, "pitch": 64, "duration": 2, "velocity": 93}, {"time": 1775, "pitch": 66, "duration": 2, "velocity": 99}, {"time": 1781, "pitch": 71, "duration": 8, "velocity": 95}, {"time": 1796, "pitch": 62, "duration": 2, "velocity": 97}, {"time": 1799, "pitch": 64, "duration": 2, "velocity": 69}, {"time": 1802, "pitch": 64, "duration": 4, "velocity": 99}, {"time": 1808, "pitch": 62, "duration": 2, "velocity": 86}, {"time": 1811, "pitch": 64, "duration": 2, "velocity": 74}, {"time": 1814, "pitch": 64, "duration": 5, "velocity": 89}, {"time": 1820, "pitch": 62, "duration": 2, "velocity": 93}, {"time": 1823, "pitch": 64, "duration": 4, "velocity": 96}, {"time": 1829, "pitch": 69, "duration": 13, "velocity": 96}, {"time": 1844, "pitch": 62, "duration": 5, "velocity": 93}, {"time": 1850, "pitch": 67, "duration": 4, "velocity": 83}, {"time": 1856, "pitch": 67, "duration": 1, "velocity": 92}, {"time": 1859, "pitch": 67, "duration": 6, "velocity": 92}, {"time": 1868, "pitch": 66, "duration": 2, "velocity": 88}, {"time": 1871, "pitch": 67, "duration": 5, "velocity": 85}, {"time": 1880, "pitch": 66, "duration": 1, "velocity": 89}, {"time": 1883, "pitch": 66, "duration": 5, "velocity": 88}, {"time": 1892, "pitch": 64, "duration": 3, "velocity": 82}, {"time": 1895, "pitch": 67, "duration": 3, "velocity": 79}, {"time": 1898, "pitch": 66, "duration": 21, "velocity": 56}, {"time": 1940, "pitch": 64, "duration": 2, "velocity": 96}, {"time": 1943, "pitch": 66, "duration": 2, "velocity": 90}, {"time": 1946, "pitch": 66, "duration": 4, "velocity": 102}, {"time": 1952, "pitch": 64, "duration": 2, "velocity": 86}, {"time": 1955, "pitch": 66, "duration": 1, "velocity": 93}, {"time": 1958, "pitch": 66, "duration": 4, "velocity": 99}, {"time": 1964, "pitch": 64, "duration": 2, "velocity": 81}, {"time": 1967, "pitch": 66, "duration": 3, "velocity": 97}, {"time": 1973, "pitch": 71, "duration": 8, "velocity": 99}, {"time": 1988, "pitch": 71, "duration": 2, "velocity": 97}, {"time": 1991, "pitch": 73, "duration": 1, "velocity": 102}, {"time": 1994, "pitch": 73, "duration": 3, "velocity": 122}, {"time": 2000, "pitch": 71, "duration": 1, "velocity": 92}, {"time": 2003, "pitch": 73, "duration": 1, "velocity": 107}, {"time": 2006, "pitch": 73, "duration": 3, "velocity": 117}, {"time": 2012, "pitch": 76, "duration": 4, "velocity": 112}, {"time": 2018, "pitch": 74, "duration": 10, "velocity": 107}, {"time": 2030, "pitch": 74, "duration": 2, "velocity": 107}, {"time": 2033, "pitch": 76, "duration": 1, "velocity": 97}, {"time": 2036, "pitch": 78, "duration": 3, "velocity": 122}, {"time": 2042, "pitch": 78, "duration": 4, "velocity": 127}, {"time": 2048, "pitch": 76, "duration": 1, "velocity": 96}, {"time": 2051, "pitch": 76, "duration": 3, "velocity": 117}, {"time": 2060, "pitch": 74, "duration": 1, "velocity": 100}, {"time": 2063, "pitch": 74, "duration": 4, "velocity": 127}, {"time": 2078, "pitch": 74, "duration": 3, "velocity": 96}, {"time": 2081, "pitch": 76, "duration": 2, "velocity": 93}, {"time": 2084, "pitch": 78, "duration": 3, "velocity": 112}, {"time": 2090, "pitch": 78, "duration": 4, "velocity": 127}, {"time": 2096, "pitch": 76, "duration": 1, "velocity": 85}, {"time": 2099, "pitch": 76, "duration": 4, "velocity": 112}, {"time": 2108, "pitch": 74, "duration": 2, "velocity": 107}, {"time": 2111, "pitch": 76, "duration": 4, "velocity": 107}, {"time": 2120, "pitch": 69, "duration": 3, "velocity": 93}, {"time": 2126, "pitch": 74, "duration": 3, "velocity": 102}, {"time": 2132, "pitch": 73, "duration": 2, "velocity": 122}, {"time": 2135, "pitch": 74, "duration": 5, "velocity": 117}, {"time": 2144, "pitch": 73, "duration": 1, "velocity": 117}, {"time": 2147, "pitch": 74, "duration": 6, "velocity": 102}, {"time": 2156, "pitch": 74, "duration": 1, "velocity": 96}, {"time": 2159, "pitch": 73, "duration": 8, "velocity": 100}, {"time": 2168, "pitch": 74, "duration": 1, "velocity": 102}, {"time": 2171, "pitch": 76, "duration": 5, "velocity": 99}, {"time": 2180, "pitch": 71, "duration": 1, "velocity": 97}, {"time": 2183, "pitch": 71, "duration": 8, "velocity": 96}, {"time": 2192, "pitch": 69, "duration": 7, "velocity": 86}, {"time": 2216, "pitch": 69, "duration": 4, "velocity": 96}, {"time": 2222, "pitch": 74, "duration": 3, "velocity": 102}, {"time": 2228, "pitch": 76, "duration": 2, "velocity": 122}, {"time": 2231, "pitch": 74, "duration": 3, "velocity": 83}, {"time": 2234, "pitch": 78, "duration": 4, "velocity": 112}, {"time": 2240, "pitch": 78, "duration": 1, "velocity": 127}, {"time": 2243, "pitch": 78, "duration": 5, "velocity": 122}, {"time": 2252, "pitch": 78, "duration": 1, "velocity": 127}, {"time": 2255, "pitch": 78, "duration": 4, "velocity": 127}, {"time": 2264, "pitch": 76, "duration": 1, "velocity": 102}, {"time": 2267, "pitch": 73, "duration": 6, "velocity": 122}, {"time": 2276, "pitch": 74, "duration": 3, "velocity": 99}, {"time": 2282, "pitch": 78, "duration": 24, "velocity": 122}, {"time": 2312, "pitch": 74, "duration": 3, "velocity": 100}, {"time": 2318, "pitch": 78, "duration": 4, "velocity": 112}, {"time": 2324, "pitch": 74, "duration": 3, "velocity": 102}, {"time": 2330, "pitch": 83, "duration": 9, "velocity": 112}, {"time": 2342, "pitch": 78, "duration": 3, "velocity": 117}, {"time": 2348, "pitch": 78, "duration": 5, "velocity": 107}, {"time": 2354, "pitch": 76, "duration": 14, "velocity": 95}, {"time": 2375, "pitch": 74, "duration": 1, "velocity": 90}, {"time": 2378, "pitch": 73, "duration": 4, "velocity": 112}, {"time": 2384, "pitch": 74, "duration": 1, "velocity": 89}, {"time": 2387, "pitch": 76, "duration": 6, "velocity": 112}, {"time": 2396, "pitch": 78, "duration": 2, "velocity": 127}, {"time": 2399, "pitch": 74, "duration": 15, "velocity": 107}, {"time": 2423, "pitch": 69, "duration": 1, "velocity": 95}, {"time": 2426, "pitch": 69, "duration": 3, "velocity": 102}, {"time": 2432, "pitch": 67, "duration": 1, "velocity": 88}, {"time": 2435, "pitch": 67, "duration": 3, "velocity": 92}, {"time": 2441, "pitch": 74, "duration": 5, "velocity": 117}, {"time": 2450, "pitch": 74, "duration": 3, "velocity": 117}, {"time": 2456, "pitch": 73, "duration": 1, "velocity": 100}, {"time": 2459, "pitch": 71, "duration": 7, "velocity": 90}, {"time": 2465, "pitch": 73, "duration": 6, "velocity": 107}, {"time": 2474, "pitch": 74, "duration": 12, "velocity": 112}, {"time": 2534, "pitch": 74, "duration": 2, "velocity": 107}, {"time": 2537, "pitch": 76, "duration": 1, "velocity": 95}, {"time": 2540, "pitch": 78, "duration": 7, "velocity": 127}, {"time": 2558, "pitch": 74, "duration": 2, "velocity": 112}, {"time": 2561, "pitch": 76, "duration": 1, "velocity": 117}, {"time": 2564, "pitch": 78, "duration": 5, "velocity": 127}, {"time": 2582, "pitch": 74, "duration": 1, "velocity": 102}, {"time": 2585, "pitch": 76, "duration": 1, "velocity": 100}, {"time": 2588, "pitch": 78, "duration": 6, "velocity": 127}, {"time": 2603, "pitch": 74, "duration": 1, "velocity": 112}, {"time": 2606, "pitch": 74, "duration": 1, "velocity": 117}, {"time": 2609, "pitch": 76, "duration": 1, "velocity": 117}, {"time": 2612, "pitch": 78, "duration": 5, "velocity": 127}, {"time": 2630, "pitch": 74, "duration": 2, "velocity": 102}, {"time": 2633, "pitch": 76, "duration": 1, "velocity": 76}, {"time": 2636, "pitch": 78, "duration": 5, "velocity": 100}, {"time": 2651, "pitch": 74, "duration": 1, "velocity": 99}, {"time": 2654, "pitch": 74, "duration": 1, "velocity": 100}, {"time": 2657, "pitch": 76, "duration": 1, "velocity": 107}, {"time": 2660, "pitch": 78, "duration": 3, "velocity": 127}, {"time": 2666, "pitch": 76, "duration": 5, "velocity": 127}, {"time": 2675, "pitch": 74, "duration": 2, "velocity": 100}, {"time": 2678, "pitch": 71, "duration": 4, "velocity": 107}, {"time": 2684, "pitch": 76, "duration": 6, "velocity": 127}, {"time": 2696, "pitch": 74, "duration": 10, "velocity": 107}, {"time": 2714, "pitch": 78, "duration": 5, "velocity": 127}, {"time": 2720, "pitch": 76, "duration": 2, "velocity": 127}, {"time": 2723, "pitch": 76, "duration": 4, "velocity": 127}, {"time": 2732, "pitch": 74, "duration": 1, "velocity": 112}, {"time": 2735, "pitch": 74, "duration": 4, "velocity": 117}, {"time": 2744, "pitch": 73, "duration": 1, "velocity": 127}, {"time": 2747, "pitch": 74, "duration": 4, "velocity": 127}, {"time": 2753, "pitch": 76, "duration": 4, "velocity": 127}, {"time": 2762, "pitch": 78, "duration": 4, "velocity": 127}, {"time": 2768, "pitch": 76, "duration": 1, "velocity": 95}, {"time": 2771, "pitch": 76, "duration": 5, "velocity": 117}, {"time": 2780, "pitch": 74, "duration": 1, "velocity": 122}, {"time": 2783, "pitch": 74, "duration": 4, "velocity": 117}, {"time": 2810, "pitch": 78, "duration": 4, "velocity": 127}, {"time": 2816, "pitch": 76, "duration": 1, "velocity": 107}, {"time": 2819, "pitch": 76, "duration": 4, "velocity": 117}, {"time": 2828, "pitch": 74, "duration": 1, "velocity": 117}, {"time": 2831, "pitch": 74, "duration": 3, "velocity": 112}, {"time": 2840, "pitch": 73, "duration": 1, "velocity": 127}, {"time": 2843, "pitch": 74, "duration": 4, "velocity": 127}, {"time": 2849, "pitch": 76, "duration": 5, "velocity": 127}, {"time": 2855, "pitch": 76, "duration": 20, "velocity": 127}, {"time": 2882, "pitch": 77, "duration": 7, "velocity": 122}, {"time": 2894, "pitch": 75, "duration": 4, "velocity": 122}, {"time": 2900, "pitch": 74, "duration": 2, "velocity": 97}, {"time": 2903, "pitch": 75, "duration": 7, "velocity": 122}, {"time": 2912, "pitch": 75, "duration": 1, "velocity": 117}, {"time": 2915, "pitch": 75, "duration": 6, "velocity": 127}, {"time": 2924, "pitch": 75, "duration": 1, "velocity": 122}, {"time": 2927, "pitch": 74, "duration": 5, "velocity": 127}, {"time": 2936, "pitch": 75, "duration": 1, "velocity": 122}, {"time": 2939, "pitch": 77, "duration": 6, "velocity": 122}, {"time": 2948, "pitch": 72, "duration": 1, "velocity": 112}, {"time": 2951, "pitch": 72, "duration": 4, "velocity": 127}, {"time": 2957, "pitch": 70, "duration": 9, "velocity": 112}, {"time": 2984, "pitch": 70, "duration": 3, "velocity": 107}, {"time": 2990, "pitch": 75, "duration": 3, "velocity": 122}, {"time": 2996, "pitch": 77, "duration": 2, "velocity": 127}, {"time": 2999, "pitch": 75, "duration": 1, "velocity": 107}, {"time": 3002, "pitch": 79, "duration": 4, "velocity": 127}, {"time": 3008, "pitch": 79, "duration": 1, "velocity": 127}, {"time": 3011, "pitch": 79, "duration": 6, "velocity": 112}, {"time": 3020, "pitch": 79, "duration": 1, "velocity": 112}, {"time": 3023, "pitch": 79, "duration": 3, "velocity": 127}, {"time": 3032, "pitch": 77, "duration": 1, "velocity": 107}, {"time": 3035, "pitch": 79, "duration": 5, "velocity": 127}, {"time": 3044, "pitch": 80, "duration": 1, "velocity": 127}, {"time": 3047, "pitch": 80, "duration": 4, "velocity": 127}, {"time": 3053, "pitch": 79, "duration": 10, "velocity": 107}, {"time": 3080, "pitch": 75, "duration": 3, "velocity": 127}, {"time": 3086, "pitch": 79, "duration": 3, "velocity": 127}, {"time": 3092, "pitch": 75, "duration": 3, "velocity": 127}, {"time": 3098, "pitch": 84, "duration": 10, "velocity": 127}, {"time": 3110, "pitch": 79, "duration": 4, "velocity": 127}, {"time": 3116, "pitch": 79, "duration": 6, "velocity": 112}, {"time": 3122, "pitch": 77, "duration": 13, "velocity": 112}, {"time": 3143, "pitch": 75, "duration": 1, "velocity": 122}, {"time": 3146, "pitch": 74, "duration": 3, "velocity": 102}, {"time": 3152, "pitch": 75, "duration": 1, "velocity": 112}, {"time": 3155, "pitch": 77, "duration": 4, "velocity": 95}, {"time": 3164, "pitch": 70, "duration": 1, "velocity": 112}, {"time": 3167, "pitch": 77, "duration": 5, "velocity": 117}, {"time": 3173, "pitch": 75, "duration": 11, "velocity": 117}, {"time": 3191, "pitch": 70, "duration": 1, "velocity": 102}, {"time": 3194, "pitch": 70, "duration": 5, "velocity": 122}, {"time": 3200, "pitch": 68, "duration": 1, "velocity": 85}, {"time": 3203, "pitch": 68, "duration": 4, "velocity": 122}, {"time": 3212, "pitch": 79, "duration": 1, "velocity": 112}, {"time": 3215, "pitch": 79, "duration": 4, "velocity": 117}, {"time": 3224, "pitch": 75, "duration": 1, "velocity": 127}, {"time": 3227, "pitch": 74, "duration": 5, "velocity": 117}, {"time": 3236, "pitch": 75, "duration": 2, "velocity": 112}, {"time": 3239, "pitch": 77, "duration": 6, "velocity": 97}, {"time": 3245, "pitch": 75, "duration": 41, "velocity": 107}]}, {"program": 0, "is_drum": false, "name": "BRIDGE", "notes": [{"time": 8, "pitch": 69, "duration": 6, "velocity": 73}, {"time": 14, "pitch": 74, "duration": 6, "velocity": 74}, {"time": 20, "pitch": 73, "duration": 3, "velocity": 69}, {"time": 23, "pitch": 74, "duration": 14, "velocity": 70}, {"time": 35, "pitch": 74, "duration": 2, "velocity": 61}, {"time": 38, "pitch": 71, "duration": 6, "velocity": 78}, {"time": 44, "pitch": 74, "duration": 3, "velocity": 47}, {"time": 47, "pitch": 73, "duration": 17, "velocity": 69}, {"time": 59, "pitch": 76, "duration": 6, "velocity": 78}, {"time": 68, "pitch": 71, "duration": 3, "velocity": 70}, {"time": 71, "pitch": 69, "duration": 14, "velocity": 63}, {"time": 104, "pitch": 69, "duration": 6, "velocity": 78}, {"time": 110, "pitch": 74, "duration": 6, "velocity": 86}, {"time": 116, "pitch": 76, "duration": 6, "velocity": 88}, {"time": 122, "pitch": 78, "duration": 8, "velocity": 89}, {"time": 128, "pitch": 78, "duration": 2, "velocity": 92}, {"time": 131, "pitch": 78, "duration": 3, "velocity": 74}, {"time": 140, "pitch": 78, "duration": 2, "velocity": 71}, {"time": 143, "pitch": 78, "duration": 7, "velocity": 82}, {"time": 146, "pitch": 61, "duration": 12, "velocity": 93}, {"time": 152, "pitch": 76, "duration": 2, "velocity": 73}, {"time": 155, "pitch": 78, "duration": 7, "velocity": 90}, {"time": 158, "pitch": 64, "duration": 12, "velocity": 83}, {"time": 164, "pitch": 79, "duration": 3, "velocity": 86}, {"time": 167, "pitch": 78, "duration": 9, "velocity": 88}, {"time": 170, "pitch": 62, "duration": 16, "velocity": 85}, {"time": 170, "pitch": 78, "duration": 6, "velocity": 112}, {"time": 188, "pitch": 73, "duration": 2, "velocity": 117}, {"time": 191, "pitch": 71, "duration": 14, "velocity": 83}, {"time": 200, "pitch": 66, "duration": 21, "velocity": 100}, {"time": 200, "pitch": 74, "duration": 6, "velocity": 81}, {"time": 206, "pitch": 78, "duration": 6, "velocity": 96}, {"time": 212, "pitch": 74, "duration": 6, "velocity": 92}, {"time": 218, "pitch": 83, "duration": 11, "velocity": 95}, {"time": 224, "pitch": 78, "duration": 1, "velocity": 72}, {"time": 227, "pitch": 78, "duration": 1, "velocity": 90}, {"time": 230, "pitch": 78, "duration": 6, "velocity": 107}, {"time": 236, "pitch": 76, "duration": 2, "velocity": 66}, {"time": 239, "pitch": 76, "duration": 7, "velocity": 95}, {"time": 248, "pitch": 76, "duration": 1, "velocity": 75}, {"time": 251, "pitch": 76, "duration": 1, "velocity": 52}, {"time": 254, "pitch": 76, "duration": 4, "velocity": 79}, {"time": 260, "pitch": 74, "duration": 5, "velocity": 89}, {"time": 266, "pitch": 73, "duration": 12, "velocity": 93}, {"time": 272, "pitch": 74, "duration": 3, "velocity": 47}, {"time": 275, "pitch": 76, "duration": 8, "velocity": 95}, {"time": 284, "pitch": 69, "duration": 6, "velocity": 75}, {"time": 290, "pitch": 71, "duration": 9, "velocity": 74}, {"time": 290, "pitch": 73, "duration": 11, "velocity": 112}, {"time": 302, "pitch": 74, "duration": 11, "velocity": 93}, {"time": 308, "pitch": 69, "duration": 5, "velocity": 89}, {"time": 314, "pitch": 66, "duration": 9, "velocity": 89}, {"time": 314, "pitch": 67, "duration": 6, "velocity": 82}, {"time": 320, "pitch": 66, "duration": 3, "velocity": 85}, {"time": 323, "pitch": 67, "duration": 7, "velocity": 89}, {"time": 332, "pitch": 78, "duration": 6, "velocity": 117}, {"time": 337, "pitch": 61, "duration": 20, "velocity": 78}, {"time": 338, "pitch": 76, "duration": 8, "velocity": 102}, {"time": 356, "pitch": 73, "duration": 3, "velocity": 85}, {"time": 359, "pitch": 74, "duration": 21, "velocity": 85}, {"time": 362, "pitch": 62, "duration": 36, "velocity": 85}, {"time": 560, "pitch": 57, "duration": 5, "velocity": 85}, {"time": 566, "pitch": 64, "duration": 6, "velocity": 72}, {"time": 572, "pitch": 67, "duration": 6, "velocity": 68}, {"time": 578, "pitch": 66, "duration": 17, "velocity": 89}, {"time": 770, "pitch": 64, "duration": 8, "velocity": 100}, {"time": 782, "pitch": 70, "duration": 11, "velocity": 117}, {"time": 794, "pitch": 74, "duration": 21, "velocity": 100}, {"time": 944, "pitch": 74, "duration": 5, "velocity": 107}, {"time": 950, "pitch": 73, "duration": 6, "velocity": 112}, {"time": 956, "pitch": 71, "duration": 6, "velocity": 112}, {"time": 962, "pitch": 74, "duration": 7, "velocity": 127}, {"time": 1064, "pitch": 73, "duration": 6, "velocity": 112}, {"time": 1070, "pitch": 71, "duration": 4, "velocity": 99}, {"time": 1076, "pitch": 66, "duration": 6, "velocity": 102}, {"time": 1082, "pitch": 62, "duration": 18, "velocity": 93}, {"time": 1130, "pitch": 74, "duration": 4, "velocity": 99}, {"time": 1136, "pitch": 73, "duration": 4, "velocity": 95}, {"time": 1142, "pitch": 74, "duration": 2, "velocity": 97}, {"time": 1145, "pitch": 73, "duration": 3, "velocity": 92}, {"time": 1148, "pitch": 74, "duration": 3, "velocity": 96}, {"time": 1151, "pitch": 76, "duration": 1, "velocity": 97}, {"time": 1154, "pitch": 78, "duration": 1, "velocity": 127}, {"time": 1157, "pitch": 78, "duration": 2, "velocity": 112}, {"time": 1160, "pitch": 74, "duration": 3, "velocity": 95}, {"time": 1163, "pitch": 71, "duration": 3, "velocity": 90}, {"time": 1166, "pitch": 70, "duration": 11, "velocity": 95}, {"time": 1232, "pitch": 73, "duration": 5, "velocity": 117}, {"time": 1238, "pitch": 76, "duration": 3, "velocity": 107}, {"time": 1244, "pitch": 69, "duration": 5, "velocity": 96}, {"time": 1250, "pitch": 66, "duration": 8, "velocity": 90}, {"time": 1328, "pitch": 76, "duration": 4, "velocity": 117}, {"time": 1334, "pitch": 74, "duration": 5, "velocity": 107}, {"time": 1340, "pitch": 76, "duration": 4, "velocity": 99}, {"time": 1346, "pitch": 78, "duration": 5, "velocity": 117}, {"time": 1445, "pitch": 71, "duration": 3, "velocity": 82}, {"time": 1448, "pitch": 69, "duration": 5, "velocity": 96}, {"time": 1454, "pitch": 66, "duration": 6, "velocity": 83}, {"time": 1460, "pitch": 64, "duration": 5, "velocity": 92}, {"time": 1466, "pitch": 62, "duration": 19, "velocity": 81}, {"time": 1502, "pitch": 81, "duration": 42, "velocity": 96}, {"time": 1562, "pitch": 73, "duration": 3, "velocity": 95}, {"time": 1565, "pitch": 74, "duration": 3, "velocity": 83}, {"time": 1568, "pitch": 73, "duration": 2, "velocity": 90}, {"time": 1571, "pitch": 66, "duration": 3, "velocity": 76}, {"time": 1574, "pitch": 73, "duration": 3, "velocity": 78}, {"time": 1577, "pitch": 74, "duration": 3, "velocity": 63}, {"time": 1580, "pitch": 73, "duration": 3, "velocity": 82}, {"time": 1583, "pitch": 66, "duration": 3, "velocity": 63}, {"time": 1586, "pitch": 73, "duration": 3, "velocity": 77}, {"time": 1589, "pitch": 74, "duration": 3, "velocity": 63}, {"time": 1592, "pitch": 73, "duration": 4, "velocity": 70}, {"time": 1595, "pitch": 71, "duration": 3, "velocity": 81}, {"time": 1598, "pitch": 73, "duration": 4, "velocity": 92}, {"time": 1598, "pitch": 76, "duration": 3, "velocity": 95}, {"time": 1601, "pitch": 78, "duration": 3, "velocity": 86}, {"time": 1604, "pitch": 76, "duration": 5, "velocity": 86}, {"time": 1607, "pitch": 71, "duration": 3, "velocity": 78}, {"time": 1610, "pitch": 76, "duration": 2, "velocity": 89}, {"time": 1613, "pitch": 78, "duration": 4, "velocity": 95}, {"time": 1616, "pitch": 76, "duration": 3, "velocity": 77}, {"time": 1619, "pitch": 71, "duration": 4, "velocity": 57}, {"time": 1622, "pitch": 76, "duration": 3, "velocity": 71}, {"time": 1625, "pitch": 78, "duration": 3, "velocity": 93}, {"time": 1628, "pitch": 76, "duration": 2, "velocity": 79}, {"time": 1631, "pitch": 71, "duration": 2, "velocity": 74}, {"time": 1634, "pitch": 76, "duration": 3, "velocity": 89}, {"time": 1637, "pitch": 78, "duration": 4, "velocity": 81}, {"time": 1640, "pitch": 76, "duration": 3, "velocity": 85}, {"time": 1643, "pitch": 71, "duration": 3, "velocity": 74}, {"time": 1646, "pitch": 81, "duration": 2, "velocity": 107}, {"time": 1649, "pitch": 79, "duration": 3, "velocity": 82}, {"time": 1652, "pitch": 78, "duration": 3, "velocity": 79}, {"time": 1655, "pitch": 76, "duration": 3, "velocity": 75}, {"time": 1658, "pitch": 69, "duration": 3, "velocity": 78}, {"time": 1661, "pitch": 76, "duration": 3, "velocity": 83}, {"time": 1664, "pitch": 74, "duration": 4, "velocity": 83}, {"time": 1667, "pitch": 66, "duration": 3, "velocity": 90}, {"time": 1670, "pitch": 73, "duration": 4, "velocity": 82}, {"time": 1673, "pitch": 76, "duration": 3, "velocity": 76}, {"time": 1676, "pitch": 74, "duration": 3, "velocity": 83}, {"time": 1679, "pitch": 66, "duration": 3, "velocity": 82}, {"time": 1682, "pitch": 73, "duration": 3, "velocity": 86}, {"time": 1685, "pitch": 74, "duration": 3, "velocity": 93}, {"time": 1688, "pitch": 73, "duration": 4, "velocity": 100}, {"time": 1691, "pitch": 66, "duration": 3, "velocity": 86}, {"time": 1694, "pitch": 73, "duration": 3, "velocity": 99}, {"time": 1697, "pitch": 74, "duration": 3, "velocity": 86}, {"time": 1700, "pitch": 73, "duration": 4, "velocity": 85}, {"time": 1703, "pitch": 66, "duration": 2, "velocity": 89}, {"time": 1706, "pitch": 62, "duration": 1, "velocity": 90}, {"time": 1706, "pitch": 74, "duration": 1, "velocity": 72}, {"time": 1712, "pitch": 62, "duration": 2, "velocity": 89}, {"time": 1712, "pitch": 74, "duration": 1, "velocity": 82}, {"time": 1718, "pitch": 62, "duration": 1, "velocity": 90}, {"time": 1718, "pitch": 74, "duration": 1, "velocity": 88}, {"time": 1724, "pitch": 64, "duration": 18, "velocity": 93}, {"time": 1724, "pitch": 76, "duration": 18, "velocity": 88}, {"time": 1742, "pitch": 62, "duration": 12, "velocity": 86}, {"time": 1742, "pitch": 66, "duration": 12, "velocity": 90}, {"time": 1742, "pitch": 78, "duration": 12, "velocity": 79}, {"time": 1904, "pitch": 45, "duration": 5, "velocity": 85}, {"time": 1910, "pitch": 50, "duration": 6, "velocity": 68}, {"time": 1916, "pitch": 55, "duration": 6, "velocity": 70}, {"time": 1922, "pitch": 54, "duration": 11, "velocity": 77}, {"time": 1934, "pitch": 62, "duration": 13, "velocity": 86}, {"time": 1934, "pitch": 74, "duration": 13, "velocity": 74}, {"time": 2192, "pitch": 69, "duration": 4, "velocity": 93}, {"time": 2195, "pitch": 71, "duration": 3, "velocity": 93}, {"time": 2198, "pitch": 73, "duration": 6, "velocity": 97}, {"time": 2204, "pitch": 69, "duration": 6, "velocity": 93}, {"time": 2210, "pitch": 66, "duration": 14, "velocity": 93}, {"time": 2288, "pitch": 73, "duration": 5, "velocity": 112}, {"time": 2288, "pitch": 76, "duration": 5, "velocity": 107}, {"time": 2294, "pitch": 74, "duration": 4, "velocity": 102}, {"time": 2294, "pitch": 78, "duration": 6, "velocity": 112}, {"time": 2300, "pitch": 73, "duration": 6, "velocity": 117}, {"time": 2300, "pitch": 76, "duration": 6, "velocity": 95}, {"time": 2306, "pitch": 74, "duration": 3, "velocity": 117}, {"time": 2306, "pitch": 78, "duration": 5, "velocity": 112}, {"time": 2405, "pitch": 73, "duration": 2, "velocity": 117}, {"time": 2408, "pitch": 71, "duration": 3, "velocity": 96}, {"time": 2414, "pitch": 66, "duration": 6, "velocity": 122}, {"time": 2420, "pitch": 64, "duration": 6, "velocity": 92}, {"time": 2426, "pitch": 62, "duration": 13, "velocity": 95}, {"time": 2480, "pitch": 78, "duration": 1, "velocity": 112}, {"time": 2483, "pitch": 78, "duration": 1, "velocity": 117}, {"time": 2486, "pitch": 74, "duration": 3, "velocity": 122}, {"time": 2492, "pitch": 69, "duration": 1, "velocity": 93}, {"time": 2495, "pitch": 69, "duration": 1, "velocity": 92}, {"time": 2498, "pitch": 66, "duration": 4, "velocity": 112}, {"time": 2504, "pitch": 74, "duration": 2, "velocity": 96}, {"time": 2507, "pitch": 76, "duration": 3, "velocity": 89}, {"time": 2510, "pitch": 78, "duration": 3, "velocity": 96}, {"time": 2513, "pitch": 79, "duration": 3, "velocity": 90}, {"time": 2516, "pitch": 78, "duration": 3, "velocity": 100}, {"time": 2522, "pitch": 71, "duration": 1, "velocity": 78}, {"time": 2525, "pitch": 71, "duration": 1, "velocity": 83}, {"time": 2526, "pitch": 74, "duration": 2, "velocity": 85}, {"time": 2528, "pitch": 76, "duration": 1, "velocity": 88}, {"time": 2531, "pitch": 76, "duration": 1, "velocity": 87}, {"time": 2532, "pitch": 74, "duration": 1, "velocity": 87}, {"time": 2534, "pitch": 71, "duration": 2, "velocity": 87}, {"time": 2537, "pitch": 73, "duration": 1, "velocity": 87}, {"time": 2540, "pitch": 74, "duration": 2, "velocity": 85}, {"time": 2543, "pitch": 73, "duration": 1, "velocity": 84}, {"time": 2546, "pitch": 71, "duration": 1, "velocity": 87}, {"time": 2549, "pitch": 71, "duration": 1, "velocity": 90}, {"time": 2550, "pitch": 74, "duration": 2, "velocity": 92}, {"time": 2552, "pitch": 76, "duration": 1, "velocity": 92}, {"time": 2555, "pitch": 76, "duration": 1, "velocity": 92}, {"time": 2556, "pitch": 74, "duration": 2, "velocity": 92}, {"time": 2558, "pitch": 71, "duration": 1, "velocity": 88}, {"time": 2561, "pitch": 62, "duration": 1, "velocity": 84}, {"time": 2564, "pitch": 61, "duration": 1, "velocity": 80}, {"time": 2567, "pitch": 61, "duration": 1, "velocity": 80}, {"time": 2570, "pitch": 58, "duration": 5, "velocity": 79}, {"time": 2573, "pitch": 71, "duration": 1, "velocity": 79}, {"time": 2574, "pitch": 74, "duration": 2, "velocity": 79}, {"time": 2576, "pitch": 76, "duration": 1, "velocity": 79}, {"time": 2579, "pitch": 73, "duration": 1, "velocity": 79}, {"time": 2580, "pitch": 71, "duration": 2, "velocity": 82}, {"time": 2582, "pitch": 66, "duration": 2, "velocity": 85}, {"time": 2585, "pitch": 59, "duration": 1, "velocity": 88}, {"time": 2586, "pitch": 62, "duration": 2, "velocity": 92}, {"time": 2588, "pitch": 64, "duration": 1, "velocity": 94}, {"time": 2591, "pitch": 62, "duration": 1, "velocity": 94}, {"time": 2592, "pitch": 61, "duration": 2, "velocity": 94}, {"time": 2594, "pitch": 58, "duration": 4, "velocity": 92}, {"time": 2597, "pitch": 71, "duration": 1, "velocity": 89}, {"time": 2598, "pitch": 74, "duration": 2, "velocity": 88}, {"time": 2600, "pitch": 76, "duration": 1, "velocity": 83}, {"time": 2603, "pitch": 76, "duration": 1, "velocity": 80}, {"time": 2604, "pitch": 74, "duration": 2, "velocity": 79}, {"time": 2606, "pitch": 71, "duration": 1, "velocity": 79}, {"time": 2609, "pitch": 71, "duration": 1, "velocity": 67}, {"time": 2610, "pitch": 74, "duration": 2, "velocity": 83}, {"time": 2612, "pitch": 76, "duration": 1, "velocity": 94}, {"time": 2615, "pitch": 62, "duration": 1, "velocity": 94}, {"time": 2616, "pitch": 61, "duration": 2, "velocity": 87}, {"time": 2618, "pitch": 57, "duration": 4, "velocity": 73}, {"time": 2621, "pitch": 74, "duration": 2, "velocity": 61}, {"time": 2622, "pitch": 76, "duration": 2, "velocity": 74}, {"time": 2624, "pitch": 78, "duration": 2, "velocity": 88}, {"time": 2625, "pitch": 76, "duration": 1, "velocity": 80}, {"time": 2627, "pitch": 74, "duration": 1, "velocity": 69}, {"time": 2633, "pitch": 74, "duration": 2, "velocity": 61}, {"time": 2634, "pitch": 76, "duration": 2, "velocity": 79}, {"time": 2636, "pitch": 78, "duration": 2, "velocity": 84}, {"time": 2637, "pitch": 76, "duration": 2, "velocity": 85}, {"time": 2639, "pitch": 74, "duration": 1, "velocity": 57}, {"time": 2645, "pitch": 74, "duration": 1, "velocity": 67}, {"time": 2646, "pitch": 76, "duration": 2, "velocity": 75}, {"time": 2648, "pitch": 78, "duration": 1, "velocity": 84}, {"time": 2649, "pitch": 76, "duration": 2, "velocity": 75}, {"time": 2651, "pitch": 74, "duration": 1, "velocity": 64}, {"time": 2655, "pitch": 74, "duration": 2, "velocity": 67}, {"time": 2657, "pitch": 76, "duration": 1, "velocity": 82}, {"time": 2658, "pitch": 78, "duration": 2, "velocity": 92}, {"time": 2660, "pitch": 76, "duration": 1, "velocity": 92}, {"time": 2661, "pitch": 74, "duration": 1, "velocity": 73}, {"time": 2666, "pitch": 71, "duration": 2, "velocity": 75}, {"time": 2669, "pitch": 74, "duration": 1, "velocity": 75}, {"time": 2670, "pitch": 76, "duration": 2, "velocity": 84}, {"time": 2672, "pitch": 80, "duration": 1, "velocity": 98}, {"time": 2675, "pitch": 78, "duration": 2, "velocity": 97}, {"time": 2676, "pitch": 76, "duration": 1, "velocity": 90}, {"time": 2678, "pitch": 74, "duration": 1, "velocity": 79}, {"time": 2681, "pitch": 74, "duration": 1, "velocity": 62}, {"time": 2682, "pitch": 76, "duration": 2, "velocity": 77}, {"time": 2684, "pitch": 80, "duration": 1, "velocity": 87}, {"time": 2687, "pitch": 78, "duration": 1, "velocity": 102}, {"time": 2688, "pitch": 76, "duration": 2, "velocity": 65}, {"time": 2690, "pitch": 74, "duration": 1, "velocity": 93}, {"time": 2693, "pitch": 74, "duration": 2, "velocity": 64}, {"time": 2694, "pitch": 76, "duration": 2, "velocity": 82}, {"time": 2696, "pitch": 80, "duration": 1, "velocity": 102}, {"time": 2699, "pitch": 78, "duration": 1, "velocity": 86}, {"time": 2700, "pitch": 76, "duration": 2, "velocity": 93}, {"time": 2702, "pitch": 74, "duration": 1, "velocity": 92}, {"time": 2705, "pitch": 74, "duration": 2, "velocity": 69}, {"time": 2706, "pitch": 76, "duration": 2, "velocity": 79}, {"time": 2708, "pitch": 78, "duration": 1, "velocity": 92}, {"time": 2709, "pitch": 79, "duration": 2, "velocity": 100}, {"time": 2711, "pitch": 81, "duration": 3, "velocity": 112}, {"time": 2712, "pitch": 83, "duration": 2, "velocity": 122}, {"time": 2714, "pitch": 86, "duration": 22, "velocity": 127}, {"time": 2738, "pitch": 90, "duration": 6, "velocity": 122}, {"time": 2744, "pitch": 88, "duration": 5, "velocity": 122}, {"time": 2752, "pitch": 86, "duration": 9, "velocity": 112}, {"time": 2761, "pitch": 81, "duration": 15, "velocity": 102}, {"time": 2786, "pitch": 74, "duration": 3, "velocity": 112}, {"time": 2789, "pitch": 76, "duration": 3, "velocity": 89}, {"time": 2792, "pitch": 74, "duration": 1, "velocity": 117}, {"time": 2795, "pitch": 71, "duration": 3, "velocity": 102}, {"time": 2798, "pitch": 69, "duration": 2, "velocity": 99}, {"time": 2801, "pitch": 66, "duration": 6, "velocity": 102}, {"time": 2810, "pitch": 67, "duration": 6, "velocity": 100}, {"time": 2816, "pitch": 66, "duration": 3, "velocity": 96}, {"time": 2819, "pitch": 67, "duration": 6, "velocity": 102}, {"time": 2828, "pitch": 71, "duration": 5, "velocity": 112}, {"time": 2834, "pitch": 74, "duration": 7, "velocity": 127}, {"time": 2846, "pitch": 76, "duration": 6, "velocity": 112}, {"time": 2852, "pitch": 78, "duration": 5, "velocity": 112}, {"time": 2858, "pitch": 79, "duration": 10, "velocity": 112}, {"time": 2870, "pitch": 62, "duration": 7, "velocity": 99}, {"time": 2870, "pitch": 74, "duration": 10, "velocity": 100}, {"time": 2882, "pitch": 65, "duration": 4, "velocity": 117}, {"time": 2882, "pitch": 77, "duration": 4, "velocity": 127}, {"time": 2887, "pitch": 75, "duration": 3, "velocity": 107}, {"time": 2888, "pitch": 77, "duration": 3, "velocity": 81}, {"time": 2890, "pitch": 79, "duration": 2, "velocity": 67}, {"time": 2891, "pitch": 80, "duration": 2, "velocity": 97}, {"time": 2892, "pitch": 82, "duration": 3, "velocity": 95}, {"time": 2894, "pitch": 83, "duration": 11, "velocity": 86}, {"time": 2906, "pitch": 84, "duration": 19, "velocity": 122}, {"time": 2924, "pitch": 91, "duration": 5, "velocity": 99}, {"time": 2930, "pitch": 82, "duration": 34, "velocity": 117}, {"time": 2972, "pitch": 80, "duration": 5, "velocity": 127}, {"time": 2978, "pitch": 79, "duration": 5, "velocity": 107}, {"time": 2984, "pitch": 72, "duration": 6, "velocity": 100}, {"time": 2990, "pitch": 74, "duration": 6, "velocity": 107}, {"time": 2996, "pitch": 77, "duration": 6, "velocity": 95}, {"time": 3002, "pitch": 72, "duration": 10, "velocity": 95}, {"time": 3014, "pitch": 75, "duration": 9, "velocity": 127}, {"time": 3026, "pitch": 70, "duration": 10, "velocity": 117}, {"time": 3026, "pitch": 82, "duration": 10, "velocity": 122}, {"time": 3038, "pitch": 80, "duration": 10, "velocity": 127}, {"time": 3050, "pitch": 79, "duration": 12, "velocity": 122}, {"time": 3056, "pitch": 75, "duration": 3, "velocity": 81}, {"time": 3062, "pitch": 75, "duration": 4, "velocity": 89}, {"time": 3068, "pitch": 75, "duration": 3, "velocity": 95}, {"time": 3074, "pitch": 79, "duration": 3, "velocity": 122}, {"time": 3098, "pitch": 84, "duration": 22, "velocity": 117}, {"time": 3140, "pitch": 79, "duration": 3, "velocity": 97}, {"time": 3143, "pitch": 80, "duration": 3, "velocity": 97}, {"time": 3146, "pitch": 82, "duration": 10, "velocity": 107}, {"time": 3176, "pitch": 79, "duration": 2, "velocity": 95}, {"time": 3179, "pitch": 72, "duration": 2, "velocity": 92}, {"time": 3182, "pitch": 75, "duration": 2, "velocity": 96}, {"time": 3185, "pitch": 74, "duration": 1, "velocity": 78}, {"time": 3188, "pitch": 74, "duration": 2, "velocity": 85}, {"time": 3191, "pitch": 72, "duration": 2, "velocity": 67}, {"time": 3194, "pitch": 72, "duration": 14, "velocity": 92}, {"time": 3254, "pitch": 72, "duration": 3, "velocity": 90}, {"time": 3257, "pitch": 74, "duration": 2, "velocity": 86}, {"time": 3260, "pitch": 75, "duration": 6, "velocity": 96}, {"time": 3266, "pitch": 70, "duration": 10, "velocity": 83}, {"time": 3278, "pitch": 75, "duration": 11, "velocity": 96}, {"time": 3290, "pitch": 68, "duration": 15, "velocity": 96}, {"time": 3316, "pitch": 60, "duration": 3, "velocity": 71}, {"time": 3318, "pitch": 62, "duration": 2, "velocity": 63}, {"time": 3320, "pitch": 63, "duration": 11, "velocity": 95}]}, {"program": 0, "is_drum": false, "name": "PIANO", "notes": [{"time": 25, "pitch": 43, "duration": 38, "velocity": 72}, {"time": 31, "pitch": 50, "duration": 32, "velocity": 59}, {"time": 38, "pitch": 55, "duration": 14, "velocity": 67}, {"time": 44, "pitch": 59, "duration": 18, "velocity": 62}, {"time": 50, "pitch": 67, "duration": 24, "velocity": 73}, {"time": 56, "pitch": 55, "duration": 4, "velocity": 63}, {"time": 62, "pitch": 62, "duration": 12, "velocity": 88}, {"time": 68, "pitch": 59, "duration": 6, "velocity": 65}, {"time": 73, "pitch": 42, "duration": 15, "velocity": 68}, {"time": 79, "pitch": 49, "duration": 10, "velocity": 37}, {"time": 85, "pitch": 54, "duration": 5, "velocity": 50}, {"time": 85, "pitch": 61, "duration": 12, "velocity": 85}, {"time": 91, "pitch": 57, "duration": 6, "velocity": 63}, {"time": 97, "pitch": 47, "duration": 18, "velocity": 72}, {"time": 103, "pitch": 54, "duration": 8, "velocity": 56}, {"time": 110, "pitch": 66, "duration": 12, "velocity": 100}, {"time": 113, "pitch": 54, "duration": 2, "velocity": 58}, {"time": 116, "pitch": 62, "duration": 6, "velocity": 63}, {"time": 121, "pitch": 40, "duration": 18, "velocity": 69}, {"time": 127, "pitch": 47, "duration": 13, "velocity": 47}, {"time": 133, "pitch": 67, "duration": 11, "velocity": 69}, {"time": 134, "pitch": 52, "duration": 6, "velocity": 40}, {"time": 139, "pitch": 59, "duration": 6, "velocity": 59}, {"time": 145, "pitch": 42, "duration": 11, "velocity": 79}, {"time": 151, "pitch": 54, "duration": 5, "velocity": 95}, {"time": 154, "pitch": 61, "duration": 5, "velocity": 72}, {"time": 157, "pitch": 46, "duration": 7, "velocity": 75}, {"time": 163, "pitch": 58, "duration": 7, "velocity": 72}, {"time": 170, "pitch": 47, "duration": 22, "velocity": 73}, {"time": 172, "pitch": 54, "duration": 11, "velocity": 66}, {"time": 175, "pitch": 59, "duration": 8, "velocity": 63}, {"time": 179, "pitch": 62, "duration": 3, "velocity": 57}, {"time": 182, "pitch": 66, "duration": 12, "velocity": 102}, {"time": 185, "pitch": 54, "duration": 9, "velocity": 44}, {"time": 188, "pitch": 62, "duration": 6, "velocity": 71}, {"time": 190, "pitch": 59, "duration": 4, "velocity": 59}, {"time": 193, "pitch": 45, "duration": 14, "velocity": 77}, {"time": 194, "pitch": 47, "duration": 1, "velocity": 63}, {"time": 199, "pitch": 52, "duration": 7, "velocity": 59}, {"time": 205, "pitch": 64, "duration": 11, "velocity": 96}, {"time": 212, "pitch": 57, "duration": 6, "velocity": 58}, {"time": 218, "pitch": 44, "duration": 19, "velocity": 82}, {"time": 223, "pitch": 56, "duration": 7, "velocity": 62}, {"time": 229, "pitch": 62, "duration": 13, "velocity": 77}, {"time": 236, "pitch": 56, "duration": 6, "velocity": 79}, {"time": 241, "pitch": 43, "duration": 14, "velocity": 76}, {"time": 248, "pitch": 55, "duration": 7, "velocity": 78}, {"time": 254, "pitch": 62, "duration": 11, "velocity": 83}, {"time": 260, "pitch": 55, "duration": 6, "velocity": 59}, {"time": 265, "pitch": 42, "duration": 1, "velocity": 89}, {"time": 266, "pitch": 42, "duration": 1, "velocity": 82}, {"time": 271, "pitch": 49, "duration": 10, "velocity": 47}, {"time": 277, "pitch": 54, "duration": 6, "velocity": 56}, {"time": 277, "pitch": 61, "duration": 11, "velocity": 93}, {"time": 283, "pitch": 57, "duration": 8, "velocity": 88}, {"time": 290, "pitch": 47, "duration": 17, "velocity": 71}, {"time": 296, "pitch": 54, "duration": 9, "velocity": 63}, {"time": 302, "pitch": 66, "duration": 12, "velocity": 93}, {"time": 308, "pitch": 62, "duration": 6, "velocity": 69}, {"time": 314, "pitch": 40, "duration": 16, "velocity": 85}, {"time": 319, "pitch": 47, "duration": 11, "velocity": 46}, {"time": 325, "pitch": 52, "duration": 5, "velocity": 46}, {"time": 325, "pitch": 67, "duration": 13, "velocity": 82}, {"time": 331, "pitch": 64, "duration": 7, "velocity": 67}, {"time": 337, "pitch": 45, "duration": 17, "velocity": 74}, {"time": 343, "pitch": 52, "duration": 11, "velocity": 55}, {"time": 349, "pitch": 64, "duration": 13, "velocity": 93}, {"time": 355, "pitch": 61, "duration": 7, "velocity": 43}, {"time": 361, "pitch": 38, "duration": 1, "velocity": 69}, {"time": 362, "pitch": 38, "duration": 1, "velocity": 75}, {"time": 367, "pitch": 45, "duration": 7, "velocity": 58}, {"time": 374, "pitch": 50, "duration": 6, "velocity": 45}, {"time": 374, "pitch": 67, "duration": 7, "velocity": 83}, {"time": 379, "pitch": 45, "duration": 30, "velocity": 48}, {"time": 386, "pitch": 66, "duration": 24, "velocity": 59}, {"time": 386, "pitch": 62, "duration": 23, "velocity": 67}, {"time": 386, "pitch": 50, "duration": 17, "velocity": 32}, {"time": 386, "pitch": 57, "duration": 23, "velocity": 44}, {"time": 410, "pitch": 43, "duration": 18, "velocity": 75}, {"time": 410, "pitch": 43, "duration": 18, "velocity": 85}, {"time": 416, "pitch": 50, "duration": 11, "velocity": 59}, {"time": 416, "pitch": 50, "duration": 11, "velocity": 53}, {"time": 421, "pitch": 62, "duration": 12, "velocity": 85}, {"time": 421, "pitch": 55, "duration": 5, "velocity": 46}, {"time": 422, "pitch": 55, "duration": 4, "velocity": 51}, {"time": 422, "pitch": 62, "duration": 11, "velocity": 73}, {"time": 428, "pitch": 59, "duration": 5, "velocity": 69}, {"time": 434, "pitch": 43, "duration": 18, "velocity": 63}, {"time": 440, "pitch": 50, "duration": 13, "velocity": 56}, {"time": 446, "pitch": 67, "duration": 15, "velocity": 78}, {"time": 452, "pitch": 59, "duration": 26, "velocity": 69}, {"time": 458, "pitch": 42, "duration": 21, "velocity": 71}, {"time": 464, "pitch": 54, "duration": 16, "velocity": 62}, {"time": 470, "pitch": 66, "duration": 18, "velocity": 81}, {"time": 476, "pitch": 62, "duration": 12, "velocity": 56}, {"time": 482, "pitch": 47, "duration": 15, "velocity": 74}, {"time": 488, "pitch": 54, "duration": 8, "velocity": 58}, {"time": 494, "pitch": 66, "duration": 12, "velocity": 79}, {"time": 500, "pitch": 62, "duration": 6, "velocity": 63}, {"time": 506, "pitch": 40, "duration": 17, "velocity": 81}, {"time": 512, "pitch": 47, "duration": 11, "velocity": 64}, {"time": 518, "pitch": 52, "duration": 8, "velocity": 37}, {"time": 518, "pitch": 64, "duration": 18, "velocity": 71}, {"time": 524, "pitch": 55, "duration": 7, "velocity": 55}, {"time": 530, "pitch": 45, "duration": 16, "velocity": 73}, {"time": 536, "pitch": 52, "duration": 10, "velocity": 49}, {"time": 542, "pitch": 64, "duration": 13, "velocity": 90}, {"time": 548, "pitch": 61, "duration": 7, "velocity": 44}, {"time": 554, "pitch": 38, "duration": 40, "velocity": 75}, {"time": 560, "pitch": 45, "duration": 35, "velocity": 56}, {"time": 566, "pitch": 50, "duration": 14, "velocity": 72}, {"time": 572, "pitch": 54, "duration": 17, "velocity": 68}, {"time": 578, "pitch": 57, "duration": 10, "velocity": 47}, {"time": 578, "pitch": 62, "duration": 7, "velocity": 65}, {"time": 584, "pitch": 50, "duration": 7, "velocity": 37}, {"time": 590, "pitch": 57, "duration": 12, "velocity": 73}, {"time": 590, "pitch": 62, "duration": 12, "velocity": 65}, {"time": 593, "pitch": 50, "duration": 4, "velocity": 64}, {"time": 596, "pitch": 54, "duration": 6, "velocity": 71}, {"time": 602, "pitch": 43, "duration": 22, "velocity": 82}, {"time": 608, "pitch": 50, "duration": 19, "velocity": 59}, {"time": 614, "pitch": 55, "duration": 19, "velocity": 47}, {"time": 614, "pitch": 62, "duration": 22, "velocity": 64}, {"time": 620, "pitch": 59, "duration": 21, "velocity": 51}, {"time": 626, "pitch": 43, "duration": 18, "velocity": 66}, {"time": 632, "pitch": 50, "duration": 12, "velocity": 50}, {"time": 638, "pitch": 55, "duration": 5, "velocity": 50}, {"time": 638, "pitch": 67, "duration": 18, "velocity": 78}, {"time": 644, "pitch": 59, "duration": 14, "velocity": 53}, {"time": 650, "pitch": 42, "duration": 19, "velocity": 82}, {"time": 656, "pitch": 50, "duration": 12, "velocity": 66}, {"time": 662, "pitch": 54, "duration": 7, "velocity": 51}, {"time": 662, "pitch": 62, "duration": 14, "velocity": 69}, {"time": 662, "pitch": 66, "duration": 14, "velocity": 76}, {"time": 668, "pitch": 59, "duration": 6, "velocity": 58}, {"time": 674, "pitch": 47, "duration": 17, "velocity": 70}, {"time": 680, "pitch": 54, "duration": 8, "velocity": 59}, {"time": 686, "pitch": 66, "duration": 11, "velocity": 99}, {"time": 689, "pitch": 54, "duration": 2, "velocity": 64}, {"time": 692, "pitch": 62, "duration": 7, "velocity": 81}, {"time": 695, "pitch": 59, "duration": 15, "velocity": 68}, {"time": 698, "pitch": 40, "duration": 17, "velocity": 95}, {"time": 704, "pitch": 47, "duration": 11, "velocity": 56}, {"time": 710, "pitch": 52, "duration": 8, "velocity": 47}, {"time": 710, "pitch": 64, "duration": 13, "velocity": 72}, {"time": 710, "pitch": 67, "duration": 13, "velocity": 77}, {"time": 716, "pitch": 59, "duration": 8, "velocity": 72}, {"time": 722, "pitch": 45, "duration": 19, "velocity": 82}, {"time": 728, "pitch": 52, "duration": 14, "velocity": 53}, {"time": 734, "pitch": 61, "duration": 10, "velocity": 96}, {"time": 734, "pitch": 64, "duration": 11, "velocity": 85}, {"time": 740, "pitch": 57, "duration": 4, "velocity": 89}, {"time": 746, "pitch": 45, "duration": 36, "velocity": 74}, {"time": 746, "pitch": 57, "duration": 6, "velocity": 76}, {"time": 746, "pitch": 61, "duration": 6, "velocity": 67}, {"time": 746, "pitch": 64, "duration": 6, "velocity": 73}, {"time": 752, "pitch": 52, "duration": 28, "velocity": 57}, {"time": 758, "pitch": 57, "duration": 10, "velocity": 78}, {"time": 764, "pitch": 55, "duration": 12, "velocity": 65}, {"time": 770, "pitch": 57, "duration": 10, "velocity": 62}, {"time": 770, "pitch": 61, "duration": 11, "velocity": 69}, {"time": 770, "pitch": 64, "duration": 11, "velocity": 70}, {"time": 770, "pitch": 67, "duration": 7, "velocity": 59}, {"time": 782, "pitch": 46, "duration": 11, "velocity": 64}, {"time": 782, "pitch": 58, "duration": 11, "velocity": 92}, {"time": 782, "pitch": 61, "duration": 11, "velocity": 67}, {"time": 782, "pitch": 64, "duration": 11, "velocity": 48}, {"time": 794, "pitch": 43, "duration": 21, "velocity": 79}, {"time": 800, "pitch": 50, "duration": 7, "velocity": 66}, {"time": 806, "pitch": 62, "duration": 16, "velocity": 97}, {"time": 809, "pitch": 50, "duration": 8, "velocity": 64}, {"time": 812, "pitch": 59, "duration": 11, "velocity": 74}, {"time": 815, "pitch": 55, "duration": 5, "velocity": 66}, {"time": 818, "pitch": 43, "duration": 17, "velocity": 68}, {"time": 821, "pitch": 50, "duration": 9, "velocity": 85}, {"time": 824, "pitch": 55, "duration": 7, "velocity": 72}, {"time": 827, "pitch": 59, "duration": 3, "velocity": 72}, {"time": 830, "pitch": 62, "duration": 12, "velocity": 99}, {"time": 833, "pitch": 50, "duration": 1, "velocity": 61}, {"time": 836, "pitch": 55, "duration": 5, "velocity": 75}, {"time": 839, "pitch": 59, "duration": 3, "velocity": 66}, {"time": 842, "pitch": 42, "duration": 19, "velocity": 68}, {"time": 845, "pitch": 50, "duration": 15, "velocity": 56}, {"time": 848, "pitch": 54, "duration": 7, "velocity": 59}, {"time": 851, "pitch": 59, "duration": 5, "velocity": 67}, {"time": 854, "pitch": 66, "duration": 11, "velocity": 100}, {"time": 857, "pitch": 54, "duration": 3, "velocity": 78}, {"time": 860, "pitch": 62, "duration": 5, "velocity": 79}, {"time": 863, "pitch": 59, "duration": 3, "velocity": 79}, {"time": 866, "pitch": 47, "duration": 18, "velocity": 75}, {"time": 869, "pitch": 54, "duration": 10, "velocity": 92}, {"time": 872, "pitch": 59, "duration": 7, "velocity": 69}, {"time": 875, "pitch": 62, "duration": 3, "velocity": 59}, {"time": 878, "pitch": 66, "duration": 10, "velocity": 107}, {"time": 881, "pitch": 54, "duration": 2, "velocity": 72}, {"time": 884, "pitch": 62, "duration": 5, "velocity": 90}, {"time": 887, "pitch": 59, "duration": 4, "velocity": 85}, {"time": 890, "pitch": 40, "duration": 15, "velocity": 77}, {"time": 893, "pitch": 47, "duration": 13, "velocity": 59}, {"time": 896, "pitch": 52, "duration": 6, "velocity": 81}, {"time": 899, "pitch": 59, "duration": 6, "velocity": 92}, {"time": 902, "pitch": 67, "duration": 11, "velocity": 107}, {"time": 905, "pitch": 52, "duration": 3, "velocity": 89}, {"time": 908, "pitch": 64, "duration": 4, "velocity": 96}, {"time": 911, "pitch": 59, "duration": 3, "velocity": 92}, {"time": 914, "pitch": 42, "duration": 11, "velocity": 93}, {"time": 917, "pitch": 57, "duration": 4, "velocity": 81}, {"time": 920, "pitch": 66, "duration": 6, "velocity": 117}, {"time": 923, "pitch": 57, "duration": 2, "velocity": 90}, {"time": 926, "pitch": 46, "duration": 7, "velocity": 88}, {"time": 929, "pitch": 58, "duration": 4, "velocity": 86}, {"time": 932, "pitch": 66, "duration": 6, "velocity": 100}, {"time": 935, "pitch": 58, "duration": 3, "velocity": 77}, {"time": 938, "pitch": 47, "duration": 22, "velocity": 73}, {"time": 941, "pitch": 54, "duration": 10, "velocity": 67}, {"time": 944, "pitch": 59, "duration": 8, "velocity": 64}, {"time": 947, "pitch": 62, "duration": 3, "velocity": 59}, {"time": 950, "pitch": 66, "duration": 12, "velocity": 107}, {"time": 953, "pitch": 54, "duration": 9, "velocity": 75}, {"time": 956, "pitch": 62, "duration": 6, "velocity": 82}, {"time": 959, "pitch": 59, "duration": 3, "velocity": 79}, {"time": 962, "pitch": 47, "duration": 6, "velocity": 72}, {"time": 962, "pitch": 59, "duration": 6, "velocity": 72}, {"time": 962, "pitch": 62, "duration": 6, "velocity": 73}, {"time": 962, "pitch": 66, "duration": 7, "velocity": 69}, {"time": 974, "pitch": 45, "duration": 6, "velocity": 69}, {"time": 974, "pitch": 57, "duration": 14, "velocity": 96}, {"time": 986, "pitch": 44, "duration": 18, "velocity": 88}, {"time": 989, "pitch": 56, "duration": 10, "velocity": 73}, {"time": 992, "pitch": 59, "duration": 4, "velocity": 69}, {"time": 995, "pitch": 62, "duration": 1, "velocity": 76}, {"time": 998, "pitch": 62, "duration": 6, "velocity": 107}, {"time": 1001, "pitch": 56, "duration": 2, "velocity": 63}, {"time": 1004, "pitch": 59, "duration": 5, "velocity": 81}, {"time": 1007, "pitch": 62, "duration": 5, "velocity": 83}, {"time": 1010, "pitch": 43, "duration": 16, "velocity": 68}, {"time": 1013, "pitch": 50, "duration": 10, "velocity": 72}, {"time": 1016, "pitch": 55, "duration": 7, "velocity": 69}, {"time": 1019, "pitch": 59, "duration": 3, "velocity": 67}, {"time": 1022, "pitch": 62, "duration": 13, "velocity": 92}, {"time": 1025, "pitch": 50, "duration": 2, "velocity": 71}, {"time": 1028, "pitch": 59, "duration": 6, "velocity": 64}, {"time": 1031, "pitch": 55, "duration": 3, "velocity": 54}, {"time": 1034, "pitch": 42, "duration": 17, "velocity": 71}, {"time": 1037, "pitch": 49, "duration": 14, "velocity": 66}, {"time": 1040, "pitch": 54, "duration": 7, "velocity": 78}, {"time": 1043, "pitch": 57, "duration": 6, "velocity": 64}, {"time": 1046, "pitch": 66, "duration": 12, "velocity": 100}, {"time": 1049, "pitch": 54, "duration": 3, "velocity": 76}, {"time": 1052, "pitch": 61, "duration": 5, "velocity": 93}, {"time": 1055, "pitch": 57, "duration": 3, "velocity": 78}, {"time": 1058, "pitch": 47, "duration": 17, "velocity": 75}, {"time": 1061, "pitch": 54, "duration": 11, "velocity": 69}, {"time": 1064, "pitch": 59, "duration": 7, "velocity": 66}, {"time": 1067, "pitch": 62, "duration": 3, "velocity": 72}, {"time": 1070, "pitch": 66, "duration": 11, "velocity": 107}, {"time": 1073, "pitch": 54, "duration": 2, "velocity": 70}, {"time": 1076, "pitch": 62, "duration": 6, "velocity": 89}, {"time": 1079, "pitch": 59, "duration": 3, "velocity": 88}, {"time": 1082, "pitch": 40, "duration": 22, "velocity": 90}, {"time": 1085, "pitch": 47, "duration": 21, "velocity": 60}, {"time": 1088, "pitch": 52, "duration": 7, "velocity": 76}, {"time": 1091, "pitch": 55, "duration": 6, "velocity": 79}, {"time": 1094, "pitch": 64, "duration": 21, "velocity": 96}, {"time": 1097, "pitch": 52, "duration": 9, "velocity": 78}, {"time": 1100, "pitch": 59, "duration": 14, "velocity": 76}, {"time": 1103, "pitch": 55, "duration": 10, "velocity": 88}, {"time": 1106, "pitch": 40, "duration": 17, "velocity": 74}, {"time": 1109, "pitch": 47, "duration": 14, "velocity": 60}, {"time": 1112, "pitch": 52, "duration": 7, "velocity": 81}, {"time": 1115, "pitch": 55, "duration": 6, "velocity": 72}, {"time": 1118, "pitch": 64, "duration": 12, "velocity": 96}, {"time": 1121, "pitch": 52, "duration": 4, "velocity": 79}, {"time": 1124, "pitch": 59, "duration": 5, "velocity": 85}, {"time": 1127, "pitch": 55, "duration": 2, "velocity": 83}, {"time": 1130, "pitch": 45, "duration": 22, "velocity": 77}, {"time": 1133, "pitch": 52, "duration": 10, "velocity": 52}, {"time": 1136, "pitch": 57, "duration": 4, "velocity": 88}, {"time": 1139, "pitch": 61, "duration": 2, "velocity": 107}, {"time": 1142, "pitch": 64, "duration": 13, "velocity": 100}, {"time": 1145, "pitch": 52, "duration": 9, "velocity": 77}, {"time": 1148, "pitch": 61, "duration": 6, "velocity": 95}, {"time": 1151, "pitch": 59, "duration": 3, "velocity": 77}, {"time": 1154, "pitch": 45, "duration": 12, "velocity": 88}, {"time": 1160, "pitch": 52, "duration": 6, "velocity": 57}, {"time": 1166, "pitch": 44, "duration": 10, "velocity": 100}, {"time": 1166, "pitch": 56, "duration": 11, "velocity": 93}, {"time": 1166, "pitch": 59, "duration": 11, "velocity": 75}, {"time": 1166, "pitch": 62, "duration": 11, "velocity": 55}, {"time": 1178, "pitch": 43, "duration": 22, "velocity": 79}, {"time": 1181, "pitch": 50, "duration": 21, "velocity": 79}, {"time": 1184, "pitch": 55, "duration": 7, "velocity": 79}, {"time": 1187, "pitch": 59, "duration": 9, "velocity": 75}, {"time": 1190, "pitch": 67, "duration": 18, "velocity": 97}, {"time": 1193, "pitch": 55, "duration": 10, "velocity": 83}, {"time": 1196, "pitch": 62, "duration": 21, "velocity": 83}, {"time": 1199, "pitch": 59, "duration": 10, "velocity": 76}, {"time": 1202, "pitch": 43, "duration": 17, "velocity": 62}, {"time": 1205, "pitch": 50, "duration": 14, "velocity": 51}, {"time": 1208, "pitch": 55, "duration": 7, "velocity": 82}, {"time": 1211, "pitch": 59, "duration": 5, "velocity": 79}, {"time": 1214, "pitch": 66, "duration": 13, "velocity": 96}, {"time": 1217, "pitch": 55, "duration": 2, "velocity": 86}, {"time": 1220, "pitch": 62, "duration": 7, "velocity": 78}, {"time": 1223, "pitch": 59, "duration": 4, "velocity": 78}, {"time": 1226, "pitch": 42, "duration": 16, "velocity": 88}, {"time": 1229, "pitch": 59, "duration": 3, "velocity": 75}, {"time": 1232, "pitch": 62, "duration": 4, "velocity": 69}, {"time": 1235, "pitch": 59, "duration": 4, "velocity": 65}, {"time": 1238, "pitch": 66, "duration": 11, "velocity": 112}, {"time": 1241, "pitch": 59, "duration": 3, "velocity": 57}, {"time": 1244, "pitch": 62, "duration": 5, "velocity": 66}, {"time": 1247, "pitch": 59, "duration": 3, "velocity": 76}, {"time": 1250, "pitch": 47, "duration": 19, "velocity": 81}, {"time": 1253, "pitch": 54, "duration": 11, "velocity": 82}, {"time": 1256, "pitch": 59, "duration": 4, "velocity": 62}, {"time": 1259, "pitch": 62, "duration": 4, "velocity": 82}, {"time": 1262, "pitch": 66, "duration": 11, "velocity": 72}, {"time": 1265, "pitch": 54, "duration": 2, "velocity": 67}, {"time": 1268, "pitch": 62, "duration": 5, "velocity": 75}, {"time": 1271, "pitch": 59, "duration": 3, "velocity": 69}, {"time": 1274, "pitch": 40, "duration": 16, "velocity": 72}, {"time": 1277, "pitch": 47, "duration": 14, "velocity": 52}, {"time": 1280, "pitch": 52, "duration": 6, "velocity": 71}, {"time": 1283, "pitch": 55, "duration": 5, "velocity": 75}, {"time": 1286, "pitch": 64, "duration": 11, "velocity": 97}, {"time": 1289, "pitch": 52, "duration": 3, "velocity": 88}, {"time": 1292, "pitch": 59, "duration": 4, "velocity": 77}, {"time": 1295, "pitch": 55, "duration": 3, "velocity": 89}, {"time": 1298, "pitch": 42, "duration": 10, "velocity": 79}, {"time": 1301, "pitch": 54, "duration": 6, "velocity": 78}, {"time": 1304, "pitch": 57, "duration": 5, "velocity": 70}, {"time": 1307, "pitch": 66, "duration": 5, "velocity": 107}, {"time": 1310, "pitch": 46, "duration": 6, "velocity": 77}, {"time": 1313, "pitch": 58, "duration": 5, "velocity": 76}, {"time": 1316, "pitch": 66, "duration": 6, "velocity": 96}, {"time": 1319, "pitch": 61, "duration": 2, "velocity": 63}, {"time": 1322, "pitch": 47, "duration": 23, "velocity": 72}, {"time": 1325, "pitch": 54, "duration": 10, "velocity": 93}, {"time": 1328, "pitch": 59, "duration": 8, "velocity": 73}, {"time": 1331, "pitch": 62, "duration": 4, "velocity": 76}, {"time": 1334, "pitch": 66, "duration": 10, "velocity": 117}, {"time": 1337, "pitch": 54, "duration": 9, "velocity": 74}, {"time": 1340, "pitch": 62, "duration": 4, "velocity": 99}, {"time": 1343, "pitch": 59, "duration": 2, "velocity": 69}, {"time": 1346, "pitch": 47, "duration": 6, "velocity": 81}, {"time": 1346, "pitch": 59, "duration": 5, "velocity": 82}, {"time": 1346, "pitch": 62, "duration": 6, "velocity": 89}, {"time": 1346, "pitch": 66, "duration": 6, "velocity": 89}, {"time": 1358, "pitch": 45, "duration": 7, "velocity": 95}, {"time": 1358, "pitch": 57, "duration": 12, "velocity": 96}, {"time": 1358, "pitch": 64, "duration": 13, "velocity": 88}, {"time": 1370, "pitch": 44, "duration": 19, "velocity": 99}, {"time": 1373, "pitch": 56, "duration": 10, "velocity": 82}, {"time": 1376, "pitch": 59, "duration": 3, "velocity": 64}, {"time": 1379, "pitch": 64, "duration": 2, "velocity": 70}, {"time": 1382, "pitch": 64, "duration": 12, "velocity": 89}, {"time": 1385, "pitch": 56, "duration": 3, "velocity": 76}, {"time": 1388, "pitch": 59, "duration": 6, "velocity": 78}, {"time": 1394, "pitch": 43, "duration": 17, "velocity": 73}, {"time": 1397, "pitch": 50, "duration": 10, "velocity": 65}, {"time": 1400, "pitch": 55, "duration": 11, "velocity": 56}, {"time": 1403, "pitch": 59, "duration": 2, "velocity": 57}, {"time": 1406, "pitch": 62, "duration": 11, "velocity": 99}, {"time": 1409, "pitch": 50, "duration": 1, "velocity": 58}, {"time": 1412, "pitch": 59, "duration": 6, "velocity": 90}, {"time": 1415, "pitch": 55, "duration": 3, "velocity": 52}, {"time": 1418, "pitch": 42, "duration": 16, "velocity": 86}, {"time": 1421, "pitch": 49, "duration": 12, "velocity": 64}, {"time": 1424, "pitch": 54, "duration": 7, "velocity": 74}, {"time": 1427, "pitch": 57, "duration": 9, "velocity": 76}, {"time": 1430, "pitch": 66, "duration": 12, "velocity": 102}, {"time": 1433, "pitch": 54, "duration": 3, "velocity": 85}, {"time": 1436, "pitch": 61, "duration": 5, "velocity": 93}, {"time": 1439, "pitch": 57, "duration": 3, "velocity": 83}, {"time": 1442, "pitch": 47, "duration": 19, "velocity": 75}, {"time": 1445, "pitch": 54, "duration": 10, "velocity": 96}, {"time": 1448, "pitch": 59, "duration": 8, "velocity": 69}, {"time": 1451, "pitch": 62, "duration": 2, "velocity": 88}, {"time": 1454, "pitch": 66, "duration": 11, "velocity": 122}, {"time": 1457, "pitch": 54, "duration": 3, "velocity": 75}, {"time": 1460, "pitch": 62, "duration": 6, "velocity": 100}, {"time": 1463, "pitch": 59, "duration": 3, "velocity": 88}, {"time": 1466, "pitch": 40, "duration": 16, "velocity": 89}, {"time": 1469, "pitch": 47, "duration": 14, "velocity": 67}, {"time": 1472, "pitch": 52, "duration": 6, "velocity": 79}, {"time": 1475, "pitch": 55, "duration": 4, "velocity": 52}, {"time": 1478, "pitch": 64, "duration": 12, "velocity": 95}, {"time": 1481, "pitch": 52, "duration": 5, "velocity": 79}, {"time": 1484, "pitch": 59, "duration": 5, "velocity": 71}, {"time": 1487, "pitch": 55, "duration": 2, "velocity": 77}, {"time": 1490, "pitch": 45, "duration": 16, "velocity": 86}, {"time": 1493, "pitch": 52, "duration": 12, "velocity": 69}, {"time": 1496, "pitch": 57, "duration": 4, "velocity": 81}, {"time": 1499, "pitch": 61, "duration": 3, "velocity": 89}, {"time": 1502, "pitch": 64, "duration": 13, "velocity": 96}, {"time": 1508, "pitch": 61, "duration": 6, "velocity": 83}, {"time": 1514, "pitch": 38, "duration": 22, "velocity": 72}, {"time": 1517, "pitch": 45, "duration": 21, "velocity": 62}, {"time": 1520, "pitch": 50, "duration": 6, "velocity": 69}, {"time": 1523, "pitch": 57, "duration": 38, "velocity": 71}, {"time": 1526, "pitch": 66, "duration": 34, "velocity": 88}, {"time": 1529, "pitch": 50, "duration": 27, "velocity": 69}, {"time": 1532, "pitch": 64, "duration": 28, "velocity": 62}, {"time": 1538, "pitch": 38, "duration": 16, "velocity": 52}, {"time": 1538, "pitch": 62, "duration": 22, "velocity": 65}, {"time": 1562, "pitch": 45, "duration": 18, "velocity": 89}, {"time": 1565, "pitch": 52, "duration": 9, "velocity": 24}, {"time": 1568, "pitch": 57, "duration": 7, "velocity": 69}, {"time": 1574, "pitch": 64, "duration": 7, "velocity": 77}, {"time": 1577, "pitch": 52, "duration": 2, "velocity": 55}, {"time": 1580, "pitch": 57, "duration": 6, "velocity": 66}, {"time": 1583, "pitch": 64, "duration": 5, "velocity": 55}, {"time": 1586, "pitch": 44, "duration": 19, "velocity": 67}, {"time": 1589, "pitch": 56, "duration": 4, "velocity": 69}, {"time": 1592, "pitch": 64, "duration": 5, "velocity": 66}, {"time": 1595, "pitch": 56, "duration": 4, "velocity": 64}, {"time": 1598, "pitch": 64, "duration": 4, "velocity": 75}, {"time": 1601, "pitch": 56, "duration": 3, "velocity": 63}, {"time": 1604, "pitch": 64, "duration": 2, "velocity": 90}, {"time": 1607, "pitch": 64, "duration": 3, "velocity": 82}, {"time": 1610, "pitch": 43, "duration": 18, "velocity": 67}, {"time": 1613, "pitch": 50, "duration": 4, "velocity": 34}, {"time": 1616, "pitch": 62, "duration": 5, "velocity": 78}, {"time": 1619, "pitch": 50, "duration": 4, "velocity": 61}, {"time": 1622, "pitch": 62, "duration": 4, "velocity": 81}, {"time": 1625, "pitch": 50, "duration": 5, "velocity": 59}, {"time": 1628, "pitch": 62, "duration": 4, "velocity": 85}, {"time": 1631, "pitch": 55, "duration": 2, "velocity": 72}, {"time": 1634, "pitch": 46, "duration": 14, "velocity": 71}, {"time": 1637, "pitch": 58, "duration": 4, "velocity": 71}, {"time": 1640, "pitch": 61, "duration": 4, "velocity": 79}, {"time": 1643, "pitch": 58, "duration": 3, "velocity": 63}, {"time": 1646, "pitch": 64, "duration": 6, "velocity": 92}, {"time": 1649, "pitch": 46, "duration": 6, "velocity": 70}, {"time": 1652, "pitch": 58, "duration": 5, "velocity": 78}, {"time": 1655, "pitch": 64, "duration": 4, "velocity": 70}, {"time": 1658, "pitch": 45, "duration": 18, "velocity": 75}, {"time": 1661, "pitch": 52, "duration": 4, "velocity": 38}, {"time": 1664, "pitch": 57, "duration": 8, "velocity": 71}, {"time": 1667, "pitch": 52, "duration": 4, "velocity": 56}, {"time": 1670, "pitch": 64, "duration": 7, "velocity": 93}, {"time": 1673, "pitch": 52, "duration": 2, "velocity": 79}, {"time": 1676, "pitch": 57, "duration": 4, "velocity": 88}, {"time": 1679, "pitch": 64, "duration": 9, "velocity": 82}, {"time": 1682, "pitch": 44, "duration": 20, "velocity": 93}, {"time": 1685, "pitch": 56, "duration": 4, "velocity": 71}, {"time": 1688, "pitch": 59, "duration": 6, "velocity": 58}, {"time": 1691, "pitch": 56, "duration": 4, "velocity": 69}, {"time": 1694, "pitch": 64, "duration": 7, "velocity": 81}, {"time": 1697, "pitch": 56, "duration": 3, "velocity": 78}, {"time": 1700, "pitch": 59, "duration": 5, "velocity": 73}, {"time": 1703, "pitch": 64, "duration": 1, "velocity": 81}, {"time": 1706, "pitch": 43, "duration": 10, "velocity": 67}, {"time": 1706, "pitch": 55, "duration": 4, "velocity": 58}, {"time": 1706, "pitch": 59, "duration": 4, "velocity": 50}, {"time": 1706, "pitch": 62, "duration": 4, "velocity": 51}, {"time": 1712, "pitch": 50, "duration": 5, "velocity": 53}, {"time": 1712, "pitch": 55, "duration": 5, "velocity": 54}, {"time": 1712, "pitch": 59, "duration": 4, "velocity": 59}, {"time": 1712, "pitch": 62, "duration": 4, "velocity": 59}, {"time": 1718, "pitch": 55, "duration": 3, "velocity": 63}, {"time": 1718, "pitch": 59, "duration": 4, "velocity": 62}, {"time": 1718, "pitch": 62, "duration": 1, "velocity": 56}, {"time": 1724, "pitch": 45, "duration": 10, "velocity": 63}, {"time": 1724, "pitch": 57, "duration": 9, "velocity": 63}, {"time": 1724, "pitch": 61, "duration": 9, "velocity": 55}, {"time": 1724, "pitch": 64, "duration": 9, "velocity": 66}, {"time": 1742, "pitch": 44, "duration": 10, "velocity": 57}, {"time": 1742, "pitch": 56, "duration": 11, "velocity": 92}, {"time": 1742, "pitch": 59, "duration": 11, "velocity": 69}, {"time": 1742, "pitch": 62, "duration": 11, "velocity": 63}, {"time": 1754, "pitch": 43, "duration": 18, "velocity": 75}, {"time": 1754, "pitch": 43, "duration": 18, "velocity": 85}, {"time": 1760, "pitch": 50, "duration": 11, "velocity": 59}, {"time": 1760, "pitch": 50, "duration": 11, "velocity": 53}, {"time": 1765, "pitch": 62, "duration": 12, "velocity": 85}, {"time": 1765, "pitch": 55, "duration": 5, "velocity": 46}, {"time": 1766, "pitch": 55, "duration": 4, "velocity": 51}, {"time": 1766, "pitch": 62, "duration": 11, "velocity": 73}, {"time": 1772, "pitch": 59, "duration": 5, "velocity": 69}, {"time": 1778, "pitch": 43, "duration": 18, "velocity": 63}, {"time": 1784, "pitch": 50, "duration": 13, "velocity": 56}, {"time": 1790, "pitch": 67, "duration": 15, "velocity": 78}, {"time": 1796, "pitch": 59, "duration": 26, "velocity": 69}, {"time": 1802, "pitch": 42, "duration": 21, "velocity": 71}, {"time": 1808, "pitch": 54, "duration": 16, "velocity": 62}, {"time": 1814, "pitch": 66, "duration": 18, "velocity": 81}, {"time": 1820, "pitch": 62, "duration": 12, "velocity": 56}, {"time": 1826, "pitch": 47, "duration": 15, "velocity": 74}, {"time": 1832, "pitch": 54, "duration": 8, "velocity": 58}, {"time": 1838, "pitch": 66, "duration": 12, "velocity": 79}, {"time": 1844, "pitch": 62, "duration": 6, "velocity": 63}, {"time": 1850, "pitch": 40, "duration": 17, "velocity": 81}, {"time": 1856, "pitch": 47, "duration": 11, "velocity": 64}, {"time": 1862, "pitch": 52, "duration": 8, "velocity": 37}, {"time": 1862, "pitch": 64, "duration": 18, "velocity": 71}, {"time": 1868, "pitch": 55, "duration": 7, "velocity": 55}, {"time": 1874, "pitch": 45, "duration": 16, "velocity": 73}, {"time": 1880, "pitch": 52, "duration": 10, "velocity": 49}, {"time": 1886, "pitch": 64, "duration": 13, "velocity": 90}, {"time": 1892, "pitch": 61, "duration": 7, "velocity": 44}, {"time": 1898, "pitch": 38, "duration": 40, "velocity": 75}, {"time": 1904, "pitch": 45, "duration": 35, "velocity": 56}, {"time": 1910, "pitch": 50, "duration": 14, "velocity": 72}, {"time": 1916, "pitch": 54, "duration": 17, "velocity": 68}, {"time": 1922, "pitch": 57, "duration": 10, "velocity": 47}, {"time": 1922, "pitch": 62, "duration": 7, "velocity": 65}, {"time": 1928, "pitch": 50, "duration": 7, "velocity": 37}, {"time": 1934, "pitch": 57, "duration": 12, "velocity": 73}, {"time": 1934, "pitch": 62, "duration": 12, "velocity": 65}, {"time": 1937, "pitch": 50, "duration": 4, "velocity": 64}, {"time": 1940, "pitch": 54, "duration": 6, "velocity": 71}, {"time": 1946, "pitch": 43, "duration": 22, "velocity": 82}, {"time": 1952, "pitch": 50, "duration": 19, "velocity": 59}, {"time": 1958, "pitch": 55, "duration": 19, "velocity": 47}, {"time": 1958, "pitch": 62, "duration": 22, "velocity": 64}, {"time": 1964, "pitch": 59, "duration": 21, "velocity": 51}, {"time": 1970, "pitch": 43, "duration": 18, "velocity": 66}, {"time": 1976, "pitch": 50, "duration": 12, "velocity": 50}, {"time": 1982, "pitch": 55, "duration": 5, "velocity": 50}, {"time": 1982, "pitch": 67, "duration": 18, "velocity": 78}, {"time": 1988, "pitch": 59, "duration": 14, "velocity": 53}, {"time": 1994, "pitch": 42, "duration": 19, "velocity": 82}, {"time": 2000, "pitch": 50, "duration": 12, "velocity": 66}, {"time": 2006, "pitch": 54, "duration": 7, "velocity": 51}, {"time": 2006, "pitch": 62, "duration": 14, "velocity": 69}, {"time": 2006, "pitch": 66, "duration": 14, "velocity": 76}, {"time": 2012, "pitch": 59, "duration": 6, "velocity": 58}, {"time": 2018, "pitch": 47, "duration": 17, "velocity": 70}, {"time": 2024, "pitch": 54, "duration": 8, "velocity": 59}, {"time": 2030, "pitch": 66, "duration": 11, "velocity": 99}, {"time": 2033, "pitch": 54, "duration": 2, "velocity": 64}, {"time": 2036, "pitch": 62, "duration": 7, "velocity": 81}, {"time": 2039, "pitch": 59, "duration": 15, "velocity": 68}, {"time": 2042, "pitch": 40, "duration": 17, "velocity": 95}, {"time": 2048, "pitch": 47, "duration": 11, "velocity": 56}, {"time": 2054, "pitch": 52, "duration": 8, "velocity": 47}, {"time": 2054, "pitch": 64, "duration": 13, "velocity": 72}, {"time": 2054, "pitch": 67, "duration": 13, "velocity": 77}, {"time": 2060, "pitch": 59, "duration": 8, "velocity": 72}, {"time": 2066, "pitch": 45, "duration": 19, "velocity": 82}, {"time": 2072, "pitch": 52, "duration": 14, "velocity": 53}, {"time": 2078, "pitch": 61, "duration": 10, "velocity": 96}, {"time": 2078, "pitch": 64, "duration": 11, "velocity": 85}, {"time": 2084, "pitch": 57, "duration": 4, "velocity": 89}, {"time": 2090, "pitch": 45, "duration": 36, "velocity": 74}, {"time": 2090, "pitch": 57, "duration": 6, "velocity": 76}, {"time": 2090, "pitch": 61, "duration": 6, "velocity": 67}, {"time": 2090, "pitch": 64, "duration": 6, "velocity": 73}, {"time": 2096, "pitch": 52, "duration": 28, "velocity": 57}, {"time": 2102, "pitch": 57, "duration": 10, "velocity": 78}, {"time": 2108, "pitch": 55, "duration": 12, "velocity": 65}, {"time": 2114, "pitch": 57, "duration": 10, "velocity": 62}, {"time": 2114, "pitch": 61, "duration": 11, "velocity": 69}, {"time": 2114, "pitch": 64, "duration": 11, "velocity": 70}, {"time": 2114, "pitch": 67, "duration": 7, "velocity": 59}, {"time": 2126, "pitch": 46, "duration": 11, "velocity": 64}, {"time": 2126, "pitch": 58, "duration": 11, "velocity": 92}, {"time": 2126, "pitch": 61, "duration": 11, "velocity": 67}, {"time": 2126, "pitch": 64, "duration": 11, "velocity": 48}, {"time": 2138, "pitch": 43, "duration": 21, "velocity": 79}, {"time": 2144, "pitch": 50, "duration": 7, "velocity": 66}, {"time": 2150, "pitch": 62, "duration": 16, "velocity": 97}, {"time": 2153, "pitch": 50, "duration": 8, "velocity": 64}, {"time": 2156, "pitch": 59, "duration": 11, "velocity": 74}, {"time": 2159, "pitch": 55, "duration": 5, "velocity": 66}, {"time": 2162, "pitch": 43, "duration": 17, "velocity": 68}, {"time": 2165, "pitch": 50, "duration": 9, "velocity": 85}, {"time": 2168, "pitch": 55, "duration": 7, "velocity": 72}, {"time": 2171, "pitch": 59, "duration": 3, "velocity": 72}, {"time": 2174, "pitch": 62, "duration": 12, "velocity": 99}, {"time": 2177, "pitch": 50, "duration": 1, "velocity": 61}, {"time": 2180, "pitch": 55, "duration": 5, "velocity": 75}, {"time": 2183, "pitch": 59, "duration": 3, "velocity": 66}, {"time": 2186, "pitch": 42, "duration": 19, "velocity": 68}, {"time": 2189, "pitch": 50, "duration": 15, "velocity": 56}, {"time": 2192, "pitch": 54, "duration": 7, "velocity": 59}, {"time": 2195, "pitch": 59, "duration": 5, "velocity": 67}, {"time": 2198, "pitch": 66, "duration": 11, "velocity": 100}, {"time": 2201, "pitch": 54, "duration": 3, "velocity": 78}, {"time": 2204, "pitch": 62, "duration": 5, "velocity": 79}, {"time": 2207, "pitch": 59, "duration": 3, "velocity": 79}, {"time": 2210, "pitch": 47, "duration": 18, "velocity": 75}, {"time": 2213, "pitch": 54, "duration": 10, "velocity": 92}, {"time": 2216, "pitch": 59, "duration": 7, "velocity": 69}, {"time": 2219, "pitch": 62, "duration": 3, "velocity": 59}, {"time": 2222, "pitch": 66, "duration": 10, "velocity": 107}, {"time": 2225, "pitch": 54, "duration": 2, "velocity": 72}, {"time": 2228, "pitch": 62, "duration": 5, "velocity": 90}, {"time": 2231, "pitch": 59, "duration": 4, "velocity": 85}, {"time": 2234, "pitch": 40, "duration": 15, "velocity": 77}, {"time": 2237, "pitch": 47, "duration": 13, "velocity": 59}, {"time": 2240, "pitch": 52, "duration": 6, "velocity": 81}, {"time": 2243, "pitch": 59, "duration": 6, "velocity": 92}, {"time": 2246, "pitch": 67, "duration": 11, "velocity": 107}, {"time": 2249, "pitch": 52, "duration": 3, "velocity": 89}, {"time": 2252, "pitch": 64, "duration": 4, "velocity": 96}, {"time": 2255, "pitch": 59, "duration": 3, "velocity": 92}, {"time": 2258, "pitch": 42, "duration": 11, "velocity": 93}, {"time": 2261, "pitch": 57, "duration": 4, "velocity": 81}, {"time": 2264, "pitch": 66, "duration": 6, "velocity": 117}, {"time": 2267, "pitch": 57, "duration": 2, "velocity": 90}, {"time": 2270, "pitch": 46, "duration": 7, "velocity": 88}, {"time": 2273, "pitch": 58, "duration": 4, "velocity": 86}, {"time": 2276, "pitch": 66, "duration": 6, "velocity": 100}, {"time": 2279, "pitch": 58, "duration": 3, "velocity": 77}, {"time": 2282, "pitch": 47, "duration": 22, "velocity": 73}, {"time": 2285, "pitch": 54, "duration": 10, "velocity": 67}, {"time": 2288, "pitch": 59, "duration": 8, "velocity": 64}, {"time": 2291, "pitch": 62, "duration": 3, "velocity": 59}, {"time": 2294, "pitch": 66, "duration": 12, "velocity": 107}, {"time": 2297, "pitch": 54, "duration": 9, "velocity": 75}, {"time": 2300, "pitch": 62, "duration": 6, "velocity": 82}, {"time": 2303, "pitch": 59, "duration": 3, "velocity": 79}, {"time": 2306, "pitch": 47, "duration": 6, "velocity": 72}, {"time": 2306, "pitch": 59, "duration": 6, "velocity": 72}, {"time": 2306, "pitch": 62, "duration": 6, "velocity": 73}, {"time": 2306, "pitch": 66, "duration": 7, "velocity": 69}, {"time": 2318, "pitch": 45, "duration": 6, "velocity": 69}, {"time": 2318, "pitch": 57, "duration": 14, "velocity": 96}, {"time": 2330, "pitch": 44, "duration": 18, "velocity": 88}, {"time": 2333, "pitch": 56, "duration": 10, "velocity": 73}, {"time": 2336, "pitch": 59, "duration": 4, "velocity": 69}, {"time": 2339, "pitch": 62, "duration": 1, "velocity": 76}, {"time": 2342, "pitch": 62, "duration": 6, "velocity": 107}, {"time": 2345, "pitch": 56, "duration": 2, "velocity": 63}, {"time": 2348, "pitch": 59, "duration": 5, "velocity": 81}, {"time": 2351, "pitch": 62, "duration": 5, "velocity": 83}, {"time": 2354, "pitch": 43, "duration": 16, "velocity": 68}, {"time": 2357, "pitch": 50, "duration": 10, "velocity": 72}, {"time": 2360, "pitch": 55, "duration": 7, "velocity": 69}, {"time": 2363, "pitch": 59, "duration": 3, "velocity": 67}, {"time": 2366, "pitch": 62, "duration": 13, "velocity": 92}, {"time": 2369, "pitch": 50, "duration": 2, "velocity": 71}, {"time": 2372, "pitch": 59, "duration": 6, "velocity": 64}, {"time": 2375, "pitch": 55, "duration": 3, "velocity": 54}, {"time": 2378, "pitch": 42, "duration": 17, "velocity": 71}, {"time": 2381, "pitch": 49, "duration": 14, "velocity": 66}, {"time": 2384, "pitch": 54, "duration": 7, "velocity": 78}, {"time": 2387, "pitch": 57, "duration": 6, "velocity": 64}, {"time": 2390, "pitch": 66, "duration": 12, "velocity": 100}, {"time": 2393, "pitch": 54, "duration": 3, "velocity": 76}, {"time": 2396, "pitch": 61, "duration": 5, "velocity": 93}, {"time": 2399, "pitch": 57, "duration": 3, "velocity": 78}, {"time": 2402, "pitch": 47, "duration": 17, "velocity": 75}, {"time": 2405, "pitch": 54, "duration": 11, "velocity": 69}, {"time": 2408, "pitch": 59, "duration": 7, "velocity": 66}, {"time": 2411, "pitch": 62, "duration": 3, "velocity": 72}, {"time": 2414, "pitch": 66, "duration": 11, "velocity": 107}, {"time": 2417, "pitch": 54, "duration": 2, "velocity": 70}, {"time": 2420, "pitch": 62, "duration": 6, "velocity": 89}, {"time": 2423, "pitch": 59, "duration": 3, "velocity": 88}, {"time": 2426, "pitch": 40, "duration": 16, "velocity": 97}, {"time": 2429, "pitch": 47, "duration": 14, "velocity": 47}, {"time": 2432, "pitch": 52, "duration": 7, "velocity": 73}, {"time": 2435, "pitch": 55, "duration": 8, "velocity": 67}, {"time": 2438, "pitch": 64, "duration": 12, "velocity": 92}, {"time": 2441, "pitch": 52, "duration": 3, "velocity": 62}, {"time": 2444, "pitch": 59, "duration": 5, "velocity": 74}, {"time": 2450, "pitch": 45, "duration": 18, "velocity": 85}, {"time": 2453, "pitch": 52, "duration": 14, "velocity": 76}, {"time": 2456, "pitch": 57, "duration": 12, "velocity": 51}, {"time": 2459, "pitch": 61, "duration": 3, "velocity": 72}, {"time": 2462, "pitch": 64, "duration": 11, "velocity": 97}, {"time": 2468, "pitch": 61, "duration": 5, "velocity": 90}, {"time": 2471, "pitch": 57, "duration": 2, "velocity": 54}, {"time": 2474, "pitch": 38, "duration": 24, "velocity": 79}, {"time": 2477, "pitch": 45, "duration": 19, "velocity": 58}, {"time": 2480, "pitch": 50, "duration": 6, "velocity": 85}, {"time": 2483, "pitch": 57, "duration": 6, "velocity": 61}, {"time": 2486, "pitch": 66, "duration": 12, "velocity": 102}, {"time": 2489, "pitch": 50, "duration": 8, "velocity": 86}, {"time": 2492, "pitch": 57, "duration": 5, "velocity": 85}, {"time": 2495, "pitch": 62, "duration": 2, "velocity": 95}, {"time": 2498, "pitch": 38, "duration": 8, "velocity": 67}, {"time": 2501, "pitch": 45, "duration": 6, "velocity": 100}, {"time": 2504, "pitch": 50, "duration": 5, "velocity": 79}, {"time": 2507, "pitch": 57, "duration": 1, "velocity": 95}, {"time": 2510, "pitch": 42, "duration": 7, "velocity": 96}, {"time": 2510, "pitch": 54, "duration": 11, "velocity": 112}, {"time": 2510, "pitch": 58, "duration": 1, "velocity": 92}, {"time": 2510, "pitch": 61, "duration": 11, "velocity": 93}, {"time": 2513, "pitch": 58, "duration": 9, "velocity": 24}, {"time": 2522, "pitch": 47, "duration": 22, "velocity": 92}, {"time": 2525, "pitch": 54, "duration": 5, "velocity": 93}, {"time": 2528, "pitch": 59, "duration": 9, "velocity": 82}, {"time": 2531, "pitch": 54, "duration": 4, "velocity": 93}, {"time": 2534, "pitch": 66, "duration": 19, "velocity": 112}, {"time": 2537, "pitch": 54, "duration": 8, "velocity": 82}, {"time": 2540, "pitch": 62, "duration": 11, "velocity": 77}, {"time": 2543, "pitch": 59, "duration": 6, "velocity": 72}, {"time": 2546, "pitch": 47, "duration": 18, "velocity": 69}, {"time": 2549, "pitch": 54, "duration": 4, "velocity": 85}, {"time": 2552, "pitch": 59, "duration": 9, "velocity": 68}, {"time": 2555, "pitch": 54, "duration": 4, "velocity": 81}, {"time": 2558, "pitch": 66, "duration": 7, "velocity": 122}, {"time": 2561, "pitch": 54, "duration": 3, "velocity": 95}, {"time": 2564, "pitch": 59, "duration": 6, "velocity": 93}, {"time": 2567, "pitch": 66, "duration": 4, "velocity": 99}, {"time": 2570, "pitch": 46, "duration": 1, "velocity": 99}, {"time": 2573, "pitch": 46, "duration": 6, "velocity": 85}, {"time": 2576, "pitch": 58, "duration": 9, "velocity": 74}, {"time": 2579, "pitch": 46, "duration": 4, "velocity": 70}, {"time": 2582, "pitch": 66, "duration": 7, "velocity": 92}, {"time": 2585, "pitch": 46, "duration": 7, "velocity": 69}, {"time": 2588, "pitch": 58, "duration": 5, "velocity": 89}, {"time": 2591, "pitch": 66, "duration": 6, "velocity": 93}, {"time": 2594, "pitch": 46, "duration": 8, "velocity": 100}, {"time": 2597, "pitch": 58, "duration": 5, "velocity": 65}, {"time": 2600, "pitch": 66, "duration": 4, "velocity": 99}, {"time": 2603, "pitch": 46, "duration": 5, "velocity": 67}, {"time": 2606, "pitch": 66, "duration": 7, "velocity": 102}, {"time": 2609, "pitch": 46, "duration": 4, "velocity": 76}, {"time": 2612, "pitch": 58, "duration": 6, "velocity": 93}, {"time": 2615, "pitch": 66, "duration": 2, "velocity": 90}, {"time": 2618, "pitch": 45, "duration": 22, "velocity": 86}, {"time": 2621, "pitch": 52, "duration": 4, "velocity": 76}, {"time": 2624, "pitch": 57, "duration": 8, "velocity": 96}, {"time": 2627, "pitch": 52, "duration": 3, "velocity": 73}, {"time": 2630, "pitch": 64, "duration": 20, "velocity": 99}, {"time": 2633, "pitch": 52, "duration": 8, "velocity": 88}, {"time": 2636, "pitch": 61, "duration": 11, "velocity": 93}, {"time": 2639, "pitch": 57, "duration": 7, "velocity": 74}, {"time": 2642, "pitch": 45, "duration": 16, "velocity": 95}, {"time": 2645, "pitch": 52, "duration": 5, "velocity": 83}, {"time": 2648, "pitch": 57, "duration": 9, "velocity": 72}, {"time": 2651, "pitch": 52, "duration": 3, "velocity": 63}, {"time": 2654, "pitch": 64, "duration": 12, "velocity": 93}, {"time": 2657, "pitch": 52, "duration": 1, "velocity": 82}, {"time": 2660, "pitch": 61, "duration": 5, "velocity": 102}, {"time": 2663, "pitch": 57, "duration": 5, "velocity": 83}, {"time": 2666, "pitch": 44, "duration": 22, "velocity": 83}, {"time": 2669, "pitch": 56, "duration": 4, "velocity": 95}, {"time": 2672, "pitch": 59, "duration": 6, "velocity": 76}, {"time": 2675, "pitch": 56, "duration": 3, "velocity": 93}, {"time": 2678, "pitch": 62, "duration": 7, "velocity": 96}, {"time": 2681, "pitch": 56, "duration": 7, "velocity": 83}, {"time": 2684, "pitch": 59, "duration": 3, "velocity": 90}, {"time": 2687, "pitch": 62, "duration": 10, "velocity": 97}, {"time": 2690, "pitch": 44, "duration": 19, "velocity": 88}, {"time": 2696, "pitch": 59, "duration": 5, "velocity": 72}, {"time": 2699, "pitch": 56, "duration": 4, "velocity": 79}, {"time": 2702, "pitch": 62, "duration": 7, "velocity": 97}, {"time": 2705, "pitch": 56, "duration": 2, "velocity": 86}, {"time": 2708, "pitch": 59, "duration": 4, "velocity": 99}, {"time": 2711, "pitch": 62, "duration": 5, "velocity": 95}, {"time": 2714, "pitch": 43, "duration": 22, "velocity": 88}, {"time": 2717, "pitch": 50, "duration": 4, "velocity": 85}, {"time": 2720, "pitch": 55, "duration": 7, "velocity": 86}, {"time": 2723, "pitch": 50, "duration": 3, "velocity": 81}, {"time": 2726, "pitch": 62, "duration": 12, "velocity": 107}, {"time": 2729, "pitch": 50, "duration": 8, "velocity": 48}, {"time": 2732, "pitch": 59, "duration": 6, "velocity": 92}, {"time": 2735, "pitch": 55, "duration": 3, "velocity": 93}, {"time": 2738, "pitch": 43, "duration": 17, "velocity": 86}, {"time": 2741, "pitch": 50, "duration": 14, "velocity": 85}, {"time": 2744, "pitch": 55, "duration": 7, "velocity": 93}, {"time": 2747, "pitch": 59, "duration": 4, "velocity": 99}, {"time": 2747, "pitch": 62, "duration": 1, "velocity": 41}, {"time": 2750, "pitch": 67, "duration": 12, "velocity": 102}, {"time": 2753, "pitch": 55, "duration": 1, "velocity": 95}, {"time": 2756, "pitch": 62, "duration": 6, "velocity": 99}, {"time": 2759, "pitch": 59, "duration": 3, "velocity": 96}, {"time": 2762, "pitch": 42, "duration": 16, "velocity": 90}, {"time": 2765, "pitch": 49, "duration": 13, "velocity": 72}, {"time": 2768, "pitch": 54, "duration": 6, "velocity": 96}, {"time": 2771, "pitch": 57, "duration": 7, "velocity": 83}, {"time": 2774, "pitch": 66, "duration": 12, "velocity": 122}, {"time": 2777, "pitch": 54, "duration": 3, "velocity": 92}, {"time": 2780, "pitch": 61, "duration": 5, "velocity": 122}, {"time": 2783, "pitch": 57, "duration": 3, "velocity": 96}, {"time": 2786, "pitch": 47, "duration": 17, "velocity": 81}, {"time": 2789, "pitch": 54, "duration": 10, "velocity": 97}, {"time": 2792, "pitch": 59, "duration": 8, "velocity": 86}, {"time": 2795, "pitch": 62, "duration": 2, "velocity": 100}, {"time": 2798, "pitch": 66, "duration": 8, "velocity": 127}, {"time": 2801, "pitch": 54, "duration": 1, "velocity": 112}, {"time": 2804, "pitch": 62, "duration": 5, "velocity": 122}, {"time": 2807, "pitch": 59, "duration": 4, "velocity": 93}, {"time": 2810, "pitch": 40, "duration": 22, "velocity": 90}, {"time": 2813, "pitch": 47, "duration": 21, "velocity": 64}, {"time": 2816, "pitch": 52, "duration": 7, "velocity": 93}, {"time": 2819, "pitch": 59, "duration": 9, "velocity": 69}, {"time": 2822, "pitch": 67, "duration": 21, "velocity": 112}, {"time": 2825, "pitch": 52, "duration": 12, "velocity": 85}, {"time": 2828, "pitch": 64, "duration": 16, "velocity": 95}, {"time": 2831, "pitch": 59, "duration": 10, "velocity": 92}, {"time": 2834, "pitch": 40, "duration": 20, "velocity": 79}, {"time": 2837, "pitch": 47, "duration": 19, "velocity": 61}, {"time": 2840, "pitch": 52, "duration": 7, "velocity": 88}, {"time": 2843, "pitch": 59, "duration": 6, "velocity": 82}, {"time": 2846, "pitch": 67, "duration": 10, "velocity": 117}, {"time": 2849, "pitch": 52, "duration": 8, "velocity": 93}, {"time": 2852, "pitch": 64, "duration": 4, "velocity": 99}, {"time": 2855, "pitch": 59, "duration": 3, "velocity": 102}, {"time": 2858, "pitch": 45, "duration": 22, "velocity": 112}, {"time": 2861, "pitch": 49, "duration": 15, "velocity": 100}, {"time": 2864, "pitch": 52, "duration": 6, "velocity": 96}, {"time": 2867, "pitch": 57, "duration": 2, "velocity": 79}, {"time": 2870, "pitch": 57, "duration": 4, "velocity": 63}, {"time": 2870, "pitch": 61, "duration": 6, "velocity": 117}, {"time": 2870, "pitch": 64, "duration": 6, "velocity": 102}, {"time": 2873, "pitch": 52, "duration": 7, "velocity": 102}, {"time": 2876, "pitch": 57, "duration": 4, "velocity": 117}, {"time": 2882, "pitch": 46, "duration": 10, "velocity": 122}, {"time": 2882, "pitch": 58, "duration": 4, "velocity": 90}, {"time": 2882, "pitch": 62, "duration": 4, "velocity": 71}, {"time": 2888, "pitch": 50, "duration": 4, "velocity": 61}, {"time": 2888, "pitch": 53, "duration": 4, "velocity": 88}, {"time": 2888, "pitch": 58, "duration": 4, "velocity": 107}, {"time": 2888, "pitch": 62, "duration": 4, "velocity": 107}, {"time": 2888, "pitch": 65, "duration": 4, "velocity": 93}, {"time": 2894, "pitch": 45, "duration": 10, "velocity": 79}, {"time": 2894, "pitch": 57, "duration": 10, "velocity": 92}, {"time": 2894, "pitch": 61, "duration": 10, "velocity": 95}, {"time": 2894, "pitch": 64, "duration": 10, "velocity": 86}, {"time": 2906, "pitch": 44, "duration": 21, "velocity": 79}, {"time": 2912, "pitch": 51, "duration": 7, "velocity": 66}, {"time": 2918, "pitch": 63, "duration": 16, "velocity": 97}, {"time": 2921, "pitch": 51, "duration": 8, "velocity": 64}, {"time": 2924, "pitch": 60, "duration": 11, "velocity": 74}, {"time": 2927, "pitch": 56, "duration": 5, "velocity": 66}, {"time": 2930, "pitch": 44, "duration": 17, "velocity": 68}, {"time": 2933, "pitch": 51, "duration": 9, "velocity": 85}, {"time": 2936, "pitch": 56, "duration": 7, "velocity": 72}, {"time": 2939, "pitch": 60, "duration": 3, "velocity": 72}, {"time": 2942, "pitch": 63, "duration": 12, "velocity": 99}, {"time": 2945, "pitch": 51, "duration": 1, "velocity": 61}, {"time": 2948, "pitch": 56, "duration": 5, "velocity": 75}, {"time": 2951, "pitch": 60, "duration": 3, "velocity": 66}, {"time": 2954, "pitch": 43, "duration": 19, "velocity": 68}, {"time": 2957, "pitch": 51, "duration": 15, "velocity": 56}, {"time": 2960, "pitch": 55, "duration": 7, "velocity": 59}, {"time": 2963, "pitch": 60, "duration": 5, "velocity": 67}, {"time": 2966, "pitch": 67, "duration": 11, "velocity": 100}, {"time": 2969, "pitch": 55, "duration": 3, "velocity": 78}, {"time": 2972, "pitch": 63, "duration": 5, "velocity": 79}, {"time": 2975, "pitch": 60, "duration": 3, "velocity": 79}, {"time": 2978, "pitch": 48, "duration": 18, "velocity": 75}, {"time": 2981, "pitch": 55, "duration": 10, "velocity": 92}, {"time": 2984, "pitch": 60, "duration": 7, "velocity": 69}, {"time": 2987, "pitch": 63, "duration": 3, "velocity": 59}, {"time": 2990, "pitch": 67, "duration": 10, "velocity": 107}, {"time": 2993, "pitch": 55, "duration": 2, "velocity": 72}, {"time": 2996, "pitch": 63, "duration": 5, "velocity": 90}, {"time": 2999, "pitch": 60, "duration": 4, "velocity": 85}, {"time": 3002, "pitch": 41, "duration": 15, "velocity": 77}, {"time": 3005, "pitch": 48, "duration": 13, "velocity": 59}, {"time": 3008, "pitch": 53, "duration": 6, "velocity": 81}, {"time": 3011, "pitch": 60, "duration": 6, "velocity": 92}, {"time": 3014, "pitch": 68, "duration": 11, "velocity": 107}, {"time": 3017, "pitch": 53, "duration": 3, "velocity": 89}, {"time": 3020, "pitch": 65, "duration": 4, "velocity": 96}, {"time": 3023, "pitch": 60, "duration": 3, "velocity": 92}, {"time": 3026, "pitch": 43, "duration": 11, "velocity": 93}, {"time": 3029, "pitch": 58, "duration": 4, "velocity": 81}, {"time": 3032, "pitch": 67, "duration": 6, "velocity": 117}, {"time": 3035, "pitch": 58, "duration": 2, "velocity": 90}, {"time": 3038, "pitch": 47, "duration": 7, "velocity": 88}, {"time": 3041, "pitch": 59, "duration": 4, "velocity": 86}, {"time": 3044, "pitch": 67, "duration": 6, "velocity": 100}, {"time": 3047, "pitch": 59, "duration": 3, "velocity": 77}, {"time": 3050, "pitch": 48, "duration": 22, "velocity": 73}, {"time": 3053, "pitch": 55, "duration": 10, "velocity": 67}, {"time": 3056, "pitch": 60, "duration": 8, "velocity": 64}, {"time": 3059, "pitch": 63, "duration": 3, "velocity": 59}, {"time": 3062, "pitch": 67, "duration": 12, "velocity": 107}, {"time": 3065, "pitch": 55, "duration": 9, "velocity": 75}, {"time": 3068, "pitch": 63, "duration": 6, "velocity": 82}, {"time": 3071, "pitch": 60, "duration": 3, "velocity": 79}, {"time": 3074, "pitch": 48, "duration": 6, "velocity": 72}, {"time": 3074, "pitch": 60, "duration": 6, "velocity": 72}, {"time": 3074, "pitch": 63, "duration": 6, "velocity": 73}, {"time": 3074, "pitch": 67, "duration": 7, "velocity": 69}, {"time": 3086, "pitch": 46, "duration": 6, "velocity": 69}, {"time": 3086, "pitch": 58, "duration": 14, "velocity": 96}, {"time": 3098, "pitch": 45, "duration": 18, "velocity": 88}, {"time": 3101, "pitch": 57, "duration": 10, "velocity": 73}, {"time": 3104, "pitch": 60, "duration": 4, "velocity": 69}, {"time": 3107, "pitch": 63, "duration": 1, "velocity": 76}, {"time": 3110, "pitch": 63, "duration": 6, "velocity": 107}, {"time": 3113, "pitch": 57, "duration": 2, "velocity": 63}, {"time": 3116, "pitch": 60, "duration": 5, "velocity": 81}, {"time": 3119, "pitch": 63, "duration": 5, "velocity": 83}, {"time": 3122, "pitch": 44, "duration": 16, "velocity": 68}, {"time": 3125, "pitch": 51, "duration": 10, "velocity": 72}, {"time": 3128, "pitch": 56, "duration": 7, "velocity": 69}, {"time": 3131, "pitch": 60, "duration": 3, "velocity": 67}, {"time": 3134, "pitch": 63, "duration": 13, "velocity": 92}, {"time": 3137, "pitch": 51, "duration": 2, "velocity": 71}, {"time": 3140, "pitch": 60, "duration": 6, "velocity": 64}, {"time": 3143, "pitch": 56, "duration": 3, "velocity": 54}, {"time": 3146, "pitch": 43, "duration": 17, "velocity": 71}, {"time": 3149, "pitch": 50, "duration": 14, "velocity": 66}, {"time": 3152, "pitch": 55, "duration": 7, "velocity": 78}, {"time": 3155, "pitch": 58, "duration": 6, "velocity": 64}, {"time": 3158, "pitch": 67, "duration": 12, "velocity": 100}, {"time": 3161, "pitch": 55, "duration": 3, "velocity": 76}, {"time": 3164, "pitch": 62, "duration": 5, "velocity": 93}, {"time": 3167, "pitch": 58, "duration": 3, "velocity": 78}, {"time": 3170, "pitch": 48, "duration": 17, "velocity": 75}, {"time": 3173, "pitch": 55, "duration": 11, "velocity": 69}, {"time": 3176, "pitch": 60, "duration": 7, "velocity": 66}, {"time": 3179, "pitch": 63, "duration": 3, "velocity": 72}, {"time": 3182, "pitch": 67, "duration": 11, "velocity": 107}, {"time": 3185, "pitch": 55, "duration": 2, "velocity": 70}, {"time": 3188, "pitch": 63, "duration": 6, "velocity": 89}, {"time": 3191, "pitch": 60, "duration": 3, "velocity": 88}, {"time": 3194, "pitch": 41, "duration": 17, "velocity": 72}, {"time": 3194, "pitch": 60, "duration": 13, "velocity": 85}, {"time": 3194, "pitch": 65, "duration": 10, "velocity": 89}, {"time": 3194, "pitch": 68, "duration": 19, "velocity": 95}, {"time": 3200, "pitch": 48, "duration": 11, "velocity": 66}, {"time": 3206, "pitch": 53, "duration": 11, "velocity": 51}, {"time": 3206, "pitch": 65, "duration": 7, "velocity": 82}, {"time": 3212, "pitch": 60, "duration": 3, "velocity": 81}, {"time": 3218, "pitch": 46, "duration": 16, "velocity": 99}, {"time": 3218, "pitch": 58, "duration": 15, "velocity": 88}, {"time": 3218, "pitch": 62, "duration": 15, "velocity": 72}, {"time": 3218, "pitch": 65, "duration": 16, "velocity": 66}, {"time": 3242, "pitch": 44, "duration": 21, "velocity": 99}, {"time": 3248, "pitch": 56, "duration": 8, "velocity": 45}, {"time": 3254, "pitch": 60, "duration": 12, "velocity": 82}, {"time": 3254, "pitch": 63, "duration": 12, "velocity": 93}, {"time": 3260, "pitch": 56, "duration": 2, "velocity": 44}, {"time": 3266, "pitch": 43, "duration": 20, "velocity": 68}, {"time": 3272, "pitch": 50, "duration": 12, "velocity": 53}, {"time": 3278, "pitch": 58, "duration": 11, "velocity": 72}, {"time": 3278, "pitch": 62, "duration": 12, "velocity": 68}, {"time": 3284, "pitch": 55, "duration": 5, "velocity": 72}, {"time": 3290, "pitch": 41, "duration": 20, "velocity": 76}, {"time": 3296, "pitch": 48, "duration": 14, "velocity": 59}, {"time": 3302, "pitch": 53, "duration": 6, "velocity": 57}, {"time": 3308, "pitch": 56, "duration": 4, "velocity": 62}, {"time": 3316, "pitch": 46, "duration": 30, "velocity": 41}, {"time": 3317, "pitch": 53, "duration": 33, "velocity": 41}, {"time": 3318, "pitch": 58, "duration": 33, "velocity": 59}, {"time": 3319, "pitch": 62, "duration": 31, "velocity": 72}, {"time": 3321, "pitch": 65, "duration": 30, "velocity": 53}, {"time": 3364, "pitch": 39, "duration": 50, "velocity": 72}, {"time": 3368, "pitch": 46, "duration": 44, "velocity": 65}, {"time": 3371, "pitch": 51, "duration": 42, "velocity": 89}, {"time": 3374, "pitch": 55, "duration": 6, "velocity": 53}, {"time": 3377, "pitch": 58, "duration": 3, "velocity": 58}, {"time": 3380, "pitch": 63, "duration": 1, "velocity": 60}, {"time": 3384, "pitch": 67, "duration": 4, "velocity": 46}, {"time": 3388, "pitch": 70, "duration": 1, "velocity": 54}, {"time": 3398, "pitch": 75, "duration": 15, "velocity": 35}, {"time": 3400, "pitch": 82, "duration": 12, "velocity": 33}, {"time": 3400, "pitch": 79, "duration": 12, "velocity": 24}, {"time": 3403, "pitch": 87, "duration": 10, "velocity": 33}], "annotations": [{"time": 26, "annotation": {"number": 64, "value": 127}, "group": "control_change"}, {"time": 72, "annotation": {"number": 64, "value": 0}, "group": "control_change"}, {"time": 74, "annotation": {"number": 64, "value": 127}, "group": "control_change"}, {"time": 96, "annotation": {"number": 64, "value": 0}, "group": "control_change"}, {"time": 98, "annotation": {"number": 64, "value": 127}, "group": "control_change"}, {"time": 120, "annotation": {"number": 64, "value": 0}, "group": "control_change"}, {"time": 122, "annotation": {"number": 64, "value": 127}, "group": "control_change"}, {"time": 145, "annotation": {"number": 64, "value": 0}, "group": "control_change"}, {"time": 145, "annotation": {"number": 64, "value": 127}, "group": "control_change"}, {"time": 156, "annotation": {"number": 64, "value": 0}, "group": "control_change"}, {"time": 158, "annotation": {"number": 64, "value": 127}, "group": "control_change"}, {"time": 168, "annotation": {"number": 64, "value": 0}, "group": "control_change"}, {"time": 170, "annotation": {"number": 64, "value": 127}, "group": "control_change"}, {"time": 192, "annotation": {"number": 64, "value": 0}, "group": "control_change"}, {"time": 194, "annotation": {"number": 64, "value": 127}, "group": "control_change"}, {"time": 216, "annotation": {"number": 64, "value": 0}, "group": "control_change"}, {"time": 218, "annotation": {"number": 64, "value": 127}, "group": "control_change"}, {"time": 240, "annotation": {"number": 64, "value": 0}, "group": "control_change"}, {"time": 242, "annotation": {"number": 64, "value": 127}, "group": "control_change"}, {"time": 263, "annotation": {"number": 64, "value": 0}, "group": "control_change"}, {"time": 266, "annotation": {"number": 64, "value": 127}, "group": "control_change"}, {"time": 288, "annotation": {"number": 64, "value": 0}, "group": "control_change"}, {"time": 290, "annotation": {"number": 64, "value": 127}, "group": "control_change"}, {"time": 312, "annotation": {"number": 64, "value": 0}, "group": "control_change"}, {"time": 314, "annotation": {"number": 64, "value": 127}, "group": "control_change"}, {"time": 335, "annotation": {"number": 64, "value": 0}, "group": "control_change"}, {"time": 338, "annotation": {"number": 64, "value": 127}, "group": "control_change"}, {"time": 360, "annotation": {"number": 64, "value": 0}, "group": "control_change"}, {"time": 363, "annotation": {"number": 64, "value": 127}, "group": "control_change"}, {"time": 372, "annotation": {"number": 64, "value": 0}, "group": "control_change"}, {"time": 374, "annotation": {"number": 64, "value": 127}, "group": "control_change"}, {"time": 386, "annotation": {"number": 64, "value": 0}, "group": "control_change"}, {"time": 398, "annotation": {"number": 64, "value": 127}, "group": "control_change"}, {"time": 405, "annotation": {"number": 64, "value": 0}, "group": "control_change"}, {"time": 410, "annotation": {"number": 64, "value": 127}, "group": "control_change"}, {"time": 432, "annotation": {"number": 64, "value": 0}, "group": "control_change"}, {"time": 456, "annotation": {"number": 64, "value": 0}, "group": "control_change"}, {"time": 458, "annotation": {"number": 64, "value": 127}, "group": "control_change"}, {"time": 484, "annotation": {"number": 64, "value": 0}, "group": "control_change"}, {"time": 494, "annotation": {"number": 64, "value": 127}, "group": "control_change"}, {"time": 503, "annotation": {"number": 64, "value": 0}, "group": "control_change"}, {"time": 506, "annotation": {"number": 64, "value": 127}, "group": "control_change"}, {"time": 528, "annotation": {"number": 64, "value": 0}, "group": "control_change"}, {"time": 530, "annotation": {"number": 64, "value": 127}, "group": "control_change"}, {"time": 551, "annotation": {"number": 64, "value": 0}, "group": "control_change"}, {"time": 554, "annotation": {"number": 64, "value": 127}, "group": "control_change"}, {"time": 600, "annotation": {"number": 64, "value": 0}, "group": "control_change"}, {"time": 603, "annotation": {"number": 64, "value": 127}, "group": "control_change"}, {"time": 624, "annotation": {"number": 64, "value": 0}, "group": "control_change"}, {"time": 626, "annotation": {"number": 64, "value": 127}, "group": "control_change"}, {"time": 648, "annotation": {"number": 64, "value": 0}, "group": "control_change"}, {"time": 650, "annotation": {"number": 64, "value": 127}, "group": "control_change"}, {"time": 672, "annotation": {"number": 64, "value": 0}, "group": "control_change"}, {"time": 675, "annotation": {"number": 64, "value": 127}, "group": "control_change"}, {"time": 695, "annotation": {"number": 64, "value": 0}, "group": "control_change"}, {"time": 698, "annotation": {"number": 64, "value": 127}, "group": "control_change"}, {"time": 718, "annotation": {"number": 64, "value": 0}, "group": "control_change"}, {"time": 722, "annotation": {"number": 64, "value": 127}, "group": "control_change"}, {"time": 741, "annotation": {"number": 64, "value": 0}, "group": "control_change"}, {"time": 747, "annotation": {"number": 64, "value": 127}, "group": "control_change"}, {"time": 769, "annotation": {"number": 64, "value": 0}, "group": "control_change"}, {"time": 779, "annotation": {"number": 64, "value": 127}, "group": "control_change"}, {"time": 781, "annotation": {"number": 64, "value": 0}, "group": "control_change"}, {"time": 799, "annotation": {"number": 64, "value": 127}, "group": "control_change"}, {"time": 815, "annotation": {"number": 64, "value": 0}, "group": "control_change"}, {"time": 818, "annotation": {"number": 64, "value": 127}, "group": "control_change"}, {"time": 839, "annotation": {"number": 64, "value": 0}, "group": "control_change"}, {"time": 842, "annotation": {"number": 64, "value": 127}, "group": "control_change"}, {"time": 863, "annotation": {"number": 64, "value": 0}, "group": "control_change"}, {"time": 866, "annotation": {"number": 64, "value": 127}, "group": "control_change"}, {"time": 887, "annotation": {"number": 64, "value": 0}, "group": "control_change"}, {"time": 890, "annotation": {"number": 64, "value": 127}, "group": "control_change"}, {"time": 912, "annotation": {"number": 64, "value": 0}, "group": "control_change"}, {"time": 915, "annotation": {"number": 64, "value": 127}, "group": "control_change"}, {"time": 923, "annotation": {"number": 64, "value": 0}, "group": "control_change"}, {"time": 926, "annotation": {"number": 64, "value": 127}, "group": "control_change"}, {"time": 935, "annotation": {"number": 64, "value": 0}, "group": "control_change"}, {"time": 938, "annotation": {"number": 64, "value": 127}, "group": "control_change"}, {"time": 958, "annotation": {"number": 64, "value": 0}, "group": "control_change"}, {"time": 962, "annotation": {"number": 64, "value": 127}, "group": "control_change"}, {"time": 973, "annotation": {"number": 64, "value": 0}, "group": "control_change"}, {"time": 987, "annotation": {"number": 64, "value": 127}, "group": "control_change"}, {"time": 1007, "annotation": {"number": 64, "value": 0}, "group": "control_change"}, {"time": 1010, "annotation": {"number": 64, "value": 127}, "group": "control_change"}, {"time": 1031, "annotation": {"number": 64, "value": 0}, "group": "control_change"}, {"time": 1035, "annotation": {"number": 64, "value": 127}, "group": "control_change"}, {"time": 1054, "annotation": {"number": 64, "value": 0}, "group": "control_change"}, {"time": 1058, "annotation": {"number": 64, "value": 127}, "group": "control_change"}, {"time": 1078, "annotation": {"number": 64, "value": 0}, "group": "control_change"}, {"time": 1082, "annotation": {"number": 64, "value": 127}, "group": "control_change"}, {"time": 1103, "annotation": {"number": 64, "value": 0}, "group": "control_change"}, {"time": 1106, "annotation": {"number": 64, "value": 127}, "group": "control_change"}, {"time": 1127, "annotation": {"number": 64, "value": 0}, "group": "control_change"}, {"time": 1130, "annotation": {"number": 64, "value": 127}, "group": "control_change"}, {"time": 1151, "annotation": {"number": 64, "value": 0}, "group": "control_change"}, {"time": 1154, "annotation": {"number": 64, "value": 127}, "group": "control_change"}, {"time": 1158, "annotation": {"number": 64, "value": 0}, "group": "control_change"}, {"time": 1165, "annotation": {"number": 64, "value": 127}, "group": "control_change"}, {"time": 1167, "annotation": {"number": 64, "value": 0}, "group": "control_change"}, {"time": 1178, "annotation": {"number": 64, "value": 127}, "group": "control_change"}, {"time": 1198, "annotation": {"number": 64, "value": 0}, "group": "control_change"}, {"time": 1202, "annotation": {"number": 64, "value": 127}, "group": "control_change"}, {"time": 1223, "annotation": {"number": 64, "value": 0}, "group": "control_change"}, {"time": 1226, "annotation": {"number": 64, "value": 127}, "group": "control_change"}, {"time": 1246, "annotation": {"number": 64, "value": 0}, "group": "control_change"}, {"time": 1250, "annotation": {"number": 64, "value": 127}, "group": "control_change"}, {"time": 1271, "annotation": {"number": 64, "value": 0}, "group": "control_change"}, {"time": 1274, "annotation": {"number": 64, "value": 127}, "group": "control_change"}, {"time": 1295, "annotation": {"number": 64, "value": 0}, "group": "control_change"}, {"time": 1301, "annotation": {"number": 64, "value": 127}, "group": "control_change"}, {"time": 1303, "annotation": {"number": 64, "value": 0}, "group": "control_change"}, {"time": 1307, "annotation": {"number": 64, "value": 127}, "group": "control_change"}, {"time": 1309, "annotation": {"number": 64, "value": 0}, "group": "control_change"}, {"time": 1309, "annotation": {"number": 64, "value": 127}, "group": "control_change"}, {"time": 1318, "annotation": {"number": 64, "value": 0}, "group": "control_change"}, {"time": 1322, "annotation": {"number": 64, "value": 127}, "group": "control_change"}, {"time": 1343, "annotation": {"number": 64, "value": 0}, "group": "control_change"}, {"time": 1370, "annotation": {"number": 64, "value": 127}, "group": "control_change"}, {"time": 1390, "annotation": {"number": 64, "value": 0}, "group": "control_change"}, {"time": 1395, "annotation": {"number": 64, "value": 127}, "group": "control_change"}, {"time": 1415, "annotation": {"number": 64, "value": 0}, "group": "control_change"}, {"time": 1418, "annotation": {"number": 64, "value": 127}, "group": "control_change"}, {"time": 1438, "annotation": {"number": 64, "value": 0}, "group": "control_change"}, {"time": 1442, "annotation": {"number": 64, "value": 127}, "group": "control_change"}, {"time": 1462, "annotation": {"number": 64, "value": 0}, "group": "control_change"}, {"time": 1466, "annotation": {"number": 64, "value": 127}, "group": "control_change"}, {"time": 1485, "annotation": {"number": 64, "value": 0}, "group": "control_change"}, {"time": 1490, "annotation": {"number": 64, "value": 127}, "group": "control_change"}, {"time": 1508, "annotation": {"number": 64, "value": 0}, "group": "control_change"}, {"time": 1515, "annotation": {"number": 64, "value": 127}, "group": "control_change"}, {"time": 1534, "annotation": {"number": 64, "value": 0}, "group": "control_change"}, {"time": 1538, "annotation": {"number": 64, "value": 127}, "group": "control_change"}, {"time": 1557, "annotation": {"number": 64, "value": 0}, "group": "control_change"}, {"time": 1562, "annotation": {"number": 64, "value": 127}, "group": "control_change"}, {"time": 1583, "annotation": {"number": 64, "value": 0}, "group": "control_change"}, {"time": 1587, "annotation": {"number": 64, "value": 127}, "group": "control_change"}, {"time": 1607, "annotation": {"number": 64, "value": 0}, "group": "control_change"}, {"time": 1611, "annotation": {"number": 64, "value": 127}, "group": "control_change"}, {"time": 1655, "annotation": {"number": 64, "value": 0}, "group": "control_change"}, {"time": 1659, "annotation": {"number": 64, "value": 127}, "group": "control_change"}, {"time": 1703, "annotation": {"number": 64, "value": 0}, "group": "control_change"}, {"time": 1706, "annotation": {"number": 64, "value": 127}, "group": "control_change"}, {"time": 1723, "annotation": {"number": 64, "value": 0}, "group": "control_change"}, {"time": 1738, "annotation": {"number": 64, "value": 127}, "group": "control_change"}, {"time": 1740, "annotation": {"number": 64, "value": 0}, "group": "control_change"}, {"time": 1754, "annotation": {"number": 64, "value": 127}, "group": "control_change"}, {"time": 1776, "annotation": {"number": 64, "value": 0}, "group": "control_change"}, {"time": 1800, "annotation": {"number": 64, "value": 0}, "group": "control_change"}, {"time": 1802, "annotation": {"number": 64, "value": 127}, "group": "control_change"}, {"time": 1828, "annotation": {"number": 64, "value": 0}, "group": "control_change"}, {"time": 1838, "annotation": {"number": 64, "value": 127}, "group": "control_change"}, {"time": 1847, "annotation": {"number": 64, "value": 0}, "group": "control_change"}, {"time": 1850, "annotation": {"number": 64, "value": 127}, "group": "control_change"}, {"time": 1872, "annotation": {"number": 64, "value": 0}, "group": "control_change"}, {"time": 1874, "annotation": {"number": 64, "value": 127}, "group": "control_change"}, {"time": 1895, "annotation": {"number": 64, "value": 0}, "group": "control_change"}, {"time": 1898, "annotation": {"number": 64, "value": 127}, "group": "control_change"}, {"time": 1944, "annotation": {"number": 64, "value": 0}, "group": "control_change"}, {"time": 1947, "annotation": {"number": 64, "value": 127}, "group": "control_change"}, {"time": 1968, "annotation": {"number": 64, "value": 0}, "group": "control_change"}, {"time": 1970, "annotation": {"number": 64, "value": 127}, "group": "control_change"}, {"time": 1992, "annotation": {"number": 64, "value": 0}, "group": "control_change"}, {"time": 1994, "annotation": {"number": 64, "value": 127}, "group": "control_change"}, {"time": 2016, "annotation": {"number": 64, "value": 0}, "group": "control_change"}, {"time": 2019, "annotation": {"number": 64, "value": 127}, "group": "control_change"}, {"time": 2039, "annotation": {"number": 64, "value": 0}, "group": "control_change"}, {"time": 2042, "annotation": {"number": 64, "value": 127}, "group": "control_change"}, {"time": 2062, "annotation": {"number": 64, "value": 0}, "group": "control_change"}, {"time": 2066, "annotation": {"number": 64, "value": 127}, "group": "control_change"}, {"time": 2085, "annotation": {"number": 64, "value": 0}, "group": "control_change"}, {"time": 2091, "annotation": {"number": 64, "value": 127}, "group": "control_change"}, {"time": 2113, "annotation": {"number": 64, "value": 0}, "group": "control_change"}, {"time": 2123, "annotation": {"number": 64, "value": 127}, "group": "control_change"}, {"time": 2125, "annotation": {"number": 64, "value": 0}, "group": "control_change"}, {"time": 2143, "annotation": {"number": 64, "value": 127}, "group": "control_change"}, {"time": 2159, "annotation": {"number": 64, "value": 0}, "group": "control_change"}, {"time": 2162, "annotation": {"number": 64, "value": 127}, "group": "control_change"}, {"time": 2183, "annotation": {"number": 64, "value": 0}, "group": "control_change"}, {"time": 2186, "annotation": {"number": 64, "value": 127}, "group": "control_change"}, {"time": 2207, "annotation": {"number": 64, "value": 0}, "group": "control_change"}, {"time": 2210, "annotation": {"number": 64, "value": 127}, "group": "control_change"}, {"time": 2231, "annotation": {"number": 64, "value": 0}, "group": "control_change"}, {"time": 2234, "annotation": {"number": 64, "value": 127}, "group": "control_change"}, {"time": 2256, "annotation": {"number": 64, "value": 0}, "group": "control_change"}, {"time": 2259, "annotation": {"number": 64, "value": 127}, "group": "control_change"}, {"time": 2267, "annotation": {"number": 64, "value": 0}, "group": "control_change"}, {"time": 2270, "annotation": {"number": 64, "value": 127}, "group": "control_change"}, {"time": 2279, "annotation": {"number": 64, "value": 0}, "group": "control_change"}, {"time": 2282, "annotation": {"number": 64, "value": 127}, "group": "control_change"}, {"time": 2302, "annotation": {"number": 64, "value": 0}, "group": "control_change"}, {"time": 2306, "annotation": {"number": 64, "value": 127}, "group": "control_change"}, {"time": 2317, "annotation": {"number": 64, "value": 0}, "group": "control_change"}, {"time": 2331, "annotation": {"number": 64, "value": 127}, "group": "control_change"}, {"time": 2351, "annotation": {"number": 64, "value": 0}, "group": "control_change"}, {"time": 2354, "annotation": {"number": 64, "value": 127}, "group": "control_change"}, {"time": 2375, "annotation": {"number": 64, "value": 0}, "group": "control_change"}, {"time": 2379, "annotation": {"number": 64, "value": 127}, "group": "control_change"}, {"time": 2398, "annotation": {"number": 64, "value": 0}, "group": "control_change"}, {"time": 2402, "annotation": {"number": 64, "value": 127}, "group": "control_change"}, {"time": 2422, "annotation": {"number": 64, "value": 0}, "group": "control_change"}, {"time": 2427, "annotation": {"number": 64, "value": 127}, "group": "control_change"}, {"time": 2446, "annotation": {"number": 64, "value": 0}, "group": "control_change"}, {"time": 2450, "annotation": {"number": 64, "value": 127}, "group": "control_change"}, {"time": 2470, "annotation": {"number": 64, "value": 0}, "group": "control_change"}, {"time": 2474, "annotation": {"number": 64, "value": 127}, "group": "control_change"}, {"time": 2493, "annotation": {"number": 64, "value": 0}, "group": "control_change"}, {"time": 2499, "annotation": {"number": 64, "value": 127}, "group": "control_change"}, {"time": 2509, "annotation": {"number": 64, "value": 0}, "group": "control_change"}, {"time": 2521, "annotation": {"number": 64, "value": 127}, "group": "control_change"}, {"time": 2544, "annotation": {"number": 64, "value": 0}, "group": "control_change"}, {"time": 2546, "annotation": {"number": 64, "value": 127}, "group": "control_change"}, {"time": 2567, "annotation": {"number": 64, "value": 0}, "group": "control_change"}, {"time": 2570, "annotation": {"number": 64, "value": 127}, "group": "control_change"}, {"time": 2591, "annotation": {"number": 64, "value": 0}, "group": "control_change"}, {"time": 2594, "annotation": {"number": 64, "value": 127}, "group": "control_change"}, {"time": 2615, "annotation": {"number": 64, "value": 0}, "group": "control_change"}, {"time": 2618, "annotation": {"number": 64, "value": 127}, "group": "control_change"}, {"time": 2640, "annotation": {"number": 64, "value": 0}, "group": "control_change"}, {"time": 2642, "annotation": {"number": 64, "value": 127}, "group": "control_change"}, {"time": 2662, "annotation": {"number": 64, "value": 0}, "group": "control_change"}, {"time": 2665, "annotation": {"number": 64, "value": 127}, "group": "control_change"}, {"time": 2710, "annotation": {"number": 64, "value": 0}, "group": "control_change"}, {"time": 2713, "annotation": {"number": 64, "value": 127}, "group": "control_change"}, {"time": 2735, "annotation": {"number": 64, "value": 0}, "group": "control_change"}, {"time": 2738, "annotation": {"number": 64, "value": 127}, "group": "control_change"}, {"time": 2760, "annotation": {"number": 64, "value": 0}, "group": "control_change"}, {"time": 2762, "annotation": {"number": 64, "value": 127}, "group": "control_change"}, {"time": 2783, "annotation": {"number": 64, "value": 0}, "group": "control_change"}, {"time": 2786, "annotation": {"number": 64, "value": 127}, "group": "control_change"}, {"time": 2806, "annotation": {"number": 64, "value": 0}, "group": "control_change"}, {"time": 2810, "annotation": {"number": 64, "value": 127}, "group": "control_change"}, {"time": 2830, "annotation": {"number": 64, "value": 0}, "group": "control_change"}, {"time": 2834, "annotation": {"number": 64, "value": 127}, "group": "control_change"}, {"time": 2854, "annotation": {"number": 64, "value": 0}, "group": "control_change"}, {"time": 2858, "annotation": {"number": 64, "value": 127}, "group": "control_change"}, {"time": 2880, "annotation": {"number": 64, "value": 0}, "group": "control_change"}, {"time": 2887, "annotation": {"number": 64, "value": 127}, "group": "control_change"}, {"time": 2889, "annotation": {"number": 64, "value": 0}, "group": "control_change"}, {"time": 2911, "annotation": {"number": 64, "value": 127}, "group": "control_change"}, {"time": 2927, "annotation": {"number": 64, "value": 0}, "group": "control_change"}, {"time": 2930, "annotation": {"number": 64, "value": 127}, "group": "control_change"}, {"time": 2951, "annotation": {"number": 64, "value": 0}, "group": "control_change"}, {"time": 2954, "annotation": {"number": 64, "value": 127}, "group": "control_change"}, {"time": 2975, "annotation": {"number": 64, "value": 0}, "group": "control_change"}, {"time": 2978, "annotation": {"number": 64, "value": 127}, "group": "control_change"}, {"time": 2999, "annotation": {"number": 64, "value": 0}, "group": "control_change"}, {"time": 3002, "annotation": {"number": 64, "value": 127}, "group": "control_change"}, {"time": 3024, "annotation": {"number": 64, "value": 0}, "group": "control_change"}, {"time": 3027, "annotation": {"number": 64, "value": 127}, "group": "control_change"}, {"time": 3035, "annotation": {"number": 64, "value": 0}, "group": "control_change"}, {"time": 3038, "annotation": {"number": 64, "value": 127}, "group": "control_change"}, {"time": 3047, "annotation": {"number": 64, "value": 0}, "group": "control_change"}, {"time": 3050, "annotation": {"number": 64, "value": 127}, "group": "control_change"}, {"time": 3070, "annotation": {"number": 64, "value": 0}, "group": "control_change"}, {"time": 3074, "annotation": {"number": 64, "value": 127}, "group": "control_change"}, {"time": 3085, "annotation": {"number": 64, "value": 0}, "group": "control_change"}, {"time": 3099, "annotation": {"number": 64, "value": 127}, "group": "control_change"}, {"time": 3119, "annotation": {"number": 64, "value": 0}, "group": "control_change"}, {"time": 3122, "annotation": {"number": 64, "value": 127}, "group": "control_change"}, {"time": 3143, "annotation": {"number": 64, "value": 0}, "group": "control_change"}, {"time": 3147, "annotation": {"number": 64, "value": 127}, "group": "control_change"}, {"time": 3166, "annotation": {"number": 64, "value": 0}, "group": "control_change"}, {"time": 3170, "annotation": {"number": 64, "value": 127}, "group": "control_change"}, {"time": 3190, "annotation": {"number": 64, "value": 0}, "group": "control_change"}, {"time": 3194, "annotation": {"number": 64, "value": 127}, "group": "control_change"}, {"time": 3216, "annotation": {"number": 64, "value": 0}, "group": "control_change"}, {"time": 3219, "annotation": {"number": 64, "value": 127}, "group": "control_change"}, {"time": 3239, "annotation": {"number": 64, "value": 0}, "group": "control_change"}, {"time": 3242, "annotation": {"number": 64, "value": 127}, "group": "control_change"}, {"time": 3263, "annotation": {"number": 64, "value": 0}, "group": "control_change"}, {"time": 3266, "annotation": {"number": 64, "value": 127}, "group": "control_change"}, {"time": 3287, "annotation": {"number": 64, "value": 0}, "group": "control_change"}, {"time": 3291, "annotation": {"number": 64, "value": 127}, "group": "control_change"}, {"time": 3365, "annotation": {"number": 64, "value": 0}, "group": "control_change"}, {"time": 3369, "annotation": {"number": 64, "value": 127}, "group": "control_change"}]}]}