{"metadata": {"schema_version": "0.2", "title": "None", "source_filename": "777.mid", "source_format": "midi"}, "resolution": 12, "tempos": [{"time": 0, "qpm": 63.04004303533605}], "time_signatures": [{"time": 0, "numerator": 1, "denominator": 4}], "tracks": [{"program": 0, "is_drum": false, "name": "MELODY", "notes": [{"time": 300, "pitch": 64, "duration": 7, "velocity": 93}, {"time": 306, "pitch": 76, "duration": 4, "velocity": 107}, {"time": 309, "pitch": 74, "duration": 4, "velocity": 97}, {"time": 312, "pitch": 72, "duration": 7, "velocity": 100}, {"time": 324, "pitch": 72, "duration": 6, "velocity": 95}, {"time": 330, "pitch": 64, "duration": 7, "velocity": 79}, {"time": 336, "pitch": 67, "duration": 8, "velocity": 82}, {"time": 348, "pitch": 76, "duration": 8, "velocity": 112}, {"time": 357, "pitch": 74, "duration": 4, "velocity": 88}, {"time": 360, "pitch": 72, "duration": 6, "velocity": 86}, {"time": 366, "pitch": 69, "duration": 7, "velocity": 73}, {"time": 372, "pitch": 74, "duration": 13, "velocity": 90}, {"time": 396, "pitch": 76, "duration": 6, "velocity": 117}, {"time": 402, "pitch": 74, "duration": 3, "velocity": 99}, {"time": 405, "pitch": 76, "duration": 4, "velocity": 73}, {"time": 408, "pitch": 67, "duration": 5, "velocity": 95}, {"time": 417, "pitch": 64, "duration": 3, "velocity": 67}, {"time": 420, "pitch": 67, "duration": 4, "velocity": 73}, {"time": 423, "pitch": 69, "duration": 4, "velocity": 79}, {"time": 426, "pitch": 71, "duration": 6, "velocity": 90}, {"time": 432, "pitch": 69, "duration": 8, "velocity": 86}, {"time": 444, "pitch": 74, "duration": 3, "velocity": 117}, {"time": 449, "pitch": 74, "duration": 1, "velocity": 77}, {"time": 450, "pitch": 74, "duration": 4, "velocity": 83}, {"time": 453, "pitch": 76, "duration": 2, "velocity": 88}, {"time": 456, "pitch": 72, "duration": 4, "velocity": 112}, {"time": 459, "pitch": 74, "duration": 3, "velocity": 102}, {"time": 462, "pitch": 69, "duration": 6, "velocity": 107}, {"time": 468, "pitch": 67, "duration": 12, "velocity": 96}, {"time": 492, "pitch": 79, "duration": 6, "velocity": 107}, {"time": 498, "pitch": 76, "duration": 4, "velocity": 93}, {"time": 501, "pitch": 74, "duration": 4, "velocity": 90}, {"time": 504, "pitch": 76, "duration": 8, "velocity": 97}, {"time": 513, "pitch": 79, "duration": 4, "velocity": 93}, {"time": 516, "pitch": 69, "duration": 6, "velocity": 107}, {"time": 522, "pitch": 67, "duration": 4, "velocity": 90}, {"time": 525, "pitch": 69, "duration": 3, "velocity": 92}, {"time": 528, "pitch": 72, "duration": 8, "velocity": 99}, {"time": 540, "pitch": 74, "duration": 8, "velocity": 117}, {"time": 549, "pitch": 76, "duration": 2, "velocity": 99}, {"time": 552, "pitch": 71, "duration": 4, "velocity": 117}, {"time": 555, "pitch": 69, "duration": 3, "velocity": 77}, {"time": 558, "pitch": 67, "duration": 7, "velocity": 99}, {"time": 564, "pitch": 69, "duration": 13, "velocity": 107}, {"time": 588, "pitch": 67, "duration": 6, "velocity": 97}, {"time": 594, "pitch": 71, "duration": 6, "velocity": 95}, {"time": 600, "pitch": 69, "duration": 1, "velocity": 127}, {"time": 606, "pitch": 69, "duration": 3, "velocity": 97}, {"time": 609, "pitch": 72, "duration": 2, "velocity": 93}, {"time": 612, "pitch": 62, "duration": 2, "velocity": 90}, {"time": 615, "pitch": 60, "duration": 4, "velocity": 81}, {"time": 618, "pitch": 62, "duration": 4, "velocity": 69}, {"time": 621, "pitch": 64, "duration": 3, "velocity": 72}, {"time": 624, "pitch": 67, "duration": 11, "velocity": 89}, {"time": 636, "pitch": 69, "duration": 6, "velocity": 96}, {"time": 642, "pitch": 79, "duration": 6, "velocity": 99}, {"time": 648, "pitch": 81, "duration": 4, "velocity": 112}, {"time": 651, "pitch": 79, "duration": 3, "velocity": 88}, {"time": 654, "pitch": 76, "duration": 3, "velocity": 90}, {"time": 657, "pitch": 74, "duration": 3, "velocity": 99}, {"time": 660, "pitch": 72, "duration": 11, "velocity": 85}, {"time": 678, "pitch": 76, "duration": 3, "velocity": 100}, {"time": 681, "pitch": 77, "duration": 3, "velocity": 92}, {"time": 684, "pitch": 79, "duration": 15, "velocity": 122}, {"time": 702, "pitch": 76, "duration": 6, "velocity": 112}, {"time": 708, "pitch": 79, "duration": 9, "velocity": 112}, {"time": 732, "pitch": 76, "duration": 6, "velocity": 107}, {"time": 738, "pitch": 81, "duration": 5, "velocity": 112}, {"time": 744, "pitch": 81, "duration": 4, "velocity": 107}, {"time": 750, "pitch": 76, "duration": 5, "velocity": 117}, {"time": 756, "pitch": 74, "duration": 11, "velocity": 107}, {"time": 780, "pitch": 79, "duration": 15, "velocity": 102}, {"time": 798, "pitch": 76, "duration": 6, "velocity": 102}, {"time": 804, "pitch": 79, "duration": 12, "velocity": 122}, {"time": 828, "pitch": 76, "duration": 5, "velocity": 112}, {"time": 834, "pitch": 81, "duration": 5, "velocity": 112}, {"time": 840, "pitch": 81, "duration": 4, "velocity": 117}, {"time": 846, "pitch": 76, "duration": 6, "velocity": 100}, {"time": 852, "pitch": 74, "duration": 13, "velocity": 102}, {"time": 876, "pitch": 76, "duration": 5, "velocity": 127}, {"time": 882, "pitch": 74, "duration": 3, "velocity": 112}, {"time": 885, "pitch": 76, "duration": 2, "velocity": 86}, {"time": 888, "pitch": 64, "duration": 3, "velocity": 99}, {"time": 891, "pitch": 67, "duration": 6, "velocity": 90}, {"time": 897, "pitch": 64, "duration": 3, "velocity": 89}, {"time": 900, "pitch": 67, "duration": 4, "velocity": 89}, {"time": 903, "pitch": 69, "duration": 3, "velocity": 90}, {"time": 906, "pitch": 71, "duration": 6, "velocity": 97}, {"time": 912, "pitch": 69, "duration": 9, "velocity": 99}, {"time": 924, "pitch": 69, "duration": 2, "velocity": 112}, {"time": 927, "pitch": 69, "duration": 2, "velocity": 89}, {"time": 930, "pitch": 69, "duration": 3, "velocity": 97}, {"time": 933, "pitch": 67, "duration": 4, "velocity": 92}, {"time": 936, "pitch": 69, "duration": 6, "velocity": 107}, {"time": 942, "pitch": 72, "duration": 5, "velocity": 117}, {"time": 948, "pitch": 74, "duration": 4, "velocity": 102}, {"time": 951, "pitch": 74, "duration": 1, "velocity": 112}, {"time": 954, "pitch": 74, "duration": 2, "velocity": 99}, {"time": 957, "pitch": 76, "duration": 2, "velocity": 96}, {"time": 960, "pitch": 79, "duration": 7, "velocity": 122}, {"time": 972, "pitch": 67, "duration": 4, "velocity": 97}, {"time": 978, "pitch": 79, "duration": 5, "velocity": 117}, {"time": 984, "pitch": 81, "duration": 4, "velocity": 107}, {"time": 990, "pitch": 76, "duration": 4, "velocity": 92}, {"time": 993, "pitch": 74, "duration": 4, "velocity": 100}, {"time": 996, "pitch": 72, "duration": 9, "velocity": 97}, {"time": 1308, "pitch": 64, "duration": 7, "velocity": 93}, {"time": 1314, "pitch": 76, "duration": 4, "velocity": 107}, {"time": 1317, "pitch": 74, "duration": 4, "velocity": 97}, {"time": 1320, "pitch": 72, "duration": 7, "velocity": 100}, {"time": 1332, "pitch": 72, "duration": 6, "velocity": 95}, {"time": 1338, "pitch": 64, "duration": 7, "velocity": 79}, {"time": 1344, "pitch": 67, "duration": 8, "velocity": 82}, {"time": 1356, "pitch": 76, "duration": 8, "velocity": 112}, {"time": 1365, "pitch": 74, "duration": 4, "velocity": 88}, {"time": 1368, "pitch": 72, "duration": 6, "velocity": 86}, {"time": 1374, "pitch": 69, "duration": 7, "velocity": 73}, {"time": 1380, "pitch": 74, "duration": 13, "velocity": 90}, {"time": 1404, "pitch": 76, "duration": 6, "velocity": 117}, {"time": 1410, "pitch": 74, "duration": 3, "velocity": 99}, {"time": 1413, "pitch": 76, "duration": 4, "velocity": 73}, {"time": 1416, "pitch": 67, "duration": 5, "velocity": 95}, {"time": 1425, "pitch": 64, "duration": 3, "velocity": 67}, {"time": 1428, "pitch": 67, "duration": 4, "velocity": 73}, {"time": 1431, "pitch": 69, "duration": 4, "velocity": 79}, {"time": 1434, "pitch": 71, "duration": 6, "velocity": 90}, {"time": 1440, "pitch": 69, "duration": 8, "velocity": 86}, {"time": 1452, "pitch": 74, "duration": 3, "velocity": 117}, {"time": 1457, "pitch": 74, "duration": 1, "velocity": 77}, {"time": 1458, "pitch": 74, "duration": 4, "velocity": 83}, {"time": 1461, "pitch": 76, "duration": 2, "velocity": 88}, {"time": 1464, "pitch": 72, "duration": 4, "velocity": 112}, {"time": 1467, "pitch": 74, "duration": 3, "velocity": 102}, {"time": 1470, "pitch": 69, "duration": 6, "velocity": 107}, {"time": 1476, "pitch": 67, "duration": 12, "velocity": 96}, {"time": 1500, "pitch": 79, "duration": 6, "velocity": 107}, {"time": 1506, "pitch": 76, "duration": 4, "velocity": 93}, {"time": 1509, "pitch": 74, "duration": 4, "velocity": 90}, {"time": 1512, "pitch": 76, "duration": 8, "velocity": 97}, {"time": 1521, "pitch": 79, "duration": 4, "velocity": 93}, {"time": 1524, "pitch": 69, "duration": 6, "velocity": 107}, {"time": 1530, "pitch": 67, "duration": 4, "velocity": 90}, {"time": 1533, "pitch": 69, "duration": 3, "velocity": 92}, {"time": 1536, "pitch": 72, "duration": 8, "velocity": 99}, {"time": 1548, "pitch": 74, "duration": 8, "velocity": 117}, {"time": 1557, "pitch": 76, "duration": 2, "velocity": 99}, {"time": 1560, "pitch": 71, "duration": 4, "velocity": 117}, {"time": 1563, "pitch": 69, "duration": 3, "velocity": 77}, {"time": 1566, "pitch": 67, "duration": 7, "velocity": 99}, {"time": 1572, "pitch": 69, "duration": 13, "velocity": 107}, {"time": 1596, "pitch": 67, "duration": 6, "velocity": 97}, {"time": 1602, "pitch": 71, "duration": 6, "velocity": 95}, {"time": 1608, "pitch": 69, "duration": 1, "velocity": 127}, {"time": 1614, "pitch": 69, "duration": 3, "velocity": 97}, {"time": 1617, "pitch": 72, "duration": 2, "velocity": 93}, {"time": 1620, "pitch": 62, "duration": 2, "velocity": 90}, {"time": 1623, "pitch": 60, "duration": 4, "velocity": 81}, {"time": 1626, "pitch": 62, "duration": 4, "velocity": 69}, {"time": 1629, "pitch": 64, "duration": 3, "velocity": 72}, {"time": 1632, "pitch": 67, "duration": 11, "velocity": 89}, {"time": 1644, "pitch": 69, "duration": 6, "velocity": 96}, {"time": 1650, "pitch": 79, "duration": 6, "velocity": 99}, {"time": 1656, "pitch": 81, "duration": 4, "velocity": 112}, {"time": 1659, "pitch": 79, "duration": 3, "velocity": 88}, {"time": 1662, "pitch": 76, "duration": 3, "velocity": 90}, {"time": 1665, "pitch": 74, "duration": 3, "velocity": 99}, {"time": 1668, "pitch": 72, "duration": 11, "velocity": 85}, {"time": 1686, "pitch": 76, "duration": 3, "velocity": 100}, {"time": 1689, "pitch": 77, "duration": 3, "velocity": 92}, {"time": 1692, "pitch": 79, "duration": 15, "velocity": 122}, {"time": 1710, "pitch": 76, "duration": 6, "velocity": 112}, {"time": 1716, "pitch": 79, "duration": 9, "velocity": 112}, {"time": 1740, "pitch": 76, "duration": 6, "velocity": 107}, {"time": 1746, "pitch": 81, "duration": 5, "velocity": 112}, {"time": 1752, "pitch": 81, "duration": 4, "velocity": 107}, {"time": 1758, "pitch": 76, "duration": 5, "velocity": 117}, {"time": 1764, "pitch": 74, "duration": 11, "velocity": 107}, {"time": 1788, "pitch": 79, "duration": 15, "velocity": 102}, {"time": 1806, "pitch": 76, "duration": 6, "velocity": 102}, {"time": 1812, "pitch": 79, "duration": 12, "velocity": 122}, {"time": 1836, "pitch": 76, "duration": 5, "velocity": 112}, {"time": 1842, "pitch": 81, "duration": 5, "velocity": 112}, {"time": 1848, "pitch": 81, "duration": 4, "velocity": 117}, {"time": 1854, "pitch": 76, "duration": 6, "velocity": 100}, {"time": 1860, "pitch": 74, "duration": 13, "velocity": 102}, {"time": 1884, "pitch": 76, "duration": 5, "velocity": 127}, {"time": 1890, "pitch": 74, "duration": 3, "velocity": 112}, {"time": 1893, "pitch": 76, "duration": 2, "velocity": 86}, {"time": 1896, "pitch": 64, "duration": 3, "velocity": 99}, {"time": 1899, "pitch": 67, "duration": 6, "velocity": 90}, {"time": 1905, "pitch": 64, "duration": 3, "velocity": 89}, {"time": 1908, "pitch": 67, "duration": 4, "velocity": 89}, {"time": 1911, "pitch": 69, "duration": 3, "velocity": 90}, {"time": 1914, "pitch": 71, "duration": 6, "velocity": 97}, {"time": 1920, "pitch": 69, "duration": 9, "velocity": 99}, {"time": 1932, "pitch": 69, "duration": 2, "velocity": 112}, {"time": 1935, "pitch": 69, "duration": 2, "velocity": 89}, {"time": 1938, "pitch": 69, "duration": 3, "velocity": 97}, {"time": 1941, "pitch": 67, "duration": 4, "velocity": 92}, {"time": 1944, "pitch": 69, "duration": 6, "velocity": 107}, {"time": 1950, "pitch": 72, "duration": 5, "velocity": 117}, {"time": 1956, "pitch": 74, "duration": 4, "velocity": 102}, {"time": 1959, "pitch": 74, "duration": 1, "velocity": 112}, {"time": 1962, "pitch": 74, "duration": 2, "velocity": 99}, {"time": 1965, "pitch": 76, "duration": 2, "velocity": 96}, {"time": 1968, "pitch": 79, "duration": 7, "velocity": 122}, {"time": 1980, "pitch": 67, "duration": 4, "velocity": 97}, {"time": 1986, "pitch": 79, "duration": 5, "velocity": 117}, {"time": 1992, "pitch": 81, "duration": 4, "velocity": 107}, {"time": 1998, "pitch": 76, "duration": 4, "velocity": 92}, {"time": 2001, "pitch": 74, "duration": 4, "velocity": 100}, {"time": 2004, "pitch": 72, "duration": 9, "velocity": 97}, {"time": 2028, "pitch": 79, "duration": 15, "velocity": 122}, {"time": 2046, "pitch": 76, "duration": 6, "velocity": 112}, {"time": 2052, "pitch": 79, "duration": 9, "velocity": 112}, {"time": 2076, "pitch": 76, "duration": 6, "velocity": 107}, {"time": 2082, "pitch": 81, "duration": 5, "velocity": 112}, {"time": 2088, "pitch": 81, "duration": 4, "velocity": 107}, {"time": 2094, "pitch": 76, "duration": 5, "velocity": 117}, {"time": 2100, "pitch": 74, "duration": 11, "velocity": 107}, {"time": 2124, "pitch": 79, "duration": 15, "velocity": 102}, {"time": 2142, "pitch": 76, "duration": 6, "velocity": 102}, {"time": 2148, "pitch": 79, "duration": 12, "velocity": 122}, {"time": 2172, "pitch": 76, "duration": 5, "velocity": 112}, {"time": 2178, "pitch": 81, "duration": 5, "velocity": 112}, {"time": 2184, "pitch": 81, "duration": 4, "velocity": 117}, {"time": 2190, "pitch": 76, "duration": 6, "velocity": 100}, {"time": 2196, "pitch": 74, "duration": 13, "velocity": 102}, {"time": 2220, "pitch": 76, "duration": 5, "velocity": 127}, {"time": 2226, "pitch": 74, "duration": 3, "velocity": 112}, {"time": 2229, "pitch": 76, "duration": 2, "velocity": 86}, {"time": 2232, "pitch": 64, "duration": 3, "velocity": 99}, {"time": 2235, "pitch": 67, "duration": 6, "velocity": 90}, {"time": 2241, "pitch": 64, "duration": 3, "velocity": 89}, {"time": 2244, "pitch": 67, "duration": 4, "velocity": 89}, {"time": 2247, "pitch": 69, "duration": 3, "velocity": 90}, {"time": 2250, "pitch": 71, "duration": 6, "velocity": 97}, {"time": 2256, "pitch": 69, "duration": 9, "velocity": 99}, {"time": 2268, "pitch": 69, "duration": 2, "velocity": 112}, {"time": 2271, "pitch": 69, "duration": 2, "velocity": 89}, {"time": 2274, "pitch": 69, "duration": 3, "velocity": 97}, {"time": 2277, "pitch": 67, "duration": 4, "velocity": 92}, {"time": 2280, "pitch": 69, "duration": 6, "velocity": 107}, {"time": 2286, "pitch": 72, "duration": 5, "velocity": 117}, {"time": 2292, "pitch": 74, "duration": 4, "velocity": 102}, {"time": 2295, "pitch": 74, "duration": 1, "velocity": 112}, {"time": 2298, "pitch": 74, "duration": 2, "velocity": 99}, {"time": 2301, "pitch": 76, "duration": 2, "velocity": 96}, {"time": 2304, "pitch": 79, "duration": 7, "velocity": 122}, {"time": 2316, "pitch": 81, "duration": 6, "velocity": 122}, {"time": 2325, "pitch": 76, "duration": 3, "velocity": 102}, {"time": 2328, "pitch": 74, "duration": 7, "velocity": 96}, {"time": 2334, "pitch": 81, "duration": 23, "velocity": 122}, {"time": 2364, "pitch": 79, "duration": 38, "velocity": 127}]}, {"program": 0, "is_drum": false, "name": "PIANO", "notes": [{"time": 12, "pitch": 48, "duration": 18, "velocity": 79}, {"time": 18, "pitch": 55, "duration": 12, "velocity": 81}, {"time": 24, "pitch": 67, "duration": 37, "velocity": 92}, {"time": 30, "pitch": 60, "duration": 13, "velocity": 82}, {"time": 36, "pitch": 48, "duration": 17, "velocity": 73}, {"time": 42, "pitch": 55, "duration": 9, "velocity": 74}, {"time": 48, "pitch": 64, "duration": 13, "velocity": 82}, {"time": 54, "pitch": 60, "duration": 8, "velocity": 66}, {"time": 60, "pitch": 45, "duration": 15, "velocity": 76}, {"time": 66, "pitch": 52, "duration": 8, "velocity": 59}, {"time": 72, "pitch": 64, "duration": 16, "velocity": 92}, {"time": 78, "pitch": 60, "duration": 8, "velocity": 66}, {"time": 84, "pitch": 38, "duration": 18, "velocity": 82}, {"time": 90, "pitch": 45, "duration": 12, "velocity": 53}, {"time": 96, "pitch": 50, "duration": 5, "velocity": 55}, {"time": 96, "pitch": 65, "duration": 13, "velocity": 88}, {"time": 99, "pitch": 62, "duration": 10, "velocity": 69}, {"time": 102, "pitch": 57, "duration": 7, "velocity": 75}, {"time": 108, "pitch": 36, "duration": 22, "velocity": 79}, {"time": 114, "pitch": 43, "duration": 19, "velocity": 45}, {"time": 120, "pitch": 48, "duration": 14, "velocity": 58}, {"time": 120, "pitch": 64, "duration": 23, "velocity": 78}, {"time": 126, "pitch": 60, "duration": 17, "velocity": 61}, {"time": 132, "pitch": 36, "duration": 16, "velocity": 76}, {"time": 138, "pitch": 43, "duration": 10, "velocity": 48}, {"time": 144, "pitch": 48, "duration": 7, "velocity": 64}, {"time": 144, "pitch": 64, "duration": 19, "velocity": 82}, {"time": 150, "pitch": 60, "duration": 13, "velocity": 69}, {"time": 156, "pitch": 45, "duration": 18, "velocity": 69}, {"time": 162, "pitch": 52, "duration": 11, "velocity": 57}, {"time": 168, "pitch": 64, "duration": 12, "velocity": 95}, {"time": 174, "pitch": 60, "duration": 6, "velocity": 79}, {"time": 177, "pitch": 57, "duration": 4, "velocity": 69}, {"time": 180, "pitch": 38, "duration": 16, "velocity": 81}, {"time": 186, "pitch": 45, "duration": 10, "velocity": 34}, {"time": 192, "pitch": 57, "duration": 5, "velocity": 35}, {"time": 192, "pitch": 62, "duration": 5, "velocity": 63}, {"time": 192, "pitch": 65, "duration": 6, "velocity": 58}, {"time": 204, "pitch": 40, "duration": 5, "velocity": 33}, {"time": 204, "pitch": 47, "duration": 5, "velocity": 32}, {"time": 204, "pitch": 52, "duration": 6, "velocity": 37}, {"time": 204, "pitch": 55, "duration": 6, "velocity": 41}, {"time": 204, "pitch": 59, "duration": 6, "velocity": 44}, {"time": 228, "pitch": 40, "duration": 4, "velocity": 38}, {"time": 228, "pitch": 52, "duration": 4, "velocity": 37}, {"time": 228, "pitch": 55, "duration": 4, "velocity": 38}, {"time": 228, "pitch": 59, "duration": 5, "velocity": 42}, {"time": 240, "pitch": 45, "duration": 11, "velocity": 59}, {"time": 240, "pitch": 57, "duration": 11, "velocity": 47}, {"time": 240, "pitch": 60, "duration": 11, "velocity": 45}, {"time": 240, "pitch": 64, "duration": 11, "velocity": 52}, {"time": 252, "pitch": 45, "duration": 7, "velocity": 54}, {"time": 252, "pitch": 57, "duration": 8, "velocity": 40}, {"time": 252, "pitch": 60, "duration": 7, "velocity": 44}, {"time": 252, "pitch": 64, "duration": 8, "velocity": 40}, {"time": 264, "pitch": 43, "duration": 4, "velocity": 58}, {"time": 264, "pitch": 55, "duration": 9, "velocity": 50}, {"time": 264, "pitch": 59, "duration": 8, "velocity": 56}, {"time": 264, "pitch": 62, "duration": 8, "velocity": 56}, {"time": 276, "pitch": 48, "duration": 19, "velocity": 63}, {"time": 279, "pitch": 55, "duration": 14, "velocity": 44}, {"time": 282, "pitch": 62, "duration": 7, "velocity": 52}, {"time": 285, "pitch": 60, "duration": 5, "velocity": 56}, {"time": 288, "pitch": 67, "duration": 12, "velocity": 70}, {"time": 294, "pitch": 64, "duration": 6, "velocity": 49}, {"time": 300, "pitch": 36, "duration": 23, "velocity": 67}, {"time": 303, "pitch": 43, "duration": 21, "velocity": 47}, {"time": 306, "pitch": 48, "duration": 19, "velocity": 58}, {"time": 309, "pitch": 55, "duration": 36, "velocity": 48}, {"time": 312, "pitch": 64, "duration": 23, "velocity": 77}, {"time": 318, "pitch": 60, "duration": 18, "velocity": 45}, {"time": 324, "pitch": 36, "duration": 17, "velocity": 70}, {"time": 330, "pitch": 43, "duration": 10, "velocity": 43}, {"time": 336, "pitch": 48, "duration": 6, "velocity": 46}, {"time": 336, "pitch": 64, "duration": 20, "velocity": 73}, {"time": 342, "pitch": 60, "duration": 14, "velocity": 58}, {"time": 348, "pitch": 45, "duration": 18, "velocity": 66}, {"time": 354, "pitch": 52, "duration": 8, "velocity": 59}, {"time": 360, "pitch": 64, "duration": 13, "velocity": 93}, {"time": 363, "pitch": 52, "duration": 2, "velocity": 53}, {"time": 366, "pitch": 60, "duration": 7, "velocity": 52}, {"time": 369, "pitch": 57, "duration": 9, "velocity": 53}, {"time": 372, "pitch": 38, "duration": 17, "velocity": 69}, {"time": 378, "pitch": 45, "duration": 11, "velocity": 44}, {"time": 384, "pitch": 50, "duration": 4, "velocity": 54}, {"time": 384, "pitch": 65, "duration": 12, "velocity": 85}, {"time": 387, "pitch": 62, "duration": 9, "velocity": 72}, {"time": 390, "pitch": 57, "duration": 6, "velocity": 61}, {"time": 420, "pitch": 40, "duration": 6, "velocity": 73}, {"time": 426, "pitch": 52, "duration": 6, "velocity": 26}, {"time": 426, "pitch": 55, "duration": 6, "velocity": 64}, {"time": 426, "pitch": 59, "duration": 6, "velocity": 58}, {"time": 432, "pitch": 45, "duration": 8, "velocity": 69}, {"time": 435, "pitch": 52, "duration": 5, "velocity": 64}, {"time": 438, "pitch": 64, "duration": 7, "velocity": 71}, {"time": 441, "pitch": 60, "duration": 4, "velocity": 52}, {"time": 444, "pitch": 38, "duration": 17, "velocity": 67}, {"time": 450, "pitch": 45, "duration": 11, "velocity": 40}, {"time": 456, "pitch": 50, "duration": 8, "velocity": 40}, {"time": 456, "pitch": 65, "duration": 14, "velocity": 73}, {"time": 462, "pitch": 62, "duration": 8, "velocity": 65}, {"time": 468, "pitch": 43, "duration": 19, "velocity": 76}, {"time": 471, "pitch": 50, "duration": 10, "velocity": 39}, {"time": 474, "pitch": 55, "duration": 5, "velocity": 56}, {"time": 477, "pitch": 59, "duration": 4, "velocity": 81}, {"time": 480, "pitch": 62, "duration": 13, "velocity": 86}, {"time": 483, "pitch": 50, "duration": 3, "velocity": 69}, {"time": 486, "pitch": 59, "duration": 6, "velocity": 77}, {"time": 489, "pitch": 55, "duration": 3, "velocity": 69}, {"time": 492, "pitch": 40, "duration": 20, "velocity": 85}, {"time": 498, "pitch": 47, "duration": 18, "velocity": 56}, {"time": 504, "pitch": 52, "duration": 5, "velocity": 65}, {"time": 504, "pitch": 67, "duration": 13, "velocity": 79}, {"time": 510, "pitch": 64, "duration": 7, "velocity": 66}, {"time": 516, "pitch": 41, "duration": 19, "velocity": 73}, {"time": 522, "pitch": 48, "duration": 11, "velocity": 55}, {"time": 528, "pitch": 53, "duration": 5, "velocity": 42}, {"time": 528, "pitch": 60, "duration": 13, "velocity": 78}, {"time": 534, "pitch": 57, "duration": 7, "velocity": 71}, {"time": 540, "pitch": 40, "duration": 17, "velocity": 76}, {"time": 546, "pitch": 47, "duration": 12, "velocity": 51}, {"time": 552, "pitch": 52, "duration": 8, "velocity": 43}, {"time": 552, "pitch": 64, "duration": 13, "velocity": 85}, {"time": 558, "pitch": 59, "duration": 6, "velocity": 64}, {"time": 564, "pitch": 45, "duration": 18, "velocity": 82}, {"time": 570, "pitch": 52, "duration": 8, "velocity": 55}, {"time": 573, "pitch": 57, "duration": 6, "velocity": 59}, {"time": 576, "pitch": 64, "duration": 12, "velocity": 107}, {"time": 579, "pitch": 52, "duration": 2, "velocity": 72}, {"time": 582, "pitch": 60, "duration": 6, "velocity": 100}, {"time": 585, "pitch": 57, "duration": 3, "velocity": 82}, {"time": 588, "pitch": 40, "duration": 2, "velocity": 50}, {"time": 588, "pitch": 52, "duration": 2, "velocity": 40}, {"time": 588, "pitch": 55, "duration": 2, "velocity": 50}, {"time": 588, "pitch": 59, "duration": 2, "velocity": 46}, {"time": 594, "pitch": 40, "duration": 2, "velocity": 59}, {"time": 594, "pitch": 52, "duration": 2, "velocity": 48}, {"time": 594, "pitch": 55, "duration": 2, "velocity": 56}, {"time": 594, "pitch": 59, "duration": 2, "velocity": 55}, {"time": 600, "pitch": 45, "duration": 2, "velocity": 53}, {"time": 600, "pitch": 57, "duration": 2, "velocity": 55}, {"time": 600, "pitch": 60, "duration": 2, "velocity": 53}, {"time": 600, "pitch": 64, "duration": 2, "velocity": 53}, {"time": 606, "pitch": 45, "duration": 2, "velocity": 61}, {"time": 606, "pitch": 57, "duration": 2, "velocity": 59}, {"time": 606, "pitch": 60, "duration": 2, "velocity": 58}, {"time": 606, "pitch": 64, "duration": 2, "velocity": 56}, {"time": 612, "pitch": 38, "duration": 4, "velocity": 59}, {"time": 612, "pitch": 50, "duration": 4, "velocity": 56}, {"time": 612, "pitch": 53, "duration": 4, "velocity": 59}, {"time": 612, "pitch": 57, "duration": 4, "velocity": 58}, {"time": 630, "pitch": 43, "duration": 3, "velocity": 74}, {"time": 630, "pitch": 55, "duration": 3, "velocity": 73}, {"time": 630, "pitch": 59, "duration": 2, "velocity": 69}, {"time": 630, "pitch": 62, "duration": 3, "velocity": 69}, {"time": 636, "pitch": 45, "duration": 2, "velocity": 96}, {"time": 636, "pitch": 57, "duration": 2, "velocity": 82}, {"time": 636, "pitch": 60, "duration": 2, "velocity": 81}, {"time": 636, "pitch": 64, "duration": 2, "velocity": 73}, {"time": 642, "pitch": 43, "duration": 15, "velocity": 67}, {"time": 642, "pitch": 55, "duration": 16, "velocity": 72}, {"time": 642, "pitch": 59, "duration": 16, "velocity": 72}, {"time": 642, "pitch": 62, "duration": 16, "velocity": 78}, {"time": 660, "pitch": 36, "duration": 25, "velocity": 72}, {"time": 663, "pitch": 43, "duration": 21, "velocity": 63}, {"time": 666, "pitch": 48, "duration": 7, "velocity": 75}, {"time": 669, "pitch": 55, "duration": 15, "velocity": 75}, {"time": 672, "pitch": 64, "duration": 13, "velocity": 100}, {"time": 675, "pitch": 48, "duration": 5, "velocity": 93}, {"time": 678, "pitch": 62, "duration": 7, "velocity": 97}, {"time": 681, "pitch": 60, "duration": 4, "velocity": 85}, {"time": 684, "pitch": 36, "duration": 1, "velocity": 52}, {"time": 687, "pitch": 43, "duration": 21, "velocity": 61}, {"time": 690, "pitch": 48, "duration": 7, "velocity": 88}, {"time": 693, "pitch": 55, "duration": 8, "velocity": 85}, {"time": 696, "pitch": 64, "duration": 14, "velocity": 99}, {"time": 699, "pitch": 48, "duration": 4, "velocity": 74}, {"time": 702, "pitch": 60, "duration": 7, "velocity": 95}, {"time": 705, "pitch": 55, "duration": 4, "velocity": 93}, {"time": 708, "pitch": 36, "duration": 17, "velocity": 65}, {"time": 711, "pitch": 43, "duration": 13, "velocity": 58}, {"time": 714, "pitch": 48, "duration": 8, "velocity": 75}, {"time": 717, "pitch": 55, "duration": 8, "velocity": 77}, {"time": 720, "pitch": 64, "duration": 12, "velocity": 96}, {"time": 723, "pitch": 48, "duration": 4, "velocity": 90}, {"time": 726, "pitch": 60, "duration": 6, "velocity": 89}, {"time": 729, "pitch": 55, "duration": 3, "velocity": 90}, {"time": 732, "pitch": 45, "duration": 18, "velocity": 76}, {"time": 735, "pitch": 52, "duration": 11, "velocity": 57}, {"time": 738, "pitch": 57, "duration": 4, "velocity": 81}, {"time": 741, "pitch": 60, "duration": 4, "velocity": 89}, {"time": 744, "pitch": 64, "duration": 11, "velocity": 102}, {"time": 747, "pitch": 52, "duration": 3, "velocity": 72}, {"time": 750, "pitch": 60, "duration": 5, "velocity": 96}, {"time": 753, "pitch": 57, "duration": 5, "velocity": 93}, {"time": 756, "pitch": 38, "duration": 19, "velocity": 88}, {"time": 759, "pitch": 45, "duration": 15, "velocity": 51}, {"time": 762, "pitch": 50, "duration": 7, "velocity": 81}, {"time": 765, "pitch": 57, "duration": 8, "velocity": 95}, {"time": 768, "pitch": 65, "duration": 12, "velocity": 99}, {"time": 771, "pitch": 50, "duration": 3, "velocity": 89}, {"time": 774, "pitch": 62, "duration": 6, "velocity": 100}, {"time": 777, "pitch": 57, "duration": 3, "velocity": 96}, {"time": 780, "pitch": 36, "duration": 22, "velocity": 83}, {"time": 783, "pitch": 43, "duration": 21, "velocity": 70}, {"time": 786, "pitch": 48, "duration": 7, "velocity": 82}, {"time": 789, "pitch": 55, "duration": 10, "velocity": 82}, {"time": 792, "pitch": 64, "duration": 20, "velocity": 97}, {"time": 795, "pitch": 48, "duration": 9, "velocity": 75}, {"time": 798, "pitch": 60, "duration": 15, "velocity": 89}, {"time": 801, "pitch": 55, "duration": 11, "velocity": 78}, {"time": 804, "pitch": 36, "duration": 16, "velocity": 71}, {"time": 807, "pitch": 43, "duration": 14, "velocity": 56}, {"time": 810, "pitch": 48, "duration": 8, "velocity": 69}, {"time": 813, "pitch": 55, "duration": 10, "velocity": 69}, {"time": 816, "pitch": 64, "duration": 13, "velocity": 92}, {"time": 819, "pitch": 48, "duration": 3, "velocity": 66}, {"time": 822, "pitch": 60, "duration": 7, "velocity": 81}, {"time": 825, "pitch": 55, "duration": 4, "velocity": 89}, {"time": 828, "pitch": 45, "duration": 18, "velocity": 86}, {"time": 831, "pitch": 52, "duration": 10, "velocity": 52}, {"time": 834, "pitch": 57, "duration": 9, "velocity": 70}, {"time": 837, "pitch": 60, "duration": 3, "velocity": 67}, {"time": 840, "pitch": 64, "duration": 12, "velocity": 93}, {"time": 843, "pitch": 52, "duration": 3, "velocity": 62}, {"time": 846, "pitch": 60, "duration": 6, "velocity": 77}, {"time": 849, "pitch": 57, "duration": 4, "velocity": 82}, {"time": 852, "pitch": 38, "duration": 18, "velocity": 79}, {"time": 855, "pitch": 45, "duration": 15, "velocity": 42}, {"time": 858, "pitch": 50, "duration": 7, "velocity": 61}, {"time": 861, "pitch": 57, "duration": 8, "velocity": 86}, {"time": 864, "pitch": 65, "duration": 12, "velocity": 90}, {"time": 867, "pitch": 50, "duration": 3, "velocity": 67}, {"time": 870, "pitch": 62, "duration": 6, "velocity": 81}, {"time": 873, "pitch": 57, "duration": 3, "velocity": 75}, {"time": 876, "pitch": 40, "duration": 22, "velocity": 83}, {"time": 879, "pitch": 47, "duration": 21, "velocity": 38}, {"time": 882, "pitch": 52, "duration": 7, "velocity": 72}, {"time": 885, "pitch": 59, "duration": 5, "velocity": 76}, {"time": 888, "pitch": 67, "duration": 15, "velocity": 96}, {"time": 891, "pitch": 52, "duration": 4, "velocity": 73}, {"time": 894, "pitch": 64, "duration": 9, "velocity": 71}, {"time": 897, "pitch": 59, "duration": 9, "velocity": 81}, {"time": 900, "pitch": 40, "duration": 12, "velocity": 72}, {"time": 903, "pitch": 47, "duration": 10, "velocity": 43}, {"time": 906, "pitch": 52, "duration": 6, "velocity": 85}, {"time": 912, "pitch": 45, "duration": 12, "velocity": 69}, {"time": 912, "pitch": 57, "duration": 5, "velocity": 71}, {"time": 912, "pitch": 60, "duration": 13, "velocity": 85}, {"time": 912, "pitch": 64, "duration": 12, "velocity": 78}, {"time": 918, "pitch": 57, "duration": 6, "velocity": 19}, {"time": 924, "pitch": 41, "duration": 23, "velocity": 69}, {"time": 927, "pitch": 48, "duration": 22, "velocity": 46}, {"time": 930, "pitch": 53, "duration": 7, "velocity": 66}, {"time": 933, "pitch": 57, "duration": 10, "velocity": 72}, {"time": 936, "pitch": 65, "duration": 23, "velocity": 92}, {"time": 939, "pitch": 53, "duration": 14, "velocity": 73}, {"time": 942, "pitch": 60, "duration": 16, "velocity": 61}, {"time": 945, "pitch": 57, "duration": 11, "velocity": 64}, {"time": 948, "pitch": 41, "duration": 19, "velocity": 61}, {"time": 951, "pitch": 48, "duration": 20, "velocity": 41}, {"time": 954, "pitch": 53, "duration": 7, "velocity": 50}, {"time": 957, "pitch": 57, "duration": 9, "velocity": 55}, {"time": 960, "pitch": 65, "duration": 11, "velocity": 86}, {"time": 963, "pitch": 53, "duration": 3, "velocity": 68}, {"time": 966, "pitch": 60, "duration": 5, "velocity": 70}, {"time": 969, "pitch": 57, "duration": 4, "velocity": 82}, {"time": 972, "pitch": 43, "duration": 19, "velocity": 81}, {"time": 975, "pitch": 50, "duration": 10, "velocity": 73}, {"time": 978, "pitch": 55, "duration": 10, "velocity": 79}, {"time": 981, "pitch": 59, "duration": 3, "velocity": 68}, {"time": 984, "pitch": 62, "duration": 11, "velocity": 102}, {"time": 987, "pitch": 50, "duration": 3, "velocity": 70}, {"time": 990, "pitch": 59, "duration": 5, "velocity": 95}, {"time": 993, "pitch": 55, "duration": 5, "velocity": 77}, {"time": 996, "pitch": 36, "duration": 24, "velocity": 88}, {"time": 999, "pitch": 43, "duration": 22, "velocity": 46}, {"time": 1002, "pitch": 48, "duration": 7, "velocity": 76}, {"time": 1005, "pitch": 55, "duration": 16, "velocity": 85}, {"time": 1008, "pitch": 64, "duration": 13, "velocity": 95}, {"time": 1011, "pitch": 48, "duration": 5, "velocity": 79}, {"time": 1014, "pitch": 62, "duration": 7, "velocity": 90}, {"time": 1017, "pitch": 60, "duration": 4, "velocity": 72}, {"time": 1020, "pitch": 48, "duration": 18, "velocity": 79}, {"time": 1026, "pitch": 55, "duration": 12, "velocity": 81}, {"time": 1032, "pitch": 67, "duration": 37, "velocity": 92}, {"time": 1038, "pitch": 60, "duration": 13, "velocity": 82}, {"time": 1044, "pitch": 48, "duration": 17, "velocity": 73}, {"time": 1050, "pitch": 55, "duration": 9, "velocity": 74}, {"time": 1056, "pitch": 64, "duration": 13, "velocity": 82}, {"time": 1062, "pitch": 60, "duration": 8, "velocity": 66}, {"time": 1068, "pitch": 45, "duration": 15, "velocity": 76}, {"time": 1074, "pitch": 52, "duration": 8, "velocity": 59}, {"time": 1080, "pitch": 64, "duration": 16, "velocity": 92}, {"time": 1086, "pitch": 60, "duration": 8, "velocity": 66}, {"time": 1092, "pitch": 38, "duration": 18, "velocity": 82}, {"time": 1098, "pitch": 45, "duration": 12, "velocity": 53}, {"time": 1104, "pitch": 50, "duration": 5, "velocity": 55}, {"time": 1104, "pitch": 65, "duration": 13, "velocity": 88}, {"time": 1107, "pitch": 62, "duration": 10, "velocity": 69}, {"time": 1110, "pitch": 57, "duration": 7, "velocity": 75}, {"time": 1116, "pitch": 36, "duration": 22, "velocity": 79}, {"time": 1122, "pitch": 43, "duration": 19, "velocity": 45}, {"time": 1128, "pitch": 48, "duration": 14, "velocity": 58}, {"time": 1128, "pitch": 64, "duration": 23, "velocity": 78}, {"time": 1134, "pitch": 60, "duration": 17, "velocity": 61}, {"time": 1140, "pitch": 36, "duration": 16, "velocity": 76}, {"time": 1146, "pitch": 43, "duration": 10, "velocity": 48}, {"time": 1152, "pitch": 48, "duration": 7, "velocity": 64}, {"time": 1152, "pitch": 64, "duration": 19, "velocity": 82}, {"time": 1158, "pitch": 60, "duration": 13, "velocity": 69}, {"time": 1164, "pitch": 45, "duration": 18, "velocity": 69}, {"time": 1170, "pitch": 52, "duration": 11, "velocity": 57}, {"time": 1176, "pitch": 64, "duration": 12, "velocity": 95}, {"time": 1182, "pitch": 60, "duration": 6, "velocity": 79}, {"time": 1185, "pitch": 57, "duration": 4, "velocity": 69}, {"time": 1188, "pitch": 38, "duration": 16, "velocity": 81}, {"time": 1194, "pitch": 45, "duration": 10, "velocity": 34}, {"time": 1200, "pitch": 57, "duration": 5, "velocity": 35}, {"time": 1200, "pitch": 62, "duration": 5, "velocity": 63}, {"time": 1200, "pitch": 65, "duration": 6, "velocity": 58}, {"time": 1212, "pitch": 40, "duration": 5, "velocity": 33}, {"time": 1212, "pitch": 47, "duration": 5, "velocity": 32}, {"time": 1212, "pitch": 52, "duration": 6, "velocity": 37}, {"time": 1212, "pitch": 55, "duration": 6, "velocity": 41}, {"time": 1212, "pitch": 59, "duration": 6, "velocity": 44}, {"time": 1236, "pitch": 40, "duration": 4, "velocity": 38}, {"time": 1236, "pitch": 52, "duration": 4, "velocity": 37}, {"time": 1236, "pitch": 55, "duration": 4, "velocity": 38}, {"time": 1236, "pitch": 59, "duration": 5, "velocity": 42}, {"time": 1248, "pitch": 45, "duration": 11, "velocity": 59}, {"time": 1248, "pitch": 57, "duration": 11, "velocity": 47}, {"time": 1248, "pitch": 60, "duration": 11, "velocity": 45}, {"time": 1248, "pitch": 64, "duration": 11, "velocity": 52}, {"time": 1260, "pitch": 45, "duration": 7, "velocity": 54}, {"time": 1260, "pitch": 57, "duration": 8, "velocity": 40}, {"time": 1260, "pitch": 60, "duration": 7, "velocity": 44}, {"time": 1260, "pitch": 64, "duration": 8, "velocity": 40}, {"time": 1272, "pitch": 43, "duration": 4, "velocity": 58}, {"time": 1272, "pitch": 55, "duration": 9, "velocity": 50}, {"time": 1272, "pitch": 59, "duration": 8, "velocity": 56}, {"time": 1272, "pitch": 62, "duration": 8, "velocity": 56}, {"time": 1284, "pitch": 48, "duration": 19, "velocity": 63}, {"time": 1287, "pitch": 55, "duration": 14, "velocity": 44}, {"time": 1290, "pitch": 62, "duration": 7, "velocity": 52}, {"time": 1293, "pitch": 60, "duration": 5, "velocity": 56}, {"time": 1296, "pitch": 67, "duration": 12, "velocity": 70}, {"time": 1302, "pitch": 64, "duration": 6, "velocity": 49}, {"time": 1308, "pitch": 36, "duration": 23, "velocity": 67}, {"time": 1311, "pitch": 43, "duration": 21, "velocity": 47}, {"time": 1314, "pitch": 48, "duration": 19, "velocity": 58}, {"time": 1317, "pitch": 55, "duration": 36, "velocity": 48}, {"time": 1320, "pitch": 64, "duration": 23, "velocity": 77}, {"time": 1326, "pitch": 60, "duration": 18, "velocity": 45}, {"time": 1332, "pitch": 36, "duration": 17, "velocity": 70}, {"time": 1338, "pitch": 43, "duration": 10, "velocity": 43}, {"time": 1344, "pitch": 48, "duration": 6, "velocity": 46}, {"time": 1344, "pitch": 64, "duration": 20, "velocity": 73}, {"time": 1350, "pitch": 60, "duration": 14, "velocity": 58}, {"time": 1356, "pitch": 45, "duration": 18, "velocity": 66}, {"time": 1362, "pitch": 52, "duration": 8, "velocity": 59}, {"time": 1368, "pitch": 64, "duration": 13, "velocity": 93}, {"time": 1371, "pitch": 52, "duration": 2, "velocity": 53}, {"time": 1374, "pitch": 60, "duration": 7, "velocity": 52}, {"time": 1377, "pitch": 57, "duration": 9, "velocity": 53}, {"time": 1380, "pitch": 38, "duration": 17, "velocity": 69}, {"time": 1386, "pitch": 45, "duration": 11, "velocity": 44}, {"time": 1392, "pitch": 50, "duration": 4, "velocity": 54}, {"time": 1392, "pitch": 65, "duration": 12, "velocity": 85}, {"time": 1395, "pitch": 62, "duration": 9, "velocity": 72}, {"time": 1398, "pitch": 57, "duration": 6, "velocity": 61}, {"time": 1428, "pitch": 40, "duration": 6, "velocity": 73}, {"time": 1434, "pitch": 52, "duration": 6, "velocity": 26}, {"time": 1434, "pitch": 55, "duration": 6, "velocity": 64}, {"time": 1434, "pitch": 59, "duration": 6, "velocity": 58}, {"time": 1440, "pitch": 45, "duration": 8, "velocity": 69}, {"time": 1443, "pitch": 52, "duration": 5, "velocity": 64}, {"time": 1446, "pitch": 64, "duration": 7, "velocity": 71}, {"time": 1449, "pitch": 60, "duration": 4, "velocity": 52}, {"time": 1452, "pitch": 38, "duration": 17, "velocity": 67}, {"time": 1458, "pitch": 45, "duration": 11, "velocity": 40}, {"time": 1464, "pitch": 50, "duration": 8, "velocity": 40}, {"time": 1464, "pitch": 65, "duration": 14, "velocity": 73}, {"time": 1470, "pitch": 62, "duration": 8, "velocity": 65}, {"time": 1476, "pitch": 43, "duration": 19, "velocity": 76}, {"time": 1479, "pitch": 50, "duration": 10, "velocity": 39}, {"time": 1482, "pitch": 55, "duration": 5, "velocity": 56}, {"time": 1485, "pitch": 59, "duration": 4, "velocity": 81}, {"time": 1488, "pitch": 62, "duration": 13, "velocity": 86}, {"time": 1491, "pitch": 50, "duration": 3, "velocity": 69}, {"time": 1494, "pitch": 59, "duration": 6, "velocity": 77}, {"time": 1497, "pitch": 55, "duration": 3, "velocity": 69}, {"time": 1500, "pitch": 40, "duration": 20, "velocity": 85}, {"time": 1506, "pitch": 47, "duration": 18, "velocity": 56}, {"time": 1512, "pitch": 52, "duration": 5, "velocity": 65}, {"time": 1512, "pitch": 67, "duration": 13, "velocity": 79}, {"time": 1518, "pitch": 64, "duration": 7, "velocity": 66}, {"time": 1524, "pitch": 41, "duration": 19, "velocity": 73}, {"time": 1530, "pitch": 48, "duration": 11, "velocity": 55}, {"time": 1536, "pitch": 53, "duration": 5, "velocity": 42}, {"time": 1536, "pitch": 60, "duration": 13, "velocity": 78}, {"time": 1542, "pitch": 57, "duration": 7, "velocity": 71}, {"time": 1548, "pitch": 40, "duration": 17, "velocity": 76}, {"time": 1554, "pitch": 47, "duration": 12, "velocity": 51}, {"time": 1560, "pitch": 52, "duration": 8, "velocity": 43}, {"time": 1560, "pitch": 64, "duration": 13, "velocity": 85}, {"time": 1566, "pitch": 59, "duration": 6, "velocity": 64}, {"time": 1572, "pitch": 45, "duration": 18, "velocity": 82}, {"time": 1578, "pitch": 52, "duration": 8, "velocity": 55}, {"time": 1581, "pitch": 57, "duration": 6, "velocity": 59}, {"time": 1584, "pitch": 64, "duration": 12, "velocity": 107}, {"time": 1587, "pitch": 52, "duration": 2, "velocity": 72}, {"time": 1590, "pitch": 60, "duration": 6, "velocity": 100}, {"time": 1593, "pitch": 57, "duration": 3, "velocity": 82}, {"time": 1596, "pitch": 40, "duration": 2, "velocity": 50}, {"time": 1596, "pitch": 52, "duration": 2, "velocity": 40}, {"time": 1596, "pitch": 55, "duration": 2, "velocity": 50}, {"time": 1596, "pitch": 59, "duration": 2, "velocity": 46}, {"time": 1602, "pitch": 40, "duration": 2, "velocity": 59}, {"time": 1602, "pitch": 52, "duration": 2, "velocity": 48}, {"time": 1602, "pitch": 55, "duration": 2, "velocity": 56}, {"time": 1602, "pitch": 59, "duration": 2, "velocity": 55}, {"time": 1608, "pitch": 45, "duration": 2, "velocity": 53}, {"time": 1608, "pitch": 57, "duration": 2, "velocity": 55}, {"time": 1608, "pitch": 60, "duration": 2, "velocity": 53}, {"time": 1608, "pitch": 64, "duration": 2, "velocity": 53}, {"time": 1614, "pitch": 45, "duration": 2, "velocity": 61}, {"time": 1614, "pitch": 57, "duration": 2, "velocity": 59}, {"time": 1614, "pitch": 60, "duration": 2, "velocity": 58}, {"time": 1614, "pitch": 64, "duration": 2, "velocity": 56}, {"time": 1620, "pitch": 38, "duration": 4, "velocity": 59}, {"time": 1620, "pitch": 50, "duration": 4, "velocity": 56}, {"time": 1620, "pitch": 53, "duration": 4, "velocity": 59}, {"time": 1620, "pitch": 57, "duration": 4, "velocity": 58}, {"time": 1638, "pitch": 43, "duration": 3, "velocity": 74}, {"time": 1638, "pitch": 55, "duration": 3, "velocity": 73}, {"time": 1638, "pitch": 59, "duration": 2, "velocity": 69}, {"time": 1638, "pitch": 62, "duration": 3, "velocity": 69}, {"time": 1644, "pitch": 45, "duration": 2, "velocity": 96}, {"time": 1644, "pitch": 57, "duration": 2, "velocity": 82}, {"time": 1644, "pitch": 60, "duration": 2, "velocity": 81}, {"time": 1644, "pitch": 64, "duration": 2, "velocity": 73}, {"time": 1650, "pitch": 43, "duration": 15, "velocity": 67}, {"time": 1650, "pitch": 55, "duration": 16, "velocity": 72}, {"time": 1650, "pitch": 59, "duration": 16, "velocity": 72}, {"time": 1650, "pitch": 62, "duration": 16, "velocity": 78}, {"time": 1668, "pitch": 36, "duration": 25, "velocity": 72}, {"time": 1671, "pitch": 43, "duration": 21, "velocity": 63}, {"time": 1674, "pitch": 48, "duration": 7, "velocity": 75}, {"time": 1677, "pitch": 55, "duration": 15, "velocity": 75}, {"time": 1680, "pitch": 64, "duration": 13, "velocity": 100}, {"time": 1683, "pitch": 48, "duration": 5, "velocity": 93}, {"time": 1686, "pitch": 62, "duration": 7, "velocity": 97}, {"time": 1689, "pitch": 60, "duration": 4, "velocity": 85}, {"time": 1692, "pitch": 36, "duration": 1, "velocity": 52}, {"time": 1695, "pitch": 43, "duration": 21, "velocity": 61}, {"time": 1698, "pitch": 48, "duration": 7, "velocity": 88}, {"time": 1701, "pitch": 55, "duration": 8, "velocity": 85}, {"time": 1704, "pitch": 64, "duration": 14, "velocity": 99}, {"time": 1707, "pitch": 48, "duration": 4, "velocity": 74}, {"time": 1710, "pitch": 60, "duration": 7, "velocity": 95}, {"time": 1713, "pitch": 55, "duration": 4, "velocity": 93}, {"time": 1716, "pitch": 36, "duration": 17, "velocity": 65}, {"time": 1719, "pitch": 43, "duration": 13, "velocity": 58}, {"time": 1722, "pitch": 48, "duration": 8, "velocity": 75}, {"time": 1725, "pitch": 55, "duration": 8, "velocity": 77}, {"time": 1728, "pitch": 64, "duration": 12, "velocity": 96}, {"time": 1731, "pitch": 48, "duration": 4, "velocity": 90}, {"time": 1734, "pitch": 60, "duration": 6, "velocity": 89}, {"time": 1737, "pitch": 55, "duration": 3, "velocity": 90}, {"time": 1740, "pitch": 45, "duration": 18, "velocity": 76}, {"time": 1743, "pitch": 52, "duration": 11, "velocity": 57}, {"time": 1746, "pitch": 57, "duration": 4, "velocity": 81}, {"time": 1749, "pitch": 60, "duration": 4, "velocity": 89}, {"time": 1752, "pitch": 64, "duration": 11, "velocity": 102}, {"time": 1755, "pitch": 52, "duration": 3, "velocity": 72}, {"time": 1758, "pitch": 60, "duration": 5, "velocity": 96}, {"time": 1761, "pitch": 57, "duration": 5, "velocity": 93}, {"time": 1764, "pitch": 38, "duration": 19, "velocity": 88}, {"time": 1767, "pitch": 45, "duration": 15, "velocity": 51}, {"time": 1770, "pitch": 50, "duration": 7, "velocity": 81}, {"time": 1773, "pitch": 57, "duration": 8, "velocity": 95}, {"time": 1776, "pitch": 65, "duration": 12, "velocity": 99}, {"time": 1779, "pitch": 50, "duration": 3, "velocity": 89}, {"time": 1782, "pitch": 62, "duration": 6, "velocity": 100}, {"time": 1785, "pitch": 57, "duration": 3, "velocity": 96}, {"time": 1788, "pitch": 36, "duration": 22, "velocity": 83}, {"time": 1791, "pitch": 43, "duration": 21, "velocity": 70}, {"time": 1794, "pitch": 48, "duration": 7, "velocity": 82}, {"time": 1797, "pitch": 55, "duration": 10, "velocity": 82}, {"time": 1800, "pitch": 64, "duration": 20, "velocity": 97}, {"time": 1803, "pitch": 48, "duration": 9, "velocity": 75}, {"time": 1806, "pitch": 60, "duration": 15, "velocity": 89}, {"time": 1809, "pitch": 55, "duration": 11, "velocity": 78}, {"time": 1812, "pitch": 36, "duration": 16, "velocity": 71}, {"time": 1815, "pitch": 43, "duration": 14, "velocity": 56}, {"time": 1818, "pitch": 48, "duration": 8, "velocity": 69}, {"time": 1821, "pitch": 55, "duration": 10, "velocity": 69}, {"time": 1824, "pitch": 64, "duration": 13, "velocity": 92}, {"time": 1827, "pitch": 48, "duration": 3, "velocity": 66}, {"time": 1830, "pitch": 60, "duration": 7, "velocity": 81}, {"time": 1833, "pitch": 55, "duration": 4, "velocity": 89}, {"time": 1836, "pitch": 45, "duration": 18, "velocity": 86}, {"time": 1839, "pitch": 52, "duration": 10, "velocity": 52}, {"time": 1842, "pitch": 57, "duration": 9, "velocity": 70}, {"time": 1845, "pitch": 60, "duration": 3, "velocity": 67}, {"time": 1848, "pitch": 64, "duration": 12, "velocity": 93}, {"time": 1851, "pitch": 52, "duration": 3, "velocity": 62}, {"time": 1854, "pitch": 60, "duration": 6, "velocity": 77}, {"time": 1857, "pitch": 57, "duration": 4, "velocity": 82}, {"time": 1860, "pitch": 38, "duration": 18, "velocity": 79}, {"time": 1863, "pitch": 45, "duration": 15, "velocity": 42}, {"time": 1866, "pitch": 50, "duration": 7, "velocity": 61}, {"time": 1869, "pitch": 57, "duration": 8, "velocity": 86}, {"time": 1872, "pitch": 65, "duration": 12, "velocity": 90}, {"time": 1875, "pitch": 50, "duration": 3, "velocity": 67}, {"time": 1878, "pitch": 62, "duration": 6, "velocity": 81}, {"time": 1881, "pitch": 57, "duration": 3, "velocity": 75}, {"time": 1884, "pitch": 40, "duration": 22, "velocity": 83}, {"time": 1887, "pitch": 47, "duration": 21, "velocity": 38}, {"time": 1890, "pitch": 52, "duration": 7, "velocity": 72}, {"time": 1893, "pitch": 59, "duration": 5, "velocity": 76}, {"time": 1896, "pitch": 67, "duration": 15, "velocity": 96}, {"time": 1899, "pitch": 52, "duration": 4, "velocity": 73}, {"time": 1902, "pitch": 64, "duration": 9, "velocity": 71}, {"time": 1905, "pitch": 59, "duration": 9, "velocity": 81}, {"time": 1908, "pitch": 40, "duration": 12, "velocity": 72}, {"time": 1911, "pitch": 47, "duration": 10, "velocity": 43}, {"time": 1914, "pitch": 52, "duration": 6, "velocity": 85}, {"time": 1920, "pitch": 45, "duration": 12, "velocity": 69}, {"time": 1920, "pitch": 57, "duration": 5, "velocity": 71}, {"time": 1920, "pitch": 60, "duration": 13, "velocity": 85}, {"time": 1920, "pitch": 64, "duration": 12, "velocity": 78}, {"time": 1926, "pitch": 57, "duration": 6, "velocity": 19}, {"time": 1932, "pitch": 41, "duration": 23, "velocity": 69}, {"time": 1935, "pitch": 48, "duration": 22, "velocity": 46}, {"time": 1938, "pitch": 53, "duration": 7, "velocity": 66}, {"time": 1941, "pitch": 57, "duration": 10, "velocity": 72}, {"time": 1944, "pitch": 65, "duration": 23, "velocity": 92}, {"time": 1947, "pitch": 53, "duration": 14, "velocity": 73}, {"time": 1950, "pitch": 60, "duration": 16, "velocity": 61}, {"time": 1953, "pitch": 57, "duration": 11, "velocity": 64}, {"time": 1956, "pitch": 41, "duration": 19, "velocity": 61}, {"time": 1959, "pitch": 48, "duration": 20, "velocity": 41}, {"time": 1962, "pitch": 53, "duration": 7, "velocity": 50}, {"time": 1965, "pitch": 57, "duration": 9, "velocity": 55}, {"time": 1968, "pitch": 65, "duration": 11, "velocity": 86}, {"time": 1971, "pitch": 53, "duration": 3, "velocity": 68}, {"time": 1974, "pitch": 60, "duration": 5, "velocity": 70}, {"time": 1977, "pitch": 57, "duration": 4, "velocity": 82}, {"time": 1980, "pitch": 43, "duration": 19, "velocity": 81}, {"time": 1983, "pitch": 50, "duration": 10, "velocity": 73}, {"time": 1986, "pitch": 55, "duration": 10, "velocity": 79}, {"time": 1989, "pitch": 59, "duration": 3, "velocity": 68}, {"time": 1992, "pitch": 62, "duration": 11, "velocity": 102}, {"time": 1995, "pitch": 50, "duration": 3, "velocity": 70}, {"time": 1998, "pitch": 59, "duration": 5, "velocity": 95}, {"time": 2001, "pitch": 55, "duration": 5, "velocity": 77}, {"time": 2004, "pitch": 36, "duration": 24, "velocity": 88}, {"time": 2007, "pitch": 43, "duration": 22, "velocity": 46}, {"time": 2010, "pitch": 48, "duration": 7, "velocity": 76}, {"time": 2013, "pitch": 55, "duration": 16, "velocity": 85}, {"time": 2016, "pitch": 64, "duration": 13, "velocity": 95}, {"time": 2019, "pitch": 48, "duration": 5, "velocity": 79}, {"time": 2022, "pitch": 62, "duration": 7, "velocity": 90}, {"time": 2025, "pitch": 60, "duration": 4, "velocity": 72}, {"time": 2028, "pitch": 36, "duration": 22, "velocity": 52}, {"time": 2031, "pitch": 43, "duration": 21, "velocity": 61}, {"time": 2034, "pitch": 48, "duration": 7, "velocity": 88}, {"time": 2037, "pitch": 55, "duration": 8, "velocity": 85}, {"time": 2040, "pitch": 64, "duration": 14, "velocity": 99}, {"time": 2043, "pitch": 48, "duration": 4, "velocity": 74}, {"time": 2046, "pitch": 60, "duration": 7, "velocity": 95}, {"time": 2049, "pitch": 55, "duration": 4, "velocity": 93}, {"time": 2052, "pitch": 36, "duration": 17, "velocity": 65}, {"time": 2055, "pitch": 43, "duration": 13, "velocity": 58}, {"time": 2058, "pitch": 48, "duration": 8, "velocity": 75}, {"time": 2061, "pitch": 55, "duration": 8, "velocity": 77}, {"time": 2064, "pitch": 64, "duration": 12, "velocity": 96}, {"time": 2067, "pitch": 48, "duration": 4, "velocity": 90}, {"time": 2070, "pitch": 60, "duration": 6, "velocity": 89}, {"time": 2073, "pitch": 55, "duration": 3, "velocity": 90}, {"time": 2076, "pitch": 45, "duration": 18, "velocity": 76}, {"time": 2079, "pitch": 52, "duration": 11, "velocity": 57}, {"time": 2082, "pitch": 57, "duration": 4, "velocity": 81}, {"time": 2085, "pitch": 60, "duration": 4, "velocity": 89}, {"time": 2088, "pitch": 64, "duration": 11, "velocity": 102}, {"time": 2091, "pitch": 52, "duration": 3, "velocity": 72}, {"time": 2094, "pitch": 60, "duration": 5, "velocity": 96}, {"time": 2097, "pitch": 57, "duration": 5, "velocity": 93}, {"time": 2100, "pitch": 38, "duration": 19, "velocity": 88}, {"time": 2103, "pitch": 45, "duration": 15, "velocity": 51}, {"time": 2106, "pitch": 50, "duration": 7, "velocity": 81}, {"time": 2109, "pitch": 57, "duration": 8, "velocity": 95}, {"time": 2112, "pitch": 65, "duration": 12, "velocity": 99}, {"time": 2115, "pitch": 50, "duration": 3, "velocity": 89}, {"time": 2118, "pitch": 62, "duration": 6, "velocity": 100}, {"time": 2121, "pitch": 57, "duration": 3, "velocity": 96}, {"time": 2124, "pitch": 36, "duration": 22, "velocity": 83}, {"time": 2127, "pitch": 43, "duration": 21, "velocity": 70}, {"time": 2130, "pitch": 48, "duration": 7, "velocity": 82}, {"time": 2133, "pitch": 55, "duration": 10, "velocity": 82}, {"time": 2136, "pitch": 64, "duration": 20, "velocity": 97}, {"time": 2139, "pitch": 48, "duration": 9, "velocity": 75}, {"time": 2142, "pitch": 60, "duration": 15, "velocity": 89}, {"time": 2145, "pitch": 55, "duration": 11, "velocity": 78}, {"time": 2148, "pitch": 36, "duration": 16, "velocity": 71}, {"time": 2151, "pitch": 43, "duration": 14, "velocity": 56}, {"time": 2154, "pitch": 48, "duration": 8, "velocity": 69}, {"time": 2157, "pitch": 55, "duration": 10, "velocity": 69}, {"time": 2160, "pitch": 64, "duration": 13, "velocity": 92}, {"time": 2163, "pitch": 48, "duration": 3, "velocity": 66}, {"time": 2166, "pitch": 60, "duration": 7, "velocity": 81}, {"time": 2169, "pitch": 55, "duration": 4, "velocity": 89}, {"time": 2172, "pitch": 45, "duration": 18, "velocity": 86}, {"time": 2175, "pitch": 52, "duration": 10, "velocity": 52}, {"time": 2178, "pitch": 57, "duration": 9, "velocity": 70}, {"time": 2181, "pitch": 60, "duration": 3, "velocity": 67}, {"time": 2184, "pitch": 64, "duration": 12, "velocity": 93}, {"time": 2187, "pitch": 52, "duration": 3, "velocity": 62}, {"time": 2190, "pitch": 60, "duration": 6, "velocity": 77}, {"time": 2193, "pitch": 57, "duration": 4, "velocity": 82}, {"time": 2196, "pitch": 38, "duration": 18, "velocity": 79}, {"time": 2199, "pitch": 45, "duration": 15, "velocity": 42}, {"time": 2202, "pitch": 50, "duration": 7, "velocity": 61}, {"time": 2205, "pitch": 57, "duration": 8, "velocity": 86}, {"time": 2208, "pitch": 65, "duration": 12, "velocity": 90}, {"time": 2211, "pitch": 50, "duration": 3, "velocity": 67}, {"time": 2214, "pitch": 62, "duration": 6, "velocity": 81}, {"time": 2217, "pitch": 57, "duration": 3, "velocity": 75}, {"time": 2220, "pitch": 40, "duration": 22, "velocity": 83}, {"time": 2223, "pitch": 47, "duration": 21, "velocity": 38}, {"time": 2226, "pitch": 52, "duration": 7, "velocity": 72}, {"time": 2229, "pitch": 59, "duration": 5, "velocity": 76}, {"time": 2232, "pitch": 67, "duration": 15, "velocity": 96}, {"time": 2235, "pitch": 52, "duration": 4, "velocity": 73}, {"time": 2238, "pitch": 64, "duration": 9, "velocity": 71}, {"time": 2241, "pitch": 59, "duration": 9, "velocity": 81}, {"time": 2244, "pitch": 40, "duration": 12, "velocity": 72}, {"time": 2247, "pitch": 47, "duration": 10, "velocity": 43}, {"time": 2250, "pitch": 52, "duration": 6, "velocity": 85}, {"time": 2256, "pitch": 45, "duration": 12, "velocity": 69}, {"time": 2256, "pitch": 57, "duration": 5, "velocity": 71}, {"time": 2256, "pitch": 60, "duration": 13, "velocity": 85}, {"time": 2256, "pitch": 64, "duration": 12, "velocity": 78}, {"time": 2262, "pitch": 57, "duration": 6, "velocity": 19}, {"time": 2268, "pitch": 41, "duration": 23, "velocity": 69}, {"time": 2271, "pitch": 48, "duration": 22, "velocity": 46}, {"time": 2274, "pitch": 53, "duration": 7, "velocity": 66}, {"time": 2277, "pitch": 57, "duration": 10, "velocity": 72}, {"time": 2280, "pitch": 65, "duration": 23, "velocity": 92}, {"time": 2283, "pitch": 53, "duration": 14, "velocity": 73}, {"time": 2286, "pitch": 60, "duration": 16, "velocity": 61}, {"time": 2289, "pitch": 57, "duration": 11, "velocity": 64}, {"time": 2292, "pitch": 41, "duration": 19, "velocity": 61}, {"time": 2295, "pitch": 48, "duration": 20, "velocity": 41}, {"time": 2298, "pitch": 53, "duration": 7, "velocity": 50}, {"time": 2301, "pitch": 57, "duration": 9, "velocity": 55}, {"time": 2304, "pitch": 65, "duration": 11, "velocity": 86}, {"time": 2307, "pitch": 53, "duration": 3, "velocity": 68}, {"time": 2310, "pitch": 60, "duration": 5, "velocity": 70}, {"time": 2313, "pitch": 57, "duration": 3, "velocity": 82}, {"time": 2316, "pitch": 45, "duration": 4, "velocity": 72}, {"time": 2316, "pitch": 57, "duration": 7, "velocity": 86}, {"time": 2316, "pitch": 60, "duration": 6, "velocity": 81}, {"time": 2317, "pitch": 64, "duration": 6, "velocity": 77}, {"time": 2328, "pitch": 57, "duration": 2, "velocity": 86}, {"time": 2328, "pitch": 62, "duration": 1, "velocity": 85}, {"time": 2328, "pitch": 66, "duration": 2, "velocity": 86}, {"time": 2328, "pitch": 50, "duration": 2, "velocity": 79}, {"time": 2329, "pitch": 38, "duration": 1, "velocity": 56}, {"time": 2334, "pitch": 50, "duration": 25, "velocity": 82}, {"time": 2334, "pitch": 66, "duration": 27, "velocity": 95}, {"time": 2334, "pitch": 62, "duration": 27, "velocity": 95}, {"time": 2334, "pitch": 57, "duration": 28, "velocity": 90}, {"time": 2334, "pitch": 38, "duration": 24, "velocity": 67}, {"time": 2364, "pitch": 43, "duration": 3, "velocity": 96}, {"time": 2365, "pitch": 59, "duration": 2, "velocity": 75}, {"time": 2365, "pitch": 55, "duration": 2, "velocity": 76}, {"time": 2365, "pitch": 62, "duration": 3, "velocity": 75}, {"time": 2369, "pitch": 43, "duration": 2, "velocity": 90}, {"time": 2369, "pitch": 59, "duration": 2, "velocity": 63}, {"time": 2369, "pitch": 62, "duration": 2, "velocity": 67}, {"time": 2369, "pitch": 55, "duration": 2, "velocity": 66}, {"time": 2373, "pitch": 43, "duration": 2, "velocity": 81}, {"time": 2373, "pitch": 62, "duration": 2, "velocity": 68}, {"time": 2373, "pitch": 55, "duration": 2, "velocity": 72}, {"time": 2373, "pitch": 59, "duration": 2, "velocity": 69}, {"time": 2377, "pitch": 55, "duration": 2, "velocity": 79}, {"time": 2377, "pitch": 62, "duration": 2, "velocity": 74}, {"time": 2377, "pitch": 43, "duration": 2, "velocity": 92}, {"time": 2377, "pitch": 59, "duration": 2, "velocity": 81}, {"time": 2381, "pitch": 62, "duration": 2, "velocity": 76}, {"time": 2381, "pitch": 55, "duration": 2, "velocity": 79}, {"time": 2381, "pitch": 59, "duration": 2, "velocity": 81}, {"time": 2381, "pitch": 43, "duration": 2, "velocity": 86}, {"time": 2385, "pitch": 55, "duration": 2, "velocity": 83}, {"time": 2385, "pitch": 62, "duration": 2, "velocity": 81}, {"time": 2385, "pitch": 59, "duration": 2, "velocity": 81}, {"time": 2385, "pitch": 43, "duration": 2, "velocity": 89}, {"time": 2389, "pitch": 43, "duration": 20, "velocity": 100}, {"time": 2389, "pitch": 62, "duration": 19, "velocity": 86}, {"time": 2389, "pitch": 55, "duration": 19, "velocity": 86}, {"time": 2389, "pitch": 59, "duration": 19, "velocity": 86}, {"time": 2409, "pitch": 59, "duration": 1, "velocity": 85}, {"time": 2409, "pitch": 55, "duration": 1, "velocity": 81}, {"time": 2409, "pitch": 62, "duration": 1, "velocity": 83}, {"time": 2409, "pitch": 43, "duration": 1, "velocity": 93}, {"time": 2411, "pitch": 59, "duration": 1, "velocity": 74}, {"time": 2411, "pitch": 55, "duration": 1, "velocity": 66}, {"time": 2411, "pitch": 43, "duration": 1, "velocity": 78}, {"time": 2411, "pitch": 62, "duration": 1, "velocity": 82}, {"time": 2412, "pitch": 43, "duration": 5, "velocity": 89}, {"time": 2413, "pitch": 55, "duration": 3, "velocity": 90}, {"time": 2413, "pitch": 59, "duration": 3, "velocity": 92}, {"time": 2413, "pitch": 62, "duration": 3, "velocity": 93}], "annotations": [{"time": 13, "annotation": {"number": 64, "value": 127}, "group": "control_change"}, {"time": 34, "annotation": {"number": 64, "value": 0}, "group": "control_change"}, {"time": 37, "annotation": {"number": 64, "value": 127}, "group": "control_change"}, {"time": 57, "annotation": {"number": 64, "value": 0}, "group": "control_change"}, {"time": 61, "annotation": {"number": 64, "value": 127}, "group": "control_change"}, {"time": 82, "annotation": {"number": 64, "value": 0}, "group": "control_change"}, {"time": 85, "annotation": {"number": 64, "value": 127}, "group": "control_change"}, {"time": 105, "annotation": {"number": 64, "value": 0}, "group": "control_change"}, {"time": 109, "annotation": {"number": 64, "value": 127}, "group": "control_change"}, {"time": 129, "annotation": {"number": 64, "value": 0}, "group": "control_change"}, {"time": 132, "annotation": {"number": 64, "value": 127}, "group": "control_change"}, {"time": 153, "annotation": {"number": 64, "value": 0}, "group": "control_change"}, {"time": 157, "annotation": {"number": 64, "value": 127}, "group": "control_change"}, {"time": 176, "annotation": {"number": 64, "value": 0}, "group": "control_change"}, {"time": 181, "annotation": {"number": 64, "value": 127}, "group": "control_change"}, {"time": 203, "annotation": {"number": 64, "value": 0}, "group": "control_change"}, {"time": 205, "annotation": {"number": 64, "value": 127}, "group": "control_change"}, {"time": 226, "annotation": {"number": 64, "value": 0}, "group": "control_change"}, {"time": 229, "annotation": {"number": 64, "value": 127}, "group": "control_change"}, {"time": 233, "annotation": {"number": 64, "value": 127}, "group": "control_change"}, {"time": 240, "annotation": {"number": 64, "value": 0}, "group": "control_change"}, {"time": 252, "annotation": {"number": 64, "value": 127}, "group": "control_change"}, {"time": 264, "annotation": {"number": 64, "value": 0}, "group": "control_change"}, {"time": 265, "annotation": {"number": 64, "value": 127}, "group": "control_change"}, {"time": 273, "annotation": {"number": 64, "value": 0}, "group": "control_change"}, {"time": 276, "annotation": {"number": 64, "value": 127}, "group": "control_change"}, {"time": 296, "annotation": {"number": 64, "value": 0}, "group": "control_change"}, {"time": 301, "annotation": {"number": 64, "value": 127}, "group": "control_change"}, {"time": 320, "annotation": {"number": 64, "value": 0}, "group": "control_change"}, {"time": 325, "annotation": {"number": 64, "value": 127}, "group": "control_change"}, {"time": 345, "annotation": {"number": 64, "value": 0}, "group": "control_change"}, {"time": 349, "annotation": {"number": 64, "value": 127}, "group": "control_change"}, {"time": 368, "annotation": {"number": 64, "value": 0}, "group": "control_change"}, {"time": 372, "annotation": {"number": 64, "value": 127}, "group": "control_change"}, {"time": 393, "annotation": {"number": 64, "value": 0}, "group": "control_change"}, {"time": 421, "annotation": {"number": 64, "value": 127}, "group": "control_change"}, {"time": 431, "annotation": {"number": 64, "value": 0}, "group": "control_change"}, {"time": 433, "annotation": {"number": 64, "value": 127}, "group": "control_change"}, {"time": 442, "annotation": {"number": 64, "value": 0}, "group": "control_change"}, {"time": 445, "annotation": {"number": 64, "value": 127}, "group": "control_change"}, {"time": 465, "annotation": {"number": 64, "value": 0}, "group": "control_change"}, {"time": 469, "annotation": {"number": 64, "value": 127}, "group": "control_change"}, {"time": 489, "annotation": {"number": 64, "value": 0}, "group": "control_change"}, {"time": 493, "annotation": {"number": 64, "value": 127}, "group": "control_change"}, {"time": 513, "annotation": {"number": 64, "value": 0}, "group": "control_change"}, {"time": 517, "annotation": {"number": 64, "value": 127}, "group": "control_change"}, {"time": 538, "annotation": {"number": 64, "value": 0}, "group": "control_change"}, {"time": 541, "annotation": {"number": 64, "value": 127}, "group": "control_change"}, {"time": 561, "annotation": {"number": 64, "value": 0}, "group": "control_change"}, {"time": 565, "annotation": {"number": 64, "value": 127}, "group": "control_change"}, {"time": 585, "annotation": {"number": 64, "value": 0}, "group": "control_change"}, {"time": 587, "annotation": {"number": 64, "value": 127}, "group": "control_change"}, {"time": 590, "annotation": {"number": 64, "value": 0}, "group": "control_change"}, {"time": 637, "annotation": {"number": 64, "value": 127}, "group": "control_change"}, {"time": 639, "annotation": {"number": 64, "value": 0}, "group": "control_change"}, {"time": 667, "annotation": {"number": 64, "value": 127}, "group": "control_change"}, {"time": 682, "annotation": {"number": 64, "value": 0}, "group": "control_change"}, {"time": 685, "annotation": {"number": 64, "value": 127}, "group": "control_change"}, {"time": 705, "annotation": {"number": 64, "value": 0}, "group": "control_change"}, {"time": 708, "annotation": {"number": 64, "value": 127}, "group": "control_change"}, {"time": 730, "annotation": {"number": 64, "value": 0}, "group": "control_change"}, {"time": 733, "annotation": {"number": 64, "value": 127}, "group": "control_change"}, {"time": 753, "annotation": {"number": 64, "value": 0}, "group": "control_change"}, {"time": 757, "annotation": {"number": 64, "value": 127}, "group": "control_change"}, {"time": 777, "annotation": {"number": 64, "value": 0}, "group": "control_change"}, {"time": 781, "annotation": {"number": 64, "value": 127}, "group": "control_change"}, {"time": 801, "annotation": {"number": 64, "value": 0}, "group": "control_change"}, {"time": 804, "annotation": {"number": 64, "value": 127}, "group": "control_change"}, {"time": 825, "annotation": {"number": 64, "value": 0}, "group": "control_change"}, {"time": 829, "annotation": {"number": 64, "value": 127}, "group": "control_change"}, {"time": 849, "annotation": {"number": 64, "value": 0}, "group": "control_change"}, {"time": 853, "annotation": {"number": 64, "value": 127}, "group": "control_change"}, {"time": 873, "annotation": {"number": 64, "value": 0}, "group": "control_change"}, {"time": 877, "annotation": {"number": 64, "value": 127}, "group": "control_change"}, {"time": 898, "annotation": {"number": 64, "value": 0}, "group": "control_change"}, {"time": 901, "annotation": {"number": 64, "value": 127}, "group": "control_change"}, {"time": 911, "annotation": {"number": 64, "value": 0}, "group": "control_change"}, {"time": 914, "annotation": {"number": 64, "value": 127}, "group": "control_change"}, {"time": 922, "annotation": {"number": 64, "value": 0}, "group": "control_change"}, {"time": 925, "annotation": {"number": 64, "value": 127}, "group": "control_change"}, {"time": 945, "annotation": {"number": 64, "value": 0}, "group": "control_change"}, {"time": 949, "annotation": {"number": 64, "value": 127}, "group": "control_change"}, {"time": 969, "annotation": {"number": 64, "value": 0}, "group": "control_change"}, {"time": 973, "annotation": {"number": 64, "value": 127}, "group": "control_change"}, {"time": 993, "annotation": {"number": 64, "value": 0}, "group": "control_change"}, {"time": 997, "annotation": {"number": 64, "value": 127}, "group": "control_change"}, {"time": 1017, "annotation": {"number": 64, "value": 0}, "group": "control_change"}, {"time": 1021, "annotation": {"number": 64, "value": 127}, "group": "control_change"}, {"time": 1042, "annotation": {"number": 64, "value": 0}, "group": "control_change"}, {"time": 1045, "annotation": {"number": 64, "value": 127}, "group": "control_change"}, {"time": 1065, "annotation": {"number": 64, "value": 0}, "group": "control_change"}, {"time": 1069, "annotation": {"number": 64, "value": 127}, "group": "control_change"}, {"time": 1090, "annotation": {"number": 64, "value": 0}, "group": "control_change"}, {"time": 1093, "annotation": {"number": 64, "value": 127}, "group": "control_change"}, {"time": 1113, "annotation": {"number": 64, "value": 0}, "group": "control_change"}, {"time": 1117, "annotation": {"number": 64, "value": 127}, "group": "control_change"}, {"time": 1137, "annotation": {"number": 64, "value": 0}, "group": "control_change"}, {"time": 1140, "annotation": {"number": 64, "value": 127}, "group": "control_change"}, {"time": 1161, "annotation": {"number": 64, "value": 0}, "group": "control_change"}, {"time": 1165, "annotation": {"number": 64, "value": 127}, "group": "control_change"}, {"time": 1184, "annotation": {"number": 64, "value": 0}, "group": "control_change"}, {"time": 1189, "annotation": {"number": 64, "value": 127}, "group": "control_change"}, {"time": 1211, "annotation": {"number": 64, "value": 0}, "group": "control_change"}, {"time": 1213, "annotation": {"number": 64, "value": 127}, "group": "control_change"}, {"time": 1234, "annotation": {"number": 64, "value": 0}, "group": "control_change"}, {"time": 1237, "annotation": {"number": 64, "value": 127}, "group": "control_change"}, {"time": 1241, "annotation": {"number": 64, "value": 127}, "group": "control_change"}, {"time": 1248, "annotation": {"number": 64, "value": 0}, "group": "control_change"}, {"time": 1260, "annotation": {"number": 64, "value": 127}, "group": "control_change"}, {"time": 1272, "annotation": {"number": 64, "value": 0}, "group": "control_change"}, {"time": 1273, "annotation": {"number": 64, "value": 127}, "group": "control_change"}, {"time": 1281, "annotation": {"number": 64, "value": 0}, "group": "control_change"}, {"time": 1284, "annotation": {"number": 64, "value": 127}, "group": "control_change"}, {"time": 1304, "annotation": {"number": 64, "value": 0}, "group": "control_change"}, {"time": 1309, "annotation": {"number": 64, "value": 127}, "group": "control_change"}, {"time": 1328, "annotation": {"number": 64, "value": 0}, "group": "control_change"}, {"time": 1333, "annotation": {"number": 64, "value": 127}, "group": "control_change"}, {"time": 1353, "annotation": {"number": 64, "value": 0}, "group": "control_change"}, {"time": 1357, "annotation": {"number": 64, "value": 127}, "group": "control_change"}, {"time": 1376, "annotation": {"number": 64, "value": 0}, "group": "control_change"}, {"time": 1380, "annotation": {"number": 64, "value": 127}, "group": "control_change"}, {"time": 1401, "annotation": {"number": 64, "value": 0}, "group": "control_change"}, {"time": 1429, "annotation": {"number": 64, "value": 127}, "group": "control_change"}, {"time": 1439, "annotation": {"number": 64, "value": 0}, "group": "control_change"}, {"time": 1441, "annotation": {"number": 64, "value": 127}, "group": "control_change"}, {"time": 1450, "annotation": {"number": 64, "value": 0}, "group": "control_change"}, {"time": 1453, "annotation": {"number": 64, "value": 127}, "group": "control_change"}, {"time": 1473, "annotation": {"number": 64, "value": 0}, "group": "control_change"}, {"time": 1477, "annotation": {"number": 64, "value": 127}, "group": "control_change"}, {"time": 1497, "annotation": {"number": 64, "value": 0}, "group": "control_change"}, {"time": 1501, "annotation": {"number": 64, "value": 127}, "group": "control_change"}, {"time": 1521, "annotation": {"number": 64, "value": 0}, "group": "control_change"}, {"time": 1525, "annotation": {"number": 64, "value": 127}, "group": "control_change"}, {"time": 1546, "annotation": {"number": 64, "value": 0}, "group": "control_change"}, {"time": 1549, "annotation": {"number": 64, "value": 127}, "group": "control_change"}, {"time": 1569, "annotation": {"number": 64, "value": 0}, "group": "control_change"}, {"time": 1573, "annotation": {"number": 64, "value": 127}, "group": "control_change"}, {"time": 1593, "annotation": {"number": 64, "value": 0}, "group": "control_change"}, {"time": 1595, "annotation": {"number": 64, "value": 127}, "group": "control_change"}, {"time": 1598, "annotation": {"number": 64, "value": 0}, "group": "control_change"}, {"time": 1645, "annotation": {"number": 64, "value": 127}, "group": "control_change"}, {"time": 1647, "annotation": {"number": 64, "value": 0}, "group": "control_change"}, {"time": 1675, "annotation": {"number": 64, "value": 127}, "group": "control_change"}, {"time": 1690, "annotation": {"number": 64, "value": 0}, "group": "control_change"}, {"time": 1693, "annotation": {"number": 64, "value": 127}, "group": "control_change"}, {"time": 1713, "annotation": {"number": 64, "value": 0}, "group": "control_change"}, {"time": 1716, "annotation": {"number": 64, "value": 127}, "group": "control_change"}, {"time": 1738, "annotation": {"number": 64, "value": 0}, "group": "control_change"}, {"time": 1741, "annotation": {"number": 64, "value": 127}, "group": "control_change"}, {"time": 1761, "annotation": {"number": 64, "value": 0}, "group": "control_change"}, {"time": 1765, "annotation": {"number": 64, "value": 127}, "group": "control_change"}, {"time": 1785, "annotation": {"number": 64, "value": 0}, "group": "control_change"}, {"time": 1789, "annotation": {"number": 64, "value": 127}, "group": "control_change"}, {"time": 1809, "annotation": {"number": 64, "value": 0}, "group": "control_change"}, {"time": 1812, "annotation": {"number": 64, "value": 127}, "group": "control_change"}, {"time": 1833, "annotation": {"number": 64, "value": 0}, "group": "control_change"}, {"time": 1837, "annotation": {"number": 64, "value": 127}, "group": "control_change"}, {"time": 1857, "annotation": {"number": 64, "value": 0}, "group": "control_change"}, {"time": 1861, "annotation": {"number": 64, "value": 127}, "group": "control_change"}, {"time": 1881, "annotation": {"number": 64, "value": 0}, "group": "control_change"}, {"time": 1885, "annotation": {"number": 64, "value": 127}, "group": "control_change"}, {"time": 1906, "annotation": {"number": 64, "value": 0}, "group": "control_change"}, {"time": 1909, "annotation": {"number": 64, "value": 127}, "group": "control_change"}, {"time": 1919, "annotation": {"number": 64, "value": 0}, "group": "control_change"}, {"time": 1922, "annotation": {"number": 64, "value": 127}, "group": "control_change"}, {"time": 1930, "annotation": {"number": 64, "value": 0}, "group": "control_change"}, {"time": 1933, "annotation": {"number": 64, "value": 127}, "group": "control_change"}, {"time": 1953, "annotation": {"number": 64, "value": 0}, "group": "control_change"}, {"time": 1957, "annotation": {"number": 64, "value": 127}, "group": "control_change"}, {"time": 1977, "annotation": {"number": 64, "value": 0}, "group": "control_change"}, {"time": 1981, "annotation": {"number": 64, "value": 127}, "group": "control_change"}, {"time": 2001, "annotation": {"number": 64, "value": 0}, "group": "control_change"}, {"time": 2005, "annotation": {"number": 64, "value": 127}, "group": "control_change"}, {"time": 2025, "annotation": {"number": 64, "value": 0}, "group": "control_change"}, {"time": 2029, "annotation": {"number": 64, "value": 127}, "group": "control_change"}, {"time": 2049, "annotation": {"number": 64, "value": 0}, "group": "control_change"}, {"time": 2052, "annotation": {"number": 64, "value": 127}, "group": "control_change"}, {"time": 2074, "annotation": {"number": 64, "value": 0}, "group": "control_change"}, {"time": 2077, "annotation": {"number": 64, "value": 127}, "group": "control_change"}, {"time": 2097, "annotation": {"number": 64, "value": 0}, "group": "control_change"}, {"time": 2101, "annotation": {"number": 64, "value": 127}, "group": "control_change"}, {"time": 2121, "annotation": {"number": 64, "value": 0}, "group": "control_change"}, {"time": 2125, "annotation": {"number": 64, "value": 127}, "group": "control_change"}, {"time": 2145, "annotation": {"number": 64, "value": 0}, "group": "control_change"}, {"time": 2148, "annotation": {"number": 64, "value": 127}, "group": "control_change"}, {"time": 2169, "annotation": {"number": 64, "value": 0}, "group": "control_change"}, {"time": 2173, "annotation": {"number": 64, "value": 127}, "group": "control_change"}, {"time": 2193, "annotation": {"number": 64, "value": 0}, "group": "control_change"}, {"time": 2197, "annotation": {"number": 64, "value": 127}, "group": "control_change"}, {"time": 2217, "annotation": {"number": 64, "value": 0}, "group": "control_change"}, {"time": 2221, "annotation": {"number": 64, "value": 127}, "group": "control_change"}, {"time": 2242, "annotation": {"number": 64, "value": 0}, "group": "control_change"}, {"time": 2245, "annotation": {"number": 64, "value": 127}, "group": "control_change"}, {"time": 2255, "annotation": {"number": 64, "value": 0}, "group": "control_change"}, {"time": 2258, "annotation": {"number": 64, "value": 127}, "group": "control_change"}, {"time": 2266, "annotation": {"number": 64, "value": 0}, "group": "control_change"}, {"time": 2269, "annotation": {"number": 64, "value": 127}, "group": "control_change"}, {"time": 2289, "annotation": {"number": 64, "value": 0}, "group": "control_change"}, {"time": 2293, "annotation": {"number": 64, "value": 127}, "group": "control_change"}, {"time": 2313, "annotation": {"number": 64, "value": 0}, "group": "control_change"}, {"time": 2316, "annotation": {"number": 64, "value": 127}, "group": "control_change"}, {"time": 2328, "annotation": {"number": 64, "value": 0}, "group": "control_change"}, {"time": 2352, "annotation": {"number": 64, "value": 127}, "group": "control_change"}, {"time": 2360, "annotation": {"number": 64, "value": 127}, "group": "control_change"}, {"time": 2362, "annotation": {"number": 64, "value": 0}, "group": "control_change"}, {"time": 2363, "annotation": {"number": 64, "value": 0}, "group": "control_change"}, {"time": 2405, "annotation": {"number": 64, "value": 127}, "group": "control_change"}, {"time": 2408, "annotation": {"number": 64, "value": 0}, "group": "control_change"}, {"time": 2421, "annotation": {"number": 64, "value": 127}, "group": "control_change"}, {"time": 2430, "annotation": {"number": 64, "value": 0}, "group": "control_change"}]}]}