{"metadata": {"schema_version": "0.2", "title": "None", "source_filename": "778.mid", "source_format": "midi"}, "resolution": 12, "tempos": [{"time": 0, "qpm": 72.00011520018433}], "time_signatures": [{"time": 0, "numerator": 1, "denominator": 4}], "tracks": [{"program": 0, "is_drum": false, "name": "MELODY", "notes": [{"time": 19, "pitch": 58, "duration": 9, "velocity": 96}, {"time": 31, "pitch": 55, "duration": 4, "velocity": 88}, {"time": 37, "pitch": 57, "duration": 3, "velocity": 88}, {"time": 40, "pitch": 58, "duration": 8, "velocity": 95}, {"time": 64, "pitch": 58, "duration": 3, "velocity": 88}, {"time": 67, "pitch": 57, "duration": 3, "velocity": 72}, {"time": 73, "pitch": 55, "duration": 3, "velocity": 88}, {"time": 79, "pitch": 55, "duration": 3, "velocity": 78}, {"time": 85, "pitch": 53, "duration": 3, "velocity": 76}, {"time": 91, "pitch": 53, "duration": 13, "velocity": 79}, {"time": 115, "pitch": 58, "duration": 8, "velocity": 99}, {"time": 127, "pitch": 58, "duration": 2, "velocity": 112}, {"time": 130, "pitch": 60, "duration": 8, "velocity": 93}, {"time": 139, "pitch": 58, "duration": 12, "velocity": 90}, {"time": 160, "pitch": 58, "duration": 2, "velocity": 100}, {"time": 163, "pitch": 57, "duration": 4, "velocity": 75}, {"time": 169, "pitch": 55, "duration": 3, "velocity": 86}, {"time": 175, "pitch": 55, "duration": 5, "velocity": 83}, {"time": 181, "pitch": 53, "duration": 5, "velocity": 95}, {"time": 187, "pitch": 62, "duration": 7, "velocity": 92}, {"time": 211, "pitch": 62, "duration": 7, "velocity": 102}, {"time": 220, "pitch": 60, "duration": 6, "velocity": 100}, {"time": 229, "pitch": 58, "duration": 1, "velocity": 96}, {"time": 232, "pitch": 58, "duration": 6, "velocity": 100}, {"time": 241, "pitch": 60, "duration": 7, "velocity": 97}, {"time": 256, "pitch": 53, "duration": 1, "velocity": 85}, {"time": 259, "pitch": 53, "duration": 4, "velocity": 89}, {"time": 265, "pitch": 53, "duration": 4, "velocity": 93}, {"time": 271, "pitch": 60, "duration": 5, "velocity": 100}, {"time": 277, "pitch": 63, "duration": 5, "velocity": 97}, {"time": 283, "pitch": 63, "duration": 1, "velocity": 117}, {"time": 286, "pitch": 63, "duration": 6, "velocity": 102}, {"time": 292, "pitch": 62, "duration": 11, "velocity": 102}, {"time": 307, "pitch": 62, "duration": 4, "velocity": 107}, {"time": 313, "pitch": 60, "duration": 1, "velocity": 93}, {"time": 316, "pitch": 60, "duration": 6, "velocity": 93}, {"time": 325, "pitch": 58, "duration": 1, "velocity": 92}, {"time": 328, "pitch": 58, "duration": 6, "velocity": 93}, {"time": 334, "pitch": 53, "duration": 2, "velocity": 85}, {"time": 355, "pitch": 60, "duration": 4, "velocity": 90}, {"time": 361, "pitch": 58, "duration": 1, "velocity": 76}, {"time": 364, "pitch": 58, "duration": 7, "velocity": 112}, {"time": 373, "pitch": 57, "duration": 2, "velocity": 85}, {"time": 376, "pitch": 58, "duration": 11, "velocity": 92}, {"time": 403, "pitch": 58, "duration": 8, "velocity": 97}, {"time": 415, "pitch": 55, "duration": 4, "velocity": 85}, {"time": 421, "pitch": 57, "duration": 2, "velocity": 73}, {"time": 424, "pitch": 58, "duration": 15, "velocity": 89}, {"time": 448, "pitch": 58, "duration": 3, "velocity": 96}, {"time": 451, "pitch": 57, "duration": 5, "velocity": 79}, {"time": 457, "pitch": 55, "duration": 4, "velocity": 79}, {"time": 463, "pitch": 55, "duration": 3, "velocity": 85}, {"time": 469, "pitch": 53, "duration": 3, "velocity": 75}, {"time": 475, "pitch": 53, "duration": 11, "velocity": 83}, {"time": 499, "pitch": 58, "duration": 10, "velocity": 96}, {"time": 511, "pitch": 58, "duration": 3, "velocity": 99}, {"time": 514, "pitch": 60, "duration": 9, "velocity": 85}, {"time": 523, "pitch": 58, "duration": 13, "velocity": 79}, {"time": 544, "pitch": 58, "duration": 2, "velocity": 99}, {"time": 547, "pitch": 57, "duration": 5, "velocity": 77}, {"time": 553, "pitch": 55, "duration": 4, "velocity": 85}, {"time": 559, "pitch": 55, "duration": 2, "velocity": 68}, {"time": 565, "pitch": 53, "duration": 5, "velocity": 90}, {"time": 571, "pitch": 62, "duration": 10, "velocity": 97}, {"time": 595, "pitch": 62, "duration": 4, "velocity": 97}, {"time": 601, "pitch": 60, "duration": 1, "velocity": 73}, {"time": 604, "pitch": 60, "duration": 5, "velocity": 89}, {"time": 613, "pitch": 58, "duration": 1, "velocity": 96}, {"time": 616, "pitch": 58, "duration": 5, "velocity": 89}, {"time": 622, "pitch": 60, "duration": 11, "velocity": 90}, {"time": 640, "pitch": 53, "duration": 1, "velocity": 85}, {"time": 643, "pitch": 53, "duration": 2, "velocity": 83}, {"time": 649, "pitch": 53, "duration": 3, "velocity": 83}, {"time": 655, "pitch": 60, "duration": 4, "velocity": 83}, {"time": 661, "pitch": 63, "duration": 4, "velocity": 100}, {"time": 667, "pitch": 63, "duration": 7, "velocity": 112}, {"time": 673, "pitch": 62, "duration": 1, "velocity": 102}, {"time": 676, "pitch": 62, "duration": 7, "velocity": 88}, {"time": 691, "pitch": 62, "duration": 4, "velocity": 96}, {"time": 697, "pitch": 60, "duration": 1, "velocity": 78}, {"time": 700, "pitch": 60, "duration": 6, "velocity": 92}, {"time": 709, "pitch": 58, "duration": 1, "velocity": 89}, {"time": 712, "pitch": 58, "duration": 6, "velocity": 95}, {"time": 718, "pitch": 60, "duration": 10, "velocity": 95}, {"time": 739, "pitch": 58, "duration": 7, "velocity": 102}, {"time": 748, "pitch": 57, "duration": 16, "velocity": 88}, {"time": 775, "pitch": 58, "duration": 4, "velocity": 97}, {"time": 781, "pitch": 60, "duration": 4, "velocity": 95}, {"time": 787, "pitch": 62, "duration": 6, "velocity": 100}, {"time": 793, "pitch": 67, "duration": 1, "velocity": 102}, {"time": 796, "pitch": 67, "duration": 4, "velocity": 93}, {"time": 802, "pitch": 70, "duration": 8, "velocity": 112}, {"time": 811, "pitch": 69, "duration": 5, "velocity": 122}, {"time": 817, "pitch": 67, "duration": 1, "velocity": 117}, {"time": 820, "pitch": 67, "duration": 5, "velocity": 112}, {"time": 829, "pitch": 65, "duration": 3, "velocity": 102}, {"time": 835, "pitch": 65, "duration": 3, "velocity": 100}, {"time": 841, "pitch": 60, "duration": 4, "velocity": 88}, {"time": 847, "pitch": 60, "duration": 4, "velocity": 96}, {"time": 853, "pitch": 63, "duration": 4, "velocity": 112}, {"time": 859, "pitch": 63, "duration": 8, "velocity": 117}, {"time": 868, "pitch": 62, "duration": 7, "velocity": 112}, {"time": 877, "pitch": 58, "duration": 1, "velocity": 107}, {"time": 880, "pitch": 60, "duration": 2, "velocity": 86}, {"time": 883, "pitch": 62, "duration": 3, "velocity": 97}, {"time": 889, "pitch": 62, "duration": 1, "velocity": 93}, {"time": 892, "pitch": 62, "duration": 4, "velocity": 93}, {"time": 898, "pitch": 67, "duration": 8, "velocity": 102}, {"time": 907, "pitch": 65, "duration": 6, "velocity": 107}, {"time": 913, "pitch": 63, "duration": 1, "velocity": 93}, {"time": 916, "pitch": 63, "duration": 3, "velocity": 112}, {"time": 925, "pitch": 62, "duration": 5, "velocity": 112}, {"time": 931, "pitch": 60, "duration": 4, "velocity": 97}, {"time": 937, "pitch": 60, "duration": 4, "velocity": 97}, {"time": 943, "pitch": 60, "duration": 4, "velocity": 102}, {"time": 949, "pitch": 60, "duration": 3, "velocity": 97}, {"time": 955, "pitch": 60, "duration": 5, "velocity": 102}, {"time": 964, "pitch": 58, "duration": 3, "velocity": 99}, {"time": 973, "pitch": 58, "duration": 2, "velocity": 117}, {"time": 976, "pitch": 60, "duration": 2, "velocity": 85}, {"time": 979, "pitch": 62, "duration": 5, "velocity": 102}, {"time": 985, "pitch": 67, "duration": 1, "velocity": 97}, {"time": 988, "pitch": 67, "duration": 5, "velocity": 102}, {"time": 997, "pitch": 70, "duration": 4, "velocity": 112}, {"time": 1003, "pitch": 69, "duration": 7, "velocity": 107}, {"time": 1012, "pitch": 67, "duration": 6, "velocity": 90}, {"time": 1021, "pitch": 65, "duration": 4, "velocity": 107}, {"time": 1027, "pitch": 65, "duration": 5, "velocity": 95}, {"time": 1033, "pitch": 60, "duration": 4, "velocity": 92}, {"time": 1039, "pitch": 60, "duration": 4, "velocity": 97}, {"time": 1045, "pitch": 63, "duration": 3, "velocity": 102}, {"time": 1051, "pitch": 63, "duration": 7, "velocity": 117}, {"time": 1060, "pitch": 62, "duration": 7, "velocity": 102}, {"time": 1069, "pitch": 58, "duration": 2, "velocity": 107}, {"time": 1072, "pitch": 60, "duration": 2, "velocity": 93}, {"time": 1075, "pitch": 62, "duration": 6, "velocity": 99}, {"time": 1081, "pitch": 62, "duration": 1, "velocity": 100}, {"time": 1084, "pitch": 62, "duration": 4, "velocity": 100}, {"time": 1090, "pitch": 67, "duration": 7, "velocity": 112}, {"time": 1099, "pitch": 65, "duration": 4, "velocity": 107}, {"time": 1105, "pitch": 63, "duration": 1, "velocity": 99}, {"time": 1108, "pitch": 63, "duration": 3, "velocity": 107}, {"time": 1117, "pitch": 62, "duration": 4, "velocity": 99}, {"time": 1123, "pitch": 60, "duration": 3, "velocity": 102}, {"time": 1129, "pitch": 60, "duration": 3, "velocity": 100}, {"time": 1135, "pitch": 60, "duration": 3, "velocity": 99}, {"time": 1141, "pitch": 60, "duration": 2, "velocity": 102}, {"time": 1147, "pitch": 60, "duration": 7, "velocity": 96}, {"time": 1156, "pitch": 58, "duration": 4, "velocity": 102}, {"time": 1363, "pitch": 58, "duration": 8, "velocity": 97}, {"time": 1375, "pitch": 55, "duration": 4, "velocity": 85}, {"time": 1381, "pitch": 57, "duration": 2, "velocity": 73}, {"time": 1384, "pitch": 58, "duration": 15, "velocity": 89}, {"time": 1408, "pitch": 58, "duration": 3, "velocity": 96}, {"time": 1411, "pitch": 57, "duration": 5, "velocity": 79}, {"time": 1417, "pitch": 55, "duration": 4, "velocity": 79}, {"time": 1423, "pitch": 55, "duration": 3, "velocity": 85}, {"time": 1429, "pitch": 53, "duration": 3, "velocity": 75}, {"time": 1435, "pitch": 53, "duration": 11, "velocity": 83}, {"time": 1459, "pitch": 58, "duration": 10, "velocity": 96}, {"time": 1471, "pitch": 58, "duration": 3, "velocity": 99}, {"time": 1474, "pitch": 60, "duration": 9, "velocity": 85}, {"time": 1483, "pitch": 58, "duration": 13, "velocity": 79}, {"time": 1504, "pitch": 58, "duration": 2, "velocity": 99}, {"time": 1507, "pitch": 57, "duration": 5, "velocity": 77}, {"time": 1513, "pitch": 55, "duration": 4, "velocity": 85}, {"time": 1519, "pitch": 55, "duration": 2, "velocity": 68}, {"time": 1525, "pitch": 53, "duration": 5, "velocity": 90}, {"time": 1531, "pitch": 62, "duration": 10, "velocity": 97}, {"time": 1555, "pitch": 62, "duration": 4, "velocity": 97}, {"time": 1561, "pitch": 60, "duration": 1, "velocity": 73}, {"time": 1564, "pitch": 60, "duration": 5, "velocity": 89}, {"time": 1573, "pitch": 58, "duration": 1, "velocity": 96}, {"time": 1576, "pitch": 58, "duration": 5, "velocity": 89}, {"time": 1582, "pitch": 60, "duration": 11, "velocity": 90}, {"time": 1600, "pitch": 53, "duration": 1, "velocity": 85}, {"time": 1603, "pitch": 53, "duration": 2, "velocity": 83}, {"time": 1609, "pitch": 53, "duration": 3, "velocity": 83}, {"time": 1615, "pitch": 60, "duration": 4, "velocity": 83}, {"time": 1621, "pitch": 63, "duration": 4, "velocity": 100}, {"time": 1627, "pitch": 63, "duration": 7, "velocity": 112}, {"time": 1633, "pitch": 62, "duration": 1, "velocity": 102}, {"time": 1636, "pitch": 62, "duration": 7, "velocity": 88}, {"time": 1651, "pitch": 62, "duration": 4, "velocity": 96}, {"time": 1657, "pitch": 60, "duration": 1, "velocity": 78}, {"time": 1660, "pitch": 60, "duration": 6, "velocity": 92}, {"time": 1669, "pitch": 58, "duration": 1, "velocity": 89}, {"time": 1672, "pitch": 58, "duration": 6, "velocity": 95}, {"time": 1678, "pitch": 60, "duration": 10, "velocity": 95}, {"time": 1699, "pitch": 58, "duration": 7, "velocity": 102}, {"time": 1708, "pitch": 57, "duration": 16, "velocity": 88}, {"time": 1735, "pitch": 58, "duration": 4, "velocity": 97}, {"time": 1741, "pitch": 60, "duration": 4, "velocity": 95}, {"time": 1747, "pitch": 62, "duration": 6, "velocity": 100}, {"time": 1753, "pitch": 67, "duration": 1, "velocity": 102}, {"time": 1756, "pitch": 67, "duration": 4, "velocity": 93}, {"time": 1762, "pitch": 70, "duration": 8, "velocity": 112}, {"time": 1771, "pitch": 69, "duration": 5, "velocity": 122}, {"time": 1777, "pitch": 67, "duration": 1, "velocity": 117}, {"time": 1780, "pitch": 67, "duration": 5, "velocity": 112}, {"time": 1789, "pitch": 65, "duration": 3, "velocity": 102}, {"time": 1795, "pitch": 65, "duration": 3, "velocity": 100}, {"time": 1801, "pitch": 60, "duration": 4, "velocity": 88}, {"time": 1807, "pitch": 60, "duration": 4, "velocity": 96}, {"time": 1813, "pitch": 63, "duration": 4, "velocity": 112}, {"time": 1819, "pitch": 63, "duration": 8, "velocity": 117}, {"time": 1828, "pitch": 62, "duration": 7, "velocity": 112}, {"time": 1837, "pitch": 58, "duration": 1, "velocity": 107}, {"time": 1840, "pitch": 60, "duration": 2, "velocity": 86}, {"time": 1843, "pitch": 62, "duration": 3, "velocity": 97}, {"time": 1849, "pitch": 62, "duration": 1, "velocity": 93}, {"time": 1852, "pitch": 62, "duration": 4, "velocity": 93}, {"time": 1858, "pitch": 67, "duration": 8, "velocity": 102}, {"time": 1867, "pitch": 65, "duration": 6, "velocity": 107}, {"time": 1873, "pitch": 63, "duration": 1, "velocity": 93}, {"time": 1876, "pitch": 63, "duration": 3, "velocity": 112}, {"time": 1885, "pitch": 62, "duration": 5, "velocity": 112}, {"time": 1891, "pitch": 60, "duration": 4, "velocity": 97}, {"time": 1897, "pitch": 60, "duration": 4, "velocity": 97}, {"time": 1903, "pitch": 60, "duration": 4, "velocity": 102}, {"time": 1909, "pitch": 60, "duration": 3, "velocity": 97}, {"time": 1915, "pitch": 60, "duration": 5, "velocity": 102}, {"time": 1924, "pitch": 58, "duration": 3, "velocity": 99}, {"time": 1933, "pitch": 58, "duration": 2, "velocity": 117}, {"time": 1936, "pitch": 60, "duration": 2, "velocity": 85}, {"time": 1939, "pitch": 62, "duration": 5, "velocity": 102}, {"time": 1945, "pitch": 67, "duration": 1, "velocity": 97}, {"time": 1948, "pitch": 67, "duration": 5, "velocity": 102}, {"time": 1957, "pitch": 70, "duration": 4, "velocity": 112}, {"time": 1963, "pitch": 69, "duration": 7, "velocity": 107}, {"time": 1972, "pitch": 67, "duration": 6, "velocity": 90}, {"time": 1981, "pitch": 65, "duration": 4, "velocity": 107}, {"time": 1987, "pitch": 65, "duration": 5, "velocity": 95}, {"time": 1993, "pitch": 60, "duration": 4, "velocity": 92}, {"time": 1999, "pitch": 60, "duration": 4, "velocity": 97}, {"time": 2005, "pitch": 63, "duration": 3, "velocity": 102}, {"time": 2011, "pitch": 63, "duration": 7, "velocity": 117}, {"time": 2020, "pitch": 62, "duration": 7, "velocity": 102}, {"time": 2029, "pitch": 58, "duration": 2, "velocity": 107}, {"time": 2032, "pitch": 60, "duration": 2, "velocity": 93}, {"time": 2035, "pitch": 62, "duration": 6, "velocity": 99}, {"time": 2041, "pitch": 62, "duration": 1, "velocity": 100}, {"time": 2044, "pitch": 62, "duration": 4, "velocity": 100}, {"time": 2050, "pitch": 67, "duration": 7, "velocity": 112}, {"time": 2059, "pitch": 65, "duration": 4, "velocity": 107}, {"time": 2065, "pitch": 63, "duration": 1, "velocity": 99}, {"time": 2068, "pitch": 63, "duration": 3, "velocity": 107}, {"time": 2077, "pitch": 62, "duration": 4, "velocity": 99}, {"time": 2083, "pitch": 60, "duration": 3, "velocity": 102}, {"time": 2089, "pitch": 60, "duration": 3, "velocity": 100}, {"time": 2095, "pitch": 60, "duration": 3, "velocity": 99}, {"time": 2101, "pitch": 60, "duration": 2, "velocity": 102}, {"time": 2107, "pitch": 60, "duration": 7, "velocity": 96}, {"time": 2116, "pitch": 58, "duration": 4, "velocity": 102}, {"time": 2131, "pitch": 62, "duration": 6, "velocity": 100}, {"time": 2137, "pitch": 67, "duration": 1, "velocity": 102}, {"time": 2140, "pitch": 67, "duration": 4, "velocity": 93}, {"time": 2146, "pitch": 70, "duration": 8, "velocity": 112}, {"time": 2155, "pitch": 69, "duration": 5, "velocity": 122}, {"time": 2161, "pitch": 67, "duration": 1, "velocity": 117}, {"time": 2164, "pitch": 67, "duration": 5, "velocity": 112}, {"time": 2173, "pitch": 65, "duration": 3, "velocity": 102}, {"time": 2179, "pitch": 65, "duration": 3, "velocity": 100}, {"time": 2185, "pitch": 60, "duration": 4, "velocity": 88}, {"time": 2191, "pitch": 60, "duration": 4, "velocity": 96}, {"time": 2197, "pitch": 63, "duration": 4, "velocity": 112}, {"time": 2203, "pitch": 63, "duration": 8, "velocity": 117}, {"time": 2212, "pitch": 62, "duration": 7, "velocity": 112}, {"time": 2221, "pitch": 58, "duration": 1, "velocity": 107}, {"time": 2224, "pitch": 60, "duration": 2, "velocity": 86}, {"time": 2227, "pitch": 62, "duration": 3, "velocity": 97}, {"time": 2233, "pitch": 62, "duration": 1, "velocity": 93}, {"time": 2236, "pitch": 62, "duration": 4, "velocity": 93}, {"time": 2242, "pitch": 67, "duration": 8, "velocity": 102}, {"time": 2251, "pitch": 65, "duration": 6, "velocity": 107}, {"time": 2257, "pitch": 63, "duration": 1, "velocity": 93}, {"time": 2260, "pitch": 63, "duration": 3, "velocity": 112}, {"time": 2269, "pitch": 62, "duration": 5, "velocity": 112}, {"time": 2275, "pitch": 60, "duration": 4, "velocity": 97}, {"time": 2281, "pitch": 60, "duration": 4, "velocity": 97}, {"time": 2287, "pitch": 60, "duration": 4, "velocity": 102}, {"time": 2293, "pitch": 60, "duration": 3, "velocity": 97}, {"time": 2299, "pitch": 60, "duration": 5, "velocity": 102}, {"time": 2308, "pitch": 58, "duration": 3, "velocity": 99}, {"time": 2317, "pitch": 58, "duration": 2, "velocity": 117}, {"time": 2320, "pitch": 60, "duration": 2, "velocity": 85}, {"time": 2323, "pitch": 62, "duration": 5, "velocity": 102}, {"time": 2329, "pitch": 67, "duration": 1, "velocity": 97}, {"time": 2332, "pitch": 67, "duration": 5, "velocity": 102}, {"time": 2341, "pitch": 70, "duration": 4, "velocity": 112}, {"time": 2347, "pitch": 69, "duration": 7, "velocity": 107}, {"time": 2356, "pitch": 67, "duration": 6, "velocity": 90}, {"time": 2365, "pitch": 65, "duration": 4, "velocity": 107}, {"time": 2371, "pitch": 65, "duration": 5, "velocity": 95}, {"time": 2377, "pitch": 60, "duration": 4, "velocity": 92}, {"time": 2383, "pitch": 60, "duration": 4, "velocity": 97}, {"time": 2389, "pitch": 63, "duration": 3, "velocity": 102}, {"time": 2395, "pitch": 63, "duration": 7, "velocity": 117}, {"time": 2404, "pitch": 62, "duration": 7, "velocity": 102}, {"time": 2413, "pitch": 58, "duration": 2, "velocity": 107}, {"time": 2416, "pitch": 60, "duration": 2, "velocity": 93}, {"time": 2419, "pitch": 62, "duration": 6, "velocity": 99}, {"time": 2425, "pitch": 62, "duration": 1, "velocity": 100}, {"time": 2428, "pitch": 62, "duration": 4, "velocity": 100}, {"time": 2434, "pitch": 67, "duration": 7, "velocity": 112}, {"time": 2443, "pitch": 65, "duration": 4, "velocity": 107}, {"time": 2449, "pitch": 63, "duration": 1, "velocity": 99}, {"time": 2452, "pitch": 63, "duration": 3, "velocity": 107}, {"time": 2461, "pitch": 62, "duration": 4, "velocity": 99}, {"time": 2467, "pitch": 60, "duration": 3, "velocity": 102}, {"time": 2473, "pitch": 60, "duration": 3, "velocity": 100}, {"time": 2479, "pitch": 60, "duration": 3, "velocity": 99}, {"time": 2485, "pitch": 60, "duration": 2, "velocity": 102}, {"time": 2491, "pitch": 60, "duration": 7, "velocity": 96}, {"time": 2500, "pitch": 58, "duration": 4, "velocity": 102}, {"time": 2515, "pitch": 58, "duration": 9, "velocity": 96}, {"time": 2527, "pitch": 55, "duration": 4, "velocity": 88}, {"time": 2533, "pitch": 57, "duration": 3, "velocity": 88}, {"time": 2536, "pitch": 58, "duration": 8, "velocity": 95}, {"time": 2560, "pitch": 58, "duration": 3, "velocity": 88}, {"time": 2563, "pitch": 57, "duration": 3, "velocity": 72}, {"time": 2569, "pitch": 55, "duration": 3, "velocity": 88}, {"time": 2575, "pitch": 55, "duration": 3, "velocity": 78}, {"time": 2581, "pitch": 53, "duration": 3, "velocity": 76}, {"time": 2587, "pitch": 53, "duration": 13, "velocity": 79}, {"time": 2611, "pitch": 58, "duration": 8, "velocity": 99}, {"time": 2623, "pitch": 55, "duration": 3, "velocity": 90}, {"time": 2626, "pitch": 57, "duration": 4, "velocity": 83}, {"time": 2629, "pitch": 58, "duration": 2, "velocity": 96}, {"time": 2632, "pitch": 60, "duration": 6, "velocity": 107}, {"time": 2638, "pitch": 58, "duration": 15, "velocity": 88}, {"time": 2656, "pitch": 58, "duration": 2, "velocity": 100}, {"time": 2659, "pitch": 57, "duration": 4, "velocity": 75}, {"time": 2665, "pitch": 55, "duration": 3, "velocity": 86}, {"time": 2671, "pitch": 55, "duration": 5, "velocity": 83}, {"time": 2677, "pitch": 53, "duration": 5, "velocity": 95}, {"time": 2683, "pitch": 62, "duration": 7, "velocity": 92}, {"time": 2707, "pitch": 62, "duration": 3, "velocity": 102}, {"time": 2713, "pitch": 60, "duration": 1, "velocity": 96}, {"time": 2716, "pitch": 60, "duration": 6, "velocity": 100}, {"time": 2725, "pitch": 58, "duration": 1, "velocity": 96}, {"time": 2728, "pitch": 58, "duration": 6, "velocity": 100}, {"time": 2734, "pitch": 60, "duration": 7, "velocity": 97}, {"time": 2752, "pitch": 53, "duration": 1, "velocity": 85}, {"time": 2755, "pitch": 53, "duration": 4, "velocity": 89}, {"time": 2761, "pitch": 53, "duration": 4, "velocity": 93}, {"time": 2767, "pitch": 60, "duration": 5, "velocity": 100}, {"time": 2773, "pitch": 63, "duration": 5, "velocity": 97}, {"time": 2779, "pitch": 63, "duration": 8, "velocity": 117}, {"time": 2788, "pitch": 62, "duration": 11, "velocity": 102}, {"time": 2803, "pitch": 62, "duration": 4, "velocity": 107}, {"time": 2809, "pitch": 60, "duration": 1, "velocity": 93}, {"time": 2812, "pitch": 60, "duration": 6, "velocity": 93}, {"time": 2821, "pitch": 58, "duration": 1, "velocity": 92}, {"time": 2824, "pitch": 58, "duration": 6, "velocity": 93}, {"time": 2830, "pitch": 53, "duration": 2, "velocity": 85}, {"time": 2848, "pitch": 53, "duration": 3, "velocity": 78}, {"time": 2851, "pitch": 60, "duration": 4, "velocity": 90}, {"time": 2857, "pitch": 58, "duration": 1, "velocity": 76}, {"time": 2860, "pitch": 58, "duration": 7, "velocity": 82}, {"time": 2869, "pitch": 57, "duration": 2, "velocity": 85}, {"time": 2872, "pitch": 58, "duration": 11, "velocity": 92}, {"time": 2881, "pitch": 57, "duration": 3, "velocity": 88}, {"time": 2884, "pitch": 55, "duration": 36, "velocity": 74}]}, {"program": 0, "is_drum": false, "name": "PIANO", "notes": [{"time": 19, "pitch": 43, "duration": 12, "velocity": 51}, {"time": 19, "pitch": 55, "duration": 12, "velocity": 61}, {"time": 19, "pitch": 58, "duration": 12, "velocity": 62}, {"time": 19, "pitch": 62, "duration": 12, "velocity": 66}, {"time": 43, "pitch": 39, "duration": 12, "velocity": 56}, {"time": 43, "pitch": 51, "duration": 13, "velocity": 51}, {"time": 43, "pitch": 55, "duration": 14, "velocity": 60}, {"time": 43, "pitch": 58, "duration": 13, "velocity": 60}, {"time": 43, "pitch": 63, "duration": 14, "velocity": 59}, {"time": 67, "pitch": 41, "duration": 10, "velocity": 50}, {"time": 67, "pitch": 53, "duration": 11, "velocity": 53}, {"time": 67, "pitch": 57, "duration": 10, "velocity": 58}, {"time": 67, "pitch": 60, "duration": 11, "velocity": 59}, {"time": 91, "pitch": 46, "duration": 15, "velocity": 47}, {"time": 91, "pitch": 53, "duration": 15, "velocity": 49}, {"time": 91, "pitch": 58, "duration": 15, "velocity": 51}, {"time": 91, "pitch": 62, "duration": 16, "velocity": 53}, {"time": 115, "pitch": 43, "duration": 10, "velocity": 63}, {"time": 115, "pitch": 55, "duration": 9, "velocity": 62}, {"time": 115, "pitch": 58, "duration": 8, "velocity": 64}, {"time": 115, "pitch": 62, "duration": 9, "velocity": 63}, {"time": 139, "pitch": 39, "duration": 12, "velocity": 54}, {"time": 139, "pitch": 51, "duration": 11, "velocity": 44}, {"time": 139, "pitch": 55, "duration": 14, "velocity": 57}, {"time": 139, "pitch": 58, "duration": 14, "velocity": 54}, {"time": 139, "pitch": 63, "duration": 14, "velocity": 65}, {"time": 163, "pitch": 41, "duration": 8, "velocity": 47}, {"time": 163, "pitch": 53, "duration": 8, "velocity": 52}, {"time": 163, "pitch": 57, "duration": 8, "velocity": 58}, {"time": 163, "pitch": 60, "duration": 8, "velocity": 60}, {"time": 187, "pitch": 46, "duration": 14, "velocity": 50}, {"time": 187, "pitch": 53, "duration": 17, "velocity": 63}, {"time": 187, "pitch": 58, "duration": 18, "velocity": 63}, {"time": 187, "pitch": 62, "duration": 19, "velocity": 63}, {"time": 211, "pitch": 43, "duration": 15, "velocity": 73}, {"time": 217, "pitch": 50, "duration": 8, "velocity": 59}, {"time": 223, "pitch": 62, "duration": 12, "velocity": 83}, {"time": 229, "pitch": 58, "duration": 7, "velocity": 59}, {"time": 235, "pitch": 39, "duration": 18, "velocity": 65}, {"time": 241, "pitch": 46, "duration": 11, "velocity": 60}, {"time": 247, "pitch": 51, "duration": 6, "velocity": 44}, {"time": 247, "pitch": 63, "duration": 12, "velocity": 89}, {"time": 253, "pitch": 58, "duration": 6, "velocity": 60}, {"time": 259, "pitch": 41, "duration": 13, "velocity": 63}, {"time": 265, "pitch": 48, "duration": 7, "velocity": 68}, {"time": 271, "pitch": 60, "duration": 12, "velocity": 82}, {"time": 277, "pitch": 57, "duration": 6, "velocity": 56}, {"time": 283, "pitch": 46, "duration": 23, "velocity": 79}, {"time": 289, "pitch": 58, "duration": 6, "velocity": 78}, {"time": 295, "pitch": 57, "duration": 8, "velocity": 77}, {"time": 301, "pitch": 58, "duration": 11, "velocity": 75}, {"time": 307, "pitch": 43, "duration": 16, "velocity": 60}, {"time": 313, "pitch": 50, "duration": 7, "velocity": 61}, {"time": 319, "pitch": 62, "duration": 11, "velocity": 81}, {"time": 325, "pitch": 55, "duration": 7, "velocity": 63}, {"time": 331, "pitch": 39, "duration": 14, "velocity": 57}, {"time": 337, "pitch": 46, "duration": 8, "velocity": 56}, {"time": 343, "pitch": 63, "duration": 13, "velocity": 92}, {"time": 349, "pitch": 58, "duration": 7, "velocity": 42}, {"time": 355, "pitch": 41, "duration": 13, "velocity": 63}, {"time": 361, "pitch": 48, "duration": 8, "velocity": 55}, {"time": 367, "pitch": 60, "duration": 12, "velocity": 88}, {"time": 373, "pitch": 57, "duration": 5, "velocity": 55}, {"time": 379, "pitch": 46, "duration": 21, "velocity": 67}, {"time": 385, "pitch": 53, "duration": 7, "velocity": 64}, {"time": 391, "pitch": 62, "duration": 11, "velocity": 85}, {"time": 397, "pitch": 58, "duration": 5, "velocity": 43}, {"time": 403, "pitch": 43, "duration": 18, "velocity": 66}, {"time": 409, "pitch": 50, "duration": 10, "velocity": 59}, {"time": 415, "pitch": 62, "duration": 12, "velocity": 86}, {"time": 421, "pitch": 58, "duration": 6, "velocity": 62}, {"time": 427, "pitch": 39, "duration": 15, "velocity": 72}, {"time": 433, "pitch": 51, "duration": 9, "velocity": 59}, {"time": 439, "pitch": 63, "duration": 13, "velocity": 95}, {"time": 445, "pitch": 58, "duration": 6, "velocity": 40}, {"time": 451, "pitch": 41, "duration": 15, "velocity": 67}, {"time": 457, "pitch": 48, "duration": 11, "velocity": 58}, {"time": 463, "pitch": 60, "duration": 11, "velocity": 77}, {"time": 469, "pitch": 57, "duration": 5, "velocity": 55}, {"time": 475, "pitch": 46, "duration": 11, "velocity": 83}, {"time": 481, "pitch": 53, "duration": 6, "velocity": 69}, {"time": 487, "pitch": 45, "duration": 11, "velocity": 72}, {"time": 493, "pitch": 57, "duration": 6, "velocity": 57}, {"time": 499, "pitch": 43, "duration": 14, "velocity": 67}, {"time": 505, "pitch": 50, "duration": 7, "velocity": 62}, {"time": 511, "pitch": 62, "duration": 9, "velocity": 82}, {"time": 517, "pitch": 55, "duration": 12, "velocity": 71}, {"time": 523, "pitch": 39, "duration": 18, "velocity": 71}, {"time": 529, "pitch": 46, "duration": 12, "velocity": 52}, {"time": 535, "pitch": 51, "duration": 6, "velocity": 44}, {"time": 535, "pitch": 63, "duration": 13, "velocity": 79}, {"time": 541, "pitch": 58, "duration": 6, "velocity": 45}, {"time": 547, "pitch": 41, "duration": 12, "velocity": 60}, {"time": 553, "pitch": 48, "duration": 8, "velocity": 61}, {"time": 559, "pitch": 60, "duration": 11, "velocity": 82}, {"time": 565, "pitch": 57, "duration": 5, "velocity": 67}, {"time": 571, "pitch": 46, "duration": 19, "velocity": 75}, {"time": 577, "pitch": 53, "duration": 8, "velocity": 59}, {"time": 583, "pitch": 62, "duration": 12, "velocity": 85}, {"time": 589, "pitch": 58, "duration": 6, "velocity": 66}, {"time": 595, "pitch": 43, "duration": 13, "velocity": 62}, {"time": 601, "pitch": 50, "duration": 7, "velocity": 58}, {"time": 607, "pitch": 62, "duration": 9, "velocity": 78}, {"time": 613, "pitch": 55, "duration": 6, "velocity": 61}, {"time": 619, "pitch": 39, "duration": 17, "velocity": 56}, {"time": 625, "pitch": 46, "duration": 10, "velocity": 31}, {"time": 631, "pitch": 51, "duration": 5, "velocity": 38}, {"time": 631, "pitch": 63, "duration": 13, "velocity": 85}, {"time": 637, "pitch": 58, "duration": 7, "velocity": 58}, {"time": 643, "pitch": 41, "duration": 13, "velocity": 61}, {"time": 649, "pitch": 48, "duration": 8, "velocity": 59}, {"time": 655, "pitch": 60, "duration": 11, "velocity": 72}, {"time": 661, "pitch": 57, "duration": 5, "velocity": 63}, {"time": 667, "pitch": 46, "duration": 11, "velocity": 83}, {"time": 673, "pitch": 53, "duration": 5, "velocity": 68}, {"time": 679, "pitch": 45, "duration": 12, "velocity": 69}, {"time": 685, "pitch": 57, "duration": 6, "velocity": 58}, {"time": 691, "pitch": 43, "duration": 14, "velocity": 63}, {"time": 697, "pitch": 50, "duration": 7, "velocity": 55}, {"time": 703, "pitch": 62, "duration": 11, "velocity": 78}, {"time": 709, "pitch": 55, "duration": 6, "velocity": 67}, {"time": 715, "pitch": 39, "duration": 17, "velocity": 88}, {"time": 721, "pitch": 46, "duration": 10, "velocity": 58}, {"time": 727, "pitch": 51, "duration": 4, "velocity": 56}, {"time": 727, "pitch": 58, "duration": 12, "velocity": 69}, {"time": 727, "pitch": 63, "duration": 13, "velocity": 66}, {"time": 733, "pitch": 55, "duration": 7, "velocity": 52}, {"time": 739, "pitch": 41, "duration": 47, "velocity": 64}, {"time": 745, "pitch": 48, "duration": 7, "velocity": 56}, {"time": 751, "pitch": 53, "duration": 34, "velocity": 86}, {"time": 757, "pitch": 48, "duration": 28, "velocity": 55}, {"time": 763, "pitch": 57, "duration": 22, "velocity": 62}, {"time": 763, "pitch": 60, "duration": 23, "velocity": 61}, {"time": 787, "pitch": 43, "duration": 17, "velocity": 70}, {"time": 790, "pitch": 50, "duration": 5, "velocity": 72}, {"time": 793, "pitch": 55, "duration": 8, "velocity": 69}, {"time": 796, "pitch": 50, "duration": 3, "velocity": 66}, {"time": 799, "pitch": 62, "duration": 8, "velocity": 85}, {"time": 802, "pitch": 50, "duration": 2, "velocity": 53}, {"time": 805, "pitch": 58, "duration": 4, "velocity": 72}, {"time": 808, "pitch": 55, "duration": 4, "velocity": 63}, {"time": 811, "pitch": 39, "duration": 17, "velocity": 70}, {"time": 814, "pitch": 46, "duration": 13, "velocity": 31}, {"time": 817, "pitch": 51, "duration": 6, "velocity": 68}, {"time": 820, "pitch": 55, "duration": 5, "velocity": 70}, {"time": 823, "pitch": 63, "duration": 11, "velocity": 86}, {"time": 826, "pitch": 51, "duration": 3, "velocity": 64}, {"time": 829, "pitch": 58, "duration": 5, "velocity": 77}, {"time": 832, "pitch": 55, "duration": 3, "velocity": 77}, {"time": 835, "pitch": 41, "duration": 19, "velocity": 67}, {"time": 838, "pitch": 48, "duration": 14, "velocity": 59}, {"time": 841, "pitch": 53, "duration": 7, "velocity": 63}, {"time": 844, "pitch": 57, "duration": 7, "velocity": 74}, {"time": 847, "pitch": 65, "duration": 10, "velocity": 82}, {"time": 850, "pitch": 53, "duration": 4, "velocity": 77}, {"time": 853, "pitch": 60, "duration": 4, "velocity": 77}, {"time": 856, "pitch": 57, "duration": 2, "velocity": 79}, {"time": 859, "pitch": 46, "duration": 11, "velocity": 93}, {"time": 862, "pitch": 50, "duration": 9, "velocity": 70}, {"time": 865, "pitch": 53, "duration": 4, "velocity": 86}, {"time": 868, "pitch": 58, "duration": 4, "velocity": 96}, {"time": 871, "pitch": 45, "duration": 11, "velocity": 76}, {"time": 874, "pitch": 57, "duration": 4, "velocity": 82}, {"time": 877, "pitch": 58, "duration": 4, "velocity": 72}, {"time": 880, "pitch": 62, "duration": 3, "velocity": 83}, {"time": 883, "pitch": 43, "duration": 17, "velocity": 72}, {"time": 886, "pitch": 50, "duration": 9, "velocity": 61}, {"time": 889, "pitch": 55, "duration": 3, "velocity": 78}, {"time": 892, "pitch": 58, "duration": 3, "velocity": 64}, {"time": 895, "pitch": 62, "duration": 11, "velocity": 72}, {"time": 898, "pitch": 50, "duration": 1, "velocity": 56}, {"time": 901, "pitch": 58, "duration": 5, "velocity": 82}, {"time": 904, "pitch": 55, "duration": 3, "velocity": 73}, {"time": 907, "pitch": 39, "duration": 16, "velocity": 82}, {"time": 910, "pitch": 46, "duration": 13, "velocity": 56}, {"time": 913, "pitch": 51, "duration": 6, "velocity": 82}, {"time": 916, "pitch": 55, "duration": 6, "velocity": 67}, {"time": 919, "pitch": 63, "duration": 10, "velocity": 93}, {"time": 922, "pitch": 51, "duration": 3, "velocity": 73}, {"time": 925, "pitch": 58, "duration": 5, "velocity": 79}, {"time": 928, "pitch": 55, "duration": 2, "velocity": 69}, {"time": 931, "pitch": 41, "duration": 17, "velocity": 56}, {"time": 934, "pitch": 48, "duration": 13, "velocity": 45}, {"time": 937, "pitch": 53, "duration": 5, "velocity": 69}, {"time": 940, "pitch": 57, "duration": 3, "velocity": 73}, {"time": 943, "pitch": 60, "duration": 6, "velocity": 86}, {"time": 946, "pitch": 53, "duration": 4, "velocity": 79}, {"time": 949, "pitch": 57, "duration": 4, "velocity": 73}, {"time": 952, "pitch": 60, "duration": 2, "velocity": 76}, {"time": 955, "pitch": 46, "duration": 11, "velocity": 97}, {"time": 958, "pitch": 50, "duration": 9, "velocity": 56}, {"time": 961, "pitch": 53, "duration": 5, "velocity": 82}, {"time": 964, "pitch": 58, "duration": 4, "velocity": 93}, {"time": 967, "pitch": 45, "duration": 11, "velocity": 72}, {"time": 970, "pitch": 57, "duration": 6, "velocity": 71}, {"time": 973, "pitch": 58, "duration": 5, "velocity": 83}, {"time": 976, "pitch": 62, "duration": 2, "velocity": 65}, {"time": 979, "pitch": 43, "duration": 17, "velocity": 75}, {"time": 982, "pitch": 50, "duration": 9, "velocity": 56}, {"time": 985, "pitch": 55, "duration": 3, "velocity": 88}, {"time": 988, "pitch": 58, "duration": 4, "velocity": 74}, {"time": 991, "pitch": 62, "duration": 9, "velocity": 82}, {"time": 994, "pitch": 50, "duration": 1, "velocity": 65}, {"time": 997, "pitch": 58, "duration": 5, "velocity": 89}, {"time": 1000, "pitch": 55, "duration": 4, "velocity": 67}, {"time": 1003, "pitch": 39, "duration": 16, "velocity": 89}, {"time": 1006, "pitch": 46, "duration": 13, "velocity": 43}, {"time": 1009, "pitch": 51, "duration": 6, "velocity": 88}, {"time": 1012, "pitch": 55, "duration": 5, "velocity": 69}, {"time": 1015, "pitch": 63, "duration": 11, "velocity": 97}, {"time": 1018, "pitch": 51, "duration": 2, "velocity": 82}, {"time": 1021, "pitch": 58, "duration": 5, "velocity": 71}, {"time": 1024, "pitch": 55, "duration": 3, "velocity": 76}, {"time": 1027, "pitch": 41, "duration": 19, "velocity": 72}, {"time": 1030, "pitch": 48, "duration": 15, "velocity": 62}, {"time": 1033, "pitch": 53, "duration": 6, "velocity": 76}, {"time": 1036, "pitch": 57, "duration": 5, "velocity": 68}, {"time": 1039, "pitch": 65, "duration": 9, "velocity": 85}, {"time": 1042, "pitch": 53, "duration": 4, "velocity": 85}, {"time": 1045, "pitch": 60, "duration": 4, "velocity": 76}, {"time": 1048, "pitch": 57, "duration": 2, "velocity": 81}, {"time": 1051, "pitch": 46, "duration": 11, "velocity": 92}, {"time": 1054, "pitch": 53, "duration": 7, "velocity": 73}, {"time": 1057, "pitch": 62, "duration": 7, "velocity": 86}, {"time": 1060, "pitch": 58, "duration": 5, "velocity": 86}, {"time": 1063, "pitch": 45, "duration": 11, "velocity": 56}, {"time": 1066, "pitch": 57, "duration": 6, "velocity": 60}, {"time": 1069, "pitch": 62, "duration": 5, "velocity": 76}, {"time": 1072, "pitch": 58, "duration": 3, "velocity": 75}, {"time": 1075, "pitch": 43, "duration": 17, "velocity": 69}, {"time": 1078, "pitch": 50, "duration": 9, "velocity": 45}, {"time": 1081, "pitch": 55, "duration": 4, "velocity": 64}, {"time": 1084, "pitch": 58, "duration": 3, "velocity": 70}, {"time": 1087, "pitch": 62, "duration": 9, "velocity": 76}, {"time": 1090, "pitch": 50, "duration": 2, "velocity": 46}, {"time": 1093, "pitch": 58, "duration": 4, "velocity": 71}, {"time": 1096, "pitch": 55, "duration": 4, "velocity": 73}, {"time": 1099, "pitch": 39, "duration": 17, "velocity": 72}, {"time": 1102, "pitch": 46, "duration": 13, "velocity": 35}, {"time": 1105, "pitch": 51, "duration": 6, "velocity": 75}, {"time": 1108, "pitch": 55, "duration": 6, "velocity": 70}, {"time": 1111, "pitch": 63, "duration": 11, "velocity": 95}, {"time": 1114, "pitch": 51, "duration": 3, "velocity": 70}, {"time": 1117, "pitch": 58, "duration": 4, "velocity": 90}, {"time": 1120, "pitch": 55, "duration": 2, "velocity": 73}, {"time": 1123, "pitch": 41, "duration": 19, "velocity": 63}, {"time": 1126, "pitch": 48, "duration": 14, "velocity": 47}, {"time": 1129, "pitch": 53, "duration": 6, "velocity": 75}, {"time": 1132, "pitch": 57, "duration": 6, "velocity": 62}, {"time": 1135, "pitch": 65, "duration": 10, "velocity": 82}, {"time": 1138, "pitch": 53, "duration": 6, "velocity": 83}, {"time": 1141, "pitch": 60, "duration": 5, "velocity": 68}, {"time": 1144, "pitch": 57, "duration": 2, "velocity": 76}, {"time": 1147, "pitch": 46, "duration": 23, "velocity": 83}, {"time": 1150, "pitch": 50, "duration": 19, "velocity": 59}, {"time": 1153, "pitch": 53, "duration": 7, "velocity": 66}, {"time": 1156, "pitch": 58, "duration": 3, "velocity": 73}, {"time": 1159, "pitch": 65, "duration": 8, "velocity": 76}, {"time": 1162, "pitch": 53, "duration": 7, "velocity": 77}, {"time": 1165, "pitch": 58, "duration": 4, "velocity": 77}, {"time": 1168, "pitch": 62, "duration": 3, "velocity": 72}, {"time": 1171, "pitch": 43, "duration": 13, "velocity": 72}, {"time": 1171, "pitch": 79, "duration": 3, "velocity": 63}, {"time": 1174, "pitch": 81, "duration": 4, "velocity": 56}, {"time": 1177, "pitch": 50, "duration": 7, "velocity": 55}, {"time": 1177, "pitch": 79, "duration": 3, "velocity": 56}, {"time": 1180, "pitch": 82, "duration": 6, "velocity": 86}, {"time": 1183, "pitch": 55, "duration": 13, "velocity": 41}, {"time": 1183, "pitch": 58, "duration": 13, "velocity": 63}, {"time": 1183, "pitch": 62, "duration": 12, "velocity": 62}, {"time": 1186, "pitch": 79, "duration": 4, "velocity": 51}, {"time": 1189, "pitch": 81, "duration": 3, "velocity": 58}, {"time": 1192, "pitch": 82, "duration": 3, "velocity": 81}, {"time": 1195, "pitch": 39, "duration": 16, "velocity": 62}, {"time": 1195, "pitch": 75, "duration": 4, "velocity": 74}, {"time": 1198, "pitch": 79, "duration": 4, "velocity": 53}, {"time": 1201, "pitch": 46, "duration": 8, "velocity": 40}, {"time": 1201, "pitch": 75, "duration": 4, "velocity": 56}, {"time": 1204, "pitch": 82, "duration": 6, "velocity": 52}, {"time": 1207, "pitch": 51, "duration": 4, "velocity": 55}, {"time": 1207, "pitch": 58, "duration": 13, "velocity": 65}, {"time": 1207, "pitch": 63, "duration": 13, "velocity": 59}, {"time": 1210, "pitch": 79, "duration": 6, "velocity": 67}, {"time": 1219, "pitch": 41, "duration": 13, "velocity": 68}, {"time": 1219, "pitch": 81, "duration": 3, "velocity": 55}, {"time": 1222, "pitch": 77, "duration": 4, "velocity": 41}, {"time": 1225, "pitch": 48, "duration": 8, "velocity": 66}, {"time": 1225, "pitch": 81, "duration": 3, "velocity": 42}, {"time": 1228, "pitch": 84, "duration": 6, "velocity": 63}, {"time": 1231, "pitch": 57, "duration": 12, "velocity": 66}, {"time": 1231, "pitch": 60, "duration": 12, "velocity": 64}, {"time": 1234, "pitch": 81, "duration": 5, "velocity": 49}, {"time": 1237, "pitch": 53, "duration": 7, "velocity": 65}, {"time": 1243, "pitch": 46, "duration": 21, "velocity": 93}, {"time": 1243, "pitch": 82, "duration": 4, "velocity": 79}, {"time": 1246, "pitch": 77, "duration": 5, "velocity": 45}, {"time": 1249, "pitch": 53, "duration": 7, "velocity": 66}, {"time": 1249, "pitch": 82, "duration": 3, "velocity": 60}, {"time": 1252, "pitch": 86, "duration": 5, "velocity": 67}, {"time": 1255, "pitch": 58, "duration": 13, "velocity": 75}, {"time": 1255, "pitch": 62, "duration": 13, "velocity": 78}, {"time": 1258, "pitch": 84, "duration": 6, "velocity": 58}, {"time": 1261, "pitch": 57, "duration": 7, "velocity": 83}, {"time": 1264, "pitch": 82, "duration": 3, "velocity": 75}, {"time": 1267, "pitch": 43, "duration": 13, "velocity": 72}, {"time": 1267, "pitch": 79, "duration": 3, "velocity": 63}, {"time": 1270, "pitch": 81, "duration": 4, "velocity": 56}, {"time": 1273, "pitch": 50, "duration": 7, "velocity": 55}, {"time": 1273, "pitch": 79, "duration": 3, "velocity": 56}, {"time": 1276, "pitch": 82, "duration": 6, "velocity": 86}, {"time": 1279, "pitch": 55, "duration": 13, "velocity": 41}, {"time": 1279, "pitch": 58, "duration": 13, "velocity": 63}, {"time": 1279, "pitch": 62, "duration": 12, "velocity": 62}, {"time": 1282, "pitch": 79, "duration": 4, "velocity": 51}, {"time": 1285, "pitch": 81, "duration": 3, "velocity": 58}, {"time": 1288, "pitch": 82, "duration": 3, "velocity": 81}, {"time": 1291, "pitch": 39, "duration": 16, "velocity": 62}, {"time": 1291, "pitch": 75, "duration": 4, "velocity": 74}, {"time": 1294, "pitch": 79, "duration": 4, "velocity": 53}, {"time": 1297, "pitch": 46, "duration": 8, "velocity": 40}, {"time": 1297, "pitch": 75, "duration": 4, "velocity": 56}, {"time": 1300, "pitch": 82, "duration": 6, "velocity": 52}, {"time": 1303, "pitch": 51, "duration": 4, "velocity": 55}, {"time": 1303, "pitch": 58, "duration": 13, "velocity": 65}, {"time": 1303, "pitch": 63, "duration": 13, "velocity": 59}, {"time": 1306, "pitch": 79, "duration": 6, "velocity": 67}, {"time": 1315, "pitch": 41, "duration": 13, "velocity": 68}, {"time": 1315, "pitch": 81, "duration": 3, "velocity": 55}, {"time": 1318, "pitch": 77, "duration": 4, "velocity": 41}, {"time": 1321, "pitch": 48, "duration": 8, "velocity": 66}, {"time": 1321, "pitch": 81, "duration": 3, "velocity": 42}, {"time": 1324, "pitch": 84, "duration": 6, "velocity": 63}, {"time": 1327, "pitch": 57, "duration": 12, "velocity": 66}, {"time": 1327, "pitch": 60, "duration": 12, "velocity": 64}, {"time": 1330, "pitch": 81, "duration": 5, "velocity": 49}, {"time": 1333, "pitch": 53, "duration": 7, "velocity": 65}, {"time": 1339, "pitch": 46, "duration": 21, "velocity": 93}, {"time": 1339, "pitch": 82, "duration": 4, "velocity": 79}, {"time": 1342, "pitch": 77, "duration": 5, "velocity": 45}, {"time": 1345, "pitch": 53, "duration": 7, "velocity": 66}, {"time": 1345, "pitch": 82, "duration": 3, "velocity": 60}, {"time": 1348, "pitch": 86, "duration": 5, "velocity": 67}, {"time": 1351, "pitch": 58, "duration": 13, "velocity": 75}, {"time": 1351, "pitch": 62, "duration": 13, "velocity": 78}, {"time": 1354, "pitch": 84, "duration": 6, "velocity": 58}, {"time": 1357, "pitch": 55, "duration": 7, "velocity": 83}, {"time": 1360, "pitch": 82, "duration": 3, "velocity": 75}, {"time": 1363, "pitch": 43, "duration": 18, "velocity": 66}, {"time": 1369, "pitch": 50, "duration": 10, "velocity": 59}, {"time": 1375, "pitch": 62, "duration": 12, "velocity": 86}, {"time": 1381, "pitch": 58, "duration": 6, "velocity": 62}, {"time": 1387, "pitch": 39, "duration": 15, "velocity": 72}, {"time": 1393, "pitch": 51, "duration": 9, "velocity": 59}, {"time": 1399, "pitch": 63, "duration": 13, "velocity": 95}, {"time": 1405, "pitch": 58, "duration": 6, "velocity": 40}, {"time": 1411, "pitch": 41, "duration": 15, "velocity": 67}, {"time": 1417, "pitch": 48, "duration": 11, "velocity": 58}, {"time": 1423, "pitch": 60, "duration": 11, "velocity": 77}, {"time": 1429, "pitch": 57, "duration": 5, "velocity": 55}, {"time": 1435, "pitch": 46, "duration": 11, "velocity": 83}, {"time": 1441, "pitch": 53, "duration": 6, "velocity": 69}, {"time": 1447, "pitch": 45, "duration": 11, "velocity": 72}, {"time": 1453, "pitch": 57, "duration": 6, "velocity": 57}, {"time": 1459, "pitch": 43, "duration": 14, "velocity": 67}, {"time": 1465, "pitch": 50, "duration": 7, "velocity": 62}, {"time": 1471, "pitch": 62, "duration": 9, "velocity": 82}, {"time": 1477, "pitch": 55, "duration": 12, "velocity": 71}, {"time": 1483, "pitch": 39, "duration": 18, "velocity": 71}, {"time": 1489, "pitch": 46, "duration": 12, "velocity": 52}, {"time": 1495, "pitch": 51, "duration": 6, "velocity": 44}, {"time": 1495, "pitch": 63, "duration": 13, "velocity": 79}, {"time": 1501, "pitch": 58, "duration": 6, "velocity": 45}, {"time": 1507, "pitch": 41, "duration": 12, "velocity": 60}, {"time": 1513, "pitch": 48, "duration": 8, "velocity": 61}, {"time": 1519, "pitch": 60, "duration": 11, "velocity": 82}, {"time": 1525, "pitch": 57, "duration": 5, "velocity": 67}, {"time": 1531, "pitch": 46, "duration": 19, "velocity": 75}, {"time": 1537, "pitch": 53, "duration": 8, "velocity": 59}, {"time": 1543, "pitch": 62, "duration": 12, "velocity": 85}, {"time": 1549, "pitch": 58, "duration": 6, "velocity": 66}, {"time": 1555, "pitch": 43, "duration": 13, "velocity": 62}, {"time": 1561, "pitch": 50, "duration": 7, "velocity": 58}, {"time": 1567, "pitch": 62, "duration": 9, "velocity": 78}, {"time": 1573, "pitch": 55, "duration": 6, "velocity": 61}, {"time": 1579, "pitch": 39, "duration": 17, "velocity": 56}, {"time": 1585, "pitch": 46, "duration": 10, "velocity": 31}, {"time": 1591, "pitch": 51, "duration": 5, "velocity": 38}, {"time": 1591, "pitch": 63, "duration": 13, "velocity": 85}, {"time": 1597, "pitch": 58, "duration": 7, "velocity": 58}, {"time": 1603, "pitch": 41, "duration": 13, "velocity": 61}, {"time": 1609, "pitch": 48, "duration": 8, "velocity": 59}, {"time": 1615, "pitch": 60, "duration": 11, "velocity": 72}, {"time": 1621, "pitch": 57, "duration": 5, "velocity": 63}, {"time": 1627, "pitch": 46, "duration": 11, "velocity": 83}, {"time": 1633, "pitch": 53, "duration": 5, "velocity": 68}, {"time": 1639, "pitch": 45, "duration": 12, "velocity": 69}, {"time": 1645, "pitch": 57, "duration": 6, "velocity": 58}, {"time": 1651, "pitch": 43, "duration": 14, "velocity": 63}, {"time": 1657, "pitch": 50, "duration": 7, "velocity": 55}, {"time": 1663, "pitch": 62, "duration": 11, "velocity": 78}, {"time": 1669, "pitch": 55, "duration": 6, "velocity": 67}, {"time": 1675, "pitch": 39, "duration": 17, "velocity": 88}, {"time": 1681, "pitch": 46, "duration": 10, "velocity": 58}, {"time": 1687, "pitch": 51, "duration": 4, "velocity": 56}, {"time": 1687, "pitch": 58, "duration": 12, "velocity": 69}, {"time": 1687, "pitch": 63, "duration": 13, "velocity": 66}, {"time": 1693, "pitch": 55, "duration": 7, "velocity": 52}, {"time": 1699, "pitch": 41, "duration": 47, "velocity": 64}, {"time": 1705, "pitch": 48, "duration": 7, "velocity": 56}, {"time": 1711, "pitch": 53, "duration": 34, "velocity": 86}, {"time": 1717, "pitch": 48, "duration": 28, "velocity": 55}, {"time": 1723, "pitch": 57, "duration": 22, "velocity": 62}, {"time": 1723, "pitch": 60, "duration": 23, "velocity": 61}, {"time": 1747, "pitch": 43, "duration": 17, "velocity": 70}, {"time": 1750, "pitch": 50, "duration": 5, "velocity": 72}, {"time": 1753, "pitch": 55, "duration": 8, "velocity": 69}, {"time": 1756, "pitch": 50, "duration": 3, "velocity": 66}, {"time": 1759, "pitch": 62, "duration": 8, "velocity": 85}, {"time": 1762, "pitch": 50, "duration": 2, "velocity": 53}, {"time": 1765, "pitch": 58, "duration": 4, "velocity": 72}, {"time": 1768, "pitch": 55, "duration": 4, "velocity": 63}, {"time": 1771, "pitch": 39, "duration": 17, "velocity": 70}, {"time": 1774, "pitch": 46, "duration": 13, "velocity": 31}, {"time": 1777, "pitch": 51, "duration": 6, "velocity": 68}, {"time": 1780, "pitch": 55, "duration": 5, "velocity": 70}, {"time": 1783, "pitch": 63, "duration": 11, "velocity": 86}, {"time": 1786, "pitch": 51, "duration": 3, "velocity": 64}, {"time": 1789, "pitch": 58, "duration": 5, "velocity": 77}, {"time": 1792, "pitch": 55, "duration": 3, "velocity": 77}, {"time": 1795, "pitch": 41, "duration": 19, "velocity": 67}, {"time": 1798, "pitch": 48, "duration": 14, "velocity": 59}, {"time": 1801, "pitch": 53, "duration": 7, "velocity": 63}, {"time": 1804, "pitch": 57, "duration": 7, "velocity": 74}, {"time": 1807, "pitch": 65, "duration": 10, "velocity": 82}, {"time": 1810, "pitch": 53, "duration": 4, "velocity": 77}, {"time": 1813, "pitch": 60, "duration": 4, "velocity": 77}, {"time": 1816, "pitch": 57, "duration": 2, "velocity": 79}, {"time": 1819, "pitch": 46, "duration": 11, "velocity": 93}, {"time": 1822, "pitch": 50, "duration": 9, "velocity": 70}, {"time": 1825, "pitch": 53, "duration": 4, "velocity": 86}, {"time": 1828, "pitch": 58, "duration": 4, "velocity": 96}, {"time": 1831, "pitch": 45, "duration": 11, "velocity": 76}, {"time": 1834, "pitch": 57, "duration": 4, "velocity": 82}, {"time": 1837, "pitch": 58, "duration": 4, "velocity": 72}, {"time": 1840, "pitch": 62, "duration": 3, "velocity": 83}, {"time": 1843, "pitch": 43, "duration": 17, "velocity": 72}, {"time": 1846, "pitch": 50, "duration": 9, "velocity": 61}, {"time": 1849, "pitch": 55, "duration": 3, "velocity": 78}, {"time": 1852, "pitch": 58, "duration": 3, "velocity": 64}, {"time": 1855, "pitch": 62, "duration": 11, "velocity": 72}, {"time": 1858, "pitch": 50, "duration": 1, "velocity": 56}, {"time": 1861, "pitch": 58, "duration": 5, "velocity": 82}, {"time": 1864, "pitch": 55, "duration": 3, "velocity": 73}, {"time": 1867, "pitch": 39, "duration": 16, "velocity": 82}, {"time": 1870, "pitch": 46, "duration": 13, "velocity": 56}, {"time": 1873, "pitch": 51, "duration": 6, "velocity": 82}, {"time": 1876, "pitch": 55, "duration": 6, "velocity": 67}, {"time": 1879, "pitch": 63, "duration": 10, "velocity": 93}, {"time": 1882, "pitch": 51, "duration": 3, "velocity": 73}, {"time": 1885, "pitch": 58, "duration": 5, "velocity": 79}, {"time": 1888, "pitch": 55, "duration": 2, "velocity": 69}, {"time": 1891, "pitch": 41, "duration": 17, "velocity": 56}, {"time": 1894, "pitch": 48, "duration": 13, "velocity": 45}, {"time": 1897, "pitch": 53, "duration": 5, "velocity": 69}, {"time": 1900, "pitch": 57, "duration": 3, "velocity": 73}, {"time": 1903, "pitch": 60, "duration": 6, "velocity": 86}, {"time": 1906, "pitch": 53, "duration": 4, "velocity": 79}, {"time": 1909, "pitch": 57, "duration": 4, "velocity": 73}, {"time": 1912, "pitch": 60, "duration": 2, "velocity": 76}, {"time": 1915, "pitch": 46, "duration": 11, "velocity": 97}, {"time": 1918, "pitch": 50, "duration": 9, "velocity": 56}, {"time": 1921, "pitch": 53, "duration": 5, "velocity": 82}, {"time": 1924, "pitch": 58, "duration": 4, "velocity": 93}, {"time": 1927, "pitch": 45, "duration": 11, "velocity": 72}, {"time": 1930, "pitch": 57, "duration": 6, "velocity": 71}, {"time": 1933, "pitch": 58, "duration": 5, "velocity": 83}, {"time": 1936, "pitch": 62, "duration": 2, "velocity": 65}, {"time": 1939, "pitch": 43, "duration": 17, "velocity": 75}, {"time": 1942, "pitch": 50, "duration": 9, "velocity": 56}, {"time": 1945, "pitch": 55, "duration": 3, "velocity": 88}, {"time": 1948, "pitch": 58, "duration": 4, "velocity": 74}, {"time": 1951, "pitch": 62, "duration": 9, "velocity": 82}, {"time": 1954, "pitch": 50, "duration": 1, "velocity": 65}, {"time": 1957, "pitch": 58, "duration": 5, "velocity": 89}, {"time": 1960, "pitch": 55, "duration": 4, "velocity": 67}, {"time": 1963, "pitch": 39, "duration": 16, "velocity": 89}, {"time": 1966, "pitch": 46, "duration": 13, "velocity": 43}, {"time": 1969, "pitch": 51, "duration": 6, "velocity": 88}, {"time": 1972, "pitch": 55, "duration": 5, "velocity": 69}, {"time": 1975, "pitch": 63, "duration": 11, "velocity": 97}, {"time": 1978, "pitch": 51, "duration": 2, "velocity": 82}, {"time": 1981, "pitch": 58, "duration": 5, "velocity": 71}, {"time": 1984, "pitch": 55, "duration": 3, "velocity": 76}, {"time": 1987, "pitch": 41, "duration": 19, "velocity": 72}, {"time": 1990, "pitch": 48, "duration": 15, "velocity": 62}, {"time": 1993, "pitch": 53, "duration": 6, "velocity": 76}, {"time": 1996, "pitch": 57, "duration": 5, "velocity": 68}, {"time": 1999, "pitch": 65, "duration": 9, "velocity": 85}, {"time": 2002, "pitch": 53, "duration": 4, "velocity": 85}, {"time": 2005, "pitch": 60, "duration": 4, "velocity": 76}, {"time": 2008, "pitch": 57, "duration": 2, "velocity": 81}, {"time": 2011, "pitch": 46, "duration": 11, "velocity": 92}, {"time": 2014, "pitch": 53, "duration": 7, "velocity": 73}, {"time": 2017, "pitch": 62, "duration": 7, "velocity": 86}, {"time": 2020, "pitch": 58, "duration": 5, "velocity": 86}, {"time": 2023, "pitch": 45, "duration": 11, "velocity": 56}, {"time": 2026, "pitch": 57, "duration": 6, "velocity": 60}, {"time": 2029, "pitch": 62, "duration": 5, "velocity": 76}, {"time": 2032, "pitch": 58, "duration": 3, "velocity": 75}, {"time": 2035, "pitch": 43, "duration": 17, "velocity": 69}, {"time": 2038, "pitch": 50, "duration": 9, "velocity": 45}, {"time": 2041, "pitch": 55, "duration": 4, "velocity": 64}, {"time": 2044, "pitch": 58, "duration": 3, "velocity": 70}, {"time": 2047, "pitch": 62, "duration": 9, "velocity": 76}, {"time": 2050, "pitch": 50, "duration": 2, "velocity": 46}, {"time": 2053, "pitch": 58, "duration": 4, "velocity": 71}, {"time": 2056, "pitch": 55, "duration": 4, "velocity": 73}, {"time": 2059, "pitch": 39, "duration": 17, "velocity": 72}, {"time": 2062, "pitch": 46, "duration": 13, "velocity": 35}, {"time": 2065, "pitch": 51, "duration": 6, "velocity": 75}, {"time": 2068, "pitch": 55, "duration": 6, "velocity": 70}, {"time": 2071, "pitch": 63, "duration": 11, "velocity": 95}, {"time": 2074, "pitch": 51, "duration": 3, "velocity": 70}, {"time": 2077, "pitch": 58, "duration": 4, "velocity": 90}, {"time": 2080, "pitch": 55, "duration": 2, "velocity": 73}, {"time": 2083, "pitch": 41, "duration": 19, "velocity": 63}, {"time": 2086, "pitch": 48, "duration": 14, "velocity": 47}, {"time": 2089, "pitch": 53, "duration": 6, "velocity": 75}, {"time": 2092, "pitch": 57, "duration": 6, "velocity": 62}, {"time": 2095, "pitch": 65, "duration": 10, "velocity": 82}, {"time": 2098, "pitch": 53, "duration": 6, "velocity": 83}, {"time": 2101, "pitch": 60, "duration": 5, "velocity": 68}, {"time": 2104, "pitch": 57, "duration": 2, "velocity": 76}, {"time": 2107, "pitch": 46, "duration": 23, "velocity": 83}, {"time": 2110, "pitch": 50, "duration": 19, "velocity": 59}, {"time": 2113, "pitch": 53, "duration": 7, "velocity": 66}, {"time": 2116, "pitch": 58, "duration": 3, "velocity": 73}, {"time": 2119, "pitch": 65, "duration": 8, "velocity": 76}, {"time": 2122, "pitch": 53, "duration": 7, "velocity": 77}, {"time": 2125, "pitch": 58, "duration": 4, "velocity": 77}, {"time": 2128, "pitch": 62, "duration": 3, "velocity": 72}, {"time": 2131, "pitch": 43, "duration": 18, "velocity": 70}, {"time": 2134, "pitch": 50, "duration": 5, "velocity": 72}, {"time": 2137, "pitch": 55, "duration": 8, "velocity": 69}, {"time": 2140, "pitch": 50, "duration": 4, "velocity": 66}, {"time": 2143, "pitch": 62, "duration": 9, "velocity": 85}, {"time": 2146, "pitch": 50, "duration": 2, "velocity": 53}, {"time": 2149, "pitch": 58, "duration": 5, "velocity": 72}, {"time": 2152, "pitch": 55, "duration": 5, "velocity": 63}, {"time": 2155, "pitch": 39, "duration": 17, "velocity": 70}, {"time": 2158, "pitch": 46, "duration": 13, "velocity": 31}, {"time": 2161, "pitch": 51, "duration": 6, "velocity": 68}, {"time": 2164, "pitch": 55, "duration": 5, "velocity": 70}, {"time": 2167, "pitch": 63, "duration": 11, "velocity": 86}, {"time": 2170, "pitch": 51, "duration": 3, "velocity": 64}, {"time": 2173, "pitch": 58, "duration": 5, "velocity": 77}, {"time": 2176, "pitch": 55, "duration": 3, "velocity": 77}, {"time": 2179, "pitch": 41, "duration": 19, "velocity": 67}, {"time": 2182, "pitch": 48, "duration": 15, "velocity": 59}, {"time": 2185, "pitch": 53, "duration": 7, "velocity": 63}, {"time": 2188, "pitch": 57, "duration": 7, "velocity": 74}, {"time": 2191, "pitch": 65, "duration": 11, "velocity": 82}, {"time": 2194, "pitch": 53, "duration": 5, "velocity": 77}, {"time": 2197, "pitch": 60, "duration": 5, "velocity": 77}, {"time": 2200, "pitch": 57, "duration": 2, "velocity": 79}, {"time": 2203, "pitch": 46, "duration": 11, "velocity": 93}, {"time": 2206, "pitch": 50, "duration": 9, "velocity": 70}, {"time": 2209, "pitch": 53, "duration": 5, "velocity": 86}, {"time": 2212, "pitch": 58, "duration": 5, "velocity": 96}, {"time": 2215, "pitch": 45, "duration": 12, "velocity": 76}, {"time": 2218, "pitch": 57, "duration": 5, "velocity": 82}, {"time": 2221, "pitch": 58, "duration": 4, "velocity": 72}, {"time": 2224, "pitch": 62, "duration": 4, "velocity": 83}, {"time": 2227, "pitch": 43, "duration": 17, "velocity": 72}, {"time": 2230, "pitch": 50, "duration": 10, "velocity": 61}, {"time": 2233, "pitch": 55, "duration": 3, "velocity": 78}, {"time": 2236, "pitch": 58, "duration": 4, "velocity": 64}, {"time": 2239, "pitch": 62, "duration": 11, "velocity": 72}, {"time": 2242, "pitch": 50, "duration": 2, "velocity": 56}, {"time": 2245, "pitch": 58, "duration": 6, "velocity": 82}, {"time": 2248, "pitch": 55, "duration": 4, "velocity": 73}, {"time": 2251, "pitch": 39, "duration": 16, "velocity": 82}, {"time": 2254, "pitch": 46, "duration": 13, "velocity": 56}, {"time": 2257, "pitch": 51, "duration": 7, "velocity": 82}, {"time": 2260, "pitch": 55, "duration": 6, "velocity": 67}, {"time": 2263, "pitch": 63, "duration": 10, "velocity": 93}, {"time": 2266, "pitch": 51, "duration": 3, "velocity": 73}, {"time": 2269, "pitch": 58, "duration": 5, "velocity": 79}, {"time": 2272, "pitch": 55, "duration": 3, "velocity": 69}, {"time": 2275, "pitch": 41, "duration": 17, "velocity": 56}, {"time": 2278, "pitch": 48, "duration": 14, "velocity": 45}, {"time": 2281, "pitch": 53, "duration": 6, "velocity": 69}, {"time": 2284, "pitch": 57, "duration": 4, "velocity": 73}, {"time": 2287, "pitch": 60, "duration": 6, "velocity": 86}, {"time": 2290, "pitch": 53, "duration": 4, "velocity": 79}, {"time": 2293, "pitch": 57, "duration": 5, "velocity": 73}, {"time": 2296, "pitch": 60, "duration": 2, "velocity": 76}, {"time": 2299, "pitch": 46, "duration": 12, "velocity": 97}, {"time": 2302, "pitch": 50, "duration": 9, "velocity": 56}, {"time": 2305, "pitch": 53, "duration": 5, "velocity": 82}, {"time": 2308, "pitch": 58, "duration": 5, "velocity": 93}, {"time": 2311, "pitch": 45, "duration": 11, "velocity": 72}, {"time": 2314, "pitch": 57, "duration": 6, "velocity": 71}, {"time": 2317, "pitch": 58, "duration": 6, "velocity": 83}, {"time": 2320, "pitch": 62, "duration": 3, "velocity": 65}, {"time": 2323, "pitch": 43, "duration": 18, "velocity": 75}, {"time": 2326, "pitch": 50, "duration": 10, "velocity": 56}, {"time": 2329, "pitch": 55, "duration": 4, "velocity": 88}, {"time": 2332, "pitch": 58, "duration": 4, "velocity": 74}, {"time": 2335, "pitch": 62, "duration": 9, "velocity": 82}, {"time": 2338, "pitch": 50, "duration": 2, "velocity": 65}, {"time": 2341, "pitch": 58, "duration": 6, "velocity": 89}, {"time": 2344, "pitch": 55, "duration": 4, "velocity": 67}, {"time": 2347, "pitch": 39, "duration": 17, "velocity": 89}, {"time": 2350, "pitch": 46, "duration": 13, "velocity": 43}, {"time": 2353, "pitch": 51, "duration": 6, "velocity": 88}, {"time": 2356, "pitch": 55, "duration": 5, "velocity": 69}, {"time": 2359, "pitch": 63, "duration": 11, "velocity": 97}, {"time": 2362, "pitch": 51, "duration": 3, "velocity": 82}, {"time": 2365, "pitch": 58, "duration": 5, "velocity": 71}, {"time": 2368, "pitch": 55, "duration": 3, "velocity": 76}, {"time": 2371, "pitch": 41, "duration": 19, "velocity": 72}, {"time": 2374, "pitch": 48, "duration": 15, "velocity": 62}, {"time": 2377, "pitch": 53, "duration": 7, "velocity": 76}, {"time": 2380, "pitch": 57, "duration": 5, "velocity": 68}, {"time": 2383, "pitch": 65, "duration": 10, "velocity": 85}, {"time": 2386, "pitch": 53, "duration": 4, "velocity": 85}, {"time": 2389, "pitch": 60, "duration": 5, "velocity": 76}, {"time": 2392, "pitch": 57, "duration": 3, "velocity": 81}, {"time": 2395, "pitch": 46, "duration": 11, "velocity": 92}, {"time": 2398, "pitch": 53, "duration": 7, "velocity": 73}, {"time": 2401, "pitch": 62, "duration": 8, "velocity": 86}, {"time": 2404, "pitch": 58, "duration": 5, "velocity": 86}, {"time": 2407, "pitch": 45, "duration": 11, "velocity": 56}, {"time": 2410, "pitch": 57, "duration": 7, "velocity": 60}, {"time": 2413, "pitch": 62, "duration": 5, "velocity": 76}, {"time": 2416, "pitch": 58, "duration": 3, "velocity": 75}, {"time": 2419, "pitch": 43, "duration": 18, "velocity": 69}, {"time": 2422, "pitch": 50, "duration": 10, "velocity": 45}, {"time": 2425, "pitch": 55, "duration": 4, "velocity": 64}, {"time": 2428, "pitch": 58, "duration": 3, "velocity": 70}, {"time": 2431, "pitch": 62, "duration": 9, "velocity": 76}, {"time": 2434, "pitch": 50, "duration": 2, "velocity": 46}, {"time": 2437, "pitch": 58, "duration": 5, "velocity": 71}, {"time": 2440, "pitch": 55, "duration": 4, "velocity": 73}, {"time": 2443, "pitch": 39, "duration": 17, "velocity": 72}, {"time": 2446, "pitch": 46, "duration": 13, "velocity": 35}, {"time": 2449, "pitch": 51, "duration": 6, "velocity": 75}, {"time": 2452, "pitch": 55, "duration": 6, "velocity": 70}, {"time": 2455, "pitch": 63, "duration": 11, "velocity": 95}, {"time": 2458, "pitch": 51, "duration": 3, "velocity": 70}, {"time": 2461, "pitch": 58, "duration": 5, "velocity": 90}, {"time": 2464, "pitch": 55, "duration": 2, "velocity": 73}, {"time": 2467, "pitch": 41, "duration": 20, "velocity": 63}, {"time": 2470, "pitch": 48, "duration": 14, "velocity": 47}, {"time": 2473, "pitch": 53, "duration": 7, "velocity": 75}, {"time": 2476, "pitch": 57, "duration": 6, "velocity": 62}, {"time": 2479, "pitch": 65, "duration": 11, "velocity": 82}, {"time": 2482, "pitch": 53, "duration": 6, "velocity": 83}, {"time": 2485, "pitch": 60, "duration": 5, "velocity": 68}, {"time": 2488, "pitch": 57, "duration": 3, "velocity": 76}, {"time": 2491, "pitch": 46, "duration": 24, "velocity": 83}, {"time": 2494, "pitch": 50, "duration": 20, "velocity": 59}, {"time": 2497, "pitch": 53, "duration": 7, "velocity": 66}, {"time": 2500, "pitch": 58, "duration": 4, "velocity": 73}, {"time": 2503, "pitch": 65, "duration": 8, "velocity": 76}, {"time": 2506, "pitch": 53, "duration": 7, "velocity": 77}, {"time": 2509, "pitch": 58, "duration": 4, "velocity": 77}, {"time": 2512, "pitch": 62, "duration": 3, "velocity": 72}, {"time": 2515, "pitch": 43, "duration": 16, "velocity": 68}, {"time": 2521, "pitch": 50, "duration": 9, "velocity": 65}, {"time": 2527, "pitch": 62, "duration": 13, "velocity": 86}, {"time": 2533, "pitch": 55, "duration": 9, "velocity": 63}, {"time": 2539, "pitch": 39, "duration": 13, "velocity": 71}, {"time": 2545, "pitch": 46, "duration": 7, "velocity": 31}, {"time": 2551, "pitch": 63, "duration": 13, "velocity": 102}, {"time": 2557, "pitch": 55, "duration": 7, "velocity": 64}, {"time": 2563, "pitch": 41, "duration": 13, "velocity": 72}, {"time": 2569, "pitch": 48, "duration": 8, "velocity": 65}, {"time": 2575, "pitch": 60, "duration": 9, "velocity": 92}, {"time": 2581, "pitch": 53, "duration": 6, "velocity": 70}, {"time": 2587, "pitch": 46, "duration": 11, "velocity": 85}, {"time": 2593, "pitch": 53, "duration": 4, "velocity": 76}, {"time": 2596, "pitch": 62, "duration": 16, "velocity": 67}, {"time": 2599, "pitch": 45, "duration": 11, "velocity": 63}, {"time": 2605, "pitch": 57, "duration": 6, "velocity": 66}, {"time": 2611, "pitch": 43, "duration": 13, "velocity": 68}, {"time": 2617, "pitch": 50, "duration": 7, "velocity": 65}, {"time": 2623, "pitch": 62, "duration": 7, "velocity": 92}, {"time": 2629, "pitch": 55, "duration": 22, "velocity": 83}, {"time": 2635, "pitch": 39, "duration": 15, "velocity": 82}, {"time": 2641, "pitch": 46, "duration": 7, "velocity": 35}, {"time": 2647, "pitch": 51, "duration": 4, "velocity": 55}, {"time": 2647, "pitch": 63, "duration": 11, "velocity": 102}, {"time": 2653, "pitch": 55, "duration": 7, "velocity": 89}, {"time": 2659, "pitch": 41, "duration": 15, "velocity": 83}, {"time": 2665, "pitch": 48, "duration": 10, "velocity": 67}, {"time": 2671, "pitch": 57, "duration": 7, "velocity": 79}, {"time": 2677, "pitch": 53, "duration": 10, "velocity": 69}, {"time": 2683, "pitch": 46, "duration": 19, "velocity": 107}, {"time": 2689, "pitch": 53, "duration": 17, "velocity": 75}, {"time": 2695, "pitch": 58, "duration": 11, "velocity": 42}, {"time": 2695, "pitch": 62, "duration": 11, "velocity": 39}, {"time": 2707, "pitch": 43, "duration": 18, "velocity": 89}, {"time": 2710, "pitch": 50, "duration": 14, "velocity": 75}, {"time": 2713, "pitch": 55, "duration": 5, "velocity": 72}, {"time": 2716, "pitch": 58, "duration": 3, "velocity": 72}, {"time": 2719, "pitch": 62, "duration": 11, "velocity": 81}, {"time": 2725, "pitch": 58, "duration": 5, "velocity": 76}, {"time": 2728, "pitch": 55, "duration": 3, "velocity": 63}, {"time": 2731, "pitch": 39, "duration": 18, "velocity": 76}, {"time": 2734, "pitch": 46, "duration": 15, "velocity": 35}, {"time": 2737, "pitch": 51, "duration": 6, "velocity": 71}, {"time": 2740, "pitch": 63, "duration": 14, "velocity": 99}, {"time": 2746, "pitch": 51, "duration": 3, "velocity": 59}, {"time": 2749, "pitch": 58, "duration": 5, "velocity": 54}, {"time": 2752, "pitch": 55, "duration": 3, "velocity": 56}, {"time": 2755, "pitch": 41, "duration": 17, "velocity": 66}, {"time": 2758, "pitch": 48, "duration": 9, "velocity": 68}, {"time": 2761, "pitch": 53, "duration": 3, "velocity": 83}, {"time": 2764, "pitch": 57, "duration": 14, "velocity": 92}, {"time": 2770, "pitch": 48, "duration": 3, "velocity": 55}, {"time": 2773, "pitch": 60, "duration": 5, "velocity": 65}, {"time": 2776, "pitch": 53, "duration": 2, "velocity": 73}, {"time": 2779, "pitch": 46, "duration": 8, "velocity": 86}, {"time": 2782, "pitch": 50, "duration": 8, "velocity": 69}, {"time": 2785, "pitch": 53, "duration": 4, "velocity": 88}, {"time": 2788, "pitch": 58, "duration": 5, "velocity": 97}, {"time": 2791, "pitch": 45, "duration": 11, "velocity": 85}, {"time": 2794, "pitch": 57, "duration": 6, "velocity": 78}, {"time": 2797, "pitch": 58, "duration": 6, "velocity": 95}, {"time": 2800, "pitch": 62, "duration": 3, "velocity": 72}, {"time": 2803, "pitch": 43, "duration": 17, "velocity": 70}, {"time": 2806, "pitch": 50, "duration": 10, "velocity": 55}, {"time": 2809, "pitch": 55, "duration": 4, "velocity": 77}, {"time": 2812, "pitch": 62, "duration": 14, "velocity": 90}, {"time": 2818, "pitch": 50, "duration": 2, "velocity": 61}, {"time": 2821, "pitch": 58, "duration": 4, "velocity": 89}, {"time": 2824, "pitch": 55, "duration": 3, "velocity": 50}, {"time": 2827, "pitch": 39, "duration": 17, "velocity": 78}, {"time": 2830, "pitch": 46, "duration": 13, "velocity": 29}, {"time": 2833, "pitch": 51, "duration": 7, "velocity": 69}, {"time": 2836, "pitch": 63, "duration": 15, "velocity": 90}, {"time": 2842, "pitch": 51, "duration": 3, "velocity": 81}, {"time": 2845, "pitch": 58, "duration": 6, "velocity": 45}, {"time": 2851, "pitch": 41, "duration": 15, "velocity": 67}, {"time": 2857, "pitch": 48, "duration": 8, "velocity": 44}, {"time": 2863, "pitch": 53, "duration": 9, "velocity": 43}, {"time": 2863, "pitch": 57, "duration": 6, "velocity": 58}, {"time": 2863, "pitch": 60, "duration": 7, "velocity": 58}, {"time": 2875, "pitch": 46, "duration": 58, "velocity": 34}, {"time": 2875, "pitch": 53, "duration": 58, "velocity": 37}, {"time": 2875, "pitch": 58, "duration": 58, "velocity": 50}, {"time": 2875, "pitch": 62, "duration": 59, "velocity": 56}], "annotations": [{"time": 20, "annotation": {"number": 64, "value": 127}, "group": "control_change"}, {"time": 42, "annotation": {"number": 64, "value": 0}, "group": "control_change"}, {"time": 50, "annotation": {"number": 64, "value": 127}, "group": "control_change"}, {"time": 66, "annotation": {"number": 64, "value": 0}, "group": "control_change"}, {"time": 72, "annotation": {"number": 64, "value": 127}, "group": "control_change"}, {"time": 89, "annotation": {"number": 64, "value": 0}, "group": "control_change"}, {"time": 101, "annotation": {"number": 64, "value": 127}, "group": "control_change"}, {"time": 113, "annotation": {"number": 64, "value": 0}, "group": "control_change"}, {"time": 120, "annotation": {"number": 64, "value": 127}, "group": "control_change"}, {"time": 138, "annotation": {"number": 64, "value": 0}, "group": "control_change"}, {"time": 143, "annotation": {"number": 64, "value": 127}, "group": "control_change"}, {"time": 162, "annotation": {"number": 64, "value": 0}, "group": "control_change"}, {"time": 168, "annotation": {"number": 64, "value": 127}, "group": "control_change"}, {"time": 186, "annotation": {"number": 64, "value": 0}, "group": "control_change"}, {"time": 198, "annotation": {"number": 64, "value": 127}, "group": "control_change"}, {"time": 207, "annotation": {"number": 64, "value": 0}, "group": "control_change"}, {"time": 211, "annotation": {"number": 64, "value": 127}, "group": "control_change"}, {"time": 232, "annotation": {"number": 64, "value": 0}, "group": "control_change"}, {"time": 235, "annotation": {"number": 64, "value": 127}, "group": "control_change"}, {"time": 246, "annotation": {"number": 64, "value": 0}, "group": "control_change"}, {"time": 258, "annotation": {"number": 64, "value": 127}, "group": "control_change"}, {"time": 279, "annotation": {"number": 64, "value": 0}, "group": "control_change"}, {"time": 283, "annotation": {"number": 64, "value": 127}, "group": "control_change"}, {"time": 291, "annotation": {"number": 64, "value": 0}, "group": "control_change"}, {"time": 295, "annotation": {"number": 64, "value": 127}, "group": "control_change"}, {"time": 301, "annotation": {"number": 64, "value": 0}, "group": "control_change"}, {"time": 306, "annotation": {"number": 64, "value": 127}, "group": "control_change"}, {"time": 327, "annotation": {"number": 64, "value": 0}, "group": "control_change"}, {"time": 331, "annotation": {"number": 64, "value": 127}, "group": "control_change"}, {"time": 351, "annotation": {"number": 64, "value": 0}, "group": "control_change"}, {"time": 354, "annotation": {"number": 64, "value": 127}, "group": "control_change"}, {"time": 375, "annotation": {"number": 64, "value": 0}, "group": "control_change"}, {"time": 379, "annotation": {"number": 64, "value": 127}, "group": "control_change"}, {"time": 388, "annotation": {"number": 64, "value": 0}, "group": "control_change"}, {"time": 403, "annotation": {"number": 64, "value": 127}, "group": "control_change"}, {"time": 422, "annotation": {"number": 64, "value": 0}, "group": "control_change"}, {"time": 426, "annotation": {"number": 64, "value": 127}, "group": "control_change"}, {"time": 445, "annotation": {"number": 64, "value": 0}, "group": "control_change"}, {"time": 451, "annotation": {"number": 64, "value": 127}, "group": "control_change"}, {"time": 469, "annotation": {"number": 64, "value": 0}, "group": "control_change"}, {"time": 475, "annotation": {"number": 64, "value": 127}, "group": "control_change"}, {"time": 484, "annotation": {"number": 64, "value": 0}, "group": "control_change"}, {"time": 498, "annotation": {"number": 64, "value": 127}, "group": "control_change"}, {"time": 518, "annotation": {"number": 64, "value": 0}, "group": "control_change"}, {"time": 523, "annotation": {"number": 64, "value": 127}, "group": "control_change"}, {"time": 532, "annotation": {"number": 64, "value": 0}, "group": "control_change"}, {"time": 546, "annotation": {"number": 64, "value": 127}, "group": "control_change"}, {"time": 566, "annotation": {"number": 64, "value": 0}, "group": "control_change"}, {"time": 571, "annotation": {"number": 64, "value": 127}, "group": "control_change"}, {"time": 588, "annotation": {"number": 64, "value": 0}, "group": "control_change"}, {"time": 595, "annotation": {"number": 64, "value": 127}, "group": "control_change"}, {"time": 614, "annotation": {"number": 64, "value": 0}, "group": "control_change"}, {"time": 619, "annotation": {"number": 64, "value": 127}, "group": "control_change"}, {"time": 627, "annotation": {"number": 64, "value": 0}, "group": "control_change"}, {"time": 643, "annotation": {"number": 64, "value": 127}, "group": "control_change"}, {"time": 661, "annotation": {"number": 64, "value": 0}, "group": "control_change"}, {"time": 667, "annotation": {"number": 64, "value": 127}, "group": "control_change"}, {"time": 677, "annotation": {"number": 64, "value": 0}, "group": "control_change"}, {"time": 690, "annotation": {"number": 64, "value": 127}, "group": "control_change"}, {"time": 709, "annotation": {"number": 64, "value": 0}, "group": "control_change"}, {"time": 715, "annotation": {"number": 64, "value": 127}, "group": "control_change"}, {"time": 733, "annotation": {"number": 64, "value": 0}, "group": "control_change"}, {"time": 739, "annotation": {"number": 64, "value": 127}, "group": "control_change"}, {"time": 760, "annotation": {"number": 64, "value": 0}, "group": "control_change"}, {"time": 786, "annotation": {"number": 64, "value": 127}, "group": "control_change"}, {"time": 807, "annotation": {"number": 64, "value": 0}, "group": "control_change"}, {"time": 810, "annotation": {"number": 64, "value": 127}, "group": "control_change"}, {"time": 832, "annotation": {"number": 64, "value": 0}, "group": "control_change"}, {"time": 835, "annotation": {"number": 64, "value": 127}, "group": "control_change"}, {"time": 856, "annotation": {"number": 64, "value": 0}, "group": "control_change"}, {"time": 859, "annotation": {"number": 64, "value": 127}, "group": "control_change"}, {"time": 868, "annotation": {"number": 64, "value": 0}, "group": "control_change"}, {"time": 871, "annotation": {"number": 64, "value": 127}, "group": "control_change"}, {"time": 875, "annotation": {"number": 64, "value": 0}, "group": "control_change"}, {"time": 882, "annotation": {"number": 64, "value": 127}, "group": "control_change"}, {"time": 903, "annotation": {"number": 64, "value": 0}, "group": "control_change"}, {"time": 907, "annotation": {"number": 64, "value": 127}, "group": "control_change"}, {"time": 927, "annotation": {"number": 64, "value": 0}, "group": "control_change"}, {"time": 931, "annotation": {"number": 64, "value": 127}, "group": "control_change"}, {"time": 951, "annotation": {"number": 64, "value": 0}, "group": "control_change"}, {"time": 955, "annotation": {"number": 64, "value": 127}, "group": "control_change"}, {"time": 965, "annotation": {"number": 64, "value": 0}, "group": "control_change"}, {"time": 979, "annotation": {"number": 64, "value": 127}, "group": "control_change"}, {"time": 999, "annotation": {"number": 64, "value": 0}, "group": "control_change"}, {"time": 1003, "annotation": {"number": 64, "value": 127}, "group": "control_change"}, {"time": 1023, "annotation": {"number": 64, "value": 0}, "group": "control_change"}, {"time": 1027, "annotation": {"number": 64, "value": 127}, "group": "control_change"}, {"time": 1047, "annotation": {"number": 64, "value": 0}, "group": "control_change"}, {"time": 1051, "annotation": {"number": 64, "value": 127}, "group": "control_change"}, {"time": 1060, "annotation": {"number": 64, "value": 0}, "group": "control_change"}, {"time": 1074, "annotation": {"number": 64, "value": 127}, "group": "control_change"}, {"time": 1094, "annotation": {"number": 64, "value": 0}, "group": "control_change"}, {"time": 1099, "annotation": {"number": 64, "value": 127}, "group": "control_change"}, {"time": 1118, "annotation": {"number": 64, "value": 0}, "group": "control_change"}, {"time": 1122, "annotation": {"number": 64, "value": 127}, "group": "control_change"}, {"time": 1143, "annotation": {"number": 64, "value": 0}, "group": "control_change"}, {"time": 1147, "annotation": {"number": 64, "value": 127}, "group": "control_change"}, {"time": 1161, "annotation": {"number": 64, "value": 0}, "group": "control_change"}, {"time": 1174, "annotation": {"number": 64, "value": 127}, "group": "control_change"}, {"time": 1191, "annotation": {"number": 64, "value": 0}, "group": "control_change"}, {"time": 1195, "annotation": {"number": 64, "value": 127}, "group": "control_change"}, {"time": 1212, "annotation": {"number": 64, "value": 0}, "group": "control_change"}, {"time": 1220, "annotation": {"number": 64, "value": 127}, "group": "control_change"}, {"time": 1239, "annotation": {"number": 64, "value": 0}, "group": "control_change"}, {"time": 1243, "annotation": {"number": 64, "value": 127}, "group": "control_change"}, {"time": 1256, "annotation": {"number": 64, "value": 0}, "group": "control_change"}, {"time": 1270, "annotation": {"number": 64, "value": 127}, "group": "control_change"}, {"time": 1287, "annotation": {"number": 64, "value": 0}, "group": "control_change"}, {"time": 1291, "annotation": {"number": 64, "value": 127}, "group": "control_change"}, {"time": 1308, "annotation": {"number": 64, "value": 0}, "group": "control_change"}, {"time": 1316, "annotation": {"number": 64, "value": 127}, "group": "control_change"}, {"time": 1335, "annotation": {"number": 64, "value": 0}, "group": "control_change"}, {"time": 1339, "annotation": {"number": 64, "value": 127}, "group": "control_change"}, {"time": 1352, "annotation": {"number": 64, "value": 0}, "group": "control_change"}, {"time": 1382, "annotation": {"number": 64, "value": 0}, "group": "control_change"}, {"time": 1386, "annotation": {"number": 64, "value": 127}, "group": "control_change"}, {"time": 1405, "annotation": {"number": 64, "value": 0}, "group": "control_change"}, {"time": 1411, "annotation": {"number": 64, "value": 127}, "group": "control_change"}, {"time": 1429, "annotation": {"number": 64, "value": 0}, "group": "control_change"}, {"time": 1435, "annotation": {"number": 64, "value": 127}, "group": "control_change"}, {"time": 1444, "annotation": {"number": 64, "value": 0}, "group": "control_change"}, {"time": 1458, "annotation": {"number": 64, "value": 127}, "group": "control_change"}, {"time": 1478, "annotation": {"number": 64, "value": 0}, "group": "control_change"}, {"time": 1483, "annotation": {"number": 64, "value": 127}, "group": "control_change"}, {"time": 1492, "annotation": {"number": 64, "value": 0}, "group": "control_change"}, {"time": 1506, "annotation": {"number": 64, "value": 127}, "group": "control_change"}, {"time": 1526, "annotation": {"number": 64, "value": 0}, "group": "control_change"}, {"time": 1531, "annotation": {"number": 64, "value": 127}, "group": "control_change"}, {"time": 1548, "annotation": {"number": 64, "value": 0}, "group": "control_change"}, {"time": 1555, "annotation": {"number": 64, "value": 127}, "group": "control_change"}, {"time": 1574, "annotation": {"number": 64, "value": 0}, "group": "control_change"}, {"time": 1579, "annotation": {"number": 64, "value": 127}, "group": "control_change"}, {"time": 1587, "annotation": {"number": 64, "value": 0}, "group": "control_change"}, {"time": 1603, "annotation": {"number": 64, "value": 127}, "group": "control_change"}, {"time": 1621, "annotation": {"number": 64, "value": 0}, "group": "control_change"}, {"time": 1627, "annotation": {"number": 64, "value": 127}, "group": "control_change"}, {"time": 1637, "annotation": {"number": 64, "value": 0}, "group": "control_change"}, {"time": 1650, "annotation": {"number": 64, "value": 127}, "group": "control_change"}, {"time": 1669, "annotation": {"number": 64, "value": 0}, "group": "control_change"}, {"time": 1675, "annotation": {"number": 64, "value": 127}, "group": "control_change"}, {"time": 1693, "annotation": {"number": 64, "value": 0}, "group": "control_change"}, {"time": 1699, "annotation": {"number": 64, "value": 127}, "group": "control_change"}, {"time": 1720, "annotation": {"number": 64, "value": 0}, "group": "control_change"}, {"time": 1746, "annotation": {"number": 64, "value": 127}, "group": "control_change"}, {"time": 1767, "annotation": {"number": 64, "value": 0}, "group": "control_change"}, {"time": 1770, "annotation": {"number": 64, "value": 127}, "group": "control_change"}, {"time": 1792, "annotation": {"number": 64, "value": 0}, "group": "control_change"}, {"time": 1795, "annotation": {"number": 64, "value": 127}, "group": "control_change"}, {"time": 1816, "annotation": {"number": 64, "value": 0}, "group": "control_change"}, {"time": 1819, "annotation": {"number": 64, "value": 127}, "group": "control_change"}, {"time": 1828, "annotation": {"number": 64, "value": 0}, "group": "control_change"}, {"time": 1831, "annotation": {"number": 64, "value": 127}, "group": "control_change"}, {"time": 1835, "annotation": {"number": 64, "value": 0}, "group": "control_change"}, {"time": 1842, "annotation": {"number": 64, "value": 127}, "group": "control_change"}, {"time": 1863, "annotation": {"number": 64, "value": 0}, "group": "control_change"}, {"time": 1867, "annotation": {"number": 64, "value": 127}, "group": "control_change"}, {"time": 1887, "annotation": {"number": 64, "value": 0}, "group": "control_change"}, {"time": 1891, "annotation": {"number": 64, "value": 127}, "group": "control_change"}, {"time": 1911, "annotation": {"number": 64, "value": 0}, "group": "control_change"}, {"time": 1915, "annotation": {"number": 64, "value": 127}, "group": "control_change"}, {"time": 1925, "annotation": {"number": 64, "value": 0}, "group": "control_change"}, {"time": 1939, "annotation": {"number": 64, "value": 127}, "group": "control_change"}, {"time": 1959, "annotation": {"number": 64, "value": 0}, "group": "control_change"}, {"time": 1963, "annotation": {"number": 64, "value": 127}, "group": "control_change"}, {"time": 1983, "annotation": {"number": 64, "value": 0}, "group": "control_change"}, {"time": 1987, "annotation": {"number": 64, "value": 127}, "group": "control_change"}, {"time": 2007, "annotation": {"number": 64, "value": 0}, "group": "control_change"}, {"time": 2011, "annotation": {"number": 64, "value": 127}, "group": "control_change"}, {"time": 2020, "annotation": {"number": 64, "value": 0}, "group": "control_change"}, {"time": 2034, "annotation": {"number": 64, "value": 127}, "group": "control_change"}, {"time": 2054, "annotation": {"number": 64, "value": 0}, "group": "control_change"}, {"time": 2059, "annotation": {"number": 64, "value": 127}, "group": "control_change"}, {"time": 2078, "annotation": {"number": 64, "value": 0}, "group": "control_change"}, {"time": 2082, "annotation": {"number": 64, "value": 127}, "group": "control_change"}, {"time": 2103, "annotation": {"number": 64, "value": 0}, "group": "control_change"}, {"time": 2107, "annotation": {"number": 64, "value": 127}, "group": "control_change"}, {"time": 2121, "annotation": {"number": 64, "value": 0}, "group": "control_change"}, {"time": 2131, "annotation": {"number": 64, "value": 127}, "group": "control_change"}, {"time": 2152, "annotation": {"number": 64, "value": 0}, "group": "control_change"}, {"time": 2155, "annotation": {"number": 64, "value": 127}, "group": "control_change"}, {"time": 2176, "annotation": {"number": 64, "value": 0}, "group": "control_change"}, {"time": 2179, "annotation": {"number": 64, "value": 127}, "group": "control_change"}, {"time": 2200, "annotation": {"number": 64, "value": 0}, "group": "control_change"}, {"time": 2203, "annotation": {"number": 64, "value": 127}, "group": "control_change"}, {"time": 2212, "annotation": {"number": 64, "value": 0}, "group": "control_change"}, {"time": 2215, "annotation": {"number": 64, "value": 127}, "group": "control_change"}, {"time": 2219, "annotation": {"number": 64, "value": 0}, "group": "control_change"}, {"time": 2227, "annotation": {"number": 64, "value": 127}, "group": "control_change"}, {"time": 2247, "annotation": {"number": 64, "value": 0}, "group": "control_change"}, {"time": 2251, "annotation": {"number": 64, "value": 127}, "group": "control_change"}, {"time": 2271, "annotation": {"number": 64, "value": 0}, "group": "control_change"}, {"time": 2275, "annotation": {"number": 64, "value": 127}, "group": "control_change"}, {"time": 2296, "annotation": {"number": 64, "value": 0}, "group": "control_change"}, {"time": 2299, "annotation": {"number": 64, "value": 127}, "group": "control_change"}, {"time": 2309, "annotation": {"number": 64, "value": 0}, "group": "control_change"}, {"time": 2323, "annotation": {"number": 64, "value": 127}, "group": "control_change"}, {"time": 2343, "annotation": {"number": 64, "value": 0}, "group": "control_change"}, {"time": 2347, "annotation": {"number": 64, "value": 127}, "group": "control_change"}, {"time": 2367, "annotation": {"number": 64, "value": 0}, "group": "control_change"}, {"time": 2371, "annotation": {"number": 64, "value": 127}, "group": "control_change"}, {"time": 2392, "annotation": {"number": 64, "value": 0}, "group": "control_change"}, {"time": 2395, "annotation": {"number": 64, "value": 127}, "group": "control_change"}, {"time": 2404, "annotation": {"number": 64, "value": 0}, "group": "control_change"}, {"time": 2419, "annotation": {"number": 64, "value": 127}, "group": "control_change"}, {"time": 2439, "annotation": {"number": 64, "value": 0}, "group": "control_change"}, {"time": 2443, "annotation": {"number": 64, "value": 127}, "group": "control_change"}, {"time": 2462, "annotation": {"number": 64, "value": 0}, "group": "control_change"}, {"time": 2467, "annotation": {"number": 64, "value": 127}, "group": "control_change"}, {"time": 2488, "annotation": {"number": 64, "value": 0}, "group": "control_change"}, {"time": 2491, "annotation": {"number": 64, "value": 127}, "group": "control_change"}, {"time": 2505, "annotation": {"number": 64, "value": 0}, "group": "control_change"}, {"time": 2538, "annotation": {"number": 64, "value": 127}, "group": "control_change"}, {"time": 2561, "annotation": {"number": 64, "value": 0}, "group": "control_change"}, {"time": 2564, "annotation": {"number": 64, "value": 127}, "group": "control_change"}, {"time": 2584, "annotation": {"number": 64, "value": 0}, "group": "control_change"}, {"time": 2587, "annotation": {"number": 64, "value": 127}, "group": "control_change"}, {"time": 2598, "annotation": {"number": 64, "value": 0}, "group": "control_change"}, {"time": 2611, "annotation": {"number": 64, "value": 127}, "group": "control_change"}, {"time": 2631, "annotation": {"number": 64, "value": 0}, "group": "control_change"}, {"time": 2635, "annotation": {"number": 64, "value": 127}, "group": "control_change"}, {"time": 2655, "annotation": {"number": 64, "value": 0}, "group": "control_change"}, {"time": 2659, "annotation": {"number": 64, "value": 127}, "group": "control_change"}, {"time": 2679, "annotation": {"number": 64, "value": 0}, "group": "control_change"}, {"time": 2683, "annotation": {"number": 64, "value": 127}, "group": "control_change"}, {"time": 2694, "annotation": {"number": 64, "value": 0}, "group": "control_change"}, {"time": 2706, "annotation": {"number": 64, "value": 127}, "group": "control_change"}, {"time": 2727, "annotation": {"number": 64, "value": 0}, "group": "control_change"}, {"time": 2730, "annotation": {"number": 64, "value": 127}, "group": "control_change"}, {"time": 2752, "annotation": {"number": 64, "value": 0}, "group": "control_change"}, {"time": 2755, "annotation": {"number": 64, "value": 127}, "group": "control_change"}, {"time": 2776, "annotation": {"number": 64, "value": 0}, "group": "control_change"}, {"time": 2779, "annotation": {"number": 64, "value": 127}, "group": "control_change"}, {"time": 2788, "annotation": {"number": 64, "value": 0}, "group": "control_change"}, {"time": 2802, "annotation": {"number": 64, "value": 127}, "group": "control_change"}, {"time": 2823, "annotation": {"number": 64, "value": 0}, "group": "control_change"}, {"time": 2827, "annotation": {"number": 64, "value": 127}, "group": "control_change"}, {"time": 2846, "annotation": {"number": 64, "value": 0}, "group": "control_change"}, {"time": 2850, "annotation": {"number": 64, "value": 127}, "group": "control_change"}, {"time": 2874, "annotation": {"number": 64, "value": 0}, "group": "control_change"}, {"time": 2929, "annotation": {"number": 64, "value": 127}, "group": "control_change"}, {"time": 2941, "annotation": {"number": 64, "value": 0}, "group": "control_change"}, {"time": 2942, "annotation": {"number": 64, "value": 127}, "group": "control_change"}, {"time": 2946, "annotation": {"number": 64, "value": 0}, "group": "control_change"}]}]}