{"metadata": {"schema_version": "0.2", "title": "None", "source_filename": "779.mid", "source_format": "midi"}, "resolution": 12, "tempos": [{"time": 0, "qpm": 117.5002986465924}], "time_signatures": [{"time": 0, "numerator": 1, "denominator": 4}], "tracks": [{"program": 4, "is_drum": false, "name": "MELODY", "notes": [{"time": 532, "pitch": 69, "duration": 4, "velocity": 87}, {"time": 538, "pitch": 71, "duration": 4, "velocity": 86}, {"time": 544, "pitch": 72, "duration": 10, "velocity": 86}, {"time": 556, "pitch": 71, "duration": 5, "velocity": 86}, {"time": 562, "pitch": 69, "duration": 16, "velocity": 84}, {"time": 580, "pitch": 71, "duration": 11, "velocity": 85}, {"time": 592, "pitch": 67, "duration": 39, "velocity": 79}, {"time": 640, "pitch": 69, "duration": 9, "velocity": 85}, {"time": 652, "pitch": 67, "duration": 4, "velocity": 77}, {"time": 658, "pitch": 65, "duration": 17, "velocity": 86}, {"time": 676, "pitch": 67, "duration": 6, "velocity": 78}, {"time": 682, "pitch": 64, "duration": 34, "velocity": 85}, {"time": 723, "pitch": 69, "duration": 4, "velocity": 87}, {"time": 729, "pitch": 71, "duration": 4, "velocity": 85}, {"time": 735, "pitch": 72, "duration": 10, "velocity": 85}, {"time": 747, "pitch": 71, "duration": 5, "velocity": 85}, {"time": 753, "pitch": 69, "duration": 17, "velocity": 85}, {"time": 771, "pitch": 71, "duration": 5, "velocity": 84}, {"time": 777, "pitch": 67, "duration": 18, "velocity": 85}, {"time": 795, "pitch": 74, "duration": 4, "velocity": 87}, {"time": 802, "pitch": 74, "duration": 22, "velocity": 89}, {"time": 832, "pitch": 76, "duration": 9, "velocity": 85}, {"time": 843, "pitch": 76, "duration": 4, "velocity": 85}, {"time": 850, "pitch": 76, "duration": 15, "velocity": 88}, {"time": 867, "pitch": 74, "duration": 6, "velocity": 86}, {"time": 874, "pitch": 74, "duration": 29, "velocity": 92}, {"time": 916, "pitch": 69, "duration": 4, "velocity": 87}, {"time": 922, "pitch": 71, "duration": 4, "velocity": 86}, {"time": 928, "pitch": 72, "duration": 10, "velocity": 86}, {"time": 940, "pitch": 71, "duration": 5, "velocity": 86}, {"time": 946, "pitch": 69, "duration": 16, "velocity": 84}, {"time": 964, "pitch": 71, "duration": 11, "velocity": 85}, {"time": 976, "pitch": 67, "duration": 39, "velocity": 79}, {"time": 1024, "pitch": 69, "duration": 9, "velocity": 85}, {"time": 1036, "pitch": 67, "duration": 4, "velocity": 77}, {"time": 1042, "pitch": 65, "duration": 17, "velocity": 86}, {"time": 1060, "pitch": 72, "duration": 6, "velocity": 78}, {"time": 1066, "pitch": 64, "duration": 34, "velocity": 85}, {"time": 1107, "pitch": 69, "duration": 4, "velocity": 87}, {"time": 1113, "pitch": 71, "duration": 4, "velocity": 85}, {"time": 1119, "pitch": 72, "duration": 10, "velocity": 85}, {"time": 1131, "pitch": 71, "duration": 5, "velocity": 85}, {"time": 1137, "pitch": 69, "duration": 17, "velocity": 85}, {"time": 1155, "pitch": 71, "duration": 5, "velocity": 84}, {"time": 1161, "pitch": 67, "duration": 18, "velocity": 85}, {"time": 1179, "pitch": 74, "duration": 4, "velocity": 87}, {"time": 1186, "pitch": 74, "duration": 22, "velocity": 89}, {"time": 1216, "pitch": 76, "duration": 9, "velocity": 85}, {"time": 1227, "pitch": 76, "duration": 4, "velocity": 85}, {"time": 1234, "pitch": 76, "duration": 15, "velocity": 88}, {"time": 1251, "pitch": 77, "duration": 6, "velocity": 86}, {"time": 1258, "pitch": 74, "duration": 29, "velocity": 92}, {"time": 1288, "pitch": 67, "duration": 4, "velocity": 89}, {"time": 1294, "pitch": 69, "duration": 3, "velocity": 80}, {"time": 1300, "pitch": 71, "duration": 4, "velocity": 82}, {"time": 1306, "pitch": 72, "duration": 14, "velocity": 85}, {"time": 1324, "pitch": 72, "duration": 3, "velocity": 85}, {"time": 1330, "pitch": 72, "duration": 15, "velocity": 86}, {"time": 1348, "pitch": 72, "duration": 3, "velocity": 85}, {"time": 1354, "pitch": 72, "duration": 4, "velocity": 85}, {"time": 1360, "pitch": 71, "duration": 4, "velocity": 86}, {"time": 1366, "pitch": 72, "duration": 4, "velocity": 83}, {"time": 1372, "pitch": 74, "duration": 4, "velocity": 88}, {"time": 1378, "pitch": 74, "duration": 22, "velocity": 87}, {"time": 1408, "pitch": 74, "duration": 8, "velocity": 89}, {"time": 1420, "pitch": 74, "duration": 3, "velocity": 86}, {"time": 1426, "pitch": 74, "duration": 14, "velocity": 87}, {"time": 1444, "pitch": 74, "duration": 3, "velocity": 90}, {"time": 1450, "pitch": 74, "duration": 8, "velocity": 89}, {"time": 1462, "pitch": 71, "duration": 5, "velocity": 85}, {"time": 1468, "pitch": 67, "duration": 4, "velocity": 85}, {"time": 1474, "pitch": 72, "duration": 8, "velocity": 86}, {"time": 1486, "pitch": 72, "duration": 3, "velocity": 85}, {"time": 1492, "pitch": 72, "duration": 4, "velocity": 86}, {"time": 1498, "pitch": 67, "duration": 4, "velocity": 74}, {"time": 1504, "pitch": 72, "duration": 4, "velocity": 79}, {"time": 1510, "pitch": 67, "duration": 3, "velocity": 81}, {"time": 1516, "pitch": 72, "duration": 3, "velocity": 85}, {"time": 1522, "pitch": 72, "duration": 8, "velocity": 85}, {"time": 1534, "pitch": 72, "duration": 3, "velocity": 86}, {"time": 1540, "pitch": 72, "duration": 4, "velocity": 80}, {"time": 1546, "pitch": 67, "duration": 4, "velocity": 85}, {"time": 1552, "pitch": 72, "duration": 4, "velocity": 87}, {"time": 1558, "pitch": 67, "duration": 3, "velocity": 77}, {"time": 1564, "pitch": 72, "duration": 4, "velocity": 86}, {"time": 1570, "pitch": 72, "duration": 7, "velocity": 85}, {"time": 1582, "pitch": 72, "duration": 2, "velocity": 86}, {"time": 1588, "pitch": 72, "duration": 3, "velocity": 86}, {"time": 1594, "pitch": 74, "duration": 3, "velocity": 89}, {"time": 1600, "pitch": 76, "duration": 3, "velocity": 85}, {"time": 1606, "pitch": 76, "duration": 3, "velocity": 85}, {"time": 1612, "pitch": 76, "duration": 3, "velocity": 85}, {"time": 1618, "pitch": 76, "duration": 3, "velocity": 86}, {"time": 1624, "pitch": 76, "duration": 3, "velocity": 88}, {"time": 1630, "pitch": 77, "duration": 4, "velocity": 79}, {"time": 1636, "pitch": 76, "duration": 3, "velocity": 83}, {"time": 1642, "pitch": 74, "duration": 66, "velocity": 83}, {"time": 1726, "pitch": 72, "duration": 3, "velocity": 85}, {"time": 1732, "pitch": 74, "duration": 4, "velocity": 89}, {"time": 1738, "pitch": 76, "duration": 8, "velocity": 86}, {"time": 1750, "pitch": 76, "duration": 3, "velocity": 84}, {"time": 1756, "pitch": 76, "duration": 2, "velocity": 83}, {"time": 1762, "pitch": 76, "duration": 9, "velocity": 83}, {"time": 1774, "pitch": 76, "duration": 3, "velocity": 84}, {"time": 1780, "pitch": 76, "duration": 3, "velocity": 85}, {"time": 1786, "pitch": 76, "duration": 8, "velocity": 85}, {"time": 1798, "pitch": 77, "duration": 3, "velocity": 81}, {"time": 1804, "pitch": 76, "duration": 3, "velocity": 79}, {"time": 1810, "pitch": 74, "duration": 8, "velocity": 86}, {"time": 1822, "pitch": 71, "duration": 4, "velocity": 81}, {"time": 1828, "pitch": 72, "duration": 3, "velocity": 82}, {"time": 1834, "pitch": 74, "duration": 8, "velocity": 87}, {"time": 1846, "pitch": 74, "duration": 3, "velocity": 86}, {"time": 1852, "pitch": 74, "duration": 3, "velocity": 86}, {"time": 1858, "pitch": 74, "duration": 7, "velocity": 86}, {"time": 1870, "pitch": 74, "duration": 3, "velocity": 87}, {"time": 1876, "pitch": 74, "duration": 2, "velocity": 86}, {"time": 1882, "pitch": 74, "duration": 12, "velocity": 85}, {"time": 1894, "pitch": 76, "duration": 3, "velocity": 83}, {"time": 1900, "pitch": 74, "duration": 3, "velocity": 88}, {"time": 1906, "pitch": 72, "duration": 8, "velocity": 85}, {"time": 1918, "pitch": 72, "duration": 3, "velocity": 85}, {"time": 1924, "pitch": 72, "duration": 3, "velocity": 86}, {"time": 1930, "pitch": 72, "duration": 4, "velocity": 87}, {"time": 1936, "pitch": 79, "duration": 4, "velocity": 86}, {"time": 1942, "pitch": 77, "duration": 3, "velocity": 83}, {"time": 1948, "pitch": 77, "duration": 4, "velocity": 83}, {"time": 1954, "pitch": 76, "duration": 3, "velocity": 86}, {"time": 1960, "pitch": 76, "duration": 4, "velocity": 87}, {"time": 1966, "pitch": 74, "duration": 2, "velocity": 86}, {"time": 1972, "pitch": 74, "duration": 2, "velocity": 87}, {"time": 1978, "pitch": 72, "duration": 3, "velocity": 85}, {"time": 1984, "pitch": 74, "duration": 3, "velocity": 88}, {"time": 1990, "pitch": 74, "duration": 3, "velocity": 87}, {"time": 1996, "pitch": 72, "duration": 3, "velocity": 86}, {"time": 2002, "pitch": 74, "duration": 8, "velocity": 90}, {"time": 2014, "pitch": 72, "duration": 3, "velocity": 87}, {"time": 2020, "pitch": 74, "duration": 4, "velocity": 88}, {"time": 2026, "pitch": 72, "duration": 3, "velocity": 85}, {"time": 2032, "pitch": 77, "duration": 4, "velocity": 86}, {"time": 2038, "pitch": 76, "duration": 3, "velocity": 85}, {"time": 2044, "pitch": 76, "duration": 4, "velocity": 86}, {"time": 2050, "pitch": 74, "duration": 3, "velocity": 87}, {"time": 2056, "pitch": 74, "duration": 4, "velocity": 91}, {"time": 2062, "pitch": 72, "duration": 3, "velocity": 85}, {"time": 2068, "pitch": 72, "duration": 3, "velocity": 86}, {"time": 2074, "pitch": 74, "duration": 2, "velocity": 85}, {"time": 2080, "pitch": 76, "duration": 7, "velocity": 92}, {"time": 2089, "pitch": 77, "duration": 5, "velocity": 90}, {"time": 2097, "pitch": 76, "duration": 5, "velocity": 85}, {"time": 2104, "pitch": 79, "duration": 12, "velocity": 86}, {"time": 2116, "pitch": 72, "duration": 10, "velocity": 88}, {"time": 2128, "pitch": 76, "duration": 3, "velocity": 87}, {"time": 2134, "pitch": 76, "duration": 3, "velocity": 85}, {"time": 2140, "pitch": 76, "duration": 3, "velocity": 85}, {"time": 2146, "pitch": 76, "duration": 6, "velocity": 88}, {"time": 2158, "pitch": 76, "duration": 3, "velocity": 87}, {"time": 2164, "pitch": 76, "duration": 3, "velocity": 86}, {"time": 2170, "pitch": 76, "duration": 8, "velocity": 87}, {"time": 2182, "pitch": 77, "duration": 3, "velocity": 86}, {"time": 2188, "pitch": 76, "duration": 3, "velocity": 87}, {"time": 2194, "pitch": 74, "duration": 8, "velocity": 92}, {"time": 2206, "pitch": 71, "duration": 4, "velocity": 87}, {"time": 2212, "pitch": 71, "duration": 4, "velocity": 85}, {"time": 2218, "pitch": 79, "duration": 8, "velocity": 86}, {"time": 2230, "pitch": 79, "duration": 3, "velocity": 81}, {"time": 2236, "pitch": 79, "duration": 3, "velocity": 85}, {"time": 2242, "pitch": 79, "duration": 6, "velocity": 86}, {"time": 2254, "pitch": 79, "duration": 3, "velocity": 85}, {"time": 2260, "pitch": 79, "duration": 4, "velocity": 85}, {"time": 2266, "pitch": 74, "duration": 10, "velocity": 89}, {"time": 2278, "pitch": 76, "duration": 3, "velocity": 88}, {"time": 2284, "pitch": 74, "duration": 4, "velocity": 86}, {"time": 2290, "pitch": 72, "duration": 7, "velocity": 85}, {"time": 2302, "pitch": 69, "duration": 3, "velocity": 83}, {"time": 2308, "pitch": 69, "duration": 5, "velocity": 86}, {"time": 2314, "pitch": 72, "duration": 3, "velocity": 86}, {"time": 2320, "pitch": 79, "duration": 4, "velocity": 84}, {"time": 2326, "pitch": 77, "duration": 3, "velocity": 80}, {"time": 2332, "pitch": 77, "duration": 3, "velocity": 86}, {"time": 2338, "pitch": 76, "duration": 3, "velocity": 83}, {"time": 2344, "pitch": 76, "duration": 4, "velocity": 85}, {"time": 2350, "pitch": 74, "duration": 3, "velocity": 85}, {"time": 2356, "pitch": 74, "duration": 4, "velocity": 86}, {"time": 2362, "pitch": 72, "duration": 3, "velocity": 84}, {"time": 2368, "pitch": 76, "duration": 12, "velocity": 87}, {"time": 2386, "pitch": 67, "duration": 5, "velocity": 85}, {"time": 2392, "pitch": 76, "duration": 8, "velocity": 89}, {"time": 2404, "pitch": 74, "duration": 3, "velocity": 86}, {"time": 2410, "pitch": 74, "duration": 16, "velocity": 86}, {"time": 2428, "pitch": 72, "duration": 40, "velocity": 82}, {"time": 2740, "pitch": 69, "duration": 4, "velocity": 87}, {"time": 2746, "pitch": 71, "duration": 4, "velocity": 86}, {"time": 2752, "pitch": 72, "duration": 10, "velocity": 86}, {"time": 2764, "pitch": 71, "duration": 5, "velocity": 86}, {"time": 2770, "pitch": 69, "duration": 16, "velocity": 84}, {"time": 2788, "pitch": 71, "duration": 11, "velocity": 85}, {"time": 2800, "pitch": 67, "duration": 39, "velocity": 79}, {"time": 2848, "pitch": 69, "duration": 9, "velocity": 85}, {"time": 2860, "pitch": 67, "duration": 4, "velocity": 77}, {"time": 2866, "pitch": 65, "duration": 17, "velocity": 86}, {"time": 2884, "pitch": 67, "duration": 6, "velocity": 78}, {"time": 2890, "pitch": 64, "duration": 34, "velocity": 85}, {"time": 2931, "pitch": 69, "duration": 4, "velocity": 87}, {"time": 2937, "pitch": 71, "duration": 4, "velocity": 85}, {"time": 2943, "pitch": 72, "duration": 10, "velocity": 85}, {"time": 2955, "pitch": 71, "duration": 5, "velocity": 85}, {"time": 2961, "pitch": 69, "duration": 17, "velocity": 85}, {"time": 2979, "pitch": 71, "duration": 5, "velocity": 84}, {"time": 2985, "pitch": 67, "duration": 18, "velocity": 85}, {"time": 3003, "pitch": 74, "duration": 4, "velocity": 87}, {"time": 3010, "pitch": 74, "duration": 22, "velocity": 89}, {"time": 3040, "pitch": 76, "duration": 9, "velocity": 85}, {"time": 3051, "pitch": 76, "duration": 4, "velocity": 85}, {"time": 3058, "pitch": 76, "duration": 15, "velocity": 88}, {"time": 3075, "pitch": 74, "duration": 6, "velocity": 86}, {"time": 3082, "pitch": 74, "duration": 29, "velocity": 92}, {"time": 3124, "pitch": 69, "duration": 4, "velocity": 87}, {"time": 3130, "pitch": 71, "duration": 4, "velocity": 86}, {"time": 3136, "pitch": 72, "duration": 10, "velocity": 86}, {"time": 3148, "pitch": 71, "duration": 5, "velocity": 86}, {"time": 3154, "pitch": 69, "duration": 16, "velocity": 84}, {"time": 3172, "pitch": 71, "duration": 11, "velocity": 85}, {"time": 3184, "pitch": 67, "duration": 39, "velocity": 79}, {"time": 3232, "pitch": 69, "duration": 9, "velocity": 85}, {"time": 3244, "pitch": 67, "duration": 4, "velocity": 77}, {"time": 3250, "pitch": 65, "duration": 17, "velocity": 86}, {"time": 3268, "pitch": 72, "duration": 6, "velocity": 78}, {"time": 3274, "pitch": 64, "duration": 34, "velocity": 85}, {"time": 3315, "pitch": 69, "duration": 4, "velocity": 87}, {"time": 3321, "pitch": 71, "duration": 4, "velocity": 85}, {"time": 3327, "pitch": 72, "duration": 10, "velocity": 85}, {"time": 3339, "pitch": 71, "duration": 5, "velocity": 85}, {"time": 3345, "pitch": 69, "duration": 17, "velocity": 85}, {"time": 3363, "pitch": 71, "duration": 5, "velocity": 84}, {"time": 3369, "pitch": 67, "duration": 18, "velocity": 85}, {"time": 3387, "pitch": 74, "duration": 4, "velocity": 87}, {"time": 3394, "pitch": 74, "duration": 22, "velocity": 89}, {"time": 3424, "pitch": 76, "duration": 9, "velocity": 85}, {"time": 3435, "pitch": 76, "duration": 4, "velocity": 85}, {"time": 3442, "pitch": 76, "duration": 15, "velocity": 88}, {"time": 3459, "pitch": 77, "duration": 6, "velocity": 86}, {"time": 3466, "pitch": 74, "duration": 29, "velocity": 92}, {"time": 3496, "pitch": 67, "duration": 4, "velocity": 89}, {"time": 3502, "pitch": 69, "duration": 3, "velocity": 80}, {"time": 3508, "pitch": 71, "duration": 4, "velocity": 82}, {"time": 3514, "pitch": 72, "duration": 14, "velocity": 85}, {"time": 3532, "pitch": 72, "duration": 3, "velocity": 85}, {"time": 3538, "pitch": 72, "duration": 15, "velocity": 86}, {"time": 3556, "pitch": 72, "duration": 3, "velocity": 85}, {"time": 3562, "pitch": 72, "duration": 4, "velocity": 85}, {"time": 3568, "pitch": 71, "duration": 4, "velocity": 86}, {"time": 3574, "pitch": 72, "duration": 4, "velocity": 83}, {"time": 3580, "pitch": 74, "duration": 4, "velocity": 88}, {"time": 3586, "pitch": 74, "duration": 22, "velocity": 87}, {"time": 3616, "pitch": 74, "duration": 8, "velocity": 89}, {"time": 3628, "pitch": 74, "duration": 3, "velocity": 86}, {"time": 3634, "pitch": 74, "duration": 14, "velocity": 87}, {"time": 3652, "pitch": 74, "duration": 3, "velocity": 90}, {"time": 3658, "pitch": 74, "duration": 8, "velocity": 89}, {"time": 3670, "pitch": 71, "duration": 5, "velocity": 85}, {"time": 3676, "pitch": 67, "duration": 4, "velocity": 85}, {"time": 3682, "pitch": 72, "duration": 8, "velocity": 86}, {"time": 3694, "pitch": 72, "duration": 3, "velocity": 85}, {"time": 3700, "pitch": 72, "duration": 4, "velocity": 86}, {"time": 3706, "pitch": 67, "duration": 4, "velocity": 74}, {"time": 3712, "pitch": 72, "duration": 4, "velocity": 79}, {"time": 3718, "pitch": 67, "duration": 3, "velocity": 81}, {"time": 3724, "pitch": 72, "duration": 3, "velocity": 85}, {"time": 3730, "pitch": 72, "duration": 8, "velocity": 85}, {"time": 3742, "pitch": 72, "duration": 3, "velocity": 86}, {"time": 3748, "pitch": 72, "duration": 4, "velocity": 80}, {"time": 3754, "pitch": 67, "duration": 4, "velocity": 85}, {"time": 3760, "pitch": 72, "duration": 4, "velocity": 87}, {"time": 3766, "pitch": 67, "duration": 3, "velocity": 77}, {"time": 3772, "pitch": 72, "duration": 4, "velocity": 86}, {"time": 3778, "pitch": 72, "duration": 7, "velocity": 85}, {"time": 3790, "pitch": 72, "duration": 2, "velocity": 86}, {"time": 3796, "pitch": 72, "duration": 3, "velocity": 86}, {"time": 3802, "pitch": 74, "duration": 3, "velocity": 89}, {"time": 3808, "pitch": 76, "duration": 3, "velocity": 85}, {"time": 3814, "pitch": 76, "duration": 3, "velocity": 85}, {"time": 3820, "pitch": 76, "duration": 3, "velocity": 85}, {"time": 3826, "pitch": 76, "duration": 3, "velocity": 86}, {"time": 3832, "pitch": 76, "duration": 3, "velocity": 88}, {"time": 3838, "pitch": 77, "duration": 4, "velocity": 79}, {"time": 3844, "pitch": 76, "duration": 3, "velocity": 83}, {"time": 3850, "pitch": 74, "duration": 66, "velocity": 83}, {"time": 3934, "pitch": 73, "duration": 3, "velocity": 85}, {"time": 3940, "pitch": 75, "duration": 4, "velocity": 89}, {"time": 3946, "pitch": 77, "duration": 8, "velocity": 86}, {"time": 3958, "pitch": 77, "duration": 3, "velocity": 84}, {"time": 3964, "pitch": 77, "duration": 2, "velocity": 83}, {"time": 3970, "pitch": 77, "duration": 9, "velocity": 83}, {"time": 3982, "pitch": 77, "duration": 3, "velocity": 84}, {"time": 3988, "pitch": 77, "duration": 3, "velocity": 85}, {"time": 3994, "pitch": 77, "duration": 8, "velocity": 85}, {"time": 4006, "pitch": 78, "duration": 3, "velocity": 81}, {"time": 4012, "pitch": 77, "duration": 3, "velocity": 79}, {"time": 4018, "pitch": 75, "duration": 8, "velocity": 86}, {"time": 4030, "pitch": 72, "duration": 4, "velocity": 81}, {"time": 4036, "pitch": 73, "duration": 3, "velocity": 82}, {"time": 4042, "pitch": 75, "duration": 8, "velocity": 87}, {"time": 4054, "pitch": 75, "duration": 3, "velocity": 86}, {"time": 4060, "pitch": 75, "duration": 3, "velocity": 86}, {"time": 4066, "pitch": 75, "duration": 7, "velocity": 86}, {"time": 4078, "pitch": 75, "duration": 3, "velocity": 87}, {"time": 4084, "pitch": 75, "duration": 2, "velocity": 86}, {"time": 4090, "pitch": 75, "duration": 12, "velocity": 85}, {"time": 4102, "pitch": 77, "duration": 3, "velocity": 83}, {"time": 4108, "pitch": 75, "duration": 3, "velocity": 88}, {"time": 4114, "pitch": 73, "duration": 8, "velocity": 85}, {"time": 4126, "pitch": 73, "duration": 3, "velocity": 85}, {"time": 4132, "pitch": 73, "duration": 3, "velocity": 86}, {"time": 4138, "pitch": 73, "duration": 4, "velocity": 87}, {"time": 4144, "pitch": 80, "duration": 4, "velocity": 86}, {"time": 4150, "pitch": 78, "duration": 3, "velocity": 83}, {"time": 4156, "pitch": 78, "duration": 4, "velocity": 83}, {"time": 4162, "pitch": 77, "duration": 3, "velocity": 86}, {"time": 4168, "pitch": 77, "duration": 4, "velocity": 87}, {"time": 4174, "pitch": 75, "duration": 2, "velocity": 86}, {"time": 4180, "pitch": 75, "duration": 2, "velocity": 87}, {"time": 4186, "pitch": 73, "duration": 3, "velocity": 85}, {"time": 4192, "pitch": 75, "duration": 3, "velocity": 88}, {"time": 4198, "pitch": 75, "duration": 3, "velocity": 87}, {"time": 4204, "pitch": 73, "duration": 3, "velocity": 86}, {"time": 4210, "pitch": 75, "duration": 8, "velocity": 90}, {"time": 4222, "pitch": 73, "duration": 3, "velocity": 87}, {"time": 4228, "pitch": 75, "duration": 4, "velocity": 88}, {"time": 4234, "pitch": 73, "duration": 3, "velocity": 85}, {"time": 4240, "pitch": 78, "duration": 4, "velocity": 86}, {"time": 4246, "pitch": 77, "duration": 3, "velocity": 85}, {"time": 4252, "pitch": 77, "duration": 4, "velocity": 86}, {"time": 4258, "pitch": 75, "duration": 3, "velocity": 87}, {"time": 4264, "pitch": 75, "duration": 4, "velocity": 91}, {"time": 4270, "pitch": 73, "duration": 3, "velocity": 85}, {"time": 4276, "pitch": 73, "duration": 3, "velocity": 86}, {"time": 4282, "pitch": 75, "duration": 2, "velocity": 85}, {"time": 4288, "pitch": 77, "duration": 7, "velocity": 92}, {"time": 4297, "pitch": 78, "duration": 5, "velocity": 90}, {"time": 4305, "pitch": 77, "duration": 5, "velocity": 85}, {"time": 4312, "pitch": 80, "duration": 12, "velocity": 86}, {"time": 4324, "pitch": 73, "duration": 10, "velocity": 88}, {"time": 4336, "pitch": 77, "duration": 3, "velocity": 87}, {"time": 4342, "pitch": 77, "duration": 3, "velocity": 85}, {"time": 4348, "pitch": 77, "duration": 3, "velocity": 85}, {"time": 4354, "pitch": 77, "duration": 6, "velocity": 88}, {"time": 4366, "pitch": 77, "duration": 3, "velocity": 87}, {"time": 4372, "pitch": 77, "duration": 3, "velocity": 86}, {"time": 4378, "pitch": 77, "duration": 8, "velocity": 87}, {"time": 4390, "pitch": 78, "duration": 3, "velocity": 86}, {"time": 4396, "pitch": 77, "duration": 3, "velocity": 87}, {"time": 4402, "pitch": 75, "duration": 8, "velocity": 92}, {"time": 4414, "pitch": 72, "duration": 4, "velocity": 87}, {"time": 4420, "pitch": 72, "duration": 4, "velocity": 85}, {"time": 4426, "pitch": 80, "duration": 8, "velocity": 86}, {"time": 4438, "pitch": 80, "duration": 3, "velocity": 81}, {"time": 4444, "pitch": 80, "duration": 3, "velocity": 85}, {"time": 4450, "pitch": 80, "duration": 6, "velocity": 86}, {"time": 4462, "pitch": 80, "duration": 3, "velocity": 85}, {"time": 4468, "pitch": 80, "duration": 4, "velocity": 85}, {"time": 4474, "pitch": 75, "duration": 10, "velocity": 89}, {"time": 4486, "pitch": 77, "duration": 3, "velocity": 88}, {"time": 4492, "pitch": 75, "duration": 4, "velocity": 86}, {"time": 4498, "pitch": 73, "duration": 7, "velocity": 85}, {"time": 4510, "pitch": 70, "duration": 3, "velocity": 83}, {"time": 4516, "pitch": 70, "duration": 5, "velocity": 86}, {"time": 4522, "pitch": 73, "duration": 3, "velocity": 86}, {"time": 4528, "pitch": 80, "duration": 4, "velocity": 84}, {"time": 4534, "pitch": 78, "duration": 3, "velocity": 80}, {"time": 4540, "pitch": 78, "duration": 3, "velocity": 86}, {"time": 4546, "pitch": 77, "duration": 3, "velocity": 83}, {"time": 4552, "pitch": 77, "duration": 4, "velocity": 85}, {"time": 4558, "pitch": 75, "duration": 3, "velocity": 85}, {"time": 4564, "pitch": 75, "duration": 4, "velocity": 86}, {"time": 4570, "pitch": 73, "duration": 3, "velocity": 84}, {"time": 4576, "pitch": 77, "duration": 12, "velocity": 87}, {"time": 4594, "pitch": 68, "duration": 5, "velocity": 85}, {"time": 4600, "pitch": 77, "duration": 8, "velocity": 89}, {"time": 4612, "pitch": 75, "duration": 3, "velocity": 86}, {"time": 4618, "pitch": 75, "duration": 16, "velocity": 86}, {"time": 4636, "pitch": 73, "duration": 40, "velocity": 82}, {"time": 4695, "pitch": 73, "duration": 10, "velocity": 89}, {"time": 4707, "pitch": 75, "duration": 10, "velocity": 90}, {"time": 4720, "pitch": 77, "duration": 19, "velocity": 86}, {"time": 4743, "pitch": 77, "duration": 10, "velocity": 87}, {"time": 4755, "pitch": 78, "duration": 5, "velocity": 86}, {"time": 4762, "pitch": 77, "duration": 11, "velocity": 87}, {"time": 4773, "pitch": 75, "duration": 24, "velocity": 88}, {"time": 4803, "pitch": 72, "duration": 4, "velocity": 87}, {"time": 4809, "pitch": 73, "duration": 3, "velocity": 80}, {"time": 4815, "pitch": 75, "duration": 14, "velocity": 87}, {"time": 4840, "pitch": 75, "duration": 10, "velocity": 90}, {"time": 4851, "pitch": 72, "duration": 6, "velocity": 81}, {"time": 4859, "pitch": 73, "duration": 24, "velocity": 79}, {"time": 4888, "pitch": 68, "duration": 9, "velocity": 87}, {"time": 4899, "pitch": 73, "duration": 4, "velocity": 86}, {"time": 4905, "pitch": 73, "duration": 27, "velocity": 86}, {"time": 4935, "pitch": 68, "duration": 10, "velocity": 86}, {"time": 4946, "pitch": 73, "duration": 4, "velocity": 83}, {"time": 4952, "pitch": 73, "duration": 18, "velocity": 90}, {"time": 4983, "pitch": 68, "duration": 10, "velocity": 86}, {"time": 4995, "pitch": 73, "duration": 5, "velocity": 85}, {"time": 5002, "pitch": 73, "duration": 25, "velocity": 86}, {"time": 5032, "pitch": 73, "duration": 8, "velocity": 87}, {"time": 5044, "pitch": 75, "duration": 5, "velocity": 88}, {"time": 5050, "pitch": 77, "duration": 5, "velocity": 86}, {"time": 5056, "pitch": 78, "duration": 6, "velocity": 84}, {"time": 5062, "pitch": 77, "duration": 5, "velocity": 85}, {"time": 5074, "pitch": 78, "duration": 5, "velocity": 88}, {"time": 5080, "pitch": 80, "duration": 10, "velocity": 88}, {"time": 5092, "pitch": 73, "duration": 10, "velocity": 90}, {"time": 5104, "pitch": 77, "duration": 3, "velocity": 87}, {"time": 5110, "pitch": 77, "duration": 3, "velocity": 85}, {"time": 5116, "pitch": 77, "duration": 3, "velocity": 85}, {"time": 5122, "pitch": 77, "duration": 6, "velocity": 88}, {"time": 5134, "pitch": 77, "duration": 3, "velocity": 87}, {"time": 5140, "pitch": 77, "duration": 3, "velocity": 86}, {"time": 5146, "pitch": 77, "duration": 8, "velocity": 87}, {"time": 5158, "pitch": 78, "duration": 3, "velocity": 86}, {"time": 5164, "pitch": 77, "duration": 3, "velocity": 87}, {"time": 5170, "pitch": 75, "duration": 8, "velocity": 92}, {"time": 5182, "pitch": 72, "duration": 4, "velocity": 87}, {"time": 5188, "pitch": 72, "duration": 4, "velocity": 85}, {"time": 5194, "pitch": 80, "duration": 8, "velocity": 86}, {"time": 5206, "pitch": 80, "duration": 3, "velocity": 81}, {"time": 5212, "pitch": 80, "duration": 3, "velocity": 85}, {"time": 5218, "pitch": 80, "duration": 6, "velocity": 86}, {"time": 5230, "pitch": 80, "duration": 3, "velocity": 85}, {"time": 5236, "pitch": 80, "duration": 4, "velocity": 85}, {"time": 5242, "pitch": 75, "duration": 10, "velocity": 89}, {"time": 5254, "pitch": 77, "duration": 3, "velocity": 88}, {"time": 5260, "pitch": 75, "duration": 4, "velocity": 86}, {"time": 5266, "pitch": 73, "duration": 7, "velocity": 85}, {"time": 5278, "pitch": 70, "duration": 3, "velocity": 83}, {"time": 5284, "pitch": 70, "duration": 5, "velocity": 86}, {"time": 5290, "pitch": 73, "duration": 3, "velocity": 86}, {"time": 5296, "pitch": 80, "duration": 4, "velocity": 84}, {"time": 5302, "pitch": 78, "duration": 3, "velocity": 80}, {"time": 5308, "pitch": 78, "duration": 3, "velocity": 86}, {"time": 5314, "pitch": 77, "duration": 3, "velocity": 83}, {"time": 5320, "pitch": 77, "duration": 4, "velocity": 85}, {"time": 5326, "pitch": 75, "duration": 3, "velocity": 85}, {"time": 5332, "pitch": 75, "duration": 4, "velocity": 86}, {"time": 5338, "pitch": 73, "duration": 3, "velocity": 84}, {"time": 5344, "pitch": 77, "duration": 12, "velocity": 87}, {"time": 5362, "pitch": 68, "duration": 5, "velocity": 85}, {"time": 5368, "pitch": 77, "duration": 8, "velocity": 89}, {"time": 5380, "pitch": 75, "duration": 3, "velocity": 86}, {"time": 5386, "pitch": 75, "duration": 16, "velocity": 86}, {"time": 5404, "pitch": 73, "duration": 40, "velocity": 82}]}, {"program": 0, "is_drum": false, "name": "PIANO", "notes": [{"time": 160, "pitch": 41, "duration": 42, "velocity": 80}, {"time": 160, "pitch": 53, "duration": 26, "velocity": 70}, {"time": 160, "pitch": 60, "duration": 44, "velocity": 74}, {"time": 172, "pitch": 48, "duration": 30, "velocity": 56}, {"time": 184, "pitch": 57, "duration": 15, "velocity": 74}, {"time": 208, "pitch": 43, "duration": 34, "velocity": 73}, {"time": 208, "pitch": 55, "duration": 29, "velocity": 66}, {"time": 208, "pitch": 59, "duration": 32, "velocity": 72}, {"time": 220, "pitch": 50, "duration": 21, "velocity": 78}, {"time": 232, "pitch": 62, "duration": 15, "velocity": 83}, {"time": 244, "pitch": 55, "duration": 6, "velocity": 76}, {"time": 256, "pitch": 40, "duration": 27, "velocity": 81}, {"time": 256, "pitch": 52, "duration": 24, "velocity": 78}, {"time": 256, "pitch": 55, "duration": 25, "velocity": 75}, {"time": 268, "pitch": 47, "duration": 15, "velocity": 71}, {"time": 280, "pitch": 59, "duration": 4, "velocity": 79}, {"time": 304, "pitch": 45, "duration": 32, "velocity": 77}, {"time": 304, "pitch": 57, "duration": 25, "velocity": 68}, {"time": 304, "pitch": 60, "duration": 26, "velocity": 72}, {"time": 316, "pitch": 52, "duration": 19, "velocity": 71}, {"time": 328, "pitch": 69, "duration": 12, "velocity": 86}, {"time": 352, "pitch": 38, "duration": 31, "velocity": 83}, {"time": 352, "pitch": 57, "duration": 23, "velocity": 73}, {"time": 352, "pitch": 65, "duration": 23, "velocity": 78}, {"time": 364, "pitch": 45, "duration": 18, "velocity": 73}, {"time": 376, "pitch": 62, "duration": 7, "velocity": 85}, {"time": 382, "pitch": 57, "duration": 7, "velocity": 75}, {"time": 388, "pitch": 62, "duration": 3, "velocity": 73}, {"time": 400, "pitch": 40, "duration": 28, "velocity": 84}, {"time": 400, "pitch": 52, "duration": 7, "velocity": 75}, {"time": 400, "pitch": 55, "duration": 12, "velocity": 76}, {"time": 406, "pitch": 47, "duration": 20, "velocity": 72}, {"time": 412, "pitch": 52, "duration": 12, "velocity": 85}, {"time": 418, "pitch": 55, "duration": 7, "velocity": 85}, {"time": 424, "pitch": 59, "duration": 9, "velocity": 87}, {"time": 430, "pitch": 52, "duration": 3, "velocity": 77}, {"time": 448, "pitch": 45, "duration": 38, "velocity": 85}, {"time": 454, "pitch": 52, "duration": 31, "velocity": 77}, {"time": 460, "pitch": 57, "duration": 14, "velocity": 86}, {"time": 472, "pitch": 64, "duration": 17, "velocity": 83}, {"time": 484, "pitch": 57, "duration": 5, "velocity": 72}, {"time": 496, "pitch": 45, "duration": 37, "velocity": 82}, {"time": 496, "pitch": 57, "duration": 30, "velocity": 72}, {"time": 496, "pitch": 64, "duration": 30, "velocity": 72}, {"time": 496, "pitch": 69, "duration": 28, "velocity": 73}, {"time": 544, "pitch": 45, "duration": 33, "velocity": 85}, {"time": 544, "pitch": 57, "duration": 12, "velocity": 78}, {"time": 544, "pitch": 60, "duration": 12, "velocity": 79}, {"time": 556, "pitch": 52, "duration": 20, "velocity": 59}, {"time": 568, "pitch": 57, "duration": 5, "velocity": 77}, {"time": 568, "pitch": 60, "duration": 8, "velocity": 77}, {"time": 568, "pitch": 64, "duration": 17, "velocity": 86}, {"time": 592, "pitch": 40, "duration": 32, "velocity": 76}, {"time": 592, "pitch": 55, "duration": 6, "velocity": 80}, {"time": 592, "pitch": 59, "duration": 14, "velocity": 82}, {"time": 604, "pitch": 55, "duration": 2, "velocity": 52}, {"time": 616, "pitch": 55, "duration": 4, "velocity": 78}, {"time": 616, "pitch": 59, "duration": 8, "velocity": 82}, {"time": 616, "pitch": 64, "duration": 12, "velocity": 87}, {"time": 628, "pitch": 55, "duration": 3, "velocity": 78}, {"time": 640, "pitch": 41, "duration": 30, "velocity": 77}, {"time": 640, "pitch": 53, "duration": 12, "velocity": 73}, {"time": 640, "pitch": 57, "duration": 12, "velocity": 73}, {"time": 652, "pitch": 48, "duration": 17, "velocity": 56}, {"time": 664, "pitch": 53, "duration": 4, "velocity": 80}, {"time": 664, "pitch": 57, "duration": 4, "velocity": 79}, {"time": 664, "pitch": 60, "duration": 5, "velocity": 81}, {"time": 688, "pitch": 48, "duration": 24, "velocity": 80}, {"time": 688, "pitch": 60, "duration": 12, "velocity": 80}, {"time": 688, "pitch": 64, "duration": 18, "velocity": 84}, {"time": 700, "pitch": 55, "duration": 7, "velocity": 80}, {"time": 712, "pitch": 47, "duration": 15, "velocity": 81}, {"time": 712, "pitch": 55, "duration": 11, "velocity": 75}, {"time": 712, "pitch": 59, "duration": 13, "velocity": 83}, {"time": 712, "pitch": 64, "duration": 18, "velocity": 88}, {"time": 736, "pitch": 45, "duration": 36, "velocity": 83}, {"time": 736, "pitch": 57, "duration": 12, "velocity": 72}, {"time": 736, "pitch": 60, "duration": 12, "velocity": 76}, {"time": 736, "pitch": 64, "duration": 11, "velocity": 82}, {"time": 748, "pitch": 52, "duration": 14, "velocity": 64}, {"time": 760, "pitch": 57, "duration": 7, "velocity": 80}, {"time": 760, "pitch": 60, "duration": 8, "velocity": 85}, {"time": 760, "pitch": 64, "duration": 12, "velocity": 87}, {"time": 766, "pitch": 52, "duration": 7, "velocity": 74}, {"time": 772, "pitch": 57, "duration": 3, "velocity": 81}, {"time": 784, "pitch": 40, "duration": 38, "velocity": 82}, {"time": 784, "pitch": 55, "duration": 8, "velocity": 76}, {"time": 784, "pitch": 59, "duration": 11, "velocity": 80}, {"time": 796, "pitch": 47, "duration": 14, "velocity": 52}, {"time": 808, "pitch": 52, "duration": 13, "velocity": 83}, {"time": 808, "pitch": 59, "duration": 13, "velocity": 81}, {"time": 820, "pitch": 55, "duration": 7, "velocity": 86}, {"time": 832, "pitch": 38, "duration": 29, "velocity": 86}, {"time": 832, "pitch": 53, "duration": 11, "velocity": 78}, {"time": 832, "pitch": 57, "duration": 13, "velocity": 80}, {"time": 844, "pitch": 45, "duration": 16, "velocity": 65}, {"time": 856, "pitch": 50, "duration": 4, "velocity": 86}, {"time": 856, "pitch": 53, "duration": 4, "velocity": 84}, {"time": 856, "pitch": 57, "duration": 5, "velocity": 81}, {"time": 880, "pitch": 40, "duration": 20, "velocity": 88}, {"time": 880, "pitch": 52, "duration": 7, "velocity": 86}, {"time": 880, "pitch": 57, "duration": 10, "velocity": 85}, {"time": 886, "pitch": 47, "duration": 11, "velocity": 74}, {"time": 892, "pitch": 52, "duration": 4, "velocity": 85}, {"time": 904, "pitch": 40, "duration": 12, "velocity": 88}, {"time": 904, "pitch": 52, "duration": 6, "velocity": 86}, {"time": 904, "pitch": 56, "duration": 13, "velocity": 86}, {"time": 910, "pitch": 47, "duration": 6, "velocity": 78}, {"time": 916, "pitch": 52, "duration": 6, "velocity": 85}, {"time": 922, "pitch": 59, "duration": 5, "velocity": 75}, {"time": 928, "pitch": 45, "duration": 37, "velocity": 84}, {"time": 928, "pitch": 57, "duration": 12, "velocity": 73}, {"time": 928, "pitch": 60, "duration": 11, "velocity": 79}, {"time": 940, "pitch": 52, "duration": 14, "velocity": 63}, {"time": 952, "pitch": 57, "duration": 7, "velocity": 79}, {"time": 952, "pitch": 64, "duration": 7, "velocity": 88}, {"time": 958, "pitch": 52, "duration": 6, "velocity": 76}, {"time": 964, "pitch": 60, "duration": 6, "velocity": 83}, {"time": 970, "pitch": 57, "duration": 8, "velocity": 72}, {"time": 976, "pitch": 40, "duration": 34, "velocity": 80}, {"time": 976, "pitch": 59, "duration": 12, "velocity": 79}, {"time": 988, "pitch": 47, "duration": 16, "velocity": 68}, {"time": 1000, "pitch": 55, "duration": 13, "velocity": 82}, {"time": 1012, "pitch": 52, "duration": 4, "velocity": 90}, {"time": 1024, "pitch": 41, "duration": 31, "velocity": 83}, {"time": 1024, "pitch": 53, "duration": 13, "velocity": 76}, {"time": 1024, "pitch": 57, "duration": 18, "velocity": 77}, {"time": 1036, "pitch": 48, "duration": 16, "velocity": 67}, {"time": 1048, "pitch": 53, "duration": 8, "velocity": 77}, {"time": 1048, "pitch": 57, "duration": 8, "velocity": 84}, {"time": 1072, "pitch": 48, "duration": 21, "velocity": 85}, {"time": 1072, "pitch": 55, "duration": 7, "velocity": 75}, {"time": 1072, "pitch": 60, "duration": 16, "velocity": 70}, {"time": 1084, "pitch": 55, "duration": 6, "velocity": 80}, {"time": 1096, "pitch": 47, "duration": 13, "velocity": 86}, {"time": 1096, "pitch": 55, "duration": 5, "velocity": 86}, {"time": 1096, "pitch": 59, "duration": 13, "velocity": 86}, {"time": 1108, "pitch": 55, "duration": 3, "velocity": 82}, {"time": 1120, "pitch": 45, "duration": 36, "velocity": 86}, {"time": 1120, "pitch": 57, "duration": 12, "velocity": 79}, {"time": 1120, "pitch": 60, "duration": 12, "velocity": 81}, {"time": 1132, "pitch": 52, "duration": 14, "velocity": 63}, {"time": 1144, "pitch": 57, "duration": 6, "velocity": 79}, {"time": 1144, "pitch": 60, "duration": 13, "velocity": 82}, {"time": 1144, "pitch": 64, "duration": 11, "velocity": 87}, {"time": 1150, "pitch": 52, "duration": 6, "velocity": 76}, {"time": 1156, "pitch": 57, "duration": 4, "velocity": 82}, {"time": 1168, "pitch": 40, "duration": 37, "velocity": 81}, {"time": 1168, "pitch": 55, "duration": 14, "velocity": 78}, {"time": 1168, "pitch": 59, "duration": 16, "velocity": 79}, {"time": 1180, "pitch": 47, "duration": 13, "velocity": 53}, {"time": 1192, "pitch": 55, "duration": 6, "velocity": 86}, {"time": 1192, "pitch": 64, "duration": 12, "velocity": 87}, {"time": 1198, "pitch": 47, "duration": 6, "velocity": 75}, {"time": 1204, "pitch": 59, "duration": 7, "velocity": 82}, {"time": 1210, "pitch": 55, "duration": 2, "velocity": 79}, {"time": 1216, "pitch": 38, "duration": 39, "velocity": 87}, {"time": 1216, "pitch": 57, "duration": 13, "velocity": 80}, {"time": 1216, "pitch": 62, "duration": 20, "velocity": 78}, {"time": 1228, "pitch": 45, "duration": 24, "velocity": 62}, {"time": 1234, "pitch": 57, "duration": 7, "velocity": 78}, {"time": 1240, "pitch": 65, "duration": 7, "velocity": 86}, {"time": 1246, "pitch": 62, "duration": 7, "velocity": 81}, {"time": 1252, "pitch": 57, "duration": 4, "velocity": 82}, {"time": 1264, "pitch": 43, "duration": 38, "velocity": 85}, {"time": 1264, "pitch": 55, "duration": 6, "velocity": 78}, {"time": 1264, "pitch": 59, "duration": 10, "velocity": 79}, {"time": 1270, "pitch": 50, "duration": 30, "velocity": 74}, {"time": 1276, "pitch": 55, "duration": 10, "velocity": 85}, {"time": 1282, "pitch": 62, "duration": 7, "velocity": 86}, {"time": 1288, "pitch": 55, "duration": 2, "velocity": 74}, {"time": 1288, "pitch": 67, "duration": 10, "velocity": 87}, {"time": 1294, "pitch": 62, "duration": 6, "velocity": 86}, {"time": 1300, "pitch": 55, "duration": 3, "velocity": 86}, {"time": 1312, "pitch": 41, "duration": 30, "velocity": 85}, {"time": 1312, "pitch": 53, "duration": 14, "velocity": 80}, {"time": 1312, "pitch": 57, "duration": 13, "velocity": 83}, {"time": 1324, "pitch": 48, "duration": 15, "velocity": 71}, {"time": 1336, "pitch": 53, "duration": 10, "velocity": 85}, {"time": 1336, "pitch": 57, "duration": 11, "velocity": 91}, {"time": 1336, "pitch": 60, "duration": 15, "velocity": 90}, {"time": 1348, "pitch": 48, "duration": 8, "velocity": 77}, {"time": 1354, "pitch": 53, "duration": 3, "velocity": 85}, {"time": 1360, "pitch": 43, "duration": 32, "velocity": 85}, {"time": 1360, "pitch": 55, "duration": 13, "velocity": 80}, {"time": 1360, "pitch": 59, "duration": 11, "velocity": 80}, {"time": 1372, "pitch": 50, "duration": 14, "velocity": 67}, {"time": 1384, "pitch": 55, "duration": 6, "velocity": 84}, {"time": 1384, "pitch": 59, "duration": 7, "velocity": 83}, {"time": 1384, "pitch": 62, "duration": 9, "velocity": 80}, {"time": 1390, "pitch": 50, "duration": 5, "velocity": 81}, {"time": 1396, "pitch": 55, "duration": 4, "velocity": 89}, {"time": 1408, "pitch": 40, "duration": 31, "velocity": 87}, {"time": 1408, "pitch": 59, "duration": 12, "velocity": 79}, {"time": 1408, "pitch": 64, "duration": 11, "velocity": 85}, {"time": 1420, "pitch": 47, "duration": 13, "velocity": 62}, {"time": 1432, "pitch": 55, "duration": 5, "velocity": 85}, {"time": 1432, "pitch": 59, "duration": 7, "velocity": 88}, {"time": 1432, "pitch": 64, "duration": 9, "velocity": 87}, {"time": 1438, "pitch": 47, "duration": 3, "velocity": 81}, {"time": 1444, "pitch": 55, "duration": 7, "velocity": 85}, {"time": 1456, "pitch": 45, "duration": 37, "velocity": 85}, {"time": 1456, "pitch": 57, "duration": 11, "velocity": 78}, {"time": 1456, "pitch": 60, "duration": 11, "velocity": 83}, {"time": 1468, "pitch": 52, "duration": 13, "velocity": 68}, {"time": 1480, "pitch": 57, "duration": 6, "velocity": 83}, {"time": 1480, "pitch": 60, "duration": 7, "velocity": 85}, {"time": 1486, "pitch": 52, "duration": 6, "velocity": 81}, {"time": 1492, "pitch": 59, "duration": 7, "velocity": 85}, {"time": 1498, "pitch": 60, "duration": 8, "velocity": 74}, {"time": 1504, "pitch": 38, "duration": 6, "velocity": 87}, {"time": 1504, "pitch": 57, "duration": 5, "velocity": 74}, {"time": 1504, "pitch": 62, "duration": 5, "velocity": 81}, {"time": 1516, "pitch": 38, "duration": 4, "velocity": 67}, {"time": 1516, "pitch": 57, "duration": 3, "velocity": 75}, {"time": 1516, "pitch": 62, "duration": 3, "velocity": 79}, {"time": 1528, "pitch": 38, "duration": 9, "velocity": 87}, {"time": 1528, "pitch": 57, "duration": 9, "velocity": 82}, {"time": 1528, "pitch": 62, "duration": 9, "velocity": 84}, {"time": 1528, "pitch": 65, "duration": 10, "velocity": 83}, {"time": 1540, "pitch": 38, "duration": 3, "velocity": 87}, {"time": 1540, "pitch": 57, "duration": 2, "velocity": 81}, {"time": 1540, "pitch": 62, "duration": 1, "velocity": 80}, {"time": 1540, "pitch": 65, "duration": 3, "velocity": 85}, {"time": 1552, "pitch": 40, "duration": 5, "velocity": 85}, {"time": 1552, "pitch": 59, "duration": 3, "velocity": 84}, {"time": 1552, "pitch": 64, "duration": 2, "velocity": 84}, {"time": 1552, "pitch": 67, "duration": 3, "velocity": 82}, {"time": 1564, "pitch": 40, "duration": 4, "velocity": 85}, {"time": 1564, "pitch": 59, "duration": 3, "velocity": 78}, {"time": 1564, "pitch": 64, "duration": 2, "velocity": 79}, {"time": 1564, "pitch": 67, "duration": 3, "velocity": 78}, {"time": 1576, "pitch": 40, "duration": 9, "velocity": 87}, {"time": 1576, "pitch": 59, "duration": 9, "velocity": 84}, {"time": 1576, "pitch": 64, "duration": 9, "velocity": 87}, {"time": 1576, "pitch": 67, "duration": 9, "velocity": 82}, {"time": 1588, "pitch": 40, "duration": 2, "velocity": 86}, {"time": 1588, "pitch": 59, "duration": 2, "velocity": 83}, {"time": 1588, "pitch": 64, "duration": 1, "velocity": 85}, {"time": 1588, "pitch": 67, "duration": 3, "velocity": 81}, {"time": 1600, "pitch": 41, "duration": 3, "velocity": 86}, {"time": 1600, "pitch": 60, "duration": 2, "velocity": 85}, {"time": 1600, "pitch": 65, "duration": 2, "velocity": 81}, {"time": 1600, "pitch": 69, "duration": 3, "velocity": 83}, {"time": 1612, "pitch": 41, "duration": 3, "velocity": 83}, {"time": 1612, "pitch": 48, "duration": 2, "velocity": 81}, {"time": 1612, "pitch": 60, "duration": 2, "velocity": 80}, {"time": 1612, "pitch": 65, "duration": 2, "velocity": 77}, {"time": 1612, "pitch": 69, "duration": 2, "velocity": 79}, {"time": 1624, "pitch": 41, "duration": 8, "velocity": 87}, {"time": 1624, "pitch": 48, "duration": 8, "velocity": 86}, {"time": 1624, "pitch": 60, "duration": 8, "velocity": 86}, {"time": 1624, "pitch": 65, "duration": 7, "velocity": 85}, {"time": 1624, "pitch": 69, "duration": 8, "velocity": 84}, {"time": 1636, "pitch": 41, "duration": 2, "velocity": 86}, {"time": 1636, "pitch": 60, "duration": 2, "velocity": 79}, {"time": 1636, "pitch": 65, "duration": 1, "velocity": 77}, {"time": 1636, "pitch": 69, "duration": 1, "velocity": 78}, {"time": 1648, "pitch": 43, "duration": 29, "velocity": 85}, {"time": 1648, "pitch": 55, "duration": 6, "velocity": 85}, {"time": 1648, "pitch": 59, "duration": 6, "velocity": 84}, {"time": 1648, "pitch": 62, "duration": 6, "velocity": 85}, {"time": 1654, "pitch": 50, "duration": 13, "velocity": 75}, {"time": 1660, "pitch": 55, "duration": 2, "velocity": 84}, {"time": 1666, "pitch": 55, "duration": 7, "velocity": 90}, {"time": 1666, "pitch": 59, "duration": 7, "velocity": 94}, {"time": 1666, "pitch": 62, "duration": 7, "velocity": 90}, {"time": 1666, "pitch": 67, "duration": 6, "velocity": 85}, {"time": 1672, "pitch": 50, "duration": 10, "velocity": 80}, {"time": 1678, "pitch": 62, "duration": 7, "velocity": 82}, {"time": 1684, "pitch": 55, "duration": 7, "velocity": 85}, {"time": 1690, "pitch": 59, "duration": 2, "velocity": 77}, {"time": 1696, "pitch": 43, "duration": 8, "velocity": 87}, {"time": 1696, "pitch": 55, "duration": 6, "velocity": 86}, {"time": 1696, "pitch": 59, "duration": 7, "velocity": 90}, {"time": 1696, "pitch": 62, "duration": 7, "velocity": 87}, {"time": 1696, "pitch": 67, "duration": 6, "velocity": 85}, {"time": 1720, "pitch": 42, "duration": 13, "velocity": 84}, {"time": 1720, "pitch": 54, "duration": 11, "velocity": 78}, {"time": 1720, "pitch": 57, "duration": 12, "velocity": 85}, {"time": 1720, "pitch": 60, "duration": 13, "velocity": 87}, {"time": 1744, "pitch": 41, "duration": 27, "velocity": 87}, {"time": 1744, "pitch": 53, "duration": 10, "velocity": 84}, {"time": 1744, "pitch": 60, "duration": 10, "velocity": 83}, {"time": 1756, "pitch": 48, "duration": 14, "velocity": 77}, {"time": 1768, "pitch": 53, "duration": 6, "velocity": 89}, {"time": 1768, "pitch": 57, "duration": 6, "velocity": 89}, {"time": 1768, "pitch": 60, "duration": 7, "velocity": 92}, {"time": 1774, "pitch": 48, "duration": 3, "velocity": 77}, {"time": 1780, "pitch": 53, "duration": 7, "velocity": 85}, {"time": 1792, "pitch": 41, "duration": 32, "velocity": 86}, {"time": 1792, "pitch": 53, "duration": 9, "velocity": 86}, {"time": 1792, "pitch": 60, "duration": 10, "velocity": 85}, {"time": 1804, "pitch": 48, "duration": 13, "velocity": 73}, {"time": 1810, "pitch": 53, "duration": 3, "velocity": 78}, {"time": 1816, "pitch": 53, "duration": 6, "velocity": 86}, {"time": 1816, "pitch": 65, "duration": 13, "velocity": 87}, {"time": 1822, "pitch": 48, "duration": 3, "velocity": 87}, {"time": 1828, "pitch": 53, "duration": 3, "velocity": 89}, {"time": 1840, "pitch": 40, "duration": 31, "velocity": 89}, {"time": 1840, "pitch": 52, "duration": 12, "velocity": 84}, {"time": 1840, "pitch": 55, "duration": 12, "velocity": 79}, {"time": 1852, "pitch": 47, "duration": 13, "velocity": 71}, {"time": 1858, "pitch": 59, "duration": 2, "velocity": 73}, {"time": 1864, "pitch": 52, "duration": 6, "velocity": 90}, {"time": 1864, "pitch": 64, "duration": 6, "velocity": 92}, {"time": 1870, "pitch": 47, "duration": 3, "velocity": 81}, {"time": 1876, "pitch": 52, "duration": 2, "velocity": 82}, {"time": 1876, "pitch": 59, "duration": 3, "velocity": 81}, {"time": 1888, "pitch": 45, "duration": 29, "velocity": 86}, {"time": 1888, "pitch": 57, "duration": 6, "velocity": 79}, {"time": 1888, "pitch": 60, "duration": 6, "velocity": 81}, {"time": 1894, "pitch": 52, "duration": 13, "velocity": 75}, {"time": 1900, "pitch": 57, "duration": 4, "velocity": 81}, {"time": 1906, "pitch": 57, "duration": 2, "velocity": 55}, {"time": 1906, "pitch": 69, "duration": 7, "velocity": 88}, {"time": 1912, "pitch": 52, "duration": 5, "velocity": 94}, {"time": 1918, "pitch": 57, "duration": 4, "velocity": 85}, {"time": 1918, "pitch": 60, "duration": 6, "velocity": 89}, {"time": 1918, "pitch": 64, "duration": 7, "velocity": 89}, {"time": 1924, "pitch": 45, "duration": 2, "velocity": 86}, {"time": 1930, "pitch": 57, "duration": 3, "velocity": 85}, {"time": 1936, "pitch": 38, "duration": 18, "velocity": 89}, {"time": 1936, "pitch": 57, "duration": 6, "velocity": 85}, {"time": 1936, "pitch": 62, "duration": 6, "velocity": 85}, {"time": 1948, "pitch": 57, "duration": 3, "velocity": 79}, {"time": 1948, "pitch": 62, "duration": 3, "velocity": 80}, {"time": 1960, "pitch": 38, "duration": 8, "velocity": 89}, {"time": 1960, "pitch": 45, "duration": 6, "velocity": 85}, {"time": 1960, "pitch": 57, "duration": 5, "velocity": 87}, {"time": 1960, "pitch": 62, "duration": 5, "velocity": 87}, {"time": 1960, "pitch": 65, "duration": 6, "velocity": 87}, {"time": 1972, "pitch": 57, "duration": 8, "velocity": 86}, {"time": 1978, "pitch": 62, "duration": 2, "velocity": 75}, {"time": 1984, "pitch": 43, "duration": 30, "velocity": 86}, {"time": 1984, "pitch": 55, "duration": 6, "velocity": 85}, {"time": 1984, "pitch": 59, "duration": 6, "velocity": 86}, {"time": 1990, "pitch": 50, "duration": 19, "velocity": 78}, {"time": 1996, "pitch": 62, "duration": 4, "velocity": 77}, {"time": 2002, "pitch": 62, "duration": 1, "velocity": 56}, {"time": 2002, "pitch": 67, "duration": 3, "velocity": 81}, {"time": 2008, "pitch": 55, "duration": 7, "velocity": 92}, {"time": 2008, "pitch": 59, "duration": 7, "velocity": 101}, {"time": 2008, "pitch": 62, "duration": 6, "velocity": 92}, {"time": 2008, "pitch": 67, "duration": 7, "velocity": 85}, {"time": 2014, "pitch": 50, "duration": 3, "velocity": 85}, {"time": 2020, "pitch": 43, "duration": 2, "velocity": 87}, {"time": 2026, "pitch": 55, "duration": 3, "velocity": 86}, {"time": 2032, "pitch": 36, "duration": 2, "velocity": 85}, {"time": 2032, "pitch": 55, "duration": 5, "velocity": 87}, {"time": 2032, "pitch": 60, "duration": 6, "velocity": 89}, {"time": 2032, "pitch": 64, "duration": 9, "velocity": 89}, {"time": 2044, "pitch": 48, "duration": 25, "velocity": 78}, {"time": 2050, "pitch": 55, "duration": 8, "velocity": 79}, {"time": 2056, "pitch": 60, "duration": 5, "velocity": 91}, {"time": 2056, "pitch": 62, "duration": 6, "velocity": 94}, {"time": 2062, "pitch": 55, "duration": 8, "velocity": 85}, {"time": 2068, "pitch": 60, "duration": 9, "velocity": 92}, {"time": 2074, "pitch": 48, "duration": 2, "velocity": 85}, {"time": 2080, "pitch": 48, "duration": 15, "velocity": 91}, {"time": 2080, "pitch": 58, "duration": 1, "velocity": 85}, {"time": 2080, "pitch": 60, "duration": 10, "velocity": 85}, {"time": 2080, "pitch": 65, "duration": 11, "velocity": 81}, {"time": 2092, "pitch": 60, "duration": 5, "velocity": 87}, {"time": 2092, "pitch": 64, "duration": 8, "velocity": 90}, {"time": 2104, "pitch": 48, "duration": 11, "velocity": 89}, {"time": 2104, "pitch": 55, "duration": 10, "velocity": 89}, {"time": 2104, "pitch": 62, "duration": 11, "velocity": 96}, {"time": 2104, "pitch": 67, "duration": 6, "velocity": 73}, {"time": 2116, "pitch": 60, "duration": 8, "velocity": 92}, {"time": 2128, "pitch": 41, "duration": 44, "velocity": 87}, {"time": 2128, "pitch": 53, "duration": 19, "velocity": 82}, {"time": 2128, "pitch": 60, "duration": 12, "velocity": 75}, {"time": 2134, "pitch": 48, "duration": 39, "velocity": 79}, {"time": 2140, "pitch": 57, "duration": 7, "velocity": 82}, {"time": 2146, "pitch": 60, "duration": 8, "velocity": 80}, {"time": 2158, "pitch": 53, "duration": 4, "velocity": 85}, {"time": 2158, "pitch": 57, "duration": 8, "velocity": 82}, {"time": 2158, "pitch": 60, "duration": 13, "velocity": 87}, {"time": 2158, "pitch": 65, "duration": 17, "velocity": 85}, {"time": 2164, "pitch": 53, "duration": 8, "velocity": 84}, {"time": 2170, "pitch": 57, "duration": 4, "velocity": 81}, {"time": 2176, "pitch": 43, "duration": 37, "velocity": 87}, {"time": 2176, "pitch": 55, "duration": 7, "velocity": 74}, {"time": 2176, "pitch": 59, "duration": 12, "velocity": 80}, {"time": 2182, "pitch": 50, "duration": 23, "velocity": 83}, {"time": 2188, "pitch": 55, "duration": 9, "velocity": 78}, {"time": 2194, "pitch": 62, "duration": 4, "velocity": 78}, {"time": 2200, "pitch": 55, "duration": 5, "velocity": 85}, {"time": 2200, "pitch": 67, "duration": 13, "velocity": 88}, {"time": 2206, "pitch": 62, "duration": 7, "velocity": 79}, {"time": 2212, "pitch": 55, "duration": 2, "velocity": 86}, {"time": 2224, "pitch": 40, "duration": 33, "velocity": 89}, {"time": 2224, "pitch": 59, "duration": 7, "velocity": 86}, {"time": 2224, "pitch": 64, "duration": 13, "velocity": 86}, {"time": 2230, "pitch": 47, "duration": 15, "velocity": 76}, {"time": 2236, "pitch": 59, "duration": 2, "velocity": 72}, {"time": 2242, "pitch": 59, "duration": 8, "velocity": 87}, {"time": 2242, "pitch": 67, "duration": 11, "velocity": 84}, {"time": 2248, "pitch": 47, "duration": 9, "velocity": 78}, {"time": 2254, "pitch": 59, "duration": 3, "velocity": 85}, {"time": 2254, "pitch": 64, "duration": 6, "velocity": 86}, {"time": 2260, "pitch": 59, "duration": 2, "velocity": 80}, {"time": 2272, "pitch": 45, "duration": 36, "velocity": 85}, {"time": 2272, "pitch": 57, "duration": 13, "velocity": 79}, {"time": 2272, "pitch": 60, "duration": 13, "velocity": 80}, {"time": 2278, "pitch": 52, "duration": 15, "velocity": 78}, {"time": 2284, "pitch": 64, "duration": 6, "velocity": 82}, {"time": 2290, "pitch": 69, "duration": 10, "velocity": 86}, {"time": 2296, "pitch": 52, "duration": 12, "velocity": 83}, {"time": 2302, "pitch": 57, "duration": 4, "velocity": 80}, {"time": 2302, "pitch": 60, "duration": 4, "velocity": 77}, {"time": 2302, "pitch": 64, "duration": 8, "velocity": 83}, {"time": 2320, "pitch": 50, "duration": 31, "velocity": 91}, {"time": 2320, "pitch": 57, "duration": 6, "velocity": 80}, {"time": 2320, "pitch": 62, "duration": 8, "velocity": 84}, {"time": 2320, "pitch": 65, "duration": 8, "velocity": 85}, {"time": 2326, "pitch": 53, "duration": 21, "velocity": 80}, {"time": 2332, "pitch": 57, "duration": 2, "velocity": 77}, {"time": 2344, "pitch": 57, "duration": 7, "velocity": 90}, {"time": 2344, "pitch": 62, "duration": 9, "velocity": 90}, {"time": 2350, "pitch": 53, "duration": 4, "velocity": 76}, {"time": 2356, "pitch": 57, "duration": 7, "velocity": 86}, {"time": 2362, "pitch": 62, "duration": 1, "velocity": 68}, {"time": 2368, "pitch": 43, "duration": 41, "velocity": 86}, {"time": 2368, "pitch": 55, "duration": 6, "velocity": 83}, {"time": 2368, "pitch": 62, "duration": 8, "velocity": 83}, {"time": 2374, "pitch": 50, "duration": 20, "velocity": 77}, {"time": 2380, "pitch": 55, "duration": 4, "velocity": 71}, {"time": 2386, "pitch": 59, "duration": 2, "velocity": 84}, {"time": 2392, "pitch": 55, "duration": 6, "velocity": 85}, {"time": 2392, "pitch": 59, "duration": 7, "velocity": 89}, {"time": 2392, "pitch": 67, "duration": 11, "velocity": 86}, {"time": 2398, "pitch": 50, "duration": 11, "velocity": 84}, {"time": 2404, "pitch": 55, "duration": 7, "velocity": 86}, {"time": 2416, "pitch": 48, "duration": 43, "velocity": 87}, {"time": 2416, "pitch": 55, "duration": 5, "velocity": 86}, {"time": 2416, "pitch": 60, "duration": 15, "velocity": 85}, {"time": 2428, "pitch": 55, "duration": 7, "velocity": 85}, {"time": 2440, "pitch": 55, "duration": 13, "velocity": 86}, {"time": 2440, "pitch": 62, "duration": 13, "velocity": 86}, {"time": 2452, "pitch": 60, "duration": 8, "velocity": 77}, {"time": 2464, "pitch": 48, "duration": 29, "velocity": 85}, {"time": 2464, "pitch": 55, "duration": 8, "velocity": 79}, {"time": 2464, "pitch": 64, "duration": 35, "velocity": 82}, {"time": 2476, "pitch": 55, "duration": 5, "velocity": 72}, {"time": 2488, "pitch": 55, "duration": 10, "velocity": 81}, {"time": 2488, "pitch": 60, "duration": 11, "velocity": 83}, {"time": 2512, "pitch": 45, "duration": 45, "velocity": 85}, {"time": 2512, "pitch": 57, "duration": 7, "velocity": 76}, {"time": 2512, "pitch": 60, "duration": 12, "velocity": 79}, {"time": 2518, "pitch": 52, "duration": 44, "velocity": 73}, {"time": 2524, "pitch": 57, "duration": 8, "velocity": 76}, {"time": 2530, "pitch": 60, "duration": 3, "velocity": 73}, {"time": 2536, "pitch": 57, "duration": 3, "velocity": 78}, {"time": 2536, "pitch": 64, "duration": 9, "velocity": 86}, {"time": 2542, "pitch": 57, "duration": 5, "velocity": 70}, {"time": 2548, "pitch": 60, "duration": 5, "velocity": 65}, {"time": 2554, "pitch": 57, "duration": 3, "velocity": 60}, {"time": 2560, "pitch": 40, "duration": 35, "velocity": 80}, {"time": 2560, "pitch": 55, "duration": 6, "velocity": 74}, {"time": 2560, "pitch": 59, "duration": 13, "velocity": 76}, {"time": 2566, "pitch": 52, "duration": 26, "velocity": 75}, {"time": 2572, "pitch": 55, "duration": 13, "velocity": 74}, {"time": 2578, "pitch": 59, "duration": 8, "velocity": 79}, {"time": 2584, "pitch": 64, "duration": 13, "velocity": 86}, {"time": 2590, "pitch": 55, "duration": 6, "velocity": 73}, {"time": 2596, "pitch": 59, "duration": 2, "velocity": 73}, {"time": 2608, "pitch": 38, "duration": 21, "velocity": 87}, {"time": 2608, "pitch": 57, "duration": 6, "velocity": 78}, {"time": 2608, "pitch": 62, "duration": 13, "velocity": 79}, {"time": 2608, "pitch": 65, "duration": 13, "velocity": 81}, {"time": 2614, "pitch": 45, "duration": 16, "velocity": 75}, {"time": 2620, "pitch": 57, "duration": 8, "velocity": 85}, {"time": 2626, "pitch": 62, "duration": 4, "velocity": 86}, {"time": 2632, "pitch": 40, "duration": 20, "velocity": 87}, {"time": 2632, "pitch": 59, "duration": 7, "velocity": 86}, {"time": 2632, "pitch": 64, "duration": 12, "velocity": 89}, {"time": 2638, "pitch": 47, "duration": 14, "velocity": 75}, {"time": 2644, "pitch": 59, "duration": 10, "velocity": 83}, {"time": 2650, "pitch": 64, "duration": 6, "velocity": 86}, {"time": 2656, "pitch": 45, "duration": 41, "velocity": 87}, {"time": 2656, "pitch": 57, "duration": 6, "velocity": 87}, {"time": 2656, "pitch": 62, "duration": 12, "velocity": 86}, {"time": 2662, "pitch": 52, "duration": 31, "velocity": 87}, {"time": 2668, "pitch": 57, "duration": 10, "velocity": 87}, {"time": 2674, "pitch": 62, "duration": 8, "velocity": 85}, {"time": 2680, "pitch": 64, "duration": 3, "velocity": 85}, {"time": 2686, "pitch": 69, "duration": 4, "velocity": 86}, {"time": 2704, "pitch": 45, "duration": 44, "velocity": 88}, {"time": 2704, "pitch": 64, "duration": 16, "velocity": 85}, {"time": 2704, "pitch": 69, "duration": 18, "velocity": 80}, {"time": 2716, "pitch": 52, "duration": 30, "velocity": 62}, {"time": 2728, "pitch": 64, "duration": 24, "velocity": 42}, {"time": 2728, "pitch": 69, "duration": 22, "velocity": 73}, {"time": 2728, "pitch": 76, "duration": 21, "velocity": 82}, {"time": 2752, "pitch": 45, "duration": 33, "velocity": 85}, {"time": 2752, "pitch": 57, "duration": 12, "velocity": 78}, {"time": 2752, "pitch": 60, "duration": 12, "velocity": 79}, {"time": 2764, "pitch": 52, "duration": 20, "velocity": 59}, {"time": 2776, "pitch": 57, "duration": 5, "velocity": 77}, {"time": 2776, "pitch": 60, "duration": 8, "velocity": 77}, {"time": 2776, "pitch": 64, "duration": 17, "velocity": 86}, {"time": 2800, "pitch": 40, "duration": 32, "velocity": 76}, {"time": 2800, "pitch": 55, "duration": 6, "velocity": 80}, {"time": 2800, "pitch": 59, "duration": 14, "velocity": 82}, {"time": 2812, "pitch": 55, "duration": 2, "velocity": 52}, {"time": 2824, "pitch": 55, "duration": 4, "velocity": 78}, {"time": 2824, "pitch": 59, "duration": 8, "velocity": 82}, {"time": 2824, "pitch": 64, "duration": 12, "velocity": 87}, {"time": 2836, "pitch": 55, "duration": 3, "velocity": 78}, {"time": 2848, "pitch": 41, "duration": 30, "velocity": 77}, {"time": 2848, "pitch": 53, "duration": 12, "velocity": 73}, {"time": 2848, "pitch": 57, "duration": 12, "velocity": 73}, {"time": 2860, "pitch": 48, "duration": 17, "velocity": 56}, {"time": 2872, "pitch": 53, "duration": 4, "velocity": 80}, {"time": 2872, "pitch": 57, "duration": 4, "velocity": 79}, {"time": 2872, "pitch": 60, "duration": 5, "velocity": 81}, {"time": 2896, "pitch": 48, "duration": 24, "velocity": 80}, {"time": 2896, "pitch": 60, "duration": 12, "velocity": 80}, {"time": 2896, "pitch": 64, "duration": 18, "velocity": 84}, {"time": 2908, "pitch": 55, "duration": 7, "velocity": 80}, {"time": 2920, "pitch": 47, "duration": 15, "velocity": 81}, {"time": 2920, "pitch": 55, "duration": 11, "velocity": 75}, {"time": 2920, "pitch": 59, "duration": 13, "velocity": 83}, {"time": 2920, "pitch": 64, "duration": 18, "velocity": 88}, {"time": 2944, "pitch": 45, "duration": 36, "velocity": 83}, {"time": 2944, "pitch": 57, "duration": 12, "velocity": 72}, {"time": 2944, "pitch": 60, "duration": 12, "velocity": 76}, {"time": 2944, "pitch": 64, "duration": 11, "velocity": 82}, {"time": 2956, "pitch": 52, "duration": 14, "velocity": 64}, {"time": 2968, "pitch": 57, "duration": 7, "velocity": 80}, {"time": 2968, "pitch": 60, "duration": 8, "velocity": 85}, {"time": 2968, "pitch": 64, "duration": 12, "velocity": 87}, {"time": 2974, "pitch": 52, "duration": 7, "velocity": 74}, {"time": 2980, "pitch": 57, "duration": 3, "velocity": 81}, {"time": 2992, "pitch": 40, "duration": 38, "velocity": 82}, {"time": 2992, "pitch": 55, "duration": 8, "velocity": 76}, {"time": 2992, "pitch": 59, "duration": 11, "velocity": 80}, {"time": 3004, "pitch": 47, "duration": 14, "velocity": 52}, {"time": 3016, "pitch": 52, "duration": 13, "velocity": 83}, {"time": 3016, "pitch": 59, "duration": 13, "velocity": 81}, {"time": 3028, "pitch": 55, "duration": 7, "velocity": 86}, {"time": 3040, "pitch": 38, "duration": 29, "velocity": 86}, {"time": 3040, "pitch": 53, "duration": 11, "velocity": 78}, {"time": 3040, "pitch": 57, "duration": 13, "velocity": 80}, {"time": 3052, "pitch": 45, "duration": 16, "velocity": 65}, {"time": 3064, "pitch": 50, "duration": 4, "velocity": 86}, {"time": 3064, "pitch": 53, "duration": 4, "velocity": 84}, {"time": 3064, "pitch": 57, "duration": 5, "velocity": 81}, {"time": 3088, "pitch": 40, "duration": 20, "velocity": 88}, {"time": 3088, "pitch": 52, "duration": 7, "velocity": 86}, {"time": 3088, "pitch": 57, "duration": 10, "velocity": 85}, {"time": 3094, "pitch": 47, "duration": 11, "velocity": 74}, {"time": 3100, "pitch": 52, "duration": 4, "velocity": 85}, {"time": 3112, "pitch": 40, "duration": 12, "velocity": 88}, {"time": 3112, "pitch": 52, "duration": 6, "velocity": 86}, {"time": 3112, "pitch": 56, "duration": 13, "velocity": 86}, {"time": 3118, "pitch": 47, "duration": 6, "velocity": 78}, {"time": 3124, "pitch": 52, "duration": 6, "velocity": 85}, {"time": 3130, "pitch": 59, "duration": 5, "velocity": 75}, {"time": 3136, "pitch": 45, "duration": 37, "velocity": 84}, {"time": 3136, "pitch": 57, "duration": 12, "velocity": 73}, {"time": 3136, "pitch": 60, "duration": 11, "velocity": 79}, {"time": 3148, "pitch": 52, "duration": 14, "velocity": 63}, {"time": 3160, "pitch": 57, "duration": 7, "velocity": 79}, {"time": 3160, "pitch": 64, "duration": 7, "velocity": 88}, {"time": 3166, "pitch": 52, "duration": 6, "velocity": 76}, {"time": 3172, "pitch": 60, "duration": 6, "velocity": 83}, {"time": 3178, "pitch": 57, "duration": 8, "velocity": 72}, {"time": 3184, "pitch": 40, "duration": 34, "velocity": 80}, {"time": 3184, "pitch": 59, "duration": 12, "velocity": 79}, {"time": 3196, "pitch": 47, "duration": 16, "velocity": 68}, {"time": 3208, "pitch": 55, "duration": 13, "velocity": 82}, {"time": 3220, "pitch": 52, "duration": 4, "velocity": 90}, {"time": 3232, "pitch": 41, "duration": 31, "velocity": 83}, {"time": 3232, "pitch": 53, "duration": 13, "velocity": 76}, {"time": 3232, "pitch": 57, "duration": 18, "velocity": 77}, {"time": 3244, "pitch": 48, "duration": 16, "velocity": 67}, {"time": 3256, "pitch": 53, "duration": 8, "velocity": 77}, {"time": 3256, "pitch": 57, "duration": 8, "velocity": 84}, {"time": 3280, "pitch": 48, "duration": 21, "velocity": 85}, {"time": 3280, "pitch": 55, "duration": 7, "velocity": 75}, {"time": 3280, "pitch": 60, "duration": 16, "velocity": 70}, {"time": 3292, "pitch": 55, "duration": 6, "velocity": 80}, {"time": 3304, "pitch": 47, "duration": 13, "velocity": 86}, {"time": 3304, "pitch": 55, "duration": 5, "velocity": 86}, {"time": 3304, "pitch": 59, "duration": 13, "velocity": 86}, {"time": 3316, "pitch": 55, "duration": 3, "velocity": 82}, {"time": 3328, "pitch": 45, "duration": 36, "velocity": 86}, {"time": 3328, "pitch": 57, "duration": 12, "velocity": 79}, {"time": 3328, "pitch": 60, "duration": 12, "velocity": 81}, {"time": 3340, "pitch": 52, "duration": 14, "velocity": 63}, {"time": 3352, "pitch": 57, "duration": 6, "velocity": 79}, {"time": 3352, "pitch": 60, "duration": 13, "velocity": 82}, {"time": 3352, "pitch": 64, "duration": 11, "velocity": 87}, {"time": 3358, "pitch": 52, "duration": 6, "velocity": 76}, {"time": 3364, "pitch": 57, "duration": 4, "velocity": 82}, {"time": 3376, "pitch": 40, "duration": 37, "velocity": 81}, {"time": 3376, "pitch": 55, "duration": 14, "velocity": 78}, {"time": 3376, "pitch": 59, "duration": 16, "velocity": 79}, {"time": 3388, "pitch": 47, "duration": 13, "velocity": 53}, {"time": 3400, "pitch": 55, "duration": 6, "velocity": 86}, {"time": 3400, "pitch": 64, "duration": 12, "velocity": 87}, {"time": 3406, "pitch": 47, "duration": 6, "velocity": 75}, {"time": 3412, "pitch": 59, "duration": 7, "velocity": 82}, {"time": 3418, "pitch": 55, "duration": 2, "velocity": 79}, {"time": 3424, "pitch": 38, "duration": 39, "velocity": 87}, {"time": 3424, "pitch": 57, "duration": 13, "velocity": 80}, {"time": 3424, "pitch": 62, "duration": 20, "velocity": 78}, {"time": 3436, "pitch": 45, "duration": 24, "velocity": 62}, {"time": 3442, "pitch": 57, "duration": 7, "velocity": 78}, {"time": 3448, "pitch": 65, "duration": 7, "velocity": 86}, {"time": 3454, "pitch": 62, "duration": 7, "velocity": 81}, {"time": 3460, "pitch": 57, "duration": 4, "velocity": 82}, {"time": 3472, "pitch": 43, "duration": 38, "velocity": 85}, {"time": 3472, "pitch": 55, "duration": 6, "velocity": 78}, {"time": 3472, "pitch": 59, "duration": 10, "velocity": 79}, {"time": 3478, "pitch": 50, "duration": 30, "velocity": 74}, {"time": 3484, "pitch": 55, "duration": 10, "velocity": 85}, {"time": 3490, "pitch": 62, "duration": 7, "velocity": 86}, {"time": 3496, "pitch": 55, "duration": 2, "velocity": 74}, {"time": 3496, "pitch": 67, "duration": 10, "velocity": 87}, {"time": 3502, "pitch": 62, "duration": 6, "velocity": 86}, {"time": 3508, "pitch": 55, "duration": 3, "velocity": 86}, {"time": 3520, "pitch": 41, "duration": 30, "velocity": 85}, {"time": 3520, "pitch": 53, "duration": 14, "velocity": 80}, {"time": 3520, "pitch": 57, "duration": 13, "velocity": 83}, {"time": 3532, "pitch": 48, "duration": 15, "velocity": 71}, {"time": 3544, "pitch": 53, "duration": 10, "velocity": 85}, {"time": 3544, "pitch": 57, "duration": 11, "velocity": 91}, {"time": 3544, "pitch": 60, "duration": 15, "velocity": 90}, {"time": 3556, "pitch": 48, "duration": 8, "velocity": 77}, {"time": 3562, "pitch": 53, "duration": 3, "velocity": 85}, {"time": 3568, "pitch": 43, "duration": 32, "velocity": 85}, {"time": 3568, "pitch": 55, "duration": 13, "velocity": 80}, {"time": 3568, "pitch": 59, "duration": 11, "velocity": 80}, {"time": 3580, "pitch": 50, "duration": 14, "velocity": 67}, {"time": 3592, "pitch": 55, "duration": 6, "velocity": 84}, {"time": 3592, "pitch": 59, "duration": 7, "velocity": 83}, {"time": 3592, "pitch": 62, "duration": 9, "velocity": 80}, {"time": 3598, "pitch": 50, "duration": 5, "velocity": 81}, {"time": 3604, "pitch": 55, "duration": 4, "velocity": 89}, {"time": 3616, "pitch": 40, "duration": 31, "velocity": 87}, {"time": 3616, "pitch": 59, "duration": 12, "velocity": 79}, {"time": 3616, "pitch": 64, "duration": 11, "velocity": 85}, {"time": 3628, "pitch": 47, "duration": 13, "velocity": 62}, {"time": 3640, "pitch": 55, "duration": 5, "velocity": 85}, {"time": 3640, "pitch": 59, "duration": 7, "velocity": 88}, {"time": 3640, "pitch": 64, "duration": 9, "velocity": 87}, {"time": 3646, "pitch": 47, "duration": 3, "velocity": 81}, {"time": 3652, "pitch": 55, "duration": 7, "velocity": 85}, {"time": 3664, "pitch": 45, "duration": 37, "velocity": 85}, {"time": 3664, "pitch": 57, "duration": 11, "velocity": 78}, {"time": 3664, "pitch": 60, "duration": 11, "velocity": 83}, {"time": 3676, "pitch": 52, "duration": 13, "velocity": 68}, {"time": 3688, "pitch": 57, "duration": 6, "velocity": 83}, {"time": 3688, "pitch": 60, "duration": 7, "velocity": 85}, {"time": 3694, "pitch": 52, "duration": 6, "velocity": 81}, {"time": 3700, "pitch": 59, "duration": 7, "velocity": 85}, {"time": 3706, "pitch": 60, "duration": 8, "velocity": 74}, {"time": 3712, "pitch": 38, "duration": 6, "velocity": 87}, {"time": 3712, "pitch": 57, "duration": 5, "velocity": 74}, {"time": 3712, "pitch": 62, "duration": 5, "velocity": 81}, {"time": 3724, "pitch": 38, "duration": 4, "velocity": 67}, {"time": 3724, "pitch": 57, "duration": 3, "velocity": 75}, {"time": 3724, "pitch": 62, "duration": 3, "velocity": 79}, {"time": 3736, "pitch": 38, "duration": 9, "velocity": 87}, {"time": 3736, "pitch": 57, "duration": 9, "velocity": 82}, {"time": 3736, "pitch": 62, "duration": 9, "velocity": 84}, {"time": 3736, "pitch": 65, "duration": 10, "velocity": 83}, {"time": 3748, "pitch": 38, "duration": 3, "velocity": 87}, {"time": 3748, "pitch": 57, "duration": 2, "velocity": 81}, {"time": 3748, "pitch": 62, "duration": 1, "velocity": 80}, {"time": 3748, "pitch": 65, "duration": 3, "velocity": 85}, {"time": 3760, "pitch": 40, "duration": 5, "velocity": 85}, {"time": 3760, "pitch": 59, "duration": 3, "velocity": 84}, {"time": 3760, "pitch": 64, "duration": 2, "velocity": 84}, {"time": 3760, "pitch": 67, "duration": 3, "velocity": 82}, {"time": 3772, "pitch": 40, "duration": 4, "velocity": 85}, {"time": 3772, "pitch": 59, "duration": 3, "velocity": 78}, {"time": 3772, "pitch": 64, "duration": 2, "velocity": 79}, {"time": 3772, "pitch": 67, "duration": 3, "velocity": 78}, {"time": 3784, "pitch": 40, "duration": 9, "velocity": 87}, {"time": 3784, "pitch": 59, "duration": 9, "velocity": 84}, {"time": 3784, "pitch": 64, "duration": 9, "velocity": 87}, {"time": 3784, "pitch": 67, "duration": 9, "velocity": 82}, {"time": 3796, "pitch": 40, "duration": 2, "velocity": 86}, {"time": 3796, "pitch": 59, "duration": 2, "velocity": 83}, {"time": 3796, "pitch": 64, "duration": 1, "velocity": 85}, {"time": 3796, "pitch": 67, "duration": 3, "velocity": 81}, {"time": 3808, "pitch": 41, "duration": 3, "velocity": 86}, {"time": 3808, "pitch": 60, "duration": 2, "velocity": 85}, {"time": 3808, "pitch": 65, "duration": 2, "velocity": 81}, {"time": 3808, "pitch": 69, "duration": 3, "velocity": 83}, {"time": 3820, "pitch": 41, "duration": 3, "velocity": 83}, {"time": 3820, "pitch": 48, "duration": 2, "velocity": 81}, {"time": 3820, "pitch": 60, "duration": 2, "velocity": 80}, {"time": 3820, "pitch": 65, "duration": 2, "velocity": 77}, {"time": 3820, "pitch": 69, "duration": 2, "velocity": 79}, {"time": 3832, "pitch": 41, "duration": 8, "velocity": 87}, {"time": 3832, "pitch": 48, "duration": 8, "velocity": 86}, {"time": 3832, "pitch": 60, "duration": 8, "velocity": 86}, {"time": 3832, "pitch": 65, "duration": 7, "velocity": 85}, {"time": 3832, "pitch": 69, "duration": 8, "velocity": 84}, {"time": 3844, "pitch": 41, "duration": 2, "velocity": 86}, {"time": 3844, "pitch": 60, "duration": 2, "velocity": 79}, {"time": 3844, "pitch": 65, "duration": 1, "velocity": 77}, {"time": 3844, "pitch": 69, "duration": 1, "velocity": 78}, {"time": 3856, "pitch": 43, "duration": 29, "velocity": 85}, {"time": 3856, "pitch": 55, "duration": 6, "velocity": 85}, {"time": 3856, "pitch": 59, "duration": 6, "velocity": 84}, {"time": 3856, "pitch": 62, "duration": 6, "velocity": 85}, {"time": 3862, "pitch": 50, "duration": 13, "velocity": 75}, {"time": 3868, "pitch": 55, "duration": 2, "velocity": 84}, {"time": 3874, "pitch": 55, "duration": 7, "velocity": 90}, {"time": 3874, "pitch": 59, "duration": 7, "velocity": 94}, {"time": 3874, "pitch": 62, "duration": 7, "velocity": 90}, {"time": 3874, "pitch": 67, "duration": 6, "velocity": 85}, {"time": 3880, "pitch": 50, "duration": 10, "velocity": 80}, {"time": 3886, "pitch": 62, "duration": 7, "velocity": 82}, {"time": 3892, "pitch": 55, "duration": 7, "velocity": 85}, {"time": 3898, "pitch": 59, "duration": 2, "velocity": 77}, {"time": 3904, "pitch": 44, "duration": 20, "velocity": 99}, {"time": 3904, "pitch": 56, "duration": 13, "velocity": 78}, {"time": 3904, "pitch": 63, "duration": 12, "velocity": 80}, {"time": 3916, "pitch": 51, "duration": 9, "velocity": 72}, {"time": 3922, "pitch": 56, "duration": 3, "velocity": 83}, {"time": 3928, "pitch": 44, "duration": 22, "velocity": 101}, {"time": 3928, "pitch": 51, "duration": 23, "velocity": 89}, {"time": 3928, "pitch": 56, "duration": 9, "velocity": 88}, {"time": 3928, "pitch": 60, "duration": 8, "velocity": 85}, {"time": 3928, "pitch": 63, "duration": 8, "velocity": 84}, {"time": 3940, "pitch": 56, "duration": 10, "velocity": 86}, {"time": 3940, "pitch": 60, "duration": 10, "velocity": 86}, {"time": 3940, "pitch": 63, "duration": 10, "velocity": 85}, {"time": 3940, "pitch": 68, "duration": 11, "velocity": 85}, {"time": 3952, "pitch": 42, "duration": 27, "velocity": 87}, {"time": 3952, "pitch": 54, "duration": 10, "velocity": 84}, {"time": 3952, "pitch": 61, "duration": 10, "velocity": 83}, {"time": 3964, "pitch": 49, "duration": 14, "velocity": 77}, {"time": 3976, "pitch": 54, "duration": 6, "velocity": 89}, {"time": 3976, "pitch": 58, "duration": 6, "velocity": 89}, {"time": 3976, "pitch": 61, "duration": 7, "velocity": 92}, {"time": 3982, "pitch": 49, "duration": 3, "velocity": 77}, {"time": 3988, "pitch": 54, "duration": 7, "velocity": 85}, {"time": 4000, "pitch": 42, "duration": 32, "velocity": 86}, {"time": 4000, "pitch": 54, "duration": 9, "velocity": 86}, {"time": 4000, "pitch": 61, "duration": 10, "velocity": 85}, {"time": 4012, "pitch": 49, "duration": 13, "velocity": 73}, {"time": 4018, "pitch": 54, "duration": 3, "velocity": 78}, {"time": 4024, "pitch": 54, "duration": 6, "velocity": 86}, {"time": 4024, "pitch": 66, "duration": 13, "velocity": 87}, {"time": 4030, "pitch": 49, "duration": 3, "velocity": 87}, {"time": 4036, "pitch": 54, "duration": 3, "velocity": 89}, {"time": 4048, "pitch": 41, "duration": 31, "velocity": 89}, {"time": 4048, "pitch": 53, "duration": 12, "velocity": 84}, {"time": 4048, "pitch": 56, "duration": 12, "velocity": 79}, {"time": 4060, "pitch": 48, "duration": 13, "velocity": 71}, {"time": 4066, "pitch": 60, "duration": 2, "velocity": 73}, {"time": 4072, "pitch": 53, "duration": 6, "velocity": 90}, {"time": 4072, "pitch": 65, "duration": 6, "velocity": 92}, {"time": 4078, "pitch": 48, "duration": 3, "velocity": 81}, {"time": 4084, "pitch": 53, "duration": 2, "velocity": 82}, {"time": 4084, "pitch": 60, "duration": 3, "velocity": 81}, {"time": 4096, "pitch": 46, "duration": 29, "velocity": 86}, {"time": 4096, "pitch": 58, "duration": 6, "velocity": 79}, {"time": 4096, "pitch": 61, "duration": 6, "velocity": 81}, {"time": 4102, "pitch": 53, "duration": 13, "velocity": 75}, {"time": 4108, "pitch": 58, "duration": 4, "velocity": 81}, {"time": 4114, "pitch": 58, "duration": 2, "velocity": 55}, {"time": 4114, "pitch": 70, "duration": 7, "velocity": 88}, {"time": 4120, "pitch": 53, "duration": 5, "velocity": 94}, {"time": 4126, "pitch": 58, "duration": 4, "velocity": 85}, {"time": 4126, "pitch": 61, "duration": 6, "velocity": 89}, {"time": 4126, "pitch": 65, "duration": 7, "velocity": 89}, {"time": 4132, "pitch": 46, "duration": 2, "velocity": 86}, {"time": 4138, "pitch": 58, "duration": 3, "velocity": 85}, {"time": 4144, "pitch": 39, "duration": 18, "velocity": 89}, {"time": 4144, "pitch": 58, "duration": 6, "velocity": 85}, {"time": 4144, "pitch": 63, "duration": 6, "velocity": 85}, {"time": 4156, "pitch": 58, "duration": 3, "velocity": 79}, {"time": 4156, "pitch": 63, "duration": 3, "velocity": 80}, {"time": 4168, "pitch": 39, "duration": 8, "velocity": 89}, {"time": 4168, "pitch": 46, "duration": 6, "velocity": 85}, {"time": 4168, "pitch": 58, "duration": 5, "velocity": 87}, {"time": 4168, "pitch": 63, "duration": 5, "velocity": 87}, {"time": 4168, "pitch": 66, "duration": 6, "velocity": 87}, {"time": 4180, "pitch": 58, "duration": 8, "velocity": 86}, {"time": 4186, "pitch": 63, "duration": 2, "velocity": 75}, {"time": 4192, "pitch": 44, "duration": 30, "velocity": 86}, {"time": 4192, "pitch": 56, "duration": 6, "velocity": 85}, {"time": 4192, "pitch": 60, "duration": 6, "velocity": 86}, {"time": 4198, "pitch": 51, "duration": 19, "velocity": 78}, {"time": 4204, "pitch": 63, "duration": 4, "velocity": 77}, {"time": 4210, "pitch": 63, "duration": 1, "velocity": 56}, {"time": 4210, "pitch": 68, "duration": 3, "velocity": 81}, {"time": 4216, "pitch": 56, "duration": 7, "velocity": 92}, {"time": 4216, "pitch": 60, "duration": 7, "velocity": 101}, {"time": 4216, "pitch": 63, "duration": 6, "velocity": 92}, {"time": 4216, "pitch": 68, "duration": 7, "velocity": 85}, {"time": 4222, "pitch": 51, "duration": 3, "velocity": 85}, {"time": 4228, "pitch": 44, "duration": 2, "velocity": 87}, {"time": 4234, "pitch": 56, "duration": 3, "velocity": 86}, {"time": 4240, "pitch": 37, "duration": 2, "velocity": 85}, {"time": 4240, "pitch": 56, "duration": 5, "velocity": 87}, {"time": 4240, "pitch": 61, "duration": 6, "velocity": 89}, {"time": 4240, "pitch": 65, "duration": 9, "velocity": 89}, {"time": 4252, "pitch": 49, "duration": 25, "velocity": 78}, {"time": 4258, "pitch": 56, "duration": 8, "velocity": 79}, {"time": 4264, "pitch": 61, "duration": 5, "velocity": 91}, {"time": 4264, "pitch": 63, "duration": 6, "velocity": 94}, {"time": 4270, "pitch": 56, "duration": 8, "velocity": 85}, {"time": 4276, "pitch": 61, "duration": 9, "velocity": 92}, {"time": 4282, "pitch": 49, "duration": 2, "velocity": 85}, {"time": 4288, "pitch": 49, "duration": 15, "velocity": 91}, {"time": 4288, "pitch": 59, "duration": 1, "velocity": 85}, {"time": 4288, "pitch": 61, "duration": 10, "velocity": 85}, {"time": 4288, "pitch": 66, "duration": 11, "velocity": 81}, {"time": 4300, "pitch": 61, "duration": 5, "velocity": 87}, {"time": 4300, "pitch": 65, "duration": 8, "velocity": 90}, {"time": 4312, "pitch": 49, "duration": 11, "velocity": 89}, {"time": 4312, "pitch": 56, "duration": 10, "velocity": 89}, {"time": 4312, "pitch": 63, "duration": 11, "velocity": 96}, {"time": 4312, "pitch": 68, "duration": 6, "velocity": 73}, {"time": 4324, "pitch": 61, "duration": 8, "velocity": 92}, {"time": 4336, "pitch": 42, "duration": 44, "velocity": 87}, {"time": 4336, "pitch": 54, "duration": 19, "velocity": 82}, {"time": 4336, "pitch": 61, "duration": 12, "velocity": 75}, {"time": 4342, "pitch": 49, "duration": 39, "velocity": 79}, {"time": 4348, "pitch": 58, "duration": 7, "velocity": 82}, {"time": 4354, "pitch": 61, "duration": 8, "velocity": 80}, {"time": 4366, "pitch": 54, "duration": 4, "velocity": 85}, {"time": 4366, "pitch": 58, "duration": 8, "velocity": 82}, {"time": 4366, "pitch": 61, "duration": 13, "velocity": 87}, {"time": 4366, "pitch": 66, "duration": 17, "velocity": 85}, {"time": 4372, "pitch": 54, "duration": 8, "velocity": 84}, {"time": 4378, "pitch": 58, "duration": 4, "velocity": 81}, {"time": 4384, "pitch": 44, "duration": 37, "velocity": 87}, {"time": 4384, "pitch": 56, "duration": 7, "velocity": 74}, {"time": 4384, "pitch": 60, "duration": 12, "velocity": 80}, {"time": 4390, "pitch": 51, "duration": 23, "velocity": 83}, {"time": 4396, "pitch": 56, "duration": 9, "velocity": 78}, {"time": 4402, "pitch": 63, "duration": 4, "velocity": 78}, {"time": 4408, "pitch": 56, "duration": 5, "velocity": 85}, {"time": 4408, "pitch": 68, "duration": 13, "velocity": 88}, {"time": 4414, "pitch": 63, "duration": 7, "velocity": 79}, {"time": 4420, "pitch": 56, "duration": 2, "velocity": 86}, {"time": 4432, "pitch": 41, "duration": 33, "velocity": 89}, {"time": 4432, "pitch": 60, "duration": 7, "velocity": 86}, {"time": 4432, "pitch": 65, "duration": 13, "velocity": 86}, {"time": 4438, "pitch": 48, "duration": 15, "velocity": 76}, {"time": 4444, "pitch": 60, "duration": 2, "velocity": 72}, {"time": 4450, "pitch": 60, "duration": 8, "velocity": 87}, {"time": 4450, "pitch": 68, "duration": 11, "velocity": 84}, {"time": 4456, "pitch": 48, "duration": 9, "velocity": 78}, {"time": 4462, "pitch": 60, "duration": 3, "velocity": 85}, {"time": 4462, "pitch": 65, "duration": 6, "velocity": 86}, {"time": 4468, "pitch": 60, "duration": 2, "velocity": 80}, {"time": 4480, "pitch": 46, "duration": 36, "velocity": 85}, {"time": 4480, "pitch": 58, "duration": 13, "velocity": 79}, {"time": 4480, "pitch": 61, "duration": 13, "velocity": 80}, {"time": 4486, "pitch": 53, "duration": 15, "velocity": 78}, {"time": 4492, "pitch": 65, "duration": 6, "velocity": 82}, {"time": 4498, "pitch": 70, "duration": 10, "velocity": 86}, {"time": 4504, "pitch": 53, "duration": 12, "velocity": 83}, {"time": 4510, "pitch": 58, "duration": 4, "velocity": 80}, {"time": 4510, "pitch": 61, "duration": 4, "velocity": 77}, {"time": 4510, "pitch": 65, "duration": 8, "velocity": 83}, {"time": 4528, "pitch": 51, "duration": 31, "velocity": 91}, {"time": 4528, "pitch": 58, "duration": 6, "velocity": 80}, {"time": 4528, "pitch": 63, "duration": 8, "velocity": 84}, {"time": 4528, "pitch": 66, "duration": 8, "velocity": 85}, {"time": 4534, "pitch": 54, "duration": 21, "velocity": 80}, {"time": 4540, "pitch": 58, "duration": 2, "velocity": 77}, {"time": 4552, "pitch": 58, "duration": 7, "velocity": 90}, {"time": 4552, "pitch": 63, "duration": 9, "velocity": 90}, {"time": 4558, "pitch": 54, "duration": 4, "velocity": 76}, {"time": 4564, "pitch": 58, "duration": 7, "velocity": 86}, {"time": 4570, "pitch": 63, "duration": 1, "velocity": 68}, {"time": 4576, "pitch": 44, "duration": 41, "velocity": 86}, {"time": 4576, "pitch": 56, "duration": 6, "velocity": 83}, {"time": 4576, "pitch": 63, "duration": 8, "velocity": 83}, {"time": 4582, "pitch": 51, "duration": 20, "velocity": 77}, {"time": 4588, "pitch": 56, "duration": 4, "velocity": 71}, {"time": 4594, "pitch": 60, "duration": 2, "velocity": 84}, {"time": 4600, "pitch": 56, "duration": 6, "velocity": 85}, {"time": 4600, "pitch": 60, "duration": 7, "velocity": 89}, {"time": 4600, "pitch": 68, "duration": 11, "velocity": 86}, {"time": 4606, "pitch": 51, "duration": 11, "velocity": 84}, {"time": 4612, "pitch": 56, "duration": 7, "velocity": 86}, {"time": 4624, "pitch": 37, "duration": 20, "velocity": 91}, {"time": 4624, "pitch": 61, "duration": 8, "velocity": 79}, {"time": 4624, "pitch": 65, "duration": 8, "velocity": 80}, {"time": 4636, "pitch": 61, "duration": 4, "velocity": 71}, {"time": 4636, "pitch": 65, "duration": 4, "velocity": 79}, {"time": 4636, "pitch": 68, "duration": 4, "velocity": 73}, {"time": 4648, "pitch": 37, "duration": 9, "velocity": 86}, {"time": 4648, "pitch": 44, "duration": 9, "velocity": 85}, {"time": 4648, "pitch": 61, "duration": 7, "velocity": 76}, {"time": 4648, "pitch": 65, "duration": 7, "velocity": 77}, {"time": 4648, "pitch": 68, "duration": 9, "velocity": 81}, {"time": 4660, "pitch": 61, "duration": 5, "velocity": 77}, {"time": 4660, "pitch": 65, "duration": 4, "velocity": 81}, {"time": 4660, "pitch": 68, "duration": 2, "velocity": 72}, {"time": 4660, "pitch": 73, "duration": 7, "velocity": 79}, {"time": 4672, "pitch": 37, "duration": 9, "velocity": 96}, {"time": 4672, "pitch": 61, "duration": 12, "velocity": 85}, {"time": 4672, "pitch": 65, "duration": 12, "velocity": 86}, {"time": 4672, "pitch": 68, "duration": 12, "velocity": 85}, {"time": 4672, "pitch": 73, "duration": 12, "velocity": 85}, {"time": 4696, "pitch": 43, "duration": 2, "velocity": 80}, {"time": 4696, "pitch": 55, "duration": 7, "velocity": 77}, {"time": 4696, "pitch": 58, "duration": 7, "velocity": 79}, {"time": 4696, "pitch": 61, "duration": 8, "velocity": 83}, {"time": 4720, "pitch": 42, "duration": 38, "velocity": 85}, {"time": 4720, "pitch": 54, "duration": 18, "velocity": 77}, {"time": 4720, "pitch": 61, "duration": 12, "velocity": 81}, {"time": 4732, "pitch": 49, "duration": 24, "velocity": 62}, {"time": 4744, "pitch": 58, "duration": 12, "velocity": 80}, {"time": 4750, "pitch": 61, "duration": 8, "velocity": 77}, {"time": 4756, "pitch": 66, "duration": 10, "velocity": 77}, {"time": 4768, "pitch": 44, "duration": 35, "velocity": 82}, {"time": 4768, "pitch": 56, "duration": 14, "velocity": 71}, {"time": 4768, "pitch": 60, "duration": 11, "velocity": 71}, {"time": 4780, "pitch": 51, "duration": 20, "velocity": 46}, {"time": 4792, "pitch": 56, "duration": 7, "velocity": 76}, {"time": 4792, "pitch": 60, "duration": 7, "velocity": 77}, {"time": 4792, "pitch": 63, "duration": 7, "velocity": 79}, {"time": 4816, "pitch": 41, "duration": 33, "velocity": 81}, {"time": 4816, "pitch": 56, "duration": 13, "velocity": 81}, {"time": 4822, "pitch": 48, "duration": 26, "velocity": 62}, {"time": 4828, "pitch": 53, "duration": 12, "velocity": 73}, {"time": 4834, "pitch": 56, "duration": 14, "velocity": 79}, {"time": 4840, "pitch": 65, "duration": 12, "velocity": 90}, {"time": 4864, "pitch": 46, "duration": 38, "velocity": 78}, {"time": 4864, "pitch": 58, "duration": 12, "velocity": 69}, {"time": 4864, "pitch": 61, "duration": 12, "velocity": 76}, {"time": 4876, "pitch": 53, "duration": 15, "velocity": 71}, {"time": 4888, "pitch": 58, "duration": 7, "velocity": 78}, {"time": 4888, "pitch": 61, "duration": 8, "velocity": 77}, {"time": 4888, "pitch": 65, "duration": 10, "velocity": 85}, {"time": 4894, "pitch": 53, "duration": 10, "velocity": 78}, {"time": 4900, "pitch": 58, "duration": 7, "velocity": 75}, {"time": 4906, "pitch": 61, "duration": 5, "velocity": 73}, {"time": 4912, "pitch": 51, "duration": 31, "velocity": 83}, {"time": 4912, "pitch": 66, "duration": 12, "velocity": 82}, {"time": 4918, "pitch": 54, "duration": 24, "velocity": 67}, {"time": 4924, "pitch": 58, "duration": 16, "velocity": 76}, {"time": 4930, "pitch": 63, "duration": 26, "velocity": 80}, {"time": 4948, "pitch": 54, "duration": 6, "velocity": 73}, {"time": 4954, "pitch": 58, "duration": 7, "velocity": 74}, {"time": 4960, "pitch": 44, "duration": 41, "velocity": 81}, {"time": 4966, "pitch": 51, "duration": 14, "velocity": 81}, {"time": 4972, "pitch": 56, "duration": 19, "velocity": 86}, {"time": 4978, "pitch": 63, "duration": 17, "velocity": 87}, {"time": 4984, "pitch": 51, "duration": 15, "velocity": 80}, {"time": 5008, "pitch": 49, "duration": 35, "velocity": 86}, {"time": 5008, "pitch": 56, "duration": 13, "velocity": 83}, {"time": 5008, "pitch": 65, "duration": 15, "velocity": 89}, {"time": 5020, "pitch": 53, "duration": 8, "velocity": 73}, {"time": 5026, "pitch": 56, "duration": 8, "velocity": 86}, {"time": 5026, "pitch": 63, "duration": 9, "velocity": 85}, {"time": 5032, "pitch": 53, "duration": 10, "velocity": 76}, {"time": 5038, "pitch": 56, "duration": 4, "velocity": 85}, {"time": 5038, "pitch": 61, "duration": 7, "velocity": 86}, {"time": 5050, "pitch": 56, "duration": 3, "velocity": 83}, {"time": 5056, "pitch": 49, "duration": 19, "velocity": 96}, {"time": 5056, "pitch": 56, "duration": 6, "velocity": 86}, {"time": 5056, "pitch": 65, "duration": 13, "velocity": 90}, {"time": 5068, "pitch": 56, "duration": 7, "velocity": 87}, {"time": 5080, "pitch": 49, "duration": 23, "velocity": 99}, {"time": 5080, "pitch": 56, "duration": 7, "velocity": 87}, {"time": 5080, "pitch": 61, "duration": 14, "velocity": 90}, {"time": 5092, "pitch": 56, "duration": 10, "velocity": 90}, {"time": 5104, "pitch": 42, "duration": 44, "velocity": 87}, {"time": 5104, "pitch": 54, "duration": 19, "velocity": 82}, {"time": 5104, "pitch": 61, "duration": 12, "velocity": 75}, {"time": 5110, "pitch": 49, "duration": 39, "velocity": 79}, {"time": 5116, "pitch": 58, "duration": 7, "velocity": 82}, {"time": 5122, "pitch": 61, "duration": 8, "velocity": 80}, {"time": 5134, "pitch": 54, "duration": 4, "velocity": 85}, {"time": 5134, "pitch": 58, "duration": 8, "velocity": 82}, {"time": 5134, "pitch": 61, "duration": 13, "velocity": 87}, {"time": 5134, "pitch": 66, "duration": 17, "velocity": 85}, {"time": 5140, "pitch": 54, "duration": 8, "velocity": 84}, {"time": 5146, "pitch": 58, "duration": 4, "velocity": 81}, {"time": 5152, "pitch": 44, "duration": 37, "velocity": 87}, {"time": 5152, "pitch": 56, "duration": 7, "velocity": 74}, {"time": 5152, "pitch": 60, "duration": 12, "velocity": 80}, {"time": 5158, "pitch": 51, "duration": 23, "velocity": 83}, {"time": 5164, "pitch": 56, "duration": 9, "velocity": 78}, {"time": 5170, "pitch": 63, "duration": 4, "velocity": 78}, {"time": 5176, "pitch": 56, "duration": 5, "velocity": 85}, {"time": 5176, "pitch": 68, "duration": 13, "velocity": 88}, {"time": 5182, "pitch": 63, "duration": 7, "velocity": 79}, {"time": 5188, "pitch": 56, "duration": 2, "velocity": 86}, {"time": 5200, "pitch": 41, "duration": 33, "velocity": 89}, {"time": 5200, "pitch": 60, "duration": 7, "velocity": 86}, {"time": 5200, "pitch": 65, "duration": 13, "velocity": 86}, {"time": 5206, "pitch": 48, "duration": 15, "velocity": 76}, {"time": 5212, "pitch": 60, "duration": 2, "velocity": 72}, {"time": 5218, "pitch": 60, "duration": 8, "velocity": 87}, {"time": 5218, "pitch": 68, "duration": 11, "velocity": 84}, {"time": 5224, "pitch": 48, "duration": 9, "velocity": 78}, {"time": 5230, "pitch": 60, "duration": 3, "velocity": 85}, {"time": 5230, "pitch": 65, "duration": 6, "velocity": 86}, {"time": 5236, "pitch": 60, "duration": 2, "velocity": 80}, {"time": 5248, "pitch": 46, "duration": 36, "velocity": 85}, {"time": 5248, "pitch": 58, "duration": 13, "velocity": 79}, {"time": 5248, "pitch": 61, "duration": 13, "velocity": 80}, {"time": 5254, "pitch": 53, "duration": 15, "velocity": 78}, {"time": 5260, "pitch": 65, "duration": 6, "velocity": 82}, {"time": 5266, "pitch": 70, "duration": 10, "velocity": 86}, {"time": 5272, "pitch": 53, "duration": 12, "velocity": 83}, {"time": 5278, "pitch": 58, "duration": 4, "velocity": 80}, {"time": 5278, "pitch": 61, "duration": 4, "velocity": 77}, {"time": 5278, "pitch": 65, "duration": 8, "velocity": 83}, {"time": 5296, "pitch": 51, "duration": 31, "velocity": 91}, {"time": 5296, "pitch": 58, "duration": 6, "velocity": 80}, {"time": 5296, "pitch": 63, "duration": 8, "velocity": 84}, {"time": 5296, "pitch": 66, "duration": 8, "velocity": 85}, {"time": 5302, "pitch": 54, "duration": 21, "velocity": 80}, {"time": 5308, "pitch": 58, "duration": 2, "velocity": 77}, {"time": 5320, "pitch": 58, "duration": 7, "velocity": 90}, {"time": 5320, "pitch": 63, "duration": 9, "velocity": 90}, {"time": 5326, "pitch": 54, "duration": 4, "velocity": 76}, {"time": 5332, "pitch": 58, "duration": 7, "velocity": 86}, {"time": 5338, "pitch": 63, "duration": 1, "velocity": 68}, {"time": 5344, "pitch": 44, "duration": 41, "velocity": 86}, {"time": 5344, "pitch": 56, "duration": 6, "velocity": 83}, {"time": 5344, "pitch": 63, "duration": 8, "velocity": 83}, {"time": 5350, "pitch": 51, "duration": 20, "velocity": 77}, {"time": 5356, "pitch": 56, "duration": 4, "velocity": 71}, {"time": 5362, "pitch": 60, "duration": 2, "velocity": 84}, {"time": 5368, "pitch": 56, "duration": 6, "velocity": 85}, {"time": 5368, "pitch": 60, "duration": 7, "velocity": 89}, {"time": 5368, "pitch": 68, "duration": 11, "velocity": 86}, {"time": 5374, "pitch": 51, "duration": 11, "velocity": 84}, {"time": 5380, "pitch": 56, "duration": 7, "velocity": 86}, {"time": 5392, "pitch": 37, "duration": 31, "velocity": 91}, {"time": 5392, "pitch": 49, "duration": 14, "velocity": 82}, {"time": 5392, "pitch": 61, "duration": 11, "velocity": 80}, {"time": 5404, "pitch": 44, "duration": 15, "velocity": 74}, {"time": 5416, "pitch": 49, "duration": 6, "velocity": 86}, {"time": 5416, "pitch": 53, "duration": 7, "velocity": 86}, {"time": 5416, "pitch": 56, "duration": 7, "velocity": 85}, {"time": 5416, "pitch": 61, "duration": 1, "velocity": 73}, {"time": 5422, "pitch": 44, "duration": 6, "velocity": 78}, {"time": 5428, "pitch": 49, "duration": 7, "velocity": 77}, {"time": 5434, "pitch": 53, "duration": 7, "velocity": 77}, {"time": 5440, "pitch": 37, "duration": 21, "velocity": 85}, {"time": 5440, "pitch": 56, "duration": 3, "velocity": 80}, {"time": 5446, "pitch": 44, "duration": 15, "velocity": 69}, {"time": 5452, "pitch": 61, "duration": 2, "velocity": 77}, {"time": 5458, "pitch": 61, "duration": 1, "velocity": 46}, {"time": 5458, "pitch": 65, "duration": 3, "velocity": 80}, {"time": 5458, "pitch": 68, "duration": 2, "velocity": 63}, {"time": 5464, "pitch": 37, "duration": 2, "velocity": 86}, {"time": 5464, "pitch": 44, "duration": 2, "velocity": 87}, {"time": 5464, "pitch": 61, "duration": 4, "velocity": 87}, {"time": 5464, "pitch": 65, "duration": 7, "velocity": 84}, {"time": 5464, "pitch": 68, "duration": 8, "velocity": 83}, {"time": 5464, "pitch": 73, "duration": 11, "velocity": 79}, {"time": 5476, "pitch": 61, "duration": 2, "velocity": 96}, {"time": 5488, "pitch": 42, "duration": 32, "velocity": 91}, {"time": 5488, "pitch": 54, "duration": 16, "velocity": 80}, {"time": 5488, "pitch": 57, "duration": 15, "velocity": 85}, {"time": 5488, "pitch": 61, "duration": 14, "velocity": 81}, {"time": 5500, "pitch": 49, "duration": 14, "velocity": 76}, {"time": 5512, "pitch": 54, "duration": 7, "velocity": 86}, {"time": 5512, "pitch": 57, "duration": 8, "velocity": 85}, {"time": 5512, "pitch": 61, "duration": 13, "velocity": 84}, {"time": 5518, "pitch": 49, "duration": 13, "velocity": 68}, {"time": 5524, "pitch": 54, "duration": 14, "velocity": 78}, {"time": 5530, "pitch": 57, "duration": 15, "velocity": 76}, {"time": 5536, "pitch": 42, "duration": 27, "velocity": 89}, {"time": 5542, "pitch": 49, "duration": 20, "velocity": 60}, {"time": 5548, "pitch": 54, "duration": 8, "velocity": 81}, {"time": 5554, "pitch": 57, "duration": 3, "velocity": 80}, {"time": 5560, "pitch": 54, "duration": 4, "velocity": 87}, {"time": 5560, "pitch": 57, "duration": 4, "velocity": 88}, {"time": 5560, "pitch": 61, "duration": 5, "velocity": 85}, {"time": 5560, "pitch": 66, "duration": 7, "velocity": 82}, {"time": 5566, "pitch": 49, "duration": 3, "velocity": 77}, {"time": 5572, "pitch": 42, "duration": 2, "velocity": 91}, {"time": 5584, "pitch": 37, "duration": 5, "velocity": 87}, {"time": 5584, "pitch": 61, "duration": 18, "velocity": 74}, {"time": 5584, "pitch": 65, "duration": 18, "velocity": 81}, {"time": 5584, "pitch": 68, "duration": 18, "velocity": 74}, {"time": 5596, "pitch": 49, "duration": 20, "velocity": 87}, {"time": 5608, "pitch": 61, "duration": 6, "velocity": 86}, {"time": 5608, "pitch": 73, "duration": 6, "velocity": 82}, {"time": 5614, "pitch": 56, "duration": 11, "velocity": 76}, {"time": 5620, "pitch": 61, "duration": 2, "velocity": 79}, {"time": 5626, "pitch": 61, "duration": 4, "velocity": 85}, {"time": 5626, "pitch": 65, "duration": 2, "velocity": 84}, {"time": 5626, "pitch": 68, "duration": 4, "velocity": 83}, {"time": 5632, "pitch": 61, "duration": 10, "velocity": 81}, {"time": 5632, "pitch": 68, "duration": 12, "velocity": 79}, {"time": 5638, "pitch": 56, "duration": 4, "velocity": 68}, {"time": 5644, "pitch": 49, "duration": 13, "velocity": 75}, {"time": 5650, "pitch": 61, "duration": 3, "velocity": 79}, {"time": 5656, "pitch": 61, "duration": 6, "velocity": 89}, {"time": 5656, "pitch": 65, "duration": 5, "velocity": 86}, {"time": 5656, "pitch": 68, "duration": 6, "velocity": 86}, {"time": 5662, "pitch": 56, "duration": 4, "velocity": 73}, {"time": 5668, "pitch": 49, "duration": 2, "velocity": 69}, {"time": 5680, "pitch": 42, "duration": 23, "velocity": 83}, {"time": 5680, "pitch": 54, "duration": 11, "velocity": 76}, {"time": 5680, "pitch": 61, "duration": 8, "velocity": 80}, {"time": 5692, "pitch": 49, "duration": 11, "velocity": 65}, {"time": 5704, "pitch": 54, "duration": 7, "velocity": 82}, {"time": 5704, "pitch": 57, "duration": 5, "velocity": 80}, {"time": 5704, "pitch": 61, "duration": 5, "velocity": 80}, {"time": 5724, "pitch": 54, "duration": 38, "velocity": 73}, {"time": 5727, "pitch": 57, "duration": 34, "velocity": 81}, {"time": 5729, "pitch": 61, "duration": 29, "velocity": 83}, {"time": 5729, "pitch": 42, "duration": 17, "velocity": 80}, {"time": 5731, "pitch": 66, "duration": 30, "velocity": 79}], "annotations": [{"time": 159, "annotation": {"number": 64, "value": 127}, "group": "control_change"}, {"time": 159, "annotation": {"number": 64, "value": 0}, "group": "control_change"}, {"time": 208, "annotation": {"number": 64, "value": 0}, "group": "control_change"}, {"time": 213, "annotation": {"number": 64, "value": 127}, "group": "control_change"}, {"time": 259, "annotation": {"number": 64, "value": 0}, "group": "control_change"}, {"time": 265, "annotation": {"number": 64, "value": 127}, "group": "control_change"}, {"time": 303, "annotation": {"number": 64, "value": 0}, "group": "control_change"}, {"time": 309, "annotation": {"number": 64, "value": 127}, "group": "control_change"}, {"time": 351, "annotation": {"number": 64, "value": 0}, "group": "control_change"}, {"time": 356, "annotation": {"number": 64, "value": 127}, "group": "control_change"}, {"time": 401, "annotation": {"number": 64, "value": 0}, "group": "control_change"}, {"time": 405, "annotation": {"number": 64, "value": 127}, "group": "control_change"}, {"time": 446, "annotation": {"number": 64, "value": 0}, "group": "control_change"}, {"time": 450, "annotation": {"number": 64, "value": 127}, "group": "control_change"}, {"time": 493, "annotation": {"number": 64, "value": 0}, "group": "control_change"}, {"time": 495, "annotation": {"number": 64, "value": 127}, "group": "control_change"}, {"time": 540, "annotation": {"number": 64, "value": 0}, "group": "control_change"}, {"time": 544, "annotation": {"number": 64, "value": 127}, "group": "control_change"}, {"time": 590, "annotation": {"number": 64, "value": 0}, "group": "control_change"}, {"time": 593, "annotation": {"number": 64, "value": 127}, "group": "control_change"}, {"time": 638, "annotation": {"number": 64, "value": 0}, "group": "control_change"}, {"time": 642, "annotation": {"number": 64, "value": 127}, "group": "control_change"}, {"time": 683, "annotation": {"number": 64, "value": 0}, "group": "control_change"}, {"time": 687, "annotation": {"number": 64, "value": 127}, "group": "control_change"}, {"time": 734, "annotation": {"number": 64, "value": 0}, "group": "control_change"}, {"time": 738, "annotation": {"number": 64, "value": 127}, "group": "control_change"}, {"time": 782, "annotation": {"number": 64, "value": 0}, "group": "control_change"}, {"time": 785, "annotation": {"number": 64, "value": 127}, "group": "control_change"}, {"time": 830, "annotation": {"number": 64, "value": 0}, "group": "control_change"}, {"time": 834, "annotation": {"number": 64, "value": 127}, "group": "control_change"}, {"time": 876, "annotation": {"number": 64, "value": 0}, "group": "control_change"}, {"time": 880, "annotation": {"number": 64, "value": 127}, "group": "control_change"}, {"time": 902, "annotation": {"number": 64, "value": 0}, "group": "control_change"}, {"time": 905, "annotation": {"number": 64, "value": 127}, "group": "control_change"}, {"time": 926, "annotation": {"number": 64, "value": 0}, "group": "control_change"}, {"time": 928, "annotation": {"number": 64, "value": 127}, "group": "control_change"}, {"time": 973, "annotation": {"number": 64, "value": 0}, "group": "control_change"}, {"time": 977, "annotation": {"number": 64, "value": 127}, "group": "control_change"}, {"time": 1021, "annotation": {"number": 64, "value": 0}, "group": "control_change"}, {"time": 1025, "annotation": {"number": 64, "value": 127}, "group": "control_change"}, {"time": 1069, "annotation": {"number": 64, "value": 0}, "group": "control_change"}, {"time": 1072, "annotation": {"number": 64, "value": 127}, "group": "control_change"}, {"time": 1094, "annotation": {"number": 64, "value": 0}, "group": "control_change"}, {"time": 1096, "annotation": {"number": 64, "value": 127}, "group": "control_change"}, {"time": 1117, "annotation": {"number": 64, "value": 0}, "group": "control_change"}, {"time": 1121, "annotation": {"number": 64, "value": 127}, "group": "control_change"}, {"time": 1165, "annotation": {"number": 64, "value": 0}, "group": "control_change"}, {"time": 1169, "annotation": {"number": 64, "value": 127}, "group": "control_change"}, {"time": 1213, "annotation": {"number": 64, "value": 0}, "group": "control_change"}, {"time": 1217, "annotation": {"number": 64, "value": 127}, "group": "control_change"}, {"time": 1262, "annotation": {"number": 64, "value": 0}, "group": "control_change"}, {"time": 1266, "annotation": {"number": 64, "value": 127}, "group": "control_change"}, {"time": 1308, "annotation": {"number": 64, "value": 0}, "group": "control_change"}, {"time": 1313, "annotation": {"number": 64, "value": 127}, "group": "control_change"}, {"time": 1358, "annotation": {"number": 64, "value": 0}, "group": "control_change"}, {"time": 1362, "annotation": {"number": 64, "value": 127}, "group": "control_change"}, {"time": 1406, "annotation": {"number": 64, "value": 0}, "group": "control_change"}, {"time": 1409, "annotation": {"number": 64, "value": 127}, "group": "control_change"}, {"time": 1454, "annotation": {"number": 64, "value": 0}, "group": "control_change"}, {"time": 1458, "annotation": {"number": 64, "value": 127}, "group": "control_change"}, {"time": 1499, "annotation": {"number": 64, "value": 0}, "group": "control_change"}, {"time": 1535, "annotation": {"number": 64, "value": 127}, "group": "control_change"}, {"time": 1542, "annotation": {"number": 64, "value": 0}, "group": "control_change"}, {"time": 1581, "annotation": {"number": 64, "value": 127}, "group": "control_change"}, {"time": 1598, "annotation": {"number": 64, "value": 0}, "group": "control_change"}, {"time": 1625, "annotation": {"number": 64, "value": 127}, "group": "control_change"}, {"time": 1647, "annotation": {"number": 64, "value": 0}, "group": "control_change"}, {"time": 1651, "annotation": {"number": 64, "value": 127}, "group": "control_change"}, {"time": 1693, "annotation": {"number": 64, "value": 0}, "group": "control_change"}, {"time": 1695, "annotation": {"number": 64, "value": 127}, "group": "control_change"}, {"time": 1717, "annotation": {"number": 64, "value": 0}, "group": "control_change"}, {"time": 1720, "annotation": {"number": 64, "value": 127}, "group": "control_change"}, {"time": 1739, "annotation": {"number": 64, "value": 0}, "group": "control_change"}, {"time": 1747, "annotation": {"number": 64, "value": 127}, "group": "control_change"}, {"time": 1790, "annotation": {"number": 64, "value": 0}, "group": "control_change"}, {"time": 1793, "annotation": {"number": 64, "value": 127}, "group": "control_change"}, {"time": 1838, "annotation": {"number": 64, "value": 0}, "group": "control_change"}, {"time": 1842, "annotation": {"number": 64, "value": 127}, "group": "control_change"}, {"time": 1886, "annotation": {"number": 64, "value": 0}, "group": "control_change"}, {"time": 1890, "annotation": {"number": 64, "value": 127}, "group": "control_change"}, {"time": 1932, "annotation": {"number": 64, "value": 0}, "group": "control_change"}, {"time": 1936, "annotation": {"number": 64, "value": 127}, "group": "control_change"}, {"time": 1983, "annotation": {"number": 64, "value": 0}, "group": "control_change"}, {"time": 1986, "annotation": {"number": 64, "value": 127}, "group": "control_change"}, {"time": 2029, "annotation": {"number": 64, "value": 0}, "group": "control_change"}, {"time": 2031, "annotation": {"number": 64, "value": 127}, "group": "control_change"}, {"time": 2076, "annotation": {"number": 64, "value": 0}, "group": "control_change"}, {"time": 2079, "annotation": {"number": 64, "value": 127}, "group": "control_change"}, {"time": 2101, "annotation": {"number": 64, "value": 0}, "group": "control_change"}, {"time": 2104, "annotation": {"number": 64, "value": 127}, "group": "control_change"}, {"time": 2124, "annotation": {"number": 64, "value": 0}, "group": "control_change"}, {"time": 2128, "annotation": {"number": 64, "value": 127}, "group": "control_change"}, {"time": 2173, "annotation": {"number": 64, "value": 0}, "group": "control_change"}, {"time": 2176, "annotation": {"number": 64, "value": 127}, "group": "control_change"}, {"time": 2221, "annotation": {"number": 64, "value": 0}, "group": "control_change"}, {"time": 2224, "annotation": {"number": 64, "value": 127}, "group": "control_change"}, {"time": 2272, "annotation": {"number": 64, "value": 0}, "group": "control_change"}, {"time": 2276, "annotation": {"number": 64, "value": 127}, "group": "control_change"}, {"time": 2316, "annotation": {"number": 64, "value": 0}, "group": "control_change"}, {"time": 2319, "annotation": {"number": 64, "value": 127}, "group": "control_change"}, {"time": 2366, "annotation": {"number": 64, "value": 0}, "group": "control_change"}, {"time": 2369, "annotation": {"number": 64, "value": 127}, "group": "control_change"}, {"time": 2412, "annotation": {"number": 64, "value": 0}, "group": "control_change"}, {"time": 2416, "annotation": {"number": 64, "value": 127}, "group": "control_change"}, {"time": 2508, "annotation": {"number": 64, "value": 0}, "group": "control_change"}, {"time": 2512, "annotation": {"number": 64, "value": 127}, "group": "control_change"}, {"time": 2558, "annotation": {"number": 64, "value": 0}, "group": "control_change"}, {"time": 2561, "annotation": {"number": 64, "value": 127}, "group": "control_change"}, {"time": 2606, "annotation": {"number": 64, "value": 0}, "group": "control_change"}, {"time": 2608, "annotation": {"number": 64, "value": 127}, "group": "control_change"}, {"time": 2629, "annotation": {"number": 64, "value": 0}, "group": "control_change"}, {"time": 2632, "annotation": {"number": 64, "value": 127}, "group": "control_change"}, {"time": 2655, "annotation": {"number": 64, "value": 0}, "group": "control_change"}, {"time": 2657, "annotation": {"number": 64, "value": 127}, "group": "control_change"}, {"time": 2702, "annotation": {"number": 64, "value": 0}, "group": "control_change"}, {"time": 2705, "annotation": {"number": 64, "value": 127}, "group": "control_change"}, {"time": 2747, "annotation": {"number": 64, "value": 0}, "group": "control_change"}, {"time": 2752, "annotation": {"number": 64, "value": 127}, "group": "control_change"}, {"time": 2798, "annotation": {"number": 64, "value": 0}, "group": "control_change"}, {"time": 2801, "annotation": {"number": 64, "value": 127}, "group": "control_change"}, {"time": 2846, "annotation": {"number": 64, "value": 0}, "group": "control_change"}, {"time": 2850, "annotation": {"number": 64, "value": 127}, "group": "control_change"}, {"time": 2891, "annotation": {"number": 64, "value": 0}, "group": "control_change"}, {"time": 2895, "annotation": {"number": 64, "value": 127}, "group": "control_change"}, {"time": 2942, "annotation": {"number": 64, "value": 0}, "group": "control_change"}, {"time": 2946, "annotation": {"number": 64, "value": 127}, "group": "control_change"}, {"time": 2990, "annotation": {"number": 64, "value": 0}, "group": "control_change"}, {"time": 2993, "annotation": {"number": 64, "value": 127}, "group": "control_change"}, {"time": 3038, "annotation": {"number": 64, "value": 0}, "group": "control_change"}, {"time": 3042, "annotation": {"number": 64, "value": 127}, "group": "control_change"}, {"time": 3084, "annotation": {"number": 64, "value": 0}, "group": "control_change"}, {"time": 3088, "annotation": {"number": 64, "value": 127}, "group": "control_change"}, {"time": 3110, "annotation": {"number": 64, "value": 0}, "group": "control_change"}, {"time": 3113, "annotation": {"number": 64, "value": 127}, "group": "control_change"}, {"time": 3134, "annotation": {"number": 64, "value": 0}, "group": "control_change"}, {"time": 3136, "annotation": {"number": 64, "value": 127}, "group": "control_change"}, {"time": 3181, "annotation": {"number": 64, "value": 0}, "group": "control_change"}, {"time": 3185, "annotation": {"number": 64, "value": 127}, "group": "control_change"}, {"time": 3229, "annotation": {"number": 64, "value": 0}, "group": "control_change"}, {"time": 3233, "annotation": {"number": 64, "value": 127}, "group": "control_change"}, {"time": 3277, "annotation": {"number": 64, "value": 0}, "group": "control_change"}, {"time": 3280, "annotation": {"number": 64, "value": 127}, "group": "control_change"}, {"time": 3302, "annotation": {"number": 64, "value": 0}, "group": "control_change"}, {"time": 3304, "annotation": {"number": 64, "value": 127}, "group": "control_change"}, {"time": 3325, "annotation": {"number": 64, "value": 0}, "group": "control_change"}, {"time": 3329, "annotation": {"number": 64, "value": 127}, "group": "control_change"}, {"time": 3373, "annotation": {"number": 64, "value": 0}, "group": "control_change"}, {"time": 3377, "annotation": {"number": 64, "value": 127}, "group": "control_change"}, {"time": 3421, "annotation": {"number": 64, "value": 0}, "group": "control_change"}, {"time": 3425, "annotation": {"number": 64, "value": 127}, "group": "control_change"}, {"time": 3470, "annotation": {"number": 64, "value": 0}, "group": "control_change"}, {"time": 3474, "annotation": {"number": 64, "value": 127}, "group": "control_change"}, {"time": 3516, "annotation": {"number": 64, "value": 0}, "group": "control_change"}, {"time": 3521, "annotation": {"number": 64, "value": 127}, "group": "control_change"}, {"time": 3566, "annotation": {"number": 64, "value": 0}, "group": "control_change"}, {"time": 3570, "annotation": {"number": 64, "value": 127}, "group": "control_change"}, {"time": 3614, "annotation": {"number": 64, "value": 0}, "group": "control_change"}, {"time": 3617, "annotation": {"number": 64, "value": 127}, "group": "control_change"}, {"time": 3662, "annotation": {"number": 64, "value": 0}, "group": "control_change"}, {"time": 3666, "annotation": {"number": 64, "value": 127}, "group": "control_change"}, {"time": 3707, "annotation": {"number": 64, "value": 0}, "group": "control_change"}, {"time": 3743, "annotation": {"number": 64, "value": 127}, "group": "control_change"}, {"time": 3750, "annotation": {"number": 64, "value": 0}, "group": "control_change"}, {"time": 3789, "annotation": {"number": 64, "value": 127}, "group": "control_change"}, {"time": 3806, "annotation": {"number": 64, "value": 0}, "group": "control_change"}, {"time": 3833, "annotation": {"number": 64, "value": 127}, "group": "control_change"}, {"time": 3855, "annotation": {"number": 64, "value": 0}, "group": "control_change"}, {"time": 3859, "annotation": {"number": 64, "value": 127}, "group": "control_change"}, {"time": 3901, "annotation": {"number": 64, "value": 0}, "group": "control_change"}, {"time": 3903, "annotation": {"number": 64, "value": 127}, "group": "control_change"}, {"time": 3904, "annotation": {"number": 64, "value": 127}, "group": "control_change"}, {"time": 3949, "annotation": {"number": 64, "value": 0}, "group": "control_change"}, {"time": 3955, "annotation": {"number": 64, "value": 127}, "group": "control_change"}, {"time": 3998, "annotation": {"number": 64, "value": 0}, "group": "control_change"}, {"time": 4001, "annotation": {"number": 64, "value": 127}, "group": "control_change"}, {"time": 4046, "annotation": {"number": 64, "value": 0}, "group": "control_change"}, {"time": 4050, "annotation": {"number": 64, "value": 127}, "group": "control_change"}, {"time": 4094, "annotation": {"number": 64, "value": 0}, "group": "control_change"}, {"time": 4098, "annotation": {"number": 64, "value": 127}, "group": "control_change"}, {"time": 4140, "annotation": {"number": 64, "value": 0}, "group": "control_change"}, {"time": 4144, "annotation": {"number": 64, "value": 127}, "group": "control_change"}, {"time": 4191, "annotation": {"number": 64, "value": 0}, "group": "control_change"}, {"time": 4194, "annotation": {"number": 64, "value": 127}, "group": "control_change"}, {"time": 4237, "annotation": {"number": 64, "value": 0}, "group": "control_change"}, {"time": 4239, "annotation": {"number": 64, "value": 127}, "group": "control_change"}, {"time": 4284, "annotation": {"number": 64, "value": 0}, "group": "control_change"}, {"time": 4287, "annotation": {"number": 64, "value": 127}, "group": "control_change"}, {"time": 4309, "annotation": {"number": 64, "value": 0}, "group": "control_change"}, {"time": 4312, "annotation": {"number": 64, "value": 127}, "group": "control_change"}, {"time": 4332, "annotation": {"number": 64, "value": 0}, "group": "control_change"}, {"time": 4336, "annotation": {"number": 64, "value": 127}, "group": "control_change"}, {"time": 4381, "annotation": {"number": 64, "value": 0}, "group": "control_change"}, {"time": 4384, "annotation": {"number": 64, "value": 127}, "group": "control_change"}, {"time": 4429, "annotation": {"number": 64, "value": 0}, "group": "control_change"}, {"time": 4432, "annotation": {"number": 64, "value": 127}, "group": "control_change"}, {"time": 4480, "annotation": {"number": 64, "value": 0}, "group": "control_change"}, {"time": 4484, "annotation": {"number": 64, "value": 127}, "group": "control_change"}, {"time": 4524, "annotation": {"number": 64, "value": 0}, "group": "control_change"}, {"time": 4527, "annotation": {"number": 64, "value": 127}, "group": "control_change"}, {"time": 4574, "annotation": {"number": 64, "value": 0}, "group": "control_change"}, {"time": 4577, "annotation": {"number": 64, "value": 127}, "group": "control_change"}, {"time": 4620, "annotation": {"number": 64, "value": 0}, "group": "control_change"}, {"time": 4623, "annotation": {"number": 64, "value": 127}, "group": "control_change"}, {"time": 4670, "annotation": {"number": 64, "value": 0}, "group": "control_change"}, {"time": 4672, "annotation": {"number": 64, "value": 127}, "group": "control_change"}, {"time": 4717, "annotation": {"number": 64, "value": 0}, "group": "control_change"}, {"time": 4723, "annotation": {"number": 64, "value": 127}, "group": "control_change"}, {"time": 4765, "annotation": {"number": 64, "value": 0}, "group": "control_change"}, {"time": 4769, "annotation": {"number": 64, "value": 127}, "group": "control_change"}, {"time": 4812, "annotation": {"number": 64, "value": 0}, "group": "control_change"}, {"time": 4817, "annotation": {"number": 64, "value": 127}, "group": "control_change"}, {"time": 4862, "annotation": {"number": 64, "value": 0}, "group": "control_change"}, {"time": 4866, "annotation": {"number": 64, "value": 127}, "group": "control_change"}, {"time": 4910, "annotation": {"number": 64, "value": 0}, "group": "control_change"}, {"time": 4913, "annotation": {"number": 64, "value": 127}, "group": "control_change"}, {"time": 4957, "annotation": {"number": 64, "value": 0}, "group": "control_change"}, {"time": 4961, "annotation": {"number": 64, "value": 127}, "group": "control_change"}, {"time": 5003, "annotation": {"number": 64, "value": 0}, "group": "control_change"}, {"time": 5007, "annotation": {"number": 64, "value": 127}, "group": "control_change"}, {"time": 5053, "annotation": {"number": 64, "value": 0}, "group": "control_change"}, {"time": 5056, "annotation": {"number": 64, "value": 127}, "group": "control_change"}, {"time": 5098, "annotation": {"number": 64, "value": 0}, "group": "control_change"}, {"time": 5104, "annotation": {"number": 64, "value": 127}, "group": "control_change"}, {"time": 5149, "annotation": {"number": 64, "value": 0}, "group": "control_change"}, {"time": 5152, "annotation": {"number": 64, "value": 127}, "group": "control_change"}, {"time": 5197, "annotation": {"number": 64, "value": 0}, "group": "control_change"}, {"time": 5200, "annotation": {"number": 64, "value": 127}, "group": "control_change"}, {"time": 5248, "annotation": {"number": 64, "value": 0}, "group": "control_change"}, {"time": 5252, "annotation": {"number": 64, "value": 127}, "group": "control_change"}, {"time": 5292, "annotation": {"number": 64, "value": 0}, "group": "control_change"}, {"time": 5295, "annotation": {"number": 64, "value": 127}, "group": "control_change"}, {"time": 5342, "annotation": {"number": 64, "value": 0}, "group": "control_change"}, {"time": 5345, "annotation": {"number": 64, "value": 127}, "group": "control_change"}, {"time": 5388, "annotation": {"number": 64, "value": 0}, "group": "control_change"}, {"time": 5392, "annotation": {"number": 64, "value": 127}, "group": "control_change"}, {"time": 5392, "annotation": {"number": 64, "value": 0}, "group": "control_change"}, {"time": 5492, "annotation": {"number": 64, "value": 0}, "group": "control_change"}, {"time": 5499, "annotation": {"number": 64, "value": 127}, "group": "control_change"}, {"time": 5579, "annotation": {"number": 64, "value": 0}, "group": "control_change"}, {"time": 5581, "annotation": {"number": 64, "value": 127}, "group": "control_change"}, {"time": 5677, "annotation": {"number": 64, "value": 0}, "group": "control_change"}, {"time": 5680, "annotation": {"number": 64, "value": 127}, "group": "control_change"}, {"time": 5726, "annotation": {"number": 64, "value": 0}, "group": "control_change"}, {"time": 5732, "annotation": {"number": 64, "value": 127}, "group": "control_change"}]}]}