{"metadata": {"schema_version": "0.2", "title": "None", "source_filename": "780.mid", "source_format": "midi"}, "resolution": 12, "tempos": [{"time": 0, "qpm": 70.00007000007}, {"time": 1123, "qpm": 68.75010026056287}, {"time": 1153, "qpm": 69.00009660013524}, {"time": 1166, "qpm": 70.00007000007}, {"time": 1277, "qpm": 70.50006873756702}, {"time": 1320, "qpm": 70.00007000007}], "time_signatures": [{"time": 0, "numerator": 1, "denominator": 4}], "tracks": [{"program": 0, "is_drum": false, "name": "MELODY", "notes": [{"time": 260, "pitch": 74, "duration": 3, "velocity": 93}, {"time": 263, "pitch": 73, "duration": 2, "velocity": 86}, {"time": 266, "pitch": 74, "duration": 6, "velocity": 93}, {"time": 275, "pitch": 73, "duration": 3, "velocity": 78}, {"time": 278, "pitch": 74, "duration": 2, "velocity": 91}, {"time": 281, "pitch": 73, "duration": 3, "velocity": 93}, {"time": 284, "pitch": 74, "duration": 2, "velocity": 92}, {"time": 287, "pitch": 73, "duration": 3, "velocity": 91}, {"time": 290, "pitch": 74, "duration": 4, "velocity": 96}, {"time": 296, "pitch": 78, "duration": 9, "velocity": 92}, {"time": 308, "pitch": 66, "duration": 3, "velocity": 91}, {"time": 311, "pitch": 67, "duration": 18, "velocity": 83}, {"time": 357, "pitch": 73, "duration": 2, "velocity": 91}, {"time": 360, "pitch": 71, "duration": 2, "velocity": 90}, {"time": 363, "pitch": 73, "duration": 6, "velocity": 93}, {"time": 371, "pitch": 71, "duration": 3, "velocity": 92}, {"time": 375, "pitch": 73, "duration": 2, "velocity": 90}, {"time": 377, "pitch": 71, "duration": 3, "velocity": 93}, {"time": 380, "pitch": 73, "duration": 3, "velocity": 93}, {"time": 383, "pitch": 71, "duration": 3, "velocity": 92}, {"time": 387, "pitch": 73, "duration": 4, "velocity": 95}, {"time": 392, "pitch": 76, "duration": 4, "velocity": 95}, {"time": 398, "pitch": 76, "duration": 4, "velocity": 95}, {"time": 404, "pitch": 69, "duration": 30, "velocity": 82}, {"time": 452, "pitch": 74, "duration": 2, "velocity": 94}, {"time": 455, "pitch": 73, "duration": 3, "velocity": 91}, {"time": 458, "pitch": 74, "duration": 7, "velocity": 93}, {"time": 467, "pitch": 73, "duration": 3, "velocity": 91}, {"time": 471, "pitch": 74, "duration": 2, "velocity": 93}, {"time": 474, "pitch": 73, "duration": 3, "velocity": 87}, {"time": 477, "pitch": 74, "duration": 2, "velocity": 93}, {"time": 480, "pitch": 73, "duration": 3, "velocity": 86}, {"time": 483, "pitch": 74, "duration": 5, "velocity": 93}, {"time": 489, "pitch": 78, "duration": 4, "velocity": 91}, {"time": 494, "pitch": 78, "duration": 5, "velocity": 93}, {"time": 500, "pitch": 79, "duration": 19, "velocity": 92}, {"time": 527, "pitch": 71, "duration": 2, "velocity": 90}, {"time": 530, "pitch": 79, "duration": 5, "velocity": 92}, {"time": 536, "pitch": 78, "duration": 5, "velocity": 92}, {"time": 542, "pitch": 74, "duration": 6, "velocity": 93}, {"time": 548, "pitch": 76, "duration": 14, "velocity": 91}, {"time": 563, "pitch": 78, "duration": 2, "velocity": 78}, {"time": 566, "pitch": 78, "duration": 5, "velocity": 92}, {"time": 572, "pitch": 66, "duration": 4, "velocity": 92}, {"time": 578, "pitch": 73, "duration": 10, "velocity": 93}, {"time": 590, "pitch": 74, "duration": 6, "velocity": 97}, {"time": 596, "pitch": 71, "duration": 26, "velocity": 79}, {"time": 626, "pitch": 71, "duration": 5, "velocity": 94}, {"time": 632, "pitch": 73, "duration": 4, "velocity": 92}, {"time": 638, "pitch": 73, "duration": 10, "velocity": 92}, {"time": 650, "pitch": 71, "duration": 5, "velocity": 86}, {"time": 656, "pitch": 70, "duration": 2, "velocity": 91}, {"time": 659, "pitch": 73, "duration": 12, "velocity": 90}, {"time": 674, "pitch": 73, "duration": 5, "velocity": 91}, {"time": 680, "pitch": 74, "duration": 5, "velocity": 94}, {"time": 686, "pitch": 74, "duration": 11, "velocity": 97}, {"time": 698, "pitch": 74, "duration": 4, "velocity": 96}, {"time": 704, "pitch": 74, "duration": 3, "velocity": 92}, {"time": 707, "pitch": 78, "duration": 9, "velocity": 92}, {"time": 716, "pitch": 76, "duration": 2, "velocity": 91}, {"time": 719, "pitch": 74, "duration": 2, "velocity": 95}, {"time": 722, "pitch": 71, "duration": 5, "velocity": 93}, {"time": 728, "pitch": 74, "duration": 2, "velocity": 93}, {"time": 731, "pitch": 78, "duration": 8, "velocity": 92}, {"time": 740, "pitch": 76, "duration": 6, "velocity": 92}, {"time": 746, "pitch": 76, "duration": 3, "velocity": 92}, {"time": 749, "pitch": 74, "duration": 2, "velocity": 91}, {"time": 752, "pitch": 71, "duration": 14, "velocity": 93}, {"time": 770, "pitch": 78, "duration": 5, "velocity": 92}, {"time": 776, "pitch": 79, "duration": 2, "velocity": 91}, {"time": 779, "pitch": 78, "duration": 9, "velocity": 95}, {"time": 788, "pitch": 76, "duration": 13, "velocity": 94}, {"time": 803, "pitch": 74, "duration": 3, "velocity": 92}, {"time": 806, "pitch": 73, "duration": 2, "velocity": 79}, {"time": 809, "pitch": 74, "duration": 3, "velocity": 85}, {"time": 812, "pitch": 76, "duration": 4, "velocity": 95}, {"time": 818, "pitch": 78, "duration": 5, "velocity": 96}, {"time": 824, "pitch": 81, "duration": 6, "velocity": 92}, {"time": 830, "pitch": 83, "duration": 20, "velocity": 104}, {"time": 851, "pitch": 74, "duration": 2, "velocity": 103}, {"time": 854, "pitch": 76, "duration": 5, "velocity": 100}, {"time": 860, "pitch": 74, "duration": 5, "velocity": 104}, {"time": 866, "pitch": 73, "duration": 5, "velocity": 103}, {"time": 872, "pitch": 78, "duration": 18, "velocity": 103}, {"time": 899, "pitch": 74, "duration": 2, "velocity": 108}, {"time": 902, "pitch": 74, "duration": 2, "velocity": 104}, {"time": 905, "pitch": 74, "duration": 2, "velocity": 109}, {"time": 908, "pitch": 76, "duration": 4, "velocity": 106}, {"time": 914, "pitch": 78, "duration": 5, "velocity": 105}, {"time": 920, "pitch": 81, "duration": 2, "velocity": 104}, {"time": 923, "pitch": 83, "duration": 20, "velocity": 103}, {"time": 947, "pitch": 74, "duration": 3, "velocity": 108}, {"time": 950, "pitch": 73, "duration": 5, "velocity": 106}, {"time": 956, "pitch": 71, "duration": 5, "velocity": 102}, {"time": 962, "pitch": 73, "duration": 5, "velocity": 102}, {"time": 968, "pitch": 74, "duration": 23, "velocity": 105}, {"time": 995, "pitch": 69, "duration": 3, "velocity": 104}, {"time": 998, "pitch": 74, "duration": 2, "velocity": 107}, {"time": 1001, "pitch": 74, "duration": 2, "velocity": 108}, {"time": 1004, "pitch": 76, "duration": 4, "velocity": 102}, {"time": 1010, "pitch": 78, "duration": 5, "velocity": 104}, {"time": 1016, "pitch": 81, "duration": 2, "velocity": 104}, {"time": 1019, "pitch": 83, "duration": 5, "velocity": 104}, {"time": 1025, "pitch": 83, "duration": 2, "velocity": 102}, {"time": 1028, "pitch": 83, "duration": 2, "velocity": 106}, {"time": 1031, "pitch": 83, "duration": 2, "velocity": 102}, {"time": 1034, "pitch": 83, "duration": 2, "velocity": 104}, {"time": 1037, "pitch": 83, "duration": 2, "velocity": 103}, {"time": 1040, "pitch": 83, "duration": 3, "velocity": 103}, {"time": 1043, "pitch": 85, "duration": 8, "velocity": 108}, {"time": 1052, "pitch": 85, "duration": 2, "velocity": 103}, {"time": 1055, "pitch": 85, "duration": 2, "velocity": 104}, {"time": 1058, "pitch": 85, "duration": 6, "velocity": 104}, {"time": 1064, "pitch": 83, "duration": 5, "velocity": 103}, {"time": 1070, "pitch": 81, "duration": 9, "velocity": 103}, {"time": 1088, "pitch": 78, "duration": 4, "velocity": 102}, {"time": 1091, "pitch": 83, "duration": 7, "velocity": 103}, {"time": 1100, "pitch": 78, "duration": 5, "velocity": 103}, {"time": 1106, "pitch": 76, "duration": 6, "velocity": 103}, {"time": 1112, "pitch": 74, "duration": 6, "velocity": 106}, {"time": 1118, "pitch": 71, "duration": 13, "velocity": 103}, {"time": 1136, "pitch": 71, "duration": 2, "velocity": 102}, {"time": 1139, "pitch": 74, "duration": 2, "velocity": 104}, {"time": 1142, "pitch": 76, "duration": 2, "velocity": 101}, {"time": 1145, "pitch": 74, "duration": 2, "velocity": 103}, {"time": 1148, "pitch": 76, "duration": 3, "velocity": 100}, {"time": 1151, "pitch": 74, "duration": 2, "velocity": 105}, {"time": 1154, "pitch": 76, "duration": 4, "velocity": 107}, {"time": 1160, "pitch": 78, "duration": 5, "velocity": 103}, {"time": 1166, "pitch": 74, "duration": 44, "velocity": 103}, {"time": 1316, "pitch": 74, "duration": 3, "velocity": 93}, {"time": 1319, "pitch": 73, "duration": 2, "velocity": 86}, {"time": 1322, "pitch": 74, "duration": 6, "velocity": 93}, {"time": 1331, "pitch": 73, "duration": 3, "velocity": 78}, {"time": 1334, "pitch": 74, "duration": 2, "velocity": 91}, {"time": 1337, "pitch": 73, "duration": 3, "velocity": 93}, {"time": 1340, "pitch": 74, "duration": 2, "velocity": 92}, {"time": 1343, "pitch": 73, "duration": 3, "velocity": 91}, {"time": 1346, "pitch": 74, "duration": 4, "velocity": 96}, {"time": 1352, "pitch": 78, "duration": 9, "velocity": 92}, {"time": 1364, "pitch": 66, "duration": 3, "velocity": 91}, {"time": 1367, "pitch": 67, "duration": 18, "velocity": 83}, {"time": 1413, "pitch": 73, "duration": 2, "velocity": 91}, {"time": 1416, "pitch": 71, "duration": 2, "velocity": 90}, {"time": 1419, "pitch": 73, "duration": 6, "velocity": 93}, {"time": 1427, "pitch": 71, "duration": 3, "velocity": 92}, {"time": 1431, "pitch": 73, "duration": 2, "velocity": 90}, {"time": 1433, "pitch": 71, "duration": 3, "velocity": 93}, {"time": 1436, "pitch": 73, "duration": 3, "velocity": 93}, {"time": 1439, "pitch": 71, "duration": 3, "velocity": 92}, {"time": 1443, "pitch": 73, "duration": 4, "velocity": 95}, {"time": 1448, "pitch": 76, "duration": 4, "velocity": 95}, {"time": 1454, "pitch": 76, "duration": 4, "velocity": 95}, {"time": 1460, "pitch": 69, "duration": 30, "velocity": 82}, {"time": 1508, "pitch": 74, "duration": 2, "velocity": 94}, {"time": 1511, "pitch": 73, "duration": 3, "velocity": 91}, {"time": 1514, "pitch": 74, "duration": 7, "velocity": 93}, {"time": 1523, "pitch": 73, "duration": 3, "velocity": 91}, {"time": 1527, "pitch": 74, "duration": 2, "velocity": 93}, {"time": 1530, "pitch": 73, "duration": 3, "velocity": 87}, {"time": 1533, "pitch": 74, "duration": 2, "velocity": 93}, {"time": 1536, "pitch": 73, "duration": 3, "velocity": 86}, {"time": 1539, "pitch": 74, "duration": 5, "velocity": 93}, {"time": 1545, "pitch": 78, "duration": 4, "velocity": 91}, {"time": 1550, "pitch": 78, "duration": 5, "velocity": 93}, {"time": 1556, "pitch": 79, "duration": 19, "velocity": 92}, {"time": 1583, "pitch": 71, "duration": 2, "velocity": 90}, {"time": 1586, "pitch": 79, "duration": 5, "velocity": 92}, {"time": 1592, "pitch": 78, "duration": 5, "velocity": 92}, {"time": 1598, "pitch": 74, "duration": 6, "velocity": 93}, {"time": 1604, "pitch": 76, "duration": 14, "velocity": 91}, {"time": 1619, "pitch": 78, "duration": 2, "velocity": 78}, {"time": 1622, "pitch": 78, "duration": 5, "velocity": 92}, {"time": 1628, "pitch": 66, "duration": 4, "velocity": 92}, {"time": 1634, "pitch": 73, "duration": 10, "velocity": 93}, {"time": 1646, "pitch": 74, "duration": 6, "velocity": 97}, {"time": 1652, "pitch": 71, "duration": 26, "velocity": 79}, {"time": 1682, "pitch": 71, "duration": 5, "velocity": 94}, {"time": 1688, "pitch": 73, "duration": 4, "velocity": 92}, {"time": 1694, "pitch": 73, "duration": 10, "velocity": 92}, {"time": 1706, "pitch": 71, "duration": 5, "velocity": 86}, {"time": 1712, "pitch": 70, "duration": 2, "velocity": 91}, {"time": 1715, "pitch": 73, "duration": 12, "velocity": 90}, {"time": 1730, "pitch": 73, "duration": 5, "velocity": 91}, {"time": 1736, "pitch": 74, "duration": 5, "velocity": 94}, {"time": 1742, "pitch": 74, "duration": 11, "velocity": 97}, {"time": 1754, "pitch": 74, "duration": 4, "velocity": 96}, {"time": 1760, "pitch": 74, "duration": 3, "velocity": 92}, {"time": 1763, "pitch": 78, "duration": 9, "velocity": 92}, {"time": 1772, "pitch": 76, "duration": 2, "velocity": 91}, {"time": 1775, "pitch": 74, "duration": 2, "velocity": 95}, {"time": 1778, "pitch": 71, "duration": 5, "velocity": 93}, {"time": 1784, "pitch": 74, "duration": 2, "velocity": 93}, {"time": 1787, "pitch": 78, "duration": 8, "velocity": 92}, {"time": 1796, "pitch": 76, "duration": 6, "velocity": 92}, {"time": 1802, "pitch": 76, "duration": 3, "velocity": 92}, {"time": 1805, "pitch": 74, "duration": 2, "velocity": 91}, {"time": 1808, "pitch": 71, "duration": 14, "velocity": 93}, {"time": 1826, "pitch": 78, "duration": 5, "velocity": 92}, {"time": 1832, "pitch": 79, "duration": 2, "velocity": 91}, {"time": 1835, "pitch": 78, "duration": 9, "velocity": 95}, {"time": 1844, "pitch": 76, "duration": 13, "velocity": 94}, {"time": 1859, "pitch": 74, "duration": 3, "velocity": 92}, {"time": 1862, "pitch": 73, "duration": 2, "velocity": 79}, {"time": 1865, "pitch": 74, "duration": 3, "velocity": 85}, {"time": 1868, "pitch": 76, "duration": 4, "velocity": 95}, {"time": 1874, "pitch": 78, "duration": 5, "velocity": 96}, {"time": 1880, "pitch": 81, "duration": 6, "velocity": 92}, {"time": 1886, "pitch": 83, "duration": 20, "velocity": 101}, {"time": 1907, "pitch": 74, "duration": 2, "velocity": 100}, {"time": 1910, "pitch": 76, "duration": 5, "velocity": 97}, {"time": 1916, "pitch": 74, "duration": 5, "velocity": 101}, {"time": 1922, "pitch": 73, "duration": 5, "velocity": 100}, {"time": 1928, "pitch": 78, "duration": 18, "velocity": 100}, {"time": 1955, "pitch": 74, "duration": 2, "velocity": 105}, {"time": 1958, "pitch": 74, "duration": 2, "velocity": 101}, {"time": 1961, "pitch": 74, "duration": 2, "velocity": 106}, {"time": 1964, "pitch": 76, "duration": 4, "velocity": 103}, {"time": 1970, "pitch": 78, "duration": 5, "velocity": 102}, {"time": 1976, "pitch": 81, "duration": 2, "velocity": 101}, {"time": 1979, "pitch": 83, "duration": 20, "velocity": 100}, {"time": 2003, "pitch": 74, "duration": 3, "velocity": 105}, {"time": 2006, "pitch": 73, "duration": 5, "velocity": 103}, {"time": 2012, "pitch": 71, "duration": 5, "velocity": 99}, {"time": 2018, "pitch": 73, "duration": 5, "velocity": 99}, {"time": 2024, "pitch": 74, "duration": 23, "velocity": 102}, {"time": 2051, "pitch": 69, "duration": 3, "velocity": 101}, {"time": 2054, "pitch": 74, "duration": 2, "velocity": 104}, {"time": 2057, "pitch": 74, "duration": 2, "velocity": 105}, {"time": 2060, "pitch": 76, "duration": 4, "velocity": 99}, {"time": 2066, "pitch": 78, "duration": 5, "velocity": 101}, {"time": 2072, "pitch": 81, "duration": 2, "velocity": 101}, {"time": 2075, "pitch": 83, "duration": 5, "velocity": 101}, {"time": 2081, "pitch": 83, "duration": 2, "velocity": 99}, {"time": 2084, "pitch": 83, "duration": 2, "velocity": 103}, {"time": 2087, "pitch": 83, "duration": 2, "velocity": 99}, {"time": 2090, "pitch": 83, "duration": 2, "velocity": 101}, {"time": 2093, "pitch": 83, "duration": 2, "velocity": 100}, {"time": 2096, "pitch": 83, "duration": 3, "velocity": 100}, {"time": 2099, "pitch": 85, "duration": 8, "velocity": 105}, {"time": 2108, "pitch": 85, "duration": 2, "velocity": 100}, {"time": 2111, "pitch": 85, "duration": 2, "velocity": 101}, {"time": 2114, "pitch": 85, "duration": 6, "velocity": 101}, {"time": 2120, "pitch": 83, "duration": 5, "velocity": 100}, {"time": 2126, "pitch": 81, "duration": 9, "velocity": 100}, {"time": 2144, "pitch": 78, "duration": 4, "velocity": 99}, {"time": 2147, "pitch": 83, "duration": 7, "velocity": 100}, {"time": 2156, "pitch": 78, "duration": 5, "velocity": 100}, {"time": 2162, "pitch": 76, "duration": 6, "velocity": 100}, {"time": 2168, "pitch": 74, "duration": 6, "velocity": 103}, {"time": 2174, "pitch": 71, "duration": 13, "velocity": 100}, {"time": 2192, "pitch": 71, "duration": 2, "velocity": 99}, {"time": 2195, "pitch": 74, "duration": 2, "velocity": 101}, {"time": 2198, "pitch": 76, "duration": 2, "velocity": 98}, {"time": 2201, "pitch": 74, "duration": 2, "velocity": 100}, {"time": 2204, "pitch": 76, "duration": 3, "velocity": 97}, {"time": 2207, "pitch": 74, "duration": 2, "velocity": 102}, {"time": 2210, "pitch": 76, "duration": 4, "velocity": 104}, {"time": 2216, "pitch": 78, "duration": 5, "velocity": 100}, {"time": 2222, "pitch": 74, "duration": 44, "velocity": 100}, {"time": 2276, "pitch": 74, "duration": 3, "velocity": 92}, {"time": 2279, "pitch": 71, "duration": 2, "velocity": 97}, {"time": 2282, "pitch": 74, "duration": 7, "velocity": 94}, {"time": 2291, "pitch": 83, "duration": 2, "velocity": 88}, {"time": 2294, "pitch": 83, "duration": 4, "velocity": 93}, {"time": 2300, "pitch": 81, "duration": 4, "velocity": 91}, {"time": 2306, "pitch": 79, "duration": 12, "velocity": 93}, {"time": 2324, "pitch": 73, "duration": 2, "velocity": 93}, {"time": 2327, "pitch": 71, "duration": 2, "velocity": 94}, {"time": 2330, "pitch": 73, "duration": 7, "velocity": 95}, {"time": 2339, "pitch": 79, "duration": 2, "velocity": 91}, {"time": 2342, "pitch": 79, "duration": 5, "velocity": 92}, {"time": 2348, "pitch": 78, "duration": 2, "velocity": 89}, {"time": 2351, "pitch": 76, "duration": 7, "velocity": 93}, {"time": 2360, "pitch": 78, "duration": 3, "velocity": 94}, {"time": 2363, "pitch": 79, "duration": 3, "velocity": 95}, {"time": 2366, "pitch": 81, "duration": 15, "velocity": 92}, {"time": 2381, "pitch": 78, "duration": 3, "velocity": 92}, {"time": 2384, "pitch": 79, "duration": 2, "velocity": 92}, {"time": 2387, "pitch": 81, "duration": 13, "velocity": 85}, {"time": 2402, "pitch": 76, "duration": 5, "velocity": 97}, {"time": 2408, "pitch": 78, "duration": 3, "velocity": 92}, {"time": 2411, "pitch": 76, "duration": 6, "velocity": 92}, {"time": 2417, "pitch": 74, "duration": 29, "velocity": 92}, {"time": 2459, "pitch": 78, "duration": 3, "velocity": 92}, {"time": 2462, "pitch": 76, "duration": 4, "velocity": 93}, {"time": 2468, "pitch": 74, "duration": 2, "velocity": 94}, {"time": 2471, "pitch": 71, "duration": 2, "velocity": 91}, {"time": 2474, "pitch": 74, "duration": 5, "velocity": 92}, {"time": 2480, "pitch": 71, "duration": 2, "velocity": 89}, {"time": 2483, "pitch": 74, "duration": 6, "velocity": 96}, {"time": 2489, "pitch": 71, "duration": 3, "velocity": 92}, {"time": 2492, "pitch": 71, "duration": 6, "velocity": 92}, {"time": 2507, "pitch": 76, "duration": 3, "velocity": 93}, {"time": 2510, "pitch": 83, "duration": 2, "velocity": 92}, {"time": 2513, "pitch": 81, "duration": 2, "velocity": 91}, {"time": 2516, "pitch": 81, "duration": 2, "velocity": 91}, {"time": 2519, "pitch": 78, "duration": 2, "velocity": 92}, {"time": 2522, "pitch": 81, "duration": 5, "velocity": 92}, {"time": 2528, "pitch": 78, "duration": 2, "velocity": 95}, {"time": 2531, "pitch": 81, "duration": 6, "velocity": 92}, {"time": 2540, "pitch": 83, "duration": 36, "velocity": 93}, {"time": 2579, "pitch": 74, "duration": 5, "velocity": 95}, {"time": 2585, "pitch": 74, "duration": 2, "velocity": 92}, {"time": 2588, "pitch": 76, "duration": 4, "velocity": 93}, {"time": 2594, "pitch": 78, "duration": 5, "velocity": 92}, {"time": 2600, "pitch": 81, "duration": 5, "velocity": 95}, {"time": 2606, "pitch": 83, "duration": 13, "velocity": 92}, {"time": 2627, "pitch": 74, "duration": 2, "velocity": 92}, {"time": 2630, "pitch": 76, "duration": 5, "velocity": 92}, {"time": 2636, "pitch": 74, "duration": 5, "velocity": 93}, {"time": 2642, "pitch": 73, "duration": 5, "velocity": 92}, {"time": 2648, "pitch": 78, "duration": 19, "velocity": 91}, {"time": 2675, "pitch": 74, "duration": 5, "velocity": 94}, {"time": 2681, "pitch": 74, "duration": 2, "velocity": 92}, {"time": 2684, "pitch": 76, "duration": 5, "velocity": 93}, {"time": 2690, "pitch": 78, "duration": 5, "velocity": 92}, {"time": 2696, "pitch": 81, "duration": 5, "velocity": 91}, {"time": 2702, "pitch": 83, "duration": 14, "velocity": 89}, {"time": 2723, "pitch": 74, "duration": 3, "velocity": 91}, {"time": 2726, "pitch": 73, "duration": 5, "velocity": 91}, {"time": 2732, "pitch": 71, "duration": 5, "velocity": 92}, {"time": 2738, "pitch": 73, "duration": 5, "velocity": 90}, {"time": 2744, "pitch": 74, "duration": 6, "velocity": 93}, {"time": 2753, "pitch": 74, "duration": 2, "velocity": 91}, {"time": 2756, "pitch": 74, "duration": 2, "velocity": 93}, {"time": 2759, "pitch": 74, "duration": 2, "velocity": 93}, {"time": 2762, "pitch": 74, "duration": 2, "velocity": 95}, {"time": 2765, "pitch": 76, "duration": 5, "velocity": 92}, {"time": 2771, "pitch": 78, "duration": 5, "velocity": 93}, {"time": 2777, "pitch": 74, "duration": 2, "velocity": 92}, {"time": 2780, "pitch": 74, "duration": 2, "velocity": 92}, {"time": 2783, "pitch": 74, "duration": 2, "velocity": 92}, {"time": 2786, "pitch": 74, "duration": 2, "velocity": 93}, {"time": 2789, "pitch": 83, "duration": 5, "velocity": 93}, {"time": 2795, "pitch": 81, "duration": 6, "velocity": 92}, {"time": 2801, "pitch": 79, "duration": 2, "velocity": 80}, {"time": 2804, "pitch": 79, "duration": 2, "velocity": 86}, {"time": 2807, "pitch": 79, "duration": 2, "velocity": 87}, {"time": 2810, "pitch": 79, "duration": 3, "velocity": 91}, {"time": 2813, "pitch": 78, "duration": 5, "velocity": 93}, {"time": 2819, "pitch": 81, "duration": 5, "velocity": 92}, {"time": 2825, "pitch": 79, "duration": 2, "velocity": 83}, {"time": 2828, "pitch": 79, "duration": 2, "velocity": 89}, {"time": 2831, "pitch": 79, "duration": 2, "velocity": 87}, {"time": 2834, "pitch": 79, "duration": 2, "velocity": 89}, {"time": 2837, "pitch": 78, "duration": 5, "velocity": 89}, {"time": 2843, "pitch": 81, "duration": 5, "velocity": 92}, {"time": 2849, "pitch": 81, "duration": 2, "velocity": 84}, {"time": 2852, "pitch": 81, "duration": 2, "velocity": 91}, {"time": 2855, "pitch": 78, "duration": 2, "velocity": 84}, {"time": 2858, "pitch": 81, "duration": 2, "velocity": 87}, {"time": 2861, "pitch": 85, "duration": 6, "velocity": 91}, {"time": 2867, "pitch": 83, "duration": 27, "velocity": 91}, {"time": 2906, "pitch": 78, "duration": 5, "velocity": 86}, {"time": 2912, "pitch": 76, "duration": 5, "velocity": 88}, {"time": 2918, "pitch": 74, "duration": 6, "velocity": 92}, {"time": 2924, "pitch": 71, "duration": 10, "velocity": 91}, {"time": 2936, "pitch": 74, "duration": 4, "velocity": 93}, {"time": 2942, "pitch": 76, "duration": 3, "velocity": 87}, {"time": 2945, "pitch": 74, "duration": 2, "velocity": 89}, {"time": 2948, "pitch": 76, "duration": 3, "velocity": 91}, {"time": 2951, "pitch": 74, "duration": 2, "velocity": 90}, {"time": 2954, "pitch": 76, "duration": 5, "velocity": 91}, {"time": 2960, "pitch": 78, "duration": 5, "velocity": 87}, {"time": 2966, "pitch": 78, "duration": 31, "velocity": 87}, {"time": 3002, "pitch": 78, "duration": 5, "velocity": 87}, {"time": 3008, "pitch": 76, "duration": 4, "velocity": 92}, {"time": 3014, "pitch": 74, "duration": 6, "velocity": 93}, {"time": 3020, "pitch": 71, "duration": 13, "velocity": 91}, {"time": 3035, "pitch": 74, "duration": 3, "velocity": 95}, {"time": 3040, "pitch": 76, "duration": 3, "velocity": 92}, {"time": 3043, "pitch": 74, "duration": 2, "velocity": 92}, {"time": 3047, "pitch": 76, "duration": 25, "velocity": 92}, {"time": 3087, "pitch": 74, "duration": 4, "velocity": 95}, {"time": 3094, "pitch": 76, "duration": 19, "velocity": 92}, {"time": 3127, "pitch": 78, "duration": 11, "velocity": 89}, {"time": 3140, "pitch": 78, "duration": 20, "velocity": 91}]}, {"program": 0, "is_drum": false, "name": "PIANO", "notes": [{"time": 13, "pitch": 57, "duration": 10, "velocity": 58}, {"time": 14, "pitch": 62, "duration": 10, "velocity": 71}, {"time": 14, "pitch": 38, "duration": 11, "velocity": 78}, {"time": 14, "pitch": 66, "duration": 10, "velocity": 71}, {"time": 37, "pitch": 58, "duration": 9, "velocity": 63}, {"time": 38, "pitch": 42, "duration": 7, "velocity": 71}, {"time": 38, "pitch": 61, "duration": 7, "velocity": 74}, {"time": 38, "pitch": 66, "duration": 10, "velocity": 70}, {"time": 61, "pitch": 59, "duration": 10, "velocity": 57}, {"time": 62, "pitch": 62, "duration": 13, "velocity": 73}, {"time": 62, "pitch": 47, "duration": 16, "velocity": 75}, {"time": 62, "pitch": 66, "duration": 13, "velocity": 67}, {"time": 68, "pitch": 54, "duration": 8, "velocity": 48}, {"time": 74, "pitch": 59, "duration": 5, "velocity": 80}, {"time": 85, "pitch": 57, "duration": 9, "velocity": 69}, {"time": 86, "pitch": 61, "duration": 11, "velocity": 69}, {"time": 86, "pitch": 45, "duration": 13, "velocity": 70}, {"time": 87, "pitch": 64, "duration": 12, "velocity": 58}, {"time": 92, "pitch": 52, "duration": 6, "velocity": 67}, {"time": 108, "pitch": 59, "duration": 5, "velocity": 69}, {"time": 109, "pitch": 64, "duration": 2, "velocity": 76}, {"time": 110, "pitch": 40, "duration": 38, "velocity": 85}, {"time": 110, "pitch": 67, "duration": 10, "velocity": 74}, {"time": 116, "pitch": 47, "duration": 31, "velocity": 62}, {"time": 122, "pitch": 59, "duration": 13, "velocity": 82}, {"time": 128, "pitch": 67, "duration": 8, "velocity": 69}, {"time": 134, "pitch": 71, "duration": 4, "velocity": 83}, {"time": 156, "pitch": 57, "duration": 5, "velocity": 57}, {"time": 156, "pitch": 61, "duration": 5, "velocity": 69}, {"time": 158, "pitch": 45, "duration": 37, "velocity": 84}, {"time": 158, "pitch": 64, "duration": 6, "velocity": 71}, {"time": 164, "pitch": 52, "duration": 31, "velocity": 74}, {"time": 170, "pitch": 57, "duration": 12, "velocity": 79}, {"time": 176, "pitch": 64, "duration": 6, "velocity": 84}, {"time": 182, "pitch": 69, "duration": 7, "velocity": 81}, {"time": 187, "pitch": 57, "duration": 3, "velocity": 65}, {"time": 194, "pitch": 57, "duration": 2, "velocity": 82}, {"time": 194, "pitch": 61, "duration": 2, "velocity": 83}, {"time": 194, "pitch": 64, "duration": 3, "velocity": 84}, {"time": 205, "pitch": 57, "duration": 3, "velocity": 64}, {"time": 206, "pitch": 62, "duration": 4, "velocity": 71}, {"time": 206, "pitch": 38, "duration": 15, "velocity": 84}, {"time": 207, "pitch": 66, "duration": 5, "velocity": 73}, {"time": 229, "pitch": 58, "duration": 4, "velocity": 63}, {"time": 230, "pitch": 61, "duration": 12, "velocity": 77}, {"time": 230, "pitch": 42, "duration": 13, "velocity": 82}, {"time": 231, "pitch": 66, "duration": 11, "velocity": 76}, {"time": 236, "pitch": 49, "duration": 7, "velocity": 70}, {"time": 242, "pitch": 58, "duration": 2, "velocity": 79}, {"time": 254, "pitch": 47, "duration": 40, "velocity": 84}, {"time": 254, "pitch": 59, "duration": 7, "velocity": 76}, {"time": 254, "pitch": 62, "duration": 7, "velocity": 75}, {"time": 260, "pitch": 54, "duration": 22, "velocity": 69}, {"time": 266, "pitch": 59, "duration": 3, "velocity": 83}, {"time": 266, "pitch": 62, "duration": 2, "velocity": 79}, {"time": 266, "pitch": 66, "duration": 3, "velocity": 80}, {"time": 278, "pitch": 62, "duration": 6, "velocity": 76}, {"time": 278, "pitch": 66, "duration": 6, "velocity": 72}, {"time": 284, "pitch": 54, "duration": 8, "velocity": 65}, {"time": 290, "pitch": 59, "duration": 3, "velocity": 83}, {"time": 290, "pitch": 62, "duration": 4, "velocity": 84}, {"time": 290, "pitch": 66, "duration": 5, "velocity": 83}, {"time": 302, "pitch": 40, "duration": 30, "velocity": 85}, {"time": 302, "pitch": 59, "duration": 11, "velocity": 76}, {"time": 302, "pitch": 64, "duration": 7, "velocity": 79}, {"time": 302, "pitch": 67, "duration": 7, "velocity": 78}, {"time": 308, "pitch": 47, "duration": 23, "velocity": 64}, {"time": 314, "pitch": 64, "duration": 2, "velocity": 83}, {"time": 314, "pitch": 67, "duration": 2, "velocity": 79}, {"time": 320, "pitch": 59, "duration": 4, "velocity": 64}, {"time": 326, "pitch": 59, "duration": 4, "velocity": 82}, {"time": 326, "pitch": 64, "duration": 5, "velocity": 85}, {"time": 338, "pitch": 64, "duration": 6, "velocity": 84}, {"time": 338, "pitch": 67, "duration": 6, "velocity": 79}, {"time": 344, "pitch": 59, "duration": 2, "velocity": 83}, {"time": 350, "pitch": 45, "duration": 44, "velocity": 84}, {"time": 350, "pitch": 57, "duration": 10, "velocity": 75}, {"time": 350, "pitch": 61, "duration": 8, "velocity": 76}, {"time": 350, "pitch": 64, "duration": 8, "velocity": 83}, {"time": 356, "pitch": 52, "duration": 20, "velocity": 72}, {"time": 362, "pitch": 57, "duration": 4, "velocity": 79}, {"time": 362, "pitch": 61, "duration": 4, "velocity": 75}, {"time": 374, "pitch": 57, "duration": 7, "velocity": 78}, {"time": 374, "pitch": 61, "duration": 7, "velocity": 85}, {"time": 374, "pitch": 64, "duration": 7, "velocity": 84}, {"time": 380, "pitch": 52, "duration": 13, "velocity": 74}, {"time": 386, "pitch": 57, "duration": 3, "velocity": 77}, {"time": 386, "pitch": 61, "duration": 6, "velocity": 82}, {"time": 392, "pitch": 57, "duration": 13, "velocity": 86}, {"time": 398, "pitch": 50, "duration": 41, "velocity": 84}, {"time": 398, "pitch": 62, "duration": 7, "velocity": 77}, {"time": 398, "pitch": 66, "duration": 7, "velocity": 70}, {"time": 410, "pitch": 62, "duration": 2, "velocity": 84}, {"time": 410, "pitch": 66, "duration": 3, "velocity": 84}, {"time": 416, "pitch": 57, "duration": 3, "velocity": 83}, {"time": 422, "pitch": 57, "duration": 4, "velocity": 78}, {"time": 422, "pitch": 62, "duration": 6, "velocity": 80}, {"time": 434, "pitch": 57, "duration": 3, "velocity": 78}, {"time": 434, "pitch": 62, "duration": 2, "velocity": 83}, {"time": 434, "pitch": 66, "duration": 3, "velocity": 74}, {"time": 440, "pitch": 61, "duration": 2, "velocity": 86}, {"time": 446, "pitch": 47, "duration": 40, "velocity": 83}, {"time": 446, "pitch": 59, "duration": 7, "velocity": 79}, {"time": 446, "pitch": 62, "duration": 7, "velocity": 83}, {"time": 452, "pitch": 54, "duration": 21, "velocity": 70}, {"time": 458, "pitch": 59, "duration": 2, "velocity": 83}, {"time": 458, "pitch": 66, "duration": 3, "velocity": 76}, {"time": 470, "pitch": 59, "duration": 6, "velocity": 79}, {"time": 470, "pitch": 62, "duration": 6, "velocity": 81}, {"time": 476, "pitch": 54, "duration": 8, "velocity": 59}, {"time": 482, "pitch": 59, "duration": 3, "velocity": 78}, {"time": 482, "pitch": 62, "duration": 4, "velocity": 83}, {"time": 482, "pitch": 66, "duration": 4, "velocity": 83}, {"time": 488, "pitch": 59, "duration": 6, "velocity": 92}, {"time": 494, "pitch": 40, "duration": 9, "velocity": 84}, {"time": 494, "pitch": 64, "duration": 6, "velocity": 80}, {"time": 494, "pitch": 67, "duration": 6, "velocity": 79}, {"time": 500, "pitch": 59, "duration": 3, "velocity": 75}, {"time": 506, "pitch": 59, "duration": 3, "velocity": 83}, {"time": 506, "pitch": 64, "duration": 5, "velocity": 85}, {"time": 518, "pitch": 64, "duration": 3, "velocity": 81}, {"time": 518, "pitch": 67, "duration": 4, "velocity": 76}, {"time": 530, "pitch": 59, "duration": 3, "velocity": 84}, {"time": 530, "pitch": 64, "duration": 3, "velocity": 87}, {"time": 530, "pitch": 67, "duration": 3, "velocity": 83}, {"time": 542, "pitch": 42, "duration": 38, "velocity": 80}, {"time": 542, "pitch": 61, "duration": 5, "velocity": 83}, {"time": 542, "pitch": 66, "duration": 5, "velocity": 78}, {"time": 548, "pitch": 49, "duration": 32, "velocity": 53}, {"time": 554, "pitch": 54, "duration": 5, "velocity": 73}, {"time": 554, "pitch": 61, "duration": 5, "velocity": 61}, {"time": 560, "pitch": 54, "duration": 3, "velocity": 84}, {"time": 566, "pitch": 54, "duration": 3, "velocity": 84}, {"time": 566, "pitch": 61, "duration": 4, "velocity": 83}, {"time": 578, "pitch": 54, "duration": 2, "velocity": 78}, {"time": 578, "pitch": 58, "duration": 2, "velocity": 69}, {"time": 578, "pitch": 61, "duration": 3, "velocity": 75}, {"time": 590, "pitch": 47, "duration": 27, "velocity": 84}, {"time": 590, "pitch": 59, "duration": 9, "velocity": 78}, {"time": 590, "pitch": 62, "duration": 8, "velocity": 78}, {"time": 590, "pitch": 66, "duration": 9, "velocity": 75}, {"time": 596, "pitch": 54, "duration": 10, "velocity": 69}, {"time": 602, "pitch": 59, "duration": 9, "velocity": 82}, {"time": 602, "pitch": 62, "duration": 7, "velocity": 81}, {"time": 602, "pitch": 66, "duration": 8, "velocity": 81}, {"time": 608, "pitch": 54, "duration": 8, "velocity": 65}, {"time": 614, "pitch": 59, "duration": 4, "velocity": 78}, {"time": 614, "pitch": 62, "duration": 7, "velocity": 79}, {"time": 620, "pitch": 59, "duration": 2, "velocity": 78}, {"time": 626, "pitch": 59, "duration": 3, "velocity": 86}, {"time": 626, "pitch": 62, "duration": 5, "velocity": 89}, {"time": 626, "pitch": 66, "duration": 5, "velocity": 87}, {"time": 638, "pitch": 42, "duration": 38, "velocity": 84}, {"time": 638, "pitch": 54, "duration": 9, "velocity": 77}, {"time": 638, "pitch": 61, "duration": 6, "velocity": 78}, {"time": 644, "pitch": 49, "duration": 9, "velocity": 64}, {"time": 650, "pitch": 54, "duration": 5, "velocity": 84}, {"time": 650, "pitch": 58, "duration": 5, "velocity": 75}, {"time": 656, "pitch": 49, "duration": 8, "velocity": 61}, {"time": 662, "pitch": 54, "duration": 8, "velocity": 80}, {"time": 662, "pitch": 58, "duration": 7, "velocity": 74}, {"time": 662, "pitch": 61, "duration": 6, "velocity": 77}, {"time": 668, "pitch": 49, "duration": 8, "velocity": 71}, {"time": 674, "pitch": 54, "duration": 3, "velocity": 84}, {"time": 674, "pitch": 58, "duration": 3, "velocity": 81}, {"time": 674, "pitch": 61, "duration": 3, "velocity": 80}, {"time": 686, "pitch": 47, "duration": 14, "velocity": 84}, {"time": 686, "pitch": 59, "duration": 9, "velocity": 80}, {"time": 686, "pitch": 62, "duration": 9, "velocity": 80}, {"time": 686, "pitch": 66, "duration": 9, "velocity": 76}, {"time": 692, "pitch": 54, "duration": 7, "velocity": 73}, {"time": 698, "pitch": 59, "duration": 3, "velocity": 84}, {"time": 698, "pitch": 62, "duration": 5, "velocity": 83}, {"time": 698, "pitch": 66, "duration": 5, "velocity": 83}, {"time": 704, "pitch": 59, "duration": 1, "velocity": 83}, {"time": 710, "pitch": 45, "duration": 15, "velocity": 84}, {"time": 710, "pitch": 57, "duration": 10, "velocity": 77}, {"time": 710, "pitch": 61, "duration": 10, "velocity": 77}, {"time": 710, "pitch": 64, "duration": 10, "velocity": 74}, {"time": 716, "pitch": 52, "duration": 9, "velocity": 76}, {"time": 722, "pitch": 57, "duration": 3, "velocity": 84}, {"time": 722, "pitch": 61, "duration": 3, "velocity": 83}, {"time": 722, "pitch": 64, "duration": 3, "velocity": 86}, {"time": 734, "pitch": 44, "duration": 39, "velocity": 81}, {"time": 734, "pitch": 56, "duration": 3, "velocity": 75}, {"time": 734, "pitch": 59, "duration": 7, "velocity": 84}, {"time": 734, "pitch": 62, "duration": 7, "velocity": 83}, {"time": 740, "pitch": 56, "duration": 6, "velocity": 75}, {"time": 746, "pitch": 59, "duration": 4, "velocity": 83}, {"time": 746, "pitch": 62, "duration": 3, "velocity": 83}, {"time": 758, "pitch": 59, "duration": 6, "velocity": 83}, {"time": 758, "pitch": 62, "duration": 6, "velocity": 83}, {"time": 764, "pitch": 56, "duration": 3, "velocity": 70}, {"time": 770, "pitch": 56, "duration": 3, "velocity": 84}, {"time": 770, "pitch": 59, "duration": 4, "velocity": 84}, {"time": 770, "pitch": 62, "duration": 5, "velocity": 84}, {"time": 782, "pitch": 45, "duration": 16, "velocity": 86}, {"time": 782, "pitch": 57, "duration": 9, "velocity": 69}, {"time": 782, "pitch": 61, "duration": 8, "velocity": 75}, {"time": 788, "pitch": 52, "duration": 10, "velocity": 83}, {"time": 794, "pitch": 57, "duration": 2, "velocity": 83}, {"time": 794, "pitch": 61, "duration": 3, "velocity": 84}, {"time": 794, "pitch": 64, "duration": 3, "velocity": 84}, {"time": 800, "pitch": 57, "duration": 9, "velocity": 84}, {"time": 806, "pitch": 61, "duration": 8, "velocity": 87}, {"time": 806, "pitch": 64, "duration": 7, "velocity": 86}, {"time": 806, "pitch": 69, "duration": 7, "velocity": 82}, {"time": 818, "pitch": 57, "duration": 5, "velocity": 85}, {"time": 818, "pitch": 61, "duration": 5, "velocity": 83}, {"time": 830, "pitch": 43, "duration": 19, "velocity": 108}, {"time": 830, "pitch": 55, "duration": 12, "velocity": 107}, {"time": 830, "pitch": 59, "duration": 9, "velocity": 103}, {"time": 836, "pitch": 50, "duration": 13, "velocity": 99}, {"time": 842, "pitch": 62, "duration": 5, "velocity": 107}, {"time": 845, "pitch": 55, "duration": 4, "velocity": 100}, {"time": 848, "pitch": 59, "duration": 2, "velocity": 100}, {"time": 854, "pitch": 45, "duration": 18, "velocity": 107}, {"time": 854, "pitch": 57, "duration": 8, "velocity": 99}, {"time": 854, "pitch": 61, "duration": 8, "velocity": 100}, {"time": 860, "pitch": 52, "duration": 7, "velocity": 93}, {"time": 866, "pitch": 57, "duration": 3, "velocity": 105}, {"time": 866, "pitch": 61, "duration": 4, "velocity": 110}, {"time": 866, "pitch": 64, "duration": 7, "velocity": 108}, {"time": 869, "pitch": 52, "duration": 4, "velocity": 102}, {"time": 872, "pitch": 57, "duration": 4, "velocity": 102}, {"time": 878, "pitch": 50, "duration": 18, "velocity": 106}, {"time": 878, "pitch": 57, "duration": 4, "velocity": 106}, {"time": 878, "pitch": 62, "duration": 7, "velocity": 105}, {"time": 884, "pitch": 57, "duration": 3, "velocity": 100}, {"time": 890, "pitch": 62, "duration": 7, "velocity": 106}, {"time": 890, "pitch": 66, "duration": 6, "velocity": 106}, {"time": 896, "pitch": 57, "duration": 4, "velocity": 102}, {"time": 902, "pitch": 50, "duration": 15, "velocity": 107}, {"time": 902, "pitch": 57, "duration": 4, "velocity": 105}, {"time": 902, "pitch": 62, "duration": 7, "velocity": 106}, {"time": 902, "pitch": 66, "duration": 7, "velocity": 98}, {"time": 908, "pitch": 57, "duration": 2, "velocity": 92}, {"time": 914, "pitch": 61, "duration": 3, "velocity": 117}, {"time": 917, "pitch": 62, "duration": 3, "velocity": 106}, {"time": 920, "pitch": 61, "duration": 3, "velocity": 102}, {"time": 923, "pitch": 57, "duration": 2, "velocity": 106}, {"time": 926, "pitch": 43, "duration": 16, "velocity": 107}, {"time": 926, "pitch": 55, "duration": 6, "velocity": 107}, {"time": 926, "pitch": 59, "duration": 5, "velocity": 108}, {"time": 932, "pitch": 50, "duration": 8, "velocity": 95}, {"time": 938, "pitch": 55, "duration": 3, "velocity": 106}, {"time": 938, "pitch": 59, "duration": 4, "velocity": 111}, {"time": 938, "pitch": 62, "duration": 4, "velocity": 107}, {"time": 944, "pitch": 43, "duration": 4, "velocity": 106}, {"time": 944, "pitch": 50, "duration": 3, "velocity": 107}, {"time": 950, "pitch": 45, "duration": 14, "velocity": 107}, {"time": 950, "pitch": 57, "duration": 7, "velocity": 99}, {"time": 950, "pitch": 61, "duration": 8, "velocity": 99}, {"time": 956, "pitch": 52, "duration": 8, "velocity": 99}, {"time": 962, "pitch": 57, "duration": 3, "velocity": 105}, {"time": 962, "pitch": 61, "duration": 4, "velocity": 108}, {"time": 962, "pitch": 64, "duration": 5, "velocity": 108}, {"time": 965, "pitch": 45, "duration": 2, "velocity": 107}, {"time": 968, "pitch": 57, "duration": 4, "velocity": 111}, {"time": 974, "pitch": 38, "duration": 3, "velocity": 108}, {"time": 974, "pitch": 57, "duration": 5, "velocity": 107}, {"time": 974, "pitch": 62, "duration": 5, "velocity": 107}, {"time": 980, "pitch": 50, "duration": 16, "velocity": 107}, {"time": 986, "pitch": 57, "duration": 10, "velocity": 107}, {"time": 989, "pitch": 62, "duration": 4, "velocity": 97}, {"time": 992, "pitch": 64, "duration": 3, "velocity": 106}, {"time": 995, "pitch": 62, "duration": 2, "velocity": 96}, {"time": 998, "pitch": 50, "duration": 14, "velocity": 108}, {"time": 998, "pitch": 62, "duration": 6, "velocity": 106}, {"time": 998, "pitch": 66, "duration": 7, "velocity": 107}, {"time": 1004, "pitch": 57, "duration": 8, "velocity": 97}, {"time": 1010, "pitch": 62, "duration": 5, "velocity": 102}, {"time": 1010, "pitch": 66, "duration": 3, "velocity": 104}, {"time": 1010, "pitch": 69, "duration": 5, "velocity": 106}, {"time": 1016, "pitch": 50, "duration": 2, "velocity": 110}, {"time": 1022, "pitch": 43, "duration": 19, "velocity": 105}, {"time": 1022, "pitch": 62, "duration": 7, "velocity": 101}, {"time": 1022, "pitch": 67, "duration": 7, "velocity": 100}, {"time": 1022, "pitch": 71, "duration": 7, "velocity": 106}, {"time": 1028, "pitch": 50, "duration": 8, "velocity": 95}, {"time": 1034, "pitch": 62, "duration": 5, "velocity": 107}, {"time": 1034, "pitch": 67, "duration": 5, "velocity": 107}, {"time": 1034, "pitch": 71, "duration": 7, "velocity": 107}, {"time": 1040, "pitch": 50, "duration": 4, "velocity": 106}, {"time": 1046, "pitch": 45, "duration": 16, "velocity": 107}, {"time": 1046, "pitch": 64, "duration": 6, "velocity": 108}, {"time": 1046, "pitch": 69, "duration": 7, "velocity": 106}, {"time": 1052, "pitch": 52, "duration": 10, "velocity": 94}, {"time": 1058, "pitch": 64, "duration": 3, "velocity": 108}, {"time": 1058, "pitch": 69, "duration": 2, "velocity": 107}, {"time": 1058, "pitch": 73, "duration": 3, "velocity": 106}, {"time": 1070, "pitch": 47, "duration": 23, "velocity": 107}, {"time": 1070, "pitch": 59, "duration": 6, "velocity": 97}, {"time": 1070, "pitch": 71, "duration": 5, "velocity": 107}, {"time": 1076, "pitch": 54, "duration": 8, "velocity": 91}, {"time": 1082, "pitch": 59, "duration": 7, "velocity": 107}, {"time": 1082, "pitch": 62, "duration": 8, "velocity": 107}, {"time": 1082, "pitch": 66, "duration": 11, "velocity": 107}, {"time": 1088, "pitch": 54, "duration": 5, "velocity": 96}, {"time": 1094, "pitch": 44, "duration": 9, "velocity": 97}, {"time": 1094, "pitch": 56, "duration": 8, "velocity": 94}, {"time": 1094, "pitch": 59, "duration": 8, "velocity": 103}, {"time": 1094, "pitch": 62, "duration": 9, "velocity": 105}, {"time": 1118, "pitch": 43, "duration": 17, "velocity": 90}, {"time": 1118, "pitch": 55, "duration": 8, "velocity": 84}, {"time": 1118, "pitch": 62, "duration": 8, "velocity": 87}, {"time": 1124, "pitch": 50, "duration": 8, "velocity": 80}, {"time": 1130, "pitch": 55, "duration": 6, "velocity": 90}, {"time": 1130, "pitch": 62, "duration": 6, "velocity": 89}, {"time": 1142, "pitch": 43, "duration": 16, "velocity": 84}, {"time": 1142, "pitch": 55, "duration": 11, "velocity": 79}, {"time": 1142, "pitch": 58, "duration": 9, "velocity": 81}, {"time": 1148, "pitch": 62, "duration": 7, "velocity": 88}, {"time": 1154, "pitch": 67, "duration": 7, "velocity": 94}, {"time": 1166, "pitch": 38, "duration": 26, "velocity": 89}, {"time": 1166, "pitch": 66, "duration": 12, "velocity": 90}, {"time": 1172, "pitch": 57, "duration": 7, "velocity": 79}, {"time": 1178, "pitch": 62, "duration": 7, "velocity": 90}, {"time": 1184, "pitch": 57, "duration": 7, "velocity": 87}, {"time": 1190, "pitch": 64, "duration": 8, "velocity": 94}, {"time": 1196, "pitch": 57, "duration": 3, "velocity": 77}, {"time": 1202, "pitch": 57, "duration": 3, "velocity": 95}, {"time": 1202, "pitch": 62, "duration": 11, "velocity": 95}, {"time": 1208, "pitch": 57, "duration": 6, "velocity": 95}, {"time": 1214, "pitch": 44, "duration": 25, "velocity": 82}, {"time": 1214, "pitch": 56, "duration": 2, "velocity": 68}, {"time": 1214, "pitch": 59, "duration": 7, "velocity": 77}, {"time": 1214, "pitch": 62, "duration": 7, "velocity": 78}, {"time": 1220, "pitch": 56, "duration": 8, "velocity": 72}, {"time": 1226, "pitch": 64, "duration": 5, "velocity": 85}, {"time": 1232, "pitch": 56, "duration": 5, "velocity": 68}, {"time": 1238, "pitch": 59, "duration": 8, "velocity": 76}, {"time": 1238, "pitch": 62, "duration": 6, "velocity": 76}, {"time": 1244, "pitch": 56, "duration": 4, "velocity": 58}, {"time": 1250, "pitch": 56, "duration": 3, "velocity": 83}, {"time": 1250, "pitch": 59, "duration": 3, "velocity": 81}, {"time": 1250, "pitch": 62, "duration": 5, "velocity": 83}, {"time": 1256, "pitch": 44, "duration": 4, "velocity": 78}, {"time": 1262, "pitch": 45, "duration": 19, "velocity": 83}, {"time": 1262, "pitch": 57, "duration": 13, "velocity": 75}, {"time": 1262, "pitch": 61, "duration": 10, "velocity": 78}, {"time": 1268, "pitch": 52, "duration": 13, "velocity": 75}, {"time": 1274, "pitch": 61, "duration": 1, "velocity": 65}, {"time": 1274, "pitch": 64, "duration": 6, "velocity": 87}, {"time": 1280, "pitch": 57, "duration": 3, "velocity": 77}, {"time": 1286, "pitch": 42, "duration": 15, "velocity": 86}, {"time": 1286, "pitch": 54, "duration": 10, "velocity": 79}, {"time": 1286, "pitch": 66, "duration": 6, "velocity": 76}, {"time": 1292, "pitch": 49, "duration": 9, "velocity": 83}, {"time": 1298, "pitch": 54, "duration": 10, "velocity": 85}, {"time": 1298, "pitch": 58, "duration": 10, "velocity": 78}, {"time": 1298, "pitch": 61, "duration": 10, "velocity": 82}, {"time": 1304, "pitch": 49, "duration": 5, "velocity": 78}, {"time": 1310, "pitch": 47, "duration": 40, "velocity": 84}, {"time": 1310, "pitch": 59, "duration": 7, "velocity": 76}, {"time": 1310, "pitch": 62, "duration": 7, "velocity": 75}, {"time": 1316, "pitch": 54, "duration": 22, "velocity": 69}, {"time": 1322, "pitch": 59, "duration": 3, "velocity": 83}, {"time": 1322, "pitch": 62, "duration": 2, "velocity": 79}, {"time": 1322, "pitch": 66, "duration": 3, "velocity": 80}, {"time": 1334, "pitch": 62, "duration": 6, "velocity": 76}, {"time": 1334, "pitch": 66, "duration": 6, "velocity": 72}, {"time": 1340, "pitch": 54, "duration": 8, "velocity": 65}, {"time": 1346, "pitch": 59, "duration": 3, "velocity": 83}, {"time": 1346, "pitch": 62, "duration": 4, "velocity": 84}, {"time": 1346, "pitch": 66, "duration": 5, "velocity": 83}, {"time": 1358, "pitch": 40, "duration": 30, "velocity": 85}, {"time": 1358, "pitch": 59, "duration": 11, "velocity": 76}, {"time": 1358, "pitch": 64, "duration": 7, "velocity": 79}, {"time": 1358, "pitch": 67, "duration": 7, "velocity": 78}, {"time": 1364, "pitch": 47, "duration": 23, "velocity": 64}, {"time": 1370, "pitch": 64, "duration": 2, "velocity": 83}, {"time": 1370, "pitch": 67, "duration": 2, "velocity": 79}, {"time": 1376, "pitch": 59, "duration": 4, "velocity": 64}, {"time": 1382, "pitch": 59, "duration": 4, "velocity": 82}, {"time": 1382, "pitch": 64, "duration": 5, "velocity": 85}, {"time": 1394, "pitch": 64, "duration": 6, "velocity": 84}, {"time": 1394, "pitch": 67, "duration": 6, "velocity": 79}, {"time": 1400, "pitch": 59, "duration": 2, "velocity": 83}, {"time": 1406, "pitch": 45, "duration": 44, "velocity": 84}, {"time": 1406, "pitch": 57, "duration": 10, "velocity": 75}, {"time": 1406, "pitch": 61, "duration": 8, "velocity": 76}, {"time": 1406, "pitch": 64, "duration": 8, "velocity": 83}, {"time": 1412, "pitch": 52, "duration": 20, "velocity": 72}, {"time": 1418, "pitch": 57, "duration": 4, "velocity": 79}, {"time": 1418, "pitch": 61, "duration": 4, "velocity": 75}, {"time": 1430, "pitch": 57, "duration": 7, "velocity": 78}, {"time": 1430, "pitch": 61, "duration": 7, "velocity": 85}, {"time": 1430, "pitch": 64, "duration": 7, "velocity": 84}, {"time": 1436, "pitch": 52, "duration": 13, "velocity": 74}, {"time": 1442, "pitch": 57, "duration": 3, "velocity": 77}, {"time": 1442, "pitch": 61, "duration": 6, "velocity": 82}, {"time": 1448, "pitch": 57, "duration": 13, "velocity": 86}, {"time": 1454, "pitch": 50, "duration": 41, "velocity": 84}, {"time": 1454, "pitch": 62, "duration": 7, "velocity": 77}, {"time": 1454, "pitch": 66, "duration": 7, "velocity": 70}, {"time": 1466, "pitch": 62, "duration": 2, "velocity": 84}, {"time": 1466, "pitch": 66, "duration": 3, "velocity": 84}, {"time": 1472, "pitch": 57, "duration": 3, "velocity": 83}, {"time": 1478, "pitch": 57, "duration": 4, "velocity": 78}, {"time": 1478, "pitch": 62, "duration": 6, "velocity": 80}, {"time": 1490, "pitch": 57, "duration": 3, "velocity": 78}, {"time": 1490, "pitch": 62, "duration": 2, "velocity": 83}, {"time": 1490, "pitch": 66, "duration": 3, "velocity": 74}, {"time": 1496, "pitch": 61, "duration": 2, "velocity": 86}, {"time": 1502, "pitch": 47, "duration": 40, "velocity": 83}, {"time": 1502, "pitch": 59, "duration": 7, "velocity": 79}, {"time": 1502, "pitch": 62, "duration": 7, "velocity": 83}, {"time": 1508, "pitch": 54, "duration": 21, "velocity": 70}, {"time": 1514, "pitch": 59, "duration": 2, "velocity": 83}, {"time": 1514, "pitch": 66, "duration": 3, "velocity": 76}, {"time": 1526, "pitch": 59, "duration": 6, "velocity": 79}, {"time": 1526, "pitch": 62, "duration": 6, "velocity": 81}, {"time": 1532, "pitch": 54, "duration": 8, "velocity": 59}, {"time": 1538, "pitch": 59, "duration": 3, "velocity": 78}, {"time": 1538, "pitch": 62, "duration": 4, "velocity": 83}, {"time": 1538, "pitch": 66, "duration": 4, "velocity": 83}, {"time": 1544, "pitch": 59, "duration": 6, "velocity": 92}, {"time": 1550, "pitch": 40, "duration": 9, "velocity": 84}, {"time": 1550, "pitch": 64, "duration": 6, "velocity": 80}, {"time": 1550, "pitch": 67, "duration": 6, "velocity": 79}, {"time": 1556, "pitch": 59, "duration": 3, "velocity": 75}, {"time": 1562, "pitch": 59, "duration": 3, "velocity": 83}, {"time": 1562, "pitch": 64, "duration": 5, "velocity": 85}, {"time": 1574, "pitch": 64, "duration": 3, "velocity": 81}, {"time": 1574, "pitch": 67, "duration": 4, "velocity": 76}, {"time": 1586, "pitch": 59, "duration": 3, "velocity": 84}, {"time": 1586, "pitch": 64, "duration": 3, "velocity": 87}, {"time": 1586, "pitch": 67, "duration": 3, "velocity": 83}, {"time": 1598, "pitch": 42, "duration": 38, "velocity": 80}, {"time": 1598, "pitch": 61, "duration": 5, "velocity": 83}, {"time": 1598, "pitch": 66, "duration": 5, "velocity": 78}, {"time": 1604, "pitch": 49, "duration": 32, "velocity": 53}, {"time": 1610, "pitch": 54, "duration": 5, "velocity": 73}, {"time": 1610, "pitch": 61, "duration": 5, "velocity": 61}, {"time": 1616, "pitch": 54, "duration": 3, "velocity": 84}, {"time": 1622, "pitch": 54, "duration": 3, "velocity": 84}, {"time": 1622, "pitch": 61, "duration": 4, "velocity": 83}, {"time": 1634, "pitch": 54, "duration": 2, "velocity": 78}, {"time": 1634, "pitch": 58, "duration": 2, "velocity": 69}, {"time": 1634, "pitch": 61, "duration": 3, "velocity": 75}, {"time": 1646, "pitch": 47, "duration": 27, "velocity": 84}, {"time": 1646, "pitch": 59, "duration": 9, "velocity": 78}, {"time": 1646, "pitch": 62, "duration": 8, "velocity": 78}, {"time": 1646, "pitch": 66, "duration": 9, "velocity": 75}, {"time": 1652, "pitch": 54, "duration": 10, "velocity": 69}, {"time": 1658, "pitch": 59, "duration": 9, "velocity": 82}, {"time": 1658, "pitch": 62, "duration": 7, "velocity": 81}, {"time": 1658, "pitch": 66, "duration": 8, "velocity": 81}, {"time": 1664, "pitch": 54, "duration": 8, "velocity": 65}, {"time": 1670, "pitch": 59, "duration": 4, "velocity": 78}, {"time": 1670, "pitch": 62, "duration": 7, "velocity": 79}, {"time": 1676, "pitch": 59, "duration": 2, "velocity": 78}, {"time": 1682, "pitch": 59, "duration": 3, "velocity": 86}, {"time": 1682, "pitch": 62, "duration": 5, "velocity": 89}, {"time": 1682, "pitch": 66, "duration": 5, "velocity": 87}, {"time": 1694, "pitch": 42, "duration": 38, "velocity": 84}, {"time": 1694, "pitch": 54, "duration": 9, "velocity": 77}, {"time": 1694, "pitch": 61, "duration": 6, "velocity": 78}, {"time": 1700, "pitch": 49, "duration": 9, "velocity": 64}, {"time": 1706, "pitch": 54, "duration": 5, "velocity": 84}, {"time": 1706, "pitch": 58, "duration": 5, "velocity": 75}, {"time": 1712, "pitch": 49, "duration": 8, "velocity": 61}, {"time": 1718, "pitch": 54, "duration": 8, "velocity": 80}, {"time": 1718, "pitch": 58, "duration": 7, "velocity": 74}, {"time": 1718, "pitch": 61, "duration": 6, "velocity": 77}, {"time": 1724, "pitch": 49, "duration": 8, "velocity": 71}, {"time": 1730, "pitch": 54, "duration": 3, "velocity": 84}, {"time": 1730, "pitch": 58, "duration": 3, "velocity": 81}, {"time": 1730, "pitch": 61, "duration": 3, "velocity": 80}, {"time": 1742, "pitch": 47, "duration": 14, "velocity": 84}, {"time": 1742, "pitch": 59, "duration": 9, "velocity": 80}, {"time": 1742, "pitch": 62, "duration": 9, "velocity": 80}, {"time": 1742, "pitch": 66, "duration": 9, "velocity": 76}, {"time": 1748, "pitch": 54, "duration": 7, "velocity": 73}, {"time": 1754, "pitch": 59, "duration": 3, "velocity": 84}, {"time": 1754, "pitch": 62, "duration": 5, "velocity": 83}, {"time": 1754, "pitch": 66, "duration": 5, "velocity": 83}, {"time": 1760, "pitch": 59, "duration": 1, "velocity": 83}, {"time": 1766, "pitch": 45, "duration": 15, "velocity": 84}, {"time": 1766, "pitch": 57, "duration": 10, "velocity": 77}, {"time": 1766, "pitch": 61, "duration": 10, "velocity": 77}, {"time": 1766, "pitch": 64, "duration": 10, "velocity": 74}, {"time": 1772, "pitch": 52, "duration": 9, "velocity": 76}, {"time": 1778, "pitch": 57, "duration": 3, "velocity": 84}, {"time": 1778, "pitch": 61, "duration": 3, "velocity": 83}, {"time": 1778, "pitch": 64, "duration": 3, "velocity": 86}, {"time": 1790, "pitch": 44, "duration": 39, "velocity": 81}, {"time": 1790, "pitch": 56, "duration": 3, "velocity": 75}, {"time": 1790, "pitch": 59, "duration": 7, "velocity": 84}, {"time": 1790, "pitch": 62, "duration": 7, "velocity": 83}, {"time": 1796, "pitch": 56, "duration": 6, "velocity": 75}, {"time": 1802, "pitch": 59, "duration": 4, "velocity": 83}, {"time": 1802, "pitch": 62, "duration": 3, "velocity": 83}, {"time": 1814, "pitch": 59, "duration": 6, "velocity": 83}, {"time": 1814, "pitch": 62, "duration": 6, "velocity": 83}, {"time": 1820, "pitch": 56, "duration": 3, "velocity": 70}, {"time": 1826, "pitch": 56, "duration": 3, "velocity": 84}, {"time": 1826, "pitch": 59, "duration": 4, "velocity": 84}, {"time": 1826, "pitch": 62, "duration": 5, "velocity": 84}, {"time": 1838, "pitch": 45, "duration": 16, "velocity": 86}, {"time": 1838, "pitch": 57, "duration": 9, "velocity": 69}, {"time": 1838, "pitch": 61, "duration": 8, "velocity": 75}, {"time": 1844, "pitch": 52, "duration": 10, "velocity": 83}, {"time": 1850, "pitch": 57, "duration": 2, "velocity": 83}, {"time": 1850, "pitch": 61, "duration": 3, "velocity": 84}, {"time": 1850, "pitch": 64, "duration": 3, "velocity": 84}, {"time": 1856, "pitch": 57, "duration": 9, "velocity": 84}, {"time": 1862, "pitch": 61, "duration": 8, "velocity": 87}, {"time": 1862, "pitch": 64, "duration": 7, "velocity": 86}, {"time": 1862, "pitch": 69, "duration": 7, "velocity": 82}, {"time": 1874, "pitch": 57, "duration": 5, "velocity": 85}, {"time": 1874, "pitch": 61, "duration": 5, "velocity": 83}, {"time": 1886, "pitch": 43, "duration": 19, "velocity": 98}, {"time": 1886, "pitch": 55, "duration": 12, "velocity": 97}, {"time": 1886, "pitch": 59, "duration": 9, "velocity": 93}, {"time": 1892, "pitch": 50, "duration": 13, "velocity": 89}, {"time": 1898, "pitch": 62, "duration": 5, "velocity": 97}, {"time": 1901, "pitch": 55, "duration": 4, "velocity": 90}, {"time": 1904, "pitch": 59, "duration": 2, "velocity": 90}, {"time": 1910, "pitch": 45, "duration": 18, "velocity": 97}, {"time": 1910, "pitch": 57, "duration": 8, "velocity": 89}, {"time": 1910, "pitch": 61, "duration": 8, "velocity": 90}, {"time": 1916, "pitch": 52, "duration": 7, "velocity": 83}, {"time": 1922, "pitch": 57, "duration": 3, "velocity": 95}, {"time": 1922, "pitch": 61, "duration": 4, "velocity": 100}, {"time": 1922, "pitch": 64, "duration": 7, "velocity": 98}, {"time": 1925, "pitch": 52, "duration": 4, "velocity": 92}, {"time": 1928, "pitch": 57, "duration": 4, "velocity": 92}, {"time": 1934, "pitch": 50, "duration": 18, "velocity": 96}, {"time": 1934, "pitch": 57, "duration": 4, "velocity": 96}, {"time": 1934, "pitch": 62, "duration": 7, "velocity": 95}, {"time": 1940, "pitch": 57, "duration": 3, "velocity": 90}, {"time": 1946, "pitch": 62, "duration": 7, "velocity": 96}, {"time": 1946, "pitch": 66, "duration": 6, "velocity": 96}, {"time": 1952, "pitch": 57, "duration": 4, "velocity": 92}, {"time": 1958, "pitch": 50, "duration": 15, "velocity": 97}, {"time": 1958, "pitch": 57, "duration": 4, "velocity": 95}, {"time": 1958, "pitch": 62, "duration": 7, "velocity": 96}, {"time": 1958, "pitch": 66, "duration": 7, "velocity": 88}, {"time": 1964, "pitch": 57, "duration": 2, "velocity": 82}, {"time": 1970, "pitch": 61, "duration": 3, "velocity": 107}, {"time": 1973, "pitch": 62, "duration": 3, "velocity": 96}, {"time": 1976, "pitch": 61, "duration": 3, "velocity": 92}, {"time": 1979, "pitch": 57, "duration": 2, "velocity": 96}, {"time": 1982, "pitch": 43, "duration": 16, "velocity": 97}, {"time": 1982, "pitch": 55, "duration": 6, "velocity": 97}, {"time": 1982, "pitch": 59, "duration": 5, "velocity": 98}, {"time": 1988, "pitch": 50, "duration": 8, "velocity": 85}, {"time": 1994, "pitch": 55, "duration": 3, "velocity": 96}, {"time": 1994, "pitch": 59, "duration": 4, "velocity": 101}, {"time": 1994, "pitch": 62, "duration": 4, "velocity": 97}, {"time": 2000, "pitch": 43, "duration": 4, "velocity": 96}, {"time": 2000, "pitch": 50, "duration": 3, "velocity": 97}, {"time": 2006, "pitch": 45, "duration": 14, "velocity": 97}, {"time": 2006, "pitch": 57, "duration": 7, "velocity": 89}, {"time": 2006, "pitch": 61, "duration": 8, "velocity": 89}, {"time": 2012, "pitch": 52, "duration": 8, "velocity": 89}, {"time": 2018, "pitch": 57, "duration": 3, "velocity": 95}, {"time": 2018, "pitch": 61, "duration": 4, "velocity": 98}, {"time": 2018, "pitch": 64, "duration": 5, "velocity": 98}, {"time": 2021, "pitch": 45, "duration": 2, "velocity": 97}, {"time": 2024, "pitch": 57, "duration": 4, "velocity": 101}, {"time": 2030, "pitch": 38, "duration": 3, "velocity": 98}, {"time": 2030, "pitch": 57, "duration": 5, "velocity": 97}, {"time": 2030, "pitch": 62, "duration": 5, "velocity": 97}, {"time": 2036, "pitch": 50, "duration": 16, "velocity": 97}, {"time": 2042, "pitch": 57, "duration": 10, "velocity": 97}, {"time": 2045, "pitch": 62, "duration": 4, "velocity": 87}, {"time": 2048, "pitch": 64, "duration": 3, "velocity": 96}, {"time": 2051, "pitch": 62, "duration": 2, "velocity": 86}, {"time": 2054, "pitch": 50, "duration": 14, "velocity": 98}, {"time": 2054, "pitch": 62, "duration": 6, "velocity": 96}, {"time": 2054, "pitch": 66, "duration": 7, "velocity": 97}, {"time": 2060, "pitch": 57, "duration": 8, "velocity": 87}, {"time": 2066, "pitch": 62, "duration": 5, "velocity": 92}, {"time": 2066, "pitch": 66, "duration": 3, "velocity": 94}, {"time": 2066, "pitch": 69, "duration": 5, "velocity": 96}, {"time": 2072, "pitch": 50, "duration": 2, "velocity": 100}, {"time": 2078, "pitch": 43, "duration": 19, "velocity": 95}, {"time": 2078, "pitch": 62, "duration": 7, "velocity": 91}, {"time": 2078, "pitch": 67, "duration": 7, "velocity": 90}, {"time": 2078, "pitch": 71, "duration": 7, "velocity": 96}, {"time": 2084, "pitch": 50, "duration": 8, "velocity": 85}, {"time": 2090, "pitch": 62, "duration": 5, "velocity": 97}, {"time": 2090, "pitch": 67, "duration": 5, "velocity": 97}, {"time": 2090, "pitch": 71, "duration": 7, "velocity": 97}, {"time": 2096, "pitch": 50, "duration": 4, "velocity": 96}, {"time": 2102, "pitch": 45, "duration": 16, "velocity": 97}, {"time": 2102, "pitch": 64, "duration": 6, "velocity": 98}, {"time": 2102, "pitch": 69, "duration": 7, "velocity": 96}, {"time": 2108, "pitch": 52, "duration": 10, "velocity": 84}, {"time": 2114, "pitch": 64, "duration": 3, "velocity": 98}, {"time": 2114, "pitch": 69, "duration": 2, "velocity": 97}, {"time": 2114, "pitch": 73, "duration": 3, "velocity": 96}, {"time": 2126, "pitch": 47, "duration": 23, "velocity": 97}, {"time": 2126, "pitch": 59, "duration": 6, "velocity": 87}, {"time": 2126, "pitch": 71, "duration": 5, "velocity": 97}, {"time": 2132, "pitch": 54, "duration": 8, "velocity": 81}, {"time": 2138, "pitch": 59, "duration": 7, "velocity": 97}, {"time": 2138, "pitch": 62, "duration": 8, "velocity": 97}, {"time": 2138, "pitch": 66, "duration": 11, "velocity": 97}, {"time": 2144, "pitch": 54, "duration": 5, "velocity": 86}, {"time": 2150, "pitch": 44, "duration": 9, "velocity": 87}, {"time": 2150, "pitch": 56, "duration": 8, "velocity": 84}, {"time": 2150, "pitch": 59, "duration": 8, "velocity": 93}, {"time": 2150, "pitch": 62, "duration": 9, "velocity": 95}, {"time": 2174, "pitch": 43, "duration": 17, "velocity": 92}, {"time": 2174, "pitch": 55, "duration": 8, "velocity": 86}, {"time": 2174, "pitch": 62, "duration": 8, "velocity": 89}, {"time": 2180, "pitch": 50, "duration": 8, "velocity": 82}, {"time": 2186, "pitch": 55, "duration": 6, "velocity": 92}, {"time": 2186, "pitch": 62, "duration": 6, "velocity": 91}, {"time": 2198, "pitch": 43, "duration": 16, "velocity": 86}, {"time": 2198, "pitch": 55, "duration": 11, "velocity": 81}, {"time": 2198, "pitch": 58, "duration": 9, "velocity": 83}, {"time": 2204, "pitch": 62, "duration": 7, "velocity": 90}, {"time": 2210, "pitch": 67, "duration": 7, "velocity": 96}, {"time": 2222, "pitch": 38, "duration": 26, "velocity": 91}, {"time": 2222, "pitch": 66, "duration": 12, "velocity": 92}, {"time": 2228, "pitch": 57, "duration": 7, "velocity": 81}, {"time": 2234, "pitch": 62, "duration": 7, "velocity": 92}, {"time": 2240, "pitch": 57, "duration": 7, "velocity": 89}, {"time": 2246, "pitch": 64, "duration": 8, "velocity": 96}, {"time": 2252, "pitch": 57, "duration": 3, "velocity": 79}, {"time": 2258, "pitch": 57, "duration": 3, "velocity": 97}, {"time": 2258, "pitch": 62, "duration": 11, "velocity": 97}, {"time": 2264, "pitch": 57, "duration": 6, "velocity": 97}, {"time": 2270, "pitch": 43, "duration": 19, "velocity": 89}, {"time": 2270, "pitch": 55, "duration": 9, "velocity": 86}, {"time": 2270, "pitch": 62, "duration": 9, "velocity": 85}, {"time": 2276, "pitch": 50, "duration": 14, "velocity": 84}, {"time": 2282, "pitch": 55, "duration": 3, "velocity": 86}, {"time": 2282, "pitch": 59, "duration": 7, "velocity": 86}, {"time": 2288, "pitch": 55, "duration": 3, "velocity": 88}, {"time": 2294, "pitch": 45, "duration": 22, "velocity": 89}, {"time": 2294, "pitch": 57, "duration": 13, "velocity": 88}, {"time": 2300, "pitch": 52, "duration": 15, "velocity": 85}, {"time": 2306, "pitch": 61, "duration": 5, "velocity": 92}, {"time": 2318, "pitch": 45, "duration": 23, "velocity": 84}, {"time": 2318, "pitch": 57, "duration": 10, "velocity": 84}, {"time": 2318, "pitch": 61, "duration": 10, "velocity": 89}, {"time": 2324, "pitch": 52, "duration": 16, "velocity": 81}, {"time": 2330, "pitch": 64, "duration": 5, "velocity": 90}, {"time": 2336, "pitch": 57, "duration": 5, "velocity": 95}, {"time": 2342, "pitch": 45, "duration": 16, "velocity": 84}, {"time": 2342, "pitch": 57, "duration": 7, "velocity": 89}, {"time": 2342, "pitch": 61, "duration": 7, "velocity": 82}, {"time": 2348, "pitch": 52, "duration": 7, "velocity": 82}, {"time": 2354, "pitch": 57, "duration": 4, "velocity": 86}, {"time": 2354, "pitch": 61, "duration": 4, "velocity": 93}, {"time": 2354, "pitch": 64, "duration": 6, "velocity": 90}, {"time": 2360, "pitch": 57, "duration": 7, "velocity": 92}, {"time": 2366, "pitch": 38, "duration": 22, "velocity": 84}, {"time": 2366, "pitch": 66, "duration": 10, "velocity": 94}, {"time": 2372, "pitch": 45, "duration": 16, "velocity": 82}, {"time": 2375, "pitch": 57, "duration": 4, "velocity": 88}, {"time": 2378, "pitch": 62, "duration": 3, "velocity": 89}, {"time": 2381, "pitch": 57, "duration": 4, "velocity": 83}, {"time": 2384, "pitch": 62, "duration": 4, "velocity": 88}, {"time": 2387, "pitch": 57, "duration": 2, "velocity": 81}, {"time": 2390, "pitch": 38, "duration": 17, "velocity": 93}, {"time": 2390, "pitch": 57, "duration": 3, "velocity": 82}, {"time": 2390, "pitch": 64, "duration": 6, "velocity": 91}, {"time": 2393, "pitch": 45, "duration": 12, "velocity": 84}, {"time": 2396, "pitch": 57, "duration": 4, "velocity": 86}, {"time": 2402, "pitch": 57, "duration": 4, "velocity": 90}, {"time": 2402, "pitch": 61, "duration": 5, "velocity": 93}, {"time": 2408, "pitch": 62, "duration": 4, "velocity": 85}, {"time": 2414, "pitch": 47, "duration": 15, "velocity": 86}, {"time": 2414, "pitch": 59, "duration": 13, "velocity": 83}, {"time": 2414, "pitch": 66, "duration": 13, "velocity": 77}, {"time": 2420, "pitch": 54, "duration": 8, "velocity": 81}, {"time": 2426, "pitch": 62, "duration": 6, "velocity": 92}, {"time": 2432, "pitch": 59, "duration": 2, "velocity": 93}, {"time": 2438, "pitch": 45, "duration": 16, "velocity": 87}, {"time": 2438, "pitch": 57, "duration": 13, "velocity": 88}, {"time": 2438, "pitch": 61, "duration": 10, "velocity": 89}, {"time": 2444, "pitch": 52, "duration": 9, "velocity": 84}, {"time": 2450, "pitch": 64, "duration": 6, "velocity": 89}, {"time": 2462, "pitch": 44, "duration": 23, "velocity": 88}, {"time": 2462, "pitch": 68, "duration": 13, "velocity": 90}, {"time": 2468, "pitch": 50, "duration": 15, "velocity": 77}, {"time": 2474, "pitch": 64, "duration": 14, "velocity": 90}, {"time": 2480, "pitch": 71, "duration": 15, "velocity": 87}, {"time": 2492, "pitch": 64, "duration": 3, "velocity": 76}, {"time": 2498, "pitch": 64, "duration": 3, "velocity": 89}, {"time": 2498, "pitch": 71, "duration": 7, "velocity": 90}, {"time": 2510, "pitch": 45, "duration": 22, "velocity": 88}, {"time": 2510, "pitch": 64, "duration": 3, "velocity": 83}, {"time": 2510, "pitch": 69, "duration": 3, "velocity": 82}, {"time": 2516, "pitch": 52, "duration": 15, "velocity": 88}, {"time": 2522, "pitch": 57, "duration": 2, "velocity": 89}, {"time": 2525, "pitch": 61, "duration": 2, "velocity": 81}, {"time": 2528, "pitch": 62, "duration": 4, "velocity": 77}, {"time": 2534, "pitch": 45, "duration": 9, "velocity": 90}, {"time": 2534, "pitch": 62, "duration": 4, "velocity": 84}, {"time": 2546, "pitch": 45, "duration": 8, "velocity": 92}, {"time": 2546, "pitch": 64, "duration": 7, "velocity": 99}, {"time": 2552, "pitch": 52, "duration": 2, "velocity": 81}, {"time": 2558, "pitch": 45, "duration": 38, "velocity": 90}, {"time": 2558, "pitch": 64, "duration": 3, "velocity": 88}, {"time": 2558, "pitch": 69, "duration": 3, "velocity": 85}, {"time": 2564, "pitch": 52, "duration": 31, "velocity": 80}, {"time": 2606, "pitch": 43, "duration": 19, "velocity": 87}, {"time": 2606, "pitch": 55, "duration": 8, "velocity": 79}, {"time": 2606, "pitch": 59, "duration": 12, "velocity": 79}, {"time": 2612, "pitch": 50, "duration": 12, "velocity": 72}, {"time": 2618, "pitch": 55, "duration": 7, "velocity": 90}, {"time": 2624, "pitch": 59, "duration": 7, "velocity": 90}, {"time": 2630, "pitch": 45, "duration": 15, "velocity": 88}, {"time": 2630, "pitch": 61, "duration": 12, "velocity": 85}, {"time": 2636, "pitch": 52, "duration": 8, "velocity": 77}, {"time": 2642, "pitch": 57, "duration": 13, "velocity": 83}, {"time": 2654, "pitch": 38, "duration": 22, "velocity": 84}, {"time": 2654, "pitch": 66, "duration": 18, "velocity": 78}, {"time": 2660, "pitch": 57, "duration": 7, "velocity": 76}, {"time": 2666, "pitch": 62, "duration": 7, "velocity": 88}, {"time": 2672, "pitch": 57, "duration": 4, "velocity": 70}, {"time": 2678, "pitch": 38, "duration": 16, "velocity": 89}, {"time": 2678, "pitch": 57, "duration": 8, "velocity": 84}, {"time": 2678, "pitch": 62, "duration": 7, "velocity": 88}, {"time": 2690, "pitch": 57, "duration": 4, "velocity": 87}, {"time": 2690, "pitch": 62, "duration": 6, "velocity": 88}, {"time": 2690, "pitch": 66, "duration": 6, "velocity": 87}, {"time": 2696, "pitch": 57, "duration": 2, "velocity": 78}, {"time": 2702, "pitch": 43, "duration": 16, "velocity": 84}, {"time": 2702, "pitch": 55, "duration": 9, "velocity": 77}, {"time": 2702, "pitch": 62, "duration": 10, "velocity": 84}, {"time": 2708, "pitch": 50, "duration": 11, "velocity": 74}, {"time": 2714, "pitch": 59, "duration": 6, "velocity": 86}, {"time": 2720, "pitch": 55, "duration": 3, "velocity": 89}, {"time": 2726, "pitch": 45, "duration": 15, "velocity": 87}, {"time": 2726, "pitch": 57, "duration": 7, "velocity": 81}, {"time": 2726, "pitch": 61, "duration": 7, "velocity": 89}, {"time": 2732, "pitch": 52, "duration": 8, "velocity": 76}, {"time": 2738, "pitch": 57, "duration": 3, "velocity": 88}, {"time": 2750, "pitch": 38, "duration": 21, "velocity": 88}, {"time": 2750, "pitch": 62, "duration": 9, "velocity": 81}, {"time": 2750, "pitch": 66, "duration": 9, "velocity": 77}, {"time": 2756, "pitch": 45, "duration": 13, "velocity": 64}, {"time": 2762, "pitch": 64, "duration": 6, "velocity": 90}, {"time": 2768, "pitch": 62, "duration": 3, "velocity": 87}, {"time": 2774, "pitch": 38, "duration": 16, "velocity": 94}, {"time": 2774, "pitch": 57, "duration": 5, "velocity": 86}, {"time": 2774, "pitch": 66, "duration": 10, "velocity": 86}, {"time": 2780, "pitch": 45, "duration": 8, "velocity": 75}, {"time": 2786, "pitch": 57, "duration": 6, "velocity": 89}, {"time": 2786, "pitch": 62, "duration": 10, "velocity": 90}, {"time": 2792, "pitch": 38, "duration": 2, "velocity": 94}, {"time": 2795, "pitch": 57, "duration": 5, "velocity": 88}, {"time": 2798, "pitch": 43, "duration": 21, "velocity": 89}, {"time": 2801, "pitch": 50, "duration": 18, "velocity": 82}, {"time": 2804, "pitch": 55, "duration": 7, "velocity": 88}, {"time": 2807, "pitch": 59, "duration": 4, "velocity": 88}, {"time": 2810, "pitch": 62, "duration": 4, "velocity": 88}, {"time": 2813, "pitch": 55, "duration": 6, "velocity": 90}, {"time": 2816, "pitch": 59, "duration": 4, "velocity": 88}, {"time": 2819, "pitch": 67, "duration": 4, "velocity": 84}, {"time": 2822, "pitch": 45, "duration": 19, "velocity": 89}, {"time": 2825, "pitch": 52, "duration": 8, "velocity": 83}, {"time": 2828, "pitch": 57, "duration": 7, "velocity": 89}, {"time": 2831, "pitch": 61, "duration": 10, "velocity": 92}, {"time": 2834, "pitch": 49, "duration": 5, "velocity": 90}, {"time": 2837, "pitch": 52, "duration": 6, "velocity": 89}, {"time": 2840, "pitch": 57, "duration": 4, "velocity": 94}, {"time": 2843, "pitch": 61, "duration": 2, "velocity": 88}, {"time": 2846, "pitch": 47, "duration": 15, "velocity": 92}, {"time": 2846, "pitch": 59, "duration": 4, "velocity": 89}, {"time": 2846, "pitch": 62, "duration": 7, "velocity": 89}, {"time": 2852, "pitch": 59, "duration": 3, "velocity": 89}, {"time": 2858, "pitch": 59, "duration": 3, "velocity": 92}, {"time": 2858, "pitch": 62, "duration": 6, "velocity": 93}, {"time": 2858, "pitch": 66, "duration": 6, "velocity": 91}, {"time": 2864, "pitch": 59, "duration": 1, "velocity": 80}, {"time": 2869, "pitch": 44, "duration": 17, "velocity": 89}, {"time": 2870, "pitch": 56, "duration": 18, "velocity": 80}, {"time": 2871, "pitch": 59, "duration": 17, "velocity": 79}, {"time": 2872, "pitch": 64, "duration": 16, "velocity": 89}, {"time": 2916, "pitch": 55, "duration": 10, "velocity": 74}, {"time": 2917, "pitch": 43, "duration": 21, "velocity": 75}, {"time": 2917, "pitch": 59, "duration": 15, "velocity": 70}, {"time": 2919, "pitch": 62, "duration": 15, "velocity": 57}, {"time": 2923, "pitch": 50, "duration": 15, "velocity": 67}, {"time": 2931, "pitch": 55, "duration": 19, "velocity": 60}, {"time": 2940, "pitch": 58, "duration": 15, "velocity": 71}, {"time": 2942, "pitch": 43, "duration": 16, "velocity": 84}, {"time": 2942, "pitch": 62, "duration": 13, "velocity": 77}, {"time": 2943, "pitch": 67, "duration": 12, "velocity": 80}, {"time": 2949, "pitch": 50, "duration": 7, "velocity": 60}, {"time": 2954, "pitch": 55, "duration": 2, "velocity": 84}, {"time": 2963, "pitch": 57, "duration": 5, "velocity": 68}, {"time": 2965, "pitch": 62, "duration": 6, "velocity": 77}, {"time": 2966, "pitch": 38, "duration": 36, "velocity": 87}, {"time": 2966, "pitch": 66, "duration": 11, "velocity": 77}, {"time": 2972, "pitch": 45, "duration": 29, "velocity": 60}, {"time": 2978, "pitch": 64, "duration": 9, "velocity": 84}, {"time": 2984, "pitch": 57, "duration": 7, "velocity": 78}, {"time": 2990, "pitch": 62, "duration": 13, "velocity": 82}, {"time": 2996, "pitch": 57, "duration": 7, "velocity": 70}, {"time": 3002, "pitch": 66, "duration": 3, "velocity": 88}, {"time": 3013, "pitch": 56, "duration": 4, "velocity": 71}, {"time": 3014, "pitch": 44, "duration": 26, "velocity": 81}, {"time": 3014, "pitch": 59, "duration": 20, "velocity": 78}, {"time": 3015, "pitch": 62, "duration": 6, "velocity": 82}, {"time": 3020, "pitch": 56, "duration": 8, "velocity": 73}, {"time": 3027, "pitch": 64, "duration": 13, "velocity": 88}, {"time": 3033, "pitch": 56, "duration": 6, "velocity": 76}, {"time": 3065, "pitch": 45, "duration": 19, "velocity": 79}, {"time": 3068, "pitch": 52, "duration": 16, "velocity": 78}, {"time": 3071, "pitch": 57, "duration": 35, "velocity": 70}, {"time": 3073, "pitch": 61, "duration": 42, "velocity": 74}, {"time": 3076, "pitch": 64, "duration": 43, "velocity": 70}, {"time": 3079, "pitch": 69, "duration": 40, "velocity": 49}, {"time": 3133, "pitch": 57, "duration": 3, "velocity": 59}, {"time": 3134, "pitch": 62, "duration": 10, "velocity": 77}, {"time": 3134, "pitch": 38, "duration": 48, "velocity": 90}, {"time": 3135, "pitch": 66, "duration": 15, "velocity": 76}, {"time": 3140, "pitch": 45, "duration": 41, "velocity": 58}, {"time": 3147, "pitch": 62, "duration": 10, "velocity": 82}, {"time": 3153, "pitch": 57, "duration": 20, "velocity": 68}, {"time": 3159, "pitch": 64, "duration": 10, "velocity": 72}, {"time": 3172, "pitch": 62, "duration": 15, "velocity": 76}, {"time": 3179, "pitch": 57, "duration": 9, "velocity": 56}, {"time": 3188, "pitch": 43, "duration": 18, "velocity": 64}, {"time": 3190, "pitch": 46, "duration": 14, "velocity": 73}, {"time": 3192, "pitch": 50, "duration": 12, "velocity": 65}, {"time": 3193, "pitch": 55, "duration": 10, "velocity": 68}, {"time": 3194, "pitch": 58, "duration": 9, "velocity": 71}, {"time": 3195, "pitch": 62, "duration": 9, "velocity": 81}, {"time": 3234, "pitch": 57, "duration": 2, "velocity": 41}, {"time": 3235, "pitch": 38, "duration": 7, "velocity": 89}, {"time": 3235, "pitch": 62, "duration": 2, "velocity": 81}, {"time": 3236, "pitch": 66, "duration": 14, "velocity": 81}, {"time": 3249, "pitch": 50, "duration": 68, "velocity": 64}, {"time": 3252, "pitch": 57, "duration": 63, "velocity": 72}, {"time": 3255, "pitch": 64, "duration": 3, "velocity": 78}, {"time": 3258, "pitch": 66, "duration": 2, "velocity": 88}, {"time": 3262, "pitch": 69, "duration": 2, "velocity": 84}, {"time": 3265, "pitch": 74, "duration": 1, "velocity": 87}, {"time": 3269, "pitch": 76, "duration": 2, "velocity": 82}, {"time": 3272, "pitch": 78, "duration": 3, "velocity": 80}, {"time": 3277, "pitch": 81, "duration": 2, "velocity": 72}, {"time": 3282, "pitch": 86, "duration": 3, "velocity": 80}, {"time": 3288, "pitch": 85, "duration": 2, "velocity": 71}, {"time": 3293, "pitch": 88, "duration": 3, "velocity": 76}, {"time": 3299, "pitch": 90, "duration": 3, "velocity": 72}, {"time": 3309, "pitch": 93, "duration": 1, "velocity": 77}], "annotations": [{"time": 15, "annotation": {"number": 64, "value": 127}, "group": "control_change"}, {"time": 15, "annotation": {"number": 64, "value": 0}, "group": "control_change"}, {"time": 37, "annotation": {"number": 64, "value": 0}, "group": "control_change"}, {"time": 39, "annotation": {"number": 64, "value": 127}, "group": "control_change"}, {"time": 61, "annotation": {"number": 64, "value": 0}, "group": "control_change"}, {"time": 63, "annotation": {"number": 64, "value": 127}, "group": "control_change"}, {"time": 85, "annotation": {"number": 64, "value": 0}, "group": "control_change"}, {"time": 88, "annotation": {"number": 64, "value": 127}, "group": "control_change"}, {"time": 108, "annotation": {"number": 64, "value": 0}, "group": "control_change"}, {"time": 110, "annotation": {"number": 64, "value": 127}, "group": "control_change"}, {"time": 156, "annotation": {"number": 64, "value": 0}, "group": "control_change"}, {"time": 159, "annotation": {"number": 64, "value": 127}, "group": "control_change"}, {"time": 204, "annotation": {"number": 64, "value": 0}, "group": "control_change"}, {"time": 206, "annotation": {"number": 64, "value": 127}, "group": "control_change"}, {"time": 229, "annotation": {"number": 64, "value": 0}, "group": "control_change"}, {"time": 231, "annotation": {"number": 64, "value": 127}, "group": "control_change"}, {"time": 254, "annotation": {"number": 64, "value": 127}, "group": "control_change"}, {"time": 254, "annotation": {"number": 64, "value": 0}, "group": "control_change"}, {"time": 255, "annotation": {"number": 64, "value": 127}, "group": "control_change"}, {"time": 302, "annotation": {"number": 64, "value": 0}, "group": "control_change"}, {"time": 307, "annotation": {"number": 64, "value": 127}, "group": "control_change"}, {"time": 350, "annotation": {"number": 64, "value": 0}, "group": "control_change"}, {"time": 356, "annotation": {"number": 64, "value": 127}, "group": "control_change"}, {"time": 396, "annotation": {"number": 64, "value": 0}, "group": "control_change"}, {"time": 400, "annotation": {"number": 64, "value": 127}, "group": "control_change"}, {"time": 400, "annotation": {"number": 64, "value": 0}, "group": "control_change"}, {"time": 401, "annotation": {"number": 64, "value": 0}, "group": "control_change"}, {"time": 401, "annotation": {"number": 64, "value": 127}, "group": "control_change"}, {"time": 445, "annotation": {"number": 64, "value": 0}, "group": "control_change"}, {"time": 448, "annotation": {"number": 64, "value": 127}, "group": "control_change"}, {"time": 493, "annotation": {"number": 64, "value": 0}, "group": "control_change"}, {"time": 497, "annotation": {"number": 64, "value": 127}, "group": "control_change"}, {"time": 541, "annotation": {"number": 64, "value": 0}, "group": "control_change"}, {"time": 544, "annotation": {"number": 64, "value": 127}, "group": "control_change"}, {"time": 590, "annotation": {"number": 64, "value": 0}, "group": "control_change"}, {"time": 596, "annotation": {"number": 64, "value": 127}, "group": "control_change"}, {"time": 596, "annotation": {"number": 64, "value": 0}, "group": "control_change"}, {"time": 638, "annotation": {"number": 64, "value": 0}, "group": "control_change"}, {"time": 642, "annotation": {"number": 64, "value": 127}, "group": "control_change"}, {"time": 686, "annotation": {"number": 64, "value": 0}, "group": "control_change"}, {"time": 691, "annotation": {"number": 64, "value": 127}, "group": "control_change"}, {"time": 710, "annotation": {"number": 64, "value": 0}, "group": "control_change"}, {"time": 715, "annotation": {"number": 64, "value": 127}, "group": "control_change"}, {"time": 733, "annotation": {"number": 64, "value": 0}, "group": "control_change"}, {"time": 735, "annotation": {"number": 64, "value": 127}, "group": "control_change"}, {"time": 735, "annotation": {"number": 64, "value": 0}, "group": "control_change"}, {"time": 782, "annotation": {"number": 64, "value": 0}, "group": "control_change"}, {"time": 788, "annotation": {"number": 64, "value": 127}, "group": "control_change"}, {"time": 829, "annotation": {"number": 64, "value": 0}, "group": "control_change"}, {"time": 831, "annotation": {"number": 64, "value": 127}, "group": "control_change"}, {"time": 854, "annotation": {"number": 64, "value": 0}, "group": "control_change"}, {"time": 856, "annotation": {"number": 64, "value": 127}, "group": "control_change"}, {"time": 878, "annotation": {"number": 64, "value": 0}, "group": "control_change"}, {"time": 879, "annotation": {"number": 64, "value": 127}, "group": "control_change"}, {"time": 901, "annotation": {"number": 64, "value": 0}, "group": "control_change"}, {"time": 902, "annotation": {"number": 64, "value": 127}, "group": "control_change"}, {"time": 925, "annotation": {"number": 64, "value": 0}, "group": "control_change"}, {"time": 927, "annotation": {"number": 64, "value": 127}, "group": "control_change"}, {"time": 949, "annotation": {"number": 64, "value": 0}, "group": "control_change"}, {"time": 951, "annotation": {"number": 64, "value": 127}, "group": "control_change"}, {"time": 973, "annotation": {"number": 64, "value": 0}, "group": "control_change"}, {"time": 975, "annotation": {"number": 64, "value": 127}, "group": "control_change"}, {"time": 1021, "annotation": {"number": 64, "value": 0}, "group": "control_change"}, {"time": 1023, "annotation": {"number": 64, "value": 127}, "group": "control_change"}, {"time": 1045, "annotation": {"number": 64, "value": 0}, "group": "control_change"}, {"time": 1046, "annotation": {"number": 64, "value": 127}, "group": "control_change"}, {"time": 1069, "annotation": {"number": 64, "value": 0}, "group": "control_change"}, {"time": 1071, "annotation": {"number": 64, "value": 127}, "group": "control_change"}, {"time": 1093, "annotation": {"number": 64, "value": 0}, "group": "control_change"}, {"time": 1095, "annotation": {"number": 64, "value": 127}, "group": "control_change"}, {"time": 1115, "annotation": {"number": 64, "value": 0}, "group": "control_change"}, {"time": 1120, "annotation": {"number": 64, "value": 127}, "group": "control_change"}, {"time": 1141, "annotation": {"number": 64, "value": 0}, "group": "control_change"}, {"time": 1143, "annotation": {"number": 64, "value": 127}, "group": "control_change"}, {"time": 1165, "annotation": {"number": 64, "value": 0}, "group": "control_change"}, {"time": 1167, "annotation": {"number": 64, "value": 127}, "group": "control_change"}, {"time": 1213, "annotation": {"number": 64, "value": 0}, "group": "control_change"}, {"time": 1215, "annotation": {"number": 64, "value": 127}, "group": "control_change"}, {"time": 1261, "annotation": {"number": 64, "value": 0}, "group": "control_change"}, {"time": 1266, "annotation": {"number": 64, "value": 127}, "group": "control_change"}, {"time": 1286, "annotation": {"number": 64, "value": 0}, "group": "control_change"}, {"time": 1288, "annotation": {"number": 64, "value": 127}, "group": "control_change"}, {"time": 1309, "annotation": {"number": 64, "value": 0}, "group": "control_change"}, {"time": 1310, "annotation": {"number": 64, "value": 127}, "group": "control_change"}, {"time": 1310, "annotation": {"number": 64, "value": 0}, "group": "control_change"}, {"time": 1311, "annotation": {"number": 64, "value": 127}, "group": "control_change"}, {"time": 1358, "annotation": {"number": 64, "value": 0}, "group": "control_change"}, {"time": 1363, "annotation": {"number": 64, "value": 127}, "group": "control_change"}, {"time": 1406, "annotation": {"number": 64, "value": 0}, "group": "control_change"}, {"time": 1412, "annotation": {"number": 64, "value": 127}, "group": "control_change"}, {"time": 1452, "annotation": {"number": 64, "value": 0}, "group": "control_change"}, {"time": 1456, "annotation": {"number": 64, "value": 127}, "group": "control_change"}, {"time": 1456, "annotation": {"number": 64, "value": 0}, "group": "control_change"}, {"time": 1457, "annotation": {"number": 64, "value": 0}, "group": "control_change"}, {"time": 1457, "annotation": {"number": 64, "value": 127}, "group": "control_change"}, {"time": 1501, "annotation": {"number": 64, "value": 0}, "group": "control_change"}, {"time": 1504, "annotation": {"number": 64, "value": 127}, "group": "control_change"}, {"time": 1549, "annotation": {"number": 64, "value": 0}, "group": "control_change"}, {"time": 1553, "annotation": {"number": 64, "value": 127}, "group": "control_change"}, {"time": 1597, "annotation": {"number": 64, "value": 0}, "group": "control_change"}, {"time": 1600, "annotation": {"number": 64, "value": 127}, "group": "control_change"}, {"time": 1646, "annotation": {"number": 64, "value": 0}, "group": "control_change"}, {"time": 1652, "annotation": {"number": 64, "value": 127}, "group": "control_change"}, {"time": 1652, "annotation": {"number": 64, "value": 0}, "group": "control_change"}, {"time": 1694, "annotation": {"number": 64, "value": 0}, "group": "control_change"}, {"time": 1698, "annotation": {"number": 64, "value": 127}, "group": "control_change"}, {"time": 1742, "annotation": {"number": 64, "value": 0}, "group": "control_change"}, {"time": 1747, "annotation": {"number": 64, "value": 127}, "group": "control_change"}, {"time": 1766, "annotation": {"number": 64, "value": 0}, "group": "control_change"}, {"time": 1771, "annotation": {"number": 64, "value": 127}, "group": "control_change"}, {"time": 1789, "annotation": {"number": 64, "value": 0}, "group": "control_change"}, {"time": 1791, "annotation": {"number": 64, "value": 127}, "group": "control_change"}, {"time": 1791, "annotation": {"number": 64, "value": 0}, "group": "control_change"}, {"time": 1838, "annotation": {"number": 64, "value": 0}, "group": "control_change"}, {"time": 1844, "annotation": {"number": 64, "value": 127}, "group": "control_change"}, {"time": 1885, "annotation": {"number": 64, "value": 0}, "group": "control_change"}, {"time": 1887, "annotation": {"number": 64, "value": 127}, "group": "control_change"}, {"time": 1910, "annotation": {"number": 64, "value": 0}, "group": "control_change"}, {"time": 1912, "annotation": {"number": 64, "value": 127}, "group": "control_change"}, {"time": 1934, "annotation": {"number": 64, "value": 0}, "group": "control_change"}, {"time": 1935, "annotation": {"number": 64, "value": 127}, "group": "control_change"}, {"time": 1957, "annotation": {"number": 64, "value": 0}, "group": "control_change"}, {"time": 1958, "annotation": {"number": 64, "value": 127}, "group": "control_change"}, {"time": 1981, "annotation": {"number": 64, "value": 0}, "group": "control_change"}, {"time": 1983, "annotation": {"number": 64, "value": 127}, "group": "control_change"}, {"time": 2005, "annotation": {"number": 64, "value": 0}, "group": "control_change"}, {"time": 2007, "annotation": {"number": 64, "value": 127}, "group": "control_change"}, {"time": 2029, "annotation": {"number": 64, "value": 0}, "group": "control_change"}, {"time": 2031, "annotation": {"number": 64, "value": 127}, "group": "control_change"}, {"time": 2077, "annotation": {"number": 64, "value": 0}, "group": "control_change"}, {"time": 2079, "annotation": {"number": 64, "value": 127}, "group": "control_change"}, {"time": 2101, "annotation": {"number": 64, "value": 0}, "group": "control_change"}, {"time": 2102, "annotation": {"number": 64, "value": 127}, "group": "control_change"}, {"time": 2125, "annotation": {"number": 64, "value": 0}, "group": "control_change"}, {"time": 2127, "annotation": {"number": 64, "value": 127}, "group": "control_change"}, {"time": 2149, "annotation": {"number": 64, "value": 0}, "group": "control_change"}, {"time": 2151, "annotation": {"number": 64, "value": 127}, "group": "control_change"}, {"time": 2171, "annotation": {"number": 64, "value": 0}, "group": "control_change"}, {"time": 2176, "annotation": {"number": 64, "value": 127}, "group": "control_change"}, {"time": 2197, "annotation": {"number": 64, "value": 0}, "group": "control_change"}, {"time": 2199, "annotation": {"number": 64, "value": 127}, "group": "control_change"}, {"time": 2221, "annotation": {"number": 64, "value": 0}, "group": "control_change"}, {"time": 2223, "annotation": {"number": 64, "value": 127}, "group": "control_change"}, {"time": 2269, "annotation": {"number": 64, "value": 0}, "group": "control_change"}, {"time": 2270, "annotation": {"number": 64, "value": 127}, "group": "control_change"}, {"time": 2294, "annotation": {"number": 64, "value": 0}, "group": "control_change"}, {"time": 2297, "annotation": {"number": 64, "value": 127}, "group": "control_change"}, {"time": 2317, "annotation": {"number": 64, "value": 0}, "group": "control_change"}, {"time": 2319, "annotation": {"number": 64, "value": 127}, "group": "control_change"}, {"time": 2340, "annotation": {"number": 64, "value": 0}, "group": "control_change"}, {"time": 2343, "annotation": {"number": 64, "value": 127}, "group": "control_change"}, {"time": 2364, "annotation": {"number": 64, "value": 0}, "group": "control_change"}, {"time": 2366, "annotation": {"number": 64, "value": 127}, "group": "control_change"}, {"time": 2389, "annotation": {"number": 64, "value": 0}, "group": "control_change"}, {"time": 2391, "annotation": {"number": 64, "value": 127}, "group": "control_change"}, {"time": 2413, "annotation": {"number": 64, "value": 0}, "group": "control_change"}, {"time": 2414, "annotation": {"number": 64, "value": 127}, "group": "control_change"}, {"time": 2437, "annotation": {"number": 64, "value": 0}, "group": "control_change"}, {"time": 2440, "annotation": {"number": 64, "value": 127}, "group": "control_change"}, {"time": 2461, "annotation": {"number": 64, "value": 0}, "group": "control_change"}, {"time": 2463, "annotation": {"number": 64, "value": 127}, "group": "control_change"}, {"time": 2484, "annotation": {"number": 64, "value": 0}, "group": "control_change"}, {"time": 2486, "annotation": {"number": 64, "value": 127}, "group": "control_change"}, {"time": 2507, "annotation": {"number": 64, "value": 0}, "group": "control_change"}, {"time": 2510, "annotation": {"number": 64, "value": 127}, "group": "control_change"}, {"time": 2556, "annotation": {"number": 64, "value": 0}, "group": "control_change"}, {"time": 2558, "annotation": {"number": 64, "value": 127}, "group": "control_change"}, {"time": 2605, "annotation": {"number": 64, "value": 0}, "group": "control_change"}, {"time": 2608, "annotation": {"number": 64, "value": 127}, "group": "control_change"}, {"time": 2628, "annotation": {"number": 64, "value": 0}, "group": "control_change"}, {"time": 2632, "annotation": {"number": 64, "value": 127}, "group": "control_change"}, {"time": 2651, "annotation": {"number": 64, "value": 0}, "group": "control_change"}, {"time": 2654, "annotation": {"number": 64, "value": 127}, "group": "control_change"}, {"time": 2676, "annotation": {"number": 64, "value": 0}, "group": "control_change"}, {"time": 2678, "annotation": {"number": 64, "value": 127}, "group": "control_change"}, {"time": 2702, "annotation": {"number": 64, "value": 0}, "group": "control_change"}, {"time": 2706, "annotation": {"number": 64, "value": 127}, "group": "control_change"}, {"time": 2725, "annotation": {"number": 64, "value": 0}, "group": "control_change"}, {"time": 2728, "annotation": {"number": 64, "value": 127}, "group": "control_change"}, {"time": 2748, "annotation": {"number": 64, "value": 0}, "group": "control_change"}, {"time": 2751, "annotation": {"number": 64, "value": 127}, "group": "control_change"}, {"time": 2772, "annotation": {"number": 64, "value": 0}, "group": "control_change"}, {"time": 2774, "annotation": {"number": 64, "value": 127}, "group": "control_change"}, {"time": 2796, "annotation": {"number": 64, "value": 0}, "group": "control_change"}, {"time": 2798, "annotation": {"number": 64, "value": 127}, "group": "control_change"}, {"time": 2820, "annotation": {"number": 64, "value": 0}, "group": "control_change"}, {"time": 2822, "annotation": {"number": 64, "value": 127}, "group": "control_change"}, {"time": 2844, "annotation": {"number": 64, "value": 0}, "group": "control_change"}, {"time": 2846, "annotation": {"number": 64, "value": 127}, "group": "control_change"}, {"time": 2869, "annotation": {"number": 64, "value": 0}, "group": "control_change"}, {"time": 2870, "annotation": {"number": 64, "value": 127}, "group": "control_change"}, {"time": 2915, "annotation": {"number": 64, "value": 0}, "group": "control_change"}, {"time": 2918, "annotation": {"number": 64, "value": 127}, "group": "control_change"}, {"time": 2941, "annotation": {"number": 64, "value": 0}, "group": "control_change"}, {"time": 2944, "annotation": {"number": 64, "value": 127}, "group": "control_change"}, {"time": 2963, "annotation": {"number": 64, "value": 0}, "group": "control_change"}, {"time": 2966, "annotation": {"number": 64, "value": 127}, "group": "control_change"}, {"time": 3013, "annotation": {"number": 64, "value": 0}, "group": "control_change"}, {"time": 3015, "annotation": {"number": 64, "value": 127}, "group": "control_change"}, {"time": 3066, "annotation": {"number": 64, "value": 0}, "group": "control_change"}, {"time": 3071, "annotation": {"number": 64, "value": 127}, "group": "control_change"}, {"time": 3133, "annotation": {"number": 64, "value": 0}, "group": "control_change"}, {"time": 3135, "annotation": {"number": 64, "value": 127}, "group": "control_change"}, {"time": 3233, "annotation": {"number": 64, "value": 0}, "group": "control_change"}, {"time": 3235, "annotation": {"number": 64, "value": 127}, "group": "control_change"}, {"time": 3348, "annotation": {"number": 64, "value": 0}, "group": "control_change"}]}]}