{"metadata": {"schema_version": "0.2", "title": "None", "source_filename": "781.mid", "source_format": "midi"}, "resolution": 12, "tempos": [{"time": 0, "qpm": 65.99999340000066}], "key_signatures": [{"time": 0, "root": 0, "mode": "major"}], "time_signatures": [{"time": 0, "numerator": 4, "denominator": 4}, {"time": 0, "numerator": 1, "denominator": 4}], "tracks": [{"program": 0, "is_drum": false, "name": "MELODY", "notes": [{"time": 214, "pitch": 78, "duration": 4, "velocity": 84}, {"time": 220, "pitch": 78, "duration": 1, "velocity": 84}, {"time": 223, "pitch": 78, "duration": 8, "velocity": 82}, {"time": 232, "pitch": 78, "duration": 2, "velocity": 84}, {"time": 235, "pitch": 79, "duration": 7, "velocity": 79}, {"time": 244, "pitch": 78, "duration": 5, "velocity": 86}, {"time": 250, "pitch": 76, "duration": 5, "velocity": 84}, {"time": 256, "pitch": 74, "duration": 5, "velocity": 87}, {"time": 262, "pitch": 78, "duration": 4, "velocity": 78}, {"time": 268, "pitch": 78, "duration": 1, "velocity": 83}, {"time": 271, "pitch": 78, "duration": 8, "velocity": 79}, {"time": 280, "pitch": 79, "duration": 4, "velocity": 83}, {"time": 286, "pitch": 79, "duration": 6, "velocity": 83}, {"time": 292, "pitch": 78, "duration": 14, "velocity": 71}, {"time": 310, "pitch": 78, "duration": 4, "velocity": 83}, {"time": 316, "pitch": 78, "duration": 2, "velocity": 82}, {"time": 319, "pitch": 78, "duration": 7, "velocity": 77}, {"time": 328, "pitch": 78, "duration": 2, "velocity": 75}, {"time": 331, "pitch": 79, "duration": 7, "velocity": 79}, {"time": 340, "pitch": 78, "duration": 4, "velocity": 83}, {"time": 346, "pitch": 76, "duration": 5, "velocity": 83}, {"time": 352, "pitch": 74, "duration": 5, "velocity": 87}, {"time": 358, "pitch": 78, "duration": 6, "velocity": 85}, {"time": 364, "pitch": 71, "duration": 3, "velocity": 84}, {"time": 367, "pitch": 74, "duration": 20, "velocity": 84}, {"time": 394, "pitch": 76, "duration": 5, "velocity": 84}, {"time": 400, "pitch": 74, "duration": 6, "velocity": 85}, {"time": 406, "pitch": 81, "duration": 13, "velocity": 83}, {"time": 424, "pitch": 73, "duration": 3, "velocity": 71}, {"time": 430, "pitch": 74, "duration": 18, "velocity": 85}, {"time": 448, "pitch": 76, "duration": 2, "velocity": 80}, {"time": 451, "pitch": 74, "duration": 4, "velocity": 83}, {"time": 454, "pitch": 81, "duration": 6, "velocity": 69}, {"time": 460, "pitch": 81, "duration": 2, "velocity": 82}, {"time": 463, "pitch": 81, "duration": 8, "velocity": 79}, {"time": 472, "pitch": 73, "duration": 6, "velocity": 84}, {"time": 478, "pitch": 74, "duration": 9, "velocity": 82}, {"time": 490, "pitch": 74, "duration": 5, "velocity": 94}, {"time": 496, "pitch": 76, "duration": 4, "velocity": 84}, {"time": 502, "pitch": 78, "duration": 7, "velocity": 84}, {"time": 511, "pitch": 79, "duration": 21, "velocity": 81}, {"time": 535, "pitch": 74, "duration": 2, "velocity": 85}, {"time": 538, "pitch": 79, "duration": 4, "velocity": 83}, {"time": 544, "pitch": 78, "duration": 12, "velocity": 85}, {"time": 562, "pitch": 74, "duration": 6, "velocity": 86}, {"time": 568, "pitch": 76, "duration": 27, "velocity": 79}, {"time": 598, "pitch": 78, "duration": 4, "velocity": 84}, {"time": 604, "pitch": 78, "duration": 1, "velocity": 84}, {"time": 607, "pitch": 78, "duration": 8, "velocity": 82}, {"time": 616, "pitch": 78, "duration": 2, "velocity": 84}, {"time": 619, "pitch": 79, "duration": 7, "velocity": 79}, {"time": 628, "pitch": 78, "duration": 5, "velocity": 86}, {"time": 634, "pitch": 76, "duration": 5, "velocity": 84}, {"time": 640, "pitch": 74, "duration": 5, "velocity": 87}, {"time": 646, "pitch": 78, "duration": 4, "velocity": 78}, {"time": 652, "pitch": 78, "duration": 1, "velocity": 83}, {"time": 655, "pitch": 78, "duration": 8, "velocity": 79}, {"time": 664, "pitch": 79, "duration": 4, "velocity": 83}, {"time": 670, "pitch": 79, "duration": 6, "velocity": 83}, {"time": 676, "pitch": 78, "duration": 14, "velocity": 71}, {"time": 694, "pitch": 78, "duration": 4, "velocity": 83}, {"time": 700, "pitch": 78, "duration": 2, "velocity": 82}, {"time": 703, "pitch": 78, "duration": 7, "velocity": 77}, {"time": 712, "pitch": 78, "duration": 2, "velocity": 75}, {"time": 715, "pitch": 79, "duration": 7, "velocity": 79}, {"time": 724, "pitch": 78, "duration": 4, "velocity": 83}, {"time": 730, "pitch": 76, "duration": 5, "velocity": 83}, {"time": 736, "pitch": 74, "duration": 5, "velocity": 87}, {"time": 742, "pitch": 78, "duration": 6, "velocity": 85}, {"time": 748, "pitch": 71, "duration": 3, "velocity": 84}, {"time": 751, "pitch": 74, "duration": 20, "velocity": 84}, {"time": 778, "pitch": 76, "duration": 5, "velocity": 84}, {"time": 784, "pitch": 74, "duration": 6, "velocity": 85}, {"time": 790, "pitch": 81, "duration": 13, "velocity": 83}, {"time": 808, "pitch": 73, "duration": 3, "velocity": 71}, {"time": 814, "pitch": 74, "duration": 18, "velocity": 85}, {"time": 832, "pitch": 76, "duration": 2, "velocity": 80}, {"time": 835, "pitch": 74, "duration": 4, "velocity": 83}, {"time": 838, "pitch": 81, "duration": 6, "velocity": 69}, {"time": 844, "pitch": 81, "duration": 2, "velocity": 82}, {"time": 847, "pitch": 81, "duration": 8, "velocity": 79}, {"time": 856, "pitch": 73, "duration": 6, "velocity": 84}, {"time": 862, "pitch": 74, "duration": 9, "velocity": 82}, {"time": 871, "pitch": 73, "duration": 3, "velocity": 84}, {"time": 874, "pitch": 74, "duration": 5, "velocity": 94}, {"time": 880, "pitch": 76, "duration": 3, "velocity": 84}, {"time": 883, "pitch": 78, "duration": 3, "velocity": 84}, {"time": 886, "pitch": 79, "duration": 6, "velocity": 84}, {"time": 892, "pitch": 78, "duration": 6, "velocity": 84}, {"time": 898, "pitch": 79, "duration": 9, "velocity": 81}, {"time": 907, "pitch": 78, "duration": 2, "velocity": 83}, {"time": 910, "pitch": 79, "duration": 5, "velocity": 84}, {"time": 916, "pitch": 78, "duration": 2, "velocity": 85}, {"time": 919, "pitch": 79, "duration": 7, "velocity": 84}, {"time": 928, "pitch": 81, "duration": 4, "velocity": 85}, {"time": 934, "pitch": 81, "duration": 23, "velocity": 84}, {"time": 958, "pitch": 78, "duration": 9, "velocity": 87}, {"time": 970, "pitch": 79, "duration": 10, "velocity": 84}, {"time": 982, "pitch": 81, "duration": 14, "velocity": 73}, {"time": 1000, "pitch": 74, "duration": 5, "velocity": 88}, {"time": 1006, "pitch": 73, "duration": 5, "velocity": 86}, {"time": 1012, "pitch": 74, "duration": 5, "velocity": 84}, {"time": 1018, "pitch": 78, "duration": 5, "velocity": 85}, {"time": 1024, "pitch": 83, "duration": 4, "velocity": 82}, {"time": 1030, "pitch": 83, "duration": 17, "velocity": 87}, {"time": 1048, "pitch": 78, "duration": 6, "velocity": 84}, {"time": 1054, "pitch": 81, "duration": 14, "velocity": 86}, {"time": 1069, "pitch": 78, "duration": 1, "velocity": 84}, {"time": 1072, "pitch": 83, "duration": 1, "velocity": 85}, {"time": 1075, "pitch": 85, "duration": 1, "velocity": 89}, {"time": 1078, "pitch": 86, "duration": 4, "velocity": 85}, {"time": 1084, "pitch": 85, "duration": 4, "velocity": 88}, {"time": 1090, "pitch": 83, "duration": 5, "velocity": 84}, {"time": 1096, "pitch": 81, "duration": 2, "velocity": 84}, {"time": 1099, "pitch": 83, "duration": 6, "velocity": 83}, {"time": 1105, "pitch": 81, "duration": 5, "velocity": 79}, {"time": 1114, "pitch": 78, "duration": 4, "velocity": 83}, {"time": 1120, "pitch": 81, "duration": 4, "velocity": 85}, {"time": 1126, "pitch": 78, "duration": 5, "velocity": 84}, {"time": 1132, "pitch": 76, "duration": 1, "velocity": 83}, {"time": 1135, "pitch": 76, "duration": 27, "velocity": 82}, {"time": 1171, "pitch": 74, "duration": 2, "velocity": 87}, {"time": 1174, "pitch": 76, "duration": 4, "velocity": 85}, {"time": 1180, "pitch": 76, "duration": 2, "velocity": 84}, {"time": 1183, "pitch": 81, "duration": 8, "velocity": 83}, {"time": 1192, "pitch": 73, "duration": 6, "velocity": 78}, {"time": 1198, "pitch": 74, "duration": 18, "velocity": 87}, {"time": 1219, "pitch": 74, "duration": 2, "velocity": 85}, {"time": 1222, "pitch": 76, "duration": 4, "velocity": 85}, {"time": 1228, "pitch": 76, "duration": 2, "velocity": 82}, {"time": 1231, "pitch": 83, "duration": 8, "velocity": 83}, {"time": 1240, "pitch": 81, "duration": 3, "velocity": 81}, {"time": 1243, "pitch": 78, "duration": 14, "velocity": 84}, {"time": 1261, "pitch": 71, "duration": 1, "velocity": 84}, {"time": 1264, "pitch": 71, "duration": 2, "velocity": 85}, {"time": 1267, "pitch": 74, "duration": 1, "velocity": 85}, {"time": 1270, "pitch": 78, "duration": 5, "velocity": 67}, {"time": 1276, "pitch": 76, "duration": 2, "velocity": 83}, {"time": 1279, "pitch": 76, "duration": 6, "velocity": 83}, {"time": 1285, "pitch": 76, "duration": 4, "velocity": 84}, {"time": 1291, "pitch": 74, "duration": 2, "velocity": 87}, {"time": 1294, "pitch": 78, "duration": 4, "velocity": 85}, {"time": 1300, "pitch": 76, "duration": 6, "velocity": 83}, {"time": 1306, "pitch": 76, "duration": 5, "velocity": 84}, {"time": 1312, "pitch": 74, "duration": 6, "velocity": 85}, {"time": 1318, "pitch": 83, "duration": 12, "velocity": 84}, {"time": 1330, "pitch": 81, "duration": 12, "velocity": 80}, {"time": 1342, "pitch": 78, "duration": 9, "velocity": 87}, {"time": 1354, "pitch": 79, "duration": 10, "velocity": 84}, {"time": 1366, "pitch": 81, "duration": 14, "velocity": 73}, {"time": 1384, "pitch": 74, "duration": 5, "velocity": 88}, {"time": 1390, "pitch": 73, "duration": 5, "velocity": 86}, {"time": 1396, "pitch": 74, "duration": 5, "velocity": 84}, {"time": 1402, "pitch": 78, "duration": 5, "velocity": 85}, {"time": 1408, "pitch": 83, "duration": 4, "velocity": 82}, {"time": 1414, "pitch": 83, "duration": 17, "velocity": 87}, {"time": 1432, "pitch": 78, "duration": 6, "velocity": 84}, {"time": 1438, "pitch": 81, "duration": 14, "velocity": 86}, {"time": 1453, "pitch": 78, "duration": 1, "velocity": 84}, {"time": 1456, "pitch": 83, "duration": 1, "velocity": 85}, {"time": 1459, "pitch": 85, "duration": 1, "velocity": 89}, {"time": 1462, "pitch": 86, "duration": 4, "velocity": 85}, {"time": 1468, "pitch": 85, "duration": 4, "velocity": 88}, {"time": 1474, "pitch": 83, "duration": 5, "velocity": 84}, {"time": 1480, "pitch": 81, "duration": 2, "velocity": 84}, {"time": 1483, "pitch": 83, "duration": 6, "velocity": 83}, {"time": 1489, "pitch": 81, "duration": 5, "velocity": 79}, {"time": 1498, "pitch": 78, "duration": 4, "velocity": 83}, {"time": 1504, "pitch": 81, "duration": 4, "velocity": 85}, {"time": 1510, "pitch": 78, "duration": 5, "velocity": 84}, {"time": 1516, "pitch": 76, "duration": 1, "velocity": 83}, {"time": 1519, "pitch": 76, "duration": 27, "velocity": 82}, {"time": 1555, "pitch": 74, "duration": 2, "velocity": 87}, {"time": 1558, "pitch": 76, "duration": 4, "velocity": 85}, {"time": 1564, "pitch": 76, "duration": 2, "velocity": 84}, {"time": 1567, "pitch": 81, "duration": 8, "velocity": 83}, {"time": 1576, "pitch": 73, "duration": 6, "velocity": 78}, {"time": 1582, "pitch": 74, "duration": 18, "velocity": 87}, {"time": 1603, "pitch": 74, "duration": 2, "velocity": 85}, {"time": 1606, "pitch": 76, "duration": 4, "velocity": 85}, {"time": 1612, "pitch": 76, "duration": 2, "velocity": 82}, {"time": 1615, "pitch": 83, "duration": 8, "velocity": 83}, {"time": 1624, "pitch": 81, "duration": 3, "velocity": 81}, {"time": 1627, "pitch": 78, "duration": 14, "velocity": 84}, {"time": 1645, "pitch": 71, "duration": 1, "velocity": 84}, {"time": 1648, "pitch": 71, "duration": 2, "velocity": 85}, {"time": 1651, "pitch": 74, "duration": 1, "velocity": 85}, {"time": 1654, "pitch": 78, "duration": 5, "velocity": 67}, {"time": 1660, "pitch": 76, "duration": 2, "velocity": 83}, {"time": 1663, "pitch": 76, "duration": 6, "velocity": 83}, {"time": 1669, "pitch": 81, "duration": 4, "velocity": 84}, {"time": 1678, "pitch": 78, "duration": 4, "velocity": 85}, {"time": 1684, "pitch": 76, "duration": 6, "velocity": 83}, {"time": 1690, "pitch": 76, "duration": 12, "velocity": 84}, {"time": 1702, "pitch": 71, "duration": 12, "velocity": 84}, {"time": 1714, "pitch": 74, "duration": 24, "velocity": 80}, {"time": 1942, "pitch": 78, "duration": 4, "velocity": 84}, {"time": 1948, "pitch": 78, "duration": 1, "velocity": 84}, {"time": 1951, "pitch": 78, "duration": 8, "velocity": 82}, {"time": 1960, "pitch": 78, "duration": 2, "velocity": 84}, {"time": 1963, "pitch": 79, "duration": 7, "velocity": 79}, {"time": 1972, "pitch": 78, "duration": 5, "velocity": 86}, {"time": 1978, "pitch": 76, "duration": 5, "velocity": 84}, {"time": 1984, "pitch": 74, "duration": 5, "velocity": 87}, {"time": 1990, "pitch": 78, "duration": 4, "velocity": 78}, {"time": 1996, "pitch": 78, "duration": 1, "velocity": 83}, {"time": 1999, "pitch": 78, "duration": 8, "velocity": 79}, {"time": 2008, "pitch": 79, "duration": 4, "velocity": 83}, {"time": 2014, "pitch": 79, "duration": 6, "velocity": 83}, {"time": 2020, "pitch": 78, "duration": 14, "velocity": 71}, {"time": 2038, "pitch": 78, "duration": 4, "velocity": 83}, {"time": 2044, "pitch": 78, "duration": 2, "velocity": 82}, {"time": 2047, "pitch": 78, "duration": 7, "velocity": 77}, {"time": 2056, "pitch": 78, "duration": 2, "velocity": 75}, {"time": 2059, "pitch": 79, "duration": 7, "velocity": 79}, {"time": 2068, "pitch": 78, "duration": 4, "velocity": 83}, {"time": 2074, "pitch": 76, "duration": 5, "velocity": 83}, {"time": 2080, "pitch": 74, "duration": 5, "velocity": 87}, {"time": 2086, "pitch": 78, "duration": 6, "velocity": 85}, {"time": 2092, "pitch": 71, "duration": 3, "velocity": 84}, {"time": 2095, "pitch": 74, "duration": 20, "velocity": 84}, {"time": 2122, "pitch": 76, "duration": 5, "velocity": 84}, {"time": 2128, "pitch": 74, "duration": 6, "velocity": 85}, {"time": 2134, "pitch": 81, "duration": 13, "velocity": 83}, {"time": 2152, "pitch": 73, "duration": 3, "velocity": 71}, {"time": 2158, "pitch": 74, "duration": 18, "velocity": 85}, {"time": 2176, "pitch": 76, "duration": 2, "velocity": 80}, {"time": 2179, "pitch": 74, "duration": 4, "velocity": 83}, {"time": 2182, "pitch": 81, "duration": 6, "velocity": 69}, {"time": 2188, "pitch": 81, "duration": 2, "velocity": 82}, {"time": 2191, "pitch": 81, "duration": 8, "velocity": 79}, {"time": 2200, "pitch": 73, "duration": 6, "velocity": 84}, {"time": 2206, "pitch": 74, "duration": 9, "velocity": 82}, {"time": 2215, "pitch": 73, "duration": 3, "velocity": 84}, {"time": 2218, "pitch": 74, "duration": 5, "velocity": 94}, {"time": 2224, "pitch": 76, "duration": 3, "velocity": 84}, {"time": 2227, "pitch": 78, "duration": 3, "velocity": 84}, {"time": 2230, "pitch": 79, "duration": 6, "velocity": 84}, {"time": 2236, "pitch": 78, "duration": 6, "velocity": 84}, {"time": 2242, "pitch": 79, "duration": 9, "velocity": 81}, {"time": 2251, "pitch": 78, "duration": 2, "velocity": 83}, {"time": 2254, "pitch": 79, "duration": 5, "velocity": 84}, {"time": 2260, "pitch": 78, "duration": 2, "velocity": 85}, {"time": 2263, "pitch": 79, "duration": 7, "velocity": 84}, {"time": 2272, "pitch": 81, "duration": 4, "velocity": 85}, {"time": 2278, "pitch": 81, "duration": 23, "velocity": 84}, {"time": 2302, "pitch": 78, "duration": 9, "velocity": 87}, {"time": 2314, "pitch": 79, "duration": 10, "velocity": 84}, {"time": 2326, "pitch": 81, "duration": 14, "velocity": 73}, {"time": 2344, "pitch": 74, "duration": 5, "velocity": 88}, {"time": 2350, "pitch": 73, "duration": 5, "velocity": 86}, {"time": 2356, "pitch": 74, "duration": 5, "velocity": 84}, {"time": 2362, "pitch": 78, "duration": 5, "velocity": 85}, {"time": 2368, "pitch": 83, "duration": 4, "velocity": 82}, {"time": 2374, "pitch": 83, "duration": 17, "velocity": 87}, {"time": 2392, "pitch": 78, "duration": 6, "velocity": 84}, {"time": 2398, "pitch": 81, "duration": 14, "velocity": 86}, {"time": 2413, "pitch": 78, "duration": 1, "velocity": 84}, {"time": 2416, "pitch": 83, "duration": 1, "velocity": 85}, {"time": 2419, "pitch": 85, "duration": 1, "velocity": 89}, {"time": 2422, "pitch": 86, "duration": 4, "velocity": 85}, {"time": 2428, "pitch": 85, "duration": 4, "velocity": 88}, {"time": 2434, "pitch": 83, "duration": 5, "velocity": 84}, {"time": 2440, "pitch": 81, "duration": 2, "velocity": 84}, {"time": 2443, "pitch": 83, "duration": 6, "velocity": 83}, {"time": 2449, "pitch": 81, "duration": 5, "velocity": 79}, {"time": 2458, "pitch": 78, "duration": 4, "velocity": 83}, {"time": 2464, "pitch": 81, "duration": 4, "velocity": 85}, {"time": 2470, "pitch": 78, "duration": 5, "velocity": 84}, {"time": 2476, "pitch": 76, "duration": 1, "velocity": 83}, {"time": 2479, "pitch": 76, "duration": 27, "velocity": 82}, {"time": 2515, "pitch": 74, "duration": 2, "velocity": 87}, {"time": 2518, "pitch": 76, "duration": 4, "velocity": 85}, {"time": 2524, "pitch": 76, "duration": 2, "velocity": 84}, {"time": 2527, "pitch": 81, "duration": 8, "velocity": 83}, {"time": 2536, "pitch": 73, "duration": 6, "velocity": 78}, {"time": 2542, "pitch": 74, "duration": 18, "velocity": 87}, {"time": 2563, "pitch": 74, "duration": 2, "velocity": 85}, {"time": 2566, "pitch": 76, "duration": 4, "velocity": 85}, {"time": 2572, "pitch": 76, "duration": 2, "velocity": 82}, {"time": 2575, "pitch": 83, "duration": 8, "velocity": 83}, {"time": 2584, "pitch": 81, "duration": 3, "velocity": 81}, {"time": 2587, "pitch": 78, "duration": 14, "velocity": 84}, {"time": 2605, "pitch": 71, "duration": 1, "velocity": 84}, {"time": 2608, "pitch": 71, "duration": 2, "velocity": 85}, {"time": 2611, "pitch": 74, "duration": 1, "velocity": 85}, {"time": 2614, "pitch": 78, "duration": 5, "velocity": 67}, {"time": 2620, "pitch": 76, "duration": 2, "velocity": 83}, {"time": 2623, "pitch": 76, "duration": 6, "velocity": 83}, {"time": 2629, "pitch": 76, "duration": 4, "velocity": 84}, {"time": 2635, "pitch": 74, "duration": 2, "velocity": 87}, {"time": 2638, "pitch": 78, "duration": 4, "velocity": 85}, {"time": 2644, "pitch": 76, "duration": 6, "velocity": 83}, {"time": 2650, "pitch": 76, "duration": 5, "velocity": 84}, {"time": 2656, "pitch": 74, "duration": 6, "velocity": 85}, {"time": 2662, "pitch": 83, "duration": 12, "velocity": 84}, {"time": 2674, "pitch": 81, "duration": 12, "velocity": 80}, {"time": 2686, "pitch": 78, "duration": 9, "velocity": 87}, {"time": 2698, "pitch": 79, "duration": 10, "velocity": 84}, {"time": 2710, "pitch": 81, "duration": 14, "velocity": 73}, {"time": 2728, "pitch": 74, "duration": 5, "velocity": 88}, {"time": 2734, "pitch": 73, "duration": 5, "velocity": 86}, {"time": 2740, "pitch": 74, "duration": 5, "velocity": 84}, {"time": 2746, "pitch": 78, "duration": 5, "velocity": 85}, {"time": 2752, "pitch": 83, "duration": 4, "velocity": 82}, {"time": 2758, "pitch": 83, "duration": 17, "velocity": 87}, {"time": 2776, "pitch": 78, "duration": 6, "velocity": 84}, {"time": 2782, "pitch": 81, "duration": 14, "velocity": 86}, {"time": 2797, "pitch": 78, "duration": 1, "velocity": 84}, {"time": 2800, "pitch": 83, "duration": 1, "velocity": 85}, {"time": 2803, "pitch": 85, "duration": 1, "velocity": 89}, {"time": 2806, "pitch": 86, "duration": 4, "velocity": 85}, {"time": 2812, "pitch": 85, "duration": 4, "velocity": 88}, {"time": 2818, "pitch": 83, "duration": 5, "velocity": 84}, {"time": 2824, "pitch": 81, "duration": 2, "velocity": 84}, {"time": 2827, "pitch": 83, "duration": 6, "velocity": 83}, {"time": 2833, "pitch": 81, "duration": 5, "velocity": 79}, {"time": 2842, "pitch": 78, "duration": 4, "velocity": 83}, {"time": 2848, "pitch": 81, "duration": 4, "velocity": 85}, {"time": 2854, "pitch": 78, "duration": 5, "velocity": 84}, {"time": 2860, "pitch": 76, "duration": 1, "velocity": 83}, {"time": 2863, "pitch": 76, "duration": 27, "velocity": 82}, {"time": 2899, "pitch": 74, "duration": 2, "velocity": 87}, {"time": 2902, "pitch": 76, "duration": 4, "velocity": 85}, {"time": 2908, "pitch": 76, "duration": 2, "velocity": 84}, {"time": 2911, "pitch": 81, "duration": 8, "velocity": 83}, {"time": 2920, "pitch": 73, "duration": 6, "velocity": 78}, {"time": 2926, "pitch": 74, "duration": 18, "velocity": 87}, {"time": 2947, "pitch": 74, "duration": 2, "velocity": 85}, {"time": 2950, "pitch": 76, "duration": 4, "velocity": 85}, {"time": 2956, "pitch": 76, "duration": 2, "velocity": 82}, {"time": 2959, "pitch": 83, "duration": 8, "velocity": 83}, {"time": 2968, "pitch": 81, "duration": 3, "velocity": 81}, {"time": 2971, "pitch": 78, "duration": 14, "velocity": 84}, {"time": 2989, "pitch": 71, "duration": 1, "velocity": 84}, {"time": 2992, "pitch": 71, "duration": 2, "velocity": 85}, {"time": 2995, "pitch": 74, "duration": 1, "velocity": 85}, {"time": 2998, "pitch": 78, "duration": 5, "velocity": 67}, {"time": 3004, "pitch": 76, "duration": 2, "velocity": 83}, {"time": 3007, "pitch": 76, "duration": 6, "velocity": 83}, {"time": 3013, "pitch": 81, "duration": 4, "velocity": 84}, {"time": 3022, "pitch": 78, "duration": 11, "velocity": 85}, {"time": 3034, "pitch": 76, "duration": 36, "velocity": 84}, {"time": 3087, "pitch": 76, "duration": 5, "velocity": 83}, {"time": 3093, "pitch": 76, "duration": 12, "velocity": 84}, {"time": 3111, "pitch": 74, "duration": 19, "velocity": 86}, {"time": 3119, "pitch": 78, "duration": 12, "velocity": 97}, {"time": 3130, "pitch": 79, "duration": 12, "velocity": 95}, {"time": 3142, "pitch": 81, "duration": 53, "velocity": 95}, {"time": 3196, "pitch": 86, "duration": 15, "velocity": 108}, {"time": 3210, "pitch": 83, "duration": 3, "velocity": 108}, {"time": 3214, "pitch": 83, "duration": 5, "velocity": 108}, {"time": 3219, "pitch": 81, "duration": 18, "velocity": 97}, {"time": 3292, "pitch": 86, "duration": 12, "velocity": 108}, {"time": 3303, "pitch": 88, "duration": 7, "velocity": 99}, {"time": 3310, "pitch": 83, "duration": 6, "velocity": 106}, {"time": 3315, "pitch": 81, "duration": 2, "velocity": 109}, {"time": 3317, "pitch": 78, "duration": 2, "velocity": 121}, {"time": 3319, "pitch": 81, "duration": 12, "velocity": 96}, {"time": 3331, "pitch": 74, "duration": 3, "velocity": 87}, {"time": 3334, "pitch": 76, "duration": 4, "velocity": 85}, {"time": 3340, "pitch": 76, "duration": 2, "velocity": 84}, {"time": 3343, "pitch": 81, "duration": 8, "velocity": 83}, {"time": 3352, "pitch": 73, "duration": 6, "velocity": 78}, {"time": 3358, "pitch": 74, "duration": 3, "velocity": 87}, {"time": 3360, "pitch": 76, "duration": 6, "velocity": 87}, {"time": 3364, "pitch": 74, "duration": 15, "velocity": 87}, {"time": 3379, "pitch": 74, "duration": 2, "velocity": 85}, {"time": 3382, "pitch": 76, "duration": 4, "velocity": 85}, {"time": 3388, "pitch": 76, "duration": 2, "velocity": 82}, {"time": 3391, "pitch": 83, "duration": 8, "velocity": 83}, {"time": 3400, "pitch": 81, "duration": 3, "velocity": 81}, {"time": 3403, "pitch": 78, "duration": 6, "velocity": 84}, {"time": 3408, "pitch": 76, "duration": 2, "velocity": 81}, {"time": 3410, "pitch": 74, "duration": 11, "velocity": 83}, {"time": 3421, "pitch": 71, "duration": 1, "velocity": 84}, {"time": 3424, "pitch": 71, "duration": 2, "velocity": 85}, {"time": 3427, "pitch": 74, "duration": 2, "velocity": 85}, {"time": 3430, "pitch": 78, "duration": 5, "velocity": 67}, {"time": 3436, "pitch": 76, "duration": 2, "velocity": 83}, {"time": 3439, "pitch": 76, "duration": 6, "velocity": 83}, {"time": 3445, "pitch": 81, "duration": 11, "velocity": 84}, {"time": 3454, "pitch": 78, "duration": 5, "velocity": 85}, {"time": 3459, "pitch": 79, "duration": 2, "velocity": 78}, {"time": 3460, "pitch": 78, "duration": 8, "velocity": 82}, {"time": 3468, "pitch": 76, "duration": 31, "velocity": 73}, {"time": 3526, "pitch": 76, "duration": 18, "velocity": 84}, {"time": 3544, "pitch": 74, "duration": 24, "velocity": 80}, {"time": 3615, "pitch": 76, "duration": 5, "velocity": 84}, {"time": 3621, "pitch": 78, "duration": 13, "velocity": 82}, {"time": 3633, "pitch": 76, "duration": 6, "velocity": 81}, {"time": 3639, "pitch": 74, "duration": 32, "velocity": 84}]}, {"program": 0, "is_drum": false, "name": "BRIDGE", "notes": [{"time": 96, "pitch": 83, "duration": 22, "velocity": 71}, {"time": 96, "pitch": 74, "duration": 22, "velocity": 61}, {"time": 117, "pitch": 73, "duration": 25, "velocity": 49}, {"time": 117, "pitch": 83, "duration": 1, "velocity": 63}, {"time": 141, "pitch": 71, "duration": 24, "velocity": 44}, {"time": 141, "pitch": 86, "duration": 26, "velocity": 57}, {"time": 175, "pitch": 76, "duration": 42, "velocity": 40}, {"time": 175, "pitch": 86, "duration": 43, "velocity": 53}, {"time": 1782, "pitch": 81, "duration": 3, "velocity": 87}, {"time": 1785, "pitch": 86, "duration": 3, "velocity": 94}, {"time": 1788, "pitch": 88, "duration": 2, "velocity": 78}, {"time": 1791, "pitch": 90, "duration": 1, "velocity": 85}, {"time": 1794, "pitch": 90, "duration": 21, "velocity": 85}, {"time": 1815, "pitch": 88, "duration": 3, "velocity": 87}, {"time": 1818, "pitch": 86, "duration": 2, "velocity": 90}, {"time": 1821, "pitch": 86, "duration": 8, "velocity": 99}, {"time": 1830, "pitch": 81, "duration": 3, "velocity": 87}, {"time": 1833, "pitch": 86, "duration": 2, "velocity": 89}, {"time": 1836, "pitch": 88, "duration": 3, "velocity": 84}, {"time": 1839, "pitch": 90, "duration": 3, "velocity": 85}, {"time": 1842, "pitch": 91, "duration": 3, "velocity": 84}, {"time": 1845, "pitch": 93, "duration": 12, "velocity": 92}, {"time": 1857, "pitch": 98, "duration": 6, "velocity": 89}, {"time": 1863, "pitch": 93, "duration": 3, "velocity": 84}, {"time": 1866, "pitch": 91, "duration": 13, "velocity": 90}, {"time": 1878, "pitch": 93, "duration": 3, "velocity": 88}, {"time": 1881, "pitch": 98, "duration": 2, "velocity": 88}, {"time": 1884, "pitch": 100, "duration": 3, "velocity": 84}, {"time": 1887, "pitch": 102, "duration": 3, "velocity": 94}, {"time": 1890, "pitch": 103, "duration": 2, "velocity": 85}, {"time": 1893, "pitch": 105, "duration": 44, "velocity": 88}, {"time": 2104, "pitch": 83, "duration": 3, "velocity": 60}, {"time": 2106, "pitch": 86, "duration": 4, "velocity": 66}, {"time": 2110, "pitch": 78, "duration": 12, "velocity": 53}, {"time": 2164, "pitch": 78, "duration": 3, "velocity": 68}, {"time": 2167, "pitch": 86, "duration": 9, "velocity": 83}, {"time": 2191, "pitch": 85, "duration": 4, "velocity": 69}, {"time": 2212, "pitch": 85, "duration": 3, "velocity": 78}, {"time": 2215, "pitch": 86, "duration": 9, "velocity": 91}, {"time": 2236, "pitch": 91, "duration": 3, "velocity": 108}, {"time": 2239, "pitch": 90, "duration": 6, "velocity": 95}, {"time": 2245, "pitch": 83, "duration": 10, "velocity": 87}, {"time": 2254, "pitch": 91, "duration": 6, "velocity": 95}, {"time": 3118, "pitch": 78, "duration": 9, "velocity": 87}, {"time": 3118, "pitch": 90, "duration": 9, "velocity": 87}, {"time": 3130, "pitch": 79, "duration": 10, "velocity": 84}, {"time": 3130, "pitch": 91, "duration": 10, "velocity": 84}, {"time": 3142, "pitch": 81, "duration": 14, "velocity": 73}, {"time": 3142, "pitch": 93, "duration": 14, "velocity": 73}, {"time": 3160, "pitch": 74, "duration": 5, "velocity": 88}, {"time": 3160, "pitch": 86, "duration": 5, "velocity": 88}, {"time": 3166, "pitch": 73, "duration": 5, "velocity": 86}, {"time": 3166, "pitch": 85, "duration": 5, "velocity": 86}, {"time": 3172, "pitch": 74, "duration": 5, "velocity": 84}, {"time": 3172, "pitch": 86, "duration": 5, "velocity": 84}, {"time": 3178, "pitch": 78, "duration": 5, "velocity": 85}, {"time": 3178, "pitch": 90, "duration": 5, "velocity": 85}, {"time": 3184, "pitch": 83, "duration": 4, "velocity": 82}, {"time": 3184, "pitch": 95, "duration": 4, "velocity": 82}, {"time": 3190, "pitch": 83, "duration": 17, "velocity": 87}, {"time": 3190, "pitch": 95, "duration": 17, "velocity": 87}, {"time": 3208, "pitch": 78, "duration": 6, "velocity": 84}, {"time": 3208, "pitch": 90, "duration": 6, "velocity": 84}, {"time": 3214, "pitch": 81, "duration": 14, "velocity": 86}, {"time": 3214, "pitch": 93, "duration": 14, "velocity": 86}, {"time": 3229, "pitch": 78, "duration": 1, "velocity": 84}, {"time": 3229, "pitch": 90, "duration": 1, "velocity": 84}, {"time": 3232, "pitch": 83, "duration": 1, "velocity": 85}, {"time": 3232, "pitch": 95, "duration": 1, "velocity": 85}, {"time": 3235, "pitch": 85, "duration": 1, "velocity": 89}, {"time": 3235, "pitch": 97, "duration": 1, "velocity": 89}, {"time": 3238, "pitch": 86, "duration": 4, "velocity": 85}, {"time": 3238, "pitch": 98, "duration": 4, "velocity": 85}, {"time": 3244, "pitch": 85, "duration": 4, "velocity": 88}, {"time": 3244, "pitch": 97, "duration": 4, "velocity": 88}, {"time": 3250, "pitch": 83, "duration": 5, "velocity": 84}, {"time": 3250, "pitch": 95, "duration": 5, "velocity": 84}, {"time": 3256, "pitch": 81, "duration": 2, "velocity": 84}, {"time": 3256, "pitch": 93, "duration": 2, "velocity": 84}, {"time": 3259, "pitch": 83, "duration": 6, "velocity": 83}, {"time": 3259, "pitch": 95, "duration": 6, "velocity": 83}, {"time": 3265, "pitch": 81, "duration": 5, "velocity": 79}, {"time": 3265, "pitch": 93, "duration": 5, "velocity": 79}, {"time": 3274, "pitch": 78, "duration": 4, "velocity": 83}, {"time": 3274, "pitch": 90, "duration": 4, "velocity": 83}, {"time": 3280, "pitch": 81, "duration": 4, "velocity": 85}, {"time": 3280, "pitch": 93, "duration": 4, "velocity": 85}, {"time": 3286, "pitch": 78, "duration": 5, "velocity": 84}, {"time": 3286, "pitch": 90, "duration": 5, "velocity": 84}, {"time": 3292, "pitch": 76, "duration": 1, "velocity": 83}, {"time": 3292, "pitch": 88, "duration": 1, "velocity": 83}, {"time": 3295, "pitch": 76, "duration": 27, "velocity": 82}, {"time": 3295, "pitch": 88, "duration": 27, "velocity": 82}, {"time": 3331, "pitch": 86, "duration": 2, "velocity": 87}, {"time": 3334, "pitch": 88, "duration": 4, "velocity": 85}, {"time": 3340, "pitch": 88, "duration": 2, "velocity": 84}, {"time": 3343, "pitch": 93, "duration": 8, "velocity": 83}, {"time": 3352, "pitch": 85, "duration": 6, "velocity": 78}, {"time": 3358, "pitch": 86, "duration": 18, "velocity": 87}, {"time": 3379, "pitch": 86, "duration": 2, "velocity": 85}, {"time": 3382, "pitch": 88, "duration": 4, "velocity": 85}, {"time": 3388, "pitch": 88, "duration": 2, "velocity": 82}, {"time": 3391, "pitch": 95, "duration": 8, "velocity": 83}, {"time": 3400, "pitch": 93, "duration": 3, "velocity": 81}, {"time": 3403, "pitch": 90, "duration": 14, "velocity": 84}, {"time": 3421, "pitch": 83, "duration": 1, "velocity": 84}, {"time": 3424, "pitch": 83, "duration": 2, "velocity": 85}, {"time": 3427, "pitch": 86, "duration": 1, "velocity": 85}, {"time": 3430, "pitch": 90, "duration": 5, "velocity": 67}, {"time": 3436, "pitch": 88, "duration": 2, "velocity": 83}, {"time": 3439, "pitch": 88, "duration": 6, "velocity": 83}, {"time": 3445, "pitch": 93, "duration": 4, "velocity": 84}, {"time": 3454, "pitch": 90, "duration": 4, "velocity": 85}, {"time": 3460, "pitch": 88, "duration": 6, "velocity": 83}, {"time": 3466, "pitch": 88, "duration": 12, "velocity": 84}]}, {"program": 0, "is_drum": false, "name": "PIANO", "notes": [{"time": 3, "pitch": 50, "duration": 35, "velocity": 80}, {"time": 3, "pitch": 81, "duration": 19, "velocity": 67}, {"time": 9, "pitch": 57, "duration": 30, "velocity": 63}, {"time": 15, "pitch": 62, "duration": 32, "velocity": 69}, {"time": 20, "pitch": 64, "duration": 28, "velocity": 74}, {"time": 20, "pitch": 74, "duration": 7, "velocity": 66}, {"time": 26, "pitch": 66, "duration": 24, "velocity": 59}, {"time": 26, "pitch": 73, "duration": 7, "velocity": 71}, {"time": 32, "pitch": 74, "duration": 6, "velocity": 66}, {"time": 38, "pitch": 78, "duration": 5, "velocity": 62}, {"time": 43, "pitch": 83, "duration": 2, "velocity": 71}, {"time": 48, "pitch": 49, "duration": 35, "velocity": 72}, {"time": 49, "pitch": 64, "duration": 11, "velocity": 79}, {"time": 49, "pitch": 83, "duration": 15, "velocity": 89}, {"time": 55, "pitch": 57, "duration": 7, "velocity": 69}, {"time": 60, "pitch": 64, "duration": 16, "velocity": 71}, {"time": 65, "pitch": 78, "duration": 7, "velocity": 74}, {"time": 71, "pitch": 69, "duration": 23, "velocity": 71}, {"time": 71, "pitch": 81, "duration": 23, "velocity": 73}, {"time": 76, "pitch": 57, "duration": 19, "velocity": 51}, {"time": 83, "pitch": 83, "duration": 7, "velocity": 71}, {"time": 83, "pitch": 74, "duration": 3, "velocity": 66}, {"time": 89, "pitch": 85, "duration": 7, "velocity": 82}, {"time": 89, "pitch": 76, "duration": 1, "velocity": 55}, {"time": 95, "pitch": 59, "duration": 11, "velocity": 68}, {"time": 95, "pitch": 62, "duration": 11, "velocity": 71}, {"time": 95, "pitch": 47, "duration": 18, "velocity": 77}, {"time": 95, "pitch": 86, "duration": 7, "velocity": 89}, {"time": 95, "pitch": 78, "duration": 4, "velocity": 75}, {"time": 100, "pitch": 85, "duration": 5, "velocity": 87}, {"time": 100, "pitch": 54, "duration": 13, "velocity": 65}, {"time": 100, "pitch": 76, "duration": 4, "velocity": 63}, {"time": 106, "pitch": 66, "duration": 18, "velocity": 85}, {"time": 106, "pitch": 85, "duration": 5, "velocity": 62}, {"time": 106, "pitch": 76, "duration": 2, "velocity": 80}, {"time": 111, "pitch": 59, "duration": 7, "velocity": 83}, {"time": 112, "pitch": 83, "duration": 3, "velocity": 86}, {"time": 112, "pitch": 74, "duration": 4, "velocity": 73}, {"time": 117, "pitch": 83, "duration": 11, "velocity": 92}, {"time": 117, "pitch": 74, "duration": 2, "velocity": 71}, {"time": 117, "pitch": 42, "duration": 20, "velocity": 71}, {"time": 122, "pitch": 81, "duration": 4, "velocity": 79}, {"time": 122, "pitch": 57, "duration": 6, "velocity": 73}, {"time": 122, "pitch": 73, "duration": 4, "velocity": 62}, {"time": 128, "pitch": 61, "duration": 15, "velocity": 72}, {"time": 128, "pitch": 71, "duration": 5, "velocity": 49}, {"time": 128, "pitch": 78, "duration": 6, "velocity": 63}, {"time": 134, "pitch": 49, "duration": 3, "velocity": 68}, {"time": 134, "pitch": 81, "duration": 7, "velocity": 73}, {"time": 141, "pitch": 40, "duration": 29, "velocity": 83}, {"time": 141, "pitch": 78, "duration": 15, "velocity": 58}, {"time": 141, "pitch": 71, "duration": 20, "velocity": 40}, {"time": 147, "pitch": 47, "duration": 23, "velocity": 68}, {"time": 153, "pitch": 76, "duration": 8, "velocity": 73}, {"time": 153, "pitch": 55, "duration": 18, "velocity": 76}, {"time": 159, "pitch": 78, "duration": 47, "velocity": 73}, {"time": 159, "pitch": 52, "duration": 13, "velocity": 80}, {"time": 172, "pitch": 45, "duration": 36, "velocity": 70}, {"time": 172, "pitch": 55, "duration": 37, "velocity": 58}, {"time": 173, "pitch": 58, "duration": 36, "velocity": 62}, {"time": 175, "pitch": 62, "duration": 34, "velocity": 66}, {"time": 212, "pitch": 57, "duration": 31, "velocity": 59}, {"time": 213, "pitch": 62, "duration": 29, "velocity": 67}, {"time": 213, "pitch": 50, "duration": 16, "velocity": 75}, {"time": 214, "pitch": 66, "duration": 28, "velocity": 63}, {"time": 260, "pitch": 58, "duration": 38, "velocity": 65}, {"time": 261, "pitch": 38, "duration": 37, "velocity": 67}, {"time": 261, "pitch": 62, "duration": 38, "velocity": 53}, {"time": 262, "pitch": 67, "duration": 37, "velocity": 59}, {"time": 308, "pitch": 57, "duration": 24, "velocity": 64}, {"time": 309, "pitch": 60, "duration": 27, "velocity": 74}, {"time": 309, "pitch": 50, "duration": 42, "velocity": 79}, {"time": 309, "pitch": 66, "duration": 26, "velocity": 72}, {"time": 339, "pitch": 57, "duration": 11, "velocity": 63}, {"time": 345, "pitch": 66, "duration": 5, "velocity": 85}, {"time": 352, "pitch": 60, "duration": 1, "velocity": 65}, {"time": 357, "pitch": 43, "duration": 36, "velocity": 70}, {"time": 357, "pitch": 55, "duration": 18, "velocity": 65}, {"time": 357, "pitch": 59, "duration": 16, "velocity": 67}, {"time": 375, "pitch": 50, "duration": 18, "velocity": 55}, {"time": 381, "pitch": 55, "duration": 11, "velocity": 64}, {"time": 381, "pitch": 62, "duration": 11, "velocity": 68}, {"time": 404, "pitch": 57, "duration": 16, "velocity": 54}, {"time": 404, "pitch": 61, "duration": 16, "velocity": 70}, {"time": 405, "pitch": 66, "duration": 19, "velocity": 69}, {"time": 405, "pitch": 42, "duration": 15, "velocity": 71}, {"time": 427, "pitch": 59, "duration": 8, "velocity": 63}, {"time": 428, "pitch": 62, "duration": 7, "velocity": 71}, {"time": 429, "pitch": 47, "duration": 15, "velocity": 77}, {"time": 429, "pitch": 66, "duration": 6, "velocity": 70}, {"time": 435, "pitch": 54, "duration": 8, "velocity": 70}, {"time": 441, "pitch": 59, "duration": 4, "velocity": 85}, {"time": 453, "pitch": 57, "duration": 13, "velocity": 70}, {"time": 453, "pitch": 61, "duration": 13, "velocity": 74}, {"time": 453, "pitch": 42, "duration": 14, "velocity": 79}, {"time": 459, "pitch": 49, "duration": 8, "velocity": 65}, {"time": 465, "pitch": 66, "duration": 8, "velocity": 86}, {"time": 476, "pitch": 74, "duration": 7, "velocity": 80}, {"time": 476, "pitch": 71, "duration": 6, "velocity": 71}, {"time": 476, "pitch": 47, "duration": 17, "velocity": 79}, {"time": 482, "pitch": 54, "duration": 10, "velocity": 45}, {"time": 489, "pitch": 66, "duration": 3, "velocity": 79}, {"time": 489, "pitch": 62, "duration": 3, "velocity": 79}, {"time": 501, "pitch": 79, "duration": 12, "velocity": 74}, {"time": 501, "pitch": 43, "duration": 46, "velocity": 80}, {"time": 501, "pitch": 67, "duration": 7, "velocity": 67}, {"time": 506, "pitch": 50, "duration": 40, "velocity": 62}, {"time": 512, "pitch": 67, "duration": 9, "velocity": 80}, {"time": 518, "pitch": 74, "duration": 5, "velocity": 75}, {"time": 524, "pitch": 74, "duration": 5, "velocity": 75}, {"time": 524, "pitch": 67, "duration": 6, "velocity": 68}, {"time": 524, "pitch": 79, "duration": 4, "velocity": 73}, {"time": 536, "pitch": 67, "duration": 10, "velocity": 70}, {"time": 536, "pitch": 74, "duration": 11, "velocity": 80}, {"time": 548, "pitch": 57, "duration": 8, "velocity": 64}, {"time": 549, "pitch": 61, "duration": 10, "velocity": 66}, {"time": 549, "pitch": 45, "duration": 24, "velocity": 80}, {"time": 549, "pitch": 64, "duration": 12, "velocity": 74}, {"time": 555, "pitch": 52, "duration": 36, "velocity": 71}, {"time": 561, "pitch": 57, "duration": 13, "velocity": 83}, {"time": 567, "pitch": 64, "duration": 7, "velocity": 83}, {"time": 573, "pitch": 45, "duration": 25, "velocity": 55}, {"time": 579, "pitch": 58, "duration": 6, "velocity": 35}, {"time": 585, "pitch": 64, "duration": 6, "velocity": 47}, {"time": 591, "pitch": 57, "duration": 7, "velocity": 39}, {"time": 596, "pitch": 38, "duration": 26, "velocity": 51}, {"time": 596, "pitch": 50, "duration": 7, "velocity": 49}, {"time": 596, "pitch": 57, "duration": 2, "velocity": 46}, {"time": 596, "pitch": 62, "duration": 7, "velocity": 53}, {"time": 596, "pitch": 66, "duration": 7, "velocity": 57}, {"time": 609, "pitch": 57, "duration": 5, "velocity": 45}, {"time": 609, "pitch": 62, "duration": 5, "velocity": 44}, {"time": 609, "pitch": 66, "duration": 5, "velocity": 55}, {"time": 621, "pitch": 57, "duration": 7, "velocity": 43}, {"time": 621, "pitch": 62, "duration": 7, "velocity": 48}, {"time": 621, "pitch": 66, "duration": 7, "velocity": 55}, {"time": 627, "pitch": 38, "duration": 9, "velocity": 57}, {"time": 633, "pitch": 57, "duration": 7, "velocity": 63}, {"time": 633, "pitch": 62, "duration": 7, "velocity": 62}, {"time": 633, "pitch": 66, "duration": 7, "velocity": 63}, {"time": 636, "pitch": 50, "duration": 3, "velocity": 44}, {"time": 639, "pitch": 38, "duration": 1, "velocity": 48}, {"time": 645, "pitch": 38, "duration": 36, "velocity": 52}, {"time": 645, "pitch": 50, "duration": 26, "velocity": 44}, {"time": 645, "pitch": 57, "duration": 7, "velocity": 63}, {"time": 645, "pitch": 61, "duration": 7, "velocity": 64}, {"time": 645, "pitch": 66, "duration": 7, "velocity": 63}, {"time": 657, "pitch": 57, "duration": 6, "velocity": 47}, {"time": 657, "pitch": 61, "duration": 6, "velocity": 58}, {"time": 657, "pitch": 66, "duration": 5, "velocity": 58}, {"time": 669, "pitch": 57, "duration": 7, "velocity": 47}, {"time": 669, "pitch": 61, "duration": 7, "velocity": 43}, {"time": 669, "pitch": 66, "duration": 7, "velocity": 51}, {"time": 675, "pitch": 50, "duration": 13, "velocity": 51}, {"time": 681, "pitch": 57, "duration": 7, "velocity": 64}, {"time": 681, "pitch": 61, "duration": 6, "velocity": 65}, {"time": 681, "pitch": 66, "duration": 6, "velocity": 64}, {"time": 687, "pitch": 38, "duration": 1, "velocity": 67}, {"time": 693, "pitch": 38, "duration": 37, "velocity": 56}, {"time": 693, "pitch": 50, "duration": 26, "velocity": 57}, {"time": 693, "pitch": 57, "duration": 7, "velocity": 62}, {"time": 693, "pitch": 60, "duration": 7, "velocity": 62}, {"time": 693, "pitch": 66, "duration": 7, "velocity": 71}, {"time": 705, "pitch": 57, "duration": 5, "velocity": 51}, {"time": 705, "pitch": 60, "duration": 5, "velocity": 51}, {"time": 705, "pitch": 66, "duration": 5, "velocity": 53}, {"time": 717, "pitch": 57, "duration": 6, "velocity": 47}, {"time": 717, "pitch": 60, "duration": 6, "velocity": 48}, {"time": 717, "pitch": 66, "duration": 6, "velocity": 51}, {"time": 723, "pitch": 50, "duration": 6, "velocity": 57}, {"time": 729, "pitch": 57, "duration": 7, "velocity": 69}, {"time": 729, "pitch": 60, "duration": 8, "velocity": 65}, {"time": 729, "pitch": 66, "duration": 7, "velocity": 68}, {"time": 732, "pitch": 50, "duration": 6, "velocity": 62}, {"time": 735, "pitch": 38, "duration": 7, "velocity": 67}, {"time": 741, "pitch": 43, "duration": 40, "velocity": 54}, {"time": 741, "pitch": 59, "duration": 7, "velocity": 56}, {"time": 741, "pitch": 62, "duration": 7, "velocity": 57}, {"time": 741, "pitch": 67, "duration": 7, "velocity": 62}, {"time": 753, "pitch": 55, "duration": 14, "velocity": 36}, {"time": 753, "pitch": 59, "duration": 5, "velocity": 45}, {"time": 753, "pitch": 62, "duration": 5, "velocity": 53}, {"time": 753, "pitch": 67, "duration": 5, "velocity": 52}, {"time": 765, "pitch": 59, "duration": 7, "velocity": 48}, {"time": 765, "pitch": 62, "duration": 8, "velocity": 51}, {"time": 765, "pitch": 67, "duration": 7, "velocity": 45}, {"time": 774, "pitch": 55, "duration": 4, "velocity": 62}, {"time": 777, "pitch": 59, "duration": 3, "velocity": 77}, {"time": 777, "pitch": 62, "duration": 3, "velocity": 72}, {"time": 777, "pitch": 67, "duration": 3, "velocity": 82}, {"time": 780, "pitch": 55, "duration": 5, "velocity": 63}, {"time": 783, "pitch": 59, "duration": 1, "velocity": 47}, {"time": 783, "pitch": 62, "duration": 1, "velocity": 53}, {"time": 783, "pitch": 69, "duration": 1, "velocity": 61}, {"time": 786, "pitch": 43, "duration": 1, "velocity": 36}, {"time": 789, "pitch": 42, "duration": 15, "velocity": 53}, {"time": 789, "pitch": 54, "duration": 7, "velocity": 57}, {"time": 789, "pitch": 57, "duration": 8, "velocity": 56}, {"time": 789, "pitch": 61, "duration": 8, "velocity": 53}, {"time": 789, "pitch": 66, "duration": 8, "velocity": 71}, {"time": 798, "pitch": 54, "duration": 2, "velocity": 24}, {"time": 801, "pitch": 57, "duration": 5, "velocity": 76}, {"time": 801, "pitch": 61, "duration": 6, "velocity": 75}, {"time": 801, "pitch": 66, "duration": 6, "velocity": 73}, {"time": 807, "pitch": 54, "duration": 1, "velocity": 52}, {"time": 813, "pitch": 47, "duration": 14, "velocity": 43}, {"time": 813, "pitch": 54, "duration": 5, "velocity": 32}, {"time": 813, "pitch": 59, "duration": 8, "velocity": 53}, {"time": 813, "pitch": 62, "duration": 8, "velocity": 52}, {"time": 813, "pitch": 66, "duration": 8, "velocity": 58}, {"time": 822, "pitch": 54, "duration": 3, "velocity": 50}, {"time": 825, "pitch": 59, "duration": 7, "velocity": 77}, {"time": 825, "pitch": 62, "duration": 7, "velocity": 76}, {"time": 825, "pitch": 66, "duration": 7, "velocity": 83}, {"time": 828, "pitch": 54, "duration": 3, "velocity": 57}, {"time": 831, "pitch": 47, "duration": 1, "velocity": 59}, {"time": 834, "pitch": 45, "duration": 1, "velocity": 41}, {"time": 837, "pitch": 42, "duration": 15, "velocity": 58}, {"time": 837, "pitch": 54, "duration": 6, "velocity": 56}, {"time": 837, "pitch": 57, "duration": 8, "velocity": 64}, {"time": 837, "pitch": 61, "duration": 8, "velocity": 63}, {"time": 837, "pitch": 66, "duration": 7, "velocity": 67}, {"time": 846, "pitch": 54, "duration": 3, "velocity": 57}, {"time": 849, "pitch": 57, "duration": 7, "velocity": 75}, {"time": 849, "pitch": 61, "duration": 8, "velocity": 74}, {"time": 849, "pitch": 66, "duration": 8, "velocity": 76}, {"time": 852, "pitch": 54, "duration": 1, "velocity": 55}, {"time": 855, "pitch": 42, "duration": 6, "velocity": 49}, {"time": 858, "pitch": 54, "duration": 1, "velocity": 64}, {"time": 861, "pitch": 47, "duration": 15, "velocity": 54}, {"time": 861, "pitch": 54, "duration": 6, "velocity": 21}, {"time": 861, "pitch": 59, "duration": 8, "velocity": 62}, {"time": 861, "pitch": 62, "duration": 8, "velocity": 63}, {"time": 861, "pitch": 66, "duration": 8, "velocity": 63}, {"time": 870, "pitch": 54, "duration": 3, "velocity": 47}, {"time": 873, "pitch": 59, "duration": 6, "velocity": 75}, {"time": 873, "pitch": 62, "duration": 5, "velocity": 68}, {"time": 873, "pitch": 66, "duration": 6, "velocity": 79}, {"time": 876, "pitch": 54, "duration": 2, "velocity": 47}, {"time": 879, "pitch": 42, "duration": 1, "velocity": 50}, {"time": 885, "pitch": 40, "duration": 16, "velocity": 63}, {"time": 885, "pitch": 52, "duration": 13, "velocity": 63}, {"time": 885, "pitch": 55, "duration": 8, "velocity": 65}, {"time": 885, "pitch": 59, "duration": 8, "velocity": 62}, {"time": 885, "pitch": 64, "duration": 8, "velocity": 63}, {"time": 897, "pitch": 55, "duration": 5, "velocity": 71}, {"time": 897, "pitch": 59, "duration": 6, "velocity": 72}, {"time": 897, "pitch": 64, "duration": 6, "velocity": 67}, {"time": 903, "pitch": 52, "duration": 4, "velocity": 69}, {"time": 906, "pitch": 40, "duration": 4, "velocity": 76}, {"time": 909, "pitch": 40, "duration": 1, "velocity": 76}, {"time": 909, "pitch": 52, "duration": 7, "velocity": 43}, {"time": 909, "pitch": 55, "duration": 8, "velocity": 76}, {"time": 909, "pitch": 59, "duration": 8, "velocity": 79}, {"time": 909, "pitch": 64, "duration": 8, "velocity": 83}, {"time": 918, "pitch": 52, "duration": 4, "velocity": 61}, {"time": 921, "pitch": 55, "duration": 7, "velocity": 76}, {"time": 921, "pitch": 59, "duration": 7, "velocity": 72}, {"time": 921, "pitch": 64, "duration": 7, "velocity": 75}, {"time": 924, "pitch": 52, "duration": 6, "velocity": 71}, {"time": 927, "pitch": 40, "duration": 2, "velocity": 65}, {"time": 933, "pitch": 45, "duration": 42, "velocity": 68}, {"time": 933, "pitch": 52, "duration": 8, "velocity": 64}, {"time": 933, "pitch": 57, "duration": 8, "velocity": 83}, {"time": 933, "pitch": 61, "duration": 8, "velocity": 83}, {"time": 933, "pitch": 64, "duration": 9, "velocity": 83}, {"time": 942, "pitch": 52, "duration": 7, "velocity": 63}, {"time": 945, "pitch": 57, "duration": 6, "velocity": 77}, {"time": 945, "pitch": 64, "duration": 6, "velocity": 56}, {"time": 951, "pitch": 52, "duration": 5, "velocity": 48}, {"time": 957, "pitch": 57, "duration": 7, "velocity": 88}, {"time": 957, "pitch": 67, "duration": 7, "velocity": 92}, {"time": 963, "pitch": 52, "duration": 5, "velocity": 46}, {"time": 969, "pitch": 57, "duration": 3, "velocity": 81}, {"time": 969, "pitch": 66, "duration": 3, "velocity": 83}, {"time": 972, "pitch": 52, "duration": 3, "velocity": 57}, {"time": 975, "pitch": 57, "duration": 1, "velocity": 75}, {"time": 975, "pitch": 67, "duration": 1, "velocity": 76}, {"time": 981, "pitch": 38, "duration": 39, "velocity": 62}, {"time": 981, "pitch": 50, "duration": 6, "velocity": 55}, {"time": 981, "pitch": 57, "duration": 7, "velocity": 74}, {"time": 981, "pitch": 62, "duration": 7, "velocity": 67}, {"time": 981, "pitch": 66, "duration": 7, "velocity": 70}, {"time": 981, "pitch": 69, "duration": 7, "velocity": 71}, {"time": 990, "pitch": 50, "duration": 4, "velocity": 50}, {"time": 993, "pitch": 57, "duration": 6, "velocity": 88}, {"time": 993, "pitch": 62, "duration": 6, "velocity": 84}, {"time": 993, "pitch": 66, "duration": 6, "velocity": 78}, {"time": 993, "pitch": 69, "duration": 6, "velocity": 82}, {"time": 999, "pitch": 50, "duration": 8, "velocity": 47}, {"time": 1005, "pitch": 57, "duration": 6, "velocity": 72}, {"time": 1005, "pitch": 62, "duration": 6, "velocity": 57}, {"time": 1005, "pitch": 66, "duration": 6, "velocity": 71}, {"time": 1005, "pitch": 69, "duration": 7, "velocity": 70}, {"time": 1011, "pitch": 50, "duration": 6, "velocity": 51}, {"time": 1017, "pitch": 57, "duration": 7, "velocity": 85}, {"time": 1017, "pitch": 62, "duration": 6, "velocity": 75}, {"time": 1017, "pitch": 66, "duration": 7, "velocity": 73}, {"time": 1017, "pitch": 69, "duration": 7, "velocity": 79}, {"time": 1020, "pitch": 50, "duration": 6, "velocity": 63}, {"time": 1023, "pitch": 38, "duration": 1, "velocity": 75}, {"time": 1026, "pitch": 38, "duration": 1, "velocity": 62}, {"time": 1029, "pitch": 37, "duration": 40, "velocity": 67}, {"time": 1029, "pitch": 49, "duration": 7, "velocity": 71}, {"time": 1029, "pitch": 57, "duration": 8, "velocity": 72}, {"time": 1029, "pitch": 61, "duration": 8, "velocity": 74}, {"time": 1029, "pitch": 66, "duration": 8, "velocity": 71}, {"time": 1029, "pitch": 69, "duration": 7, "velocity": 74}, {"time": 1038, "pitch": 49, "duration": 5, "velocity": 37}, {"time": 1041, "pitch": 57, "duration": 6, "velocity": 80}, {"time": 1041, "pitch": 61, "duration": 7, "velocity": 77}, {"time": 1041, "pitch": 66, "duration": 6, "velocity": 75}, {"time": 1041, "pitch": 69, "duration": 6, "velocity": 75}, {"time": 1047, "pitch": 49, "duration": 6, "velocity": 45}, {"time": 1053, "pitch": 57, "duration": 8, "velocity": 85}, {"time": 1053, "pitch": 61, "duration": 9, "velocity": 75}, {"time": 1053, "pitch": 66, "duration": 8, "velocity": 78}, {"time": 1053, "pitch": 69, "duration": 9, "velocity": 83}, {"time": 1062, "pitch": 49, "duration": 3, "velocity": 46}, {"time": 1065, "pitch": 57, "duration": 4, "velocity": 91}, {"time": 1065, "pitch": 61, "duration": 5, "velocity": 85}, {"time": 1065, "pitch": 66, "duration": 4, "velocity": 74}, {"time": 1065, "pitch": 69, "duration": 3, "velocity": 89}, {"time": 1068, "pitch": 49, "duration": 6, "velocity": 62}, {"time": 1071, "pitch": 55, "duration": 1, "velocity": 64}, {"time": 1071, "pitch": 67, "duration": 2, "velocity": 68}, {"time": 1074, "pitch": 37, "duration": 1, "velocity": 53}, {"time": 1077, "pitch": 35, "duration": 20, "velocity": 61}, {"time": 1077, "pitch": 47, "duration": 7, "velocity": 54}, {"time": 1077, "pitch": 59, "duration": 9, "velocity": 79}, {"time": 1077, "pitch": 62, "duration": 8, "velocity": 67}, {"time": 1077, "pitch": 66, "duration": 8, "velocity": 75}, {"time": 1086, "pitch": 47, "duration": 4, "velocity": 62}, {"time": 1089, "pitch": 59, "duration": 7, "velocity": 95}, {"time": 1089, "pitch": 62, "duration": 8, "velocity": 90}, {"time": 1089, "pitch": 66, "duration": 7, "velocity": 92}, {"time": 1095, "pitch": 47, "duration": 4, "velocity": 62}, {"time": 1101, "pitch": 33, "duration": 16, "velocity": 72}, {"time": 1101, "pitch": 45, "duration": 7, "velocity": 67}, {"time": 1101, "pitch": 57, "duration": 9, "velocity": 80}, {"time": 1101, "pitch": 60, "duration": 8, "velocity": 79}, {"time": 1101, "pitch": 64, "duration": 8, "velocity": 68}, {"time": 1110, "pitch": 45, "duration": 4, "velocity": 79}, {"time": 1113, "pitch": 57, "duration": 6, "velocity": 97}, {"time": 1113, "pitch": 60, "duration": 6, "velocity": 97}, {"time": 1113, "pitch": 64, "duration": 6, "velocity": 90}, {"time": 1116, "pitch": 45, "duration": 4, "velocity": 45}, {"time": 1119, "pitch": 33, "duration": 1, "velocity": 67}, {"time": 1125, "pitch": 40, "duration": 15, "velocity": 65}, {"time": 1125, "pitch": 52, "duration": 6, "velocity": 59}, {"time": 1125, "pitch": 55, "duration": 8, "velocity": 85}, {"time": 1125, "pitch": 59, "duration": 8, "velocity": 76}, {"time": 1125, "pitch": 64, "duration": 8, "velocity": 75}, {"time": 1134, "pitch": 52, "duration": 4, "velocity": 68}, {"time": 1137, "pitch": 55, "duration": 6, "velocity": 94}, {"time": 1137, "pitch": 59, "duration": 9, "velocity": 92}, {"time": 1137, "pitch": 64, "duration": 8, "velocity": 90}, {"time": 1140, "pitch": 52, "duration": 3, "velocity": 72}, {"time": 1143, "pitch": 40, "duration": 5, "velocity": 67}, {"time": 1146, "pitch": 52, "duration": 10, "velocity": 77}, {"time": 1149, "pitch": 45, "duration": 15, "velocity": 76}, {"time": 1149, "pitch": 57, "duration": 9, "velocity": 83}, {"time": 1149, "pitch": 61, "duration": 9, "velocity": 77}, {"time": 1149, "pitch": 64, "duration": 9, "velocity": 77}, {"time": 1158, "pitch": 52, "duration": 3, "velocity": 75}, {"time": 1161, "pitch": 57, "duration": 3, "velocity": 87}, {"time": 1161, "pitch": 61, "duration": 2, "velocity": 76}, {"time": 1161, "pitch": 64, "duration": 2, "velocity": 83}, {"time": 1164, "pitch": 52, "duration": 4, "velocity": 71}, {"time": 1167, "pitch": 45, "duration": 1, "velocity": 57}, {"time": 1167, "pitch": 57, "duration": 1, "velocity": 68}, {"time": 1167, "pitch": 61, "duration": 1, "velocity": 64}, {"time": 1167, "pitch": 66, "duration": 2, "velocity": 79}, {"time": 1170, "pitch": 57, "duration": 1, "velocity": 42}, {"time": 1170, "pitch": 61, "duration": 1, "velocity": 50}, {"time": 1170, "pitch": 67, "duration": 1, "velocity": 68}, {"time": 1173, "pitch": 42, "duration": 17, "velocity": 62}, {"time": 1173, "pitch": 54, "duration": 8, "velocity": 67}, {"time": 1173, "pitch": 57, "duration": 10, "velocity": 65}, {"time": 1173, "pitch": 61, "duration": 9, "velocity": 53}, {"time": 1173, "pitch": 66, "duration": 9, "velocity": 76}, {"time": 1182, "pitch": 54, "duration": 4, "velocity": 43}, {"time": 1185, "pitch": 57, "duration": 6, "velocity": 90}, {"time": 1185, "pitch": 61, "duration": 6, "velocity": 85}, {"time": 1185, "pitch": 66, "duration": 7, "velocity": 91}, {"time": 1191, "pitch": 54, "duration": 1, "velocity": 50}, {"time": 1194, "pitch": 42, "duration": 1, "velocity": 47}, {"time": 1197, "pitch": 47, "duration": 15, "velocity": 44}, {"time": 1197, "pitch": 54, "duration": 6, "velocity": 39}, {"time": 1197, "pitch": 59, "duration": 9, "velocity": 67}, {"time": 1197, "pitch": 62, "duration": 9, "velocity": 62}, {"time": 1197, "pitch": 66, "duration": 9, "velocity": 70}, {"time": 1206, "pitch": 54, "duration": 3, "velocity": 63}, {"time": 1209, "pitch": 59, "duration": 7, "velocity": 87}, {"time": 1209, "pitch": 62, "duration": 7, "velocity": 81}, {"time": 1209, "pitch": 66, "duration": 7, "velocity": 89}, {"time": 1212, "pitch": 54, "duration": 4, "velocity": 59}, {"time": 1215, "pitch": 47, "duration": 3, "velocity": 50}, {"time": 1221, "pitch": 42, "duration": 15, "velocity": 52}, {"time": 1221, "pitch": 54, "duration": 7, "velocity": 50}, {"time": 1221, "pitch": 57, "duration": 8, "velocity": 67}, {"time": 1221, "pitch": 61, "duration": 8, "velocity": 62}, {"time": 1221, "pitch": 66, "duration": 8, "velocity": 63}, {"time": 1230, "pitch": 54, "duration": 4, "velocity": 79}, {"time": 1233, "pitch": 57, "duration": 8, "velocity": 79}, {"time": 1233, "pitch": 61, "duration": 9, "velocity": 76}, {"time": 1233, "pitch": 66, "duration": 9, "velocity": 76}, {"time": 1236, "pitch": 54, "duration": 2, "velocity": 68}, {"time": 1239, "pitch": 42, "duration": 1, "velocity": 59}, {"time": 1242, "pitch": 42, "duration": 3, "velocity": 40}, {"time": 1245, "pitch": 47, "duration": 14, "velocity": 46}, {"time": 1245, "pitch": 54, "duration": 6, "velocity": 50}, {"time": 1245, "pitch": 59, "duration": 9, "velocity": 76}, {"time": 1245, "pitch": 62, "duration": 9, "velocity": 67}, {"time": 1245, "pitch": 66, "duration": 9, "velocity": 75}, {"time": 1254, "pitch": 54, "duration": 3, "velocity": 76}, {"time": 1257, "pitch": 59, "duration": 6, "velocity": 79}, {"time": 1257, "pitch": 62, "duration": 5, "velocity": 77}, {"time": 1257, "pitch": 66, "duration": 6, "velocity": 84}, {"time": 1260, "pitch": 54, "duration": 4, "velocity": 79}, {"time": 1263, "pitch": 42, "duration": 1, "velocity": 77}, {"time": 1269, "pitch": 40, "duration": 19, "velocity": 64}, {"time": 1269, "pitch": 52, "duration": 7, "velocity": 68}, {"time": 1269, "pitch": 55, "duration": 8, "velocity": 77}, {"time": 1269, "pitch": 59, "duration": 8, "velocity": 72}, {"time": 1269, "pitch": 64, "duration": 8, "velocity": 72}, {"time": 1278, "pitch": 52, "duration": 5, "velocity": 64}, {"time": 1281, "pitch": 55, "duration": 6, "velocity": 91}, {"time": 1281, "pitch": 59, "duration": 7, "velocity": 87}, {"time": 1281, "pitch": 64, "duration": 7, "velocity": 83}, {"time": 1287, "pitch": 52, "duration": 4, "velocity": 72}, {"time": 1290, "pitch": 40, "duration": 2, "velocity": 77}, {"time": 1293, "pitch": 40, "duration": 16, "velocity": 79}, {"time": 1293, "pitch": 52, "duration": 7, "velocity": 87}, {"time": 1293, "pitch": 56, "duration": 8, "velocity": 91}, {"time": 1293, "pitch": 59, "duration": 7, "velocity": 81}, {"time": 1293, "pitch": 64, "duration": 8, "velocity": 77}, {"time": 1302, "pitch": 52, "duration": 4, "velocity": 79}, {"time": 1305, "pitch": 56, "duration": 5, "velocity": 95}, {"time": 1305, "pitch": 59, "duration": 5, "velocity": 85}, {"time": 1305, "pitch": 64, "duration": 6, "velocity": 88}, {"time": 1308, "pitch": 52, "duration": 6, "velocity": 58}, {"time": 1311, "pitch": 40, "duration": 4, "velocity": 88}, {"time": 1317, "pitch": 45, "duration": 40, "velocity": 72}, {"time": 1317, "pitch": 52, "duration": 7, "velocity": 72}, {"time": 1317, "pitch": 57, "duration": 8, "velocity": 88}, {"time": 1317, "pitch": 61, "duration": 9, "velocity": 83}, {"time": 1317, "pitch": 64, "duration": 8, "velocity": 80}, {"time": 1317, "pitch": 69, "duration": 9, "velocity": 84}, {"time": 1329, "pitch": 52, "duration": 5, "velocity": 68}, {"time": 1329, "pitch": 57, "duration": 6, "velocity": 88}, {"time": 1329, "pitch": 61, "duration": 6, "velocity": 81}, {"time": 1329, "pitch": 64, "duration": 6, "velocity": 80}, {"time": 1329, "pitch": 69, "duration": 6, "velocity": 83}, {"time": 1335, "pitch": 52, "duration": 5, "velocity": 53}, {"time": 1338, "pitch": 57, "duration": 5, "velocity": 94}, {"time": 1338, "pitch": 61, "duration": 6, "velocity": 97}, {"time": 1344, "pitch": 52, "duration": 3, "velocity": 72}, {"time": 1347, "pitch": 57, "duration": 3, "velocity": 79}, {"time": 1350, "pitch": 52, "duration": 4, "velocity": 72}, {"time": 1353, "pitch": 59, "duration": 4, "velocity": 106}, {"time": 1356, "pitch": 52, "duration": 6, "velocity": 81}, {"time": 1359, "pitch": 61, "duration": 1, "velocity": 92}, {"time": 1362, "pitch": 45, "duration": 1, "velocity": 79}, {"time": 1366, "pitch": 38, "duration": 38, "velocity": 62}, {"time": 1366, "pitch": 50, "duration": 6, "velocity": 55}, {"time": 1366, "pitch": 57, "duration": 7, "velocity": 74}, {"time": 1366, "pitch": 62, "duration": 7, "velocity": 67}, {"time": 1366, "pitch": 66, "duration": 7, "velocity": 70}, {"time": 1366, "pitch": 69, "duration": 7, "velocity": 71}, {"time": 1375, "pitch": 50, "duration": 4, "velocity": 50}, {"time": 1378, "pitch": 57, "duration": 5, "velocity": 88}, {"time": 1378, "pitch": 62, "duration": 5, "velocity": 84}, {"time": 1378, "pitch": 66, "duration": 5, "velocity": 78}, {"time": 1378, "pitch": 69, "duration": 5, "velocity": 82}, {"time": 1384, "pitch": 50, "duration": 7, "velocity": 47}, {"time": 1390, "pitch": 57, "duration": 6, "velocity": 72}, {"time": 1390, "pitch": 62, "duration": 6, "velocity": 57}, {"time": 1390, "pitch": 66, "duration": 6, "velocity": 71}, {"time": 1390, "pitch": 69, "duration": 6, "velocity": 70}, {"time": 1396, "pitch": 50, "duration": 6, "velocity": 51}, {"time": 1402, "pitch": 57, "duration": 6, "velocity": 85}, {"time": 1402, "pitch": 62, "duration": 6, "velocity": 75}, {"time": 1402, "pitch": 66, "duration": 6, "velocity": 73}, {"time": 1402, "pitch": 69, "duration": 6, "velocity": 79}, {"time": 1405, "pitch": 50, "duration": 6, "velocity": 63}, {"time": 1408, "pitch": 38, "duration": 1, "velocity": 75}, {"time": 1411, "pitch": 38, "duration": 1, "velocity": 62}, {"time": 1414, "pitch": 37, "duration": 39, "velocity": 67}, {"time": 1414, "pitch": 49, "duration": 7, "velocity": 71}, {"time": 1414, "pitch": 57, "duration": 7, "velocity": 72}, {"time": 1414, "pitch": 61, "duration": 8, "velocity": 74}, {"time": 1414, "pitch": 66, "duration": 7, "velocity": 71}, {"time": 1414, "pitch": 69, "duration": 7, "velocity": 74}, {"time": 1423, "pitch": 49, "duration": 5, "velocity": 37}, {"time": 1426, "pitch": 57, "duration": 5, "velocity": 80}, {"time": 1426, "pitch": 61, "duration": 6, "velocity": 77}, {"time": 1426, "pitch": 66, "duration": 6, "velocity": 75}, {"time": 1426, "pitch": 69, "duration": 6, "velocity": 75}, {"time": 1432, "pitch": 49, "duration": 6, "velocity": 45}, {"time": 1438, "pitch": 57, "duration": 8, "velocity": 85}, {"time": 1438, "pitch": 61, "duration": 8, "velocity": 75}, {"time": 1438, "pitch": 66, "duration": 8, "velocity": 78}, {"time": 1438, "pitch": 69, "duration": 8, "velocity": 83}, {"time": 1447, "pitch": 49, "duration": 3, "velocity": 46}, {"time": 1450, "pitch": 57, "duration": 3, "velocity": 91}, {"time": 1450, "pitch": 61, "duration": 5, "velocity": 85}, {"time": 1450, "pitch": 66, "duration": 3, "velocity": 74}, {"time": 1450, "pitch": 69, "duration": 3, "velocity": 89}, {"time": 1453, "pitch": 49, "duration": 5, "velocity": 62}, {"time": 1456, "pitch": 55, "duration": 1, "velocity": 64}, {"time": 1456, "pitch": 67, "duration": 1, "velocity": 68}, {"time": 1459, "pitch": 37, "duration": 1, "velocity": 53}, {"time": 1462, "pitch": 35, "duration": 19, "velocity": 61}, {"time": 1462, "pitch": 47, "duration": 7, "velocity": 54}, {"time": 1462, "pitch": 59, "duration": 8, "velocity": 79}, {"time": 1462, "pitch": 62, "duration": 8, "velocity": 67}, {"time": 1462, "pitch": 66, "duration": 8, "velocity": 75}, {"time": 1471, "pitch": 47, "duration": 4, "velocity": 62}, {"time": 1474, "pitch": 59, "duration": 7, "velocity": 95}, {"time": 1474, "pitch": 62, "duration": 7, "velocity": 90}, {"time": 1474, "pitch": 66, "duration": 7, "velocity": 92}, {"time": 1480, "pitch": 47, "duration": 3, "velocity": 62}, {"time": 1486, "pitch": 33, "duration": 15, "velocity": 72}, {"time": 1486, "pitch": 45, "duration": 6, "velocity": 67}, {"time": 1486, "pitch": 57, "duration": 8, "velocity": 80}, {"time": 1486, "pitch": 60, "duration": 8, "velocity": 79}, {"time": 1486, "pitch": 64, "duration": 8, "velocity": 68}, {"time": 1495, "pitch": 45, "duration": 4, "velocity": 79}, {"time": 1498, "pitch": 57, "duration": 5, "velocity": 97}, {"time": 1498, "pitch": 60, "duration": 6, "velocity": 97}, {"time": 1498, "pitch": 64, "duration": 5, "velocity": 90}, {"time": 1501, "pitch": 45, "duration": 3, "velocity": 45}, {"time": 1504, "pitch": 33, "duration": 1, "velocity": 67}, {"time": 1510, "pitch": 40, "duration": 14, "velocity": 65}, {"time": 1510, "pitch": 52, "duration": 6, "velocity": 59}, {"time": 1510, "pitch": 55, "duration": 8, "velocity": 85}, {"time": 1510, "pitch": 59, "duration": 8, "velocity": 76}, {"time": 1510, "pitch": 64, "duration": 8, "velocity": 75}, {"time": 1519, "pitch": 52, "duration": 3, "velocity": 68}, {"time": 1522, "pitch": 55, "duration": 6, "velocity": 94}, {"time": 1522, "pitch": 59, "duration": 9, "velocity": 92}, {"time": 1522, "pitch": 64, "duration": 8, "velocity": 90}, {"time": 1525, "pitch": 52, "duration": 3, "velocity": 72}, {"time": 1528, "pitch": 40, "duration": 5, "velocity": 67}, {"time": 1531, "pitch": 52, "duration": 9, "velocity": 77}, {"time": 1534, "pitch": 45, "duration": 15, "velocity": 76}, {"time": 1534, "pitch": 57, "duration": 9, "velocity": 83}, {"time": 1534, "pitch": 61, "duration": 9, "velocity": 77}, {"time": 1534, "pitch": 64, "duration": 9, "velocity": 77}, {"time": 1543, "pitch": 52, "duration": 3, "velocity": 75}, {"time": 1546, "pitch": 57, "duration": 3, "velocity": 87}, {"time": 1546, "pitch": 61, "duration": 2, "velocity": 76}, {"time": 1546, "pitch": 64, "duration": 2, "velocity": 83}, {"time": 1549, "pitch": 52, "duration": 4, "velocity": 71}, {"time": 1552, "pitch": 45, "duration": 1, "velocity": 57}, {"time": 1552, "pitch": 57, "duration": 1, "velocity": 68}, {"time": 1552, "pitch": 61, "duration": 1, "velocity": 64}, {"time": 1552, "pitch": 66, "duration": 1, "velocity": 79}, {"time": 1555, "pitch": 57, "duration": 1, "velocity": 42}, {"time": 1555, "pitch": 61, "duration": 1, "velocity": 50}, {"time": 1555, "pitch": 67, "duration": 1, "velocity": 68}, {"time": 1558, "pitch": 42, "duration": 16, "velocity": 62}, {"time": 1558, "pitch": 54, "duration": 8, "velocity": 67}, {"time": 1558, "pitch": 57, "duration": 9, "velocity": 65}, {"time": 1558, "pitch": 61, "duration": 9, "velocity": 53}, {"time": 1558, "pitch": 66, "duration": 9, "velocity": 76}, {"time": 1567, "pitch": 54, "duration": 4, "velocity": 43}, {"time": 1570, "pitch": 57, "duration": 6, "velocity": 90}, {"time": 1570, "pitch": 61, "duration": 6, "velocity": 85}, {"time": 1570, "pitch": 66, "duration": 6, "velocity": 91}, {"time": 1576, "pitch": 54, "duration": 1, "velocity": 50}, {"time": 1579, "pitch": 42, "duration": 1, "velocity": 47}, {"time": 1582, "pitch": 47, "duration": 15, "velocity": 44}, {"time": 1582, "pitch": 54, "duration": 6, "velocity": 39}, {"time": 1582, "pitch": 59, "duration": 9, "velocity": 67}, {"time": 1582, "pitch": 62, "duration": 8, "velocity": 62}, {"time": 1582, "pitch": 66, "duration": 9, "velocity": 70}, {"time": 1591, "pitch": 54, "duration": 3, "velocity": 63}, {"time": 1594, "pitch": 59, "duration": 7, "velocity": 87}, {"time": 1594, "pitch": 62, "duration": 7, "velocity": 81}, {"time": 1594, "pitch": 66, "duration": 7, "velocity": 89}, {"time": 1597, "pitch": 54, "duration": 3, "velocity": 59}, {"time": 1600, "pitch": 47, "duration": 2, "velocity": 50}, {"time": 1606, "pitch": 42, "duration": 14, "velocity": 52}, {"time": 1606, "pitch": 54, "duration": 6, "velocity": 50}, {"time": 1606, "pitch": 57, "duration": 8, "velocity": 67}, {"time": 1606, "pitch": 61, "duration": 8, "velocity": 62}, {"time": 1606, "pitch": 66, "duration": 8, "velocity": 63}, {"time": 1615, "pitch": 54, "duration": 4, "velocity": 79}, {"time": 1618, "pitch": 57, "duration": 8, "velocity": 79}, {"time": 1618, "pitch": 61, "duration": 8, "velocity": 76}, {"time": 1618, "pitch": 66, "duration": 8, "velocity": 76}, {"time": 1621, "pitch": 54, "duration": 2, "velocity": 68}, {"time": 1624, "pitch": 42, "duration": 1, "velocity": 59}, {"time": 1627, "pitch": 42, "duration": 3, "velocity": 40}, {"time": 1630, "pitch": 47, "duration": 14, "velocity": 46}, {"time": 1630, "pitch": 54, "duration": 6, "velocity": 50}, {"time": 1630, "pitch": 59, "duration": 8, "velocity": 76}, {"time": 1630, "pitch": 62, "duration": 8, "velocity": 67}, {"time": 1630, "pitch": 66, "duration": 8, "velocity": 75}, {"time": 1639, "pitch": 54, "duration": 3, "velocity": 76}, {"time": 1642, "pitch": 59, "duration": 6, "velocity": 79}, {"time": 1642, "pitch": 62, "duration": 5, "velocity": 77}, {"time": 1642, "pitch": 66, "duration": 5, "velocity": 84}, {"time": 1645, "pitch": 54, "duration": 4, "velocity": 79}, {"time": 1648, "pitch": 42, "duration": 1, "velocity": 77}, {"time": 1654, "pitch": 40, "duration": 18, "velocity": 64}, {"time": 1654, "pitch": 52, "duration": 7, "velocity": 68}, {"time": 1654, "pitch": 55, "duration": 8, "velocity": 77}, {"time": 1654, "pitch": 59, "duration": 8, "velocity": 72}, {"time": 1654, "pitch": 64, "duration": 8, "velocity": 72}, {"time": 1663, "pitch": 52, "duration": 4, "velocity": 64}, {"time": 1666, "pitch": 55, "duration": 6, "velocity": 91}, {"time": 1666, "pitch": 59, "duration": 7, "velocity": 87}, {"time": 1666, "pitch": 64, "duration": 7, "velocity": 83}, {"time": 1672, "pitch": 52, "duration": 4, "velocity": 72}, {"time": 1675, "pitch": 40, "duration": 1, "velocity": 77}, {"time": 1678, "pitch": 40, "duration": 15, "velocity": 79}, {"time": 1678, "pitch": 52, "duration": 6, "velocity": 87}, {"time": 1678, "pitch": 56, "duration": 8, "velocity": 91}, {"time": 1678, "pitch": 59, "duration": 7, "velocity": 81}, {"time": 1678, "pitch": 64, "duration": 8, "velocity": 77}, {"time": 1687, "pitch": 52, "duration": 4, "velocity": 79}, {"time": 1690, "pitch": 56, "duration": 5, "velocity": 95}, {"time": 1690, "pitch": 59, "duration": 4, "velocity": 85}, {"time": 1690, "pitch": 64, "duration": 6, "velocity": 88}, {"time": 1693, "pitch": 52, "duration": 6, "velocity": 58}, {"time": 1696, "pitch": 40, "duration": 4, "velocity": 88}, {"time": 1702, "pitch": 45, "duration": 39, "velocity": 72}, {"time": 1702, "pitch": 52, "duration": 7, "velocity": 72}, {"time": 1702, "pitch": 57, "duration": 7, "velocity": 88}, {"time": 1702, "pitch": 61, "duration": 8, "velocity": 83}, {"time": 1702, "pitch": 64, "duration": 8, "velocity": 80}, {"time": 1702, "pitch": 69, "duration": 8, "velocity": 84}, {"time": 1714, "pitch": 52, "duration": 4, "velocity": 68}, {"time": 1714, "pitch": 57, "duration": 6, "velocity": 88}, {"time": 1714, "pitch": 61, "duration": 5, "velocity": 81}, {"time": 1714, "pitch": 64, "duration": 6, "velocity": 80}, {"time": 1714, "pitch": 69, "duration": 5, "velocity": 83}, {"time": 1720, "pitch": 52, "duration": 4, "velocity": 53}, {"time": 1723, "pitch": 57, "duration": 4, "velocity": 94}, {"time": 1723, "pitch": 61, "duration": 6, "velocity": 97}, {"time": 1729, "pitch": 52, "duration": 3, "velocity": 72}, {"time": 1732, "pitch": 57, "duration": 2, "velocity": 79}, {"time": 1735, "pitch": 52, "duration": 3, "velocity": 72}, {"time": 1738, "pitch": 59, "duration": 3, "velocity": 106}, {"time": 1741, "pitch": 52, "duration": 5, "velocity": 81}, {"time": 1744, "pitch": 61, "duration": 1, "velocity": 92}, {"time": 1747, "pitch": 45, "duration": 1, "velocity": 79}, {"time": 1748, "pitch": 43, "duration": 20, "velocity": 70}, {"time": 1748, "pitch": 62, "duration": 23, "velocity": 72}, {"time": 1748, "pitch": 74, "duration": 11, "velocity": 80}, {"time": 1748, "pitch": 79, "duration": 11, "velocity": 72}, {"time": 1748, "pitch": 83, "duration": 11, "velocity": 76}, {"time": 1754, "pitch": 50, "duration": 15, "velocity": 67}, {"time": 1760, "pitch": 55, "duration": 7, "velocity": 67}, {"time": 1761, "pitch": 83, "duration": 8, "velocity": 77}, {"time": 1761, "pitch": 74, "duration": 9, "velocity": 83}, {"time": 1761, "pitch": 79, "duration": 8, "velocity": 75}, {"time": 1772, "pitch": 78, "duration": 14, "velocity": 66}, {"time": 1772, "pitch": 42, "duration": 23, "velocity": 71}, {"time": 1772, "pitch": 74, "duration": 14, "velocity": 70}, {"time": 1772, "pitch": 81, "duration": 14, "velocity": 69}, {"time": 1772, "pitch": 61, "duration": 8, "velocity": 67}, {"time": 1778, "pitch": 57, "duration": 17, "velocity": 71}, {"time": 1784, "pitch": 49, "duration": 11, "velocity": 57}, {"time": 1784, "pitch": 61, "duration": 11, "velocity": 71}, {"time": 1796, "pitch": 67, "duration": 10, "velocity": 62}, {"time": 1796, "pitch": 74, "duration": 10, "velocity": 73}, {"time": 1796, "pitch": 71, "duration": 10, "velocity": 71}, {"time": 1796, "pitch": 59, "duration": 12, "velocity": 69}, {"time": 1796, "pitch": 55, "duration": 7, "velocity": 66}, {"time": 1796, "pitch": 43, "duration": 7, "velocity": 82}, {"time": 1808, "pitch": 45, "duration": 6, "velocity": 81}, {"time": 1808, "pitch": 57, "duration": 5, "velocity": 71}, {"time": 1808, "pitch": 61, "duration": 6, "velocity": 76}, {"time": 1808, "pitch": 67, "duration": 10, "velocity": 72}, {"time": 1808, "pitch": 74, "duration": 11, "velocity": 82}, {"time": 1808, "pitch": 71, "duration": 11, "velocity": 75}, {"time": 1814, "pitch": 57, "duration": 8, "velocity": 76}, {"time": 1820, "pitch": 38, "duration": 24, "velocity": 83}, {"time": 1820, "pitch": 62, "duration": 4, "velocity": 77}, {"time": 1821, "pitch": 69, "duration": 22, "velocity": 71}, {"time": 1821, "pitch": 74, "duration": 22, "velocity": 83}, {"time": 1826, "pitch": 45, "duration": 9, "velocity": 57}, {"time": 1832, "pitch": 54, "duration": 11, "velocity": 77}, {"time": 1832, "pitch": 50, "duration": 11, "velocity": 83}, {"time": 1838, "pitch": 45, "duration": 5, "velocity": 69}, {"time": 1845, "pitch": 36, "duration": 1, "velocity": 79}, {"time": 1845, "pitch": 55, "duration": 1, "velocity": 83}, {"time": 1845, "pitch": 60, "duration": 4, "velocity": 81}, {"time": 1848, "pitch": 55, "duration": 6, "velocity": 74}, {"time": 1851, "pitch": 60, "duration": 3, "velocity": 76}, {"time": 1854, "pitch": 64, "duration": 7, "velocity": 84}, {"time": 1857, "pitch": 48, "duration": 4, "velocity": 84}, {"time": 1860, "pitch": 55, "duration": 4, "velocity": 83}, {"time": 1863, "pitch": 60, "duration": 3, "velocity": 81}, {"time": 1866, "pitch": 64, "duration": 2, "velocity": 83}, {"time": 1869, "pitch": 47, "duration": 12, "velocity": 85}, {"time": 1869, "pitch": 59, "duration": 1, "velocity": 81}, {"time": 1869, "pitch": 62, "duration": 3, "velocity": 87}, {"time": 1872, "pitch": 59, "duration": 6, "velocity": 79}, {"time": 1875, "pitch": 62, "duration": 3, "velocity": 79}, {"time": 1878, "pitch": 66, "duration": 3, "velocity": 84}, {"time": 1881, "pitch": 54, "duration": 3, "velocity": 70}, {"time": 1881, "pitch": 71, "duration": 4, "velocity": 84}, {"time": 1884, "pitch": 66, "duration": 3, "velocity": 92}, {"time": 1887, "pitch": 62, "duration": 3, "velocity": 85}, {"time": 1890, "pitch": 59, "duration": 1, "velocity": 83}, {"time": 1893, "pitch": 45, "duration": 15, "velocity": 84}, {"time": 1893, "pitch": 57, "duration": 3, "velocity": 79}, {"time": 1893, "pitch": 61, "duration": 6, "velocity": 81}, {"time": 1896, "pitch": 52, "duration": 11, "velocity": 81}, {"time": 1899, "pitch": 64, "duration": 3, "velocity": 84}, {"time": 1902, "pitch": 61, "duration": 3, "velocity": 86}, {"time": 1905, "pitch": 69, "duration": 4, "velocity": 84}, {"time": 1908, "pitch": 64, "duration": 4, "velocity": 84}, {"time": 1911, "pitch": 61, "duration": 4, "velocity": 74}, {"time": 1914, "pitch": 57, "duration": 1, "velocity": 69}, {"time": 1917, "pitch": 45, "duration": 17, "velocity": 84}, {"time": 1917, "pitch": 57, "duration": 21, "velocity": 68}, {"time": 1917, "pitch": 61, "duration": 22, "velocity": 72}, {"time": 1942, "pitch": 38, "duration": 25, "velocity": 51}, {"time": 1942, "pitch": 50, "duration": 6, "velocity": 49}, {"time": 1942, "pitch": 57, "duration": 7, "velocity": 46}, {"time": 1942, "pitch": 62, "duration": 7, "velocity": 53}, {"time": 1942, "pitch": 66, "duration": 7, "velocity": 57}, {"time": 1954, "pitch": 57, "duration": 5, "velocity": 45}, {"time": 1954, "pitch": 62, "duration": 5, "velocity": 44}, {"time": 1954, "pitch": 66, "duration": 5, "velocity": 55}, {"time": 1966, "pitch": 57, "duration": 7, "velocity": 43}, {"time": 1966, "pitch": 62, "duration": 7, "velocity": 48}, {"time": 1966, "pitch": 66, "duration": 7, "velocity": 55}, {"time": 1972, "pitch": 38, "duration": 8, "velocity": 57}, {"time": 1978, "pitch": 57, "duration": 7, "velocity": 63}, {"time": 1978, "pitch": 62, "duration": 7, "velocity": 62}, {"time": 1978, "pitch": 66, "duration": 7, "velocity": 63}, {"time": 1981, "pitch": 50, "duration": 3, "velocity": 44}, {"time": 1984, "pitch": 38, "duration": 1, "velocity": 48}, {"time": 1990, "pitch": 38, "duration": 36, "velocity": 52}, {"time": 1990, "pitch": 50, "duration": 25, "velocity": 44}, {"time": 1990, "pitch": 57, "duration": 7, "velocity": 63}, {"time": 1990, "pitch": 61, "duration": 6, "velocity": 64}, {"time": 1990, "pitch": 66, "duration": 6, "velocity": 63}, {"time": 2002, "pitch": 57, "duration": 5, "velocity": 47}, {"time": 2002, "pitch": 61, "duration": 5, "velocity": 58}, {"time": 2002, "pitch": 66, "duration": 5, "velocity": 58}, {"time": 2014, "pitch": 57, "duration": 6, "velocity": 47}, {"time": 2014, "pitch": 61, "duration": 7, "velocity": 43}, {"time": 2014, "pitch": 66, "duration": 6, "velocity": 51}, {"time": 2020, "pitch": 50, "duration": 12, "velocity": 51}, {"time": 2026, "pitch": 57, "duration": 6, "velocity": 64}, {"time": 2026, "pitch": 61, "duration": 6, "velocity": 65}, {"time": 2026, "pitch": 66, "duration": 6, "velocity": 64}, {"time": 2032, "pitch": 38, "duration": 1, "velocity": 67}, {"time": 2038, "pitch": 38, "duration": 36, "velocity": 56}, {"time": 2038, "pitch": 50, "duration": 26, "velocity": 57}, {"time": 2038, "pitch": 57, "duration": 7, "velocity": 62}, {"time": 2038, "pitch": 60, "duration": 7, "velocity": 62}, {"time": 2038, "pitch": 66, "duration": 7, "velocity": 71}, {"time": 2050, "pitch": 57, "duration": 5, "velocity": 51}, {"time": 2050, "pitch": 60, "duration": 5, "velocity": 51}, {"time": 2050, "pitch": 66, "duration": 5, "velocity": 53}, {"time": 2062, "pitch": 57, "duration": 6, "velocity": 47}, {"time": 2062, "pitch": 60, "duration": 6, "velocity": 48}, {"time": 2062, "pitch": 66, "duration": 6, "velocity": 51}, {"time": 2068, "pitch": 50, "duration": 6, "velocity": 57}, {"time": 2074, "pitch": 57, "duration": 7, "velocity": 69}, {"time": 2074, "pitch": 60, "duration": 7, "velocity": 65}, {"time": 2074, "pitch": 66, "duration": 7, "velocity": 68}, {"time": 2077, "pitch": 50, "duration": 6, "velocity": 62}, {"time": 2080, "pitch": 38, "duration": 7, "velocity": 67}, {"time": 2086, "pitch": 43, "duration": 40, "velocity": 54}, {"time": 2086, "pitch": 59, "duration": 7, "velocity": 56}, {"time": 2086, "pitch": 62, "duration": 7, "velocity": 57}, {"time": 2086, "pitch": 67, "duration": 7, "velocity": 62}, {"time": 2098, "pitch": 55, "duration": 13, "velocity": 36}, {"time": 2098, "pitch": 59, "duration": 5, "velocity": 45}, {"time": 2098, "pitch": 62, "duration": 5, "velocity": 53}, {"time": 2098, "pitch": 67, "duration": 4, "velocity": 52}, {"time": 2110, "pitch": 59, "duration": 6, "velocity": 48}, {"time": 2110, "pitch": 62, "duration": 7, "velocity": 51}, {"time": 2110, "pitch": 67, "duration": 6, "velocity": 45}, {"time": 2119, "pitch": 55, "duration": 3, "velocity": 62}, {"time": 2122, "pitch": 59, "duration": 3, "velocity": 77}, {"time": 2122, "pitch": 62, "duration": 3, "velocity": 72}, {"time": 2122, "pitch": 67, "duration": 3, "velocity": 82}, {"time": 2125, "pitch": 55, "duration": 4, "velocity": 63}, {"time": 2128, "pitch": 59, "duration": 1, "velocity": 47}, {"time": 2128, "pitch": 62, "duration": 1, "velocity": 53}, {"time": 2128, "pitch": 69, "duration": 1, "velocity": 61}, {"time": 2131, "pitch": 43, "duration": 1, "velocity": 36}, {"time": 2134, "pitch": 42, "duration": 15, "velocity": 53}, {"time": 2134, "pitch": 54, "duration": 7, "velocity": 57}, {"time": 2134, "pitch": 57, "duration": 8, "velocity": 56}, {"time": 2134, "pitch": 61, "duration": 8, "velocity": 53}, {"time": 2134, "pitch": 66, "duration": 8, "velocity": 71}, {"time": 2143, "pitch": 54, "duration": 2, "velocity": 24}, {"time": 2146, "pitch": 57, "duration": 5, "velocity": 76}, {"time": 2146, "pitch": 61, "duration": 6, "velocity": 75}, {"time": 2146, "pitch": 66, "duration": 6, "velocity": 73}, {"time": 2152, "pitch": 54, "duration": 1, "velocity": 52}, {"time": 2158, "pitch": 47, "duration": 14, "velocity": 43}, {"time": 2158, "pitch": 54, "duration": 5, "velocity": 32}, {"time": 2158, "pitch": 59, "duration": 8, "velocity": 53}, {"time": 2158, "pitch": 62, "duration": 8, "velocity": 52}, {"time": 2158, "pitch": 66, "duration": 8, "velocity": 58}, {"time": 2167, "pitch": 54, "duration": 3, "velocity": 50}, {"time": 2170, "pitch": 59, "duration": 6, "velocity": 77}, {"time": 2170, "pitch": 62, "duration": 7, "velocity": 76}, {"time": 2170, "pitch": 66, "duration": 6, "velocity": 83}, {"time": 2173, "pitch": 54, "duration": 3, "velocity": 57}, {"time": 2176, "pitch": 47, "duration": 1, "velocity": 59}, {"time": 2179, "pitch": 45, "duration": 1, "velocity": 41}, {"time": 2182, "pitch": 42, "duration": 14, "velocity": 58}, {"time": 2182, "pitch": 54, "duration": 6, "velocity": 56}, {"time": 2182, "pitch": 57, "duration": 7, "velocity": 64}, {"time": 2182, "pitch": 61, "duration": 8, "velocity": 63}, {"time": 2182, "pitch": 66, "duration": 7, "velocity": 67}, {"time": 2191, "pitch": 54, "duration": 3, "velocity": 57}, {"time": 2194, "pitch": 57, "duration": 7, "velocity": 75}, {"time": 2194, "pitch": 61, "duration": 7, "velocity": 74}, {"time": 2194, "pitch": 66, "duration": 7, "velocity": 76}, {"time": 2197, "pitch": 54, "duration": 1, "velocity": 55}, {"time": 2200, "pitch": 42, "duration": 5, "velocity": 49}, {"time": 2203, "pitch": 54, "duration": 1, "velocity": 64}, {"time": 2206, "pitch": 47, "duration": 15, "velocity": 54}, {"time": 2206, "pitch": 54, "duration": 6, "velocity": 21}, {"time": 2206, "pitch": 59, "duration": 8, "velocity": 62}, {"time": 2206, "pitch": 62, "duration": 8, "velocity": 63}, {"time": 2206, "pitch": 66, "duration": 8, "velocity": 63}, {"time": 2215, "pitch": 54, "duration": 3, "velocity": 47}, {"time": 2218, "pitch": 59, "duration": 6, "velocity": 75}, {"time": 2218, "pitch": 62, "duration": 5, "velocity": 68}, {"time": 2218, "pitch": 66, "duration": 5, "velocity": 79}, {"time": 2221, "pitch": 54, "duration": 1, "velocity": 47}, {"time": 2224, "pitch": 42, "duration": 1, "velocity": 50}, {"time": 2230, "pitch": 40, "duration": 16, "velocity": 63}, {"time": 2230, "pitch": 52, "duration": 12, "velocity": 63}, {"time": 2230, "pitch": 55, "duration": 7, "velocity": 65}, {"time": 2230, "pitch": 59, "duration": 8, "velocity": 62}, {"time": 2230, "pitch": 64, "duration": 7, "velocity": 63}, {"time": 2242, "pitch": 55, "duration": 5, "velocity": 71}, {"time": 2242, "pitch": 59, "duration": 5, "velocity": 72}, {"time": 2242, "pitch": 64, "duration": 6, "velocity": 67}, {"time": 2248, "pitch": 52, "duration": 4, "velocity": 69}, {"time": 2251, "pitch": 40, "duration": 4, "velocity": 76}, {"time": 2254, "pitch": 40, "duration": 1, "velocity": 76}, {"time": 2254, "pitch": 52, "duration": 7, "velocity": 43}, {"time": 2254, "pitch": 55, "duration": 8, "velocity": 76}, {"time": 2254, "pitch": 59, "duration": 8, "velocity": 79}, {"time": 2254, "pitch": 64, "duration": 8, "velocity": 83}, {"time": 2263, "pitch": 52, "duration": 4, "velocity": 61}, {"time": 2266, "pitch": 55, "duration": 7, "velocity": 76}, {"time": 2266, "pitch": 59, "duration": 6, "velocity": 72}, {"time": 2266, "pitch": 64, "duration": 7, "velocity": 75}, {"time": 2269, "pitch": 52, "duration": 5, "velocity": 71}, {"time": 2272, "pitch": 40, "duration": 2, "velocity": 65}, {"time": 2278, "pitch": 45, "duration": 42, "velocity": 68}, {"time": 2278, "pitch": 52, "duration": 7, "velocity": 64}, {"time": 2278, "pitch": 57, "duration": 8, "velocity": 83}, {"time": 2278, "pitch": 61, "duration": 8, "velocity": 83}, {"time": 2278, "pitch": 64, "duration": 8, "velocity": 83}, {"time": 2287, "pitch": 52, "duration": 7, "velocity": 63}, {"time": 2290, "pitch": 57, "duration": 6, "velocity": 77}, {"time": 2290, "pitch": 64, "duration": 6, "velocity": 56}, {"time": 2296, "pitch": 52, "duration": 5, "velocity": 48}, {"time": 2302, "pitch": 57, "duration": 6, "velocity": 88}, {"time": 2302, "pitch": 67, "duration": 6, "velocity": 92}, {"time": 2308, "pitch": 52, "duration": 4, "velocity": 46}, {"time": 2314, "pitch": 57, "duration": 3, "velocity": 81}, {"time": 2314, "pitch": 66, "duration": 3, "velocity": 83}, {"time": 2317, "pitch": 52, "duration": 2, "velocity": 57}, {"time": 2320, "pitch": 57, "duration": 1, "velocity": 75}, {"time": 2320, "pitch": 67, "duration": 1, "velocity": 76}, {"time": 2326, "pitch": 38, "duration": 38, "velocity": 62}, {"time": 2326, "pitch": 50, "duration": 6, "velocity": 55}, {"time": 2326, "pitch": 57, "duration": 7, "velocity": 74}, {"time": 2326, "pitch": 62, "duration": 7, "velocity": 67}, {"time": 2326, "pitch": 66, "duration": 7, "velocity": 70}, {"time": 2326, "pitch": 69, "duration": 7, "velocity": 71}, {"time": 2335, "pitch": 50, "duration": 4, "velocity": 50}, {"time": 2338, "pitch": 57, "duration": 5, "velocity": 88}, {"time": 2338, "pitch": 62, "duration": 5, "velocity": 84}, {"time": 2338, "pitch": 66, "duration": 5, "velocity": 78}, {"time": 2338, "pitch": 69, "duration": 5, "velocity": 82}, {"time": 2344, "pitch": 50, "duration": 7, "velocity": 47}, {"time": 2350, "pitch": 57, "duration": 6, "velocity": 72}, {"time": 2350, "pitch": 62, "duration": 6, "velocity": 57}, {"time": 2350, "pitch": 66, "duration": 6, "velocity": 71}, {"time": 2350, "pitch": 69, "duration": 6, "velocity": 70}, {"time": 2356, "pitch": 50, "duration": 6, "velocity": 51}, {"time": 2362, "pitch": 57, "duration": 6, "velocity": 85}, {"time": 2362, "pitch": 62, "duration": 6, "velocity": 75}, {"time": 2362, "pitch": 66, "duration": 6, "velocity": 73}, {"time": 2362, "pitch": 69, "duration": 6, "velocity": 79}, {"time": 2365, "pitch": 50, "duration": 6, "velocity": 63}, {"time": 2368, "pitch": 38, "duration": 1, "velocity": 75}, {"time": 2371, "pitch": 38, "duration": 1, "velocity": 62}, {"time": 2374, "pitch": 37, "duration": 39, "velocity": 67}, {"time": 2374, "pitch": 49, "duration": 7, "velocity": 71}, {"time": 2374, "pitch": 57, "duration": 7, "velocity": 72}, {"time": 2374, "pitch": 61, "duration": 8, "velocity": 74}, {"time": 2374, "pitch": 66, "duration": 7, "velocity": 71}, {"time": 2374, "pitch": 69, "duration": 7, "velocity": 74}, {"time": 2383, "pitch": 49, "duration": 5, "velocity": 37}, {"time": 2386, "pitch": 57, "duration": 6, "velocity": 80}, {"time": 2386, "pitch": 61, "duration": 6, "velocity": 77}, {"time": 2386, "pitch": 66, "duration": 6, "velocity": 75}, {"time": 2386, "pitch": 69, "duration": 6, "velocity": 75}, {"time": 2392, "pitch": 49, "duration": 6, "velocity": 45}, {"time": 2398, "pitch": 57, "duration": 8, "velocity": 85}, {"time": 2398, "pitch": 61, "duration": 8, "velocity": 75}, {"time": 2398, "pitch": 66, "duration": 8, "velocity": 78}, {"time": 2398, "pitch": 69, "duration": 8, "velocity": 83}, {"time": 2407, "pitch": 49, "duration": 3, "velocity": 46}, {"time": 2410, "pitch": 57, "duration": 3, "velocity": 91}, {"time": 2410, "pitch": 61, "duration": 5, "velocity": 85}, {"time": 2410, "pitch": 66, "duration": 3, "velocity": 74}, {"time": 2410, "pitch": 69, "duration": 3, "velocity": 89}, {"time": 2413, "pitch": 49, "duration": 5, "velocity": 62}, {"time": 2416, "pitch": 55, "duration": 1, "velocity": 64}, {"time": 2416, "pitch": 67, "duration": 1, "velocity": 68}, {"time": 2419, "pitch": 37, "duration": 1, "velocity": 53}, {"time": 2422, "pitch": 35, "duration": 19, "velocity": 61}, {"time": 2422, "pitch": 47, "duration": 7, "velocity": 54}, {"time": 2422, "pitch": 59, "duration": 8, "velocity": 79}, {"time": 2422, "pitch": 62, "duration": 8, "velocity": 67}, {"time": 2422, "pitch": 66, "duration": 8, "velocity": 75}, {"time": 2431, "pitch": 47, "duration": 4, "velocity": 62}, {"time": 2434, "pitch": 59, "duration": 7, "velocity": 95}, {"time": 2434, "pitch": 62, "duration": 7, "velocity": 90}, {"time": 2434, "pitch": 66, "duration": 7, "velocity": 92}, {"time": 2440, "pitch": 47, "duration": 3, "velocity": 62}, {"time": 2446, "pitch": 33, "duration": 16, "velocity": 72}, {"time": 2446, "pitch": 45, "duration": 7, "velocity": 67}, {"time": 2446, "pitch": 57, "duration": 8, "velocity": 80}, {"time": 2446, "pitch": 60, "duration": 8, "velocity": 79}, {"time": 2446, "pitch": 64, "duration": 8, "velocity": 68}, {"time": 2455, "pitch": 45, "duration": 4, "velocity": 79}, {"time": 2458, "pitch": 57, "duration": 6, "velocity": 97}, {"time": 2458, "pitch": 60, "duration": 6, "velocity": 97}, {"time": 2458, "pitch": 64, "duration": 5, "velocity": 90}, {"time": 2461, "pitch": 45, "duration": 4, "velocity": 45}, {"time": 2464, "pitch": 33, "duration": 1, "velocity": 67}, {"time": 2470, "pitch": 40, "duration": 14, "velocity": 65}, {"time": 2470, "pitch": 52, "duration": 6, "velocity": 59}, {"time": 2470, "pitch": 55, "duration": 8, "velocity": 85}, {"time": 2470, "pitch": 59, "duration": 8, "velocity": 76}, {"time": 2470, "pitch": 64, "duration": 8, "velocity": 75}, {"time": 2479, "pitch": 52, "duration": 3, "velocity": 68}, {"time": 2482, "pitch": 55, "duration": 6, "velocity": 94}, {"time": 2482, "pitch": 59, "duration": 9, "velocity": 92}, {"time": 2482, "pitch": 64, "duration": 8, "velocity": 90}, {"time": 2485, "pitch": 52, "duration": 3, "velocity": 72}, {"time": 2488, "pitch": 40, "duration": 5, "velocity": 67}, {"time": 2491, "pitch": 52, "duration": 9, "velocity": 77}, {"time": 2494, "pitch": 45, "duration": 15, "velocity": 76}, {"time": 2494, "pitch": 57, "duration": 9, "velocity": 83}, {"time": 2494, "pitch": 61, "duration": 9, "velocity": 77}, {"time": 2494, "pitch": 64, "duration": 9, "velocity": 77}, {"time": 2503, "pitch": 52, "duration": 3, "velocity": 75}, {"time": 2506, "pitch": 57, "duration": 3, "velocity": 87}, {"time": 2506, "pitch": 61, "duration": 2, "velocity": 76}, {"time": 2506, "pitch": 64, "duration": 2, "velocity": 83}, {"time": 2509, "pitch": 52, "duration": 4, "velocity": 71}, {"time": 2512, "pitch": 45, "duration": 1, "velocity": 57}, {"time": 2512, "pitch": 57, "duration": 1, "velocity": 68}, {"time": 2512, "pitch": 61, "duration": 1, "velocity": 64}, {"time": 2512, "pitch": 66, "duration": 1, "velocity": 79}, {"time": 2515, "pitch": 57, "duration": 1, "velocity": 42}, {"time": 2515, "pitch": 61, "duration": 1, "velocity": 50}, {"time": 2515, "pitch": 67, "duration": 1, "velocity": 68}, {"time": 2518, "pitch": 42, "duration": 16, "velocity": 62}, {"time": 2518, "pitch": 54, "duration": 8, "velocity": 67}, {"time": 2518, "pitch": 57, "duration": 9, "velocity": 65}, {"time": 2518, "pitch": 61, "duration": 9, "velocity": 53}, {"time": 2518, "pitch": 66, "duration": 9, "velocity": 76}, {"time": 2527, "pitch": 54, "duration": 4, "velocity": 43}, {"time": 2530, "pitch": 57, "duration": 6, "velocity": 90}, {"time": 2530, "pitch": 61, "duration": 6, "velocity": 85}, {"time": 2530, "pitch": 66, "duration": 6, "velocity": 91}, {"time": 2536, "pitch": 54, "duration": 1, "velocity": 50}, {"time": 2539, "pitch": 42, "duration": 1, "velocity": 47}, {"time": 2542, "pitch": 47, "duration": 15, "velocity": 44}, {"time": 2542, "pitch": 54, "duration": 6, "velocity": 39}, {"time": 2542, "pitch": 59, "duration": 9, "velocity": 67}, {"time": 2542, "pitch": 62, "duration": 9, "velocity": 62}, {"time": 2542, "pitch": 66, "duration": 9, "velocity": 70}, {"time": 2551, "pitch": 54, "duration": 3, "velocity": 63}, {"time": 2554, "pitch": 59, "duration": 7, "velocity": 87}, {"time": 2554, "pitch": 62, "duration": 7, "velocity": 81}, {"time": 2554, "pitch": 66, "duration": 7, "velocity": 89}, {"time": 2557, "pitch": 54, "duration": 3, "velocity": 59}, {"time": 2560, "pitch": 47, "duration": 2, "velocity": 50}, {"time": 2566, "pitch": 42, "duration": 14, "velocity": 52}, {"time": 2566, "pitch": 54, "duration": 6, "velocity": 50}, {"time": 2566, "pitch": 57, "duration": 8, "velocity": 67}, {"time": 2566, "pitch": 61, "duration": 8, "velocity": 62}, {"time": 2566, "pitch": 66, "duration": 8, "velocity": 63}, {"time": 2575, "pitch": 54, "duration": 4, "velocity": 79}, {"time": 2578, "pitch": 57, "duration": 8, "velocity": 79}, {"time": 2578, "pitch": 61, "duration": 8, "velocity": 76}, {"time": 2578, "pitch": 66, "duration": 8, "velocity": 76}, {"time": 2581, "pitch": 54, "duration": 2, "velocity": 68}, {"time": 2584, "pitch": 42, "duration": 1, "velocity": 59}, {"time": 2587, "pitch": 42, "duration": 3, "velocity": 40}, {"time": 2590, "pitch": 47, "duration": 14, "velocity": 46}, {"time": 2590, "pitch": 54, "duration": 6, "velocity": 50}, {"time": 2590, "pitch": 59, "duration": 9, "velocity": 76}, {"time": 2590, "pitch": 62, "duration": 9, "velocity": 67}, {"time": 2590, "pitch": 66, "duration": 9, "velocity": 75}, {"time": 2599, "pitch": 54, "duration": 3, "velocity": 76}, {"time": 2602, "pitch": 59, "duration": 6, "velocity": 79}, {"time": 2602, "pitch": 62, "duration": 5, "velocity": 77}, {"time": 2602, "pitch": 66, "duration": 5, "velocity": 84}, {"time": 2605, "pitch": 54, "duration": 4, "velocity": 79}, {"time": 2608, "pitch": 42, "duration": 1, "velocity": 77}, {"time": 2614, "pitch": 40, "duration": 19, "velocity": 64}, {"time": 2614, "pitch": 52, "duration": 7, "velocity": 68}, {"time": 2614, "pitch": 55, "duration": 8, "velocity": 77}, {"time": 2614, "pitch": 59, "duration": 8, "velocity": 72}, {"time": 2614, "pitch": 64, "duration": 8, "velocity": 72}, {"time": 2623, "pitch": 52, "duration": 4, "velocity": 64}, {"time": 2626, "pitch": 55, "duration": 6, "velocity": 91}, {"time": 2626, "pitch": 59, "duration": 7, "velocity": 87}, {"time": 2626, "pitch": 64, "duration": 7, "velocity": 83}, {"time": 2632, "pitch": 52, "duration": 4, "velocity": 72}, {"time": 2635, "pitch": 40, "duration": 1, "velocity": 77}, {"time": 2638, "pitch": 40, "duration": 15, "velocity": 79}, {"time": 2638, "pitch": 52, "duration": 6, "velocity": 87}, {"time": 2638, "pitch": 56, "duration": 8, "velocity": 91}, {"time": 2638, "pitch": 59, "duration": 7, "velocity": 81}, {"time": 2638, "pitch": 64, "duration": 8, "velocity": 77}, {"time": 2647, "pitch": 52, "duration": 4, "velocity": 79}, {"time": 2650, "pitch": 56, "duration": 5, "velocity": 95}, {"time": 2650, "pitch": 59, "duration": 4, "velocity": 85}, {"time": 2650, "pitch": 64, "duration": 6, "velocity": 88}, {"time": 2653, "pitch": 52, "duration": 6, "velocity": 58}, {"time": 2656, "pitch": 40, "duration": 4, "velocity": 88}, {"time": 2662, "pitch": 45, "duration": 40, "velocity": 72}, {"time": 2662, "pitch": 52, "duration": 7, "velocity": 72}, {"time": 2662, "pitch": 57, "duration": 8, "velocity": 88}, {"time": 2662, "pitch": 61, "duration": 8, "velocity": 83}, {"time": 2662, "pitch": 64, "duration": 8, "velocity": 80}, {"time": 2662, "pitch": 69, "duration": 8, "velocity": 84}, {"time": 2674, "pitch": 52, "duration": 4, "velocity": 68}, {"time": 2674, "pitch": 57, "duration": 6, "velocity": 88}, {"time": 2674, "pitch": 61, "duration": 5, "velocity": 81}, {"time": 2674, "pitch": 64, "duration": 6, "velocity": 80}, {"time": 2674, "pitch": 69, "duration": 6, "velocity": 83}, {"time": 2680, "pitch": 52, "duration": 4, "velocity": 53}, {"time": 2683, "pitch": 57, "duration": 4, "velocity": 94}, {"time": 2683, "pitch": 61, "duration": 6, "velocity": 97}, {"time": 2689, "pitch": 52, "duration": 3, "velocity": 72}, {"time": 2692, "pitch": 57, "duration": 2, "velocity": 79}, {"time": 2695, "pitch": 52, "duration": 3, "velocity": 72}, {"time": 2698, "pitch": 59, "duration": 3, "velocity": 106}, {"time": 2701, "pitch": 52, "duration": 6, "velocity": 81}, {"time": 2704, "pitch": 61, "duration": 1, "velocity": 92}, {"time": 2707, "pitch": 45, "duration": 1, "velocity": 79}, {"time": 2710, "pitch": 38, "duration": 38, "velocity": 62}, {"time": 2710, "pitch": 50, "duration": 6, "velocity": 55}, {"time": 2710, "pitch": 57, "duration": 7, "velocity": 74}, {"time": 2710, "pitch": 62, "duration": 7, "velocity": 67}, {"time": 2710, "pitch": 66, "duration": 7, "velocity": 70}, {"time": 2710, "pitch": 69, "duration": 7, "velocity": 71}, {"time": 2719, "pitch": 50, "duration": 4, "velocity": 50}, {"time": 2722, "pitch": 57, "duration": 5, "velocity": 88}, {"time": 2722, "pitch": 62, "duration": 5, "velocity": 84}, {"time": 2722, "pitch": 66, "duration": 5, "velocity": 78}, {"time": 2722, "pitch": 69, "duration": 5, "velocity": 82}, {"time": 2728, "pitch": 50, "duration": 7, "velocity": 47}, {"time": 2734, "pitch": 57, "duration": 6, "velocity": 72}, {"time": 2734, "pitch": 62, "duration": 6, "velocity": 57}, {"time": 2734, "pitch": 66, "duration": 6, "velocity": 71}, {"time": 2734, "pitch": 69, "duration": 6, "velocity": 70}, {"time": 2740, "pitch": 50, "duration": 6, "velocity": 51}, {"time": 2746, "pitch": 57, "duration": 6, "velocity": 85}, {"time": 2746, "pitch": 62, "duration": 6, "velocity": 75}, {"time": 2746, "pitch": 66, "duration": 6, "velocity": 73}, {"time": 2746, "pitch": 69, "duration": 6, "velocity": 79}, {"time": 2749, "pitch": 50, "duration": 6, "velocity": 63}, {"time": 2752, "pitch": 38, "duration": 1, "velocity": 75}, {"time": 2755, "pitch": 38, "duration": 1, "velocity": 62}, {"time": 2758, "pitch": 37, "duration": 39, "velocity": 67}, {"time": 2758, "pitch": 49, "duration": 7, "velocity": 71}, {"time": 2758, "pitch": 57, "duration": 7, "velocity": 72}, {"time": 2758, "pitch": 61, "duration": 8, "velocity": 74}, {"time": 2758, "pitch": 66, "duration": 7, "velocity": 71}, {"time": 2758, "pitch": 69, "duration": 7, "velocity": 74}, {"time": 2767, "pitch": 49, "duration": 5, "velocity": 37}, {"time": 2770, "pitch": 57, "duration": 5, "velocity": 80}, {"time": 2770, "pitch": 61, "duration": 6, "velocity": 77}, {"time": 2770, "pitch": 66, "duration": 6, "velocity": 75}, {"time": 2770, "pitch": 69, "duration": 6, "velocity": 75}, {"time": 2776, "pitch": 49, "duration": 6, "velocity": 45}, {"time": 2782, "pitch": 57, "duration": 8, "velocity": 85}, {"time": 2782, "pitch": 61, "duration": 8, "velocity": 75}, {"time": 2782, "pitch": 66, "duration": 8, "velocity": 78}, {"time": 2782, "pitch": 69, "duration": 8, "velocity": 83}, {"time": 2791, "pitch": 49, "duration": 3, "velocity": 46}, {"time": 2794, "pitch": 57, "duration": 3, "velocity": 91}, {"time": 2794, "pitch": 61, "duration": 5, "velocity": 85}, {"time": 2794, "pitch": 66, "duration": 3, "velocity": 74}, {"time": 2794, "pitch": 69, "duration": 3, "velocity": 89}, {"time": 2797, "pitch": 49, "duration": 5, "velocity": 62}, {"time": 2800, "pitch": 55, "duration": 1, "velocity": 64}, {"time": 2800, "pitch": 67, "duration": 1, "velocity": 68}, {"time": 2803, "pitch": 37, "duration": 1, "velocity": 53}, {"time": 2806, "pitch": 35, "duration": 19, "velocity": 61}, {"time": 2806, "pitch": 47, "duration": 7, "velocity": 54}, {"time": 2806, "pitch": 59, "duration": 8, "velocity": 79}, {"time": 2806, "pitch": 62, "duration": 8, "velocity": 67}, {"time": 2806, "pitch": 66, "duration": 8, "velocity": 75}, {"time": 2815, "pitch": 47, "duration": 4, "velocity": 62}, {"time": 2818, "pitch": 59, "duration": 7, "velocity": 95}, {"time": 2818, "pitch": 62, "duration": 7, "velocity": 90}, {"time": 2818, "pitch": 66, "duration": 7, "velocity": 92}, {"time": 2824, "pitch": 47, "duration": 3, "velocity": 62}, {"time": 2830, "pitch": 33, "duration": 15, "velocity": 72}, {"time": 2830, "pitch": 45, "duration": 6, "velocity": 67}, {"time": 2830, "pitch": 57, "duration": 8, "velocity": 80}, {"time": 2830, "pitch": 60, "duration": 8, "velocity": 79}, {"time": 2830, "pitch": 64, "duration": 8, "velocity": 68}, {"time": 2839, "pitch": 45, "duration": 4, "velocity": 79}, {"time": 2842, "pitch": 57, "duration": 5, "velocity": 97}, {"time": 2842, "pitch": 60, "duration": 6, "velocity": 97}, {"time": 2842, "pitch": 64, "duration": 5, "velocity": 90}, {"time": 2845, "pitch": 45, "duration": 3, "velocity": 45}, {"time": 2848, "pitch": 33, "duration": 1, "velocity": 67}, {"time": 2854, "pitch": 40, "duration": 14, "velocity": 65}, {"time": 2854, "pitch": 52, "duration": 6, "velocity": 59}, {"time": 2854, "pitch": 55, "duration": 8, "velocity": 85}, {"time": 2854, "pitch": 59, "duration": 8, "velocity": 76}, {"time": 2854, "pitch": 64, "duration": 8, "velocity": 75}, {"time": 2863, "pitch": 52, "duration": 3, "velocity": 68}, {"time": 2866, "pitch": 55, "duration": 6, "velocity": 94}, {"time": 2866, "pitch": 59, "duration": 9, "velocity": 92}, {"time": 2866, "pitch": 64, "duration": 8, "velocity": 90}, {"time": 2869, "pitch": 52, "duration": 3, "velocity": 72}, {"time": 2872, "pitch": 40, "duration": 5, "velocity": 67}, {"time": 2875, "pitch": 52, "duration": 9, "velocity": 77}, {"time": 2878, "pitch": 45, "duration": 15, "velocity": 76}, {"time": 2878, "pitch": 57, "duration": 9, "velocity": 83}, {"time": 2878, "pitch": 61, "duration": 9, "velocity": 77}, {"time": 2878, "pitch": 64, "duration": 9, "velocity": 77}, {"time": 2887, "pitch": 52, "duration": 3, "velocity": 75}, {"time": 2890, "pitch": 57, "duration": 3, "velocity": 87}, {"time": 2890, "pitch": 61, "duration": 2, "velocity": 76}, {"time": 2890, "pitch": 64, "duration": 2, "velocity": 83}, {"time": 2893, "pitch": 52, "duration": 4, "velocity": 71}, {"time": 2896, "pitch": 45, "duration": 1, "velocity": 57}, {"time": 2896, "pitch": 57, "duration": 1, "velocity": 68}, {"time": 2896, "pitch": 61, "duration": 1, "velocity": 64}, {"time": 2896, "pitch": 66, "duration": 1, "velocity": 79}, {"time": 2899, "pitch": 57, "duration": 1, "velocity": 42}, {"time": 2899, "pitch": 61, "duration": 1, "velocity": 50}, {"time": 2899, "pitch": 67, "duration": 1, "velocity": 68}, {"time": 2902, "pitch": 42, "duration": 16, "velocity": 62}, {"time": 2902, "pitch": 54, "duration": 8, "velocity": 67}, {"time": 2902, "pitch": 57, "duration": 9, "velocity": 65}, {"time": 2902, "pitch": 61, "duration": 9, "velocity": 53}, {"time": 2902, "pitch": 66, "duration": 9, "velocity": 76}, {"time": 2911, "pitch": 54, "duration": 4, "velocity": 43}, {"time": 2914, "pitch": 57, "duration": 6, "velocity": 90}, {"time": 2914, "pitch": 61, "duration": 6, "velocity": 85}, {"time": 2914, "pitch": 66, "duration": 6, "velocity": 91}, {"time": 2920, "pitch": 54, "duration": 1, "velocity": 50}, {"time": 2923, "pitch": 42, "duration": 1, "velocity": 47}, {"time": 2926, "pitch": 47, "duration": 15, "velocity": 44}, {"time": 2926, "pitch": 54, "duration": 6, "velocity": 39}, {"time": 2926, "pitch": 59, "duration": 9, "velocity": 67}, {"time": 2926, "pitch": 62, "duration": 8, "velocity": 62}, {"time": 2926, "pitch": 66, "duration": 9, "velocity": 70}, {"time": 2935, "pitch": 54, "duration": 3, "velocity": 63}, {"time": 2938, "pitch": 59, "duration": 7, "velocity": 87}, {"time": 2938, "pitch": 62, "duration": 7, "velocity": 81}, {"time": 2938, "pitch": 66, "duration": 7, "velocity": 89}, {"time": 2941, "pitch": 54, "duration": 3, "velocity": 59}, {"time": 2944, "pitch": 47, "duration": 2, "velocity": 50}, {"time": 2950, "pitch": 42, "duration": 14, "velocity": 52}, {"time": 2950, "pitch": 54, "duration": 6, "velocity": 50}, {"time": 2950, "pitch": 57, "duration": 8, "velocity": 67}, {"time": 2950, "pitch": 61, "duration": 8, "velocity": 62}, {"time": 2950, "pitch": 66, "duration": 8, "velocity": 63}, {"time": 2959, "pitch": 54, "duration": 4, "velocity": 79}, {"time": 2962, "pitch": 57, "duration": 8, "velocity": 79}, {"time": 2962, "pitch": 61, "duration": 8, "velocity": 76}, {"time": 2962, "pitch": 66, "duration": 8, "velocity": 76}, {"time": 2965, "pitch": 54, "duration": 2, "velocity": 68}, {"time": 2968, "pitch": 42, "duration": 1, "velocity": 59}, {"time": 2971, "pitch": 42, "duration": 3, "velocity": 40}, {"time": 2974, "pitch": 47, "duration": 14, "velocity": 46}, {"time": 2974, "pitch": 54, "duration": 6, "velocity": 50}, {"time": 2974, "pitch": 59, "duration": 8, "velocity": 76}, {"time": 2974, "pitch": 62, "duration": 8, "velocity": 67}, {"time": 2974, "pitch": 66, "duration": 8, "velocity": 75}, {"time": 2983, "pitch": 54, "duration": 3, "velocity": 76}, {"time": 2986, "pitch": 59, "duration": 6, "velocity": 79}, {"time": 2986, "pitch": 62, "duration": 5, "velocity": 77}, {"time": 2986, "pitch": 66, "duration": 5, "velocity": 84}, {"time": 2989, "pitch": 54, "duration": 4, "velocity": 79}, {"time": 2992, "pitch": 42, "duration": 1, "velocity": 77}, {"time": 2998, "pitch": 40, "duration": 2, "velocity": 84}, {"time": 2998, "pitch": 64, "duration": 6, "velocity": 84}, {"time": 2998, "pitch": 67, "duration": 10, "velocity": 79}, {"time": 3004, "pitch": 52, "duration": 15, "velocity": 84}, {"time": 3010, "pitch": 59, "duration": 9, "velocity": 85}, {"time": 3010, "pitch": 64, "duration": 4, "velocity": 84}, {"time": 3016, "pitch": 67, "duration": 2, "velocity": 75}, {"time": 3019, "pitch": 66, "duration": 3, "velocity": 84}, {"time": 3020, "pitch": 57, "duration": 8, "velocity": 67}, {"time": 3021, "pitch": 61, "duration": 7, "velocity": 66}, {"time": 3021, "pitch": 45, "duration": 42, "velocity": 82}, {"time": 3022, "pitch": 64, "duration": 12, "velocity": 68}, {"time": 3022, "pitch": 69, "duration": 18, "velocity": 82}, {"time": 3027, "pitch": 52, "duration": 36, "velocity": 70}, {"time": 3033, "pitch": 57, "duration": 13, "velocity": 84}, {"time": 3039, "pitch": 64, "duration": 8, "velocity": 80}, {"time": 3045, "pitch": 69, "duration": 9, "velocity": 76}, {"time": 3051, "pitch": 57, "duration": 11, "velocity": 62}, {"time": 3058, "pitch": 64, "duration": 4, "velocity": 72}, {"time": 3067, "pitch": 57, "duration": 7, "velocity": 60}, {"time": 3068, "pitch": 61, "duration": 7, "velocity": 59}, {"time": 3069, "pitch": 64, "duration": 6, "velocity": 61}, {"time": 3069, "pitch": 45, "duration": 45, "velocity": 65}, {"time": 3070, "pitch": 69, "duration": 7, "velocity": 50}, {"time": 3105, "pitch": 73, "duration": 8, "velocity": 70}, {"time": 3105, "pitch": 76, "duration": 8, "velocity": 82}, {"time": 3105, "pitch": 69, "duration": 4, "velocity": 75}, {"time": 3105, "pitch": 81, "duration": 7, "velocity": 73}, {"time": 3112, "pitch": 69, "duration": 3, "velocity": 64}, {"time": 3130, "pitch": 61, "duration": 6, "velocity": 83}, {"time": 3130, "pitch": 57, "duration": 3, "velocity": 83}, {"time": 3130, "pitch": 45, "duration": 10, "velocity": 88}, {"time": 3130, "pitch": 52, "duration": 10, "velocity": 88}, {"time": 3136, "pitch": 57, "duration": 4, "velocity": 89}, {"time": 3141, "pitch": 66, "duration": 8, "velocity": 91}, {"time": 3141, "pitch": 57, "duration": 8, "velocity": 90}, {"time": 3141, "pitch": 62, "duration": 8, "velocity": 88}, {"time": 3142, "pitch": 50, "duration": 6, "velocity": 81}, {"time": 3142, "pitch": 38, "duration": 20, "velocity": 88}, {"time": 3150, "pitch": 50, "duration": 5, "velocity": 67}, {"time": 3153, "pitch": 66, "duration": 6, "velocity": 99}, {"time": 3153, "pitch": 57, "duration": 6, "velocity": 102}, {"time": 3153, "pitch": 62, "duration": 6, "velocity": 94}, {"time": 3159, "pitch": 50, "duration": 2, "velocity": 64}, {"time": 3162, "pitch": 66, "duration": 1, "velocity": 73}, {"time": 3162, "pitch": 57, "duration": 1, "velocity": 63}, {"time": 3162, "pitch": 62, "duration": 1, "velocity": 57}, {"time": 3165, "pitch": 57, "duration": 6, "velocity": 88}, {"time": 3165, "pitch": 62, "duration": 6, "velocity": 81}, {"time": 3165, "pitch": 66, "duration": 6, "velocity": 92}, {"time": 3165, "pitch": 38, "duration": 16, "velocity": 92}, {"time": 3165, "pitch": 50, "duration": 5, "velocity": 88}, {"time": 3174, "pitch": 50, "duration": 4, "velocity": 90}, {"time": 3177, "pitch": 66, "duration": 8, "velocity": 101}, {"time": 3177, "pitch": 57, "duration": 8, "velocity": 104}, {"time": 3177, "pitch": 62, "duration": 8, "velocity": 91}, {"time": 3180, "pitch": 50, "duration": 4, "velocity": 80}, {"time": 3183, "pitch": 38, "duration": 2, "velocity": 93}, {"time": 3186, "pitch": 50, "duration": 1, "velocity": 85}, {"time": 3186, "pitch": 38, "duration": 1, "velocity": 76}, {"time": 3189, "pitch": 66, "duration": 6, "velocity": 99}, {"time": 3189, "pitch": 57, "duration": 6, "velocity": 102}, {"time": 3189, "pitch": 61, "duration": 6, "velocity": 94}, {"time": 3190, "pitch": 49, "duration": 5, "velocity": 84}, {"time": 3190, "pitch": 37, "duration": 35, "velocity": 85}, {"time": 3198, "pitch": 49, "duration": 4, "velocity": 74}, {"time": 3201, "pitch": 57, "duration": 5, "velocity": 104}, {"time": 3201, "pitch": 61, "duration": 4, "velocity": 94}, {"time": 3201, "pitch": 66, "duration": 5, "velocity": 97}, {"time": 3207, "pitch": 49, "duration": 4, "velocity": 55}, {"time": 3210, "pitch": 57, "duration": 5, "velocity": 100}, {"time": 3210, "pitch": 61, "duration": 5, "velocity": 91}, {"time": 3210, "pitch": 69, "duration": 5, "velocity": 95}, {"time": 3210, "pitch": 66, "duration": 5, "velocity": 91}, {"time": 3216, "pitch": 49, "duration": 3, "velocity": 68}, {"time": 3218, "pitch": 61, "duration": 4, "velocity": 88}, {"time": 3219, "pitch": 57, "duration": 3, "velocity": 92}, {"time": 3219, "pitch": 66, "duration": 3, "velocity": 80}, {"time": 3219, "pitch": 69, "duration": 2, "velocity": 86}, {"time": 3221, "pitch": 49, "duration": 7, "velocity": 90}, {"time": 3224, "pitch": 61, "duration": 8, "velocity": 91}, {"time": 3224, "pitch": 57, "duration": 8, "velocity": 106}, {"time": 3224, "pitch": 66, "duration": 8, "velocity": 91}, {"time": 3224, "pitch": 69, "duration": 8, "velocity": 96}, {"time": 3227, "pitch": 37, "duration": 4, "velocity": 97}, {"time": 3231, "pitch": 49, "duration": 3, "velocity": 76}, {"time": 3233, "pitch": 37, "duration": 3, "velocity": 80}, {"time": 3237, "pitch": 66, "duration": 9, "velocity": 84}, {"time": 3237, "pitch": 59, "duration": 9, "velocity": 92}, {"time": 3237, "pitch": 47, "duration": 6, "velocity": 87}, {"time": 3237, "pitch": 35, "duration": 16, "velocity": 89}, {"time": 3237, "pitch": 62, "duration": 8, "velocity": 85}, {"time": 3246, "pitch": 47, "duration": 4, "velocity": 72}, {"time": 3249, "pitch": 66, "duration": 7, "velocity": 78}, {"time": 3249, "pitch": 71, "duration": 4, "velocity": 95}, {"time": 3250, "pitch": 59, "duration": 3, "velocity": 99}, {"time": 3250, "pitch": 62, "duration": 7, "velocity": 84}, {"time": 3252, "pitch": 47, "duration": 7, "velocity": 75}, {"time": 3255, "pitch": 69, "duration": 2, "velocity": 84}, {"time": 3255, "pitch": 59, "duration": 2, "velocity": 77}, {"time": 3258, "pitch": 35, "duration": 1, "velocity": 74}, {"time": 3261, "pitch": 33, "duration": 16, "velocity": 92}, {"time": 3261, "pitch": 45, "duration": 7, "velocity": 84}, {"time": 3261, "pitch": 69, "duration": 9, "velocity": 95}, {"time": 3262, "pitch": 57, "duration": 8, "velocity": 95}, {"time": 3262, "pitch": 61, "duration": 8, "velocity": 79}, {"time": 3262, "pitch": 64, "duration": 7, "velocity": 72}, {"time": 3270, "pitch": 45, "duration": 4, "velocity": 83}, {"time": 3273, "pitch": 57, "duration": 7, "velocity": 100}, {"time": 3273, "pitch": 64, "duration": 6, "velocity": 88}, {"time": 3273, "pitch": 69, "duration": 6, "velocity": 93}, {"time": 3273, "pitch": 61, "duration": 7, "velocity": 85}, {"time": 3277, "pitch": 45, "duration": 3, "velocity": 85}, {"time": 3280, "pitch": 33, "duration": 1, "velocity": 87}, {"time": 3286, "pitch": 55, "duration": 8, "velocity": 99}, {"time": 3286, "pitch": 59, "duration": 7, "velocity": 90}, {"time": 3286, "pitch": 64, "duration": 8, "velocity": 91}, {"time": 3286, "pitch": 40, "duration": 15, "velocity": 81}, {"time": 3286, "pitch": 52, "duration": 6, "velocity": 81}, {"time": 3294, "pitch": 52, "duration": 4, "velocity": 79}, {"time": 3297, "pitch": 64, "duration": 5, "velocity": 92}, {"time": 3297, "pitch": 55, "duration": 4, "velocity": 108}, {"time": 3297, "pitch": 59, "duration": 5, "velocity": 99}, {"time": 3300, "pitch": 52, "duration": 4, "velocity": 94}, {"time": 3303, "pitch": 40, "duration": 1, "velocity": 80}, {"time": 3306, "pitch": 57, "duration": 7, "velocity": 100}, {"time": 3306, "pitch": 61, "duration": 7, "velocity": 90}, {"time": 3306, "pitch": 64, "duration": 7, "velocity": 88}, {"time": 3306, "pitch": 69, "duration": 7, "velocity": 96}, {"time": 3306, "pitch": 33, "duration": 20, "velocity": 95}, {"time": 3306, "pitch": 45, "duration": 5, "velocity": 90}, {"time": 3312, "pitch": 45, "duration": 5, "velocity": 91}, {"time": 3315, "pitch": 57, "duration": 4, "velocity": 104}, {"time": 3315, "pitch": 64, "duration": 4, "velocity": 97}, {"time": 3315, "pitch": 69, "duration": 4, "velocity": 96}, {"time": 3315, "pitch": 61, "duration": 4, "velocity": 95}, {"time": 3318, "pitch": 45, "duration": 4, "velocity": 83}, {"time": 3321, "pitch": 57, "duration": 3, "velocity": 111}, {"time": 3321, "pitch": 64, "duration": 7, "velocity": 85}, {"time": 3321, "pitch": 61, "duration": 7, "velocity": 100}, {"time": 3321, "pitch": 69, "duration": 3, "velocity": 108}, {"time": 3324, "pitch": 45, "duration": 6, "velocity": 91}, {"time": 3327, "pitch": 59, "duration": 2, "velocity": 97}, {"time": 3327, "pitch": 71, "duration": 1, "velocity": 92}, {"time": 3330, "pitch": 33, "duration": 1, "velocity": 79}, {"time": 3333, "pitch": 66, "duration": 6, "velocity": 94}, {"time": 3333, "pitch": 57, "duration": 6, "velocity": 94}, {"time": 3333, "pitch": 61, "duration": 6, "velocity": 80}, {"time": 3333, "pitch": 42, "duration": 4, "velocity": 79}, {"time": 3333, "pitch": 54, "duration": 4, "velocity": 72}, {"time": 3342, "pitch": 54, "duration": 5, "velocity": 81}, {"time": 3342, "pitch": 42, "duration": 9, "velocity": 49}, {"time": 3345, "pitch": 66, "duration": 7, "velocity": 97}, {"time": 3345, "pitch": 57, "duration": 7, "velocity": 100}, {"time": 3345, "pitch": 61, "duration": 7, "velocity": 92}, {"time": 3351, "pitch": 54, "duration": 4, "velocity": 61}, {"time": 3353, "pitch": 42, "duration": 4, "velocity": 72}, {"time": 3357, "pitch": 59, "duration": 7, "velocity": 94}, {"time": 3357, "pitch": 66, "duration": 7, "velocity": 95}, {"time": 3357, "pitch": 54, "duration": 6, "velocity": 81}, {"time": 3357, "pitch": 62, "duration": 7, "velocity": 88}, {"time": 3357, "pitch": 47, "duration": 18, "velocity": 76}, {"time": 3366, "pitch": 54, "duration": 4, "velocity": 74}, {"time": 3369, "pitch": 66, "duration": 7, "velocity": 95}, {"time": 3369, "pitch": 59, "duration": 7, "velocity": 102}, {"time": 3369, "pitch": 62, "duration": 7, "velocity": 92}, {"time": 3372, "pitch": 54, "duration": 5, "velocity": 75}, {"time": 3375, "pitch": 45, "duration": 3, "velocity": 64}, {"time": 3378, "pitch": 43, "duration": 1, "velocity": 57}, {"time": 3381, "pitch": 57, "duration": 8, "velocity": 88}, {"time": 3381, "pitch": 61, "duration": 8, "velocity": 79}, {"time": 3381, "pitch": 66, "duration": 7, "velocity": 84}, {"time": 3381, "pitch": 42, "duration": 14, "velocity": 81}, {"time": 3381, "pitch": 54, "duration": 7, "velocity": 81}, {"time": 3390, "pitch": 54, "duration": 4, "velocity": 76}, {"time": 3393, "pitch": 57, "duration": 5, "velocity": 106}, {"time": 3393, "pitch": 61, "duration": 5, "velocity": 99}, {"time": 3393, "pitch": 66, "duration": 5, "velocity": 99}, {"time": 3396, "pitch": 54, "duration": 4, "velocity": 64}, {"time": 3399, "pitch": 42, "duration": 1, "velocity": 72}, {"time": 3405, "pitch": 54, "duration": 5, "velocity": 74}, {"time": 3405, "pitch": 59, "duration": 6, "velocity": 97}, {"time": 3405, "pitch": 66, "duration": 7, "velocity": 84}, {"time": 3405, "pitch": 71, "duration": 5, "velocity": 87}, {"time": 3405, "pitch": 62, "duration": 6, "velocity": 81}, {"time": 3406, "pitch": 47, "duration": 18, "velocity": 64}, {"time": 3415, "pitch": 59, "duration": 5, "velocity": 104}, {"time": 3415, "pitch": 66, "duration": 6, "velocity": 91}, {"time": 3415, "pitch": 69, "duration": 5, "velocity": 100}, {"time": 3415, "pitch": 62, "duration": 6, "velocity": 95}, {"time": 3415, "pitch": 54, "duration": 3, "velocity": 71}, {"time": 3420, "pitch": 54, "duration": 4, "velocity": 84}, {"time": 3423, "pitch": 59, "duration": 2, "velocity": 95}, {"time": 3423, "pitch": 67, "duration": 2, "velocity": 92}, {"time": 3424, "pitch": 62, "duration": 1, "velocity": 72}, {"time": 3426, "pitch": 54, "duration": 1, "velocity": 52}, {"time": 3427, "pitch": 47, "duration": 3, "velocity": 64}, {"time": 3429, "pitch": 55, "duration": 8, "velocity": 99}, {"time": 3429, "pitch": 64, "duration": 7, "velocity": 91}, {"time": 3429, "pitch": 59, "duration": 7, "velocity": 90}, {"time": 3429, "pitch": 52, "duration": 7, "velocity": 84}, {"time": 3429, "pitch": 40, "duration": 16, "velocity": 81}, {"time": 3438, "pitch": 52, "duration": 4, "velocity": 79}, {"time": 3441, "pitch": 55, "duration": 7, "velocity": 108}, {"time": 3441, "pitch": 59, "duration": 7, "velocity": 104}, {"time": 3441, "pitch": 64, "duration": 7, "velocity": 99}, {"time": 3444, "pitch": 52, "duration": 4, "velocity": 76}, {"time": 3447, "pitch": 40, "duration": 1, "velocity": 93}, {"time": 3453, "pitch": 57, "duration": 15, "velocity": 102}, {"time": 3453, "pitch": 33, "duration": 56, "velocity": 91}, {"time": 3453, "pitch": 61, "duration": 16, "velocity": 90}, {"time": 3453, "pitch": 64, "duration": 18, "velocity": 87}, {"time": 3453, "pitch": 69, "duration": 16, "velocity": 92}, {"time": 3453, "pitch": 45, "duration": 13, "velocity": 85}, {"time": 3477, "pitch": 57, "duration": 2, "velocity": 52}, {"time": 3480, "pitch": 64, "duration": 2, "velocity": 45}, {"time": 3482, "pitch": 69, "duration": 2, "velocity": 52}, {"time": 3489, "pitch": 81, "duration": 1, "velocity": 54}, {"time": 3500, "pitch": 85, "duration": 3, "velocity": 51}, {"time": 3502, "pitch": 88, "duration": 1, "velocity": 39}, {"time": 3503, "pitch": 93, "duration": 1, "velocity": 68}, {"time": 3526, "pitch": 43, "duration": 45, "velocity": 81}, {"time": 3532, "pitch": 50, "duration": 38, "velocity": 71}, {"time": 3538, "pitch": 62, "duration": 9, "velocity": 77}, {"time": 3544, "pitch": 59, "duration": 3, "velocity": 71}, {"time": 3549, "pitch": 55, "duration": 2, "velocity": 43}, {"time": 3550, "pitch": 59, "duration": 1, "velocity": 72}, {"time": 3551, "pitch": 67, "duration": 8, "velocity": 70}, {"time": 3563, "pitch": 62, "duration": 4, "velocity": 65}, {"time": 3563, "pitch": 59, "duration": 2, "velocity": 40}, {"time": 3572, "pitch": 55, "duration": 3, "velocity": 65}, {"time": 3573, "pitch": 59, "duration": 3, "velocity": 77}, {"time": 3574, "pitch": 62, "duration": 2, "velocity": 69}, {"time": 3574, "pitch": 43, "duration": 39, "velocity": 84}, {"time": 3575, "pitch": 67, "duration": 4, "velocity": 78}, {"time": 3580, "pitch": 50, "duration": 32, "velocity": 69}, {"time": 3586, "pitch": 74, "duration": 3, "velocity": 81}, {"time": 3586, "pitch": 67, "duration": 4, "velocity": 69}, {"time": 3596, "pitch": 67, "duration": 1, "velocity": 61}, {"time": 3599, "pitch": 83, "duration": 2, "velocity": 84}, {"time": 3612, "pitch": 81, "duration": 1, "velocity": 30}, {"time": 3624, "pitch": 74, "duration": 3, "velocity": 64}, {"time": 3625, "pitch": 78, "duration": 2, "velocity": 71}, {"time": 3625, "pitch": 38, "duration": 2, "velocity": 71}, {"time": 3626, "pitch": 81, "duration": 7, "velocity": 74}, {"time": 3632, "pitch": 50, "duration": 51, "velocity": 74}, {"time": 3636, "pitch": 57, "duration": 47, "velocity": 68}, {"time": 3639, "pitch": 64, "duration": 3, "velocity": 73}, {"time": 3642, "pitch": 66, "duration": 2, "velocity": 85}, {"time": 3645, "pitch": 69, "duration": 2, "velocity": 75}, {"time": 3649, "pitch": 74, "duration": 1, "velocity": 89}, {"time": 3652, "pitch": 76, "duration": 2, "velocity": 87}, {"time": 3656, "pitch": 78, "duration": 2, "velocity": 88}, {"time": 3660, "pitch": 81, "duration": 2, "velocity": 81}, {"time": 3666, "pitch": 86, "duration": 2, "velocity": 79}, {"time": 3673, "pitch": 88, "duration": 2, "velocity": 73}, {"time": 3679, "pitch": 86, "duration": 2, "velocity": 77}, {"time": 3689, "pitch": 50, "duration": 11, "velocity": 67}, {"time": 3691, "pitch": 57, "duration": 9, "velocity": 51}, {"time": 3691, "pitch": 86, "duration": 2, "velocity": 62}, {"time": 3692, "pitch": 90, "duration": 1, "velocity": 58}, {"time": 3692, "pitch": 93, "duration": 3, "velocity": 73}], "annotations": [{"time": 4, "annotation": {"number": 64, "value": 127}, "group": "control_change"}, {"time": 4, "annotation": {"number": 64, "value": 0}, "group": "control_change"}, {"time": 5, "annotation": {"number": 64, "value": 127}, "group": "control_change"}, {"time": 48, "annotation": {"number": 64, "value": 0}, "group": "control_change"}, {"time": 52, "annotation": {"number": 64, "value": 127}, "group": "control_change"}, {"time": 94, "annotation": {"number": 64, "value": 0}, "group": "control_change"}, {"time": 97, "annotation": {"number": 64, "value": 127}, "group": "control_change"}, {"time": 116, "annotation": {"number": 64, "value": 0}, "group": "control_change"}, {"time": 118, "annotation": {"number": 64, "value": 127}, "group": "control_change"}, {"time": 138, "annotation": {"number": 64, "value": 0}, "group": "control_change"}, {"time": 140, "annotation": {"number": 64, "value": 127}, "group": "control_change"}, {"time": 214, "annotation": {"number": 64, "value": 127}, "group": "control_change"}, {"time": 260, "annotation": {"number": 64, "value": 0}, "group": "control_change"}, {"time": 262, "annotation": {"number": 64, "value": 127}, "group": "control_change"}, {"time": 308, "annotation": {"number": 64, "value": 0}, "group": "control_change"}, {"time": 310, "annotation": {"number": 64, "value": 127}, "group": "control_change"}, {"time": 356, "annotation": {"number": 64, "value": 0}, "group": "control_change"}, {"time": 359, "annotation": {"number": 64, "value": 127}, "group": "control_change"}, {"time": 403, "annotation": {"number": 64, "value": 0}, "group": "control_change"}, {"time": 406, "annotation": {"number": 64, "value": 127}, "group": "control_change"}, {"time": 428, "annotation": {"number": 64, "value": 0}, "group": "control_change"}, {"time": 431, "annotation": {"number": 64, "value": 127}, "group": "control_change"}, {"time": 452, "annotation": {"number": 64, "value": 0}, "group": "control_change"}, {"time": 455, "annotation": {"number": 64, "value": 127}, "group": "control_change"}, {"time": 476, "annotation": {"number": 64, "value": 127}, "group": "control_change"}, {"time": 476, "annotation": {"number": 64, "value": 0}, "group": "control_change"}, {"time": 501, "annotation": {"number": 64, "value": 0}, "group": "control_change"}, {"time": 504, "annotation": {"number": 64, "value": 127}, "group": "control_change"}, {"time": 504, "annotation": {"number": 64, "value": 0}, "group": "control_change"}, {"time": 544, "annotation": {"number": 64, "value": 0}, "group": "control_change"}, {"time": 548, "annotation": {"number": 64, "value": 0}, "group": "control_change"}, {"time": 552, "annotation": {"number": 64, "value": 127}, "group": "control_change"}, {"time": 598, "annotation": {"number": 64, "value": 0}, "group": "control_change"}, {"time": 598, "annotation": {"number": 64, "value": 71}, "group": "control_change"}, {"time": 599, "annotation": {"number": 64, "value": 127}, "group": "control_change"}, {"time": 646, "annotation": {"number": 64, "value": 71}, "group": "control_change"}, {"time": 647, "annotation": {"number": 64, "value": 0}, "group": "control_change"}, {"time": 651, "annotation": {"number": 64, "value": 71}, "group": "control_change"}, {"time": 652, "annotation": {"number": 64, "value": 127}, "group": "control_change"}, {"time": 694, "annotation": {"number": 64, "value": 71}, "group": "control_change"}, {"time": 695, "annotation": {"number": 64, "value": 0}, "group": "control_change"}, {"time": 699, "annotation": {"number": 64, "value": 71}, "group": "control_change"}, {"time": 700, "annotation": {"number": 64, "value": 127}, "group": "control_change"}, {"time": 741, "annotation": {"number": 64, "value": 71}, "group": "control_change"}, {"time": 742, "annotation": {"number": 64, "value": 0}, "group": "control_change"}, {"time": 746, "annotation": {"number": 64, "value": 71}, "group": "control_change"}, {"time": 747, "annotation": {"number": 64, "value": 127}, "group": "control_change"}, {"time": 789, "annotation": {"number": 64, "value": 71}, "group": "control_change"}, {"time": 790, "annotation": {"number": 64, "value": 0}, "group": "control_change"}, {"time": 796, "annotation": {"number": 64, "value": 71}, "group": "control_change"}, {"time": 796, "annotation": {"number": 64, "value": 127}, "group": "control_change"}, {"time": 812, "annotation": {"number": 64, "value": 71}, "group": "control_change"}, {"time": 814, "annotation": {"number": 64, "value": 0}, "group": "control_change"}, {"time": 816, "annotation": {"number": 64, "value": 71}, "group": "control_change"}, {"time": 817, "annotation": {"number": 64, "value": 127}, "group": "control_change"}, {"time": 836, "annotation": {"number": 64, "value": 71}, "group": "control_change"}, {"time": 838, "annotation": {"number": 64, "value": 0}, "group": "control_change"}, {"time": 842, "annotation": {"number": 64, "value": 71}, "group": "control_change"}, {"time": 843, "annotation": {"number": 64, "value": 127}, "group": "control_change"}, {"time": 861, "annotation": {"number": 64, "value": 71}, "group": "control_change"}, {"time": 862, "annotation": {"number": 64, "value": 0}, "group": "control_change"}, {"time": 866, "annotation": {"number": 64, "value": 71}, "group": "control_change"}, {"time": 866, "annotation": {"number": 64, "value": 127}, "group": "control_change"}, {"time": 885, "annotation": {"number": 64, "value": 71}, "group": "control_change"}, {"time": 886, "annotation": {"number": 64, "value": 0}, "group": "control_change"}, {"time": 890, "annotation": {"number": 64, "value": 71}, "group": "control_change"}, {"time": 890, "annotation": {"number": 64, "value": 127}, "group": "control_change"}, {"time": 909, "annotation": {"number": 64, "value": 71}, "group": "control_change"}, {"time": 910, "annotation": {"number": 64, "value": 0}, "group": "control_change"}, {"time": 914, "annotation": {"number": 64, "value": 71}, "group": "control_change"}, {"time": 917, "annotation": {"number": 64, "value": 127}, "group": "control_change"}, {"time": 933, "annotation": {"number": 64, "value": 71}, "group": "control_change"}, {"time": 934, "annotation": {"number": 64, "value": 0}, "group": "control_change"}, {"time": 939, "annotation": {"number": 64, "value": 71}, "group": "control_change"}, {"time": 939, "annotation": {"number": 64, "value": 127}, "group": "control_change"}, {"time": 980, "annotation": {"number": 64, "value": 0}, "group": "control_change"}, {"time": 981, "annotation": {"number": 64, "value": 71}, "group": "control_change"}, {"time": 982, "annotation": {"number": 64, "value": 0}, "group": "control_change"}, {"time": 986, "annotation": {"number": 64, "value": 71}, "group": "control_change"}, {"time": 986, "annotation": {"number": 64, "value": 127}, "group": "control_change"}, {"time": 989, "annotation": {"number": 64, "value": 71}, "group": "control_change"}, {"time": 989, "annotation": {"number": 64, "value": 127}, "group": "control_change"}, {"time": 1029, "annotation": {"number": 64, "value": 71}, "group": "control_change"}, {"time": 1030, "annotation": {"number": 64, "value": 0}, "group": "control_change"}, {"time": 1034, "annotation": {"number": 64, "value": 71}, "group": "control_change"}, {"time": 1035, "annotation": {"number": 64, "value": 127}, "group": "control_change"}, {"time": 1077, "annotation": {"number": 64, "value": 71}, "group": "control_change"}, {"time": 1078, "annotation": {"number": 64, "value": 0}, "group": "control_change"}, {"time": 1082, "annotation": {"number": 64, "value": 71}, "group": "control_change"}, {"time": 1083, "annotation": {"number": 64, "value": 127}, "group": "control_change"}, {"time": 1101, "annotation": {"number": 64, "value": 71}, "group": "control_change"}, {"time": 1102, "annotation": {"number": 64, "value": 0}, "group": "control_change"}, {"time": 1106, "annotation": {"number": 64, "value": 71}, "group": "control_change"}, {"time": 1107, "annotation": {"number": 64, "value": 127}, "group": "control_change"}, {"time": 1125, "annotation": {"number": 64, "value": 71}, "group": "control_change"}, {"time": 1126, "annotation": {"number": 64, "value": 0}, "group": "control_change"}, {"time": 1131, "annotation": {"number": 64, "value": 71}, "group": "control_change"}, {"time": 1131, "annotation": {"number": 64, "value": 127}, "group": "control_change"}, {"time": 1149, "annotation": {"number": 64, "value": 71}, "group": "control_change"}, {"time": 1150, "annotation": {"number": 64, "value": 0}, "group": "control_change"}, {"time": 1154, "annotation": {"number": 64, "value": 71}, "group": "control_change"}, {"time": 1155, "annotation": {"number": 64, "value": 127}, "group": "control_change"}, {"time": 1156, "annotation": {"number": 64, "value": 71}, "group": "control_change"}, {"time": 1157, "annotation": {"number": 64, "value": 127}, "group": "control_change"}, {"time": 1173, "annotation": {"number": 64, "value": 71}, "group": "control_change"}, {"time": 1174, "annotation": {"number": 64, "value": 0}, "group": "control_change"}, {"time": 1179, "annotation": {"number": 64, "value": 71}, "group": "control_change"}, {"time": 1180, "annotation": {"number": 64, "value": 127}, "group": "control_change"}, {"time": 1197, "annotation": {"number": 64, "value": 71}, "group": "control_change"}, {"time": 1198, "annotation": {"number": 64, "value": 0}, "group": "control_change"}, {"time": 1203, "annotation": {"number": 64, "value": 71}, "group": "control_change"}, {"time": 1204, "annotation": {"number": 64, "value": 127}, "group": "control_change"}, {"time": 1221, "annotation": {"number": 64, "value": 71}, "group": "control_change"}, {"time": 1222, "annotation": {"number": 64, "value": 0}, "group": "control_change"}, {"time": 1226, "annotation": {"number": 64, "value": 71}, "group": "control_change"}, {"time": 1227, "annotation": {"number": 64, "value": 127}, "group": "control_change"}, {"time": 1245, "annotation": {"number": 64, "value": 71}, "group": "control_change"}, {"time": 1246, "annotation": {"number": 64, "value": 0}, "group": "control_change"}, {"time": 1251, "annotation": {"number": 64, "value": 71}, "group": "control_change"}, {"time": 1252, "annotation": {"number": 64, "value": 127}, "group": "control_change"}, {"time": 1269, "annotation": {"number": 64, "value": 71}, "group": "control_change"}, {"time": 1269, "annotation": {"number": 64, "value": 0}, "group": "control_change"}, {"time": 1275, "annotation": {"number": 64, "value": 71}, "group": "control_change"}, {"time": 1275, "annotation": {"number": 64, "value": 127}, "group": "control_change"}, {"time": 1293, "annotation": {"number": 64, "value": 71}, "group": "control_change"}, {"time": 1294, "annotation": {"number": 64, "value": 0}, "group": "control_change"}, {"time": 1297, "annotation": {"number": 64, "value": 71}, "group": "control_change"}, {"time": 1298, "annotation": {"number": 64, "value": 127}, "group": "control_change"}, {"time": 1300, "annotation": {"number": 64, "value": 71}, "group": "control_change"}, {"time": 1301, "annotation": {"number": 64, "value": 127}, "group": "control_change"}, {"time": 1318, "annotation": {"number": 64, "value": 71}, "group": "control_change"}, {"time": 1318, "annotation": {"number": 64, "value": 0}, "group": "control_change"}, {"time": 1322, "annotation": {"number": 64, "value": 71}, "group": "control_change"}, {"time": 1322, "annotation": {"number": 64, "value": 127}, "group": "control_change"}, {"time": 1323, "annotation": {"number": 64, "value": 71}, "group": "control_change"}, {"time": 1325, "annotation": {"number": 64, "value": 127}, "group": "control_change"}, {"time": 1364, "annotation": {"number": 64, "value": 0}, "group": "control_change"}, {"time": 1366, "annotation": {"number": 64, "value": 71}, "group": "control_change"}, {"time": 1367, "annotation": {"number": 64, "value": 0}, "group": "control_change"}, {"time": 1371, "annotation": {"number": 64, "value": 71}, "group": "control_change"}, {"time": 1371, "annotation": {"number": 64, "value": 127}, "group": "control_change"}, {"time": 1373, "annotation": {"number": 64, "value": 71}, "group": "control_change"}, {"time": 1374, "annotation": {"number": 64, "value": 127}, "group": "control_change"}, {"time": 1414, "annotation": {"number": 64, "value": 71}, "group": "control_change"}, {"time": 1415, "annotation": {"number": 64, "value": 0}, "group": "control_change"}, {"time": 1419, "annotation": {"number": 64, "value": 71}, "group": "control_change"}, {"time": 1420, "annotation": {"number": 64, "value": 127}, "group": "control_change"}, {"time": 1462, "annotation": {"number": 64, "value": 71}, "group": "control_change"}, {"time": 1463, "annotation": {"number": 64, "value": 0}, "group": "control_change"}, {"time": 1467, "annotation": {"number": 64, "value": 71}, "group": "control_change"}, {"time": 1467, "annotation": {"number": 64, "value": 127}, "group": "control_change"}, {"time": 1486, "annotation": {"number": 64, "value": 71}, "group": "control_change"}, {"time": 1487, "annotation": {"number": 64, "value": 0}, "group": "control_change"}, {"time": 1491, "annotation": {"number": 64, "value": 71}, "group": "control_change"}, {"time": 1492, "annotation": {"number": 64, "value": 127}, "group": "control_change"}, {"time": 1510, "annotation": {"number": 64, "value": 71}, "group": "control_change"}, {"time": 1511, "annotation": {"number": 64, "value": 0}, "group": "control_change"}, {"time": 1515, "annotation": {"number": 64, "value": 71}, "group": "control_change"}, {"time": 1516, "annotation": {"number": 64, "value": 127}, "group": "control_change"}, {"time": 1533, "annotation": {"number": 64, "value": 71}, "group": "control_change"}, {"time": 1534, "annotation": {"number": 64, "value": 0}, "group": "control_change"}, {"time": 1539, "annotation": {"number": 64, "value": 71}, "group": "control_change"}, {"time": 1540, "annotation": {"number": 64, "value": 127}, "group": "control_change"}, {"time": 1541, "annotation": {"number": 64, "value": 71}, "group": "control_change"}, {"time": 1542, "annotation": {"number": 64, "value": 127}, "group": "control_change"}, {"time": 1557, "annotation": {"number": 64, "value": 71}, "group": "control_change"}, {"time": 1558, "annotation": {"number": 64, "value": 0}, "group": "control_change"}, {"time": 1564, "annotation": {"number": 64, "value": 71}, "group": "control_change"}, {"time": 1564, "annotation": {"number": 64, "value": 127}, "group": "control_change"}, {"time": 1582, "annotation": {"number": 64, "value": 71}, "group": "control_change"}, {"time": 1583, "annotation": {"number": 64, "value": 0}, "group": "control_change"}, {"time": 1588, "annotation": {"number": 64, "value": 71}, "group": "control_change"}, {"time": 1588, "annotation": {"number": 64, "value": 127}, "group": "control_change"}, {"time": 1606, "annotation": {"number": 64, "value": 71}, "group": "control_change"}, {"time": 1607, "annotation": {"number": 64, "value": 0}, "group": "control_change"}, {"time": 1611, "annotation": {"number": 64, "value": 71}, "group": "control_change"}, {"time": 1612, "annotation": {"number": 64, "value": 127}, "group": "control_change"}, {"time": 1630, "annotation": {"number": 64, "value": 71}, "group": "control_change"}, {"time": 1631, "annotation": {"number": 64, "value": 0}, "group": "control_change"}, {"time": 1636, "annotation": {"number": 64, "value": 71}, "group": "control_change"}, {"time": 1636, "annotation": {"number": 64, "value": 127}, "group": "control_change"}, {"time": 1653, "annotation": {"number": 64, "value": 71}, "group": "control_change"}, {"time": 1654, "annotation": {"number": 64, "value": 0}, "group": "control_change"}, {"time": 1660, "annotation": {"number": 64, "value": 71}, "group": "control_change"}, {"time": 1660, "annotation": {"number": 64, "value": 127}, "group": "control_change"}, {"time": 1677, "annotation": {"number": 64, "value": 71}, "group": "control_change"}, {"time": 1678, "annotation": {"number": 64, "value": 0}, "group": "control_change"}, {"time": 1682, "annotation": {"number": 64, "value": 71}, "group": "control_change"}, {"time": 1683, "annotation": {"number": 64, "value": 127}, "group": "control_change"}, {"time": 1684, "annotation": {"number": 64, "value": 71}, "group": "control_change"}, {"time": 1685, "annotation": {"number": 64, "value": 127}, "group": "control_change"}, {"time": 1702, "annotation": {"number": 64, "value": 71}, "group": "control_change"}, {"time": 1703, "annotation": {"number": 64, "value": 0}, "group": "control_change"}, {"time": 1706, "annotation": {"number": 64, "value": 71}, "group": "control_change"}, {"time": 1706, "annotation": {"number": 64, "value": 127}, "group": "control_change"}, {"time": 1708, "annotation": {"number": 64, "value": 71}, "group": "control_change"}, {"time": 1710, "annotation": {"number": 64, "value": 127}, "group": "control_change"}, {"time": 1748, "annotation": {"number": 64, "value": 0}, "group": "control_change"}, {"time": 1748, "annotation": {"number": 64, "value": 71}, "group": "control_change"}, {"time": 1784, "annotation": {"number": 64, "value": 127}, "group": "control_change"}, {"time": 1785, "annotation": {"number": 64, "value": 0}, "group": "control_change"}, {"time": 1785, "annotation": {"number": 64, "value": 127}, "group": "control_change"}, {"time": 1794, "annotation": {"number": 64, "value": 0}, "group": "control_change"}, {"time": 1798, "annotation": {"number": 64, "value": 127}, "group": "control_change"}, {"time": 1808, "annotation": {"number": 64, "value": 0}, "group": "control_change"}, {"time": 1809, "annotation": {"number": 64, "value": 127}, "group": "control_change"}, {"time": 1819, "annotation": {"number": 64, "value": 0}, "group": "control_change"}, {"time": 1822, "annotation": {"number": 64, "value": 127}, "group": "control_change"}, {"time": 1839, "annotation": {"number": 64, "value": 0}, "group": "control_change"}, {"time": 1868, "annotation": {"number": 64, "value": 0}, "group": "control_change"}, {"time": 1869, "annotation": {"number": 64, "value": 127}, "group": "control_change"}, {"time": 1891, "annotation": {"number": 64, "value": 0}, "group": "control_change"}, {"time": 1893, "annotation": {"number": 64, "value": 127}, "group": "control_change"}, {"time": 1917, "annotation": {"number": 64, "value": 0}, "group": "control_change"}, {"time": 1923, "annotation": {"number": 64, "value": 127}, "group": "control_change"}, {"time": 1937, "annotation": {"number": 64, "value": 0}, "group": "control_change"}, {"time": 1943, "annotation": {"number": 64, "value": 71}, "group": "control_change"}, {"time": 1944, "annotation": {"number": 64, "value": 127}, "group": "control_change"}, {"time": 1990, "annotation": {"number": 64, "value": 71}, "group": "control_change"}, {"time": 1992, "annotation": {"number": 64, "value": 0}, "group": "control_change"}, {"time": 1996, "annotation": {"number": 64, "value": 71}, "group": "control_change"}, {"time": 1996, "annotation": {"number": 64, "value": 127}, "group": "control_change"}, {"time": 2038, "annotation": {"number": 64, "value": 71}, "group": "control_change"}, {"time": 2039, "annotation": {"number": 64, "value": 0}, "group": "control_change"}, {"time": 2044, "annotation": {"number": 64, "value": 71}, "group": "control_change"}, {"time": 2044, "annotation": {"number": 64, "value": 127}, "group": "control_change"}, {"time": 2086, "annotation": {"number": 64, "value": 71}, "group": "control_change"}, {"time": 2087, "annotation": {"number": 64, "value": 0}, "group": "control_change"}, {"time": 2091, "annotation": {"number": 64, "value": 71}, "group": "control_change"}, {"time": 2092, "annotation": {"number": 64, "value": 127}, "group": "control_change"}, {"time": 2134, "annotation": {"number": 64, "value": 71}, "group": "control_change"}, {"time": 2135, "annotation": {"number": 64, "value": 0}, "group": "control_change"}, {"time": 2141, "annotation": {"number": 64, "value": 71}, "group": "control_change"}, {"time": 2141, "annotation": {"number": 64, "value": 127}, "group": "control_change"}, {"time": 2157, "annotation": {"number": 64, "value": 71}, "group": "control_change"}, {"time": 2158, "annotation": {"number": 64, "value": 0}, "group": "control_change"}, {"time": 2161, "annotation": {"number": 64, "value": 71}, "group": "control_change"}, {"time": 2162, "annotation": {"number": 64, "value": 127}, "group": "control_change"}, {"time": 2181, "annotation": {"number": 64, "value": 71}, "group": "control_change"}, {"time": 2182, "annotation": {"number": 64, "value": 0}, "group": "control_change"}, {"time": 2187, "annotation": {"number": 64, "value": 71}, "group": "control_change"}, {"time": 2188, "annotation": {"number": 64, "value": 127}, "group": "control_change"}, {"time": 2205, "annotation": {"number": 64, "value": 71}, "group": "control_change"}, {"time": 2206, "annotation": {"number": 64, "value": 0}, "group": "control_change"}, {"time": 2210, "annotation": {"number": 64, "value": 71}, "group": "control_change"}, {"time": 2211, "annotation": {"number": 64, "value": 127}, "group": "control_change"}, {"time": 2229, "annotation": {"number": 64, "value": 71}, "group": "control_change"}, {"time": 2230, "annotation": {"number": 64, "value": 0}, "group": "control_change"}, {"time": 2234, "annotation": {"number": 64, "value": 71}, "group": "control_change"}, {"time": 2235, "annotation": {"number": 64, "value": 127}, "group": "control_change"}, {"time": 2254, "annotation": {"number": 64, "value": 71}, "group": "control_change"}, {"time": 2255, "annotation": {"number": 64, "value": 0}, "group": "control_change"}, {"time": 2259, "annotation": {"number": 64, "value": 71}, "group": "control_change"}, {"time": 2262, "annotation": {"number": 64, "value": 127}, "group": "control_change"}, {"time": 2277, "annotation": {"number": 64, "value": 71}, "group": "control_change"}, {"time": 2278, "annotation": {"number": 64, "value": 0}, "group": "control_change"}, {"time": 2283, "annotation": {"number": 64, "value": 71}, "group": "control_change"}, {"time": 2284, "annotation": {"number": 64, "value": 127}, "group": "control_change"}, {"time": 2325, "annotation": {"number": 64, "value": 0}, "group": "control_change"}, {"time": 2326, "annotation": {"number": 64, "value": 71}, "group": "control_change"}, {"time": 2327, "annotation": {"number": 64, "value": 0}, "group": "control_change"}, {"time": 2331, "annotation": {"number": 64, "value": 71}, "group": "control_change"}, {"time": 2331, "annotation": {"number": 64, "value": 127}, "group": "control_change"}, {"time": 2333, "annotation": {"number": 64, "value": 71}, "group": "control_change"}, {"time": 2334, "annotation": {"number": 64, "value": 127}, "group": "control_change"}, {"time": 2374, "annotation": {"number": 64, "value": 71}, "group": "control_change"}, {"time": 2375, "annotation": {"number": 64, "value": 0}, "group": "control_change"}, {"time": 2379, "annotation": {"number": 64, "value": 71}, "group": "control_change"}, {"time": 2380, "annotation": {"number": 64, "value": 127}, "group": "control_change"}, {"time": 2422, "annotation": {"number": 64, "value": 71}, "group": "control_change"}, {"time": 2423, "annotation": {"number": 64, "value": 0}, "group": "control_change"}, {"time": 2427, "annotation": {"number": 64, "value": 71}, "group": "control_change"}, {"time": 2427, "annotation": {"number": 64, "value": 127}, "group": "control_change"}, {"time": 2446, "annotation": {"number": 64, "value": 71}, "group": "control_change"}, {"time": 2447, "annotation": {"number": 64, "value": 0}, "group": "control_change"}, {"time": 2451, "annotation": {"number": 64, "value": 71}, "group": "control_change"}, {"time": 2452, "annotation": {"number": 64, "value": 127}, "group": "control_change"}, {"time": 2470, "annotation": {"number": 64, "value": 71}, "group": "control_change"}, {"time": 2471, "annotation": {"number": 64, "value": 0}, "group": "control_change"}, {"time": 2475, "annotation": {"number": 64, "value": 71}, "group": "control_change"}, {"time": 2476, "annotation": {"number": 64, "value": 127}, "group": "control_change"}, {"time": 2494, "annotation": {"number": 64, "value": 71}, "group": "control_change"}, {"time": 2494, "annotation": {"number": 64, "value": 0}, "group": "control_change"}, {"time": 2499, "annotation": {"number": 64, "value": 71}, "group": "control_change"}, {"time": 2500, "annotation": {"number": 64, "value": 127}, "group": "control_change"}, {"time": 2501, "annotation": {"number": 64, "value": 71}, "group": "control_change"}, {"time": 2502, "annotation": {"number": 64, "value": 127}, "group": "control_change"}, {"time": 2518, "annotation": {"number": 64, "value": 71}, "group": "control_change"}, {"time": 2519, "annotation": {"number": 64, "value": 0}, "group": "control_change"}, {"time": 2524, "annotation": {"number": 64, "value": 71}, "group": "control_change"}, {"time": 2524, "annotation": {"number": 64, "value": 127}, "group": "control_change"}, {"time": 2542, "annotation": {"number": 64, "value": 71}, "group": "control_change"}, {"time": 2543, "annotation": {"number": 64, "value": 0}, "group": "control_change"}, {"time": 2548, "annotation": {"number": 64, "value": 71}, "group": "control_change"}, {"time": 2548, "annotation": {"number": 64, "value": 127}, "group": "control_change"}, {"time": 2566, "annotation": {"number": 64, "value": 71}, "group": "control_change"}, {"time": 2567, "annotation": {"number": 64, "value": 0}, "group": "control_change"}, {"time": 2571, "annotation": {"number": 64, "value": 71}, "group": "control_change"}, {"time": 2572, "annotation": {"number": 64, "value": 127}, "group": "control_change"}, {"time": 2590, "annotation": {"number": 64, "value": 71}, "group": "control_change"}, {"time": 2591, "annotation": {"number": 64, "value": 0}, "group": "control_change"}, {"time": 2596, "annotation": {"number": 64, "value": 71}, "group": "control_change"}, {"time": 2596, "annotation": {"number": 64, "value": 127}, "group": "control_change"}, {"time": 2613, "annotation": {"number": 64, "value": 71}, "group": "control_change"}, {"time": 2614, "annotation": {"number": 64, "value": 0}, "group": "control_change"}, {"time": 2620, "annotation": {"number": 64, "value": 71}, "group": "control_change"}, {"time": 2620, "annotation": {"number": 64, "value": 127}, "group": "control_change"}, {"time": 2637, "annotation": {"number": 64, "value": 71}, "group": "control_change"}, {"time": 2638, "annotation": {"number": 64, "value": 0}, "group": "control_change"}, {"time": 2642, "annotation": {"number": 64, "value": 71}, "group": "control_change"}, {"time": 2643, "annotation": {"number": 64, "value": 127}, "group": "control_change"}, {"time": 2645, "annotation": {"number": 64, "value": 71}, "group": "control_change"}, {"time": 2645, "annotation": {"number": 64, "value": 127}, "group": "control_change"}, {"time": 2662, "annotation": {"number": 64, "value": 71}, "group": "control_change"}, {"time": 2663, "annotation": {"number": 64, "value": 0}, "group": "control_change"}, {"time": 2666, "annotation": {"number": 64, "value": 71}, "group": "control_change"}, {"time": 2667, "annotation": {"number": 64, "value": 127}, "group": "control_change"}, {"time": 2668, "annotation": {"number": 64, "value": 71}, "group": "control_change"}, {"time": 2670, "annotation": {"number": 64, "value": 127}, "group": "control_change"}, {"time": 2709, "annotation": {"number": 64, "value": 0}, "group": "control_change"}, {"time": 2710, "annotation": {"number": 64, "value": 71}, "group": "control_change"}, {"time": 2711, "annotation": {"number": 64, "value": 0}, "group": "control_change"}, {"time": 2715, "annotation": {"number": 64, "value": 71}, "group": "control_change"}, {"time": 2715, "annotation": {"number": 64, "value": 127}, "group": "control_change"}, {"time": 2717, "annotation": {"number": 64, "value": 71}, "group": "control_change"}, {"time": 2718, "annotation": {"number": 64, "value": 127}, "group": "control_change"}, {"time": 2758, "annotation": {"number": 64, "value": 71}, "group": "control_change"}, {"time": 2759, "annotation": {"number": 64, "value": 0}, "group": "control_change"}, {"time": 2763, "annotation": {"number": 64, "value": 71}, "group": "control_change"}, {"time": 2764, "annotation": {"number": 64, "value": 127}, "group": "control_change"}, {"time": 2806, "annotation": {"number": 64, "value": 71}, "group": "control_change"}, {"time": 2807, "annotation": {"number": 64, "value": 0}, "group": "control_change"}, {"time": 2811, "annotation": {"number": 64, "value": 71}, "group": "control_change"}, {"time": 2811, "annotation": {"number": 64, "value": 127}, "group": "control_change"}, {"time": 2830, "annotation": {"number": 64, "value": 71}, "group": "control_change"}, {"time": 2831, "annotation": {"number": 64, "value": 0}, "group": "control_change"}, {"time": 2835, "annotation": {"number": 64, "value": 71}, "group": "control_change"}, {"time": 2836, "annotation": {"number": 64, "value": 127}, "group": "control_change"}, {"time": 2854, "annotation": {"number": 64, "value": 71}, "group": "control_change"}, {"time": 2855, "annotation": {"number": 64, "value": 0}, "group": "control_change"}, {"time": 2859, "annotation": {"number": 64, "value": 71}, "group": "control_change"}, {"time": 2860, "annotation": {"number": 64, "value": 127}, "group": "control_change"}, {"time": 2877, "annotation": {"number": 64, "value": 71}, "group": "control_change"}, {"time": 2878, "annotation": {"number": 64, "value": 0}, "group": "control_change"}, {"time": 2883, "annotation": {"number": 64, "value": 71}, "group": "control_change"}, {"time": 2884, "annotation": {"number": 64, "value": 127}, "group": "control_change"}, {"time": 2885, "annotation": {"number": 64, "value": 71}, "group": "control_change"}, {"time": 2886, "annotation": {"number": 64, "value": 127}, "group": "control_change"}, {"time": 2901, "annotation": {"number": 64, "value": 71}, "group": "control_change"}, {"time": 2902, "annotation": {"number": 64, "value": 0}, "group": "control_change"}, {"time": 2908, "annotation": {"number": 64, "value": 71}, "group": "control_change"}, {"time": 2908, "annotation": {"number": 64, "value": 127}, "group": "control_change"}, {"time": 2925, "annotation": {"number": 64, "value": 71}, "group": "control_change"}, {"time": 2927, "annotation": {"number": 64, "value": 0}, "group": "control_change"}, {"time": 2932, "annotation": {"number": 64, "value": 71}, "group": "control_change"}, {"time": 2932, "annotation": {"number": 64, "value": 127}, "group": "control_change"}, {"time": 2950, "annotation": {"number": 64, "value": 71}, "group": "control_change"}, {"time": 2950, "annotation": {"number": 64, "value": 0}, "group": "control_change"}, {"time": 2955, "annotation": {"number": 64, "value": 71}, "group": "control_change"}, {"time": 2956, "annotation": {"number": 64, "value": 127}, "group": "control_change"}, {"time": 2974, "annotation": {"number": 64, "value": 71}, "group": "control_change"}, {"time": 2975, "annotation": {"number": 64, "value": 0}, "group": "control_change"}, {"time": 2980, "annotation": {"number": 64, "value": 71}, "group": "control_change"}, {"time": 2980, "annotation": {"number": 64, "value": 127}, "group": "control_change"}, {"time": 2997, "annotation": {"number": 64, "value": 0}, "group": "control_change"}, {"time": 3021, "annotation": {"number": 64, "value": 0}, "group": "control_change"}, {"time": 3022, "annotation": {"number": 64, "value": 127}, "group": "control_change"}, {"time": 3140, "annotation": {"number": 64, "value": 0}, "group": "control_change"}, {"time": 3144, "annotation": {"number": 64, "value": 71}, "group": "control_change"}, {"time": 3144, "annotation": {"number": 64, "value": 127}, "group": "control_change"}, {"time": 3166, "annotation": {"number": 64, "value": 71}, "group": "control_change"}, {"time": 3166, "annotation": {"number": 64, "value": 0}, "group": "control_change"}, {"time": 3168, "annotation": {"number": 64, "value": 71}, "group": "control_change"}, {"time": 3168, "annotation": {"number": 64, "value": 127}, "group": "control_change"}, {"time": 3183, "annotation": {"number": 64, "value": 71}, "group": "control_change"}, {"time": 3184, "annotation": {"number": 64, "value": 127}, "group": "control_change"}, {"time": 3190, "annotation": {"number": 64, "value": 71}, "group": "control_change"}, {"time": 3190, "annotation": {"number": 64, "value": 0}, "group": "control_change"}, {"time": 3193, "annotation": {"number": 64, "value": 71}, "group": "control_change"}, {"time": 3193, "annotation": {"number": 64, "value": 127}, "group": "control_change"}, {"time": 3195, "annotation": {"number": 64, "value": 71}, "group": "control_change"}, {"time": 3197, "annotation": {"number": 64, "value": 127}, "group": "control_change"}, {"time": 3237, "annotation": {"number": 64, "value": 71}, "group": "control_change"}, {"time": 3237, "annotation": {"number": 64, "value": 0}, "group": "control_change"}, {"time": 3239, "annotation": {"number": 64, "value": 71}, "group": "control_change"}, {"time": 3239, "annotation": {"number": 64, "value": 127}, "group": "control_change"}, {"time": 3241, "annotation": {"number": 64, "value": 71}, "group": "control_change"}, {"time": 3241, "annotation": {"number": 64, "value": 127}, "group": "control_change"}, {"time": 3262, "annotation": {"number": 64, "value": 71}, "group": "control_change"}, {"time": 3262, "annotation": {"number": 64, "value": 0}, "group": "control_change"}, {"time": 3266, "annotation": {"number": 64, "value": 71}, "group": "control_change"}, {"time": 3267, "annotation": {"number": 64, "value": 127}, "group": "control_change"}, {"time": 3285, "annotation": {"number": 64, "value": 71}, "group": "control_change"}, {"time": 3285, "annotation": {"number": 64, "value": 0}, "group": "control_change"}, {"time": 3286, "annotation": {"number": 64, "value": 71}, "group": "control_change"}, {"time": 3286, "annotation": {"number": 64, "value": 0}, "group": "control_change"}, {"time": 3289, "annotation": {"number": 64, "value": 71}, "group": "control_change"}, {"time": 3289, "annotation": {"number": 64, "value": 127}, "group": "control_change"}, {"time": 3291, "annotation": {"number": 64, "value": 71}, "group": "control_change"}, {"time": 3291, "annotation": {"number": 64, "value": 127}, "group": "control_change"}, {"time": 3302, "annotation": {"number": 64, "value": 71}, "group": "control_change"}, {"time": 3303, "annotation": {"number": 64, "value": 0}, "group": "control_change"}, {"time": 3307, "annotation": {"number": 64, "value": 71}, "group": "control_change"}, {"time": 3307, "annotation": {"number": 64, "value": 0}, "group": "control_change"}, {"time": 3310, "annotation": {"number": 64, "value": 71}, "group": "control_change"}, {"time": 3311, "annotation": {"number": 64, "value": 127}, "group": "control_change"}, {"time": 3334, "annotation": {"number": 64, "value": 71}, "group": "control_change"}, {"time": 3334, "annotation": {"number": 64, "value": 0}, "group": "control_change"}, {"time": 3336, "annotation": {"number": 64, "value": 71}, "group": "control_change"}, {"time": 3337, "annotation": {"number": 64, "value": 127}, "group": "control_change"}, {"time": 3357, "annotation": {"number": 64, "value": 71}, "group": "control_change"}, {"time": 3358, "annotation": {"number": 64, "value": 0}, "group": "control_change"}, {"time": 3361, "annotation": {"number": 64, "value": 71}, "group": "control_change"}, {"time": 3362, "annotation": {"number": 64, "value": 127}, "group": "control_change"}, {"time": 3381, "annotation": {"number": 64, "value": 71}, "group": "control_change"}, {"time": 3381, "annotation": {"number": 64, "value": 0}, "group": "control_change"}, {"time": 3386, "annotation": {"number": 64, "value": 71}, "group": "control_change"}, {"time": 3387, "annotation": {"number": 64, "value": 127}, "group": "control_change"}, {"time": 3406, "annotation": {"number": 64, "value": 71}, "group": "control_change"}, {"time": 3406, "annotation": {"number": 64, "value": 0}, "group": "control_change"}, {"time": 3408, "annotation": {"number": 64, "value": 71}, "group": "control_change"}, {"time": 3408, "annotation": {"number": 64, "value": 127}, "group": "control_change"}, {"time": 3430, "annotation": {"number": 64, "value": 71}, "group": "control_change"}, {"time": 3430, "annotation": {"number": 64, "value": 0}, "group": "control_change"}, {"time": 3433, "annotation": {"number": 64, "value": 71}, "group": "control_change"}, {"time": 3434, "annotation": {"number": 64, "value": 127}, "group": "control_change"}, {"time": 3454, "annotation": {"number": 64, "value": 71}, "group": "control_change"}, {"time": 3454, "annotation": {"number": 64, "value": 0}, "group": "control_change"}, {"time": 3458, "annotation": {"number": 64, "value": 71}, "group": "control_change"}, {"time": 3459, "annotation": {"number": 64, "value": 127}, "group": "control_change"}, {"time": 3525, "annotation": {"number": 64, "value": 71}, "group": "control_change"}, {"time": 3526, "annotation": {"number": 64, "value": 0}, "group": "control_change"}, {"time": 3526, "annotation": {"number": 64, "value": 127}, "group": "control_change"}, {"time": 3574, "annotation": {"number": 64, "value": 0}, "group": "control_change"}, {"time": 3576, "annotation": {"number": 64, "value": 127}, "group": "control_change"}, {"time": 3623, "annotation": {"number": 64, "value": 0}, "group": "control_change"}, {"time": 3625, "annotation": {"number": 64, "value": 127}, "group": "control_change"}, {"time": 3734, "annotation": {"number": 64, "value": 0}, "group": "control_change"}]}]}