{"metadata": {"schema_version": "0.2", "title": "None", "source_filename": "782.mid", "source_format": "midi"}, "resolution": 12, "tempos": [{"time": 0, "qpm": 64.0}], "time_signatures": [{"time": 0, "numerator": 1, "denominator": 4}], "tracks": [{"program": 0, "is_drum": false, "name": "MELODY", "notes": [{"time": 220, "pitch": 65, "duration": 4, "velocity": 87}, {"time": 226, "pitch": 65, "duration": 4, "velocity": 83}, {"time": 232, "pitch": 65, "duration": 2, "velocity": 81}, {"time": 235, "pitch": 65, "duration": 7, "velocity": 89}, {"time": 244, "pitch": 63, "duration": 4, "velocity": 93}, {"time": 250, "pitch": 58, "duration": 4, "velocity": 87}, {"time": 256, "pitch": 60, "duration": 2, "velocity": 88}, {"time": 259, "pitch": 62, "duration": 7, "velocity": 83}, {"time": 268, "pitch": 62, "duration": 20, "velocity": 85}, {"time": 316, "pitch": 65, "duration": 4, "velocity": 87}, {"time": 322, "pitch": 65, "duration": 4, "velocity": 83}, {"time": 328, "pitch": 65, "duration": 2, "velocity": 81}, {"time": 331, "pitch": 65, "duration": 7, "velocity": 89}, {"time": 340, "pitch": 63, "duration": 4, "velocity": 93}, {"time": 346, "pitch": 58, "duration": 4, "velocity": 87}, {"time": 352, "pitch": 60, "duration": 2, "velocity": 88}, {"time": 355, "pitch": 62, "duration": 7, "velocity": 83}, {"time": 364, "pitch": 62, "duration": 20, "velocity": 85}, {"time": 394, "pitch": 58, "duration": 4, "velocity": 91}, {"time": 400, "pitch": 70, "duration": 4, "velocity": 87}, {"time": 406, "pitch": 69, "duration": 11, "velocity": 85}, {"time": 418, "pitch": 70, "duration": 5, "velocity": 88}, {"time": 424, "pitch": 65, "duration": 14, "velocity": 84}, {"time": 442, "pitch": 58, "duration": 5, "velocity": 80}, {"time": 448, "pitch": 67, "duration": 5, "velocity": 87}, {"time": 454, "pitch": 65, "duration": 10, "velocity": 84}, {"time": 466, "pitch": 69, "duration": 4, "velocity": 87}, {"time": 472, "pitch": 70, "duration": 15, "velocity": 89}, {"time": 490, "pitch": 58, "duration": 5, "velocity": 87}, {"time": 496, "pitch": 65, "duration": 10, "velocity": 90}, {"time": 508, "pitch": 63, "duration": 4, "velocity": 87}, {"time": 514, "pitch": 62, "duration": 5, "velocity": 87}, {"time": 520, "pitch": 58, "duration": 8, "velocity": 89}, {"time": 538, "pitch": 55, "duration": 5, "velocity": 87}, {"time": 544, "pitch": 60, "duration": 26, "velocity": 87}, {"time": 604, "pitch": 65, "duration": 4, "velocity": 87}, {"time": 610, "pitch": 65, "duration": 4, "velocity": 83}, {"time": 616, "pitch": 65, "duration": 2, "velocity": 81}, {"time": 619, "pitch": 65, "duration": 7, "velocity": 89}, {"time": 628, "pitch": 63, "duration": 4, "velocity": 93}, {"time": 634, "pitch": 58, "duration": 4, "velocity": 87}, {"time": 640, "pitch": 60, "duration": 2, "velocity": 88}, {"time": 643, "pitch": 62, "duration": 7, "velocity": 83}, {"time": 652, "pitch": 62, "duration": 20, "velocity": 85}, {"time": 700, "pitch": 65, "duration": 4, "velocity": 87}, {"time": 706, "pitch": 65, "duration": 4, "velocity": 83}, {"time": 712, "pitch": 65, "duration": 2, "velocity": 81}, {"time": 715, "pitch": 65, "duration": 7, "velocity": 89}, {"time": 724, "pitch": 70, "duration": 4, "velocity": 93}, {"time": 730, "pitch": 70, "duration": 4, "velocity": 87}, {"time": 736, "pitch": 60, "duration": 3, "velocity": 88}, {"time": 739, "pitch": 63, "duration": 7, "velocity": 83}, {"time": 748, "pitch": 62, "duration": 20, "velocity": 85}, {"time": 778, "pitch": 58, "duration": 4, "velocity": 91}, {"time": 784, "pitch": 70, "duration": 4, "velocity": 87}, {"time": 790, "pitch": 69, "duration": 11, "velocity": 85}, {"time": 802, "pitch": 70, "duration": 5, "velocity": 88}, {"time": 808, "pitch": 65, "duration": 14, "velocity": 84}, {"time": 826, "pitch": 58, "duration": 5, "velocity": 80}, {"time": 832, "pitch": 67, "duration": 5, "velocity": 87}, {"time": 838, "pitch": 67, "duration": 6, "velocity": 84}, {"time": 844, "pitch": 65, "duration": 6, "velocity": 84}, {"time": 850, "pitch": 65, "duration": 4, "velocity": 87}, {"time": 856, "pitch": 72, "duration": 6, "velocity": 89}, {"time": 862, "pitch": 74, "duration": 9, "velocity": 89}, {"time": 874, "pitch": 72, "duration": 5, "velocity": 88}, {"time": 880, "pitch": 74, "duration": 4, "velocity": 91}, {"time": 886, "pitch": 67, "duration": 5, "velocity": 87}, {"time": 892, "pitch": 74, "duration": 4, "velocity": 91}, {"time": 898, "pitch": 74, "duration": 4, "velocity": 94}, {"time": 904, "pitch": 75, "duration": 4, "velocity": 89}, {"time": 910, "pitch": 74, "duration": 10, "velocity": 94}, {"time": 922, "pitch": 72, "duration": 6, "velocity": 83}, {"time": 928, "pitch": 70, "duration": 18, "velocity": 83}, {"time": 958, "pitch": 77, "duration": 4, "velocity": 91}, {"time": 964, "pitch": 75, "duration": 5, "velocity": 89}, {"time": 970, "pitch": 74, "duration": 4, "velocity": 89}, {"time": 976, "pitch": 77, "duration": 9, "velocity": 88}, {"time": 988, "pitch": 67, "duration": 15, "velocity": 88}, {"time": 1006, "pitch": 77, "duration": 4, "velocity": 87}, {"time": 1012, "pitch": 75, "duration": 5, "velocity": 93}, {"time": 1018, "pitch": 74, "duration": 4, "velocity": 96}, {"time": 1024, "pitch": 77, "duration": 6, "velocity": 87}, {"time": 1030, "pitch": 65, "duration": 17, "velocity": 90}, {"time": 1054, "pitch": 77, "duration": 5, "velocity": 88}, {"time": 1060, "pitch": 75, "duration": 5, "velocity": 88}, {"time": 1066, "pitch": 74, "duration": 4, "velocity": 88}, {"time": 1072, "pitch": 77, "duration": 8, "velocity": 88}, {"time": 1084, "pitch": 67, "duration": 5, "velocity": 83}, {"time": 1090, "pitch": 69, "duration": 5, "velocity": 87}, {"time": 1096, "pitch": 70, "duration": 4, "velocity": 83}, {"time": 1102, "pitch": 70, "duration": 5, "velocity": 87}, {"time": 1108, "pitch": 70, "duration": 2, "velocity": 76}, {"time": 1111, "pitch": 72, "duration": 7, "velocity": 84}, {"time": 1120, "pitch": 70, "duration": 5, "velocity": 83}, {"time": 1126, "pitch": 72, "duration": 8, "velocity": 89}, {"time": 1135, "pitch": 74, "duration": 7, "velocity": 94}, {"time": 1144, "pitch": 74, "duration": 6, "velocity": 91}, {"time": 1150, "pitch": 77, "duration": 4, "velocity": 91}, {"time": 1156, "pitch": 75, "duration": 5, "velocity": 89}, {"time": 1162, "pitch": 74, "duration": 4, "velocity": 89}, {"time": 1168, "pitch": 77, "duration": 9, "velocity": 88}, {"time": 1180, "pitch": 67, "duration": 15, "velocity": 88}, {"time": 1198, "pitch": 77, "duration": 4, "velocity": 87}, {"time": 1204, "pitch": 75, "duration": 5, "velocity": 93}, {"time": 1210, "pitch": 74, "duration": 4, "velocity": 96}, {"time": 1216, "pitch": 77, "duration": 6, "velocity": 87}, {"time": 1222, "pitch": 81, "duration": 6, "velocity": 90}, {"time": 1231, "pitch": 77, "duration": 3, "velocity": 88}, {"time": 1234, "pitch": 77, "duration": 5, "velocity": 88}, {"time": 1240, "pitch": 72, "duration": 4, "velocity": 88}, {"time": 1246, "pitch": 70, "duration": 8, "velocity": 88}, {"time": 1258, "pitch": 74, "duration": 5, "velocity": 103}, {"time": 1264, "pitch": 75, "duration": 4, "velocity": 91}, {"time": 1270, "pitch": 77, "duration": 4, "velocity": 88}, {"time": 1276, "pitch": 75, "duration": 5, "velocity": 88}, {"time": 1282, "pitch": 74, "duration": 4, "velocity": 92}, {"time": 1288, "pitch": 72, "duration": 4, "velocity": 88}, {"time": 1294, "pitch": 70, "duration": 12, "velocity": 87}, {"time": 1306, "pitch": 69, "duration": 6, "velocity": 89}, {"time": 1312, "pitch": 70, "duration": 21, "velocity": 88}, {"time": 1564, "pitch": 65, "duration": 4, "velocity": 87}, {"time": 1570, "pitch": 65, "duration": 4, "velocity": 83}, {"time": 1576, "pitch": 65, "duration": 2, "velocity": 81}, {"time": 1579, "pitch": 65, "duration": 7, "velocity": 89}, {"time": 1588, "pitch": 63, "duration": 4, "velocity": 93}, {"time": 1594, "pitch": 58, "duration": 4, "velocity": 87}, {"time": 1600, "pitch": 60, "duration": 2, "velocity": 88}, {"time": 1603, "pitch": 62, "duration": 7, "velocity": 83}, {"time": 1612, "pitch": 62, "duration": 20, "velocity": 85}, {"time": 1660, "pitch": 65, "duration": 4, "velocity": 87}, {"time": 1666, "pitch": 65, "duration": 4, "velocity": 83}, {"time": 1672, "pitch": 65, "duration": 2, "velocity": 81}, {"time": 1675, "pitch": 65, "duration": 7, "velocity": 89}, {"time": 1684, "pitch": 70, "duration": 4, "velocity": 93}, {"time": 1690, "pitch": 70, "duration": 4, "velocity": 87}, {"time": 1696, "pitch": 60, "duration": 3, "velocity": 88}, {"time": 1699, "pitch": 63, "duration": 7, "velocity": 83}, {"time": 1708, "pitch": 62, "duration": 20, "velocity": 85}, {"time": 1738, "pitch": 58, "duration": 4, "velocity": 91}, {"time": 1744, "pitch": 70, "duration": 4, "velocity": 87}, {"time": 1750, "pitch": 69, "duration": 11, "velocity": 85}, {"time": 1762, "pitch": 70, "duration": 5, "velocity": 88}, {"time": 1768, "pitch": 65, "duration": 14, "velocity": 84}, {"time": 1786, "pitch": 58, "duration": 5, "velocity": 80}, {"time": 1792, "pitch": 67, "duration": 5, "velocity": 87}, {"time": 1798, "pitch": 67, "duration": 6, "velocity": 84}, {"time": 1804, "pitch": 65, "duration": 6, "velocity": 84}, {"time": 1810, "pitch": 65, "duration": 4, "velocity": 87}, {"time": 1816, "pitch": 72, "duration": 6, "velocity": 89}, {"time": 1822, "pitch": 74, "duration": 9, "velocity": 89}, {"time": 1834, "pitch": 72, "duration": 5, "velocity": 88}, {"time": 1840, "pitch": 74, "duration": 4, "velocity": 91}, {"time": 1846, "pitch": 67, "duration": 5, "velocity": 87}, {"time": 1852, "pitch": 74, "duration": 4, "velocity": 91}, {"time": 1858, "pitch": 74, "duration": 4, "velocity": 94}, {"time": 1864, "pitch": 75, "duration": 4, "velocity": 89}, {"time": 1870, "pitch": 74, "duration": 10, "velocity": 94}, {"time": 1882, "pitch": 72, "duration": 6, "velocity": 83}, {"time": 1888, "pitch": 70, "duration": 18, "velocity": 83}, {"time": 1918, "pitch": 77, "duration": 4, "velocity": 91}, {"time": 1924, "pitch": 75, "duration": 5, "velocity": 89}, {"time": 1930, "pitch": 74, "duration": 4, "velocity": 89}, {"time": 1936, "pitch": 77, "duration": 9, "velocity": 88}, {"time": 1948, "pitch": 67, "duration": 15, "velocity": 88}, {"time": 1966, "pitch": 77, "duration": 4, "velocity": 87}, {"time": 1972, "pitch": 75, "duration": 5, "velocity": 93}, {"time": 1978, "pitch": 74, "duration": 4, "velocity": 96}, {"time": 1984, "pitch": 77, "duration": 6, "velocity": 87}, {"time": 1990, "pitch": 65, "duration": 17, "velocity": 90}, {"time": 2014, "pitch": 77, "duration": 5, "velocity": 88}, {"time": 2020, "pitch": 75, "duration": 5, "velocity": 88}, {"time": 2026, "pitch": 74, "duration": 4, "velocity": 88}, {"time": 2032, "pitch": 77, "duration": 8, "velocity": 88}, {"time": 2044, "pitch": 67, "duration": 5, "velocity": 83}, {"time": 2050, "pitch": 69, "duration": 5, "velocity": 87}, {"time": 2056, "pitch": 70, "duration": 4, "velocity": 83}, {"time": 2062, "pitch": 70, "duration": 5, "velocity": 87}, {"time": 2068, "pitch": 70, "duration": 2, "velocity": 76}, {"time": 2071, "pitch": 72, "duration": 7, "velocity": 84}, {"time": 2080, "pitch": 70, "duration": 5, "velocity": 83}, {"time": 2086, "pitch": 72, "duration": 8, "velocity": 89}, {"time": 2095, "pitch": 74, "duration": 7, "velocity": 94}, {"time": 2104, "pitch": 74, "duration": 6, "velocity": 91}, {"time": 2110, "pitch": 77, "duration": 4, "velocity": 91}, {"time": 2116, "pitch": 75, "duration": 5, "velocity": 89}, {"time": 2122, "pitch": 74, "duration": 4, "velocity": 89}, {"time": 2128, "pitch": 77, "duration": 9, "velocity": 88}, {"time": 2140, "pitch": 67, "duration": 15, "velocity": 88}, {"time": 2158, "pitch": 77, "duration": 4, "velocity": 87}, {"time": 2164, "pitch": 75, "duration": 5, "velocity": 93}, {"time": 2170, "pitch": 74, "duration": 4, "velocity": 96}, {"time": 2176, "pitch": 77, "duration": 6, "velocity": 87}, {"time": 2182, "pitch": 81, "duration": 6, "velocity": 90}, {"time": 2191, "pitch": 77, "duration": 3, "velocity": 88}, {"time": 2194, "pitch": 77, "duration": 5, "velocity": 88}, {"time": 2200, "pitch": 72, "duration": 4, "velocity": 88}, {"time": 2206, "pitch": 70, "duration": 8, "velocity": 88}, {"time": 2218, "pitch": 74, "duration": 5, "velocity": 103}, {"time": 2224, "pitch": 75, "duration": 4, "velocity": 91}, {"time": 2230, "pitch": 77, "duration": 4, "velocity": 88}, {"time": 2236, "pitch": 75, "duration": 5, "velocity": 88}, {"time": 2242, "pitch": 74, "duration": 4, "velocity": 92}, {"time": 2248, "pitch": 72, "duration": 4, "velocity": 88}, {"time": 2254, "pitch": 70, "duration": 12, "velocity": 87}, {"time": 2266, "pitch": 69, "duration": 6, "velocity": 89}, {"time": 2272, "pitch": 70, "duration": 21, "velocity": 88}, {"time": 2302, "pitch": 77, "duration": 4, "velocity": 91}, {"time": 2308, "pitch": 75, "duration": 5, "velocity": 89}, {"time": 2314, "pitch": 74, "duration": 4, "velocity": 89}, {"time": 2320, "pitch": 77, "duration": 9, "velocity": 88}, {"time": 2332, "pitch": 67, "duration": 15, "velocity": 88}, {"time": 2350, "pitch": 77, "duration": 4, "velocity": 87}, {"time": 2356, "pitch": 75, "duration": 5, "velocity": 93}, {"time": 2362, "pitch": 74, "duration": 4, "velocity": 96}, {"time": 2368, "pitch": 77, "duration": 6, "velocity": 87}, {"time": 2374, "pitch": 65, "duration": 17, "velocity": 90}, {"time": 2398, "pitch": 77, "duration": 5, "velocity": 88}, {"time": 2404, "pitch": 75, "duration": 5, "velocity": 88}, {"time": 2410, "pitch": 74, "duration": 4, "velocity": 88}, {"time": 2416, "pitch": 77, "duration": 8, "velocity": 88}, {"time": 2428, "pitch": 67, "duration": 5, "velocity": 83}, {"time": 2434, "pitch": 69, "duration": 5, "velocity": 87}, {"time": 2440, "pitch": 70, "duration": 4, "velocity": 83}, {"time": 2446, "pitch": 70, "duration": 5, "velocity": 87}, {"time": 2452, "pitch": 70, "duration": 2, "velocity": 76}, {"time": 2455, "pitch": 72, "duration": 7, "velocity": 84}, {"time": 2464, "pitch": 70, "duration": 5, "velocity": 83}, {"time": 2470, "pitch": 72, "duration": 8, "velocity": 89}, {"time": 2479, "pitch": 74, "duration": 7, "velocity": 94}, {"time": 2488, "pitch": 74, "duration": 6, "velocity": 91}, {"time": 2494, "pitch": 77, "duration": 4, "velocity": 91}, {"time": 2500, "pitch": 75, "duration": 5, "velocity": 89}, {"time": 2506, "pitch": 74, "duration": 4, "velocity": 89}, {"time": 2512, "pitch": 77, "duration": 9, "velocity": 88}, {"time": 2524, "pitch": 67, "duration": 15, "velocity": 88}, {"time": 2542, "pitch": 77, "duration": 4, "velocity": 87}, {"time": 2548, "pitch": 75, "duration": 5, "velocity": 93}, {"time": 2554, "pitch": 74, "duration": 4, "velocity": 96}, {"time": 2560, "pitch": 77, "duration": 6, "velocity": 87}, {"time": 2566, "pitch": 81, "duration": 6, "velocity": 90}, {"time": 2575, "pitch": 77, "duration": 3, "velocity": 88}, {"time": 2578, "pitch": 77, "duration": 5, "velocity": 88}, {"time": 2584, "pitch": 72, "duration": 4, "velocity": 88}, {"time": 2590, "pitch": 70, "duration": 8, "velocity": 88}, {"time": 2602, "pitch": 74, "duration": 5, "velocity": 103}, {"time": 2608, "pitch": 75, "duration": 4, "velocity": 91}, {"time": 2614, "pitch": 77, "duration": 4, "velocity": 88}, {"time": 2620, "pitch": 75, "duration": 5, "velocity": 88}, {"time": 2626, "pitch": 74, "duration": 4, "velocity": 92}, {"time": 2632, "pitch": 72, "duration": 4, "velocity": 88}, {"time": 2638, "pitch": 70, "duration": 12, "velocity": 87}, {"time": 2650, "pitch": 69, "duration": 6, "velocity": 89}, {"time": 2656, "pitch": 70, "duration": 21, "velocity": 88}, {"time": 2686, "pitch": 77, "duration": 4, "velocity": 91}, {"time": 2692, "pitch": 75, "duration": 5, "velocity": 89}, {"time": 2698, "pitch": 74, "duration": 4, "velocity": 89}, {"time": 2704, "pitch": 77, "duration": 9, "velocity": 88}, {"time": 2716, "pitch": 67, "duration": 15, "velocity": 88}, {"time": 2734, "pitch": 77, "duration": 4, "velocity": 87}, {"time": 2740, "pitch": 75, "duration": 5, "velocity": 93}, {"time": 2746, "pitch": 74, "duration": 4, "velocity": 96}, {"time": 2752, "pitch": 77, "duration": 6, "velocity": 87}, {"time": 2758, "pitch": 65, "duration": 17, "velocity": 90}, {"time": 2782, "pitch": 77, "duration": 5, "velocity": 88}, {"time": 2788, "pitch": 75, "duration": 5, "velocity": 88}, {"time": 2794, "pitch": 74, "duration": 4, "velocity": 88}, {"time": 2800, "pitch": 77, "duration": 8, "velocity": 88}, {"time": 2812, "pitch": 67, "duration": 5, "velocity": 83}, {"time": 2818, "pitch": 69, "duration": 5, "velocity": 87}, {"time": 2824, "pitch": 70, "duration": 4, "velocity": 83}, {"time": 2830, "pitch": 72, "duration": 3, "velocity": 91}, {"time": 2834, "pitch": 70, "duration": 3, "velocity": 92}, {"time": 2838, "pitch": 72, "duration": 2, "velocity": 91}, {"time": 2842, "pitch": 72, "duration": 3, "velocity": 89}, {"time": 2846, "pitch": 70, "duration": 3, "velocity": 89}, {"time": 2850, "pitch": 72, "duration": 3, "velocity": 91}, {"time": 2854, "pitch": 74, "duration": 6, "velocity": 92}, {"time": 2862, "pitch": 79, "duration": 7, "velocity": 81}, {"time": 2871, "pitch": 77, "duration": 6, "velocity": 88}, {"time": 2878, "pitch": 77, "duration": 4, "velocity": 91}, {"time": 2884, "pitch": 75, "duration": 5, "velocity": 89}, {"time": 2890, "pitch": 74, "duration": 4, "velocity": 89}, {"time": 2896, "pitch": 77, "duration": 9, "velocity": 88}, {"time": 2908, "pitch": 67, "duration": 15, "velocity": 88}, {"time": 2926, "pitch": 77, "duration": 4, "velocity": 87}, {"time": 2932, "pitch": 75, "duration": 5, "velocity": 93}, {"time": 2938, "pitch": 74, "duration": 4, "velocity": 96}, {"time": 2944, "pitch": 77, "duration": 6, "velocity": 87}, {"time": 2950, "pitch": 81, "duration": 6, "velocity": 90}, {"time": 2959, "pitch": 77, "duration": 3, "velocity": 88}, {"time": 2962, "pitch": 77, "duration": 5, "velocity": 88}, {"time": 2968, "pitch": 84, "duration": 4, "velocity": 88}, {"time": 2974, "pitch": 82, "duration": 45, "velocity": 88}, {"time": 3022, "pitch": 74, "duration": 7, "velocity": 89}, {"time": 3028, "pitch": 75, "duration": 5, "velocity": 80}, {"time": 3034, "pitch": 77, "duration": 6, "velocity": 85}, {"time": 3041, "pitch": 75, "duration": 5, "velocity": 94}, {"time": 3048, "pitch": 74, "duration": 6, "velocity": 91}, {"time": 3054, "pitch": 72, "duration": 5, "velocity": 84}, {"time": 3062, "pitch": 70, "duration": 31, "velocity": 76}, {"time": 3112, "pitch": 69, "duration": 9, "velocity": 84}, {"time": 3120, "pitch": 70, "duration": 43, "velocity": 82}]}, {"program": 0, "is_drum": false, "name": "BRIDGE", "notes": [{"time": 22, "pitch": 62, "duration": 6, "velocity": 88}, {"time": 22, "pitch": 70, "duration": 5, "velocity": 35}, {"time": 28, "pitch": 65, "duration": 6, "velocity": 82}, {"time": 34, "pitch": 70, "duration": 13, "velocity": 80}, {"time": 40, "pitch": 65, "duration": 6, "velocity": 83}, {"time": 46, "pitch": 63, "duration": 12, "velocity": 79}, {"time": 52, "pitch": 66, "duration": 6, "velocity": 82}, {"time": 58, "pitch": 70, "duration": 8, "velocity": 83}, {"time": 64, "pitch": 66, "duration": 6, "velocity": 83}, {"time": 70, "pitch": 62, "duration": 12, "velocity": 82}, {"time": 76, "pitch": 65, "duration": 7, "velocity": 82}, {"time": 82, "pitch": 70, "duration": 9, "velocity": 77}, {"time": 88, "pitch": 65, "duration": 6, "velocity": 81}, {"time": 92, "pitch": 63, "duration": 24, "velocity": 71}, {"time": 93, "pitch": 66, "duration": 23, "velocity": 81}, {"time": 93, "pitch": 70, "duration": 23, "velocity": 80}, {"time": 94, "pitch": 72, "duration": 22, "velocity": 83}, {"time": 118, "pitch": 62, "duration": 6, "velocity": 88}, {"time": 118, "pitch": 70, "duration": 5, "velocity": 35}, {"time": 124, "pitch": 65, "duration": 6, "velocity": 82}, {"time": 130, "pitch": 70, "duration": 13, "velocity": 80}, {"time": 136, "pitch": 65, "duration": 6, "velocity": 83}, {"time": 142, "pitch": 63, "duration": 12, "velocity": 79}, {"time": 148, "pitch": 66, "duration": 6, "velocity": 82}, {"time": 154, "pitch": 70, "duration": 8, "velocity": 83}, {"time": 160, "pitch": 66, "duration": 6, "velocity": 83}, {"time": 166, "pitch": 62, "duration": 12, "velocity": 82}, {"time": 172, "pitch": 65, "duration": 7, "velocity": 82}, {"time": 178, "pitch": 70, "duration": 9, "velocity": 77}, {"time": 184, "pitch": 65, "duration": 6, "velocity": 81}, {"time": 188, "pitch": 63, "duration": 24, "velocity": 71}, {"time": 189, "pitch": 66, "duration": 23, "velocity": 81}, {"time": 189, "pitch": 70, "duration": 23, "velocity": 80}, {"time": 190, "pitch": 72, "duration": 22, "velocity": 83}, {"time": 214, "pitch": 62, "duration": 6, "velocity": 88}, {"time": 214, "pitch": 70, "duration": 5, "velocity": 35}, {"time": 220, "pitch": 65, "duration": 6, "velocity": 82}, {"time": 226, "pitch": 70, "duration": 13, "velocity": 80}, {"time": 232, "pitch": 65, "duration": 6, "velocity": 83}, {"time": 238, "pitch": 63, "duration": 12, "velocity": 79}, {"time": 244, "pitch": 66, "duration": 6, "velocity": 82}, {"time": 250, "pitch": 70, "duration": 8, "velocity": 83}, {"time": 256, "pitch": 66, "duration": 6, "velocity": 83}, {"time": 262, "pitch": 62, "duration": 12, "velocity": 82}, {"time": 268, "pitch": 65, "duration": 7, "velocity": 82}, {"time": 274, "pitch": 70, "duration": 9, "velocity": 77}, {"time": 280, "pitch": 65, "duration": 6, "velocity": 81}, {"time": 286, "pitch": 63, "duration": 12, "velocity": 79}, {"time": 292, "pitch": 66, "duration": 6, "velocity": 82}, {"time": 298, "pitch": 70, "duration": 8, "velocity": 83}, {"time": 304, "pitch": 66, "duration": 6, "velocity": 83}, {"time": 310, "pitch": 62, "duration": 6, "velocity": 88}, {"time": 310, "pitch": 70, "duration": 5, "velocity": 35}, {"time": 316, "pitch": 65, "duration": 6, "velocity": 82}, {"time": 322, "pitch": 70, "duration": 13, "velocity": 80}, {"time": 328, "pitch": 65, "duration": 6, "velocity": 83}, {"time": 334, "pitch": 63, "duration": 12, "velocity": 79}, {"time": 340, "pitch": 66, "duration": 6, "velocity": 82}, {"time": 346, "pitch": 70, "duration": 8, "velocity": 83}, {"time": 352, "pitch": 66, "duration": 6, "velocity": 83}, {"time": 364, "pitch": 65, "duration": 7, "velocity": 80}, {"time": 370, "pitch": 70, "duration": 17, "velocity": 76}, {"time": 376, "pitch": 65, "duration": 7, "velocity": 70}, {"time": 382, "pitch": 56, "duration": 9, "velocity": 75}, {"time": 388, "pitch": 63, "duration": 7, "velocity": 80}, {"time": 394, "pitch": 58, "duration": 12, "velocity": 75}, {"time": 400, "pitch": 63, "duration": 5, "velocity": 72}, {"time": 406, "pitch": 58, "duration": 1, "velocity": 72}, {"time": 412, "pitch": 63, "duration": 8, "velocity": 72}, {"time": 418, "pitch": 70, "duration": 13, "velocity": 74}, {"time": 424, "pitch": 63, "duration": 6, "velocity": 75}, {"time": 430, "pitch": 60, "duration": 19, "velocity": 74}, {"time": 436, "pitch": 65, "duration": 7, "velocity": 77}, {"time": 442, "pitch": 69, "duration": 14, "velocity": 79}, {"time": 448, "pitch": 65, "duration": 7, "velocity": 77}, {"time": 454, "pitch": 62, "duration": 23, "velocity": 67}, {"time": 460, "pitch": 65, "duration": 18, "velocity": 76}, {"time": 466, "pitch": 69, "duration": 12, "velocity": 72}, {"time": 478, "pitch": 62, "duration": 20, "velocity": 75}, {"time": 484, "pitch": 67, "duration": 8, "velocity": 76}, {"time": 490, "pitch": 70, "duration": 15, "velocity": 79}, {"time": 496, "pitch": 67, "duration": 5, "velocity": 46}, {"time": 502, "pitch": 60, "duration": 24, "velocity": 69}, {"time": 508, "pitch": 67, "duration": 18, "velocity": 75}, {"time": 514, "pitch": 70, "duration": 12, "velocity": 76}, {"time": 550, "pitch": 60, "duration": 43, "velocity": 82}, {"time": 556, "pitch": 65, "duration": 7, "velocity": 75}, {"time": 562, "pitch": 69, "duration": 7, "velocity": 81}, {"time": 568, "pitch": 65, "duration": 25, "velocity": 79}, {"time": 574, "pitch": 72, "duration": 18, "velocity": 74}, {"time": 598, "pitch": 62, "duration": 6, "velocity": 88}, {"time": 598, "pitch": 70, "duration": 5, "velocity": 35}, {"time": 604, "pitch": 65, "duration": 6, "velocity": 82}, {"time": 610, "pitch": 70, "duration": 13, "velocity": 80}, {"time": 616, "pitch": 65, "duration": 6, "velocity": 83}, {"time": 622, "pitch": 63, "duration": 12, "velocity": 79}, {"time": 628, "pitch": 66, "duration": 6, "velocity": 82}, {"time": 634, "pitch": 70, "duration": 8, "velocity": 83}, {"time": 640, "pitch": 66, "duration": 6, "velocity": 83}, {"time": 646, "pitch": 62, "duration": 12, "velocity": 82}, {"time": 652, "pitch": 65, "duration": 7, "velocity": 82}, {"time": 658, "pitch": 70, "duration": 9, "velocity": 77}, {"time": 664, "pitch": 65, "duration": 6, "velocity": 81}, {"time": 670, "pitch": 63, "duration": 12, "velocity": 79}, {"time": 676, "pitch": 66, "duration": 6, "velocity": 82}, {"time": 682, "pitch": 70, "duration": 8, "velocity": 83}, {"time": 688, "pitch": 66, "duration": 6, "velocity": 83}, {"time": 694, "pitch": 62, "duration": 6, "velocity": 88}, {"time": 694, "pitch": 70, "duration": 5, "velocity": 35}, {"time": 700, "pitch": 65, "duration": 6, "velocity": 82}, {"time": 706, "pitch": 70, "duration": 13, "velocity": 80}, {"time": 712, "pitch": 65, "duration": 6, "velocity": 83}, {"time": 718, "pitch": 63, "duration": 12, "velocity": 79}, {"time": 724, "pitch": 66, "duration": 6, "velocity": 82}, {"time": 730, "pitch": 70, "duration": 8, "velocity": 83}, {"time": 736, "pitch": 66, "duration": 6, "velocity": 83}, {"time": 748, "pitch": 65, "duration": 7, "velocity": 80}, {"time": 754, "pitch": 70, "duration": 17, "velocity": 76}, {"time": 760, "pitch": 65, "duration": 7, "velocity": 70}, {"time": 766, "pitch": 56, "duration": 9, "velocity": 75}, {"time": 772, "pitch": 63, "duration": 7, "velocity": 80}, {"time": 778, "pitch": 58, "duration": 12, "velocity": 75}, {"time": 784, "pitch": 63, "duration": 5, "velocity": 72}, {"time": 790, "pitch": 58, "duration": 1, "velocity": 72}, {"time": 796, "pitch": 63, "duration": 8, "velocity": 72}, {"time": 802, "pitch": 70, "duration": 13, "velocity": 74}, {"time": 808, "pitch": 63, "duration": 6, "velocity": 75}, {"time": 814, "pitch": 60, "duration": 19, "velocity": 74}, {"time": 820, "pitch": 65, "duration": 7, "velocity": 77}, {"time": 826, "pitch": 69, "duration": 14, "velocity": 79}, {"time": 832, "pitch": 65, "duration": 7, "velocity": 77}, {"time": 838, "pitch": 62, "duration": 23, "velocity": 67}, {"time": 844, "pitch": 65, "duration": 18, "velocity": 76}, {"time": 850, "pitch": 69, "duration": 12, "velocity": 72}, {"time": 862, "pitch": 62, "duration": 20, "velocity": 75}, {"time": 868, "pitch": 67, "duration": 8, "velocity": 76}, {"time": 874, "pitch": 70, "duration": 15, "velocity": 79}, {"time": 880, "pitch": 67, "duration": 5, "velocity": 46}, {"time": 886, "pitch": 60, "duration": 24, "velocity": 69}, {"time": 892, "pitch": 67, "duration": 18, "velocity": 75}, {"time": 898, "pitch": 70, "duration": 12, "velocity": 76}, {"time": 934, "pitch": 60, "duration": 43, "velocity": 82}, {"time": 940, "pitch": 65, "duration": 7, "velocity": 75}, {"time": 946, "pitch": 69, "duration": 7, "velocity": 81}, {"time": 952, "pitch": 65, "duration": 25, "velocity": 79}, {"time": 958, "pitch": 72, "duration": 18, "velocity": 74}, {"time": 982, "pitch": 70, "duration": 22, "velocity": 88}, {"time": 1006, "pitch": 72, "duration": 12, "velocity": 88}, {"time": 1018, "pitch": 70, "duration": 13, "velocity": 88}, {"time": 1030, "pitch": 69, "duration": 24, "velocity": 86}, {"time": 1054, "pitch": 72, "duration": 12, "velocity": 84}, {"time": 1066, "pitch": 70, "duration": 10, "velocity": 87}, {"time": 1078, "pitch": 67, "duration": 12, "velocity": 77}, {"time": 1078, "pitch": 75, "duration": 13, "velocity": 81}, {"time": 1090, "pitch": 74, "duration": 12, "velocity": 89}, {"time": 1102, "pitch": 72, "duration": 16, "velocity": 80}, {"time": 1126, "pitch": 70, "duration": 22, "velocity": 79}, {"time": 1126, "pitch": 74, "duration": 23, "velocity": 88}, {"time": 1150, "pitch": 72, "duration": 12, "velocity": 83}, {"time": 1162, "pitch": 70, "duration": 12, "velocity": 77}, {"time": 1186, "pitch": 75, "duration": 13, "velocity": 83}, {"time": 1198, "pitch": 74, "duration": 12, "velocity": 87}, {"time": 1210, "pitch": 72, "duration": 12, "velocity": 82}, {"time": 1222, "pitch": 77, "duration": 18, "velocity": 84}, {"time": 1246, "pitch": 74, "duration": 6, "velocity": 81}, {"time": 1246, "pitch": 79, "duration": 6, "velocity": 77}, {"time": 1252, "pitch": 77, "duration": 7, "velocity": 83}, {"time": 1258, "pitch": 74, "duration": 9, "velocity": 82}, {"time": 1270, "pitch": 72, "duration": 19, "velocity": 83}, {"time": 1288, "pitch": 70, "duration": 5, "velocity": 81}, {"time": 1294, "pitch": 65, "duration": 20, "velocity": 77}, {"time": 1294, "pitch": 69, "duration": 18, "velocity": 78}, {"time": 1318, "pitch": 70, "duration": 43, "velocity": 77}, {"time": 1318, "pitch": 74, "duration": 23, "velocity": 88}, {"time": 1366, "pitch": 68, "duration": 3, "velocity": 89}, {"time": 1369, "pitch": 68, "duration": 3, "velocity": 91}, {"time": 1372, "pitch": 68, "duration": 3, "velocity": 91}, {"time": 1375, "pitch": 68, "duration": 2, "velocity": 98}, {"time": 1378, "pitch": 68, "duration": 2, "velocity": 93}, {"time": 1381, "pitch": 68, "duration": 2, "velocity": 96}, {"time": 1384, "pitch": 68, "duration": 2, "velocity": 89}, {"time": 1387, "pitch": 68, "duration": 2, "velocity": 89}, {"time": 1390, "pitch": 67, "duration": 2, "velocity": 89}, {"time": 1393, "pitch": 67, "duration": 2, "velocity": 89}, {"time": 1396, "pitch": 67, "duration": 2, "velocity": 89}, {"time": 1399, "pitch": 67, "duration": 2, "velocity": 91}, {"time": 1402, "pitch": 67, "duration": 2, "velocity": 89}, {"time": 1405, "pitch": 67, "duration": 2, "velocity": 91}, {"time": 1408, "pitch": 67, "duration": 2, "velocity": 88}, {"time": 1411, "pitch": 67, "duration": 2, "velocity": 89}, {"time": 1414, "pitch": 66, "duration": 2, "velocity": 89}, {"time": 1417, "pitch": 66, "duration": 2, "velocity": 89}, {"time": 1420, "pitch": 66, "duration": 1, "velocity": 87}, {"time": 1423, "pitch": 66, "duration": 2, "velocity": 87}, {"time": 1426, "pitch": 66, "duration": 2, "velocity": 90}, {"time": 1429, "pitch": 66, "duration": 2, "velocity": 89}, {"time": 1432, "pitch": 66, "duration": 2, "velocity": 89}, {"time": 1435, "pitch": 66, "duration": 2, "velocity": 92}, {"time": 1438, "pitch": 65, "duration": 2, "velocity": 89}, {"time": 1441, "pitch": 65, "duration": 2, "velocity": 88}, {"time": 1444, "pitch": 65, "duration": 2, "velocity": 89}, {"time": 1447, "pitch": 65, "duration": 2, "velocity": 89}, {"time": 1450, "pitch": 65, "duration": 2, "velocity": 92}, {"time": 1453, "pitch": 65, "duration": 2, "velocity": 89}, {"time": 1456, "pitch": 65, "duration": 2, "velocity": 89}, {"time": 1459, "pitch": 65, "duration": 2, "velocity": 90}, {"time": 1462, "pitch": 68, "duration": 2, "velocity": 91}, {"time": 1465, "pitch": 68, "duration": 2, "velocity": 91}, {"time": 1468, "pitch": 68, "duration": 2, "velocity": 89}, {"time": 1471, "pitch": 68, "duration": 2, "velocity": 89}, {"time": 1474, "pitch": 68, "duration": 1, "velocity": 91}, {"time": 1477, "pitch": 68, "duration": 2, "velocity": 88}, {"time": 1480, "pitch": 68, "duration": 2, "velocity": 89}, {"time": 1483, "pitch": 68, "duration": 2, "velocity": 89}, {"time": 1486, "pitch": 67, "duration": 1, "velocity": 87}, {"time": 1489, "pitch": 67, "duration": 2, "velocity": 84}, {"time": 1492, "pitch": 67, "duration": 1, "velocity": 87}, {"time": 1495, "pitch": 67, "duration": 2, "velocity": 83}, {"time": 1498, "pitch": 67, "duration": 2, "velocity": 88}, {"time": 1501, "pitch": 67, "duration": 2, "velocity": 85}, {"time": 1504, "pitch": 67, "duration": 2, "velocity": 86}, {"time": 1507, "pitch": 67, "duration": 2, "velocity": 87}, {"time": 1510, "pitch": 66, "duration": 2, "velocity": 89}, {"time": 1513, "pitch": 66, "duration": 2, "velocity": 87}, {"time": 1516, "pitch": 66, "duration": 2, "velocity": 87}, {"time": 1519, "pitch": 66, "duration": 2, "velocity": 85}, {"time": 1522, "pitch": 66, "duration": 2, "velocity": 89}, {"time": 1525, "pitch": 66, "duration": 2, "velocity": 89}, {"time": 1528, "pitch": 66, "duration": 2, "velocity": 89}, {"time": 1531, "pitch": 66, "duration": 2, "velocity": 88}, {"time": 1534, "pitch": 65, "duration": 2, "velocity": 89}, {"time": 1537, "pitch": 65, "duration": 2, "velocity": 88}, {"time": 1540, "pitch": 65, "duration": 2, "velocity": 90}, {"time": 1543, "pitch": 65, "duration": 2, "velocity": 87}, {"time": 1546, "pitch": 65, "duration": 2, "velocity": 89}, {"time": 1549, "pitch": 65, "duration": 2, "velocity": 87}, {"time": 1552, "pitch": 65, "duration": 2, "velocity": 89}, {"time": 1555, "pitch": 65, "duration": 2, "velocity": 87}, {"time": 1558, "pitch": 62, "duration": 6, "velocity": 88}, {"time": 1558, "pitch": 65, "duration": 12, "velocity": 88}, {"time": 1558, "pitch": 70, "duration": 5, "velocity": 35}, {"time": 1564, "pitch": 65, "duration": 6, "velocity": 82}, {"time": 1570, "pitch": 70, "duration": 13, "velocity": 80}, {"time": 1576, "pitch": 65, "duration": 6, "velocity": 83}, {"time": 1582, "pitch": 63, "duration": 12, "velocity": 79}, {"time": 1588, "pitch": 66, "duration": 6, "velocity": 82}, {"time": 1594, "pitch": 70, "duration": 8, "velocity": 83}, {"time": 1600, "pitch": 66, "duration": 6, "velocity": 83}, {"time": 1606, "pitch": 62, "duration": 12, "velocity": 82}, {"time": 1612, "pitch": 65, "duration": 7, "velocity": 82}, {"time": 1618, "pitch": 70, "duration": 9, "velocity": 77}, {"time": 1624, "pitch": 65, "duration": 6, "velocity": 81}, {"time": 1630, "pitch": 63, "duration": 12, "velocity": 79}, {"time": 1636, "pitch": 66, "duration": 6, "velocity": 82}, {"time": 1642, "pitch": 70, "duration": 8, "velocity": 83}, {"time": 1648, "pitch": 66, "duration": 6, "velocity": 83}, {"time": 1654, "pitch": 62, "duration": 6, "velocity": 88}, {"time": 1654, "pitch": 70, "duration": 5, "velocity": 35}, {"time": 1660, "pitch": 65, "duration": 6, "velocity": 82}, {"time": 1666, "pitch": 70, "duration": 13, "velocity": 80}, {"time": 1672, "pitch": 65, "duration": 6, "velocity": 83}, {"time": 1678, "pitch": 63, "duration": 12, "velocity": 79}, {"time": 1684, "pitch": 66, "duration": 6, "velocity": 82}, {"time": 1690, "pitch": 70, "duration": 8, "velocity": 83}, {"time": 1696, "pitch": 66, "duration": 6, "velocity": 83}, {"time": 1708, "pitch": 65, "duration": 7, "velocity": 80}, {"time": 1714, "pitch": 70, "duration": 17, "velocity": 76}, {"time": 1720, "pitch": 65, "duration": 7, "velocity": 70}, {"time": 1726, "pitch": 56, "duration": 9, "velocity": 75}, {"time": 1732, "pitch": 63, "duration": 7, "velocity": 80}, {"time": 1738, "pitch": 58, "duration": 12, "velocity": 75}, {"time": 1744, "pitch": 63, "duration": 5, "velocity": 72}, {"time": 1750, "pitch": 58, "duration": 1, "velocity": 72}, {"time": 1756, "pitch": 63, "duration": 8, "velocity": 72}, {"time": 1762, "pitch": 70, "duration": 13, "velocity": 74}, {"time": 1768, "pitch": 63, "duration": 6, "velocity": 75}, {"time": 1774, "pitch": 60, "duration": 19, "velocity": 74}, {"time": 1780, "pitch": 65, "duration": 7, "velocity": 77}, {"time": 1786, "pitch": 69, "duration": 14, "velocity": 79}, {"time": 1792, "pitch": 65, "duration": 7, "velocity": 77}, {"time": 1798, "pitch": 62, "duration": 23, "velocity": 67}, {"time": 1804, "pitch": 65, "duration": 18, "velocity": 76}, {"time": 1810, "pitch": 69, "duration": 12, "velocity": 72}, {"time": 1822, "pitch": 62, "duration": 20, "velocity": 75}, {"time": 1828, "pitch": 67, "duration": 8, "velocity": 76}, {"time": 1834, "pitch": 70, "duration": 15, "velocity": 79}, {"time": 1840, "pitch": 67, "duration": 5, "velocity": 46}, {"time": 1846, "pitch": 60, "duration": 24, "velocity": 69}, {"time": 1852, "pitch": 67, "duration": 18, "velocity": 75}, {"time": 1858, "pitch": 70, "duration": 12, "velocity": 76}, {"time": 1894, "pitch": 60, "duration": 43, "velocity": 82}, {"time": 1900, "pitch": 65, "duration": 7, "velocity": 75}, {"time": 1906, "pitch": 69, "duration": 7, "velocity": 81}, {"time": 1912, "pitch": 65, "duration": 25, "velocity": 79}, {"time": 1918, "pitch": 72, "duration": 18, "velocity": 74}, {"time": 1942, "pitch": 70, "duration": 22, "velocity": 88}, {"time": 1966, "pitch": 72, "duration": 12, "velocity": 88}, {"time": 1978, "pitch": 70, "duration": 13, "velocity": 88}, {"time": 1990, "pitch": 69, "duration": 24, "velocity": 86}, {"time": 2014, "pitch": 72, "duration": 12, "velocity": 84}, {"time": 2026, "pitch": 70, "duration": 10, "velocity": 87}, {"time": 2038, "pitch": 67, "duration": 12, "velocity": 77}, {"time": 2038, "pitch": 75, "duration": 13, "velocity": 81}, {"time": 2050, "pitch": 74, "duration": 12, "velocity": 89}, {"time": 2062, "pitch": 72, "duration": 16, "velocity": 80}, {"time": 2086, "pitch": 70, "duration": 22, "velocity": 79}, {"time": 2086, "pitch": 74, "duration": 23, "velocity": 88}, {"time": 2110, "pitch": 72, "duration": 12, "velocity": 83}, {"time": 2122, "pitch": 70, "duration": 12, "velocity": 77}, {"time": 2146, "pitch": 75, "duration": 13, "velocity": 83}, {"time": 2158, "pitch": 74, "duration": 12, "velocity": 87}, {"time": 2170, "pitch": 72, "duration": 12, "velocity": 82}, {"time": 2182, "pitch": 77, "duration": 18, "velocity": 84}, {"time": 2206, "pitch": 74, "duration": 6, "velocity": 81}, {"time": 2206, "pitch": 79, "duration": 6, "velocity": 77}, {"time": 2212, "pitch": 77, "duration": 7, "velocity": 83}, {"time": 2218, "pitch": 74, "duration": 9, "velocity": 82}, {"time": 2230, "pitch": 72, "duration": 19, "velocity": 83}, {"time": 2248, "pitch": 70, "duration": 5, "velocity": 81}, {"time": 2254, "pitch": 65, "duration": 20, "velocity": 77}, {"time": 2254, "pitch": 69, "duration": 18, "velocity": 78}, {"time": 2278, "pitch": 70, "duration": 43, "velocity": 77}, {"time": 2278, "pitch": 74, "duration": 23, "velocity": 88}, {"time": 2326, "pitch": 70, "duration": 19, "velocity": 79}, {"time": 2344, "pitch": 67, "duration": 6, "velocity": 77}, {"time": 2350, "pitch": 70, "duration": 13, "velocity": 74}, {"time": 2362, "pitch": 72, "duration": 13, "velocity": 88}, {"time": 2374, "pitch": 65, "duration": 27, "velocity": 76}, {"time": 2374, "pitch": 69, "duration": 28, "velocity": 76}, {"time": 2410, "pitch": 67, "duration": 6, "velocity": 73}, {"time": 2410, "pitch": 70, "duration": 7, "velocity": 77}, {"time": 2416, "pitch": 69, "duration": 6, "velocity": 78}, {"time": 2422, "pitch": 67, "duration": 18, "velocity": 79}, {"time": 2446, "pitch": 65, "duration": 19, "velocity": 76}, {"time": 2446, "pitch": 69, "duration": 18, "velocity": 79}, {"time": 2470, "pitch": 70, "duration": 13, "velocity": 75}, {"time": 2482, "pitch": 72, "duration": 13, "velocity": 84}, {"time": 2494, "pitch": 70, "duration": 7, "velocity": 78}, {"time": 2500, "pitch": 72, "duration": 6, "velocity": 83}, {"time": 2506, "pitch": 74, "duration": 11, "velocity": 89}, {"time": 2518, "pitch": 75, "duration": 18, "velocity": 83}, {"time": 2536, "pitch": 70, "duration": 6, "velocity": 73}, {"time": 2542, "pitch": 72, "duration": 16, "velocity": 86}, {"time": 2560, "pitch": 72, "duration": 4, "velocity": 83}, {"time": 2566, "pitch": 74, "duration": 19, "velocity": 87}, {"time": 2584, "pitch": 77, "duration": 6, "velocity": 80}, {"time": 2590, "pitch": 79, "duration": 12, "velocity": 81}, {"time": 2602, "pitch": 77, "duration": 7, "velocity": 78}, {"time": 2614, "pitch": 72, "duration": 13, "velocity": 76}, {"time": 2614, "pitch": 75, "duration": 13, "velocity": 74}, {"time": 2626, "pitch": 74, "duration": 12, "velocity": 80}, {"time": 2638, "pitch": 72, "duration": 14, "velocity": 76}, {"time": 2656, "pitch": 69, "duration": 5, "velocity": 76}, {"time": 2662, "pitch": 70, "duration": 20, "velocity": 78}, {"time": 2710, "pitch": 70, "duration": 22, "velocity": 88}, {"time": 2734, "pitch": 72, "duration": 12, "velocity": 88}, {"time": 2746, "pitch": 70, "duration": 13, "velocity": 88}, {"time": 2758, "pitch": 69, "duration": 24, "velocity": 86}, {"time": 2782, "pitch": 72, "duration": 12, "velocity": 84}, {"time": 2794, "pitch": 70, "duration": 10, "velocity": 87}, {"time": 2806, "pitch": 67, "duration": 12, "velocity": 77}, {"time": 2806, "pitch": 75, "duration": 13, "velocity": 81}, {"time": 2818, "pitch": 74, "duration": 12, "velocity": 89}, {"time": 2830, "pitch": 72, "duration": 16, "velocity": 80}, {"time": 2854, "pitch": 70, "duration": 22, "velocity": 79}, {"time": 2854, "pitch": 74, "duration": 23, "velocity": 88}, {"time": 2878, "pitch": 72, "duration": 12, "velocity": 83}, {"time": 2890, "pitch": 70, "duration": 12, "velocity": 77}, {"time": 2914, "pitch": 75, "duration": 13, "velocity": 83}, {"time": 2926, "pitch": 74, "duration": 12, "velocity": 87}, {"time": 2938, "pitch": 72, "duration": 12, "velocity": 82}, {"time": 2950, "pitch": 77, "duration": 18, "velocity": 84}, {"time": 2974, "pitch": 74, "duration": 6, "velocity": 81}, {"time": 2974, "pitch": 79, "duration": 6, "velocity": 77}, {"time": 2980, "pitch": 77, "duration": 7, "velocity": 83}, {"time": 2986, "pitch": 74, "duration": 9, "velocity": 82}, {"time": 3118, "pitch": 62, "duration": 6, "velocity": 88}, {"time": 3118, "pitch": 70, "duration": 5, "velocity": 35}, {"time": 3124, "pitch": 65, "duration": 6, "velocity": 82}, {"time": 3130, "pitch": 70, "duration": 13, "velocity": 80}, {"time": 3136, "pitch": 65, "duration": 6, "velocity": 83}, {"time": 3142, "pitch": 63, "duration": 12, "velocity": 79}, {"time": 3148, "pitch": 66, "duration": 6, "velocity": 82}, {"time": 3154, "pitch": 70, "duration": 8, "velocity": 83}, {"time": 3160, "pitch": 66, "duration": 6, "velocity": 83}, {"time": 3166, "pitch": 62, "duration": 12, "velocity": 82}, {"time": 3172, "pitch": 65, "duration": 7, "velocity": 82}, {"time": 3178, "pitch": 70, "duration": 9, "velocity": 77}, {"time": 3184, "pitch": 65, "duration": 6, "velocity": 81}, {"time": 3188, "pitch": 63, "duration": 24, "velocity": 71}, {"time": 3189, "pitch": 66, "duration": 23, "velocity": 81}, {"time": 3189, "pitch": 70, "duration": 23, "velocity": 80}, {"time": 3190, "pitch": 72, "duration": 22, "velocity": 83}, {"time": 3214, "pitch": 62, "duration": 6, "velocity": 88}, {"time": 3214, "pitch": 70, "duration": 5, "velocity": 35}, {"time": 3220, "pitch": 65, "duration": 6, "velocity": 82}, {"time": 3226, "pitch": 70, "duration": 13, "velocity": 80}, {"time": 3232, "pitch": 65, "duration": 6, "velocity": 83}, {"time": 3238, "pitch": 63, "duration": 12, "velocity": 79}, {"time": 3244, "pitch": 66, "duration": 6, "velocity": 82}, {"time": 3250, "pitch": 70, "duration": 8, "velocity": 83}, {"time": 3256, "pitch": 66, "duration": 6, "velocity": 83}, {"time": 3262, "pitch": 62, "duration": 12, "velocity": 82}, {"time": 3268, "pitch": 65, "duration": 7, "velocity": 82}, {"time": 3274, "pitch": 70, "duration": 9, "velocity": 77}, {"time": 3280, "pitch": 65, "duration": 6, "velocity": 81}, {"time": 3284, "pitch": 63, "duration": 24, "velocity": 71}, {"time": 3285, "pitch": 66, "duration": 23, "velocity": 81}, {"time": 3285, "pitch": 70, "duration": 23, "velocity": 80}, {"time": 3286, "pitch": 72, "duration": 22, "velocity": 83}]}, {"program": 0, "is_drum": false, "name": "PIANO", "notes": [{"time": 22, "pitch": 46, "duration": 23, "velocity": 79}, {"time": 22, "pitch": 53, "duration": 22, "velocity": 71}, {"time": 22, "pitch": 58, "duration": 22, "velocity": 74}, {"time": 46, "pitch": 39, "duration": 22, "velocity": 74}, {"time": 46, "pitch": 51, "duration": 21, "velocity": 69}, {"time": 46, "pitch": 58, "duration": 22, "velocity": 70}, {"time": 70, "pitch": 46, "duration": 22, "velocity": 75}, {"time": 70, "pitch": 53, "duration": 21, "velocity": 64}, {"time": 70, "pitch": 58, "duration": 22, "velocity": 71}, {"time": 94, "pitch": 39, "duration": 22, "velocity": 73}, {"time": 94, "pitch": 51, "duration": 22, "velocity": 75}, {"time": 94, "pitch": 58, "duration": 2, "velocity": 53}, {"time": 118, "pitch": 46, "duration": 23, "velocity": 79}, {"time": 118, "pitch": 53, "duration": 22, "velocity": 71}, {"time": 118, "pitch": 58, "duration": 22, "velocity": 74}, {"time": 142, "pitch": 39, "duration": 22, "velocity": 74}, {"time": 142, "pitch": 51, "duration": 21, "velocity": 69}, {"time": 142, "pitch": 58, "duration": 22, "velocity": 70}, {"time": 166, "pitch": 46, "duration": 22, "velocity": 75}, {"time": 166, "pitch": 53, "duration": 21, "velocity": 64}, {"time": 166, "pitch": 58, "duration": 22, "velocity": 71}, {"time": 190, "pitch": 39, "duration": 22, "velocity": 73}, {"time": 190, "pitch": 51, "duration": 22, "velocity": 75}, {"time": 190, "pitch": 58, "duration": 2, "velocity": 53}, {"time": 214, "pitch": 46, "duration": 18, "velocity": 76}, {"time": 214, "pitch": 58, "duration": 8, "velocity": 71}, {"time": 214, "pitch": 62, "duration": 8, "velocity": 80}, {"time": 226, "pitch": 58, "duration": 4, "velocity": 74}, {"time": 226, "pitch": 62, "duration": 4, "velocity": 82}, {"time": 226, "pitch": 65, "duration": 6, "velocity": 80}, {"time": 238, "pitch": 39, "duration": 15, "velocity": 89}, {"time": 244, "pitch": 51, "duration": 5, "velocity": 81}, {"time": 250, "pitch": 51, "duration": 4, "velocity": 78}, {"time": 250, "pitch": 54, "duration": 3, "velocity": 79}, {"time": 250, "pitch": 63, "duration": 6, "velocity": 80}, {"time": 262, "pitch": 46, "duration": 15, "velocity": 78}, {"time": 268, "pitch": 53, "duration": 8, "velocity": 75}, {"time": 274, "pitch": 58, "duration": 2, "velocity": 76}, {"time": 274, "pitch": 62, "duration": 6, "velocity": 84}, {"time": 280, "pitch": 58, "duration": 2, "velocity": 74}, {"time": 286, "pitch": 39, "duration": 13, "velocity": 81}, {"time": 292, "pitch": 46, "duration": 6, "velocity": 66}, {"time": 298, "pitch": 51, "duration": 1, "velocity": 79}, {"time": 298, "pitch": 63, "duration": 2, "velocity": 81}, {"time": 310, "pitch": 46, "duration": 20, "velocity": 83}, {"time": 310, "pitch": 58, "duration": 6, "velocity": 72}, {"time": 310, "pitch": 62, "duration": 6, "velocity": 81}, {"time": 316, "pitch": 53, "duration": 12, "velocity": 56}, {"time": 322, "pitch": 58, "duration": 2, "velocity": 72}, {"time": 322, "pitch": 62, "duration": 8, "velocity": 80}, {"time": 322, "pitch": 65, "duration": 12, "velocity": 76}, {"time": 328, "pitch": 58, "duration": 5, "velocity": 72}, {"time": 334, "pitch": 39, "duration": 14, "velocity": 76}, {"time": 340, "pitch": 46, "duration": 8, "velocity": 66}, {"time": 346, "pitch": 51, "duration": 3, "velocity": 79}, {"time": 346, "pitch": 54, "duration": 7, "velocity": 88}, {"time": 346, "pitch": 63, "duration": 12, "velocity": 81}, {"time": 352, "pitch": 51, "duration": 4, "velocity": 81}, {"time": 358, "pitch": 43, "duration": 20, "velocity": 87}, {"time": 358, "pitch": 55, "duration": 7, "velocity": 80}, {"time": 358, "pitch": 62, "duration": 6, "velocity": 80}, {"time": 364, "pitch": 50, "duration": 11, "velocity": 76}, {"time": 370, "pitch": 58, "duration": 7, "velocity": 74}, {"time": 370, "pitch": 62, "duration": 15, "velocity": 84}, {"time": 376, "pitch": 55, "duration": 6, "velocity": 87}, {"time": 382, "pitch": 41, "duration": 12, "velocity": 86}, {"time": 388, "pitch": 53, "duration": 4, "velocity": 84}, {"time": 394, "pitch": 46, "duration": 5, "velocity": 85}, {"time": 394, "pitch": 53, "duration": 3, "velocity": 84}, {"time": 394, "pitch": 58, "duration": 5, "velocity": 76}, {"time": 394, "pitch": 62, "duration": 6, "velocity": 86}, {"time": 400, "pitch": 53, "duration": 1, "velocity": 79}, {"time": 406, "pitch": 39, "duration": 15, "velocity": 87}, {"time": 406, "pitch": 51, "duration": 6, "velocity": 78}, {"time": 406, "pitch": 55, "duration": 3, "velocity": 87}, {"time": 406, "pitch": 58, "duration": 3, "velocity": 83}, {"time": 412, "pitch": 46, "duration": 9, "velocity": 74}, {"time": 418, "pitch": 51, "duration": 4, "velocity": 87}, {"time": 418, "pitch": 63, "duration": 4, "velocity": 87}, {"time": 430, "pitch": 41, "duration": 15, "velocity": 83}, {"time": 430, "pitch": 53, "duration": 9, "velocity": 75}, {"time": 430, "pitch": 57, "duration": 7, "velocity": 79}, {"time": 436, "pitch": 48, "duration": 9, "velocity": 72}, {"time": 442, "pitch": 53, "duration": 2, "velocity": 80}, {"time": 442, "pitch": 57, "duration": 2, "velocity": 78}, {"time": 442, "pitch": 60, "duration": 3, "velocity": 83}, {"time": 454, "pitch": 50, "duration": 14, "velocity": 83}, {"time": 454, "pitch": 57, "duration": 3, "velocity": 75}, {"time": 454, "pitch": 62, "duration": 8, "velocity": 79}, {"time": 460, "pitch": 57, "duration": 5, "velocity": 71}, {"time": 466, "pitch": 62, "duration": 4, "velocity": 83}, {"time": 466, "pitch": 65, "duration": 7, "velocity": 83}, {"time": 472, "pitch": 57, "duration": 2, "velocity": 71}, {"time": 478, "pitch": 43, "duration": 17, "velocity": 83}, {"time": 478, "pitch": 55, "duration": 7, "velocity": 75}, {"time": 478, "pitch": 58, "duration": 7, "velocity": 76}, {"time": 484, "pitch": 50, "duration": 8, "velocity": 73}, {"time": 490, "pitch": 55, "duration": 2, "velocity": 72}, {"time": 490, "pitch": 58, "duration": 3, "velocity": 72}, {"time": 490, "pitch": 62, "duration": 3, "velocity": 80}, {"time": 502, "pitch": 36, "duration": 1, "velocity": 79}, {"time": 502, "pitch": 55, "duration": 3, "velocity": 76}, {"time": 502, "pitch": 60, "duration": 3, "velocity": 72}, {"time": 502, "pitch": 63, "duration": 5, "velocity": 72}, {"time": 508, "pitch": 48, "duration": 30, "velocity": 75}, {"time": 514, "pitch": 60, "duration": 3, "velocity": 75}, {"time": 514, "pitch": 63, "duration": 3, "velocity": 80}, {"time": 520, "pitch": 55, "duration": 7, "velocity": 51}, {"time": 526, "pitch": 60, "duration": 4, "velocity": 77}, {"time": 526, "pitch": 63, "duration": 4, "velocity": 87}, {"time": 526, "pitch": 67, "duration": 4, "velocity": 79}, {"time": 532, "pitch": 55, "duration": 6, "velocity": 67}, {"time": 538, "pitch": 60, "duration": 1, "velocity": 83}, {"time": 538, "pitch": 63, "duration": 2, "velocity": 89}, {"time": 538, "pitch": 67, "duration": 3, "velocity": 84}, {"time": 550, "pitch": 41, "duration": 39, "velocity": 82}, {"time": 550, "pitch": 57, "duration": 4, "velocity": 62}, {"time": 550, "pitch": 60, "duration": 8, "velocity": 80}, {"time": 550, "pitch": 65, "duration": 7, "velocity": 67}, {"time": 556, "pitch": 57, "duration": 3, "velocity": 73}, {"time": 562, "pitch": 57, "duration": 3, "velocity": 77}, {"time": 562, "pitch": 60, "duration": 7, "velocity": 82}, {"time": 568, "pitch": 57, "duration": 2, "velocity": 66}, {"time": 574, "pitch": 57, "duration": 2, "velocity": 74}, {"time": 574, "pitch": 60, "duration": 3, "velocity": 78}, {"time": 574, "pitch": 65, "duration": 6, "velocity": 82}, {"time": 580, "pitch": 48, "duration": 8, "velocity": 70}, {"time": 586, "pitch": 57, "duration": 12, "velocity": 82}, {"time": 586, "pitch": 60, "duration": 12, "velocity": 88}, {"time": 586, "pitch": 65, "duration": 12, "velocity": 87}, {"time": 592, "pitch": 41, "duration": 6, "velocity": 88}, {"time": 598, "pitch": 46, "duration": 18, "velocity": 76}, {"time": 598, "pitch": 58, "duration": 8, "velocity": 71}, {"time": 598, "pitch": 62, "duration": 8, "velocity": 80}, {"time": 610, "pitch": 58, "duration": 4, "velocity": 74}, {"time": 610, "pitch": 62, "duration": 4, "velocity": 82}, {"time": 610, "pitch": 65, "duration": 6, "velocity": 80}, {"time": 622, "pitch": 39, "duration": 15, "velocity": 89}, {"time": 628, "pitch": 51, "duration": 5, "velocity": 81}, {"time": 634, "pitch": 51, "duration": 4, "velocity": 78}, {"time": 634, "pitch": 54, "duration": 3, "velocity": 79}, {"time": 634, "pitch": 63, "duration": 6, "velocity": 80}, {"time": 646, "pitch": 46, "duration": 15, "velocity": 78}, {"time": 652, "pitch": 53, "duration": 8, "velocity": 75}, {"time": 658, "pitch": 58, "duration": 2, "velocity": 76}, {"time": 658, "pitch": 62, "duration": 6, "velocity": 84}, {"time": 664, "pitch": 58, "duration": 2, "velocity": 74}, {"time": 670, "pitch": 39, "duration": 13, "velocity": 81}, {"time": 676, "pitch": 46, "duration": 6, "velocity": 66}, {"time": 682, "pitch": 51, "duration": 1, "velocity": 79}, {"time": 682, "pitch": 63, "duration": 2, "velocity": 81}, {"time": 694, "pitch": 46, "duration": 20, "velocity": 83}, {"time": 694, "pitch": 58, "duration": 6, "velocity": 72}, {"time": 694, "pitch": 62, "duration": 6, "velocity": 81}, {"time": 700, "pitch": 53, "duration": 12, "velocity": 56}, {"time": 706, "pitch": 58, "duration": 2, "velocity": 72}, {"time": 706, "pitch": 62, "duration": 8, "velocity": 80}, {"time": 706, "pitch": 65, "duration": 12, "velocity": 76}, {"time": 712, "pitch": 58, "duration": 5, "velocity": 72}, {"time": 718, "pitch": 39, "duration": 14, "velocity": 76}, {"time": 724, "pitch": 46, "duration": 8, "velocity": 66}, {"time": 730, "pitch": 51, "duration": 3, "velocity": 79}, {"time": 730, "pitch": 54, "duration": 7, "velocity": 88}, {"time": 730, "pitch": 63, "duration": 12, "velocity": 81}, {"time": 736, "pitch": 51, "duration": 4, "velocity": 81}, {"time": 742, "pitch": 43, "duration": 20, "velocity": 87}, {"time": 742, "pitch": 55, "duration": 7, "velocity": 80}, {"time": 742, "pitch": 62, "duration": 6, "velocity": 80}, {"time": 748, "pitch": 50, "duration": 11, "velocity": 76}, {"time": 754, "pitch": 58, "duration": 7, "velocity": 74}, {"time": 754, "pitch": 62, "duration": 15, "velocity": 84}, {"time": 760, "pitch": 55, "duration": 6, "velocity": 87}, {"time": 766, "pitch": 41, "duration": 12, "velocity": 86}, {"time": 772, "pitch": 53, "duration": 4, "velocity": 84}, {"time": 778, "pitch": 46, "duration": 5, "velocity": 85}, {"time": 778, "pitch": 53, "duration": 3, "velocity": 84}, {"time": 778, "pitch": 58, "duration": 5, "velocity": 76}, {"time": 778, "pitch": 62, "duration": 6, "velocity": 86}, {"time": 784, "pitch": 53, "duration": 1, "velocity": 79}, {"time": 790, "pitch": 39, "duration": 15, "velocity": 87}, {"time": 790, "pitch": 51, "duration": 6, "velocity": 78}, {"time": 790, "pitch": 55, "duration": 3, "velocity": 87}, {"time": 790, "pitch": 58, "duration": 3, "velocity": 83}, {"time": 796, "pitch": 46, "duration": 9, "velocity": 74}, {"time": 802, "pitch": 51, "duration": 4, "velocity": 87}, {"time": 802, "pitch": 63, "duration": 4, "velocity": 87}, {"time": 814, "pitch": 41, "duration": 15, "velocity": 83}, {"time": 814, "pitch": 53, "duration": 9, "velocity": 75}, {"time": 814, "pitch": 57, "duration": 7, "velocity": 79}, {"time": 820, "pitch": 48, "duration": 9, "velocity": 72}, {"time": 826, "pitch": 53, "duration": 2, "velocity": 80}, {"time": 826, "pitch": 57, "duration": 2, "velocity": 78}, {"time": 826, "pitch": 60, "duration": 3, "velocity": 83}, {"time": 838, "pitch": 50, "duration": 14, "velocity": 83}, {"time": 838, "pitch": 57, "duration": 3, "velocity": 75}, {"time": 838, "pitch": 62, "duration": 8, "velocity": 79}, {"time": 844, "pitch": 57, "duration": 5, "velocity": 71}, {"time": 850, "pitch": 62, "duration": 4, "velocity": 83}, {"time": 850, "pitch": 65, "duration": 7, "velocity": 83}, {"time": 856, "pitch": 57, "duration": 2, "velocity": 71}, {"time": 862, "pitch": 43, "duration": 17, "velocity": 83}, {"time": 862, "pitch": 55, "duration": 7, "velocity": 75}, {"time": 862, "pitch": 58, "duration": 7, "velocity": 76}, {"time": 868, "pitch": 50, "duration": 8, "velocity": 73}, {"time": 874, "pitch": 55, "duration": 2, "velocity": 72}, {"time": 874, "pitch": 58, "duration": 3, "velocity": 72}, {"time": 874, "pitch": 62, "duration": 3, "velocity": 80}, {"time": 886, "pitch": 48, "duration": 13, "velocity": 89}, {"time": 886, "pitch": 55, "duration": 3, "velocity": 80}, {"time": 886, "pitch": 60, "duration": 4, "velocity": 84}, {"time": 886, "pitch": 63, "duration": 4, "velocity": 80}, {"time": 898, "pitch": 60, "duration": 2, "velocity": 88}, {"time": 898, "pitch": 63, "duration": 3, "velocity": 98}, {"time": 898, "pitch": 67, "duration": 3, "velocity": 89}, {"time": 901, "pitch": 48, "duration": 1, "velocity": 83}, {"time": 904, "pitch": 60, "duration": 3, "velocity": 88}, {"time": 910, "pitch": 41, "duration": 9, "velocity": 87}, {"time": 916, "pitch": 57, "duration": 4, "velocity": 88}, {"time": 922, "pitch": 41, "duration": 4, "velocity": 88}, {"time": 922, "pitch": 48, "duration": 4, "velocity": 88}, {"time": 922, "pitch": 57, "duration": 2, "velocity": 87}, {"time": 922, "pitch": 60, "duration": 3, "velocity": 89}, {"time": 922, "pitch": 65, "duration": 4, "velocity": 88}, {"time": 934, "pitch": 46, "duration": 15, "velocity": 91}, {"time": 934, "pitch": 53, "duration": 2, "velocity": 82}, {"time": 934, "pitch": 58, "duration": 8, "velocity": 79}, {"time": 934, "pitch": 62, "duration": 5, "velocity": 86}, {"time": 940, "pitch": 53, "duration": 2, "velocity": 72}, {"time": 946, "pitch": 53, "duration": 2, "velocity": 87}, {"time": 946, "pitch": 58, "duration": 4, "velocity": 89}, {"time": 946, "pitch": 62, "duration": 5, "velocity": 89}, {"time": 952, "pitch": 53, "duration": 2, "velocity": 89}, {"time": 958, "pitch": 41, "duration": 11, "velocity": 89}, {"time": 958, "pitch": 53, "duration": 3, "velocity": 86}, {"time": 958, "pitch": 56, "duration": 4, "velocity": 86}, {"time": 961, "pitch": 48, "duration": 6, "velocity": 87}, {"time": 964, "pitch": 53, "duration": 4, "velocity": 90}, {"time": 967, "pitch": 56, "duration": 1, "velocity": 91}, {"time": 970, "pitch": 46, "duration": 6, "velocity": 92}, {"time": 970, "pitch": 53, "duration": 3, "velocity": 86}, {"time": 970, "pitch": 58, "duration": 3, "velocity": 83}, {"time": 973, "pitch": 50, "duration": 3, "velocity": 87}, {"time": 976, "pitch": 53, "duration": 3, "velocity": 88}, {"time": 976, "pitch": 58, "duration": 6, "velocity": 79}, {"time": 976, "pitch": 62, "duration": 6, "velocity": 88}, {"time": 982, "pitch": 39, "duration": 13, "velocity": 84}, {"time": 982, "pitch": 55, "duration": 7, "velocity": 82}, {"time": 982, "pitch": 58, "duration": 7, "velocity": 75}, {"time": 988, "pitch": 46, "duration": 6, "velocity": 64}, {"time": 994, "pitch": 55, "duration": 3, "velocity": 88}, {"time": 994, "pitch": 58, "duration": 6, "velocity": 90}, {"time": 994, "pitch": 63, "duration": 5, "velocity": 87}, {"time": 997, "pitch": 46, "duration": 1, "velocity": 88}, {"time": 1000, "pitch": 55, "duration": 4, "velocity": 88}, {"time": 1003, "pitch": 58, "duration": 1, "velocity": 76}, {"time": 1006, "pitch": 41, "duration": 15, "velocity": 86}, {"time": 1006, "pitch": 53, "duration": 10, "velocity": 86}, {"time": 1006, "pitch": 57, "duration": 7, "velocity": 83}, {"time": 1012, "pitch": 48, "duration": 8, "velocity": 75}, {"time": 1018, "pitch": 53, "duration": 2, "velocity": 83}, {"time": 1018, "pitch": 57, "duration": 2, "velocity": 87}, {"time": 1018, "pitch": 60, "duration": 3, "velocity": 87}, {"time": 1024, "pitch": 41, "duration": 4, "velocity": 88}, {"time": 1030, "pitch": 38, "duration": 3, "velocity": 89}, {"time": 1030, "pitch": 57, "duration": 5, "velocity": 82}, {"time": 1030, "pitch": 62, "duration": 6, "velocity": 83}, {"time": 1030, "pitch": 65, "duration": 7, "velocity": 87}, {"time": 1036, "pitch": 50, "duration": 10, "velocity": 81}, {"time": 1042, "pitch": 62, "duration": 3, "velocity": 88}, {"time": 1042, "pitch": 65, "duration": 5, "velocity": 92}, {"time": 1045, "pitch": 57, "duration": 2, "velocity": 88}, {"time": 1048, "pitch": 50, "duration": 2, "velocity": 87}, {"time": 1051, "pitch": 62, "duration": 2, "velocity": 87}, {"time": 1054, "pitch": 43, "duration": 15, "velocity": 79}, {"time": 1054, "pitch": 62, "duration": 4, "velocity": 87}, {"time": 1054, "pitch": 67, "duration": 5, "velocity": 87}, {"time": 1060, "pitch": 50, "duration": 8, "velocity": 89}, {"time": 1066, "pitch": 55, "duration": 4, "velocity": 86}, {"time": 1066, "pitch": 58, "duration": 4, "velocity": 92}, {"time": 1066, "pitch": 62, "duration": 5, "velocity": 89}, {"time": 1072, "pitch": 43, "duration": 5, "velocity": 87}, {"time": 1078, "pitch": 48, "duration": 13, "velocity": 89}, {"time": 1078, "pitch": 55, "duration": 3, "velocity": 83}, {"time": 1078, "pitch": 60, "duration": 7, "velocity": 83}, {"time": 1078, "pitch": 63, "duration": 7, "velocity": 79}, {"time": 1084, "pitch": 55, "duration": 3, "velocity": 72}, {"time": 1090, "pitch": 55, "duration": 3, "velocity": 88}, {"time": 1090, "pitch": 60, "duration": 4, "velocity": 91}, {"time": 1090, "pitch": 63, "duration": 9, "velocity": 88}, {"time": 1093, "pitch": 48, "duration": 2, "velocity": 87}, {"time": 1096, "pitch": 55, "duration": 4, "velocity": 85}, {"time": 1099, "pitch": 60, "duration": 1, "velocity": 75}, {"time": 1102, "pitch": 41, "duration": 16, "velocity": 87}, {"time": 1102, "pitch": 57, "duration": 7, "velocity": 79}, {"time": 1102, "pitch": 60, "duration": 7, "velocity": 88}, {"time": 1108, "pitch": 48, "duration": 7, "velocity": 80}, {"time": 1114, "pitch": 57, "duration": 2, "velocity": 82}, {"time": 1114, "pitch": 60, "duration": 3, "velocity": 89}, {"time": 1114, "pitch": 65, "duration": 5, "velocity": 80}, {"time": 1120, "pitch": 41, "duration": 2, "velocity": 89}, {"time": 1126, "pitch": 46, "duration": 15, "velocity": 86}, {"time": 1126, "pitch": 58, "duration": 4, "velocity": 77}, {"time": 1126, "pitch": 62, "duration": 4, "velocity": 87}, {"time": 1132, "pitch": 53, "duration": 7, "velocity": 71}, {"time": 1135, "pitch": 62, "duration": 1, "velocity": 55}, {"time": 1138, "pitch": 58, "duration": 2, "velocity": 90}, {"time": 1138, "pitch": 62, "duration": 3, "velocity": 91}, {"time": 1138, "pitch": 65, "duration": 3, "velocity": 87}, {"time": 1141, "pitch": 53, "duration": 1, "velocity": 72}, {"time": 1144, "pitch": 46, "duration": 1, "velocity": 63}, {"time": 1147, "pitch": 62, "duration": 1, "velocity": 74}, {"time": 1147, "pitch": 65, "duration": 1, "velocity": 76}, {"time": 1150, "pitch": 46, "duration": 10, "velocity": 82}, {"time": 1150, "pitch": 53, "duration": 10, "velocity": 83}, {"time": 1150, "pitch": 62, "duration": 5, "velocity": 88}, {"time": 1150, "pitch": 65, "duration": 5, "velocity": 88}, {"time": 1156, "pitch": 62, "duration": 3, "velocity": 83}, {"time": 1156, "pitch": 65, "duration": 3, "velocity": 84}, {"time": 1156, "pitch": 70, "duration": 3, "velocity": 88}, {"time": 1162, "pitch": 46, "duration": 7, "velocity": 85}, {"time": 1162, "pitch": 53, "duration": 6, "velocity": 87}, {"time": 1162, "pitch": 62, "duration": 4, "velocity": 89}, {"time": 1162, "pitch": 65, "duration": 4, "velocity": 91}, {"time": 1162, "pitch": 70, "duration": 4, "velocity": 96}, {"time": 1168, "pitch": 69, "duration": 5, "velocity": 89}, {"time": 1174, "pitch": 39, "duration": 13, "velocity": 84}, {"time": 1174, "pitch": 55, "duration": 7, "velocity": 82}, {"time": 1174, "pitch": 58, "duration": 7, "velocity": 75}, {"time": 1180, "pitch": 46, "duration": 6, "velocity": 64}, {"time": 1186, "pitch": 55, "duration": 3, "velocity": 88}, {"time": 1186, "pitch": 58, "duration": 6, "velocity": 90}, {"time": 1186, "pitch": 63, "duration": 5, "velocity": 87}, {"time": 1189, "pitch": 46, "duration": 1, "velocity": 88}, {"time": 1192, "pitch": 55, "duration": 4, "velocity": 88}, {"time": 1195, "pitch": 58, "duration": 1, "velocity": 76}, {"time": 1198, "pitch": 41, "duration": 15, "velocity": 86}, {"time": 1198, "pitch": 53, "duration": 10, "velocity": 86}, {"time": 1198, "pitch": 57, "duration": 7, "velocity": 83}, {"time": 1204, "pitch": 48, "duration": 8, "velocity": 75}, {"time": 1210, "pitch": 53, "duration": 2, "velocity": 83}, {"time": 1210, "pitch": 57, "duration": 2, "velocity": 87}, {"time": 1210, "pitch": 60, "duration": 3, "velocity": 87}, {"time": 1216, "pitch": 41, "duration": 4, "velocity": 88}, {"time": 1222, "pitch": 38, "duration": 3, "velocity": 89}, {"time": 1222, "pitch": 57, "duration": 5, "velocity": 82}, {"time": 1222, "pitch": 62, "duration": 6, "velocity": 83}, {"time": 1222, "pitch": 65, "duration": 7, "velocity": 87}, {"time": 1228, "pitch": 50, "duration": 10, "velocity": 81}, {"time": 1234, "pitch": 62, "duration": 3, "velocity": 88}, {"time": 1234, "pitch": 65, "duration": 5, "velocity": 92}, {"time": 1237, "pitch": 57, "duration": 2, "velocity": 88}, {"time": 1240, "pitch": 50, "duration": 2, "velocity": 87}, {"time": 1243, "pitch": 62, "duration": 2, "velocity": 87}, {"time": 1246, "pitch": 43, "duration": 15, "velocity": 79}, {"time": 1246, "pitch": 62, "duration": 4, "velocity": 87}, {"time": 1246, "pitch": 67, "duration": 5, "velocity": 87}, {"time": 1252, "pitch": 50, "duration": 8, "velocity": 89}, {"time": 1258, "pitch": 55, "duration": 4, "velocity": 86}, {"time": 1258, "pitch": 58, "duration": 4, "velocity": 92}, {"time": 1258, "pitch": 62, "duration": 5, "velocity": 89}, {"time": 1264, "pitch": 43, "duration": 5, "velocity": 87}, {"time": 1270, "pitch": 48, "duration": 13, "velocity": 89}, {"time": 1270, "pitch": 55, "duration": 3, "velocity": 83}, {"time": 1270, "pitch": 60, "duration": 7, "velocity": 83}, {"time": 1270, "pitch": 63, "duration": 7, "velocity": 79}, {"time": 1276, "pitch": 55, "duration": 3, "velocity": 72}, {"time": 1282, "pitch": 55, "duration": 3, "velocity": 88}, {"time": 1282, "pitch": 60, "duration": 4, "velocity": 91}, {"time": 1282, "pitch": 63, "duration": 9, "velocity": 88}, {"time": 1285, "pitch": 48, "duration": 2, "velocity": 87}, {"time": 1288, "pitch": 55, "duration": 4, "velocity": 85}, {"time": 1291, "pitch": 60, "duration": 1, "velocity": 75}, {"time": 1294, "pitch": 41, "duration": 16, "velocity": 87}, {"time": 1294, "pitch": 57, "duration": 7, "velocity": 79}, {"time": 1294, "pitch": 60, "duration": 7, "velocity": 88}, {"time": 1300, "pitch": 48, "duration": 7, "velocity": 80}, {"time": 1306, "pitch": 57, "duration": 2, "velocity": 82}, {"time": 1306, "pitch": 60, "duration": 3, "velocity": 89}, {"time": 1306, "pitch": 65, "duration": 5, "velocity": 80}, {"time": 1312, "pitch": 41, "duration": 2, "velocity": 89}, {"time": 1318, "pitch": 46, "duration": 7, "velocity": 88}, {"time": 1318, "pitch": 53, "duration": 3, "velocity": 81}, {"time": 1318, "pitch": 58, "duration": 6, "velocity": 78}, {"time": 1324, "pitch": 53, "duration": 3, "velocity": 88}, {"time": 1330, "pitch": 39, "duration": 7, "velocity": 88}, {"time": 1330, "pitch": 55, "duration": 4, "velocity": 81}, {"time": 1330, "pitch": 58, "duration": 7, "velocity": 79}, {"time": 1336, "pitch": 55, "duration": 2, "velocity": 82}, {"time": 1342, "pitch": 46, "duration": 21, "velocity": 79}, {"time": 1342, "pitch": 53, "duration": 4, "velocity": 76}, {"time": 1342, "pitch": 58, "duration": 8, "velocity": 76}, {"time": 1342, "pitch": 62, "duration": 7, "velocity": 87}, {"time": 1348, "pitch": 53, "duration": 1, "velocity": 57}, {"time": 1354, "pitch": 53, "duration": 10, "velocity": 81}, {"time": 1354, "pitch": 62, "duration": 11, "velocity": 87}, {"time": 1366, "pitch": 44, "duration": 14, "velocity": 94}, {"time": 1366, "pitch": 56, "duration": 3, "velocity": 80}, {"time": 1366, "pitch": 63, "duration": 4, "velocity": 80}, {"time": 1369, "pitch": 51, "duration": 10, "velocity": 82}, {"time": 1372, "pitch": 56, "duration": 4, "velocity": 89}, {"time": 1375, "pitch": 60, "duration": 1, "velocity": 79}, {"time": 1378, "pitch": 56, "duration": 3, "velocity": 83}, {"time": 1378, "pitch": 60, "duration": 4, "velocity": 83}, {"time": 1378, "pitch": 63, "duration": 4, "velocity": 84}, {"time": 1378, "pitch": 68, "duration": 6, "velocity": 84}, {"time": 1381, "pitch": 51, "duration": 2, "velocity": 83}, {"time": 1384, "pitch": 56, "duration": 4, "velocity": 94}, {"time": 1387, "pitch": 68, "duration": 3, "velocity": 88}, {"time": 1390, "pitch": 39, "duration": 14, "velocity": 101}, {"time": 1393, "pitch": 46, "duration": 10, "velocity": 85}, {"time": 1396, "pitch": 51, "duration": 4, "velocity": 79}, {"time": 1399, "pitch": 55, "duration": 1, "velocity": 76}, {"time": 1402, "pitch": 51, "duration": 4, "velocity": 88}, {"time": 1402, "pitch": 55, "duration": 4, "velocity": 89}, {"time": 1402, "pitch": 63, "duration": 13, "velocity": 88}, {"time": 1405, "pitch": 46, "duration": 2, "velocity": 78}, {"time": 1408, "pitch": 39, "duration": 1, "velocity": 92}, {"time": 1411, "pitch": 51, "duration": 2, "velocity": 98}, {"time": 1414, "pitch": 42, "duration": 14, "velocity": 92}, {"time": 1414, "pitch": 54, "duration": 3, "velocity": 75}, {"time": 1414, "pitch": 58, "duration": 6, "velocity": 79}, {"time": 1414, "pitch": 61, "duration": 6, "velocity": 83}, {"time": 1417, "pitch": 49, "duration": 10, "velocity": 74}, {"time": 1420, "pitch": 54, "duration": 4, "velocity": 85}, {"time": 1423, "pitch": 58, "duration": 2, "velocity": 76}, {"time": 1426, "pitch": 54, "duration": 4, "velocity": 83}, {"time": 1426, "pitch": 58, "duration": 5, "velocity": 87}, {"time": 1426, "pitch": 66, "duration": 6, "velocity": 87}, {"time": 1429, "pitch": 49, "duration": 2, "velocity": 90}, {"time": 1432, "pitch": 54, "duration": 4, "velocity": 94}, {"time": 1435, "pitch": 66, "duration": 4, "velocity": 82}, {"time": 1438, "pitch": 37, "duration": 14, "velocity": 85}, {"time": 1441, "pitch": 44, "duration": 11, "velocity": 87}, {"time": 1444, "pitch": 49, "duration": 4, "velocity": 88}, {"time": 1447, "pitch": 56, "duration": 2, "velocity": 83}, {"time": 1450, "pitch": 49, "duration": 3, "velocity": 93}, {"time": 1450, "pitch": 56, "duration": 4, "velocity": 83}, {"time": 1450, "pitch": 61, "duration": 4, "velocity": 87}, {"time": 1453, "pitch": 44, "duration": 8, "velocity": 87}, {"time": 1456, "pitch": 49, "duration": 5, "velocity": 94}, {"time": 1456, "pitch": 61, "duration": 3, "velocity": 63}, {"time": 1459, "pitch": 56, "duration": 3, "velocity": 84}, {"time": 1462, "pitch": 44, "duration": 14, "velocity": 94}, {"time": 1462, "pitch": 56, "duration": 3, "velocity": 80}, {"time": 1462, "pitch": 63, "duration": 4, "velocity": 80}, {"time": 1465, "pitch": 51, "duration": 10, "velocity": 82}, {"time": 1468, "pitch": 56, "duration": 4, "velocity": 89}, {"time": 1471, "pitch": 60, "duration": 1, "velocity": 79}, {"time": 1474, "pitch": 56, "duration": 3, "velocity": 83}, {"time": 1474, "pitch": 60, "duration": 4, "velocity": 83}, {"time": 1474, "pitch": 63, "duration": 4, "velocity": 84}, {"time": 1474, "pitch": 68, "duration": 6, "velocity": 84}, {"time": 1477, "pitch": 51, "duration": 2, "velocity": 83}, {"time": 1480, "pitch": 56, "duration": 4, "velocity": 94}, {"time": 1483, "pitch": 68, "duration": 3, "velocity": 88}, {"time": 1486, "pitch": 39, "duration": 14, "velocity": 101}, {"time": 1489, "pitch": 46, "duration": 10, "velocity": 85}, {"time": 1492, "pitch": 51, "duration": 4, "velocity": 79}, {"time": 1495, "pitch": 55, "duration": 1, "velocity": 76}, {"time": 1498, "pitch": 51, "duration": 4, "velocity": 88}, {"time": 1498, "pitch": 55, "duration": 4, "velocity": 89}, {"time": 1498, "pitch": 63, "duration": 13, "velocity": 88}, {"time": 1501, "pitch": 46, "duration": 2, "velocity": 78}, {"time": 1504, "pitch": 39, "duration": 1, "velocity": 92}, {"time": 1507, "pitch": 51, "duration": 2, "velocity": 98}, {"time": 1510, "pitch": 42, "duration": 14, "velocity": 92}, {"time": 1510, "pitch": 54, "duration": 3, "velocity": 75}, {"time": 1510, "pitch": 58, "duration": 6, "velocity": 79}, {"time": 1510, "pitch": 61, "duration": 6, "velocity": 83}, {"time": 1513, "pitch": 49, "duration": 10, "velocity": 74}, {"time": 1516, "pitch": 54, "duration": 4, "velocity": 85}, {"time": 1519, "pitch": 58, "duration": 2, "velocity": 76}, {"time": 1522, "pitch": 54, "duration": 4, "velocity": 83}, {"time": 1522, "pitch": 58, "duration": 5, "velocity": 87}, {"time": 1522, "pitch": 66, "duration": 6, "velocity": 87}, {"time": 1525, "pitch": 49, "duration": 2, "velocity": 90}, {"time": 1528, "pitch": 54, "duration": 4, "velocity": 94}, {"time": 1531, "pitch": 66, "duration": 4, "velocity": 82}, {"time": 1534, "pitch": 44, "duration": 4, "velocity": 101}, {"time": 1534, "pitch": 56, "duration": 3, "velocity": 90}, {"time": 1534, "pitch": 68, "duration": 6, "velocity": 82}, {"time": 1537, "pitch": 51, "duration": 1, "velocity": 87}, {"time": 1540, "pitch": 56, "duration": 3, "velocity": 93}, {"time": 1543, "pitch": 68, "duration": 1, "velocity": 79}, {"time": 1546, "pitch": 41, "duration": 11, "velocity": 88}, {"time": 1546, "pitch": 53, "duration": 4, "velocity": 73}, {"time": 1546, "pitch": 57, "duration": 7, "velocity": 84}, {"time": 1549, "pitch": 48, "duration": 8, "velocity": 89}, {"time": 1552, "pitch": 53, "duration": 5, "velocity": 83}, {"time": 1558, "pitch": 46, "duration": 18, "velocity": 76}, {"time": 1558, "pitch": 58, "duration": 8, "velocity": 71}, {"time": 1558, "pitch": 62, "duration": 8, "velocity": 80}, {"time": 1570, "pitch": 58, "duration": 4, "velocity": 74}, {"time": 1570, "pitch": 62, "duration": 4, "velocity": 82}, {"time": 1570, "pitch": 65, "duration": 6, "velocity": 80}, {"time": 1582, "pitch": 39, "duration": 15, "velocity": 89}, {"time": 1588, "pitch": 51, "duration": 5, "velocity": 81}, {"time": 1594, "pitch": 51, "duration": 4, "velocity": 78}, {"time": 1594, "pitch": 54, "duration": 3, "velocity": 79}, {"time": 1594, "pitch": 63, "duration": 6, "velocity": 80}, {"time": 1606, "pitch": 46, "duration": 15, "velocity": 78}, {"time": 1612, "pitch": 53, "duration": 8, "velocity": 75}, {"time": 1618, "pitch": 58, "duration": 2, "velocity": 76}, {"time": 1618, "pitch": 62, "duration": 6, "velocity": 84}, {"time": 1624, "pitch": 58, "duration": 2, "velocity": 74}, {"time": 1630, "pitch": 39, "duration": 13, "velocity": 81}, {"time": 1636, "pitch": 46, "duration": 6, "velocity": 66}, {"time": 1642, "pitch": 51, "duration": 1, "velocity": 79}, {"time": 1642, "pitch": 63, "duration": 2, "velocity": 81}, {"time": 1654, "pitch": 46, "duration": 20, "velocity": 83}, {"time": 1654, "pitch": 58, "duration": 6, "velocity": 72}, {"time": 1654, "pitch": 62, "duration": 6, "velocity": 81}, {"time": 1660, "pitch": 53, "duration": 12, "velocity": 56}, {"time": 1666, "pitch": 58, "duration": 2, "velocity": 72}, {"time": 1666, "pitch": 62, "duration": 8, "velocity": 80}, {"time": 1666, "pitch": 65, "duration": 12, "velocity": 76}, {"time": 1672, "pitch": 58, "duration": 5, "velocity": 72}, {"time": 1678, "pitch": 39, "duration": 14, "velocity": 76}, {"time": 1684, "pitch": 46, "duration": 8, "velocity": 66}, {"time": 1690, "pitch": 51, "duration": 3, "velocity": 79}, {"time": 1690, "pitch": 54, "duration": 7, "velocity": 88}, {"time": 1690, "pitch": 63, "duration": 12, "velocity": 81}, {"time": 1696, "pitch": 51, "duration": 4, "velocity": 81}, {"time": 1702, "pitch": 43, "duration": 20, "velocity": 87}, {"time": 1702, "pitch": 55, "duration": 7, "velocity": 80}, {"time": 1702, "pitch": 62, "duration": 6, "velocity": 80}, {"time": 1708, "pitch": 50, "duration": 11, "velocity": 76}, {"time": 1714, "pitch": 58, "duration": 7, "velocity": 74}, {"time": 1714, "pitch": 62, "duration": 15, "velocity": 84}, {"time": 1720, "pitch": 55, "duration": 6, "velocity": 87}, {"time": 1726, "pitch": 41, "duration": 12, "velocity": 86}, {"time": 1732, "pitch": 53, "duration": 4, "velocity": 84}, {"time": 1738, "pitch": 46, "duration": 5, "velocity": 85}, {"time": 1738, "pitch": 53, "duration": 3, "velocity": 84}, {"time": 1738, "pitch": 58, "duration": 5, "velocity": 76}, {"time": 1738, "pitch": 62, "duration": 6, "velocity": 86}, {"time": 1744, "pitch": 53, "duration": 1, "velocity": 79}, {"time": 1750, "pitch": 39, "duration": 15, "velocity": 87}, {"time": 1750, "pitch": 51, "duration": 6, "velocity": 78}, {"time": 1750, "pitch": 55, "duration": 3, "velocity": 87}, {"time": 1750, "pitch": 58, "duration": 3, "velocity": 83}, {"time": 1756, "pitch": 46, "duration": 9, "velocity": 74}, {"time": 1762, "pitch": 51, "duration": 4, "velocity": 87}, {"time": 1762, "pitch": 63, "duration": 4, "velocity": 87}, {"time": 1774, "pitch": 41, "duration": 15, "velocity": 83}, {"time": 1774, "pitch": 53, "duration": 9, "velocity": 75}, {"time": 1774, "pitch": 57, "duration": 7, "velocity": 79}, {"time": 1780, "pitch": 48, "duration": 9, "velocity": 72}, {"time": 1786, "pitch": 53, "duration": 2, "velocity": 80}, {"time": 1786, "pitch": 57, "duration": 2, "velocity": 78}, {"time": 1786, "pitch": 60, "duration": 3, "velocity": 83}, {"time": 1798, "pitch": 50, "duration": 14, "velocity": 83}, {"time": 1798, "pitch": 57, "duration": 3, "velocity": 75}, {"time": 1798, "pitch": 62, "duration": 8, "velocity": 79}, {"time": 1804, "pitch": 57, "duration": 5, "velocity": 71}, {"time": 1810, "pitch": 62, "duration": 4, "velocity": 83}, {"time": 1810, "pitch": 65, "duration": 7, "velocity": 83}, {"time": 1816, "pitch": 57, "duration": 2, "velocity": 71}, {"time": 1822, "pitch": 43, "duration": 17, "velocity": 83}, {"time": 1822, "pitch": 55, "duration": 7, "velocity": 75}, {"time": 1822, "pitch": 58, "duration": 7, "velocity": 76}, {"time": 1828, "pitch": 50, "duration": 8, "velocity": 73}, {"time": 1834, "pitch": 55, "duration": 2, "velocity": 72}, {"time": 1834, "pitch": 58, "duration": 3, "velocity": 72}, {"time": 1834, "pitch": 62, "duration": 3, "velocity": 80}, {"time": 1846, "pitch": 48, "duration": 13, "velocity": 89}, {"time": 1846, "pitch": 55, "duration": 3, "velocity": 80}, {"time": 1846, "pitch": 60, "duration": 4, "velocity": 84}, {"time": 1846, "pitch": 63, "duration": 4, "velocity": 80}, {"time": 1858, "pitch": 60, "duration": 2, "velocity": 88}, {"time": 1858, "pitch": 63, "duration": 3, "velocity": 98}, {"time": 1858, "pitch": 67, "duration": 3, "velocity": 89}, {"time": 1861, "pitch": 48, "duration": 1, "velocity": 83}, {"time": 1864, "pitch": 60, "duration": 3, "velocity": 88}, {"time": 1870, "pitch": 41, "duration": 9, "velocity": 87}, {"time": 1876, "pitch": 57, "duration": 4, "velocity": 88}, {"time": 1882, "pitch": 41, "duration": 4, "velocity": 88}, {"time": 1882, "pitch": 48, "duration": 4, "velocity": 88}, {"time": 1882, "pitch": 57, "duration": 2, "velocity": 87}, {"time": 1882, "pitch": 60, "duration": 3, "velocity": 89}, {"time": 1882, "pitch": 65, "duration": 4, "velocity": 88}, {"time": 1894, "pitch": 46, "duration": 15, "velocity": 91}, {"time": 1894, "pitch": 53, "duration": 2, "velocity": 82}, {"time": 1894, "pitch": 58, "duration": 8, "velocity": 79}, {"time": 1894, "pitch": 62, "duration": 5, "velocity": 86}, {"time": 1900, "pitch": 53, "duration": 2, "velocity": 72}, {"time": 1906, "pitch": 53, "duration": 2, "velocity": 87}, {"time": 1906, "pitch": 58, "duration": 4, "velocity": 89}, {"time": 1906, "pitch": 62, "duration": 5, "velocity": 89}, {"time": 1912, "pitch": 53, "duration": 2, "velocity": 89}, {"time": 1918, "pitch": 41, "duration": 11, "velocity": 89}, {"time": 1918, "pitch": 53, "duration": 3, "velocity": 86}, {"time": 1918, "pitch": 56, "duration": 4, "velocity": 86}, {"time": 1921, "pitch": 48, "duration": 6, "velocity": 87}, {"time": 1924, "pitch": 53, "duration": 4, "velocity": 90}, {"time": 1927, "pitch": 56, "duration": 1, "velocity": 91}, {"time": 1930, "pitch": 46, "duration": 6, "velocity": 92}, {"time": 1930, "pitch": 53, "duration": 3, "velocity": 86}, {"time": 1930, "pitch": 58, "duration": 3, "velocity": 83}, {"time": 1933, "pitch": 50, "duration": 3, "velocity": 87}, {"time": 1936, "pitch": 53, "duration": 3, "velocity": 88}, {"time": 1936, "pitch": 58, "duration": 6, "velocity": 79}, {"time": 1936, "pitch": 62, "duration": 6, "velocity": 88}, {"time": 1942, "pitch": 39, "duration": 13, "velocity": 84}, {"time": 1942, "pitch": 55, "duration": 7, "velocity": 82}, {"time": 1942, "pitch": 58, "duration": 7, "velocity": 75}, {"time": 1948, "pitch": 46, "duration": 6, "velocity": 64}, {"time": 1954, "pitch": 55, "duration": 3, "velocity": 88}, {"time": 1954, "pitch": 58, "duration": 6, "velocity": 90}, {"time": 1954, "pitch": 63, "duration": 5, "velocity": 87}, {"time": 1957, "pitch": 46, "duration": 1, "velocity": 88}, {"time": 1960, "pitch": 55, "duration": 4, "velocity": 88}, {"time": 1963, "pitch": 58, "duration": 1, "velocity": 76}, {"time": 1966, "pitch": 41, "duration": 15, "velocity": 86}, {"time": 1966, "pitch": 53, "duration": 10, "velocity": 86}, {"time": 1966, "pitch": 57, "duration": 7, "velocity": 83}, {"time": 1972, "pitch": 48, "duration": 8, "velocity": 75}, {"time": 1978, "pitch": 53, "duration": 2, "velocity": 83}, {"time": 1978, "pitch": 57, "duration": 2, "velocity": 87}, {"time": 1978, "pitch": 60, "duration": 3, "velocity": 87}, {"time": 1984, "pitch": 41, "duration": 4, "velocity": 88}, {"time": 1990, "pitch": 38, "duration": 3, "velocity": 89}, {"time": 1990, "pitch": 57, "duration": 5, "velocity": 82}, {"time": 1990, "pitch": 62, "duration": 6, "velocity": 83}, {"time": 1990, "pitch": 65, "duration": 7, "velocity": 87}, {"time": 1996, "pitch": 50, "duration": 10, "velocity": 81}, {"time": 2002, "pitch": 62, "duration": 3, "velocity": 88}, {"time": 2002, "pitch": 65, "duration": 5, "velocity": 92}, {"time": 2005, "pitch": 57, "duration": 2, "velocity": 88}, {"time": 2008, "pitch": 50, "duration": 2, "velocity": 87}, {"time": 2011, "pitch": 62, "duration": 2, "velocity": 87}, {"time": 2014, "pitch": 43, "duration": 15, "velocity": 79}, {"time": 2014, "pitch": 62, "duration": 4, "velocity": 87}, {"time": 2014, "pitch": 67, "duration": 5, "velocity": 87}, {"time": 2020, "pitch": 50, "duration": 8, "velocity": 89}, {"time": 2026, "pitch": 55, "duration": 4, "velocity": 86}, {"time": 2026, "pitch": 58, "duration": 4, "velocity": 92}, {"time": 2026, "pitch": 62, "duration": 5, "velocity": 89}, {"time": 2032, "pitch": 43, "duration": 5, "velocity": 87}, {"time": 2038, "pitch": 48, "duration": 13, "velocity": 89}, {"time": 2038, "pitch": 55, "duration": 3, "velocity": 83}, {"time": 2038, "pitch": 60, "duration": 7, "velocity": 83}, {"time": 2038, "pitch": 63, "duration": 7, "velocity": 79}, {"time": 2044, "pitch": 55, "duration": 3, "velocity": 72}, {"time": 2050, "pitch": 55, "duration": 3, "velocity": 88}, {"time": 2050, "pitch": 60, "duration": 4, "velocity": 91}, {"time": 2050, "pitch": 63, "duration": 9, "velocity": 88}, {"time": 2053, "pitch": 48, "duration": 2, "velocity": 87}, {"time": 2056, "pitch": 55, "duration": 4, "velocity": 85}, {"time": 2059, "pitch": 60, "duration": 1, "velocity": 75}, {"time": 2062, "pitch": 41, "duration": 16, "velocity": 87}, {"time": 2062, "pitch": 57, "duration": 7, "velocity": 79}, {"time": 2062, "pitch": 60, "duration": 7, "velocity": 88}, {"time": 2068, "pitch": 48, "duration": 7, "velocity": 80}, {"time": 2074, "pitch": 57, "duration": 2, "velocity": 82}, {"time": 2074, "pitch": 60, "duration": 3, "velocity": 89}, {"time": 2074, "pitch": 65, "duration": 5, "velocity": 80}, {"time": 2080, "pitch": 41, "duration": 2, "velocity": 89}, {"time": 2086, "pitch": 46, "duration": 15, "velocity": 86}, {"time": 2086, "pitch": 58, "duration": 4, "velocity": 77}, {"time": 2086, "pitch": 62, "duration": 4, "velocity": 87}, {"time": 2092, "pitch": 53, "duration": 7, "velocity": 71}, {"time": 2095, "pitch": 62, "duration": 1, "velocity": 55}, {"time": 2098, "pitch": 58, "duration": 2, "velocity": 90}, {"time": 2098, "pitch": 62, "duration": 3, "velocity": 91}, {"time": 2098, "pitch": 65, "duration": 3, "velocity": 87}, {"time": 2101, "pitch": 53, "duration": 1, "velocity": 72}, {"time": 2104, "pitch": 46, "duration": 1, "velocity": 63}, {"time": 2107, "pitch": 62, "duration": 1, "velocity": 74}, {"time": 2107, "pitch": 65, "duration": 1, "velocity": 76}, {"time": 2110, "pitch": 46, "duration": 10, "velocity": 82}, {"time": 2110, "pitch": 53, "duration": 10, "velocity": 83}, {"time": 2110, "pitch": 62, "duration": 5, "velocity": 88}, {"time": 2110, "pitch": 65, "duration": 5, "velocity": 88}, {"time": 2116, "pitch": 62, "duration": 3, "velocity": 83}, {"time": 2116, "pitch": 65, "duration": 3, "velocity": 84}, {"time": 2116, "pitch": 70, "duration": 3, "velocity": 88}, {"time": 2122, "pitch": 46, "duration": 7, "velocity": 85}, {"time": 2122, "pitch": 53, "duration": 6, "velocity": 87}, {"time": 2122, "pitch": 62, "duration": 4, "velocity": 89}, {"time": 2122, "pitch": 65, "duration": 4, "velocity": 91}, {"time": 2122, "pitch": 70, "duration": 4, "velocity": 96}, {"time": 2128, "pitch": 69, "duration": 5, "velocity": 89}, {"time": 2134, "pitch": 39, "duration": 13, "velocity": 84}, {"time": 2134, "pitch": 55, "duration": 7, "velocity": 82}, {"time": 2134, "pitch": 58, "duration": 7, "velocity": 75}, {"time": 2140, "pitch": 46, "duration": 6, "velocity": 64}, {"time": 2146, "pitch": 55, "duration": 3, "velocity": 88}, {"time": 2146, "pitch": 58, "duration": 6, "velocity": 90}, {"time": 2146, "pitch": 63, "duration": 5, "velocity": 87}, {"time": 2149, "pitch": 46, "duration": 1, "velocity": 88}, {"time": 2152, "pitch": 55, "duration": 4, "velocity": 88}, {"time": 2155, "pitch": 58, "duration": 1, "velocity": 76}, {"time": 2158, "pitch": 41, "duration": 15, "velocity": 86}, {"time": 2158, "pitch": 53, "duration": 10, "velocity": 86}, {"time": 2158, "pitch": 57, "duration": 7, "velocity": 83}, {"time": 2164, "pitch": 48, "duration": 8, "velocity": 75}, {"time": 2170, "pitch": 53, "duration": 2, "velocity": 83}, {"time": 2170, "pitch": 57, "duration": 2, "velocity": 87}, {"time": 2170, "pitch": 60, "duration": 3, "velocity": 87}, {"time": 2176, "pitch": 41, "duration": 4, "velocity": 88}, {"time": 2182, "pitch": 38, "duration": 3, "velocity": 89}, {"time": 2182, "pitch": 57, "duration": 5, "velocity": 82}, {"time": 2182, "pitch": 62, "duration": 6, "velocity": 83}, {"time": 2182, "pitch": 65, "duration": 7, "velocity": 87}, {"time": 2188, "pitch": 50, "duration": 10, "velocity": 81}, {"time": 2194, "pitch": 62, "duration": 3, "velocity": 88}, {"time": 2194, "pitch": 65, "duration": 5, "velocity": 92}, {"time": 2197, "pitch": 57, "duration": 2, "velocity": 88}, {"time": 2200, "pitch": 50, "duration": 2, "velocity": 87}, {"time": 2203, "pitch": 62, "duration": 2, "velocity": 87}, {"time": 2206, "pitch": 43, "duration": 15, "velocity": 79}, {"time": 2206, "pitch": 62, "duration": 4, "velocity": 87}, {"time": 2206, "pitch": 67, "duration": 5, "velocity": 87}, {"time": 2212, "pitch": 50, "duration": 8, "velocity": 89}, {"time": 2218, "pitch": 55, "duration": 4, "velocity": 86}, {"time": 2218, "pitch": 58, "duration": 4, "velocity": 92}, {"time": 2218, "pitch": 62, "duration": 5, "velocity": 89}, {"time": 2224, "pitch": 43, "duration": 5, "velocity": 87}, {"time": 2230, "pitch": 48, "duration": 13, "velocity": 89}, {"time": 2230, "pitch": 55, "duration": 3, "velocity": 83}, {"time": 2230, "pitch": 60, "duration": 7, "velocity": 83}, {"time": 2230, "pitch": 63, "duration": 7, "velocity": 79}, {"time": 2236, "pitch": 55, "duration": 3, "velocity": 72}, {"time": 2242, "pitch": 55, "duration": 3, "velocity": 88}, {"time": 2242, "pitch": 60, "duration": 4, "velocity": 91}, {"time": 2242, "pitch": 63, "duration": 9, "velocity": 88}, {"time": 2245, "pitch": 48, "duration": 2, "velocity": 87}, {"time": 2248, "pitch": 55, "duration": 4, "velocity": 85}, {"time": 2251, "pitch": 60, "duration": 1, "velocity": 75}, {"time": 2254, "pitch": 41, "duration": 16, "velocity": 87}, {"time": 2254, "pitch": 57, "duration": 7, "velocity": 79}, {"time": 2254, "pitch": 60, "duration": 7, "velocity": 88}, {"time": 2260, "pitch": 48, "duration": 7, "velocity": 80}, {"time": 2266, "pitch": 57, "duration": 2, "velocity": 82}, {"time": 2266, "pitch": 60, "duration": 3, "velocity": 89}, {"time": 2266, "pitch": 65, "duration": 5, "velocity": 80}, {"time": 2272, "pitch": 41, "duration": 2, "velocity": 89}, {"time": 2278, "pitch": 46, "duration": 18, "velocity": 83}, {"time": 2278, "pitch": 53, "duration": 4, "velocity": 83}, {"time": 2278, "pitch": 62, "duration": 8, "velocity": 83}, {"time": 2284, "pitch": 53, "duration": 6, "velocity": 81}, {"time": 2290, "pitch": 58, "duration": 6, "velocity": 92}, {"time": 2296, "pitch": 53, "duration": 4, "velocity": 75}, {"time": 2302, "pitch": 46, "duration": 14, "velocity": 86}, {"time": 2302, "pitch": 58, "duration": 4, "velocity": 85}, {"time": 2302, "pitch": 62, "duration": 4, "velocity": 86}, {"time": 2314, "pitch": 53, "duration": 2, "velocity": 81}, {"time": 2314, "pitch": 58, "duration": 2, "velocity": 81}, {"time": 2326, "pitch": 39, "duration": 18, "velocity": 75}, {"time": 2326, "pitch": 55, "duration": 8, "velocity": 70}, {"time": 2326, "pitch": 58, "duration": 8, "velocity": 78}, {"time": 2332, "pitch": 46, "duration": 12, "velocity": 56}, {"time": 2338, "pitch": 58, "duration": 6, "velocity": 88}, {"time": 2338, "pitch": 63, "duration": 6, "velocity": 87}, {"time": 2344, "pitch": 55, "duration": 3, "velocity": 67}, {"time": 2350, "pitch": 41, "duration": 14, "velocity": 73}, {"time": 2350, "pitch": 53, "duration": 8, "velocity": 78}, {"time": 2350, "pitch": 57, "duration": 7, "velocity": 76}, {"time": 2356, "pitch": 48, "duration": 8, "velocity": 73}, {"time": 2362, "pitch": 53, "duration": 1, "velocity": 77}, {"time": 2362, "pitch": 57, "duration": 2, "velocity": 75}, {"time": 2362, "pitch": 60, "duration": 2, "velocity": 81}, {"time": 2374, "pitch": 50, "duration": 14, "velocity": 82}, {"time": 2374, "pitch": 65, "duration": 7, "velocity": 83}, {"time": 2380, "pitch": 57, "duration": 7, "velocity": 75}, {"time": 2386, "pitch": 62, "duration": 5, "velocity": 88}, {"time": 2392, "pitch": 57, "duration": 2, "velocity": 82}, {"time": 2398, "pitch": 43, "duration": 20, "velocity": 82}, {"time": 2398, "pitch": 55, "duration": 8, "velocity": 78}, {"time": 2398, "pitch": 62, "duration": 7, "velocity": 81}, {"time": 2404, "pitch": 50, "duration": 12, "velocity": 72}, {"time": 2410, "pitch": 58, "duration": 6, "velocity": 87}, {"time": 2416, "pitch": 55, "duration": 7, "velocity": 86}, {"time": 2422, "pitch": 48, "duration": 13, "velocity": 78}, {"time": 2422, "pitch": 63, "duration": 7, "velocity": 83}, {"time": 2428, "pitch": 55, "duration": 7, "velocity": 87}, {"time": 2434, "pitch": 62, "duration": 7, "velocity": 88}, {"time": 2440, "pitch": 55, "duration": 6, "velocity": 76}, {"time": 2446, "pitch": 41, "duration": 15, "velocity": 85}, {"time": 2446, "pitch": 60, "duration": 9, "velocity": 78}, {"time": 2446, "pitch": 65, "duration": 2, "velocity": 80}, {"time": 2452, "pitch": 48, "duration": 8, "velocity": 83}, {"time": 2458, "pitch": 53, "duration": 3, "velocity": 81}, {"time": 2458, "pitch": 57, "duration": 3, "velocity": 79}, {"time": 2464, "pitch": 53, "duration": 7, "velocity": 87}, {"time": 2470, "pitch": 46, "duration": 21, "velocity": 85}, {"time": 2470, "pitch": 62, "duration": 6, "velocity": 87}, {"time": 2476, "pitch": 53, "duration": 4, "velocity": 85}, {"time": 2482, "pitch": 58, "duration": 7, "velocity": 92}, {"time": 2488, "pitch": 53, "duration": 4, "velocity": 89}, {"time": 2494, "pitch": 46, "duration": 13, "velocity": 89}, {"time": 2494, "pitch": 53, "duration": 3, "velocity": 88}, {"time": 2494, "pitch": 60, "duration": 7, "velocity": 88}, {"time": 2500, "pitch": 53, "duration": 3, "velocity": 88}, {"time": 2506, "pitch": 53, "duration": 4, "velocity": 91}, {"time": 2506, "pitch": 58, "duration": 3, "velocity": 94}, {"time": 2509, "pitch": 46, "duration": 6, "velocity": 82}, {"time": 2512, "pitch": 57, "duration": 3, "velocity": 87}, {"time": 2515, "pitch": 58, "duration": 3, "velocity": 89}, {"time": 2518, "pitch": 39, "duration": 13, "velocity": 84}, {"time": 2518, "pitch": 55, "duration": 7, "velocity": 82}, {"time": 2518, "pitch": 58, "duration": 1, "velocity": 75}, {"time": 2524, "pitch": 46, "duration": 6, "velocity": 64}, {"time": 2530, "pitch": 55, "duration": 3, "velocity": 88}, {"time": 2530, "pitch": 58, "duration": 6, "velocity": 90}, {"time": 2530, "pitch": 63, "duration": 5, "velocity": 87}, {"time": 2533, "pitch": 46, "duration": 1, "velocity": 88}, {"time": 2536, "pitch": 55, "duration": 4, "velocity": 88}, {"time": 2539, "pitch": 58, "duration": 1, "velocity": 76}, {"time": 2542, "pitch": 41, "duration": 15, "velocity": 86}, {"time": 2542, "pitch": 53, "duration": 10, "velocity": 86}, {"time": 2542, "pitch": 57, "duration": 7, "velocity": 83}, {"time": 2548, "pitch": 48, "duration": 8, "velocity": 75}, {"time": 2554, "pitch": 53, "duration": 2, "velocity": 83}, {"time": 2554, "pitch": 57, "duration": 2, "velocity": 87}, {"time": 2554, "pitch": 60, "duration": 3, "velocity": 87}, {"time": 2560, "pitch": 41, "duration": 4, "velocity": 88}, {"time": 2566, "pitch": 38, "duration": 3, "velocity": 89}, {"time": 2566, "pitch": 57, "duration": 5, "velocity": 82}, {"time": 2566, "pitch": 62, "duration": 6, "velocity": 83}, {"time": 2566, "pitch": 65, "duration": 7, "velocity": 87}, {"time": 2572, "pitch": 50, "duration": 10, "velocity": 81}, {"time": 2578, "pitch": 62, "duration": 3, "velocity": 88}, {"time": 2578, "pitch": 65, "duration": 5, "velocity": 92}, {"time": 2581, "pitch": 57, "duration": 2, "velocity": 88}, {"time": 2584, "pitch": 50, "duration": 2, "velocity": 87}, {"time": 2587, "pitch": 62, "duration": 2, "velocity": 87}, {"time": 2590, "pitch": 43, "duration": 15, "velocity": 79}, {"time": 2590, "pitch": 62, "duration": 4, "velocity": 87}, {"time": 2590, "pitch": 67, "duration": 5, "velocity": 87}, {"time": 2596, "pitch": 50, "duration": 8, "velocity": 89}, {"time": 2602, "pitch": 55, "duration": 4, "velocity": 86}, {"time": 2602, "pitch": 58, "duration": 4, "velocity": 92}, {"time": 2602, "pitch": 62, "duration": 5, "velocity": 89}, {"time": 2608, "pitch": 43, "duration": 5, "velocity": 87}, {"time": 2614, "pitch": 48, "duration": 13, "velocity": 89}, {"time": 2614, "pitch": 55, "duration": 3, "velocity": 83}, {"time": 2614, "pitch": 60, "duration": 7, "velocity": 83}, {"time": 2614, "pitch": 63, "duration": 7, "velocity": 79}, {"time": 2620, "pitch": 55, "duration": 3, "velocity": 72}, {"time": 2626, "pitch": 55, "duration": 3, "velocity": 88}, {"time": 2626, "pitch": 60, "duration": 4, "velocity": 91}, {"time": 2626, "pitch": 63, "duration": 9, "velocity": 88}, {"time": 2629, "pitch": 48, "duration": 2, "velocity": 87}, {"time": 2632, "pitch": 55, "duration": 4, "velocity": 85}, {"time": 2635, "pitch": 60, "duration": 1, "velocity": 75}, {"time": 2638, "pitch": 41, "duration": 16, "velocity": 87}, {"time": 2638, "pitch": 57, "duration": 7, "velocity": 79}, {"time": 2638, "pitch": 60, "duration": 7, "velocity": 88}, {"time": 2644, "pitch": 48, "duration": 7, "velocity": 80}, {"time": 2650, "pitch": 57, "duration": 2, "velocity": 82}, {"time": 2650, "pitch": 60, "duration": 3, "velocity": 89}, {"time": 2650, "pitch": 65, "duration": 5, "velocity": 80}, {"time": 2656, "pitch": 41, "duration": 2, "velocity": 89}, {"time": 2662, "pitch": 46, "duration": 7, "velocity": 88}, {"time": 2662, "pitch": 53, "duration": 3, "velocity": 81}, {"time": 2662, "pitch": 58, "duration": 6, "velocity": 78}, {"time": 2668, "pitch": 53, "duration": 3, "velocity": 88}, {"time": 2674, "pitch": 39, "duration": 7, "velocity": 88}, {"time": 2674, "pitch": 55, "duration": 4, "velocity": 81}, {"time": 2674, "pitch": 58, "duration": 7, "velocity": 79}, {"time": 2680, "pitch": 55, "duration": 2, "velocity": 82}, {"time": 2686, "pitch": 46, "duration": 21, "velocity": 79}, {"time": 2686, "pitch": 53, "duration": 4, "velocity": 76}, {"time": 2686, "pitch": 58, "duration": 8, "velocity": 76}, {"time": 2686, "pitch": 62, "duration": 7, "velocity": 87}, {"time": 2692, "pitch": 53, "duration": 1, "velocity": 57}, {"time": 2698, "pitch": 53, "duration": 10, "velocity": 81}, {"time": 2698, "pitch": 62, "duration": 11, "velocity": 87}, {"time": 2710, "pitch": 39, "duration": 13, "velocity": 84}, {"time": 2710, "pitch": 55, "duration": 7, "velocity": 82}, {"time": 2710, "pitch": 58, "duration": 7, "velocity": 75}, {"time": 2716, "pitch": 46, "duration": 6, "velocity": 64}, {"time": 2722, "pitch": 55, "duration": 3, "velocity": 88}, {"time": 2722, "pitch": 58, "duration": 6, "velocity": 90}, {"time": 2722, "pitch": 63, "duration": 5, "velocity": 87}, {"time": 2725, "pitch": 46, "duration": 1, "velocity": 88}, {"time": 2728, "pitch": 55, "duration": 4, "velocity": 88}, {"time": 2731, "pitch": 58, "duration": 1, "velocity": 76}, {"time": 2734, "pitch": 41, "duration": 15, "velocity": 86}, {"time": 2734, "pitch": 53, "duration": 10, "velocity": 86}, {"time": 2734, "pitch": 57, "duration": 7, "velocity": 83}, {"time": 2740, "pitch": 48, "duration": 8, "velocity": 75}, {"time": 2746, "pitch": 53, "duration": 2, "velocity": 83}, {"time": 2746, "pitch": 57, "duration": 2, "velocity": 87}, {"time": 2746, "pitch": 60, "duration": 3, "velocity": 87}, {"time": 2752, "pitch": 41, "duration": 4, "velocity": 88}, {"time": 2758, "pitch": 38, "duration": 3, "velocity": 89}, {"time": 2758, "pitch": 57, "duration": 5, "velocity": 82}, {"time": 2758, "pitch": 62, "duration": 6, "velocity": 83}, {"time": 2758, "pitch": 65, "duration": 7, "velocity": 87}, {"time": 2764, "pitch": 50, "duration": 10, "velocity": 81}, {"time": 2770, "pitch": 62, "duration": 3, "velocity": 88}, {"time": 2770, "pitch": 65, "duration": 5, "velocity": 92}, {"time": 2773, "pitch": 57, "duration": 2, "velocity": 88}, {"time": 2776, "pitch": 50, "duration": 2, "velocity": 87}, {"time": 2779, "pitch": 62, "duration": 2, "velocity": 87}, {"time": 2782, "pitch": 43, "duration": 15, "velocity": 79}, {"time": 2782, "pitch": 62, "duration": 4, "velocity": 87}, {"time": 2782, "pitch": 67, "duration": 5, "velocity": 87}, {"time": 2788, "pitch": 50, "duration": 8, "velocity": 89}, {"time": 2794, "pitch": 55, "duration": 4, "velocity": 86}, {"time": 2794, "pitch": 58, "duration": 4, "velocity": 92}, {"time": 2794, "pitch": 62, "duration": 5, "velocity": 89}, {"time": 2800, "pitch": 43, "duration": 5, "velocity": 87}, {"time": 2806, "pitch": 48, "duration": 13, "velocity": 89}, {"time": 2806, "pitch": 55, "duration": 3, "velocity": 83}, {"time": 2806, "pitch": 60, "duration": 7, "velocity": 83}, {"time": 2806, "pitch": 63, "duration": 7, "velocity": 79}, {"time": 2812, "pitch": 55, "duration": 3, "velocity": 72}, {"time": 2818, "pitch": 55, "duration": 3, "velocity": 88}, {"time": 2818, "pitch": 60, "duration": 4, "velocity": 91}, {"time": 2818, "pitch": 63, "duration": 9, "velocity": 88}, {"time": 2821, "pitch": 48, "duration": 2, "velocity": 87}, {"time": 2824, "pitch": 55, "duration": 4, "velocity": 85}, {"time": 2827, "pitch": 60, "duration": 1, "velocity": 75}, {"time": 2829, "pitch": 48, "duration": 4, "velocity": 86}, {"time": 2829, "pitch": 65, "duration": 5, "velocity": 85}, {"time": 2829, "pitch": 41, "duration": 5, "velocity": 89}, {"time": 2833, "pitch": 60, "duration": 6, "velocity": 91}, {"time": 2837, "pitch": 48, "duration": 2, "velocity": 79}, {"time": 2837, "pitch": 41, "duration": 2, "velocity": 72}, {"time": 2837, "pitch": 65, "duration": 3, "velocity": 98}, {"time": 2842, "pitch": 41, "duration": 8, "velocity": 87}, {"time": 2842, "pitch": 48, "duration": 8, "velocity": 88}, {"time": 2842, "pitch": 65, "duration": 5, "velocity": 88}, {"time": 2842, "pitch": 60, "duration": 2, "velocity": 89}, {"time": 2846, "pitch": 60, "duration": 4, "velocity": 88}, {"time": 2850, "pitch": 65, "duration": 2, "velocity": 88}, {"time": 2853, "pitch": 46, "duration": 2, "velocity": 94}, {"time": 2854, "pitch": 53, "duration": 2, "velocity": 86}, {"time": 2854, "pitch": 58, "duration": 2, "velocity": 84}, {"time": 2854, "pitch": 62, "duration": 3, "velocity": 88}, {"time": 2862, "pitch": 48, "duration": 4, "velocity": 101}, {"time": 2862, "pitch": 60, "duration": 4, "velocity": 88}, {"time": 2862, "pitch": 55, "duration": 4, "velocity": 88}, {"time": 2871, "pitch": 50, "duration": 4, "velocity": 90}, {"time": 2871, "pitch": 57, "duration": 6, "velocity": 85}, {"time": 2871, "pitch": 62, "duration": 5, "velocity": 87}, {"time": 2883, "pitch": 51, "duration": 5, "velocity": 87}, {"time": 2883, "pitch": 63, "duration": 5, "velocity": 91}, {"time": 2889, "pitch": 53, "duration": 1, "velocity": 92}, {"time": 2889, "pitch": 65, "duration": 5, "velocity": 88}, {"time": 2902, "pitch": 39, "duration": 13, "velocity": 84}, {"time": 2902, "pitch": 55, "duration": 7, "velocity": 82}, {"time": 2902, "pitch": 58, "duration": 7, "velocity": 75}, {"time": 2908, "pitch": 46, "duration": 6, "velocity": 64}, {"time": 2914, "pitch": 55, "duration": 3, "velocity": 88}, {"time": 2914, "pitch": 58, "duration": 6, "velocity": 90}, {"time": 2914, "pitch": 63, "duration": 5, "velocity": 87}, {"time": 2917, "pitch": 46, "duration": 1, "velocity": 88}, {"time": 2920, "pitch": 55, "duration": 4, "velocity": 88}, {"time": 2923, "pitch": 58, "duration": 1, "velocity": 76}, {"time": 2926, "pitch": 41, "duration": 15, "velocity": 86}, {"time": 2926, "pitch": 53, "duration": 10, "velocity": 86}, {"time": 2926, "pitch": 57, "duration": 7, "velocity": 83}, {"time": 2932, "pitch": 48, "duration": 8, "velocity": 75}, {"time": 2938, "pitch": 53, "duration": 2, "velocity": 83}, {"time": 2938, "pitch": 57, "duration": 2, "velocity": 87}, {"time": 2938, "pitch": 60, "duration": 3, "velocity": 87}, {"time": 2944, "pitch": 41, "duration": 4, "velocity": 88}, {"time": 2950, "pitch": 38, "duration": 3, "velocity": 89}, {"time": 2950, "pitch": 57, "duration": 5, "velocity": 82}, {"time": 2950, "pitch": 62, "duration": 6, "velocity": 83}, {"time": 2950, "pitch": 65, "duration": 7, "velocity": 87}, {"time": 2956, "pitch": 50, "duration": 10, "velocity": 81}, {"time": 2962, "pitch": 62, "duration": 3, "velocity": 88}, {"time": 2962, "pitch": 65, "duration": 5, "velocity": 92}, {"time": 2965, "pitch": 57, "duration": 2, "velocity": 88}, {"time": 2968, "pitch": 50, "duration": 2, "velocity": 87}, {"time": 2971, "pitch": 62, "duration": 2, "velocity": 87}, {"time": 2973, "pitch": 43, "duration": 32, "velocity": 85}, {"time": 2976, "pitch": 50, "duration": 29, "velocity": 78}, {"time": 2979, "pitch": 55, "duration": 4, "velocity": 83}, {"time": 2982, "pitch": 57, "duration": 3, "velocity": 87}, {"time": 2985, "pitch": 58, "duration": 2, "velocity": 88}, {"time": 2988, "pitch": 62, "duration": 2, "velocity": 75}, {"time": 2992, "pitch": 67, "duration": 3, "velocity": 58}, {"time": 2995, "pitch": 69, "duration": 2, "velocity": 91}, {"time": 2998, "pitch": 70, "duration": 8, "velocity": 88}, {"time": 3034, "pitch": 55, "duration": 2, "velocity": 76}, {"time": 3035, "pitch": 36, "duration": 2, "velocity": 70}, {"time": 3035, "pitch": 60, "duration": 2, "velocity": 79}, {"time": 3036, "pitch": 63, "duration": 18, "velocity": 75}, {"time": 3061, "pitch": 41, "duration": 21, "velocity": 80}, {"time": 3064, "pitch": 48, "duration": 17, "velocity": 68}, {"time": 3064, "pitch": 53, "duration": 26, "velocity": 61}, {"time": 3065, "pitch": 57, "duration": 31, "velocity": 78}, {"time": 3066, "pitch": 60, "duration": 30, "velocity": 69}, {"time": 3067, "pitch": 65, "duration": 30, "velocity": 78}, {"time": 3118, "pitch": 46, "duration": 23, "velocity": 79}, {"time": 3118, "pitch": 53, "duration": 22, "velocity": 71}, {"time": 3118, "pitch": 58, "duration": 22, "velocity": 74}, {"time": 3142, "pitch": 39, "duration": 22, "velocity": 74}, {"time": 3142, "pitch": 51, "duration": 21, "velocity": 69}, {"time": 3142, "pitch": 58, "duration": 22, "velocity": 70}, {"time": 3166, "pitch": 46, "duration": 22, "velocity": 75}, {"time": 3166, "pitch": 53, "duration": 21, "velocity": 64}, {"time": 3166, "pitch": 58, "duration": 22, "velocity": 71}, {"time": 3190, "pitch": 39, "duration": 22, "velocity": 73}, {"time": 3190, "pitch": 51, "duration": 22, "velocity": 75}, {"time": 3190, "pitch": 58, "duration": 2, "velocity": 53}, {"time": 3214, "pitch": 46, "duration": 23, "velocity": 79}, {"time": 3214, "pitch": 53, "duration": 22, "velocity": 71}, {"time": 3214, "pitch": 58, "duration": 22, "velocity": 74}, {"time": 3238, "pitch": 39, "duration": 22, "velocity": 74}, {"time": 3238, "pitch": 51, "duration": 21, "velocity": 69}, {"time": 3238, "pitch": 58, "duration": 22, "velocity": 70}, {"time": 3262, "pitch": 46, "duration": 22, "velocity": 75}, {"time": 3262, "pitch": 53, "duration": 21, "velocity": 64}, {"time": 3262, "pitch": 58, "duration": 22, "velocity": 71}, {"time": 3286, "pitch": 39, "duration": 22, "velocity": 73}, {"time": 3286, "pitch": 51, "duration": 22, "velocity": 75}, {"time": 3286, "pitch": 58, "duration": 2, "velocity": 53}], "annotations": [{"time": 237, "annotation": {"number": 64, "value": 0}, "group": "control_change"}, {"time": 238, "annotation": {"number": 64, "value": 127}, "group": "control_change"}, {"time": 262, "annotation": {"number": 64, "value": 0}, "group": "control_change"}, {"time": 263, "annotation": {"number": 64, "value": 127}, "group": "control_change"}, {"time": 287, "annotation": {"number": 64, "value": 0}, "group": "control_change"}, {"time": 289, "annotation": {"number": 64, "value": 127}, "group": "control_change"}, {"time": 309, "annotation": {"number": 64, "value": 0}, "group": "control_change"}, {"time": 312, "annotation": {"number": 64, "value": 127}, "group": "control_change"}, {"time": 332, "annotation": {"number": 64, "value": 0}, "group": "control_change"}, {"time": 334, "annotation": {"number": 64, "value": 127}, "group": "control_change"}, {"time": 357, "annotation": {"number": 64, "value": 0}, "group": "control_change"}, {"time": 358, "annotation": {"number": 64, "value": 127}, "group": "control_change"}, {"time": 380, "annotation": {"number": 64, "value": 0}, "group": "control_change"}, {"time": 382, "annotation": {"number": 64, "value": 127}, "group": "control_change"}, {"time": 392, "annotation": {"number": 64, "value": 0}, "group": "control_change"}, {"time": 393, "annotation": {"number": 64, "value": 127}, "group": "control_change"}, {"time": 405, "annotation": {"number": 64, "value": 0}, "group": "control_change"}, {"time": 407, "annotation": {"number": 64, "value": 127}, "group": "control_change"}, {"time": 430, "annotation": {"number": 64, "value": 0}, "group": "control_change"}, {"time": 433, "annotation": {"number": 64, "value": 127}, "group": "control_change"}, {"time": 453, "annotation": {"number": 64, "value": 0}, "group": "control_change"}, {"time": 455, "annotation": {"number": 64, "value": 127}, "group": "control_change"}, {"time": 478, "annotation": {"number": 64, "value": 0}, "group": "control_change"}, {"time": 480, "annotation": {"number": 64, "value": 127}, "group": "control_change"}, {"time": 499, "annotation": {"number": 64, "value": 0}, "group": "control_change"}, {"time": 500, "annotation": {"number": 64, "value": 127}, "group": "control_change"}, {"time": 547, "annotation": {"number": 64, "value": 0}, "group": "control_change"}, {"time": 549, "annotation": {"number": 64, "value": 127}, "group": "control_change"}, {"time": 592, "annotation": {"number": 64, "value": 0}, "group": "control_change"}, {"time": 621, "annotation": {"number": 64, "value": 0}, "group": "control_change"}, {"time": 622, "annotation": {"number": 64, "value": 127}, "group": "control_change"}, {"time": 646, "annotation": {"number": 64, "value": 0}, "group": "control_change"}, {"time": 647, "annotation": {"number": 64, "value": 127}, "group": "control_change"}, {"time": 671, "annotation": {"number": 64, "value": 0}, "group": "control_change"}, {"time": 673, "annotation": {"number": 64, "value": 127}, "group": "control_change"}, {"time": 693, "annotation": {"number": 64, "value": 0}, "group": "control_change"}, {"time": 696, "annotation": {"number": 64, "value": 127}, "group": "control_change"}, {"time": 716, "annotation": {"number": 64, "value": 0}, "group": "control_change"}, {"time": 718, "annotation": {"number": 64, "value": 127}, "group": "control_change"}, {"time": 741, "annotation": {"number": 64, "value": 0}, "group": "control_change"}, {"time": 742, "annotation": {"number": 64, "value": 127}, "group": "control_change"}, {"time": 764, "annotation": {"number": 64, "value": 0}, "group": "control_change"}, {"time": 766, "annotation": {"number": 64, "value": 127}, "group": "control_change"}, {"time": 776, "annotation": {"number": 64, "value": 0}, "group": "control_change"}, {"time": 777, "annotation": {"number": 64, "value": 127}, "group": "control_change"}, {"time": 789, "annotation": {"number": 64, "value": 0}, "group": "control_change"}, {"time": 791, "annotation": {"number": 64, "value": 127}, "group": "control_change"}, {"time": 814, "annotation": {"number": 64, "value": 0}, "group": "control_change"}, {"time": 817, "annotation": {"number": 64, "value": 127}, "group": "control_change"}, {"time": 837, "annotation": {"number": 64, "value": 0}, "group": "control_change"}, {"time": 839, "annotation": {"number": 64, "value": 127}, "group": "control_change"}, {"time": 862, "annotation": {"number": 64, "value": 0}, "group": "control_change"}, {"time": 864, "annotation": {"number": 64, "value": 127}, "group": "control_change"}, {"time": 883, "annotation": {"number": 64, "value": 0}, "group": "control_change"}, {"time": 884, "annotation": {"number": 64, "value": 127}, "group": "control_change"}, {"time": 885, "annotation": {"number": 64, "value": 127}, "group": "control_change"}, {"time": 909, "annotation": {"number": 64, "value": 0}, "group": "control_change"}, {"time": 911, "annotation": {"number": 64, "value": 127}, "group": "control_change"}, {"time": 931, "annotation": {"number": 64, "value": 0}, "group": "control_change"}, {"time": 933, "annotation": {"number": 64, "value": 127}, "group": "control_change"}, {"time": 957, "annotation": {"number": 64, "value": 0}, "group": "control_change"}, {"time": 958, "annotation": {"number": 64, "value": 127}, "group": "control_change"}, {"time": 969, "annotation": {"number": 64, "value": 0}, "group": "control_change"}, {"time": 970, "annotation": {"number": 64, "value": 127}, "group": "control_change"}, {"time": 982, "annotation": {"number": 64, "value": 0}, "group": "control_change"}, {"time": 1005, "annotation": {"number": 64, "value": 0}, "group": "control_change"}, {"time": 1006, "annotation": {"number": 64, "value": 127}, "group": "control_change"}, {"time": 1028, "annotation": {"number": 64, "value": 0}, "group": "control_change"}, {"time": 1029, "annotation": {"number": 64, "value": 127}, "group": "control_change"}, {"time": 1052, "annotation": {"number": 64, "value": 0}, "group": "control_change"}, {"time": 1054, "annotation": {"number": 64, "value": 127}, "group": "control_change"}, {"time": 1076, "annotation": {"number": 64, "value": 0}, "group": "control_change"}, {"time": 1077, "annotation": {"number": 64, "value": 127}, "group": "control_change"}, {"time": 1100, "annotation": {"number": 64, "value": 0}, "group": "control_change"}, {"time": 1102, "annotation": {"number": 64, "value": 127}, "group": "control_change"}, {"time": 1124, "annotation": {"number": 64, "value": 0}, "group": "control_change"}, {"time": 1125, "annotation": {"number": 64, "value": 127}, "group": "control_change"}, {"time": 1148, "annotation": {"number": 64, "value": 0}, "group": "control_change"}, {"time": 1149, "annotation": {"number": 64, "value": 127}, "group": "control_change"}, {"time": 1172, "annotation": {"number": 64, "value": 0}, "group": "control_change"}, {"time": 1173, "annotation": {"number": 64, "value": 127}, "group": "control_change"}, {"time": 1197, "annotation": {"number": 64, "value": 0}, "group": "control_change"}, {"time": 1198, "annotation": {"number": 64, "value": 127}, "group": "control_change"}, {"time": 1220, "annotation": {"number": 64, "value": 0}, "group": "control_change"}, {"time": 1221, "annotation": {"number": 64, "value": 127}, "group": "control_change"}, {"time": 1244, "annotation": {"number": 64, "value": 0}, "group": "control_change"}, {"time": 1246, "annotation": {"number": 64, "value": 127}, "group": "control_change"}, {"time": 1268, "annotation": {"number": 64, "value": 0}, "group": "control_change"}, {"time": 1269, "annotation": {"number": 64, "value": 127}, "group": "control_change"}, {"time": 1292, "annotation": {"number": 64, "value": 0}, "group": "control_change"}, {"time": 1294, "annotation": {"number": 64, "value": 127}, "group": "control_change"}, {"time": 1316, "annotation": {"number": 64, "value": 0}, "group": "control_change"}, {"time": 1317, "annotation": {"number": 64, "value": 127}, "group": "control_change"}, {"time": 1318, "annotation": {"number": 64, "value": 127}, "group": "control_change"}, {"time": 1330, "annotation": {"number": 64, "value": 0}, "group": "control_change"}, {"time": 1331, "annotation": {"number": 64, "value": 127}, "group": "control_change"}, {"time": 1340, "annotation": {"number": 64, "value": 0}, "group": "control_change"}, {"time": 1342, "annotation": {"number": 64, "value": 127}, "group": "control_change"}, {"time": 1365, "annotation": {"number": 64, "value": 0}, "group": "control_change"}, {"time": 1366, "annotation": {"number": 64, "value": 127}, "group": "control_change"}, {"time": 1388, "annotation": {"number": 64, "value": 0}, "group": "control_change"}, {"time": 1390, "annotation": {"number": 64, "value": 127}, "group": "control_change"}, {"time": 1413, "annotation": {"number": 64, "value": 0}, "group": "control_change"}, {"time": 1414, "annotation": {"number": 64, "value": 127}, "group": "control_change"}, {"time": 1436, "annotation": {"number": 64, "value": 0}, "group": "control_change"}, {"time": 1438, "annotation": {"number": 64, "value": 127}, "group": "control_change"}, {"time": 1460, "annotation": {"number": 64, "value": 0}, "group": "control_change"}, {"time": 1462, "annotation": {"number": 64, "value": 127}, "group": "control_change"}, {"time": 1484, "annotation": {"number": 64, "value": 0}, "group": "control_change"}, {"time": 1486, "annotation": {"number": 64, "value": 127}, "group": "control_change"}, {"time": 1509, "annotation": {"number": 64, "value": 0}, "group": "control_change"}, {"time": 1510, "annotation": {"number": 64, "value": 127}, "group": "control_change"}, {"time": 1532, "annotation": {"number": 64, "value": 0}, "group": "control_change"}, {"time": 1534, "annotation": {"number": 64, "value": 127}, "group": "control_change"}, {"time": 1545, "annotation": {"number": 64, "value": 0}, "group": "control_change"}, {"time": 1547, "annotation": {"number": 64, "value": 127}, "group": "control_change"}, {"time": 1555, "annotation": {"number": 64, "value": 0}, "group": "control_change"}, {"time": 1581, "annotation": {"number": 64, "value": 0}, "group": "control_change"}, {"time": 1582, "annotation": {"number": 64, "value": 127}, "group": "control_change"}, {"time": 1606, "annotation": {"number": 64, "value": 0}, "group": "control_change"}, {"time": 1607, "annotation": {"number": 64, "value": 127}, "group": "control_change"}, {"time": 1631, "annotation": {"number": 64, "value": 0}, "group": "control_change"}, {"time": 1633, "annotation": {"number": 64, "value": 127}, "group": "control_change"}, {"time": 1653, "annotation": {"number": 64, "value": 0}, "group": "control_change"}, {"time": 1656, "annotation": {"number": 64, "value": 127}, "group": "control_change"}, {"time": 1676, "annotation": {"number": 64, "value": 0}, "group": "control_change"}, {"time": 1678, "annotation": {"number": 64, "value": 127}, "group": "control_change"}, {"time": 1701, "annotation": {"number": 64, "value": 0}, "group": "control_change"}, {"time": 1702, "annotation": {"number": 64, "value": 127}, "group": "control_change"}, {"time": 1724, "annotation": {"number": 64, "value": 0}, "group": "control_change"}, {"time": 1726, "annotation": {"number": 64, "value": 127}, "group": "control_change"}, {"time": 1736, "annotation": {"number": 64, "value": 0}, "group": "control_change"}, {"time": 1737, "annotation": {"number": 64, "value": 127}, "group": "control_change"}, {"time": 1749, "annotation": {"number": 64, "value": 0}, "group": "control_change"}, {"time": 1751, "annotation": {"number": 64, "value": 127}, "group": "control_change"}, {"time": 1774, "annotation": {"number": 64, "value": 0}, "group": "control_change"}, {"time": 1777, "annotation": {"number": 64, "value": 127}, "group": "control_change"}, {"time": 1797, "annotation": {"number": 64, "value": 0}, "group": "control_change"}, {"time": 1799, "annotation": {"number": 64, "value": 127}, "group": "control_change"}, {"time": 1822, "annotation": {"number": 64, "value": 0}, "group": "control_change"}, {"time": 1824, "annotation": {"number": 64, "value": 127}, "group": "control_change"}, {"time": 1843, "annotation": {"number": 64, "value": 0}, "group": "control_change"}, {"time": 1844, "annotation": {"number": 64, "value": 127}, "group": "control_change"}, {"time": 1845, "annotation": {"number": 64, "value": 127}, "group": "control_change"}, {"time": 1869, "annotation": {"number": 64, "value": 0}, "group": "control_change"}, {"time": 1871, "annotation": {"number": 64, "value": 127}, "group": "control_change"}, {"time": 1891, "annotation": {"number": 64, "value": 0}, "group": "control_change"}, {"time": 1893, "annotation": {"number": 64, "value": 127}, "group": "control_change"}, {"time": 1917, "annotation": {"number": 64, "value": 0}, "group": "control_change"}, {"time": 1918, "annotation": {"number": 64, "value": 127}, "group": "control_change"}, {"time": 1929, "annotation": {"number": 64, "value": 0}, "group": "control_change"}, {"time": 1930, "annotation": {"number": 64, "value": 127}, "group": "control_change"}, {"time": 1942, "annotation": {"number": 64, "value": 0}, "group": "control_change"}, {"time": 1965, "annotation": {"number": 64, "value": 0}, "group": "control_change"}, {"time": 1966, "annotation": {"number": 64, "value": 127}, "group": "control_change"}, {"time": 1988, "annotation": {"number": 64, "value": 0}, "group": "control_change"}, {"time": 1989, "annotation": {"number": 64, "value": 127}, "group": "control_change"}, {"time": 2012, "annotation": {"number": 64, "value": 0}, "group": "control_change"}, {"time": 2014, "annotation": {"number": 64, "value": 127}, "group": "control_change"}, {"time": 2036, "annotation": {"number": 64, "value": 0}, "group": "control_change"}, {"time": 2037, "annotation": {"number": 64, "value": 127}, "group": "control_change"}, {"time": 2060, "annotation": {"number": 64, "value": 0}, "group": "control_change"}, {"time": 2062, "annotation": {"number": 64, "value": 127}, "group": "control_change"}, {"time": 2084, "annotation": {"number": 64, "value": 0}, "group": "control_change"}, {"time": 2085, "annotation": {"number": 64, "value": 127}, "group": "control_change"}, {"time": 2108, "annotation": {"number": 64, "value": 0}, "group": "control_change"}, {"time": 2109, "annotation": {"number": 64, "value": 127}, "group": "control_change"}, {"time": 2132, "annotation": {"number": 64, "value": 0}, "group": "control_change"}, {"time": 2133, "annotation": {"number": 64, "value": 127}, "group": "control_change"}, {"time": 2157, "annotation": {"number": 64, "value": 0}, "group": "control_change"}, {"time": 2158, "annotation": {"number": 64, "value": 127}, "group": "control_change"}, {"time": 2180, "annotation": {"number": 64, "value": 0}, "group": "control_change"}, {"time": 2181, "annotation": {"number": 64, "value": 127}, "group": "control_change"}, {"time": 2204, "annotation": {"number": 64, "value": 0}, "group": "control_change"}, {"time": 2206, "annotation": {"number": 64, "value": 127}, "group": "control_change"}, {"time": 2228, "annotation": {"number": 64, "value": 0}, "group": "control_change"}, {"time": 2229, "annotation": {"number": 64, "value": 127}, "group": "control_change"}, {"time": 2252, "annotation": {"number": 64, "value": 0}, "group": "control_change"}, {"time": 2254, "annotation": {"number": 64, "value": 127}, "group": "control_change"}, {"time": 2276, "annotation": {"number": 64, "value": 0}, "group": "control_change"}, {"time": 2277, "annotation": {"number": 64, "value": 127}, "group": "control_change"}, {"time": 2326, "annotation": {"number": 64, "value": 0}, "group": "control_change"}, {"time": 2329, "annotation": {"number": 64, "value": 127}, "group": "control_change"}, {"time": 2350, "annotation": {"number": 64, "value": 0}, "group": "control_change"}, {"time": 2352, "annotation": {"number": 64, "value": 127}, "group": "control_change"}, {"time": 2372, "annotation": {"number": 64, "value": 0}, "group": "control_change"}, {"time": 2375, "annotation": {"number": 64, "value": 127}, "group": "control_change"}, {"time": 2397, "annotation": {"number": 64, "value": 0}, "group": "control_change"}, {"time": 2400, "annotation": {"number": 64, "value": 127}, "group": "control_change"}, {"time": 2419, "annotation": {"number": 64, "value": 0}, "group": "control_change"}, {"time": 2423, "annotation": {"number": 64, "value": 127}, "group": "control_change"}, {"time": 2445, "annotation": {"number": 64, "value": 0}, "group": "control_change"}, {"time": 2449, "annotation": {"number": 64, "value": 127}, "group": "control_change"}, {"time": 2468, "annotation": {"number": 64, "value": 0}, "group": "control_change"}, {"time": 2471, "annotation": {"number": 64, "value": 127}, "group": "control_change"}, {"time": 2493, "annotation": {"number": 64, "value": 0}, "group": "control_change"}, {"time": 2494, "annotation": {"number": 64, "value": 127}, "group": "control_change"}, {"time": 2516, "annotation": {"number": 64, "value": 0}, "group": "control_change"}, {"time": 2541, "annotation": {"number": 64, "value": 0}, "group": "control_change"}, {"time": 2542, "annotation": {"number": 64, "value": 127}, "group": "control_change"}, {"time": 2564, "annotation": {"number": 64, "value": 0}, "group": "control_change"}, {"time": 2565, "annotation": {"number": 64, "value": 127}, "group": "control_change"}, {"time": 2588, "annotation": {"number": 64, "value": 0}, "group": "control_change"}, {"time": 2590, "annotation": {"number": 64, "value": 127}, "group": "control_change"}, {"time": 2612, "annotation": {"number": 64, "value": 0}, "group": "control_change"}, {"time": 2613, "annotation": {"number": 64, "value": 127}, "group": "control_change"}, {"time": 2636, "annotation": {"number": 64, "value": 0}, "group": "control_change"}, {"time": 2638, "annotation": {"number": 64, "value": 127}, "group": "control_change"}, {"time": 2660, "annotation": {"number": 64, "value": 0}, "group": "control_change"}, {"time": 2661, "annotation": {"number": 64, "value": 127}, "group": "control_change"}, {"time": 2662, "annotation": {"number": 64, "value": 127}, "group": "control_change"}, {"time": 2674, "annotation": {"number": 64, "value": 0}, "group": "control_change"}, {"time": 2675, "annotation": {"number": 64, "value": 127}, "group": "control_change"}, {"time": 2684, "annotation": {"number": 64, "value": 0}, "group": "control_change"}, {"time": 2686, "annotation": {"number": 64, "value": 127}, "group": "control_change"}, {"time": 2709, "annotation": {"number": 64, "value": 0}, "group": "control_change"}, {"time": 2733, "annotation": {"number": 64, "value": 0}, "group": "control_change"}, {"time": 2734, "annotation": {"number": 64, "value": 127}, "group": "control_change"}, {"time": 2756, "annotation": {"number": 64, "value": 0}, "group": "control_change"}, {"time": 2757, "annotation": {"number": 64, "value": 127}, "group": "control_change"}, {"time": 2780, "annotation": {"number": 64, "value": 0}, "group": "control_change"}, {"time": 2782, "annotation": {"number": 64, "value": 127}, "group": "control_change"}, {"time": 2804, "annotation": {"number": 64, "value": 0}, "group": "control_change"}, {"time": 2805, "annotation": {"number": 64, "value": 127}, "group": "control_change"}, {"time": 2828, "annotation": {"number": 64, "value": 0}, "group": "control_change"}, {"time": 2829, "annotation": {"number": 64, "value": 127}, "group": "control_change"}, {"time": 2829, "annotation": {"number": 64, "value": 0}, "group": "control_change"}, {"time": 2842, "annotation": {"number": 64, "value": 0}, "group": "control_change"}, {"time": 2843, "annotation": {"number": 64, "value": 127}, "group": "control_change"}, {"time": 2853, "annotation": {"number": 64, "value": 127}, "group": "control_change"}, {"time": 2853, "annotation": {"number": 64, "value": 0}, "group": "control_change"}, {"time": 2860, "annotation": {"number": 64, "value": 0}, "group": "control_change"}, {"time": 2862, "annotation": {"number": 64, "value": 127}, "group": "control_change"}, {"time": 2868, "annotation": {"number": 64, "value": 0}, "group": "control_change"}, {"time": 2870, "annotation": {"number": 64, "value": 127}, "group": "control_change"}, {"time": 2882, "annotation": {"number": 64, "value": 0}, "group": "control_change"}, {"time": 2883, "annotation": {"number": 64, "value": 127}, "group": "control_change"}, {"time": 2899, "annotation": {"number": 64, "value": 0}, "group": "control_change"}, {"time": 2925, "annotation": {"number": 64, "value": 0}, "group": "control_change"}, {"time": 2926, "annotation": {"number": 64, "value": 127}, "group": "control_change"}, {"time": 2948, "annotation": {"number": 64, "value": 0}, "group": "control_change"}, {"time": 2949, "annotation": {"number": 64, "value": 127}, "group": "control_change"}, {"time": 2972, "annotation": {"number": 64, "value": 0}, "group": "control_change"}, {"time": 2973, "annotation": {"number": 64, "value": 127}, "group": "control_change"}, {"time": 2973, "annotation": {"number": 64, "value": 0}, "group": "control_change"}, {"time": 2974, "annotation": {"number": 64, "value": 127}, "group": "control_change"}, {"time": 3025, "annotation": {"number": 64, "value": 0}, "group": "control_change"}, {"time": 3033, "annotation": {"number": 64, "value": 127}, "group": "control_change"}, {"time": 3061, "annotation": {"number": 64, "value": 0}, "group": "control_change"}, {"time": 3063, "annotation": {"number": 64, "value": 127}, "group": "control_change"}, {"time": 3116, "annotation": {"number": 64, "value": 0}, "group": "control_change"}]}]}