{"metadata": {"schema_version": "0.2", "title": "None", "source_filename": "783.mid", "source_format": "midi"}, "resolution": 12, "tempos": [{"time": 0, "qpm": 68.0000725334107}], "time_signatures": [{"time": 0, "numerator": 1, "denominator": 4}], "tracks": [{"program": 0, "is_drum": false, "name": "MELODY", "notes": [{"time": 402, "pitch": 72, "duration": 5, "velocity": 85}, {"time": 408, "pitch": 70, "duration": 6, "velocity": 84}, {"time": 414, "pitch": 68, "duration": 6, "velocity": 83}, {"time": 420, "pitch": 72, "duration": 15, "velocity": 85}, {"time": 437, "pitch": 72, "duration": 6, "velocity": 86}, {"time": 444, "pitch": 70, "duration": 5, "velocity": 87}, {"time": 450, "pitch": 68, "duration": 4, "velocity": 85}, {"time": 456, "pitch": 67, "duration": 5, "velocity": 86}, {"time": 462, "pitch": 68, "duration": 10, "velocity": 83}, {"time": 474, "pitch": 75, "duration": 17, "velocity": 89}, {"time": 498, "pitch": 75, "duration": 4, "velocity": 89}, {"time": 504, "pitch": 75, "duration": 5, "velocity": 88}, {"time": 510, "pitch": 67, "duration": 4, "velocity": 81}, {"time": 516, "pitch": 70, "duration": 5, "velocity": 81}, {"time": 522, "pitch": 68, "duration": 8, "velocity": 85}, {"time": 534, "pitch": 70, "duration": 5, "velocity": 86}, {"time": 540, "pitch": 72, "duration": 4, "velocity": 85}, {"time": 546, "pitch": 72, "duration": 5, "velocity": 86}, {"time": 552, "pitch": 70, "duration": 5, "velocity": 83}, {"time": 558, "pitch": 68, "duration": 9, "velocity": 85}, {"time": 570, "pitch": 67, "duration": 19, "velocity": 85}, {"time": 594, "pitch": 68, "duration": 5, "velocity": 82}, {"time": 600, "pitch": 75, "duration": 6, "velocity": 91}, {"time": 606, "pitch": 72, "duration": 5, "velocity": 84}, {"time": 612, "pitch": 73, "duration": 15, "velocity": 80}, {"time": 630, "pitch": 73, "duration": 5, "velocity": 85}, {"time": 636, "pitch": 75, "duration": 5, "velocity": 87}, {"time": 642, "pitch": 73, "duration": 5, "velocity": 82}, {"time": 648, "pitch": 72, "duration": 5, "velocity": 85}, {"time": 654, "pitch": 70, "duration": 5, "velocity": 85}, {"time": 660, "pitch": 73, "duration": 14, "velocity": 82}, {"time": 678, "pitch": 73, "duration": 5, "velocity": 85}, {"time": 684, "pitch": 75, "duration": 5, "velocity": 85}, {"time": 690, "pitch": 73, "duration": 5, "velocity": 85}, {"time": 696, "pitch": 72, "duration": 5, "velocity": 86}, {"time": 702, "pitch": 70, "duration": 5, "velocity": 85}, {"time": 708, "pitch": 73, "duration": 13, "velocity": 85}, {"time": 732, "pitch": 75, "duration": 5, "velocity": 89}, {"time": 738, "pitch": 73, "duration": 5, "velocity": 81}, {"time": 744, "pitch": 72, "duration": 7, "velocity": 85}, {"time": 756, "pitch": 68, "duration": 5, "velocity": 85}, {"time": 762, "pitch": 70, "duration": 18, "velocity": 79}, {"time": 786, "pitch": 72, "duration": 5, "velocity": 85}, {"time": 792, "pitch": 70, "duration": 6, "velocity": 84}, {"time": 798, "pitch": 68, "duration": 6, "velocity": 83}, {"time": 804, "pitch": 72, "duration": 15, "velocity": 85}, {"time": 821, "pitch": 72, "duration": 6, "velocity": 86}, {"time": 828, "pitch": 70, "duration": 5, "velocity": 87}, {"time": 834, "pitch": 68, "duration": 4, "velocity": 85}, {"time": 840, "pitch": 67, "duration": 5, "velocity": 86}, {"time": 846, "pitch": 68, "duration": 10, "velocity": 83}, {"time": 858, "pitch": 75, "duration": 17, "velocity": 89}, {"time": 882, "pitch": 75, "duration": 4, "velocity": 89}, {"time": 888, "pitch": 75, "duration": 5, "velocity": 88}, {"time": 894, "pitch": 67, "duration": 4, "velocity": 81}, {"time": 900, "pitch": 70, "duration": 5, "velocity": 81}, {"time": 906, "pitch": 68, "duration": 8, "velocity": 85}, {"time": 918, "pitch": 70, "duration": 5, "velocity": 86}, {"time": 924, "pitch": 72, "duration": 4, "velocity": 85}, {"time": 930, "pitch": 72, "duration": 5, "velocity": 86}, {"time": 936, "pitch": 70, "duration": 5, "velocity": 83}, {"time": 942, "pitch": 68, "duration": 9, "velocity": 85}, {"time": 954, "pitch": 67, "duration": 19, "velocity": 85}, {"time": 978, "pitch": 68, "duration": 5, "velocity": 82}, {"time": 984, "pitch": 75, "duration": 6, "velocity": 91}, {"time": 990, "pitch": 72, "duration": 5, "velocity": 84}, {"time": 996, "pitch": 73, "duration": 15, "velocity": 80}, {"time": 1014, "pitch": 73, "duration": 5, "velocity": 85}, {"time": 1020, "pitch": 75, "duration": 5, "velocity": 87}, {"time": 1026, "pitch": 73, "duration": 5, "velocity": 82}, {"time": 1032, "pitch": 72, "duration": 5, "velocity": 85}, {"time": 1038, "pitch": 70, "duration": 5, "velocity": 85}, {"time": 1044, "pitch": 73, "duration": 14, "velocity": 82}, {"time": 1062, "pitch": 73, "duration": 5, "velocity": 85}, {"time": 1068, "pitch": 75, "duration": 5, "velocity": 85}, {"time": 1074, "pitch": 73, "duration": 5, "velocity": 85}, {"time": 1080, "pitch": 72, "duration": 5, "velocity": 86}, {"time": 1086, "pitch": 70, "duration": 5, "velocity": 85}, {"time": 1092, "pitch": 73, "duration": 13, "velocity": 85}, {"time": 1110, "pitch": 73, "duration": 5, "velocity": 87}, {"time": 1116, "pitch": 75, "duration": 5, "velocity": 86}, {"time": 1122, "pitch": 73, "duration": 5, "velocity": 86}, {"time": 1128, "pitch": 72, "duration": 4, "velocity": 86}, {"time": 1134, "pitch": 73, "duration": 10, "velocity": 87}, {"time": 1146, "pitch": 75, "duration": 19, "velocity": 81}, {"time": 1170, "pitch": 75, "duration": 5, "velocity": 96}, {"time": 1176, "pitch": 77, "duration": 4, "velocity": 87}, {"time": 1182, "pitch": 79, "duration": 4, "velocity": 85}, {"time": 1188, "pitch": 80, "duration": 5, "velocity": 85}, {"time": 1194, "pitch": 75, "duration": 2, "velocity": 87}, {"time": 1197, "pitch": 75, "duration": 17, "velocity": 86}, {"time": 1218, "pitch": 84, "duration": 5, "velocity": 86}, {"time": 1224, "pitch": 82, "duration": 4, "velocity": 85}, {"time": 1230, "pitch": 80, "duration": 4, "velocity": 85}, {"time": 1236, "pitch": 82, "duration": 10, "velocity": 84}, {"time": 1248, "pitch": 75, "duration": 13, "velocity": 86}, {"time": 1266, "pitch": 72, "duration": 5, "velocity": 87}, {"time": 1272, "pitch": 82, "duration": 5, "velocity": 86}, {"time": 1278, "pitch": 79, "duration": 4, "velocity": 85}, {"time": 1284, "pitch": 80, "duration": 5, "velocity": 84}, {"time": 1290, "pitch": 79, "duration": 2, "velocity": 86}, {"time": 1293, "pitch": 80, "duration": 8, "velocity": 90}, {"time": 1302, "pitch": 84, "duration": 5, "velocity": 86}, {"time": 1308, "pitch": 79, "duration": 4, "velocity": 85}, {"time": 1314, "pitch": 77, "duration": 2, "velocity": 85}, {"time": 1317, "pitch": 79, "duration": 11, "velocity": 87}, {"time": 1329, "pitch": 75, "duration": 3, "velocity": 87}, {"time": 1332, "pitch": 77, "duration": 24, "velocity": 86}, {"time": 1362, "pitch": 75, "duration": 4, "velocity": 86}, {"time": 1368, "pitch": 73, "duration": 5, "velocity": 84}, {"time": 1374, "pitch": 72, "duration": 5, "velocity": 87}, {"time": 1380, "pitch": 73, "duration": 10, "velocity": 87}, {"time": 1392, "pitch": 84, "duration": 8, "velocity": 87}, {"time": 1401, "pitch": 82, "duration": 9, "velocity": 87}, {"time": 1410, "pitch": 82, "duration": 5, "velocity": 87}, {"time": 1416, "pitch": 84, "duration": 4, "velocity": 86}, {"time": 1422, "pitch": 85, "duration": 5, "velocity": 86}, {"time": 1428, "pitch": 87, "duration": 18, "velocity": 86}, {"time": 1446, "pitch": 85, "duration": 6, "velocity": 86}, {"time": 1452, "pitch": 84, "duration": 13, "velocity": 85}, {"time": 1470, "pitch": 82, "duration": 2, "velocity": 89}, {"time": 1473, "pitch": 80, "duration": 2, "velocity": 86}, {"time": 1476, "pitch": 85, "duration": 6, "velocity": 89}, {"time": 1482, "pitch": 84, "duration": 5, "velocity": 86}, {"time": 1488, "pitch": 82, "duration": 6, "velocity": 87}, {"time": 1494, "pitch": 80, "duration": 4, "velocity": 86}, {"time": 1500, "pitch": 80, "duration": 6, "velocity": 85}, {"time": 1506, "pitch": 77, "duration": 5, "velocity": 86}, {"time": 1512, "pitch": 79, "duration": 5, "velocity": 82}, {"time": 1518, "pitch": 80, "duration": 4, "velocity": 85}, {"time": 1524, "pitch": 82, "duration": 25, "velocity": 86}, {"time": 1554, "pitch": 75, "duration": 5, "velocity": 96}, {"time": 1560, "pitch": 77, "duration": 4, "velocity": 87}, {"time": 1566, "pitch": 79, "duration": 4, "velocity": 85}, {"time": 1572, "pitch": 80, "duration": 5, "velocity": 85}, {"time": 1578, "pitch": 75, "duration": 2, "velocity": 87}, {"time": 1581, "pitch": 75, "duration": 17, "velocity": 86}, {"time": 1602, "pitch": 84, "duration": 5, "velocity": 86}, {"time": 1608, "pitch": 82, "duration": 4, "velocity": 85}, {"time": 1614, "pitch": 80, "duration": 4, "velocity": 85}, {"time": 1620, "pitch": 82, "duration": 10, "velocity": 84}, {"time": 1632, "pitch": 75, "duration": 13, "velocity": 86}, {"time": 1650, "pitch": 72, "duration": 5, "velocity": 87}, {"time": 1656, "pitch": 82, "duration": 5, "velocity": 86}, {"time": 1662, "pitch": 79, "duration": 4, "velocity": 85}, {"time": 1668, "pitch": 80, "duration": 5, "velocity": 84}, {"time": 1674, "pitch": 79, "duration": 2, "velocity": 86}, {"time": 1677, "pitch": 80, "duration": 8, "velocity": 90}, {"time": 1686, "pitch": 84, "duration": 5, "velocity": 86}, {"time": 1692, "pitch": 79, "duration": 4, "velocity": 85}, {"time": 1698, "pitch": 77, "duration": 2, "velocity": 85}, {"time": 1701, "pitch": 79, "duration": 11, "velocity": 87}, {"time": 1713, "pitch": 75, "duration": 3, "velocity": 87}, {"time": 1716, "pitch": 77, "duration": 24, "velocity": 86}, {"time": 1746, "pitch": 75, "duration": 4, "velocity": 86}, {"time": 1752, "pitch": 73, "duration": 5, "velocity": 84}, {"time": 1758, "pitch": 72, "duration": 5, "velocity": 87}, {"time": 1764, "pitch": 73, "duration": 10, "velocity": 87}, {"time": 1776, "pitch": 84, "duration": 8, "velocity": 87}, {"time": 1785, "pitch": 82, "duration": 9, "velocity": 87}, {"time": 1794, "pitch": 82, "duration": 5, "velocity": 87}, {"time": 1800, "pitch": 84, "duration": 4, "velocity": 86}, {"time": 1806, "pitch": 85, "duration": 5, "velocity": 86}, {"time": 1812, "pitch": 87, "duration": 18, "velocity": 86}, {"time": 1830, "pitch": 85, "duration": 6, "velocity": 86}, {"time": 1836, "pitch": 84, "duration": 13, "velocity": 85}, {"time": 1854, "pitch": 82, "duration": 2, "velocity": 89}, {"time": 1857, "pitch": 80, "duration": 2, "velocity": 86}, {"time": 1860, "pitch": 85, "duration": 6, "velocity": 89}, {"time": 1866, "pitch": 84, "duration": 5, "velocity": 86}, {"time": 1872, "pitch": 82, "duration": 3, "velocity": 87}, {"time": 1875, "pitch": 80, "duration": 6, "velocity": 86}, {"time": 1887, "pitch": 84, "duration": 5, "velocity": 86}, {"time": 1893, "pitch": 82, "duration": 5, "velocity": 85}, {"time": 1899, "pitch": 80, "duration": 16, "velocity": 82}, {"time": 1914, "pitch": 79, "duration": 6, "velocity": 87}, {"time": 1920, "pitch": 80, "duration": 35, "velocity": 86}, {"time": 2178, "pitch": 72, "duration": 5, "velocity": 85}, {"time": 2184, "pitch": 70, "duration": 6, "velocity": 84}, {"time": 2190, "pitch": 68, "duration": 6, "velocity": 83}, {"time": 2196, "pitch": 72, "duration": 15, "velocity": 85}, {"time": 2213, "pitch": 72, "duration": 6, "velocity": 86}, {"time": 2220, "pitch": 70, "duration": 5, "velocity": 87}, {"time": 2226, "pitch": 68, "duration": 4, "velocity": 85}, {"time": 2232, "pitch": 67, "duration": 5, "velocity": 86}, {"time": 2238, "pitch": 68, "duration": 10, "velocity": 83}, {"time": 2250, "pitch": 75, "duration": 17, "velocity": 89}, {"time": 2274, "pitch": 75, "duration": 4, "velocity": 89}, {"time": 2280, "pitch": 75, "duration": 5, "velocity": 88}, {"time": 2286, "pitch": 67, "duration": 4, "velocity": 81}, {"time": 2292, "pitch": 70, "duration": 5, "velocity": 81}, {"time": 2298, "pitch": 68, "duration": 8, "velocity": 85}, {"time": 2310, "pitch": 70, "duration": 5, "velocity": 86}, {"time": 2316, "pitch": 72, "duration": 4, "velocity": 85}, {"time": 2322, "pitch": 72, "duration": 5, "velocity": 86}, {"time": 2328, "pitch": 70, "duration": 5, "velocity": 83}, {"time": 2334, "pitch": 68, "duration": 9, "velocity": 85}, {"time": 2346, "pitch": 67, "duration": 19, "velocity": 85}, {"time": 2370, "pitch": 68, "duration": 5, "velocity": 82}, {"time": 2376, "pitch": 75, "duration": 6, "velocity": 91}, {"time": 2382, "pitch": 72, "duration": 5, "velocity": 84}, {"time": 2388, "pitch": 73, "duration": 15, "velocity": 80}, {"time": 2406, "pitch": 73, "duration": 5, "velocity": 85}, {"time": 2412, "pitch": 75, "duration": 5, "velocity": 87}, {"time": 2418, "pitch": 73, "duration": 5, "velocity": 82}, {"time": 2424, "pitch": 72, "duration": 5, "velocity": 85}, {"time": 2430, "pitch": 70, "duration": 5, "velocity": 85}, {"time": 2436, "pitch": 73, "duration": 14, "velocity": 82}, {"time": 2454, "pitch": 73, "duration": 5, "velocity": 85}, {"time": 2460, "pitch": 75, "duration": 5, "velocity": 85}, {"time": 2466, "pitch": 73, "duration": 5, "velocity": 85}, {"time": 2472, "pitch": 72, "duration": 5, "velocity": 86}, {"time": 2478, "pitch": 70, "duration": 5, "velocity": 85}, {"time": 2484, "pitch": 73, "duration": 13, "velocity": 85}, {"time": 2508, "pitch": 75, "duration": 5, "velocity": 89}, {"time": 2514, "pitch": 73, "duration": 5, "velocity": 81}, {"time": 2520, "pitch": 72, "duration": 7, "velocity": 85}, {"time": 2532, "pitch": 68, "duration": 5, "velocity": 85}, {"time": 2538, "pitch": 70, "duration": 18, "velocity": 79}, {"time": 2562, "pitch": 72, "duration": 5, "velocity": 85}, {"time": 2568, "pitch": 70, "duration": 6, "velocity": 84}, {"time": 2574, "pitch": 68, "duration": 6, "velocity": 83}, {"time": 2580, "pitch": 72, "duration": 15, "velocity": 85}, {"time": 2597, "pitch": 72, "duration": 6, "velocity": 86}, {"time": 2604, "pitch": 70, "duration": 5, "velocity": 87}, {"time": 2610, "pitch": 68, "duration": 4, "velocity": 85}, {"time": 2616, "pitch": 67, "duration": 5, "velocity": 86}, {"time": 2622, "pitch": 68, "duration": 10, "velocity": 83}, {"time": 2634, "pitch": 75, "duration": 17, "velocity": 89}, {"time": 2658, "pitch": 75, "duration": 4, "velocity": 89}, {"time": 2664, "pitch": 75, "duration": 5, "velocity": 88}, {"time": 2670, "pitch": 67, "duration": 4, "velocity": 81}, {"time": 2676, "pitch": 70, "duration": 5, "velocity": 81}, {"time": 2682, "pitch": 68, "duration": 8, "velocity": 85}, {"time": 2694, "pitch": 70, "duration": 5, "velocity": 86}, {"time": 2700, "pitch": 72, "duration": 4, "velocity": 85}, {"time": 2706, "pitch": 72, "duration": 5, "velocity": 86}, {"time": 2712, "pitch": 70, "duration": 5, "velocity": 83}, {"time": 2718, "pitch": 68, "duration": 9, "velocity": 85}, {"time": 2730, "pitch": 67, "duration": 19, "velocity": 85}, {"time": 2754, "pitch": 68, "duration": 5, "velocity": 82}, {"time": 2760, "pitch": 75, "duration": 6, "velocity": 91}, {"time": 2766, "pitch": 72, "duration": 5, "velocity": 84}, {"time": 2772, "pitch": 73, "duration": 15, "velocity": 80}, {"time": 2790, "pitch": 73, "duration": 5, "velocity": 85}, {"time": 2796, "pitch": 75, "duration": 5, "velocity": 87}, {"time": 2802, "pitch": 73, "duration": 5, "velocity": 82}, {"time": 2808, "pitch": 72, "duration": 5, "velocity": 85}, {"time": 2814, "pitch": 70, "duration": 5, "velocity": 85}, {"time": 2820, "pitch": 73, "duration": 14, "velocity": 82}, {"time": 2838, "pitch": 73, "duration": 5, "velocity": 85}, {"time": 2844, "pitch": 75, "duration": 5, "velocity": 85}, {"time": 2850, "pitch": 73, "duration": 5, "velocity": 85}, {"time": 2856, "pitch": 72, "duration": 5, "velocity": 86}, {"time": 2862, "pitch": 70, "duration": 5, "velocity": 85}, {"time": 2868, "pitch": 73, "duration": 13, "velocity": 85}, {"time": 2886, "pitch": 73, "duration": 5, "velocity": 87}, {"time": 2892, "pitch": 75, "duration": 5, "velocity": 86}, {"time": 2898, "pitch": 73, "duration": 5, "velocity": 86}, {"time": 2904, "pitch": 72, "duration": 4, "velocity": 86}, {"time": 2910, "pitch": 73, "duration": 10, "velocity": 87}, {"time": 2922, "pitch": 75, "duration": 19, "velocity": 81}, {"time": 2946, "pitch": 75, "duration": 5, "velocity": 96}, {"time": 2952, "pitch": 77, "duration": 4, "velocity": 87}, {"time": 2958, "pitch": 79, "duration": 4, "velocity": 85}, {"time": 2964, "pitch": 80, "duration": 5, "velocity": 85}, {"time": 2970, "pitch": 75, "duration": 2, "velocity": 87}, {"time": 2973, "pitch": 75, "duration": 17, "velocity": 86}, {"time": 2994, "pitch": 84, "duration": 5, "velocity": 86}, {"time": 3000, "pitch": 82, "duration": 4, "velocity": 85}, {"time": 3006, "pitch": 80, "duration": 4, "velocity": 85}, {"time": 3012, "pitch": 82, "duration": 10, "velocity": 84}, {"time": 3024, "pitch": 75, "duration": 13, "velocity": 86}, {"time": 3042, "pitch": 72, "duration": 5, "velocity": 87}, {"time": 3048, "pitch": 82, "duration": 5, "velocity": 86}, {"time": 3054, "pitch": 79, "duration": 4, "velocity": 85}, {"time": 3060, "pitch": 80, "duration": 5, "velocity": 84}, {"time": 3066, "pitch": 79, "duration": 2, "velocity": 86}, {"time": 3069, "pitch": 80, "duration": 8, "velocity": 90}, {"time": 3078, "pitch": 84, "duration": 5, "velocity": 86}, {"time": 3084, "pitch": 79, "duration": 4, "velocity": 85}, {"time": 3090, "pitch": 77, "duration": 2, "velocity": 85}, {"time": 3093, "pitch": 79, "duration": 11, "velocity": 87}, {"time": 3105, "pitch": 75, "duration": 3, "velocity": 87}, {"time": 3108, "pitch": 77, "duration": 24, "velocity": 86}, {"time": 3138, "pitch": 75, "duration": 4, "velocity": 86}, {"time": 3144, "pitch": 73, "duration": 5, "velocity": 84}, {"time": 3150, "pitch": 72, "duration": 5, "velocity": 87}, {"time": 3156, "pitch": 73, "duration": 10, "velocity": 87}, {"time": 3168, "pitch": 84, "duration": 8, "velocity": 87}, {"time": 3177, "pitch": 82, "duration": 9, "velocity": 87}, {"time": 3186, "pitch": 82, "duration": 5, "velocity": 87}, {"time": 3192, "pitch": 84, "duration": 4, "velocity": 86}, {"time": 3198, "pitch": 85, "duration": 5, "velocity": 86}, {"time": 3204, "pitch": 87, "duration": 18, "velocity": 86}, {"time": 3222, "pitch": 85, "duration": 6, "velocity": 86}, {"time": 3228, "pitch": 84, "duration": 13, "velocity": 85}, {"time": 3246, "pitch": 82, "duration": 2, "velocity": 89}, {"time": 3249, "pitch": 80, "duration": 2, "velocity": 86}, {"time": 3252, "pitch": 85, "duration": 6, "velocity": 89}, {"time": 3258, "pitch": 84, "duration": 5, "velocity": 86}, {"time": 3264, "pitch": 82, "duration": 6, "velocity": 87}, {"time": 3270, "pitch": 80, "duration": 4, "velocity": 86}, {"time": 3276, "pitch": 80, "duration": 6, "velocity": 85}, {"time": 3282, "pitch": 77, "duration": 5, "velocity": 86}, {"time": 3288, "pitch": 79, "duration": 5, "velocity": 82}, {"time": 3294, "pitch": 80, "duration": 4, "velocity": 85}, {"time": 3300, "pitch": 82, "duration": 25, "velocity": 86}, {"time": 3330, "pitch": 75, "duration": 5, "velocity": 96}, {"time": 3336, "pitch": 77, "duration": 4, "velocity": 87}, {"time": 3342, "pitch": 79, "duration": 4, "velocity": 85}, {"time": 3348, "pitch": 80, "duration": 5, "velocity": 85}, {"time": 3354, "pitch": 75, "duration": 2, "velocity": 87}, {"time": 3357, "pitch": 75, "duration": 17, "velocity": 86}, {"time": 3378, "pitch": 84, "duration": 5, "velocity": 86}, {"time": 3384, "pitch": 82, "duration": 4, "velocity": 85}, {"time": 3390, "pitch": 80, "duration": 4, "velocity": 85}, {"time": 3396, "pitch": 82, "duration": 10, "velocity": 84}, {"time": 3408, "pitch": 75, "duration": 13, "velocity": 86}, {"time": 3426, "pitch": 72, "duration": 5, "velocity": 87}, {"time": 3432, "pitch": 82, "duration": 5, "velocity": 86}, {"time": 3438, "pitch": 79, "duration": 4, "velocity": 85}, {"time": 3444, "pitch": 80, "duration": 5, "velocity": 84}, {"time": 3450, "pitch": 79, "duration": 2, "velocity": 86}, {"time": 3453, "pitch": 80, "duration": 8, "velocity": 90}, {"time": 3462, "pitch": 84, "duration": 5, "velocity": 86}, {"time": 3468, "pitch": 79, "duration": 4, "velocity": 85}, {"time": 3474, "pitch": 77, "duration": 2, "velocity": 85}, {"time": 3477, "pitch": 79, "duration": 11, "velocity": 87}, {"time": 3489, "pitch": 75, "duration": 3, "velocity": 87}, {"time": 3492, "pitch": 77, "duration": 24, "velocity": 86}, {"time": 3522, "pitch": 75, "duration": 4, "velocity": 86}, {"time": 3528, "pitch": 73, "duration": 5, "velocity": 84}, {"time": 3534, "pitch": 72, "duration": 5, "velocity": 87}, {"time": 3540, "pitch": 73, "duration": 10, "velocity": 87}, {"time": 3552, "pitch": 84, "duration": 8, "velocity": 87}, {"time": 3561, "pitch": 82, "duration": 9, "velocity": 87}, {"time": 3570, "pitch": 82, "duration": 5, "velocity": 87}, {"time": 3576, "pitch": 84, "duration": 4, "velocity": 86}, {"time": 3582, "pitch": 85, "duration": 5, "velocity": 86}, {"time": 3588, "pitch": 87, "duration": 18, "velocity": 86}, {"time": 3606, "pitch": 85, "duration": 6, "velocity": 86}, {"time": 3612, "pitch": 84, "duration": 13, "velocity": 85}, {"time": 3630, "pitch": 82, "duration": 2, "velocity": 89}, {"time": 3633, "pitch": 80, "duration": 2, "velocity": 86}, {"time": 3636, "pitch": 85, "duration": 6, "velocity": 89}, {"time": 3642, "pitch": 84, "duration": 5, "velocity": 86}, {"time": 3648, "pitch": 82, "duration": 3, "velocity": 87}, {"time": 3651, "pitch": 80, "duration": 6, "velocity": 86}, {"time": 3660, "pitch": 84, "duration": 6, "velocity": 86}, {"time": 3666, "pitch": 82, "duration": 5, "velocity": 85}, {"time": 3672, "pitch": 80, "duration": 7, "velocity": 82}, {"time": 3679, "pitch": 79, "duration": 5, "velocity": 87}, {"time": 3684, "pitch": 80, "duration": 47, "velocity": 86}, {"time": 3738, "pitch": 80, "duration": 2, "velocity": 87}, {"time": 3741, "pitch": 79, "duration": 2, "velocity": 87}, {"time": 3744, "pitch": 80, "duration": 4, "velocity": 87}, {"time": 3750, "pitch": 80, "duration": 2, "velocity": 87}, {"time": 3753, "pitch": 79, "duration": 2, "velocity": 88}, {"time": 3756, "pitch": 80, "duration": 4, "velocity": 87}, {"time": 3762, "pitch": 80, "duration": 2, "velocity": 86}, {"time": 3765, "pitch": 80, "duration": 4, "velocity": 86}, {"time": 3771, "pitch": 82, "duration": 5, "velocity": 85}, {"time": 3777, "pitch": 80, "duration": 6, "velocity": 88}, {"time": 3786, "pitch": 80, "duration": 3, "velocity": 86}, {"time": 3789, "pitch": 79, "duration": 2, "velocity": 83}, {"time": 3792, "pitch": 80, "duration": 8, "velocity": 89}, {"time": 3801, "pitch": 79, "duration": 2, "velocity": 86}, {"time": 3804, "pitch": 80, "duration": 7, "velocity": 86}, {"time": 3813, "pitch": 80, "duration": 5, "velocity": 85}, {"time": 3819, "pitch": 77, "duration": 5, "velocity": 88}, {"time": 3825, "pitch": 75, "duration": 6, "velocity": 87}, {"time": 3831, "pitch": 80, "duration": 2, "velocity": 81}, {"time": 3834, "pitch": 80, "duration": 2, "velocity": 83}, {"time": 3837, "pitch": 80, "duration": 2, "velocity": 85}, {"time": 3840, "pitch": 80, "duration": 4, "velocity": 86}, {"time": 3846, "pitch": 80, "duration": 2, "velocity": 81}, {"time": 3849, "pitch": 80, "duration": 8, "velocity": 87}, {"time": 3858, "pitch": 77, "duration": 4, "velocity": 87}, {"time": 3864, "pitch": 79, "duration": 5, "velocity": 86}, {"time": 3870, "pitch": 80, "duration": 5, "velocity": 87}, {"time": 3876, "pitch": 84, "duration": 14, "velocity": 87}, {"time": 3891, "pitch": 87, "duration": 2, "velocity": 87}, {"time": 3894, "pitch": 84, "duration": 3, "velocity": 89}, {"time": 3897, "pitch": 82, "duration": 18, "velocity": 86}, {"time": 3915, "pitch": 80, "duration": 2, "velocity": 85}, {"time": 3918, "pitch": 82, "duration": 2, "velocity": 87}, {"time": 3921, "pitch": 83, "duration": 29, "velocity": 91}, {"time": 3954, "pitch": 76, "duration": 5, "velocity": 96}, {"time": 3960, "pitch": 78, "duration": 4, "velocity": 87}, {"time": 3966, "pitch": 80, "duration": 4, "velocity": 85}, {"time": 3972, "pitch": 81, "duration": 5, "velocity": 85}, {"time": 3978, "pitch": 76, "duration": 2, "velocity": 87}, {"time": 3981, "pitch": 76, "duration": 17, "velocity": 86}, {"time": 4002, "pitch": 85, "duration": 5, "velocity": 86}, {"time": 4008, "pitch": 83, "duration": 4, "velocity": 85}, {"time": 4014, "pitch": 81, "duration": 4, "velocity": 85}, {"time": 4020, "pitch": 83, "duration": 10, "velocity": 84}, {"time": 4032, "pitch": 76, "duration": 13, "velocity": 86}, {"time": 4050, "pitch": 73, "duration": 5, "velocity": 87}, {"time": 4056, "pitch": 83, "duration": 5, "velocity": 86}, {"time": 4062, "pitch": 80, "duration": 4, "velocity": 85}, {"time": 4068, "pitch": 81, "duration": 5, "velocity": 84}, {"time": 4074, "pitch": 80, "duration": 2, "velocity": 86}, {"time": 4077, "pitch": 81, "duration": 8, "velocity": 90}, {"time": 4086, "pitch": 85, "duration": 5, "velocity": 86}, {"time": 4092, "pitch": 80, "duration": 4, "velocity": 85}, {"time": 4098, "pitch": 78, "duration": 2, "velocity": 85}, {"time": 4101, "pitch": 80, "duration": 11, "velocity": 87}, {"time": 4113, "pitch": 76, "duration": 3, "velocity": 87}, {"time": 4116, "pitch": 78, "duration": 24, "velocity": 86}, {"time": 4146, "pitch": 76, "duration": 4, "velocity": 86}, {"time": 4152, "pitch": 74, "duration": 5, "velocity": 84}, {"time": 4158, "pitch": 73, "duration": 5, "velocity": 87}, {"time": 4164, "pitch": 74, "duration": 10, "velocity": 87}, {"time": 4176, "pitch": 85, "duration": 8, "velocity": 87}, {"time": 4185, "pitch": 83, "duration": 9, "velocity": 87}, {"time": 4194, "pitch": 83, "duration": 5, "velocity": 87}, {"time": 4200, "pitch": 85, "duration": 4, "velocity": 86}, {"time": 4206, "pitch": 86, "duration": 5, "velocity": 86}, {"time": 4212, "pitch": 88, "duration": 18, "velocity": 86}, {"time": 4230, "pitch": 86, "duration": 6, "velocity": 86}, {"time": 4236, "pitch": 85, "duration": 13, "velocity": 85}, {"time": 4254, "pitch": 83, "duration": 2, "velocity": 89}, {"time": 4257, "pitch": 81, "duration": 2, "velocity": 86}, {"time": 4260, "pitch": 86, "duration": 6, "velocity": 89}, {"time": 4266, "pitch": 85, "duration": 5, "velocity": 86}, {"time": 4272, "pitch": 83, "duration": 3, "velocity": 87}, {"time": 4275, "pitch": 81, "duration": 6, "velocity": 86}, {"time": 4284, "pitch": 85, "duration": 6, "velocity": 86}, {"time": 4290, "pitch": 83, "duration": 5, "velocity": 85}, {"time": 4296, "pitch": 81, "duration": 7, "velocity": 82}, {"time": 4303, "pitch": 80, "duration": 5, "velocity": 87}, {"time": 4308, "pitch": 81, "duration": 36, "velocity": 86}, {"time": 4350, "pitch": 71, "duration": 4, "velocity": 75}, {"time": 4352, "pitch": 69, "duration": 6, "velocity": 72}, {"time": 4357, "pitch": 74, "duration": 7, "velocity": 82}, {"time": 4363, "pitch": 73, "duration": 9, "velocity": 79}, {"time": 4371, "pitch": 71, "duration": 7, "velocity": 72}, {"time": 4376, "pitch": 69, "duration": 9, "velocity": 74}, {"time": 4387, "pitch": 73, "duration": 7, "velocity": 79}, {"time": 4394, "pitch": 71, "duration": 7, "velocity": 79}, {"time": 4402, "pitch": 69, "duration": 20, "velocity": 73}, {"time": 4436, "pitch": 68, "duration": 27, "velocity": 72}, {"time": 4463, "pitch": 69, "duration": 91, "velocity": 80}]}, {"program": 0, "is_drum": false, "name": "PIANO", "notes": [{"time": 36, "pitch": 44, "duration": 42, "velocity": 80}, {"time": 42, "pitch": 51, "duration": 21, "velocity": 56}, {"time": 48, "pitch": 58, "duration": 7, "velocity": 75}, {"time": 54, "pitch": 60, "duration": 7, "velocity": 87}, {"time": 60, "pitch": 56, "duration": 6, "velocity": 73}, {"time": 60, "pitch": 63, "duration": 5, "velocity": 83}, {"time": 66, "pitch": 51, "duration": 12, "velocity": 48}, {"time": 84, "pitch": 48, "duration": 38, "velocity": 82}, {"time": 84, "pitch": 60, "duration": 9, "velocity": 75}, {"time": 84, "pitch": 67, "duration": 11, "velocity": 76}, {"time": 90, "pitch": 55, "duration": 9, "velocity": 74}, {"time": 96, "pitch": 63, "duration": 10, "velocity": 80}, {"time": 102, "pitch": 55, "duration": 17, "velocity": 60}, {"time": 108, "pitch": 58, "duration": 11, "velocity": 67}, {"time": 108, "pitch": 63, "duration": 11, "velocity": 69}, {"time": 132, "pitch": 41, "duration": 16, "velocity": 82}, {"time": 132, "pitch": 68, "duration": 15, "velocity": 76}, {"time": 138, "pitch": 48, "duration": 8, "velocity": 67}, {"time": 144, "pitch": 65, "duration": 5, "velocity": 86}, {"time": 150, "pitch": 60, "duration": 4, "velocity": 83}, {"time": 156, "pitch": 39, "duration": 14, "velocity": 85}, {"time": 156, "pitch": 67, "duration": 12, "velocity": 76}, {"time": 162, "pitch": 46, "duration": 7, "velocity": 69}, {"time": 168, "pitch": 58, "duration": 3, "velocity": 75}, {"time": 168, "pitch": 63, "duration": 3, "velocity": 84}, {"time": 180, "pitch": 49, "duration": 37, "velocity": 81}, {"time": 180, "pitch": 61, "duration": 9, "velocity": 72}, {"time": 180, "pitch": 65, "duration": 9, "velocity": 80}, {"time": 186, "pitch": 56, "duration": 30, "velocity": 77}, {"time": 192, "pitch": 63, "duration": 6, "velocity": 77}, {"time": 198, "pitch": 65, "duration": 4, "velocity": 81}, {"time": 228, "pitch": 46, "duration": 19, "velocity": 85}, {"time": 228, "pitch": 58, "duration": 7, "velocity": 74}, {"time": 228, "pitch": 61, "duration": 7, "velocity": 75}, {"time": 228, "pitch": 65, "duration": 7, "velocity": 85}, {"time": 234, "pitch": 53, "duration": 12, "velocity": 75}, {"time": 240, "pitch": 58, "duration": 4, "velocity": 83}, {"time": 240, "pitch": 61, "duration": 4, "velocity": 83}, {"time": 252, "pitch": 51, "duration": 17, "velocity": 86}, {"time": 252, "pitch": 63, "duration": 8, "velocity": 84}, {"time": 252, "pitch": 67, "duration": 8, "velocity": 76}, {"time": 258, "pitch": 58, "duration": 2, "velocity": 59}, {"time": 264, "pitch": 63, "duration": 2, "velocity": 77}, {"time": 264, "pitch": 67, "duration": 3, "velocity": 76}, {"time": 270, "pitch": 49, "duration": 4, "velocity": 84}, {"time": 270, "pitch": 61, "duration": 6, "velocity": 81}, {"time": 276, "pitch": 48, "duration": 16, "velocity": 87}, {"time": 276, "pitch": 60, "duration": 5, "velocity": 79}, {"time": 276, "pitch": 63, "duration": 4, "velocity": 81}, {"time": 282, "pitch": 55, "duration": 8, "velocity": 71}, {"time": 288, "pitch": 60, "duration": 3, "velocity": 82}, {"time": 288, "pitch": 63, "duration": 4, "velocity": 81}, {"time": 288, "pitch": 67, "duration": 5, "velocity": 78}, {"time": 300, "pitch": 41, "duration": 15, "velocity": 86}, {"time": 300, "pitch": 60, "duration": 3, "velocity": 77}, {"time": 300, "pitch": 65, "duration": 3, "velocity": 85}, {"time": 306, "pitch": 48, "duration": 8, "velocity": 76}, {"time": 312, "pitch": 65, "duration": 2, "velocity": 83}, {"time": 312, "pitch": 69, "duration": 3, "velocity": 76}, {"time": 324, "pitch": 46, "duration": 22, "velocity": 84}, {"time": 324, "pitch": 65, "duration": 4, "velocity": 76}, {"time": 324, "pitch": 70, "duration": 5, "velocity": 77}, {"time": 330, "pitch": 53, "duration": 15, "velocity": 70}, {"time": 336, "pitch": 58, "duration": 3, "velocity": 73}, {"time": 336, "pitch": 61, "duration": 3, "velocity": 76}, {"time": 342, "pitch": 65, "duration": 3, "velocity": 80}, {"time": 348, "pitch": 51, "duration": 19, "velocity": 85}, {"time": 348, "pitch": 58, "duration": 2, "velocity": 71}, {"time": 348, "pitch": 63, "duration": 7, "velocity": 80}, {"time": 354, "pitch": 58, "duration": 9, "velocity": 75}, {"time": 360, "pitch": 63, "duration": 1, "velocity": 81}, {"time": 360, "pitch": 67, "duration": 2, "velocity": 89}, {"time": 366, "pitch": 61, "duration": 7, "velocity": 73}, {"time": 372, "pitch": 44, "duration": 41, "velocity": 79}, {"time": 372, "pitch": 56, "duration": 8, "velocity": 71}, {"time": 372, "pitch": 60, "duration": 9, "velocity": 78}, {"time": 378, "pitch": 51, "duration": 8, "velocity": 60}, {"time": 384, "pitch": 56, "duration": 13, "velocity": 70}, {"time": 384, "pitch": 60, "duration": 7, "velocity": 78}, {"time": 390, "pitch": 51, "duration": 21, "velocity": 56}, {"time": 396, "pitch": 68, "duration": 6, "velocity": 80}, {"time": 402, "pitch": 56, "duration": 7, "velocity": 70}, {"time": 408, "pitch": 63, "duration": 2, "velocity": 72}, {"time": 420, "pitch": 44, "duration": 39, "velocity": 85}, {"time": 420, "pitch": 56, "duration": 7, "velocity": 73}, {"time": 420, "pitch": 60, "duration": 6, "velocity": 78}, {"time": 426, "pitch": 51, "duration": 20, "velocity": 65}, {"time": 432, "pitch": 60, "duration": 2, "velocity": 73}, {"time": 432, "pitch": 63, "duration": 2, "velocity": 78}, {"time": 444, "pitch": 56, "duration": 2, "velocity": 66}, {"time": 444, "pitch": 60, "duration": 3, "velocity": 73}, {"time": 450, "pitch": 51, "duration": 8, "velocity": 58}, {"time": 456, "pitch": 56, "duration": 3, "velocity": 75}, {"time": 456, "pitch": 60, "duration": 4, "velocity": 80}, {"time": 456, "pitch": 63, "duration": 5, "velocity": 80}, {"time": 468, "pitch": 48, "duration": 39, "velocity": 80}, {"time": 468, "pitch": 60, "duration": 8, "velocity": 78}, {"time": 468, "pitch": 63, "duration": 8, "velocity": 80}, {"time": 480, "pitch": 63, "duration": 3, "velocity": 76}, {"time": 480, "pitch": 67, "duration": 3, "velocity": 71}, {"time": 486, "pitch": 55, "duration": 8, "velocity": 41}, {"time": 492, "pitch": 63, "duration": 8, "velocity": 78}, {"time": 498, "pitch": 55, "duration": 6, "velocity": 53}, {"time": 504, "pitch": 60, "duration": 2, "velocity": 84}, {"time": 504, "pitch": 63, "duration": 5, "velocity": 85}, {"time": 504, "pitch": 67, "duration": 6, "velocity": 80}, {"time": 510, "pitch": 60, "duration": 10, "velocity": 81}, {"time": 516, "pitch": 41, "duration": 20, "velocity": 87}, {"time": 516, "pitch": 65, "duration": 8, "velocity": 81}, {"time": 522, "pitch": 60, "duration": 4, "velocity": 76}, {"time": 528, "pitch": 65, "duration": 2, "velocity": 83}, {"time": 528, "pitch": 68, "duration": 2, "velocity": 79}, {"time": 534, "pitch": 60, "duration": 3, "velocity": 80}, {"time": 540, "pitch": 41, "duration": 17, "velocity": 70}, {"time": 540, "pitch": 60, "duration": 3, "velocity": 69}, {"time": 540, "pitch": 65, "duration": 7, "velocity": 77}, {"time": 546, "pitch": 60, "duration": 3, "velocity": 71}, {"time": 552, "pitch": 60, "duration": 2, "velocity": 81}, {"time": 552, "pitch": 65, "duration": 4, "velocity": 85}, {"time": 552, "pitch": 68, "duration": 4, "velocity": 80}, {"time": 564, "pitch": 39, "duration": 2, "velocity": 81}, {"time": 564, "pitch": 63, "duration": 6, "velocity": 79}, {"time": 564, "pitch": 67, "duration": 9, "velocity": 81}, {"time": 570, "pitch": 51, "duration": 27, "velocity": 84}, {"time": 576, "pitch": 58, "duration": 27, "velocity": 86}, {"time": 582, "pitch": 65, "duration": 4, "velocity": 85}, {"time": 588, "pitch": 63, "duration": 8, "velocity": 72}, {"time": 588, "pitch": 67, "duration": 8, "velocity": 77}, {"time": 600, "pitch": 55, "duration": 6, "velocity": 83}, {"time": 606, "pitch": 63, "duration": 2, "velocity": 85}, {"time": 612, "pitch": 49, "duration": 39, "velocity": 87}, {"time": 612, "pitch": 56, "duration": 3, "velocity": 74}, {"time": 612, "pitch": 61, "duration": 9, "velocity": 75}, {"time": 618, "pitch": 56, "duration": 3, "velocity": 68}, {"time": 624, "pitch": 56, "duration": 1, "velocity": 60}, {"time": 624, "pitch": 61, "duration": 2, "velocity": 81}, {"time": 624, "pitch": 65, "duration": 3, "velocity": 85}, {"time": 636, "pitch": 61, "duration": 2, "velocity": 68}, {"time": 636, "pitch": 65, "duration": 4, "velocity": 80}, {"time": 648, "pitch": 56, "duration": 2, "velocity": 79}, {"time": 648, "pitch": 61, "duration": 3, "velocity": 82}, {"time": 648, "pitch": 65, "duration": 8, "velocity": 86}, {"time": 654, "pitch": 56, "duration": 8, "velocity": 77}, {"time": 660, "pitch": 37, "duration": 2, "velocity": 74}, {"time": 660, "pitch": 61, "duration": 5, "velocity": 74}, {"time": 660, "pitch": 64, "duration": 5, "velocity": 74}, {"time": 672, "pitch": 56, "duration": 1, "velocity": 63}, {"time": 672, "pitch": 61, "duration": 4, "velocity": 76}, {"time": 672, "pitch": 64, "duration": 3, "velocity": 76}, {"time": 678, "pitch": 49, "duration": 21, "velocity": 72}, {"time": 684, "pitch": 61, "duration": 4, "velocity": 76}, {"time": 684, "pitch": 64, "duration": 3, "velocity": 76}, {"time": 684, "pitch": 68, "duration": 4, "velocity": 73}, {"time": 690, "pitch": 56, "duration": 3, "velocity": 64}, {"time": 696, "pitch": 56, "duration": 3, "velocity": 83}, {"time": 696, "pitch": 61, "duration": 2, "velocity": 86}, {"time": 696, "pitch": 64, "duration": 3, "velocity": 86}, {"time": 702, "pitch": 60, "duration": 3, "velocity": 86}, {"time": 705, "pitch": 61, "duration": 3, "velocity": 86}, {"time": 708, "pitch": 46, "duration": 40, "velocity": 85}, {"time": 708, "pitch": 58, "duration": 7, "velocity": 79}, {"time": 714, "pitch": 53, "duration": 33, "velocity": 67}, {"time": 720, "pitch": 58, "duration": 2, "velocity": 77}, {"time": 720, "pitch": 61, "duration": 2, "velocity": 76}, {"time": 720, "pitch": 65, "duration": 2, "velocity": 85}, {"time": 732, "pitch": 61, "duration": 3, "velocity": 69}, {"time": 732, "pitch": 65, "duration": 5, "velocity": 79}, {"time": 744, "pitch": 58, "duration": 3, "velocity": 85}, {"time": 744, "pitch": 61, "duration": 3, "velocity": 86}, {"time": 744, "pitch": 65, "duration": 5, "velocity": 87}, {"time": 750, "pitch": 58, "duration": 4, "velocity": 71}, {"time": 756, "pitch": 39, "duration": 1, "velocity": 86}, {"time": 756, "pitch": 58, "duration": 3, "velocity": 78}, {"time": 756, "pitch": 63, "duration": 4, "velocity": 81}, {"time": 756, "pitch": 67, "duration": 5, "velocity": 78}, {"time": 762, "pitch": 51, "duration": 16, "velocity": 79}, {"time": 768, "pitch": 58, "duration": 9, "velocity": 89}, {"time": 774, "pitch": 63, "duration": 4, "velocity": 82}, {"time": 780, "pitch": 51, "duration": 24, "velocity": 87}, {"time": 780, "pitch": 58, "duration": 23, "velocity": 80}, {"time": 780, "pitch": 63, "duration": 3, "velocity": 79}, {"time": 780, "pitch": 67, "duration": 7, "velocity": 85}, {"time": 780, "pitch": 70, "duration": 7, "velocity": 85}, {"time": 780, "pitch": 75, "duration": 6, "velocity": 86}, {"time": 792, "pitch": 63, "duration": 11, "velocity": 83}, {"time": 792, "pitch": 67, "duration": 11, "velocity": 80}, {"time": 798, "pitch": 55, "duration": 5, "velocity": 84}, {"time": 804, "pitch": 44, "duration": 39, "velocity": 85}, {"time": 804, "pitch": 56, "duration": 9, "velocity": 78}, {"time": 804, "pitch": 63, "duration": 9, "velocity": 82}, {"time": 810, "pitch": 51, "duration": 8, "velocity": 69}, {"time": 816, "pitch": 56, "duration": 14, "velocity": 85}, {"time": 816, "pitch": 60, "duration": 10, "velocity": 82}, {"time": 822, "pitch": 51, "duration": 10, "velocity": 70}, {"time": 828, "pitch": 60, "duration": 10, "velocity": 79}, {"time": 828, "pitch": 63, "duration": 10, "velocity": 78}, {"time": 834, "pitch": 51, "duration": 8, "velocity": 72}, {"time": 840, "pitch": 60, "duration": 5, "velocity": 86}, {"time": 840, "pitch": 63, "duration": 5, "velocity": 86}, {"time": 846, "pitch": 44, "duration": 2, "velocity": 85}, {"time": 852, "pitch": 48, "duration": 40, "velocity": 83}, {"time": 852, "pitch": 60, "duration": 8, "velocity": 79}, {"time": 852, "pitch": 63, "duration": 11, "velocity": 82}, {"time": 858, "pitch": 55, "duration": 9, "velocity": 63}, {"time": 864, "pitch": 63, "duration": 1, "velocity": 50}, {"time": 864, "pitch": 67, "duration": 9, "velocity": 89}, {"time": 870, "pitch": 55, "duration": 7, "velocity": 68}, {"time": 876, "pitch": 60, "duration": 7, "velocity": 76}, {"time": 876, "pitch": 63, "duration": 7, "velocity": 82}, {"time": 876, "pitch": 67, "duration": 5, "velocity": 73}, {"time": 882, "pitch": 55, "duration": 8, "velocity": 70}, {"time": 888, "pitch": 60, "duration": 4, "velocity": 86}, {"time": 888, "pitch": 63, "duration": 7, "velocity": 86}, {"time": 894, "pitch": 48, "duration": 3, "velocity": 86}, {"time": 894, "pitch": 60, "duration": 9, "velocity": 85}, {"time": 900, "pitch": 41, "duration": 10, "velocity": 86}, {"time": 900, "pitch": 60, "duration": 3, "velocity": 79}, {"time": 900, "pitch": 65, "duration": 8, "velocity": 83}, {"time": 906, "pitch": 60, "duration": 7, "velocity": 73}, {"time": 912, "pitch": 65, "duration": 2, "velocity": 85}, {"time": 912, "pitch": 68, "duration": 3, "velocity": 82}, {"time": 918, "pitch": 60, "duration": 7, "velocity": 73}, {"time": 924, "pitch": 53, "duration": 18, "velocity": 81}, {"time": 924, "pitch": 65, "duration": 9, "velocity": 78}, {"time": 924, "pitch": 68, "duration": 9, "velocity": 75}, {"time": 930, "pitch": 60, "duration": 3, "velocity": 72}, {"time": 936, "pitch": 60, "duration": 2, "velocity": 85}, {"time": 936, "pitch": 65, "duration": 6, "velocity": 86}, {"time": 936, "pitch": 68, "duration": 7, "velocity": 79}, {"time": 942, "pitch": 60, "duration": 3, "velocity": 78}, {"time": 948, "pitch": 48, "duration": 42, "velocity": 85}, {"time": 948, "pitch": 60, "duration": 7, "velocity": 79}, {"time": 948, "pitch": 63, "duration": 7, "velocity": 78}, {"time": 948, "pitch": 67, "duration": 7, "velocity": 78}, {"time": 954, "pitch": 55, "duration": 8, "velocity": 71}, {"time": 960, "pitch": 60, "duration": 9, "velocity": 84}, {"time": 960, "pitch": 67, "duration": 9, "velocity": 82}, {"time": 966, "pitch": 55, "duration": 8, "velocity": 65}, {"time": 972, "pitch": 60, "duration": 6, "velocity": 81}, {"time": 972, "pitch": 63, "duration": 6, "velocity": 84}, {"time": 978, "pitch": 55, "duration": 7, "velocity": 50}, {"time": 984, "pitch": 60, "duration": 3, "velocity": 86}, {"time": 984, "pitch": 63, "duration": 6, "velocity": 85}, {"time": 984, "pitch": 67, "duration": 6, "velocity": 85}, {"time": 990, "pitch": 60, "duration": 6, "velocity": 88}, {"time": 996, "pitch": 49, "duration": 39, "velocity": 87}, {"time": 996, "pitch": 56, "duration": 3, "velocity": 77}, {"time": 996, "pitch": 65, "duration": 9, "velocity": 79}, {"time": 1002, "pitch": 56, "duration": 3, "velocity": 77}, {"time": 1008, "pitch": 56, "duration": 2, "velocity": 84}, {"time": 1008, "pitch": 61, "duration": 6, "velocity": 81}, {"time": 1020, "pitch": 56, "duration": 3, "velocity": 81}, {"time": 1020, "pitch": 65, "duration": 9, "velocity": 85}, {"time": 1026, "pitch": 56, "duration": 3, "velocity": 65}, {"time": 1032, "pitch": 56, "duration": 2, "velocity": 83}, {"time": 1032, "pitch": 61, "duration": 4, "velocity": 85}, {"time": 1032, "pitch": 65, "duration": 6, "velocity": 86}, {"time": 1038, "pitch": 56, "duration": 2, "velocity": 86}, {"time": 1038, "pitch": 61, "duration": 1, "velocity": 60}, {"time": 1044, "pitch": 46, "duration": 22, "velocity": 85}, {"time": 1044, "pitch": 58, "duration": 6, "velocity": 84}, {"time": 1044, "pitch": 61, "duration": 6, "velocity": 84}, {"time": 1050, "pitch": 53, "duration": 7, "velocity": 73}, {"time": 1056, "pitch": 58, "duration": 3, "velocity": 83}, {"time": 1056, "pitch": 61, "duration": 3, "velocity": 86}, {"time": 1059, "pitch": 53, "duration": 7, "velocity": 80}, {"time": 1062, "pitch": 60, "duration": 4, "velocity": 84}, {"time": 1065, "pitch": 61, "duration": 2, "velocity": 80}, {"time": 1068, "pitch": 46, "duration": 15, "velocity": 78}, {"time": 1068, "pitch": 58, "duration": 5, "velocity": 72}, {"time": 1068, "pitch": 65, "duration": 6, "velocity": 80}, {"time": 1074, "pitch": 53, "duration": 7, "velocity": 74}, {"time": 1080, "pitch": 58, "duration": 2, "velocity": 80}, {"time": 1080, "pitch": 61, "duration": 3, "velocity": 85}, {"time": 1080, "pitch": 65, "duration": 4, "velocity": 86}, {"time": 1086, "pitch": 58, "duration": 4, "velocity": 73}, {"time": 1092, "pitch": 46, "duration": 22, "velocity": 86}, {"time": 1092, "pitch": 58, "duration": 9, "velocity": 78}, {"time": 1092, "pitch": 61, "duration": 8, "velocity": 78}, {"time": 1098, "pitch": 53, "duration": 9, "velocity": 72}, {"time": 1104, "pitch": 58, "duration": 5, "velocity": 79}, {"time": 1104, "pitch": 61, "duration": 5, "velocity": 84}, {"time": 1104, "pitch": 65, "duration": 5, "velocity": 85}, {"time": 1110, "pitch": 53, "duration": 5, "velocity": 73}, {"time": 1116, "pitch": 46, "duration": 15, "velocity": 85}, {"time": 1116, "pitch": 58, "duration": 8, "velocity": 74}, {"time": 1116, "pitch": 61, "duration": 7, "velocity": 78}, {"time": 1116, "pitch": 65, "duration": 8, "velocity": 84}, {"time": 1122, "pitch": 53, "duration": 9, "velocity": 74}, {"time": 1128, "pitch": 58, "duration": 3, "velocity": 80}, {"time": 1128, "pitch": 61, "duration": 4, "velocity": 86}, {"time": 1128, "pitch": 65, "duration": 4, "velocity": 88}, {"time": 1128, "pitch": 70, "duration": 5, "velocity": 84}, {"time": 1134, "pitch": 58, "duration": 4, "velocity": 87}, {"time": 1140, "pitch": 39, "duration": 2, "velocity": 86}, {"time": 1140, "pitch": 58, "duration": 4, "velocity": 81}, {"time": 1140, "pitch": 63, "duration": 6, "velocity": 85}, {"time": 1146, "pitch": 51, "duration": 16, "velocity": 84}, {"time": 1152, "pitch": 58, "duration": 9, "velocity": 86}, {"time": 1158, "pitch": 63, "duration": 4, "velocity": 91}, {"time": 1164, "pitch": 51, "duration": 23, "velocity": 89}, {"time": 1164, "pitch": 58, "duration": 7, "velocity": 80}, {"time": 1164, "pitch": 63, "duration": 8, "velocity": 84}, {"time": 1164, "pitch": 67, "duration": 10, "velocity": 86}, {"time": 1164, "pitch": 70, "duration": 9, "velocity": 85}, {"time": 1173, "pitch": 58, "duration": 4, "velocity": 77}, {"time": 1176, "pitch": 63, "duration": 4, "velocity": 85}, {"time": 1176, "pitch": 67, "duration": 4, "velocity": 80}, {"time": 1176, "pitch": 70, "duration": 7, "velocity": 82}, {"time": 1176, "pitch": 75, "duration": 11, "velocity": 89}, {"time": 1179, "pitch": 58, "duration": 8, "velocity": 85}, {"time": 1182, "pitch": 63, "duration": 5, "velocity": 81}, {"time": 1188, "pitch": 44, "duration": 22, "velocity": 85}, {"time": 1188, "pitch": 68, "duration": 6, "velocity": 85}, {"time": 1191, "pitch": 56, "duration": 5, "velocity": 82}, {"time": 1194, "pitch": 51, "duration": 6, "velocity": 31}, {"time": 1194, "pitch": 63, "duration": 4, "velocity": 81}, {"time": 1197, "pitch": 68, "duration": 9, "velocity": 85}, {"time": 1200, "pitch": 51, "duration": 10, "velocity": 76}, {"time": 1203, "pitch": 56, "duration": 6, "velocity": 81}, {"time": 1206, "pitch": 63, "duration": 5, "velocity": 82}, {"time": 1209, "pitch": 68, "duration": 2, "velocity": 80}, {"time": 1212, "pitch": 44, "duration": 16, "velocity": 85}, {"time": 1212, "pitch": 56, "duration": 7, "velocity": 85}, {"time": 1212, "pitch": 63, "duration": 10, "velocity": 86}, {"time": 1212, "pitch": 68, "duration": 10, "velocity": 79}, {"time": 1218, "pitch": 51, "duration": 7, "velocity": 76}, {"time": 1221, "pitch": 56, "duration": 2, "velocity": 75}, {"time": 1224, "pitch": 56, "duration": 3, "velocity": 78}, {"time": 1224, "pitch": 60, "duration": 4, "velocity": 86}, {"time": 1224, "pitch": 63, "duration": 5, "velocity": 87}, {"time": 1224, "pitch": 68, "duration": 8, "velocity": 85}, {"time": 1227, "pitch": 51, "duration": 1, "velocity": 84}, {"time": 1230, "pitch": 56, "duration": 2, "velocity": 85}, {"time": 1236, "pitch": 48, "duration": 22, "velocity": 85}, {"time": 1236, "pitch": 60, "duration": 3, "velocity": 81}, {"time": 1236, "pitch": 67, "duration": 8, "velocity": 84}, {"time": 1239, "pitch": 55, "duration": 6, "velocity": 68}, {"time": 1242, "pitch": 60, "duration": 6, "velocity": 80}, {"time": 1245, "pitch": 63, "duration": 6, "velocity": 85}, {"time": 1248, "pitch": 55, "duration": 10, "velocity": 71}, {"time": 1251, "pitch": 67, "duration": 7, "velocity": 85}, {"time": 1254, "pitch": 60, "duration": 10, "velocity": 83}, {"time": 1257, "pitch": 63, "duration": 9, "velocity": 80}, {"time": 1260, "pitch": 48, "duration": 17, "velocity": 86}, {"time": 1263, "pitch": 55, "duration": 7, "velocity": 77}, {"time": 1266, "pitch": 60, "duration": 6, "velocity": 78}, {"time": 1269, "pitch": 63, "duration": 4, "velocity": 82}, {"time": 1272, "pitch": 55, "duration": 4, "velocity": 77}, {"time": 1275, "pitch": 60, "duration": 1, "velocity": 80}, {"time": 1275, "pitch": 63, "duration": 4, "velocity": 84}, {"time": 1275, "pitch": 67, "duration": 6, "velocity": 79}, {"time": 1278, "pitch": 60, "duration": 6, "velocity": 78}, {"time": 1281, "pitch": 63, "duration": 4, "velocity": 78}, {"time": 1284, "pitch": 41, "duration": 22, "velocity": 84}, {"time": 1284, "pitch": 68, "duration": 10, "velocity": 82}, {"time": 1290, "pitch": 48, "duration": 15, "velocity": 80}, {"time": 1293, "pitch": 60, "duration": 6, "velocity": 85}, {"time": 1296, "pitch": 65, "duration": 4, "velocity": 86}, {"time": 1299, "pitch": 68, "duration": 8, "velocity": 85}, {"time": 1302, "pitch": 60, "duration": 5, "velocity": 85}, {"time": 1305, "pitch": 65, "duration": 2, "velocity": 80}, {"time": 1308, "pitch": 39, "duration": 16, "velocity": 87}, {"time": 1308, "pitch": 63, "duration": 7, "velocity": 81}, {"time": 1314, "pitch": 58, "duration": 7, "velocity": 78}, {"time": 1317, "pitch": 63, "duration": 7, "velocity": 82}, {"time": 1320, "pitch": 46, "duration": 5, "velocity": 80}, {"time": 1323, "pitch": 67, "duration": 5, "velocity": 89}, {"time": 1326, "pitch": 63, "duration": 4, "velocity": 80}, {"time": 1329, "pitch": 58, "duration": 1, "velocity": 72}, {"time": 1332, "pitch": 49, "duration": 19, "velocity": 88}, {"time": 1332, "pitch": 61, "duration": 6, "velocity": 78}, {"time": 1332, "pitch": 65, "duration": 7, "velocity": 85}, {"time": 1338, "pitch": 56, "duration": 4, "velocity": 72}, {"time": 1341, "pitch": 68, "duration": 8, "velocity": 86}, {"time": 1344, "pitch": 56, "duration": 10, "velocity": 72}, {"time": 1347, "pitch": 61, "duration": 7, "velocity": 84}, {"time": 1350, "pitch": 65, "duration": 3, "velocity": 81}, {"time": 1353, "pitch": 68, "duration": 2, "velocity": 72}, {"time": 1356, "pitch": 49, "duration": 16, "velocity": 87}, {"time": 1356, "pitch": 61, "duration": 8, "velocity": 81}, {"time": 1356, "pitch": 68, "duration": 9, "velocity": 79}, {"time": 1362, "pitch": 56, "duration": 7, "velocity": 76}, {"time": 1368, "pitch": 61, "duration": 4, "velocity": 86}, {"time": 1368, "pitch": 65, "duration": 3, "velocity": 87}, {"time": 1371, "pitch": 56, "duration": 2, "velocity": 81}, {"time": 1374, "pitch": 60, "duration": 4, "velocity": 68}, {"time": 1380, "pitch": 46, "duration": 17, "velocity": 88}, {"time": 1380, "pitch": 58, "duration": 3, "velocity": 78}, {"time": 1380, "pitch": 61, "duration": 4, "velocity": 80}, {"time": 1383, "pitch": 53, "duration": 13, "velocity": 81}, {"time": 1386, "pitch": 58, "duration": 4, "velocity": 82}, {"time": 1389, "pitch": 61, "duration": 3, "velocity": 89}, {"time": 1395, "pitch": 65, "duration": 3, "velocity": 91}, {"time": 1398, "pitch": 61, "duration": 4, "velocity": 87}, {"time": 1401, "pitch": 58, "duration": 2, "velocity": 83}, {"time": 1404, "pitch": 39, "duration": 1, "velocity": 88}, {"time": 1404, "pitch": 58, "duration": 4, "velocity": 81}, {"time": 1404, "pitch": 63, "duration": 5, "velocity": 85}, {"time": 1410, "pitch": 51, "duration": 8, "velocity": 84}, {"time": 1413, "pitch": 55, "duration": 5, "velocity": 85}, {"time": 1416, "pitch": 58, "duration": 3, "velocity": 86}, {"time": 1419, "pitch": 63, "duration": 4, "velocity": 89}, {"time": 1422, "pitch": 67, "duration": 3, "velocity": 87}, {"time": 1425, "pitch": 63, "duration": 1, "velocity": 80}, {"time": 1428, "pitch": 48, "duration": 17, "velocity": 86}, {"time": 1428, "pitch": 60, "duration": 4, "velocity": 85}, {"time": 1428, "pitch": 63, "duration": 4, "velocity": 80}, {"time": 1428, "pitch": 67, "duration": 7, "velocity": 79}, {"time": 1431, "pitch": 55, "duration": 7, "velocity": 86}, {"time": 1434, "pitch": 60, "duration": 2, "velocity": 85}, {"time": 1437, "pitch": 60, "duration": 4, "velocity": 87}, {"time": 1437, "pitch": 63, "duration": 5, "velocity": 87}, {"time": 1437, "pitch": 67, "duration": 8, "velocity": 85}, {"time": 1440, "pitch": 55, "duration": 3, "velocity": 85}, {"time": 1443, "pitch": 60, "duration": 4, "velocity": 86}, {"time": 1446, "pitch": 63, "duration": 4, "velocity": 86}, {"time": 1449, "pitch": 60, "duration": 4, "velocity": 79}, {"time": 1452, "pitch": 41, "duration": 2, "velocity": 88}, {"time": 1452, "pitch": 65, "duration": 8, "velocity": 87}, {"time": 1458, "pitch": 53, "duration": 10, "velocity": 76}, {"time": 1461, "pitch": 57, "duration": 4, "velocity": 86}, {"time": 1464, "pitch": 60, "duration": 4, "velocity": 86}, {"time": 1467, "pitch": 65, "duration": 4, "velocity": 99}, {"time": 1470, "pitch": 69, "duration": 3, "velocity": 85}, {"time": 1473, "pitch": 65, "duration": 2, "velocity": 81}, {"time": 1476, "pitch": 46, "duration": 22, "velocity": 82}, {"time": 1476, "pitch": 65, "duration": 8, "velocity": 83}, {"time": 1476, "pitch": 70, "duration": 9, "velocity": 81}, {"time": 1482, "pitch": 53, "duration": 16, "velocity": 75}, {"time": 1488, "pitch": 65, "duration": 3, "velocity": 87}, {"time": 1488, "pitch": 70, "duration": 10, "velocity": 87}, {"time": 1488, "pitch": 73, "duration": 7, "velocity": 87}, {"time": 1494, "pitch": 65, "duration": 4, "velocity": 79}, {"time": 1500, "pitch": 46, "duration": 17, "velocity": 83}, {"time": 1500, "pitch": 62, "duration": 8, "velocity": 82}, {"time": 1500, "pitch": 70, "duration": 9, "velocity": 81}, {"time": 1506, "pitch": 53, "duration": 10, "velocity": 85}, {"time": 1512, "pitch": 65, "duration": 3, "velocity": 88}, {"time": 1512, "pitch": 70, "duration": 6, "velocity": 86}, {"time": 1512, "pitch": 74, "duration": 6, "velocity": 86}, {"time": 1518, "pitch": 65, "duration": 2, "velocity": 77}, {"time": 1524, "pitch": 39, "duration": 2, "velocity": 86}, {"time": 1524, "pitch": 63, "duration": 4, "velocity": 78}, {"time": 1524, "pitch": 67, "duration": 4, "velocity": 85}, {"time": 1524, "pitch": 70, "duration": 4, "velocity": 87}, {"time": 1530, "pitch": 51, "duration": 13, "velocity": 86}, {"time": 1530, "pitch": 63, "duration": 4, "velocity": 80}, {"time": 1530, "pitch": 67, "duration": 4, "velocity": 74}, {"time": 1530, "pitch": 70, "duration": 4, "velocity": 81}, {"time": 1536, "pitch": 63, "duration": 5, "velocity": 87}, {"time": 1536, "pitch": 67, "duration": 5, "velocity": 88}, {"time": 1536, "pitch": 70, "duration": 4, "velocity": 89}, {"time": 1542, "pitch": 58, "duration": 1, "velocity": 78}, {"time": 1545, "pitch": 63, "duration": 1, "velocity": 85}, {"time": 1548, "pitch": 39, "duration": 2, "velocity": 88}, {"time": 1548, "pitch": 63, "duration": 4, "velocity": 80}, {"time": 1548, "pitch": 67, "duration": 5, "velocity": 81}, {"time": 1548, "pitch": 75, "duration": 5, "velocity": 89}, {"time": 1554, "pitch": 51, "duration": 18, "velocity": 86}, {"time": 1554, "pitch": 63, "duration": 4, "velocity": 87}, {"time": 1554, "pitch": 67, "duration": 4, "velocity": 84}, {"time": 1554, "pitch": 75, "duration": 5, "velocity": 88}, {"time": 1560, "pitch": 58, "duration": 11, "velocity": 77}, {"time": 1560, "pitch": 65, "duration": 2, "velocity": 87}, {"time": 1560, "pitch": 77, "duration": 2, "velocity": 88}, {"time": 1566, "pitch": 67, "duration": 2, "velocity": 85}, {"time": 1572, "pitch": 44, "duration": 22, "velocity": 85}, {"time": 1572, "pitch": 68, "duration": 6, "velocity": 85}, {"time": 1575, "pitch": 56, "duration": 5, "velocity": 82}, {"time": 1578, "pitch": 51, "duration": 6, "velocity": 31}, {"time": 1578, "pitch": 63, "duration": 4, "velocity": 81}, {"time": 1581, "pitch": 68, "duration": 9, "velocity": 85}, {"time": 1584, "pitch": 51, "duration": 10, "velocity": 76}, {"time": 1587, "pitch": 56, "duration": 6, "velocity": 81}, {"time": 1590, "pitch": 63, "duration": 5, "velocity": 82}, {"time": 1593, "pitch": 68, "duration": 2, "velocity": 80}, {"time": 1596, "pitch": 44, "duration": 16, "velocity": 85}, {"time": 1596, "pitch": 56, "duration": 7, "velocity": 85}, {"time": 1596, "pitch": 63, "duration": 10, "velocity": 86}, {"time": 1596, "pitch": 68, "duration": 10, "velocity": 79}, {"time": 1602, "pitch": 51, "duration": 7, "velocity": 76}, {"time": 1605, "pitch": 56, "duration": 2, "velocity": 75}, {"time": 1608, "pitch": 56, "duration": 3, "velocity": 78}, {"time": 1608, "pitch": 60, "duration": 4, "velocity": 86}, {"time": 1608, "pitch": 63, "duration": 5, "velocity": 87}, {"time": 1608, "pitch": 68, "duration": 8, "velocity": 85}, {"time": 1611, "pitch": 51, "duration": 1, "velocity": 84}, {"time": 1614, "pitch": 56, "duration": 2, "velocity": 85}, {"time": 1620, "pitch": 48, "duration": 22, "velocity": 85}, {"time": 1620, "pitch": 60, "duration": 3, "velocity": 81}, {"time": 1620, "pitch": 67, "duration": 8, "velocity": 84}, {"time": 1623, "pitch": 55, "duration": 6, "velocity": 68}, {"time": 1626, "pitch": 60, "duration": 6, "velocity": 80}, {"time": 1629, "pitch": 63, "duration": 6, "velocity": 85}, {"time": 1632, "pitch": 55, "duration": 10, "velocity": 71}, {"time": 1635, "pitch": 67, "duration": 7, "velocity": 85}, {"time": 1638, "pitch": 60, "duration": 10, "velocity": 83}, {"time": 1641, "pitch": 63, "duration": 9, "velocity": 80}, {"time": 1644, "pitch": 48, "duration": 17, "velocity": 86}, {"time": 1647, "pitch": 55, "duration": 7, "velocity": 77}, {"time": 1650, "pitch": 60, "duration": 6, "velocity": 78}, {"time": 1653, "pitch": 63, "duration": 4, "velocity": 82}, {"time": 1656, "pitch": 55, "duration": 4, "velocity": 77}, {"time": 1659, "pitch": 60, "duration": 1, "velocity": 80}, {"time": 1659, "pitch": 63, "duration": 4, "velocity": 84}, {"time": 1659, "pitch": 67, "duration": 6, "velocity": 79}, {"time": 1662, "pitch": 60, "duration": 6, "velocity": 78}, {"time": 1665, "pitch": 63, "duration": 4, "velocity": 78}, {"time": 1668, "pitch": 41, "duration": 22, "velocity": 84}, {"time": 1668, "pitch": 68, "duration": 10, "velocity": 82}, {"time": 1674, "pitch": 48, "duration": 15, "velocity": 80}, {"time": 1677, "pitch": 60, "duration": 6, "velocity": 85}, {"time": 1680, "pitch": 65, "duration": 4, "velocity": 86}, {"time": 1683, "pitch": 68, "duration": 8, "velocity": 85}, {"time": 1686, "pitch": 60, "duration": 5, "velocity": 85}, {"time": 1689, "pitch": 65, "duration": 2, "velocity": 80}, {"time": 1692, "pitch": 39, "duration": 16, "velocity": 87}, {"time": 1692, "pitch": 63, "duration": 7, "velocity": 81}, {"time": 1698, "pitch": 58, "duration": 7, "velocity": 78}, {"time": 1701, "pitch": 63, "duration": 7, "velocity": 82}, {"time": 1704, "pitch": 46, "duration": 5, "velocity": 80}, {"time": 1707, "pitch": 67, "duration": 5, "velocity": 89}, {"time": 1710, "pitch": 63, "duration": 4, "velocity": 80}, {"time": 1713, "pitch": 58, "duration": 1, "velocity": 72}, {"time": 1716, "pitch": 49, "duration": 19, "velocity": 88}, {"time": 1716, "pitch": 61, "duration": 6, "velocity": 78}, {"time": 1716, "pitch": 65, "duration": 7, "velocity": 85}, {"time": 1722, "pitch": 56, "duration": 4, "velocity": 72}, {"time": 1725, "pitch": 68, "duration": 8, "velocity": 86}, {"time": 1728, "pitch": 56, "duration": 10, "velocity": 72}, {"time": 1731, "pitch": 61, "duration": 7, "velocity": 84}, {"time": 1734, "pitch": 65, "duration": 3, "velocity": 81}, {"time": 1737, "pitch": 68, "duration": 2, "velocity": 72}, {"time": 1740, "pitch": 49, "duration": 16, "velocity": 87}, {"time": 1740, "pitch": 61, "duration": 8, "velocity": 81}, {"time": 1740, "pitch": 68, "duration": 9, "velocity": 79}, {"time": 1746, "pitch": 56, "duration": 7, "velocity": 76}, {"time": 1752, "pitch": 61, "duration": 4, "velocity": 86}, {"time": 1752, "pitch": 65, "duration": 3, "velocity": 87}, {"time": 1755, "pitch": 56, "duration": 2, "velocity": 81}, {"time": 1758, "pitch": 60, "duration": 4, "velocity": 68}, {"time": 1764, "pitch": 46, "duration": 17, "velocity": 88}, {"time": 1764, "pitch": 58, "duration": 3, "velocity": 78}, {"time": 1764, "pitch": 61, "duration": 4, "velocity": 80}, {"time": 1767, "pitch": 53, "duration": 13, "velocity": 81}, {"time": 1770, "pitch": 58, "duration": 4, "velocity": 82}, {"time": 1773, "pitch": 61, "duration": 3, "velocity": 89}, {"time": 1779, "pitch": 65, "duration": 3, "velocity": 91}, {"time": 1782, "pitch": 61, "duration": 4, "velocity": 87}, {"time": 1785, "pitch": 58, "duration": 2, "velocity": 83}, {"time": 1788, "pitch": 39, "duration": 1, "velocity": 88}, {"time": 1788, "pitch": 58, "duration": 4, "velocity": 81}, {"time": 1788, "pitch": 63, "duration": 5, "velocity": 85}, {"time": 1794, "pitch": 51, "duration": 8, "velocity": 84}, {"time": 1797, "pitch": 55, "duration": 5, "velocity": 85}, {"time": 1800, "pitch": 58, "duration": 3, "velocity": 86}, {"time": 1803, "pitch": 63, "duration": 4, "velocity": 89}, {"time": 1806, "pitch": 67, "duration": 3, "velocity": 87}, {"time": 1809, "pitch": 63, "duration": 1, "velocity": 80}, {"time": 1812, "pitch": 48, "duration": 17, "velocity": 86}, {"time": 1812, "pitch": 60, "duration": 4, "velocity": 85}, {"time": 1812, "pitch": 63, "duration": 4, "velocity": 80}, {"time": 1812, "pitch": 67, "duration": 7, "velocity": 79}, {"time": 1815, "pitch": 55, "duration": 7, "velocity": 86}, {"time": 1818, "pitch": 60, "duration": 2, "velocity": 85}, {"time": 1821, "pitch": 60, "duration": 4, "velocity": 87}, {"time": 1821, "pitch": 63, "duration": 5, "velocity": 87}, {"time": 1821, "pitch": 67, "duration": 8, "velocity": 85}, {"time": 1824, "pitch": 55, "duration": 3, "velocity": 85}, {"time": 1827, "pitch": 60, "duration": 4, "velocity": 86}, {"time": 1830, "pitch": 63, "duration": 4, "velocity": 86}, {"time": 1833, "pitch": 60, "duration": 4, "velocity": 79}, {"time": 1836, "pitch": 41, "duration": 2, "velocity": 88}, {"time": 1836, "pitch": 65, "duration": 8, "velocity": 87}, {"time": 1842, "pitch": 53, "duration": 10, "velocity": 76}, {"time": 1845, "pitch": 57, "duration": 4, "velocity": 86}, {"time": 1848, "pitch": 60, "duration": 4, "velocity": 86}, {"time": 1851, "pitch": 65, "duration": 4, "velocity": 99}, {"time": 1854, "pitch": 69, "duration": 3, "velocity": 85}, {"time": 1857, "pitch": 65, "duration": 2, "velocity": 81}, {"time": 1860, "pitch": 46, "duration": 16, "velocity": 86}, {"time": 1860, "pitch": 58, "duration": 14, "velocity": 77}, {"time": 1860, "pitch": 61, "duration": 14, "velocity": 81}, {"time": 1866, "pitch": 65, "duration": 7, "velocity": 85}, {"time": 1872, "pitch": 70, "duration": 14, "velocity": 87}, {"time": 1878, "pitch": 58, "duration": 9, "velocity": 79}, {"time": 1884, "pitch": 39, "duration": 14, "velocity": 86}, {"time": 1884, "pitch": 63, "duration": 8, "velocity": 80}, {"time": 1890, "pitch": 58, "duration": 9, "velocity": 72}, {"time": 1896, "pitch": 63, "duration": 17, "velocity": 78}, {"time": 1896, "pitch": 67, "duration": 17, "velocity": 75}, {"time": 1932, "pitch": 41, "duration": 23, "velocity": 86}, {"time": 1935, "pitch": 48, "duration": 19, "velocity": 72}, {"time": 1938, "pitch": 53, "duration": 10, "velocity": 78}, {"time": 1941, "pitch": 56, "duration": 7, "velocity": 80}, {"time": 1956, "pitch": 41, "duration": 15, "velocity": 81}, {"time": 1959, "pitch": 48, "duration": 12, "velocity": 76}, {"time": 1962, "pitch": 53, "duration": 9, "velocity": 85}, {"time": 1965, "pitch": 60, "duration": 7, "velocity": 86}, {"time": 1971, "pitch": 65, "duration": 12, "velocity": 88}, {"time": 1974, "pitch": 53, "duration": 3, "velocity": 85}, {"time": 1980, "pitch": 44, "duration": 23, "velocity": 85}, {"time": 1983, "pitch": 51, "duration": 19, "velocity": 77}, {"time": 1986, "pitch": 56, "duration": 9, "velocity": 80}, {"time": 1989, "pitch": 63, "duration": 7, "velocity": 78}, {"time": 2001, "pitch": 68, "duration": 5, "velocity": 74}, {"time": 2004, "pitch": 44, "duration": 15, "velocity": 80}, {"time": 2007, "pitch": 51, "duration": 11, "velocity": 80}, {"time": 2010, "pitch": 56, "duration": 7, "velocity": 89}, {"time": 2013, "pitch": 63, "duration": 5, "velocity": 85}, {"time": 2028, "pitch": 37, "duration": 2, "velocity": 81}, {"time": 2028, "pitch": 61, "duration": 10, "velocity": 78}, {"time": 2034, "pitch": 49, "duration": 15, "velocity": 71}, {"time": 2037, "pitch": 56, "duration": 7, "velocity": 79}, {"time": 2043, "pitch": 63, "duration": 5, "velocity": 84}, {"time": 2046, "pitch": 61, "duration": 3, "velocity": 75}, {"time": 2049, "pitch": 56, "duration": 1, "velocity": 54}, {"time": 2052, "pitch": 49, "duration": 15, "velocity": 82}, {"time": 2052, "pitch": 56, "duration": 9, "velocity": 79}, {"time": 2052, "pitch": 65, "duration": 13, "velocity": 84}, {"time": 2064, "pitch": 61, "duration": 4, "velocity": 80}, {"time": 2067, "pitch": 56, "duration": 4, "velocity": 76}, {"time": 2070, "pitch": 61, "duration": 1, "velocity": 78}, {"time": 2076, "pitch": 41, "duration": 10, "velocity": 87}, {"time": 2076, "pitch": 53, "duration": 5, "velocity": 81}, {"time": 2076, "pitch": 56, "duration": 7, "velocity": 79}, {"time": 2082, "pitch": 48, "duration": 3, "velocity": 74}, {"time": 2085, "pitch": 53, "duration": 1, "velocity": 75}, {"time": 2088, "pitch": 39, "duration": 11, "velocity": 87}, {"time": 2088, "pitch": 51, "duration": 5, "velocity": 83}, {"time": 2088, "pitch": 55, "duration": 10, "velocity": 80}, {"time": 2094, "pitch": 46, "duration": 4, "velocity": 73}, {"time": 2097, "pitch": 51, "duration": 2, "velocity": 87}, {"time": 2100, "pitch": 44, "duration": 14, "velocity": 85}, {"time": 2100, "pitch": 56, "duration": 8, "velocity": 84}, {"time": 2106, "pitch": 51, "duration": 7, "velocity": 74}, {"time": 2112, "pitch": 56, "duration": 3, "velocity": 83}, {"time": 2112, "pitch": 60, "duration": 7, "velocity": 87}, {"time": 2118, "pitch": 51, "duration": 1, "velocity": 65}, {"time": 2124, "pitch": 40, "duration": 16, "velocity": 86}, {"time": 2127, "pitch": 47, "duration": 13, "velocity": 71}, {"time": 2130, "pitch": 52, "duration": 10, "velocity": 74}, {"time": 2133, "pitch": 56, "duration": 10, "velocity": 76}, {"time": 2139, "pitch": 64, "duration": 9, "velocity": 82}, {"time": 2142, "pitch": 52, "duration": 6, "velocity": 78}, {"time": 2148, "pitch": 39, "duration": 36, "velocity": 87}, {"time": 2151, "pitch": 46, "duration": 33, "velocity": 70}, {"time": 2154, "pitch": 51, "duration": 4, "velocity": 78}, {"time": 2157, "pitch": 58, "duration": 2, "velocity": 81}, {"time": 2163, "pitch": 63, "duration": 2, "velocity": 81}, {"time": 2172, "pitch": 63, "duration": 8, "velocity": 70}, {"time": 2172, "pitch": 75, "duration": 8, "velocity": 86}, {"time": 2196, "pitch": 44, "duration": 39, "velocity": 85}, {"time": 2196, "pitch": 56, "duration": 7, "velocity": 73}, {"time": 2196, "pitch": 60, "duration": 6, "velocity": 78}, {"time": 2202, "pitch": 51, "duration": 20, "velocity": 65}, {"time": 2208, "pitch": 60, "duration": 2, "velocity": 73}, {"time": 2208, "pitch": 63, "duration": 2, "velocity": 78}, {"time": 2220, "pitch": 56, "duration": 2, "velocity": 66}, {"time": 2220, "pitch": 60, "duration": 3, "velocity": 73}, {"time": 2226, "pitch": 51, "duration": 8, "velocity": 58}, {"time": 2232, "pitch": 56, "duration": 3, "velocity": 75}, {"time": 2232, "pitch": 60, "duration": 4, "velocity": 80}, {"time": 2232, "pitch": 63, "duration": 5, "velocity": 80}, {"time": 2244, "pitch": 48, "duration": 39, "velocity": 80}, {"time": 2244, "pitch": 60, "duration": 8, "velocity": 78}, {"time": 2244, "pitch": 63, "duration": 8, "velocity": 80}, {"time": 2256, "pitch": 63, "duration": 3, "velocity": 76}, {"time": 2256, "pitch": 67, "duration": 3, "velocity": 71}, {"time": 2262, "pitch": 55, "duration": 8, "velocity": 41}, {"time": 2268, "pitch": 63, "duration": 8, "velocity": 78}, {"time": 2274, "pitch": 55, "duration": 6, "velocity": 53}, {"time": 2280, "pitch": 60, "duration": 2, "velocity": 84}, {"time": 2280, "pitch": 63, "duration": 5, "velocity": 85}, {"time": 2280, "pitch": 67, "duration": 6, "velocity": 80}, {"time": 2286, "pitch": 60, "duration": 10, "velocity": 81}, {"time": 2292, "pitch": 41, "duration": 20, "velocity": 87}, {"time": 2292, "pitch": 65, "duration": 8, "velocity": 81}, {"time": 2298, "pitch": 60, "duration": 4, "velocity": 76}, {"time": 2304, "pitch": 65, "duration": 2, "velocity": 83}, {"time": 2304, "pitch": 68, "duration": 2, "velocity": 79}, {"time": 2310, "pitch": 60, "duration": 3, "velocity": 80}, {"time": 2316, "pitch": 41, "duration": 17, "velocity": 70}, {"time": 2316, "pitch": 60, "duration": 3, "velocity": 69}, {"time": 2316, "pitch": 65, "duration": 7, "velocity": 77}, {"time": 2322, "pitch": 60, "duration": 3, "velocity": 71}, {"time": 2328, "pitch": 60, "duration": 2, "velocity": 81}, {"time": 2328, "pitch": 65, "duration": 4, "velocity": 85}, {"time": 2328, "pitch": 68, "duration": 4, "velocity": 80}, {"time": 2340, "pitch": 39, "duration": 2, "velocity": 81}, {"time": 2340, "pitch": 63, "duration": 6, "velocity": 79}, {"time": 2340, "pitch": 67, "duration": 9, "velocity": 81}, {"time": 2346, "pitch": 51, "duration": 27, "velocity": 84}, {"time": 2352, "pitch": 58, "duration": 27, "velocity": 86}, {"time": 2358, "pitch": 65, "duration": 4, "velocity": 85}, {"time": 2364, "pitch": 63, "duration": 8, "velocity": 72}, {"time": 2364, "pitch": 67, "duration": 8, "velocity": 77}, {"time": 2376, "pitch": 55, "duration": 6, "velocity": 83}, {"time": 2382, "pitch": 63, "duration": 2, "velocity": 85}, {"time": 2388, "pitch": 49, "duration": 39, "velocity": 87}, {"time": 2388, "pitch": 56, "duration": 3, "velocity": 74}, {"time": 2388, "pitch": 61, "duration": 9, "velocity": 75}, {"time": 2394, "pitch": 56, "duration": 3, "velocity": 68}, {"time": 2400, "pitch": 56, "duration": 1, "velocity": 60}, {"time": 2400, "pitch": 61, "duration": 2, "velocity": 81}, {"time": 2400, "pitch": 65, "duration": 3, "velocity": 85}, {"time": 2412, "pitch": 61, "duration": 2, "velocity": 68}, {"time": 2412, "pitch": 65, "duration": 4, "velocity": 80}, {"time": 2424, "pitch": 56, "duration": 2, "velocity": 79}, {"time": 2424, "pitch": 61, "duration": 3, "velocity": 82}, {"time": 2424, "pitch": 65, "duration": 8, "velocity": 86}, {"time": 2430, "pitch": 56, "duration": 8, "velocity": 77}, {"time": 2436, "pitch": 37, "duration": 2, "velocity": 74}, {"time": 2436, "pitch": 61, "duration": 5, "velocity": 74}, {"time": 2436, "pitch": 64, "duration": 5, "velocity": 74}, {"time": 2448, "pitch": 56, "duration": 1, "velocity": 63}, {"time": 2448, "pitch": 61, "duration": 4, "velocity": 76}, {"time": 2448, "pitch": 64, "duration": 3, "velocity": 76}, {"time": 2454, "pitch": 49, "duration": 21, "velocity": 72}, {"time": 2460, "pitch": 61, "duration": 4, "velocity": 76}, {"time": 2460, "pitch": 64, "duration": 3, "velocity": 76}, {"time": 2460, "pitch": 68, "duration": 4, "velocity": 73}, {"time": 2466, "pitch": 56, "duration": 3, "velocity": 64}, {"time": 2472, "pitch": 56, "duration": 3, "velocity": 83}, {"time": 2472, "pitch": 61, "duration": 2, "velocity": 86}, {"time": 2472, "pitch": 64, "duration": 3, "velocity": 86}, {"time": 2478, "pitch": 60, "duration": 3, "velocity": 86}, {"time": 2481, "pitch": 61, "duration": 3, "velocity": 86}, {"time": 2484, "pitch": 46, "duration": 40, "velocity": 85}, {"time": 2484, "pitch": 58, "duration": 7, "velocity": 79}, {"time": 2490, "pitch": 53, "duration": 33, "velocity": 67}, {"time": 2496, "pitch": 58, "duration": 2, "velocity": 77}, {"time": 2496, "pitch": 61, "duration": 2, "velocity": 76}, {"time": 2496, "pitch": 65, "duration": 2, "velocity": 85}, {"time": 2508, "pitch": 61, "duration": 3, "velocity": 69}, {"time": 2508, "pitch": 65, "duration": 5, "velocity": 79}, {"time": 2520, "pitch": 58, "duration": 3, "velocity": 85}, {"time": 2520, "pitch": 61, "duration": 3, "velocity": 86}, {"time": 2520, "pitch": 65, "duration": 5, "velocity": 87}, {"time": 2526, "pitch": 58, "duration": 4, "velocity": 71}, {"time": 2532, "pitch": 39, "duration": 1, "velocity": 86}, {"time": 2532, "pitch": 58, "duration": 3, "velocity": 78}, {"time": 2532, "pitch": 63, "duration": 4, "velocity": 81}, {"time": 2532, "pitch": 67, "duration": 5, "velocity": 78}, {"time": 2538, "pitch": 51, "duration": 16, "velocity": 79}, {"time": 2544, "pitch": 58, "duration": 9, "velocity": 89}, {"time": 2550, "pitch": 63, "duration": 4, "velocity": 82}, {"time": 2556, "pitch": 51, "duration": 24, "velocity": 87}, {"time": 2556, "pitch": 58, "duration": 23, "velocity": 80}, {"time": 2556, "pitch": 63, "duration": 3, "velocity": 79}, {"time": 2556, "pitch": 67, "duration": 7, "velocity": 85}, {"time": 2556, "pitch": 70, "duration": 7, "velocity": 85}, {"time": 2556, "pitch": 75, "duration": 6, "velocity": 86}, {"time": 2568, "pitch": 63, "duration": 11, "velocity": 83}, {"time": 2568, "pitch": 67, "duration": 11, "velocity": 80}, {"time": 2574, "pitch": 55, "duration": 5, "velocity": 84}, {"time": 2580, "pitch": 44, "duration": 39, "velocity": 85}, {"time": 2580, "pitch": 56, "duration": 9, "velocity": 78}, {"time": 2580, "pitch": 63, "duration": 9, "velocity": 82}, {"time": 2586, "pitch": 51, "duration": 8, "velocity": 69}, {"time": 2592, "pitch": 56, "duration": 14, "velocity": 85}, {"time": 2592, "pitch": 60, "duration": 10, "velocity": 82}, {"time": 2598, "pitch": 51, "duration": 10, "velocity": 70}, {"time": 2604, "pitch": 60, "duration": 10, "velocity": 79}, {"time": 2604, "pitch": 63, "duration": 10, "velocity": 78}, {"time": 2610, "pitch": 51, "duration": 8, "velocity": 72}, {"time": 2616, "pitch": 60, "duration": 5, "velocity": 86}, {"time": 2616, "pitch": 63, "duration": 5, "velocity": 86}, {"time": 2622, "pitch": 44, "duration": 2, "velocity": 85}, {"time": 2628, "pitch": 48, "duration": 40, "velocity": 83}, {"time": 2628, "pitch": 60, "duration": 8, "velocity": 79}, {"time": 2628, "pitch": 63, "duration": 11, "velocity": 82}, {"time": 2634, "pitch": 55, "duration": 9, "velocity": 63}, {"time": 2640, "pitch": 63, "duration": 1, "velocity": 50}, {"time": 2640, "pitch": 67, "duration": 9, "velocity": 89}, {"time": 2646, "pitch": 55, "duration": 7, "velocity": 68}, {"time": 2652, "pitch": 60, "duration": 7, "velocity": 76}, {"time": 2652, "pitch": 63, "duration": 7, "velocity": 82}, {"time": 2652, "pitch": 67, "duration": 5, "velocity": 73}, {"time": 2658, "pitch": 55, "duration": 8, "velocity": 70}, {"time": 2664, "pitch": 60, "duration": 4, "velocity": 86}, {"time": 2664, "pitch": 63, "duration": 7, "velocity": 86}, {"time": 2670, "pitch": 48, "duration": 3, "velocity": 86}, {"time": 2670, "pitch": 60, "duration": 9, "velocity": 85}, {"time": 2676, "pitch": 41, "duration": 10, "velocity": 86}, {"time": 2676, "pitch": 60, "duration": 3, "velocity": 79}, {"time": 2676, "pitch": 65, "duration": 8, "velocity": 83}, {"time": 2682, "pitch": 60, "duration": 7, "velocity": 73}, {"time": 2688, "pitch": 65, "duration": 2, "velocity": 85}, {"time": 2688, "pitch": 68, "duration": 3, "velocity": 82}, {"time": 2694, "pitch": 60, "duration": 7, "velocity": 73}, {"time": 2700, "pitch": 53, "duration": 18, "velocity": 81}, {"time": 2700, "pitch": 65, "duration": 9, "velocity": 78}, {"time": 2700, "pitch": 68, "duration": 9, "velocity": 75}, {"time": 2706, "pitch": 60, "duration": 3, "velocity": 72}, {"time": 2712, "pitch": 60, "duration": 2, "velocity": 85}, {"time": 2712, "pitch": 65, "duration": 6, "velocity": 86}, {"time": 2712, "pitch": 68, "duration": 7, "velocity": 79}, {"time": 2718, "pitch": 60, "duration": 3, "velocity": 78}, {"time": 2724, "pitch": 48, "duration": 42, "velocity": 85}, {"time": 2724, "pitch": 60, "duration": 7, "velocity": 79}, {"time": 2724, "pitch": 63, "duration": 7, "velocity": 78}, {"time": 2724, "pitch": 67, "duration": 7, "velocity": 78}, {"time": 2730, "pitch": 55, "duration": 8, "velocity": 71}, {"time": 2736, "pitch": 60, "duration": 9, "velocity": 84}, {"time": 2736, "pitch": 67, "duration": 9, "velocity": 82}, {"time": 2742, "pitch": 55, "duration": 8, "velocity": 65}, {"time": 2748, "pitch": 60, "duration": 6, "velocity": 81}, {"time": 2748, "pitch": 63, "duration": 6, "velocity": 84}, {"time": 2754, "pitch": 55, "duration": 7, "velocity": 50}, {"time": 2760, "pitch": 60, "duration": 3, "velocity": 86}, {"time": 2760, "pitch": 63, "duration": 6, "velocity": 85}, {"time": 2760, "pitch": 67, "duration": 6, "velocity": 85}, {"time": 2766, "pitch": 60, "duration": 6, "velocity": 88}, {"time": 2772, "pitch": 49, "duration": 39, "velocity": 87}, {"time": 2772, "pitch": 56, "duration": 3, "velocity": 77}, {"time": 2772, "pitch": 65, "duration": 9, "velocity": 79}, {"time": 2778, "pitch": 56, "duration": 3, "velocity": 77}, {"time": 2784, "pitch": 56, "duration": 2, "velocity": 84}, {"time": 2784, "pitch": 61, "duration": 6, "velocity": 81}, {"time": 2796, "pitch": 56, "duration": 3, "velocity": 81}, {"time": 2796, "pitch": 65, "duration": 9, "velocity": 85}, {"time": 2802, "pitch": 56, "duration": 3, "velocity": 65}, {"time": 2808, "pitch": 56, "duration": 2, "velocity": 83}, {"time": 2808, "pitch": 61, "duration": 4, "velocity": 85}, {"time": 2808, "pitch": 65, "duration": 6, "velocity": 86}, {"time": 2814, "pitch": 56, "duration": 2, "velocity": 86}, {"time": 2814, "pitch": 61, "duration": 1, "velocity": 60}, {"time": 2820, "pitch": 46, "duration": 22, "velocity": 85}, {"time": 2820, "pitch": 58, "duration": 6, "velocity": 84}, {"time": 2820, "pitch": 61, "duration": 6, "velocity": 84}, {"time": 2826, "pitch": 53, "duration": 7, "velocity": 73}, {"time": 2832, "pitch": 58, "duration": 3, "velocity": 83}, {"time": 2832, "pitch": 61, "duration": 3, "velocity": 86}, {"time": 2835, "pitch": 53, "duration": 7, "velocity": 80}, {"time": 2838, "pitch": 60, "duration": 4, "velocity": 84}, {"time": 2841, "pitch": 61, "duration": 2, "velocity": 80}, {"time": 2844, "pitch": 46, "duration": 15, "velocity": 78}, {"time": 2844, "pitch": 58, "duration": 5, "velocity": 72}, {"time": 2844, "pitch": 65, "duration": 6, "velocity": 80}, {"time": 2850, "pitch": 53, "duration": 7, "velocity": 74}, {"time": 2856, "pitch": 58, "duration": 2, "velocity": 80}, {"time": 2856, "pitch": 61, "duration": 3, "velocity": 85}, {"time": 2856, "pitch": 65, "duration": 4, "velocity": 86}, {"time": 2862, "pitch": 58, "duration": 4, "velocity": 73}, {"time": 2868, "pitch": 46, "duration": 22, "velocity": 86}, {"time": 2868, "pitch": 58, "duration": 9, "velocity": 78}, {"time": 2868, "pitch": 61, "duration": 8, "velocity": 78}, {"time": 2874, "pitch": 53, "duration": 9, "velocity": 72}, {"time": 2880, "pitch": 58, "duration": 5, "velocity": 79}, {"time": 2880, "pitch": 61, "duration": 5, "velocity": 84}, {"time": 2880, "pitch": 65, "duration": 5, "velocity": 85}, {"time": 2886, "pitch": 53, "duration": 5, "velocity": 73}, {"time": 2892, "pitch": 46, "duration": 15, "velocity": 85}, {"time": 2892, "pitch": 58, "duration": 8, "velocity": 74}, {"time": 2892, "pitch": 61, "duration": 7, "velocity": 78}, {"time": 2892, "pitch": 65, "duration": 8, "velocity": 84}, {"time": 2898, "pitch": 53, "duration": 9, "velocity": 74}, {"time": 2904, "pitch": 58, "duration": 3, "velocity": 80}, {"time": 2904, "pitch": 61, "duration": 4, "velocity": 86}, {"time": 2904, "pitch": 65, "duration": 4, "velocity": 88}, {"time": 2904, "pitch": 70, "duration": 5, "velocity": 84}, {"time": 2910, "pitch": 58, "duration": 4, "velocity": 87}, {"time": 2916, "pitch": 39, "duration": 2, "velocity": 86}, {"time": 2916, "pitch": 58, "duration": 4, "velocity": 81}, {"time": 2916, "pitch": 63, "duration": 6, "velocity": 85}, {"time": 2922, "pitch": 51, "duration": 16, "velocity": 84}, {"time": 2928, "pitch": 58, "duration": 9, "velocity": 86}, {"time": 2934, "pitch": 63, "duration": 4, "velocity": 91}, {"time": 2940, "pitch": 51, "duration": 23, "velocity": 89}, {"time": 2940, "pitch": 58, "duration": 7, "velocity": 80}, {"time": 2940, "pitch": 63, "duration": 8, "velocity": 84}, {"time": 2940, "pitch": 67, "duration": 10, "velocity": 86}, {"time": 2940, "pitch": 70, "duration": 9, "velocity": 85}, {"time": 2949, "pitch": 58, "duration": 4, "velocity": 77}, {"time": 2952, "pitch": 63, "duration": 4, "velocity": 85}, {"time": 2952, "pitch": 67, "duration": 4, "velocity": 80}, {"time": 2952, "pitch": 70, "duration": 7, "velocity": 82}, {"time": 2952, "pitch": 75, "duration": 11, "velocity": 89}, {"time": 2955, "pitch": 58, "duration": 8, "velocity": 85}, {"time": 2958, "pitch": 63, "duration": 5, "velocity": 81}, {"time": 2964, "pitch": 44, "duration": 22, "velocity": 85}, {"time": 2964, "pitch": 68, "duration": 6, "velocity": 85}, {"time": 2967, "pitch": 56, "duration": 5, "velocity": 82}, {"time": 2970, "pitch": 51, "duration": 6, "velocity": 31}, {"time": 2970, "pitch": 63, "duration": 4, "velocity": 81}, {"time": 2973, "pitch": 68, "duration": 9, "velocity": 85}, {"time": 2976, "pitch": 51, "duration": 10, "velocity": 76}, {"time": 2979, "pitch": 56, "duration": 6, "velocity": 81}, {"time": 2982, "pitch": 63, "duration": 5, "velocity": 82}, {"time": 2985, "pitch": 68, "duration": 2, "velocity": 80}, {"time": 2988, "pitch": 44, "duration": 16, "velocity": 85}, {"time": 2988, "pitch": 56, "duration": 7, "velocity": 85}, {"time": 2988, "pitch": 63, "duration": 10, "velocity": 86}, {"time": 2988, "pitch": 68, "duration": 10, "velocity": 79}, {"time": 2994, "pitch": 51, "duration": 7, "velocity": 76}, {"time": 2997, "pitch": 56, "duration": 2, "velocity": 75}, {"time": 3000, "pitch": 56, "duration": 3, "velocity": 78}, {"time": 3000, "pitch": 60, "duration": 4, "velocity": 86}, {"time": 3000, "pitch": 63, "duration": 5, "velocity": 87}, {"time": 3000, "pitch": 68, "duration": 8, "velocity": 85}, {"time": 3003, "pitch": 51, "duration": 1, "velocity": 84}, {"time": 3006, "pitch": 56, "duration": 2, "velocity": 85}, {"time": 3012, "pitch": 48, "duration": 22, "velocity": 85}, {"time": 3012, "pitch": 60, "duration": 3, "velocity": 81}, {"time": 3012, "pitch": 67, "duration": 8, "velocity": 84}, {"time": 3015, "pitch": 55, "duration": 6, "velocity": 68}, {"time": 3018, "pitch": 60, "duration": 6, "velocity": 80}, {"time": 3021, "pitch": 63, "duration": 6, "velocity": 85}, {"time": 3024, "pitch": 55, "duration": 10, "velocity": 71}, {"time": 3027, "pitch": 67, "duration": 7, "velocity": 85}, {"time": 3030, "pitch": 60, "duration": 10, "velocity": 83}, {"time": 3033, "pitch": 63, "duration": 9, "velocity": 80}, {"time": 3036, "pitch": 48, "duration": 17, "velocity": 86}, {"time": 3039, "pitch": 55, "duration": 7, "velocity": 77}, {"time": 3042, "pitch": 60, "duration": 6, "velocity": 78}, {"time": 3045, "pitch": 63, "duration": 4, "velocity": 82}, {"time": 3048, "pitch": 55, "duration": 4, "velocity": 77}, {"time": 3051, "pitch": 60, "duration": 1, "velocity": 80}, {"time": 3051, "pitch": 63, "duration": 4, "velocity": 84}, {"time": 3051, "pitch": 67, "duration": 6, "velocity": 79}, {"time": 3054, "pitch": 60, "duration": 6, "velocity": 78}, {"time": 3057, "pitch": 63, "duration": 4, "velocity": 78}, {"time": 3060, "pitch": 41, "duration": 22, "velocity": 84}, {"time": 3060, "pitch": 68, "duration": 10, "velocity": 82}, {"time": 3066, "pitch": 48, "duration": 15, "velocity": 80}, {"time": 3069, "pitch": 60, "duration": 6, "velocity": 85}, {"time": 3072, "pitch": 65, "duration": 4, "velocity": 86}, {"time": 3075, "pitch": 68, "duration": 8, "velocity": 85}, {"time": 3078, "pitch": 60, "duration": 5, "velocity": 85}, {"time": 3081, "pitch": 65, "duration": 2, "velocity": 80}, {"time": 3084, "pitch": 39, "duration": 16, "velocity": 87}, {"time": 3084, "pitch": 63, "duration": 7, "velocity": 81}, {"time": 3090, "pitch": 58, "duration": 7, "velocity": 78}, {"time": 3093, "pitch": 63, "duration": 7, "velocity": 82}, {"time": 3096, "pitch": 46, "duration": 5, "velocity": 80}, {"time": 3099, "pitch": 67, "duration": 5, "velocity": 89}, {"time": 3102, "pitch": 63, "duration": 4, "velocity": 80}, {"time": 3105, "pitch": 58, "duration": 1, "velocity": 72}, {"time": 3108, "pitch": 49, "duration": 19, "velocity": 88}, {"time": 3108, "pitch": 61, "duration": 6, "velocity": 78}, {"time": 3108, "pitch": 65, "duration": 7, "velocity": 85}, {"time": 3114, "pitch": 56, "duration": 4, "velocity": 72}, {"time": 3117, "pitch": 68, "duration": 8, "velocity": 86}, {"time": 3120, "pitch": 56, "duration": 10, "velocity": 72}, {"time": 3123, "pitch": 61, "duration": 7, "velocity": 84}, {"time": 3126, "pitch": 65, "duration": 3, "velocity": 81}, {"time": 3129, "pitch": 68, "duration": 2, "velocity": 72}, {"time": 3132, "pitch": 49, "duration": 16, "velocity": 87}, {"time": 3132, "pitch": 61, "duration": 8, "velocity": 81}, {"time": 3132, "pitch": 68, "duration": 9, "velocity": 79}, {"time": 3138, "pitch": 56, "duration": 7, "velocity": 76}, {"time": 3144, "pitch": 61, "duration": 4, "velocity": 86}, {"time": 3144, "pitch": 65, "duration": 3, "velocity": 87}, {"time": 3147, "pitch": 56, "duration": 2, "velocity": 81}, {"time": 3150, "pitch": 60, "duration": 4, "velocity": 68}, {"time": 3156, "pitch": 46, "duration": 17, "velocity": 88}, {"time": 3156, "pitch": 58, "duration": 3, "velocity": 78}, {"time": 3156, "pitch": 61, "duration": 4, "velocity": 80}, {"time": 3159, "pitch": 53, "duration": 13, "velocity": 81}, {"time": 3162, "pitch": 58, "duration": 4, "velocity": 82}, {"time": 3165, "pitch": 61, "duration": 3, "velocity": 89}, {"time": 3171, "pitch": 65, "duration": 3, "velocity": 91}, {"time": 3174, "pitch": 61, "duration": 4, "velocity": 87}, {"time": 3177, "pitch": 58, "duration": 2, "velocity": 83}, {"time": 3180, "pitch": 39, "duration": 1, "velocity": 88}, {"time": 3180, "pitch": 58, "duration": 4, "velocity": 81}, {"time": 3180, "pitch": 63, "duration": 5, "velocity": 85}, {"time": 3186, "pitch": 51, "duration": 8, "velocity": 84}, {"time": 3189, "pitch": 55, "duration": 5, "velocity": 85}, {"time": 3192, "pitch": 58, "duration": 3, "velocity": 86}, {"time": 3195, "pitch": 63, "duration": 4, "velocity": 89}, {"time": 3198, "pitch": 67, "duration": 3, "velocity": 87}, {"time": 3201, "pitch": 63, "duration": 1, "velocity": 80}, {"time": 3204, "pitch": 48, "duration": 17, "velocity": 86}, {"time": 3204, "pitch": 60, "duration": 4, "velocity": 85}, {"time": 3204, "pitch": 63, "duration": 4, "velocity": 80}, {"time": 3204, "pitch": 67, "duration": 7, "velocity": 79}, {"time": 3207, "pitch": 55, "duration": 7, "velocity": 86}, {"time": 3210, "pitch": 60, "duration": 2, "velocity": 85}, {"time": 3213, "pitch": 60, "duration": 4, "velocity": 87}, {"time": 3213, "pitch": 63, "duration": 5, "velocity": 87}, {"time": 3213, "pitch": 67, "duration": 8, "velocity": 85}, {"time": 3216, "pitch": 55, "duration": 3, "velocity": 85}, {"time": 3219, "pitch": 60, "duration": 4, "velocity": 86}, {"time": 3222, "pitch": 63, "duration": 4, "velocity": 86}, {"time": 3225, "pitch": 60, "duration": 4, "velocity": 79}, {"time": 3228, "pitch": 41, "duration": 2, "velocity": 88}, {"time": 3228, "pitch": 65, "duration": 8, "velocity": 87}, {"time": 3234, "pitch": 53, "duration": 10, "velocity": 76}, {"time": 3237, "pitch": 57, "duration": 4, "velocity": 86}, {"time": 3240, "pitch": 60, "duration": 4, "velocity": 86}, {"time": 3243, "pitch": 65, "duration": 4, "velocity": 99}, {"time": 3246, "pitch": 69, "duration": 3, "velocity": 85}, {"time": 3249, "pitch": 65, "duration": 2, "velocity": 81}, {"time": 3252, "pitch": 46, "duration": 22, "velocity": 82}, {"time": 3252, "pitch": 65, "duration": 8, "velocity": 83}, {"time": 3252, "pitch": 70, "duration": 9, "velocity": 81}, {"time": 3258, "pitch": 53, "duration": 16, "velocity": 75}, {"time": 3264, "pitch": 65, "duration": 3, "velocity": 87}, {"time": 3264, "pitch": 70, "duration": 10, "velocity": 87}, {"time": 3264, "pitch": 73, "duration": 7, "velocity": 87}, {"time": 3270, "pitch": 65, "duration": 4, "velocity": 79}, {"time": 3276, "pitch": 46, "duration": 17, "velocity": 83}, {"time": 3276, "pitch": 62, "duration": 8, "velocity": 82}, {"time": 3276, "pitch": 70, "duration": 9, "velocity": 81}, {"time": 3282, "pitch": 53, "duration": 10, "velocity": 85}, {"time": 3288, "pitch": 65, "duration": 3, "velocity": 88}, {"time": 3288, "pitch": 70, "duration": 6, "velocity": 86}, {"time": 3288, "pitch": 74, "duration": 6, "velocity": 86}, {"time": 3294, "pitch": 65, "duration": 2, "velocity": 77}, {"time": 3300, "pitch": 39, "duration": 2, "velocity": 86}, {"time": 3300, "pitch": 63, "duration": 4, "velocity": 78}, {"time": 3300, "pitch": 67, "duration": 4, "velocity": 85}, {"time": 3300, "pitch": 70, "duration": 4, "velocity": 87}, {"time": 3306, "pitch": 51, "duration": 13, "velocity": 86}, {"time": 3306, "pitch": 63, "duration": 4, "velocity": 80}, {"time": 3306, "pitch": 67, "duration": 4, "velocity": 74}, {"time": 3306, "pitch": 70, "duration": 4, "velocity": 81}, {"time": 3312, "pitch": 63, "duration": 5, "velocity": 87}, {"time": 3312, "pitch": 67, "duration": 5, "velocity": 88}, {"time": 3312, "pitch": 70, "duration": 4, "velocity": 89}, {"time": 3318, "pitch": 58, "duration": 1, "velocity": 78}, {"time": 3321, "pitch": 63, "duration": 1, "velocity": 85}, {"time": 3324, "pitch": 39, "duration": 2, "velocity": 88}, {"time": 3324, "pitch": 63, "duration": 4, "velocity": 80}, {"time": 3324, "pitch": 67, "duration": 5, "velocity": 81}, {"time": 3324, "pitch": 75, "duration": 5, "velocity": 89}, {"time": 3330, "pitch": 51, "duration": 18, "velocity": 86}, {"time": 3330, "pitch": 63, "duration": 4, "velocity": 87}, {"time": 3330, "pitch": 67, "duration": 4, "velocity": 84}, {"time": 3330, "pitch": 75, "duration": 5, "velocity": 88}, {"time": 3336, "pitch": 58, "duration": 11, "velocity": 77}, {"time": 3336, "pitch": 65, "duration": 2, "velocity": 87}, {"time": 3336, "pitch": 77, "duration": 2, "velocity": 88}, {"time": 3342, "pitch": 67, "duration": 2, "velocity": 85}, {"time": 3348, "pitch": 44, "duration": 22, "velocity": 85}, {"time": 3348, "pitch": 68, "duration": 6, "velocity": 85}, {"time": 3351, "pitch": 56, "duration": 5, "velocity": 82}, {"time": 3354, "pitch": 51, "duration": 6, "velocity": 31}, {"time": 3354, "pitch": 63, "duration": 4, "velocity": 81}, {"time": 3357, "pitch": 68, "duration": 9, "velocity": 85}, {"time": 3360, "pitch": 51, "duration": 10, "velocity": 76}, {"time": 3363, "pitch": 56, "duration": 6, "velocity": 81}, {"time": 3366, "pitch": 63, "duration": 5, "velocity": 82}, {"time": 3369, "pitch": 68, "duration": 2, "velocity": 80}, {"time": 3372, "pitch": 44, "duration": 16, "velocity": 85}, {"time": 3372, "pitch": 56, "duration": 7, "velocity": 85}, {"time": 3372, "pitch": 63, "duration": 10, "velocity": 86}, {"time": 3372, "pitch": 68, "duration": 10, "velocity": 79}, {"time": 3378, "pitch": 51, "duration": 7, "velocity": 76}, {"time": 3381, "pitch": 56, "duration": 2, "velocity": 75}, {"time": 3384, "pitch": 56, "duration": 3, "velocity": 78}, {"time": 3384, "pitch": 60, "duration": 4, "velocity": 86}, {"time": 3384, "pitch": 63, "duration": 5, "velocity": 87}, {"time": 3384, "pitch": 68, "duration": 8, "velocity": 85}, {"time": 3387, "pitch": 51, "duration": 1, "velocity": 84}, {"time": 3390, "pitch": 56, "duration": 2, "velocity": 85}, {"time": 3396, "pitch": 48, "duration": 22, "velocity": 85}, {"time": 3396, "pitch": 60, "duration": 3, "velocity": 81}, {"time": 3396, "pitch": 67, "duration": 8, "velocity": 84}, {"time": 3399, "pitch": 55, "duration": 6, "velocity": 68}, {"time": 3402, "pitch": 60, "duration": 6, "velocity": 80}, {"time": 3405, "pitch": 63, "duration": 6, "velocity": 85}, {"time": 3408, "pitch": 55, "duration": 10, "velocity": 71}, {"time": 3411, "pitch": 67, "duration": 7, "velocity": 85}, {"time": 3414, "pitch": 60, "duration": 10, "velocity": 83}, {"time": 3417, "pitch": 63, "duration": 9, "velocity": 80}, {"time": 3420, "pitch": 48, "duration": 17, "velocity": 86}, {"time": 3423, "pitch": 55, "duration": 7, "velocity": 77}, {"time": 3426, "pitch": 60, "duration": 6, "velocity": 78}, {"time": 3429, "pitch": 63, "duration": 4, "velocity": 82}, {"time": 3432, "pitch": 55, "duration": 4, "velocity": 77}, {"time": 3435, "pitch": 60, "duration": 1, "velocity": 80}, {"time": 3435, "pitch": 63, "duration": 4, "velocity": 84}, {"time": 3435, "pitch": 67, "duration": 6, "velocity": 79}, {"time": 3438, "pitch": 60, "duration": 6, "velocity": 78}, {"time": 3441, "pitch": 63, "duration": 4, "velocity": 78}, {"time": 3444, "pitch": 41, "duration": 22, "velocity": 84}, {"time": 3444, "pitch": 68, "duration": 10, "velocity": 82}, {"time": 3450, "pitch": 48, "duration": 15, "velocity": 80}, {"time": 3453, "pitch": 60, "duration": 6, "velocity": 85}, {"time": 3456, "pitch": 65, "duration": 4, "velocity": 86}, {"time": 3459, "pitch": 68, "duration": 8, "velocity": 85}, {"time": 3462, "pitch": 60, "duration": 5, "velocity": 85}, {"time": 3465, "pitch": 65, "duration": 2, "velocity": 80}, {"time": 3468, "pitch": 39, "duration": 16, "velocity": 87}, {"time": 3468, "pitch": 63, "duration": 7, "velocity": 81}, {"time": 3474, "pitch": 58, "duration": 7, "velocity": 78}, {"time": 3477, "pitch": 63, "duration": 7, "velocity": 82}, {"time": 3480, "pitch": 46, "duration": 5, "velocity": 80}, {"time": 3483, "pitch": 67, "duration": 5, "velocity": 89}, {"time": 3486, "pitch": 63, "duration": 4, "velocity": 80}, {"time": 3489, "pitch": 58, "duration": 1, "velocity": 72}, {"time": 3492, "pitch": 49, "duration": 19, "velocity": 88}, {"time": 3492, "pitch": 61, "duration": 6, "velocity": 78}, {"time": 3492, "pitch": 65, "duration": 7, "velocity": 85}, {"time": 3498, "pitch": 56, "duration": 4, "velocity": 72}, {"time": 3501, "pitch": 68, "duration": 8, "velocity": 86}, {"time": 3504, "pitch": 56, "duration": 10, "velocity": 72}, {"time": 3507, "pitch": 61, "duration": 7, "velocity": 84}, {"time": 3510, "pitch": 65, "duration": 3, "velocity": 81}, {"time": 3513, "pitch": 68, "duration": 2, "velocity": 72}, {"time": 3516, "pitch": 49, "duration": 16, "velocity": 87}, {"time": 3516, "pitch": 61, "duration": 8, "velocity": 81}, {"time": 3516, "pitch": 68, "duration": 9, "velocity": 79}, {"time": 3522, "pitch": 56, "duration": 7, "velocity": 76}, {"time": 3528, "pitch": 61, "duration": 4, "velocity": 86}, {"time": 3528, "pitch": 65, "duration": 3, "velocity": 87}, {"time": 3531, "pitch": 56, "duration": 2, "velocity": 81}, {"time": 3534, "pitch": 60, "duration": 4, "velocity": 68}, {"time": 3540, "pitch": 46, "duration": 17, "velocity": 88}, {"time": 3540, "pitch": 58, "duration": 3, "velocity": 78}, {"time": 3540, "pitch": 61, "duration": 4, "velocity": 80}, {"time": 3543, "pitch": 53, "duration": 13, "velocity": 81}, {"time": 3546, "pitch": 58, "duration": 4, "velocity": 82}, {"time": 3549, "pitch": 61, "duration": 3, "velocity": 89}, {"time": 3555, "pitch": 65, "duration": 3, "velocity": 91}, {"time": 3558, "pitch": 61, "duration": 4, "velocity": 87}, {"time": 3561, "pitch": 58, "duration": 2, "velocity": 83}, {"time": 3564, "pitch": 39, "duration": 1, "velocity": 88}, {"time": 3564, "pitch": 58, "duration": 4, "velocity": 81}, {"time": 3564, "pitch": 63, "duration": 5, "velocity": 85}, {"time": 3570, "pitch": 51, "duration": 8, "velocity": 84}, {"time": 3573, "pitch": 55, "duration": 5, "velocity": 85}, {"time": 3576, "pitch": 58, "duration": 3, "velocity": 86}, {"time": 3579, "pitch": 63, "duration": 4, "velocity": 89}, {"time": 3582, "pitch": 67, "duration": 3, "velocity": 87}, {"time": 3585, "pitch": 63, "duration": 1, "velocity": 80}, {"time": 3588, "pitch": 48, "duration": 17, "velocity": 86}, {"time": 3588, "pitch": 60, "duration": 4, "velocity": 85}, {"time": 3588, "pitch": 63, "duration": 4, "velocity": 80}, {"time": 3588, "pitch": 67, "duration": 7, "velocity": 79}, {"time": 3591, "pitch": 55, "duration": 7, "velocity": 86}, {"time": 3594, "pitch": 60, "duration": 2, "velocity": 85}, {"time": 3597, "pitch": 60, "duration": 4, "velocity": 87}, {"time": 3597, "pitch": 63, "duration": 5, "velocity": 87}, {"time": 3597, "pitch": 67, "duration": 8, "velocity": 85}, {"time": 3600, "pitch": 55, "duration": 3, "velocity": 85}, {"time": 3603, "pitch": 60, "duration": 4, "velocity": 86}, {"time": 3606, "pitch": 63, "duration": 4, "velocity": 86}, {"time": 3609, "pitch": 60, "duration": 4, "velocity": 79}, {"time": 3612, "pitch": 41, "duration": 2, "velocity": 88}, {"time": 3612, "pitch": 65, "duration": 8, "velocity": 87}, {"time": 3618, "pitch": 53, "duration": 10, "velocity": 76}, {"time": 3621, "pitch": 57, "duration": 4, "velocity": 86}, {"time": 3624, "pitch": 60, "duration": 4, "velocity": 86}, {"time": 3627, "pitch": 65, "duration": 4, "velocity": 99}, {"time": 3630, "pitch": 69, "duration": 3, "velocity": 85}, {"time": 3633, "pitch": 65, "duration": 2, "velocity": 81}, {"time": 3636, "pitch": 46, "duration": 22, "velocity": 82}, {"time": 3636, "pitch": 65, "duration": 8, "velocity": 83}, {"time": 3636, "pitch": 70, "duration": 9, "velocity": 81}, {"time": 3642, "pitch": 53, "duration": 16, "velocity": 75}, {"time": 3648, "pitch": 65, "duration": 3, "velocity": 87}, {"time": 3648, "pitch": 70, "duration": 10, "velocity": 87}, {"time": 3648, "pitch": 73, "duration": 7, "velocity": 87}, {"time": 3654, "pitch": 65, "duration": 4, "velocity": 79}, {"time": 3660, "pitch": 39, "duration": 4, "velocity": 89}, {"time": 3660, "pitch": 58, "duration": 6, "velocity": 85}, {"time": 3660, "pitch": 67, "duration": 8, "velocity": 80}, {"time": 3672, "pitch": 51, "duration": 4, "velocity": 88}, {"time": 3675, "pitch": 58, "duration": 2, "velocity": 87}, {"time": 3678, "pitch": 63, "duration": 5, "velocity": 88}, {"time": 3681, "pitch": 67, "duration": 2, "velocity": 62}, {"time": 3684, "pitch": 44, "duration": 22, "velocity": 86}, {"time": 3684, "pitch": 63, "duration": 3, "velocity": 85}, {"time": 3684, "pitch": 68, "duration": 3, "velocity": 84}, {"time": 3690, "pitch": 51, "duration": 4, "velocity": 81}, {"time": 3693, "pitch": 56, "duration": 4, "velocity": 86}, {"time": 3693, "pitch": 60, "duration": 4, "velocity": 87}, {"time": 3693, "pitch": 63, "duration": 4, "velocity": 86}, {"time": 3696, "pitch": 51, "duration": 5, "velocity": 81}, {"time": 3699, "pitch": 56, "duration": 4, "velocity": 85}, {"time": 3699, "pitch": 63, "duration": 5, "velocity": 87}, {"time": 3705, "pitch": 56, "duration": 1, "velocity": 69}, {"time": 3708, "pitch": 44, "duration": 24, "velocity": 86}, {"time": 3708, "pitch": 56, "duration": 1, "velocity": 86}, {"time": 3708, "pitch": 60, "duration": 7, "velocity": 90}, {"time": 3708, "pitch": 63, "duration": 8, "velocity": 86}, {"time": 3708, "pitch": 68, "duration": 8, "velocity": 82}, {"time": 3714, "pitch": 51, "duration": 7, "velocity": 82}, {"time": 3717, "pitch": 56, "duration": 1, "velocity": 75}, {"time": 3720, "pitch": 56, "duration": 4, "velocity": 81}, {"time": 3720, "pitch": 60, "duration": 7, "velocity": 85}, {"time": 3720, "pitch": 63, "duration": 8, "velocity": 85}, {"time": 3720, "pitch": 68, "duration": 10, "velocity": 82}, {"time": 3723, "pitch": 51, "duration": 9, "velocity": 84}, {"time": 3726, "pitch": 56, "duration": 5, "velocity": 86}, {"time": 3729, "pitch": 60, "duration": 2, "velocity": 92}, {"time": 3729, "pitch": 63, "duration": 1, "velocity": 70}, {"time": 3732, "pitch": 37, "duration": 2, "velocity": 86}, {"time": 3732, "pitch": 56, "duration": 5, "velocity": 87}, {"time": 3732, "pitch": 61, "duration": 6, "velocity": 86}, {"time": 3744, "pitch": 49, "duration": 10, "velocity": 86}, {"time": 3744, "pitch": 56, "duration": 10, "velocity": 84}, {"time": 3744, "pitch": 61, "duration": 5, "velocity": 85}, {"time": 3744, "pitch": 68, "duration": 4, "velocity": 81}, {"time": 3753, "pitch": 61, "duration": 4, "velocity": 78}, {"time": 3753, "pitch": 68, "duration": 4, "velocity": 79}, {"time": 3756, "pitch": 49, "duration": 4, "velocity": 85}, {"time": 3759, "pitch": 61, "duration": 3, "velocity": 86}, {"time": 3759, "pitch": 68, "duration": 4, "velocity": 84}, {"time": 3759, "pitch": 73, "duration": 5, "velocity": 82}, {"time": 3762, "pitch": 49, "duration": 5, "velocity": 68}, {"time": 3762, "pitch": 56, "duration": 5, "velocity": 79}, {"time": 3765, "pitch": 61, "duration": 1, "velocity": 81}, {"time": 3765, "pitch": 68, "duration": 1, "velocity": 43}, {"time": 3768, "pitch": 49, "duration": 3, "velocity": 86}, {"time": 3768, "pitch": 56, "duration": 3, "velocity": 86}, {"time": 3768, "pitch": 61, "duration": 3, "velocity": 87}, {"time": 3768, "pitch": 68, "duration": 3, "velocity": 81}, {"time": 3768, "pitch": 73, "duration": 3, "velocity": 85}, {"time": 3774, "pitch": 49, "duration": 3, "velocity": 88}, {"time": 3780, "pitch": 48, "duration": 16, "velocity": 87}, {"time": 3780, "pitch": 60, "duration": 6, "velocity": 85}, {"time": 3780, "pitch": 63, "duration": 6, "velocity": 83}, {"time": 3780, "pitch": 67, "duration": 6, "velocity": 79}, {"time": 3792, "pitch": 60, "duration": 5, "velocity": 86}, {"time": 3792, "pitch": 63, "duration": 5, "velocity": 86}, {"time": 3792, "pitch": 67, "duration": 5, "velocity": 87}, {"time": 3798, "pitch": 55, "duration": 3, "velocity": 60}, {"time": 3801, "pitch": 60, "duration": 4, "velocity": 81}, {"time": 3801, "pitch": 63, "duration": 4, "velocity": 85}, {"time": 3801, "pitch": 67, "duration": 4, "velocity": 80}, {"time": 3801, "pitch": 72, "duration": 4, "velocity": 81}, {"time": 3804, "pitch": 48, "duration": 14, "velocity": 85}, {"time": 3807, "pitch": 60, "duration": 3, "velocity": 86}, {"time": 3807, "pitch": 63, "duration": 5, "velocity": 88}, {"time": 3807, "pitch": 67, "duration": 7, "velocity": 82}, {"time": 3810, "pitch": 55, "duration": 6, "velocity": 63}, {"time": 3813, "pitch": 60, "duration": 2, "velocity": 86}, {"time": 3816, "pitch": 60, "duration": 4, "velocity": 89}, {"time": 3816, "pitch": 63, "duration": 4, "velocity": 87}, {"time": 3819, "pitch": 55, "duration": 2, "velocity": 84}, {"time": 3822, "pitch": 60, "duration": 2, "velocity": 87}, {"time": 3828, "pitch": 37, "duration": 1, "velocity": 90}, {"time": 3828, "pitch": 56, "duration": 5, "velocity": 82}, {"time": 3828, "pitch": 61, "duration": 7, "velocity": 82}, {"time": 3828, "pitch": 65, "duration": 6, "velocity": 86}, {"time": 3834, "pitch": 49, "duration": 8, "velocity": 78}, {"time": 3837, "pitch": 56, "duration": 2, "velocity": 81}, {"time": 3840, "pitch": 56, "duration": 3, "velocity": 86}, {"time": 3840, "pitch": 61, "duration": 4, "velocity": 89}, {"time": 3840, "pitch": 65, "duration": 1, "velocity": 88}, {"time": 3843, "pitch": 49, "duration": 5, "velocity": 86}, {"time": 3846, "pitch": 56, "duration": 2, "velocity": 80}, {"time": 3849, "pitch": 56, "duration": 3, "velocity": 77}, {"time": 3849, "pitch": 61, "duration": 3, "velocity": 86}, {"time": 3849, "pitch": 68, "duration": 4, "velocity": 85}, {"time": 3852, "pitch": 49, "duration": 4, "velocity": 88}, {"time": 3855, "pitch": 56, "duration": 4, "velocity": 86}, {"time": 3855, "pitch": 65, "duration": 3, "velocity": 89}, {"time": 3858, "pitch": 49, "duration": 8, "velocity": 87}, {"time": 3861, "pitch": 56, "duration": 2, "velocity": 81}, {"time": 3864, "pitch": 56, "duration": 3, "velocity": 87}, {"time": 3864, "pitch": 61, "duration": 4, "velocity": 92}, {"time": 3867, "pitch": 49, "duration": 1, "velocity": 81}, {"time": 3870, "pitch": 49, "duration": 2, "velocity": 88}, {"time": 3876, "pitch": 46, "duration": 4, "velocity": 87}, {"time": 3876, "pitch": 58, "duration": 4, "velocity": 80}, {"time": 3876, "pitch": 61, "duration": 4, "velocity": 84}, {"time": 3882, "pitch": 46, "duration": 1, "velocity": 51}, {"time": 3882, "pitch": 58, "duration": 2, "velocity": 73}, {"time": 3882, "pitch": 61, "duration": 2, "velocity": 78}, {"time": 3888, "pitch": 46, "duration": 3, "velocity": 85}, {"time": 3888, "pitch": 53, "duration": 3, "velocity": 85}, {"time": 3888, "pitch": 58, "duration": 6, "velocity": 86}, {"time": 3888, "pitch": 61, "duration": 6, "velocity": 88}, {"time": 3888, "pitch": 65, "duration": 6, "velocity": 90}, {"time": 3894, "pitch": 46, "duration": 2, "velocity": 77}, {"time": 3897, "pitch": 58, "duration": 1, "velocity": 83}, {"time": 3900, "pitch": 39, "duration": 1, "velocity": 86}, {"time": 3900, "pitch": 58, "duration": 4, "velocity": 85}, {"time": 3900, "pitch": 63, "duration": 5, "velocity": 85}, {"time": 3906, "pitch": 51, "duration": 12, "velocity": 85}, {"time": 3909, "pitch": 58, "duration": 8, "velocity": 90}, {"time": 3912, "pitch": 63, "duration": 7, "velocity": 91}, {"time": 3915, "pitch": 67, "duration": 4, "velocity": 89}, {"time": 3918, "pitch": 70, "duration": 4, "velocity": 85}, {"time": 3921, "pitch": 75, "duration": 2, "velocity": 92}, {"time": 3924, "pitch": 40, "duration": 4, "velocity": 86}, {"time": 3930, "pitch": 40, "duration": 3, "velocity": 86}, {"time": 3930, "pitch": 47, "duration": 3, "velocity": 85}, {"time": 3930, "pitch": 52, "duration": 4, "velocity": 70}, {"time": 3930, "pitch": 64, "duration": 4, "velocity": 80}, {"time": 3936, "pitch": 40, "duration": 3, "velocity": 90}, {"time": 3936, "pitch": 47, "duration": 4, "velocity": 87}, {"time": 3936, "pitch": 52, "duration": 4, "velocity": 86}, {"time": 3936, "pitch": 64, "duration": 4, "velocity": 84}, {"time": 3942, "pitch": 40, "duration": 2, "velocity": 86}, {"time": 3942, "pitch": 47, "duration": 3, "velocity": 84}, {"time": 3942, "pitch": 52, "duration": 4, "velocity": 80}, {"time": 3942, "pitch": 56, "duration": 4, "velocity": 86}, {"time": 3942, "pitch": 64, "duration": 4, "velocity": 82}, {"time": 3948, "pitch": 40, "duration": 18, "velocity": 89}, {"time": 3948, "pitch": 47, "duration": 19, "velocity": 89}, {"time": 3948, "pitch": 52, "duration": 22, "velocity": 87}, {"time": 3948, "pitch": 56, "duration": 22, "velocity": 87}, {"time": 3948, "pitch": 64, "duration": 23, "velocity": 84}, {"time": 3972, "pitch": 45, "duration": 22, "velocity": 85}, {"time": 3972, "pitch": 69, "duration": 6, "velocity": 85}, {"time": 3975, "pitch": 57, "duration": 5, "velocity": 82}, {"time": 3978, "pitch": 52, "duration": 6, "velocity": 31}, {"time": 3978, "pitch": 64, "duration": 4, "velocity": 81}, {"time": 3981, "pitch": 69, "duration": 9, "velocity": 85}, {"time": 3984, "pitch": 52, "duration": 10, "velocity": 76}, {"time": 3987, "pitch": 57, "duration": 6, "velocity": 81}, {"time": 3990, "pitch": 64, "duration": 5, "velocity": 82}, {"time": 3993, "pitch": 69, "duration": 2, "velocity": 80}, {"time": 3996, "pitch": 45, "duration": 16, "velocity": 85}, {"time": 3996, "pitch": 57, "duration": 7, "velocity": 85}, {"time": 3996, "pitch": 64, "duration": 10, "velocity": 86}, {"time": 3996, "pitch": 69, "duration": 10, "velocity": 79}, {"time": 4002, "pitch": 52, "duration": 7, "velocity": 76}, {"time": 4005, "pitch": 57, "duration": 2, "velocity": 75}, {"time": 4008, "pitch": 57, "duration": 3, "velocity": 78}, {"time": 4008, "pitch": 61, "duration": 4, "velocity": 86}, {"time": 4008, "pitch": 64, "duration": 5, "velocity": 87}, {"time": 4008, "pitch": 69, "duration": 8, "velocity": 85}, {"time": 4011, "pitch": 52, "duration": 1, "velocity": 84}, {"time": 4014, "pitch": 57, "duration": 2, "velocity": 85}, {"time": 4020, "pitch": 49, "duration": 22, "velocity": 85}, {"time": 4020, "pitch": 61, "duration": 3, "velocity": 81}, {"time": 4020, "pitch": 68, "duration": 8, "velocity": 84}, {"time": 4023, "pitch": 56, "duration": 6, "velocity": 68}, {"time": 4026, "pitch": 61, "duration": 6, "velocity": 80}, {"time": 4029, "pitch": 64, "duration": 6, "velocity": 85}, {"time": 4032, "pitch": 56, "duration": 10, "velocity": 71}, {"time": 4035, "pitch": 68, "duration": 7, "velocity": 85}, {"time": 4038, "pitch": 61, "duration": 10, "velocity": 83}, {"time": 4041, "pitch": 64, "duration": 9, "velocity": 80}, {"time": 4044, "pitch": 49, "duration": 17, "velocity": 86}, {"time": 4047, "pitch": 56, "duration": 7, "velocity": 77}, {"time": 4050, "pitch": 61, "duration": 6, "velocity": 78}, {"time": 4053, "pitch": 64, "duration": 4, "velocity": 82}, {"time": 4056, "pitch": 56, "duration": 4, "velocity": 77}, {"time": 4059, "pitch": 61, "duration": 1, "velocity": 80}, {"time": 4059, "pitch": 64, "duration": 4, "velocity": 84}, {"time": 4059, "pitch": 68, "duration": 6, "velocity": 79}, {"time": 4062, "pitch": 61, "duration": 6, "velocity": 78}, {"time": 4065, "pitch": 64, "duration": 4, "velocity": 78}, {"time": 4068, "pitch": 42, "duration": 22, "velocity": 84}, {"time": 4068, "pitch": 69, "duration": 10, "velocity": 82}, {"time": 4074, "pitch": 49, "duration": 15, "velocity": 80}, {"time": 4077, "pitch": 61, "duration": 6, "velocity": 85}, {"time": 4080, "pitch": 66, "duration": 4, "velocity": 86}, {"time": 4083, "pitch": 69, "duration": 8, "velocity": 85}, {"time": 4086, "pitch": 61, "duration": 5, "velocity": 85}, {"time": 4089, "pitch": 66, "duration": 2, "velocity": 80}, {"time": 4092, "pitch": 40, "duration": 16, "velocity": 87}, {"time": 4092, "pitch": 64, "duration": 7, "velocity": 81}, {"time": 4098, "pitch": 59, "duration": 7, "velocity": 78}, {"time": 4101, "pitch": 64, "duration": 7, "velocity": 82}, {"time": 4104, "pitch": 47, "duration": 5, "velocity": 80}, {"time": 4107, "pitch": 68, "duration": 5, "velocity": 89}, {"time": 4110, "pitch": 64, "duration": 4, "velocity": 80}, {"time": 4113, "pitch": 59, "duration": 1, "velocity": 72}, {"time": 4116, "pitch": 50, "duration": 19, "velocity": 88}, {"time": 4116, "pitch": 62, "duration": 6, "velocity": 78}, {"time": 4116, "pitch": 66, "duration": 7, "velocity": 85}, {"time": 4122, "pitch": 57, "duration": 4, "velocity": 72}, {"time": 4125, "pitch": 69, "duration": 8, "velocity": 86}, {"time": 4128, "pitch": 57, "duration": 10, "velocity": 72}, {"time": 4131, "pitch": 62, "duration": 7, "velocity": 84}, {"time": 4134, "pitch": 66, "duration": 3, "velocity": 81}, {"time": 4137, "pitch": 69, "duration": 2, "velocity": 72}, {"time": 4140, "pitch": 50, "duration": 16, "velocity": 87}, {"time": 4140, "pitch": 62, "duration": 8, "velocity": 81}, {"time": 4140, "pitch": 69, "duration": 9, "velocity": 79}, {"time": 4146, "pitch": 57, "duration": 7, "velocity": 76}, {"time": 4152, "pitch": 62, "duration": 4, "velocity": 86}, {"time": 4152, "pitch": 66, "duration": 3, "velocity": 87}, {"time": 4155, "pitch": 57, "duration": 2, "velocity": 81}, {"time": 4158, "pitch": 61, "duration": 4, "velocity": 68}, {"time": 4164, "pitch": 47, "duration": 17, "velocity": 88}, {"time": 4164, "pitch": 59, "duration": 3, "velocity": 78}, {"time": 4164, "pitch": 62, "duration": 4, "velocity": 80}, {"time": 4167, "pitch": 54, "duration": 13, "velocity": 81}, {"time": 4170, "pitch": 59, "duration": 4, "velocity": 82}, {"time": 4173, "pitch": 62, "duration": 3, "velocity": 89}, {"time": 4179, "pitch": 66, "duration": 3, "velocity": 91}, {"time": 4182, "pitch": 62, "duration": 4, "velocity": 87}, {"time": 4185, "pitch": 59, "duration": 2, "velocity": 83}, {"time": 4188, "pitch": 40, "duration": 1, "velocity": 88}, {"time": 4188, "pitch": 59, "duration": 4, "velocity": 81}, {"time": 4188, "pitch": 64, "duration": 5, "velocity": 85}, {"time": 4194, "pitch": 52, "duration": 8, "velocity": 84}, {"time": 4197, "pitch": 56, "duration": 5, "velocity": 85}, {"time": 4200, "pitch": 59, "duration": 3, "velocity": 86}, {"time": 4203, "pitch": 64, "duration": 4, "velocity": 89}, {"time": 4206, "pitch": 68, "duration": 3, "velocity": 87}, {"time": 4209, "pitch": 64, "duration": 1, "velocity": 80}, {"time": 4212, "pitch": 49, "duration": 17, "velocity": 86}, {"time": 4212, "pitch": 61, "duration": 4, "velocity": 85}, {"time": 4212, "pitch": 64, "duration": 4, "velocity": 80}, {"time": 4212, "pitch": 68, "duration": 7, "velocity": 79}, {"time": 4215, "pitch": 56, "duration": 7, "velocity": 86}, {"time": 4218, "pitch": 61, "duration": 2, "velocity": 85}, {"time": 4221, "pitch": 61, "duration": 4, "velocity": 87}, {"time": 4221, "pitch": 64, "duration": 5, "velocity": 87}, {"time": 4221, "pitch": 68, "duration": 8, "velocity": 85}, {"time": 4224, "pitch": 56, "duration": 3, "velocity": 85}, {"time": 4227, "pitch": 61, "duration": 4, "velocity": 86}, {"time": 4230, "pitch": 64, "duration": 4, "velocity": 86}, {"time": 4233, "pitch": 61, "duration": 4, "velocity": 79}, {"time": 4236, "pitch": 42, "duration": 2, "velocity": 88}, {"time": 4236, "pitch": 66, "duration": 8, "velocity": 87}, {"time": 4242, "pitch": 54, "duration": 10, "velocity": 76}, {"time": 4245, "pitch": 58, "duration": 4, "velocity": 86}, {"time": 4248, "pitch": 61, "duration": 4, "velocity": 86}, {"time": 4251, "pitch": 66, "duration": 4, "velocity": 99}, {"time": 4254, "pitch": 70, "duration": 3, "velocity": 85}, {"time": 4257, "pitch": 66, "duration": 2, "velocity": 81}, {"time": 4260, "pitch": 47, "duration": 22, "velocity": 82}, {"time": 4260, "pitch": 66, "duration": 8, "velocity": 83}, {"time": 4260, "pitch": 71, "duration": 9, "velocity": 81}, {"time": 4266, "pitch": 54, "duration": 16, "velocity": 75}, {"time": 4272, "pitch": 66, "duration": 3, "velocity": 87}, {"time": 4272, "pitch": 71, "duration": 10, "velocity": 87}, {"time": 4272, "pitch": 74, "duration": 7, "velocity": 87}, {"time": 4278, "pitch": 66, "duration": 4, "velocity": 79}, {"time": 4284, "pitch": 40, "duration": 6, "velocity": 90}, {"time": 4284, "pitch": 59, "duration": 9, "velocity": 79}, {"time": 4284, "pitch": 68, "duration": 10, "velocity": 80}, {"time": 4296, "pitch": 52, "duration": 2, "velocity": 87}, {"time": 4296, "pitch": 64, "duration": 6, "velocity": 84}, {"time": 4296, "pitch": 59, "duration": 3, "velocity": 80}, {"time": 4308, "pitch": 45, "duration": 41, "velocity": 86}, {"time": 4308, "pitch": 57, "duration": 12, "velocity": 80}, {"time": 4314, "pitch": 52, "duration": 20, "velocity": 85}, {"time": 4320, "pitch": 59, "duration": 6, "velocity": 86}, {"time": 4326, "pitch": 61, "duration": 4, "velocity": 80}, {"time": 4332, "pitch": 64, "duration": 3, "velocity": 83}, {"time": 4332, "pitch": 57, "duration": 3, "velocity": 78}, {"time": 4338, "pitch": 52, "duration": 8, "velocity": 64}, {"time": 4344, "pitch": 64, "duration": 8, "velocity": 72}, {"time": 4344, "pitch": 69, "duration": 8, "velocity": 73}, {"time": 4344, "pitch": 61, "duration": 6, "velocity": 73}, {"time": 4344, "pitch": 57, "duration": 2, "velocity": 62}, {"time": 4357, "pitch": 47, "duration": 17, "velocity": 85}, {"time": 4357, "pitch": 59, "duration": 15, "velocity": 66}, {"time": 4357, "pitch": 62, "duration": 15, "velocity": 75}, {"time": 4364, "pitch": 54, "duration": 8, "velocity": 70}, {"time": 4371, "pitch": 66, "duration": 9, "velocity": 82}, {"time": 4379, "pitch": 71, "duration": 3, "velocity": 78}, {"time": 4388, "pitch": 40, "duration": 43, "velocity": 89}, {"time": 4391, "pitch": 47, "duration": 39, "velocity": 79}, {"time": 4393, "pitch": 52, "duration": 3, "velocity": 72}, {"time": 4394, "pitch": 56, "duration": 3, "velocity": 69}, {"time": 4396, "pitch": 59, "duration": 2, "velocity": 68}, {"time": 4398, "pitch": 64, "duration": 1, "velocity": 78}, {"time": 4402, "pitch": 64, "duration": 4, "velocity": 78}, {"time": 4405, "pitch": 68, "duration": 3, "velocity": 71}, {"time": 4408, "pitch": 71, "duration": 3, "velocity": 77}, {"time": 4411, "pitch": 76, "duration": 2, "velocity": 89}, {"time": 4416, "pitch": 80, "duration": 3, "velocity": 73}, {"time": 4421, "pitch": 83, "duration": 5, "velocity": 77}, {"time": 4427, "pitch": 88, "duration": 1, "velocity": 81}, {"time": 4463, "pitch": 64, "duration": 9, "velocity": 79}, {"time": 4463, "pitch": 45, "duration": 23, "velocity": 85}, {"time": 4463, "pitch": 69, "duration": 9, "velocity": 76}, {"time": 4469, "pitch": 61, "duration": 8, "velocity": 75}, {"time": 4470, "pitch": 52, "duration": 15, "velocity": 61}, {"time": 4476, "pitch": 64, "duration": 7, "velocity": 86}, {"time": 4476, "pitch": 69, "duration": 7, "velocity": 81}, {"time": 4482, "pitch": 61, "duration": 7, "velocity": 80}, {"time": 4488, "pitch": 45, "duration": 22, "velocity": 84}, {"time": 4488, "pitch": 64, "duration": 7, "velocity": 77}, {"time": 4488, "pitch": 67, "duration": 6, "velocity": 81}, {"time": 4494, "pitch": 61, "duration": 2, "velocity": 66}, {"time": 4500, "pitch": 67, "duration": 9, "velocity": 82}, {"time": 4500, "pitch": 64, "duration": 7, "velocity": 85}, {"time": 4500, "pitch": 61, "duration": 2, "velocity": 84}, {"time": 4506, "pitch": 61, "duration": 3, "velocity": 74}, {"time": 4512, "pitch": 62, "duration": 10, "velocity": 72}, {"time": 4512, "pitch": 38, "duration": 14, "velocity": 87}, {"time": 4512, "pitch": 66, "duration": 10, "velocity": 73}, {"time": 4518, "pitch": 50, "duration": 14, "velocity": 87}, {"time": 4524, "pitch": 62, "duration": 3, "velocity": 83}, {"time": 4524, "pitch": 66, "duration": 6, "velocity": 88}, {"time": 4524, "pitch": 69, "duration": 8, "velocity": 83}, {"time": 4530, "pitch": 62, "duration": 3, "velocity": 79}, {"time": 4536, "pitch": 50, "duration": 16, "velocity": 86}, {"time": 4536, "pitch": 65, "duration": 6, "velocity": 79}, {"time": 4536, "pitch": 62, "duration": 5, "velocity": 78}, {"time": 4542, "pitch": 57, "duration": 9, "velocity": 54}, {"time": 4548, "pitch": 65, "duration": 17, "velocity": 86}, {"time": 4548, "pitch": 62, "duration": 4, "velocity": 82}, {"time": 4548, "pitch": 69, "duration": 22, "velocity": 84}, {"time": 4556, "pitch": 62, "duration": 14, "velocity": 74}, {"time": 4576, "pitch": 45, "duration": 40, "velocity": 83}, {"time": 4580, "pitch": 52, "duration": 35, "velocity": 74}, {"time": 4583, "pitch": 57, "duration": 3, "velocity": 78}, {"time": 4585, "pitch": 59, "duration": 3, "velocity": 85}, {"time": 4588, "pitch": 61, "duration": 3, "velocity": 81}, {"time": 4590, "pitch": 64, "duration": 4, "velocity": 85}, {"time": 4593, "pitch": 69, "duration": 3, "velocity": 80}, {"time": 4596, "pitch": 71, "duration": 2, "velocity": 79}, {"time": 4600, "pitch": 73, "duration": 4, "velocity": 82}, {"time": 4603, "pitch": 76, "duration": 3, "velocity": 82}, {"time": 4607, "pitch": 81, "duration": 2, "velocity": 67}, {"time": 4611, "pitch": 83, "duration": 3, "velocity": 67}, {"time": 4617, "pitch": 85, "duration": 1, "velocity": 79}], "annotations": [{"time": 36, "annotation": {"number": 64, "value": 127}, "group": "control_change"}, {"time": 36, "annotation": {"number": 64, "value": 0}, "group": "control_change"}, {"time": 83, "annotation": {"number": 64, "value": 0}, "group": "control_change"}, {"time": 84, "annotation": {"number": 64, "value": 127}, "group": "control_change"}, {"time": 131, "annotation": {"number": 64, "value": 0}, "group": "control_change"}, {"time": 133, "annotation": {"number": 64, "value": 127}, "group": "control_change"}, {"time": 156, "annotation": {"number": 64, "value": 0}, "group": "control_change"}, {"time": 156, "annotation": {"number": 64, "value": 127}, "group": "control_change"}, {"time": 179, "annotation": {"number": 64, "value": 0}, "group": "control_change"}, {"time": 181, "annotation": {"number": 64, "value": 127}, "group": "control_change"}, {"time": 227, "annotation": {"number": 64, "value": 0}, "group": "control_change"}, {"time": 229, "annotation": {"number": 64, "value": 127}, "group": "control_change"}, {"time": 250, "annotation": {"number": 64, "value": 0}, "group": "control_change"}, {"time": 252, "annotation": {"number": 64, "value": 127}, "group": "control_change"}, {"time": 275, "annotation": {"number": 64, "value": 0}, "group": "control_change"}, {"time": 277, "annotation": {"number": 64, "value": 127}, "group": "control_change"}, {"time": 299, "annotation": {"number": 64, "value": 0}, "group": "control_change"}, {"time": 301, "annotation": {"number": 64, "value": 127}, "group": "control_change"}, {"time": 323, "annotation": {"number": 64, "value": 0}, "group": "control_change"}, {"time": 324, "annotation": {"number": 64, "value": 127}, "group": "control_change"}, {"time": 347, "annotation": {"number": 64, "value": 0}, "group": "control_change"}, {"time": 348, "annotation": {"number": 64, "value": 127}, "group": "control_change"}, {"time": 371, "annotation": {"number": 64, "value": 0}, "group": "control_change"}, {"time": 373, "annotation": {"number": 64, "value": 127}, "group": "control_change"}, {"time": 417, "annotation": {"number": 64, "value": 0}, "group": "control_change"}, {"time": 420, "annotation": {"number": 64, "value": 127}, "group": "control_change"}, {"time": 467, "annotation": {"number": 64, "value": 0}, "group": "control_change"}, {"time": 469, "annotation": {"number": 64, "value": 127}, "group": "control_change"}, {"time": 514, "annotation": {"number": 64, "value": 0}, "group": "control_change"}, {"time": 517, "annotation": {"number": 64, "value": 127}, "group": "control_change"}, {"time": 562, "annotation": {"number": 64, "value": 0}, "group": "control_change"}, {"time": 563, "annotation": {"number": 64, "value": 127}, "group": "control_change"}, {"time": 612, "annotation": {"number": 64, "value": 0}, "group": "control_change"}, {"time": 613, "annotation": {"number": 64, "value": 127}, "group": "control_change"}, {"time": 658, "annotation": {"number": 64, "value": 0}, "group": "control_change"}, {"time": 659, "annotation": {"number": 64, "value": 127}, "group": "control_change"}, {"time": 706, "annotation": {"number": 64, "value": 0}, "group": "control_change"}, {"time": 709, "annotation": {"number": 64, "value": 127}, "group": "control_change"}, {"time": 753, "annotation": {"number": 64, "value": 0}, "group": "control_change"}, {"time": 755, "annotation": {"number": 64, "value": 127}, "group": "control_change"}, {"time": 801, "annotation": {"number": 64, "value": 0}, "group": "control_change"}, {"time": 850, "annotation": {"number": 64, "value": 0}, "group": "control_change"}, {"time": 851, "annotation": {"number": 64, "value": 127}, "group": "control_change"}, {"time": 898, "annotation": {"number": 64, "value": 0}, "group": "control_change"}, {"time": 899, "annotation": {"number": 64, "value": 127}, "group": "control_change"}, {"time": 900, "annotation": {"number": 64, "value": 127}, "group": "control_change"}, {"time": 924, "annotation": {"number": 64, "value": 0}, "group": "control_change"}, {"time": 925, "annotation": {"number": 64, "value": 127}, "group": "control_change"}, {"time": 947, "annotation": {"number": 64, "value": 0}, "group": "control_change"}, {"time": 949, "annotation": {"number": 64, "value": 127}, "group": "control_change"}, {"time": 994, "annotation": {"number": 64, "value": 0}, "group": "control_change"}, {"time": 996, "annotation": {"number": 64, "value": 127}, "group": "control_change"}, {"time": 1043, "annotation": {"number": 64, "value": 0}, "group": "control_change"}, {"time": 1045, "annotation": {"number": 64, "value": 127}, "group": "control_change"}, {"time": 1068, "annotation": {"number": 64, "value": 0}, "group": "control_change"}, {"time": 1069, "annotation": {"number": 64, "value": 127}, "group": "control_change"}, {"time": 1089, "annotation": {"number": 64, "value": 0}, "group": "control_change"}, {"time": 1091, "annotation": {"number": 64, "value": 127}, "group": "control_change"}, {"time": 1092, "annotation": {"number": 64, "value": 127}, "group": "control_change"}, {"time": 1092, "annotation": {"number": 64, "value": 0}, "group": "control_change"}, {"time": 1114, "annotation": {"number": 64, "value": 0}, "group": "control_change"}, {"time": 1116, "annotation": {"number": 64, "value": 127}, "group": "control_change"}, {"time": 1137, "annotation": {"number": 64, "value": 0}, "group": "control_change"}, {"time": 1139, "annotation": {"number": 64, "value": 127}, "group": "control_change"}, {"time": 1186, "annotation": {"number": 64, "value": 0}, "group": "control_change"}, {"time": 1189, "annotation": {"number": 64, "value": 127}, "group": "control_change"}, {"time": 1189, "annotation": {"number": 64, "value": 0}, "group": "control_change"}, {"time": 1211, "annotation": {"number": 64, "value": 0}, "group": "control_change"}, {"time": 1212, "annotation": {"number": 64, "value": 127}, "group": "control_change"}, {"time": 1235, "annotation": {"number": 64, "value": 0}, "group": "control_change"}, {"time": 1236, "annotation": {"number": 64, "value": 127}, "group": "control_change"}, {"time": 1259, "annotation": {"number": 64, "value": 0}, "group": "control_change"}, {"time": 1260, "annotation": {"number": 64, "value": 127}, "group": "control_change"}, {"time": 1283, "annotation": {"number": 64, "value": 0}, "group": "control_change"}, {"time": 1284, "annotation": {"number": 64, "value": 127}, "group": "control_change"}, {"time": 1332, "annotation": {"number": 64, "value": 0}, "group": "control_change"}, {"time": 1332, "annotation": {"number": 64, "value": 127}, "group": "control_change"}, {"time": 1380, "annotation": {"number": 64, "value": 0}, "group": "control_change"}, {"time": 1380, "annotation": {"number": 64, "value": 127}, "group": "control_change"}, {"time": 1402, "annotation": {"number": 64, "value": 0}, "group": "control_change"}, {"time": 1403, "annotation": {"number": 64, "value": 127}, "group": "control_change"}, {"time": 1427, "annotation": {"number": 64, "value": 0}, "group": "control_change"}, {"time": 1427, "annotation": {"number": 64, "value": 127}, "group": "control_change"}, {"time": 1450, "annotation": {"number": 64, "value": 0}, "group": "control_change"}, {"time": 1451, "annotation": {"number": 64, "value": 127}, "group": "control_change"}, {"time": 1475, "annotation": {"number": 64, "value": 0}, "group": "control_change"}, {"time": 1476, "annotation": {"number": 64, "value": 127}, "group": "control_change"}, {"time": 1499, "annotation": {"number": 64, "value": 0}, "group": "control_change"}, {"time": 1500, "annotation": {"number": 64, "value": 127}, "group": "control_change"}, {"time": 1522, "annotation": {"number": 64, "value": 0}, "group": "control_change"}, {"time": 1523, "annotation": {"number": 64, "value": 127}, "group": "control_change"}, {"time": 1571, "annotation": {"number": 64, "value": 0}, "group": "control_change"}, {"time": 1573, "annotation": {"number": 64, "value": 127}, "group": "control_change"}, {"time": 1573, "annotation": {"number": 64, "value": 0}, "group": "control_change"}, {"time": 1595, "annotation": {"number": 64, "value": 0}, "group": "control_change"}, {"time": 1596, "annotation": {"number": 64, "value": 127}, "group": "control_change"}, {"time": 1619, "annotation": {"number": 64, "value": 0}, "group": "control_change"}, {"time": 1620, "annotation": {"number": 64, "value": 127}, "group": "control_change"}, {"time": 1643, "annotation": {"number": 64, "value": 0}, "group": "control_change"}, {"time": 1644, "annotation": {"number": 64, "value": 127}, "group": "control_change"}, {"time": 1667, "annotation": {"number": 64, "value": 0}, "group": "control_change"}, {"time": 1668, "annotation": {"number": 64, "value": 127}, "group": "control_change"}, {"time": 1716, "annotation": {"number": 64, "value": 0}, "group": "control_change"}, {"time": 1716, "annotation": {"number": 64, "value": 127}, "group": "control_change"}, {"time": 1764, "annotation": {"number": 64, "value": 0}, "group": "control_change"}, {"time": 1764, "annotation": {"number": 64, "value": 127}, "group": "control_change"}, {"time": 1786, "annotation": {"number": 64, "value": 0}, "group": "control_change"}, {"time": 1787, "annotation": {"number": 64, "value": 127}, "group": "control_change"}, {"time": 1811, "annotation": {"number": 64, "value": 0}, "group": "control_change"}, {"time": 1811, "annotation": {"number": 64, "value": 127}, "group": "control_change"}, {"time": 1834, "annotation": {"number": 64, "value": 0}, "group": "control_change"}, {"time": 1835, "annotation": {"number": 64, "value": 127}, "group": "control_change"}, {"time": 1859, "annotation": {"number": 64, "value": 0}, "group": "control_change"}, {"time": 1860, "annotation": {"number": 64, "value": 127}, "group": "control_change"}, {"time": 1867, "annotation": {"number": 64, "value": 127}, "group": "control_change"}, {"time": 1883, "annotation": {"number": 64, "value": 0}, "group": "control_change"}, {"time": 1885, "annotation": {"number": 64, "value": 127}, "group": "control_change"}, {"time": 1929, "annotation": {"number": 64, "value": 0}, "group": "control_change"}, {"time": 1978, "annotation": {"number": 64, "value": 0}, "group": "control_change"}, {"time": 1980, "annotation": {"number": 64, "value": 127}, "group": "control_change"}, {"time": 2025, "annotation": {"number": 64, "value": 0}, "group": "control_change"}, {"time": 2027, "annotation": {"number": 64, "value": 127}, "group": "control_change"}, {"time": 2075, "annotation": {"number": 64, "value": 0}, "group": "control_change"}, {"time": 2076, "annotation": {"number": 64, "value": 127}, "group": "control_change"}, {"time": 2087, "annotation": {"number": 64, "value": 0}, "group": "control_change"}, {"time": 2088, "annotation": {"number": 64, "value": 127}, "group": "control_change"}, {"time": 2099, "annotation": {"number": 64, "value": 0}, "group": "control_change"}, {"time": 2100, "annotation": {"number": 64, "value": 127}, "group": "control_change"}, {"time": 2123, "annotation": {"number": 64, "value": 0}, "group": "control_change"}, {"time": 2124, "annotation": {"number": 64, "value": 127}, "group": "control_change"}, {"time": 2196, "annotation": {"number": 64, "value": 127}, "group": "control_change"}, {"time": 2243, "annotation": {"number": 64, "value": 0}, "group": "control_change"}, {"time": 2245, "annotation": {"number": 64, "value": 127}, "group": "control_change"}, {"time": 2290, "annotation": {"number": 64, "value": 0}, "group": "control_change"}, {"time": 2293, "annotation": {"number": 64, "value": 127}, "group": "control_change"}, {"time": 2338, "annotation": {"number": 64, "value": 0}, "group": "control_change"}, {"time": 2339, "annotation": {"number": 64, "value": 127}, "group": "control_change"}, {"time": 2388, "annotation": {"number": 64, "value": 0}, "group": "control_change"}, {"time": 2389, "annotation": {"number": 64, "value": 127}, "group": "control_change"}, {"time": 2434, "annotation": {"number": 64, "value": 0}, "group": "control_change"}, {"time": 2435, "annotation": {"number": 64, "value": 127}, "group": "control_change"}, {"time": 2482, "annotation": {"number": 64, "value": 0}, "group": "control_change"}, {"time": 2485, "annotation": {"number": 64, "value": 127}, "group": "control_change"}, {"time": 2529, "annotation": {"number": 64, "value": 0}, "group": "control_change"}, {"time": 2531, "annotation": {"number": 64, "value": 127}, "group": "control_change"}, {"time": 2577, "annotation": {"number": 64, "value": 0}, "group": "control_change"}, {"time": 2626, "annotation": {"number": 64, "value": 0}, "group": "control_change"}, {"time": 2627, "annotation": {"number": 64, "value": 127}, "group": "control_change"}, {"time": 2674, "annotation": {"number": 64, "value": 0}, "group": "control_change"}, {"time": 2675, "annotation": {"number": 64, "value": 127}, "group": "control_change"}, {"time": 2676, "annotation": {"number": 64, "value": 127}, "group": "control_change"}, {"time": 2700, "annotation": {"number": 64, "value": 0}, "group": "control_change"}, {"time": 2701, "annotation": {"number": 64, "value": 127}, "group": "control_change"}, {"time": 2723, "annotation": {"number": 64, "value": 0}, "group": "control_change"}, {"time": 2725, "annotation": {"number": 64, "value": 127}, "group": "control_change"}, {"time": 2770, "annotation": {"number": 64, "value": 0}, "group": "control_change"}, {"time": 2772, "annotation": {"number": 64, "value": 127}, "group": "control_change"}, {"time": 2819, "annotation": {"number": 64, "value": 0}, "group": "control_change"}, {"time": 2821, "annotation": {"number": 64, "value": 127}, "group": "control_change"}, {"time": 2844, "annotation": {"number": 64, "value": 0}, "group": "control_change"}, {"time": 2845, "annotation": {"number": 64, "value": 127}, "group": "control_change"}, {"time": 2865, "annotation": {"number": 64, "value": 0}, "group": "control_change"}, {"time": 2867, "annotation": {"number": 64, "value": 127}, "group": "control_change"}, {"time": 2868, "annotation": {"number": 64, "value": 127}, "group": "control_change"}, {"time": 2868, "annotation": {"number": 64, "value": 0}, "group": "control_change"}, {"time": 2890, "annotation": {"number": 64, "value": 0}, "group": "control_change"}, {"time": 2892, "annotation": {"number": 64, "value": 127}, "group": "control_change"}, {"time": 2913, "annotation": {"number": 64, "value": 0}, "group": "control_change"}, {"time": 2915, "annotation": {"number": 64, "value": 127}, "group": "control_change"}, {"time": 2962, "annotation": {"number": 64, "value": 0}, "group": "control_change"}, {"time": 2965, "annotation": {"number": 64, "value": 127}, "group": "control_change"}, {"time": 2965, "annotation": {"number": 64, "value": 0}, "group": "control_change"}, {"time": 2987, "annotation": {"number": 64, "value": 0}, "group": "control_change"}, {"time": 2988, "annotation": {"number": 64, "value": 127}, "group": "control_change"}, {"time": 3011, "annotation": {"number": 64, "value": 0}, "group": "control_change"}, {"time": 3012, "annotation": {"number": 64, "value": 127}, "group": "control_change"}, {"time": 3035, "annotation": {"number": 64, "value": 0}, "group": "control_change"}, {"time": 3036, "annotation": {"number": 64, "value": 127}, "group": "control_change"}, {"time": 3059, "annotation": {"number": 64, "value": 0}, "group": "control_change"}, {"time": 3060, "annotation": {"number": 64, "value": 127}, "group": "control_change"}, {"time": 3108, "annotation": {"number": 64, "value": 0}, "group": "control_change"}, {"time": 3108, "annotation": {"number": 64, "value": 127}, "group": "control_change"}, {"time": 3156, "annotation": {"number": 64, "value": 0}, "group": "control_change"}, {"time": 3156, "annotation": {"number": 64, "value": 127}, "group": "control_change"}, {"time": 3178, "annotation": {"number": 64, "value": 0}, "group": "control_change"}, {"time": 3179, "annotation": {"number": 64, "value": 127}, "group": "control_change"}, {"time": 3203, "annotation": {"number": 64, "value": 0}, "group": "control_change"}, {"time": 3203, "annotation": {"number": 64, "value": 127}, "group": "control_change"}, {"time": 3226, "annotation": {"number": 64, "value": 0}, "group": "control_change"}, {"time": 3227, "annotation": {"number": 64, "value": 127}, "group": "control_change"}, {"time": 3251, "annotation": {"number": 64, "value": 0}, "group": "control_change"}, {"time": 3252, "annotation": {"number": 64, "value": 127}, "group": "control_change"}, {"time": 3275, "annotation": {"number": 64, "value": 0}, "group": "control_change"}, {"time": 3276, "annotation": {"number": 64, "value": 127}, "group": "control_change"}, {"time": 3298, "annotation": {"number": 64, "value": 0}, "group": "control_change"}, {"time": 3299, "annotation": {"number": 64, "value": 127}, "group": "control_change"}, {"time": 3347, "annotation": {"number": 64, "value": 0}, "group": "control_change"}, {"time": 3349, "annotation": {"number": 64, "value": 127}, "group": "control_change"}, {"time": 3349, "annotation": {"number": 64, "value": 0}, "group": "control_change"}, {"time": 3371, "annotation": {"number": 64, "value": 0}, "group": "control_change"}, {"time": 3372, "annotation": {"number": 64, "value": 127}, "group": "control_change"}, {"time": 3395, "annotation": {"number": 64, "value": 0}, "group": "control_change"}, {"time": 3396, "annotation": {"number": 64, "value": 127}, "group": "control_change"}, {"time": 3419, "annotation": {"number": 64, "value": 0}, "group": "control_change"}, {"time": 3420, "annotation": {"number": 64, "value": 127}, "group": "control_change"}, {"time": 3443, "annotation": {"number": 64, "value": 0}, "group": "control_change"}, {"time": 3444, "annotation": {"number": 64, "value": 127}, "group": "control_change"}, {"time": 3492, "annotation": {"number": 64, "value": 0}, "group": "control_change"}, {"time": 3492, "annotation": {"number": 64, "value": 127}, "group": "control_change"}, {"time": 3540, "annotation": {"number": 64, "value": 0}, "group": "control_change"}, {"time": 3540, "annotation": {"number": 64, "value": 127}, "group": "control_change"}, {"time": 3562, "annotation": {"number": 64, "value": 0}, "group": "control_change"}, {"time": 3563, "annotation": {"number": 64, "value": 127}, "group": "control_change"}, {"time": 3587, "annotation": {"number": 64, "value": 0}, "group": "control_change"}, {"time": 3587, "annotation": {"number": 64, "value": 127}, "group": "control_change"}, {"time": 3610, "annotation": {"number": 64, "value": 0}, "group": "control_change"}, {"time": 3611, "annotation": {"number": 64, "value": 127}, "group": "control_change"}, {"time": 3635, "annotation": {"number": 64, "value": 0}, "group": "control_change"}, {"time": 3636, "annotation": {"number": 64, "value": 127}, "group": "control_change"}, {"time": 3655, "annotation": {"number": 64, "value": 127}, "group": "control_change"}, {"time": 3658, "annotation": {"number": 64, "value": 0}, "group": "control_change"}, {"time": 3659, "annotation": {"number": 64, "value": 0}, "group": "control_change"}, {"time": 3660, "annotation": {"number": 64, "value": 127}, "group": "control_change"}, {"time": 3683, "annotation": {"number": 64, "value": 0}, "group": "control_change"}, {"time": 3684, "annotation": {"number": 64, "value": 127}, "group": "control_change"}, {"time": 3730, "annotation": {"number": 64, "value": 0}, "group": "control_change"}, {"time": 3777, "annotation": {"number": 64, "value": 0}, "group": "control_change"}, {"time": 3779, "annotation": {"number": 64, "value": 127}, "group": "control_change"}, {"time": 3804, "annotation": {"number": 64, "value": 0}, "group": "control_change"}, {"time": 3805, "annotation": {"number": 64, "value": 127}, "group": "control_change"}, {"time": 3826, "annotation": {"number": 64, "value": 0}, "group": "control_change"}, {"time": 3827, "annotation": {"number": 64, "value": 127}, "group": "control_change"}, {"time": 3828, "annotation": {"number": 64, "value": 127}, "group": "control_change"}, {"time": 3872, "annotation": {"number": 64, "value": 0}, "group": "control_change"}, {"time": 3876, "annotation": {"number": 64, "value": 127}, "group": "control_change"}, {"time": 3898, "annotation": {"number": 64, "value": 0}, "group": "control_change"}, {"time": 3899, "annotation": {"number": 64, "value": 127}, "group": "control_change"}, {"time": 3922, "annotation": {"number": 64, "value": 0}, "group": "control_change"}, {"time": 3923, "annotation": {"number": 64, "value": 127}, "group": "control_change"}, {"time": 3969, "annotation": {"number": 64, "value": 0}, "group": "control_change"}, {"time": 3973, "annotation": {"number": 64, "value": 127}, "group": "control_change"}, {"time": 3973, "annotation": {"number": 64, "value": 0}, "group": "control_change"}, {"time": 3995, "annotation": {"number": 64, "value": 0}, "group": "control_change"}, {"time": 3996, "annotation": {"number": 64, "value": 127}, "group": "control_change"}, {"time": 4019, "annotation": {"number": 64, "value": 0}, "group": "control_change"}, {"time": 4020, "annotation": {"number": 64, "value": 127}, "group": "control_change"}, {"time": 4043, "annotation": {"number": 64, "value": 0}, "group": "control_change"}, {"time": 4044, "annotation": {"number": 64, "value": 127}, "group": "control_change"}, {"time": 4067, "annotation": {"number": 64, "value": 0}, "group": "control_change"}, {"time": 4068, "annotation": {"number": 64, "value": 127}, "group": "control_change"}, {"time": 4116, "annotation": {"number": 64, "value": 0}, "group": "control_change"}, {"time": 4116, "annotation": {"number": 64, "value": 127}, "group": "control_change"}, {"time": 4164, "annotation": {"number": 64, "value": 0}, "group": "control_change"}, {"time": 4164, "annotation": {"number": 64, "value": 127}, "group": "control_change"}, {"time": 4186, "annotation": {"number": 64, "value": 0}, "group": "control_change"}, {"time": 4187, "annotation": {"number": 64, "value": 127}, "group": "control_change"}, {"time": 4211, "annotation": {"number": 64, "value": 0}, "group": "control_change"}, {"time": 4211, "annotation": {"number": 64, "value": 127}, "group": "control_change"}, {"time": 4234, "annotation": {"number": 64, "value": 0}, "group": "control_change"}, {"time": 4235, "annotation": {"number": 64, "value": 127}, "group": "control_change"}, {"time": 4259, "annotation": {"number": 64, "value": 0}, "group": "control_change"}, {"time": 4260, "annotation": {"number": 64, "value": 127}, "group": "control_change"}, {"time": 4283, "annotation": {"number": 64, "value": 0}, "group": "control_change"}, {"time": 4283, "annotation": {"number": 64, "value": 127}, "group": "control_change"}, {"time": 4307, "annotation": {"number": 64, "value": 0}, "group": "control_change"}, {"time": 4309, "annotation": {"number": 64, "value": 127}, "group": "control_change"}, {"time": 4356, "annotation": {"number": 64, "value": 0}, "group": "control_change"}, {"time": 4359, "annotation": {"number": 64, "value": 127}, "group": "control_change"}, {"time": 4359, "annotation": {"number": 64, "value": 0}, "group": "control_change"}, {"time": 4392, "annotation": {"number": 64, "value": 0}, "group": "control_change"}, {"time": 4393, "annotation": {"number": 64, "value": 127}, "group": "control_change"}, {"time": 4456, "annotation": {"number": 64, "value": 0}, "group": "control_change"}, {"time": 4464, "annotation": {"number": 64, "value": 127}, "group": "control_change"}, {"time": 4486, "annotation": {"number": 64, "value": 0}, "group": "control_change"}, {"time": 4488, "annotation": {"number": 64, "value": 127}, "group": "control_change"}, {"time": 4512, "annotation": {"number": 64, "value": 0}, "group": "control_change"}, {"time": 4515, "annotation": {"number": 64, "value": 127}, "group": "control_change"}, {"time": 4535, "annotation": {"number": 64, "value": 0}, "group": "control_change"}, {"time": 4537, "annotation": {"number": 64, "value": 127}, "group": "control_change"}]}]}