{"metadata": {"schema_version": "0.2", "title": "None", "source_filename": "784.mid", "source_format": "midi"}, "resolution": 12, "tempos": [{"time": 0, "qpm": 62.00005993339127}], "time_signatures": [{"time": 0, "numerator": 1, "denominator": 4}], "tracks": [{"program": 0, "is_drum": false, "name": "MELODY", "notes": [{"time": 284, "pitch": 68, "duration": 2, "velocity": 86}, {"time": 287, "pitch": 71, "duration": 1, "velocity": 85}, {"time": 290, "pitch": 73, "duration": 1, "velocity": 87}, {"time": 293, "pitch": 76, "duration": 1, "velocity": 82}, {"time": 296, "pitch": 76, "duration": 1, "velocity": 84}, {"time": 299, "pitch": 76, "duration": 1, "velocity": 84}, {"time": 302, "pitch": 76, "duration": 4, "velocity": 85}, {"time": 308, "pitch": 76, "duration": 1, "velocity": 83}, {"time": 311, "pitch": 76, "duration": 3, "velocity": 85}, {"time": 314, "pitch": 76, "duration": 9, "velocity": 85}, {"time": 323, "pitch": 76, "duration": 1, "velocity": 85}, {"time": 326, "pitch": 78, "duration": 2, "velocity": 78}, {"time": 329, "pitch": 76, "duration": 2, "velocity": 80}, {"time": 332, "pitch": 75, "duration": 2, "velocity": 86}, {"time": 335, "pitch": 73, "duration": 1, "velocity": 84}, {"time": 338, "pitch": 71, "duration": 2, "velocity": 85}, {"time": 341, "pitch": 73, "duration": 2, "velocity": 85}, {"time": 344, "pitch": 71, "duration": 12, "velocity": 85}, {"time": 359, "pitch": 68, "duration": 1, "velocity": 84}, {"time": 362, "pitch": 68, "duration": 14, "velocity": 85}, {"time": 380, "pitch": 68, "duration": 2, "velocity": 79}, {"time": 383, "pitch": 71, "duration": 1, "velocity": 80}, {"time": 386, "pitch": 73, "duration": 1, "velocity": 83}, {"time": 389, "pitch": 76, "duration": 1, "velocity": 85}, {"time": 392, "pitch": 76, "duration": 1, "velocity": 83}, {"time": 395, "pitch": 76, "duration": 1, "velocity": 84}, {"time": 398, "pitch": 76, "duration": 3, "velocity": 85}, {"time": 404, "pitch": 78, "duration": 2, "velocity": 85}, {"time": 407, "pitch": 76, "duration": 2, "velocity": 79}, {"time": 410, "pitch": 80, "duration": 8, "velocity": 84}, {"time": 419, "pitch": 80, "duration": 1, "velocity": 77}, {"time": 422, "pitch": 80, "duration": 2, "velocity": 85}, {"time": 425, "pitch": 78, "duration": 2, "velocity": 84}, {"time": 428, "pitch": 76, "duration": 2, "velocity": 84}, {"time": 431, "pitch": 75, "duration": 1, "velocity": 84}, {"time": 434, "pitch": 75, "duration": 2, "velocity": 84}, {"time": 437, "pitch": 76, "duration": 1, "velocity": 73}, {"time": 440, "pitch": 75, "duration": 15, "velocity": 84}, {"time": 455, "pitch": 73, "duration": 1, "velocity": 85}, {"time": 458, "pitch": 71, "duration": 11, "velocity": 82}, {"time": 476, "pitch": 71, "duration": 1, "velocity": 84}, {"time": 479, "pitch": 71, "duration": 2, "velocity": 85}, {"time": 482, "pitch": 73, "duration": 5, "velocity": 90}, {"time": 488, "pitch": 76, "duration": 2, "velocity": 79}, {"time": 491, "pitch": 76, "duration": 1, "velocity": 79}, {"time": 494, "pitch": 76, "duration": 4, "velocity": 84}, {"time": 500, "pitch": 78, "duration": 4, "velocity": 85}, {"time": 506, "pitch": 76, "duration": 8, "velocity": 80}, {"time": 515, "pitch": 76, "duration": 1, "velocity": 85}, {"time": 518, "pitch": 76, "duration": 2, "velocity": 85}, {"time": 521, "pitch": 75, "duration": 2, "velocity": 86}, {"time": 524, "pitch": 73, "duration": 2, "velocity": 85}, {"time": 527, "pitch": 71, "duration": 1, "velocity": 84}, {"time": 530, "pitch": 71, "duration": 2, "velocity": 84}, {"time": 533, "pitch": 73, "duration": 1, "velocity": 86}, {"time": 536, "pitch": 71, "duration": 9, "velocity": 84}, {"time": 548, "pitch": 66, "duration": 4, "velocity": 80}, {"time": 554, "pitch": 68, "duration": 8, "velocity": 78}, {"time": 572, "pitch": 78, "duration": 2, "velocity": 85}, {"time": 575, "pitch": 80, "duration": 1, "velocity": 84}, {"time": 578, "pitch": 78, "duration": 2, "velocity": 84}, {"time": 581, "pitch": 76, "duration": 1, "velocity": 82}, {"time": 584, "pitch": 78, "duration": 2, "velocity": 85}, {"time": 587, "pitch": 76, "duration": 1, "velocity": 80}, {"time": 590, "pitch": 78, "duration": 4, "velocity": 84}, {"time": 596, "pitch": 78, "duration": 2, "velocity": 85}, {"time": 599, "pitch": 76, "duration": 1, "velocity": 84}, {"time": 602, "pitch": 78, "duration": 6, "velocity": 86}, {"time": 611, "pitch": 73, "duration": 1, "velocity": 88}, {"time": 614, "pitch": 73, "duration": 1, "velocity": 86}, {"time": 617, "pitch": 73, "duration": 1, "velocity": 88}, {"time": 620, "pitch": 73, "duration": 1, "velocity": 89}, {"time": 623, "pitch": 73, "duration": 2, "velocity": 88}, {"time": 626, "pitch": 80, "duration": 7, "velocity": 84}, {"time": 635, "pitch": 78, "duration": 27, "velocity": 80}, {"time": 668, "pitch": 68, "duration": 2, "velocity": 86}, {"time": 671, "pitch": 71, "duration": 1, "velocity": 85}, {"time": 674, "pitch": 73, "duration": 1, "velocity": 87}, {"time": 677, "pitch": 76, "duration": 1, "velocity": 82}, {"time": 680, "pitch": 76, "duration": 1, "velocity": 84}, {"time": 683, "pitch": 76, "duration": 1, "velocity": 84}, {"time": 686, "pitch": 76, "duration": 4, "velocity": 85}, {"time": 692, "pitch": 76, "duration": 1, "velocity": 83}, {"time": 695, "pitch": 76, "duration": 3, "velocity": 85}, {"time": 698, "pitch": 76, "duration": 9, "velocity": 85}, {"time": 707, "pitch": 76, "duration": 1, "velocity": 85}, {"time": 710, "pitch": 78, "duration": 2, "velocity": 78}, {"time": 713, "pitch": 76, "duration": 2, "velocity": 80}, {"time": 716, "pitch": 75, "duration": 2, "velocity": 86}, {"time": 719, "pitch": 73, "duration": 1, "velocity": 84}, {"time": 722, "pitch": 71, "duration": 2, "velocity": 85}, {"time": 725, "pitch": 73, "duration": 2, "velocity": 85}, {"time": 728, "pitch": 71, "duration": 12, "velocity": 85}, {"time": 743, "pitch": 68, "duration": 1, "velocity": 84}, {"time": 746, "pitch": 68, "duration": 14, "velocity": 85}, {"time": 764, "pitch": 68, "duration": 2, "velocity": 79}, {"time": 767, "pitch": 71, "duration": 1, "velocity": 80}, {"time": 770, "pitch": 73, "duration": 1, "velocity": 83}, {"time": 773, "pitch": 76, "duration": 1, "velocity": 85}, {"time": 776, "pitch": 76, "duration": 1, "velocity": 83}, {"time": 779, "pitch": 76, "duration": 1, "velocity": 84}, {"time": 782, "pitch": 76, "duration": 3, "velocity": 85}, {"time": 788, "pitch": 78, "duration": 2, "velocity": 85}, {"time": 791, "pitch": 76, "duration": 2, "velocity": 79}, {"time": 794, "pitch": 80, "duration": 8, "velocity": 84}, {"time": 803, "pitch": 80, "duration": 1, "velocity": 77}, {"time": 806, "pitch": 80, "duration": 2, "velocity": 85}, {"time": 809, "pitch": 78, "duration": 2, "velocity": 84}, {"time": 812, "pitch": 76, "duration": 2, "velocity": 84}, {"time": 815, "pitch": 75, "duration": 1, "velocity": 84}, {"time": 818, "pitch": 75, "duration": 2, "velocity": 84}, {"time": 821, "pitch": 76, "duration": 1, "velocity": 73}, {"time": 824, "pitch": 75, "duration": 15, "velocity": 84}, {"time": 839, "pitch": 73, "duration": 1, "velocity": 85}, {"time": 842, "pitch": 71, "duration": 11, "velocity": 82}, {"time": 860, "pitch": 71, "duration": 1, "velocity": 84}, {"time": 863, "pitch": 71, "duration": 2, "velocity": 85}, {"time": 866, "pitch": 73, "duration": 5, "velocity": 90}, {"time": 872, "pitch": 76, "duration": 2, "velocity": 79}, {"time": 875, "pitch": 76, "duration": 1, "velocity": 79}, {"time": 878, "pitch": 76, "duration": 4, "velocity": 84}, {"time": 884, "pitch": 78, "duration": 4, "velocity": 85}, {"time": 890, "pitch": 76, "duration": 8, "velocity": 80}, {"time": 899, "pitch": 76, "duration": 1, "velocity": 85}, {"time": 902, "pitch": 76, "duration": 2, "velocity": 85}, {"time": 905, "pitch": 75, "duration": 2, "velocity": 86}, {"time": 908, "pitch": 73, "duration": 2, "velocity": 85}, {"time": 911, "pitch": 71, "duration": 1, "velocity": 84}, {"time": 914, "pitch": 71, "duration": 2, "velocity": 84}, {"time": 917, "pitch": 73, "duration": 1, "velocity": 86}, {"time": 920, "pitch": 71, "duration": 9, "velocity": 84}, {"time": 935, "pitch": 80, "duration": 3, "velocity": 80}, {"time": 938, "pitch": 80, "duration": 8, "velocity": 78}, {"time": 956, "pitch": 78, "duration": 2, "velocity": 85}, {"time": 959, "pitch": 80, "duration": 1, "velocity": 84}, {"time": 962, "pitch": 78, "duration": 2, "velocity": 84}, {"time": 965, "pitch": 76, "duration": 1, "velocity": 82}, {"time": 968, "pitch": 78, "duration": 2, "velocity": 85}, {"time": 971, "pitch": 76, "duration": 1, "velocity": 80}, {"time": 974, "pitch": 78, "duration": 4, "velocity": 84}, {"time": 980, "pitch": 78, "duration": 2, "velocity": 85}, {"time": 983, "pitch": 76, "duration": 1, "velocity": 84}, {"time": 986, "pitch": 78, "duration": 6, "velocity": 86}, {"time": 995, "pitch": 73, "duration": 1, "velocity": 88}, {"time": 998, "pitch": 73, "duration": 1, "velocity": 86}, {"time": 1001, "pitch": 80, "duration": 6, "velocity": 88}, {"time": 1010, "pitch": 78, "duration": 36, "velocity": 84}, {"time": 1100, "pitch": 71, "duration": 3, "velocity": 86}, {"time": 1103, "pitch": 73, "duration": 1, "velocity": 93}, {"time": 1106, "pitch": 85, "duration": 2, "velocity": 86}, {"time": 1109, "pitch": 83, "duration": 1, "velocity": 79}, {"time": 1112, "pitch": 83, "duration": 1, "velocity": 87}, {"time": 1115, "pitch": 83, "duration": 1, "velocity": 84}, {"time": 1118, "pitch": 83, "duration": 1, "velocity": 90}, {"time": 1121, "pitch": 80, "duration": 1, "velocity": 76}, {"time": 1124, "pitch": 80, "duration": 1, "velocity": 79}, {"time": 1127, "pitch": 80, "duration": 1, "velocity": 79}, {"time": 1130, "pitch": 80, "duration": 2, "velocity": 85}, {"time": 1133, "pitch": 78, "duration": 1, "velocity": 73}, {"time": 1136, "pitch": 78, "duration": 1, "velocity": 75}, {"time": 1139, "pitch": 78, "duration": 1, "velocity": 79}, {"time": 1142, "pitch": 78, "duration": 2, "velocity": 86}, {"time": 1145, "pitch": 76, "duration": 1, "velocity": 79}, {"time": 1148, "pitch": 76, "duration": 1, "velocity": 75}, {"time": 1151, "pitch": 76, "duration": 1, "velocity": 77}, {"time": 1154, "pitch": 73, "duration": 9, "velocity": 84}, {"time": 1163, "pitch": 71, "duration": 16, "velocity": 85}, {"time": 1196, "pitch": 71, "duration": 3, "velocity": 86}, {"time": 1199, "pitch": 73, "duration": 1, "velocity": 91}, {"time": 1202, "pitch": 85, "duration": 2, "velocity": 84}, {"time": 1205, "pitch": 83, "duration": 1, "velocity": 84}, {"time": 1208, "pitch": 83, "duration": 1, "velocity": 85}, {"time": 1211, "pitch": 83, "duration": 1, "velocity": 86}, {"time": 1214, "pitch": 83, "duration": 2, "velocity": 88}, {"time": 1217, "pitch": 80, "duration": 1, "velocity": 82}, {"time": 1220, "pitch": 80, "duration": 1, "velocity": 80}, {"time": 1223, "pitch": 80, "duration": 1, "velocity": 78}, {"time": 1226, "pitch": 80, "duration": 2, "velocity": 85}, {"time": 1229, "pitch": 78, "duration": 1, "velocity": 79}, {"time": 1232, "pitch": 78, "duration": 1, "velocity": 77}, {"time": 1235, "pitch": 78, "duration": 1, "velocity": 77}, {"time": 1238, "pitch": 78, "duration": 2, "velocity": 80}, {"time": 1241, "pitch": 76, "duration": 1, "velocity": 69}, {"time": 1244, "pitch": 76, "duration": 1, "velocity": 76}, {"time": 1247, "pitch": 80, "duration": 12, "velocity": 78}, {"time": 1259, "pitch": 78, "duration": 18, "velocity": 84}, {"time": 1289, "pitch": 78, "duration": 2, "velocity": 85}, {"time": 1292, "pitch": 80, "duration": 2, "velocity": 86}, {"time": 1295, "pitch": 78, "duration": 1, "velocity": 86}, {"time": 1298, "pitch": 78, "duration": 2, "velocity": 85}, {"time": 1301, "pitch": 76, "duration": 1, "velocity": 79}, {"time": 1304, "pitch": 76, "duration": 1, "velocity": 79}, {"time": 1307, "pitch": 76, "duration": 1, "velocity": 79}, {"time": 1310, "pitch": 76, "duration": 5, "velocity": 84}, {"time": 1316, "pitch": 73, "duration": 2, "velocity": 88}, {"time": 1319, "pitch": 76, "duration": 11, "velocity": 82}, {"time": 1334, "pitch": 73, "duration": 5, "velocity": 95}, {"time": 1340, "pitch": 85, "duration": 4, "velocity": 88}, {"time": 1346, "pitch": 85, "duration": 2, "velocity": 86}, {"time": 1349, "pitch": 83, "duration": 4, "velocity": 85}, {"time": 1355, "pitch": 83, "duration": 1, "velocity": 84}, {"time": 1358, "pitch": 80, "duration": 2, "velocity": 77}, {"time": 1361, "pitch": 80, "duration": 1, "velocity": 84}, {"time": 1364, "pitch": 80, "duration": 1, "velocity": 80}, {"time": 1367, "pitch": 80, "duration": 15, "velocity": 85}, {"time": 1388, "pitch": 80, "duration": 1, "velocity": 85}, {"time": 1391, "pitch": 80, "duration": 1, "velocity": 85}, {"time": 1394, "pitch": 80, "duration": 2, "velocity": 83}, {"time": 1397, "pitch": 78, "duration": 1, "velocity": 80}, {"time": 1400, "pitch": 78, "duration": 1, "velocity": 80}, {"time": 1403, "pitch": 78, "duration": 1, "velocity": 80}, {"time": 1406, "pitch": 78, "duration": 2, "velocity": 85}, {"time": 1409, "pitch": 76, "duration": 1, "velocity": 79}, {"time": 1412, "pitch": 76, "duration": 1, "velocity": 80}, {"time": 1415, "pitch": 76, "duration": 1, "velocity": 82}, {"time": 1418, "pitch": 76, "duration": 5, "velocity": 82}, {"time": 1427, "pitch": 76, "duration": 1, "velocity": 80}, {"time": 1430, "pitch": 76, "duration": 4, "velocity": 85}, {"time": 1436, "pitch": 73, "duration": 1, "velocity": 90}, {"time": 1439, "pitch": 76, "duration": 2, "velocity": 84}, {"time": 1442, "pitch": 80, "duration": 7, "velocity": 84}, {"time": 1451, "pitch": 78, "duration": 18, "velocity": 80}, {"time": 1484, "pitch": 71, "duration": 3, "velocity": 86}, {"time": 1487, "pitch": 73, "duration": 1, "velocity": 93}, {"time": 1490, "pitch": 85, "duration": 2, "velocity": 86}, {"time": 1493, "pitch": 83, "duration": 1, "velocity": 79}, {"time": 1496, "pitch": 83, "duration": 1, "velocity": 87}, {"time": 1499, "pitch": 83, "duration": 1, "velocity": 84}, {"time": 1502, "pitch": 83, "duration": 1, "velocity": 90}, {"time": 1505, "pitch": 80, "duration": 1, "velocity": 76}, {"time": 1508, "pitch": 80, "duration": 1, "velocity": 79}, {"time": 1511, "pitch": 80, "duration": 1, "velocity": 79}, {"time": 1514, "pitch": 80, "duration": 2, "velocity": 85}, {"time": 1517, "pitch": 78, "duration": 1, "velocity": 73}, {"time": 1520, "pitch": 78, "duration": 1, "velocity": 75}, {"time": 1523, "pitch": 78, "duration": 1, "velocity": 79}, {"time": 1526, "pitch": 78, "duration": 2, "velocity": 86}, {"time": 1529, "pitch": 76, "duration": 1, "velocity": 79}, {"time": 1532, "pitch": 76, "duration": 1, "velocity": 75}, {"time": 1535, "pitch": 76, "duration": 1, "velocity": 77}, {"time": 1538, "pitch": 73, "duration": 9, "velocity": 84}, {"time": 1547, "pitch": 71, "duration": 16, "velocity": 85}, {"time": 1580, "pitch": 71, "duration": 3, "velocity": 86}, {"time": 1583, "pitch": 73, "duration": 1, "velocity": 91}, {"time": 1586, "pitch": 85, "duration": 2, "velocity": 84}, {"time": 1589, "pitch": 83, "duration": 1, "velocity": 84}, {"time": 1592, "pitch": 83, "duration": 1, "velocity": 85}, {"time": 1595, "pitch": 83, "duration": 1, "velocity": 86}, {"time": 1598, "pitch": 83, "duration": 2, "velocity": 88}, {"time": 1601, "pitch": 80, "duration": 1, "velocity": 82}, {"time": 1604, "pitch": 80, "duration": 1, "velocity": 80}, {"time": 1607, "pitch": 80, "duration": 1, "velocity": 78}, {"time": 1610, "pitch": 80, "duration": 2, "velocity": 85}, {"time": 1613, "pitch": 78, "duration": 1, "velocity": 79}, {"time": 1616, "pitch": 78, "duration": 1, "velocity": 77}, {"time": 1619, "pitch": 78, "duration": 1, "velocity": 77}, {"time": 1622, "pitch": 78, "duration": 2, "velocity": 80}, {"time": 1625, "pitch": 76, "duration": 1, "velocity": 69}, {"time": 1628, "pitch": 76, "duration": 1, "velocity": 76}, {"time": 1631, "pitch": 80, "duration": 12, "velocity": 78}, {"time": 1643, "pitch": 78, "duration": 18, "velocity": 84}, {"time": 1673, "pitch": 78, "duration": 2, "velocity": 85}, {"time": 1676, "pitch": 80, "duration": 2, "velocity": 86}, {"time": 1679, "pitch": 78, "duration": 1, "velocity": 86}, {"time": 1682, "pitch": 78, "duration": 2, "velocity": 85}, {"time": 1685, "pitch": 76, "duration": 1, "velocity": 79}, {"time": 1688, "pitch": 76, "duration": 1, "velocity": 79}, {"time": 1691, "pitch": 76, "duration": 1, "velocity": 79}, {"time": 1694, "pitch": 76, "duration": 5, "velocity": 84}, {"time": 1700, "pitch": 73, "duration": 2, "velocity": 88}, {"time": 1703, "pitch": 76, "duration": 11, "velocity": 82}, {"time": 1718, "pitch": 73, "duration": 5, "velocity": 95}, {"time": 1724, "pitch": 85, "duration": 4, "velocity": 88}, {"time": 1730, "pitch": 85, "duration": 2, "velocity": 86}, {"time": 1733, "pitch": 83, "duration": 4, "velocity": 85}, {"time": 1739, "pitch": 83, "duration": 1, "velocity": 84}, {"time": 1742, "pitch": 80, "duration": 2, "velocity": 77}, {"time": 1745, "pitch": 80, "duration": 1, "velocity": 84}, {"time": 1748, "pitch": 80, "duration": 1, "velocity": 80}, {"time": 1751, "pitch": 80, "duration": 15, "velocity": 85}, {"time": 1772, "pitch": 71, "duration": 6, "velocity": 85}, {"time": 1775, "pitch": 80, "duration": 6, "velocity": 85}, {"time": 1784, "pitch": 78, "duration": 6, "velocity": 80}, {"time": 1796, "pitch": 76, "duration": 2, "velocity": 80}, {"time": 1799, "pitch": 73, "duration": 3, "velocity": 82}, {"time": 1802, "pitch": 80, "duration": 5, "velocity": 82}, {"time": 1808, "pitch": 78, "duration": 7, "velocity": 85}, {"time": 1817, "pitch": 76, "duration": 2, "velocity": 79}, {"time": 1820, "pitch": 76, "duration": 2, "velocity": 86}, {"time": 1823, "pitch": 73, "duration": 2, "velocity": 84}, {"time": 1826, "pitch": 78, "duration": 8, "velocity": 84}, {"time": 1835, "pitch": 76, "duration": 38, "velocity": 84}, {"time": 2252, "pitch": 68, "duration": 2, "velocity": 86}, {"time": 2255, "pitch": 71, "duration": 1, "velocity": 85}, {"time": 2258, "pitch": 73, "duration": 1, "velocity": 87}, {"time": 2261, "pitch": 76, "duration": 1, "velocity": 82}, {"time": 2264, "pitch": 76, "duration": 1, "velocity": 84}, {"time": 2267, "pitch": 76, "duration": 1, "velocity": 84}, {"time": 2270, "pitch": 76, "duration": 4, "velocity": 85}, {"time": 2276, "pitch": 76, "duration": 1, "velocity": 83}, {"time": 2279, "pitch": 76, "duration": 3, "velocity": 85}, {"time": 2282, "pitch": 76, "duration": 9, "velocity": 85}, {"time": 2291, "pitch": 76, "duration": 1, "velocity": 85}, {"time": 2294, "pitch": 78, "duration": 2, "velocity": 78}, {"time": 2297, "pitch": 76, "duration": 2, "velocity": 80}, {"time": 2300, "pitch": 75, "duration": 2, "velocity": 86}, {"time": 2303, "pitch": 73, "duration": 1, "velocity": 84}, {"time": 2306, "pitch": 71, "duration": 2, "velocity": 85}, {"time": 2309, "pitch": 73, "duration": 2, "velocity": 85}, {"time": 2312, "pitch": 71, "duration": 12, "velocity": 85}, {"time": 2327, "pitch": 68, "duration": 1, "velocity": 84}, {"time": 2330, "pitch": 68, "duration": 14, "velocity": 85}, {"time": 2348, "pitch": 68, "duration": 2, "velocity": 79}, {"time": 2351, "pitch": 71, "duration": 1, "velocity": 80}, {"time": 2354, "pitch": 73, "duration": 1, "velocity": 83}, {"time": 2357, "pitch": 76, "duration": 1, "velocity": 85}, {"time": 2360, "pitch": 76, "duration": 1, "velocity": 83}, {"time": 2363, "pitch": 76, "duration": 1, "velocity": 84}, {"time": 2366, "pitch": 76, "duration": 3, "velocity": 85}, {"time": 2372, "pitch": 78, "duration": 2, "velocity": 85}, {"time": 2375, "pitch": 76, "duration": 2, "velocity": 79}, {"time": 2378, "pitch": 80, "duration": 8, "velocity": 84}, {"time": 2387, "pitch": 80, "duration": 1, "velocity": 77}, {"time": 2390, "pitch": 80, "duration": 2, "velocity": 85}, {"time": 2393, "pitch": 78, "duration": 2, "velocity": 84}, {"time": 2396, "pitch": 76, "duration": 2, "velocity": 84}, {"time": 2399, "pitch": 75, "duration": 1, "velocity": 84}, {"time": 2402, "pitch": 75, "duration": 2, "velocity": 84}, {"time": 2405, "pitch": 76, "duration": 1, "velocity": 73}, {"time": 2408, "pitch": 75, "duration": 15, "velocity": 84}, {"time": 2423, "pitch": 73, "duration": 1, "velocity": 85}, {"time": 2426, "pitch": 71, "duration": 11, "velocity": 82}, {"time": 2444, "pitch": 71, "duration": 1, "velocity": 84}, {"time": 2447, "pitch": 71, "duration": 2, "velocity": 85}, {"time": 2450, "pitch": 73, "duration": 5, "velocity": 90}, {"time": 2456, "pitch": 76, "duration": 2, "velocity": 79}, {"time": 2459, "pitch": 76, "duration": 1, "velocity": 79}, {"time": 2462, "pitch": 76, "duration": 4, "velocity": 84}, {"time": 2468, "pitch": 78, "duration": 4, "velocity": 85}, {"time": 2474, "pitch": 76, "duration": 8, "velocity": 80}, {"time": 2483, "pitch": 76, "duration": 1, "velocity": 85}, {"time": 2486, "pitch": 76, "duration": 2, "velocity": 85}, {"time": 2489, "pitch": 75, "duration": 2, "velocity": 86}, {"time": 2492, "pitch": 73, "duration": 2, "velocity": 85}, {"time": 2495, "pitch": 71, "duration": 1, "velocity": 84}, {"time": 2498, "pitch": 71, "duration": 2, "velocity": 84}, {"time": 2501, "pitch": 73, "duration": 1, "velocity": 86}, {"time": 2504, "pitch": 71, "duration": 9, "velocity": 84}, {"time": 2519, "pitch": 80, "duration": 3, "velocity": 80}, {"time": 2522, "pitch": 80, "duration": 8, "velocity": 78}, {"time": 2540, "pitch": 78, "duration": 2, "velocity": 85}, {"time": 2543, "pitch": 80, "duration": 1, "velocity": 84}, {"time": 2546, "pitch": 78, "duration": 2, "velocity": 84}, {"time": 2549, "pitch": 76, "duration": 1, "velocity": 82}, {"time": 2552, "pitch": 78, "duration": 2, "velocity": 85}, {"time": 2555, "pitch": 76, "duration": 1, "velocity": 80}, {"time": 2558, "pitch": 78, "duration": 4, "velocity": 84}, {"time": 2564, "pitch": 78, "duration": 2, "velocity": 85}, {"time": 2567, "pitch": 76, "duration": 1, "velocity": 84}, {"time": 2570, "pitch": 78, "duration": 6, "velocity": 86}, {"time": 2579, "pitch": 73, "duration": 1, "velocity": 88}, {"time": 2582, "pitch": 73, "duration": 1, "velocity": 86}, {"time": 2585, "pitch": 80, "duration": 6, "velocity": 88}, {"time": 2594, "pitch": 78, "duration": 36, "velocity": 84}, {"time": 2684, "pitch": 71, "duration": 3, "velocity": 86}, {"time": 2687, "pitch": 73, "duration": 1, "velocity": 93}, {"time": 2690, "pitch": 85, "duration": 2, "velocity": 86}, {"time": 2693, "pitch": 83, "duration": 1, "velocity": 79}, {"time": 2696, "pitch": 83, "duration": 1, "velocity": 87}, {"time": 2699, "pitch": 83, "duration": 1, "velocity": 84}, {"time": 2702, "pitch": 83, "duration": 1, "velocity": 90}, {"time": 2705, "pitch": 80, "duration": 1, "velocity": 76}, {"time": 2708, "pitch": 80, "duration": 1, "velocity": 79}, {"time": 2711, "pitch": 80, "duration": 1, "velocity": 79}, {"time": 2714, "pitch": 80, "duration": 2, "velocity": 85}, {"time": 2717, "pitch": 78, "duration": 1, "velocity": 73}, {"time": 2720, "pitch": 78, "duration": 1, "velocity": 75}, {"time": 2723, "pitch": 78, "duration": 1, "velocity": 79}, {"time": 2726, "pitch": 78, "duration": 2, "velocity": 86}, {"time": 2729, "pitch": 76, "duration": 1, "velocity": 79}, {"time": 2732, "pitch": 76, "duration": 1, "velocity": 75}, {"time": 2735, "pitch": 76, "duration": 1, "velocity": 77}, {"time": 2738, "pitch": 73, "duration": 9, "velocity": 84}, {"time": 2747, "pitch": 71, "duration": 16, "velocity": 85}, {"time": 2780, "pitch": 71, "duration": 3, "velocity": 86}, {"time": 2783, "pitch": 73, "duration": 1, "velocity": 91}, {"time": 2786, "pitch": 85, "duration": 2, "velocity": 84}, {"time": 2789, "pitch": 83, "duration": 1, "velocity": 84}, {"time": 2792, "pitch": 83, "duration": 1, "velocity": 85}, {"time": 2795, "pitch": 83, "duration": 1, "velocity": 86}, {"time": 2798, "pitch": 83, "duration": 2, "velocity": 88}, {"time": 2801, "pitch": 80, "duration": 1, "velocity": 82}, {"time": 2804, "pitch": 80, "duration": 1, "velocity": 80}, {"time": 2807, "pitch": 80, "duration": 1, "velocity": 78}, {"time": 2810, "pitch": 80, "duration": 2, "velocity": 85}, {"time": 2813, "pitch": 78, "duration": 1, "velocity": 79}, {"time": 2816, "pitch": 78, "duration": 1, "velocity": 77}, {"time": 2819, "pitch": 78, "duration": 1, "velocity": 77}, {"time": 2822, "pitch": 78, "duration": 2, "velocity": 80}, {"time": 2825, "pitch": 76, "duration": 1, "velocity": 69}, {"time": 2828, "pitch": 76, "duration": 1, "velocity": 76}, {"time": 2831, "pitch": 80, "duration": 12, "velocity": 78}, {"time": 2843, "pitch": 78, "duration": 18, "velocity": 84}, {"time": 2873, "pitch": 78, "duration": 2, "velocity": 85}, {"time": 2876, "pitch": 80, "duration": 2, "velocity": 86}, {"time": 2879, "pitch": 78, "duration": 1, "velocity": 86}, {"time": 2882, "pitch": 78, "duration": 2, "velocity": 85}, {"time": 2885, "pitch": 76, "duration": 1, "velocity": 79}, {"time": 2888, "pitch": 76, "duration": 1, "velocity": 79}, {"time": 2891, "pitch": 76, "duration": 1, "velocity": 79}, {"time": 2894, "pitch": 76, "duration": 5, "velocity": 84}, {"time": 2900, "pitch": 73, "duration": 2, "velocity": 88}, {"time": 2903, "pitch": 76, "duration": 11, "velocity": 82}, {"time": 2918, "pitch": 73, "duration": 5, "velocity": 95}, {"time": 2924, "pitch": 85, "duration": 4, "velocity": 88}, {"time": 2930, "pitch": 85, "duration": 2, "velocity": 86}, {"time": 2933, "pitch": 83, "duration": 4, "velocity": 85}, {"time": 2939, "pitch": 83, "duration": 1, "velocity": 84}, {"time": 2942, "pitch": 80, "duration": 2, "velocity": 77}, {"time": 2945, "pitch": 80, "duration": 1, "velocity": 84}, {"time": 2948, "pitch": 80, "duration": 1, "velocity": 80}, {"time": 2951, "pitch": 80, "duration": 15, "velocity": 85}, {"time": 2972, "pitch": 80, "duration": 1, "velocity": 85}, {"time": 2975, "pitch": 80, "duration": 1, "velocity": 85}, {"time": 2978, "pitch": 80, "duration": 2, "velocity": 83}, {"time": 2981, "pitch": 78, "duration": 1, "velocity": 80}, {"time": 2984, "pitch": 78, "duration": 1, "velocity": 80}, {"time": 2987, "pitch": 78, "duration": 1, "velocity": 80}, {"time": 2990, "pitch": 78, "duration": 2, "velocity": 85}, {"time": 2993, "pitch": 76, "duration": 1, "velocity": 79}, {"time": 2996, "pitch": 76, "duration": 1, "velocity": 80}, {"time": 2999, "pitch": 76, "duration": 1, "velocity": 82}, {"time": 3002, "pitch": 76, "duration": 5, "velocity": 82}, {"time": 3011, "pitch": 76, "duration": 1, "velocity": 80}, {"time": 3014, "pitch": 76, "duration": 4, "velocity": 85}, {"time": 3020, "pitch": 73, "duration": 1, "velocity": 90}, {"time": 3023, "pitch": 76, "duration": 2, "velocity": 84}, {"time": 3026, "pitch": 80, "duration": 7, "velocity": 84}, {"time": 3035, "pitch": 78, "duration": 18, "velocity": 80}, {"time": 3068, "pitch": 71, "duration": 3, "velocity": 86}, {"time": 3071, "pitch": 73, "duration": 1, "velocity": 93}, {"time": 3074, "pitch": 85, "duration": 2, "velocity": 86}, {"time": 3077, "pitch": 83, "duration": 1, "velocity": 79}, {"time": 3080, "pitch": 83, "duration": 1, "velocity": 87}, {"time": 3083, "pitch": 83, "duration": 1, "velocity": 84}, {"time": 3086, "pitch": 83, "duration": 1, "velocity": 90}, {"time": 3089, "pitch": 80, "duration": 1, "velocity": 76}, {"time": 3092, "pitch": 80, "duration": 1, "velocity": 79}, {"time": 3095, "pitch": 80, "duration": 1, "velocity": 79}, {"time": 3098, "pitch": 80, "duration": 2, "velocity": 85}, {"time": 3101, "pitch": 78, "duration": 1, "velocity": 73}, {"time": 3104, "pitch": 78, "duration": 1, "velocity": 75}, {"time": 3107, "pitch": 78, "duration": 1, "velocity": 79}, {"time": 3110, "pitch": 78, "duration": 2, "velocity": 86}, {"time": 3113, "pitch": 76, "duration": 1, "velocity": 79}, {"time": 3116, "pitch": 76, "duration": 1, "velocity": 75}, {"time": 3119, "pitch": 76, "duration": 1, "velocity": 77}, {"time": 3122, "pitch": 73, "duration": 9, "velocity": 84}, {"time": 3131, "pitch": 71, "duration": 16, "velocity": 85}, {"time": 3164, "pitch": 71, "duration": 3, "velocity": 86}, {"time": 3167, "pitch": 73, "duration": 1, "velocity": 91}, {"time": 3170, "pitch": 85, "duration": 2, "velocity": 84}, {"time": 3173, "pitch": 83, "duration": 1, "velocity": 84}, {"time": 3176, "pitch": 83, "duration": 1, "velocity": 85}, {"time": 3179, "pitch": 83, "duration": 1, "velocity": 86}, {"time": 3182, "pitch": 83, "duration": 2, "velocity": 88}, {"time": 3185, "pitch": 80, "duration": 1, "velocity": 82}, {"time": 3188, "pitch": 80, "duration": 1, "velocity": 80}, {"time": 3191, "pitch": 80, "duration": 1, "velocity": 78}, {"time": 3194, "pitch": 80, "duration": 2, "velocity": 85}, {"time": 3197, "pitch": 78, "duration": 1, "velocity": 79}, {"time": 3200, "pitch": 78, "duration": 1, "velocity": 77}, {"time": 3203, "pitch": 78, "duration": 1, "velocity": 77}, {"time": 3206, "pitch": 78, "duration": 2, "velocity": 80}, {"time": 3209, "pitch": 76, "duration": 1, "velocity": 69}, {"time": 3212, "pitch": 76, "duration": 1, "velocity": 76}, {"time": 3215, "pitch": 80, "duration": 12, "velocity": 78}, {"time": 3227, "pitch": 78, "duration": 18, "velocity": 84}, {"time": 3257, "pitch": 78, "duration": 2, "velocity": 85}, {"time": 3260, "pitch": 80, "duration": 2, "velocity": 86}, {"time": 3263, "pitch": 78, "duration": 1, "velocity": 86}, {"time": 3266, "pitch": 78, "duration": 2, "velocity": 85}, {"time": 3269, "pitch": 76, "duration": 1, "velocity": 79}, {"time": 3272, "pitch": 76, "duration": 1, "velocity": 79}, {"time": 3275, "pitch": 76, "duration": 1, "velocity": 79}, {"time": 3278, "pitch": 76, "duration": 5, "velocity": 84}, {"time": 3284, "pitch": 73, "duration": 2, "velocity": 88}, {"time": 3287, "pitch": 76, "duration": 11, "velocity": 82}, {"time": 3302, "pitch": 73, "duration": 5, "velocity": 95}, {"time": 3308, "pitch": 85, "duration": 4, "velocity": 88}, {"time": 3314, "pitch": 85, "duration": 2, "velocity": 86}, {"time": 3317, "pitch": 83, "duration": 4, "velocity": 85}, {"time": 3323, "pitch": 83, "duration": 1, "velocity": 84}, {"time": 3326, "pitch": 80, "duration": 2, "velocity": 77}, {"time": 3329, "pitch": 80, "duration": 1, "velocity": 84}, {"time": 3332, "pitch": 80, "duration": 1, "velocity": 80}, {"time": 3335, "pitch": 80, "duration": 15, "velocity": 85}, {"time": 3356, "pitch": 71, "duration": 6, "velocity": 85}, {"time": 3359, "pitch": 80, "duration": 6, "velocity": 85}, {"time": 3368, "pitch": 78, "duration": 6, "velocity": 80}, {"time": 3380, "pitch": 76, "duration": 2, "velocity": 80}, {"time": 3383, "pitch": 73, "duration": 3, "velocity": 82}, {"time": 3386, "pitch": 80, "duration": 5, "velocity": 82}, {"time": 3392, "pitch": 78, "duration": 7, "velocity": 85}, {"time": 3401, "pitch": 76, "duration": 2, "velocity": 79}, {"time": 3404, "pitch": 76, "duration": 2, "velocity": 86}, {"time": 3407, "pitch": 73, "duration": 2, "velocity": 84}, {"time": 3410, "pitch": 78, "duration": 8, "velocity": 84}, {"time": 3419, "pitch": 76, "duration": 38, "velocity": 84}]}, {"program": 0, "is_drum": false, "name": "BRIDGE", "notes": [{"time": 2, "pitch": 71, "duration": 2, "velocity": 89}, {"time": 5, "pitch": 73, "duration": 3, "velocity": 85}, {"time": 8, "pitch": 71, "duration": 3, "velocity": 81}, {"time": 11, "pitch": 73, "duration": 3, "velocity": 86}, {"time": 14, "pitch": 76, "duration": 3, "velocity": 85}, {"time": 17, "pitch": 73, "duration": 3, "velocity": 88}, {"time": 20, "pitch": 71, "duration": 3, "velocity": 84}, {"time": 23, "pitch": 68, "duration": 4, "velocity": 82}, {"time": 26, "pitch": 71, "duration": 22, "velocity": 84}, {"time": 50, "pitch": 71, "duration": 3, "velocity": 71}, {"time": 50, "pitch": 76, "duration": 3, "velocity": 87}, {"time": 53, "pitch": 73, "duration": 3, "velocity": 83}, {"time": 53, "pitch": 78, "duration": 3, "velocity": 84}, {"time": 56, "pitch": 71, "duration": 4, "velocity": 77}, {"time": 56, "pitch": 76, "duration": 3, "velocity": 83}, {"time": 59, "pitch": 73, "duration": 3, "velocity": 84}, {"time": 59, "pitch": 78, "duration": 3, "velocity": 88}, {"time": 62, "pitch": 76, "duration": 3, "velocity": 80}, {"time": 62, "pitch": 80, "duration": 3, "velocity": 87}, {"time": 65, "pitch": 73, "duration": 3, "velocity": 84}, {"time": 65, "pitch": 78, "duration": 3, "velocity": 85}, {"time": 68, "pitch": 71, "duration": 3, "velocity": 80}, {"time": 68, "pitch": 76, "duration": 3, "velocity": 86}, {"time": 71, "pitch": 68, "duration": 3, "velocity": 73}, {"time": 71, "pitch": 73, "duration": 4, "velocity": 85}, {"time": 74, "pitch": 71, "duration": 22, "velocity": 73}, {"time": 74, "pitch": 76, "duration": 22, "velocity": 86}, {"time": 98, "pitch": 68, "duration": 2, "velocity": 86}, {"time": 98, "pitch": 80, "duration": 6, "velocity": 88}, {"time": 101, "pitch": 66, "duration": 4, "velocity": 77}, {"time": 104, "pitch": 68, "duration": 4, "velocity": 84}, {"time": 104, "pitch": 78, "duration": 6, "velocity": 86}, {"time": 107, "pitch": 73, "duration": 13, "velocity": 91}, {"time": 110, "pitch": 80, "duration": 10, "velocity": 88}, {"time": 122, "pitch": 68, "duration": 3, "velocity": 83}, {"time": 122, "pitch": 80, "duration": 6, "velocity": 86}, {"time": 125, "pitch": 66, "duration": 3, "velocity": 75}, {"time": 128, "pitch": 68, "duration": 3, "velocity": 84}, {"time": 128, "pitch": 78, "duration": 6, "velocity": 87}, {"time": 131, "pitch": 75, "duration": 13, "velocity": 85}, {"time": 134, "pitch": 80, "duration": 11, "velocity": 86}, {"time": 146, "pitch": 64, "duration": 23, "velocity": 73}, {"time": 146, "pitch": 80, "duration": 6, "velocity": 87}, {"time": 152, "pitch": 78, "duration": 6, "velocity": 83}, {"time": 158, "pitch": 80, "duration": 6, "velocity": 86}, {"time": 164, "pitch": 85, "duration": 6, "velocity": 85}, {"time": 170, "pitch": 83, "duration": 20, "velocity": 85}, {"time": 182, "pitch": 63, "duration": 10, "velocity": 82}, {"time": 194, "pitch": 64, "duration": 30, "velocity": 77}, {"time": 194, "pitch": 85, "duration": 6, "velocity": 84}, {"time": 194, "pitch": 88, "duration": 6, "velocity": 86}, {"time": 200, "pitch": 87, "duration": 3, "velocity": 85}, {"time": 203, "pitch": 85, "duration": 10, "velocity": 88}, {"time": 218, "pitch": 73, "duration": 6, "velocity": 86}, {"time": 218, "pitch": 76, "duration": 6, "velocity": 84}, {"time": 224, "pitch": 63, "duration": 3, "velocity": 80}, {"time": 224, "pitch": 75, "duration": 3, "velocity": 76}, {"time": 227, "pitch": 61, "duration": 14, "velocity": 73}, {"time": 227, "pitch": 73, "duration": 14, "velocity": 89}, {"time": 242, "pitch": 68, "duration": 7, "velocity": 78}, {"time": 242, "pitch": 85, "duration": 6, "velocity": 84}, {"time": 242, "pitch": 88, "duration": 6, "velocity": 86}, {"time": 248, "pitch": 66, "duration": 3, "velocity": 69}, {"time": 248, "pitch": 87, "duration": 3, "velocity": 85}, {"time": 251, "pitch": 64, "duration": 22, "velocity": 74}, {"time": 251, "pitch": 85, "duration": 10, "velocity": 88}, {"time": 266, "pitch": 73, "duration": 6, "velocity": 86}, {"time": 266, "pitch": 76, "duration": 6, "velocity": 84}, {"time": 272, "pitch": 63, "duration": 3, "velocity": 75}, {"time": 272, "pitch": 75, "duration": 3, "velocity": 76}, {"time": 275, "pitch": 61, "duration": 13, "velocity": 71}, {"time": 275, "pitch": 73, "duration": 14, "velocity": 89}, {"time": 365, "pitch": 68, "duration": 5, "velocity": 71}, {"time": 368, "pitch": 71, "duration": 6, "velocity": 78}, {"time": 371, "pitch": 78, "duration": 7, "velocity": 81}, {"time": 377, "pitch": 75, "duration": 4, "velocity": 81}, {"time": 380, "pitch": 71, "duration": 4, "velocity": 76}, {"time": 383, "pitch": 68, "duration": 3, "velocity": 73}, {"time": 386, "pitch": 73, "duration": 19, "velocity": 79}, {"time": 461, "pitch": 68, "duration": 3, "velocity": 76}, {"time": 464, "pitch": 71, "duration": 3, "velocity": 79}, {"time": 467, "pitch": 78, "duration": 6, "velocity": 80}, {"time": 473, "pitch": 75, "duration": 3, "velocity": 79}, {"time": 476, "pitch": 71, "duration": 3, "velocity": 76}, {"time": 479, "pitch": 68, "duration": 3, "velocity": 72}, {"time": 482, "pitch": 73, "duration": 25, "velocity": 84}, {"time": 518, "pitch": 76, "duration": 5, "velocity": 73}, {"time": 524, "pitch": 73, "duration": 4, "velocity": 77}, {"time": 530, "pitch": 71, "duration": 23, "velocity": 74}, {"time": 530, "pitch": 75, "duration": 32, "velocity": 79}, {"time": 560, "pitch": 71, "duration": 4, "velocity": 79}, {"time": 563, "pitch": 73, "duration": 3, "velocity": 84}, {"time": 566, "pitch": 75, "duration": 3, "velocity": 79}, {"time": 569, "pitch": 73, "duration": 3, "velocity": 84}, {"time": 572, "pitch": 71, "duration": 5, "velocity": 73}, {"time": 578, "pitch": 73, "duration": 24, "velocity": 84}, {"time": 626, "pitch": 66, "duration": 20, "velocity": 72}, {"time": 626, "pitch": 71, "duration": 21, "velocity": 77}, {"time": 647, "pitch": 73, "duration": 4, "velocity": 79}, {"time": 650, "pitch": 75, "duration": 10, "velocity": 84}, {"time": 656, "pitch": 73, "duration": 7, "velocity": 82}, {"time": 662, "pitch": 71, "duration": 11, "velocity": 72}, {"time": 674, "pitch": 73, "duration": 21, "velocity": 84}, {"time": 707, "pitch": 73, "duration": 3, "velocity": 69}, {"time": 710, "pitch": 76, "duration": 6, "velocity": 78}, {"time": 716, "pitch": 73, "duration": 6, "velocity": 84}, {"time": 722, "pitch": 75, "duration": 23, "velocity": 80}, {"time": 749, "pitch": 68, "duration": 6, "velocity": 68}, {"time": 752, "pitch": 71, "duration": 3, "velocity": 79}, {"time": 755, "pitch": 78, "duration": 4, "velocity": 80}, {"time": 758, "pitch": 75, "duration": 5, "velocity": 76}, {"time": 761, "pitch": 71, "duration": 6, "velocity": 75}, {"time": 764, "pitch": 68, "duration": 6, "velocity": 72}, {"time": 770, "pitch": 73, "duration": 36, "velocity": 84}, {"time": 806, "pitch": 76, "duration": 6, "velocity": 77}, {"time": 812, "pitch": 73, "duration": 5, "velocity": 80}, {"time": 818, "pitch": 71, "duration": 24, "velocity": 75}, {"time": 818, "pitch": 75, "duration": 25, "velocity": 80}, {"time": 845, "pitch": 68, "duration": 4, "velocity": 68}, {"time": 848, "pitch": 71, "duration": 4, "velocity": 73}, {"time": 851, "pitch": 78, "duration": 6, "velocity": 79}, {"time": 857, "pitch": 75, "duration": 3, "velocity": 80}, {"time": 860, "pitch": 71, "duration": 4, "velocity": 74}, {"time": 863, "pitch": 68, "duration": 3, "velocity": 71}, {"time": 866, "pitch": 73, "duration": 31, "velocity": 85}, {"time": 902, "pitch": 69, "duration": 8, "velocity": 66}, {"time": 902, "pitch": 73, "duration": 11, "velocity": 80}, {"time": 914, "pitch": 71, "duration": 22, "velocity": 73}, {"time": 950, "pitch": 73, "duration": 11, "velocity": 84}, {"time": 962, "pitch": 76, "duration": 11, "velocity": 72}, {"time": 974, "pitch": 73, "duration": 12, "velocity": 78}, {"time": 992, "pitch": 73, "duration": 6, "velocity": 80}, {"time": 998, "pitch": 78, "duration": 6, "velocity": 77}, {"time": 1004, "pitch": 76, "duration": 4, "velocity": 69}, {"time": 1010, "pitch": 71, "duration": 20, "velocity": 77}, {"time": 1010, "pitch": 75, "duration": 20, "velocity": 77}, {"time": 1034, "pitch": 73, "duration": 18, "velocity": 86}, {"time": 1052, "pitch": 71, "duration": 3, "velocity": 74}, {"time": 1055, "pitch": 73, "duration": 1, "velocity": 81}, {"time": 1058, "pitch": 71, "duration": 16, "velocity": 78}, {"time": 1058, "pitch": 75, "duration": 17, "velocity": 86}, {"time": 1076, "pitch": 73, "duration": 3, "velocity": 82}, {"time": 1079, "pitch": 75, "duration": 3, "velocity": 79}, {"time": 1082, "pitch": 76, "duration": 10, "velocity": 84}, {"time": 1094, "pitch": 75, "duration": 11, "velocity": 78}, {"time": 1094, "pitch": 78, "duration": 11, "velocity": 68}, {"time": 1106, "pitch": 76, "duration": 22, "velocity": 73}, {"time": 1106, "pitch": 80, "duration": 23, "velocity": 76}, {"time": 1130, "pitch": 80, "duration": 18, "velocity": 79}, {"time": 1148, "pitch": 78, "duration": 3, "velocity": 73}, {"time": 1151, "pitch": 76, "duration": 3, "velocity": 76}, {"time": 1154, "pitch": 80, "duration": 24, "velocity": 76}, {"time": 1178, "pitch": 83, "duration": 12, "velocity": 84}, {"time": 1190, "pitch": 80, "duration": 6, "velocity": 80}, {"time": 1196, "pitch": 78, "duration": 5, "velocity": 73}, {"time": 1202, "pitch": 76, "duration": 32, "velocity": 74}, {"time": 1202, "pitch": 80, "duration": 33, "velocity": 75}, {"time": 1238, "pitch": 80, "duration": 6, "velocity": 80}, {"time": 1244, "pitch": 78, "duration": 3, "velocity": 81}, {"time": 1247, "pitch": 76, "duration": 3, "velocity": 72}, {"time": 1250, "pitch": 78, "duration": 24, "velocity": 76}, {"time": 1274, "pitch": 71, "duration": 15, "velocity": 73}, {"time": 1274, "pitch": 75, "duration": 17, "velocity": 83}, {"time": 1292, "pitch": 71, "duration": 5, "velocity": 73}, {"time": 1298, "pitch": 76, "duration": 18, "velocity": 73}, {"time": 1316, "pitch": 73, "duration": 16, "velocity": 84}, {"time": 1322, "pitch": 76, "duration": 11, "velocity": 72}, {"time": 1334, "pitch": 73, "duration": 9, "velocity": 84}, {"time": 1346, "pitch": 71, "duration": 21, "velocity": 76}, {"time": 1346, "pitch": 75, "duration": 22, "velocity": 79}, {"time": 1370, "pitch": 71, "duration": 12, "velocity": 79}, {"time": 1382, "pitch": 68, "duration": 10, "velocity": 74}, {"time": 1394, "pitch": 73, "duration": 17, "velocity": 80}, {"time": 1394, "pitch": 78, "duration": 21, "velocity": 76}, {"time": 1418, "pitch": 85, "duration": 13, "velocity": 85}, {"time": 1430, "pitch": 83, "duration": 6, "velocity": 84}, {"time": 1436, "pitch": 80, "duration": 6, "velocity": 76}, {"time": 1442, "pitch": 83, "duration": 24, "velocity": 85}, {"time": 1466, "pitch": 78, "duration": 12, "velocity": 78}, {"time": 1478, "pitch": 80, "duration": 8, "velocity": 79}, {"time": 1490, "pitch": 83, "duration": 18, "velocity": 84}, {"time": 1508, "pitch": 80, "duration": 6, "velocity": 77}, {"time": 1514, "pitch": 83, "duration": 18, "velocity": 84}, {"time": 1532, "pitch": 78, "duration": 5, "velocity": 74}, {"time": 1538, "pitch": 83, "duration": 17, "velocity": 82}, {"time": 1556, "pitch": 85, "duration": 6, "velocity": 80}, {"time": 1562, "pitch": 83, "duration": 6, "velocity": 84}, {"time": 1568, "pitch": 80, "duration": 6, "velocity": 77}, {"time": 1574, "pitch": 78, "duration": 5, "velocity": 79}, {"time": 1580, "pitch": 80, "duration": 6, "velocity": 80}, {"time": 1586, "pitch": 85, "duration": 18, "velocity": 80}, {"time": 1604, "pitch": 83, "duration": 6, "velocity": 82}, {"time": 1610, "pitch": 80, "duration": 12, "velocity": 75}, {"time": 1622, "pitch": 78, "duration": 5, "velocity": 79}, {"time": 1628, "pitch": 76, "duration": 5, "velocity": 74}, {"time": 1634, "pitch": 75, "duration": 18, "velocity": 84}, {"time": 1652, "pitch": 73, "duration": 6, "velocity": 84}, {"time": 1658, "pitch": 75, "duration": 6, "velocity": 79}, {"time": 1664, "pitch": 73, "duration": 6, "velocity": 84}, {"time": 1670, "pitch": 71, "duration": 10, "velocity": 78}, {"time": 1682, "pitch": 76, "duration": 36, "velocity": 73}, {"time": 1718, "pitch": 73, "duration": 6, "velocity": 85}, {"time": 1724, "pitch": 76, "duration": 6, "velocity": 76}, {"time": 1730, "pitch": 75, "duration": 35, "velocity": 79}, {"time": 1772, "pitch": 76, "duration": 5, "velocity": 80}, {"time": 1778, "pitch": 78, "duration": 23, "velocity": 78}, {"time": 1802, "pitch": 85, "duration": 12, "velocity": 81}, {"time": 1814, "pitch": 83, "duration": 10, "velocity": 84}, {"time": 1826, "pitch": 76, "duration": 28, "velocity": 72}, {"time": 1826, "pitch": 80, "duration": 29, "velocity": 77}, {"time": 1862, "pitch": 71, "duration": 6, "velocity": 95}, {"time": 1868, "pitch": 73, "duration": 6, "velocity": 88}, {"time": 1874, "pitch": 64, "duration": 4, "velocity": 76}, {"time": 1874, "pitch": 76, "duration": 35, "velocity": 86}, {"time": 1880, "pitch": 66, "duration": 4, "velocity": 73}, {"time": 1886, "pitch": 64, "duration": 4, "velocity": 77}, {"time": 1892, "pitch": 66, "duration": 2, "velocity": 75}, {"time": 1895, "pitch": 64, "duration": 14, "velocity": 71}, {"time": 1910, "pitch": 71, "duration": 5, "velocity": 86}, {"time": 1916, "pitch": 73, "duration": 5, "velocity": 91}, {"time": 1922, "pitch": 63, "duration": 4, "velocity": 71}, {"time": 1922, "pitch": 66, "duration": 4, "velocity": 72}, {"time": 1922, "pitch": 75, "duration": 39, "velocity": 86}, {"time": 1928, "pitch": 64, "duration": 4, "velocity": 73}, {"time": 1928, "pitch": 68, "duration": 4, "velocity": 72}, {"time": 1934, "pitch": 63, "duration": 4, "velocity": 77}, {"time": 1934, "pitch": 66, "duration": 4, "velocity": 69}, {"time": 1940, "pitch": 64, "duration": 2, "velocity": 73}, {"time": 1940, "pitch": 68, "duration": 2, "velocity": 74}, {"time": 1943, "pitch": 63, "duration": 13, "velocity": 76}, {"time": 1943, "pitch": 66, "duration": 13, "velocity": 67}, {"time": 1961, "pitch": 66, "duration": 4, "velocity": 79}, {"time": 1964, "pitch": 68, "duration": 3, "velocity": 83}, {"time": 1967, "pitch": 71, "duration": 3, "velocity": 85}, {"time": 1970, "pitch": 76, "duration": 3, "velocity": 84}, {"time": 1973, "pitch": 73, "duration": 1, "velocity": 84}, {"time": 1976, "pitch": 73, "duration": 1, "velocity": 86}, {"time": 1979, "pitch": 73, "duration": 1, "velocity": 88}, {"time": 1982, "pitch": 73, "duration": 2, "velocity": 87}, {"time": 1985, "pitch": 71, "duration": 2, "velocity": 76}, {"time": 1988, "pitch": 71, "duration": 3, "velocity": 80}, {"time": 1991, "pitch": 73, "duration": 2, "velocity": 85}, {"time": 1994, "pitch": 68, "duration": 18, "velocity": 83}, {"time": 2012, "pitch": 73, "duration": 5, "velocity": 90}, {"time": 2018, "pitch": 59, "duration": 3, "velocity": 76}, {"time": 2018, "pitch": 71, "duration": 36, "velocity": 77}, {"time": 2021, "pitch": 61, "duration": 3, "velocity": 77}, {"time": 2024, "pitch": 59, "duration": 4, "velocity": 77}, {"time": 2027, "pitch": 61, "duration": 3, "velocity": 79}, {"time": 2030, "pitch": 64, "duration": 3, "velocity": 79}, {"time": 2033, "pitch": 61, "duration": 3, "velocity": 75}, {"time": 2036, "pitch": 59, "duration": 3, "velocity": 76}, {"time": 2039, "pitch": 56, "duration": 4, "velocity": 72}, {"time": 2042, "pitch": 59, "duration": 22, "velocity": 80}, {"time": 2054, "pitch": 71, "duration": 6, "velocity": 91}, {"time": 2060, "pitch": 73, "duration": 5, "velocity": 91}, {"time": 2066, "pitch": 59, "duration": 3, "velocity": 76}, {"time": 2066, "pitch": 76, "duration": 6, "velocity": 85}, {"time": 2069, "pitch": 61, "duration": 3, "velocity": 77}, {"time": 2072, "pitch": 59, "duration": 4, "velocity": 77}, {"time": 2072, "pitch": 78, "duration": 3, "velocity": 89}, {"time": 2075, "pitch": 61, "duration": 3, "velocity": 79}, {"time": 2075, "pitch": 76, "duration": 26, "velocity": 84}, {"time": 2078, "pitch": 64, "duration": 3, "velocity": 79}, {"time": 2081, "pitch": 61, "duration": 3, "velocity": 75}, {"time": 2084, "pitch": 59, "duration": 3, "velocity": 76}, {"time": 2087, "pitch": 56, "duration": 4, "velocity": 72}, {"time": 2090, "pitch": 59, "duration": 22, "velocity": 80}, {"time": 2102, "pitch": 71, "duration": 5, "velocity": 89}, {"time": 2108, "pitch": 73, "duration": 7, "velocity": 86}, {"time": 2114, "pitch": 66, "duration": 4, "velocity": 76}, {"time": 2114, "pitch": 78, "duration": 6, "velocity": 85}, {"time": 2120, "pitch": 68, "duration": 2, "velocity": 77}, {"time": 2120, "pitch": 80, "duration": 3, "velocity": 85}, {"time": 2123, "pitch": 66, "duration": 13, "velocity": 73}, {"time": 2123, "pitch": 78, "duration": 25, "velocity": 88}, {"time": 2132, "pitch": 64, "duration": 6, "velocity": 77}, {"time": 2138, "pitch": 59, "duration": 24, "velocity": 77}, {"time": 2158, "pitch": 68, "duration": 4, "velocity": 85}, {"time": 2162, "pitch": 76, "duration": 6, "velocity": 71}, {"time": 2168, "pitch": 75, "duration": 3, "velocity": 86}, {"time": 2171, "pitch": 73, "duration": 38, "velocity": 85}, {"time": 2183, "pitch": 56, "duration": 3, "velocity": 85}, {"time": 2186, "pitch": 64, "duration": 6, "velocity": 84}, {"time": 2192, "pitch": 63, "duration": 3, "velocity": 84}, {"time": 2195, "pitch": 61, "duration": 12, "velocity": 79}, {"time": 2210, "pitch": 73, "duration": 6, "velocity": 85}, {"time": 2210, "pitch": 76, "duration": 6, "velocity": 84}, {"time": 2216, "pitch": 75, "duration": 3, "velocity": 79}, {"time": 2219, "pitch": 73, "duration": 12, "velocity": 85}, {"time": 2231, "pitch": 68, "duration": 4, "velocity": 79}, {"time": 2234, "pitch": 73, "duration": 5, "velocity": 87}, {"time": 2234, "pitch": 76, "duration": 6, "velocity": 84}, {"time": 2240, "pitch": 75, "duration": 3, "velocity": 77}, {"time": 2243, "pitch": 73, "duration": 14, "velocity": 81}, {"time": 2258, "pitch": 73, "duration": 21, "velocity": 84}, {"time": 2291, "pitch": 73, "duration": 3, "velocity": 69}, {"time": 2294, "pitch": 76, "duration": 6, "velocity": 78}, {"time": 2300, "pitch": 73, "duration": 6, "velocity": 84}, {"time": 2306, "pitch": 75, "duration": 23, "velocity": 80}, {"time": 2333, "pitch": 68, "duration": 6, "velocity": 68}, {"time": 2336, "pitch": 71, "duration": 3, "velocity": 79}, {"time": 2339, "pitch": 78, "duration": 4, "velocity": 80}, {"time": 2342, "pitch": 75, "duration": 5, "velocity": 76}, {"time": 2345, "pitch": 71, "duration": 6, "velocity": 75}, {"time": 2348, "pitch": 68, "duration": 6, "velocity": 72}, {"time": 2354, "pitch": 73, "duration": 36, "velocity": 84}, {"time": 2390, "pitch": 76, "duration": 6, "velocity": 77}, {"time": 2396, "pitch": 73, "duration": 5, "velocity": 80}, {"time": 2402, "pitch": 71, "duration": 24, "velocity": 75}, {"time": 2402, "pitch": 75, "duration": 25, "velocity": 80}, {"time": 2429, "pitch": 68, "duration": 4, "velocity": 68}, {"time": 2432, "pitch": 71, "duration": 4, "velocity": 73}, {"time": 2435, "pitch": 78, "duration": 6, "velocity": 79}, {"time": 2441, "pitch": 75, "duration": 3, "velocity": 80}, {"time": 2444, "pitch": 71, "duration": 4, "velocity": 74}, {"time": 2447, "pitch": 68, "duration": 3, "velocity": 71}, {"time": 2450, "pitch": 73, "duration": 31, "velocity": 85}, {"time": 2486, "pitch": 69, "duration": 8, "velocity": 66}, {"time": 2486, "pitch": 73, "duration": 11, "velocity": 80}, {"time": 2498, "pitch": 71, "duration": 22, "velocity": 73}, {"time": 2534, "pitch": 73, "duration": 11, "velocity": 84}, {"time": 2546, "pitch": 76, "duration": 11, "velocity": 72}, {"time": 2558, "pitch": 73, "duration": 12, "velocity": 78}, {"time": 2576, "pitch": 73, "duration": 6, "velocity": 80}, {"time": 2582, "pitch": 78, "duration": 6, "velocity": 77}, {"time": 2588, "pitch": 76, "duration": 4, "velocity": 69}, {"time": 2594, "pitch": 71, "duration": 20, "velocity": 77}, {"time": 2594, "pitch": 75, "duration": 20, "velocity": 77}, {"time": 2618, "pitch": 73, "duration": 18, "velocity": 86}, {"time": 2636, "pitch": 71, "duration": 3, "velocity": 74}, {"time": 2639, "pitch": 73, "duration": 1, "velocity": 81}, {"time": 2642, "pitch": 71, "duration": 16, "velocity": 78}, {"time": 2642, "pitch": 75, "duration": 17, "velocity": 86}, {"time": 2660, "pitch": 73, "duration": 3, "velocity": 82}, {"time": 2663, "pitch": 75, "duration": 3, "velocity": 79}, {"time": 2666, "pitch": 76, "duration": 10, "velocity": 84}, {"time": 2678, "pitch": 75, "duration": 11, "velocity": 78}, {"time": 2678, "pitch": 78, "duration": 11, "velocity": 68}, {"time": 2690, "pitch": 76, "duration": 22, "velocity": 73}, {"time": 2690, "pitch": 80, "duration": 23, "velocity": 76}, {"time": 2714, "pitch": 80, "duration": 18, "velocity": 79}, {"time": 2732, "pitch": 78, "duration": 3, "velocity": 73}, {"time": 2735, "pitch": 76, "duration": 3, "velocity": 76}, {"time": 2738, "pitch": 80, "duration": 24, "velocity": 76}, {"time": 2762, "pitch": 83, "duration": 12, "velocity": 84}, {"time": 2774, "pitch": 80, "duration": 6, "velocity": 80}, {"time": 2780, "pitch": 78, "duration": 5, "velocity": 73}, {"time": 2786, "pitch": 76, "duration": 32, "velocity": 74}, {"time": 2786, "pitch": 80, "duration": 33, "velocity": 75}, {"time": 2822, "pitch": 80, "duration": 6, "velocity": 80}, {"time": 2828, "pitch": 78, "duration": 3, "velocity": 81}, {"time": 2831, "pitch": 76, "duration": 3, "velocity": 72}, {"time": 2834, "pitch": 78, "duration": 24, "velocity": 76}, {"time": 2858, "pitch": 71, "duration": 15, "velocity": 73}, {"time": 2858, "pitch": 75, "duration": 17, "velocity": 83}, {"time": 2876, "pitch": 71, "duration": 5, "velocity": 73}, {"time": 2882, "pitch": 76, "duration": 18, "velocity": 73}, {"time": 2900, "pitch": 73, "duration": 16, "velocity": 84}, {"time": 2906, "pitch": 76, "duration": 11, "velocity": 72}, {"time": 2918, "pitch": 73, "duration": 9, "velocity": 84}, {"time": 2930, "pitch": 71, "duration": 21, "velocity": 76}, {"time": 2930, "pitch": 75, "duration": 22, "velocity": 79}, {"time": 2954, "pitch": 71, "duration": 12, "velocity": 79}, {"time": 2966, "pitch": 68, "duration": 10, "velocity": 74}, {"time": 2978, "pitch": 73, "duration": 17, "velocity": 80}, {"time": 2978, "pitch": 78, "duration": 21, "velocity": 76}, {"time": 3002, "pitch": 85, "duration": 13, "velocity": 85}, {"time": 3014, "pitch": 83, "duration": 6, "velocity": 84}, {"time": 3020, "pitch": 80, "duration": 6, "velocity": 76}, {"time": 3026, "pitch": 83, "duration": 24, "velocity": 85}, {"time": 3050, "pitch": 78, "duration": 12, "velocity": 78}, {"time": 3062, "pitch": 80, "duration": 8, "velocity": 79}, {"time": 3074, "pitch": 83, "duration": 18, "velocity": 84}, {"time": 3092, "pitch": 80, "duration": 6, "velocity": 77}, {"time": 3098, "pitch": 83, "duration": 18, "velocity": 84}, {"time": 3116, "pitch": 78, "duration": 5, "velocity": 74}, {"time": 3122, "pitch": 83, "duration": 17, "velocity": 82}, {"time": 3140, "pitch": 85, "duration": 6, "velocity": 80}, {"time": 3146, "pitch": 83, "duration": 6, "velocity": 84}, {"time": 3152, "pitch": 80, "duration": 6, "velocity": 77}, {"time": 3158, "pitch": 78, "duration": 5, "velocity": 79}, {"time": 3164, "pitch": 80, "duration": 6, "velocity": 80}, {"time": 3170, "pitch": 85, "duration": 18, "velocity": 80}, {"time": 3188, "pitch": 83, "duration": 6, "velocity": 82}, {"time": 3194, "pitch": 80, "duration": 12, "velocity": 75}, {"time": 3206, "pitch": 78, "duration": 5, "velocity": 79}, {"time": 3212, "pitch": 76, "duration": 5, "velocity": 74}, {"time": 3218, "pitch": 75, "duration": 18, "velocity": 84}, {"time": 3236, "pitch": 73, "duration": 6, "velocity": 84}, {"time": 3242, "pitch": 75, "duration": 6, "velocity": 79}, {"time": 3248, "pitch": 73, "duration": 6, "velocity": 84}, {"time": 3254, "pitch": 71, "duration": 10, "velocity": 78}, {"time": 3266, "pitch": 76, "duration": 36, "velocity": 73}, {"time": 3302, "pitch": 73, "duration": 6, "velocity": 85}, {"time": 3308, "pitch": 76, "duration": 6, "velocity": 76}, {"time": 3314, "pitch": 75, "duration": 35, "velocity": 79}, {"time": 3356, "pitch": 76, "duration": 5, "velocity": 80}, {"time": 3362, "pitch": 78, "duration": 23, "velocity": 78}, {"time": 3386, "pitch": 85, "duration": 12, "velocity": 81}, {"time": 3398, "pitch": 83, "duration": 10, "velocity": 84}, {"time": 3410, "pitch": 76, "duration": 28, "velocity": 72}, {"time": 3410, "pitch": 80, "duration": 29, "velocity": 77}, {"time": 3458, "pitch": 71, "duration": 3, "velocity": 71}, {"time": 3458, "pitch": 76, "duration": 3, "velocity": 87}, {"time": 3461, "pitch": 73, "duration": 3, "velocity": 83}, {"time": 3461, "pitch": 78, "duration": 3, "velocity": 84}, {"time": 3464, "pitch": 71, "duration": 4, "velocity": 77}, {"time": 3464, "pitch": 76, "duration": 3, "velocity": 83}, {"time": 3467, "pitch": 73, "duration": 3, "velocity": 84}, {"time": 3467, "pitch": 78, "duration": 3, "velocity": 88}, {"time": 3470, "pitch": 76, "duration": 3, "velocity": 80}, {"time": 3470, "pitch": 80, "duration": 3, "velocity": 87}, {"time": 3473, "pitch": 73, "duration": 3, "velocity": 84}, {"time": 3473, "pitch": 78, "duration": 3, "velocity": 85}, {"time": 3476, "pitch": 71, "duration": 3, "velocity": 80}, {"time": 3476, "pitch": 76, "duration": 3, "velocity": 86}, {"time": 3479, "pitch": 68, "duration": 3, "velocity": 73}, {"time": 3479, "pitch": 73, "duration": 4, "velocity": 85}, {"time": 3482, "pitch": 71, "duration": 22, "velocity": 73}, {"time": 3482, "pitch": 76, "duration": 22, "velocity": 86}, {"time": 3506, "pitch": 71, "duration": 3, "velocity": 71}, {"time": 3506, "pitch": 76, "duration": 3, "velocity": 87}, {"time": 3509, "pitch": 73, "duration": 3, "velocity": 83}, {"time": 3509, "pitch": 78, "duration": 3, "velocity": 84}, {"time": 3512, "pitch": 71, "duration": 4, "velocity": 77}, {"time": 3512, "pitch": 76, "duration": 3, "velocity": 83}, {"time": 3515, "pitch": 73, "duration": 3, "velocity": 84}, {"time": 3515, "pitch": 78, "duration": 3, "velocity": 88}, {"time": 3518, "pitch": 76, "duration": 3, "velocity": 80}, {"time": 3518, "pitch": 80, "duration": 3, "velocity": 87}, {"time": 3521, "pitch": 73, "duration": 3, "velocity": 84}, {"time": 3521, "pitch": 78, "duration": 3, "velocity": 85}, {"time": 3524, "pitch": 71, "duration": 3, "velocity": 80}, {"time": 3524, "pitch": 76, "duration": 3, "velocity": 86}, {"time": 3527, "pitch": 68, "duration": 3, "velocity": 73}, {"time": 3527, "pitch": 73, "duration": 4, "velocity": 85}, {"time": 3530, "pitch": 71, "duration": 22, "velocity": 73}, {"time": 3530, "pitch": 76, "duration": 22, "velocity": 86}, {"time": 3554, "pitch": 71, "duration": 3, "velocity": 71}, {"time": 3554, "pitch": 76, "duration": 3, "velocity": 87}, {"time": 3557, "pitch": 73, "duration": 3, "velocity": 83}, {"time": 3557, "pitch": 78, "duration": 3, "velocity": 84}, {"time": 3560, "pitch": 71, "duration": 4, "velocity": 77}, {"time": 3560, "pitch": 76, "duration": 3, "velocity": 83}, {"time": 3563, "pitch": 73, "duration": 3, "velocity": 84}, {"time": 3563, "pitch": 78, "duration": 3, "velocity": 88}, {"time": 3566, "pitch": 76, "duration": 3, "velocity": 80}, {"time": 3566, "pitch": 80, "duration": 3, "velocity": 87}, {"time": 3569, "pitch": 73, "duration": 3, "velocity": 84}, {"time": 3569, "pitch": 78, "duration": 3, "velocity": 85}, {"time": 3572, "pitch": 71, "duration": 3, "velocity": 80}, {"time": 3572, "pitch": 76, "duration": 3, "velocity": 86}, {"time": 3575, "pitch": 68, "duration": 3, "velocity": 73}, {"time": 3575, "pitch": 73, "duration": 4, "velocity": 85}, {"time": 3578, "pitch": 71, "duration": 22, "velocity": 73}, {"time": 3578, "pitch": 76, "duration": 22, "velocity": 86}]}, {"program": 0, "is_drum": false, "name": "PIANO", "notes": [{"time": 2, "pitch": 40, "duration": 40, "velocity": 84}, {"time": 2, "pitch": 56, "duration": 12, "velocity": 72}, {"time": 8, "pitch": 47, "duration": 32, "velocity": 75}, {"time": 14, "pitch": 59, "duration": 13, "velocity": 80}, {"time": 20, "pitch": 52, "duration": 7, "velocity": 72}, {"time": 26, "pitch": 56, "duration": 4, "velocity": 58}, {"time": 50, "pitch": 37, "duration": 38, "velocity": 76}, {"time": 50, "pitch": 52, "duration": 12, "velocity": 76}, {"time": 56, "pitch": 44, "duration": 31, "velocity": 55}, {"time": 62, "pitch": 56, "duration": 5, "velocity": 79}, {"time": 68, "pitch": 52, "duration": 2, "velocity": 80}, {"time": 74, "pitch": 61, "duration": 1, "velocity": 83}, {"time": 98, "pitch": 45, "duration": 15, "velocity": 80}, {"time": 104, "pitch": 52, "duration": 7, "velocity": 84}, {"time": 110, "pitch": 57, "duration": 9, "velocity": 73}, {"time": 122, "pitch": 44, "duration": 14, "velocity": 85}, {"time": 122, "pitch": 59, "duration": 12, "velocity": 76}, {"time": 128, "pitch": 51, "duration": 8, "velocity": 77}, {"time": 134, "pitch": 56, "duration": 2, "velocity": 80}, {"time": 146, "pitch": 45, "duration": 17, "velocity": 78}, {"time": 146, "pitch": 52, "duration": 2, "velocity": 75}, {"time": 146, "pitch": 57, "duration": 7, "velocity": 71}, {"time": 152, "pitch": 52, "duration": 7, "velocity": 64}, {"time": 158, "pitch": 61, "duration": 7, "velocity": 80}, {"time": 170, "pitch": 44, "duration": 21, "velocity": 79}, {"time": 170, "pitch": 56, "duration": 11, "velocity": 65}, {"time": 170, "pitch": 59, "duration": 12, "velocity": 71}, {"time": 176, "pitch": 51, "duration": 15, "velocity": 78}, {"time": 182, "pitch": 63, "duration": 7, "velocity": 85}, {"time": 188, "pitch": 56, "duration": 6, "velocity": 80}, {"time": 194, "pitch": 37, "duration": 22, "velocity": 85}, {"time": 194, "pitch": 56, "duration": 1, "velocity": 71}, {"time": 194, "pitch": 61, "duration": 12, "velocity": 79}, {"time": 206, "pitch": 64, "duration": 7, "velocity": 80}, {"time": 209, "pitch": 44, "duration": 6, "velocity": 71}, {"time": 212, "pitch": 56, "duration": 2, "velocity": 69}, {"time": 218, "pitch": 37, "duration": 12, "velocity": 68}, {"time": 218, "pitch": 56, "duration": 8, "velocity": 68}, {"time": 218, "pitch": 61, "duration": 7, "velocity": 71}, {"time": 230, "pitch": 56, "duration": 2, "velocity": 70}, {"time": 230, "pitch": 61, "duration": 2, "velocity": 74}, {"time": 230, "pitch": 64, "duration": 3, "velocity": 74}, {"time": 242, "pitch": 49, "duration": 21, "velocity": 79}, {"time": 242, "pitch": 56, "duration": 3, "velocity": 78}, {"time": 242, "pitch": 64, "duration": 6, "velocity": 80}, {"time": 254, "pitch": 56, "duration": 2, "velocity": 80}, {"time": 254, "pitch": 64, "duration": 8, "velocity": 81}, {"time": 260, "pitch": 56, "duration": 3, "velocity": 65}, {"time": 266, "pitch": 49, "duration": 23, "velocity": 78}, {"time": 266, "pitch": 56, "duration": 3, "velocity": 77}, {"time": 266, "pitch": 64, "duration": 7, "velocity": 77}, {"time": 272, "pitch": 63, "duration": 3, "velocity": 75}, {"time": 275, "pitch": 61, "duration": 13, "velocity": 77}, {"time": 290, "pitch": 49, "duration": 20, "velocity": 84}, {"time": 290, "pitch": 56, "duration": 3, "velocity": 75}, {"time": 290, "pitch": 61, "duration": 9, "velocity": 80}, {"time": 296, "pitch": 56, "duration": 6, "velocity": 72}, {"time": 302, "pitch": 61, "duration": 1, "velocity": 46}, {"time": 302, "pitch": 64, "duration": 7, "velocity": 81}, {"time": 308, "pitch": 56, "duration": 6, "velocity": 79}, {"time": 314, "pitch": 49, "duration": 17, "velocity": 82}, {"time": 314, "pitch": 61, "duration": 6, "velocity": 78}, {"time": 326, "pitch": 56, "duration": 2, "velocity": 73}, {"time": 326, "pitch": 61, "duration": 6, "velocity": 79}, {"time": 326, "pitch": 64, "duration": 6, "velocity": 80}, {"time": 332, "pitch": 56, "duration": 1, "velocity": 59}, {"time": 338, "pitch": 44, "duration": 22, "velocity": 84}, {"time": 338, "pitch": 56, "duration": 6, "velocity": 73}, {"time": 338, "pitch": 59, "duration": 6, "velocity": 76}, {"time": 344, "pitch": 51, "duration": 7, "velocity": 66}, {"time": 350, "pitch": 56, "duration": 9, "velocity": 84}, {"time": 350, "pitch": 63, "duration": 10, "velocity": 85}, {"time": 356, "pitch": 51, "duration": 4, "velocity": 61}, {"time": 362, "pitch": 44, "duration": 21, "velocity": 75}, {"time": 362, "pitch": 56, "duration": 8, "velocity": 71}, {"time": 362, "pitch": 59, "duration": 8, "velocity": 71}, {"time": 368, "pitch": 51, "duration": 6, "velocity": 59}, {"time": 374, "pitch": 56, "duration": 4, "velocity": 82}, {"time": 374, "pitch": 59, "duration": 4, "velocity": 84}, {"time": 377, "pitch": 51, "duration": 6, "velocity": 79}, {"time": 380, "pitch": 63, "duration": 4, "velocity": 85}, {"time": 383, "pitch": 56, "duration": 4, "velocity": 73}, {"time": 386, "pitch": 49, "duration": 18, "velocity": 84}, {"time": 386, "pitch": 61, "duration": 12, "velocity": 82}, {"time": 392, "pitch": 56, "duration": 7, "velocity": 69}, {"time": 398, "pitch": 64, "duration": 12, "velocity": 79}, {"time": 404, "pitch": 56, "duration": 7, "velocity": 68}, {"time": 410, "pitch": 49, "duration": 18, "velocity": 79}, {"time": 410, "pitch": 61, "duration": 8, "velocity": 76}, {"time": 416, "pitch": 56, "duration": 5, "velocity": 69}, {"time": 422, "pitch": 61, "duration": 12, "velocity": 79}, {"time": 422, "pitch": 64, "duration": 6, "velocity": 82}, {"time": 428, "pitch": 56, "duration": 6, "velocity": 73}, {"time": 434, "pitch": 44, "duration": 21, "velocity": 77}, {"time": 434, "pitch": 59, "duration": 6, "velocity": 72}, {"time": 440, "pitch": 51, "duration": 15, "velocity": 58}, {"time": 446, "pitch": 56, "duration": 2, "velocity": 76}, {"time": 446, "pitch": 59, "duration": 2, "velocity": 81}, {"time": 446, "pitch": 63, "duration": 2, "velocity": 84}, {"time": 452, "pitch": 63, "duration": 3, "velocity": 77}, {"time": 455, "pitch": 64, "duration": 3, "velocity": 79}, {"time": 458, "pitch": 44, "duration": 17, "velocity": 81}, {"time": 458, "pitch": 63, "duration": 12, "velocity": 83}, {"time": 464, "pitch": 51, "duration": 7, "velocity": 75}, {"time": 470, "pitch": 56, "duration": 3, "velocity": 79}, {"time": 470, "pitch": 59, "duration": 6, "velocity": 84}, {"time": 473, "pitch": 51, "duration": 3, "velocity": 77}, {"time": 476, "pitch": 56, "duration": 2, "velocity": 81}, {"time": 482, "pitch": 45, "duration": 17, "velocity": 85}, {"time": 482, "pitch": 57, "duration": 11, "velocity": 72}, {"time": 482, "pitch": 61, "duration": 12, "velocity": 76}, {"time": 488, "pitch": 52, "duration": 8, "velocity": 66}, {"time": 494, "pitch": 64, "duration": 18, "velocity": 84}, {"time": 500, "pitch": 52, "duration": 5, "velocity": 78}, {"time": 503, "pitch": 57, "duration": 11, "velocity": 72}, {"time": 506, "pitch": 45, "duration": 14, "velocity": 79}, {"time": 512, "pitch": 52, "duration": 9, "velocity": 67}, {"time": 518, "pitch": 57, "duration": 3, "velocity": 84}, {"time": 518, "pitch": 61, "duration": 4, "velocity": 84}, {"time": 518, "pitch": 64, "duration": 4, "velocity": 81}, {"time": 524, "pitch": 45, "duration": 4, "velocity": 75}, {"time": 530, "pitch": 44, "duration": 22, "velocity": 84}, {"time": 530, "pitch": 56, "duration": 6, "velocity": 73}, {"time": 530, "pitch": 59, "duration": 6, "velocity": 77}, {"time": 536, "pitch": 51, "duration": 7, "velocity": 70}, {"time": 542, "pitch": 56, "duration": 3, "velocity": 79}, {"time": 542, "pitch": 63, "duration": 5, "velocity": 86}, {"time": 545, "pitch": 51, "duration": 7, "velocity": 73}, {"time": 548, "pitch": 61, "duration": 4, "velocity": 78}, {"time": 551, "pitch": 63, "duration": 3, "velocity": 80}, {"time": 554, "pitch": 44, "duration": 16, "velocity": 72}, {"time": 554, "pitch": 56, "duration": 7, "velocity": 70}, {"time": 554, "pitch": 59, "duration": 7, "velocity": 70}, {"time": 560, "pitch": 51, "duration": 9, "velocity": 65}, {"time": 566, "pitch": 56, "duration": 3, "velocity": 80}, {"time": 566, "pitch": 59, "duration": 2, "velocity": 85}, {"time": 578, "pitch": 42, "duration": 21, "velocity": 84}, {"time": 578, "pitch": 54, "duration": 12, "velocity": 79}, {"time": 578, "pitch": 61, "duration": 8, "velocity": 78}, {"time": 584, "pitch": 49, "duration": 15, "velocity": 74}, {"time": 590, "pitch": 57, "duration": 3, "velocity": 85}, {"time": 593, "pitch": 54, "duration": 10, "velocity": 81}, {"time": 596, "pitch": 61, "duration": 11, "velocity": 80}, {"time": 599, "pitch": 57, "duration": 6, "velocity": 75}, {"time": 602, "pitch": 42, "duration": 15, "velocity": 80}, {"time": 602, "pitch": 66, "duration": 5, "velocity": 79}, {"time": 608, "pitch": 49, "duration": 8, "velocity": 57}, {"time": 614, "pitch": 54, "duration": 3, "velocity": 84}, {"time": 614, "pitch": 61, "duration": 4, "velocity": 82}, {"time": 626, "pitch": 47, "duration": 11, "velocity": 78}, {"time": 626, "pitch": 54, "duration": 2, "velocity": 77}, {"time": 626, "pitch": 63, "duration": 10, "velocity": 84}, {"time": 632, "pitch": 54, "duration": 3, "velocity": 80}, {"time": 638, "pitch": 54, "duration": 2, "velocity": 83}, {"time": 638, "pitch": 61, "duration": 12, "velocity": 81}, {"time": 644, "pitch": 54, "duration": 7, "velocity": 75}, {"time": 650, "pitch": 47, "duration": 24, "velocity": 84}, {"time": 650, "pitch": 59, "duration": 6, "velocity": 79}, {"time": 662, "pitch": 54, "duration": 2, "velocity": 80}, {"time": 662, "pitch": 59, "duration": 5, "velocity": 85}, {"time": 668, "pitch": 56, "duration": 5, "velocity": 78}, {"time": 674, "pitch": 49, "duration": 20, "velocity": 84}, {"time": 674, "pitch": 56, "duration": 3, "velocity": 75}, {"time": 674, "pitch": 61, "duration": 9, "velocity": 80}, {"time": 680, "pitch": 56, "duration": 6, "velocity": 72}, {"time": 686, "pitch": 61, "duration": 1, "velocity": 46}, {"time": 686, "pitch": 64, "duration": 7, "velocity": 81}, {"time": 692, "pitch": 56, "duration": 6, "velocity": 79}, {"time": 698, "pitch": 49, "duration": 17, "velocity": 82}, {"time": 698, "pitch": 61, "duration": 6, "velocity": 78}, {"time": 710, "pitch": 56, "duration": 2, "velocity": 73}, {"time": 710, "pitch": 61, "duration": 6, "velocity": 79}, {"time": 710, "pitch": 64, "duration": 6, "velocity": 80}, {"time": 716, "pitch": 56, "duration": 1, "velocity": 59}, {"time": 722, "pitch": 44, "duration": 22, "velocity": 84}, {"time": 722, "pitch": 56, "duration": 6, "velocity": 73}, {"time": 722, "pitch": 59, "duration": 6, "velocity": 76}, {"time": 728, "pitch": 51, "duration": 7, "velocity": 66}, {"time": 734, "pitch": 56, "duration": 9, "velocity": 84}, {"time": 734, "pitch": 63, "duration": 10, "velocity": 85}, {"time": 740, "pitch": 51, "duration": 4, "velocity": 61}, {"time": 746, "pitch": 44, "duration": 21, "velocity": 75}, {"time": 746, "pitch": 56, "duration": 8, "velocity": 71}, {"time": 746, "pitch": 59, "duration": 8, "velocity": 71}, {"time": 752, "pitch": 51, "duration": 6, "velocity": 59}, {"time": 758, "pitch": 56, "duration": 4, "velocity": 82}, {"time": 758, "pitch": 59, "duration": 4, "velocity": 84}, {"time": 761, "pitch": 51, "duration": 6, "velocity": 79}, {"time": 764, "pitch": 63, "duration": 4, "velocity": 85}, {"time": 767, "pitch": 56, "duration": 4, "velocity": 73}, {"time": 770, "pitch": 49, "duration": 18, "velocity": 84}, {"time": 770, "pitch": 61, "duration": 12, "velocity": 82}, {"time": 776, "pitch": 56, "duration": 7, "velocity": 69}, {"time": 782, "pitch": 64, "duration": 12, "velocity": 79}, {"time": 788, "pitch": 56, "duration": 7, "velocity": 68}, {"time": 794, "pitch": 49, "duration": 18, "velocity": 79}, {"time": 794, "pitch": 61, "duration": 8, "velocity": 76}, {"time": 800, "pitch": 56, "duration": 5, "velocity": 69}, {"time": 806, "pitch": 61, "duration": 12, "velocity": 79}, {"time": 806, "pitch": 64, "duration": 6, "velocity": 82}, {"time": 812, "pitch": 56, "duration": 6, "velocity": 73}, {"time": 818, "pitch": 44, "duration": 21, "velocity": 77}, {"time": 818, "pitch": 59, "duration": 6, "velocity": 72}, {"time": 824, "pitch": 51, "duration": 15, "velocity": 58}, {"time": 830, "pitch": 56, "duration": 2, "velocity": 76}, {"time": 830, "pitch": 59, "duration": 2, "velocity": 81}, {"time": 830, "pitch": 63, "duration": 2, "velocity": 84}, {"time": 836, "pitch": 63, "duration": 3, "velocity": 77}, {"time": 839, "pitch": 64, "duration": 3, "velocity": 79}, {"time": 842, "pitch": 44, "duration": 17, "velocity": 81}, {"time": 842, "pitch": 63, "duration": 12, "velocity": 83}, {"time": 848, "pitch": 51, "duration": 7, "velocity": 75}, {"time": 854, "pitch": 56, "duration": 3, "velocity": 79}, {"time": 854, "pitch": 59, "duration": 6, "velocity": 84}, {"time": 857, "pitch": 51, "duration": 3, "velocity": 77}, {"time": 860, "pitch": 56, "duration": 2, "velocity": 81}, {"time": 866, "pitch": 45, "duration": 17, "velocity": 85}, {"time": 866, "pitch": 57, "duration": 11, "velocity": 72}, {"time": 866, "pitch": 61, "duration": 12, "velocity": 76}, {"time": 872, "pitch": 52, "duration": 8, "velocity": 66}, {"time": 878, "pitch": 64, "duration": 18, "velocity": 84}, {"time": 884, "pitch": 52, "duration": 5, "velocity": 78}, {"time": 887, "pitch": 57, "duration": 11, "velocity": 72}, {"time": 890, "pitch": 45, "duration": 14, "velocity": 79}, {"time": 896, "pitch": 52, "duration": 9, "velocity": 67}, {"time": 902, "pitch": 57, "duration": 3, "velocity": 84}, {"time": 902, "pitch": 61, "duration": 4, "velocity": 84}, {"time": 902, "pitch": 64, "duration": 4, "velocity": 81}, {"time": 908, "pitch": 45, "duration": 4, "velocity": 75}, {"time": 914, "pitch": 44, "duration": 19, "velocity": 84}, {"time": 914, "pitch": 56, "duration": 9, "velocity": 76}, {"time": 914, "pitch": 63, "duration": 9, "velocity": 82}, {"time": 920, "pitch": 51, "duration": 7, "velocity": 75}, {"time": 926, "pitch": 59, "duration": 5, "velocity": 90}, {"time": 929, "pitch": 51, "duration": 4, "velocity": 78}, {"time": 932, "pitch": 56, "duration": 7, "velocity": 84}, {"time": 938, "pitch": 49, "duration": 17, "velocity": 85}, {"time": 938, "pitch": 61, "duration": 9, "velocity": 83}, {"time": 944, "pitch": 52, "duration": 10, "velocity": 69}, {"time": 947, "pitch": 56, "duration": 4, "velocity": 79}, {"time": 950, "pitch": 64, "duration": 6, "velocity": 85}, {"time": 953, "pitch": 56, "duration": 3, "velocity": 84}, {"time": 956, "pitch": 63, "duration": 6, "velocity": 85}, {"time": 959, "pitch": 56, "duration": 3, "velocity": 70}, {"time": 962, "pitch": 42, "duration": 18, "velocity": 83}, {"time": 962, "pitch": 61, "duration": 6, "velocity": 82}, {"time": 968, "pitch": 49, "duration": 8, "velocity": 64}, {"time": 974, "pitch": 54, "duration": 2, "velocity": 76}, {"time": 974, "pitch": 57, "duration": 3, "velocity": 79}, {"time": 974, "pitch": 61, "duration": 4, "velocity": 83}, {"time": 980, "pitch": 54, "duration": 3, "velocity": 55}, {"time": 986, "pitch": 42, "duration": 18, "velocity": 81}, {"time": 986, "pitch": 54, "duration": 7, "velocity": 75}, {"time": 986, "pitch": 61, "duration": 8, "velocity": 78}, {"time": 992, "pitch": 49, "duration": 6, "velocity": 67}, {"time": 998, "pitch": 54, "duration": 3, "velocity": 85}, {"time": 998, "pitch": 57, "duration": 4, "velocity": 85}, {"time": 998, "pitch": 61, "duration": 5, "velocity": 85}, {"time": 1001, "pitch": 49, "duration": 4, "velocity": 77}, {"time": 1004, "pitch": 54, "duration": 3, "velocity": 85}, {"time": 1007, "pitch": 57, "duration": 1, "velocity": 79}, {"time": 1010, "pitch": 35, "duration": 1, "velocity": 85}, {"time": 1010, "pitch": 54, "duration": 9, "velocity": 85}, {"time": 1010, "pitch": 59, "duration": 9, "velocity": 84}, {"time": 1022, "pitch": 54, "duration": 2, "velocity": 87}, {"time": 1022, "pitch": 59, "duration": 4, "velocity": 90}, {"time": 1022, "pitch": 63, "duration": 4, "velocity": 88}, {"time": 1025, "pitch": 51, "duration": 6, "velocity": 78}, {"time": 1028, "pitch": 54, "duration": 3, "velocity": 86}, {"time": 1028, "pitch": 63, "duration": 1, "velocity": 55}, {"time": 1031, "pitch": 59, "duration": 1, "velocity": 85}, {"time": 1034, "pitch": 47, "duration": 5, "velocity": 83}, {"time": 1034, "pitch": 51, "duration": 4, "velocity": 80}, {"time": 1034, "pitch": 61, "duration": 7, "velocity": 86}, {"time": 1034, "pitch": 73, "duration": 8, "velocity": 87}, {"time": 1046, "pitch": 47, "duration": 2, "velocity": 87}, {"time": 1046, "pitch": 51, "duration": 2, "velocity": 85}, {"time": 1052, "pitch": 42, "duration": 3, "velocity": 68}, {"time": 1055, "pitch": 54, "duration": 1, "velocity": 79}, {"time": 1058, "pitch": 47, "duration": 2, "velocity": 85}, {"time": 1058, "pitch": 51, "duration": 2, "velocity": 84}, {"time": 1058, "pitch": 63, "duration": 2, "velocity": 87}, {"time": 1058, "pitch": 75, "duration": 2, "velocity": 93}, {"time": 1064, "pitch": 42, "duration": 3, "velocity": 69}, {"time": 1067, "pitch": 54, "duration": 4, "velocity": 87}, {"time": 1067, "pitch": 59, "duration": 4, "velocity": 87}, {"time": 1070, "pitch": 47, "duration": 3, "velocity": 77}, {"time": 1070, "pitch": 51, "duration": 3, "velocity": 75}, {"time": 1073, "pitch": 54, "duration": 2, "velocity": 80}, {"time": 1073, "pitch": 59, "duration": 3, "velocity": 85}, {"time": 1073, "pitch": 63, "duration": 2, "velocity": 91}, {"time": 1079, "pitch": 54, "duration": 1, "velocity": 64}, {"time": 1082, "pitch": 47, "duration": 3, "velocity": 86}, {"time": 1082, "pitch": 51, "duration": 3, "velocity": 85}, {"time": 1082, "pitch": 54, "duration": 3, "velocity": 84}, {"time": 1082, "pitch": 59, "duration": 3, "velocity": 86}, {"time": 1082, "pitch": 66, "duration": 5, "velocity": 84}, {"time": 1088, "pitch": 47, "duration": 2, "velocity": 79}, {"time": 1088, "pitch": 51, "duration": 2, "velocity": 76}, {"time": 1094, "pitch": 47, "duration": 6, "velocity": 78}, {"time": 1094, "pitch": 51, "duration": 6, "velocity": 85}, {"time": 1094, "pitch": 61, "duration": 1, "velocity": 91}, {"time": 1094, "pitch": 73, "duration": 1, "velocity": 98}, {"time": 1100, "pitch": 63, "duration": 1, "velocity": 95}, {"time": 1100, "pitch": 75, "duration": 1, "velocity": 91}, {"time": 1106, "pitch": 40, "duration": 22, "velocity": 83}, {"time": 1106, "pitch": 56, "duration": 2, "velocity": 78}, {"time": 1106, "pitch": 64, "duration": 6, "velocity": 83}, {"time": 1112, "pitch": 56, "duration": 3, "velocity": 78}, {"time": 1118, "pitch": 56, "duration": 2, "velocity": 84}, {"time": 1118, "pitch": 59, "duration": 2, "velocity": 86}, {"time": 1118, "pitch": 64, "duration": 2, "velocity": 85}, {"time": 1121, "pitch": 47, "duration": 5, "velocity": 80}, {"time": 1124, "pitch": 56, "duration": 4, "velocity": 77}, {"time": 1127, "pitch": 59, "duration": 2, "velocity": 81}, {"time": 1130, "pitch": 40, "duration": 15, "velocity": 84}, {"time": 1130, "pitch": 56, "duration": 6, "velocity": 77}, {"time": 1130, "pitch": 59, "duration": 6, "velocity": 84}, {"time": 1130, "pitch": 64, "duration": 6, "velocity": 82}, {"time": 1136, "pitch": 47, "duration": 6, "velocity": 64}, {"time": 1142, "pitch": 56, "duration": 2, "velocity": 83}, {"time": 1142, "pitch": 59, "duration": 3, "velocity": 90}, {"time": 1142, "pitch": 64, "duration": 4, "velocity": 84}, {"time": 1145, "pitch": 47, "duration": 1, "velocity": 84}, {"time": 1148, "pitch": 56, "duration": 4, "velocity": 84}, {"time": 1154, "pitch": 44, "duration": 20, "velocity": 85}, {"time": 1154, "pitch": 56, "duration": 3, "velocity": 70}, {"time": 1154, "pitch": 63, "duration": 5, "velocity": 85}, {"time": 1160, "pitch": 51, "duration": 6, "velocity": 71}, {"time": 1166, "pitch": 56, "duration": 2, "velocity": 83}, {"time": 1166, "pitch": 59, "duration": 2, "velocity": 85}, {"time": 1166, "pitch": 63, "duration": 3, "velocity": 90}, {"time": 1169, "pitch": 51, "duration": 5, "velocity": 79}, {"time": 1172, "pitch": 61, "duration": 3, "velocity": 76}, {"time": 1175, "pitch": 63, "duration": 3, "velocity": 78}, {"time": 1178, "pitch": 44, "duration": 20, "velocity": 84}, {"time": 1178, "pitch": 56, "duration": 5, "velocity": 75}, {"time": 1178, "pitch": 59, "duration": 6, "velocity": 74}, {"time": 1184, "pitch": 51, "duration": 7, "velocity": 74}, {"time": 1190, "pitch": 56, "duration": 3, "velocity": 85}, {"time": 1190, "pitch": 63, "duration": 4, "velocity": 87}, {"time": 1193, "pitch": 51, "duration": 4, "velocity": 79}, {"time": 1196, "pitch": 56, "duration": 1, "velocity": 72}, {"time": 1196, "pitch": 59, "duration": 2, "velocity": 84}, {"time": 1199, "pitch": 56, "duration": 1, "velocity": 75}, {"time": 1202, "pitch": 49, "duration": 13, "velocity": 85}, {"time": 1202, "pitch": 64, "duration": 7, "velocity": 85}, {"time": 1208, "pitch": 56, "duration": 3, "velocity": 79}, {"time": 1214, "pitch": 56, "duration": 3, "velocity": 84}, {"time": 1214, "pitch": 61, "duration": 3, "velocity": 84}, {"time": 1214, "pitch": 64, "duration": 3, "velocity": 85}, {"time": 1217, "pitch": 49, "duration": 1, "velocity": 76}, {"time": 1220, "pitch": 56, "duration": 4, "velocity": 84}, {"time": 1223, "pitch": 61, "duration": 1, "velocity": 76}, {"time": 1226, "pitch": 37, "duration": 10, "velocity": 85}, {"time": 1226, "pitch": 56, "duration": 3, "velocity": 80}, {"time": 1226, "pitch": 61, "duration": 7, "velocity": 84}, {"time": 1226, "pitch": 64, "duration": 4, "velocity": 80}, {"time": 1232, "pitch": 56, "duration": 2, "velocity": 75}, {"time": 1238, "pitch": 56, "duration": 2, "velocity": 85}, {"time": 1238, "pitch": 61, "duration": 4, "velocity": 86}, {"time": 1238, "pitch": 64, "duration": 4, "velocity": 85}, {"time": 1244, "pitch": 37, "duration": 2, "velocity": 87}, {"time": 1244, "pitch": 56, "duration": 3, "velocity": 78}, {"time": 1244, "pitch": 61, "duration": 4, "velocity": 80}, {"time": 1250, "pitch": 47, "duration": 9, "velocity": 86}, {"time": 1250, "pitch": 54, "duration": 2, "velocity": 79}, {"time": 1250, "pitch": 59, "duration": 3, "velocity": 78}, {"time": 1256, "pitch": 54, "duration": 2, "velocity": 79}, {"time": 1256, "pitch": 59, "duration": 1, "velocity": 65}, {"time": 1262, "pitch": 54, "duration": 2, "velocity": 85}, {"time": 1262, "pitch": 59, "duration": 4, "velocity": 86}, {"time": 1262, "pitch": 63, "duration": 6, "velocity": 88}, {"time": 1268, "pitch": 54, "duration": 4, "velocity": 88}, {"time": 1274, "pitch": 47, "duration": 15, "velocity": 95}, {"time": 1274, "pitch": 54, "duration": 2, "velocity": 84}, {"time": 1274, "pitch": 59, "duration": 6, "velocity": 80}, {"time": 1280, "pitch": 54, "duration": 3, "velocity": 78}, {"time": 1286, "pitch": 54, "duration": 3, "velocity": 85}, {"time": 1286, "pitch": 59, "duration": 4, "velocity": 86}, {"time": 1286, "pitch": 63, "duration": 4, "velocity": 89}, {"time": 1292, "pitch": 47, "duration": 1, "velocity": 90}, {"time": 1292, "pitch": 54, "duration": 2, "velocity": 83}, {"time": 1292, "pitch": 59, "duration": 1, "velocity": 79}, {"time": 1298, "pitch": 45, "duration": 18, "velocity": 87}, {"time": 1298, "pitch": 52, "duration": 2, "velocity": 80}, {"time": 1298, "pitch": 57, "duration": 4, "velocity": 79}, {"time": 1298, "pitch": 61, "duration": 4, "velocity": 83}, {"time": 1304, "pitch": 52, "duration": 5, "velocity": 79}, {"time": 1310, "pitch": 57, "duration": 1, "velocity": 72}, {"time": 1310, "pitch": 64, "duration": 6, "velocity": 85}, {"time": 1313, "pitch": 52, "duration": 3, "velocity": 85}, {"time": 1316, "pitch": 57, "duration": 3, "velocity": 81}, {"time": 1319, "pitch": 52, "duration": 3, "velocity": 83}, {"time": 1322, "pitch": 45, "duration": 10, "velocity": 85}, {"time": 1322, "pitch": 57, "duration": 1, "velocity": 57}, {"time": 1322, "pitch": 61, "duration": 4, "velocity": 82}, {"time": 1325, "pitch": 52, "duration": 3, "velocity": 73}, {"time": 1328, "pitch": 57, "duration": 2, "velocity": 69}, {"time": 1334, "pitch": 45, "duration": 3, "velocity": 87}, {"time": 1334, "pitch": 52, "duration": 2, "velocity": 76}, {"time": 1334, "pitch": 57, "duration": 4, "velocity": 72}, {"time": 1334, "pitch": 64, "duration": 10, "velocity": 82}, {"time": 1340, "pitch": 45, "duration": 1, "velocity": 87}, {"time": 1340, "pitch": 52, "duration": 1, "velocity": 84}, {"time": 1346, "pitch": 44, "duration": 21, "velocity": 85}, {"time": 1346, "pitch": 56, "duration": 4, "velocity": 79}, {"time": 1346, "pitch": 59, "duration": 5, "velocity": 79}, {"time": 1352, "pitch": 51, "duration": 7, "velocity": 74}, {"time": 1358, "pitch": 56, "duration": 2, "velocity": 85}, {"time": 1358, "pitch": 63, "duration": 2, "velocity": 87}, {"time": 1361, "pitch": 51, "duration": 4, "velocity": 77}, {"time": 1364, "pitch": 59, "duration": 2, "velocity": 84}, {"time": 1367, "pitch": 56, "duration": 1, "velocity": 71}, {"time": 1370, "pitch": 44, "duration": 17, "velocity": 79}, {"time": 1370, "pitch": 56, "duration": 5, "velocity": 74}, {"time": 1370, "pitch": 59, "duration": 5, "velocity": 76}, {"time": 1376, "pitch": 51, "duration": 5, "velocity": 60}, {"time": 1379, "pitch": 56, "duration": 1, "velocity": 81}, {"time": 1382, "pitch": 56, "duration": 3, "velocity": 81}, {"time": 1382, "pitch": 59, "duration": 4, "velocity": 85}, {"time": 1382, "pitch": 63, "duration": 4, "velocity": 86}, {"time": 1385, "pitch": 51, "duration": 2, "velocity": 86}, {"time": 1388, "pitch": 56, "duration": 1, "velocity": 83}, {"time": 1394, "pitch": 42, "duration": 9, "velocity": 85}, {"time": 1394, "pitch": 54, "duration": 3, "velocity": 80}, {"time": 1394, "pitch": 57, "duration": 4, "velocity": 84}, {"time": 1394, "pitch": 61, "duration": 5, "velocity": 80}, {"time": 1400, "pitch": 49, "duration": 3, "velocity": 72}, {"time": 1400, "pitch": 54, "duration": 1, "velocity": 85}, {"time": 1406, "pitch": 42, "duration": 7, "velocity": 86}, {"time": 1406, "pitch": 49, "duration": 9, "velocity": 85}, {"time": 1418, "pitch": 42, "duration": 15, "velocity": 85}, {"time": 1418, "pitch": 54, "duration": 5, "velocity": 85}, {"time": 1418, "pitch": 61, "duration": 5, "velocity": 90}, {"time": 1424, "pitch": 49, "duration": 7, "velocity": 80}, {"time": 1427, "pitch": 54, "duration": 1, "velocity": 73}, {"time": 1430, "pitch": 54, "duration": 3, "velocity": 85}, {"time": 1430, "pitch": 57, "duration": 3, "velocity": 87}, {"time": 1430, "pitch": 61, "duration": 4, "velocity": 86}, {"time": 1433, "pitch": 49, "duration": 1, "velocity": 80}, {"time": 1436, "pitch": 42, "duration": 4, "velocity": 84}, {"time": 1436, "pitch": 54, "duration": 2, "velocity": 81}, {"time": 1442, "pitch": 47, "duration": 16, "velocity": 86}, {"time": 1442, "pitch": 54, "duration": 2, "velocity": 79}, {"time": 1442, "pitch": 59, "duration": 3, "velocity": 83}, {"time": 1448, "pitch": 59, "duration": 3, "velocity": 82}, {"time": 1454, "pitch": 54, "duration": 2, "velocity": 86}, {"time": 1454, "pitch": 61, "duration": 4, "velocity": 88}, {"time": 1460, "pitch": 54, "duration": 4, "velocity": 87}, {"time": 1466, "pitch": 47, "duration": 13, "velocity": 86}, {"time": 1466, "pitch": 54, "duration": 2, "velocity": 84}, {"time": 1466, "pitch": 59, "duration": 4, "velocity": 84}, {"time": 1466, "pitch": 63, "duration": 6, "velocity": 86}, {"time": 1472, "pitch": 54, "duration": 1, "velocity": 72}, {"time": 1475, "pitch": 54, "duration": 1, "velocity": 79}, {"time": 1475, "pitch": 59, "duration": 1, "velocity": 79}, {"time": 1475, "pitch": 63, "duration": 1, "velocity": 85}, {"time": 1478, "pitch": 54, "duration": 3, "velocity": 85}, {"time": 1478, "pitch": 59, "duration": 3, "velocity": 89}, {"time": 1478, "pitch": 63, "duration": 4, "velocity": 89}, {"time": 1481, "pitch": 47, "duration": 8, "velocity": 85}, {"time": 1484, "pitch": 54, "duration": 3, "velocity": 79}, {"time": 1484, "pitch": 61, "duration": 3, "velocity": 85}, {"time": 1487, "pitch": 59, "duration": 2, "velocity": 85}, {"time": 1490, "pitch": 40, "duration": 22, "velocity": 83}, {"time": 1490, "pitch": 56, "duration": 2, "velocity": 78}, {"time": 1490, "pitch": 64, "duration": 6, "velocity": 83}, {"time": 1496, "pitch": 56, "duration": 3, "velocity": 78}, {"time": 1502, "pitch": 56, "duration": 2, "velocity": 84}, {"time": 1502, "pitch": 59, "duration": 2, "velocity": 86}, {"time": 1502, "pitch": 64, "duration": 2, "velocity": 85}, {"time": 1505, "pitch": 47, "duration": 5, "velocity": 80}, {"time": 1508, "pitch": 56, "duration": 4, "velocity": 77}, {"time": 1511, "pitch": 59, "duration": 2, "velocity": 81}, {"time": 1514, "pitch": 40, "duration": 15, "velocity": 84}, {"time": 1514, "pitch": 56, "duration": 6, "velocity": 77}, {"time": 1514, "pitch": 59, "duration": 6, "velocity": 84}, {"time": 1514, "pitch": 64, "duration": 6, "velocity": 82}, {"time": 1520, "pitch": 47, "duration": 6, "velocity": 64}, {"time": 1526, "pitch": 56, "duration": 2, "velocity": 83}, {"time": 1526, "pitch": 59, "duration": 3, "velocity": 90}, {"time": 1526, "pitch": 64, "duration": 4, "velocity": 84}, {"time": 1529, "pitch": 47, "duration": 1, "velocity": 84}, {"time": 1532, "pitch": 56, "duration": 4, "velocity": 84}, {"time": 1538, "pitch": 44, "duration": 20, "velocity": 85}, {"time": 1538, "pitch": 56, "duration": 3, "velocity": 70}, {"time": 1538, "pitch": 63, "duration": 5, "velocity": 85}, {"time": 1544, "pitch": 51, "duration": 6, "velocity": 71}, {"time": 1550, "pitch": 56, "duration": 2, "velocity": 83}, {"time": 1550, "pitch": 59, "duration": 2, "velocity": 85}, {"time": 1550, "pitch": 63, "duration": 3, "velocity": 90}, {"time": 1553, "pitch": 51, "duration": 5, "velocity": 79}, {"time": 1556, "pitch": 61, "duration": 3, "velocity": 76}, {"time": 1559, "pitch": 63, "duration": 3, "velocity": 78}, {"time": 1562, "pitch": 44, "duration": 20, "velocity": 84}, {"time": 1562, "pitch": 56, "duration": 5, "velocity": 75}, {"time": 1562, "pitch": 59, "duration": 6, "velocity": 74}, {"time": 1568, "pitch": 51, "duration": 7, "velocity": 74}, {"time": 1574, "pitch": 56, "duration": 3, "velocity": 85}, {"time": 1574, "pitch": 63, "duration": 4, "velocity": 87}, {"time": 1577, "pitch": 51, "duration": 4, "velocity": 79}, {"time": 1580, "pitch": 56, "duration": 1, "velocity": 72}, {"time": 1580, "pitch": 59, "duration": 2, "velocity": 84}, {"time": 1583, "pitch": 56, "duration": 1, "velocity": 75}, {"time": 1586, "pitch": 49, "duration": 13, "velocity": 85}, {"time": 1586, "pitch": 64, "duration": 7, "velocity": 85}, {"time": 1592, "pitch": 56, "duration": 3, "velocity": 79}, {"time": 1598, "pitch": 56, "duration": 3, "velocity": 84}, {"time": 1598, "pitch": 61, "duration": 3, "velocity": 84}, {"time": 1598, "pitch": 64, "duration": 3, "velocity": 85}, {"time": 1601, "pitch": 49, "duration": 1, "velocity": 76}, {"time": 1604, "pitch": 56, "duration": 4, "velocity": 84}, {"time": 1607, "pitch": 61, "duration": 1, "velocity": 76}, {"time": 1610, "pitch": 37, "duration": 10, "velocity": 85}, {"time": 1610, "pitch": 56, "duration": 3, "velocity": 80}, {"time": 1610, "pitch": 61, "duration": 7, "velocity": 84}, {"time": 1610, "pitch": 64, "duration": 4, "velocity": 80}, {"time": 1616, "pitch": 56, "duration": 2, "velocity": 75}, {"time": 1622, "pitch": 56, "duration": 2, "velocity": 85}, {"time": 1622, "pitch": 61, "duration": 4, "velocity": 86}, {"time": 1622, "pitch": 64, "duration": 4, "velocity": 85}, {"time": 1628, "pitch": 37, "duration": 2, "velocity": 87}, {"time": 1628, "pitch": 56, "duration": 3, "velocity": 78}, {"time": 1628, "pitch": 61, "duration": 4, "velocity": 80}, {"time": 1634, "pitch": 47, "duration": 9, "velocity": 86}, {"time": 1634, "pitch": 54, "duration": 2, "velocity": 79}, {"time": 1634, "pitch": 59, "duration": 3, "velocity": 78}, {"time": 1640, "pitch": 54, "duration": 2, "velocity": 79}, {"time": 1640, "pitch": 59, "duration": 1, "velocity": 65}, {"time": 1646, "pitch": 54, "duration": 2, "velocity": 85}, {"time": 1646, "pitch": 59, "duration": 4, "velocity": 86}, {"time": 1646, "pitch": 63, "duration": 6, "velocity": 88}, {"time": 1652, "pitch": 54, "duration": 4, "velocity": 88}, {"time": 1658, "pitch": 47, "duration": 15, "velocity": 95}, {"time": 1658, "pitch": 54, "duration": 2, "velocity": 84}, {"time": 1658, "pitch": 59, "duration": 6, "velocity": 80}, {"time": 1664, "pitch": 54, "duration": 3, "velocity": 78}, {"time": 1670, "pitch": 54, "duration": 3, "velocity": 85}, {"time": 1670, "pitch": 59, "duration": 4, "velocity": 86}, {"time": 1670, "pitch": 63, "duration": 4, "velocity": 89}, {"time": 1676, "pitch": 47, "duration": 1, "velocity": 90}, {"time": 1676, "pitch": 54, "duration": 2, "velocity": 83}, {"time": 1676, "pitch": 59, "duration": 1, "velocity": 79}, {"time": 1682, "pitch": 45, "duration": 18, "velocity": 87}, {"time": 1682, "pitch": 52, "duration": 2, "velocity": 80}, {"time": 1682, "pitch": 57, "duration": 4, "velocity": 79}, {"time": 1682, "pitch": 61, "duration": 4, "velocity": 83}, {"time": 1688, "pitch": 52, "duration": 5, "velocity": 79}, {"time": 1694, "pitch": 57, "duration": 1, "velocity": 72}, {"time": 1694, "pitch": 64, "duration": 6, "velocity": 85}, {"time": 1697, "pitch": 52, "duration": 3, "velocity": 85}, {"time": 1700, "pitch": 57, "duration": 3, "velocity": 81}, {"time": 1703, "pitch": 52, "duration": 3, "velocity": 83}, {"time": 1706, "pitch": 45, "duration": 10, "velocity": 85}, {"time": 1706, "pitch": 57, "duration": 1, "velocity": 57}, {"time": 1706, "pitch": 61, "duration": 4, "velocity": 82}, {"time": 1709, "pitch": 52, "duration": 3, "velocity": 73}, {"time": 1712, "pitch": 57, "duration": 2, "velocity": 69}, {"time": 1718, "pitch": 45, "duration": 3, "velocity": 87}, {"time": 1718, "pitch": 52, "duration": 2, "velocity": 76}, {"time": 1718, "pitch": 57, "duration": 4, "velocity": 72}, {"time": 1718, "pitch": 64, "duration": 10, "velocity": 82}, {"time": 1724, "pitch": 45, "duration": 1, "velocity": 87}, {"time": 1724, "pitch": 52, "duration": 1, "velocity": 84}, {"time": 1730, "pitch": 44, "duration": 21, "velocity": 85}, {"time": 1730, "pitch": 56, "duration": 4, "velocity": 79}, {"time": 1730, "pitch": 59, "duration": 5, "velocity": 79}, {"time": 1736, "pitch": 51, "duration": 7, "velocity": 74}, {"time": 1742, "pitch": 56, "duration": 2, "velocity": 85}, {"time": 1742, "pitch": 63, "duration": 2, "velocity": 87}, {"time": 1745, "pitch": 51, "duration": 4, "velocity": 77}, {"time": 1748, "pitch": 59, "duration": 2, "velocity": 84}, {"time": 1751, "pitch": 56, "duration": 1, "velocity": 71}, {"time": 1754, "pitch": 44, "duration": 17, "velocity": 79}, {"time": 1754, "pitch": 56, "duration": 5, "velocity": 74}, {"time": 1754, "pitch": 59, "duration": 5, "velocity": 76}, {"time": 1760, "pitch": 51, "duration": 5, "velocity": 60}, {"time": 1763, "pitch": 56, "duration": 1, "velocity": 81}, {"time": 1766, "pitch": 56, "duration": 3, "velocity": 81}, {"time": 1766, "pitch": 59, "duration": 4, "velocity": 85}, {"time": 1766, "pitch": 63, "duration": 4, "velocity": 86}, {"time": 1769, "pitch": 51, "duration": 2, "velocity": 86}, {"time": 1772, "pitch": 56, "duration": 1, "velocity": 83}, {"time": 1778, "pitch": 42, "duration": 21, "velocity": 85}, {"time": 1778, "pitch": 54, "duration": 6, "velocity": 79}, {"time": 1778, "pitch": 57, "duration": 6, "velocity": 73}, {"time": 1778, "pitch": 61, "duration": 6, "velocity": 83}, {"time": 1784, "pitch": 49, "duration": 6, "velocity": 74}, {"time": 1790, "pitch": 54, "duration": 3, "velocity": 84}, {"time": 1790, "pitch": 57, "duration": 4, "velocity": 87}, {"time": 1790, "pitch": 61, "duration": 4, "velocity": 87}, {"time": 1793, "pitch": 49, "duration": 6, "velocity": 79}, {"time": 1796, "pitch": 54, "duration": 3, "velocity": 83}, {"time": 1799, "pitch": 57, "duration": 1, "velocity": 84}, {"time": 1802, "pitch": 47, "duration": 17, "velocity": 84}, {"time": 1802, "pitch": 54, "duration": 3, "velocity": 79}, {"time": 1802, "pitch": 59, "duration": 8, "velocity": 83}, {"time": 1808, "pitch": 54, "duration": 3, "velocity": 76}, {"time": 1814, "pitch": 54, "duration": 2, "velocity": 85}, {"time": 1814, "pitch": 59, "duration": 4, "velocity": 84}, {"time": 1814, "pitch": 63, "duration": 6, "velocity": 85}, {"time": 1820, "pitch": 54, "duration": 1, "velocity": 72}, {"time": 1826, "pitch": 40, "duration": 15, "velocity": 85}, {"time": 1826, "pitch": 52, "duration": 5, "velocity": 71}, {"time": 1826, "pitch": 56, "duration": 5, "velocity": 72}, {"time": 1832, "pitch": 47, "duration": 7, "velocity": 67}, {"time": 1838, "pitch": 52, "duration": 2, "velocity": 80}, {"time": 1838, "pitch": 59, "duration": 2, "velocity": 83}, {"time": 1847, "pitch": 56, "duration": 1, "velocity": 65}, {"time": 1847, "pitch": 59, "duration": 1, "velocity": 72}, {"time": 1850, "pitch": 40, "duration": 20, "velocity": 85}, {"time": 1850, "pitch": 56, "duration": 5, "velocity": 79}, {"time": 1850, "pitch": 59, "duration": 5, "velocity": 84}, {"time": 1850, "pitch": 64, "duration": 4, "velocity": 84}, {"time": 1856, "pitch": 47, "duration": 7, "velocity": 71}, {"time": 1862, "pitch": 52, "duration": 3, "velocity": 83}, {"time": 1862, "pitch": 56, "duration": 4, "velocity": 86}, {"time": 1862, "pitch": 59, "duration": 7, "velocity": 85}, {"time": 1862, "pitch": 64, "duration": 11, "velocity": 82}, {"time": 1865, "pitch": 47, "duration": 5, "velocity": 78}, {"time": 1868, "pitch": 52, "duration": 4, "velocity": 86}, {"time": 1868, "pitch": 56, "duration": 1, "velocity": 68}, {"time": 1871, "pitch": 56, "duration": 2, "velocity": 80}, {"time": 1871, "pitch": 59, "duration": 1, "velocity": 49}, {"time": 1874, "pitch": 40, "duration": 22, "velocity": 84}, {"time": 1874, "pitch": 64, "duration": 5, "velocity": 78}, {"time": 1877, "pitch": 56, "duration": 4, "velocity": 70}, {"time": 1880, "pitch": 59, "duration": 3, "velocity": 70}, {"time": 1883, "pitch": 64, "duration": 7, "velocity": 83}, {"time": 1886, "pitch": 47, "duration": 10, "velocity": 75}, {"time": 1889, "pitch": 56, "duration": 4, "velocity": 79}, {"time": 1892, "pitch": 59, "duration": 4, "velocity": 76}, {"time": 1895, "pitch": 64, "duration": 2, "velocity": 78}, {"time": 1898, "pitch": 40, "duration": 16, "velocity": 84}, {"time": 1898, "pitch": 56, "duration": 3, "velocity": 77}, {"time": 1898, "pitch": 59, "duration": 4, "velocity": 80}, {"time": 1898, "pitch": 64, "duration": 4, "velocity": 84}, {"time": 1901, "pitch": 47, "duration": 10, "velocity": 76}, {"time": 1904, "pitch": 56, "duration": 3, "velocity": 70}, {"time": 1910, "pitch": 56, "duration": 2, "velocity": 85}, {"time": 1910, "pitch": 59, "duration": 3, "velocity": 88}, {"time": 1910, "pitch": 64, "duration": 4, "velocity": 85}, {"time": 1913, "pitch": 47, "duration": 1, "velocity": 79}, {"time": 1916, "pitch": 56, "duration": 4, "velocity": 73}, {"time": 1919, "pitch": 59, "duration": 1, "velocity": 77}, {"time": 1922, "pitch": 44, "duration": 21, "velocity": 84}, {"time": 1922, "pitch": 56, "duration": 3, "velocity": 78}, {"time": 1922, "pitch": 59, "duration": 6, "velocity": 84}, {"time": 1925, "pitch": 51, "duration": 18, "velocity": 82}, {"time": 1928, "pitch": 56, "duration": 3, "velocity": 74}, {"time": 1931, "pitch": 59, "duration": 3, "velocity": 77}, {"time": 1934, "pitch": 63, "duration": 3, "velocity": 91}, {"time": 1937, "pitch": 59, "duration": 3, "velocity": 77}, {"time": 1940, "pitch": 56, "duration": 8, "velocity": 84}, {"time": 1943, "pitch": 63, "duration": 10, "velocity": 85}, {"time": 1946, "pitch": 44, "duration": 14, "velocity": 85}, {"time": 1949, "pitch": 51, "duration": 8, "velocity": 73}, {"time": 1952, "pitch": 56, "duration": 6, "velocity": 75}, {"time": 1955, "pitch": 59, "duration": 6, "velocity": 80}, {"time": 1958, "pitch": 51, "duration": 9, "velocity": 85}, {"time": 1961, "pitch": 56, "duration": 5, "velocity": 79}, {"time": 1964, "pitch": 59, "duration": 3, "velocity": 86}, {"time": 1967, "pitch": 63, "duration": 3, "velocity": 83}, {"time": 1970, "pitch": 45, "duration": 18, "velocity": 85}, {"time": 1970, "pitch": 61, "duration": 6, "velocity": 80}, {"time": 1973, "pitch": 52, "duration": 13, "velocity": 67}, {"time": 1976, "pitch": 57, "duration": 7, "velocity": 77}, {"time": 1979, "pitch": 64, "duration": 12, "velocity": 85}, {"time": 1985, "pitch": 61, "duration": 7, "velocity": 83}, {"time": 1988, "pitch": 52, "duration": 4, "velocity": 80}, {"time": 1991, "pitch": 57, "duration": 1, "velocity": 82}, {"time": 1994, "pitch": 44, "duration": 20, "velocity": 86}, {"time": 1994, "pitch": 59, "duration": 6, "velocity": 77}, {"time": 1997, "pitch": 51, "duration": 7, "velocity": 81}, {"time": 2000, "pitch": 56, "duration": 3, "velocity": 78}, {"time": 2003, "pitch": 63, "duration": 6, "velocity": 90}, {"time": 2006, "pitch": 51, "duration": 9, "velocity": 78}, {"time": 2009, "pitch": 59, "duration": 3, "velocity": 85}, {"time": 2012, "pitch": 56, "duration": 4, "velocity": 79}, {"time": 2015, "pitch": 59, "duration": 3, "velocity": 73}, {"time": 2018, "pitch": 40, "duration": 22, "velocity": 80}, {"time": 2018, "pitch": 59, "duration": 1, "velocity": 81}, {"time": 2021, "pitch": 47, "duration": 18, "velocity": 73}, {"time": 2024, "pitch": 52, "duration": 4, "velocity": 78}, {"time": 2027, "pitch": 64, "duration": 6, "velocity": 84}, {"time": 2033, "pitch": 59, "duration": 3, "velocity": 85}, {"time": 2036, "pitch": 56, "duration": 3, "velocity": 72}, {"time": 2039, "pitch": 59, "duration": 10, "velocity": 84}, {"time": 2042, "pitch": 40, "duration": 17, "velocity": 84}, {"time": 2045, "pitch": 47, "duration": 7, "velocity": 77}, {"time": 2048, "pitch": 52, "duration": 8, "velocity": 80}, {"time": 2051, "pitch": 64, "duration": 9, "velocity": 84}, {"time": 2054, "pitch": 47, "duration": 5, "velocity": 77}, {"time": 2057, "pitch": 59, "duration": 3, "velocity": 84}, {"time": 2060, "pitch": 52, "duration": 1, "velocity": 85}, {"time": 2066, "pitch": 49, "duration": 22, "velocity": 79}, {"time": 2066, "pitch": 56, "duration": 2, "velocity": 72}, {"time": 2066, "pitch": 61, "duration": 3, "velocity": 76}, {"time": 2069, "pitch": 56, "duration": 7, "velocity": 73}, {"time": 2072, "pitch": 61, "duration": 3, "velocity": 74}, {"time": 2075, "pitch": 64, "duration": 5, "velocity": 85}, {"time": 2078, "pitch": 56, "duration": 6, "velocity": 75}, {"time": 2081, "pitch": 61, "duration": 4, "velocity": 75}, {"time": 2084, "pitch": 64, "duration": 6, "velocity": 79}, {"time": 2087, "pitch": 56, "duration": 3, "velocity": 80}, {"time": 2090, "pitch": 49, "duration": 11, "velocity": 88}, {"time": 2090, "pitch": 61, "duration": 3, "velocity": 84}, {"time": 2093, "pitch": 56, "duration": 5, "velocity": 80}, {"time": 2096, "pitch": 61, "duration": 3, "velocity": 83}, {"time": 2099, "pitch": 64, "duration": 5, "velocity": 87}, {"time": 2102, "pitch": 56, "duration": 5, "velocity": 86}, {"time": 2105, "pitch": 61, "duration": 4, "velocity": 85}, {"time": 2108, "pitch": 64, "duration": 3, "velocity": 86}, {"time": 2111, "pitch": 56, "duration": 1, "velocity": 80}, {"time": 2114, "pitch": 42, "duration": 21, "velocity": 84}, {"time": 2114, "pitch": 54, "duration": 3, "velocity": 80}, {"time": 2114, "pitch": 61, "duration": 5, "velocity": 83}, {"time": 2117, "pitch": 49, "duration": 17, "velocity": 70}, {"time": 2120, "pitch": 54, "duration": 7, "velocity": 85}, {"time": 2123, "pitch": 57, "duration": 4, "velocity": 75}, {"time": 2126, "pitch": 66, "duration": 4, "velocity": 84}, {"time": 2129, "pitch": 61, "duration": 4, "velocity": 85}, {"time": 2132, "pitch": 57, "duration": 2, "velocity": 86}, {"time": 2135, "pitch": 54, "duration": 1, "velocity": 85}, {"time": 2138, "pitch": 47, "duration": 18, "velocity": 88}, {"time": 2138, "pitch": 54, "duration": 1, "velocity": 84}, {"time": 2138, "pitch": 59, "duration": 3, "velocity": 84}, {"time": 2141, "pitch": 54, "duration": 4, "velocity": 83}, {"time": 2144, "pitch": 59, "duration": 3, "velocity": 80}, {"time": 2147, "pitch": 61, "duration": 2, "velocity": 84}, {"time": 2150, "pitch": 63, "duration": 3, "velocity": 77}, {"time": 2153, "pitch": 61, "duration": 3, "velocity": 78}, {"time": 2156, "pitch": 59, "duration": 2, "velocity": 76}, {"time": 2160, "pitch": 56, "duration": 12, "velocity": 74}, {"time": 2161, "pitch": 61, "duration": 11, "velocity": 76}, {"time": 2161, "pitch": 37, "duration": 21, "velocity": 88}, {"time": 2162, "pitch": 64, "duration": 10, "velocity": 84}, {"time": 2173, "pitch": 61, "duration": 8, "velocity": 78}, {"time": 2179, "pitch": 56, "duration": 3, "velocity": 60}, {"time": 2185, "pitch": 64, "duration": 10, "velocity": 78}, {"time": 2185, "pitch": 61, "duration": 10, "velocity": 75}, {"time": 2185, "pitch": 56, "duration": 10, "velocity": 75}, {"time": 2197, "pitch": 64, "duration": 5, "velocity": 80}, {"time": 2197, "pitch": 61, "duration": 5, "velocity": 80}, {"time": 2210, "pitch": 37, "duration": 48, "velocity": 80}, {"time": 2210, "pitch": 56, "duration": 3, "velocity": 73}, {"time": 2210, "pitch": 61, "duration": 7, "velocity": 77}, {"time": 2216, "pitch": 56, "duration": 4, "velocity": 66}, {"time": 2222, "pitch": 64, "duration": 8, "velocity": 80}, {"time": 2228, "pitch": 56, "duration": 3, "velocity": 83}, {"time": 2234, "pitch": 56, "duration": 2, "velocity": 73}, {"time": 2234, "pitch": 61, "duration": 7, "velocity": 78}, {"time": 2240, "pitch": 56, "duration": 3, "velocity": 53}, {"time": 2246, "pitch": 56, "duration": 3, "velocity": 81}, {"time": 2246, "pitch": 61, "duration": 1, "velocity": 72}, {"time": 2246, "pitch": 64, "duration": 3, "velocity": 78}, {"time": 2252, "pitch": 59, "duration": 3, "velocity": 80}, {"time": 2255, "pitch": 61, "duration": 2, "velocity": 79}, {"time": 2258, "pitch": 49, "duration": 20, "velocity": 84}, {"time": 2258, "pitch": 56, "duration": 3, "velocity": 75}, {"time": 2258, "pitch": 61, "duration": 9, "velocity": 80}, {"time": 2264, "pitch": 56, "duration": 6, "velocity": 72}, {"time": 2270, "pitch": 61, "duration": 1, "velocity": 46}, {"time": 2270, "pitch": 64, "duration": 7, "velocity": 81}, {"time": 2276, "pitch": 56, "duration": 6, "velocity": 79}, {"time": 2282, "pitch": 49, "duration": 17, "velocity": 82}, {"time": 2282, "pitch": 61, "duration": 6, "velocity": 78}, {"time": 2294, "pitch": 56, "duration": 2, "velocity": 73}, {"time": 2294, "pitch": 61, "duration": 6, "velocity": 79}, {"time": 2294, "pitch": 64, "duration": 6, "velocity": 80}, {"time": 2300, "pitch": 56, "duration": 1, "velocity": 59}, {"time": 2306, "pitch": 44, "duration": 22, "velocity": 84}, {"time": 2306, "pitch": 56, "duration": 6, "velocity": 73}, {"time": 2306, "pitch": 59, "duration": 6, "velocity": 76}, {"time": 2312, "pitch": 51, "duration": 7, "velocity": 66}, {"time": 2318, "pitch": 56, "duration": 9, "velocity": 84}, {"time": 2318, "pitch": 63, "duration": 10, "velocity": 85}, {"time": 2324, "pitch": 51, "duration": 4, "velocity": 61}, {"time": 2330, "pitch": 44, "duration": 21, "velocity": 75}, {"time": 2330, "pitch": 56, "duration": 8, "velocity": 71}, {"time": 2330, "pitch": 59, "duration": 8, "velocity": 71}, {"time": 2336, "pitch": 51, "duration": 6, "velocity": 59}, {"time": 2342, "pitch": 56, "duration": 4, "velocity": 82}, {"time": 2342, "pitch": 59, "duration": 4, "velocity": 84}, {"time": 2345, "pitch": 51, "duration": 6, "velocity": 79}, {"time": 2348, "pitch": 63, "duration": 4, "velocity": 85}, {"time": 2351, "pitch": 56, "duration": 4, "velocity": 73}, {"time": 2354, "pitch": 49, "duration": 18, "velocity": 84}, {"time": 2354, "pitch": 61, "duration": 12, "velocity": 82}, {"time": 2360, "pitch": 56, "duration": 7, "velocity": 69}, {"time": 2366, "pitch": 64, "duration": 12, "velocity": 79}, {"time": 2372, "pitch": 56, "duration": 7, "velocity": 68}, {"time": 2378, "pitch": 49, "duration": 18, "velocity": 79}, {"time": 2378, "pitch": 61, "duration": 8, "velocity": 76}, {"time": 2384, "pitch": 56, "duration": 5, "velocity": 69}, {"time": 2390, "pitch": 61, "duration": 12, "velocity": 79}, {"time": 2390, "pitch": 64, "duration": 6, "velocity": 82}, {"time": 2396, "pitch": 56, "duration": 6, "velocity": 73}, {"time": 2402, "pitch": 44, "duration": 21, "velocity": 77}, {"time": 2402, "pitch": 59, "duration": 6, "velocity": 72}, {"time": 2408, "pitch": 51, "duration": 15, "velocity": 58}, {"time": 2414, "pitch": 56, "duration": 2, "velocity": 76}, {"time": 2414, "pitch": 59, "duration": 2, "velocity": 81}, {"time": 2414, "pitch": 63, "duration": 2, "velocity": 84}, {"time": 2420, "pitch": 63, "duration": 3, "velocity": 77}, {"time": 2423, "pitch": 64, "duration": 3, "velocity": 79}, {"time": 2426, "pitch": 44, "duration": 17, "velocity": 81}, {"time": 2426, "pitch": 63, "duration": 12, "velocity": 83}, {"time": 2432, "pitch": 51, "duration": 7, "velocity": 75}, {"time": 2438, "pitch": 56, "duration": 3, "velocity": 79}, {"time": 2438, "pitch": 59, "duration": 6, "velocity": 84}, {"time": 2441, "pitch": 51, "duration": 3, "velocity": 77}, {"time": 2444, "pitch": 56, "duration": 2, "velocity": 81}, {"time": 2450, "pitch": 45, "duration": 17, "velocity": 85}, {"time": 2450, "pitch": 57, "duration": 11, "velocity": 72}, {"time": 2450, "pitch": 61, "duration": 12, "velocity": 76}, {"time": 2456, "pitch": 52, "duration": 8, "velocity": 66}, {"time": 2462, "pitch": 64, "duration": 18, "velocity": 84}, {"time": 2468, "pitch": 52, "duration": 5, "velocity": 78}, {"time": 2471, "pitch": 57, "duration": 11, "velocity": 72}, {"time": 2474, "pitch": 45, "duration": 14, "velocity": 79}, {"time": 2480, "pitch": 52, "duration": 9, "velocity": 67}, {"time": 2486, "pitch": 57, "duration": 3, "velocity": 84}, {"time": 2486, "pitch": 61, "duration": 4, "velocity": 84}, {"time": 2486, "pitch": 64, "duration": 4, "velocity": 81}, {"time": 2492, "pitch": 45, "duration": 4, "velocity": 75}, {"time": 2498, "pitch": 44, "duration": 19, "velocity": 84}, {"time": 2498, "pitch": 56, "duration": 9, "velocity": 76}, {"time": 2498, "pitch": 63, "duration": 9, "velocity": 82}, {"time": 2504, "pitch": 51, "duration": 7, "velocity": 75}, {"time": 2510, "pitch": 59, "duration": 5, "velocity": 90}, {"time": 2513, "pitch": 51, "duration": 4, "velocity": 78}, {"time": 2516, "pitch": 56, "duration": 7, "velocity": 84}, {"time": 2522, "pitch": 49, "duration": 17, "velocity": 85}, {"time": 2522, "pitch": 61, "duration": 9, "velocity": 83}, {"time": 2528, "pitch": 52, "duration": 10, "velocity": 69}, {"time": 2531, "pitch": 56, "duration": 4, "velocity": 79}, {"time": 2534, "pitch": 64, "duration": 6, "velocity": 85}, {"time": 2537, "pitch": 56, "duration": 3, "velocity": 84}, {"time": 2540, "pitch": 63, "duration": 6, "velocity": 85}, {"time": 2543, "pitch": 56, "duration": 3, "velocity": 70}, {"time": 2546, "pitch": 42, "duration": 18, "velocity": 83}, {"time": 2546, "pitch": 61, "duration": 6, "velocity": 82}, {"time": 2552, "pitch": 49, "duration": 8, "velocity": 64}, {"time": 2558, "pitch": 54, "duration": 2, "velocity": 76}, {"time": 2558, "pitch": 57, "duration": 3, "velocity": 79}, {"time": 2558, "pitch": 61, "duration": 4, "velocity": 83}, {"time": 2564, "pitch": 54, "duration": 3, "velocity": 55}, {"time": 2570, "pitch": 42, "duration": 18, "velocity": 81}, {"time": 2570, "pitch": 54, "duration": 7, "velocity": 75}, {"time": 2570, "pitch": 61, "duration": 8, "velocity": 78}, {"time": 2576, "pitch": 49, "duration": 6, "velocity": 67}, {"time": 2582, "pitch": 54, "duration": 3, "velocity": 85}, {"time": 2582, "pitch": 57, "duration": 4, "velocity": 85}, {"time": 2582, "pitch": 61, "duration": 5, "velocity": 85}, {"time": 2585, "pitch": 49, "duration": 4, "velocity": 77}, {"time": 2588, "pitch": 54, "duration": 3, "velocity": 85}, {"time": 2591, "pitch": 57, "duration": 1, "velocity": 79}, {"time": 2594, "pitch": 35, "duration": 1, "velocity": 85}, {"time": 2594, "pitch": 54, "duration": 9, "velocity": 85}, {"time": 2594, "pitch": 59, "duration": 9, "velocity": 84}, {"time": 2606, "pitch": 54, "duration": 2, "velocity": 87}, {"time": 2606, "pitch": 59, "duration": 4, "velocity": 90}, {"time": 2606, "pitch": 63, "duration": 4, "velocity": 88}, {"time": 2609, "pitch": 51, "duration": 6, "velocity": 78}, {"time": 2612, "pitch": 54, "duration": 3, "velocity": 86}, {"time": 2612, "pitch": 63, "duration": 1, "velocity": 55}, {"time": 2615, "pitch": 59, "duration": 1, "velocity": 85}, {"time": 2618, "pitch": 47, "duration": 5, "velocity": 83}, {"time": 2618, "pitch": 51, "duration": 4, "velocity": 80}, {"time": 2618, "pitch": 61, "duration": 7, "velocity": 86}, {"time": 2618, "pitch": 73, "duration": 8, "velocity": 87}, {"time": 2630, "pitch": 47, "duration": 2, "velocity": 87}, {"time": 2630, "pitch": 51, "duration": 2, "velocity": 85}, {"time": 2636, "pitch": 42, "duration": 3, "velocity": 68}, {"time": 2639, "pitch": 54, "duration": 1, "velocity": 79}, {"time": 2642, "pitch": 47, "duration": 2, "velocity": 85}, {"time": 2642, "pitch": 51, "duration": 2, "velocity": 84}, {"time": 2642, "pitch": 63, "duration": 2, "velocity": 87}, {"time": 2642, "pitch": 75, "duration": 2, "velocity": 93}, {"time": 2648, "pitch": 42, "duration": 3, "velocity": 69}, {"time": 2651, "pitch": 54, "duration": 4, "velocity": 87}, {"time": 2651, "pitch": 59, "duration": 4, "velocity": 87}, {"time": 2654, "pitch": 47, "duration": 3, "velocity": 77}, {"time": 2654, "pitch": 51, "duration": 3, "velocity": 75}, {"time": 2657, "pitch": 54, "duration": 2, "velocity": 80}, {"time": 2657, "pitch": 59, "duration": 3, "velocity": 85}, {"time": 2657, "pitch": 63, "duration": 2, "velocity": 91}, {"time": 2663, "pitch": 54, "duration": 1, "velocity": 64}, {"time": 2666, "pitch": 47, "duration": 3, "velocity": 86}, {"time": 2666, "pitch": 51, "duration": 3, "velocity": 85}, {"time": 2666, "pitch": 54, "duration": 3, "velocity": 84}, {"time": 2666, "pitch": 59, "duration": 3, "velocity": 86}, {"time": 2666, "pitch": 66, "duration": 5, "velocity": 84}, {"time": 2672, "pitch": 47, "duration": 2, "velocity": 79}, {"time": 2672, "pitch": 51, "duration": 2, "velocity": 76}, {"time": 2678, "pitch": 47, "duration": 6, "velocity": 78}, {"time": 2678, "pitch": 51, "duration": 6, "velocity": 85}, {"time": 2678, "pitch": 61, "duration": 1, "velocity": 91}, {"time": 2678, "pitch": 73, "duration": 1, "velocity": 98}, {"time": 2684, "pitch": 63, "duration": 1, "velocity": 95}, {"time": 2684, "pitch": 75, "duration": 1, "velocity": 91}, {"time": 2690, "pitch": 40, "duration": 22, "velocity": 83}, {"time": 2690, "pitch": 56, "duration": 2, "velocity": 78}, {"time": 2690, "pitch": 64, "duration": 6, "velocity": 83}, {"time": 2696, "pitch": 56, "duration": 3, "velocity": 78}, {"time": 2702, "pitch": 56, "duration": 2, "velocity": 84}, {"time": 2702, "pitch": 59, "duration": 2, "velocity": 86}, {"time": 2702, "pitch": 64, "duration": 2, "velocity": 85}, {"time": 2705, "pitch": 47, "duration": 5, "velocity": 80}, {"time": 2708, "pitch": 56, "duration": 4, "velocity": 77}, {"time": 2711, "pitch": 59, "duration": 2, "velocity": 81}, {"time": 2714, "pitch": 40, "duration": 15, "velocity": 84}, {"time": 2714, "pitch": 56, "duration": 6, "velocity": 77}, {"time": 2714, "pitch": 59, "duration": 6, "velocity": 84}, {"time": 2714, "pitch": 64, "duration": 6, "velocity": 82}, {"time": 2720, "pitch": 47, "duration": 6, "velocity": 64}, {"time": 2726, "pitch": 56, "duration": 2, "velocity": 83}, {"time": 2726, "pitch": 59, "duration": 3, "velocity": 90}, {"time": 2726, "pitch": 64, "duration": 4, "velocity": 84}, {"time": 2729, "pitch": 47, "duration": 1, "velocity": 84}, {"time": 2732, "pitch": 56, "duration": 4, "velocity": 84}, {"time": 2738, "pitch": 44, "duration": 20, "velocity": 85}, {"time": 2738, "pitch": 56, "duration": 3, "velocity": 70}, {"time": 2738, "pitch": 63, "duration": 5, "velocity": 85}, {"time": 2744, "pitch": 51, "duration": 6, "velocity": 71}, {"time": 2750, "pitch": 56, "duration": 2, "velocity": 83}, {"time": 2750, "pitch": 59, "duration": 2, "velocity": 85}, {"time": 2750, "pitch": 63, "duration": 3, "velocity": 90}, {"time": 2753, "pitch": 51, "duration": 5, "velocity": 79}, {"time": 2756, "pitch": 61, "duration": 3, "velocity": 76}, {"time": 2759, "pitch": 63, "duration": 3, "velocity": 78}, {"time": 2762, "pitch": 44, "duration": 20, "velocity": 84}, {"time": 2762, "pitch": 56, "duration": 5, "velocity": 75}, {"time": 2762, "pitch": 59, "duration": 6, "velocity": 74}, {"time": 2768, "pitch": 51, "duration": 7, "velocity": 74}, {"time": 2774, "pitch": 56, "duration": 3, "velocity": 85}, {"time": 2774, "pitch": 63, "duration": 4, "velocity": 87}, {"time": 2777, "pitch": 51, "duration": 4, "velocity": 79}, {"time": 2780, "pitch": 56, "duration": 1, "velocity": 72}, {"time": 2780, "pitch": 59, "duration": 2, "velocity": 84}, {"time": 2783, "pitch": 56, "duration": 1, "velocity": 75}, {"time": 2786, "pitch": 49, "duration": 13, "velocity": 85}, {"time": 2786, "pitch": 64, "duration": 7, "velocity": 85}, {"time": 2792, "pitch": 56, "duration": 3, "velocity": 79}, {"time": 2798, "pitch": 56, "duration": 3, "velocity": 84}, {"time": 2798, "pitch": 61, "duration": 3, "velocity": 84}, {"time": 2798, "pitch": 64, "duration": 3, "velocity": 85}, {"time": 2801, "pitch": 49, "duration": 1, "velocity": 76}, {"time": 2804, "pitch": 56, "duration": 4, "velocity": 84}, {"time": 2807, "pitch": 61, "duration": 1, "velocity": 76}, {"time": 2810, "pitch": 37, "duration": 10, "velocity": 85}, {"time": 2810, "pitch": 56, "duration": 3, "velocity": 80}, {"time": 2810, "pitch": 61, "duration": 7, "velocity": 84}, {"time": 2810, "pitch": 64, "duration": 4, "velocity": 80}, {"time": 2816, "pitch": 56, "duration": 2, "velocity": 75}, {"time": 2822, "pitch": 56, "duration": 2, "velocity": 85}, {"time": 2822, "pitch": 61, "duration": 4, "velocity": 86}, {"time": 2822, "pitch": 64, "duration": 4, "velocity": 85}, {"time": 2828, "pitch": 37, "duration": 2, "velocity": 87}, {"time": 2828, "pitch": 56, "duration": 3, "velocity": 78}, {"time": 2828, "pitch": 61, "duration": 4, "velocity": 80}, {"time": 2834, "pitch": 47, "duration": 9, "velocity": 86}, {"time": 2834, "pitch": 54, "duration": 2, "velocity": 79}, {"time": 2834, "pitch": 59, "duration": 3, "velocity": 78}, {"time": 2840, "pitch": 54, "duration": 2, "velocity": 79}, {"time": 2840, "pitch": 59, "duration": 1, "velocity": 65}, {"time": 2846, "pitch": 54, "duration": 2, "velocity": 85}, {"time": 2846, "pitch": 59, "duration": 4, "velocity": 86}, {"time": 2846, "pitch": 63, "duration": 6, "velocity": 88}, {"time": 2852, "pitch": 54, "duration": 4, "velocity": 88}, {"time": 2858, "pitch": 47, "duration": 15, "velocity": 95}, {"time": 2858, "pitch": 54, "duration": 2, "velocity": 84}, {"time": 2858, "pitch": 59, "duration": 6, "velocity": 80}, {"time": 2864, "pitch": 54, "duration": 3, "velocity": 78}, {"time": 2870, "pitch": 54, "duration": 3, "velocity": 85}, {"time": 2870, "pitch": 59, "duration": 4, "velocity": 86}, {"time": 2870, "pitch": 63, "duration": 4, "velocity": 89}, {"time": 2876, "pitch": 47, "duration": 1, "velocity": 90}, {"time": 2876, "pitch": 54, "duration": 2, "velocity": 83}, {"time": 2876, "pitch": 59, "duration": 1, "velocity": 79}, {"time": 2882, "pitch": 45, "duration": 18, "velocity": 87}, {"time": 2882, "pitch": 52, "duration": 2, "velocity": 80}, {"time": 2882, "pitch": 57, "duration": 4, "velocity": 79}, {"time": 2882, "pitch": 61, "duration": 4, "velocity": 83}, {"time": 2888, "pitch": 52, "duration": 5, "velocity": 79}, {"time": 2894, "pitch": 57, "duration": 1, "velocity": 72}, {"time": 2894, "pitch": 64, "duration": 6, "velocity": 85}, {"time": 2897, "pitch": 52, "duration": 3, "velocity": 85}, {"time": 2900, "pitch": 57, "duration": 3, "velocity": 81}, {"time": 2903, "pitch": 52, "duration": 3, "velocity": 83}, {"time": 2906, "pitch": 45, "duration": 10, "velocity": 85}, {"time": 2906, "pitch": 57, "duration": 1, "velocity": 57}, {"time": 2906, "pitch": 61, "duration": 4, "velocity": 82}, {"time": 2909, "pitch": 52, "duration": 3, "velocity": 73}, {"time": 2912, "pitch": 57, "duration": 2, "velocity": 69}, {"time": 2918, "pitch": 45, "duration": 3, "velocity": 87}, {"time": 2918, "pitch": 52, "duration": 2, "velocity": 76}, {"time": 2918, "pitch": 57, "duration": 4, "velocity": 72}, {"time": 2918, "pitch": 64, "duration": 10, "velocity": 82}, {"time": 2924, "pitch": 45, "duration": 1, "velocity": 87}, {"time": 2924, "pitch": 52, "duration": 1, "velocity": 84}, {"time": 2930, "pitch": 44, "duration": 21, "velocity": 85}, {"time": 2930, "pitch": 56, "duration": 4, "velocity": 79}, {"time": 2930, "pitch": 59, "duration": 5, "velocity": 79}, {"time": 2936, "pitch": 51, "duration": 7, "velocity": 74}, {"time": 2942, "pitch": 56, "duration": 2, "velocity": 85}, {"time": 2942, "pitch": 63, "duration": 2, "velocity": 87}, {"time": 2945, "pitch": 51, "duration": 4, "velocity": 77}, {"time": 2948, "pitch": 59, "duration": 2, "velocity": 84}, {"time": 2951, "pitch": 56, "duration": 1, "velocity": 71}, {"time": 2954, "pitch": 44, "duration": 17, "velocity": 79}, {"time": 2954, "pitch": 56, "duration": 5, "velocity": 74}, {"time": 2954, "pitch": 59, "duration": 5, "velocity": 76}, {"time": 2960, "pitch": 51, "duration": 5, "velocity": 60}, {"time": 2963, "pitch": 56, "duration": 1, "velocity": 81}, {"time": 2966, "pitch": 56, "duration": 3, "velocity": 81}, {"time": 2966, "pitch": 59, "duration": 4, "velocity": 85}, {"time": 2966, "pitch": 63, "duration": 4, "velocity": 86}, {"time": 2969, "pitch": 51, "duration": 2, "velocity": 86}, {"time": 2972, "pitch": 56, "duration": 1, "velocity": 83}, {"time": 2978, "pitch": 42, "duration": 9, "velocity": 85}, {"time": 2978, "pitch": 54, "duration": 3, "velocity": 80}, {"time": 2978, "pitch": 57, "duration": 4, "velocity": 84}, {"time": 2978, "pitch": 61, "duration": 5, "velocity": 80}, {"time": 2984, "pitch": 49, "duration": 3, "velocity": 72}, {"time": 2984, "pitch": 54, "duration": 1, "velocity": 85}, {"time": 2990, "pitch": 42, "duration": 7, "velocity": 86}, {"time": 2990, "pitch": 49, "duration": 9, "velocity": 85}, {"time": 3002, "pitch": 42, "duration": 15, "velocity": 85}, {"time": 3002, "pitch": 54, "duration": 5, "velocity": 85}, {"time": 3002, "pitch": 61, "duration": 5, "velocity": 90}, {"time": 3008, "pitch": 49, "duration": 7, "velocity": 80}, {"time": 3011, "pitch": 54, "duration": 1, "velocity": 73}, {"time": 3014, "pitch": 54, "duration": 3, "velocity": 85}, {"time": 3014, "pitch": 57, "duration": 3, "velocity": 87}, {"time": 3014, "pitch": 61, "duration": 4, "velocity": 86}, {"time": 3017, "pitch": 49, "duration": 1, "velocity": 80}, {"time": 3020, "pitch": 42, "duration": 4, "velocity": 84}, {"time": 3020, "pitch": 54, "duration": 2, "velocity": 81}, {"time": 3026, "pitch": 47, "duration": 16, "velocity": 86}, {"time": 3026, "pitch": 54, "duration": 2, "velocity": 79}, {"time": 3026, "pitch": 59, "duration": 3, "velocity": 83}, {"time": 3032, "pitch": 59, "duration": 3, "velocity": 82}, {"time": 3038, "pitch": 54, "duration": 2, "velocity": 86}, {"time": 3038, "pitch": 61, "duration": 4, "velocity": 88}, {"time": 3044, "pitch": 54, "duration": 4, "velocity": 87}, {"time": 3050, "pitch": 47, "duration": 13, "velocity": 86}, {"time": 3050, "pitch": 54, "duration": 2, "velocity": 84}, {"time": 3050, "pitch": 59, "duration": 4, "velocity": 84}, {"time": 3050, "pitch": 63, "duration": 6, "velocity": 86}, {"time": 3056, "pitch": 54, "duration": 1, "velocity": 72}, {"time": 3059, "pitch": 54, "duration": 1, "velocity": 79}, {"time": 3059, "pitch": 59, "duration": 1, "velocity": 79}, {"time": 3059, "pitch": 63, "duration": 1, "velocity": 85}, {"time": 3062, "pitch": 54, "duration": 3, "velocity": 85}, {"time": 3062, "pitch": 59, "duration": 3, "velocity": 89}, {"time": 3062, "pitch": 63, "duration": 4, "velocity": 89}, {"time": 3065, "pitch": 47, "duration": 8, "velocity": 85}, {"time": 3068, "pitch": 54, "duration": 3, "velocity": 79}, {"time": 3068, "pitch": 61, "duration": 3, "velocity": 85}, {"time": 3071, "pitch": 59, "duration": 2, "velocity": 85}, {"time": 3074, "pitch": 40, "duration": 22, "velocity": 83}, {"time": 3074, "pitch": 56, "duration": 2, "velocity": 78}, {"time": 3074, "pitch": 64, "duration": 6, "velocity": 83}, {"time": 3080, "pitch": 56, "duration": 3, "velocity": 78}, {"time": 3086, "pitch": 56, "duration": 2, "velocity": 84}, {"time": 3086, "pitch": 59, "duration": 2, "velocity": 86}, {"time": 3086, "pitch": 64, "duration": 2, "velocity": 85}, {"time": 3089, "pitch": 47, "duration": 5, "velocity": 80}, {"time": 3092, "pitch": 56, "duration": 4, "velocity": 77}, {"time": 3095, "pitch": 59, "duration": 2, "velocity": 81}, {"time": 3098, "pitch": 40, "duration": 15, "velocity": 84}, {"time": 3098, "pitch": 56, "duration": 6, "velocity": 77}, {"time": 3098, "pitch": 59, "duration": 6, "velocity": 84}, {"time": 3098, "pitch": 64, "duration": 6, "velocity": 82}, {"time": 3104, "pitch": 47, "duration": 6, "velocity": 64}, {"time": 3110, "pitch": 56, "duration": 2, "velocity": 83}, {"time": 3110, "pitch": 59, "duration": 3, "velocity": 90}, {"time": 3110, "pitch": 64, "duration": 4, "velocity": 84}, {"time": 3113, "pitch": 47, "duration": 1, "velocity": 84}, {"time": 3116, "pitch": 56, "duration": 4, "velocity": 84}, {"time": 3122, "pitch": 44, "duration": 20, "velocity": 85}, {"time": 3122, "pitch": 56, "duration": 3, "velocity": 70}, {"time": 3122, "pitch": 63, "duration": 5, "velocity": 85}, {"time": 3128, "pitch": 51, "duration": 6, "velocity": 71}, {"time": 3134, "pitch": 56, "duration": 2, "velocity": 83}, {"time": 3134, "pitch": 59, "duration": 2, "velocity": 85}, {"time": 3134, "pitch": 63, "duration": 3, "velocity": 90}, {"time": 3137, "pitch": 51, "duration": 5, "velocity": 79}, {"time": 3140, "pitch": 61, "duration": 3, "velocity": 76}, {"time": 3143, "pitch": 63, "duration": 3, "velocity": 78}, {"time": 3146, "pitch": 44, "duration": 20, "velocity": 84}, {"time": 3146, "pitch": 56, "duration": 5, "velocity": 75}, {"time": 3146, "pitch": 59, "duration": 6, "velocity": 74}, {"time": 3152, "pitch": 51, "duration": 7, "velocity": 74}, {"time": 3158, "pitch": 56, "duration": 3, "velocity": 85}, {"time": 3158, "pitch": 63, "duration": 4, "velocity": 87}, {"time": 3161, "pitch": 51, "duration": 4, "velocity": 79}, {"time": 3164, "pitch": 56, "duration": 1, "velocity": 72}, {"time": 3164, "pitch": 59, "duration": 2, "velocity": 84}, {"time": 3167, "pitch": 56, "duration": 1, "velocity": 75}, {"time": 3170, "pitch": 49, "duration": 13, "velocity": 85}, {"time": 3170, "pitch": 64, "duration": 7, "velocity": 85}, {"time": 3176, "pitch": 56, "duration": 3, "velocity": 79}, {"time": 3182, "pitch": 56, "duration": 3, "velocity": 84}, {"time": 3182, "pitch": 61, "duration": 3, "velocity": 84}, {"time": 3182, "pitch": 64, "duration": 3, "velocity": 85}, {"time": 3185, "pitch": 49, "duration": 1, "velocity": 76}, {"time": 3188, "pitch": 56, "duration": 4, "velocity": 84}, {"time": 3191, "pitch": 61, "duration": 1, "velocity": 76}, {"time": 3194, "pitch": 37, "duration": 10, "velocity": 85}, {"time": 3194, "pitch": 56, "duration": 3, "velocity": 80}, {"time": 3194, "pitch": 61, "duration": 7, "velocity": 84}, {"time": 3194, "pitch": 64, "duration": 4, "velocity": 80}, {"time": 3200, "pitch": 56, "duration": 2, "velocity": 75}, {"time": 3206, "pitch": 56, "duration": 2, "velocity": 85}, {"time": 3206, "pitch": 61, "duration": 4, "velocity": 86}, {"time": 3206, "pitch": 64, "duration": 4, "velocity": 85}, {"time": 3212, "pitch": 37, "duration": 2, "velocity": 87}, {"time": 3212, "pitch": 56, "duration": 3, "velocity": 78}, {"time": 3212, "pitch": 61, "duration": 4, "velocity": 80}, {"time": 3218, "pitch": 47, "duration": 9, "velocity": 86}, {"time": 3218, "pitch": 54, "duration": 2, "velocity": 79}, {"time": 3218, "pitch": 59, "duration": 3, "velocity": 78}, {"time": 3224, "pitch": 54, "duration": 2, "velocity": 79}, {"time": 3224, "pitch": 59, "duration": 1, "velocity": 65}, {"time": 3230, "pitch": 54, "duration": 2, "velocity": 85}, {"time": 3230, "pitch": 59, "duration": 4, "velocity": 86}, {"time": 3230, "pitch": 63, "duration": 6, "velocity": 88}, {"time": 3236, "pitch": 54, "duration": 4, "velocity": 88}, {"time": 3242, "pitch": 47, "duration": 15, "velocity": 95}, {"time": 3242, "pitch": 54, "duration": 2, "velocity": 84}, {"time": 3242, "pitch": 59, "duration": 6, "velocity": 80}, {"time": 3248, "pitch": 54, "duration": 3, "velocity": 78}, {"time": 3254, "pitch": 54, "duration": 3, "velocity": 85}, {"time": 3254, "pitch": 59, "duration": 4, "velocity": 86}, {"time": 3254, "pitch": 63, "duration": 4, "velocity": 89}, {"time": 3260, "pitch": 47, "duration": 1, "velocity": 90}, {"time": 3260, "pitch": 54, "duration": 2, "velocity": 83}, {"time": 3260, "pitch": 59, "duration": 1, "velocity": 79}, {"time": 3266, "pitch": 45, "duration": 18, "velocity": 87}, {"time": 3266, "pitch": 52, "duration": 2, "velocity": 80}, {"time": 3266, "pitch": 57, "duration": 4, "velocity": 79}, {"time": 3266, "pitch": 61, "duration": 4, "velocity": 83}, {"time": 3272, "pitch": 52, "duration": 5, "velocity": 79}, {"time": 3278, "pitch": 57, "duration": 1, "velocity": 72}, {"time": 3278, "pitch": 64, "duration": 6, "velocity": 85}, {"time": 3281, "pitch": 52, "duration": 3, "velocity": 85}, {"time": 3284, "pitch": 57, "duration": 3, "velocity": 81}, {"time": 3287, "pitch": 52, "duration": 3, "velocity": 83}, {"time": 3290, "pitch": 45, "duration": 10, "velocity": 85}, {"time": 3290, "pitch": 57, "duration": 1, "velocity": 57}, {"time": 3290, "pitch": 61, "duration": 4, "velocity": 82}, {"time": 3293, "pitch": 52, "duration": 3, "velocity": 73}, {"time": 3296, "pitch": 57, "duration": 2, "velocity": 69}, {"time": 3302, "pitch": 45, "duration": 3, "velocity": 87}, {"time": 3302, "pitch": 52, "duration": 2, "velocity": 76}, {"time": 3302, "pitch": 57, "duration": 4, "velocity": 72}, {"time": 3302, "pitch": 64, "duration": 10, "velocity": 82}, {"time": 3308, "pitch": 45, "duration": 1, "velocity": 87}, {"time": 3308, "pitch": 52, "duration": 1, "velocity": 84}, {"time": 3314, "pitch": 44, "duration": 21, "velocity": 85}, {"time": 3314, "pitch": 56, "duration": 4, "velocity": 79}, {"time": 3314, "pitch": 59, "duration": 5, "velocity": 79}, {"time": 3320, "pitch": 51, "duration": 7, "velocity": 74}, {"time": 3326, "pitch": 56, "duration": 2, "velocity": 85}, {"time": 3326, "pitch": 63, "duration": 2, "velocity": 87}, {"time": 3329, "pitch": 51, "duration": 4, "velocity": 77}, {"time": 3332, "pitch": 59, "duration": 2, "velocity": 84}, {"time": 3335, "pitch": 56, "duration": 1, "velocity": 71}, {"time": 3338, "pitch": 44, "duration": 17, "velocity": 79}, {"time": 3338, "pitch": 56, "duration": 5, "velocity": 74}, {"time": 3338, "pitch": 59, "duration": 5, "velocity": 76}, {"time": 3344, "pitch": 51, "duration": 5, "velocity": 60}, {"time": 3347, "pitch": 56, "duration": 1, "velocity": 81}, {"time": 3350, "pitch": 56, "duration": 3, "velocity": 81}, {"time": 3350, "pitch": 59, "duration": 4, "velocity": 85}, {"time": 3350, "pitch": 63, "duration": 4, "velocity": 86}, {"time": 3353, "pitch": 51, "duration": 2, "velocity": 86}, {"time": 3356, "pitch": 56, "duration": 1, "velocity": 83}, {"time": 3362, "pitch": 42, "duration": 21, "velocity": 85}, {"time": 3362, "pitch": 54, "duration": 6, "velocity": 79}, {"time": 3362, "pitch": 57, "duration": 6, "velocity": 73}, {"time": 3362, "pitch": 61, "duration": 6, "velocity": 83}, {"time": 3368, "pitch": 49, "duration": 6, "velocity": 74}, {"time": 3374, "pitch": 54, "duration": 3, "velocity": 84}, {"time": 3374, "pitch": 57, "duration": 4, "velocity": 87}, {"time": 3374, "pitch": 61, "duration": 4, "velocity": 87}, {"time": 3377, "pitch": 49, "duration": 6, "velocity": 79}, {"time": 3380, "pitch": 54, "duration": 3, "velocity": 83}, {"time": 3383, "pitch": 57, "duration": 1, "velocity": 84}, {"time": 3386, "pitch": 47, "duration": 17, "velocity": 84}, {"time": 3386, "pitch": 54, "duration": 3, "velocity": 79}, {"time": 3386, "pitch": 59, "duration": 8, "velocity": 83}, {"time": 3392, "pitch": 54, "duration": 3, "velocity": 76}, {"time": 3398, "pitch": 54, "duration": 2, "velocity": 85}, {"time": 3398, "pitch": 59, "duration": 4, "velocity": 84}, {"time": 3398, "pitch": 63, "duration": 6, "velocity": 85}, {"time": 3404, "pitch": 54, "duration": 1, "velocity": 72}, {"time": 3410, "pitch": 40, "duration": 21, "velocity": 84}, {"time": 3410, "pitch": 59, "duration": 9, "velocity": 83}, {"time": 3416, "pitch": 47, "duration": 15, "velocity": 73}, {"time": 3422, "pitch": 64, "duration": 9, "velocity": 80}, {"time": 3428, "pitch": 52, "duration": 14, "velocity": 81}, {"time": 3434, "pitch": 40, "duration": 17, "velocity": 76}, {"time": 3434, "pitch": 56, "duration": 7, "velocity": 73}, {"time": 3434, "pitch": 59, "duration": 8, "velocity": 72}, {"time": 3440, "pitch": 47, "duration": 10, "velocity": 63}, {"time": 3446, "pitch": 52, "duration": 8, "velocity": 70}, {"time": 3446, "pitch": 56, "duration": 8, "velocity": 69}, {"time": 3458, "pitch": 37, "duration": 18, "velocity": 88}, {"time": 3464, "pitch": 56, "duration": 7, "velocity": 78}, {"time": 3470, "pitch": 61, "duration": 5, "velocity": 80}, {"time": 3470, "pitch": 64, "duration": 7, "velocity": 83}, {"time": 3482, "pitch": 37, "duration": 14, "velocity": 79}, {"time": 3482, "pitch": 56, "duration": 4, "velocity": 70}, {"time": 3482, "pitch": 61, "duration": 7, "velocity": 74}, {"time": 3494, "pitch": 61, "duration": 3, "velocity": 80}, {"time": 3494, "pitch": 64, "duration": 3, "velocity": 81}, {"time": 3506, "pitch": 40, "duration": 24, "velocity": 81}, {"time": 3506, "pitch": 52, "duration": 12, "velocity": 73}, {"time": 3506, "pitch": 56, "duration": 11, "velocity": 75}, {"time": 3512, "pitch": 47, "duration": 18, "velocity": 74}, {"time": 3518, "pitch": 59, "duration": 6, "velocity": 79}, {"time": 3524, "pitch": 52, "duration": 8, "velocity": 69}, {"time": 3530, "pitch": 56, "duration": 4, "velocity": 72}, {"time": 3530, "pitch": 59, "duration": 4, "velocity": 73}, {"time": 3530, "pitch": 64, "duration": 4, "velocity": 73}, {"time": 3553, "pitch": 56, "duration": 13, "velocity": 75}, {"time": 3553, "pitch": 52, "duration": 13, "velocity": 76}, {"time": 3553, "pitch": 37, "duration": 22, "velocity": 86}, {"time": 3559, "pitch": 44, "duration": 15, "velocity": 70}, {"time": 3565, "pitch": 61, "duration": 3, "velocity": 80}, {"time": 3572, "pitch": 56, "duration": 10, "velocity": 85}, {"time": 3578, "pitch": 37, "duration": 14, "velocity": 84}, {"time": 3578, "pitch": 64, "duration": 15, "velocity": 76}, {"time": 3584, "pitch": 44, "duration": 8, "velocity": 58}, {"time": 3591, "pitch": 61, "duration": 3, "velocity": 78}, {"time": 3603, "pitch": 40, "duration": 46, "velocity": 76}, {"time": 3605, "pitch": 47, "duration": 44, "velocity": 72}, {"time": 3605, "pitch": 52, "duration": 44, "velocity": 71}, {"time": 3607, "pitch": 56, "duration": 42, "velocity": 72}, {"time": 3608, "pitch": 59, "duration": 42, "velocity": 73}, {"time": 3608, "pitch": 64, "duration": 42, "velocity": 71}], "annotations": [{"time": 8, "annotation": {"number": 64, "value": 127}, "group": "control_change"}, {"time": 8, "annotation": {"number": 64, "value": 0}, "group": "control_change"}, {"time": 48, "annotation": {"number": 64, "value": 0}, "group": "control_change"}, {"time": 52, "annotation": {"number": 64, "value": 127}, "group": "control_change"}, {"time": 96, "annotation": {"number": 64, "value": 0}, "group": "control_change"}, {"time": 98, "annotation": {"number": 64, "value": 127}, "group": "control_change"}, {"time": 121, "annotation": {"number": 64, "value": 0}, "group": "control_change"}, {"time": 127, "annotation": {"number": 64, "value": 127}, "group": "control_change"}, {"time": 144, "annotation": {"number": 64, "value": 0}, "group": "control_change"}, {"time": 146, "annotation": {"number": 64, "value": 127}, "group": "control_change"}, {"time": 169, "annotation": {"number": 64, "value": 0}, "group": "control_change"}, {"time": 170, "annotation": {"number": 64, "value": 127}, "group": "control_change"}, {"time": 192, "annotation": {"number": 64, "value": 0}, "group": "control_change"}, {"time": 195, "annotation": {"number": 64, "value": 127}, "group": "control_change"}, {"time": 195, "annotation": {"number": 64, "value": 0}, "group": "control_change"}, {"time": 239, "annotation": {"number": 64, "value": 0}, "group": "control_change"}, {"time": 241, "annotation": {"number": 64, "value": 127}, "group": "control_change"}, {"time": 264, "annotation": {"number": 64, "value": 0}, "group": "control_change"}, {"time": 264, "annotation": {"number": 64, "value": 127}, "group": "control_change"}, {"time": 285, "annotation": {"number": 64, "value": 0}, "group": "control_change"}, {"time": 290, "annotation": {"number": 64, "value": 127}, "group": "control_change"}, {"time": 335, "annotation": {"number": 64, "value": 0}, "group": "control_change"}, {"time": 338, "annotation": {"number": 64, "value": 127}, "group": "control_change"}, {"time": 384, "annotation": {"number": 64, "value": 0}, "group": "control_change"}, {"time": 385, "annotation": {"number": 64, "value": 127}, "group": "control_change"}, {"time": 406, "annotation": {"number": 64, "value": 0}, "group": "control_change"}, {"time": 408, "annotation": {"number": 64, "value": 127}, "group": "control_change"}, {"time": 431, "annotation": {"number": 64, "value": 0}, "group": "control_change"}, {"time": 433, "annotation": {"number": 64, "value": 127}, "group": "control_change"}, {"time": 456, "annotation": {"number": 64, "value": 0}, "group": "control_change"}, {"time": 457, "annotation": {"number": 64, "value": 127}, "group": "control_change"}, {"time": 479, "annotation": {"number": 64, "value": 0}, "group": "control_change"}, {"time": 482, "annotation": {"number": 64, "value": 127}, "group": "control_change"}, {"time": 503, "annotation": {"number": 64, "value": 0}, "group": "control_change"}, {"time": 504, "annotation": {"number": 64, "value": 127}, "group": "control_change"}, {"time": 528, "annotation": {"number": 64, "value": 0}, "group": "control_change"}, {"time": 530, "annotation": {"number": 64, "value": 127}, "group": "control_change"}, {"time": 552, "annotation": {"number": 64, "value": 0}, "group": "control_change"}, {"time": 553, "annotation": {"number": 64, "value": 127}, "group": "control_change"}, {"time": 577, "annotation": {"number": 64, "value": 0}, "group": "control_change"}, {"time": 582, "annotation": {"number": 64, "value": 127}, "group": "control_change"}, {"time": 600, "annotation": {"number": 64, "value": 0}, "group": "control_change"}, {"time": 602, "annotation": {"number": 64, "value": 127}, "group": "control_change"}, {"time": 623, "annotation": {"number": 64, "value": 0}, "group": "control_change"}, {"time": 625, "annotation": {"number": 64, "value": 127}, "group": "control_change"}, {"time": 646, "annotation": {"number": 64, "value": 0}, "group": "control_change"}, {"time": 648, "annotation": {"number": 64, "value": 127}, "group": "control_change"}, {"time": 670, "annotation": {"number": 64, "value": 0}, "group": "control_change"}, {"time": 674, "annotation": {"number": 64, "value": 127}, "group": "control_change"}, {"time": 719, "annotation": {"number": 64, "value": 0}, "group": "control_change"}, {"time": 722, "annotation": {"number": 64, "value": 127}, "group": "control_change"}, {"time": 768, "annotation": {"number": 64, "value": 0}, "group": "control_change"}, {"time": 769, "annotation": {"number": 64, "value": 127}, "group": "control_change"}, {"time": 790, "annotation": {"number": 64, "value": 0}, "group": "control_change"}, {"time": 792, "annotation": {"number": 64, "value": 127}, "group": "control_change"}, {"time": 815, "annotation": {"number": 64, "value": 0}, "group": "control_change"}, {"time": 817, "annotation": {"number": 64, "value": 127}, "group": "control_change"}, {"time": 840, "annotation": {"number": 64, "value": 0}, "group": "control_change"}, {"time": 841, "annotation": {"number": 64, "value": 127}, "group": "control_change"}, {"time": 863, "annotation": {"number": 64, "value": 0}, "group": "control_change"}, {"time": 866, "annotation": {"number": 64, "value": 127}, "group": "control_change"}, {"time": 887, "annotation": {"number": 64, "value": 0}, "group": "control_change"}, {"time": 888, "annotation": {"number": 64, "value": 127}, "group": "control_change"}, {"time": 912, "annotation": {"number": 64, "value": 0}, "group": "control_change"}, {"time": 913, "annotation": {"number": 64, "value": 127}, "group": "control_change"}, {"time": 913, "annotation": {"number": 64, "value": 0}, "group": "control_change"}, {"time": 936, "annotation": {"number": 64, "value": 0}, "group": "control_change"}, {"time": 938, "annotation": {"number": 64, "value": 127}, "group": "control_change"}, {"time": 959, "annotation": {"number": 64, "value": 0}, "group": "control_change"}, {"time": 961, "annotation": {"number": 64, "value": 127}, "group": "control_change"}, {"time": 985, "annotation": {"number": 64, "value": 0}, "group": "control_change"}, {"time": 987, "annotation": {"number": 64, "value": 127}, "group": "control_change"}, {"time": 1008, "annotation": {"number": 64, "value": 0}, "group": "control_change"}, {"time": 1008, "annotation": {"number": 64, "value": 127}, "group": "control_change"}, {"time": 1009, "annotation": {"number": 64, "value": 0}, "group": "control_change"}, {"time": 1009, "annotation": {"number": 64, "value": 127}, "group": "control_change"}, {"time": 1056, "annotation": {"number": 64, "value": 0}, "group": "control_change"}, {"time": 1057, "annotation": {"number": 64, "value": 127}, "group": "control_change"}, {"time": 1079, "annotation": {"number": 64, "value": 0}, "group": "control_change"}, {"time": 1081, "annotation": {"number": 64, "value": 127}, "group": "control_change"}, {"time": 1105, "annotation": {"number": 64, "value": 0}, "group": "control_change"}, {"time": 1127, "annotation": {"number": 64, "value": 0}, "group": "control_change"}, {"time": 1129, "annotation": {"number": 64, "value": 127}, "group": "control_change"}, {"time": 1152, "annotation": {"number": 64, "value": 0}, "group": "control_change"}, {"time": 1154, "annotation": {"number": 64, "value": 127}, "group": "control_change"}, {"time": 1175, "annotation": {"number": 64, "value": 0}, "group": "control_change"}, {"time": 1177, "annotation": {"number": 64, "value": 127}, "group": "control_change"}, {"time": 1200, "annotation": {"number": 64, "value": 0}, "group": "control_change"}, {"time": 1201, "annotation": {"number": 64, "value": 127}, "group": "control_change"}, {"time": 1224, "annotation": {"number": 64, "value": 0}, "group": "control_change"}, {"time": 1225, "annotation": {"number": 64, "value": 127}, "group": "control_change"}, {"time": 1247, "annotation": {"number": 64, "value": 0}, "group": "control_change"}, {"time": 1249, "annotation": {"number": 64, "value": 127}, "group": "control_change"}, {"time": 1271, "annotation": {"number": 64, "value": 0}, "group": "control_change"}, {"time": 1273, "annotation": {"number": 64, "value": 127}, "group": "control_change"}, {"time": 1295, "annotation": {"number": 64, "value": 0}, "group": "control_change"}, {"time": 1297, "annotation": {"number": 64, "value": 127}, "group": "control_change"}, {"time": 1320, "annotation": {"number": 64, "value": 0}, "group": "control_change"}, {"time": 1321, "annotation": {"number": 64, "value": 127}, "group": "control_change"}, {"time": 1344, "annotation": {"number": 64, "value": 0}, "group": "control_change"}, {"time": 1346, "annotation": {"number": 64, "value": 127}, "group": "control_change"}, {"time": 1367, "annotation": {"number": 64, "value": 0}, "group": "control_change"}, {"time": 1369, "annotation": {"number": 64, "value": 127}, "group": "control_change"}, {"time": 1392, "annotation": {"number": 64, "value": 0}, "group": "control_change"}, {"time": 1394, "annotation": {"number": 64, "value": 127}, "group": "control_change"}, {"time": 1439, "annotation": {"number": 64, "value": 0}, "group": "control_change"}, {"time": 1440, "annotation": {"number": 64, "value": 127}, "group": "control_change"}, {"time": 1463, "annotation": {"number": 64, "value": 0}, "group": "control_change"}, {"time": 1464, "annotation": {"number": 64, "value": 127}, "group": "control_change"}, {"time": 1487, "annotation": {"number": 64, "value": 0}, "group": "control_change"}, {"time": 1511, "annotation": {"number": 64, "value": 0}, "group": "control_change"}, {"time": 1513, "annotation": {"number": 64, "value": 127}, "group": "control_change"}, {"time": 1536, "annotation": {"number": 64, "value": 0}, "group": "control_change"}, {"time": 1538, "annotation": {"number": 64, "value": 127}, "group": "control_change"}, {"time": 1559, "annotation": {"number": 64, "value": 0}, "group": "control_change"}, {"time": 1561, "annotation": {"number": 64, "value": 127}, "group": "control_change"}, {"time": 1584, "annotation": {"number": 64, "value": 0}, "group": "control_change"}, {"time": 1585, "annotation": {"number": 64, "value": 127}, "group": "control_change"}, {"time": 1608, "annotation": {"number": 64, "value": 0}, "group": "control_change"}, {"time": 1609, "annotation": {"number": 64, "value": 127}, "group": "control_change"}, {"time": 1631, "annotation": {"number": 64, "value": 0}, "group": "control_change"}, {"time": 1633, "annotation": {"number": 64, "value": 127}, "group": "control_change"}, {"time": 1655, "annotation": {"number": 64, "value": 0}, "group": "control_change"}, {"time": 1657, "annotation": {"number": 64, "value": 127}, "group": "control_change"}, {"time": 1679, "annotation": {"number": 64, "value": 0}, "group": "control_change"}, {"time": 1681, "annotation": {"number": 64, "value": 127}, "group": "control_change"}, {"time": 1704, "annotation": {"number": 64, "value": 0}, "group": "control_change"}, {"time": 1705, "annotation": {"number": 64, "value": 127}, "group": "control_change"}, {"time": 1728, "annotation": {"number": 64, "value": 0}, "group": "control_change"}, {"time": 1730, "annotation": {"number": 64, "value": 127}, "group": "control_change"}, {"time": 1751, "annotation": {"number": 64, "value": 0}, "group": "control_change"}, {"time": 1753, "annotation": {"number": 64, "value": 127}, "group": "control_change"}, {"time": 1776, "annotation": {"number": 64, "value": 0}, "group": "control_change"}, {"time": 1777, "annotation": {"number": 64, "value": 127}, "group": "control_change"}, {"time": 1800, "annotation": {"number": 64, "value": 0}, "group": "control_change"}, {"time": 1801, "annotation": {"number": 64, "value": 127}, "group": "control_change"}, {"time": 1824, "annotation": {"number": 64, "value": 0}, "group": "control_change"}, {"time": 1826, "annotation": {"number": 64, "value": 127}, "group": "control_change"}, {"time": 1871, "annotation": {"number": 64, "value": 0}, "group": "control_change"}, {"time": 1873, "annotation": {"number": 64, "value": 127}, "group": "control_change"}, {"time": 1895, "annotation": {"number": 64, "value": 0}, "group": "control_change"}, {"time": 1897, "annotation": {"number": 64, "value": 127}, "group": "control_change"}, {"time": 1920, "annotation": {"number": 64, "value": 0}, "group": "control_change"}, {"time": 1922, "annotation": {"number": 64, "value": 127}, "group": "control_change"}, {"time": 1944, "annotation": {"number": 64, "value": 0}, "group": "control_change"}, {"time": 1946, "annotation": {"number": 64, "value": 127}, "group": "control_change"}, {"time": 1968, "annotation": {"number": 64, "value": 0}, "group": "control_change"}, {"time": 1980, "annotation": {"number": 64, "value": 127}, "group": "control_change"}, {"time": 1992, "annotation": {"number": 64, "value": 0}, "group": "control_change"}, {"time": 1994, "annotation": {"number": 64, "value": 127}, "group": "control_change"}, {"time": 2016, "annotation": {"number": 64, "value": 0}, "group": "control_change"}, {"time": 2016, "annotation": {"number": 64, "value": 127}, "group": "control_change"}, {"time": 2040, "annotation": {"number": 64, "value": 0}, "group": "control_change"}, {"time": 2044, "annotation": {"number": 64, "value": 127}, "group": "control_change"}, {"time": 2044, "annotation": {"number": 64, "value": 0}, "group": "control_change"}, {"time": 2064, "annotation": {"number": 64, "value": 0}, "group": "control_change"}, {"time": 2066, "annotation": {"number": 64, "value": 127}, "group": "control_change"}, {"time": 2089, "annotation": {"number": 64, "value": 0}, "group": "control_change"}, {"time": 2090, "annotation": {"number": 64, "value": 127}, "group": "control_change"}, {"time": 2112, "annotation": {"number": 64, "value": 0}, "group": "control_change"}, {"time": 2114, "annotation": {"number": 64, "value": 127}, "group": "control_change"}, {"time": 2135, "annotation": {"number": 64, "value": 0}, "group": "control_change"}, {"time": 2137, "annotation": {"number": 64, "value": 127}, "group": "control_change"}, {"time": 2155, "annotation": {"number": 64, "value": 127}, "group": "control_change"}, {"time": 2158, "annotation": {"number": 64, "value": 0}, "group": "control_change"}, {"time": 2160, "annotation": {"number": 64, "value": 0}, "group": "control_change"}, {"time": 2161, "annotation": {"number": 64, "value": 127}, "group": "control_change"}, {"time": 2208, "annotation": {"number": 64, "value": 0}, "group": "control_change"}, {"time": 2209, "annotation": {"number": 64, "value": 127}, "group": "control_change"}, {"time": 2256, "annotation": {"number": 64, "value": 0}, "group": "control_change"}, {"time": 2258, "annotation": {"number": 64, "value": 127}, "group": "control_change"}, {"time": 2303, "annotation": {"number": 64, "value": 0}, "group": "control_change"}, {"time": 2306, "annotation": {"number": 64, "value": 127}, "group": "control_change"}, {"time": 2352, "annotation": {"number": 64, "value": 0}, "group": "control_change"}, {"time": 2353, "annotation": {"number": 64, "value": 127}, "group": "control_change"}, {"time": 2374, "annotation": {"number": 64, "value": 0}, "group": "control_change"}, {"time": 2376, "annotation": {"number": 64, "value": 127}, "group": "control_change"}, {"time": 2399, "annotation": {"number": 64, "value": 0}, "group": "control_change"}, {"time": 2401, "annotation": {"number": 64, "value": 127}, "group": "control_change"}, {"time": 2424, "annotation": {"number": 64, "value": 0}, "group": "control_change"}, {"time": 2425, "annotation": {"number": 64, "value": 127}, "group": "control_change"}, {"time": 2447, "annotation": {"number": 64, "value": 0}, "group": "control_change"}, {"time": 2450, "annotation": {"number": 64, "value": 127}, "group": "control_change"}, {"time": 2471, "annotation": {"number": 64, "value": 0}, "group": "control_change"}, {"time": 2472, "annotation": {"number": 64, "value": 127}, "group": "control_change"}, {"time": 2496, "annotation": {"number": 64, "value": 0}, "group": "control_change"}, {"time": 2497, "annotation": {"number": 64, "value": 127}, "group": "control_change"}, {"time": 2497, "annotation": {"number": 64, "value": 0}, "group": "control_change"}, {"time": 2520, "annotation": {"number": 64, "value": 0}, "group": "control_change"}, {"time": 2522, "annotation": {"number": 64, "value": 127}, "group": "control_change"}, {"time": 2543, "annotation": {"number": 64, "value": 0}, "group": "control_change"}, {"time": 2545, "annotation": {"number": 64, "value": 127}, "group": "control_change"}, {"time": 2569, "annotation": {"number": 64, "value": 0}, "group": "control_change"}, {"time": 2571, "annotation": {"number": 64, "value": 127}, "group": "control_change"}, {"time": 2592, "annotation": {"number": 64, "value": 0}, "group": "control_change"}, {"time": 2592, "annotation": {"number": 64, "value": 127}, "group": "control_change"}, {"time": 2593, "annotation": {"number": 64, "value": 0}, "group": "control_change"}, {"time": 2593, "annotation": {"number": 64, "value": 127}, "group": "control_change"}, {"time": 2640, "annotation": {"number": 64, "value": 0}, "group": "control_change"}, {"time": 2641, "annotation": {"number": 64, "value": 127}, "group": "control_change"}, {"time": 2663, "annotation": {"number": 64, "value": 0}, "group": "control_change"}, {"time": 2665, "annotation": {"number": 64, "value": 127}, "group": "control_change"}, {"time": 2689, "annotation": {"number": 64, "value": 0}, "group": "control_change"}, {"time": 2711, "annotation": {"number": 64, "value": 0}, "group": "control_change"}, {"time": 2713, "annotation": {"number": 64, "value": 127}, "group": "control_change"}, {"time": 2736, "annotation": {"number": 64, "value": 0}, "group": "control_change"}, {"time": 2738, "annotation": {"number": 64, "value": 127}, "group": "control_change"}, {"time": 2759, "annotation": {"number": 64, "value": 0}, "group": "control_change"}, {"time": 2761, "annotation": {"number": 64, "value": 127}, "group": "control_change"}, {"time": 2784, "annotation": {"number": 64, "value": 0}, "group": "control_change"}, {"time": 2785, "annotation": {"number": 64, "value": 127}, "group": "control_change"}, {"time": 2808, "annotation": {"number": 64, "value": 0}, "group": "control_change"}, {"time": 2809, "annotation": {"number": 64, "value": 127}, "group": "control_change"}, {"time": 2831, "annotation": {"number": 64, "value": 0}, "group": "control_change"}, {"time": 2833, "annotation": {"number": 64, "value": 127}, "group": "control_change"}, {"time": 2855, "annotation": {"number": 64, "value": 0}, "group": "control_change"}, {"time": 2857, "annotation": {"number": 64, "value": 127}, "group": "control_change"}, {"time": 2879, "annotation": {"number": 64, "value": 0}, "group": "control_change"}, {"time": 2881, "annotation": {"number": 64, "value": 127}, "group": "control_change"}, {"time": 2904, "annotation": {"number": 64, "value": 0}, "group": "control_change"}, {"time": 2905, "annotation": {"number": 64, "value": 127}, "group": "control_change"}, {"time": 2928, "annotation": {"number": 64, "value": 0}, "group": "control_change"}, {"time": 2930, "annotation": {"number": 64, "value": 127}, "group": "control_change"}, {"time": 2951, "annotation": {"number": 64, "value": 0}, "group": "control_change"}, {"time": 2953, "annotation": {"number": 64, "value": 127}, "group": "control_change"}, {"time": 2976, "annotation": {"number": 64, "value": 0}, "group": "control_change"}, {"time": 2978, "annotation": {"number": 64, "value": 127}, "group": "control_change"}, {"time": 3023, "annotation": {"number": 64, "value": 0}, "group": "control_change"}, {"time": 3024, "annotation": {"number": 64, "value": 127}, "group": "control_change"}, {"time": 3047, "annotation": {"number": 64, "value": 0}, "group": "control_change"}, {"time": 3048, "annotation": {"number": 64, "value": 127}, "group": "control_change"}, {"time": 3071, "annotation": {"number": 64, "value": 0}, "group": "control_change"}, {"time": 3095, "annotation": {"number": 64, "value": 0}, "group": "control_change"}, {"time": 3097, "annotation": {"number": 64, "value": 127}, "group": "control_change"}, {"time": 3120, "annotation": {"number": 64, "value": 0}, "group": "control_change"}, {"time": 3122, "annotation": {"number": 64, "value": 127}, "group": "control_change"}, {"time": 3143, "annotation": {"number": 64, "value": 0}, "group": "control_change"}, {"time": 3145, "annotation": {"number": 64, "value": 127}, "group": "control_change"}, {"time": 3168, "annotation": {"number": 64, "value": 0}, "group": "control_change"}, {"time": 3169, "annotation": {"number": 64, "value": 127}, "group": "control_change"}, {"time": 3192, "annotation": {"number": 64, "value": 0}, "group": "control_change"}, {"time": 3193, "annotation": {"number": 64, "value": 127}, "group": "control_change"}, {"time": 3215, "annotation": {"number": 64, "value": 0}, "group": "control_change"}, {"time": 3217, "annotation": {"number": 64, "value": 127}, "group": "control_change"}, {"time": 3239, "annotation": {"number": 64, "value": 0}, "group": "control_change"}, {"time": 3241, "annotation": {"number": 64, "value": 127}, "group": "control_change"}, {"time": 3263, "annotation": {"number": 64, "value": 0}, "group": "control_change"}, {"time": 3265, "annotation": {"number": 64, "value": 127}, "group": "control_change"}, {"time": 3288, "annotation": {"number": 64, "value": 0}, "group": "control_change"}, {"time": 3289, "annotation": {"number": 64, "value": 127}, "group": "control_change"}, {"time": 3312, "annotation": {"number": 64, "value": 0}, "group": "control_change"}, {"time": 3314, "annotation": {"number": 64, "value": 127}, "group": "control_change"}, {"time": 3335, "annotation": {"number": 64, "value": 0}, "group": "control_change"}, {"time": 3337, "annotation": {"number": 64, "value": 127}, "group": "control_change"}, {"time": 3360, "annotation": {"number": 64, "value": 0}, "group": "control_change"}, {"time": 3361, "annotation": {"number": 64, "value": 127}, "group": "control_change"}, {"time": 3384, "annotation": {"number": 64, "value": 0}, "group": "control_change"}, {"time": 3385, "annotation": {"number": 64, "value": 127}, "group": "control_change"}, {"time": 3408, "annotation": {"number": 64, "value": 0}, "group": "control_change"}, {"time": 3411, "annotation": {"number": 64, "value": 127}, "group": "control_change"}, {"time": 3411, "annotation": {"number": 64, "value": 0}, "group": "control_change"}, {"time": 3455, "annotation": {"number": 64, "value": 0}, "group": "control_change"}, {"time": 3459, "annotation": {"number": 64, "value": 127}, "group": "control_change"}, {"time": 3459, "annotation": {"number": 64, "value": 0}, "group": "control_change"}, {"time": 3505, "annotation": {"number": 64, "value": 0}, "group": "control_change"}, {"time": 3511, "annotation": {"number": 64, "value": 127}, "group": "control_change"}, {"time": 3553, "annotation": {"number": 64, "value": 0}, "group": "control_change"}, {"time": 3558, "annotation": {"number": 64, "value": 127}, "group": "control_change"}, {"time": 3606, "annotation": {"number": 64, "value": 0}, "group": "control_change"}]}]}