{"metadata": {"schema_version": "0.2", "title": "None", "source_filename": "785.mid", "source_format": "midi"}, "resolution": 12, "tempos": [{"time": 0, "qpm": 82.00014760026568}], "time_signatures": [{"time": 0, "numerator": 1, "denominator": 4}], "tracks": [{"program": 4, "is_drum": false, "name": "MELODY", "notes": [{"time": 434, "pitch": 76, "duration": 12, "velocity": 88}, {"time": 446, "pitch": 72, "duration": 9, "velocity": 84}, {"time": 458, "pitch": 74, "duration": 12, "velocity": 89}, {"time": 470, "pitch": 71, "duration": 11, "velocity": 83}, {"time": 482, "pitch": 69, "duration": 5, "velocity": 87}, {"time": 488, "pitch": 71, "duration": 7, "velocity": 78}, {"time": 494, "pitch": 64, "duration": 7, "velocity": 90}, {"time": 500, "pitch": 71, "duration": 7, "velocity": 88}, {"time": 506, "pitch": 69, "duration": 20, "velocity": 88}, {"time": 530, "pitch": 72, "duration": 11, "velocity": 78}, {"time": 542, "pitch": 69, "duration": 10, "velocity": 88}, {"time": 554, "pitch": 79, "duration": 8, "velocity": 79}, {"time": 560, "pitch": 81, "duration": 7, "velocity": 84}, {"time": 566, "pitch": 79, "duration": 10, "velocity": 88}, {"time": 578, "pitch": 76, "duration": 6, "velocity": 88}, {"time": 584, "pitch": 79, "duration": 7, "velocity": 90}, {"time": 590, "pitch": 76, "duration": 7, "velocity": 88}, {"time": 596, "pitch": 74, "duration": 6, "velocity": 89}, {"time": 602, "pitch": 76, "duration": 19, "velocity": 85}, {"time": 626, "pitch": 77, "duration": 10, "velocity": 82}, {"time": 638, "pitch": 69, "duration": 6, "velocity": 88}, {"time": 644, "pitch": 76, "duration": 7, "velocity": 89}, {"time": 650, "pitch": 74, "duration": 20, "velocity": 89}, {"time": 674, "pitch": 76, "duration": 6, "velocity": 89}, {"time": 680, "pitch": 79, "duration": 7, "velocity": 87}, {"time": 686, "pitch": 76, "duration": 7, "velocity": 88}, {"time": 692, "pitch": 74, "duration": 6, "velocity": 86}, {"time": 698, "pitch": 72, "duration": 18, "velocity": 83}, {"time": 722, "pitch": 76, "duration": 5, "velocity": 89}, {"time": 728, "pitch": 74, "duration": 4, "velocity": 89}, {"time": 734, "pitch": 74, "duration": 5, "velocity": 89}, {"time": 740, "pitch": 79, "duration": 6, "velocity": 85}, {"time": 746, "pitch": 76, "duration": 5, "velocity": 84}, {"time": 752, "pitch": 74, "duration": 4, "velocity": 89}, {"time": 758, "pitch": 74, "duration": 6, "velocity": 89}, {"time": 764, "pitch": 76, "duration": 6, "velocity": 82}, {"time": 770, "pitch": 69, "duration": 45, "velocity": 86}, {"time": 818, "pitch": 76, "duration": 12, "velocity": 88}, {"time": 830, "pitch": 72, "duration": 9, "velocity": 84}, {"time": 842, "pitch": 74, "duration": 12, "velocity": 89}, {"time": 854, "pitch": 71, "duration": 11, "velocity": 83}, {"time": 866, "pitch": 69, "duration": 5, "velocity": 87}, {"time": 872, "pitch": 71, "duration": 7, "velocity": 78}, {"time": 878, "pitch": 64, "duration": 7, "velocity": 90}, {"time": 884, "pitch": 71, "duration": 7, "velocity": 88}, {"time": 890, "pitch": 69, "duration": 20, "velocity": 88}, {"time": 914, "pitch": 72, "duration": 11, "velocity": 78}, {"time": 926, "pitch": 69, "duration": 10, "velocity": 88}, {"time": 938, "pitch": 79, "duration": 8, "velocity": 79}, {"time": 944, "pitch": 81, "duration": 7, "velocity": 84}, {"time": 950, "pitch": 79, "duration": 10, "velocity": 88}, {"time": 962, "pitch": 76, "duration": 6, "velocity": 88}, {"time": 968, "pitch": 79, "duration": 7, "velocity": 90}, {"time": 974, "pitch": 76, "duration": 7, "velocity": 88}, {"time": 980, "pitch": 74, "duration": 6, "velocity": 89}, {"time": 986, "pitch": 76, "duration": 19, "velocity": 85}, {"time": 1010, "pitch": 77, "duration": 10, "velocity": 82}, {"time": 1022, "pitch": 69, "duration": 6, "velocity": 88}, {"time": 1028, "pitch": 76, "duration": 7, "velocity": 89}, {"time": 1034, "pitch": 74, "duration": 20, "velocity": 89}, {"time": 1058, "pitch": 76, "duration": 6, "velocity": 89}, {"time": 1064, "pitch": 79, "duration": 6, "velocity": 87}, {"time": 1070, "pitch": 79, "duration": 7, "velocity": 88}, {"time": 1076, "pitch": 81, "duration": 12, "velocity": 86}, {"time": 1094, "pitch": 76, "duration": 12, "velocity": 83}, {"time": 1106, "pitch": 76, "duration": 5, "velocity": 89}, {"time": 1112, "pitch": 74, "duration": 4, "velocity": 89}, {"time": 1118, "pitch": 74, "duration": 5, "velocity": 89}, {"time": 1124, "pitch": 79, "duration": 6, "velocity": 85}, {"time": 1130, "pitch": 76, "duration": 5, "velocity": 84}, {"time": 1136, "pitch": 74, "duration": 4, "velocity": 89}, {"time": 1142, "pitch": 74, "duration": 6, "velocity": 89}, {"time": 1148, "pitch": 76, "duration": 6, "velocity": 82}, {"time": 1154, "pitch": 69, "duration": 36, "velocity": 86}, {"time": 1190, "pitch": 76, "duration": 7, "velocity": 94}, {"time": 1196, "pitch": 79, "duration": 7, "velocity": 90}, {"time": 1202, "pitch": 81, "duration": 19, "velocity": 89}, {"time": 1220, "pitch": 84, "duration": 7, "velocity": 90}, {"time": 1226, "pitch": 83, "duration": 7, "velocity": 92}, {"time": 1232, "pitch": 81, "duration": 7, "velocity": 89}, {"time": 1238, "pitch": 79, "duration": 6, "velocity": 88}, {"time": 1244, "pitch": 83, "duration": 7, "velocity": 89}, {"time": 1250, "pitch": 81, "duration": 33, "velocity": 92}, {"time": 1286, "pitch": 76, "duration": 7, "velocity": 94}, {"time": 1292, "pitch": 79, "duration": 7, "velocity": 90}, {"time": 1298, "pitch": 81, "duration": 19, "velocity": 89}, {"time": 1316, "pitch": 84, "duration": 7, "velocity": 90}, {"time": 1322, "pitch": 83, "duration": 7, "velocity": 92}, {"time": 1328, "pitch": 81, "duration": 7, "velocity": 89}, {"time": 1334, "pitch": 79, "duration": 6, "velocity": 88}, {"time": 1340, "pitch": 83, "duration": 12, "velocity": 89}, {"time": 1352, "pitch": 76, "duration": 30, "velocity": 92}, {"time": 1382, "pitch": 69, "duration": 6, "velocity": 90}, {"time": 1388, "pitch": 76, "duration": 7, "velocity": 90}, {"time": 1394, "pitch": 74, "duration": 19, "velocity": 94}, {"time": 1412, "pitch": 72, "duration": 6, "velocity": 85}, {"time": 1418, "pitch": 74, "duration": 13, "velocity": 93}, {"time": 1430, "pitch": 81, "duration": 11, "velocity": 89}, {"time": 1442, "pitch": 76, "duration": 7, "velocity": 89}, {"time": 1448, "pitch": 79, "duration": 6, "velocity": 88}, {"time": 1454, "pitch": 76, "duration": 6, "velocity": 89}, {"time": 1460, "pitch": 74, "duration": 7, "velocity": 90}, {"time": 1466, "pitch": 76, "duration": 20, "velocity": 90}, {"time": 1490, "pitch": 76, "duration": 13, "velocity": 87}, {"time": 1502, "pitch": 74, "duration": 6, "velocity": 89}, {"time": 1508, "pitch": 72, "duration": 7, "velocity": 83}, {"time": 1514, "pitch": 74, "duration": 13, "velocity": 95}, {"time": 1526, "pitch": 79, "duration": 14, "velocity": 84}, {"time": 1538, "pitch": 76, "duration": 34, "velocity": 84}, {"time": 1574, "pitch": 76, "duration": 7, "velocity": 94}, {"time": 1580, "pitch": 79, "duration": 7, "velocity": 90}, {"time": 1586, "pitch": 81, "duration": 19, "velocity": 89}, {"time": 1604, "pitch": 84, "duration": 7, "velocity": 90}, {"time": 1610, "pitch": 83, "duration": 7, "velocity": 92}, {"time": 1616, "pitch": 81, "duration": 7, "velocity": 89}, {"time": 1622, "pitch": 79, "duration": 6, "velocity": 88}, {"time": 1628, "pitch": 83, "duration": 7, "velocity": 89}, {"time": 1634, "pitch": 81, "duration": 33, "velocity": 92}, {"time": 1670, "pitch": 76, "duration": 7, "velocity": 94}, {"time": 1676, "pitch": 79, "duration": 7, "velocity": 90}, {"time": 1682, "pitch": 81, "duration": 19, "velocity": 89}, {"time": 1700, "pitch": 84, "duration": 7, "velocity": 90}, {"time": 1706, "pitch": 83, "duration": 12, "velocity": 92}, {"time": 1718, "pitch": 81, "duration": 7, "velocity": 89}, {"time": 1724, "pitch": 79, "duration": 12, "velocity": 88}, {"time": 1736, "pitch": 76, "duration": 30, "velocity": 92}, {"time": 1766, "pitch": 69, "duration": 6, "velocity": 90}, {"time": 1772, "pitch": 76, "duration": 7, "velocity": 90}, {"time": 1778, "pitch": 74, "duration": 19, "velocity": 94}, {"time": 1796, "pitch": 72, "duration": 6, "velocity": 85}, {"time": 1802, "pitch": 74, "duration": 13, "velocity": 93}, {"time": 1814, "pitch": 81, "duration": 11, "velocity": 89}, {"time": 1826, "pitch": 76, "duration": 7, "velocity": 89}, {"time": 1832, "pitch": 79, "duration": 6, "velocity": 88}, {"time": 1838, "pitch": 76, "duration": 6, "velocity": 89}, {"time": 1844, "pitch": 74, "duration": 7, "velocity": 90}, {"time": 1850, "pitch": 76, "duration": 20, "velocity": 90}, {"time": 1874, "pitch": 76, "duration": 13, "velocity": 87}, {"time": 1886, "pitch": 74, "duration": 6, "velocity": 89}, {"time": 1892, "pitch": 72, "duration": 7, "velocity": 83}, {"time": 1898, "pitch": 74, "duration": 13, "velocity": 95}, {"time": 1910, "pitch": 76, "duration": 12, "velocity": 84}, {"time": 1922, "pitch": 69, "duration": 34, "velocity": 84}, {"time": 2354, "pitch": 76, "duration": 12, "velocity": 88}, {"time": 2366, "pitch": 72, "duration": 9, "velocity": 84}, {"time": 2378, "pitch": 74, "duration": 12, "velocity": 89}, {"time": 2390, "pitch": 71, "duration": 11, "velocity": 83}, {"time": 2402, "pitch": 69, "duration": 5, "velocity": 87}, {"time": 2408, "pitch": 71, "duration": 7, "velocity": 78}, {"time": 2414, "pitch": 64, "duration": 7, "velocity": 90}, {"time": 2420, "pitch": 71, "duration": 7, "velocity": 88}, {"time": 2426, "pitch": 69, "duration": 20, "velocity": 88}, {"time": 2450, "pitch": 72, "duration": 11, "velocity": 78}, {"time": 2462, "pitch": 69, "duration": 10, "velocity": 88}, {"time": 2474, "pitch": 79, "duration": 8, "velocity": 79}, {"time": 2480, "pitch": 81, "duration": 7, "velocity": 84}, {"time": 2486, "pitch": 79, "duration": 10, "velocity": 88}, {"time": 2498, "pitch": 76, "duration": 6, "velocity": 88}, {"time": 2504, "pitch": 79, "duration": 7, "velocity": 90}, {"time": 2510, "pitch": 76, "duration": 7, "velocity": 88}, {"time": 2516, "pitch": 74, "duration": 6, "velocity": 89}, {"time": 2522, "pitch": 76, "duration": 19, "velocity": 85}, {"time": 2546, "pitch": 77, "duration": 10, "velocity": 82}, {"time": 2558, "pitch": 69, "duration": 6, "velocity": 88}, {"time": 2564, "pitch": 76, "duration": 7, "velocity": 89}, {"time": 2570, "pitch": 74, "duration": 20, "velocity": 89}, {"time": 2594, "pitch": 76, "duration": 6, "velocity": 89}, {"time": 2600, "pitch": 79, "duration": 7, "velocity": 87}, {"time": 2606, "pitch": 76, "duration": 7, "velocity": 88}, {"time": 2612, "pitch": 74, "duration": 6, "velocity": 86}, {"time": 2618, "pitch": 72, "duration": 18, "velocity": 83}, {"time": 2642, "pitch": 76, "duration": 5, "velocity": 89}, {"time": 2648, "pitch": 74, "duration": 4, "velocity": 89}, {"time": 2654, "pitch": 74, "duration": 5, "velocity": 89}, {"time": 2660, "pitch": 79, "duration": 6, "velocity": 85}, {"time": 2666, "pitch": 76, "duration": 5, "velocity": 84}, {"time": 2672, "pitch": 74, "duration": 4, "velocity": 89}, {"time": 2678, "pitch": 74, "duration": 6, "velocity": 89}, {"time": 2684, "pitch": 76, "duration": 6, "velocity": 82}, {"time": 2690, "pitch": 69, "duration": 45, "velocity": 86}, {"time": 2738, "pitch": 76, "duration": 12, "velocity": 88}, {"time": 2750, "pitch": 72, "duration": 9, "velocity": 84}, {"time": 2762, "pitch": 74, "duration": 12, "velocity": 89}, {"time": 2774, "pitch": 71, "duration": 11, "velocity": 83}, {"time": 2786, "pitch": 69, "duration": 5, "velocity": 87}, {"time": 2792, "pitch": 71, "duration": 7, "velocity": 78}, {"time": 2798, "pitch": 64, "duration": 7, "velocity": 90}, {"time": 2804, "pitch": 71, "duration": 7, "velocity": 88}, {"time": 2810, "pitch": 69, "duration": 20, "velocity": 88}, {"time": 2834, "pitch": 72, "duration": 11, "velocity": 78}, {"time": 2846, "pitch": 69, "duration": 10, "velocity": 88}, {"time": 2858, "pitch": 79, "duration": 8, "velocity": 79}, {"time": 2864, "pitch": 81, "duration": 7, "velocity": 84}, {"time": 2870, "pitch": 79, "duration": 10, "velocity": 88}, {"time": 2882, "pitch": 76, "duration": 6, "velocity": 88}, {"time": 2888, "pitch": 79, "duration": 7, "velocity": 90}, {"time": 2894, "pitch": 76, "duration": 7, "velocity": 88}, {"time": 2900, "pitch": 74, "duration": 6, "velocity": 89}, {"time": 2906, "pitch": 76, "duration": 19, "velocity": 85}, {"time": 2930, "pitch": 77, "duration": 10, "velocity": 82}, {"time": 2942, "pitch": 69, "duration": 6, "velocity": 88}, {"time": 2948, "pitch": 76, "duration": 7, "velocity": 89}, {"time": 2954, "pitch": 74, "duration": 20, "velocity": 89}, {"time": 2978, "pitch": 76, "duration": 6, "velocity": 89}, {"time": 2984, "pitch": 79, "duration": 6, "velocity": 87}, {"time": 2990, "pitch": 79, "duration": 7, "velocity": 88}, {"time": 2996, "pitch": 81, "duration": 12, "velocity": 86}, {"time": 3014, "pitch": 76, "duration": 12, "velocity": 83}, {"time": 3026, "pitch": 76, "duration": 5, "velocity": 89}, {"time": 3032, "pitch": 74, "duration": 4, "velocity": 89}, {"time": 3038, "pitch": 74, "duration": 5, "velocity": 89}, {"time": 3044, "pitch": 79, "duration": 6, "velocity": 85}, {"time": 3050, "pitch": 76, "duration": 5, "velocity": 84}, {"time": 3056, "pitch": 74, "duration": 4, "velocity": 89}, {"time": 3062, "pitch": 74, "duration": 6, "velocity": 89}, {"time": 3068, "pitch": 76, "duration": 6, "velocity": 82}, {"time": 3074, "pitch": 69, "duration": 36, "velocity": 86}, {"time": 3110, "pitch": 76, "duration": 7, "velocity": 94}, {"time": 3116, "pitch": 79, "duration": 7, "velocity": 90}, {"time": 3122, "pitch": 81, "duration": 19, "velocity": 89}, {"time": 3140, "pitch": 84, "duration": 7, "velocity": 90}, {"time": 3146, "pitch": 83, "duration": 7, "velocity": 92}, {"time": 3152, "pitch": 81, "duration": 7, "velocity": 89}, {"time": 3158, "pitch": 79, "duration": 6, "velocity": 88}, {"time": 3164, "pitch": 83, "duration": 7, "velocity": 89}, {"time": 3170, "pitch": 81, "duration": 33, "velocity": 92}, {"time": 3206, "pitch": 76, "duration": 7, "velocity": 94}, {"time": 3212, "pitch": 79, "duration": 7, "velocity": 90}, {"time": 3218, "pitch": 81, "duration": 19, "velocity": 89}, {"time": 3236, "pitch": 84, "duration": 7, "velocity": 90}, {"time": 3242, "pitch": 83, "duration": 7, "velocity": 92}, {"time": 3248, "pitch": 81, "duration": 7, "velocity": 89}, {"time": 3254, "pitch": 79, "duration": 6, "velocity": 88}, {"time": 3260, "pitch": 83, "duration": 12, "velocity": 89}, {"time": 3272, "pitch": 76, "duration": 30, "velocity": 92}, {"time": 3302, "pitch": 69, "duration": 6, "velocity": 90}, {"time": 3308, "pitch": 76, "duration": 7, "velocity": 90}, {"time": 3314, "pitch": 74, "duration": 19, "velocity": 94}, {"time": 3332, "pitch": 72, "duration": 6, "velocity": 85}, {"time": 3338, "pitch": 74, "duration": 13, "velocity": 93}, {"time": 3350, "pitch": 81, "duration": 11, "velocity": 89}, {"time": 3362, "pitch": 76, "duration": 7, "velocity": 89}, {"time": 3368, "pitch": 79, "duration": 6, "velocity": 88}, {"time": 3374, "pitch": 76, "duration": 6, "velocity": 89}, {"time": 3380, "pitch": 74, "duration": 7, "velocity": 90}, {"time": 3386, "pitch": 76, "duration": 20, "velocity": 90}, {"time": 3410, "pitch": 76, "duration": 13, "velocity": 87}, {"time": 3422, "pitch": 74, "duration": 6, "velocity": 89}, {"time": 3428, "pitch": 72, "duration": 7, "velocity": 83}, {"time": 3434, "pitch": 74, "duration": 13, "velocity": 95}, {"time": 3446, "pitch": 79, "duration": 14, "velocity": 84}, {"time": 3458, "pitch": 76, "duration": 34, "velocity": 84}, {"time": 3494, "pitch": 76, "duration": 7, "velocity": 94}, {"time": 3500, "pitch": 79, "duration": 7, "velocity": 90}, {"time": 3506, "pitch": 81, "duration": 19, "velocity": 89}, {"time": 3524, "pitch": 84, "duration": 7, "velocity": 90}, {"time": 3530, "pitch": 83, "duration": 7, "velocity": 92}, {"time": 3536, "pitch": 81, "duration": 7, "velocity": 89}, {"time": 3542, "pitch": 79, "duration": 6, "velocity": 88}, {"time": 3548, "pitch": 83, "duration": 7, "velocity": 89}, {"time": 3554, "pitch": 81, "duration": 33, "velocity": 92}, {"time": 3590, "pitch": 76, "duration": 7, "velocity": 94}, {"time": 3596, "pitch": 79, "duration": 7, "velocity": 90}, {"time": 3602, "pitch": 81, "duration": 19, "velocity": 89}, {"time": 3620, "pitch": 84, "duration": 7, "velocity": 90}, {"time": 3626, "pitch": 83, "duration": 12, "velocity": 92}, {"time": 3638, "pitch": 81, "duration": 7, "velocity": 89}, {"time": 3644, "pitch": 79, "duration": 12, "velocity": 88}, {"time": 3656, "pitch": 76, "duration": 30, "velocity": 92}, {"time": 3686, "pitch": 69, "duration": 6, "velocity": 90}, {"time": 3692, "pitch": 76, "duration": 7, "velocity": 90}, {"time": 3698, "pitch": 74, "duration": 19, "velocity": 94}, {"time": 3716, "pitch": 72, "duration": 6, "velocity": 85}, {"time": 3722, "pitch": 74, "duration": 13, "velocity": 93}, {"time": 3734, "pitch": 81, "duration": 11, "velocity": 89}, {"time": 3746, "pitch": 76, "duration": 7, "velocity": 89}, {"time": 3752, "pitch": 79, "duration": 6, "velocity": 88}, {"time": 3758, "pitch": 76, "duration": 6, "velocity": 89}, {"time": 3764, "pitch": 74, "duration": 7, "velocity": 90}, {"time": 3770, "pitch": 76, "duration": 20, "velocity": 90}, {"time": 3794, "pitch": 76, "duration": 13, "velocity": 87}, {"time": 3806, "pitch": 74, "duration": 6, "velocity": 89}, {"time": 3812, "pitch": 72, "duration": 7, "velocity": 83}, {"time": 3818, "pitch": 74, "duration": 13, "velocity": 95}, {"time": 3830, "pitch": 76, "duration": 12, "velocity": 84}, {"time": 3842, "pitch": 69, "duration": 34, "velocity": 84}, {"time": 3878, "pitch": 76, "duration": 7, "velocity": 94}, {"time": 3884, "pitch": 79, "duration": 7, "velocity": 90}, {"time": 3890, "pitch": 81, "duration": 19, "velocity": 89}, {"time": 3908, "pitch": 84, "duration": 7, "velocity": 90}, {"time": 3914, "pitch": 83, "duration": 7, "velocity": 92}, {"time": 3920, "pitch": 81, "duration": 7, "velocity": 89}, {"time": 3926, "pitch": 79, "duration": 6, "velocity": 88}, {"time": 3932, "pitch": 83, "duration": 7, "velocity": 89}, {"time": 3938, "pitch": 81, "duration": 33, "velocity": 92}, {"time": 3974, "pitch": 76, "duration": 7, "velocity": 94}, {"time": 3980, "pitch": 79, "duration": 7, "velocity": 90}, {"time": 3986, "pitch": 81, "duration": 19, "velocity": 89}, {"time": 4004, "pitch": 84, "duration": 7, "velocity": 90}, {"time": 4010, "pitch": 83, "duration": 7, "velocity": 92}, {"time": 4016, "pitch": 81, "duration": 7, "velocity": 89}, {"time": 4022, "pitch": 79, "duration": 6, "velocity": 88}, {"time": 4028, "pitch": 83, "duration": 12, "velocity": 89}, {"time": 4040, "pitch": 76, "duration": 30, "velocity": 92}, {"time": 4070, "pitch": 69, "duration": 6, "velocity": 90}, {"time": 4076, "pitch": 76, "duration": 7, "velocity": 90}, {"time": 4082, "pitch": 74, "duration": 19, "velocity": 94}, {"time": 4100, "pitch": 72, "duration": 6, "velocity": 85}, {"time": 4106, "pitch": 74, "duration": 13, "velocity": 93}, {"time": 4118, "pitch": 81, "duration": 11, "velocity": 89}, {"time": 4130, "pitch": 76, "duration": 7, "velocity": 89}, {"time": 4136, "pitch": 79, "duration": 6, "velocity": 88}, {"time": 4142, "pitch": 76, "duration": 6, "velocity": 89}, {"time": 4148, "pitch": 74, "duration": 7, "velocity": 90}, {"time": 4154, "pitch": 76, "duration": 20, "velocity": 90}, {"time": 4178, "pitch": 76, "duration": 13, "velocity": 87}, {"time": 4190, "pitch": 74, "duration": 6, "velocity": 89}, {"time": 4196, "pitch": 72, "duration": 7, "velocity": 83}, {"time": 4202, "pitch": 74, "duration": 13, "velocity": 95}, {"time": 4214, "pitch": 79, "duration": 14, "velocity": 84}, {"time": 4226, "pitch": 76, "duration": 34, "velocity": 84}, {"time": 4262, "pitch": 76, "duration": 7, "velocity": 94}, {"time": 4268, "pitch": 79, "duration": 7, "velocity": 90}, {"time": 4274, "pitch": 81, "duration": 19, "velocity": 89}, {"time": 4292, "pitch": 84, "duration": 7, "velocity": 90}, {"time": 4298, "pitch": 83, "duration": 7, "velocity": 92}, {"time": 4304, "pitch": 81, "duration": 7, "velocity": 89}, {"time": 4310, "pitch": 79, "duration": 6, "velocity": 88}, {"time": 4316, "pitch": 83, "duration": 7, "velocity": 89}, {"time": 4322, "pitch": 81, "duration": 33, "velocity": 92}, {"time": 4358, "pitch": 76, "duration": 7, "velocity": 94}, {"time": 4364, "pitch": 79, "duration": 7, "velocity": 90}, {"time": 4370, "pitch": 81, "duration": 19, "velocity": 89}, {"time": 4388, "pitch": 84, "duration": 7, "velocity": 90}, {"time": 4394, "pitch": 83, "duration": 12, "velocity": 92}, {"time": 4406, "pitch": 81, "duration": 7, "velocity": 89}, {"time": 4412, "pitch": 79, "duration": 12, "velocity": 88}, {"time": 4424, "pitch": 76, "duration": 30, "velocity": 92}, {"time": 4454, "pitch": 69, "duration": 6, "velocity": 90}, {"time": 4460, "pitch": 76, "duration": 7, "velocity": 90}, {"time": 4466, "pitch": 74, "duration": 19, "velocity": 94}, {"time": 4484, "pitch": 72, "duration": 6, "velocity": 85}, {"time": 4490, "pitch": 74, "duration": 13, "velocity": 93}, {"time": 4502, "pitch": 81, "duration": 11, "velocity": 89}, {"time": 4514, "pitch": 76, "duration": 7, "velocity": 89}, {"time": 4520, "pitch": 79, "duration": 6, "velocity": 88}, {"time": 4526, "pitch": 76, "duration": 6, "velocity": 89}, {"time": 4532, "pitch": 74, "duration": 7, "velocity": 90}, {"time": 4538, "pitch": 76, "duration": 20, "velocity": 90}, {"time": 4562, "pitch": 76, "duration": 13, "velocity": 87}, {"time": 4574, "pitch": 74, "duration": 6, "velocity": 89}, {"time": 4580, "pitch": 72, "duration": 7, "velocity": 83}, {"time": 4586, "pitch": 74, "duration": 13, "velocity": 95}, {"time": 4598, "pitch": 76, "duration": 12, "velocity": 84}, {"time": 4610, "pitch": 69, "duration": 34, "velocity": 84}, {"time": 4646, "pitch": 69, "duration": 6, "velocity": 90}, {"time": 4652, "pitch": 76, "duration": 7, "velocity": 90}, {"time": 4658, "pitch": 74, "duration": 19, "velocity": 94}, {"time": 4676, "pitch": 72, "duration": 6, "velocity": 85}, {"time": 4682, "pitch": 74, "duration": 13, "velocity": 93}, {"time": 4694, "pitch": 81, "duration": 11, "velocity": 89}, {"time": 4706, "pitch": 76, "duration": 7, "velocity": 89}, {"time": 4712, "pitch": 79, "duration": 6, "velocity": 88}, {"time": 4718, "pitch": 76, "duration": 6, "velocity": 89}, {"time": 4724, "pitch": 74, "duration": 7, "velocity": 90}, {"time": 4730, "pitch": 76, "duration": 20, "velocity": 90}, {"time": 4754, "pitch": 76, "duration": 13, "velocity": 87}, {"time": 4766, "pitch": 74, "duration": 6, "velocity": 89}, {"time": 4772, "pitch": 72, "duration": 7, "velocity": 83}, {"time": 4778, "pitch": 74, "duration": 13, "velocity": 95}, {"time": 4790, "pitch": 76, "duration": 12, "velocity": 84}, {"time": 4802, "pitch": 69, "duration": 34, "velocity": 84}]}, {"program": 0, "is_drum": false, "name": "PIANO", "notes": [{"time": 50, "pitch": 41, "duration": 20, "velocity": 89}, {"time": 50, "pitch": 53, "duration": 8, "velocity": 83}, {"time": 50, "pitch": 60, "duration": 17, "velocity": 83}, {"time": 56, "pitch": 48, "duration": 10, "velocity": 77}, {"time": 62, "pitch": 57, "duration": 4, "velocity": 84}, {"time": 65, "pitch": 53, "duration": 5, "velocity": 88}, {"time": 68, "pitch": 60, "duration": 5, "velocity": 88}, {"time": 71, "pitch": 53, "duration": 2, "velocity": 87}, {"time": 74, "pitch": 43, "duration": 16, "velocity": 89}, {"time": 74, "pitch": 59, "duration": 9, "velocity": 86}, {"time": 80, "pitch": 50, "duration": 10, "velocity": 84}, {"time": 86, "pitch": 55, "duration": 4, "velocity": 82}, {"time": 86, "pitch": 59, "duration": 4, "velocity": 83}, {"time": 86, "pitch": 62, "duration": 5, "velocity": 86}, {"time": 98, "pitch": 45, "duration": 43, "velocity": 89}, {"time": 98, "pitch": 57, "duration": 7, "velocity": 80}, {"time": 98, "pitch": 60, "duration": 8, "velocity": 83}, {"time": 104, "pitch": 52, "duration": 8, "velocity": 78}, {"time": 110, "pitch": 57, "duration": 7, "velocity": 88}, {"time": 110, "pitch": 64, "duration": 8, "velocity": 90}, {"time": 116, "pitch": 52, "duration": 9, "velocity": 77}, {"time": 122, "pitch": 57, "duration": 7, "velocity": 88}, {"time": 122, "pitch": 62, "duration": 8, "velocity": 88}, {"time": 128, "pitch": 52, "duration": 7, "velocity": 83}, {"time": 134, "pitch": 57, "duration": 8, "velocity": 88}, {"time": 134, "pitch": 60, "duration": 7, "velocity": 89}, {"time": 140, "pitch": 59, "duration": 4, "velocity": 89}, {"time": 143, "pitch": 60, "duration": 4, "velocity": 82}, {"time": 146, "pitch": 41, "duration": 19, "velocity": 88}, {"time": 146, "pitch": 57, "duration": 7, "velocity": 81}, {"time": 152, "pitch": 48, "duration": 7, "velocity": 80}, {"time": 158, "pitch": 53, "duration": 6, "velocity": 86}, {"time": 158, "pitch": 60, "duration": 7, "velocity": 88}, {"time": 164, "pitch": 48, "duration": 3, "velocity": 86}, {"time": 170, "pitch": 43, "duration": 16, "velocity": 89}, {"time": 170, "pitch": 55, "duration": 7, "velocity": 84}, {"time": 170, "pitch": 59, "duration": 8, "velocity": 88}, {"time": 176, "pitch": 50, "duration": 10, "velocity": 84}, {"time": 182, "pitch": 55, "duration": 4, "velocity": 87}, {"time": 182, "pitch": 59, "duration": 4, "velocity": 88}, {"time": 194, "pitch": 48, "duration": 22, "velocity": 89}, {"time": 194, "pitch": 55, "duration": 8, "velocity": 85}, {"time": 194, "pitch": 64, "duration": 9, "velocity": 89}, {"time": 200, "pitch": 52, "duration": 16, "velocity": 75}, {"time": 206, "pitch": 55, "duration": 4, "velocity": 90}, {"time": 206, "pitch": 64, "duration": 5, "velocity": 90}, {"time": 212, "pitch": 62, "duration": 3, "velocity": 90}, {"time": 215, "pitch": 64, "duration": 3, "velocity": 82}, {"time": 218, "pitch": 48, "duration": 16, "velocity": 90}, {"time": 218, "pitch": 55, "duration": 5, "velocity": 89}, {"time": 218, "pitch": 60, "duration": 9, "velocity": 92}, {"time": 224, "pitch": 52, "duration": 10, "velocity": 90}, {"time": 230, "pitch": 55, "duration": 6, "velocity": 84}, {"time": 230, "pitch": 62, "duration": 7, "velocity": 88}, {"time": 236, "pitch": 60, "duration": 5, "velocity": 88}, {"time": 242, "pitch": 38, "duration": 22, "velocity": 90}, {"time": 242, "pitch": 62, "duration": 5, "velocity": 85}, {"time": 248, "pitch": 45, "duration": 12, "velocity": 72}, {"time": 251, "pitch": 57, "duration": 4, "velocity": 80}, {"time": 254, "pitch": 62, "duration": 3, "velocity": 83}, {"time": 257, "pitch": 65, "duration": 5, "velocity": 89}, {"time": 260, "pitch": 62, "duration": 3, "velocity": 88}, {"time": 263, "pitch": 57, "duration": 3, "velocity": 77}, {"time": 266, "pitch": 38, "duration": 16, "velocity": 88}, {"time": 266, "pitch": 57, "duration": 7, "velocity": 80}, {"time": 266, "pitch": 62, "duration": 9, "velocity": 82}, {"time": 272, "pitch": 45, "duration": 9, "velocity": 68}, {"time": 278, "pitch": 57, "duration": 3, "velocity": 79}, {"time": 278, "pitch": 62, "duration": 4, "velocity": 85}, {"time": 278, "pitch": 65, "duration": 4, "velocity": 82}, {"time": 290, "pitch": 40, "duration": 15, "velocity": 90}, {"time": 290, "pitch": 59, "duration": 6, "velocity": 85}, {"time": 290, "pitch": 67, "duration": 11, "velocity": 81}, {"time": 296, "pitch": 47, "duration": 8, "velocity": 74}, {"time": 299, "pitch": 59, "duration": 6, "velocity": 83}, {"time": 302, "pitch": 64, "duration": 4, "velocity": 88}, {"time": 305, "pitch": 67, "duration": 4, "velocity": 88}, {"time": 308, "pitch": 64, "duration": 4, "velocity": 87}, {"time": 311, "pitch": 59, "duration": 4, "velocity": 87}, {"time": 314, "pitch": 45, "duration": 20, "velocity": 89}, {"time": 317, "pitch": 52, "duration": 11, "velocity": 82}, {"time": 320, "pitch": 57, "duration": 5, "velocity": 82}, {"time": 323, "pitch": 60, "duration": 4, "velocity": 85}, {"time": 326, "pitch": 64, "duration": 10, "velocity": 92}, {"time": 329, "pitch": 57, "duration": 4, "velocity": 82}, {"time": 332, "pitch": 52, "duration": 2, "velocity": 89}, {"time": 335, "pitch": 57, "duration": 4, "velocity": 83}, {"time": 338, "pitch": 41, "duration": 20, "velocity": 88}, {"time": 338, "pitch": 60, "duration": 14, "velocity": 88}, {"time": 344, "pitch": 48, "duration": 14, "velocity": 82}, {"time": 350, "pitch": 53, "duration": 6, "velocity": 89}, {"time": 353, "pitch": 57, "duration": 4, "velocity": 85}, {"time": 356, "pitch": 60, "duration": 3, "velocity": 82}, {"time": 362, "pitch": 43, "duration": 15, "velocity": 88}, {"time": 362, "pitch": 55, "duration": 8, "velocity": 83}, {"time": 362, "pitch": 59, "duration": 7, "velocity": 82}, {"time": 368, "pitch": 50, "duration": 9, "velocity": 79}, {"time": 374, "pitch": 55, "duration": 3, "velocity": 84}, {"time": 374, "pitch": 59, "duration": 4, "velocity": 88}, {"time": 386, "pitch": 45, "duration": 22, "velocity": 88}, {"time": 386, "pitch": 57, "duration": 9, "velocity": 79}, {"time": 386, "pitch": 60, "duration": 9, "velocity": 83}, {"time": 392, "pitch": 52, "duration": 9, "velocity": 80}, {"time": 398, "pitch": 57, "duration": 7, "velocity": 83}, {"time": 398, "pitch": 60, "duration": 4, "velocity": 86}, {"time": 404, "pitch": 59, "duration": 3, "velocity": 80}, {"time": 407, "pitch": 60, "duration": 3, "velocity": 74}, {"time": 410, "pitch": 45, "duration": 16, "velocity": 83}, {"time": 410, "pitch": 57, "duration": 8, "velocity": 80}, {"time": 416, "pitch": 52, "duration": 9, "velocity": 80}, {"time": 422, "pitch": 57, "duration": 3, "velocity": 74}, {"time": 422, "pitch": 60, "duration": 3, "velocity": 73}, {"time": 422, "pitch": 64, "duration": 4, "velocity": 84}, {"time": 434, "pitch": 45, "duration": 18, "velocity": 88}, {"time": 434, "pitch": 57, "duration": 12, "velocity": 73}, {"time": 434, "pitch": 60, "duration": 13, "velocity": 77}, {"time": 440, "pitch": 52, "duration": 11, "velocity": 78}, {"time": 446, "pitch": 64, "duration": 7, "velocity": 86}, {"time": 452, "pitch": 57, "duration": 3, "velocity": 85}, {"time": 458, "pitch": 43, "duration": 14, "velocity": 83}, {"time": 458, "pitch": 55, "duration": 13, "velocity": 78}, {"time": 458, "pitch": 59, "duration": 9, "velocity": 79}, {"time": 464, "pitch": 50, "duration": 7, "velocity": 72}, {"time": 470, "pitch": 59, "duration": 2, "velocity": 87}, {"time": 470, "pitch": 62, "duration": 3, "velocity": 81}, {"time": 482, "pitch": 40, "duration": 13, "velocity": 84}, {"time": 482, "pitch": 55, "duration": 13, "velocity": 77}, {"time": 482, "pitch": 59, "duration": 9, "velocity": 80}, {"time": 488, "pitch": 47, "duration": 6, "velocity": 74}, {"time": 494, "pitch": 59, "duration": 8, "velocity": 83}, {"time": 494, "pitch": 64, "duration": 13, "velocity": 88}, {"time": 500, "pitch": 55, "duration": 3, "velocity": 88}, {"time": 506, "pitch": 45, "duration": 16, "velocity": 85}, {"time": 506, "pitch": 57, "duration": 13, "velocity": 76}, {"time": 506, "pitch": 60, "duration": 9, "velocity": 80}, {"time": 512, "pitch": 52, "duration": 9, "velocity": 78}, {"time": 518, "pitch": 60, "duration": 3, "velocity": 77}, {"time": 518, "pitch": 64, "duration": 2, "velocity": 80}, {"time": 530, "pitch": 41, "duration": 17, "velocity": 85}, {"time": 530, "pitch": 60, "duration": 15, "velocity": 84}, {"time": 536, "pitch": 48, "duration": 10, "velocity": 79}, {"time": 542, "pitch": 53, "duration": 7, "velocity": 83}, {"time": 548, "pitch": 57, "duration": 5, "velocity": 88}, {"time": 554, "pitch": 43, "duration": 15, "velocity": 84}, {"time": 554, "pitch": 55, "duration": 10, "velocity": 83}, {"time": 554, "pitch": 59, "duration": 10, "velocity": 81}, {"time": 560, "pitch": 50, "duration": 8, "velocity": 76}, {"time": 566, "pitch": 55, "duration": 2, "velocity": 83}, {"time": 566, "pitch": 59, "duration": 2, "velocity": 85}, {"time": 578, "pitch": 40, "duration": 15, "velocity": 88}, {"time": 578, "pitch": 55, "duration": 7, "velocity": 82}, {"time": 578, "pitch": 64, "duration": 13, "velocity": 88}, {"time": 584, "pitch": 47, "duration": 8, "velocity": 76}, {"time": 590, "pitch": 59, "duration": 10, "velocity": 84}, {"time": 596, "pitch": 55, "duration": 3, "velocity": 78}, {"time": 602, "pitch": 45, "duration": 19, "velocity": 84}, {"time": 602, "pitch": 57, "duration": 8, "velocity": 78}, {"time": 602, "pitch": 60, "duration": 8, "velocity": 83}, {"time": 608, "pitch": 52, "duration": 13, "velocity": 81}, {"time": 614, "pitch": 57, "duration": 3, "velocity": 82}, {"time": 614, "pitch": 64, "duration": 5, "velocity": 89}, {"time": 620, "pitch": 57, "duration": 7, "velocity": 83}, {"time": 626, "pitch": 50, "duration": 17, "velocity": 86}, {"time": 626, "pitch": 65, "duration": 12, "velocity": 86}, {"time": 632, "pitch": 57, "duration": 7, "velocity": 83}, {"time": 638, "pitch": 62, "duration": 5, "velocity": 82}, {"time": 650, "pitch": 43, "duration": 17, "velocity": 83}, {"time": 650, "pitch": 55, "duration": 7, "velocity": 80}, {"time": 650, "pitch": 59, "duration": 10, "velocity": 83}, {"time": 656, "pitch": 50, "duration": 10, "velocity": 76}, {"time": 662, "pitch": 62, "duration": 7, "velocity": 84}, {"time": 668, "pitch": 55, "duration": 7, "velocity": 89}, {"time": 674, "pitch": 40, "duration": 16, "velocity": 88}, {"time": 674, "pitch": 59, "duration": 9, "velocity": 75}, {"time": 674, "pitch": 64, "duration": 24, "velocity": 85}, {"time": 680, "pitch": 47, "duration": 9, "velocity": 75}, {"time": 686, "pitch": 59, "duration": 8, "velocity": 85}, {"time": 698, "pitch": 45, "duration": 20, "velocity": 87}, {"time": 698, "pitch": 57, "duration": 9, "velocity": 73}, {"time": 698, "pitch": 60, "duration": 9, "velocity": 81}, {"time": 704, "pitch": 52, "duration": 10, "velocity": 81}, {"time": 710, "pitch": 57, "duration": 3, "velocity": 77}, {"time": 710, "pitch": 60, "duration": 5, "velocity": 82}, {"time": 710, "pitch": 64, "duration": 6, "velocity": 85}, {"time": 716, "pitch": 57, "duration": 7, "velocity": 86}, {"time": 722, "pitch": 50, "duration": 14, "velocity": 88}, {"time": 722, "pitch": 65, "duration": 12, "velocity": 84}, {"time": 728, "pitch": 57, "duration": 8, "velocity": 90}, {"time": 734, "pitch": 62, "duration": 6, "velocity": 88}, {"time": 740, "pitch": 57, "duration": 3, "velocity": 81}, {"time": 746, "pitch": 43, "duration": 16, "velocity": 84}, {"time": 746, "pitch": 55, "duration": 8, "velocity": 77}, {"time": 746, "pitch": 59, "duration": 9, "velocity": 83}, {"time": 752, "pitch": 50, "duration": 9, "velocity": 74}, {"time": 758, "pitch": 55, "duration": 3, "velocity": 79}, {"time": 758, "pitch": 59, "duration": 7, "velocity": 81}, {"time": 758, "pitch": 62, "duration": 10, "velocity": 82}, {"time": 764, "pitch": 55, "duration": 3, "velocity": 85}, {"time": 770, "pitch": 45, "duration": 22, "velocity": 85}, {"time": 770, "pitch": 57, "duration": 13, "velocity": 78}, {"time": 770, "pitch": 60, "duration": 13, "velocity": 79}, {"time": 776, "pitch": 52, "duration": 16, "velocity": 77}, {"time": 782, "pitch": 64, "duration": 9, "velocity": 83}, {"time": 788, "pitch": 57, "duration": 4, "velocity": 80}, {"time": 794, "pitch": 45, "duration": 20, "velocity": 83}, {"time": 794, "pitch": 57, "duration": 9, "velocity": 77}, {"time": 794, "pitch": 60, "duration": 9, "velocity": 78}, {"time": 794, "pitch": 64, "duration": 10, "velocity": 85}, {"time": 800, "pitch": 52, "duration": 12, "velocity": 76}, {"time": 806, "pitch": 57, "duration": 4, "velocity": 84}, {"time": 806, "pitch": 60, "duration": 3, "velocity": 88}, {"time": 806, "pitch": 64, "duration": 4, "velocity": 89}, {"time": 812, "pitch": 60, "duration": 3, "velocity": 87}, {"time": 818, "pitch": 45, "duration": 18, "velocity": 88}, {"time": 818, "pitch": 57, "duration": 12, "velocity": 73}, {"time": 818, "pitch": 60, "duration": 13, "velocity": 77}, {"time": 824, "pitch": 52, "duration": 11, "velocity": 78}, {"time": 830, "pitch": 64, "duration": 7, "velocity": 86}, {"time": 836, "pitch": 57, "duration": 3, "velocity": 85}, {"time": 842, "pitch": 43, "duration": 14, "velocity": 83}, {"time": 842, "pitch": 55, "duration": 13, "velocity": 78}, {"time": 842, "pitch": 59, "duration": 9, "velocity": 79}, {"time": 848, "pitch": 50, "duration": 7, "velocity": 72}, {"time": 854, "pitch": 59, "duration": 2, "velocity": 87}, {"time": 854, "pitch": 62, "duration": 3, "velocity": 81}, {"time": 866, "pitch": 40, "duration": 13, "velocity": 84}, {"time": 866, "pitch": 55, "duration": 13, "velocity": 77}, {"time": 866, "pitch": 59, "duration": 9, "velocity": 80}, {"time": 872, "pitch": 47, "duration": 6, "velocity": 74}, {"time": 878, "pitch": 59, "duration": 8, "velocity": 83}, {"time": 878, "pitch": 64, "duration": 13, "velocity": 88}, {"time": 884, "pitch": 55, "duration": 3, "velocity": 88}, {"time": 890, "pitch": 45, "duration": 16, "velocity": 85}, {"time": 890, "pitch": 57, "duration": 13, "velocity": 76}, {"time": 890, "pitch": 60, "duration": 9, "velocity": 80}, {"time": 896, "pitch": 52, "duration": 9, "velocity": 78}, {"time": 902, "pitch": 60, "duration": 3, "velocity": 77}, {"time": 902, "pitch": 64, "duration": 2, "velocity": 80}, {"time": 914, "pitch": 41, "duration": 17, "velocity": 85}, {"time": 914, "pitch": 60, "duration": 15, "velocity": 84}, {"time": 920, "pitch": 48, "duration": 10, "velocity": 79}, {"time": 926, "pitch": 53, "duration": 7, "velocity": 83}, {"time": 932, "pitch": 57, "duration": 5, "velocity": 88}, {"time": 938, "pitch": 43, "duration": 15, "velocity": 84}, {"time": 938, "pitch": 55, "duration": 10, "velocity": 83}, {"time": 938, "pitch": 59, "duration": 10, "velocity": 81}, {"time": 944, "pitch": 50, "duration": 8, "velocity": 76}, {"time": 950, "pitch": 55, "duration": 2, "velocity": 83}, {"time": 950, "pitch": 59, "duration": 2, "velocity": 85}, {"time": 962, "pitch": 40, "duration": 15, "velocity": 88}, {"time": 962, "pitch": 55, "duration": 7, "velocity": 82}, {"time": 962, "pitch": 64, "duration": 13, "velocity": 88}, {"time": 968, "pitch": 47, "duration": 8, "velocity": 76}, {"time": 974, "pitch": 59, "duration": 10, "velocity": 84}, {"time": 980, "pitch": 55, "duration": 3, "velocity": 78}, {"time": 986, "pitch": 45, "duration": 19, "velocity": 84}, {"time": 986, "pitch": 57, "duration": 8, "velocity": 78}, {"time": 986, "pitch": 60, "duration": 8, "velocity": 83}, {"time": 992, "pitch": 52, "duration": 13, "velocity": 81}, {"time": 998, "pitch": 57, "duration": 3, "velocity": 82}, {"time": 998, "pitch": 64, "duration": 5, "velocity": 89}, {"time": 1004, "pitch": 57, "duration": 7, "velocity": 83}, {"time": 1010, "pitch": 50, "duration": 17, "velocity": 86}, {"time": 1010, "pitch": 65, "duration": 12, "velocity": 86}, {"time": 1016, "pitch": 57, "duration": 7, "velocity": 83}, {"time": 1022, "pitch": 62, "duration": 5, "velocity": 82}, {"time": 1034, "pitch": 43, "duration": 17, "velocity": 83}, {"time": 1034, "pitch": 55, "duration": 7, "velocity": 80}, {"time": 1034, "pitch": 59, "duration": 10, "velocity": 83}, {"time": 1040, "pitch": 50, "duration": 10, "velocity": 76}, {"time": 1046, "pitch": 62, "duration": 7, "velocity": 84}, {"time": 1052, "pitch": 55, "duration": 7, "velocity": 89}, {"time": 1058, "pitch": 40, "duration": 16, "velocity": 88}, {"time": 1058, "pitch": 59, "duration": 9, "velocity": 75}, {"time": 1058, "pitch": 64, "duration": 24, "velocity": 85}, {"time": 1064, "pitch": 47, "duration": 9, "velocity": 75}, {"time": 1070, "pitch": 59, "duration": 8, "velocity": 85}, {"time": 1082, "pitch": 45, "duration": 20, "velocity": 87}, {"time": 1082, "pitch": 57, "duration": 9, "velocity": 73}, {"time": 1082, "pitch": 60, "duration": 9, "velocity": 81}, {"time": 1088, "pitch": 52, "duration": 10, "velocity": 81}, {"time": 1094, "pitch": 57, "duration": 3, "velocity": 77}, {"time": 1094, "pitch": 60, "duration": 5, "velocity": 82}, {"time": 1094, "pitch": 64, "duration": 6, "velocity": 85}, {"time": 1100, "pitch": 57, "duration": 7, "velocity": 86}, {"time": 1106, "pitch": 50, "duration": 14, "velocity": 88}, {"time": 1106, "pitch": 65, "duration": 12, "velocity": 84}, {"time": 1112, "pitch": 57, "duration": 8, "velocity": 90}, {"time": 1118, "pitch": 62, "duration": 6, "velocity": 88}, {"time": 1124, "pitch": 57, "duration": 3, "velocity": 81}, {"time": 1130, "pitch": 43, "duration": 16, "velocity": 84}, {"time": 1130, "pitch": 55, "duration": 8, "velocity": 77}, {"time": 1130, "pitch": 59, "duration": 9, "velocity": 83}, {"time": 1136, "pitch": 50, "duration": 9, "velocity": 74}, {"time": 1142, "pitch": 55, "duration": 3, "velocity": 79}, {"time": 1142, "pitch": 59, "duration": 7, "velocity": 81}, {"time": 1142, "pitch": 62, "duration": 10, "velocity": 82}, {"time": 1148, "pitch": 55, "duration": 3, "velocity": 85}, {"time": 1154, "pitch": 45, "duration": 22, "velocity": 85}, {"time": 1154, "pitch": 57, "duration": 13, "velocity": 78}, {"time": 1154, "pitch": 60, "duration": 13, "velocity": 79}, {"time": 1160, "pitch": 52, "duration": 16, "velocity": 77}, {"time": 1166, "pitch": 64, "duration": 9, "velocity": 83}, {"time": 1172, "pitch": 57, "duration": 4, "velocity": 80}, {"time": 1178, "pitch": 45, "duration": 20, "velocity": 83}, {"time": 1178, "pitch": 57, "duration": 9, "velocity": 77}, {"time": 1178, "pitch": 60, "duration": 9, "velocity": 78}, {"time": 1178, "pitch": 64, "duration": 10, "velocity": 85}, {"time": 1184, "pitch": 52, "duration": 12, "velocity": 76}, {"time": 1190, "pitch": 57, "duration": 4, "velocity": 84}, {"time": 1190, "pitch": 60, "duration": 3, "velocity": 88}, {"time": 1190, "pitch": 64, "duration": 4, "velocity": 89}, {"time": 1196, "pitch": 60, "duration": 3, "velocity": 87}, {"time": 1202, "pitch": 41, "duration": 16, "velocity": 88}, {"time": 1202, "pitch": 57, "duration": 8, "velocity": 87}, {"time": 1202, "pitch": 60, "duration": 9, "velocity": 88}, {"time": 1208, "pitch": 48, "duration": 7, "velocity": 88}, {"time": 1214, "pitch": 57, "duration": 3, "velocity": 83}, {"time": 1214, "pitch": 60, "duration": 5, "velocity": 89}, {"time": 1214, "pitch": 65, "duration": 8, "velocity": 88}, {"time": 1217, "pitch": 48, "duration": 3, "velocity": 88}, {"time": 1220, "pitch": 57, "duration": 4, "velocity": 85}, {"time": 1223, "pitch": 60, "duration": 2, "velocity": 83}, {"time": 1226, "pitch": 43, "duration": 15, "velocity": 88}, {"time": 1226, "pitch": 55, "duration": 7, "velocity": 86}, {"time": 1226, "pitch": 59, "duration": 7, "velocity": 88}, {"time": 1232, "pitch": 50, "duration": 7, "velocity": 83}, {"time": 1238, "pitch": 55, "duration": 5, "velocity": 90}, {"time": 1238, "pitch": 59, "duration": 5, "velocity": 92}, {"time": 1238, "pitch": 62, "duration": 6, "velocity": 88}, {"time": 1244, "pitch": 50, "duration": 2, "velocity": 83}, {"time": 1250, "pitch": 45, "duration": 21, "velocity": 88}, {"time": 1250, "pitch": 57, "duration": 7, "velocity": 81}, {"time": 1250, "pitch": 60, "duration": 7, "velocity": 84}, {"time": 1256, "pitch": 52, "duration": 7, "velocity": 84}, {"time": 1262, "pitch": 57, "duration": 7, "velocity": 85}, {"time": 1262, "pitch": 60, "duration": 7, "velocity": 90}, {"time": 1262, "pitch": 64, "duration": 8, "velocity": 90}, {"time": 1268, "pitch": 52, "duration": 3, "velocity": 85}, {"time": 1271, "pitch": 57, "duration": 2, "velocity": 79}, {"time": 1271, "pitch": 62, "duration": 2, "velocity": 79}, {"time": 1274, "pitch": 45, "duration": 17, "velocity": 89}, {"time": 1274, "pitch": 57, "duration": 7, "velocity": 83}, {"time": 1274, "pitch": 62, "duration": 7, "velocity": 88}, {"time": 1280, "pitch": 52, "duration": 8, "velocity": 89}, {"time": 1283, "pitch": 57, "duration": 3, "velocity": 80}, {"time": 1286, "pitch": 60, "duration": 6, "velocity": 94}, {"time": 1289, "pitch": 52, "duration": 2, "velocity": 92}, {"time": 1292, "pitch": 57, "duration": 4, "velocity": 89}, {"time": 1295, "pitch": 60, "duration": 2, "velocity": 77}, {"time": 1298, "pitch": 41, "duration": 18, "velocity": 88}, {"time": 1298, "pitch": 60, "duration": 8, "velocity": 88}, {"time": 1304, "pitch": 48, "duration": 7, "velocity": 84}, {"time": 1310, "pitch": 53, "duration": 5, "velocity": 89}, {"time": 1313, "pitch": 57, "duration": 3, "velocity": 89}, {"time": 1316, "pitch": 60, "duration": 4, "velocity": 93}, {"time": 1319, "pitch": 53, "duration": 3, "velocity": 88}, {"time": 1322, "pitch": 43, "duration": 21, "velocity": 84}, {"time": 1325, "pitch": 50, "duration": 12, "velocity": 86}, {"time": 1328, "pitch": 55, "duration": 5, "velocity": 89}, {"time": 1331, "pitch": 59, "duration": 4, "velocity": 88}, {"time": 1334, "pitch": 62, "duration": 4, "velocity": 90}, {"time": 1337, "pitch": 55, "duration": 4, "velocity": 90}, {"time": 1340, "pitch": 50, "duration": 4, "velocity": 89}, {"time": 1346, "pitch": 48, "duration": 17, "velocity": 90}, {"time": 1346, "pitch": 55, "duration": 4, "velocity": 83}, {"time": 1346, "pitch": 60, "duration": 8, "velocity": 83}, {"time": 1346, "pitch": 64, "duration": 7, "velocity": 87}, {"time": 1352, "pitch": 55, "duration": 3, "velocity": 87}, {"time": 1358, "pitch": 55, "duration": 4, "velocity": 90}, {"time": 1358, "pitch": 60, "duration": 3, "velocity": 90}, {"time": 1358, "pitch": 64, "duration": 6, "velocity": 94}, {"time": 1364, "pitch": 62, "duration": 4, "velocity": 88}, {"time": 1367, "pitch": 64, "duration": 3, "velocity": 84}, {"time": 1370, "pitch": 48, "duration": 18, "velocity": 90}, {"time": 1370, "pitch": 55, "duration": 4, "velocity": 89}, {"time": 1370, "pitch": 60, "duration": 10, "velocity": 93}, {"time": 1379, "pitch": 55, "duration": 3, "velocity": 78}, {"time": 1382, "pitch": 55, "duration": 2, "velocity": 84}, {"time": 1382, "pitch": 62, "duration": 7, "velocity": 91}, {"time": 1388, "pitch": 60, "duration": 5, "velocity": 86}, {"time": 1394, "pitch": 38, "duration": 21, "velocity": 92}, {"time": 1394, "pitch": 62, "duration": 7, "velocity": 84}, {"time": 1400, "pitch": 45, "duration": 13, "velocity": 74}, {"time": 1406, "pitch": 57, "duration": 4, "velocity": 84}, {"time": 1406, "pitch": 62, "duration": 1, "velocity": 77}, {"time": 1406, "pitch": 65, "duration": 7, "velocity": 87}, {"time": 1412, "pitch": 62, "duration": 5, "velocity": 83}, {"time": 1418, "pitch": 38, "duration": 15, "velocity": 88}, {"time": 1418, "pitch": 57, "duration": 8, "velocity": 82}, {"time": 1418, "pitch": 62, "duration": 7, "velocity": 83}, {"time": 1424, "pitch": 45, "duration": 8, "velocity": 82}, {"time": 1430, "pitch": 57, "duration": 2, "velocity": 85}, {"time": 1430, "pitch": 62, "duration": 6, "velocity": 90}, {"time": 1430, "pitch": 65, "duration": 6, "velocity": 87}, {"time": 1436, "pitch": 57, "duration": 2, "velocity": 84}, {"time": 1442, "pitch": 40, "duration": 15, "velocity": 89}, {"time": 1442, "pitch": 52, "duration": 12, "velocity": 80}, {"time": 1442, "pitch": 55, "duration": 11, "velocity": 82}, {"time": 1448, "pitch": 47, "duration": 8, "velocity": 77}, {"time": 1454, "pitch": 59, "duration": 8, "velocity": 85}, {"time": 1460, "pitch": 52, "duration": 3, "velocity": 88}, {"time": 1466, "pitch": 45, "duration": 18, "velocity": 89}, {"time": 1466, "pitch": 57, "duration": 7, "velocity": 76}, {"time": 1466, "pitch": 60, "duration": 8, "velocity": 80}, {"time": 1472, "pitch": 52, "duration": 8, "velocity": 84}, {"time": 1478, "pitch": 57, "duration": 4, "velocity": 88}, {"time": 1478, "pitch": 60, "duration": 4, "velocity": 89}, {"time": 1481, "pitch": 52, "duration": 3, "velocity": 88}, {"time": 1484, "pitch": 55, "duration": 2, "velocity": 79}, {"time": 1484, "pitch": 59, "duration": 4, "velocity": 95}, {"time": 1490, "pitch": 50, "duration": 15, "velocity": 81}, {"time": 1490, "pitch": 57, "duration": 4, "velocity": 81}, {"time": 1490, "pitch": 62, "duration": 8, "velocity": 83}, {"time": 1496, "pitch": 57, "duration": 3, "velocity": 89}, {"time": 1502, "pitch": 57, "duration": 4, "velocity": 89}, {"time": 1502, "pitch": 62, "duration": 7, "velocity": 91}, {"time": 1502, "pitch": 65, "duration": 8, "velocity": 88}, {"time": 1508, "pitch": 50, "duration": 3, "velocity": 91}, {"time": 1511, "pitch": 57, "duration": 2, "velocity": 88}, {"time": 1514, "pitch": 43, "duration": 16, "velocity": 89}, {"time": 1514, "pitch": 55, "duration": 7, "velocity": 89}, {"time": 1514, "pitch": 59, "duration": 7, "velocity": 89}, {"time": 1520, "pitch": 50, "duration": 9, "velocity": 81}, {"time": 1526, "pitch": 55, "duration": 3, "velocity": 90}, {"time": 1526, "pitch": 59, "duration": 4, "velocity": 90}, {"time": 1526, "pitch": 62, "duration": 4, "velocity": 88}, {"time": 1532, "pitch": 43, "duration": 3, "velocity": 89}, {"time": 1538, "pitch": 40, "duration": 21, "velocity": 93}, {"time": 1538, "pitch": 52, "duration": 6, "velocity": 86}, {"time": 1538, "pitch": 59, "duration": 8, "velocity": 86}, {"time": 1550, "pitch": 52, "duration": 8, "velocity": 89}, {"time": 1553, "pitch": 56, "duration": 5, "velocity": 89}, {"time": 1556, "pitch": 59, "duration": 4, "velocity": 93}, {"time": 1559, "pitch": 64, "duration": 7, "velocity": 93}, {"time": 1562, "pitch": 52, "duration": 16, "velocity": 95}, {"time": 1562, "pitch": 68, "duration": 9, "velocity": 90}, {"time": 1568, "pitch": 59, "duration": 7, "velocity": 102}, {"time": 1571, "pitch": 64, "duration": 2, "velocity": 88}, {"time": 1574, "pitch": 64, "duration": 4, "velocity": 89}, {"time": 1574, "pitch": 68, "duration": 7, "velocity": 93}, {"time": 1574, "pitch": 71, "duration": 9, "velocity": 93}, {"time": 1574, "pitch": 76, "duration": 8, "velocity": 92}, {"time": 1577, "pitch": 59, "duration": 4, "velocity": 90}, {"time": 1580, "pitch": 64, "duration": 4, "velocity": 93}, {"time": 1583, "pitch": 68, "duration": 3, "velocity": 85}, {"time": 1586, "pitch": 41, "duration": 16, "velocity": 88}, {"time": 1586, "pitch": 57, "duration": 8, "velocity": 87}, {"time": 1586, "pitch": 60, "duration": 9, "velocity": 88}, {"time": 1592, "pitch": 48, "duration": 7, "velocity": 88}, {"time": 1598, "pitch": 57, "duration": 3, "velocity": 83}, {"time": 1598, "pitch": 60, "duration": 5, "velocity": 89}, {"time": 1598, "pitch": 65, "duration": 8, "velocity": 88}, {"time": 1601, "pitch": 48, "duration": 3, "velocity": 88}, {"time": 1604, "pitch": 57, "duration": 4, "velocity": 85}, {"time": 1607, "pitch": 60, "duration": 2, "velocity": 83}, {"time": 1610, "pitch": 43, "duration": 15, "velocity": 88}, {"time": 1610, "pitch": 55, "duration": 7, "velocity": 86}, {"time": 1610, "pitch": 59, "duration": 7, "velocity": 88}, {"time": 1616, "pitch": 50, "duration": 7, "velocity": 83}, {"time": 1622, "pitch": 55, "duration": 5, "velocity": 90}, {"time": 1622, "pitch": 59, "duration": 5, "velocity": 92}, {"time": 1622, "pitch": 62, "duration": 6, "velocity": 88}, {"time": 1628, "pitch": 50, "duration": 2, "velocity": 83}, {"time": 1634, "pitch": 45, "duration": 21, "velocity": 88}, {"time": 1634, "pitch": 57, "duration": 7, "velocity": 81}, {"time": 1634, "pitch": 60, "duration": 7, "velocity": 84}, {"time": 1640, "pitch": 52, "duration": 7, "velocity": 84}, {"time": 1646, "pitch": 57, "duration": 7, "velocity": 85}, {"time": 1646, "pitch": 60, "duration": 7, "velocity": 90}, {"time": 1646, "pitch": 64, "duration": 8, "velocity": 90}, {"time": 1652, "pitch": 52, "duration": 3, "velocity": 85}, {"time": 1655, "pitch": 57, "duration": 2, "velocity": 79}, {"time": 1655, "pitch": 62, "duration": 2, "velocity": 79}, {"time": 1658, "pitch": 45, "duration": 17, "velocity": 89}, {"time": 1658, "pitch": 57, "duration": 7, "velocity": 83}, {"time": 1658, "pitch": 62, "duration": 7, "velocity": 88}, {"time": 1664, "pitch": 52, "duration": 8, "velocity": 89}, {"time": 1667, "pitch": 57, "duration": 3, "velocity": 80}, {"time": 1670, "pitch": 60, "duration": 6, "velocity": 94}, {"time": 1673, "pitch": 52, "duration": 2, "velocity": 92}, {"time": 1676, "pitch": 57, "duration": 4, "velocity": 89}, {"time": 1679, "pitch": 60, "duration": 2, "velocity": 77}, {"time": 1682, "pitch": 41, "duration": 18, "velocity": 88}, {"time": 1682, "pitch": 60, "duration": 8, "velocity": 88}, {"time": 1688, "pitch": 48, "duration": 7, "velocity": 84}, {"time": 1694, "pitch": 53, "duration": 5, "velocity": 89}, {"time": 1697, "pitch": 57, "duration": 3, "velocity": 89}, {"time": 1700, "pitch": 60, "duration": 4, "velocity": 93}, {"time": 1703, "pitch": 53, "duration": 3, "velocity": 88}, {"time": 1706, "pitch": 43, "duration": 21, "velocity": 84}, {"time": 1709, "pitch": 50, "duration": 12, "velocity": 86}, {"time": 1712, "pitch": 55, "duration": 5, "velocity": 89}, {"time": 1715, "pitch": 59, "duration": 4, "velocity": 88}, {"time": 1718, "pitch": 62, "duration": 4, "velocity": 90}, {"time": 1721, "pitch": 55, "duration": 4, "velocity": 90}, {"time": 1724, "pitch": 50, "duration": 4, "velocity": 89}, {"time": 1730, "pitch": 48, "duration": 17, "velocity": 90}, {"time": 1730, "pitch": 55, "duration": 4, "velocity": 83}, {"time": 1730, "pitch": 60, "duration": 8, "velocity": 83}, {"time": 1730, "pitch": 64, "duration": 7, "velocity": 87}, {"time": 1736, "pitch": 55, "duration": 3, "velocity": 87}, {"time": 1742, "pitch": 55, "duration": 4, "velocity": 90}, {"time": 1742, "pitch": 60, "duration": 3, "velocity": 90}, {"time": 1742, "pitch": 64, "duration": 6, "velocity": 94}, {"time": 1748, "pitch": 62, "duration": 4, "velocity": 88}, {"time": 1751, "pitch": 64, "duration": 3, "velocity": 84}, {"time": 1754, "pitch": 48, "duration": 18, "velocity": 90}, {"time": 1754, "pitch": 55, "duration": 4, "velocity": 89}, {"time": 1754, "pitch": 60, "duration": 10, "velocity": 93}, {"time": 1763, "pitch": 55, "duration": 3, "velocity": 78}, {"time": 1766, "pitch": 55, "duration": 2, "velocity": 84}, {"time": 1766, "pitch": 62, "duration": 7, "velocity": 91}, {"time": 1772, "pitch": 60, "duration": 5, "velocity": 86}, {"time": 1778, "pitch": 38, "duration": 21, "velocity": 92}, {"time": 1778, "pitch": 62, "duration": 7, "velocity": 84}, {"time": 1784, "pitch": 45, "duration": 13, "velocity": 74}, {"time": 1790, "pitch": 57, "duration": 4, "velocity": 84}, {"time": 1790, "pitch": 62, "duration": 1, "velocity": 77}, {"time": 1790, "pitch": 65, "duration": 7, "velocity": 87}, {"time": 1796, "pitch": 62, "duration": 5, "velocity": 83}, {"time": 1802, "pitch": 38, "duration": 15, "velocity": 88}, {"time": 1802, "pitch": 57, "duration": 8, "velocity": 82}, {"time": 1802, "pitch": 62, "duration": 7, "velocity": 83}, {"time": 1808, "pitch": 45, "duration": 8, "velocity": 82}, {"time": 1814, "pitch": 57, "duration": 2, "velocity": 85}, {"time": 1814, "pitch": 62, "duration": 6, "velocity": 90}, {"time": 1814, "pitch": 65, "duration": 6, "velocity": 87}, {"time": 1820, "pitch": 57, "duration": 2, "velocity": 84}, {"time": 1826, "pitch": 40, "duration": 15, "velocity": 89}, {"time": 1826, "pitch": 52, "duration": 12, "velocity": 80}, {"time": 1826, "pitch": 55, "duration": 11, "velocity": 82}, {"time": 1832, "pitch": 47, "duration": 8, "velocity": 77}, {"time": 1838, "pitch": 59, "duration": 8, "velocity": 85}, {"time": 1844, "pitch": 52, "duration": 3, "velocity": 88}, {"time": 1850, "pitch": 45, "duration": 18, "velocity": 89}, {"time": 1850, "pitch": 57, "duration": 7, "velocity": 76}, {"time": 1850, "pitch": 60, "duration": 8, "velocity": 80}, {"time": 1856, "pitch": 52, "duration": 8, "velocity": 84}, {"time": 1862, "pitch": 57, "duration": 4, "velocity": 88}, {"time": 1862, "pitch": 60, "duration": 4, "velocity": 89}, {"time": 1865, "pitch": 52, "duration": 3, "velocity": 88}, {"time": 1868, "pitch": 55, "duration": 2, "velocity": 79}, {"time": 1868, "pitch": 59, "duration": 4, "velocity": 95}, {"time": 1874, "pitch": 50, "duration": 15, "velocity": 81}, {"time": 1874, "pitch": 57, "duration": 4, "velocity": 81}, {"time": 1874, "pitch": 62, "duration": 8, "velocity": 83}, {"time": 1880, "pitch": 57, "duration": 3, "velocity": 89}, {"time": 1886, "pitch": 57, "duration": 4, "velocity": 89}, {"time": 1886, "pitch": 62, "duration": 7, "velocity": 91}, {"time": 1886, "pitch": 65, "duration": 8, "velocity": 88}, {"time": 1892, "pitch": 50, "duration": 3, "velocity": 91}, {"time": 1895, "pitch": 57, "duration": 2, "velocity": 88}, {"time": 1898, "pitch": 43, "duration": 16, "velocity": 89}, {"time": 1898, "pitch": 55, "duration": 7, "velocity": 89}, {"time": 1898, "pitch": 59, "duration": 7, "velocity": 89}, {"time": 1904, "pitch": 50, "duration": 9, "velocity": 81}, {"time": 1910, "pitch": 55, "duration": 3, "velocity": 90}, {"time": 1910, "pitch": 59, "duration": 4, "velocity": 90}, {"time": 1910, "pitch": 62, "duration": 4, "velocity": 88}, {"time": 1916, "pitch": 43, "duration": 3, "velocity": 89}, {"time": 1922, "pitch": 45, "duration": 23, "velocity": 89}, {"time": 1922, "pitch": 57, "duration": 7, "velocity": 84}, {"time": 1922, "pitch": 60, "duration": 7, "velocity": 88}, {"time": 1928, "pitch": 52, "duration": 16, "velocity": 82}, {"time": 1934, "pitch": 57, "duration": 4, "velocity": 83}, {"time": 1934, "pitch": 60, "duration": 4, "velocity": 89}, {"time": 1934, "pitch": 64, "duration": 4, "velocity": 89}, {"time": 1940, "pitch": 62, "duration": 4, "velocity": 83}, {"time": 1943, "pitch": 64, "duration": 3, "velocity": 80}, {"time": 1946, "pitch": 45, "duration": 21, "velocity": 88}, {"time": 1946, "pitch": 57, "duration": 7, "velocity": 78}, {"time": 1946, "pitch": 60, "duration": 8, "velocity": 80}, {"time": 1952, "pitch": 52, "duration": 15, "velocity": 77}, {"time": 1958, "pitch": 57, "duration": 4, "velocity": 78}, {"time": 1958, "pitch": 60, "duration": 7, "velocity": 85}, {"time": 1964, "pitch": 57, "duration": 3, "velocity": 77}, {"time": 1970, "pitch": 41, "duration": 16, "velocity": 88}, {"time": 1970, "pitch": 57, "duration": 8, "velocity": 87}, {"time": 1970, "pitch": 60, "duration": 9, "velocity": 88}, {"time": 1976, "pitch": 48, "duration": 7, "velocity": 88}, {"time": 1982, "pitch": 57, "duration": 3, "velocity": 83}, {"time": 1982, "pitch": 60, "duration": 5, "velocity": 89}, {"time": 1982, "pitch": 65, "duration": 8, "velocity": 88}, {"time": 1985, "pitch": 48, "duration": 3, "velocity": 88}, {"time": 1988, "pitch": 57, "duration": 4, "velocity": 85}, {"time": 1991, "pitch": 60, "duration": 2, "velocity": 83}, {"time": 1994, "pitch": 43, "duration": 15, "velocity": 88}, {"time": 1994, "pitch": 55, "duration": 7, "velocity": 86}, {"time": 1994, "pitch": 59, "duration": 7, "velocity": 88}, {"time": 2000, "pitch": 50, "duration": 7, "velocity": 83}, {"time": 2006, "pitch": 55, "duration": 5, "velocity": 90}, {"time": 2006, "pitch": 59, "duration": 5, "velocity": 92}, {"time": 2006, "pitch": 62, "duration": 6, "velocity": 88}, {"time": 2012, "pitch": 50, "duration": 2, "velocity": 83}, {"time": 2018, "pitch": 45, "duration": 21, "velocity": 88}, {"time": 2018, "pitch": 57, "duration": 7, "velocity": 81}, {"time": 2018, "pitch": 60, "duration": 7, "velocity": 84}, {"time": 2024, "pitch": 52, "duration": 7, "velocity": 84}, {"time": 2030, "pitch": 57, "duration": 7, "velocity": 85}, {"time": 2030, "pitch": 60, "duration": 7, "velocity": 90}, {"time": 2030, "pitch": 64, "duration": 8, "velocity": 90}, {"time": 2036, "pitch": 52, "duration": 3, "velocity": 85}, {"time": 2039, "pitch": 57, "duration": 2, "velocity": 79}, {"time": 2039, "pitch": 62, "duration": 2, "velocity": 79}, {"time": 2042, "pitch": 45, "duration": 17, "velocity": 89}, {"time": 2042, "pitch": 57, "duration": 7, "velocity": 83}, {"time": 2042, "pitch": 62, "duration": 7, "velocity": 88}, {"time": 2048, "pitch": 52, "duration": 8, "velocity": 89}, {"time": 2051, "pitch": 57, "duration": 3, "velocity": 80}, {"time": 2054, "pitch": 60, "duration": 6, "velocity": 94}, {"time": 2057, "pitch": 52, "duration": 2, "velocity": 92}, {"time": 2060, "pitch": 57, "duration": 4, "velocity": 89}, {"time": 2063, "pitch": 60, "duration": 2, "velocity": 77}, {"time": 2066, "pitch": 41, "duration": 18, "velocity": 88}, {"time": 2066, "pitch": 60, "duration": 8, "velocity": 88}, {"time": 2072, "pitch": 48, "duration": 7, "velocity": 84}, {"time": 2078, "pitch": 53, "duration": 5, "velocity": 89}, {"time": 2081, "pitch": 57, "duration": 3, "velocity": 89}, {"time": 2084, "pitch": 60, "duration": 4, "velocity": 93}, {"time": 2087, "pitch": 53, "duration": 3, "velocity": 88}, {"time": 2090, "pitch": 43, "duration": 21, "velocity": 84}, {"time": 2093, "pitch": 50, "duration": 12, "velocity": 86}, {"time": 2096, "pitch": 55, "duration": 5, "velocity": 89}, {"time": 2099, "pitch": 59, "duration": 4, "velocity": 88}, {"time": 2102, "pitch": 62, "duration": 4, "velocity": 90}, {"time": 2105, "pitch": 55, "duration": 4, "velocity": 90}, {"time": 2108, "pitch": 50, "duration": 4, "velocity": 89}, {"time": 2114, "pitch": 48, "duration": 17, "velocity": 90}, {"time": 2114, "pitch": 55, "duration": 4, "velocity": 83}, {"time": 2114, "pitch": 60, "duration": 8, "velocity": 83}, {"time": 2114, "pitch": 64, "duration": 7, "velocity": 87}, {"time": 2120, "pitch": 55, "duration": 3, "velocity": 87}, {"time": 2126, "pitch": 55, "duration": 4, "velocity": 90}, {"time": 2126, "pitch": 60, "duration": 3, "velocity": 90}, {"time": 2126, "pitch": 64, "duration": 6, "velocity": 94}, {"time": 2132, "pitch": 62, "duration": 4, "velocity": 88}, {"time": 2135, "pitch": 64, "duration": 3, "velocity": 84}, {"time": 2138, "pitch": 48, "duration": 18, "velocity": 90}, {"time": 2138, "pitch": 55, "duration": 4, "velocity": 89}, {"time": 2138, "pitch": 60, "duration": 10, "velocity": 93}, {"time": 2147, "pitch": 55, "duration": 3, "velocity": 78}, {"time": 2150, "pitch": 55, "duration": 2, "velocity": 84}, {"time": 2150, "pitch": 62, "duration": 7, "velocity": 91}, {"time": 2156, "pitch": 60, "duration": 5, "velocity": 86}, {"time": 2162, "pitch": 38, "duration": 21, "velocity": 92}, {"time": 2162, "pitch": 62, "duration": 7, "velocity": 84}, {"time": 2168, "pitch": 45, "duration": 13, "velocity": 74}, {"time": 2174, "pitch": 57, "duration": 4, "velocity": 84}, {"time": 2174, "pitch": 62, "duration": 1, "velocity": 77}, {"time": 2174, "pitch": 65, "duration": 7, "velocity": 87}, {"time": 2180, "pitch": 62, "duration": 5, "velocity": 83}, {"time": 2186, "pitch": 38, "duration": 15, "velocity": 88}, {"time": 2186, "pitch": 57, "duration": 8, "velocity": 82}, {"time": 2186, "pitch": 62, "duration": 7, "velocity": 83}, {"time": 2192, "pitch": 45, "duration": 8, "velocity": 82}, {"time": 2198, "pitch": 57, "duration": 2, "velocity": 85}, {"time": 2198, "pitch": 62, "duration": 6, "velocity": 90}, {"time": 2198, "pitch": 65, "duration": 6, "velocity": 87}, {"time": 2204, "pitch": 57, "duration": 2, "velocity": 84}, {"time": 2210, "pitch": 40, "duration": 15, "velocity": 89}, {"time": 2210, "pitch": 52, "duration": 12, "velocity": 80}, {"time": 2210, "pitch": 55, "duration": 11, "velocity": 82}, {"time": 2216, "pitch": 47, "duration": 8, "velocity": 77}, {"time": 2222, "pitch": 59, "duration": 8, "velocity": 85}, {"time": 2228, "pitch": 52, "duration": 3, "velocity": 88}, {"time": 2234, "pitch": 45, "duration": 18, "velocity": 89}, {"time": 2234, "pitch": 57, "duration": 7, "velocity": 76}, {"time": 2234, "pitch": 60, "duration": 8, "velocity": 80}, {"time": 2240, "pitch": 52, "duration": 8, "velocity": 84}, {"time": 2246, "pitch": 57, "duration": 4, "velocity": 88}, {"time": 2246, "pitch": 60, "duration": 4, "velocity": 89}, {"time": 2249, "pitch": 52, "duration": 3, "velocity": 88}, {"time": 2252, "pitch": 55, "duration": 2, "velocity": 79}, {"time": 2252, "pitch": 59, "duration": 4, "velocity": 95}, {"time": 2258, "pitch": 50, "duration": 15, "velocity": 81}, {"time": 2258, "pitch": 57, "duration": 4, "velocity": 81}, {"time": 2258, "pitch": 62, "duration": 8, "velocity": 83}, {"time": 2264, "pitch": 57, "duration": 3, "velocity": 89}, {"time": 2270, "pitch": 57, "duration": 4, "velocity": 89}, {"time": 2270, "pitch": 62, "duration": 7, "velocity": 91}, {"time": 2270, "pitch": 65, "duration": 8, "velocity": 88}, {"time": 2276, "pitch": 50, "duration": 3, "velocity": 91}, {"time": 2279, "pitch": 57, "duration": 2, "velocity": 88}, {"time": 2282, "pitch": 43, "duration": 16, "velocity": 89}, {"time": 2282, "pitch": 55, "duration": 7, "velocity": 89}, {"time": 2282, "pitch": 59, "duration": 7, "velocity": 89}, {"time": 2288, "pitch": 50, "duration": 9, "velocity": 81}, {"time": 2294, "pitch": 55, "duration": 3, "velocity": 90}, {"time": 2294, "pitch": 59, "duration": 4, "velocity": 90}, {"time": 2294, "pitch": 62, "duration": 4, "velocity": 88}, {"time": 2300, "pitch": 43, "duration": 3, "velocity": 89}, {"time": 2306, "pitch": 45, "duration": 23, "velocity": 89}, {"time": 2306, "pitch": 57, "duration": 7, "velocity": 84}, {"time": 2306, "pitch": 60, "duration": 7, "velocity": 88}, {"time": 2312, "pitch": 52, "duration": 16, "velocity": 82}, {"time": 2318, "pitch": 57, "duration": 4, "velocity": 83}, {"time": 2318, "pitch": 60, "duration": 4, "velocity": 89}, {"time": 2318, "pitch": 64, "duration": 4, "velocity": 89}, {"time": 2324, "pitch": 62, "duration": 4, "velocity": 83}, {"time": 2327, "pitch": 64, "duration": 3, "velocity": 80}, {"time": 2330, "pitch": 45, "duration": 21, "velocity": 88}, {"time": 2330, "pitch": 57, "duration": 7, "velocity": 78}, {"time": 2330, "pitch": 60, "duration": 8, "velocity": 80}, {"time": 2336, "pitch": 52, "duration": 15, "velocity": 77}, {"time": 2342, "pitch": 57, "duration": 4, "velocity": 78}, {"time": 2342, "pitch": 60, "duration": 7, "velocity": 85}, {"time": 2348, "pitch": 57, "duration": 3, "velocity": 77}, {"time": 2354, "pitch": 45, "duration": 18, "velocity": 88}, {"time": 2354, "pitch": 57, "duration": 12, "velocity": 73}, {"time": 2354, "pitch": 60, "duration": 13, "velocity": 77}, {"time": 2360, "pitch": 52, "duration": 11, "velocity": 78}, {"time": 2366, "pitch": 64, "duration": 7, "velocity": 86}, {"time": 2372, "pitch": 57, "duration": 3, "velocity": 85}, {"time": 2378, "pitch": 43, "duration": 14, "velocity": 83}, {"time": 2378, "pitch": 55, "duration": 13, "velocity": 78}, {"time": 2378, "pitch": 59, "duration": 9, "velocity": 79}, {"time": 2384, "pitch": 50, "duration": 7, "velocity": 72}, {"time": 2390, "pitch": 59, "duration": 2, "velocity": 87}, {"time": 2390, "pitch": 62, "duration": 3, "velocity": 81}, {"time": 2402, "pitch": 40, "duration": 13, "velocity": 84}, {"time": 2402, "pitch": 55, "duration": 13, "velocity": 77}, {"time": 2402, "pitch": 59, "duration": 9, "velocity": 80}, {"time": 2408, "pitch": 47, "duration": 6, "velocity": 74}, {"time": 2414, "pitch": 59, "duration": 8, "velocity": 83}, {"time": 2414, "pitch": 64, "duration": 13, "velocity": 88}, {"time": 2420, "pitch": 55, "duration": 3, "velocity": 88}, {"time": 2426, "pitch": 45, "duration": 16, "velocity": 85}, {"time": 2426, "pitch": 57, "duration": 13, "velocity": 76}, {"time": 2426, "pitch": 60, "duration": 9, "velocity": 80}, {"time": 2432, "pitch": 52, "duration": 9, "velocity": 78}, {"time": 2438, "pitch": 60, "duration": 3, "velocity": 77}, {"time": 2438, "pitch": 64, "duration": 2, "velocity": 80}, {"time": 2450, "pitch": 41, "duration": 17, "velocity": 85}, {"time": 2450, "pitch": 60, "duration": 15, "velocity": 84}, {"time": 2456, "pitch": 48, "duration": 10, "velocity": 79}, {"time": 2462, "pitch": 53, "duration": 7, "velocity": 83}, {"time": 2468, "pitch": 57, "duration": 5, "velocity": 88}, {"time": 2474, "pitch": 43, "duration": 15, "velocity": 84}, {"time": 2474, "pitch": 55, "duration": 10, "velocity": 83}, {"time": 2474, "pitch": 59, "duration": 10, "velocity": 81}, {"time": 2480, "pitch": 50, "duration": 8, "velocity": 76}, {"time": 2486, "pitch": 55, "duration": 2, "velocity": 83}, {"time": 2486, "pitch": 59, "duration": 2, "velocity": 85}, {"time": 2498, "pitch": 40, "duration": 15, "velocity": 88}, {"time": 2498, "pitch": 55, "duration": 7, "velocity": 82}, {"time": 2498, "pitch": 64, "duration": 13, "velocity": 88}, {"time": 2504, "pitch": 47, "duration": 8, "velocity": 76}, {"time": 2510, "pitch": 59, "duration": 10, "velocity": 84}, {"time": 2516, "pitch": 55, "duration": 3, "velocity": 78}, {"time": 2522, "pitch": 45, "duration": 19, "velocity": 84}, {"time": 2522, "pitch": 57, "duration": 8, "velocity": 78}, {"time": 2522, "pitch": 60, "duration": 8, "velocity": 83}, {"time": 2528, "pitch": 52, "duration": 13, "velocity": 81}, {"time": 2534, "pitch": 57, "duration": 3, "velocity": 82}, {"time": 2534, "pitch": 64, "duration": 5, "velocity": 89}, {"time": 2540, "pitch": 57, "duration": 7, "velocity": 83}, {"time": 2546, "pitch": 50, "duration": 17, "velocity": 86}, {"time": 2546, "pitch": 65, "duration": 12, "velocity": 86}, {"time": 2552, "pitch": 57, "duration": 7, "velocity": 83}, {"time": 2558, "pitch": 62, "duration": 5, "velocity": 82}, {"time": 2570, "pitch": 43, "duration": 17, "velocity": 83}, {"time": 2570, "pitch": 55, "duration": 7, "velocity": 80}, {"time": 2570, "pitch": 59, "duration": 10, "velocity": 83}, {"time": 2576, "pitch": 50, "duration": 10, "velocity": 76}, {"time": 2582, "pitch": 62, "duration": 7, "velocity": 84}, {"time": 2588, "pitch": 55, "duration": 7, "velocity": 89}, {"time": 2594, "pitch": 40, "duration": 16, "velocity": 88}, {"time": 2594, "pitch": 59, "duration": 9, "velocity": 75}, {"time": 2594, "pitch": 64, "duration": 24, "velocity": 85}, {"time": 2600, "pitch": 47, "duration": 9, "velocity": 75}, {"time": 2606, "pitch": 59, "duration": 8, "velocity": 85}, {"time": 2618, "pitch": 45, "duration": 20, "velocity": 87}, {"time": 2618, "pitch": 57, "duration": 9, "velocity": 73}, {"time": 2618, "pitch": 60, "duration": 9, "velocity": 81}, {"time": 2624, "pitch": 52, "duration": 10, "velocity": 81}, {"time": 2630, "pitch": 57, "duration": 3, "velocity": 77}, {"time": 2630, "pitch": 60, "duration": 5, "velocity": 82}, {"time": 2630, "pitch": 64, "duration": 6, "velocity": 85}, {"time": 2636, "pitch": 57, "duration": 7, "velocity": 86}, {"time": 2642, "pitch": 50, "duration": 14, "velocity": 88}, {"time": 2642, "pitch": 65, "duration": 12, "velocity": 84}, {"time": 2648, "pitch": 57, "duration": 8, "velocity": 90}, {"time": 2654, "pitch": 62, "duration": 6, "velocity": 88}, {"time": 2660, "pitch": 57, "duration": 3, "velocity": 81}, {"time": 2666, "pitch": 43, "duration": 16, "velocity": 84}, {"time": 2666, "pitch": 55, "duration": 8, "velocity": 77}, {"time": 2666, "pitch": 59, "duration": 9, "velocity": 83}, {"time": 2672, "pitch": 50, "duration": 9, "velocity": 74}, {"time": 2678, "pitch": 55, "duration": 3, "velocity": 79}, {"time": 2678, "pitch": 59, "duration": 7, "velocity": 81}, {"time": 2678, "pitch": 62, "duration": 10, "velocity": 82}, {"time": 2684, "pitch": 55, "duration": 3, "velocity": 85}, {"time": 2690, "pitch": 45, "duration": 22, "velocity": 85}, {"time": 2690, "pitch": 57, "duration": 13, "velocity": 78}, {"time": 2690, "pitch": 60, "duration": 13, "velocity": 79}, {"time": 2696, "pitch": 52, "duration": 16, "velocity": 77}, {"time": 2702, "pitch": 64, "duration": 9, "velocity": 83}, {"time": 2708, "pitch": 57, "duration": 4, "velocity": 80}, {"time": 2714, "pitch": 45, "duration": 20, "velocity": 83}, {"time": 2714, "pitch": 57, "duration": 9, "velocity": 77}, {"time": 2714, "pitch": 60, "duration": 9, "velocity": 78}, {"time": 2714, "pitch": 64, "duration": 10, "velocity": 85}, {"time": 2720, "pitch": 52, "duration": 12, "velocity": 76}, {"time": 2726, "pitch": 57, "duration": 4, "velocity": 84}, {"time": 2726, "pitch": 60, "duration": 3, "velocity": 88}, {"time": 2726, "pitch": 64, "duration": 4, "velocity": 89}, {"time": 2732, "pitch": 60, "duration": 3, "velocity": 87}, {"time": 2738, "pitch": 45, "duration": 18, "velocity": 88}, {"time": 2738, "pitch": 57, "duration": 12, "velocity": 73}, {"time": 2738, "pitch": 60, "duration": 13, "velocity": 77}, {"time": 2744, "pitch": 52, "duration": 11, "velocity": 78}, {"time": 2750, "pitch": 64, "duration": 7, "velocity": 86}, {"time": 2756, "pitch": 57, "duration": 3, "velocity": 85}, {"time": 2762, "pitch": 43, "duration": 14, "velocity": 83}, {"time": 2762, "pitch": 55, "duration": 13, "velocity": 78}, {"time": 2762, "pitch": 59, "duration": 9, "velocity": 79}, {"time": 2768, "pitch": 50, "duration": 7, "velocity": 72}, {"time": 2774, "pitch": 59, "duration": 2, "velocity": 87}, {"time": 2774, "pitch": 62, "duration": 3, "velocity": 81}, {"time": 2786, "pitch": 40, "duration": 13, "velocity": 84}, {"time": 2786, "pitch": 55, "duration": 13, "velocity": 77}, {"time": 2786, "pitch": 59, "duration": 9, "velocity": 80}, {"time": 2792, "pitch": 47, "duration": 6, "velocity": 74}, {"time": 2798, "pitch": 59, "duration": 8, "velocity": 83}, {"time": 2798, "pitch": 64, "duration": 13, "velocity": 88}, {"time": 2804, "pitch": 55, "duration": 3, "velocity": 88}, {"time": 2810, "pitch": 45, "duration": 16, "velocity": 85}, {"time": 2810, "pitch": 57, "duration": 13, "velocity": 76}, {"time": 2810, "pitch": 60, "duration": 9, "velocity": 80}, {"time": 2816, "pitch": 52, "duration": 9, "velocity": 78}, {"time": 2822, "pitch": 60, "duration": 3, "velocity": 77}, {"time": 2822, "pitch": 64, "duration": 2, "velocity": 80}, {"time": 2834, "pitch": 41, "duration": 17, "velocity": 85}, {"time": 2834, "pitch": 60, "duration": 15, "velocity": 84}, {"time": 2840, "pitch": 48, "duration": 10, "velocity": 79}, {"time": 2846, "pitch": 53, "duration": 7, "velocity": 83}, {"time": 2852, "pitch": 57, "duration": 5, "velocity": 88}, {"time": 2858, "pitch": 43, "duration": 15, "velocity": 84}, {"time": 2858, "pitch": 55, "duration": 10, "velocity": 83}, {"time": 2858, "pitch": 59, "duration": 10, "velocity": 81}, {"time": 2864, "pitch": 50, "duration": 8, "velocity": 76}, {"time": 2870, "pitch": 55, "duration": 2, "velocity": 83}, {"time": 2870, "pitch": 59, "duration": 2, "velocity": 85}, {"time": 2882, "pitch": 40, "duration": 15, "velocity": 88}, {"time": 2882, "pitch": 55, "duration": 7, "velocity": 82}, {"time": 2882, "pitch": 64, "duration": 13, "velocity": 88}, {"time": 2888, "pitch": 47, "duration": 8, "velocity": 76}, {"time": 2894, "pitch": 59, "duration": 10, "velocity": 84}, {"time": 2900, "pitch": 55, "duration": 3, "velocity": 78}, {"time": 2906, "pitch": 45, "duration": 19, "velocity": 84}, {"time": 2906, "pitch": 57, "duration": 8, "velocity": 78}, {"time": 2906, "pitch": 60, "duration": 8, "velocity": 83}, {"time": 2912, "pitch": 52, "duration": 13, "velocity": 81}, {"time": 2918, "pitch": 57, "duration": 3, "velocity": 82}, {"time": 2918, "pitch": 64, "duration": 5, "velocity": 89}, {"time": 2924, "pitch": 57, "duration": 7, "velocity": 83}, {"time": 2930, "pitch": 50, "duration": 17, "velocity": 86}, {"time": 2930, "pitch": 65, "duration": 12, "velocity": 86}, {"time": 2936, "pitch": 57, "duration": 7, "velocity": 83}, {"time": 2942, "pitch": 62, "duration": 5, "velocity": 82}, {"time": 2954, "pitch": 43, "duration": 17, "velocity": 83}, {"time": 2954, "pitch": 55, "duration": 7, "velocity": 80}, {"time": 2954, "pitch": 59, "duration": 10, "velocity": 83}, {"time": 2960, "pitch": 50, "duration": 10, "velocity": 76}, {"time": 2966, "pitch": 62, "duration": 7, "velocity": 84}, {"time": 2972, "pitch": 55, "duration": 7, "velocity": 89}, {"time": 2978, "pitch": 40, "duration": 16, "velocity": 88}, {"time": 2978, "pitch": 59, "duration": 9, "velocity": 75}, {"time": 2978, "pitch": 64, "duration": 24, "velocity": 85}, {"time": 2984, "pitch": 47, "duration": 9, "velocity": 75}, {"time": 2990, "pitch": 59, "duration": 8, "velocity": 85}, {"time": 3002, "pitch": 45, "duration": 20, "velocity": 87}, {"time": 3002, "pitch": 57, "duration": 9, "velocity": 73}, {"time": 3002, "pitch": 60, "duration": 9, "velocity": 81}, {"time": 3008, "pitch": 52, "duration": 10, "velocity": 81}, {"time": 3014, "pitch": 57, "duration": 3, "velocity": 77}, {"time": 3014, "pitch": 60, "duration": 5, "velocity": 82}, {"time": 3014, "pitch": 64, "duration": 6, "velocity": 85}, {"time": 3020, "pitch": 57, "duration": 7, "velocity": 86}, {"time": 3026, "pitch": 50, "duration": 14, "velocity": 88}, {"time": 3026, "pitch": 65, "duration": 12, "velocity": 84}, {"time": 3032, "pitch": 57, "duration": 8, "velocity": 90}, {"time": 3038, "pitch": 62, "duration": 6, "velocity": 88}, {"time": 3044, "pitch": 57, "duration": 3, "velocity": 81}, {"time": 3050, "pitch": 43, "duration": 16, "velocity": 84}, {"time": 3050, "pitch": 55, "duration": 8, "velocity": 77}, {"time": 3050, "pitch": 59, "duration": 9, "velocity": 83}, {"time": 3056, "pitch": 50, "duration": 9, "velocity": 74}, {"time": 3062, "pitch": 55, "duration": 3, "velocity": 79}, {"time": 3062, "pitch": 59, "duration": 7, "velocity": 81}, {"time": 3062, "pitch": 62, "duration": 10, "velocity": 82}, {"time": 3068, "pitch": 55, "duration": 3, "velocity": 85}, {"time": 3074, "pitch": 45, "duration": 22, "velocity": 85}, {"time": 3074, "pitch": 57, "duration": 13, "velocity": 78}, {"time": 3074, "pitch": 60, "duration": 13, "velocity": 79}, {"time": 3080, "pitch": 52, "duration": 16, "velocity": 77}, {"time": 3086, "pitch": 64, "duration": 9, "velocity": 83}, {"time": 3092, "pitch": 57, "duration": 4, "velocity": 80}, {"time": 3098, "pitch": 45, "duration": 20, "velocity": 83}, {"time": 3098, "pitch": 57, "duration": 9, "velocity": 77}, {"time": 3098, "pitch": 60, "duration": 9, "velocity": 78}, {"time": 3098, "pitch": 64, "duration": 10, "velocity": 85}, {"time": 3104, "pitch": 52, "duration": 12, "velocity": 76}, {"time": 3110, "pitch": 57, "duration": 4, "velocity": 84}, {"time": 3110, "pitch": 60, "duration": 3, "velocity": 88}, {"time": 3110, "pitch": 64, "duration": 4, "velocity": 89}, {"time": 3116, "pitch": 60, "duration": 3, "velocity": 87}, {"time": 3122, "pitch": 41, "duration": 16, "velocity": 88}, {"time": 3122, "pitch": 57, "duration": 8, "velocity": 87}, {"time": 3122, "pitch": 60, "duration": 9, "velocity": 88}, {"time": 3128, "pitch": 48, "duration": 7, "velocity": 88}, {"time": 3134, "pitch": 57, "duration": 3, "velocity": 83}, {"time": 3134, "pitch": 60, "duration": 5, "velocity": 89}, {"time": 3134, "pitch": 65, "duration": 8, "velocity": 88}, {"time": 3137, "pitch": 48, "duration": 3, "velocity": 88}, {"time": 3140, "pitch": 57, "duration": 4, "velocity": 85}, {"time": 3143, "pitch": 60, "duration": 2, "velocity": 83}, {"time": 3146, "pitch": 43, "duration": 15, "velocity": 88}, {"time": 3146, "pitch": 55, "duration": 7, "velocity": 86}, {"time": 3146, "pitch": 59, "duration": 7, "velocity": 88}, {"time": 3152, "pitch": 50, "duration": 7, "velocity": 83}, {"time": 3158, "pitch": 55, "duration": 5, "velocity": 90}, {"time": 3158, "pitch": 59, "duration": 5, "velocity": 92}, {"time": 3158, "pitch": 62, "duration": 6, "velocity": 88}, {"time": 3164, "pitch": 50, "duration": 2, "velocity": 83}, {"time": 3170, "pitch": 45, "duration": 21, "velocity": 88}, {"time": 3170, "pitch": 57, "duration": 7, "velocity": 81}, {"time": 3170, "pitch": 60, "duration": 7, "velocity": 84}, {"time": 3176, "pitch": 52, "duration": 7, "velocity": 84}, {"time": 3182, "pitch": 57, "duration": 7, "velocity": 85}, {"time": 3182, "pitch": 60, "duration": 7, "velocity": 90}, {"time": 3182, "pitch": 64, "duration": 8, "velocity": 90}, {"time": 3188, "pitch": 52, "duration": 3, "velocity": 85}, {"time": 3191, "pitch": 57, "duration": 2, "velocity": 79}, {"time": 3191, "pitch": 62, "duration": 2, "velocity": 79}, {"time": 3194, "pitch": 45, "duration": 17, "velocity": 89}, {"time": 3194, "pitch": 57, "duration": 7, "velocity": 83}, {"time": 3194, "pitch": 62, "duration": 7, "velocity": 88}, {"time": 3200, "pitch": 52, "duration": 8, "velocity": 89}, {"time": 3203, "pitch": 57, "duration": 3, "velocity": 80}, {"time": 3206, "pitch": 60, "duration": 6, "velocity": 94}, {"time": 3209, "pitch": 52, "duration": 2, "velocity": 92}, {"time": 3212, "pitch": 57, "duration": 4, "velocity": 89}, {"time": 3215, "pitch": 60, "duration": 2, "velocity": 77}, {"time": 3218, "pitch": 41, "duration": 18, "velocity": 88}, {"time": 3218, "pitch": 60, "duration": 8, "velocity": 88}, {"time": 3224, "pitch": 48, "duration": 7, "velocity": 84}, {"time": 3230, "pitch": 53, "duration": 5, "velocity": 89}, {"time": 3233, "pitch": 57, "duration": 3, "velocity": 89}, {"time": 3236, "pitch": 60, "duration": 4, "velocity": 93}, {"time": 3239, "pitch": 53, "duration": 3, "velocity": 88}, {"time": 3242, "pitch": 43, "duration": 21, "velocity": 84}, {"time": 3245, "pitch": 50, "duration": 12, "velocity": 86}, {"time": 3248, "pitch": 55, "duration": 5, "velocity": 89}, {"time": 3251, "pitch": 59, "duration": 4, "velocity": 88}, {"time": 3254, "pitch": 62, "duration": 4, "velocity": 90}, {"time": 3257, "pitch": 55, "duration": 4, "velocity": 90}, {"time": 3260, "pitch": 50, "duration": 4, "velocity": 89}, {"time": 3266, "pitch": 48, "duration": 17, "velocity": 90}, {"time": 3266, "pitch": 55, "duration": 4, "velocity": 83}, {"time": 3266, "pitch": 60, "duration": 8, "velocity": 83}, {"time": 3266, "pitch": 64, "duration": 7, "velocity": 87}, {"time": 3272, "pitch": 55, "duration": 3, "velocity": 87}, {"time": 3278, "pitch": 55, "duration": 4, "velocity": 90}, {"time": 3278, "pitch": 60, "duration": 3, "velocity": 90}, {"time": 3278, "pitch": 64, "duration": 6, "velocity": 94}, {"time": 3284, "pitch": 62, "duration": 4, "velocity": 88}, {"time": 3287, "pitch": 64, "duration": 3, "velocity": 84}, {"time": 3290, "pitch": 48, "duration": 18, "velocity": 90}, {"time": 3290, "pitch": 55, "duration": 4, "velocity": 89}, {"time": 3290, "pitch": 60, "duration": 10, "velocity": 93}, {"time": 3299, "pitch": 55, "duration": 3, "velocity": 78}, {"time": 3302, "pitch": 55, "duration": 2, "velocity": 84}, {"time": 3302, "pitch": 62, "duration": 7, "velocity": 91}, {"time": 3308, "pitch": 60, "duration": 5, "velocity": 86}, {"time": 3314, "pitch": 38, "duration": 21, "velocity": 92}, {"time": 3314, "pitch": 62, "duration": 7, "velocity": 84}, {"time": 3320, "pitch": 45, "duration": 13, "velocity": 74}, {"time": 3326, "pitch": 57, "duration": 4, "velocity": 84}, {"time": 3326, "pitch": 62, "duration": 1, "velocity": 77}, {"time": 3326, "pitch": 65, "duration": 7, "velocity": 87}, {"time": 3332, "pitch": 62, "duration": 5, "velocity": 83}, {"time": 3338, "pitch": 38, "duration": 15, "velocity": 88}, {"time": 3338, "pitch": 57, "duration": 8, "velocity": 82}, {"time": 3338, "pitch": 62, "duration": 7, "velocity": 83}, {"time": 3344, "pitch": 45, "duration": 8, "velocity": 82}, {"time": 3350, "pitch": 57, "duration": 2, "velocity": 85}, {"time": 3350, "pitch": 62, "duration": 6, "velocity": 90}, {"time": 3350, "pitch": 65, "duration": 6, "velocity": 87}, {"time": 3356, "pitch": 57, "duration": 2, "velocity": 84}, {"time": 3362, "pitch": 40, "duration": 15, "velocity": 89}, {"time": 3362, "pitch": 52, "duration": 12, "velocity": 80}, {"time": 3362, "pitch": 55, "duration": 11, "velocity": 82}, {"time": 3368, "pitch": 47, "duration": 8, "velocity": 77}, {"time": 3374, "pitch": 59, "duration": 8, "velocity": 85}, {"time": 3380, "pitch": 52, "duration": 3, "velocity": 88}, {"time": 3386, "pitch": 45, "duration": 18, "velocity": 89}, {"time": 3386, "pitch": 57, "duration": 7, "velocity": 76}, {"time": 3386, "pitch": 60, "duration": 8, "velocity": 80}, {"time": 3392, "pitch": 52, "duration": 8, "velocity": 84}, {"time": 3398, "pitch": 57, "duration": 4, "velocity": 88}, {"time": 3398, "pitch": 60, "duration": 4, "velocity": 89}, {"time": 3401, "pitch": 52, "duration": 3, "velocity": 88}, {"time": 3404, "pitch": 55, "duration": 2, "velocity": 79}, {"time": 3404, "pitch": 59, "duration": 4, "velocity": 95}, {"time": 3410, "pitch": 50, "duration": 15, "velocity": 81}, {"time": 3410, "pitch": 57, "duration": 4, "velocity": 81}, {"time": 3410, "pitch": 62, "duration": 8, "velocity": 83}, {"time": 3416, "pitch": 57, "duration": 3, "velocity": 89}, {"time": 3422, "pitch": 57, "duration": 4, "velocity": 89}, {"time": 3422, "pitch": 62, "duration": 7, "velocity": 91}, {"time": 3422, "pitch": 65, "duration": 8, "velocity": 88}, {"time": 3428, "pitch": 50, "duration": 3, "velocity": 91}, {"time": 3431, "pitch": 57, "duration": 2, "velocity": 88}, {"time": 3434, "pitch": 43, "duration": 16, "velocity": 89}, {"time": 3434, "pitch": 55, "duration": 7, "velocity": 89}, {"time": 3434, "pitch": 59, "duration": 7, "velocity": 89}, {"time": 3440, "pitch": 50, "duration": 9, "velocity": 81}, {"time": 3446, "pitch": 55, "duration": 3, "velocity": 90}, {"time": 3446, "pitch": 59, "duration": 4, "velocity": 90}, {"time": 3446, "pitch": 62, "duration": 4, "velocity": 88}, {"time": 3452, "pitch": 43, "duration": 3, "velocity": 89}, {"time": 3458, "pitch": 40, "duration": 21, "velocity": 93}, {"time": 3458, "pitch": 52, "duration": 6, "velocity": 86}, {"time": 3458, "pitch": 59, "duration": 8, "velocity": 86}, {"time": 3470, "pitch": 52, "duration": 8, "velocity": 89}, {"time": 3473, "pitch": 56, "duration": 5, "velocity": 89}, {"time": 3476, "pitch": 59, "duration": 4, "velocity": 93}, {"time": 3479, "pitch": 64, "duration": 7, "velocity": 93}, {"time": 3482, "pitch": 52, "duration": 16, "velocity": 95}, {"time": 3482, "pitch": 68, "duration": 9, "velocity": 90}, {"time": 3488, "pitch": 59, "duration": 7, "velocity": 102}, {"time": 3491, "pitch": 64, "duration": 2, "velocity": 88}, {"time": 3494, "pitch": 64, "duration": 4, "velocity": 89}, {"time": 3494, "pitch": 68, "duration": 7, "velocity": 93}, {"time": 3494, "pitch": 71, "duration": 9, "velocity": 93}, {"time": 3494, "pitch": 76, "duration": 8, "velocity": 92}, {"time": 3497, "pitch": 59, "duration": 4, "velocity": 90}, {"time": 3500, "pitch": 64, "duration": 4, "velocity": 93}, {"time": 3503, "pitch": 68, "duration": 3, "velocity": 85}, {"time": 3506, "pitch": 41, "duration": 16, "velocity": 88}, {"time": 3506, "pitch": 57, "duration": 8, "velocity": 87}, {"time": 3506, "pitch": 60, "duration": 9, "velocity": 88}, {"time": 3512, "pitch": 48, "duration": 7, "velocity": 88}, {"time": 3518, "pitch": 57, "duration": 3, "velocity": 83}, {"time": 3518, "pitch": 60, "duration": 5, "velocity": 89}, {"time": 3518, "pitch": 65, "duration": 8, "velocity": 88}, {"time": 3521, "pitch": 48, "duration": 3, "velocity": 88}, {"time": 3524, "pitch": 57, "duration": 4, "velocity": 85}, {"time": 3527, "pitch": 60, "duration": 2, "velocity": 83}, {"time": 3530, "pitch": 43, "duration": 15, "velocity": 88}, {"time": 3530, "pitch": 55, "duration": 7, "velocity": 86}, {"time": 3530, "pitch": 59, "duration": 7, "velocity": 88}, {"time": 3536, "pitch": 50, "duration": 7, "velocity": 83}, {"time": 3542, "pitch": 55, "duration": 5, "velocity": 90}, {"time": 3542, "pitch": 59, "duration": 5, "velocity": 92}, {"time": 3542, "pitch": 62, "duration": 6, "velocity": 88}, {"time": 3548, "pitch": 50, "duration": 2, "velocity": 83}, {"time": 3554, "pitch": 45, "duration": 21, "velocity": 88}, {"time": 3554, "pitch": 57, "duration": 7, "velocity": 81}, {"time": 3554, "pitch": 60, "duration": 7, "velocity": 84}, {"time": 3560, "pitch": 52, "duration": 7, "velocity": 84}, {"time": 3566, "pitch": 57, "duration": 7, "velocity": 85}, {"time": 3566, "pitch": 60, "duration": 7, "velocity": 90}, {"time": 3566, "pitch": 64, "duration": 8, "velocity": 90}, {"time": 3572, "pitch": 52, "duration": 3, "velocity": 85}, {"time": 3575, "pitch": 57, "duration": 2, "velocity": 79}, {"time": 3575, "pitch": 62, "duration": 2, "velocity": 79}, {"time": 3578, "pitch": 45, "duration": 17, "velocity": 89}, {"time": 3578, "pitch": 57, "duration": 7, "velocity": 83}, {"time": 3578, "pitch": 62, "duration": 7, "velocity": 88}, {"time": 3584, "pitch": 52, "duration": 8, "velocity": 89}, {"time": 3587, "pitch": 57, "duration": 3, "velocity": 80}, {"time": 3590, "pitch": 60, "duration": 6, "velocity": 94}, {"time": 3593, "pitch": 52, "duration": 2, "velocity": 92}, {"time": 3596, "pitch": 57, "duration": 4, "velocity": 89}, {"time": 3599, "pitch": 60, "duration": 2, "velocity": 77}, {"time": 3602, "pitch": 41, "duration": 18, "velocity": 88}, {"time": 3602, "pitch": 60, "duration": 8, "velocity": 88}, {"time": 3608, "pitch": 48, "duration": 7, "velocity": 84}, {"time": 3614, "pitch": 53, "duration": 5, "velocity": 89}, {"time": 3617, "pitch": 57, "duration": 3, "velocity": 89}, {"time": 3620, "pitch": 60, "duration": 4, "velocity": 93}, {"time": 3623, "pitch": 53, "duration": 3, "velocity": 88}, {"time": 3626, "pitch": 43, "duration": 21, "velocity": 84}, {"time": 3629, "pitch": 50, "duration": 12, "velocity": 86}, {"time": 3632, "pitch": 55, "duration": 5, "velocity": 89}, {"time": 3635, "pitch": 59, "duration": 4, "velocity": 88}, {"time": 3638, "pitch": 62, "duration": 4, "velocity": 90}, {"time": 3641, "pitch": 55, "duration": 4, "velocity": 90}, {"time": 3644, "pitch": 50, "duration": 4, "velocity": 89}, {"time": 3650, "pitch": 48, "duration": 17, "velocity": 90}, {"time": 3650, "pitch": 55, "duration": 4, "velocity": 83}, {"time": 3650, "pitch": 60, "duration": 8, "velocity": 83}, {"time": 3650, "pitch": 64, "duration": 7, "velocity": 87}, {"time": 3656, "pitch": 55, "duration": 3, "velocity": 87}, {"time": 3662, "pitch": 55, "duration": 4, "velocity": 90}, {"time": 3662, "pitch": 60, "duration": 3, "velocity": 90}, {"time": 3662, "pitch": 64, "duration": 6, "velocity": 94}, {"time": 3668, "pitch": 62, "duration": 4, "velocity": 88}, {"time": 3671, "pitch": 64, "duration": 3, "velocity": 84}, {"time": 3674, "pitch": 48, "duration": 18, "velocity": 90}, {"time": 3674, "pitch": 55, "duration": 4, "velocity": 89}, {"time": 3674, "pitch": 60, "duration": 10, "velocity": 93}, {"time": 3683, "pitch": 55, "duration": 3, "velocity": 78}, {"time": 3686, "pitch": 55, "duration": 2, "velocity": 84}, {"time": 3686, "pitch": 62, "duration": 7, "velocity": 91}, {"time": 3692, "pitch": 60, "duration": 5, "velocity": 86}, {"time": 3698, "pitch": 38, "duration": 21, "velocity": 92}, {"time": 3698, "pitch": 62, "duration": 7, "velocity": 84}, {"time": 3704, "pitch": 45, "duration": 13, "velocity": 74}, {"time": 3710, "pitch": 57, "duration": 4, "velocity": 84}, {"time": 3710, "pitch": 62, "duration": 1, "velocity": 77}, {"time": 3710, "pitch": 65, "duration": 7, "velocity": 87}, {"time": 3716, "pitch": 62, "duration": 5, "velocity": 83}, {"time": 3722, "pitch": 38, "duration": 15, "velocity": 88}, {"time": 3722, "pitch": 57, "duration": 8, "velocity": 82}, {"time": 3722, "pitch": 62, "duration": 7, "velocity": 83}, {"time": 3728, "pitch": 45, "duration": 8, "velocity": 82}, {"time": 3734, "pitch": 57, "duration": 2, "velocity": 85}, {"time": 3734, "pitch": 62, "duration": 6, "velocity": 90}, {"time": 3734, "pitch": 65, "duration": 6, "velocity": 87}, {"time": 3740, "pitch": 57, "duration": 2, "velocity": 84}, {"time": 3746, "pitch": 40, "duration": 15, "velocity": 89}, {"time": 3746, "pitch": 52, "duration": 12, "velocity": 80}, {"time": 3746, "pitch": 55, "duration": 11, "velocity": 82}, {"time": 3752, "pitch": 47, "duration": 8, "velocity": 77}, {"time": 3758, "pitch": 59, "duration": 8, "velocity": 85}, {"time": 3764, "pitch": 52, "duration": 3, "velocity": 88}, {"time": 3770, "pitch": 45, "duration": 18, "velocity": 89}, {"time": 3770, "pitch": 57, "duration": 7, "velocity": 76}, {"time": 3770, "pitch": 60, "duration": 8, "velocity": 80}, {"time": 3776, "pitch": 52, "duration": 8, "velocity": 84}, {"time": 3782, "pitch": 57, "duration": 4, "velocity": 88}, {"time": 3782, "pitch": 60, "duration": 4, "velocity": 89}, {"time": 3785, "pitch": 52, "duration": 3, "velocity": 88}, {"time": 3788, "pitch": 55, "duration": 2, "velocity": 79}, {"time": 3788, "pitch": 59, "duration": 4, "velocity": 95}, {"time": 3794, "pitch": 50, "duration": 15, "velocity": 81}, {"time": 3794, "pitch": 57, "duration": 4, "velocity": 81}, {"time": 3794, "pitch": 62, "duration": 8, "velocity": 83}, {"time": 3800, "pitch": 57, "duration": 3, "velocity": 89}, {"time": 3806, "pitch": 57, "duration": 4, "velocity": 89}, {"time": 3806, "pitch": 62, "duration": 7, "velocity": 91}, {"time": 3806, "pitch": 65, "duration": 8, "velocity": 88}, {"time": 3812, "pitch": 50, "duration": 3, "velocity": 91}, {"time": 3815, "pitch": 57, "duration": 2, "velocity": 88}, {"time": 3818, "pitch": 43, "duration": 16, "velocity": 89}, {"time": 3818, "pitch": 55, "duration": 7, "velocity": 89}, {"time": 3818, "pitch": 59, "duration": 7, "velocity": 89}, {"time": 3824, "pitch": 50, "duration": 9, "velocity": 81}, {"time": 3830, "pitch": 55, "duration": 3, "velocity": 90}, {"time": 3830, "pitch": 59, "duration": 4, "velocity": 90}, {"time": 3830, "pitch": 62, "duration": 4, "velocity": 88}, {"time": 3836, "pitch": 43, "duration": 3, "velocity": 89}, {"time": 3842, "pitch": 45, "duration": 23, "velocity": 89}, {"time": 3842, "pitch": 57, "duration": 7, "velocity": 84}, {"time": 3842, "pitch": 60, "duration": 7, "velocity": 88}, {"time": 3848, "pitch": 52, "duration": 16, "velocity": 82}, {"time": 3854, "pitch": 57, "duration": 4, "velocity": 83}, {"time": 3854, "pitch": 60, "duration": 4, "velocity": 89}, {"time": 3854, "pitch": 64, "duration": 4, "velocity": 89}, {"time": 3860, "pitch": 62, "duration": 4, "velocity": 83}, {"time": 3863, "pitch": 64, "duration": 3, "velocity": 80}, {"time": 3866, "pitch": 45, "duration": 21, "velocity": 88}, {"time": 3866, "pitch": 57, "duration": 7, "velocity": 78}, {"time": 3866, "pitch": 60, "duration": 8, "velocity": 80}, {"time": 3872, "pitch": 52, "duration": 15, "velocity": 77}, {"time": 3878, "pitch": 57, "duration": 4, "velocity": 78}, {"time": 3878, "pitch": 60, "duration": 7, "velocity": 85}, {"time": 3884, "pitch": 57, "duration": 3, "velocity": 77}, {"time": 3890, "pitch": 41, "duration": 16, "velocity": 88}, {"time": 3890, "pitch": 57, "duration": 8, "velocity": 87}, {"time": 3890, "pitch": 60, "duration": 9, "velocity": 88}, {"time": 3896, "pitch": 48, "duration": 7, "velocity": 88}, {"time": 3902, "pitch": 57, "duration": 3, "velocity": 83}, {"time": 3902, "pitch": 60, "duration": 5, "velocity": 89}, {"time": 3902, "pitch": 65, "duration": 8, "velocity": 88}, {"time": 3905, "pitch": 48, "duration": 3, "velocity": 88}, {"time": 3908, "pitch": 57, "duration": 4, "velocity": 85}, {"time": 3911, "pitch": 60, "duration": 2, "velocity": 83}, {"time": 3914, "pitch": 43, "duration": 15, "velocity": 88}, {"time": 3914, "pitch": 55, "duration": 7, "velocity": 86}, {"time": 3914, "pitch": 59, "duration": 7, "velocity": 88}, {"time": 3920, "pitch": 50, "duration": 7, "velocity": 83}, {"time": 3926, "pitch": 55, "duration": 5, "velocity": 90}, {"time": 3926, "pitch": 59, "duration": 5, "velocity": 92}, {"time": 3926, "pitch": 62, "duration": 6, "velocity": 88}, {"time": 3932, "pitch": 50, "duration": 2, "velocity": 83}, {"time": 3938, "pitch": 45, "duration": 21, "velocity": 88}, {"time": 3938, "pitch": 57, "duration": 7, "velocity": 81}, {"time": 3938, "pitch": 60, "duration": 7, "velocity": 84}, {"time": 3944, "pitch": 52, "duration": 7, "velocity": 84}, {"time": 3950, "pitch": 57, "duration": 7, "velocity": 85}, {"time": 3950, "pitch": 60, "duration": 7, "velocity": 90}, {"time": 3950, "pitch": 64, "duration": 8, "velocity": 90}, {"time": 3956, "pitch": 52, "duration": 3, "velocity": 85}, {"time": 3959, "pitch": 57, "duration": 2, "velocity": 79}, {"time": 3959, "pitch": 62, "duration": 2, "velocity": 79}, {"time": 3962, "pitch": 45, "duration": 17, "velocity": 89}, {"time": 3962, "pitch": 57, "duration": 7, "velocity": 83}, {"time": 3962, "pitch": 62, "duration": 7, "velocity": 88}, {"time": 3968, "pitch": 52, "duration": 8, "velocity": 89}, {"time": 3971, "pitch": 57, "duration": 3, "velocity": 80}, {"time": 3974, "pitch": 60, "duration": 6, "velocity": 94}, {"time": 3977, "pitch": 52, "duration": 2, "velocity": 92}, {"time": 3980, "pitch": 57, "duration": 4, "velocity": 89}, {"time": 3983, "pitch": 60, "duration": 2, "velocity": 77}, {"time": 3986, "pitch": 41, "duration": 18, "velocity": 88}, {"time": 3986, "pitch": 60, "duration": 8, "velocity": 88}, {"time": 3992, "pitch": 48, "duration": 7, "velocity": 84}, {"time": 3998, "pitch": 53, "duration": 5, "velocity": 89}, {"time": 4001, "pitch": 57, "duration": 3, "velocity": 89}, {"time": 4004, "pitch": 60, "duration": 4, "velocity": 93}, {"time": 4007, "pitch": 53, "duration": 3, "velocity": 88}, {"time": 4010, "pitch": 43, "duration": 21, "velocity": 84}, {"time": 4013, "pitch": 50, "duration": 12, "velocity": 86}, {"time": 4016, "pitch": 55, "duration": 5, "velocity": 89}, {"time": 4019, "pitch": 59, "duration": 4, "velocity": 88}, {"time": 4022, "pitch": 62, "duration": 4, "velocity": 90}, {"time": 4025, "pitch": 55, "duration": 4, "velocity": 90}, {"time": 4028, "pitch": 50, "duration": 4, "velocity": 89}, {"time": 4034, "pitch": 48, "duration": 17, "velocity": 90}, {"time": 4034, "pitch": 55, "duration": 4, "velocity": 83}, {"time": 4034, "pitch": 60, "duration": 8, "velocity": 83}, {"time": 4034, "pitch": 64, "duration": 7, "velocity": 87}, {"time": 4040, "pitch": 55, "duration": 3, "velocity": 87}, {"time": 4046, "pitch": 55, "duration": 4, "velocity": 90}, {"time": 4046, "pitch": 60, "duration": 3, "velocity": 90}, {"time": 4046, "pitch": 64, "duration": 6, "velocity": 94}, {"time": 4052, "pitch": 62, "duration": 4, "velocity": 88}, {"time": 4055, "pitch": 64, "duration": 3, "velocity": 84}, {"time": 4058, "pitch": 48, "duration": 18, "velocity": 90}, {"time": 4058, "pitch": 55, "duration": 4, "velocity": 89}, {"time": 4058, "pitch": 60, "duration": 10, "velocity": 93}, {"time": 4067, "pitch": 55, "duration": 3, "velocity": 78}, {"time": 4070, "pitch": 55, "duration": 2, "velocity": 84}, {"time": 4070, "pitch": 62, "duration": 7, "velocity": 91}, {"time": 4076, "pitch": 60, "duration": 5, "velocity": 86}, {"time": 4082, "pitch": 38, "duration": 21, "velocity": 92}, {"time": 4082, "pitch": 62, "duration": 7, "velocity": 84}, {"time": 4088, "pitch": 45, "duration": 13, "velocity": 74}, {"time": 4094, "pitch": 57, "duration": 4, "velocity": 84}, {"time": 4094, "pitch": 62, "duration": 1, "velocity": 77}, {"time": 4094, "pitch": 65, "duration": 7, "velocity": 87}, {"time": 4100, "pitch": 62, "duration": 5, "velocity": 83}, {"time": 4106, "pitch": 38, "duration": 15, "velocity": 88}, {"time": 4106, "pitch": 57, "duration": 8, "velocity": 82}, {"time": 4106, "pitch": 62, "duration": 7, "velocity": 83}, {"time": 4112, "pitch": 45, "duration": 8, "velocity": 82}, {"time": 4118, "pitch": 57, "duration": 2, "velocity": 85}, {"time": 4118, "pitch": 62, "duration": 6, "velocity": 90}, {"time": 4118, "pitch": 65, "duration": 6, "velocity": 87}, {"time": 4124, "pitch": 57, "duration": 2, "velocity": 84}, {"time": 4130, "pitch": 40, "duration": 15, "velocity": 89}, {"time": 4130, "pitch": 52, "duration": 12, "velocity": 80}, {"time": 4130, "pitch": 55, "duration": 11, "velocity": 82}, {"time": 4136, "pitch": 47, "duration": 8, "velocity": 77}, {"time": 4142, "pitch": 59, "duration": 8, "velocity": 85}, {"time": 4148, "pitch": 52, "duration": 3, "velocity": 88}, {"time": 4154, "pitch": 45, "duration": 18, "velocity": 89}, {"time": 4154, "pitch": 57, "duration": 7, "velocity": 76}, {"time": 4154, "pitch": 60, "duration": 8, "velocity": 80}, {"time": 4160, "pitch": 52, "duration": 8, "velocity": 84}, {"time": 4166, "pitch": 57, "duration": 4, "velocity": 88}, {"time": 4166, "pitch": 60, "duration": 4, "velocity": 89}, {"time": 4169, "pitch": 52, "duration": 3, "velocity": 88}, {"time": 4172, "pitch": 55, "duration": 2, "velocity": 79}, {"time": 4172, "pitch": 59, "duration": 4, "velocity": 95}, {"time": 4178, "pitch": 50, "duration": 15, "velocity": 81}, {"time": 4178, "pitch": 57, "duration": 4, "velocity": 81}, {"time": 4178, "pitch": 62, "duration": 8, "velocity": 83}, {"time": 4184, "pitch": 57, "duration": 3, "velocity": 89}, {"time": 4190, "pitch": 57, "duration": 4, "velocity": 89}, {"time": 4190, "pitch": 62, "duration": 7, "velocity": 91}, {"time": 4190, "pitch": 65, "duration": 8, "velocity": 88}, {"time": 4196, "pitch": 50, "duration": 3, "velocity": 91}, {"time": 4199, "pitch": 57, "duration": 2, "velocity": 88}, {"time": 4202, "pitch": 43, "duration": 16, "velocity": 89}, {"time": 4202, "pitch": 55, "duration": 7, "velocity": 89}, {"time": 4202, "pitch": 59, "duration": 7, "velocity": 89}, {"time": 4208, "pitch": 50, "duration": 9, "velocity": 81}, {"time": 4214, "pitch": 55, "duration": 3, "velocity": 90}, {"time": 4214, "pitch": 59, "duration": 4, "velocity": 90}, {"time": 4214, "pitch": 62, "duration": 4, "velocity": 88}, {"time": 4220, "pitch": 43, "duration": 3, "velocity": 89}, {"time": 4226, "pitch": 40, "duration": 21, "velocity": 93}, {"time": 4226, "pitch": 52, "duration": 6, "velocity": 86}, {"time": 4226, "pitch": 59, "duration": 8, "velocity": 86}, {"time": 4238, "pitch": 52, "duration": 8, "velocity": 89}, {"time": 4241, "pitch": 56, "duration": 5, "velocity": 89}, {"time": 4244, "pitch": 59, "duration": 4, "velocity": 93}, {"time": 4247, "pitch": 64, "duration": 7, "velocity": 93}, {"time": 4250, "pitch": 52, "duration": 16, "velocity": 95}, {"time": 4250, "pitch": 68, "duration": 9, "velocity": 90}, {"time": 4256, "pitch": 59, "duration": 7, "velocity": 102}, {"time": 4259, "pitch": 64, "duration": 2, "velocity": 88}, {"time": 4262, "pitch": 64, "duration": 4, "velocity": 89}, {"time": 4262, "pitch": 68, "duration": 7, "velocity": 93}, {"time": 4262, "pitch": 71, "duration": 9, "velocity": 93}, {"time": 4262, "pitch": 76, "duration": 8, "velocity": 92}, {"time": 4265, "pitch": 59, "duration": 4, "velocity": 90}, {"time": 4268, "pitch": 64, "duration": 4, "velocity": 93}, {"time": 4271, "pitch": 68, "duration": 3, "velocity": 85}, {"time": 4274, "pitch": 41, "duration": 16, "velocity": 88}, {"time": 4274, "pitch": 57, "duration": 8, "velocity": 87}, {"time": 4274, "pitch": 60, "duration": 9, "velocity": 88}, {"time": 4280, "pitch": 48, "duration": 7, "velocity": 88}, {"time": 4286, "pitch": 57, "duration": 3, "velocity": 83}, {"time": 4286, "pitch": 60, "duration": 5, "velocity": 89}, {"time": 4286, "pitch": 65, "duration": 8, "velocity": 88}, {"time": 4289, "pitch": 48, "duration": 3, "velocity": 88}, {"time": 4292, "pitch": 57, "duration": 4, "velocity": 85}, {"time": 4295, "pitch": 60, "duration": 2, "velocity": 83}, {"time": 4298, "pitch": 43, "duration": 15, "velocity": 88}, {"time": 4298, "pitch": 55, "duration": 7, "velocity": 86}, {"time": 4298, "pitch": 59, "duration": 7, "velocity": 88}, {"time": 4304, "pitch": 50, "duration": 7, "velocity": 83}, {"time": 4310, "pitch": 55, "duration": 5, "velocity": 90}, {"time": 4310, "pitch": 59, "duration": 5, "velocity": 92}, {"time": 4310, "pitch": 62, "duration": 6, "velocity": 88}, {"time": 4316, "pitch": 50, "duration": 2, "velocity": 83}, {"time": 4322, "pitch": 45, "duration": 21, "velocity": 88}, {"time": 4322, "pitch": 57, "duration": 7, "velocity": 81}, {"time": 4322, "pitch": 60, "duration": 7, "velocity": 84}, {"time": 4328, "pitch": 52, "duration": 7, "velocity": 84}, {"time": 4334, "pitch": 57, "duration": 7, "velocity": 85}, {"time": 4334, "pitch": 60, "duration": 7, "velocity": 90}, {"time": 4334, "pitch": 64, "duration": 8, "velocity": 90}, {"time": 4340, "pitch": 52, "duration": 3, "velocity": 85}, {"time": 4343, "pitch": 57, "duration": 2, "velocity": 79}, {"time": 4343, "pitch": 62, "duration": 2, "velocity": 79}, {"time": 4346, "pitch": 45, "duration": 17, "velocity": 89}, {"time": 4346, "pitch": 57, "duration": 7, "velocity": 83}, {"time": 4346, "pitch": 62, "duration": 7, "velocity": 88}, {"time": 4352, "pitch": 52, "duration": 8, "velocity": 89}, {"time": 4355, "pitch": 57, "duration": 3, "velocity": 80}, {"time": 4358, "pitch": 60, "duration": 6, "velocity": 94}, {"time": 4361, "pitch": 52, "duration": 2, "velocity": 92}, {"time": 4364, "pitch": 57, "duration": 4, "velocity": 89}, {"time": 4367, "pitch": 60, "duration": 2, "velocity": 77}, {"time": 4370, "pitch": 41, "duration": 18, "velocity": 88}, {"time": 4370, "pitch": 60, "duration": 8, "velocity": 88}, {"time": 4376, "pitch": 48, "duration": 7, "velocity": 84}, {"time": 4382, "pitch": 53, "duration": 5, "velocity": 89}, {"time": 4385, "pitch": 57, "duration": 3, "velocity": 89}, {"time": 4388, "pitch": 60, "duration": 4, "velocity": 93}, {"time": 4391, "pitch": 53, "duration": 3, "velocity": 88}, {"time": 4394, "pitch": 43, "duration": 21, "velocity": 84}, {"time": 4397, "pitch": 50, "duration": 12, "velocity": 86}, {"time": 4400, "pitch": 55, "duration": 5, "velocity": 89}, {"time": 4403, "pitch": 59, "duration": 4, "velocity": 88}, {"time": 4406, "pitch": 62, "duration": 4, "velocity": 90}, {"time": 4409, "pitch": 55, "duration": 4, "velocity": 90}, {"time": 4412, "pitch": 50, "duration": 4, "velocity": 89}, {"time": 4418, "pitch": 48, "duration": 17, "velocity": 90}, {"time": 4418, "pitch": 55, "duration": 4, "velocity": 83}, {"time": 4418, "pitch": 60, "duration": 8, "velocity": 83}, {"time": 4418, "pitch": 64, "duration": 7, "velocity": 87}, {"time": 4424, "pitch": 55, "duration": 3, "velocity": 87}, {"time": 4430, "pitch": 55, "duration": 4, "velocity": 90}, {"time": 4430, "pitch": 60, "duration": 3, "velocity": 90}, {"time": 4430, "pitch": 64, "duration": 6, "velocity": 94}, {"time": 4436, "pitch": 62, "duration": 4, "velocity": 88}, {"time": 4439, "pitch": 64, "duration": 3, "velocity": 84}, {"time": 4442, "pitch": 48, "duration": 18, "velocity": 90}, {"time": 4442, "pitch": 55, "duration": 4, "velocity": 89}, {"time": 4442, "pitch": 60, "duration": 10, "velocity": 93}, {"time": 4451, "pitch": 55, "duration": 3, "velocity": 78}, {"time": 4454, "pitch": 55, "duration": 2, "velocity": 84}, {"time": 4454, "pitch": 62, "duration": 7, "velocity": 91}, {"time": 4460, "pitch": 60, "duration": 5, "velocity": 86}, {"time": 4466, "pitch": 38, "duration": 21, "velocity": 92}, {"time": 4466, "pitch": 62, "duration": 7, "velocity": 84}, {"time": 4472, "pitch": 45, "duration": 13, "velocity": 74}, {"time": 4478, "pitch": 57, "duration": 4, "velocity": 84}, {"time": 4478, "pitch": 62, "duration": 1, "velocity": 77}, {"time": 4478, "pitch": 65, "duration": 7, "velocity": 87}, {"time": 4484, "pitch": 62, "duration": 5, "velocity": 83}, {"time": 4490, "pitch": 38, "duration": 15, "velocity": 88}, {"time": 4490, "pitch": 57, "duration": 8, "velocity": 82}, {"time": 4490, "pitch": 62, "duration": 7, "velocity": 83}, {"time": 4496, "pitch": 45, "duration": 8, "velocity": 82}, {"time": 4502, "pitch": 57, "duration": 2, "velocity": 85}, {"time": 4502, "pitch": 62, "duration": 6, "velocity": 90}, {"time": 4502, "pitch": 65, "duration": 6, "velocity": 87}, {"time": 4508, "pitch": 57, "duration": 2, "velocity": 84}, {"time": 4514, "pitch": 40, "duration": 15, "velocity": 89}, {"time": 4514, "pitch": 52, "duration": 12, "velocity": 80}, {"time": 4514, "pitch": 55, "duration": 11, "velocity": 82}, {"time": 4520, "pitch": 47, "duration": 8, "velocity": 77}, {"time": 4526, "pitch": 59, "duration": 8, "velocity": 85}, {"time": 4532, "pitch": 52, "duration": 3, "velocity": 88}, {"time": 4538, "pitch": 45, "duration": 18, "velocity": 89}, {"time": 4538, "pitch": 57, "duration": 7, "velocity": 76}, {"time": 4538, "pitch": 60, "duration": 8, "velocity": 80}, {"time": 4544, "pitch": 52, "duration": 8, "velocity": 84}, {"time": 4550, "pitch": 57, "duration": 4, "velocity": 88}, {"time": 4550, "pitch": 60, "duration": 4, "velocity": 89}, {"time": 4553, "pitch": 52, "duration": 3, "velocity": 88}, {"time": 4556, "pitch": 55, "duration": 2, "velocity": 79}, {"time": 4556, "pitch": 59, "duration": 4, "velocity": 95}, {"time": 4562, "pitch": 50, "duration": 15, "velocity": 81}, {"time": 4562, "pitch": 57, "duration": 4, "velocity": 81}, {"time": 4562, "pitch": 62, "duration": 8, "velocity": 83}, {"time": 4568, "pitch": 57, "duration": 3, "velocity": 89}, {"time": 4574, "pitch": 57, "duration": 4, "velocity": 89}, {"time": 4574, "pitch": 62, "duration": 7, "velocity": 91}, {"time": 4574, "pitch": 65, "duration": 8, "velocity": 88}, {"time": 4580, "pitch": 50, "duration": 3, "velocity": 91}, {"time": 4583, "pitch": 57, "duration": 2, "velocity": 88}, {"time": 4586, "pitch": 43, "duration": 16, "velocity": 89}, {"time": 4586, "pitch": 55, "duration": 7, "velocity": 89}, {"time": 4586, "pitch": 59, "duration": 7, "velocity": 89}, {"time": 4592, "pitch": 50, "duration": 9, "velocity": 81}, {"time": 4598, "pitch": 55, "duration": 3, "velocity": 90}, {"time": 4598, "pitch": 59, "duration": 4, "velocity": 90}, {"time": 4598, "pitch": 62, "duration": 4, "velocity": 88}, {"time": 4604, "pitch": 43, "duration": 3, "velocity": 89}, {"time": 4610, "pitch": 45, "duration": 23, "velocity": 89}, {"time": 4610, "pitch": 57, "duration": 7, "velocity": 84}, {"time": 4610, "pitch": 60, "duration": 7, "velocity": 88}, {"time": 4616, "pitch": 52, "duration": 16, "velocity": 82}, {"time": 4622, "pitch": 57, "duration": 4, "velocity": 83}, {"time": 4622, "pitch": 60, "duration": 4, "velocity": 89}, {"time": 4622, "pitch": 64, "duration": 4, "velocity": 89}, {"time": 4628, "pitch": 62, "duration": 4, "velocity": 83}, {"time": 4631, "pitch": 64, "duration": 3, "velocity": 80}, {"time": 4634, "pitch": 45, "duration": 21, "velocity": 88}, {"time": 4634, "pitch": 57, "duration": 7, "velocity": 78}, {"time": 4634, "pitch": 60, "duration": 8, "velocity": 80}, {"time": 4640, "pitch": 52, "duration": 15, "velocity": 77}, {"time": 4646, "pitch": 57, "duration": 4, "velocity": 78}, {"time": 4646, "pitch": 60, "duration": 7, "velocity": 85}, {"time": 4652, "pitch": 57, "duration": 3, "velocity": 77}, {"time": 4658, "pitch": 38, "duration": 21, "velocity": 92}, {"time": 4658, "pitch": 62, "duration": 7, "velocity": 84}, {"time": 4664, "pitch": 45, "duration": 13, "velocity": 74}, {"time": 4670, "pitch": 57, "duration": 4, "velocity": 84}, {"time": 4670, "pitch": 62, "duration": 1, "velocity": 77}, {"time": 4670, "pitch": 65, "duration": 7, "velocity": 87}, {"time": 4676, "pitch": 62, "duration": 5, "velocity": 83}, {"time": 4682, "pitch": 38, "duration": 15, "velocity": 88}, {"time": 4682, "pitch": 57, "duration": 8, "velocity": 82}, {"time": 4682, "pitch": 62, "duration": 7, "velocity": 83}, {"time": 4688, "pitch": 45, "duration": 8, "velocity": 82}, {"time": 4694, "pitch": 57, "duration": 2, "velocity": 85}, {"time": 4694, "pitch": 62, "duration": 6, "velocity": 90}, {"time": 4694, "pitch": 65, "duration": 6, "velocity": 87}, {"time": 4700, "pitch": 57, "duration": 2, "velocity": 84}, {"time": 4706, "pitch": 40, "duration": 15, "velocity": 89}, {"time": 4706, "pitch": 52, "duration": 12, "velocity": 80}, {"time": 4706, "pitch": 55, "duration": 11, "velocity": 82}, {"time": 4712, "pitch": 47, "duration": 8, "velocity": 77}, {"time": 4718, "pitch": 59, "duration": 8, "velocity": 85}, {"time": 4724, "pitch": 52, "duration": 3, "velocity": 88}, {"time": 4730, "pitch": 45, "duration": 18, "velocity": 89}, {"time": 4730, "pitch": 57, "duration": 7, "velocity": 76}, {"time": 4730, "pitch": 60, "duration": 8, "velocity": 80}, {"time": 4736, "pitch": 52, "duration": 8, "velocity": 84}, {"time": 4742, "pitch": 57, "duration": 4, "velocity": 88}, {"time": 4742, "pitch": 60, "duration": 4, "velocity": 89}, {"time": 4745, "pitch": 52, "duration": 3, "velocity": 88}, {"time": 4748, "pitch": 55, "duration": 2, "velocity": 79}, {"time": 4748, "pitch": 59, "duration": 4, "velocity": 95}, {"time": 4754, "pitch": 50, "duration": 15, "velocity": 81}, {"time": 4754, "pitch": 57, "duration": 4, "velocity": 81}, {"time": 4754, "pitch": 62, "duration": 8, "velocity": 83}, {"time": 4760, "pitch": 57, "duration": 3, "velocity": 89}, {"time": 4766, "pitch": 57, "duration": 4, "velocity": 89}, {"time": 4766, "pitch": 62, "duration": 7, "velocity": 91}, {"time": 4766, "pitch": 65, "duration": 8, "velocity": 88}, {"time": 4772, "pitch": 50, "duration": 3, "velocity": 91}, {"time": 4775, "pitch": 57, "duration": 2, "velocity": 88}, {"time": 4778, "pitch": 43, "duration": 16, "velocity": 89}, {"time": 4778, "pitch": 55, "duration": 7, "velocity": 89}, {"time": 4778, "pitch": 59, "duration": 7, "velocity": 89}, {"time": 4784, "pitch": 50, "duration": 9, "velocity": 81}, {"time": 4790, "pitch": 55, "duration": 3, "velocity": 90}, {"time": 4790, "pitch": 59, "duration": 4, "velocity": 90}, {"time": 4790, "pitch": 62, "duration": 4, "velocity": 88}, {"time": 4796, "pitch": 43, "duration": 3, "velocity": 89}, {"time": 4802, "pitch": 45, "duration": 23, "velocity": 89}, {"time": 4802, "pitch": 57, "duration": 7, "velocity": 84}, {"time": 4802, "pitch": 60, "duration": 7, "velocity": 88}, {"time": 4808, "pitch": 52, "duration": 16, "velocity": 82}, {"time": 4814, "pitch": 57, "duration": 4, "velocity": 83}, {"time": 4814, "pitch": 60, "duration": 4, "velocity": 89}, {"time": 4814, "pitch": 64, "duration": 4, "velocity": 89}, {"time": 4820, "pitch": 62, "duration": 4, "velocity": 83}, {"time": 4823, "pitch": 64, "duration": 3, "velocity": 80}, {"time": 4826, "pitch": 45, "duration": 21, "velocity": 88}, {"time": 4826, "pitch": 57, "duration": 7, "velocity": 78}, {"time": 4826, "pitch": 60, "duration": 8, "velocity": 80}, {"time": 4832, "pitch": 52, "duration": 15, "velocity": 77}, {"time": 4838, "pitch": 57, "duration": 4, "velocity": 78}, {"time": 4838, "pitch": 60, "duration": 7, "velocity": 85}, {"time": 4844, "pitch": 57, "duration": 3, "velocity": 77}, {"time": 4850, "pitch": 41, "duration": 16, "velocity": 88}, {"time": 4850, "pitch": 57, "duration": 8, "velocity": 87}, {"time": 4850, "pitch": 60, "duration": 9, "velocity": 88}, {"time": 4856, "pitch": 48, "duration": 7, "velocity": 88}, {"time": 4862, "pitch": 57, "duration": 3, "velocity": 83}, {"time": 4862, "pitch": 60, "duration": 5, "velocity": 89}, {"time": 4862, "pitch": 65, "duration": 8, "velocity": 88}, {"time": 4865, "pitch": 48, "duration": 3, "velocity": 88}, {"time": 4868, "pitch": 57, "duration": 4, "velocity": 85}, {"time": 4871, "pitch": 60, "duration": 2, "velocity": 83}, {"time": 4874, "pitch": 43, "duration": 15, "velocity": 88}, {"time": 4874, "pitch": 55, "duration": 7, "velocity": 86}, {"time": 4874, "pitch": 59, "duration": 7, "velocity": 88}, {"time": 4880, "pitch": 50, "duration": 7, "velocity": 83}, {"time": 4886, "pitch": 55, "duration": 5, "velocity": 90}, {"time": 4886, "pitch": 59, "duration": 5, "velocity": 92}, {"time": 4886, "pitch": 62, "duration": 6, "velocity": 88}, {"time": 4892, "pitch": 50, "duration": 2, "velocity": 83}, {"time": 4898, "pitch": 45, "duration": 21, "velocity": 88}, {"time": 4898, "pitch": 57, "duration": 7, "velocity": 81}, {"time": 4898, "pitch": 60, "duration": 7, "velocity": 84}, {"time": 4904, "pitch": 52, "duration": 7, "velocity": 84}, {"time": 4910, "pitch": 57, "duration": 7, "velocity": 85}, {"time": 4910, "pitch": 60, "duration": 7, "velocity": 90}, {"time": 4910, "pitch": 64, "duration": 8, "velocity": 90}, {"time": 4916, "pitch": 52, "duration": 3, "velocity": 85}, {"time": 4919, "pitch": 57, "duration": 2, "velocity": 79}, {"time": 4919, "pitch": 62, "duration": 2, "velocity": 79}, {"time": 4922, "pitch": 45, "duration": 17, "velocity": 89}, {"time": 4922, "pitch": 57, "duration": 7, "velocity": 83}, {"time": 4922, "pitch": 62, "duration": 7, "velocity": 88}, {"time": 4928, "pitch": 52, "duration": 8, "velocity": 89}, {"time": 4931, "pitch": 57, "duration": 3, "velocity": 80}, {"time": 4934, "pitch": 60, "duration": 6, "velocity": 94}, {"time": 4937, "pitch": 52, "duration": 2, "velocity": 92}, {"time": 4940, "pitch": 57, "duration": 4, "velocity": 89}, {"time": 4943, "pitch": 60, "duration": 2, "velocity": 77}, {"time": 4946, "pitch": 41, "duration": 18, "velocity": 88}, {"time": 4946, "pitch": 60, "duration": 8, "velocity": 88}, {"time": 4952, "pitch": 48, "duration": 7, "velocity": 84}, {"time": 4958, "pitch": 53, "duration": 5, "velocity": 89}, {"time": 4961, "pitch": 57, "duration": 3, "velocity": 89}, {"time": 4964, "pitch": 60, "duration": 4, "velocity": 93}, {"time": 4967, "pitch": 53, "duration": 3, "velocity": 88}, {"time": 4970, "pitch": 43, "duration": 21, "velocity": 84}, {"time": 4973, "pitch": 50, "duration": 12, "velocity": 86}, {"time": 4976, "pitch": 55, "duration": 5, "velocity": 89}, {"time": 4979, "pitch": 59, "duration": 4, "velocity": 88}, {"time": 4982, "pitch": 62, "duration": 4, "velocity": 90}, {"time": 4985, "pitch": 55, "duration": 4, "velocity": 90}, {"time": 4988, "pitch": 50, "duration": 4, "velocity": 89}, {"time": 4994, "pitch": 48, "duration": 17, "velocity": 90}, {"time": 4994, "pitch": 55, "duration": 4, "velocity": 83}, {"time": 4994, "pitch": 60, "duration": 8, "velocity": 83}, {"time": 4994, "pitch": 64, "duration": 7, "velocity": 87}, {"time": 5000, "pitch": 55, "duration": 3, "velocity": 87}, {"time": 5006, "pitch": 55, "duration": 4, "velocity": 90}, {"time": 5006, "pitch": 60, "duration": 3, "velocity": 90}, {"time": 5006, "pitch": 64, "duration": 6, "velocity": 94}, {"time": 5012, "pitch": 62, "duration": 4, "velocity": 88}, {"time": 5015, "pitch": 64, "duration": 3, "velocity": 84}, {"time": 5018, "pitch": 48, "duration": 18, "velocity": 90}, {"time": 5018, "pitch": 55, "duration": 4, "velocity": 89}, {"time": 5018, "pitch": 60, "duration": 10, "velocity": 93}, {"time": 5027, "pitch": 55, "duration": 3, "velocity": 78}, {"time": 5030, "pitch": 55, "duration": 2, "velocity": 84}, {"time": 5030, "pitch": 62, "duration": 7, "velocity": 91}, {"time": 5036, "pitch": 60, "duration": 5, "velocity": 86}, {"time": 5042, "pitch": 38, "duration": 21, "velocity": 92}, {"time": 5042, "pitch": 62, "duration": 7, "velocity": 84}, {"time": 5048, "pitch": 45, "duration": 13, "velocity": 74}, {"time": 5054, "pitch": 57, "duration": 4, "velocity": 84}, {"time": 5054, "pitch": 62, "duration": 1, "velocity": 77}, {"time": 5054, "pitch": 65, "duration": 7, "velocity": 87}, {"time": 5060, "pitch": 62, "duration": 5, "velocity": 83}, {"time": 5066, "pitch": 38, "duration": 15, "velocity": 88}, {"time": 5066, "pitch": 57, "duration": 8, "velocity": 82}, {"time": 5066, "pitch": 62, "duration": 7, "velocity": 83}, {"time": 5072, "pitch": 45, "duration": 8, "velocity": 82}, {"time": 5078, "pitch": 57, "duration": 2, "velocity": 85}, {"time": 5078, "pitch": 62, "duration": 6, "velocity": 90}, {"time": 5078, "pitch": 65, "duration": 6, "velocity": 87}, {"time": 5084, "pitch": 57, "duration": 2, "velocity": 84}, {"time": 5090, "pitch": 40, "duration": 15, "velocity": 89}, {"time": 5090, "pitch": 52, "duration": 12, "velocity": 80}, {"time": 5090, "pitch": 55, "duration": 11, "velocity": 82}, {"time": 5096, "pitch": 47, "duration": 8, "velocity": 77}, {"time": 5102, "pitch": 59, "duration": 8, "velocity": 85}, {"time": 5108, "pitch": 52, "duration": 3, "velocity": 88}, {"time": 5114, "pitch": 45, "duration": 18, "velocity": 89}, {"time": 5114, "pitch": 57, "duration": 7, "velocity": 76}, {"time": 5114, "pitch": 60, "duration": 8, "velocity": 80}, {"time": 5120, "pitch": 52, "duration": 8, "velocity": 84}, {"time": 5126, "pitch": 57, "duration": 4, "velocity": 88}, {"time": 5126, "pitch": 60, "duration": 4, "velocity": 89}, {"time": 5129, "pitch": 52, "duration": 3, "velocity": 88}, {"time": 5132, "pitch": 55, "duration": 2, "velocity": 79}, {"time": 5132, "pitch": 59, "duration": 4, "velocity": 95}, {"time": 5138, "pitch": 50, "duration": 15, "velocity": 81}, {"time": 5138, "pitch": 57, "duration": 4, "velocity": 81}, {"time": 5138, "pitch": 62, "duration": 8, "velocity": 83}, {"time": 5144, "pitch": 57, "duration": 3, "velocity": 89}, {"time": 5150, "pitch": 57, "duration": 4, "velocity": 89}, {"time": 5150, "pitch": 62, "duration": 7, "velocity": 91}, {"time": 5150, "pitch": 65, "duration": 8, "velocity": 88}, {"time": 5156, "pitch": 50, "duration": 3, "velocity": 91}, {"time": 5159, "pitch": 57, "duration": 2, "velocity": 88}, {"time": 5162, "pitch": 43, "duration": 24, "velocity": 88}, {"time": 5162, "pitch": 55, "duration": 23, "velocity": 82}, {"time": 5162, "pitch": 62, "duration": 9, "velocity": 86}, {"time": 5168, "pitch": 50, "duration": 18, "velocity": 78}, {"time": 5175, "pitch": 59, "duration": 10, "velocity": 84}, {"time": 5181, "pitch": 62, "duration": 5, "velocity": 82}, {"time": 5201, "pitch": 57, "duration": 48, "velocity": 76}, {"time": 5201, "pitch": 45, "duration": 48, "velocity": 86}, {"time": 5202, "pitch": 60, "duration": 47, "velocity": 84}, {"time": 5204, "pitch": 64, "duration": 45, "velocity": 74}, {"time": 5204, "pitch": 69, "duration": 45, "velocity": 88}], "annotations": [{"time": 51, "annotation": {"number": 64, "value": 127}, "group": "control_change"}, {"time": 74, "annotation": {"number": 64, "value": 0}, "group": "control_change"}, {"time": 75, "annotation": {"number": 64, "value": 127}, "group": "control_change"}, {"time": 98, "annotation": {"number": 64, "value": 0}, "group": "control_change"}, {"time": 100, "annotation": {"number": 64, "value": 127}, "group": "control_change"}, {"time": 145, "annotation": {"number": 64, "value": 0}, "group": "control_change"}, {"time": 148, "annotation": {"number": 64, "value": 127}, "group": "control_change"}, {"time": 169, "annotation": {"number": 64, "value": 0}, "group": "control_change"}, {"time": 172, "annotation": {"number": 64, "value": 127}, "group": "control_change"}, {"time": 193, "annotation": {"number": 64, "value": 0}, "group": "control_change"}, {"time": 194, "annotation": {"number": 64, "value": 127}, "group": "control_change"}, {"time": 217, "annotation": {"number": 64, "value": 0}, "group": "control_change"}, {"time": 218, "annotation": {"number": 64, "value": 127}, "group": "control_change"}, {"time": 240, "annotation": {"number": 64, "value": 0}, "group": "control_change"}, {"time": 242, "annotation": {"number": 64, "value": 127}, "group": "control_change"}, {"time": 288, "annotation": {"number": 64, "value": 0}, "group": "control_change"}, {"time": 290, "annotation": {"number": 64, "value": 127}, "group": "control_change"}, {"time": 312, "annotation": {"number": 64, "value": 0}, "group": "control_change"}, {"time": 314, "annotation": {"number": 64, "value": 127}, "group": "control_change"}, {"time": 337, "annotation": {"number": 64, "value": 0}, "group": "control_change"}, {"time": 339, "annotation": {"number": 64, "value": 127}, "group": "control_change"}, {"time": 361, "annotation": {"number": 64, "value": 0}, "group": "control_change"}, {"time": 363, "annotation": {"number": 64, "value": 127}, "group": "control_change"}, {"time": 384, "annotation": {"number": 64, "value": 0}, "group": "control_change"}, {"time": 386, "annotation": {"number": 64, "value": 127}, "group": "control_change"}, {"time": 408, "annotation": {"number": 64, "value": 0}, "group": "control_change"}, {"time": 410, "annotation": {"number": 64, "value": 127}, "group": "control_change"}, {"time": 432, "annotation": {"number": 64, "value": 0}, "group": "control_change"}, {"time": 440, "annotation": {"number": 64, "value": 127}, "group": "control_change"}, {"time": 459, "annotation": {"number": 64, "value": 0}, "group": "control_change"}, {"time": 464, "annotation": {"number": 64, "value": 127}, "group": "control_change"}, {"time": 481, "annotation": {"number": 64, "value": 0}, "group": "control_change"}, {"time": 485, "annotation": {"number": 64, "value": 127}, "group": "control_change"}, {"time": 506, "annotation": {"number": 64, "value": 0}, "group": "control_change"}, {"time": 513, "annotation": {"number": 64, "value": 127}, "group": "control_change"}, {"time": 530, "annotation": {"number": 64, "value": 0}, "group": "control_change"}, {"time": 535, "annotation": {"number": 64, "value": 127}, "group": "control_change"}, {"time": 553, "annotation": {"number": 64, "value": 0}, "group": "control_change"}, {"time": 559, "annotation": {"number": 64, "value": 127}, "group": "control_change"}, {"time": 577, "annotation": {"number": 64, "value": 0}, "group": "control_change"}, {"time": 581, "annotation": {"number": 64, "value": 127}, "group": "control_change"}, {"time": 602, "annotation": {"number": 64, "value": 0}, "group": "control_change"}, {"time": 607, "annotation": {"number": 64, "value": 127}, "group": "control_change"}, {"time": 624, "annotation": {"number": 64, "value": 0}, "group": "control_change"}, {"time": 627, "annotation": {"number": 64, "value": 127}, "group": "control_change"}, {"time": 650, "annotation": {"number": 64, "value": 0}, "group": "control_change"}, {"time": 654, "annotation": {"number": 64, "value": 127}, "group": "control_change"}, {"time": 673, "annotation": {"number": 64, "value": 0}, "group": "control_change"}, {"time": 675, "annotation": {"number": 64, "value": 127}, "group": "control_change"}, {"time": 698, "annotation": {"number": 64, "value": 0}, "group": "control_change"}, {"time": 701, "annotation": {"number": 64, "value": 127}, "group": "control_change"}, {"time": 720, "annotation": {"number": 64, "value": 0}, "group": "control_change"}, {"time": 723, "annotation": {"number": 64, "value": 127}, "group": "control_change"}, {"time": 746, "annotation": {"number": 64, "value": 0}, "group": "control_change"}, {"time": 749, "annotation": {"number": 64, "value": 127}, "group": "control_change"}, {"time": 770, "annotation": {"number": 64, "value": 0}, "group": "control_change"}, {"time": 776, "annotation": {"number": 64, "value": 127}, "group": "control_change"}, {"time": 818, "annotation": {"number": 64, "value": 0}, "group": "control_change"}, {"time": 824, "annotation": {"number": 64, "value": 127}, "group": "control_change"}, {"time": 843, "annotation": {"number": 64, "value": 0}, "group": "control_change"}, {"time": 848, "annotation": {"number": 64, "value": 127}, "group": "control_change"}, {"time": 865, "annotation": {"number": 64, "value": 0}, "group": "control_change"}, {"time": 869, "annotation": {"number": 64, "value": 127}, "group": "control_change"}, {"time": 890, "annotation": {"number": 64, "value": 0}, "group": "control_change"}, {"time": 897, "annotation": {"number": 64, "value": 127}, "group": "control_change"}, {"time": 914, "annotation": {"number": 64, "value": 0}, "group": "control_change"}, {"time": 919, "annotation": {"number": 64, "value": 127}, "group": "control_change"}, {"time": 937, "annotation": {"number": 64, "value": 0}, "group": "control_change"}, {"time": 943, "annotation": {"number": 64, "value": 127}, "group": "control_change"}, {"time": 961, "annotation": {"number": 64, "value": 0}, "group": "control_change"}, {"time": 965, "annotation": {"number": 64, "value": 127}, "group": "control_change"}, {"time": 986, "annotation": {"number": 64, "value": 0}, "group": "control_change"}, {"time": 991, "annotation": {"number": 64, "value": 127}, "group": "control_change"}, {"time": 1008, "annotation": {"number": 64, "value": 0}, "group": "control_change"}, {"time": 1011, "annotation": {"number": 64, "value": 127}, "group": "control_change"}, {"time": 1034, "annotation": {"number": 64, "value": 0}, "group": "control_change"}, {"time": 1038, "annotation": {"number": 64, "value": 127}, "group": "control_change"}, {"time": 1057, "annotation": {"number": 64, "value": 0}, "group": "control_change"}, {"time": 1059, "annotation": {"number": 64, "value": 127}, "group": "control_change"}, {"time": 1082, "annotation": {"number": 64, "value": 0}, "group": "control_change"}, {"time": 1085, "annotation": {"number": 64, "value": 127}, "group": "control_change"}, {"time": 1104, "annotation": {"number": 64, "value": 0}, "group": "control_change"}, {"time": 1107, "annotation": {"number": 64, "value": 127}, "group": "control_change"}, {"time": 1130, "annotation": {"number": 64, "value": 0}, "group": "control_change"}, {"time": 1133, "annotation": {"number": 64, "value": 127}, "group": "control_change"}, {"time": 1154, "annotation": {"number": 64, "value": 0}, "group": "control_change"}, {"time": 1160, "annotation": {"number": 64, "value": 127}, "group": "control_change"}, {"time": 1202, "annotation": {"number": 64, "value": 0}, "group": "control_change"}, {"time": 1204, "annotation": {"number": 64, "value": 127}, "group": "control_change"}, {"time": 1226, "annotation": {"number": 64, "value": 0}, "group": "control_change"}, {"time": 1228, "annotation": {"number": 64, "value": 127}, "group": "control_change"}, {"time": 1249, "annotation": {"number": 64, "value": 0}, "group": "control_change"}, {"time": 1251, "annotation": {"number": 64, "value": 127}, "group": "control_change"}, {"time": 1273, "annotation": {"number": 64, "value": 0}, "group": "control_change"}, {"time": 1274, "annotation": {"number": 64, "value": 127}, "group": "control_change"}, {"time": 1298, "annotation": {"number": 64, "value": 0}, "group": "control_change"}, {"time": 1300, "annotation": {"number": 64, "value": 127}, "group": "control_change"}, {"time": 1320, "annotation": {"number": 64, "value": 0}, "group": "control_change"}, {"time": 1323, "annotation": {"number": 64, "value": 127}, "group": "control_change"}, {"time": 1345, "annotation": {"number": 64, "value": 0}, "group": "control_change"}, {"time": 1347, "annotation": {"number": 64, "value": 127}, "group": "control_change"}, {"time": 1368, "annotation": {"number": 64, "value": 0}, "group": "control_change"}, {"time": 1369, "annotation": {"number": 64, "value": 127}, "group": "control_change"}, {"time": 1392, "annotation": {"number": 64, "value": 0}, "group": "control_change"}, {"time": 1394, "annotation": {"number": 64, "value": 127}, "group": "control_change"}, {"time": 1417, "annotation": {"number": 64, "value": 0}, "group": "control_change"}, {"time": 1418, "annotation": {"number": 64, "value": 127}, "group": "control_change"}, {"time": 1442, "annotation": {"number": 64, "value": 0}, "group": "control_change"}, {"time": 1444, "annotation": {"number": 64, "value": 127}, "group": "control_change"}, {"time": 1465, "annotation": {"number": 64, "value": 0}, "group": "control_change"}, {"time": 1467, "annotation": {"number": 64, "value": 127}, "group": "control_change"}, {"time": 1490, "annotation": {"number": 64, "value": 0}, "group": "control_change"}, {"time": 1491, "annotation": {"number": 64, "value": 127}, "group": "control_change"}, {"time": 1513, "annotation": {"number": 64, "value": 0}, "group": "control_change"}, {"time": 1515, "annotation": {"number": 64, "value": 127}, "group": "control_change"}, {"time": 1536, "annotation": {"number": 64, "value": 0}, "group": "control_change"}, {"time": 1538, "annotation": {"number": 64, "value": 127}, "group": "control_change"}, {"time": 1563, "annotation": {"number": 64, "value": 0}, "group": "control_change"}, {"time": 1563, "annotation": {"number": 64, "value": 127}, "group": "control_change"}, {"time": 1583, "annotation": {"number": 64, "value": 0}, "group": "control_change"}, {"time": 1588, "annotation": {"number": 64, "value": 127}, "group": "control_change"}, {"time": 1610, "annotation": {"number": 64, "value": 0}, "group": "control_change"}, {"time": 1612, "annotation": {"number": 64, "value": 127}, "group": "control_change"}, {"time": 1633, "annotation": {"number": 64, "value": 0}, "group": "control_change"}, {"time": 1635, "annotation": {"number": 64, "value": 127}, "group": "control_change"}, {"time": 1657, "annotation": {"number": 64, "value": 0}, "group": "control_change"}, {"time": 1658, "annotation": {"number": 64, "value": 127}, "group": "control_change"}, {"time": 1682, "annotation": {"number": 64, "value": 0}, "group": "control_change"}, {"time": 1684, "annotation": {"number": 64, "value": 127}, "group": "control_change"}, {"time": 1704, "annotation": {"number": 64, "value": 0}, "group": "control_change"}, {"time": 1707, "annotation": {"number": 64, "value": 127}, "group": "control_change"}, {"time": 1729, "annotation": {"number": 64, "value": 0}, "group": "control_change"}, {"time": 1731, "annotation": {"number": 64, "value": 127}, "group": "control_change"}, {"time": 1752, "annotation": {"number": 64, "value": 0}, "group": "control_change"}, {"time": 1753, "annotation": {"number": 64, "value": 127}, "group": "control_change"}, {"time": 1776, "annotation": {"number": 64, "value": 0}, "group": "control_change"}, {"time": 1778, "annotation": {"number": 64, "value": 127}, "group": "control_change"}, {"time": 1801, "annotation": {"number": 64, "value": 0}, "group": "control_change"}, {"time": 1802, "annotation": {"number": 64, "value": 127}, "group": "control_change"}, {"time": 1826, "annotation": {"number": 64, "value": 0}, "group": "control_change"}, {"time": 1828, "annotation": {"number": 64, "value": 127}, "group": "control_change"}, {"time": 1849, "annotation": {"number": 64, "value": 0}, "group": "control_change"}, {"time": 1851, "annotation": {"number": 64, "value": 127}, "group": "control_change"}, {"time": 1874, "annotation": {"number": 64, "value": 0}, "group": "control_change"}, {"time": 1875, "annotation": {"number": 64, "value": 127}, "group": "control_change"}, {"time": 1897, "annotation": {"number": 64, "value": 0}, "group": "control_change"}, {"time": 1899, "annotation": {"number": 64, "value": 127}, "group": "control_change"}, {"time": 1920, "annotation": {"number": 64, "value": 0}, "group": "control_change"}, {"time": 1921, "annotation": {"number": 64, "value": 127}, "group": "control_change"}, {"time": 1922, "annotation": {"number": 64, "value": 127}, "group": "control_change"}, {"time": 1945, "annotation": {"number": 64, "value": 0}, "group": "control_change"}, {"time": 1947, "annotation": {"number": 64, "value": 127}, "group": "control_change"}, {"time": 1968, "annotation": {"number": 64, "value": 0}, "group": "control_change"}, {"time": 1972, "annotation": {"number": 64, "value": 127}, "group": "control_change"}, {"time": 1994, "annotation": {"number": 64, "value": 0}, "group": "control_change"}, {"time": 1996, "annotation": {"number": 64, "value": 127}, "group": "control_change"}, {"time": 2017, "annotation": {"number": 64, "value": 0}, "group": "control_change"}, {"time": 2019, "annotation": {"number": 64, "value": 127}, "group": "control_change"}, {"time": 2041, "annotation": {"number": 64, "value": 0}, "group": "control_change"}, {"time": 2042, "annotation": {"number": 64, "value": 127}, "group": "control_change"}, {"time": 2066, "annotation": {"number": 64, "value": 0}, "group": "control_change"}, {"time": 2068, "annotation": {"number": 64, "value": 127}, "group": "control_change"}, {"time": 2088, "annotation": {"number": 64, "value": 0}, "group": "control_change"}, {"time": 2091, "annotation": {"number": 64, "value": 127}, "group": "control_change"}, {"time": 2113, "annotation": {"number": 64, "value": 0}, "group": "control_change"}, {"time": 2115, "annotation": {"number": 64, "value": 127}, "group": "control_change"}, {"time": 2136, "annotation": {"number": 64, "value": 0}, "group": "control_change"}, {"time": 2137, "annotation": {"number": 64, "value": 127}, "group": "control_change"}, {"time": 2160, "annotation": {"number": 64, "value": 0}, "group": "control_change"}, {"time": 2162, "annotation": {"number": 64, "value": 127}, "group": "control_change"}, {"time": 2185, "annotation": {"number": 64, "value": 0}, "group": "control_change"}, {"time": 2186, "annotation": {"number": 64, "value": 127}, "group": "control_change"}, {"time": 2210, "annotation": {"number": 64, "value": 0}, "group": "control_change"}, {"time": 2212, "annotation": {"number": 64, "value": 127}, "group": "control_change"}, {"time": 2233, "annotation": {"number": 64, "value": 0}, "group": "control_change"}, {"time": 2235, "annotation": {"number": 64, "value": 127}, "group": "control_change"}, {"time": 2258, "annotation": {"number": 64, "value": 0}, "group": "control_change"}, {"time": 2259, "annotation": {"number": 64, "value": 127}, "group": "control_change"}, {"time": 2281, "annotation": {"number": 64, "value": 0}, "group": "control_change"}, {"time": 2283, "annotation": {"number": 64, "value": 127}, "group": "control_change"}, {"time": 2304, "annotation": {"number": 64, "value": 0}, "group": "control_change"}, {"time": 2305, "annotation": {"number": 64, "value": 127}, "group": "control_change"}, {"time": 2306, "annotation": {"number": 64, "value": 127}, "group": "control_change"}, {"time": 2329, "annotation": {"number": 64, "value": 0}, "group": "control_change"}, {"time": 2331, "annotation": {"number": 64, "value": 127}, "group": "control_change"}, {"time": 2352, "annotation": {"number": 64, "value": 0}, "group": "control_change"}, {"time": 2360, "annotation": {"number": 64, "value": 127}, "group": "control_change"}, {"time": 2379, "annotation": {"number": 64, "value": 0}, "group": "control_change"}, {"time": 2384, "annotation": {"number": 64, "value": 127}, "group": "control_change"}, {"time": 2401, "annotation": {"number": 64, "value": 0}, "group": "control_change"}, {"time": 2405, "annotation": {"number": 64, "value": 127}, "group": "control_change"}, {"time": 2426, "annotation": {"number": 64, "value": 0}, "group": "control_change"}, {"time": 2433, "annotation": {"number": 64, "value": 127}, "group": "control_change"}, {"time": 2450, "annotation": {"number": 64, "value": 0}, "group": "control_change"}, {"time": 2455, "annotation": {"number": 64, "value": 127}, "group": "control_change"}, {"time": 2473, "annotation": {"number": 64, "value": 0}, "group": "control_change"}, {"time": 2479, "annotation": {"number": 64, "value": 127}, "group": "control_change"}, {"time": 2497, "annotation": {"number": 64, "value": 0}, "group": "control_change"}, {"time": 2501, "annotation": {"number": 64, "value": 127}, "group": "control_change"}, {"time": 2522, "annotation": {"number": 64, "value": 0}, "group": "control_change"}, {"time": 2527, "annotation": {"number": 64, "value": 127}, "group": "control_change"}, {"time": 2544, "annotation": {"number": 64, "value": 0}, "group": "control_change"}, {"time": 2547, "annotation": {"number": 64, "value": 127}, "group": "control_change"}, {"time": 2570, "annotation": {"number": 64, "value": 0}, "group": "control_change"}, {"time": 2574, "annotation": {"number": 64, "value": 127}, "group": "control_change"}, {"time": 2593, "annotation": {"number": 64, "value": 0}, "group": "control_change"}, {"time": 2595, "annotation": {"number": 64, "value": 127}, "group": "control_change"}, {"time": 2618, "annotation": {"number": 64, "value": 0}, "group": "control_change"}, {"time": 2621, "annotation": {"number": 64, "value": 127}, "group": "control_change"}, {"time": 2640, "annotation": {"number": 64, "value": 0}, "group": "control_change"}, {"time": 2643, "annotation": {"number": 64, "value": 127}, "group": "control_change"}, {"time": 2666, "annotation": {"number": 64, "value": 0}, "group": "control_change"}, {"time": 2669, "annotation": {"number": 64, "value": 127}, "group": "control_change"}, {"time": 2690, "annotation": {"number": 64, "value": 0}, "group": "control_change"}, {"time": 2696, "annotation": {"number": 64, "value": 127}, "group": "control_change"}, {"time": 2738, "annotation": {"number": 64, "value": 0}, "group": "control_change"}, {"time": 2744, "annotation": {"number": 64, "value": 127}, "group": "control_change"}, {"time": 2763, "annotation": {"number": 64, "value": 0}, "group": "control_change"}, {"time": 2768, "annotation": {"number": 64, "value": 127}, "group": "control_change"}, {"time": 2785, "annotation": {"number": 64, "value": 0}, "group": "control_change"}, {"time": 2789, "annotation": {"number": 64, "value": 127}, "group": "control_change"}, {"time": 2810, "annotation": {"number": 64, "value": 0}, "group": "control_change"}, {"time": 2817, "annotation": {"number": 64, "value": 127}, "group": "control_change"}, {"time": 2834, "annotation": {"number": 64, "value": 0}, "group": "control_change"}, {"time": 2839, "annotation": {"number": 64, "value": 127}, "group": "control_change"}, {"time": 2857, "annotation": {"number": 64, "value": 0}, "group": "control_change"}, {"time": 2863, "annotation": {"number": 64, "value": 127}, "group": "control_change"}, {"time": 2881, "annotation": {"number": 64, "value": 0}, "group": "control_change"}, {"time": 2885, "annotation": {"number": 64, "value": 127}, "group": "control_change"}, {"time": 2906, "annotation": {"number": 64, "value": 0}, "group": "control_change"}, {"time": 2911, "annotation": {"number": 64, "value": 127}, "group": "control_change"}, {"time": 2928, "annotation": {"number": 64, "value": 0}, "group": "control_change"}, {"time": 2931, "annotation": {"number": 64, "value": 127}, "group": "control_change"}, {"time": 2954, "annotation": {"number": 64, "value": 0}, "group": "control_change"}, {"time": 2958, "annotation": {"number": 64, "value": 127}, "group": "control_change"}, {"time": 2977, "annotation": {"number": 64, "value": 0}, "group": "control_change"}, {"time": 2979, "annotation": {"number": 64, "value": 127}, "group": "control_change"}, {"time": 3002, "annotation": {"number": 64, "value": 0}, "group": "control_change"}, {"time": 3005, "annotation": {"number": 64, "value": 127}, "group": "control_change"}, {"time": 3024, "annotation": {"number": 64, "value": 0}, "group": "control_change"}, {"time": 3027, "annotation": {"number": 64, "value": 127}, "group": "control_change"}, {"time": 3050, "annotation": {"number": 64, "value": 0}, "group": "control_change"}, {"time": 3053, "annotation": {"number": 64, "value": 127}, "group": "control_change"}, {"time": 3074, "annotation": {"number": 64, "value": 0}, "group": "control_change"}, {"time": 3080, "annotation": {"number": 64, "value": 127}, "group": "control_change"}, {"time": 3122, "annotation": {"number": 64, "value": 0}, "group": "control_change"}, {"time": 3124, "annotation": {"number": 64, "value": 127}, "group": "control_change"}, {"time": 3146, "annotation": {"number": 64, "value": 0}, "group": "control_change"}, {"time": 3148, "annotation": {"number": 64, "value": 127}, "group": "control_change"}, {"time": 3169, "annotation": {"number": 64, "value": 0}, "group": "control_change"}, {"time": 3171, "annotation": {"number": 64, "value": 127}, "group": "control_change"}, {"time": 3193, "annotation": {"number": 64, "value": 0}, "group": "control_change"}, {"time": 3194, "annotation": {"number": 64, "value": 127}, "group": "control_change"}, {"time": 3218, "annotation": {"number": 64, "value": 0}, "group": "control_change"}, {"time": 3220, "annotation": {"number": 64, "value": 127}, "group": "control_change"}, {"time": 3240, "annotation": {"number": 64, "value": 0}, "group": "control_change"}, {"time": 3243, "annotation": {"number": 64, "value": 127}, "group": "control_change"}, {"time": 3265, "annotation": {"number": 64, "value": 0}, "group": "control_change"}, {"time": 3267, "annotation": {"number": 64, "value": 127}, "group": "control_change"}, {"time": 3288, "annotation": {"number": 64, "value": 0}, "group": "control_change"}, {"time": 3289, "annotation": {"number": 64, "value": 127}, "group": "control_change"}, {"time": 3312, "annotation": {"number": 64, "value": 0}, "group": "control_change"}, {"time": 3314, "annotation": {"number": 64, "value": 127}, "group": "control_change"}, {"time": 3337, "annotation": {"number": 64, "value": 0}, "group": "control_change"}, {"time": 3338, "annotation": {"number": 64, "value": 127}, "group": "control_change"}, {"time": 3362, "annotation": {"number": 64, "value": 0}, "group": "control_change"}, {"time": 3364, "annotation": {"number": 64, "value": 127}, "group": "control_change"}, {"time": 3385, "annotation": {"number": 64, "value": 0}, "group": "control_change"}, {"time": 3387, "annotation": {"number": 64, "value": 127}, "group": "control_change"}, {"time": 3410, "annotation": {"number": 64, "value": 0}, "group": "control_change"}, {"time": 3411, "annotation": {"number": 64, "value": 127}, "group": "control_change"}, {"time": 3433, "annotation": {"number": 64, "value": 0}, "group": "control_change"}, {"time": 3435, "annotation": {"number": 64, "value": 127}, "group": "control_change"}, {"time": 3456, "annotation": {"number": 64, "value": 0}, "group": "control_change"}, {"time": 3458, "annotation": {"number": 64, "value": 127}, "group": "control_change"}, {"time": 3483, "annotation": {"number": 64, "value": 0}, "group": "control_change"}, {"time": 3483, "annotation": {"number": 64, "value": 127}, "group": "control_change"}, {"time": 3503, "annotation": {"number": 64, "value": 0}, "group": "control_change"}, {"time": 3508, "annotation": {"number": 64, "value": 127}, "group": "control_change"}, {"time": 3530, "annotation": {"number": 64, "value": 0}, "group": "control_change"}, {"time": 3532, "annotation": {"number": 64, "value": 127}, "group": "control_change"}, {"time": 3553, "annotation": {"number": 64, "value": 0}, "group": "control_change"}, {"time": 3555, "annotation": {"number": 64, "value": 127}, "group": "control_change"}, {"time": 3577, "annotation": {"number": 64, "value": 0}, "group": "control_change"}, {"time": 3578, "annotation": {"number": 64, "value": 127}, "group": "control_change"}, {"time": 3602, "annotation": {"number": 64, "value": 0}, "group": "control_change"}, {"time": 3604, "annotation": {"number": 64, "value": 127}, "group": "control_change"}, {"time": 3624, "annotation": {"number": 64, "value": 0}, "group": "control_change"}, {"time": 3627, "annotation": {"number": 64, "value": 127}, "group": "control_change"}, {"time": 3649, "annotation": {"number": 64, "value": 0}, "group": "control_change"}, {"time": 3651, "annotation": {"number": 64, "value": 127}, "group": "control_change"}, {"time": 3672, "annotation": {"number": 64, "value": 0}, "group": "control_change"}, {"time": 3673, "annotation": {"number": 64, "value": 127}, "group": "control_change"}, {"time": 3696, "annotation": {"number": 64, "value": 0}, "group": "control_change"}, {"time": 3698, "annotation": {"number": 64, "value": 127}, "group": "control_change"}, {"time": 3721, "annotation": {"number": 64, "value": 0}, "group": "control_change"}, {"time": 3722, "annotation": {"number": 64, "value": 127}, "group": "control_change"}, {"time": 3746, "annotation": {"number": 64, "value": 0}, "group": "control_change"}, {"time": 3748, "annotation": {"number": 64, "value": 127}, "group": "control_change"}, {"time": 3769, "annotation": {"number": 64, "value": 0}, "group": "control_change"}, {"time": 3771, "annotation": {"number": 64, "value": 127}, "group": "control_change"}, {"time": 3794, "annotation": {"number": 64, "value": 0}, "group": "control_change"}, {"time": 3795, "annotation": {"number": 64, "value": 127}, "group": "control_change"}, {"time": 3817, "annotation": {"number": 64, "value": 0}, "group": "control_change"}, {"time": 3819, "annotation": {"number": 64, "value": 127}, "group": "control_change"}, {"time": 3840, "annotation": {"number": 64, "value": 0}, "group": "control_change"}, {"time": 3841, "annotation": {"number": 64, "value": 127}, "group": "control_change"}, {"time": 3842, "annotation": {"number": 64, "value": 127}, "group": "control_change"}, {"time": 3865, "annotation": {"number": 64, "value": 0}, "group": "control_change"}, {"time": 3867, "annotation": {"number": 64, "value": 127}, "group": "control_change"}, {"time": 3888, "annotation": {"number": 64, "value": 0}, "group": "control_change"}, {"time": 3892, "annotation": {"number": 64, "value": 127}, "group": "control_change"}, {"time": 3914, "annotation": {"number": 64, "value": 0}, "group": "control_change"}, {"time": 3916, "annotation": {"number": 64, "value": 127}, "group": "control_change"}, {"time": 3937, "annotation": {"number": 64, "value": 0}, "group": "control_change"}, {"time": 3939, "annotation": {"number": 64, "value": 127}, "group": "control_change"}, {"time": 3961, "annotation": {"number": 64, "value": 0}, "group": "control_change"}, {"time": 3962, "annotation": {"number": 64, "value": 127}, "group": "control_change"}, {"time": 3986, "annotation": {"number": 64, "value": 0}, "group": "control_change"}, {"time": 3988, "annotation": {"number": 64, "value": 127}, "group": "control_change"}, {"time": 4008, "annotation": {"number": 64, "value": 0}, "group": "control_change"}, {"time": 4011, "annotation": {"number": 64, "value": 127}, "group": "control_change"}, {"time": 4033, "annotation": {"number": 64, "value": 0}, "group": "control_change"}, {"time": 4035, "annotation": {"number": 64, "value": 127}, "group": "control_change"}, {"time": 4056, "annotation": {"number": 64, "value": 0}, "group": "control_change"}, {"time": 4057, "annotation": {"number": 64, "value": 127}, "group": "control_change"}, {"time": 4080, "annotation": {"number": 64, "value": 0}, "group": "control_change"}, {"time": 4082, "annotation": {"number": 64, "value": 127}, "group": "control_change"}, {"time": 4105, "annotation": {"number": 64, "value": 0}, "group": "control_change"}, {"time": 4106, "annotation": {"number": 64, "value": 127}, "group": "control_change"}, {"time": 4130, "annotation": {"number": 64, "value": 0}, "group": "control_change"}, {"time": 4132, "annotation": {"number": 64, "value": 127}, "group": "control_change"}, {"time": 4153, "annotation": {"number": 64, "value": 0}, "group": "control_change"}, {"time": 4155, "annotation": {"number": 64, "value": 127}, "group": "control_change"}, {"time": 4178, "annotation": {"number": 64, "value": 0}, "group": "control_change"}, {"time": 4179, "annotation": {"number": 64, "value": 127}, "group": "control_change"}, {"time": 4201, "annotation": {"number": 64, "value": 0}, "group": "control_change"}, {"time": 4203, "annotation": {"number": 64, "value": 127}, "group": "control_change"}, {"time": 4224, "annotation": {"number": 64, "value": 0}, "group": "control_change"}, {"time": 4226, "annotation": {"number": 64, "value": 127}, "group": "control_change"}, {"time": 4251, "annotation": {"number": 64, "value": 0}, "group": "control_change"}, {"time": 4251, "annotation": {"number": 64, "value": 127}, "group": "control_change"}, {"time": 4271, "annotation": {"number": 64, "value": 0}, "group": "control_change"}, {"time": 4276, "annotation": {"number": 64, "value": 127}, "group": "control_change"}, {"time": 4298, "annotation": {"number": 64, "value": 0}, "group": "control_change"}, {"time": 4300, "annotation": {"number": 64, "value": 127}, "group": "control_change"}, {"time": 4321, "annotation": {"number": 64, "value": 0}, "group": "control_change"}, {"time": 4323, "annotation": {"number": 64, "value": 127}, "group": "control_change"}, {"time": 4345, "annotation": {"number": 64, "value": 0}, "group": "control_change"}, {"time": 4346, "annotation": {"number": 64, "value": 127}, "group": "control_change"}, {"time": 4370, "annotation": {"number": 64, "value": 0}, "group": "control_change"}, {"time": 4372, "annotation": {"number": 64, "value": 127}, "group": "control_change"}, {"time": 4392, "annotation": {"number": 64, "value": 0}, "group": "control_change"}, {"time": 4395, "annotation": {"number": 64, "value": 127}, "group": "control_change"}, {"time": 4417, "annotation": {"number": 64, "value": 0}, "group": "control_change"}, {"time": 4419, "annotation": {"number": 64, "value": 127}, "group": "control_change"}, {"time": 4440, "annotation": {"number": 64, "value": 0}, "group": "control_change"}, {"time": 4441, "annotation": {"number": 64, "value": 127}, "group": "control_change"}, {"time": 4464, "annotation": {"number": 64, "value": 0}, "group": "control_change"}, {"time": 4466, "annotation": {"number": 64, "value": 127}, "group": "control_change"}, {"time": 4489, "annotation": {"number": 64, "value": 0}, "group": "control_change"}, {"time": 4490, "annotation": {"number": 64, "value": 127}, "group": "control_change"}, {"time": 4514, "annotation": {"number": 64, "value": 0}, "group": "control_change"}, {"time": 4516, "annotation": {"number": 64, "value": 127}, "group": "control_change"}, {"time": 4537, "annotation": {"number": 64, "value": 0}, "group": "control_change"}, {"time": 4539, "annotation": {"number": 64, "value": 127}, "group": "control_change"}, {"time": 4562, "annotation": {"number": 64, "value": 0}, "group": "control_change"}, {"time": 4563, "annotation": {"number": 64, "value": 127}, "group": "control_change"}, {"time": 4585, "annotation": {"number": 64, "value": 0}, "group": "control_change"}, {"time": 4587, "annotation": {"number": 64, "value": 127}, "group": "control_change"}, {"time": 4608, "annotation": {"number": 64, "value": 0}, "group": "control_change"}, {"time": 4609, "annotation": {"number": 64, "value": 127}, "group": "control_change"}, {"time": 4610, "annotation": {"number": 64, "value": 127}, "group": "control_change"}, {"time": 4633, "annotation": {"number": 64, "value": 0}, "group": "control_change"}, {"time": 4635, "annotation": {"number": 64, "value": 127}, "group": "control_change"}, {"time": 4656, "annotation": {"number": 64, "value": 0}, "group": "control_change"}, {"time": 4658, "annotation": {"number": 64, "value": 127}, "group": "control_change"}, {"time": 4681, "annotation": {"number": 64, "value": 0}, "group": "control_change"}, {"time": 4682, "annotation": {"number": 64, "value": 127}, "group": "control_change"}, {"time": 4706, "annotation": {"number": 64, "value": 0}, "group": "control_change"}, {"time": 4708, "annotation": {"number": 64, "value": 127}, "group": "control_change"}, {"time": 4729, "annotation": {"number": 64, "value": 0}, "group": "control_change"}, {"time": 4731, "annotation": {"number": 64, "value": 127}, "group": "control_change"}, {"time": 4754, "annotation": {"number": 64, "value": 0}, "group": "control_change"}, {"time": 4755, "annotation": {"number": 64, "value": 127}, "group": "control_change"}, {"time": 4777, "annotation": {"number": 64, "value": 0}, "group": "control_change"}, {"time": 4779, "annotation": {"number": 64, "value": 127}, "group": "control_change"}, {"time": 4800, "annotation": {"number": 64, "value": 0}, "group": "control_change"}, {"time": 4801, "annotation": {"number": 64, "value": 127}, "group": "control_change"}, {"time": 4802, "annotation": {"number": 64, "value": 127}, "group": "control_change"}, {"time": 4825, "annotation": {"number": 64, "value": 0}, "group": "control_change"}, {"time": 4827, "annotation": {"number": 64, "value": 127}, "group": "control_change"}, {"time": 4848, "annotation": {"number": 64, "value": 0}, "group": "control_change"}, {"time": 4852, "annotation": {"number": 64, "value": 127}, "group": "control_change"}, {"time": 4874, "annotation": {"number": 64, "value": 0}, "group": "control_change"}, {"time": 4876, "annotation": {"number": 64, "value": 127}, "group": "control_change"}, {"time": 4897, "annotation": {"number": 64, "value": 0}, "group": "control_change"}, {"time": 4899, "annotation": {"number": 64, "value": 127}, "group": "control_change"}, {"time": 4921, "annotation": {"number": 64, "value": 0}, "group": "control_change"}, {"time": 4922, "annotation": {"number": 64, "value": 127}, "group": "control_change"}, {"time": 4946, "annotation": {"number": 64, "value": 0}, "group": "control_change"}, {"time": 4948, "annotation": {"number": 64, "value": 127}, "group": "control_change"}, {"time": 4968, "annotation": {"number": 64, "value": 0}, "group": "control_change"}, {"time": 4971, "annotation": {"number": 64, "value": 127}, "group": "control_change"}, {"time": 4993, "annotation": {"number": 64, "value": 0}, "group": "control_change"}, {"time": 4995, "annotation": {"number": 64, "value": 127}, "group": "control_change"}, {"time": 5016, "annotation": {"number": 64, "value": 0}, "group": "control_change"}, {"time": 5017, "annotation": {"number": 64, "value": 127}, "group": "control_change"}, {"time": 5040, "annotation": {"number": 64, "value": 0}, "group": "control_change"}, {"time": 5042, "annotation": {"number": 64, "value": 127}, "group": "control_change"}, {"time": 5065, "annotation": {"number": 64, "value": 0}, "group": "control_change"}, {"time": 5066, "annotation": {"number": 64, "value": 127}, "group": "control_change"}, {"time": 5090, "annotation": {"number": 64, "value": 0}, "group": "control_change"}, {"time": 5092, "annotation": {"number": 64, "value": 127}, "group": "control_change"}, {"time": 5113, "annotation": {"number": 64, "value": 0}, "group": "control_change"}, {"time": 5115, "annotation": {"number": 64, "value": 127}, "group": "control_change"}, {"time": 5138, "annotation": {"number": 64, "value": 0}, "group": "control_change"}, {"time": 5139, "annotation": {"number": 64, "value": 127}, "group": "control_change"}, {"time": 5161, "annotation": {"number": 64, "value": 0}, "group": "control_change"}, {"time": 5163, "annotation": {"number": 64, "value": 127}, "group": "control_change"}, {"time": 5163, "annotation": {"number": 64, "value": 0}, "group": "control_change"}, {"time": 5198, "annotation": {"number": 64, "value": 0}, "group": "control_change"}]}]}