{"metadata": {"schema_version": "0.2", "title": "None", "source_filename": "786.mid", "source_format": "midi"}, "resolution": 12, "tempos": [{"time": 0, "qpm": 101.00006901671382}, {"time": 217, "qpm": 101.75010175010175}, {"time": 283, "qpm": 95.75013045955275}, {"time": 552, "qpm": 100.50032411354526}, {"time": 833, "qpm": 100.25012405952852}, {"time": 1439, "qpm": 100.50032411354526}, {"time": 2396, "qpm": 100.25012405952852}, {"time": 2710, "qpm": 100.50032411354526}], "time_signatures": [{"time": 0, "numerator": 1, "denominator": 4}], "tracks": [{"program": 0, "is_drum": false, "name": "MELODY", "notes": [{"time": 39, "pitch": 79, "duration": 5, "velocity": 88}, {"time": 45, "pitch": 77, "duration": 4, "velocity": 81}, {"time": 51, "pitch": 79, "duration": 4, "velocity": 83}, {"time": 57, "pitch": 82, "duration": 4, "velocity": 95}, {"time": 63, "pitch": 82, "duration": 3, "velocity": 95}, {"time": 69, "pitch": 79, "duration": 2, "velocity": 81}, {"time": 72, "pitch": 77, "duration": 2, "velocity": 81}, {"time": 75, "pitch": 74, "duration": 9, "velocity": 90}, {"time": 87, "pitch": 74, "duration": 7, "velocity": 90}, {"time": 96, "pitch": 77, "duration": 2, "velocity": 79}, {"time": 99, "pitch": 79, "duration": 3, "velocity": 80}, {"time": 105, "pitch": 77, "duration": 2, "velocity": 90}, {"time": 111, "pitch": 77, "duration": 5, "velocity": 78}, {"time": 117, "pitch": 74, "duration": 4, "velocity": 93}, {"time": 123, "pitch": 72, "duration": 9, "velocity": 83}, {"time": 141, "pitch": 74, "duration": 5, "velocity": 90}, {"time": 147, "pitch": 77, "duration": 4, "velocity": 80}, {"time": 153, "pitch": 72, "duration": 4, "velocity": 83}, {"time": 159, "pitch": 77, "duration": 4, "velocity": 86}, {"time": 165, "pitch": 79, "duration": 2, "velocity": 80}, {"time": 168, "pitch": 77, "duration": 3, "velocity": 80}, {"time": 171, "pitch": 74, "duration": 4, "velocity": 96}, {"time": 177, "pitch": 72, "duration": 4, "velocity": 83}, {"time": 183, "pitch": 70, "duration": 43, "velocity": 84}, {"time": 759, "pitch": 79, "duration": 5, "velocity": 90}, {"time": 765, "pitch": 77, "duration": 6, "velocity": 81}, {"time": 771, "pitch": 79, "duration": 10, "velocity": 85}, {"time": 783, "pitch": 82, "duration": 5, "velocity": 86}, {"time": 789, "pitch": 84, "duration": 4, "velocity": 90}, {"time": 795, "pitch": 79, "duration": 6, "velocity": 79}, {"time": 801, "pitch": 77, "duration": 3, "velocity": 81}, {"time": 807, "pitch": 74, "duration": 7, "velocity": 93}, {"time": 816, "pitch": 82, "duration": 3, "velocity": 82}, {"time": 819, "pitch": 79, "duration": 6, "velocity": 80}, {"time": 825, "pitch": 77, "duration": 6, "velocity": 80}, {"time": 831, "pitch": 79, "duration": 9, "velocity": 83}, {"time": 840, "pitch": 82, "duration": 3, "velocity": 83}, {"time": 843, "pitch": 79, "duration": 6, "velocity": 90}, {"time": 849, "pitch": 77, "duration": 3, "velocity": 80}, {"time": 855, "pitch": 74, "duration": 7, "velocity": 93}, {"time": 861, "pitch": 72, "duration": 5, "velocity": 81}, {"time": 867, "pitch": 74, "duration": 4, "velocity": 93}, {"time": 873, "pitch": 77, "duration": 3, "velocity": 83}, {"time": 879, "pitch": 82, "duration": 3, "velocity": 88}, {"time": 885, "pitch": 82, "duration": 3, "velocity": 82}, {"time": 888, "pitch": 84, "duration": 2, "velocity": 81}, {"time": 891, "pitch": 79, "duration": 6, "velocity": 80}, {"time": 897, "pitch": 77, "duration": 3, "velocity": 82}, {"time": 903, "pitch": 70, "duration": 6, "velocity": 80}, {"time": 909, "pitch": 72, "duration": 6, "velocity": 80}, {"time": 915, "pitch": 77, "duration": 6, "velocity": 80}, {"time": 921, "pitch": 74, "duration": 6, "velocity": 80}, {"time": 927, "pitch": 72, "duration": 24, "velocity": 80}, {"time": 951, "pitch": 77, "duration": 8, "velocity": 81}, {"time": 960, "pitch": 79, "duration": 3, "velocity": 79}, {"time": 963, "pitch": 77, "duration": 5, "velocity": 83}, {"time": 969, "pitch": 74, "duration": 4, "velocity": 96}, {"time": 975, "pitch": 77, "duration": 7, "velocity": 85}, {"time": 984, "pitch": 79, "duration": 3, "velocity": 79}, {"time": 987, "pitch": 77, "duration": 5, "velocity": 86}, {"time": 993, "pitch": 74, "duration": 3, "velocity": 96}, {"time": 999, "pitch": 70, "duration": 5, "velocity": 90}, {"time": 1005, "pitch": 72, "duration": 4, "velocity": 83}, {"time": 1011, "pitch": 77, "duration": 4, "velocity": 81}, {"time": 1017, "pitch": 74, "duration": 4, "velocity": 88}, {"time": 1023, "pitch": 72, "duration": 21, "velocity": 90}, {"time": 1047, "pitch": 79, "duration": 6, "velocity": 80}, {"time": 1053, "pitch": 77, "duration": 5, "velocity": 77}, {"time": 1059, "pitch": 79, "duration": 6, "velocity": 80}, {"time": 1065, "pitch": 82, "duration": 4, "velocity": 80}, {"time": 1071, "pitch": 82, "duration": 4, "velocity": 83}, {"time": 1077, "pitch": 79, "duration": 3, "velocity": 78}, {"time": 1080, "pitch": 77, "duration": 2, "velocity": 69}, {"time": 1083, "pitch": 74, "duration": 9, "velocity": 62}, {"time": 1095, "pitch": 74, "duration": 7, "velocity": 90}, {"time": 1104, "pitch": 77, "duration": 3, "velocity": 80}, {"time": 1107, "pitch": 79, "duration": 5, "velocity": 81}, {"time": 1113, "pitch": 77, "duration": 4, "velocity": 83}, {"time": 1119, "pitch": 77, "duration": 6, "velocity": 80}, {"time": 1125, "pitch": 74, "duration": 6, "velocity": 81}, {"time": 1131, "pitch": 74, "duration": 6, "velocity": 85}, {"time": 1137, "pitch": 72, "duration": 6, "velocity": 79}, {"time": 1149, "pitch": 74, "duration": 6, "velocity": 85}, {"time": 1155, "pitch": 77, "duration": 6, "velocity": 78}, {"time": 1161, "pitch": 72, "duration": 5, "velocity": 81}, {"time": 1167, "pitch": 77, "duration": 5, "velocity": 80}, {"time": 1173, "pitch": 79, "duration": 4, "velocity": 71}, {"time": 1176, "pitch": 77, "duration": 3, "velocity": 79}, {"time": 1179, "pitch": 74, "duration": 7, "velocity": 80}, {"time": 1185, "pitch": 72, "duration": 6, "velocity": 80}, {"time": 1191, "pitch": 70, "duration": 30, "velocity": 81}, {"time": 1263, "pitch": 79, "duration": 5, "velocity": 90}, {"time": 1269, "pitch": 77, "duration": 6, "velocity": 81}, {"time": 1275, "pitch": 79, "duration": 10, "velocity": 85}, {"time": 1287, "pitch": 82, "duration": 5, "velocity": 86}, {"time": 1293, "pitch": 84, "duration": 4, "velocity": 90}, {"time": 1299, "pitch": 79, "duration": 6, "velocity": 79}, {"time": 1305, "pitch": 77, "duration": 3, "velocity": 81}, {"time": 1311, "pitch": 74, "duration": 7, "velocity": 93}, {"time": 1320, "pitch": 82, "duration": 3, "velocity": 82}, {"time": 1323, "pitch": 79, "duration": 6, "velocity": 80}, {"time": 1329, "pitch": 77, "duration": 6, "velocity": 80}, {"time": 1335, "pitch": 79, "duration": 9, "velocity": 83}, {"time": 1344, "pitch": 82, "duration": 3, "velocity": 83}, {"time": 1347, "pitch": 79, "duration": 6, "velocity": 90}, {"time": 1353, "pitch": 77, "duration": 3, "velocity": 80}, {"time": 1359, "pitch": 74, "duration": 7, "velocity": 93}, {"time": 1365, "pitch": 72, "duration": 5, "velocity": 81}, {"time": 1371, "pitch": 74, "duration": 4, "velocity": 93}, {"time": 1377, "pitch": 77, "duration": 3, "velocity": 83}, {"time": 1383, "pitch": 82, "duration": 3, "velocity": 88}, {"time": 1389, "pitch": 82, "duration": 3, "velocity": 82}, {"time": 1392, "pitch": 84, "duration": 2, "velocity": 81}, {"time": 1395, "pitch": 79, "duration": 6, "velocity": 80}, {"time": 1401, "pitch": 77, "duration": 3, "velocity": 82}, {"time": 1407, "pitch": 70, "duration": 6, "velocity": 80}, {"time": 1413, "pitch": 72, "duration": 6, "velocity": 80}, {"time": 1419, "pitch": 77, "duration": 6, "velocity": 80}, {"time": 1425, "pitch": 74, "duration": 6, "velocity": 80}, {"time": 1431, "pitch": 72, "duration": 24, "velocity": 80}, {"time": 1455, "pitch": 77, "duration": 8, "velocity": 81}, {"time": 1464, "pitch": 79, "duration": 3, "velocity": 79}, {"time": 1467, "pitch": 77, "duration": 5, "velocity": 83}, {"time": 1473, "pitch": 74, "duration": 4, "velocity": 96}, {"time": 1479, "pitch": 77, "duration": 7, "velocity": 85}, {"time": 1488, "pitch": 79, "duration": 3, "velocity": 79}, {"time": 1491, "pitch": 77, "duration": 5, "velocity": 86}, {"time": 1497, "pitch": 74, "duration": 3, "velocity": 96}, {"time": 1503, "pitch": 70, "duration": 5, "velocity": 90}, {"time": 1509, "pitch": 72, "duration": 4, "velocity": 83}, {"time": 1515, "pitch": 77, "duration": 4, "velocity": 81}, {"time": 1521, "pitch": 74, "duration": 4, "velocity": 88}, {"time": 1527, "pitch": 72, "duration": 21, "velocity": 90}, {"time": 1551, "pitch": 79, "duration": 6, "velocity": 80}, {"time": 1557, "pitch": 77, "duration": 5, "velocity": 77}, {"time": 1563, "pitch": 79, "duration": 6, "velocity": 80}, {"time": 1569, "pitch": 82, "duration": 4, "velocity": 80}, {"time": 1575, "pitch": 82, "duration": 4, "velocity": 83}, {"time": 1581, "pitch": 79, "duration": 3, "velocity": 78}, {"time": 1584, "pitch": 77, "duration": 2, "velocity": 69}, {"time": 1587, "pitch": 74, "duration": 9, "velocity": 62}, {"time": 1599, "pitch": 74, "duration": 7, "velocity": 90}, {"time": 1608, "pitch": 77, "duration": 3, "velocity": 80}, {"time": 1611, "pitch": 79, "duration": 5, "velocity": 81}, {"time": 1617, "pitch": 77, "duration": 4, "velocity": 83}, {"time": 1623, "pitch": 77, "duration": 6, "velocity": 80}, {"time": 1629, "pitch": 74, "duration": 6, "velocity": 81}, {"time": 1635, "pitch": 74, "duration": 6, "velocity": 85}, {"time": 1641, "pitch": 72, "duration": 6, "velocity": 79}, {"time": 1653, "pitch": 74, "duration": 6, "velocity": 85}, {"time": 1659, "pitch": 77, "duration": 6, "velocity": 78}, {"time": 1665, "pitch": 72, "duration": 5, "velocity": 81}, {"time": 1671, "pitch": 77, "duration": 5, "velocity": 80}, {"time": 1677, "pitch": 79, "duration": 4, "velocity": 71}, {"time": 1680, "pitch": 77, "duration": 3, "velocity": 79}, {"time": 1683, "pitch": 74, "duration": 7, "velocity": 80}, {"time": 1689, "pitch": 72, "duration": 6, "velocity": 80}, {"time": 1695, "pitch": 70, "duration": 30, "velocity": 81}, {"time": 1911, "pitch": 79, "duration": 5, "velocity": 90}, {"time": 1917, "pitch": 77, "duration": 6, "velocity": 81}, {"time": 1923, "pitch": 79, "duration": 10, "velocity": 85}, {"time": 1935, "pitch": 82, "duration": 5, "velocity": 86}, {"time": 1941, "pitch": 84, "duration": 4, "velocity": 90}, {"time": 1947, "pitch": 79, "duration": 6, "velocity": 79}, {"time": 1953, "pitch": 77, "duration": 3, "velocity": 81}, {"time": 1959, "pitch": 74, "duration": 7, "velocity": 93}, {"time": 1968, "pitch": 82, "duration": 3, "velocity": 82}, {"time": 1971, "pitch": 79, "duration": 6, "velocity": 80}, {"time": 1977, "pitch": 77, "duration": 6, "velocity": 80}, {"time": 1983, "pitch": 79, "duration": 9, "velocity": 83}, {"time": 1992, "pitch": 82, "duration": 3, "velocity": 83}, {"time": 1995, "pitch": 79, "duration": 6, "velocity": 90}, {"time": 2001, "pitch": 77, "duration": 3, "velocity": 80}, {"time": 2007, "pitch": 74, "duration": 7, "velocity": 93}, {"time": 2013, "pitch": 72, "duration": 5, "velocity": 81}, {"time": 2019, "pitch": 74, "duration": 4, "velocity": 93}, {"time": 2025, "pitch": 77, "duration": 3, "velocity": 83}, {"time": 2031, "pitch": 82, "duration": 3, "velocity": 88}, {"time": 2037, "pitch": 82, "duration": 3, "velocity": 82}, {"time": 2040, "pitch": 84, "duration": 2, "velocity": 81}, {"time": 2043, "pitch": 79, "duration": 6, "velocity": 80}, {"time": 2049, "pitch": 77, "duration": 3, "velocity": 82}, {"time": 2055, "pitch": 70, "duration": 6, "velocity": 80}, {"time": 2061, "pitch": 72, "duration": 6, "velocity": 80}, {"time": 2067, "pitch": 77, "duration": 6, "velocity": 80}, {"time": 2073, "pitch": 74, "duration": 6, "velocity": 80}, {"time": 2079, "pitch": 72, "duration": 24, "velocity": 80}, {"time": 2103, "pitch": 77, "duration": 8, "velocity": 81}, {"time": 2112, "pitch": 79, "duration": 3, "velocity": 79}, {"time": 2115, "pitch": 77, "duration": 5, "velocity": 83}, {"time": 2121, "pitch": 74, "duration": 4, "velocity": 96}, {"time": 2127, "pitch": 77, "duration": 7, "velocity": 85}, {"time": 2136, "pitch": 79, "duration": 3, "velocity": 79}, {"time": 2139, "pitch": 77, "duration": 5, "velocity": 86}, {"time": 2145, "pitch": 74, "duration": 3, "velocity": 96}, {"time": 2151, "pitch": 70, "duration": 5, "velocity": 90}, {"time": 2157, "pitch": 72, "duration": 4, "velocity": 83}, {"time": 2163, "pitch": 77, "duration": 4, "velocity": 81}, {"time": 2169, "pitch": 74, "duration": 4, "velocity": 88}, {"time": 2175, "pitch": 72, "duration": 21, "velocity": 90}, {"time": 2199, "pitch": 79, "duration": 6, "velocity": 80}, {"time": 2205, "pitch": 77, "duration": 5, "velocity": 77}, {"time": 2211, "pitch": 79, "duration": 6, "velocity": 80}, {"time": 2217, "pitch": 82, "duration": 4, "velocity": 80}, {"time": 2223, "pitch": 82, "duration": 4, "velocity": 83}, {"time": 2229, "pitch": 79, "duration": 3, "velocity": 78}, {"time": 2232, "pitch": 77, "duration": 2, "velocity": 69}, {"time": 2235, "pitch": 74, "duration": 9, "velocity": 62}, {"time": 2247, "pitch": 74, "duration": 7, "velocity": 90}, {"time": 2256, "pitch": 77, "duration": 3, "velocity": 80}, {"time": 2259, "pitch": 79, "duration": 5, "velocity": 81}, {"time": 2265, "pitch": 77, "duration": 4, "velocity": 83}, {"time": 2271, "pitch": 77, "duration": 6, "velocity": 80}, {"time": 2277, "pitch": 74, "duration": 6, "velocity": 81}, {"time": 2283, "pitch": 74, "duration": 6, "velocity": 85}, {"time": 2289, "pitch": 72, "duration": 6, "velocity": 79}, {"time": 2301, "pitch": 74, "duration": 6, "velocity": 85}, {"time": 2307, "pitch": 77, "duration": 6, "velocity": 78}, {"time": 2313, "pitch": 72, "duration": 5, "velocity": 81}, {"time": 2319, "pitch": 77, "duration": 5, "velocity": 80}, {"time": 2325, "pitch": 79, "duration": 4, "velocity": 71}, {"time": 2328, "pitch": 77, "duration": 3, "velocity": 79}, {"time": 2331, "pitch": 74, "duration": 7, "velocity": 80}, {"time": 2337, "pitch": 72, "duration": 6, "velocity": 80}, {"time": 2343, "pitch": 70, "duration": 30, "velocity": 81}, {"time": 2415, "pitch": 79, "duration": 5, "velocity": 90}, {"time": 2421, "pitch": 77, "duration": 6, "velocity": 81}, {"time": 2427, "pitch": 79, "duration": 10, "velocity": 85}, {"time": 2439, "pitch": 82, "duration": 5, "velocity": 86}, {"time": 2445, "pitch": 84, "duration": 4, "velocity": 90}, {"time": 2451, "pitch": 79, "duration": 6, "velocity": 79}, {"time": 2457, "pitch": 77, "duration": 3, "velocity": 81}, {"time": 2463, "pitch": 74, "duration": 7, "velocity": 93}, {"time": 2472, "pitch": 82, "duration": 3, "velocity": 82}, {"time": 2475, "pitch": 79, "duration": 6, "velocity": 80}, {"time": 2481, "pitch": 77, "duration": 6, "velocity": 80}, {"time": 2487, "pitch": 79, "duration": 9, "velocity": 83}, {"time": 2496, "pitch": 82, "duration": 3, "velocity": 83}, {"time": 2499, "pitch": 79, "duration": 6, "velocity": 90}, {"time": 2505, "pitch": 77, "duration": 3, "velocity": 80}, {"time": 2511, "pitch": 74, "duration": 7, "velocity": 93}, {"time": 2517, "pitch": 72, "duration": 5, "velocity": 81}, {"time": 2523, "pitch": 74, "duration": 4, "velocity": 93}, {"time": 2529, "pitch": 77, "duration": 3, "velocity": 83}, {"time": 2535, "pitch": 82, "duration": 3, "velocity": 88}, {"time": 2541, "pitch": 82, "duration": 3, "velocity": 82}, {"time": 2544, "pitch": 84, "duration": 2, "velocity": 81}, {"time": 2547, "pitch": 79, "duration": 6, "velocity": 80}, {"time": 2553, "pitch": 77, "duration": 3, "velocity": 82}, {"time": 2559, "pitch": 70, "duration": 6, "velocity": 80}, {"time": 2565, "pitch": 72, "duration": 6, "velocity": 80}, {"time": 2571, "pitch": 77, "duration": 6, "velocity": 80}, {"time": 2577, "pitch": 74, "duration": 6, "velocity": 80}, {"time": 2583, "pitch": 72, "duration": 24, "velocity": 80}, {"time": 2607, "pitch": 77, "duration": 8, "velocity": 81}, {"time": 2616, "pitch": 79, "duration": 3, "velocity": 79}, {"time": 2619, "pitch": 77, "duration": 5, "velocity": 83}, {"time": 2625, "pitch": 74, "duration": 4, "velocity": 96}, {"time": 2631, "pitch": 77, "duration": 7, "velocity": 85}, {"time": 2640, "pitch": 79, "duration": 3, "velocity": 79}, {"time": 2643, "pitch": 77, "duration": 5, "velocity": 86}, {"time": 2649, "pitch": 74, "duration": 3, "velocity": 96}, {"time": 2655, "pitch": 70, "duration": 5, "velocity": 90}, {"time": 2661, "pitch": 72, "duration": 4, "velocity": 83}, {"time": 2667, "pitch": 77, "duration": 4, "velocity": 81}, {"time": 2673, "pitch": 74, "duration": 4, "velocity": 88}, {"time": 2679, "pitch": 72, "duration": 21, "velocity": 90}, {"time": 2703, "pitch": 79, "duration": 6, "velocity": 80}, {"time": 2709, "pitch": 77, "duration": 5, "velocity": 77}, {"time": 2715, "pitch": 79, "duration": 6, "velocity": 80}, {"time": 2721, "pitch": 82, "duration": 4, "velocity": 80}, {"time": 2727, "pitch": 82, "duration": 4, "velocity": 83}, {"time": 2733, "pitch": 79, "duration": 3, "velocity": 78}, {"time": 2736, "pitch": 77, "duration": 2, "velocity": 69}, {"time": 2739, "pitch": 74, "duration": 9, "velocity": 62}, {"time": 2751, "pitch": 74, "duration": 7, "velocity": 90}, {"time": 2760, "pitch": 77, "duration": 3, "velocity": 80}, {"time": 2763, "pitch": 79, "duration": 5, "velocity": 81}, {"time": 2769, "pitch": 77, "duration": 4, "velocity": 83}, {"time": 2775, "pitch": 77, "duration": 6, "velocity": 80}, {"time": 2781, "pitch": 74, "duration": 6, "velocity": 81}, {"time": 2787, "pitch": 74, "duration": 6, "velocity": 85}, {"time": 2793, "pitch": 72, "duration": 6, "velocity": 79}, {"time": 2805, "pitch": 74, "duration": 6, "velocity": 85}, {"time": 2811, "pitch": 77, "duration": 6, "velocity": 78}, {"time": 2817, "pitch": 72, "duration": 5, "velocity": 81}, {"time": 2823, "pitch": 77, "duration": 5, "velocity": 80}, {"time": 2829, "pitch": 79, "duration": 4, "velocity": 71}, {"time": 2832, "pitch": 77, "duration": 3, "velocity": 79}, {"time": 2835, "pitch": 74, "duration": 7, "velocity": 80}, {"time": 2841, "pitch": 72, "duration": 6, "velocity": 80}, {"time": 2847, "pitch": 70, "duration": 30, "velocity": 81}]}, {"program": 0, "is_drum": false, "name": "BRIDGE", "notes": [{"time": 294, "pitch": 67, "duration": 10, "velocity": 84}, {"time": 303, "pitch": 79, "duration": 43, "velocity": 80}, {"time": 346, "pitch": 77, "duration": 8, "velocity": 81}, {"time": 353, "pitch": 79, "duration": 7, "velocity": 80}, {"time": 360, "pitch": 82, "duration": 6, "velocity": 79}, {"time": 366, "pitch": 84, "duration": 6, "velocity": 86}, {"time": 372, "pitch": 81, "duration": 3, "velocity": 76}, {"time": 374, "pitch": 79, "duration": 3, "velocity": 80}, {"time": 377, "pitch": 77, "duration": 3, "velocity": 72}, {"time": 379, "pitch": 79, "duration": 50, "velocity": 80}, {"time": 436, "pitch": 77, "duration": 9, "velocity": 78}, {"time": 443, "pitch": 72, "duration": 67, "velocity": 81}, {"time": 509, "pitch": 74, "duration": 7, "velocity": 85}, {"time": 516, "pitch": 72, "duration": 3, "velocity": 79}, {"time": 519, "pitch": 74, "duration": 3, "velocity": 80}, {"time": 522, "pitch": 72, "duration": 2, "velocity": 68}, {"time": 524, "pitch": 74, "duration": 2, "velocity": 80}, {"time": 526, "pitch": 72, "duration": 3, "velocity": 71}, {"time": 528, "pitch": 74, "duration": 2, "velocity": 80}, {"time": 531, "pitch": 72, "duration": 1, "velocity": 70}, {"time": 532, "pitch": 74, "duration": 2, "velocity": 84}, {"time": 534, "pitch": 72, "duration": 2, "velocity": 81}, {"time": 536, "pitch": 74, "duration": 3, "velocity": 84}, {"time": 538, "pitch": 72, "duration": 3, "velocity": 79}, {"time": 541, "pitch": 74, "duration": 2, "velocity": 83}, {"time": 543, "pitch": 72, "duration": 2, "velocity": 74}, {"time": 544, "pitch": 74, "duration": 3, "velocity": 81}, {"time": 546, "pitch": 72, "duration": 20, "velocity": 79}, {"time": 567, "pitch": 82, "duration": 8, "velocity": 90}, {"time": 576, "pitch": 84, "duration": 4, "velocity": 79}, {"time": 579, "pitch": 82, "duration": 8, "velocity": 85}, {"time": 585, "pitch": 77, "duration": 6, "velocity": 80}, {"time": 591, "pitch": 79, "duration": 12, "velocity": 84}, {"time": 603, "pitch": 79, "duration": 3, "velocity": 86}, {"time": 606, "pitch": 82, "duration": 3, "velocity": 86}, {"time": 609, "pitch": 77, "duration": 6, "velocity": 83}, {"time": 615, "pitch": 74, "duration": 8, "velocity": 86}, {"time": 624, "pitch": 72, "duration": 3, "velocity": 79}, {"time": 627, "pitch": 74, "duration": 3, "velocity": 79}, {"time": 630, "pitch": 72, "duration": 4, "velocity": 80}, {"time": 633, "pitch": 74, "duration": 3, "velocity": 82}, {"time": 636, "pitch": 77, "duration": 4, "velocity": 80}, {"time": 639, "pitch": 79, "duration": 9, "velocity": 83}, {"time": 657, "pitch": 77, "duration": 3, "velocity": 79}, {"time": 660, "pitch": 79, "duration": 3, "velocity": 80}, {"time": 663, "pitch": 82, "duration": 7, "velocity": 90}, {"time": 672, "pitch": 84, "duration": 4, "velocity": 80}, {"time": 675, "pitch": 82, "duration": 6, "velocity": 68}, {"time": 681, "pitch": 79, "duration": 6, "velocity": 83}, {"time": 687, "pitch": 77, "duration": 8, "velocity": 75}, {"time": 696, "pitch": 79, "duration": 3, "velocity": 78}, {"time": 699, "pitch": 84, "duration": 3, "velocity": 96}, {"time": 705, "pitch": 81, "duration": 4, "velocity": 85}, {"time": 711, "pitch": 79, "duration": 3, "velocity": 86}, {"time": 714, "pitch": 77, "duration": 3, "velocity": 77}, {"time": 717, "pitch": 79, "duration": 3, "velocity": 79}, {"time": 720, "pitch": 81, "duration": 3, "velocity": 63}, {"time": 723, "pitch": 74, "duration": 5, "velocity": 90}, {"time": 729, "pitch": 77, "duration": 6, "velocity": 78}, {"time": 735, "pitch": 79, "duration": 9, "velocity": 83}, {"time": 744, "pitch": 77, "duration": 3, "velocity": 81}, {"time": 747, "pitch": 79, "duration": 3, "velocity": 83}, {"time": 750, "pitch": 77, "duration": 3, "velocity": 82}, {"time": 753, "pitch": 79, "duration": 7, "velocity": 79}, {"time": 759, "pitch": 79, "duration": 1, "velocity": 90}, {"time": 765, "pitch": 77, "duration": 6, "velocity": 81}, {"time": 771, "pitch": 79, "duration": 10, "velocity": 85}, {"time": 783, "pitch": 82, "duration": 5, "velocity": 86}, {"time": 789, "pitch": 84, "duration": 4, "velocity": 90}, {"time": 795, "pitch": 79, "duration": 6, "velocity": 79}, {"time": 801, "pitch": 77, "duration": 3, "velocity": 81}, {"time": 807, "pitch": 74, "duration": 7, "velocity": 93}, {"time": 816, "pitch": 82, "duration": 3, "velocity": 82}, {"time": 819, "pitch": 79, "duration": 6, "velocity": 80}, {"time": 825, "pitch": 77, "duration": 6, "velocity": 80}, {"time": 831, "pitch": 79, "duration": 9, "velocity": 83}, {"time": 840, "pitch": 82, "duration": 3, "velocity": 83}, {"time": 843, "pitch": 79, "duration": 6, "velocity": 90}, {"time": 849, "pitch": 77, "duration": 3, "velocity": 80}, {"time": 855, "pitch": 74, "duration": 7, "velocity": 93}, {"time": 861, "pitch": 72, "duration": 5, "velocity": 81}, {"time": 867, "pitch": 74, "duration": 4, "velocity": 93}, {"time": 873, "pitch": 77, "duration": 3, "velocity": 83}, {"time": 879, "pitch": 82, "duration": 3, "velocity": 88}, {"time": 885, "pitch": 82, "duration": 3, "velocity": 82}, {"time": 888, "pitch": 84, "duration": 2, "velocity": 81}, {"time": 891, "pitch": 79, "duration": 6, "velocity": 80}, {"time": 897, "pitch": 77, "duration": 3, "velocity": 82}, {"time": 903, "pitch": 70, "duration": 6, "velocity": 80}, {"time": 909, "pitch": 72, "duration": 6, "velocity": 80}, {"time": 915, "pitch": 77, "duration": 6, "velocity": 80}, {"time": 921, "pitch": 74, "duration": 6, "velocity": 80}, {"time": 927, "pitch": 72, "duration": 24, "velocity": 80}, {"time": 951, "pitch": 77, "duration": 8, "velocity": 81}, {"time": 960, "pitch": 79, "duration": 3, "velocity": 79}, {"time": 963, "pitch": 77, "duration": 5, "velocity": 83}, {"time": 969, "pitch": 74, "duration": 4, "velocity": 96}, {"time": 975, "pitch": 77, "duration": 7, "velocity": 85}, {"time": 984, "pitch": 79, "duration": 3, "velocity": 79}, {"time": 987, "pitch": 77, "duration": 5, "velocity": 86}, {"time": 993, "pitch": 74, "duration": 3, "velocity": 96}, {"time": 996, "pitch": 72, "duration": 3, "velocity": 96}, {"time": 999, "pitch": 70, "duration": 5, "velocity": 90}, {"time": 1005, "pitch": 72, "duration": 4, "velocity": 83}, {"time": 1011, "pitch": 77, "duration": 4, "velocity": 81}, {"time": 1017, "pitch": 74, "duration": 4, "velocity": 88}, {"time": 1023, "pitch": 72, "duration": 6, "velocity": 90}, {"time": 1032, "pitch": 74, "duration": 3, "velocity": 80}, {"time": 1035, "pitch": 72, "duration": 3, "velocity": 80}, {"time": 1038, "pitch": 70, "duration": 3, "velocity": 90}, {"time": 1041, "pitch": 72, "duration": 6, "velocity": 80}, {"time": 1047, "pitch": 79, "duration": 18, "velocity": 72}, {"time": 1065, "pitch": 77, "duration": 7, "velocity": 59}, {"time": 1071, "pitch": 82, "duration": 7, "velocity": 72}, {"time": 1077, "pitch": 79, "duration": 7, "velocity": 70}, {"time": 1083, "pitch": 77, "duration": 11, "velocity": 69}, {"time": 1095, "pitch": 74, "duration": 9, "velocity": 79}, {"time": 1104, "pitch": 77, "duration": 3, "velocity": 80}, {"time": 1107, "pitch": 79, "duration": 6, "velocity": 71}, {"time": 1113, "pitch": 77, "duration": 7, "velocity": 74}, {"time": 1119, "pitch": 77, "duration": 1, "velocity": 76}, {"time": 1125, "pitch": 74, "duration": 4, "velocity": 82}, {"time": 1131, "pitch": 74, "duration": 5, "velocity": 80}, {"time": 1137, "pitch": 72, "duration": 8, "velocity": 65}, {"time": 1149, "pitch": 74, "duration": 5, "velocity": 75}, {"time": 1155, "pitch": 77, "duration": 5, "velocity": 71}, {"time": 1161, "pitch": 72, "duration": 5, "velocity": 75}, {"time": 1167, "pitch": 77, "duration": 6, "velocity": 77}, {"time": 1173, "pitch": 79, "duration": 4, "velocity": 68}, {"time": 1176, "pitch": 77, "duration": 3, "velocity": 79}, {"time": 1179, "pitch": 74, "duration": 5, "velocity": 81}, {"time": 1185, "pitch": 72, "duration": 6, "velocity": 79}, {"time": 1191, "pitch": 70, "duration": 23, "velocity": 67}, {"time": 1215, "pitch": 82, "duration": 5, "velocity": 79}, {"time": 1218, "pitch": 79, "duration": 4, "velocity": 79}, {"time": 1221, "pitch": 77, "duration": 3, "velocity": 76}, {"time": 1224, "pitch": 74, "duration": 3, "velocity": 49}, {"time": 1227, "pitch": 79, "duration": 4, "velocity": 74}, {"time": 1230, "pitch": 77, "duration": 2, "velocity": 81}, {"time": 1233, "pitch": 74, "duration": 3, "velocity": 88}, {"time": 1236, "pitch": 72, "duration": 3, "velocity": 71}, {"time": 1239, "pitch": 70, "duration": 3, "velocity": 69}, {"time": 1239, "pitch": 74, "duration": 3, "velocity": 78}, {"time": 1245, "pitch": 70, "duration": 3, "velocity": 80}, {"time": 1245, "pitch": 74, "duration": 3, "velocity": 81}, {"time": 1251, "pitch": 70, "duration": 3, "velocity": 77}, {"time": 1251, "pitch": 74, "duration": 3, "velocity": 82}, {"time": 1359, "pitch": 74, "duration": 7, "velocity": 93}, {"time": 1365, "pitch": 72, "duration": 5, "velocity": 81}, {"time": 1371, "pitch": 74, "duration": 4, "velocity": 93}, {"time": 1377, "pitch": 77, "duration": 3, "velocity": 83}, {"time": 1383, "pitch": 82, "duration": 3, "velocity": 88}, {"time": 1389, "pitch": 82, "duration": 3, "velocity": 82}, {"time": 1392, "pitch": 84, "duration": 2, "velocity": 81}, {"time": 1395, "pitch": 79, "duration": 6, "velocity": 80}, {"time": 1401, "pitch": 77, "duration": 3, "velocity": 82}, {"time": 1407, "pitch": 70, "duration": 6, "velocity": 80}, {"time": 1413, "pitch": 72, "duration": 6, "velocity": 80}, {"time": 1419, "pitch": 77, "duration": 6, "velocity": 80}, {"time": 1425, "pitch": 74, "duration": 6, "velocity": 80}, {"time": 1431, "pitch": 72, "duration": 24, "velocity": 80}, {"time": 1455, "pitch": 77, "duration": 8, "velocity": 81}, {"time": 1464, "pitch": 79, "duration": 3, "velocity": 79}, {"time": 1467, "pitch": 77, "duration": 5, "velocity": 83}, {"time": 1473, "pitch": 74, "duration": 4, "velocity": 96}, {"time": 1479, "pitch": 77, "duration": 7, "velocity": 85}, {"time": 1488, "pitch": 79, "duration": 3, "velocity": 79}, {"time": 1491, "pitch": 77, "duration": 5, "velocity": 86}, {"time": 1497, "pitch": 74, "duration": 3, "velocity": 96}, {"time": 1500, "pitch": 72, "duration": 3, "velocity": 96}, {"time": 1503, "pitch": 70, "duration": 5, "velocity": 90}, {"time": 1509, "pitch": 72, "duration": 4, "velocity": 83}, {"time": 1515, "pitch": 77, "duration": 4, "velocity": 81}, {"time": 1521, "pitch": 74, "duration": 4, "velocity": 88}, {"time": 1527, "pitch": 72, "duration": 6, "velocity": 90}, {"time": 1536, "pitch": 74, "duration": 3, "velocity": 80}, {"time": 1539, "pitch": 72, "duration": 3, "velocity": 80}, {"time": 1542, "pitch": 70, "duration": 3, "velocity": 90}, {"time": 1545, "pitch": 72, "duration": 6, "velocity": 80}, {"time": 1599, "pitch": 74, "duration": 9, "velocity": 79}, {"time": 1608, "pitch": 77, "duration": 3, "velocity": 80}, {"time": 1611, "pitch": 79, "duration": 6, "velocity": 71}, {"time": 1617, "pitch": 77, "duration": 7, "velocity": 74}, {"time": 1623, "pitch": 77, "duration": 1, "velocity": 76}, {"time": 1629, "pitch": 74, "duration": 4, "velocity": 82}, {"time": 1635, "pitch": 74, "duration": 5, "velocity": 80}, {"time": 1641, "pitch": 72, "duration": 8, "velocity": 65}, {"time": 1653, "pitch": 74, "duration": 5, "velocity": 75}, {"time": 1659, "pitch": 77, "duration": 5, "velocity": 71}, {"time": 1665, "pitch": 72, "duration": 5, "velocity": 75}, {"time": 1671, "pitch": 77, "duration": 6, "velocity": 77}, {"time": 1677, "pitch": 79, "duration": 4, "velocity": 68}, {"time": 1680, "pitch": 77, "duration": 3, "velocity": 79}, {"time": 1683, "pitch": 74, "duration": 5, "velocity": 81}, {"time": 1689, "pitch": 72, "duration": 6, "velocity": 79}, {"time": 1695, "pitch": 70, "duration": 23, "velocity": 67}, {"time": 1719, "pitch": 82, "duration": 8, "velocity": 90}, {"time": 1728, "pitch": 84, "duration": 4, "velocity": 79}, {"time": 1731, "pitch": 82, "duration": 8, "velocity": 85}, {"time": 1737, "pitch": 77, "duration": 6, "velocity": 80}, {"time": 1743, "pitch": 79, "duration": 12, "velocity": 84}, {"time": 1755, "pitch": 79, "duration": 3, "velocity": 86}, {"time": 1758, "pitch": 82, "duration": 3, "velocity": 86}, {"time": 1761, "pitch": 77, "duration": 6, "velocity": 83}, {"time": 1767, "pitch": 74, "duration": 8, "velocity": 86}, {"time": 1776, "pitch": 72, "duration": 3, "velocity": 79}, {"time": 1779, "pitch": 74, "duration": 3, "velocity": 79}, {"time": 1782, "pitch": 72, "duration": 4, "velocity": 80}, {"time": 1785, "pitch": 74, "duration": 3, "velocity": 82}, {"time": 1788, "pitch": 77, "duration": 4, "velocity": 80}, {"time": 1791, "pitch": 79, "duration": 9, "velocity": 83}, {"time": 1809, "pitch": 77, "duration": 3, "velocity": 79}, {"time": 1812, "pitch": 79, "duration": 3, "velocity": 80}, {"time": 1815, "pitch": 82, "duration": 7, "velocity": 90}, {"time": 1824, "pitch": 84, "duration": 4, "velocity": 80}, {"time": 1827, "pitch": 82, "duration": 6, "velocity": 68}, {"time": 1833, "pitch": 79, "duration": 6, "velocity": 83}, {"time": 1839, "pitch": 77, "duration": 8, "velocity": 75}, {"time": 1848, "pitch": 79, "duration": 3, "velocity": 78}, {"time": 1851, "pitch": 84, "duration": 3, "velocity": 96}, {"time": 1857, "pitch": 81, "duration": 4, "velocity": 85}, {"time": 1863, "pitch": 79, "duration": 3, "velocity": 86}, {"time": 1866, "pitch": 77, "duration": 3, "velocity": 77}, {"time": 1869, "pitch": 79, "duration": 3, "velocity": 79}, {"time": 1872, "pitch": 81, "duration": 3, "velocity": 63}, {"time": 1875, "pitch": 74, "duration": 5, "velocity": 90}, {"time": 1881, "pitch": 77, "duration": 6, "velocity": 78}, {"time": 1887, "pitch": 79, "duration": 9, "velocity": 83}, {"time": 1896, "pitch": 77, "duration": 3, "velocity": 81}, {"time": 1899, "pitch": 79, "duration": 3, "velocity": 83}, {"time": 1902, "pitch": 77, "duration": 3, "velocity": 82}, {"time": 1905, "pitch": 79, "duration": 7, "velocity": 79}, {"time": 1911, "pitch": 79, "duration": 1, "velocity": 90}, {"time": 1917, "pitch": 77, "duration": 6, "velocity": 81}, {"time": 1923, "pitch": 79, "duration": 10, "velocity": 85}, {"time": 1935, "pitch": 82, "duration": 5, "velocity": 86}, {"time": 1941, "pitch": 84, "duration": 4, "velocity": 90}, {"time": 1947, "pitch": 79, "duration": 6, "velocity": 79}, {"time": 1953, "pitch": 77, "duration": 3, "velocity": 81}, {"time": 1959, "pitch": 74, "duration": 7, "velocity": 93}, {"time": 1968, "pitch": 82, "duration": 3, "velocity": 82}, {"time": 1971, "pitch": 79, "duration": 6, "velocity": 80}, {"time": 1977, "pitch": 77, "duration": 6, "velocity": 80}, {"time": 1983, "pitch": 79, "duration": 9, "velocity": 83}, {"time": 1992, "pitch": 82, "duration": 3, "velocity": 83}, {"time": 1995, "pitch": 79, "duration": 6, "velocity": 90}, {"time": 2001, "pitch": 77, "duration": 3, "velocity": 80}, {"time": 2007, "pitch": 74, "duration": 7, "velocity": 93}, {"time": 2013, "pitch": 72, "duration": 5, "velocity": 81}, {"time": 2019, "pitch": 74, "duration": 4, "velocity": 93}, {"time": 2025, "pitch": 77, "duration": 3, "velocity": 83}, {"time": 2031, "pitch": 82, "duration": 3, "velocity": 88}, {"time": 2037, "pitch": 82, "duration": 3, "velocity": 82}, {"time": 2040, "pitch": 84, "duration": 2, "velocity": 81}, {"time": 2043, "pitch": 79, "duration": 6, "velocity": 80}, {"time": 2049, "pitch": 77, "duration": 3, "velocity": 82}, {"time": 2055, "pitch": 70, "duration": 6, "velocity": 80}, {"time": 2061, "pitch": 72, "duration": 6, "velocity": 80}, {"time": 2067, "pitch": 77, "duration": 6, "velocity": 80}, {"time": 2073, "pitch": 74, "duration": 6, "velocity": 80}, {"time": 2079, "pitch": 72, "duration": 24, "velocity": 80}, {"time": 2103, "pitch": 77, "duration": 8, "velocity": 81}, {"time": 2112, "pitch": 79, "duration": 3, "velocity": 79}, {"time": 2115, "pitch": 77, "duration": 5, "velocity": 83}, {"time": 2121, "pitch": 74, "duration": 4, "velocity": 96}, {"time": 2127, "pitch": 77, "duration": 7, "velocity": 85}, {"time": 2136, "pitch": 79, "duration": 3, "velocity": 79}, {"time": 2139, "pitch": 77, "duration": 5, "velocity": 86}, {"time": 2145, "pitch": 74, "duration": 3, "velocity": 96}, {"time": 2148, "pitch": 72, "duration": 3, "velocity": 96}, {"time": 2151, "pitch": 70, "duration": 5, "velocity": 90}, {"time": 2157, "pitch": 72, "duration": 4, "velocity": 83}, {"time": 2163, "pitch": 77, "duration": 4, "velocity": 81}, {"time": 2169, "pitch": 74, "duration": 4, "velocity": 88}, {"time": 2175, "pitch": 72, "duration": 6, "velocity": 90}, {"time": 2184, "pitch": 74, "duration": 3, "velocity": 80}, {"time": 2187, "pitch": 72, "duration": 3, "velocity": 80}, {"time": 2190, "pitch": 70, "duration": 3, "velocity": 90}, {"time": 2193, "pitch": 72, "duration": 6, "velocity": 80}, {"time": 2199, "pitch": 79, "duration": 18, "velocity": 72}, {"time": 2217, "pitch": 77, "duration": 7, "velocity": 59}, {"time": 2223, "pitch": 82, "duration": 7, "velocity": 72}, {"time": 2229, "pitch": 79, "duration": 7, "velocity": 70}, {"time": 2235, "pitch": 77, "duration": 11, "velocity": 69}, {"time": 2247, "pitch": 74, "duration": 9, "velocity": 79}, {"time": 2256, "pitch": 77, "duration": 3, "velocity": 80}, {"time": 2259, "pitch": 79, "duration": 6, "velocity": 71}, {"time": 2265, "pitch": 77, "duration": 7, "velocity": 74}, {"time": 2271, "pitch": 77, "duration": 1, "velocity": 76}, {"time": 2277, "pitch": 74, "duration": 4, "velocity": 82}, {"time": 2283, "pitch": 74, "duration": 5, "velocity": 80}, {"time": 2289, "pitch": 72, "duration": 8, "velocity": 65}, {"time": 2301, "pitch": 74, "duration": 5, "velocity": 75}, {"time": 2307, "pitch": 77, "duration": 5, "velocity": 71}, {"time": 2313, "pitch": 72, "duration": 5, "velocity": 75}, {"time": 2319, "pitch": 77, "duration": 6, "velocity": 77}, {"time": 2325, "pitch": 79, "duration": 4, "velocity": 68}, {"time": 2328, "pitch": 77, "duration": 3, "velocity": 79}, {"time": 2331, "pitch": 74, "duration": 5, "velocity": 81}, {"time": 2337, "pitch": 72, "duration": 6, "velocity": 79}, {"time": 2343, "pitch": 70, "duration": 23, "velocity": 67}, {"time": 2367, "pitch": 82, "duration": 5, "velocity": 79}, {"time": 2370, "pitch": 79, "duration": 4, "velocity": 79}, {"time": 2373, "pitch": 77, "duration": 3, "velocity": 76}, {"time": 2376, "pitch": 74, "duration": 3, "velocity": 49}, {"time": 2379, "pitch": 79, "duration": 4, "velocity": 74}, {"time": 2382, "pitch": 77, "duration": 2, "velocity": 81}, {"time": 2385, "pitch": 74, "duration": 3, "velocity": 88}, {"time": 2388, "pitch": 72, "duration": 3, "velocity": 71}, {"time": 2391, "pitch": 70, "duration": 3, "velocity": 69}, {"time": 2391, "pitch": 74, "duration": 3, "velocity": 78}, {"time": 2397, "pitch": 70, "duration": 3, "velocity": 80}, {"time": 2397, "pitch": 74, "duration": 3, "velocity": 81}, {"time": 2403, "pitch": 70, "duration": 3, "velocity": 77}, {"time": 2403, "pitch": 74, "duration": 3, "velocity": 82}, {"time": 2511, "pitch": 74, "duration": 7, "velocity": 93}, {"time": 2517, "pitch": 72, "duration": 5, "velocity": 81}, {"time": 2523, "pitch": 74, "duration": 4, "velocity": 93}, {"time": 2529, "pitch": 77, "duration": 3, "velocity": 83}, {"time": 2535, "pitch": 82, "duration": 3, "velocity": 88}, {"time": 2541, "pitch": 82, "duration": 3, "velocity": 82}, {"time": 2544, "pitch": 84, "duration": 2, "velocity": 81}, {"time": 2547, "pitch": 79, "duration": 6, "velocity": 80}, {"time": 2553, "pitch": 77, "duration": 3, "velocity": 82}, {"time": 2559, "pitch": 70, "duration": 6, "velocity": 80}, {"time": 2565, "pitch": 72, "duration": 6, "velocity": 80}, {"time": 2571, "pitch": 77, "duration": 6, "velocity": 80}, {"time": 2577, "pitch": 74, "duration": 6, "velocity": 80}, {"time": 2583, "pitch": 72, "duration": 24, "velocity": 80}, {"time": 2607, "pitch": 77, "duration": 8, "velocity": 81}, {"time": 2616, "pitch": 79, "duration": 3, "velocity": 79}, {"time": 2619, "pitch": 77, "duration": 5, "velocity": 83}, {"time": 2625, "pitch": 74, "duration": 4, "velocity": 96}, {"time": 2631, "pitch": 77, "duration": 7, "velocity": 85}, {"time": 2640, "pitch": 79, "duration": 3, "velocity": 79}, {"time": 2643, "pitch": 77, "duration": 5, "velocity": 86}, {"time": 2649, "pitch": 74, "duration": 3, "velocity": 96}, {"time": 2652, "pitch": 72, "duration": 3, "velocity": 96}, {"time": 2655, "pitch": 70, "duration": 5, "velocity": 90}, {"time": 2661, "pitch": 72, "duration": 4, "velocity": 83}, {"time": 2667, "pitch": 77, "duration": 4, "velocity": 81}, {"time": 2673, "pitch": 74, "duration": 4, "velocity": 88}, {"time": 2679, "pitch": 72, "duration": 6, "velocity": 90}, {"time": 2688, "pitch": 74, "duration": 3, "velocity": 80}, {"time": 2691, "pitch": 72, "duration": 3, "velocity": 80}, {"time": 2694, "pitch": 70, "duration": 3, "velocity": 90}, {"time": 2697, "pitch": 72, "duration": 6, "velocity": 80}, {"time": 2751, "pitch": 74, "duration": 9, "velocity": 79}, {"time": 2760, "pitch": 77, "duration": 3, "velocity": 80}, {"time": 2763, "pitch": 79, "duration": 6, "velocity": 71}, {"time": 2769, "pitch": 77, "duration": 7, "velocity": 74}, {"time": 2775, "pitch": 77, "duration": 1, "velocity": 76}, {"time": 2781, "pitch": 74, "duration": 4, "velocity": 82}, {"time": 2787, "pitch": 74, "duration": 5, "velocity": 80}, {"time": 2793, "pitch": 72, "duration": 8, "velocity": 65}, {"time": 2805, "pitch": 74, "duration": 5, "velocity": 75}, {"time": 2811, "pitch": 77, "duration": 5, "velocity": 71}, {"time": 2817, "pitch": 72, "duration": 5, "velocity": 75}, {"time": 2823, "pitch": 77, "duration": 6, "velocity": 77}, {"time": 2829, "pitch": 79, "duration": 4, "velocity": 68}, {"time": 2832, "pitch": 77, "duration": 3, "velocity": 79}, {"time": 2835, "pitch": 74, "duration": 5, "velocity": 81}, {"time": 2841, "pitch": 72, "duration": 6, "velocity": 79}, {"time": 2847, "pitch": 70, "duration": 12, "velocity": 67}, {"time": 2859, "pitch": 70, "duration": 3, "velocity": 80}, {"time": 2862, "pitch": 72, "duration": 3, "velocity": 80}, {"time": 2865, "pitch": 74, "duration": 3, "velocity": 80}, {"time": 2868, "pitch": 77, "duration": 3, "velocity": 80}, {"time": 2871, "pitch": 82, "duration": 8, "velocity": 90}, {"time": 2880, "pitch": 84, "duration": 4, "velocity": 79}, {"time": 2883, "pitch": 82, "duration": 8, "velocity": 85}, {"time": 2889, "pitch": 77, "duration": 6, "velocity": 80}, {"time": 2895, "pitch": 79, "duration": 12, "velocity": 84}, {"time": 2907, "pitch": 79, "duration": 3, "velocity": 86}, {"time": 2910, "pitch": 82, "duration": 3, "velocity": 86}, {"time": 2913, "pitch": 77, "duration": 6, "velocity": 83}, {"time": 2919, "pitch": 74, "duration": 8, "velocity": 86}, {"time": 2928, "pitch": 72, "duration": 3, "velocity": 79}, {"time": 2931, "pitch": 74, "duration": 3, "velocity": 79}, {"time": 2934, "pitch": 72, "duration": 4, "velocity": 80}, {"time": 2937, "pitch": 74, "duration": 3, "velocity": 82}, {"time": 2940, "pitch": 77, "duration": 4, "velocity": 80}, {"time": 2943, "pitch": 79, "duration": 9, "velocity": 83}, {"time": 2961, "pitch": 77, "duration": 3, "velocity": 79}, {"time": 2964, "pitch": 79, "duration": 3, "velocity": 80}, {"time": 2967, "pitch": 82, "duration": 7, "velocity": 90}, {"time": 2976, "pitch": 84, "duration": 4, "velocity": 80}, {"time": 2979, "pitch": 82, "duration": 6, "velocity": 68}, {"time": 2985, "pitch": 79, "duration": 6, "velocity": 83}, {"time": 2991, "pitch": 77, "duration": 8, "velocity": 75}, {"time": 3000, "pitch": 79, "duration": 3, "velocity": 78}, {"time": 3003, "pitch": 84, "duration": 3, "velocity": 96}, {"time": 3009, "pitch": 81, "duration": 4, "velocity": 85}, {"time": 3015, "pitch": 79, "duration": 3, "velocity": 86}, {"time": 3018, "pitch": 77, "duration": 3, "velocity": 77}, {"time": 3021, "pitch": 79, "duration": 3, "velocity": 79}, {"time": 3024, "pitch": 81, "duration": 3, "velocity": 63}, {"time": 3027, "pitch": 74, "duration": 5, "velocity": 90}, {"time": 3033, "pitch": 77, "duration": 6, "velocity": 78}, {"time": 3039, "pitch": 79, "duration": 9, "velocity": 83}, {"time": 3051, "pitch": 79, "duration": 9, "velocity": 83}]}, {"program": 0, "is_drum": false, "name": "PIANO", "notes": [{"time": 277, "pitch": 43, "duration": 23, "velocity": 75}, {"time": 281, "pitch": 50, "duration": 16, "velocity": 74}, {"time": 282, "pitch": 55, "duration": 22, "velocity": 68}, {"time": 284, "pitch": 58, "duration": 21, "velocity": 66}, {"time": 286, "pitch": 62, "duration": 18, "velocity": 65}, {"time": 287, "pitch": 67, "duration": 17, "velocity": 57}, {"time": 304, "pitch": 50, "duration": 24, "velocity": 59}, {"time": 308, "pitch": 55, "duration": 7, "velocity": 68}, {"time": 313, "pitch": 62, "duration": 28, "velocity": 71}, {"time": 318, "pitch": 55, "duration": 12, "velocity": 49}, {"time": 326, "pitch": 67, "duration": 39, "velocity": 56}, {"time": 343, "pitch": 62, "duration": 22, "velocity": 56}, {"time": 344, "pitch": 55, "duration": 1, "velocity": 63}, {"time": 350, "pitch": 55, "duration": 15, "velocity": 79}, {"time": 370, "pitch": 43, "duration": 57, "velocity": 75}, {"time": 373, "pitch": 50, "duration": 52, "velocity": 67}, {"time": 373, "pitch": 55, "duration": 6, "velocity": 65}, {"time": 377, "pitch": 60, "duration": 4, "velocity": 72}, {"time": 384, "pitch": 60, "duration": 4, "velocity": 68}, {"time": 391, "pitch": 60, "duration": 6, "velocity": 65}, {"time": 392, "pitch": 55, "duration": 4, "velocity": 49}, {"time": 399, "pitch": 62, "duration": 6, "velocity": 62}, {"time": 400, "pitch": 55, "duration": 5, "velocity": 54}, {"time": 409, "pitch": 62, "duration": 7, "velocity": 66}, {"time": 410, "pitch": 55, "duration": 7, "velocity": 59}, {"time": 423, "pitch": 62, "duration": 19, "velocity": 70}, {"time": 432, "pitch": 41, "duration": 50, "velocity": 80}, {"time": 438, "pitch": 48, "duration": 41, "velocity": 80}, {"time": 442, "pitch": 53, "duration": 11, "velocity": 74}, {"time": 446, "pitch": 60, "duration": 9, "velocity": 75}, {"time": 449, "pitch": 57, "duration": 6, "velocity": 72}, {"time": 454, "pitch": 65, "duration": 38, "velocity": 70}, {"time": 458, "pitch": 53, "duration": 5, "velocity": 70}, {"time": 462, "pitch": 60, "duration": 12, "velocity": 70}, {"time": 467, "pitch": 57, "duration": 8, "velocity": 66}, {"time": 473, "pitch": 53, "duration": 8, "velocity": 65}, {"time": 480, "pitch": 57, "duration": 8, "velocity": 68}, {"time": 488, "pitch": 60, "duration": 3, "velocity": 64}, {"time": 497, "pitch": 41, "duration": 68, "velocity": 68}, {"time": 504, "pitch": 48, "duration": 61, "velocity": 52}, {"time": 509, "pitch": 60, "duration": 16, "velocity": 62}, {"time": 514, "pitch": 53, "duration": 6, "velocity": 66}, {"time": 520, "pitch": 65, "duration": 12, "velocity": 65}, {"time": 523, "pitch": 53, "duration": 7, "velocity": 66}, {"time": 529, "pitch": 60, "duration": 14, "velocity": 68}, {"time": 534, "pitch": 53, "duration": 9, "velocity": 66}, {"time": 540, "pitch": 65, "duration": 26, "velocity": 76}, {"time": 548, "pitch": 53, "duration": 17, "velocity": 72}, {"time": 556, "pitch": 60, "duration": 10, "velocity": 72}, {"time": 567, "pitch": 46, "duration": 8, "velocity": 79}, {"time": 567, "pitch": 58, "duration": 5, "velocity": 77}, {"time": 567, "pitch": 62, "duration": 6, "velocity": 77}, {"time": 576, "pitch": 58, "duration": 2, "velocity": 80}, {"time": 576, "pitch": 62, "duration": 2, "velocity": 77}, {"time": 576, "pitch": 65, "duration": 3, "velocity": 76}, {"time": 579, "pitch": 53, "duration": 2, "velocity": 66}, {"time": 585, "pitch": 58, "duration": 2, "velocity": 81}, {"time": 585, "pitch": 62, "duration": 2, "velocity": 80}, {"time": 591, "pitch": 43, "duration": 21, "velocity": 80}, {"time": 591, "pitch": 55, "duration": 5, "velocity": 74}, {"time": 591, "pitch": 58, "duration": 5, "velocity": 73}, {"time": 597, "pitch": 50, "duration": 3, "velocity": 64}, {"time": 600, "pitch": 58, "duration": 3, "velocity": 75}, {"time": 600, "pitch": 62, "duration": 4, "velocity": 76}, {"time": 603, "pitch": 50, "duration": 8, "velocity": 65}, {"time": 603, "pitch": 55, "duration": 3, "velocity": 74}, {"time": 609, "pitch": 55, "duration": 2, "velocity": 74}, {"time": 609, "pitch": 58, "duration": 2, "velocity": 73}, {"time": 609, "pitch": 62, "duration": 3, "velocity": 79}, {"time": 615, "pitch": 50, "duration": 10, "velocity": 84}, {"time": 615, "pitch": 57, "duration": 6, "velocity": 80}, {"time": 615, "pitch": 62, "duration": 6, "velocity": 82}, {"time": 624, "pitch": 57, "duration": 3, "velocity": 81}, {"time": 624, "pitch": 65, "duration": 3, "velocity": 80}, {"time": 630, "pitch": 50, "duration": 3, "velocity": 60}, {"time": 633, "pitch": 57, "duration": 3, "velocity": 80}, {"time": 633, "pitch": 62, "duration": 2, "velocity": 82}, {"time": 639, "pitch": 43, "duration": 21, "velocity": 81}, {"time": 639, "pitch": 55, "duration": 5, "velocity": 75}, {"time": 639, "pitch": 58, "duration": 5, "velocity": 79}, {"time": 645, "pitch": 50, "duration": 4, "velocity": 71}, {"time": 651, "pitch": 50, "duration": 7, "velocity": 67}, {"time": 651, "pitch": 55, "duration": 2, "velocity": 75}, {"time": 651, "pitch": 58, "duration": 3, "velocity": 80}, {"time": 651, "pitch": 62, "duration": 3, "velocity": 80}, {"time": 657, "pitch": 55, "duration": 3, "velocity": 79}, {"time": 657, "pitch": 58, "duration": 4, "velocity": 81}, {"time": 657, "pitch": 67, "duration": 3, "velocity": 78}, {"time": 660, "pitch": 62, "duration": 3, "velocity": 81}, {"time": 663, "pitch": 39, "duration": 8, "velocity": 83}, {"time": 663, "pitch": 55, "duration": 6, "velocity": 73}, {"time": 663, "pitch": 58, "duration": 6, "velocity": 75}, {"time": 672, "pitch": 58, "duration": 3, "velocity": 82}, {"time": 672, "pitch": 63, "duration": 4, "velocity": 79}, {"time": 675, "pitch": 55, "duration": 3, "velocity": 80}, {"time": 681, "pitch": 55, "duration": 3, "velocity": 79}, {"time": 681, "pitch": 58, "duration": 2, "velocity": 77}, {"time": 681, "pitch": 63, "duration": 3, "velocity": 72}, {"time": 687, "pitch": 38, "duration": 12, "velocity": 80}, {"time": 687, "pitch": 57, "duration": 7, "velocity": 79}, {"time": 687, "pitch": 62, "duration": 6, "velocity": 77}, {"time": 693, "pitch": 45, "duration": 4, "velocity": 58}, {"time": 699, "pitch": 57, "duration": 3, "velocity": 81}, {"time": 699, "pitch": 62, "duration": 3, "velocity": 83}, {"time": 699, "pitch": 65, "duration": 3, "velocity": 81}, {"time": 705, "pitch": 65, "duration": 2, "velocity": 79}, {"time": 708, "pitch": 57, "duration": 3, "velocity": 80}, {"time": 708, "pitch": 62, "duration": 2, "velocity": 79}, {"time": 711, "pitch": 43, "duration": 14, "velocity": 80}, {"time": 711, "pitch": 58, "duration": 6, "velocity": 71}, {"time": 711, "pitch": 55, "duration": 6, "velocity": 73}, {"time": 717, "pitch": 50, "duration": 3, "velocity": 66}, {"time": 720, "pitch": 58, "duration": 5, "velocity": 81}, {"time": 720, "pitch": 62, "duration": 5, "velocity": 80}, {"time": 720, "pitch": 55, "duration": 4, "velocity": 80}, {"time": 729, "pitch": 55, "duration": 5, "velocity": 76}, {"time": 729, "pitch": 58, "duration": 5, "velocity": 73}, {"time": 729, "pitch": 43, "duration": 5, "velocity": 80}, {"time": 729, "pitch": 50, "duration": 5, "velocity": 79}, {"time": 735, "pitch": 43, "duration": 9, "velocity": 81}, {"time": 735, "pitch": 58, "duration": 8, "velocity": 74}, {"time": 735, "pitch": 55, "duration": 7, "velocity": 79}, {"time": 747, "pitch": 58, "duration": 3, "velocity": 75}, {"time": 747, "pitch": 55, "duration": 3, "velocity": 80}, {"time": 747, "pitch": 50, "duration": 3, "velocity": 80}, {"time": 747, "pitch": 43, "duration": 3, "velocity": 81}, {"time": 753, "pitch": 43, "duration": 4, "velocity": 78}, {"time": 753, "pitch": 55, "duration": 3, "velocity": 77}, {"time": 759, "pitch": 43, "duration": 14, "velocity": 79}, {"time": 759, "pitch": 55, "duration": 4, "velocity": 76}, {"time": 759, "pitch": 58, "duration": 4, "velocity": 73}, {"time": 771, "pitch": 55, "duration": 2, "velocity": 79}, {"time": 771, "pitch": 58, "duration": 2, "velocity": 81}, {"time": 771, "pitch": 62, "duration": 2, "velocity": 81}, {"time": 780, "pitch": 55, "duration": 3, "velocity": 71}, {"time": 780, "pitch": 58, "duration": 3, "velocity": 75}, {"time": 783, "pitch": 43, "duration": 21, "velocity": 79}, {"time": 789, "pitch": 55, "duration": 2, "velocity": 73}, {"time": 789, "pitch": 58, "duration": 2, "velocity": 80}, {"time": 795, "pitch": 55, "duration": 3, "velocity": 75}, {"time": 795, "pitch": 62, "duration": 3, "velocity": 81}, {"time": 807, "pitch": 43, "duration": 13, "velocity": 71}, {"time": 807, "pitch": 55, "duration": 4, "velocity": 75}, {"time": 807, "pitch": 58, "duration": 4, "velocity": 75}, {"time": 819, "pitch": 55, "duration": 2, "velocity": 74}, {"time": 819, "pitch": 58, "duration": 2, "velocity": 79}, {"time": 819, "pitch": 62, "duration": 2, "velocity": 77}, {"time": 828, "pitch": 55, "duration": 2, "velocity": 72}, {"time": 828, "pitch": 58, "duration": 2, "velocity": 75}, {"time": 828, "pitch": 62, "duration": 2, "velocity": 73}, {"time": 831, "pitch": 43, "duration": 2, "velocity": 77}, {"time": 834, "pitch": 55, "duration": 2, "velocity": 75}, {"time": 834, "pitch": 58, "duration": 2, "velocity": 81}, {"time": 834, "pitch": 62, "duration": 2, "velocity": 78}, {"time": 837, "pitch": 43, "duration": 3, "velocity": 70}, {"time": 843, "pitch": 55, "duration": 4, "velocity": 78}, {"time": 843, "pitch": 58, "duration": 3, "velocity": 79}, {"time": 843, "pitch": 62, "duration": 4, "velocity": 80}, {"time": 855, "pitch": 50, "duration": 13, "velocity": 75}, {"time": 855, "pitch": 57, "duration": 8, "velocity": 75}, {"time": 855, "pitch": 62, "duration": 8, "velocity": 80}, {"time": 867, "pitch": 57, "duration": 3, "velocity": 79}, {"time": 867, "pitch": 62, "duration": 3, "velocity": 80}, {"time": 867, "pitch": 65, "duration": 3, "velocity": 78}, {"time": 876, "pitch": 57, "duration": 2, "velocity": 73}, {"time": 876, "pitch": 62, "duration": 1, "velocity": 67}, {"time": 876, "pitch": 65, "duration": 1, "velocity": 67}, {"time": 879, "pitch": 43, "duration": 9, "velocity": 79}, {"time": 885, "pitch": 55, "duration": 3, "velocity": 70}, {"time": 885, "pitch": 58, "duration": 3, "velocity": 67}, {"time": 885, "pitch": 62, "duration": 4, "velocity": 76}, {"time": 891, "pitch": 50, "duration": 3, "velocity": 72}, {"time": 891, "pitch": 55, "duration": 3, "velocity": 75}, {"time": 891, "pitch": 58, "duration": 3, "velocity": 75}, {"time": 891, "pitch": 62, "duration": 3, "velocity": 75}, {"time": 897, "pitch": 55, "duration": 3, "velocity": 69}, {"time": 903, "pitch": 46, "duration": 7, "velocity": 79}, {"time": 903, "pitch": 53, "duration": 5, "velocity": 79}, {"time": 903, "pitch": 58, "duration": 6, "velocity": 67}, {"time": 915, "pitch": 53, "duration": 4, "velocity": 78}, {"time": 915, "pitch": 58, "duration": 5, "velocity": 80}, {"time": 915, "pitch": 62, "duration": 5, "velocity": 79}, {"time": 927, "pitch": 48, "duration": 3, "velocity": 73}, {"time": 927, "pitch": 55, "duration": 4, "velocity": 73}, {"time": 927, "pitch": 60, "duration": 7, "velocity": 76}, {"time": 936, "pitch": 55, "duration": 3, "velocity": 80}, {"time": 936, "pitch": 60, "duration": 3, "velocity": 79}, {"time": 939, "pitch": 48, "duration": 3, "velocity": 77}, {"time": 945, "pitch": 55, "duration": 2, "velocity": 75}, {"time": 945, "pitch": 60, "duration": 2, "velocity": 76}, {"time": 951, "pitch": 46, "duration": 3, "velocity": 75}, {"time": 951, "pitch": 53, "duration": 5, "velocity": 78}, {"time": 951, "pitch": 58, "duration": 5, "velocity": 69}, {"time": 960, "pitch": 53, "duration": 3, "velocity": 73}, {"time": 960, "pitch": 58, "duration": 3, "velocity": 70}, {"time": 960, "pitch": 62, "duration": 3, "velocity": 77}, {"time": 963, "pitch": 46, "duration": 2, "velocity": 73}, {"time": 969, "pitch": 53, "duration": 2, "velocity": 78}, {"time": 969, "pitch": 58, "duration": 2, "velocity": 75}, {"time": 969, "pitch": 62, "duration": 3, "velocity": 76}, {"time": 975, "pitch": 50, "duration": 2, "velocity": 77}, {"time": 975, "pitch": 57, "duration": 6, "velocity": 75}, {"time": 975, "pitch": 62, "duration": 6, "velocity": 80}, {"time": 984, "pitch": 57, "duration": 3, "velocity": 79}, {"time": 984, "pitch": 62, "duration": 3, "velocity": 81}, {"time": 984, "pitch": 65, "duration": 4, "velocity": 76}, {"time": 993, "pitch": 57, "duration": 2, "velocity": 75}, {"time": 993, "pitch": 62, "duration": 2, "velocity": 71}, {"time": 993, "pitch": 65, "duration": 2, "velocity": 72}, {"time": 999, "pitch": 39, "duration": 3, "velocity": 73}, {"time": 999, "pitch": 55, "duration": 6, "velocity": 74}, {"time": 999, "pitch": 58, "duration": 5, "velocity": 80}, {"time": 999, "pitch": 63, "duration": 5, "velocity": 68}, {"time": 1008, "pitch": 55, "duration": 3, "velocity": 79}, {"time": 1008, "pitch": 58, "duration": 2, "velocity": 83}, {"time": 1008, "pitch": 63, "duration": 3, "velocity": 81}, {"time": 1017, "pitch": 55, "duration": 3, "velocity": 76}, {"time": 1017, "pitch": 58, "duration": 2, "velocity": 71}, {"time": 1017, "pitch": 63, "duration": 2, "velocity": 68}, {"time": 1023, "pitch": 41, "duration": 4, "velocity": 76}, {"time": 1023, "pitch": 53, "duration": 4, "velocity": 71}, {"time": 1023, "pitch": 57, "duration": 4, "velocity": 70}, {"time": 1032, "pitch": 53, "duration": 2, "velocity": 74}, {"time": 1032, "pitch": 57, "duration": 2, "velocity": 69}, {"time": 1032, "pitch": 60, "duration": 3, "velocity": 77}, {"time": 1041, "pitch": 53, "duration": 2, "velocity": 80}, {"time": 1041, "pitch": 57, "duration": 2, "velocity": 75}, {"time": 1041, "pitch": 60, "duration": 3, "velocity": 79}, {"time": 1047, "pitch": 43, "duration": 9, "velocity": 75}, {"time": 1047, "pitch": 55, "duration": 6, "velocity": 73}, {"time": 1047, "pitch": 58, "duration": 6, "velocity": 79}, {"time": 1056, "pitch": 55, "duration": 2, "velocity": 76}, {"time": 1056, "pitch": 58, "duration": 2, "velocity": 78}, {"time": 1056, "pitch": 62, "duration": 2, "velocity": 76}, {"time": 1065, "pitch": 55, "duration": 2, "velocity": 75}, {"time": 1065, "pitch": 58, "duration": 2, "velocity": 75}, {"time": 1065, "pitch": 62, "duration": 2, "velocity": 77}, {"time": 1071, "pitch": 43, "duration": 9, "velocity": 75}, {"time": 1071, "pitch": 55, "duration": 3, "velocity": 74}, {"time": 1071, "pitch": 58, "duration": 3, "velocity": 72}, {"time": 1071, "pitch": 62, "duration": 3, "velocity": 73}, {"time": 1080, "pitch": 55, "duration": 2, "velocity": 73}, {"time": 1080, "pitch": 62, "duration": 2, "velocity": 74}, {"time": 1083, "pitch": 50, "duration": 1, "velocity": 61}, {"time": 1089, "pitch": 55, "duration": 3, "velocity": 75}, {"time": 1089, "pitch": 58, "duration": 3, "velocity": 74}, {"time": 1095, "pitch": 46, "duration": 3, "velocity": 81}, {"time": 1095, "pitch": 53, "duration": 6, "velocity": 76}, {"time": 1095, "pitch": 58, "duration": 7, "velocity": 71}, {"time": 1104, "pitch": 53, "duration": 3, "velocity": 79}, {"time": 1104, "pitch": 58, "duration": 3, "velocity": 83}, {"time": 1104, "pitch": 62, "duration": 4, "velocity": 80}, {"time": 1113, "pitch": 53, "duration": 3, "velocity": 78}, {"time": 1113, "pitch": 58, "duration": 2, "velocity": 65}, {"time": 1113, "pitch": 62, "duration": 4, "velocity": 79}, {"time": 1119, "pitch": 41, "duration": 21, "velocity": 76}, {"time": 1119, "pitch": 53, "duration": 4, "velocity": 73}, {"time": 1119, "pitch": 57, "duration": 6, "velocity": 69}, {"time": 1128, "pitch": 53, "duration": 3, "velocity": 80}, {"time": 1128, "pitch": 60, "duration": 3, "velocity": 79}, {"time": 1131, "pitch": 48, "duration": 5, "velocity": 66}, {"time": 1137, "pitch": 53, "duration": 3, "velocity": 77}, {"time": 1137, "pitch": 65, "duration": 3, "velocity": 80}, {"time": 1143, "pitch": 41, "duration": 10, "velocity": 80}, {"time": 1143, "pitch": 53, "duration": 6, "velocity": 75}, {"time": 1143, "pitch": 57, "duration": 5, "velocity": 71}, {"time": 1143, "pitch": 60, "duration": 6, "velocity": 75}, {"time": 1152, "pitch": 53, "duration": 4, "velocity": 83}, {"time": 1152, "pitch": 65, "duration": 4, "velocity": 76}, {"time": 1155, "pitch": 41, "duration": 2, "velocity": 45}, {"time": 1155, "pitch": 48, "duration": 2, "velocity": 67}, {"time": 1161, "pitch": 53, "duration": 2, "velocity": 77}, {"time": 1161, "pitch": 57, "duration": 2, "velocity": 75}, {"time": 1161, "pitch": 60, "duration": 2, "velocity": 79}, {"time": 1167, "pitch": 46, "duration": 9, "velocity": 79}, {"time": 1167, "pitch": 58, "duration": 4, "velocity": 73}, {"time": 1167, "pitch": 62, "duration": 5, "velocity": 67}, {"time": 1173, "pitch": 53, "duration": 2, "velocity": 35}, {"time": 1176, "pitch": 58, "duration": 2, "velocity": 81}, {"time": 1176, "pitch": 65, "duration": 3, "velocity": 82}, {"time": 1179, "pitch": 53, "duration": 2, "velocity": 51}, {"time": 1185, "pitch": 58, "duration": 2, "velocity": 79}, {"time": 1185, "pitch": 62, "duration": 3, "velocity": 80}, {"time": 1191, "pitch": 46, "duration": 7, "velocity": 79}, {"time": 1191, "pitch": 58, "duration": 6, "velocity": 72}, {"time": 1191, "pitch": 62, "duration": 6, "velocity": 74}, {"time": 1197, "pitch": 53, "duration": 2, "velocity": 48}, {"time": 1200, "pitch": 58, "duration": 2, "velocity": 71}, {"time": 1200, "pitch": 62, "duration": 2, "velocity": 75}, {"time": 1200, "pitch": 65, "duration": 4, "velocity": 76}, {"time": 1203, "pitch": 53, "duration": 2, "velocity": 60}, {"time": 1209, "pitch": 58, "duration": 6, "velocity": 80}, {"time": 1209, "pitch": 62, "duration": 6, "velocity": 80}, {"time": 1215, "pitch": 46, "duration": 3, "velocity": 80}, {"time": 1215, "pitch": 53, "duration": 3, "velocity": 75}, {"time": 1215, "pitch": 58, "duration": 6, "velocity": 74}, {"time": 1221, "pitch": 53, "duration": 2, "velocity": 66}, {"time": 1227, "pitch": 41, "duration": 6, "velocity": 80}, {"time": 1227, "pitch": 53, "duration": 3, "velocity": 81}, {"time": 1227, "pitch": 57, "duration": 4, "velocity": 88}, {"time": 1233, "pitch": 53, "duration": 3, "velocity": 69}, {"time": 1239, "pitch": 46, "duration": 2, "velocity": 83}, {"time": 1239, "pitch": 53, "duration": 2, "velocity": 80}, {"time": 1239, "pitch": 58, "duration": 2, "velocity": 79}, {"time": 1239, "pitch": 62, "duration": 3, "velocity": 79}, {"time": 1245, "pitch": 46, "duration": 2, "velocity": 76}, {"time": 1245, "pitch": 53, "duration": 2, "velocity": 79}, {"time": 1245, "pitch": 58, "duration": 3, "velocity": 81}, {"time": 1245, "pitch": 62, "duration": 3, "velocity": 81}, {"time": 1251, "pitch": 46, "duration": 11, "velocity": 79}, {"time": 1251, "pitch": 53, "duration": 9, "velocity": 80}, {"time": 1251, "pitch": 58, "duration": 10, "velocity": 81}, {"time": 1251, "pitch": 62, "duration": 10, "velocity": 83}, {"time": 1263, "pitch": 43, "duration": 14, "velocity": 79}, {"time": 1263, "pitch": 55, "duration": 4, "velocity": 76}, {"time": 1263, "pitch": 58, "duration": 4, "velocity": 73}, {"time": 1275, "pitch": 55, "duration": 2, "velocity": 79}, {"time": 1275, "pitch": 58, "duration": 2, "velocity": 81}, {"time": 1275, "pitch": 62, "duration": 2, "velocity": 81}, {"time": 1284, "pitch": 55, "duration": 3, "velocity": 71}, {"time": 1284, "pitch": 58, "duration": 3, "velocity": 75}, {"time": 1287, "pitch": 43, "duration": 21, "velocity": 79}, {"time": 1293, "pitch": 55, "duration": 2, "velocity": 73}, {"time": 1293, "pitch": 58, "duration": 2, "velocity": 80}, {"time": 1299, "pitch": 55, "duration": 3, "velocity": 75}, {"time": 1299, "pitch": 62, "duration": 3, "velocity": 81}, {"time": 1311, "pitch": 43, "duration": 13, "velocity": 71}, {"time": 1311, "pitch": 55, "duration": 4, "velocity": 75}, {"time": 1311, "pitch": 58, "duration": 4, "velocity": 75}, {"time": 1323, "pitch": 55, "duration": 2, "velocity": 74}, {"time": 1323, "pitch": 58, "duration": 2, "velocity": 79}, {"time": 1323, "pitch": 62, "duration": 2, "velocity": 77}, {"time": 1332, "pitch": 55, "duration": 2, "velocity": 72}, {"time": 1332, "pitch": 58, "duration": 2, "velocity": 75}, {"time": 1332, "pitch": 62, "duration": 2, "velocity": 73}, {"time": 1335, "pitch": 43, "duration": 2, "velocity": 77}, {"time": 1338, "pitch": 55, "duration": 2, "velocity": 75}, {"time": 1338, "pitch": 58, "duration": 2, "velocity": 81}, {"time": 1338, "pitch": 62, "duration": 2, "velocity": 78}, {"time": 1341, "pitch": 43, "duration": 3, "velocity": 70}, {"time": 1347, "pitch": 55, "duration": 4, "velocity": 78}, {"time": 1347, "pitch": 58, "duration": 3, "velocity": 79}, {"time": 1347, "pitch": 62, "duration": 4, "velocity": 80}, {"time": 1359, "pitch": 50, "duration": 13, "velocity": 75}, {"time": 1359, "pitch": 57, "duration": 8, "velocity": 75}, {"time": 1359, "pitch": 62, "duration": 8, "velocity": 80}, {"time": 1371, "pitch": 57, "duration": 3, "velocity": 79}, {"time": 1371, "pitch": 62, "duration": 3, "velocity": 80}, {"time": 1371, "pitch": 65, "duration": 3, "velocity": 78}, {"time": 1380, "pitch": 57, "duration": 2, "velocity": 73}, {"time": 1380, "pitch": 62, "duration": 1, "velocity": 67}, {"time": 1380, "pitch": 65, "duration": 1, "velocity": 67}, {"time": 1383, "pitch": 43, "duration": 9, "velocity": 79}, {"time": 1389, "pitch": 55, "duration": 3, "velocity": 70}, {"time": 1389, "pitch": 58, "duration": 3, "velocity": 67}, {"time": 1389, "pitch": 62, "duration": 4, "velocity": 76}, {"time": 1395, "pitch": 50, "duration": 3, "velocity": 72}, {"time": 1395, "pitch": 55, "duration": 3, "velocity": 75}, {"time": 1395, "pitch": 58, "duration": 3, "velocity": 75}, {"time": 1395, "pitch": 62, "duration": 3, "velocity": 75}, {"time": 1401, "pitch": 55, "duration": 3, "velocity": 69}, {"time": 1407, "pitch": 46, "duration": 7, "velocity": 79}, {"time": 1407, "pitch": 53, "duration": 5, "velocity": 79}, {"time": 1407, "pitch": 58, "duration": 6, "velocity": 67}, {"time": 1419, "pitch": 53, "duration": 4, "velocity": 78}, {"time": 1419, "pitch": 58, "duration": 5, "velocity": 80}, {"time": 1419, "pitch": 62, "duration": 5, "velocity": 79}, {"time": 1431, "pitch": 48, "duration": 3, "velocity": 73}, {"time": 1431, "pitch": 55, "duration": 4, "velocity": 73}, {"time": 1431, "pitch": 60, "duration": 7, "velocity": 76}, {"time": 1440, "pitch": 55, "duration": 3, "velocity": 80}, {"time": 1440, "pitch": 60, "duration": 3, "velocity": 79}, {"time": 1443, "pitch": 48, "duration": 3, "velocity": 77}, {"time": 1449, "pitch": 55, "duration": 2, "velocity": 75}, {"time": 1449, "pitch": 60, "duration": 2, "velocity": 76}, {"time": 1455, "pitch": 46, "duration": 3, "velocity": 75}, {"time": 1455, "pitch": 53, "duration": 5, "velocity": 78}, {"time": 1455, "pitch": 58, "duration": 5, "velocity": 69}, {"time": 1464, "pitch": 53, "duration": 3, "velocity": 73}, {"time": 1464, "pitch": 58, "duration": 3, "velocity": 70}, {"time": 1464, "pitch": 62, "duration": 3, "velocity": 77}, {"time": 1467, "pitch": 46, "duration": 2, "velocity": 73}, {"time": 1473, "pitch": 53, "duration": 2, "velocity": 78}, {"time": 1473, "pitch": 58, "duration": 2, "velocity": 75}, {"time": 1473, "pitch": 62, "duration": 3, "velocity": 76}, {"time": 1479, "pitch": 50, "duration": 2, "velocity": 77}, {"time": 1479, "pitch": 57, "duration": 6, "velocity": 75}, {"time": 1479, "pitch": 62, "duration": 6, "velocity": 80}, {"time": 1488, "pitch": 57, "duration": 3, "velocity": 79}, {"time": 1488, "pitch": 62, "duration": 3, "velocity": 81}, {"time": 1488, "pitch": 65, "duration": 4, "velocity": 76}, {"time": 1497, "pitch": 57, "duration": 2, "velocity": 75}, {"time": 1497, "pitch": 62, "duration": 2, "velocity": 71}, {"time": 1497, "pitch": 65, "duration": 2, "velocity": 72}, {"time": 1503, "pitch": 39, "duration": 3, "velocity": 73}, {"time": 1503, "pitch": 55, "duration": 6, "velocity": 74}, {"time": 1503, "pitch": 58, "duration": 5, "velocity": 80}, {"time": 1503, "pitch": 63, "duration": 5, "velocity": 68}, {"time": 1512, "pitch": 55, "duration": 3, "velocity": 79}, {"time": 1512, "pitch": 58, "duration": 2, "velocity": 83}, {"time": 1512, "pitch": 63, "duration": 3, "velocity": 81}, {"time": 1521, "pitch": 55, "duration": 3, "velocity": 76}, {"time": 1521, "pitch": 58, "duration": 2, "velocity": 71}, {"time": 1521, "pitch": 63, "duration": 2, "velocity": 68}, {"time": 1527, "pitch": 41, "duration": 4, "velocity": 76}, {"time": 1527, "pitch": 53, "duration": 4, "velocity": 71}, {"time": 1527, "pitch": 57, "duration": 4, "velocity": 70}, {"time": 1536, "pitch": 53, "duration": 2, "velocity": 74}, {"time": 1536, "pitch": 57, "duration": 2, "velocity": 69}, {"time": 1536, "pitch": 60, "duration": 3, "velocity": 77}, {"time": 1545, "pitch": 53, "duration": 2, "velocity": 80}, {"time": 1545, "pitch": 57, "duration": 2, "velocity": 75}, {"time": 1545, "pitch": 60, "duration": 3, "velocity": 79}, {"time": 1551, "pitch": 43, "duration": 9, "velocity": 75}, {"time": 1551, "pitch": 55, "duration": 6, "velocity": 73}, {"time": 1551, "pitch": 58, "duration": 6, "velocity": 79}, {"time": 1560, "pitch": 55, "duration": 2, "velocity": 76}, {"time": 1560, "pitch": 58, "duration": 2, "velocity": 78}, {"time": 1560, "pitch": 62, "duration": 2, "velocity": 76}, {"time": 1569, "pitch": 55, "duration": 2, "velocity": 75}, {"time": 1569, "pitch": 58, "duration": 2, "velocity": 75}, {"time": 1569, "pitch": 62, "duration": 2, "velocity": 77}, {"time": 1575, "pitch": 43, "duration": 9, "velocity": 75}, {"time": 1575, "pitch": 55, "duration": 3, "velocity": 74}, {"time": 1575, "pitch": 58, "duration": 3, "velocity": 72}, {"time": 1575, "pitch": 62, "duration": 3, "velocity": 73}, {"time": 1584, "pitch": 55, "duration": 2, "velocity": 73}, {"time": 1584, "pitch": 62, "duration": 2, "velocity": 74}, {"time": 1587, "pitch": 50, "duration": 1, "velocity": 61}, {"time": 1593, "pitch": 55, "duration": 3, "velocity": 75}, {"time": 1593, "pitch": 58, "duration": 3, "velocity": 74}, {"time": 1599, "pitch": 46, "duration": 3, "velocity": 81}, {"time": 1599, "pitch": 53, "duration": 6, "velocity": 76}, {"time": 1599, "pitch": 58, "duration": 7, "velocity": 71}, {"time": 1608, "pitch": 53, "duration": 3, "velocity": 79}, {"time": 1608, "pitch": 58, "duration": 3, "velocity": 83}, {"time": 1608, "pitch": 62, "duration": 4, "velocity": 80}, {"time": 1617, "pitch": 53, "duration": 3, "velocity": 78}, {"time": 1617, "pitch": 58, "duration": 2, "velocity": 65}, {"time": 1617, "pitch": 62, "duration": 4, "velocity": 79}, {"time": 1623, "pitch": 41, "duration": 21, "velocity": 76}, {"time": 1623, "pitch": 53, "duration": 4, "velocity": 73}, {"time": 1623, "pitch": 57, "duration": 6, "velocity": 69}, {"time": 1632, "pitch": 53, "duration": 3, "velocity": 80}, {"time": 1632, "pitch": 60, "duration": 3, "velocity": 79}, {"time": 1635, "pitch": 48, "duration": 5, "velocity": 66}, {"time": 1641, "pitch": 53, "duration": 3, "velocity": 77}, {"time": 1641, "pitch": 65, "duration": 3, "velocity": 80}, {"time": 1647, "pitch": 41, "duration": 10, "velocity": 80}, {"time": 1647, "pitch": 53, "duration": 6, "velocity": 75}, {"time": 1647, "pitch": 57, "duration": 5, "velocity": 71}, {"time": 1647, "pitch": 60, "duration": 6, "velocity": 75}, {"time": 1656, "pitch": 53, "duration": 4, "velocity": 83}, {"time": 1656, "pitch": 65, "duration": 4, "velocity": 76}, {"time": 1659, "pitch": 41, "duration": 2, "velocity": 45}, {"time": 1659, "pitch": 48, "duration": 2, "velocity": 67}, {"time": 1665, "pitch": 53, "duration": 2, "velocity": 77}, {"time": 1665, "pitch": 57, "duration": 2, "velocity": 75}, {"time": 1665, "pitch": 60, "duration": 2, "velocity": 79}, {"time": 1671, "pitch": 46, "duration": 9, "velocity": 79}, {"time": 1671, "pitch": 58, "duration": 4, "velocity": 73}, {"time": 1671, "pitch": 62, "duration": 5, "velocity": 67}, {"time": 1677, "pitch": 53, "duration": 2, "velocity": 35}, {"time": 1680, "pitch": 58, "duration": 2, "velocity": 81}, {"time": 1680, "pitch": 65, "duration": 3, "velocity": 82}, {"time": 1683, "pitch": 53, "duration": 2, "velocity": 51}, {"time": 1689, "pitch": 58, "duration": 2, "velocity": 79}, {"time": 1689, "pitch": 62, "duration": 3, "velocity": 80}, {"time": 1695, "pitch": 46, "duration": 7, "velocity": 79}, {"time": 1695, "pitch": 58, "duration": 6, "velocity": 72}, {"time": 1695, "pitch": 62, "duration": 6, "velocity": 74}, {"time": 1701, "pitch": 53, "duration": 2, "velocity": 48}, {"time": 1704, "pitch": 58, "duration": 2, "velocity": 71}, {"time": 1704, "pitch": 62, "duration": 2, "velocity": 75}, {"time": 1704, "pitch": 65, "duration": 4, "velocity": 76}, {"time": 1707, "pitch": 53, "duration": 2, "velocity": 60}, {"time": 1713, "pitch": 58, "duration": 6, "velocity": 80}, {"time": 1713, "pitch": 62, "duration": 6, "velocity": 80}, {"time": 1719, "pitch": 46, "duration": 8, "velocity": 79}, {"time": 1719, "pitch": 58, "duration": 5, "velocity": 77}, {"time": 1719, "pitch": 62, "duration": 6, "velocity": 77}, {"time": 1728, "pitch": 58, "duration": 2, "velocity": 80}, {"time": 1728, "pitch": 62, "duration": 2, "velocity": 77}, {"time": 1728, "pitch": 65, "duration": 3, "velocity": 76}, {"time": 1731, "pitch": 53, "duration": 2, "velocity": 66}, {"time": 1737, "pitch": 58, "duration": 2, "velocity": 81}, {"time": 1737, "pitch": 62, "duration": 2, "velocity": 80}, {"time": 1743, "pitch": 43, "duration": 21, "velocity": 80}, {"time": 1743, "pitch": 55, "duration": 5, "velocity": 74}, {"time": 1743, "pitch": 58, "duration": 5, "velocity": 73}, {"time": 1749, "pitch": 50, "duration": 3, "velocity": 64}, {"time": 1752, "pitch": 58, "duration": 3, "velocity": 75}, {"time": 1752, "pitch": 62, "duration": 4, "velocity": 76}, {"time": 1755, "pitch": 50, "duration": 8, "velocity": 65}, {"time": 1755, "pitch": 55, "duration": 3, "velocity": 74}, {"time": 1761, "pitch": 55, "duration": 2, "velocity": 74}, {"time": 1761, "pitch": 58, "duration": 2, "velocity": 73}, {"time": 1761, "pitch": 62, "duration": 3, "velocity": 79}, {"time": 1767, "pitch": 50, "duration": 10, "velocity": 84}, {"time": 1767, "pitch": 57, "duration": 6, "velocity": 80}, {"time": 1767, "pitch": 62, "duration": 6, "velocity": 82}, {"time": 1776, "pitch": 57, "duration": 3, "velocity": 81}, {"time": 1776, "pitch": 65, "duration": 3, "velocity": 80}, {"time": 1782, "pitch": 50, "duration": 3, "velocity": 60}, {"time": 1785, "pitch": 57, "duration": 3, "velocity": 80}, {"time": 1785, "pitch": 62, "duration": 2, "velocity": 82}, {"time": 1791, "pitch": 43, "duration": 21, "velocity": 81}, {"time": 1791, "pitch": 55, "duration": 5, "velocity": 75}, {"time": 1791, "pitch": 58, "duration": 5, "velocity": 79}, {"time": 1797, "pitch": 50, "duration": 4, "velocity": 71}, {"time": 1803, "pitch": 50, "duration": 7, "velocity": 67}, {"time": 1803, "pitch": 55, "duration": 2, "velocity": 75}, {"time": 1803, "pitch": 58, "duration": 3, "velocity": 80}, {"time": 1803, "pitch": 62, "duration": 3, "velocity": 80}, {"time": 1809, "pitch": 55, "duration": 3, "velocity": 79}, {"time": 1809, "pitch": 58, "duration": 4, "velocity": 81}, {"time": 1809, "pitch": 67, "duration": 3, "velocity": 78}, {"time": 1812, "pitch": 62, "duration": 3, "velocity": 81}, {"time": 1815, "pitch": 39, "duration": 8, "velocity": 83}, {"time": 1815, "pitch": 55, "duration": 6, "velocity": 73}, {"time": 1815, "pitch": 58, "duration": 6, "velocity": 75}, {"time": 1824, "pitch": 58, "duration": 3, "velocity": 82}, {"time": 1824, "pitch": 63, "duration": 4, "velocity": 79}, {"time": 1827, "pitch": 55, "duration": 3, "velocity": 80}, {"time": 1833, "pitch": 55, "duration": 3, "velocity": 79}, {"time": 1833, "pitch": 58, "duration": 2, "velocity": 77}, {"time": 1833, "pitch": 63, "duration": 3, "velocity": 72}, {"time": 1839, "pitch": 38, "duration": 12, "velocity": 80}, {"time": 1839, "pitch": 57, "duration": 7, "velocity": 79}, {"time": 1839, "pitch": 62, "duration": 6, "velocity": 77}, {"time": 1845, "pitch": 45, "duration": 4, "velocity": 58}, {"time": 1851, "pitch": 57, "duration": 3, "velocity": 81}, {"time": 1851, "pitch": 62, "duration": 3, "velocity": 83}, {"time": 1851, "pitch": 65, "duration": 3, "velocity": 81}, {"time": 1857, "pitch": 65, "duration": 2, "velocity": 79}, {"time": 1860, "pitch": 57, "duration": 3, "velocity": 80}, {"time": 1860, "pitch": 62, "duration": 2, "velocity": 79}, {"time": 1863, "pitch": 43, "duration": 14, "velocity": 80}, {"time": 1863, "pitch": 58, "duration": 6, "velocity": 71}, {"time": 1863, "pitch": 55, "duration": 6, "velocity": 73}, {"time": 1869, "pitch": 50, "duration": 3, "velocity": 66}, {"time": 1872, "pitch": 58, "duration": 5, "velocity": 81}, {"time": 1872, "pitch": 62, "duration": 5, "velocity": 80}, {"time": 1872, "pitch": 55, "duration": 4, "velocity": 80}, {"time": 1881, "pitch": 55, "duration": 5, "velocity": 76}, {"time": 1881, "pitch": 58, "duration": 5, "velocity": 73}, {"time": 1881, "pitch": 43, "duration": 5, "velocity": 80}, {"time": 1881, "pitch": 50, "duration": 5, "velocity": 79}, {"time": 1887, "pitch": 43, "duration": 9, "velocity": 81}, {"time": 1887, "pitch": 58, "duration": 8, "velocity": 74}, {"time": 1887, "pitch": 55, "duration": 7, "velocity": 79}, {"time": 1899, "pitch": 58, "duration": 3, "velocity": 75}, {"time": 1899, "pitch": 55, "duration": 3, "velocity": 80}, {"time": 1899, "pitch": 50, "duration": 3, "velocity": 80}, {"time": 1899, "pitch": 43, "duration": 3, "velocity": 81}, {"time": 1905, "pitch": 43, "duration": 4, "velocity": 78}, {"time": 1905, "pitch": 55, "duration": 3, "velocity": 77}, {"time": 1911, "pitch": 43, "duration": 14, "velocity": 79}, {"time": 1911, "pitch": 55, "duration": 4, "velocity": 76}, {"time": 1911, "pitch": 58, "duration": 4, "velocity": 73}, {"time": 1923, "pitch": 55, "duration": 2, "velocity": 79}, {"time": 1923, "pitch": 58, "duration": 2, "velocity": 81}, {"time": 1923, "pitch": 62, "duration": 2, "velocity": 81}, {"time": 1932, "pitch": 55, "duration": 3, "velocity": 71}, {"time": 1932, "pitch": 58, "duration": 3, "velocity": 75}, {"time": 1935, "pitch": 43, "duration": 21, "velocity": 79}, {"time": 1941, "pitch": 55, "duration": 2, "velocity": 73}, {"time": 1941, "pitch": 58, "duration": 2, "velocity": 80}, {"time": 1947, "pitch": 55, "duration": 3, "velocity": 75}, {"time": 1947, "pitch": 62, "duration": 3, "velocity": 81}, {"time": 1959, "pitch": 43, "duration": 13, "velocity": 71}, {"time": 1959, "pitch": 55, "duration": 4, "velocity": 75}, {"time": 1959, "pitch": 58, "duration": 4, "velocity": 75}, {"time": 1971, "pitch": 55, "duration": 2, "velocity": 74}, {"time": 1971, "pitch": 58, "duration": 2, "velocity": 79}, {"time": 1971, "pitch": 62, "duration": 2, "velocity": 77}, {"time": 1980, "pitch": 55, "duration": 2, "velocity": 72}, {"time": 1980, "pitch": 58, "duration": 2, "velocity": 75}, {"time": 1980, "pitch": 62, "duration": 2, "velocity": 73}, {"time": 1983, "pitch": 43, "duration": 2, "velocity": 77}, {"time": 1986, "pitch": 55, "duration": 2, "velocity": 75}, {"time": 1986, "pitch": 58, "duration": 2, "velocity": 81}, {"time": 1986, "pitch": 62, "duration": 2, "velocity": 78}, {"time": 1989, "pitch": 43, "duration": 3, "velocity": 70}, {"time": 1995, "pitch": 55, "duration": 4, "velocity": 78}, {"time": 1995, "pitch": 58, "duration": 3, "velocity": 79}, {"time": 1995, "pitch": 62, "duration": 4, "velocity": 80}, {"time": 2007, "pitch": 50, "duration": 13, "velocity": 75}, {"time": 2007, "pitch": 57, "duration": 8, "velocity": 75}, {"time": 2007, "pitch": 62, "duration": 8, "velocity": 80}, {"time": 2019, "pitch": 57, "duration": 3, "velocity": 79}, {"time": 2019, "pitch": 62, "duration": 3, "velocity": 80}, {"time": 2019, "pitch": 65, "duration": 3, "velocity": 78}, {"time": 2028, "pitch": 57, "duration": 2, "velocity": 73}, {"time": 2028, "pitch": 62, "duration": 1, "velocity": 67}, {"time": 2028, "pitch": 65, "duration": 1, "velocity": 67}, {"time": 2031, "pitch": 43, "duration": 9, "velocity": 79}, {"time": 2037, "pitch": 55, "duration": 3, "velocity": 70}, {"time": 2037, "pitch": 58, "duration": 3, "velocity": 67}, {"time": 2037, "pitch": 62, "duration": 4, "velocity": 76}, {"time": 2043, "pitch": 50, "duration": 3, "velocity": 72}, {"time": 2043, "pitch": 55, "duration": 3, "velocity": 75}, {"time": 2043, "pitch": 58, "duration": 3, "velocity": 75}, {"time": 2043, "pitch": 62, "duration": 3, "velocity": 75}, {"time": 2049, "pitch": 55, "duration": 3, "velocity": 69}, {"time": 2055, "pitch": 46, "duration": 7, "velocity": 79}, {"time": 2055, "pitch": 53, "duration": 5, "velocity": 79}, {"time": 2055, "pitch": 58, "duration": 6, "velocity": 67}, {"time": 2067, "pitch": 53, "duration": 4, "velocity": 78}, {"time": 2067, "pitch": 58, "duration": 5, "velocity": 80}, {"time": 2067, "pitch": 62, "duration": 5, "velocity": 79}, {"time": 2079, "pitch": 48, "duration": 3, "velocity": 73}, {"time": 2079, "pitch": 55, "duration": 4, "velocity": 73}, {"time": 2079, "pitch": 60, "duration": 7, "velocity": 76}, {"time": 2088, "pitch": 55, "duration": 3, "velocity": 80}, {"time": 2088, "pitch": 60, "duration": 3, "velocity": 79}, {"time": 2091, "pitch": 48, "duration": 3, "velocity": 77}, {"time": 2097, "pitch": 55, "duration": 2, "velocity": 75}, {"time": 2097, "pitch": 60, "duration": 2, "velocity": 76}, {"time": 2103, "pitch": 46, "duration": 3, "velocity": 75}, {"time": 2103, "pitch": 53, "duration": 5, "velocity": 78}, {"time": 2103, "pitch": 58, "duration": 5, "velocity": 69}, {"time": 2112, "pitch": 53, "duration": 3, "velocity": 73}, {"time": 2112, "pitch": 58, "duration": 3, "velocity": 70}, {"time": 2112, "pitch": 62, "duration": 3, "velocity": 77}, {"time": 2115, "pitch": 46, "duration": 2, "velocity": 73}, {"time": 2121, "pitch": 53, "duration": 2, "velocity": 78}, {"time": 2121, "pitch": 58, "duration": 2, "velocity": 75}, {"time": 2121, "pitch": 62, "duration": 3, "velocity": 76}, {"time": 2127, "pitch": 50, "duration": 2, "velocity": 77}, {"time": 2127, "pitch": 57, "duration": 6, "velocity": 75}, {"time": 2127, "pitch": 62, "duration": 6, "velocity": 80}, {"time": 2136, "pitch": 57, "duration": 3, "velocity": 79}, {"time": 2136, "pitch": 62, "duration": 3, "velocity": 81}, {"time": 2136, "pitch": 65, "duration": 4, "velocity": 76}, {"time": 2145, "pitch": 57, "duration": 2, "velocity": 75}, {"time": 2145, "pitch": 62, "duration": 2, "velocity": 71}, {"time": 2145, "pitch": 65, "duration": 2, "velocity": 72}, {"time": 2151, "pitch": 39, "duration": 3, "velocity": 73}, {"time": 2151, "pitch": 55, "duration": 6, "velocity": 74}, {"time": 2151, "pitch": 58, "duration": 5, "velocity": 80}, {"time": 2151, "pitch": 63, "duration": 5, "velocity": 68}, {"time": 2160, "pitch": 55, "duration": 3, "velocity": 79}, {"time": 2160, "pitch": 58, "duration": 2, "velocity": 83}, {"time": 2160, "pitch": 63, "duration": 3, "velocity": 81}, {"time": 2169, "pitch": 55, "duration": 3, "velocity": 76}, {"time": 2169, "pitch": 58, "duration": 2, "velocity": 71}, {"time": 2169, "pitch": 63, "duration": 2, "velocity": 68}, {"time": 2175, "pitch": 41, "duration": 4, "velocity": 76}, {"time": 2175, "pitch": 53, "duration": 4, "velocity": 71}, {"time": 2175, "pitch": 57, "duration": 4, "velocity": 70}, {"time": 2184, "pitch": 53, "duration": 2, "velocity": 74}, {"time": 2184, "pitch": 57, "duration": 2, "velocity": 69}, {"time": 2184, "pitch": 60, "duration": 3, "velocity": 77}, {"time": 2193, "pitch": 53, "duration": 2, "velocity": 80}, {"time": 2193, "pitch": 57, "duration": 2, "velocity": 75}, {"time": 2193, "pitch": 60, "duration": 3, "velocity": 79}, {"time": 2199, "pitch": 43, "duration": 9, "velocity": 75}, {"time": 2199, "pitch": 55, "duration": 6, "velocity": 73}, {"time": 2199, "pitch": 58, "duration": 6, "velocity": 79}, {"time": 2208, "pitch": 55, "duration": 2, "velocity": 76}, {"time": 2208, "pitch": 58, "duration": 2, "velocity": 78}, {"time": 2208, "pitch": 62, "duration": 2, "velocity": 76}, {"time": 2217, "pitch": 55, "duration": 2, "velocity": 75}, {"time": 2217, "pitch": 58, "duration": 2, "velocity": 75}, {"time": 2217, "pitch": 62, "duration": 2, "velocity": 77}, {"time": 2223, "pitch": 43, "duration": 9, "velocity": 75}, {"time": 2223, "pitch": 55, "duration": 3, "velocity": 74}, {"time": 2223, "pitch": 58, "duration": 3, "velocity": 72}, {"time": 2223, "pitch": 62, "duration": 3, "velocity": 73}, {"time": 2232, "pitch": 55, "duration": 2, "velocity": 73}, {"time": 2232, "pitch": 62, "duration": 2, "velocity": 74}, {"time": 2235, "pitch": 50, "duration": 1, "velocity": 61}, {"time": 2241, "pitch": 55, "duration": 3, "velocity": 75}, {"time": 2241, "pitch": 58, "duration": 3, "velocity": 74}, {"time": 2247, "pitch": 46, "duration": 3, "velocity": 81}, {"time": 2247, "pitch": 53, "duration": 6, "velocity": 76}, {"time": 2247, "pitch": 58, "duration": 7, "velocity": 71}, {"time": 2256, "pitch": 53, "duration": 3, "velocity": 79}, {"time": 2256, "pitch": 58, "duration": 3, "velocity": 83}, {"time": 2256, "pitch": 62, "duration": 4, "velocity": 80}, {"time": 2265, "pitch": 53, "duration": 3, "velocity": 78}, {"time": 2265, "pitch": 58, "duration": 2, "velocity": 65}, {"time": 2265, "pitch": 62, "duration": 4, "velocity": 79}, {"time": 2271, "pitch": 41, "duration": 21, "velocity": 76}, {"time": 2271, "pitch": 53, "duration": 4, "velocity": 73}, {"time": 2271, "pitch": 57, "duration": 6, "velocity": 69}, {"time": 2280, "pitch": 53, "duration": 3, "velocity": 80}, {"time": 2280, "pitch": 60, "duration": 3, "velocity": 79}, {"time": 2283, "pitch": 48, "duration": 5, "velocity": 66}, {"time": 2289, "pitch": 53, "duration": 3, "velocity": 77}, {"time": 2289, "pitch": 65, "duration": 3, "velocity": 80}, {"time": 2295, "pitch": 41, "duration": 10, "velocity": 80}, {"time": 2295, "pitch": 53, "duration": 6, "velocity": 75}, {"time": 2295, "pitch": 57, "duration": 5, "velocity": 71}, {"time": 2295, "pitch": 60, "duration": 6, "velocity": 75}, {"time": 2304, "pitch": 53, "duration": 4, "velocity": 83}, {"time": 2304, "pitch": 65, "duration": 4, "velocity": 76}, {"time": 2307, "pitch": 41, "duration": 2, "velocity": 45}, {"time": 2307, "pitch": 48, "duration": 2, "velocity": 67}, {"time": 2313, "pitch": 53, "duration": 2, "velocity": 77}, {"time": 2313, "pitch": 57, "duration": 2, "velocity": 75}, {"time": 2313, "pitch": 60, "duration": 2, "velocity": 79}, {"time": 2319, "pitch": 46, "duration": 9, "velocity": 79}, {"time": 2319, "pitch": 58, "duration": 4, "velocity": 73}, {"time": 2319, "pitch": 62, "duration": 5, "velocity": 67}, {"time": 2325, "pitch": 53, "duration": 2, "velocity": 35}, {"time": 2328, "pitch": 58, "duration": 2, "velocity": 81}, {"time": 2328, "pitch": 65, "duration": 3, "velocity": 82}, {"time": 2331, "pitch": 53, "duration": 2, "velocity": 51}, {"time": 2337, "pitch": 58, "duration": 2, "velocity": 79}, {"time": 2337, "pitch": 62, "duration": 3, "velocity": 80}, {"time": 2343, "pitch": 46, "duration": 7, "velocity": 79}, {"time": 2343, "pitch": 58, "duration": 6, "velocity": 72}, {"time": 2343, "pitch": 62, "duration": 6, "velocity": 74}, {"time": 2349, "pitch": 53, "duration": 2, "velocity": 48}, {"time": 2352, "pitch": 58, "duration": 2, "velocity": 71}, {"time": 2352, "pitch": 62, "duration": 2, "velocity": 75}, {"time": 2352, "pitch": 65, "duration": 4, "velocity": 76}, {"time": 2355, "pitch": 53, "duration": 2, "velocity": 60}, {"time": 2361, "pitch": 58, "duration": 6, "velocity": 80}, {"time": 2361, "pitch": 62, "duration": 6, "velocity": 80}, {"time": 2367, "pitch": 46, "duration": 3, "velocity": 80}, {"time": 2367, "pitch": 53, "duration": 3, "velocity": 75}, {"time": 2367, "pitch": 58, "duration": 6, "velocity": 74}, {"time": 2373, "pitch": 53, "duration": 2, "velocity": 66}, {"time": 2379, "pitch": 41, "duration": 6, "velocity": 80}, {"time": 2379, "pitch": 53, "duration": 3, "velocity": 81}, {"time": 2379, "pitch": 57, "duration": 4, "velocity": 88}, {"time": 2385, "pitch": 53, "duration": 3, "velocity": 69}, {"time": 2391, "pitch": 46, "duration": 2, "velocity": 83}, {"time": 2391, "pitch": 53, "duration": 2, "velocity": 80}, {"time": 2391, "pitch": 58, "duration": 2, "velocity": 79}, {"time": 2391, "pitch": 62, "duration": 3, "velocity": 79}, {"time": 2397, "pitch": 46, "duration": 2, "velocity": 76}, {"time": 2397, "pitch": 53, "duration": 2, "velocity": 79}, {"time": 2397, "pitch": 58, "duration": 3, "velocity": 81}, {"time": 2397, "pitch": 62, "duration": 3, "velocity": 81}, {"time": 2403, "pitch": 46, "duration": 11, "velocity": 79}, {"time": 2403, "pitch": 53, "duration": 9, "velocity": 80}, {"time": 2403, "pitch": 58, "duration": 10, "velocity": 81}, {"time": 2403, "pitch": 62, "duration": 10, "velocity": 83}, {"time": 2415, "pitch": 43, "duration": 14, "velocity": 79}, {"time": 2415, "pitch": 55, "duration": 4, "velocity": 76}, {"time": 2415, "pitch": 58, "duration": 4, "velocity": 73}, {"time": 2427, "pitch": 55, "duration": 2, "velocity": 79}, {"time": 2427, "pitch": 58, "duration": 2, "velocity": 81}, {"time": 2427, "pitch": 62, "duration": 2, "velocity": 81}, {"time": 2436, "pitch": 55, "duration": 3, "velocity": 71}, {"time": 2436, "pitch": 58, "duration": 3, "velocity": 75}, {"time": 2439, "pitch": 43, "duration": 21, "velocity": 79}, {"time": 2445, "pitch": 55, "duration": 2, "velocity": 73}, {"time": 2445, "pitch": 58, "duration": 2, "velocity": 80}, {"time": 2451, "pitch": 55, "duration": 3, "velocity": 75}, {"time": 2451, "pitch": 62, "duration": 3, "velocity": 81}, {"time": 2463, "pitch": 43, "duration": 13, "velocity": 71}, {"time": 2463, "pitch": 55, "duration": 4, "velocity": 75}, {"time": 2463, "pitch": 58, "duration": 4, "velocity": 75}, {"time": 2475, "pitch": 55, "duration": 2, "velocity": 74}, {"time": 2475, "pitch": 58, "duration": 2, "velocity": 79}, {"time": 2475, "pitch": 62, "duration": 2, "velocity": 77}, {"time": 2484, "pitch": 55, "duration": 2, "velocity": 72}, {"time": 2484, "pitch": 58, "duration": 2, "velocity": 75}, {"time": 2484, "pitch": 62, "duration": 2, "velocity": 73}, {"time": 2487, "pitch": 43, "duration": 2, "velocity": 77}, {"time": 2490, "pitch": 55, "duration": 2, "velocity": 75}, {"time": 2490, "pitch": 58, "duration": 2, "velocity": 81}, {"time": 2490, "pitch": 62, "duration": 2, "velocity": 78}, {"time": 2493, "pitch": 43, "duration": 3, "velocity": 70}, {"time": 2499, "pitch": 55, "duration": 4, "velocity": 78}, {"time": 2499, "pitch": 58, "duration": 3, "velocity": 79}, {"time": 2499, "pitch": 62, "duration": 4, "velocity": 80}, {"time": 2511, "pitch": 50, "duration": 13, "velocity": 75}, {"time": 2511, "pitch": 57, "duration": 8, "velocity": 75}, {"time": 2511, "pitch": 62, "duration": 8, "velocity": 80}, {"time": 2523, "pitch": 57, "duration": 3, "velocity": 79}, {"time": 2523, "pitch": 62, "duration": 3, "velocity": 80}, {"time": 2523, "pitch": 65, "duration": 3, "velocity": 78}, {"time": 2532, "pitch": 57, "duration": 2, "velocity": 73}, {"time": 2532, "pitch": 62, "duration": 1, "velocity": 67}, {"time": 2532, "pitch": 65, "duration": 1, "velocity": 67}, {"time": 2535, "pitch": 43, "duration": 9, "velocity": 79}, {"time": 2541, "pitch": 55, "duration": 3, "velocity": 70}, {"time": 2541, "pitch": 58, "duration": 3, "velocity": 67}, {"time": 2541, "pitch": 62, "duration": 4, "velocity": 76}, {"time": 2547, "pitch": 50, "duration": 3, "velocity": 72}, {"time": 2547, "pitch": 55, "duration": 3, "velocity": 75}, {"time": 2547, "pitch": 58, "duration": 3, "velocity": 75}, {"time": 2547, "pitch": 62, "duration": 3, "velocity": 75}, {"time": 2553, "pitch": 55, "duration": 3, "velocity": 69}, {"time": 2559, "pitch": 46, "duration": 7, "velocity": 79}, {"time": 2559, "pitch": 53, "duration": 5, "velocity": 79}, {"time": 2559, "pitch": 58, "duration": 6, "velocity": 67}, {"time": 2571, "pitch": 53, "duration": 4, "velocity": 78}, {"time": 2571, "pitch": 58, "duration": 5, "velocity": 80}, {"time": 2571, "pitch": 62, "duration": 5, "velocity": 79}, {"time": 2583, "pitch": 48, "duration": 3, "velocity": 73}, {"time": 2583, "pitch": 55, "duration": 4, "velocity": 73}, {"time": 2583, "pitch": 60, "duration": 7, "velocity": 76}, {"time": 2592, "pitch": 55, "duration": 3, "velocity": 80}, {"time": 2592, "pitch": 60, "duration": 3, "velocity": 79}, {"time": 2595, "pitch": 48, "duration": 3, "velocity": 77}, {"time": 2601, "pitch": 55, "duration": 2, "velocity": 75}, {"time": 2601, "pitch": 60, "duration": 2, "velocity": 76}, {"time": 2607, "pitch": 46, "duration": 3, "velocity": 75}, {"time": 2607, "pitch": 53, "duration": 5, "velocity": 78}, {"time": 2607, "pitch": 58, "duration": 5, "velocity": 69}, {"time": 2616, "pitch": 53, "duration": 3, "velocity": 73}, {"time": 2616, "pitch": 58, "duration": 3, "velocity": 70}, {"time": 2616, "pitch": 62, "duration": 3, "velocity": 77}, {"time": 2619, "pitch": 46, "duration": 2, "velocity": 73}, {"time": 2625, "pitch": 53, "duration": 2, "velocity": 78}, {"time": 2625, "pitch": 58, "duration": 2, "velocity": 75}, {"time": 2625, "pitch": 62, "duration": 3, "velocity": 76}, {"time": 2631, "pitch": 50, "duration": 2, "velocity": 77}, {"time": 2631, "pitch": 57, "duration": 6, "velocity": 75}, {"time": 2631, "pitch": 62, "duration": 6, "velocity": 80}, {"time": 2640, "pitch": 57, "duration": 3, "velocity": 79}, {"time": 2640, "pitch": 62, "duration": 3, "velocity": 81}, {"time": 2640, "pitch": 65, "duration": 4, "velocity": 76}, {"time": 2649, "pitch": 57, "duration": 2, "velocity": 75}, {"time": 2649, "pitch": 62, "duration": 2, "velocity": 71}, {"time": 2649, "pitch": 65, "duration": 2, "velocity": 72}, {"time": 2655, "pitch": 39, "duration": 3, "velocity": 73}, {"time": 2655, "pitch": 55, "duration": 6, "velocity": 74}, {"time": 2655, "pitch": 58, "duration": 5, "velocity": 80}, {"time": 2655, "pitch": 63, "duration": 5, "velocity": 68}, {"time": 2664, "pitch": 55, "duration": 3, "velocity": 79}, {"time": 2664, "pitch": 58, "duration": 2, "velocity": 83}, {"time": 2664, "pitch": 63, "duration": 3, "velocity": 81}, {"time": 2673, "pitch": 55, "duration": 3, "velocity": 76}, {"time": 2673, "pitch": 58, "duration": 2, "velocity": 71}, {"time": 2673, "pitch": 63, "duration": 2, "velocity": 68}, {"time": 2679, "pitch": 41, "duration": 4, "velocity": 76}, {"time": 2679, "pitch": 53, "duration": 4, "velocity": 71}, {"time": 2679, "pitch": 57, "duration": 4, "velocity": 70}, {"time": 2688, "pitch": 53, "duration": 2, "velocity": 74}, {"time": 2688, "pitch": 57, "duration": 2, "velocity": 69}, {"time": 2688, "pitch": 60, "duration": 3, "velocity": 77}, {"time": 2697, "pitch": 53, "duration": 2, "velocity": 80}, {"time": 2697, "pitch": 57, "duration": 2, "velocity": 75}, {"time": 2697, "pitch": 60, "duration": 3, "velocity": 79}, {"time": 2703, "pitch": 43, "duration": 9, "velocity": 75}, {"time": 2703, "pitch": 55, "duration": 6, "velocity": 73}, {"time": 2703, "pitch": 58, "duration": 6, "velocity": 79}, {"time": 2712, "pitch": 55, "duration": 2, "velocity": 76}, {"time": 2712, "pitch": 58, "duration": 2, "velocity": 78}, {"time": 2712, "pitch": 62, "duration": 2, "velocity": 76}, {"time": 2721, "pitch": 55, "duration": 2, "velocity": 75}, {"time": 2721, "pitch": 58, "duration": 2, "velocity": 75}, {"time": 2721, "pitch": 62, "duration": 2, "velocity": 77}, {"time": 2727, "pitch": 43, "duration": 9, "velocity": 75}, {"time": 2727, "pitch": 55, "duration": 3, "velocity": 74}, {"time": 2727, "pitch": 58, "duration": 3, "velocity": 72}, {"time": 2727, "pitch": 62, "duration": 3, "velocity": 73}, {"time": 2736, "pitch": 55, "duration": 2, "velocity": 73}, {"time": 2736, "pitch": 62, "duration": 2, "velocity": 74}, {"time": 2739, "pitch": 50, "duration": 1, "velocity": 61}, {"time": 2745, "pitch": 55, "duration": 3, "velocity": 75}, {"time": 2745, "pitch": 58, "duration": 3, "velocity": 74}, {"time": 2751, "pitch": 46, "duration": 3, "velocity": 81}, {"time": 2751, "pitch": 53, "duration": 6, "velocity": 76}, {"time": 2751, "pitch": 58, "duration": 7, "velocity": 71}, {"time": 2760, "pitch": 53, "duration": 3, "velocity": 79}, {"time": 2760, "pitch": 58, "duration": 3, "velocity": 83}, {"time": 2760, "pitch": 62, "duration": 4, "velocity": 80}, {"time": 2769, "pitch": 53, "duration": 3, "velocity": 78}, {"time": 2769, "pitch": 58, "duration": 2, "velocity": 65}, {"time": 2769, "pitch": 62, "duration": 4, "velocity": 79}, {"time": 2775, "pitch": 41, "duration": 21, "velocity": 76}, {"time": 2775, "pitch": 53, "duration": 4, "velocity": 73}, {"time": 2775, "pitch": 57, "duration": 6, "velocity": 69}, {"time": 2784, "pitch": 53, "duration": 3, "velocity": 80}, {"time": 2784, "pitch": 60, "duration": 3, "velocity": 79}, {"time": 2787, "pitch": 48, "duration": 5, "velocity": 66}, {"time": 2793, "pitch": 53, "duration": 3, "velocity": 77}, {"time": 2793, "pitch": 65, "duration": 3, "velocity": 80}, {"time": 2799, "pitch": 41, "duration": 10, "velocity": 80}, {"time": 2799, "pitch": 53, "duration": 6, "velocity": 75}, {"time": 2799, "pitch": 57, "duration": 5, "velocity": 71}, {"time": 2799, "pitch": 60, "duration": 6, "velocity": 75}, {"time": 2808, "pitch": 53, "duration": 4, "velocity": 83}, {"time": 2808, "pitch": 65, "duration": 4, "velocity": 76}, {"time": 2811, "pitch": 41, "duration": 2, "velocity": 45}, {"time": 2811, "pitch": 48, "duration": 2, "velocity": 67}, {"time": 2817, "pitch": 53, "duration": 2, "velocity": 77}, {"time": 2817, "pitch": 57, "duration": 2, "velocity": 75}, {"time": 2817, "pitch": 60, "duration": 2, "velocity": 79}, {"time": 2823, "pitch": 46, "duration": 9, "velocity": 79}, {"time": 2823, "pitch": 58, "duration": 4, "velocity": 73}, {"time": 2823, "pitch": 62, "duration": 5, "velocity": 67}, {"time": 2829, "pitch": 53, "duration": 2, "velocity": 35}, {"time": 2832, "pitch": 58, "duration": 2, "velocity": 81}, {"time": 2832, "pitch": 65, "duration": 3, "velocity": 82}, {"time": 2835, "pitch": 53, "duration": 2, "velocity": 51}, {"time": 2841, "pitch": 58, "duration": 2, "velocity": 79}, {"time": 2841, "pitch": 62, "duration": 3, "velocity": 80}, {"time": 2847, "pitch": 46, "duration": 7, "velocity": 79}, {"time": 2847, "pitch": 58, "duration": 6, "velocity": 72}, {"time": 2847, "pitch": 62, "duration": 6, "velocity": 74}, {"time": 2853, "pitch": 53, "duration": 2, "velocity": 48}, {"time": 2856, "pitch": 58, "duration": 2, "velocity": 71}, {"time": 2856, "pitch": 62, "duration": 2, "velocity": 75}, {"time": 2856, "pitch": 65, "duration": 4, "velocity": 76}, {"time": 2859, "pitch": 53, "duration": 2, "velocity": 60}, {"time": 2865, "pitch": 58, "duration": 6, "velocity": 80}, {"time": 2865, "pitch": 62, "duration": 6, "velocity": 80}, {"time": 2871, "pitch": 46, "duration": 8, "velocity": 79}, {"time": 2871, "pitch": 58, "duration": 5, "velocity": 77}, {"time": 2871, "pitch": 62, "duration": 6, "velocity": 77}, {"time": 2880, "pitch": 58, "duration": 2, "velocity": 80}, {"time": 2880, "pitch": 62, "duration": 2, "velocity": 77}, {"time": 2880, "pitch": 65, "duration": 3, "velocity": 76}, {"time": 2883, "pitch": 53, "duration": 2, "velocity": 66}, {"time": 2889, "pitch": 58, "duration": 2, "velocity": 81}, {"time": 2889, "pitch": 62, "duration": 2, "velocity": 80}, {"time": 2895, "pitch": 43, "duration": 21, "velocity": 80}, {"time": 2895, "pitch": 55, "duration": 5, "velocity": 74}, {"time": 2895, "pitch": 58, "duration": 5, "velocity": 73}, {"time": 2901, "pitch": 50, "duration": 3, "velocity": 64}, {"time": 2904, "pitch": 58, "duration": 3, "velocity": 75}, {"time": 2904, "pitch": 62, "duration": 4, "velocity": 76}, {"time": 2907, "pitch": 50, "duration": 8, "velocity": 65}, {"time": 2907, "pitch": 55, "duration": 3, "velocity": 74}, {"time": 2913, "pitch": 55, "duration": 2, "velocity": 74}, {"time": 2913, "pitch": 58, "duration": 2, "velocity": 73}, {"time": 2913, "pitch": 62, "duration": 3, "velocity": 79}, {"time": 2919, "pitch": 50, "duration": 10, "velocity": 84}, {"time": 2919, "pitch": 57, "duration": 6, "velocity": 80}, {"time": 2919, "pitch": 62, "duration": 6, "velocity": 82}, {"time": 2928, "pitch": 57, "duration": 3, "velocity": 81}, {"time": 2928, "pitch": 65, "duration": 3, "velocity": 80}, {"time": 2934, "pitch": 50, "duration": 3, "velocity": 60}, {"time": 2937, "pitch": 57, "duration": 3, "velocity": 80}, {"time": 2937, "pitch": 62, "duration": 2, "velocity": 82}, {"time": 2943, "pitch": 43, "duration": 21, "velocity": 81}, {"time": 2943, "pitch": 55, "duration": 5, "velocity": 75}, {"time": 2943, "pitch": 58, "duration": 5, "velocity": 79}, {"time": 2949, "pitch": 50, "duration": 4, "velocity": 71}, {"time": 2955, "pitch": 50, "duration": 7, "velocity": 67}, {"time": 2955, "pitch": 55, "duration": 2, "velocity": 75}, {"time": 2955, "pitch": 58, "duration": 3, "velocity": 80}, {"time": 2955, "pitch": 62, "duration": 3, "velocity": 80}, {"time": 2961, "pitch": 55, "duration": 3, "velocity": 79}, {"time": 2961, "pitch": 58, "duration": 4, "velocity": 81}, {"time": 2961, "pitch": 67, "duration": 3, "velocity": 78}, {"time": 2964, "pitch": 62, "duration": 3, "velocity": 81}, {"time": 2967, "pitch": 39, "duration": 8, "velocity": 83}, {"time": 2967, "pitch": 55, "duration": 6, "velocity": 73}, {"time": 2967, "pitch": 58, "duration": 6, "velocity": 75}, {"time": 2976, "pitch": 58, "duration": 3, "velocity": 82}, {"time": 2976, "pitch": 63, "duration": 4, "velocity": 79}, {"time": 2979, "pitch": 55, "duration": 3, "velocity": 80}, {"time": 2985, "pitch": 55, "duration": 3, "velocity": 79}, {"time": 2985, "pitch": 58, "duration": 2, "velocity": 77}, {"time": 2985, "pitch": 63, "duration": 3, "velocity": 72}, {"time": 2991, "pitch": 38, "duration": 12, "velocity": 80}, {"time": 2991, "pitch": 57, "duration": 7, "velocity": 79}, {"time": 2991, "pitch": 62, "duration": 6, "velocity": 77}, {"time": 2997, "pitch": 45, "duration": 4, "velocity": 58}, {"time": 3003, "pitch": 57, "duration": 3, "velocity": 81}, {"time": 3003, "pitch": 62, "duration": 3, "velocity": 83}, {"time": 3003, "pitch": 65, "duration": 3, "velocity": 81}, {"time": 3009, "pitch": 65, "duration": 2, "velocity": 79}, {"time": 3012, "pitch": 57, "duration": 3, "velocity": 80}, {"time": 3012, "pitch": 62, "duration": 2, "velocity": 79}, {"time": 3015, "pitch": 43, "duration": 14, "velocity": 80}, {"time": 3015, "pitch": 58, "duration": 6, "velocity": 71}, {"time": 3015, "pitch": 55, "duration": 6, "velocity": 73}, {"time": 3021, "pitch": 50, "duration": 3, "velocity": 66}, {"time": 3024, "pitch": 58, "duration": 5, "velocity": 81}, {"time": 3024, "pitch": 62, "duration": 5, "velocity": 80}, {"time": 3024, "pitch": 55, "duration": 4, "velocity": 80}, {"time": 3033, "pitch": 55, "duration": 5, "velocity": 76}, {"time": 3033, "pitch": 58, "duration": 5, "velocity": 73}, {"time": 3033, "pitch": 43, "duration": 5, "velocity": 80}, {"time": 3033, "pitch": 50, "duration": 5, "velocity": 79}, {"time": 3039, "pitch": 43, "duration": 9, "velocity": 81}, {"time": 3039, "pitch": 58, "duration": 8, "velocity": 74}, {"time": 3039, "pitch": 55, "duration": 7, "velocity": 79}, {"time": 3051, "pitch": 55, "duration": 6, "velocity": 80}, {"time": 3051, "pitch": 50, "duration": 6, "velocity": 80}, {"time": 3051, "pitch": 43, "duration": 6, "velocity": 81}, {"time": 3051, "pitch": 67, "duration": 6, "velocity": 75}], "annotations": [{"time": 279, "annotation": {"number": 64, "value": 127}, "group": "control_change"}, {"time": 280, "annotation": {"number": 64, "value": 0}, "group": "control_change"}, {"time": 280, "annotation": {"number": 64, "value": 127}, "group": "control_change"}, {"time": 434, "annotation": {"number": 64, "value": 0}, "group": "control_change"}, {"time": 437, "annotation": {"number": 64, "value": 127}, "group": "control_change"}, {"time": 500, "annotation": {"number": 64, "value": 127}, "group": "control_change"}, {"time": 559, "annotation": {"number": 64, "value": 0}, "group": "control_change"}, {"time": 567, "annotation": {"number": 64, "value": 127}, "group": "control_change"}, {"time": 590, "annotation": {"number": 64, "value": 0}, "group": "control_change"}, {"time": 592, "annotation": {"number": 64, "value": 127}, "group": "control_change"}, {"time": 614, "annotation": {"number": 64, "value": 0}, "group": "control_change"}, {"time": 616, "annotation": {"number": 64, "value": 127}, "group": "control_change"}, {"time": 638, "annotation": {"number": 64, "value": 0}, "group": "control_change"}, {"time": 640, "annotation": {"number": 64, "value": 127}, "group": "control_change"}, {"time": 663, "annotation": {"number": 64, "value": 0}, "group": "control_change"}, {"time": 665, "annotation": {"number": 64, "value": 127}, "group": "control_change"}, {"time": 686, "annotation": {"number": 64, "value": 0}, "group": "control_change"}, {"time": 689, "annotation": {"number": 64, "value": 127}, "group": "control_change"}, {"time": 698, "annotation": {"number": 64, "value": 127}, "group": "control_change"}, {"time": 704, "annotation": {"number": 64, "value": 0}, "group": "control_change"}, {"time": 710, "annotation": {"number": 64, "value": 0}, "group": "control_change"}, {"time": 711, "annotation": {"number": 64, "value": 127}, "group": "control_change"}, {"time": 718, "annotation": {"number": 64, "value": 0}, "group": "control_change"}, {"time": 721, "annotation": {"number": 64, "value": 127}, "group": "control_change"}, {"time": 730, "annotation": {"number": 64, "value": 0}, "group": "control_change"}, {"time": 736, "annotation": {"number": 64, "value": 127}, "group": "control_change"}, {"time": 753, "annotation": {"number": 64, "value": 0}, "group": "control_change"}, {"time": 760, "annotation": {"number": 64, "value": 127}, "group": "control_change"}, {"time": 781, "annotation": {"number": 64, "value": 0}, "group": "control_change"}, {"time": 783, "annotation": {"number": 64, "value": 127}, "group": "control_change"}, {"time": 806, "annotation": {"number": 64, "value": 0}, "group": "control_change"}, {"time": 807, "annotation": {"number": 64, "value": 127}, "group": "control_change"}, {"time": 828, "annotation": {"number": 64, "value": 0}, "group": "control_change"}, {"time": 830, "annotation": {"number": 64, "value": 127}, "group": "control_change"}, {"time": 854, "annotation": {"number": 64, "value": 0}, "group": "control_change"}, {"time": 855, "annotation": {"number": 64, "value": 127}, "group": "control_change"}, {"time": 877, "annotation": {"number": 64, "value": 0}, "group": "control_change"}, {"time": 878, "annotation": {"number": 64, "value": 127}, "group": "control_change"}, {"time": 901, "annotation": {"number": 64, "value": 0}, "group": "control_change"}, {"time": 903, "annotation": {"number": 64, "value": 127}, "group": "control_change"}, {"time": 926, "annotation": {"number": 64, "value": 0}, "group": "control_change"}, {"time": 927, "annotation": {"number": 64, "value": 127}, "group": "control_change"}, {"time": 948, "annotation": {"number": 64, "value": 0}, "group": "control_change"}, {"time": 951, "annotation": {"number": 64, "value": 127}, "group": "control_change"}, {"time": 972, "annotation": {"number": 64, "value": 0}, "group": "control_change"}, {"time": 974, "annotation": {"number": 64, "value": 127}, "group": "control_change"}, {"time": 997, "annotation": {"number": 64, "value": 0}, "group": "control_change"}, {"time": 999, "annotation": {"number": 64, "value": 127}, "group": "control_change"}, {"time": 1020, "annotation": {"number": 64, "value": 0}, "group": "control_change"}, {"time": 1023, "annotation": {"number": 64, "value": 127}, "group": "control_change"}, {"time": 1045, "annotation": {"number": 64, "value": 0}, "group": "control_change"}, {"time": 1050, "annotation": {"number": 64, "value": 127}, "group": "control_change"}, {"time": 1068, "annotation": {"number": 64, "value": 0}, "group": "control_change"}, {"time": 1071, "annotation": {"number": 64, "value": 127}, "group": "control_change"}, {"time": 1095, "annotation": {"number": 64, "value": 0}, "group": "control_change"}, {"time": 1096, "annotation": {"number": 64, "value": 127}, "group": "control_change"}, {"time": 1096, "annotation": {"number": 64, "value": 0}, "group": "control_change"}, {"time": 1117, "annotation": {"number": 64, "value": 0}, "group": "control_change"}, {"time": 1120, "annotation": {"number": 64, "value": 127}, "group": "control_change"}, {"time": 1142, "annotation": {"number": 64, "value": 0}, "group": "control_change"}, {"time": 1144, "annotation": {"number": 64, "value": 127}, "group": "control_change"}, {"time": 1165, "annotation": {"number": 64, "value": 0}, "group": "control_change"}, {"time": 1168, "annotation": {"number": 64, "value": 127}, "group": "control_change"}, {"time": 1189, "annotation": {"number": 64, "value": 0}, "group": "control_change"}, {"time": 1192, "annotation": {"number": 64, "value": 127}, "group": "control_change"}, {"time": 1213, "annotation": {"number": 64, "value": 0}, "group": "control_change"}, {"time": 1216, "annotation": {"number": 64, "value": 127}, "group": "control_change"}, {"time": 1216, "annotation": {"number": 64, "value": 0}, "group": "control_change"}, {"time": 1217, "annotation": {"number": 64, "value": 127}, "group": "control_change"}, {"time": 1237, "annotation": {"number": 64, "value": 0}, "group": "control_change"}, {"time": 1264, "annotation": {"number": 64, "value": 127}, "group": "control_change"}, {"time": 1285, "annotation": {"number": 64, "value": 0}, "group": "control_change"}, {"time": 1287, "annotation": {"number": 64, "value": 127}, "group": "control_change"}, {"time": 1310, "annotation": {"number": 64, "value": 0}, "group": "control_change"}, {"time": 1311, "annotation": {"number": 64, "value": 127}, "group": "control_change"}, {"time": 1332, "annotation": {"number": 64, "value": 0}, "group": "control_change"}, {"time": 1334, "annotation": {"number": 64, "value": 127}, "group": "control_change"}, {"time": 1358, "annotation": {"number": 64, "value": 0}, "group": "control_change"}, {"time": 1359, "annotation": {"number": 64, "value": 127}, "group": "control_change"}, {"time": 1381, "annotation": {"number": 64, "value": 0}, "group": "control_change"}, {"time": 1382, "annotation": {"number": 64, "value": 127}, "group": "control_change"}, {"time": 1405, "annotation": {"number": 64, "value": 0}, "group": "control_change"}, {"time": 1407, "annotation": {"number": 64, "value": 127}, "group": "control_change"}, {"time": 1430, "annotation": {"number": 64, "value": 0}, "group": "control_change"}, {"time": 1431, "annotation": {"number": 64, "value": 127}, "group": "control_change"}, {"time": 1452, "annotation": {"number": 64, "value": 0}, "group": "control_change"}, {"time": 1455, "annotation": {"number": 64, "value": 127}, "group": "control_change"}, {"time": 1476, "annotation": {"number": 64, "value": 0}, "group": "control_change"}, {"time": 1478, "annotation": {"number": 64, "value": 127}, "group": "control_change"}, {"time": 1501, "annotation": {"number": 64, "value": 0}, "group": "control_change"}, {"time": 1503, "annotation": {"number": 64, "value": 127}, "group": "control_change"}, {"time": 1524, "annotation": {"number": 64, "value": 0}, "group": "control_change"}, {"time": 1527, "annotation": {"number": 64, "value": 127}, "group": "control_change"}, {"time": 1549, "annotation": {"number": 64, "value": 0}, "group": "control_change"}, {"time": 1554, "annotation": {"number": 64, "value": 127}, "group": "control_change"}, {"time": 1572, "annotation": {"number": 64, "value": 0}, "group": "control_change"}, {"time": 1575, "annotation": {"number": 64, "value": 127}, "group": "control_change"}, {"time": 1599, "annotation": {"number": 64, "value": 0}, "group": "control_change"}, {"time": 1600, "annotation": {"number": 64, "value": 127}, "group": "control_change"}, {"time": 1600, "annotation": {"number": 64, "value": 0}, "group": "control_change"}, {"time": 1621, "annotation": {"number": 64, "value": 0}, "group": "control_change"}, {"time": 1624, "annotation": {"number": 64, "value": 127}, "group": "control_change"}, {"time": 1646, "annotation": {"number": 64, "value": 0}, "group": "control_change"}, {"time": 1648, "annotation": {"number": 64, "value": 127}, "group": "control_change"}, {"time": 1669, "annotation": {"number": 64, "value": 0}, "group": "control_change"}, {"time": 1672, "annotation": {"number": 64, "value": 127}, "group": "control_change"}, {"time": 1693, "annotation": {"number": 64, "value": 0}, "group": "control_change"}, {"time": 1696, "annotation": {"number": 64, "value": 127}, "group": "control_change"}, {"time": 1717, "annotation": {"number": 64, "value": 0}, "group": "control_change"}, {"time": 1719, "annotation": {"number": 64, "value": 127}, "group": "control_change"}, {"time": 1742, "annotation": {"number": 64, "value": 0}, "group": "control_change"}, {"time": 1744, "annotation": {"number": 64, "value": 127}, "group": "control_change"}, {"time": 1766, "annotation": {"number": 64, "value": 0}, "group": "control_change"}, {"time": 1768, "annotation": {"number": 64, "value": 127}, "group": "control_change"}, {"time": 1790, "annotation": {"number": 64, "value": 0}, "group": "control_change"}, {"time": 1792, "annotation": {"number": 64, "value": 127}, "group": "control_change"}, {"time": 1815, "annotation": {"number": 64, "value": 0}, "group": "control_change"}, {"time": 1817, "annotation": {"number": 64, "value": 127}, "group": "control_change"}, {"time": 1838, "annotation": {"number": 64, "value": 0}, "group": "control_change"}, {"time": 1841, "annotation": {"number": 64, "value": 127}, "group": "control_change"}, {"time": 1850, "annotation": {"number": 64, "value": 127}, "group": "control_change"}, {"time": 1856, "annotation": {"number": 64, "value": 0}, "group": "control_change"}, {"time": 1862, "annotation": {"number": 64, "value": 0}, "group": "control_change"}, {"time": 1863, "annotation": {"number": 64, "value": 127}, "group": "control_change"}, {"time": 1870, "annotation": {"number": 64, "value": 0}, "group": "control_change"}, {"time": 1873, "annotation": {"number": 64, "value": 127}, "group": "control_change"}, {"time": 1882, "annotation": {"number": 64, "value": 0}, "group": "control_change"}, {"time": 1888, "annotation": {"number": 64, "value": 127}, "group": "control_change"}, {"time": 1905, "annotation": {"number": 64, "value": 0}, "group": "control_change"}, {"time": 1912, "annotation": {"number": 64, "value": 127}, "group": "control_change"}, {"time": 1933, "annotation": {"number": 64, "value": 0}, "group": "control_change"}, {"time": 1935, "annotation": {"number": 64, "value": 127}, "group": "control_change"}, {"time": 1958, "annotation": {"number": 64, "value": 0}, "group": "control_change"}, {"time": 1959, "annotation": {"number": 64, "value": 127}, "group": "control_change"}, {"time": 1980, "annotation": {"number": 64, "value": 0}, "group": "control_change"}, {"time": 1982, "annotation": {"number": 64, "value": 127}, "group": "control_change"}, {"time": 2006, "annotation": {"number": 64, "value": 0}, "group": "control_change"}, {"time": 2007, "annotation": {"number": 64, "value": 127}, "group": "control_change"}, {"time": 2029, "annotation": {"number": 64, "value": 0}, "group": "control_change"}, {"time": 2030, "annotation": {"number": 64, "value": 127}, "group": "control_change"}, {"time": 2053, "annotation": {"number": 64, "value": 0}, "group": "control_change"}, {"time": 2055, "annotation": {"number": 64, "value": 127}, "group": "control_change"}, {"time": 2078, "annotation": {"number": 64, "value": 0}, "group": "control_change"}, {"time": 2079, "annotation": {"number": 64, "value": 127}, "group": "control_change"}, {"time": 2100, "annotation": {"number": 64, "value": 0}, "group": "control_change"}, {"time": 2103, "annotation": {"number": 64, "value": 127}, "group": "control_change"}, {"time": 2124, "annotation": {"number": 64, "value": 0}, "group": "control_change"}, {"time": 2126, "annotation": {"number": 64, "value": 127}, "group": "control_change"}, {"time": 2149, "annotation": {"number": 64, "value": 0}, "group": "control_change"}, {"time": 2151, "annotation": {"number": 64, "value": 127}, "group": "control_change"}, {"time": 2172, "annotation": {"number": 64, "value": 0}, "group": "control_change"}, {"time": 2175, "annotation": {"number": 64, "value": 127}, "group": "control_change"}, {"time": 2197, "annotation": {"number": 64, "value": 0}, "group": "control_change"}, {"time": 2202, "annotation": {"number": 64, "value": 127}, "group": "control_change"}, {"time": 2220, "annotation": {"number": 64, "value": 0}, "group": "control_change"}, {"time": 2223, "annotation": {"number": 64, "value": 127}, "group": "control_change"}, {"time": 2247, "annotation": {"number": 64, "value": 0}, "group": "control_change"}, {"time": 2248, "annotation": {"number": 64, "value": 127}, "group": "control_change"}, {"time": 2248, "annotation": {"number": 64, "value": 0}, "group": "control_change"}, {"time": 2269, "annotation": {"number": 64, "value": 0}, "group": "control_change"}, {"time": 2272, "annotation": {"number": 64, "value": 127}, "group": "control_change"}, {"time": 2294, "annotation": {"number": 64, "value": 0}, "group": "control_change"}, {"time": 2296, "annotation": {"number": 64, "value": 127}, "group": "control_change"}, {"time": 2317, "annotation": {"number": 64, "value": 0}, "group": "control_change"}, {"time": 2320, "annotation": {"number": 64, "value": 127}, "group": "control_change"}, {"time": 2341, "annotation": {"number": 64, "value": 0}, "group": "control_change"}, {"time": 2344, "annotation": {"number": 64, "value": 127}, "group": "control_change"}, {"time": 2365, "annotation": {"number": 64, "value": 0}, "group": "control_change"}, {"time": 2368, "annotation": {"number": 64, "value": 127}, "group": "control_change"}, {"time": 2368, "annotation": {"number": 64, "value": 0}, "group": "control_change"}, {"time": 2369, "annotation": {"number": 64, "value": 127}, "group": "control_change"}, {"time": 2389, "annotation": {"number": 64, "value": 0}, "group": "control_change"}, {"time": 2416, "annotation": {"number": 64, "value": 127}, "group": "control_change"}, {"time": 2437, "annotation": {"number": 64, "value": 0}, "group": "control_change"}, {"time": 2439, "annotation": {"number": 64, "value": 127}, "group": "control_change"}, {"time": 2462, "annotation": {"number": 64, "value": 0}, "group": "control_change"}, {"time": 2463, "annotation": {"number": 64, "value": 127}, "group": "control_change"}, {"time": 2484, "annotation": {"number": 64, "value": 0}, "group": "control_change"}, {"time": 2486, "annotation": {"number": 64, "value": 127}, "group": "control_change"}, {"time": 2510, "annotation": {"number": 64, "value": 0}, "group": "control_change"}, {"time": 2511, "annotation": {"number": 64, "value": 127}, "group": "control_change"}, {"time": 2533, "annotation": {"number": 64, "value": 0}, "group": "control_change"}, {"time": 2534, "annotation": {"number": 64, "value": 127}, "group": "control_change"}, {"time": 2557, "annotation": {"number": 64, "value": 0}, "group": "control_change"}, {"time": 2559, "annotation": {"number": 64, "value": 127}, "group": "control_change"}, {"time": 2582, "annotation": {"number": 64, "value": 0}, "group": "control_change"}, {"time": 2583, "annotation": {"number": 64, "value": 127}, "group": "control_change"}, {"time": 2604, "annotation": {"number": 64, "value": 0}, "group": "control_change"}, {"time": 2607, "annotation": {"number": 64, "value": 127}, "group": "control_change"}, {"time": 2628, "annotation": {"number": 64, "value": 0}, "group": "control_change"}, {"time": 2630, "annotation": {"number": 64, "value": 127}, "group": "control_change"}, {"time": 2653, "annotation": {"number": 64, "value": 0}, "group": "control_change"}, {"time": 2655, "annotation": {"number": 64, "value": 127}, "group": "control_change"}, {"time": 2676, "annotation": {"number": 64, "value": 0}, "group": "control_change"}, {"time": 2679, "annotation": {"number": 64, "value": 127}, "group": "control_change"}, {"time": 2701, "annotation": {"number": 64, "value": 0}, "group": "control_change"}, {"time": 2706, "annotation": {"number": 64, "value": 127}, "group": "control_change"}, {"time": 2724, "annotation": {"number": 64, "value": 0}, "group": "control_change"}, {"time": 2727, "annotation": {"number": 64, "value": 127}, "group": "control_change"}, {"time": 2751, "annotation": {"number": 64, "value": 0}, "group": "control_change"}, {"time": 2752, "annotation": {"number": 64, "value": 127}, "group": "control_change"}, {"time": 2752, "annotation": {"number": 64, "value": 0}, "group": "control_change"}, {"time": 2773, "annotation": {"number": 64, "value": 0}, "group": "control_change"}, {"time": 2776, "annotation": {"number": 64, "value": 127}, "group": "control_change"}, {"time": 2798, "annotation": {"number": 64, "value": 0}, "group": "control_change"}, {"time": 2800, "annotation": {"number": 64, "value": 127}, "group": "control_change"}, {"time": 2821, "annotation": {"number": 64, "value": 0}, "group": "control_change"}, {"time": 2824, "annotation": {"number": 64, "value": 127}, "group": "control_change"}, {"time": 2845, "annotation": {"number": 64, "value": 0}, "group": "control_change"}, {"time": 2848, "annotation": {"number": 64, "value": 127}, "group": "control_change"}, {"time": 2869, "annotation": {"number": 64, "value": 0}, "group": "control_change"}, {"time": 2871, "annotation": {"number": 64, "value": 127}, "group": "control_change"}, {"time": 2894, "annotation": {"number": 64, "value": 0}, "group": "control_change"}, {"time": 2896, "annotation": {"number": 64, "value": 127}, "group": "control_change"}, {"time": 2918, "annotation": {"number": 64, "value": 0}, "group": "control_change"}, {"time": 2920, "annotation": {"number": 64, "value": 127}, "group": "control_change"}, {"time": 2942, "annotation": {"number": 64, "value": 0}, "group": "control_change"}, {"time": 2944, "annotation": {"number": 64, "value": 127}, "group": "control_change"}, {"time": 2967, "annotation": {"number": 64, "value": 0}, "group": "control_change"}, {"time": 2969, "annotation": {"number": 64, "value": 127}, "group": "control_change"}, {"time": 2990, "annotation": {"number": 64, "value": 0}, "group": "control_change"}, {"time": 2993, "annotation": {"number": 64, "value": 127}, "group": "control_change"}, {"time": 3002, "annotation": {"number": 64, "value": 127}, "group": "control_change"}, {"time": 3008, "annotation": {"number": 64, "value": 0}, "group": "control_change"}, {"time": 3014, "annotation": {"number": 64, "value": 0}, "group": "control_change"}, {"time": 3015, "annotation": {"number": 64, "value": 127}, "group": "control_change"}, {"time": 3022, "annotation": {"number": 64, "value": 0}, "group": "control_change"}, {"time": 3025, "annotation": {"number": 64, "value": 127}, "group": "control_change"}, {"time": 3034, "annotation": {"number": 64, "value": 0}, "group": "control_change"}, {"time": 3040, "annotation": {"number": 64, "value": 127}, "group": "control_change"}, {"time": 3057, "annotation": {"number": 64, "value": 0}, "group": "control_change"}]}]}