{"metadata": {"schema_version": "0.2", "title": "None", "source_filename": "787.mid", "source_format": "midi"}, "resolution": 12, "tempos": [{"time": 0, "qpm": 103.75022479215372}, {"time": 720, "qpm": 104.00001386666851}, {"time": 1421, "qpm": 104.25010294697665}, {"time": 1716, "qpm": 104.00001386666851}, {"time": 1917, "qpm": 104.25010294697665}, {"time": 1991, "qpm": 104.00001386666851}, {"time": 2484, "qpm": 104.25010294697665}, {"time": 2760, "qpm": 104.00001386666851}, {"time": 3864, "qpm": 104.25010294697665}, {"time": 4152, "qpm": 104.00001386666851}, {"time": 4848, "qpm": 104.25010294697665}, {"time": 5112, "qpm": 104.00001386666851}], "time_signatures": [{"time": 0, "numerator": 1, "denominator": 4}], "tracks": [{"program": 0, "is_drum": false, "name": "MELODY", "notes": [{"time": 762, "pitch": 68, "duration": 5, "velocity": 86}, {"time": 768, "pitch": 68, "duration": 6, "velocity": 88}, {"time": 774, "pitch": 67, "duration": 12, "velocity": 87}, {"time": 792, "pitch": 65, "duration": 12, "velocity": 89}, {"time": 804, "pitch": 68, "duration": 11, "velocity": 85}, {"time": 816, "pitch": 67, "duration": 9, "velocity": 88}, {"time": 828, "pitch": 63, "duration": 5, "velocity": 87}, {"time": 834, "pitch": 65, "duration": 42, "velocity": 88}, {"time": 954, "pitch": 72, "duration": 4, "velocity": 87}, {"time": 960, "pitch": 70, "duration": 4, "velocity": 89}, {"time": 966, "pitch": 68, "duration": 15, "velocity": 87}, {"time": 984, "pitch": 67, "duration": 8, "velocity": 88}, {"time": 996, "pitch": 70, "duration": 10, "velocity": 87}, {"time": 1008, "pitch": 70, "duration": 9, "velocity": 87}, {"time": 1020, "pitch": 67, "duration": 5, "velocity": 81}, {"time": 1026, "pitch": 68, "duration": 66, "velocity": 83}, {"time": 1116, "pitch": 68, "duration": 10, "velocity": 91}, {"time": 1128, "pitch": 72, "duration": 32, "velocity": 87}, {"time": 1164, "pitch": 70, "duration": 4, "velocity": 85}, {"time": 1170, "pitch": 68, "duration": 3, "velocity": 76}, {"time": 1176, "pitch": 67, "duration": 3, "velocity": 87}, {"time": 1182, "pitch": 65, "duration": 5, "velocity": 89}, {"time": 1188, "pitch": 63, "duration": 5, "velocity": 82}, {"time": 1194, "pitch": 67, "duration": 15, "velocity": 83}, {"time": 1212, "pitch": 63, "duration": 6, "velocity": 87}, {"time": 1218, "pitch": 65, "duration": 47, "velocity": 87}, {"time": 1338, "pitch": 58, "duration": 5, "velocity": 88}, {"time": 1344, "pitch": 60, "duration": 5, "velocity": 88}, {"time": 1350, "pitch": 61, "duration": 8, "velocity": 84}, {"time": 1362, "pitch": 61, "duration": 5, "velocity": 83}, {"time": 1368, "pitch": 60, "duration": 20, "velocity": 89}, {"time": 1392, "pitch": 60, "duration": 4, "velocity": 89}, {"time": 1398, "pitch": 67, "duration": 10, "velocity": 83}, {"time": 1410, "pitch": 63, "duration": 5, "velocity": 80}, {"time": 1416, "pitch": 65, "duration": 61, "velocity": 88}, {"time": 1512, "pitch": 67, "duration": 8, "velocity": 88}, {"time": 1524, "pitch": 67, "duration": 4, "velocity": 81}, {"time": 1530, "pitch": 67, "duration": 10, "velocity": 87}, {"time": 1542, "pitch": 70, "duration": 4, "velocity": 88}, {"time": 1548, "pitch": 68, "duration": 5, "velocity": 87}, {"time": 1554, "pitch": 67, "duration": 4, "velocity": 87}, {"time": 1560, "pitch": 68, "duration": 5, "velocity": 80}, {"time": 1566, "pitch": 65, "duration": 18, "velocity": 85}, {"time": 1590, "pitch": 65, "duration": 9, "velocity": 93}, {"time": 1602, "pitch": 68, "duration": 4, "velocity": 82}, {"time": 1608, "pitch": 67, "duration": 18, "velocity": 88}, {"time": 1626, "pitch": 65, "duration": 11, "velocity": 87}, {"time": 1638, "pitch": 63, "duration": 6, "velocity": 84}, {"time": 1644, "pitch": 60, "duration": 6, "velocity": 87}, {"time": 1650, "pitch": 65, "duration": 49, "velocity": 87}, {"time": 1716, "pitch": 70, "duration": 4, "velocity": 80}, {"time": 1722, "pitch": 70, "duration": 4, "velocity": 86}, {"time": 1728, "pitch": 70, "duration": 4, "velocity": 84}, {"time": 1734, "pitch": 70, "duration": 11, "velocity": 88}, {"time": 1746, "pitch": 68, "duration": 5, "velocity": 84}, {"time": 1752, "pitch": 65, "duration": 5, "velocity": 89}, {"time": 1758, "pitch": 68, "duration": 23, "velocity": 82}, {"time": 1782, "pitch": 68, "duration": 4, "velocity": 76}, {"time": 1788, "pitch": 68, "duration": 4, "velocity": 87}, {"time": 1794, "pitch": 68, "duration": 4, "velocity": 82}, {"time": 1800, "pitch": 68, "duration": 6, "velocity": 87}, {"time": 1806, "pitch": 63, "duration": 21, "velocity": 83}, {"time": 1830, "pitch": 63, "duration": 5, "velocity": 86}, {"time": 1836, "pitch": 65, "duration": 4, "velocity": 88}, {"time": 1842, "pitch": 63, "duration": 6, "velocity": 83}, {"time": 1848, "pitch": 58, "duration": 18, "velocity": 83}, {"time": 1866, "pitch": 63, "duration": 19, "velocity": 82}, {"time": 1884, "pitch": 60, "duration": 7, "velocity": 84}, {"time": 1890, "pitch": 65, "duration": 51, "velocity": 87}, {"time": 1980, "pitch": 68, "duration": 4, "velocity": 89}, {"time": 1986, "pitch": 70, "duration": 4, "velocity": 88}, {"time": 1992, "pitch": 72, "duration": 16, "velocity": 85}, {"time": 2010, "pitch": 70, "duration": 18, "velocity": 81}, {"time": 2028, "pitch": 68, "duration": 12, "velocity": 81}, {"time": 2040, "pitch": 70, "duration": 6, "velocity": 83}, {"time": 2046, "pitch": 68, "duration": 6, "velocity": 80}, {"time": 2052, "pitch": 65, "duration": 20, "velocity": 86}, {"time": 2070, "pitch": 68, "duration": 3, "velocity": 83}, {"time": 2076, "pitch": 68, "duration": 4, "velocity": 83}, {"time": 2082, "pitch": 67, "duration": 5, "velocity": 87}, {"time": 2088, "pitch": 65, "duration": 10, "velocity": 89}, {"time": 2100, "pitch": 68, "duration": 11, "velocity": 83}, {"time": 2112, "pitch": 67, "duration": 12, "velocity": 89}, {"time": 2124, "pitch": 63, "duration": 6, "velocity": 82}, {"time": 2130, "pitch": 65, "duration": 42, "velocity": 87}, {"time": 2190, "pitch": 65, "duration": 3, "velocity": 88}, {"time": 2196, "pitch": 65, "duration": 4, "velocity": 88}, {"time": 2202, "pitch": 63, "duration": 5, "velocity": 79}, {"time": 2208, "pitch": 65, "duration": 10, "velocity": 88}, {"time": 2220, "pitch": 68, "duration": 5, "velocity": 79}, {"time": 2226, "pitch": 65, "duration": 29, "velocity": 88}, {"time": 2262, "pitch": 65, "duration": 9, "velocity": 88}, {"time": 2274, "pitch": 67, "duration": 5, "velocity": 75}, {"time": 2280, "pitch": 68, "duration": 14, "velocity": 85}, {"time": 2298, "pitch": 68, "duration": 4, "velocity": 85}, {"time": 2304, "pitch": 72, "duration": 4, "velocity": 88}, {"time": 2310, "pitch": 70, "duration": 6, "velocity": 82}, {"time": 2316, "pitch": 68, "duration": 6, "velocity": 84}, {"time": 2322, "pitch": 68, "duration": 7, "velocity": 83}, {"time": 2328, "pitch": 70, "duration": 24, "velocity": 80}, {"time": 2364, "pitch": 68, "duration": 4, "velocity": 89}, {"time": 2370, "pitch": 70, "duration": 4, "velocity": 88}, {"time": 2376, "pitch": 72, "duration": 16, "velocity": 85}, {"time": 2394, "pitch": 70, "duration": 18, "velocity": 81}, {"time": 2412, "pitch": 68, "duration": 12, "velocity": 81}, {"time": 2424, "pitch": 70, "duration": 6, "velocity": 83}, {"time": 2430, "pitch": 68, "duration": 6, "velocity": 80}, {"time": 2436, "pitch": 65, "duration": 20, "velocity": 86}, {"time": 2454, "pitch": 68, "duration": 3, "velocity": 83}, {"time": 2460, "pitch": 68, "duration": 4, "velocity": 83}, {"time": 2466, "pitch": 67, "duration": 5, "velocity": 87}, {"time": 2472, "pitch": 65, "duration": 10, "velocity": 89}, {"time": 2484, "pitch": 68, "duration": 11, "velocity": 83}, {"time": 2496, "pitch": 67, "duration": 12, "velocity": 89}, {"time": 2508, "pitch": 63, "duration": 6, "velocity": 82}, {"time": 2514, "pitch": 65, "duration": 36, "velocity": 87}, {"time": 2556, "pitch": 68, "duration": 4, "velocity": 89}, {"time": 2562, "pitch": 70, "duration": 4, "velocity": 88}, {"time": 2568, "pitch": 72, "duration": 16, "velocity": 85}, {"time": 2586, "pitch": 70, "duration": 18, "velocity": 81}, {"time": 2604, "pitch": 65, "duration": 12, "velocity": 81}, {"time": 2616, "pitch": 70, "duration": 6, "velocity": 83}, {"time": 2622, "pitch": 72, "duration": 6, "velocity": 80}, {"time": 2628, "pitch": 65, "duration": 20, "velocity": 86}, {"time": 2646, "pitch": 68, "duration": 3, "velocity": 83}, {"time": 2652, "pitch": 68, "duration": 4, "velocity": 83}, {"time": 2658, "pitch": 67, "duration": 5, "velocity": 87}, {"time": 2664, "pitch": 65, "duration": 10, "velocity": 89}, {"time": 2676, "pitch": 68, "duration": 11, "velocity": 83}, {"time": 2688, "pitch": 67, "duration": 12, "velocity": 89}, {"time": 2700, "pitch": 63, "duration": 6, "velocity": 82}, {"time": 2706, "pitch": 65, "duration": 42, "velocity": 87}, {"time": 3210, "pitch": 68, "duration": 5, "velocity": 86}, {"time": 3216, "pitch": 68, "duration": 6, "velocity": 88}, {"time": 3222, "pitch": 67, "duration": 12, "velocity": 87}, {"time": 3240, "pitch": 65, "duration": 12, "velocity": 89}, {"time": 3252, "pitch": 68, "duration": 11, "velocity": 85}, {"time": 3264, "pitch": 67, "duration": 9, "velocity": 88}, {"time": 3276, "pitch": 63, "duration": 5, "velocity": 87}, {"time": 3282, "pitch": 65, "duration": 42, "velocity": 88}, {"time": 3402, "pitch": 72, "duration": 4, "velocity": 87}, {"time": 3408, "pitch": 70, "duration": 4, "velocity": 89}, {"time": 3414, "pitch": 68, "duration": 15, "velocity": 87}, {"time": 3432, "pitch": 67, "duration": 8, "velocity": 88}, {"time": 3444, "pitch": 70, "duration": 10, "velocity": 87}, {"time": 3456, "pitch": 70, "duration": 9, "velocity": 87}, {"time": 3468, "pitch": 67, "duration": 5, "velocity": 81}, {"time": 3474, "pitch": 68, "duration": 66, "velocity": 83}, {"time": 3564, "pitch": 68, "duration": 10, "velocity": 91}, {"time": 3576, "pitch": 72, "duration": 32, "velocity": 87}, {"time": 3612, "pitch": 70, "duration": 4, "velocity": 85}, {"time": 3618, "pitch": 68, "duration": 3, "velocity": 76}, {"time": 3624, "pitch": 67, "duration": 3, "velocity": 87}, {"time": 3630, "pitch": 65, "duration": 5, "velocity": 89}, {"time": 3636, "pitch": 63, "duration": 5, "velocity": 82}, {"time": 3642, "pitch": 67, "duration": 15, "velocity": 83}, {"time": 3660, "pitch": 63, "duration": 6, "velocity": 87}, {"time": 3666, "pitch": 65, "duration": 47, "velocity": 87}, {"time": 3786, "pitch": 60, "duration": 5, "velocity": 88}, {"time": 3792, "pitch": 60, "duration": 5, "velocity": 88}, {"time": 3798, "pitch": 63, "duration": 8, "velocity": 84}, {"time": 3816, "pitch": 65, "duration": 12, "velocity": 83}, {"time": 3828, "pitch": 68, "duration": 12, "velocity": 89}, {"time": 3840, "pitch": 67, "duration": 12, "velocity": 83}, {"time": 3852, "pitch": 63, "duration": 5, "velocity": 80}, {"time": 3858, "pitch": 65, "duration": 61, "velocity": 88}, {"time": 3960, "pitch": 67, "duration": 8, "velocity": 88}, {"time": 3972, "pitch": 67, "duration": 4, "velocity": 81}, {"time": 3978, "pitch": 67, "duration": 10, "velocity": 87}, {"time": 3990, "pitch": 70, "duration": 4, "velocity": 88}, {"time": 3996, "pitch": 68, "duration": 5, "velocity": 87}, {"time": 4002, "pitch": 67, "duration": 4, "velocity": 87}, {"time": 4008, "pitch": 68, "duration": 5, "velocity": 80}, {"time": 4014, "pitch": 65, "duration": 18, "velocity": 85}, {"time": 4038, "pitch": 65, "duration": 9, "velocity": 93}, {"time": 4050, "pitch": 68, "duration": 4, "velocity": 82}, {"time": 4056, "pitch": 67, "duration": 18, "velocity": 88}, {"time": 4074, "pitch": 65, "duration": 11, "velocity": 87}, {"time": 4086, "pitch": 63, "duration": 6, "velocity": 84}, {"time": 4092, "pitch": 60, "duration": 6, "velocity": 87}, {"time": 4098, "pitch": 65, "duration": 49, "velocity": 87}, {"time": 4164, "pitch": 70, "duration": 4, "velocity": 80}, {"time": 4170, "pitch": 70, "duration": 4, "velocity": 86}, {"time": 4176, "pitch": 70, "duration": 4, "velocity": 84}, {"time": 4182, "pitch": 70, "duration": 11, "velocity": 88}, {"time": 4194, "pitch": 68, "duration": 5, "velocity": 84}, {"time": 4200, "pitch": 65, "duration": 5, "velocity": 89}, {"time": 4206, "pitch": 68, "duration": 23, "velocity": 82}, {"time": 4230, "pitch": 68, "duration": 4, "velocity": 76}, {"time": 4236, "pitch": 68, "duration": 4, "velocity": 87}, {"time": 4242, "pitch": 68, "duration": 4, "velocity": 82}, {"time": 4248, "pitch": 68, "duration": 6, "velocity": 87}, {"time": 4254, "pitch": 63, "duration": 21, "velocity": 83}, {"time": 4278, "pitch": 63, "duration": 5, "velocity": 86}, {"time": 4284, "pitch": 65, "duration": 4, "velocity": 88}, {"time": 4290, "pitch": 63, "duration": 6, "velocity": 83}, {"time": 4296, "pitch": 58, "duration": 18, "velocity": 83}, {"time": 4314, "pitch": 63, "duration": 19, "velocity": 82}, {"time": 4332, "pitch": 60, "duration": 7, "velocity": 84}, {"time": 4338, "pitch": 65, "duration": 51, "velocity": 87}, {"time": 4428, "pitch": 68, "duration": 4, "velocity": 89}, {"time": 4434, "pitch": 70, "duration": 4, "velocity": 88}, {"time": 4440, "pitch": 72, "duration": 16, "velocity": 85}, {"time": 4458, "pitch": 70, "duration": 18, "velocity": 81}, {"time": 4476, "pitch": 68, "duration": 12, "velocity": 81}, {"time": 4488, "pitch": 70, "duration": 6, "velocity": 83}, {"time": 4494, "pitch": 68, "duration": 6, "velocity": 80}, {"time": 4500, "pitch": 65, "duration": 20, "velocity": 86}, {"time": 4518, "pitch": 68, "duration": 3, "velocity": 83}, {"time": 4524, "pitch": 68, "duration": 4, "velocity": 83}, {"time": 4530, "pitch": 67, "duration": 5, "velocity": 87}, {"time": 4536, "pitch": 65, "duration": 10, "velocity": 89}, {"time": 4548, "pitch": 68, "duration": 11, "velocity": 83}, {"time": 4560, "pitch": 67, "duration": 12, "velocity": 89}, {"time": 4572, "pitch": 63, "duration": 6, "velocity": 82}, {"time": 4578, "pitch": 65, "duration": 42, "velocity": 87}, {"time": 4638, "pitch": 65, "duration": 3, "velocity": 88}, {"time": 4644, "pitch": 65, "duration": 4, "velocity": 88}, {"time": 4650, "pitch": 63, "duration": 5, "velocity": 79}, {"time": 4656, "pitch": 65, "duration": 10, "velocity": 88}, {"time": 4668, "pitch": 68, "duration": 5, "velocity": 79}, {"time": 4674, "pitch": 65, "duration": 29, "velocity": 88}, {"time": 4710, "pitch": 65, "duration": 9, "velocity": 88}, {"time": 4722, "pitch": 67, "duration": 5, "velocity": 75}, {"time": 4728, "pitch": 68, "duration": 14, "velocity": 85}, {"time": 4746, "pitch": 68, "duration": 4, "velocity": 85}, {"time": 4752, "pitch": 72, "duration": 4, "velocity": 88}, {"time": 4758, "pitch": 70, "duration": 6, "velocity": 82}, {"time": 4764, "pitch": 68, "duration": 6, "velocity": 84}, {"time": 4770, "pitch": 68, "duration": 7, "velocity": 83}, {"time": 4776, "pitch": 70, "duration": 24, "velocity": 80}, {"time": 4812, "pitch": 68, "duration": 4, "velocity": 89}, {"time": 4818, "pitch": 70, "duration": 4, "velocity": 88}, {"time": 4824, "pitch": 72, "duration": 16, "velocity": 85}, {"time": 4842, "pitch": 70, "duration": 18, "velocity": 81}, {"time": 4860, "pitch": 68, "duration": 12, "velocity": 81}, {"time": 4872, "pitch": 70, "duration": 6, "velocity": 83}, {"time": 4878, "pitch": 68, "duration": 6, "velocity": 80}, {"time": 4884, "pitch": 65, "duration": 20, "velocity": 86}, {"time": 4902, "pitch": 68, "duration": 3, "velocity": 83}, {"time": 4908, "pitch": 68, "duration": 4, "velocity": 83}, {"time": 4914, "pitch": 67, "duration": 5, "velocity": 87}, {"time": 4920, "pitch": 65, "duration": 10, "velocity": 89}, {"time": 4932, "pitch": 68, "duration": 11, "velocity": 83}, {"time": 4944, "pitch": 67, "duration": 12, "velocity": 89}, {"time": 4956, "pitch": 63, "duration": 6, "velocity": 82}, {"time": 4962, "pitch": 65, "duration": 36, "velocity": 87}, {"time": 5004, "pitch": 68, "duration": 4, "velocity": 89}, {"time": 5010, "pitch": 70, "duration": 4, "velocity": 88}, {"time": 5016, "pitch": 72, "duration": 16, "velocity": 85}, {"time": 5034, "pitch": 70, "duration": 18, "velocity": 81}, {"time": 5052, "pitch": 65, "duration": 12, "velocity": 81}, {"time": 5064, "pitch": 70, "duration": 6, "velocity": 83}, {"time": 5070, "pitch": 72, "duration": 6, "velocity": 80}, {"time": 5076, "pitch": 65, "duration": 20, "velocity": 86}, {"time": 5094, "pitch": 68, "duration": 3, "velocity": 83}, {"time": 5100, "pitch": 68, "duration": 4, "velocity": 83}, {"time": 5106, "pitch": 67, "duration": 5, "velocity": 87}, {"time": 5112, "pitch": 65, "duration": 10, "velocity": 89}, {"time": 5124, "pitch": 68, "duration": 11, "velocity": 83}, {"time": 5136, "pitch": 67, "duration": 12, "velocity": 89}, {"time": 5148, "pitch": 63, "duration": 6, "velocity": 82}, {"time": 5154, "pitch": 65, "duration": 42, "velocity": 87}, {"time": 5196, "pitch": 68, "duration": 4, "velocity": 89}, {"time": 5202, "pitch": 70, "duration": 4, "velocity": 88}, {"time": 5208, "pitch": 72, "duration": 16, "velocity": 85}, {"time": 5226, "pitch": 70, "duration": 18, "velocity": 81}, {"time": 5244, "pitch": 68, "duration": 12, "velocity": 81}, {"time": 5256, "pitch": 70, "duration": 6, "velocity": 83}, {"time": 5262, "pitch": 68, "duration": 6, "velocity": 80}, {"time": 5268, "pitch": 65, "duration": 20, "velocity": 86}, {"time": 5286, "pitch": 68, "duration": 3, "velocity": 83}, {"time": 5292, "pitch": 68, "duration": 4, "velocity": 83}, {"time": 5298, "pitch": 67, "duration": 5, "velocity": 87}, {"time": 5304, "pitch": 65, "duration": 10, "velocity": 89}, {"time": 5316, "pitch": 68, "duration": 11, "velocity": 83}, {"time": 5328, "pitch": 67, "duration": 12, "velocity": 89}, {"time": 5340, "pitch": 63, "duration": 6, "velocity": 82}, {"time": 5346, "pitch": 65, "duration": 42, "velocity": 87}, {"time": 5406, "pitch": 65, "duration": 3, "velocity": 88}, {"time": 5412, "pitch": 65, "duration": 4, "velocity": 88}, {"time": 5418, "pitch": 63, "duration": 5, "velocity": 79}, {"time": 5424, "pitch": 65, "duration": 10, "velocity": 88}, {"time": 5436, "pitch": 68, "duration": 5, "velocity": 79}, {"time": 5442, "pitch": 65, "duration": 29, "velocity": 88}, {"time": 5478, "pitch": 65, "duration": 9, "velocity": 88}, {"time": 5490, "pitch": 67, "duration": 5, "velocity": 75}, {"time": 5496, "pitch": 68, "duration": 14, "velocity": 85}, {"time": 5514, "pitch": 68, "duration": 4, "velocity": 85}, {"time": 5520, "pitch": 72, "duration": 4, "velocity": 88}, {"time": 5526, "pitch": 70, "duration": 6, "velocity": 82}, {"time": 5532, "pitch": 68, "duration": 6, "velocity": 84}, {"time": 5538, "pitch": 68, "duration": 7, "velocity": 83}, {"time": 5544, "pitch": 70, "duration": 24, "velocity": 80}, {"time": 5580, "pitch": 68, "duration": 4, "velocity": 89}, {"time": 5586, "pitch": 70, "duration": 4, "velocity": 88}, {"time": 5592, "pitch": 72, "duration": 16, "velocity": 85}, {"time": 5610, "pitch": 70, "duration": 18, "velocity": 81}, {"time": 5628, "pitch": 68, "duration": 12, "velocity": 81}, {"time": 5640, "pitch": 70, "duration": 6, "velocity": 83}, {"time": 5646, "pitch": 68, "duration": 6, "velocity": 80}, {"time": 5652, "pitch": 65, "duration": 20, "velocity": 86}, {"time": 5670, "pitch": 68, "duration": 3, "velocity": 83}, {"time": 5676, "pitch": 68, "duration": 4, "velocity": 83}, {"time": 5682, "pitch": 67, "duration": 5, "velocity": 87}, {"time": 5688, "pitch": 65, "duration": 10, "velocity": 89}, {"time": 5700, "pitch": 68, "duration": 11, "velocity": 83}, {"time": 5712, "pitch": 67, "duration": 12, "velocity": 89}, {"time": 5724, "pitch": 63, "duration": 6, "velocity": 82}, {"time": 5730, "pitch": 65, "duration": 36, "velocity": 87}, {"time": 5772, "pitch": 68, "duration": 4, "velocity": 89}, {"time": 5778, "pitch": 70, "duration": 4, "velocity": 88}, {"time": 5784, "pitch": 72, "duration": 16, "velocity": 85}, {"time": 5802, "pitch": 70, "duration": 18, "velocity": 81}, {"time": 5820, "pitch": 65, "duration": 12, "velocity": 81}, {"time": 5832, "pitch": 70, "duration": 6, "velocity": 83}, {"time": 5838, "pitch": 72, "duration": 6, "velocity": 80}, {"time": 5844, "pitch": 65, "duration": 20, "velocity": 86}, {"time": 5862, "pitch": 68, "duration": 3, "velocity": 83}, {"time": 5868, "pitch": 68, "duration": 4, "velocity": 83}, {"time": 5874, "pitch": 67, "duration": 5, "velocity": 87}, {"time": 5880, "pitch": 65, "duration": 10, "velocity": 89}, {"time": 5892, "pitch": 68, "duration": 11, "velocity": 83}, {"time": 5904, "pitch": 67, "duration": 12, "velocity": 89}, {"time": 5916, "pitch": 63, "duration": 6, "velocity": 82}, {"time": 5922, "pitch": 65, "duration": 42, "velocity": 87}]}, {"program": 0, "is_drum": false, "name": "BRIDGE", "notes": [{"time": 216, "pitch": 89, "duration": 5, "velocity": 87}, {"time": 222, "pitch": 84, "duration": 7, "velocity": 80}, {"time": 228, "pitch": 82, "duration": 7, "velocity": 79}, {"time": 234, "pitch": 84, "duration": 11, "velocity": 82}, {"time": 240, "pitch": 77, "duration": 4, "velocity": 84}, {"time": 246, "pitch": 77, "duration": 6, "velocity": 83}, {"time": 252, "pitch": 89, "duration": 7, "velocity": 87}, {"time": 258, "pitch": 84, "duration": 7, "velocity": 82}, {"time": 264, "pitch": 82, "duration": 7, "velocity": 82}, {"time": 270, "pitch": 84, "duration": 8, "velocity": 82}, {"time": 276, "pitch": 77, "duration": 4, "velocity": 81}, {"time": 282, "pitch": 77, "duration": 29, "velocity": 87}, {"time": 312, "pitch": 89, "duration": 5, "velocity": 87}, {"time": 318, "pitch": 84, "duration": 7, "velocity": 80}, {"time": 324, "pitch": 82, "duration": 7, "velocity": 79}, {"time": 330, "pitch": 84, "duration": 11, "velocity": 82}, {"time": 336, "pitch": 77, "duration": 4, "velocity": 84}, {"time": 342, "pitch": 77, "duration": 6, "velocity": 83}, {"time": 348, "pitch": 89, "duration": 7, "velocity": 87}, {"time": 354, "pitch": 84, "duration": 7, "velocity": 82}, {"time": 360, "pitch": 82, "duration": 7, "velocity": 82}, {"time": 366, "pitch": 84, "duration": 8, "velocity": 82}, {"time": 372, "pitch": 77, "duration": 4, "velocity": 81}, {"time": 378, "pitch": 77, "duration": 29, "velocity": 87}, {"time": 408, "pitch": 89, "duration": 5, "velocity": 87}, {"time": 414, "pitch": 84, "duration": 7, "velocity": 80}, {"time": 420, "pitch": 82, "duration": 7, "velocity": 79}, {"time": 426, "pitch": 84, "duration": 11, "velocity": 82}, {"time": 432, "pitch": 77, "duration": 4, "velocity": 84}, {"time": 438, "pitch": 77, "duration": 6, "velocity": 83}, {"time": 444, "pitch": 89, "duration": 7, "velocity": 87}, {"time": 450, "pitch": 84, "duration": 7, "velocity": 82}, {"time": 456, "pitch": 82, "duration": 7, "velocity": 82}, {"time": 462, "pitch": 84, "duration": 8, "velocity": 82}, {"time": 468, "pitch": 77, "duration": 4, "velocity": 81}, {"time": 474, "pitch": 77, "duration": 29, "velocity": 87}, {"time": 480, "pitch": 75, "duration": 13, "velocity": 104}, {"time": 492, "pitch": 70, "duration": 12, "velocity": 92}, {"time": 504, "pitch": 72, "duration": 64, "velocity": 88}, {"time": 504, "pitch": 89, "duration": 5, "velocity": 87}, {"time": 510, "pitch": 84, "duration": 7, "velocity": 80}, {"time": 516, "pitch": 82, "duration": 7, "velocity": 79}, {"time": 522, "pitch": 84, "duration": 11, "velocity": 82}, {"time": 528, "pitch": 77, "duration": 4, "velocity": 84}, {"time": 534, "pitch": 77, "duration": 6, "velocity": 83}, {"time": 540, "pitch": 89, "duration": 7, "velocity": 87}, {"time": 546, "pitch": 84, "duration": 7, "velocity": 82}, {"time": 552, "pitch": 82, "duration": 7, "velocity": 82}, {"time": 558, "pitch": 84, "duration": 8, "velocity": 82}, {"time": 564, "pitch": 77, "duration": 4, "velocity": 81}, {"time": 570, "pitch": 77, "duration": 29, "velocity": 87}, {"time": 600, "pitch": 89, "duration": 5, "velocity": 87}, {"time": 606, "pitch": 84, "duration": 7, "velocity": 80}, {"time": 612, "pitch": 82, "duration": 7, "velocity": 79}, {"time": 618, "pitch": 84, "duration": 11, "velocity": 82}, {"time": 624, "pitch": 77, "duration": 4, "velocity": 84}, {"time": 630, "pitch": 77, "duration": 6, "velocity": 83}, {"time": 636, "pitch": 89, "duration": 7, "velocity": 87}, {"time": 642, "pitch": 84, "duration": 7, "velocity": 82}, {"time": 648, "pitch": 82, "duration": 7, "velocity": 82}, {"time": 654, "pitch": 84, "duration": 8, "velocity": 82}, {"time": 660, "pitch": 77, "duration": 4, "velocity": 81}, {"time": 666, "pitch": 77, "duration": 48, "velocity": 87}, {"time": 846, "pitch": 72, "duration": 4, "velocity": 83}, {"time": 852, "pitch": 84, "duration": 8, "velocity": 87}, {"time": 858, "pitch": 72, "duration": 5, "velocity": 83}, {"time": 864, "pitch": 77, "duration": 8, "velocity": 77}, {"time": 870, "pitch": 84, "duration": 9, "velocity": 87}, {"time": 876, "pitch": 72, "duration": 4, "velocity": 74}, {"time": 882, "pitch": 72, "duration": 6, "velocity": 77}, {"time": 888, "pitch": 84, "duration": 12, "velocity": 81}, {"time": 894, "pitch": 72, "duration": 12, "velocity": 75}, {"time": 900, "pitch": 77, "duration": 7, "velocity": 83}, {"time": 906, "pitch": 84, "duration": 4, "velocity": 83}, {"time": 912, "pitch": 89, "duration": 7, "velocity": 85}, {"time": 918, "pitch": 84, "duration": 7, "velocity": 77}, {"time": 924, "pitch": 77, "duration": 10, "velocity": 87}, {"time": 1032, "pitch": 65, "duration": 13, "velocity": 81}, {"time": 1038, "pitch": 70, "duration": 7, "velocity": 64}, {"time": 1044, "pitch": 72, "duration": 15, "velocity": 81}, {"time": 1050, "pitch": 65, "duration": 8, "velocity": 81}, {"time": 1056, "pitch": 77, "duration": 23, "velocity": 84}, {"time": 1062, "pitch": 65, "duration": 7, "velocity": 81}, {"time": 1068, "pitch": 72, "duration": 18, "velocity": 79}, {"time": 1074, "pitch": 65, "duration": 8, "velocity": 76}, {"time": 1080, "pitch": 70, "duration": 13, "velocity": 78}, {"time": 1086, "pitch": 65, "duration": 8, "velocity": 80}, {"time": 1092, "pitch": 72, "duration": 19, "velocity": 76}, {"time": 1098, "pitch": 65, "duration": 7, "velocity": 76}, {"time": 1104, "pitch": 77, "duration": 20, "velocity": 88}, {"time": 1110, "pitch": 65, "duration": 9, "velocity": 81}, {"time": 1116, "pitch": 72, "duration": 9, "velocity": 77}, {"time": 1122, "pitch": 70, "duration": 5, "velocity": 72}, {"time": 1122, "pitch": 77, "duration": 2, "velocity": 89}, {"time": 1128, "pitch": 72, "duration": 3, "velocity": 80}, {"time": 1224, "pitch": 73, "duration": 8, "velocity": 90}, {"time": 1230, "pitch": 77, "duration": 7, "velocity": 78}, {"time": 1236, "pitch": 80, "duration": 7, "velocity": 83}, {"time": 1242, "pitch": 85, "duration": 6, "velocity": 88}, {"time": 1248, "pitch": 89, "duration": 12, "velocity": 88}, {"time": 1260, "pitch": 85, "duration": 11, "velocity": 80}, {"time": 1272, "pitch": 72, "duration": 7, "velocity": 75}, {"time": 1278, "pitch": 75, "duration": 17, "velocity": 82}, {"time": 1284, "pitch": 80, "duration": 12, "velocity": 83}, {"time": 1290, "pitch": 87, "duration": 29, "velocity": 83}, {"time": 1302, "pitch": 80, "duration": 17, "velocity": 74}, {"time": 1308, "pitch": 75, "duration": 11, "velocity": 74}, {"time": 1416, "pitch": 89, "duration": 5, "velocity": 87}, {"time": 1422, "pitch": 84, "duration": 7, "velocity": 80}, {"time": 1428, "pitch": 82, "duration": 7, "velocity": 79}, {"time": 1434, "pitch": 84, "duration": 11, "velocity": 82}, {"time": 1440, "pitch": 77, "duration": 4, "velocity": 84}, {"time": 1446, "pitch": 77, "duration": 6, "velocity": 83}, {"time": 1452, "pitch": 89, "duration": 7, "velocity": 87}, {"time": 1458, "pitch": 84, "duration": 7, "velocity": 82}, {"time": 1464, "pitch": 82, "duration": 7, "velocity": 82}, {"time": 1470, "pitch": 84, "duration": 8, "velocity": 82}, {"time": 1476, "pitch": 77, "duration": 4, "velocity": 81}, {"time": 1482, "pitch": 77, "duration": 29, "velocity": 87}, {"time": 1512, "pitch": 75, "duration": 37, "velocity": 88}, {"time": 1548, "pitch": 72, "duration": 12, "velocity": 78}, {"time": 1560, "pitch": 73, "duration": 45, "velocity": 79}, {"time": 1608, "pitch": 75, "duration": 38, "velocity": 83}, {"time": 1644, "pitch": 72, "duration": 13, "velocity": 76}, {"time": 1656, "pitch": 68, "duration": 7, "velocity": 82}, {"time": 1662, "pitch": 70, "duration": 7, "velocity": 79}, {"time": 1668, "pitch": 72, "duration": 8, "velocity": 86}, {"time": 1674, "pitch": 65, "duration": 11, "velocity": 88}, {"time": 1680, "pitch": 77, "duration": 21, "velocity": 87}, {"time": 1686, "pitch": 72, "duration": 7, "velocity": 69}, {"time": 1692, "pitch": 70, "duration": 11, "velocity": 73}, {"time": 1704, "pitch": 70, "duration": 41, "velocity": 72}, {"time": 1704, "pitch": 73, "duration": 42, "velocity": 76}, {"time": 1896, "pitch": 89, "duration": 5, "velocity": 87}, {"time": 1902, "pitch": 84, "duration": 7, "velocity": 80}, {"time": 1908, "pitch": 82, "duration": 7, "velocity": 79}, {"time": 1914, "pitch": 84, "duration": 11, "velocity": 82}, {"time": 1920, "pitch": 77, "duration": 4, "velocity": 84}, {"time": 1926, "pitch": 77, "duration": 6, "velocity": 83}, {"time": 1932, "pitch": 89, "duration": 7, "velocity": 87}, {"time": 1938, "pitch": 84, "duration": 7, "velocity": 82}, {"time": 1944, "pitch": 82, "duration": 7, "velocity": 82}, {"time": 1950, "pitch": 84, "duration": 8, "velocity": 82}, {"time": 1956, "pitch": 77, "duration": 4, "velocity": 81}, {"time": 1962, "pitch": 77, "duration": 29, "velocity": 87}, {"time": 1992, "pitch": 68, "duration": 26, "velocity": 73}, {"time": 1992, "pitch": 72, "duration": 46, "velocity": 81}, {"time": 2016, "pitch": 75, "duration": 22, "velocity": 83}, {"time": 2028, "pitch": 68, "duration": 6, "velocity": 72}, {"time": 2040, "pitch": 70, "duration": 39, "velocity": 76}, {"time": 2040, "pitch": 74, "duration": 38, "velocity": 74}, {"time": 2088, "pitch": 73, "duration": 24, "velocity": 76}, {"time": 2088, "pitch": 77, "duration": 25, "velocity": 85}, {"time": 2112, "pitch": 75, "duration": 12, "velocity": 87}, {"time": 2124, "pitch": 72, "duration": 14, "velocity": 86}, {"time": 2136, "pitch": 77, "duration": 44, "velocity": 88}, {"time": 2184, "pitch": 82, "duration": 44, "velocity": 85}, {"time": 2232, "pitch": 80, "duration": 46, "velocity": 86}, {"time": 2280, "pitch": 73, "duration": 31, "velocity": 73}, {"time": 2280, "pitch": 77, "duration": 44, "velocity": 81}, {"time": 2328, "pitch": 75, "duration": 8, "velocity": 89}, {"time": 2334, "pitch": 67, "duration": 6, "velocity": 86}, {"time": 2340, "pitch": 70, "duration": 7, "velocity": 81}, {"time": 2346, "pitch": 75, "duration": 15, "velocity": 98}, {"time": 2363, "pitch": 61, "duration": 1, "velocity": 58}, {"time": 2364, "pitch": 63, "duration": 1, "velocity": 58}, {"time": 2365, "pitch": 65, "duration": 1, "velocity": 58}, {"time": 2365, "pitch": 66, "duration": 2, "velocity": 58}, {"time": 2366, "pitch": 68, "duration": 2, "velocity": 58}, {"time": 2367, "pitch": 70, "duration": 3, "velocity": 55}, {"time": 2368, "pitch": 72, "duration": 3, "velocity": 53}, {"time": 2370, "pitch": 73, "duration": 3, "velocity": 53}, {"time": 2371, "pitch": 75, "duration": 3, "velocity": 53}, {"time": 2372, "pitch": 77, "duration": 3, "velocity": 53}, {"time": 2374, "pitch": 78, "duration": 2, "velocity": 53}, {"time": 2376, "pitch": 72, "duration": 24, "velocity": 87}, {"time": 2400, "pitch": 75, "duration": 11, "velocity": 88}, {"time": 2412, "pitch": 80, "duration": 14, "velocity": 82}, {"time": 2424, "pitch": 82, "duration": 36, "velocity": 82}, {"time": 2460, "pitch": 77, "duration": 14, "velocity": 83}, {"time": 2472, "pitch": 80, "duration": 24, "velocity": 81}, {"time": 2496, "pitch": 79, "duration": 13, "velocity": 75}, {"time": 2508, "pitch": 75, "duration": 13, "velocity": 85}, {"time": 2520, "pitch": 77, "duration": 44, "velocity": 86}, {"time": 2568, "pitch": 80, "duration": 36, "velocity": 85}, {"time": 2604, "pitch": 79, "duration": 8, "velocity": 72}, {"time": 2610, "pitch": 80, "duration": 7, "velocity": 86}, {"time": 2616, "pitch": 82, "duration": 46, "velocity": 87}, {"time": 2652, "pitch": 77, "duration": 8, "velocity": 87}, {"time": 2664, "pitch": 77, "duration": 20, "velocity": 85}, {"time": 2664, "pitch": 80, "duration": 19, "velocity": 80}, {"time": 2688, "pitch": 79, "duration": 19, "velocity": 79}, {"time": 2688, "pitch": 82, "duration": 20, "velocity": 86}, {"time": 2712, "pitch": 80, "duration": 45, "velocity": 78}, {"time": 2712, "pitch": 84, "duration": 45, "velocity": 82}, {"time": 2760, "pitch": 89, "duration": 5, "velocity": 87}, {"time": 2766, "pitch": 84, "duration": 7, "velocity": 80}, {"time": 2772, "pitch": 82, "duration": 7, "velocity": 79}, {"time": 2778, "pitch": 84, "duration": 11, "velocity": 82}, {"time": 2784, "pitch": 77, "duration": 4, "velocity": 84}, {"time": 2790, "pitch": 77, "duration": 6, "velocity": 83}, {"time": 2796, "pitch": 89, "duration": 7, "velocity": 87}, {"time": 2802, "pitch": 84, "duration": 7, "velocity": 82}, {"time": 2808, "pitch": 82, "duration": 7, "velocity": 82}, {"time": 2814, "pitch": 84, "duration": 8, "velocity": 82}, {"time": 2820, "pitch": 77, "duration": 4, "velocity": 81}, {"time": 2826, "pitch": 77, "duration": 29, "velocity": 87}, {"time": 2856, "pitch": 89, "duration": 5, "velocity": 87}, {"time": 2862, "pitch": 84, "duration": 7, "velocity": 80}, {"time": 2868, "pitch": 82, "duration": 7, "velocity": 79}, {"time": 2874, "pitch": 84, "duration": 11, "velocity": 82}, {"time": 2880, "pitch": 77, "duration": 4, "velocity": 84}, {"time": 2886, "pitch": 77, "duration": 6, "velocity": 83}, {"time": 2892, "pitch": 89, "duration": 7, "velocity": 87}, {"time": 2898, "pitch": 84, "duration": 7, "velocity": 82}, {"time": 2904, "pitch": 82, "duration": 7, "velocity": 82}, {"time": 2910, "pitch": 84, "duration": 8, "velocity": 82}, {"time": 2916, "pitch": 77, "duration": 4, "velocity": 81}, {"time": 2922, "pitch": 77, "duration": 29, "velocity": 87}, {"time": 2928, "pitch": 75, "duration": 13, "velocity": 104}, {"time": 2940, "pitch": 70, "duration": 12, "velocity": 92}, {"time": 2952, "pitch": 72, "duration": 64, "velocity": 88}, {"time": 2952, "pitch": 89, "duration": 5, "velocity": 87}, {"time": 2958, "pitch": 84, "duration": 7, "velocity": 80}, {"time": 2964, "pitch": 82, "duration": 7, "velocity": 79}, {"time": 2970, "pitch": 84, "duration": 11, "velocity": 82}, {"time": 2976, "pitch": 77, "duration": 4, "velocity": 84}, {"time": 2982, "pitch": 77, "duration": 6, "velocity": 83}, {"time": 2988, "pitch": 89, "duration": 7, "velocity": 87}, {"time": 2994, "pitch": 84, "duration": 7, "velocity": 82}, {"time": 3000, "pitch": 82, "duration": 7, "velocity": 82}, {"time": 3006, "pitch": 84, "duration": 8, "velocity": 82}, {"time": 3012, "pitch": 77, "duration": 4, "velocity": 81}, {"time": 3018, "pitch": 77, "duration": 29, "velocity": 87}, {"time": 3048, "pitch": 89, "duration": 5, "velocity": 87}, {"time": 3054, "pitch": 84, "duration": 7, "velocity": 80}, {"time": 3060, "pitch": 82, "duration": 7, "velocity": 79}, {"time": 3066, "pitch": 84, "duration": 11, "velocity": 82}, {"time": 3072, "pitch": 77, "duration": 4, "velocity": 84}, {"time": 3078, "pitch": 77, "duration": 6, "velocity": 83}, {"time": 3084, "pitch": 89, "duration": 7, "velocity": 87}, {"time": 3090, "pitch": 84, "duration": 7, "velocity": 82}, {"time": 3096, "pitch": 82, "duration": 7, "velocity": 82}, {"time": 3102, "pitch": 84, "duration": 8, "velocity": 82}, {"time": 3108, "pitch": 77, "duration": 4, "velocity": 81}, {"time": 3114, "pitch": 77, "duration": 48, "velocity": 87}, {"time": 3294, "pitch": 72, "duration": 4, "velocity": 83}, {"time": 3300, "pitch": 84, "duration": 8, "velocity": 87}, {"time": 3306, "pitch": 72, "duration": 5, "velocity": 83}, {"time": 3312, "pitch": 77, "duration": 8, "velocity": 77}, {"time": 3318, "pitch": 84, "duration": 9, "velocity": 87}, {"time": 3324, "pitch": 72, "duration": 4, "velocity": 74}, {"time": 3330, "pitch": 72, "duration": 6, "velocity": 77}, {"time": 3336, "pitch": 84, "duration": 12, "velocity": 81}, {"time": 3342, "pitch": 72, "duration": 12, "velocity": 75}, {"time": 3348, "pitch": 77, "duration": 7, "velocity": 83}, {"time": 3354, "pitch": 84, "duration": 4, "velocity": 83}, {"time": 3360, "pitch": 89, "duration": 7, "velocity": 85}, {"time": 3366, "pitch": 84, "duration": 7, "velocity": 77}, {"time": 3372, "pitch": 77, "duration": 10, "velocity": 87}, {"time": 3480, "pitch": 65, "duration": 13, "velocity": 81}, {"time": 3486, "pitch": 70, "duration": 7, "velocity": 64}, {"time": 3492, "pitch": 72, "duration": 15, "velocity": 81}, {"time": 3498, "pitch": 65, "duration": 8, "velocity": 81}, {"time": 3504, "pitch": 77, "duration": 23, "velocity": 84}, {"time": 3510, "pitch": 65, "duration": 7, "velocity": 81}, {"time": 3516, "pitch": 72, "duration": 18, "velocity": 79}, {"time": 3522, "pitch": 65, "duration": 8, "velocity": 76}, {"time": 3528, "pitch": 70, "duration": 13, "velocity": 78}, {"time": 3534, "pitch": 65, "duration": 8, "velocity": 80}, {"time": 3540, "pitch": 72, "duration": 19, "velocity": 76}, {"time": 3546, "pitch": 65, "duration": 7, "velocity": 76}, {"time": 3552, "pitch": 77, "duration": 20, "velocity": 88}, {"time": 3558, "pitch": 65, "duration": 9, "velocity": 81}, {"time": 3564, "pitch": 72, "duration": 9, "velocity": 77}, {"time": 3570, "pitch": 70, "duration": 5, "velocity": 72}, {"time": 3570, "pitch": 77, "duration": 2, "velocity": 89}, {"time": 3576, "pitch": 72, "duration": 3, "velocity": 80}, {"time": 3672, "pitch": 73, "duration": 8, "velocity": 90}, {"time": 3678, "pitch": 77, "duration": 7, "velocity": 78}, {"time": 3684, "pitch": 80, "duration": 7, "velocity": 83}, {"time": 3690, "pitch": 85, "duration": 6, "velocity": 88}, {"time": 3696, "pitch": 89, "duration": 12, "velocity": 88}, {"time": 3708, "pitch": 85, "duration": 11, "velocity": 80}, {"time": 3720, "pitch": 72, "duration": 7, "velocity": 75}, {"time": 3726, "pitch": 75, "duration": 17, "velocity": 82}, {"time": 3732, "pitch": 80, "duration": 12, "velocity": 83}, {"time": 3738, "pitch": 87, "duration": 29, "velocity": 83}, {"time": 3750, "pitch": 80, "duration": 17, "velocity": 74}, {"time": 3756, "pitch": 75, "duration": 11, "velocity": 74}, {"time": 3864, "pitch": 89, "duration": 5, "velocity": 87}, {"time": 3870, "pitch": 84, "duration": 7, "velocity": 80}, {"time": 3876, "pitch": 82, "duration": 7, "velocity": 79}, {"time": 3882, "pitch": 84, "duration": 11, "velocity": 82}, {"time": 3888, "pitch": 77, "duration": 4, "velocity": 84}, {"time": 3894, "pitch": 77, "duration": 6, "velocity": 83}, {"time": 3900, "pitch": 89, "duration": 7, "velocity": 87}, {"time": 3906, "pitch": 84, "duration": 7, "velocity": 82}, {"time": 3912, "pitch": 82, "duration": 7, "velocity": 82}, {"time": 3918, "pitch": 84, "duration": 8, "velocity": 82}, {"time": 3924, "pitch": 77, "duration": 4, "velocity": 81}, {"time": 3930, "pitch": 77, "duration": 29, "velocity": 87}, {"time": 3960, "pitch": 75, "duration": 37, "velocity": 88}, {"time": 3996, "pitch": 72, "duration": 12, "velocity": 78}, {"time": 4008, "pitch": 73, "duration": 45, "velocity": 79}, {"time": 4056, "pitch": 75, "duration": 38, "velocity": 83}, {"time": 4092, "pitch": 72, "duration": 13, "velocity": 76}, {"time": 4104, "pitch": 68, "duration": 7, "velocity": 82}, {"time": 4110, "pitch": 70, "duration": 7, "velocity": 79}, {"time": 4116, "pitch": 72, "duration": 8, "velocity": 86}, {"time": 4122, "pitch": 65, "duration": 11, "velocity": 88}, {"time": 4128, "pitch": 77, "duration": 21, "velocity": 87}, {"time": 4134, "pitch": 72, "duration": 7, "velocity": 69}, {"time": 4140, "pitch": 70, "duration": 11, "velocity": 73}, {"time": 4152, "pitch": 70, "duration": 41, "velocity": 72}, {"time": 4152, "pitch": 73, "duration": 42, "velocity": 76}, {"time": 4344, "pitch": 89, "duration": 5, "velocity": 87}, {"time": 4350, "pitch": 84, "duration": 7, "velocity": 80}, {"time": 4356, "pitch": 82, "duration": 7, "velocity": 79}, {"time": 4362, "pitch": 84, "duration": 11, "velocity": 82}, {"time": 4368, "pitch": 77, "duration": 4, "velocity": 84}, {"time": 4374, "pitch": 77, "duration": 6, "velocity": 83}, {"time": 4380, "pitch": 89, "duration": 7, "velocity": 87}, {"time": 4386, "pitch": 84, "duration": 7, "velocity": 82}, {"time": 4392, "pitch": 82, "duration": 7, "velocity": 82}, {"time": 4398, "pitch": 84, "duration": 8, "velocity": 82}, {"time": 4404, "pitch": 77, "duration": 4, "velocity": 81}, {"time": 4410, "pitch": 77, "duration": 29, "velocity": 87}, {"time": 4440, "pitch": 68, "duration": 26, "velocity": 73}, {"time": 4440, "pitch": 72, "duration": 46, "velocity": 81}, {"time": 4464, "pitch": 75, "duration": 22, "velocity": 83}, {"time": 4476, "pitch": 68, "duration": 6, "velocity": 72}, {"time": 4488, "pitch": 70, "duration": 39, "velocity": 76}, {"time": 4488, "pitch": 74, "duration": 38, "velocity": 74}, {"time": 4536, "pitch": 73, "duration": 24, "velocity": 76}, {"time": 4536, "pitch": 77, "duration": 25, "velocity": 85}, {"time": 4560, "pitch": 75, "duration": 12, "velocity": 87}, {"time": 4572, "pitch": 72, "duration": 14, "velocity": 86}, {"time": 4584, "pitch": 77, "duration": 44, "velocity": 88}, {"time": 4632, "pitch": 82, "duration": 44, "velocity": 85}, {"time": 4680, "pitch": 80, "duration": 46, "velocity": 86}, {"time": 4728, "pitch": 73, "duration": 31, "velocity": 73}, {"time": 4728, "pitch": 77, "duration": 44, "velocity": 81}, {"time": 4776, "pitch": 75, "duration": 8, "velocity": 89}, {"time": 4782, "pitch": 67, "duration": 6, "velocity": 86}, {"time": 4788, "pitch": 70, "duration": 7, "velocity": 81}, {"time": 4794, "pitch": 75, "duration": 15, "velocity": 98}, {"time": 4811, "pitch": 61, "duration": 1, "velocity": 58}, {"time": 4812, "pitch": 63, "duration": 1, "velocity": 58}, {"time": 4813, "pitch": 65, "duration": 1, "velocity": 58}, {"time": 4813, "pitch": 66, "duration": 2, "velocity": 58}, {"time": 4814, "pitch": 68, "duration": 2, "velocity": 58}, {"time": 4815, "pitch": 70, "duration": 3, "velocity": 55}, {"time": 4816, "pitch": 72, "duration": 3, "velocity": 53}, {"time": 4818, "pitch": 73, "duration": 3, "velocity": 53}, {"time": 4819, "pitch": 75, "duration": 3, "velocity": 53}, {"time": 4820, "pitch": 77, "duration": 3, "velocity": 53}, {"time": 4822, "pitch": 78, "duration": 2, "velocity": 53}, {"time": 4824, "pitch": 72, "duration": 24, "velocity": 87}, {"time": 4848, "pitch": 75, "duration": 11, "velocity": 88}, {"time": 4860, "pitch": 80, "duration": 14, "velocity": 82}, {"time": 4872, "pitch": 82, "duration": 36, "velocity": 82}, {"time": 4908, "pitch": 77, "duration": 14, "velocity": 83}, {"time": 4920, "pitch": 80, "duration": 24, "velocity": 81}, {"time": 4944, "pitch": 79, "duration": 13, "velocity": 75}, {"time": 4956, "pitch": 75, "duration": 13, "velocity": 85}, {"time": 4968, "pitch": 77, "duration": 44, "velocity": 86}, {"time": 5016, "pitch": 80, "duration": 36, "velocity": 85}, {"time": 5052, "pitch": 79, "duration": 8, "velocity": 72}, {"time": 5058, "pitch": 80, "duration": 7, "velocity": 86}, {"time": 5064, "pitch": 82, "duration": 46, "velocity": 87}, {"time": 5100, "pitch": 77, "duration": 8, "velocity": 87}, {"time": 5112, "pitch": 77, "duration": 20, "velocity": 85}, {"time": 5112, "pitch": 80, "duration": 19, "velocity": 80}, {"time": 5136, "pitch": 79, "duration": 19, "velocity": 79}, {"time": 5136, "pitch": 82, "duration": 20, "velocity": 86}, {"time": 5160, "pitch": 80, "duration": 45, "velocity": 78}, {"time": 5160, "pitch": 84, "duration": 45, "velocity": 82}, {"time": 5208, "pitch": 68, "duration": 26, "velocity": 73}, {"time": 5208, "pitch": 72, "duration": 46, "velocity": 81}, {"time": 5232, "pitch": 75, "duration": 22, "velocity": 83}, {"time": 5244, "pitch": 68, "duration": 6, "velocity": 72}, {"time": 5256, "pitch": 70, "duration": 39, "velocity": 76}, {"time": 5256, "pitch": 74, "duration": 38, "velocity": 74}, {"time": 5304, "pitch": 73, "duration": 24, "velocity": 76}, {"time": 5304, "pitch": 77, "duration": 25, "velocity": 85}, {"time": 5328, "pitch": 75, "duration": 12, "velocity": 87}, {"time": 5340, "pitch": 72, "duration": 14, "velocity": 86}, {"time": 5352, "pitch": 77, "duration": 44, "velocity": 88}, {"time": 5400, "pitch": 82, "duration": 44, "velocity": 85}, {"time": 5448, "pitch": 80, "duration": 46, "velocity": 86}, {"time": 5496, "pitch": 73, "duration": 31, "velocity": 73}, {"time": 5496, "pitch": 77, "duration": 44, "velocity": 81}, {"time": 5544, "pitch": 75, "duration": 8, "velocity": 89}, {"time": 5550, "pitch": 67, "duration": 6, "velocity": 86}, {"time": 5556, "pitch": 70, "duration": 7, "velocity": 81}, {"time": 5562, "pitch": 75, "duration": 15, "velocity": 98}, {"time": 5579, "pitch": 61, "duration": 1, "velocity": 58}, {"time": 5580, "pitch": 63, "duration": 1, "velocity": 58}, {"time": 5581, "pitch": 65, "duration": 1, "velocity": 58}, {"time": 5581, "pitch": 66, "duration": 2, "velocity": 58}, {"time": 5582, "pitch": 68, "duration": 2, "velocity": 58}, {"time": 5583, "pitch": 70, "duration": 3, "velocity": 55}, {"time": 5584, "pitch": 72, "duration": 3, "velocity": 53}, {"time": 5586, "pitch": 73, "duration": 3, "velocity": 53}, {"time": 5587, "pitch": 75, "duration": 3, "velocity": 53}, {"time": 5588, "pitch": 77, "duration": 3, "velocity": 53}, {"time": 5590, "pitch": 78, "duration": 2, "velocity": 53}, {"time": 5592, "pitch": 72, "duration": 24, "velocity": 87}, {"time": 5616, "pitch": 75, "duration": 11, "velocity": 88}, {"time": 5628, "pitch": 80, "duration": 14, "velocity": 82}, {"time": 5640, "pitch": 82, "duration": 36, "velocity": 82}, {"time": 5676, "pitch": 77, "duration": 14, "velocity": 83}, {"time": 5688, "pitch": 80, "duration": 24, "velocity": 81}, {"time": 5712, "pitch": 79, "duration": 13, "velocity": 75}, {"time": 5724, "pitch": 75, "duration": 13, "velocity": 85}, {"time": 5736, "pitch": 77, "duration": 44, "velocity": 86}, {"time": 5784, "pitch": 80, "duration": 36, "velocity": 85}, {"time": 5820, "pitch": 79, "duration": 8, "velocity": 72}, {"time": 5826, "pitch": 80, "duration": 7, "velocity": 86}, {"time": 5832, "pitch": 82, "duration": 46, "velocity": 87}, {"time": 5868, "pitch": 77, "duration": 8, "velocity": 87}, {"time": 5880, "pitch": 77, "duration": 20, "velocity": 85}, {"time": 5880, "pitch": 80, "duration": 19, "velocity": 80}, {"time": 5904, "pitch": 79, "duration": 19, "velocity": 79}, {"time": 5904, "pitch": 82, "duration": 20, "velocity": 86}, {"time": 5928, "pitch": 80, "duration": 45, "velocity": 78}, {"time": 5928, "pitch": 84, "duration": 45, "velocity": 82}, {"time": 5976, "pitch": 89, "duration": 5, "velocity": 87}, {"time": 5982, "pitch": 84, "duration": 7, "velocity": 80}, {"time": 5988, "pitch": 82, "duration": 7, "velocity": 79}, {"time": 5994, "pitch": 84, "duration": 11, "velocity": 82}, {"time": 6000, "pitch": 77, "duration": 4, "velocity": 84}, {"time": 6006, "pitch": 77, "duration": 6, "velocity": 83}, {"time": 6012, "pitch": 89, "duration": 7, "velocity": 87}, {"time": 6018, "pitch": 84, "duration": 7, "velocity": 82}, {"time": 6024, "pitch": 82, "duration": 7, "velocity": 82}, {"time": 6030, "pitch": 84, "duration": 8, "velocity": 82}, {"time": 6036, "pitch": 77, "duration": 4, "velocity": 81}, {"time": 6042, "pitch": 77, "duration": 29, "velocity": 87}, {"time": 6072, "pitch": 89, "duration": 5, "velocity": 87}, {"time": 6078, "pitch": 84, "duration": 7, "velocity": 80}, {"time": 6084, "pitch": 82, "duration": 7, "velocity": 79}, {"time": 6090, "pitch": 84, "duration": 11, "velocity": 82}, {"time": 6096, "pitch": 77, "duration": 4, "velocity": 84}, {"time": 6102, "pitch": 77, "duration": 6, "velocity": 83}, {"time": 6108, "pitch": 89, "duration": 7, "velocity": 87}, {"time": 6114, "pitch": 84, "duration": 7, "velocity": 82}, {"time": 6120, "pitch": 82, "duration": 7, "velocity": 82}, {"time": 6126, "pitch": 84, "duration": 8, "velocity": 82}, {"time": 6132, "pitch": 77, "duration": 4, "velocity": 81}, {"time": 6138, "pitch": 77, "duration": 29, "velocity": 87}, {"time": 6144, "pitch": 75, "duration": 13, "velocity": 104}, {"time": 6156, "pitch": 70, "duration": 12, "velocity": 92}, {"time": 6168, "pitch": 72, "duration": 64, "velocity": 88}, {"time": 6168, "pitch": 89, "duration": 5, "velocity": 87}, {"time": 6174, "pitch": 84, "duration": 7, "velocity": 80}, {"time": 6180, "pitch": 82, "duration": 7, "velocity": 79}, {"time": 6186, "pitch": 84, "duration": 11, "velocity": 82}, {"time": 6192, "pitch": 77, "duration": 4, "velocity": 84}, {"time": 6198, "pitch": 77, "duration": 6, "velocity": 83}, {"time": 6204, "pitch": 89, "duration": 7, "velocity": 87}, {"time": 6210, "pitch": 84, "duration": 7, "velocity": 82}, {"time": 6216, "pitch": 82, "duration": 7, "velocity": 82}, {"time": 6222, "pitch": 84, "duration": 8, "velocity": 82}, {"time": 6228, "pitch": 77, "duration": 4, "velocity": 81}, {"time": 6234, "pitch": 77, "duration": 29, "velocity": 87}, {"time": 6264, "pitch": 89, "duration": 5, "velocity": 87}, {"time": 6270, "pitch": 84, "duration": 7, "velocity": 80}, {"time": 6276, "pitch": 82, "duration": 7, "velocity": 79}, {"time": 6282, "pitch": 84, "duration": 11, "velocity": 82}, {"time": 6288, "pitch": 77, "duration": 4, "velocity": 84}, {"time": 6294, "pitch": 77, "duration": 6, "velocity": 83}, {"time": 6300, "pitch": 89, "duration": 7, "velocity": 87}, {"time": 6306, "pitch": 84, "duration": 7, "velocity": 82}, {"time": 6312, "pitch": 82, "duration": 7, "velocity": 82}, {"time": 6318, "pitch": 84, "duration": 8, "velocity": 82}, {"time": 6324, "pitch": 77, "duration": 4, "velocity": 81}, {"time": 6330, "pitch": 77, "duration": 30, "velocity": 87}, {"time": 6360, "pitch": 89, "duration": 5, "velocity": 87}, {"time": 6366, "pitch": 84, "duration": 7, "velocity": 80}, {"time": 6372, "pitch": 82, "duration": 7, "velocity": 79}, {"time": 6378, "pitch": 84, "duration": 11, "velocity": 82}, {"time": 6384, "pitch": 77, "duration": 4, "velocity": 84}, {"time": 6390, "pitch": 77, "duration": 6, "velocity": 83}, {"time": 6396, "pitch": 89, "duration": 7, "velocity": 87}, {"time": 6402, "pitch": 84, "duration": 7, "velocity": 82}, {"time": 6408, "pitch": 82, "duration": 7, "velocity": 82}, {"time": 6414, "pitch": 84, "duration": 8, "velocity": 82}, {"time": 6420, "pitch": 77, "duration": 4, "velocity": 81}, {"time": 6426, "pitch": 77, "duration": 29, "velocity": 87}, {"time": 6456, "pitch": 89, "duration": 5, "velocity": 87}, {"time": 6462, "pitch": 84, "duration": 7, "velocity": 80}, {"time": 6468, "pitch": 82, "duration": 7, "velocity": 79}, {"time": 6474, "pitch": 84, "duration": 11, "velocity": 82}, {"time": 6480, "pitch": 77, "duration": 4, "velocity": 84}, {"time": 6486, "pitch": 77, "duration": 6, "velocity": 83}, {"time": 6492, "pitch": 89, "duration": 7, "velocity": 87}, {"time": 6498, "pitch": 84, "duration": 7, "velocity": 82}, {"time": 6504, "pitch": 82, "duration": 7, "velocity": 82}, {"time": 6510, "pitch": 84, "duration": 8, "velocity": 82}, {"time": 6516, "pitch": 77, "duration": 4, "velocity": 81}, {"time": 6522, "pitch": 77, "duration": 29, "velocity": 87}, {"time": 6528, "pitch": 75, "duration": 13, "velocity": 104}, {"time": 6540, "pitch": 70, "duration": 12, "velocity": 92}, {"time": 6552, "pitch": 72, "duration": 64, "velocity": 88}, {"time": 6552, "pitch": 89, "duration": 5, "velocity": 87}, {"time": 6558, "pitch": 84, "duration": 7, "velocity": 80}, {"time": 6564, "pitch": 82, "duration": 7, "velocity": 79}, {"time": 6570, "pitch": 84, "duration": 11, "velocity": 82}, {"time": 6576, "pitch": 77, "duration": 4, "velocity": 84}, {"time": 6582, "pitch": 77, "duration": 6, "velocity": 83}, {"time": 6588, "pitch": 89, "duration": 7, "velocity": 87}, {"time": 6594, "pitch": 84, "duration": 7, "velocity": 82}, {"time": 6600, "pitch": 82, "duration": 7, "velocity": 82}, {"time": 6606, "pitch": 84, "duration": 8, "velocity": 82}, {"time": 6612, "pitch": 77, "duration": 4, "velocity": 81}, {"time": 6618, "pitch": 77, "duration": 29, "velocity": 87}]}, {"program": 0, "is_drum": false, "name": "PIANO", "notes": [{"time": 309, "pitch": 53, "duration": 15, "velocity": 77}, {"time": 311, "pitch": 56, "duration": 13, "velocity": 83}, {"time": 311, "pitch": 41, "duration": 84, "velocity": 91}, {"time": 312, "pitch": 60, "duration": 11, "velocity": 83}, {"time": 313, "pitch": 65, "duration": 9, "velocity": 92}, {"time": 344, "pitch": 48, "duration": 50, "velocity": 31}, {"time": 347, "pitch": 53, "duration": 3, "velocity": 74}, {"time": 353, "pitch": 53, "duration": 2, "velocity": 83}, {"time": 353, "pitch": 60, "duration": 3, "velocity": 80}, {"time": 383, "pitch": 60, "duration": 8, "velocity": 76}, {"time": 383, "pitch": 53, "duration": 2, "velocity": 74}, {"time": 383, "pitch": 65, "duration": 7, "velocity": 76}, {"time": 389, "pitch": 53, "duration": 2, "velocity": 71}, {"time": 405, "pitch": 56, "duration": 14, "velocity": 66}, {"time": 406, "pitch": 61, "duration": 13, "velocity": 75}, {"time": 407, "pitch": 37, "duration": 3, "velocity": 87}, {"time": 408, "pitch": 65, "duration": 11, "velocity": 84}, {"time": 426, "pitch": 56, "duration": 1, "velocity": 64}, {"time": 437, "pitch": 65, "duration": 5, "velocity": 72}, {"time": 437, "pitch": 56, "duration": 6, "velocity": 62}, {"time": 438, "pitch": 61, "duration": 5, "velocity": 76}, {"time": 450, "pitch": 56, "duration": 2, "velocity": 52}, {"time": 456, "pitch": 56, "duration": 2, "velocity": 70}, {"time": 456, "pitch": 61, "duration": 3, "velocity": 70}, {"time": 456, "pitch": 49, "duration": 15, "velocity": 71}, {"time": 485, "pitch": 61, "duration": 6, "velocity": 78}, {"time": 486, "pitch": 56, "duration": 1, "velocity": 75}, {"time": 491, "pitch": 56, "duration": 2, "velocity": 86}, {"time": 500, "pitch": 53, "duration": 4, "velocity": 79}, {"time": 502, "pitch": 56, "duration": 6, "velocity": 81}, {"time": 503, "pitch": 60, "duration": 6, "velocity": 81}, {"time": 503, "pitch": 41, "duration": 86, "velocity": 90}, {"time": 503, "pitch": 65, "duration": 7, "velocity": 91}, {"time": 510, "pitch": 48, "duration": 69, "velocity": 72}, {"time": 515, "pitch": 53, "duration": 3, "velocity": 79}, {"time": 521, "pitch": 60, "duration": 3, "velocity": 76}, {"time": 521, "pitch": 53, "duration": 3, "velocity": 78}, {"time": 533, "pitch": 60, "duration": 7, "velocity": 74}, {"time": 539, "pitch": 53, "duration": 8, "velocity": 77}, {"time": 546, "pitch": 60, "duration": 3, "velocity": 73}, {"time": 551, "pitch": 65, "duration": 5, "velocity": 88}, {"time": 557, "pitch": 53, "duration": 3, "velocity": 75}, {"time": 576, "pitch": 56, "duration": 7, "velocity": 79}, {"time": 576, "pitch": 60, "duration": 9, "velocity": 82}, {"time": 581, "pitch": 53, "duration": 3, "velocity": 86}, {"time": 587, "pitch": 48, "duration": 2, "velocity": 79}, {"time": 597, "pitch": 56, "duration": 6, "velocity": 73}, {"time": 599, "pitch": 61, "duration": 7, "velocity": 81}, {"time": 599, "pitch": 37, "duration": 3, "velocity": 88}, {"time": 600, "pitch": 65, "duration": 7, "velocity": 83}, {"time": 605, "pitch": 56, "duration": 3, "velocity": 73}, {"time": 623, "pitch": 56, "duration": 3, "velocity": 81}, {"time": 623, "pitch": 65, "duration": 4, "velocity": 86}, {"time": 629, "pitch": 61, "duration": 7, "velocity": 71}, {"time": 635, "pitch": 56, "duration": 3, "velocity": 67}, {"time": 641, "pitch": 61, "duration": 27, "velocity": 78}, {"time": 642, "pitch": 56, "duration": 25, "velocity": 73}, {"time": 665, "pitch": 49, "duration": 8, "velocity": 73}, {"time": 672, "pitch": 56, "duration": 9, "velocity": 84}, {"time": 672, "pitch": 61, "duration": 14, "velocity": 84}, {"time": 677, "pitch": 49, "duration": 10, "velocity": 80}, {"time": 684, "pitch": 56, "duration": 4, "velocity": 68}, {"time": 744, "pitch": 41, "duration": 37, "velocity": 89}, {"time": 750, "pitch": 48, "duration": 31, "velocity": 80}, {"time": 756, "pitch": 53, "duration": 20, "velocity": 89}, {"time": 762, "pitch": 60, "duration": 16, "velocity": 82}, {"time": 774, "pitch": 65, "duration": 6, "velocity": 87}, {"time": 792, "pitch": 37, "duration": 16, "velocity": 82}, {"time": 792, "pitch": 56, "duration": 7, "velocity": 78}, {"time": 792, "pitch": 65, "duration": 15, "velocity": 86}, {"time": 798, "pitch": 44, "duration": 11, "velocity": 75}, {"time": 804, "pitch": 56, "duration": 7, "velocity": 79}, {"time": 816, "pitch": 39, "duration": 13, "velocity": 88}, {"time": 816, "pitch": 58, "duration": 8, "velocity": 77}, {"time": 816, "pitch": 63, "duration": 12, "velocity": 81}, {"time": 822, "pitch": 46, "duration": 6, "velocity": 74}, {"time": 828, "pitch": 58, "duration": 8, "velocity": 86}, {"time": 834, "pitch": 63, "duration": 5, "velocity": 84}, {"time": 840, "pitch": 41, "duration": 45, "velocity": 86}, {"time": 840, "pitch": 65, "duration": 22, "velocity": 86}, {"time": 846, "pitch": 48, "duration": 39, "velocity": 69}, {"time": 852, "pitch": 53, "duration": 8, "velocity": 82}, {"time": 858, "pitch": 60, "duration": 4, "velocity": 81}, {"time": 870, "pitch": 56, "duration": 4, "velocity": 76}, {"time": 882, "pitch": 65, "duration": 18, "velocity": 89}, {"time": 888, "pitch": 41, "duration": 29, "velocity": 85}, {"time": 894, "pitch": 48, "duration": 23, "velocity": 74}, {"time": 900, "pitch": 53, "duration": 16, "velocity": 87}, {"time": 906, "pitch": 65, "duration": 20, "velocity": 88}, {"time": 918, "pitch": 60, "duration": 8, "velocity": 81}, {"time": 924, "pitch": 53, "duration": 2, "velocity": 86}, {"time": 936, "pitch": 44, "duration": 36, "velocity": 87}, {"time": 936, "pitch": 56, "duration": 7, "velocity": 78}, {"time": 936, "pitch": 63, "duration": 9, "velocity": 77}, {"time": 942, "pitch": 51, "duration": 29, "velocity": 78}, {"time": 948, "pitch": 56, "duration": 9, "velocity": 84}, {"time": 954, "pitch": 68, "duration": 4, "velocity": 82}, {"time": 966, "pitch": 63, "duration": 8, "velocity": 80}, {"time": 984, "pitch": 39, "duration": 37, "velocity": 89}, {"time": 984, "pitch": 58, "duration": 7, "velocity": 73}, {"time": 984, "pitch": 63, "duration": 14, "velocity": 83}, {"time": 990, "pitch": 46, "duration": 31, "velocity": 74}, {"time": 996, "pitch": 58, "duration": 4, "velocity": 81}, {"time": 1002, "pitch": 67, "duration": 14, "velocity": 81}, {"time": 1014, "pitch": 63, "duration": 8, "velocity": 86}, {"time": 1032, "pitch": 41, "duration": 44, "velocity": 87}, {"time": 1032, "pitch": 60, "duration": 8, "velocity": 79}, {"time": 1032, "pitch": 65, "duration": 14, "velocity": 85}, {"time": 1038, "pitch": 48, "duration": 38, "velocity": 73}, {"time": 1044, "pitch": 60, "duration": 2, "velocity": 74}, {"time": 1050, "pitch": 60, "duration": 3, "velocity": 84}, {"time": 1050, "pitch": 65, "duration": 3, "velocity": 88}, {"time": 1074, "pitch": 60, "duration": 12, "velocity": 75}, {"time": 1080, "pitch": 41, "duration": 39, "velocity": 88}, {"time": 1080, "pitch": 65, "duration": 12, "velocity": 81}, {"time": 1086, "pitch": 48, "duration": 34, "velocity": 74}, {"time": 1092, "pitch": 60, "duration": 3, "velocity": 73}, {"time": 1098, "pitch": 60, "duration": 4, "velocity": 83}, {"time": 1098, "pitch": 65, "duration": 2, "velocity": 80}, {"time": 1098, "pitch": 68, "duration": 5, "velocity": 83}, {"time": 1116, "pitch": 65, "duration": 5, "velocity": 87}, {"time": 1122, "pitch": 60, "duration": 2, "velocity": 80}, {"time": 1128, "pitch": 44, "duration": 33, "velocity": 87}, {"time": 1128, "pitch": 56, "duration": 7, "velocity": 82}, {"time": 1128, "pitch": 60, "duration": 9, "velocity": 82}, {"time": 1134, "pitch": 51, "duration": 27, "velocity": 75}, {"time": 1140, "pitch": 56, "duration": 2, "velocity": 80}, {"time": 1146, "pitch": 56, "duration": 3, "velocity": 87}, {"time": 1146, "pitch": 63, "duration": 3, "velocity": 85}, {"time": 1158, "pitch": 56, "duration": 2, "velocity": 83}, {"time": 1158, "pitch": 60, "duration": 2, "velocity": 85}, {"time": 1176, "pitch": 39, "duration": 26, "velocity": 88}, {"time": 1176, "pitch": 58, "duration": 7, "velocity": 74}, {"time": 1176, "pitch": 63, "duration": 12, "velocity": 79}, {"time": 1182, "pitch": 46, "duration": 19, "velocity": 61}, {"time": 1188, "pitch": 58, "duration": 3, "velocity": 76}, {"time": 1194, "pitch": 58, "duration": 3, "velocity": 78}, {"time": 1194, "pitch": 67, "duration": 5, "velocity": 78}, {"time": 1206, "pitch": 63, "duration": 6, "velocity": 80}, {"time": 1212, "pitch": 58, "duration": 2, "velocity": 72}, {"time": 1224, "pitch": 49, "duration": 32, "velocity": 81}, {"time": 1224, "pitch": 56, "duration": 3, "velocity": 75}, {"time": 1224, "pitch": 61, "duration": 7, "velocity": 78}, {"time": 1230, "pitch": 56, "duration": 8, "velocity": 66}, {"time": 1236, "pitch": 61, "duration": 3, "velocity": 80}, {"time": 1254, "pitch": 63, "duration": 12, "velocity": 83}, {"time": 1260, "pitch": 49, "duration": 7, "velocity": 81}, {"time": 1266, "pitch": 56, "duration": 4, "velocity": 78}, {"time": 1272, "pitch": 44, "duration": 39, "velocity": 84}, {"time": 1272, "pitch": 56, "duration": 6, "velocity": 80}, {"time": 1272, "pitch": 60, "duration": 13, "velocity": 81}, {"time": 1278, "pitch": 51, "duration": 27, "velocity": 77}, {"time": 1284, "pitch": 56, "duration": 8, "velocity": 83}, {"time": 1290, "pitch": 60, "duration": 4, "velocity": 88}, {"time": 1302, "pitch": 56, "duration": 6, "velocity": 83}, {"time": 1302, "pitch": 63, "duration": 7, "velocity": 83}, {"time": 1308, "pitch": 51, "duration": 4, "velocity": 81}, {"time": 1320, "pitch": 46, "duration": 34, "velocity": 88}, {"time": 1320, "pitch": 58, "duration": 6, "velocity": 78}, {"time": 1320, "pitch": 65, "duration": 13, "velocity": 86}, {"time": 1326, "pitch": 53, "duration": 28, "velocity": 79}, {"time": 1332, "pitch": 58, "duration": 3, "velocity": 83}, {"time": 1338, "pitch": 58, "duration": 8, "velocity": 79}, {"time": 1338, "pitch": 61, "duration": 8, "velocity": 82}, {"time": 1350, "pitch": 58, "duration": 3, "velocity": 76}, {"time": 1350, "pitch": 65, "duration": 4, "velocity": 84}, {"time": 1368, "pitch": 48, "duration": 33, "velocity": 84}, {"time": 1368, "pitch": 60, "duration": 7, "velocity": 74}, {"time": 1368, "pitch": 63, "duration": 11, "velocity": 82}, {"time": 1374, "pitch": 55, "duration": 20, "velocity": 78}, {"time": 1380, "pitch": 60, "duration": 7, "velocity": 82}, {"time": 1386, "pitch": 67, "duration": 14, "velocity": 78}, {"time": 1392, "pitch": 63, "duration": 12, "velocity": 83}, {"time": 1398, "pitch": 60, "duration": 7, "velocity": 89}, {"time": 1404, "pitch": 55, "duration": 2, "velocity": 82}, {"time": 1410, "pitch": 60, "duration": 8, "velocity": 83}, {"time": 1416, "pitch": 41, "duration": 44, "velocity": 83}, {"time": 1416, "pitch": 65, "duration": 8, "velocity": 82}, {"time": 1422, "pitch": 60, "duration": 18, "velocity": 80}, {"time": 1428, "pitch": 48, "duration": 26, "velocity": 77}, {"time": 1440, "pitch": 68, "duration": 19, "velocity": 81}, {"time": 1446, "pitch": 60, "duration": 7, "velocity": 76}, {"time": 1452, "pitch": 65, "duration": 7, "velocity": 83}, {"time": 1458, "pitch": 60, "duration": 2, "velocity": 62}, {"time": 1464, "pitch": 41, "duration": 36, "velocity": 90}, {"time": 1464, "pitch": 60, "duration": 7, "velocity": 79}, {"time": 1464, "pitch": 65, "duration": 13, "velocity": 85}, {"time": 1470, "pitch": 48, "duration": 15, "velocity": 74}, {"time": 1476, "pitch": 60, "duration": 2, "velocity": 72}, {"time": 1482, "pitch": 60, "duration": 13, "velocity": 83}, {"time": 1482, "pitch": 65, "duration": 17, "velocity": 84}, {"time": 1482, "pitch": 68, "duration": 17, "velocity": 82}, {"time": 1494, "pitch": 48, "duration": 6, "velocity": 80}, {"time": 1500, "pitch": 60, "duration": 2, "velocity": 77}, {"time": 1512, "pitch": 48, "duration": 41, "velocity": 91}, {"time": 1512, "pitch": 60, "duration": 13, "velocity": 87}, {"time": 1512, "pitch": 63, "duration": 14, "velocity": 87}, {"time": 1512, "pitch": 67, "duration": 19, "velocity": 87}, {"time": 1524, "pitch": 55, "duration": 14, "velocity": 77}, {"time": 1530, "pitch": 60, "duration": 8, "velocity": 75}, {"time": 1536, "pitch": 67, "duration": 18, "velocity": 91}, {"time": 1542, "pitch": 55, "duration": 5, "velocity": 75}, {"time": 1548, "pitch": 60, "duration": 8, "velocity": 87}, {"time": 1554, "pitch": 63, "duration": 7, "velocity": 83}, {"time": 1560, "pitch": 49, "duration": 38, "velocity": 87}, {"time": 1560, "pitch": 65, "duration": 14, "velocity": 88}, {"time": 1566, "pitch": 56, "duration": 15, "velocity": 75}, {"time": 1572, "pitch": 61, "duration": 8, "velocity": 78}, {"time": 1578, "pitch": 68, "duration": 14, "velocity": 74}, {"time": 1590, "pitch": 65, "duration": 13, "velocity": 89}, {"time": 1596, "pitch": 56, "duration": 2, "velocity": 83}, {"time": 1602, "pitch": 61, "duration": 3, "velocity": 76}, {"time": 1608, "pitch": 39, "duration": 28, "velocity": 87}, {"time": 1608, "pitch": 63, "duration": 13, "velocity": 84}, {"time": 1614, "pitch": 46, "duration": 19, "velocity": 74}, {"time": 1620, "pitch": 58, "duration": 8, "velocity": 80}, {"time": 1626, "pitch": 67, "duration": 14, "velocity": 91}, {"time": 1638, "pitch": 63, "duration": 8, "velocity": 88}, {"time": 1644, "pitch": 58, "duration": 5, "velocity": 81}, {"time": 1656, "pitch": 41, "duration": 34, "velocity": 87}, {"time": 1656, "pitch": 65, "duration": 14, "velocity": 88}, {"time": 1662, "pitch": 48, "duration": 28, "velocity": 75}, {"time": 1668, "pitch": 60, "duration": 4, "velocity": 74}, {"time": 1674, "pitch": 60, "duration": 3, "velocity": 80}, {"time": 1674, "pitch": 68, "duration": 13, "velocity": 87}, {"time": 1686, "pitch": 65, "duration": 6, "velocity": 89}, {"time": 1692, "pitch": 60, "duration": 3, "velocity": 83}, {"time": 1704, "pitch": 46, "duration": 27, "velocity": 87}, {"time": 1704, "pitch": 58, "duration": 6, "velocity": 79}, {"time": 1704, "pitch": 65, "duration": 13, "velocity": 84}, {"time": 1710, "pitch": 53, "duration": 15, "velocity": 76}, {"time": 1716, "pitch": 58, "duration": 4, "velocity": 80}, {"time": 1722, "pitch": 61, "duration": 18, "velocity": 88}, {"time": 1734, "pitch": 53, "duration": 7, "velocity": 78}, {"time": 1740, "pitch": 58, "duration": 7, "velocity": 77}, {"time": 1746, "pitch": 61, "duration": 3, "velocity": 76}, {"time": 1752, "pitch": 49, "duration": 24, "velocity": 86}, {"time": 1752, "pitch": 56, "duration": 5, "velocity": 80}, {"time": 1752, "pitch": 61, "duration": 8, "velocity": 86}, {"time": 1758, "pitch": 56, "duration": 8, "velocity": 80}, {"time": 1764, "pitch": 61, "duration": 4, "velocity": 80}, {"time": 1770, "pitch": 65, "duration": 3, "velocity": 93}, {"time": 1782, "pitch": 61, "duration": 6, "velocity": 84}, {"time": 1788, "pitch": 56, "duration": 3, "velocity": 87}, {"time": 1800, "pitch": 44, "duration": 36, "velocity": 83}, {"time": 1800, "pitch": 56, "duration": 17, "velocity": 81}, {"time": 1800, "pitch": 63, "duration": 12, "velocity": 83}, {"time": 1806, "pitch": 51, "duration": 27, "velocity": 78}, {"time": 1812, "pitch": 60, "duration": 4, "velocity": 76}, {"time": 1818, "pitch": 68, "duration": 7, "velocity": 89}, {"time": 1830, "pitch": 63, "duration": 8, "velocity": 88}, {"time": 1836, "pitch": 56, "duration": 4, "velocity": 91}, {"time": 1842, "pitch": 51, "duration": 2, "velocity": 88}, {"time": 1848, "pitch": 46, "duration": 20, "velocity": 88}, {"time": 1848, "pitch": 58, "duration": 6, "velocity": 80}, {"time": 1848, "pitch": 61, "duration": 12, "velocity": 82}, {"time": 1854, "pitch": 53, "duration": 15, "velocity": 80}, {"time": 1860, "pitch": 58, "duration": 8, "velocity": 82}, {"time": 1866, "pitch": 61, "duration": 4, "velocity": 86}, {"time": 1872, "pitch": 48, "duration": 18, "velocity": 89}, {"time": 1872, "pitch": 60, "duration": 8, "velocity": 83}, {"time": 1872, "pitch": 63, "duration": 12, "velocity": 83}, {"time": 1878, "pitch": 55, "duration": 3, "velocity": 91}, {"time": 1884, "pitch": 60, "duration": 7, "velocity": 94}, {"time": 1890, "pitch": 63, "duration": 6, "velocity": 92}, {"time": 1896, "pitch": 41, "duration": 44, "velocity": 89}, {"time": 1896, "pitch": 65, "duration": 13, "velocity": 87}, {"time": 1902, "pitch": 48, "duration": 31, "velocity": 72}, {"time": 1908, "pitch": 60, "duration": 3, "velocity": 75}, {"time": 1914, "pitch": 60, "duration": 2, "velocity": 82}, {"time": 1914, "pitch": 68, "duration": 3, "velocity": 81}, {"time": 1926, "pitch": 60, "duration": 2, "velocity": 77}, {"time": 1926, "pitch": 65, "duration": 2, "velocity": 81}, {"time": 1944, "pitch": 41, "duration": 45, "velocity": 88}, {"time": 1944, "pitch": 60, "duration": 7, "velocity": 78}, {"time": 1944, "pitch": 65, "duration": 13, "velocity": 84}, {"time": 1950, "pitch": 48, "duration": 15, "velocity": 73}, {"time": 1956, "pitch": 60, "duration": 2, "velocity": 75}, {"time": 1962, "pitch": 60, "duration": 3, "velocity": 88}, {"time": 1962, "pitch": 68, "duration": 4, "velocity": 87}, {"time": 1974, "pitch": 65, "duration": 13, "velocity": 90}, {"time": 1980, "pitch": 48, "duration": 10, "velocity": 80}, {"time": 1986, "pitch": 60, "duration": 5, "velocity": 89}, {"time": 1992, "pitch": 44, "duration": 27, "velocity": 88}, {"time": 1992, "pitch": 56, "duration": 10, "velocity": 86}, {"time": 1992, "pitch": 63, "duration": 9, "velocity": 84}, {"time": 1998, "pitch": 51, "duration": 20, "velocity": 82}, {"time": 2004, "pitch": 60, "duration": 7, "velocity": 87}, {"time": 2010, "pitch": 63, "duration": 2, "velocity": 88}, {"time": 2016, "pitch": 56, "duration": 4, "velocity": 89}, {"time": 2016, "pitch": 68, "duration": 5, "velocity": 88}, {"time": 2022, "pitch": 51, "duration": 8, "velocity": 82}, {"time": 2028, "pitch": 56, "duration": 2, "velocity": 82}, {"time": 2028, "pitch": 63, "duration": 13, "velocity": 83}, {"time": 2034, "pitch": 56, "duration": 7, "velocity": 84}, {"time": 2040, "pitch": 46, "duration": 31, "velocity": 89}, {"time": 2040, "pitch": 62, "duration": 14, "velocity": 79}, {"time": 2046, "pitch": 53, "duration": 23, "velocity": 82}, {"time": 2052, "pitch": 58, "duration": 11, "velocity": 86}, {"time": 2058, "pitch": 62, "duration": 1, "velocity": 54}, {"time": 2058, "pitch": 65, "duration": 7, "velocity": 87}, {"time": 2064, "pitch": 70, "duration": 13, "velocity": 91}, {"time": 2070, "pitch": 65, "duration": 7, "velocity": 88}, {"time": 2076, "pitch": 62, "duration": 7, "velocity": 89}, {"time": 2082, "pitch": 58, "duration": 4, "velocity": 84}, {"time": 2088, "pitch": 37, "duration": 19, "velocity": 85}, {"time": 2088, "pitch": 56, "duration": 5, "velocity": 86}, {"time": 2088, "pitch": 61, "duration": 9, "velocity": 84}, {"time": 2094, "pitch": 44, "duration": 12, "velocity": 73}, {"time": 2100, "pitch": 61, "duration": 11, "velocity": 90}, {"time": 2106, "pitch": 56, "duration": 4, "velocity": 87}, {"time": 2112, "pitch": 39, "duration": 13, "velocity": 88}, {"time": 2112, "pitch": 63, "duration": 6, "velocity": 86}, {"time": 2118, "pitch": 58, "duration": 8, "velocity": 85}, {"time": 2124, "pitch": 67, "duration": 7, "velocity": 88}, {"time": 2130, "pitch": 58, "duration": 4, "velocity": 79}, {"time": 2136, "pitch": 41, "duration": 29, "velocity": 89}, {"time": 2136, "pitch": 65, "duration": 12, "velocity": 83}, {"time": 2142, "pitch": 48, "duration": 20, "velocity": 80}, {"time": 2148, "pitch": 60, "duration": 8, "velocity": 93}, {"time": 2154, "pitch": 65, "duration": 3, "velocity": 88}, {"time": 2160, "pitch": 60, "duration": 4, "velocity": 88}, {"time": 2160, "pitch": 68, "duration": 7, "velocity": 86}, {"time": 2166, "pitch": 65, "duration": 6, "velocity": 93}, {"time": 2172, "pitch": 60, "duration": 8, "velocity": 88}, {"time": 2178, "pitch": 65, "duration": 2, "velocity": 85}, {"time": 2184, "pitch": 46, "duration": 43, "velocity": 87}, {"time": 2184, "pitch": 58, "duration": 12, "velocity": 80}, {"time": 2184, "pitch": 65, "duration": 11, "velocity": 88}, {"time": 2190, "pitch": 53, "duration": 20, "velocity": 80}, {"time": 2196, "pitch": 61, "duration": 6, "velocity": 79}, {"time": 2202, "pitch": 58, "duration": 3, "velocity": 77}, {"time": 2208, "pitch": 58, "duration": 14, "velocity": 87}, {"time": 2208, "pitch": 65, "duration": 20, "velocity": 88}, {"time": 2214, "pitch": 53, "duration": 13, "velocity": 82}, {"time": 2220, "pitch": 61, "duration": 7, "velocity": 88}, {"time": 2226, "pitch": 58, "duration": 4, "velocity": 78}, {"time": 2232, "pitch": 41, "duration": 32, "velocity": 81}, {"time": 2232, "pitch": 65, "duration": 9, "velocity": 85}, {"time": 2238, "pitch": 48, "duration": 21, "velocity": 81}, {"time": 2244, "pitch": 60, "duration": 7, "velocity": 89}, {"time": 2250, "pitch": 65, "duration": 3, "velocity": 87}, {"time": 2256, "pitch": 60, "duration": 9, "velocity": 88}, {"time": 2256, "pitch": 68, "duration": 12, "velocity": 80}, {"time": 2262, "pitch": 48, "duration": 3, "velocity": 76}, {"time": 2268, "pitch": 65, "duration": 3, "velocity": 87}, {"time": 2274, "pitch": 63, "duration": 2, "velocity": 85}, {"time": 2280, "pitch": 49, "duration": 41, "velocity": 87}, {"time": 2280, "pitch": 56, "duration": 3, "velocity": 78}, {"time": 2280, "pitch": 61, "duration": 7, "velocity": 84}, {"time": 2286, "pitch": 56, "duration": 6, "velocity": 79}, {"time": 2292, "pitch": 61, "duration": 4, "velocity": 79}, {"time": 2298, "pitch": 56, "duration": 2, "velocity": 75}, {"time": 2304, "pitch": 56, "duration": 4, "velocity": 88}, {"time": 2304, "pitch": 65, "duration": 21, "velocity": 89}, {"time": 2310, "pitch": 56, "duration": 8, "velocity": 88}, {"time": 2316, "pitch": 61, "duration": 12, "velocity": 90}, {"time": 2322, "pitch": 56, "duration": 4, "velocity": 74}, {"time": 2328, "pitch": 39, "duration": 35, "velocity": 89}, {"time": 2328, "pitch": 63, "duration": 18, "velocity": 82}, {"time": 2334, "pitch": 46, "duration": 20, "velocity": 74}, {"time": 2340, "pitch": 51, "duration": 9, "velocity": 78}, {"time": 2346, "pitch": 55, "duration": 4, "velocity": 88}, {"time": 2352, "pitch": 55, "duration": 13, "velocity": 80}, {"time": 2352, "pitch": 63, "duration": 15, "velocity": 89}, {"time": 2358, "pitch": 46, "duration": 5, "velocity": 83}, {"time": 2364, "pitch": 51, "duration": 7, "velocity": 90}, {"time": 2370, "pitch": 55, "duration": 3, "velocity": 84}, {"time": 2370, "pitch": 63, "duration": 2, "velocity": 41}, {"time": 2376, "pitch": 44, "duration": 30, "velocity": 87}, {"time": 2376, "pitch": 56, "duration": 7, "velocity": 82}, {"time": 2376, "pitch": 60, "duration": 8, "velocity": 88}, {"time": 2382, "pitch": 51, "duration": 22, "velocity": 79}, {"time": 2388, "pitch": 56, "duration": 8, "velocity": 89}, {"time": 2394, "pitch": 63, "duration": 7, "velocity": 83}, {"time": 2400, "pitch": 68, "duration": 15, "velocity": 90}, {"time": 2406, "pitch": 56, "duration": 8, "velocity": 104}, {"time": 2412, "pitch": 51, "duration": 9, "velocity": 88}, {"time": 2418, "pitch": 56, "duration": 4, "velocity": 85}, {"time": 2424, "pitch": 46, "duration": 28, "velocity": 89}, {"time": 2424, "pitch": 58, "duration": 8, "velocity": 77}, {"time": 2424, "pitch": 62, "duration": 10, "velocity": 88}, {"time": 2430, "pitch": 53, "duration": 20, "velocity": 88}, {"time": 2436, "pitch": 58, "duration": 4, "velocity": 82}, {"time": 2442, "pitch": 65, "duration": 3, "velocity": 83}, {"time": 2448, "pitch": 58, "duration": 5, "velocity": 91}, {"time": 2448, "pitch": 70, "duration": 6, "velocity": 89}, {"time": 2454, "pitch": 53, "duration": 7, "velocity": 88}, {"time": 2460, "pitch": 58, "duration": 2, "velocity": 85}, {"time": 2460, "pitch": 62, "duration": 3, "velocity": 87}, {"time": 2460, "pitch": 65, "duration": 10, "velocity": 89}, {"time": 2466, "pitch": 58, "duration": 4, "velocity": 83}, {"time": 2472, "pitch": 49, "duration": 14, "velocity": 83}, {"time": 2472, "pitch": 56, "duration": 3, "velocity": 87}, {"time": 2472, "pitch": 61, "duration": 9, "velocity": 84}, {"time": 2478, "pitch": 56, "duration": 3, "velocity": 80}, {"time": 2484, "pitch": 56, "duration": 2, "velocity": 88}, {"time": 2484, "pitch": 61, "duration": 7, "velocity": 87}, {"time": 2484, "pitch": 65, "duration": 10, "velocity": 89}, {"time": 2490, "pitch": 56, "duration": 2, "velocity": 76}, {"time": 2496, "pitch": 39, "duration": 12, "velocity": 88}, {"time": 2496, "pitch": 58, "duration": 4, "velocity": 80}, {"time": 2496, "pitch": 63, "duration": 9, "velocity": 81}, {"time": 2502, "pitch": 58, "duration": 5, "velocity": 81}, {"time": 2508, "pitch": 63, "duration": 8, "velocity": 88}, {"time": 2508, "pitch": 67, "duration": 8, "velocity": 87}, {"time": 2514, "pitch": 58, "duration": 3, "velocity": 78}, {"time": 2520, "pitch": 41, "duration": 28, "velocity": 87}, {"time": 2520, "pitch": 65, "duration": 13, "velocity": 82}, {"time": 2526, "pitch": 48, "duration": 20, "velocity": 75}, {"time": 2532, "pitch": 60, "duration": 8, "velocity": 84}, {"time": 2538, "pitch": 65, "duration": 3, "velocity": 85}, {"time": 2544, "pitch": 60, "duration": 8, "velocity": 87}, {"time": 2544, "pitch": 65, "duration": 13, "velocity": 88}, {"time": 2544, "pitch": 68, "duration": 12, "velocity": 83}, {"time": 2550, "pitch": 48, "duration": 2, "velocity": 85}, {"time": 2556, "pitch": 60, "duration": 7, "velocity": 87}, {"time": 2562, "pitch": 65, "duration": 2, "velocity": 81}, {"time": 2568, "pitch": 44, "duration": 28, "velocity": 87}, {"time": 2568, "pitch": 56, "duration": 12, "velocity": 85}, {"time": 2568, "pitch": 60, "duration": 13, "velocity": 85}, {"time": 2574, "pitch": 51, "duration": 20, "velocity": 77}, {"time": 2580, "pitch": 63, "duration": 7, "velocity": 83}, {"time": 2586, "pitch": 56, "duration": 3, "velocity": 85}, {"time": 2592, "pitch": 56, "duration": 4, "velocity": 94}, {"time": 2592, "pitch": 68, "duration": 3, "velocity": 87}, {"time": 2598, "pitch": 51, "duration": 3, "velocity": 89}, {"time": 2604, "pitch": 56, "duration": 2, "velocity": 88}, {"time": 2604, "pitch": 63, "duration": 12, "velocity": 86}, {"time": 2610, "pitch": 56, "duration": 5, "velocity": 80}, {"time": 2616, "pitch": 46, "duration": 36, "velocity": 88}, {"time": 2616, "pitch": 62, "duration": 15, "velocity": 88}, {"time": 2622, "pitch": 53, "duration": 26, "velocity": 81}, {"time": 2628, "pitch": 58, "duration": 8, "velocity": 81}, {"time": 2634, "pitch": 65, "duration": 4, "velocity": 83}, {"time": 2640, "pitch": 70, "duration": 6, "velocity": 89}, {"time": 2646, "pitch": 65, "duration": 5, "velocity": 89}, {"time": 2652, "pitch": 62, "duration": 7, "velocity": 89}, {"time": 2658, "pitch": 58, "duration": 3, "velocity": 83}, {"time": 2664, "pitch": 49, "duration": 10, "velocity": 89}, {"time": 2664, "pitch": 56, "duration": 3, "velocity": 86}, {"time": 2664, "pitch": 61, "duration": 7, "velocity": 82}, {"time": 2670, "pitch": 56, "duration": 6, "velocity": 79}, {"time": 2676, "pitch": 65, "duration": 8, "velocity": 84}, {"time": 2682, "pitch": 56, "duration": 3, "velocity": 78}, {"time": 2688, "pitch": 39, "duration": 11, "velocity": 90}, {"time": 2688, "pitch": 58, "duration": 5, "velocity": 82}, {"time": 2688, "pitch": 63, "duration": 8, "velocity": 84}, {"time": 2694, "pitch": 46, "duration": 4, "velocity": 76}, {"time": 2700, "pitch": 58, "duration": 2, "velocity": 77}, {"time": 2700, "pitch": 63, "duration": 9, "velocity": 84}, {"time": 2700, "pitch": 67, "duration": 9, "velocity": 80}, {"time": 2706, "pitch": 58, "duration": 2, "velocity": 79}, {"time": 2712, "pitch": 41, "duration": 43, "velocity": 87}, {"time": 2712, "pitch": 60, "duration": 8, "velocity": 76}, {"time": 2712, "pitch": 65, "duration": 13, "velocity": 82}, {"time": 2718, "pitch": 48, "duration": 35, "velocity": 74}, {"time": 2724, "pitch": 60, "duration": 8, "velocity": 78}, {"time": 2730, "pitch": 65, "duration": 3, "velocity": 80}, {"time": 2736, "pitch": 68, "duration": 7, "velocity": 82}, {"time": 2742, "pitch": 65, "duration": 8, "velocity": 79}, {"time": 2748, "pitch": 60, "duration": 12, "velocity": 78}, {"time": 2754, "pitch": 65, "duration": 6, "velocity": 82}, {"time": 2757, "pitch": 53, "duration": 15, "velocity": 77}, {"time": 2759, "pitch": 56, "duration": 13, "velocity": 83}, {"time": 2759, "pitch": 41, "duration": 84, "velocity": 91}, {"time": 2760, "pitch": 60, "duration": 11, "velocity": 83}, {"time": 2761, "pitch": 65, "duration": 9, "velocity": 92}, {"time": 2792, "pitch": 48, "duration": 50, "velocity": 31}, {"time": 2795, "pitch": 53, "duration": 3, "velocity": 74}, {"time": 2801, "pitch": 53, "duration": 2, "velocity": 83}, {"time": 2801, "pitch": 60, "duration": 3, "velocity": 80}, {"time": 2831, "pitch": 60, "duration": 8, "velocity": 76}, {"time": 2831, "pitch": 53, "duration": 2, "velocity": 74}, {"time": 2831, "pitch": 65, "duration": 7, "velocity": 76}, {"time": 2837, "pitch": 53, "duration": 2, "velocity": 71}, {"time": 2853, "pitch": 56, "duration": 14, "velocity": 66}, {"time": 2854, "pitch": 61, "duration": 13, "velocity": 75}, {"time": 2855, "pitch": 37, "duration": 3, "velocity": 87}, {"time": 2856, "pitch": 65, "duration": 11, "velocity": 84}, {"time": 2874, "pitch": 56, "duration": 1, "velocity": 64}, {"time": 2885, "pitch": 65, "duration": 5, "velocity": 72}, {"time": 2885, "pitch": 56, "duration": 6, "velocity": 62}, {"time": 2886, "pitch": 61, "duration": 5, "velocity": 76}, {"time": 2898, "pitch": 56, "duration": 2, "velocity": 52}, {"time": 2904, "pitch": 56, "duration": 2, "velocity": 70}, {"time": 2904, "pitch": 61, "duration": 3, "velocity": 70}, {"time": 2904, "pitch": 49, "duration": 15, "velocity": 71}, {"time": 2933, "pitch": 61, "duration": 6, "velocity": 78}, {"time": 2934, "pitch": 56, "duration": 1, "velocity": 75}, {"time": 2939, "pitch": 56, "duration": 2, "velocity": 86}, {"time": 2948, "pitch": 53, "duration": 4, "velocity": 79}, {"time": 2950, "pitch": 56, "duration": 6, "velocity": 81}, {"time": 2951, "pitch": 60, "duration": 6, "velocity": 81}, {"time": 2951, "pitch": 41, "duration": 86, "velocity": 90}, {"time": 2951, "pitch": 65, "duration": 7, "velocity": 91}, {"time": 2958, "pitch": 48, "duration": 69, "velocity": 72}, {"time": 2963, "pitch": 53, "duration": 3, "velocity": 79}, {"time": 2969, "pitch": 60, "duration": 3, "velocity": 76}, {"time": 2969, "pitch": 53, "duration": 3, "velocity": 78}, {"time": 2981, "pitch": 60, "duration": 7, "velocity": 74}, {"time": 2987, "pitch": 53, "duration": 8, "velocity": 77}, {"time": 2994, "pitch": 60, "duration": 3, "velocity": 73}, {"time": 2999, "pitch": 65, "duration": 5, "velocity": 88}, {"time": 3005, "pitch": 53, "duration": 3, "velocity": 75}, {"time": 3024, "pitch": 56, "duration": 7, "velocity": 79}, {"time": 3024, "pitch": 60, "duration": 9, "velocity": 82}, {"time": 3029, "pitch": 53, "duration": 3, "velocity": 86}, {"time": 3035, "pitch": 48, "duration": 2, "velocity": 79}, {"time": 3045, "pitch": 56, "duration": 6, "velocity": 73}, {"time": 3047, "pitch": 61, "duration": 7, "velocity": 81}, {"time": 3047, "pitch": 37, "duration": 3, "velocity": 88}, {"time": 3048, "pitch": 65, "duration": 7, "velocity": 83}, {"time": 3053, "pitch": 56, "duration": 3, "velocity": 73}, {"time": 3071, "pitch": 56, "duration": 3, "velocity": 81}, {"time": 3071, "pitch": 65, "duration": 4, "velocity": 86}, {"time": 3077, "pitch": 61, "duration": 7, "velocity": 71}, {"time": 3083, "pitch": 56, "duration": 3, "velocity": 67}, {"time": 3089, "pitch": 61, "duration": 27, "velocity": 78}, {"time": 3090, "pitch": 56, "duration": 25, "velocity": 73}, {"time": 3113, "pitch": 49, "duration": 8, "velocity": 73}, {"time": 3120, "pitch": 56, "duration": 9, "velocity": 84}, {"time": 3120, "pitch": 61, "duration": 14, "velocity": 84}, {"time": 3125, "pitch": 49, "duration": 10, "velocity": 80}, {"time": 3132, "pitch": 56, "duration": 4, "velocity": 68}, {"time": 3192, "pitch": 41, "duration": 37, "velocity": 89}, {"time": 3198, "pitch": 48, "duration": 31, "velocity": 80}, {"time": 3204, "pitch": 53, "duration": 20, "velocity": 89}, {"time": 3210, "pitch": 60, "duration": 16, "velocity": 82}, {"time": 3222, "pitch": 65, "duration": 6, "velocity": 87}, {"time": 3240, "pitch": 37, "duration": 16, "velocity": 82}, {"time": 3240, "pitch": 56, "duration": 7, "velocity": 78}, {"time": 3240, "pitch": 65, "duration": 15, "velocity": 86}, {"time": 3246, "pitch": 44, "duration": 11, "velocity": 75}, {"time": 3252, "pitch": 56, "duration": 7, "velocity": 79}, {"time": 3264, "pitch": 39, "duration": 13, "velocity": 88}, {"time": 3264, "pitch": 58, "duration": 8, "velocity": 77}, {"time": 3264, "pitch": 63, "duration": 12, "velocity": 81}, {"time": 3270, "pitch": 46, "duration": 6, "velocity": 74}, {"time": 3276, "pitch": 58, "duration": 8, "velocity": 86}, {"time": 3282, "pitch": 63, "duration": 5, "velocity": 84}, {"time": 3288, "pitch": 41, "duration": 45, "velocity": 86}, {"time": 3288, "pitch": 65, "duration": 22, "velocity": 86}, {"time": 3294, "pitch": 48, "duration": 39, "velocity": 69}, {"time": 3300, "pitch": 53, "duration": 8, "velocity": 82}, {"time": 3306, "pitch": 60, "duration": 4, "velocity": 81}, {"time": 3318, "pitch": 56, "duration": 4, "velocity": 76}, {"time": 3330, "pitch": 65, "duration": 18, "velocity": 89}, {"time": 3336, "pitch": 41, "duration": 29, "velocity": 85}, {"time": 3342, "pitch": 48, "duration": 23, "velocity": 74}, {"time": 3348, "pitch": 53, "duration": 16, "velocity": 87}, {"time": 3354, "pitch": 65, "duration": 20, "velocity": 88}, {"time": 3366, "pitch": 60, "duration": 8, "velocity": 81}, {"time": 3372, "pitch": 53, "duration": 2, "velocity": 86}, {"time": 3384, "pitch": 44, "duration": 36, "velocity": 87}, {"time": 3384, "pitch": 56, "duration": 7, "velocity": 78}, {"time": 3384, "pitch": 63, "duration": 9, "velocity": 77}, {"time": 3390, "pitch": 51, "duration": 29, "velocity": 78}, {"time": 3396, "pitch": 56, "duration": 9, "velocity": 84}, {"time": 3402, "pitch": 68, "duration": 4, "velocity": 82}, {"time": 3414, "pitch": 63, "duration": 8, "velocity": 80}, {"time": 3432, "pitch": 39, "duration": 37, "velocity": 89}, {"time": 3432, "pitch": 58, "duration": 7, "velocity": 73}, {"time": 3432, "pitch": 63, "duration": 14, "velocity": 83}, {"time": 3438, "pitch": 46, "duration": 31, "velocity": 74}, {"time": 3444, "pitch": 58, "duration": 4, "velocity": 81}, {"time": 3450, "pitch": 67, "duration": 14, "velocity": 81}, {"time": 3462, "pitch": 63, "duration": 8, "velocity": 86}, {"time": 3480, "pitch": 41, "duration": 44, "velocity": 87}, {"time": 3480, "pitch": 60, "duration": 8, "velocity": 79}, {"time": 3480, "pitch": 65, "duration": 14, "velocity": 85}, {"time": 3486, "pitch": 48, "duration": 38, "velocity": 73}, {"time": 3492, "pitch": 60, "duration": 2, "velocity": 74}, {"time": 3498, "pitch": 60, "duration": 3, "velocity": 84}, {"time": 3498, "pitch": 65, "duration": 3, "velocity": 88}, {"time": 3522, "pitch": 60, "duration": 12, "velocity": 75}, {"time": 3528, "pitch": 41, "duration": 39, "velocity": 88}, {"time": 3528, "pitch": 65, "duration": 12, "velocity": 81}, {"time": 3534, "pitch": 48, "duration": 34, "velocity": 74}, {"time": 3540, "pitch": 60, "duration": 3, "velocity": 73}, {"time": 3546, "pitch": 60, "duration": 4, "velocity": 83}, {"time": 3546, "pitch": 65, "duration": 2, "velocity": 80}, {"time": 3546, "pitch": 68, "duration": 5, "velocity": 83}, {"time": 3564, "pitch": 65, "duration": 5, "velocity": 87}, {"time": 3570, "pitch": 60, "duration": 2, "velocity": 80}, {"time": 3576, "pitch": 44, "duration": 33, "velocity": 87}, {"time": 3576, "pitch": 56, "duration": 7, "velocity": 82}, {"time": 3576, "pitch": 60, "duration": 9, "velocity": 82}, {"time": 3582, "pitch": 51, "duration": 27, "velocity": 75}, {"time": 3588, "pitch": 56, "duration": 2, "velocity": 80}, {"time": 3594, "pitch": 56, "duration": 3, "velocity": 87}, {"time": 3594, "pitch": 63, "duration": 3, "velocity": 85}, {"time": 3606, "pitch": 56, "duration": 2, "velocity": 83}, {"time": 3606, "pitch": 60, "duration": 2, "velocity": 85}, {"time": 3624, "pitch": 39, "duration": 26, "velocity": 88}, {"time": 3624, "pitch": 58, "duration": 7, "velocity": 74}, {"time": 3624, "pitch": 63, "duration": 12, "velocity": 79}, {"time": 3630, "pitch": 46, "duration": 19, "velocity": 61}, {"time": 3636, "pitch": 58, "duration": 3, "velocity": 76}, {"time": 3642, "pitch": 58, "duration": 3, "velocity": 78}, {"time": 3642, "pitch": 67, "duration": 5, "velocity": 78}, {"time": 3654, "pitch": 63, "duration": 6, "velocity": 80}, {"time": 3660, "pitch": 58, "duration": 2, "velocity": 72}, {"time": 3672, "pitch": 49, "duration": 32, "velocity": 81}, {"time": 3672, "pitch": 56, "duration": 3, "velocity": 75}, {"time": 3672, "pitch": 61, "duration": 7, "velocity": 78}, {"time": 3678, "pitch": 56, "duration": 8, "velocity": 66}, {"time": 3684, "pitch": 61, "duration": 3, "velocity": 80}, {"time": 3702, "pitch": 63, "duration": 12, "velocity": 83}, {"time": 3708, "pitch": 49, "duration": 7, "velocity": 81}, {"time": 3714, "pitch": 56, "duration": 4, "velocity": 78}, {"time": 3720, "pitch": 44, "duration": 39, "velocity": 84}, {"time": 3720, "pitch": 56, "duration": 6, "velocity": 80}, {"time": 3720, "pitch": 60, "duration": 13, "velocity": 81}, {"time": 3726, "pitch": 51, "duration": 27, "velocity": 77}, {"time": 3732, "pitch": 56, "duration": 8, "velocity": 83}, {"time": 3738, "pitch": 60, "duration": 4, "velocity": 88}, {"time": 3750, "pitch": 56, "duration": 6, "velocity": 83}, {"time": 3750, "pitch": 63, "duration": 7, "velocity": 83}, {"time": 3756, "pitch": 51, "duration": 4, "velocity": 81}, {"time": 3768, "pitch": 46, "duration": 34, "velocity": 88}, {"time": 3768, "pitch": 58, "duration": 6, "velocity": 78}, {"time": 3768, "pitch": 65, "duration": 13, "velocity": 86}, {"time": 3774, "pitch": 53, "duration": 28, "velocity": 79}, {"time": 3780, "pitch": 58, "duration": 3, "velocity": 83}, {"time": 3786, "pitch": 58, "duration": 8, "velocity": 79}, {"time": 3786, "pitch": 61, "duration": 8, "velocity": 82}, {"time": 3798, "pitch": 58, "duration": 3, "velocity": 76}, {"time": 3798, "pitch": 65, "duration": 4, "velocity": 84}, {"time": 3816, "pitch": 48, "duration": 33, "velocity": 84}, {"time": 3816, "pitch": 60, "duration": 7, "velocity": 74}, {"time": 3816, "pitch": 63, "duration": 11, "velocity": 82}, {"time": 3822, "pitch": 55, "duration": 20, "velocity": 78}, {"time": 3828, "pitch": 60, "duration": 7, "velocity": 82}, {"time": 3834, "pitch": 67, "duration": 14, "velocity": 78}, {"time": 3840, "pitch": 63, "duration": 12, "velocity": 83}, {"time": 3846, "pitch": 60, "duration": 7, "velocity": 89}, {"time": 3852, "pitch": 55, "duration": 2, "velocity": 82}, {"time": 3858, "pitch": 60, "duration": 8, "velocity": 83}, {"time": 3864, "pitch": 41, "duration": 44, "velocity": 83}, {"time": 3864, "pitch": 65, "duration": 8, "velocity": 82}, {"time": 3870, "pitch": 60, "duration": 18, "velocity": 80}, {"time": 3876, "pitch": 48, "duration": 26, "velocity": 77}, {"time": 3888, "pitch": 68, "duration": 19, "velocity": 81}, {"time": 3894, "pitch": 60, "duration": 7, "velocity": 76}, {"time": 3900, "pitch": 65, "duration": 7, "velocity": 83}, {"time": 3906, "pitch": 60, "duration": 2, "velocity": 62}, {"time": 3912, "pitch": 41, "duration": 36, "velocity": 90}, {"time": 3912, "pitch": 60, "duration": 7, "velocity": 79}, {"time": 3912, "pitch": 65, "duration": 13, "velocity": 85}, {"time": 3918, "pitch": 48, "duration": 15, "velocity": 74}, {"time": 3924, "pitch": 60, "duration": 2, "velocity": 72}, {"time": 3930, "pitch": 60, "duration": 13, "velocity": 83}, {"time": 3930, "pitch": 65, "duration": 17, "velocity": 84}, {"time": 3930, "pitch": 68, "duration": 17, "velocity": 82}, {"time": 3942, "pitch": 48, "duration": 6, "velocity": 80}, {"time": 3948, "pitch": 60, "duration": 2, "velocity": 77}, {"time": 3960, "pitch": 48, "duration": 41, "velocity": 91}, {"time": 3960, "pitch": 60, "duration": 13, "velocity": 87}, {"time": 3960, "pitch": 63, "duration": 14, "velocity": 87}, {"time": 3960, "pitch": 67, "duration": 19, "velocity": 87}, {"time": 3972, "pitch": 55, "duration": 14, "velocity": 77}, {"time": 3978, "pitch": 60, "duration": 8, "velocity": 75}, {"time": 3984, "pitch": 67, "duration": 18, "velocity": 91}, {"time": 3990, "pitch": 55, "duration": 5, "velocity": 75}, {"time": 3996, "pitch": 60, "duration": 8, "velocity": 87}, {"time": 4002, "pitch": 63, "duration": 7, "velocity": 83}, {"time": 4008, "pitch": 49, "duration": 38, "velocity": 87}, {"time": 4008, "pitch": 65, "duration": 14, "velocity": 88}, {"time": 4014, "pitch": 56, "duration": 15, "velocity": 75}, {"time": 4020, "pitch": 61, "duration": 8, "velocity": 78}, {"time": 4026, "pitch": 68, "duration": 14, "velocity": 74}, {"time": 4038, "pitch": 65, "duration": 13, "velocity": 89}, {"time": 4044, "pitch": 56, "duration": 2, "velocity": 83}, {"time": 4050, "pitch": 61, "duration": 3, "velocity": 76}, {"time": 4056, "pitch": 39, "duration": 28, "velocity": 87}, {"time": 4056, "pitch": 63, "duration": 13, "velocity": 84}, {"time": 4062, "pitch": 46, "duration": 19, "velocity": 74}, {"time": 4068, "pitch": 58, "duration": 8, "velocity": 80}, {"time": 4074, "pitch": 67, "duration": 14, "velocity": 91}, {"time": 4086, "pitch": 63, "duration": 8, "velocity": 88}, {"time": 4092, "pitch": 58, "duration": 5, "velocity": 81}, {"time": 4104, "pitch": 41, "duration": 34, "velocity": 87}, {"time": 4104, "pitch": 65, "duration": 14, "velocity": 88}, {"time": 4110, "pitch": 48, "duration": 28, "velocity": 75}, {"time": 4116, "pitch": 60, "duration": 4, "velocity": 74}, {"time": 4122, "pitch": 60, "duration": 3, "velocity": 80}, {"time": 4122, "pitch": 68, "duration": 13, "velocity": 87}, {"time": 4134, "pitch": 65, "duration": 6, "velocity": 89}, {"time": 4140, "pitch": 60, "duration": 3, "velocity": 83}, {"time": 4152, "pitch": 46, "duration": 27, "velocity": 87}, {"time": 4152, "pitch": 58, "duration": 6, "velocity": 79}, {"time": 4152, "pitch": 65, "duration": 13, "velocity": 84}, {"time": 4158, "pitch": 53, "duration": 15, "velocity": 76}, {"time": 4164, "pitch": 58, "duration": 4, "velocity": 80}, {"time": 4170, "pitch": 61, "duration": 18, "velocity": 88}, {"time": 4182, "pitch": 53, "duration": 7, "velocity": 78}, {"time": 4188, "pitch": 58, "duration": 7, "velocity": 77}, {"time": 4194, "pitch": 61, "duration": 3, "velocity": 76}, {"time": 4200, "pitch": 49, "duration": 24, "velocity": 86}, {"time": 4200, "pitch": 56, "duration": 5, "velocity": 80}, {"time": 4200, "pitch": 61, "duration": 8, "velocity": 86}, {"time": 4206, "pitch": 56, "duration": 8, "velocity": 80}, {"time": 4212, "pitch": 61, "duration": 4, "velocity": 80}, {"time": 4218, "pitch": 65, "duration": 3, "velocity": 93}, {"time": 4230, "pitch": 61, "duration": 6, "velocity": 84}, {"time": 4236, "pitch": 56, "duration": 3, "velocity": 87}, {"time": 4248, "pitch": 44, "duration": 36, "velocity": 83}, {"time": 4248, "pitch": 56, "duration": 17, "velocity": 81}, {"time": 4248, "pitch": 63, "duration": 12, "velocity": 83}, {"time": 4254, "pitch": 51, "duration": 27, "velocity": 78}, {"time": 4260, "pitch": 60, "duration": 4, "velocity": 76}, {"time": 4266, "pitch": 68, "duration": 7, "velocity": 89}, {"time": 4278, "pitch": 63, "duration": 8, "velocity": 88}, {"time": 4284, "pitch": 56, "duration": 4, "velocity": 91}, {"time": 4290, "pitch": 51, "duration": 2, "velocity": 88}, {"time": 4296, "pitch": 46, "duration": 20, "velocity": 88}, {"time": 4296, "pitch": 58, "duration": 6, "velocity": 80}, {"time": 4296, "pitch": 61, "duration": 12, "velocity": 82}, {"time": 4302, "pitch": 53, "duration": 15, "velocity": 80}, {"time": 4308, "pitch": 58, "duration": 8, "velocity": 82}, {"time": 4314, "pitch": 61, "duration": 4, "velocity": 86}, {"time": 4320, "pitch": 48, "duration": 18, "velocity": 89}, {"time": 4320, "pitch": 60, "duration": 8, "velocity": 83}, {"time": 4320, "pitch": 63, "duration": 12, "velocity": 83}, {"time": 4326, "pitch": 55, "duration": 3, "velocity": 91}, {"time": 4332, "pitch": 60, "duration": 7, "velocity": 94}, {"time": 4338, "pitch": 63, "duration": 6, "velocity": 92}, {"time": 4344, "pitch": 41, "duration": 44, "velocity": 89}, {"time": 4344, "pitch": 65, "duration": 13, "velocity": 87}, {"time": 4350, "pitch": 48, "duration": 31, "velocity": 72}, {"time": 4356, "pitch": 60, "duration": 3, "velocity": 75}, {"time": 4362, "pitch": 60, "duration": 2, "velocity": 82}, {"time": 4362, "pitch": 68, "duration": 3, "velocity": 81}, {"time": 4374, "pitch": 60, "duration": 2, "velocity": 77}, {"time": 4374, "pitch": 65, "duration": 2, "velocity": 81}, {"time": 4392, "pitch": 41, "duration": 45, "velocity": 88}, {"time": 4392, "pitch": 60, "duration": 7, "velocity": 78}, {"time": 4392, "pitch": 65, "duration": 13, "velocity": 84}, {"time": 4398, "pitch": 48, "duration": 15, "velocity": 73}, {"time": 4404, "pitch": 60, "duration": 2, "velocity": 75}, {"time": 4410, "pitch": 60, "duration": 3, "velocity": 88}, {"time": 4410, "pitch": 68, "duration": 4, "velocity": 87}, {"time": 4422, "pitch": 65, "duration": 13, "velocity": 90}, {"time": 4428, "pitch": 48, "duration": 10, "velocity": 80}, {"time": 4434, "pitch": 60, "duration": 5, "velocity": 89}, {"time": 4440, "pitch": 44, "duration": 27, "velocity": 88}, {"time": 4440, "pitch": 56, "duration": 10, "velocity": 86}, {"time": 4440, "pitch": 63, "duration": 9, "velocity": 84}, {"time": 4446, "pitch": 51, "duration": 20, "velocity": 82}, {"time": 4452, "pitch": 60, "duration": 7, "velocity": 87}, {"time": 4458, "pitch": 63, "duration": 2, "velocity": 88}, {"time": 4464, "pitch": 56, "duration": 4, "velocity": 89}, {"time": 4464, "pitch": 68, "duration": 5, "velocity": 88}, {"time": 4470, "pitch": 51, "duration": 8, "velocity": 82}, {"time": 4476, "pitch": 56, "duration": 2, "velocity": 82}, {"time": 4476, "pitch": 63, "duration": 13, "velocity": 83}, {"time": 4482, "pitch": 56, "duration": 7, "velocity": 84}, {"time": 4488, "pitch": 46, "duration": 31, "velocity": 89}, {"time": 4488, "pitch": 62, "duration": 14, "velocity": 79}, {"time": 4494, "pitch": 53, "duration": 23, "velocity": 82}, {"time": 4500, "pitch": 58, "duration": 11, "velocity": 86}, {"time": 4506, "pitch": 62, "duration": 1, "velocity": 54}, {"time": 4506, "pitch": 65, "duration": 7, "velocity": 87}, {"time": 4512, "pitch": 70, "duration": 13, "velocity": 91}, {"time": 4518, "pitch": 65, "duration": 7, "velocity": 88}, {"time": 4524, "pitch": 62, "duration": 7, "velocity": 89}, {"time": 4530, "pitch": 58, "duration": 4, "velocity": 84}, {"time": 4536, "pitch": 37, "duration": 19, "velocity": 85}, {"time": 4536, "pitch": 56, "duration": 5, "velocity": 86}, {"time": 4536, "pitch": 61, "duration": 9, "velocity": 84}, {"time": 4542, "pitch": 44, "duration": 12, "velocity": 73}, {"time": 4548, "pitch": 61, "duration": 11, "velocity": 90}, {"time": 4554, "pitch": 56, "duration": 4, "velocity": 87}, {"time": 4560, "pitch": 39, "duration": 13, "velocity": 88}, {"time": 4560, "pitch": 63, "duration": 6, "velocity": 86}, {"time": 4566, "pitch": 58, "duration": 8, "velocity": 85}, {"time": 4572, "pitch": 67, "duration": 7, "velocity": 88}, {"time": 4578, "pitch": 58, "duration": 4, "velocity": 79}, {"time": 4584, "pitch": 41, "duration": 29, "velocity": 89}, {"time": 4584, "pitch": 65, "duration": 12, "velocity": 83}, {"time": 4590, "pitch": 48, "duration": 20, "velocity": 80}, {"time": 4596, "pitch": 60, "duration": 8, "velocity": 93}, {"time": 4602, "pitch": 65, "duration": 3, "velocity": 88}, {"time": 4608, "pitch": 60, "duration": 4, "velocity": 88}, {"time": 4608, "pitch": 68, "duration": 7, "velocity": 86}, {"time": 4614, "pitch": 65, "duration": 6, "velocity": 93}, {"time": 4620, "pitch": 60, "duration": 8, "velocity": 88}, {"time": 4626, "pitch": 65, "duration": 2, "velocity": 85}, {"time": 4632, "pitch": 46, "duration": 43, "velocity": 87}, {"time": 4632, "pitch": 58, "duration": 12, "velocity": 80}, {"time": 4632, "pitch": 65, "duration": 11, "velocity": 88}, {"time": 4638, "pitch": 53, "duration": 20, "velocity": 80}, {"time": 4644, "pitch": 61, "duration": 6, "velocity": 79}, {"time": 4650, "pitch": 58, "duration": 3, "velocity": 77}, {"time": 4656, "pitch": 58, "duration": 14, "velocity": 87}, {"time": 4656, "pitch": 65, "duration": 20, "velocity": 88}, {"time": 4662, "pitch": 53, "duration": 13, "velocity": 82}, {"time": 4668, "pitch": 61, "duration": 7, "velocity": 88}, {"time": 4674, "pitch": 58, "duration": 4, "velocity": 78}, {"time": 4680, "pitch": 41, "duration": 32, "velocity": 81}, {"time": 4680, "pitch": 65, "duration": 9, "velocity": 85}, {"time": 4686, "pitch": 48, "duration": 21, "velocity": 81}, {"time": 4692, "pitch": 60, "duration": 7, "velocity": 89}, {"time": 4698, "pitch": 65, "duration": 3, "velocity": 87}, {"time": 4704, "pitch": 60, "duration": 9, "velocity": 88}, {"time": 4704, "pitch": 68, "duration": 12, "velocity": 80}, {"time": 4710, "pitch": 48, "duration": 3, "velocity": 76}, {"time": 4716, "pitch": 65, "duration": 3, "velocity": 87}, {"time": 4722, "pitch": 63, "duration": 2, "velocity": 85}, {"time": 4728, "pitch": 49, "duration": 41, "velocity": 87}, {"time": 4728, "pitch": 56, "duration": 3, "velocity": 78}, {"time": 4728, "pitch": 61, "duration": 7, "velocity": 84}, {"time": 4734, "pitch": 56, "duration": 6, "velocity": 79}, {"time": 4740, "pitch": 61, "duration": 4, "velocity": 79}, {"time": 4746, "pitch": 56, "duration": 2, "velocity": 75}, {"time": 4752, "pitch": 56, "duration": 4, "velocity": 88}, {"time": 4752, "pitch": 65, "duration": 21, "velocity": 89}, {"time": 4758, "pitch": 56, "duration": 8, "velocity": 88}, {"time": 4764, "pitch": 61, "duration": 12, "velocity": 90}, {"time": 4770, "pitch": 56, "duration": 4, "velocity": 74}, {"time": 4776, "pitch": 39, "duration": 35, "velocity": 89}, {"time": 4776, "pitch": 63, "duration": 18, "velocity": 82}, {"time": 4782, "pitch": 46, "duration": 20, "velocity": 74}, {"time": 4788, "pitch": 51, "duration": 9, "velocity": 78}, {"time": 4794, "pitch": 55, "duration": 4, "velocity": 88}, {"time": 4800, "pitch": 55, "duration": 13, "velocity": 80}, {"time": 4800, "pitch": 63, "duration": 15, "velocity": 89}, {"time": 4806, "pitch": 46, "duration": 5, "velocity": 83}, {"time": 4812, "pitch": 51, "duration": 7, "velocity": 90}, {"time": 4818, "pitch": 55, "duration": 3, "velocity": 84}, {"time": 4818, "pitch": 63, "duration": 2, "velocity": 41}, {"time": 4824, "pitch": 44, "duration": 30, "velocity": 87}, {"time": 4824, "pitch": 56, "duration": 7, "velocity": 82}, {"time": 4824, "pitch": 60, "duration": 8, "velocity": 88}, {"time": 4830, "pitch": 51, "duration": 22, "velocity": 79}, {"time": 4836, "pitch": 56, "duration": 8, "velocity": 89}, {"time": 4842, "pitch": 63, "duration": 7, "velocity": 83}, {"time": 4848, "pitch": 68, "duration": 15, "velocity": 90}, {"time": 4854, "pitch": 56, "duration": 8, "velocity": 104}, {"time": 4860, "pitch": 51, "duration": 9, "velocity": 88}, {"time": 4866, "pitch": 56, "duration": 4, "velocity": 85}, {"time": 4872, "pitch": 46, "duration": 28, "velocity": 89}, {"time": 4872, "pitch": 58, "duration": 8, "velocity": 77}, {"time": 4872, "pitch": 62, "duration": 10, "velocity": 88}, {"time": 4878, "pitch": 53, "duration": 20, "velocity": 88}, {"time": 4884, "pitch": 58, "duration": 4, "velocity": 82}, {"time": 4890, "pitch": 65, "duration": 3, "velocity": 83}, {"time": 4896, "pitch": 58, "duration": 5, "velocity": 91}, {"time": 4896, "pitch": 70, "duration": 6, "velocity": 89}, {"time": 4902, "pitch": 53, "duration": 7, "velocity": 88}, {"time": 4908, "pitch": 58, "duration": 2, "velocity": 85}, {"time": 4908, "pitch": 62, "duration": 3, "velocity": 87}, {"time": 4908, "pitch": 65, "duration": 10, "velocity": 89}, {"time": 4914, "pitch": 58, "duration": 4, "velocity": 83}, {"time": 4920, "pitch": 49, "duration": 14, "velocity": 83}, {"time": 4920, "pitch": 56, "duration": 3, "velocity": 87}, {"time": 4920, "pitch": 61, "duration": 9, "velocity": 84}, {"time": 4926, "pitch": 56, "duration": 3, "velocity": 80}, {"time": 4932, "pitch": 56, "duration": 2, "velocity": 88}, {"time": 4932, "pitch": 61, "duration": 7, "velocity": 87}, {"time": 4932, "pitch": 65, "duration": 10, "velocity": 89}, {"time": 4938, "pitch": 56, "duration": 2, "velocity": 76}, {"time": 4944, "pitch": 39, "duration": 12, "velocity": 88}, {"time": 4944, "pitch": 58, "duration": 4, "velocity": 80}, {"time": 4944, "pitch": 63, "duration": 9, "velocity": 81}, {"time": 4950, "pitch": 58, "duration": 5, "velocity": 81}, {"time": 4956, "pitch": 63, "duration": 8, "velocity": 88}, {"time": 4956, "pitch": 67, "duration": 8, "velocity": 87}, {"time": 4962, "pitch": 58, "duration": 3, "velocity": 78}, {"time": 4968, "pitch": 41, "duration": 28, "velocity": 87}, {"time": 4968, "pitch": 65, "duration": 13, "velocity": 82}, {"time": 4974, "pitch": 48, "duration": 20, "velocity": 75}, {"time": 4980, "pitch": 60, "duration": 8, "velocity": 84}, {"time": 4986, "pitch": 65, "duration": 3, "velocity": 85}, {"time": 4992, "pitch": 60, "duration": 8, "velocity": 87}, {"time": 4992, "pitch": 65, "duration": 13, "velocity": 88}, {"time": 4992, "pitch": 68, "duration": 12, "velocity": 83}, {"time": 4998, "pitch": 48, "duration": 2, "velocity": 85}, {"time": 5004, "pitch": 60, "duration": 7, "velocity": 87}, {"time": 5010, "pitch": 65, "duration": 2, "velocity": 81}, {"time": 5016, "pitch": 44, "duration": 28, "velocity": 87}, {"time": 5016, "pitch": 56, "duration": 12, "velocity": 85}, {"time": 5016, "pitch": 60, "duration": 13, "velocity": 85}, {"time": 5022, "pitch": 51, "duration": 20, "velocity": 77}, {"time": 5028, "pitch": 63, "duration": 7, "velocity": 83}, {"time": 5034, "pitch": 56, "duration": 3, "velocity": 85}, {"time": 5040, "pitch": 56, "duration": 4, "velocity": 94}, {"time": 5040, "pitch": 68, "duration": 3, "velocity": 87}, {"time": 5046, "pitch": 51, "duration": 3, "velocity": 89}, {"time": 5052, "pitch": 56, "duration": 2, "velocity": 88}, {"time": 5052, "pitch": 63, "duration": 12, "velocity": 86}, {"time": 5058, "pitch": 56, "duration": 5, "velocity": 80}, {"time": 5064, "pitch": 46, "duration": 36, "velocity": 88}, {"time": 5064, "pitch": 62, "duration": 15, "velocity": 88}, {"time": 5070, "pitch": 53, "duration": 26, "velocity": 81}, {"time": 5076, "pitch": 58, "duration": 8, "velocity": 81}, {"time": 5082, "pitch": 65, "duration": 4, "velocity": 83}, {"time": 5088, "pitch": 70, "duration": 6, "velocity": 89}, {"time": 5094, "pitch": 65, "duration": 5, "velocity": 89}, {"time": 5100, "pitch": 62, "duration": 7, "velocity": 89}, {"time": 5106, "pitch": 58, "duration": 3, "velocity": 83}, {"time": 5112, "pitch": 49, "duration": 10, "velocity": 89}, {"time": 5112, "pitch": 56, "duration": 3, "velocity": 86}, {"time": 5112, "pitch": 61, "duration": 7, "velocity": 82}, {"time": 5118, "pitch": 56, "duration": 6, "velocity": 79}, {"time": 5124, "pitch": 65, "duration": 8, "velocity": 84}, {"time": 5130, "pitch": 56, "duration": 3, "velocity": 78}, {"time": 5136, "pitch": 39, "duration": 11, "velocity": 90}, {"time": 5136, "pitch": 58, "duration": 5, "velocity": 82}, {"time": 5136, "pitch": 63, "duration": 8, "velocity": 84}, {"time": 5142, "pitch": 46, "duration": 4, "velocity": 76}, {"time": 5148, "pitch": 58, "duration": 2, "velocity": 77}, {"time": 5148, "pitch": 63, "duration": 9, "velocity": 84}, {"time": 5148, "pitch": 67, "duration": 9, "velocity": 80}, {"time": 5154, "pitch": 58, "duration": 2, "velocity": 79}, {"time": 5160, "pitch": 41, "duration": 43, "velocity": 87}, {"time": 5160, "pitch": 60, "duration": 8, "velocity": 76}, {"time": 5160, "pitch": 65, "duration": 13, "velocity": 82}, {"time": 5166, "pitch": 48, "duration": 35, "velocity": 74}, {"time": 5172, "pitch": 60, "duration": 8, "velocity": 78}, {"time": 5178, "pitch": 65, "duration": 3, "velocity": 80}, {"time": 5184, "pitch": 68, "duration": 7, "velocity": 82}, {"time": 5190, "pitch": 65, "duration": 8, "velocity": 79}, {"time": 5196, "pitch": 60, "duration": 12, "velocity": 78}, {"time": 5202, "pitch": 65, "duration": 6, "velocity": 82}, {"time": 5208, "pitch": 44, "duration": 27, "velocity": 88}, {"time": 5208, "pitch": 56, "duration": 10, "velocity": 86}, {"time": 5208, "pitch": 63, "duration": 9, "velocity": 84}, {"time": 5214, "pitch": 51, "duration": 20, "velocity": 82}, {"time": 5220, "pitch": 60, "duration": 7, "velocity": 87}, {"time": 5226, "pitch": 63, "duration": 2, "velocity": 88}, {"time": 5232, "pitch": 56, "duration": 4, "velocity": 89}, {"time": 5232, "pitch": 68, "duration": 5, "velocity": 88}, {"time": 5238, "pitch": 51, "duration": 8, "velocity": 82}, {"time": 5244, "pitch": 56, "duration": 2, "velocity": 82}, {"time": 5244, "pitch": 63, "duration": 13, "velocity": 83}, {"time": 5250, "pitch": 56, "duration": 7, "velocity": 84}, {"time": 5256, "pitch": 46, "duration": 31, "velocity": 89}, {"time": 5256, "pitch": 62, "duration": 14, "velocity": 79}, {"time": 5262, "pitch": 53, "duration": 23, "velocity": 82}, {"time": 5268, "pitch": 58, "duration": 11, "velocity": 86}, {"time": 5274, "pitch": 62, "duration": 1, "velocity": 54}, {"time": 5274, "pitch": 65, "duration": 7, "velocity": 87}, {"time": 5280, "pitch": 70, "duration": 13, "velocity": 91}, {"time": 5286, "pitch": 65, "duration": 7, "velocity": 88}, {"time": 5292, "pitch": 62, "duration": 7, "velocity": 89}, {"time": 5298, "pitch": 58, "duration": 4, "velocity": 84}, {"time": 5304, "pitch": 37, "duration": 19, "velocity": 85}, {"time": 5304, "pitch": 56, "duration": 5, "velocity": 86}, {"time": 5304, "pitch": 61, "duration": 9, "velocity": 84}, {"time": 5310, "pitch": 44, "duration": 12, "velocity": 73}, {"time": 5316, "pitch": 61, "duration": 11, "velocity": 90}, {"time": 5322, "pitch": 56, "duration": 4, "velocity": 87}, {"time": 5328, "pitch": 39, "duration": 13, "velocity": 88}, {"time": 5328, "pitch": 63, "duration": 6, "velocity": 86}, {"time": 5334, "pitch": 58, "duration": 8, "velocity": 85}, {"time": 5340, "pitch": 67, "duration": 7, "velocity": 88}, {"time": 5346, "pitch": 58, "duration": 4, "velocity": 79}, {"time": 5352, "pitch": 41, "duration": 29, "velocity": 89}, {"time": 5352, "pitch": 65, "duration": 12, "velocity": 83}, {"time": 5358, "pitch": 48, "duration": 20, "velocity": 80}, {"time": 5364, "pitch": 60, "duration": 8, "velocity": 93}, {"time": 5370, "pitch": 65, "duration": 3, "velocity": 88}, {"time": 5376, "pitch": 60, "duration": 4, "velocity": 88}, {"time": 5376, "pitch": 68, "duration": 7, "velocity": 86}, {"time": 5382, "pitch": 65, "duration": 6, "velocity": 93}, {"time": 5388, "pitch": 60, "duration": 8, "velocity": 88}, {"time": 5394, "pitch": 65, "duration": 2, "velocity": 85}, {"time": 5400, "pitch": 46, "duration": 43, "velocity": 87}, {"time": 5400, "pitch": 58, "duration": 12, "velocity": 80}, {"time": 5400, "pitch": 65, "duration": 11, "velocity": 88}, {"time": 5406, "pitch": 53, "duration": 20, "velocity": 80}, {"time": 5412, "pitch": 61, "duration": 6, "velocity": 79}, {"time": 5418, "pitch": 58, "duration": 3, "velocity": 77}, {"time": 5424, "pitch": 58, "duration": 14, "velocity": 87}, {"time": 5424, "pitch": 65, "duration": 20, "velocity": 88}, {"time": 5430, "pitch": 53, "duration": 13, "velocity": 82}, {"time": 5436, "pitch": 61, "duration": 7, "velocity": 88}, {"time": 5442, "pitch": 58, "duration": 4, "velocity": 78}, {"time": 5448, "pitch": 41, "duration": 32, "velocity": 81}, {"time": 5448, "pitch": 65, "duration": 9, "velocity": 85}, {"time": 5454, "pitch": 48, "duration": 21, "velocity": 81}, {"time": 5460, "pitch": 60, "duration": 7, "velocity": 89}, {"time": 5466, "pitch": 65, "duration": 3, "velocity": 87}, {"time": 5472, "pitch": 60, "duration": 9, "velocity": 88}, {"time": 5472, "pitch": 68, "duration": 12, "velocity": 80}, {"time": 5478, "pitch": 48, "duration": 3, "velocity": 76}, {"time": 5484, "pitch": 65, "duration": 3, "velocity": 87}, {"time": 5490, "pitch": 63, "duration": 2, "velocity": 85}, {"time": 5496, "pitch": 49, "duration": 41, "velocity": 87}, {"time": 5496, "pitch": 56, "duration": 3, "velocity": 78}, {"time": 5496, "pitch": 61, "duration": 7, "velocity": 84}, {"time": 5502, "pitch": 56, "duration": 6, "velocity": 79}, {"time": 5508, "pitch": 61, "duration": 4, "velocity": 79}, {"time": 5514, "pitch": 56, "duration": 2, "velocity": 75}, {"time": 5520, "pitch": 56, "duration": 4, "velocity": 88}, {"time": 5520, "pitch": 65, "duration": 21, "velocity": 89}, {"time": 5526, "pitch": 56, "duration": 8, "velocity": 88}, {"time": 5532, "pitch": 61, "duration": 12, "velocity": 90}, {"time": 5538, "pitch": 56, "duration": 4, "velocity": 74}, {"time": 5544, "pitch": 39, "duration": 35, "velocity": 89}, {"time": 5544, "pitch": 63, "duration": 18, "velocity": 82}, {"time": 5550, "pitch": 46, "duration": 20, "velocity": 74}, {"time": 5556, "pitch": 51, "duration": 9, "velocity": 78}, {"time": 5562, "pitch": 55, "duration": 4, "velocity": 88}, {"time": 5568, "pitch": 55, "duration": 13, "velocity": 80}, {"time": 5568, "pitch": 63, "duration": 15, "velocity": 89}, {"time": 5574, "pitch": 46, "duration": 5, "velocity": 83}, {"time": 5580, "pitch": 51, "duration": 7, "velocity": 90}, {"time": 5586, "pitch": 55, "duration": 3, "velocity": 84}, {"time": 5586, "pitch": 63, "duration": 2, "velocity": 41}, {"time": 5592, "pitch": 44, "duration": 30, "velocity": 87}, {"time": 5592, "pitch": 56, "duration": 7, "velocity": 82}, {"time": 5592, "pitch": 60, "duration": 8, "velocity": 88}, {"time": 5598, "pitch": 51, "duration": 22, "velocity": 79}, {"time": 5604, "pitch": 56, "duration": 8, "velocity": 89}, {"time": 5610, "pitch": 63, "duration": 7, "velocity": 83}, {"time": 5616, "pitch": 68, "duration": 15, "velocity": 90}, {"time": 5622, "pitch": 56, "duration": 8, "velocity": 104}, {"time": 5628, "pitch": 51, "duration": 9, "velocity": 88}, {"time": 5634, "pitch": 56, "duration": 4, "velocity": 85}, {"time": 5640, "pitch": 46, "duration": 28, "velocity": 89}, {"time": 5640, "pitch": 58, "duration": 8, "velocity": 77}, {"time": 5640, "pitch": 62, "duration": 10, "velocity": 88}, {"time": 5646, "pitch": 53, "duration": 20, "velocity": 88}, {"time": 5652, "pitch": 58, "duration": 4, "velocity": 82}, {"time": 5658, "pitch": 65, "duration": 3, "velocity": 83}, {"time": 5664, "pitch": 58, "duration": 5, "velocity": 91}, {"time": 5664, "pitch": 70, "duration": 6, "velocity": 89}, {"time": 5670, "pitch": 53, "duration": 7, "velocity": 88}, {"time": 5676, "pitch": 58, "duration": 2, "velocity": 85}, {"time": 5676, "pitch": 62, "duration": 3, "velocity": 87}, {"time": 5676, "pitch": 65, "duration": 10, "velocity": 89}, {"time": 5682, "pitch": 58, "duration": 4, "velocity": 83}, {"time": 5688, "pitch": 49, "duration": 14, "velocity": 83}, {"time": 5688, "pitch": 56, "duration": 3, "velocity": 87}, {"time": 5688, "pitch": 61, "duration": 9, "velocity": 84}, {"time": 5694, "pitch": 56, "duration": 3, "velocity": 80}, {"time": 5700, "pitch": 56, "duration": 2, "velocity": 88}, {"time": 5700, "pitch": 61, "duration": 7, "velocity": 87}, {"time": 5700, "pitch": 65, "duration": 10, "velocity": 89}, {"time": 5706, "pitch": 56, "duration": 2, "velocity": 76}, {"time": 5712, "pitch": 39, "duration": 12, "velocity": 88}, {"time": 5712, "pitch": 58, "duration": 4, "velocity": 80}, {"time": 5712, "pitch": 63, "duration": 9, "velocity": 81}, {"time": 5718, "pitch": 58, "duration": 5, "velocity": 81}, {"time": 5724, "pitch": 63, "duration": 8, "velocity": 88}, {"time": 5724, "pitch": 67, "duration": 8, "velocity": 87}, {"time": 5730, "pitch": 58, "duration": 3, "velocity": 78}, {"time": 5736, "pitch": 41, "duration": 28, "velocity": 87}, {"time": 5736, "pitch": 65, "duration": 13, "velocity": 82}, {"time": 5742, "pitch": 48, "duration": 20, "velocity": 75}, {"time": 5748, "pitch": 60, "duration": 8, "velocity": 84}, {"time": 5754, "pitch": 65, "duration": 3, "velocity": 85}, {"time": 5760, "pitch": 60, "duration": 8, "velocity": 87}, {"time": 5760, "pitch": 65, "duration": 13, "velocity": 88}, {"time": 5760, "pitch": 68, "duration": 12, "velocity": 83}, {"time": 5766, "pitch": 48, "duration": 2, "velocity": 85}, {"time": 5772, "pitch": 60, "duration": 7, "velocity": 87}, {"time": 5778, "pitch": 65, "duration": 2, "velocity": 81}, {"time": 5784, "pitch": 44, "duration": 28, "velocity": 87}, {"time": 5784, "pitch": 56, "duration": 12, "velocity": 85}, {"time": 5784, "pitch": 60, "duration": 13, "velocity": 85}, {"time": 5790, "pitch": 51, "duration": 20, "velocity": 77}, {"time": 5796, "pitch": 63, "duration": 7, "velocity": 83}, {"time": 5802, "pitch": 56, "duration": 3, "velocity": 85}, {"time": 5808, "pitch": 56, "duration": 4, "velocity": 94}, {"time": 5808, "pitch": 68, "duration": 3, "velocity": 87}, {"time": 5814, "pitch": 51, "duration": 3, "velocity": 89}, {"time": 5820, "pitch": 56, "duration": 2, "velocity": 88}, {"time": 5820, "pitch": 63, "duration": 12, "velocity": 86}, {"time": 5826, "pitch": 56, "duration": 5, "velocity": 80}, {"time": 5832, "pitch": 46, "duration": 36, "velocity": 88}, {"time": 5832, "pitch": 62, "duration": 15, "velocity": 88}, {"time": 5838, "pitch": 53, "duration": 26, "velocity": 81}, {"time": 5844, "pitch": 58, "duration": 8, "velocity": 81}, {"time": 5850, "pitch": 65, "duration": 4, "velocity": 83}, {"time": 5856, "pitch": 70, "duration": 6, "velocity": 89}, {"time": 5862, "pitch": 65, "duration": 5, "velocity": 89}, {"time": 5868, "pitch": 62, "duration": 7, "velocity": 89}, {"time": 5874, "pitch": 58, "duration": 3, "velocity": 83}, {"time": 5880, "pitch": 49, "duration": 10, "velocity": 89}, {"time": 5880, "pitch": 56, "duration": 3, "velocity": 86}, {"time": 5880, "pitch": 61, "duration": 7, "velocity": 82}, {"time": 5886, "pitch": 56, "duration": 6, "velocity": 79}, {"time": 5892, "pitch": 65, "duration": 8, "velocity": 84}, {"time": 5898, "pitch": 56, "duration": 3, "velocity": 78}, {"time": 5904, "pitch": 39, "duration": 11, "velocity": 90}, {"time": 5904, "pitch": 58, "duration": 5, "velocity": 82}, {"time": 5904, "pitch": 63, "duration": 8, "velocity": 84}, {"time": 5910, "pitch": 46, "duration": 4, "velocity": 76}, {"time": 5916, "pitch": 58, "duration": 2, "velocity": 77}, {"time": 5916, "pitch": 63, "duration": 9, "velocity": 84}, {"time": 5916, "pitch": 67, "duration": 9, "velocity": 80}, {"time": 5922, "pitch": 58, "duration": 2, "velocity": 79}, {"time": 5928, "pitch": 41, "duration": 43, "velocity": 87}, {"time": 5928, "pitch": 60, "duration": 8, "velocity": 76}, {"time": 5928, "pitch": 65, "duration": 13, "velocity": 82}, {"time": 5934, "pitch": 48, "duration": 35, "velocity": 74}, {"time": 5940, "pitch": 60, "duration": 8, "velocity": 78}, {"time": 5946, "pitch": 65, "duration": 3, "velocity": 80}, {"time": 5952, "pitch": 68, "duration": 7, "velocity": 82}, {"time": 5958, "pitch": 65, "duration": 8, "velocity": 79}, {"time": 5964, "pitch": 60, "duration": 12, "velocity": 78}, {"time": 5970, "pitch": 65, "duration": 6, "velocity": 82}, {"time": 5973, "pitch": 53, "duration": 15, "velocity": 77}, {"time": 5975, "pitch": 56, "duration": 13, "velocity": 83}, {"time": 5975, "pitch": 41, "duration": 84, "velocity": 91}, {"time": 5976, "pitch": 60, "duration": 11, "velocity": 83}, {"time": 5977, "pitch": 65, "duration": 9, "velocity": 92}, {"time": 6008, "pitch": 48, "duration": 50, "velocity": 31}, {"time": 6011, "pitch": 53, "duration": 3, "velocity": 74}, {"time": 6017, "pitch": 53, "duration": 2, "velocity": 83}, {"time": 6017, "pitch": 60, "duration": 3, "velocity": 80}, {"time": 6047, "pitch": 60, "duration": 8, "velocity": 76}, {"time": 6047, "pitch": 53, "duration": 2, "velocity": 74}, {"time": 6047, "pitch": 65, "duration": 7, "velocity": 76}, {"time": 6053, "pitch": 53, "duration": 2, "velocity": 71}, {"time": 6069, "pitch": 56, "duration": 14, "velocity": 66}, {"time": 6070, "pitch": 61, "duration": 13, "velocity": 75}, {"time": 6071, "pitch": 37, "duration": 3, "velocity": 87}, {"time": 6072, "pitch": 65, "duration": 11, "velocity": 84}, {"time": 6090, "pitch": 56, "duration": 1, "velocity": 64}, {"time": 6101, "pitch": 65, "duration": 5, "velocity": 72}, {"time": 6101, "pitch": 56, "duration": 6, "velocity": 62}, {"time": 6102, "pitch": 61, "duration": 5, "velocity": 76}, {"time": 6114, "pitch": 56, "duration": 2, "velocity": 52}, {"time": 6120, "pitch": 56, "duration": 2, "velocity": 70}, {"time": 6120, "pitch": 61, "duration": 3, "velocity": 70}, {"time": 6120, "pitch": 49, "duration": 15, "velocity": 71}, {"time": 6149, "pitch": 61, "duration": 6, "velocity": 78}, {"time": 6150, "pitch": 56, "duration": 1, "velocity": 75}, {"time": 6155, "pitch": 56, "duration": 2, "velocity": 86}, {"time": 6164, "pitch": 53, "duration": 4, "velocity": 79}, {"time": 6166, "pitch": 56, "duration": 6, "velocity": 81}, {"time": 6167, "pitch": 60, "duration": 6, "velocity": 81}, {"time": 6167, "pitch": 41, "duration": 86, "velocity": 90}, {"time": 6167, "pitch": 65, "duration": 7, "velocity": 91}, {"time": 6174, "pitch": 48, "duration": 69, "velocity": 72}, {"time": 6179, "pitch": 53, "duration": 3, "velocity": 79}, {"time": 6185, "pitch": 60, "duration": 3, "velocity": 76}, {"time": 6185, "pitch": 53, "duration": 3, "velocity": 78}, {"time": 6197, "pitch": 60, "duration": 7, "velocity": 74}, {"time": 6203, "pitch": 53, "duration": 8, "velocity": 77}, {"time": 6210, "pitch": 60, "duration": 3, "velocity": 73}, {"time": 6215, "pitch": 65, "duration": 5, "velocity": 88}, {"time": 6221, "pitch": 53, "duration": 3, "velocity": 75}, {"time": 6240, "pitch": 56, "duration": 7, "velocity": 79}, {"time": 6240, "pitch": 60, "duration": 9, "velocity": 82}, {"time": 6245, "pitch": 53, "duration": 3, "velocity": 86}, {"time": 6251, "pitch": 48, "duration": 2, "velocity": 79}, {"time": 6261, "pitch": 56, "duration": 6, "velocity": 73}, {"time": 6263, "pitch": 61, "duration": 7, "velocity": 81}, {"time": 6263, "pitch": 37, "duration": 3, "velocity": 88}, {"time": 6264, "pitch": 65, "duration": 7, "velocity": 83}, {"time": 6269, "pitch": 56, "duration": 3, "velocity": 73}, {"time": 6287, "pitch": 56, "duration": 3, "velocity": 81}, {"time": 6287, "pitch": 65, "duration": 4, "velocity": 86}, {"time": 6293, "pitch": 61, "duration": 7, "velocity": 71}, {"time": 6299, "pitch": 56, "duration": 3, "velocity": 67}, {"time": 6305, "pitch": 61, "duration": 27, "velocity": 78}, {"time": 6306, "pitch": 56, "duration": 25, "velocity": 73}, {"time": 6329, "pitch": 49, "duration": 8, "velocity": 73}, {"time": 6336, "pitch": 56, "duration": 9, "velocity": 84}, {"time": 6336, "pitch": 61, "duration": 14, "velocity": 84}, {"time": 6341, "pitch": 49, "duration": 10, "velocity": 80}, {"time": 6348, "pitch": 56, "duration": 4, "velocity": 68}, {"time": 6357, "pitch": 53, "duration": 15, "velocity": 77}, {"time": 6359, "pitch": 56, "duration": 13, "velocity": 83}, {"time": 6359, "pitch": 41, "duration": 84, "velocity": 91}, {"time": 6360, "pitch": 60, "duration": 11, "velocity": 83}, {"time": 6361, "pitch": 65, "duration": 9, "velocity": 92}, {"time": 6392, "pitch": 48, "duration": 50, "velocity": 31}, {"time": 6395, "pitch": 53, "duration": 3, "velocity": 74}, {"time": 6401, "pitch": 53, "duration": 2, "velocity": 83}, {"time": 6401, "pitch": 60, "duration": 3, "velocity": 80}, {"time": 6431, "pitch": 60, "duration": 8, "velocity": 76}, {"time": 6431, "pitch": 53, "duration": 2, "velocity": 74}, {"time": 6431, "pitch": 65, "duration": 7, "velocity": 76}, {"time": 6437, "pitch": 53, "duration": 2, "velocity": 71}, {"time": 6453, "pitch": 56, "duration": 14, "velocity": 66}, {"time": 6454, "pitch": 61, "duration": 13, "velocity": 75}, {"time": 6455, "pitch": 37, "duration": 3, "velocity": 87}, {"time": 6456, "pitch": 65, "duration": 11, "velocity": 84}, {"time": 6474, "pitch": 56, "duration": 1, "velocity": 64}, {"time": 6485, "pitch": 65, "duration": 5, "velocity": 72}, {"time": 6485, "pitch": 56, "duration": 6, "velocity": 62}, {"time": 6486, "pitch": 61, "duration": 5, "velocity": 76}, {"time": 6498, "pitch": 56, "duration": 2, "velocity": 52}, {"time": 6504, "pitch": 56, "duration": 2, "velocity": 70}, {"time": 6504, "pitch": 61, "duration": 3, "velocity": 70}, {"time": 6504, "pitch": 49, "duration": 15, "velocity": 71}, {"time": 6533, "pitch": 61, "duration": 6, "velocity": 78}, {"time": 6534, "pitch": 56, "duration": 1, "velocity": 75}, {"time": 6539, "pitch": 56, "duration": 2, "velocity": 86}, {"time": 6548, "pitch": 53, "duration": 4, "velocity": 79}, {"time": 6550, "pitch": 56, "duration": 6, "velocity": 81}, {"time": 6551, "pitch": 60, "duration": 6, "velocity": 81}, {"time": 6551, "pitch": 41, "duration": 86, "velocity": 90}, {"time": 6551, "pitch": 65, "duration": 7, "velocity": 91}, {"time": 6558, "pitch": 48, "duration": 69, "velocity": 72}, {"time": 6563, "pitch": 53, "duration": 3, "velocity": 79}, {"time": 6569, "pitch": 60, "duration": 3, "velocity": 76}, {"time": 6569, "pitch": 53, "duration": 3, "velocity": 78}, {"time": 6581, "pitch": 60, "duration": 7, "velocity": 74}, {"time": 6587, "pitch": 53, "duration": 8, "velocity": 77}, {"time": 6594, "pitch": 60, "duration": 3, "velocity": 73}, {"time": 6599, "pitch": 65, "duration": 5, "velocity": 88}, {"time": 6605, "pitch": 53, "duration": 3, "velocity": 75}, {"time": 6624, "pitch": 56, "duration": 7, "velocity": 79}, {"time": 6624, "pitch": 60, "duration": 9, "velocity": 82}, {"time": 6629, "pitch": 53, "duration": 3, "velocity": 86}, {"time": 6635, "pitch": 48, "duration": 2, "velocity": 79}], "annotations": [{"time": 313, "annotation": {"number": 64, "value": 127}, "group": "control_change"}, {"time": 404, "annotation": {"number": 64, "value": 0}, "group": "control_change"}, {"time": 407, "annotation": {"number": 64, "value": 127}, "group": "control_change"}, {"time": 501, "annotation": {"number": 64, "value": 0}, "group": "control_change"}, {"time": 504, "annotation": {"number": 64, "value": 127}, "group": "control_change"}, {"time": 597, "annotation": {"number": 64, "value": 0}, "group": "control_change"}, {"time": 599, "annotation": {"number": 64, "value": 127}, "group": "control_change"}, {"time": 741, "annotation": {"number": 64, "value": 0}, "group": "control_change"}, {"time": 790, "annotation": {"number": 64, "value": 0}, "group": "control_change"}, {"time": 793, "annotation": {"number": 64, "value": 127}, "group": "control_change"}, {"time": 814, "annotation": {"number": 64, "value": 0}, "group": "control_change"}, {"time": 817, "annotation": {"number": 64, "value": 127}, "group": "control_change"}, {"time": 838, "annotation": {"number": 64, "value": 0}, "group": "control_change"}, {"time": 842, "annotation": {"number": 64, "value": 127}, "group": "control_change"}, {"time": 885, "annotation": {"number": 64, "value": 0}, "group": "control_change"}, {"time": 890, "annotation": {"number": 64, "value": 127}, "group": "control_change"}, {"time": 934, "annotation": {"number": 64, "value": 0}, "group": "control_change"}, {"time": 939, "annotation": {"number": 64, "value": 127}, "group": "control_change"}, {"time": 983, "annotation": {"number": 64, "value": 0}, "group": "control_change"}, {"time": 988, "annotation": {"number": 64, "value": 127}, "group": "control_change"}, {"time": 1030, "annotation": {"number": 64, "value": 0}, "group": "control_change"}, {"time": 1034, "annotation": {"number": 64, "value": 127}, "group": "control_change"}, {"time": 1078, "annotation": {"number": 64, "value": 0}, "group": "control_change"}, {"time": 1080, "annotation": {"number": 64, "value": 127}, "group": "control_change"}, {"time": 1128, "annotation": {"number": 64, "value": 0}, "group": "control_change"}, {"time": 1131, "annotation": {"number": 64, "value": 127}, "group": "control_change"}, {"time": 1175, "annotation": {"number": 64, "value": 0}, "group": "control_change"}, {"time": 1180, "annotation": {"number": 64, "value": 127}, "group": "control_change"}, {"time": 1221, "annotation": {"number": 64, "value": 0}, "group": "control_change"}, {"time": 1225, "annotation": {"number": 64, "value": 127}, "group": "control_change"}, {"time": 1270, "annotation": {"number": 64, "value": 0}, "group": "control_change"}, {"time": 1273, "annotation": {"number": 64, "value": 127}, "group": "control_change"}, {"time": 1318, "annotation": {"number": 64, "value": 0}, "group": "control_change"}, {"time": 1321, "annotation": {"number": 64, "value": 127}, "group": "control_change"}, {"time": 1368, "annotation": {"number": 64, "value": 0}, "group": "control_change"}, {"time": 1372, "annotation": {"number": 64, "value": 127}, "group": "control_change"}, {"time": 1413, "annotation": {"number": 64, "value": 0}, "group": "control_change"}, {"time": 1416, "annotation": {"number": 64, "value": 127}, "group": "control_change"}, {"time": 1509, "annotation": {"number": 64, "value": 0}, "group": "control_change"}, {"time": 1512, "annotation": {"number": 64, "value": 127}, "group": "control_change"}, {"time": 1558, "annotation": {"number": 64, "value": 0}, "group": "control_change"}, {"time": 1561, "annotation": {"number": 64, "value": 127}, "group": "control_change"}, {"time": 1605, "annotation": {"number": 64, "value": 0}, "group": "control_change"}, {"time": 1608, "annotation": {"number": 64, "value": 127}, "group": "control_change"}, {"time": 1655, "annotation": {"number": 64, "value": 0}, "group": "control_change"}, {"time": 1658, "annotation": {"number": 64, "value": 127}, "group": "control_change"}, {"time": 1702, "annotation": {"number": 64, "value": 0}, "group": "control_change"}, {"time": 1706, "annotation": {"number": 64, "value": 127}, "group": "control_change"}, {"time": 1750, "annotation": {"number": 64, "value": 0}, "group": "control_change"}, {"time": 1752, "annotation": {"number": 64, "value": 127}, "group": "control_change"}, {"time": 1798, "annotation": {"number": 64, "value": 0}, "group": "control_change"}, {"time": 1805, "annotation": {"number": 64, "value": 127}, "group": "control_change"}, {"time": 1844, "annotation": {"number": 64, "value": 0}, "group": "control_change"}, {"time": 1848, "annotation": {"number": 64, "value": 127}, "group": "control_change"}, {"time": 1869, "annotation": {"number": 64, "value": 0}, "group": "control_change"}, {"time": 1871, "annotation": {"number": 64, "value": 127}, "group": "control_change"}, {"time": 1893, "annotation": {"number": 64, "value": 0}, "group": "control_change"}, {"time": 1897, "annotation": {"number": 64, "value": 127}, "group": "control_change"}, {"time": 1944, "annotation": {"number": 64, "value": 0}, "group": "control_change"}, {"time": 1946, "annotation": {"number": 64, "value": 127}, "group": "control_change"}, {"time": 1985, "annotation": {"number": 64, "value": 0}, "group": "control_change"}, {"time": 1993, "annotation": {"number": 64, "value": 127}, "group": "control_change"}, {"time": 2039, "annotation": {"number": 64, "value": 0}, "group": "control_change"}, {"time": 2045, "annotation": {"number": 64, "value": 127}, "group": "control_change"}, {"time": 2085, "annotation": {"number": 64, "value": 0}, "group": "control_change"}, {"time": 2088, "annotation": {"number": 64, "value": 127}, "group": "control_change"}, {"time": 2109, "annotation": {"number": 64, "value": 0}, "group": "control_change"}, {"time": 2112, "annotation": {"number": 64, "value": 127}, "group": "control_change"}, {"time": 2135, "annotation": {"number": 64, "value": 0}, "group": "control_change"}, {"time": 2138, "annotation": {"number": 64, "value": 127}, "group": "control_change"}, {"time": 2184, "annotation": {"number": 64, "value": 127}, "group": "control_change"}, {"time": 2214, "annotation": {"number": 64, "value": 0}, "group": "control_change"}, {"time": 2216, "annotation": {"number": 64, "value": 127}, "group": "control_change"}, {"time": 2232, "annotation": {"number": 64, "value": 0}, "group": "control_change"}, {"time": 2233, "annotation": {"number": 64, "value": 127}, "group": "control_change"}, {"time": 2279, "annotation": {"number": 64, "value": 0}, "group": "control_change"}, {"time": 2280, "annotation": {"number": 64, "value": 127}, "group": "control_change"}, {"time": 2310, "annotation": {"number": 64, "value": 0}, "group": "control_change"}, {"time": 2313, "annotation": {"number": 64, "value": 127}, "group": "control_change"}, {"time": 2325, "annotation": {"number": 64, "value": 0}, "group": "control_change"}, {"time": 2328, "annotation": {"number": 64, "value": 127}, "group": "control_change"}, {"time": 2373, "annotation": {"number": 64, "value": 0}, "group": "control_change"}, {"time": 2377, "annotation": {"number": 64, "value": 127}, "group": "control_change"}, {"time": 2423, "annotation": {"number": 64, "value": 0}, "group": "control_change"}, {"time": 2425, "annotation": {"number": 64, "value": 127}, "group": "control_change"}, {"time": 2469, "annotation": {"number": 64, "value": 0}, "group": "control_change"}, {"time": 2472, "annotation": {"number": 64, "value": 127}, "group": "control_change"}, {"time": 2492, "annotation": {"number": 64, "value": 0}, "group": "control_change"}, {"time": 2495, "annotation": {"number": 64, "value": 127}, "group": "control_change"}, {"time": 2517, "annotation": {"number": 64, "value": 0}, "group": "control_change"}, {"time": 2520, "annotation": {"number": 64, "value": 127}, "group": "control_change"}, {"time": 2566, "annotation": {"number": 64, "value": 0}, "group": "control_change"}, {"time": 2570, "annotation": {"number": 64, "value": 127}, "group": "control_change"}, {"time": 2615, "annotation": {"number": 64, "value": 0}, "group": "control_change"}, {"time": 2622, "annotation": {"number": 64, "value": 127}, "group": "control_change"}, {"time": 2660, "annotation": {"number": 64, "value": 0}, "group": "control_change"}, {"time": 2664, "annotation": {"number": 64, "value": 127}, "group": "control_change"}, {"time": 2685, "annotation": {"number": 64, "value": 0}, "group": "control_change"}, {"time": 2687, "annotation": {"number": 64, "value": 127}, "group": "control_change"}, {"time": 2709, "annotation": {"number": 64, "value": 0}, "group": "control_change"}, {"time": 2712, "annotation": {"number": 64, "value": 127}, "group": "control_change"}, {"time": 2755, "annotation": {"number": 64, "value": 0}, "group": "control_change"}, {"time": 2761, "annotation": {"number": 64, "value": 127}, "group": "control_change"}, {"time": 2852, "annotation": {"number": 64, "value": 0}, "group": "control_change"}, {"time": 2855, "annotation": {"number": 64, "value": 127}, "group": "control_change"}, {"time": 2949, "annotation": {"number": 64, "value": 0}, "group": "control_change"}, {"time": 2952, "annotation": {"number": 64, "value": 127}, "group": "control_change"}, {"time": 3045, "annotation": {"number": 64, "value": 0}, "group": "control_change"}, {"time": 3047, "annotation": {"number": 64, "value": 127}, "group": "control_change"}, {"time": 3189, "annotation": {"number": 64, "value": 0}, "group": "control_change"}, {"time": 3238, "annotation": {"number": 64, "value": 0}, "group": "control_change"}, {"time": 3241, "annotation": {"number": 64, "value": 127}, "group": "control_change"}, {"time": 3262, "annotation": {"number": 64, "value": 0}, "group": "control_change"}, {"time": 3265, "annotation": {"number": 64, "value": 127}, "group": "control_change"}, {"time": 3286, "annotation": {"number": 64, "value": 0}, "group": "control_change"}, {"time": 3290, "annotation": {"number": 64, "value": 127}, "group": "control_change"}, {"time": 3333, "annotation": {"number": 64, "value": 0}, "group": "control_change"}, {"time": 3338, "annotation": {"number": 64, "value": 127}, "group": "control_change"}, {"time": 3382, "annotation": {"number": 64, "value": 0}, "group": "control_change"}, {"time": 3387, "annotation": {"number": 64, "value": 127}, "group": "control_change"}, {"time": 3431, "annotation": {"number": 64, "value": 0}, "group": "control_change"}, {"time": 3436, "annotation": {"number": 64, "value": 127}, "group": "control_change"}, {"time": 3478, "annotation": {"number": 64, "value": 0}, "group": "control_change"}, {"time": 3482, "annotation": {"number": 64, "value": 127}, "group": "control_change"}, {"time": 3526, "annotation": {"number": 64, "value": 0}, "group": "control_change"}, {"time": 3528, "annotation": {"number": 64, "value": 127}, "group": "control_change"}, {"time": 3576, "annotation": {"number": 64, "value": 0}, "group": "control_change"}, {"time": 3579, "annotation": {"number": 64, "value": 127}, "group": "control_change"}, {"time": 3623, "annotation": {"number": 64, "value": 0}, "group": "control_change"}, {"time": 3628, "annotation": {"number": 64, "value": 127}, "group": "control_change"}, {"time": 3669, "annotation": {"number": 64, "value": 0}, "group": "control_change"}, {"time": 3673, "annotation": {"number": 64, "value": 127}, "group": "control_change"}, {"time": 3718, "annotation": {"number": 64, "value": 0}, "group": "control_change"}, {"time": 3721, "annotation": {"number": 64, "value": 127}, "group": "control_change"}, {"time": 3766, "annotation": {"number": 64, "value": 0}, "group": "control_change"}, {"time": 3769, "annotation": {"number": 64, "value": 127}, "group": "control_change"}, {"time": 3816, "annotation": {"number": 64, "value": 0}, "group": "control_change"}, {"time": 3820, "annotation": {"number": 64, "value": 127}, "group": "control_change"}, {"time": 3861, "annotation": {"number": 64, "value": 0}, "group": "control_change"}, {"time": 3864, "annotation": {"number": 64, "value": 127}, "group": "control_change"}, {"time": 3957, "annotation": {"number": 64, "value": 0}, "group": "control_change"}, {"time": 3960, "annotation": {"number": 64, "value": 127}, "group": "control_change"}, {"time": 4006, "annotation": {"number": 64, "value": 0}, "group": "control_change"}, {"time": 4009, "annotation": {"number": 64, "value": 127}, "group": "control_change"}, {"time": 4053, "annotation": {"number": 64, "value": 0}, "group": "control_change"}, {"time": 4056, "annotation": {"number": 64, "value": 127}, "group": "control_change"}, {"time": 4103, "annotation": {"number": 64, "value": 0}, "group": "control_change"}, {"time": 4106, "annotation": {"number": 64, "value": 127}, "group": "control_change"}, {"time": 4150, "annotation": {"number": 64, "value": 0}, "group": "control_change"}, {"time": 4154, "annotation": {"number": 64, "value": 127}, "group": "control_change"}, {"time": 4198, "annotation": {"number": 64, "value": 0}, "group": "control_change"}, {"time": 4200, "annotation": {"number": 64, "value": 127}, "group": "control_change"}, {"time": 4246, "annotation": {"number": 64, "value": 0}, "group": "control_change"}, {"time": 4253, "annotation": {"number": 64, "value": 127}, "group": "control_change"}, {"time": 4292, "annotation": {"number": 64, "value": 0}, "group": "control_change"}, {"time": 4296, "annotation": {"number": 64, "value": 127}, "group": "control_change"}, {"time": 4317, "annotation": {"number": 64, "value": 0}, "group": "control_change"}, {"time": 4319, "annotation": {"number": 64, "value": 127}, "group": "control_change"}, {"time": 4341, "annotation": {"number": 64, "value": 0}, "group": "control_change"}, {"time": 4345, "annotation": {"number": 64, "value": 127}, "group": "control_change"}, {"time": 4392, "annotation": {"number": 64, "value": 0}, "group": "control_change"}, {"time": 4394, "annotation": {"number": 64, "value": 127}, "group": "control_change"}, {"time": 4433, "annotation": {"number": 64, "value": 0}, "group": "control_change"}, {"time": 4441, "annotation": {"number": 64, "value": 127}, "group": "control_change"}, {"time": 4487, "annotation": {"number": 64, "value": 0}, "group": "control_change"}, {"time": 4493, "annotation": {"number": 64, "value": 127}, "group": "control_change"}, {"time": 4533, "annotation": {"number": 64, "value": 0}, "group": "control_change"}, {"time": 4536, "annotation": {"number": 64, "value": 127}, "group": "control_change"}, {"time": 4557, "annotation": {"number": 64, "value": 0}, "group": "control_change"}, {"time": 4560, "annotation": {"number": 64, "value": 127}, "group": "control_change"}, {"time": 4583, "annotation": {"number": 64, "value": 0}, "group": "control_change"}, {"time": 4586, "annotation": {"number": 64, "value": 127}, "group": "control_change"}, {"time": 4632, "annotation": {"number": 64, "value": 127}, "group": "control_change"}, {"time": 4662, "annotation": {"number": 64, "value": 0}, "group": "control_change"}, {"time": 4664, "annotation": {"number": 64, "value": 127}, "group": "control_change"}, {"time": 4680, "annotation": {"number": 64, "value": 0}, "group": "control_change"}, {"time": 4681, "annotation": {"number": 64, "value": 127}, "group": "control_change"}, {"time": 4727, "annotation": {"number": 64, "value": 0}, "group": "control_change"}, {"time": 4728, "annotation": {"number": 64, "value": 127}, "group": "control_change"}, {"time": 4758, "annotation": {"number": 64, "value": 0}, "group": "control_change"}, {"time": 4761, "annotation": {"number": 64, "value": 127}, "group": "control_change"}, {"time": 4773, "annotation": {"number": 64, "value": 0}, "group": "control_change"}, {"time": 4776, "annotation": {"number": 64, "value": 127}, "group": "control_change"}, {"time": 4821, "annotation": {"number": 64, "value": 0}, "group": "control_change"}, {"time": 4825, "annotation": {"number": 64, "value": 127}, "group": "control_change"}, {"time": 4871, "annotation": {"number": 64, "value": 0}, "group": "control_change"}, {"time": 4873, "annotation": {"number": 64, "value": 127}, "group": "control_change"}, {"time": 4917, "annotation": {"number": 64, "value": 0}, "group": "control_change"}, {"time": 4920, "annotation": {"number": 64, "value": 127}, "group": "control_change"}, {"time": 4940, "annotation": {"number": 64, "value": 0}, "group": "control_change"}, {"time": 4943, "annotation": {"number": 64, "value": 127}, "group": "control_change"}, {"time": 4965, "annotation": {"number": 64, "value": 0}, "group": "control_change"}, {"time": 4968, "annotation": {"number": 64, "value": 127}, "group": "control_change"}, {"time": 5014, "annotation": {"number": 64, "value": 0}, "group": "control_change"}, {"time": 5018, "annotation": {"number": 64, "value": 127}, "group": "control_change"}, {"time": 5063, "annotation": {"number": 64, "value": 0}, "group": "control_change"}, {"time": 5070, "annotation": {"number": 64, "value": 127}, "group": "control_change"}, {"time": 5108, "annotation": {"number": 64, "value": 0}, "group": "control_change"}, {"time": 5112, "annotation": {"number": 64, "value": 127}, "group": "control_change"}, {"time": 5133, "annotation": {"number": 64, "value": 0}, "group": "control_change"}, {"time": 5135, "annotation": {"number": 64, "value": 127}, "group": "control_change"}, {"time": 5157, "annotation": {"number": 64, "value": 0}, "group": "control_change"}, {"time": 5160, "annotation": {"number": 64, "value": 127}, "group": "control_change"}, {"time": 5203, "annotation": {"number": 64, "value": 0}, "group": "control_change"}, {"time": 5209, "annotation": {"number": 64, "value": 127}, "group": "control_change"}, {"time": 5255, "annotation": {"number": 64, "value": 0}, "group": "control_change"}, {"time": 5261, "annotation": {"number": 64, "value": 127}, "group": "control_change"}, {"time": 5301, "annotation": {"number": 64, "value": 0}, "group": "control_change"}, {"time": 5304, "annotation": {"number": 64, "value": 127}, "group": "control_change"}, {"time": 5325, "annotation": {"number": 64, "value": 0}, "group": "control_change"}, {"time": 5328, "annotation": {"number": 64, "value": 127}, "group": "control_change"}, {"time": 5351, "annotation": {"number": 64, "value": 0}, "group": "control_change"}, {"time": 5354, "annotation": {"number": 64, "value": 127}, "group": "control_change"}, {"time": 5400, "annotation": {"number": 64, "value": 127}, "group": "control_change"}, {"time": 5430, "annotation": {"number": 64, "value": 0}, "group": "control_change"}, {"time": 5432, "annotation": {"number": 64, "value": 127}, "group": "control_change"}, {"time": 5448, "annotation": {"number": 64, "value": 0}, "group": "control_change"}, {"time": 5449, "annotation": {"number": 64, "value": 127}, "group": "control_change"}, {"time": 5495, "annotation": {"number": 64, "value": 0}, "group": "control_change"}, {"time": 5496, "annotation": {"number": 64, "value": 127}, "group": "control_change"}, {"time": 5526, "annotation": {"number": 64, "value": 0}, "group": "control_change"}, {"time": 5529, "annotation": {"number": 64, "value": 127}, "group": "control_change"}, {"time": 5541, "annotation": {"number": 64, "value": 0}, "group": "control_change"}, {"time": 5544, "annotation": {"number": 64, "value": 127}, "group": "control_change"}, {"time": 5589, "annotation": {"number": 64, "value": 0}, "group": "control_change"}, {"time": 5593, "annotation": {"number": 64, "value": 127}, "group": "control_change"}, {"time": 5639, "annotation": {"number": 64, "value": 0}, "group": "control_change"}, {"time": 5641, "annotation": {"number": 64, "value": 127}, "group": "control_change"}, {"time": 5685, "annotation": {"number": 64, "value": 0}, "group": "control_change"}, {"time": 5688, "annotation": {"number": 64, "value": 127}, "group": "control_change"}, {"time": 5708, "annotation": {"number": 64, "value": 0}, "group": "control_change"}, {"time": 5711, "annotation": {"number": 64, "value": 127}, "group": "control_change"}, {"time": 5733, "annotation": {"number": 64, "value": 0}, "group": "control_change"}, {"time": 5736, "annotation": {"number": 64, "value": 127}, "group": "control_change"}, {"time": 5782, "annotation": {"number": 64, "value": 0}, "group": "control_change"}, {"time": 5786, "annotation": {"number": 64, "value": 127}, "group": "control_change"}, {"time": 5831, "annotation": {"number": 64, "value": 0}, "group": "control_change"}, {"time": 5838, "annotation": {"number": 64, "value": 127}, "group": "control_change"}, {"time": 5876, "annotation": {"number": 64, "value": 0}, "group": "control_change"}, {"time": 5880, "annotation": {"number": 64, "value": 127}, "group": "control_change"}, {"time": 5901, "annotation": {"number": 64, "value": 0}, "group": "control_change"}, {"time": 5903, "annotation": {"number": 64, "value": 127}, "group": "control_change"}, {"time": 5925, "annotation": {"number": 64, "value": 0}, "group": "control_change"}, {"time": 5928, "annotation": {"number": 64, "value": 127}, "group": "control_change"}, {"time": 5971, "annotation": {"number": 64, "value": 0}, "group": "control_change"}, {"time": 5977, "annotation": {"number": 64, "value": 127}, "group": "control_change"}, {"time": 6068, "annotation": {"number": 64, "value": 0}, "group": "control_change"}, {"time": 6071, "annotation": {"number": 64, "value": 127}, "group": "control_change"}, {"time": 6165, "annotation": {"number": 64, "value": 0}, "group": "control_change"}, {"time": 6168, "annotation": {"number": 64, "value": 127}, "group": "control_change"}, {"time": 6261, "annotation": {"number": 64, "value": 0}, "group": "control_change"}, {"time": 6263, "annotation": {"number": 64, "value": 127}, "group": "control_change"}, {"time": 6347, "annotation": {"number": 64, "value": 127}, "group": "control_change"}, {"time": 6354, "annotation": {"number": 64, "value": 0}, "group": "control_change"}, {"time": 6359, "annotation": {"number": 64, "value": 127}, "group": "control_change"}, {"time": 6361, "annotation": {"number": 64, "value": 127}, "group": "control_change"}, {"time": 6405, "annotation": {"number": 64, "value": 0}, "group": "control_change"}, {"time": 6452, "annotation": {"number": 64, "value": 0}, "group": "control_change"}, {"time": 6454, "annotation": {"number": 64, "value": 0}, "group": "control_change"}, {"time": 6455, "annotation": {"number": 64, "value": 127}, "group": "control_change"}, {"time": 6456, "annotation": {"number": 64, "value": 127}, "group": "control_change"}, {"time": 6545, "annotation": {"number": 64, "value": 0}, "group": "control_change"}, {"time": 6549, "annotation": {"number": 64, "value": 0}, "group": "control_change"}, {"time": 6551, "annotation": {"number": 64, "value": 127}, "group": "control_change"}, {"time": 6552, "annotation": {"number": 64, "value": 127}, "group": "control_change"}]}]}