{"metadata": {"schema_version": "0.2", "title": "None", "source_filename": "788.mid", "source_format": "midi"}, "resolution": 12, "tempos": [{"time": 0, "qpm": 65.00013541694878}, {"time": 252, "qpm": 65.25001631250407}, {"time": 1011, "qpm": 65.00013541694878}, {"time": 1200, "qpm": 65.25001631250407}, {"time": 2151, "qpm": 65.00013541694878}, {"time": 2232, "qpm": 65.25001631250407}, {"time": 2736, "qpm": 64.75006475006475}, {"time": 2818, "qpm": 65.25001631250407}], "time_signatures": [{"time": 0, "numerator": 1, "denominator": 4}], "tracks": [{"program": 4, "is_drum": false, "name": "MELODY", "notes": [{"time": 420, "pitch": 64, "duration": 10, "velocity": 82}, {"time": 432, "pitch": 64, "duration": 6, "velocity": 73}, {"time": 438, "pitch": 62, "duration": 3, "velocity": 70}, {"time": 441, "pitch": 64, "duration": 16, "velocity": 75}, {"time": 462, "pitch": 67, "duration": 3, "velocity": 69}, {"time": 465, "pitch": 69, "duration": 2, "velocity": 70}, {"time": 468, "pitch": 71, "duration": 1, "velocity": 71}, {"time": 471, "pitch": 71, "duration": 1, "velocity": 75}, {"time": 474, "pitch": 71, "duration": 1, "velocity": 72}, {"time": 477, "pitch": 71, "duration": 1, "velocity": 76}, {"time": 480, "pitch": 71, "duration": 5, "velocity": 76}, {"time": 486, "pitch": 69, "duration": 2, "velocity": 76}, {"time": 489, "pitch": 71, "duration": 21, "velocity": 76}, {"time": 513, "pitch": 71, "duration": 3, "velocity": 75}, {"time": 516, "pitch": 76, "duration": 15, "velocity": 76}, {"time": 528, "pitch": 76, "duration": 3, "velocity": 81}, {"time": 534, "pitch": 76, "duration": 2, "velocity": 77}, {"time": 540, "pitch": 76, "duration": 5, "velocity": 82}, {"time": 546, "pitch": 74, "duration": 12, "velocity": 78}, {"time": 558, "pitch": 69, "duration": 6, "velocity": 67}, {"time": 564, "pitch": 71, "duration": 22, "velocity": 76}, {"time": 609, "pitch": 71, "duration": 2, "velocity": 73}, {"time": 612, "pitch": 71, "duration": 2, "velocity": 76}, {"time": 615, "pitch": 69, "duration": 2, "velocity": 68}, {"time": 618, "pitch": 69, "duration": 2, "velocity": 75}, {"time": 621, "pitch": 67, "duration": 2, "velocity": 67}, {"time": 624, "pitch": 69, "duration": 5, "velocity": 77}, {"time": 630, "pitch": 67, "duration": 5, "velocity": 77}, {"time": 636, "pitch": 69, "duration": 6, "velocity": 76}, {"time": 642, "pitch": 67, "duration": 2, "velocity": 68}, {"time": 645, "pitch": 69, "duration": 7, "velocity": 76}, {"time": 654, "pitch": 67, "duration": 2, "velocity": 74}, {"time": 657, "pitch": 69, "duration": 2, "velocity": 75}, {"time": 660, "pitch": 71, "duration": 4, "velocity": 71}, {"time": 666, "pitch": 71, "duration": 4, "velocity": 75}, {"time": 672, "pitch": 71, "duration": 4, "velocity": 79}, {"time": 678, "pitch": 74, "duration": 6, "velocity": 76}, {"time": 684, "pitch": 71, "duration": 18, "velocity": 76}, {"time": 714, "pitch": 69, "duration": 2, "velocity": 73}, {"time": 717, "pitch": 71, "duration": 2, "velocity": 73}, {"time": 720, "pitch": 71, "duration": 4, "velocity": 76}, {"time": 726, "pitch": 71, "duration": 4, "velocity": 76}, {"time": 732, "pitch": 69, "duration": 7, "velocity": 76}, {"time": 741, "pitch": 69, "duration": 8, "velocity": 75}, {"time": 750, "pitch": 66, "duration": 6, "velocity": 69}, {"time": 756, "pitch": 64, "duration": 41, "velocity": 76}, {"time": 804, "pitch": 64, "duration": 6, "velocity": 82}, {"time": 810, "pitch": 64, "duration": 4, "velocity": 82}, {"time": 816, "pitch": 64, "duration": 6, "velocity": 73}, {"time": 822, "pitch": 62, "duration": 3, "velocity": 70}, {"time": 825, "pitch": 64, "duration": 16, "velocity": 75}, {"time": 846, "pitch": 67, "duration": 3, "velocity": 69}, {"time": 849, "pitch": 69, "duration": 2, "velocity": 70}, {"time": 852, "pitch": 71, "duration": 1, "velocity": 71}, {"time": 855, "pitch": 71, "duration": 1, "velocity": 75}, {"time": 858, "pitch": 71, "duration": 1, "velocity": 72}, {"time": 861, "pitch": 71, "duration": 1, "velocity": 76}, {"time": 864, "pitch": 71, "duration": 5, "velocity": 76}, {"time": 870, "pitch": 69, "duration": 2, "velocity": 76}, {"time": 873, "pitch": 71, "duration": 21, "velocity": 76}, {"time": 897, "pitch": 71, "duration": 3, "velocity": 75}, {"time": 900, "pitch": 76, "duration": 15, "velocity": 76}, {"time": 912, "pitch": 76, "duration": 3, "velocity": 81}, {"time": 918, "pitch": 76, "duration": 2, "velocity": 77}, {"time": 924, "pitch": 76, "duration": 5, "velocity": 82}, {"time": 930, "pitch": 74, "duration": 12, "velocity": 78}, {"time": 942, "pitch": 69, "duration": 6, "velocity": 67}, {"time": 948, "pitch": 71, "duration": 22, "velocity": 76}, {"time": 993, "pitch": 71, "duration": 3, "velocity": 80}, {"time": 996, "pitch": 76, "duration": 5, "velocity": 80}, {"time": 1002, "pitch": 74, "duration": 4, "velocity": 82}, {"time": 1008, "pitch": 76, "duration": 4, "velocity": 77}, {"time": 1014, "pitch": 74, "duration": 4, "velocity": 81}, {"time": 1020, "pitch": 76, "duration": 4, "velocity": 77}, {"time": 1026, "pitch": 74, "duration": 2, "velocity": 80}, {"time": 1029, "pitch": 76, "duration": 13, "velocity": 82}, {"time": 1044, "pitch": 74, "duration": 5, "velocity": 82}, {"time": 1050, "pitch": 71, "duration": 5, "velocity": 79}, {"time": 1056, "pitch": 74, "duration": 4, "velocity": 84}, {"time": 1062, "pitch": 76, "duration": 3, "velocity": 77}, {"time": 1065, "pitch": 71, "duration": 21, "velocity": 76}, {"time": 1089, "pitch": 71, "duration": 1, "velocity": 76}, {"time": 1092, "pitch": 76, "duration": 4, "velocity": 77}, {"time": 1098, "pitch": 74, "duration": 4, "velocity": 86}, {"time": 1104, "pitch": 76, "duration": 5, "velocity": 77}, {"time": 1110, "pitch": 74, "duration": 1, "velocity": 80}, {"time": 1113, "pitch": 76, "duration": 5, "velocity": 77}, {"time": 1119, "pitch": 78, "duration": 11, "velocity": 77}, {"time": 1128, "pitch": 76, "duration": 5, "velocity": 76}, {"time": 1134, "pitch": 74, "duration": 4, "velocity": 77}, {"time": 1140, "pitch": 74, "duration": 5, "velocity": 79}, {"time": 1146, "pitch": 71, "duration": 5, "velocity": 77}, {"time": 1152, "pitch": 74, "duration": 3, "velocity": 78}, {"time": 1155, "pitch": 76, "duration": 9, "velocity": 78}, {"time": 1164, "pitch": 71, "duration": 15, "velocity": 74}, {"time": 1182, "pitch": 71, "duration": 1, "velocity": 76}, {"time": 1185, "pitch": 71, "duration": 2, "velocity": 75}, {"time": 1188, "pitch": 71, "duration": 3, "velocity": 76}, {"time": 1191, "pitch": 69, "duration": 2, "velocity": 70}, {"time": 1194, "pitch": 69, "duration": 2, "velocity": 73}, {"time": 1197, "pitch": 67, "duration": 2, "velocity": 72}, {"time": 1200, "pitch": 69, "duration": 5, "velocity": 77}, {"time": 1206, "pitch": 67, "duration": 2, "velocity": 78}, {"time": 1209, "pitch": 69, "duration": 7, "velocity": 75}, {"time": 1218, "pitch": 62, "duration": 4, "velocity": 76}, {"time": 1224, "pitch": 67, "duration": 4, "velocity": 75}, {"time": 1230, "pitch": 69, "duration": 5, "velocity": 76}, {"time": 1236, "pitch": 67, "duration": 5, "velocity": 75}, {"time": 1242, "pitch": 64, "duration": 30, "velocity": 78}, {"time": 1281, "pitch": 71, "duration": 3, "velocity": 80}, {"time": 1284, "pitch": 76, "duration": 5, "velocity": 80}, {"time": 1290, "pitch": 74, "duration": 4, "velocity": 82}, {"time": 1296, "pitch": 76, "duration": 4, "velocity": 77}, {"time": 1302, "pitch": 74, "duration": 4, "velocity": 81}, {"time": 1308, "pitch": 76, "duration": 4, "velocity": 77}, {"time": 1314, "pitch": 74, "duration": 2, "velocity": 80}, {"time": 1317, "pitch": 76, "duration": 12, "velocity": 82}, {"time": 1329, "pitch": 76, "duration": 3, "velocity": 76}, {"time": 1332, "pitch": 74, "duration": 5, "velocity": 82}, {"time": 1338, "pitch": 71, "duration": 5, "velocity": 79}, {"time": 1344, "pitch": 74, "duration": 4, "velocity": 84}, {"time": 1350, "pitch": 71, "duration": 3, "velocity": 77}, {"time": 1353, "pitch": 74, "duration": 21, "velocity": 76}, {"time": 1377, "pitch": 71, "duration": 1, "velocity": 76}, {"time": 1380, "pitch": 76, "duration": 4, "velocity": 77}, {"time": 1386, "pitch": 74, "duration": 4, "velocity": 86}, {"time": 1392, "pitch": 76, "duration": 5, "velocity": 77}, {"time": 1398, "pitch": 74, "duration": 1, "velocity": 80}, {"time": 1401, "pitch": 76, "duration": 5, "velocity": 77}, {"time": 1407, "pitch": 78, "duration": 11, "velocity": 77}, {"time": 1416, "pitch": 76, "duration": 5, "velocity": 76}, {"time": 1422, "pitch": 74, "duration": 4, "velocity": 77}, {"time": 1428, "pitch": 74, "duration": 5, "velocity": 79}, {"time": 1434, "pitch": 71, "duration": 5, "velocity": 77}, {"time": 1440, "pitch": 74, "duration": 3, "velocity": 78}, {"time": 1443, "pitch": 76, "duration": 9, "velocity": 78}, {"time": 1452, "pitch": 71, "duration": 15, "velocity": 74}, {"time": 1473, "pitch": 64, "duration": 3, "velocity": 77}, {"time": 1476, "pitch": 69, "duration": 15, "velocity": 79}, {"time": 1497, "pitch": 69, "duration": 2, "velocity": 70}, {"time": 1500, "pitch": 69, "duration": 5, "velocity": 75}, {"time": 1506, "pitch": 67, "duration": 4, "velocity": 74}, {"time": 1512, "pitch": 67, "duration": 4, "velocity": 77}, {"time": 1515, "pitch": 74, "duration": 8, "velocity": 86}, {"time": 1524, "pitch": 71, "duration": 24, "velocity": 75}, {"time": 1569, "pitch": 71, "duration": 3, "velocity": 80}, {"time": 1572, "pitch": 76, "duration": 5, "velocity": 80}, {"time": 1578, "pitch": 74, "duration": 4, "velocity": 82}, {"time": 1584, "pitch": 76, "duration": 4, "velocity": 77}, {"time": 1590, "pitch": 74, "duration": 4, "velocity": 81}, {"time": 1596, "pitch": 76, "duration": 4, "velocity": 77}, {"time": 1602, "pitch": 74, "duration": 2, "velocity": 80}, {"time": 1605, "pitch": 76, "duration": 12, "velocity": 82}, {"time": 1617, "pitch": 76, "duration": 3, "velocity": 76}, {"time": 1620, "pitch": 74, "duration": 5, "velocity": 82}, {"time": 1626, "pitch": 71, "duration": 5, "velocity": 79}, {"time": 1632, "pitch": 74, "duration": 4, "velocity": 84}, {"time": 1638, "pitch": 71, "duration": 3, "velocity": 77}, {"time": 1641, "pitch": 74, "duration": 21, "velocity": 76}, {"time": 1665, "pitch": 71, "duration": 1, "velocity": 76}, {"time": 1668, "pitch": 76, "duration": 4, "velocity": 77}, {"time": 1674, "pitch": 74, "duration": 4, "velocity": 86}, {"time": 1680, "pitch": 76, "duration": 5, "velocity": 77}, {"time": 1686, "pitch": 74, "duration": 1, "velocity": 80}, {"time": 1689, "pitch": 76, "duration": 5, "velocity": 77}, {"time": 1695, "pitch": 78, "duration": 11, "velocity": 77}, {"time": 1704, "pitch": 76, "duration": 5, "velocity": 76}, {"time": 1710, "pitch": 74, "duration": 4, "velocity": 77}, {"time": 1716, "pitch": 74, "duration": 5, "velocity": 79}, {"time": 1722, "pitch": 71, "duration": 5, "velocity": 77}, {"time": 1728, "pitch": 74, "duration": 3, "velocity": 78}, {"time": 1731, "pitch": 76, "duration": 9, "velocity": 78}, {"time": 1740, "pitch": 71, "duration": 15, "velocity": 74}, {"time": 1758, "pitch": 71, "duration": 1, "velocity": 76}, {"time": 1761, "pitch": 71, "duration": 2, "velocity": 75}, {"time": 1764, "pitch": 71, "duration": 3, "velocity": 76}, {"time": 1767, "pitch": 69, "duration": 2, "velocity": 70}, {"time": 1770, "pitch": 69, "duration": 2, "velocity": 73}, {"time": 1773, "pitch": 67, "duration": 2, "velocity": 72}, {"time": 1776, "pitch": 69, "duration": 5, "velocity": 77}, {"time": 1782, "pitch": 67, "duration": 2, "velocity": 78}, {"time": 1785, "pitch": 69, "duration": 7, "velocity": 75}, {"time": 1794, "pitch": 62, "duration": 4, "velocity": 76}, {"time": 1800, "pitch": 67, "duration": 4, "velocity": 75}, {"time": 1806, "pitch": 69, "duration": 5, "velocity": 76}, {"time": 1812, "pitch": 67, "duration": 5, "velocity": 75}, {"time": 1818, "pitch": 64, "duration": 30, "velocity": 78}, {"time": 2244, "pitch": 64, "duration": 6, "velocity": 82}, {"time": 2250, "pitch": 64, "duration": 4, "velocity": 82}, {"time": 2256, "pitch": 64, "duration": 6, "velocity": 73}, {"time": 2262, "pitch": 62, "duration": 3, "velocity": 70}, {"time": 2265, "pitch": 64, "duration": 16, "velocity": 75}, {"time": 2286, "pitch": 67, "duration": 3, "velocity": 69}, {"time": 2289, "pitch": 69, "duration": 2, "velocity": 70}, {"time": 2292, "pitch": 71, "duration": 1, "velocity": 71}, {"time": 2295, "pitch": 71, "duration": 1, "velocity": 75}, {"time": 2298, "pitch": 71, "duration": 1, "velocity": 72}, {"time": 2301, "pitch": 71, "duration": 1, "velocity": 76}, {"time": 2304, "pitch": 71, "duration": 5, "velocity": 76}, {"time": 2310, "pitch": 69, "duration": 2, "velocity": 76}, {"time": 2313, "pitch": 71, "duration": 21, "velocity": 76}, {"time": 2337, "pitch": 71, "duration": 3, "velocity": 75}, {"time": 2340, "pitch": 76, "duration": 15, "velocity": 76}, {"time": 2352, "pitch": 76, "duration": 3, "velocity": 81}, {"time": 2358, "pitch": 76, "duration": 2, "velocity": 77}, {"time": 2364, "pitch": 76, "duration": 5, "velocity": 82}, {"time": 2370, "pitch": 74, "duration": 12, "velocity": 78}, {"time": 2382, "pitch": 69, "duration": 6, "velocity": 67}, {"time": 2388, "pitch": 71, "duration": 22, "velocity": 76}, {"time": 2433, "pitch": 71, "duration": 3, "velocity": 80}, {"time": 2436, "pitch": 76, "duration": 5, "velocity": 80}, {"time": 2442, "pitch": 74, "duration": 4, "velocity": 82}, {"time": 2448, "pitch": 76, "duration": 4, "velocity": 77}, {"time": 2454, "pitch": 74, "duration": 4, "velocity": 81}, {"time": 2460, "pitch": 76, "duration": 4, "velocity": 77}, {"time": 2466, "pitch": 74, "duration": 2, "velocity": 80}, {"time": 2469, "pitch": 76, "duration": 13, "velocity": 82}, {"time": 2484, "pitch": 74, "duration": 5, "velocity": 82}, {"time": 2490, "pitch": 71, "duration": 5, "velocity": 79}, {"time": 2496, "pitch": 74, "duration": 4, "velocity": 84}, {"time": 2502, "pitch": 76, "duration": 3, "velocity": 77}, {"time": 2505, "pitch": 71, "duration": 21, "velocity": 76}, {"time": 2529, "pitch": 71, "duration": 1, "velocity": 76}, {"time": 2532, "pitch": 76, "duration": 4, "velocity": 77}, {"time": 2538, "pitch": 74, "duration": 4, "velocity": 86}, {"time": 2544, "pitch": 76, "duration": 5, "velocity": 77}, {"time": 2550, "pitch": 74, "duration": 1, "velocity": 80}, {"time": 2553, "pitch": 76, "duration": 5, "velocity": 77}, {"time": 2559, "pitch": 78, "duration": 11, "velocity": 77}, {"time": 2568, "pitch": 76, "duration": 5, "velocity": 76}, {"time": 2574, "pitch": 74, "duration": 4, "velocity": 77}, {"time": 2580, "pitch": 74, "duration": 5, "velocity": 79}, {"time": 2586, "pitch": 71, "duration": 5, "velocity": 77}, {"time": 2592, "pitch": 74, "duration": 3, "velocity": 78}, {"time": 2595, "pitch": 76, "duration": 9, "velocity": 78}, {"time": 2604, "pitch": 71, "duration": 15, "velocity": 74}, {"time": 2622, "pitch": 71, "duration": 1, "velocity": 76}, {"time": 2625, "pitch": 71, "duration": 2, "velocity": 75}, {"time": 2628, "pitch": 71, "duration": 3, "velocity": 76}, {"time": 2631, "pitch": 69, "duration": 2, "velocity": 70}, {"time": 2634, "pitch": 69, "duration": 2, "velocity": 73}, {"time": 2637, "pitch": 67, "duration": 2, "velocity": 72}, {"time": 2640, "pitch": 69, "duration": 5, "velocity": 77}, {"time": 2646, "pitch": 67, "duration": 2, "velocity": 78}, {"time": 2649, "pitch": 69, "duration": 7, "velocity": 75}, {"time": 2658, "pitch": 62, "duration": 4, "velocity": 76}, {"time": 2664, "pitch": 67, "duration": 4, "velocity": 75}, {"time": 2670, "pitch": 69, "duration": 5, "velocity": 76}, {"time": 2676, "pitch": 67, "duration": 5, "velocity": 75}, {"time": 2682, "pitch": 64, "duration": 30, "velocity": 78}, {"time": 2721, "pitch": 71, "duration": 3, "velocity": 80}, {"time": 2724, "pitch": 76, "duration": 5, "velocity": 80}, {"time": 2730, "pitch": 74, "duration": 4, "velocity": 82}, {"time": 2736, "pitch": 76, "duration": 4, "velocity": 77}, {"time": 2742, "pitch": 74, "duration": 4, "velocity": 81}, {"time": 2748, "pitch": 76, "duration": 4, "velocity": 77}, {"time": 2754, "pitch": 74, "duration": 2, "velocity": 80}, {"time": 2757, "pitch": 76, "duration": 12, "velocity": 82}, {"time": 2769, "pitch": 76, "duration": 3, "velocity": 76}, {"time": 2772, "pitch": 74, "duration": 5, "velocity": 82}, {"time": 2778, "pitch": 71, "duration": 5, "velocity": 79}, {"time": 2784, "pitch": 74, "duration": 4, "velocity": 84}, {"time": 2790, "pitch": 71, "duration": 3, "velocity": 77}, {"time": 2793, "pitch": 74, "duration": 21, "velocity": 76}, {"time": 2817, "pitch": 71, "duration": 1, "velocity": 76}, {"time": 2820, "pitch": 76, "duration": 4, "velocity": 77}, {"time": 2826, "pitch": 74, "duration": 4, "velocity": 86}, {"time": 2832, "pitch": 76, "duration": 5, "velocity": 77}, {"time": 2838, "pitch": 74, "duration": 1, "velocity": 80}, {"time": 2841, "pitch": 76, "duration": 5, "velocity": 77}, {"time": 2847, "pitch": 78, "duration": 11, "velocity": 77}, {"time": 2856, "pitch": 76, "duration": 5, "velocity": 76}, {"time": 2862, "pitch": 74, "duration": 4, "velocity": 77}, {"time": 2868, "pitch": 74, "duration": 5, "velocity": 79}, {"time": 2874, "pitch": 71, "duration": 5, "velocity": 77}, {"time": 2880, "pitch": 74, "duration": 3, "velocity": 78}, {"time": 2883, "pitch": 76, "duration": 9, "velocity": 78}, {"time": 2892, "pitch": 71, "duration": 15, "velocity": 74}, {"time": 2913, "pitch": 64, "duration": 3, "velocity": 77}, {"time": 2916, "pitch": 69, "duration": 15, "velocity": 79}, {"time": 2937, "pitch": 69, "duration": 2, "velocity": 70}, {"time": 2940, "pitch": 69, "duration": 5, "velocity": 75}, {"time": 2946, "pitch": 67, "duration": 4, "velocity": 74}, {"time": 2952, "pitch": 67, "duration": 4, "velocity": 77}, {"time": 2955, "pitch": 74, "duration": 8, "velocity": 86}, {"time": 2964, "pitch": 71, "duration": 24, "velocity": 75}, {"time": 3009, "pitch": 71, "duration": 3, "velocity": 80}, {"time": 3012, "pitch": 76, "duration": 5, "velocity": 80}, {"time": 3018, "pitch": 74, "duration": 4, "velocity": 82}, {"time": 3024, "pitch": 76, "duration": 4, "velocity": 77}, {"time": 3030, "pitch": 74, "duration": 4, "velocity": 81}, {"time": 3036, "pitch": 76, "duration": 4, "velocity": 77}, {"time": 3042, "pitch": 74, "duration": 2, "velocity": 80}, {"time": 3045, "pitch": 76, "duration": 12, "velocity": 82}, {"time": 3057, "pitch": 76, "duration": 3, "velocity": 76}, {"time": 3060, "pitch": 74, "duration": 5, "velocity": 82}, {"time": 3066, "pitch": 71, "duration": 5, "velocity": 79}, {"time": 3072, "pitch": 74, "duration": 4, "velocity": 84}, {"time": 3078, "pitch": 71, "duration": 3, "velocity": 77}, {"time": 3081, "pitch": 74, "duration": 21, "velocity": 76}, {"time": 3105, "pitch": 71, "duration": 1, "velocity": 76}, {"time": 3108, "pitch": 76, "duration": 4, "velocity": 77}, {"time": 3114, "pitch": 74, "duration": 4, "velocity": 86}, {"time": 3120, "pitch": 76, "duration": 5, "velocity": 77}, {"time": 3126, "pitch": 74, "duration": 1, "velocity": 80}, {"time": 3129, "pitch": 76, "duration": 5, "velocity": 77}, {"time": 3135, "pitch": 78, "duration": 11, "velocity": 77}, {"time": 3144, "pitch": 76, "duration": 5, "velocity": 76}, {"time": 3150, "pitch": 74, "duration": 4, "velocity": 77}, {"time": 3156, "pitch": 74, "duration": 5, "velocity": 79}, {"time": 3162, "pitch": 71, "duration": 5, "velocity": 77}, {"time": 3168, "pitch": 74, "duration": 3, "velocity": 78}, {"time": 3171, "pitch": 76, "duration": 9, "velocity": 78}, {"time": 3180, "pitch": 71, "duration": 15, "velocity": 74}, {"time": 3198, "pitch": 71, "duration": 1, "velocity": 76}, {"time": 3201, "pitch": 71, "duration": 2, "velocity": 75}, {"time": 3204, "pitch": 71, "duration": 3, "velocity": 76}, {"time": 3207, "pitch": 69, "duration": 2, "velocity": 70}, {"time": 3210, "pitch": 69, "duration": 2, "velocity": 73}, {"time": 3213, "pitch": 67, "duration": 2, "velocity": 72}, {"time": 3216, "pitch": 69, "duration": 5, "velocity": 77}, {"time": 3222, "pitch": 67, "duration": 2, "velocity": 78}, {"time": 3225, "pitch": 69, "duration": 7, "velocity": 75}, {"time": 3234, "pitch": 62, "duration": 4, "velocity": 76}, {"time": 3240, "pitch": 67, "duration": 4, "velocity": 75}, {"time": 3246, "pitch": 69, "duration": 5, "velocity": 76}, {"time": 3252, "pitch": 67, "duration": 5, "velocity": 75}, {"time": 3258, "pitch": 64, "duration": 30, "velocity": 78}]}, {"program": 0, "is_drum": false, "name": "PIANO", "notes": [{"time": 10, "pitch": 52, "duration": 5, "velocity": 53}, {"time": 10, "pitch": 55, "duration": 5, "velocity": 67}, {"time": 11, "pitch": 59, "duration": 4, "velocity": 62}, {"time": 11, "pitch": 40, "duration": 27, "velocity": 77}, {"time": 12, "pitch": 64, "duration": 5, "velocity": 73}, {"time": 24, "pitch": 47, "duration": 13, "velocity": 61}, {"time": 30, "pitch": 64, "duration": 1, "velocity": 55}, {"time": 36, "pitch": 71, "duration": 2, "velocity": 74}, {"time": 36, "pitch": 64, "duration": 1, "velocity": 75}, {"time": 36, "pitch": 67, "duration": 1, "velocity": 69}, {"time": 51, "pitch": 64, "duration": 1, "velocity": 73}, {"time": 51, "pitch": 67, "duration": 1, "velocity": 71}, {"time": 59, "pitch": 60, "duration": 13, "velocity": 69}, {"time": 60, "pitch": 55, "duration": 12, "velocity": 74}, {"time": 60, "pitch": 48, "duration": 18, "velocity": 74}, {"time": 71, "pitch": 64, "duration": 3, "velocity": 76}, {"time": 81, "pitch": 55, "duration": 15, "velocity": 50}, {"time": 82, "pitch": 60, "duration": 15, "velocity": 61}, {"time": 84, "pitch": 67, "duration": 13, "velocity": 46}, {"time": 84, "pitch": 64, "duration": 1, "velocity": 45}, {"time": 105, "pitch": 69, "duration": 8, "velocity": 67}, {"time": 106, "pitch": 64, "duration": 8, "velocity": 70}, {"time": 106, "pitch": 60, "duration": 8, "velocity": 66}, {"time": 107, "pitch": 45, "duration": 16, "velocity": 77}, {"time": 107, "pitch": 57, "duration": 7, "velocity": 67}, {"time": 113, "pitch": 52, "duration": 8, "velocity": 57}, {"time": 120, "pitch": 60, "duration": 3, "velocity": 80}, {"time": 120, "pitch": 64, "duration": 4, "velocity": 77}, {"time": 120, "pitch": 57, "duration": 3, "velocity": 75}, {"time": 131, "pitch": 64, "duration": 6, "velocity": 76}, {"time": 131, "pitch": 59, "duration": 7, "velocity": 73}, {"time": 132, "pitch": 47, "duration": 16, "velocity": 76}, {"time": 143, "pitch": 63, "duration": 5, "velocity": 76}, {"time": 143, "pitch": 66, "duration": 6, "velocity": 69}, {"time": 143, "pitch": 59, "duration": 6, "velocity": 75}, {"time": 143, "pitch": 54, "duration": 4, "velocity": 66}, {"time": 156, "pitch": 40, "duration": 30, "velocity": 79}, {"time": 156, "pitch": 64, "duration": 2, "velocity": 76}, {"time": 156, "pitch": 59, "duration": 2, "velocity": 75}, {"time": 173, "pitch": 47, "duration": 9, "velocity": 60}, {"time": 175, "pitch": 54, "duration": 4, "velocity": 67}, {"time": 179, "pitch": 55, "duration": 2, "velocity": 73}, {"time": 181, "pitch": 59, "duration": 2, "velocity": 84}, {"time": 184, "pitch": 52, "duration": 4, "velocity": 76}, {"time": 188, "pitch": 47, "duration": 2, "velocity": 70}, {"time": 188, "pitch": 40, "duration": 3, "velocity": 54}, {"time": 191, "pitch": 55, "duration": 1, "velocity": 77}, {"time": 191, "pitch": 64, "duration": 2, "velocity": 76}, {"time": 191, "pitch": 59, "duration": 1, "velocity": 75}, {"time": 191, "pitch": 52, "duration": 1, "velocity": 64}, {"time": 202, "pitch": 55, "duration": 3, "velocity": 63}, {"time": 203, "pitch": 60, "duration": 5, "velocity": 66}, {"time": 204, "pitch": 36, "duration": 1, "velocity": 75}, {"time": 204, "pitch": 64, "duration": 6, "velocity": 76}, {"time": 210, "pitch": 48, "duration": 17, "velocity": 64}, {"time": 215, "pitch": 60, "duration": 5, "velocity": 76}, {"time": 216, "pitch": 67, "duration": 3, "velocity": 74}, {"time": 226, "pitch": 60, "duration": 1, "velocity": 58}, {"time": 226, "pitch": 64, "duration": 2, "velocity": 70}, {"time": 227, "pitch": 67, "duration": 2, "velocity": 64}, {"time": 228, "pitch": 72, "duration": 4, "velocity": 68}, {"time": 239, "pitch": 67, "duration": 2, "velocity": 76}, {"time": 239, "pitch": 60, "duration": 2, "velocity": 77}, {"time": 239, "pitch": 64, "duration": 2, "velocity": 79}, {"time": 245, "pitch": 69, "duration": 2, "velocity": 71}, {"time": 245, "pitch": 57, "duration": 3, "velocity": 63}, {"time": 251, "pitch": 42, "duration": 2, "velocity": 73}, {"time": 251, "pitch": 57, "duration": 2, "velocity": 71}, {"time": 251, "pitch": 60, "duration": 3, "velocity": 75}, {"time": 251, "pitch": 54, "duration": 3, "velocity": 67}, {"time": 263, "pitch": 39, "duration": 14, "velocity": 76}, {"time": 263, "pitch": 54, "duration": 7, "velocity": 72}, {"time": 263, "pitch": 51, "duration": 4, "velocity": 69}, {"time": 275, "pitch": 59, "duration": 4, "velocity": 76}, {"time": 275, "pitch": 54, "duration": 3, "velocity": 70}, {"time": 275, "pitch": 51, "duration": 2, "velocity": 69}, {"time": 287, "pitch": 59, "duration": 6, "velocity": 74}, {"time": 288, "pitch": 52, "duration": 5, "velocity": 72}, {"time": 288, "pitch": 55, "duration": 5, "velocity": 68}, {"time": 288, "pitch": 40, "duration": 5, "velocity": 76}, {"time": 299, "pitch": 36, "duration": 1, "velocity": 74}, {"time": 299, "pitch": 48, "duration": 3, "velocity": 72}, {"time": 299, "pitch": 55, "duration": 3, "velocity": 75}, {"time": 322, "pitch": 59, "duration": 10, "velocity": 60}, {"time": 322, "pitch": 63, "duration": 9, "velocity": 61}, {"time": 323, "pitch": 66, "duration": 9, "velocity": 57}, {"time": 323, "pitch": 47, "duration": 15, "velocity": 77}, {"time": 323, "pitch": 71, "duration": 8, "velocity": 76}, {"time": 329, "pitch": 54, "duration": 7, "velocity": 56}, {"time": 335, "pitch": 63, "duration": 2, "velocity": 75}, {"time": 335, "pitch": 59, "duration": 3, "velocity": 76}, {"time": 335, "pitch": 66, "duration": 3, "velocity": 66}, {"time": 348, "pitch": 59, "duration": 3, "velocity": 74}, {"time": 348, "pitch": 64, "duration": 6, "velocity": 75}, {"time": 348, "pitch": 40, "duration": 21, "velocity": 77}, {"time": 353, "pitch": 59, "duration": 4, "velocity": 65}, {"time": 359, "pitch": 64, "duration": 7, "velocity": 77}, {"time": 359, "pitch": 59, "duration": 3, "velocity": 76}, {"time": 366, "pitch": 59, "duration": 2, "velocity": 76}, {"time": 372, "pitch": 59, "duration": 21, "velocity": 61}, {"time": 372, "pitch": 40, "duration": 22, "velocity": 70}, {"time": 372, "pitch": 64, "duration": 21, "velocity": 66}, {"time": 396, "pitch": 40, "duration": 17, "velocity": 62}, {"time": 396, "pitch": 59, "duration": 7, "velocity": 52}, {"time": 396, "pitch": 64, "duration": 8, "velocity": 60}, {"time": 402, "pitch": 47, "duration": 8, "velocity": 46}, {"time": 408, "pitch": 59, "duration": 11, "velocity": 61}, {"time": 408, "pitch": 64, "duration": 11, "velocity": 67}, {"time": 420, "pitch": 40, "duration": 14, "velocity": 76}, {"time": 420, "pitch": 59, "duration": 4, "velocity": 68}, {"time": 420, "pitch": 64, "duration": 6, "velocity": 71}, {"time": 426, "pitch": 47, "duration": 7, "velocity": 60}, {"time": 432, "pitch": 59, "duration": 1, "velocity": 68}, {"time": 432, "pitch": 64, "duration": 2, "velocity": 74}, {"time": 432, "pitch": 67, "duration": 2, "velocity": 65}, {"time": 438, "pitch": 59, "duration": 1, "velocity": 60}, {"time": 444, "pitch": 52, "duration": 17, "velocity": 63}, {"time": 444, "pitch": 59, "duration": 2, "velocity": 56}, {"time": 444, "pitch": 64, "duration": 3, "velocity": 69}, {"time": 444, "pitch": 67, "duration": 3, "velocity": 63}, {"time": 456, "pitch": 59, "duration": 2, "velocity": 71}, {"time": 456, "pitch": 64, "duration": 2, "velocity": 76}, {"time": 456, "pitch": 67, "duration": 2, "velocity": 74}, {"time": 462, "pitch": 62, "duration": 3, "velocity": 64}, {"time": 468, "pitch": 50, "duration": 21, "velocity": 75}, {"time": 468, "pitch": 57, "duration": 2, "velocity": 65}, {"time": 468, "pitch": 62, "duration": 7, "velocity": 66}, {"time": 474, "pitch": 57, "duration": 2, "velocity": 61}, {"time": 480, "pitch": 57, "duration": 2, "velocity": 75}, {"time": 480, "pitch": 62, "duration": 3, "velocity": 76}, {"time": 480, "pitch": 66, "duration": 4, "velocity": 76}, {"time": 492, "pitch": 50, "duration": 14, "velocity": 68}, {"time": 492, "pitch": 57, "duration": 2, "velocity": 56}, {"time": 492, "pitch": 62, "duration": 6, "velocity": 63}, {"time": 498, "pitch": 57, "duration": 1, "velocity": 58}, {"time": 504, "pitch": 57, "duration": 5, "velocity": 74}, {"time": 504, "pitch": 62, "duration": 5, "velocity": 76}, {"time": 504, "pitch": 66, "duration": 5, "velocity": 75}, {"time": 510, "pitch": 50, "duration": 1, "velocity": 76}, {"time": 516, "pitch": 48, "duration": 14, "velocity": 75}, {"time": 516, "pitch": 55, "duration": 2, "velocity": 69}, {"time": 516, "pitch": 60, "duration": 7, "velocity": 69}, {"time": 522, "pitch": 55, "duration": 1, "velocity": 64}, {"time": 528, "pitch": 60, "duration": 6, "velocity": 76}, {"time": 528, "pitch": 64, "duration": 6, "velocity": 76}, {"time": 540, "pitch": 38, "duration": 10, "velocity": 62}, {"time": 540, "pitch": 62, "duration": 7, "velocity": 71}, {"time": 546, "pitch": 57, "duration": 10, "velocity": 73}, {"time": 552, "pitch": 45, "duration": 2, "velocity": 66}, {"time": 552, "pitch": 66, "duration": 6, "velocity": 77}, {"time": 558, "pitch": 62, "duration": 1, "velocity": 76}, {"time": 564, "pitch": 43, "duration": 15, "velocity": 75}, {"time": 564, "pitch": 55, "duration": 7, "velocity": 69}, {"time": 564, "pitch": 59, "duration": 6, "velocity": 71}, {"time": 570, "pitch": 50, "duration": 9, "velocity": 57}, {"time": 576, "pitch": 55, "duration": 2, "velocity": 71}, {"time": 576, "pitch": 59, "duration": 3, "velocity": 77}, {"time": 576, "pitch": 62, "duration": 4, "velocity": 77}, {"time": 582, "pitch": 57, "duration": 2, "velocity": 71}, {"time": 588, "pitch": 47, "duration": 19, "velocity": 75}, {"time": 588, "pitch": 59, "duration": 6, "velocity": 75}, {"time": 594, "pitch": 54, "duration": 7, "velocity": 59}, {"time": 600, "pitch": 59, "duration": 3, "velocity": 77}, {"time": 600, "pitch": 63, "duration": 3, "velocity": 73}, {"time": 600, "pitch": 66, "duration": 3, "velocity": 69}, {"time": 600, "pitch": 71, "duration": 2, "velocity": 75}, {"time": 603, "pitch": 54, "duration": 3, "velocity": 63}, {"time": 606, "pitch": 59, "duration": 1, "velocity": 63}, {"time": 606, "pitch": 63, "duration": 4, "velocity": 68}, {"time": 606, "pitch": 69, "duration": 6, "velocity": 75}, {"time": 609, "pitch": 67, "duration": 1, "velocity": 64}, {"time": 612, "pitch": 45, "duration": 14, "velocity": 75}, {"time": 612, "pitch": 57, "duration": 8, "velocity": 63}, {"time": 612, "pitch": 60, "duration": 7, "velocity": 71}, {"time": 618, "pitch": 52, "duration": 8, "velocity": 64}, {"time": 624, "pitch": 57, "duration": 2, "velocity": 71}, {"time": 624, "pitch": 60, "duration": 5, "velocity": 78}, {"time": 624, "pitch": 64, "duration": 5, "velocity": 76}, {"time": 630, "pitch": 57, "duration": 7, "velocity": 75}, {"time": 636, "pitch": 50, "duration": 15, "velocity": 73}, {"time": 636, "pitch": 62, "duration": 8, "velocity": 69}, {"time": 636, "pitch": 66, "duration": 7, "velocity": 64}, {"time": 642, "pitch": 57, "duration": 3, "velocity": 59}, {"time": 648, "pitch": 57, "duration": 2, "velocity": 76}, {"time": 648, "pitch": 62, "duration": 4, "velocity": 73}, {"time": 648, "pitch": 66, "duration": 4, "velocity": 67}, {"time": 660, "pitch": 43, "duration": 14, "velocity": 75}, {"time": 660, "pitch": 55, "duration": 4, "velocity": 73}, {"time": 660, "pitch": 59, "duration": 6, "velocity": 71}, {"time": 666, "pitch": 50, "duration": 7, "velocity": 68}, {"time": 666, "pitch": 55, "duration": 1, "velocity": 60}, {"time": 672, "pitch": 55, "duration": 2, "velocity": 80}, {"time": 672, "pitch": 59, "duration": 3, "velocity": 81}, {"time": 678, "pitch": 43, "duration": 1, "velocity": 75}, {"time": 684, "pitch": 48, "duration": 20, "velocity": 76}, {"time": 684, "pitch": 55, "duration": 2, "velocity": 69}, {"time": 684, "pitch": 60, "duration": 9, "velocity": 70}, {"time": 690, "pitch": 55, "duration": 3, "velocity": 58}, {"time": 696, "pitch": 55, "duration": 2, "velocity": 76}, {"time": 696, "pitch": 60, "duration": 8, "velocity": 77}, {"time": 696, "pitch": 64, "duration": 8, "velocity": 77}, {"time": 702, "pitch": 55, "duration": 2, "velocity": 75}, {"time": 708, "pitch": 45, "duration": 18, "velocity": 76}, {"time": 708, "pitch": 57, "duration": 6, "velocity": 67}, {"time": 708, "pitch": 60, "duration": 6, "velocity": 69}, {"time": 714, "pitch": 52, "duration": 7, "velocity": 56}, {"time": 720, "pitch": 57, "duration": 3, "velocity": 76}, {"time": 720, "pitch": 60, "duration": 5, "velocity": 80}, {"time": 720, "pitch": 64, "duration": 4, "velocity": 76}, {"time": 723, "pitch": 52, "duration": 3, "velocity": 67}, {"time": 726, "pitch": 57, "duration": 2, "velocity": 76}, {"time": 732, "pitch": 47, "duration": 15, "velocity": 75}, {"time": 732, "pitch": 59, "duration": 6, "velocity": 75}, {"time": 732, "pitch": 63, "duration": 6, "velocity": 70}, {"time": 738, "pitch": 54, "duration": 7, "velocity": 56}, {"time": 744, "pitch": 59, "duration": 2, "velocity": 75}, {"time": 744, "pitch": 63, "duration": 6, "velocity": 80}, {"time": 744, "pitch": 66, "duration": 6, "velocity": 74}, {"time": 750, "pitch": 59, "duration": 8, "velocity": 82}, {"time": 756, "pitch": 40, "duration": 21, "velocity": 76}, {"time": 756, "pitch": 64, "duration": 7, "velocity": 76}, {"time": 762, "pitch": 47, "duration": 12, "velocity": 50}, {"time": 768, "pitch": 59, "duration": 3, "velocity": 70}, {"time": 768, "pitch": 64, "duration": 4, "velocity": 77}, {"time": 768, "pitch": 67, "duration": 6, "velocity": 70}, {"time": 774, "pitch": 59, "duration": 3, "velocity": 70}, {"time": 780, "pitch": 40, "duration": 23, "velocity": 69}, {"time": 780, "pitch": 59, "duration": 6, "velocity": 60}, {"time": 780, "pitch": 64, "duration": 6, "velocity": 66}, {"time": 786, "pitch": 47, "duration": 16, "velocity": 38}, {"time": 789, "pitch": 59, "duration": 1, "velocity": 76}, {"time": 792, "pitch": 59, "duration": 1, "velocity": 80}, {"time": 792, "pitch": 64, "duration": 2, "velocity": 82}, {"time": 792, "pitch": 67, "duration": 3, "velocity": 77}, {"time": 795, "pitch": 66, "duration": 2, "velocity": 79}, {"time": 798, "pitch": 62, "duration": 4, "velocity": 76}, {"time": 801, "pitch": 59, "duration": 2, "velocity": 75}, {"time": 804, "pitch": 40, "duration": 22, "velocity": 78}, {"time": 807, "pitch": 47, "duration": 18, "velocity": 63}, {"time": 810, "pitch": 59, "duration": 7, "velocity": 69}, {"time": 813, "pitch": 52, "duration": 3, "velocity": 65}, {"time": 816, "pitch": 64, "duration": 16, "velocity": 79}, {"time": 822, "pitch": 59, "duration": 12, "velocity": 69}, {"time": 825, "pitch": 52, "duration": 7, "velocity": 73}, {"time": 828, "pitch": 40, "duration": 17, "velocity": 76}, {"time": 831, "pitch": 47, "duration": 13, "velocity": 63}, {"time": 834, "pitch": 52, "duration": 4, "velocity": 70}, {"time": 837, "pitch": 59, "duration": 3, "velocity": 70}, {"time": 840, "pitch": 64, "duration": 12, "velocity": 82}, {"time": 843, "pitch": 52, "duration": 3, "velocity": 75}, {"time": 846, "pitch": 59, "duration": 4, "velocity": 69}, {"time": 849, "pitch": 52, "duration": 2, "velocity": 75}, {"time": 852, "pitch": 38, "duration": 16, "velocity": 79}, {"time": 855, "pitch": 45, "duration": 12, "velocity": 66}, {"time": 858, "pitch": 62, "duration": 3, "velocity": 68}, {"time": 861, "pitch": 57, "duration": 4, "velocity": 64}, {"time": 864, "pitch": 66, "duration": 6, "velocity": 80}, {"time": 867, "pitch": 57, "duration": 3, "velocity": 73}, {"time": 870, "pitch": 62, "duration": 4, "velocity": 69}, {"time": 873, "pitch": 57, "duration": 2, "velocity": 71}, {"time": 876, "pitch": 38, "duration": 15, "velocity": 80}, {"time": 876, "pitch": 57, "duration": 3, "velocity": 68}, {"time": 876, "pitch": 62, "duration": 5, "velocity": 71}, {"time": 879, "pitch": 45, "duration": 12, "velocity": 58}, {"time": 882, "pitch": 57, "duration": 5, "velocity": 65}, {"time": 885, "pitch": 62, "duration": 2, "velocity": 75}, {"time": 888, "pitch": 66, "duration": 5, "velocity": 81}, {"time": 891, "pitch": 62, "duration": 3, "velocity": 78}, {"time": 894, "pitch": 57, "duration": 4, "velocity": 75}, {"time": 897, "pitch": 62, "duration": 1, "velocity": 62}, {"time": 900, "pitch": 48, "duration": 15, "velocity": 73}, {"time": 900, "pitch": 60, "duration": 3, "velocity": 75}, {"time": 903, "pitch": 55, "duration": 4, "velocity": 73}, {"time": 906, "pitch": 60, "duration": 4, "velocity": 69}, {"time": 909, "pitch": 55, "duration": 2, "velocity": 72}, {"time": 912, "pitch": 64, "duration": 6, "velocity": 82}, {"time": 915, "pitch": 55, "duration": 3, "velocity": 71}, {"time": 918, "pitch": 60, "duration": 3, "velocity": 67}, {"time": 921, "pitch": 55, "duration": 1, "velocity": 62}, {"time": 924, "pitch": 50, "duration": 16, "velocity": 75}, {"time": 924, "pitch": 62, "duration": 3, "velocity": 73}, {"time": 927, "pitch": 57, "duration": 3, "velocity": 70}, {"time": 930, "pitch": 62, "duration": 3, "velocity": 70}, {"time": 936, "pitch": 57, "duration": 2, "velocity": 72}, {"time": 936, "pitch": 62, "duration": 3, "velocity": 72}, {"time": 936, "pitch": 66, "duration": 7, "velocity": 71}, {"time": 939, "pitch": 57, "duration": 3, "velocity": 70}, {"time": 942, "pitch": 62, "duration": 3, "velocity": 67}, {"time": 945, "pitch": 57, "duration": 2, "velocity": 49}, {"time": 948, "pitch": 43, "duration": 21, "velocity": 75}, {"time": 948, "pitch": 55, "duration": 3, "velocity": 63}, {"time": 948, "pitch": 59, "duration": 6, "velocity": 65}, {"time": 951, "pitch": 50, "duration": 7, "velocity": 65}, {"time": 954, "pitch": 55, "duration": 4, "velocity": 73}, {"time": 957, "pitch": 59, "duration": 5, "velocity": 73}, {"time": 960, "pitch": 50, "duration": 10, "velocity": 73}, {"time": 963, "pitch": 55, "duration": 4, "velocity": 79}, {"time": 966, "pitch": 59, "duration": 4, "velocity": 76}, {"time": 969, "pitch": 55, "duration": 2, "velocity": 75}, {"time": 972, "pitch": 47, "duration": 10, "velocity": 79}, {"time": 975, "pitch": 59, "duration": 3, "velocity": 64}, {"time": 978, "pitch": 63, "duration": 4, "velocity": 65}, {"time": 981, "pitch": 59, "duration": 4, "velocity": 84}, {"time": 984, "pitch": 54, "duration": 4, "velocity": 80}, {"time": 987, "pitch": 59, "duration": 2, "velocity": 80}, {"time": 987, "pitch": 63, "duration": 4, "velocity": 77}, {"time": 987, "pitch": 66, "duration": 5, "velocity": 72}, {"time": 990, "pitch": 51, "duration": 1, "velocity": 60}, {"time": 993, "pitch": 59, "duration": 2, "velocity": 75}, {"time": 996, "pitch": 48, "duration": 13, "velocity": 80}, {"time": 996, "pitch": 60, "duration": 4, "velocity": 71}, {"time": 999, "pitch": 55, "duration": 3, "velocity": 75}, {"time": 1002, "pitch": 60, "duration": 3, "velocity": 70}, {"time": 1008, "pitch": 55, "duration": 3, "velocity": 77}, {"time": 1008, "pitch": 60, "duration": 5, "velocity": 81}, {"time": 1008, "pitch": 64, "duration": 7, "velocity": 80}, {"time": 1011, "pitch": 48, "duration": 2, "velocity": 74}, {"time": 1014, "pitch": 55, "duration": 3, "velocity": 76}, {"time": 1017, "pitch": 60, "duration": 2, "velocity": 79}, {"time": 1020, "pitch": 50, "duration": 12, "velocity": 75}, {"time": 1020, "pitch": 57, "duration": 2, "velocity": 68}, {"time": 1020, "pitch": 62, "duration": 3, "velocity": 76}, {"time": 1023, "pitch": 57, "duration": 3, "velocity": 67}, {"time": 1026, "pitch": 62, "duration": 2, "velocity": 71}, {"time": 1029, "pitch": 57, "duration": 1, "velocity": 46}, {"time": 1032, "pitch": 57, "duration": 1, "velocity": 74}, {"time": 1032, "pitch": 62, "duration": 3, "velocity": 78}, {"time": 1032, "pitch": 66, "duration": 6, "velocity": 76}, {"time": 1035, "pitch": 57, "duration": 2, "velocity": 68}, {"time": 1038, "pitch": 62, "duration": 2, "velocity": 67}, {"time": 1041, "pitch": 57, "duration": 1, "velocity": 59}, {"time": 1044, "pitch": 43, "duration": 14, "velocity": 75}, {"time": 1044, "pitch": 55, "duration": 3, "velocity": 72}, {"time": 1044, "pitch": 62, "duration": 6, "velocity": 71}, {"time": 1047, "pitch": 50, "duration": 9, "velocity": 70}, {"time": 1050, "pitch": 55, "duration": 7, "velocity": 75}, {"time": 1053, "pitch": 59, "duration": 3, "velocity": 80}, {"time": 1056, "pitch": 62, "duration": 6, "velocity": 75}, {"time": 1059, "pitch": 55, "duration": 4, "velocity": 81}, {"time": 1062, "pitch": 50, "duration": 2, "velocity": 78}, {"time": 1065, "pitch": 55, "duration": 3, "velocity": 75}, {"time": 1068, "pitch": 40, "duration": 18, "velocity": 76}, {"time": 1068, "pitch": 59, "duration": 4, "velocity": 68}, {"time": 1071, "pitch": 47, "duration": 13, "velocity": 75}, {"time": 1074, "pitch": 59, "duration": 3, "velocity": 73}, {"time": 1077, "pitch": 55, "duration": 2, "velocity": 77}, {"time": 1080, "pitch": 64, "duration": 4, "velocity": 84}, {"time": 1083, "pitch": 59, "duration": 3, "velocity": 77}, {"time": 1086, "pitch": 55, "duration": 3, "velocity": 76}, {"time": 1089, "pitch": 59, "duration": 2, "velocity": 73}, {"time": 1092, "pitch": 36, "duration": 8, "velocity": 74}, {"time": 1092, "pitch": 55, "duration": 1, "velocity": 73}, {"time": 1092, "pitch": 60, "duration": 3, "velocity": 72}, {"time": 1095, "pitch": 55, "duration": 3, "velocity": 70}, {"time": 1098, "pitch": 60, "duration": 3, "velocity": 68}, {"time": 1101, "pitch": 55, "duration": 1, "velocity": 71}, {"time": 1104, "pitch": 55, "duration": 4, "velocity": 77}, {"time": 1104, "pitch": 64, "duration": 4, "velocity": 78}, {"time": 1110, "pitch": 48, "duration": 1, "velocity": 80}, {"time": 1110, "pitch": 60, "duration": 4, "velocity": 74}, {"time": 1113, "pitch": 55, "duration": 2, "velocity": 74}, {"time": 1116, "pitch": 50, "duration": 13, "velocity": 81}, {"time": 1116, "pitch": 62, "duration": 2, "velocity": 77}, {"time": 1119, "pitch": 57, "duration": 2, "velocity": 76}, {"time": 1122, "pitch": 62, "duration": 2, "velocity": 65}, {"time": 1125, "pitch": 57, "duration": 1, "velocity": 67}, {"time": 1128, "pitch": 57, "duration": 1, "velocity": 77}, {"time": 1128, "pitch": 62, "duration": 3, "velocity": 79}, {"time": 1128, "pitch": 66, "duration": 4, "velocity": 78}, {"time": 1131, "pitch": 50, "duration": 1, "velocity": 77}, {"time": 1134, "pitch": 57, "duration": 2, "velocity": 77}, {"time": 1140, "pitch": 43, "duration": 15, "velocity": 75}, {"time": 1140, "pitch": 55, "duration": 3, "velocity": 71}, {"time": 1140, "pitch": 62, "duration": 6, "velocity": 73}, {"time": 1143, "pitch": 50, "duration": 9, "velocity": 72}, {"time": 1146, "pitch": 55, "duration": 3, "velocity": 78}, {"time": 1149, "pitch": 59, "duration": 1, "velocity": 75}, {"time": 1152, "pitch": 55, "duration": 2, "velocity": 77}, {"time": 1152, "pitch": 59, "duration": 3, "velocity": 81}, {"time": 1152, "pitch": 62, "duration": 4, "velocity": 76}, {"time": 1155, "pitch": 50, "duration": 2, "velocity": 73}, {"time": 1158, "pitch": 55, "duration": 4, "velocity": 77}, {"time": 1161, "pitch": 59, "duration": 2, "velocity": 75}, {"time": 1164, "pitch": 40, "duration": 16, "velocity": 77}, {"time": 1164, "pitch": 64, "duration": 7, "velocity": 76}, {"time": 1167, "pitch": 47, "duration": 10, "velocity": 60}, {"time": 1170, "pitch": 55, "duration": 4, "velocity": 79}, {"time": 1173, "pitch": 59, "duration": 1, "velocity": 74}, {"time": 1176, "pitch": 55, "duration": 3, "velocity": 74}, {"time": 1176, "pitch": 64, "duration": 4, "velocity": 78}, {"time": 1179, "pitch": 47, "duration": 1, "velocity": 75}, {"time": 1182, "pitch": 55, "duration": 3, "velocity": 79}, {"time": 1185, "pitch": 59, "duration": 2, "velocity": 76}, {"time": 1188, "pitch": 45, "duration": 19, "velocity": 77}, {"time": 1188, "pitch": 57, "duration": 3, "velocity": 69}, {"time": 1188, "pitch": 64, "duration": 9, "velocity": 75}, {"time": 1191, "pitch": 52, "duration": 11, "velocity": 70}, {"time": 1194, "pitch": 57, "duration": 6, "velocity": 77}, {"time": 1197, "pitch": 60, "duration": 10, "velocity": 82}, {"time": 1200, "pitch": 64, "duration": 9, "velocity": 75}, {"time": 1203, "pitch": 52, "duration": 4, "velocity": 71}, {"time": 1206, "pitch": 57, "duration": 3, "velocity": 71}, {"time": 1209, "pitch": 60, "duration": 3, "velocity": 75}, {"time": 1212, "pitch": 38, "duration": 14, "velocity": 77}, {"time": 1212, "pitch": 62, "duration": 5, "velocity": 71}, {"time": 1215, "pitch": 45, "duration": 10, "velocity": 68}, {"time": 1218, "pitch": 57, "duration": 4, "velocity": 77}, {"time": 1221, "pitch": 62, "duration": 1, "velocity": 75}, {"time": 1224, "pitch": 66, "duration": 6, "velocity": 84}, {"time": 1227, "pitch": 57, "duration": 3, "velocity": 76}, {"time": 1230, "pitch": 62, "duration": 4, "velocity": 69}, {"time": 1233, "pitch": 57, "duration": 1, "velocity": 67}, {"time": 1236, "pitch": 40, "duration": 21, "velocity": 76}, {"time": 1236, "pitch": 59, "duration": 3, "velocity": 71}, {"time": 1236, "pitch": 64, "duration": 6, "velocity": 76}, {"time": 1239, "pitch": 47, "duration": 10, "velocity": 64}, {"time": 1242, "pitch": 59, "duration": 3, "velocity": 75}, {"time": 1245, "pitch": 64, "duration": 1, "velocity": 64}, {"time": 1248, "pitch": 59, "duration": 2, "velocity": 76}, {"time": 1248, "pitch": 67, "duration": 3, "velocity": 76}, {"time": 1251, "pitch": 47, "duration": 6, "velocity": 67}, {"time": 1254, "pitch": 59, "duration": 1, "velocity": 75}, {"time": 1257, "pitch": 59, "duration": 5, "velocity": 82}, {"time": 1257, "pitch": 64, "duration": 8, "velocity": 80}, {"time": 1260, "pitch": 40, "duration": 19, "velocity": 78}, {"time": 1263, "pitch": 47, "duration": 7, "velocity": 69}, {"time": 1266, "pitch": 59, "duration": 1, "velocity": 71}, {"time": 1269, "pitch": 59, "duration": 4, "velocity": 81}, {"time": 1269, "pitch": 64, "duration": 3, "velocity": 89}, {"time": 1272, "pitch": 47, "duration": 4, "velocity": 81}, {"time": 1275, "pitch": 59, "duration": 2, "velocity": 80}, {"time": 1275, "pitch": 64, "duration": 7, "velocity": 96}, {"time": 1275, "pitch": 67, "duration": 8, "velocity": 81}, {"time": 1278, "pitch": 47, "duration": 5, "velocity": 78}, {"time": 1281, "pitch": 59, "duration": 2, "velocity": 84}, {"time": 1284, "pitch": 40, "duration": 3, "velocity": 81}, {"time": 1284, "pitch": 59, "duration": 1, "velocity": 78}, {"time": 1284, "pitch": 64, "duration": 3, "velocity": 79}, {"time": 1287, "pitch": 59, "duration": 1, "velocity": 74}, {"time": 1290, "pitch": 64, "duration": 1, "velocity": 73}, {"time": 1293, "pitch": 59, "duration": 1, "velocity": 77}, {"time": 1296, "pitch": 52, "duration": 2, "velocity": 76}, {"time": 1296, "pitch": 59, "duration": 1, "velocity": 77}, {"time": 1296, "pitch": 64, "duration": 2, "velocity": 84}, {"time": 1296, "pitch": 67, "duration": 3, "velocity": 76}, {"time": 1299, "pitch": 59, "duration": 1, "velocity": 75}, {"time": 1302, "pitch": 64, "duration": 1, "velocity": 77}, {"time": 1305, "pitch": 59, "duration": 1, "velocity": 80}, {"time": 1308, "pitch": 40, "duration": 15, "velocity": 80}, {"time": 1308, "pitch": 59, "duration": 2, "velocity": 77}, {"time": 1308, "pitch": 64, "duration": 3, "velocity": 79}, {"time": 1311, "pitch": 47, "duration": 10, "velocity": 70}, {"time": 1314, "pitch": 59, "duration": 3, "velocity": 76}, {"time": 1317, "pitch": 64, "duration": 1, "velocity": 68}, {"time": 1320, "pitch": 59, "duration": 2, "velocity": 81}, {"time": 1320, "pitch": 64, "duration": 3, "velocity": 96}, {"time": 1320, "pitch": 67, "duration": 3, "velocity": 78}, {"time": 1323, "pitch": 47, "duration": 1, "velocity": 81}, {"time": 1326, "pitch": 59, "duration": 3, "velocity": 84}, {"time": 1332, "pitch": 47, "duration": 10, "velocity": 77}, {"time": 1332, "pitch": 59, "duration": 1, "velocity": 76}, {"time": 1332, "pitch": 62, "duration": 2, "velocity": 75}, {"time": 1335, "pitch": 59, "duration": 1, "velocity": 76}, {"time": 1338, "pitch": 62, "duration": 1, "velocity": 67}, {"time": 1341, "pitch": 59, "duration": 1, "velocity": 71}, {"time": 1344, "pitch": 47, "duration": 1, "velocity": 73}, {"time": 1344, "pitch": 54, "duration": 7, "velocity": 78}, {"time": 1344, "pitch": 59, "duration": 1, "velocity": 79}, {"time": 1344, "pitch": 62, "duration": 3, "velocity": 80}, {"time": 1344, "pitch": 66, "duration": 4, "velocity": 78}, {"time": 1347, "pitch": 59, "duration": 1, "velocity": 75}, {"time": 1350, "pitch": 62, "duration": 1, "velocity": 75}, {"time": 1353, "pitch": 59, "duration": 1, "velocity": 68}, {"time": 1356, "pitch": 47, "duration": 15, "velocity": 75}, {"time": 1356, "pitch": 59, "duration": 2, "velocity": 73}, {"time": 1356, "pitch": 62, "duration": 2, "velocity": 72}, {"time": 1359, "pitch": 54, "duration": 9, "velocity": 67}, {"time": 1362, "pitch": 59, "duration": 1, "velocity": 69}, {"time": 1365, "pitch": 59, "duration": 1, "velocity": 61}, {"time": 1365, "pitch": 62, "duration": 1, "velocity": 77}, {"time": 1368, "pitch": 59, "duration": 3, "velocity": 80}, {"time": 1368, "pitch": 62, "duration": 3, "velocity": 89}, {"time": 1368, "pitch": 66, "duration": 6, "velocity": 82}, {"time": 1371, "pitch": 54, "duration": 2, "velocity": 76}, {"time": 1374, "pitch": 59, "duration": 3, "velocity": 84}, {"time": 1377, "pitch": 62, "duration": 2, "velocity": 76}, {"time": 1380, "pitch": 48, "duration": 15, "velocity": 79}, {"time": 1380, "pitch": 60, "duration": 3, "velocity": 75}, {"time": 1380, "pitch": 64, "duration": 3, "velocity": 81}, {"time": 1383, "pitch": 55, "duration": 9, "velocity": 76}, {"time": 1386, "pitch": 60, "duration": 4, "velocity": 76}, {"time": 1389, "pitch": 64, "duration": 1, "velocity": 68}, {"time": 1392, "pitch": 60, "duration": 2, "velocity": 77}, {"time": 1392, "pitch": 64, "duration": 2, "velocity": 89}, {"time": 1392, "pitch": 67, "duration": 3, "velocity": 77}, {"time": 1395, "pitch": 55, "duration": 1, "velocity": 78}, {"time": 1398, "pitch": 48, "duration": 1, "velocity": 82}, {"time": 1401, "pitch": 62, "duration": 2, "velocity": 77}, {"time": 1404, "pitch": 38, "duration": 1, "velocity": 77}, {"time": 1404, "pitch": 62, "duration": 2, "velocity": 74}, {"time": 1404, "pitch": 66, "duration": 4, "velocity": 76}, {"time": 1404, "pitch": 69, "duration": 4, "velocity": 75}, {"time": 1407, "pitch": 62, "duration": 1, "velocity": 68}, {"time": 1410, "pitch": 66, "duration": 4, "velocity": 56}, {"time": 1413, "pitch": 62, "duration": 1, "velocity": 73}, {"time": 1416, "pitch": 50, "duration": 2, "velocity": 78}, {"time": 1416, "pitch": 57, "duration": 3, "velocity": 76}, {"time": 1416, "pitch": 62, "duration": 1, "velocity": 79}, {"time": 1416, "pitch": 66, "duration": 3, "velocity": 79}, {"time": 1416, "pitch": 74, "duration": 3, "velocity": 76}, {"time": 1419, "pitch": 50, "duration": 1, "velocity": 55}, {"time": 1422, "pitch": 66, "duration": 2, "velocity": 76}, {"time": 1425, "pitch": 62, "duration": 1, "velocity": 77}, {"time": 1428, "pitch": 43, "duration": 16, "velocity": 76}, {"time": 1428, "pitch": 62, "duration": 2, "velocity": 76}, {"time": 1428, "pitch": 67, "duration": 3, "velocity": 75}, {"time": 1431, "pitch": 50, "duration": 10, "velocity": 70}, {"time": 1434, "pitch": 62, "duration": 2, "velocity": 78}, {"time": 1437, "pitch": 67, "duration": 1, "velocity": 77}, {"time": 1440, "pitch": 62, "duration": 1, "velocity": 80}, {"time": 1440, "pitch": 67, "duration": 2, "velocity": 86}, {"time": 1440, "pitch": 71, "duration": 4, "velocity": 86}, {"time": 1443, "pitch": 50, "duration": 1, "velocity": 77}, {"time": 1446, "pitch": 62, "duration": 3, "velocity": 77}, {"time": 1449, "pitch": 67, "duration": 1, "velocity": 70}, {"time": 1452, "pitch": 40, "duration": 16, "velocity": 77}, {"time": 1452, "pitch": 64, "duration": 2, "velocity": 76}, {"time": 1452, "pitch": 67, "duration": 3, "velocity": 76}, {"time": 1455, "pitch": 47, "duration": 9, "velocity": 76}, {"time": 1458, "pitch": 64, "duration": 1, "velocity": 61}, {"time": 1461, "pitch": 64, "duration": 1, "velocity": 76}, {"time": 1461, "pitch": 67, "duration": 1, "velocity": 79}, {"time": 1461, "pitch": 71, "duration": 1, "velocity": 79}, {"time": 1464, "pitch": 64, "duration": 3, "velocity": 82}, {"time": 1464, "pitch": 67, "duration": 3, "velocity": 92}, {"time": 1464, "pitch": 71, "duration": 4, "velocity": 92}, {"time": 1467, "pitch": 47, "duration": 2, "velocity": 79}, {"time": 1470, "pitch": 64, "duration": 1, "velocity": 80}, {"time": 1470, "pitch": 69, "duration": 2, "velocity": 80}, {"time": 1473, "pitch": 67, "duration": 1, "velocity": 68}, {"time": 1476, "pitch": 45, "duration": 22, "velocity": 76}, {"time": 1476, "pitch": 64, "duration": 1, "velocity": 73}, {"time": 1476, "pitch": 69, "duration": 1, "velocity": 69}, {"time": 1479, "pitch": 52, "duration": 9, "velocity": 63}, {"time": 1482, "pitch": 57, "duration": 1, "velocity": 67}, {"time": 1485, "pitch": 60, "duration": 1, "velocity": 75}, {"time": 1488, "pitch": 57, "duration": 2, "velocity": 74}, {"time": 1488, "pitch": 60, "duration": 2, "velocity": 80}, {"time": 1488, "pitch": 64, "duration": 3, "velocity": 82}, {"time": 1491, "pitch": 52, "duration": 7, "velocity": 76}, {"time": 1494, "pitch": 57, "duration": 3, "velocity": 77}, {"time": 1497, "pitch": 60, "duration": 2, "velocity": 75}, {"time": 1500, "pitch": 50, "duration": 13, "velocity": 80}, {"time": 1500, "pitch": 57, "duration": 1, "velocity": 77}, {"time": 1500, "pitch": 62, "duration": 2, "velocity": 80}, {"time": 1503, "pitch": 57, "duration": 1, "velocity": 73}, {"time": 1506, "pitch": 62, "duration": 1, "velocity": 66}, {"time": 1509, "pitch": 57, "duration": 1, "velocity": 75}, {"time": 1512, "pitch": 57, "duration": 3, "velocity": 78}, {"time": 1512, "pitch": 62, "duration": 3, "velocity": 91}, {"time": 1512, "pitch": 66, "duration": 3, "velocity": 86}, {"time": 1515, "pitch": 50, "duration": 1, "velocity": 77}, {"time": 1518, "pitch": 57, "duration": 2, "velocity": 78}, {"time": 1524, "pitch": 43, "duration": 10, "velocity": 77}, {"time": 1524, "pitch": 55, "duration": 2, "velocity": 75}, {"time": 1524, "pitch": 59, "duration": 2, "velocity": 75}, {"time": 1524, "pitch": 62, "duration": 2, "velocity": 75}, {"time": 1527, "pitch": 50, "duration": 6, "velocity": 68}, {"time": 1530, "pitch": 55, "duration": 1, "velocity": 71}, {"time": 1533, "pitch": 55, "duration": 3, "velocity": 81}, {"time": 1533, "pitch": 59, "duration": 4, "velocity": 82}, {"time": 1533, "pitch": 67, "duration": 4, "velocity": 76}, {"time": 1536, "pitch": 50, "duration": 4, "velocity": 91}, {"time": 1539, "pitch": 55, "duration": 1, "velocity": 81}, {"time": 1539, "pitch": 59, "duration": 1, "velocity": 82}, {"time": 1539, "pitch": 67, "duration": 2, "velocity": 76}, {"time": 1542, "pitch": 45, "duration": 1, "velocity": 76}, {"time": 1542, "pitch": 57, "duration": 1, "velocity": 77}, {"time": 1542, "pitch": 69, "duration": 1, "velocity": 77}, {"time": 1545, "pitch": 46, "duration": 1, "velocity": 86}, {"time": 1545, "pitch": 58, "duration": 1, "velocity": 64}, {"time": 1545, "pitch": 70, "duration": 1, "velocity": 72}, {"time": 1548, "pitch": 47, "duration": 7, "velocity": 82}, {"time": 1548, "pitch": 59, "duration": 2, "velocity": 84}, {"time": 1548, "pitch": 71, "duration": 4, "velocity": 84}, {"time": 1551, "pitch": 59, "duration": 1, "velocity": 80}, {"time": 1554, "pitch": 59, "duration": 1, "velocity": 79}, {"time": 1554, "pitch": 63, "duration": 1, "velocity": 81}, {"time": 1554, "pitch": 66, "duration": 1, "velocity": 64}, {"time": 1557, "pitch": 59, "duration": 4, "velocity": 89}, {"time": 1557, "pitch": 63, "duration": 3, "velocity": 101}, {"time": 1557, "pitch": 66, "duration": 3, "velocity": 84}, {"time": 1560, "pitch": 54, "duration": 5, "velocity": 91}, {"time": 1563, "pitch": 59, "duration": 3, "velocity": 81}, {"time": 1563, "pitch": 63, "duration": 8, "velocity": 92}, {"time": 1563, "pitch": 66, "duration": 8, "velocity": 79}, {"time": 1563, "pitch": 71, "duration": 8, "velocity": 78}, {"time": 1566, "pitch": 51, "duration": 2, "velocity": 64}, {"time": 1569, "pitch": 59, "duration": 2, "velocity": 79}, {"time": 1572, "pitch": 40, "duration": 3, "velocity": 81}, {"time": 1572, "pitch": 59, "duration": 1, "velocity": 78}, {"time": 1572, "pitch": 64, "duration": 3, "velocity": 79}, {"time": 1575, "pitch": 59, "duration": 1, "velocity": 74}, {"time": 1578, "pitch": 64, "duration": 1, "velocity": 73}, {"time": 1581, "pitch": 59, "duration": 1, "velocity": 77}, {"time": 1584, "pitch": 52, "duration": 2, "velocity": 76}, {"time": 1584, "pitch": 59, "duration": 1, "velocity": 77}, {"time": 1584, "pitch": 64, "duration": 2, "velocity": 84}, {"time": 1584, "pitch": 67, "duration": 3, "velocity": 76}, {"time": 1587, "pitch": 59, "duration": 1, "velocity": 75}, {"time": 1590, "pitch": 64, "duration": 1, "velocity": 77}, {"time": 1593, "pitch": 59, "duration": 1, "velocity": 80}, {"time": 1596, "pitch": 40, "duration": 15, "velocity": 80}, {"time": 1596, "pitch": 59, "duration": 2, "velocity": 77}, {"time": 1596, "pitch": 64, "duration": 3, "velocity": 79}, {"time": 1599, "pitch": 47, "duration": 10, "velocity": 70}, {"time": 1602, "pitch": 59, "duration": 3, "velocity": 76}, {"time": 1605, "pitch": 64, "duration": 1, "velocity": 68}, {"time": 1608, "pitch": 59, "duration": 2, "velocity": 81}, {"time": 1608, "pitch": 64, "duration": 3, "velocity": 96}, {"time": 1608, "pitch": 67, "duration": 3, "velocity": 78}, {"time": 1611, "pitch": 47, "duration": 1, "velocity": 81}, {"time": 1614, "pitch": 59, "duration": 3, "velocity": 84}, {"time": 1620, "pitch": 47, "duration": 10, "velocity": 77}, {"time": 1620, "pitch": 59, "duration": 1, "velocity": 76}, {"time": 1620, "pitch": 62, "duration": 2, "velocity": 75}, {"time": 1623, "pitch": 59, "duration": 1, "velocity": 76}, {"time": 1626, "pitch": 62, "duration": 1, "velocity": 67}, {"time": 1629, "pitch": 59, "duration": 1, "velocity": 71}, {"time": 1632, "pitch": 47, "duration": 1, "velocity": 73}, {"time": 1632, "pitch": 54, "duration": 7, "velocity": 78}, {"time": 1632, "pitch": 59, "duration": 1, "velocity": 79}, {"time": 1632, "pitch": 62, "duration": 3, "velocity": 80}, {"time": 1632, "pitch": 66, "duration": 4, "velocity": 78}, {"time": 1635, "pitch": 59, "duration": 1, "velocity": 75}, {"time": 1638, "pitch": 62, "duration": 1, "velocity": 75}, {"time": 1641, "pitch": 59, "duration": 1, "velocity": 68}, {"time": 1644, "pitch": 47, "duration": 15, "velocity": 75}, {"time": 1644, "pitch": 59, "duration": 2, "velocity": 73}, {"time": 1644, "pitch": 62, "duration": 2, "velocity": 72}, {"time": 1647, "pitch": 54, "duration": 9, "velocity": 67}, {"time": 1650, "pitch": 59, "duration": 1, "velocity": 69}, {"time": 1653, "pitch": 59, "duration": 1, "velocity": 61}, {"time": 1653, "pitch": 62, "duration": 1, "velocity": 77}, {"time": 1656, "pitch": 59, "duration": 3, "velocity": 80}, {"time": 1656, "pitch": 62, "duration": 3, "velocity": 89}, {"time": 1656, "pitch": 66, "duration": 6, "velocity": 82}, {"time": 1659, "pitch": 54, "duration": 2, "velocity": 76}, {"time": 1662, "pitch": 59, "duration": 3, "velocity": 84}, {"time": 1665, "pitch": 62, "duration": 2, "velocity": 76}, {"time": 1668, "pitch": 48, "duration": 15, "velocity": 79}, {"time": 1668, "pitch": 60, "duration": 3, "velocity": 75}, {"time": 1668, "pitch": 64, "duration": 3, "velocity": 81}, {"time": 1671, "pitch": 55, "duration": 9, "velocity": 76}, {"time": 1674, "pitch": 60, "duration": 4, "velocity": 76}, {"time": 1677, "pitch": 64, "duration": 1, "velocity": 68}, {"time": 1680, "pitch": 60, "duration": 2, "velocity": 77}, {"time": 1680, "pitch": 64, "duration": 2, "velocity": 89}, {"time": 1680, "pitch": 67, "duration": 3, "velocity": 77}, {"time": 1683, "pitch": 55, "duration": 1, "velocity": 78}, {"time": 1686, "pitch": 48, "duration": 1, "velocity": 82}, {"time": 1689, "pitch": 62, "duration": 2, "velocity": 77}, {"time": 1692, "pitch": 38, "duration": 1, "velocity": 77}, {"time": 1692, "pitch": 62, "duration": 2, "velocity": 74}, {"time": 1692, "pitch": 66, "duration": 4, "velocity": 76}, {"time": 1692, "pitch": 69, "duration": 4, "velocity": 75}, {"time": 1695, "pitch": 62, "duration": 1, "velocity": 68}, {"time": 1698, "pitch": 66, "duration": 4, "velocity": 56}, {"time": 1701, "pitch": 62, "duration": 1, "velocity": 73}, {"time": 1704, "pitch": 50, "duration": 2, "velocity": 78}, {"time": 1704, "pitch": 57, "duration": 3, "velocity": 76}, {"time": 1704, "pitch": 62, "duration": 1, "velocity": 79}, {"time": 1704, "pitch": 66, "duration": 3, "velocity": 79}, {"time": 1704, "pitch": 74, "duration": 3, "velocity": 76}, {"time": 1707, "pitch": 50, "duration": 1, "velocity": 55}, {"time": 1710, "pitch": 66, "duration": 2, "velocity": 76}, {"time": 1713, "pitch": 62, "duration": 1, "velocity": 77}, {"time": 1716, "pitch": 43, "duration": 16, "velocity": 76}, {"time": 1716, "pitch": 62, "duration": 2, "velocity": 76}, {"time": 1716, "pitch": 67, "duration": 3, "velocity": 75}, {"time": 1719, "pitch": 50, "duration": 10, "velocity": 70}, {"time": 1722, "pitch": 62, "duration": 2, "velocity": 78}, {"time": 1725, "pitch": 67, "duration": 1, "velocity": 77}, {"time": 1728, "pitch": 62, "duration": 1, "velocity": 80}, {"time": 1728, "pitch": 67, "duration": 2, "velocity": 86}, {"time": 1728, "pitch": 71, "duration": 4, "velocity": 86}, {"time": 1731, "pitch": 50, "duration": 1, "velocity": 77}, {"time": 1734, "pitch": 62, "duration": 3, "velocity": 77}, {"time": 1737, "pitch": 67, "duration": 1, "velocity": 70}, {"time": 1740, "pitch": 40, "duration": 16, "velocity": 77}, {"time": 1740, "pitch": 64, "duration": 2, "velocity": 76}, {"time": 1740, "pitch": 67, "duration": 3, "velocity": 76}, {"time": 1743, "pitch": 47, "duration": 9, "velocity": 76}, {"time": 1746, "pitch": 64, "duration": 1, "velocity": 61}, {"time": 1749, "pitch": 64, "duration": 1, "velocity": 76}, {"time": 1749, "pitch": 67, "duration": 1, "velocity": 79}, {"time": 1749, "pitch": 71, "duration": 1, "velocity": 79}, {"time": 1752, "pitch": 64, "duration": 3, "velocity": 82}, {"time": 1752, "pitch": 67, "duration": 3, "velocity": 92}, {"time": 1752, "pitch": 71, "duration": 4, "velocity": 92}, {"time": 1755, "pitch": 47, "duration": 2, "velocity": 79}, {"time": 1758, "pitch": 64, "duration": 1, "velocity": 80}, {"time": 1758, "pitch": 69, "duration": 2, "velocity": 80}, {"time": 1761, "pitch": 67, "duration": 1, "velocity": 68}, {"time": 1764, "pitch": 45, "duration": 22, "velocity": 76}, {"time": 1764, "pitch": 64, "duration": 1, "velocity": 73}, {"time": 1764, "pitch": 69, "duration": 1, "velocity": 69}, {"time": 1767, "pitch": 52, "duration": 9, "velocity": 63}, {"time": 1770, "pitch": 57, "duration": 1, "velocity": 67}, {"time": 1773, "pitch": 60, "duration": 1, "velocity": 75}, {"time": 1776, "pitch": 57, "duration": 2, "velocity": 74}, {"time": 1776, "pitch": 60, "duration": 2, "velocity": 80}, {"time": 1776, "pitch": 64, "duration": 3, "velocity": 82}, {"time": 1779, "pitch": 52, "duration": 7, "velocity": 76}, {"time": 1782, "pitch": 57, "duration": 3, "velocity": 77}, {"time": 1785, "pitch": 60, "duration": 2, "velocity": 75}, {"time": 1788, "pitch": 50, "duration": 13, "velocity": 80}, {"time": 1788, "pitch": 57, "duration": 1, "velocity": 77}, {"time": 1788, "pitch": 62, "duration": 2, "velocity": 80}, {"time": 1791, "pitch": 57, "duration": 1, "velocity": 73}, {"time": 1794, "pitch": 62, "duration": 1, "velocity": 66}, {"time": 1797, "pitch": 57, "duration": 1, "velocity": 75}, {"time": 1800, "pitch": 57, "duration": 3, "velocity": 78}, {"time": 1800, "pitch": 62, "duration": 3, "velocity": 91}, {"time": 1800, "pitch": 66, "duration": 3, "velocity": 86}, {"time": 1803, "pitch": 50, "duration": 1, "velocity": 77}, {"time": 1806, "pitch": 57, "duration": 2, "velocity": 78}, {"time": 1812, "pitch": 40, "duration": 22, "velocity": 78}, {"time": 1812, "pitch": 59, "duration": 2, "velocity": 76}, {"time": 1812, "pitch": 64, "duration": 3, "velocity": 77}, {"time": 1815, "pitch": 47, "duration": 19, "velocity": 73}, {"time": 1818, "pitch": 59, "duration": 4, "velocity": 77}, {"time": 1821, "pitch": 64, "duration": 1, "velocity": 76}, {"time": 1824, "pitch": 59, "duration": 2, "velocity": 79}, {"time": 1824, "pitch": 67, "duration": 4, "velocity": 78}, {"time": 1827, "pitch": 59, "duration": 2, "velocity": 77}, {"time": 1830, "pitch": 64, "duration": 1, "velocity": 73}, {"time": 1833, "pitch": 59, "duration": 2, "velocity": 55}, {"time": 1836, "pitch": 40, "duration": 15, "velocity": 77}, {"time": 1836, "pitch": 64, "duration": 5, "velocity": 70}, {"time": 1839, "pitch": 47, "duration": 11, "velocity": 59}, {"time": 1842, "pitch": 59, "duration": 3, "velocity": 65}, {"time": 1845, "pitch": 64, "duration": 1, "velocity": 68}, {"time": 1848, "pitch": 59, "duration": 2, "velocity": 74}, {"time": 1848, "pitch": 64, "duration": 2, "velocity": 76}, {"time": 1848, "pitch": 67, "duration": 2, "velocity": 70}, {"time": 1860, "pitch": 48, "duration": 13, "velocity": 86}, {"time": 1860, "pitch": 55, "duration": 1, "velocity": 74}, {"time": 1860, "pitch": 60, "duration": 3, "velocity": 76}, {"time": 1863, "pitch": 55, "duration": 1, "velocity": 76}, {"time": 1866, "pitch": 60, "duration": 2, "velocity": 65}, {"time": 1869, "pitch": 55, "duration": 1, "velocity": 69}, {"time": 1872, "pitch": 55, "duration": 2, "velocity": 82}, {"time": 1872, "pitch": 60, "duration": 3, "velocity": 92}, {"time": 1872, "pitch": 64, "duration": 3, "velocity": 86}, {"time": 1875, "pitch": 48, "duration": 1, "velocity": 78}, {"time": 1878, "pitch": 55, "duration": 4, "velocity": 81}, {"time": 1881, "pitch": 60, "duration": 1, "velocity": 75}, {"time": 1884, "pitch": 48, "duration": 12, "velocity": 67}, {"time": 1884, "pitch": 55, "duration": 1, "velocity": 67}, {"time": 1884, "pitch": 60, "duration": 3, "velocity": 72}, {"time": 1887, "pitch": 55, "duration": 1, "velocity": 76}, {"time": 1890, "pitch": 60, "duration": 1, "velocity": 69}, {"time": 1893, "pitch": 55, "duration": 1, "velocity": 76}, {"time": 1896, "pitch": 55, "duration": 2, "velocity": 80}, {"time": 1896, "pitch": 60, "duration": 3, "velocity": 79}, {"time": 1896, "pitch": 64, "duration": 3, "velocity": 80}, {"time": 1899, "pitch": 48, "duration": 1, "velocity": 84}, {"time": 1902, "pitch": 55, "duration": 2, "velocity": 77}, {"time": 1908, "pitch": 43, "duration": 14, "velocity": 76}, {"time": 1908, "pitch": 55, "duration": 2, "velocity": 76}, {"time": 1908, "pitch": 59, "duration": 2, "velocity": 76}, {"time": 1911, "pitch": 50, "duration": 9, "velocity": 71}, {"time": 1914, "pitch": 62, "duration": 1, "velocity": 76}, {"time": 1917, "pitch": 55, "duration": 1, "velocity": 69}, {"time": 1920, "pitch": 55, "duration": 2, "velocity": 79}, {"time": 1920, "pitch": 59, "duration": 2, "velocity": 69}, {"time": 1920, "pitch": 62, "duration": 2, "velocity": 81}, {"time": 1920, "pitch": 67, "duration": 2, "velocity": 76}, {"time": 1923, "pitch": 50, "duration": 1, "velocity": 75}, {"time": 1926, "pitch": 55, "duration": 1, "velocity": 82}, {"time": 1929, "pitch": 59, "duration": 7, "velocity": 79}, {"time": 1929, "pitch": 62, "duration": 7, "velocity": 75}, {"time": 1932, "pitch": 43, "duration": 11, "velocity": 77}, {"time": 1935, "pitch": 50, "duration": 7, "velocity": 63}, {"time": 1938, "pitch": 55, "duration": 1, "velocity": 71}, {"time": 1941, "pitch": 55, "duration": 4, "velocity": 80}, {"time": 1941, "pitch": 59, "duration": 4, "velocity": 86}, {"time": 1941, "pitch": 62, "duration": 4, "velocity": 79}, {"time": 1944, "pitch": 50, "duration": 4, "velocity": 77}, {"time": 1947, "pitch": 55, "duration": 2, "velocity": 84}, {"time": 1947, "pitch": 59, "duration": 2, "velocity": 89}, {"time": 1947, "pitch": 62, "duration": 3, "velocity": 84}, {"time": 1950, "pitch": 43, "duration": 1, "velocity": 76}, {"time": 1956, "pitch": 40, "duration": 21, "velocity": 78}, {"time": 1956, "pitch": 59, "duration": 2, "velocity": 76}, {"time": 1956, "pitch": 64, "duration": 3, "velocity": 78}, {"time": 1959, "pitch": 47, "duration": 7, "velocity": 60}, {"time": 1962, "pitch": 59, "duration": 1, "velocity": 75}, {"time": 1965, "pitch": 59, "duration": 4, "velocity": 78}, {"time": 1965, "pitch": 64, "duration": 4, "velocity": 82}, {"time": 1965, "pitch": 67, "duration": 4, "velocity": 78}, {"time": 1968, "pitch": 47, "duration": 8, "velocity": 75}, {"time": 1971, "pitch": 59, "duration": 1, "velocity": 79}, {"time": 1971, "pitch": 64, "duration": 2, "velocity": 86}, {"time": 1971, "pitch": 67, "duration": 4, "velocity": 76}, {"time": 1977, "pitch": 59, "duration": 1, "velocity": 75}, {"time": 1980, "pitch": 40, "duration": 13, "velocity": 76}, {"time": 1980, "pitch": 59, "duration": 3, "velocity": 76}, {"time": 1980, "pitch": 64, "duration": 4, "velocity": 77}, {"time": 1983, "pitch": 47, "duration": 7, "velocity": 64}, {"time": 1986, "pitch": 59, "duration": 1, "velocity": 69}, {"time": 1989, "pitch": 59, "duration": 4, "velocity": 82}, {"time": 1989, "pitch": 64, "duration": 3, "velocity": 89}, {"time": 1989, "pitch": 67, "duration": 3, "velocity": 77}, {"time": 1992, "pitch": 47, "duration": 1, "velocity": 78}, {"time": 1995, "pitch": 59, "duration": 1, "velocity": 78}, {"time": 1995, "pitch": 64, "duration": 2, "velocity": 82}, {"time": 1995, "pitch": 67, "duration": 3, "velocity": 76}, {"time": 2001, "pitch": 59, "duration": 1, "velocity": 76}, {"time": 2004, "pitch": 48, "duration": 15, "velocity": 81}, {"time": 2004, "pitch": 60, "duration": 4, "velocity": 80}, {"time": 2004, "pitch": 64, "duration": 5, "velocity": 79}, {"time": 2010, "pitch": 55, "duration": 7, "velocity": 73}, {"time": 2013, "pitch": 60, "duration": 1, "velocity": 75}, {"time": 2016, "pitch": 60, "duration": 3, "velocity": 84}, {"time": 2016, "pitch": 64, "duration": 3, "velocity": 92}, {"time": 2016, "pitch": 67, "duration": 4, "velocity": 86}, {"time": 2016, "pitch": 72, "duration": 4, "velocity": 76}, {"time": 2019, "pitch": 55, "duration": 1, "velocity": 71}, {"time": 2022, "pitch": 60, "duration": 1, "velocity": 77}, {"time": 2025, "pitch": 60, "duration": 1, "velocity": 65}, {"time": 2025, "pitch": 64, "duration": 2, "velocity": 82}, {"time": 2025, "pitch": 67, "duration": 1, "velocity": 64}, {"time": 2027, "pitch": 55, "duration": 2, "velocity": 75}, {"time": 2027, "pitch": 60, "duration": 4, "velocity": 73}, {"time": 2028, "pitch": 48, "duration": 9, "velocity": 84}, {"time": 2031, "pitch": 55, "duration": 1, "velocity": 78}, {"time": 2034, "pitch": 60, "duration": 3, "velocity": 75}, {"time": 2037, "pitch": 55, "duration": 1, "velocity": 79}, {"time": 2040, "pitch": 40, "duration": 4, "velocity": 80}, {"time": 2040, "pitch": 52, "duration": 5, "velocity": 82}, {"time": 2044, "pitch": 42, "duration": 3, "velocity": 76}, {"time": 2044, "pitch": 54, "duration": 4, "velocity": 81}, {"time": 2048, "pitch": 55, "duration": 3, "velocity": 77}, {"time": 2048, "pitch": 43, "duration": 3, "velocity": 79}, {"time": 2052, "pitch": 42, "duration": 14, "velocity": 78}, {"time": 2052, "pitch": 57, "duration": 1, "velocity": 71}, {"time": 2052, "pitch": 60, "duration": 3, "velocity": 77}, {"time": 2055, "pitch": 57, "duration": 3, "velocity": 64}, {"time": 2058, "pitch": 60, "duration": 2, "velocity": 74}, {"time": 2061, "pitch": 57, "duration": 1, "velocity": 64}, {"time": 2064, "pitch": 57, "duration": 2, "velocity": 76}, {"time": 2064, "pitch": 60, "duration": 3, "velocity": 86}, {"time": 2064, "pitch": 64, "duration": 3, "velocity": 81}, {"time": 2067, "pitch": 42, "duration": 1, "velocity": 70}, {"time": 2070, "pitch": 57, "duration": 2, "velocity": 79}, {"time": 2076, "pitch": 39, "duration": 11, "velocity": 75}, {"time": 2076, "pitch": 59, "duration": 1, "velocity": 69}, {"time": 2076, "pitch": 63, "duration": 3, "velocity": 71}, {"time": 2076, "pitch": 66, "duration": 4, "velocity": 68}, {"time": 2079, "pitch": 59, "duration": 2, "velocity": 68}, {"time": 2082, "pitch": 63, "duration": 1, "velocity": 76}, {"time": 2085, "pitch": 59, "duration": 1, "velocity": 75}, {"time": 2088, "pitch": 59, "duration": 1, "velocity": 82}, {"time": 2088, "pitch": 63, "duration": 2, "velocity": 96}, {"time": 2088, "pitch": 66, "duration": 4, "velocity": 86}, {"time": 2091, "pitch": 59, "duration": 3, "velocity": 77}, {"time": 2094, "pitch": 63, "duration": 1, "velocity": 75}, {"time": 2097, "pitch": 59, "duration": 1, "velocity": 76}, {"time": 2100, "pitch": 40, "duration": 14, "velocity": 79}, {"time": 2100, "pitch": 64, "duration": 3, "velocity": 80}, {"time": 2100, "pitch": 67, "duration": 4, "velocity": 75}, {"time": 2103, "pitch": 47, "duration": 9, "velocity": 63}, {"time": 2103, "pitch": 59, "duration": 2, "velocity": 76}, {"time": 2106, "pitch": 64, "duration": 2, "velocity": 74}, {"time": 2109, "pitch": 59, "duration": 1, "velocity": 77}, {"time": 2112, "pitch": 59, "duration": 1, "velocity": 75}, {"time": 2112, "pitch": 64, "duration": 3, "velocity": 84}, {"time": 2112, "pitch": 67, "duration": 3, "velocity": 78}, {"time": 2115, "pitch": 47, "duration": 1, "velocity": 77}, {"time": 2118, "pitch": 59, "duration": 3, "velocity": 80}, {"time": 2121, "pitch": 64, "duration": 1, "velocity": 76}, {"time": 2124, "pitch": 48, "duration": 14, "velocity": 78}, {"time": 2124, "pitch": 60, "duration": 3, "velocity": 78}, {"time": 2124, "pitch": 67, "duration": 4, "velocity": 76}, {"time": 2127, "pitch": 55, "duration": 9, "velocity": 68}, {"time": 2130, "pitch": 60, "duration": 3, "velocity": 75}, {"time": 2133, "pitch": 64, "duration": 1, "velocity": 76}, {"time": 2136, "pitch": 60, "duration": 3, "velocity": 77}, {"time": 2136, "pitch": 64, "duration": 3, "velocity": 89}, {"time": 2136, "pitch": 67, "duration": 4, "velocity": 78}, {"time": 2139, "pitch": 55, "duration": 1, "velocity": 78}, {"time": 2142, "pitch": 60, "duration": 4, "velocity": 79}, {"time": 2145, "pitch": 64, "duration": 1, "velocity": 60}, {"time": 2148, "pitch": 45, "duration": 14, "velocity": 75}, {"time": 2148, "pitch": 57, "duration": 3, "velocity": 71}, {"time": 2148, "pitch": 60, "duration": 6, "velocity": 78}, {"time": 2151, "pitch": 52, "duration": 10, "velocity": 73}, {"time": 2154, "pitch": 57, "duration": 2, "velocity": 74}, {"time": 2157, "pitch": 57, "duration": 1, "velocity": 47}, {"time": 2157, "pitch": 60, "duration": 1, "velocity": 74}, {"time": 2160, "pitch": 57, "duration": 3, "velocity": 76}, {"time": 2160, "pitch": 60, "duration": 3, "velocity": 78}, {"time": 2160, "pitch": 64, "duration": 3, "velocity": 81}, {"time": 2163, "pitch": 45, "duration": 1, "velocity": 43}, {"time": 2163, "pitch": 52, "duration": 1, "velocity": 76}, {"time": 2166, "pitch": 57, "duration": 3, "velocity": 79}, {"time": 2169, "pitch": 60, "duration": 2, "velocity": 67}, {"time": 2172, "pitch": 47, "duration": 6, "velocity": 79}, {"time": 2172, "pitch": 63, "duration": 3, "velocity": 78}, {"time": 2175, "pitch": 51, "duration": 3, "velocity": 77}, {"time": 2178, "pitch": 59, "duration": 3, "velocity": 89}, {"time": 2181, "pitch": 63, "duration": 3, "velocity": 78}, {"time": 2184, "pitch": 54, "duration": 4, "velocity": 86}, {"time": 2187, "pitch": 59, "duration": 2, "velocity": 76}, {"time": 2187, "pitch": 63, "duration": 3, "velocity": 76}, {"time": 2187, "pitch": 66, "duration": 4, "velocity": 77}, {"time": 2190, "pitch": 59, "duration": 4, "velocity": 75}, {"time": 2196, "pitch": 40, "duration": 22, "velocity": 79}, {"time": 2196, "pitch": 64, "duration": 3, "velocity": 78}, {"time": 2196, "pitch": 69, "duration": 6, "velocity": 75}, {"time": 2199, "pitch": 59, "duration": 4, "velocity": 76}, {"time": 2202, "pitch": 64, "duration": 1, "velocity": 74}, {"time": 2205, "pitch": 59, "duration": 1, "velocity": 74}, {"time": 2205, "pitch": 64, "duration": 5, "velocity": 77}, {"time": 2205, "pitch": 69, "duration": 6, "velocity": 76}, {"time": 2208, "pitch": 47, "duration": 9, "velocity": 70}, {"time": 2211, "pitch": 59, "duration": 3, "velocity": 76}, {"time": 2214, "pitch": 64, "duration": 4, "velocity": 78}, {"time": 2217, "pitch": 59, "duration": 2, "velocity": 74}, {"time": 2220, "pitch": 40, "duration": 18, "velocity": 77}, {"time": 2220, "pitch": 59, "duration": 8, "velocity": 65}, {"time": 2220, "pitch": 64, "duration": 9, "velocity": 75}, {"time": 2220, "pitch": 68, "duration": 9, "velocity": 65}, {"time": 2232, "pitch": 64, "duration": 11, "velocity": 73}, {"time": 2232, "pitch": 68, "duration": 12, "velocity": 64}, {"time": 2238, "pitch": 59, "duration": 5, "velocity": 52}, {"time": 2244, "pitch": 40, "duration": 22, "velocity": 78}, {"time": 2247, "pitch": 47, "duration": 18, "velocity": 63}, {"time": 2250, "pitch": 59, "duration": 7, "velocity": 69}, {"time": 2253, "pitch": 52, "duration": 3, "velocity": 65}, {"time": 2256, "pitch": 64, "duration": 16, "velocity": 79}, {"time": 2262, "pitch": 59, "duration": 12, "velocity": 69}, {"time": 2265, "pitch": 52, "duration": 7, "velocity": 73}, {"time": 2268, "pitch": 40, "duration": 17, "velocity": 76}, {"time": 2271, "pitch": 47, "duration": 13, "velocity": 63}, {"time": 2274, "pitch": 52, "duration": 4, "velocity": 70}, {"time": 2277, "pitch": 59, "duration": 3, "velocity": 70}, {"time": 2280, "pitch": 64, "duration": 12, "velocity": 82}, {"time": 2283, "pitch": 52, "duration": 3, "velocity": 75}, {"time": 2286, "pitch": 59, "duration": 4, "velocity": 69}, {"time": 2289, "pitch": 52, "duration": 2, "velocity": 75}, {"time": 2292, "pitch": 38, "duration": 16, "velocity": 79}, {"time": 2295, "pitch": 45, "duration": 12, "velocity": 66}, {"time": 2298, "pitch": 62, "duration": 3, "velocity": 68}, {"time": 2301, "pitch": 57, "duration": 4, "velocity": 64}, {"time": 2304, "pitch": 66, "duration": 6, "velocity": 80}, {"time": 2307, "pitch": 57, "duration": 3, "velocity": 73}, {"time": 2310, "pitch": 62, "duration": 4, "velocity": 69}, {"time": 2313, "pitch": 57, "duration": 2, "velocity": 71}, {"time": 2316, "pitch": 38, "duration": 15, "velocity": 80}, {"time": 2316, "pitch": 57, "duration": 3, "velocity": 68}, {"time": 2316, "pitch": 62, "duration": 5, "velocity": 71}, {"time": 2319, "pitch": 45, "duration": 12, "velocity": 58}, {"time": 2322, "pitch": 57, "duration": 5, "velocity": 65}, {"time": 2325, "pitch": 62, "duration": 2, "velocity": 75}, {"time": 2328, "pitch": 66, "duration": 5, "velocity": 81}, {"time": 2331, "pitch": 62, "duration": 3, "velocity": 78}, {"time": 2334, "pitch": 57, "duration": 4, "velocity": 75}, {"time": 2337, "pitch": 62, "duration": 1, "velocity": 62}, {"time": 2340, "pitch": 48, "duration": 15, "velocity": 73}, {"time": 2340, "pitch": 60, "duration": 3, "velocity": 75}, {"time": 2343, "pitch": 55, "duration": 4, "velocity": 73}, {"time": 2346, "pitch": 60, "duration": 4, "velocity": 69}, {"time": 2349, "pitch": 55, "duration": 2, "velocity": 72}, {"time": 2352, "pitch": 64, "duration": 6, "velocity": 82}, {"time": 2355, "pitch": 55, "duration": 3, "velocity": 71}, {"time": 2358, "pitch": 60, "duration": 3, "velocity": 67}, {"time": 2361, "pitch": 55, "duration": 1, "velocity": 62}, {"time": 2364, "pitch": 50, "duration": 16, "velocity": 75}, {"time": 2364, "pitch": 62, "duration": 3, "velocity": 73}, {"time": 2367, "pitch": 57, "duration": 3, "velocity": 70}, {"time": 2370, "pitch": 62, "duration": 3, "velocity": 70}, {"time": 2376, "pitch": 57, "duration": 2, "velocity": 72}, {"time": 2376, "pitch": 62, "duration": 3, "velocity": 72}, {"time": 2376, "pitch": 66, "duration": 7, "velocity": 71}, {"time": 2379, "pitch": 57, "duration": 3, "velocity": 70}, {"time": 2382, "pitch": 62, "duration": 3, "velocity": 67}, {"time": 2385, "pitch": 57, "duration": 2, "velocity": 49}, {"time": 2388, "pitch": 43, "duration": 21, "velocity": 75}, {"time": 2388, "pitch": 55, "duration": 3, "velocity": 63}, {"time": 2388, "pitch": 59, "duration": 6, "velocity": 65}, {"time": 2391, "pitch": 50, "duration": 7, "velocity": 65}, {"time": 2394, "pitch": 55, "duration": 4, "velocity": 73}, {"time": 2397, "pitch": 59, "duration": 5, "velocity": 73}, {"time": 2400, "pitch": 50, "duration": 10, "velocity": 73}, {"time": 2403, "pitch": 55, "duration": 4, "velocity": 79}, {"time": 2406, "pitch": 59, "duration": 4, "velocity": 76}, {"time": 2409, "pitch": 55, "duration": 2, "velocity": 75}, {"time": 2412, "pitch": 47, "duration": 10, "velocity": 79}, {"time": 2415, "pitch": 59, "duration": 3, "velocity": 64}, {"time": 2418, "pitch": 63, "duration": 4, "velocity": 65}, {"time": 2421, "pitch": 59, "duration": 4, "velocity": 84}, {"time": 2424, "pitch": 54, "duration": 4, "velocity": 80}, {"time": 2427, "pitch": 59, "duration": 2, "velocity": 80}, {"time": 2427, "pitch": 63, "duration": 4, "velocity": 77}, {"time": 2427, "pitch": 66, "duration": 5, "velocity": 72}, {"time": 2430, "pitch": 51, "duration": 1, "velocity": 60}, {"time": 2433, "pitch": 59, "duration": 2, "velocity": 75}, {"time": 2436, "pitch": 48, "duration": 13, "velocity": 80}, {"time": 2436, "pitch": 60, "duration": 4, "velocity": 71}, {"time": 2439, "pitch": 55, "duration": 3, "velocity": 75}, {"time": 2442, "pitch": 60, "duration": 3, "velocity": 70}, {"time": 2448, "pitch": 55, "duration": 3, "velocity": 77}, {"time": 2448, "pitch": 60, "duration": 5, "velocity": 81}, {"time": 2448, "pitch": 64, "duration": 7, "velocity": 80}, {"time": 2451, "pitch": 48, "duration": 2, "velocity": 74}, {"time": 2454, "pitch": 55, "duration": 3, "velocity": 76}, {"time": 2457, "pitch": 60, "duration": 2, "velocity": 79}, {"time": 2460, "pitch": 50, "duration": 12, "velocity": 75}, {"time": 2460, "pitch": 57, "duration": 2, "velocity": 68}, {"time": 2460, "pitch": 62, "duration": 3, "velocity": 76}, {"time": 2463, "pitch": 57, "duration": 3, "velocity": 67}, {"time": 2466, "pitch": 62, "duration": 2, "velocity": 71}, {"time": 2469, "pitch": 57, "duration": 1, "velocity": 46}, {"time": 2472, "pitch": 57, "duration": 1, "velocity": 74}, {"time": 2472, "pitch": 62, "duration": 3, "velocity": 78}, {"time": 2472, "pitch": 66, "duration": 6, "velocity": 76}, {"time": 2475, "pitch": 57, "duration": 2, "velocity": 68}, {"time": 2478, "pitch": 62, "duration": 2, "velocity": 67}, {"time": 2481, "pitch": 57, "duration": 1, "velocity": 59}, {"time": 2484, "pitch": 43, "duration": 14, "velocity": 75}, {"time": 2484, "pitch": 55, "duration": 3, "velocity": 72}, {"time": 2484, "pitch": 62, "duration": 6, "velocity": 71}, {"time": 2487, "pitch": 50, "duration": 9, "velocity": 70}, {"time": 2490, "pitch": 55, "duration": 7, "velocity": 75}, {"time": 2493, "pitch": 59, "duration": 3, "velocity": 80}, {"time": 2496, "pitch": 62, "duration": 6, "velocity": 75}, {"time": 2499, "pitch": 55, "duration": 4, "velocity": 81}, {"time": 2502, "pitch": 50, "duration": 2, "velocity": 78}, {"time": 2505, "pitch": 55, "duration": 3, "velocity": 75}, {"time": 2508, "pitch": 40, "duration": 18, "velocity": 76}, {"time": 2508, "pitch": 59, "duration": 4, "velocity": 68}, {"time": 2511, "pitch": 47, "duration": 13, "velocity": 75}, {"time": 2514, "pitch": 59, "duration": 3, "velocity": 73}, {"time": 2517, "pitch": 55, "duration": 2, "velocity": 77}, {"time": 2520, "pitch": 64, "duration": 4, "velocity": 84}, {"time": 2523, "pitch": 59, "duration": 3, "velocity": 77}, {"time": 2526, "pitch": 55, "duration": 3, "velocity": 76}, {"time": 2529, "pitch": 59, "duration": 2, "velocity": 73}, {"time": 2532, "pitch": 36, "duration": 8, "velocity": 74}, {"time": 2532, "pitch": 55, "duration": 1, "velocity": 73}, {"time": 2532, "pitch": 60, "duration": 3, "velocity": 72}, {"time": 2535, "pitch": 55, "duration": 3, "velocity": 70}, {"time": 2538, "pitch": 60, "duration": 3, "velocity": 68}, {"time": 2541, "pitch": 55, "duration": 1, "velocity": 71}, {"time": 2544, "pitch": 55, "duration": 4, "velocity": 77}, {"time": 2544, "pitch": 64, "duration": 4, "velocity": 78}, {"time": 2550, "pitch": 48, "duration": 1, "velocity": 80}, {"time": 2550, "pitch": 60, "duration": 4, "velocity": 74}, {"time": 2553, "pitch": 55, "duration": 2, "velocity": 74}, {"time": 2556, "pitch": 50, "duration": 13, "velocity": 81}, {"time": 2556, "pitch": 62, "duration": 2, "velocity": 77}, {"time": 2559, "pitch": 57, "duration": 2, "velocity": 76}, {"time": 2562, "pitch": 62, "duration": 2, "velocity": 65}, {"time": 2565, "pitch": 57, "duration": 1, "velocity": 67}, {"time": 2568, "pitch": 57, "duration": 1, "velocity": 77}, {"time": 2568, "pitch": 62, "duration": 3, "velocity": 79}, {"time": 2568, "pitch": 66, "duration": 4, "velocity": 78}, {"time": 2571, "pitch": 50, "duration": 1, "velocity": 77}, {"time": 2574, "pitch": 57, "duration": 2, "velocity": 77}, {"time": 2580, "pitch": 43, "duration": 15, "velocity": 75}, {"time": 2580, "pitch": 55, "duration": 3, "velocity": 71}, {"time": 2580, "pitch": 62, "duration": 6, "velocity": 73}, {"time": 2583, "pitch": 50, "duration": 9, "velocity": 72}, {"time": 2586, "pitch": 55, "duration": 3, "velocity": 78}, {"time": 2589, "pitch": 59, "duration": 1, "velocity": 75}, {"time": 2592, "pitch": 55, "duration": 2, "velocity": 77}, {"time": 2592, "pitch": 59, "duration": 3, "velocity": 81}, {"time": 2592, "pitch": 62, "duration": 4, "velocity": 76}, {"time": 2595, "pitch": 50, "duration": 2, "velocity": 73}, {"time": 2598, "pitch": 55, "duration": 4, "velocity": 77}, {"time": 2601, "pitch": 59, "duration": 2, "velocity": 75}, {"time": 2604, "pitch": 40, "duration": 16, "velocity": 77}, {"time": 2604, "pitch": 64, "duration": 7, "velocity": 76}, {"time": 2607, "pitch": 47, "duration": 10, "velocity": 60}, {"time": 2610, "pitch": 55, "duration": 4, "velocity": 79}, {"time": 2613, "pitch": 59, "duration": 1, "velocity": 74}, {"time": 2616, "pitch": 55, "duration": 3, "velocity": 74}, {"time": 2616, "pitch": 64, "duration": 4, "velocity": 78}, {"time": 2619, "pitch": 47, "duration": 1, "velocity": 75}, {"time": 2622, "pitch": 55, "duration": 3, "velocity": 79}, {"time": 2625, "pitch": 59, "duration": 2, "velocity": 76}, {"time": 2628, "pitch": 45, "duration": 19, "velocity": 77}, {"time": 2628, "pitch": 57, "duration": 3, "velocity": 69}, {"time": 2628, "pitch": 64, "duration": 9, "velocity": 75}, {"time": 2631, "pitch": 52, "duration": 11, "velocity": 70}, {"time": 2634, "pitch": 57, "duration": 6, "velocity": 77}, {"time": 2637, "pitch": 60, "duration": 10, "velocity": 82}, {"time": 2640, "pitch": 64, "duration": 9, "velocity": 75}, {"time": 2643, "pitch": 52, "duration": 4, "velocity": 71}, {"time": 2646, "pitch": 57, "duration": 3, "velocity": 71}, {"time": 2649, "pitch": 60, "duration": 3, "velocity": 75}, {"time": 2652, "pitch": 38, "duration": 14, "velocity": 77}, {"time": 2652, "pitch": 62, "duration": 5, "velocity": 71}, {"time": 2655, "pitch": 45, "duration": 10, "velocity": 68}, {"time": 2658, "pitch": 57, "duration": 4, "velocity": 77}, {"time": 2661, "pitch": 62, "duration": 1, "velocity": 75}, {"time": 2664, "pitch": 66, "duration": 6, "velocity": 84}, {"time": 2667, "pitch": 57, "duration": 3, "velocity": 76}, {"time": 2670, "pitch": 62, "duration": 4, "velocity": 69}, {"time": 2673, "pitch": 57, "duration": 1, "velocity": 67}, {"time": 2676, "pitch": 40, "duration": 21, "velocity": 76}, {"time": 2676, "pitch": 59, "duration": 3, "velocity": 71}, {"time": 2676, "pitch": 64, "duration": 6, "velocity": 76}, {"time": 2679, "pitch": 47, "duration": 10, "velocity": 64}, {"time": 2682, "pitch": 59, "duration": 3, "velocity": 75}, {"time": 2685, "pitch": 64, "duration": 1, "velocity": 64}, {"time": 2688, "pitch": 59, "duration": 2, "velocity": 76}, {"time": 2688, "pitch": 67, "duration": 3, "velocity": 76}, {"time": 2691, "pitch": 47, "duration": 6, "velocity": 67}, {"time": 2694, "pitch": 59, "duration": 1, "velocity": 75}, {"time": 2697, "pitch": 59, "duration": 5, "velocity": 82}, {"time": 2697, "pitch": 64, "duration": 8, "velocity": 80}, {"time": 2700, "pitch": 40, "duration": 19, "velocity": 78}, {"time": 2703, "pitch": 47, "duration": 7, "velocity": 69}, {"time": 2706, "pitch": 59, "duration": 1, "velocity": 71}, {"time": 2709, "pitch": 59, "duration": 4, "velocity": 81}, {"time": 2709, "pitch": 64, "duration": 3, "velocity": 89}, {"time": 2712, "pitch": 47, "duration": 4, "velocity": 81}, {"time": 2715, "pitch": 59, "duration": 2, "velocity": 80}, {"time": 2715, "pitch": 64, "duration": 7, "velocity": 96}, {"time": 2715, "pitch": 67, "duration": 8, "velocity": 81}, {"time": 2718, "pitch": 47, "duration": 5, "velocity": 78}, {"time": 2721, "pitch": 59, "duration": 2, "velocity": 84}, {"time": 2724, "pitch": 40, "duration": 3, "velocity": 81}, {"time": 2724, "pitch": 59, "duration": 1, "velocity": 78}, {"time": 2724, "pitch": 64, "duration": 3, "velocity": 79}, {"time": 2727, "pitch": 59, "duration": 1, "velocity": 74}, {"time": 2730, "pitch": 64, "duration": 1, "velocity": 73}, {"time": 2733, "pitch": 59, "duration": 1, "velocity": 77}, {"time": 2736, "pitch": 52, "duration": 2, "velocity": 76}, {"time": 2736, "pitch": 59, "duration": 1, "velocity": 77}, {"time": 2736, "pitch": 64, "duration": 2, "velocity": 84}, {"time": 2736, "pitch": 67, "duration": 3, "velocity": 76}, {"time": 2739, "pitch": 59, "duration": 1, "velocity": 75}, {"time": 2742, "pitch": 64, "duration": 1, "velocity": 77}, {"time": 2745, "pitch": 59, "duration": 1, "velocity": 80}, {"time": 2748, "pitch": 40, "duration": 15, "velocity": 80}, {"time": 2748, "pitch": 59, "duration": 2, "velocity": 77}, {"time": 2748, "pitch": 64, "duration": 3, "velocity": 79}, {"time": 2751, "pitch": 47, "duration": 10, "velocity": 70}, {"time": 2754, "pitch": 59, "duration": 3, "velocity": 76}, {"time": 2757, "pitch": 64, "duration": 1, "velocity": 68}, {"time": 2760, "pitch": 59, "duration": 2, "velocity": 81}, {"time": 2760, "pitch": 64, "duration": 3, "velocity": 96}, {"time": 2760, "pitch": 67, "duration": 3, "velocity": 78}, {"time": 2763, "pitch": 47, "duration": 1, "velocity": 81}, {"time": 2766, "pitch": 59, "duration": 3, "velocity": 84}, {"time": 2772, "pitch": 47, "duration": 10, "velocity": 77}, {"time": 2772, "pitch": 59, "duration": 1, "velocity": 76}, {"time": 2772, "pitch": 62, "duration": 2, "velocity": 75}, {"time": 2775, "pitch": 59, "duration": 1, "velocity": 76}, {"time": 2778, "pitch": 62, "duration": 1, "velocity": 67}, {"time": 2781, "pitch": 59, "duration": 1, "velocity": 71}, {"time": 2784, "pitch": 47, "duration": 1, "velocity": 73}, {"time": 2784, "pitch": 54, "duration": 7, "velocity": 78}, {"time": 2784, "pitch": 59, "duration": 1, "velocity": 79}, {"time": 2784, "pitch": 62, "duration": 3, "velocity": 80}, {"time": 2784, "pitch": 66, "duration": 4, "velocity": 78}, {"time": 2787, "pitch": 59, "duration": 1, "velocity": 75}, {"time": 2790, "pitch": 62, "duration": 1, "velocity": 75}, {"time": 2793, "pitch": 59, "duration": 1, "velocity": 68}, {"time": 2796, "pitch": 47, "duration": 15, "velocity": 75}, {"time": 2796, "pitch": 59, "duration": 2, "velocity": 73}, {"time": 2796, "pitch": 62, "duration": 2, "velocity": 72}, {"time": 2799, "pitch": 54, "duration": 9, "velocity": 67}, {"time": 2802, "pitch": 59, "duration": 1, "velocity": 69}, {"time": 2805, "pitch": 59, "duration": 1, "velocity": 61}, {"time": 2805, "pitch": 62, "duration": 1, "velocity": 77}, {"time": 2808, "pitch": 59, "duration": 3, "velocity": 80}, {"time": 2808, "pitch": 62, "duration": 3, "velocity": 89}, {"time": 2808, "pitch": 66, "duration": 6, "velocity": 82}, {"time": 2811, "pitch": 54, "duration": 2, "velocity": 76}, {"time": 2814, "pitch": 59, "duration": 3, "velocity": 84}, {"time": 2817, "pitch": 62, "duration": 2, "velocity": 76}, {"time": 2820, "pitch": 48, "duration": 15, "velocity": 79}, {"time": 2820, "pitch": 60, "duration": 3, "velocity": 75}, {"time": 2820, "pitch": 64, "duration": 3, "velocity": 81}, {"time": 2823, "pitch": 55, "duration": 9, "velocity": 76}, {"time": 2826, "pitch": 60, "duration": 4, "velocity": 76}, {"time": 2829, "pitch": 64, "duration": 1, "velocity": 68}, {"time": 2832, "pitch": 60, "duration": 2, "velocity": 77}, {"time": 2832, "pitch": 64, "duration": 2, "velocity": 89}, {"time": 2832, "pitch": 67, "duration": 3, "velocity": 77}, {"time": 2835, "pitch": 55, "duration": 1, "velocity": 78}, {"time": 2838, "pitch": 48, "duration": 1, "velocity": 82}, {"time": 2841, "pitch": 62, "duration": 2, "velocity": 77}, {"time": 2844, "pitch": 38, "duration": 1, "velocity": 77}, {"time": 2844, "pitch": 62, "duration": 2, "velocity": 74}, {"time": 2844, "pitch": 66, "duration": 4, "velocity": 76}, {"time": 2844, "pitch": 69, "duration": 4, "velocity": 75}, {"time": 2847, "pitch": 62, "duration": 1, "velocity": 68}, {"time": 2850, "pitch": 66, "duration": 4, "velocity": 56}, {"time": 2853, "pitch": 62, "duration": 1, "velocity": 73}, {"time": 2856, "pitch": 50, "duration": 2, "velocity": 78}, {"time": 2856, "pitch": 57, "duration": 3, "velocity": 76}, {"time": 2856, "pitch": 62, "duration": 1, "velocity": 79}, {"time": 2856, "pitch": 66, "duration": 3, "velocity": 79}, {"time": 2856, "pitch": 74, "duration": 3, "velocity": 76}, {"time": 2859, "pitch": 50, "duration": 1, "velocity": 55}, {"time": 2862, "pitch": 66, "duration": 2, "velocity": 76}, {"time": 2865, "pitch": 62, "duration": 1, "velocity": 77}, {"time": 2868, "pitch": 43, "duration": 16, "velocity": 76}, {"time": 2868, "pitch": 62, "duration": 2, "velocity": 76}, {"time": 2868, "pitch": 67, "duration": 3, "velocity": 75}, {"time": 2871, "pitch": 50, "duration": 10, "velocity": 70}, {"time": 2874, "pitch": 62, "duration": 2, "velocity": 78}, {"time": 2877, "pitch": 67, "duration": 1, "velocity": 77}, {"time": 2880, "pitch": 62, "duration": 1, "velocity": 80}, {"time": 2880, "pitch": 67, "duration": 2, "velocity": 86}, {"time": 2880, "pitch": 71, "duration": 4, "velocity": 86}, {"time": 2883, "pitch": 50, "duration": 1, "velocity": 77}, {"time": 2886, "pitch": 62, "duration": 3, "velocity": 77}, {"time": 2889, "pitch": 67, "duration": 1, "velocity": 70}, {"time": 2892, "pitch": 40, "duration": 16, "velocity": 77}, {"time": 2892, "pitch": 64, "duration": 2, "velocity": 76}, {"time": 2892, "pitch": 67, "duration": 3, "velocity": 76}, {"time": 2895, "pitch": 47, "duration": 9, "velocity": 76}, {"time": 2898, "pitch": 64, "duration": 1, "velocity": 61}, {"time": 2901, "pitch": 64, "duration": 1, "velocity": 76}, {"time": 2901, "pitch": 67, "duration": 1, "velocity": 79}, {"time": 2901, "pitch": 71, "duration": 1, "velocity": 79}, {"time": 2904, "pitch": 64, "duration": 3, "velocity": 82}, {"time": 2904, "pitch": 67, "duration": 3, "velocity": 92}, {"time": 2904, "pitch": 71, "duration": 4, "velocity": 92}, {"time": 2907, "pitch": 47, "duration": 2, "velocity": 79}, {"time": 2910, "pitch": 64, "duration": 1, "velocity": 80}, {"time": 2910, "pitch": 69, "duration": 2, "velocity": 80}, {"time": 2913, "pitch": 67, "duration": 1, "velocity": 68}, {"time": 2916, "pitch": 45, "duration": 22, "velocity": 76}, {"time": 2916, "pitch": 64, "duration": 1, "velocity": 73}, {"time": 2916, "pitch": 69, "duration": 1, "velocity": 69}, {"time": 2919, "pitch": 52, "duration": 9, "velocity": 63}, {"time": 2922, "pitch": 57, "duration": 1, "velocity": 67}, {"time": 2925, "pitch": 60, "duration": 1, "velocity": 75}, {"time": 2928, "pitch": 57, "duration": 2, "velocity": 74}, {"time": 2928, "pitch": 60, "duration": 2, "velocity": 80}, {"time": 2928, "pitch": 64, "duration": 3, "velocity": 82}, {"time": 2931, "pitch": 52, "duration": 7, "velocity": 76}, {"time": 2934, "pitch": 57, "duration": 3, "velocity": 77}, {"time": 2937, "pitch": 60, "duration": 2, "velocity": 75}, {"time": 2940, "pitch": 50, "duration": 13, "velocity": 80}, {"time": 2940, "pitch": 57, "duration": 1, "velocity": 77}, {"time": 2940, "pitch": 62, "duration": 2, "velocity": 80}, {"time": 2943, "pitch": 57, "duration": 1, "velocity": 73}, {"time": 2946, "pitch": 62, "duration": 1, "velocity": 66}, {"time": 2949, "pitch": 57, "duration": 1, "velocity": 75}, {"time": 2952, "pitch": 57, "duration": 3, "velocity": 78}, {"time": 2952, "pitch": 62, "duration": 3, "velocity": 91}, {"time": 2952, "pitch": 66, "duration": 3, "velocity": 86}, {"time": 2955, "pitch": 50, "duration": 1, "velocity": 77}, {"time": 2958, "pitch": 57, "duration": 2, "velocity": 78}, {"time": 2964, "pitch": 43, "duration": 10, "velocity": 77}, {"time": 2964, "pitch": 55, "duration": 2, "velocity": 75}, {"time": 2964, "pitch": 59, "duration": 2, "velocity": 75}, {"time": 2964, "pitch": 62, "duration": 2, "velocity": 75}, {"time": 2967, "pitch": 50, "duration": 6, "velocity": 68}, {"time": 2970, "pitch": 55, "duration": 1, "velocity": 71}, {"time": 2973, "pitch": 55, "duration": 3, "velocity": 81}, {"time": 2973, "pitch": 59, "duration": 4, "velocity": 82}, {"time": 2973, "pitch": 67, "duration": 4, "velocity": 76}, {"time": 2976, "pitch": 50, "duration": 4, "velocity": 91}, {"time": 2979, "pitch": 55, "duration": 1, "velocity": 81}, {"time": 2979, "pitch": 59, "duration": 1, "velocity": 82}, {"time": 2979, "pitch": 67, "duration": 2, "velocity": 76}, {"time": 2982, "pitch": 45, "duration": 1, "velocity": 76}, {"time": 2982, "pitch": 57, "duration": 1, "velocity": 77}, {"time": 2982, "pitch": 69, "duration": 1, "velocity": 77}, {"time": 2985, "pitch": 46, "duration": 1, "velocity": 86}, {"time": 2985, "pitch": 58, "duration": 1, "velocity": 64}, {"time": 2985, "pitch": 70, "duration": 1, "velocity": 72}, {"time": 2988, "pitch": 47, "duration": 7, "velocity": 82}, {"time": 2988, "pitch": 59, "duration": 2, "velocity": 84}, {"time": 2988, "pitch": 71, "duration": 4, "velocity": 84}, {"time": 2991, "pitch": 59, "duration": 1, "velocity": 80}, {"time": 2994, "pitch": 59, "duration": 1, "velocity": 79}, {"time": 2994, "pitch": 63, "duration": 1, "velocity": 81}, {"time": 2994, "pitch": 66, "duration": 1, "velocity": 64}, {"time": 2997, "pitch": 59, "duration": 4, "velocity": 89}, {"time": 2997, "pitch": 63, "duration": 3, "velocity": 101}, {"time": 2997, "pitch": 66, "duration": 3, "velocity": 84}, {"time": 3000, "pitch": 54, "duration": 5, "velocity": 91}, {"time": 3003, "pitch": 59, "duration": 3, "velocity": 81}, {"time": 3003, "pitch": 63, "duration": 8, "velocity": 92}, {"time": 3003, "pitch": 66, "duration": 8, "velocity": 79}, {"time": 3003, "pitch": 71, "duration": 8, "velocity": 78}, {"time": 3006, "pitch": 51, "duration": 2, "velocity": 64}, {"time": 3009, "pitch": 59, "duration": 2, "velocity": 79}, {"time": 3012, "pitch": 40, "duration": 3, "velocity": 81}, {"time": 3012, "pitch": 59, "duration": 1, "velocity": 78}, {"time": 3012, "pitch": 64, "duration": 3, "velocity": 79}, {"time": 3015, "pitch": 59, "duration": 1, "velocity": 74}, {"time": 3018, "pitch": 64, "duration": 1, "velocity": 73}, {"time": 3021, "pitch": 59, "duration": 1, "velocity": 77}, {"time": 3024, "pitch": 52, "duration": 2, "velocity": 76}, {"time": 3024, "pitch": 59, "duration": 1, "velocity": 77}, {"time": 3024, "pitch": 64, "duration": 2, "velocity": 84}, {"time": 3024, "pitch": 67, "duration": 3, "velocity": 76}, {"time": 3027, "pitch": 59, "duration": 1, "velocity": 75}, {"time": 3030, "pitch": 64, "duration": 1, "velocity": 77}, {"time": 3033, "pitch": 59, "duration": 1, "velocity": 80}, {"time": 3036, "pitch": 40, "duration": 15, "velocity": 80}, {"time": 3036, "pitch": 59, "duration": 2, "velocity": 77}, {"time": 3036, "pitch": 64, "duration": 3, "velocity": 79}, {"time": 3039, "pitch": 47, "duration": 10, "velocity": 70}, {"time": 3042, "pitch": 59, "duration": 3, "velocity": 76}, {"time": 3045, "pitch": 64, "duration": 1, "velocity": 68}, {"time": 3048, "pitch": 59, "duration": 2, "velocity": 81}, {"time": 3048, "pitch": 64, "duration": 3, "velocity": 96}, {"time": 3048, "pitch": 67, "duration": 3, "velocity": 78}, {"time": 3051, "pitch": 47, "duration": 1, "velocity": 81}, {"time": 3054, "pitch": 59, "duration": 3, "velocity": 84}, {"time": 3060, "pitch": 47, "duration": 10, "velocity": 77}, {"time": 3060, "pitch": 59, "duration": 1, "velocity": 76}, {"time": 3060, "pitch": 62, "duration": 2, "velocity": 75}, {"time": 3063, "pitch": 59, "duration": 1, "velocity": 76}, {"time": 3066, "pitch": 62, "duration": 1, "velocity": 67}, {"time": 3069, "pitch": 59, "duration": 1, "velocity": 71}, {"time": 3072, "pitch": 47, "duration": 1, "velocity": 73}, {"time": 3072, "pitch": 54, "duration": 7, "velocity": 78}, {"time": 3072, "pitch": 59, "duration": 1, "velocity": 79}, {"time": 3072, "pitch": 62, "duration": 3, "velocity": 80}, {"time": 3072, "pitch": 66, "duration": 4, "velocity": 78}, {"time": 3075, "pitch": 59, "duration": 1, "velocity": 75}, {"time": 3078, "pitch": 62, "duration": 1, "velocity": 75}, {"time": 3081, "pitch": 59, "duration": 1, "velocity": 68}, {"time": 3084, "pitch": 47, "duration": 15, "velocity": 75}, {"time": 3084, "pitch": 59, "duration": 2, "velocity": 73}, {"time": 3084, "pitch": 62, "duration": 2, "velocity": 72}, {"time": 3087, "pitch": 54, "duration": 9, "velocity": 67}, {"time": 3090, "pitch": 59, "duration": 1, "velocity": 69}, {"time": 3093, "pitch": 59, "duration": 1, "velocity": 61}, {"time": 3093, "pitch": 62, "duration": 1, "velocity": 77}, {"time": 3096, "pitch": 59, "duration": 3, "velocity": 80}, {"time": 3096, "pitch": 62, "duration": 3, "velocity": 89}, {"time": 3096, "pitch": 66, "duration": 6, "velocity": 82}, {"time": 3099, "pitch": 54, "duration": 2, "velocity": 76}, {"time": 3102, "pitch": 59, "duration": 3, "velocity": 84}, {"time": 3105, "pitch": 62, "duration": 2, "velocity": 76}, {"time": 3108, "pitch": 48, "duration": 15, "velocity": 79}, {"time": 3108, "pitch": 60, "duration": 3, "velocity": 75}, {"time": 3108, "pitch": 64, "duration": 3, "velocity": 81}, {"time": 3111, "pitch": 55, "duration": 9, "velocity": 76}, {"time": 3114, "pitch": 60, "duration": 4, "velocity": 76}, {"time": 3117, "pitch": 64, "duration": 1, "velocity": 68}, {"time": 3120, "pitch": 60, "duration": 2, "velocity": 77}, {"time": 3120, "pitch": 64, "duration": 2, "velocity": 89}, {"time": 3120, "pitch": 67, "duration": 3, "velocity": 77}, {"time": 3123, "pitch": 55, "duration": 1, "velocity": 78}, {"time": 3126, "pitch": 48, "duration": 1, "velocity": 82}, {"time": 3129, "pitch": 62, "duration": 2, "velocity": 77}, {"time": 3132, "pitch": 38, "duration": 1, "velocity": 77}, {"time": 3132, "pitch": 62, "duration": 2, "velocity": 74}, {"time": 3132, "pitch": 66, "duration": 4, "velocity": 76}, {"time": 3132, "pitch": 69, "duration": 4, "velocity": 75}, {"time": 3135, "pitch": 62, "duration": 1, "velocity": 68}, {"time": 3138, "pitch": 66, "duration": 4, "velocity": 56}, {"time": 3141, "pitch": 62, "duration": 1, "velocity": 73}, {"time": 3144, "pitch": 50, "duration": 2, "velocity": 78}, {"time": 3144, "pitch": 57, "duration": 3, "velocity": 76}, {"time": 3144, "pitch": 62, "duration": 1, "velocity": 79}, {"time": 3144, "pitch": 66, "duration": 3, "velocity": 79}, {"time": 3144, "pitch": 74, "duration": 3, "velocity": 76}, {"time": 3147, "pitch": 50, "duration": 1, "velocity": 55}, {"time": 3150, "pitch": 66, "duration": 2, "velocity": 76}, {"time": 3153, "pitch": 62, "duration": 1, "velocity": 77}, {"time": 3156, "pitch": 43, "duration": 16, "velocity": 76}, {"time": 3156, "pitch": 62, "duration": 2, "velocity": 76}, {"time": 3156, "pitch": 67, "duration": 3, "velocity": 75}, {"time": 3159, "pitch": 50, "duration": 10, "velocity": 70}, {"time": 3162, "pitch": 62, "duration": 2, "velocity": 78}, {"time": 3165, "pitch": 67, "duration": 1, "velocity": 77}, {"time": 3168, "pitch": 62, "duration": 1, "velocity": 80}, {"time": 3168, "pitch": 67, "duration": 2, "velocity": 86}, {"time": 3168, "pitch": 71, "duration": 4, "velocity": 86}, {"time": 3171, "pitch": 50, "duration": 1, "velocity": 77}, {"time": 3174, "pitch": 62, "duration": 3, "velocity": 77}, {"time": 3177, "pitch": 67, "duration": 1, "velocity": 70}, {"time": 3180, "pitch": 40, "duration": 16, "velocity": 77}, {"time": 3180, "pitch": 64, "duration": 2, "velocity": 76}, {"time": 3180, "pitch": 67, "duration": 3, "velocity": 76}, {"time": 3183, "pitch": 47, "duration": 9, "velocity": 76}, {"time": 3186, "pitch": 64, "duration": 1, "velocity": 61}, {"time": 3189, "pitch": 64, "duration": 1, "velocity": 76}, {"time": 3189, "pitch": 67, "duration": 1, "velocity": 79}, {"time": 3189, "pitch": 71, "duration": 1, "velocity": 79}, {"time": 3192, "pitch": 64, "duration": 3, "velocity": 82}, {"time": 3192, "pitch": 67, "duration": 3, "velocity": 92}, {"time": 3192, "pitch": 71, "duration": 4, "velocity": 92}, {"time": 3195, "pitch": 47, "duration": 2, "velocity": 79}, {"time": 3198, "pitch": 64, "duration": 1, "velocity": 80}, {"time": 3198, "pitch": 69, "duration": 2, "velocity": 80}, {"time": 3201, "pitch": 67, "duration": 1, "velocity": 68}, {"time": 3204, "pitch": 45, "duration": 22, "velocity": 76}, {"time": 3204, "pitch": 64, "duration": 1, "velocity": 73}, {"time": 3204, "pitch": 69, "duration": 1, "velocity": 69}, {"time": 3207, "pitch": 52, "duration": 9, "velocity": 63}, {"time": 3210, "pitch": 57, "duration": 1, "velocity": 67}, {"time": 3213, "pitch": 60, "duration": 1, "velocity": 75}, {"time": 3216, "pitch": 57, "duration": 2, "velocity": 74}, {"time": 3216, "pitch": 60, "duration": 2, "velocity": 80}, {"time": 3216, "pitch": 64, "duration": 3, "velocity": 82}, {"time": 3219, "pitch": 52, "duration": 7, "velocity": 76}, {"time": 3222, "pitch": 57, "duration": 3, "velocity": 77}, {"time": 3225, "pitch": 60, "duration": 2, "velocity": 75}, {"time": 3228, "pitch": 50, "duration": 13, "velocity": 80}, {"time": 3228, "pitch": 57, "duration": 1, "velocity": 77}, {"time": 3228, "pitch": 62, "duration": 2, "velocity": 80}, {"time": 3231, "pitch": 57, "duration": 1, "velocity": 73}, {"time": 3234, "pitch": 62, "duration": 1, "velocity": 66}, {"time": 3237, "pitch": 57, "duration": 1, "velocity": 75}, {"time": 3240, "pitch": 57, "duration": 3, "velocity": 78}, {"time": 3240, "pitch": 62, "duration": 3, "velocity": 91}, {"time": 3240, "pitch": 66, "duration": 3, "velocity": 86}, {"time": 3243, "pitch": 50, "duration": 1, "velocity": 77}, {"time": 3246, "pitch": 57, "duration": 2, "velocity": 78}, {"time": 3250, "pitch": 52, "duration": 3, "velocity": 67}, {"time": 3251, "pitch": 55, "duration": 7, "velocity": 69}, {"time": 3252, "pitch": 40, "duration": 24, "velocity": 78}, {"time": 3252, "pitch": 59, "duration": 7, "velocity": 70}, {"time": 3252, "pitch": 64, "duration": 7, "velocity": 76}, {"time": 3258, "pitch": 47, "duration": 16, "velocity": 53}, {"time": 3261, "pitch": 52, "duration": 2, "velocity": 61}, {"time": 3264, "pitch": 59, "duration": 6, "velocity": 72}, {"time": 3267, "pitch": 52, "duration": 3, "velocity": 71}, {"time": 3270, "pitch": 55, "duration": 2, "velocity": 65}, {"time": 3274, "pitch": 59, "duration": 2, "velocity": 58}, {"time": 3278, "pitch": 64, "duration": 4, "velocity": 63}, {"time": 3278, "pitch": 40, "duration": 12, "velocity": 65}, {"time": 3278, "pitch": 52, "duration": 3, "velocity": 64}, {"time": 3282, "pitch": 47, "duration": 7, "velocity": 59}, {"time": 3287, "pitch": 52, "duration": 7, "velocity": 60}, {"time": 3293, "pitch": 55, "duration": 3, "velocity": 44}, {"time": 3303, "pitch": 45, "duration": 22, "velocity": 79}, {"time": 3306, "pitch": 52, "duration": 19, "velocity": 72}, {"time": 3307, "pitch": 57, "duration": 4, "velocity": 65}, {"time": 3309, "pitch": 60, "duration": 3, "velocity": 66}, {"time": 3310, "pitch": 64, "duration": 2, "velocity": 64}, {"time": 3311, "pitch": 69, "duration": 2, "velocity": 73}, {"time": 3317, "pitch": 64, "duration": 5, "velocity": 58}, {"time": 3323, "pitch": 57, "duration": 2, "velocity": 58}, {"time": 3331, "pitch": 57, "duration": 3, "velocity": 61}, {"time": 3332, "pitch": 62, "duration": 10, "velocity": 69}, {"time": 3332, "pitch": 38, "duration": 11, "velocity": 79}, {"time": 3333, "pitch": 66, "duration": 12, "velocity": 66}, {"time": 3374, "pitch": 40, "duration": 33, "velocity": 77}, {"time": 3379, "pitch": 47, "duration": 27, "velocity": 62}, {"time": 3382, "pitch": 52, "duration": 2, "velocity": 69}, {"time": 3385, "pitch": 54, "duration": 1, "velocity": 56}, {"time": 3387, "pitch": 55, "duration": 3, "velocity": 67}, {"time": 3389, "pitch": 59, "duration": 3, "velocity": 69}, {"time": 3391, "pitch": 64, "duration": 4, "velocity": 79}, {"time": 3393, "pitch": 55, "duration": 2, "velocity": 71}, {"time": 3395, "pitch": 59, "duration": 2, "velocity": 71}, {"time": 3397, "pitch": 55, "duration": 3, "velocity": 67}, {"time": 3400, "pitch": 64, "duration": 3, "velocity": 77}, {"time": 3402, "pitch": 55, "duration": 2, "velocity": 65}, {"time": 3404, "pitch": 59, "duration": 4, "velocity": 63}, {"time": 3407, "pitch": 55, "duration": 1, "velocity": 55}, {"time": 3409, "pitch": 64, "duration": 4, "velocity": 67}, {"time": 3419, "pitch": 48, "duration": 11, "velocity": 76}, {"time": 3422, "pitch": 55, "duration": 10, "velocity": 73}, {"time": 3423, "pitch": 60, "duration": 7, "velocity": 48}, {"time": 3423, "pitch": 64, "duration": 7, "velocity": 67}, {"time": 3425, "pitch": 67, "duration": 6, "velocity": 61}, {"time": 3425, "pitch": 72, "duration": 8, "velocity": 70}, {"time": 3436, "pitch": 50, "duration": 11, "velocity": 72}, {"time": 3438, "pitch": 57, "duration": 8, "velocity": 64}, {"time": 3438, "pitch": 62, "duration": 10, "velocity": 61}, {"time": 3439, "pitch": 66, "duration": 9, "velocity": 64}, {"time": 3440, "pitch": 69, "duration": 9, "velocity": 60}, {"time": 3441, "pitch": 74, "duration": 8, "velocity": 69}, {"time": 3454, "pitch": 64, "duration": 11, "velocity": 64}, {"time": 3455, "pitch": 40, "duration": 3, "velocity": 77}, {"time": 3456, "pitch": 68, "duration": 9, "velocity": 63}, {"time": 3456, "pitch": 76, "duration": 11, "velocity": 71}, {"time": 3462, "pitch": 52, "duration": 5, "velocity": 76}, {"time": 3465, "pitch": 59, "duration": 2, "velocity": 71}, {"time": 3467, "pitch": 64, "duration": 2, "velocity": 75}, {"time": 3470, "pitch": 76, "duration": 2, "velocity": 78}, {"time": 3472, "pitch": 64, "duration": 1, "velocity": 79}, {"time": 3474, "pitch": 64, "duration": 27, "velocity": 84}, {"time": 3476, "pitch": 71, "duration": 26, "velocity": 70}, {"time": 3479, "pitch": 76, "duration": 2, "velocity": 74}, {"time": 3481, "pitch": 83, "duration": 2, "velocity": 71}, {"time": 3483, "pitch": 76, "duration": 3, "velocity": 77}, {"time": 3485, "pitch": 88, "duration": 3, "velocity": 75}, {"time": 3488, "pitch": 76, "duration": 4, "velocity": 73}, {"time": 3491, "pitch": 83, "duration": 9, "velocity": 63}, {"time": 3495, "pitch": 76, "duration": 4, "velocity": 64}, {"time": 3499, "pitch": 88, "duration": 2, "velocity": 23}, {"time": 3505, "pitch": 64, "duration": 13, "velocity": 56}, {"time": 3508, "pitch": 71, "duration": 11, "velocity": 57}, {"time": 3509, "pitch": 76, "duration": 12, "velocity": 61}, {"time": 3512, "pitch": 88, "duration": 8, "velocity": 29}], "annotations": [{"time": 12, "annotation": {"number": 64, "value": 127}, "group": "control_change"}, {"time": 60, "annotation": {"number": 64, "value": 0}, "group": "control_change"}, {"time": 65, "annotation": {"number": 64, "value": 127}, "group": "control_change"}, {"time": 106, "annotation": {"number": 64, "value": 0}, "group": "control_change"}, {"time": 109, "annotation": {"number": 64, "value": 127}, "group": "control_change"}, {"time": 131, "annotation": {"number": 64, "value": 0}, "group": "control_change"}, {"time": 133, "annotation": {"number": 64, "value": 127}, "group": "control_change"}, {"time": 154, "annotation": {"number": 64, "value": 0}, "group": "control_change"}, {"time": 156, "annotation": {"number": 64, "value": 127}, "group": "control_change"}, {"time": 201, "annotation": {"number": 64, "value": 0}, "group": "control_change"}, {"time": 203, "annotation": {"number": 64, "value": 127}, "group": "control_change"}, {"time": 251, "annotation": {"number": 64, "value": 127}, "group": "control_change"}, {"time": 262, "annotation": {"number": 64, "value": 0}, "group": "control_change"}, {"time": 264, "annotation": {"number": 64, "value": 127}, "group": "control_change"}, {"time": 286, "annotation": {"number": 64, "value": 0}, "group": "control_change"}, {"time": 288, "annotation": {"number": 64, "value": 127}, "group": "control_change"}, {"time": 298, "annotation": {"number": 64, "value": 0}, "group": "control_change"}, {"time": 299, "annotation": {"number": 64, "value": 127}, "group": "control_change"}, {"time": 322, "annotation": {"number": 64, "value": 0}, "group": "control_change"}, {"time": 324, "annotation": {"number": 64, "value": 127}, "group": "control_change"}, {"time": 346, "annotation": {"number": 64, "value": 0}, "group": "control_change"}, {"time": 348, "annotation": {"number": 64, "value": 127}, "group": "control_change"}, {"time": 371, "annotation": {"number": 64, "value": 0}, "group": "control_change"}, {"time": 372, "annotation": {"number": 64, "value": 127}, "group": "control_change"}, {"time": 419, "annotation": {"number": 64, "value": 0}, "group": "control_change"}, {"time": 420, "annotation": {"number": 64, "value": 127}, "group": "control_change"}, {"time": 466, "annotation": {"number": 64, "value": 0}, "group": "control_change"}, {"time": 468, "annotation": {"number": 64, "value": 127}, "group": "control_change"}, {"time": 514, "annotation": {"number": 64, "value": 0}, "group": "control_change"}, {"time": 516, "annotation": {"number": 64, "value": 127}, "group": "control_change"}, {"time": 539, "annotation": {"number": 64, "value": 0}, "group": "control_change"}, {"time": 541, "annotation": {"number": 64, "value": 127}, "group": "control_change"}, {"time": 563, "annotation": {"number": 64, "value": 0}, "group": "control_change"}, {"time": 564, "annotation": {"number": 64, "value": 127}, "group": "control_change"}, {"time": 585, "annotation": {"number": 64, "value": 0}, "group": "control_change"}, {"time": 587, "annotation": {"number": 64, "value": 127}, "group": "control_change"}, {"time": 610, "annotation": {"number": 64, "value": 0}, "group": "control_change"}, {"time": 613, "annotation": {"number": 64, "value": 127}, "group": "control_change"}, {"time": 614, "annotation": {"number": 64, "value": 0}, "group": "control_change"}, {"time": 614, "annotation": {"number": 64, "value": 127}, "group": "control_change"}, {"time": 633, "annotation": {"number": 64, "value": 0}, "group": "control_change"}, {"time": 636, "annotation": {"number": 64, "value": 127}, "group": "control_change"}, {"time": 657, "annotation": {"number": 64, "value": 0}, "group": "control_change"}, {"time": 659, "annotation": {"number": 64, "value": 127}, "group": "control_change"}, {"time": 681, "annotation": {"number": 64, "value": 0}, "group": "control_change"}, {"time": 683, "annotation": {"number": 64, "value": 127}, "group": "control_change"}, {"time": 706, "annotation": {"number": 64, "value": 0}, "group": "control_change"}, {"time": 709, "annotation": {"number": 64, "value": 127}, "group": "control_change"}, {"time": 730, "annotation": {"number": 64, "value": 0}, "group": "control_change"}, {"time": 732, "annotation": {"number": 64, "value": 127}, "group": "control_change"}, {"time": 753, "annotation": {"number": 64, "value": 0}, "group": "control_change"}, {"time": 755, "annotation": {"number": 64, "value": 127}, "group": "control_change"}, {"time": 800, "annotation": {"number": 64, "value": 0}, "group": "control_change"}, {"time": 826, "annotation": {"number": 64, "value": 0}, "group": "control_change"}, {"time": 828, "annotation": {"number": 64, "value": 127}, "group": "control_change"}, {"time": 851, "annotation": {"number": 64, "value": 0}, "group": "control_change"}, {"time": 852, "annotation": {"number": 64, "value": 127}, "group": "control_change"}, {"time": 874, "annotation": {"number": 64, "value": 0}, "group": "control_change"}, {"time": 876, "annotation": {"number": 64, "value": 127}, "group": "control_change"}, {"time": 898, "annotation": {"number": 64, "value": 0}, "group": "control_change"}, {"time": 900, "annotation": {"number": 64, "value": 127}, "group": "control_change"}, {"time": 922, "annotation": {"number": 64, "value": 0}, "group": "control_change"}, {"time": 924, "annotation": {"number": 64, "value": 127}, "group": "control_change"}, {"time": 947, "annotation": {"number": 64, "value": 0}, "group": "control_change"}, {"time": 950, "annotation": {"number": 64, "value": 127}, "group": "control_change"}, {"time": 970, "annotation": {"number": 64, "value": 0}, "group": "control_change"}, {"time": 972, "annotation": {"number": 64, "value": 127}, "group": "control_change"}, {"time": 995, "annotation": {"number": 64, "value": 0}, "group": "control_change"}, {"time": 995, "annotation": {"number": 64, "value": 127}, "group": "control_change"}, {"time": 1019, "annotation": {"number": 64, "value": 0}, "group": "control_change"}, {"time": 1020, "annotation": {"number": 64, "value": 127}, "group": "control_change"}, {"time": 1043, "annotation": {"number": 64, "value": 0}, "group": "control_change"}, {"time": 1045, "annotation": {"number": 64, "value": 127}, "group": "control_change"}, {"time": 1067, "annotation": {"number": 64, "value": 0}, "group": "control_change"}, {"time": 1068, "annotation": {"number": 64, "value": 127}, "group": "control_change"}, {"time": 1089, "annotation": {"number": 64, "value": 0}, "group": "control_change"}, {"time": 1091, "annotation": {"number": 64, "value": 127}, "group": "control_change"}, {"time": 1115, "annotation": {"number": 64, "value": 0}, "group": "control_change"}, {"time": 1116, "annotation": {"number": 64, "value": 127}, "group": "control_change"}, {"time": 1139, "annotation": {"number": 64, "value": 0}, "group": "control_change"}, {"time": 1141, "annotation": {"number": 64, "value": 127}, "group": "control_change"}, {"time": 1162, "annotation": {"number": 64, "value": 0}, "group": "control_change"}, {"time": 1164, "annotation": {"number": 64, "value": 127}, "group": "control_change"}, {"time": 1186, "annotation": {"number": 64, "value": 0}, "group": "control_change"}, {"time": 1188, "annotation": {"number": 64, "value": 127}, "group": "control_change"}, {"time": 1192, "annotation": {"number": 64, "value": 0}, "group": "control_change"}, {"time": 1200, "annotation": {"number": 64, "value": 127}, "group": "control_change"}, {"time": 1210, "annotation": {"number": 64, "value": 0}, "group": "control_change"}, {"time": 1212, "annotation": {"number": 64, "value": 127}, "group": "control_change"}, {"time": 1234, "annotation": {"number": 64, "value": 0}, "group": "control_change"}, {"time": 1236, "annotation": {"number": 64, "value": 127}, "group": "control_change"}, {"time": 1259, "annotation": {"number": 64, "value": 0}, "group": "control_change"}, {"time": 1260, "annotation": {"number": 64, "value": 127}, "group": "control_change"}, {"time": 1280, "annotation": {"number": 64, "value": 0}, "group": "control_change"}, {"time": 1284, "annotation": {"number": 64, "value": 127}, "group": "control_change"}, {"time": 1306, "annotation": {"number": 64, "value": 0}, "group": "control_change"}, {"time": 1308, "annotation": {"number": 64, "value": 127}, "group": "control_change"}, {"time": 1330, "annotation": {"number": 64, "value": 0}, "group": "control_change"}, {"time": 1331, "annotation": {"number": 64, "value": 127}, "group": "control_change"}, {"time": 1354, "annotation": {"number": 64, "value": 0}, "group": "control_change"}, {"time": 1355, "annotation": {"number": 64, "value": 127}, "group": "control_change"}, {"time": 1378, "annotation": {"number": 64, "value": 0}, "group": "control_change"}, {"time": 1380, "annotation": {"number": 64, "value": 127}, "group": "control_change"}, {"time": 1402, "annotation": {"number": 64, "value": 0}, "group": "control_change"}, {"time": 1403, "annotation": {"number": 64, "value": 127}, "group": "control_change"}, {"time": 1426, "annotation": {"number": 64, "value": 0}, "group": "control_change"}, {"time": 1428, "annotation": {"number": 64, "value": 127}, "group": "control_change"}, {"time": 1450, "annotation": {"number": 64, "value": 0}, "group": "control_change"}, {"time": 1452, "annotation": {"number": 64, "value": 127}, "group": "control_change"}, {"time": 1473, "annotation": {"number": 64, "value": 0}, "group": "control_change"}, {"time": 1475, "annotation": {"number": 64, "value": 127}, "group": "control_change"}, {"time": 1498, "annotation": {"number": 64, "value": 0}, "group": "control_change"}, {"time": 1500, "annotation": {"number": 64, "value": 127}, "group": "control_change"}, {"time": 1522, "annotation": {"number": 64, "value": 0}, "group": "control_change"}, {"time": 1524, "annotation": {"number": 64, "value": 127}, "group": "control_change"}, {"time": 1546, "annotation": {"number": 64, "value": 0}, "group": "control_change"}, {"time": 1547, "annotation": {"number": 64, "value": 127}, "group": "control_change"}, {"time": 1568, "annotation": {"number": 64, "value": 0}, "group": "control_change"}, {"time": 1572, "annotation": {"number": 64, "value": 127}, "group": "control_change"}, {"time": 1594, "annotation": {"number": 64, "value": 0}, "group": "control_change"}, {"time": 1596, "annotation": {"number": 64, "value": 127}, "group": "control_change"}, {"time": 1618, "annotation": {"number": 64, "value": 0}, "group": "control_change"}, {"time": 1619, "annotation": {"number": 64, "value": 127}, "group": "control_change"}, {"time": 1642, "annotation": {"number": 64, "value": 0}, "group": "control_change"}, {"time": 1643, "annotation": {"number": 64, "value": 127}, "group": "control_change"}, {"time": 1666, "annotation": {"number": 64, "value": 0}, "group": "control_change"}, {"time": 1668, "annotation": {"number": 64, "value": 127}, "group": "control_change"}, {"time": 1690, "annotation": {"number": 64, "value": 0}, "group": "control_change"}, {"time": 1691, "annotation": {"number": 64, "value": 127}, "group": "control_change"}, {"time": 1714, "annotation": {"number": 64, "value": 0}, "group": "control_change"}, {"time": 1716, "annotation": {"number": 64, "value": 127}, "group": "control_change"}, {"time": 1738, "annotation": {"number": 64, "value": 0}, "group": "control_change"}, {"time": 1740, "annotation": {"number": 64, "value": 127}, "group": "control_change"}, {"time": 1761, "annotation": {"number": 64, "value": 0}, "group": "control_change"}, {"time": 1763, "annotation": {"number": 64, "value": 127}, "group": "control_change"}, {"time": 1786, "annotation": {"number": 64, "value": 0}, "group": "control_change"}, {"time": 1788, "annotation": {"number": 64, "value": 127}, "group": "control_change"}, {"time": 1810, "annotation": {"number": 64, "value": 0}, "group": "control_change"}, {"time": 1812, "annotation": {"number": 64, "value": 127}, "group": "control_change"}, {"time": 1858, "annotation": {"number": 64, "value": 0}, "group": "control_change"}, {"time": 1860, "annotation": {"number": 64, "value": 127}, "group": "control_change"}, {"time": 1883, "annotation": {"number": 64, "value": 0}, "group": "control_change"}, {"time": 1884, "annotation": {"number": 64, "value": 127}, "group": "control_change"}, {"time": 1906, "annotation": {"number": 64, "value": 0}, "group": "control_change"}, {"time": 1908, "annotation": {"number": 64, "value": 127}, "group": "control_change"}, {"time": 1930, "annotation": {"number": 64, "value": 0}, "group": "control_change"}, {"time": 1932, "annotation": {"number": 64, "value": 127}, "group": "control_change"}, {"time": 1954, "annotation": {"number": 64, "value": 0}, "group": "control_change"}, {"time": 1955, "annotation": {"number": 64, "value": 127}, "group": "control_change"}, {"time": 1978, "annotation": {"number": 64, "value": 0}, "group": "control_change"}, {"time": 1979, "annotation": {"number": 64, "value": 127}, "group": "control_change"}, {"time": 2002, "annotation": {"number": 64, "value": 0}, "group": "control_change"}, {"time": 2004, "annotation": {"number": 64, "value": 127}, "group": "control_change"}, {"time": 2027, "annotation": {"number": 64, "value": 127}, "group": "control_change"}, {"time": 2040, "annotation": {"number": 64, "value": 0}, "group": "control_change"}, {"time": 2052, "annotation": {"number": 64, "value": 127}, "group": "control_change"}, {"time": 2075, "annotation": {"number": 64, "value": 0}, "group": "control_change"}, {"time": 2076, "annotation": {"number": 64, "value": 127}, "group": "control_change"}, {"time": 2098, "annotation": {"number": 64, "value": 0}, "group": "control_change"}, {"time": 2100, "annotation": {"number": 64, "value": 127}, "group": "control_change"}, {"time": 2122, "annotation": {"number": 64, "value": 0}, "group": "control_change"}, {"time": 2124, "annotation": {"number": 64, "value": 127}, "group": "control_change"}, {"time": 2147, "annotation": {"number": 64, "value": 0}, "group": "control_change"}, {"time": 2150, "annotation": {"number": 64, "value": 127}, "group": "control_change"}, {"time": 2170, "annotation": {"number": 64, "value": 0}, "group": "control_change"}, {"time": 2172, "annotation": {"number": 64, "value": 127}, "group": "control_change"}, {"time": 2194, "annotation": {"number": 64, "value": 0}, "group": "control_change"}, {"time": 2196, "annotation": {"number": 64, "value": 127}, "group": "control_change"}, {"time": 2218, "annotation": {"number": 64, "value": 0}, "group": "control_change"}, {"time": 2220, "annotation": {"number": 64, "value": 127}, "group": "control_change"}, {"time": 2242, "annotation": {"number": 64, "value": 0}, "group": "control_change"}, {"time": 2266, "annotation": {"number": 64, "value": 0}, "group": "control_change"}, {"time": 2268, "annotation": {"number": 64, "value": 127}, "group": "control_change"}, {"time": 2291, "annotation": {"number": 64, "value": 0}, "group": "control_change"}, {"time": 2292, "annotation": {"number": 64, "value": 127}, "group": "control_change"}, {"time": 2314, "annotation": {"number": 64, "value": 0}, "group": "control_change"}, {"time": 2316, "annotation": {"number": 64, "value": 127}, "group": "control_change"}, {"time": 2338, "annotation": {"number": 64, "value": 0}, "group": "control_change"}, {"time": 2340, "annotation": {"number": 64, "value": 127}, "group": "control_change"}, {"time": 2362, "annotation": {"number": 64, "value": 0}, "group": "control_change"}, {"time": 2364, "annotation": {"number": 64, "value": 127}, "group": "control_change"}, {"time": 2387, "annotation": {"number": 64, "value": 0}, "group": "control_change"}, {"time": 2390, "annotation": {"number": 64, "value": 127}, "group": "control_change"}, {"time": 2410, "annotation": {"number": 64, "value": 0}, "group": "control_change"}, {"time": 2412, "annotation": {"number": 64, "value": 127}, "group": "control_change"}, {"time": 2435, "annotation": {"number": 64, "value": 0}, "group": "control_change"}, {"time": 2435, "annotation": {"number": 64, "value": 127}, "group": "control_change"}, {"time": 2459, "annotation": {"number": 64, "value": 0}, "group": "control_change"}, {"time": 2460, "annotation": {"number": 64, "value": 127}, "group": "control_change"}, {"time": 2483, "annotation": {"number": 64, "value": 0}, "group": "control_change"}, {"time": 2485, "annotation": {"number": 64, "value": 127}, "group": "control_change"}, {"time": 2507, "annotation": {"number": 64, "value": 0}, "group": "control_change"}, {"time": 2508, "annotation": {"number": 64, "value": 127}, "group": "control_change"}, {"time": 2529, "annotation": {"number": 64, "value": 0}, "group": "control_change"}, {"time": 2531, "annotation": {"number": 64, "value": 127}, "group": "control_change"}, {"time": 2555, "annotation": {"number": 64, "value": 0}, "group": "control_change"}, {"time": 2556, "annotation": {"number": 64, "value": 127}, "group": "control_change"}, {"time": 2579, "annotation": {"number": 64, "value": 0}, "group": "control_change"}, {"time": 2581, "annotation": {"number": 64, "value": 127}, "group": "control_change"}, {"time": 2602, "annotation": {"number": 64, "value": 0}, "group": "control_change"}, {"time": 2604, "annotation": {"number": 64, "value": 127}, "group": "control_change"}, {"time": 2626, "annotation": {"number": 64, "value": 0}, "group": "control_change"}, {"time": 2628, "annotation": {"number": 64, "value": 127}, "group": "control_change"}, {"time": 2632, "annotation": {"number": 64, "value": 0}, "group": "control_change"}, {"time": 2640, "annotation": {"number": 64, "value": 127}, "group": "control_change"}, {"time": 2650, "annotation": {"number": 64, "value": 0}, "group": "control_change"}, {"time": 2652, "annotation": {"number": 64, "value": 127}, "group": "control_change"}, {"time": 2674, "annotation": {"number": 64, "value": 0}, "group": "control_change"}, {"time": 2676, "annotation": {"number": 64, "value": 127}, "group": "control_change"}, {"time": 2699, "annotation": {"number": 64, "value": 0}, "group": "control_change"}, {"time": 2700, "annotation": {"number": 64, "value": 127}, "group": "control_change"}, {"time": 2720, "annotation": {"number": 64, "value": 0}, "group": "control_change"}, {"time": 2724, "annotation": {"number": 64, "value": 127}, "group": "control_change"}, {"time": 2746, "annotation": {"number": 64, "value": 0}, "group": "control_change"}, {"time": 2748, "annotation": {"number": 64, "value": 127}, "group": "control_change"}, {"time": 2770, "annotation": {"number": 64, "value": 0}, "group": "control_change"}, {"time": 2771, "annotation": {"number": 64, "value": 127}, "group": "control_change"}, {"time": 2794, "annotation": {"number": 64, "value": 0}, "group": "control_change"}, {"time": 2795, "annotation": {"number": 64, "value": 127}, "group": "control_change"}, {"time": 2818, "annotation": {"number": 64, "value": 0}, "group": "control_change"}, {"time": 2820, "annotation": {"number": 64, "value": 127}, "group": "control_change"}, {"time": 2842, "annotation": {"number": 64, "value": 0}, "group": "control_change"}, {"time": 2843, "annotation": {"number": 64, "value": 127}, "group": "control_change"}, {"time": 2866, "annotation": {"number": 64, "value": 0}, "group": "control_change"}, {"time": 2868, "annotation": {"number": 64, "value": 127}, "group": "control_change"}, {"time": 2890, "annotation": {"number": 64, "value": 0}, "group": "control_change"}, {"time": 2892, "annotation": {"number": 64, "value": 127}, "group": "control_change"}, {"time": 2913, "annotation": {"number": 64, "value": 0}, "group": "control_change"}, {"time": 2915, "annotation": {"number": 64, "value": 127}, "group": "control_change"}, {"time": 2938, "annotation": {"number": 64, "value": 0}, "group": "control_change"}, {"time": 2940, "annotation": {"number": 64, "value": 127}, "group": "control_change"}, {"time": 2962, "annotation": {"number": 64, "value": 0}, "group": "control_change"}, {"time": 2964, "annotation": {"number": 64, "value": 127}, "group": "control_change"}, {"time": 2986, "annotation": {"number": 64, "value": 0}, "group": "control_change"}, {"time": 2987, "annotation": {"number": 64, "value": 127}, "group": "control_change"}, {"time": 3008, "annotation": {"number": 64, "value": 0}, "group": "control_change"}, {"time": 3012, "annotation": {"number": 64, "value": 127}, "group": "control_change"}, {"time": 3034, "annotation": {"number": 64, "value": 0}, "group": "control_change"}, {"time": 3036, "annotation": {"number": 64, "value": 127}, "group": "control_change"}, {"time": 3058, "annotation": {"number": 64, "value": 0}, "group": "control_change"}, {"time": 3059, "annotation": {"number": 64, "value": 127}, "group": "control_change"}, {"time": 3082, "annotation": {"number": 64, "value": 0}, "group": "control_change"}, {"time": 3083, "annotation": {"number": 64, "value": 127}, "group": "control_change"}, {"time": 3106, "annotation": {"number": 64, "value": 0}, "group": "control_change"}, {"time": 3108, "annotation": {"number": 64, "value": 127}, "group": "control_change"}, {"time": 3130, "annotation": {"number": 64, "value": 0}, "group": "control_change"}, {"time": 3131, "annotation": {"number": 64, "value": 127}, "group": "control_change"}, {"time": 3154, "annotation": {"number": 64, "value": 0}, "group": "control_change"}, {"time": 3156, "annotation": {"number": 64, "value": 127}, "group": "control_change"}, {"time": 3178, "annotation": {"number": 64, "value": 0}, "group": "control_change"}, {"time": 3180, "annotation": {"number": 64, "value": 127}, "group": "control_change"}, {"time": 3201, "annotation": {"number": 64, "value": 0}, "group": "control_change"}, {"time": 3203, "annotation": {"number": 64, "value": 127}, "group": "control_change"}, {"time": 3226, "annotation": {"number": 64, "value": 0}, "group": "control_change"}, {"time": 3228, "annotation": {"number": 64, "value": 127}, "group": "control_change"}, {"time": 3250, "annotation": {"number": 64, "value": 0}, "group": "control_change"}, {"time": 3252, "annotation": {"number": 64, "value": 127}, "group": "control_change"}, {"time": 3252, "annotation": {"number": 64, "value": 0}, "group": "control_change"}, {"time": 3303, "annotation": {"number": 64, "value": 0}, "group": "control_change"}, {"time": 3305, "annotation": {"number": 64, "value": 127}, "group": "control_change"}, {"time": 3331, "annotation": {"number": 64, "value": 0}, "group": "control_change"}, {"time": 3332, "annotation": {"number": 64, "value": 127}, "group": "control_change"}, {"time": 3335, "annotation": {"number": 64, "value": 127}, "group": "control_change"}, {"time": 3335, "annotation": {"number": 64, "value": 0}, "group": "control_change"}, {"time": 3336, "annotation": {"number": 64, "value": 127}, "group": "control_change"}, {"time": 3375, "annotation": {"number": 64, "value": 0}, "group": "control_change"}, {"time": 3382, "annotation": {"number": 64, "value": 127}, "group": "control_change"}, {"time": 3419, "annotation": {"number": 64, "value": 0}, "group": "control_change"}, {"time": 3424, "annotation": {"number": 64, "value": 127}, "group": "control_change"}, {"time": 3437, "annotation": {"number": 64, "value": 0}, "group": "control_change"}, {"time": 3439, "annotation": {"number": 64, "value": 127}, "group": "control_change"}, {"time": 3453, "annotation": {"number": 64, "value": 0}, "group": "control_change"}, {"time": 3455, "annotation": {"number": 64, "value": 127}, "group": "control_change"}]}]}