{"metadata": {"schema_version": "0.2", "title": "None", "source_filename": "790.mid", "source_format": "midi"}, "resolution": 12, "tempos": [{"time": 0, "qpm": 88.00002346667293}, {"time": 2143, "qpm": 88.24995918439387}, {"time": 2268, "qpm": 88.00002346667293}], "key_signatures": [{"time": 0, "root": 0, "mode": "major"}], "time_signatures": [{"time": 0, "numerator": 4, "denominator": 4}, {"time": 0, "numerator": 1, "denominator": 4}], "tracks": [{"program": 4, "is_drum": false, "name": "MELODY", "notes": [{"time": 267, "pitch": 62, "duration": 5, "velocity": 105}, {"time": 273, "pitch": 71, "duration": 5, "velocity": 103}, {"time": 279, "pitch": 62, "duration": 5, "velocity": 105}, {"time": 285, "pitch": 71, "duration": 4, "velocity": 105}, {"time": 291, "pitch": 67, "duration": 8, "velocity": 103}, {"time": 303, "pitch": 69, "duration": 36, "velocity": 102}, {"time": 363, "pitch": 62, "duration": 5, "velocity": 93}, {"time": 369, "pitch": 71, "duration": 5, "velocity": 102}, {"time": 375, "pitch": 62, "duration": 6, "velocity": 102}, {"time": 381, "pitch": 71, "duration": 4, "velocity": 105}, {"time": 387, "pitch": 67, "duration": 9, "velocity": 103}, {"time": 399, "pitch": 74, "duration": 38, "velocity": 105}, {"time": 459, "pitch": 67, "duration": 5, "velocity": 93}, {"time": 465, "pitch": 76, "duration": 6, "velocity": 105}, {"time": 471, "pitch": 67, "duration": 6, "velocity": 102}, {"time": 477, "pitch": 76, "duration": 5, "velocity": 110}, {"time": 483, "pitch": 72, "duration": 10, "velocity": 80}, {"time": 495, "pitch": 74, "duration": 8, "velocity": 102}, {"time": 507, "pitch": 79, "duration": 17, "velocity": 102}, {"time": 555, "pitch": 67, "duration": 4, "velocity": 93}, {"time": 561, "pitch": 69, "duration": 4, "velocity": 105}, {"time": 567, "pitch": 71, "duration": 3, "velocity": 102}, {"time": 573, "pitch": 72, "duration": 3, "velocity": 93}, {"time": 579, "pitch": 74, "duration": 8, "velocity": 103}, {"time": 591, "pitch": 71, "duration": 9, "velocity": 102}, {"time": 603, "pitch": 69, "duration": 27, "velocity": 95}, {"time": 651, "pitch": 62, "duration": 5, "velocity": 105}, {"time": 657, "pitch": 71, "duration": 5, "velocity": 103}, {"time": 663, "pitch": 62, "duration": 5, "velocity": 105}, {"time": 669, "pitch": 71, "duration": 4, "velocity": 105}, {"time": 675, "pitch": 67, "duration": 8, "velocity": 103}, {"time": 687, "pitch": 69, "duration": 36, "velocity": 102}, {"time": 747, "pitch": 62, "duration": 5, "velocity": 93}, {"time": 753, "pitch": 71, "duration": 5, "velocity": 102}, {"time": 759, "pitch": 62, "duration": 6, "velocity": 102}, {"time": 765, "pitch": 71, "duration": 4, "velocity": 105}, {"time": 771, "pitch": 67, "duration": 9, "velocity": 103}, {"time": 783, "pitch": 74, "duration": 21, "velocity": 105}, {"time": 807, "pitch": 71, "duration": 4, "velocity": 102}, {"time": 813, "pitch": 69, "duration": 4, "velocity": 93}, {"time": 819, "pitch": 67, "duration": 17, "velocity": 102}, {"time": 843, "pitch": 67, "duration": 5, "velocity": 93}, {"time": 849, "pitch": 76, "duration": 6, "velocity": 105}, {"time": 855, "pitch": 67, "duration": 6, "velocity": 102}, {"time": 861, "pitch": 76, "duration": 5, "velocity": 110}, {"time": 867, "pitch": 72, "duration": 10, "velocity": 80}, {"time": 879, "pitch": 74, "duration": 8, "velocity": 102}, {"time": 891, "pitch": 79, "duration": 17, "velocity": 102}, {"time": 939, "pitch": 67, "duration": 4, "velocity": 93}, {"time": 945, "pitch": 69, "duration": 4, "velocity": 105}, {"time": 951, "pitch": 71, "duration": 3, "velocity": 102}, {"time": 957, "pitch": 72, "duration": 3, "velocity": 93}, {"time": 963, "pitch": 74, "duration": 8, "velocity": 103}, {"time": 975, "pitch": 79, "duration": 9, "velocity": 102}, {"time": 987, "pitch": 81, "duration": 27, "velocity": 95}, {"time": 1023, "pitch": 74, "duration": 1, "velocity": 93}, {"time": 1026, "pitch": 74, "duration": 1, "velocity": 93}, {"time": 1029, "pitch": 74, "duration": 4, "velocity": 95}, {"time": 1035, "pitch": 71, "duration": 1, "velocity": 87}, {"time": 1038, "pitch": 71, "duration": 1, "velocity": 93}, {"time": 1041, "pitch": 71, "duration": 4, "velocity": 102}, {"time": 1047, "pitch": 69, "duration": 1, "velocity": 93}, {"time": 1050, "pitch": 69, "duration": 1, "velocity": 93}, {"time": 1053, "pitch": 69, "duration": 4, "velocity": 102}, {"time": 1059, "pitch": 67, "duration": 3, "velocity": 102}, {"time": 1065, "pitch": 69, "duration": 4, "velocity": 103}, {"time": 1071, "pitch": 71, "duration": 3, "velocity": 95}, {"time": 1077, "pitch": 69, "duration": 30, "velocity": 105}, {"time": 1119, "pitch": 74, "duration": 1, "velocity": 74}, {"time": 1122, "pitch": 74, "duration": 1, "velocity": 102}, {"time": 1125, "pitch": 74, "duration": 3, "velocity": 103}, {"time": 1131, "pitch": 71, "duration": 1, "velocity": 93}, {"time": 1134, "pitch": 71, "duration": 1, "velocity": 87}, {"time": 1137, "pitch": 71, "duration": 4, "velocity": 102}, {"time": 1143, "pitch": 69, "duration": 1, "velocity": 93}, {"time": 1146, "pitch": 69, "duration": 1, "velocity": 93}, {"time": 1149, "pitch": 69, "duration": 4, "velocity": 102}, {"time": 1155, "pitch": 67, "duration": 4, "velocity": 95}, {"time": 1161, "pitch": 74, "duration": 4, "velocity": 95}, {"time": 1167, "pitch": 76, "duration": 3, "velocity": 102}, {"time": 1173, "pitch": 74, "duration": 18, "velocity": 102}, {"time": 1209, "pitch": 74, "duration": 4, "velocity": 103}, {"time": 1215, "pitch": 76, "duration": 3, "velocity": 103}, {"time": 1221, "pitch": 74, "duration": 3, "velocity": 93}, {"time": 1227, "pitch": 76, "duration": 3, "velocity": 105}, {"time": 1233, "pitch": 74, "duration": 2, "velocity": 102}, {"time": 1239, "pitch": 71, "duration": 2, "velocity": 90}, {"time": 1245, "pitch": 74, "duration": 7, "velocity": 102}, {"time": 1257, "pitch": 71, "duration": 3, "velocity": 93}, {"time": 1263, "pitch": 74, "duration": 4, "velocity": 102}, {"time": 1269, "pitch": 71, "duration": 3, "velocity": 95}, {"time": 1275, "pitch": 74, "duration": 3, "velocity": 102}, {"time": 1281, "pitch": 71, "duration": 2, "velocity": 95}, {"time": 1287, "pitch": 64, "duration": 2, "velocity": 95}, {"time": 1293, "pitch": 67, "duration": 9, "velocity": 95}, {"time": 1311, "pitch": 72, "duration": 1, "velocity": 93}, {"time": 1314, "pitch": 72, "duration": 1, "velocity": 83}, {"time": 1317, "pitch": 72, "duration": 3, "velocity": 87}, {"time": 1323, "pitch": 71, "duration": 1, "velocity": 102}, {"time": 1326, "pitch": 72, "duration": 2, "velocity": 103}, {"time": 1332, "pitch": 72, "duration": 3, "velocity": 102}, {"time": 1338, "pitch": 71, "duration": 1, "velocity": 102}, {"time": 1341, "pitch": 72, "duration": 4, "velocity": 103}, {"time": 1347, "pitch": 71, "duration": 1, "velocity": 93}, {"time": 1350, "pitch": 72, "duration": 1, "velocity": 93}, {"time": 1353, "pitch": 74, "duration": 2, "velocity": 103}, {"time": 1359, "pitch": 76, "duration": 3, "velocity": 95}, {"time": 1365, "pitch": 74, "duration": 24, "velocity": 105}, {"time": 1407, "pitch": 74, "duration": 1, "velocity": 93}, {"time": 1410, "pitch": 74, "duration": 1, "velocity": 93}, {"time": 1413, "pitch": 74, "duration": 4, "velocity": 95}, {"time": 1419, "pitch": 71, "duration": 1, "velocity": 87}, {"time": 1422, "pitch": 71, "duration": 1, "velocity": 93}, {"time": 1425, "pitch": 71, "duration": 4, "velocity": 102}, {"time": 1431, "pitch": 69, "duration": 1, "velocity": 93}, {"time": 1434, "pitch": 69, "duration": 1, "velocity": 93}, {"time": 1437, "pitch": 69, "duration": 4, "velocity": 102}, {"time": 1443, "pitch": 67, "duration": 3, "velocity": 102}, {"time": 1449, "pitch": 69, "duration": 4, "velocity": 103}, {"time": 1455, "pitch": 71, "duration": 3, "velocity": 95}, {"time": 1461, "pitch": 69, "duration": 30, "velocity": 105}, {"time": 1503, "pitch": 74, "duration": 1, "velocity": 74}, {"time": 1506, "pitch": 74, "duration": 1, "velocity": 102}, {"time": 1509, "pitch": 74, "duration": 3, "velocity": 103}, {"time": 1515, "pitch": 71, "duration": 1, "velocity": 93}, {"time": 1518, "pitch": 71, "duration": 1, "velocity": 87}, {"time": 1521, "pitch": 71, "duration": 4, "velocity": 102}, {"time": 1527, "pitch": 69, "duration": 1, "velocity": 93}, {"time": 1530, "pitch": 69, "duration": 1, "velocity": 93}, {"time": 1533, "pitch": 69, "duration": 4, "velocity": 102}, {"time": 1539, "pitch": 67, "duration": 4, "velocity": 95}, {"time": 1545, "pitch": 74, "duration": 4, "velocity": 95}, {"time": 1551, "pitch": 76, "duration": 3, "velocity": 102}, {"time": 1557, "pitch": 74, "duration": 18, "velocity": 102}, {"time": 1593, "pitch": 74, "duration": 4, "velocity": 103}, {"time": 1599, "pitch": 76, "duration": 3, "velocity": 103}, {"time": 1605, "pitch": 74, "duration": 3, "velocity": 93}, {"time": 1611, "pitch": 76, "duration": 3, "velocity": 105}, {"time": 1617, "pitch": 74, "duration": 2, "velocity": 102}, {"time": 1623, "pitch": 71, "duration": 2, "velocity": 90}, {"time": 1629, "pitch": 74, "duration": 7, "velocity": 102}, {"time": 1641, "pitch": 71, "duration": 3, "velocity": 93}, {"time": 1647, "pitch": 74, "duration": 4, "velocity": 102}, {"time": 1653, "pitch": 71, "duration": 3, "velocity": 95}, {"time": 1659, "pitch": 74, "duration": 3, "velocity": 102}, {"time": 1665, "pitch": 71, "duration": 2, "velocity": 95}, {"time": 1671, "pitch": 81, "duration": 2, "velocity": 95}, {"time": 1677, "pitch": 79, "duration": 9, "velocity": 95}, {"time": 1695, "pitch": 72, "duration": 1, "velocity": 93}, {"time": 1698, "pitch": 72, "duration": 1, "velocity": 83}, {"time": 1701, "pitch": 72, "duration": 3, "velocity": 87}, {"time": 1707, "pitch": 71, "duration": 1, "velocity": 102}, {"time": 1710, "pitch": 72, "duration": 2, "velocity": 103}, {"time": 1716, "pitch": 72, "duration": 3, "velocity": 102}, {"time": 1722, "pitch": 71, "duration": 1, "velocity": 102}, {"time": 1725, "pitch": 72, "duration": 4, "velocity": 103}, {"time": 1731, "pitch": 71, "duration": 1, "velocity": 93}, {"time": 1734, "pitch": 72, "duration": 1, "velocity": 93}, {"time": 1737, "pitch": 74, "duration": 2, "velocity": 103}, {"time": 1743, "pitch": 76, "duration": 3, "velocity": 95}, {"time": 1749, "pitch": 74, "duration": 24, "velocity": 105}, {"time": 1785, "pitch": 69, "duration": 4, "velocity": 95}, {"time": 1791, "pitch": 71, "duration": 3, "velocity": 87}, {"time": 1797, "pitch": 69, "duration": 6, "velocity": 105}, {"time": 1809, "pitch": 69, "duration": 3, "velocity": 93}, {"time": 1815, "pitch": 71, "duration": 3, "velocity": 95}, {"time": 1821, "pitch": 69, "duration": 8, "velocity": 105}, {"time": 1833, "pitch": 69, "duration": 2, "velocity": 102}, {"time": 1839, "pitch": 71, "duration": 2, "velocity": 95}, {"time": 1845, "pitch": 69, "duration": 7, "velocity": 105}, {"time": 1854, "pitch": 67, "duration": 1, "velocity": 93}, {"time": 1857, "pitch": 69, "duration": 1, "velocity": 105}, {"time": 1860, "pitch": 67, "duration": 1, "velocity": 90}, {"time": 1863, "pitch": 71, "duration": 3, "velocity": 93}, {"time": 1869, "pitch": 69, "duration": 6, "velocity": 103}, {"time": 1881, "pitch": 74, "duration": 3, "velocity": 87}, {"time": 1887, "pitch": 76, "duration": 3, "velocity": 102}, {"time": 1893, "pitch": 74, "duration": 7, "velocity": 102}, {"time": 1905, "pitch": 74, "duration": 3, "velocity": 93}, {"time": 1911, "pitch": 76, "duration": 3, "velocity": 102}, {"time": 1917, "pitch": 74, "duration": 12, "velocity": 103}, {"time": 1950, "pitch": 74, "duration": 4, "velocity": 105}, {"time": 1956, "pitch": 74, "duration": 2, "velocity": 102}, {"time": 1959, "pitch": 79, "duration": 2, "velocity": 103}, {"time": 1965, "pitch": 78, "duration": 8, "velocity": 103}, {"time": 2283, "pitch": 62, "duration": 5, "velocity": 105}, {"time": 2289, "pitch": 71, "duration": 5, "velocity": 103}, {"time": 2295, "pitch": 62, "duration": 5, "velocity": 105}, {"time": 2301, "pitch": 71, "duration": 4, "velocity": 105}, {"time": 2307, "pitch": 67, "duration": 8, "velocity": 103}, {"time": 2319, "pitch": 69, "duration": 36, "velocity": 102}, {"time": 2379, "pitch": 62, "duration": 5, "velocity": 93}, {"time": 2385, "pitch": 71, "duration": 5, "velocity": 102}, {"time": 2391, "pitch": 62, "duration": 6, "velocity": 102}, {"time": 2397, "pitch": 71, "duration": 4, "velocity": 105}, {"time": 2403, "pitch": 67, "duration": 9, "velocity": 103}, {"time": 2415, "pitch": 74, "duration": 21, "velocity": 105}, {"time": 2439, "pitch": 71, "duration": 4, "velocity": 102}, {"time": 2445, "pitch": 69, "duration": 4, "velocity": 93}, {"time": 2451, "pitch": 67, "duration": 17, "velocity": 102}, {"time": 2475, "pitch": 67, "duration": 5, "velocity": 93}, {"time": 2481, "pitch": 76, "duration": 6, "velocity": 105}, {"time": 2487, "pitch": 67, "duration": 6, "velocity": 102}, {"time": 2493, "pitch": 76, "duration": 5, "velocity": 110}, {"time": 2499, "pitch": 72, "duration": 10, "velocity": 80}, {"time": 2511, "pitch": 74, "duration": 8, "velocity": 102}, {"time": 2523, "pitch": 79, "duration": 17, "velocity": 102}, {"time": 2571, "pitch": 67, "duration": 4, "velocity": 93}, {"time": 2577, "pitch": 69, "duration": 4, "velocity": 105}, {"time": 2583, "pitch": 71, "duration": 3, "velocity": 102}, {"time": 2589, "pitch": 72, "duration": 3, "velocity": 93}, {"time": 2595, "pitch": 74, "duration": 8, "velocity": 103}, {"time": 2607, "pitch": 79, "duration": 9, "velocity": 102}, {"time": 2619, "pitch": 81, "duration": 27, "velocity": 95}, {"time": 2655, "pitch": 74, "duration": 1, "velocity": 93}, {"time": 2658, "pitch": 74, "duration": 1, "velocity": 93}, {"time": 2661, "pitch": 74, "duration": 4, "velocity": 95}, {"time": 2667, "pitch": 71, "duration": 1, "velocity": 87}, {"time": 2670, "pitch": 71, "duration": 1, "velocity": 93}, {"time": 2673, "pitch": 71, "duration": 4, "velocity": 102}, {"time": 2679, "pitch": 69, "duration": 1, "velocity": 93}, {"time": 2682, "pitch": 69, "duration": 1, "velocity": 93}, {"time": 2685, "pitch": 69, "duration": 4, "velocity": 102}, {"time": 2691, "pitch": 67, "duration": 3, "velocity": 102}, {"time": 2697, "pitch": 69, "duration": 4, "velocity": 103}, {"time": 2703, "pitch": 71, "duration": 3, "velocity": 95}, {"time": 2709, "pitch": 69, "duration": 30, "velocity": 105}, {"time": 2751, "pitch": 74, "duration": 1, "velocity": 74}, {"time": 2754, "pitch": 74, "duration": 1, "velocity": 102}, {"time": 2757, "pitch": 74, "duration": 3, "velocity": 103}, {"time": 2763, "pitch": 71, "duration": 1, "velocity": 93}, {"time": 2766, "pitch": 71, "duration": 1, "velocity": 87}, {"time": 2769, "pitch": 71, "duration": 4, "velocity": 102}, {"time": 2775, "pitch": 69, "duration": 1, "velocity": 93}, {"time": 2778, "pitch": 69, "duration": 1, "velocity": 93}, {"time": 2781, "pitch": 69, "duration": 4, "velocity": 102}, {"time": 2787, "pitch": 67, "duration": 4, "velocity": 95}, {"time": 2793, "pitch": 74, "duration": 4, "velocity": 95}, {"time": 2799, "pitch": 76, "duration": 3, "velocity": 102}, {"time": 2805, "pitch": 74, "duration": 18, "velocity": 102}, {"time": 2841, "pitch": 74, "duration": 4, "velocity": 103}, {"time": 2847, "pitch": 76, "duration": 3, "velocity": 103}, {"time": 2853, "pitch": 74, "duration": 3, "velocity": 93}, {"time": 2859, "pitch": 76, "duration": 3, "velocity": 105}, {"time": 2865, "pitch": 74, "duration": 2, "velocity": 102}, {"time": 2871, "pitch": 71, "duration": 2, "velocity": 90}, {"time": 2877, "pitch": 74, "duration": 7, "velocity": 102}, {"time": 2889, "pitch": 71, "duration": 3, "velocity": 93}, {"time": 2895, "pitch": 74, "duration": 4, "velocity": 102}, {"time": 2901, "pitch": 71, "duration": 3, "velocity": 95}, {"time": 2907, "pitch": 74, "duration": 3, "velocity": 102}, {"time": 2913, "pitch": 71, "duration": 2, "velocity": 95}, {"time": 2919, "pitch": 64, "duration": 2, "velocity": 95}, {"time": 2925, "pitch": 67, "duration": 9, "velocity": 95}, {"time": 2943, "pitch": 72, "duration": 1, "velocity": 93}, {"time": 2946, "pitch": 72, "duration": 1, "velocity": 83}, {"time": 2949, "pitch": 72, "duration": 3, "velocity": 87}, {"time": 2955, "pitch": 71, "duration": 1, "velocity": 102}, {"time": 2958, "pitch": 72, "duration": 2, "velocity": 103}, {"time": 2964, "pitch": 72, "duration": 3, "velocity": 102}, {"time": 2970, "pitch": 71, "duration": 1, "velocity": 102}, {"time": 2973, "pitch": 72, "duration": 4, "velocity": 103}, {"time": 2979, "pitch": 71, "duration": 1, "velocity": 93}, {"time": 2982, "pitch": 72, "duration": 1, "velocity": 93}, {"time": 2985, "pitch": 74, "duration": 2, "velocity": 103}, {"time": 2991, "pitch": 76, "duration": 3, "velocity": 95}, {"time": 2997, "pitch": 74, "duration": 24, "velocity": 105}, {"time": 3039, "pitch": 74, "duration": 1, "velocity": 93}, {"time": 3042, "pitch": 74, "duration": 1, "velocity": 93}, {"time": 3045, "pitch": 74, "duration": 4, "velocity": 95}, {"time": 3051, "pitch": 71, "duration": 1, "velocity": 87}, {"time": 3054, "pitch": 71, "duration": 1, "velocity": 93}, {"time": 3057, "pitch": 71, "duration": 4, "velocity": 102}, {"time": 3063, "pitch": 69, "duration": 1, "velocity": 93}, {"time": 3066, "pitch": 69, "duration": 1, "velocity": 93}, {"time": 3069, "pitch": 69, "duration": 4, "velocity": 102}, {"time": 3075, "pitch": 67, "duration": 3, "velocity": 102}, {"time": 3081, "pitch": 69, "duration": 4, "velocity": 103}, {"time": 3087, "pitch": 71, "duration": 3, "velocity": 95}, {"time": 3093, "pitch": 69, "duration": 30, "velocity": 105}, {"time": 3135, "pitch": 74, "duration": 1, "velocity": 74}, {"time": 3138, "pitch": 74, "duration": 1, "velocity": 102}, {"time": 3141, "pitch": 74, "duration": 3, "velocity": 103}, {"time": 3147, "pitch": 71, "duration": 1, "velocity": 93}, {"time": 3150, "pitch": 71, "duration": 1, "velocity": 87}, {"time": 3153, "pitch": 71, "duration": 4, "velocity": 102}, {"time": 3159, "pitch": 69, "duration": 1, "velocity": 93}, {"time": 3162, "pitch": 69, "duration": 1, "velocity": 93}, {"time": 3165, "pitch": 69, "duration": 4, "velocity": 102}, {"time": 3171, "pitch": 67, "duration": 4, "velocity": 95}, {"time": 3177, "pitch": 74, "duration": 4, "velocity": 95}, {"time": 3183, "pitch": 76, "duration": 3, "velocity": 102}, {"time": 3189, "pitch": 74, "duration": 18, "velocity": 102}, {"time": 3225, "pitch": 74, "duration": 4, "velocity": 103}, {"time": 3231, "pitch": 76, "duration": 3, "velocity": 103}, {"time": 3237, "pitch": 74, "duration": 3, "velocity": 93}, {"time": 3243, "pitch": 76, "duration": 3, "velocity": 105}, {"time": 3249, "pitch": 74, "duration": 2, "velocity": 102}, {"time": 3255, "pitch": 71, "duration": 2, "velocity": 90}, {"time": 3261, "pitch": 74, "duration": 7, "velocity": 102}, {"time": 3273, "pitch": 71, "duration": 3, "velocity": 93}, {"time": 3279, "pitch": 74, "duration": 4, "velocity": 102}, {"time": 3285, "pitch": 71, "duration": 3, "velocity": 95}, {"time": 3291, "pitch": 74, "duration": 3, "velocity": 102}, {"time": 3297, "pitch": 71, "duration": 2, "velocity": 95}, {"time": 3303, "pitch": 64, "duration": 2, "velocity": 95}, {"time": 3309, "pitch": 67, "duration": 9, "velocity": 95}, {"time": 3327, "pitch": 72, "duration": 1, "velocity": 93}, {"time": 3330, "pitch": 72, "duration": 1, "velocity": 83}, {"time": 3333, "pitch": 72, "duration": 3, "velocity": 87}, {"time": 3339, "pitch": 71, "duration": 1, "velocity": 102}, {"time": 3342, "pitch": 72, "duration": 2, "velocity": 103}, {"time": 3348, "pitch": 72, "duration": 3, "velocity": 102}, {"time": 3354, "pitch": 71, "duration": 1, "velocity": 102}, {"time": 3357, "pitch": 72, "duration": 4, "velocity": 103}, {"time": 3363, "pitch": 71, "duration": 1, "velocity": 93}, {"time": 3366, "pitch": 72, "duration": 1, "velocity": 93}, {"time": 3369, "pitch": 74, "duration": 2, "velocity": 103}, {"time": 3375, "pitch": 76, "duration": 3, "velocity": 95}, {"time": 3381, "pitch": 74, "duration": 24, "velocity": 105}, {"time": 3417, "pitch": 69, "duration": 4, "velocity": 95}, {"time": 3423, "pitch": 71, "duration": 3, "velocity": 87}, {"time": 3429, "pitch": 69, "duration": 6, "velocity": 105}, {"time": 3441, "pitch": 69, "duration": 3, "velocity": 93}, {"time": 3447, "pitch": 71, "duration": 3, "velocity": 95}, {"time": 3453, "pitch": 69, "duration": 8, "velocity": 105}, {"time": 3465, "pitch": 69, "duration": 2, "velocity": 102}, {"time": 3471, "pitch": 71, "duration": 2, "velocity": 95}, {"time": 3477, "pitch": 69, "duration": 7, "velocity": 105}, {"time": 3486, "pitch": 67, "duration": 1, "velocity": 93}, {"time": 3489, "pitch": 69, "duration": 1, "velocity": 105}, {"time": 3492, "pitch": 67, "duration": 1, "velocity": 90}, {"time": 3495, "pitch": 71, "duration": 3, "velocity": 93}, {"time": 3501, "pitch": 69, "duration": 6, "velocity": 103}, {"time": 3513, "pitch": 74, "duration": 3, "velocity": 87}, {"time": 3519, "pitch": 76, "duration": 3, "velocity": 102}, {"time": 3525, "pitch": 74, "duration": 7, "velocity": 102}, {"time": 3537, "pitch": 74, "duration": 3, "velocity": 93}, {"time": 3543, "pitch": 76, "duration": 3, "velocity": 102}, {"time": 3549, "pitch": 74, "duration": 12, "velocity": 103}, {"time": 3582, "pitch": 74, "duration": 4, "velocity": 105}, {"time": 3588, "pitch": 74, "duration": 2, "velocity": 102}, {"time": 3591, "pitch": 79, "duration": 2, "velocity": 103}, {"time": 3597, "pitch": 78, "duration": 8, "velocity": 103}, {"time": 3609, "pitch": 69, "duration": 4, "velocity": 95}, {"time": 3615, "pitch": 71, "duration": 3, "velocity": 87}, {"time": 3621, "pitch": 69, "duration": 6, "velocity": 105}, {"time": 3633, "pitch": 69, "duration": 3, "velocity": 93}, {"time": 3639, "pitch": 71, "duration": 3, "velocity": 95}, {"time": 3645, "pitch": 69, "duration": 8, "velocity": 105}, {"time": 3657, "pitch": 69, "duration": 2, "velocity": 102}, {"time": 3663, "pitch": 71, "duration": 2, "velocity": 95}, {"time": 3669, "pitch": 69, "duration": 7, "velocity": 105}, {"time": 3678, "pitch": 67, "duration": 1, "velocity": 93}, {"time": 3681, "pitch": 69, "duration": 1, "velocity": 105}, {"time": 3684, "pitch": 67, "duration": 1, "velocity": 90}, {"time": 3687, "pitch": 71, "duration": 3, "velocity": 93}, {"time": 3693, "pitch": 69, "duration": 6, "velocity": 103}, {"time": 3705, "pitch": 74, "duration": 3, "velocity": 87}, {"time": 3711, "pitch": 76, "duration": 3, "velocity": 102}, {"time": 3717, "pitch": 74, "duration": 7, "velocity": 102}, {"time": 3729, "pitch": 74, "duration": 3, "velocity": 93}, {"time": 3735, "pitch": 76, "duration": 3, "velocity": 102}, {"time": 3741, "pitch": 74, "duration": 12, "velocity": 103}, {"time": 3771, "pitch": 71, "duration": 3, "velocity": 100}, {"time": 3774, "pitch": 72, "duration": 3, "velocity": 105}, {"time": 3777, "pitch": 74, "duration": 6, "velocity": 102}, {"time": 3783, "pitch": 71, "duration": 6, "velocity": 103}, {"time": 3789, "pitch": 81, "duration": 12, "velocity": 103}, {"time": 3801, "pitch": 79, "duration": 33, "velocity": 102}]}, {"program": 0, "is_drum": false, "name": "PIANO", "notes": [{"time": 50, "pitch": 38, "duration": 3, "velocity": 81}, {"time": 54, "pitch": 40, "duration": 3, "velocity": 86}, {"time": 57, "pitch": 43, "duration": 38, "velocity": 87}, {"time": 57, "pitch": 55, "duration": 7, "velocity": 74}, {"time": 57, "pitch": 62, "duration": 8, "velocity": 85}, {"time": 63, "pitch": 50, "duration": 25, "velocity": 65}, {"time": 69, "pitch": 55, "duration": 2, "velocity": 80}, {"time": 75, "pitch": 55, "duration": 2, "velocity": 87}, {"time": 75, "pitch": 62, "duration": 2, "velocity": 105}, {"time": 87, "pitch": 55, "duration": 7, "velocity": 71}, {"time": 87, "pitch": 59, "duration": 12, "velocity": 80}, {"time": 93, "pitch": 50, "duration": 5, "velocity": 69}, {"time": 99, "pitch": 55, "duration": 1, "velocity": 93}, {"time": 105, "pitch": 47, "duration": 40, "velocity": 65}, {"time": 105, "pitch": 59, "duration": 6, "velocity": 74}, {"time": 105, "pitch": 62, "duration": 7, "velocity": 67}, {"time": 111, "pitch": 54, "duration": 14, "velocity": 68}, {"time": 123, "pitch": 59, "duration": 3, "velocity": 90}, {"time": 123, "pitch": 66, "duration": 3, "velocity": 85}, {"time": 129, "pitch": 54, "duration": 14, "velocity": 55}, {"time": 135, "pitch": 59, "duration": 1, "velocity": 64}, {"time": 141, "pitch": 62, "duration": 7, "velocity": 103}, {"time": 147, "pitch": 59, "duration": 2, "velocity": 80}, {"time": 153, "pitch": 48, "duration": 43, "velocity": 80}, {"time": 153, "pitch": 60, "duration": 7, "velocity": 80}, {"time": 153, "pitch": 64, "duration": 10, "velocity": 85}, {"time": 159, "pitch": 55, "duration": 14, "velocity": 68}, {"time": 171, "pitch": 60, "duration": 8, "velocity": 85}, {"time": 171, "pitch": 67, "duration": 7, "velocity": 93}, {"time": 177, "pitch": 55, "duration": 20, "velocity": 69}, {"time": 183, "pitch": 60, "duration": 2, "velocity": 68}, {"time": 189, "pitch": 60, "duration": 3, "velocity": 87}, {"time": 189, "pitch": 64, "duration": 3, "velocity": 102}, {"time": 195, "pitch": 67, "duration": 2, "velocity": 93}, {"time": 201, "pitch": 50, "duration": 36, "velocity": 87}, {"time": 201, "pitch": 62, "duration": 5, "velocity": 70}, {"time": 201, "pitch": 66, "duration": 5, "velocity": 74}, {"time": 207, "pitch": 57, "duration": 14, "velocity": 65}, {"time": 213, "pitch": 62, "duration": 2, "velocity": 74}, {"time": 219, "pitch": 62, "duration": 4, "velocity": 85}, {"time": 219, "pitch": 69, "duration": 5, "velocity": 93}, {"time": 222, "pitch": 57, "duration": 8, "velocity": 68}, {"time": 231, "pitch": 62, "duration": 7, "velocity": 80}, {"time": 231, "pitch": 66, "duration": 7, "velocity": 87}, {"time": 237, "pitch": 57, "duration": 2, "velocity": 68}, {"time": 249, "pitch": 43, "duration": 39, "velocity": 87}, {"time": 249, "pitch": 55, "duration": 7, "velocity": 71}, {"time": 249, "pitch": 62, "duration": 12, "velocity": 80}, {"time": 255, "pitch": 50, "duration": 14, "velocity": 64}, {"time": 261, "pitch": 55, "duration": 2, "velocity": 83}, {"time": 267, "pitch": 55, "duration": 2, "velocity": 93}, {"time": 267, "pitch": 62, "duration": 2, "velocity": 93}, {"time": 279, "pitch": 50, "duration": 9, "velocity": 55}, {"time": 285, "pitch": 55, "duration": 2, "velocity": 95}, {"time": 285, "pitch": 59, "duration": 4, "velocity": 93}, {"time": 291, "pitch": 55, "duration": 2, "velocity": 85}, {"time": 297, "pitch": 47, "duration": 36, "velocity": 66}, {"time": 297, "pitch": 59, "duration": 7, "velocity": 64}, {"time": 297, "pitch": 62, "duration": 7, "velocity": 70}, {"time": 303, "pitch": 54, "duration": 19, "velocity": 59}, {"time": 309, "pitch": 59, "duration": 3, "velocity": 80}, {"time": 315, "pitch": 66, "duration": 2, "velocity": 102}, {"time": 327, "pitch": 54, "duration": 5, "velocity": 56}, {"time": 333, "pitch": 59, "duration": 3, "velocity": 83}, {"time": 333, "pitch": 62, "duration": 3, "velocity": 102}, {"time": 339, "pitch": 59, "duration": 3, "velocity": 63}, {"time": 345, "pitch": 40, "duration": 39, "velocity": 80}, {"time": 345, "pitch": 59, "duration": 7, "velocity": 72}, {"time": 345, "pitch": 67, "duration": 13, "velocity": 95}, {"time": 351, "pitch": 47, "duration": 17, "velocity": 66}, {"time": 357, "pitch": 59, "duration": 3, "velocity": 68}, {"time": 363, "pitch": 59, "duration": 13, "velocity": 90}, {"time": 363, "pitch": 64, "duration": 19, "velocity": 93}, {"time": 375, "pitch": 47, "duration": 10, "velocity": 54}, {"time": 381, "pitch": 59, "duration": 5, "velocity": 93}, {"time": 387, "pitch": 67, "duration": 5, "velocity": 102}, {"time": 393, "pitch": 50, "duration": 40, "velocity": 85}, {"time": 393, "pitch": 62, "duration": 6, "velocity": 70}, {"time": 393, "pitch": 66, "duration": 8, "velocity": 68}, {"time": 399, "pitch": 57, "duration": 26, "velocity": 80}, {"time": 405, "pitch": 62, "duration": 3, "velocity": 74}, {"time": 411, "pitch": 62, "duration": 7, "velocity": 87}, {"time": 411, "pitch": 69, "duration": 7, "velocity": 95}, {"time": 423, "pitch": 62, "duration": 13, "velocity": 90}, {"time": 423, "pitch": 66, "duration": 10, "velocity": 102}, {"time": 429, "pitch": 57, "duration": 8, "velocity": 74}, {"time": 435, "pitch": 67, "duration": 6, "velocity": 87}, {"time": 441, "pitch": 48, "duration": 43, "velocity": 85}, {"time": 441, "pitch": 60, "duration": 8, "velocity": 69}, {"time": 441, "pitch": 64, "duration": 12, "velocity": 72}, {"time": 447, "pitch": 55, "duration": 15, "velocity": 74}, {"time": 453, "pitch": 60, "duration": 2, "velocity": 69}, {"time": 459, "pitch": 60, "duration": 7, "velocity": 93}, {"time": 459, "pitch": 67, "duration": 8, "velocity": 95}, {"time": 465, "pitch": 55, "duration": 18, "velocity": 68}, {"time": 471, "pitch": 60, "duration": 8, "velocity": 87}, {"time": 471, "pitch": 64, "duration": 12, "velocity": 95}, {"time": 483, "pitch": 60, "duration": 3, "velocity": 93}, {"time": 489, "pitch": 47, "duration": 20, "velocity": 80}, {"time": 489, "pitch": 62, "duration": 13, "velocity": 87}, {"time": 495, "pitch": 54, "duration": 7, "velocity": 63}, {"time": 501, "pitch": 59, "duration": 8, "velocity": 95}, {"time": 507, "pitch": 66, "duration": 4, "velocity": 87}, {"time": 513, "pitch": 52, "duration": 14, "velocity": 85}, {"time": 513, "pitch": 59, "duration": 3, "velocity": 80}, {"time": 513, "pitch": 64, "duration": 9, "velocity": 93}, {"time": 519, "pitch": 59, "duration": 7, "velocity": 69}, {"time": 525, "pitch": 67, "duration": 2, "velocity": 95}, {"time": 537, "pitch": 45, "duration": 40, "velocity": 87}, {"time": 537, "pitch": 57, "duration": 8, "velocity": 70}, {"time": 537, "pitch": 60, "duration": 13, "velocity": 70}, {"time": 543, "pitch": 52, "duration": 34, "velocity": 70}, {"time": 549, "pitch": 55, "duration": 12, "velocity": 68}, {"time": 555, "pitch": 60, "duration": 14, "velocity": 105}, {"time": 567, "pitch": 55, "duration": 2, "velocity": 70}, {"time": 573, "pitch": 55, "duration": 3, "velocity": 95}, {"time": 573, "pitch": 60, "duration": 4, "velocity": 93}, {"time": 573, "pitch": 64, "duration": 4, "velocity": 102}, {"time": 585, "pitch": 50, "duration": 43, "velocity": 90}, {"time": 585, "pitch": 57, "duration": 3, "velocity": 93}, {"time": 585, "pitch": 62, "duration": 7, "velocity": 87}, {"time": 591, "pitch": 57, "duration": 7, "velocity": 70}, {"time": 597, "pitch": 62, "duration": 2, "velocity": 66}, {"time": 603, "pitch": 57, "duration": 7, "velocity": 93}, {"time": 603, "pitch": 64, "duration": 7, "velocity": 93}, {"time": 615, "pitch": 57, "duration": 3, "velocity": 93}, {"time": 615, "pitch": 62, "duration": 7, "velocity": 95}, {"time": 621, "pitch": 57, "duration": 11, "velocity": 93}, {"time": 627, "pitch": 62, "duration": 5, "velocity": 80}, {"time": 633, "pitch": 43, "duration": 39, "velocity": 87}, {"time": 633, "pitch": 55, "duration": 7, "velocity": 71}, {"time": 633, "pitch": 62, "duration": 12, "velocity": 80}, {"time": 639, "pitch": 50, "duration": 14, "velocity": 64}, {"time": 645, "pitch": 55, "duration": 2, "velocity": 83}, {"time": 651, "pitch": 55, "duration": 2, "velocity": 93}, {"time": 651, "pitch": 62, "duration": 2, "velocity": 93}, {"time": 663, "pitch": 50, "duration": 9, "velocity": 55}, {"time": 669, "pitch": 55, "duration": 2, "velocity": 95}, {"time": 669, "pitch": 59, "duration": 4, "velocity": 93}, {"time": 675, "pitch": 55, "duration": 2, "velocity": 85}, {"time": 681, "pitch": 47, "duration": 36, "velocity": 66}, {"time": 681, "pitch": 59, "duration": 7, "velocity": 64}, {"time": 681, "pitch": 62, "duration": 7, "velocity": 70}, {"time": 687, "pitch": 54, "duration": 19, "velocity": 59}, {"time": 693, "pitch": 59, "duration": 3, "velocity": 80}, {"time": 699, "pitch": 66, "duration": 2, "velocity": 102}, {"time": 711, "pitch": 54, "duration": 5, "velocity": 56}, {"time": 717, "pitch": 59, "duration": 3, "velocity": 83}, {"time": 717, "pitch": 62, "duration": 3, "velocity": 102}, {"time": 723, "pitch": 59, "duration": 3, "velocity": 63}, {"time": 729, "pitch": 40, "duration": 39, "velocity": 80}, {"time": 729, "pitch": 59, "duration": 7, "velocity": 72}, {"time": 729, "pitch": 67, "duration": 13, "velocity": 95}, {"time": 735, "pitch": 47, "duration": 17, "velocity": 66}, {"time": 741, "pitch": 59, "duration": 3, "velocity": 68}, {"time": 747, "pitch": 59, "duration": 13, "velocity": 90}, {"time": 747, "pitch": 64, "duration": 19, "velocity": 93}, {"time": 759, "pitch": 47, "duration": 10, "velocity": 54}, {"time": 765, "pitch": 59, "duration": 5, "velocity": 93}, {"time": 771, "pitch": 67, "duration": 5, "velocity": 102}, {"time": 777, "pitch": 50, "duration": 40, "velocity": 85}, {"time": 777, "pitch": 62, "duration": 6, "velocity": 70}, {"time": 777, "pitch": 66, "duration": 8, "velocity": 68}, {"time": 783, "pitch": 57, "duration": 26, "velocity": 80}, {"time": 789, "pitch": 62, "duration": 3, "velocity": 74}, {"time": 795, "pitch": 62, "duration": 7, "velocity": 87}, {"time": 795, "pitch": 69, "duration": 7, "velocity": 95}, {"time": 807, "pitch": 62, "duration": 13, "velocity": 90}, {"time": 807, "pitch": 66, "duration": 10, "velocity": 102}, {"time": 813, "pitch": 57, "duration": 8, "velocity": 74}, {"time": 819, "pitch": 67, "duration": 6, "velocity": 87}, {"time": 825, "pitch": 48, "duration": 43, "velocity": 85}, {"time": 825, "pitch": 60, "duration": 8, "velocity": 69}, {"time": 825, "pitch": 64, "duration": 12, "velocity": 72}, {"time": 831, "pitch": 55, "duration": 15, "velocity": 74}, {"time": 837, "pitch": 60, "duration": 2, "velocity": 69}, {"time": 843, "pitch": 60, "duration": 7, "velocity": 93}, {"time": 843, "pitch": 67, "duration": 8, "velocity": 95}, {"time": 849, "pitch": 55, "duration": 18, "velocity": 68}, {"time": 855, "pitch": 60, "duration": 8, "velocity": 87}, {"time": 855, "pitch": 64, "duration": 12, "velocity": 95}, {"time": 867, "pitch": 60, "duration": 3, "velocity": 93}, {"time": 873, "pitch": 47, "duration": 20, "velocity": 80}, {"time": 873, "pitch": 62, "duration": 13, "velocity": 87}, {"time": 879, "pitch": 54, "duration": 7, "velocity": 63}, {"time": 885, "pitch": 59, "duration": 8, "velocity": 95}, {"time": 891, "pitch": 66, "duration": 4, "velocity": 87}, {"time": 897, "pitch": 52, "duration": 14, "velocity": 85}, {"time": 897, "pitch": 59, "duration": 3, "velocity": 80}, {"time": 897, "pitch": 64, "duration": 9, "velocity": 93}, {"time": 903, "pitch": 59, "duration": 7, "velocity": 69}, {"time": 909, "pitch": 67, "duration": 2, "velocity": 95}, {"time": 921, "pitch": 45, "duration": 40, "velocity": 87}, {"time": 921, "pitch": 57, "duration": 8, "velocity": 70}, {"time": 921, "pitch": 60, "duration": 13, "velocity": 70}, {"time": 927, "pitch": 52, "duration": 34, "velocity": 70}, {"time": 933, "pitch": 55, "duration": 12, "velocity": 68}, {"time": 939, "pitch": 60, "duration": 14, "velocity": 105}, {"time": 951, "pitch": 55, "duration": 2, "velocity": 70}, {"time": 957, "pitch": 55, "duration": 3, "velocity": 95}, {"time": 957, "pitch": 60, "duration": 4, "velocity": 93}, {"time": 957, "pitch": 64, "duration": 4, "velocity": 102}, {"time": 969, "pitch": 50, "duration": 43, "velocity": 90}, {"time": 969, "pitch": 57, "duration": 3, "velocity": 93}, {"time": 969, "pitch": 62, "duration": 7, "velocity": 87}, {"time": 975, "pitch": 57, "duration": 7, "velocity": 70}, {"time": 981, "pitch": 62, "duration": 2, "velocity": 66}, {"time": 987, "pitch": 57, "duration": 7, "velocity": 93}, {"time": 987, "pitch": 64, "duration": 7, "velocity": 93}, {"time": 999, "pitch": 57, "duration": 3, "velocity": 93}, {"time": 999, "pitch": 62, "duration": 7, "velocity": 95}, {"time": 1005, "pitch": 57, "duration": 11, "velocity": 93}, {"time": 1011, "pitch": 62, "duration": 5, "velocity": 80}, {"time": 1017, "pitch": 43, "duration": 36, "velocity": 93}, {"time": 1017, "pitch": 55, "duration": 8, "velocity": 87}, {"time": 1017, "pitch": 59, "duration": 12, "velocity": 87}, {"time": 1023, "pitch": 50, "duration": 15, "velocity": 50}, {"time": 1029, "pitch": 55, "duration": 2, "velocity": 74}, {"time": 1035, "pitch": 55, "duration": 11, "velocity": 95}, {"time": 1035, "pitch": 62, "duration": 9, "velocity": 93}, {"time": 1047, "pitch": 50, "duration": 7, "velocity": 56}, {"time": 1053, "pitch": 55, "duration": 2, "velocity": 90}, {"time": 1053, "pitch": 59, "duration": 2, "velocity": 90}, {"time": 1065, "pitch": 47, "duration": 39, "velocity": 80}, {"time": 1065, "pitch": 59, "duration": 8, "velocity": 74}, {"time": 1065, "pitch": 62, "duration": 8, "velocity": 83}, {"time": 1071, "pitch": 54, "duration": 13, "velocity": 59}, {"time": 1077, "pitch": 59, "duration": 2, "velocity": 80}, {"time": 1083, "pitch": 59, "duration": 2, "velocity": 87}, {"time": 1083, "pitch": 66, "duration": 2, "velocity": 93}, {"time": 1095, "pitch": 54, "duration": 7, "velocity": 51}, {"time": 1101, "pitch": 59, "duration": 2, "velocity": 87}, {"time": 1101, "pitch": 62, "duration": 3, "velocity": 102}, {"time": 1107, "pitch": 59, "duration": 1, "velocity": 83}, {"time": 1113, "pitch": 40, "duration": 31, "velocity": 85}, {"time": 1113, "pitch": 59, "duration": 7, "velocity": 59}, {"time": 1113, "pitch": 64, "duration": 11, "velocity": 72}, {"time": 1119, "pitch": 47, "duration": 25, "velocity": 68}, {"time": 1125, "pitch": 59, "duration": 2, "velocity": 74}, {"time": 1131, "pitch": 59, "duration": 2, "velocity": 93}, {"time": 1131, "pitch": 67, "duration": 3, "velocity": 83}, {"time": 1143, "pitch": 59, "duration": 2, "velocity": 93}, {"time": 1149, "pitch": 40, "duration": 2, "velocity": 85}, {"time": 1149, "pitch": 59, "duration": 2, "velocity": 93}, {"time": 1149, "pitch": 64, "duration": 6, "velocity": 103}, {"time": 1155, "pitch": 59, "duration": 2, "velocity": 93}, {"time": 1161, "pitch": 50, "duration": 21, "velocity": 80}, {"time": 1161, "pitch": 62, "duration": 6, "velocity": 70}, {"time": 1167, "pitch": 57, "duration": 13, "velocity": 90}, {"time": 1173, "pitch": 62, "duration": 2, "velocity": 95}, {"time": 1179, "pitch": 62, "duration": 14, "velocity": 87}, {"time": 1179, "pitch": 66, "duration": 14, "velocity": 83}, {"time": 1191, "pitch": 50, "duration": 12, "velocity": 80}, {"time": 1197, "pitch": 62, "duration": 6, "velocity": 83}, {"time": 1197, "pitch": 67, "duration": 8, "velocity": 80}, {"time": 1197, "pitch": 69, "duration": 3, "velocity": 93}, {"time": 1203, "pitch": 57, "duration": 2, "velocity": 70}, {"time": 1209, "pitch": 48, "duration": 20, "velocity": 83}, {"time": 1209, "pitch": 60, "duration": 8, "velocity": 80}, {"time": 1209, "pitch": 64, "duration": 8, "velocity": 87}, {"time": 1215, "pitch": 55, "duration": 13, "velocity": 80}, {"time": 1221, "pitch": 60, "duration": 2, "velocity": 80}, {"time": 1227, "pitch": 60, "duration": 2, "velocity": 102}, {"time": 1227, "pitch": 67, "duration": 2, "velocity": 93}, {"time": 1233, "pitch": 55, "duration": 6, "velocity": 55}, {"time": 1239, "pitch": 60, "duration": 6, "velocity": 95}, {"time": 1239, "pitch": 64, "duration": 7, "velocity": 105}, {"time": 1245, "pitch": 55, "duration": 2, "velocity": 74}, {"time": 1251, "pitch": 60, "duration": 2, "velocity": 105}, {"time": 1257, "pitch": 47, "duration": 16, "velocity": 85}, {"time": 1257, "pitch": 59, "duration": 8, "velocity": 90}, {"time": 1257, "pitch": 62, "duration": 8, "velocity": 93}, {"time": 1263, "pitch": 54, "duration": 8, "velocity": 65}, {"time": 1269, "pitch": 59, "duration": 2, "velocity": 93}, {"time": 1269, "pitch": 66, "duration": 6, "velocity": 93}, {"time": 1275, "pitch": 59, "duration": 3, "velocity": 102}, {"time": 1287, "pitch": 52, "duration": 13, "velocity": 68}, {"time": 1293, "pitch": 59, "duration": 2, "velocity": 102}, {"time": 1293, "pitch": 64, "duration": 7, "velocity": 105}, {"time": 1299, "pitch": 59, "duration": 2, "velocity": 93}, {"time": 1305, "pitch": 45, "duration": 38, "velocity": 87}, {"time": 1305, "pitch": 57, "duration": 8, "velocity": 83}, {"time": 1305, "pitch": 60, "duration": 12, "velocity": 87}, {"time": 1311, "pitch": 52, "duration": 19, "velocity": 56}, {"time": 1317, "pitch": 57, "duration": 3, "velocity": 102}, {"time": 1323, "pitch": 57, "duration": 12, "velocity": 103}, {"time": 1323, "pitch": 60, "duration": 12, "velocity": 103}, {"time": 1335, "pitch": 52, "duration": 6, "velocity": 51}, {"time": 1341, "pitch": 57, "duration": 2, "velocity": 93}, {"time": 1341, "pitch": 60, "duration": 9, "velocity": 95}, {"time": 1347, "pitch": 57, "duration": 3, "velocity": 83}, {"time": 1353, "pitch": 38, "duration": 1, "velocity": 102}, {"time": 1353, "pitch": 57, "duration": 3, "velocity": 102}, {"time": 1353, "pitch": 62, "duration": 4, "velocity": 93}, {"time": 1359, "pitch": 50, "duration": 3, "velocity": 53}, {"time": 1365, "pitch": 57, "duration": 7, "velocity": 102}, {"time": 1371, "pitch": 62, "duration": 7, "velocity": 93}, {"time": 1371, "pitch": 69, "duration": 5, "velocity": 103}, {"time": 1377, "pitch": 57, "duration": 15, "velocity": 80}, {"time": 1383, "pitch": 62, "duration": 4, "velocity": 103}, {"time": 1383, "pitch": 66, "duration": 1, "velocity": 55}, {"time": 1389, "pitch": 62, "duration": 3, "velocity": 95}, {"time": 1389, "pitch": 69, "duration": 4, "velocity": 103}, {"time": 1395, "pitch": 57, "duration": 5, "velocity": 87}, {"time": 1401, "pitch": 43, "duration": 36, "velocity": 93}, {"time": 1401, "pitch": 55, "duration": 8, "velocity": 87}, {"time": 1401, "pitch": 59, "duration": 12, "velocity": 87}, {"time": 1407, "pitch": 50, "duration": 15, "velocity": 50}, {"time": 1413, "pitch": 55, "duration": 2, "velocity": 74}, {"time": 1419, "pitch": 55, "duration": 11, "velocity": 95}, {"time": 1419, "pitch": 62, "duration": 9, "velocity": 93}, {"time": 1431, "pitch": 50, "duration": 7, "velocity": 56}, {"time": 1437, "pitch": 55, "duration": 2, "velocity": 90}, {"time": 1437, "pitch": 59, "duration": 2, "velocity": 90}, {"time": 1449, "pitch": 47, "duration": 39, "velocity": 80}, {"time": 1449, "pitch": 59, "duration": 8, "velocity": 74}, {"time": 1449, "pitch": 62, "duration": 8, "velocity": 83}, {"time": 1455, "pitch": 54, "duration": 13, "velocity": 59}, {"time": 1461, "pitch": 59, "duration": 2, "velocity": 80}, {"time": 1467, "pitch": 59, "duration": 2, "velocity": 87}, {"time": 1467, "pitch": 66, "duration": 2, "velocity": 93}, {"time": 1479, "pitch": 54, "duration": 7, "velocity": 51}, {"time": 1485, "pitch": 59, "duration": 2, "velocity": 87}, {"time": 1485, "pitch": 62, "duration": 3, "velocity": 102}, {"time": 1491, "pitch": 59, "duration": 1, "velocity": 83}, {"time": 1497, "pitch": 40, "duration": 31, "velocity": 85}, {"time": 1497, "pitch": 59, "duration": 7, "velocity": 59}, {"time": 1497, "pitch": 64, "duration": 11, "velocity": 72}, {"time": 1503, "pitch": 47, "duration": 25, "velocity": 68}, {"time": 1509, "pitch": 59, "duration": 2, "velocity": 74}, {"time": 1515, "pitch": 59, "duration": 2, "velocity": 93}, {"time": 1515, "pitch": 67, "duration": 3, "velocity": 83}, {"time": 1527, "pitch": 59, "duration": 2, "velocity": 93}, {"time": 1533, "pitch": 40, "duration": 2, "velocity": 85}, {"time": 1533, "pitch": 59, "duration": 2, "velocity": 93}, {"time": 1533, "pitch": 64, "duration": 6, "velocity": 103}, {"time": 1539, "pitch": 59, "duration": 2, "velocity": 93}, {"time": 1545, "pitch": 50, "duration": 21, "velocity": 80}, {"time": 1545, "pitch": 62, "duration": 6, "velocity": 70}, {"time": 1551, "pitch": 57, "duration": 13, "velocity": 90}, {"time": 1557, "pitch": 62, "duration": 2, "velocity": 95}, {"time": 1563, "pitch": 62, "duration": 14, "velocity": 87}, {"time": 1563, "pitch": 66, "duration": 14, "velocity": 83}, {"time": 1575, "pitch": 50, "duration": 12, "velocity": 80}, {"time": 1581, "pitch": 62, "duration": 6, "velocity": 83}, {"time": 1581, "pitch": 67, "duration": 8, "velocity": 80}, {"time": 1581, "pitch": 69, "duration": 3, "velocity": 93}, {"time": 1587, "pitch": 57, "duration": 2, "velocity": 70}, {"time": 1593, "pitch": 48, "duration": 20, "velocity": 83}, {"time": 1593, "pitch": 60, "duration": 8, "velocity": 80}, {"time": 1593, "pitch": 64, "duration": 8, "velocity": 87}, {"time": 1599, "pitch": 55, "duration": 13, "velocity": 80}, {"time": 1605, "pitch": 60, "duration": 2, "velocity": 80}, {"time": 1611, "pitch": 60, "duration": 2, "velocity": 102}, {"time": 1611, "pitch": 67, "duration": 2, "velocity": 93}, {"time": 1617, "pitch": 55, "duration": 6, "velocity": 55}, {"time": 1623, "pitch": 60, "duration": 6, "velocity": 95}, {"time": 1623, "pitch": 64, "duration": 7, "velocity": 105}, {"time": 1629, "pitch": 55, "duration": 2, "velocity": 74}, {"time": 1635, "pitch": 60, "duration": 2, "velocity": 105}, {"time": 1641, "pitch": 47, "duration": 16, "velocity": 85}, {"time": 1641, "pitch": 59, "duration": 8, "velocity": 90}, {"time": 1641, "pitch": 62, "duration": 8, "velocity": 93}, {"time": 1647, "pitch": 54, "duration": 8, "velocity": 65}, {"time": 1653, "pitch": 59, "duration": 2, "velocity": 93}, {"time": 1653, "pitch": 66, "duration": 6, "velocity": 93}, {"time": 1659, "pitch": 59, "duration": 3, "velocity": 102}, {"time": 1671, "pitch": 52, "duration": 13, "velocity": 68}, {"time": 1677, "pitch": 59, "duration": 2, "velocity": 102}, {"time": 1677, "pitch": 64, "duration": 7, "velocity": 105}, {"time": 1683, "pitch": 59, "duration": 2, "velocity": 93}, {"time": 1689, "pitch": 45, "duration": 38, "velocity": 87}, {"time": 1689, "pitch": 57, "duration": 8, "velocity": 83}, {"time": 1689, "pitch": 60, "duration": 12, "velocity": 87}, {"time": 1695, "pitch": 52, "duration": 19, "velocity": 56}, {"time": 1701, "pitch": 57, "duration": 3, "velocity": 102}, {"time": 1707, "pitch": 57, "duration": 12, "velocity": 103}, {"time": 1707, "pitch": 60, "duration": 12, "velocity": 103}, {"time": 1719, "pitch": 52, "duration": 6, "velocity": 51}, {"time": 1725, "pitch": 57, "duration": 2, "velocity": 93}, {"time": 1725, "pitch": 60, "duration": 9, "velocity": 95}, {"time": 1731, "pitch": 57, "duration": 3, "velocity": 83}, {"time": 1737, "pitch": 38, "duration": 1, "velocity": 102}, {"time": 1737, "pitch": 57, "duration": 3, "velocity": 102}, {"time": 1737, "pitch": 62, "duration": 4, "velocity": 93}, {"time": 1743, "pitch": 50, "duration": 3, "velocity": 53}, {"time": 1749, "pitch": 57, "duration": 7, "velocity": 102}, {"time": 1755, "pitch": 62, "duration": 7, "velocity": 93}, {"time": 1755, "pitch": 69, "duration": 5, "velocity": 103}, {"time": 1761, "pitch": 57, "duration": 15, "velocity": 80}, {"time": 1767, "pitch": 62, "duration": 4, "velocity": 103}, {"time": 1767, "pitch": 66, "duration": 1, "velocity": 55}, {"time": 1773, "pitch": 62, "duration": 3, "velocity": 95}, {"time": 1773, "pitch": 69, "duration": 4, "velocity": 103}, {"time": 1779, "pitch": 57, "duration": 5, "velocity": 87}, {"time": 1785, "pitch": 43, "duration": 40, "velocity": 93}, {"time": 1785, "pitch": 55, "duration": 7, "velocity": 70}, {"time": 1785, "pitch": 62, "duration": 8, "velocity": 74}, {"time": 1791, "pitch": 50, "duration": 14, "velocity": 68}, {"time": 1797, "pitch": 55, "duration": 2, "velocity": 95}, {"time": 1803, "pitch": 55, "duration": 3, "velocity": 87}, {"time": 1803, "pitch": 62, "duration": 2, "velocity": 90}, {"time": 1809, "pitch": 50, "duration": 17, "velocity": 65}, {"time": 1815, "pitch": 55, "duration": 2, "velocity": 71}, {"time": 1815, "pitch": 59, "duration": 2, "velocity": 72}, {"time": 1821, "pitch": 55, "duration": 2, "velocity": 87}, {"time": 1821, "pitch": 62, "duration": 4, "velocity": 93}, {"time": 1833, "pitch": 47, "duration": 43, "velocity": 80}, {"time": 1833, "pitch": 59, "duration": 8, "velocity": 70}, {"time": 1833, "pitch": 62, "duration": 8, "velocity": 74}, {"time": 1839, "pitch": 54, "duration": 14, "velocity": 59}, {"time": 1845, "pitch": 59, "duration": 2, "velocity": 87}, {"time": 1845, "pitch": 66, "duration": 2, "velocity": 80}, {"time": 1851, "pitch": 59, "duration": 8, "velocity": 85}, {"time": 1851, "pitch": 66, "duration": 12, "velocity": 93}, {"time": 1857, "pitch": 54, "duration": 18, "velocity": 68}, {"time": 1863, "pitch": 62, "duration": 12, "velocity": 93}, {"time": 1875, "pitch": 59, "duration": 3, "velocity": 95}, {"time": 1881, "pitch": 48, "duration": 38, "velocity": 83}, {"time": 1881, "pitch": 60, "duration": 8, "velocity": 74}, {"time": 1881, "pitch": 64, "duration": 12, "velocity": 87}, {"time": 1887, "pitch": 55, "duration": 32, "velocity": 74}, {"time": 1893, "pitch": 60, "duration": 2, "velocity": 87}, {"time": 1899, "pitch": 60, "duration": 6, "velocity": 80}, {"time": 1899, "pitch": 67, "duration": 5, "velocity": 93}, {"time": 1905, "pitch": 64, "duration": 3, "velocity": 74}, {"time": 1911, "pitch": 60, "duration": 2, "velocity": 85}, {"time": 1917, "pitch": 60, "duration": 3, "velocity": 87}, {"time": 1917, "pitch": 67, "duration": 5, "velocity": 93}, {"time": 1923, "pitch": 48, "duration": 2, "velocity": 87}, {"time": 1929, "pitch": 50, "duration": 46, "velocity": 87}, {"time": 1929, "pitch": 62, "duration": 7, "velocity": 83}, {"time": 1929, "pitch": 66, "duration": 8, "velocity": 71}, {"time": 1935, "pitch": 57, "duration": 26, "velocity": 80}, {"time": 1941, "pitch": 62, "duration": 1, "velocity": 87}, {"time": 1941, "pitch": 69, "duration": 2, "velocity": 87}, {"time": 1947, "pitch": 62, "duration": 2, "velocity": 87}, {"time": 1947, "pitch": 74, "duration": 2, "velocity": 95}, {"time": 1959, "pitch": 62, "duration": 17, "velocity": 74}, {"time": 1959, "pitch": 69, "duration": 17, "velocity": 90}, {"time": 1965, "pitch": 54, "duration": 7, "velocity": 74}, {"time": 1971, "pitch": 57, "duration": 5, "velocity": 102}, {"time": 1977, "pitch": 43, "duration": 40, "velocity": 93}, {"time": 1977, "pitch": 55, "duration": 7, "velocity": 70}, {"time": 1977, "pitch": 62, "duration": 8, "velocity": 74}, {"time": 1983, "pitch": 50, "duration": 14, "velocity": 68}, {"time": 1989, "pitch": 55, "duration": 2, "velocity": 95}, {"time": 1995, "pitch": 55, "duration": 3, "velocity": 87}, {"time": 1995, "pitch": 62, "duration": 2, "velocity": 90}, {"time": 2001, "pitch": 50, "duration": 17, "velocity": 65}, {"time": 2007, "pitch": 55, "duration": 2, "velocity": 71}, {"time": 2007, "pitch": 59, "duration": 2, "velocity": 72}, {"time": 2013, "pitch": 55, "duration": 2, "velocity": 87}, {"time": 2013, "pitch": 62, "duration": 4, "velocity": 93}, {"time": 2025, "pitch": 47, "duration": 43, "velocity": 80}, {"time": 2025, "pitch": 59, "duration": 8, "velocity": 70}, {"time": 2025, "pitch": 62, "duration": 8, "velocity": 74}, {"time": 2031, "pitch": 54, "duration": 14, "velocity": 59}, {"time": 2037, "pitch": 59, "duration": 2, "velocity": 87}, {"time": 2037, "pitch": 66, "duration": 2, "velocity": 80}, {"time": 2043, "pitch": 59, "duration": 8, "velocity": 85}, {"time": 2043, "pitch": 66, "duration": 12, "velocity": 93}, {"time": 2049, "pitch": 54, "duration": 18, "velocity": 68}, {"time": 2055, "pitch": 62, "duration": 12, "velocity": 93}, {"time": 2067, "pitch": 59, "duration": 3, "velocity": 95}, {"time": 2073, "pitch": 48, "duration": 38, "velocity": 83}, {"time": 2073, "pitch": 60, "duration": 8, "velocity": 74}, {"time": 2073, "pitch": 64, "duration": 12, "velocity": 87}, {"time": 2079, "pitch": 55, "duration": 32, "velocity": 74}, {"time": 2085, "pitch": 60, "duration": 2, "velocity": 87}, {"time": 2091, "pitch": 60, "duration": 6, "velocity": 80}, {"time": 2091, "pitch": 67, "duration": 5, "velocity": 93}, {"time": 2097, "pitch": 64, "duration": 3, "velocity": 74}, {"time": 2103, "pitch": 60, "duration": 2, "velocity": 85}, {"time": 2109, "pitch": 60, "duration": 3, "velocity": 87}, {"time": 2109, "pitch": 67, "duration": 5, "velocity": 93}, {"time": 2115, "pitch": 48, "duration": 2, "velocity": 87}, {"time": 2121, "pitch": 50, "duration": 46, "velocity": 87}, {"time": 2121, "pitch": 62, "duration": 7, "velocity": 83}, {"time": 2121, "pitch": 66, "duration": 8, "velocity": 71}, {"time": 2127, "pitch": 57, "duration": 26, "velocity": 80}, {"time": 2133, "pitch": 62, "duration": 1, "velocity": 87}, {"time": 2133, "pitch": 69, "duration": 2, "velocity": 87}, {"time": 2139, "pitch": 62, "duration": 2, "velocity": 87}, {"time": 2139, "pitch": 74, "duration": 2, "velocity": 95}, {"time": 2151, "pitch": 62, "duration": 17, "velocity": 74}, {"time": 2151, "pitch": 69, "duration": 17, "velocity": 90}, {"time": 2157, "pitch": 54, "duration": 7, "velocity": 74}, {"time": 2163, "pitch": 57, "duration": 5, "velocity": 102}, {"time": 2169, "pitch": 43, "duration": 45, "velocity": 93}, {"time": 2175, "pitch": 50, "duration": 26, "velocity": 72}, {"time": 2181, "pitch": 55, "duration": 5, "velocity": 87}, {"time": 2187, "pitch": 55, "duration": 8, "velocity": 51}, {"time": 2187, "pitch": 62, "duration": 27, "velocity": 102}, {"time": 2199, "pitch": 55, "duration": 7, "velocity": 80}, {"time": 2205, "pitch": 50, "duration": 9, "velocity": 65}, {"time": 2211, "pitch": 55, "duration": 4, "velocity": 80}, {"time": 2217, "pitch": 43, "duration": 36, "velocity": 85}, {"time": 2217, "pitch": 55, "duration": 14, "velocity": 85}, {"time": 2217, "pitch": 59, "duration": 13, "velocity": 87}, {"time": 2235, "pitch": 59, "duration": 2, "velocity": 93}, {"time": 2241, "pitch": 57, "duration": 6, "velocity": 103}, {"time": 2247, "pitch": 55, "duration": 5, "velocity": 93}, {"time": 2253, "pitch": 52, "duration": 2, "velocity": 93}, {"time": 2256, "pitch": 50, "duration": 1, "velocity": 69}, {"time": 2259, "pitch": 47, "duration": 6, "velocity": 80}, {"time": 2265, "pitch": 43, "duration": 39, "velocity": 87}, {"time": 2265, "pitch": 55, "duration": 7, "velocity": 71}, {"time": 2265, "pitch": 62, "duration": 12, "velocity": 80}, {"time": 2271, "pitch": 50, "duration": 14, "velocity": 64}, {"time": 2277, "pitch": 55, "duration": 2, "velocity": 83}, {"time": 2283, "pitch": 55, "duration": 2, "velocity": 93}, {"time": 2283, "pitch": 62, "duration": 2, "velocity": 93}, {"time": 2295, "pitch": 50, "duration": 9, "velocity": 55}, {"time": 2301, "pitch": 55, "duration": 2, "velocity": 95}, {"time": 2301, "pitch": 59, "duration": 4, "velocity": 93}, {"time": 2307, "pitch": 55, "duration": 2, "velocity": 85}, {"time": 2313, "pitch": 47, "duration": 36, "velocity": 66}, {"time": 2313, "pitch": 59, "duration": 7, "velocity": 64}, {"time": 2313, "pitch": 62, "duration": 7, "velocity": 70}, {"time": 2319, "pitch": 54, "duration": 19, "velocity": 59}, {"time": 2325, "pitch": 59, "duration": 3, "velocity": 80}, {"time": 2331, "pitch": 66, "duration": 2, "velocity": 102}, {"time": 2343, "pitch": 54, "duration": 5, "velocity": 56}, {"time": 2349, "pitch": 59, "duration": 3, "velocity": 83}, {"time": 2349, "pitch": 62, "duration": 3, "velocity": 102}, {"time": 2355, "pitch": 59, "duration": 3, "velocity": 63}, {"time": 2361, "pitch": 40, "duration": 39, "velocity": 80}, {"time": 2361, "pitch": 59, "duration": 7, "velocity": 72}, {"time": 2361, "pitch": 67, "duration": 13, "velocity": 95}, {"time": 2367, "pitch": 47, "duration": 17, "velocity": 66}, {"time": 2373, "pitch": 59, "duration": 3, "velocity": 68}, {"time": 2379, "pitch": 59, "duration": 13, "velocity": 90}, {"time": 2379, "pitch": 64, "duration": 19, "velocity": 93}, {"time": 2391, "pitch": 47, "duration": 10, "velocity": 54}, {"time": 2397, "pitch": 59, "duration": 5, "velocity": 93}, {"time": 2403, "pitch": 67, "duration": 5, "velocity": 102}, {"time": 2409, "pitch": 50, "duration": 40, "velocity": 85}, {"time": 2409, "pitch": 62, "duration": 6, "velocity": 70}, {"time": 2409, "pitch": 66, "duration": 8, "velocity": 68}, {"time": 2415, "pitch": 57, "duration": 26, "velocity": 80}, {"time": 2421, "pitch": 62, "duration": 3, "velocity": 74}, {"time": 2427, "pitch": 62, "duration": 7, "velocity": 87}, {"time": 2427, "pitch": 69, "duration": 7, "velocity": 95}, {"time": 2439, "pitch": 62, "duration": 13, "velocity": 90}, {"time": 2439, "pitch": 66, "duration": 10, "velocity": 102}, {"time": 2445, "pitch": 57, "duration": 8, "velocity": 74}, {"time": 2451, "pitch": 67, "duration": 6, "velocity": 87}, {"time": 2457, "pitch": 48, "duration": 43, "velocity": 85}, {"time": 2457, "pitch": 60, "duration": 8, "velocity": 69}, {"time": 2457, "pitch": 64, "duration": 12, "velocity": 72}, {"time": 2463, "pitch": 55, "duration": 15, "velocity": 74}, {"time": 2469, "pitch": 60, "duration": 2, "velocity": 69}, {"time": 2475, "pitch": 60, "duration": 7, "velocity": 93}, {"time": 2475, "pitch": 67, "duration": 8, "velocity": 95}, {"time": 2481, "pitch": 55, "duration": 18, "velocity": 68}, {"time": 2487, "pitch": 60, "duration": 8, "velocity": 87}, {"time": 2487, "pitch": 64, "duration": 12, "velocity": 95}, {"time": 2499, "pitch": 60, "duration": 3, "velocity": 93}, {"time": 2505, "pitch": 47, "duration": 20, "velocity": 80}, {"time": 2505, "pitch": 62, "duration": 13, "velocity": 87}, {"time": 2511, "pitch": 54, "duration": 7, "velocity": 63}, {"time": 2517, "pitch": 59, "duration": 8, "velocity": 95}, {"time": 2523, "pitch": 66, "duration": 4, "velocity": 87}, {"time": 2529, "pitch": 52, "duration": 14, "velocity": 85}, {"time": 2529, "pitch": 59, "duration": 3, "velocity": 80}, {"time": 2529, "pitch": 64, "duration": 9, "velocity": 93}, {"time": 2535, "pitch": 59, "duration": 7, "velocity": 69}, {"time": 2541, "pitch": 67, "duration": 2, "velocity": 95}, {"time": 2553, "pitch": 45, "duration": 40, "velocity": 87}, {"time": 2553, "pitch": 57, "duration": 8, "velocity": 70}, {"time": 2553, "pitch": 60, "duration": 13, "velocity": 70}, {"time": 2559, "pitch": 52, "duration": 34, "velocity": 70}, {"time": 2565, "pitch": 55, "duration": 12, "velocity": 68}, {"time": 2571, "pitch": 60, "duration": 14, "velocity": 105}, {"time": 2583, "pitch": 55, "duration": 2, "velocity": 70}, {"time": 2589, "pitch": 55, "duration": 3, "velocity": 95}, {"time": 2589, "pitch": 60, "duration": 4, "velocity": 93}, {"time": 2589, "pitch": 64, "duration": 4, "velocity": 102}, {"time": 2601, "pitch": 50, "duration": 43, "velocity": 90}, {"time": 2601, "pitch": 57, "duration": 3, "velocity": 93}, {"time": 2601, "pitch": 62, "duration": 7, "velocity": 87}, {"time": 2607, "pitch": 57, "duration": 7, "velocity": 70}, {"time": 2613, "pitch": 62, "duration": 2, "velocity": 66}, {"time": 2619, "pitch": 57, "duration": 7, "velocity": 93}, {"time": 2619, "pitch": 64, "duration": 7, "velocity": 93}, {"time": 2631, "pitch": 57, "duration": 3, "velocity": 93}, {"time": 2631, "pitch": 62, "duration": 7, "velocity": 95}, {"time": 2637, "pitch": 57, "duration": 11, "velocity": 93}, {"time": 2643, "pitch": 62, "duration": 5, "velocity": 80}, {"time": 2649, "pitch": 43, "duration": 36, "velocity": 93}, {"time": 2649, "pitch": 55, "duration": 8, "velocity": 87}, {"time": 2649, "pitch": 59, "duration": 12, "velocity": 87}, {"time": 2655, "pitch": 50, "duration": 15, "velocity": 50}, {"time": 2661, "pitch": 55, "duration": 2, "velocity": 74}, {"time": 2667, "pitch": 55, "duration": 11, "velocity": 95}, {"time": 2667, "pitch": 62, "duration": 9, "velocity": 93}, {"time": 2679, "pitch": 50, "duration": 7, "velocity": 56}, {"time": 2685, "pitch": 55, "duration": 2, "velocity": 90}, {"time": 2685, "pitch": 59, "duration": 2, "velocity": 90}, {"time": 2697, "pitch": 47, "duration": 39, "velocity": 80}, {"time": 2697, "pitch": 59, "duration": 8, "velocity": 74}, {"time": 2697, "pitch": 62, "duration": 8, "velocity": 83}, {"time": 2703, "pitch": 54, "duration": 13, "velocity": 59}, {"time": 2709, "pitch": 59, "duration": 2, "velocity": 80}, {"time": 2715, "pitch": 59, "duration": 2, "velocity": 87}, {"time": 2715, "pitch": 66, "duration": 2, "velocity": 93}, {"time": 2727, "pitch": 54, "duration": 7, "velocity": 51}, {"time": 2733, "pitch": 59, "duration": 2, "velocity": 87}, {"time": 2733, "pitch": 62, "duration": 3, "velocity": 102}, {"time": 2739, "pitch": 59, "duration": 1, "velocity": 83}, {"time": 2745, "pitch": 40, "duration": 31, "velocity": 85}, {"time": 2745, "pitch": 59, "duration": 7, "velocity": 59}, {"time": 2745, "pitch": 64, "duration": 11, "velocity": 72}, {"time": 2751, "pitch": 47, "duration": 25, "velocity": 68}, {"time": 2757, "pitch": 59, "duration": 2, "velocity": 74}, {"time": 2763, "pitch": 59, "duration": 2, "velocity": 93}, {"time": 2763, "pitch": 67, "duration": 3, "velocity": 83}, {"time": 2775, "pitch": 59, "duration": 2, "velocity": 93}, {"time": 2781, "pitch": 40, "duration": 2, "velocity": 85}, {"time": 2781, "pitch": 59, "duration": 2, "velocity": 93}, {"time": 2781, "pitch": 64, "duration": 6, "velocity": 103}, {"time": 2787, "pitch": 59, "duration": 2, "velocity": 93}, {"time": 2793, "pitch": 50, "duration": 21, "velocity": 80}, {"time": 2793, "pitch": 62, "duration": 6, "velocity": 70}, {"time": 2799, "pitch": 57, "duration": 13, "velocity": 90}, {"time": 2805, "pitch": 62, "duration": 2, "velocity": 95}, {"time": 2811, "pitch": 62, "duration": 14, "velocity": 87}, {"time": 2811, "pitch": 66, "duration": 14, "velocity": 83}, {"time": 2823, "pitch": 50, "duration": 12, "velocity": 80}, {"time": 2829, "pitch": 62, "duration": 6, "velocity": 83}, {"time": 2829, "pitch": 67, "duration": 8, "velocity": 80}, {"time": 2829, "pitch": 69, "duration": 3, "velocity": 93}, {"time": 2835, "pitch": 57, "duration": 2, "velocity": 70}, {"time": 2841, "pitch": 48, "duration": 20, "velocity": 83}, {"time": 2841, "pitch": 60, "duration": 8, "velocity": 80}, {"time": 2841, "pitch": 64, "duration": 8, "velocity": 87}, {"time": 2847, "pitch": 55, "duration": 13, "velocity": 80}, {"time": 2853, "pitch": 60, "duration": 2, "velocity": 80}, {"time": 2859, "pitch": 60, "duration": 2, "velocity": 102}, {"time": 2859, "pitch": 67, "duration": 2, "velocity": 93}, {"time": 2865, "pitch": 55, "duration": 6, "velocity": 55}, {"time": 2871, "pitch": 60, "duration": 6, "velocity": 95}, {"time": 2871, "pitch": 64, "duration": 7, "velocity": 105}, {"time": 2877, "pitch": 55, "duration": 2, "velocity": 74}, {"time": 2883, "pitch": 60, "duration": 2, "velocity": 105}, {"time": 2889, "pitch": 47, "duration": 16, "velocity": 85}, {"time": 2889, "pitch": 59, "duration": 8, "velocity": 90}, {"time": 2889, "pitch": 62, "duration": 8, "velocity": 93}, {"time": 2895, "pitch": 54, "duration": 8, "velocity": 65}, {"time": 2901, "pitch": 59, "duration": 2, "velocity": 93}, {"time": 2901, "pitch": 66, "duration": 6, "velocity": 93}, {"time": 2907, "pitch": 59, "duration": 3, "velocity": 102}, {"time": 2919, "pitch": 52, "duration": 13, "velocity": 68}, {"time": 2925, "pitch": 59, "duration": 2, "velocity": 102}, {"time": 2925, "pitch": 64, "duration": 7, "velocity": 105}, {"time": 2931, "pitch": 59, "duration": 2, "velocity": 93}, {"time": 2937, "pitch": 45, "duration": 38, "velocity": 87}, {"time": 2937, "pitch": 57, "duration": 8, "velocity": 83}, {"time": 2937, "pitch": 60, "duration": 12, "velocity": 87}, {"time": 2943, "pitch": 52, "duration": 19, "velocity": 56}, {"time": 2949, "pitch": 57, "duration": 3, "velocity": 102}, {"time": 2955, "pitch": 57, "duration": 12, "velocity": 103}, {"time": 2955, "pitch": 60, "duration": 12, "velocity": 103}, {"time": 2967, "pitch": 52, "duration": 6, "velocity": 51}, {"time": 2973, "pitch": 57, "duration": 2, "velocity": 93}, {"time": 2973, "pitch": 60, "duration": 9, "velocity": 95}, {"time": 2979, "pitch": 57, "duration": 3, "velocity": 83}, {"time": 2985, "pitch": 38, "duration": 1, "velocity": 102}, {"time": 2985, "pitch": 57, "duration": 3, "velocity": 102}, {"time": 2985, "pitch": 62, "duration": 4, "velocity": 93}, {"time": 2991, "pitch": 50, "duration": 3, "velocity": 53}, {"time": 2997, "pitch": 57, "duration": 7, "velocity": 102}, {"time": 3003, "pitch": 62, "duration": 7, "velocity": 93}, {"time": 3003, "pitch": 69, "duration": 5, "velocity": 103}, {"time": 3009, "pitch": 57, "duration": 15, "velocity": 80}, {"time": 3015, "pitch": 62, "duration": 4, "velocity": 103}, {"time": 3015, "pitch": 66, "duration": 1, "velocity": 55}, {"time": 3021, "pitch": 62, "duration": 3, "velocity": 95}, {"time": 3021, "pitch": 69, "duration": 4, "velocity": 103}, {"time": 3027, "pitch": 57, "duration": 5, "velocity": 87}, {"time": 3033, "pitch": 43, "duration": 36, "velocity": 93}, {"time": 3033, "pitch": 55, "duration": 8, "velocity": 87}, {"time": 3033, "pitch": 59, "duration": 12, "velocity": 87}, {"time": 3039, "pitch": 50, "duration": 15, "velocity": 50}, {"time": 3045, "pitch": 55, "duration": 2, "velocity": 74}, {"time": 3051, "pitch": 55, "duration": 11, "velocity": 95}, {"time": 3051, "pitch": 62, "duration": 9, "velocity": 93}, {"time": 3063, "pitch": 50, "duration": 7, "velocity": 56}, {"time": 3069, "pitch": 55, "duration": 2, "velocity": 90}, {"time": 3069, "pitch": 59, "duration": 2, "velocity": 90}, {"time": 3081, "pitch": 47, "duration": 39, "velocity": 80}, {"time": 3081, "pitch": 59, "duration": 8, "velocity": 74}, {"time": 3081, "pitch": 62, "duration": 8, "velocity": 83}, {"time": 3087, "pitch": 54, "duration": 13, "velocity": 59}, {"time": 3093, "pitch": 59, "duration": 2, "velocity": 80}, {"time": 3099, "pitch": 59, "duration": 2, "velocity": 87}, {"time": 3099, "pitch": 66, "duration": 2, "velocity": 93}, {"time": 3111, "pitch": 54, "duration": 7, "velocity": 51}, {"time": 3117, "pitch": 59, "duration": 2, "velocity": 87}, {"time": 3117, "pitch": 62, "duration": 3, "velocity": 102}, {"time": 3123, "pitch": 59, "duration": 1, "velocity": 83}, {"time": 3129, "pitch": 40, "duration": 31, "velocity": 85}, {"time": 3129, "pitch": 59, "duration": 7, "velocity": 59}, {"time": 3129, "pitch": 64, "duration": 11, "velocity": 72}, {"time": 3135, "pitch": 47, "duration": 25, "velocity": 68}, {"time": 3141, "pitch": 59, "duration": 2, "velocity": 74}, {"time": 3147, "pitch": 59, "duration": 2, "velocity": 93}, {"time": 3147, "pitch": 67, "duration": 3, "velocity": 83}, {"time": 3159, "pitch": 59, "duration": 2, "velocity": 93}, {"time": 3165, "pitch": 40, "duration": 2, "velocity": 85}, {"time": 3165, "pitch": 59, "duration": 2, "velocity": 93}, {"time": 3165, "pitch": 64, "duration": 6, "velocity": 103}, {"time": 3171, "pitch": 59, "duration": 2, "velocity": 93}, {"time": 3177, "pitch": 50, "duration": 21, "velocity": 80}, {"time": 3177, "pitch": 62, "duration": 6, "velocity": 70}, {"time": 3183, "pitch": 57, "duration": 13, "velocity": 90}, {"time": 3189, "pitch": 62, "duration": 2, "velocity": 95}, {"time": 3195, "pitch": 62, "duration": 14, "velocity": 87}, {"time": 3195, "pitch": 66, "duration": 14, "velocity": 83}, {"time": 3207, "pitch": 50, "duration": 12, "velocity": 80}, {"time": 3213, "pitch": 62, "duration": 6, "velocity": 83}, {"time": 3213, "pitch": 67, "duration": 8, "velocity": 80}, {"time": 3213, "pitch": 69, "duration": 3, "velocity": 93}, {"time": 3219, "pitch": 57, "duration": 2, "velocity": 70}, {"time": 3225, "pitch": 48, "duration": 20, "velocity": 83}, {"time": 3225, "pitch": 60, "duration": 8, "velocity": 80}, {"time": 3225, "pitch": 64, "duration": 8, "velocity": 87}, {"time": 3231, "pitch": 55, "duration": 13, "velocity": 80}, {"time": 3237, "pitch": 60, "duration": 2, "velocity": 80}, {"time": 3243, "pitch": 60, "duration": 2, "velocity": 102}, {"time": 3243, "pitch": 67, "duration": 2, "velocity": 93}, {"time": 3249, "pitch": 55, "duration": 6, "velocity": 55}, {"time": 3255, "pitch": 60, "duration": 6, "velocity": 95}, {"time": 3255, "pitch": 64, "duration": 7, "velocity": 105}, {"time": 3261, "pitch": 55, "duration": 2, "velocity": 74}, {"time": 3267, "pitch": 60, "duration": 2, "velocity": 105}, {"time": 3273, "pitch": 47, "duration": 16, "velocity": 85}, {"time": 3273, "pitch": 59, "duration": 8, "velocity": 90}, {"time": 3273, "pitch": 62, "duration": 8, "velocity": 93}, {"time": 3279, "pitch": 54, "duration": 8, "velocity": 65}, {"time": 3285, "pitch": 59, "duration": 2, "velocity": 93}, {"time": 3285, "pitch": 66, "duration": 6, "velocity": 93}, {"time": 3291, "pitch": 59, "duration": 3, "velocity": 102}, {"time": 3303, "pitch": 52, "duration": 13, "velocity": 68}, {"time": 3309, "pitch": 59, "duration": 2, "velocity": 102}, {"time": 3309, "pitch": 64, "duration": 7, "velocity": 105}, {"time": 3315, "pitch": 59, "duration": 2, "velocity": 93}, {"time": 3321, "pitch": 45, "duration": 38, "velocity": 87}, {"time": 3321, "pitch": 57, "duration": 8, "velocity": 83}, {"time": 3321, "pitch": 60, "duration": 12, "velocity": 87}, {"time": 3327, "pitch": 52, "duration": 19, "velocity": 56}, {"time": 3333, "pitch": 57, "duration": 3, "velocity": 102}, {"time": 3339, "pitch": 57, "duration": 12, "velocity": 103}, {"time": 3339, "pitch": 60, "duration": 12, "velocity": 103}, {"time": 3351, "pitch": 52, "duration": 6, "velocity": 51}, {"time": 3357, "pitch": 57, "duration": 2, "velocity": 93}, {"time": 3357, "pitch": 60, "duration": 9, "velocity": 95}, {"time": 3363, "pitch": 57, "duration": 3, "velocity": 83}, {"time": 3369, "pitch": 38, "duration": 1, "velocity": 102}, {"time": 3369, "pitch": 57, "duration": 3, "velocity": 102}, {"time": 3369, "pitch": 62, "duration": 4, "velocity": 93}, {"time": 3375, "pitch": 50, "duration": 3, "velocity": 53}, {"time": 3381, "pitch": 57, "duration": 7, "velocity": 102}, {"time": 3387, "pitch": 62, "duration": 7, "velocity": 93}, {"time": 3387, "pitch": 69, "duration": 5, "velocity": 103}, {"time": 3393, "pitch": 57, "duration": 15, "velocity": 80}, {"time": 3399, "pitch": 62, "duration": 4, "velocity": 103}, {"time": 3399, "pitch": 66, "duration": 1, "velocity": 55}, {"time": 3405, "pitch": 62, "duration": 3, "velocity": 95}, {"time": 3405, "pitch": 69, "duration": 4, "velocity": 103}, {"time": 3411, "pitch": 57, "duration": 5, "velocity": 87}, {"time": 3417, "pitch": 43, "duration": 40, "velocity": 93}, {"time": 3417, "pitch": 55, "duration": 7, "velocity": 70}, {"time": 3417, "pitch": 62, "duration": 8, "velocity": 74}, {"time": 3423, "pitch": 50, "duration": 14, "velocity": 68}, {"time": 3429, "pitch": 55, "duration": 2, "velocity": 95}, {"time": 3435, "pitch": 55, "duration": 3, "velocity": 87}, {"time": 3435, "pitch": 62, "duration": 2, "velocity": 90}, {"time": 3441, "pitch": 50, "duration": 17, "velocity": 65}, {"time": 3447, "pitch": 55, "duration": 2, "velocity": 71}, {"time": 3447, "pitch": 59, "duration": 2, "velocity": 72}, {"time": 3453, "pitch": 55, "duration": 2, "velocity": 87}, {"time": 3453, "pitch": 62, "duration": 4, "velocity": 93}, {"time": 3465, "pitch": 47, "duration": 43, "velocity": 80}, {"time": 3465, "pitch": 59, "duration": 8, "velocity": 70}, {"time": 3465, "pitch": 62, "duration": 8, "velocity": 74}, {"time": 3471, "pitch": 54, "duration": 14, "velocity": 59}, {"time": 3477, "pitch": 59, "duration": 2, "velocity": 87}, {"time": 3477, "pitch": 66, "duration": 2, "velocity": 80}, {"time": 3483, "pitch": 59, "duration": 8, "velocity": 85}, {"time": 3483, "pitch": 66, "duration": 12, "velocity": 93}, {"time": 3489, "pitch": 54, "duration": 18, "velocity": 68}, {"time": 3495, "pitch": 62, "duration": 12, "velocity": 93}, {"time": 3507, "pitch": 59, "duration": 3, "velocity": 95}, {"time": 3513, "pitch": 48, "duration": 38, "velocity": 83}, {"time": 3513, "pitch": 60, "duration": 8, "velocity": 74}, {"time": 3513, "pitch": 64, "duration": 12, "velocity": 87}, {"time": 3519, "pitch": 55, "duration": 32, "velocity": 74}, {"time": 3525, "pitch": 60, "duration": 2, "velocity": 87}, {"time": 3531, "pitch": 60, "duration": 6, "velocity": 80}, {"time": 3531, "pitch": 67, "duration": 5, "velocity": 93}, {"time": 3537, "pitch": 64, "duration": 3, "velocity": 74}, {"time": 3543, "pitch": 60, "duration": 2, "velocity": 85}, {"time": 3549, "pitch": 60, "duration": 3, "velocity": 87}, {"time": 3549, "pitch": 67, "duration": 5, "velocity": 93}, {"time": 3555, "pitch": 48, "duration": 2, "velocity": 87}, {"time": 3561, "pitch": 50, "duration": 46, "velocity": 87}, {"time": 3561, "pitch": 62, "duration": 7, "velocity": 83}, {"time": 3561, "pitch": 66, "duration": 8, "velocity": 71}, {"time": 3567, "pitch": 57, "duration": 26, "velocity": 80}, {"time": 3573, "pitch": 62, "duration": 1, "velocity": 87}, {"time": 3573, "pitch": 69, "duration": 2, "velocity": 87}, {"time": 3579, "pitch": 62, "duration": 2, "velocity": 87}, {"time": 3579, "pitch": 74, "duration": 2, "velocity": 95}, {"time": 3591, "pitch": 62, "duration": 17, "velocity": 74}, {"time": 3591, "pitch": 69, "duration": 17, "velocity": 90}, {"time": 3597, "pitch": 54, "duration": 7, "velocity": 74}, {"time": 3603, "pitch": 57, "duration": 5, "velocity": 102}, {"time": 3609, "pitch": 43, "duration": 40, "velocity": 93}, {"time": 3609, "pitch": 55, "duration": 7, "velocity": 70}, {"time": 3609, "pitch": 62, "duration": 8, "velocity": 74}, {"time": 3615, "pitch": 50, "duration": 14, "velocity": 68}, {"time": 3621, "pitch": 55, "duration": 2, "velocity": 95}, {"time": 3627, "pitch": 55, "duration": 3, "velocity": 87}, {"time": 3627, "pitch": 62, "duration": 2, "velocity": 90}, {"time": 3633, "pitch": 50, "duration": 17, "velocity": 65}, {"time": 3639, "pitch": 55, "duration": 2, "velocity": 71}, {"time": 3639, "pitch": 59, "duration": 2, "velocity": 72}, {"time": 3645, "pitch": 55, "duration": 2, "velocity": 87}, {"time": 3645, "pitch": 62, "duration": 4, "velocity": 93}, {"time": 3657, "pitch": 47, "duration": 43, "velocity": 80}, {"time": 3657, "pitch": 59, "duration": 8, "velocity": 70}, {"time": 3657, "pitch": 62, "duration": 8, "velocity": 74}, {"time": 3663, "pitch": 54, "duration": 14, "velocity": 59}, {"time": 3669, "pitch": 59, "duration": 2, "velocity": 87}, {"time": 3669, "pitch": 66, "duration": 2, "velocity": 80}, {"time": 3675, "pitch": 59, "duration": 8, "velocity": 85}, {"time": 3675, "pitch": 66, "duration": 12, "velocity": 93}, {"time": 3681, "pitch": 54, "duration": 18, "velocity": 68}, {"time": 3687, "pitch": 62, "duration": 12, "velocity": 93}, {"time": 3699, "pitch": 59, "duration": 3, "velocity": 95}, {"time": 3705, "pitch": 48, "duration": 38, "velocity": 83}, {"time": 3705, "pitch": 60, "duration": 8, "velocity": 74}, {"time": 3705, "pitch": 64, "duration": 12, "velocity": 87}, {"time": 3711, "pitch": 55, "duration": 32, "velocity": 74}, {"time": 3717, "pitch": 60, "duration": 2, "velocity": 87}, {"time": 3723, "pitch": 60, "duration": 6, "velocity": 80}, {"time": 3723, "pitch": 67, "duration": 5, "velocity": 93}, {"time": 3729, "pitch": 64, "duration": 3, "velocity": 74}, {"time": 3735, "pitch": 60, "duration": 2, "velocity": 85}, {"time": 3741, "pitch": 60, "duration": 3, "velocity": 87}, {"time": 3741, "pitch": 67, "duration": 5, "velocity": 93}, {"time": 3747, "pitch": 48, "duration": 2, "velocity": 87}, {"time": 3753, "pitch": 50, "duration": 46, "velocity": 87}, {"time": 3753, "pitch": 62, "duration": 7, "velocity": 83}, {"time": 3753, "pitch": 66, "duration": 8, "velocity": 71}, {"time": 3759, "pitch": 57, "duration": 26, "velocity": 80}, {"time": 3765, "pitch": 62, "duration": 1, "velocity": 87}, {"time": 3765, "pitch": 69, "duration": 2, "velocity": 87}, {"time": 3771, "pitch": 62, "duration": 2, "velocity": 87}, {"time": 3771, "pitch": 74, "duration": 2, "velocity": 95}, {"time": 3783, "pitch": 62, "duration": 17, "velocity": 74}, {"time": 3783, "pitch": 69, "duration": 17, "velocity": 90}, {"time": 3789, "pitch": 54, "duration": 7, "velocity": 74}, {"time": 3795, "pitch": 57, "duration": 5, "velocity": 102}, {"time": 3801, "pitch": 43, "duration": 38, "velocity": 87}, {"time": 3801, "pitch": 55, "duration": 7, "velocity": 74}, {"time": 3801, "pitch": 62, "duration": 8, "velocity": 85}, {"time": 3807, "pitch": 50, "duration": 25, "velocity": 65}, {"time": 3813, "pitch": 55, "duration": 2, "velocity": 80}, {"time": 3819, "pitch": 55, "duration": 2, "velocity": 87}, {"time": 3819, "pitch": 62, "duration": 2, "velocity": 105}, {"time": 3831, "pitch": 55, "duration": 7, "velocity": 71}, {"time": 3831, "pitch": 59, "duration": 12, "velocity": 80}, {"time": 3837, "pitch": 50, "duration": 5, "velocity": 69}, {"time": 3843, "pitch": 55, "duration": 1, "velocity": 93}, {"time": 3849, "pitch": 47, "duration": 40, "velocity": 65}, {"time": 3849, "pitch": 59, "duration": 6, "velocity": 74}, {"time": 3849, "pitch": 62, "duration": 7, "velocity": 67}, {"time": 3855, "pitch": 54, "duration": 14, "velocity": 68}, {"time": 3867, "pitch": 59, "duration": 3, "velocity": 90}, {"time": 3867, "pitch": 66, "duration": 3, "velocity": 85}, {"time": 3873, "pitch": 54, "duration": 14, "velocity": 55}, {"time": 3879, "pitch": 59, "duration": 1, "velocity": 64}, {"time": 3885, "pitch": 62, "duration": 7, "velocity": 103}, {"time": 3891, "pitch": 59, "duration": 2, "velocity": 80}, {"time": 3897, "pitch": 48, "duration": 43, "velocity": 80}, {"time": 3897, "pitch": 60, "duration": 7, "velocity": 80}, {"time": 3897, "pitch": 64, "duration": 10, "velocity": 85}, {"time": 3903, "pitch": 55, "duration": 14, "velocity": 68}, {"time": 3915, "pitch": 60, "duration": 8, "velocity": 85}, {"time": 3915, "pitch": 67, "duration": 7, "velocity": 93}, {"time": 3921, "pitch": 55, "duration": 20, "velocity": 69}, {"time": 3927, "pitch": 60, "duration": 2, "velocity": 68}, {"time": 3933, "pitch": 60, "duration": 3, "velocity": 87}, {"time": 3933, "pitch": 64, "duration": 3, "velocity": 102}, {"time": 3939, "pitch": 67, "duration": 2, "velocity": 93}, {"time": 3945, "pitch": 50, "duration": 36, "velocity": 87}, {"time": 3945, "pitch": 62, "duration": 5, "velocity": 70}, {"time": 3945, "pitch": 66, "duration": 5, "velocity": 74}, {"time": 3951, "pitch": 57, "duration": 14, "velocity": 65}, {"time": 3957, "pitch": 62, "duration": 2, "velocity": 74}, {"time": 3963, "pitch": 62, "duration": 4, "velocity": 85}, {"time": 3963, "pitch": 69, "duration": 5, "velocity": 93}, {"time": 3966, "pitch": 57, "duration": 8, "velocity": 68}, {"time": 3975, "pitch": 62, "duration": 7, "velocity": 80}, {"time": 3975, "pitch": 66, "duration": 7, "velocity": 87}, {"time": 3981, "pitch": 57, "duration": 2, "velocity": 68}, {"time": 3993, "pitch": 43, "duration": 38, "velocity": 87}, {"time": 3993, "pitch": 55, "duration": 7, "velocity": 74}, {"time": 3993, "pitch": 62, "duration": 8, "velocity": 85}, {"time": 3999, "pitch": 50, "duration": 25, "velocity": 65}, {"time": 4005, "pitch": 55, "duration": 2, "velocity": 80}, {"time": 4011, "pitch": 55, "duration": 2, "velocity": 87}, {"time": 4011, "pitch": 62, "duration": 2, "velocity": 105}, {"time": 4023, "pitch": 55, "duration": 7, "velocity": 71}, {"time": 4023, "pitch": 59, "duration": 12, "velocity": 80}, {"time": 4029, "pitch": 50, "duration": 5, "velocity": 69}, {"time": 4035, "pitch": 55, "duration": 1, "velocity": 93}, {"time": 4041, "pitch": 47, "duration": 40, "velocity": 65}, {"time": 4041, "pitch": 59, "duration": 6, "velocity": 74}, {"time": 4041, "pitch": 62, "duration": 7, "velocity": 67}, {"time": 4047, "pitch": 54, "duration": 14, "velocity": 68}, {"time": 4059, "pitch": 59, "duration": 3, "velocity": 90}, {"time": 4059, "pitch": 66, "duration": 3, "velocity": 85}, {"time": 4065, "pitch": 54, "duration": 14, "velocity": 55}, {"time": 4071, "pitch": 59, "duration": 1, "velocity": 64}, {"time": 4077, "pitch": 62, "duration": 7, "velocity": 103}, {"time": 4083, "pitch": 59, "duration": 2, "velocity": 80}, {"time": 4089, "pitch": 48, "duration": 43, "velocity": 80}, {"time": 4089, "pitch": 60, "duration": 7, "velocity": 80}, {"time": 4089, "pitch": 64, "duration": 10, "velocity": 85}, {"time": 4095, "pitch": 55, "duration": 14, "velocity": 68}, {"time": 4107, "pitch": 60, "duration": 8, "velocity": 85}, {"time": 4107, "pitch": 67, "duration": 7, "velocity": 93}, {"time": 4113, "pitch": 55, "duration": 20, "velocity": 69}, {"time": 4119, "pitch": 60, "duration": 2, "velocity": 68}, {"time": 4125, "pitch": 60, "duration": 3, "velocity": 87}, {"time": 4125, "pitch": 64, "duration": 3, "velocity": 102}, {"time": 4131, "pitch": 67, "duration": 2, "velocity": 93}, {"time": 4137, "pitch": 50, "duration": 36, "velocity": 87}, {"time": 4137, "pitch": 62, "duration": 5, "velocity": 70}, {"time": 4137, "pitch": 66, "duration": 5, "velocity": 74}, {"time": 4143, "pitch": 57, "duration": 14, "velocity": 65}, {"time": 4149, "pitch": 62, "duration": 2, "velocity": 74}, {"time": 4155, "pitch": 62, "duration": 4, "velocity": 85}, {"time": 4155, "pitch": 69, "duration": 5, "velocity": 93}, {"time": 4158, "pitch": 57, "duration": 8, "velocity": 68}, {"time": 4167, "pitch": 62, "duration": 7, "velocity": 80}, {"time": 4167, "pitch": 66, "duration": 7, "velocity": 87}, {"time": 4173, "pitch": 57, "duration": 2, "velocity": 68}, {"time": 4185, "pitch": 43, "duration": 38, "velocity": 87}, {"time": 4185, "pitch": 55, "duration": 7, "velocity": 74}, {"time": 4185, "pitch": 62, "duration": 8, "velocity": 85}, {"time": 4191, "pitch": 50, "duration": 25, "velocity": 65}, {"time": 4197, "pitch": 55, "duration": 2, "velocity": 80}, {"time": 4203, "pitch": 55, "duration": 2, "velocity": 87}, {"time": 4203, "pitch": 62, "duration": 2, "velocity": 105}, {"time": 4215, "pitch": 55, "duration": 7, "velocity": 71}, {"time": 4215, "pitch": 59, "duration": 12, "velocity": 80}, {"time": 4221, "pitch": 50, "duration": 5, "velocity": 69}, {"time": 4227, "pitch": 55, "duration": 1, "velocity": 93}, {"time": 4233, "pitch": 47, "duration": 40, "velocity": 65}, {"time": 4233, "pitch": 59, "duration": 6, "velocity": 74}, {"time": 4233, "pitch": 62, "duration": 7, "velocity": 67}, {"time": 4239, "pitch": 54, "duration": 14, "velocity": 68}, {"time": 4251, "pitch": 59, "duration": 3, "velocity": 90}, {"time": 4251, "pitch": 66, "duration": 3, "velocity": 85}, {"time": 4257, "pitch": 54, "duration": 14, "velocity": 55}, {"time": 4263, "pitch": 59, "duration": 1, "velocity": 64}, {"time": 4269, "pitch": 62, "duration": 7, "velocity": 103}, {"time": 4275, "pitch": 59, "duration": 2, "velocity": 80}, {"time": 4281, "pitch": 48, "duration": 43, "velocity": 80}, {"time": 4281, "pitch": 60, "duration": 7, "velocity": 80}, {"time": 4281, "pitch": 64, "duration": 10, "velocity": 85}, {"time": 4287, "pitch": 55, "duration": 14, "velocity": 68}, {"time": 4299, "pitch": 60, "duration": 8, "velocity": 85}, {"time": 4299, "pitch": 67, "duration": 7, "velocity": 93}, {"time": 4305, "pitch": 55, "duration": 20, "velocity": 69}, {"time": 4311, "pitch": 60, "duration": 2, "velocity": 68}, {"time": 4317, "pitch": 60, "duration": 3, "velocity": 87}, {"time": 4317, "pitch": 64, "duration": 3, "velocity": 102}, {"time": 4323, "pitch": 67, "duration": 2, "velocity": 93}, {"time": 4329, "pitch": 50, "duration": 36, "velocity": 87}, {"time": 4329, "pitch": 62, "duration": 5, "velocity": 70}, {"time": 4329, "pitch": 66, "duration": 5, "velocity": 74}, {"time": 4335, "pitch": 57, "duration": 14, "velocity": 65}, {"time": 4341, "pitch": 62, "duration": 2, "velocity": 74}, {"time": 4347, "pitch": 62, "duration": 4, "velocity": 85}, {"time": 4347, "pitch": 69, "duration": 5, "velocity": 93}, {"time": 4350, "pitch": 57, "duration": 8, "velocity": 68}, {"time": 4359, "pitch": 62, "duration": 7, "velocity": 80}, {"time": 4359, "pitch": 66, "duration": 7, "velocity": 87}, {"time": 4365, "pitch": 57, "duration": 2, "velocity": 68}], "annotations": [{"time": 62, "annotation": {"number": 64, "value": 127}, "group": "control_change"}, {"time": 104, "annotation": {"number": 64, "value": 0}, "group": "control_change"}, {"time": 106, "annotation": {"number": 64, "value": 127}, "group": "control_change"}, {"time": 151, "annotation": {"number": 64, "value": 0}, "group": "control_change"}, {"time": 154, "annotation": {"number": 64, "value": 127}, "group": "control_change"}, {"time": 199, "annotation": {"number": 64, "value": 0}, "group": "control_change"}, {"time": 202, "annotation": {"number": 64, "value": 127}, "group": "control_change"}, {"time": 248, "annotation": {"number": 64, "value": 0}, "group": "control_change"}, {"time": 256, "annotation": {"number": 64, "value": 127}, "group": "control_change"}, {"time": 299, "annotation": {"number": 64, "value": 0}, "group": "control_change"}, {"time": 302, "annotation": {"number": 64, "value": 127}, "group": "control_change"}, {"time": 344, "annotation": {"number": 64, "value": 0}, "group": "control_change"}, {"time": 347, "annotation": {"number": 64, "value": 127}, "group": "control_change"}, {"time": 392, "annotation": {"number": 64, "value": 0}, "group": "control_change"}, {"time": 396, "annotation": {"number": 64, "value": 127}, "group": "control_change"}, {"time": 440, "annotation": {"number": 64, "value": 0}, "group": "control_change"}, {"time": 447, "annotation": {"number": 64, "value": 127}, "group": "control_change"}, {"time": 488, "annotation": {"number": 64, "value": 0}, "group": "control_change"}, {"time": 492, "annotation": {"number": 64, "value": 127}, "group": "control_change"}, {"time": 511, "annotation": {"number": 64, "value": 0}, "group": "control_change"}, {"time": 514, "annotation": {"number": 64, "value": 127}, "group": "control_change"}, {"time": 537, "annotation": {"number": 64, "value": 0}, "group": "control_change"}, {"time": 544, "annotation": {"number": 64, "value": 127}, "group": "control_change"}, {"time": 584, "annotation": {"number": 64, "value": 0}, "group": "control_change"}, {"time": 586, "annotation": {"number": 64, "value": 127}, "group": "control_change"}, {"time": 630, "annotation": {"number": 64, "value": 0}, "group": "control_change"}, {"time": 640, "annotation": {"number": 64, "value": 127}, "group": "control_change"}, {"time": 683, "annotation": {"number": 64, "value": 0}, "group": "control_change"}, {"time": 686, "annotation": {"number": 64, "value": 127}, "group": "control_change"}, {"time": 728, "annotation": {"number": 64, "value": 0}, "group": "control_change"}, {"time": 731, "annotation": {"number": 64, "value": 127}, "group": "control_change"}, {"time": 776, "annotation": {"number": 64, "value": 0}, "group": "control_change"}, {"time": 780, "annotation": {"number": 64, "value": 127}, "group": "control_change"}, {"time": 824, "annotation": {"number": 64, "value": 0}, "group": "control_change"}, {"time": 831, "annotation": {"number": 64, "value": 127}, "group": "control_change"}, {"time": 872, "annotation": {"number": 64, "value": 0}, "group": "control_change"}, {"time": 876, "annotation": {"number": 64, "value": 127}, "group": "control_change"}, {"time": 895, "annotation": {"number": 64, "value": 0}, "group": "control_change"}, {"time": 898, "annotation": {"number": 64, "value": 127}, "group": "control_change"}, {"time": 921, "annotation": {"number": 64, "value": 0}, "group": "control_change"}, {"time": 928, "annotation": {"number": 64, "value": 127}, "group": "control_change"}, {"time": 968, "annotation": {"number": 64, "value": 0}, "group": "control_change"}, {"time": 970, "annotation": {"number": 64, "value": 127}, "group": "control_change"}, {"time": 1014, "annotation": {"number": 64, "value": 0}, "group": "control_change"}, {"time": 1023, "annotation": {"number": 64, "value": 127}, "group": "control_change"}, {"time": 1024, "annotation": {"number": 64, "value": 0}, "group": "control_change"}, {"time": 1028, "annotation": {"number": 64, "value": 127}, "group": "control_change"}, {"time": 1065, "annotation": {"number": 64, "value": 0}, "group": "control_change"}, {"time": 1067, "annotation": {"number": 64, "value": 127}, "group": "control_change"}, {"time": 1114, "annotation": {"number": 64, "value": 0}, "group": "control_change"}, {"time": 1116, "annotation": {"number": 64, "value": 127}, "group": "control_change"}, {"time": 1162, "annotation": {"number": 64, "value": 0}, "group": "control_change"}, {"time": 1164, "annotation": {"number": 64, "value": 127}, "group": "control_change"}, {"time": 1209, "annotation": {"number": 64, "value": 0}, "group": "control_change"}, {"time": 1212, "annotation": {"number": 64, "value": 127}, "group": "control_change"}, {"time": 1255, "annotation": {"number": 64, "value": 0}, "group": "control_change"}, {"time": 1257, "annotation": {"number": 64, "value": 127}, "group": "control_change"}, {"time": 1281, "annotation": {"number": 64, "value": 0}, "group": "control_change"}, {"time": 1282, "annotation": {"number": 64, "value": 127}, "group": "control_change"}, {"time": 1306, "annotation": {"number": 64, "value": 0}, "group": "control_change"}, {"time": 1307, "annotation": {"number": 64, "value": 127}, "group": "control_change"}, {"time": 1351, "annotation": {"number": 64, "value": 0}, "group": "control_change"}, {"time": 1352, "annotation": {"number": 64, "value": 127}, "group": "control_change"}, {"time": 1400, "annotation": {"number": 64, "value": 0}, "group": "control_change"}, {"time": 1407, "annotation": {"number": 64, "value": 127}, "group": "control_change"}, {"time": 1408, "annotation": {"number": 64, "value": 0}, "group": "control_change"}, {"time": 1412, "annotation": {"number": 64, "value": 127}, "group": "control_change"}, {"time": 1449, "annotation": {"number": 64, "value": 0}, "group": "control_change"}, {"time": 1451, "annotation": {"number": 64, "value": 127}, "group": "control_change"}, {"time": 1498, "annotation": {"number": 64, "value": 0}, "group": "control_change"}, {"time": 1500, "annotation": {"number": 64, "value": 127}, "group": "control_change"}, {"time": 1546, "annotation": {"number": 64, "value": 0}, "group": "control_change"}, {"time": 1548, "annotation": {"number": 64, "value": 127}, "group": "control_change"}, {"time": 1593, "annotation": {"number": 64, "value": 0}, "group": "control_change"}, {"time": 1596, "annotation": {"number": 64, "value": 127}, "group": "control_change"}, {"time": 1639, "annotation": {"number": 64, "value": 0}, "group": "control_change"}, {"time": 1641, "annotation": {"number": 64, "value": 127}, "group": "control_change"}, {"time": 1665, "annotation": {"number": 64, "value": 0}, "group": "control_change"}, {"time": 1666, "annotation": {"number": 64, "value": 127}, "group": "control_change"}, {"time": 1690, "annotation": {"number": 64, "value": 0}, "group": "control_change"}, {"time": 1691, "annotation": {"number": 64, "value": 127}, "group": "control_change"}, {"time": 1735, "annotation": {"number": 64, "value": 0}, "group": "control_change"}, {"time": 1736, "annotation": {"number": 64, "value": 127}, "group": "control_change"}, {"time": 1784, "annotation": {"number": 64, "value": 0}, "group": "control_change"}, {"time": 1788, "annotation": {"number": 64, "value": 127}, "group": "control_change"}, {"time": 1834, "annotation": {"number": 64, "value": 0}, "group": "control_change"}, {"time": 1836, "annotation": {"number": 64, "value": 127}, "group": "control_change"}, {"time": 1882, "annotation": {"number": 64, "value": 0}, "group": "control_change"}, {"time": 1883, "annotation": {"number": 64, "value": 127}, "group": "control_change"}, {"time": 1928, "annotation": {"number": 64, "value": 0}, "group": "control_change"}, {"time": 1930, "annotation": {"number": 64, "value": 127}, "group": "control_change"}, {"time": 1974, "annotation": {"number": 64, "value": 0}, "group": "control_change"}, {"time": 1980, "annotation": {"number": 64, "value": 127}, "group": "control_change"}, {"time": 2026, "annotation": {"number": 64, "value": 0}, "group": "control_change"}, {"time": 2028, "annotation": {"number": 64, "value": 127}, "group": "control_change"}, {"time": 2074, "annotation": {"number": 64, "value": 0}, "group": "control_change"}, {"time": 2075, "annotation": {"number": 64, "value": 127}, "group": "control_change"}, {"time": 2120, "annotation": {"number": 64, "value": 0}, "group": "control_change"}, {"time": 2122, "annotation": {"number": 64, "value": 127}, "group": "control_change"}, {"time": 2166, "annotation": {"number": 64, "value": 0}, "group": "control_change"}, {"time": 2171, "annotation": {"number": 64, "value": 127}, "group": "control_change"}, {"time": 2238, "annotation": {"number": 64, "value": 0}, "group": "control_change"}, {"time": 2247, "annotation": {"number": 64, "value": 127}, "group": "control_change"}, {"time": 2262, "annotation": {"number": 64, "value": 0}, "group": "control_change"}, {"time": 2272, "annotation": {"number": 64, "value": 127}, "group": "control_change"}, {"time": 2315, "annotation": {"number": 64, "value": 0}, "group": "control_change"}, {"time": 2318, "annotation": {"number": 64, "value": 127}, "group": "control_change"}, {"time": 2360, "annotation": {"number": 64, "value": 0}, "group": "control_change"}, {"time": 2363, "annotation": {"number": 64, "value": 127}, "group": "control_change"}, {"time": 2408, "annotation": {"number": 64, "value": 0}, "group": "control_change"}, {"time": 2412, "annotation": {"number": 64, "value": 127}, "group": "control_change"}, {"time": 2456, "annotation": {"number": 64, "value": 0}, "group": "control_change"}, {"time": 2463, "annotation": {"number": 64, "value": 127}, "group": "control_change"}, {"time": 2504, "annotation": {"number": 64, "value": 0}, "group": "control_change"}, {"time": 2508, "annotation": {"number": 64, "value": 127}, "group": "control_change"}, {"time": 2527, "annotation": {"number": 64, "value": 0}, "group": "control_change"}, {"time": 2530, "annotation": {"number": 64, "value": 127}, "group": "control_change"}, {"time": 2553, "annotation": {"number": 64, "value": 0}, "group": "control_change"}, {"time": 2560, "annotation": {"number": 64, "value": 127}, "group": "control_change"}, {"time": 2600, "annotation": {"number": 64, "value": 0}, "group": "control_change"}, {"time": 2602, "annotation": {"number": 64, "value": 127}, "group": "control_change"}, {"time": 2646, "annotation": {"number": 64, "value": 0}, "group": "control_change"}, {"time": 2655, "annotation": {"number": 64, "value": 127}, "group": "control_change"}, {"time": 2656, "annotation": {"number": 64, "value": 0}, "group": "control_change"}, {"time": 2660, "annotation": {"number": 64, "value": 127}, "group": "control_change"}, {"time": 2697, "annotation": {"number": 64, "value": 0}, "group": "control_change"}, {"time": 2699, "annotation": {"number": 64, "value": 127}, "group": "control_change"}, {"time": 2746, "annotation": {"number": 64, "value": 0}, "group": "control_change"}, {"time": 2748, "annotation": {"number": 64, "value": 127}, "group": "control_change"}, {"time": 2794, "annotation": {"number": 64, "value": 0}, "group": "control_change"}, {"time": 2796, "annotation": {"number": 64, "value": 127}, "group": "control_change"}, {"time": 2841, "annotation": {"number": 64, "value": 0}, "group": "control_change"}, {"time": 2844, "annotation": {"number": 64, "value": 127}, "group": "control_change"}, {"time": 2887, "annotation": {"number": 64, "value": 0}, "group": "control_change"}, {"time": 2889, "annotation": {"number": 64, "value": 127}, "group": "control_change"}, {"time": 2913, "annotation": {"number": 64, "value": 0}, "group": "control_change"}, {"time": 2914, "annotation": {"number": 64, "value": 127}, "group": "control_change"}, {"time": 2938, "annotation": {"number": 64, "value": 0}, "group": "control_change"}, {"time": 2939, "annotation": {"number": 64, "value": 127}, "group": "control_change"}, {"time": 2983, "annotation": {"number": 64, "value": 0}, "group": "control_change"}, {"time": 2984, "annotation": {"number": 64, "value": 127}, "group": "control_change"}, {"time": 3032, "annotation": {"number": 64, "value": 0}, "group": "control_change"}, {"time": 3039, "annotation": {"number": 64, "value": 127}, "group": "control_change"}, {"time": 3040, "annotation": {"number": 64, "value": 0}, "group": "control_change"}, {"time": 3044, "annotation": {"number": 64, "value": 127}, "group": "control_change"}, {"time": 3081, "annotation": {"number": 64, "value": 0}, "group": "control_change"}, {"time": 3083, "annotation": {"number": 64, "value": 127}, "group": "control_change"}, {"time": 3130, "annotation": {"number": 64, "value": 0}, "group": "control_change"}, {"time": 3132, "annotation": {"number": 64, "value": 127}, "group": "control_change"}, {"time": 3178, "annotation": {"number": 64, "value": 0}, "group": "control_change"}, {"time": 3180, "annotation": {"number": 64, "value": 127}, "group": "control_change"}, {"time": 3225, "annotation": {"number": 64, "value": 0}, "group": "control_change"}, {"time": 3228, "annotation": {"number": 64, "value": 127}, "group": "control_change"}, {"time": 3271, "annotation": {"number": 64, "value": 0}, "group": "control_change"}, {"time": 3273, "annotation": {"number": 64, "value": 127}, "group": "control_change"}, {"time": 3297, "annotation": {"number": 64, "value": 0}, "group": "control_change"}, {"time": 3298, "annotation": {"number": 64, "value": 127}, "group": "control_change"}, {"time": 3322, "annotation": {"number": 64, "value": 0}, "group": "control_change"}, {"time": 3323, "annotation": {"number": 64, "value": 127}, "group": "control_change"}, {"time": 3367, "annotation": {"number": 64, "value": 0}, "group": "control_change"}, {"time": 3368, "annotation": {"number": 64, "value": 127}, "group": "control_change"}, {"time": 3416, "annotation": {"number": 64, "value": 0}, "group": "control_change"}, {"time": 3420, "annotation": {"number": 64, "value": 127}, "group": "control_change"}, {"time": 3466, "annotation": {"number": 64, "value": 0}, "group": "control_change"}, {"time": 3468, "annotation": {"number": 64, "value": 127}, "group": "control_change"}, {"time": 3514, "annotation": {"number": 64, "value": 0}, "group": "control_change"}, {"time": 3515, "annotation": {"number": 64, "value": 127}, "group": "control_change"}, {"time": 3560, "annotation": {"number": 64, "value": 0}, "group": "control_change"}, {"time": 3562, "annotation": {"number": 64, "value": 127}, "group": "control_change"}, {"time": 3606, "annotation": {"number": 64, "value": 0}, "group": "control_change"}, {"time": 3612, "annotation": {"number": 64, "value": 127}, "group": "control_change"}, {"time": 3658, "annotation": {"number": 64, "value": 0}, "group": "control_change"}, {"time": 3660, "annotation": {"number": 64, "value": 127}, "group": "control_change"}, {"time": 3706, "annotation": {"number": 64, "value": 0}, "group": "control_change"}, {"time": 3707, "annotation": {"number": 64, "value": 127}, "group": "control_change"}, {"time": 3752, "annotation": {"number": 64, "value": 0}, "group": "control_change"}, {"time": 3754, "annotation": {"number": 64, "value": 127}, "group": "control_change"}, {"time": 3798, "annotation": {"number": 64, "value": 0}, "group": "control_change"}, {"time": 3806, "annotation": {"number": 64, "value": 127}, "group": "control_change"}, {"time": 3848, "annotation": {"number": 64, "value": 0}, "group": "control_change"}, {"time": 3850, "annotation": {"number": 64, "value": 127}, "group": "control_change"}, {"time": 3895, "annotation": {"number": 64, "value": 0}, "group": "control_change"}, {"time": 3898, "annotation": {"number": 64, "value": 127}, "group": "control_change"}, {"time": 3943, "annotation": {"number": 64, "value": 0}, "group": "control_change"}, {"time": 3946, "annotation": {"number": 64, "value": 127}, "group": "control_change"}, {"time": 3992, "annotation": {"number": 64, "value": 0}, "group": "control_change"}, {"time": 3998, "annotation": {"number": 64, "value": 127}, "group": "control_change"}, {"time": 4040, "annotation": {"number": 64, "value": 0}, "group": "control_change"}, {"time": 4042, "annotation": {"number": 64, "value": 127}, "group": "control_change"}, {"time": 4087, "annotation": {"number": 64, "value": 0}, "group": "control_change"}, {"time": 4090, "annotation": {"number": 64, "value": 127}, "group": "control_change"}, {"time": 4135, "annotation": {"number": 64, "value": 0}, "group": "control_change"}, {"time": 4138, "annotation": {"number": 64, "value": 127}, "group": "control_change"}, {"time": 4184, "annotation": {"number": 64, "value": 0}, "group": "control_change"}, {"time": 4190, "annotation": {"number": 64, "value": 127}, "group": "control_change"}, {"time": 4232, "annotation": {"number": 64, "value": 0}, "group": "control_change"}, {"time": 4234, "annotation": {"number": 64, "value": 127}, "group": "control_change"}, {"time": 4279, "annotation": {"number": 64, "value": 0}, "group": "control_change"}, {"time": 4282, "annotation": {"number": 64, "value": 127}, "group": "control_change"}, {"time": 4327, "annotation": {"number": 64, "value": 0}, "group": "control_change"}, {"time": 4330, "annotation": {"number": 64, "value": 127}, "group": "control_change"}, {"time": 4376, "annotation": {"number": 64, "value": 0}, "group": "control_change"}]}]}