{"metadata": {"schema_version": "0.2", "title": "None", "source_filename": "791.mid", "source_format": "midi"}, "resolution": 12, "tempos": [{"time": 0, "qpm": 60.0}, {"time": 300, "qpm": 58.00004253336452}, {"time": 336, "qpm": 55.99997760000896}, {"time": 360, "qpm": 60.0}, {"time": 408, "qpm": 58.00004253336452}, {"time": 504, "qpm": 50.0}, {"time": 516, "qpm": 60.0}, {"time": 564, "qpm": 59.00006686674245}, {"time": 636, "qpm": 61.99999586666694}, {"time": 780, "qpm": 60.0}, {"time": 804, "qpm": 60.99997255001235}, {"time": 948, "qpm": 61.99999586666694}, {"time": 1080, "qpm": 60.99997255001235}, {"time": 1152, "qpm": 62.99999685000016}, {"time": 1176, "qpm": 70.00007000007}, {"time": 1188, "qpm": 61.99999586666694}, {"time": 1212, "qpm": 60.0}, {"time": 1248, "qpm": 52.000006933334255}, {"time": 1260, "qpm": 60.99997255001235}, {"time": 1284, "qpm": 58.00004253336452}, {"time": 1308, "qpm": 62.99999685000016}, {"time": 1344, "qpm": 60.0}, {"time": 1380, "qpm": 61.99999586666694}, {"time": 1404, "qpm": 62.99999685000016}, {"time": 1452, "qpm": 60.99997255001235}, {"time": 1500, "qpm": 61.99999586666694}, {"time": 1548, "qpm": 64.0}, {"time": 1560, "qpm": 62.99999685000016}, {"time": 1644, "qpm": 64.0}, {"time": 1656, "qpm": 60.0}, {"time": 1668, "qpm": 62.99999685000016}, {"time": 1704, "qpm": 61.99999586666694}, {"time": 1752, "qpm": 60.99997255001235}, {"time": 1788, "qpm": 64.0}, {"time": 1836, "qpm": 61.99999586666694}, {"time": 1896, "qpm": 64.0}, {"time": 1908, "qpm": 62.99999685000016}, {"time": 2076, "qpm": 61.99999586666694}, {"time": 2088, "qpm": 62.5}, {"time": 2196, "qpm": 70.00007000007}, {"time": 2208, "qpm": 64.0}, {"time": 2388, "qpm": 65.99999340000066}, {"time": 2412, "qpm": 64.0}, {"time": 2604, "qpm": 60.99997255001235}, {"time": 2640, "qpm": 64.0}, {"time": 2724, "qpm": 60.99997255001235}, {"time": 2748, "qpm": 62.99999685000016}, {"time": 2784, "qpm": 63.49999259166753}, {"time": 2892, "qpm": 60.99997255001235}, {"time": 2928, "qpm": 64.0}, {"time": 3132, "qpm": 60.0}, {"time": 3156, "qpm": 59.00006686674245}, {"time": 3204, "qpm": 58.00004253336452}], "time_signatures": [{"time": 0, "numerator": 1, "denominator": 4}], "tracks": [{"program": 0, "is_drum": false, "name": "MELODY", "notes": [{"time": 460, "pitch": 62, "duration": 4, "velocity": 79}, {"time": 463, "pitch": 64, "duration": 4, "velocity": 64}, {"time": 466, "pitch": 65, "duration": 7, "velocity": 92}, {"time": 472, "pitch": 72, "duration": 6, "velocity": 90}, {"time": 478, "pitch": 70, "duration": 13, "velocity": 85}, {"time": 508, "pitch": 60, "duration": 3, "velocity": 90}, {"time": 511, "pitch": 62, "duration": 3, "velocity": 68}, {"time": 514, "pitch": 64, "duration": 5, "velocity": 88}, {"time": 520, "pitch": 70, "duration": 5, "velocity": 89}, {"time": 526, "pitch": 69, "duration": 17, "velocity": 89}, {"time": 556, "pitch": 69, "duration": 1, "velocity": 96}, {"time": 559, "pitch": 69, "duration": 2, "velocity": 92}, {"time": 562, "pitch": 74, "duration": 4, "velocity": 102}, {"time": 568, "pitch": 72, "duration": 4, "velocity": 112}, {"time": 574, "pitch": 70, "duration": 5, "velocity": 102}, {"time": 580, "pitch": 67, "duration": 11, "velocity": 88}, {"time": 595, "pitch": 65, "duration": 3, "velocity": 88}, {"time": 598, "pitch": 64, "duration": 6, "velocity": 79}, {"time": 604, "pitch": 65, "duration": 4, "velocity": 70}, {"time": 607, "pitch": 67, "duration": 9, "velocity": 85}, {"time": 616, "pitch": 70, "duration": 6, "velocity": 96}, {"time": 622, "pitch": 69, "duration": 15, "velocity": 71}, {"time": 652, "pitch": 62, "duration": 3, "velocity": 92}, {"time": 655, "pitch": 64, "duration": 4, "velocity": 73}, {"time": 658, "pitch": 65, "duration": 6, "velocity": 88}, {"time": 664, "pitch": 72, "duration": 6, "velocity": 92}, {"time": 670, "pitch": 70, "duration": 18, "velocity": 93}, {"time": 700, "pitch": 60, "duration": 4, "velocity": 79}, {"time": 703, "pitch": 62, "duration": 4, "velocity": 64}, {"time": 706, "pitch": 64, "duration": 7, "velocity": 72}, {"time": 712, "pitch": 70, "duration": 6, "velocity": 95}, {"time": 718, "pitch": 69, "duration": 13, "velocity": 92}, {"time": 748, "pitch": 69, "duration": 1, "velocity": 86}, {"time": 751, "pitch": 69, "duration": 2, "velocity": 85}, {"time": 754, "pitch": 74, "duration": 4, "velocity": 97}, {"time": 760, "pitch": 72, "duration": 3, "velocity": 97}, {"time": 766, "pitch": 70, "duration": 4, "velocity": 107}, {"time": 772, "pitch": 67, "duration": 12, "velocity": 77}, {"time": 787, "pitch": 65, "duration": 3, "velocity": 53}, {"time": 790, "pitch": 64, "duration": 6, "velocity": 81}, {"time": 796, "pitch": 69, "duration": 3, "velocity": 81}, {"time": 799, "pitch": 67, "duration": 7, "velocity": 83}, {"time": 808, "pitch": 64, "duration": 5, "velocity": 79}, {"time": 814, "pitch": 62, "duration": 5, "velocity": 85}, {"time": 820, "pitch": 62, "duration": 1, "velocity": 83}, {"time": 823, "pitch": 62, "duration": 1, "velocity": 77}, {"time": 826, "pitch": 62, "duration": 5, "velocity": 92}, {"time": 832, "pitch": 74, "duration": 4, "velocity": 97}, {"time": 838, "pitch": 74, "duration": 9, "velocity": 93}, {"time": 868, "pitch": 62, "duration": 2, "velocity": 99}, {"time": 871, "pitch": 74, "duration": 3, "velocity": 96}, {"time": 874, "pitch": 72, "duration": 6, "velocity": 117}, {"time": 880, "pitch": 74, "duration": 6, "velocity": 95}, {"time": 886, "pitch": 69, "duration": 6, "velocity": 89}, {"time": 916, "pitch": 69, "duration": 2, "velocity": 93}, {"time": 919, "pitch": 69, "duration": 3, "velocity": 85}, {"time": 922, "pitch": 74, "duration": 4, "velocity": 89}, {"time": 931, "pitch": 72, "duration": 3, "velocity": 93}, {"time": 934, "pitch": 70, "duration": 6, "velocity": 79}, {"time": 940, "pitch": 67, "duration": 10, "velocity": 82}, {"time": 955, "pitch": 65, "duration": 3, "velocity": 96}, {"time": 958, "pitch": 64, "duration": 6, "velocity": 74}, {"time": 964, "pitch": 65, "duration": 3, "velocity": 85}, {"time": 967, "pitch": 67, "duration": 6, "velocity": 86}, {"time": 976, "pitch": 70, "duration": 6, "velocity": 100}, {"time": 982, "pitch": 69, "duration": 20, "velocity": 96}, {"time": 1012, "pitch": 62, "duration": 2, "velocity": 83}, {"time": 1015, "pitch": 62, "duration": 1, "velocity": 86}, {"time": 1018, "pitch": 62, "duration": 5, "velocity": 92}, {"time": 1024, "pitch": 74, "duration": 4, "velocity": 96}, {"time": 1030, "pitch": 74, "duration": 12, "velocity": 99}, {"time": 1060, "pitch": 74, "duration": 3, "velocity": 89}, {"time": 1063, "pitch": 76, "duration": 4, "velocity": 93}, {"time": 1066, "pitch": 77, "duration": 5, "velocity": 96}, {"time": 1072, "pitch": 79, "duration": 4, "velocity": 86}, {"time": 1078, "pitch": 76, "duration": 6, "velocity": 93}, {"time": 1084, "pitch": 69, "duration": 12, "velocity": 70}, {"time": 1108, "pitch": 69, "duration": 1, "velocity": 86}, {"time": 1111, "pitch": 69, "duration": 2, "velocity": 75}, {"time": 1114, "pitch": 74, "duration": 4, "velocity": 96}, {"time": 1120, "pitch": 72, "duration": 4, "velocity": 93}, {"time": 1126, "pitch": 70, "duration": 5, "velocity": 95}, {"time": 1132, "pitch": 67, "duration": 10, "velocity": 92}, {"time": 1150, "pitch": 72, "duration": 5, "velocity": 97}, {"time": 1156, "pitch": 74, "duration": 2, "velocity": 95}, {"time": 1159, "pitch": 76, "duration": 8, "velocity": 92}, {"time": 1168, "pitch": 76, "duration": 6, "velocity": 97}, {"time": 1174, "pitch": 81, "duration": 23, "velocity": 112}, {"time": 1198, "pitch": 79, "duration": 3, "velocity": 112}, {"time": 1201, "pitch": 77, "duration": 3, "velocity": 70}, {"time": 1204, "pitch": 76, "duration": 16, "velocity": 88}, {"time": 1252, "pitch": 62, "duration": 3, "velocity": 90}, {"time": 1255, "pitch": 64, "duration": 3, "velocity": 65}, {"time": 1258, "pitch": 65, "duration": 6, "velocity": 77}, {"time": 1264, "pitch": 72, "duration": 5, "velocity": 96}, {"time": 1270, "pitch": 70, "duration": 24, "velocity": 100}, {"time": 1300, "pitch": 60, "duration": 3, "velocity": 82}, {"time": 1303, "pitch": 62, "duration": 3, "velocity": 73}, {"time": 1306, "pitch": 64, "duration": 6, "velocity": 78}, {"time": 1312, "pitch": 70, "duration": 7, "velocity": 102}, {"time": 1318, "pitch": 69, "duration": 19, "velocity": 95}, {"time": 1348, "pitch": 69, "duration": 1, "velocity": 85}, {"time": 1351, "pitch": 69, "duration": 2, "velocity": 83}, {"time": 1354, "pitch": 74, "duration": 4, "velocity": 96}, {"time": 1360, "pitch": 72, "duration": 2, "velocity": 96}, {"time": 1363, "pitch": 70, "duration": 3, "velocity": 92}, {"time": 1369, "pitch": 67, "duration": 11, "velocity": 90}, {"time": 1387, "pitch": 65, "duration": 3, "velocity": 79}, {"time": 1390, "pitch": 64, "duration": 6, "velocity": 89}, {"time": 1396, "pitch": 70, "duration": 3, "velocity": 93}, {"time": 1399, "pitch": 69, "duration": 6, "velocity": 90}, {"time": 1408, "pitch": 65, "duration": 6, "velocity": 81}, {"time": 1414, "pitch": 62, "duration": 20, "velocity": 81}, {"time": 1828, "pitch": 62, "duration": 1, "velocity": 83}, {"time": 1831, "pitch": 62, "duration": 1, "velocity": 77}, {"time": 1834, "pitch": 62, "duration": 5, "velocity": 92}, {"time": 1840, "pitch": 74, "duration": 4, "velocity": 97}, {"time": 1846, "pitch": 74, "duration": 9, "velocity": 93}, {"time": 1876, "pitch": 74, "duration": 1, "velocity": 112}, {"time": 1879, "pitch": 74, "duration": 3, "velocity": 96}, {"time": 1882, "pitch": 72, "duration": 6, "velocity": 117}, {"time": 1888, "pitch": 76, "duration": 6, "velocity": 95}, {"time": 1894, "pitch": 69, "duration": 6, "velocity": 89}, {"time": 1924, "pitch": 69, "duration": 2, "velocity": 93}, {"time": 1927, "pitch": 69, "duration": 3, "velocity": 85}, {"time": 1930, "pitch": 74, "duration": 4, "velocity": 89}, {"time": 1939, "pitch": 72, "duration": 3, "velocity": 93}, {"time": 1942, "pitch": 70, "duration": 6, "velocity": 79}, {"time": 1948, "pitch": 67, "duration": 10, "velocity": 82}, {"time": 1963, "pitch": 65, "duration": 3, "velocity": 96}, {"time": 1966, "pitch": 64, "duration": 6, "velocity": 74}, {"time": 1972, "pitch": 65, "duration": 3, "velocity": 85}, {"time": 1975, "pitch": 67, "duration": 6, "velocity": 86}, {"time": 1984, "pitch": 72, "duration": 6, "velocity": 100}, {"time": 1990, "pitch": 69, "duration": 20, "velocity": 96}, {"time": 2020, "pitch": 62, "duration": 2, "velocity": 83}, {"time": 2023, "pitch": 62, "duration": 1, "velocity": 86}, {"time": 2026, "pitch": 62, "duration": 5, "velocity": 92}, {"time": 2032, "pitch": 74, "duration": 4, "velocity": 96}, {"time": 2038, "pitch": 74, "duration": 12, "velocity": 99}, {"time": 2068, "pitch": 74, "duration": 3, "velocity": 89}, {"time": 2071, "pitch": 76, "duration": 4, "velocity": 93}, {"time": 2074, "pitch": 77, "duration": 5, "velocity": 96}, {"time": 2080, "pitch": 79, "duration": 4, "velocity": 86}, {"time": 2086, "pitch": 76, "duration": 6, "velocity": 93}, {"time": 2092, "pitch": 69, "duration": 12, "velocity": 70}, {"time": 2116, "pitch": 69, "duration": 1, "velocity": 86}, {"time": 2119, "pitch": 69, "duration": 2, "velocity": 75}, {"time": 2122, "pitch": 74, "duration": 4, "velocity": 96}, {"time": 2128, "pitch": 72, "duration": 4, "velocity": 93}, {"time": 2134, "pitch": 70, "duration": 5, "velocity": 95}, {"time": 2140, "pitch": 67, "duration": 10, "velocity": 92}, {"time": 2158, "pitch": 72, "duration": 5, "velocity": 97}, {"time": 2164, "pitch": 74, "duration": 2, "velocity": 95}, {"time": 2167, "pitch": 76, "duration": 8, "velocity": 92}, {"time": 2176, "pitch": 76, "duration": 6, "velocity": 97}, {"time": 2182, "pitch": 81, "duration": 23, "velocity": 112}, {"time": 2422, "pitch": 77, "duration": 10, "velocity": 127}, {"time": 2434, "pitch": 76, "duration": 6, "velocity": 127}, {"time": 2440, "pitch": 74, "duration": 5, "velocity": 117}, {"time": 2446, "pitch": 70, "duration": 15, "velocity": 122}, {"time": 2470, "pitch": 76, "duration": 9, "velocity": 127}, {"time": 2482, "pitch": 74, "duration": 6, "velocity": 122}, {"time": 2488, "pitch": 72, "duration": 6, "velocity": 107}, {"time": 2494, "pitch": 69, "duration": 14, "velocity": 96}, {"time": 2596, "pitch": 62, "duration": 1, "velocity": 83}, {"time": 2599, "pitch": 62, "duration": 1, "velocity": 77}, {"time": 2602, "pitch": 62, "duration": 5, "velocity": 92}, {"time": 2608, "pitch": 74, "duration": 4, "velocity": 97}, {"time": 2614, "pitch": 74, "duration": 9, "velocity": 93}, {"time": 2644, "pitch": 74, "duration": 2, "velocity": 99}, {"time": 2647, "pitch": 74, "duration": 3, "velocity": 96}, {"time": 2650, "pitch": 72, "duration": 6, "velocity": 117}, {"time": 2656, "pitch": 76, "duration": 6, "velocity": 95}, {"time": 2662, "pitch": 69, "duration": 6, "velocity": 89}, {"time": 2692, "pitch": 69, "duration": 2, "velocity": 93}, {"time": 2695, "pitch": 69, "duration": 3, "velocity": 85}, {"time": 2698, "pitch": 74, "duration": 4, "velocity": 89}, {"time": 2707, "pitch": 72, "duration": 3, "velocity": 93}, {"time": 2710, "pitch": 70, "duration": 6, "velocity": 79}, {"time": 2716, "pitch": 67, "duration": 10, "velocity": 82}, {"time": 2731, "pitch": 65, "duration": 3, "velocity": 96}, {"time": 2734, "pitch": 64, "duration": 6, "velocity": 74}, {"time": 2740, "pitch": 65, "duration": 3, "velocity": 85}, {"time": 2743, "pitch": 67, "duration": 6, "velocity": 86}, {"time": 2752, "pitch": 70, "duration": 6, "velocity": 100}, {"time": 2758, "pitch": 69, "duration": 20, "velocity": 96}, {"time": 2788, "pitch": 62, "duration": 2, "velocity": 83}, {"time": 2791, "pitch": 62, "duration": 1, "velocity": 86}, {"time": 2794, "pitch": 62, "duration": 5, "velocity": 92}, {"time": 2800, "pitch": 74, "duration": 4, "velocity": 96}, {"time": 2806, "pitch": 74, "duration": 12, "velocity": 99}, {"time": 2836, "pitch": 74, "duration": 3, "velocity": 89}, {"time": 2839, "pitch": 76, "duration": 4, "velocity": 93}, {"time": 2842, "pitch": 77, "duration": 5, "velocity": 96}, {"time": 2848, "pitch": 79, "duration": 4, "velocity": 86}, {"time": 2854, "pitch": 76, "duration": 6, "velocity": 93}, {"time": 2860, "pitch": 69, "duration": 12, "velocity": 70}, {"time": 2884, "pitch": 69, "duration": 1, "velocity": 86}, {"time": 2887, "pitch": 69, "duration": 2, "velocity": 75}, {"time": 2890, "pitch": 74, "duration": 4, "velocity": 96}, {"time": 2896, "pitch": 72, "duration": 4, "velocity": 93}, {"time": 2902, "pitch": 70, "duration": 5, "velocity": 95}, {"time": 2908, "pitch": 67, "duration": 10, "velocity": 92}, {"time": 2926, "pitch": 72, "duration": 5, "velocity": 97}, {"time": 2932, "pitch": 74, "duration": 2, "velocity": 95}, {"time": 2935, "pitch": 76, "duration": 8, "velocity": 92}, {"time": 2944, "pitch": 76, "duration": 6, "velocity": 97}, {"time": 2950, "pitch": 81, "duration": 21, "velocity": 112}, {"time": 3025, "pitch": 79, "duration": 3, "velocity": 112}, {"time": 3028, "pitch": 77, "duration": 3, "velocity": 70}, {"time": 3031, "pitch": 76, "duration": 16, "velocity": 88}, {"time": 3106, "pitch": 62, "duration": 3, "velocity": 90}, {"time": 3109, "pitch": 64, "duration": 3, "velocity": 65}, {"time": 3112, "pitch": 65, "duration": 6, "velocity": 77}, {"time": 3118, "pitch": 72, "duration": 6, "velocity": 96}, {"time": 3124, "pitch": 70, "duration": 24, "velocity": 100}, {"time": 3154, "pitch": 60, "duration": 3, "velocity": 82}, {"time": 3157, "pitch": 62, "duration": 4, "velocity": 73}, {"time": 3160, "pitch": 64, "duration": 6, "velocity": 78}, {"time": 3166, "pitch": 70, "duration": 7, "velocity": 102}, {"time": 3172, "pitch": 69, "duration": 19, "velocity": 95}, {"time": 3202, "pitch": 69, "duration": 2, "velocity": 85}, {"time": 3205, "pitch": 69, "duration": 2, "velocity": 83}, {"time": 3208, "pitch": 74, "duration": 4, "velocity": 96}, {"time": 3214, "pitch": 72, "duration": 2, "velocity": 96}, {"time": 3217, "pitch": 70, "duration": 3, "velocity": 92}, {"time": 3223, "pitch": 67, "duration": 12, "velocity": 90}, {"time": 3241, "pitch": 65, "duration": 3, "velocity": 79}, {"time": 3244, "pitch": 64, "duration": 6, "velocity": 89}, {"time": 3250, "pitch": 70, "duration": 3, "velocity": 93}, {"time": 3253, "pitch": 69, "duration": 6, "velocity": 90}, {"time": 3262, "pitch": 65, "duration": 6, "velocity": 81}, {"time": 3268, "pitch": 62, "duration": 20, "velocity": 81}, {"time": 3298, "pitch": 69, "duration": 2, "velocity": 92}, {"time": 3301, "pitch": 69, "duration": 2, "velocity": 75}, {"time": 3304, "pitch": 74, "duration": 3, "velocity": 99}, {"time": 3310, "pitch": 72, "duration": 3, "velocity": 89}, {"time": 3317, "pitch": 70, "duration": 5, "velocity": 97}, {"time": 3323, "pitch": 67, "duration": 10, "velocity": 75}, {"time": 3344, "pitch": 65, "duration": 4, "velocity": 79}, {"time": 3348, "pitch": 64, "duration": 10, "velocity": 75}, {"time": 3362, "pitch": 69, "duration": 9, "velocity": 95}, {"time": 3370, "pitch": 67, "duration": 22, "velocity": 74}, {"time": 3400, "pitch": 65, "duration": 19, "velocity": 90}, {"time": 3419, "pitch": 62, "duration": 31, "velocity": 72}]}, {"program": 0, "is_drum": false, "name": "BRIDGE", "notes": [{"time": 7, "pitch": 62, "duration": 10, "velocity": 18}, {"time": 12, "pitch": 77, "duration": 7, "velocity": 18}, {"time": 16, "pitch": 74, "duration": 4, "velocity": 24}, {"time": 19, "pitch": 77, "duration": 5, "velocity": 23}, {"time": 22, "pitch": 65, "duration": 10, "velocity": 22}, {"time": 22, "pitch": 74, "duration": 4, "velocity": 23}, {"time": 27, "pitch": 69, "duration": 8, "velocity": 20}, {"time": 27, "pitch": 74, "duration": 4, "velocity": 30}, {"time": 29, "pitch": 77, "duration": 4, "velocity": 30}, {"time": 31, "pitch": 62, "duration": 8, "velocity": 36}, {"time": 33, "pitch": 77, "duration": 3, "velocity": 30}, {"time": 34, "pitch": 74, "duration": 4, "velocity": 34}, {"time": 36, "pitch": 77, "duration": 11, "velocity": 35}, {"time": 38, "pitch": 65, "duration": 14, "velocity": 33}, {"time": 38, "pitch": 74, "duration": 4, "velocity": 48}, {"time": 43, "pitch": 69, "duration": 12, "velocity": 28}, {"time": 43, "pitch": 74, "duration": 4, "velocity": 34}, {"time": 50, "pitch": 61, "duration": 9, "velocity": 33}, {"time": 54, "pitch": 76, "duration": 4, "velocity": 21}, {"time": 56, "pitch": 73, "duration": 3, "velocity": 22}, {"time": 58, "pitch": 76, "duration": 5, "velocity": 41}, {"time": 60, "pitch": 64, "duration": 5, "velocity": 33}, {"time": 60, "pitch": 73, "duration": 5, "velocity": 32}, {"time": 63, "pitch": 76, "duration": 1, "velocity": 34}, {"time": 64, "pitch": 67, "duration": 4, "velocity": 32}, {"time": 65, "pitch": 73, "duration": 3, "velocity": 38}, {"time": 68, "pitch": 70, "duration": 2, "velocity": 23}, {"time": 68, "pitch": 82, "duration": 4, "velocity": 18}, {"time": 68, "pitch": 73, "duration": 4, "velocity": 31}, {"time": 70, "pitch": 70, "duration": 4, "velocity": 19}, {"time": 72, "pitch": 67, "duration": 5, "velocity": 19}, {"time": 72, "pitch": 73, "duration": 3, "velocity": 22}, {"time": 74, "pitch": 70, "duration": 3, "velocity": 17}, {"time": 74, "pitch": 76, "duration": 6, "velocity": 19}, {"time": 76, "pitch": 64, "duration": 15, "velocity": 24}, {"time": 76, "pitch": 73, "duration": 4, "velocity": 23}, {"time": 83, "pitch": 61, "duration": 5, "velocity": 33}, {"time": 86, "pitch": 76, "duration": 5, "velocity": 19}, {"time": 90, "pitch": 50, "duration": 6, "velocity": 30}, {"time": 94, "pitch": 77, "duration": 4, "velocity": 26}, {"time": 96, "pitch": 69, "duration": 12, "velocity": 24}, {"time": 96, "pitch": 74, "duration": 2, "velocity": 26}, {"time": 100, "pitch": 62, "duration": 5, "velocity": 36}, {"time": 100, "pitch": 74, "duration": 4, "velocity": 47}, {"time": 101, "pitch": 77, "duration": 5, "velocity": 54}, {"time": 103, "pitch": 65, "duration": 5, "velocity": 44}, {"time": 104, "pitch": 74, "duration": 3, "velocity": 60}, {"time": 107, "pitch": 62, "duration": 10, "velocity": 41}, {"time": 107, "pitch": 74, "duration": 4, "velocity": 70}, {"time": 109, "pitch": 77, "duration": 4, "velocity": 54}, {"time": 111, "pitch": 69, "duration": 5, "velocity": 19}, {"time": 111, "pitch": 74, "duration": 4, "velocity": 49}, {"time": 113, "pitch": 77, "duration": 5, "velocity": 35}, {"time": 116, "pitch": 50, "duration": 6, "velocity": 20}, {"time": 117, "pitch": 57, "duration": 5, "velocity": 19}, {"time": 118, "pitch": 77, "duration": 4, "velocity": 23}, {"time": 121, "pitch": 74, "duration": 8, "velocity": 26}, {"time": 124, "pitch": 77, "duration": 6, "velocity": 26}, {"time": 128, "pitch": 52, "duration": 7, "velocity": 36}, {"time": 131, "pitch": 73, "duration": 4, "velocity": 23}, {"time": 132, "pitch": 70, "duration": 3, "velocity": 31}, {"time": 134, "pitch": 69, "duration": 5, "velocity": 50}, {"time": 134, "pitch": 49, "duration": 5, "velocity": 46}, {"time": 135, "pitch": 70, "duration": 3, "velocity": 42}, {"time": 138, "pitch": 46, "duration": 5, "velocity": 49}, {"time": 140, "pitch": 69, "duration": 3, "velocity": 50}, {"time": 142, "pitch": 45, "duration": 3, "velocity": 68}, {"time": 145, "pitch": 69, "duration": 8, "velocity": 62}, {"time": 145, "pitch": 43, "duration": 3, "velocity": 64}, {"time": 145, "pitch": 55, "duration": 3, "velocity": 78}, {"time": 147, "pitch": 45, "duration": 2, "velocity": 69}, {"time": 148, "pitch": 41, "duration": 3, "velocity": 67}, {"time": 150, "pitch": 52, "duration": 3, "velocity": 79}, {"time": 151, "pitch": 40, "duration": 4, "velocity": 80}, {"time": 151, "pitch": 45, "duration": 5, "velocity": 75}, {"time": 152, "pitch": 49, "duration": 7, "velocity": 92}, {"time": 154, "pitch": 69, "duration": 13, "velocity": 83}, {"time": 154, "pitch": 46, "duration": 4, "velocity": 116}, {"time": 154, "pitch": 53, "duration": 3, "velocity": 89}, {"time": 158, "pitch": 45, "duration": 1, "velocity": 103}, {"time": 159, "pitch": 55, "duration": 4, "velocity": 92}, {"time": 159, "pitch": 45, "duration": 2, "velocity": 111}, {"time": 161, "pitch": 45, "duration": 1, "velocity": 108}, {"time": 162, "pitch": 41, "duration": 3, "velocity": 110}, {"time": 162, "pitch": 48, "duration": 2, "velocity": 84}, {"time": 162, "pitch": 45, "duration": 4, "velocity": 109}, {"time": 164, "pitch": 49, "duration": 1, "velocity": 79}, {"time": 164, "pitch": 48, "duration": 4, "velocity": 102}, {"time": 166, "pitch": 40, "duration": 2, "velocity": 116}, {"time": 167, "pitch": 45, "duration": 2, "velocity": 108}, {"time": 168, "pitch": 40, "duration": 2, "velocity": 116}, {"time": 169, "pitch": 48, "duration": 2, "velocity": 98}, {"time": 170, "pitch": 45, "duration": 2, "velocity": 106}, {"time": 170, "pitch": 40, "duration": 4, "velocity": 105}, {"time": 173, "pitch": 38, "duration": 103, "velocity": 108}, {"time": 173, "pitch": 45, "duration": 101, "velocity": 95}, {"time": 173, "pitch": 60, "duration": 92, "velocity": 39}, {"time": 174, "pitch": 54, "duration": 3, "velocity": 73}, {"time": 178, "pitch": 53, "duration": 5, "velocity": 78}, {"time": 181, "pitch": 50, "duration": 3, "velocity": 76}, {"time": 183, "pitch": 53, "duration": 6, "velocity": 82}, {"time": 186, "pitch": 69, "duration": 8, "velocity": 70}, {"time": 187, "pitch": 50, "duration": 26, "velocity": 43}, {"time": 189, "pitch": 65, "duration": 4, "velocity": 62}, {"time": 191, "pitch": 53, "duration": 7, "velocity": 59}, {"time": 193, "pitch": 62, "duration": 6, "velocity": 51}, {"time": 199, "pitch": 62, "duration": 15, "velocity": 39}, {"time": 199, "pitch": 65, "duration": 2, "velocity": 62}, {"time": 199, "pitch": 69, "duration": 6, "velocity": 43}, {"time": 201, "pitch": 65, "duration": 20, "velocity": 71}, {"time": 206, "pitch": 74, "duration": 6, "velocity": 46}, {"time": 208, "pitch": 53, "duration": 13, "velocity": 23}, {"time": 210, "pitch": 77, "duration": 18, "velocity": 33}, {"time": 212, "pitch": 81, "duration": 3, "velocity": 50}, {"time": 217, "pitch": 81, "duration": 3, "velocity": 58}, {"time": 220, "pitch": 81, "duration": 7, "velocity": 63}, {"time": 220, "pitch": 57, "duration": 8, "velocity": 16}, {"time": 224, "pitch": 65, "duration": 7, "velocity": 18}, {"time": 230, "pitch": 74, "duration": 3, "velocity": 31}, {"time": 230, "pitch": 77, "duration": 6, "velocity": 35}, {"time": 232, "pitch": 81, "duration": 4, "velocity": 43}, {"time": 268, "pitch": 62, "duration": 3, "velocity": 95}, {"time": 271, "pitch": 64, "duration": 3, "velocity": 81}, {"time": 274, "pitch": 65, "duration": 5, "velocity": 85}, {"time": 279, "pitch": 72, "duration": 4, "velocity": 99}, {"time": 286, "pitch": 70, "duration": 1, "velocity": 117}, {"time": 287, "pitch": 69, "duration": 2, "velocity": 75}, {"time": 289, "pitch": 70, "duration": 16, "velocity": 95}, {"time": 315, "pitch": 60, "duration": 4, "velocity": 93}, {"time": 319, "pitch": 62, "duration": 3, "velocity": 76}, {"time": 322, "pitch": 64, "duration": 6, "velocity": 86}, {"time": 327, "pitch": 70, "duration": 6, "velocity": 85}, {"time": 333, "pitch": 69, "duration": 2, "velocity": 83}, {"time": 335, "pitch": 67, "duration": 2, "velocity": 81}, {"time": 337, "pitch": 69, "duration": 19, "velocity": 93}, {"time": 364, "pitch": 69, "duration": 2, "velocity": 78}, {"time": 367, "pitch": 69, "duration": 2, "velocity": 73}, {"time": 370, "pitch": 74, "duration": 5, "velocity": 99}, {"time": 376, "pitch": 72, "duration": 4, "velocity": 89}, {"time": 382, "pitch": 70, "duration": 6, "velocity": 107}, {"time": 388, "pitch": 69, "duration": 3, "velocity": 70}, {"time": 391, "pitch": 67, "duration": 15, "velocity": 71}, {"time": 412, "pitch": 64, "duration": 1, "velocity": 79}, {"time": 415, "pitch": 64, "duration": 3, "velocity": 72}, {"time": 418, "pitch": 69, "duration": 6, "velocity": 96}, {"time": 424, "pitch": 67, "duration": 7, "velocity": 82}, {"time": 430, "pitch": 74, "duration": 29, "velocity": 100}, {"time": 844, "pitch": 62, "duration": 6, "velocity": 78}, {"time": 850, "pitch": 74, "duration": 32, "velocity": 92}, {"time": 892, "pitch": 69, "duration": 6, "velocity": 72}, {"time": 898, "pitch": 67, "duration": 14, "velocity": 74}, {"time": 988, "pitch": 69, "duration": 22, "velocity": 88}, {"time": 1276, "pitch": 57, "duration": 3, "velocity": 74}, {"time": 1279, "pitch": 58, "duration": 3, "velocity": 44}, {"time": 1282, "pitch": 62, "duration": 7, "velocity": 72}, {"time": 1288, "pitch": 65, "duration": 6, "velocity": 70}, {"time": 1294, "pitch": 67, "duration": 18, "velocity": 40}, {"time": 1324, "pitch": 64, "duration": 2, "velocity": 58}, {"time": 1327, "pitch": 64, "duration": 3, "velocity": 56}, {"time": 1330, "pitch": 60, "duration": 9, "velocity": 57}, {"time": 1336, "pitch": 69, "duration": 6, "velocity": 89}, {"time": 1342, "pitch": 66, "duration": 19, "velocity": 72}, {"time": 1372, "pitch": 67, "duration": 6, "velocity": 69}, {"time": 1378, "pitch": 64, "duration": 9, "velocity": 65}, {"time": 1384, "pitch": 57, "duration": 7, "velocity": 55}, {"time": 1390, "pitch": 62, "duration": 12, "velocity": 58}, {"time": 1414, "pitch": 62, "duration": 4, "velocity": 96}, {"time": 1417, "pitch": 61, "duration": 3, "velocity": 85}, {"time": 1420, "pitch": 62, "duration": 3, "velocity": 77}, {"time": 1423, "pitch": 69, "duration": 2, "velocity": 90}, {"time": 1426, "pitch": 65, "duration": 4, "velocity": 81}, {"time": 1429, "pitch": 62, "duration": 2, "velocity": 92}, {"time": 1432, "pitch": 57, "duration": 4, "velocity": 85}, {"time": 1435, "pitch": 53, "duration": 3, "velocity": 70}, {"time": 1438, "pitch": 50, "duration": 7, "velocity": 90}, {"time": 1444, "pitch": 62, "duration": 3, "velocity": 86}, {"time": 1447, "pitch": 64, "duration": 4, "velocity": 69}, {"time": 1450, "pitch": 65, "duration": 6, "velocity": 82}, {"time": 1456, "pitch": 72, "duration": 5, "velocity": 99}, {"time": 1462, "pitch": 70, "duration": 2, "velocity": 112}, {"time": 1463, "pitch": 69, "duration": 2, "velocity": 75}, {"time": 1465, "pitch": 70, "duration": 16, "velocity": 95}, {"time": 1492, "pitch": 60, "duration": 3, "velocity": 93}, {"time": 1495, "pitch": 62, "duration": 3, "velocity": 76}, {"time": 1498, "pitch": 64, "duration": 6, "velocity": 89}, {"time": 1504, "pitch": 70, "duration": 5, "velocity": 99}, {"time": 1510, "pitch": 69, "duration": 19, "velocity": 99}, {"time": 1534, "pitch": 54, "duration": 11, "velocity": 62}, {"time": 1546, "pitch": 58, "duration": 6, "velocity": 69}, {"time": 1552, "pitch": 60, "duration": 6, "velocity": 74}, {"time": 1558, "pitch": 67, "duration": 16, "velocity": 86}, {"time": 1576, "pitch": 65, "duration": 6, "velocity": 100}, {"time": 1582, "pitch": 64, "duration": 6, "velocity": 83}, {"time": 1588, "pitch": 65, "duration": 6, "velocity": 78}, {"time": 1594, "pitch": 67, "duration": 4, "velocity": 99}, {"time": 1600, "pitch": 72, "duration": 4, "velocity": 107}, {"time": 1603, "pitch": 70, "duration": 2, "velocity": 95}, {"time": 1606, "pitch": 69, "duration": 20, "velocity": 95}, {"time": 1636, "pitch": 74, "duration": 3, "velocity": 102}, {"time": 1639, "pitch": 76, "duration": 4, "velocity": 85}, {"time": 1642, "pitch": 77, "duration": 6, "velocity": 100}, {"time": 1648, "pitch": 86, "duration": 4, "velocity": 117}, {"time": 1654, "pitch": 86, "duration": 14, "velocity": 122}, {"time": 1672, "pitch": 86, "duration": 2, "velocity": 83}, {"time": 1675, "pitch": 86, "duration": 2, "velocity": 89}, {"time": 1678, "pitch": 86, "duration": 13, "velocity": 122}, {"time": 1690, "pitch": 88, "duration": 12, "velocity": 127}, {"time": 1702, "pitch": 84, "duration": 20, "velocity": 122}, {"time": 1732, "pitch": 81, "duration": 6, "velocity": 96}, {"time": 1738, "pitch": 86, "duration": 6, "velocity": 107}, {"time": 1744, "pitch": 84, "duration": 6, "velocity": 97}, {"time": 1750, "pitch": 82, "duration": 12, "velocity": 107}, {"time": 1762, "pitch": 79, "duration": 14, "velocity": 100}, {"time": 1780, "pitch": 76, "duration": 2, "velocity": 90}, {"time": 1783, "pitch": 76, "duration": 3, "velocity": 79}, {"time": 1786, "pitch": 81, "duration": 5, "velocity": 95}, {"time": 1792, "pitch": 79, "duration": 6, "velocity": 95}, {"time": 1798, "pitch": 86, "duration": 14, "velocity": 112}, {"time": 1804, "pitch": 74, "duration": 3, "velocity": 83}, {"time": 1807, "pitch": 76, "duration": 3, "velocity": 69}, {"time": 1810, "pitch": 77, "duration": 4, "velocity": 81}, {"time": 1813, "pitch": 77, "duration": 1, "velocity": 67}, {"time": 1816, "pitch": 74, "duration": 4, "velocity": 78}, {"time": 1819, "pitch": 69, "duration": 3, "velocity": 72}, {"time": 1822, "pitch": 74, "duration": 3, "velocity": 83}, {"time": 1825, "pitch": 73, "duration": 4, "velocity": 85}, {"time": 1828, "pitch": 74, "duration": 4, "velocity": 83}, {"time": 1831, "pitch": 76, "duration": 2, "velocity": 68}, {"time": 1834, "pitch": 77, "duration": 2, "velocity": 78}, {"time": 1837, "pitch": 76, "duration": 3, "velocity": 89}, {"time": 1840, "pitch": 77, "duration": 4, "velocity": 75}, {"time": 1843, "pitch": 79, "duration": 4, "velocity": 59}, {"time": 1846, "pitch": 81, "duration": 11, "velocity": 95}, {"time": 2230, "pitch": 77, "duration": 10, "velocity": 127}, {"time": 2242, "pitch": 76, "duration": 6, "velocity": 117}, {"time": 2248, "pitch": 74, "duration": 5, "velocity": 122}, {"time": 2254, "pitch": 70, "duration": 19, "velocity": 107}, {"time": 2266, "pitch": 77, "duration": 11, "velocity": 117}, {"time": 2278, "pitch": 76, "duration": 16, "velocity": 99}, {"time": 2290, "pitch": 74, "duration": 6, "velocity": 99}, {"time": 2296, "pitch": 72, "duration": 6, "velocity": 97}, {"time": 2302, "pitch": 69, "duration": 20, "velocity": 95}, {"time": 2326, "pitch": 74, "duration": 9, "velocity": 122}, {"time": 2338, "pitch": 72, "duration": 4, "velocity": 100}, {"time": 2344, "pitch": 70, "duration": 4, "velocity": 100}, {"time": 2350, "pitch": 69, "duration": 9, "velocity": 97}, {"time": 2356, "pitch": 67, "duration": 5, "velocity": 95}, {"time": 2362, "pitch": 65, "duration": 7, "velocity": 93}, {"time": 2368, "pitch": 67, "duration": 6, "velocity": 96}, {"time": 2374, "pitch": 69, "duration": 22, "velocity": 96}, {"time": 2410, "pitch": 74, "duration": 6, "velocity": 97}, {"time": 2416, "pitch": 76, "duration": 6, "velocity": 93}, {"time": 2422, "pitch": 77, "duration": 9, "velocity": 102}, {"time": 2434, "pitch": 76, "duration": 5, "velocity": 117}, {"time": 2440, "pitch": 74, "duration": 5, "velocity": 100}, {"time": 2446, "pitch": 70, "duration": 18, "velocity": 112}, {"time": 2458, "pitch": 77, "duration": 12, "velocity": 102}, {"time": 2470, "pitch": 76, "duration": 10, "velocity": 112}, {"time": 2482, "pitch": 74, "duration": 5, "velocity": 100}, {"time": 2488, "pitch": 72, "duration": 6, "velocity": 100}, {"time": 2494, "pitch": 69, "duration": 17, "velocity": 102}, {"time": 2518, "pitch": 70, "duration": 8, "velocity": 112}, {"time": 2530, "pitch": 69, "duration": 10, "velocity": 102}, {"time": 2542, "pitch": 73, "duration": 14, "velocity": 127}, {"time": 2554, "pitch": 76, "duration": 11, "velocity": 107}, {"time": 2566, "pitch": 74, "duration": 28, "velocity": 107}, {"time": 3130, "pitch": 67, "duration": 3, "velocity": 66}, {"time": 3133, "pitch": 69, "duration": 3, "velocity": 52}, {"time": 3136, "pitch": 70, "duration": 3, "velocity": 88}, {"time": 3139, "pitch": 69, "duration": 3, "velocity": 70}, {"time": 3142, "pitch": 67, "duration": 12, "velocity": 59}, {"time": 3178, "pitch": 65, "duration": 4, "velocity": 62}, {"time": 3181, "pitch": 67, "duration": 4, "velocity": 47}, {"time": 3184, "pitch": 69, "duration": 4, "velocity": 89}, {"time": 3187, "pitch": 67, "duration": 4, "velocity": 64}, {"time": 3190, "pitch": 65, "duration": 12, "velocity": 64}, {"time": 3228, "pitch": 67, "duration": 4, "velocity": 90}, {"time": 3233, "pitch": 62, "duration": 5, "velocity": 64}, {"time": 3238, "pitch": 67, "duration": 11, "velocity": 76}, {"time": 3268, "pitch": 74, "duration": 3, "velocity": 82}, {"time": 3271, "pitch": 73, "duration": 3, "velocity": 86}, {"time": 3274, "pitch": 74, "duration": 3, "velocity": 97}, {"time": 3277, "pitch": 81, "duration": 3, "velocity": 92}, {"time": 3280, "pitch": 77, "duration": 3, "velocity": 73}, {"time": 3282, "pitch": 74, "duration": 3, "velocity": 75}, {"time": 3285, "pitch": 69, "duration": 4, "velocity": 76}, {"time": 3289, "pitch": 65, "duration": 2, "velocity": 64}, {"time": 3292, "pitch": 62, "duration": 10, "velocity": 59}, {"time": 3423, "pitch": 74, "duration": 3, "velocity": 62}, {"time": 3426, "pitch": 69, "duration": 3, "velocity": 56}, {"time": 3429, "pitch": 74, "duration": 3, "velocity": 69}, {"time": 3431, "pitch": 81, "duration": 3, "velocity": 79}, {"time": 3434, "pitch": 77, "duration": 3, "velocity": 81}, {"time": 3437, "pitch": 74, "duration": 3, "velocity": 69}, {"time": 3440, "pitch": 69, "duration": 3, "velocity": 59}, {"time": 3443, "pitch": 74, "duration": 3, "velocity": 72}, {"time": 3445, "pitch": 73, "duration": 4, "velocity": 72}, {"time": 3448, "pitch": 77, "duration": 4, "velocity": 75}, {"time": 3452, "pitch": 81, "duration": 5, "velocity": 90}, {"time": 3455, "pitch": 77, "duration": 4, "velocity": 78}, {"time": 3459, "pitch": 76, "duration": 7, "velocity": 72}, {"time": 3465, "pitch": 69, "duration": 6, "velocity": 77}, {"time": 3471, "pitch": 74, "duration": 11, "velocity": 79}, {"time": 3483, "pitch": 67, "duration": 13, "velocity": 72}, {"time": 3500, "pitch": 69, "duration": 38, "velocity": 56}, {"time": 3502, "pitch": 65, "duration": 36, "velocity": 53}, {"time": 3503, "pitch": 62, "duration": 35, "velocity": 63}]}, {"program": 0, "is_drum": false, "name": "PIANO", "notes": [{"time": 283, "pitch": 43, "duration": 20, "velocity": 74}, {"time": 292, "pitch": 50, "duration": 13, "velocity": 38}, {"time": 295, "pitch": 55, "duration": 7, "velocity": 52}, {"time": 304, "pitch": 58, "duration": 8, "velocity": 63}, {"time": 310, "pitch": 36, "duration": 16, "velocity": 64}, {"time": 316, "pitch": 43, "duration": 12, "velocity": 47}, {"time": 322, "pitch": 48, "duration": 12, "velocity": 41}, {"time": 322, "pitch": 60, "duration": 13, "velocity": 66}, {"time": 328, "pitch": 55, "duration": 8, "velocity": 51}, {"time": 334, "pitch": 41, "duration": 15, "velocity": 68}, {"time": 340, "pitch": 48, "duration": 9, "velocity": 61}, {"time": 346, "pitch": 57, "duration": 7, "velocity": 77}, {"time": 352, "pitch": 60, "duration": 1, "velocity": 72}, {"time": 358, "pitch": 38, "duration": 16, "velocity": 59}, {"time": 358, "pitch": 54, "duration": 5, "velocity": 67}, {"time": 358, "pitch": 57, "duration": 5, "velocity": 59}, {"time": 364, "pitch": 45, "duration": 11, "velocity": 39}, {"time": 370, "pitch": 50, "duration": 6, "velocity": 49}, {"time": 370, "pitch": 62, "duration": 12, "velocity": 64}, {"time": 370, "pitch": 66, "duration": 12, "velocity": 64}, {"time": 376, "pitch": 57, "duration": 7, "velocity": 58}, {"time": 382, "pitch": 43, "duration": 14, "velocity": 62}, {"time": 388, "pitch": 50, "duration": 8, "velocity": 52}, {"time": 394, "pitch": 58, "duration": 11, "velocity": 61}, {"time": 394, "pitch": 62, "duration": 12, "velocity": 61}, {"time": 400, "pitch": 55, "duration": 6, "velocity": 56}, {"time": 406, "pitch": 45, "duration": 15, "velocity": 67}, {"time": 412, "pitch": 52, "duration": 8, "velocity": 40}, {"time": 418, "pitch": 61, "duration": 12, "velocity": 62}, {"time": 418, "pitch": 64, "duration": 12, "velocity": 59}, {"time": 424, "pitch": 57, "duration": 6, "velocity": 54}, {"time": 430, "pitch": 38, "duration": 42, "velocity": 70}, {"time": 436, "pitch": 45, "duration": 37, "velocity": 52}, {"time": 442, "pitch": 50, "duration": 10, "velocity": 40}, {"time": 442, "pitch": 62, "duration": 8, "velocity": 64}, {"time": 448, "pitch": 64, "duration": 7, "velocity": 40}, {"time": 454, "pitch": 50, "duration": 20, "velocity": 33}, {"time": 454, "pitch": 57, "duration": 20, "velocity": 35}, {"time": 454, "pitch": 62, "duration": 20, "velocity": 43}, {"time": 454, "pitch": 65, "duration": 20, "velocity": 40}, {"time": 478, "pitch": 43, "duration": 18, "velocity": 76}, {"time": 484, "pitch": 50, "duration": 11, "velocity": 57}, {"time": 490, "pitch": 58, "duration": 11, "velocity": 68}, {"time": 496, "pitch": 55, "duration": 5, "velocity": 61}, {"time": 499, "pitch": 36, "duration": 19, "velocity": 71}, {"time": 508, "pitch": 43, "duration": 12, "velocity": 38}, {"time": 514, "pitch": 48, "duration": 11, "velocity": 31}, {"time": 514, "pitch": 60, "duration": 12, "velocity": 63}, {"time": 514, "pitch": 64, "duration": 13, "velocity": 61}, {"time": 520, "pitch": 55, "duration": 8, "velocity": 56}, {"time": 526, "pitch": 41, "duration": 16, "velocity": 69}, {"time": 532, "pitch": 48, "duration": 9, "velocity": 52}, {"time": 538, "pitch": 57, "duration": 7, "velocity": 61}, {"time": 538, "pitch": 60, "duration": 7, "velocity": 56}, {"time": 544, "pitch": 53, "duration": 7, "velocity": 52}, {"time": 550, "pitch": 38, "duration": 14, "velocity": 61}, {"time": 556, "pitch": 45, "duration": 9, "velocity": 43}, {"time": 562, "pitch": 54, "duration": 12, "velocity": 61}, {"time": 562, "pitch": 57, "duration": 12, "velocity": 64}, {"time": 568, "pitch": 50, "duration": 6, "velocity": 61}, {"time": 574, "pitch": 43, "duration": 14, "velocity": 56}, {"time": 580, "pitch": 50, "duration": 8, "velocity": 47}, {"time": 586, "pitch": 58, "duration": 12, "velocity": 85}, {"time": 586, "pitch": 62, "duration": 12, "velocity": 69}, {"time": 592, "pitch": 55, "duration": 6, "velocity": 48}, {"time": 598, "pitch": 36, "duration": 16, "velocity": 64}, {"time": 604, "pitch": 43, "duration": 10, "velocity": 34}, {"time": 610, "pitch": 48, "duration": 8, "velocity": 41}, {"time": 610, "pitch": 60, "duration": 13, "velocity": 61}, {"time": 610, "pitch": 64, "duration": 13, "velocity": 63}, {"time": 616, "pitch": 55, "duration": 8, "velocity": 49}, {"time": 622, "pitch": 41, "duration": 16, "velocity": 64}, {"time": 628, "pitch": 48, "duration": 9, "velocity": 50}, {"time": 634, "pitch": 57, "duration": 7, "velocity": 59}, {"time": 634, "pitch": 60, "duration": 7, "velocity": 65}, {"time": 640, "pitch": 53, "duration": 7, "velocity": 46}, {"time": 646, "pitch": 38, "duration": 16, "velocity": 66}, {"time": 646, "pitch": 54, "duration": 5, "velocity": 50}, {"time": 646, "pitch": 57, "duration": 5, "velocity": 46}, {"time": 652, "pitch": 45, "duration": 11, "velocity": 37}, {"time": 658, "pitch": 50, "duration": 7, "velocity": 37}, {"time": 658, "pitch": 57, "duration": 2, "velocity": 58}, {"time": 658, "pitch": 62, "duration": 13, "velocity": 65}, {"time": 664, "pitch": 57, "duration": 7, "velocity": 49}, {"time": 670, "pitch": 43, "duration": 15, "velocity": 66}, {"time": 676, "pitch": 50, "duration": 8, "velocity": 56}, {"time": 682, "pitch": 58, "duration": 13, "velocity": 69}, {"time": 682, "pitch": 62, "duration": 14, "velocity": 59}, {"time": 688, "pitch": 55, "duration": 19, "velocity": 59}, {"time": 694, "pitch": 36, "duration": 16, "velocity": 55}, {"time": 700, "pitch": 43, "duration": 11, "velocity": 42}, {"time": 706, "pitch": 48, "duration": 8, "velocity": 31}, {"time": 706, "pitch": 60, "duration": 13, "velocity": 62}, {"time": 706, "pitch": 64, "duration": 13, "velocity": 49}, {"time": 712, "pitch": 55, "duration": 8, "velocity": 47}, {"time": 718, "pitch": 41, "duration": 15, "velocity": 59}, {"time": 724, "pitch": 48, "duration": 8, "velocity": 63}, {"time": 730, "pitch": 57, "duration": 13, "velocity": 57}, {"time": 730, "pitch": 60, "duration": 13, "velocity": 62}, {"time": 736, "pitch": 53, "duration": 6, "velocity": 50}, {"time": 742, "pitch": 38, "duration": 18, "velocity": 66}, {"time": 748, "pitch": 45, "duration": 12, "velocity": 42}, {"time": 754, "pitch": 50, "duration": 10, "velocity": 40}, {"time": 754, "pitch": 66, "duration": 13, "velocity": 77}, {"time": 760, "pitch": 62, "duration": 7, "velocity": 59}, {"time": 763, "pitch": 57, "duration": 4, "velocity": 53}, {"time": 766, "pitch": 43, "duration": 13, "velocity": 66}, {"time": 772, "pitch": 50, "duration": 9, "velocity": 52}, {"time": 778, "pitch": 58, "duration": 11, "velocity": 56}, {"time": 778, "pitch": 62, "duration": 11, "velocity": 49}, {"time": 784, "pitch": 55, "duration": 6, "velocity": 50}, {"time": 790, "pitch": 45, "duration": 12, "velocity": 63}, {"time": 796, "pitch": 64, "duration": 20, "velocity": 69}, {"time": 802, "pitch": 49, "duration": 7, "velocity": 48}, {"time": 802, "pitch": 61, "duration": 14, "velocity": 59}, {"time": 808, "pitch": 57, "duration": 9, "velocity": 49}, {"time": 814, "pitch": 38, "duration": 10, "velocity": 65}, {"time": 820, "pitch": 45, "duration": 4, "velocity": 38}, {"time": 826, "pitch": 36, "duration": 6, "velocity": 82}, {"time": 826, "pitch": 60, "duration": 11, "velocity": 81}, {"time": 826, "pitch": 64, "duration": 12, "velocity": 86}, {"time": 832, "pitch": 55, "duration": 5, "velocity": 75}, {"time": 838, "pitch": 46, "duration": 22, "velocity": 102}, {"time": 841, "pitch": 50, "duration": 21, "velocity": 68}, {"time": 844, "pitch": 53, "duration": 7, "velocity": 78}, {"time": 847, "pitch": 58, "duration": 5, "velocity": 66}, {"time": 850, "pitch": 65, "duration": 20, "velocity": 72}, {"time": 853, "pitch": 53, "duration": 7, "velocity": 53}, {"time": 856, "pitch": 58, "duration": 12, "velocity": 85}, {"time": 859, "pitch": 62, "duration": 10, "velocity": 57}, {"time": 862, "pitch": 46, "duration": 18, "velocity": 93}, {"time": 865, "pitch": 50, "duration": 15, "velocity": 56}, {"time": 868, "pitch": 53, "duration": 7, "velocity": 72}, {"time": 871, "pitch": 58, "duration": 5, "velocity": 62}, {"time": 874, "pitch": 65, "duration": 12, "velocity": 69}, {"time": 874, "pitch": 66, "duration": 1, "velocity": 46}, {"time": 877, "pitch": 53, "duration": 3, "velocity": 47}, {"time": 880, "pitch": 58, "duration": 6, "velocity": 68}, {"time": 883, "pitch": 62, "duration": 3, "velocity": 67}, {"time": 886, "pitch": 41, "duration": 22, "velocity": 65}, {"time": 889, "pitch": 48, "duration": 22, "velocity": 50}, {"time": 892, "pitch": 53, "duration": 7, "velocity": 56}, {"time": 895, "pitch": 57, "duration": 8, "velocity": 76}, {"time": 898, "pitch": 65, "duration": 20, "velocity": 82}, {"time": 901, "pitch": 53, "duration": 4, "velocity": 67}, {"time": 904, "pitch": 60, "duration": 16, "velocity": 73}, {"time": 907, "pitch": 57, "duration": 10, "velocity": 58}, {"time": 910, "pitch": 41, "duration": 22, "velocity": 54}, {"time": 913, "pitch": 48, "duration": 21, "velocity": 49}, {"time": 916, "pitch": 53, "duration": 7, "velocity": 82}, {"time": 919, "pitch": 57, "duration": 9, "velocity": 78}, {"time": 922, "pitch": 65, "duration": 12, "velocity": 100}, {"time": 925, "pitch": 53, "duration": 3, "velocity": 97}, {"time": 928, "pitch": 60, "duration": 6, "velocity": 107}, {"time": 931, "pitch": 57, "duration": 3, "velocity": 99}, {"time": 934, "pitch": 43, "duration": 18, "velocity": 82}, {"time": 937, "pitch": 50, "duration": 11, "velocity": 62}, {"time": 940, "pitch": 55, "duration": 3, "velocity": 72}, {"time": 943, "pitch": 58, "duration": 4, "velocity": 92}, {"time": 946, "pitch": 62, "duration": 12, "velocity": 97}, {"time": 949, "pitch": 50, "duration": 2, "velocity": 74}, {"time": 952, "pitch": 58, "duration": 6, "velocity": 102}, {"time": 955, "pitch": 55, "duration": 3, "velocity": 81}, {"time": 958, "pitch": 36, "duration": 19, "velocity": 72}, {"time": 961, "pitch": 43, "duration": 16, "velocity": 59}, {"time": 964, "pitch": 48, "duration": 7, "velocity": 79}, {"time": 967, "pitch": 52, "duration": 4, "velocity": 56}, {"time": 970, "pitch": 56, "duration": 8, "velocity": 107}, {"time": 973, "pitch": 48, "duration": 9, "velocity": 73}, {"time": 976, "pitch": 52, "duration": 6, "velocity": 74}, {"time": 979, "pitch": 56, "duration": 3, "velocity": 75}, {"time": 982, "pitch": 41, "duration": 22, "velocity": 73}, {"time": 985, "pitch": 48, "duration": 11, "velocity": 54}, {"time": 988, "pitch": 53, "duration": 5, "velocity": 79}, {"time": 991, "pitch": 57, "duration": 5, "velocity": 70}, {"time": 994, "pitch": 60, "duration": 12, "velocity": 95}, {"time": 997, "pitch": 48, "duration": 9, "velocity": 68}, {"time": 1000, "pitch": 57, "duration": 6, "velocity": 76}, {"time": 1003, "pitch": 53, "duration": 3, "velocity": 63}, {"time": 1006, "pitch": 41, "duration": 17, "velocity": 71}, {"time": 1009, "pitch": 48, "duration": 14, "velocity": 69}, {"time": 1012, "pitch": 53, "duration": 8, "velocity": 90}, {"time": 1015, "pitch": 60, "duration": 10, "velocity": 74}, {"time": 1018, "pitch": 69, "duration": 13, "velocity": 102}, {"time": 1021, "pitch": 53, "duration": 2, "velocity": 86}, {"time": 1024, "pitch": 65, "duration": 7, "velocity": 92}, {"time": 1027, "pitch": 60, "duration": 4, "velocity": 69}, {"time": 1030, "pitch": 34, "duration": 22, "velocity": 78}, {"time": 1033, "pitch": 41, "duration": 21, "velocity": 40}, {"time": 1036, "pitch": 46, "duration": 7, "velocity": 74}, {"time": 1039, "pitch": 50, "duration": 9, "velocity": 62}, {"time": 1042, "pitch": 58, "duration": 13, "velocity": 90}, {"time": 1045, "pitch": 46, "duration": 13, "velocity": 82}, {"time": 1048, "pitch": 53, "duration": 6, "velocity": 61}, {"time": 1051, "pitch": 50, "duration": 3, "velocity": 71}, {"time": 1054, "pitch": 34, "duration": 16, "velocity": 65}, {"time": 1057, "pitch": 41, "duration": 13, "velocity": 42}, {"time": 1060, "pitch": 46, "duration": 7, "velocity": 73}, {"time": 1063, "pitch": 53, "duration": 4, "velocity": 57}, {"time": 1066, "pitch": 58, "duration": 8, "velocity": 77}, {"time": 1066, "pitch": 62, "duration": 12, "velocity": 88}, {"time": 1069, "pitch": 46, "duration": 3, "velocity": 78}, {"time": 1072, "pitch": 53, "duration": 6, "velocity": 73}, {"time": 1075, "pitch": 58, "duration": 3, "velocity": 58}, {"time": 1078, "pitch": 41, "duration": 22, "velocity": 68}, {"time": 1081, "pitch": 48, "duration": 22, "velocity": 56}, {"time": 1084, "pitch": 53, "duration": 7, "velocity": 63}, {"time": 1087, "pitch": 57, "duration": 9, "velocity": 56}, {"time": 1090, "pitch": 65, "duration": 20, "velocity": 90}, {"time": 1093, "pitch": 53, "duration": 12, "velocity": 61}, {"time": 1096, "pitch": 60, "duration": 14, "velocity": 72}, {"time": 1099, "pitch": 57, "duration": 10, "velocity": 74}, {"time": 1102, "pitch": 41, "duration": 22, "velocity": 66}, {"time": 1105, "pitch": 48, "duration": 21, "velocity": 61}, {"time": 1108, "pitch": 53, "duration": 8, "velocity": 70}, {"time": 1111, "pitch": 57, "duration": 10, "velocity": 69}, {"time": 1114, "pitch": 65, "duration": 12, "velocity": 100}, {"time": 1117, "pitch": 53, "duration": 3, "velocity": 88}, {"time": 1120, "pitch": 60, "duration": 6, "velocity": 69}, {"time": 1123, "pitch": 57, "duration": 4, "velocity": 71}, {"time": 1126, "pitch": 43, "duration": 17, "velocity": 74}, {"time": 1129, "pitch": 50, "duration": 10, "velocity": 59}, {"time": 1132, "pitch": 55, "duration": 4, "velocity": 64}, {"time": 1135, "pitch": 58, "duration": 4, "velocity": 53}, {"time": 1138, "pitch": 62, "duration": 11, "velocity": 85}, {"time": 1141, "pitch": 50, "duration": 2, "velocity": 59}, {"time": 1144, "pitch": 58, "duration": 5, "velocity": 69}, {"time": 1147, "pitch": 55, "duration": 4, "velocity": 79}, {"time": 1150, "pitch": 36, "duration": 18, "velocity": 89}, {"time": 1153, "pitch": 43, "duration": 15, "velocity": 65}, {"time": 1156, "pitch": 48, "duration": 7, "velocity": 89}, {"time": 1159, "pitch": 55, "duration": 9, "velocity": 68}, {"time": 1162, "pitch": 64, "duration": 14, "velocity": 112}, {"time": 1165, "pitch": 48, "duration": 5, "velocity": 89}, {"time": 1168, "pitch": 60, "duration": 7, "velocity": 122}, {"time": 1171, "pitch": 55, "duration": 3, "velocity": 95}, {"time": 1174, "pitch": 41, "duration": 18, "velocity": 73}, {"time": 1177, "pitch": 48, "duration": 15, "velocity": 72}, {"time": 1180, "pitch": 53, "duration": 7, "velocity": 85}, {"time": 1183, "pitch": 57, "duration": 5, "velocity": 69}, {"time": 1186, "pitch": 65, "duration": 10, "velocity": 102}, {"time": 1189, "pitch": 53, "duration": 8, "velocity": 69}, {"time": 1192, "pitch": 60, "duration": 4, "velocity": 90}, {"time": 1195, "pitch": 57, "duration": 3, "velocity": 81}, {"time": 1198, "pitch": 45, "duration": 22, "velocity": 79}, {"time": 1201, "pitch": 52, "duration": 10, "velocity": 73}, {"time": 1204, "pitch": 57, "duration": 4, "velocity": 86}, {"time": 1207, "pitch": 61, "duration": 3, "velocity": 92}, {"time": 1210, "pitch": 64, "duration": 37, "velocity": 89}, {"time": 1213, "pitch": 52, "duration": 9, "velocity": 40}, {"time": 1216, "pitch": 61, "duration": 30, "velocity": 79}, {"time": 1219, "pitch": 57, "duration": 28, "velocity": 42}, {"time": 1222, "pitch": 45, "duration": 25, "velocity": 67}, {"time": 1242, "pitch": 74, "duration": 16, "velocity": 42}, {"time": 1243, "pitch": 77, "duration": 15, "velocity": 53}, {"time": 1244, "pitch": 81, "duration": 14, "velocity": 58}, {"time": 1245, "pitch": 86, "duration": 13, "velocity": 85}, {"time": 1246, "pitch": 38, "duration": 18, "velocity": 67}, {"time": 1246, "pitch": 57, "duration": 1, "velocity": 40}, {"time": 1246, "pitch": 62, "duration": 12, "velocity": 51}, {"time": 1246, "pitch": 65, "duration": 11, "velocity": 50}, {"time": 1252, "pitch": 45, "duration": 12, "velocity": 42}, {"time": 1258, "pitch": 50, "duration": 7, "velocity": 38}, {"time": 1258, "pitch": 65, "duration": 13, "velocity": 69}, {"time": 1264, "pitch": 62, "duration": 7, "velocity": 41}, {"time": 1270, "pitch": 43, "duration": 17, "velocity": 66}, {"time": 1276, "pitch": 50, "duration": 9, "velocity": 51}, {"time": 1282, "pitch": 62, "duration": 12, "velocity": 89}, {"time": 1285, "pitch": 58, "duration": 9, "velocity": 42}, {"time": 1288, "pitch": 55, "duration": 7, "velocity": 51}, {"time": 1294, "pitch": 36, "duration": 15, "velocity": 55}, {"time": 1297, "pitch": 43, "duration": 11, "velocity": 56}, {"time": 1300, "pitch": 48, "duration": 10, "velocity": 39}, {"time": 1303, "pitch": 55, "duration": 16, "velocity": 52}, {"time": 1306, "pitch": 64, "duration": 13, "velocity": 76}, {"time": 1312, "pitch": 60, "duration": 7, "velocity": 50}, {"time": 1318, "pitch": 41, "duration": 16, "velocity": 66}, {"time": 1324, "pitch": 48, "duration": 10, "velocity": 48}, {"time": 1330, "pitch": 53, "duration": 3, "velocity": 40}, {"time": 1330, "pitch": 65, "duration": 7, "velocity": 78}, {"time": 1333, "pitch": 60, "duration": 7, "velocity": 60}, {"time": 1336, "pitch": 57, "duration": 20, "velocity": 63}, {"time": 1342, "pitch": 38, "duration": 17, "velocity": 66}, {"time": 1342, "pitch": 66, "duration": 9, "velocity": 72}, {"time": 1345, "pitch": 45, "duration": 14, "velocity": 36}, {"time": 1348, "pitch": 50, "duration": 14, "velocity": 61}, {"time": 1351, "pitch": 62, "duration": 4, "velocity": 49}, {"time": 1354, "pitch": 66, "duration": 13, "velocity": 92}, {"time": 1360, "pitch": 62, "duration": 6, "velocity": 44}, {"time": 1366, "pitch": 43, "duration": 18, "velocity": 69}, {"time": 1372, "pitch": 50, "duration": 8, "velocity": 59}, {"time": 1378, "pitch": 62, "duration": 12, "velocity": 95}, {"time": 1381, "pitch": 50, "duration": 5, "velocity": 57}, {"time": 1384, "pitch": 58, "duration": 6, "velocity": 60}, {"time": 1387, "pitch": 55, "duration": 3, "velocity": 75}, {"time": 1390, "pitch": 45, "duration": 10, "velocity": 76}, {"time": 1393, "pitch": 57, "duration": 4, "velocity": 58}, {"time": 1396, "pitch": 64, "duration": 19, "velocity": 72}, {"time": 1399, "pitch": 57, "duration": 2, "velocity": 69}, {"time": 1402, "pitch": 49, "duration": 8, "velocity": 61}, {"time": 1408, "pitch": 61, "duration": 7, "velocity": 59}, {"time": 1414, "pitch": 38, "duration": 22, "velocity": 52}, {"time": 1420, "pitch": 45, "duration": 18, "velocity": 40}, {"time": 1423, "pitch": 50, "duration": 4, "velocity": 65}, {"time": 1426, "pitch": 64, "duration": 6, "velocity": 92}, {"time": 1429, "pitch": 50, "duration": 10, "velocity": 61}, {"time": 1432, "pitch": 65, "duration": 6, "velocity": 76}, {"time": 1435, "pitch": 64, "duration": 3, "velocity": 59}, {"time": 1438, "pitch": 38, "duration": 17, "velocity": 62}, {"time": 1441, "pitch": 45, "duration": 14, "velocity": 52}, {"time": 1444, "pitch": 50, "duration": 7, "velocity": 72}, {"time": 1447, "pitch": 57, "duration": 6, "velocity": 63}, {"time": 1450, "pitch": 65, "duration": 12, "velocity": 100}, {"time": 1453, "pitch": 50, "duration": 8, "velocity": 79}, {"time": 1456, "pitch": 64, "duration": 6, "velocity": 35}, {"time": 1462, "pitch": 43, "duration": 19, "velocity": 64}, {"time": 1468, "pitch": 50, "duration": 8, "velocity": 57}, {"time": 1474, "pitch": 62, "duration": 12, "velocity": 102}, {"time": 1477, "pitch": 50, "duration": 3, "velocity": 71}, {"time": 1480, "pitch": 58, "duration": 6, "velocity": 79}, {"time": 1483, "pitch": 55, "duration": 4, "velocity": 53}, {"time": 1486, "pitch": 36, "duration": 17, "velocity": 76}, {"time": 1489, "pitch": 43, "duration": 14, "velocity": 44}, {"time": 1492, "pitch": 48, "duration": 8, "velocity": 63}, {"time": 1495, "pitch": 55, "duration": 15, "velocity": 65}, {"time": 1498, "pitch": 64, "duration": 13, "velocity": 85}, {"time": 1504, "pitch": 60, "duration": 6, "velocity": 58}, {"time": 1510, "pitch": 41, "duration": 16, "velocity": 66}, {"time": 1516, "pitch": 48, "duration": 10, "velocity": 49}, {"time": 1522, "pitch": 53, "duration": 3, "velocity": 42}, {"time": 1522, "pitch": 65, "duration": 9, "velocity": 77}, {"time": 1525, "pitch": 60, "duration": 8, "velocity": 67}, {"time": 1528, "pitch": 57, "duration": 24, "velocity": 56}, {"time": 1534, "pitch": 38, "duration": 18, "velocity": 66}, {"time": 1534, "pitch": 66, "duration": 11, "velocity": 95}, {"time": 1537, "pitch": 45, "duration": 15, "velocity": 44}, {"time": 1540, "pitch": 50, "duration": 8, "velocity": 83}, {"time": 1543, "pitch": 62, "duration": 4, "velocity": 66}, {"time": 1546, "pitch": 66, "duration": 12, "velocity": 99}, {"time": 1549, "pitch": 50, "duration": 6, "velocity": 58}, {"time": 1552, "pitch": 62, "duration": 6, "velocity": 56}, {"time": 1555, "pitch": 57, "duration": 3, "velocity": 62}, {"time": 1558, "pitch": 43, "duration": 18, "velocity": 63}, {"time": 1561, "pitch": 50, "duration": 10, "velocity": 35}, {"time": 1564, "pitch": 55, "duration": 4, "velocity": 43}, {"time": 1567, "pitch": 58, "duration": 3, "velocity": 57}, {"time": 1570, "pitch": 62, "duration": 11, "velocity": 96}, {"time": 1573, "pitch": 50, "duration": 3, "velocity": 51}, {"time": 1576, "pitch": 58, "duration": 5, "velocity": 95}, {"time": 1579, "pitch": 55, "duration": 5, "velocity": 81}, {"time": 1582, "pitch": 36, "duration": 16, "velocity": 89}, {"time": 1588, "pitch": 43, "duration": 10, "velocity": 57}, {"time": 1591, "pitch": 48, "duration": 4, "velocity": 76}, {"time": 1594, "pitch": 64, "duration": 11, "velocity": 99}, {"time": 1597, "pitch": 48, "duration": 6, "velocity": 75}, {"time": 1600, "pitch": 60, "duration": 5, "velocity": 79}, {"time": 1603, "pitch": 55, "duration": 2, "velocity": 76}, {"time": 1606, "pitch": 41, "duration": 17, "velocity": 88}, {"time": 1609, "pitch": 48, "duration": 13, "velocity": 95}, {"time": 1612, "pitch": 53, "duration": 7, "velocity": 86}, {"time": 1615, "pitch": 57, "duration": 4, "velocity": 69}, {"time": 1618, "pitch": 65, "duration": 10, "velocity": 112}, {"time": 1621, "pitch": 53, "duration": 2, "velocity": 99}, {"time": 1624, "pitch": 60, "duration": 4, "velocity": 90}, {"time": 1627, "pitch": 57, "duration": 4, "velocity": 85}, {"time": 1630, "pitch": 38, "duration": 17, "velocity": 92}, {"time": 1633, "pitch": 45, "duration": 14, "velocity": 93}, {"time": 1636, "pitch": 50, "duration": 7, "velocity": 97}, {"time": 1639, "pitch": 57, "duration": 2, "velocity": 90}, {"time": 1639, "pitch": 62, "duration": 2, "velocity": 67}, {"time": 1639, "pitch": 66, "duration": 2, "velocity": 38}, {"time": 1642, "pitch": 57, "duration": 3, "velocity": 85}, {"time": 1642, "pitch": 62, "duration": 3, "velocity": 100}, {"time": 1642, "pitch": 66, "duration": 3, "velocity": 127}, {"time": 1645, "pitch": 50, "duration": 3, "velocity": 72}, {"time": 1648, "pitch": 62, "duration": 4, "velocity": 122}, {"time": 1648, "pitch": 66, "duration": 4, "velocity": 127}, {"time": 1651, "pitch": 57, "duration": 2, "velocity": 76}, {"time": 1654, "pitch": 43, "duration": 5, "velocity": 82}, {"time": 1657, "pitch": 55, "duration": 2, "velocity": 82}, {"time": 1657, "pitch": 58, "duration": 2, "velocity": 99}, {"time": 1657, "pitch": 62, "duration": 2, "velocity": 88}, {"time": 1663, "pitch": 55, "duration": 1, "velocity": 76}, {"time": 1663, "pitch": 58, "duration": 1, "velocity": 92}, {"time": 1663, "pitch": 62, "duration": 1, "velocity": 85}, {"time": 1666, "pitch": 43, "duration": 7, "velocity": 77}, {"time": 1672, "pitch": 58, "duration": 5, "velocity": 107}, {"time": 1672, "pitch": 62, "duration": 6, "velocity": 100}, {"time": 1675, "pitch": 55, "duration": 8, "velocity": 81}, {"time": 1678, "pitch": 48, "duration": 4, "velocity": 100}, {"time": 1681, "pitch": 60, "duration": 2, "velocity": 96}, {"time": 1681, "pitch": 64, "duration": 2, "velocity": 89}, {"time": 1687, "pitch": 55, "duration": 4, "velocity": 90}, {"time": 1687, "pitch": 60, "duration": 4, "velocity": 93}, {"time": 1687, "pitch": 64, "duration": 5, "velocity": 88}, {"time": 1690, "pitch": 48, "duration": 7, "velocity": 79}, {"time": 1693, "pitch": 55, "duration": 4, "velocity": 63}, {"time": 1696, "pitch": 60, "duration": 5, "velocity": 99}, {"time": 1696, "pitch": 64, "duration": 4, "velocity": 97}, {"time": 1699, "pitch": 55, "duration": 3, "velocity": 90}, {"time": 1702, "pitch": 41, "duration": 5, "velocity": 78}, {"time": 1705, "pitch": 53, "duration": 2, "velocity": 64}, {"time": 1705, "pitch": 57, "duration": 2, "velocity": 70}, {"time": 1705, "pitch": 60, "duration": 2, "velocity": 72}, {"time": 1711, "pitch": 53, "duration": 4, "velocity": 75}, {"time": 1711, "pitch": 57, "duration": 4, "velocity": 82}, {"time": 1711, "pitch": 60, "duration": 4, "velocity": 88}, {"time": 1714, "pitch": 41, "duration": 6, "velocity": 76}, {"time": 1720, "pitch": 57, "duration": 5, "velocity": 95}, {"time": 1720, "pitch": 60, "duration": 5, "velocity": 90}, {"time": 1723, "pitch": 53, "duration": 2, "velocity": 75}, {"time": 1726, "pitch": 38, "duration": 4, "velocity": 78}, {"time": 1729, "pitch": 45, "duration": 1, "velocity": 62}, {"time": 1729, "pitch": 50, "duration": 1, "velocity": 71}, {"time": 1729, "pitch": 57, "duration": 1, "velocity": 90}, {"time": 1729, "pitch": 62, "duration": 1, "velocity": 99}, {"time": 1729, "pitch": 66, "duration": 1, "velocity": 102}, {"time": 1735, "pitch": 57, "duration": 4, "velocity": 92}, {"time": 1735, "pitch": 62, "duration": 5, "velocity": 93}, {"time": 1735, "pitch": 66, "duration": 5, "velocity": 92}, {"time": 1738, "pitch": 38, "duration": 7, "velocity": 99}, {"time": 1744, "pitch": 50, "duration": 6, "velocity": 89}, {"time": 1744, "pitch": 62, "duration": 5, "velocity": 102}, {"time": 1744, "pitch": 66, "duration": 5, "velocity": 122}, {"time": 1747, "pitch": 57, "duration": 3, "velocity": 90}, {"time": 1750, "pitch": 43, "duration": 5, "velocity": 76}, {"time": 1753, "pitch": 55, "duration": 1, "velocity": 73}, {"time": 1753, "pitch": 58, "duration": 1, "velocity": 85}, {"time": 1753, "pitch": 62, "duration": 1, "velocity": 83}, {"time": 1759, "pitch": 55, "duration": 4, "velocity": 77}, {"time": 1759, "pitch": 58, "duration": 4, "velocity": 90}, {"time": 1759, "pitch": 62, "duration": 4, "velocity": 85}, {"time": 1762, "pitch": 50, "duration": 6, "velocity": 66}, {"time": 1768, "pitch": 58, "duration": 6, "velocity": 107}, {"time": 1768, "pitch": 62, "duration": 6, "velocity": 92}, {"time": 1771, "pitch": 55, "duration": 3, "velocity": 62}, {"time": 1774, "pitch": 45, "duration": 6, "velocity": 79}, {"time": 1777, "pitch": 57, "duration": 2, "velocity": 79}, {"time": 1777, "pitch": 61, "duration": 2, "velocity": 75}, {"time": 1777, "pitch": 64, "duration": 2, "velocity": 76}, {"time": 1783, "pitch": 57, "duration": 2, "velocity": 81}, {"time": 1783, "pitch": 61, "duration": 2, "velocity": 88}, {"time": 1783, "pitch": 64, "duration": 3, "velocity": 81}, {"time": 1786, "pitch": 49, "duration": 7, "velocity": 88}, {"time": 1792, "pitch": 57, "duration": 6, "velocity": 81}, {"time": 1792, "pitch": 61, "duration": 6, "velocity": 99}, {"time": 1792, "pitch": 64, "duration": 6, "velocity": 85}, {"time": 1798, "pitch": 38, "duration": 6, "velocity": 73}, {"time": 1801, "pitch": 57, "duration": 3, "velocity": 72}, {"time": 1801, "pitch": 62, "duration": 2, "velocity": 79}, {"time": 1801, "pitch": 65, "duration": 3, "velocity": 73}, {"time": 1807, "pitch": 57, "duration": 2, "velocity": 77}, {"time": 1807, "pitch": 62, "duration": 2, "velocity": 85}, {"time": 1807, "pitch": 65, "duration": 2, "velocity": 75}, {"time": 1810, "pitch": 38, "duration": 11, "velocity": 65}, {"time": 1816, "pitch": 62, "duration": 6, "velocity": 95}, {"time": 1816, "pitch": 65, "duration": 6, "velocity": 86}, {"time": 1819, "pitch": 57, "duration": 3, "velocity": 63}, {"time": 1822, "pitch": 38, "duration": 4, "velocity": 85}, {"time": 1834, "pitch": 48, "duration": 5, "velocity": 72}, {"time": 1834, "pitch": 55, "duration": 10, "velocity": 72}, {"time": 1834, "pitch": 60, "duration": 10, "velocity": 77}, {"time": 1834, "pitch": 64, "duration": 10, "velocity": 71}, {"time": 1846, "pitch": 46, "duration": 22, "velocity": 93}, {"time": 1849, "pitch": 53, "duration": 21, "velocity": 38}, {"time": 1852, "pitch": 58, "duration": 7, "velocity": 81}, {"time": 1855, "pitch": 62, "duration": 7, "velocity": 70}, {"time": 1858, "pitch": 70, "duration": 20, "velocity": 112}, {"time": 1861, "pitch": 58, "duration": 12, "velocity": 107}, {"time": 1864, "pitch": 65, "duration": 16, "velocity": 90}, {"time": 1867, "pitch": 62, "duration": 9, "velocity": 79}, {"time": 1870, "pitch": 46, "duration": 20, "velocity": 50}, {"time": 1873, "pitch": 53, "duration": 16, "velocity": 57}, {"time": 1876, "pitch": 58, "duration": 7, "velocity": 86}, {"time": 1879, "pitch": 62, "duration": 10, "velocity": 79}, {"time": 1882, "pitch": 70, "duration": 13, "velocity": 117}, {"time": 1885, "pitch": 58, "duration": 3, "velocity": 86}, {"time": 1888, "pitch": 65, "duration": 6, "velocity": 81}, {"time": 1891, "pitch": 62, "duration": 4, "velocity": 86}, {"time": 1894, "pitch": 41, "duration": 21, "velocity": 69}, {"time": 1897, "pitch": 48, "duration": 22, "velocity": 66}, {"time": 1900, "pitch": 53, "duration": 7, "velocity": 72}, {"time": 1903, "pitch": 57, "duration": 9, "velocity": 65}, {"time": 1906, "pitch": 65, "duration": 19, "velocity": 96}, {"time": 1909, "pitch": 53, "duration": 11, "velocity": 72}, {"time": 1912, "pitch": 60, "duration": 14, "velocity": 86}, {"time": 1915, "pitch": 57, "duration": 10, "velocity": 82}, {"time": 1918, "pitch": 41, "duration": 22, "velocity": 66}, {"time": 1921, "pitch": 48, "duration": 21, "velocity": 59}, {"time": 1924, "pitch": 53, "duration": 7, "velocity": 82}, {"time": 1927, "pitch": 57, "duration": 7, "velocity": 88}, {"time": 1927, "pitch": 60, "duration": 1, "velocity": 30}, {"time": 1930, "pitch": 65, "duration": 12, "velocity": 97}, {"time": 1933, "pitch": 53, "duration": 4, "velocity": 86}, {"time": 1936, "pitch": 60, "duration": 6, "velocity": 79}, {"time": 1939, "pitch": 57, "duration": 3, "velocity": 95}, {"time": 1942, "pitch": 43, "duration": 19, "velocity": 90}, {"time": 1945, "pitch": 50, "duration": 10, "velocity": 54}, {"time": 1948, "pitch": 55, "duration": 4, "velocity": 83}, {"time": 1951, "pitch": 58, "duration": 2, "velocity": 96}, {"time": 1954, "pitch": 62, "duration": 12, "velocity": 99}, {"time": 1957, "pitch": 50, "duration": 3, "velocity": 76}, {"time": 1960, "pitch": 58, "duration": 6, "velocity": 96}, {"time": 1963, "pitch": 55, "duration": 3, "velocity": 79}, {"time": 1966, "pitch": 36, "duration": 20, "velocity": 85}, {"time": 1969, "pitch": 43, "duration": 17, "velocity": 50}, {"time": 1972, "pitch": 48, "duration": 7, "velocity": 79}, {"time": 1975, "pitch": 52, "duration": 4, "velocity": 85}, {"time": 1978, "pitch": 56, "duration": 7, "velocity": 107}, {"time": 1981, "pitch": 48, "duration": 9, "velocity": 83}, {"time": 1984, "pitch": 52, "duration": 5, "velocity": 82}, {"time": 1987, "pitch": 56, "duration": 3, "velocity": 93}, {"time": 1990, "pitch": 41, "duration": 22, "velocity": 79}, {"time": 1993, "pitch": 48, "duration": 22, "velocity": 83}, {"time": 1996, "pitch": 53, "duration": 7, "velocity": 88}, {"time": 1999, "pitch": 57, "duration": 4, "velocity": 92}, {"time": 2002, "pitch": 60, "duration": 8, "velocity": 67}, {"time": 2002, "pitch": 65, "duration": 14, "velocity": 100}, {"time": 2005, "pitch": 53, "duration": 3, "velocity": 95}, {"time": 2008, "pitch": 57, "duration": 7, "velocity": 97}, {"time": 2011, "pitch": 60, "duration": 5, "velocity": 95}, {"time": 2014, "pitch": 41, "duration": 17, "velocity": 81}, {"time": 2017, "pitch": 48, "duration": 14, "velocity": 92}, {"time": 2020, "pitch": 53, "duration": 7, "velocity": 99}, {"time": 2020, "pitch": 60, "duration": 4, "velocity": 16}, {"time": 2023, "pitch": 57, "duration": 10, "velocity": 96}, {"time": 2026, "pitch": 65, "duration": 13, "velocity": 112}, {"time": 2029, "pitch": 53, "duration": 4, "velocity": 90}, {"time": 2032, "pitch": 60, "duration": 5, "velocity": 97}, {"time": 2035, "pitch": 57, "duration": 3, "velocity": 96}, {"time": 2038, "pitch": 34, "duration": 22, "velocity": 82}, {"time": 2041, "pitch": 41, "duration": 21, "velocity": 33}, {"time": 2044, "pitch": 46, "duration": 7, "velocity": 93}, {"time": 2047, "pitch": 50, "duration": 8, "velocity": 76}, {"time": 2050, "pitch": 58, "duration": 20, "velocity": 122}, {"time": 2053, "pitch": 46, "duration": 12, "velocity": 86}, {"time": 2056, "pitch": 53, "duration": 15, "velocity": 86}, {"time": 2059, "pitch": 50, "duration": 10, "velocity": 86}, {"time": 2062, "pitch": 34, "duration": 16, "velocity": 100}, {"time": 2065, "pitch": 41, "duration": 12, "velocity": 51}, {"time": 2068, "pitch": 46, "duration": 7, "velocity": 85}, {"time": 2071, "pitch": 50, "duration": 7, "velocity": 74}, {"time": 2074, "pitch": 58, "duration": 12, "velocity": 122}, {"time": 2077, "pitch": 46, "duration": 3, "velocity": 99}, {"time": 2080, "pitch": 53, "duration": 6, "velocity": 88}, {"time": 2083, "pitch": 50, "duration": 3, "velocity": 99}, {"time": 2086, "pitch": 41, "duration": 23, "velocity": 89}, {"time": 2089, "pitch": 48, "duration": 22, "velocity": 69}, {"time": 2092, "pitch": 53, "duration": 7, "velocity": 86}, {"time": 2095, "pitch": 55, "duration": 1, "velocity": 55}, {"time": 2095, "pitch": 57, "duration": 5, "velocity": 56}, {"time": 2098, "pitch": 65, "duration": 22, "velocity": 86}, {"time": 2101, "pitch": 53, "duration": 6, "velocity": 88}, {"time": 2104, "pitch": 60, "duration": 16, "velocity": 83}, {"time": 2107, "pitch": 57, "duration": 11, "velocity": 78}, {"time": 2110, "pitch": 41, "duration": 17, "velocity": 71}, {"time": 2113, "pitch": 48, "duration": 14, "velocity": 67}, {"time": 2116, "pitch": 53, "duration": 7, "velocity": 86}, {"time": 2119, "pitch": 57, "duration": 8, "velocity": 72}, {"time": 2122, "pitch": 65, "duration": 11, "velocity": 107}, {"time": 2125, "pitch": 53, "duration": 1, "velocity": 86}, {"time": 2128, "pitch": 60, "duration": 5, "velocity": 90}, {"time": 2131, "pitch": 57, "duration": 4, "velocity": 88}, {"time": 2134, "pitch": 31, "duration": 16, "velocity": 71}, {"time": 2137, "pitch": 43, "duration": 11, "velocity": 72}, {"time": 2140, "pitch": 55, "duration": 8, "velocity": 73}, {"time": 2143, "pitch": 58, "duration": 4, "velocity": 88}, {"time": 2146, "pitch": 62, "duration": 12, "velocity": 100}, {"time": 2149, "pitch": 43, "duration": 7, "velocity": 69}, {"time": 2152, "pitch": 58, "duration": 6, "velocity": 117}, {"time": 2155, "pitch": 55, "duration": 3, "velocity": 95}, {"time": 2158, "pitch": 36, "duration": 18, "velocity": 85}, {"time": 2161, "pitch": 43, "duration": 15, "velocity": 85}, {"time": 2164, "pitch": 48, "duration": 7, "velocity": 95}, {"time": 2167, "pitch": 55, "duration": 3, "velocity": 85}, {"time": 2170, "pitch": 60, "duration": 7, "velocity": 99}, {"time": 2170, "pitch": 64, "duration": 12, "velocity": 99}, {"time": 2173, "pitch": 48, "duration": 8, "velocity": 90}, {"time": 2176, "pitch": 55, "duration": 4, "velocity": 102}, {"time": 2179, "pitch": 60, "duration": 3, "velocity": 93}, {"time": 2182, "pitch": 41, "duration": 22, "velocity": 81}, {"time": 2185, "pitch": 48, "duration": 18, "velocity": 93}, {"time": 2188, "pitch": 53, "duration": 8, "velocity": 92}, {"time": 2191, "pitch": 57, "duration": 5, "velocity": 79}, {"time": 2194, "pitch": 65, "duration": 11, "velocity": 99}, {"time": 2197, "pitch": 53, "duration": 3, "velocity": 102}, {"time": 2200, "pitch": 60, "duration": 5, "velocity": 93}, {"time": 2203, "pitch": 57, "duration": 3, "velocity": 89}, {"time": 2206, "pitch": 45, "duration": 19, "velocity": 96}, {"time": 2209, "pitch": 52, "duration": 9, "velocity": 92}, {"time": 2212, "pitch": 57, "duration": 7, "velocity": 70}, {"time": 2215, "pitch": 61, "duration": 3, "velocity": 97}, {"time": 2218, "pitch": 64, "duration": 12, "velocity": 93}, {"time": 2221, "pitch": 52, "duration": 3, "velocity": 85}, {"time": 2224, "pitch": 61, "duration": 6, "velocity": 127}, {"time": 2227, "pitch": 57, "duration": 3, "velocity": 93}, {"time": 2230, "pitch": 43, "duration": 18, "velocity": 86}, {"time": 2233, "pitch": 50, "duration": 10, "velocity": 65}, {"time": 2236, "pitch": 55, "duration": 4, "velocity": 79}, {"time": 2239, "pitch": 58, "duration": 3, "velocity": 96}, {"time": 2239, "pitch": 62, "duration": 1, "velocity": 49}, {"time": 2242, "pitch": 62, "duration": 11, "velocity": 95}, {"time": 2245, "pitch": 50, "duration": 2, "velocity": 82}, {"time": 2248, "pitch": 58, "duration": 4, "velocity": 117}, {"time": 2251, "pitch": 55, "duration": 5, "velocity": 93}, {"time": 2254, "pitch": 36, "duration": 16, "velocity": 89}, {"time": 2257, "pitch": 43, "duration": 14, "velocity": 83}, {"time": 2260, "pitch": 48, "duration": 7, "velocity": 93}, {"time": 2263, "pitch": 55, "duration": 7, "velocity": 93}, {"time": 2266, "pitch": 64, "duration": 12, "velocity": 102}, {"time": 2269, "pitch": 48, "duration": 8, "velocity": 83}, {"time": 2272, "pitch": 60, "duration": 6, "velocity": 102}, {"time": 2275, "pitch": 55, "duration": 3, "velocity": 96}, {"time": 2278, "pitch": 41, "duration": 17, "velocity": 88}, {"time": 2281, "pitch": 48, "duration": 14, "velocity": 86}, {"time": 2284, "pitch": 53, "duration": 7, "velocity": 90}, {"time": 2287, "pitch": 57, "duration": 5, "velocity": 97}, {"time": 2290, "pitch": 65, "duration": 11, "velocity": 112}, {"time": 2293, "pitch": 53, "duration": 2, "velocity": 96}, {"time": 2296, "pitch": 60, "duration": 5, "velocity": 85}, {"time": 2299, "pitch": 57, "duration": 5, "velocity": 92}, {"time": 2302, "pitch": 38, "duration": 17, "velocity": 77}, {"time": 2305, "pitch": 45, "duration": 14, "velocity": 76}, {"time": 2308, "pitch": 50, "duration": 7, "velocity": 88}, {"time": 2311, "pitch": 57, "duration": 7, "velocity": 83}, {"time": 2314, "pitch": 66, "duration": 12, "velocity": 127}, {"time": 2317, "pitch": 50, "duration": 5, "velocity": 95}, {"time": 2320, "pitch": 62, "duration": 6, "velocity": 95}, {"time": 2323, "pitch": 57, "duration": 3, "velocity": 93}, {"time": 2326, "pitch": 43, "duration": 23, "velocity": 89}, {"time": 2329, "pitch": 50, "duration": 11, "velocity": 52}, {"time": 2332, "pitch": 55, "duration": 4, "velocity": 90}, {"time": 2335, "pitch": 58, "duration": 2, "velocity": 96}, {"time": 2338, "pitch": 62, "duration": 11, "velocity": 100}, {"time": 2341, "pitch": 50, "duration": 8, "velocity": 61}, {"time": 2344, "pitch": 58, "duration": 5, "velocity": 112}, {"time": 2347, "pitch": 55, "duration": 2, "velocity": 90}, {"time": 2350, "pitch": 36, "duration": 17, "velocity": 88}, {"time": 2353, "pitch": 43, "duration": 15, "velocity": 66}, {"time": 2356, "pitch": 48, "duration": 7, "velocity": 79}, {"time": 2359, "pitch": 55, "duration": 5, "velocity": 85}, {"time": 2362, "pitch": 64, "duration": 12, "velocity": 99}, {"time": 2365, "pitch": 48, "duration": 5, "velocity": 77}, {"time": 2368, "pitch": 60, "duration": 6, "velocity": 96}, {"time": 2371, "pitch": 55, "duration": 3, "velocity": 93}, {"time": 2374, "pitch": 41, "duration": 23, "velocity": 77}, {"time": 2377, "pitch": 48, "duration": 19, "velocity": 50}, {"time": 2380, "pitch": 53, "duration": 7, "velocity": 83}, {"time": 2383, "pitch": 57, "duration": 2, "velocity": 93}, {"time": 2386, "pitch": 60, "duration": 6, "velocity": 102}, {"time": 2389, "pitch": 53, "duration": 7, "velocity": 95}, {"time": 2392, "pitch": 57, "duration": 3, "velocity": 102}, {"time": 2395, "pitch": 60, "duration": 3, "velocity": 95}, {"time": 2398, "pitch": 38, "duration": 19, "velocity": 97}, {"time": 2401, "pitch": 45, "duration": 16, "velocity": 73}, {"time": 2404, "pitch": 50, "duration": 7, "velocity": 83}, {"time": 2407, "pitch": 57, "duration": 6, "velocity": 67}, {"time": 2410, "pitch": 66, "duration": 12, "velocity": 117}, {"time": 2413, "pitch": 50, "duration": 8, "velocity": 81}, {"time": 2416, "pitch": 62, "duration": 6, "velocity": 88}, {"time": 2419, "pitch": 57, "duration": 3, "velocity": 86}, {"time": 2422, "pitch": 43, "duration": 17, "velocity": 78}, {"time": 2425, "pitch": 50, "duration": 10, "velocity": 78}, {"time": 2428, "pitch": 55, "duration": 3, "velocity": 92}, {"time": 2431, "pitch": 58, "duration": 3, "velocity": 99}, {"time": 2434, "pitch": 62, "duration": 11, "velocity": 102}, {"time": 2437, "pitch": 50, "duration": 2, "velocity": 76}, {"time": 2440, "pitch": 58, "duration": 5, "velocity": 112}, {"time": 2443, "pitch": 55, "duration": 4, "velocity": 92}, {"time": 2446, "pitch": 36, "duration": 16, "velocity": 77}, {"time": 2449, "pitch": 43, "duration": 14, "velocity": 56}, {"time": 2452, "pitch": 48, "duration": 7, "velocity": 93}, {"time": 2455, "pitch": 55, "duration": 4, "velocity": 92}, {"time": 2458, "pitch": 64, "duration": 11, "velocity": 117}, {"time": 2461, "pitch": 48, "duration": 4, "velocity": 99}, {"time": 2464, "pitch": 60, "duration": 5, "velocity": 99}, {"time": 2467, "pitch": 55, "duration": 2, "velocity": 93}, {"time": 2470, "pitch": 41, "duration": 19, "velocity": 82}, {"time": 2473, "pitch": 48, "duration": 15, "velocity": 73}, {"time": 2476, "pitch": 53, "duration": 7, "velocity": 89}, {"time": 2479, "pitch": 57, "duration": 5, "velocity": 95}, {"time": 2482, "pitch": 65, "duration": 12, "velocity": 112}, {"time": 2485, "pitch": 53, "duration": 2, "velocity": 92}, {"time": 2488, "pitch": 60, "duration": 4, "velocity": 99}, {"time": 2491, "pitch": 57, "duration": 6, "velocity": 93}, {"time": 2494, "pitch": 38, "duration": 17, "velocity": 68}, {"time": 2497, "pitch": 45, "duration": 13, "velocity": 58}, {"time": 2500, "pitch": 50, "duration": 7, "velocity": 83}, {"time": 2503, "pitch": 57, "duration": 9, "velocity": 76}, {"time": 2506, "pitch": 66, "duration": 11, "velocity": 107}, {"time": 2509, "pitch": 50, "duration": 7, "velocity": 77}, {"time": 2512, "pitch": 62, "duration": 5, "velocity": 97}, {"time": 2515, "pitch": 57, "duration": 3, "velocity": 93}, {"time": 2518, "pitch": 40, "duration": 18, "velocity": 79}, {"time": 2521, "pitch": 46, "duration": 14, "velocity": 90}, {"time": 2524, "pitch": 52, "duration": 7, "velocity": 82}, {"time": 2527, "pitch": 55, "duration": 4, "velocity": 79}, {"time": 2530, "pitch": 58, "duration": 7, "velocity": 127}, {"time": 2533, "pitch": 52, "duration": 5, "velocity": 88}, {"time": 2536, "pitch": 55, "duration": 5, "velocity": 99}, {"time": 2539, "pitch": 58, "duration": 2, "velocity": 95}, {"time": 2542, "pitch": 45, "duration": 19, "velocity": 85}, {"time": 2545, "pitch": 52, "duration": 10, "velocity": 76}, {"time": 2548, "pitch": 57, "duration": 4, "velocity": 90}, {"time": 2548, "pitch": 61, "duration": 4, "velocity": 92}, {"time": 2554, "pitch": 64, "duration": 12, "velocity": 96}, {"time": 2557, "pitch": 52, "duration": 3, "velocity": 72}, {"time": 2560, "pitch": 61, "duration": 5, "velocity": 107}, {"time": 2563, "pitch": 57, "duration": 3, "velocity": 85}, {"time": 2566, "pitch": 38, "duration": 22, "velocity": 73}, {"time": 2569, "pitch": 45, "duration": 21, "velocity": 55}, {"time": 2572, "pitch": 50, "duration": 6, "velocity": 83}, {"time": 2575, "pitch": 57, "duration": 8, "velocity": 92}, {"time": 2578, "pitch": 64, "duration": 6, "velocity": 99}, {"time": 2581, "pitch": 50, "duration": 3, "velocity": 97}, {"time": 2584, "pitch": 65, "duration": 5, "velocity": 99}, {"time": 2587, "pitch": 64, "duration": 2, "velocity": 74}, {"time": 2590, "pitch": 36, "duration": 13, "velocity": 107}, {"time": 2590, "pitch": 55, "duration": 11, "velocity": 100}, {"time": 2590, "pitch": 60, "duration": 10, "velocity": 107}, {"time": 2590, "pitch": 64, "duration": 10, "velocity": 97}, {"time": 2596, "pitch": 43, "duration": 7, "velocity": 55}, {"time": 2602, "pitch": 48, "duration": 3, "velocity": 92}, {"time": 2602, "pitch": 60, "duration": 12, "velocity": 112}, {"time": 2602, "pitch": 64, "duration": 12, "velocity": 100}, {"time": 2608, "pitch": 55, "duration": 6, "velocity": 93}, {"time": 2614, "pitch": 46, "duration": 22, "velocity": 90}, {"time": 2617, "pitch": 53, "duration": 19, "velocity": 47}, {"time": 2620, "pitch": 58, "duration": 6, "velocity": 86}, {"time": 2623, "pitch": 62, "duration": 5, "velocity": 81}, {"time": 2626, "pitch": 70, "duration": 11, "velocity": 127}, {"time": 2629, "pitch": 58, "duration": 8, "velocity": 99}, {"time": 2632, "pitch": 65, "duration": 5, "velocity": 96}, {"time": 2635, "pitch": 62, "duration": 3, "velocity": 99}, {"time": 2638, "pitch": 46, "duration": 18, "velocity": 81}, {"time": 2641, "pitch": 53, "duration": 14, "velocity": 57}, {"time": 2644, "pitch": 58, "duration": 8, "velocity": 93}, {"time": 2647, "pitch": 62, "duration": 7, "velocity": 73}, {"time": 2650, "pitch": 70, "duration": 12, "velocity": 122}, {"time": 2653, "pitch": 58, "duration": 2, "velocity": 93}, {"time": 2656, "pitch": 65, "duration": 6, "velocity": 83}, {"time": 2659, "pitch": 62, "duration": 3, "velocity": 88}, {"time": 2662, "pitch": 41, "duration": 17, "velocity": 68}, {"time": 2665, "pitch": 48, "duration": 13, "velocity": 45}, {"time": 2668, "pitch": 53, "duration": 6, "velocity": 75}, {"time": 2671, "pitch": 57, "duration": 3, "velocity": 81}, {"time": 2674, "pitch": 60, "duration": 6, "velocity": 99}, {"time": 2677, "pitch": 53, "duration": 1, "velocity": 67}, {"time": 2680, "pitch": 57, "duration": 5, "velocity": 88}, {"time": 2683, "pitch": 60, "duration": 3, "velocity": 93}, {"time": 2686, "pitch": 38, "duration": 16, "velocity": 72}, {"time": 2689, "pitch": 45, "duration": 14, "velocity": 72}, {"time": 2692, "pitch": 50, "duration": 7, "velocity": 92}, {"time": 2695, "pitch": 57, "duration": 15, "velocity": 95}, {"time": 2698, "pitch": 66, "duration": 13, "velocity": 127}, {"time": 2701, "pitch": 50, "duration": 5, "velocity": 75}, {"time": 2704, "pitch": 62, "duration": 6, "velocity": 89}, {"time": 2710, "pitch": 43, "duration": 19, "velocity": 68}, {"time": 2713, "pitch": 50, "duration": 10, "velocity": 51}, {"time": 2716, "pitch": 55, "duration": 5, "velocity": 71}, {"time": 2719, "pitch": 58, "duration": 2, "velocity": 95}, {"time": 2722, "pitch": 62, "duration": 11, "velocity": 100}, {"time": 2725, "pitch": 50, "duration": 3, "velocity": 81}, {"time": 2728, "pitch": 58, "duration": 5, "velocity": 112}, {"time": 2731, "pitch": 55, "duration": 3, "velocity": 92}, {"time": 2734, "pitch": 36, "duration": 18, "velocity": 92}, {"time": 2737, "pitch": 43, "duration": 15, "velocity": 79}, {"time": 2740, "pitch": 48, "duration": 7, "velocity": 88}, {"time": 2743, "pitch": 52, "duration": 3, "velocity": 79}, {"time": 2746, "pitch": 56, "duration": 7, "velocity": 127}, {"time": 2749, "pitch": 48, "duration": 8, "velocity": 88}, {"time": 2752, "pitch": 52, "duration": 5, "velocity": 70}, {"time": 2755, "pitch": 56, "duration": 3, "velocity": 97}, {"time": 2758, "pitch": 41, "duration": 16, "velocity": 67}, {"time": 2761, "pitch": 48, "duration": 14, "velocity": 74}, {"time": 2764, "pitch": 53, "duration": 7, "velocity": 83}, {"time": 2767, "pitch": 57, "duration": 5, "velocity": 79}, {"time": 2770, "pitch": 60, "duration": 8, "velocity": 100}, {"time": 2773, "pitch": 53, "duration": 9, "velocity": 88}, {"time": 2776, "pitch": 57, "duration": 6, "velocity": 72}, {"time": 2779, "pitch": 60, "duration": 3, "velocity": 32}, {"time": 2782, "pitch": 38, "duration": 16, "velocity": 75}, {"time": 2782, "pitch": 62, "duration": 8, "velocity": 82}, {"time": 2782, "pitch": 66, "duration": 8, "velocity": 89}, {"time": 2785, "pitch": 45, "duration": 13, "velocity": 72}, {"time": 2788, "pitch": 50, "duration": 7, "velocity": 92}, {"time": 2791, "pitch": 57, "duration": 6, "velocity": 85}, {"time": 2794, "pitch": 66, "duration": 11, "velocity": 127}, {"time": 2797, "pitch": 50, "duration": 3, "velocity": 90}, {"time": 2800, "pitch": 62, "duration": 6, "velocity": 96}, {"time": 2803, "pitch": 57, "duration": 3, "velocity": 85}, {"time": 2806, "pitch": 43, "duration": 22, "velocity": 72}, {"time": 2809, "pitch": 50, "duration": 11, "velocity": 66}, {"time": 2812, "pitch": 55, "duration": 5, "velocity": 89}, {"time": 2815, "pitch": 58, "duration": 2, "velocity": 99}, {"time": 2818, "pitch": 62, "duration": 13, "velocity": 97}, {"time": 2821, "pitch": 50, "duration": 7, "velocity": 50}, {"time": 2824, "pitch": 58, "duration": 6, "velocity": 117}, {"time": 2827, "pitch": 55, "duration": 5, "velocity": 88}, {"time": 2830, "pitch": 36, "duration": 16, "velocity": 88}, {"time": 2833, "pitch": 43, "duration": 14, "velocity": 62}, {"time": 2836, "pitch": 48, "duration": 7, "velocity": 102}, {"time": 2839, "pitch": 55, "duration": 7, "velocity": 85}, {"time": 2842, "pitch": 64, "duration": 12, "velocity": 107}, {"time": 2845, "pitch": 48, "duration": 7, "velocity": 107}, {"time": 2848, "pitch": 60, "duration": 6, "velocity": 99}, {"time": 2851, "pitch": 55, "duration": 3, "velocity": 93}, {"time": 2854, "pitch": 41, "duration": 18, "velocity": 67}, {"time": 2857, "pitch": 48, "duration": 15, "velocity": 71}, {"time": 2860, "pitch": 53, "duration": 6, "velocity": 90}, {"time": 2863, "pitch": 57, "duration": 4, "velocity": 72}, {"time": 2866, "pitch": 60, "duration": 7, "velocity": 97}, {"time": 2869, "pitch": 53, "duration": 2, "velocity": 88}, {"time": 2872, "pitch": 57, "duration": 13, "velocity": 78}, {"time": 2875, "pitch": 60, "duration": 2, "velocity": 63}, {"time": 2878, "pitch": 38, "duration": 16, "velocity": 69}, {"time": 2878, "pitch": 62, "duration": 10, "velocity": 82}, {"time": 2878, "pitch": 66, "duration": 10, "velocity": 86}, {"time": 2881, "pitch": 45, "duration": 13, "velocity": 48}, {"time": 2884, "pitch": 50, "duration": 12, "velocity": 88}, {"time": 2887, "pitch": 57, "duration": 7, "velocity": 67}, {"time": 2890, "pitch": 62, "duration": 12, "velocity": 78}, {"time": 2890, "pitch": 66, "duration": 12, "velocity": 88}, {"time": 2896, "pitch": 57, "duration": 6, "velocity": 82}, {"time": 2902, "pitch": 43, "duration": 21, "velocity": 67}, {"time": 2908, "pitch": 50, "duration": 16, "velocity": 61}, {"time": 2914, "pitch": 58, "duration": 12, "velocity": 93}, {"time": 2914, "pitch": 62, "duration": 12, "velocity": 81}, {"time": 2920, "pitch": 55, "duration": 6, "velocity": 69}, {"time": 2926, "pitch": 36, "duration": 17, "velocity": 81}, {"time": 2929, "pitch": 43, "duration": 14, "velocity": 36}, {"time": 2932, "pitch": 48, "duration": 7, "velocity": 72}, {"time": 2935, "pitch": 55, "duration": 5, "velocity": 66}, {"time": 2938, "pitch": 60, "duration": 11, "velocity": 90}, {"time": 2938, "pitch": 64, "duration": 11, "velocity": 96}, {"time": 2941, "pitch": 48, "duration": 5, "velocity": 56}, {"time": 2944, "pitch": 55, "duration": 6, "velocity": 88}, {"time": 2950, "pitch": 41, "duration": 26, "velocity": 78}, {"time": 2950, "pitch": 60, "duration": 11, "velocity": 73}, {"time": 2950, "pitch": 65, "duration": 11, "velocity": 72}, {"time": 2950, "pitch": 69, "duration": 11, "velocity": 70}, {"time": 2956, "pitch": 48, "duration": 19, "velocity": 57}, {"time": 2962, "pitch": 60, "duration": 13, "velocity": 60}, {"time": 2962, "pitch": 65, "duration": 13, "velocity": 89}, {"time": 2962, "pitch": 69, "duration": 13, "velocity": 86}, {"time": 2968, "pitch": 53, "duration": 7, "velocity": 59}, {"time": 2973, "pitch": 45, "duration": 65, "velocity": 96}, {"time": 2979, "pitch": 52, "duration": 59, "velocity": 65}, {"time": 2982, "pitch": 55, "duration": 10, "velocity": 59}, {"time": 2984, "pitch": 57, "duration": 4, "velocity": 62}, {"time": 2987, "pitch": 61, "duration": 2, "velocity": 82}, {"time": 2989, "pitch": 64, "duration": 1, "velocity": 86}, {"time": 2991, "pitch": 69, "duration": 5, "velocity": 75}, {"time": 2993, "pitch": 73, "duration": 3, "velocity": 74}, {"time": 2996, "pitch": 76, "duration": 1, "velocity": 76}, {"time": 2998, "pitch": 81, "duration": 5, "velocity": 75}, {"time": 3001, "pitch": 85, "duration": 2, "velocity": 69}, {"time": 3003, "pitch": 88, "duration": 1, "velocity": 75}, {"time": 3006, "pitch": 93, "duration": 31, "velocity": 60}, {"time": 3008, "pitch": 57, "duration": 30, "velocity": 1}, {"time": 3009, "pitch": 97, "duration": 28, "velocity": 77}, {"time": 3012, "pitch": 100, "duration": 25, "velocity": 81}, {"time": 3090, "pitch": 62, "duration": 27, "velocity": 43}, {"time": 3092, "pitch": 65, "duration": 24, "velocity": 28}, {"time": 3092, "pitch": 69, "duration": 23, "velocity": 53}, {"time": 3093, "pitch": 74, "duration": 31, "velocity": 38}, {"time": 3094, "pitch": 77, "duration": 30, "velocity": 45}, {"time": 3095, "pitch": 81, "duration": 29, "velocity": 50}, {"time": 3097, "pitch": 86, "duration": 27, "velocity": 68}, {"time": 3125, "pitch": 43, "duration": 16, "velocity": 56}, {"time": 3130, "pitch": 50, "duration": 10, "velocity": 46}, {"time": 3136, "pitch": 58, "duration": 12, "velocity": 71}, {"time": 3138, "pitch": 62, "duration": 10, "velocity": 66}, {"time": 3141, "pitch": 55, "duration": 31, "velocity": 79}, {"time": 3147, "pitch": 36, "duration": 18, "velocity": 55}, {"time": 3154, "pitch": 43, "duration": 12, "velocity": 42}, {"time": 3160, "pitch": 64, "duration": 14, "velocity": 78}, {"time": 3160, "pitch": 48, "duration": 8, "velocity": 33}, {"time": 3166, "pitch": 60, "duration": 7, "velocity": 50}, {"time": 3172, "pitch": 41, "duration": 17, "velocity": 64}, {"time": 3175, "pitch": 48, "duration": 13, "velocity": 40}, {"time": 3178, "pitch": 53, "duration": 8, "velocity": 36}, {"time": 3181, "pitch": 57, "duration": 5, "velocity": 53}, {"time": 3184, "pitch": 65, "duration": 6, "velocity": 97}, {"time": 3187, "pitch": 60, "duration": 4, "velocity": 57}, {"time": 3190, "pitch": 57, "duration": 11, "velocity": 58}, {"time": 3196, "pitch": 54, "duration": 5, "velocity": 50}, {"time": 3196, "pitch": 38, "duration": 13, "velocity": 51}, {"time": 3208, "pitch": 62, "duration": 13, "velocity": 55}, {"time": 3208, "pitch": 57, "duration": 13, "velocity": 39}, {"time": 3208, "pitch": 66, "duration": 13, "velocity": 55}, {"time": 3221, "pitch": 43, "duration": 19, "velocity": 66}, {"time": 3224, "pitch": 50, "duration": 15, "velocity": 37}, {"time": 3226, "pitch": 55, "duration": 6, "velocity": 65}, {"time": 3229, "pitch": 58, "duration": 5, "velocity": 56}, {"time": 3232, "pitch": 62, "duration": 11, "velocity": 77}, {"time": 3238, "pitch": 58, "duration": 5, "velocity": 38}, {"time": 3244, "pitch": 45, "duration": 17, "velocity": 68}, {"time": 3247, "pitch": 52, "duration": 14, "velocity": 40}, {"time": 3250, "pitch": 57, "duration": 6, "velocity": 60}, {"time": 3253, "pitch": 61, "duration": 16, "velocity": 60}, {"time": 3256, "pitch": 64, "duration": 13, "velocity": 60}, {"time": 3262, "pitch": 57, "duration": 10, "velocity": 53}, {"time": 3268, "pitch": 38, "duration": 21, "velocity": 61}, {"time": 3271, "pitch": 45, "duration": 20, "velocity": 50}, {"time": 3274, "pitch": 50, "duration": 6, "velocity": 83}, {"time": 3276, "pitch": 57, "duration": 11, "velocity": 85}, {"time": 3279, "pitch": 64, "duration": 8, "velocity": 100}, {"time": 3282, "pitch": 50, "duration": 30, "velocity": 82}, {"time": 3285, "pitch": 65, "duration": 31, "velocity": 74}, {"time": 3288, "pitch": 57, "duration": 27, "velocity": 69}, {"time": 3291, "pitch": 38, "duration": 18, "velocity": 72}, {"time": 3292, "pitch": 62, "duration": 23, "velocity": 55}, {"time": 3316, "pitch": 43, "duration": 17, "velocity": 66}, {"time": 3319, "pitch": 50, "duration": 14, "velocity": 43}, {"time": 3322, "pitch": 55, "duration": 7, "velocity": 47}, {"time": 3325, "pitch": 58, "duration": 14, "velocity": 52}, {"time": 3328, "pitch": 62, "duration": 11, "velocity": 55}, {"time": 3346, "pitch": 57, "duration": 10, "velocity": 39}, {"time": 3347, "pitch": 61, "duration": 9, "velocity": 53}, {"time": 3348, "pitch": 64, "duration": 9, "velocity": 46}, {"time": 3349, "pitch": 45, "duration": 56, "velocity": 60}, {"time": 3356, "pitch": 52, "duration": 47, "velocity": 42}, {"time": 3360, "pitch": 57, "duration": 43, "velocity": 58}, {"time": 3364, "pitch": 69, "duration": 41, "velocity": 56}, {"time": 3368, "pitch": 73, "duration": 36, "velocity": 52}, {"time": 3373, "pitch": 76, "duration": 31, "velocity": 51}, {"time": 3380, "pitch": 81, "duration": 24, "velocity": 31}, {"time": 3424, "pitch": 50, "duration": 16, "velocity": 42}, {"time": 3430, "pitch": 62, "duration": 11, "velocity": 45}, {"time": 3435, "pitch": 69, "duration": 6, "velocity": 47}, {"time": 3440, "pitch": 49, "duration": 14, "velocity": 45}, {"time": 3446, "pitch": 61, "duration": 12, "velocity": 52}, {"time": 3451, "pitch": 69, "duration": 12, "velocity": 46}, {"time": 3457, "pitch": 48, "duration": 15, "velocity": 53}, {"time": 3462, "pitch": 60, "duration": 12, "velocity": 48}, {"time": 3468, "pitch": 69, "duration": 5, "velocity": 57}, {"time": 3473, "pitch": 47, "duration": 12, "velocity": 66}, {"time": 3478, "pitch": 59, "duration": 5, "velocity": 42}, {"time": 3486, "pitch": 57, "duration": 8, "velocity": 35}, {"time": 3487, "pitch": 45, "duration": 6, "velocity": 47}, {"time": 3487, "pitch": 61, "duration": 6, "velocity": 38}, {"time": 3487, "pitch": 64, "duration": 6, "velocity": 49}, {"time": 3499, "pitch": 69, "duration": 7, "velocity": 34}, {"time": 3499, "pitch": 65, "duration": 8, "velocity": 54}, {"time": 3500, "pitch": 64, "duration": 7, "velocity": 50}, {"time": 3502, "pitch": 62, "duration": 5, "velocity": 50}, {"time": 3502, "pitch": 38, "duration": 62, "velocity": 73}, {"time": 3508, "pitch": 45, "duration": 56, "velocity": 50}, {"time": 3510, "pitch": 50, "duration": 54, "velocity": 69}, {"time": 3512, "pitch": 52, "duration": 2, "velocity": 72}, {"time": 3513, "pitch": 53, "duration": 2, "velocity": 75}, {"time": 3515, "pitch": 57, "duration": 1, "velocity": 90}, {"time": 3517, "pitch": 62, "duration": 2, "velocity": 62}, {"time": 3519, "pitch": 64, "duration": 2, "velocity": 63}, {"time": 3521, "pitch": 65, "duration": 1, "velocity": 76}, {"time": 3523, "pitch": 74, "duration": 3, "velocity": 72}, {"time": 3523, "pitch": 72, "duration": 1, "velocity": 61}, {"time": 3526, "pitch": 76, "duration": 3, "velocity": 62}, {"time": 3529, "pitch": 77, "duration": 1, "velocity": 59}, {"time": 3531, "pitch": 86, "duration": 4, "velocity": 85}, {"time": 3534, "pitch": 88, "duration": 5, "velocity": 75}, {"time": 3537, "pitch": 89, "duration": 3, "velocity": 71}, {"time": 3540, "pitch": 93, "duration": 1, "velocity": 83}, {"time": 3544, "pitch": 98, "duration": 7, "velocity": 78}, {"time": 3549, "pitch": 100, "duration": 3, "velocity": 58}], "annotations": [{"time": 286, "annotation": {"number": 64, "value": 127}, "group": "control_change"}, {"time": 287, "annotation": {"number": 64, "value": 0}, "group": "control_change"}, {"time": 287, "annotation": {"number": 64, "value": 127}, "group": "control_change"}, {"time": 309, "annotation": {"number": 64, "value": 0}, "group": "control_change"}, {"time": 310, "annotation": {"number": 64, "value": 127}, "group": "control_change"}, {"time": 310, "annotation": {"number": 64, "value": 0}, "group": "control_change"}, {"time": 311, "annotation": {"number": 64, "value": 127}, "group": "control_change"}, {"time": 332, "annotation": {"number": 64, "value": 0}, "group": "control_change"}, {"time": 334, "annotation": {"number": 64, "value": 127}, "group": "control_change"}, {"time": 357, "annotation": {"number": 64, "value": 0}, "group": "control_change"}, {"time": 359, "annotation": {"number": 64, "value": 127}, "group": "control_change"}, {"time": 380, "annotation": {"number": 64, "value": 0}, "group": "control_change"}, {"time": 382, "annotation": {"number": 64, "value": 127}, "group": "control_change"}, {"time": 404, "annotation": {"number": 64, "value": 0}, "group": "control_change"}, {"time": 406, "annotation": {"number": 64, "value": 127}, "group": "control_change"}, {"time": 428, "annotation": {"number": 64, "value": 0}, "group": "control_change"}, {"time": 430, "annotation": {"number": 64, "value": 127}, "group": "control_change"}, {"time": 454, "annotation": {"number": 64, "value": 0}, "group": "control_change"}, {"time": 489, "annotation": {"number": 64, "value": 127}, "group": "control_change"}, {"time": 496, "annotation": {"number": 64, "value": 0}, "group": "control_change"}, {"time": 501, "annotation": {"number": 64, "value": 127}, "group": "control_change"}, {"time": 512, "annotation": {"number": 64, "value": 0}, "group": "control_change"}, {"time": 527, "annotation": {"number": 64, "value": 127}, "group": "control_change"}, {"time": 546, "annotation": {"number": 64, "value": 0}, "group": "control_change"}, {"time": 551, "annotation": {"number": 64, "value": 127}, "group": "control_change"}, {"time": 569, "annotation": {"number": 64, "value": 0}, "group": "control_change"}, {"time": 574, "annotation": {"number": 64, "value": 127}, "group": "control_change"}, {"time": 594, "annotation": {"number": 64, "value": 0}, "group": "control_change"}, {"time": 598, "annotation": {"number": 64, "value": 127}, "group": "control_change"}, {"time": 617, "annotation": {"number": 64, "value": 0}, "group": "control_change"}, {"time": 622, "annotation": {"number": 64, "value": 127}, "group": "control_change"}, {"time": 644, "annotation": {"number": 64, "value": 0}, "group": "control_change"}, {"time": 647, "annotation": {"number": 64, "value": 127}, "group": "control_change"}, {"time": 666, "annotation": {"number": 64, "value": 0}, "group": "control_change"}, {"time": 670, "annotation": {"number": 64, "value": 127}, "group": "control_change"}, {"time": 691, "annotation": {"number": 64, "value": 0}, "group": "control_change"}, {"time": 694, "annotation": {"number": 64, "value": 127}, "group": "control_change"}, {"time": 716, "annotation": {"number": 64, "value": 0}, "group": "control_change"}, {"time": 718, "annotation": {"number": 64, "value": 127}, "group": "control_change"}, {"time": 739, "annotation": {"number": 64, "value": 0}, "group": "control_change"}, {"time": 742, "annotation": {"number": 64, "value": 127}, "group": "control_change"}, {"time": 763, "annotation": {"number": 64, "value": 0}, "group": "control_change"}, {"time": 767, "annotation": {"number": 64, "value": 127}, "group": "control_change"}, {"time": 787, "annotation": {"number": 64, "value": 0}, "group": "control_change"}, {"time": 790, "annotation": {"number": 64, "value": 127}, "group": "control_change"}, {"time": 799, "annotation": {"number": 64, "value": 0}, "group": "control_change"}, {"time": 802, "annotation": {"number": 64, "value": 127}, "group": "control_change"}, {"time": 812, "annotation": {"number": 64, "value": 0}, "group": "control_change"}, {"time": 814, "annotation": {"number": 64, "value": 127}, "group": "control_change"}, {"time": 823, "annotation": {"number": 64, "value": 0}, "group": "control_change"}, {"time": 826, "annotation": {"number": 64, "value": 127}, "group": "control_change"}, {"time": 835, "annotation": {"number": 64, "value": 0}, "group": "control_change"}, {"time": 838, "annotation": {"number": 64, "value": 127}, "group": "control_change"}, {"time": 859, "annotation": {"number": 64, "value": 0}, "group": "control_change"}, {"time": 862, "annotation": {"number": 64, "value": 127}, "group": "control_change"}, {"time": 883, "annotation": {"number": 64, "value": 0}, "group": "control_change"}, {"time": 886, "annotation": {"number": 64, "value": 127}, "group": "control_change"}, {"time": 907, "annotation": {"number": 64, "value": 0}, "group": "control_change"}, {"time": 910, "annotation": {"number": 64, "value": 127}, "group": "control_change"}, {"time": 931, "annotation": {"number": 64, "value": 0}, "group": "control_change"}, {"time": 934, "annotation": {"number": 64, "value": 127}, "group": "control_change"}, {"time": 956, "annotation": {"number": 64, "value": 0}, "group": "control_change"}, {"time": 959, "annotation": {"number": 64, "value": 127}, "group": "control_change"}, {"time": 968, "annotation": {"number": 64, "value": 0}, "group": "control_change"}, {"time": 970, "annotation": {"number": 64, "value": 127}, "group": "control_change"}, {"time": 979, "annotation": {"number": 64, "value": 0}, "group": "control_change"}, {"time": 982, "annotation": {"number": 64, "value": 127}, "group": "control_change"}, {"time": 1003, "annotation": {"number": 64, "value": 0}, "group": "control_change"}, {"time": 1006, "annotation": {"number": 64, "value": 127}, "group": "control_change"}, {"time": 1028, "annotation": {"number": 64, "value": 0}, "group": "control_change"}, {"time": 1030, "annotation": {"number": 64, "value": 127}, "group": "control_change"}, {"time": 1052, "annotation": {"number": 64, "value": 0}, "group": "control_change"}, {"time": 1054, "annotation": {"number": 64, "value": 127}, "group": "control_change"}, {"time": 1075, "annotation": {"number": 64, "value": 0}, "group": "control_change"}, {"time": 1078, "annotation": {"number": 64, "value": 127}, "group": "control_change"}, {"time": 1098, "annotation": {"number": 64, "value": 0}, "group": "control_change"}, {"time": 1102, "annotation": {"number": 64, "value": 127}, "group": "control_change"}, {"time": 1123, "annotation": {"number": 64, "value": 0}, "group": "control_change"}, {"time": 1126, "annotation": {"number": 64, "value": 127}, "group": "control_change"}, {"time": 1147, "annotation": {"number": 64, "value": 0}, "group": "control_change"}, {"time": 1150, "annotation": {"number": 64, "value": 127}, "group": "control_change"}, {"time": 1161, "annotation": {"number": 64, "value": 0}, "group": "control_change"}, {"time": 1162, "annotation": {"number": 64, "value": 127}, "group": "control_change"}, {"time": 1163, "annotation": {"number": 64, "value": 0}, "group": "control_change"}, {"time": 1164, "annotation": {"number": 64, "value": 127}, "group": "control_change"}, {"time": 1169, "annotation": {"number": 64, "value": 0}, "group": "control_change"}, {"time": 1175, "annotation": {"number": 64, "value": 127}, "group": "control_change"}, {"time": 1194, "annotation": {"number": 64, "value": 0}, "group": "control_change"}, {"time": 1198, "annotation": {"number": 64, "value": 127}, "group": "control_change"}, {"time": 1219, "annotation": {"number": 64, "value": 0}, "group": "control_change"}, {"time": 1245, "annotation": {"number": 64, "value": 127}, "group": "control_change"}, {"time": 1268, "annotation": {"number": 64, "value": 0}, "group": "control_change"}, {"time": 1270, "annotation": {"number": 64, "value": 127}, "group": "control_change"}, {"time": 1292, "annotation": {"number": 64, "value": 0}, "group": "control_change"}, {"time": 1295, "annotation": {"number": 64, "value": 127}, "group": "control_change"}, {"time": 1314, "annotation": {"number": 64, "value": 0}, "group": "control_change"}, {"time": 1319, "annotation": {"number": 64, "value": 127}, "group": "control_change"}, {"time": 1340, "annotation": {"number": 64, "value": 0}, "group": "control_change"}, {"time": 1343, "annotation": {"number": 64, "value": 127}, "group": "control_change"}, {"time": 1363, "annotation": {"number": 64, "value": 0}, "group": "control_change"}, {"time": 1366, "annotation": {"number": 64, "value": 127}, "group": "control_change"}, {"time": 1387, "annotation": {"number": 64, "value": 0}, "group": "control_change"}, {"time": 1390, "annotation": {"number": 64, "value": 127}, "group": "control_change"}, {"time": 1400, "annotation": {"number": 64, "value": 0}, "group": "control_change"}, {"time": 1403, "annotation": {"number": 64, "value": 127}, "group": "control_change"}, {"time": 1412, "annotation": {"number": 64, "value": 0}, "group": "control_change"}, {"time": 1415, "annotation": {"number": 64, "value": 127}, "group": "control_change"}, {"time": 1436, "annotation": {"number": 64, "value": 0}, "group": "control_change"}, {"time": 1462, "annotation": {"number": 64, "value": 127}, "group": "control_change"}, {"time": 1482, "annotation": {"number": 64, "value": 0}, "group": "control_change"}, {"time": 1486, "annotation": {"number": 64, "value": 127}, "group": "control_change"}, {"time": 1506, "annotation": {"number": 64, "value": 0}, "group": "control_change"}, {"time": 1510, "annotation": {"number": 64, "value": 127}, "group": "control_change"}, {"time": 1531, "annotation": {"number": 64, "value": 0}, "group": "control_change"}, {"time": 1534, "annotation": {"number": 64, "value": 127}, "group": "control_change"}, {"time": 1555, "annotation": {"number": 64, "value": 0}, "group": "control_change"}, {"time": 1559, "annotation": {"number": 64, "value": 127}, "group": "control_change"}, {"time": 1579, "annotation": {"number": 64, "value": 0}, "group": "control_change"}, {"time": 1583, "annotation": {"number": 64, "value": 127}, "group": "control_change"}, {"time": 1603, "annotation": {"number": 64, "value": 0}, "group": "control_change"}, {"time": 1606, "annotation": {"number": 64, "value": 127}, "group": "control_change"}, {"time": 1627, "annotation": {"number": 64, "value": 0}, "group": "control_change"}, {"time": 1630, "annotation": {"number": 64, "value": 127}, "group": "control_change"}, {"time": 1640, "annotation": {"number": 64, "value": 0}, "group": "control_change"}, {"time": 1653, "annotation": {"number": 64, "value": 127}, "group": "control_change"}, {"time": 1653, "annotation": {"number": 64, "value": 0}, "group": "control_change"}, {"time": 1774, "annotation": {"number": 64, "value": 127}, "group": "control_change"}, {"time": 1775, "annotation": {"number": 64, "value": 0}, "group": "control_change"}, {"time": 1834, "annotation": {"number": 64, "value": 127}, "group": "control_change"}, {"time": 1843, "annotation": {"number": 64, "value": 0}, "group": "control_change"}, {"time": 1846, "annotation": {"number": 64, "value": 127}, "group": "control_change"}, {"time": 1868, "annotation": {"number": 64, "value": 0}, "group": "control_change"}, {"time": 1870, "annotation": {"number": 64, "value": 127}, "group": "control_change"}, {"time": 1892, "annotation": {"number": 64, "value": 0}, "group": "control_change"}, {"time": 1895, "annotation": {"number": 64, "value": 127}, "group": "control_change"}, {"time": 1914, "annotation": {"number": 64, "value": 0}, "group": "control_change"}, {"time": 1918, "annotation": {"number": 64, "value": 127}, "group": "control_change"}, {"time": 1940, "annotation": {"number": 64, "value": 0}, "group": "control_change"}, {"time": 1942, "annotation": {"number": 64, "value": 127}, "group": "control_change"}, {"time": 1964, "annotation": {"number": 64, "value": 0}, "group": "control_change"}, {"time": 1967, "annotation": {"number": 64, "value": 127}, "group": "control_change"}, {"time": 1976, "annotation": {"number": 64, "value": 0}, "group": "control_change"}, {"time": 1978, "annotation": {"number": 64, "value": 127}, "group": "control_change"}, {"time": 1987, "annotation": {"number": 64, "value": 0}, "group": "control_change"}, {"time": 1990, "annotation": {"number": 64, "value": 127}, "group": "control_change"}, {"time": 2011, "annotation": {"number": 64, "value": 0}, "group": "control_change"}, {"time": 2014, "annotation": {"number": 64, "value": 127}, "group": "control_change"}, {"time": 2036, "annotation": {"number": 64, "value": 0}, "group": "control_change"}, {"time": 2038, "annotation": {"number": 64, "value": 127}, "group": "control_change"}, {"time": 2059, "annotation": {"number": 64, "value": 0}, "group": "control_change"}, {"time": 2062, "annotation": {"number": 64, "value": 127}, "group": "control_change"}, {"time": 2084, "annotation": {"number": 64, "value": 0}, "group": "control_change"}, {"time": 2086, "annotation": {"number": 64, "value": 127}, "group": "control_change"}, {"time": 2108, "annotation": {"number": 64, "value": 0}, "group": "control_change"}, {"time": 2110, "annotation": {"number": 64, "value": 127}, "group": "control_change"}, {"time": 2131, "annotation": {"number": 64, "value": 0}, "group": "control_change"}, {"time": 2134, "annotation": {"number": 64, "value": 127}, "group": "control_change"}, {"time": 2156, "annotation": {"number": 64, "value": 0}, "group": "control_change"}, {"time": 2158, "annotation": {"number": 64, "value": 127}, "group": "control_change"}, {"time": 2179, "annotation": {"number": 64, "value": 0}, "group": "control_change"}, {"time": 2182, "annotation": {"number": 64, "value": 127}, "group": "control_change"}, {"time": 2204, "annotation": {"number": 64, "value": 0}, "group": "control_change"}, {"time": 2206, "annotation": {"number": 64, "value": 127}, "group": "control_change"}, {"time": 2227, "annotation": {"number": 64, "value": 0}, "group": "control_change"}, {"time": 2230, "annotation": {"number": 64, "value": 127}, "group": "control_change"}, {"time": 2251, "annotation": {"number": 64, "value": 0}, "group": "control_change"}, {"time": 2254, "annotation": {"number": 64, "value": 127}, "group": "control_change"}, {"time": 2275, "annotation": {"number": 64, "value": 0}, "group": "control_change"}, {"time": 2278, "annotation": {"number": 64, "value": 127}, "group": "control_change"}, {"time": 2299, "annotation": {"number": 64, "value": 0}, "group": "control_change"}, {"time": 2302, "annotation": {"number": 64, "value": 127}, "group": "control_change"}, {"time": 2322, "annotation": {"number": 64, "value": 0}, "group": "control_change"}, {"time": 2325, "annotation": {"number": 64, "value": 127}, "group": "control_change"}, {"time": 2348, "annotation": {"number": 64, "value": 0}, "group": "control_change"}, {"time": 2351, "annotation": {"number": 64, "value": 127}, "group": "control_change"}, {"time": 2372, "annotation": {"number": 64, "value": 0}, "group": "control_change"}, {"time": 2375, "annotation": {"number": 64, "value": 127}, "group": "control_change"}, {"time": 2395, "annotation": {"number": 64, "value": 0}, "group": "control_change"}, {"time": 2398, "annotation": {"number": 64, "value": 127}, "group": "control_change"}, {"time": 2420, "annotation": {"number": 64, "value": 0}, "group": "control_change"}, {"time": 2423, "annotation": {"number": 64, "value": 127}, "group": "control_change"}, {"time": 2443, "annotation": {"number": 64, "value": 0}, "group": "control_change"}, {"time": 2446, "annotation": {"number": 64, "value": 127}, "group": "control_change"}, {"time": 2467, "annotation": {"number": 64, "value": 0}, "group": "control_change"}, {"time": 2470, "annotation": {"number": 64, "value": 127}, "group": "control_change"}, {"time": 2491, "annotation": {"number": 64, "value": 0}, "group": "control_change"}, {"time": 2494, "annotation": {"number": 64, "value": 127}, "group": "control_change"}, {"time": 2513, "annotation": {"number": 64, "value": 0}, "group": "control_change"}, {"time": 2518, "annotation": {"number": 64, "value": 127}, "group": "control_change"}, {"time": 2527, "annotation": {"number": 64, "value": 0}, "group": "control_change"}, {"time": 2542, "annotation": {"number": 64, "value": 127}, "group": "control_change"}, {"time": 2562, "annotation": {"number": 64, "value": 0}, "group": "control_change"}, {"time": 2566, "annotation": {"number": 64, "value": 127}, "group": "control_change"}, {"time": 2587, "annotation": {"number": 64, "value": 0}, "group": "control_change"}, {"time": 2590, "annotation": {"number": 64, "value": 127}, "group": "control_change"}, {"time": 2610, "annotation": {"number": 64, "value": 0}, "group": "control_change"}, {"time": 2615, "annotation": {"number": 64, "value": 127}, "group": "control_change"}, {"time": 2635, "annotation": {"number": 64, "value": 0}, "group": "control_change"}, {"time": 2638, "annotation": {"number": 64, "value": 127}, "group": "control_change"}, {"time": 2660, "annotation": {"number": 64, "value": 0}, "group": "control_change"}, {"time": 2663, "annotation": {"number": 64, "value": 127}, "group": "control_change"}, {"time": 2681, "annotation": {"number": 64, "value": 0}, "group": "control_change"}, {"time": 2686, "annotation": {"number": 64, "value": 127}, "group": "control_change"}, {"time": 2705, "annotation": {"number": 64, "value": 0}, "group": "control_change"}, {"time": 2710, "annotation": {"number": 64, "value": 127}, "group": "control_change"}, {"time": 2731, "annotation": {"number": 64, "value": 0}, "group": "control_change"}, {"time": 2735, "annotation": {"number": 64, "value": 127}, "group": "control_change"}, {"time": 2755, "annotation": {"number": 64, "value": 0}, "group": "control_change"}, {"time": 2758, "annotation": {"number": 64, "value": 127}, "group": "control_change"}, {"time": 2779, "annotation": {"number": 64, "value": 0}, "group": "control_change"}, {"time": 2782, "annotation": {"number": 64, "value": 127}, "group": "control_change"}, {"time": 2802, "annotation": {"number": 64, "value": 0}, "group": "control_change"}, {"time": 2806, "annotation": {"number": 64, "value": 127}, "group": "control_change"}, {"time": 2828, "annotation": {"number": 64, "value": 0}, "group": "control_change"}, {"time": 2842, "annotation": {"number": 64, "value": 127}, "group": "control_change"}, {"time": 2850, "annotation": {"number": 64, "value": 0}, "group": "control_change"}, {"time": 2854, "annotation": {"number": 64, "value": 127}, "group": "control_change"}, {"time": 2875, "annotation": {"number": 64, "value": 0}, "group": "control_change"}, {"time": 2878, "annotation": {"number": 64, "value": 127}, "group": "control_change"}, {"time": 2898, "annotation": {"number": 64, "value": 0}, "group": "control_change"}, {"time": 2902, "annotation": {"number": 64, "value": 127}, "group": "control_change"}, {"time": 2922, "annotation": {"number": 64, "value": 0}, "group": "control_change"}, {"time": 2927, "annotation": {"number": 64, "value": 127}, "group": "control_change"}, {"time": 2947, "annotation": {"number": 64, "value": 0}, "group": "control_change"}, {"time": 2950, "annotation": {"number": 64, "value": 127}, "group": "control_change"}, {"time": 2971, "annotation": {"number": 64, "value": 0}, "group": "control_change"}, {"time": 2974, "annotation": {"number": 64, "value": 127}, "group": "control_change"}, {"time": 3058, "annotation": {"number": 64, "value": 0}, "group": "control_change"}, {"time": 3060, "annotation": {"number": 64, "value": 127}, "group": "control_change"}, {"time": 3076, "annotation": {"number": 64, "value": 0}, "group": "control_change"}, {"time": 3126, "annotation": {"number": 64, "value": 127}, "group": "control_change"}, {"time": 3146, "annotation": {"number": 64, "value": 0}, "group": "control_change"}, {"time": 3148, "annotation": {"number": 64, "value": 127}, "group": "control_change"}, {"time": 3170, "annotation": {"number": 64, "value": 0}, "group": "control_change"}, {"time": 3173, "annotation": {"number": 64, "value": 127}, "group": "control_change"}, {"time": 3195, "annotation": {"number": 64, "value": 0}, "group": "control_change"}, {"time": 3197, "annotation": {"number": 64, "value": 127}, "group": "control_change"}, {"time": 3219, "annotation": {"number": 64, "value": 0}, "group": "control_change"}, {"time": 3222, "annotation": {"number": 64, "value": 127}, "group": "control_change"}, {"time": 3244, "annotation": {"number": 64, "value": 127}, "group": "control_change"}, {"time": 3265, "annotation": {"number": 64, "value": 0}, "group": "control_change"}, {"time": 3269, "annotation": {"number": 64, "value": 127}, "group": "control_change"}, {"time": 3292, "annotation": {"number": 64, "value": 0}, "group": "control_change"}, {"time": 3316, "annotation": {"number": 64, "value": 127}, "group": "control_change"}, {"time": 3399, "annotation": {"number": 64, "value": 127}, "group": "control_change"}, {"time": 3427, "annotation": {"number": 64, "value": 0}, "group": "control_change"}, {"time": 3428, "annotation": {"number": 64, "value": 0}, "group": "control_change"}, {"time": 3429, "annotation": {"number": 64, "value": 127}, "group": "control_change"}, {"time": 3442, "annotation": {"number": 64, "value": 0}, "group": "control_change"}, {"time": 3446, "annotation": {"number": 64, "value": 127}, "group": "control_change"}, {"time": 3456, "annotation": {"number": 64, "value": 0}, "group": "control_change"}, {"time": 3459, "annotation": {"number": 64, "value": 127}, "group": "control_change"}, {"time": 3471, "annotation": {"number": 64, "value": 0}, "group": "control_change"}, {"time": 3477, "annotation": {"number": 64, "value": 127}, "group": "control_change"}, {"time": 3487, "annotation": {"number": 64, "value": 0}, "group": "control_change"}, {"time": 3489, "annotation": {"number": 64, "value": 127}, "group": "control_change"}, {"time": 3577, "annotation": {"number": 64, "value": 0}, "group": "control_change"}, {"time": 3578, "annotation": {"number": 64, "value": 127}, "group": "control_change"}]}]}