{"metadata": {"schema_version": "0.2", "title": "None", "source_filename": "792.mid", "source_format": "midi"}, "resolution": 12, "tempos": [{"time": 0, "qpm": 88.00002346667293}], "key_signatures": [{"time": 0, "root": 0, "mode": "major"}], "time_signatures": [{"time": 0, "numerator": 4, "denominator": 4}, {"time": 0, "numerator": 1, "denominator": 4}], "tracks": [{"program": 0, "is_drum": false, "name": "MELODY", "notes": [{"time": 50, "pitch": 68, "duration": 17, "velocity": 87}, {"time": 68, "pitch": 71, "duration": 6, "velocity": 87}, {"time": 74, "pitch": 68, "duration": 8, "velocity": 87}, {"time": 86, "pitch": 63, "duration": 6, "velocity": 87}, {"time": 92, "pitch": 66, "duration": 6, "velocity": 87}, {"time": 98, "pitch": 68, "duration": 12, "velocity": 87}, {"time": 110, "pitch": 66, "duration": 36, "velocity": 87}, {"time": 146, "pitch": 73, "duration": 17, "velocity": 87}, {"time": 164, "pitch": 75, "duration": 7, "velocity": 87}, {"time": 170, "pitch": 73, "duration": 12, "velocity": 87}, {"time": 182, "pitch": 68, "duration": 11, "velocity": 87}, {"time": 194, "pitch": 71, "duration": 12, "velocity": 87}, {"time": 206, "pitch": 68, "duration": 29, "velocity": 87}, {"time": 230, "pitch": 71, "duration": 4, "velocity": 85}, {"time": 236, "pitch": 70, "duration": 6, "velocity": 85}, {"time": 242, "pitch": 68, "duration": 16, "velocity": 85}, {"time": 260, "pitch": 66, "duration": 6, "velocity": 85}, {"time": 266, "pitch": 68, "duration": 4, "velocity": 85}, {"time": 272, "pitch": 71, "duration": 5, "velocity": 85}, {"time": 278, "pitch": 59, "duration": 6, "velocity": 85}, {"time": 284, "pitch": 56, "duration": 5, "velocity": 85}, {"time": 296, "pitch": 61, "duration": 30, "velocity": 85}, {"time": 326, "pitch": 61, "duration": 7, "velocity": 85}, {"time": 332, "pitch": 63, "duration": 4, "velocity": 85}, {"time": 338, "pitch": 66, "duration": 11, "velocity": 85}, {"time": 350, "pitch": 58, "duration": 18, "velocity": 85}, {"time": 374, "pitch": 58, "duration": 5, "velocity": 85}, {"time": 380, "pitch": 54, "duration": 6, "velocity": 85}, {"time": 386, "pitch": 56, "duration": 22, "velocity": 85}, {"time": 446, "pitch": 61, "duration": 6, "velocity": 85}, {"time": 452, "pitch": 63, "duration": 4, "velocity": 85}, {"time": 458, "pitch": 66, "duration": 6, "velocity": 85}, {"time": 464, "pitch": 63, "duration": 6, "velocity": 85}, {"time": 470, "pitch": 61, "duration": 6, "velocity": 85}, {"time": 476, "pitch": 59, "duration": 6, "velocity": 85}, {"time": 482, "pitch": 61, "duration": 12, "velocity": 85}, {"time": 500, "pitch": 63, "duration": 6, "velocity": 85}, {"time": 506, "pitch": 61, "duration": 14, "velocity": 85}, {"time": 542, "pitch": 61, "duration": 5, "velocity": 85}, {"time": 548, "pitch": 63, "duration": 6, "velocity": 85}, {"time": 554, "pitch": 61, "duration": 5, "velocity": 85}, {"time": 560, "pitch": 59, "duration": 6, "velocity": 85}, {"time": 566, "pitch": 56, "duration": 6, "velocity": 85}, {"time": 572, "pitch": 66, "duration": 12, "velocity": 85}, {"time": 584, "pitch": 63, "duration": 23, "velocity": 85}, {"time": 638, "pitch": 61, "duration": 7, "velocity": 85}, {"time": 644, "pitch": 63, "duration": 5, "velocity": 85}, {"time": 650, "pitch": 66, "duration": 6, "velocity": 85}, {"time": 656, "pitch": 63, "duration": 6, "velocity": 85}, {"time": 662, "pitch": 61, "duration": 6, "velocity": 85}, {"time": 668, "pitch": 59, "duration": 9, "velocity": 85}, {"time": 674, "pitch": 61, "duration": 17, "velocity": 85}, {"time": 692, "pitch": 63, "duration": 5, "velocity": 85}, {"time": 698, "pitch": 56, "duration": 20, "velocity": 85}, {"time": 734, "pitch": 61, "duration": 6, "velocity": 85}, {"time": 740, "pitch": 63, "duration": 7, "velocity": 85}, {"time": 746, "pitch": 61, "duration": 6, "velocity": 85}, {"time": 752, "pitch": 59, "duration": 6, "velocity": 85}, {"time": 758, "pitch": 56, "duration": 6, "velocity": 85}, {"time": 764, "pitch": 61, "duration": 12, "velocity": 85}, {"time": 776, "pitch": 59, "duration": 28, "velocity": 85}, {"time": 830, "pitch": 61, "duration": 6, "velocity": 85}, {"time": 836, "pitch": 63, "duration": 4, "velocity": 85}, {"time": 842, "pitch": 66, "duration": 6, "velocity": 85}, {"time": 848, "pitch": 63, "duration": 6, "velocity": 85}, {"time": 854, "pitch": 61, "duration": 6, "velocity": 85}, {"time": 860, "pitch": 59, "duration": 6, "velocity": 85}, {"time": 866, "pitch": 61, "duration": 12, "velocity": 85}, {"time": 884, "pitch": 63, "duration": 6, "velocity": 90}, {"time": 890, "pitch": 56, "duration": 12, "velocity": 90}, {"time": 926, "pitch": 61, "duration": 5, "velocity": 90}, {"time": 932, "pitch": 63, "duration": 6, "velocity": 90}, {"time": 938, "pitch": 61, "duration": 5, "velocity": 90}, {"time": 944, "pitch": 59, "duration": 6, "velocity": 90}, {"time": 950, "pitch": 56, "duration": 6, "velocity": 90}, {"time": 956, "pitch": 66, "duration": 12, "velocity": 90}, {"time": 968, "pitch": 63, "duration": 23, "velocity": 90}, {"time": 1022, "pitch": 61, "duration": 7, "velocity": 90}, {"time": 1028, "pitch": 63, "duration": 5, "velocity": 90}, {"time": 1034, "pitch": 66, "duration": 6, "velocity": 90}, {"time": 1040, "pitch": 63, "duration": 6, "velocity": 90}, {"time": 1046, "pitch": 61, "duration": 6, "velocity": 90}, {"time": 1052, "pitch": 59, "duration": 9, "velocity": 90}, {"time": 1058, "pitch": 61, "duration": 17, "velocity": 90}, {"time": 1076, "pitch": 63, "duration": 5, "velocity": 90}, {"time": 1082, "pitch": 61, "duration": 20, "velocity": 90}, {"time": 1118, "pitch": 68, "duration": 6, "velocity": 90}, {"time": 1124, "pitch": 66, "duration": 7, "velocity": 90}, {"time": 1130, "pitch": 68, "duration": 6, "velocity": 90}, {"time": 1136, "pitch": 71, "duration": 6, "velocity": 90}, {"time": 1142, "pitch": 63, "duration": 6, "velocity": 90}, {"time": 1148, "pitch": 66, "duration": 15, "velocity": 90}, {"time": 1160, "pitch": 59, "duration": 28, "velocity": 90}, {"time": 1202, "pitch": 66, "duration": 11, "velocity": 90}, {"time": 1214, "pitch": 61, "duration": 13, "velocity": 90}, {"time": 1226, "pitch": 63, "duration": 9, "velocity": 90}, {"time": 1238, "pitch": 71, "duration": 11, "velocity": 92}, {"time": 1250, "pitch": 66, "duration": 13, "velocity": 92}, {"time": 1262, "pitch": 68, "duration": 23, "velocity": 92}, {"time": 1286, "pitch": 63, "duration": 12, "velocity": 87}, {"time": 1298, "pitch": 61, "duration": 28, "velocity": 87}, {"time": 1334, "pitch": 68, "duration": 12, "velocity": 87}, {"time": 1346, "pitch": 66, "duration": 43, "velocity": 87}, {"time": 1406, "pitch": 71, "duration": 6, "velocity": 87}, {"time": 1412, "pitch": 70, "duration": 7, "velocity": 87}, {"time": 1418, "pitch": 68, "duration": 17, "velocity": 87}, {"time": 1436, "pitch": 66, "duration": 6, "velocity": 87}, {"time": 1442, "pitch": 68, "duration": 4, "velocity": 87}, {"time": 1448, "pitch": 71, "duration": 7, "velocity": 87}, {"time": 1454, "pitch": 68, "duration": 5, "velocity": 87}, {"time": 1460, "pitch": 66, "duration": 4, "velocity": 87}, {"time": 1466, "pitch": 63, "duration": 33, "velocity": 87}, {"time": 1502, "pitch": 56, "duration": 6, "velocity": 87}, {"time": 1508, "pitch": 63, "duration": 5, "velocity": 87}, {"time": 1514, "pitch": 61, "duration": 17, "velocity": 87}, {"time": 1532, "pitch": 63, "duration": 6, "velocity": 87}, {"time": 1538, "pitch": 61, "duration": 6, "velocity": 87}, {"time": 1544, "pitch": 59, "duration": 6, "velocity": 87}, {"time": 1550, "pitch": 56, "duration": 6, "velocity": 87}, {"time": 1556, "pitch": 66, "duration": 6, "velocity": 87}, {"time": 1562, "pitch": 63, "duration": 33, "velocity": 87}, {"time": 1598, "pitch": 71, "duration": 7, "velocity": 87}, {"time": 1604, "pitch": 70, "duration": 6, "velocity": 87}, {"time": 1610, "pitch": 68, "duration": 19, "velocity": 87}, {"time": 1628, "pitch": 66, "duration": 6, "velocity": 87}, {"time": 1634, "pitch": 68, "duration": 5, "velocity": 87}, {"time": 1640, "pitch": 71, "duration": 4, "velocity": 87}, {"time": 1646, "pitch": 59, "duration": 7, "velocity": 87}, {"time": 1652, "pitch": 56, "duration": 6, "velocity": 87}, {"time": 1658, "pitch": 61, "duration": 29, "velocity": 87}, {"time": 1694, "pitch": 61, "duration": 6, "velocity": 87}, {"time": 1700, "pitch": 63, "duration": 5, "velocity": 87}, {"time": 1706, "pitch": 66, "duration": 10, "velocity": 87}, {"time": 1718, "pitch": 58, "duration": 20, "velocity": 87}, {"time": 1742, "pitch": 58, "duration": 5, "velocity": 87}, {"time": 1748, "pitch": 54, "duration": 6, "velocity": 87}, {"time": 1754, "pitch": 56, "duration": 29, "velocity": 87}, {"time": 2198, "pitch": 61, "duration": 6, "velocity": 90}, {"time": 2204, "pitch": 63, "duration": 4, "velocity": 90}, {"time": 2210, "pitch": 66, "duration": 6, "velocity": 90}, {"time": 2216, "pitch": 63, "duration": 6, "velocity": 90}, {"time": 2222, "pitch": 61, "duration": 6, "velocity": 90}, {"time": 2228, "pitch": 59, "duration": 6, "velocity": 90}, {"time": 2234, "pitch": 61, "duration": 12, "velocity": 90}, {"time": 2252, "pitch": 63, "duration": 6, "velocity": 90}, {"time": 2258, "pitch": 56, "duration": 12, "velocity": 90}, {"time": 2294, "pitch": 61, "duration": 5, "velocity": 90}, {"time": 2300, "pitch": 63, "duration": 6, "velocity": 90}, {"time": 2306, "pitch": 61, "duration": 5, "velocity": 90}, {"time": 2312, "pitch": 59, "duration": 6, "velocity": 90}, {"time": 2318, "pitch": 56, "duration": 6, "velocity": 90}, {"time": 2324, "pitch": 66, "duration": 12, "velocity": 90}, {"time": 2336, "pitch": 63, "duration": 23, "velocity": 90}, {"time": 2390, "pitch": 61, "duration": 7, "velocity": 90}, {"time": 2396, "pitch": 63, "duration": 5, "velocity": 90}, {"time": 2402, "pitch": 66, "duration": 6, "velocity": 90}, {"time": 2408, "pitch": 63, "duration": 6, "velocity": 90}, {"time": 2414, "pitch": 61, "duration": 6, "velocity": 90}, {"time": 2420, "pitch": 59, "duration": 9, "velocity": 90}, {"time": 2426, "pitch": 61, "duration": 17, "velocity": 90}, {"time": 2444, "pitch": 63, "duration": 5, "velocity": 90}, {"time": 2450, "pitch": 61, "duration": 20, "velocity": 90}, {"time": 2486, "pitch": 68, "duration": 6, "velocity": 90}, {"time": 2492, "pitch": 66, "duration": 7, "velocity": 90}, {"time": 2498, "pitch": 68, "duration": 6, "velocity": 90}, {"time": 2504, "pitch": 71, "duration": 6, "velocity": 90}, {"time": 2510, "pitch": 63, "duration": 6, "velocity": 90}, {"time": 2516, "pitch": 66, "duration": 15, "velocity": 90}, {"time": 2528, "pitch": 59, "duration": 28, "velocity": 90}, {"time": 2570, "pitch": 66, "duration": 11, "velocity": 90}, {"time": 2582, "pitch": 61, "duration": 13, "velocity": 90}, {"time": 2594, "pitch": 63, "duration": 9, "velocity": 90}, {"time": 2606, "pitch": 71, "duration": 11, "velocity": 90}, {"time": 2618, "pitch": 66, "duration": 13, "velocity": 90}, {"time": 2630, "pitch": 68, "duration": 23, "velocity": 90}, {"time": 2654, "pitch": 63, "duration": 12, "velocity": 90}, {"time": 2666, "pitch": 61, "duration": 28, "velocity": 90}, {"time": 2702, "pitch": 68, "duration": 12, "velocity": 90}, {"time": 2714, "pitch": 66, "duration": 43, "velocity": 90}, {"time": 2774, "pitch": 71, "duration": 6, "velocity": 90}, {"time": 2780, "pitch": 70, "duration": 7, "velocity": 90}, {"time": 2786, "pitch": 68, "duration": 17, "velocity": 90}, {"time": 2804, "pitch": 66, "duration": 6, "velocity": 90}, {"time": 2810, "pitch": 68, "duration": 4, "velocity": 90}, {"time": 2816, "pitch": 71, "duration": 7, "velocity": 90}, {"time": 2822, "pitch": 68, "duration": 5, "velocity": 90}, {"time": 2828, "pitch": 66, "duration": 4, "velocity": 90}, {"time": 2834, "pitch": 63, "duration": 33, "velocity": 90}, {"time": 2870, "pitch": 56, "duration": 6, "velocity": 90}, {"time": 2876, "pitch": 63, "duration": 5, "velocity": 90}, {"time": 2882, "pitch": 61, "duration": 17, "velocity": 90}, {"time": 2900, "pitch": 63, "duration": 6, "velocity": 90}, {"time": 2906, "pitch": 61, "duration": 6, "velocity": 90}, {"time": 2912, "pitch": 59, "duration": 6, "velocity": 90}, {"time": 2918, "pitch": 56, "duration": 6, "velocity": 90}, {"time": 2924, "pitch": 66, "duration": 6, "velocity": 90}, {"time": 2930, "pitch": 63, "duration": 33, "velocity": 90}, {"time": 2966, "pitch": 71, "duration": 7, "velocity": 90}, {"time": 2972, "pitch": 70, "duration": 6, "velocity": 90}, {"time": 2978, "pitch": 68, "duration": 19, "velocity": 90}, {"time": 2996, "pitch": 66, "duration": 6, "velocity": 90}, {"time": 3002, "pitch": 68, "duration": 5, "velocity": 90}, {"time": 3008, "pitch": 71, "duration": 4, "velocity": 90}, {"time": 3014, "pitch": 59, "duration": 7, "velocity": 90}, {"time": 3020, "pitch": 56, "duration": 6, "velocity": 90}, {"time": 3026, "pitch": 61, "duration": 29, "velocity": 90}, {"time": 3062, "pitch": 61, "duration": 6, "velocity": 90}, {"time": 3068, "pitch": 63, "duration": 5, "velocity": 90}, {"time": 3074, "pitch": 66, "duration": 10, "velocity": 90}, {"time": 3086, "pitch": 58, "duration": 20, "velocity": 90}, {"time": 3110, "pitch": 58, "duration": 5, "velocity": 90}, {"time": 3116, "pitch": 54, "duration": 6, "velocity": 90}, {"time": 3122, "pitch": 56, "duration": 29, "velocity": 90}, {"time": 3170, "pitch": 68, "duration": 12, "velocity": 90}, {"time": 3188, "pitch": 71, "duration": 6, "velocity": 90}, {"time": 3194, "pitch": 68, "duration": 12, "velocity": 90}, {"time": 3206, "pitch": 63, "duration": 6, "velocity": 90}, {"time": 3212, "pitch": 66, "duration": 5, "velocity": 90}, {"time": 3218, "pitch": 68, "duration": 11, "velocity": 90}, {"time": 3230, "pitch": 66, "duration": 18, "velocity": 90}, {"time": 3266, "pitch": 73, "duration": 18, "velocity": 90}, {"time": 3284, "pitch": 75, "duration": 6, "velocity": 90}, {"time": 3290, "pitch": 73, "duration": 11, "velocity": 90}, {"time": 3302, "pitch": 68, "duration": 12, "velocity": 90}, {"time": 3314, "pitch": 70, "duration": 12, "velocity": 90}, {"time": 3326, "pitch": 68, "duration": 26, "velocity": 90}, {"time": 3350, "pitch": 71, "duration": 6, "velocity": 90}, {"time": 3356, "pitch": 70, "duration": 7, "velocity": 90}, {"time": 3362, "pitch": 68, "duration": 17, "velocity": 90}, {"time": 3380, "pitch": 66, "duration": 6, "velocity": 90}, {"time": 3386, "pitch": 68, "duration": 4, "velocity": 90}, {"time": 3392, "pitch": 71, "duration": 7, "velocity": 90}, {"time": 3398, "pitch": 68, "duration": 5, "velocity": 90}, {"time": 3404, "pitch": 66, "duration": 4, "velocity": 90}, {"time": 3410, "pitch": 63, "duration": 33, "velocity": 90}, {"time": 3446, "pitch": 56, "duration": 6, "velocity": 90}, {"time": 3452, "pitch": 63, "duration": 5, "velocity": 90}, {"time": 3458, "pitch": 61, "duration": 17, "velocity": 90}, {"time": 3476, "pitch": 63, "duration": 6, "velocity": 90}, {"time": 3482, "pitch": 61, "duration": 6, "velocity": 90}, {"time": 3488, "pitch": 59, "duration": 6, "velocity": 90}, {"time": 3494, "pitch": 56, "duration": 6, "velocity": 90}, {"time": 3500, "pitch": 66, "duration": 6, "velocity": 90}, {"time": 3506, "pitch": 63, "duration": 33, "velocity": 90}, {"time": 3542, "pitch": 71, "duration": 7, "velocity": 90}, {"time": 3548, "pitch": 70, "duration": 6, "velocity": 90}, {"time": 3554, "pitch": 68, "duration": 19, "velocity": 90}, {"time": 3572, "pitch": 66, "duration": 6, "velocity": 90}, {"time": 3578, "pitch": 68, "duration": 5, "velocity": 90}, {"time": 3584, "pitch": 71, "duration": 4, "velocity": 90}, {"time": 3590, "pitch": 59, "duration": 7, "velocity": 90}, {"time": 3596, "pitch": 56, "duration": 6, "velocity": 90}, {"time": 3602, "pitch": 61, "duration": 29, "velocity": 90}, {"time": 3638, "pitch": 61, "duration": 6, "velocity": 90}, {"time": 3644, "pitch": 63, "duration": 5, "velocity": 90}, {"time": 3650, "pitch": 66, "duration": 10, "velocity": 90}, {"time": 3662, "pitch": 58, "duration": 20, "velocity": 90}, {"time": 3686, "pitch": 58, "duration": 5, "velocity": 90}, {"time": 3692, "pitch": 54, "duration": 6, "velocity": 90}, {"time": 3698, "pitch": 56, "duration": 12, "velocity": 90}, {"time": 3698, "pitch": 68, "duration": 15, "velocity": 90}, {"time": 3716, "pitch": 71, "duration": 5, "velocity": 90}, {"time": 3722, "pitch": 68, "duration": 11, "velocity": 90}, {"time": 3734, "pitch": 63, "duration": 6, "velocity": 90}, {"time": 3740, "pitch": 66, "duration": 5, "velocity": 90}, {"time": 3746, "pitch": 68, "duration": 12, "velocity": 90}, {"time": 3758, "pitch": 66, "duration": 24, "velocity": 90}, {"time": 3794, "pitch": 73, "duration": 17, "velocity": 90}, {"time": 3812, "pitch": 75, "duration": 6, "velocity": 90}, {"time": 3818, "pitch": 73, "duration": 12, "velocity": 90}, {"time": 3830, "pitch": 68, "duration": 7, "velocity": 90}, {"time": 3836, "pitch": 71, "duration": 6, "velocity": 90}, {"time": 3842, "pitch": 73, "duration": 12, "velocity": 90}, {"time": 3854, "pitch": 68, "duration": 23, "velocity": 90}, {"time": 3890, "pitch": 68, "duration": 16, "velocity": 90}, {"time": 3908, "pitch": 71, "duration": 5, "velocity": 90}, {"time": 3914, "pitch": 68, "duration": 12, "velocity": 90}, {"time": 3926, "pitch": 63, "duration": 6, "velocity": 90}, {"time": 3932, "pitch": 66, "duration": 6, "velocity": 90}, {"time": 3938, "pitch": 68, "duration": 12, "velocity": 90}, {"time": 3950, "pitch": 66, "duration": 24, "velocity": 90}, {"time": 3986, "pitch": 73, "duration": 17, "velocity": 90}, {"time": 4004, "pitch": 75, "duration": 5, "velocity": 92}, {"time": 4010, "pitch": 73, "duration": 12, "velocity": 92}, {"time": 4022, "pitch": 68, "duration": 6, "velocity": 92}, {"time": 4028, "pitch": 71, "duration": 6, "velocity": 92}, {"time": 4034, "pitch": 73, "duration": 12, "velocity": 92}, {"time": 4046, "pitch": 68, "duration": 40, "velocity": 92}]}, {"program": 0, "is_drum": false, "name": "PIANO", "notes": [{"time": 50, "pitch": 44, "duration": 40, "velocity": 71}, {"time": 50, "pitch": 59, "duration": 34, "velocity": 71}, {"time": 50, "pitch": 63, "duration": 37, "velocity": 71}, {"time": 50, "pitch": 68, "duration": 36, "velocity": 71}, {"time": 56, "pitch": 56, "duration": 32, "velocity": 71}, {"time": 86, "pitch": 59, "duration": 8, "velocity": 71}, {"time": 92, "pitch": 63, "duration": 7, "velocity": 71}, {"time": 92, "pitch": 68, "duration": 5, "velocity": 71}, {"time": 98, "pitch": 39, "duration": 40, "velocity": 71}, {"time": 104, "pitch": 51, "duration": 33, "velocity": 71}, {"time": 110, "pitch": 54, "duration": 26, "velocity": 71}, {"time": 116, "pitch": 58, "duration": 16, "velocity": 71}, {"time": 116, "pitch": 63, "duration": 17, "velocity": 71}, {"time": 134, "pitch": 58, "duration": 7, "velocity": 71}, {"time": 134, "pitch": 63, "duration": 11, "velocity": 71}, {"time": 140, "pitch": 54, "duration": 5, "velocity": 71}, {"time": 146, "pitch": 37, "duration": 37, "velocity": 71}, {"time": 152, "pitch": 49, "duration": 34, "velocity": 71}, {"time": 158, "pitch": 52, "duration": 32, "velocity": 71}, {"time": 164, "pitch": 56, "duration": 26, "velocity": 71}, {"time": 164, "pitch": 61, "duration": 26, "velocity": 71}, {"time": 194, "pitch": 44, "duration": 41, "velocity": 71}, {"time": 200, "pitch": 56, "duration": 36, "velocity": 71}, {"time": 206, "pitch": 59, "duration": 20, "velocity": 71}, {"time": 212, "pitch": 63, "duration": 14, "velocity": 71}, {"time": 212, "pitch": 68, "duration": 13, "velocity": 71}, {"time": 230, "pitch": 59, "duration": 7, "velocity": 71}, {"time": 230, "pitch": 63, "duration": 7, "velocity": 71}, {"time": 230, "pitch": 68, "duration": 6, "velocity": 71}, {"time": 242, "pitch": 47, "duration": 18, "velocity": 71}, {"time": 248, "pitch": 56, "duration": 9, "velocity": 71}, {"time": 254, "pitch": 59, "duration": 8, "velocity": 71}, {"time": 254, "pitch": 64, "duration": 8, "velocity": 71}, {"time": 254, "pitch": 68, "duration": 8, "velocity": 71}, {"time": 260, "pitch": 47, "duration": 6, "velocity": 71}, {"time": 266, "pitch": 47, "duration": 12, "velocity": 77}, {"time": 272, "pitch": 56, "duration": 14, "velocity": 71}, {"time": 278, "pitch": 59, "duration": 10, "velocity": 71}, {"time": 278, "pitch": 64, "duration": 11, "velocity": 71}, {"time": 278, "pitch": 68, "duration": 9, "velocity": 71}, {"time": 290, "pitch": 49, "duration": 18, "velocity": 71}, {"time": 296, "pitch": 56, "duration": 8, "velocity": 71}, {"time": 302, "pitch": 61, "duration": 20, "velocity": 71}, {"time": 302, "pitch": 64, "duration": 20, "velocity": 71}, {"time": 302, "pitch": 68, "duration": 20, "velocity": 71}, {"time": 308, "pitch": 49, "duration": 6, "velocity": 69}, {"time": 314, "pitch": 49, "duration": 24, "velocity": 69}, {"time": 320, "pitch": 56, "duration": 7, "velocity": 69}, {"time": 326, "pitch": 61, "duration": 5, "velocity": 69}, {"time": 326, "pitch": 64, "duration": 11, "velocity": 69}, {"time": 326, "pitch": 68, "duration": 11, "velocity": 69}, {"time": 332, "pitch": 56, "duration": 2, "velocity": 69}, {"time": 338, "pitch": 39, "duration": 18, "velocity": 69}, {"time": 344, "pitch": 51, "duration": 10, "velocity": 69}, {"time": 350, "pitch": 54, "duration": 20, "velocity": 69}, {"time": 350, "pitch": 58, "duration": 19, "velocity": 69}, {"time": 350, "pitch": 63, "duration": 20, "velocity": 69}, {"time": 356, "pitch": 39, "duration": 6, "velocity": 69}, {"time": 362, "pitch": 39, "duration": 21, "velocity": 69}, {"time": 368, "pitch": 51, "duration": 11, "velocity": 69}, {"time": 374, "pitch": 58, "duration": 7, "velocity": 69}, {"time": 374, "pitch": 63, "duration": 10, "velocity": 69}, {"time": 380, "pitch": 54, "duration": 3, "velocity": 69}, {"time": 386, "pitch": 44, "duration": 18, "velocity": 70}, {"time": 392, "pitch": 56, "duration": 9, "velocity": 71}, {"time": 398, "pitch": 59, "duration": 21, "velocity": 71}, {"time": 398, "pitch": 63, "duration": 20, "velocity": 71}, {"time": 398, "pitch": 68, "duration": 20, "velocity": 71}, {"time": 404, "pitch": 44, "duration": 6, "velocity": 70}, {"time": 410, "pitch": 44, "duration": 24, "velocity": 78}, {"time": 416, "pitch": 56, "duration": 12, "velocity": 78}, {"time": 422, "pitch": 59, "duration": 9, "velocity": 71}, {"time": 422, "pitch": 63, "duration": 9, "velocity": 71}, {"time": 422, "pitch": 68, "duration": 9, "velocity": 71}, {"time": 434, "pitch": 47, "duration": 40, "velocity": 71}, {"time": 440, "pitch": 54, "duration": 9, "velocity": 71}, {"time": 446, "pitch": 59, "duration": 7, "velocity": 71}, {"time": 446, "pitch": 63, "duration": 7, "velocity": 71}, {"time": 446, "pitch": 66, "duration": 6, "velocity": 71}, {"time": 452, "pitch": 54, "duration": 14, "velocity": 71}, {"time": 464, "pitch": 59, "duration": 6, "velocity": 71}, {"time": 464, "pitch": 63, "duration": 6, "velocity": 71}, {"time": 464, "pitch": 66, "duration": 6, "velocity": 71}, {"time": 470, "pitch": 54, "duration": 7, "velocity": 71}, {"time": 476, "pitch": 59, "duration": 3, "velocity": 71}, {"time": 476, "pitch": 63, "duration": 3, "velocity": 71}, {"time": 476, "pitch": 66, "duration": 3, "velocity": 71}, {"time": 482, "pitch": 49, "duration": 18, "velocity": 70}, {"time": 494, "pitch": 61, "duration": 8, "velocity": 70}, {"time": 494, "pitch": 64, "duration": 7, "velocity": 70}, {"time": 494, "pitch": 68, "duration": 7, "velocity": 70}, {"time": 500, "pitch": 49, "duration": 6, "velocity": 70}, {"time": 506, "pitch": 49, "duration": 24, "velocity": 70}, {"time": 512, "pitch": 56, "duration": 5, "velocity": 70}, {"time": 518, "pitch": 61, "duration": 3, "velocity": 70}, {"time": 518, "pitch": 64, "duration": 3, "velocity": 70}, {"time": 518, "pitch": 68, "duration": 3, "velocity": 70}, {"time": 530, "pitch": 42, "duration": 18, "velocity": 70}, {"time": 542, "pitch": 61, "duration": 7, "velocity": 70}, {"time": 542, "pitch": 66, "duration": 6, "velocity": 70}, {"time": 542, "pitch": 70, "duration": 7, "velocity": 70}, {"time": 548, "pitch": 42, "duration": 6, "velocity": 70}, {"time": 554, "pitch": 42, "duration": 18, "velocity": 70}, {"time": 560, "pitch": 54, "duration": 4, "velocity": 70}, {"time": 566, "pitch": 61, "duration": 7, "velocity": 70}, {"time": 566, "pitch": 66, "duration": 7, "velocity": 70}, {"time": 566, "pitch": 70, "duration": 7, "velocity": 70}, {"time": 578, "pitch": 47, "duration": 18, "velocity": 70}, {"time": 590, "pitch": 59, "duration": 7, "velocity": 70}, {"time": 590, "pitch": 63, "duration": 7, "velocity": 70}, {"time": 590, "pitch": 66, "duration": 7, "velocity": 70}, {"time": 596, "pitch": 47, "duration": 6, "velocity": 70}, {"time": 602, "pitch": 47, "duration": 18, "velocity": 70}, {"time": 608, "pitch": 54, "duration": 9, "velocity": 70}, {"time": 614, "pitch": 59, "duration": 3, "velocity": 70}, {"time": 614, "pitch": 63, "duration": 3, "velocity": 70}, {"time": 614, "pitch": 66, "duration": 3, "velocity": 70}, {"time": 626, "pitch": 47, "duration": 18, "velocity": 70}, {"time": 638, "pitch": 59, "duration": 6, "velocity": 70}, {"time": 638, "pitch": 63, "duration": 6, "velocity": 70}, {"time": 638, "pitch": 66, "duration": 6, "velocity": 70}, {"time": 644, "pitch": 47, "duration": 6, "velocity": 70}, {"time": 650, "pitch": 47, "duration": 24, "velocity": 70}, {"time": 656, "pitch": 54, "duration": 7, "velocity": 70}, {"time": 662, "pitch": 59, "duration": 3, "velocity": 70}, {"time": 662, "pitch": 63, "duration": 3, "velocity": 70}, {"time": 662, "pitch": 66, "duration": 3, "velocity": 70}, {"time": 674, "pitch": 49, "duration": 18, "velocity": 70}, {"time": 686, "pitch": 61, "duration": 7, "velocity": 70}, {"time": 686, "pitch": 64, "duration": 7, "velocity": 70}, {"time": 686, "pitch": 68, "duration": 6, "velocity": 70}, {"time": 692, "pitch": 49, "duration": 6, "velocity": 70}, {"time": 698, "pitch": 49, "duration": 24, "velocity": 70}, {"time": 704, "pitch": 56, "duration": 6, "velocity": 70}, {"time": 710, "pitch": 61, "duration": 5, "velocity": 70}, {"time": 710, "pitch": 64, "duration": 8, "velocity": 70}, {"time": 710, "pitch": 68, "duration": 9, "velocity": 70}, {"time": 722, "pitch": 42, "duration": 18, "velocity": 70}, {"time": 734, "pitch": 61, "duration": 7, "velocity": 70}, {"time": 734, "pitch": 66, "duration": 7, "velocity": 70}, {"time": 734, "pitch": 70, "duration": 7, "velocity": 70}, {"time": 740, "pitch": 42, "duration": 6, "velocity": 70}, {"time": 746, "pitch": 42, "duration": 24, "velocity": 70}, {"time": 752, "pitch": 54, "duration": 4, "velocity": 70}, {"time": 758, "pitch": 61, "duration": 2, "velocity": 70}, {"time": 758, "pitch": 66, "duration": 2, "velocity": 70}, {"time": 758, "pitch": 70, "duration": 2, "velocity": 70}, {"time": 770, "pitch": 47, "duration": 18, "velocity": 70}, {"time": 782, "pitch": 59, "duration": 6, "velocity": 70}, {"time": 782, "pitch": 63, "duration": 6, "velocity": 70}, {"time": 782, "pitch": 66, "duration": 6, "velocity": 70}, {"time": 788, "pitch": 47, "duration": 6, "velocity": 70}, {"time": 794, "pitch": 47, "duration": 24, "velocity": 70}, {"time": 800, "pitch": 54, "duration": 8, "velocity": 70}, {"time": 806, "pitch": 59, "duration": 2, "velocity": 70}, {"time": 806, "pitch": 63, "duration": 2, "velocity": 70}, {"time": 806, "pitch": 66, "duration": 2, "velocity": 70}, {"time": 818, "pitch": 47, "duration": 18, "velocity": 70}, {"time": 830, "pitch": 59, "duration": 7, "velocity": 70}, {"time": 830, "pitch": 63, "duration": 7, "velocity": 70}, {"time": 830, "pitch": 66, "duration": 7, "velocity": 70}, {"time": 836, "pitch": 47, "duration": 6, "velocity": 70}, {"time": 842, "pitch": 47, "duration": 24, "velocity": 70}, {"time": 848, "pitch": 54, "duration": 7, "velocity": 70}, {"time": 854, "pitch": 59, "duration": 3, "velocity": 70}, {"time": 854, "pitch": 63, "duration": 3, "velocity": 70}, {"time": 854, "pitch": 66, "duration": 3, "velocity": 70}, {"time": 866, "pitch": 49, "duration": 18, "velocity": 70}, {"time": 878, "pitch": 61, "duration": 17, "velocity": 70}, {"time": 878, "pitch": 64, "duration": 15, "velocity": 70}, {"time": 878, "pitch": 68, "duration": 18, "velocity": 70}, {"time": 884, "pitch": 49, "duration": 6, "velocity": 70}, {"time": 890, "pitch": 49, "duration": 24, "velocity": 70}, {"time": 896, "pitch": 56, "duration": 7, "velocity": 70}, {"time": 902, "pitch": 61, "duration": 6, "velocity": 70}, {"time": 902, "pitch": 64, "duration": 7, "velocity": 70}, {"time": 902, "pitch": 68, "duration": 7, "velocity": 70}, {"time": 914, "pitch": 42, "duration": 18, "velocity": 70}, {"time": 926, "pitch": 61, "duration": 8, "velocity": 70}, {"time": 926, "pitch": 66, "duration": 8, "velocity": 70}, {"time": 926, "pitch": 70, "duration": 8, "velocity": 70}, {"time": 932, "pitch": 42, "duration": 6, "velocity": 70}, {"time": 938, "pitch": 42, "duration": 24, "velocity": 70}, {"time": 944, "pitch": 54, "duration": 4, "velocity": 70}, {"time": 950, "pitch": 61, "duration": 6, "velocity": 70}, {"time": 950, "pitch": 66, "duration": 5, "velocity": 70}, {"time": 950, "pitch": 70, "duration": 5, "velocity": 70}, {"time": 962, "pitch": 47, "duration": 18, "velocity": 70}, {"time": 974, "pitch": 59, "duration": 7, "velocity": 70}, {"time": 974, "pitch": 63, "duration": 7, "velocity": 70}, {"time": 974, "pitch": 66, "duration": 7, "velocity": 70}, {"time": 980, "pitch": 47, "duration": 6, "velocity": 70}, {"time": 986, "pitch": 47, "duration": 24, "velocity": 70}, {"time": 992, "pitch": 54, "duration": 9, "velocity": 70}, {"time": 998, "pitch": 59, "duration": 6, "velocity": 70}, {"time": 998, "pitch": 63, "duration": 6, "velocity": 70}, {"time": 998, "pitch": 66, "duration": 6, "velocity": 70}, {"time": 1010, "pitch": 47, "duration": 18, "velocity": 70}, {"time": 1022, "pitch": 59, "duration": 6, "velocity": 70}, {"time": 1022, "pitch": 63, "duration": 6, "velocity": 70}, {"time": 1022, "pitch": 66, "duration": 6, "velocity": 70}, {"time": 1028, "pitch": 47, "duration": 6, "velocity": 70}, {"time": 1034, "pitch": 47, "duration": 24, "velocity": 70}, {"time": 1040, "pitch": 54, "duration": 7, "velocity": 70}, {"time": 1046, "pitch": 59, "duration": 3, "velocity": 70}, {"time": 1046, "pitch": 63, "duration": 4, "velocity": 70}, {"time": 1046, "pitch": 66, "duration": 3, "velocity": 70}, {"time": 1058, "pitch": 49, "duration": 18, "velocity": 70}, {"time": 1064, "pitch": 56, "duration": 10, "velocity": 74}, {"time": 1070, "pitch": 61, "duration": 6, "velocity": 74}, {"time": 1070, "pitch": 64, "duration": 6, "velocity": 74}, {"time": 1070, "pitch": 68, "duration": 5, "velocity": 74}, {"time": 1076, "pitch": 49, "duration": 6, "velocity": 74}, {"time": 1082, "pitch": 49, "duration": 24, "velocity": 74}, {"time": 1088, "pitch": 56, "duration": 7, "velocity": 74}, {"time": 1094, "pitch": 61, "duration": 3, "velocity": 74}, {"time": 1094, "pitch": 64, "duration": 3, "velocity": 74}, {"time": 1094, "pitch": 68, "duration": 3, "velocity": 74}, {"time": 1106, "pitch": 42, "duration": 18, "velocity": 74}, {"time": 1118, "pitch": 61, "duration": 7, "velocity": 74}, {"time": 1118, "pitch": 66, "duration": 6, "velocity": 74}, {"time": 1118, "pitch": 70, "duration": 7, "velocity": 74}, {"time": 1124, "pitch": 42, "duration": 6, "velocity": 74}, {"time": 1130, "pitch": 42, "duration": 24, "velocity": 74}, {"time": 1136, "pitch": 54, "duration": 6, "velocity": 74}, {"time": 1142, "pitch": 61, "duration": 6, "velocity": 74}, {"time": 1142, "pitch": 66, "duration": 6, "velocity": 74}, {"time": 1142, "pitch": 70, "duration": 6, "velocity": 74}, {"time": 1154, "pitch": 47, "duration": 18, "velocity": 74}, {"time": 1166, "pitch": 59, "duration": 18, "velocity": 74}, {"time": 1166, "pitch": 63, "duration": 17, "velocity": 74}, {"time": 1166, "pitch": 66, "duration": 17, "velocity": 74}, {"time": 1172, "pitch": 47, "duration": 6, "velocity": 74}, {"time": 1178, "pitch": 47, "duration": 24, "velocity": 74}, {"time": 1184, "pitch": 54, "duration": 8, "velocity": 74}, {"time": 1190, "pitch": 59, "duration": 12, "velocity": 74}, {"time": 1190, "pitch": 63, "duration": 12, "velocity": 74}, {"time": 1190, "pitch": 66, "duration": 12, "velocity": 74}, {"time": 1202, "pitch": 39, "duration": 18, "velocity": 74}, {"time": 1214, "pitch": 54, "duration": 19, "velocity": 74}, {"time": 1214, "pitch": 58, "duration": 18, "velocity": 74}, {"time": 1214, "pitch": 63, "duration": 19, "velocity": 74}, {"time": 1220, "pitch": 39, "duration": 6, "velocity": 74}, {"time": 1226, "pitch": 39, "duration": 24, "velocity": 74}, {"time": 1232, "pitch": 51, "duration": 8, "velocity": 74}, {"time": 1238, "pitch": 54, "duration": 5, "velocity": 74}, {"time": 1238, "pitch": 58, "duration": 8, "velocity": 74}, {"time": 1238, "pitch": 63, "duration": 11, "velocity": 74}, {"time": 1244, "pitch": 51, "duration": 3, "velocity": 74}, {"time": 1250, "pitch": 44, "duration": 18, "velocity": 74}, {"time": 1262, "pitch": 59, "duration": 18, "velocity": 74}, {"time": 1262, "pitch": 63, "duration": 18, "velocity": 74}, {"time": 1262, "pitch": 68, "duration": 18, "velocity": 74}, {"time": 1268, "pitch": 44, "duration": 6, "velocity": 74}, {"time": 1274, "pitch": 44, "duration": 24, "velocity": 74}, {"time": 1280, "pitch": 56, "duration": 8, "velocity": 74}, {"time": 1286, "pitch": 59, "duration": 9, "velocity": 75}, {"time": 1286, "pitch": 63, "duration": 9, "velocity": 75}, {"time": 1286, "pitch": 68, "duration": 9, "velocity": 75}, {"time": 1292, "pitch": 56, "duration": 4, "velocity": 75}, {"time": 1298, "pitch": 49, "duration": 18, "velocity": 75}, {"time": 1310, "pitch": 61, "duration": 15, "velocity": 75}, {"time": 1310, "pitch": 64, "duration": 15, "velocity": 75}, {"time": 1310, "pitch": 68, "duration": 15, "velocity": 75}, {"time": 1316, "pitch": 49, "duration": 6, "velocity": 75}, {"time": 1322, "pitch": 49, "duration": 24, "velocity": 75}, {"time": 1328, "pitch": 56, "duration": 6, "velocity": 75}, {"time": 1334, "pitch": 61, "duration": 4, "velocity": 75}, {"time": 1334, "pitch": 64, "duration": 4, "velocity": 75}, {"time": 1334, "pitch": 68, "duration": 4, "velocity": 75}, {"time": 1346, "pitch": 42, "duration": 18, "velocity": 75}, {"time": 1352, "pitch": 54, "duration": 8, "velocity": 75}, {"time": 1358, "pitch": 58, "duration": 15, "velocity": 75}, {"time": 1358, "pitch": 61, "duration": 15, "velocity": 75}, {"time": 1358, "pitch": 66, "duration": 15, "velocity": 75}, {"time": 1364, "pitch": 42, "duration": 6, "velocity": 75}, {"time": 1370, "pitch": 42, "duration": 24, "velocity": 75}, {"time": 1376, "pitch": 54, "duration": 8, "velocity": 75}, {"time": 1382, "pitch": 58, "duration": 3, "velocity": 75}, {"time": 1382, "pitch": 61, "duration": 3, "velocity": 75}, {"time": 1382, "pitch": 66, "duration": 3, "velocity": 75}, {"time": 1394, "pitch": 42, "duration": 19, "velocity": 75}, {"time": 1394, "pitch": 54, "duration": 19, "velocity": 75}, {"time": 1394, "pitch": 58, "duration": 19, "velocity": 75}, {"time": 1394, "pitch": 61, "duration": 19, "velocity": 75}, {"time": 1394, "pitch": 66, "duration": 19, "velocity": 75}, {"time": 1418, "pitch": 44, "duration": 18, "velocity": 75}, {"time": 1424, "pitch": 56, "duration": 9, "velocity": 75}, {"time": 1430, "pitch": 59, "duration": 15, "velocity": 75}, {"time": 1430, "pitch": 63, "duration": 15, "velocity": 75}, {"time": 1430, "pitch": 68, "duration": 15, "velocity": 75}, {"time": 1436, "pitch": 44, "duration": 6, "velocity": 75}, {"time": 1442, "pitch": 44, "duration": 24, "velocity": 75}, {"time": 1448, "pitch": 56, "duration": 8, "velocity": 75}, {"time": 1454, "pitch": 59, "duration": 4, "velocity": 75}, {"time": 1454, "pitch": 63, "duration": 4, "velocity": 75}, {"time": 1454, "pitch": 68, "duration": 4, "velocity": 75}, {"time": 1466, "pitch": 51, "duration": 18, "velocity": 75}, {"time": 1472, "pitch": 58, "duration": 10, "velocity": 75}, {"time": 1478, "pitch": 63, "duration": 14, "velocity": 75}, {"time": 1478, "pitch": 66, "duration": 14, "velocity": 75}, {"time": 1478, "pitch": 70, "duration": 14, "velocity": 75}, {"time": 1484, "pitch": 51, "duration": 6, "velocity": 75}, {"time": 1490, "pitch": 51, "duration": 24, "velocity": 75}, {"time": 1496, "pitch": 58, "duration": 7, "velocity": 75}, {"time": 1502, "pitch": 63, "duration": 4, "velocity": 75}, {"time": 1502, "pitch": 66, "duration": 4, "velocity": 75}, {"time": 1502, "pitch": 70, "duration": 4, "velocity": 75}, {"time": 1514, "pitch": 49, "duration": 18, "velocity": 75}, {"time": 1520, "pitch": 56, "duration": 11, "velocity": 75}, {"time": 1526, "pitch": 61, "duration": 14, "velocity": 75}, {"time": 1526, "pitch": 64, "duration": 13, "velocity": 75}, {"time": 1526, "pitch": 68, "duration": 14, "velocity": 75}, {"time": 1532, "pitch": 49, "duration": 6, "velocity": 75}, {"time": 1538, "pitch": 49, "duration": 24, "velocity": 75}, {"time": 1544, "pitch": 56, "duration": 7, "velocity": 75}, {"time": 1550, "pitch": 61, "duration": 5, "velocity": 75}, {"time": 1550, "pitch": 64, "duration": 5, "velocity": 75}, {"time": 1550, "pitch": 68, "duration": 5, "velocity": 75}, {"time": 1562, "pitch": 51, "duration": 18, "velocity": 75}, {"time": 1568, "pitch": 58, "duration": 8, "velocity": 75}, {"time": 1574, "pitch": 63, "duration": 15, "velocity": 75}, {"time": 1574, "pitch": 66, "duration": 14, "velocity": 75}, {"time": 1574, "pitch": 70, "duration": 14, "velocity": 75}, {"time": 1580, "pitch": 51, "duration": 6, "velocity": 75}, {"time": 1586, "pitch": 51, "duration": 24, "velocity": 75}, {"time": 1592, "pitch": 58, "duration": 7, "velocity": 75}, {"time": 1598, "pitch": 63, "duration": 4, "velocity": 75}, {"time": 1598, "pitch": 66, "duration": 4, "velocity": 75}, {"time": 1598, "pitch": 70, "duration": 4, "velocity": 75}, {"time": 1610, "pitch": 44, "duration": 18, "velocity": 75}, {"time": 1616, "pitch": 56, "duration": 9, "velocity": 75}, {"time": 1622, "pitch": 59, "duration": 7, "velocity": 75}, {"time": 1622, "pitch": 63, "duration": 8, "velocity": 75}, {"time": 1622, "pitch": 68, "duration": 7, "velocity": 75}, {"time": 1628, "pitch": 44, "duration": 6, "velocity": 75}, {"time": 1634, "pitch": 44, "duration": 24, "velocity": 75}, {"time": 1640, "pitch": 56, "duration": 8, "velocity": 75}, {"time": 1646, "pitch": 59, "duration": 3, "velocity": 75}, {"time": 1646, "pitch": 63, "duration": 4, "velocity": 75}, {"time": 1646, "pitch": 68, "duration": 4, "velocity": 75}, {"time": 1658, "pitch": 49, "duration": 18, "velocity": 75}, {"time": 1664, "pitch": 56, "duration": 9, "velocity": 75}, {"time": 1670, "pitch": 61, "duration": 14, "velocity": 75}, {"time": 1670, "pitch": 64, "duration": 12, "velocity": 75}, {"time": 1670, "pitch": 68, "duration": 13, "velocity": 75}, {"time": 1676, "pitch": 49, "duration": 6, "velocity": 75}, {"time": 1682, "pitch": 49, "duration": 24, "velocity": 75}, {"time": 1688, "pitch": 56, "duration": 8, "velocity": 75}, {"time": 1694, "pitch": 61, "duration": 6, "velocity": 75}, {"time": 1694, "pitch": 64, "duration": 5, "velocity": 75}, {"time": 1694, "pitch": 68, "duration": 5, "velocity": 75}, {"time": 1706, "pitch": 51, "duration": 18, "velocity": 75}, {"time": 1712, "pitch": 58, "duration": 10, "velocity": 75}, {"time": 1718, "pitch": 63, "duration": 14, "velocity": 75}, {"time": 1718, "pitch": 66, "duration": 13, "velocity": 75}, {"time": 1718, "pitch": 70, "duration": 13, "velocity": 75}, {"time": 1724, "pitch": 51, "duration": 6, "velocity": 75}, {"time": 1730, "pitch": 51, "duration": 24, "velocity": 75}, {"time": 1742, "pitch": 58, "duration": 7, "velocity": 75}, {"time": 1748, "pitch": 63, "duration": 4, "velocity": 75}, {"time": 1748, "pitch": 66, "duration": 4, "velocity": 75}, {"time": 1748, "pitch": 70, "duration": 4, "velocity": 75}, {"time": 1754, "pitch": 44, "duration": 18, "velocity": 75}, {"time": 1760, "pitch": 56, "duration": 10, "velocity": 75}, {"time": 1766, "pitch": 59, "duration": 20, "velocity": 75}, {"time": 1766, "pitch": 63, "duration": 19, "velocity": 75}, {"time": 1766, "pitch": 68, "duration": 19, "velocity": 75}, {"time": 1772, "pitch": 44, "duration": 6, "velocity": 75}, {"time": 1772, "pitch": 56, "duration": 10, "velocity": 75}, {"time": 1778, "pitch": 44, "duration": 24, "velocity": 75}, {"time": 1784, "pitch": 56, "duration": 10, "velocity": 75}, {"time": 1790, "pitch": 59, "duration": 9, "velocity": 75}, {"time": 1790, "pitch": 63, "duration": 9, "velocity": 75}, {"time": 1790, "pitch": 68, "duration": 8, "velocity": 75}, {"time": 1796, "pitch": 56, "duration": 4, "velocity": 75}, {"time": 1802, "pitch": 44, "duration": 48, "velocity": 75}, {"time": 1802, "pitch": 56, "duration": 20, "velocity": 75}, {"time": 1802, "pitch": 59, "duration": 21, "velocity": 75}, {"time": 1802, "pitch": 63, "duration": 22, "velocity": 75}, {"time": 1802, "pitch": 68, "duration": 19, "velocity": 75}, {"time": 1826, "pitch": 63, "duration": 13, "velocity": 75}, {"time": 1826, "pitch": 68, "duration": 13, "velocity": 75}, {"time": 1832, "pitch": 56, "duration": 8, "velocity": 75}, {"time": 1838, "pitch": 59, "duration": 11, "velocity": 75}, {"time": 1844, "pitch": 63, "duration": 6, "velocity": 75}, {"time": 1850, "pitch": 39, "duration": 41, "velocity": 75}, {"time": 1856, "pitch": 51, "duration": 22, "velocity": 75}, {"time": 1862, "pitch": 54, "duration": 20, "velocity": 75}, {"time": 1868, "pitch": 58, "duration": 14, "velocity": 75}, {"time": 1868, "pitch": 63, "duration": 15, "velocity": 75}, {"time": 1880, "pitch": 51, "duration": 9, "velocity": 75}, {"time": 1886, "pitch": 58, "duration": 7, "velocity": 75}, {"time": 1886, "pitch": 63, "duration": 11, "velocity": 75}, {"time": 1892, "pitch": 54, "duration": 6, "velocity": 75}, {"time": 1898, "pitch": 37, "duration": 39, "velocity": 75}, {"time": 1904, "pitch": 49, "duration": 24, "velocity": 75}, {"time": 1910, "pitch": 52, "duration": 21, "velocity": 75}, {"time": 1916, "pitch": 56, "duration": 15, "velocity": 75}, {"time": 1916, "pitch": 61, "duration": 15, "velocity": 75}, {"time": 1928, "pitch": 49, "duration": 1, "velocity": 75}, {"time": 1934, "pitch": 52, "duration": 9, "velocity": 75}, {"time": 1934, "pitch": 56, "duration": 12, "velocity": 75}, {"time": 1934, "pitch": 61, "duration": 6, "velocity": 75}, {"time": 1940, "pitch": 61, "duration": 6, "velocity": 75}, {"time": 1946, "pitch": 44, "duration": 41, "velocity": 75}, {"time": 1952, "pitch": 56, "duration": 21, "velocity": 75}, {"time": 1958, "pitch": 59, "duration": 20, "velocity": 75}, {"time": 1964, "pitch": 63, "duration": 14, "velocity": 75}, {"time": 1964, "pitch": 68, "duration": 13, "velocity": 75}, {"time": 1976, "pitch": 56, "duration": 11, "velocity": 75}, {"time": 1982, "pitch": 59, "duration": 5, "velocity": 75}, {"time": 1982, "pitch": 63, "duration": 8, "velocity": 75}, {"time": 1982, "pitch": 68, "duration": 6, "velocity": 75}, {"time": 1988, "pitch": 59, "duration": 6, "velocity": 75}, {"time": 1988, "pitch": 68, "duration": 2, "velocity": 75}, {"time": 1994, "pitch": 40, "duration": 18, "velocity": 75}, {"time": 2006, "pitch": 56, "duration": 6, "velocity": 75}, {"time": 2006, "pitch": 59, "duration": 7, "velocity": 75}, {"time": 2006, "pitch": 64, "duration": 7, "velocity": 75}, {"time": 2012, "pitch": 40, "duration": 6, "velocity": 75}, {"time": 2018, "pitch": 40, "duration": 24, "velocity": 75}, {"time": 2024, "pitch": 52, "duration": 6, "velocity": 75}, {"time": 2030, "pitch": 56, "duration": 3, "velocity": 75}, {"time": 2030, "pitch": 59, "duration": 3, "velocity": 75}, {"time": 2030, "pitch": 64, "duration": 3, "velocity": 75}, {"time": 2042, "pitch": 42, "duration": 18, "velocity": 74}, {"time": 2054, "pitch": 58, "duration": 6, "velocity": 74}, {"time": 2054, "pitch": 61, "duration": 6, "velocity": 74}, {"time": 2054, "pitch": 66, "duration": 6, "velocity": 74}, {"time": 2060, "pitch": 42, "duration": 6, "velocity": 74}, {"time": 2066, "pitch": 42, "duration": 24, "velocity": 74}, {"time": 2072, "pitch": 54, "duration": 6, "velocity": 74}, {"time": 2078, "pitch": 58, "duration": 3, "velocity": 74}, {"time": 2078, "pitch": 61, "duration": 4, "velocity": 74}, {"time": 2078, "pitch": 66, "duration": 4, "velocity": 74}, {"time": 2090, "pitch": 39, "duration": 18, "velocity": 74}, {"time": 2102, "pitch": 54, "duration": 18, "velocity": 74}, {"time": 2102, "pitch": 58, "duration": 18, "velocity": 74}, {"time": 2102, "pitch": 63, "duration": 19, "velocity": 74}, {"time": 2108, "pitch": 39, "duration": 6, "velocity": 74}, {"time": 2114, "pitch": 39, "duration": 24, "velocity": 74}, {"time": 2120, "pitch": 51, "duration": 8, "velocity": 74}, {"time": 2126, "pitch": 54, "duration": 7, "velocity": 73}, {"time": 2126, "pitch": 58, "duration": 8, "velocity": 73}, {"time": 2126, "pitch": 63, "duration": 8, "velocity": 73}, {"time": 2138, "pitch": 44, "duration": 18, "velocity": 73}, {"time": 2150, "pitch": 59, "duration": 14, "velocity": 72}, {"time": 2150, "pitch": 63, "duration": 14, "velocity": 72}, {"time": 2150, "pitch": 68, "duration": 14, "velocity": 72}, {"time": 2156, "pitch": 44, "duration": 6, "velocity": 72}, {"time": 2162, "pitch": 44, "duration": 18, "velocity": 72}, {"time": 2168, "pitch": 56, "duration": 9, "velocity": 72}, {"time": 2174, "pitch": 59, "duration": 2, "velocity": 71}, {"time": 2174, "pitch": 63, "duration": 3, "velocity": 71}, {"time": 2174, "pitch": 68, "duration": 2, "velocity": 71}, {"time": 2180, "pitch": 44, "duration": 6, "velocity": 71}, {"time": 2186, "pitch": 47, "duration": 40, "velocity": 71}, {"time": 2192, "pitch": 54, "duration": 9, "velocity": 71}, {"time": 2198, "pitch": 59, "duration": 7, "velocity": 71}, {"time": 2198, "pitch": 63, "duration": 7, "velocity": 71}, {"time": 2198, "pitch": 66, "duration": 6, "velocity": 71}, {"time": 2204, "pitch": 54, "duration": 14, "velocity": 71}, {"time": 2216, "pitch": 59, "duration": 6, "velocity": 71}, {"time": 2216, "pitch": 63, "duration": 6, "velocity": 71}, {"time": 2216, "pitch": 66, "duration": 6, "velocity": 71}, {"time": 2222, "pitch": 54, "duration": 7, "velocity": 71}, {"time": 2228, "pitch": 59, "duration": 3, "velocity": 71}, {"time": 2228, "pitch": 63, "duration": 3, "velocity": 71}, {"time": 2228, "pitch": 66, "duration": 3, "velocity": 71}, {"time": 2234, "pitch": 49, "duration": 18, "velocity": 71}, {"time": 2246, "pitch": 61, "duration": 8, "velocity": 71}, {"time": 2246, "pitch": 64, "duration": 7, "velocity": 71}, {"time": 2246, "pitch": 68, "duration": 7, "velocity": 71}, {"time": 2252, "pitch": 49, "duration": 6, "velocity": 71}, {"time": 2258, "pitch": 49, "duration": 24, "velocity": 71}, {"time": 2264, "pitch": 56, "duration": 5, "velocity": 71}, {"time": 2270, "pitch": 61, "duration": 3, "velocity": 71}, {"time": 2270, "pitch": 64, "duration": 3, "velocity": 71}, {"time": 2270, "pitch": 68, "duration": 3, "velocity": 71}, {"time": 2282, "pitch": 42, "duration": 18, "velocity": 71}, {"time": 2294, "pitch": 61, "duration": 7, "velocity": 71}, {"time": 2294, "pitch": 66, "duration": 6, "velocity": 71}, {"time": 2294, "pitch": 70, "duration": 7, "velocity": 71}, {"time": 2300, "pitch": 42, "duration": 6, "velocity": 71}, {"time": 2306, "pitch": 42, "duration": 18, "velocity": 71}, {"time": 2312, "pitch": 54, "duration": 4, "velocity": 71}, {"time": 2318, "pitch": 61, "duration": 7, "velocity": 71}, {"time": 2318, "pitch": 66, "duration": 7, "velocity": 71}, {"time": 2318, "pitch": 70, "duration": 7, "velocity": 71}, {"time": 2330, "pitch": 47, "duration": 18, "velocity": 71}, {"time": 2342, "pitch": 59, "duration": 7, "velocity": 71}, {"time": 2342, "pitch": 63, "duration": 7, "velocity": 71}, {"time": 2342, "pitch": 66, "duration": 7, "velocity": 71}, {"time": 2348, "pitch": 47, "duration": 6, "velocity": 71}, {"time": 2354, "pitch": 47, "duration": 18, "velocity": 71}, {"time": 2360, "pitch": 54, "duration": 9, "velocity": 71}, {"time": 2366, "pitch": 59, "duration": 3, "velocity": 71}, {"time": 2366, "pitch": 63, "duration": 3, "velocity": 71}, {"time": 2366, "pitch": 66, "duration": 3, "velocity": 71}, {"time": 2378, "pitch": 47, "duration": 18, "velocity": 71}, {"time": 2390, "pitch": 59, "duration": 6, "velocity": 71}, {"time": 2390, "pitch": 63, "duration": 6, "velocity": 71}, {"time": 2390, "pitch": 66, "duration": 6, "velocity": 71}, {"time": 2396, "pitch": 47, "duration": 6, "velocity": 71}, {"time": 2402, "pitch": 47, "duration": 24, "velocity": 71}, {"time": 2408, "pitch": 54, "duration": 7, "velocity": 71}, {"time": 2414, "pitch": 59, "duration": 3, "velocity": 71}, {"time": 2414, "pitch": 63, "duration": 3, "velocity": 71}, {"time": 2414, "pitch": 66, "duration": 3, "velocity": 71}, {"time": 2426, "pitch": 49, "duration": 18, "velocity": 71}, {"time": 2438, "pitch": 61, "duration": 7, "velocity": 71}, {"time": 2438, "pitch": 64, "duration": 7, "velocity": 71}, {"time": 2438, "pitch": 68, "duration": 6, "velocity": 71}, {"time": 2444, "pitch": 49, "duration": 6, "velocity": 71}, {"time": 2450, "pitch": 49, "duration": 24, "velocity": 71}, {"time": 2456, "pitch": 56, "duration": 6, "velocity": 71}, {"time": 2462, "pitch": 61, "duration": 5, "velocity": 71}, {"time": 2462, "pitch": 64, "duration": 8, "velocity": 71}, {"time": 2462, "pitch": 68, "duration": 9, "velocity": 71}, {"time": 2474, "pitch": 42, "duration": 18, "velocity": 71}, {"time": 2486, "pitch": 61, "duration": 7, "velocity": 71}, {"time": 2486, "pitch": 66, "duration": 7, "velocity": 71}, {"time": 2486, "pitch": 70, "duration": 7, "velocity": 71}, {"time": 2492, "pitch": 42, "duration": 6, "velocity": 71}, {"time": 2498, "pitch": 42, "duration": 24, "velocity": 71}, {"time": 2504, "pitch": 54, "duration": 4, "velocity": 71}, {"time": 2510, "pitch": 61, "duration": 2, "velocity": 71}, {"time": 2510, "pitch": 66, "duration": 2, "velocity": 71}, {"time": 2510, "pitch": 70, "duration": 2, "velocity": 71}, {"time": 2522, "pitch": 47, "duration": 18, "velocity": 71}, {"time": 2534, "pitch": 59, "duration": 6, "velocity": 71}, {"time": 2534, "pitch": 63, "duration": 6, "velocity": 71}, {"time": 2534, "pitch": 66, "duration": 6, "velocity": 71}, {"time": 2540, "pitch": 47, "duration": 6, "velocity": 71}, {"time": 2546, "pitch": 47, "duration": 24, "velocity": 71}, {"time": 2552, "pitch": 54, "duration": 8, "velocity": 71}, {"time": 2558, "pitch": 59, "duration": 2, "velocity": 71}, {"time": 2558, "pitch": 63, "duration": 2, "velocity": 71}, {"time": 2558, "pitch": 66, "duration": 2, "velocity": 71}, {"time": 2570, "pitch": 47, "duration": 18, "velocity": 71}, {"time": 2582, "pitch": 59, "duration": 7, "velocity": 71}, {"time": 2582, "pitch": 63, "duration": 7, "velocity": 71}, {"time": 2582, "pitch": 66, "duration": 7, "velocity": 71}, {"time": 2588, "pitch": 47, "duration": 6, "velocity": 71}, {"time": 2594, "pitch": 47, "duration": 24, "velocity": 71}, {"time": 2600, "pitch": 54, "duration": 7, "velocity": 71}, {"time": 2606, "pitch": 59, "duration": 3, "velocity": 71}, {"time": 2606, "pitch": 63, "duration": 3, "velocity": 71}, {"time": 2606, "pitch": 66, "duration": 3, "velocity": 71}, {"time": 2618, "pitch": 49, "duration": 18, "velocity": 71}, {"time": 2630, "pitch": 61, "duration": 17, "velocity": 71}, {"time": 2630, "pitch": 64, "duration": 15, "velocity": 71}, {"time": 2630, "pitch": 68, "duration": 18, "velocity": 71}, {"time": 2636, "pitch": 49, "duration": 6, "velocity": 71}, {"time": 2642, "pitch": 49, "duration": 24, "velocity": 71}, {"time": 2648, "pitch": 56, "duration": 7, "velocity": 71}, {"time": 2654, "pitch": 61, "duration": 6, "velocity": 71}, {"time": 2654, "pitch": 64, "duration": 7, "velocity": 71}, {"time": 2654, "pitch": 68, "duration": 7, "velocity": 71}, {"time": 2666, "pitch": 42, "duration": 18, "velocity": 71}, {"time": 2678, "pitch": 61, "duration": 8, "velocity": 71}, {"time": 2678, "pitch": 66, "duration": 8, "velocity": 71}, {"time": 2678, "pitch": 70, "duration": 8, "velocity": 71}, {"time": 2684, "pitch": 42, "duration": 6, "velocity": 71}, {"time": 2690, "pitch": 42, "duration": 24, "velocity": 71}, {"time": 2696, "pitch": 54, "duration": 4, "velocity": 71}, {"time": 2702, "pitch": 61, "duration": 6, "velocity": 71}, {"time": 2702, "pitch": 66, "duration": 5, "velocity": 71}, {"time": 2702, "pitch": 70, "duration": 5, "velocity": 71}, {"time": 2714, "pitch": 47, "duration": 18, "velocity": 71}, {"time": 2726, "pitch": 59, "duration": 7, "velocity": 71}, {"time": 2726, "pitch": 63, "duration": 7, "velocity": 71}, {"time": 2726, "pitch": 66, "duration": 7, "velocity": 71}, {"time": 2732, "pitch": 47, "duration": 6, "velocity": 71}, {"time": 2738, "pitch": 47, "duration": 24, "velocity": 71}, {"time": 2744, "pitch": 54, "duration": 9, "velocity": 71}, {"time": 2750, "pitch": 59, "duration": 6, "velocity": 71}, {"time": 2750, "pitch": 63, "duration": 6, "velocity": 71}, {"time": 2750, "pitch": 66, "duration": 6, "velocity": 71}, {"time": 2762, "pitch": 47, "duration": 18, "velocity": 71}, {"time": 2774, "pitch": 59, "duration": 6, "velocity": 71}, {"time": 2774, "pitch": 63, "duration": 6, "velocity": 71}, {"time": 2774, "pitch": 66, "duration": 6, "velocity": 71}, {"time": 2780, "pitch": 47, "duration": 6, "velocity": 71}, {"time": 2786, "pitch": 47, "duration": 24, "velocity": 71}, {"time": 2792, "pitch": 54, "duration": 7, "velocity": 71}, {"time": 2798, "pitch": 59, "duration": 3, "velocity": 71}, {"time": 2798, "pitch": 63, "duration": 4, "velocity": 71}, {"time": 2798, "pitch": 66, "duration": 3, "velocity": 71}, {"time": 2810, "pitch": 49, "duration": 18, "velocity": 71}, {"time": 2816, "pitch": 56, "duration": 10, "velocity": 71}, {"time": 2822, "pitch": 61, "duration": 6, "velocity": 71}, {"time": 2822, "pitch": 64, "duration": 6, "velocity": 71}, {"time": 2822, "pitch": 68, "duration": 5, "velocity": 71}, {"time": 2828, "pitch": 49, "duration": 6, "velocity": 71}, {"time": 2834, "pitch": 49, "duration": 24, "velocity": 71}, {"time": 2840, "pitch": 56, "duration": 7, "velocity": 71}, {"time": 2846, "pitch": 61, "duration": 3, "velocity": 71}, {"time": 2846, "pitch": 64, "duration": 3, "velocity": 71}, {"time": 2846, "pitch": 68, "duration": 3, "velocity": 71}, {"time": 2858, "pitch": 42, "duration": 18, "velocity": 71}, {"time": 2870, "pitch": 61, "duration": 7, "velocity": 71}, {"time": 2870, "pitch": 66, "duration": 6, "velocity": 71}, {"time": 2870, "pitch": 70, "duration": 7, "velocity": 71}, {"time": 2876, "pitch": 42, "duration": 6, "velocity": 71}, {"time": 2882, "pitch": 42, "duration": 24, "velocity": 71}, {"time": 2888, "pitch": 54, "duration": 6, "velocity": 71}, {"time": 2894, "pitch": 61, "duration": 6, "velocity": 71}, {"time": 2894, "pitch": 66, "duration": 6, "velocity": 71}, {"time": 2894, "pitch": 70, "duration": 6, "velocity": 71}, {"time": 2906, "pitch": 47, "duration": 18, "velocity": 71}, {"time": 2918, "pitch": 59, "duration": 18, "velocity": 71}, {"time": 2918, "pitch": 63, "duration": 17, "velocity": 71}, {"time": 2918, "pitch": 66, "duration": 17, "velocity": 71}, {"time": 2924, "pitch": 47, "duration": 6, "velocity": 71}, {"time": 2930, "pitch": 47, "duration": 24, "velocity": 71}, {"time": 2936, "pitch": 54, "duration": 8, "velocity": 71}, {"time": 2942, "pitch": 59, "duration": 12, "velocity": 71}, {"time": 2942, "pitch": 63, "duration": 12, "velocity": 71}, {"time": 2942, "pitch": 66, "duration": 12, "velocity": 71}, {"time": 2954, "pitch": 39, "duration": 18, "velocity": 71}, {"time": 2966, "pitch": 54, "duration": 19, "velocity": 71}, {"time": 2966, "pitch": 58, "duration": 18, "velocity": 71}, {"time": 2966, "pitch": 63, "duration": 19, "velocity": 71}, {"time": 2972, "pitch": 39, "duration": 6, "velocity": 71}, {"time": 2978, "pitch": 39, "duration": 24, "velocity": 71}, {"time": 2984, "pitch": 51, "duration": 8, "velocity": 71}, {"time": 2990, "pitch": 54, "duration": 5, "velocity": 71}, {"time": 2990, "pitch": 58, "duration": 8, "velocity": 71}, {"time": 2990, "pitch": 63, "duration": 11, "velocity": 71}, {"time": 2996, "pitch": 51, "duration": 3, "velocity": 71}, {"time": 3002, "pitch": 44, "duration": 18, "velocity": 71}, {"time": 3014, "pitch": 59, "duration": 18, "velocity": 71}, {"time": 3014, "pitch": 63, "duration": 18, "velocity": 71}, {"time": 3014, "pitch": 68, "duration": 18, "velocity": 71}, {"time": 3020, "pitch": 44, "duration": 6, "velocity": 71}, {"time": 3026, "pitch": 44, "duration": 24, "velocity": 71}, {"time": 3032, "pitch": 56, "duration": 8, "velocity": 71}, {"time": 3038, "pitch": 59, "duration": 9, "velocity": 71}, {"time": 3038, "pitch": 63, "duration": 9, "velocity": 71}, {"time": 3038, "pitch": 68, "duration": 9, "velocity": 71}, {"time": 3044, "pitch": 56, "duration": 4, "velocity": 71}, {"time": 3050, "pitch": 49, "duration": 18, "velocity": 71}, {"time": 3062, "pitch": 61, "duration": 15, "velocity": 71}, {"time": 3062, "pitch": 64, "duration": 15, "velocity": 71}, {"time": 3062, "pitch": 68, "duration": 15, "velocity": 71}, {"time": 3068, "pitch": 49, "duration": 6, "velocity": 71}, {"time": 3074, "pitch": 49, "duration": 24, "velocity": 71}, {"time": 3080, "pitch": 56, "duration": 6, "velocity": 71}, {"time": 3086, "pitch": 61, "duration": 4, "velocity": 72}, {"time": 3086, "pitch": 64, "duration": 4, "velocity": 72}, {"time": 3086, "pitch": 68, "duration": 4, "velocity": 72}, {"time": 3098, "pitch": 42, "duration": 18, "velocity": 73}, {"time": 3104, "pitch": 54, "duration": 8, "velocity": 73}, {"time": 3110, "pitch": 58, "duration": 15, "velocity": 73}, {"time": 3110, "pitch": 61, "duration": 15, "velocity": 73}, {"time": 3110, "pitch": 66, "duration": 15, "velocity": 73}, {"time": 3116, "pitch": 42, "duration": 6, "velocity": 73}, {"time": 3122, "pitch": 42, "duration": 24, "velocity": 73}, {"time": 3128, "pitch": 54, "duration": 8, "velocity": 73}, {"time": 3134, "pitch": 58, "duration": 3, "velocity": 73}, {"time": 3134, "pitch": 61, "duration": 3, "velocity": 73}, {"time": 3134, "pitch": 66, "duration": 3, "velocity": 73}, {"time": 3146, "pitch": 42, "duration": 19, "velocity": 74}, {"time": 3146, "pitch": 54, "duration": 19, "velocity": 74}, {"time": 3146, "pitch": 58, "duration": 19, "velocity": 74}, {"time": 3146, "pitch": 61, "duration": 19, "velocity": 74}, {"time": 3146, "pitch": 66, "duration": 19, "velocity": 74}, {"time": 3170, "pitch": 44, "duration": 18, "velocity": 74}, {"time": 3176, "pitch": 56, "duration": 9, "velocity": 74}, {"time": 3182, "pitch": 59, "duration": 15, "velocity": 74}, {"time": 3182, "pitch": 63, "duration": 15, "velocity": 74}, {"time": 3182, "pitch": 68, "duration": 15, "velocity": 74}, {"time": 3188, "pitch": 44, "duration": 6, "velocity": 74}, {"time": 3194, "pitch": 44, "duration": 24, "velocity": 74}, {"time": 3200, "pitch": 56, "duration": 8, "velocity": 74}, {"time": 3206, "pitch": 59, "duration": 4, "velocity": 74}, {"time": 3206, "pitch": 63, "duration": 4, "velocity": 74}, {"time": 3206, "pitch": 68, "duration": 4, "velocity": 74}, {"time": 3218, "pitch": 51, "duration": 18, "velocity": 74}, {"time": 3224, "pitch": 58, "duration": 10, "velocity": 74}, {"time": 3230, "pitch": 63, "duration": 14, "velocity": 74}, {"time": 3230, "pitch": 66, "duration": 14, "velocity": 74}, {"time": 3230, "pitch": 70, "duration": 14, "velocity": 74}, {"time": 3236, "pitch": 51, "duration": 6, "velocity": 74}, {"time": 3242, "pitch": 51, "duration": 24, "velocity": 74}, {"time": 3248, "pitch": 58, "duration": 7, "velocity": 75}, {"time": 3254, "pitch": 63, "duration": 4, "velocity": 75}, {"time": 3254, "pitch": 66, "duration": 4, "velocity": 75}, {"time": 3254, "pitch": 70, "duration": 4, "velocity": 75}, {"time": 3266, "pitch": 49, "duration": 18, "velocity": 75}, {"time": 3272, "pitch": 56, "duration": 11, "velocity": 75}, {"time": 3278, "pitch": 61, "duration": 14, "velocity": 75}, {"time": 3278, "pitch": 64, "duration": 13, "velocity": 75}, {"time": 3278, "pitch": 68, "duration": 14, "velocity": 75}, {"time": 3284, "pitch": 49, "duration": 6, "velocity": 75}, {"time": 3290, "pitch": 49, "duration": 24, "velocity": 75}, {"time": 3296, "pitch": 56, "duration": 7, "velocity": 75}, {"time": 3302, "pitch": 61, "duration": 5, "velocity": 75}, {"time": 3302, "pitch": 64, "duration": 5, "velocity": 75}, {"time": 3302, "pitch": 68, "duration": 5, "velocity": 75}, {"time": 3314, "pitch": 44, "duration": 41, "velocity": 75}, {"time": 3320, "pitch": 56, "duration": 21, "velocity": 75}, {"time": 3326, "pitch": 59, "duration": 20, "velocity": 75}, {"time": 3326, "pitch": 63, "duration": 14, "velocity": 75}, {"time": 3326, "pitch": 68, "duration": 13, "velocity": 75}, {"time": 3344, "pitch": 56, "duration": 11, "velocity": 75}, {"time": 3350, "pitch": 59, "duration": 5, "velocity": 75}, {"time": 3350, "pitch": 63, "duration": 8, "velocity": 75}, {"time": 3350, "pitch": 68, "duration": 6, "velocity": 75}, {"time": 3356, "pitch": 59, "duration": 6, "velocity": 75}, {"time": 3356, "pitch": 68, "duration": 2, "velocity": 75}, {"time": 3362, "pitch": 44, "duration": 18, "velocity": 75}, {"time": 3368, "pitch": 56, "duration": 9, "velocity": 75}, {"time": 3374, "pitch": 59, "duration": 15, "velocity": 75}, {"time": 3374, "pitch": 63, "duration": 15, "velocity": 75}, {"time": 3374, "pitch": 68, "duration": 15, "velocity": 75}, {"time": 3380, "pitch": 44, "duration": 6, "velocity": 75}, {"time": 3386, "pitch": 44, "duration": 24, "velocity": 75}, {"time": 3392, "pitch": 56, "duration": 8, "velocity": 75}, {"time": 3398, "pitch": 59, "duration": 4, "velocity": 75}, {"time": 3398, "pitch": 63, "duration": 4, "velocity": 75}, {"time": 3398, "pitch": 68, "duration": 4, "velocity": 75}, {"time": 3410, "pitch": 51, "duration": 18, "velocity": 75}, {"time": 3416, "pitch": 58, "duration": 10, "velocity": 68}, {"time": 3422, "pitch": 63, "duration": 14, "velocity": 68}, {"time": 3422, "pitch": 66, "duration": 14, "velocity": 68}, {"time": 3422, "pitch": 70, "duration": 14, "velocity": 68}, {"time": 3428, "pitch": 51, "duration": 6, "velocity": 68}, {"time": 3434, "pitch": 51, "duration": 24, "velocity": 69}, {"time": 3440, "pitch": 58, "duration": 7, "velocity": 69}, {"time": 3446, "pitch": 63, "duration": 4, "velocity": 69}, {"time": 3446, "pitch": 66, "duration": 4, "velocity": 69}, {"time": 3446, "pitch": 70, "duration": 4, "velocity": 69}, {"time": 3458, "pitch": 49, "duration": 18, "velocity": 69}, {"time": 3464, "pitch": 56, "duration": 11, "velocity": 69}, {"time": 3470, "pitch": 61, "duration": 14, "velocity": 69}, {"time": 3470, "pitch": 64, "duration": 13, "velocity": 69}, {"time": 3470, "pitch": 68, "duration": 14, "velocity": 69}, {"time": 3476, "pitch": 49, "duration": 6, "velocity": 69}, {"time": 3482, "pitch": 49, "duration": 24, "velocity": 69}, {"time": 3488, "pitch": 56, "duration": 7, "velocity": 69}, {"time": 3494, "pitch": 61, "duration": 5, "velocity": 69}, {"time": 3494, "pitch": 64, "duration": 5, "velocity": 69}, {"time": 3494, "pitch": 68, "duration": 5, "velocity": 69}, {"time": 3506, "pitch": 51, "duration": 18, "velocity": 69}, {"time": 3512, "pitch": 58, "duration": 8, "velocity": 69}, {"time": 3518, "pitch": 63, "duration": 15, "velocity": 69}, {"time": 3518, "pitch": 66, "duration": 14, "velocity": 69}, {"time": 3518, "pitch": 70, "duration": 14, "velocity": 69}, {"time": 3524, "pitch": 51, "duration": 6, "velocity": 69}, {"time": 3530, "pitch": 51, "duration": 24, "velocity": 69}, {"time": 3536, "pitch": 58, "duration": 7, "velocity": 69}, {"time": 3542, "pitch": 63, "duration": 4, "velocity": 69}, {"time": 3542, "pitch": 66, "duration": 4, "velocity": 69}, {"time": 3542, "pitch": 70, "duration": 4, "velocity": 69}, {"time": 3554, "pitch": 44, "duration": 18, "velocity": 69}, {"time": 3560, "pitch": 56, "duration": 9, "velocity": 69}, {"time": 3566, "pitch": 59, "duration": 7, "velocity": 69}, {"time": 3566, "pitch": 63, "duration": 8, "velocity": 69}, {"time": 3566, "pitch": 68, "duration": 7, "velocity": 69}, {"time": 3572, "pitch": 44, "duration": 6, "velocity": 69}, {"time": 3578, "pitch": 44, "duration": 24, "velocity": 69}, {"time": 3584, "pitch": 56, "duration": 8, "velocity": 69}, {"time": 3590, "pitch": 59, "duration": 3, "velocity": 69}, {"time": 3590, "pitch": 63, "duration": 4, "velocity": 69}, {"time": 3590, "pitch": 68, "duration": 4, "velocity": 69}, {"time": 3602, "pitch": 49, "duration": 18, "velocity": 69}, {"time": 3608, "pitch": 56, "duration": 9, "velocity": 69}, {"time": 3614, "pitch": 61, "duration": 14, "velocity": 69}, {"time": 3614, "pitch": 64, "duration": 12, "velocity": 69}, {"time": 3614, "pitch": 68, "duration": 13, "velocity": 69}, {"time": 3620, "pitch": 49, "duration": 6, "velocity": 69}, {"time": 3626, "pitch": 49, "duration": 24, "velocity": 69}, {"time": 3632, "pitch": 56, "duration": 8, "velocity": 69}, {"time": 3638, "pitch": 61, "duration": 6, "velocity": 69}, {"time": 3638, "pitch": 64, "duration": 5, "velocity": 69}, {"time": 3638, "pitch": 68, "duration": 5, "velocity": 69}, {"time": 3650, "pitch": 51, "duration": 18, "velocity": 69}, {"time": 3656, "pitch": 58, "duration": 10, "velocity": 69}, {"time": 3662, "pitch": 63, "duration": 14, "velocity": 69}, {"time": 3662, "pitch": 66, "duration": 13, "velocity": 69}, {"time": 3662, "pitch": 70, "duration": 13, "velocity": 69}, {"time": 3668, "pitch": 51, "duration": 6, "velocity": 69}, {"time": 3674, "pitch": 51, "duration": 24, "velocity": 69}, {"time": 3680, "pitch": 58, "duration": 7, "velocity": 69}, {"time": 3686, "pitch": 63, "duration": 4, "velocity": 69}, {"time": 3686, "pitch": 66, "duration": 4, "velocity": 69}, {"time": 3686, "pitch": 70, "duration": 4, "velocity": 69}, {"time": 3698, "pitch": 44, "duration": 18, "velocity": 69}, {"time": 3704, "pitch": 56, "duration": 18, "velocity": 69}, {"time": 3710, "pitch": 59, "duration": 8, "velocity": 69}, {"time": 3710, "pitch": 63, "duration": 7, "velocity": 69}, {"time": 3710, "pitch": 68, "duration": 7, "velocity": 69}, {"time": 3716, "pitch": 44, "duration": 6, "velocity": 69}, {"time": 3722, "pitch": 44, "duration": 24, "velocity": 69}, {"time": 3728, "pitch": 56, "duration": 5, "velocity": 69}, {"time": 3734, "pitch": 59, "duration": 6, "velocity": 69}, {"time": 3734, "pitch": 63, "duration": 5, "velocity": 69}, {"time": 3734, "pitch": 68, "duration": 5, "velocity": 69}, {"time": 3746, "pitch": 39, "duration": 18, "velocity": 69}, {"time": 3752, "pitch": 51, "duration": 10, "velocity": 69}, {"time": 3758, "pitch": 54, "duration": 18, "velocity": 69}, {"time": 3758, "pitch": 58, "duration": 18, "velocity": 69}, {"time": 3758, "pitch": 63, "duration": 18, "velocity": 69}, {"time": 3764, "pitch": 39, "duration": 6, "velocity": 69}, {"time": 3770, "pitch": 39, "duration": 24, "velocity": 69}, {"time": 3776, "pitch": 51, "duration": 11, "velocity": 69}, {"time": 3782, "pitch": 54, "duration": 6, "velocity": 69}, {"time": 3782, "pitch": 58, "duration": 6, "velocity": 69}, {"time": 3782, "pitch": 63, "duration": 5, "velocity": 69}, {"time": 3788, "pitch": 54, "duration": 5, "velocity": 69}, {"time": 3794, "pitch": 37, "duration": 18, "velocity": 69}, {"time": 3800, "pitch": 49, "duration": 19, "velocity": 69}, {"time": 3806, "pitch": 52, "duration": 15, "velocity": 69}, {"time": 3806, "pitch": 56, "duration": 15, "velocity": 69}, {"time": 3806, "pitch": 61, "duration": 15, "velocity": 69}, {"time": 3812, "pitch": 37, "duration": 6, "velocity": 69}, {"time": 3818, "pitch": 37, "duration": 24, "velocity": 69}, {"time": 3824, "pitch": 49, "duration": 7, "velocity": 69}, {"time": 3830, "pitch": 52, "duration": 3, "velocity": 69}, {"time": 3830, "pitch": 56, "duration": 4, "velocity": 69}, {"time": 3830, "pitch": 61, "duration": 4, "velocity": 69}, {"time": 3842, "pitch": 44, "duration": 18, "velocity": 69}, {"time": 3848, "pitch": 56, "duration": 9, "velocity": 69}, {"time": 3854, "pitch": 59, "duration": 17, "velocity": 69}, {"time": 3854, "pitch": 63, "duration": 16, "velocity": 69}, {"time": 3854, "pitch": 68, "duration": 16, "velocity": 69}, {"time": 3860, "pitch": 44, "duration": 6, "velocity": 69}, {"time": 3860, "pitch": 56, "duration": 9, "velocity": 69}, {"time": 3866, "pitch": 44, "duration": 6, "velocity": 69}, {"time": 3872, "pitch": 44, "duration": 12, "velocity": 69}, {"time": 3872, "pitch": 56, "duration": 9, "velocity": 69}, {"time": 3878, "pitch": 59, "duration": 9, "velocity": 69}, {"time": 3878, "pitch": 63, "duration": 9, "velocity": 69}, {"time": 3878, "pitch": 68, "duration": 9, "velocity": 69}, {"time": 3884, "pitch": 56, "duration": 4, "velocity": 69}, {"time": 3890, "pitch": 44, "duration": 39, "velocity": 69}, {"time": 3890, "pitch": 56, "duration": 20, "velocity": 69}, {"time": 3890, "pitch": 59, "duration": 21, "velocity": 69}, {"time": 3890, "pitch": 63, "duration": 22, "velocity": 69}, {"time": 3890, "pitch": 68, "duration": 19, "velocity": 69}, {"time": 3914, "pitch": 63, "duration": 13, "velocity": 69}, {"time": 3914, "pitch": 68, "duration": 13, "velocity": 69}, {"time": 3920, "pitch": 56, "duration": 8, "velocity": 69}, {"time": 3926, "pitch": 59, "duration": 11, "velocity": 69}, {"time": 3932, "pitch": 63, "duration": 6, "velocity": 69}, {"time": 3938, "pitch": 39, "duration": 41, "velocity": 69}, {"time": 3944, "pitch": 51, "duration": 22, "velocity": 69}, {"time": 3950, "pitch": 54, "duration": 20, "velocity": 69}, {"time": 3956, "pitch": 58, "duration": 14, "velocity": 69}, {"time": 3956, "pitch": 63, "duration": 15, "velocity": 69}, {"time": 3968, "pitch": 51, "duration": 9, "velocity": 69}, {"time": 3974, "pitch": 58, "duration": 7, "velocity": 69}, {"time": 3974, "pitch": 63, "duration": 11, "velocity": 69}, {"time": 3980, "pitch": 54, "duration": 6, "velocity": 69}, {"time": 3986, "pitch": 37, "duration": 39, "velocity": 69}, {"time": 3992, "pitch": 49, "duration": 24, "velocity": 69}, {"time": 3998, "pitch": 52, "duration": 21, "velocity": 69}, {"time": 4004, "pitch": 56, "duration": 15, "velocity": 69}, {"time": 4004, "pitch": 61, "duration": 15, "velocity": 69}, {"time": 4016, "pitch": 49, "duration": 1, "velocity": 69}, {"time": 4022, "pitch": 52, "duration": 9, "velocity": 69}, {"time": 4022, "pitch": 56, "duration": 12, "velocity": 69}, {"time": 4022, "pitch": 61, "duration": 6, "velocity": 69}, {"time": 4028, "pitch": 61, "duration": 6, "velocity": 69}, {"time": 4034, "pitch": 44, "duration": 72, "velocity": 69}, {"time": 4040, "pitch": 56, "duration": 66, "velocity": 69}, {"time": 4046, "pitch": 59, "duration": 60, "velocity": 69}, {"time": 4052, "pitch": 63, "duration": 54, "velocity": 70}, {"time": 4052, "pitch": 68, "duration": 54, "velocity": 70}]}]}