{"metadata": {"schema_version": "0.2", "title": "None", "source_filename": "794.mid", "source_format": "midi"}, "resolution": 12, "tempos": [{"time": 0, "qpm": 116.10041912251303}, {"time": 3084, "qpm": 116.00008506672904}], "time_signatures": [{"time": 0, "numerator": 1, "denominator": 4}], "tracks": [{"program": 0, "is_drum": false, "name": "MELODY", "notes": [{"time": 603, "pitch": 69, "duration": 13, "velocity": 90}, {"time": 615, "pitch": 70, "duration": 16, "velocity": 90}, {"time": 633, "pitch": 69, "duration": 9, "velocity": 90}, {"time": 645, "pitch": 69, "duration": 6, "velocity": 90}, {"time": 651, "pitch": 70, "duration": 5, "velocity": 90}, {"time": 657, "pitch": 69, "duration": 13, "velocity": 90}, {"time": 669, "pitch": 65, "duration": 7, "velocity": 90}, {"time": 681, "pitch": 67, "duration": 19, "velocity": 90}, {"time": 699, "pitch": 62, "duration": 19, "velocity": 90}, {"time": 717, "pitch": 60, "duration": 12, "velocity": 90}, {"time": 729, "pitch": 62, "duration": 23, "velocity": 90}, {"time": 795, "pitch": 69, "duration": 4, "velocity": 90}, {"time": 801, "pitch": 69, "duration": 6, "velocity": 90}, {"time": 807, "pitch": 70, "duration": 17, "velocity": 85}, {"time": 825, "pitch": 69, "duration": 9, "velocity": 85}, {"time": 837, "pitch": 69, "duration": 6, "velocity": 85}, {"time": 843, "pitch": 70, "duration": 5, "velocity": 85}, {"time": 849, "pitch": 69, "duration": 12, "velocity": 85}, {"time": 861, "pitch": 65, "duration": 7, "velocity": 85}, {"time": 873, "pitch": 67, "duration": 19, "velocity": 85}, {"time": 891, "pitch": 70, "duration": 36, "velocity": 85}, {"time": 963, "pitch": 74, "duration": 3, "velocity": 85}, {"time": 969, "pitch": 74, "duration": 6, "velocity": 85}, {"time": 975, "pitch": 72, "duration": 4, "velocity": 85}, {"time": 981, "pitch": 72, "duration": 5, "velocity": 85}, {"time": 987, "pitch": 70, "duration": 4, "velocity": 85}, {"time": 993, "pitch": 72, "duration": 13, "velocity": 85}, {"time": 1005, "pitch": 70, "duration": 3, "velocity": 85}, {"time": 1011, "pitch": 70, "duration": 12, "velocity": 85}, {"time": 1023, "pitch": 67, "duration": 32, "velocity": 85}, {"time": 1059, "pitch": 74, "duration": 2, "velocity": 85}, {"time": 1065, "pitch": 74, "duration": 3, "velocity": 85}, {"time": 1071, "pitch": 72, "duration": 3, "velocity": 85}, {"time": 1077, "pitch": 72, "duration": 3, "velocity": 85}, {"time": 1083, "pitch": 70, "duration": 2, "velocity": 85}, {"time": 1089, "pitch": 72, "duration": 11, "velocity": 85}, {"time": 1101, "pitch": 70, "duration": 2, "velocity": 85}, {"time": 1107, "pitch": 70, "duration": 11, "velocity": 85}, {"time": 1119, "pitch": 65, "duration": 33, "velocity": 85}, {"time": 1155, "pitch": 74, "duration": 2, "velocity": 85}, {"time": 1161, "pitch": 74, "duration": 4, "velocity": 85}, {"time": 1167, "pitch": 72, "duration": 2, "velocity": 85}, {"time": 1173, "pitch": 72, "duration": 4, "velocity": 85}, {"time": 1179, "pitch": 70, "duration": 12, "velocity": 85}, {"time": 1191, "pitch": 67, "duration": 18, "velocity": 85}, {"time": 1209, "pitch": 74, "duration": 8, "velocity": 85}, {"time": 1218, "pitch": 72, "duration": 7, "velocity": 85}, {"time": 1227, "pitch": 70, "duration": 11, "velocity": 85}, {"time": 1239, "pitch": 67, "duration": 17, "velocity": 85}, {"time": 1257, "pitch": 62, "duration": 11, "velocity": 85}, {"time": 1269, "pitch": 65, "duration": 24, "velocity": 85}, {"time": 1371, "pitch": 70, "duration": 2, "velocity": 85}, {"time": 1377, "pitch": 70, "duration": 2, "velocity": 85}, {"time": 1383, "pitch": 70, "duration": 14, "velocity": 85}, {"time": 1401, "pitch": 69, "duration": 10, "velocity": 85}, {"time": 1413, "pitch": 70, "duration": 10, "velocity": 85}, {"time": 1425, "pitch": 69, "duration": 12, "velocity": 85}, {"time": 1437, "pitch": 65, "duration": 12, "velocity": 85}, {"time": 1449, "pitch": 67, "duration": 17, "velocity": 85}, {"time": 1467, "pitch": 62, "duration": 19, "velocity": 85}, {"time": 1485, "pitch": 60, "duration": 6, "velocity": 85}, {"time": 1491, "pitch": 62, "duration": 44, "velocity": 85}, {"time": 1563, "pitch": 70, "duration": 1, "velocity": 85}, {"time": 1569, "pitch": 70, "duration": 2, "velocity": 85}, {"time": 1575, "pitch": 70, "duration": 16, "velocity": 85}, {"time": 1593, "pitch": 69, "duration": 6, "velocity": 85}, {"time": 1605, "pitch": 69, "duration": 6, "velocity": 85}, {"time": 1611, "pitch": 70, "duration": 4, "velocity": 85}, {"time": 1617, "pitch": 69, "duration": 12, "velocity": 85}, {"time": 1629, "pitch": 65, "duration": 11, "velocity": 85}, {"time": 1641, "pitch": 67, "duration": 13, "velocity": 85}, {"time": 1653, "pitch": 70, "duration": 34, "velocity": 85}, {"time": 1731, "pitch": 74, "duration": 4, "velocity": 85}, {"time": 1737, "pitch": 74, "duration": 6, "velocity": 85}, {"time": 1743, "pitch": 72, "duration": 3, "velocity": 85}, {"time": 1749, "pitch": 72, "duration": 3, "velocity": 85}, {"time": 1755, "pitch": 70, "duration": 5, "velocity": 85}, {"time": 1761, "pitch": 72, "duration": 11, "velocity": 85}, {"time": 1773, "pitch": 70, "duration": 4, "velocity": 85}, {"time": 1779, "pitch": 70, "duration": 12, "velocity": 85}, {"time": 1791, "pitch": 67, "duration": 30, "velocity": 85}, {"time": 1827, "pitch": 74, "duration": 2, "velocity": 85}, {"time": 1833, "pitch": 74, "duration": 5, "velocity": 85}, {"time": 1839, "pitch": 72, "duration": 2, "velocity": 85}, {"time": 1845, "pitch": 72, "duration": 4, "velocity": 85}, {"time": 1851, "pitch": 70, "duration": 4, "velocity": 85}, {"time": 1857, "pitch": 72, "duration": 10, "velocity": 85}, {"time": 1869, "pitch": 70, "duration": 3, "velocity": 85}, {"time": 1875, "pitch": 70, "duration": 11, "velocity": 85}, {"time": 1887, "pitch": 65, "duration": 28, "velocity": 85}, {"time": 1923, "pitch": 74, "duration": 2, "velocity": 85}, {"time": 1929, "pitch": 74, "duration": 5, "velocity": 85}, {"time": 1935, "pitch": 72, "duration": 3, "velocity": 85}, {"time": 1941, "pitch": 72, "duration": 3, "velocity": 85}, {"time": 1947, "pitch": 70, "duration": 6, "velocity": 85}, {"time": 1953, "pitch": 67, "duration": 15, "velocity": 85}, {"time": 1971, "pitch": 74, "duration": 2, "velocity": 85}, {"time": 1977, "pitch": 74, "duration": 3, "velocity": 85}, {"time": 1983, "pitch": 72, "duration": 3, "velocity": 85}, {"time": 1989, "pitch": 72, "duration": 4, "velocity": 85}, {"time": 1995, "pitch": 70, "duration": 6, "velocity": 85}, {"time": 2001, "pitch": 67, "duration": 13, "velocity": 85}, {"time": 2013, "pitch": 70, "duration": 11, "velocity": 85}, {"time": 2025, "pitch": 77, "duration": 17, "velocity": 85}, {"time": 2115, "pitch": 77, "duration": 2, "velocity": 85}, {"time": 2121, "pitch": 77, "duration": 5, "velocity": 85}, {"time": 2127, "pitch": 74, "duration": 2, "velocity": 85}, {"time": 2133, "pitch": 74, "duration": 4, "velocity": 85}, {"time": 2139, "pitch": 72, "duration": 2, "velocity": 85}, {"time": 2145, "pitch": 72, "duration": 3, "velocity": 85}, {"time": 2151, "pitch": 70, "duration": 3, "velocity": 85}, {"time": 2157, "pitch": 72, "duration": 4, "velocity": 85}, {"time": 2163, "pitch": 70, "duration": 2, "velocity": 85}, {"time": 2169, "pitch": 72, "duration": 11, "velocity": 85}, {"time": 2181, "pitch": 74, "duration": 6, "velocity": 85}, {"time": 2187, "pitch": 77, "duration": 13, "velocity": 85}, {"time": 2199, "pitch": 74, "duration": 7, "velocity": 85}, {"time": 2211, "pitch": 77, "duration": 2, "velocity": 85}, {"time": 2217, "pitch": 77, "duration": 4, "velocity": 85}, {"time": 2223, "pitch": 74, "duration": 3, "velocity": 85}, {"time": 2229, "pitch": 74, "duration": 5, "velocity": 85}, {"time": 2235, "pitch": 72, "duration": 3, "velocity": 85}, {"time": 2241, "pitch": 72, "duration": 4, "velocity": 85}, {"time": 2247, "pitch": 70, "duration": 3, "velocity": 85}, {"time": 2253, "pitch": 72, "duration": 6, "velocity": 85}, {"time": 2259, "pitch": 74, "duration": 38, "velocity": 85}, {"time": 2307, "pitch": 77, "duration": 2, "velocity": 85}, {"time": 2313, "pitch": 77, "duration": 4, "velocity": 85}, {"time": 2319, "pitch": 74, "duration": 2, "velocity": 85}, {"time": 2325, "pitch": 74, "duration": 6, "velocity": 85}, {"time": 2331, "pitch": 72, "duration": 6, "velocity": 85}, {"time": 2337, "pitch": 70, "duration": 12, "velocity": 85}, {"time": 2355, "pitch": 77, "duration": 2, "velocity": 85}, {"time": 2361, "pitch": 77, "duration": 6, "velocity": 85}, {"time": 2367, "pitch": 79, "duration": 5, "velocity": 85}, {"time": 2373, "pitch": 74, "duration": 6, "velocity": 85}, {"time": 2379, "pitch": 72, "duration": 12, "velocity": 85}, {"time": 2391, "pitch": 70, "duration": 13, "velocity": 87}, {"time": 2403, "pitch": 65, "duration": 5, "velocity": 87}, {"time": 2409, "pitch": 77, "duration": 2, "velocity": 87}, {"time": 2415, "pitch": 77, "duration": 3, "velocity": 87}, {"time": 2421, "pitch": 77, "duration": 3, "velocity": 87}, {"time": 2427, "pitch": 77, "duration": 2, "velocity": 87}, {"time": 2433, "pitch": 77, "duration": 9, "velocity": 87}, {"time": 2442, "pitch": 79, "duration": 10, "velocity": 87}, {"time": 2457, "pitch": 70, "duration": 8, "velocity": 87}, {"time": 2466, "pitch": 72, "duration": 32, "velocity": 87}, {"time": 2499, "pitch": 77, "duration": 2, "velocity": 87}, {"time": 2505, "pitch": 77, "duration": 5, "velocity": 87}, {"time": 2511, "pitch": 74, "duration": 2, "velocity": 87}, {"time": 2517, "pitch": 74, "duration": 4, "velocity": 87}, {"time": 2523, "pitch": 72, "duration": 2, "velocity": 87}, {"time": 2529, "pitch": 72, "duration": 3, "velocity": 87}, {"time": 2535, "pitch": 70, "duration": 3, "velocity": 87}, {"time": 2541, "pitch": 72, "duration": 4, "velocity": 87}, {"time": 2547, "pitch": 70, "duration": 2, "velocity": 87}, {"time": 2553, "pitch": 72, "duration": 11, "velocity": 87}, {"time": 2565, "pitch": 74, "duration": 6, "velocity": 87}, {"time": 2571, "pitch": 77, "duration": 13, "velocity": 87}, {"time": 2583, "pitch": 74, "duration": 7, "velocity": 87}, {"time": 2595, "pitch": 77, "duration": 2, "velocity": 87}, {"time": 2601, "pitch": 77, "duration": 4, "velocity": 87}, {"time": 2607, "pitch": 74, "duration": 3, "velocity": 87}, {"time": 2613, "pitch": 74, "duration": 5, "velocity": 87}, {"time": 2619, "pitch": 72, "duration": 3, "velocity": 87}, {"time": 2625, "pitch": 72, "duration": 4, "velocity": 87}, {"time": 2631, "pitch": 70, "duration": 3, "velocity": 87}, {"time": 2637, "pitch": 72, "duration": 6, "velocity": 87}, {"time": 2643, "pitch": 74, "duration": 30, "velocity": 87}, {"time": 2691, "pitch": 77, "duration": 2, "velocity": 87}, {"time": 2697, "pitch": 77, "duration": 4, "velocity": 87}, {"time": 2703, "pitch": 74, "duration": 2, "velocity": 87}, {"time": 2709, "pitch": 74, "duration": 6, "velocity": 87}, {"time": 2715, "pitch": 72, "duration": 6, "velocity": 87}, {"time": 2721, "pitch": 70, "duration": 12, "velocity": 87}, {"time": 2739, "pitch": 77, "duration": 2, "velocity": 87}, {"time": 2745, "pitch": 77, "duration": 6, "velocity": 87}, {"time": 2751, "pitch": 79, "duration": 5, "velocity": 87}, {"time": 2757, "pitch": 74, "duration": 6, "velocity": 87}, {"time": 2763, "pitch": 72, "duration": 12, "velocity": 87}, {"time": 2775, "pitch": 70, "duration": 13, "velocity": 87}, {"time": 2793, "pitch": 77, "duration": 2, "velocity": 87}, {"time": 2799, "pitch": 77, "duration": 3, "velocity": 87}, {"time": 2805, "pitch": 77, "duration": 3, "velocity": 87}, {"time": 2811, "pitch": 77, "duration": 2, "velocity": 87}, {"time": 2817, "pitch": 77, "duration": 9, "velocity": 87}, {"time": 2826, "pitch": 79, "duration": 10, "velocity": 87}, {"time": 2841, "pitch": 70, "duration": 8, "velocity": 87}, {"time": 2850, "pitch": 72, "duration": 19, "velocity": 87}, {"time": 2868, "pitch": 74, "duration": 18, "velocity": 87}, {"time": 2886, "pitch": 72, "duration": 8, "velocity": 87}, {"time": 2898, "pitch": 72, "duration": 23, "velocity": 87}, {"time": 2919, "pitch": 70, "duration": 37, "velocity": 87}, {"time": 3435, "pitch": 69, "duration": 5, "velocity": 87}, {"time": 3441, "pitch": 69, "duration": 7, "velocity": 87}, {"time": 3447, "pitch": 70, "duration": 16, "velocity": 87}, {"time": 3465, "pitch": 69, "duration": 9, "velocity": 87}, {"time": 3477, "pitch": 69, "duration": 6, "velocity": 87}, {"time": 3483, "pitch": 70, "duration": 5, "velocity": 87}, {"time": 3489, "pitch": 69, "duration": 13, "velocity": 87}, {"time": 3501, "pitch": 65, "duration": 7, "velocity": 87}, {"time": 3513, "pitch": 67, "duration": 19, "velocity": 87}, {"time": 3528, "pitch": 62, "duration": 17, "velocity": 87}, {"time": 3549, "pitch": 60, "duration": 6, "velocity": 87}, {"time": 3555, "pitch": 62, "duration": 23, "velocity": 87}, {"time": 3627, "pitch": 69, "duration": 4, "velocity": 87}, {"time": 3633, "pitch": 69, "duration": 6, "velocity": 87}, {"time": 3639, "pitch": 70, "duration": 16, "velocity": 87}, {"time": 3657, "pitch": 69, "duration": 9, "velocity": 87}, {"time": 3669, "pitch": 69, "duration": 6, "velocity": 90}, {"time": 3675, "pitch": 70, "duration": 5, "velocity": 90}, {"time": 3681, "pitch": 69, "duration": 12, "velocity": 90}, {"time": 3693, "pitch": 65, "duration": 7, "velocity": 90}, {"time": 3699, "pitch": 67, "duration": 19, "velocity": 90}, {"time": 3717, "pitch": 70, "duration": 36, "velocity": 90}, {"time": 3795, "pitch": 74, "duration": 3, "velocity": 90}, {"time": 3801, "pitch": 74, "duration": 6, "velocity": 90}, {"time": 3807, "pitch": 72, "duration": 4, "velocity": 90}, {"time": 3813, "pitch": 72, "duration": 5, "velocity": 90}, {"time": 3819, "pitch": 70, "duration": 4, "velocity": 90}, {"time": 3825, "pitch": 72, "duration": 13, "velocity": 90}, {"time": 3837, "pitch": 70, "duration": 3, "velocity": 90}, {"time": 3843, "pitch": 70, "duration": 12, "velocity": 90}, {"time": 3855, "pitch": 67, "duration": 32, "velocity": 90}, {"time": 3891, "pitch": 74, "duration": 2, "velocity": 90}, {"time": 3897, "pitch": 74, "duration": 3, "velocity": 90}, {"time": 3903, "pitch": 72, "duration": 3, "velocity": 90}, {"time": 3909, "pitch": 72, "duration": 3, "velocity": 90}, {"time": 3915, "pitch": 70, "duration": 2, "velocity": 90}, {"time": 3921, "pitch": 72, "duration": 11, "velocity": 90}, {"time": 3933, "pitch": 70, "duration": 2, "velocity": 90}, {"time": 3939, "pitch": 70, "duration": 11, "velocity": 90}, {"time": 3951, "pitch": 65, "duration": 33, "velocity": 90}, {"time": 3987, "pitch": 74, "duration": 2, "velocity": 90}, {"time": 3993, "pitch": 74, "duration": 4, "velocity": 90}, {"time": 3999, "pitch": 72, "duration": 2, "velocity": 90}, {"time": 4005, "pitch": 72, "duration": 4, "velocity": 90}, {"time": 4011, "pitch": 70, "duration": 7, "velocity": 90}, {"time": 4017, "pitch": 67, "duration": 15, "velocity": 90}, {"time": 4035, "pitch": 74, "duration": 5, "velocity": 90}, {"time": 4041, "pitch": 74, "duration": 5, "velocity": 90}, {"time": 4047, "pitch": 72, "duration": 2, "velocity": 90}, {"time": 4050, "pitch": 72, "duration": 7, "velocity": 90}, {"time": 4059, "pitch": 70, "duration": 6, "velocity": 90}, {"time": 4065, "pitch": 67, "duration": 12, "velocity": 90}, {"time": 4077, "pitch": 70, "duration": 11, "velocity": 90}, {"time": 4089, "pitch": 77, "duration": 34, "velocity": 90}, {"time": 4179, "pitch": 77, "duration": 2, "velocity": 90}, {"time": 4185, "pitch": 77, "duration": 5, "velocity": 90}, {"time": 4191, "pitch": 74, "duration": 2, "velocity": 90}, {"time": 4197, "pitch": 74, "duration": 4, "velocity": 90}, {"time": 4203, "pitch": 72, "duration": 2, "velocity": 90}, {"time": 4209, "pitch": 72, "duration": 3, "velocity": 90}, {"time": 4215, "pitch": 70, "duration": 3, "velocity": 90}, {"time": 4221, "pitch": 72, "duration": 4, "velocity": 90}, {"time": 4227, "pitch": 70, "duration": 2, "velocity": 90}, {"time": 4233, "pitch": 72, "duration": 11, "velocity": 90}, {"time": 4245, "pitch": 74, "duration": 6, "velocity": 90}, {"time": 4251, "pitch": 77, "duration": 13, "velocity": 90}, {"time": 4263, "pitch": 74, "duration": 7, "velocity": 90}, {"time": 4275, "pitch": 77, "duration": 2, "velocity": 90}, {"time": 4281, "pitch": 77, "duration": 4, "velocity": 90}, {"time": 4287, "pitch": 74, "duration": 3, "velocity": 90}, {"time": 4293, "pitch": 74, "duration": 5, "velocity": 90}, {"time": 4299, "pitch": 72, "duration": 3, "velocity": 90}, {"time": 4305, "pitch": 72, "duration": 4, "velocity": 90}, {"time": 4311, "pitch": 70, "duration": 3, "velocity": 90}, {"time": 4317, "pitch": 72, "duration": 6, "velocity": 90}, {"time": 4323, "pitch": 74, "duration": 30, "velocity": 90}, {"time": 4371, "pitch": 77, "duration": 2, "velocity": 90}, {"time": 4377, "pitch": 77, "duration": 4, "velocity": 90}, {"time": 4383, "pitch": 74, "duration": 2, "velocity": 90}, {"time": 4389, "pitch": 74, "duration": 6, "velocity": 90}, {"time": 4395, "pitch": 72, "duration": 10, "velocity": 90}, {"time": 4404, "pitch": 70, "duration": 12, "velocity": 90}, {"time": 4419, "pitch": 77, "duration": 2, "velocity": 90}, {"time": 4425, "pitch": 77, "duration": 6, "velocity": 90}, {"time": 4431, "pitch": 79, "duration": 5, "velocity": 90}, {"time": 4437, "pitch": 74, "duration": 6, "velocity": 90}, {"time": 4443, "pitch": 72, "duration": 12, "velocity": 90}, {"time": 4455, "pitch": 70, "duration": 12, "velocity": 90}, {"time": 4467, "pitch": 65, "duration": 6, "velocity": 90}, {"time": 4473, "pitch": 77, "duration": 2, "velocity": 90}, {"time": 4479, "pitch": 77, "duration": 3, "velocity": 90}, {"time": 4485, "pitch": 77, "duration": 3, "velocity": 90}, {"time": 4491, "pitch": 77, "duration": 2, "velocity": 90}, {"time": 4497, "pitch": 77, "duration": 9, "velocity": 90}, {"time": 4506, "pitch": 79, "duration": 10, "velocity": 90}, {"time": 4521, "pitch": 70, "duration": 8, "velocity": 90}, {"time": 4530, "pitch": 72, "duration": 15, "velocity": 90}, {"time": 4563, "pitch": 77, "duration": 2, "velocity": 90}, {"time": 4569, "pitch": 77, "duration": 5, "velocity": 90}, {"time": 4575, "pitch": 74, "duration": 2, "velocity": 90}, {"time": 4581, "pitch": 74, "duration": 4, "velocity": 90}, {"time": 4587, "pitch": 72, "duration": 2, "velocity": 90}, {"time": 4593, "pitch": 72, "duration": 3, "velocity": 90}, {"time": 4599, "pitch": 70, "duration": 3, "velocity": 90}, {"time": 4605, "pitch": 72, "duration": 4, "velocity": 90}, {"time": 4611, "pitch": 70, "duration": 2, "velocity": 90}, {"time": 4617, "pitch": 72, "duration": 11, "velocity": 90}, {"time": 4629, "pitch": 74, "duration": 6, "velocity": 90}, {"time": 4635, "pitch": 77, "duration": 13, "velocity": 90}, {"time": 4647, "pitch": 74, "duration": 7, "velocity": 90}, {"time": 4659, "pitch": 77, "duration": 2, "velocity": 90}, {"time": 4665, "pitch": 77, "duration": 4, "velocity": 90}, {"time": 4671, "pitch": 74, "duration": 3, "velocity": 90}, {"time": 4677, "pitch": 74, "duration": 5, "velocity": 90}, {"time": 4683, "pitch": 72, "duration": 3, "velocity": 90}, {"time": 4689, "pitch": 72, "duration": 4, "velocity": 90}, {"time": 4695, "pitch": 70, "duration": 3, "velocity": 90}, {"time": 4701, "pitch": 72, "duration": 6, "velocity": 90}, {"time": 4707, "pitch": 74, "duration": 30, "velocity": 90}, {"time": 4755, "pitch": 77, "duration": 2, "velocity": 90}, {"time": 4761, "pitch": 77, "duration": 4, "velocity": 90}, {"time": 4767, "pitch": 74, "duration": 2, "velocity": 90}, {"time": 4773, "pitch": 74, "duration": 6, "velocity": 90}, {"time": 4779, "pitch": 72, "duration": 10, "velocity": 90}, {"time": 4788, "pitch": 70, "duration": 12, "velocity": 90}, {"time": 4803, "pitch": 77, "duration": 2, "velocity": 90}, {"time": 4809, "pitch": 77, "duration": 6, "velocity": 90}, {"time": 4815, "pitch": 79, "duration": 5, "velocity": 90}, {"time": 4821, "pitch": 74, "duration": 6, "velocity": 90}, {"time": 4827, "pitch": 72, "duration": 12, "velocity": 90}, {"time": 4839, "pitch": 70, "duration": 13, "velocity": 90}, {"time": 4857, "pitch": 77, "duration": 2, "velocity": 90}, {"time": 4863, "pitch": 77, "duration": 3, "velocity": 90}, {"time": 4869, "pitch": 77, "duration": 3, "velocity": 90}, {"time": 4875, "pitch": 77, "duration": 2, "velocity": 90}, {"time": 4881, "pitch": 77, "duration": 9, "velocity": 90}, {"time": 4890, "pitch": 79, "duration": 10, "velocity": 90}, {"time": 4905, "pitch": 70, "duration": 8, "velocity": 90}, {"time": 4914, "pitch": 72, "duration": 19, "velocity": 90}, {"time": 4932, "pitch": 74, "duration": 18, "velocity": 90}, {"time": 4950, "pitch": 72, "duration": 8, "velocity": 90}, {"time": 4962, "pitch": 72, "duration": 23, "velocity": 90}, {"time": 4983, "pitch": 70, "duration": 37, "velocity": 90}, {"time": 5061, "pitch": 69, "duration": 5, "velocity": 90}, {"time": 5073, "pitch": 69, "duration": 5, "velocity": 90}, {"time": 5082, "pitch": 69, "duration": 10, "velocity": 90}, {"time": 5091, "pitch": 74, "duration": 6, "velocity": 90}, {"time": 5103, "pitch": 74, "duration": 8, "velocity": 90}, {"time": 5115, "pitch": 74, "duration": 6, "velocity": 90}, {"time": 5121, "pitch": 75, "duration": 12, "velocity": 90}, {"time": 5133, "pitch": 72, "duration": 14, "velocity": 90}, {"time": 5157, "pitch": 72, "duration": 6, "velocity": 90}, {"time": 5163, "pitch": 70, "duration": 6, "velocity": 90}, {"time": 5169, "pitch": 72, "duration": 8, "velocity": 90}, {"time": 5178, "pitch": 74, "duration": 15, "velocity": 90}, {"time": 5199, "pitch": 67, "duration": 6, "velocity": 90}, {"time": 5205, "pitch": 70, "duration": 24, "velocity": 90}, {"time": 5253, "pitch": 69, "duration": 3, "velocity": 90}, {"time": 5259, "pitch": 69, "duration": 3, "velocity": 90}, {"time": 5265, "pitch": 69, "duration": 4, "velocity": 90}, {"time": 5274, "pitch": 69, "duration": 4, "velocity": 90}, {"time": 5283, "pitch": 69, "duration": 4, "velocity": 90}, {"time": 5289, "pitch": 74, "duration": 6, "velocity": 90}, {"time": 5301, "pitch": 74, "duration": 7, "velocity": 90}, {"time": 5307, "pitch": 75, "duration": 5, "velocity": 90}, {"time": 5313, "pitch": 74, "duration": 11, "velocity": 90}, {"time": 5325, "pitch": 72, "duration": 11, "velocity": 90}, {"time": 5337, "pitch": 70, "duration": 25, "velocity": 90}, {"time": 5379, "pitch": 67, "duration": 5, "velocity": 90}, {"time": 5385, "pitch": 70, "duration": 8, "velocity": 90}, {"time": 5397, "pitch": 67, "duration": 4, "velocity": 90}, {"time": 5403, "pitch": 70, "duration": 7, "velocity": 90}, {"time": 5415, "pitch": 79, "duration": 18, "velocity": 90}, {"time": 5439, "pitch": 77, "duration": 83, "velocity": 90}, {"time": 5619, "pitch": 78, "duration": 2, "velocity": 90}, {"time": 5625, "pitch": 78, "duration": 5, "velocity": 90}, {"time": 5631, "pitch": 75, "duration": 2, "velocity": 90}, {"time": 5637, "pitch": 75, "duration": 3, "velocity": 90}, {"time": 5643, "pitch": 73, "duration": 2, "velocity": 90}, {"time": 5649, "pitch": 73, "duration": 4, "velocity": 90}, {"time": 5655, "pitch": 71, "duration": 5, "velocity": 90}, {"time": 5661, "pitch": 73, "duration": 4, "velocity": 90}, {"time": 5667, "pitch": 71, "duration": 5, "velocity": 90}, {"time": 5673, "pitch": 73, "duration": 6, "velocity": 90}, {"time": 5679, "pitch": 75, "duration": 13, "velocity": 90}, {"time": 5691, "pitch": 78, "duration": 12, "velocity": 90}, {"time": 5703, "pitch": 75, "duration": 8, "velocity": 90}, {"time": 5715, "pitch": 78, "duration": 2, "velocity": 90}, {"time": 5721, "pitch": 78, "duration": 3, "velocity": 90}, {"time": 5727, "pitch": 75, "duration": 2, "velocity": 90}, {"time": 5733, "pitch": 75, "duration": 3, "velocity": 90}, {"time": 5739, "pitch": 73, "duration": 2, "velocity": 90}, {"time": 5745, "pitch": 73, "duration": 4, "velocity": 90}, {"time": 5751, "pitch": 71, "duration": 5, "velocity": 90}, {"time": 5757, "pitch": 73, "duration": 5, "velocity": 90}, {"time": 5763, "pitch": 75, "duration": 32, "velocity": 90}, {"time": 5811, "pitch": 78, "duration": 3, "velocity": 90}, {"time": 5817, "pitch": 78, "duration": 3, "velocity": 90}, {"time": 5823, "pitch": 75, "duration": 4, "velocity": 90}, {"time": 5829, "pitch": 75, "duration": 3, "velocity": 90}, {"time": 5835, "pitch": 73, "duration": 12, "velocity": 90}, {"time": 5850, "pitch": 71, "duration": 6, "velocity": 90}, {"time": 5859, "pitch": 78, "duration": 3, "velocity": 90}, {"time": 5865, "pitch": 78, "duration": 4, "velocity": 90}, {"time": 5871, "pitch": 80, "duration": 5, "velocity": 90}, {"time": 5877, "pitch": 75, "duration": 5, "velocity": 90}, {"time": 5883, "pitch": 73, "duration": 9, "velocity": 90}, {"time": 5895, "pitch": 71, "duration": 6, "velocity": 90}, {"time": 5907, "pitch": 66, "duration": 5, "velocity": 90}, {"time": 5913, "pitch": 78, "duration": 3, "velocity": 90}, {"time": 5919, "pitch": 78, "duration": 2, "velocity": 90}, {"time": 5925, "pitch": 78, "duration": 2, "velocity": 90}, {"time": 5931, "pitch": 78, "duration": 2, "velocity": 90}, {"time": 5937, "pitch": 78, "duration": 6, "velocity": 90}, {"time": 5943, "pitch": 80, "duration": 18, "velocity": 90}, {"time": 5961, "pitch": 71, "duration": 7, "velocity": 90}, {"time": 5967, "pitch": 73, "duration": 30, "velocity": 90}, {"time": 6003, "pitch": 78, "duration": 2, "velocity": 90}, {"time": 6009, "pitch": 78, "duration": 5, "velocity": 90}, {"time": 6015, "pitch": 75, "duration": 2, "velocity": 90}, {"time": 6021, "pitch": 75, "duration": 3, "velocity": 90}, {"time": 6027, "pitch": 73, "duration": 2, "velocity": 90}, {"time": 6033, "pitch": 73, "duration": 4, "velocity": 90}, {"time": 6039, "pitch": 71, "duration": 5, "velocity": 90}, {"time": 6045, "pitch": 73, "duration": 4, "velocity": 90}, {"time": 6051, "pitch": 71, "duration": 5, "velocity": 90}, {"time": 6057, "pitch": 73, "duration": 6, "velocity": 90}, {"time": 6063, "pitch": 75, "duration": 13, "velocity": 90}, {"time": 6075, "pitch": 78, "duration": 12, "velocity": 90}, {"time": 6087, "pitch": 75, "duration": 8, "velocity": 90}, {"time": 6099, "pitch": 78, "duration": 2, "velocity": 90}, {"time": 6105, "pitch": 78, "duration": 3, "velocity": 90}, {"time": 6111, "pitch": 75, "duration": 2, "velocity": 90}, {"time": 6117, "pitch": 75, "duration": 3, "velocity": 90}, {"time": 6123, "pitch": 73, "duration": 2, "velocity": 90}, {"time": 6129, "pitch": 73, "duration": 4, "velocity": 90}, {"time": 6135, "pitch": 71, "duration": 5, "velocity": 90}, {"time": 6141, "pitch": 73, "duration": 5, "velocity": 90}, {"time": 6147, "pitch": 75, "duration": 32, "velocity": 90}, {"time": 6195, "pitch": 78, "duration": 3, "velocity": 90}, {"time": 6201, "pitch": 78, "duration": 3, "velocity": 90}, {"time": 6207, "pitch": 75, "duration": 4, "velocity": 90}, {"time": 6213, "pitch": 75, "duration": 3, "velocity": 90}, {"time": 6219, "pitch": 73, "duration": 12, "velocity": 90}, {"time": 6234, "pitch": 71, "duration": 6, "velocity": 90}, {"time": 6243, "pitch": 78, "duration": 3, "velocity": 90}, {"time": 6249, "pitch": 78, "duration": 4, "velocity": 90}, {"time": 6255, "pitch": 80, "duration": 5, "velocity": 90}, {"time": 6261, "pitch": 75, "duration": 5, "velocity": 90}, {"time": 6267, "pitch": 73, "duration": 9, "velocity": 90}, {"time": 6279, "pitch": 71, "duration": 6, "velocity": 90}, {"time": 6297, "pitch": 78, "duration": 3, "velocity": 90}, {"time": 6303, "pitch": 78, "duration": 2, "velocity": 90}, {"time": 6309, "pitch": 78, "duration": 2, "velocity": 90}, {"time": 6315, "pitch": 78, "duration": 2, "velocity": 90}, {"time": 6321, "pitch": 78, "duration": 6, "velocity": 90}, {"time": 6327, "pitch": 80, "duration": 18, "velocity": 90}, {"time": 6345, "pitch": 71, "duration": 7, "velocity": 90}, {"time": 6351, "pitch": 73, "duration": 30, "velocity": 90}, {"time": 6374, "pitch": 75, "duration": 16, "velocity": 90}, {"time": 6390, "pitch": 73, "duration": 11, "velocity": 90}, {"time": 6403, "pitch": 73, "duration": 13, "velocity": 90}, {"time": 6416, "pitch": 71, "duration": 63, "velocity": 90}]}, {"program": 0, "is_drum": false, "name": "PIANO", "notes": [{"time": 153, "pitch": 43, "duration": 25, "velocity": 80}, {"time": 158, "pitch": 55, "duration": 15, "velocity": 53}, {"time": 164, "pitch": 58, "duration": 5, "velocity": 76}, {"time": 170, "pitch": 58, "duration": 7, "velocity": 57}, {"time": 171, "pitch": 60, "duration": 9, "velocity": 83}, {"time": 171, "pitch": 63, "duration": 9, "velocity": 83}, {"time": 182, "pitch": 62, "duration": 20, "velocity": 83}, {"time": 182, "pitch": 58, "duration": 20, "velocity": 83}, {"time": 201, "pitch": 39, "duration": 33, "velocity": 80}, {"time": 206, "pitch": 51, "duration": 30, "velocity": 65}, {"time": 212, "pitch": 55, "duration": 24, "velocity": 68}, {"time": 218, "pitch": 58, "duration": 17, "velocity": 83}, {"time": 218, "pitch": 63, "duration": 18, "velocity": 83}, {"time": 248, "pitch": 41, "duration": 29, "velocity": 83}, {"time": 254, "pitch": 53, "duration": 27, "velocity": 76}, {"time": 260, "pitch": 60, "duration": 18, "velocity": 83}, {"time": 260, "pitch": 63, "duration": 19, "velocity": 83}, {"time": 284, "pitch": 62, "duration": 43, "velocity": 83}, {"time": 284, "pitch": 58, "duration": 43, "velocity": 76}, {"time": 284, "pitch": 55, "duration": 43, "velocity": 83}, {"time": 345, "pitch": 43, "duration": 38, "velocity": 83}, {"time": 351, "pitch": 55, "duration": 17, "velocity": 83}, {"time": 357, "pitch": 62, "duration": 7, "velocity": 83}, {"time": 363, "pitch": 67, "duration": 16, "velocity": 83}, {"time": 375, "pitch": 55, "duration": 8, "velocity": 83}, {"time": 381, "pitch": 70, "duration": 7, "velocity": 83}, {"time": 393, "pitch": 44, "duration": 42, "velocity": 83}, {"time": 393, "pitch": 56, "duration": 10, "velocity": 83}, {"time": 393, "pitch": 60, "duration": 11, "velocity": 83}, {"time": 393, "pitch": 65, "duration": 12, "velocity": 83}, {"time": 393, "pitch": 68, "duration": 12, "velocity": 83}, {"time": 405, "pitch": 56, "duration": 9, "velocity": 83}, {"time": 411, "pitch": 60, "duration": 9, "velocity": 83}, {"time": 411, "pitch": 65, "duration": 9, "velocity": 83}, {"time": 411, "pitch": 68, "duration": 9, "velocity": 83}, {"time": 417, "pitch": 56, "duration": 19, "velocity": 83}, {"time": 423, "pitch": 60, "duration": 13, "velocity": 83}, {"time": 423, "pitch": 65, "duration": 13, "velocity": 83}, {"time": 423, "pitch": 68, "duration": 13, "velocity": 83}, {"time": 441, "pitch": 46, "duration": 15, "velocity": 83}, {"time": 441, "pitch": 58, "duration": 15, "velocity": 83}, {"time": 441, "pitch": 62, "duration": 15, "velocity": 83}, {"time": 441, "pitch": 65, "duration": 15, "velocity": 83}, {"time": 441, "pitch": 68, "duration": 15, "velocity": 83}, {"time": 465, "pitch": 46, "duration": 4, "velocity": 83}, {"time": 465, "pitch": 58, "duration": 4, "velocity": 83}, {"time": 465, "pitch": 60, "duration": 4, "velocity": 83}, {"time": 465, "pitch": 65, "duration": 4, "velocity": 83}, {"time": 465, "pitch": 68, "duration": 4, "velocity": 83}, {"time": 477, "pitch": 41, "duration": 51, "velocity": 83}, {"time": 477, "pitch": 53, "duration": 51, "velocity": 83}, {"time": 477, "pitch": 60, "duration": 51, "velocity": 83}, {"time": 477, "pitch": 65, "duration": 51, "velocity": 83}, {"time": 477, "pitch": 69, "duration": 51, "velocity": 83}, {"time": 591, "pitch": 46, "duration": 84, "velocity": 83}, {"time": 597, "pitch": 53, "duration": 78, "velocity": 53}, {"time": 602, "pitch": 58, "duration": 7, "velocity": 72}, {"time": 608, "pitch": 60, "duration": 44, "velocity": 83}, {"time": 670, "pitch": 58, "duration": 6, "velocity": 83}, {"time": 676, "pitch": 60, "duration": 7, "velocity": 83}, {"time": 681, "pitch": 43, "duration": 111, "velocity": 83}, {"time": 687, "pitch": 50, "duration": 105, "velocity": 76}, {"time": 693, "pitch": 55, "duration": 19, "velocity": 83}, {"time": 700, "pitch": 58, "duration": 12, "velocity": 83}, {"time": 711, "pitch": 60, "duration": 18, "velocity": 76}, {"time": 729, "pitch": 65, "duration": 7, "velocity": 83}, {"time": 735, "pitch": 58, "duration": 5, "velocity": 76}, {"time": 741, "pitch": 60, "duration": 7, "velocity": 83}, {"time": 747, "pitch": 62, "duration": 3, "velocity": 80}, {"time": 752, "pitch": 53, "duration": 7, "velocity": 83}, {"time": 758, "pitch": 55, "duration": 12, "velocity": 83}, {"time": 764, "pitch": 57, "duration": 6, "velocity": 83}, {"time": 770, "pitch": 58, "duration": 5, "velocity": 80}, {"time": 776, "pitch": 62, "duration": 26, "velocity": 80}, {"time": 776, "pitch": 46, "duration": 81, "velocity": 83}, {"time": 782, "pitch": 58, "duration": 54, "velocity": 83}, {"time": 788, "pitch": 62, "duration": 14, "velocity": 83}, {"time": 794, "pitch": 65, "duration": 46, "velocity": 83}, {"time": 806, "pitch": 70, "duration": 34, "velocity": 68}, {"time": 837, "pitch": 58, "duration": 18, "velocity": 57}, {"time": 843, "pitch": 62, "duration": 11, "velocity": 83}, {"time": 849, "pitch": 65, "duration": 13, "velocity": 83}, {"time": 855, "pitch": 70, "duration": 7, "velocity": 53}, {"time": 862, "pitch": 62, "duration": 5, "velocity": 55}, {"time": 868, "pitch": 65, "duration": 4, "velocity": 68}, {"time": 874, "pitch": 43, "duration": 73, "velocity": 68}, {"time": 880, "pitch": 55, "duration": 19, "velocity": 57}, {"time": 886, "pitch": 58, "duration": 4, "velocity": 80}, {"time": 892, "pitch": 62, "duration": 18, "velocity": 57}, {"time": 903, "pitch": 55, "duration": 43, "velocity": 76}, {"time": 909, "pitch": 67, "duration": 35, "velocity": 83}, {"time": 921, "pitch": 43, "duration": 26, "velocity": 80}, {"time": 927, "pitch": 55, "duration": 19, "velocity": 76}, {"time": 933, "pitch": 58, "duration": 36, "velocity": 65}, {"time": 952, "pitch": 62, "duration": 17, "velocity": 72}, {"time": 969, "pitch": 43, "duration": 14, "velocity": 83}, {"time": 969, "pitch": 62, "duration": 14, "velocity": 68}, {"time": 969, "pitch": 65, "duration": 16, "velocity": 83}, {"time": 969, "pitch": 69, "duration": 16, "velocity": 55}, {"time": 986, "pitch": 41, "duration": 17, "velocity": 83}, {"time": 987, "pitch": 65, "duration": 17, "velocity": 83}, {"time": 987, "pitch": 67, "duration": 16, "velocity": 68}, {"time": 987, "pitch": 60, "duration": 12, "velocity": 83}, {"time": 1005, "pitch": 38, "duration": 15, "velocity": 83}, {"time": 1005, "pitch": 65, "duration": 12, "velocity": 32}, {"time": 1005, "pitch": 62, "duration": 14, "velocity": 65}, {"time": 1005, "pitch": 69, "duration": 15, "velocity": 61}, {"time": 1022, "pitch": 67, "duration": 17, "velocity": 61}, {"time": 1022, "pitch": 36, "duration": 18, "velocity": 83}, {"time": 1022, "pitch": 64, "duration": 17, "velocity": 83}, {"time": 1023, "pitch": 60, "duration": 14, "velocity": 72}, {"time": 1041, "pitch": 38, "duration": 26, "velocity": 83}, {"time": 1041, "pitch": 62, "duration": 21, "velocity": 83}, {"time": 1041, "pitch": 65, "duration": 21, "velocity": 83}, {"time": 1041, "pitch": 69, "duration": 21, "velocity": 76}, {"time": 1063, "pitch": 36, "duration": 18, "velocity": 83}, {"time": 1063, "pitch": 64, "duration": 16, "velocity": 83}, {"time": 1063, "pitch": 60, "duration": 15, "velocity": 83}, {"time": 1064, "pitch": 67, "duration": 15, "velocity": 76}, {"time": 1081, "pitch": 38, "duration": 28, "velocity": 83}, {"time": 1081, "pitch": 65, "duration": 20, "velocity": 83}, {"time": 1081, "pitch": 62, "duration": 21, "velocity": 83}, {"time": 1081, "pitch": 69, "duration": 21, "velocity": 76}, {"time": 1109, "pitch": 70, "duration": 5, "velocity": 61}, {"time": 1114, "pitch": 67, "duration": 7, "velocity": 83}, {"time": 1120, "pitch": 65, "duration": 4, "velocity": 80}, {"time": 1125, "pitch": 77, "duration": 34, "velocity": 83}, {"time": 1161, "pitch": 36, "duration": 6, "velocity": 83}, {"time": 1166, "pitch": 48, "duration": 8, "velocity": 80}, {"time": 1172, "pitch": 51, "duration": 6, "velocity": 83}, {"time": 1180, "pitch": 62, "duration": 6, "velocity": 83}, {"time": 1180, "pitch": 58, "duration": 5, "velocity": 65}, {"time": 1191, "pitch": 60, "duration": 11, "velocity": 83}, {"time": 1191, "pitch": 57, "duration": 9, "velocity": 83}, {"time": 1203, "pitch": 58, "duration": 6, "velocity": 49}, {"time": 1203, "pitch": 55, "duration": 6, "velocity": 83}, {"time": 1209, "pitch": 36, "duration": 10, "velocity": 83}, {"time": 1214, "pitch": 43, "duration": 8, "velocity": 49}, {"time": 1221, "pitch": 48, "duration": 7, "velocity": 83}, {"time": 1227, "pitch": 50, "duration": 7, "velocity": 83}, {"time": 1232, "pitch": 51, "duration": 7, "velocity": 83}, {"time": 1239, "pitch": 55, "duration": 4, "velocity": 83}, {"time": 1244, "pitch": 58, "duration": 11, "velocity": 83}, {"time": 1257, "pitch": 41, "duration": 34, "velocity": 83}, {"time": 1257, "pitch": 57, "duration": 34, "velocity": 83}, {"time": 1257, "pitch": 60, "duration": 34, "velocity": 83}, {"time": 1257, "pitch": 53, "duration": 34, "velocity": 83}, {"time": 1353, "pitch": 43, "duration": 81, "velocity": 83}, {"time": 1365, "pitch": 55, "duration": 17, "velocity": 57}, {"time": 1377, "pitch": 58, "duration": 16, "velocity": 83}, {"time": 1377, "pitch": 62, "duration": 16, "velocity": 76}, {"time": 1377, "pitch": 67, "duration": 16, "velocity": 83}, {"time": 1389, "pitch": 55, "duration": 9, "velocity": 45}, {"time": 1395, "pitch": 58, "duration": 26, "velocity": 83}, {"time": 1395, "pitch": 62, "duration": 25, "velocity": 83}, {"time": 1395, "pitch": 67, "duration": 25, "velocity": 83}, {"time": 1413, "pitch": 55, "duration": 12, "velocity": 65}, {"time": 1425, "pitch": 62, "duration": 10, "velocity": 83}, {"time": 1425, "pitch": 67, "duration": 11, "velocity": 83}, {"time": 1431, "pitch": 55, "duration": 5, "velocity": 83}, {"time": 1437, "pitch": 58, "duration": 6, "velocity": 83}, {"time": 1443, "pitch": 62, "duration": 5, "velocity": 53}, {"time": 1449, "pitch": 38, "duration": 75, "velocity": 76}, {"time": 1455, "pitch": 50, "duration": 16, "velocity": 72}, {"time": 1461, "pitch": 53, "duration": 2, "velocity": 45}, {"time": 1467, "pitch": 53, "duration": 24, "velocity": 83}, {"time": 1467, "pitch": 57, "duration": 24, "velocity": 83}, {"time": 1467, "pitch": 62, "duration": 24, "velocity": 83}, {"time": 1479, "pitch": 50, "duration": 25, "velocity": 65}, {"time": 1503, "pitch": 53, "duration": 12, "velocity": 83}, {"time": 1503, "pitch": 57, "duration": 15, "velocity": 83}, {"time": 1503, "pitch": 62, "duration": 15, "velocity": 83}, {"time": 1515, "pitch": 50, "duration": 6, "velocity": 83}, {"time": 1521, "pitch": 53, "duration": 9, "velocity": 72}, {"time": 1521, "pitch": 62, "duration": 2, "velocity": 36}, {"time": 1527, "pitch": 57, "duration": 14, "velocity": 83}, {"time": 1533, "pitch": 62, "duration": 7, "velocity": 51}, {"time": 1539, "pitch": 53, "duration": 4, "velocity": 76}, {"time": 1545, "pitch": 36, "duration": 40, "velocity": 68}, {"time": 1551, "pitch": 48, "duration": 21, "velocity": 83}, {"time": 1557, "pitch": 51, "duration": 23, "velocity": 83}, {"time": 1563, "pitch": 55, "duration": 17, "velocity": 83}, {"time": 1563, "pitch": 60, "duration": 17, "velocity": 83}, {"time": 1581, "pitch": 48, "duration": 11, "velocity": 51}, {"time": 1587, "pitch": 51, "duration": 5, "velocity": 83}, {"time": 1587, "pitch": 55, "duration": 4, "velocity": 76}, {"time": 1587, "pitch": 60, "duration": 5, "velocity": 83}, {"time": 1593, "pitch": 38, "duration": 34, "velocity": 76}, {"time": 1599, "pitch": 50, "duration": 20, "velocity": 83}, {"time": 1605, "pitch": 53, "duration": 9, "velocity": 76}, {"time": 1605, "pitch": 57, "duration": 10, "velocity": 65}, {"time": 1605, "pitch": 62, "duration": 3, "velocity": 47}, {"time": 1611, "pitch": 62, "duration": 4, "velocity": 18}, {"time": 1617, "pitch": 53, "duration": 6, "velocity": 83}, {"time": 1617, "pitch": 57, "duration": 10, "velocity": 83}, {"time": 1617, "pitch": 62, "duration": 18, "velocity": 83}, {"time": 1623, "pitch": 50, "duration": 13, "velocity": 83}, {"time": 1629, "pitch": 53, "duration": 7, "velocity": 72}, {"time": 1635, "pitch": 57, "duration": 5, "velocity": 49}, {"time": 1641, "pitch": 43, "duration": 36, "velocity": 83}, {"time": 1647, "pitch": 55, "duration": 20, "velocity": 57}, {"time": 1653, "pitch": 58, "duration": 4, "velocity": 61}, {"time": 1659, "pitch": 58, "duration": 10, "velocity": 76}, {"time": 1659, "pitch": 62, "duration": 11, "velocity": 83}, {"time": 1659, "pitch": 67, "duration": 11, "velocity": 83}, {"time": 1671, "pitch": 58, "duration": 3, "velocity": 83}, {"time": 1677, "pitch": 55, "duration": 6, "velocity": 83}, {"time": 1683, "pitch": 65, "duration": 6, "velocity": 83}, {"time": 1689, "pitch": 43, "duration": 41, "velocity": 83}, {"time": 1694, "pitch": 55, "duration": 6, "velocity": 83}, {"time": 1701, "pitch": 58, "duration": 6, "velocity": 83}, {"time": 1707, "pitch": 60, "duration": 8, "velocity": 83}, {"time": 1707, "pitch": 65, "duration": 8, "velocity": 83}, {"time": 1718, "pitch": 65, "duration": 11, "velocity": 83}, {"time": 1719, "pitch": 60, "duration": 10, "velocity": 83}, {"time": 1737, "pitch": 50, "duration": 70, "velocity": 83}, {"time": 1743, "pitch": 55, "duration": 25, "velocity": 43}, {"time": 1749, "pitch": 62, "duration": 8, "velocity": 53}, {"time": 1761, "pitch": 62, "duration": 16, "velocity": 76}, {"time": 1761, "pitch": 67, "duration": 16, "velocity": 68}, {"time": 1761, "pitch": 70, "duration": 15, "velocity": 68}, {"time": 1773, "pitch": 55, "duration": 9, "velocity": 65}, {"time": 1779, "pitch": 62, "duration": 16, "velocity": 83}, {"time": 1779, "pitch": 67, "duration": 17, "velocity": 83}, {"time": 1779, "pitch": 70, "duration": 15, "velocity": 83}, {"time": 1791, "pitch": 55, "duration": 14, "velocity": 65}, {"time": 1803, "pitch": 62, "duration": 4, "velocity": 83}, {"time": 1803, "pitch": 67, "duration": 3, "velocity": 72}, {"time": 1803, "pitch": 70, "duration": 1, "velocity": 65}, {"time": 1809, "pitch": 62, "duration": 7, "velocity": 83}, {"time": 1809, "pitch": 67, "duration": 10, "velocity": 83}, {"time": 1809, "pitch": 70, "duration": 7, "velocity": 83}, {"time": 1815, "pitch": 50, "duration": 13, "velocity": 61}, {"time": 1821, "pitch": 62, "duration": 2, "velocity": 83}, {"time": 1821, "pitch": 67, "duration": 2, "velocity": 68}, {"time": 1821, "pitch": 70, "duration": 1, "velocity": 42}, {"time": 1833, "pitch": 53, "duration": 58, "velocity": 83}, {"time": 1839, "pitch": 60, "duration": 4, "velocity": 47}, {"time": 1857, "pitch": 60, "duration": 14, "velocity": 83}, {"time": 1857, "pitch": 65, "duration": 14, "velocity": 83}, {"time": 1857, "pitch": 69, "duration": 13, "velocity": 83}, {"time": 1875, "pitch": 60, "duration": 24, "velocity": 83}, {"time": 1875, "pitch": 65, "duration": 24, "velocity": 83}, {"time": 1875, "pitch": 69, "duration": 23, "velocity": 65}, {"time": 1899, "pitch": 53, "duration": 8, "velocity": 61}, {"time": 1905, "pitch": 60, "duration": 7, "velocity": 83}, {"time": 1905, "pitch": 65, "duration": 13, "velocity": 83}, {"time": 1905, "pitch": 69, "duration": 8, "velocity": 83}, {"time": 1911, "pitch": 53, "duration": 7, "velocity": 45}, {"time": 1917, "pitch": 60, "duration": 8, "velocity": 80}, {"time": 1917, "pitch": 69, "duration": 3, "velocity": 34}, {"time": 1923, "pitch": 65, "duration": 6, "velocity": 83}, {"time": 1929, "pitch": 48, "duration": 44, "velocity": 83}, {"time": 1935, "pitch": 55, "duration": 23, "velocity": 49}, {"time": 1947, "pitch": 60, "duration": 21, "velocity": 83}, {"time": 1947, "pitch": 63, "duration": 20, "velocity": 83}, {"time": 1947, "pitch": 67, "duration": 20, "velocity": 83}, {"time": 1965, "pitch": 55, "duration": 8, "velocity": 51}, {"time": 1971, "pitch": 60, "duration": 11, "velocity": 83}, {"time": 1971, "pitch": 63, "duration": 8, "velocity": 83}, {"time": 1971, "pitch": 67, "duration": 13, "velocity": 83}, {"time": 1977, "pitch": 48, "duration": 39, "velocity": 83}, {"time": 1983, "pitch": 55, "duration": 16, "velocity": 57}, {"time": 1995, "pitch": 60, "duration": 15, "velocity": 83}, {"time": 1995, "pitch": 63, "duration": 15, "velocity": 80}, {"time": 1995, "pitch": 67, "duration": 15, "velocity": 83}, {"time": 2007, "pitch": 55, "duration": 9, "velocity": 83}, {"time": 2013, "pitch": 60, "duration": 10, "velocity": 83}, {"time": 2013, "pitch": 63, "duration": 9, "velocity": 83}, {"time": 2013, "pitch": 67, "duration": 9, "velocity": 83}, {"time": 2025, "pitch": 41, "duration": 44, "velocity": 80}, {"time": 2031, "pitch": 53, "duration": 19, "velocity": 76}, {"time": 2043, "pitch": 60, "duration": 21, "velocity": 83}, {"time": 2043, "pitch": 65, "duration": 21, "velocity": 83}, {"time": 2043, "pitch": 69, "duration": 20, "velocity": 83}, {"time": 2061, "pitch": 53, "duration": 10, "velocity": 68}, {"time": 2067, "pitch": 60, "duration": 2, "velocity": 76}, {"time": 2067, "pitch": 65, "duration": 2, "velocity": 76}, {"time": 2067, "pitch": 69, "duration": 2, "velocity": 76}, {"time": 2073, "pitch": 41, "duration": 39, "velocity": 83}, {"time": 2079, "pitch": 53, "duration": 20, "velocity": 80}, {"time": 2085, "pitch": 60, "duration": 2, "velocity": 61}, {"time": 2085, "pitch": 65, "duration": 2, "velocity": 47}, {"time": 2085, "pitch": 69, "duration": 2, "velocity": 45}, {"time": 2091, "pitch": 60, "duration": 14, "velocity": 83}, {"time": 2091, "pitch": 65, "duration": 14, "velocity": 83}, {"time": 2091, "pitch": 69, "duration": 14, "velocity": 83}, {"time": 2103, "pitch": 53, "duration": 10, "velocity": 65}, {"time": 2109, "pitch": 60, "duration": 4, "velocity": 83}, {"time": 2109, "pitch": 65, "duration": 4, "velocity": 83}, {"time": 2109, "pitch": 69, "duration": 4, "velocity": 76}, {"time": 2121, "pitch": 46, "duration": 12, "velocity": 83}, {"time": 2121, "pitch": 58, "duration": 6, "velocity": 43}, {"time": 2121, "pitch": 62, "duration": 6, "velocity": 45}, {"time": 2121, "pitch": 65, "duration": 6, "velocity": 38}, {"time": 2133, "pitch": 58, "duration": 16, "velocity": 53}, {"time": 2145, "pitch": 62, "duration": 13, "velocity": 76}, {"time": 2145, "pitch": 65, "duration": 12, "velocity": 83}, {"time": 2145, "pitch": 70, "duration": 12, "velocity": 83}, {"time": 2157, "pitch": 58, "duration": 8, "velocity": 47}, {"time": 2163, "pitch": 62, "duration": 3, "velocity": 65}, {"time": 2163, "pitch": 65, "duration": 3, "velocity": 61}, {"time": 2163, "pitch": 70, "duration": 3, "velocity": 57}, {"time": 2169, "pitch": 46, "duration": 37, "velocity": 83}, {"time": 2175, "pitch": 58, "duration": 5, "velocity": 61}, {"time": 2181, "pitch": 58, "duration": 10, "velocity": 47}, {"time": 2187, "pitch": 62, "duration": 14, "velocity": 83}, {"time": 2187, "pitch": 65, "duration": 13, "velocity": 83}, {"time": 2187, "pitch": 70, "duration": 13, "velocity": 83}, {"time": 2199, "pitch": 58, "duration": 5, "velocity": 68}, {"time": 2205, "pitch": 62, "duration": 9, "velocity": 83}, {"time": 2205, "pitch": 65, "duration": 9, "velocity": 83}, {"time": 2205, "pitch": 70, "duration": 4, "velocity": 76}, {"time": 2211, "pitch": 70, "duration": 2, "velocity": 51}, {"time": 2217, "pitch": 43, "duration": 43, "velocity": 83}, {"time": 2223, "pitch": 55, "duration": 21, "velocity": 57}, {"time": 2241, "pitch": 58, "duration": 10, "velocity": 83}, {"time": 2241, "pitch": 62, "duration": 13, "velocity": 83}, {"time": 2241, "pitch": 67, "duration": 12, "velocity": 83}, {"time": 2253, "pitch": 55, "duration": 8, "velocity": 45}, {"time": 2259, "pitch": 58, "duration": 3, "velocity": 83}, {"time": 2259, "pitch": 62, "duration": 3, "velocity": 83}, {"time": 2259, "pitch": 67, "duration": 3, "velocity": 76}, {"time": 2265, "pitch": 43, "duration": 36, "velocity": 83}, {"time": 2271, "pitch": 55, "duration": 5, "velocity": 65}, {"time": 2277, "pitch": 55, "duration": 10, "velocity": 43}, {"time": 2283, "pitch": 58, "duration": 13, "velocity": 83}, {"time": 2283, "pitch": 62, "duration": 13, "velocity": 83}, {"time": 2283, "pitch": 67, "duration": 13, "velocity": 83}, {"time": 2295, "pitch": 55, "duration": 13, "velocity": 83}, {"time": 2301, "pitch": 58, "duration": 7, "velocity": 83}, {"time": 2301, "pitch": 67, "duration": 6, "velocity": 53}, {"time": 2307, "pitch": 62, "duration": 5, "velocity": 76}, {"time": 2313, "pitch": 50, "duration": 44, "velocity": 83}, {"time": 2319, "pitch": 57, "duration": 21, "velocity": 83}, {"time": 2337, "pitch": 62, "duration": 13, "velocity": 83}, {"time": 2337, "pitch": 65, "duration": 13, "velocity": 83}, {"time": 2337, "pitch": 69, "duration": 13, "velocity": 83}, {"time": 2349, "pitch": 57, "duration": 7, "velocity": 53}, {"time": 2355, "pitch": 62, "duration": 3, "velocity": 76}, {"time": 2355, "pitch": 65, "duration": 3, "velocity": 80}, {"time": 2355, "pitch": 69, "duration": 3, "velocity": 72}, {"time": 2361, "pitch": 50, "duration": 41, "velocity": 83}, {"time": 2367, "pitch": 57, "duration": 15, "velocity": 83}, {"time": 2373, "pitch": 62, "duration": 2, "velocity": 36}, {"time": 2379, "pitch": 62, "duration": 14, "velocity": 83}, {"time": 2379, "pitch": 65, "duration": 14, "velocity": 83}, {"time": 2379, "pitch": 69, "duration": 14, "velocity": 83}, {"time": 2391, "pitch": 57, "duration": 11, "velocity": 83}, {"time": 2403, "pitch": 62, "duration": 4, "velocity": 83}, {"time": 2403, "pitch": 65, "duration": 4, "velocity": 83}, {"time": 2403, "pitch": 69, "duration": 4, "velocity": 80}, {"time": 2409, "pitch": 48, "duration": 43, "velocity": 83}, {"time": 2415, "pitch": 55, "duration": 23, "velocity": 49}, {"time": 2421, "pitch": 60, "duration": 2, "velocity": 18}, {"time": 2427, "pitch": 60, "duration": 2, "velocity": 43}, {"time": 2433, "pitch": 60, "duration": 11, "velocity": 83}, {"time": 2433, "pitch": 63, "duration": 12, "velocity": 83}, {"time": 2433, "pitch": 67, "duration": 12, "velocity": 83}, {"time": 2445, "pitch": 55, "duration": 8, "velocity": 53}, {"time": 2451, "pitch": 60, "duration": 4, "velocity": 76}, {"time": 2451, "pitch": 63, "duration": 4, "velocity": 83}, {"time": 2451, "pitch": 67, "duration": 4, "velocity": 61}, {"time": 2457, "pitch": 53, "duration": 41, "velocity": 83}, {"time": 2469, "pitch": 57, "duration": 14, "velocity": 76}, {"time": 2475, "pitch": 60, "duration": 14, "velocity": 83}, {"time": 2475, "pitch": 65, "duration": 14, "velocity": 83}, {"time": 2475, "pitch": 69, "duration": 13, "velocity": 68}, {"time": 2487, "pitch": 57, "duration": 9, "velocity": 76}, {"time": 2493, "pitch": 60, "duration": 7, "velocity": 83}, {"time": 2493, "pitch": 65, "duration": 8, "velocity": 83}, {"time": 2493, "pitch": 69, "duration": 7, "velocity": 83}, {"time": 2505, "pitch": 46, "duration": 42, "velocity": 83}, {"time": 2511, "pitch": 58, "duration": 21, "velocity": 47}, {"time": 2529, "pitch": 62, "duration": 9, "velocity": 83}, {"time": 2529, "pitch": 65, "duration": 10, "velocity": 83}, {"time": 2529, "pitch": 70, "duration": 10, "velocity": 83}, {"time": 2535, "pitch": 58, "duration": 13, "velocity": 57}, {"time": 2541, "pitch": 62, "duration": 9, "velocity": 57}, {"time": 2541, "pitch": 65, "duration": 1, "velocity": 17}, {"time": 2547, "pitch": 65, "duration": 4, "velocity": 57}, {"time": 2547, "pitch": 70, "duration": 3, "velocity": 57}, {"time": 2553, "pitch": 46, "duration": 37, "velocity": 83}, {"time": 2559, "pitch": 58, "duration": 3, "velocity": 65}, {"time": 2565, "pitch": 58, "duration": 9, "velocity": 51}, {"time": 2571, "pitch": 62, "duration": 13, "velocity": 83}, {"time": 2571, "pitch": 65, "duration": 13, "velocity": 83}, {"time": 2571, "pitch": 70, "duration": 13, "velocity": 83}, {"time": 2583, "pitch": 58, "duration": 5, "velocity": 83}, {"time": 2589, "pitch": 62, "duration": 8, "velocity": 83}, {"time": 2589, "pitch": 65, "duration": 6, "velocity": 83}, {"time": 2589, "pitch": 70, "duration": 5, "velocity": 83}, {"time": 2601, "pitch": 43, "duration": 43, "velocity": 72}, {"time": 2601, "pitch": 62, "duration": 20, "velocity": 83}, {"time": 2601, "pitch": 67, "duration": 21, "velocity": 83}, {"time": 2601, "pitch": 70, "duration": 10, "velocity": 83}, {"time": 2613, "pitch": 55, "duration": 16, "velocity": 57}, {"time": 2625, "pitch": 62, "duration": 9, "velocity": 83}, {"time": 2625, "pitch": 67, "duration": 15, "velocity": 83}, {"time": 2625, "pitch": 70, "duration": 10, "velocity": 83}, {"time": 2631, "pitch": 55, "duration": 13, "velocity": 65}, {"time": 2637, "pitch": 62, "duration": 10, "velocity": 72}, {"time": 2643, "pitch": 67, "duration": 9, "velocity": 68}, {"time": 2643, "pitch": 70, "duration": 4, "velocity": 83}, {"time": 2649, "pitch": 43, "duration": 40, "velocity": 83}, {"time": 2655, "pitch": 55, "duration": 5, "velocity": 72}, {"time": 2661, "pitch": 55, "duration": 11, "velocity": 45}, {"time": 2667, "pitch": 62, "duration": 13, "velocity": 83}, {"time": 2667, "pitch": 67, "duration": 14, "velocity": 83}, {"time": 2667, "pitch": 70, "duration": 13, "velocity": 83}, {"time": 2679, "pitch": 55, "duration": 13, "velocity": 83}, {"time": 2685, "pitch": 62, "duration": 10, "velocity": 83}, {"time": 2685, "pitch": 67, "duration": 10, "velocity": 83}, {"time": 2685, "pitch": 70, "duration": 7, "velocity": 80}, {"time": 2697, "pitch": 50, "duration": 44, "velocity": 83}, {"time": 2703, "pitch": 57, "duration": 21, "velocity": 83}, {"time": 2721, "pitch": 62, "duration": 13, "velocity": 83}, {"time": 2721, "pitch": 65, "duration": 14, "velocity": 83}, {"time": 2721, "pitch": 69, "duration": 14, "velocity": 83}, {"time": 2733, "pitch": 57, "duration": 7, "velocity": 51}, {"time": 2739, "pitch": 62, "duration": 3, "velocity": 83}, {"time": 2739, "pitch": 65, "duration": 3, "velocity": 83}, {"time": 2739, "pitch": 69, "duration": 3, "velocity": 65}, {"time": 2745, "pitch": 50, "duration": 40, "velocity": 83}, {"time": 2751, "pitch": 57, "duration": 15, "velocity": 83}, {"time": 2763, "pitch": 62, "duration": 14, "velocity": 83}, {"time": 2763, "pitch": 65, "duration": 14, "velocity": 83}, {"time": 2763, "pitch": 69, "duration": 14, "velocity": 83}, {"time": 2775, "pitch": 57, "duration": 10, "velocity": 83}, {"time": 2787, "pitch": 62, "duration": 6, "velocity": 83}, {"time": 2787, "pitch": 65, "duration": 6, "velocity": 53}, {"time": 2787, "pitch": 69, "duration": 6, "velocity": 51}, {"time": 2793, "pitch": 48, "duration": 45, "velocity": 83}, {"time": 2799, "pitch": 55, "duration": 23, "velocity": 72}, {"time": 2805, "pitch": 60, "duration": 8, "velocity": 65}, {"time": 2817, "pitch": 60, "duration": 15, "velocity": 83}, {"time": 2817, "pitch": 63, "duration": 16, "velocity": 83}, {"time": 2817, "pitch": 67, "duration": 16, "velocity": 83}, {"time": 2829, "pitch": 55, "duration": 8, "velocity": 49}, {"time": 2841, "pitch": 53, "duration": 67, "velocity": 76}, {"time": 2841, "pitch": 60, "duration": 68, "velocity": 83}, {"time": 2841, "pitch": 65, "duration": 68, "velocity": 83}, {"time": 2841, "pitch": 69, "duration": 68, "velocity": 76}, {"time": 2985, "pitch": 43, "duration": 81, "velocity": 83}, {"time": 2990, "pitch": 55, "duration": 24, "velocity": 83}, {"time": 2997, "pitch": 58, "duration": 22, "velocity": 83}, {"time": 3003, "pitch": 67, "duration": 16, "velocity": 83}, {"time": 3003, "pitch": 62, "duration": 16, "velocity": 83}, {"time": 3016, "pitch": 55, "duration": 49, "velocity": 34}, {"time": 3022, "pitch": 67, "duration": 46, "velocity": 76}, {"time": 3022, "pitch": 58, "duration": 45, "velocity": 76}, {"time": 3022, "pitch": 62, "duration": 45, "velocity": 72}, {"time": 3081, "pitch": 41, "duration": 30, "velocity": 83}, {"time": 3086, "pitch": 53, "duration": 25, "velocity": 72}, {"time": 3093, "pitch": 57, "duration": 4, "velocity": 80}, {"time": 3098, "pitch": 57, "duration": 15, "velocity": 49}, {"time": 3099, "pitch": 65, "duration": 12, "velocity": 83}, {"time": 3099, "pitch": 60, "duration": 13, "velocity": 83}, {"time": 3117, "pitch": 43, "duration": 36, "velocity": 83}, {"time": 3117, "pitch": 55, "duration": 36, "velocity": 83}, {"time": 3117, "pitch": 62, "duration": 36, "velocity": 17}, {"time": 3117, "pitch": 58, "duration": 36, "velocity": 80}, {"time": 3159, "pitch": 55, "duration": 7, "velocity": 83}, {"time": 3165, "pitch": 57, "duration": 7, "velocity": 83}, {"time": 3171, "pitch": 58, "duration": 4, "velocity": 83}, {"time": 3177, "pitch": 43, "duration": 24, "velocity": 83}, {"time": 3177, "pitch": 57, "duration": 18, "velocity": 83}, {"time": 3183, "pitch": 50, "duration": 10, "velocity": 83}, {"time": 3195, "pitch": 58, "duration": 6, "velocity": 83}, {"time": 3196, "pitch": 55, "duration": 6, "velocity": 83}, {"time": 3207, "pitch": 50, "duration": 11, "velocity": 83}, {"time": 3207, "pitch": 60, "duration": 12, "velocity": 83}, {"time": 3207, "pitch": 57, "duration": 11, "velocity": 83}, {"time": 3219, "pitch": 60, "duration": 15, "velocity": 83}, {"time": 3219, "pitch": 65, "duration": 14, "velocity": 83}, {"time": 3219, "pitch": 53, "duration": 14, "velocity": 83}, {"time": 3235, "pitch": 62, "duration": 8, "velocity": 83}, {"time": 3235, "pitch": 57, "duration": 7, "velocity": 83}, {"time": 3236, "pitch": 50, "duration": 7, "velocity": 83}, {"time": 3243, "pitch": 55, "duration": 15, "velocity": 83}, {"time": 3244, "pitch": 60, "duration": 14, "velocity": 83}, {"time": 3244, "pitch": 48, "duration": 16, "velocity": 83}, {"time": 3274, "pitch": 41, "duration": 20, "velocity": 83}, {"time": 3274, "pitch": 60, "duration": 20, "velocity": 83}, {"time": 3274, "pitch": 65, "duration": 20, "velocity": 83}, {"time": 3274, "pitch": 69, "duration": 19, "velocity": 83}, {"time": 3274, "pitch": 53, "duration": 20, "velocity": 83}, {"time": 3298, "pitch": 53, "duration": 4, "velocity": 83}, {"time": 3298, "pitch": 41, "duration": 5, "velocity": 83}, {"time": 3298, "pitch": 69, "duration": 5, "velocity": 83}, {"time": 3298, "pitch": 65, "duration": 5, "velocity": 83}, {"time": 3298, "pitch": 60, "duration": 6, "velocity": 83}, {"time": 3310, "pitch": 36, "duration": 69, "velocity": 76}, {"time": 3311, "pitch": 48, "duration": 94, "velocity": 76}, {"time": 3311, "pitch": 69, "duration": 94, "velocity": 83}, {"time": 3311, "pitch": 60, "duration": 94, "velocity": 83}, {"time": 3311, "pitch": 65, "duration": 94, "velocity": 83}, {"time": 3417, "pitch": 58, "duration": 68, "velocity": 83}, {"time": 3417, "pitch": 46, "duration": 83, "velocity": 83}, {"time": 3417, "pitch": 70, "duration": 17, "velocity": 83}, {"time": 3417, "pitch": 62, "duration": 18, "velocity": 83}, {"time": 3417, "pitch": 65, "duration": 17, "velocity": 83}, {"time": 3442, "pitch": 65, "duration": 17, "velocity": 83}, {"time": 3442, "pitch": 70, "duration": 15, "velocity": 83}, {"time": 3442, "pitch": 62, "duration": 18, "velocity": 80}, {"time": 3464, "pitch": 65, "duration": 16, "velocity": 83}, {"time": 3464, "pitch": 62, "duration": 17, "velocity": 83}, {"time": 3464, "pitch": 70, "duration": 16, "velocity": 83}, {"time": 3489, "pitch": 70, "duration": 15, "velocity": 83}, {"time": 3489, "pitch": 65, "duration": 16, "velocity": 83}, {"time": 3490, "pitch": 62, "duration": 15, "velocity": 83}, {"time": 3513, "pitch": 43, "duration": 83, "velocity": 83}, {"time": 3513, "pitch": 55, "duration": 26, "velocity": 76}, {"time": 3537, "pitch": 58, "duration": 17, "velocity": 83}, {"time": 3537, "pitch": 62, "duration": 15, "velocity": 83}, {"time": 3537, "pitch": 67, "duration": 16, "velocity": 83}, {"time": 3552, "pitch": 55, "duration": 21, "velocity": 51}, {"time": 3561, "pitch": 58, "duration": 18, "velocity": 83}, {"time": 3561, "pitch": 62, "duration": 17, "velocity": 83}, {"time": 3561, "pitch": 67, "duration": 18, "velocity": 83}, {"time": 3576, "pitch": 55, "duration": 12, "velocity": 53}, {"time": 3585, "pitch": 58, "duration": 6, "velocity": 83}, {"time": 3585, "pitch": 62, "duration": 7, "velocity": 83}, {"time": 3585, "pitch": 67, "duration": 7, "velocity": 83}, {"time": 3591, "pitch": 55, "duration": 8, "velocity": 83}, {"time": 3597, "pitch": 58, "duration": 5, "velocity": 83}, {"time": 3600, "pitch": 62, "duration": 6, "velocity": 57}, {"time": 3600, "pitch": 67, "duration": 6, "velocity": 76}, {"time": 3609, "pitch": 46, "duration": 89, "velocity": 83}, {"time": 3622, "pitch": 58, "duration": 19, "velocity": 42}, {"time": 3633, "pitch": 65, "duration": 20, "velocity": 83}, {"time": 3633, "pitch": 70, "duration": 20, "velocity": 83}, {"time": 3633, "pitch": 62, "duration": 21, "velocity": 83}, {"time": 3646, "pitch": 58, "duration": 18, "velocity": 42}, {"time": 3658, "pitch": 65, "duration": 17, "velocity": 83}, {"time": 3658, "pitch": 62, "duration": 19, "velocity": 83}, {"time": 3658, "pitch": 70, "duration": 17, "velocity": 83}, {"time": 3670, "pitch": 58, "duration": 13, "velocity": 43}, {"time": 3682, "pitch": 65, "duration": 15, "velocity": 83}, {"time": 3682, "pitch": 70, "duration": 14, "velocity": 83}, {"time": 3682, "pitch": 62, "duration": 14, "velocity": 83}, {"time": 3695, "pitch": 58, "duration": 2, "velocity": 83}, {"time": 3705, "pitch": 43, "duration": 89, "velocity": 83}, {"time": 3717, "pitch": 55, "duration": 21, "velocity": 49}, {"time": 3729, "pitch": 58, "duration": 16, "velocity": 80}, {"time": 3729, "pitch": 62, "duration": 16, "velocity": 72}, {"time": 3729, "pitch": 67, "duration": 16, "velocity": 76}, {"time": 3741, "pitch": 55, "duration": 26, "velocity": 65}, {"time": 3753, "pitch": 58, "duration": 2, "velocity": 72}, {"time": 3753, "pitch": 62, "duration": 2, "velocity": 72}, {"time": 3753, "pitch": 65, "duration": 2, "velocity": 80}, {"time": 3759, "pitch": 58, "duration": 12, "velocity": 83}, {"time": 3759, "pitch": 62, "duration": 12, "velocity": 83}, {"time": 3759, "pitch": 65, "duration": 12, "velocity": 83}, {"time": 3771, "pitch": 55, "duration": 10, "velocity": 61}, {"time": 3777, "pitch": 58, "duration": 6, "velocity": 83}, {"time": 3777, "pitch": 62, "duration": 6, "velocity": 83}, {"time": 3777, "pitch": 65, "duration": 7, "velocity": 83}, {"time": 3783, "pitch": 55, "duration": 10, "velocity": 76}, {"time": 3789, "pitch": 58, "duration": 12, "velocity": 83}, {"time": 3789, "pitch": 62, "duration": 12, "velocity": 83}, {"time": 3789, "pitch": 65, "duration": 12, "velocity": 83}, {"time": 3801, "pitch": 51, "duration": 86, "velocity": 83}, {"time": 3807, "pitch": 58, "duration": 25, "velocity": 65}, {"time": 3825, "pitch": 63, "duration": 16, "velocity": 83}, {"time": 3825, "pitch": 67, "duration": 15, "velocity": 83}, {"time": 3825, "pitch": 70, "duration": 16, "velocity": 83}, {"time": 3837, "pitch": 58, "duration": 13, "velocity": 36}, {"time": 3843, "pitch": 63, "duration": 25, "velocity": 83}, {"time": 3843, "pitch": 67, "duration": 24, "velocity": 83}, {"time": 3843, "pitch": 70, "duration": 25, "velocity": 83}, {"time": 3855, "pitch": 58, "duration": 18, "velocity": 65}, {"time": 3873, "pitch": 63, "duration": 6, "velocity": 83}, {"time": 3873, "pitch": 67, "duration": 6, "velocity": 83}, {"time": 3873, "pitch": 70, "duration": 7, "velocity": 83}, {"time": 3879, "pitch": 58, "duration": 7, "velocity": 83}, {"time": 3885, "pitch": 63, "duration": 6, "velocity": 83}, {"time": 3885, "pitch": 67, "duration": 7, "velocity": 83}, {"time": 3885, "pitch": 70, "duration": 9, "velocity": 83}, {"time": 3897, "pitch": 50, "duration": 88, "velocity": 83}, {"time": 3903, "pitch": 57, "duration": 21, "velocity": 83}, {"time": 3921, "pitch": 62, "duration": 15, "velocity": 83}, {"time": 3921, "pitch": 65, "duration": 15, "velocity": 83}, {"time": 3921, "pitch": 69, "duration": 15, "velocity": 80}, {"time": 3933, "pitch": 57, "duration": 15, "velocity": 53}, {"time": 3939, "pitch": 62, "duration": 17, "velocity": 83}, {"time": 3939, "pitch": 65, "duration": 17, "velocity": 83}, {"time": 3939, "pitch": 69, "duration": 17, "velocity": 76}, {"time": 3951, "pitch": 57, "duration": 19, "velocity": 72}, {"time": 3969, "pitch": 62, "duration": 5, "velocity": 83}, {"time": 3969, "pitch": 65, "duration": 6, "velocity": 83}, {"time": 3969, "pitch": 69, "duration": 6, "velocity": 83}, {"time": 3975, "pitch": 57, "duration": 8, "velocity": 83}, {"time": 3981, "pitch": 62, "duration": 8, "velocity": 83}, {"time": 3981, "pitch": 65, "duration": 5, "velocity": 57}, {"time": 3981, "pitch": 69, "duration": 7, "velocity": 47}, {"time": 3993, "pitch": 48, "duration": 41, "velocity": 83}, {"time": 3999, "pitch": 55, "duration": 25, "velocity": 47}, {"time": 4005, "pitch": 60, "duration": 7, "velocity": 61}, {"time": 4017, "pitch": 60, "duration": 14, "velocity": 83}, {"time": 4017, "pitch": 63, "duration": 14, "velocity": 83}, {"time": 4017, "pitch": 67, "duration": 15, "velocity": 83}, {"time": 4029, "pitch": 55, "duration": 6, "velocity": 76}, {"time": 4035, "pitch": 60, "duration": 3, "velocity": 83}, {"time": 4035, "pitch": 63, "duration": 3, "velocity": 83}, {"time": 4035, "pitch": 67, "duration": 7, "velocity": 83}, {"time": 4041, "pitch": 48, "duration": 37, "velocity": 83}, {"time": 4047, "pitch": 55, "duration": 16, "velocity": 40}, {"time": 4053, "pitch": 60, "duration": 3, "velocity": 53}, {"time": 4059, "pitch": 60, "duration": 9, "velocity": 83}, {"time": 4059, "pitch": 63, "duration": 9, "velocity": 83}, {"time": 4059, "pitch": 67, "duration": 13, "velocity": 83}, {"time": 4065, "pitch": 55, "duration": 14, "velocity": 83}, {"time": 4077, "pitch": 60, "duration": 5, "velocity": 83}, {"time": 4077, "pitch": 63, "duration": 5, "velocity": 83}, {"time": 4077, "pitch": 67, "duration": 5, "velocity": 83}, {"time": 4089, "pitch": 41, "duration": 86, "velocity": 83}, {"time": 4089, "pitch": 53, "duration": 10, "velocity": 83}, {"time": 4089, "pitch": 60, "duration": 20, "velocity": 83}, {"time": 4089, "pitch": 65, "duration": 20, "velocity": 83}, {"time": 4089, "pitch": 69, "duration": 19, "velocity": 83}, {"time": 4101, "pitch": 53, "duration": 23, "velocity": 49}, {"time": 4113, "pitch": 60, "duration": 14, "velocity": 83}, {"time": 4113, "pitch": 65, "duration": 15, "velocity": 83}, {"time": 4113, "pitch": 69, "duration": 14, "velocity": 76}, {"time": 4125, "pitch": 53, "duration": 15, "velocity": 53}, {"time": 4131, "pitch": 60, "duration": 15, "velocity": 83}, {"time": 4131, "pitch": 65, "duration": 15, "velocity": 83}, {"time": 4131, "pitch": 69, "duration": 15, "velocity": 83}, {"time": 4143, "pitch": 53, "duration": 15, "velocity": 53}, {"time": 4149, "pitch": 60, "duration": 2, "velocity": 80}, {"time": 4149, "pitch": 65, "duration": 2, "velocity": 83}, {"time": 4149, "pitch": 69, "duration": 2, "velocity": 76}, {"time": 4155, "pitch": 60, "duration": 2, "velocity": 83}, {"time": 4155, "pitch": 65, "duration": 2, "velocity": 83}, {"time": 4155, "pitch": 69, "duration": 2, "velocity": 83}, {"time": 4161, "pitch": 53, "duration": 24, "velocity": 83}, {"time": 4161, "pitch": 60, "duration": 8, "velocity": 83}, {"time": 4161, "pitch": 65, "duration": 8, "velocity": 83}, {"time": 4161, "pitch": 69, "duration": 8, "velocity": 83}, {"time": 4167, "pitch": 44, "duration": 1, "velocity": 51}, {"time": 4173, "pitch": 60, "duration": 12, "velocity": 83}, {"time": 4173, "pitch": 65, "duration": 12, "velocity": 83}, {"time": 4173, "pitch": 69, "duration": 12, "velocity": 57}, {"time": 4185, "pitch": 46, "duration": 12, "velocity": 83}, {"time": 4185, "pitch": 58, "duration": 6, "velocity": 43}, {"time": 4185, "pitch": 62, "duration": 6, "velocity": 45}, {"time": 4185, "pitch": 65, "duration": 6, "velocity": 38}, {"time": 4197, "pitch": 58, "duration": 16, "velocity": 53}, {"time": 4209, "pitch": 62, "duration": 13, "velocity": 76}, {"time": 4209, "pitch": 65, "duration": 12, "velocity": 83}, {"time": 4209, "pitch": 70, "duration": 12, "velocity": 83}, {"time": 4221, "pitch": 58, "duration": 8, "velocity": 47}, {"time": 4227, "pitch": 62, "duration": 3, "velocity": 65}, {"time": 4227, "pitch": 65, "duration": 3, "velocity": 61}, {"time": 4227, "pitch": 70, "duration": 3, "velocity": 57}, {"time": 4233, "pitch": 46, "duration": 37, "velocity": 83}, {"time": 4239, "pitch": 58, "duration": 5, "velocity": 61}, {"time": 4245, "pitch": 58, "duration": 10, "velocity": 47}, {"time": 4251, "pitch": 62, "duration": 14, "velocity": 83}, {"time": 4251, "pitch": 65, "duration": 13, "velocity": 83}, {"time": 4251, "pitch": 70, "duration": 13, "velocity": 83}, {"time": 4263, "pitch": 58, "duration": 5, "velocity": 68}, {"time": 4269, "pitch": 62, "duration": 9, "velocity": 83}, {"time": 4269, "pitch": 65, "duration": 9, "velocity": 83}, {"time": 4269, "pitch": 70, "duration": 4, "velocity": 76}, {"time": 4275, "pitch": 70, "duration": 2, "velocity": 51}, {"time": 4281, "pitch": 43, "duration": 43, "velocity": 83}, {"time": 4287, "pitch": 55, "duration": 21, "velocity": 57}, {"time": 4305, "pitch": 58, "duration": 10, "velocity": 83}, {"time": 4305, "pitch": 62, "duration": 13, "velocity": 83}, {"time": 4305, "pitch": 67, "duration": 12, "velocity": 83}, {"time": 4317, "pitch": 55, "duration": 8, "velocity": 45}, {"time": 4323, "pitch": 58, "duration": 3, "velocity": 83}, {"time": 4323, "pitch": 62, "duration": 3, "velocity": 83}, {"time": 4323, "pitch": 67, "duration": 3, "velocity": 76}, {"time": 4329, "pitch": 43, "duration": 36, "velocity": 83}, {"time": 4335, "pitch": 55, "duration": 5, "velocity": 65}, {"time": 4341, "pitch": 55, "duration": 10, "velocity": 43}, {"time": 4347, "pitch": 58, "duration": 13, "velocity": 83}, {"time": 4347, "pitch": 62, "duration": 13, "velocity": 83}, {"time": 4347, "pitch": 67, "duration": 13, "velocity": 83}, {"time": 4359, "pitch": 55, "duration": 13, "velocity": 83}, {"time": 4365, "pitch": 58, "duration": 7, "velocity": 83}, {"time": 4365, "pitch": 67, "duration": 6, "velocity": 53}, {"time": 4371, "pitch": 62, "duration": 5, "velocity": 76}, {"time": 4377, "pitch": 50, "duration": 44, "velocity": 83}, {"time": 4383, "pitch": 57, "duration": 21, "velocity": 83}, {"time": 4401, "pitch": 62, "duration": 13, "velocity": 83}, {"time": 4401, "pitch": 65, "duration": 13, "velocity": 83}, {"time": 4401, "pitch": 69, "duration": 13, "velocity": 83}, {"time": 4413, "pitch": 57, "duration": 7, "velocity": 53}, {"time": 4419, "pitch": 62, "duration": 3, "velocity": 76}, {"time": 4419, "pitch": 65, "duration": 3, "velocity": 80}, {"time": 4419, "pitch": 69, "duration": 3, "velocity": 72}, {"time": 4425, "pitch": 50, "duration": 41, "velocity": 83}, {"time": 4431, "pitch": 57, "duration": 15, "velocity": 83}, {"time": 4437, "pitch": 62, "duration": 2, "velocity": 36}, {"time": 4443, "pitch": 62, "duration": 14, "velocity": 83}, {"time": 4443, "pitch": 65, "duration": 14, "velocity": 83}, {"time": 4443, "pitch": 69, "duration": 14, "velocity": 83}, {"time": 4455, "pitch": 57, "duration": 11, "velocity": 83}, {"time": 4467, "pitch": 62, "duration": 4, "velocity": 83}, {"time": 4467, "pitch": 65, "duration": 4, "velocity": 83}, {"time": 4467, "pitch": 69, "duration": 4, "velocity": 80}, {"time": 4473, "pitch": 48, "duration": 43, "velocity": 83}, {"time": 4479, "pitch": 55, "duration": 23, "velocity": 49}, {"time": 4485, "pitch": 60, "duration": 2, "velocity": 18}, {"time": 4491, "pitch": 60, "duration": 2, "velocity": 43}, {"time": 4497, "pitch": 60, "duration": 11, "velocity": 83}, {"time": 4497, "pitch": 63, "duration": 12, "velocity": 83}, {"time": 4497, "pitch": 67, "duration": 12, "velocity": 83}, {"time": 4509, "pitch": 55, "duration": 8, "velocity": 53}, {"time": 4515, "pitch": 60, "duration": 4, "velocity": 76}, {"time": 4515, "pitch": 63, "duration": 4, "velocity": 83}, {"time": 4515, "pitch": 67, "duration": 4, "velocity": 61}, {"time": 4521, "pitch": 53, "duration": 41, "velocity": 83}, {"time": 4533, "pitch": 57, "duration": 14, "velocity": 76}, {"time": 4539, "pitch": 60, "duration": 14, "velocity": 83}, {"time": 4539, "pitch": 65, "duration": 14, "velocity": 83}, {"time": 4539, "pitch": 69, "duration": 13, "velocity": 68}, {"time": 4551, "pitch": 57, "duration": 9, "velocity": 76}, {"time": 4557, "pitch": 60, "duration": 7, "velocity": 83}, {"time": 4557, "pitch": 65, "duration": 8, "velocity": 83}, {"time": 4557, "pitch": 69, "duration": 7, "velocity": 83}, {"time": 4569, "pitch": 46, "duration": 42, "velocity": 83}, {"time": 4575, "pitch": 58, "duration": 21, "velocity": 47}, {"time": 4593, "pitch": 62, "duration": 9, "velocity": 83}, {"time": 4593, "pitch": 65, "duration": 10, "velocity": 83}, {"time": 4593, "pitch": 70, "duration": 10, "velocity": 83}, {"time": 4599, "pitch": 58, "duration": 13, "velocity": 57}, {"time": 4605, "pitch": 62, "duration": 9, "velocity": 57}, {"time": 4605, "pitch": 65, "duration": 1, "velocity": 17}, {"time": 4611, "pitch": 65, "duration": 4, "velocity": 57}, {"time": 4611, "pitch": 70, "duration": 3, "velocity": 57}, {"time": 4617, "pitch": 46, "duration": 37, "velocity": 83}, {"time": 4623, "pitch": 58, "duration": 3, "velocity": 65}, {"time": 4629, "pitch": 58, "duration": 9, "velocity": 51}, {"time": 4635, "pitch": 62, "duration": 13, "velocity": 83}, {"time": 4635, "pitch": 65, "duration": 13, "velocity": 83}, {"time": 4635, "pitch": 70, "duration": 13, "velocity": 83}, {"time": 4647, "pitch": 58, "duration": 5, "velocity": 83}, {"time": 4653, "pitch": 62, "duration": 8, "velocity": 83}, {"time": 4653, "pitch": 65, "duration": 6, "velocity": 83}, {"time": 4653, "pitch": 70, "duration": 5, "velocity": 83}, {"time": 4665, "pitch": 43, "duration": 43, "velocity": 72}, {"time": 4665, "pitch": 62, "duration": 20, "velocity": 83}, {"time": 4665, "pitch": 67, "duration": 21, "velocity": 83}, {"time": 4665, "pitch": 70, "duration": 10, "velocity": 83}, {"time": 4677, "pitch": 55, "duration": 16, "velocity": 57}, {"time": 4689, "pitch": 62, "duration": 9, "velocity": 83}, {"time": 4689, "pitch": 67, "duration": 15, "velocity": 83}, {"time": 4689, "pitch": 70, "duration": 10, "velocity": 83}, {"time": 4695, "pitch": 55, "duration": 13, "velocity": 65}, {"time": 4701, "pitch": 62, "duration": 10, "velocity": 72}, {"time": 4707, "pitch": 67, "duration": 9, "velocity": 68}, {"time": 4707, "pitch": 70, "duration": 4, "velocity": 83}, {"time": 4713, "pitch": 43, "duration": 40, "velocity": 83}, {"time": 4719, "pitch": 55, "duration": 5, "velocity": 72}, {"time": 4725, "pitch": 55, "duration": 11, "velocity": 45}, {"time": 4731, "pitch": 62, "duration": 13, "velocity": 83}, {"time": 4731, "pitch": 67, "duration": 14, "velocity": 83}, {"time": 4731, "pitch": 70, "duration": 13, "velocity": 83}, {"time": 4743, "pitch": 55, "duration": 13, "velocity": 83}, {"time": 4749, "pitch": 62, "duration": 10, "velocity": 83}, {"time": 4749, "pitch": 67, "duration": 10, "velocity": 83}, {"time": 4749, "pitch": 70, "duration": 7, "velocity": 80}, {"time": 4761, "pitch": 50, "duration": 44, "velocity": 83}, {"time": 4767, "pitch": 57, "duration": 21, "velocity": 83}, {"time": 4785, "pitch": 62, "duration": 13, "velocity": 83}, {"time": 4785, "pitch": 65, "duration": 14, "velocity": 83}, {"time": 4785, "pitch": 69, "duration": 14, "velocity": 83}, {"time": 4797, "pitch": 57, "duration": 7, "velocity": 51}, {"time": 4803, "pitch": 62, "duration": 3, "velocity": 83}, {"time": 4803, "pitch": 65, "duration": 3, "velocity": 83}, {"time": 4803, "pitch": 69, "duration": 3, "velocity": 65}, {"time": 4809, "pitch": 50, "duration": 40, "velocity": 83}, {"time": 4815, "pitch": 57, "duration": 15, "velocity": 83}, {"time": 4827, "pitch": 62, "duration": 14, "velocity": 83}, {"time": 4827, "pitch": 65, "duration": 14, "velocity": 83}, {"time": 4827, "pitch": 69, "duration": 14, "velocity": 83}, {"time": 4839, "pitch": 57, "duration": 10, "velocity": 83}, {"time": 4851, "pitch": 62, "duration": 6, "velocity": 83}, {"time": 4851, "pitch": 65, "duration": 6, "velocity": 53}, {"time": 4851, "pitch": 69, "duration": 6, "velocity": 51}, {"time": 4857, "pitch": 48, "duration": 45, "velocity": 83}, {"time": 4863, "pitch": 55, "duration": 23, "velocity": 72}, {"time": 4869, "pitch": 60, "duration": 8, "velocity": 65}, {"time": 4881, "pitch": 60, "duration": 15, "velocity": 83}, {"time": 4881, "pitch": 63, "duration": 16, "velocity": 83}, {"time": 4881, "pitch": 67, "duration": 16, "velocity": 83}, {"time": 4893, "pitch": 55, "duration": 8, "velocity": 49}, {"time": 4905, "pitch": 41, "duration": 38, "velocity": 83}, {"time": 4905, "pitch": 53, "duration": 31, "velocity": 68}, {"time": 4905, "pitch": 60, "duration": 18, "velocity": 83}, {"time": 4905, "pitch": 65, "duration": 18, "velocity": 83}, {"time": 4905, "pitch": 69, "duration": 18, "velocity": 76}, {"time": 4929, "pitch": 60, "duration": 16, "velocity": 83}, {"time": 4929, "pitch": 65, "duration": 17, "velocity": 72}, {"time": 4929, "pitch": 69, "duration": 17, "velocity": 72}, {"time": 4941, "pitch": 53, "duration": 12, "velocity": 47}, {"time": 4953, "pitch": 46, "duration": 43, "velocity": 83}, {"time": 4953, "pitch": 58, "duration": 23, "velocity": 83}, {"time": 4953, "pitch": 62, "duration": 17, "velocity": 83}, {"time": 4953, "pitch": 65, "duration": 17, "velocity": 83}, {"time": 4953, "pitch": 70, "duration": 17, "velocity": 83}, {"time": 4977, "pitch": 58, "duration": 19, "velocity": 68}, {"time": 4977, "pitch": 62, "duration": 19, "velocity": 83}, {"time": 4977, "pitch": 65, "duration": 18, "velocity": 83}, {"time": 4977, "pitch": 70, "duration": 18, "velocity": 83}, {"time": 5001, "pitch": 46, "duration": 16, "velocity": 83}, {"time": 5001, "pitch": 58, "duration": 18, "velocity": 80}, {"time": 5001, "pitch": 62, "duration": 16, "velocity": 83}, {"time": 5001, "pitch": 65, "duration": 16, "velocity": 83}, {"time": 5001, "pitch": 70, "duration": 15, "velocity": 83}, {"time": 5025, "pitch": 46, "duration": 17, "velocity": 83}, {"time": 5025, "pitch": 58, "duration": 17, "velocity": 76}, {"time": 5025, "pitch": 62, "duration": 17, "velocity": 83}, {"time": 5025, "pitch": 65, "duration": 17, "velocity": 83}, {"time": 5025, "pitch": 70, "duration": 16, "velocity": 83}, {"time": 5049, "pitch": 50, "duration": 81, "velocity": 83}, {"time": 5049, "pitch": 57, "duration": 10, "velocity": 83}, {"time": 5049, "pitch": 62, "duration": 18, "velocity": 83}, {"time": 5049, "pitch": 66, "duration": 17, "velocity": 83}, {"time": 5049, "pitch": 69, "duration": 17, "velocity": 83}, {"time": 5061, "pitch": 57, "duration": 21, "velocity": 47}, {"time": 5073, "pitch": 62, "duration": 15, "velocity": 83}, {"time": 5073, "pitch": 66, "duration": 14, "velocity": 83}, {"time": 5073, "pitch": 69, "duration": 15, "velocity": 83}, {"time": 5085, "pitch": 57, "duration": 15, "velocity": 53}, {"time": 5091, "pitch": 62, "duration": 24, "velocity": 83}, {"time": 5091, "pitch": 66, "duration": 23, "velocity": 83}, {"time": 5091, "pitch": 69, "duration": 23, "velocity": 83}, {"time": 5103, "pitch": 57, "duration": 13, "velocity": 49}, {"time": 5121, "pitch": 57, "duration": 9, "velocity": 76}, {"time": 5121, "pitch": 62, "duration": 10, "velocity": 83}, {"time": 5121, "pitch": 66, "duration": 8, "velocity": 83}, {"time": 5121, "pitch": 69, "duration": 11, "velocity": 83}, {"time": 5145, "pitch": 55, "duration": 20, "velocity": 83}, {"time": 5145, "pitch": 62, "duration": 19, "velocity": 83}, {"time": 5145, "pitch": 67, "duration": 18, "velocity": 83}, {"time": 5145, "pitch": 70, "duration": 17, "velocity": 83}, {"time": 5157, "pitch": 58, "duration": 6, "velocity": 65}, {"time": 5169, "pitch": 55, "duration": 8, "velocity": 83}, {"time": 5169, "pitch": 58, "duration": 13, "velocity": 83}, {"time": 5169, "pitch": 62, "duration": 11, "velocity": 83}, {"time": 5169, "pitch": 67, "duration": 11, "velocity": 83}, {"time": 5169, "pitch": 70, "duration": 12, "velocity": 83}, {"time": 5193, "pitch": 51, "duration": 18, "velocity": 83}, {"time": 5193, "pitch": 58, "duration": 18, "velocity": 83}, {"time": 5193, "pitch": 63, "duration": 17, "velocity": 83}, {"time": 5193, "pitch": 67, "duration": 18, "velocity": 83}, {"time": 5193, "pitch": 70, "duration": 18, "velocity": 83}, {"time": 5217, "pitch": 51, "duration": 9, "velocity": 83}, {"time": 5217, "pitch": 58, "duration": 9, "velocity": 83}, {"time": 5217, "pitch": 63, "duration": 9, "velocity": 83}, {"time": 5217, "pitch": 67, "duration": 8, "velocity": 83}, {"time": 5217, "pitch": 70, "duration": 8, "velocity": 83}, {"time": 5229, "pitch": 48, "duration": 6, "velocity": 76}, {"time": 5229, "pitch": 53, "duration": 5, "velocity": 45}, {"time": 5229, "pitch": 57, "duration": 6, "velocity": 51}, {"time": 5229, "pitch": 60, "duration": 5, "velocity": 83}, {"time": 5229, "pitch": 65, "duration": 6, "velocity": 83}, {"time": 5229, "pitch": 69, "duration": 5, "velocity": 83}, {"time": 5241, "pitch": 50, "duration": 85, "velocity": 83}, {"time": 5241, "pitch": 62, "duration": 19, "velocity": 83}, {"time": 5241, "pitch": 66, "duration": 19, "velocity": 83}, {"time": 5241, "pitch": 69, "duration": 19, "velocity": 83}, {"time": 5253, "pitch": 57, "duration": 18, "velocity": 72}, {"time": 5265, "pitch": 62, "duration": 15, "velocity": 83}, {"time": 5265, "pitch": 66, "duration": 15, "velocity": 83}, {"time": 5265, "pitch": 69, "duration": 15, "velocity": 83}, {"time": 5277, "pitch": 57, "duration": 13, "velocity": 47}, {"time": 5283, "pitch": 62, "duration": 24, "velocity": 83}, {"time": 5283, "pitch": 66, "duration": 22, "velocity": 83}, {"time": 5283, "pitch": 69, "duration": 23, "velocity": 83}, {"time": 5301, "pitch": 57, "duration": 13, "velocity": 83}, {"time": 5313, "pitch": 62, "duration": 7, "velocity": 83}, {"time": 5313, "pitch": 66, "duration": 10, "velocity": 83}, {"time": 5313, "pitch": 69, "duration": 10, "velocity": 83}, {"time": 5319, "pitch": 57, "duration": 9, "velocity": 80}, {"time": 5325, "pitch": 62, "duration": 5, "velocity": 83}, {"time": 5325, "pitch": 66, "duration": 4, "velocity": 61}, {"time": 5325, "pitch": 69, "duration": 5, "velocity": 43}, {"time": 5337, "pitch": 55, "duration": 40, "velocity": 83}, {"time": 5337, "pitch": 62, "duration": 19, "velocity": 83}, {"time": 5337, "pitch": 67, "duration": 19, "velocity": 83}, {"time": 5337, "pitch": 70, "duration": 17, "velocity": 83}, {"time": 5349, "pitch": 58, "duration": 15, "velocity": 47}, {"time": 5361, "pitch": 62, "duration": 17, "velocity": 83}, {"time": 5361, "pitch": 67, "duration": 14, "velocity": 83}, {"time": 5361, "pitch": 70, "duration": 14, "velocity": 83}, {"time": 5373, "pitch": 58, "duration": 3, "velocity": 55}, {"time": 5385, "pitch": 48, "duration": 48, "velocity": 83}, {"time": 5385, "pitch": 55, "duration": 10, "velocity": 72}, {"time": 5385, "pitch": 60, "duration": 19, "velocity": 83}, {"time": 5385, "pitch": 63, "duration": 17, "velocity": 83}, {"time": 5385, "pitch": 67, "duration": 19, "velocity": 83}, {"time": 5397, "pitch": 55, "duration": 36, "velocity": 53}, {"time": 5409, "pitch": 60, "duration": 24, "velocity": 83}, {"time": 5409, "pitch": 63, "duration": 24, "velocity": 83}, {"time": 5409, "pitch": 67, "duration": 24, "velocity": 83}, {"time": 5448, "pitch": 62, "duration": 10, "velocity": 83}, {"time": 5448, "pitch": 67, "duration": 9, "velocity": 72}, {"time": 5448, "pitch": 70, "duration": 10, "velocity": 76}, {"time": 5469, "pitch": 60, "duration": 16, "velocity": 45}, {"time": 5469, "pitch": 65, "duration": 16, "velocity": 57}, {"time": 5469, "pitch": 69, "duration": 15, "velocity": 45}, {"time": 5487, "pitch": 62, "duration": 18, "velocity": 57}, {"time": 5487, "pitch": 67, "duration": 18, "velocity": 61}, {"time": 5487, "pitch": 70, "duration": 17, "velocity": 83}, {"time": 5505, "pitch": 41, "duration": 9, "velocity": 83}, {"time": 5505, "pitch": 60, "duration": 7, "velocity": 83}, {"time": 5505, "pitch": 65, "duration": 8, "velocity": 83}, {"time": 5505, "pitch": 69, "duration": 7, "velocity": 83}, {"time": 5517, "pitch": 43, "duration": 11, "velocity": 83}, {"time": 5517, "pitch": 62, "duration": 10, "velocity": 83}, {"time": 5517, "pitch": 67, "duration": 9, "velocity": 83}, {"time": 5517, "pitch": 68, "duration": 10, "velocity": 68}, {"time": 5517, "pitch": 70, "duration": 9, "velocity": 83}, {"time": 5529, "pitch": 44, "duration": 12, "velocity": 83}, {"time": 5529, "pitch": 60, "duration": 7, "velocity": 83}, {"time": 5529, "pitch": 63, "duration": 7, "velocity": 83}, {"time": 5529, "pitch": 68, "duration": 7, "velocity": 83}, {"time": 5541, "pitch": 42, "duration": 48, "velocity": 83}, {"time": 5541, "pitch": 61, "duration": 48, "velocity": 83}, {"time": 5541, "pitch": 66, "duration": 48, "velocity": 83}, {"time": 5541, "pitch": 70, "duration": 48, "velocity": 83}, {"time": 5625, "pitch": 47, "duration": 88, "velocity": 83}, {"time": 5625, "pitch": 59, "duration": 11, "velocity": 83}, {"time": 5625, "pitch": 63, "duration": 22, "velocity": 83}, {"time": 5625, "pitch": 66, "duration": 21, "velocity": 83}, {"time": 5625, "pitch": 71, "duration": 21, "velocity": 83}, {"time": 5637, "pitch": 59, "duration": 20, "velocity": 18}, {"time": 5649, "pitch": 63, "duration": 15, "velocity": 83}, {"time": 5649, "pitch": 66, "duration": 15, "velocity": 83}, {"time": 5649, "pitch": 71, "duration": 15, "velocity": 83}, {"time": 5661, "pitch": 59, "duration": 14, "velocity": 53}, {"time": 5673, "pitch": 63, "duration": 14, "velocity": 83}, {"time": 5673, "pitch": 66, "duration": 15, "velocity": 83}, {"time": 5673, "pitch": 71, "duration": 15, "velocity": 83}, {"time": 5685, "pitch": 59, "duration": 10, "velocity": 38}, {"time": 5697, "pitch": 63, "duration": 11, "velocity": 83}, {"time": 5697, "pitch": 66, "duration": 12, "velocity": 83}, {"time": 5697, "pitch": 71, "duration": 12, "velocity": 83}, {"time": 5703, "pitch": 59, "duration": 8, "velocity": 65}, {"time": 5709, "pitch": 63, "duration": 5, "velocity": 83}, {"time": 5709, "pitch": 66, "duration": 8, "velocity": 83}, {"time": 5709, "pitch": 71, "duration": 6, "velocity": 83}, {"time": 5721, "pitch": 44, "duration": 81, "velocity": 83}, {"time": 5733, "pitch": 56, "duration": 20, "velocity": 57}, {"time": 5745, "pitch": 59, "duration": 15, "velocity": 83}, {"time": 5745, "pitch": 63, "duration": 15, "velocity": 83}, {"time": 5745, "pitch": 68, "duration": 14, "velocity": 83}, {"time": 5757, "pitch": 56, "duration": 13, "velocity": 43}, {"time": 5763, "pitch": 59, "duration": 27, "velocity": 83}, {"time": 5763, "pitch": 63, "duration": 25, "velocity": 83}, {"time": 5763, "pitch": 68, "duration": 25, "velocity": 83}, {"time": 5781, "pitch": 56, "duration": 13, "velocity": 76}, {"time": 5793, "pitch": 59, "duration": 7, "velocity": 83}, {"time": 5793, "pitch": 63, "duration": 7, "velocity": 83}, {"time": 5793, "pitch": 68, "duration": 7, "velocity": 83}, {"time": 5799, "pitch": 56, "duration": 8, "velocity": 83}, {"time": 5805, "pitch": 59, "duration": 4, "velocity": 83}, {"time": 5805, "pitch": 63, "duration": 5, "velocity": 83}, {"time": 5805, "pitch": 68, "duration": 6, "velocity": 65}, {"time": 5817, "pitch": 51, "duration": 44, "velocity": 76}, {"time": 5817, "pitch": 63, "duration": 20, "velocity": 83}, {"time": 5817, "pitch": 66, "duration": 19, "velocity": 83}, {"time": 5817, "pitch": 70, "duration": 19, "velocity": 83}, {"time": 5829, "pitch": 58, "duration": 15, "velocity": 53}, {"time": 5841, "pitch": 63, "duration": 16, "velocity": 83}, {"time": 5841, "pitch": 66, "duration": 15, "velocity": 83}, {"time": 5841, "pitch": 70, "duration": 15, "velocity": 83}, {"time": 5853, "pitch": 58, "duration": 8, "velocity": 55}, {"time": 5859, "pitch": 63, "duration": 4, "velocity": 76}, {"time": 5859, "pitch": 66, "duration": 3, "velocity": 83}, {"time": 5859, "pitch": 70, "duration": 3, "velocity": 80}, {"time": 5865, "pitch": 51, "duration": 37, "velocity": 83}, {"time": 5871, "pitch": 58, "duration": 20, "velocity": 55}, {"time": 5877, "pitch": 63, "duration": 6, "velocity": 51}, {"time": 5877, "pitch": 66, "duration": 6, "velocity": 57}, {"time": 5877, "pitch": 70, "duration": 5, "velocity": 36}, {"time": 5889, "pitch": 63, "duration": 8, "velocity": 83}, {"time": 5889, "pitch": 66, "duration": 8, "velocity": 83}, {"time": 5889, "pitch": 70, "duration": 8, "velocity": 83}, {"time": 5895, "pitch": 58, "duration": 9, "velocity": 51}, {"time": 5901, "pitch": 63, "duration": 4, "velocity": 76}, {"time": 5901, "pitch": 66, "duration": 3, "velocity": 80}, {"time": 5901, "pitch": 70, "duration": 4, "velocity": 76}, {"time": 5913, "pitch": 49, "duration": 41, "velocity": 80}, {"time": 5913, "pitch": 56, "duration": 11, "velocity": 76}, {"time": 5913, "pitch": 61, "duration": 20, "velocity": 83}, {"time": 5913, "pitch": 64, "duration": 20, "velocity": 83}, {"time": 5913, "pitch": 68, "duration": 19, "velocity": 83}, {"time": 5931, "pitch": 56, "duration": 14, "velocity": 53}, {"time": 5937, "pitch": 61, "duration": 14, "velocity": 83}, {"time": 5937, "pitch": 64, "duration": 13, "velocity": 83}, {"time": 5937, "pitch": 68, "duration": 14, "velocity": 83}, {"time": 5949, "pitch": 56, "duration": 6, "velocity": 42}, {"time": 5955, "pitch": 61, "duration": 6, "velocity": 43}, {"time": 5955, "pitch": 64, "duration": 6, "velocity": 51}, {"time": 5961, "pitch": 42, "duration": 39, "velocity": 42}, {"time": 5961, "pitch": 61, "duration": 18, "velocity": 83}, {"time": 5961, "pitch": 66, "duration": 16, "velocity": 76}, {"time": 5961, "pitch": 70, "duration": 16, "velocity": 76}, {"time": 5973, "pitch": 54, "duration": 13, "velocity": 76}, {"time": 5985, "pitch": 61, "duration": 12, "velocity": 83}, {"time": 5985, "pitch": 66, "duration": 12, "velocity": 83}, {"time": 5985, "pitch": 70, "duration": 12, "velocity": 83}, {"time": 5988, "pitch": 54, "duration": 11, "velocity": 76}, {"time": 5997, "pitch": 61, "duration": 12, "velocity": 83}, {"time": 5997, "pitch": 66, "duration": 11, "velocity": 83}, {"time": 5997, "pitch": 70, "duration": 1, "velocity": 83}, {"time": 6009, "pitch": 47, "duration": 88, "velocity": 83}, {"time": 6009, "pitch": 59, "duration": 11, "velocity": 83}, {"time": 6009, "pitch": 63, "duration": 22, "velocity": 83}, {"time": 6009, "pitch": 66, "duration": 21, "velocity": 83}, {"time": 6009, "pitch": 71, "duration": 21, "velocity": 83}, {"time": 6021, "pitch": 59, "duration": 20, "velocity": 18}, {"time": 6033, "pitch": 63, "duration": 15, "velocity": 83}, {"time": 6033, "pitch": 66, "duration": 15, "velocity": 83}, {"time": 6033, "pitch": 71, "duration": 15, "velocity": 83}, {"time": 6045, "pitch": 59, "duration": 14, "velocity": 53}, {"time": 6057, "pitch": 63, "duration": 14, "velocity": 83}, {"time": 6057, "pitch": 66, "duration": 15, "velocity": 83}, {"time": 6057, "pitch": 71, "duration": 15, "velocity": 83}, {"time": 6069, "pitch": 59, "duration": 10, "velocity": 38}, {"time": 6081, "pitch": 63, "duration": 11, "velocity": 83}, {"time": 6081, "pitch": 66, "duration": 12, "velocity": 83}, {"time": 6081, "pitch": 71, "duration": 12, "velocity": 83}, {"time": 6087, "pitch": 59, "duration": 8, "velocity": 65}, {"time": 6093, "pitch": 63, "duration": 5, "velocity": 83}, {"time": 6093, "pitch": 66, "duration": 8, "velocity": 83}, {"time": 6093, "pitch": 71, "duration": 6, "velocity": 83}, {"time": 6105, "pitch": 44, "duration": 81, "velocity": 83}, {"time": 6117, "pitch": 56, "duration": 20, "velocity": 57}, {"time": 6129, "pitch": 59, "duration": 15, "velocity": 83}, {"time": 6129, "pitch": 63, "duration": 15, "velocity": 83}, {"time": 6129, "pitch": 68, "duration": 14, "velocity": 83}, {"time": 6141, "pitch": 56, "duration": 13, "velocity": 43}, {"time": 6147, "pitch": 59, "duration": 27, "velocity": 83}, {"time": 6147, "pitch": 63, "duration": 25, "velocity": 83}, {"time": 6147, "pitch": 68, "duration": 25, "velocity": 83}, {"time": 6165, "pitch": 56, "duration": 13, "velocity": 76}, {"time": 6177, "pitch": 59, "duration": 7, "velocity": 83}, {"time": 6177, "pitch": 63, "duration": 7, "velocity": 83}, {"time": 6177, "pitch": 68, "duration": 7, "velocity": 83}, {"time": 6183, "pitch": 56, "duration": 8, "velocity": 83}, {"time": 6189, "pitch": 59, "duration": 4, "velocity": 83}, {"time": 6189, "pitch": 63, "duration": 5, "velocity": 83}, {"time": 6189, "pitch": 68, "duration": 6, "velocity": 65}, {"time": 6201, "pitch": 51, "duration": 44, "velocity": 76}, {"time": 6201, "pitch": 63, "duration": 20, "velocity": 83}, {"time": 6201, "pitch": 66, "duration": 19, "velocity": 83}, {"time": 6201, "pitch": 70, "duration": 19, "velocity": 83}, {"time": 6213, "pitch": 58, "duration": 15, "velocity": 53}, {"time": 6225, "pitch": 63, "duration": 16, "velocity": 83}, {"time": 6225, "pitch": 66, "duration": 15, "velocity": 83}, {"time": 6225, "pitch": 70, "duration": 15, "velocity": 83}, {"time": 6237, "pitch": 58, "duration": 8, "velocity": 55}, {"time": 6243, "pitch": 63, "duration": 4, "velocity": 76}, {"time": 6243, "pitch": 66, "duration": 3, "velocity": 83}, {"time": 6243, "pitch": 70, "duration": 3, "velocity": 80}, {"time": 6249, "pitch": 51, "duration": 37, "velocity": 83}, {"time": 6255, "pitch": 58, "duration": 20, "velocity": 55}, {"time": 6261, "pitch": 63, "duration": 6, "velocity": 51}, {"time": 6261, "pitch": 66, "duration": 6, "velocity": 57}, {"time": 6261, "pitch": 70, "duration": 5, "velocity": 36}, {"time": 6273, "pitch": 63, "duration": 8, "velocity": 83}, {"time": 6273, "pitch": 66, "duration": 8, "velocity": 83}, {"time": 6273, "pitch": 70, "duration": 8, "velocity": 83}, {"time": 6279, "pitch": 58, "duration": 9, "velocity": 51}, {"time": 6285, "pitch": 63, "duration": 12, "velocity": 76}, {"time": 6285, "pitch": 66, "duration": 11, "velocity": 80}, {"time": 6285, "pitch": 70, "duration": 12, "velocity": 76}, {"time": 6297, "pitch": 49, "duration": 41, "velocity": 80}, {"time": 6297, "pitch": 56, "duration": 11, "velocity": 76}, {"time": 6297, "pitch": 61, "duration": 20, "velocity": 83}, {"time": 6297, "pitch": 64, "duration": 20, "velocity": 83}, {"time": 6297, "pitch": 68, "duration": 19, "velocity": 83}, {"time": 6315, "pitch": 56, "duration": 14, "velocity": 53}, {"time": 6321, "pitch": 61, "duration": 14, "velocity": 83}, {"time": 6321, "pitch": 64, "duration": 13, "velocity": 83}, {"time": 6321, "pitch": 68, "duration": 14, "velocity": 83}, {"time": 6333, "pitch": 56, "duration": 6, "velocity": 42}, {"time": 6339, "pitch": 61, "duration": 6, "velocity": 43}, {"time": 6339, "pitch": 64, "duration": 6, "velocity": 51}, {"time": 6345, "pitch": 47, "duration": 121, "velocity": 83}, {"time": 6345, "pitch": 59, "duration": 121, "velocity": 83}, {"time": 6345, "pitch": 63, "duration": 121, "velocity": 83}, {"time": 6345, "pitch": 66, "duration": 121, "velocity": 83}, {"time": 6345, "pitch": 71, "duration": 121, "velocity": 83}, {"time": 6489, "pitch": 44, "duration": 25, "velocity": 80}, {"time": 6494, "pitch": 56, "duration": 15, "velocity": 53}, {"time": 6500, "pitch": 59, "duration": 5, "velocity": 76}, {"time": 6506, "pitch": 59, "duration": 7, "velocity": 57}, {"time": 6507, "pitch": 61, "duration": 9, "velocity": 83}, {"time": 6507, "pitch": 64, "duration": 9, "velocity": 83}, {"time": 6518, "pitch": 63, "duration": 20, "velocity": 83}, {"time": 6518, "pitch": 59, "duration": 20, "velocity": 83}, {"time": 6537, "pitch": 40, "duration": 33, "velocity": 80}, {"time": 6542, "pitch": 52, "duration": 30, "velocity": 65}, {"time": 6548, "pitch": 56, "duration": 24, "velocity": 68}, {"time": 6554, "pitch": 59, "duration": 17, "velocity": 83}, {"time": 6554, "pitch": 64, "duration": 18, "velocity": 83}, {"time": 6584, "pitch": 42, "duration": 29, "velocity": 83}, {"time": 6590, "pitch": 54, "duration": 27, "velocity": 76}, {"time": 6596, "pitch": 61, "duration": 18, "velocity": 83}, {"time": 6596, "pitch": 64, "duration": 19, "velocity": 83}, {"time": 6620, "pitch": 63, "duration": 43, "velocity": 83}, {"time": 6620, "pitch": 59, "duration": 43, "velocity": 76}, {"time": 6620, "pitch": 56, "duration": 43, "velocity": 83}, {"time": 6681, "pitch": 44, "duration": 38, "velocity": 83}, {"time": 6687, "pitch": 56, "duration": 17, "velocity": 83}, {"time": 6693, "pitch": 63, "duration": 7, "velocity": 83}, {"time": 6699, "pitch": 68, "duration": 16, "velocity": 83}, {"time": 6711, "pitch": 56, "duration": 8, "velocity": 83}, {"time": 6717, "pitch": 71, "duration": 7, "velocity": 83}, {"time": 6729, "pitch": 45, "duration": 42, "velocity": 83}, {"time": 6729, "pitch": 57, "duration": 10, "velocity": 83}, {"time": 6729, "pitch": 61, "duration": 11, "velocity": 83}, {"time": 6729, "pitch": 66, "duration": 12, "velocity": 83}, {"time": 6729, "pitch": 69, "duration": 12, "velocity": 83}, {"time": 6741, "pitch": 57, "duration": 9, "velocity": 83}, {"time": 6747, "pitch": 61, "duration": 9, "velocity": 83}, {"time": 6747, "pitch": 66, "duration": 9, "velocity": 83}, {"time": 6747, "pitch": 69, "duration": 9, "velocity": 83}, {"time": 6753, "pitch": 57, "duration": 19, "velocity": 83}, {"time": 6759, "pitch": 61, "duration": 13, "velocity": 83}, {"time": 6759, "pitch": 66, "duration": 13, "velocity": 83}, {"time": 6759, "pitch": 69, "duration": 13, "velocity": 83}, {"time": 6777, "pitch": 47, "duration": 15, "velocity": 83}, {"time": 6777, "pitch": 59, "duration": 15, "velocity": 83}, {"time": 6777, "pitch": 63, "duration": 15, "velocity": 83}, {"time": 6777, "pitch": 66, "duration": 15, "velocity": 83}, {"time": 6777, "pitch": 69, "duration": 15, "velocity": 83}, {"time": 6801, "pitch": 47, "duration": 4, "velocity": 83}, {"time": 6801, "pitch": 59, "duration": 4, "velocity": 83}, {"time": 6801, "pitch": 61, "duration": 4, "velocity": 83}, {"time": 6801, "pitch": 66, "duration": 4, "velocity": 83}, {"time": 6801, "pitch": 69, "duration": 4, "velocity": 83}, {"time": 6813, "pitch": 42, "duration": 51, "velocity": 83}, {"time": 6813, "pitch": 54, "duration": 51, "velocity": 83}, {"time": 6813, "pitch": 61, "duration": 51, "velocity": 83}, {"time": 6813, "pitch": 66, "duration": 51, "velocity": 83}, {"time": 6813, "pitch": 70, "duration": 51, "velocity": 83}]}]}