{"metadata": {"schema_version": "0.2", "title": "None", "source_filename": "795.mid", "source_format": "midi"}, "resolution": 12, "tempos": [{"time": 0, "qpm": 75.99996960001216}], "key_signatures": [{"time": 0, "root": 0, "mode": "major"}], "time_signatures": [{"time": 0, "numerator": 4, "denominator": 4}, {"time": 0, "numerator": 1, "denominator": 4}], "tracks": [{"program": 0, "is_drum": false, "name": "MELODY", "notes": [{"time": 200, "pitch": 67, "duration": 6, "velocity": 87}, {"time": 206, "pitch": 69, "duration": 6, "velocity": 87}, {"time": 212, "pitch": 71, "duration": 4, "velocity": 87}, {"time": 218, "pitch": 71, "duration": 23, "velocity": 87}, {"time": 242, "pitch": 62, "duration": 2, "velocity": 87}, {"time": 245, "pitch": 62, "duration": 3, "velocity": 87}, {"time": 248, "pitch": 67, "duration": 4, "velocity": 87}, {"time": 254, "pitch": 67, "duration": 2, "velocity": 87}, {"time": 257, "pitch": 67, "duration": 2, "velocity": 87}, {"time": 266, "pitch": 67, "duration": 8, "velocity": 87}, {"time": 272, "pitch": 64, "duration": 12, "velocity": 87}, {"time": 290, "pitch": 62, "duration": 2, "velocity": 87}, {"time": 293, "pitch": 62, "duration": 2, "velocity": 87}, {"time": 296, "pitch": 67, "duration": 3, "velocity": 87}, {"time": 302, "pitch": 67, "duration": 6, "velocity": 87}, {"time": 308, "pitch": 67, "duration": 6, "velocity": 87}, {"time": 314, "pitch": 62, "duration": 6, "velocity": 87}, {"time": 320, "pitch": 69, "duration": 12, "velocity": 87}, {"time": 338, "pitch": 62, "duration": 1, "velocity": 87}, {"time": 341, "pitch": 62, "duration": 2, "velocity": 87}, {"time": 344, "pitch": 72, "duration": 6, "velocity": 87}, {"time": 350, "pitch": 71, "duration": 10, "velocity": 87}, {"time": 362, "pitch": 71, "duration": 6, "velocity": 87}, {"time": 368, "pitch": 69, "duration": 18, "velocity": 87}, {"time": 383, "pitch": 62, "duration": 1, "velocity": 87}, {"time": 386, "pitch": 62, "duration": 2, "velocity": 87}, {"time": 389, "pitch": 62, "duration": 2, "velocity": 87}, {"time": 392, "pitch": 67, "duration": 6, "velocity": 87}, {"time": 398, "pitch": 69, "duration": 7, "velocity": 87}, {"time": 404, "pitch": 71, "duration": 6, "velocity": 87}, {"time": 410, "pitch": 62, "duration": 16, "velocity": 87}, {"time": 434, "pitch": 59, "duration": 2, "velocity": 87}, {"time": 437, "pitch": 59, "duration": 2, "velocity": 87}, {"time": 440, "pitch": 66, "duration": 3, "velocity": 87}, {"time": 446, "pitch": 66, "duration": 6, "velocity": 87}, {"time": 452, "pitch": 64, "duration": 5, "velocity": 87}, {"time": 458, "pitch": 66, "duration": 6, "velocity": 87}, {"time": 464, "pitch": 59, "duration": 12, "velocity": 87}, {"time": 482, "pitch": 59, "duration": 1, "velocity": 87}, {"time": 485, "pitch": 59, "duration": 2, "velocity": 87}, {"time": 488, "pitch": 69, "duration": 2, "velocity": 87}, {"time": 494, "pitch": 69, "duration": 3, "velocity": 87}, {"time": 497, "pitch": 67, "duration": 2, "velocity": 85}, {"time": 500, "pitch": 69, "duration": 4, "velocity": 85}, {"time": 506, "pitch": 67, "duration": 2, "velocity": 85}, {"time": 509, "pitch": 69, "duration": 3, "velocity": 85}, {"time": 512, "pitch": 69, "duration": 12, "velocity": 90}, {"time": 530, "pitch": 66, "duration": 1, "velocity": 90}, {"time": 533, "pitch": 66, "duration": 2, "velocity": 90}, {"time": 536, "pitch": 74, "duration": 3, "velocity": 90}, {"time": 542, "pitch": 74, "duration": 2, "velocity": 90}, {"time": 548, "pitch": 74, "duration": 1, "velocity": 90}, {"time": 551, "pitch": 74, "duration": 2, "velocity": 90}, {"time": 557, "pitch": 74, "duration": 1, "velocity": 90}, {"time": 560, "pitch": 71, "duration": 6, "velocity": 90}, {"time": 566, "pitch": 69, "duration": 11, "velocity": 90}, {"time": 578, "pitch": 62, "duration": 5, "velocity": 90}, {"time": 584, "pitch": 67, "duration": 10, "velocity": 90}, {"time": 593, "pitch": 69, "duration": 9, "velocity": 90}, {"time": 602, "pitch": 71, "duration": 4, "velocity": 90}, {"time": 608, "pitch": 71, "duration": 13, "velocity": 90}, {"time": 626, "pitch": 62, "duration": 2, "velocity": 90}, {"time": 629, "pitch": 62, "duration": 2, "velocity": 90}, {"time": 632, "pitch": 67, "duration": 3, "velocity": 90}, {"time": 638, "pitch": 67, "duration": 3, "velocity": 90}, {"time": 644, "pitch": 67, "duration": 6, "velocity": 90}, {"time": 650, "pitch": 67, "duration": 1, "velocity": 90}, {"time": 656, "pitch": 67, "duration": 6, "velocity": 90}, {"time": 662, "pitch": 64, "duration": 9, "velocity": 90}, {"time": 674, "pitch": 62, "duration": 2, "velocity": 90}, {"time": 677, "pitch": 62, "duration": 2, "velocity": 90}, {"time": 680, "pitch": 67, "duration": 4, "velocity": 90}, {"time": 686, "pitch": 67, "duration": 5, "velocity": 90}, {"time": 692, "pitch": 67, "duration": 6, "velocity": 90}, {"time": 698, "pitch": 62, "duration": 2, "velocity": 90}, {"time": 704, "pitch": 62, "duration": 7, "velocity": 90}, {"time": 710, "pitch": 69, "duration": 8, "velocity": 90}, {"time": 722, "pitch": 62, "duration": 1, "velocity": 90}, {"time": 725, "pitch": 62, "duration": 2, "velocity": 90}, {"time": 728, "pitch": 72, "duration": 3, "velocity": 90}, {"time": 734, "pitch": 72, "duration": 5, "velocity": 90}, {"time": 740, "pitch": 71, "duration": 3, "velocity": 90}, {"time": 743, "pitch": 72, "duration": 10, "velocity": 90}, {"time": 752, "pitch": 69, "duration": 12, "velocity": 90}, {"time": 767, "pitch": 62, "duration": 1, "velocity": 90}, {"time": 770, "pitch": 62, "duration": 1, "velocity": 90}, {"time": 773, "pitch": 62, "duration": 2, "velocity": 90}, {"time": 776, "pitch": 67, "duration": 7, "velocity": 90}, {"time": 785, "pitch": 69, "duration": 10, "velocity": 90}, {"time": 794, "pitch": 71, "duration": 6, "velocity": 90}, {"time": 800, "pitch": 62, "duration": 11, "velocity": 90}, {"time": 815, "pitch": 59, "duration": 1, "velocity": 90}, {"time": 818, "pitch": 59, "duration": 2, "velocity": 90}, {"time": 821, "pitch": 59, "duration": 3, "velocity": 90}, {"time": 824, "pitch": 67, "duration": 6, "velocity": 90}, {"time": 830, "pitch": 66, "duration": 6, "velocity": 90}, {"time": 842, "pitch": 67, "duration": 6, "velocity": 90}, {"time": 848, "pitch": 59, "duration": 14, "velocity": 90}, {"time": 866, "pitch": 59, "duration": 2, "velocity": 90}, {"time": 869, "pitch": 59, "duration": 2, "velocity": 90}, {"time": 872, "pitch": 69, "duration": 2, "velocity": 90}, {"time": 878, "pitch": 69, "duration": 4, "velocity": 90}, {"time": 881, "pitch": 67, "duration": 2, "velocity": 90}, {"time": 884, "pitch": 69, "duration": 5, "velocity": 90}, {"time": 890, "pitch": 67, "duration": 2, "velocity": 90}, {"time": 893, "pitch": 69, "duration": 4, "velocity": 90}, {"time": 896, "pitch": 69, "duration": 1, "velocity": 90}, {"time": 914, "pitch": 66, "duration": 1, "velocity": 90}, {"time": 917, "pitch": 66, "duration": 2, "velocity": 90}, {"time": 920, "pitch": 74, "duration": 2, "velocity": 90}, {"time": 926, "pitch": 74, "duration": 2, "velocity": 90}, {"time": 932, "pitch": 74, "duration": 2, "velocity": 90}, {"time": 938, "pitch": 74, "duration": 1, "velocity": 90}, {"time": 941, "pitch": 74, "duration": 2, "velocity": 90}, {"time": 944, "pitch": 71, "duration": 8, "velocity": 90}, {"time": 953, "pitch": 69, "duration": 9, "velocity": 90}, {"time": 962, "pitch": 66, "duration": 2, "velocity": 90}, {"time": 965, "pitch": 66, "duration": 2, "velocity": 90}, {"time": 968, "pitch": 74, "duration": 9, "velocity": 90}, {"time": 977, "pitch": 71, "duration": 3, "velocity": 90}, {"time": 986, "pitch": 71, "duration": 6, "velocity": 90}, {"time": 989, "pitch": 69, "duration": 6, "velocity": 90}, {"time": 992, "pitch": 71, "duration": 12, "velocity": 90}, {"time": 1016, "pitch": 76, "duration": 8, "velocity": 90}, {"time": 1025, "pitch": 71, "duration": 5, "velocity": 90}, {"time": 1034, "pitch": 71, "duration": 3, "velocity": 90}, {"time": 1037, "pitch": 69, "duration": 3, "velocity": 90}, {"time": 1040, "pitch": 71, "duration": 6, "velocity": 90}, {"time": 1045, "pitch": 67, "duration": 9, "velocity": 90}, {"time": 1058, "pitch": 62, "duration": 1, "velocity": 90}, {"time": 1061, "pitch": 62, "duration": 2, "velocity": 90}, {"time": 1064, "pitch": 67, "duration": 3, "velocity": 90}, {"time": 1070, "pitch": 67, "duration": 1, "velocity": 90}, {"time": 1073, "pitch": 67, "duration": 1, "velocity": 90}, {"time": 1076, "pitch": 67, "duration": 2, "velocity": 90}, {"time": 1082, "pitch": 67, "duration": 1, "velocity": 90}, {"time": 1085, "pitch": 67, "duration": 1, "velocity": 90}, {"time": 1088, "pitch": 67, "duration": 5, "velocity": 90}, {"time": 1094, "pitch": 64, "duration": 6, "velocity": 90}, {"time": 1106, "pitch": 62, "duration": 2, "velocity": 87}, {"time": 1109, "pitch": 62, "duration": 2, "velocity": 87}, {"time": 1112, "pitch": 71, "duration": 3, "velocity": 87}, {"time": 1118, "pitch": 71, "duration": 2, "velocity": 87}, {"time": 1124, "pitch": 71, "duration": 1, "velocity": 87}, {"time": 1127, "pitch": 71, "duration": 6, "velocity": 87}, {"time": 1133, "pitch": 72, "duration": 3, "velocity": 87}, {"time": 1136, "pitch": 74, "duration": 5, "velocity": 87}, {"time": 1142, "pitch": 69, "duration": 12, "velocity": 87}, {"time": 1154, "pitch": 62, "duration": 5, "velocity": 87}, {"time": 1160, "pitch": 74, "duration": 10, "velocity": 87}, {"time": 1169, "pitch": 71, "duration": 6, "velocity": 87}, {"time": 1178, "pitch": 71, "duration": 5, "velocity": 87}, {"time": 1183, "pitch": 69, "duration": 5, "velocity": 87}, {"time": 1189, "pitch": 71, "duration": 12, "velocity": 87}, {"time": 1208, "pitch": 76, "duration": 9, "velocity": 87}, {"time": 1217, "pitch": 71, "duration": 6, "velocity": 87}, {"time": 1226, "pitch": 71, "duration": 3, "velocity": 87}, {"time": 1229, "pitch": 69, "duration": 3, "velocity": 87}, {"time": 1232, "pitch": 71, "duration": 8, "velocity": 87}, {"time": 1239, "pitch": 67, "duration": 10, "velocity": 87}, {"time": 1250, "pitch": 62, "duration": 2, "velocity": 87}, {"time": 1253, "pitch": 62, "duration": 2, "velocity": 87}, {"time": 1256, "pitch": 67, "duration": 4, "velocity": 87}, {"time": 1261, "pitch": 67, "duration": 2, "velocity": 87}, {"time": 1268, "pitch": 67, "duration": 2, "velocity": 87}, {"time": 1271, "pitch": 67, "duration": 2, "velocity": 87}, {"time": 1277, "pitch": 67, "duration": 2, "velocity": 87}, {"time": 1280, "pitch": 67, "duration": 5, "velocity": 87}, {"time": 1286, "pitch": 64, "duration": 6, "velocity": 87}, {"time": 1298, "pitch": 62, "duration": 1, "velocity": 87}, {"time": 1301, "pitch": 62, "duration": 2, "velocity": 87}, {"time": 1304, "pitch": 71, "duration": 4, "velocity": 87}, {"time": 1310, "pitch": 71, "duration": 4, "velocity": 87}, {"time": 1316, "pitch": 71, "duration": 2, "velocity": 87}, {"time": 1319, "pitch": 71, "duration": 6, "velocity": 87}, {"time": 1325, "pitch": 72, "duration": 3, "velocity": 87}, {"time": 1328, "pitch": 74, "duration": 5, "velocity": 87}, {"time": 1334, "pitch": 69, "duration": 18, "velocity": 87}, {"time": 1364, "pitch": 71, "duration": 6, "velocity": 87}, {"time": 1370, "pitch": 69, "duration": 6, "velocity": 87}, {"time": 1376, "pitch": 71, "duration": 9, "velocity": 87}, {"time": 1385, "pitch": 67, "duration": 26, "velocity": 87}, {"time": 1424, "pitch": 67, "duration": 6, "velocity": 87}, {"time": 1430, "pitch": 69, "duration": 6, "velocity": 87}, {"time": 1436, "pitch": 71, "duration": 4, "velocity": 87}, {"time": 1442, "pitch": 71, "duration": 23, "velocity": 87}, {"time": 1466, "pitch": 62, "duration": 2, "velocity": 87}, {"time": 1469, "pitch": 62, "duration": 3, "velocity": 87}, {"time": 1472, "pitch": 67, "duration": 4, "velocity": 87}, {"time": 1478, "pitch": 67, "duration": 3, "velocity": 87}, {"time": 1484, "pitch": 67, "duration": 3, "velocity": 87}, {"time": 1487, "pitch": 67, "duration": 3, "velocity": 87}, {"time": 1490, "pitch": 64, "duration": 17, "velocity": 87}, {"time": 1514, "pitch": 62, "duration": 2, "velocity": 87}, {"time": 1517, "pitch": 62, "duration": 2, "velocity": 87}, {"time": 1520, "pitch": 67, "duration": 3, "velocity": 87}, {"time": 1526, "pitch": 67, "duration": 6, "velocity": 87}, {"time": 1532, "pitch": 69, "duration": 6, "velocity": 87}, {"time": 1538, "pitch": 62, "duration": 5, "velocity": 87}, {"time": 1544, "pitch": 69, "duration": 12, "velocity": 87}, {"time": 1562, "pitch": 62, "duration": 1, "velocity": 87}, {"time": 1565, "pitch": 62, "duration": 2, "velocity": 87}, {"time": 1568, "pitch": 72, "duration": 6, "velocity": 87}, {"time": 1574, "pitch": 71, "duration": 10, "velocity": 87}, {"time": 1586, "pitch": 71, "duration": 6, "velocity": 87}, {"time": 1592, "pitch": 69, "duration": 12, "velocity": 87}, {"time": 1607, "pitch": 62, "duration": 1, "velocity": 87}, {"time": 1610, "pitch": 62, "duration": 2, "velocity": 87}, {"time": 1613, "pitch": 62, "duration": 2, "velocity": 87}, {"time": 1616, "pitch": 67, "duration": 6, "velocity": 87}, {"time": 1625, "pitch": 69, "duration": 6, "velocity": 87}, {"time": 1634, "pitch": 71, "duration": 6, "velocity": 87}, {"time": 1640, "pitch": 62, "duration": 15, "velocity": 87}, {"time": 1655, "pitch": 59, "duration": 1, "velocity": 87}, {"time": 1658, "pitch": 59, "duration": 2, "velocity": 87}, {"time": 1661, "pitch": 59, "duration": 2, "velocity": 87}, {"time": 1664, "pitch": 66, "duration": 5, "velocity": 87}, {"time": 1670, "pitch": 64, "duration": 6, "velocity": 87}, {"time": 1676, "pitch": 66, "duration": 6, "velocity": 87}, {"time": 1682, "pitch": 59, "duration": 18, "velocity": 87}, {"time": 1706, "pitch": 59, "duration": 1, "velocity": 87}, {"time": 1709, "pitch": 59, "duration": 2, "velocity": 87}, {"time": 1712, "pitch": 69, "duration": 2, "velocity": 87}, {"time": 1718, "pitch": 69, "duration": 3, "velocity": 87}, {"time": 1724, "pitch": 69, "duration": 2, "velocity": 87}, {"time": 1727, "pitch": 69, "duration": 1, "velocity": 87}, {"time": 1730, "pitch": 67, "duration": 2, "velocity": 87}, {"time": 1733, "pitch": 71, "duration": 3, "velocity": 87}, {"time": 1736, "pitch": 69, "duration": 12, "velocity": 87}, {"time": 1754, "pitch": 66, "duration": 1, "velocity": 87}, {"time": 1757, "pitch": 66, "duration": 2, "velocity": 87}, {"time": 1760, "pitch": 74, "duration": 3, "velocity": 87}, {"time": 1766, "pitch": 74, "duration": 2, "velocity": 87}, {"time": 1772, "pitch": 74, "duration": 1, "velocity": 87}, {"time": 1775, "pitch": 74, "duration": 2, "velocity": 87}, {"time": 1781, "pitch": 74, "duration": 1, "velocity": 87}, {"time": 1784, "pitch": 71, "duration": 6, "velocity": 87}, {"time": 1790, "pitch": 69, "duration": 11, "velocity": 87}, {"time": 1802, "pitch": 62, "duration": 5, "velocity": 87}, {"time": 1808, "pitch": 67, "duration": 10, "velocity": 87}, {"time": 1817, "pitch": 69, "duration": 9, "velocity": 87}, {"time": 1826, "pitch": 71, "duration": 4, "velocity": 87}, {"time": 1832, "pitch": 71, "duration": 13, "velocity": 87}, {"time": 1850, "pitch": 62, "duration": 2, "velocity": 87}, {"time": 1853, "pitch": 62, "duration": 2, "velocity": 87}, {"time": 1856, "pitch": 67, "duration": 3, "velocity": 87}, {"time": 1862, "pitch": 67, "duration": 3, "velocity": 87}, {"time": 1865, "pitch": 67, "duration": 5, "velocity": 87}, {"time": 1871, "pitch": 67, "duration": 2, "velocity": 87}, {"time": 1874, "pitch": 67, "duration": 5, "velocity": 87}, {"time": 1880, "pitch": 64, "duration": 12, "velocity": 87}, {"time": 1898, "pitch": 62, "duration": 2, "velocity": 87}, {"time": 1901, "pitch": 62, "duration": 2, "velocity": 87}, {"time": 1904, "pitch": 67, "duration": 4, "velocity": 87}, {"time": 1910, "pitch": 67, "duration": 5, "velocity": 87}, {"time": 1916, "pitch": 67, "duration": 6, "velocity": 87}, {"time": 1922, "pitch": 67, "duration": 2, "velocity": 87}, {"time": 1925, "pitch": 62, "duration": 3, "velocity": 87}, {"time": 1928, "pitch": 69, "duration": 12, "velocity": 87}, {"time": 1946, "pitch": 62, "duration": 3, "velocity": 87}, {"time": 1949, "pitch": 62, "duration": 2, "velocity": 87}, {"time": 1952, "pitch": 72, "duration": 3, "velocity": 87}, {"time": 1958, "pitch": 71, "duration": 5, "velocity": 87}, {"time": 1970, "pitch": 72, "duration": 6, "velocity": 87}, {"time": 1976, "pitch": 69, "duration": 12, "velocity": 87}, {"time": 1991, "pitch": 62, "duration": 1, "velocity": 87}, {"time": 1994, "pitch": 62, "duration": 1, "velocity": 87}, {"time": 1997, "pitch": 62, "duration": 2, "velocity": 87}, {"time": 2000, "pitch": 67, "duration": 7, "velocity": 87}, {"time": 2009, "pitch": 69, "duration": 10, "velocity": 87}, {"time": 2018, "pitch": 71, "duration": 6, "velocity": 87}, {"time": 2024, "pitch": 71, "duration": 1, "velocity": 87}, {"time": 2039, "pitch": 59, "duration": 1, "velocity": 87}, {"time": 2042, "pitch": 59, "duration": 2, "velocity": 87}, {"time": 2045, "pitch": 59, "duration": 3, "velocity": 87}, {"time": 2048, "pitch": 67, "duration": 6, "velocity": 87}, {"time": 2054, "pitch": 66, "duration": 6, "velocity": 87}, {"time": 2060, "pitch": 67, "duration": 6, "velocity": 87}, {"time": 2066, "pitch": 59, "duration": 14, "velocity": 87}, {"time": 2090, "pitch": 59, "duration": 2, "velocity": 87}, {"time": 2093, "pitch": 59, "duration": 2, "velocity": 87}, {"time": 2096, "pitch": 69, "duration": 2, "velocity": 87}, {"time": 2102, "pitch": 69, "duration": 4, "velocity": 87}, {"time": 2108, "pitch": 69, "duration": 3, "velocity": 87}, {"time": 2111, "pitch": 69, "duration": 5, "velocity": 87}, {"time": 2117, "pitch": 69, "duration": 4, "velocity": 87}, {"time": 2120, "pitch": 69, "duration": 1, "velocity": 87}, {"time": 2126, "pitch": 69, "duration": 6, "velocity": 87}, {"time": 2138, "pitch": 66, "duration": 1, "velocity": 87}, {"time": 2141, "pitch": 66, "duration": 2, "velocity": 87}, {"time": 2144, "pitch": 74, "duration": 2, "velocity": 87}, {"time": 2150, "pitch": 74, "duration": 2, "velocity": 87}, {"time": 2156, "pitch": 74, "duration": 2, "velocity": 87}, {"time": 2162, "pitch": 74, "duration": 1, "velocity": 87}, {"time": 2165, "pitch": 74, "duration": 2, "velocity": 87}, {"time": 2168, "pitch": 71, "duration": 8, "velocity": 87}, {"time": 2177, "pitch": 69, "duration": 9, "velocity": 87}, {"time": 2186, "pitch": 62, "duration": 6, "velocity": 87}, {"time": 2192, "pitch": 74, "duration": 9, "velocity": 87}, {"time": 2201, "pitch": 71, "duration": 3, "velocity": 87}, {"time": 2210, "pitch": 71, "duration": 6, "velocity": 87}, {"time": 2216, "pitch": 69, "duration": 6, "velocity": 87}, {"time": 2222, "pitch": 71, "duration": 6, "velocity": 87}, {"time": 2240, "pitch": 76, "duration": 8, "velocity": 87}, {"time": 2249, "pitch": 71, "duration": 3, "velocity": 87}, {"time": 2258, "pitch": 71, "duration": 3, "velocity": 87}, {"time": 2261, "pitch": 69, "duration": 3, "velocity": 87}, {"time": 2264, "pitch": 71, "duration": 6, "velocity": 87}, {"time": 2270, "pitch": 67, "duration": 7, "velocity": 87}, {"time": 2282, "pitch": 62, "duration": 6, "velocity": 87}, {"time": 2288, "pitch": 67, "duration": 3, "velocity": 87}, {"time": 2294, "pitch": 67, "duration": 1, "velocity": 87}, {"time": 2297, "pitch": 67, "duration": 1, "velocity": 87}, {"time": 2300, "pitch": 67, "duration": 2, "velocity": 87}, {"time": 2306, "pitch": 67, "duration": 1, "velocity": 87}, {"time": 2309, "pitch": 67, "duration": 1, "velocity": 87}, {"time": 2312, "pitch": 66, "duration": 5, "velocity": 87}, {"time": 2318, "pitch": 64, "duration": 6, "velocity": 87}, {"time": 2330, "pitch": 62, "duration": 2, "velocity": 87}, {"time": 2333, "pitch": 62, "duration": 2, "velocity": 87}, {"time": 2336, "pitch": 71, "duration": 3, "velocity": 87}, {"time": 2342, "pitch": 71, "duration": 1, "velocity": 87}, {"time": 2345, "pitch": 71, "duration": 1, "velocity": 87}, {"time": 2348, "pitch": 71, "duration": 6, "velocity": 87}, {"time": 2354, "pitch": 76, "duration": 6, "velocity": 87}, {"time": 2360, "pitch": 75, "duration": 5, "velocity": 87}, {"time": 2369, "pitch": 69, "duration": 10, "velocity": 87}, {"time": 2378, "pitch": 62, "duration": 5, "velocity": 87}, {"time": 2384, "pitch": 74, "duration": 10, "velocity": 87}, {"time": 2393, "pitch": 71, "duration": 3, "velocity": 87}, {"time": 2402, "pitch": 71, "duration": 4, "velocity": 87}, {"time": 2404, "pitch": 69, "duration": 4, "velocity": 87}, {"time": 2408, "pitch": 71, "duration": 12, "velocity": 87}, {"time": 2432, "pitch": 76, "duration": 9, "velocity": 87}, {"time": 2441, "pitch": 72, "duration": 9, "velocity": 87}, {"time": 2450, "pitch": 72, "duration": 3, "velocity": 87}, {"time": 2453, "pitch": 71, "duration": 3, "velocity": 87}, {"time": 2456, "pitch": 72, "duration": 5, "velocity": 87}, {"time": 2462, "pitch": 69, "duration": 11, "velocity": 87}, {"time": 2474, "pitch": 62, "duration": 2, "velocity": 87}, {"time": 2477, "pitch": 62, "duration": 2, "velocity": 87}, {"time": 2480, "pitch": 67, "duration": 3, "velocity": 85}, {"time": 2486, "pitch": 67, "duration": 2, "velocity": 85}, {"time": 2492, "pitch": 66, "duration": 2, "velocity": 85}, {"time": 2495, "pitch": 67, "duration": 2, "velocity": 85}, {"time": 2501, "pitch": 67, "duration": 2, "velocity": 85}, {"time": 2504, "pitch": 67, "duration": 5, "velocity": 85}, {"time": 2510, "pitch": 64, "duration": 6, "velocity": 85}, {"time": 2522, "pitch": 62, "duration": 1, "velocity": 85}, {"time": 2525, "pitch": 62, "duration": 2, "velocity": 85}, {"time": 2528, "pitch": 70, "duration": 2, "velocity": 85}, {"time": 2534, "pitch": 70, "duration": 2, "velocity": 85}, {"time": 2540, "pitch": 70, "duration": 2, "velocity": 85}, {"time": 2543, "pitch": 70, "duration": 4, "velocity": 85}, {"time": 2549, "pitch": 73, "duration": 3, "velocity": 85}, {"time": 2552, "pitch": 74, "duration": 9, "velocity": 85}, {"time": 2561, "pitch": 69, "duration": 14, "velocity": 83}, {"time": 2612, "pitch": 71, "duration": 1, "velocity": 83}, {"time": 2618, "pitch": 69, "duration": 6, "velocity": 83}, {"time": 2624, "pitch": 71, "duration": 15, "velocity": 83}, {"time": 2636, "pitch": 69, "duration": 6, "velocity": 83}, {"time": 2642, "pitch": 67, "duration": 24, "velocity": 83}, {"time": 2840, "pitch": 67, "duration": 5, "velocity": 83}, {"time": 2846, "pitch": 69, "duration": 6, "velocity": 83}, {"time": 2853, "pitch": 71, "duration": 5, "velocity": 83}, {"time": 2859, "pitch": 71, "duration": 10, "velocity": 83}, {"time": 2882, "pitch": 62, "duration": 4, "velocity": 83}, {"time": 2888, "pitch": 67, "duration": 5, "velocity": 83}, {"time": 2895, "pitch": 67, "duration": 2, "velocity": 83}, {"time": 2902, "pitch": 67, "duration": 9, "velocity": 83}, {"time": 2912, "pitch": 67, "duration": 5, "velocity": 83}, {"time": 2915, "pitch": 64, "duration": 7, "velocity": 83}, {"time": 2935, "pitch": 62, "duration": 2, "velocity": 83}, {"time": 2938, "pitch": 62, "duration": 3, "velocity": 83}, {"time": 2941, "pitch": 67, "duration": 3, "velocity": 83}, {"time": 2947, "pitch": 67, "duration": 9, "velocity": 83}, {"time": 2954, "pitch": 67, "duration": 2, "velocity": 83}, {"time": 2960, "pitch": 62, "duration": 4, "velocity": 83}, {"time": 2968, "pitch": 69, "duration": 6, "velocity": 83}, {"time": 2990, "pitch": 62, "duration": 2, "velocity": 83}, {"time": 2994, "pitch": 62, "duration": 2, "velocity": 83}, {"time": 2996, "pitch": 72, "duration": 6, "velocity": 83}, {"time": 3002, "pitch": 71, "duration": 14, "velocity": 83}, {"time": 3016, "pitch": 69, "duration": 6, "velocity": 83}, {"time": 3022, "pitch": 62, "duration": 18, "velocity": 83}, {"time": 3041, "pitch": 62, "duration": 2, "velocity": 83}, {"time": 3044, "pitch": 62, "duration": 2, "velocity": 83}, {"time": 3047, "pitch": 62, "duration": 3, "velocity": 83}, {"time": 3050, "pitch": 67, "duration": 8, "velocity": 83}, {"time": 3058, "pitch": 69, "duration": 7, "velocity": 83}, {"time": 3070, "pitch": 71, "duration": 6, "velocity": 83}, {"time": 3076, "pitch": 62, "duration": 15, "velocity": 83}, {"time": 3095, "pitch": 59, "duration": 1, "velocity": 83}, {"time": 3098, "pitch": 59, "duration": 2, "velocity": 83}, {"time": 3101, "pitch": 66, "duration": 5, "velocity": 83}, {"time": 3108, "pitch": 66, "duration": 5, "velocity": 83}, {"time": 3114, "pitch": 67, "duration": 8, "velocity": 83}, {"time": 3123, "pitch": 66, "duration": 4, "velocity": 83}, {"time": 3127, "pitch": 59, "duration": 15, "velocity": 83}, {"time": 3148, "pitch": 59, "duration": 1, "velocity": 83}, {"time": 3151, "pitch": 59, "duration": 1, "velocity": 83}, {"time": 3154, "pitch": 69, "duration": 3, "velocity": 83}, {"time": 3161, "pitch": 69, "duration": 4, "velocity": 83}, {"time": 3164, "pitch": 67, "duration": 4, "velocity": 83}, {"time": 3167, "pitch": 69, "duration": 5, "velocity": 83}, {"time": 3173, "pitch": 67, "duration": 4, "velocity": 83}, {"time": 3176, "pitch": 69, "duration": 4, "velocity": 83}, {"time": 3182, "pitch": 69, "duration": 15, "velocity": 83}, {"time": 3201, "pitch": 66, "duration": 2, "velocity": 83}, {"time": 3204, "pitch": 66, "duration": 2, "velocity": 83}, {"time": 3210, "pitch": 74, "duration": 5, "velocity": 83}, {"time": 3216, "pitch": 74, "duration": 5, "velocity": 83}, {"time": 3225, "pitch": 74, "duration": 4, "velocity": 83}, {"time": 3231, "pitch": 74, "duration": 7, "velocity": 83}, {"time": 3237, "pitch": 71, "duration": 7, "velocity": 83}, {"time": 3244, "pitch": 69, "duration": 46, "velocity": 83}, {"time": 3305, "pitch": 71, "duration": 21, "velocity": 83}, {"time": 3326, "pitch": 69, "duration": 9, "velocity": 83}, {"time": 3335, "pitch": 67, "duration": 43, "velocity": 83}]}, {"program": 0, "is_drum": false, "name": "PIANO", "notes": [{"time": 8, "pitch": 79, "duration": 2, "velocity": 65}, {"time": 8, "pitch": 55, "duration": 43, "velocity": 90}, {"time": 8, "pitch": 83, "duration": 4, "velocity": 88}, {"time": 9, "pitch": 86, "duration": 3, "velocity": 100}, {"time": 14, "pitch": 67, "duration": 6, "velocity": 100}, {"time": 20, "pitch": 74, "duration": 6, "velocity": 100}, {"time": 26, "pitch": 71, "duration": 8, "velocity": 100}, {"time": 56, "pitch": 77, "duration": 2, "velocity": 81}, {"time": 56, "pitch": 53, "duration": 44, "velocity": 81}, {"time": 56, "pitch": 81, "duration": 2, "velocity": 85}, {"time": 56, "pitch": 84, "duration": 10, "velocity": 89}, {"time": 62, "pitch": 65, "duration": 6, "velocity": 100}, {"time": 68, "pitch": 70, "duration": 6, "velocity": 100}, {"time": 74, "pitch": 72, "duration": 12, "velocity": 100}, {"time": 104, "pitch": 64, "duration": 4, "velocity": 100}, {"time": 104, "pitch": 48, "duration": 46, "velocity": 87}, {"time": 104, "pitch": 67, "duration": 4, "velocity": 100}, {"time": 105, "pitch": 72, "duration": 16, "velocity": 100}, {"time": 116, "pitch": 66, "duration": 8, "velocity": 100}, {"time": 122, "pitch": 67, "duration": 16, "velocity": 100}, {"time": 134, "pitch": 64, "duration": 8, "velocity": 100}, {"time": 152, "pitch": 48, "duration": 46, "velocity": 90}, {"time": 153, "pitch": 55, "duration": 44, "velocity": 90}, {"time": 155, "pitch": 60, "duration": 42, "velocity": 90}, {"time": 157, "pitch": 63, "duration": 41, "velocity": 90}, {"time": 159, "pitch": 67, "duration": 39, "velocity": 90}, {"time": 200, "pitch": 43, "duration": 40, "velocity": 58}, {"time": 206, "pitch": 50, "duration": 34, "velocity": 59}, {"time": 212, "pitch": 55, "duration": 15, "velocity": 88}, {"time": 218, "pitch": 59, "duration": 8, "velocity": 67}, {"time": 218, "pitch": 62, "duration": 14, "velocity": 75}, {"time": 218, "pitch": 67, "duration": 24, "velocity": 82}, {"time": 248, "pitch": 36, "duration": 38, "velocity": 82}, {"time": 254, "pitch": 57, "duration": 8, "velocity": 59}, {"time": 260, "pitch": 59, "duration": 17, "velocity": 70}, {"time": 296, "pitch": 43, "duration": 20, "velocity": 79}, {"time": 302, "pitch": 57, "duration": 6, "velocity": 82}, {"time": 308, "pitch": 59, "duration": 13, "velocity": 63}, {"time": 314, "pitch": 50, "duration": 5, "velocity": 68}, {"time": 320, "pitch": 38, "duration": 17, "velocity": 81}, {"time": 320, "pitch": 57, "duration": 10, "velocity": 70}, {"time": 326, "pitch": 45, "duration": 11, "velocity": 39}, {"time": 332, "pitch": 50, "duration": 6, "velocity": 63}, {"time": 332, "pitch": 62, "duration": 13, "velocity": 73}, {"time": 332, "pitch": 66, "duration": 13, "velocity": 86}, {"time": 338, "pitch": 57, "duration": 7, "velocity": 72}, {"time": 344, "pitch": 45, "duration": 15, "velocity": 67}, {"time": 350, "pitch": 52, "duration": 8, "velocity": 60}, {"time": 356, "pitch": 60, "duration": 13, "velocity": 79}, {"time": 356, "pitch": 64, "duration": 13, "velocity": 77}, {"time": 362, "pitch": 57, "duration": 14, "velocity": 79}, {"time": 368, "pitch": 38, "duration": 22, "velocity": 76}, {"time": 374, "pitch": 45, "duration": 15, "velocity": 62}, {"time": 380, "pitch": 62, "duration": 7, "velocity": 77}, {"time": 380, "pitch": 66, "duration": 13, "velocity": 95}, {"time": 383, "pitch": 50, "duration": 6, "velocity": 66}, {"time": 386, "pitch": 57, "duration": 7, "velocity": 89}, {"time": 389, "pitch": 62, "duration": 4, "velocity": 77}, {"time": 392, "pitch": 43, "duration": 43, "velocity": 90}, {"time": 398, "pitch": 55, "duration": 9, "velocity": 90}, {"time": 404, "pitch": 59, "duration": 12, "velocity": 90}, {"time": 410, "pitch": 55, "duration": 8, "velocity": 90}, {"time": 440, "pitch": 47, "duration": 44, "velocity": 90}, {"time": 446, "pitch": 59, "duration": 9, "velocity": 90}, {"time": 452, "pitch": 62, "duration": 12, "velocity": 90}, {"time": 458, "pitch": 66, "duration": 8, "velocity": 90}, {"time": 488, "pitch": 45, "duration": 42, "velocity": 90}, {"time": 494, "pitch": 57, "duration": 9, "velocity": 90}, {"time": 500, "pitch": 60, "duration": 8, "velocity": 90}, {"time": 506, "pitch": 57, "duration": 9, "velocity": 90}, {"time": 512, "pitch": 69, "duration": 7, "velocity": 90}, {"time": 536, "pitch": 50, "duration": 39, "velocity": 90}, {"time": 542, "pitch": 57, "duration": 9, "velocity": 90}, {"time": 548, "pitch": 62, "duration": 10, "velocity": 90}, {"time": 554, "pitch": 57, "duration": 6, "velocity": 90}, {"time": 557, "pitch": 66, "duration": 10, "velocity": 90}, {"time": 578, "pitch": 50, "duration": 6, "velocity": 100}, {"time": 584, "pitch": 55, "duration": 43, "velocity": 90}, {"time": 590, "pitch": 62, "duration": 8, "velocity": 90}, {"time": 596, "pitch": 67, "duration": 11, "velocity": 90}, {"time": 602, "pitch": 62, "duration": 7, "velocity": 90}, {"time": 608, "pitch": 71, "duration": 13, "velocity": 90}, {"time": 632, "pitch": 48, "duration": 43, "velocity": 90}, {"time": 638, "pitch": 55, "duration": 9, "velocity": 90}, {"time": 644, "pitch": 60, "duration": 11, "velocity": 90}, {"time": 650, "pitch": 55, "duration": 8, "velocity": 90}, {"time": 656, "pitch": 64, "duration": 12, "velocity": 90}, {"time": 680, "pitch": 43, "duration": 22, "velocity": 90}, {"time": 686, "pitch": 55, "duration": 9, "velocity": 90}, {"time": 692, "pitch": 59, "duration": 10, "velocity": 90}, {"time": 698, "pitch": 55, "duration": 4, "velocity": 90}, {"time": 704, "pitch": 50, "duration": 20, "velocity": 90}, {"time": 710, "pitch": 57, "duration": 8, "velocity": 90}, {"time": 716, "pitch": 62, "duration": 10, "velocity": 90}, {"time": 722, "pitch": 57, "duration": 4, "velocity": 90}, {"time": 728, "pitch": 45, "duration": 18, "velocity": 90}, {"time": 734, "pitch": 57, "duration": 8, "velocity": 90}, {"time": 740, "pitch": 60, "duration": 11, "velocity": 90}, {"time": 746, "pitch": 57, "duration": 5, "velocity": 90}, {"time": 752, "pitch": 50, "duration": 19, "velocity": 90}, {"time": 758, "pitch": 57, "duration": 8, "velocity": 90}, {"time": 764, "pitch": 62, "duration": 10, "velocity": 90}, {"time": 770, "pitch": 57, "duration": 4, "velocity": 90}, {"time": 776, "pitch": 43, "duration": 44, "velocity": 90}, {"time": 782, "pitch": 55, "duration": 8, "velocity": 90}, {"time": 788, "pitch": 62, "duration": 8, "velocity": 90}, {"time": 794, "pitch": 55, "duration": 5, "velocity": 90}, {"time": 800, "pitch": 59, "duration": 10, "velocity": 90}, {"time": 824, "pitch": 52, "duration": 43, "velocity": 90}, {"time": 830, "pitch": 59, "duration": 8, "velocity": 90}, {"time": 836, "pitch": 64, "duration": 8, "velocity": 90}, {"time": 842, "pitch": 59, "duration": 8, "velocity": 90}, {"time": 848, "pitch": 67, "duration": 8, "velocity": 90}, {"time": 854, "pitch": 59, "duration": 8, "velocity": 90}, {"time": 859, "pitch": 71, "duration": 8, "velocity": 90}, {"time": 866, "pitch": 59, "duration": 4, "velocity": 90}, {"time": 872, "pitch": 45, "duration": 43, "velocity": 90}, {"time": 878, "pitch": 57, "duration": 8, "velocity": 90}, {"time": 884, "pitch": 60, "duration": 9, "velocity": 90}, {"time": 890, "pitch": 57, "duration": 10, "velocity": 90}, {"time": 896, "pitch": 64, "duration": 11, "velocity": 90}, {"time": 902, "pitch": 57, "duration": 7, "velocity": 90}, {"time": 908, "pitch": 69, "duration": 8, "velocity": 90}, {"time": 914, "pitch": 57, "duration": 3, "velocity": 90}, {"time": 920, "pitch": 50, "duration": 4, "velocity": 90}, {"time": 920, "pitch": 57, "duration": 3, "velocity": 90}, {"time": 920, "pitch": 62, "duration": 3, "velocity": 90}, {"time": 920, "pitch": 66, "duration": 3, "velocity": 90}, {"time": 920, "pitch": 69, "duration": 3, "velocity": 90}, {"time": 926, "pitch": 50, "duration": 3, "velocity": 90}, {"time": 926, "pitch": 57, "duration": 3, "velocity": 90}, {"time": 926, "pitch": 62, "duration": 3, "velocity": 90}, {"time": 926, "pitch": 66, "duration": 3, "velocity": 90}, {"time": 926, "pitch": 69, "duration": 3, "velocity": 90}, {"time": 932, "pitch": 50, "duration": 3, "velocity": 90}, {"time": 932, "pitch": 57, "duration": 3, "velocity": 90}, {"time": 932, "pitch": 62, "duration": 2, "velocity": 90}, {"time": 932, "pitch": 66, "duration": 2, "velocity": 90}, {"time": 932, "pitch": 69, "duration": 3, "velocity": 90}, {"time": 938, "pitch": 50, "duration": 3, "velocity": 90}, {"time": 938, "pitch": 57, "duration": 3, "velocity": 90}, {"time": 938, "pitch": 62, "duration": 2, "velocity": 90}, {"time": 938, "pitch": 66, "duration": 2, "velocity": 90}, {"time": 938, "pitch": 69, "duration": 2, "velocity": 90}, {"time": 944, "pitch": 50, "duration": 2, "velocity": 90}, {"time": 944, "pitch": 57, "duration": 2, "velocity": 90}, {"time": 944, "pitch": 62, "duration": 2, "velocity": 90}, {"time": 944, "pitch": 66, "duration": 3, "velocity": 90}, {"time": 944, "pitch": 69, "duration": 3, "velocity": 90}, {"time": 950, "pitch": 50, "duration": 3, "velocity": 90}, {"time": 950, "pitch": 57, "duration": 3, "velocity": 90}, {"time": 950, "pitch": 62, "duration": 3, "velocity": 90}, {"time": 950, "pitch": 66, "duration": 3, "velocity": 90}, {"time": 950, "pitch": 69, "duration": 3, "velocity": 90}, {"time": 956, "pitch": 50, "duration": 3, "velocity": 90}, {"time": 956, "pitch": 57, "duration": 3, "velocity": 90}, {"time": 956, "pitch": 62, "duration": 2, "velocity": 90}, {"time": 956, "pitch": 66, "duration": 3, "velocity": 90}, {"time": 956, "pitch": 69, "duration": 3, "velocity": 90}, {"time": 962, "pitch": 50, "duration": 2, "velocity": 90}, {"time": 962, "pitch": 57, "duration": 2, "velocity": 90}, {"time": 962, "pitch": 62, "duration": 2, "velocity": 90}, {"time": 962, "pitch": 66, "duration": 3, "velocity": 90}, {"time": 962, "pitch": 69, "duration": 2, "velocity": 90}, {"time": 968, "pitch": 43, "duration": 40, "velocity": 80}, {"time": 968, "pitch": 55, "duration": 13, "velocity": 85}, {"time": 968, "pitch": 59, "duration": 3, "velocity": 90}, {"time": 968, "pitch": 62, "duration": 4, "velocity": 87}, {"time": 968, "pitch": 67, "duration": 3, "velocity": 87}, {"time": 974, "pitch": 59, "duration": 2, "velocity": 67}, {"time": 974, "pitch": 62, "duration": 2, "velocity": 43}, {"time": 974, "pitch": 67, "duration": 2, "velocity": 55}, {"time": 980, "pitch": 59, "duration": 3, "velocity": 88}, {"time": 980, "pitch": 62, "duration": 3, "velocity": 85}, {"time": 980, "pitch": 67, "duration": 3, "velocity": 82}, {"time": 986, "pitch": 59, "duration": 2, "velocity": 62}, {"time": 986, "pitch": 62, "duration": 2, "velocity": 63}, {"time": 986, "pitch": 67, "duration": 1, "velocity": 67}, {"time": 989, "pitch": 55, "duration": 10, "velocity": 67}, {"time": 992, "pitch": 59, "duration": 3, "velocity": 95}, {"time": 992, "pitch": 62, "duration": 3, "velocity": 85}, {"time": 992, "pitch": 67, "duration": 3, "velocity": 87}, {"time": 998, "pitch": 59, "duration": 1, "velocity": 61}, {"time": 998, "pitch": 62, "duration": 2, "velocity": 53}, {"time": 998, "pitch": 67, "duration": 2, "velocity": 55}, {"time": 1001, "pitch": 55, "duration": 4, "velocity": 88}, {"time": 1004, "pitch": 59, "duration": 7, "velocity": 95}, {"time": 1004, "pitch": 62, "duration": 8, "velocity": 91}, {"time": 1004, "pitch": 67, "duration": 8, "velocity": 92}, {"time": 1007, "pitch": 55, "duration": 1, "velocity": 80}, {"time": 1010, "pitch": 42, "duration": 1, "velocity": 80}, {"time": 1010, "pitch": 54, "duration": 1, "velocity": 80}, {"time": 1016, "pitch": 40, "duration": 37, "velocity": 95}, {"time": 1016, "pitch": 52, "duration": 7, "velocity": 95}, {"time": 1016, "pitch": 59, "duration": 4, "velocity": 81}, {"time": 1016, "pitch": 64, "duration": 1, "velocity": 75}, {"time": 1016, "pitch": 67, "duration": 4, "velocity": 83}, {"time": 1022, "pitch": 59, "duration": 1, "velocity": 61}, {"time": 1022, "pitch": 64, "duration": 1, "velocity": 63}, {"time": 1022, "pitch": 67, "duration": 2, "velocity": 56}, {"time": 1025, "pitch": 52, "duration": 9, "velocity": 61}, {"time": 1028, "pitch": 59, "duration": 3, "velocity": 95}, {"time": 1028, "pitch": 64, "duration": 3, "velocity": 88}, {"time": 1028, "pitch": 67, "duration": 4, "velocity": 89}, {"time": 1034, "pitch": 59, "duration": 2, "velocity": 72}, {"time": 1034, "pitch": 64, "duration": 2, "velocity": 75}, {"time": 1034, "pitch": 67, "duration": 2, "velocity": 73}, {"time": 1037, "pitch": 52, "duration": 10, "velocity": 76}, {"time": 1040, "pitch": 59, "duration": 2, "velocity": 102}, {"time": 1040, "pitch": 64, "duration": 3, "velocity": 90}, {"time": 1040, "pitch": 67, "duration": 3, "velocity": 87}, {"time": 1046, "pitch": 59, "duration": 2, "velocity": 87}, {"time": 1046, "pitch": 64, "duration": 2, "velocity": 71}, {"time": 1046, "pitch": 67, "duration": 3, "velocity": 78}, {"time": 1049, "pitch": 52, "duration": 7, "velocity": 97}, {"time": 1052, "pitch": 59, "duration": 7, "velocity": 100}, {"time": 1052, "pitch": 64, "duration": 8, "velocity": 97}, {"time": 1052, "pitch": 67, "duration": 8, "velocity": 90}, {"time": 1055, "pitch": 40, "duration": 3, "velocity": 74}, {"time": 1058, "pitch": 50, "duration": 2, "velocity": 83}, {"time": 1058, "pitch": 52, "duration": 2, "velocity": 81}, {"time": 1061, "pitch": 38, "duration": 2, "velocity": 100}, {"time": 1064, "pitch": 36, "duration": 45, "velocity": 107}, {"time": 1064, "pitch": 48, "duration": 7, "velocity": 106}, {"time": 1064, "pitch": 60, "duration": 1, "velocity": 62}, {"time": 1070, "pitch": 55, "duration": 2, "velocity": 58}, {"time": 1070, "pitch": 60, "duration": 1, "velocity": 56}, {"time": 1070, "pitch": 64, "duration": 2, "velocity": 61}, {"time": 1070, "pitch": 67, "duration": 1, "velocity": 61}, {"time": 1073, "pitch": 48, "duration": 9, "velocity": 64}, {"time": 1076, "pitch": 55, "duration": 3, "velocity": 106}, {"time": 1076, "pitch": 60, "duration": 3, "velocity": 90}, {"time": 1076, "pitch": 64, "duration": 3, "velocity": 85}, {"time": 1076, "pitch": 67, "duration": 3, "velocity": 93}, {"time": 1082, "pitch": 55, "duration": 1, "velocity": 76}, {"time": 1082, "pitch": 60, "duration": 1, "velocity": 63}, {"time": 1082, "pitch": 64, "duration": 1, "velocity": 48}, {"time": 1082, "pitch": 67, "duration": 1, "velocity": 66}, {"time": 1085, "pitch": 48, "duration": 9, "velocity": 72}, {"time": 1088, "pitch": 55, "duration": 3, "velocity": 88}, {"time": 1088, "pitch": 60, "duration": 3, "velocity": 72}, {"time": 1088, "pitch": 64, "duration": 3, "velocity": 71}, {"time": 1088, "pitch": 67, "duration": 3, "velocity": 74}, {"time": 1094, "pitch": 55, "duration": 3, "velocity": 90}, {"time": 1094, "pitch": 60, "duration": 3, "velocity": 69}, {"time": 1094, "pitch": 64, "duration": 3, "velocity": 72}, {"time": 1094, "pitch": 67, "duration": 2, "velocity": 74}, {"time": 1097, "pitch": 48, "duration": 4, "velocity": 90}, {"time": 1100, "pitch": 55, "duration": 3, "velocity": 100}, {"time": 1100, "pitch": 60, "duration": 4, "velocity": 87}, {"time": 1100, "pitch": 64, "duration": 9, "velocity": 87}, {"time": 1100, "pitch": 67, "duration": 3, "velocity": 87}, {"time": 1103, "pitch": 48, "duration": 4, "velocity": 76}, {"time": 1106, "pitch": 57, "duration": 2, "velocity": 80}, {"time": 1106, "pitch": 60, "duration": 1, "velocity": 35}, {"time": 1106, "pitch": 69, "duration": 2, "velocity": 87}, {"time": 1109, "pitch": 48, "duration": 1, "velocity": 77}, {"time": 1112, "pitch": 35, "duration": 36, "velocity": 107}, {"time": 1112, "pitch": 47, "duration": 7, "velocity": 106}, {"time": 1118, "pitch": 59, "duration": 2, "velocity": 54}, {"time": 1118, "pitch": 66, "duration": 1, "velocity": 52}, {"time": 1118, "pitch": 71, "duration": 2, "velocity": 63}, {"time": 1121, "pitch": 47, "duration": 8, "velocity": 75}, {"time": 1124, "pitch": 59, "duration": 3, "velocity": 108}, {"time": 1124, "pitch": 63, "duration": 4, "velocity": 92}, {"time": 1124, "pitch": 66, "duration": 8, "velocity": 95}, {"time": 1124, "pitch": 71, "duration": 4, "velocity": 106}, {"time": 1130, "pitch": 60, "duration": 2, "velocity": 79}, {"time": 1130, "pitch": 63, "duration": 2, "velocity": 45}, {"time": 1130, "pitch": 72, "duration": 2, "velocity": 83}, {"time": 1133, "pitch": 47, "duration": 5, "velocity": 72}, {"time": 1136, "pitch": 59, "duration": 4, "velocity": 102}, {"time": 1136, "pitch": 63, "duration": 4, "velocity": 90}, {"time": 1136, "pitch": 66, "duration": 5, "velocity": 84}, {"time": 1136, "pitch": 71, "duration": 4, "velocity": 100}, {"time": 1142, "pitch": 63, "duration": 4, "velocity": 90}, {"time": 1142, "pitch": 66, "duration": 2, "velocity": 84}, {"time": 1142, "pitch": 71, "duration": 2, "velocity": 100}, {"time": 1145, "pitch": 47, "duration": 7, "velocity": 92}, {"time": 1148, "pitch": 63, "duration": 4, "velocity": 90}, {"time": 1148, "pitch": 66, "duration": 2, "velocity": 84}, {"time": 1148, "pitch": 71, "duration": 2, "velocity": 100}, {"time": 1154, "pitch": 35, "duration": 4, "velocity": 100}, {"time": 1154, "pitch": 47, "duration": 4, "velocity": 100}, {"time": 1154, "pitch": 66, "duration": 3, "velocity": 95}, {"time": 1160, "pitch": 43, "duration": 42, "velocity": 94}, {"time": 1160, "pitch": 55, "duration": 6, "velocity": 87}, {"time": 1160, "pitch": 59, "duration": 1, "velocity": 69}, {"time": 1160, "pitch": 67, "duration": 2, "velocity": 84}, {"time": 1166, "pitch": 59, "duration": 2, "velocity": 80}, {"time": 1166, "pitch": 62, "duration": 2, "velocity": 77}, {"time": 1166, "pitch": 67, "duration": 2, "velocity": 78}, {"time": 1169, "pitch": 55, "duration": 9, "velocity": 79}, {"time": 1172, "pitch": 59, "duration": 4, "velocity": 108}, {"time": 1172, "pitch": 62, "duration": 4, "velocity": 102}, {"time": 1172, "pitch": 67, "duration": 4, "velocity": 106}, {"time": 1178, "pitch": 59, "duration": 1, "velocity": 69}, {"time": 1178, "pitch": 62, "duration": 1, "velocity": 51}, {"time": 1178, "pitch": 67, "duration": 1, "velocity": 53}, {"time": 1181, "pitch": 55, "duration": 5, "velocity": 68}, {"time": 1184, "pitch": 59, "duration": 6, "velocity": 87}, {"time": 1184, "pitch": 62, "duration": 6, "velocity": 72}, {"time": 1184, "pitch": 67, "duration": 6, "velocity": 80}, {"time": 1184, "pitch": 71, "duration": 6, "velocity": 93}, {"time": 1190, "pitch": 55, "duration": 4, "velocity": 67}, {"time": 1193, "pitch": 59, "duration": 4, "velocity": 99}, {"time": 1193, "pitch": 62, "duration": 4, "velocity": 91}, {"time": 1193, "pitch": 69, "duration": 4, "velocity": 99}, {"time": 1196, "pitch": 55, "duration": 4, "velocity": 83}, {"time": 1199, "pitch": 59, "duration": 5, "velocity": 95}, {"time": 1199, "pitch": 62, "duration": 5, "velocity": 83}, {"time": 1199, "pitch": 67, "duration": 5, "velocity": 96}, {"time": 1202, "pitch": 55, "duration": 3, "velocity": 64}, {"time": 1205, "pitch": 43, "duration": 1, "velocity": 68}, {"time": 1208, "pitch": 40, "duration": 37, "velocity": 98}, {"time": 1208, "pitch": 52, "duration": 6, "velocity": 102}, {"time": 1208, "pitch": 59, "duration": 4, "velocity": 100}, {"time": 1208, "pitch": 62, "duration": 4, "velocity": 94}, {"time": 1208, "pitch": 67, "duration": 4, "velocity": 96}, {"time": 1214, "pitch": 59, "duration": 2, "velocity": 65}, {"time": 1214, "pitch": 64, "duration": 2, "velocity": 72}, {"time": 1214, "pitch": 67, "duration": 3, "velocity": 58}, {"time": 1217, "pitch": 52, "duration": 9, "velocity": 85}, {"time": 1220, "pitch": 59, "duration": 3, "velocity": 108}, {"time": 1220, "pitch": 64, "duration": 4, "velocity": 99}, {"time": 1220, "pitch": 67, "duration": 4, "velocity": 102}, {"time": 1226, "pitch": 59, "duration": 2, "velocity": 90}, {"time": 1226, "pitch": 64, "duration": 2, "velocity": 81}, {"time": 1226, "pitch": 67, "duration": 2, "velocity": 84}, {"time": 1229, "pitch": 52, "duration": 10, "velocity": 80}, {"time": 1232, "pitch": 59, "duration": 3, "velocity": 102}, {"time": 1232, "pitch": 64, "duration": 3, "velocity": 91}, {"time": 1232, "pitch": 67, "duration": 3, "velocity": 95}, {"time": 1238, "pitch": 59, "duration": 2, "velocity": 81}, {"time": 1238, "pitch": 64, "duration": 2, "velocity": 75}, {"time": 1238, "pitch": 67, "duration": 2, "velocity": 76}, {"time": 1241, "pitch": 52, "duration": 5, "velocity": 102}, {"time": 1244, "pitch": 59, "duration": 8, "velocity": 110}, {"time": 1244, "pitch": 64, "duration": 8, "velocity": 104}, {"time": 1244, "pitch": 67, "duration": 8, "velocity": 104}, {"time": 1247, "pitch": 40, "duration": 2, "velocity": 71}, {"time": 1247, "pitch": 52, "duration": 2, "velocity": 84}, {"time": 1250, "pitch": 38, "duration": 1, "velocity": 105}, {"time": 1250, "pitch": 50, "duration": 2, "velocity": 108}, {"time": 1253, "pitch": 38, "duration": 1, "velocity": 84}, {"time": 1253, "pitch": 50, "duration": 1, "velocity": 91}, {"time": 1256, "pitch": 36, "duration": 41, "velocity": 109}, {"time": 1256, "pitch": 48, "duration": 7, "velocity": 108}, {"time": 1256, "pitch": 55, "duration": 4, "velocity": 102}, {"time": 1256, "pitch": 60, "duration": 4, "velocity": 77}, {"time": 1256, "pitch": 64, "duration": 4, "velocity": 85}, {"time": 1256, "pitch": 67, "duration": 4, "velocity": 93}, {"time": 1262, "pitch": 55, "duration": 2, "velocity": 77}, {"time": 1262, "pitch": 60, "duration": 2, "velocity": 67}, {"time": 1262, "pitch": 64, "duration": 2, "velocity": 67}, {"time": 1262, "pitch": 67, "duration": 2, "velocity": 70}, {"time": 1265, "pitch": 48, "duration": 9, "velocity": 83}, {"time": 1268, "pitch": 55, "duration": 4, "velocity": 111}, {"time": 1268, "pitch": 60, "duration": 4, "velocity": 100}, {"time": 1268, "pitch": 64, "duration": 4, "velocity": 94}, {"time": 1268, "pitch": 67, "duration": 4, "velocity": 102}, {"time": 1274, "pitch": 55, "duration": 2, "velocity": 79}, {"time": 1274, "pitch": 60, "duration": 4, "velocity": 50}, {"time": 1274, "pitch": 64, "duration": 3, "velocity": 56}, {"time": 1274, "pitch": 67, "duration": 3, "velocity": 62}, {"time": 1277, "pitch": 48, "duration": 5, "velocity": 80}, {"time": 1280, "pitch": 57, "duration": 7, "velocity": 94}, {"time": 1280, "pitch": 69, "duration": 5, "velocity": 95}, {"time": 1286, "pitch": 48, "duration": 2, "velocity": 71}, {"time": 1289, "pitch": 48, "duration": 4, "velocity": 102}, {"time": 1292, "pitch": 55, "duration": 6, "velocity": 108}, {"time": 1292, "pitch": 60, "duration": 7, "velocity": 94}, {"time": 1292, "pitch": 64, "duration": 7, "velocity": 88}, {"time": 1292, "pitch": 67, "duration": 7, "velocity": 99}, {"time": 1295, "pitch": 48, "duration": 6, "velocity": 88}, {"time": 1298, "pitch": 36, "duration": 2, "velocity": 88}, {"time": 1301, "pitch": 36, "duration": 1, "velocity": 91}, {"time": 1304, "pitch": 35, "duration": 17, "velocity": 100}, {"time": 1304, "pitch": 47, "duration": 6, "velocity": 92}, {"time": 1304, "pitch": 59, "duration": 4, "velocity": 99}, {"time": 1304, "pitch": 63, "duration": 4, "velocity": 87}, {"time": 1304, "pitch": 66, "duration": 4, "velocity": 91}, {"time": 1304, "pitch": 71, "duration": 4, "velocity": 96}, {"time": 1310, "pitch": 59, "duration": 3, "velocity": 67}, {"time": 1310, "pitch": 63, "duration": 3, "velocity": 68}, {"time": 1310, "pitch": 66, "duration": 3, "velocity": 64}, {"time": 1310, "pitch": 71, "duration": 3, "velocity": 64}, {"time": 1313, "pitch": 47, "duration": 5, "velocity": 74}, {"time": 1316, "pitch": 59, "duration": 4, "velocity": 111}, {"time": 1316, "pitch": 63, "duration": 4, "velocity": 97}, {"time": 1316, "pitch": 66, "duration": 4, "velocity": 94}, {"time": 1316, "pitch": 71, "duration": 4, "velocity": 102}, {"time": 1319, "pitch": 47, "duration": 7, "velocity": 88}, {"time": 1322, "pitch": 59, "duration": 1, "velocity": 87}, {"time": 1322, "pitch": 63, "duration": 1, "velocity": 53}, {"time": 1322, "pitch": 66, "duration": 1, "velocity": 66}, {"time": 1322, "pitch": 71, "duration": 2, "velocity": 76}, {"time": 1325, "pitch": 35, "duration": 1, "velocity": 89}, {"time": 1328, "pitch": 38, "duration": 19, "velocity": 105}, {"time": 1328, "pitch": 50, "duration": 10, "velocity": 104}, {"time": 1328, "pitch": 62, "duration": 4, "velocity": 100}, {"time": 1328, "pitch": 66, "duration": 4, "velocity": 95}, {"time": 1328, "pitch": 69, "duration": 4, "velocity": 99}, {"time": 1328, "pitch": 74, "duration": 5, "velocity": 104}, {"time": 1337, "pitch": 62, "duration": 7, "velocity": 111}, {"time": 1337, "pitch": 66, "duration": 7, "velocity": 107}, {"time": 1337, "pitch": 69, "duration": 7, "velocity": 95}, {"time": 1337, "pitch": 74, "duration": 6, "velocity": 110}, {"time": 1343, "pitch": 50, "duration": 6, "velocity": 95}, {"time": 1346, "pitch": 62, "duration": 3, "velocity": 108}, {"time": 1346, "pitch": 66, "duration": 3, "velocity": 95}, {"time": 1346, "pitch": 69, "duration": 3, "velocity": 93}, {"time": 1346, "pitch": 74, "duration": 4, "velocity": 104}, {"time": 1349, "pitch": 38, "duration": 1, "velocity": 83}, {"time": 1352, "pitch": 38, "duration": 18, "velocity": 67}, {"time": 1352, "pitch": 50, "duration": 2, "velocity": 67}, {"time": 1352, "pitch": 78, "duration": 6, "velocity": 91}, {"time": 1355, "pitch": 50, "duration": 1, "velocity": 64}, {"time": 1358, "pitch": 50, "duration": 4, "velocity": 67}, {"time": 1358, "pitch": 74, "duration": 6, "velocity": 83}, {"time": 1364, "pitch": 50, "duration": 10, "velocity": 62}, {"time": 1364, "pitch": 69, "duration": 2, "velocity": 84}, {"time": 1370, "pitch": 38, "duration": 4, "velocity": 56}, {"time": 1370, "pitch": 66, "duration": 4, "velocity": 86}, {"time": 1376, "pitch": 43, "duration": 21, "velocity": 90}, {"time": 1376, "pitch": 55, "duration": 18, "velocity": 100}, {"time": 1412, "pitch": 43, "duration": 10, "velocity": 90}, {"time": 1424, "pitch": 43, "duration": 44, "velocity": 90}, {"time": 1430, "pitch": 55, "duration": 9, "velocity": 90}, {"time": 1436, "pitch": 59, "duration": 8, "velocity": 90}, {"time": 1442, "pitch": 55, "duration": 8, "velocity": 90}, {"time": 1448, "pitch": 62, "duration": 8, "velocity": 90}, {"time": 1454, "pitch": 55, "duration": 7, "velocity": 90}, {"time": 1460, "pitch": 67, "duration": 11, "velocity": 90}, {"time": 1466, "pitch": 55, "duration": 5, "velocity": 90}, {"time": 1472, "pitch": 48, "duration": 43, "velocity": 90}, {"time": 1478, "pitch": 55, "duration": 8, "velocity": 90}, {"time": 1484, "pitch": 60, "duration": 8, "velocity": 90}, {"time": 1490, "pitch": 55, "duration": 7, "velocity": 90}, {"time": 1496, "pitch": 64, "duration": 12, "velocity": 90}, {"time": 1502, "pitch": 55, "duration": 7, "velocity": 90}, {"time": 1508, "pitch": 67, "duration": 12, "velocity": 90}, {"time": 1514, "pitch": 55, "duration": 4, "velocity": 90}, {"time": 1520, "pitch": 43, "duration": 19, "velocity": 90}, {"time": 1526, "pitch": 55, "duration": 9, "velocity": 90}, {"time": 1532, "pitch": 59, "duration": 12, "velocity": 90}, {"time": 1538, "pitch": 55, "duration": 5, "velocity": 90}, {"time": 1544, "pitch": 50, "duration": 19, "velocity": 90}, {"time": 1550, "pitch": 57, "duration": 8, "velocity": 90}, {"time": 1556, "pitch": 62, "duration": 12, "velocity": 90}, {"time": 1562, "pitch": 57, "duration": 6, "velocity": 90}, {"time": 1568, "pitch": 45, "duration": 18, "velocity": 90}, {"time": 1574, "pitch": 57, "duration": 8, "velocity": 90}, {"time": 1580, "pitch": 60, "duration": 8, "velocity": 90}, {"time": 1586, "pitch": 57, "duration": 5, "velocity": 90}, {"time": 1592, "pitch": 50, "duration": 24, "velocity": 90}, {"time": 1598, "pitch": 57, "duration": 8, "velocity": 90}, {"time": 1604, "pitch": 62, "duration": 13, "velocity": 90}, {"time": 1610, "pitch": 57, "duration": 5, "velocity": 90}, {"time": 1616, "pitch": 43, "duration": 43, "velocity": 90}, {"time": 1622, "pitch": 55, "duration": 10, "velocity": 90}, {"time": 1628, "pitch": 59, "duration": 8, "velocity": 90}, {"time": 1634, "pitch": 55, "duration": 8, "velocity": 90}, {"time": 1640, "pitch": 62, "duration": 8, "velocity": 90}, {"time": 1646, "pitch": 55, "duration": 7, "velocity": 90}, {"time": 1652, "pitch": 67, "duration": 9, "velocity": 90}, {"time": 1658, "pitch": 55, "duration": 5, "velocity": 90}, {"time": 1664, "pitch": 47, "duration": 45, "velocity": 90}, {"time": 1670, "pitch": 59, "duration": 9, "velocity": 90}, {"time": 1676, "pitch": 62, "duration": 13, "velocity": 90}, {"time": 1682, "pitch": 59, "duration": 8, "velocity": 90}, {"time": 1688, "pitch": 66, "duration": 12, "velocity": 90}, {"time": 1694, "pitch": 59, "duration": 7, "velocity": 90}, {"time": 1700, "pitch": 71, "duration": 8, "velocity": 90}, {"time": 1706, "pitch": 59, "duration": 6, "velocity": 90}, {"time": 1712, "pitch": 45, "duration": 42, "velocity": 90}, {"time": 1718, "pitch": 57, "duration": 9, "velocity": 90}, {"time": 1724, "pitch": 60, "duration": 13, "velocity": 90}, {"time": 1730, "pitch": 57, "duration": 10, "velocity": 90}, {"time": 1736, "pitch": 64, "duration": 13, "velocity": 90}, {"time": 1742, "pitch": 57, "duration": 6, "velocity": 90}, {"time": 1748, "pitch": 69, "duration": 11, "velocity": 90}, {"time": 1754, "pitch": 57, "duration": 5, "velocity": 90}, {"time": 1760, "pitch": 50, "duration": 43, "velocity": 90}, {"time": 1766, "pitch": 57, "duration": 9, "velocity": 90}, {"time": 1772, "pitch": 62, "duration": 12, "velocity": 90}, {"time": 1778, "pitch": 57, "duration": 7, "velocity": 90}, {"time": 1784, "pitch": 66, "duration": 11, "velocity": 90}, {"time": 1790, "pitch": 57, "duration": 6, "velocity": 90}, {"time": 1796, "pitch": 69, "duration": 7, "velocity": 90}, {"time": 1802, "pitch": 57, "duration": 6, "velocity": 90}, {"time": 1808, "pitch": 43, "duration": 43, "velocity": 90}, {"time": 1814, "pitch": 55, "duration": 9, "velocity": 90}, {"time": 1820, "pitch": 59, "duration": 10, "velocity": 90}, {"time": 1826, "pitch": 55, "duration": 9, "velocity": 90}, {"time": 1832, "pitch": 62, "duration": 11, "velocity": 90}, {"time": 1838, "pitch": 55, "duration": 7, "velocity": 90}, {"time": 1844, "pitch": 67, "duration": 13, "velocity": 90}, {"time": 1850, "pitch": 55, "duration": 6, "velocity": 90}, {"time": 1856, "pitch": 48, "duration": 43, "velocity": 90}, {"time": 1865, "pitch": 60, "duration": 7, "velocity": 90}, {"time": 1868, "pitch": 64, "duration": 13, "velocity": 90}, {"time": 1874, "pitch": 60, "duration": 9, "velocity": 90}, {"time": 1880, "pitch": 67, "duration": 13, "velocity": 90}, {"time": 1886, "pitch": 60, "duration": 6, "velocity": 90}, {"time": 1892, "pitch": 72, "duration": 10, "velocity": 90}, {"time": 1898, "pitch": 60, "duration": 6, "velocity": 90}, {"time": 1904, "pitch": 43, "duration": 21, "velocity": 90}, {"time": 1910, "pitch": 55, "duration": 8, "velocity": 90}, {"time": 1916, "pitch": 59, "duration": 11, "velocity": 90}, {"time": 1922, "pitch": 55, "duration": 6, "velocity": 90}, {"time": 1928, "pitch": 38, "duration": 20, "velocity": 90}, {"time": 1934, "pitch": 50, "duration": 8, "velocity": 90}, {"time": 1940, "pitch": 57, "duration": 12, "velocity": 90}, {"time": 1946, "pitch": 50, "duration": 5, "velocity": 90}, {"time": 1952, "pitch": 33, "duration": 19, "velocity": 90}, {"time": 1958, "pitch": 45, "duration": 8, "velocity": 90}, {"time": 1964, "pitch": 60, "duration": 7, "velocity": 90}, {"time": 1970, "pitch": 45, "duration": 6, "velocity": 90}, {"time": 1976, "pitch": 38, "duration": 19, "velocity": 90}, {"time": 1982, "pitch": 50, "duration": 6, "velocity": 90}, {"time": 1988, "pitch": 57, "duration": 7, "velocity": 90}, {"time": 1994, "pitch": 50, "duration": 6, "velocity": 90}, {"time": 2000, "pitch": 43, "duration": 45, "velocity": 90}, {"time": 2006, "pitch": 55, "duration": 7, "velocity": 90}, {"time": 2012, "pitch": 59, "duration": 5, "velocity": 90}, {"time": 2018, "pitch": 55, "duration": 6, "velocity": 90}, {"time": 2024, "pitch": 62, "duration": 8, "velocity": 90}, {"time": 2030, "pitch": 55, "duration": 6, "velocity": 90}, {"time": 2036, "pitch": 67, "duration": 6, "velocity": 90}, {"time": 2042, "pitch": 55, "duration": 6, "velocity": 90}, {"time": 2048, "pitch": 40, "duration": 44, "velocity": 90}, {"time": 2054, "pitch": 52, "duration": 8, "velocity": 90}, {"time": 2060, "pitch": 55, "duration": 8, "velocity": 90}, {"time": 2066, "pitch": 52, "duration": 9, "velocity": 90}, {"time": 2072, "pitch": 59, "duration": 8, "velocity": 90}, {"time": 2078, "pitch": 52, "duration": 7, "velocity": 90}, {"time": 2084, "pitch": 64, "duration": 7, "velocity": 90}, {"time": 2090, "pitch": 52, "duration": 6, "velocity": 90}, {"time": 2096, "pitch": 45, "duration": 43, "velocity": 90}, {"time": 2102, "pitch": 57, "duration": 6, "velocity": 90}, {"time": 2108, "pitch": 60, "duration": 6, "velocity": 90}, {"time": 2114, "pitch": 57, "duration": 7, "velocity": 90}, {"time": 2120, "pitch": 64, "duration": 6, "velocity": 90}, {"time": 2126, "pitch": 57, "duration": 6, "velocity": 90}, {"time": 2132, "pitch": 69, "duration": 7, "velocity": 90}, {"time": 2138, "pitch": 57, "duration": 4, "velocity": 90}, {"time": 2144, "pitch": 50, "duration": 3, "velocity": 90}, {"time": 2144, "pitch": 57, "duration": 3, "velocity": 90}, {"time": 2144, "pitch": 62, "duration": 3, "velocity": 90}, {"time": 2144, "pitch": 66, "duration": 3, "velocity": 90}, {"time": 2144, "pitch": 69, "duration": 3, "velocity": 90}, {"time": 2150, "pitch": 50, "duration": 3, "velocity": 90}, {"time": 2150, "pitch": 57, "duration": 3, "velocity": 90}, {"time": 2150, "pitch": 62, "duration": 3, "velocity": 90}, {"time": 2150, "pitch": 66, "duration": 3, "velocity": 90}, {"time": 2150, "pitch": 69, "duration": 3, "velocity": 90}, {"time": 2156, "pitch": 50, "duration": 3, "velocity": 90}, {"time": 2156, "pitch": 57, "duration": 3, "velocity": 90}, {"time": 2156, "pitch": 62, "duration": 3, "velocity": 90}, {"time": 2156, "pitch": 66, "duration": 3, "velocity": 90}, {"time": 2156, "pitch": 69, "duration": 3, "velocity": 90}, {"time": 2162, "pitch": 50, "duration": 3, "velocity": 90}, {"time": 2162, "pitch": 57, "duration": 3, "velocity": 90}, {"time": 2162, "pitch": 62, "duration": 3, "velocity": 90}, {"time": 2162, "pitch": 66, "duration": 3, "velocity": 90}, {"time": 2162, "pitch": 69, "duration": 3, "velocity": 90}, {"time": 2168, "pitch": 50, "duration": 3, "velocity": 90}, {"time": 2168, "pitch": 57, "duration": 3, "velocity": 90}, {"time": 2168, "pitch": 62, "duration": 3, "velocity": 90}, {"time": 2168, "pitch": 66, "duration": 3, "velocity": 90}, {"time": 2168, "pitch": 69, "duration": 3, "velocity": 90}, {"time": 2174, "pitch": 50, "duration": 3, "velocity": 90}, {"time": 2174, "pitch": 57, "duration": 3, "velocity": 90}, {"time": 2174, "pitch": 62, "duration": 3, "velocity": 90}, {"time": 2174, "pitch": 66, "duration": 3, "velocity": 90}, {"time": 2174, "pitch": 69, "duration": 3, "velocity": 90}, {"time": 2180, "pitch": 50, "duration": 3, "velocity": 90}, {"time": 2180, "pitch": 57, "duration": 2, "velocity": 90}, {"time": 2180, "pitch": 62, "duration": 2, "velocity": 90}, {"time": 2180, "pitch": 66, "duration": 2, "velocity": 90}, {"time": 2180, "pitch": 69, "duration": 2, "velocity": 90}, {"time": 2186, "pitch": 50, "duration": 3, "velocity": 90}, {"time": 2186, "pitch": 57, "duration": 3, "velocity": 90}, {"time": 2186, "pitch": 62, "duration": 3, "velocity": 90}, {"time": 2186, "pitch": 66, "duration": 3, "velocity": 90}, {"time": 2186, "pitch": 69, "duration": 3, "velocity": 90}, {"time": 2192, "pitch": 43, "duration": 40, "velocity": 80}, {"time": 2192, "pitch": 55, "duration": 13, "velocity": 85}, {"time": 2192, "pitch": 59, "duration": 3, "velocity": 90}, {"time": 2192, "pitch": 62, "duration": 4, "velocity": 87}, {"time": 2192, "pitch": 67, "duration": 3, "velocity": 87}, {"time": 2198, "pitch": 59, "duration": 2, "velocity": 67}, {"time": 2198, "pitch": 62, "duration": 2, "velocity": 43}, {"time": 2198, "pitch": 67, "duration": 2, "velocity": 55}, {"time": 2204, "pitch": 59, "duration": 3, "velocity": 88}, {"time": 2204, "pitch": 62, "duration": 4, "velocity": 85}, {"time": 2204, "pitch": 67, "duration": 3, "velocity": 82}, {"time": 2210, "pitch": 59, "duration": 2, "velocity": 62}, {"time": 2210, "pitch": 62, "duration": 2, "velocity": 63}, {"time": 2210, "pitch": 67, "duration": 1, "velocity": 67}, {"time": 2213, "pitch": 55, "duration": 10, "velocity": 67}, {"time": 2216, "pitch": 59, "duration": 3, "velocity": 95}, {"time": 2216, "pitch": 62, "duration": 3, "velocity": 85}, {"time": 2216, "pitch": 67, "duration": 3, "velocity": 87}, {"time": 2222, "pitch": 59, "duration": 1, "velocity": 61}, {"time": 2222, "pitch": 62, "duration": 2, "velocity": 53}, {"time": 2222, "pitch": 67, "duration": 2, "velocity": 55}, {"time": 2225, "pitch": 55, "duration": 4, "velocity": 88}, {"time": 2228, "pitch": 59, "duration": 7, "velocity": 95}, {"time": 2228, "pitch": 62, "duration": 8, "velocity": 91}, {"time": 2228, "pitch": 67, "duration": 8, "velocity": 92}, {"time": 2231, "pitch": 55, "duration": 1, "velocity": 80}, {"time": 2234, "pitch": 42, "duration": 1, "velocity": 80}, {"time": 2234, "pitch": 54, "duration": 1, "velocity": 80}, {"time": 2240, "pitch": 40, "duration": 37, "velocity": 95}, {"time": 2240, "pitch": 52, "duration": 7, "velocity": 95}, {"time": 2240, "pitch": 59, "duration": 4, "velocity": 81}, {"time": 2240, "pitch": 64, "duration": 1, "velocity": 75}, {"time": 2240, "pitch": 67, "duration": 4, "velocity": 83}, {"time": 2246, "pitch": 59, "duration": 1, "velocity": 61}, {"time": 2246, "pitch": 64, "duration": 1, "velocity": 63}, {"time": 2246, "pitch": 67, "duration": 2, "velocity": 56}, {"time": 2249, "pitch": 52, "duration": 9, "velocity": 61}, {"time": 2252, "pitch": 59, "duration": 3, "velocity": 95}, {"time": 2252, "pitch": 64, "duration": 3, "velocity": 88}, {"time": 2252, "pitch": 67, "duration": 4, "velocity": 89}, {"time": 2258, "pitch": 59, "duration": 2, "velocity": 72}, {"time": 2258, "pitch": 64, "duration": 2, "velocity": 75}, {"time": 2258, "pitch": 67, "duration": 2, "velocity": 73}, {"time": 2261, "pitch": 52, "duration": 10, "velocity": 76}, {"time": 2264, "pitch": 59, "duration": 3, "velocity": 102}, {"time": 2264, "pitch": 64, "duration": 3, "velocity": 90}, {"time": 2264, "pitch": 67, "duration": 3, "velocity": 87}, {"time": 2270, "pitch": 59, "duration": 2, "velocity": 87}, {"time": 2270, "pitch": 64, "duration": 2, "velocity": 71}, {"time": 2270, "pitch": 67, "duration": 3, "velocity": 78}, {"time": 2273, "pitch": 52, "duration": 7, "velocity": 97}, {"time": 2276, "pitch": 59, "duration": 7, "velocity": 100}, {"time": 2276, "pitch": 64, "duration": 8, "velocity": 97}, {"time": 2276, "pitch": 67, "duration": 8, "velocity": 90}, {"time": 2279, "pitch": 40, "duration": 3, "velocity": 74}, {"time": 2282, "pitch": 50, "duration": 2, "velocity": 83}, {"time": 2285, "pitch": 38, "duration": 2, "velocity": 100}, {"time": 2288, "pitch": 36, "duration": 45, "velocity": 107}, {"time": 2288, "pitch": 48, "duration": 7, "velocity": 106}, {"time": 2288, "pitch": 60, "duration": 1, "velocity": 62}, {"time": 2294, "pitch": 55, "duration": 2, "velocity": 58}, {"time": 2294, "pitch": 60, "duration": 1, "velocity": 56}, {"time": 2294, "pitch": 64, "duration": 2, "velocity": 61}, {"time": 2294, "pitch": 67, "duration": 1, "velocity": 61}, {"time": 2297, "pitch": 48, "duration": 9, "velocity": 64}, {"time": 2300, "pitch": 55, "duration": 3, "velocity": 106}, {"time": 2300, "pitch": 60, "duration": 3, "velocity": 90}, {"time": 2300, "pitch": 64, "duration": 3, "velocity": 85}, {"time": 2300, "pitch": 67, "duration": 3, "velocity": 93}, {"time": 2306, "pitch": 55, "duration": 1, "velocity": 76}, {"time": 2306, "pitch": 60, "duration": 1, "velocity": 63}, {"time": 2306, "pitch": 64, "duration": 1, "velocity": 48}, {"time": 2306, "pitch": 67, "duration": 1, "velocity": 66}, {"time": 2309, "pitch": 48, "duration": 9, "velocity": 72}, {"time": 2312, "pitch": 55, "duration": 3, "velocity": 88}, {"time": 2312, "pitch": 60, "duration": 3, "velocity": 72}, {"time": 2312, "pitch": 64, "duration": 3, "velocity": 71}, {"time": 2312, "pitch": 67, "duration": 3, "velocity": 74}, {"time": 2318, "pitch": 55, "duration": 3, "velocity": 90}, {"time": 2318, "pitch": 60, "duration": 3, "velocity": 69}, {"time": 2318, "pitch": 64, "duration": 3, "velocity": 72}, {"time": 2318, "pitch": 67, "duration": 2, "velocity": 74}, {"time": 2321, "pitch": 48, "duration": 4, "velocity": 90}, {"time": 2324, "pitch": 55, "duration": 3, "velocity": 100}, {"time": 2324, "pitch": 60, "duration": 4, "velocity": 87}, {"time": 2324, "pitch": 64, "duration": 9, "velocity": 87}, {"time": 2324, "pitch": 67, "duration": 3, "velocity": 87}, {"time": 2327, "pitch": 48, "duration": 4, "velocity": 76}, {"time": 2330, "pitch": 57, "duration": 3, "velocity": 80}, {"time": 2330, "pitch": 60, "duration": 1, "velocity": 35}, {"time": 2330, "pitch": 69, "duration": 2, "velocity": 87}, {"time": 2333, "pitch": 48, "duration": 1, "velocity": 77}, {"time": 2336, "pitch": 35, "duration": 36, "velocity": 107}, {"time": 2336, "pitch": 47, "duration": 7, "velocity": 106}, {"time": 2342, "pitch": 59, "duration": 2, "velocity": 54}, {"time": 2342, "pitch": 66, "duration": 1, "velocity": 52}, {"time": 2342, "pitch": 71, "duration": 2, "velocity": 63}, {"time": 2345, "pitch": 47, "duration": 8, "velocity": 75}, {"time": 2348, "pitch": 59, "duration": 3, "velocity": 108}, {"time": 2348, "pitch": 63, "duration": 5, "velocity": 92}, {"time": 2348, "pitch": 66, "duration": 4, "velocity": 95}, {"time": 2348, "pitch": 71, "duration": 4, "velocity": 106}, {"time": 2354, "pitch": 64, "duration": 2, "velocity": 79}, {"time": 2354, "pitch": 76, "duration": 2, "velocity": 83}, {"time": 2357, "pitch": 47, "duration": 5, "velocity": 72}, {"time": 2360, "pitch": 59, "duration": 4, "velocity": 102}, {"time": 2360, "pitch": 63, "duration": 4, "velocity": 90}, {"time": 2360, "pitch": 66, "duration": 5, "velocity": 84}, {"time": 2360, "pitch": 71, "duration": 4, "velocity": 100}, {"time": 2366, "pitch": 63, "duration": 4, "velocity": 90}, {"time": 2366, "pitch": 66, "duration": 2, "velocity": 84}, {"time": 2366, "pitch": 71, "duration": 2, "velocity": 100}, {"time": 2369, "pitch": 47, "duration": 7, "velocity": 92}, {"time": 2372, "pitch": 63, "duration": 4, "velocity": 90}, {"time": 2372, "pitch": 66, "duration": 2, "velocity": 84}, {"time": 2372, "pitch": 71, "duration": 2, "velocity": 100}, {"time": 2378, "pitch": 35, "duration": 4, "velocity": 100}, {"time": 2378, "pitch": 47, "duration": 4, "velocity": 100}, {"time": 2378, "pitch": 66, "duration": 3, "velocity": 95}, {"time": 2384, "pitch": 43, "duration": 18, "velocity": 99}, {"time": 2384, "pitch": 55, "duration": 17, "velocity": 92}, {"time": 2384, "pitch": 59, "duration": 2, "velocity": 77}, {"time": 2384, "pitch": 62, "duration": 2, "velocity": 68}, {"time": 2384, "pitch": 67, "duration": 2, "velocity": 71}, {"time": 2390, "pitch": 59, "duration": 2, "velocity": 59}, {"time": 2390, "pitch": 62, "duration": 1, "velocity": 56}, {"time": 2390, "pitch": 67, "duration": 2, "velocity": 58}, {"time": 2396, "pitch": 59, "duration": 1, "velocity": 71}, {"time": 2396, "pitch": 62, "duration": 1, "velocity": 57}, {"time": 2396, "pitch": 67, "duration": 1, "velocity": 62}, {"time": 2402, "pitch": 59, "duration": 3, "velocity": 69}, {"time": 2402, "pitch": 62, "duration": 3, "velocity": 63}, {"time": 2402, "pitch": 67, "duration": 2, "velocity": 67}, {"time": 2405, "pitch": 55, "duration": 17, "velocity": 94}, {"time": 2408, "pitch": 43, "duration": 21, "velocity": 95}, {"time": 2408, "pitch": 59, "duration": 2, "velocity": 69}, {"time": 2408, "pitch": 62, "duration": 2, "velocity": 59}, {"time": 2408, "pitch": 67, "duration": 2, "velocity": 70}, {"time": 2414, "pitch": 59, "duration": 1, "velocity": 67}, {"time": 2414, "pitch": 62, "duration": 1, "velocity": 58}, {"time": 2414, "pitch": 67, "duration": 1, "velocity": 66}, {"time": 2420, "pitch": 59, "duration": 2, "velocity": 75}, {"time": 2420, "pitch": 62, "duration": 2, "velocity": 67}, {"time": 2420, "pitch": 67, "duration": 2, "velocity": 68}, {"time": 2426, "pitch": 59, "duration": 2, "velocity": 74}, {"time": 2426, "pitch": 62, "duration": 2, "velocity": 64}, {"time": 2426, "pitch": 67, "duration": 2, "velocity": 73}, {"time": 2429, "pitch": 55, "duration": 2, "velocity": 91}, {"time": 2432, "pitch": 41, "duration": 19, "velocity": 92}, {"time": 2432, "pitch": 53, "duration": 20, "velocity": 90}, {"time": 2432, "pitch": 57, "duration": 3, "velocity": 77}, {"time": 2432, "pitch": 60, "duration": 3, "velocity": 72}, {"time": 2432, "pitch": 65, "duration": 3, "velocity": 76}, {"time": 2438, "pitch": 57, "duration": 2, "velocity": 69}, {"time": 2438, "pitch": 60, "duration": 1, "velocity": 64}, {"time": 2438, "pitch": 65, "duration": 2, "velocity": 68}, {"time": 2444, "pitch": 57, "duration": 1, "velocity": 67}, {"time": 2444, "pitch": 60, "duration": 1, "velocity": 64}, {"time": 2444, "pitch": 65, "duration": 2, "velocity": 71}, {"time": 2450, "pitch": 57, "duration": 3, "velocity": 76}, {"time": 2450, "pitch": 60, "duration": 3, "velocity": 72}, {"time": 2450, "pitch": 65, "duration": 3, "velocity": 74}, {"time": 2453, "pitch": 41, "duration": 24, "velocity": 100}, {"time": 2456, "pitch": 53, "duration": 14, "velocity": 94}, {"time": 2456, "pitch": 57, "duration": 2, "velocity": 69}, {"time": 2456, "pitch": 60, "duration": 2, "velocity": 67}, {"time": 2456, "pitch": 65, "duration": 2, "velocity": 75}, {"time": 2462, "pitch": 57, "duration": 2, "velocity": 71}, {"time": 2462, "pitch": 60, "duration": 1, "velocity": 69}, {"time": 2462, "pitch": 65, "duration": 2, "velocity": 66}, {"time": 2468, "pitch": 57, "duration": 3, "velocity": 71}, {"time": 2468, "pitch": 60, "duration": 3, "velocity": 69}, {"time": 2468, "pitch": 65, "duration": 3, "velocity": 68}, {"time": 2471, "pitch": 53, "duration": 6, "velocity": 84}, {"time": 2474, "pitch": 57, "duration": 3, "velocity": 84}, {"time": 2474, "pitch": 60, "duration": 3, "velocity": 77}, {"time": 2474, "pitch": 65, "duration": 4, "velocity": 80}, {"time": 2477, "pitch": 48, "duration": 1, "velocity": 67}, {"time": 2480, "pitch": 36, "duration": 20, "velocity": 96}, {"time": 2480, "pitch": 48, "duration": 19, "velocity": 85}, {"time": 2480, "pitch": 55, "duration": 3, "velocity": 90}, {"time": 2480, "pitch": 60, "duration": 3, "velocity": 61}, {"time": 2480, "pitch": 64, "duration": 4, "velocity": 77}, {"time": 2486, "pitch": 55, "duration": 2, "velocity": 69}, {"time": 2486, "pitch": 60, "duration": 3, "velocity": 61}, {"time": 2486, "pitch": 64, "duration": 3, "velocity": 47}, {"time": 2486, "pitch": 67, "duration": 3, "velocity": 62}, {"time": 2492, "pitch": 55, "duration": 3, "velocity": 77}, {"time": 2492, "pitch": 60, "duration": 3, "velocity": 68}, {"time": 2492, "pitch": 64, "duration": 3, "velocity": 67}, {"time": 2492, "pitch": 67, "duration": 3, "velocity": 68}, {"time": 2498, "pitch": 55, "duration": 2, "velocity": 79}, {"time": 2498, "pitch": 60, "duration": 3, "velocity": 65}, {"time": 2498, "pitch": 64, "duration": 3, "velocity": 65}, {"time": 2498, "pitch": 67, "duration": 3, "velocity": 67}, {"time": 2501, "pitch": 52, "duration": 1, "velocity": 84}, {"time": 2504, "pitch": 36, "duration": 18, "velocity": 89}, {"time": 2504, "pitch": 48, "duration": 14, "velocity": 91}, {"time": 2504, "pitch": 55, "duration": 3, "velocity": 71}, {"time": 2504, "pitch": 60, "duration": 3, "velocity": 67}, {"time": 2504, "pitch": 64, "duration": 3, "velocity": 67}, {"time": 2504, "pitch": 67, "duration": 3, "velocity": 74}, {"time": 2510, "pitch": 55, "duration": 2, "velocity": 77}, {"time": 2510, "pitch": 60, "duration": 2, "velocity": 68}, {"time": 2510, "pitch": 64, "duration": 3, "velocity": 63}, {"time": 2510, "pitch": 67, "duration": 3, "velocity": 71}, {"time": 2516, "pitch": 55, "duration": 3, "velocity": 72}, {"time": 2516, "pitch": 60, "duration": 3, "velocity": 62}, {"time": 2516, "pitch": 64, "duration": 3, "velocity": 58}, {"time": 2516, "pitch": 67, "duration": 3, "velocity": 66}, {"time": 2519, "pitch": 48, "duration": 7, "velocity": 69}, {"time": 2522, "pitch": 55, "duration": 2, "velocity": 83}, {"time": 2522, "pitch": 60, "duration": 2, "velocity": 69}, {"time": 2522, "pitch": 64, "duration": 2, "velocity": 69}, {"time": 2522, "pitch": 67, "duration": 2, "velocity": 74}, {"time": 2525, "pitch": 36, "duration": 1, "velocity": 72}, {"time": 2528, "pitch": 39, "duration": 20, "velocity": 95}, {"time": 2528, "pitch": 51, "duration": 18, "velocity": 97}, {"time": 2528, "pitch": 55, "duration": 3, "velocity": 83}, {"time": 2528, "pitch": 58, "duration": 4, "velocity": 77}, {"time": 2528, "pitch": 63, "duration": 3, "velocity": 77}, {"time": 2528, "pitch": 67, "duration": 3, "velocity": 78}, {"time": 2534, "pitch": 55, "duration": 2, "velocity": 79}, {"time": 2534, "pitch": 58, "duration": 2, "velocity": 71}, {"time": 2534, "pitch": 63, "duration": 1, "velocity": 72}, {"time": 2534, "pitch": 67, "duration": 2, "velocity": 71}, {"time": 2540, "pitch": 55, "duration": 2, "velocity": 94}, {"time": 2540, "pitch": 58, "duration": 2, "velocity": 87}, {"time": 2540, "pitch": 63, "duration": 2, "velocity": 76}, {"time": 2540, "pitch": 67, "duration": 2, "velocity": 83}, {"time": 2546, "pitch": 55, "duration": 2, "velocity": 85}, {"time": 2546, "pitch": 58, "duration": 3, "velocity": 83}, {"time": 2546, "pitch": 63, "duration": 3, "velocity": 71}, {"time": 2546, "pitch": 67, "duration": 2, "velocity": 74}, {"time": 2549, "pitch": 51, "duration": 2, "velocity": 87}, {"time": 2552, "pitch": 41, "duration": 17, "velocity": 80}, {"time": 2552, "pitch": 53, "duration": 13, "velocity": 72}, {"time": 2552, "pitch": 57, "duration": 3, "velocity": 87}, {"time": 2552, "pitch": 60, "duration": 3, "velocity": 84}, {"time": 2552, "pitch": 65, "duration": 3, "velocity": 84}, {"time": 2558, "pitch": 57, "duration": 2, "velocity": 76}, {"time": 2558, "pitch": 60, "duration": 2, "velocity": 80}, {"time": 2558, "pitch": 65, "duration": 2, "velocity": 78}, {"time": 2564, "pitch": 57, "duration": 3, "velocity": 85}, {"time": 2564, "pitch": 60, "duration": 3, "velocity": 85}, {"time": 2564, "pitch": 65, "duration": 3, "velocity": 83}, {"time": 2567, "pitch": 53, "duration": 6, "velocity": 74}, {"time": 2570, "pitch": 57, "duration": 2, "velocity": 87}, {"time": 2570, "pitch": 60, "duration": 1, "velocity": 75}, {"time": 2570, "pitch": 65, "duration": 2, "velocity": 86}, {"time": 2573, "pitch": 41, "duration": 1, "velocity": 79}, {"time": 2576, "pitch": 33, "duration": 22, "velocity": 100}, {"time": 2576, "pitch": 45, "duration": 19, "velocity": 97}, {"time": 2576, "pitch": 57, "duration": 4, "velocity": 87}, {"time": 2576, "pitch": 60, "duration": 4, "velocity": 79}, {"time": 2576, "pitch": 64, "duration": 4, "velocity": 79}, {"time": 2576, "pitch": 69, "duration": 4, "velocity": 90}, {"time": 2582, "pitch": 57, "duration": 3, "velocity": 56}, {"time": 2582, "pitch": 60, "duration": 2, "velocity": 53}, {"time": 2582, "pitch": 64, "duration": 2, "velocity": 41}, {"time": 2582, "pitch": 69, "duration": 2, "velocity": 51}, {"time": 2588, "pitch": 57, "duration": 3, "velocity": 77}, {"time": 2588, "pitch": 60, "duration": 3, "velocity": 67}, {"time": 2588, "pitch": 64, "duration": 2, "velocity": 68}, {"time": 2588, "pitch": 69, "duration": 3, "velocity": 71}, {"time": 2594, "pitch": 57, "duration": 3, "velocity": 71}, {"time": 2594, "pitch": 60, "duration": 3, "velocity": 61}, {"time": 2594, "pitch": 64, "duration": 3, "velocity": 55}, {"time": 2594, "pitch": 69, "duration": 3, "velocity": 68}, {"time": 2597, "pitch": 45, "duration": 16, "velocity": 74}, {"time": 2600, "pitch": 33, "duration": 17, "velocity": 100}, {"time": 2600, "pitch": 57, "duration": 3, "velocity": 77}, {"time": 2600, "pitch": 60, "duration": 3, "velocity": 67}, {"time": 2600, "pitch": 64, "duration": 3, "velocity": 68}, {"time": 2600, "pitch": 69, "duration": 3, "velocity": 78}, {"time": 2606, "pitch": 57, "duration": 2, "velocity": 65}, {"time": 2606, "pitch": 60, "duration": 2, "velocity": 61}, {"time": 2606, "pitch": 64, "duration": 2, "velocity": 63}, {"time": 2606, "pitch": 69, "duration": 2, "velocity": 74}, {"time": 2612, "pitch": 57, "duration": 4, "velocity": 88}, {"time": 2612, "pitch": 60, "duration": 4, "velocity": 83}, {"time": 2612, "pitch": 64, "duration": 4, "velocity": 76}, {"time": 2612, "pitch": 69, "duration": 4, "velocity": 86}, {"time": 2615, "pitch": 45, "duration": 6, "velocity": 90}, {"time": 2618, "pitch": 57, "duration": 2, "velocity": 87}, {"time": 2618, "pitch": 60, "duration": 1, "velocity": 79}, {"time": 2618, "pitch": 64, "duration": 1, "velocity": 69}, {"time": 2618, "pitch": 69, "duration": 2, "velocity": 83}, {"time": 2621, "pitch": 33, "duration": 1, "velocity": 96}, {"time": 2624, "pitch": 40, "duration": 18, "velocity": 95}, {"time": 2624, "pitch": 52, "duration": 18, "velocity": 100}, {"time": 2624, "pitch": 55, "duration": 4, "velocity": 94}, {"time": 2624, "pitch": 59, "duration": 4, "velocity": 85}, {"time": 2624, "pitch": 64, "duration": 4, "velocity": 85}, {"time": 2624, "pitch": 67, "duration": 4, "velocity": 90}, {"time": 2630, "pitch": 55, "duration": 3, "velocity": 67}, {"time": 2630, "pitch": 59, "duration": 3, "velocity": 55}, {"time": 2630, "pitch": 64, "duration": 3, "velocity": 69}, {"time": 2630, "pitch": 67, "duration": 3, "velocity": 67}, {"time": 2636, "pitch": 55, "duration": 3, "velocity": 77}, {"time": 2636, "pitch": 59, "duration": 3, "velocity": 74}, {"time": 2636, "pitch": 64, "duration": 3, "velocity": 72}, {"time": 2636, "pitch": 67, "duration": 3, "velocity": 78}, {"time": 2642, "pitch": 55, "duration": 3, "velocity": 77}, {"time": 2642, "pitch": 59, "duration": 4, "velocity": 79}, {"time": 2642, "pitch": 64, "duration": 3, "velocity": 69}, {"time": 2642, "pitch": 67, "duration": 4, "velocity": 70}, {"time": 2645, "pitch": 52, "duration": 16, "velocity": 100}, {"time": 2648, "pitch": 40, "duration": 16, "velocity": 103}, {"time": 2648, "pitch": 55, "duration": 3, "velocity": 81}, {"time": 2648, "pitch": 59, "duration": 3, "velocity": 83}, {"time": 2648, "pitch": 64, "duration": 2, "velocity": 69}, {"time": 2648, "pitch": 67, "duration": 3, "velocity": 75}, {"time": 2654, "pitch": 55, "duration": 2, "velocity": 84}, {"time": 2654, "pitch": 59, "duration": 2, "velocity": 79}, {"time": 2654, "pitch": 64, "duration": 2, "velocity": 71}, {"time": 2654, "pitch": 67, "duration": 2, "velocity": 75}, {"time": 2660, "pitch": 55, "duration": 3, "velocity": 91}, {"time": 2660, "pitch": 59, "duration": 3, "velocity": 87}, {"time": 2660, "pitch": 64, "duration": 3, "velocity": 77}, {"time": 2660, "pitch": 67, "duration": 3, "velocity": 84}, {"time": 2663, "pitch": 52, "duration": 6, "velocity": 94}, {"time": 2666, "pitch": 55, "duration": 2, "velocity": 84}, {"time": 2666, "pitch": 59, "duration": 2, "velocity": 94}, {"time": 2666, "pitch": 64, "duration": 3, "velocity": 79}, {"time": 2666, "pitch": 67, "duration": 3, "velocity": 78}, {"time": 2669, "pitch": 40, "duration": 1, "velocity": 93}, {"time": 2672, "pitch": 36, "duration": 18, "velocity": 102}, {"time": 2672, "pitch": 48, "duration": 17, "velocity": 100}, {"time": 2672, "pitch": 55, "duration": 4, "velocity": 91}, {"time": 2672, "pitch": 60, "duration": 4, "velocity": 85}, {"time": 2672, "pitch": 64, "duration": 4, "velocity": 79}, {"time": 2672, "pitch": 67, "duration": 4, "velocity": 89}, {"time": 2678, "pitch": 55, "duration": 3, "velocity": 64}, {"time": 2678, "pitch": 60, "duration": 2, "velocity": 51}, {"time": 2678, "pitch": 64, "duration": 2, "velocity": 55}, {"time": 2678, "pitch": 67, "duration": 2, "velocity": 61}, {"time": 2684, "pitch": 55, "duration": 3, "velocity": 84}, {"time": 2684, "pitch": 60, "duration": 3, "velocity": 75}, {"time": 2684, "pitch": 64, "duration": 2, "velocity": 72}, {"time": 2684, "pitch": 67, "duration": 2, "velocity": 71}, {"time": 2690, "pitch": 47, "duration": 3, "velocity": 88}, {"time": 2690, "pitch": 54, "duration": 3, "velocity": 88}, {"time": 2690, "pitch": 59, "duration": 3, "velocity": 88}, {"time": 2690, "pitch": 62, "duration": 3, "velocity": 88}, {"time": 2690, "pitch": 66, "duration": 3, "velocity": 88}, {"time": 2696, "pitch": 45, "duration": 18, "velocity": 71}, {"time": 2696, "pitch": 52, "duration": 18, "velocity": 71}, {"time": 2696, "pitch": 57, "duration": 18, "velocity": 71}, {"time": 2696, "pitch": 60, "duration": 18, "velocity": 71}, {"time": 2696, "pitch": 64, "duration": 18, "velocity": 71}, {"time": 2720, "pitch": 63, "duration": 15, "velocity": 72}, {"time": 2720, "pitch": 72, "duration": 16, "velocity": 78}, {"time": 2720, "pitch": 66, "duration": 16, "velocity": 68}, {"time": 2720, "pitch": 30, "duration": 14, "velocity": 69}, {"time": 2720, "pitch": 69, "duration": 16, "velocity": 70}, {"time": 2720, "pitch": 42, "duration": 15, "velocity": 64}, {"time": 2744, "pitch": 35, "duration": 45, "velocity": 69}, {"time": 2744, "pitch": 47, "duration": 45, "velocity": 69}, {"time": 2744, "pitch": 54, "duration": 45, "velocity": 69}, {"time": 2744, "pitch": 59, "duration": 45, "velocity": 69}, {"time": 2744, "pitch": 63, "duration": 45, "velocity": 69}, {"time": 2840, "pitch": 43, "duration": 40, "velocity": 64}, {"time": 2846, "pitch": 55, "duration": 33, "velocity": 64}, {"time": 2853, "pitch": 59, "duration": 29, "velocity": 64}, {"time": 2853, "pitch": 62, "duration": 29, "velocity": 64}, {"time": 2853, "pitch": 67, "duration": 29, "velocity": 64}, {"time": 2889, "pitch": 36, "duration": 36, "velocity": 64}, {"time": 2895, "pitch": 48, "duration": 31, "velocity": 64}, {"time": 2901, "pitch": 60, "duration": 25, "velocity": 64}, {"time": 2901, "pitch": 52, "duration": 26, "velocity": 64}, {"time": 2901, "pitch": 55, "duration": 25, "velocity": 64}, {"time": 2941, "pitch": 43, "duration": 23, "velocity": 64}, {"time": 2948, "pitch": 55, "duration": 15, "velocity": 64}, {"time": 2954, "pitch": 67, "duration": 8, "velocity": 64}, {"time": 2954, "pitch": 62, "duration": 8, "velocity": 64}, {"time": 2954, "pitch": 59, "duration": 9, "velocity": 64}, {"time": 2969, "pitch": 38, "duration": 22, "velocity": 64}, {"time": 2975, "pitch": 50, "duration": 15, "velocity": 64}, {"time": 2982, "pitch": 54, "duration": 9, "velocity": 64}, {"time": 2982, "pitch": 62, "duration": 9, "velocity": 64}, {"time": 2982, "pitch": 57, "duration": 8, "velocity": 64}, {"time": 2997, "pitch": 33, "duration": 25, "velocity": 64}, {"time": 3002, "pitch": 45, "duration": 19, "velocity": 64}, {"time": 3009, "pitch": 52, "duration": 12, "velocity": 65}, {"time": 3009, "pitch": 57, "duration": 12, "velocity": 65}, {"time": 3009, "pitch": 48, "duration": 12, "velocity": 65}, {"time": 3022, "pitch": 38, "duration": 22, "velocity": 65}, {"time": 3029, "pitch": 50, "duration": 16, "velocity": 65}, {"time": 3036, "pitch": 54, "duration": 10, "velocity": 65}, {"time": 3036, "pitch": 62, "duration": 10, "velocity": 65}, {"time": 3036, "pitch": 57, "duration": 10, "velocity": 65}, {"time": 3050, "pitch": 43, "duration": 45, "velocity": 65}, {"time": 3058, "pitch": 55, "duration": 37, "velocity": 66}, {"time": 3064, "pitch": 62, "duration": 33, "velocity": 66}, {"time": 3064, "pitch": 59, "duration": 33, "velocity": 66}, {"time": 3064, "pitch": 67, "duration": 33, "velocity": 66}, {"time": 3101, "pitch": 40, "duration": 36, "velocity": 66}, {"time": 3108, "pitch": 52, "duration": 31, "velocity": 66}, {"time": 3114, "pitch": 64, "duration": 29, "velocity": 66}, {"time": 3114, "pitch": 55, "duration": 29, "velocity": 66}, {"time": 3114, "pitch": 59, "duration": 29, "velocity": 66}, {"time": 3127, "pitch": 35, "duration": 26, "velocity": 66}, {"time": 3133, "pitch": 47, "duration": 19, "velocity": 66}, {"time": 3140, "pitch": 59, "duration": 3, "velocity": 66}, {"time": 3140, "pitch": 54, "duration": 13, "velocity": 66}, {"time": 3140, "pitch": 50, "duration": 14, "velocity": 66}, {"time": 3154, "pitch": 33, "duration": 54, "velocity": 66}, {"time": 3161, "pitch": 45, "duration": 48, "velocity": 66}, {"time": 3166, "pitch": 57, "duration": 43, "velocity": 66}, {"time": 3166, "pitch": 48, "duration": 43, "velocity": 66}, {"time": 3167, "pitch": 52, "duration": 42, "velocity": 66}, {"time": 3210, "pitch": 38, "duration": 114, "velocity": 66}, {"time": 3217, "pitch": 50, "duration": 108, "velocity": 66}, {"time": 3224, "pitch": 54, "duration": 100, "velocity": 66}, {"time": 3224, "pitch": 62, "duration": 101, "velocity": 66}, {"time": 3225, "pitch": 57, "duration": 99, "velocity": 66}, {"time": 3384, "pitch": 43, "duration": 18, "velocity": 64}, {"time": 3393, "pitch": 55, "duration": 13, "velocity": 64}, {"time": 3399, "pitch": 59, "duration": 18, "velocity": 64}, {"time": 3405, "pitch": 62, "duration": 13, "velocity": 64}, {"time": 3410, "pitch": 67, "duration": 7, "velocity": 64}, {"time": 3416, "pitch": 71, "duration": 63, "velocity": 64}, {"time": 3423, "pitch": 74, "duration": 55, "velocity": 64}, {"time": 3431, "pitch": 79, "duration": 47, "velocity": 64}], "annotations": [{"time": 0, "annotation": {"number": 7, "value": 101}, "group": "control_change"}, {"time": 188, "annotation": {"number": 64, "value": 127}, "group": "control_change"}, {"time": 192, "annotation": {"number": 64, "value": 77}, "group": "control_change"}, {"time": 193, "annotation": {"number": 64, "value": 0}, "group": "control_change"}, {"time": 197, "annotation": {"number": 64, "value": 127}, "group": "control_change"}, {"time": 200, "annotation": {"number": 64, "value": 127}, "group": "control_change"}, {"time": 246, "annotation": {"number": 64, "value": 0}, "group": "control_change"}, {"time": 248, "annotation": {"number": 64, "value": 127}, "group": "control_change"}, {"time": 297, "annotation": {"number": 64, "value": 0}, "group": "control_change"}, {"time": 320, "annotation": {"number": 64, "value": 127}, "group": "control_change"}, {"time": 341, "annotation": {"number": 64, "value": 0}, "group": "control_change"}, {"time": 344, "annotation": {"number": 64, "value": 127}, "group": "control_change"}, {"time": 364, "annotation": {"number": 64, "value": 0}, "group": "control_change"}, {"time": 368, "annotation": {"number": 64, "value": 127}, "group": "control_change"}, {"time": 387, "annotation": {"number": 64, "value": 0}, "group": "control_change"}, {"time": 493, "annotation": {"number": 64, "value": 127}, "group": "control_change"}, {"time": 968, "annotation": {"number": 64, "value": 0}, "group": "control_change"}, {"time": 970, "annotation": {"number": 64, "value": 71}, "group": "control_change"}, {"time": 970, "annotation": {"number": 64, "value": 127}, "group": "control_change"}, {"time": 1017, "annotation": {"number": 64, "value": 71}, "group": "control_change"}, {"time": 1018, "annotation": {"number": 64, "value": 0}, "group": "control_change"}, {"time": 1021, "annotation": {"number": 64, "value": 71}, "group": "control_change"}, {"time": 1021, "annotation": {"number": 64, "value": 127}, "group": "control_change"}, {"time": 1065, "annotation": {"number": 64, "value": 71}, "group": "control_change"}, {"time": 1066, "annotation": {"number": 64, "value": 0}, "group": "control_change"}, {"time": 1068, "annotation": {"number": 64, "value": 71}, "group": "control_change"}, {"time": 1069, "annotation": {"number": 64, "value": 127}, "group": "control_change"}, {"time": 1113, "annotation": {"number": 64, "value": 71}, "group": "control_change"}, {"time": 1113, "annotation": {"number": 64, "value": 0}, "group": "control_change"}, {"time": 1115, "annotation": {"number": 64, "value": 71}, "group": "control_change"}, {"time": 1116, "annotation": {"number": 64, "value": 127}, "group": "control_change"}, {"time": 1154, "annotation": {"number": 64, "value": 71}, "group": "control_change"}, {"time": 1155, "annotation": {"number": 64, "value": 0}, "group": "control_change"}, {"time": 1157, "annotation": {"number": 64, "value": 71}, "group": "control_change"}, {"time": 1157, "annotation": {"number": 64, "value": 127}, "group": "control_change"}, {"time": 1161, "annotation": {"number": 64, "value": 71}, "group": "control_change"}, {"time": 1161, "annotation": {"number": 64, "value": 0}, "group": "control_change"}, {"time": 1164, "annotation": {"number": 64, "value": 71}, "group": "control_change"}, {"time": 1165, "annotation": {"number": 64, "value": 127}, "group": "control_change"}, {"time": 1209, "annotation": {"number": 64, "value": 71}, "group": "control_change"}, {"time": 1210, "annotation": {"number": 64, "value": 0}, "group": "control_change"}, {"time": 1212, "annotation": {"number": 64, "value": 71}, "group": "control_change"}, {"time": 1213, "annotation": {"number": 64, "value": 127}, "group": "control_change"}, {"time": 1257, "annotation": {"number": 64, "value": 71}, "group": "control_change"}, {"time": 1257, "annotation": {"number": 64, "value": 0}, "group": "control_change"}, {"time": 1260, "annotation": {"number": 64, "value": 71}, "group": "control_change"}, {"time": 1261, "annotation": {"number": 64, "value": 127}, "group": "control_change"}, {"time": 1305, "annotation": {"number": 64, "value": 71}, "group": "control_change"}, {"time": 1306, "annotation": {"number": 64, "value": 0}, "group": "control_change"}, {"time": 1308, "annotation": {"number": 64, "value": 71}, "group": "control_change"}, {"time": 1308, "annotation": {"number": 64, "value": 127}, "group": "control_change"}, {"time": 1329, "annotation": {"number": 64, "value": 71}, "group": "control_change"}, {"time": 1330, "annotation": {"number": 64, "value": 0}, "group": "control_change"}, {"time": 1332, "annotation": {"number": 64, "value": 71}, "group": "control_change"}, {"time": 1333, "annotation": {"number": 64, "value": 127}, "group": "control_change"}, {"time": 1352, "annotation": {"number": 64, "value": 71}, "group": "control_change"}, {"time": 1352, "annotation": {"number": 64, "value": 127}, "group": "control_change"}, {"time": 1354, "annotation": {"number": 64, "value": 71}, "group": "control_change"}, {"time": 1354, "annotation": {"number": 64, "value": 0}, "group": "control_change"}, {"time": 1424, "annotation": {"number": 64, "value": 127}, "group": "control_change"}, {"time": 1569, "annotation": {"number": 64, "value": 127}, "group": "control_change"}, {"time": 1579, "annotation": {"number": 64, "value": 0}, "group": "control_change"}, {"time": 1701, "annotation": {"number": 64, "value": 127}, "group": "control_change"}, {"time": 2191, "annotation": {"number": 64, "value": 0}, "group": "control_change"}, {"time": 2192, "annotation": {"number": 64, "value": 127}, "group": "control_change"}, {"time": 2192, "annotation": {"number": 64, "value": 0}, "group": "control_change"}, {"time": 2194, "annotation": {"number": 64, "value": 71}, "group": "control_change"}, {"time": 2194, "annotation": {"number": 64, "value": 127}, "group": "control_change"}, {"time": 2241, "annotation": {"number": 64, "value": 71}, "group": "control_change"}, {"time": 2242, "annotation": {"number": 64, "value": 0}, "group": "control_change"}, {"time": 2245, "annotation": {"number": 64, "value": 71}, "group": "control_change"}, {"time": 2245, "annotation": {"number": 64, "value": 127}, "group": "control_change"}, {"time": 2290, "annotation": {"number": 64, "value": 71}, "group": "control_change"}, {"time": 2290, "annotation": {"number": 64, "value": 0}, "group": "control_change"}, {"time": 2292, "annotation": {"number": 64, "value": 71}, "group": "control_change"}, {"time": 2293, "annotation": {"number": 64, "value": 127}, "group": "control_change"}, {"time": 2337, "annotation": {"number": 64, "value": 71}, "group": "control_change"}, {"time": 2337, "annotation": {"number": 64, "value": 0}, "group": "control_change"}, {"time": 2339, "annotation": {"number": 64, "value": 71}, "group": "control_change"}, {"time": 2340, "annotation": {"number": 64, "value": 127}, "group": "control_change"}, {"time": 2378, "annotation": {"number": 64, "value": 71}, "group": "control_change"}, {"time": 2379, "annotation": {"number": 64, "value": 0}, "group": "control_change"}, {"time": 2381, "annotation": {"number": 64, "value": 71}, "group": "control_change"}, {"time": 2381, "annotation": {"number": 64, "value": 127}, "group": "control_change"}, {"time": 2382, "annotation": {"number": 64, "value": 0}, "group": "control_change"}, {"time": 2384, "annotation": {"number": 64, "value": 71}, "group": "control_change"}, {"time": 2384, "annotation": {"number": 64, "value": 127}, "group": "control_change"}, {"time": 2406, "annotation": {"number": 64, "value": 71}, "group": "control_change"}, {"time": 2407, "annotation": {"number": 64, "value": 0}, "group": "control_change"}, {"time": 2408, "annotation": {"number": 64, "value": 71}, "group": "control_change"}, {"time": 2409, "annotation": {"number": 64, "value": 127}, "group": "control_change"}, {"time": 2431, "annotation": {"number": 64, "value": 71}, "group": "control_change"}, {"time": 2431, "annotation": {"number": 64, "value": 0}, "group": "control_change"}, {"time": 2434, "annotation": {"number": 64, "value": 71}, "group": "control_change"}, {"time": 2435, "annotation": {"number": 64, "value": 127}, "group": "control_change"}, {"time": 2454, "annotation": {"number": 64, "value": 71}, "group": "control_change"}, {"time": 2455, "annotation": {"number": 64, "value": 0}, "group": "control_change"}, {"time": 2457, "annotation": {"number": 64, "value": 71}, "group": "control_change"}, {"time": 2458, "annotation": {"number": 64, "value": 127}, "group": "control_change"}, {"time": 2479, "annotation": {"number": 64, "value": 71}, "group": "control_change"}, {"time": 2480, "annotation": {"number": 64, "value": 0}, "group": "control_change"}, {"time": 2482, "annotation": {"number": 64, "value": 71}, "group": "control_change"}, {"time": 2483, "annotation": {"number": 64, "value": 127}, "group": "control_change"}, {"time": 2503, "annotation": {"number": 64, "value": 71}, "group": "control_change"}, {"time": 2503, "annotation": {"number": 64, "value": 0}, "group": "control_change"}, {"time": 2505, "annotation": {"number": 64, "value": 71}, "group": "control_change"}, {"time": 2506, "annotation": {"number": 64, "value": 127}, "group": "control_change"}, {"time": 2527, "annotation": {"number": 64, "value": 71}, "group": "control_change"}, {"time": 2527, "annotation": {"number": 64, "value": 0}, "group": "control_change"}, {"time": 2530, "annotation": {"number": 64, "value": 71}, "group": "control_change"}, {"time": 2530, "annotation": {"number": 64, "value": 127}, "group": "control_change"}, {"time": 2551, "annotation": {"number": 64, "value": 71}, "group": "control_change"}, {"time": 2551, "annotation": {"number": 64, "value": 0}, "group": "control_change"}, {"time": 2554, "annotation": {"number": 64, "value": 71}, "group": "control_change"}, {"time": 2554, "annotation": {"number": 64, "value": 127}, "group": "control_change"}, {"time": 2575, "annotation": {"number": 64, "value": 71}, "group": "control_change"}, {"time": 2575, "annotation": {"number": 64, "value": 0}, "group": "control_change"}, {"time": 2578, "annotation": {"number": 64, "value": 71}, "group": "control_change"}, {"time": 2579, "annotation": {"number": 64, "value": 127}, "group": "control_change"}, {"time": 2599, "annotation": {"number": 64, "value": 71}, "group": "control_change"}, {"time": 2599, "annotation": {"number": 64, "value": 0}, "group": "control_change"}, {"time": 2601, "annotation": {"number": 64, "value": 71}, "group": "control_change"}, {"time": 2602, "annotation": {"number": 64, "value": 127}, "group": "control_change"}, {"time": 2623, "annotation": {"number": 64, "value": 71}, "group": "control_change"}, {"time": 2624, "annotation": {"number": 64, "value": 0}, "group": "control_change"}, {"time": 2626, "annotation": {"number": 64, "value": 71}, "group": "control_change"}, {"time": 2627, "annotation": {"number": 64, "value": 127}, "group": "control_change"}, {"time": 2647, "annotation": {"number": 64, "value": 71}, "group": "control_change"}, {"time": 2647, "annotation": {"number": 64, "value": 0}, "group": "control_change"}, {"time": 2649, "annotation": {"number": 64, "value": 71}, "group": "control_change"}, {"time": 2650, "annotation": {"number": 64, "value": 127}, "group": "control_change"}, {"time": 2671, "annotation": {"number": 64, "value": 71}, "group": "control_change"}, {"time": 2671, "annotation": {"number": 64, "value": 0}, "group": "control_change"}, {"time": 2674, "annotation": {"number": 64, "value": 71}, "group": "control_change"}, {"time": 2675, "annotation": {"number": 64, "value": 127}, "group": "control_change"}, {"time": 2688, "annotation": {"number": 64, "value": 71}, "group": "control_change"}, {"time": 2689, "annotation": {"number": 64, "value": 0}, "group": "control_change"}, {"time": 2707, "annotation": {"number": 64, "value": 127}, "group": "control_change"}, {"time": 2725, "annotation": {"number": 64, "value": 71}, "group": "control_change"}, {"time": 2729, "annotation": {"number": 64, "value": 127}, "group": "control_change"}, {"time": 2743, "annotation": {"number": 64, "value": 71}, "group": "control_change"}, {"time": 2744, "annotation": {"number": 64, "value": 0}, "group": "control_change"}, {"time": 2758, "annotation": {"number": 64, "value": 0}, "group": "control_change"}, {"time": 2789, "annotation": {"number": 64, "value": 0}, "group": "control_change"}, {"time": 3126, "annotation": {"number": 64, "value": 30}, "group": "control_change"}, {"time": 3127, "annotation": {"number": 64, "value": 0}, "group": "control_change"}, {"time": 3127, "annotation": {"number": 64, "value": 127}, "group": "control_change"}, {"time": 3489, "annotation": {"number": 64, "value": 0}, "group": "control_change"}]}]}