{"metadata": {"schema_version": "0.2", "title": "None", "source_filename": "796.mid", "source_format": "midi"}, "resolution": 12, "tempos": [{"time": 0, "qpm": 73.99998273333736}], "key_signatures": [{"time": 0, "root": 0, "mode": "major"}], "time_signatures": [{"time": 0, "numerator": 4, "denominator": 4}, {"time": 0, "numerator": 1, "denominator": 4}], "tracks": [{"program": 0, "is_drum": false, "name": "MELODY", "notes": [{"time": 202, "pitch": 63, "duration": 3, "velocity": 100}, {"time": 205, "pitch": 65, "duration": 3, "velocity": 96}, {"time": 208, "pitch": 68, "duration": 4, "velocity": 117}, {"time": 214, "pitch": 68, "duration": 9, "velocity": 117}, {"time": 250, "pitch": 63, "duration": 2, "velocity": 112}, {"time": 253, "pitch": 65, "duration": 2, "velocity": 92}, {"time": 256, "pitch": 68, "duration": 3, "velocity": 112}, {"time": 262, "pitch": 72, "duration": 2, "velocity": 127}, {"time": 268, "pitch": 68, "duration": 8, "velocity": 112}, {"time": 298, "pitch": 63, "duration": 2, "velocity": 99}, {"time": 301, "pitch": 65, "duration": 2, "velocity": 95}, {"time": 304, "pitch": 68, "duration": 3, "velocity": 99}, {"time": 310, "pitch": 72, "duration": 2, "velocity": 127}, {"time": 313, "pitch": 72, "duration": 7, "velocity": 112}, {"time": 346, "pitch": 72, "duration": 3, "velocity": 127}, {"time": 349, "pitch": 70, "duration": 2, "velocity": 97}, {"time": 352, "pitch": 70, "duration": 2, "velocity": 100}, {"time": 355, "pitch": 68, "duration": 2, "velocity": 117}, {"time": 364, "pitch": 72, "duration": 5, "velocity": 107}, {"time": 370, "pitch": 73, "duration": 6, "velocity": 112}, {"time": 376, "pitch": 72, "duration": 5, "velocity": 107}, {"time": 388, "pitch": 72, "duration": 4, "velocity": 102}, {"time": 394, "pitch": 73, "duration": 4, "velocity": 112}, {"time": 400, "pitch": 75, "duration": 4, "velocity": 107}, {"time": 406, "pitch": 72, "duration": 5, "velocity": 122}, {"time": 424, "pitch": 65, "duration": 1, "velocity": 95}, {"time": 427, "pitch": 68, "duration": 6, "velocity": 99}, {"time": 451, "pitch": 68, "duration": 3, "velocity": 88}, {"time": 454, "pitch": 71, "duration": 3, "velocity": 102}, {"time": 457, "pitch": 71, "duration": 7, "velocity": 117}, {"time": 466, "pitch": 70, "duration": 4, "velocity": 122}, {"time": 472, "pitch": 68, "duration": 1, "velocity": 77}, {"time": 475, "pitch": 68, "duration": 6, "velocity": 112}, {"time": 502, "pitch": 63, "duration": 5, "velocity": 100}, {"time": 508, "pitch": 65, "duration": 5, "velocity": 93}, {"time": 514, "pitch": 68, "duration": 4, "velocity": 93}, {"time": 520, "pitch": 72, "duration": 3, "velocity": 117}, {"time": 523, "pitch": 70, "duration": 17, "velocity": 99}, {"time": 538, "pitch": 72, "duration": 4, "velocity": 107}, {"time": 544, "pitch": 68, "duration": 18, "velocity": 97}, {"time": 586, "pitch": 63, "duration": 3, "velocity": 100}, {"time": 589, "pitch": 65, "duration": 3, "velocity": 96}, {"time": 592, "pitch": 68, "duration": 4, "velocity": 117}, {"time": 598, "pitch": 68, "duration": 9, "velocity": 117}, {"time": 634, "pitch": 63, "duration": 2, "velocity": 112}, {"time": 637, "pitch": 65, "duration": 2, "velocity": 92}, {"time": 640, "pitch": 68, "duration": 3, "velocity": 112}, {"time": 646, "pitch": 72, "duration": 2, "velocity": 127}, {"time": 652, "pitch": 68, "duration": 8, "velocity": 112}, {"time": 682, "pitch": 63, "duration": 2, "velocity": 99}, {"time": 685, "pitch": 65, "duration": 2, "velocity": 95}, {"time": 688, "pitch": 68, "duration": 3, "velocity": 99}, {"time": 694, "pitch": 72, "duration": 2, "velocity": 127}, {"time": 697, "pitch": 72, "duration": 7, "velocity": 112}, {"time": 730, "pitch": 72, "duration": 3, "velocity": 127}, {"time": 733, "pitch": 70, "duration": 2, "velocity": 97}, {"time": 736, "pitch": 70, "duration": 2, "velocity": 100}, {"time": 739, "pitch": 68, "duration": 2, "velocity": 117}, {"time": 748, "pitch": 72, "duration": 5, "velocity": 107}, {"time": 754, "pitch": 73, "duration": 6, "velocity": 112}, {"time": 760, "pitch": 72, "duration": 5, "velocity": 107}, {"time": 772, "pitch": 72, "duration": 4, "velocity": 102}, {"time": 778, "pitch": 73, "duration": 4, "velocity": 112}, {"time": 784, "pitch": 75, "duration": 4, "velocity": 107}, {"time": 790, "pitch": 72, "duration": 5, "velocity": 122}, {"time": 808, "pitch": 65, "duration": 1, "velocity": 95}, {"time": 811, "pitch": 68, "duration": 6, "velocity": 99}, {"time": 835, "pitch": 68, "duration": 3, "velocity": 88}, {"time": 838, "pitch": 71, "duration": 3, "velocity": 102}, {"time": 841, "pitch": 71, "duration": 7, "velocity": 117}, {"time": 850, "pitch": 70, "duration": 4, "velocity": 122}, {"time": 856, "pitch": 68, "duration": 1, "velocity": 77}, {"time": 859, "pitch": 68, "duration": 6, "velocity": 112}, {"time": 886, "pitch": 63, "duration": 5, "velocity": 100}, {"time": 892, "pitch": 65, "duration": 5, "velocity": 93}, {"time": 898, "pitch": 68, "duration": 4, "velocity": 93}, {"time": 904, "pitch": 72, "duration": 3, "velocity": 117}, {"time": 907, "pitch": 70, "duration": 17, "velocity": 99}, {"time": 922, "pitch": 72, "duration": 4, "velocity": 107}, {"time": 928, "pitch": 68, "duration": 18, "velocity": 97}, {"time": 976, "pitch": 68, "duration": 4, "velocity": 100}, {"time": 982, "pitch": 72, "duration": 4, "velocity": 122}, {"time": 988, "pitch": 68, "duration": 3, "velocity": 99}, {"time": 994, "pitch": 68, "duration": 3, "velocity": 107}, {"time": 1000, "pitch": 65, "duration": 2, "velocity": 99}, {"time": 1003, "pitch": 68, "duration": 11, "velocity": 112}, {"time": 1030, "pitch": 70, "duration": 4, "velocity": 107}, {"time": 1036, "pitch": 70, "duration": 3, "velocity": 102}, {"time": 1042, "pitch": 70, "duration": 3, "velocity": 122}, {"time": 1048, "pitch": 70, "duration": 2, "velocity": 112}, {"time": 1051, "pitch": 68, "duration": 13, "velocity": 102}, {"time": 1075, "pitch": 68, "duration": 3, "velocity": 77}, {"time": 1078, "pitch": 73, "duration": 4, "velocity": 112}, {"time": 1084, "pitch": 73, "duration": 4, "velocity": 117}, {"time": 1090, "pitch": 73, "duration": 4, "velocity": 102}, {"time": 1096, "pitch": 73, "duration": 3, "velocity": 112}, {"time": 1099, "pitch": 75, "duration": 4, "velocity": 112}, {"time": 1108, "pitch": 72, "duration": 6, "velocity": 99}, {"time": 1114, "pitch": 70, "duration": 6, "velocity": 97}, {"time": 1120, "pitch": 68, "duration": 8, "velocity": 95}, {"time": 1132, "pitch": 70, "duration": 4, "velocity": 102}, {"time": 1138, "pitch": 72, "duration": 4, "velocity": 102}, {"time": 1144, "pitch": 72, "duration": 6, "velocity": 112}, {"time": 1168, "pitch": 68, "duration": 4, "velocity": 99}, {"time": 1174, "pitch": 75, "duration": 4, "velocity": 122}, {"time": 1180, "pitch": 75, "duration": 4, "velocity": 117}, {"time": 1186, "pitch": 75, "duration": 4, "velocity": 112}, {"time": 1192, "pitch": 75, "duration": 1, "velocity": 127}, {"time": 1195, "pitch": 75, "duration": 4, "velocity": 122}, {"time": 1216, "pitch": 73, "duration": 3, "velocity": 117}, {"time": 1219, "pitch": 71, "duration": 3, "velocity": 90}, {"time": 1222, "pitch": 73, "duration": 4, "velocity": 107}, {"time": 1228, "pitch": 73, "duration": 2, "velocity": 107}, {"time": 1231, "pitch": 73, "duration": 4, "velocity": 107}, {"time": 1237, "pitch": 78, "duration": 4, "velocity": 97}, {"time": 1243, "pitch": 73, "duration": 2, "velocity": 89}, {"time": 1245, "pitch": 75, "duration": 2, "velocity": 92}, {"time": 1246, "pitch": 73, "duration": 12, "velocity": 72}, {"time": 1276, "pitch": 73, "duration": 3, "velocity": 127}, {"time": 1282, "pitch": 73, "duration": 3, "velocity": 127}, {"time": 1291, "pitch": 65, "duration": 3, "velocity": 96}, {"time": 1294, "pitch": 73, "duration": 4, "velocity": 100}, {"time": 1300, "pitch": 71, "duration": 4, "velocity": 127}, {"time": 1306, "pitch": 73, "duration": 4, "velocity": 127}, {"time": 1312, "pitch": 75, "duration": 27, "velocity": 122}, {"time": 1357, "pitch": 73, "duration": 3, "velocity": 117}, {"time": 1360, "pitch": 72, "duration": 4, "velocity": 86}, {"time": 1363, "pitch": 73, "duration": 3, "velocity": 90}, {"time": 1366, "pitch": 72, "duration": 3, "velocity": 83}, {"time": 1369, "pitch": 70, "duration": 10, "velocity": 99}, {"time": 1402, "pitch": 63, "duration": 3, "velocity": 100}, {"time": 1405, "pitch": 65, "duration": 3, "velocity": 96}, {"time": 1408, "pitch": 68, "duration": 4, "velocity": 117}, {"time": 1414, "pitch": 68, "duration": 9, "velocity": 117}, {"time": 1450, "pitch": 63, "duration": 2, "velocity": 112}, {"time": 1453, "pitch": 65, "duration": 2, "velocity": 92}, {"time": 1456, "pitch": 68, "duration": 3, "velocity": 112}, {"time": 1459, "pitch": 65, "duration": 2, "velocity": 96}, {"time": 1462, "pitch": 72, "duration": 2, "velocity": 127}, {"time": 1468, "pitch": 68, "duration": 8, "velocity": 112}, {"time": 1498, "pitch": 63, "duration": 2, "velocity": 99}, {"time": 1501, "pitch": 65, "duration": 2, "velocity": 95}, {"time": 1504, "pitch": 68, "duration": 3, "velocity": 99}, {"time": 1510, "pitch": 72, "duration": 2, "velocity": 127}, {"time": 1513, "pitch": 72, "duration": 7, "velocity": 112}, {"time": 1546, "pitch": 72, "duration": 3, "velocity": 127}, {"time": 1549, "pitch": 70, "duration": 2, "velocity": 97}, {"time": 1552, "pitch": 70, "duration": 2, "velocity": 100}, {"time": 1555, "pitch": 68, "duration": 2, "velocity": 117}, {"time": 1564, "pitch": 72, "duration": 5, "velocity": 107}, {"time": 1570, "pitch": 73, "duration": 6, "velocity": 112}, {"time": 1576, "pitch": 72, "duration": 5, "velocity": 107}, {"time": 1588, "pitch": 72, "duration": 4, "velocity": 102}, {"time": 1594, "pitch": 73, "duration": 4, "velocity": 112}, {"time": 1600, "pitch": 75, "duration": 4, "velocity": 107}, {"time": 1606, "pitch": 72, "duration": 5, "velocity": 122}, {"time": 1624, "pitch": 65, "duration": 1, "velocity": 95}, {"time": 1627, "pitch": 68, "duration": 6, "velocity": 99}, {"time": 1651, "pitch": 68, "duration": 3, "velocity": 88}, {"time": 1654, "pitch": 71, "duration": 3, "velocity": 102}, {"time": 1657, "pitch": 71, "duration": 7, "velocity": 117}, {"time": 1666, "pitch": 70, "duration": 4, "velocity": 122}, {"time": 1672, "pitch": 68, "duration": 1, "velocity": 77}, {"time": 1675, "pitch": 68, "duration": 6, "velocity": 112}, {"time": 1702, "pitch": 63, "duration": 5, "velocity": 100}, {"time": 1708, "pitch": 65, "duration": 5, "velocity": 93}, {"time": 1714, "pitch": 68, "duration": 4, "velocity": 93}, {"time": 1720, "pitch": 72, "duration": 3, "velocity": 117}, {"time": 1723, "pitch": 70, "duration": 17, "velocity": 99}, {"time": 1738, "pitch": 72, "duration": 4, "velocity": 107}, {"time": 1744, "pitch": 68, "duration": 18, "velocity": 97}, {"time": 2224, "pitch": 68, "duration": 4, "velocity": 100}, {"time": 2230, "pitch": 72, "duration": 4, "velocity": 122}, {"time": 2236, "pitch": 68, "duration": 3, "velocity": 99}, {"time": 2242, "pitch": 68, "duration": 3, "velocity": 107}, {"time": 2248, "pitch": 65, "duration": 2, "velocity": 99}, {"time": 2251, "pitch": 68, "duration": 11, "velocity": 112}, {"time": 2278, "pitch": 70, "duration": 4, "velocity": 107}, {"time": 2284, "pitch": 70, "duration": 3, "velocity": 102}, {"time": 2290, "pitch": 70, "duration": 3, "velocity": 122}, {"time": 2296, "pitch": 70, "duration": 2, "velocity": 112}, {"time": 2299, "pitch": 68, "duration": 13, "velocity": 102}, {"time": 2323, "pitch": 68, "duration": 3, "velocity": 100}, {"time": 2326, "pitch": 73, "duration": 4, "velocity": 112}, {"time": 2332, "pitch": 73, "duration": 4, "velocity": 117}, {"time": 2338, "pitch": 73, "duration": 4, "velocity": 102}, {"time": 2344, "pitch": 73, "duration": 3, "velocity": 112}, {"time": 2347, "pitch": 75, "duration": 4, "velocity": 112}, {"time": 2356, "pitch": 72, "duration": 6, "velocity": 99}, {"time": 2362, "pitch": 70, "duration": 6, "velocity": 97}, {"time": 2368, "pitch": 68, "duration": 8, "velocity": 95}, {"time": 2380, "pitch": 70, "duration": 4, "velocity": 102}, {"time": 2386, "pitch": 72, "duration": 4, "velocity": 102}, {"time": 2392, "pitch": 72, "duration": 6, "velocity": 112}, {"time": 2416, "pitch": 68, "duration": 4, "velocity": 99}, {"time": 2422, "pitch": 75, "duration": 4, "velocity": 122}, {"time": 2428, "pitch": 75, "duration": 4, "velocity": 117}, {"time": 2434, "pitch": 75, "duration": 4, "velocity": 112}, {"time": 2440, "pitch": 75, "duration": 1, "velocity": 127}, {"time": 2443, "pitch": 75, "duration": 4, "velocity": 122}, {"time": 2464, "pitch": 73, "duration": 3, "velocity": 117}, {"time": 2467, "pitch": 71, "duration": 3, "velocity": 90}, {"time": 2470, "pitch": 73, "duration": 4, "velocity": 107}, {"time": 2476, "pitch": 73, "duration": 2, "velocity": 107}, {"time": 2479, "pitch": 73, "duration": 4, "velocity": 107}, {"time": 2485, "pitch": 78, "duration": 4, "velocity": 97}, {"time": 2491, "pitch": 73, "duration": 2, "velocity": 89}, {"time": 2493, "pitch": 75, "duration": 2, "velocity": 92}, {"time": 2494, "pitch": 73, "duration": 12, "velocity": 72}, {"time": 2524, "pitch": 73, "duration": 3, "velocity": 127}, {"time": 2530, "pitch": 73, "duration": 3, "velocity": 127}, {"time": 2539, "pitch": 63, "duration": 3, "velocity": 88}, {"time": 2542, "pitch": 73, "duration": 4, "velocity": 100}, {"time": 2548, "pitch": 71, "duration": 4, "velocity": 127}, {"time": 2554, "pitch": 73, "duration": 4, "velocity": 127}, {"time": 2560, "pitch": 75, "duration": 27, "velocity": 122}, {"time": 2605, "pitch": 73, "duration": 3, "velocity": 117}, {"time": 2608, "pitch": 72, "duration": 4, "velocity": 86}, {"time": 2611, "pitch": 73, "duration": 3, "velocity": 90}, {"time": 2614, "pitch": 72, "duration": 3, "velocity": 83}, {"time": 2617, "pitch": 70, "duration": 10, "velocity": 99}, {"time": 2650, "pitch": 63, "duration": 3, "velocity": 100}, {"time": 2653, "pitch": 65, "duration": 3, "velocity": 96}, {"time": 2656, "pitch": 68, "duration": 4, "velocity": 117}, {"time": 2662, "pitch": 68, "duration": 9, "velocity": 117}, {"time": 2698, "pitch": 63, "duration": 2, "velocity": 112}, {"time": 2701, "pitch": 65, "duration": 2, "velocity": 92}, {"time": 2704, "pitch": 68, "duration": 3, "velocity": 112}, {"time": 2707, "pitch": 65, "duration": 2, "velocity": 96}, {"time": 2710, "pitch": 72, "duration": 2, "velocity": 127}, {"time": 2716, "pitch": 68, "duration": 8, "velocity": 112}, {"time": 2746, "pitch": 63, "duration": 2, "velocity": 99}, {"time": 2749, "pitch": 65, "duration": 2, "velocity": 95}, {"time": 2752, "pitch": 68, "duration": 3, "velocity": 99}, {"time": 2758, "pitch": 72, "duration": 2, "velocity": 127}, {"time": 2761, "pitch": 72, "duration": 7, "velocity": 112}, {"time": 2794, "pitch": 72, "duration": 3, "velocity": 127}, {"time": 2797, "pitch": 70, "duration": 2, "velocity": 97}, {"time": 2800, "pitch": 70, "duration": 2, "velocity": 100}, {"time": 2803, "pitch": 68, "duration": 2, "velocity": 117}, {"time": 2812, "pitch": 72, "duration": 5, "velocity": 107}, {"time": 2818, "pitch": 73, "duration": 6, "velocity": 112}, {"time": 2824, "pitch": 72, "duration": 5, "velocity": 107}, {"time": 2836, "pitch": 72, "duration": 4, "velocity": 102}, {"time": 2842, "pitch": 73, "duration": 4, "velocity": 112}, {"time": 2848, "pitch": 75, "duration": 4, "velocity": 107}, {"time": 2854, "pitch": 72, "duration": 5, "velocity": 122}, {"time": 2872, "pitch": 65, "duration": 1, "velocity": 95}, {"time": 2875, "pitch": 68, "duration": 6, "velocity": 99}, {"time": 2899, "pitch": 68, "duration": 3, "velocity": 88}, {"time": 2902, "pitch": 71, "duration": 3, "velocity": 102}, {"time": 2905, "pitch": 71, "duration": 7, "velocity": 117}, {"time": 2914, "pitch": 70, "duration": 4, "velocity": 122}, {"time": 2920, "pitch": 68, "duration": 1, "velocity": 77}, {"time": 2923, "pitch": 68, "duration": 6, "velocity": 112}, {"time": 2950, "pitch": 63, "duration": 5, "velocity": 100}, {"time": 2956, "pitch": 65, "duration": 5, "velocity": 93}, {"time": 2962, "pitch": 68, "duration": 4, "velocity": 93}, {"time": 2968, "pitch": 72, "duration": 3, "velocity": 117}, {"time": 2971, "pitch": 70, "duration": 17, "velocity": 99}, {"time": 2986, "pitch": 72, "duration": 4, "velocity": 107}, {"time": 2992, "pitch": 68, "duration": 18, "velocity": 97}, {"time": 3040, "pitch": 68, "duration": 4, "velocity": 100}, {"time": 3046, "pitch": 63, "duration": 5, "velocity": 97}, {"time": 3052, "pitch": 65, "duration": 5, "velocity": 97}, {"time": 3058, "pitch": 68, "duration": 3, "velocity": 107}, {"time": 3064, "pitch": 72, "duration": 3, "velocity": 112}, {"time": 3067, "pitch": 70, "duration": 14, "velocity": 97}, {"time": 3082, "pitch": 72, "duration": 4, "velocity": 112}, {"time": 3088, "pitch": 72, "duration": 12, "velocity": 127}, {"time": 3100, "pitch": 73, "duration": 6, "velocity": 127}, {"time": 3106, "pitch": 75, "duration": 6, "velocity": 112}, {"time": 3112, "pitch": 72, "duration": 16, "velocity": 112}, {"time": 3142, "pitch": 63, "duration": 5, "velocity": 97}, {"time": 3148, "pitch": 65, "duration": 4, "velocity": 96}, {"time": 3154, "pitch": 68, "duration": 4, "velocity": 100}, {"time": 3160, "pitch": 72, "duration": 9, "velocity": 112}, {"time": 3226, "pitch": 68, "duration": 5, "velocity": 102}, {"time": 3232, "pitch": 68, "duration": 48, "velocity": 107}]}, {"program": 0, "is_drum": false, "name": "BRIDGE", "notes": [{"time": 22, "pitch": 72, "duration": 37, "velocity": 100}, {"time": 58, "pitch": 70, "duration": 13, "velocity": 100}, {"time": 70, "pitch": 72, "duration": 32, "velocity": 100}, {"time": 100, "pitch": 73, "duration": 7, "velocity": 93}, {"time": 106, "pitch": 75, "duration": 12, "velocity": 89}, {"time": 118, "pitch": 72, "duration": 24, "velocity": 112}, {"time": 142, "pitch": 75, "duration": 22, "velocity": 127}, {"time": 166, "pitch": 76, "duration": 6, "velocity": 122}, {"time": 172, "pitch": 75, "duration": 6, "velocity": 100}, {"time": 178, "pitch": 73, "duration": 6, "velocity": 112}, {"time": 184, "pitch": 72, "duration": 26, "velocity": 107}, {"time": 214, "pitch": 60, "duration": 6, "velocity": 96}, {"time": 220, "pitch": 56, "duration": 11, "velocity": 75}, {"time": 226, "pitch": 63, "duration": 3, "velocity": 90}, {"time": 232, "pitch": 56, "duration": 4, "velocity": 85}, {"time": 238, "pitch": 60, "duration": 6, "velocity": 90}, {"time": 244, "pitch": 55, "duration": 7, "velocity": 73}, {"time": 250, "pitch": 63, "duration": 5, "velocity": 86}, {"time": 256, "pitch": 56, "duration": 3, "velocity": 88}, {"time": 271, "pitch": 65, "duration": 3, "velocity": 90}, {"time": 280, "pitch": 64, "duration": 13, "velocity": 86}, {"time": 478, "pitch": 64, "duration": 7, "velocity": 93}, {"time": 484, "pitch": 58, "duration": 6, "velocity": 78}, {"time": 490, "pitch": 68, "duration": 4, "velocity": 86}, {"time": 496, "pitch": 64, "duration": 8, "velocity": 93}, {"time": 502, "pitch": 61, "duration": 16, "velocity": 82}, {"time": 550, "pitch": 60, "duration": 7, "velocity": 86}, {"time": 556, "pitch": 56, "duration": 6, "velocity": 64}, {"time": 562, "pitch": 63, "duration": 7, "velocity": 88}, {"time": 568, "pitch": 61, "duration": 14, "velocity": 88}, {"time": 598, "pitch": 60, "duration": 6, "velocity": 96}, {"time": 604, "pitch": 56, "duration": 11, "velocity": 75}, {"time": 610, "pitch": 63, "duration": 3, "velocity": 90}, {"time": 616, "pitch": 56, "duration": 4, "velocity": 85}, {"time": 622, "pitch": 60, "duration": 6, "velocity": 90}, {"time": 628, "pitch": 55, "duration": 7, "velocity": 73}, {"time": 634, "pitch": 63, "duration": 5, "velocity": 86}, {"time": 640, "pitch": 56, "duration": 3, "velocity": 88}, {"time": 655, "pitch": 65, "duration": 3, "velocity": 90}, {"time": 664, "pitch": 64, "duration": 13, "velocity": 86}, {"time": 862, "pitch": 64, "duration": 7, "velocity": 93}, {"time": 868, "pitch": 58, "duration": 6, "velocity": 78}, {"time": 874, "pitch": 68, "duration": 4, "velocity": 86}, {"time": 880, "pitch": 64, "duration": 8, "velocity": 93}, {"time": 886, "pitch": 61, "duration": 16, "velocity": 82}, {"time": 1396, "pitch": 65, "duration": 7, "velocity": 112}, {"time": 1402, "pitch": 63, "duration": 13, "velocity": 97}, {"time": 1414, "pitch": 60, "duration": 6, "velocity": 96}, {"time": 1420, "pitch": 56, "duration": 11, "velocity": 75}, {"time": 1471, "pitch": 65, "duration": 3, "velocity": 90}, {"time": 1480, "pitch": 64, "duration": 13, "velocity": 86}, {"time": 1678, "pitch": 64, "duration": 7, "velocity": 93}, {"time": 1684, "pitch": 58, "duration": 6, "velocity": 78}, {"time": 1690, "pitch": 68, "duration": 4, "velocity": 86}, {"time": 1696, "pitch": 64, "duration": 8, "velocity": 93}, {"time": 1702, "pitch": 61, "duration": 16, "velocity": 82}, {"time": 1828, "pitch": 56, "duration": 5, "velocity": 93}, {"time": 1834, "pitch": 58, "duration": 6, "velocity": 100}, {"time": 1840, "pitch": 56, "duration": 11, "velocity": 83}, {"time": 1864, "pitch": 60, "duration": 3, "velocity": 107}, {"time": 1867, "pitch": 63, "duration": 12, "velocity": 97}, {"time": 1888, "pitch": 63, "duration": 4, "velocity": 90}, {"time": 1888, "pitch": 68, "duration": 4, "velocity": 99}, {"time": 1891, "pitch": 65, "duration": 12, "velocity": 96}, {"time": 1891, "pitch": 70, "duration": 12, "velocity": 97}, {"time": 1906, "pitch": 70, "duration": 2, "velocity": 107}, {"time": 1909, "pitch": 68, "duration": 2, "velocity": 96}, {"time": 1912, "pitch": 68, "duration": 2, "velocity": 83}, {"time": 1915, "pitch": 70, "duration": 4, "velocity": 97}, {"time": 1921, "pitch": 70, "duration": 2, "velocity": 107}, {"time": 1927, "pitch": 68, "duration": 9, "velocity": 96}, {"time": 1942, "pitch": 72, "duration": 5, "velocity": 122}, {"time": 1948, "pitch": 70, "duration": 3, "velocity": 86}, {"time": 1951, "pitch": 68, "duration": 3, "velocity": 76}, {"time": 1954, "pitch": 70, "duration": 2, "velocity": 89}, {"time": 1957, "pitch": 70, "duration": 2, "velocity": 86}, {"time": 1960, "pitch": 65, "duration": 8, "velocity": 92}, {"time": 1972, "pitch": 63, "duration": 2, "velocity": 96}, {"time": 1978, "pitch": 65, "duration": 6, "velocity": 99}, {"time": 1984, "pitch": 63, "duration": 6, "velocity": 100}, {"time": 2038, "pitch": 75, "duration": 22, "velocity": 112}, {"time": 2074, "pitch": 73, "duration": 5, "velocity": 96}, {"time": 2080, "pitch": 71, "duration": 6, "velocity": 90}, {"time": 2086, "pitch": 73, "duration": 12, "velocity": 107}, {"time": 2110, "pitch": 75, "duration": 24, "velocity": 100}, {"time": 2134, "pitch": 73, "duration": 22, "velocity": 99}, {"time": 2164, "pitch": 75, "duration": 6, "velocity": 97}, {"time": 2170, "pitch": 76, "duration": 6, "velocity": 99}, {"time": 2176, "pitch": 75, "duration": 51, "velocity": 107}, {"time": 2254, "pitch": 80, "duration": 31, "velocity": 117}, {"time": 2302, "pitch": 82, "duration": 13, "velocity": 96}, {"time": 2314, "pitch": 84, "duration": 12, "velocity": 92}, {"time": 2326, "pitch": 80, "duration": 25, "velocity": 92}, {"time": 2356, "pitch": 80, "duration": 13, "velocity": 102}, {"time": 2368, "pitch": 77, "duration": 6, "velocity": 93}, {"time": 2374, "pitch": 75, "duration": 24, "velocity": 95}, {"time": 2422, "pitch": 75, "duration": 45, "velocity": 107}, {"time": 2458, "pitch": 78, "duration": 12, "velocity": 102}, {"time": 2470, "pitch": 75, "duration": 24, "velocity": 95}, {"time": 2518, "pitch": 73, "duration": 23, "velocity": 127}, {"time": 2542, "pitch": 71, "duration": 23, "velocity": 122}, {"time": 2566, "pitch": 70, "duration": 46, "velocity": 117}, {"time": 2662, "pitch": 60, "duration": 6, "velocity": 96}, {"time": 2668, "pitch": 56, "duration": 11, "velocity": 75}, {"time": 2719, "pitch": 65, "duration": 3, "velocity": 90}, {"time": 2728, "pitch": 64, "duration": 13, "velocity": 86}, {"time": 2926, "pitch": 64, "duration": 7, "velocity": 93}, {"time": 2932, "pitch": 58, "duration": 6, "velocity": 78}, {"time": 2938, "pitch": 68, "duration": 4, "velocity": 86}, {"time": 2944, "pitch": 64, "duration": 8, "velocity": 93}, {"time": 2950, "pitch": 61, "duration": 16, "velocity": 82}, {"time": 3190, "pitch": 70, "duration": 25, "velocity": 99}, {"time": 3214, "pitch": 68, "duration": 22, "velocity": 81}, {"time": 3238, "pitch": 75, "duration": 36, "velocity": 102}, {"time": 3286, "pitch": 76, "duration": 6, "velocity": 107}, {"time": 3292, "pitch": 75, "duration": 6, "velocity": 90}, {"time": 3298, "pitch": 73, "duration": 6, "velocity": 102}, {"time": 3304, "pitch": 72, "duration": 17, "velocity": 96}, {"time": 3316, "pitch": 73, "duration": 6, "velocity": 100}, {"time": 3322, "pitch": 75, "duration": 11, "velocity": 93}, {"time": 3334, "pitch": 72, "duration": 23, "velocity": 100}, {"time": 3376, "pitch": 75, "duration": 6, "velocity": 83}, {"time": 3382, "pitch": 76, "duration": 12, "velocity": 107}, {"time": 3388, "pitch": 75, "duration": 4, "velocity": 99}, {"time": 3394, "pitch": 73, "duration": 4, "velocity": 100}, {"time": 3400, "pitch": 72, "duration": 34, "velocity": 102}]}, {"program": 0, "is_drum": false, "name": "PIANO", "notes": [{"time": 22, "pitch": 44, "duration": 47, "velocity": 81}, {"time": 28, "pitch": 51, "duration": 9, "velocity": 64}, {"time": 34, "pitch": 56, "duration": 42, "velocity": 90}, {"time": 40, "pitch": 51, "duration": 8, "velocity": 46}, {"time": 46, "pitch": 63, "duration": 64, "velocity": 88}, {"time": 52, "pitch": 51, "duration": 17, "velocity": 68}, {"time": 58, "pitch": 58, "duration": 20, "velocity": 85}, {"time": 64, "pitch": 60, "duration": 23, "velocity": 59}, {"time": 70, "pitch": 44, "duration": 46, "velocity": 70}, {"time": 76, "pitch": 51, "duration": 9, "velocity": 73}, {"time": 82, "pitch": 58, "duration": 11, "velocity": 93}, {"time": 88, "pitch": 51, "duration": 9, "velocity": 79}, {"time": 94, "pitch": 60, "duration": 17, "velocity": 90}, {"time": 100, "pitch": 51, "duration": 18, "velocity": 86}, {"time": 106, "pitch": 58, "duration": 12, "velocity": 100}, {"time": 112, "pitch": 60, "duration": 13, "velocity": 73}, {"time": 118, "pitch": 44, "duration": 43, "velocity": 83}, {"time": 124, "pitch": 51, "duration": 9, "velocity": 68}, {"time": 130, "pitch": 56, "duration": 31, "velocity": 90}, {"time": 136, "pitch": 51, "duration": 9, "velocity": 92}, {"time": 142, "pitch": 61, "duration": 19, "velocity": 99}, {"time": 148, "pitch": 51, "duration": 13, "velocity": 77}, {"time": 154, "pitch": 60, "duration": 7, "velocity": 83}, {"time": 160, "pitch": 58, "duration": 1, "velocity": 69}, {"time": 166, "pitch": 44, "duration": 21, "velocity": 65}, {"time": 166, "pitch": 56, "duration": 11, "velocity": 62}, {"time": 166, "pitch": 61, "duration": 8, "velocity": 74}, {"time": 166, "pitch": 64, "duration": 8, "velocity": 76}, {"time": 172, "pitch": 49, "duration": 17, "velocity": 38}, {"time": 175, "pitch": 61, "duration": 16, "velocity": 77}, {"time": 175, "pitch": 64, "duration": 16, "velocity": 92}, {"time": 184, "pitch": 56, "duration": 7, "velocity": 75}, {"time": 190, "pitch": 44, "duration": 22, "velocity": 88}, {"time": 196, "pitch": 51, "duration": 8, "velocity": 59}, {"time": 202, "pitch": 58, "duration": 7, "velocity": 90}, {"time": 205, "pitch": 51, "duration": 8, "velocity": 57}, {"time": 208, "pitch": 60, "duration": 6, "velocity": 83}, {"time": 214, "pitch": 44, "duration": 22, "velocity": 93}, {"time": 220, "pitch": 51, "duration": 18, "velocity": 63}, {"time": 226, "pitch": 63, "duration": 23, "velocity": 92}, {"time": 232, "pitch": 56, "duration": 20, "velocity": 81}, {"time": 238, "pitch": 44, "duration": 16, "velocity": 64}, {"time": 244, "pitch": 51, "duration": 8, "velocity": 51}, {"time": 250, "pitch": 60, "duration": 12, "velocity": 89}, {"time": 250, "pitch": 63, "duration": 12, "velocity": 35}, {"time": 256, "pitch": 56, "duration": 7, "velocity": 69}, {"time": 262, "pitch": 37, "duration": 21, "velocity": 66}, {"time": 268, "pitch": 44, "duration": 16, "velocity": 58}, {"time": 274, "pitch": 56, "duration": 22, "velocity": 89}, {"time": 280, "pitch": 49, "duration": 19, "velocity": 69}, {"time": 286, "pitch": 37, "duration": 15, "velocity": 69}, {"time": 286, "pitch": 52, "duration": 11, "velocity": 68}, {"time": 292, "pitch": 44, "duration": 8, "velocity": 53}, {"time": 298, "pitch": 52, "duration": 12, "velocity": 85}, {"time": 298, "pitch": 56, "duration": 12, "velocity": 82}, {"time": 304, "pitch": 49, "duration": 6, "velocity": 67}, {"time": 310, "pitch": 44, "duration": 23, "velocity": 73}, {"time": 316, "pitch": 51, "duration": 19, "velocity": 72}, {"time": 322, "pitch": 63, "duration": 23, "velocity": 102}, {"time": 328, "pitch": 56, "duration": 30, "velocity": 82}, {"time": 334, "pitch": 44, "duration": 14, "velocity": 66}, {"time": 340, "pitch": 51, "duration": 7, "velocity": 79}, {"time": 346, "pitch": 63, "duration": 12, "velocity": 100}, {"time": 352, "pitch": 60, "duration": 6, "velocity": 82}, {"time": 358, "pitch": 48, "duration": 17, "velocity": 97}, {"time": 364, "pitch": 51, "duration": 10, "velocity": 63}, {"time": 370, "pitch": 54, "duration": 4, "velocity": 57}, {"time": 370, "pitch": 63, "duration": 12, "velocity": 85}, {"time": 370, "pitch": 66, "duration": 12, "velocity": 83}, {"time": 376, "pitch": 60, "duration": 7, "velocity": 76}, {"time": 382, "pitch": 41, "duration": 17, "velocity": 74}, {"time": 388, "pitch": 48, "duration": 11, "velocity": 68}, {"time": 394, "pitch": 56, "duration": 12, "velocity": 68}, {"time": 394, "pitch": 60, "duration": 12, "velocity": 66}, {"time": 400, "pitch": 53, "duration": 6, "velocity": 56}, {"time": 406, "pitch": 46, "duration": 22, "velocity": 85}, {"time": 412, "pitch": 53, "duration": 18, "velocity": 68}, {"time": 418, "pitch": 61, "duration": 24, "velocity": 89}, {"time": 424, "pitch": 58, "duration": 17, "velocity": 65}, {"time": 430, "pitch": 46, "duration": 14, "velocity": 78}, {"time": 436, "pitch": 53, "duration": 7, "velocity": 86}, {"time": 442, "pitch": 61, "duration": 11, "velocity": 76}, {"time": 442, "pitch": 65, "duration": 11, "velocity": 90}, {"time": 448, "pitch": 58, "duration": 6, "velocity": 64}, {"time": 454, "pitch": 37, "duration": 22, "velocity": 56}, {"time": 454, "pitch": 52, "duration": 13, "velocity": 89}, {"time": 454, "pitch": 55, "duration": 31, "velocity": 85}, {"time": 460, "pitch": 49, "duration": 18, "velocity": 69}, {"time": 466, "pitch": 58, "duration": 22, "velocity": 72}, {"time": 472, "pitch": 52, "duration": 17, "velocity": 72}, {"time": 478, "pitch": 37, "duration": 18, "velocity": 78}, {"time": 484, "pitch": 49, "duration": 17, "velocity": 79}, {"time": 490, "pitch": 44, "duration": 2, "velocity": 35}, {"time": 490, "pitch": 52, "duration": 1, "velocity": 56}, {"time": 490, "pitch": 55, "duration": 12, "velocity": 100}, {"time": 490, "pitch": 58, "duration": 12, "velocity": 83}, {"time": 496, "pitch": 52, "duration": 6, "velocity": 66}, {"time": 502, "pitch": 46, "duration": 16, "velocity": 86}, {"time": 508, "pitch": 53, "duration": 9, "velocity": 64}, {"time": 514, "pitch": 61, "duration": 13, "velocity": 75}, {"time": 514, "pitch": 65, "duration": 13, "velocity": 72}, {"time": 520, "pitch": 58, "duration": 7, "velocity": 85}, {"time": 526, "pitch": 39, "duration": 16, "velocity": 86}, {"time": 532, "pitch": 46, "duration": 9, "velocity": 64}, {"time": 538, "pitch": 55, "duration": 11, "velocity": 107}, {"time": 544, "pitch": 51, "duration": 5, "velocity": 70}, {"time": 550, "pitch": 44, "duration": 23, "velocity": 92}, {"time": 556, "pitch": 51, "duration": 8, "velocity": 76}, {"time": 562, "pitch": 58, "duration": 21, "velocity": 93}, {"time": 568, "pitch": 60, "duration": 14, "velocity": 77}, {"time": 574, "pitch": 44, "duration": 24, "velocity": 75}, {"time": 580, "pitch": 51, "duration": 7, "velocity": 69}, {"time": 586, "pitch": 58, "duration": 12, "velocity": 96}, {"time": 589, "pitch": 51, "duration": 8, "velocity": 61}, {"time": 592, "pitch": 60, "duration": 7, "velocity": 90}, {"time": 598, "pitch": 44, "duration": 22, "velocity": 93}, {"time": 604, "pitch": 51, "duration": 18, "velocity": 63}, {"time": 610, "pitch": 63, "duration": 23, "velocity": 92}, {"time": 616, "pitch": 56, "duration": 20, "velocity": 81}, {"time": 622, "pitch": 44, "duration": 16, "velocity": 64}, {"time": 628, "pitch": 51, "duration": 8, "velocity": 51}, {"time": 634, "pitch": 60, "duration": 12, "velocity": 89}, {"time": 634, "pitch": 63, "duration": 12, "velocity": 35}, {"time": 640, "pitch": 56, "duration": 7, "velocity": 69}, {"time": 646, "pitch": 37, "duration": 21, "velocity": 66}, {"time": 652, "pitch": 44, "duration": 16, "velocity": 58}, {"time": 658, "pitch": 56, "duration": 22, "velocity": 89}, {"time": 664, "pitch": 49, "duration": 19, "velocity": 69}, {"time": 670, "pitch": 37, "duration": 15, "velocity": 69}, {"time": 670, "pitch": 52, "duration": 11, "velocity": 68}, {"time": 676, "pitch": 44, "duration": 8, "velocity": 53}, {"time": 682, "pitch": 52, "duration": 12, "velocity": 85}, {"time": 682, "pitch": 56, "duration": 12, "velocity": 82}, {"time": 688, "pitch": 49, "duration": 6, "velocity": 67}, {"time": 694, "pitch": 44, "duration": 23, "velocity": 73}, {"time": 700, "pitch": 51, "duration": 19, "velocity": 72}, {"time": 706, "pitch": 63, "duration": 23, "velocity": 102}, {"time": 712, "pitch": 56, "duration": 30, "velocity": 82}, {"time": 718, "pitch": 44, "duration": 14, "velocity": 66}, {"time": 724, "pitch": 51, "duration": 7, "velocity": 79}, {"time": 730, "pitch": 63, "duration": 12, "velocity": 100}, {"time": 736, "pitch": 60, "duration": 6, "velocity": 82}, {"time": 742, "pitch": 48, "duration": 17, "velocity": 97}, {"time": 748, "pitch": 51, "duration": 10, "velocity": 63}, {"time": 754, "pitch": 54, "duration": 4, "velocity": 57}, {"time": 754, "pitch": 63, "duration": 12, "velocity": 85}, {"time": 754, "pitch": 66, "duration": 12, "velocity": 83}, {"time": 760, "pitch": 60, "duration": 7, "velocity": 76}, {"time": 766, "pitch": 41, "duration": 17, "velocity": 74}, {"time": 772, "pitch": 48, "duration": 11, "velocity": 68}, {"time": 778, "pitch": 56, "duration": 12, "velocity": 68}, {"time": 778, "pitch": 60, "duration": 12, "velocity": 66}, {"time": 784, "pitch": 53, "duration": 6, "velocity": 56}, {"time": 790, "pitch": 46, "duration": 22, "velocity": 85}, {"time": 796, "pitch": 53, "duration": 18, "velocity": 68}, {"time": 802, "pitch": 61, "duration": 24, "velocity": 89}, {"time": 808, "pitch": 58, "duration": 17, "velocity": 65}, {"time": 814, "pitch": 46, "duration": 14, "velocity": 78}, {"time": 820, "pitch": 53, "duration": 7, "velocity": 86}, {"time": 826, "pitch": 61, "duration": 11, "velocity": 76}, {"time": 826, "pitch": 65, "duration": 11, "velocity": 90}, {"time": 832, "pitch": 58, "duration": 6, "velocity": 64}, {"time": 838, "pitch": 40, "duration": 22, "velocity": 92}, {"time": 844, "pitch": 47, "duration": 19, "velocity": 33}, {"time": 850, "pitch": 52, "duration": 12, "velocity": 55}, {"time": 850, "pitch": 59, "duration": 23, "velocity": 89}, {"time": 850, "pitch": 64, "duration": 22, "velocity": 92}, {"time": 856, "pitch": 56, "duration": 15, "velocity": 81}, {"time": 862, "pitch": 40, "duration": 25, "velocity": 72}, {"time": 868, "pitch": 47, "duration": 17, "velocity": 65}, {"time": 874, "pitch": 52, "duration": 11, "velocity": 66}, {"time": 874, "pitch": 59, "duration": 11, "velocity": 88}, {"time": 874, "pitch": 64, "duration": 12, "velocity": 88}, {"time": 880, "pitch": 56, "duration": 6, "velocity": 76}, {"time": 886, "pitch": 46, "duration": 16, "velocity": 86}, {"time": 892, "pitch": 53, "duration": 9, "velocity": 64}, {"time": 898, "pitch": 61, "duration": 13, "velocity": 75}, {"time": 898, "pitch": 65, "duration": 13, "velocity": 72}, {"time": 904, "pitch": 58, "duration": 7, "velocity": 85}, {"time": 910, "pitch": 39, "duration": 16, "velocity": 86}, {"time": 916, "pitch": 46, "duration": 9, "velocity": 64}, {"time": 922, "pitch": 55, "duration": 11, "velocity": 107}, {"time": 928, "pitch": 51, "duration": 5, "velocity": 70}, {"time": 934, "pitch": 44, "duration": 23, "velocity": 92}, {"time": 940, "pitch": 51, "duration": 8, "velocity": 76}, {"time": 946, "pitch": 58, "duration": 21, "velocity": 93}, {"time": 952, "pitch": 60, "duration": 14, "velocity": 77}, {"time": 958, "pitch": 44, "duration": 24, "velocity": 75}, {"time": 964, "pitch": 51, "duration": 7, "velocity": 69}, {"time": 970, "pitch": 58, "duration": 12, "velocity": 96}, {"time": 973, "pitch": 51, "duration": 8, "velocity": 61}, {"time": 976, "pitch": 60, "duration": 7, "velocity": 90}, {"time": 982, "pitch": 37, "duration": 22, "velocity": 81}, {"time": 988, "pitch": 44, "duration": 22, "velocity": 79}, {"time": 994, "pitch": 56, "duration": 4, "velocity": 79}, {"time": 994, "pitch": 60, "duration": 7, "velocity": 92}, {"time": 994, "pitch": 61, "duration": 22, "velocity": 100}, {"time": 994, "pitch": 65, "duration": 21, "velocity": 89}, {"time": 1000, "pitch": 49, "duration": 3, "velocity": 70}, {"time": 1000, "pitch": 56, "duration": 14, "velocity": 93}, {"time": 1006, "pitch": 37, "duration": 23, "velocity": 66}, {"time": 1012, "pitch": 44, "duration": 19, "velocity": 82}, {"time": 1018, "pitch": 49, "duration": 7, "velocity": 93}, {"time": 1018, "pitch": 56, "duration": 13, "velocity": 70}, {"time": 1018, "pitch": 65, "duration": 13, "velocity": 88}, {"time": 1024, "pitch": 61, "duration": 7, "velocity": 85}, {"time": 1027, "pitch": 60, "duration": 4, "velocity": 86}, {"time": 1030, "pitch": 48, "duration": 18, "velocity": 69}, {"time": 1036, "pitch": 55, "duration": 11, "velocity": 88}, {"time": 1042, "pitch": 60, "duration": 4, "velocity": 89}, {"time": 1042, "pitch": 63, "duration": 3, "velocity": 83}, {"time": 1042, "pitch": 67, "duration": 11, "velocity": 112}, {"time": 1048, "pitch": 63, "duration": 5, "velocity": 89}, {"time": 1051, "pitch": 41, "duration": 17, "velocity": 63}, {"time": 1051, "pitch": 60, "duration": 5, "velocity": 86}, {"time": 1060, "pitch": 48, "duration": 14, "velocity": 70}, {"time": 1063, "pitch": 53, "duration": 8, "velocity": 82}, {"time": 1066, "pitch": 60, "duration": 7, "velocity": 85}, {"time": 1066, "pitch": 68, "duration": 12, "velocity": 96}, {"time": 1069, "pitch": 53, "duration": 2, "velocity": 70}, {"time": 1072, "pitch": 65, "duration": 5, "velocity": 88}, {"time": 1075, "pitch": 60, "duration": 3, "velocity": 89}, {"time": 1078, "pitch": 46, "duration": 18, "velocity": 76}, {"time": 1084, "pitch": 53, "duration": 11, "velocity": 81}, {"time": 1090, "pitch": 58, "duration": 4, "velocity": 93}, {"time": 1090, "pitch": 61, "duration": 3, "velocity": 95}, {"time": 1090, "pitch": 65, "duration": 11, "velocity": 93}, {"time": 1096, "pitch": 61, "duration": 5, "velocity": 102}, {"time": 1099, "pitch": 58, "duration": 4, "velocity": 99}, {"time": 1102, "pitch": 39, "duration": 17, "velocity": 85}, {"time": 1108, "pitch": 46, "duration": 14, "velocity": 96}, {"time": 1114, "pitch": 58, "duration": 6, "velocity": 86}, {"time": 1114, "pitch": 63, "duration": 7, "velocity": 86}, {"time": 1114, "pitch": 67, "duration": 11, "velocity": 88}, {"time": 1120, "pitch": 51, "duration": 6, "velocity": 99}, {"time": 1126, "pitch": 44, "duration": 22, "velocity": 89}, {"time": 1132, "pitch": 51, "duration": 6, "velocity": 73}, {"time": 1138, "pitch": 56, "duration": 6, "velocity": 95}, {"time": 1138, "pitch": 60, "duration": 4, "velocity": 89}, {"time": 1138, "pitch": 63, "duration": 12, "velocity": 93}, {"time": 1144, "pitch": 60, "duration": 6, "velocity": 92}, {"time": 1147, "pitch": 56, "duration": 3, "velocity": 89}, {"time": 1150, "pitch": 44, "duration": 16, "velocity": 79}, {"time": 1156, "pitch": 51, "duration": 14, "velocity": 64}, {"time": 1162, "pitch": 63, "duration": 6, "velocity": 82}, {"time": 1162, "pitch": 60, "duration": 5, "velocity": 95}, {"time": 1162, "pitch": 68, "duration": 11, "velocity": 97}, {"time": 1168, "pitch": 56, "duration": 4, "velocity": 85}, {"time": 1174, "pitch": 40, "duration": 21, "velocity": 82}, {"time": 1180, "pitch": 47, "duration": 19, "velocity": 32}, {"time": 1186, "pitch": 56, "duration": 7, "velocity": 93}, {"time": 1186, "pitch": 59, "duration": 8, "velocity": 65}, {"time": 1186, "pitch": 64, "duration": 14, "velocity": 112}, {"time": 1193, "pitch": 52, "duration": 9, "velocity": 88}, {"time": 1198, "pitch": 40, "duration": 17, "velocity": 69}, {"time": 1204, "pitch": 47, "duration": 13, "velocity": 53}, {"time": 1210, "pitch": 56, "duration": 13, "velocity": 89}, {"time": 1210, "pitch": 59, "duration": 7, "velocity": 83}, {"time": 1210, "pitch": 64, "duration": 7, "velocity": 112}, {"time": 1213, "pitch": 52, "duration": 3, "velocity": 93}, {"time": 1216, "pitch": 59, "duration": 1, "velocity": 96}, {"time": 1219, "pitch": 64, "duration": 3, "velocity": 96}, {"time": 1222, "pitch": 47, "duration": 23, "velocity": 92}, {"time": 1228, "pitch": 54, "duration": 12, "velocity": 86}, {"time": 1234, "pitch": 59, "duration": 11, "velocity": 72}, {"time": 1234, "pitch": 63, "duration": 19, "velocity": 73}, {"time": 1234, "pitch": 70, "duration": 20, "velocity": 81}, {"time": 1240, "pitch": 54, "duration": 9, "velocity": 57}, {"time": 1246, "pitch": 47, "duration": 23, "velocity": 82}, {"time": 1249, "pitch": 54, "duration": 17, "velocity": 95}, {"time": 1252, "pitch": 59, "duration": 5, "velocity": 79}, {"time": 1255, "pitch": 63, "duration": 15, "velocity": 85}, {"time": 1255, "pitch": 70, "duration": 15, "velocity": 90}, {"time": 1264, "pitch": 59, "duration": 7, "velocity": 88}, {"time": 1270, "pitch": 45, "duration": 19, "velocity": 81}, {"time": 1276, "pitch": 52, "duration": 8, "velocity": 75}, {"time": 1282, "pitch": 57, "duration": 4, "velocity": 82}, {"time": 1282, "pitch": 61, "duration": 3, "velocity": 85}, {"time": 1282, "pitch": 64, "duration": 8, "velocity": 100}, {"time": 1288, "pitch": 52, "duration": 8, "velocity": 86}, {"time": 1294, "pitch": 47, "duration": 18, "velocity": 83}, {"time": 1300, "pitch": 54, "duration": 10, "velocity": 89}, {"time": 1306, "pitch": 59, "duration": 4, "velocity": 90}, {"time": 1306, "pitch": 63, "duration": 4, "velocity": 95}, {"time": 1306, "pitch": 70, "duration": 10, "velocity": 102}, {"time": 1312, "pitch": 63, "duration": 6, "velocity": 107}, {"time": 1315, "pitch": 59, "duration": 3, "velocity": 88}, {"time": 1318, "pitch": 39, "duration": 23, "velocity": 82}, {"time": 1324, "pitch": 46, "duration": 21, "velocity": 93}, {"time": 1327, "pitch": 51, "duration": 4, "velocity": 93}, {"time": 1330, "pitch": 55, "duration": 3, "velocity": 95}, {"time": 1330, "pitch": 58, "duration": 12, "velocity": 96}, {"time": 1336, "pitch": 51, "duration": 2, "velocity": 83}, {"time": 1339, "pitch": 55, "duration": 6, "velocity": 107}, {"time": 1342, "pitch": 39, "duration": 21, "velocity": 73}, {"time": 1348, "pitch": 46, "duration": 18, "velocity": 71}, {"time": 1354, "pitch": 51, "duration": 7, "velocity": 82}, {"time": 1354, "pitch": 58, "duration": 6, "velocity": 79}, {"time": 1360, "pitch": 51, "duration": 1, "velocity": 89}, {"time": 1363, "pitch": 65, "duration": 5, "velocity": 69}, {"time": 1366, "pitch": 39, "duration": 47, "velocity": 48}, {"time": 1366, "pitch": 46, "duration": 48, "velocity": 66}, {"time": 1366, "pitch": 51, "duration": 47, "velocity": 88}, {"time": 1366, "pitch": 58, "duration": 48, "velocity": 82}, {"time": 1366, "pitch": 63, "duration": 48, "velocity": 72}, {"time": 1366, "pitch": 67, "duration": 48, "velocity": 72}, {"time": 1414, "pitch": 44, "duration": 22, "velocity": 93}, {"time": 1420, "pitch": 51, "duration": 18, "velocity": 63}, {"time": 1426, "pitch": 63, "duration": 23, "velocity": 92}, {"time": 1432, "pitch": 56, "duration": 20, "velocity": 81}, {"time": 1438, "pitch": 44, "duration": 16, "velocity": 64}, {"time": 1444, "pitch": 51, "duration": 8, "velocity": 51}, {"time": 1450, "pitch": 60, "duration": 12, "velocity": 89}, {"time": 1450, "pitch": 63, "duration": 12, "velocity": 35}, {"time": 1456, "pitch": 56, "duration": 7, "velocity": 69}, {"time": 1462, "pitch": 37, "duration": 21, "velocity": 66}, {"time": 1468, "pitch": 44, "duration": 16, "velocity": 58}, {"time": 1474, "pitch": 56, "duration": 22, "velocity": 89}, {"time": 1480, "pitch": 49, "duration": 19, "velocity": 69}, {"time": 1486, "pitch": 37, "duration": 15, "velocity": 69}, {"time": 1486, "pitch": 52, "duration": 11, "velocity": 68}, {"time": 1492, "pitch": 44, "duration": 8, "velocity": 53}, {"time": 1498, "pitch": 52, "duration": 12, "velocity": 85}, {"time": 1498, "pitch": 56, "duration": 12, "velocity": 82}, {"time": 1504, "pitch": 49, "duration": 6, "velocity": 67}, {"time": 1510, "pitch": 44, "duration": 23, "velocity": 73}, {"time": 1516, "pitch": 51, "duration": 19, "velocity": 72}, {"time": 1522, "pitch": 63, "duration": 23, "velocity": 102}, {"time": 1528, "pitch": 56, "duration": 30, "velocity": 82}, {"time": 1534, "pitch": 44, "duration": 14, "velocity": 66}, {"time": 1540, "pitch": 51, "duration": 7, "velocity": 79}, {"time": 1546, "pitch": 63, "duration": 12, "velocity": 100}, {"time": 1552, "pitch": 60, "duration": 6, "velocity": 82}, {"time": 1558, "pitch": 48, "duration": 17, "velocity": 97}, {"time": 1564, "pitch": 51, "duration": 10, "velocity": 63}, {"time": 1570, "pitch": 54, "duration": 4, "velocity": 57}, {"time": 1570, "pitch": 63, "duration": 12, "velocity": 85}, {"time": 1570, "pitch": 66, "duration": 12, "velocity": 83}, {"time": 1576, "pitch": 60, "duration": 7, "velocity": 76}, {"time": 1582, "pitch": 41, "duration": 17, "velocity": 74}, {"time": 1588, "pitch": 48, "duration": 11, "velocity": 68}, {"time": 1594, "pitch": 56, "duration": 12, "velocity": 68}, {"time": 1594, "pitch": 60, "duration": 12, "velocity": 66}, {"time": 1600, "pitch": 53, "duration": 6, "velocity": 56}, {"time": 1606, "pitch": 46, "duration": 22, "velocity": 85}, {"time": 1612, "pitch": 53, "duration": 18, "velocity": 68}, {"time": 1618, "pitch": 61, "duration": 24, "velocity": 89}, {"time": 1624, "pitch": 58, "duration": 17, "velocity": 65}, {"time": 1630, "pitch": 46, "duration": 14, "velocity": 78}, {"time": 1636, "pitch": 53, "duration": 7, "velocity": 86}, {"time": 1642, "pitch": 61, "duration": 11, "velocity": 76}, {"time": 1642, "pitch": 65, "duration": 11, "velocity": 90}, {"time": 1648, "pitch": 58, "duration": 6, "velocity": 64}, {"time": 1654, "pitch": 37, "duration": 22, "velocity": 56}, {"time": 1654, "pitch": 52, "duration": 13, "velocity": 89}, {"time": 1654, "pitch": 55, "duration": 31, "velocity": 85}, {"time": 1660, "pitch": 49, "duration": 18, "velocity": 69}, {"time": 1666, "pitch": 58, "duration": 22, "velocity": 72}, {"time": 1672, "pitch": 52, "duration": 17, "velocity": 72}, {"time": 1678, "pitch": 37, "duration": 18, "velocity": 78}, {"time": 1684, "pitch": 49, "duration": 17, "velocity": 79}, {"time": 1690, "pitch": 44, "duration": 2, "velocity": 35}, {"time": 1690, "pitch": 52, "duration": 1, "velocity": 56}, {"time": 1690, "pitch": 55, "duration": 12, "velocity": 100}, {"time": 1690, "pitch": 58, "duration": 12, "velocity": 83}, {"time": 1696, "pitch": 52, "duration": 6, "velocity": 66}, {"time": 1702, "pitch": 46, "duration": 16, "velocity": 86}, {"time": 1708, "pitch": 53, "duration": 9, "velocity": 64}, {"time": 1714, "pitch": 61, "duration": 13, "velocity": 75}, {"time": 1714, "pitch": 65, "duration": 13, "velocity": 72}, {"time": 1720, "pitch": 58, "duration": 7, "velocity": 85}, {"time": 1726, "pitch": 39, "duration": 16, "velocity": 86}, {"time": 1732, "pitch": 46, "duration": 9, "velocity": 64}, {"time": 1738, "pitch": 55, "duration": 11, "velocity": 107}, {"time": 1744, "pitch": 51, "duration": 5, "velocity": 70}, {"time": 1750, "pitch": 44, "duration": 23, "velocity": 92}, {"time": 1756, "pitch": 51, "duration": 8, "velocity": 76}, {"time": 1762, "pitch": 58, "duration": 21, "velocity": 93}, {"time": 1768, "pitch": 60, "duration": 14, "velocity": 77}, {"time": 1774, "pitch": 44, "duration": 24, "velocity": 75}, {"time": 1780, "pitch": 51, "duration": 7, "velocity": 69}, {"time": 1786, "pitch": 58, "duration": 12, "velocity": 96}, {"time": 1789, "pitch": 51, "duration": 8, "velocity": 61}, {"time": 1792, "pitch": 60, "duration": 7, "velocity": 90}, {"time": 1798, "pitch": 44, "duration": 38, "velocity": 88}, {"time": 1804, "pitch": 51, "duration": 20, "velocity": 71}, {"time": 1810, "pitch": 60, "duration": 14, "velocity": 89}, {"time": 1816, "pitch": 56, "duration": 19, "velocity": 77}, {"time": 1822, "pitch": 61, "duration": 13, "velocity": 78}, {"time": 1828, "pitch": 51, "duration": 7, "velocity": 43}, {"time": 1834, "pitch": 60, "duration": 8, "velocity": 96}, {"time": 1840, "pitch": 56, "duration": 12, "velocity": 83}, {"time": 1846, "pitch": 37, "duration": 22, "velocity": 81}, {"time": 1852, "pitch": 44, "duration": 19, "velocity": 70}, {"time": 1858, "pitch": 49, "duration": 16, "velocity": 63}, {"time": 1858, "pitch": 61, "duration": 24, "velocity": 82}, {"time": 1864, "pitch": 56, "duration": 18, "velocity": 65}, {"time": 1870, "pitch": 37, "duration": 17, "velocity": 71}, {"time": 1876, "pitch": 44, "duration": 11, "velocity": 92}, {"time": 1882, "pitch": 49, "duration": 7, "velocity": 83}, {"time": 1882, "pitch": 65, "duration": 12, "velocity": 92}, {"time": 1888, "pitch": 61, "duration": 6, "velocity": 100}, {"time": 1894, "pitch": 48, "duration": 16, "velocity": 79}, {"time": 1897, "pitch": 55, "duration": 12, "velocity": 78}, {"time": 1900, "pitch": 60, "duration": 6, "velocity": 93}, {"time": 1903, "pitch": 63, "duration": 15, "velocity": 75}, {"time": 1906, "pitch": 67, "duration": 11, "velocity": 100}, {"time": 1912, "pitch": 60, "duration": 17, "velocity": 83}, {"time": 1918, "pitch": 41, "duration": 17, "velocity": 77}, {"time": 1924, "pitch": 48, "duration": 11, "velocity": 61}, {"time": 1930, "pitch": 53, "duration": 8, "velocity": 65}, {"time": 1930, "pitch": 68, "duration": 12, "velocity": 97}, {"time": 1936, "pitch": 65, "duration": 6, "velocity": 82}, {"time": 1939, "pitch": 60, "duration": 4, "velocity": 69}, {"time": 1942, "pitch": 46, "duration": 19, "velocity": 78}, {"time": 1948, "pitch": 53, "duration": 8, "velocity": 69}, {"time": 1954, "pitch": 61, "duration": 7, "velocity": 74}, {"time": 1954, "pitch": 65, "duration": 12, "velocity": 92}, {"time": 1957, "pitch": 53, "duration": 3, "velocity": 90}, {"time": 1960, "pitch": 58, "duration": 6, "velocity": 96}, {"time": 1963, "pitch": 61, "duration": 3, "velocity": 89}, {"time": 1966, "pitch": 39, "duration": 16, "velocity": 89}, {"time": 1969, "pitch": 46, "duration": 13, "velocity": 93}, {"time": 1972, "pitch": 51, "duration": 7, "velocity": 77}, {"time": 1975, "pitch": 58, "duration": 5, "velocity": 83}, {"time": 1978, "pitch": 67, "duration": 11, "velocity": 122}, {"time": 1981, "pitch": 51, "duration": 6, "velocity": 100}, {"time": 1984, "pitch": 63, "duration": 6, "velocity": 99}, {"time": 1987, "pitch": 44, "duration": 23, "velocity": 74}, {"time": 1987, "pitch": 58, "duration": 3, "velocity": 92}, {"time": 1996, "pitch": 51, "duration": 9, "velocity": 60}, {"time": 2002, "pitch": 56, "duration": 7, "velocity": 88}, {"time": 2002, "pitch": 63, "duration": 21, "velocity": 97}, {"time": 2008, "pitch": 51, "duration": 5, "velocity": 33}, {"time": 2008, "pitch": 60, "duration": 12, "velocity": 71}, {"time": 2011, "pitch": 68, "duration": 11, "velocity": 72}, {"time": 2014, "pitch": 44, "duration": 15, "velocity": 83}, {"time": 2017, "pitch": 51, "duration": 13, "velocity": 86}, {"time": 2020, "pitch": 56, "duration": 7, "velocity": 93}, {"time": 2023, "pitch": 60, "duration": 8, "velocity": 97}, {"time": 2026, "pitch": 56, "duration": 1, "velocity": 59}, {"time": 2026, "pitch": 68, "duration": 12, "velocity": 93}, {"time": 2032, "pitch": 63, "duration": 5, "velocity": 83}, {"time": 2035, "pitch": 60, "duration": 3, "velocity": 73}, {"time": 2038, "pitch": 40, "duration": 24, "velocity": 88}, {"time": 2041, "pitch": 47, "duration": 12, "velocity": 60}, {"time": 2044, "pitch": 52, "duration": 6, "velocity": 78}, {"time": 2047, "pitch": 56, "duration": 8, "velocity": 83}, {"time": 2050, "pitch": 64, "duration": 21, "velocity": 93}, {"time": 2053, "pitch": 52, "duration": 16, "velocity": 75}, {"time": 2056, "pitch": 59, "duration": 16, "velocity": 75}, {"time": 2059, "pitch": 56, "duration": 18, "velocity": 88}, {"time": 2068, "pitch": 40, "duration": 11, "velocity": 56}, {"time": 2074, "pitch": 64, "duration": 9, "velocity": 122}, {"time": 2077, "pitch": 52, "duration": 3, "velocity": 72}, {"time": 2080, "pitch": 59, "duration": 6, "velocity": 89}, {"time": 2083, "pitch": 56, "duration": 3, "velocity": 88}, {"time": 2086, "pitch": 47, "duration": 23, "velocity": 90}, {"time": 2089, "pitch": 51, "duration": 38, "velocity": 58}, {"time": 2092, "pitch": 54, "duration": 7, "velocity": 83}, {"time": 2095, "pitch": 59, "duration": 3, "velocity": 86}, {"time": 2098, "pitch": 66, "duration": 23, "velocity": 90}, {"time": 2101, "pitch": 54, "duration": 17, "velocity": 75}, {"time": 2104, "pitch": 63, "duration": 14, "velocity": 72}, {"time": 2107, "pitch": 59, "duration": 14, "velocity": 96}, {"time": 2116, "pitch": 47, "duration": 11, "velocity": 97}, {"time": 2122, "pitch": 63, "duration": 8, "velocity": 96}, {"time": 2122, "pitch": 66, "duration": 9, "velocity": 63}, {"time": 2125, "pitch": 54, "duration": 2, "velocity": 67}, {"time": 2128, "pitch": 59, "duration": 5, "velocity": 96}, {"time": 2131, "pitch": 63, "duration": 3, "velocity": 59}, {"time": 2134, "pitch": 45, "duration": 18, "velocity": 79}, {"time": 2137, "pitch": 52, "duration": 14, "velocity": 36}, {"time": 2140, "pitch": 57, "duration": 7, "velocity": 86}, {"time": 2143, "pitch": 61, "duration": 4, "velocity": 77}, {"time": 2146, "pitch": 64, "duration": 12, "velocity": 97}, {"time": 2149, "pitch": 57, "duration": 3, "velocity": 83}, {"time": 2152, "pitch": 61, "duration": 6, "velocity": 83}, {"time": 2158, "pitch": 46, "duration": 16, "velocity": 75}, {"time": 2161, "pitch": 53, "duration": 10, "velocity": 69}, {"time": 2164, "pitch": 58, "duration": 8, "velocity": 76}, {"time": 2167, "pitch": 61, "duration": 4, "velocity": 76}, {"time": 2170, "pitch": 65, "duration": 12, "velocity": 90}, {"time": 2176, "pitch": 61, "duration": 6, "velocity": 89}, {"time": 2179, "pitch": 58, "duration": 4, "velocity": 81}, {"time": 2182, "pitch": 39, "duration": 22, "velocity": 85}, {"time": 2185, "pitch": 46, "duration": 10, "velocity": 72}, {"time": 2188, "pitch": 51, "duration": 6, "velocity": 90}, {"time": 2191, "pitch": 55, "duration": 4, "velocity": 77}, {"time": 2194, "pitch": 58, "duration": 12, "velocity": 90}, {"time": 2197, "pitch": 46, "duration": 8, "velocity": 82}, {"time": 2200, "pitch": 55, "duration": 6, "velocity": 100}, {"time": 2203, "pitch": 51, "duration": 3, "velocity": 90}, {"time": 2206, "pitch": 39, "duration": 24, "velocity": 78}, {"time": 2209, "pitch": 46, "duration": 21, "velocity": 96}, {"time": 2212, "pitch": 51, "duration": 7, "velocity": 82}, {"time": 2215, "pitch": 58, "duration": 5, "velocity": 89}, {"time": 2218, "pitch": 63, "duration": 7, "velocity": 72}, {"time": 2218, "pitch": 67, "duration": 13, "velocity": 112}, {"time": 2221, "pitch": 51, "duration": 4, "velocity": 93}, {"time": 2224, "pitch": 58, "duration": 6, "velocity": 90}, {"time": 2227, "pitch": 63, "duration": 3, "velocity": 79}, {"time": 2230, "pitch": 37, "duration": 22, "velocity": 81}, {"time": 2236, "pitch": 44, "duration": 22, "velocity": 79}, {"time": 2242, "pitch": 56, "duration": 4, "velocity": 79}, {"time": 2242, "pitch": 60, "duration": 7, "velocity": 92}, {"time": 2242, "pitch": 61, "duration": 22, "velocity": 100}, {"time": 2242, "pitch": 65, "duration": 21, "velocity": 89}, {"time": 2248, "pitch": 49, "duration": 3, "velocity": 70}, {"time": 2248, "pitch": 56, "duration": 14, "velocity": 93}, {"time": 2254, "pitch": 37, "duration": 23, "velocity": 66}, {"time": 2260, "pitch": 44, "duration": 19, "velocity": 82}, {"time": 2266, "pitch": 49, "duration": 7, "velocity": 93}, {"time": 2266, "pitch": 56, "duration": 13, "velocity": 70}, {"time": 2266, "pitch": 65, "duration": 13, "velocity": 88}, {"time": 2272, "pitch": 61, "duration": 7, "velocity": 85}, {"time": 2275, "pitch": 60, "duration": 4, "velocity": 86}, {"time": 2278, "pitch": 48, "duration": 18, "velocity": 69}, {"time": 2284, "pitch": 55, "duration": 11, "velocity": 88}, {"time": 2290, "pitch": 60, "duration": 4, "velocity": 89}, {"time": 2290, "pitch": 63, "duration": 3, "velocity": 83}, {"time": 2290, "pitch": 67, "duration": 11, "velocity": 112}, {"time": 2296, "pitch": 63, "duration": 5, "velocity": 89}, {"time": 2299, "pitch": 41, "duration": 17, "velocity": 63}, {"time": 2299, "pitch": 60, "duration": 5, "velocity": 86}, {"time": 2308, "pitch": 48, "duration": 14, "velocity": 70}, {"time": 2311, "pitch": 53, "duration": 8, "velocity": 82}, {"time": 2314, "pitch": 60, "duration": 7, "velocity": 85}, {"time": 2314, "pitch": 68, "duration": 12, "velocity": 96}, {"time": 2317, "pitch": 53, "duration": 2, "velocity": 70}, {"time": 2320, "pitch": 65, "duration": 5, "velocity": 88}, {"time": 2323, "pitch": 60, "duration": 3, "velocity": 89}, {"time": 2326, "pitch": 46, "duration": 18, "velocity": 76}, {"time": 2332, "pitch": 53, "duration": 11, "velocity": 81}, {"time": 2338, "pitch": 58, "duration": 4, "velocity": 93}, {"time": 2338, "pitch": 61, "duration": 3, "velocity": 95}, {"time": 2338, "pitch": 65, "duration": 11, "velocity": 93}, {"time": 2344, "pitch": 61, "duration": 5, "velocity": 102}, {"time": 2347, "pitch": 58, "duration": 4, "velocity": 99}, {"time": 2350, "pitch": 39, "duration": 17, "velocity": 85}, {"time": 2356, "pitch": 46, "duration": 14, "velocity": 96}, {"time": 2362, "pitch": 58, "duration": 6, "velocity": 86}, {"time": 2362, "pitch": 63, "duration": 7, "velocity": 86}, {"time": 2362, "pitch": 67, "duration": 11, "velocity": 88}, {"time": 2368, "pitch": 51, "duration": 6, "velocity": 99}, {"time": 2374, "pitch": 44, "duration": 22, "velocity": 89}, {"time": 2380, "pitch": 51, "duration": 6, "velocity": 73}, {"time": 2386, "pitch": 56, "duration": 6, "velocity": 95}, {"time": 2386, "pitch": 60, "duration": 4, "velocity": 89}, {"time": 2386, "pitch": 63, "duration": 12, "velocity": 93}, {"time": 2392, "pitch": 60, "duration": 6, "velocity": 92}, {"time": 2395, "pitch": 56, "duration": 3, "velocity": 89}, {"time": 2398, "pitch": 44, "duration": 16, "velocity": 79}, {"time": 2404, "pitch": 51, "duration": 14, "velocity": 64}, {"time": 2410, "pitch": 63, "duration": 6, "velocity": 82}, {"time": 2410, "pitch": 60, "duration": 5, "velocity": 95}, {"time": 2410, "pitch": 68, "duration": 11, "velocity": 97}, {"time": 2416, "pitch": 56, "duration": 4, "velocity": 85}, {"time": 2422, "pitch": 40, "duration": 21, "velocity": 82}, {"time": 2428, "pitch": 47, "duration": 19, "velocity": 32}, {"time": 2434, "pitch": 56, "duration": 7, "velocity": 93}, {"time": 2434, "pitch": 59, "duration": 8, "velocity": 65}, {"time": 2434, "pitch": 64, "duration": 14, "velocity": 112}, {"time": 2441, "pitch": 52, "duration": 9, "velocity": 88}, {"time": 2446, "pitch": 40, "duration": 17, "velocity": 69}, {"time": 2452, "pitch": 47, "duration": 13, "velocity": 53}, {"time": 2458, "pitch": 56, "duration": 13, "velocity": 89}, {"time": 2458, "pitch": 59, "duration": 7, "velocity": 83}, {"time": 2458, "pitch": 64, "duration": 7, "velocity": 112}, {"time": 2461, "pitch": 52, "duration": 3, "velocity": 93}, {"time": 2464, "pitch": 59, "duration": 1, "velocity": 96}, {"time": 2467, "pitch": 64, "duration": 3, "velocity": 96}, {"time": 2470, "pitch": 47, "duration": 23, "velocity": 92}, {"time": 2476, "pitch": 54, "duration": 12, "velocity": 86}, {"time": 2482, "pitch": 59, "duration": 11, "velocity": 72}, {"time": 2482, "pitch": 63, "duration": 20, "velocity": 81}, {"time": 2482, "pitch": 70, "duration": 19, "velocity": 73}, {"time": 2488, "pitch": 54, "duration": 9, "velocity": 57}, {"time": 2494, "pitch": 47, "duration": 23, "velocity": 82}, {"time": 2497, "pitch": 54, "duration": 17, "velocity": 95}, {"time": 2500, "pitch": 59, "duration": 5, "velocity": 79}, {"time": 2503, "pitch": 63, "duration": 15, "velocity": 90}, {"time": 2503, "pitch": 70, "duration": 15, "velocity": 85}, {"time": 2512, "pitch": 59, "duration": 7, "velocity": 88}, {"time": 2518, "pitch": 45, "duration": 19, "velocity": 81}, {"time": 2524, "pitch": 52, "duration": 8, "velocity": 75}, {"time": 2530, "pitch": 57, "duration": 4, "velocity": 82}, {"time": 2530, "pitch": 61, "duration": 3, "velocity": 85}, {"time": 2530, "pitch": 64, "duration": 8, "velocity": 100}, {"time": 2536, "pitch": 52, "duration": 8, "velocity": 86}, {"time": 2542, "pitch": 47, "duration": 18, "velocity": 83}, {"time": 2548, "pitch": 54, "duration": 10, "velocity": 89}, {"time": 2554, "pitch": 59, "duration": 4, "velocity": 90}, {"time": 2554, "pitch": 63, "duration": 4, "velocity": 95}, {"time": 2554, "pitch": 70, "duration": 10, "velocity": 102}, {"time": 2560, "pitch": 63, "duration": 6, "velocity": 107}, {"time": 2563, "pitch": 59, "duration": 3, "velocity": 88}, {"time": 2566, "pitch": 39, "duration": 23, "velocity": 82}, {"time": 2572, "pitch": 46, "duration": 21, "velocity": 93}, {"time": 2575, "pitch": 51, "duration": 4, "velocity": 93}, {"time": 2578, "pitch": 55, "duration": 3, "velocity": 95}, {"time": 2578, "pitch": 58, "duration": 12, "velocity": 96}, {"time": 2584, "pitch": 51, "duration": 2, "velocity": 83}, {"time": 2587, "pitch": 55, "duration": 6, "velocity": 107}, {"time": 2590, "pitch": 39, "duration": 21, "velocity": 73}, {"time": 2596, "pitch": 46, "duration": 18, "velocity": 71}, {"time": 2602, "pitch": 51, "duration": 7, "velocity": 82}, {"time": 2602, "pitch": 58, "duration": 6, "velocity": 79}, {"time": 2608, "pitch": 51, "duration": 1, "velocity": 89}, {"time": 2611, "pitch": 65, "duration": 5, "velocity": 69}, {"time": 2614, "pitch": 39, "duration": 47, "velocity": 48}, {"time": 2614, "pitch": 46, "duration": 48, "velocity": 66}, {"time": 2614, "pitch": 51, "duration": 47, "velocity": 88}, {"time": 2614, "pitch": 58, "duration": 48, "velocity": 82}, {"time": 2614, "pitch": 63, "duration": 48, "velocity": 72}, {"time": 2614, "pitch": 67, "duration": 48, "velocity": 72}, {"time": 2662, "pitch": 44, "duration": 22, "velocity": 93}, {"time": 2668, "pitch": 51, "duration": 18, "velocity": 63}, {"time": 2674, "pitch": 63, "duration": 23, "velocity": 92}, {"time": 2680, "pitch": 56, "duration": 20, "velocity": 81}, {"time": 2686, "pitch": 44, "duration": 16, "velocity": 64}, {"time": 2692, "pitch": 51, "duration": 8, "velocity": 51}, {"time": 2698, "pitch": 60, "duration": 12, "velocity": 89}, {"time": 2698, "pitch": 63, "duration": 12, "velocity": 35}, {"time": 2704, "pitch": 56, "duration": 7, "velocity": 69}, {"time": 2710, "pitch": 37, "duration": 21, "velocity": 66}, {"time": 2716, "pitch": 44, "duration": 16, "velocity": 58}, {"time": 2722, "pitch": 56, "duration": 22, "velocity": 89}, {"time": 2728, "pitch": 49, "duration": 19, "velocity": 69}, {"time": 2734, "pitch": 37, "duration": 15, "velocity": 69}, {"time": 2734, "pitch": 52, "duration": 11, "velocity": 68}, {"time": 2740, "pitch": 44, "duration": 8, "velocity": 53}, {"time": 2746, "pitch": 52, "duration": 12, "velocity": 85}, {"time": 2746, "pitch": 56, "duration": 12, "velocity": 82}, {"time": 2752, "pitch": 49, "duration": 6, "velocity": 67}, {"time": 2758, "pitch": 44, "duration": 23, "velocity": 73}, {"time": 2764, "pitch": 51, "duration": 19, "velocity": 72}, {"time": 2770, "pitch": 63, "duration": 23, "velocity": 102}, {"time": 2776, "pitch": 56, "duration": 30, "velocity": 82}, {"time": 2782, "pitch": 44, "duration": 14, "velocity": 66}, {"time": 2788, "pitch": 51, "duration": 7, "velocity": 79}, {"time": 2794, "pitch": 63, "duration": 12, "velocity": 100}, {"time": 2800, "pitch": 60, "duration": 6, "velocity": 82}, {"time": 2806, "pitch": 48, "duration": 17, "velocity": 97}, {"time": 2812, "pitch": 51, "duration": 10, "velocity": 63}, {"time": 2818, "pitch": 54, "duration": 4, "velocity": 57}, {"time": 2818, "pitch": 63, "duration": 12, "velocity": 85}, {"time": 2818, "pitch": 66, "duration": 12, "velocity": 83}, {"time": 2824, "pitch": 60, "duration": 7, "velocity": 76}, {"time": 2830, "pitch": 41, "duration": 17, "velocity": 74}, {"time": 2836, "pitch": 48, "duration": 11, "velocity": 68}, {"time": 2842, "pitch": 56, "duration": 12, "velocity": 68}, {"time": 2842, "pitch": 60, "duration": 12, "velocity": 66}, {"time": 2848, "pitch": 53, "duration": 6, "velocity": 56}, {"time": 2854, "pitch": 46, "duration": 22, "velocity": 85}, {"time": 2860, "pitch": 53, "duration": 18, "velocity": 68}, {"time": 2866, "pitch": 61, "duration": 24, "velocity": 89}, {"time": 2872, "pitch": 58, "duration": 17, "velocity": 65}, {"time": 2878, "pitch": 46, "duration": 14, "velocity": 78}, {"time": 2884, "pitch": 53, "duration": 7, "velocity": 86}, {"time": 2890, "pitch": 61, "duration": 11, "velocity": 76}, {"time": 2890, "pitch": 65, "duration": 11, "velocity": 90}, {"time": 2896, "pitch": 58, "duration": 6, "velocity": 64}, {"time": 2902, "pitch": 37, "duration": 22, "velocity": 56}, {"time": 2902, "pitch": 52, "duration": 13, "velocity": 89}, {"time": 2902, "pitch": 55, "duration": 31, "velocity": 85}, {"time": 2908, "pitch": 49, "duration": 18, "velocity": 69}, {"time": 2914, "pitch": 58, "duration": 22, "velocity": 72}, {"time": 2920, "pitch": 52, "duration": 17, "velocity": 72}, {"time": 2926, "pitch": 37, "duration": 18, "velocity": 78}, {"time": 2932, "pitch": 49, "duration": 17, "velocity": 79}, {"time": 2938, "pitch": 44, "duration": 2, "velocity": 35}, {"time": 2938, "pitch": 52, "duration": 1, "velocity": 56}, {"time": 2938, "pitch": 55, "duration": 12, "velocity": 100}, {"time": 2938, "pitch": 58, "duration": 12, "velocity": 83}, {"time": 2944, "pitch": 52, "duration": 6, "velocity": 66}, {"time": 2950, "pitch": 46, "duration": 16, "velocity": 86}, {"time": 2956, "pitch": 53, "duration": 9, "velocity": 64}, {"time": 2962, "pitch": 61, "duration": 13, "velocity": 75}, {"time": 2962, "pitch": 65, "duration": 13, "velocity": 72}, {"time": 2968, "pitch": 58, "duration": 7, "velocity": 85}, {"time": 2974, "pitch": 39, "duration": 16, "velocity": 86}, {"time": 2980, "pitch": 46, "duration": 9, "velocity": 64}, {"time": 2986, "pitch": 55, "duration": 11, "velocity": 107}, {"time": 2992, "pitch": 51, "duration": 5, "velocity": 70}, {"time": 2998, "pitch": 44, "duration": 17, "velocity": 86}, {"time": 3004, "pitch": 51, "duration": 10, "velocity": 60}, {"time": 3010, "pitch": 68, "duration": 8, "velocity": 79}, {"time": 3010, "pitch": 72, "duration": 8, "velocity": 90}, {"time": 3016, "pitch": 63, "duration": 6, "velocity": 67}, {"time": 3022, "pitch": 41, "duration": 24, "velocity": 86}, {"time": 3028, "pitch": 48, "duration": 16, "velocity": 44}, {"time": 3034, "pitch": 53, "duration": 12, "velocity": 50}, {"time": 3034, "pitch": 65, "duration": 12, "velocity": 82}, {"time": 3034, "pitch": 68, "duration": 12, "velocity": 78}, {"time": 3040, "pitch": 60, "duration": 6, "velocity": 79}, {"time": 3046, "pitch": 46, "duration": 16, "velocity": 96}, {"time": 3052, "pitch": 53, "duration": 10, "velocity": 51}, {"time": 3058, "pitch": 61, "duration": 13, "velocity": 82}, {"time": 3058, "pitch": 65, "duration": 12, "velocity": 85}, {"time": 3064, "pitch": 58, "duration": 9, "velocity": 71}, {"time": 3070, "pitch": 39, "duration": 14, "velocity": 86}, {"time": 3076, "pitch": 46, "duration": 8, "velocity": 58}, {"time": 3082, "pitch": 63, "duration": 12, "velocity": 86}, {"time": 3082, "pitch": 67, "duration": 12, "velocity": 83}, {"time": 3088, "pitch": 58, "duration": 6, "velocity": 74}, {"time": 3094, "pitch": 44, "duration": 8, "velocity": 88}, {"time": 3100, "pitch": 56, "duration": 6, "velocity": 89}, {"time": 3106, "pitch": 60, "duration": 5, "velocity": 96}, {"time": 3112, "pitch": 41, "duration": 22, "velocity": 72}, {"time": 3112, "pitch": 53, "duration": 18, "velocity": 81}, {"time": 3112, "pitch": 57, "duration": 13, "velocity": 85}, {"time": 3112, "pitch": 60, "duration": 30, "velocity": 77}, {"time": 3112, "pitch": 63, "duration": 17, "velocity": 68}, {"time": 3124, "pitch": 48, "duration": 9, "velocity": 53}, {"time": 3130, "pitch": 57, "duration": 12, "velocity": 99}, {"time": 3130, "pitch": 63, "duration": 12, "velocity": 41}, {"time": 3136, "pitch": 53, "duration": 6, "velocity": 66}, {"time": 3142, "pitch": 46, "duration": 23, "velocity": 89}, {"time": 3148, "pitch": 53, "duration": 19, "velocity": 70}, {"time": 3154, "pitch": 61, "duration": 22, "velocity": 100}, {"time": 3160, "pitch": 58, "duration": 16, "velocity": 75}, {"time": 3160, "pitch": 65, "duration": 16, "velocity": 70}, {"time": 3166, "pitch": 46, "duration": 14, "velocity": 78}, {"time": 3172, "pitch": 53, "duration": 7, "velocity": 78}, {"time": 3178, "pitch": 61, "duration": 10, "velocity": 86}, {"time": 3178, "pitch": 65, "duration": 7, "velocity": 86}, {"time": 3184, "pitch": 58, "duration": 5, "velocity": 86}, {"time": 3190, "pitch": 39, "duration": 48, "velocity": 61}, {"time": 3190, "pitch": 46, "duration": 48, "velocity": 66}, {"time": 3190, "pitch": 51, "duration": 49, "velocity": 61}, {"time": 3190, "pitch": 58, "duration": 49, "velocity": 82}, {"time": 3190, "pitch": 63, "duration": 49, "velocity": 75}, {"time": 3190, "pitch": 67, "duration": 49, "velocity": 79}, {"time": 3238, "pitch": 44, "duration": 22, "velocity": 86}, {"time": 3244, "pitch": 51, "duration": 19, "velocity": 59}, {"time": 3250, "pitch": 56, "duration": 1, "velocity": 35}, {"time": 3250, "pitch": 63, "duration": 23, "velocity": 100}, {"time": 3256, "pitch": 60, "duration": 17, "velocity": 72}, {"time": 3262, "pitch": 44, "duration": 22, "velocity": 69}, {"time": 3268, "pitch": 51, "duration": 19, "velocity": 59}, {"time": 3274, "pitch": 63, "duration": 19, "velocity": 93}, {"time": 3277, "pitch": 58, "duration": 11, "velocity": 75}, {"time": 3280, "pitch": 56, "duration": 7, "velocity": 67}, {"time": 3286, "pitch": 44, "duration": 46, "velocity": 68}, {"time": 3292, "pitch": 51, "duration": 18, "velocity": 62}, {"time": 3298, "pitch": 61, "duration": 8, "velocity": 96}, {"time": 3304, "pitch": 60, "duration": 19, "velocity": 85}, {"time": 3316, "pitch": 51, "duration": 7, "velocity": 81}, {"time": 3322, "pitch": 58, "duration": 8, "velocity": 88}, {"time": 3325, "pitch": 51, "duration": 8, "velocity": 66}, {"time": 3328, "pitch": 60, "duration": 14, "velocity": 82}, {"time": 3331, "pitch": 63, "duration": 14, "velocity": 82}, {"time": 3334, "pitch": 44, "duration": 47, "velocity": 89}, {"time": 3337, "pitch": 51, "duration": 23, "velocity": 76}, {"time": 3340, "pitch": 56, "duration": 13, "velocity": 69}, {"time": 3343, "pitch": 58, "duration": 4, "velocity": 67}, {"time": 3346, "pitch": 61, "duration": 8, "velocity": 86}, {"time": 3352, "pitch": 60, "duration": 19, "velocity": 88}, {"time": 3364, "pitch": 51, "duration": 18, "velocity": 62}, {"time": 3370, "pitch": 58, "duration": 6, "velocity": 93}, {"time": 3373, "pitch": 60, "duration": 20, "velocity": 72}, {"time": 3376, "pitch": 63, "duration": 17, "velocity": 81}, {"time": 3382, "pitch": 44, "duration": 16, "velocity": 86}, {"time": 3388, "pitch": 51, "duration": 11, "velocity": 76}, {"time": 3394, "pitch": 60, "duration": 5, "velocity": 75}, {"time": 3394, "pitch": 63, "duration": 5, "velocity": 92}, {"time": 3400, "pitch": 44, "duration": 70, "velocity": 69}, {"time": 3400, "pitch": 51, "duration": 70, "velocity": 63}, {"time": 3400, "pitch": 56, "duration": 70, "velocity": 73}, {"time": 3400, "pitch": 60, "duration": 70, "velocity": 70}, {"time": 3400, "pitch": 63, "duration": 70, "velocity": 73}], "annotations": [{"time": 22, "annotation": {"number": 64, "value": 127}, "group": "control_change"}, {"time": 66, "annotation": {"number": 64, "value": 0}, "group": "control_change"}, {"time": 70, "annotation": {"number": 64, "value": 127}, "group": "control_change"}, {"time": 114, "annotation": {"number": 64, "value": 0}, "group": "control_change"}, {"time": 119, "annotation": {"number": 64, "value": 127}, "group": "control_change"}, {"time": 139, "annotation": {"number": 64, "value": 0}, "group": "control_change"}, {"time": 142, "annotation": {"number": 64, "value": 127}, "group": "control_change"}, {"time": 161, "annotation": {"number": 64, "value": 0}, "group": "control_change"}, {"time": 166, "annotation": {"number": 64, "value": 127}, "group": "control_change"}, {"time": 186, "annotation": {"number": 64, "value": 0}, "group": "control_change"}, {"time": 190, "annotation": {"number": 64, "value": 127}, "group": "control_change"}, {"time": 209, "annotation": {"number": 64, "value": 0}, "group": "control_change"}, {"time": 214, "annotation": {"number": 64, "value": 127}, "group": "control_change"}, {"time": 235, "annotation": {"number": 64, "value": 0}, "group": "control_change"}, {"time": 238, "annotation": {"number": 64, "value": 127}, "group": "control_change"}, {"time": 258, "annotation": {"number": 64, "value": 0}, "group": "control_change"}, {"time": 262, "annotation": {"number": 64, "value": 127}, "group": "control_change"}, {"time": 282, "annotation": {"number": 64, "value": 0}, "group": "control_change"}, {"time": 286, "annotation": {"number": 64, "value": 127}, "group": "control_change"}, {"time": 306, "annotation": {"number": 64, "value": 0}, "group": "control_change"}, {"time": 310, "annotation": {"number": 64, "value": 127}, "group": "control_change"}, {"time": 331, "annotation": {"number": 64, "value": 0}, "group": "control_change"}, {"time": 334, "annotation": {"number": 64, "value": 127}, "group": "control_change"}, {"time": 355, "annotation": {"number": 64, "value": 0}, "group": "control_change"}, {"time": 359, "annotation": {"number": 64, "value": 127}, "group": "control_change"}, {"time": 379, "annotation": {"number": 64, "value": 0}, "group": "control_change"}, {"time": 382, "annotation": {"number": 64, "value": 127}, "group": "control_change"}, {"time": 403, "annotation": {"number": 64, "value": 0}, "group": "control_change"}, {"time": 407, "annotation": {"number": 64, "value": 127}, "group": "control_change"}, {"time": 425, "annotation": {"number": 64, "value": 0}, "group": "control_change"}, {"time": 430, "annotation": {"number": 64, "value": 127}, "group": "control_change"}, {"time": 451, "annotation": {"number": 64, "value": 0}, "group": "control_change"}, {"time": 506, "annotation": {"number": 64, "value": 127}, "group": "control_change"}, {"time": 523, "annotation": {"number": 64, "value": 0}, "group": "control_change"}, {"time": 527, "annotation": {"number": 64, "value": 127}, "group": "control_change"}, {"time": 548, "annotation": {"number": 64, "value": 0}, "group": "control_change"}, {"time": 551, "annotation": {"number": 64, "value": 127}, "group": "control_change"}, {"time": 571, "annotation": {"number": 64, "value": 0}, "group": "control_change"}, {"time": 575, "annotation": {"number": 64, "value": 127}, "group": "control_change"}, {"time": 589, "annotation": {"number": 64, "value": 0}, "group": "control_change"}, {"time": 619, "annotation": {"number": 64, "value": 0}, "group": "control_change"}, {"time": 622, "annotation": {"number": 64, "value": 127}, "group": "control_change"}, {"time": 642, "annotation": {"number": 64, "value": 0}, "group": "control_change"}, {"time": 646, "annotation": {"number": 64, "value": 127}, "group": "control_change"}, {"time": 666, "annotation": {"number": 64, "value": 0}, "group": "control_change"}, {"time": 670, "annotation": {"number": 64, "value": 127}, "group": "control_change"}, {"time": 690, "annotation": {"number": 64, "value": 0}, "group": "control_change"}, {"time": 694, "annotation": {"number": 64, "value": 127}, "group": "control_change"}, {"time": 715, "annotation": {"number": 64, "value": 0}, "group": "control_change"}, {"time": 718, "annotation": {"number": 64, "value": 127}, "group": "control_change"}, {"time": 739, "annotation": {"number": 64, "value": 0}, "group": "control_change"}, {"time": 743, "annotation": {"number": 64, "value": 127}, "group": "control_change"}, {"time": 763, "annotation": {"number": 64, "value": 0}, "group": "control_change"}, {"time": 766, "annotation": {"number": 64, "value": 127}, "group": "control_change"}, {"time": 787, "annotation": {"number": 64, "value": 0}, "group": "control_change"}, {"time": 791, "annotation": {"number": 64, "value": 127}, "group": "control_change"}, {"time": 809, "annotation": {"number": 64, "value": 0}, "group": "control_change"}, {"time": 814, "annotation": {"number": 64, "value": 127}, "group": "control_change"}, {"time": 835, "annotation": {"number": 64, "value": 0}, "group": "control_change"}, {"time": 838, "annotation": {"number": 64, "value": 127}, "group": "control_change"}, {"time": 859, "annotation": {"number": 64, "value": 0}, "group": "control_change"}, {"time": 862, "annotation": {"number": 64, "value": 127}, "group": "control_change"}, {"time": 882, "annotation": {"number": 64, "value": 0}, "group": "control_change"}, {"time": 890, "annotation": {"number": 64, "value": 127}, "group": "control_change"}, {"time": 907, "annotation": {"number": 64, "value": 0}, "group": "control_change"}, {"time": 911, "annotation": {"number": 64, "value": 127}, "group": "control_change"}, {"time": 932, "annotation": {"number": 64, "value": 0}, "group": "control_change"}, {"time": 935, "annotation": {"number": 64, "value": 127}, "group": "control_change"}, {"time": 955, "annotation": {"number": 64, "value": 0}, "group": "control_change"}, {"time": 959, "annotation": {"number": 64, "value": 127}, "group": "control_change"}, {"time": 973, "annotation": {"number": 64, "value": 0}, "group": "control_change"}, {"time": 982, "annotation": {"number": 64, "value": 127}, "group": "control_change"}, {"time": 1003, "annotation": {"number": 64, "value": 0}, "group": "control_change"}, {"time": 1006, "annotation": {"number": 64, "value": 127}, "group": "control_change"}, {"time": 1029, "annotation": {"number": 64, "value": 0}, "group": "control_change"}, {"time": 1051, "annotation": {"number": 64, "value": 0}, "group": "control_change"}, {"time": 1054, "annotation": {"number": 64, "value": 127}, "group": "control_change"}, {"time": 1074, "annotation": {"number": 64, "value": 0}, "group": "control_change"}, {"time": 1078, "annotation": {"number": 64, "value": 127}, "group": "control_change"}, {"time": 1099, "annotation": {"number": 64, "value": 0}, "group": "control_change"}, {"time": 1103, "annotation": {"number": 64, "value": 127}, "group": "control_change"}, {"time": 1122, "annotation": {"number": 64, "value": 0}, "group": "control_change"}, {"time": 1126, "annotation": {"number": 64, "value": 127}, "group": "control_change"}, {"time": 1146, "annotation": {"number": 64, "value": 0}, "group": "control_change"}, {"time": 1150, "annotation": {"number": 64, "value": 127}, "group": "control_change"}, {"time": 1171, "annotation": {"number": 64, "value": 0}, "group": "control_change"}, {"time": 1174, "annotation": {"number": 64, "value": 127}, "group": "control_change"}, {"time": 1195, "annotation": {"number": 64, "value": 0}, "group": "control_change"}, {"time": 1198, "annotation": {"number": 64, "value": 127}, "group": "control_change"}, {"time": 1219, "annotation": {"number": 64, "value": 0}, "group": "control_change"}, {"time": 1270, "annotation": {"number": 64, "value": 127}, "group": "control_change"}, {"time": 1291, "annotation": {"number": 64, "value": 0}, "group": "control_change"}, {"time": 1294, "annotation": {"number": 64, "value": 127}, "group": "control_change"}, {"time": 1315, "annotation": {"number": 64, "value": 0}, "group": "control_change"}, {"time": 1318, "annotation": {"number": 64, "value": 127}, "group": "control_change"}, {"time": 1338, "annotation": {"number": 64, "value": 0}, "group": "control_change"}, {"time": 1342, "annotation": {"number": 64, "value": 127}, "group": "control_change"}, {"time": 1362, "annotation": {"number": 64, "value": 0}, "group": "control_change"}, {"time": 1435, "annotation": {"number": 64, "value": 0}, "group": "control_change"}, {"time": 1438, "annotation": {"number": 64, "value": 127}, "group": "control_change"}, {"time": 1458, "annotation": {"number": 64, "value": 0}, "group": "control_change"}, {"time": 1462, "annotation": {"number": 64, "value": 127}, "group": "control_change"}, {"time": 1482, "annotation": {"number": 64, "value": 0}, "group": "control_change"}, {"time": 1486, "annotation": {"number": 64, "value": 127}, "group": "control_change"}, {"time": 1506, "annotation": {"number": 64, "value": 0}, "group": "control_change"}, {"time": 1510, "annotation": {"number": 64, "value": 127}, "group": "control_change"}, {"time": 1531, "annotation": {"number": 64, "value": 0}, "group": "control_change"}, {"time": 1534, "annotation": {"number": 64, "value": 127}, "group": "control_change"}, {"time": 1555, "annotation": {"number": 64, "value": 0}, "group": "control_change"}, {"time": 1559, "annotation": {"number": 64, "value": 127}, "group": "control_change"}, {"time": 1579, "annotation": {"number": 64, "value": 0}, "group": "control_change"}, {"time": 1582, "annotation": {"number": 64, "value": 127}, "group": "control_change"}, {"time": 1603, "annotation": {"number": 64, "value": 0}, "group": "control_change"}, {"time": 1607, "annotation": {"number": 64, "value": 127}, "group": "control_change"}, {"time": 1625, "annotation": {"number": 64, "value": 0}, "group": "control_change"}, {"time": 1630, "annotation": {"number": 64, "value": 127}, "group": "control_change"}, {"time": 1651, "annotation": {"number": 64, "value": 0}, "group": "control_change"}, {"time": 1706, "annotation": {"number": 64, "value": 127}, "group": "control_change"}, {"time": 1723, "annotation": {"number": 64, "value": 0}, "group": "control_change"}, {"time": 1727, "annotation": {"number": 64, "value": 127}, "group": "control_change"}, {"time": 1748, "annotation": {"number": 64, "value": 0}, "group": "control_change"}, {"time": 1751, "annotation": {"number": 64, "value": 127}, "group": "control_change"}, {"time": 1771, "annotation": {"number": 64, "value": 0}, "group": "control_change"}, {"time": 1775, "annotation": {"number": 64, "value": 127}, "group": "control_change"}, {"time": 1789, "annotation": {"number": 64, "value": 0}, "group": "control_change"}, {"time": 1799, "annotation": {"number": 64, "value": 127}, "group": "control_change"}, {"time": 1842, "annotation": {"number": 64, "value": 0}, "group": "control_change"}, {"time": 1846, "annotation": {"number": 64, "value": 127}, "group": "control_change"}, {"time": 1867, "annotation": {"number": 64, "value": 0}, "group": "control_change"}, {"time": 1871, "annotation": {"number": 64, "value": 127}, "group": "control_change"}, {"time": 1891, "annotation": {"number": 64, "value": 0}, "group": "control_change"}, {"time": 1895, "annotation": {"number": 64, "value": 127}, "group": "control_change"}, {"time": 1914, "annotation": {"number": 64, "value": 0}, "group": "control_change"}, {"time": 1918, "annotation": {"number": 64, "value": 127}, "group": "control_change"}, {"time": 1938, "annotation": {"number": 64, "value": 0}, "group": "control_change"}, {"time": 1942, "annotation": {"number": 64, "value": 127}, "group": "control_change"}, {"time": 1962, "annotation": {"number": 64, "value": 0}, "group": "control_change"}, {"time": 1966, "annotation": {"number": 64, "value": 127}, "group": "control_change"}, {"time": 1986, "annotation": {"number": 64, "value": 0}, "group": "control_change"}, {"time": 1990, "annotation": {"number": 64, "value": 127}, "group": "control_change"}, {"time": 2011, "annotation": {"number": 64, "value": 0}, "group": "control_change"}, {"time": 2015, "annotation": {"number": 64, "value": 127}, "group": "control_change"}, {"time": 2035, "annotation": {"number": 64, "value": 0}, "group": "control_change"}, {"time": 2038, "annotation": {"number": 64, "value": 127}, "group": "control_change"}, {"time": 2060, "annotation": {"number": 64, "value": 0}, "group": "control_change"}, {"time": 2062, "annotation": {"number": 64, "value": 127}, "group": "control_change"}, {"time": 2083, "annotation": {"number": 64, "value": 0}, "group": "control_change"}, {"time": 2086, "annotation": {"number": 64, "value": 127}, "group": "control_change"}, {"time": 2107, "annotation": {"number": 64, "value": 0}, "group": "control_change"}, {"time": 2110, "annotation": {"number": 64, "value": 127}, "group": "control_change"}, {"time": 2130, "annotation": {"number": 64, "value": 0}, "group": "control_change"}, {"time": 2134, "annotation": {"number": 64, "value": 127}, "group": "control_change"}, {"time": 2155, "annotation": {"number": 64, "value": 0}, "group": "control_change"}, {"time": 2158, "annotation": {"number": 64, "value": 127}, "group": "control_change"}, {"time": 2179, "annotation": {"number": 64, "value": 0}, "group": "control_change"}, {"time": 2182, "annotation": {"number": 64, "value": 127}, "group": "control_change"}, {"time": 2202, "annotation": {"number": 64, "value": 0}, "group": "control_change"}, {"time": 2206, "annotation": {"number": 64, "value": 127}, "group": "control_change"}, {"time": 2226, "annotation": {"number": 64, "value": 0}, "group": "control_change"}, {"time": 2230, "annotation": {"number": 64, "value": 127}, "group": "control_change"}, {"time": 2251, "annotation": {"number": 64, "value": 0}, "group": "control_change"}, {"time": 2254, "annotation": {"number": 64, "value": 127}, "group": "control_change"}, {"time": 2277, "annotation": {"number": 64, "value": 0}, "group": "control_change"}, {"time": 2299, "annotation": {"number": 64, "value": 0}, "group": "control_change"}, {"time": 2302, "annotation": {"number": 64, "value": 127}, "group": "control_change"}, {"time": 2322, "annotation": {"number": 64, "value": 0}, "group": "control_change"}, {"time": 2326, "annotation": {"number": 64, "value": 127}, "group": "control_change"}, {"time": 2347, "annotation": {"number": 64, "value": 0}, "group": "control_change"}, {"time": 2351, "annotation": {"number": 64, "value": 127}, "group": "control_change"}, {"time": 2370, "annotation": {"number": 64, "value": 0}, "group": "control_change"}, {"time": 2374, "annotation": {"number": 64, "value": 127}, "group": "control_change"}, {"time": 2394, "annotation": {"number": 64, "value": 0}, "group": "control_change"}, {"time": 2398, "annotation": {"number": 64, "value": 127}, "group": "control_change"}, {"time": 2419, "annotation": {"number": 64, "value": 0}, "group": "control_change"}, {"time": 2422, "annotation": {"number": 64, "value": 127}, "group": "control_change"}, {"time": 2443, "annotation": {"number": 64, "value": 0}, "group": "control_change"}, {"time": 2446, "annotation": {"number": 64, "value": 127}, "group": "control_change"}, {"time": 2467, "annotation": {"number": 64, "value": 0}, "group": "control_change"}, {"time": 2518, "annotation": {"number": 64, "value": 127}, "group": "control_change"}, {"time": 2539, "annotation": {"number": 64, "value": 0}, "group": "control_change"}, {"time": 2542, "annotation": {"number": 64, "value": 127}, "group": "control_change"}, {"time": 2563, "annotation": {"number": 64, "value": 0}, "group": "control_change"}, {"time": 2566, "annotation": {"number": 64, "value": 127}, "group": "control_change"}, {"time": 2586, "annotation": {"number": 64, "value": 0}, "group": "control_change"}, {"time": 2590, "annotation": {"number": 64, "value": 127}, "group": "control_change"}, {"time": 2610, "annotation": {"number": 64, "value": 0}, "group": "control_change"}, {"time": 2683, "annotation": {"number": 64, "value": 0}, "group": "control_change"}, {"time": 2686, "annotation": {"number": 64, "value": 127}, "group": "control_change"}, {"time": 2706, "annotation": {"number": 64, "value": 0}, "group": "control_change"}, {"time": 2710, "annotation": {"number": 64, "value": 127}, "group": "control_change"}, {"time": 2730, "annotation": {"number": 64, "value": 0}, "group": "control_change"}, {"time": 2734, "annotation": {"number": 64, "value": 127}, "group": "control_change"}, {"time": 2754, "annotation": {"number": 64, "value": 0}, "group": "control_change"}, {"time": 2758, "annotation": {"number": 64, "value": 127}, "group": "control_change"}, {"time": 2779, "annotation": {"number": 64, "value": 0}, "group": "control_change"}, {"time": 2782, "annotation": {"number": 64, "value": 127}, "group": "control_change"}, {"time": 2803, "annotation": {"number": 64, "value": 0}, "group": "control_change"}, {"time": 2807, "annotation": {"number": 64, "value": 127}, "group": "control_change"}, {"time": 2827, "annotation": {"number": 64, "value": 0}, "group": "control_change"}, {"time": 2830, "annotation": {"number": 64, "value": 127}, "group": "control_change"}, {"time": 2851, "annotation": {"number": 64, "value": 0}, "group": "control_change"}, {"time": 2855, "annotation": {"number": 64, "value": 127}, "group": "control_change"}, {"time": 2873, "annotation": {"number": 64, "value": 0}, "group": "control_change"}, {"time": 2878, "annotation": {"number": 64, "value": 127}, "group": "control_change"}, {"time": 2899, "annotation": {"number": 64, "value": 0}, "group": "control_change"}, {"time": 2954, "annotation": {"number": 64, "value": 127}, "group": "control_change"}, {"time": 2971, "annotation": {"number": 64, "value": 0}, "group": "control_change"}, {"time": 2975, "annotation": {"number": 64, "value": 127}, "group": "control_change"}, {"time": 2996, "annotation": {"number": 64, "value": 0}, "group": "control_change"}, {"time": 2998, "annotation": {"number": 64, "value": 127}, "group": "control_change"}, {"time": 3017, "annotation": {"number": 64, "value": 0}, "group": "control_change"}, {"time": 3022, "annotation": {"number": 64, "value": 127}, "group": "control_change"}, {"time": 3041, "annotation": {"number": 64, "value": 0}, "group": "control_change"}, {"time": 3047, "annotation": {"number": 64, "value": 127}, "group": "control_change"}, {"time": 3065, "annotation": {"number": 64, "value": 0}, "group": "control_change"}, {"time": 3070, "annotation": {"number": 64, "value": 127}, "group": "control_change"}, {"time": 3089, "annotation": {"number": 64, "value": 0}, "group": "control_change"}, {"time": 3095, "annotation": {"number": 64, "value": 127}, "group": "control_change"}, {"time": 3111, "annotation": {"number": 64, "value": 0}, "group": "control_change"}, {"time": 3118, "annotation": {"number": 64, "value": 127}, "group": "control_change"}, {"time": 3136, "annotation": {"number": 64, "value": 0}, "group": "control_change"}, {"time": 3143, "annotation": {"number": 64, "value": 127}, "group": "control_change"}, {"time": 3163, "annotation": {"number": 64, "value": 0}, "group": "control_change"}, {"time": 3167, "annotation": {"number": 64, "value": 127}, "group": "control_change"}, {"time": 3188, "annotation": {"number": 64, "value": 0}, "group": "control_change"}, {"time": 3239, "annotation": {"number": 64, "value": 127}, "group": "control_change"}, {"time": 3260, "annotation": {"number": 64, "value": 0}, "group": "control_change"}, {"time": 3263, "annotation": {"number": 64, "value": 127}, "group": "control_change"}, {"time": 3283, "annotation": {"number": 64, "value": 0}, "group": "control_change"}, {"time": 3287, "annotation": {"number": 64, "value": 127}, "group": "control_change"}, {"time": 3307, "annotation": {"number": 64, "value": 0}, "group": "control_change"}, {"time": 3311, "annotation": {"number": 64, "value": 127}, "group": "control_change"}, {"time": 3329, "annotation": {"number": 64, "value": 0}, "group": "control_change"}, {"time": 3334, "annotation": {"number": 64, "value": 127}, "group": "control_change"}, {"time": 3351, "annotation": {"number": 64, "value": 0}, "group": "control_change"}, {"time": 3359, "annotation": {"number": 64, "value": 127}, "group": "control_change"}, {"time": 3378, "annotation": {"number": 64, "value": 0}, "group": "control_change"}, {"time": 3383, "annotation": {"number": 64, "value": 127}, "group": "control_change"}, {"time": 3392, "annotation": {"number": 64, "value": 0}, "group": "control_change"}]}]}