{"metadata": {"schema_version": "0.2", "title": "None", "source_filename": "797.mid", "source_format": "midi"}, "resolution": 12, "tempos": [{"time": 0, "qpm": 117.99990166674861}, {"time": 396, "qpm": 118.99992463338107}, {"time": 432, "qpm": 122.0000691333725}, {"time": 444, "qpm": 120.99994353335968}, {"time": 468, "qpm": 122.99996925000768}, {"time": 516, "qpm": 123.99999173333389}, {"time": 696, "qpm": 120.99994353335968}, {"time": 708, "qpm": 120.0}, {"time": 900, "qpm": 123.99999173333389}, {"time": 1080, "qpm": 122.0000691333725}, {"time": 1188, "qpm": 123.99999173333389}, {"time": 1308, "qpm": 122.0000691333725}, {"time": 1356, "qpm": 117.99990166674861}, {"time": 1380, "qpm": 120.0}, {"time": 1452, "qpm": 117.99990166674861}, {"time": 1464, "qpm": 118.99992463338107}, {"time": 1476, "qpm": 117.99990166674861}, {"time": 1524, "qpm": 120.99994353335968}, {"time": 1644, "qpm": 122.0000691333725}, {"time": 1656, "qpm": 123.99999173333389}, {"time": 1716, "qpm": 125.0}, {"time": 1884, "qpm": 120.99994353335968}, {"time": 2028, "qpm": 122.99996925000768}, {"time": 2100, "qpm": 122.0000691333725}, {"time": 2196, "qpm": 120.99994353335968}, {"time": 2316, "qpm": 122.99996925000768}, {"time": 2616, "qpm": 110.9999056500802}, {"time": 2628, "qpm": 104.00001386666851}], "time_signatures": [{"time": 0, "numerator": 1, "denominator": 4}], "tracks": [{"program": 4, "is_drum": false, "name": "MELODY", "notes": [{"time": 316, "pitch": 69, "duration": 5, "velocity": 107}, {"time": 328, "pitch": 57, "duration": 5, "velocity": 95}, {"time": 340, "pitch": 60, "duration": 4, "velocity": 99}, {"time": 346, "pitch": 65, "duration": 10, "velocity": 102}, {"time": 358, "pitch": 62, "duration": 2, "velocity": 93}, {"time": 364, "pitch": 65, "duration": 6, "velocity": 97}, {"time": 376, "pitch": 67, "duration": 8, "velocity": 107}, {"time": 388, "pitch": 69, "duration": 6, "velocity": 122}, {"time": 394, "pitch": 67, "duration": 7, "velocity": 107}, {"time": 412, "pitch": 67, "duration": 2, "velocity": 107}, {"time": 418, "pitch": 67, "duration": 11, "velocity": 97}, {"time": 436, "pitch": 62, "duration": 7, "velocity": 97}, {"time": 448, "pitch": 57, "duration": 5, "velocity": 96}, {"time": 454, "pitch": 60, "duration": 6, "velocity": 90}, {"time": 460, "pitch": 62, "duration": 7, "velocity": 95}, {"time": 466, "pitch": 67, "duration": 2, "velocity": 99}, {"time": 472, "pitch": 64, "duration": 2, "velocity": 88}, {"time": 478, "pitch": 62, "duration": 2, "velocity": 90}, {"time": 484, "pitch": 64, "duration": 4, "velocity": 97}, {"time": 490, "pitch": 60, "duration": 12, "velocity": 93}, {"time": 508, "pitch": 65, "duration": 7, "velocity": 102}, {"time": 520, "pitch": 65, "duration": 4, "velocity": 96}, {"time": 526, "pitch": 64, "duration": 4, "velocity": 75}, {"time": 532, "pitch": 62, "duration": 5, "velocity": 100}, {"time": 538, "pitch": 67, "duration": 2, "velocity": 102}, {"time": 544, "pitch": 64, "duration": 2, "velocity": 99}, {"time": 550, "pitch": 62, "duration": 2, "velocity": 92}, {"time": 556, "pitch": 60, "duration": 4, "velocity": 89}, {"time": 562, "pitch": 62, "duration": 4, "velocity": 90}, {"time": 568, "pitch": 67, "duration": 5, "velocity": 95}, {"time": 574, "pitch": 64, "duration": 4, "velocity": 90}, {"time": 577, "pitch": 62, "duration": 11, "velocity": 92}, {"time": 700, "pitch": 62, "duration": 5, "velocity": 99}, {"time": 706, "pitch": 65, "duration": 7, "velocity": 102}, {"time": 718, "pitch": 67, "duration": 4, "velocity": 71}, {"time": 724, "pitch": 69, "duration": 8, "velocity": 107}, {"time": 736, "pitch": 69, "duration": 8, "velocity": 107}, {"time": 748, "pitch": 67, "duration": 12, "velocity": 112}, {"time": 790, "pitch": 67, "duration": 3, "velocity": 100}, {"time": 796, "pitch": 72, "duration": 6, "velocity": 117}, {"time": 808, "pitch": 64, "duration": 5, "velocity": 107}, {"time": 814, "pitch": 62, "duration": 5, "velocity": 85}, {"time": 820, "pitch": 57, "duration": 6, "velocity": 96}, {"time": 832, "pitch": 60, "duration": 27, "velocity": 99}, {"time": 940, "pitch": 72, "duration": 7, "velocity": 117}, {"time": 952, "pitch": 72, "duration": 6, "velocity": 112}, {"time": 964, "pitch": 69, "duration": 2, "velocity": 112}, {"time": 970, "pitch": 74, "duration": 3, "velocity": 102}, {"time": 976, "pitch": 72, "duration": 5, "velocity": 117}, {"time": 988, "pitch": 69, "duration": 6, "velocity": 102}, {"time": 994, "pitch": 67, "duration": 3, "velocity": 83}, {"time": 1000, "pitch": 69, "duration": 4, "velocity": 102}, {"time": 1006, "pitch": 72, "duration": 3, "velocity": 96}, {"time": 1012, "pitch": 67, "duration": 20, "velocity": 107}, {"time": 1036, "pitch": 69, "duration": 6, "velocity": 100}, {"time": 1048, "pitch": 62, "duration": 6, "velocity": 122}, {"time": 1060, "pitch": 65, "duration": 6, "velocity": 99}, {"time": 1066, "pitch": 69, "duration": 5, "velocity": 97}, {"time": 1072, "pitch": 72, "duration": 5, "velocity": 100}, {"time": 1078, "pitch": 69, "duration": 5, "velocity": 97}, {"time": 1084, "pitch": 67, "duration": 2, "velocity": 95}, {"time": 1090, "pitch": 65, "duration": 2, "velocity": 93}, {"time": 1096, "pitch": 62, "duration": 3, "velocity": 96}, {"time": 1102, "pitch": 60, "duration": 4, "velocity": 100}, {"time": 1108, "pitch": 65, "duration": 16, "velocity": 107}, {"time": 1132, "pitch": 64, "duration": 5, "velocity": 107}, {"time": 1138, "pitch": 62, "duration": 4, "velocity": 89}, {"time": 1144, "pitch": 64, "duration": 5, "velocity": 95}, {"time": 1150, "pitch": 62, "duration": 5, "velocity": 85}, {"time": 1156, "pitch": 67, "duration": 6, "velocity": 107}, {"time": 1174, "pitch": 57, "duration": 4, "velocity": 92}, {"time": 1180, "pitch": 60, "duration": 4, "velocity": 99}, {"time": 1186, "pitch": 62, "duration": 4, "velocity": 95}, {"time": 1192, "pitch": 67, "duration": 5, "velocity": 112}, {"time": 1198, "pitch": 64, "duration": 4, "velocity": 89}, {"time": 1204, "pitch": 62, "duration": 15, "velocity": 96}, {"time": 1228, "pitch": 65, "duration": 3, "velocity": 112}, {"time": 1234, "pitch": 67, "duration": 3, "velocity": 122}, {"time": 1240, "pitch": 69, "duration": 3, "velocity": 107}, {"time": 1246, "pitch": 72, "duration": 2, "velocity": 97}, {"time": 1252, "pitch": 67, "duration": 11, "velocity": 112}, {"time": 1270, "pitch": 60, "duration": 4, "velocity": 100}, {"time": 1276, "pitch": 62, "duration": 4, "velocity": 100}, {"time": 1282, "pitch": 65, "duration": 4, "velocity": 97}, {"time": 1288, "pitch": 67, "duration": 5, "velocity": 102}, {"time": 1294, "pitch": 69, "duration": 5, "velocity": 96}, {"time": 1300, "pitch": 65, "duration": 26, "velocity": 107}, {"time": 1516, "pitch": 69, "duration": 5, "velocity": 107}, {"time": 1528, "pitch": 57, "duration": 5, "velocity": 95}, {"time": 1540, "pitch": 60, "duration": 4, "velocity": 99}, {"time": 1546, "pitch": 65, "duration": 10, "velocity": 102}, {"time": 1558, "pitch": 62, "duration": 2, "velocity": 93}, {"time": 1564, "pitch": 65, "duration": 6, "velocity": 97}, {"time": 1576, "pitch": 67, "duration": 8, "velocity": 107}, {"time": 1588, "pitch": 69, "duration": 6, "velocity": 122}, {"time": 1594, "pitch": 67, "duration": 7, "velocity": 107}, {"time": 1612, "pitch": 67, "duration": 2, "velocity": 107}, {"time": 1618, "pitch": 67, "duration": 11, "velocity": 97}, {"time": 1636, "pitch": 62, "duration": 7, "velocity": 97}, {"time": 1648, "pitch": 57, "duration": 5, "velocity": 96}, {"time": 1654, "pitch": 60, "duration": 6, "velocity": 90}, {"time": 1660, "pitch": 62, "duration": 7, "velocity": 95}, {"time": 1666, "pitch": 67, "duration": 2, "velocity": 99}, {"time": 1672, "pitch": 64, "duration": 2, "velocity": 88}, {"time": 1678, "pitch": 62, "duration": 2, "velocity": 90}, {"time": 1684, "pitch": 64, "duration": 4, "velocity": 97}, {"time": 1690, "pitch": 60, "duration": 12, "velocity": 93}, {"time": 1708, "pitch": 65, "duration": 7, "velocity": 102}, {"time": 1720, "pitch": 65, "duration": 4, "velocity": 96}, {"time": 1726, "pitch": 64, "duration": 4, "velocity": 75}, {"time": 1732, "pitch": 62, "duration": 5, "velocity": 100}, {"time": 1738, "pitch": 67, "duration": 2, "velocity": 102}, {"time": 1744, "pitch": 64, "duration": 2, "velocity": 99}, {"time": 1750, "pitch": 62, "duration": 2, "velocity": 92}, {"time": 1756, "pitch": 60, "duration": 4, "velocity": 89}, {"time": 1762, "pitch": 62, "duration": 4, "velocity": 90}, {"time": 1768, "pitch": 67, "duration": 5, "velocity": 95}, {"time": 1774, "pitch": 64, "duration": 4, "velocity": 90}, {"time": 1777, "pitch": 62, "duration": 11, "velocity": 92}, {"time": 1900, "pitch": 62, "duration": 5, "velocity": 99}, {"time": 1906, "pitch": 65, "duration": 7, "velocity": 102}, {"time": 1918, "pitch": 67, "duration": 4, "velocity": 71}, {"time": 1924, "pitch": 69, "duration": 8, "velocity": 107}, {"time": 1936, "pitch": 69, "duration": 8, "velocity": 107}, {"time": 1948, "pitch": 67, "duration": 12, "velocity": 112}, {"time": 1990, "pitch": 67, "duration": 3, "velocity": 100}, {"time": 1996, "pitch": 72, "duration": 6, "velocity": 117}, {"time": 2008, "pitch": 64, "duration": 5, "velocity": 107}, {"time": 2014, "pitch": 62, "duration": 5, "velocity": 85}, {"time": 2020, "pitch": 57, "duration": 6, "velocity": 96}, {"time": 2032, "pitch": 60, "duration": 27, "velocity": 99}, {"time": 2140, "pitch": 72, "duration": 7, "velocity": 117}, {"time": 2152, "pitch": 72, "duration": 6, "velocity": 112}, {"time": 2164, "pitch": 69, "duration": 2, "velocity": 112}, {"time": 2170, "pitch": 74, "duration": 3, "velocity": 102}, {"time": 2176, "pitch": 72, "duration": 5, "velocity": 117}, {"time": 2188, "pitch": 69, "duration": 6, "velocity": 102}, {"time": 2194, "pitch": 67, "duration": 3, "velocity": 83}, {"time": 2200, "pitch": 69, "duration": 4, "velocity": 102}, {"time": 2206, "pitch": 72, "duration": 3, "velocity": 96}, {"time": 2212, "pitch": 67, "duration": 20, "velocity": 107}, {"time": 2236, "pitch": 69, "duration": 6, "velocity": 100}, {"time": 2248, "pitch": 62, "duration": 6, "velocity": 122}, {"time": 2260, "pitch": 65, "duration": 6, "velocity": 99}, {"time": 2266, "pitch": 69, "duration": 5, "velocity": 97}, {"time": 2272, "pitch": 72, "duration": 5, "velocity": 100}, {"time": 2278, "pitch": 69, "duration": 5, "velocity": 97}, {"time": 2284, "pitch": 67, "duration": 2, "velocity": 95}, {"time": 2290, "pitch": 65, "duration": 2, "velocity": 93}, {"time": 2296, "pitch": 62, "duration": 3, "velocity": 96}, {"time": 2302, "pitch": 60, "duration": 4, "velocity": 100}, {"time": 2308, "pitch": 65, "duration": 16, "velocity": 107}, {"time": 2332, "pitch": 64, "duration": 5, "velocity": 107}, {"time": 2338, "pitch": 62, "duration": 4, "velocity": 89}, {"time": 2344, "pitch": 64, "duration": 5, "velocity": 95}, {"time": 2350, "pitch": 62, "duration": 5, "velocity": 85}, {"time": 2356, "pitch": 67, "duration": 6, "velocity": 107}, {"time": 2374, "pitch": 57, "duration": 4, "velocity": 92}, {"time": 2380, "pitch": 60, "duration": 4, "velocity": 99}, {"time": 2386, "pitch": 62, "duration": 4, "velocity": 95}, {"time": 2392, "pitch": 67, "duration": 5, "velocity": 112}, {"time": 2398, "pitch": 64, "duration": 4, "velocity": 89}, {"time": 2404, "pitch": 62, "duration": 15, "velocity": 96}, {"time": 2428, "pitch": 65, "duration": 3, "velocity": 112}, {"time": 2434, "pitch": 67, "duration": 3, "velocity": 122}, {"time": 2440, "pitch": 69, "duration": 3, "velocity": 107}, {"time": 2446, "pitch": 72, "duration": 2, "velocity": 97}, {"time": 2452, "pitch": 67, "duration": 11, "velocity": 112}, {"time": 2470, "pitch": 60, "duration": 4, "velocity": 100}, {"time": 2476, "pitch": 62, "duration": 4, "velocity": 100}, {"time": 2482, "pitch": 65, "duration": 4, "velocity": 97}, {"time": 2488, "pitch": 67, "duration": 5, "velocity": 102}, {"time": 2494, "pitch": 69, "duration": 5, "velocity": 96}, {"time": 2500, "pitch": 65, "duration": 26, "velocity": 107}, {"time": 2524, "pitch": 65, "duration": 2, "velocity": 112}, {"time": 2530, "pitch": 67, "duration": 3, "velocity": 122}, {"time": 2536, "pitch": 69, "duration": 3, "velocity": 107}, {"time": 2542, "pitch": 72, "duration": 2, "velocity": 97}, {"time": 2548, "pitch": 67, "duration": 11, "velocity": 112}, {"time": 2566, "pitch": 60, "duration": 4, "velocity": 100}, {"time": 2572, "pitch": 62, "duration": 4, "velocity": 100}, {"time": 2578, "pitch": 65, "duration": 4, "velocity": 97}, {"time": 2584, "pitch": 67, "duration": 5, "velocity": 102}, {"time": 2590, "pitch": 69, "duration": 5, "velocity": 96}, {"time": 2596, "pitch": 65, "duration": 26, "velocity": 107}, {"time": 2620, "pitch": 65, "duration": 2, "velocity": 97}, {"time": 2626, "pitch": 67, "duration": 4, "velocity": 100}, {"time": 2632, "pitch": 69, "duration": 3, "velocity": 127}, {"time": 2638, "pitch": 72, "duration": 2, "velocity": 97}, {"time": 2644, "pitch": 67, "duration": 17, "velocity": 122}, {"time": 2665, "pitch": 60, "duration": 14, "velocity": 79}, {"time": 2678, "pitch": 62, "duration": 14, "velocity": 93}, {"time": 2689, "pitch": 65, "duration": 9, "velocity": 90}, {"time": 2698, "pitch": 67, "duration": 14, "velocity": 93}, {"time": 2710, "pitch": 69, "duration": 13, "velocity": 102}, {"time": 2726, "pitch": 65, "duration": 50, "velocity": 107}]}, {"program": 0, "is_drum": false, "name": "PIANO", "notes": [{"time": 124, "pitch": 53, "duration": 5, "velocity": 61}, {"time": 124, "pitch": 60, "duration": 5, "velocity": 85}, {"time": 124, "pitch": 65, "duration": 5, "velocity": 81}, {"time": 124, "pitch": 69, "duration": 5, "velocity": 74}, {"time": 148, "pitch": 53, "duration": 5, "velocity": 76}, {"time": 148, "pitch": 60, "duration": 5, "velocity": 82}, {"time": 148, "pitch": 65, "duration": 4, "velocity": 81}, {"time": 148, "pitch": 69, "duration": 5, "velocity": 72}, {"time": 172, "pitch": 53, "duration": 4, "velocity": 83}, {"time": 172, "pitch": 60, "duration": 4, "velocity": 50}, {"time": 172, "pitch": 65, "duration": 5, "velocity": 79}, {"time": 172, "pitch": 69, "duration": 5, "velocity": 72}, {"time": 196, "pitch": 48, "duration": 3, "velocity": 82}, {"time": 196, "pitch": 60, "duration": 2, "velocity": 112}, {"time": 202, "pitch": 45, "duration": 3, "velocity": 88}, {"time": 202, "pitch": 57, "duration": 3, "velocity": 96}, {"time": 205, "pitch": 48, "duration": 3, "velocity": 72}, {"time": 205, "pitch": 60, "duration": 3, "velocity": 88}, {"time": 208, "pitch": 50, "duration": 3, "velocity": 82}, {"time": 208, "pitch": 62, "duration": 2, "velocity": 100}, {"time": 214, "pitch": 48, "duration": 3, "velocity": 95}, {"time": 214, "pitch": 60, "duration": 3, "velocity": 127}, {"time": 220, "pitch": 41, "duration": 4, "velocity": 58}, {"time": 220, "pitch": 48, "duration": 4, "velocity": 65}, {"time": 220, "pitch": 53, "duration": 4, "velocity": 79}, {"time": 220, "pitch": 60, "duration": 5, "velocity": 89}, {"time": 220, "pitch": 65, "duration": 4, "velocity": 83}, {"time": 220, "pitch": 69, "duration": 4, "velocity": 73}, {"time": 244, "pitch": 41, "duration": 3, "velocity": 56}, {"time": 244, "pitch": 48, "duration": 4, "velocity": 71}, {"time": 244, "pitch": 53, "duration": 4, "velocity": 79}, {"time": 244, "pitch": 60, "duration": 4, "velocity": 79}, {"time": 244, "pitch": 65, "duration": 4, "velocity": 81}, {"time": 244, "pitch": 69, "duration": 4, "velocity": 69}, {"time": 268, "pitch": 41, "duration": 2, "velocity": 46}, {"time": 268, "pitch": 48, "duration": 2, "velocity": 63}, {"time": 268, "pitch": 53, "duration": 2, "velocity": 69}, {"time": 268, "pitch": 60, "duration": 3, "velocity": 77}, {"time": 268, "pitch": 65, "duration": 2, "velocity": 79}, {"time": 268, "pitch": 69, "duration": 3, "velocity": 72}, {"time": 280, "pitch": 36, "duration": 3, "velocity": 63}, {"time": 280, "pitch": 43, "duration": 3, "velocity": 70}, {"time": 280, "pitch": 48, "duration": 4, "velocity": 85}, {"time": 280, "pitch": 60, "duration": 3, "velocity": 78}, {"time": 280, "pitch": 64, "duration": 3, "velocity": 81}, {"time": 280, "pitch": 67, "duration": 4, "velocity": 78}, {"time": 292, "pitch": 41, "duration": 2, "velocity": 42}, {"time": 292, "pitch": 48, "duration": 2, "velocity": 72}, {"time": 292, "pitch": 53, "duration": 2, "velocity": 85}, {"time": 292, "pitch": 60, "duration": 2, "velocity": 76}, {"time": 292, "pitch": 65, "duration": 2, "velocity": 82}, {"time": 292, "pitch": 69, "duration": 2, "velocity": 72}, {"time": 298, "pitch": 41, "duration": 1, "velocity": 44}, {"time": 298, "pitch": 48, "duration": 2, "velocity": 73}, {"time": 298, "pitch": 53, "duration": 2, "velocity": 82}, {"time": 298, "pitch": 60, "duration": 2, "velocity": 76}, {"time": 298, "pitch": 65, "duration": 2, "velocity": 73}, {"time": 298, "pitch": 69, "duration": 2, "velocity": 63}, {"time": 304, "pitch": 41, "duration": 3, "velocity": 66}, {"time": 304, "pitch": 48, "duration": 3, "velocity": 89}, {"time": 304, "pitch": 53, "duration": 3, "velocity": 93}, {"time": 304, "pitch": 60, "duration": 3, "velocity": 88}, {"time": 304, "pitch": 65, "duration": 3, "velocity": 90}, {"time": 304, "pitch": 69, "duration": 3, "velocity": 81}, {"time": 316, "pitch": 41, "duration": 19, "velocity": 92}, {"time": 322, "pitch": 48, "duration": 14, "velocity": 79}, {"time": 328, "pitch": 53, "duration": 5, "velocity": 93}, {"time": 328, "pitch": 65, "duration": 11, "velocity": 76}, {"time": 328, "pitch": 69, "duration": 12, "velocity": 90}, {"time": 334, "pitch": 60, "duration": 8, "velocity": 85}, {"time": 340, "pitch": 38, "duration": 14, "velocity": 77}, {"time": 346, "pitch": 45, "duration": 8, "velocity": 58}, {"time": 352, "pitch": 50, "duration": 9, "velocity": 79}, {"time": 352, "pitch": 62, "duration": 10, "velocity": 93}, {"time": 352, "pitch": 65, "duration": 10, "velocity": 85}, {"time": 358, "pitch": 57, "duration": 7, "velocity": 78}, {"time": 364, "pitch": 46, "duration": 9, "velocity": 93}, {"time": 370, "pitch": 50, "duration": 8, "velocity": 38}, {"time": 376, "pitch": 46, "duration": 3, "velocity": 29}, {"time": 376, "pitch": 53, "duration": 3, "velocity": 86}, {"time": 376, "pitch": 58, "duration": 15, "velocity": 95}, {"time": 376, "pitch": 62, "duration": 15, "velocity": 77}, {"time": 376, "pitch": 65, "duration": 15, "velocity": 72}, {"time": 388, "pitch": 36, "duration": 9, "velocity": 52}, {"time": 394, "pitch": 43, "duration": 10, "velocity": 74}, {"time": 400, "pitch": 48, "duration": 9, "velocity": 89}, {"time": 400, "pitch": 60, "duration": 11, "velocity": 85}, {"time": 400, "pitch": 64, "duration": 11, "velocity": 85}, {"time": 406, "pitch": 55, "duration": 4, "velocity": 85}, {"time": 412, "pitch": 45, "duration": 14, "velocity": 72}, {"time": 418, "pitch": 52, "duration": 8, "velocity": 61}, {"time": 424, "pitch": 60, "duration": 12, "velocity": 90}, {"time": 424, "pitch": 64, "duration": 13, "velocity": 86}, {"time": 430, "pitch": 57, "duration": 9, "velocity": 88}, {"time": 436, "pitch": 38, "duration": 15, "velocity": 70}, {"time": 442, "pitch": 45, "duration": 8, "velocity": 43}, {"time": 448, "pitch": 50, "duration": 12, "velocity": 50}, {"time": 448, "pitch": 62, "duration": 7, "velocity": 90}, {"time": 448, "pitch": 65, "duration": 8, "velocity": 90}, {"time": 454, "pitch": 57, "duration": 6, "velocity": 69}, {"time": 460, "pitch": 43, "duration": 15, "velocity": 77}, {"time": 466, "pitch": 50, "duration": 6, "velocity": 46}, {"time": 472, "pitch": 58, "duration": 10, "velocity": 107}, {"time": 472, "pitch": 62, "duration": 11, "velocity": 90}, {"time": 478, "pitch": 55, "duration": 9, "velocity": 82}, {"time": 484, "pitch": 36, "duration": 17, "velocity": 69}, {"time": 490, "pitch": 43, "duration": 12, "velocity": 69}, {"time": 496, "pitch": 48, "duration": 11, "velocity": 90}, {"time": 496, "pitch": 60, "duration": 11, "velocity": 79}, {"time": 496, "pitch": 64, "duration": 8, "velocity": 59}, {"time": 496, "pitch": 64, "duration": 8, "velocity": 82}, {"time": 502, "pitch": 55, "duration": 7, "velocity": 92}, {"time": 508, "pitch": 41, "duration": 19, "velocity": 90}, {"time": 514, "pitch": 48, "duration": 14, "velocity": 72}, {"time": 520, "pitch": 53, "duration": 5, "velocity": 77}, {"time": 520, "pitch": 65, "duration": 9, "velocity": 90}, {"time": 520, "pitch": 69, "duration": 9, "velocity": 90}, {"time": 526, "pitch": 60, "duration": 5, "velocity": 89}, {"time": 532, "pitch": 46, "duration": 7, "velocity": 112}, {"time": 538, "pitch": 50, "duration": 17, "velocity": 66}, {"time": 544, "pitch": 58, "duration": 9, "velocity": 102}, {"time": 544, "pitch": 62, "duration": 11, "velocity": 88}, {"time": 544, "pitch": 65, "duration": 12, "velocity": 88}, {"time": 556, "pitch": 45, "duration": 15, "velocity": 72}, {"time": 556, "pitch": 58, "duration": 4, "velocity": 86}, {"time": 562, "pitch": 52, "duration": 8, "velocity": 90}, {"time": 568, "pitch": 60, "duration": 11, "velocity": 89}, {"time": 568, "pitch": 64, "duration": 11, "velocity": 85}, {"time": 574, "pitch": 57, "duration": 6, "velocity": 93}, {"time": 580, "pitch": 38, "duration": 8, "velocity": 74}, {"time": 586, "pitch": 45, "duration": 6, "velocity": 92}, {"time": 592, "pitch": 50, "duration": 8, "velocity": 89}, {"time": 592, "pitch": 62, "duration": 10, "velocity": 88}, {"time": 592, "pitch": 65, "duration": 10, "velocity": 79}, {"time": 598, "pitch": 57, "duration": 5, "velocity": 85}, {"time": 604, "pitch": 50, "duration": 6, "velocity": 117}, {"time": 604, "pitch": 62, "duration": 6, "velocity": 117}, {"time": 613, "pitch": 53, "duration": 3, "velocity": 88}, {"time": 613, "pitch": 65, "duration": 3, "velocity": 88}, {"time": 616, "pitch": 45, "duration": 3, "velocity": 93}, {"time": 616, "pitch": 57, "duration": 3, "velocity": 93}, {"time": 622, "pitch": 48, "duration": 2, "velocity": 99}, {"time": 622, "pitch": 60, "duration": 2, "velocity": 99}, {"time": 628, "pitch": 50, "duration": 2, "velocity": 107}, {"time": 628, "pitch": 62, "duration": 2, "velocity": 107}, {"time": 634, "pitch": 48, "duration": 3, "velocity": 88}, {"time": 634, "pitch": 60, "duration": 3, "velocity": 88}, {"time": 640, "pitch": 50, "duration": 3, "velocity": 100}, {"time": 640, "pitch": 62, "duration": 3, "velocity": 100}, {"time": 652, "pitch": 50, "duration": 6, "velocity": 102}, {"time": 652, "pitch": 62, "duration": 6, "velocity": 102}, {"time": 661, "pitch": 53, "duration": 2, "velocity": 85}, {"time": 661, "pitch": 65, "duration": 2, "velocity": 85}, {"time": 664, "pitch": 45, "duration": 3, "velocity": 107}, {"time": 664, "pitch": 57, "duration": 3, "velocity": 107}, {"time": 670, "pitch": 48, "duration": 2, "velocity": 112}, {"time": 670, "pitch": 60, "duration": 2, "velocity": 112}, {"time": 676, "pitch": 50, "duration": 4, "velocity": 127}, {"time": 676, "pitch": 62, "duration": 4, "velocity": 127}, {"time": 700, "pitch": 38, "duration": 14, "velocity": 92}, {"time": 706, "pitch": 57, "duration": 24, "velocity": 38}, {"time": 712, "pitch": 62, "duration": 16, "velocity": 79}, {"time": 712, "pitch": 65, "duration": 15, "velocity": 85}, {"time": 718, "pitch": 38, "duration": 2, "velocity": 70}, {"time": 724, "pitch": 38, "duration": 10, "velocity": 69}, {"time": 730, "pitch": 62, "duration": 16, "velocity": 73}, {"time": 730, "pitch": 65, "duration": 16, "velocity": 74}, {"time": 742, "pitch": 57, "duration": 13, "velocity": 85}, {"time": 748, "pitch": 43, "duration": 15, "velocity": 77}, {"time": 754, "pitch": 50, "duration": 11, "velocity": 78}, {"time": 760, "pitch": 59, "duration": 19, "velocity": 75}, {"time": 760, "pitch": 62, "duration": 21, "velocity": 75}, {"time": 766, "pitch": 43, "duration": 2, "velocity": 72}, {"time": 772, "pitch": 43, "duration": 12, "velocity": 82}, {"time": 778, "pitch": 55, "duration": 65, "velocity": 74}, {"time": 784, "pitch": 59, "duration": 11, "velocity": 79}, {"time": 790, "pitch": 62, "duration": 5, "velocity": 79}, {"time": 796, "pitch": 36, "duration": 14, "velocity": 83}, {"time": 802, "pitch": 43, "duration": 9, "velocity": 47}, {"time": 808, "pitch": 64, "duration": 16, "velocity": 88}, {"time": 814, "pitch": 36, "duration": 2, "velocity": 75}, {"time": 820, "pitch": 36, "duration": 12, "velocity": 65}, {"time": 826, "pitch": 60, "duration": 7, "velocity": 68}, {"time": 832, "pitch": 64, "duration": 12, "velocity": 88}, {"time": 838, "pitch": 60, "duration": 6, "velocity": 71}, {"time": 844, "pitch": 50, "duration": 3, "velocity": 112}, {"time": 844, "pitch": 57, "duration": 8, "velocity": 90}, {"time": 844, "pitch": 62, "duration": 8, "velocity": 89}, {"time": 844, "pitch": 65, "duration": 8, "velocity": 83}, {"time": 868, "pitch": 48, "duration": 2, "velocity": 99}, {"time": 868, "pitch": 55, "duration": 2, "velocity": 85}, {"time": 868, "pitch": 60, "duration": 2, "velocity": 88}, {"time": 868, "pitch": 64, "duration": 2, "velocity": 78}, {"time": 874, "pitch": 48, "duration": 2, "velocity": 82}, {"time": 874, "pitch": 55, "duration": 2, "velocity": 73}, {"time": 874, "pitch": 60, "duration": 2, "velocity": 81}, {"time": 874, "pitch": 64, "duration": 2, "velocity": 70}, {"time": 880, "pitch": 48, "duration": 2, "velocity": 102}, {"time": 880, "pitch": 55, "duration": 2, "velocity": 78}, {"time": 880, "pitch": 60, "duration": 2, "velocity": 89}, {"time": 880, "pitch": 64, "duration": 2, "velocity": 75}, {"time": 892, "pitch": 50, "duration": 8, "velocity": 93}, {"time": 892, "pitch": 57, "duration": 8, "velocity": 86}, {"time": 892, "pitch": 62, "duration": 8, "velocity": 90}, {"time": 892, "pitch": 65, "duration": 8, "velocity": 83}, {"time": 916, "pitch": 48, "duration": 2, "velocity": 102}, {"time": 916, "pitch": 55, "duration": 1, "velocity": 78}, {"time": 916, "pitch": 60, "duration": 1, "velocity": 70}, {"time": 916, "pitch": 64, "duration": 1, "velocity": 65}, {"time": 928, "pitch": 48, "duration": 2, "velocity": 102}, {"time": 928, "pitch": 55, "duration": 3, "velocity": 79}, {"time": 928, "pitch": 60, "duration": 3, "velocity": 93}, {"time": 928, "pitch": 64, "duration": 3, "velocity": 85}, {"time": 940, "pitch": 41, "duration": 13, "velocity": 88}, {"time": 952, "pitch": 60, "duration": 12, "velocity": 88}, {"time": 952, "pitch": 65, "duration": 12, "velocity": 89}, {"time": 952, "pitch": 69, "duration": 14, "velocity": 81}, {"time": 958, "pitch": 41, "duration": 2, "velocity": 58}, {"time": 958, "pitch": 53, "duration": 2, "velocity": 73}, {"time": 964, "pitch": 41, "duration": 17, "velocity": 75}, {"time": 964, "pitch": 53, "duration": 18, "velocity": 82}, {"time": 976, "pitch": 60, "duration": 7, "velocity": 86}, {"time": 976, "pitch": 65, "duration": 8, "velocity": 92}, {"time": 976, "pitch": 69, "duration": 8, "velocity": 82}, {"time": 988, "pitch": 41, "duration": 14, "velocity": 77}, {"time": 1000, "pitch": 60, "duration": 6, "velocity": 79}, {"time": 1000, "pitch": 65, "duration": 7, "velocity": 89}, {"time": 1000, "pitch": 69, "duration": 8, "velocity": 82}, {"time": 1006, "pitch": 41, "duration": 3, "velocity": 75}, {"time": 1012, "pitch": 36, "duration": 19, "velocity": 69}, {"time": 1024, "pitch": 60, "duration": 8, "velocity": 75}, {"time": 1024, "pitch": 64, "duration": 8, "velocity": 90}, {"time": 1024, "pitch": 67, "duration": 9, "velocity": 86}, {"time": 1036, "pitch": 38, "duration": 14, "velocity": 78}, {"time": 1048, "pitch": 57, "duration": 2, "velocity": 83}, {"time": 1048, "pitch": 62, "duration": 3, "velocity": 93}, {"time": 1048, "pitch": 65, "duration": 3, "velocity": 86}, {"time": 1054, "pitch": 38, "duration": 2, "velocity": 55}, {"time": 1054, "pitch": 50, "duration": 1, "velocity": 66}, {"time": 1060, "pitch": 38, "duration": 12, "velocity": 66}, {"time": 1060, "pitch": 50, "duration": 16, "velocity": 85}, {"time": 1072, "pitch": 57, "duration": 5, "velocity": 77}, {"time": 1072, "pitch": 62, "duration": 5, "velocity": 85}, {"time": 1072, "pitch": 65, "duration": 6, "velocity": 77}, {"time": 1084, "pitch": 36, "duration": 14, "velocity": 82}, {"time": 1096, "pitch": 55, "duration": 4, "velocity": 83}, {"time": 1096, "pitch": 60, "duration": 3, "velocity": 90}, {"time": 1096, "pitch": 64, "duration": 4, "velocity": 83}, {"time": 1102, "pitch": 36, "duration": 6, "velocity": 83}, {"time": 1108, "pitch": 41, "duration": 12, "velocity": 76}, {"time": 1120, "pitch": 60, "duration": 6, "velocity": 89}, {"time": 1120, "pitch": 65, "duration": 6, "velocity": 90}, {"time": 1120, "pitch": 69, "duration": 7, "velocity": 83}, {"time": 1132, "pitch": 36, "duration": 7, "velocity": 70}, {"time": 1132, "pitch": 48, "duration": 7, "velocity": 93}, {"time": 1132, "pitch": 60, "duration": 6, "velocity": 83}, {"time": 1132, "pitch": 64, "duration": 6, "velocity": 83}, {"time": 1132, "pitch": 67, "duration": 6, "velocity": 82}, {"time": 1227, "pitch": 41, "duration": 17, "velocity": 79}, {"time": 1233, "pitch": 48, "duration": 11, "velocity": 73}, {"time": 1238, "pitch": 69, "duration": 8, "velocity": 100}, {"time": 1245, "pitch": 60, "duration": 9, "velocity": 96}, {"time": 1251, "pitch": 36, "duration": 15, "velocity": 79}, {"time": 1257, "pitch": 43, "duration": 9, "velocity": 74}, {"time": 1262, "pitch": 64, "duration": 10, "velocity": 93}, {"time": 1263, "pitch": 48, "duration": 8, "velocity": 59}, {"time": 1269, "pitch": 55, "duration": 5, "velocity": 95}, {"time": 1275, "pitch": 46, "duration": 10, "velocity": 112}, {"time": 1281, "pitch": 58, "duration": 8, "velocity": 100}, {"time": 1286, "pitch": 48, "duration": 13, "velocity": 75}, {"time": 1293, "pitch": 60, "duration": 6, "velocity": 93}, {"time": 1299, "pitch": 41, "duration": 23, "velocity": 82}, {"time": 1305, "pitch": 48, "duration": 16, "velocity": 90}, {"time": 1311, "pitch": 53, "duration": 11, "velocity": 89}, {"time": 1317, "pitch": 60, "duration": 5, "velocity": 92}, {"time": 1324, "pitch": 53, "duration": 5, "velocity": 61}, {"time": 1324, "pitch": 60, "duration": 5, "velocity": 85}, {"time": 1324, "pitch": 65, "duration": 5, "velocity": 81}, {"time": 1324, "pitch": 69, "duration": 5, "velocity": 74}, {"time": 1348, "pitch": 53, "duration": 5, "velocity": 76}, {"time": 1348, "pitch": 60, "duration": 5, "velocity": 82}, {"time": 1348, "pitch": 65, "duration": 4, "velocity": 81}, {"time": 1348, "pitch": 69, "duration": 5, "velocity": 72}, {"time": 1372, "pitch": 53, "duration": 4, "velocity": 83}, {"time": 1372, "pitch": 60, "duration": 4, "velocity": 50}, {"time": 1372, "pitch": 65, "duration": 5, "velocity": 79}, {"time": 1372, "pitch": 69, "duration": 5, "velocity": 72}, {"time": 1396, "pitch": 48, "duration": 3, "velocity": 82}, {"time": 1396, "pitch": 60, "duration": 2, "velocity": 112}, {"time": 1402, "pitch": 45, "duration": 3, "velocity": 88}, {"time": 1402, "pitch": 57, "duration": 3, "velocity": 96}, {"time": 1405, "pitch": 48, "duration": 3, "velocity": 72}, {"time": 1405, "pitch": 60, "duration": 3, "velocity": 88}, {"time": 1408, "pitch": 50, "duration": 3, "velocity": 82}, {"time": 1408, "pitch": 62, "duration": 2, "velocity": 100}, {"time": 1414, "pitch": 48, "duration": 3, "velocity": 95}, {"time": 1414, "pitch": 60, "duration": 3, "velocity": 127}, {"time": 1420, "pitch": 41, "duration": 4, "velocity": 58}, {"time": 1420, "pitch": 48, "duration": 4, "velocity": 65}, {"time": 1420, "pitch": 53, "duration": 4, "velocity": 79}, {"time": 1420, "pitch": 60, "duration": 5, "velocity": 89}, {"time": 1420, "pitch": 65, "duration": 4, "velocity": 83}, {"time": 1420, "pitch": 69, "duration": 4, "velocity": 73}, {"time": 1444, "pitch": 41, "duration": 3, "velocity": 56}, {"time": 1444, "pitch": 48, "duration": 4, "velocity": 71}, {"time": 1444, "pitch": 53, "duration": 4, "velocity": 79}, {"time": 1444, "pitch": 60, "duration": 4, "velocity": 79}, {"time": 1444, "pitch": 65, "duration": 4, "velocity": 81}, {"time": 1444, "pitch": 69, "duration": 4, "velocity": 69}, {"time": 1468, "pitch": 41, "duration": 2, "velocity": 46}, {"time": 1468, "pitch": 48, "duration": 2, "velocity": 63}, {"time": 1468, "pitch": 53, "duration": 2, "velocity": 69}, {"time": 1468, "pitch": 60, "duration": 3, "velocity": 77}, {"time": 1468, "pitch": 65, "duration": 2, "velocity": 79}, {"time": 1468, "pitch": 69, "duration": 3, "velocity": 72}, {"time": 1480, "pitch": 36, "duration": 3, "velocity": 63}, {"time": 1480, "pitch": 43, "duration": 3, "velocity": 70}, {"time": 1480, "pitch": 48, "duration": 4, "velocity": 85}, {"time": 1480, "pitch": 60, "duration": 3, "velocity": 78}, {"time": 1480, "pitch": 64, "duration": 3, "velocity": 81}, {"time": 1480, "pitch": 67, "duration": 4, "velocity": 78}, {"time": 1492, "pitch": 41, "duration": 2, "velocity": 42}, {"time": 1492, "pitch": 48, "duration": 2, "velocity": 72}, {"time": 1492, "pitch": 53, "duration": 2, "velocity": 85}, {"time": 1492, "pitch": 60, "duration": 2, "velocity": 76}, {"time": 1492, "pitch": 65, "duration": 2, "velocity": 82}, {"time": 1492, "pitch": 69, "duration": 2, "velocity": 72}, {"time": 1498, "pitch": 41, "duration": 1, "velocity": 44}, {"time": 1498, "pitch": 48, "duration": 2, "velocity": 73}, {"time": 1498, "pitch": 53, "duration": 2, "velocity": 82}, {"time": 1498, "pitch": 60, "duration": 2, "velocity": 76}, {"time": 1498, "pitch": 65, "duration": 2, "velocity": 73}, {"time": 1498, "pitch": 69, "duration": 2, "velocity": 63}, {"time": 1504, "pitch": 41, "duration": 3, "velocity": 66}, {"time": 1504, "pitch": 48, "duration": 3, "velocity": 89}, {"time": 1504, "pitch": 53, "duration": 3, "velocity": 93}, {"time": 1504, "pitch": 60, "duration": 3, "velocity": 88}, {"time": 1504, "pitch": 65, "duration": 3, "velocity": 90}, {"time": 1504, "pitch": 69, "duration": 3, "velocity": 81}, {"time": 1516, "pitch": 41, "duration": 19, "velocity": 92}, {"time": 1522, "pitch": 48, "duration": 14, "velocity": 79}, {"time": 1528, "pitch": 53, "duration": 5, "velocity": 93}, {"time": 1528, "pitch": 65, "duration": 11, "velocity": 76}, {"time": 1528, "pitch": 69, "duration": 12, "velocity": 90}, {"time": 1534, "pitch": 60, "duration": 8, "velocity": 85}, {"time": 1540, "pitch": 38, "duration": 14, "velocity": 77}, {"time": 1546, "pitch": 45, "duration": 8, "velocity": 58}, {"time": 1552, "pitch": 50, "duration": 9, "velocity": 79}, {"time": 1552, "pitch": 62, "duration": 10, "velocity": 93}, {"time": 1552, "pitch": 65, "duration": 10, "velocity": 85}, {"time": 1558, "pitch": 57, "duration": 7, "velocity": 78}, {"time": 1564, "pitch": 46, "duration": 9, "velocity": 93}, {"time": 1570, "pitch": 50, "duration": 8, "velocity": 38}, {"time": 1576, "pitch": 46, "duration": 3, "velocity": 29}, {"time": 1576, "pitch": 53, "duration": 3, "velocity": 86}, {"time": 1576, "pitch": 58, "duration": 15, "velocity": 95}, {"time": 1576, "pitch": 62, "duration": 15, "velocity": 77}, {"time": 1576, "pitch": 65, "duration": 15, "velocity": 72}, {"time": 1588, "pitch": 36, "duration": 9, "velocity": 52}, {"time": 1594, "pitch": 43, "duration": 10, "velocity": 74}, {"time": 1600, "pitch": 48, "duration": 9, "velocity": 89}, {"time": 1600, "pitch": 60, "duration": 11, "velocity": 85}, {"time": 1600, "pitch": 64, "duration": 11, "velocity": 85}, {"time": 1606, "pitch": 55, "duration": 4, "velocity": 85}, {"time": 1612, "pitch": 45, "duration": 14, "velocity": 72}, {"time": 1618, "pitch": 52, "duration": 8, "velocity": 61}, {"time": 1624, "pitch": 60, "duration": 12, "velocity": 90}, {"time": 1624, "pitch": 64, "duration": 13, "velocity": 86}, {"time": 1630, "pitch": 57, "duration": 9, "velocity": 88}, {"time": 1636, "pitch": 38, "duration": 15, "velocity": 70}, {"time": 1642, "pitch": 45, "duration": 8, "velocity": 43}, {"time": 1648, "pitch": 50, "duration": 12, "velocity": 50}, {"time": 1648, "pitch": 62, "duration": 7, "velocity": 90}, {"time": 1648, "pitch": 65, "duration": 8, "velocity": 90}, {"time": 1654, "pitch": 57, "duration": 6, "velocity": 69}, {"time": 1660, "pitch": 43, "duration": 15, "velocity": 77}, {"time": 1666, "pitch": 50, "duration": 6, "velocity": 46}, {"time": 1672, "pitch": 58, "duration": 10, "velocity": 107}, {"time": 1672, "pitch": 62, "duration": 11, "velocity": 90}, {"time": 1678, "pitch": 55, "duration": 9, "velocity": 82}, {"time": 1684, "pitch": 36, "duration": 17, "velocity": 69}, {"time": 1690, "pitch": 43, "duration": 12, "velocity": 69}, {"time": 1696, "pitch": 48, "duration": 11, "velocity": 90}, {"time": 1696, "pitch": 60, "duration": 11, "velocity": 79}, {"time": 1696, "pitch": 64, "duration": 8, "velocity": 59}, {"time": 1696, "pitch": 64, "duration": 8, "velocity": 82}, {"time": 1702, "pitch": 55, "duration": 7, "velocity": 92}, {"time": 1708, "pitch": 41, "duration": 19, "velocity": 90}, {"time": 1714, "pitch": 48, "duration": 14, "velocity": 72}, {"time": 1720, "pitch": 53, "duration": 5, "velocity": 77}, {"time": 1720, "pitch": 65, "duration": 9, "velocity": 90}, {"time": 1720, "pitch": 69, "duration": 9, "velocity": 90}, {"time": 1726, "pitch": 60, "duration": 5, "velocity": 89}, {"time": 1732, "pitch": 46, "duration": 7, "velocity": 112}, {"time": 1738, "pitch": 50, "duration": 17, "velocity": 66}, {"time": 1744, "pitch": 58, "duration": 9, "velocity": 102}, {"time": 1744, "pitch": 62, "duration": 11, "velocity": 88}, {"time": 1744, "pitch": 65, "duration": 12, "velocity": 88}, {"time": 1756, "pitch": 45, "duration": 15, "velocity": 72}, {"time": 1756, "pitch": 58, "duration": 4, "velocity": 86}, {"time": 1762, "pitch": 52, "duration": 8, "velocity": 90}, {"time": 1768, "pitch": 60, "duration": 11, "velocity": 89}, {"time": 1768, "pitch": 64, "duration": 11, "velocity": 85}, {"time": 1774, "pitch": 57, "duration": 6, "velocity": 93}, {"time": 1780, "pitch": 38, "duration": 8, "velocity": 74}, {"time": 1786, "pitch": 45, "duration": 6, "velocity": 92}, {"time": 1792, "pitch": 50, "duration": 8, "velocity": 89}, {"time": 1792, "pitch": 62, "duration": 10, "velocity": 88}, {"time": 1792, "pitch": 65, "duration": 10, "velocity": 79}, {"time": 1798, "pitch": 57, "duration": 5, "velocity": 85}, {"time": 1804, "pitch": 50, "duration": 6, "velocity": 117}, {"time": 1804, "pitch": 62, "duration": 6, "velocity": 117}, {"time": 1813, "pitch": 53, "duration": 3, "velocity": 88}, {"time": 1813, "pitch": 65, "duration": 3, "velocity": 88}, {"time": 1816, "pitch": 45, "duration": 3, "velocity": 93}, {"time": 1816, "pitch": 57, "duration": 3, "velocity": 93}, {"time": 1822, "pitch": 48, "duration": 2, "velocity": 99}, {"time": 1822, "pitch": 60, "duration": 2, "velocity": 99}, {"time": 1828, "pitch": 50, "duration": 2, "velocity": 107}, {"time": 1828, "pitch": 62, "duration": 2, "velocity": 107}, {"time": 1834, "pitch": 48, "duration": 3, "velocity": 88}, {"time": 1834, "pitch": 60, "duration": 3, "velocity": 88}, {"time": 1840, "pitch": 50, "duration": 3, "velocity": 100}, {"time": 1840, "pitch": 62, "duration": 3, "velocity": 100}, {"time": 1852, "pitch": 50, "duration": 6, "velocity": 102}, {"time": 1852, "pitch": 62, "duration": 6, "velocity": 102}, {"time": 1861, "pitch": 53, "duration": 2, "velocity": 85}, {"time": 1861, "pitch": 65, "duration": 2, "velocity": 85}, {"time": 1864, "pitch": 45, "duration": 3, "velocity": 107}, {"time": 1864, "pitch": 57, "duration": 3, "velocity": 107}, {"time": 1870, "pitch": 48, "duration": 2, "velocity": 112}, {"time": 1870, "pitch": 60, "duration": 2, "velocity": 112}, {"time": 1876, "pitch": 50, "duration": 4, "velocity": 127}, {"time": 1876, "pitch": 62, "duration": 4, "velocity": 127}, {"time": 1900, "pitch": 38, "duration": 14, "velocity": 92}, {"time": 1906, "pitch": 57, "duration": 24, "velocity": 38}, {"time": 1912, "pitch": 62, "duration": 16, "velocity": 79}, {"time": 1912, "pitch": 65, "duration": 15, "velocity": 85}, {"time": 1918, "pitch": 38, "duration": 2, "velocity": 70}, {"time": 1924, "pitch": 38, "duration": 10, "velocity": 69}, {"time": 1930, "pitch": 62, "duration": 16, "velocity": 73}, {"time": 1930, "pitch": 65, "duration": 16, "velocity": 74}, {"time": 1942, "pitch": 57, "duration": 13, "velocity": 85}, {"time": 1948, "pitch": 43, "duration": 15, "velocity": 77}, {"time": 1954, "pitch": 50, "duration": 11, "velocity": 78}, {"time": 1960, "pitch": 59, "duration": 19, "velocity": 75}, {"time": 1960, "pitch": 62, "duration": 21, "velocity": 75}, {"time": 1966, "pitch": 43, "duration": 2, "velocity": 72}, {"time": 1972, "pitch": 43, "duration": 12, "velocity": 82}, {"time": 1978, "pitch": 55, "duration": 65, "velocity": 74}, {"time": 1984, "pitch": 59, "duration": 11, "velocity": 79}, {"time": 1990, "pitch": 62, "duration": 5, "velocity": 79}, {"time": 1996, "pitch": 36, "duration": 14, "velocity": 83}, {"time": 2002, "pitch": 43, "duration": 9, "velocity": 47}, {"time": 2008, "pitch": 64, "duration": 16, "velocity": 88}, {"time": 2014, "pitch": 36, "duration": 2, "velocity": 75}, {"time": 2020, "pitch": 36, "duration": 12, "velocity": 65}, {"time": 2026, "pitch": 60, "duration": 7, "velocity": 68}, {"time": 2032, "pitch": 64, "duration": 12, "velocity": 88}, {"time": 2038, "pitch": 60, "duration": 6, "velocity": 71}, {"time": 2044, "pitch": 50, "duration": 3, "velocity": 112}, {"time": 2044, "pitch": 57, "duration": 8, "velocity": 90}, {"time": 2044, "pitch": 62, "duration": 8, "velocity": 89}, {"time": 2044, "pitch": 65, "duration": 8, "velocity": 83}, {"time": 2068, "pitch": 48, "duration": 2, "velocity": 99}, {"time": 2068, "pitch": 55, "duration": 2, "velocity": 85}, {"time": 2068, "pitch": 60, "duration": 2, "velocity": 88}, {"time": 2068, "pitch": 64, "duration": 2, "velocity": 78}, {"time": 2074, "pitch": 48, "duration": 2, "velocity": 82}, {"time": 2074, "pitch": 55, "duration": 2, "velocity": 73}, {"time": 2074, "pitch": 60, "duration": 2, "velocity": 81}, {"time": 2074, "pitch": 64, "duration": 2, "velocity": 70}, {"time": 2080, "pitch": 48, "duration": 2, "velocity": 102}, {"time": 2080, "pitch": 55, "duration": 2, "velocity": 78}, {"time": 2080, "pitch": 60, "duration": 2, "velocity": 89}, {"time": 2080, "pitch": 64, "duration": 2, "velocity": 75}, {"time": 2092, "pitch": 50, "duration": 8, "velocity": 93}, {"time": 2092, "pitch": 57, "duration": 8, "velocity": 86}, {"time": 2092, "pitch": 62, "duration": 8, "velocity": 90}, {"time": 2092, "pitch": 65, "duration": 8, "velocity": 83}, {"time": 2116, "pitch": 48, "duration": 2, "velocity": 102}, {"time": 2116, "pitch": 55, "duration": 1, "velocity": 78}, {"time": 2116, "pitch": 60, "duration": 1, "velocity": 70}, {"time": 2116, "pitch": 64, "duration": 1, "velocity": 65}, {"time": 2128, "pitch": 48, "duration": 2, "velocity": 102}, {"time": 2128, "pitch": 55, "duration": 3, "velocity": 79}, {"time": 2128, "pitch": 60, "duration": 3, "velocity": 93}, {"time": 2128, "pitch": 64, "duration": 3, "velocity": 85}, {"time": 2140, "pitch": 41, "duration": 13, "velocity": 88}, {"time": 2152, "pitch": 60, "duration": 12, "velocity": 88}, {"time": 2152, "pitch": 65, "duration": 12, "velocity": 89}, {"time": 2152, "pitch": 69, "duration": 14, "velocity": 81}, {"time": 2158, "pitch": 41, "duration": 2, "velocity": 58}, {"time": 2158, "pitch": 53, "duration": 2, "velocity": 73}, {"time": 2164, "pitch": 41, "duration": 17, "velocity": 75}, {"time": 2164, "pitch": 53, "duration": 18, "velocity": 82}, {"time": 2176, "pitch": 60, "duration": 7, "velocity": 86}, {"time": 2176, "pitch": 65, "duration": 8, "velocity": 92}, {"time": 2176, "pitch": 69, "duration": 8, "velocity": 82}, {"time": 2188, "pitch": 41, "duration": 14, "velocity": 77}, {"time": 2200, "pitch": 60, "duration": 6, "velocity": 79}, {"time": 2200, "pitch": 65, "duration": 7, "velocity": 89}, {"time": 2200, "pitch": 69, "duration": 8, "velocity": 82}, {"time": 2206, "pitch": 41, "duration": 3, "velocity": 75}, {"time": 2212, "pitch": 36, "duration": 19, "velocity": 69}, {"time": 2224, "pitch": 60, "duration": 8, "velocity": 75}, {"time": 2224, "pitch": 64, "duration": 8, "velocity": 90}, {"time": 2224, "pitch": 67, "duration": 9, "velocity": 86}, {"time": 2236, "pitch": 38, "duration": 14, "velocity": 78}, {"time": 2248, "pitch": 57, "duration": 2, "velocity": 83}, {"time": 2248, "pitch": 62, "duration": 3, "velocity": 93}, {"time": 2248, "pitch": 65, "duration": 3, "velocity": 86}, {"time": 2254, "pitch": 38, "duration": 2, "velocity": 55}, {"time": 2254, "pitch": 50, "duration": 1, "velocity": 66}, {"time": 2260, "pitch": 38, "duration": 12, "velocity": 66}, {"time": 2260, "pitch": 50, "duration": 16, "velocity": 85}, {"time": 2272, "pitch": 57, "duration": 5, "velocity": 77}, {"time": 2272, "pitch": 62, "duration": 5, "velocity": 85}, {"time": 2272, "pitch": 65, "duration": 6, "velocity": 77}, {"time": 2284, "pitch": 36, "duration": 14, "velocity": 82}, {"time": 2296, "pitch": 55, "duration": 4, "velocity": 83}, {"time": 2296, "pitch": 60, "duration": 3, "velocity": 90}, {"time": 2296, "pitch": 64, "duration": 4, "velocity": 83}, {"time": 2302, "pitch": 36, "duration": 6, "velocity": 83}, {"time": 2308, "pitch": 41, "duration": 12, "velocity": 76}, {"time": 2320, "pitch": 60, "duration": 6, "velocity": 89}, {"time": 2320, "pitch": 65, "duration": 6, "velocity": 90}, {"time": 2320, "pitch": 69, "duration": 7, "velocity": 83}, {"time": 2332, "pitch": 36, "duration": 7, "velocity": 70}, {"time": 2332, "pitch": 48, "duration": 7, "velocity": 93}, {"time": 2332, "pitch": 60, "duration": 6, "velocity": 83}, {"time": 2332, "pitch": 64, "duration": 6, "velocity": 83}, {"time": 2332, "pitch": 67, "duration": 6, "velocity": 82}, {"time": 2427, "pitch": 41, "duration": 17, "velocity": 79}, {"time": 2433, "pitch": 48, "duration": 11, "velocity": 73}, {"time": 2438, "pitch": 69, "duration": 8, "velocity": 100}, {"time": 2445, "pitch": 60, "duration": 9, "velocity": 96}, {"time": 2451, "pitch": 36, "duration": 15, "velocity": 79}, {"time": 2457, "pitch": 43, "duration": 9, "velocity": 74}, {"time": 2462, "pitch": 64, "duration": 10, "velocity": 93}, {"time": 2463, "pitch": 48, "duration": 8, "velocity": 59}, {"time": 2469, "pitch": 55, "duration": 5, "velocity": 95}, {"time": 2475, "pitch": 46, "duration": 10, "velocity": 112}, {"time": 2481, "pitch": 58, "duration": 8, "velocity": 100}, {"time": 2486, "pitch": 48, "duration": 13, "velocity": 75}, {"time": 2493, "pitch": 60, "duration": 6, "velocity": 93}, {"time": 2499, "pitch": 41, "duration": 23, "velocity": 82}, {"time": 2505, "pitch": 48, "duration": 16, "velocity": 90}, {"time": 2511, "pitch": 53, "duration": 11, "velocity": 89}, {"time": 2517, "pitch": 60, "duration": 5, "velocity": 92}, {"time": 2524, "pitch": 41, "duration": 15, "velocity": 85}, {"time": 2530, "pitch": 60, "duration": 17, "velocity": 72}, {"time": 2536, "pitch": 69, "duration": 9, "velocity": 96}, {"time": 2542, "pitch": 65, "duration": 4, "velocity": 71}, {"time": 2548, "pitch": 36, "duration": 12, "velocity": 75}, {"time": 2554, "pitch": 55, "duration": 16, "velocity": 68}, {"time": 2560, "pitch": 64, "duration": 8, "velocity": 100}, {"time": 2566, "pitch": 60, "duration": 4, "velocity": 69}, {"time": 2572, "pitch": 46, "duration": 10, "velocity": 102}, {"time": 2578, "pitch": 53, "duration": 5, "velocity": 70}, {"time": 2584, "pitch": 48, "duration": 11, "velocity": 89}, {"time": 2590, "pitch": 55, "duration": 6, "velocity": 76}, {"time": 2596, "pitch": 41, "duration": 23, "velocity": 76}, {"time": 2602, "pitch": 48, "duration": 15, "velocity": 96}, {"time": 2608, "pitch": 53, "duration": 11, "velocity": 76}, {"time": 2614, "pitch": 57, "duration": 5, "velocity": 71}, {"time": 2614, "pitch": 60, "duration": 6, "velocity": 88}, {"time": 2619, "pitch": 60, "duration": 1, "velocity": 79}, {"time": 2619, "pitch": 57, "duration": 1, "velocity": 79}, {"time": 2619, "pitch": 53, "duration": 21, "velocity": 81}, {"time": 2619, "pitch": 41, "duration": 24, "velocity": 66}, {"time": 2644, "pitch": 55, "duration": 20, "velocity": 67}, {"time": 2644, "pitch": 60, "duration": 20, "velocity": 68}, {"time": 2644, "pitch": 64, "duration": 18, "velocity": 71}, {"time": 2644, "pitch": 48, "duration": 22, "velocity": 71}, {"time": 2671, "pitch": 58, "duration": 25, "velocity": 83}, {"time": 2671, "pitch": 46, "duration": 27, "velocity": 63}, {"time": 2671, "pitch": 53, "duration": 21, "velocity": 79}, {"time": 2671, "pitch": 62, "duration": 21, "velocity": 78}, {"time": 2697, "pitch": 48, "duration": 32, "velocity": 66}, {"time": 2697, "pitch": 60, "duration": 33, "velocity": 63}, {"time": 2698, "pitch": 55, "duration": 32, "velocity": 61}, {"time": 2698, "pitch": 64, "duration": 32, "velocity": 70}, {"time": 2737, "pitch": 60, "duration": 7, "velocity": 86}, {"time": 2737, "pitch": 53, "duration": 5, "velocity": 85}, {"time": 2737, "pitch": 41, "duration": 7, "velocity": 76}, {"time": 2737, "pitch": 57, "duration": 5, "velocity": 88}, {"time": 2748, "pitch": 41, "duration": 6, "velocity": 85}, {"time": 2748, "pitch": 53, "duration": 6, "velocity": 81}, {"time": 2748, "pitch": 60, "duration": 5, "velocity": 88}, {"time": 2748, "pitch": 57, "duration": 5, "velocity": 86}, {"time": 2760, "pitch": 46, "duration": 7, "velocity": 99}, {"time": 2760, "pitch": 58, "duration": 7, "velocity": 95}, {"time": 2760, "pitch": 53, "duration": 6, "velocity": 88}, {"time": 2760, "pitch": 62, "duration": 7, "velocity": 92}, {"time": 2771, "pitch": 58, "duration": 10, "velocity": 95}, {"time": 2772, "pitch": 53, "duration": 9, "velocity": 76}, {"time": 2772, "pitch": 62, "duration": 9, "velocity": 83}, {"time": 2772, "pitch": 46, "duration": 10, "velocity": 117}, {"time": 2791, "pitch": 48, "duration": 40, "velocity": 59}, {"time": 2791, "pitch": 57, "duration": 40, "velocity": 81}, {"time": 2791, "pitch": 60, "duration": 41, "velocity": 85}, {"time": 2791, "pitch": 53, "duration": 40, "velocity": 85}, {"time": 2791, "pitch": 41, "duration": 41, "velocity": 45}], "annotations": [{"time": 484, "annotation": {"number": 64, "value": 127}, "group": "control_change"}, {"time": 501, "annotation": {"number": 64, "value": 0}, "group": "control_change"}, {"time": 1684, "annotation": {"number": 64, "value": 127}, "group": "control_change"}, {"time": 1701, "annotation": {"number": 64, "value": 0}, "group": "control_change"}, {"time": 2816, "annotation": {"number": 64, "value": 127}, "group": "control_change"}, {"time": 2860, "annotation": {"number": 64, "value": 0}, "group": "control_change"}, {"time": 2861, "annotation": {"number": 64, "value": 127}, "group": "control_change"}, {"time": 2863, "annotation": {"number": 64, "value": 0}, "group": "control_change"}, {"time": 2864, "annotation": {"number": 64, "value": 127}, "group": "control_change"}, {"time": 2866, "annotation": {"number": 64, "value": 0}, "group": "control_change"}, {"time": 2868, "annotation": {"number": 64, "value": 127}, "group": "control_change"}, {"time": 2869, "annotation": {"number": 64, "value": 0}, "group": "control_change"}]}]}