{"metadata": {"schema_version": "0.2", "title": "None", "source_filename": "798.mid", "source_format": "midi"}, "resolution": 12, "tempos": [{"time": 0, "qpm": 84.93999697047344}], "key_signatures": [{"time": 0, "root": 0, "mode": "major"}], "time_signatures": [{"time": 0, "numerator": 4, "denominator": 4}, {"time": 0, "numerator": 1, "denominator": 4}], "tracks": [{"program": 0, "is_drum": false, "name": "MELODY", "notes": [{"time": 423, "pitch": 57, "duration": 3, "velocity": 97}, {"time": 429, "pitch": 57, "duration": 3, "velocity": 99}, {"time": 432, "pitch": 60, "duration": 4, "velocity": 93}, {"time": 435, "pitch": 62, "duration": 4, "velocity": 99}, {"time": 441, "pitch": 64, "duration": 2, "velocity": 95}, {"time": 447, "pitch": 64, "duration": 11, "velocity": 112}, {"time": 459, "pitch": 62, "duration": 6, "velocity": 99}, {"time": 471, "pitch": 57, "duration": 2, "velocity": 99}, {"time": 477, "pitch": 57, "duration": 2, "velocity": 99}, {"time": 480, "pitch": 60, "duration": 3, "velocity": 82}, {"time": 483, "pitch": 62, "duration": 2, "velocity": 96}, {"time": 489, "pitch": 64, "duration": 2, "velocity": 99}, {"time": 495, "pitch": 64, "duration": 9, "velocity": 107}, {"time": 519, "pitch": 57, "duration": 2, "velocity": 92}, {"time": 525, "pitch": 57, "duration": 2, "velocity": 99}, {"time": 528, "pitch": 60, "duration": 2, "velocity": 93}, {"time": 531, "pitch": 62, "duration": 2, "velocity": 99}, {"time": 537, "pitch": 64, "duration": 2, "velocity": 102}, {"time": 543, "pitch": 64, "duration": 10, "velocity": 117}, {"time": 555, "pitch": 62, "duration": 4, "velocity": 112}, {"time": 567, "pitch": 67, "duration": 3, "velocity": 96}, {"time": 573, "pitch": 60, "duration": 3, "velocity": 97}, {"time": 576, "pitch": 62, "duration": 3, "velocity": 92}, {"time": 579, "pitch": 60, "duration": 4, "velocity": 97}, {"time": 585, "pitch": 60, "duration": 3, "velocity": 102}, {"time": 588, "pitch": 59, "duration": 2, "velocity": 90}, {"time": 591, "pitch": 57, "duration": 14, "velocity": 97}, {"time": 615, "pitch": 69, "duration": 2, "velocity": 112}, {"time": 621, "pitch": 64, "duration": 1, "velocity": 99}, {"time": 624, "pitch": 64, "duration": 1, "velocity": 83}, {"time": 627, "pitch": 69, "duration": 2, "velocity": 100}, {"time": 633, "pitch": 64, "duration": 2, "velocity": 112}, {"time": 639, "pitch": 69, "duration": 10, "velocity": 112}, {"time": 651, "pitch": 64, "duration": 3, "velocity": 112}, {"time": 657, "pitch": 69, "duration": 3, "velocity": 117}, {"time": 663, "pitch": 67, "duration": 4, "velocity": 99}, {"time": 669, "pitch": 64, "duration": 2, "velocity": 112}, {"time": 672, "pitch": 62, "duration": 3, "velocity": 99}, {"time": 675, "pitch": 60, "duration": 2, "velocity": 93}, {"time": 681, "pitch": 67, "duration": 2, "velocity": 100}, {"time": 687, "pitch": 64, "duration": 10, "velocity": 102}, {"time": 711, "pitch": 57, "duration": 3, "velocity": 96}, {"time": 717, "pitch": 57, "duration": 2, "velocity": 100}, {"time": 720, "pitch": 60, "duration": 3, "velocity": 86}, {"time": 723, "pitch": 62, "duration": 3, "velocity": 99}, {"time": 729, "pitch": 64, "duration": 1, "velocity": 96}, {"time": 732, "pitch": 64, "duration": 1, "velocity": 95}, {"time": 735, "pitch": 64, "duration": 6, "velocity": 107}, {"time": 741, "pitch": 62, "duration": 1, "velocity": 112}, {"time": 747, "pitch": 62, "duration": 3, "velocity": 102}, {"time": 759, "pitch": 64, "duration": 3, "velocity": 99}, {"time": 765, "pitch": 60, "duration": 2, "velocity": 97}, {"time": 768, "pitch": 62, "duration": 3, "velocity": 78}, {"time": 771, "pitch": 60, "duration": 5, "velocity": 93}, {"time": 777, "pitch": 59, "duration": 5, "velocity": 88}, {"time": 783, "pitch": 57, "duration": 15, "velocity": 92}, {"time": 807, "pitch": 57, "duration": 2, "velocity": 95}, {"time": 813, "pitch": 57, "duration": 2, "velocity": 93}, {"time": 816, "pitch": 60, "duration": 2, "velocity": 82}, {"time": 819, "pitch": 62, "duration": 2, "velocity": 93}, {"time": 825, "pitch": 64, "duration": 1, "velocity": 97}, {"time": 831, "pitch": 64, "duration": 8, "velocity": 102}, {"time": 843, "pitch": 62, "duration": 8, "velocity": 112}, {"time": 855, "pitch": 57, "duration": 2, "velocity": 99}, {"time": 861, "pitch": 57, "duration": 2, "velocity": 100}, {"time": 864, "pitch": 60, "duration": 2, "velocity": 79}, {"time": 867, "pitch": 62, "duration": 4, "velocity": 107}, {"time": 873, "pitch": 64, "duration": 2, "velocity": 99}, {"time": 879, "pitch": 64, "duration": 10, "velocity": 107}, {"time": 903, "pitch": 57, "duration": 2, "velocity": 99}, {"time": 909, "pitch": 57, "duration": 2, "velocity": 97}, {"time": 912, "pitch": 60, "duration": 2, "velocity": 89}, {"time": 915, "pitch": 62, "duration": 2, "velocity": 100}, {"time": 921, "pitch": 64, "duration": 2, "velocity": 99}, {"time": 927, "pitch": 64, "duration": 10, "velocity": 97}, {"time": 939, "pitch": 62, "duration": 5, "velocity": 100}, {"time": 951, "pitch": 64, "duration": 3, "velocity": 107}, {"time": 957, "pitch": 60, "duration": 2, "velocity": 99}, {"time": 960, "pitch": 62, "duration": 3, "velocity": 89}, {"time": 963, "pitch": 60, "duration": 5, "velocity": 93}, {"time": 969, "pitch": 60, "duration": 2, "velocity": 100}, {"time": 972, "pitch": 59, "duration": 2, "velocity": 93}, {"time": 975, "pitch": 57, "duration": 21, "velocity": 95}, {"time": 999, "pitch": 69, "duration": 2, "velocity": 112}, {"time": 1005, "pitch": 64, "duration": 1, "velocity": 99}, {"time": 1008, "pitch": 64, "duration": 1, "velocity": 83}, {"time": 1011, "pitch": 69, "duration": 2, "velocity": 100}, {"time": 1017, "pitch": 64, "duration": 2, "velocity": 112}, {"time": 1023, "pitch": 69, "duration": 8, "velocity": 99}, {"time": 1032, "pitch": 67, "duration": 3, "velocity": 96}, {"time": 1035, "pitch": 64, "duration": 3, "velocity": 112}, {"time": 1041, "pitch": 69, "duration": 3, "velocity": 117}, {"time": 1047, "pitch": 67, "duration": 4, "velocity": 99}, {"time": 1053, "pitch": 64, "duration": 2, "velocity": 112}, {"time": 1056, "pitch": 62, "duration": 3, "velocity": 99}, {"time": 1059, "pitch": 60, "duration": 2, "velocity": 93}, {"time": 1065, "pitch": 67, "duration": 6, "velocity": 96}, {"time": 1071, "pitch": 64, "duration": 3, "velocity": 102}, {"time": 1073, "pitch": 67, "duration": 3, "velocity": 102}, {"time": 1076, "pitch": 64, "duration": 11, "velocity": 102}, {"time": 1095, "pitch": 57, "duration": 3, "velocity": 96}, {"time": 1101, "pitch": 57, "duration": 2, "velocity": 100}, {"time": 1104, "pitch": 60, "duration": 3, "velocity": 86}, {"time": 1107, "pitch": 62, "duration": 3, "velocity": 99}, {"time": 1113, "pitch": 64, "duration": 1, "velocity": 96}, {"time": 1116, "pitch": 64, "duration": 1, "velocity": 95}, {"time": 1119, "pitch": 64, "duration": 8, "velocity": 112}, {"time": 1131, "pitch": 62, "duration": 3, "velocity": 102}, {"time": 1143, "pitch": 64, "duration": 3, "velocity": 99}, {"time": 1149, "pitch": 60, "duration": 2, "velocity": 97}, {"time": 1152, "pitch": 62, "duration": 3, "velocity": 78}, {"time": 1155, "pitch": 60, "duration": 5, "velocity": 93}, {"time": 1161, "pitch": 59, "duration": 5, "velocity": 88}, {"time": 1167, "pitch": 57, "duration": 15, "velocity": 92}, {"time": 1767, "pitch": 57, "duration": 3, "velocity": 97}, {"time": 1773, "pitch": 57, "duration": 3, "velocity": 99}, {"time": 1776, "pitch": 60, "duration": 4, "velocity": 93}, {"time": 1779, "pitch": 62, "duration": 4, "velocity": 99}, {"time": 1785, "pitch": 64, "duration": 2, "velocity": 95}, {"time": 1791, "pitch": 64, "duration": 11, "velocity": 112}, {"time": 1803, "pitch": 62, "duration": 6, "velocity": 99}, {"time": 1815, "pitch": 57, "duration": 2, "velocity": 99}, {"time": 1821, "pitch": 57, "duration": 2, "velocity": 99}, {"time": 1824, "pitch": 60, "duration": 3, "velocity": 82}, {"time": 1827, "pitch": 62, "duration": 2, "velocity": 96}, {"time": 1833, "pitch": 64, "duration": 2, "velocity": 99}, {"time": 1839, "pitch": 64, "duration": 9, "velocity": 107}, {"time": 1863, "pitch": 57, "duration": 2, "velocity": 92}, {"time": 1869, "pitch": 57, "duration": 2, "velocity": 99}, {"time": 1872, "pitch": 60, "duration": 2, "velocity": 93}, {"time": 1875, "pitch": 62, "duration": 2, "velocity": 99}, {"time": 1881, "pitch": 64, "duration": 2, "velocity": 102}, {"time": 1887, "pitch": 64, "duration": 6, "velocity": 102}, {"time": 1893, "pitch": 62, "duration": 4, "velocity": 97}, {"time": 1899, "pitch": 62, "duration": 4, "velocity": 112}, {"time": 1911, "pitch": 64, "duration": 3, "velocity": 96}, {"time": 1917, "pitch": 60, "duration": 3, "velocity": 97}, {"time": 1920, "pitch": 62, "duration": 3, "velocity": 92}, {"time": 1923, "pitch": 60, "duration": 4, "velocity": 97}, {"time": 1929, "pitch": 60, "duration": 3, "velocity": 117}, {"time": 1932, "pitch": 59, "duration": 3, "velocity": 102}, {"time": 1935, "pitch": 57, "duration": 14, "velocity": 97}, {"time": 1959, "pitch": 69, "duration": 2, "velocity": 112}, {"time": 1965, "pitch": 64, "duration": 1, "velocity": 99}, {"time": 1968, "pitch": 64, "duration": 1, "velocity": 83}, {"time": 1971, "pitch": 69, "duration": 2, "velocity": 100}, {"time": 1977, "pitch": 64, "duration": 2, "velocity": 112}, {"time": 1983, "pitch": 69, "duration": 10, "velocity": 112}, {"time": 1995, "pitch": 64, "duration": 3, "velocity": 112}, {"time": 2001, "pitch": 69, "duration": 3, "velocity": 117}, {"time": 2007, "pitch": 67, "duration": 4, "velocity": 99}, {"time": 2013, "pitch": 64, "duration": 2, "velocity": 112}, {"time": 2016, "pitch": 62, "duration": 3, "velocity": 99}, {"time": 2019, "pitch": 60, "duration": 2, "velocity": 93}, {"time": 2025, "pitch": 67, "duration": 2, "velocity": 100}, {"time": 2031, "pitch": 64, "duration": 3, "velocity": 102}, {"time": 2033, "pitch": 67, "duration": 3, "velocity": 102}, {"time": 2036, "pitch": 64, "duration": 16, "velocity": 102}, {"time": 2055, "pitch": 57, "duration": 3, "velocity": 96}, {"time": 2061, "pitch": 57, "duration": 2, "velocity": 100}, {"time": 2064, "pitch": 60, "duration": 3, "velocity": 86}, {"time": 2067, "pitch": 62, "duration": 3, "velocity": 99}, {"time": 2073, "pitch": 64, "duration": 1, "velocity": 96}, {"time": 2076, "pitch": 64, "duration": 1, "velocity": 95}, {"time": 2079, "pitch": 64, "duration": 6, "velocity": 102}, {"time": 2085, "pitch": 62, "duration": 2, "velocity": 95}, {"time": 2091, "pitch": 62, "duration": 3, "velocity": 102}, {"time": 2103, "pitch": 64, "duration": 3, "velocity": 99}, {"time": 2109, "pitch": 60, "duration": 2, "velocity": 97}, {"time": 2112, "pitch": 62, "duration": 3, "velocity": 78}, {"time": 2115, "pitch": 60, "duration": 5, "velocity": 93}, {"time": 2121, "pitch": 60, "duration": 3, "velocity": 107}, {"time": 2124, "pitch": 59, "duration": 2, "velocity": 86}, {"time": 2127, "pitch": 57, "duration": 15, "velocity": 92}, {"time": 2151, "pitch": 57, "duration": 2, "velocity": 95}, {"time": 2157, "pitch": 57, "duration": 2, "velocity": 93}, {"time": 2160, "pitch": 60, "duration": 2, "velocity": 82}, {"time": 2163, "pitch": 62, "duration": 2, "velocity": 93}, {"time": 2169, "pitch": 64, "duration": 1, "velocity": 97}, {"time": 2175, "pitch": 64, "duration": 8, "velocity": 102}, {"time": 2187, "pitch": 62, "duration": 8, "velocity": 112}, {"time": 2199, "pitch": 57, "duration": 2, "velocity": 99}, {"time": 2205, "pitch": 57, "duration": 2, "velocity": 100}, {"time": 2208, "pitch": 60, "duration": 2, "velocity": 79}, {"time": 2211, "pitch": 62, "duration": 4, "velocity": 107}, {"time": 2217, "pitch": 64, "duration": 2, "velocity": 99}, {"time": 2223, "pitch": 64, "duration": 10, "velocity": 107}, {"time": 2247, "pitch": 57, "duration": 2, "velocity": 99}, {"time": 2253, "pitch": 57, "duration": 2, "velocity": 97}, {"time": 2256, "pitch": 60, "duration": 2, "velocity": 89}, {"time": 2259, "pitch": 62, "duration": 2, "velocity": 100}, {"time": 2265, "pitch": 64, "duration": 2, "velocity": 99}, {"time": 2271, "pitch": 64, "duration": 6, "velocity": 117}, {"time": 2277, "pitch": 62, "duration": 4, "velocity": 99}, {"time": 2283, "pitch": 62, "duration": 5, "velocity": 100}, {"time": 2295, "pitch": 64, "duration": 3, "velocity": 107}, {"time": 2301, "pitch": 60, "duration": 2, "velocity": 99}, {"time": 2304, "pitch": 62, "duration": 3, "velocity": 89}, {"time": 2307, "pitch": 60, "duration": 5, "velocity": 93}, {"time": 2313, "pitch": 60, "duration": 3, "velocity": 97}, {"time": 2316, "pitch": 59, "duration": 3, "velocity": 93}, {"time": 2319, "pitch": 57, "duration": 21, "velocity": 95}, {"time": 2343, "pitch": 69, "duration": 2, "velocity": 112}, {"time": 2349, "pitch": 64, "duration": 1, "velocity": 99}, {"time": 2352, "pitch": 64, "duration": 1, "velocity": 83}, {"time": 2355, "pitch": 69, "duration": 2, "velocity": 100}, {"time": 2361, "pitch": 64, "duration": 2, "velocity": 112}, {"time": 2367, "pitch": 69, "duration": 10, "velocity": 112}, {"time": 2379, "pitch": 64, "duration": 3, "velocity": 112}, {"time": 2385, "pitch": 69, "duration": 3, "velocity": 117}, {"time": 2391, "pitch": 67, "duration": 4, "velocity": 99}, {"time": 2397, "pitch": 64, "duration": 2, "velocity": 112}, {"time": 2400, "pitch": 62, "duration": 3, "velocity": 99}, {"time": 2403, "pitch": 60, "duration": 2, "velocity": 93}, {"time": 2409, "pitch": 67, "duration": 5, "velocity": 99}, {"time": 2415, "pitch": 64, "duration": 3, "velocity": 102}, {"time": 2417, "pitch": 67, "duration": 4, "velocity": 102}, {"time": 2420, "pitch": 64, "duration": 13, "velocity": 102}, {"time": 2439, "pitch": 57, "duration": 3, "velocity": 96}, {"time": 2445, "pitch": 57, "duration": 2, "velocity": 100}, {"time": 2448, "pitch": 60, "duration": 3, "velocity": 86}, {"time": 2451, "pitch": 62, "duration": 3, "velocity": 99}, {"time": 2457, "pitch": 64, "duration": 1, "velocity": 96}, {"time": 2460, "pitch": 64, "duration": 1, "velocity": 95}, {"time": 2463, "pitch": 64, "duration": 7, "velocity": 92}, {"time": 2469, "pitch": 62, "duration": 2, "velocity": 96}, {"time": 2475, "pitch": 62, "duration": 3, "velocity": 102}, {"time": 2487, "pitch": 64, "duration": 3, "velocity": 99}, {"time": 2493, "pitch": 60, "duration": 2, "velocity": 97}, {"time": 2496, "pitch": 62, "duration": 3, "velocity": 78}, {"time": 2499, "pitch": 60, "duration": 5, "velocity": 93}, {"time": 2505, "pitch": 60, "duration": 3, "velocity": 102}, {"time": 2508, "pitch": 59, "duration": 2, "velocity": 86}, {"time": 2511, "pitch": 57, "duration": 15, "velocity": 92}], "annotations": [{"time": 0, "annotation": {"number": 7, "value": 101}, "group": "control_change"}, {"time": 2726, "annotation": {"number": 7, "value": 101}, "group": "control_change"}, {"time": 2729, "annotation": {"number": 7, "value": 100}, "group": "control_change"}, {"time": 2731, "annotation": {"number": 7, "value": 99}, "group": "control_change"}, {"time": 2734, "annotation": {"number": 7, "value": 98}, "group": "control_change"}, {"time": 2736, "annotation": {"number": 7, "value": 97}, "group": "control_change"}, {"time": 2739, "annotation": {"number": 7, "value": 95}, "group": "control_change"}, {"time": 2741, "annotation": {"number": 7, "value": 94}, "group": "control_change"}, {"time": 2744, "annotation": {"number": 7, "value": 93}, "group": "control_change"}, {"time": 2746, "annotation": {"number": 7, "value": 92}, "group": "control_change"}, {"time": 2749, "annotation": {"number": 7, "value": 91}, "group": "control_change"}, {"time": 2751, "annotation": {"number": 7, "value": 90}, "group": "control_change"}, {"time": 2754, "annotation": {"number": 7, "value": 89}, "group": "control_change"}, {"time": 2756, "annotation": {"number": 7, "value": 88}, "group": "control_change"}, {"time": 2759, "annotation": {"number": 7, "value": 86}, "group": "control_change"}, {"time": 2761, "annotation": {"number": 7, "value": 85}, "group": "control_change"}, {"time": 2764, "annotation": {"number": 7, "value": 84}, "group": "control_change"}, {"time": 2766, "annotation": {"number": 7, "value": 83}, "group": "control_change"}, {"time": 2769, "annotation": {"number": 7, "value": 82}, "group": "control_change"}, {"time": 2771, "annotation": {"number": 7, "value": 81}, "group": "control_change"}, {"time": 2774, "annotation": {"number": 7, "value": 80}, "group": "control_change"}, {"time": 2776, "annotation": {"number": 7, "value": 79}, "group": "control_change"}, {"time": 2779, "annotation": {"number": 7, "value": 78}, "group": "control_change"}, {"time": 2781, "annotation": {"number": 7, "value": 76}, "group": "control_change"}, {"time": 2784, "annotation": {"number": 7, "value": 75}, "group": "control_change"}, {"time": 2786, "annotation": {"number": 7, "value": 74}, "group": "control_change"}, {"time": 2789, "annotation": {"number": 7, "value": 73}, "group": "control_change"}, {"time": 2791, "annotation": {"number": 7, "value": 72}, "group": "control_change"}, {"time": 2794, "annotation": {"number": 7, "value": 71}, "group": "control_change"}, {"time": 2796, "annotation": {"number": 7, "value": 70}, "group": "control_change"}, {"time": 2799, "annotation": {"number": 7, "value": 69}, "group": "control_change"}, {"time": 2801, "annotation": {"number": 7, "value": 67}, "group": "control_change"}, {"time": 2804, "annotation": {"number": 7, "value": 66}, "group": "control_change"}, {"time": 2806, "annotation": {"number": 7, "value": 65}, "group": "control_change"}, {"time": 2809, "annotation": {"number": 7, "value": 64}, "group": "control_change"}, {"time": 2811, "annotation": {"number": 7, "value": 63}, "group": "control_change"}, {"time": 2814, "annotation": {"number": 7, "value": 62}, "group": "control_change"}, {"time": 2816, "annotation": {"number": 7, "value": 61}, "group": "control_change"}, {"time": 2819, "annotation": {"number": 7, "value": 60}, "group": "control_change"}, {"time": 2821, "annotation": {"number": 7, "value": 59}, "group": "control_change"}, {"time": 2824, "annotation": {"number": 7, "value": 57}, "group": "control_change"}, {"time": 2826, "annotation": {"number": 7, "value": 56}, "group": "control_change"}, {"time": 2829, "annotation": {"number": 7, "value": 55}, "group": "control_change"}, {"time": 2831, "annotation": {"number": 7, "value": 54}, "group": "control_change"}, {"time": 2834, "annotation": {"number": 7, "value": 53}, "group": "control_change"}, {"time": 2836, "annotation": {"number": 7, "value": 52}, "group": "control_change"}, {"time": 2839, "annotation": {"number": 7, "value": 51}, "group": "control_change"}, {"time": 2841, "annotation": {"number": 7, "value": 50}, "group": "control_change"}, {"time": 2844, "annotation": {"number": 7, "value": 49}, "group": "control_change"}, {"time": 2846, "annotation": {"number": 7, "value": 47}, "group": "control_change"}, {"time": 2849, "annotation": {"number": 7, "value": 46}, "group": "control_change"}, {"time": 2851, "annotation": {"number": 7, "value": 45}, "group": "control_change"}, {"time": 2854, "annotation": {"number": 7, "value": 44}, "group": "control_change"}, {"time": 2856, "annotation": {"number": 7, "value": 43}, "group": "control_change"}, {"time": 2859, "annotation": {"number": 7, "value": 42}, "group": "control_change"}, {"time": 2861, "annotation": {"number": 7, "value": 41}, "group": "control_change"}, {"time": 2864, "annotation": {"number": 7, "value": 40}, "group": "control_change"}, {"time": 2866, "annotation": {"number": 7, "value": 38}, "group": "control_change"}, {"time": 2869, "annotation": {"number": 7, "value": 37}, "group": "control_change"}, {"time": 2871, "annotation": {"number": 7, "value": 36}, "group": "control_change"}, {"time": 2874, "annotation": {"number": 7, "value": 35}, "group": "control_change"}, {"time": 2876, "annotation": {"number": 7, "value": 34}, "group": "control_change"}, {"time": 2879, "annotation": {"number": 7, "value": 33}, "group": "control_change"}, {"time": 2881, "annotation": {"number": 7, "value": 32}, "group": "control_change"}, {"time": 2884, "annotation": {"number": 7, "value": 31}, "group": "control_change"}, {"time": 2886, "annotation": {"number": 7, "value": 30}, "group": "control_change"}, {"time": 2889, "annotation": {"number": 7, "value": 28}, "group": "control_change"}, {"time": 2891, "annotation": {"number": 7, "value": 27}, "group": "control_change"}, {"time": 2894, "annotation": {"number": 7, "value": 26}, "group": "control_change"}, {"time": 2896, "annotation": {"number": 7, "value": 25}, "group": "control_change"}, {"time": 2899, "annotation": {"number": 7, "value": 24}, "group": "control_change"}, {"time": 2901, "annotation": {"number": 7, "value": 23}, "group": "control_change"}, {"time": 2904, "annotation": {"number": 7, "value": 22}, "group": "control_change"}, {"time": 2906, "annotation": {"number": 7, "value": 21}, "group": "control_change"}, {"time": 2909, "annotation": {"number": 7, "value": 19}, "group": "control_change"}, {"time": 2911, "annotation": {"number": 7, "value": 18}, "group": "control_change"}, {"time": 2914, "annotation": {"number": 7, "value": 17}, "group": "control_change"}, {"time": 2916, "annotation": {"number": 7, "value": 16}, "group": "control_change"}, {"time": 2919, "annotation": {"number": 7, "value": 15}, "group": "control_change"}, {"time": 2921, "annotation": {"number": 7, "value": 14}, "group": "control_change"}, {"time": 2924, "annotation": {"number": 7, "value": 13}, "group": "control_change"}, {"time": 2926, "annotation": {"number": 7, "value": 12}, "group": "control_change"}, {"time": 2929, "annotation": {"number": 7, "value": 11}, "group": "control_change"}, {"time": 2931, "annotation": {"number": 7, "value": 9}, "group": "control_change"}, {"time": 2934, "annotation": {"number": 7, "value": 8}, "group": "control_change"}, {"time": 2936, "annotation": {"number": 7, "value": 7}, "group": "control_change"}, {"time": 2939, "annotation": {"number": 7, "value": 6}, "group": "control_change"}, {"time": 2941, "annotation": {"number": 7, "value": 5}, "group": "control_change"}, {"time": 2944, "annotation": {"number": 7, "value": 4}, "group": "control_change"}, {"time": 2946, "annotation": {"number": 7, "value": 3}, "group": "control_change"}, {"time": 2949, "annotation": {"number": 7, "value": 2}, "group": "control_change"}, {"time": 2951, "annotation": {"number": 7, "value": 0}, "group": "control_change"}, {"time": 2952, "annotation": {"number": 7, "value": 0}, "group": "control_change"}]}, {"program": 0, "is_drum": false, "name": "PIANO", "notes": [{"time": 39, "pitch": 45, "duration": 10, "velocity": 82}, {"time": 45, "pitch": 57, "duration": 2, "velocity": 58}, {"time": 45, "pitch": 60, "duration": 1, "velocity": 56}, {"time": 45, "pitch": 64, "duration": 1, "velocity": 56}, {"time": 48, "pitch": 57, "duration": 1, "velocity": 65}, {"time": 48, "pitch": 60, "duration": 2, "velocity": 68}, {"time": 48, "pitch": 64, "duration": 2, "velocity": 68}, {"time": 51, "pitch": 43, "duration": 8, "velocity": 77}, {"time": 57, "pitch": 60, "duration": 1, "velocity": 78}, {"time": 57, "pitch": 64, "duration": 2, "velocity": 73}, {"time": 63, "pitch": 50, "duration": 9, "velocity": 63}, {"time": 69, "pitch": 57, "duration": 5, "velocity": 56}, {"time": 69, "pitch": 62, "duration": 2, "velocity": 58}, {"time": 69, "pitch": 66, "duration": 2, "velocity": 52}, {"time": 72, "pitch": 62, "duration": 3, "velocity": 74}, {"time": 72, "pitch": 66, "duration": 3, "velocity": 74}, {"time": 75, "pitch": 50, "duration": 6, "velocity": 63}, {"time": 81, "pitch": 62, "duration": 4, "velocity": 81}, {"time": 81, "pitch": 66, "duration": 4, "velocity": 72}, {"time": 87, "pitch": 41, "duration": 11, "velocity": 65}, {"time": 93, "pitch": 57, "duration": 5, "velocity": 75}, {"time": 93, "pitch": 60, "duration": 6, "velocity": 78}, {"time": 96, "pitch": 53, "duration": 2, "velocity": 64}, {"time": 99, "pitch": 43, "duration": 10, "velocity": 67}, {"time": 105, "pitch": 55, "duration": 5, "velocity": 74}, {"time": 108, "pitch": 57, "duration": 2, "velocity": 63}, {"time": 111, "pitch": 45, "duration": 21, "velocity": 72}, {"time": 117, "pitch": 52, "duration": 7, "velocity": 63}, {"time": 120, "pitch": 57, "duration": 5, "velocity": 63}, {"time": 123, "pitch": 64, "duration": 12, "velocity": 92}, {"time": 126, "pitch": 52, "duration": 7, "velocity": 74}, {"time": 129, "pitch": 60, "duration": 7, "velocity": 82}, {"time": 132, "pitch": 57, "duration": 3, "velocity": 78}, {"time": 135, "pitch": 45, "duration": 19, "velocity": 72}, {"time": 141, "pitch": 57, "duration": 5, "velocity": 78}, {"time": 144, "pitch": 60, "duration": 2, "velocity": 63}, {"time": 147, "pitch": 64, "duration": 11, "velocity": 89}, {"time": 150, "pitch": 52, "duration": 3, "velocity": 47}, {"time": 153, "pitch": 60, "duration": 5, "velocity": 86}, {"time": 156, "pitch": 57, "duration": 3, "velocity": 68}, {"time": 159, "pitch": 43, "duration": 18, "velocity": 68}, {"time": 165, "pitch": 50, "duration": 7, "velocity": 53}, {"time": 168, "pitch": 59, "duration": 4, "velocity": 66}, {"time": 171, "pitch": 62, "duration": 10, "velocity": 92}, {"time": 174, "pitch": 50, "duration": 2, "velocity": 63}, {"time": 177, "pitch": 59, "duration": 3, "velocity": 70}, {"time": 180, "pitch": 55, "duration": 3, "velocity": 73}, {"time": 183, "pitch": 40, "duration": 17, "velocity": 63}, {"time": 189, "pitch": 47, "duration": 6, "velocity": 58}, {"time": 192, "pitch": 52, "duration": 8, "velocity": 68}, {"time": 195, "pitch": 59, "duration": 11, "velocity": 83}, {"time": 198, "pitch": 47, "duration": 2, "velocity": 55}, {"time": 201, "pitch": 55, "duration": 5, "velocity": 81}, {"time": 204, "pitch": 52, "duration": 2, "velocity": 67}, {"time": 207, "pitch": 45, "duration": 22, "velocity": 63}, {"time": 213, "pitch": 52, "duration": 7, "velocity": 65}, {"time": 216, "pitch": 57, "duration": 4, "velocity": 69}, {"time": 219, "pitch": 64, "duration": 10, "velocity": 82}, {"time": 222, "pitch": 52, "duration": 5, "velocity": 64}, {"time": 225, "pitch": 60, "duration": 4, "velocity": 68}, {"time": 228, "pitch": 57, "duration": 2, "velocity": 74}, {"time": 231, "pitch": 45, "duration": 12, "velocity": 81}, {"time": 237, "pitch": 57, "duration": 1, "velocity": 78}, {"time": 237, "pitch": 60, "duration": 1, "velocity": 86}, {"time": 237, "pitch": 64, "duration": 1, "velocity": 74}, {"time": 240, "pitch": 57, "duration": 1, "velocity": 76}, {"time": 240, "pitch": 60, "duration": 1, "velocity": 83}, {"time": 240, "pitch": 64, "duration": 1, "velocity": 79}, {"time": 243, "pitch": 52, "duration": 11, "velocity": 67}, {"time": 249, "pitch": 64, "duration": 1, "velocity": 88}, {"time": 249, "pitch": 69, "duration": 1, "velocity": 95}, {"time": 249, "pitch": 72, "duration": 1, "velocity": 86}, {"time": 255, "pitch": 45, "duration": 12, "velocity": 61}, {"time": 261, "pitch": 57, "duration": 1, "velocity": 79}, {"time": 261, "pitch": 60, "duration": 1, "velocity": 86}, {"time": 261, "pitch": 64, "duration": 1, "velocity": 83}, {"time": 264, "pitch": 57, "duration": 1, "velocity": 72}, {"time": 264, "pitch": 60, "duration": 1, "velocity": 85}, {"time": 264, "pitch": 64, "duration": 1, "velocity": 79}, {"time": 267, "pitch": 52, "duration": 6, "velocity": 68}, {"time": 273, "pitch": 57, "duration": 1, "velocity": 90}, {"time": 273, "pitch": 60, "duration": 1, "velocity": 90}, {"time": 273, "pitch": 64, "duration": 1, "velocity": 85}, {"time": 279, "pitch": 41, "duration": 10, "velocity": 71}, {"time": 285, "pitch": 57, "duration": 1, "velocity": 72}, {"time": 285, "pitch": 60, "duration": 1, "velocity": 81}, {"time": 285, "pitch": 65, "duration": 1, "velocity": 77}, {"time": 288, "pitch": 57, "duration": 1, "velocity": 73}, {"time": 288, "pitch": 60, "duration": 1, "velocity": 79}, {"time": 288, "pitch": 65, "duration": 2, "velocity": 78}, {"time": 291, "pitch": 48, "duration": 7, "velocity": 72}, {"time": 297, "pitch": 57, "duration": 1, "velocity": 88}, {"time": 297, "pitch": 60, "duration": 1, "velocity": 89}, {"time": 297, "pitch": 65, "duration": 1, "velocity": 86}, {"time": 303, "pitch": 45, "duration": 13, "velocity": 76}, {"time": 309, "pitch": 57, "duration": 1, "velocity": 86}, {"time": 309, "pitch": 60, "duration": 1, "velocity": 85}, {"time": 309, "pitch": 64, "duration": 1, "velocity": 72}, {"time": 312, "pitch": 57, "duration": 1, "velocity": 63}, {"time": 312, "pitch": 60, "duration": 1, "velocity": 71}, {"time": 312, "pitch": 64, "duration": 1, "velocity": 69}, {"time": 315, "pitch": 52, "duration": 12, "velocity": 71}, {"time": 321, "pitch": 64, "duration": 3, "velocity": 82}, {"time": 321, "pitch": 69, "duration": 2, "velocity": 81}, {"time": 321, "pitch": 72, "duration": 3, "velocity": 77}, {"time": 327, "pitch": 45, "duration": 11, "velocity": 75}, {"time": 333, "pitch": 57, "duration": 2, "velocity": 77}, {"time": 333, "pitch": 60, "duration": 1, "velocity": 92}, {"time": 333, "pitch": 64, "duration": 1, "velocity": 78}, {"time": 336, "pitch": 57, "duration": 1, "velocity": 66}, {"time": 336, "pitch": 60, "duration": 1, "velocity": 78}, {"time": 336, "pitch": 64, "duration": 2, "velocity": 74}, {"time": 339, "pitch": 52, "duration": 11, "velocity": 67}, {"time": 345, "pitch": 57, "duration": 1, "velocity": 83}, {"time": 345, "pitch": 60, "duration": 1, "velocity": 89}, {"time": 345, "pitch": 64, "duration": 2, "velocity": 78}, {"time": 351, "pitch": 45, "duration": 12, "velocity": 75}, {"time": 357, "pitch": 57, "duration": 1, "velocity": 77}, {"time": 357, "pitch": 60, "duration": 1, "velocity": 89}, {"time": 357, "pitch": 64, "duration": 1, "velocity": 76}, {"time": 360, "pitch": 57, "duration": 1, "velocity": 76}, {"time": 360, "pitch": 60, "duration": 1, "velocity": 88}, {"time": 360, "pitch": 64, "duration": 1, "velocity": 78}, {"time": 363, "pitch": 52, "duration": 6, "velocity": 63}, {"time": 369, "pitch": 57, "duration": 2, "velocity": 88}, {"time": 369, "pitch": 60, "duration": 2, "velocity": 92}, {"time": 369, "pitch": 64, "duration": 2, "velocity": 82}, {"time": 375, "pitch": 41, "duration": 10, "velocity": 83}, {"time": 381, "pitch": 57, "duration": 1, "velocity": 78}, {"time": 381, "pitch": 60, "duration": 1, "velocity": 83}, {"time": 381, "pitch": 65, "duration": 1, "velocity": 52}, {"time": 384, "pitch": 57, "duration": 1, "velocity": 66}, {"time": 384, "pitch": 60, "duration": 1, "velocity": 83}, {"time": 384, "pitch": 65, "duration": 1, "velocity": 78}, {"time": 387, "pitch": 48, "duration": 10, "velocity": 67}, {"time": 393, "pitch": 57, "duration": 1, "velocity": 85}, {"time": 393, "pitch": 60, "duration": 1, "velocity": 92}, {"time": 393, "pitch": 65, "duration": 1, "velocity": 75}, {"time": 393, "pitch": 66, "duration": 1, "velocity": 75}, {"time": 399, "pitch": 45, "duration": 12, "velocity": 67}, {"time": 405, "pitch": 57, "duration": 1, "velocity": 81}, {"time": 405, "pitch": 60, "duration": 1, "velocity": 83}, {"time": 405, "pitch": 64, "duration": 1, "velocity": 81}, {"time": 408, "pitch": 57, "duration": 1, "velocity": 79}, {"time": 408, "pitch": 60, "duration": 1, "velocity": 89}, {"time": 408, "pitch": 64, "duration": 2, "velocity": 81}, {"time": 411, "pitch": 52, "duration": 9, "velocity": 78}, {"time": 417, "pitch": 57, "duration": 1, "velocity": 93}, {"time": 417, "pitch": 60, "duration": 1, "velocity": 96}, {"time": 417, "pitch": 64, "duration": 1, "velocity": 89}, {"time": 423, "pitch": 45, "duration": 10, "velocity": 83}, {"time": 429, "pitch": 57, "duration": 1, "velocity": 77}, {"time": 429, "pitch": 60, "duration": 1, "velocity": 88}, {"time": 429, "pitch": 64, "duration": 1, "velocity": 85}, {"time": 432, "pitch": 57, "duration": 1, "velocity": 73}, {"time": 432, "pitch": 60, "duration": 1, "velocity": 85}, {"time": 432, "pitch": 64, "duration": 1, "velocity": 74}, {"time": 435, "pitch": 52, "duration": 6, "velocity": 66}, {"time": 441, "pitch": 57, "duration": 1, "velocity": 90}, {"time": 441, "pitch": 60, "duration": 1, "velocity": 96}, {"time": 441, "pitch": 64, "duration": 2, "velocity": 92}, {"time": 447, "pitch": 38, "duration": 9, "velocity": 67}, {"time": 453, "pitch": 57, "duration": 1, "velocity": 86}, {"time": 453, "pitch": 62, "duration": 1, "velocity": 96}, {"time": 453, "pitch": 66, "duration": 1, "velocity": 90}, {"time": 456, "pitch": 45, "duration": 1, "velocity": 20}, {"time": 456, "pitch": 57, "duration": 2, "velocity": 70}, {"time": 456, "pitch": 62, "duration": 2, "velocity": 93}, {"time": 456, "pitch": 66, "duration": 1, "velocity": 90}, {"time": 459, "pitch": 50, "duration": 10, "velocity": 69}, {"time": 465, "pitch": 57, "duration": 1, "velocity": 92}, {"time": 465, "pitch": 62, "duration": 2, "velocity": 102}, {"time": 465, "pitch": 66, "duration": 1, "velocity": 92}, {"time": 471, "pitch": 41, "duration": 11, "velocity": 68}, {"time": 477, "pitch": 53, "duration": 1, "velocity": 81}, {"time": 477, "pitch": 57, "duration": 1, "velocity": 89}, {"time": 477, "pitch": 60, "duration": 1, "velocity": 86}, {"time": 480, "pitch": 53, "duration": 1, "velocity": 88}, {"time": 480, "pitch": 57, "duration": 1, "velocity": 92}, {"time": 480, "pitch": 60, "duration": 1, "velocity": 83}, {"time": 483, "pitch": 48, "duration": 8, "velocity": 66}, {"time": 489, "pitch": 53, "duration": 1, "velocity": 88}, {"time": 489, "pitch": 57, "duration": 1, "velocity": 95}, {"time": 489, "pitch": 60, "duration": 1, "velocity": 90}, {"time": 495, "pitch": 40, "duration": 10, "velocity": 72}, {"time": 501, "pitch": 59, "duration": 1, "velocity": 81}, {"time": 501, "pitch": 62, "duration": 1, "velocity": 90}, {"time": 501, "pitch": 64, "duration": 1, "velocity": 82}, {"time": 501, "pitch": 68, "duration": 1, "velocity": 82}, {"time": 504, "pitch": 59, "duration": 2, "velocity": 73}, {"time": 504, "pitch": 62, "duration": 1, "velocity": 86}, {"time": 504, "pitch": 64, "duration": 2, "velocity": 90}, {"time": 504, "pitch": 68, "duration": 1, "velocity": 89}, {"time": 507, "pitch": 52, "duration": 10, "velocity": 69}, {"time": 513, "pitch": 59, "duration": 1, "velocity": 86}, {"time": 513, "pitch": 62, "duration": 1, "velocity": 95}, {"time": 513, "pitch": 64, "duration": 1, "velocity": 93}, {"time": 513, "pitch": 68, "duration": 1, "velocity": 90}, {"time": 519, "pitch": 45, "duration": 12, "velocity": 70}, {"time": 525, "pitch": 57, "duration": 1, "velocity": 83}, {"time": 525, "pitch": 60, "duration": 1, "velocity": 90}, {"time": 525, "pitch": 64, "duration": 1, "velocity": 82}, {"time": 528, "pitch": 57, "duration": 1, "velocity": 77}, {"time": 528, "pitch": 60, "duration": 1, "velocity": 89}, {"time": 528, "pitch": 64, "duration": 1, "velocity": 83}, {"time": 531, "pitch": 52, "duration": 7, "velocity": 67}, {"time": 537, "pitch": 57, "duration": 2, "velocity": 95}, {"time": 537, "pitch": 60, "duration": 1, "velocity": 97}, {"time": 537, "pitch": 64, "duration": 2, "velocity": 93}, {"time": 543, "pitch": 38, "duration": 11, "velocity": 69}, {"time": 549, "pitch": 57, "duration": 1, "velocity": 82}, {"time": 549, "pitch": 62, "duration": 1, "velocity": 97}, {"time": 549, "pitch": 66, "duration": 1, "velocity": 90}, {"time": 552, "pitch": 57, "duration": 2, "velocity": 76}, {"time": 552, "pitch": 62, "duration": 2, "velocity": 93}, {"time": 552, "pitch": 66, "duration": 2, "velocity": 93}, {"time": 555, "pitch": 50, "duration": 9, "velocity": 66}, {"time": 561, "pitch": 57, "duration": 1, "velocity": 93}, {"time": 561, "pitch": 62, "duration": 1, "velocity": 102}, {"time": 561, "pitch": 66, "duration": 1, "velocity": 93}, {"time": 567, "pitch": 40, "duration": 11, "velocity": 71}, {"time": 573, "pitch": 52, "duration": 1, "velocity": 79}, {"time": 573, "pitch": 56, "duration": 1, "velocity": 90}, {"time": 573, "pitch": 59, "duration": 1, "velocity": 79}, {"time": 576, "pitch": 52, "duration": 2, "velocity": 74}, {"time": 576, "pitch": 56, "duration": 1, "velocity": 83}, {"time": 576, "pitch": 59, "duration": 2, "velocity": 82}, {"time": 579, "pitch": 47, "duration": 9, "velocity": 67}, {"time": 585, "pitch": 52, "duration": 1, "velocity": 90}, {"time": 585, "pitch": 56, "duration": 1, "velocity": 95}, {"time": 585, "pitch": 59, "duration": 2, "velocity": 92}, {"time": 591, "pitch": 45, "duration": 11, "velocity": 64}, {"time": 597, "pitch": 57, "duration": 1, "velocity": 95}, {"time": 597, "pitch": 60, "duration": 1, "velocity": 95}, {"time": 597, "pitch": 64, "duration": 1, "velocity": 86}, {"time": 600, "pitch": 57, "duration": 2, "velocity": 76}, {"time": 600, "pitch": 60, "duration": 1, "velocity": 88}, {"time": 600, "pitch": 64, "duration": 2, "velocity": 78}, {"time": 603, "pitch": 52, "duration": 10, "velocity": 67}, {"time": 609, "pitch": 57, "duration": 1, "velocity": 95}, {"time": 609, "pitch": 60, "duration": 1, "velocity": 97}, {"time": 609, "pitch": 64, "duration": 1, "velocity": 90}, {"time": 615, "pitch": 45, "duration": 5, "velocity": 93}, {"time": 618, "pitch": 52, "duration": 8, "velocity": 78}, {"time": 621, "pitch": 57, "duration": 1, "velocity": 92}, {"time": 621, "pitch": 60, "duration": 1, "velocity": 93}, {"time": 621, "pitch": 64, "duration": 1, "velocity": 85}, {"time": 624, "pitch": 57, "duration": 1, "velocity": 75}, {"time": 624, "pitch": 60, "duration": 1, "velocity": 89}, {"time": 624, "pitch": 64, "duration": 1, "velocity": 81}, {"time": 627, "pitch": 45, "duration": 10, "velocity": 82}, {"time": 633, "pitch": 57, "duration": 1, "velocity": 88}, {"time": 633, "pitch": 60, "duration": 1, "velocity": 92}, {"time": 633, "pitch": 64, "duration": 1, "velocity": 78}, {"time": 636, "pitch": 57, "duration": 2, "velocity": 72}, {"time": 636, "pitch": 60, "duration": 1, "velocity": 77}, {"time": 636, "pitch": 64, "duration": 2, "velocity": 76}, {"time": 639, "pitch": 52, "duration": 12, "velocity": 59}, {"time": 645, "pitch": 57, "duration": 1, "velocity": 76}, {"time": 645, "pitch": 60, "duration": 1, "velocity": 86}, {"time": 645, "pitch": 64, "duration": 1, "velocity": 79}, {"time": 648, "pitch": 57, "duration": 2, "velocity": 74}, {"time": 648, "pitch": 60, "duration": 1, "velocity": 88}, {"time": 648, "pitch": 64, "duration": 1, "velocity": 76}, {"time": 651, "pitch": 45, "duration": 6, "velocity": 79}, {"time": 654, "pitch": 52, "duration": 6, "velocity": 69}, {"time": 657, "pitch": 57, "duration": 1, "velocity": 86}, {"time": 657, "pitch": 60, "duration": 1, "velocity": 95}, {"time": 657, "pitch": 64, "duration": 2, "velocity": 92}, {"time": 660, "pitch": 57, "duration": 2, "velocity": 73}, {"time": 660, "pitch": 60, "duration": 2, "velocity": 75}, {"time": 660, "pitch": 64, "duration": 3, "velocity": 71}, {"time": 663, "pitch": 43, "duration": 4, "velocity": 99}, {"time": 666, "pitch": 50, "duration": 8, "velocity": 86}, {"time": 669, "pitch": 55, "duration": 1, "velocity": 61}, {"time": 669, "pitch": 59, "duration": 1, "velocity": 82}, {"time": 669, "pitch": 62, "duration": 1, "velocity": 81}, {"time": 672, "pitch": 55, "duration": 1, "velocity": 83}, {"time": 672, "pitch": 59, "duration": 1, "velocity": 93}, {"time": 672, "pitch": 62, "duration": 1, "velocity": 93}, {"time": 675, "pitch": 43, "duration": 7, "velocity": 82}, {"time": 681, "pitch": 55, "duration": 1, "velocity": 89}, {"time": 681, "pitch": 59, "duration": 1, "velocity": 90}, {"time": 681, "pitch": 62, "duration": 1, "velocity": 85}, {"time": 687, "pitch": 48, "duration": 10, "velocity": 74}, {"time": 690, "pitch": 55, "duration": 4, "velocity": 88}, {"time": 693, "pitch": 60, "duration": 1, "velocity": 93}, {"time": 693, "pitch": 64, "duration": 1, "velocity": 88}, {"time": 696, "pitch": 55, "duration": 2, "velocity": 95}, {"time": 696, "pitch": 60, "duration": 2, "velocity": 93}, {"time": 696, "pitch": 64, "duration": 2, "velocity": 86}, {"time": 699, "pitch": 48, "duration": 7, "velocity": 85}, {"time": 705, "pitch": 55, "duration": 2, "velocity": 93}, {"time": 705, "pitch": 60, "duration": 2, "velocity": 100}, {"time": 705, "pitch": 64, "duration": 2, "velocity": 92}, {"time": 711, "pitch": 45, "duration": 5, "velocity": 82}, {"time": 714, "pitch": 52, "duration": 8, "velocity": 35}, {"time": 717, "pitch": 57, "duration": 1, "velocity": 92}, {"time": 717, "pitch": 60, "duration": 1, "velocity": 93}, {"time": 717, "pitch": 64, "duration": 1, "velocity": 92}, {"time": 720, "pitch": 57, "duration": 2, "velocity": 63}, {"time": 720, "pitch": 60, "duration": 2, "velocity": 75}, {"time": 720, "pitch": 64, "duration": 2, "velocity": 76}, {"time": 723, "pitch": 45, "duration": 5, "velocity": 83}, {"time": 726, "pitch": 52, "duration": 4, "velocity": 100}, {"time": 729, "pitch": 57, "duration": 1, "velocity": 81}, {"time": 729, "pitch": 60, "duration": 1, "velocity": 96}, {"time": 729, "pitch": 64, "duration": 1, "velocity": 95}, {"time": 732, "pitch": 57, "duration": 2, "velocity": 62}, {"time": 732, "pitch": 60, "duration": 2, "velocity": 81}, {"time": 732, "pitch": 64, "duration": 2, "velocity": 78}, {"time": 735, "pitch": 38, "duration": 10, "velocity": 88}, {"time": 741, "pitch": 57, "duration": 1, "velocity": 76}, {"time": 741, "pitch": 62, "duration": 1, "velocity": 96}, {"time": 741, "pitch": 66, "duration": 1, "velocity": 95}, {"time": 744, "pitch": 45, "duration": 2, "velocity": 23}, {"time": 744, "pitch": 57, "duration": 2, "velocity": 75}, {"time": 744, "pitch": 62, "duration": 2, "velocity": 93}, {"time": 744, "pitch": 66, "duration": 2, "velocity": 93}, {"time": 747, "pitch": 50, "duration": 10, "velocity": 85}, {"time": 750, "pitch": 57, "duration": 2, "velocity": 85}, {"time": 750, "pitch": 62, "duration": 3, "velocity": 92}, {"time": 750, "pitch": 66, "duration": 2, "velocity": 89}, {"time": 756, "pitch": 57, "duration": 2, "velocity": 92}, {"time": 756, "pitch": 62, "duration": 2, "velocity": 97}, {"time": 756, "pitch": 66, "duration": 1, "velocity": 93}, {"time": 759, "pitch": 40, "duration": 10, "velocity": 82}, {"time": 765, "pitch": 52, "duration": 1, "velocity": 74}, {"time": 765, "pitch": 56, "duration": 1, "velocity": 90}, {"time": 765, "pitch": 59, "duration": 1, "velocity": 78}, {"time": 768, "pitch": 52, "duration": 1, "velocity": 68}, {"time": 768, "pitch": 56, "duration": 1, "velocity": 82}, {"time": 768, "pitch": 59, "duration": 1, "velocity": 77}, {"time": 771, "pitch": 47, "duration": 7, "velocity": 69}, {"time": 777, "pitch": 52, "duration": 1, "velocity": 78}, {"time": 777, "pitch": 56, "duration": 1, "velocity": 93}, {"time": 777, "pitch": 59, "duration": 2, "velocity": 92}, {"time": 783, "pitch": 45, "duration": 12, "velocity": 72}, {"time": 786, "pitch": 57, "duration": 3, "velocity": 79}, {"time": 786, "pitch": 60, "duration": 3, "velocity": 83}, {"time": 786, "pitch": 64, "duration": 3, "velocity": 82}, {"time": 792, "pitch": 57, "duration": 3, "velocity": 85}, {"time": 792, "pitch": 60, "duration": 2, "velocity": 83}, {"time": 792, "pitch": 64, "duration": 3, "velocity": 74}, {"time": 795, "pitch": 52, "duration": 11, "velocity": 90}, {"time": 801, "pitch": 57, "duration": 2, "velocity": 93}, {"time": 801, "pitch": 60, "duration": 2, "velocity": 95}, {"time": 801, "pitch": 64, "duration": 2, "velocity": 88}, {"time": 807, "pitch": 45, "duration": 11, "velocity": 73}, {"time": 813, "pitch": 57, "duration": 1, "velocity": 82}, {"time": 813, "pitch": 60, "duration": 1, "velocity": 82}, {"time": 813, "pitch": 64, "duration": 1, "velocity": 82}, {"time": 816, "pitch": 57, "duration": 1, "velocity": 74}, {"time": 816, "pitch": 60, "duration": 1, "velocity": 86}, {"time": 816, "pitch": 64, "duration": 1, "velocity": 79}, {"time": 819, "pitch": 52, "duration": 7, "velocity": 67}, {"time": 825, "pitch": 57, "duration": 1, "velocity": 96}, {"time": 825, "pitch": 60, "duration": 1, "velocity": 99}, {"time": 825, "pitch": 64, "duration": 2, "velocity": 89}, {"time": 831, "pitch": 38, "duration": 9, "velocity": 82}, {"time": 837, "pitch": 45, "duration": 3, "velocity": 27}, {"time": 837, "pitch": 57, "duration": 1, "velocity": 85}, {"time": 837, "pitch": 62, "duration": 1, "velocity": 99}, {"time": 837, "pitch": 66, "duration": 1, "velocity": 90}, {"time": 840, "pitch": 57, "duration": 1, "velocity": 74}, {"time": 840, "pitch": 62, "duration": 1, "velocity": 95}, {"time": 840, "pitch": 66, "duration": 1, "velocity": 95}, {"time": 843, "pitch": 50, "duration": 11, "velocity": 83}, {"time": 846, "pitch": 57, "duration": 2, "velocity": 92}, {"time": 846, "pitch": 62, "duration": 1, "velocity": 100}, {"time": 846, "pitch": 66, "duration": 2, "velocity": 100}, {"time": 852, "pitch": 57, "duration": 2, "velocity": 83}, {"time": 852, "pitch": 62, "duration": 2, "velocity": 96}, {"time": 852, "pitch": 66, "duration": 2, "velocity": 88}, {"time": 855, "pitch": 41, "duration": 12, "velocity": 75}, {"time": 861, "pitch": 53, "duration": 1, "velocity": 73}, {"time": 861, "pitch": 57, "duration": 1, "velocity": 96}, {"time": 861, "pitch": 60, "duration": 1, "velocity": 81}, {"time": 864, "pitch": 53, "duration": 2, "velocity": 69}, {"time": 864, "pitch": 57, "duration": 2, "velocity": 82}, {"time": 864, "pitch": 60, "duration": 2, "velocity": 78}, {"time": 867, "pitch": 48, "duration": 7, "velocity": 70}, {"time": 873, "pitch": 53, "duration": 1, "velocity": 89}, {"time": 873, "pitch": 57, "duration": 1, "velocity": 96}, {"time": 873, "pitch": 60, "duration": 1, "velocity": 89}, {"time": 879, "pitch": 40, "duration": 10, "velocity": 81}, {"time": 885, "pitch": 59, "duration": 1, "velocity": 78}, {"time": 885, "pitch": 62, "duration": 1, "velocity": 79}, {"time": 885, "pitch": 64, "duration": 1, "velocity": 76}, {"time": 885, "pitch": 68, "duration": 1, "velocity": 74}, {"time": 888, "pitch": 59, "duration": 2, "velocity": 73}, {"time": 888, "pitch": 62, "duration": 2, "velocity": 85}, {"time": 888, "pitch": 64, "duration": 1, "velocity": 92}, {"time": 888, "pitch": 68, "duration": 1, "velocity": 92}, {"time": 891, "pitch": 52, "duration": 8, "velocity": 75}, {"time": 897, "pitch": 59, "duration": 1, "velocity": 83}, {"time": 897, "pitch": 62, "duration": 1, "velocity": 93}, {"time": 897, "pitch": 64, "duration": 2, "velocity": 93}, {"time": 897, "pitch": 68, "duration": 2, "velocity": 92}, {"time": 903, "pitch": 45, "duration": 10, "velocity": 86}, {"time": 909, "pitch": 57, "duration": 1, "velocity": 85}, {"time": 909, "pitch": 60, "duration": 1, "velocity": 86}, {"time": 909, "pitch": 64, "duration": 1, "velocity": 73}, {"time": 912, "pitch": 57, "duration": 1, "velocity": 63}, {"time": 912, "pitch": 60, "duration": 1, "velocity": 71}, {"time": 912, "pitch": 64, "duration": 1, "velocity": 72}, {"time": 915, "pitch": 52, "duration": 6, "velocity": 85}, {"time": 918, "pitch": 57, "duration": 2, "velocity": 86}, {"time": 918, "pitch": 60, "duration": 2, "velocity": 93}, {"time": 918, "pitch": 64, "duration": 3, "velocity": 88}, {"time": 924, "pitch": 57, "duration": 3, "velocity": 86}, {"time": 924, "pitch": 60, "duration": 3, "velocity": 86}, {"time": 924, "pitch": 64, "duration": 3, "velocity": 76}, {"time": 927, "pitch": 38, "duration": 9, "velocity": 81}, {"time": 933, "pitch": 57, "duration": 1, "velocity": 82}, {"time": 933, "pitch": 62, "duration": 1, "velocity": 95}, {"time": 933, "pitch": 66, "duration": 1, "velocity": 83}, {"time": 936, "pitch": 57, "duration": 2, "velocity": 73}, {"time": 936, "pitch": 62, "duration": 2, "velocity": 86}, {"time": 936, "pitch": 66, "duration": 2, "velocity": 83}, {"time": 939, "pitch": 50, "duration": 10, "velocity": 82}, {"time": 945, "pitch": 57, "duration": 1, "velocity": 86}, {"time": 945, "pitch": 62, "duration": 2, "velocity": 95}, {"time": 945, "pitch": 66, "duration": 2, "velocity": 85}, {"time": 951, "pitch": 40, "duration": 10, "velocity": 76}, {"time": 957, "pitch": 59, "duration": 1, "velocity": 73}, {"time": 957, "pitch": 62, "duration": 1, "velocity": 81}, {"time": 957, "pitch": 64, "duration": 1, "velocity": 85}, {"time": 957, "pitch": 68, "duration": 1, "velocity": 81}, {"time": 960, "pitch": 59, "duration": 2, "velocity": 73}, {"time": 960, "pitch": 62, "duration": 1, "velocity": 83}, {"time": 960, "pitch": 64, "duration": 1, "velocity": 88}, {"time": 960, "pitch": 68, "duration": 1, "velocity": 89}, {"time": 963, "pitch": 52, "duration": 10, "velocity": 66}, {"time": 969, "pitch": 59, "duration": 2, "velocity": 75}, {"time": 969, "pitch": 62, "duration": 1, "velocity": 83}, {"time": 969, "pitch": 64, "duration": 2, "velocity": 89}, {"time": 969, "pitch": 68, "duration": 1, "velocity": 86}, {"time": 975, "pitch": 45, "duration": 11, "velocity": 76}, {"time": 981, "pitch": 57, "duration": 1, "velocity": 85}, {"time": 981, "pitch": 60, "duration": 1, "velocity": 90}, {"time": 981, "pitch": 64, "duration": 1, "velocity": 82}, {"time": 984, "pitch": 57, "duration": 2, "velocity": 72}, {"time": 984, "pitch": 60, "duration": 2, "velocity": 83}, {"time": 984, "pitch": 64, "duration": 2, "velocity": 75}, {"time": 987, "pitch": 52, "duration": 10, "velocity": 81}, {"time": 990, "pitch": 57, "duration": 2, "velocity": 88}, {"time": 990, "pitch": 60, "duration": 2, "velocity": 93}, {"time": 990, "pitch": 64, "duration": 2, "velocity": 86}, {"time": 996, "pitch": 57, "duration": 2, "velocity": 95}, {"time": 996, "pitch": 60, "duration": 2, "velocity": 93}, {"time": 996, "pitch": 64, "duration": 2, "velocity": 90}, {"time": 999, "pitch": 45, "duration": 5, "velocity": 93}, {"time": 1002, "pitch": 52, "duration": 8, "velocity": 78}, {"time": 1005, "pitch": 57, "duration": 1, "velocity": 92}, {"time": 1005, "pitch": 60, "duration": 1, "velocity": 93}, {"time": 1005, "pitch": 64, "duration": 1, "velocity": 85}, {"time": 1008, "pitch": 57, "duration": 1, "velocity": 75}, {"time": 1008, "pitch": 60, "duration": 1, "velocity": 89}, {"time": 1008, "pitch": 64, "duration": 1, "velocity": 81}, {"time": 1011, "pitch": 45, "duration": 10, "velocity": 82}, {"time": 1017, "pitch": 57, "duration": 1, "velocity": 88}, {"time": 1017, "pitch": 60, "duration": 1, "velocity": 92}, {"time": 1017, "pitch": 64, "duration": 1, "velocity": 78}, {"time": 1020, "pitch": 57, "duration": 2, "velocity": 72}, {"time": 1020, "pitch": 60, "duration": 1, "velocity": 77}, {"time": 1020, "pitch": 64, "duration": 2, "velocity": 76}, {"time": 1023, "pitch": 52, "duration": 12, "velocity": 59}, {"time": 1029, "pitch": 57, "duration": 1, "velocity": 76}, {"time": 1029, "pitch": 60, "duration": 1, "velocity": 86}, {"time": 1029, "pitch": 64, "duration": 1, "velocity": 79}, {"time": 1032, "pitch": 57, "duration": 2, "velocity": 74}, {"time": 1032, "pitch": 60, "duration": 1, "velocity": 88}, {"time": 1032, "pitch": 64, "duration": 1, "velocity": 76}, {"time": 1035, "pitch": 45, "duration": 6, "velocity": 79}, {"time": 1038, "pitch": 52, "duration": 6, "velocity": 69}, {"time": 1041, "pitch": 57, "duration": 1, "velocity": 86}, {"time": 1041, "pitch": 60, "duration": 1, "velocity": 95}, {"time": 1041, "pitch": 64, "duration": 2, "velocity": 92}, {"time": 1044, "pitch": 57, "duration": 2, "velocity": 73}, {"time": 1044, "pitch": 60, "duration": 2, "velocity": 75}, {"time": 1044, "pitch": 64, "duration": 3, "velocity": 71}, {"time": 1047, "pitch": 43, "duration": 4, "velocity": 99}, {"time": 1050, "pitch": 50, "duration": 8, "velocity": 86}, {"time": 1053, "pitch": 55, "duration": 1, "velocity": 61}, {"time": 1053, "pitch": 59, "duration": 1, "velocity": 82}, {"time": 1053, "pitch": 62, "duration": 1, "velocity": 81}, {"time": 1056, "pitch": 55, "duration": 1, "velocity": 83}, {"time": 1056, "pitch": 59, "duration": 1, "velocity": 93}, {"time": 1056, "pitch": 62, "duration": 1, "velocity": 93}, {"time": 1059, "pitch": 43, "duration": 7, "velocity": 82}, {"time": 1065, "pitch": 55, "duration": 1, "velocity": 89}, {"time": 1065, "pitch": 59, "duration": 1, "velocity": 90}, {"time": 1065, "pitch": 62, "duration": 1, "velocity": 85}, {"time": 1071, "pitch": 48, "duration": 10, "velocity": 74}, {"time": 1074, "pitch": 55, "duration": 4, "velocity": 88}, {"time": 1077, "pitch": 60, "duration": 1, "velocity": 93}, {"time": 1077, "pitch": 64, "duration": 1, "velocity": 88}, {"time": 1080, "pitch": 55, "duration": 2, "velocity": 95}, {"time": 1080, "pitch": 60, "duration": 2, "velocity": 93}, {"time": 1080, "pitch": 64, "duration": 2, "velocity": 86}, {"time": 1083, "pitch": 48, "duration": 7, "velocity": 85}, {"time": 1089, "pitch": 55, "duration": 2, "velocity": 93}, {"time": 1089, "pitch": 60, "duration": 2, "velocity": 100}, {"time": 1089, "pitch": 64, "duration": 2, "velocity": 92}, {"time": 1095, "pitch": 45, "duration": 5, "velocity": 82}, {"time": 1098, "pitch": 52, "duration": 8, "velocity": 35}, {"time": 1101, "pitch": 57, "duration": 1, "velocity": 92}, {"time": 1101, "pitch": 60, "duration": 1, "velocity": 93}, {"time": 1101, "pitch": 64, "duration": 1, "velocity": 92}, {"time": 1104, "pitch": 57, "duration": 2, "velocity": 63}, {"time": 1104, "pitch": 60, "duration": 2, "velocity": 75}, {"time": 1104, "pitch": 64, "duration": 2, "velocity": 76}, {"time": 1107, "pitch": 45, "duration": 5, "velocity": 83}, {"time": 1110, "pitch": 52, "duration": 4, "velocity": 100}, {"time": 1113, "pitch": 57, "duration": 1, "velocity": 81}, {"time": 1113, "pitch": 60, "duration": 1, "velocity": 96}, {"time": 1113, "pitch": 64, "duration": 1, "velocity": 95}, {"time": 1116, "pitch": 57, "duration": 2, "velocity": 62}, {"time": 1116, "pitch": 60, "duration": 2, "velocity": 81}, {"time": 1116, "pitch": 64, "duration": 2, "velocity": 78}, {"time": 1119, "pitch": 38, "duration": 10, "velocity": 88}, {"time": 1125, "pitch": 57, "duration": 1, "velocity": 76}, {"time": 1125, "pitch": 62, "duration": 1, "velocity": 96}, {"time": 1125, "pitch": 66, "duration": 1, "velocity": 95}, {"time": 1128, "pitch": 45, "duration": 2, "velocity": 23}, {"time": 1128, "pitch": 57, "duration": 2, "velocity": 75}, {"time": 1128, "pitch": 62, "duration": 2, "velocity": 93}, {"time": 1128, "pitch": 66, "duration": 2, "velocity": 93}, {"time": 1131, "pitch": 50, "duration": 10, "velocity": 85}, {"time": 1134, "pitch": 57, "duration": 2, "velocity": 85}, {"time": 1134, "pitch": 62, "duration": 3, "velocity": 92}, {"time": 1134, "pitch": 66, "duration": 2, "velocity": 89}, {"time": 1140, "pitch": 57, "duration": 2, "velocity": 92}, {"time": 1140, "pitch": 62, "duration": 2, "velocity": 97}, {"time": 1140, "pitch": 66, "duration": 1, "velocity": 93}, {"time": 1143, "pitch": 40, "duration": 10, "velocity": 82}, {"time": 1149, "pitch": 52, "duration": 1, "velocity": 74}, {"time": 1149, "pitch": 56, "duration": 1, "velocity": 90}, {"time": 1149, "pitch": 59, "duration": 1, "velocity": 78}, {"time": 1152, "pitch": 52, "duration": 1, "velocity": 68}, {"time": 1152, "pitch": 56, "duration": 1, "velocity": 82}, {"time": 1152, "pitch": 59, "duration": 1, "velocity": 77}, {"time": 1155, "pitch": 47, "duration": 7, "velocity": 69}, {"time": 1161, "pitch": 52, "duration": 1, "velocity": 78}, {"time": 1161, "pitch": 56, "duration": 1, "velocity": 93}, {"time": 1161, "pitch": 59, "duration": 2, "velocity": 92}, {"time": 1167, "pitch": 45, "duration": 12, "velocity": 72}, {"time": 1170, "pitch": 57, "duration": 3, "velocity": 79}, {"time": 1170, "pitch": 60, "duration": 3, "velocity": 83}, {"time": 1170, "pitch": 64, "duration": 3, "velocity": 82}, {"time": 1176, "pitch": 57, "duration": 3, "velocity": 85}, {"time": 1176, "pitch": 60, "duration": 2, "velocity": 83}, {"time": 1176, "pitch": 64, "duration": 3, "velocity": 74}, {"time": 1179, "pitch": 52, "duration": 11, "velocity": 90}, {"time": 1185, "pitch": 57, "duration": 2, "velocity": 93}, {"time": 1185, "pitch": 60, "duration": 2, "velocity": 95}, {"time": 1185, "pitch": 64, "duration": 2, "velocity": 88}, {"time": 1191, "pitch": 45, "duration": 12, "velocity": 81}, {"time": 1197, "pitch": 57, "duration": 1, "velocity": 78}, {"time": 1197, "pitch": 60, "duration": 1, "velocity": 86}, {"time": 1197, "pitch": 64, "duration": 1, "velocity": 74}, {"time": 1200, "pitch": 57, "duration": 1, "velocity": 76}, {"time": 1200, "pitch": 60, "duration": 1, "velocity": 83}, {"time": 1200, "pitch": 64, "duration": 1, "velocity": 79}, {"time": 1203, "pitch": 52, "duration": 11, "velocity": 67}, {"time": 1209, "pitch": 64, "duration": 1, "velocity": 88}, {"time": 1209, "pitch": 69, "duration": 1, "velocity": 95}, {"time": 1209, "pitch": 72, "duration": 1, "velocity": 86}, {"time": 1215, "pitch": 45, "duration": 12, "velocity": 61}, {"time": 1221, "pitch": 57, "duration": 1, "velocity": 79}, {"time": 1221, "pitch": 60, "duration": 1, "velocity": 86}, {"time": 1221, "pitch": 64, "duration": 1, "velocity": 83}, {"time": 1224, "pitch": 57, "duration": 1, "velocity": 72}, {"time": 1224, "pitch": 60, "duration": 1, "velocity": 85}, {"time": 1224, "pitch": 64, "duration": 1, "velocity": 79}, {"time": 1227, "pitch": 52, "duration": 6, "velocity": 68}, {"time": 1233, "pitch": 57, "duration": 1, "velocity": 90}, {"time": 1233, "pitch": 60, "duration": 1, "velocity": 90}, {"time": 1233, "pitch": 64, "duration": 1, "velocity": 85}, {"time": 1239, "pitch": 41, "duration": 10, "velocity": 71}, {"time": 1245, "pitch": 57, "duration": 1, "velocity": 72}, {"time": 1245, "pitch": 60, "duration": 1, "velocity": 81}, {"time": 1245, "pitch": 65, "duration": 1, "velocity": 77}, {"time": 1248, "pitch": 57, "duration": 1, "velocity": 73}, {"time": 1248, "pitch": 60, "duration": 1, "velocity": 79}, {"time": 1248, "pitch": 65, "duration": 2, "velocity": 78}, {"time": 1251, "pitch": 48, "duration": 7, "velocity": 72}, {"time": 1257, "pitch": 57, "duration": 1, "velocity": 88}, {"time": 1257, "pitch": 60, "duration": 1, "velocity": 89}, {"time": 1257, "pitch": 65, "duration": 1, "velocity": 86}, {"time": 1263, "pitch": 45, "duration": 13, "velocity": 76}, {"time": 1269, "pitch": 57, "duration": 1, "velocity": 86}, {"time": 1269, "pitch": 60, "duration": 1, "velocity": 85}, {"time": 1269, "pitch": 64, "duration": 1, "velocity": 72}, {"time": 1272, "pitch": 57, "duration": 1, "velocity": 63}, {"time": 1272, "pitch": 60, "duration": 1, "velocity": 71}, {"time": 1272, "pitch": 64, "duration": 1, "velocity": 69}, {"time": 1275, "pitch": 52, "duration": 12, "velocity": 71}, {"time": 1281, "pitch": 64, "duration": 3, "velocity": 82}, {"time": 1281, "pitch": 69, "duration": 2, "velocity": 81}, {"time": 1281, "pitch": 72, "duration": 3, "velocity": 77}, {"time": 1287, "pitch": 45, "duration": 11, "velocity": 75}, {"time": 1293, "pitch": 57, "duration": 2, "velocity": 77}, {"time": 1293, "pitch": 60, "duration": 1, "velocity": 92}, {"time": 1293, "pitch": 64, "duration": 1, "velocity": 78}, {"time": 1296, "pitch": 57, "duration": 1, "velocity": 66}, {"time": 1296, "pitch": 60, "duration": 1, "velocity": 78}, {"time": 1296, "pitch": 64, "duration": 2, "velocity": 74}, {"time": 1299, "pitch": 52, "duration": 11, "velocity": 67}, {"time": 1305, "pitch": 57, "duration": 1, "velocity": 83}, {"time": 1305, "pitch": 60, "duration": 1, "velocity": 89}, {"time": 1305, "pitch": 64, "duration": 2, "velocity": 78}, {"time": 1311, "pitch": 45, "duration": 12, "velocity": 75}, {"time": 1317, "pitch": 57, "duration": 1, "velocity": 77}, {"time": 1317, "pitch": 60, "duration": 1, "velocity": 89}, {"time": 1317, "pitch": 64, "duration": 1, "velocity": 76}, {"time": 1320, "pitch": 57, "duration": 1, "velocity": 76}, {"time": 1320, "pitch": 60, "duration": 1, "velocity": 88}, {"time": 1320, "pitch": 64, "duration": 1, "velocity": 78}, {"time": 1323, "pitch": 52, "duration": 6, "velocity": 63}, {"time": 1329, "pitch": 57, "duration": 2, "velocity": 88}, {"time": 1329, "pitch": 60, "duration": 2, "velocity": 92}, {"time": 1329, "pitch": 64, "duration": 2, "velocity": 82}, {"time": 1335, "pitch": 41, "duration": 10, "velocity": 83}, {"time": 1341, "pitch": 57, "duration": 1, "velocity": 78}, {"time": 1341, "pitch": 60, "duration": 1, "velocity": 83}, {"time": 1341, "pitch": 65, "duration": 1, "velocity": 52}, {"time": 1344, "pitch": 57, "duration": 1, "velocity": 66}, {"time": 1344, "pitch": 60, "duration": 1, "velocity": 83}, {"time": 1344, "pitch": 65, "duration": 1, "velocity": 78}, {"time": 1347, "pitch": 48, "duration": 10, "velocity": 67}, {"time": 1353, "pitch": 57, "duration": 1, "velocity": 85}, {"time": 1353, "pitch": 60, "duration": 1, "velocity": 92}, {"time": 1353, "pitch": 65, "duration": 1, "velocity": 75}, {"time": 1353, "pitch": 66, "duration": 1, "velocity": 75}, {"time": 1359, "pitch": 45, "duration": 12, "velocity": 67}, {"time": 1365, "pitch": 57, "duration": 1, "velocity": 81}, {"time": 1365, "pitch": 60, "duration": 1, "velocity": 83}, {"time": 1365, "pitch": 64, "duration": 1, "velocity": 81}, {"time": 1368, "pitch": 57, "duration": 1, "velocity": 79}, {"time": 1368, "pitch": 60, "duration": 1, "velocity": 89}, {"time": 1368, "pitch": 64, "duration": 2, "velocity": 81}, {"time": 1371, "pitch": 52, "duration": 9, "velocity": 78}, {"time": 1377, "pitch": 57, "duration": 1, "velocity": 93}, {"time": 1377, "pitch": 60, "duration": 1, "velocity": 96}, {"time": 1377, "pitch": 64, "duration": 1, "velocity": 89}, {"time": 1383, "pitch": 45, "duration": 10, "velocity": 83}, {"time": 1389, "pitch": 57, "duration": 1, "velocity": 77}, {"time": 1389, "pitch": 60, "duration": 1, "velocity": 88}, {"time": 1389, "pitch": 64, "duration": 1, "velocity": 85}, {"time": 1392, "pitch": 57, "duration": 1, "velocity": 73}, {"time": 1392, "pitch": 60, "duration": 1, "velocity": 85}, {"time": 1392, "pitch": 64, "duration": 1, "velocity": 74}, {"time": 1395, "pitch": 52, "duration": 6, "velocity": 66}, {"time": 1401, "pitch": 57, "duration": 1, "velocity": 90}, {"time": 1401, "pitch": 60, "duration": 1, "velocity": 96}, {"time": 1401, "pitch": 64, "duration": 2, "velocity": 92}, {"time": 1407, "pitch": 38, "duration": 9, "velocity": 67}, {"time": 1413, "pitch": 57, "duration": 1, "velocity": 86}, {"time": 1413, "pitch": 62, "duration": 1, "velocity": 96}, {"time": 1413, "pitch": 66, "duration": 1, "velocity": 90}, {"time": 1416, "pitch": 45, "duration": 1, "velocity": 20}, {"time": 1416, "pitch": 57, "duration": 2, "velocity": 70}, {"time": 1416, "pitch": 62, "duration": 2, "velocity": 93}, {"time": 1416, "pitch": 66, "duration": 1, "velocity": 90}, {"time": 1419, "pitch": 50, "duration": 10, "velocity": 69}, {"time": 1425, "pitch": 57, "duration": 1, "velocity": 92}, {"time": 1425, "pitch": 62, "duration": 2, "velocity": 102}, {"time": 1425, "pitch": 66, "duration": 1, "velocity": 92}, {"time": 1431, "pitch": 41, "duration": 11, "velocity": 68}, {"time": 1437, "pitch": 53, "duration": 1, "velocity": 81}, {"time": 1437, "pitch": 57, "duration": 1, "velocity": 89}, {"time": 1437, "pitch": 60, "duration": 1, "velocity": 86}, {"time": 1440, "pitch": 53, "duration": 1, "velocity": 88}, {"time": 1440, "pitch": 57, "duration": 1, "velocity": 92}, {"time": 1440, "pitch": 60, "duration": 1, "velocity": 83}, {"time": 1443, "pitch": 48, "duration": 8, "velocity": 66}, {"time": 1449, "pitch": 53, "duration": 1, "velocity": 88}, {"time": 1449, "pitch": 57, "duration": 1, "velocity": 95}, {"time": 1449, "pitch": 60, "duration": 1, "velocity": 90}, {"time": 1455, "pitch": 40, "duration": 10, "velocity": 72}, {"time": 1461, "pitch": 59, "duration": 1, "velocity": 81}, {"time": 1461, "pitch": 62, "duration": 1, "velocity": 90}, {"time": 1461, "pitch": 64, "duration": 1, "velocity": 82}, {"time": 1461, "pitch": 68, "duration": 1, "velocity": 82}, {"time": 1464, "pitch": 59, "duration": 2, "velocity": 73}, {"time": 1464, "pitch": 62, "duration": 1, "velocity": 86}, {"time": 1464, "pitch": 64, "duration": 2, "velocity": 90}, {"time": 1464, "pitch": 68, "duration": 1, "velocity": 89}, {"time": 1467, "pitch": 52, "duration": 10, "velocity": 69}, {"time": 1473, "pitch": 59, "duration": 1, "velocity": 86}, {"time": 1473, "pitch": 62, "duration": 1, "velocity": 95}, {"time": 1473, "pitch": 64, "duration": 1, "velocity": 93}, {"time": 1473, "pitch": 68, "duration": 1, "velocity": 90}, {"time": 1479, "pitch": 45, "duration": 12, "velocity": 70}, {"time": 1485, "pitch": 57, "duration": 1, "velocity": 83}, {"time": 1485, "pitch": 60, "duration": 1, "velocity": 90}, {"time": 1485, "pitch": 64, "duration": 1, "velocity": 82}, {"time": 1488, "pitch": 57, "duration": 1, "velocity": 77}, {"time": 1488, "pitch": 60, "duration": 1, "velocity": 89}, {"time": 1488, "pitch": 64, "duration": 1, "velocity": 83}, {"time": 1491, "pitch": 52, "duration": 7, "velocity": 67}, {"time": 1497, "pitch": 57, "duration": 2, "velocity": 95}, {"time": 1497, "pitch": 60, "duration": 1, "velocity": 97}, {"time": 1497, "pitch": 64, "duration": 2, "velocity": 93}, {"time": 1503, "pitch": 43, "duration": 9, "velocity": 77}, {"time": 1509, "pitch": 62, "duration": 1, "velocity": 77}, {"time": 1509, "pitch": 67, "duration": 1, "velocity": 92}, {"time": 1509, "pitch": 71, "duration": 1, "velocity": 76}, {"time": 1512, "pitch": 50, "duration": 2, "velocity": 23}, {"time": 1512, "pitch": 62, "duration": 2, "velocity": 62}, {"time": 1512, "pitch": 67, "duration": 2, "velocity": 73}, {"time": 1512, "pitch": 71, "duration": 2, "velocity": 69}, {"time": 1515, "pitch": 55, "duration": 10, "velocity": 69}, {"time": 1521, "pitch": 62, "duration": 2, "velocity": 78}, {"time": 1521, "pitch": 67, "duration": 2, "velocity": 86}, {"time": 1521, "pitch": 71, "duration": 1, "velocity": 69}, {"time": 1527, "pitch": 46, "duration": 10, "velocity": 88}, {"time": 1533, "pitch": 58, "duration": 1, "velocity": 93}, {"time": 1533, "pitch": 62, "duration": 1, "velocity": 92}, {"time": 1533, "pitch": 65, "duration": 1, "velocity": 73}, {"time": 1536, "pitch": 58, "duration": 2, "velocity": 90}, {"time": 1536, "pitch": 62, "duration": 2, "velocity": 85}, {"time": 1536, "pitch": 65, "duration": 2, "velocity": 75}, {"time": 1539, "pitch": 53, "duration": 9, "velocity": 76}, {"time": 1545, "pitch": 58, "duration": 2, "velocity": 99}, {"time": 1545, "pitch": 62, "duration": 2, "velocity": 89}, {"time": 1545, "pitch": 65, "duration": 1, "velocity": 66}, {"time": 1551, "pitch": 45, "duration": 12, "velocity": 72}, {"time": 1557, "pitch": 57, "duration": 1, "velocity": 72}, {"time": 1557, "pitch": 60, "duration": 1, "velocity": 86}, {"time": 1557, "pitch": 64, "duration": 1, "velocity": 79}, {"time": 1560, "pitch": 57, "duration": 2, "velocity": 71}, {"time": 1560, "pitch": 60, "duration": 1, "velocity": 86}, {"time": 1560, "pitch": 64, "duration": 1, "velocity": 73}, {"time": 1563, "pitch": 52, "duration": 8, "velocity": 69}, {"time": 1569, "pitch": 57, "duration": 1, "velocity": 78}, {"time": 1569, "pitch": 60, "duration": 1, "velocity": 88}, {"time": 1569, "pitch": 64, "duration": 1, "velocity": 81}, {"time": 1575, "pitch": 41, "duration": 10, "velocity": 74}, {"time": 1581, "pitch": 57, "duration": 1, "velocity": 76}, {"time": 1581, "pitch": 60, "duration": 1, "velocity": 89}, {"time": 1581, "pitch": 65, "duration": 1, "velocity": 79}, {"time": 1584, "pitch": 57, "duration": 2, "velocity": 67}, {"time": 1584, "pitch": 60, "duration": 2, "velocity": 78}, {"time": 1584, "pitch": 65, "duration": 2, "velocity": 74}, {"time": 1587, "pitch": 53, "duration": 10, "velocity": 69}, {"time": 1593, "pitch": 57, "duration": 2, "velocity": 76}, {"time": 1593, "pitch": 60, "duration": 1, "velocity": 85}, {"time": 1593, "pitch": 65, "duration": 2, "velocity": 78}, {"time": 1599, "pitch": 41, "duration": 9, "velocity": 90}, {"time": 1605, "pitch": 57, "duration": 1, "velocity": 82}, {"time": 1605, "pitch": 60, "duration": 1, "velocity": 86}, {"time": 1605, "pitch": 65, "duration": 1, "velocity": 79}, {"time": 1608, "pitch": 57, "duration": 2, "velocity": 67}, {"time": 1608, "pitch": 60, "duration": 2, "velocity": 76}, {"time": 1608, "pitch": 65, "duration": 2, "velocity": 73}, {"time": 1611, "pitch": 53, "duration": 8, "velocity": 88}, {"time": 1617, "pitch": 57, "duration": 2, "velocity": 77}, {"time": 1617, "pitch": 60, "duration": 2, "velocity": 88}, {"time": 1617, "pitch": 65, "duration": 2, "velocity": 78}, {"time": 1623, "pitch": 45, "duration": 12, "velocity": 79}, {"time": 1629, "pitch": 57, "duration": 1, "velocity": 74}, {"time": 1629, "pitch": 60, "duration": 1, "velocity": 72}, {"time": 1629, "pitch": 64, "duration": 1, "velocity": 76}, {"time": 1632, "pitch": 57, "duration": 2, "velocity": 68}, {"time": 1632, "pitch": 60, "duration": 2, "velocity": 77}, {"time": 1632, "pitch": 64, "duration": 2, "velocity": 74}, {"time": 1635, "pitch": 52, "duration": 10, "velocity": 69}, {"time": 1641, "pitch": 57, "duration": 2, "velocity": 76}, {"time": 1641, "pitch": 60, "duration": 2, "velocity": 78}, {"time": 1641, "pitch": 64, "duration": 2, "velocity": 72}, {"time": 1647, "pitch": 45, "duration": 10, "velocity": 79}, {"time": 1653, "pitch": 57, "duration": 1, "velocity": 81}, {"time": 1653, "pitch": 60, "duration": 1, "velocity": 77}, {"time": 1653, "pitch": 64, "duration": 1, "velocity": 72}, {"time": 1656, "pitch": 57, "duration": 2, "velocity": 79}, {"time": 1656, "pitch": 60, "duration": 2, "velocity": 88}, {"time": 1656, "pitch": 64, "duration": 2, "velocity": 81}, {"time": 1659, "pitch": 52, "duration": 7, "velocity": 66}, {"time": 1665, "pitch": 57, "duration": 2, "velocity": 90}, {"time": 1665, "pitch": 60, "duration": 2, "velocity": 90}, {"time": 1665, "pitch": 64, "duration": 2, "velocity": 88}, {"time": 1671, "pitch": 41, "duration": 10, "velocity": 85}, {"time": 1677, "pitch": 57, "duration": 1, "velocity": 73}, {"time": 1677, "pitch": 60, "duration": 1, "velocity": 82}, {"time": 1677, "pitch": 65, "duration": 1, "velocity": 76}, {"time": 1680, "pitch": 57, "duration": 2, "velocity": 69}, {"time": 1680, "pitch": 60, "duration": 2, "velocity": 74}, {"time": 1680, "pitch": 65, "duration": 2, "velocity": 74}, {"time": 1683, "pitch": 53, "duration": 9, "velocity": 78}, {"time": 1689, "pitch": 57, "duration": 2, "velocity": 85}, {"time": 1689, "pitch": 60, "duration": 1, "velocity": 86}, {"time": 1689, "pitch": 65, "duration": 2, "velocity": 78}, {"time": 1695, "pitch": 41, "duration": 12, "velocity": 71}, {"time": 1701, "pitch": 57, "duration": 1, "velocity": 78}, {"time": 1701, "pitch": 60, "duration": 1, "velocity": 95}, {"time": 1701, "pitch": 65, "duration": 1, "velocity": 82}, {"time": 1704, "pitch": 57, "duration": 1, "velocity": 71}, {"time": 1704, "pitch": 60, "duration": 1, "velocity": 79}, {"time": 1704, "pitch": 65, "duration": 2, "velocity": 72}, {"time": 1707, "pitch": 53, "duration": 10, "velocity": 82}, {"time": 1713, "pitch": 57, "duration": 1, "velocity": 77}, {"time": 1713, "pitch": 60, "duration": 2, "velocity": 89}, {"time": 1713, "pitch": 65, "duration": 2, "velocity": 82}, {"time": 1719, "pitch": 41, "duration": 11, "velocity": 89}, {"time": 1725, "pitch": 57, "duration": 1, "velocity": 78}, {"time": 1725, "pitch": 60, "duration": 1, "velocity": 86}, {"time": 1725, "pitch": 65, "duration": 1, "velocity": 76}, {"time": 1728, "pitch": 57, "duration": 2, "velocity": 74}, {"time": 1728, "pitch": 60, "duration": 1, "velocity": 78}, {"time": 1728, "pitch": 65, "duration": 1, "velocity": 61}, {"time": 1731, "pitch": 43, "duration": 8, "velocity": 83}, {"time": 1737, "pitch": 55, "duration": 2, "velocity": 77}, {"time": 1737, "pitch": 59, "duration": 2, "velocity": 79}, {"time": 1737, "pitch": 62, "duration": 2, "velocity": 86}, {"time": 1743, "pitch": 45, "duration": 12, "velocity": 92}, {"time": 1749, "pitch": 57, "duration": 1, "velocity": 88}, {"time": 1749, "pitch": 60, "duration": 1, "velocity": 90}, {"time": 1749, "pitch": 64, "duration": 1, "velocity": 83}, {"time": 1752, "pitch": 57, "duration": 1, "velocity": 68}, {"time": 1752, "pitch": 60, "duration": 1, "velocity": 81}, {"time": 1752, "pitch": 64, "duration": 2, "velocity": 74}, {"time": 1755, "pitch": 52, "duration": 8, "velocity": 86}, {"time": 1761, "pitch": 57, "duration": 1, "velocity": 89}, {"time": 1761, "pitch": 60, "duration": 1, "velocity": 95}, {"time": 1761, "pitch": 64, "duration": 2, "velocity": 89}, {"time": 1767, "pitch": 45, "duration": 10, "velocity": 83}, {"time": 1773, "pitch": 57, "duration": 1, "velocity": 77}, {"time": 1773, "pitch": 60, "duration": 1, "velocity": 88}, {"time": 1773, "pitch": 64, "duration": 1, "velocity": 85}, {"time": 1776, "pitch": 57, "duration": 1, "velocity": 73}, {"time": 1776, "pitch": 60, "duration": 1, "velocity": 85}, {"time": 1776, "pitch": 64, "duration": 1, "velocity": 74}, {"time": 1779, "pitch": 52, "duration": 6, "velocity": 66}, {"time": 1785, "pitch": 57, "duration": 1, "velocity": 90}, {"time": 1785, "pitch": 60, "duration": 1, "velocity": 96}, {"time": 1785, "pitch": 64, "duration": 2, "velocity": 92}, {"time": 1791, "pitch": 38, "duration": 9, "velocity": 67}, {"time": 1797, "pitch": 57, "duration": 1, "velocity": 86}, {"time": 1797, "pitch": 62, "duration": 1, "velocity": 96}, {"time": 1797, "pitch": 66, "duration": 1, "velocity": 90}, {"time": 1800, "pitch": 45, "duration": 1, "velocity": 20}, {"time": 1800, "pitch": 57, "duration": 2, "velocity": 70}, {"time": 1800, "pitch": 62, "duration": 2, "velocity": 93}, {"time": 1800, "pitch": 66, "duration": 1, "velocity": 90}, {"time": 1803, "pitch": 50, "duration": 10, "velocity": 69}, {"time": 1809, "pitch": 57, "duration": 1, "velocity": 92}, {"time": 1809, "pitch": 62, "duration": 2, "velocity": 102}, {"time": 1809, "pitch": 66, "duration": 1, "velocity": 92}, {"time": 1815, "pitch": 41, "duration": 11, "velocity": 68}, {"time": 1821, "pitch": 53, "duration": 1, "velocity": 81}, {"time": 1821, "pitch": 57, "duration": 1, "velocity": 89}, {"time": 1821, "pitch": 60, "duration": 1, "velocity": 86}, {"time": 1824, "pitch": 53, "duration": 1, "velocity": 88}, {"time": 1824, "pitch": 57, "duration": 1, "velocity": 92}, {"time": 1824, "pitch": 60, "duration": 1, "velocity": 83}, {"time": 1827, "pitch": 48, "duration": 8, "velocity": 66}, {"time": 1833, "pitch": 53, "duration": 1, "velocity": 88}, {"time": 1833, "pitch": 57, "duration": 1, "velocity": 95}, {"time": 1833, "pitch": 60, "duration": 1, "velocity": 90}, {"time": 1839, "pitch": 40, "duration": 10, "velocity": 72}, {"time": 1845, "pitch": 59, "duration": 1, "velocity": 81}, {"time": 1845, "pitch": 62, "duration": 1, "velocity": 90}, {"time": 1845, "pitch": 64, "duration": 1, "velocity": 82}, {"time": 1845, "pitch": 68, "duration": 1, "velocity": 82}, {"time": 1848, "pitch": 59, "duration": 2, "velocity": 73}, {"time": 1848, "pitch": 62, "duration": 1, "velocity": 86}, {"time": 1848, "pitch": 64, "duration": 2, "velocity": 90}, {"time": 1848, "pitch": 68, "duration": 1, "velocity": 89}, {"time": 1851, "pitch": 52, "duration": 10, "velocity": 69}, {"time": 1857, "pitch": 59, "duration": 1, "velocity": 86}, {"time": 1857, "pitch": 62, "duration": 1, "velocity": 95}, {"time": 1857, "pitch": 64, "duration": 1, "velocity": 93}, {"time": 1857, "pitch": 68, "duration": 1, "velocity": 90}, {"time": 1863, "pitch": 45, "duration": 12, "velocity": 70}, {"time": 1869, "pitch": 57, "duration": 1, "velocity": 83}, {"time": 1869, "pitch": 60, "duration": 1, "velocity": 90}, {"time": 1869, "pitch": 64, "duration": 1, "velocity": 82}, {"time": 1872, "pitch": 57, "duration": 1, "velocity": 77}, {"time": 1872, "pitch": 60, "duration": 1, "velocity": 89}, {"time": 1872, "pitch": 64, "duration": 1, "velocity": 83}, {"time": 1875, "pitch": 52, "duration": 7, "velocity": 67}, {"time": 1881, "pitch": 57, "duration": 2, "velocity": 95}, {"time": 1881, "pitch": 60, "duration": 1, "velocity": 97}, {"time": 1881, "pitch": 64, "duration": 2, "velocity": 93}, {"time": 1887, "pitch": 38, "duration": 11, "velocity": 69}, {"time": 1893, "pitch": 57, "duration": 1, "velocity": 82}, {"time": 1893, "pitch": 62, "duration": 1, "velocity": 97}, {"time": 1893, "pitch": 66, "duration": 1, "velocity": 90}, {"time": 1896, "pitch": 57, "duration": 2, "velocity": 76}, {"time": 1896, "pitch": 62, "duration": 2, "velocity": 93}, {"time": 1896, "pitch": 66, "duration": 2, "velocity": 93}, {"time": 1899, "pitch": 50, "duration": 9, "velocity": 66}, {"time": 1905, "pitch": 57, "duration": 1, "velocity": 93}, {"time": 1905, "pitch": 62, "duration": 1, "velocity": 102}, {"time": 1905, "pitch": 66, "duration": 1, "velocity": 93}, {"time": 1911, "pitch": 40, "duration": 11, "velocity": 71}, {"time": 1917, "pitch": 52, "duration": 1, "velocity": 79}, {"time": 1917, "pitch": 56, "duration": 1, "velocity": 90}, {"time": 1917, "pitch": 59, "duration": 1, "velocity": 79}, {"time": 1920, "pitch": 52, "duration": 2, "velocity": 74}, {"time": 1920, "pitch": 56, "duration": 1, "velocity": 83}, {"time": 1920, "pitch": 59, "duration": 2, "velocity": 82}, {"time": 1923, "pitch": 47, "duration": 9, "velocity": 67}, {"time": 1929, "pitch": 52, "duration": 1, "velocity": 90}, {"time": 1929, "pitch": 56, "duration": 1, "velocity": 95}, {"time": 1929, "pitch": 59, "duration": 2, "velocity": 92}, {"time": 1935, "pitch": 45, "duration": 11, "velocity": 64}, {"time": 1941, "pitch": 57, "duration": 1, "velocity": 95}, {"time": 1941, "pitch": 60, "duration": 1, "velocity": 95}, {"time": 1941, "pitch": 64, "duration": 1, "velocity": 86}, {"time": 1944, "pitch": 57, "duration": 2, "velocity": 76}, {"time": 1944, "pitch": 60, "duration": 1, "velocity": 88}, {"time": 1944, "pitch": 64, "duration": 2, "velocity": 78}, {"time": 1947, "pitch": 52, "duration": 10, "velocity": 67}, {"time": 1953, "pitch": 57, "duration": 1, "velocity": 95}, {"time": 1953, "pitch": 60, "duration": 1, "velocity": 97}, {"time": 1953, "pitch": 64, "duration": 1, "velocity": 90}, {"time": 1959, "pitch": 45, "duration": 5, "velocity": 93}, {"time": 1962, "pitch": 52, "duration": 8, "velocity": 78}, {"time": 1965, "pitch": 57, "duration": 1, "velocity": 92}, {"time": 1965, "pitch": 60, "duration": 1, "velocity": 93}, {"time": 1965, "pitch": 64, "duration": 1, "velocity": 85}, {"time": 1968, "pitch": 57, "duration": 1, "velocity": 75}, {"time": 1968, "pitch": 60, "duration": 1, "velocity": 89}, {"time": 1968, "pitch": 64, "duration": 1, "velocity": 81}, {"time": 1971, "pitch": 45, "duration": 10, "velocity": 82}, {"time": 1977, "pitch": 57, "duration": 1, "velocity": 88}, {"time": 1977, "pitch": 60, "duration": 1, "velocity": 92}, {"time": 1977, "pitch": 64, "duration": 1, "velocity": 78}, {"time": 1980, "pitch": 57, "duration": 2, "velocity": 72}, {"time": 1980, "pitch": 60, "duration": 1, "velocity": 77}, {"time": 1980, "pitch": 64, "duration": 2, "velocity": 76}, {"time": 1983, "pitch": 52, "duration": 12, "velocity": 59}, {"time": 1989, "pitch": 57, "duration": 1, "velocity": 76}, {"time": 1989, "pitch": 60, "duration": 1, "velocity": 86}, {"time": 1989, "pitch": 64, "duration": 1, "velocity": 79}, {"time": 1992, "pitch": 57, "duration": 2, "velocity": 74}, {"time": 1992, "pitch": 60, "duration": 1, "velocity": 88}, {"time": 1992, "pitch": 64, "duration": 1, "velocity": 76}, {"time": 1995, "pitch": 45, "duration": 6, "velocity": 79}, {"time": 1998, "pitch": 52, "duration": 6, "velocity": 69}, {"time": 2001, "pitch": 57, "duration": 1, "velocity": 86}, {"time": 2001, "pitch": 60, "duration": 1, "velocity": 95}, {"time": 2001, "pitch": 64, "duration": 2, "velocity": 92}, {"time": 2004, "pitch": 57, "duration": 2, "velocity": 73}, {"time": 2004, "pitch": 60, "duration": 2, "velocity": 75}, {"time": 2004, "pitch": 64, "duration": 3, "velocity": 71}, {"time": 2007, "pitch": 43, "duration": 4, "velocity": 99}, {"time": 2010, "pitch": 50, "duration": 8, "velocity": 86}, {"time": 2013, "pitch": 55, "duration": 1, "velocity": 61}, {"time": 2013, "pitch": 59, "duration": 1, "velocity": 82}, {"time": 2013, "pitch": 62, "duration": 1, "velocity": 81}, {"time": 2016, "pitch": 55, "duration": 1, "velocity": 83}, {"time": 2016, "pitch": 59, "duration": 1, "velocity": 93}, {"time": 2016, "pitch": 62, "duration": 1, "velocity": 93}, {"time": 2019, "pitch": 43, "duration": 7, "velocity": 82}, {"time": 2025, "pitch": 55, "duration": 1, "velocity": 89}, {"time": 2025, "pitch": 59, "duration": 1, "velocity": 90}, {"time": 2025, "pitch": 62, "duration": 1, "velocity": 85}, {"time": 2031, "pitch": 48, "duration": 10, "velocity": 74}, {"time": 2034, "pitch": 55, "duration": 4, "velocity": 88}, {"time": 2037, "pitch": 60, "duration": 1, "velocity": 93}, {"time": 2037, "pitch": 64, "duration": 1, "velocity": 88}, {"time": 2040, "pitch": 55, "duration": 2, "velocity": 95}, {"time": 2040, "pitch": 60, "duration": 2, "velocity": 93}, {"time": 2040, "pitch": 64, "duration": 2, "velocity": 86}, {"time": 2043, "pitch": 48, "duration": 7, "velocity": 85}, {"time": 2049, "pitch": 55, "duration": 2, "velocity": 93}, {"time": 2049, "pitch": 60, "duration": 2, "velocity": 100}, {"time": 2049, "pitch": 64, "duration": 2, "velocity": 92}, {"time": 2055, "pitch": 45, "duration": 5, "velocity": 82}, {"time": 2058, "pitch": 52, "duration": 8, "velocity": 35}, {"time": 2061, "pitch": 57, "duration": 1, "velocity": 92}, {"time": 2061, "pitch": 60, "duration": 1, "velocity": 93}, {"time": 2061, "pitch": 64, "duration": 1, "velocity": 92}, {"time": 2064, "pitch": 57, "duration": 2, "velocity": 63}, {"time": 2064, "pitch": 60, "duration": 2, "velocity": 75}, {"time": 2064, "pitch": 64, "duration": 2, "velocity": 76}, {"time": 2067, "pitch": 45, "duration": 5, "velocity": 83}, {"time": 2070, "pitch": 52, "duration": 4, "velocity": 100}, {"time": 2073, "pitch": 57, "duration": 1, "velocity": 81}, {"time": 2073, "pitch": 60, "duration": 1, "velocity": 96}, {"time": 2073, "pitch": 64, "duration": 1, "velocity": 95}, {"time": 2076, "pitch": 57, "duration": 2, "velocity": 62}, {"time": 2076, "pitch": 60, "duration": 2, "velocity": 81}, {"time": 2076, "pitch": 64, "duration": 2, "velocity": 78}, {"time": 2079, "pitch": 38, "duration": 10, "velocity": 88}, {"time": 2085, "pitch": 57, "duration": 1, "velocity": 76}, {"time": 2085, "pitch": 62, "duration": 1, "velocity": 96}, {"time": 2085, "pitch": 66, "duration": 1, "velocity": 95}, {"time": 2088, "pitch": 45, "duration": 2, "velocity": 23}, {"time": 2088, "pitch": 57, "duration": 2, "velocity": 75}, {"time": 2088, "pitch": 62, "duration": 2, "velocity": 93}, {"time": 2088, "pitch": 66, "duration": 2, "velocity": 93}, {"time": 2091, "pitch": 50, "duration": 10, "velocity": 85}, {"time": 2094, "pitch": 57, "duration": 2, "velocity": 85}, {"time": 2094, "pitch": 62, "duration": 3, "velocity": 92}, {"time": 2094, "pitch": 66, "duration": 2, "velocity": 89}, {"time": 2100, "pitch": 57, "duration": 2, "velocity": 92}, {"time": 2100, "pitch": 62, "duration": 2, "velocity": 97}, {"time": 2100, "pitch": 66, "duration": 1, "velocity": 93}, {"time": 2103, "pitch": 40, "duration": 10, "velocity": 82}, {"time": 2109, "pitch": 52, "duration": 1, "velocity": 74}, {"time": 2109, "pitch": 56, "duration": 1, "velocity": 90}, {"time": 2109, "pitch": 59, "duration": 1, "velocity": 78}, {"time": 2112, "pitch": 52, "duration": 1, "velocity": 68}, {"time": 2112, "pitch": 56, "duration": 1, "velocity": 82}, {"time": 2112, "pitch": 59, "duration": 1, "velocity": 77}, {"time": 2115, "pitch": 47, "duration": 7, "velocity": 69}, {"time": 2121, "pitch": 52, "duration": 1, "velocity": 78}, {"time": 2121, "pitch": 56, "duration": 1, "velocity": 93}, {"time": 2121, "pitch": 59, "duration": 2, "velocity": 92}, {"time": 2127, "pitch": 45, "duration": 12, "velocity": 72}, {"time": 2130, "pitch": 57, "duration": 3, "velocity": 79}, {"time": 2130, "pitch": 60, "duration": 3, "velocity": 83}, {"time": 2130, "pitch": 64, "duration": 3, "velocity": 82}, {"time": 2136, "pitch": 57, "duration": 3, "velocity": 85}, {"time": 2136, "pitch": 60, "duration": 2, "velocity": 83}, {"time": 2136, "pitch": 64, "duration": 3, "velocity": 74}, {"time": 2139, "pitch": 52, "duration": 11, "velocity": 90}, {"time": 2145, "pitch": 57, "duration": 2, "velocity": 93}, {"time": 2145, "pitch": 60, "duration": 2, "velocity": 95}, {"time": 2145, "pitch": 64, "duration": 2, "velocity": 88}, {"time": 2151, "pitch": 45, "duration": 11, "velocity": 73}, {"time": 2157, "pitch": 57, "duration": 1, "velocity": 82}, {"time": 2157, "pitch": 60, "duration": 1, "velocity": 82}, {"time": 2157, "pitch": 64, "duration": 1, "velocity": 82}, {"time": 2160, "pitch": 57, "duration": 1, "velocity": 74}, {"time": 2160, "pitch": 60, "duration": 1, "velocity": 86}, {"time": 2160, "pitch": 64, "duration": 1, "velocity": 79}, {"time": 2163, "pitch": 52, "duration": 7, "velocity": 67}, {"time": 2169, "pitch": 57, "duration": 1, "velocity": 96}, {"time": 2169, "pitch": 60, "duration": 1, "velocity": 99}, {"time": 2169, "pitch": 64, "duration": 2, "velocity": 89}, {"time": 2175, "pitch": 38, "duration": 9, "velocity": 82}, {"time": 2181, "pitch": 45, "duration": 3, "velocity": 27}, {"time": 2181, "pitch": 57, "duration": 1, "velocity": 85}, {"time": 2181, "pitch": 62, "duration": 1, "velocity": 99}, {"time": 2181, "pitch": 66, "duration": 1, "velocity": 90}, {"time": 2184, "pitch": 57, "duration": 1, "velocity": 74}, {"time": 2184, "pitch": 62, "duration": 1, "velocity": 95}, {"time": 2184, "pitch": 66, "duration": 1, "velocity": 95}, {"time": 2187, "pitch": 50, "duration": 11, "velocity": 83}, {"time": 2190, "pitch": 57, "duration": 2, "velocity": 92}, {"time": 2190, "pitch": 62, "duration": 1, "velocity": 100}, {"time": 2190, "pitch": 66, "duration": 2, "velocity": 100}, {"time": 2196, "pitch": 57, "duration": 2, "velocity": 83}, {"time": 2196, "pitch": 62, "duration": 2, "velocity": 96}, {"time": 2196, "pitch": 66, "duration": 2, "velocity": 88}, {"time": 2199, "pitch": 41, "duration": 12, "velocity": 75}, {"time": 2205, "pitch": 53, "duration": 1, "velocity": 73}, {"time": 2205, "pitch": 57, "duration": 1, "velocity": 96}, {"time": 2205, "pitch": 60, "duration": 1, "velocity": 81}, {"time": 2208, "pitch": 53, "duration": 2, "velocity": 69}, {"time": 2208, "pitch": 57, "duration": 2, "velocity": 82}, {"time": 2208, "pitch": 60, "duration": 2, "velocity": 78}, {"time": 2211, "pitch": 48, "duration": 7, "velocity": 70}, {"time": 2217, "pitch": 53, "duration": 1, "velocity": 89}, {"time": 2217, "pitch": 57, "duration": 1, "velocity": 96}, {"time": 2217, "pitch": 60, "duration": 1, "velocity": 89}, {"time": 2223, "pitch": 40, "duration": 10, "velocity": 81}, {"time": 2229, "pitch": 59, "duration": 1, "velocity": 78}, {"time": 2229, "pitch": 62, "duration": 1, "velocity": 79}, {"time": 2229, "pitch": 64, "duration": 1, "velocity": 76}, {"time": 2229, "pitch": 68, "duration": 1, "velocity": 74}, {"time": 2232, "pitch": 59, "duration": 2, "velocity": 73}, {"time": 2232, "pitch": 62, "duration": 2, "velocity": 85}, {"time": 2232, "pitch": 64, "duration": 1, "velocity": 92}, {"time": 2232, "pitch": 68, "duration": 1, "velocity": 92}, {"time": 2235, "pitch": 52, "duration": 8, "velocity": 75}, {"time": 2241, "pitch": 59, "duration": 1, "velocity": 83}, {"time": 2241, "pitch": 62, "duration": 1, "velocity": 93}, {"time": 2241, "pitch": 64, "duration": 2, "velocity": 93}, {"time": 2241, "pitch": 68, "duration": 2, "velocity": 92}, {"time": 2247, "pitch": 45, "duration": 10, "velocity": 86}, {"time": 2253, "pitch": 57, "duration": 1, "velocity": 85}, {"time": 2253, "pitch": 60, "duration": 1, "velocity": 86}, {"time": 2253, "pitch": 64, "duration": 1, "velocity": 73}, {"time": 2256, "pitch": 57, "duration": 1, "velocity": 63}, {"time": 2256, "pitch": 60, "duration": 1, "velocity": 71}, {"time": 2256, "pitch": 64, "duration": 1, "velocity": 72}, {"time": 2259, "pitch": 52, "duration": 6, "velocity": 85}, {"time": 2262, "pitch": 57, "duration": 2, "velocity": 86}, {"time": 2262, "pitch": 60, "duration": 2, "velocity": 93}, {"time": 2262, "pitch": 64, "duration": 3, "velocity": 88}, {"time": 2268, "pitch": 57, "duration": 3, "velocity": 86}, {"time": 2268, "pitch": 60, "duration": 3, "velocity": 86}, {"time": 2268, "pitch": 64, "duration": 3, "velocity": 76}, {"time": 2271, "pitch": 38, "duration": 9, "velocity": 81}, {"time": 2277, "pitch": 57, "duration": 1, "velocity": 82}, {"time": 2277, "pitch": 62, "duration": 1, "velocity": 95}, {"time": 2277, "pitch": 66, "duration": 1, "velocity": 83}, {"time": 2280, "pitch": 57, "duration": 2, "velocity": 73}, {"time": 2280, "pitch": 62, "duration": 2, "velocity": 86}, {"time": 2280, "pitch": 66, "duration": 2, "velocity": 83}, {"time": 2283, "pitch": 50, "duration": 10, "velocity": 82}, {"time": 2289, "pitch": 57, "duration": 1, "velocity": 86}, {"time": 2289, "pitch": 62, "duration": 2, "velocity": 95}, {"time": 2289, "pitch": 66, "duration": 2, "velocity": 85}, {"time": 2295, "pitch": 40, "duration": 10, "velocity": 76}, {"time": 2301, "pitch": 59, "duration": 1, "velocity": 73}, {"time": 2301, "pitch": 62, "duration": 1, "velocity": 81}, {"time": 2301, "pitch": 64, "duration": 1, "velocity": 85}, {"time": 2301, "pitch": 68, "duration": 1, "velocity": 81}, {"time": 2304, "pitch": 59, "duration": 2, "velocity": 73}, {"time": 2304, "pitch": 62, "duration": 1, "velocity": 83}, {"time": 2304, "pitch": 64, "duration": 1, "velocity": 88}, {"time": 2304, "pitch": 68, "duration": 1, "velocity": 89}, {"time": 2307, "pitch": 52, "duration": 10, "velocity": 66}, {"time": 2313, "pitch": 59, "duration": 2, "velocity": 75}, {"time": 2313, "pitch": 62, "duration": 1, "velocity": 83}, {"time": 2313, "pitch": 64, "duration": 2, "velocity": 89}, {"time": 2313, "pitch": 68, "duration": 1, "velocity": 86}, {"time": 2319, "pitch": 45, "duration": 11, "velocity": 76}, {"time": 2325, "pitch": 57, "duration": 1, "velocity": 85}, {"time": 2325, "pitch": 60, "duration": 1, "velocity": 90}, {"time": 2325, "pitch": 64, "duration": 1, "velocity": 82}, {"time": 2328, "pitch": 57, "duration": 2, "velocity": 72}, {"time": 2328, "pitch": 60, "duration": 2, "velocity": 83}, {"time": 2328, "pitch": 64, "duration": 2, "velocity": 75}, {"time": 2331, "pitch": 52, "duration": 10, "velocity": 81}, {"time": 2334, "pitch": 57, "duration": 2, "velocity": 88}, {"time": 2334, "pitch": 60, "duration": 2, "velocity": 93}, {"time": 2334, "pitch": 64, "duration": 2, "velocity": 86}, {"time": 2340, "pitch": 57, "duration": 2, "velocity": 95}, {"time": 2340, "pitch": 60, "duration": 2, "velocity": 93}, {"time": 2340, "pitch": 64, "duration": 2, "velocity": 90}, {"time": 2343, "pitch": 45, "duration": 5, "velocity": 93}, {"time": 2346, "pitch": 52, "duration": 8, "velocity": 78}, {"time": 2349, "pitch": 57, "duration": 1, "velocity": 92}, {"time": 2349, "pitch": 60, "duration": 1, "velocity": 93}, {"time": 2349, "pitch": 64, "duration": 1, "velocity": 85}, {"time": 2352, "pitch": 57, "duration": 1, "velocity": 75}, {"time": 2352, "pitch": 60, "duration": 1, "velocity": 89}, {"time": 2352, "pitch": 64, "duration": 1, "velocity": 81}, {"time": 2355, "pitch": 45, "duration": 10, "velocity": 82}, {"time": 2361, "pitch": 57, "duration": 1, "velocity": 88}, {"time": 2361, "pitch": 60, "duration": 1, "velocity": 92}, {"time": 2361, "pitch": 64, "duration": 1, "velocity": 78}, {"time": 2364, "pitch": 57, "duration": 2, "velocity": 72}, {"time": 2364, "pitch": 60, "duration": 1, "velocity": 77}, {"time": 2364, "pitch": 64, "duration": 2, "velocity": 76}, {"time": 2367, "pitch": 52, "duration": 12, "velocity": 59}, {"time": 2373, "pitch": 57, "duration": 1, "velocity": 76}, {"time": 2373, "pitch": 60, "duration": 1, "velocity": 86}, {"time": 2373, "pitch": 64, "duration": 1, "velocity": 79}, {"time": 2376, "pitch": 57, "duration": 2, "velocity": 74}, {"time": 2376, "pitch": 60, "duration": 1, "velocity": 88}, {"time": 2376, "pitch": 64, "duration": 1, "velocity": 76}, {"time": 2379, "pitch": 45, "duration": 6, "velocity": 79}, {"time": 2382, "pitch": 52, "duration": 6, "velocity": 69}, {"time": 2385, "pitch": 57, "duration": 1, "velocity": 86}, {"time": 2385, "pitch": 60, "duration": 1, "velocity": 95}, {"time": 2385, "pitch": 64, "duration": 2, "velocity": 92}, {"time": 2388, "pitch": 57, "duration": 2, "velocity": 73}, {"time": 2388, "pitch": 60, "duration": 2, "velocity": 75}, {"time": 2388, "pitch": 64, "duration": 3, "velocity": 71}, {"time": 2391, "pitch": 43, "duration": 4, "velocity": 99}, {"time": 2394, "pitch": 50, "duration": 8, "velocity": 86}, {"time": 2397, "pitch": 55, "duration": 1, "velocity": 61}, {"time": 2397, "pitch": 59, "duration": 1, "velocity": 82}, {"time": 2397, "pitch": 62, "duration": 1, "velocity": 81}, {"time": 2400, "pitch": 55, "duration": 1, "velocity": 83}, {"time": 2400, "pitch": 59, "duration": 1, "velocity": 93}, {"time": 2400, "pitch": 62, "duration": 1, "velocity": 93}, {"time": 2403, "pitch": 43, "duration": 7, "velocity": 82}, {"time": 2409, "pitch": 55, "duration": 1, "velocity": 89}, {"time": 2409, "pitch": 59, "duration": 1, "velocity": 90}, {"time": 2409, "pitch": 62, "duration": 1, "velocity": 85}, {"time": 2415, "pitch": 48, "duration": 10, "velocity": 74}, {"time": 2418, "pitch": 55, "duration": 4, "velocity": 88}, {"time": 2421, "pitch": 60, "duration": 1, "velocity": 93}, {"time": 2421, "pitch": 64, "duration": 1, "velocity": 88}, {"time": 2424, "pitch": 55, "duration": 2, "velocity": 95}, {"time": 2424, "pitch": 60, "duration": 2, "velocity": 93}, {"time": 2424, "pitch": 64, "duration": 2, "velocity": 86}, {"time": 2427, "pitch": 48, "duration": 7, "velocity": 85}, {"time": 2433, "pitch": 55, "duration": 2, "velocity": 93}, {"time": 2433, "pitch": 60, "duration": 2, "velocity": 100}, {"time": 2433, "pitch": 64, "duration": 2, "velocity": 92}, {"time": 2439, "pitch": 45, "duration": 5, "velocity": 82}, {"time": 2442, "pitch": 52, "duration": 8, "velocity": 35}, {"time": 2445, "pitch": 57, "duration": 1, "velocity": 92}, {"time": 2445, "pitch": 60, "duration": 1, "velocity": 93}, {"time": 2445, "pitch": 64, "duration": 1, "velocity": 92}, {"time": 2448, "pitch": 57, "duration": 2, "velocity": 63}, {"time": 2448, "pitch": 60, "duration": 2, "velocity": 75}, {"time": 2448, "pitch": 64, "duration": 2, "velocity": 76}, {"time": 2451, "pitch": 45, "duration": 5, "velocity": 83}, {"time": 2454, "pitch": 52, "duration": 4, "velocity": 100}, {"time": 2457, "pitch": 57, "duration": 1, "velocity": 81}, {"time": 2457, "pitch": 60, "duration": 1, "velocity": 96}, {"time": 2457, "pitch": 64, "duration": 1, "velocity": 95}, {"time": 2460, "pitch": 57, "duration": 2, "velocity": 62}, {"time": 2460, "pitch": 60, "duration": 2, "velocity": 81}, {"time": 2460, "pitch": 64, "duration": 2, "velocity": 78}, {"time": 2463, "pitch": 38, "duration": 10, "velocity": 88}, {"time": 2469, "pitch": 57, "duration": 1, "velocity": 76}, {"time": 2469, "pitch": 62, "duration": 1, "velocity": 96}, {"time": 2469, "pitch": 66, "duration": 1, "velocity": 95}, {"time": 2472, "pitch": 45, "duration": 2, "velocity": 23}, {"time": 2472, "pitch": 57, "duration": 2, "velocity": 75}, {"time": 2472, "pitch": 62, "duration": 2, "velocity": 93}, {"time": 2472, "pitch": 66, "duration": 2, "velocity": 93}, {"time": 2475, "pitch": 50, "duration": 10, "velocity": 85}, {"time": 2478, "pitch": 57, "duration": 2, "velocity": 85}, {"time": 2478, "pitch": 62, "duration": 3, "velocity": 92}, {"time": 2478, "pitch": 66, "duration": 2, "velocity": 89}, {"time": 2484, "pitch": 57, "duration": 2, "velocity": 92}, {"time": 2484, "pitch": 62, "duration": 2, "velocity": 97}, {"time": 2484, "pitch": 66, "duration": 1, "velocity": 93}, {"time": 2487, "pitch": 40, "duration": 10, "velocity": 82}, {"time": 2493, "pitch": 52, "duration": 1, "velocity": 74}, {"time": 2493, "pitch": 56, "duration": 1, "velocity": 90}, {"time": 2493, "pitch": 59, "duration": 1, "velocity": 78}, {"time": 2496, "pitch": 52, "duration": 1, "velocity": 68}, {"time": 2496, "pitch": 56, "duration": 1, "velocity": 82}, {"time": 2496, "pitch": 59, "duration": 1, "velocity": 77}, {"time": 2499, "pitch": 47, "duration": 7, "velocity": 69}, {"time": 2505, "pitch": 52, "duration": 1, "velocity": 78}, {"time": 2505, "pitch": 56, "duration": 1, "velocity": 93}, {"time": 2505, "pitch": 59, "duration": 2, "velocity": 92}, {"time": 2511, "pitch": 45, "duration": 12, "velocity": 72}, {"time": 2514, "pitch": 57, "duration": 3, "velocity": 79}, {"time": 2514, "pitch": 60, "duration": 3, "velocity": 83}, {"time": 2514, "pitch": 64, "duration": 3, "velocity": 82}, {"time": 2520, "pitch": 57, "duration": 3, "velocity": 85}, {"time": 2520, "pitch": 60, "duration": 2, "velocity": 83}, {"time": 2520, "pitch": 64, "duration": 3, "velocity": 74}, {"time": 2523, "pitch": 52, "duration": 11, "velocity": 90}, {"time": 2529, "pitch": 57, "duration": 2, "velocity": 93}, {"time": 2529, "pitch": 60, "duration": 2, "velocity": 95}, {"time": 2529, "pitch": 64, "duration": 2, "velocity": 88}, {"time": 2535, "pitch": 45, "duration": 12, "velocity": 81}, {"time": 2541, "pitch": 57, "duration": 1, "velocity": 78}, {"time": 2541, "pitch": 60, "duration": 1, "velocity": 86}, {"time": 2541, "pitch": 64, "duration": 1, "velocity": 74}, {"time": 2544, "pitch": 57, "duration": 1, "velocity": 76}, {"time": 2544, "pitch": 60, "duration": 1, "velocity": 83}, {"time": 2544, "pitch": 64, "duration": 1, "velocity": 79}, {"time": 2547, "pitch": 52, "duration": 11, "velocity": 67}, {"time": 2553, "pitch": 64, "duration": 1, "velocity": 88}, {"time": 2553, "pitch": 69, "duration": 1, "velocity": 95}, {"time": 2553, "pitch": 72, "duration": 1, "velocity": 86}, {"time": 2559, "pitch": 45, "duration": 12, "velocity": 61}, {"time": 2565, "pitch": 57, "duration": 1, "velocity": 79}, {"time": 2565, "pitch": 60, "duration": 1, "velocity": 86}, {"time": 2565, "pitch": 64, "duration": 1, "velocity": 83}, {"time": 2568, "pitch": 57, "duration": 1, "velocity": 72}, {"time": 2568, "pitch": 60, "duration": 1, "velocity": 85}, {"time": 2568, "pitch": 64, "duration": 1, "velocity": 79}, {"time": 2571, "pitch": 52, "duration": 6, "velocity": 68}, {"time": 2577, "pitch": 57, "duration": 1, "velocity": 90}, {"time": 2577, "pitch": 60, "duration": 1, "velocity": 90}, {"time": 2577, "pitch": 64, "duration": 1, "velocity": 85}, {"time": 2583, "pitch": 41, "duration": 10, "velocity": 71}, {"time": 2589, "pitch": 57, "duration": 1, "velocity": 72}, {"time": 2589, "pitch": 60, "duration": 1, "velocity": 81}, {"time": 2589, "pitch": 65, "duration": 1, "velocity": 77}, {"time": 2592, "pitch": 57, "duration": 1, "velocity": 73}, {"time": 2592, "pitch": 60, "duration": 1, "velocity": 79}, {"time": 2592, "pitch": 65, "duration": 2, "velocity": 78}, {"time": 2595, "pitch": 48, "duration": 7, "velocity": 72}, {"time": 2601, "pitch": 57, "duration": 1, "velocity": 88}, {"time": 2601, "pitch": 60, "duration": 1, "velocity": 89}, {"time": 2601, "pitch": 65, "duration": 1, "velocity": 86}, {"time": 2607, "pitch": 45, "duration": 13, "velocity": 76}, {"time": 2613, "pitch": 57, "duration": 1, "velocity": 86}, {"time": 2613, "pitch": 60, "duration": 1, "velocity": 85}, {"time": 2613, "pitch": 64, "duration": 1, "velocity": 72}, {"time": 2616, "pitch": 57, "duration": 1, "velocity": 63}, {"time": 2616, "pitch": 60, "duration": 1, "velocity": 71}, {"time": 2616, "pitch": 64, "duration": 1, "velocity": 69}, {"time": 2619, "pitch": 52, "duration": 12, "velocity": 71}, {"time": 2625, "pitch": 64, "duration": 3, "velocity": 82}, {"time": 2625, "pitch": 69, "duration": 2, "velocity": 81}, {"time": 2625, "pitch": 72, "duration": 3, "velocity": 77}, {"time": 2631, "pitch": 45, "duration": 11, "velocity": 75}, {"time": 2637, "pitch": 57, "duration": 2, "velocity": 77}, {"time": 2637, "pitch": 60, "duration": 1, "velocity": 92}, {"time": 2637, "pitch": 64, "duration": 1, "velocity": 78}, {"time": 2640, "pitch": 57, "duration": 1, "velocity": 66}, {"time": 2640, "pitch": 60, "duration": 1, "velocity": 78}, {"time": 2640, "pitch": 64, "duration": 2, "velocity": 74}, {"time": 2643, "pitch": 52, "duration": 11, "velocity": 67}, {"time": 2649, "pitch": 57, "duration": 1, "velocity": 83}, {"time": 2649, "pitch": 60, "duration": 1, "velocity": 89}, {"time": 2649, "pitch": 64, "duration": 2, "velocity": 78}, {"time": 2655, "pitch": 45, "duration": 12, "velocity": 75}, {"time": 2661, "pitch": 57, "duration": 1, "velocity": 77}, {"time": 2661, "pitch": 60, "duration": 1, "velocity": 89}, {"time": 2661, "pitch": 64, "duration": 1, "velocity": 76}, {"time": 2664, "pitch": 57, "duration": 1, "velocity": 76}, {"time": 2664, "pitch": 60, "duration": 1, "velocity": 88}, {"time": 2664, "pitch": 64, "duration": 1, "velocity": 78}, {"time": 2667, "pitch": 52, "duration": 6, "velocity": 63}, {"time": 2673, "pitch": 57, "duration": 2, "velocity": 88}, {"time": 2673, "pitch": 60, "duration": 2, "velocity": 92}, {"time": 2673, "pitch": 64, "duration": 2, "velocity": 82}, {"time": 2679, "pitch": 41, "duration": 10, "velocity": 83}, {"time": 2685, "pitch": 57, "duration": 1, "velocity": 78}, {"time": 2685, "pitch": 60, "duration": 1, "velocity": 83}, {"time": 2685, "pitch": 65, "duration": 1, "velocity": 52}, {"time": 2688, "pitch": 57, "duration": 1, "velocity": 66}, {"time": 2688, "pitch": 60, "duration": 1, "velocity": 83}, {"time": 2688, "pitch": 65, "duration": 1, "velocity": 78}, {"time": 2691, "pitch": 48, "duration": 10, "velocity": 67}, {"time": 2697, "pitch": 57, "duration": 1, "velocity": 85}, {"time": 2697, "pitch": 60, "duration": 1, "velocity": 92}, {"time": 2697, "pitch": 65, "duration": 1, "velocity": 75}, {"time": 2697, "pitch": 66, "duration": 1, "velocity": 75}, {"time": 2703, "pitch": 45, "duration": 12, "velocity": 67}, {"time": 2709, "pitch": 57, "duration": 1, "velocity": 81}, {"time": 2709, "pitch": 60, "duration": 1, "velocity": 83}, {"time": 2709, "pitch": 64, "duration": 1, "velocity": 81}, {"time": 2712, "pitch": 57, "duration": 1, "velocity": 79}, {"time": 2712, "pitch": 60, "duration": 1, "velocity": 89}, {"time": 2712, "pitch": 64, "duration": 2, "velocity": 81}, {"time": 2715, "pitch": 52, "duration": 9, "velocity": 78}, {"time": 2721, "pitch": 57, "duration": 1, "velocity": 93}, {"time": 2721, "pitch": 60, "duration": 1, "velocity": 96}, {"time": 2721, "pitch": 64, "duration": 1, "velocity": 89}, {"time": 2727, "pitch": 45, "duration": 12, "velocity": 81}, {"time": 2733, "pitch": 57, "duration": 1, "velocity": 78}, {"time": 2733, "pitch": 60, "duration": 1, "velocity": 86}, {"time": 2733, "pitch": 64, "duration": 1, "velocity": 74}, {"time": 2736, "pitch": 57, "duration": 1, "velocity": 76}, {"time": 2736, "pitch": 60, "duration": 1, "velocity": 83}, {"time": 2736, "pitch": 64, "duration": 1, "velocity": 79}, {"time": 2739, "pitch": 52, "duration": 11, "velocity": 67}, {"time": 2745, "pitch": 64, "duration": 1, "velocity": 88}, {"time": 2745, "pitch": 69, "duration": 1, "velocity": 95}, {"time": 2745, "pitch": 72, "duration": 1, "velocity": 86}, {"time": 2751, "pitch": 45, "duration": 12, "velocity": 61}, {"time": 2757, "pitch": 57, "duration": 1, "velocity": 79}, {"time": 2757, "pitch": 60, "duration": 1, "velocity": 86}, {"time": 2757, "pitch": 64, "duration": 1, "velocity": 83}, {"time": 2760, "pitch": 57, "duration": 1, "velocity": 72}, {"time": 2760, "pitch": 60, "duration": 1, "velocity": 85}, {"time": 2760, "pitch": 64, "duration": 1, "velocity": 79}, {"time": 2763, "pitch": 52, "duration": 6, "velocity": 68}, {"time": 2769, "pitch": 57, "duration": 1, "velocity": 90}, {"time": 2769, "pitch": 60, "duration": 1, "velocity": 90}, {"time": 2769, "pitch": 64, "duration": 1, "velocity": 85}, {"time": 2775, "pitch": 41, "duration": 10, "velocity": 71}, {"time": 2781, "pitch": 57, "duration": 1, "velocity": 72}, {"time": 2781, "pitch": 60, "duration": 1, "velocity": 81}, {"time": 2781, "pitch": 65, "duration": 1, "velocity": 77}, {"time": 2784, "pitch": 57, "duration": 1, "velocity": 73}, {"time": 2784, "pitch": 60, "duration": 1, "velocity": 79}, {"time": 2784, "pitch": 65, "duration": 2, "velocity": 78}, {"time": 2787, "pitch": 48, "duration": 7, "velocity": 72}, {"time": 2793, "pitch": 57, "duration": 1, "velocity": 88}, {"time": 2793, "pitch": 60, "duration": 1, "velocity": 89}, {"time": 2793, "pitch": 65, "duration": 1, "velocity": 86}, {"time": 2799, "pitch": 45, "duration": 13, "velocity": 76}, {"time": 2805, "pitch": 57, "duration": 1, "velocity": 86}, {"time": 2805, "pitch": 60, "duration": 1, "velocity": 85}, {"time": 2805, "pitch": 64, "duration": 1, "velocity": 72}, {"time": 2808, "pitch": 57, "duration": 1, "velocity": 63}, {"time": 2808, "pitch": 60, "duration": 1, "velocity": 71}, {"time": 2808, "pitch": 64, "duration": 1, "velocity": 69}, {"time": 2811, "pitch": 52, "duration": 12, "velocity": 71}, {"time": 2817, "pitch": 64, "duration": 3, "velocity": 82}, {"time": 2817, "pitch": 69, "duration": 2, "velocity": 81}, {"time": 2817, "pitch": 72, "duration": 3, "velocity": 77}, {"time": 2823, "pitch": 45, "duration": 11, "velocity": 75}, {"time": 2829, "pitch": 57, "duration": 2, "velocity": 77}, {"time": 2829, "pitch": 60, "duration": 1, "velocity": 92}, {"time": 2829, "pitch": 64, "duration": 1, "velocity": 78}, {"time": 2832, "pitch": 57, "duration": 1, "velocity": 66}, {"time": 2832, "pitch": 60, "duration": 1, "velocity": 78}, {"time": 2832, "pitch": 64, "duration": 2, "velocity": 74}, {"time": 2835, "pitch": 52, "duration": 11, "velocity": 67}, {"time": 2841, "pitch": 57, "duration": 1, "velocity": 83}, {"time": 2841, "pitch": 60, "duration": 1, "velocity": 89}, {"time": 2841, "pitch": 64, "duration": 2, "velocity": 78}, {"time": 2847, "pitch": 45, "duration": 12, "velocity": 75}, {"time": 2853, "pitch": 57, "duration": 1, "velocity": 77}, {"time": 2853, "pitch": 60, "duration": 1, "velocity": 89}, {"time": 2853, "pitch": 64, "duration": 1, "velocity": 76}, {"time": 2856, "pitch": 57, "duration": 1, "velocity": 76}, {"time": 2856, "pitch": 60, "duration": 1, "velocity": 88}, {"time": 2856, "pitch": 64, "duration": 1, "velocity": 78}, {"time": 2859, "pitch": 52, "duration": 6, "velocity": 63}, {"time": 2865, "pitch": 57, "duration": 2, "velocity": 88}, {"time": 2865, "pitch": 60, "duration": 2, "velocity": 92}, {"time": 2865, "pitch": 64, "duration": 2, "velocity": 82}, {"time": 2871, "pitch": 41, "duration": 10, "velocity": 83}, {"time": 2877, "pitch": 57, "duration": 1, "velocity": 78}, {"time": 2877, "pitch": 60, "duration": 1, "velocity": 83}, {"time": 2877, "pitch": 65, "duration": 1, "velocity": 52}, {"time": 2880, "pitch": 57, "duration": 1, "velocity": 66}, {"time": 2880, "pitch": 60, "duration": 1, "velocity": 83}, {"time": 2880, "pitch": 65, "duration": 1, "velocity": 78}, {"time": 2883, "pitch": 48, "duration": 10, "velocity": 67}, {"time": 2889, "pitch": 57, "duration": 1, "velocity": 85}, {"time": 2889, "pitch": 60, "duration": 1, "velocity": 92}, {"time": 2889, "pitch": 65, "duration": 1, "velocity": 75}, {"time": 2889, "pitch": 66, "duration": 1, "velocity": 75}, {"time": 2895, "pitch": 45, "duration": 12, "velocity": 67}, {"time": 2901, "pitch": 57, "duration": 1, "velocity": 81}, {"time": 2901, "pitch": 60, "duration": 1, "velocity": 83}, {"time": 2901, "pitch": 64, "duration": 1, "velocity": 81}, {"time": 2904, "pitch": 57, "duration": 1, "velocity": 79}, {"time": 2904, "pitch": 60, "duration": 1, "velocity": 89}, {"time": 2904, "pitch": 64, "duration": 2, "velocity": 81}, {"time": 2907, "pitch": 52, "duration": 9, "velocity": 78}, {"time": 2913, "pitch": 57, "duration": 1, "velocity": 93}, {"time": 2913, "pitch": 60, "duration": 1, "velocity": 96}, {"time": 2913, "pitch": 64, "duration": 1, "velocity": 89}, {"time": 2919, "pitch": 45, "duration": 12, "velocity": 81}, {"time": 2925, "pitch": 57, "duration": 1, "velocity": 78}, {"time": 2925, "pitch": 60, "duration": 1, "velocity": 86}, {"time": 2925, "pitch": 64, "duration": 1, "velocity": 74}, {"time": 2928, "pitch": 57, "duration": 1, "velocity": 76}, {"time": 2928, "pitch": 60, "duration": 1, "velocity": 83}, {"time": 2928, "pitch": 64, "duration": 1, "velocity": 79}, {"time": 2931, "pitch": 52, "duration": 11, "velocity": 67}, {"time": 2937, "pitch": 64, "duration": 1, "velocity": 88}, {"time": 2937, "pitch": 69, "duration": 1, "velocity": 95}, {"time": 2937, "pitch": 72, "duration": 1, "velocity": 86}, {"time": 2943, "pitch": 45, "duration": 12, "velocity": 61}, {"time": 2949, "pitch": 57, "duration": 1, "velocity": 79}, {"time": 2949, "pitch": 60, "duration": 1, "velocity": 86}, {"time": 2949, "pitch": 64, "duration": 1, "velocity": 83}, {"time": 2952, "pitch": 57, "duration": 1, "velocity": 72}, {"time": 2952, "pitch": 60, "duration": 1, "velocity": 85}, {"time": 2952, "pitch": 64, "duration": 1, "velocity": 79}, {"time": 2955, "pitch": 52, "duration": 6, "velocity": 68}, {"time": 2961, "pitch": 57, "duration": 1, "velocity": 90}, {"time": 2961, "pitch": 60, "duration": 1, "velocity": 90}, {"time": 2961, "pitch": 64, "duration": 1, "velocity": 85}, {"time": 2967, "pitch": 41, "duration": 10, "velocity": 71}, {"time": 2973, "pitch": 57, "duration": 1, "velocity": 72}, {"time": 2973, "pitch": 60, "duration": 1, "velocity": 81}, {"time": 2973, "pitch": 65, "duration": 1, "velocity": 77}, {"time": 2976, "pitch": 57, "duration": 1, "velocity": 73}, {"time": 2976, "pitch": 60, "duration": 1, "velocity": 79}, {"time": 2976, "pitch": 65, "duration": 2, "velocity": 78}], "annotations": [{"time": 0, "annotation": {"number": 7, "value": 101}, "group": "control_change"}, {"time": 231, "annotation": {"number": 64, "value": 127}, "group": "control_change"}, {"time": 240, "annotation": {"number": 64, "value": 0}, "group": "control_change"}, {"time": 244, "annotation": {"number": 64, "value": 127}, "group": "control_change"}, {"time": 251, "annotation": {"number": 64, "value": 0}, "group": "control_change"}, {"time": 256, "annotation": {"number": 64, "value": 127}, "group": "control_change"}, {"time": 263, "annotation": {"number": 64, "value": 0}, "group": "control_change"}, {"time": 267, "annotation": {"number": 64, "value": 127}, "group": "control_change"}, {"time": 275, "annotation": {"number": 64, "value": 0}, "group": "control_change"}, {"time": 279, "annotation": {"number": 64, "value": 127}, "group": "control_change"}, {"time": 287, "annotation": {"number": 64, "value": 0}, "group": "control_change"}, {"time": 291, "annotation": {"number": 64, "value": 127}, "group": "control_change"}, {"time": 298, "annotation": {"number": 64, "value": 0}, "group": "control_change"}, {"time": 303, "annotation": {"number": 64, "value": 127}, "group": "control_change"}, {"time": 312, "annotation": {"number": 64, "value": 0}, "group": "control_change"}, {"time": 316, "annotation": {"number": 64, "value": 127}, "group": "control_change"}, {"time": 324, "annotation": {"number": 64, "value": 0}, "group": "control_change"}, {"time": 328, "annotation": {"number": 64, "value": 127}, "group": "control_change"}, {"time": 336, "annotation": {"number": 64, "value": 0}, "group": "control_change"}, {"time": 339, "annotation": {"number": 64, "value": 127}, "group": "control_change"}, {"time": 344, "annotation": {"number": 64, "value": 0}, "group": "control_change"}, {"time": 351, "annotation": {"number": 64, "value": 127}, "group": "control_change"}, {"time": 358, "annotation": {"number": 64, "value": 0}, "group": "control_change"}, {"time": 363, "annotation": {"number": 64, "value": 127}, "group": "control_change"}, {"time": 370, "annotation": {"number": 64, "value": 0}, "group": "control_change"}, {"time": 376, "annotation": {"number": 64, "value": 127}, "group": "control_change"}, {"time": 383, "annotation": {"number": 64, "value": 0}, "group": "control_change"}, {"time": 399, "annotation": {"number": 64, "value": 127}, "group": "control_change"}, {"time": 408, "annotation": {"number": 64, "value": 0}, "group": "control_change"}, {"time": 412, "annotation": {"number": 64, "value": 127}, "group": "control_change"}, {"time": 416, "annotation": {"number": 64, "value": 0}, "group": "control_change"}, {"time": 429, "annotation": {"number": 64, "value": 127}, "group": "control_change"}, {"time": 430, "annotation": {"number": 64, "value": 0}, "group": "control_change"}, {"time": 436, "annotation": {"number": 64, "value": 127}, "group": "control_change"}, {"time": 443, "annotation": {"number": 64, "value": 0}, "group": "control_change"}, {"time": 447, "annotation": {"number": 64, "value": 127}, "group": "control_change"}, {"time": 456, "annotation": {"number": 64, "value": 0}, "group": "control_change"}, {"time": 460, "annotation": {"number": 64, "value": 127}, "group": "control_change"}, {"time": 468, "annotation": {"number": 64, "value": 0}, "group": "control_change"}, {"time": 472, "annotation": {"number": 64, "value": 127}, "group": "control_change"}, {"time": 479, "annotation": {"number": 64, "value": 0}, "group": "control_change"}, {"time": 484, "annotation": {"number": 64, "value": 127}, "group": "control_change"}, {"time": 491, "annotation": {"number": 64, "value": 0}, "group": "control_change"}, {"time": 496, "annotation": {"number": 64, "value": 127}, "group": "control_change"}, {"time": 504, "annotation": {"number": 64, "value": 0}, "group": "control_change"}, {"time": 508, "annotation": {"number": 64, "value": 127}, "group": "control_change"}, {"time": 514, "annotation": {"number": 64, "value": 0}, "group": "control_change"}, {"time": 519, "annotation": {"number": 64, "value": 127}, "group": "control_change"}, {"time": 527, "annotation": {"number": 64, "value": 0}, "group": "control_change"}, {"time": 531, "annotation": {"number": 64, "value": 127}, "group": "control_change"}, {"time": 539, "annotation": {"number": 64, "value": 0}, "group": "control_change"}, {"time": 555, "annotation": {"number": 64, "value": 127}, "group": "control_change"}, {"time": 563, "annotation": {"number": 64, "value": 0}, "group": "control_change"}, {"time": 567, "annotation": {"number": 64, "value": 127}, "group": "control_change"}, {"time": 576, "annotation": {"number": 64, "value": 0}, "group": "control_change"}, {"time": 579, "annotation": {"number": 64, "value": 127}, "group": "control_change"}, {"time": 586, "annotation": {"number": 64, "value": 0}, "group": "control_change"}, {"time": 591, "annotation": {"number": 64, "value": 127}, "group": "control_change"}, {"time": 599, "annotation": {"number": 64, "value": 0}, "group": "control_change"}, {"time": 603, "annotation": {"number": 64, "value": 127}, "group": "control_change"}, {"time": 610, "annotation": {"number": 64, "value": 0}, "group": "control_change"}, {"time": 615, "annotation": {"number": 64, "value": 127}, "group": "control_change"}, {"time": 619, "annotation": {"number": 64, "value": 0}, "group": "control_change"}, {"time": 627, "annotation": {"number": 64, "value": 127}, "group": "control_change"}, {"time": 634, "annotation": {"number": 64, "value": 0}, "group": "control_change"}, {"time": 639, "annotation": {"number": 64, "value": 127}, "group": "control_change"}, {"time": 647, "annotation": {"number": 64, "value": 0}, "group": "control_change"}, {"time": 652, "annotation": {"number": 64, "value": 127}, "group": "control_change"}, {"time": 660, "annotation": {"number": 64, "value": 0}, "group": "control_change"}, {"time": 664, "annotation": {"number": 64, "value": 127}, "group": "control_change"}, {"time": 670, "annotation": {"number": 64, "value": 0}, "group": "control_change"}, {"time": 676, "annotation": {"number": 64, "value": 127}, "group": "control_change"}, {"time": 684, "annotation": {"number": 64, "value": 0}, "group": "control_change"}, {"time": 687, "annotation": {"number": 64, "value": 127}, "group": "control_change"}, {"time": 697, "annotation": {"number": 64, "value": 0}, "group": "control_change"}, {"time": 700, "annotation": {"number": 64, "value": 127}, "group": "control_change"}, {"time": 708, "annotation": {"number": 64, "value": 0}, "group": "control_change"}, {"time": 711, "annotation": {"number": 64, "value": 127}, "group": "control_change"}, {"time": 721, "annotation": {"number": 64, "value": 0}, "group": "control_change"}, {"time": 724, "annotation": {"number": 64, "value": 127}, "group": "control_change"}, {"time": 731, "annotation": {"number": 64, "value": 0}, "group": "control_change"}, {"time": 735, "annotation": {"number": 64, "value": 127}, "group": "control_change"}, {"time": 743, "annotation": {"number": 64, "value": 0}, "group": "control_change"}, {"time": 747, "annotation": {"number": 64, "value": 127}, "group": "control_change"}, {"time": 755, "annotation": {"number": 64, "value": 0}, "group": "control_change"}, {"time": 759, "annotation": {"number": 64, "value": 127}, "group": "control_change"}, {"time": 767, "annotation": {"number": 64, "value": 0}, "group": "control_change"}, {"time": 771, "annotation": {"number": 64, "value": 127}, "group": "control_change"}, {"time": 778, "annotation": {"number": 64, "value": 0}, "group": "control_change"}, {"time": 783, "annotation": {"number": 64, "value": 127}, "group": "control_change"}, {"time": 790, "annotation": {"number": 64, "value": 0}, "group": "control_change"}, {"time": 795, "annotation": {"number": 64, "value": 127}, "group": "control_change"}, {"time": 798, "annotation": {"number": 64, "value": 0}, "group": "control_change"}, {"time": 807, "annotation": {"number": 64, "value": 127}, "group": "control_change"}, {"time": 815, "annotation": {"number": 64, "value": 0}, "group": "control_change"}, {"time": 819, "annotation": {"number": 64, "value": 127}, "group": "control_change"}, {"time": 825, "annotation": {"number": 64, "value": 0}, "group": "control_change"}, {"time": 831, "annotation": {"number": 64, "value": 127}, "group": "control_change"}, {"time": 838, "annotation": {"number": 64, "value": 0}, "group": "control_change"}, {"time": 842, "annotation": {"number": 64, "value": 127}, "group": "control_change"}, {"time": 849, "annotation": {"number": 64, "value": 0}, "group": "control_change"}, {"time": 854, "annotation": {"number": 64, "value": 127}, "group": "control_change"}, {"time": 863, "annotation": {"number": 64, "value": 0}, "group": "control_change"}, {"time": 867, "annotation": {"number": 64, "value": 127}, "group": "control_change"}, {"time": 874, "annotation": {"number": 64, "value": 0}, "group": "control_change"}, {"time": 879, "annotation": {"number": 64, "value": 127}, "group": "control_change"}, {"time": 888, "annotation": {"number": 64, "value": 0}, "group": "control_change"}, {"time": 891, "annotation": {"number": 64, "value": 127}, "group": "control_change"}, {"time": 896, "annotation": {"number": 64, "value": 0}, "group": "control_change"}, {"time": 907, "annotation": {"number": 64, "value": 127}, "group": "control_change"}, {"time": 911, "annotation": {"number": 64, "value": 0}, "group": "control_change"}, {"time": 914, "annotation": {"number": 64, "value": 127}, "group": "control_change"}, {"time": 922, "annotation": {"number": 64, "value": 0}, "group": "control_change"}, {"time": 926, "annotation": {"number": 64, "value": 127}, "group": "control_change"}, {"time": 935, "annotation": {"number": 64, "value": 0}, "group": "control_change"}, {"time": 939, "annotation": {"number": 64, "value": 127}, "group": "control_change"}, {"time": 947, "annotation": {"number": 64, "value": 0}, "group": "control_change"}, {"time": 951, "annotation": {"number": 64, "value": 127}, "group": "control_change"}, {"time": 959, "annotation": {"number": 64, "value": 0}, "group": "control_change"}, {"time": 963, "annotation": {"number": 64, "value": 127}, "group": "control_change"}, {"time": 970, "annotation": {"number": 64, "value": 0}, "group": "control_change"}, {"time": 975, "annotation": {"number": 64, "value": 127}, "group": "control_change"}, {"time": 984, "annotation": {"number": 64, "value": 0}, "group": "control_change"}, {"time": 987, "annotation": {"number": 64, "value": 127}, "group": "control_change"}, {"time": 992, "annotation": {"number": 64, "value": 0}, "group": "control_change"}, {"time": 999, "annotation": {"number": 64, "value": 127}, "group": "control_change"}, {"time": 1003, "annotation": {"number": 64, "value": 0}, "group": "control_change"}, {"time": 1011, "annotation": {"number": 64, "value": 127}, "group": "control_change"}, {"time": 1018, "annotation": {"number": 64, "value": 0}, "group": "control_change"}, {"time": 1023, "annotation": {"number": 64, "value": 127}, "group": "control_change"}, {"time": 1031, "annotation": {"number": 64, "value": 0}, "group": "control_change"}, {"time": 1036, "annotation": {"number": 64, "value": 127}, "group": "control_change"}, {"time": 1044, "annotation": {"number": 64, "value": 0}, "group": "control_change"}, {"time": 1048, "annotation": {"number": 64, "value": 127}, "group": "control_change"}, {"time": 1054, "annotation": {"number": 64, "value": 0}, "group": "control_change"}, {"time": 1060, "annotation": {"number": 64, "value": 127}, "group": "control_change"}, {"time": 1068, "annotation": {"number": 64, "value": 0}, "group": "control_change"}, {"time": 1071, "annotation": {"number": 64, "value": 127}, "group": "control_change"}, {"time": 1081, "annotation": {"number": 64, "value": 0}, "group": "control_change"}, {"time": 1084, "annotation": {"number": 64, "value": 127}, "group": "control_change"}, {"time": 1092, "annotation": {"number": 64, "value": 0}, "group": "control_change"}, {"time": 1095, "annotation": {"number": 64, "value": 127}, "group": "control_change"}, {"time": 1105, "annotation": {"number": 64, "value": 0}, "group": "control_change"}, {"time": 1108, "annotation": {"number": 64, "value": 127}, "group": "control_change"}, {"time": 1115, "annotation": {"number": 64, "value": 0}, "group": "control_change"}, {"time": 1119, "annotation": {"number": 64, "value": 127}, "group": "control_change"}, {"time": 1127, "annotation": {"number": 64, "value": 0}, "group": "control_change"}, {"time": 1131, "annotation": {"number": 64, "value": 127}, "group": "control_change"}, {"time": 1139, "annotation": {"number": 64, "value": 0}, "group": "control_change"}, {"time": 1143, "annotation": {"number": 64, "value": 127}, "group": "control_change"}, {"time": 1151, "annotation": {"number": 64, "value": 0}, "group": "control_change"}, {"time": 1155, "annotation": {"number": 64, "value": 127}, "group": "control_change"}, {"time": 1162, "annotation": {"number": 64, "value": 0}, "group": "control_change"}, {"time": 1167, "annotation": {"number": 64, "value": 127}, "group": "control_change"}, {"time": 1174, "annotation": {"number": 64, "value": 0}, "group": "control_change"}, {"time": 1179, "annotation": {"number": 64, "value": 127}, "group": "control_change"}, {"time": 1182, "annotation": {"number": 64, "value": 0}, "group": "control_change"}, {"time": 1191, "annotation": {"number": 64, "value": 127}, "group": "control_change"}, {"time": 1200, "annotation": {"number": 64, "value": 0}, "group": "control_change"}, {"time": 1204, "annotation": {"number": 64, "value": 127}, "group": "control_change"}, {"time": 1211, "annotation": {"number": 64, "value": 0}, "group": "control_change"}, {"time": 1216, "annotation": {"number": 64, "value": 127}, "group": "control_change"}, {"time": 1223, "annotation": {"number": 64, "value": 0}, "group": "control_change"}, {"time": 1227, "annotation": {"number": 64, "value": 127}, "group": "control_change"}, {"time": 1235, "annotation": {"number": 64, "value": 0}, "group": "control_change"}, {"time": 1239, "annotation": {"number": 64, "value": 127}, "group": "control_change"}, {"time": 1247, "annotation": {"number": 64, "value": 0}, "group": "control_change"}, {"time": 1251, "annotation": {"number": 64, "value": 127}, "group": "control_change"}, {"time": 1258, "annotation": {"number": 64, "value": 0}, "group": "control_change"}, {"time": 1263, "annotation": {"number": 64, "value": 127}, "group": "control_change"}, {"time": 1272, "annotation": {"number": 64, "value": 0}, "group": "control_change"}, {"time": 1276, "annotation": {"number": 64, "value": 127}, "group": "control_change"}, {"time": 1284, "annotation": {"number": 64, "value": 0}, "group": "control_change"}, {"time": 1288, "annotation": {"number": 64, "value": 127}, "group": "control_change"}, {"time": 1296, "annotation": {"number": 64, "value": 0}, "group": "control_change"}, {"time": 1299, "annotation": {"number": 64, "value": 127}, "group": "control_change"}, {"time": 1304, "annotation": {"number": 64, "value": 0}, "group": "control_change"}, {"time": 1311, "annotation": {"number": 64, "value": 127}, "group": "control_change"}, {"time": 1318, "annotation": {"number": 64, "value": 0}, "group": "control_change"}, {"time": 1323, "annotation": {"number": 64, "value": 127}, "group": "control_change"}, {"time": 1330, "annotation": {"number": 64, "value": 0}, "group": "control_change"}, {"time": 1336, "annotation": {"number": 64, "value": 127}, "group": "control_change"}, {"time": 1343, "annotation": {"number": 64, "value": 0}, "group": "control_change"}, {"time": 1359, "annotation": {"number": 64, "value": 127}, "group": "control_change"}, {"time": 1368, "annotation": {"number": 64, "value": 0}, "group": "control_change"}, {"time": 1372, "annotation": {"number": 64, "value": 127}, "group": "control_change"}, {"time": 1376, "annotation": {"number": 64, "value": 0}, "group": "control_change"}, {"time": 1389, "annotation": {"number": 64, "value": 127}, "group": "control_change"}, {"time": 1390, "annotation": {"number": 64, "value": 0}, "group": "control_change"}, {"time": 1396, "annotation": {"number": 64, "value": 127}, "group": "control_change"}, {"time": 1403, "annotation": {"number": 64, "value": 0}, "group": "control_change"}, {"time": 1407, "annotation": {"number": 64, "value": 127}, "group": "control_change"}, {"time": 1416, "annotation": {"number": 64, "value": 0}, "group": "control_change"}, {"time": 1420, "annotation": {"number": 64, "value": 127}, "group": "control_change"}, {"time": 1428, "annotation": {"number": 64, "value": 0}, "group": "control_change"}, {"time": 1432, "annotation": {"number": 64, "value": 127}, "group": "control_change"}, {"time": 1439, "annotation": {"number": 64, "value": 0}, "group": "control_change"}, {"time": 1444, "annotation": {"number": 64, "value": 127}, "group": "control_change"}, {"time": 1451, "annotation": {"number": 64, "value": 0}, "group": "control_change"}, {"time": 1456, "annotation": {"number": 64, "value": 127}, "group": "control_change"}, {"time": 1464, "annotation": {"number": 64, "value": 0}, "group": "control_change"}, {"time": 1468, "annotation": {"number": 64, "value": 127}, "group": "control_change"}, {"time": 1474, "annotation": {"number": 64, "value": 0}, "group": "control_change"}, {"time": 1479, "annotation": {"number": 64, "value": 127}, "group": "control_change"}, {"time": 1487, "annotation": {"number": 64, "value": 0}, "group": "control_change"}, {"time": 1491, "annotation": {"number": 64, "value": 127}, "group": "control_change"}, {"time": 1499, "annotation": {"number": 64, "value": 0}, "group": "control_change"}, {"time": 1503, "annotation": {"number": 64, "value": 127}, "group": "control_change"}, {"time": 1511, "annotation": {"number": 64, "value": 0}, "group": "control_change"}, {"time": 1515, "annotation": {"number": 64, "value": 127}, "group": "control_change"}, {"time": 1524, "annotation": {"number": 64, "value": 0}, "group": "control_change"}, {"time": 1527, "annotation": {"number": 64, "value": 127}, "group": "control_change"}, {"time": 1535, "annotation": {"number": 64, "value": 0}, "group": "control_change"}, {"time": 1539, "annotation": {"number": 64, "value": 127}, "group": "control_change"}, {"time": 1547, "annotation": {"number": 64, "value": 0}, "group": "control_change"}, {"time": 1551, "annotation": {"number": 64, "value": 127}, "group": "control_change"}, {"time": 1559, "annotation": {"number": 64, "value": 0}, "group": "control_change"}, {"time": 1563, "annotation": {"number": 64, "value": 127}, "group": "control_change"}, {"time": 1570, "annotation": {"number": 64, "value": 0}, "group": "control_change"}, {"time": 1575, "annotation": {"number": 64, "value": 127}, "group": "control_change"}, {"time": 1583, "annotation": {"number": 64, "value": 0}, "group": "control_change"}, {"time": 1587, "annotation": {"number": 64, "value": 127}, "group": "control_change"}, {"time": 1594, "annotation": {"number": 64, "value": 0}, "group": "control_change"}, {"time": 1611, "annotation": {"number": 64, "value": 127}, "group": "control_change"}, {"time": 1613, "annotation": {"number": 64, "value": 0}, "group": "control_change"}, {"time": 1623, "annotation": {"number": 64, "value": 127}, "group": "control_change"}, {"time": 1631, "annotation": {"number": 64, "value": 0}, "group": "control_change"}, {"time": 1635, "annotation": {"number": 64, "value": 127}, "group": "control_change"}, {"time": 1643, "annotation": {"number": 64, "value": 0}, "group": "control_change"}, {"time": 1671, "annotation": {"number": 64, "value": 127}, "group": "control_change"}, {"time": 1679, "annotation": {"number": 64, "value": 0}, "group": "control_change"}, {"time": 1684, "annotation": {"number": 64, "value": 127}, "group": "control_change"}, {"time": 1689, "annotation": {"number": 64, "value": 0}, "group": "control_change"}, {"time": 1695, "annotation": {"number": 64, "value": 127}, "group": "control_change"}, {"time": 1703, "annotation": {"number": 64, "value": 0}, "group": "control_change"}, {"time": 1707, "annotation": {"number": 64, "value": 127}, "group": "control_change"}, {"time": 1714, "annotation": {"number": 64, "value": 0}, "group": "control_change"}, {"time": 1719, "annotation": {"number": 64, "value": 127}, "group": "control_change"}, {"time": 1728, "annotation": {"number": 64, "value": 0}, "group": "control_change"}, {"time": 1732, "annotation": {"number": 64, "value": 127}, "group": "control_change"}, {"time": 1739, "annotation": {"number": 64, "value": 0}, "group": "control_change"}, {"time": 1743, "annotation": {"number": 64, "value": 127}, "group": "control_change"}, {"time": 1751, "annotation": {"number": 64, "value": 0}, "group": "control_change"}, {"time": 1755, "annotation": {"number": 64, "value": 127}, "group": "control_change"}, {"time": 1759, "annotation": {"number": 64, "value": 0}, "group": "control_change"}, {"time": 1773, "annotation": {"number": 64, "value": 127}, "group": "control_change"}, {"time": 1774, "annotation": {"number": 64, "value": 0}, "group": "control_change"}, {"time": 1780, "annotation": {"number": 64, "value": 127}, "group": "control_change"}, {"time": 1787, "annotation": {"number": 64, "value": 0}, "group": "control_change"}, {"time": 1791, "annotation": {"number": 64, "value": 127}, "group": "control_change"}, {"time": 1800, "annotation": {"number": 64, "value": 0}, "group": "control_change"}, {"time": 1804, "annotation": {"number": 64, "value": 127}, "group": "control_change"}, {"time": 1812, "annotation": {"number": 64, "value": 0}, "group": "control_change"}, {"time": 1816, "annotation": {"number": 64, "value": 127}, "group": "control_change"}, {"time": 1823, "annotation": {"number": 64, "value": 0}, "group": "control_change"}, {"time": 1828, "annotation": {"number": 64, "value": 127}, "group": "control_change"}, {"time": 1835, "annotation": {"number": 64, "value": 0}, "group": "control_change"}, {"time": 1840, "annotation": {"number": 64, "value": 127}, "group": "control_change"}, {"time": 1848, "annotation": {"number": 64, "value": 0}, "group": "control_change"}, {"time": 1852, "annotation": {"number": 64, "value": 127}, "group": "control_change"}, {"time": 1858, "annotation": {"number": 64, "value": 0}, "group": "control_change"}, {"time": 1863, "annotation": {"number": 64, "value": 127}, "group": "control_change"}, {"time": 1871, "annotation": {"number": 64, "value": 0}, "group": "control_change"}, {"time": 1875, "annotation": {"number": 64, "value": 127}, "group": "control_change"}, {"time": 1883, "annotation": {"number": 64, "value": 0}, "group": "control_change"}, {"time": 1899, "annotation": {"number": 64, "value": 127}, "group": "control_change"}, {"time": 1907, "annotation": {"number": 64, "value": 0}, "group": "control_change"}, {"time": 1911, "annotation": {"number": 64, "value": 127}, "group": "control_change"}, {"time": 1920, "annotation": {"number": 64, "value": 0}, "group": "control_change"}, {"time": 1923, "annotation": {"number": 64, "value": 127}, "group": "control_change"}, {"time": 1930, "annotation": {"number": 64, "value": 0}, "group": "control_change"}, {"time": 1935, "annotation": {"number": 64, "value": 127}, "group": "control_change"}, {"time": 1943, "annotation": {"number": 64, "value": 0}, "group": "control_change"}, {"time": 1947, "annotation": {"number": 64, "value": 127}, "group": "control_change"}, {"time": 1954, "annotation": {"number": 64, "value": 0}, "group": "control_change"}, {"time": 1959, "annotation": {"number": 64, "value": 127}, "group": "control_change"}, {"time": 1963, "annotation": {"number": 64, "value": 0}, "group": "control_change"}, {"time": 1971, "annotation": {"number": 64, "value": 127}, "group": "control_change"}, {"time": 1978, "annotation": {"number": 64, "value": 0}, "group": "control_change"}, {"time": 1983, "annotation": {"number": 64, "value": 127}, "group": "control_change"}, {"time": 1991, "annotation": {"number": 64, "value": 0}, "group": "control_change"}, {"time": 1996, "annotation": {"number": 64, "value": 127}, "group": "control_change"}, {"time": 2004, "annotation": {"number": 64, "value": 0}, "group": "control_change"}, {"time": 2008, "annotation": {"number": 64, "value": 127}, "group": "control_change"}, {"time": 2014, "annotation": {"number": 64, "value": 0}, "group": "control_change"}, {"time": 2020, "annotation": {"number": 64, "value": 127}, "group": "control_change"}, {"time": 2028, "annotation": {"number": 64, "value": 0}, "group": "control_change"}, {"time": 2031, "annotation": {"number": 64, "value": 127}, "group": "control_change"}, {"time": 2041, "annotation": {"number": 64, "value": 0}, "group": "control_change"}, {"time": 2044, "annotation": {"number": 64, "value": 127}, "group": "control_change"}, {"time": 2052, "annotation": {"number": 64, "value": 0}, "group": "control_change"}, {"time": 2055, "annotation": {"number": 64, "value": 127}, "group": "control_change"}, {"time": 2065, "annotation": {"number": 64, "value": 0}, "group": "control_change"}, {"time": 2068, "annotation": {"number": 64, "value": 127}, "group": "control_change"}, {"time": 2075, "annotation": {"number": 64, "value": 0}, "group": "control_change"}, {"time": 2079, "annotation": {"number": 64, "value": 127}, "group": "control_change"}, {"time": 2087, "annotation": {"number": 64, "value": 0}, "group": "control_change"}, {"time": 2091, "annotation": {"number": 64, "value": 127}, "group": "control_change"}, {"time": 2099, "annotation": {"number": 64, "value": 0}, "group": "control_change"}, {"time": 2103, "annotation": {"number": 64, "value": 127}, "group": "control_change"}, {"time": 2111, "annotation": {"number": 64, "value": 0}, "group": "control_change"}, {"time": 2115, "annotation": {"number": 64, "value": 127}, "group": "control_change"}, {"time": 2122, "annotation": {"number": 64, "value": 0}, "group": "control_change"}, {"time": 2127, "annotation": {"number": 64, "value": 127}, "group": "control_change"}, {"time": 2134, "annotation": {"number": 64, "value": 0}, "group": "control_change"}, {"time": 2139, "annotation": {"number": 64, "value": 127}, "group": "control_change"}, {"time": 2142, "annotation": {"number": 64, "value": 0}, "group": "control_change"}, {"time": 2151, "annotation": {"number": 64, "value": 127}, "group": "control_change"}, {"time": 2159, "annotation": {"number": 64, "value": 0}, "group": "control_change"}, {"time": 2163, "annotation": {"number": 64, "value": 127}, "group": "control_change"}, {"time": 2169, "annotation": {"number": 64, "value": 0}, "group": "control_change"}, {"time": 2175, "annotation": {"number": 64, "value": 127}, "group": "control_change"}, {"time": 2182, "annotation": {"number": 64, "value": 0}, "group": "control_change"}, {"time": 2186, "annotation": {"number": 64, "value": 127}, "group": "control_change"}, {"time": 2193, "annotation": {"number": 64, "value": 0}, "group": "control_change"}, {"time": 2198, "annotation": {"number": 64, "value": 127}, "group": "control_change"}, {"time": 2207, "annotation": {"number": 64, "value": 0}, "group": "control_change"}, {"time": 2211, "annotation": {"number": 64, "value": 127}, "group": "control_change"}, {"time": 2218, "annotation": {"number": 64, "value": 0}, "group": "control_change"}, {"time": 2223, "annotation": {"number": 64, "value": 127}, "group": "control_change"}, {"time": 2232, "annotation": {"number": 64, "value": 0}, "group": "control_change"}, {"time": 2235, "annotation": {"number": 64, "value": 127}, "group": "control_change"}, {"time": 2240, "annotation": {"number": 64, "value": 0}, "group": "control_change"}, {"time": 2251, "annotation": {"number": 64, "value": 127}, "group": "control_change"}, {"time": 2255, "annotation": {"number": 64, "value": 0}, "group": "control_change"}, {"time": 2258, "annotation": {"number": 64, "value": 127}, "group": "control_change"}, {"time": 2266, "annotation": {"number": 64, "value": 0}, "group": "control_change"}, {"time": 2270, "annotation": {"number": 64, "value": 127}, "group": "control_change"}, {"time": 2279, "annotation": {"number": 64, "value": 0}, "group": "control_change"}, {"time": 2283, "annotation": {"number": 64, "value": 127}, "group": "control_change"}, {"time": 2291, "annotation": {"number": 64, "value": 0}, "group": "control_change"}, {"time": 2295, "annotation": {"number": 64, "value": 127}, "group": "control_change"}, {"time": 2303, "annotation": {"number": 64, "value": 0}, "group": "control_change"}, {"time": 2307, "annotation": {"number": 64, "value": 127}, "group": "control_change"}, {"time": 2314, "annotation": {"number": 64, "value": 0}, "group": "control_change"}, {"time": 2319, "annotation": {"number": 64, "value": 127}, "group": "control_change"}, {"time": 2328, "annotation": {"number": 64, "value": 0}, "group": "control_change"}, {"time": 2331, "annotation": {"number": 64, "value": 127}, "group": "control_change"}, {"time": 2336, "annotation": {"number": 64, "value": 0}, "group": "control_change"}, {"time": 2343, "annotation": {"number": 64, "value": 127}, "group": "control_change"}, {"time": 2347, "annotation": {"number": 64, "value": 0}, "group": "control_change"}, {"time": 2355, "annotation": {"number": 64, "value": 127}, "group": "control_change"}, {"time": 2362, "annotation": {"number": 64, "value": 0}, "group": "control_change"}, {"time": 2367, "annotation": {"number": 64, "value": 127}, "group": "control_change"}, {"time": 2375, "annotation": {"number": 64, "value": 0}, "group": "control_change"}, {"time": 2380, "annotation": {"number": 64, "value": 127}, "group": "control_change"}, {"time": 2388, "annotation": {"number": 64, "value": 0}, "group": "control_change"}, {"time": 2392, "annotation": {"number": 64, "value": 127}, "group": "control_change"}, {"time": 2398, "annotation": {"number": 64, "value": 0}, "group": "control_change"}, {"time": 2404, "annotation": {"number": 64, "value": 127}, "group": "control_change"}, {"time": 2412, "annotation": {"number": 64, "value": 0}, "group": "control_change"}, {"time": 2415, "annotation": {"number": 64, "value": 127}, "group": "control_change"}, {"time": 2425, "annotation": {"number": 64, "value": 0}, "group": "control_change"}, {"time": 2428, "annotation": {"number": 64, "value": 127}, "group": "control_change"}, {"time": 2436, "annotation": {"number": 64, "value": 0}, "group": "control_change"}, {"time": 2439, "annotation": {"number": 64, "value": 127}, "group": "control_change"}, {"time": 2449, "annotation": {"number": 64, "value": 0}, "group": "control_change"}, {"time": 2452, "annotation": {"number": 64, "value": 127}, "group": "control_change"}, {"time": 2459, "annotation": {"number": 64, "value": 0}, "group": "control_change"}, {"time": 2463, "annotation": {"number": 64, "value": 127}, "group": "control_change"}, {"time": 2471, "annotation": {"number": 64, "value": 0}, "group": "control_change"}, {"time": 2475, "annotation": {"number": 64, "value": 127}, "group": "control_change"}, {"time": 2483, "annotation": {"number": 64, "value": 0}, "group": "control_change"}, {"time": 2487, "annotation": {"number": 64, "value": 127}, "group": "control_change"}, {"time": 2495, "annotation": {"number": 64, "value": 0}, "group": "control_change"}, {"time": 2499, "annotation": {"number": 64, "value": 127}, "group": "control_change"}, {"time": 2506, "annotation": {"number": 64, "value": 0}, "group": "control_change"}, {"time": 2511, "annotation": {"number": 64, "value": 127}, "group": "control_change"}, {"time": 2518, "annotation": {"number": 64, "value": 0}, "group": "control_change"}, {"time": 2523, "annotation": {"number": 64, "value": 127}, "group": "control_change"}, {"time": 2526, "annotation": {"number": 64, "value": 0}, "group": "control_change"}, {"time": 2535, "annotation": {"number": 64, "value": 127}, "group": "control_change"}, {"time": 2544, "annotation": {"number": 64, "value": 0}, "group": "control_change"}, {"time": 2548, "annotation": {"number": 64, "value": 127}, "group": "control_change"}, {"time": 2555, "annotation": {"number": 64, "value": 0}, "group": "control_change"}, {"time": 2560, "annotation": {"number": 64, "value": 127}, "group": "control_change"}, {"time": 2567, "annotation": {"number": 64, "value": 0}, "group": "control_change"}, {"time": 2571, "annotation": {"number": 64, "value": 127}, "group": "control_change"}, {"time": 2579, "annotation": {"number": 64, "value": 0}, "group": "control_change"}, {"time": 2583, "annotation": {"number": 64, "value": 127}, "group": "control_change"}, {"time": 2591, "annotation": {"number": 64, "value": 0}, "group": "control_change"}, {"time": 2595, "annotation": {"number": 64, "value": 127}, "group": "control_change"}, {"time": 2602, "annotation": {"number": 64, "value": 0}, "group": "control_change"}, {"time": 2607, "annotation": {"number": 64, "value": 127}, "group": "control_change"}, {"time": 2616, "annotation": {"number": 64, "value": 0}, "group": "control_change"}, {"time": 2620, "annotation": {"number": 64, "value": 127}, "group": "control_change"}, {"time": 2628, "annotation": {"number": 64, "value": 0}, "group": "control_change"}, {"time": 2632, "annotation": {"number": 64, "value": 127}, "group": "control_change"}, {"time": 2640, "annotation": {"number": 64, "value": 0}, "group": "control_change"}, {"time": 2643, "annotation": {"number": 64, "value": 127}, "group": "control_change"}, {"time": 2648, "annotation": {"number": 64, "value": 0}, "group": "control_change"}, {"time": 2655, "annotation": {"number": 64, "value": 127}, "group": "control_change"}, {"time": 2662, "annotation": {"number": 64, "value": 0}, "group": "control_change"}, {"time": 2667, "annotation": {"number": 64, "value": 127}, "group": "control_change"}, {"time": 2674, "annotation": {"number": 64, "value": 0}, "group": "control_change"}, {"time": 2680, "annotation": {"number": 64, "value": 127}, "group": "control_change"}, {"time": 2687, "annotation": {"number": 64, "value": 0}, "group": "control_change"}, {"time": 2703, "annotation": {"number": 64, "value": 127}, "group": "control_change"}, {"time": 2712, "annotation": {"number": 64, "value": 0}, "group": "control_change"}, {"time": 2714, "annotation": {"number": 7, "value": 101}, "group": "control_change"}, {"time": 2716, "annotation": {"number": 64, "value": 127}, "group": "control_change"}, {"time": 2717, "annotation": {"number": 7, "value": 100}, "group": "control_change"}, {"time": 2719, "annotation": {"number": 7, "value": 99}, "group": "control_change"}, {"time": 2720, "annotation": {"number": 64, "value": 0}, "group": "control_change"}, {"time": 2722, "annotation": {"number": 7, "value": 98}, "group": "control_change"}, {"time": 2724, "annotation": {"number": 7, "value": 97}, "group": "control_change"}, {"time": 2727, "annotation": {"number": 7, "value": 95}, "group": "control_change"}, {"time": 2727, "annotation": {"number": 64, "value": 127}, "group": "control_change"}, {"time": 2729, "annotation": {"number": 7, "value": 94}, "group": "control_change"}, {"time": 2732, "annotation": {"number": 7, "value": 93}, "group": "control_change"}, {"time": 2734, "annotation": {"number": 7, "value": 92}, "group": "control_change"}, {"time": 2736, "annotation": {"number": 64, "value": 0}, "group": "control_change"}, {"time": 2737, "annotation": {"number": 7, "value": 91}, "group": "control_change"}, {"time": 2739, "annotation": {"number": 7, "value": 90}, "group": "control_change"}, {"time": 2740, "annotation": {"number": 64, "value": 127}, "group": "control_change"}, {"time": 2742, "annotation": {"number": 7, "value": 89}, "group": "control_change"}, {"time": 2744, "annotation": {"number": 7, "value": 88}, "group": "control_change"}, {"time": 2747, "annotation": {"number": 64, "value": 0}, "group": "control_change"}, {"time": 2747, "annotation": {"number": 7, "value": 86}, "group": "control_change"}, {"time": 2749, "annotation": {"number": 7, "value": 85}, "group": "control_change"}, {"time": 2752, "annotation": {"number": 64, "value": 127}, "group": "control_change"}, {"time": 2752, "annotation": {"number": 7, "value": 84}, "group": "control_change"}, {"time": 2754, "annotation": {"number": 7, "value": 83}, "group": "control_change"}, {"time": 2757, "annotation": {"number": 7, "value": 82}, "group": "control_change"}, {"time": 2759, "annotation": {"number": 64, "value": 0}, "group": "control_change"}, {"time": 2759, "annotation": {"number": 7, "value": 81}, "group": "control_change"}, {"time": 2762, "annotation": {"number": 7, "value": 80}, "group": "control_change"}, {"time": 2763, "annotation": {"number": 64, "value": 127}, "group": "control_change"}, {"time": 2764, "annotation": {"number": 7, "value": 79}, "group": "control_change"}, {"time": 2767, "annotation": {"number": 7, "value": 78}, "group": "control_change"}, {"time": 2769, "annotation": {"number": 7, "value": 76}, "group": "control_change"}, {"time": 2771, "annotation": {"number": 64, "value": 0}, "group": "control_change"}, {"time": 2772, "annotation": {"number": 7, "value": 75}, "group": "control_change"}, {"time": 2774, "annotation": {"number": 7, "value": 74}, "group": "control_change"}, {"time": 2775, "annotation": {"number": 64, "value": 127}, "group": "control_change"}, {"time": 2777, "annotation": {"number": 7, "value": 73}, "group": "control_change"}, {"time": 2779, "annotation": {"number": 7, "value": 72}, "group": "control_change"}, {"time": 2782, "annotation": {"number": 7, "value": 71}, "group": "control_change"}, {"time": 2783, "annotation": {"number": 64, "value": 0}, "group": "control_change"}, {"time": 2784, "annotation": {"number": 7, "value": 70}, "group": "control_change"}, {"time": 2787, "annotation": {"number": 7, "value": 69}, "group": "control_change"}, {"time": 2787, "annotation": {"number": 64, "value": 127}, "group": "control_change"}, {"time": 2789, "annotation": {"number": 7, "value": 67}, "group": "control_change"}, {"time": 2792, "annotation": {"number": 7, "value": 66}, "group": "control_change"}, {"time": 2794, "annotation": {"number": 64, "value": 0}, "group": "control_change"}, {"time": 2794, "annotation": {"number": 7, "value": 65}, "group": "control_change"}, {"time": 2797, "annotation": {"number": 7, "value": 64}, "group": "control_change"}, {"time": 2799, "annotation": {"number": 64, "value": 127}, "group": "control_change"}, {"time": 2799, "annotation": {"number": 7, "value": 63}, "group": "control_change"}, {"time": 2802, "annotation": {"number": 7, "value": 62}, "group": "control_change"}, {"time": 2804, "annotation": {"number": 7, "value": 61}, "group": "control_change"}, {"time": 2807, "annotation": {"number": 7, "value": 60}, "group": "control_change"}, {"time": 2808, "annotation": {"number": 64, "value": 0}, "group": "control_change"}, {"time": 2809, "annotation": {"number": 7, "value": 59}, "group": "control_change"}, {"time": 2812, "annotation": {"number": 64, "value": 127}, "group": "control_change"}, {"time": 2812, "annotation": {"number": 7, "value": 57}, "group": "control_change"}, {"time": 2814, "annotation": {"number": 7, "value": 56}, "group": "control_change"}, {"time": 2817, "annotation": {"number": 7, "value": 55}, "group": "control_change"}, {"time": 2819, "annotation": {"number": 7, "value": 54}, "group": "control_change"}, {"time": 2820, "annotation": {"number": 64, "value": 0}, "group": "control_change"}, {"time": 2822, "annotation": {"number": 7, "value": 53}, "group": "control_change"}, {"time": 2824, "annotation": {"number": 64, "value": 127}, "group": "control_change"}, {"time": 2824, "annotation": {"number": 7, "value": 52}, "group": "control_change"}, {"time": 2827, "annotation": {"number": 7, "value": 51}, "group": "control_change"}, {"time": 2829, "annotation": {"number": 7, "value": 50}, "group": "control_change"}, {"time": 2832, "annotation": {"number": 64, "value": 0}, "group": "control_change"}, {"time": 2832, "annotation": {"number": 7, "value": 49}, "group": "control_change"}, {"time": 2834, "annotation": {"number": 7, "value": 47}, "group": "control_change"}, {"time": 2835, "annotation": {"number": 64, "value": 127}, "group": "control_change"}, {"time": 2837, "annotation": {"number": 7, "value": 46}, "group": "control_change"}, {"time": 2839, "annotation": {"number": 7, "value": 45}, "group": "control_change"}, {"time": 2840, "annotation": {"number": 64, "value": 0}, "group": "control_change"}, {"time": 2842, "annotation": {"number": 7, "value": 44}, "group": "control_change"}, {"time": 2844, "annotation": {"number": 7, "value": 43}, "group": "control_change"}, {"time": 2847, "annotation": {"number": 64, "value": 127}, "group": "control_change"}, {"time": 2847, "annotation": {"number": 7, "value": 42}, "group": "control_change"}, {"time": 2849, "annotation": {"number": 7, "value": 41}, "group": "control_change"}, {"time": 2852, "annotation": {"number": 7, "value": 40}, "group": "control_change"}, {"time": 2854, "annotation": {"number": 64, "value": 0}, "group": "control_change"}, {"time": 2854, "annotation": {"number": 7, "value": 38}, "group": "control_change"}, {"time": 2857, "annotation": {"number": 7, "value": 37}, "group": "control_change"}, {"time": 2859, "annotation": {"number": 64, "value": 127}, "group": "control_change"}, {"time": 2859, "annotation": {"number": 7, "value": 36}, "group": "control_change"}, {"time": 2862, "annotation": {"number": 7, "value": 35}, "group": "control_change"}, {"time": 2864, "annotation": {"number": 7, "value": 34}, "group": "control_change"}, {"time": 2866, "annotation": {"number": 64, "value": 0}, "group": "control_change"}, {"time": 2867, "annotation": {"number": 7, "value": 33}, "group": "control_change"}, {"time": 2869, "annotation": {"number": 7, "value": 32}, "group": "control_change"}, {"time": 2872, "annotation": {"number": 7, "value": 31}, "group": "control_change"}, {"time": 2872, "annotation": {"number": 64, "value": 127}, "group": "control_change"}, {"time": 2874, "annotation": {"number": 7, "value": 30}, "group": "control_change"}, {"time": 2877, "annotation": {"number": 7, "value": 28}, "group": "control_change"}, {"time": 2879, "annotation": {"number": 64, "value": 0}, "group": "control_change"}, {"time": 2879, "annotation": {"number": 7, "value": 27}, "group": "control_change"}, {"time": 2882, "annotation": {"number": 7, "value": 26}, "group": "control_change"}, {"time": 2884, "annotation": {"number": 7, "value": 25}, "group": "control_change"}, {"time": 2887, "annotation": {"number": 7, "value": 24}, "group": "control_change"}, {"time": 2889, "annotation": {"number": 7, "value": 23}, "group": "control_change"}, {"time": 2892, "annotation": {"number": 7, "value": 22}, "group": "control_change"}, {"time": 2894, "annotation": {"number": 7, "value": 21}, "group": "control_change"}, {"time": 2895, "annotation": {"number": 64, "value": 127}, "group": "control_change"}, {"time": 2897, "annotation": {"number": 7, "value": 19}, "group": "control_change"}, {"time": 2899, "annotation": {"number": 7, "value": 18}, "group": "control_change"}, {"time": 2902, "annotation": {"number": 7, "value": 17}, "group": "control_change"}, {"time": 2904, "annotation": {"number": 64, "value": 0}, "group": "control_change"}, {"time": 2904, "annotation": {"number": 7, "value": 16}, "group": "control_change"}, {"time": 2907, "annotation": {"number": 7, "value": 15}, "group": "control_change"}, {"time": 2908, "annotation": {"number": 64, "value": 127}, "group": "control_change"}, {"time": 2909, "annotation": {"number": 7, "value": 14}, "group": "control_change"}, {"time": 2912, "annotation": {"number": 7, "value": 13}, "group": "control_change"}, {"time": 2912, "annotation": {"number": 64, "value": 0}, "group": "control_change"}, {"time": 2914, "annotation": {"number": 7, "value": 12}, "group": "control_change"}, {"time": 2917, "annotation": {"number": 7, "value": 11}, "group": "control_change"}, {"time": 2919, "annotation": {"number": 64, "value": 127}, "group": "control_change"}, {"time": 2919, "annotation": {"number": 7, "value": 9}, "group": "control_change"}, {"time": 2922, "annotation": {"number": 7, "value": 8}, "group": "control_change"}, {"time": 2924, "annotation": {"number": 7, "value": 7}, "group": "control_change"}, {"time": 2927, "annotation": {"number": 7, "value": 6}, "group": "control_change"}, {"time": 2928, "annotation": {"number": 64, "value": 0}, "group": "control_change"}, {"time": 2929, "annotation": {"number": 7, "value": 5}, "group": "control_change"}, {"time": 2932, "annotation": {"number": 64, "value": 127}, "group": "control_change"}, {"time": 2932, "annotation": {"number": 7, "value": 4}, "group": "control_change"}, {"time": 2934, "annotation": {"number": 7, "value": 3}, "group": "control_change"}, {"time": 2937, "annotation": {"number": 7, "value": 2}, "group": "control_change"}, {"time": 2939, "annotation": {"number": 64, "value": 0}, "group": "control_change"}, {"time": 2939, "annotation": {"number": 7, "value": 0}, "group": "control_change"}, {"time": 2940, "annotation": {"number": 7, "value": 0}, "group": "control_change"}, {"time": 2944, "annotation": {"number": 64, "value": 127}, "group": "control_change"}, {"time": 2951, "annotation": {"number": 64, "value": 0}, "group": "control_change"}, {"time": 2955, "annotation": {"number": 64, "value": 127}, "group": "control_change"}, {"time": 2963, "annotation": {"number": 64, "value": 0}, "group": "control_change"}, {"time": 2967, "annotation": {"number": 64, "value": 127}, "group": "control_change"}, {"time": 2975, "annotation": {"number": 64, "value": 0}, "group": "control_change"}]}]}