{"metadata": {"schema_version": "0.2", "title": "None", "source_filename": "799.mid", "source_format": "midi"}, "resolution": 12, "tempos": [{"time": 0, "qpm": 78.18017402906739}], "key_signatures": [{"time": 0, "root": 0, "mode": "major"}], "time_signatures": [{"time": 0, "numerator": 4, "denominator": 4}, {"time": 0, "numerator": 1, "denominator": 4}], "tracks": [{"program": 0, "is_drum": false, "name": "MELODY", "notes": [{"time": 597, "pitch": 69, "duration": 3, "velocity": 97}, {"time": 603, "pitch": 69, "duration": 3, "velocity": 97}, {"time": 609, "pitch": 67, "duration": 14, "velocity": 95}, {"time": 627, "pitch": 65, "duration": 5, "velocity": 92}, {"time": 633, "pitch": 67, "duration": 4, "velocity": 81}, {"time": 639, "pitch": 65, "duration": 4, "velocity": 93}, {"time": 645, "pitch": 62, "duration": 13, "velocity": 92}, {"time": 669, "pitch": 65, "duration": 5, "velocity": 77}, {"time": 675, "pitch": 67, "duration": 5, "velocity": 68}, {"time": 681, "pitch": 69, "duration": 13, "velocity": 89}, {"time": 699, "pitch": 74, "duration": 5, "velocity": 97}, {"time": 705, "pitch": 72, "duration": 4, "velocity": 89}, {"time": 711, "pitch": 69, "duration": 5, "velocity": 86}, {"time": 717, "pitch": 67, "duration": 11, "velocity": 88}, {"time": 741, "pitch": 67, "duration": 4, "velocity": 89}, {"time": 747, "pitch": 65, "duration": 4, "velocity": 78}, {"time": 753, "pitch": 67, "duration": 10, "velocity": 97}, {"time": 771, "pitch": 69, "duration": 3, "velocity": 97}, {"time": 774, "pitch": 67, "duration": 3, "velocity": 62}, {"time": 777, "pitch": 65, "duration": 5, "velocity": 86}, {"time": 783, "pitch": 67, "duration": 4, "velocity": 88}, {"time": 789, "pitch": 69, "duration": 9, "velocity": 92}, {"time": 813, "pitch": 60, "duration": 5, "velocity": 86}, {"time": 819, "pitch": 57, "duration": 5, "velocity": 82}, {"time": 825, "pitch": 60, "duration": 12, "velocity": 77}, {"time": 843, "pitch": 62, "duration": 4, "velocity": 85}, {"time": 849, "pitch": 64, "duration": 4, "velocity": 90}, {"time": 861, "pitch": 65, "duration": 11, "velocity": 83}, {"time": 873, "pitch": 65, "duration": 3, "velocity": 79}, {"time": 876, "pitch": 62, "duration": 21, "velocity": 78}, {"time": 933, "pitch": 69, "duration": 8, "velocity": 102}, {"time": 945, "pitch": 69, "duration": 2, "velocity": 100}, {"time": 948, "pitch": 72, "duration": 7, "velocity": 99}, {"time": 957, "pitch": 72, "duration": 8, "velocity": 102}, {"time": 969, "pitch": 74, "duration": 4, "velocity": 122}, {"time": 975, "pitch": 74, "duration": 4, "velocity": 99}, {"time": 981, "pitch": 74, "duration": 5, "velocity": 112}, {"time": 993, "pitch": 74, "duration": 3, "velocity": 122}, {"time": 1005, "pitch": 74, "duration": 4, "velocity": 107}, {"time": 1011, "pitch": 77, "duration": 12, "velocity": 100}, {"time": 1023, "pitch": 74, "duration": 5, "velocity": 112}, {"time": 1029, "pitch": 72, "duration": 6, "velocity": 97}, {"time": 1035, "pitch": 74, "duration": 4, "velocity": 99}, {"time": 1038, "pitch": 72, "duration": 2, "velocity": 100}, {"time": 1041, "pitch": 69, "duration": 13, "velocity": 97}, {"time": 1077, "pitch": 69, "duration": 10, "velocity": 100}, {"time": 1089, "pitch": 69, "duration": 3, "velocity": 102}, {"time": 1092, "pitch": 72, "duration": 8, "velocity": 99}, {"time": 1101, "pitch": 72, "duration": 3, "velocity": 102}, {"time": 1113, "pitch": 74, "duration": 2, "velocity": 112}, {"time": 1119, "pitch": 74, "duration": 3, "velocity": 95}, {"time": 1125, "pitch": 74, "duration": 5, "velocity": 107}, {"time": 1131, "pitch": 72, "duration": 3, "velocity": 92}, {"time": 1137, "pitch": 72, "duration": 3, "velocity": 117}, {"time": 1149, "pitch": 69, "duration": 5, "velocity": 99}, {"time": 1155, "pitch": 69, "duration": 4, "velocity": 100}, {"time": 1161, "pitch": 69, "duration": 3, "velocity": 100}, {"time": 1164, "pitch": 72, "duration": 8, "velocity": 102}, {"time": 1173, "pitch": 69, "duration": 4, "velocity": 95}, {"time": 1179, "pitch": 67, "duration": 3, "velocity": 92}, {"time": 1182, "pitch": 65, "duration": 4, "velocity": 66}, {"time": 1185, "pitch": 67, "duration": 16, "velocity": 95}, {"time": 1245, "pitch": 69, "duration": 4, "velocity": 100}, {"time": 1251, "pitch": 69, "duration": 5, "velocity": 95}, {"time": 1257, "pitch": 67, "duration": 14, "velocity": 92}, {"time": 1275, "pitch": 65, "duration": 4, "velocity": 100}, {"time": 1281, "pitch": 67, "duration": 4, "velocity": 89}, {"time": 1287, "pitch": 65, "duration": 3, "velocity": 97}, {"time": 1293, "pitch": 62, "duration": 12, "velocity": 96}, {"time": 1317, "pitch": 65, "duration": 5, "velocity": 92}, {"time": 1323, "pitch": 67, "duration": 5, "velocity": 83}, {"time": 1329, "pitch": 69, "duration": 11, "velocity": 96}, {"time": 1347, "pitch": 72, "duration": 2, "velocity": 95}, {"time": 1350, "pitch": 74, "duration": 3, "velocity": 81}, {"time": 1353, "pitch": 72, "duration": 5, "velocity": 81}, {"time": 1359, "pitch": 69, "duration": 6, "velocity": 81}, {"time": 1365, "pitch": 67, "duration": 15, "velocity": 79}, {"time": 1389, "pitch": 67, "duration": 4, "velocity": 107}, {"time": 1395, "pitch": 65, "duration": 3, "velocity": 73}, {"time": 1401, "pitch": 67, "duration": 12, "velocity": 95}, {"time": 1419, "pitch": 69, "duration": 3, "velocity": 95}, {"time": 1422, "pitch": 67, "duration": 3, "velocity": 69}, {"time": 1425, "pitch": 65, "duration": 5, "velocity": 82}, {"time": 1431, "pitch": 67, "duration": 3, "velocity": 86}, {"time": 1437, "pitch": 69, "duration": 7, "velocity": 97}, {"time": 1461, "pitch": 60, "duration": 5, "velocity": 92}, {"time": 1467, "pitch": 57, "duration": 6, "velocity": 83}, {"time": 1473, "pitch": 60, "duration": 12, "velocity": 89}, {"time": 1491, "pitch": 62, "duration": 6, "velocity": 79}, {"time": 1497, "pitch": 62, "duration": 3, "velocity": 79}, {"time": 1500, "pitch": 65, "duration": 5, "velocity": 75}, {"time": 1509, "pitch": 67, "duration": 11, "velocity": 88}, {"time": 1521, "pitch": 65, "duration": 5, "velocity": 83}, {"time": 1527, "pitch": 62, "duration": 20, "velocity": 77}, {"time": 1857, "pitch": 69, "duration": 3, "velocity": 97}, {"time": 1863, "pitch": 69, "duration": 3, "velocity": 97}, {"time": 1869, "pitch": 67, "duration": 14, "velocity": 95}, {"time": 1887, "pitch": 65, "duration": 5, "velocity": 92}, {"time": 1893, "pitch": 67, "duration": 4, "velocity": 81}, {"time": 1899, "pitch": 65, "duration": 4, "velocity": 93}, {"time": 1905, "pitch": 62, "duration": 13, "velocity": 92}, {"time": 1929, "pitch": 65, "duration": 5, "velocity": 77}, {"time": 1935, "pitch": 67, "duration": 5, "velocity": 68}, {"time": 1941, "pitch": 69, "duration": 13, "velocity": 89}, {"time": 1959, "pitch": 74, "duration": 5, "velocity": 97}, {"time": 1965, "pitch": 72, "duration": 4, "velocity": 89}, {"time": 1971, "pitch": 69, "duration": 5, "velocity": 86}, {"time": 1977, "pitch": 67, "duration": 11, "velocity": 88}, {"time": 2001, "pitch": 67, "duration": 4, "velocity": 89}, {"time": 2007, "pitch": 65, "duration": 4, "velocity": 78}, {"time": 2013, "pitch": 67, "duration": 10, "velocity": 97}, {"time": 2031, "pitch": 69, "duration": 3, "velocity": 97}, {"time": 2034, "pitch": 67, "duration": 3, "velocity": 62}, {"time": 2037, "pitch": 65, "duration": 5, "velocity": 86}, {"time": 2043, "pitch": 67, "duration": 4, "velocity": 88}, {"time": 2049, "pitch": 69, "duration": 9, "velocity": 92}, {"time": 2073, "pitch": 60, "duration": 5, "velocity": 86}, {"time": 2079, "pitch": 57, "duration": 5, "velocity": 82}, {"time": 2085, "pitch": 60, "duration": 12, "velocity": 77}, {"time": 2103, "pitch": 62, "duration": 4, "velocity": 85}, {"time": 2109, "pitch": 64, "duration": 4, "velocity": 90}, {"time": 2121, "pitch": 67, "duration": 10, "velocity": 81}, {"time": 2133, "pitch": 65, "duration": 5, "velocity": 79}, {"time": 2139, "pitch": 62, "duration": 21, "velocity": 78}, {"time": 2193, "pitch": 69, "duration": 8, "velocity": 102}, {"time": 2202, "pitch": 69, "duration": 1, "velocity": 100}, {"time": 2205, "pitch": 72, "duration": 9, "velocity": 99}, {"time": 2217, "pitch": 72, "duration": 8, "velocity": 102}, {"time": 2229, "pitch": 74, "duration": 4, "velocity": 122}, {"time": 2235, "pitch": 74, "duration": 4, "velocity": 99}, {"time": 2241, "pitch": 74, "duration": 11, "velocity": 112}, {"time": 2253, "pitch": 74, "duration": 3, "velocity": 122}, {"time": 2265, "pitch": 74, "duration": 4, "velocity": 107}, {"time": 2271, "pitch": 77, "duration": 12, "velocity": 100}, {"time": 2283, "pitch": 74, "duration": 5, "velocity": 112}, {"time": 2289, "pitch": 72, "duration": 6, "velocity": 97}, {"time": 2292, "pitch": 74, "duration": 3, "velocity": 99}, {"time": 2295, "pitch": 72, "duration": 5, "velocity": 99}, {"time": 2301, "pitch": 69, "duration": 13, "velocity": 97}, {"time": 2337, "pitch": 69, "duration": 7, "velocity": 100}, {"time": 2346, "pitch": 69, "duration": 2, "velocity": 100}, {"time": 2349, "pitch": 72, "duration": 10, "velocity": 99}, {"time": 2361, "pitch": 72, "duration": 3, "velocity": 102}, {"time": 2373, "pitch": 74, "duration": 2, "velocity": 112}, {"time": 2379, "pitch": 74, "duration": 3, "velocity": 95}, {"time": 2385, "pitch": 74, "duration": 5, "velocity": 107}, {"time": 2391, "pitch": 72, "duration": 3, "velocity": 92}, {"time": 2397, "pitch": 72, "duration": 3, "velocity": 117}, {"time": 2409, "pitch": 69, "duration": 8, "velocity": 99}, {"time": 2418, "pitch": 69, "duration": 3, "velocity": 100}, {"time": 2421, "pitch": 72, "duration": 11, "velocity": 102}, {"time": 2433, "pitch": 69, "duration": 4, "velocity": 95}, {"time": 2439, "pitch": 67, "duration": 3, "velocity": 112}, {"time": 2442, "pitch": 65, "duration": 4, "velocity": 66}, {"time": 2445, "pitch": 67, "duration": 16, "velocity": 95}, {"time": 2505, "pitch": 69, "duration": 4, "velocity": 100}, {"time": 2511, "pitch": 69, "duration": 5, "velocity": 95}, {"time": 2517, "pitch": 67, "duration": 14, "velocity": 92}, {"time": 2535, "pitch": 65, "duration": 4, "velocity": 100}, {"time": 2541, "pitch": 67, "duration": 4, "velocity": 89}, {"time": 2547, "pitch": 65, "duration": 3, "velocity": 97}, {"time": 2553, "pitch": 62, "duration": 12, "velocity": 96}, {"time": 2577, "pitch": 65, "duration": 5, "velocity": 92}, {"time": 2583, "pitch": 67, "duration": 5, "velocity": 83}, {"time": 2589, "pitch": 69, "duration": 11, "velocity": 96}, {"time": 2607, "pitch": 72, "duration": 2, "velocity": 95}, {"time": 2610, "pitch": 74, "duration": 3, "velocity": 81}, {"time": 2613, "pitch": 72, "duration": 5, "velocity": 81}, {"time": 2619, "pitch": 69, "duration": 6, "velocity": 81}, {"time": 2625, "pitch": 67, "duration": 15, "velocity": 79}, {"time": 2649, "pitch": 67, "duration": 4, "velocity": 107}, {"time": 2655, "pitch": 65, "duration": 3, "velocity": 73}, {"time": 2661, "pitch": 67, "duration": 12, "velocity": 95}, {"time": 2679, "pitch": 69, "duration": 3, "velocity": 95}, {"time": 2682, "pitch": 67, "duration": 3, "velocity": 69}, {"time": 2685, "pitch": 65, "duration": 5, "velocity": 82}, {"time": 2691, "pitch": 67, "duration": 3, "velocity": 86}, {"time": 2697, "pitch": 69, "duration": 7, "velocity": 97}, {"time": 2721, "pitch": 60, "duration": 5, "velocity": 92}, {"time": 2727, "pitch": 57, "duration": 6, "velocity": 83}, {"time": 2733, "pitch": 60, "duration": 12, "velocity": 89}, {"time": 2751, "pitch": 62, "duration": 6, "velocity": 79}, {"time": 2757, "pitch": 65, "duration": 7, "velocity": 75}, {"time": 2766, "pitch": 65, "duration": 2, "velocity": 100}, {"time": 2769, "pitch": 67, "duration": 11, "velocity": 88}, {"time": 2781, "pitch": 65, "duration": 5, "velocity": 83}, {"time": 2787, "pitch": 62, "duration": 20, "velocity": 77}, {"time": 2841, "pitch": 69, "duration": 8, "velocity": 102}, {"time": 2850, "pitch": 69, "duration": 2, "velocity": 100}, {"time": 2853, "pitch": 72, "duration": 9, "velocity": 99}, {"time": 2865, "pitch": 72, "duration": 8, "velocity": 102}, {"time": 2877, "pitch": 74, "duration": 4, "velocity": 122}, {"time": 2883, "pitch": 74, "duration": 4, "velocity": 99}, {"time": 2889, "pitch": 74, "duration": 10, "velocity": 112}, {"time": 2901, "pitch": 74, "duration": 3, "velocity": 122}, {"time": 2913, "pitch": 74, "duration": 4, "velocity": 107}, {"time": 2919, "pitch": 77, "duration": 12, "velocity": 100}, {"time": 2931, "pitch": 74, "duration": 5, "velocity": 112}, {"time": 2937, "pitch": 72, "duration": 6, "velocity": 97}, {"time": 2940, "pitch": 74, "duration": 4, "velocity": 99}, {"time": 2943, "pitch": 72, "duration": 4, "velocity": 99}, {"time": 2949, "pitch": 72, "duration": 6, "velocity": 97}, {"time": 2952, "pitch": 69, "duration": 20, "velocity": 97}, {"time": 2985, "pitch": 69, "duration": 7, "velocity": 100}, {"time": 2994, "pitch": 69, "duration": 2, "velocity": 100}, {"time": 2997, "pitch": 72, "duration": 10, "velocity": 99}, {"time": 3009, "pitch": 72, "duration": 3, "velocity": 102}, {"time": 3021, "pitch": 74, "duration": 2, "velocity": 112}, {"time": 3027, "pitch": 74, "duration": 3, "velocity": 95}, {"time": 3033, "pitch": 74, "duration": 5, "velocity": 107}, {"time": 3039, "pitch": 72, "duration": 3, "velocity": 92}, {"time": 3045, "pitch": 72, "duration": 3, "velocity": 117}, {"time": 3057, "pitch": 69, "duration": 7, "velocity": 99}, {"time": 3066, "pitch": 69, "duration": 3, "velocity": 100}, {"time": 3069, "pitch": 72, "duration": 11, "velocity": 102}, {"time": 3081, "pitch": 69, "duration": 4, "velocity": 95}, {"time": 3087, "pitch": 67, "duration": 3, "velocity": 112}, {"time": 3090, "pitch": 65, "duration": 4, "velocity": 66}, {"time": 3093, "pitch": 67, "duration": 16, "velocity": 95}, {"time": 3153, "pitch": 69, "duration": 4, "velocity": 100}, {"time": 3159, "pitch": 69, "duration": 5, "velocity": 95}, {"time": 3165, "pitch": 67, "duration": 14, "velocity": 92}, {"time": 3183, "pitch": 65, "duration": 4, "velocity": 100}, {"time": 3189, "pitch": 67, "duration": 4, "velocity": 89}, {"time": 3195, "pitch": 65, "duration": 3, "velocity": 97}, {"time": 3201, "pitch": 62, "duration": 12, "velocity": 96}, {"time": 3225, "pitch": 65, "duration": 5, "velocity": 92}, {"time": 3231, "pitch": 67, "duration": 5, "velocity": 83}, {"time": 3237, "pitch": 69, "duration": 11, "velocity": 96}, {"time": 3255, "pitch": 72, "duration": 2, "velocity": 95}, {"time": 3258, "pitch": 74, "duration": 3, "velocity": 81}, {"time": 3261, "pitch": 72, "duration": 5, "velocity": 81}, {"time": 3267, "pitch": 69, "duration": 6, "velocity": 81}, {"time": 3273, "pitch": 67, "duration": 15, "velocity": 79}, {"time": 3297, "pitch": 67, "duration": 4, "velocity": 107}, {"time": 3303, "pitch": 65, "duration": 3, "velocity": 73}, {"time": 3309, "pitch": 67, "duration": 12, "velocity": 95}, {"time": 3327, "pitch": 69, "duration": 3, "velocity": 95}, {"time": 3330, "pitch": 67, "duration": 3, "velocity": 69}, {"time": 3333, "pitch": 65, "duration": 5, "velocity": 82}, {"time": 3339, "pitch": 67, "duration": 3, "velocity": 86}, {"time": 3345, "pitch": 69, "duration": 7, "velocity": 97}, {"time": 3369, "pitch": 60, "duration": 5, "velocity": 92}, {"time": 3375, "pitch": 57, "duration": 6, "velocity": 83}, {"time": 3381, "pitch": 60, "duration": 12, "velocity": 89}, {"time": 3399, "pitch": 62, "duration": 6, "velocity": 79}, {"time": 3405, "pitch": 65, "duration": 7, "velocity": 75}, {"time": 3420, "pitch": 67, "duration": 11, "velocity": 88}, {"time": 3435, "pitch": 65, "duration": 5, "velocity": 83}, {"time": 3441, "pitch": 62, "duration": 20, "velocity": 77}]}, {"program": 0, "is_drum": false, "name": "BRIDGE", "notes": [{"time": 45, "pitch": 63, "duration": 226, "velocity": 78}, {"time": 273, "pitch": 60, "duration": 6, "velocity": 90}, {"time": 279, "pitch": 65, "duration": 5, "velocity": 100}, {"time": 285, "pitch": 69, "duration": 18, "velocity": 107}, {"time": 309, "pitch": 67, "duration": 5, "velocity": 112}, {"time": 315, "pitch": 69, "duration": 3, "velocity": 97}, {"time": 318, "pitch": 67, "duration": 3, "velocity": 65}, {"time": 321, "pitch": 65, "duration": 20, "velocity": 90}, {"time": 345, "pitch": 67, "duration": 5, "velocity": 107}, {"time": 351, "pitch": 69, "duration": 5, "velocity": 95}, {"time": 357, "pitch": 65, "duration": 15, "velocity": 97}, {"time": 381, "pitch": 62, "duration": 12, "velocity": 102}, {"time": 393, "pitch": 60, "duration": 21, "velocity": 99}, {"time": 417, "pitch": 65, "duration": 5, "velocity": 100}, {"time": 423, "pitch": 64, "duration": 6, "velocity": 82}, {"time": 429, "pitch": 62, "duration": 17, "velocity": 88}, {"time": 447, "pitch": 60, "duration": 5, "velocity": 90}, {"time": 453, "pitch": 62, "duration": 5, "velocity": 82}, {"time": 459, "pitch": 65, "duration": 5, "velocity": 85}, {"time": 465, "pitch": 67, "duration": 17, "velocity": 96}, {"time": 489, "pitch": 65, "duration": 10, "velocity": 95}, {"time": 501, "pitch": 67, "duration": 16, "velocity": 100}, {"time": 519, "pitch": 65, "duration": 5, "velocity": 88}, {"time": 525, "pitch": 67, "duration": 5, "velocity": 93}, {"time": 531, "pitch": 69, "duration": 4, "velocity": 96}, {"time": 537, "pitch": 65, "duration": 35, "velocity": 97}, {"time": 555, "pitch": 84, "duration": 4, "velocity": 95}, {"time": 561, "pitch": 79, "duration": 5, "velocity": 97}, {"time": 567, "pitch": 81, "duration": 6, "velocity": 93}, {"time": 573, "pitch": 72, "duration": 4, "velocity": 88}, {"time": 579, "pitch": 67, "duration": 7, "velocity": 89}, {"time": 861, "pitch": 65, "duration": 11, "velocity": 97}, {"time": 873, "pitch": 62, "duration": 17, "velocity": 95}, {"time": 885, "pitch": 65, "duration": 11, "velocity": 94}, {"time": 897, "pitch": 67, "duration": 8, "velocity": 100}, {"time": 909, "pitch": 69, "duration": 2, "velocity": 93}, {"time": 912, "pitch": 72, "duration": 3, "velocity": 74}, {"time": 915, "pitch": 74, "duration": 3, "velocity": 83}, {"time": 918, "pitch": 72, "duration": 4, "velocity": 85}, {"time": 921, "pitch": 74, "duration": 3, "velocity": 89}, {"time": 924, "pitch": 72, "duration": 4, "velocity": 74}, {"time": 927, "pitch": 74, "duration": 3, "velocity": 90}, {"time": 930, "pitch": 77, "duration": 3, "velocity": 96}, {"time": 933, "pitch": 72, "duration": 19, "velocity": 95}, {"time": 957, "pitch": 67, "duration": 13, "velocity": 97}, {"time": 969, "pitch": 69, "duration": 22, "velocity": 97}, {"time": 993, "pitch": 67, "duration": 13, "velocity": 97}, {"time": 1005, "pitch": 65, "duration": 26, "velocity": 97}, {"time": 1029, "pitch": 62, "duration": 7, "velocity": 98}, {"time": 1035, "pitch": 65, "duration": 7, "velocity": 98}, {"time": 1041, "pitch": 60, "duration": 27, "velocity": 98}, {"time": 1077, "pitch": 65, "duration": 24, "velocity": 99}, {"time": 1101, "pitch": 67, "duration": 7, "velocity": 99}, {"time": 1107, "pitch": 65, "duration": 6, "velocity": 99}, {"time": 1113, "pitch": 69, "duration": 17, "velocity": 99}, {"time": 1131, "pitch": 72, "duration": 6, "velocity": 100}, {"time": 1137, "pitch": 67, "duration": 12, "velocity": 100}, {"time": 1149, "pitch": 65, "duration": 28, "velocity": 100}, {"time": 1173, "pitch": 69, "duration": 11, "velocity": 100}, {"time": 1185, "pitch": 67, "duration": 11, "velocity": 100}, {"time": 1197, "pitch": 65, "duration": 11, "velocity": 100}, {"time": 1209, "pitch": 62, "duration": 14, "velocity": 100}, {"time": 1221, "pitch": 60, "duration": 24, "velocity": 100}, {"time": 1221, "pitch": 67, "duration": 22, "velocity": 100}, {"time": 1569, "pitch": 62, "duration": 6, "velocity": 95}, {"time": 1575, "pitch": 65, "duration": 5, "velocity": 93}, {"time": 1581, "pitch": 69, "duration": 17, "velocity": 100}, {"time": 1599, "pitch": 72, "duration": 6, "velocity": 97}, {"time": 1605, "pitch": 69, "duration": 6, "velocity": 95}, {"time": 1611, "pitch": 72, "duration": 4, "velocity": 102}, {"time": 1614, "pitch": 69, "duration": 3, "velocity": 70}, {"time": 1617, "pitch": 62, "duration": 20, "velocity": 99}, {"time": 1641, "pitch": 65, "duration": 6, "velocity": 99}, {"time": 1647, "pitch": 67, "duration": 5, "velocity": 99}, {"time": 1653, "pitch": 69, "duration": 17, "velocity": 112}, {"time": 1671, "pitch": 74, "duration": 5, "velocity": 102}, {"time": 1677, "pitch": 72, "duration": 6, "velocity": 107}, {"time": 1683, "pitch": 69, "duration": 3, "velocity": 96}, {"time": 1686, "pitch": 72, "duration": 3, "velocity": 96}, {"time": 1689, "pitch": 67, "duration": 24, "velocity": 102}, {"time": 1713, "pitch": 69, "duration": 5, "velocity": 102}, {"time": 1719, "pitch": 72, "duration": 5, "velocity": 102}, {"time": 1725, "pitch": 67, "duration": 16, "velocity": 97}, {"time": 1743, "pitch": 62, "duration": 5, "velocity": 95}, {"time": 1749, "pitch": 65, "duration": 4, "velocity": 97}, {"time": 1755, "pitch": 67, "duration": 3, "velocity": 92}, {"time": 1758, "pitch": 65, "duration": 3, "velocity": 89}, {"time": 1761, "pitch": 69, "duration": 18, "velocity": 97}, {"time": 1785, "pitch": 65, "duration": 11, "velocity": 96}, {"time": 1797, "pitch": 67, "duration": 18, "velocity": 100}, {"time": 1815, "pitch": 62, "duration": 5, "velocity": 97}, {"time": 1821, "pitch": 65, "duration": 5, "velocity": 97}, {"time": 1827, "pitch": 67, "duration": 6, "velocity": 90}, {"time": 1833, "pitch": 65, "duration": 32, "velocity": 102}, {"time": 2121, "pitch": 65, "duration": 11, "velocity": 97}, {"time": 2133, "pitch": 62, "duration": 17, "velocity": 95}, {"time": 2145, "pitch": 65, "duration": 11, "velocity": 112}, {"time": 2157, "pitch": 67, "duration": 8, "velocity": 100}, {"time": 2169, "pitch": 69, "duration": 2, "velocity": 93}, {"time": 2172, "pitch": 72, "duration": 3, "velocity": 74}, {"time": 2175, "pitch": 74, "duration": 3, "velocity": 83}, {"time": 2178, "pitch": 72, "duration": 4, "velocity": 85}, {"time": 2181, "pitch": 74, "duration": 3, "velocity": 89}, {"time": 2184, "pitch": 72, "duration": 4, "velocity": 74}, {"time": 2187, "pitch": 74, "duration": 3, "velocity": 90}, {"time": 2190, "pitch": 77, "duration": 3, "velocity": 96}, {"time": 2193, "pitch": 72, "duration": 19, "velocity": 95}, {"time": 2217, "pitch": 67, "duration": 13, "velocity": 96}, {"time": 2229, "pitch": 69, "duration": 22, "velocity": 96}, {"time": 2253, "pitch": 67, "duration": 13, "velocity": 96}, {"time": 2265, "pitch": 65, "duration": 26, "velocity": 96}, {"time": 2289, "pitch": 62, "duration": 7, "velocity": 96}, {"time": 2295, "pitch": 65, "duration": 7, "velocity": 96}, {"time": 2301, "pitch": 60, "duration": 27, "velocity": 96}, {"time": 2337, "pitch": 65, "duration": 24, "velocity": 96}, {"time": 2361, "pitch": 67, "duration": 7, "velocity": 96}, {"time": 2367, "pitch": 65, "duration": 6, "velocity": 96}, {"time": 2373, "pitch": 69, "duration": 17, "velocity": 96}, {"time": 2391, "pitch": 72, "duration": 6, "velocity": 96}, {"time": 2397, "pitch": 67, "duration": 12, "velocity": 96}, {"time": 2409, "pitch": 65, "duration": 28, "velocity": 96}, {"time": 2433, "pitch": 69, "duration": 11, "velocity": 96}, {"time": 2445, "pitch": 67, "duration": 11, "velocity": 96}, {"time": 2457, "pitch": 65, "duration": 11, "velocity": 96}, {"time": 2469, "pitch": 62, "duration": 14, "velocity": 96}, {"time": 2481, "pitch": 60, "duration": 24, "velocity": 96}, {"time": 2481, "pitch": 67, "duration": 22, "velocity": 96}, {"time": 2769, "pitch": 67, "duration": 6, "velocity": 96}, {"time": 2775, "pitch": 65, "duration": 5, "velocity": 74}, {"time": 2781, "pitch": 62, "duration": 18, "velocity": 86}, {"time": 2793, "pitch": 65, "duration": 12, "velocity": 97}, {"time": 2805, "pitch": 67, "duration": 11, "velocity": 102}, {"time": 2817, "pitch": 69, "duration": 2, "velocity": 93}, {"time": 2820, "pitch": 72, "duration": 3, "velocity": 74}, {"time": 2823, "pitch": 74, "duration": 3, "velocity": 83}, {"time": 2826, "pitch": 72, "duration": 4, "velocity": 85}, {"time": 2829, "pitch": 74, "duration": 3, "velocity": 89}, {"time": 2832, "pitch": 72, "duration": 4, "velocity": 74}, {"time": 2835, "pitch": 74, "duration": 3, "velocity": 90}, {"time": 2838, "pitch": 77, "duration": 3, "velocity": 96}, {"time": 2841, "pitch": 72, "duration": 19, "velocity": 95}, {"time": 2865, "pitch": 67, "duration": 13, "velocity": 88}, {"time": 2877, "pitch": 69, "duration": 27, "velocity": 108}, {"time": 2901, "pitch": 67, "duration": 13, "velocity": 83}, {"time": 2913, "pitch": 65, "duration": 25, "velocity": 88}, {"time": 2937, "pitch": 67, "duration": 13, "velocity": 65}, {"time": 2949, "pitch": 69, "duration": 31, "velocity": 88}, {"time": 2985, "pitch": 69, "duration": 25, "velocity": 117}, {"time": 3009, "pitch": 67, "duration": 7, "velocity": 97}, {"time": 3015, "pitch": 65, "duration": 7, "velocity": 97}, {"time": 3021, "pitch": 69, "duration": 27, "velocity": 113}, {"time": 3045, "pitch": 67, "duration": 12, "velocity": 90}, {"time": 3057, "pitch": 65, "duration": 25, "velocity": 120}, {"time": 3081, "pitch": 69, "duration": 12, "velocity": 82}, {"time": 3093, "pitch": 67, "duration": 11, "velocity": 117}, {"time": 3105, "pitch": 65, "duration": 11, "velocity": 100}, {"time": 3117, "pitch": 62, "duration": 14, "velocity": 99}, {"time": 3129, "pitch": 67, "duration": 22, "velocity": 107}, {"time": 3441, "pitch": 62, "duration": 3, "velocity": 90}, {"time": 3444, "pitch": 65, "duration": 2, "velocity": 86}, {"time": 3447, "pitch": 67, "duration": 5, "velocity": 97}, {"time": 3453, "pitch": 69, "duration": 15, "velocity": 127}, {"time": 3477, "pitch": 67, "duration": 11, "velocity": 102}, {"time": 3489, "pitch": 65, "duration": 18, "velocity": 93}, {"time": 3513, "pitch": 67, "duration": 5, "velocity": 127}, {"time": 3519, "pitch": 69, "duration": 5, "velocity": 102}, {"time": 3525, "pitch": 65, "duration": 17, "velocity": 107}, {"time": 3543, "pitch": 65, "duration": 6, "velocity": 102}, {"time": 3549, "pitch": 62, "duration": 12, "velocity": 99}, {"time": 3561, "pitch": 60, "duration": 19, "velocity": 97}, {"time": 3585, "pitch": 65, "duration": 6, "velocity": 102}, {"time": 3591, "pitch": 64, "duration": 6, "velocity": 93}, {"time": 3597, "pitch": 62, "duration": 16, "velocity": 92}, {"time": 3615, "pitch": 60, "duration": 5, "velocity": 97}, {"time": 3621, "pitch": 62, "duration": 5, "velocity": 96}, {"time": 3627, "pitch": 65, "duration": 4, "velocity": 99}, {"time": 3633, "pitch": 67, "duration": 16, "velocity": 117}, {"time": 3657, "pitch": 69, "duration": 10, "velocity": 112}, {"time": 3669, "pitch": 67, "duration": 14, "velocity": 100}, {"time": 3687, "pitch": 65, "duration": 6, "velocity": 89}, {"time": 3693, "pitch": 67, "duration": 5, "velocity": 88}, {"time": 3699, "pitch": 62, "duration": 6, "velocity": 90}, {"time": 3705, "pitch": 65, "duration": 36, "velocity": 107}, {"time": 3723, "pitch": 84, "duration": 6, "velocity": 95}, {"time": 3729, "pitch": 79, "duration": 5, "velocity": 86}, {"time": 3735, "pitch": 79, "duration": 6, "velocity": 82}, {"time": 3741, "pitch": 72, "duration": 10, "velocity": 77}, {"time": 3747, "pitch": 67, "duration": 6, "velocity": 86}, {"time": 3753, "pitch": 62, "duration": 5, "velocity": 67}, {"time": 3759, "pitch": 62, "duration": 6, "velocity": 63}, {"time": 3765, "pitch": 60, "duration": 52, "velocity": 59}]}, {"program": 0, "is_drum": false, "name": "PIANO", "notes": [{"time": 285, "pitch": 41, "duration": 31, "velocity": 86}, {"time": 291, "pitch": 48, "duration": 24, "velocity": 58}, {"time": 297, "pitch": 53, "duration": 15, "velocity": 83}, {"time": 303, "pitch": 57, "duration": 20, "velocity": 83}, {"time": 309, "pitch": 65, "duration": 13, "velocity": 99}, {"time": 315, "pitch": 60, "duration": 6, "velocity": 88}, {"time": 321, "pitch": 38, "duration": 28, "velocity": 86}, {"time": 327, "pitch": 45, "duration": 22, "velocity": 66}, {"time": 333, "pitch": 50, "duration": 18, "velocity": 81}, {"time": 339, "pitch": 53, "duration": 12, "velocity": 88}, {"time": 345, "pitch": 57, "duration": 7, "velocity": 92}, {"time": 351, "pitch": 62, "duration": 6, "velocity": 92}, {"time": 357, "pitch": 46, "duration": 29, "velocity": 107}, {"time": 363, "pitch": 50, "duration": 23, "velocity": 56}, {"time": 369, "pitch": 53, "duration": 14, "velocity": 82}, {"time": 375, "pitch": 58, "duration": 7, "velocity": 86}, {"time": 381, "pitch": 65, "duration": 14, "velocity": 93}, {"time": 387, "pitch": 58, "duration": 8, "velocity": 83}, {"time": 393, "pitch": 36, "duration": 27, "velocity": 74}, {"time": 399, "pitch": 43, "duration": 21, "velocity": 58}, {"time": 405, "pitch": 48, "duration": 18, "velocity": 79}, {"time": 411, "pitch": 64, "duration": 17, "velocity": 89}, {"time": 417, "pitch": 60, "duration": 11, "velocity": 77}, {"time": 423, "pitch": 55, "duration": 6, "velocity": 69}, {"time": 429, "pitch": 46, "duration": 26, "velocity": 88}, {"time": 435, "pitch": 50, "duration": 21, "velocity": 67}, {"time": 441, "pitch": 53, "duration": 15, "velocity": 68}, {"time": 447, "pitch": 58, "duration": 7, "velocity": 97}, {"time": 453, "pitch": 65, "duration": 12, "velocity": 90}, {"time": 459, "pitch": 45, "duration": 6, "velocity": 73}, {"time": 465, "pitch": 43, "duration": 28, "velocity": 78}, {"time": 471, "pitch": 50, "duration": 20, "velocity": 58}, {"time": 477, "pitch": 55, "duration": 8, "velocity": 69}, {"time": 483, "pitch": 58, "duration": 7, "velocity": 90}, {"time": 489, "pitch": 62, "duration": 19, "velocity": 93}, {"time": 495, "pitch": 58, "duration": 8, "velocity": 92}, {"time": 498, "pitch": 55, "duration": 7, "velocity": 56}, {"time": 501, "pitch": 36, "duration": 28, "velocity": 85}, {"time": 504, "pitch": 58, "duration": 2, "velocity": 25}, {"time": 507, "pitch": 43, "duration": 22, "velocity": 58}, {"time": 513, "pitch": 48, "duration": 19, "velocity": 83}, {"time": 519, "pitch": 60, "duration": 6, "velocity": 89}, {"time": 525, "pitch": 64, "duration": 13, "velocity": 97}, {"time": 531, "pitch": 60, "duration": 7, "velocity": 79}, {"time": 537, "pitch": 41, "duration": 34, "velocity": 78}, {"time": 543, "pitch": 48, "duration": 31, "velocity": 55}, {"time": 549, "pitch": 53, "duration": 49, "velocity": 72}, {"time": 555, "pitch": 57, "duration": 53, "velocity": 61}, {"time": 561, "pitch": 60, "duration": 47, "velocity": 56}, {"time": 567, "pitch": 65, "duration": 41, "velocity": 40}, {"time": 573, "pitch": 41, "duration": 26, "velocity": 51}, {"time": 609, "pitch": 43, "duration": 27, "velocity": 72}, {"time": 615, "pitch": 50, "duration": 19, "velocity": 50}, {"time": 621, "pitch": 55, "duration": 24, "velocity": 38}, {"time": 627, "pitch": 58, "duration": 7, "velocity": 50}, {"time": 633, "pitch": 62, "duration": 13, "velocity": 93}, {"time": 639, "pitch": 58, "duration": 7, "velocity": 49}, {"time": 645, "pitch": 38, "duration": 26, "velocity": 74}, {"time": 651, "pitch": 45, "duration": 21, "velocity": 39}, {"time": 657, "pitch": 50, "duration": 23, "velocity": 69}, {"time": 663, "pitch": 57, "duration": 19, "velocity": 52}, {"time": 669, "pitch": 65, "duration": 13, "velocity": 82}, {"time": 675, "pitch": 62, "duration": 7, "velocity": 69}, {"time": 681, "pitch": 41, "duration": 30, "velocity": 72}, {"time": 687, "pitch": 48, "duration": 23, "velocity": 63}, {"time": 693, "pitch": 53, "duration": 15, "velocity": 74}, {"time": 699, "pitch": 57, "duration": 8, "velocity": 71}, {"time": 705, "pitch": 60, "duration": 13, "velocity": 82}, {"time": 705, "pitch": 65, "duration": 12, "velocity": 83}, {"time": 711, "pitch": 57, "duration": 7, "velocity": 75}, {"time": 717, "pitch": 36, "duration": 26, "velocity": 62}, {"time": 723, "pitch": 43, "duration": 21, "velocity": 53}, {"time": 729, "pitch": 48, "duration": 15, "velocity": 79}, {"time": 735, "pitch": 55, "duration": 8, "velocity": 63}, {"time": 741, "pitch": 60, "duration": 13, "velocity": 88}, {"time": 741, "pitch": 64, "duration": 13, "velocity": 83}, {"time": 747, "pitch": 55, "duration": 7, "velocity": 67}, {"time": 753, "pitch": 43, "duration": 26, "velocity": 82}, {"time": 759, "pitch": 50, "duration": 20, "velocity": 62}, {"time": 765, "pitch": 55, "duration": 7, "velocity": 70}, {"time": 771, "pitch": 58, "duration": 7, "velocity": 72}, {"time": 777, "pitch": 62, "duration": 12, "velocity": 77}, {"time": 783, "pitch": 58, "duration": 7, "velocity": 59}, {"time": 789, "pitch": 45, "duration": 29, "velocity": 75}, {"time": 795, "pitch": 52, "duration": 21, "velocity": 60}, {"time": 801, "pitch": 57, "duration": 8, "velocity": 75}, {"time": 807, "pitch": 60, "duration": 20, "velocity": 72}, {"time": 813, "pitch": 64, "duration": 14, "velocity": 76}, {"time": 819, "pitch": 57, "duration": 7, "velocity": 85}, {"time": 825, "pitch": 36, "duration": 30, "velocity": 77}, {"time": 831, "pitch": 43, "duration": 29, "velocity": 60}, {"time": 837, "pitch": 48, "duration": 15, "velocity": 78}, {"time": 843, "pitch": 55, "duration": 8, "velocity": 75}, {"time": 849, "pitch": 60, "duration": 13, "velocity": 72}, {"time": 849, "pitch": 64, "duration": 13, "velocity": 78}, {"time": 855, "pitch": 55, "duration": 8, "velocity": 65}, {"time": 861, "pitch": 38, "duration": 33, "velocity": 62}, {"time": 867, "pitch": 45, "duration": 31, "velocity": 48}, {"time": 873, "pitch": 50, "duration": 26, "velocity": 88}, {"time": 879, "pitch": 57, "duration": 32, "velocity": 76}, {"time": 885, "pitch": 65, "duration": 27, "velocity": 90}, {"time": 891, "pitch": 64, "duration": 20, "velocity": 71}, {"time": 897, "pitch": 38, "duration": 25, "velocity": 73}, {"time": 897, "pitch": 62, "duration": 16, "velocity": 57}, {"time": 903, "pitch": 45, "duration": 19, "velocity": 39}, {"time": 909, "pitch": 50, "duration": 19, "velocity": 89}, {"time": 915, "pitch": 57, "duration": 18, "velocity": 89}, {"time": 921, "pitch": 65, "duration": 11, "velocity": 93}, {"time": 924, "pitch": 64, "duration": 8, "velocity": 72}, {"time": 927, "pitch": 62, "duration": 5, "velocity": 85}, {"time": 933, "pitch": 41, "duration": 31, "velocity": 76}, {"time": 936, "pitch": 48, "duration": 27, "velocity": 76}, {"time": 939, "pitch": 53, "duration": 7, "velocity": 82}, {"time": 942, "pitch": 57, "duration": 5, "velocity": 72}, {"time": 945, "pitch": 65, "duration": 24, "velocity": 90}, {"time": 948, "pitch": 53, "duration": 4, "velocity": 75}, {"time": 951, "pitch": 57, "duration": 7, "velocity": 72}, {"time": 954, "pitch": 53, "duration": 3, "velocity": 66}, {"time": 957, "pitch": 60, "duration": 6, "velocity": 82}, {"time": 960, "pitch": 53, "duration": 2, "velocity": 85}, {"time": 963, "pitch": 57, "duration": 7, "velocity": 78}, {"time": 966, "pitch": 60, "duration": 2, "velocity": 77}, {"time": 969, "pitch": 38, "duration": 25, "velocity": 71}, {"time": 972, "pitch": 45, "duration": 21, "velocity": 42}, {"time": 975, "pitch": 50, "duration": 23, "velocity": 71}, {"time": 978, "pitch": 57, "duration": 4, "velocity": 67}, {"time": 981, "pitch": 62, "duration": 4, "velocity": 75}, {"time": 984, "pitch": 57, "duration": 4, "velocity": 86}, {"time": 987, "pitch": 62, "duration": 4, "velocity": 72}, {"time": 990, "pitch": 57, "duration": 4, "velocity": 85}, {"time": 993, "pitch": 65, "duration": 11, "velocity": 92}, {"time": 996, "pitch": 57, "duration": 4, "velocity": 72}, {"time": 999, "pitch": 62, "duration": 5, "velocity": 88}, {"time": 1002, "pitch": 57, "duration": 3, "velocity": 83}, {"time": 1005, "pitch": 46, "duration": 29, "velocity": 97}, {"time": 1008, "pitch": 50, "duration": 26, "velocity": 48}, {"time": 1011, "pitch": 53, "duration": 8, "velocity": 69}, {"time": 1014, "pitch": 58, "duration": 4, "velocity": 71}, {"time": 1017, "pitch": 65, "duration": 23, "velocity": 63}, {"time": 1020, "pitch": 53, "duration": 4, "velocity": 57}, {"time": 1023, "pitch": 58, "duration": 7, "velocity": 55}, {"time": 1026, "pitch": 53, "duration": 4, "velocity": 58}, {"time": 1029, "pitch": 62, "duration": 5, "velocity": 58}, {"time": 1032, "pitch": 53, "duration": 2, "velocity": 59}, {"time": 1035, "pitch": 58, "duration": 4, "velocity": 89}, {"time": 1038, "pitch": 62, "duration": 3, "velocity": 57}, {"time": 1041, "pitch": 41, "duration": 30, "velocity": 56}, {"time": 1044, "pitch": 48, "duration": 26, "velocity": 55}, {"time": 1047, "pitch": 53, "duration": 7, "velocity": 72}, {"time": 1050, "pitch": 57, "duration": 4, "velocity": 72}, {"time": 1053, "pitch": 60, "duration": 10, "velocity": 74}, {"time": 1056, "pitch": 53, "duration": 4, "velocity": 75}, {"time": 1059, "pitch": 57, "duration": 8, "velocity": 70}, {"time": 1062, "pitch": 53, "duration": 4, "velocity": 63}, {"time": 1065, "pitch": 65, "duration": 12, "velocity": 95}, {"time": 1068, "pitch": 53, "duration": 3, "velocity": 73}, {"time": 1071, "pitch": 60, "duration": 6, "velocity": 85}, {"time": 1074, "pitch": 57, "duration": 3, "velocity": 82}, {"time": 1077, "pitch": 41, "duration": 29, "velocity": 79}, {"time": 1080, "pitch": 48, "duration": 26, "velocity": 59}, {"time": 1083, "pitch": 53, "duration": 7, "velocity": 72}, {"time": 1086, "pitch": 57, "duration": 5, "velocity": 72}, {"time": 1089, "pitch": 60, "duration": 8, "velocity": 88}, {"time": 1092, "pitch": 53, "duration": 4, "velocity": 60}, {"time": 1095, "pitch": 57, "duration": 7, "velocity": 77}, {"time": 1098, "pitch": 53, "duration": 4, "velocity": 76}, {"time": 1101, "pitch": 65, "duration": 11, "velocity": 93}, {"time": 1104, "pitch": 53, "duration": 2, "velocity": 69}, {"time": 1107, "pitch": 60, "duration": 5, "velocity": 82}, {"time": 1110, "pitch": 57, "duration": 3, "velocity": 78}, {"time": 1113, "pitch": 38, "duration": 22, "velocity": 86}, {"time": 1116, "pitch": 45, "duration": 16, "velocity": 59}, {"time": 1119, "pitch": 50, "duration": 14, "velocity": 72}, {"time": 1122, "pitch": 57, "duration": 4, "velocity": 69}, {"time": 1125, "pitch": 65, "duration": 11, "velocity": 88}, {"time": 1128, "pitch": 57, "duration": 4, "velocity": 69}, {"time": 1131, "pitch": 62, "duration": 4, "velocity": 72}, {"time": 1134, "pitch": 57, "duration": 3, "velocity": 81}, {"time": 1137, "pitch": 36, "duration": 9, "velocity": 81}, {"time": 1140, "pitch": 43, "duration": 7, "velocity": 53}, {"time": 1143, "pitch": 48, "duration": 6, "velocity": 69}, {"time": 1146, "pitch": 55, "duration": 3, "velocity": 72}, {"time": 1149, "pitch": 41, "duration": 31, "velocity": 72}, {"time": 1152, "pitch": 48, "duration": 32, "velocity": 75}, {"time": 1155, "pitch": 53, "duration": 8, "velocity": 74}, {"time": 1158, "pitch": 57, "duration": 5, "velocity": 75}, {"time": 1161, "pitch": 65, "duration": 23, "velocity": 90}, {"time": 1164, "pitch": 53, "duration": 3, "velocity": 67}, {"time": 1167, "pitch": 57, "duration": 7, "velocity": 76}, {"time": 1170, "pitch": 53, "duration": 4, "velocity": 63}, {"time": 1173, "pitch": 60, "duration": 5, "velocity": 81}, {"time": 1176, "pitch": 53, "duration": 3, "velocity": 69}, {"time": 1179, "pitch": 57, "duration": 6, "velocity": 89}, {"time": 1182, "pitch": 60, "duration": 3, "velocity": 77}, {"time": 1185, "pitch": 43, "duration": 30, "velocity": 76}, {"time": 1188, "pitch": 50, "duration": 10, "velocity": 52}, {"time": 1191, "pitch": 55, "duration": 6, "velocity": 73}, {"time": 1194, "pitch": 57, "duration": 4, "velocity": 70}, {"time": 1197, "pitch": 62, "duration": 23, "velocity": 83}, {"time": 1200, "pitch": 50, "duration": 4, "velocity": 59}, {"time": 1203, "pitch": 55, "duration": 8, "velocity": 78}, {"time": 1206, "pitch": 50, "duration": 4, "velocity": 63}, {"time": 1209, "pitch": 58, "duration": 6, "velocity": 97}, {"time": 1212, "pitch": 50, "duration": 2, "velocity": 58}, {"time": 1215, "pitch": 55, "duration": 6, "velocity": 85}, {"time": 1218, "pitch": 58, "duration": 3, "velocity": 75}, {"time": 1221, "pitch": 36, "duration": 30, "velocity": 66}, {"time": 1224, "pitch": 43, "duration": 27, "velocity": 55}, {"time": 1227, "pitch": 48, "duration": 7, "velocity": 82}, {"time": 1230, "pitch": 55, "duration": 5, "velocity": 66}, {"time": 1233, "pitch": 64, "duration": 24, "velocity": 85}, {"time": 1236, "pitch": 48, "duration": 4, "velocity": 75}, {"time": 1239, "pitch": 55, "duration": 7, "velocity": 78}, {"time": 1242, "pitch": 48, "duration": 4, "velocity": 47}, {"time": 1245, "pitch": 60, "duration": 11, "velocity": 78}, {"time": 1248, "pitch": 48, "duration": 6, "velocity": 59}, {"time": 1251, "pitch": 55, "duration": 5, "velocity": 73}, {"time": 1257, "pitch": 43, "duration": 24, "velocity": 69}, {"time": 1263, "pitch": 50, "duration": 10, "velocity": 56}, {"time": 1269, "pitch": 62, "duration": 24, "velocity": 81}, {"time": 1275, "pitch": 50, "duration": 6, "velocity": 56}, {"time": 1281, "pitch": 58, "duration": 12, "velocity": 79}, {"time": 1287, "pitch": 55, "duration": 7, "velocity": 69}, {"time": 1293, "pitch": 38, "duration": 27, "velocity": 73}, {"time": 1299, "pitch": 45, "duration": 21, "velocity": 59}, {"time": 1305, "pitch": 62, "duration": 11, "velocity": 69}, {"time": 1311, "pitch": 50, "duration": 11, "velocity": 48}, {"time": 1317, "pitch": 65, "duration": 13, "velocity": 81}, {"time": 1323, "pitch": 62, "duration": 7, "velocity": 82}, {"time": 1329, "pitch": 41, "duration": 28, "velocity": 71}, {"time": 1335, "pitch": 48, "duration": 20, "velocity": 48}, {"time": 1341, "pitch": 53, "duration": 12, "velocity": 88}, {"time": 1347, "pitch": 57, "duration": 8, "velocity": 93}, {"time": 1353, "pitch": 65, "duration": 12, "velocity": 100}, {"time": 1359, "pitch": 60, "duration": 9, "velocity": 74}, {"time": 1365, "pitch": 36, "duration": 25, "velocity": 79}, {"time": 1371, "pitch": 43, "duration": 18, "velocity": 41}, {"time": 1377, "pitch": 48, "duration": 15, "velocity": 71}, {"time": 1383, "pitch": 55, "duration": 7, "velocity": 82}, {"time": 1389, "pitch": 64, "duration": 12, "velocity": 83}, {"time": 1392, "pitch": 60, "duration": 9, "velocity": 77}, {"time": 1395, "pitch": 55, "duration": 6, "velocity": 76}, {"time": 1401, "pitch": 43, "duration": 28, "velocity": 82}, {"time": 1407, "pitch": 50, "duration": 9, "velocity": 71}, {"time": 1413, "pitch": 58, "duration": 11, "velocity": 100}, {"time": 1419, "pitch": 50, "duration": 13, "velocity": 63}, {"time": 1425, "pitch": 62, "duration": 12, "velocity": 90}, {"time": 1431, "pitch": 58, "duration": 6, "velocity": 72}, {"time": 1437, "pitch": 45, "duration": 26, "velocity": 72}, {"time": 1443, "pitch": 52, "duration": 9, "velocity": 59}, {"time": 1449, "pitch": 57, "duration": 14, "velocity": 73}, {"time": 1455, "pitch": 52, "duration": 7, "velocity": 43}, {"time": 1461, "pitch": 64, "duration": 12, "velocity": 78}, {"time": 1467, "pitch": 57, "duration": 5, "velocity": 81}, {"time": 1473, "pitch": 36, "duration": 29, "velocity": 83}, {"time": 1479, "pitch": 43, "duration": 30, "velocity": 52}, {"time": 1485, "pitch": 60, "duration": 11, "velocity": 78}, {"time": 1491, "pitch": 48, "duration": 6, "velocity": 65}, {"time": 1497, "pitch": 64, "duration": 12, "velocity": 81}, {"time": 1503, "pitch": 55, "duration": 6, "velocity": 75}, {"time": 1509, "pitch": 38, "duration": 34, "velocity": 70}, {"time": 1515, "pitch": 45, "duration": 30, "velocity": 46}, {"time": 1521, "pitch": 62, "duration": 11, "velocity": 69}, {"time": 1527, "pitch": 50, "duration": 11, "velocity": 48}, {"time": 1533, "pitch": 64, "duration": 8, "velocity": 75}, {"time": 1539, "pitch": 65, "duration": 28, "velocity": 59}, {"time": 1545, "pitch": 38, "duration": 36, "velocity": 73}, {"time": 1551, "pitch": 45, "duration": 28, "velocity": 51}, {"time": 1557, "pitch": 62, "duration": 24, "velocity": 52}, {"time": 1563, "pitch": 50, "duration": 17, "velocity": 60}, {"time": 1569, "pitch": 65, "duration": 12, "velocity": 72}, {"time": 1575, "pitch": 57, "duration": 6, "velocity": 68}, {"time": 1581, "pitch": 41, "duration": 27, "velocity": 82}, {"time": 1587, "pitch": 48, "duration": 20, "velocity": 48}, {"time": 1593, "pitch": 57, "duration": 13, "velocity": 100}, {"time": 1599, "pitch": 53, "duration": 7, "velocity": 72}, {"time": 1605, "pitch": 60, "duration": 11, "velocity": 73}, {"time": 1605, "pitch": 65, "duration": 13, "velocity": 88}, {"time": 1611, "pitch": 57, "duration": 7, "velocity": 76}, {"time": 1617, "pitch": 38, "duration": 25, "velocity": 85}, {"time": 1623, "pitch": 45, "duration": 17, "velocity": 44}, {"time": 1629, "pitch": 50, "duration": 15, "velocity": 86}, {"time": 1635, "pitch": 57, "duration": 18, "velocity": 92}, {"time": 1641, "pitch": 65, "duration": 12, "velocity": 99}, {"time": 1647, "pitch": 62, "duration": 6, "velocity": 77}, {"time": 1653, "pitch": 41, "duration": 31, "velocity": 78}, {"time": 1659, "pitch": 48, "duration": 24, "velocity": 56}, {"time": 1665, "pitch": 57, "duration": 12, "velocity": 92}, {"time": 1671, "pitch": 53, "duration": 10, "velocity": 65}, {"time": 1677, "pitch": 60, "duration": 12, "velocity": 82}, {"time": 1677, "pitch": 65, "duration": 11, "velocity": 86}, {"time": 1683, "pitch": 57, "duration": 6, "velocity": 79}, {"time": 1689, "pitch": 36, "duration": 23, "velocity": 72}, {"time": 1695, "pitch": 43, "duration": 17, "velocity": 66}, {"time": 1701, "pitch": 48, "duration": 14, "velocity": 63}, {"time": 1707, "pitch": 55, "duration": 18, "velocity": 81}, {"time": 1713, "pitch": 64, "duration": 12, "velocity": 96}, {"time": 1719, "pitch": 60, "duration": 6, "velocity": 75}, {"time": 1725, "pitch": 43, "duration": 29, "velocity": 74}, {"time": 1731, "pitch": 50, "duration": 9, "velocity": 58}, {"time": 1737, "pitch": 55, "duration": 13, "velocity": 90}, {"time": 1743, "pitch": 50, "duration": 17, "velocity": 61}, {"time": 1749, "pitch": 58, "duration": 12, "velocity": 79}, {"time": 1749, "pitch": 62, "duration": 12, "velocity": 92}, {"time": 1755, "pitch": 55, "duration": 6, "velocity": 75}, {"time": 1761, "pitch": 38, "duration": 26, "velocity": 76}, {"time": 1767, "pitch": 45, "duration": 19, "velocity": 75}, {"time": 1773, "pitch": 50, "duration": 8, "velocity": 79}, {"time": 1779, "pitch": 57, "duration": 19, "velocity": 86}, {"time": 1785, "pitch": 65, "duration": 12, "velocity": 93}, {"time": 1791, "pitch": 62, "duration": 6, "velocity": 89}, {"time": 1797, "pitch": 36, "duration": 25, "velocity": 77}, {"time": 1803, "pitch": 43, "duration": 19, "velocity": 41}, {"time": 1809, "pitch": 60, "duration": 11, "velocity": 92}, {"time": 1815, "pitch": 48, "duration": 10, "velocity": 47}, {"time": 1821, "pitch": 64, "duration": 13, "velocity": 97}, {"time": 1827, "pitch": 60, "duration": 6, "velocity": 59}, {"time": 1833, "pitch": 41, "duration": 37, "velocity": 88}, {"time": 1839, "pitch": 48, "duration": 29, "velocity": 47}, {"time": 1845, "pitch": 53, "duration": 24, "velocity": 97}, {"time": 1851, "pitch": 60, "duration": 18, "velocity": 96}, {"time": 1857, "pitch": 69, "duration": 12, "velocity": 107}, {"time": 1863, "pitch": 67, "duration": 6, "velocity": 70}, {"time": 1869, "pitch": 43, "duration": 27, "velocity": 72}, {"time": 1875, "pitch": 50, "duration": 19, "velocity": 50}, {"time": 1881, "pitch": 55, "duration": 24, "velocity": 38}, {"time": 1887, "pitch": 58, "duration": 7, "velocity": 50}, {"time": 1893, "pitch": 62, "duration": 13, "velocity": 93}, {"time": 1899, "pitch": 58, "duration": 7, "velocity": 49}, {"time": 1905, "pitch": 38, "duration": 26, "velocity": 74}, {"time": 1911, "pitch": 45, "duration": 21, "velocity": 39}, {"time": 1917, "pitch": 50, "duration": 23, "velocity": 69}, {"time": 1923, "pitch": 57, "duration": 19, "velocity": 52}, {"time": 1929, "pitch": 65, "duration": 13, "velocity": 82}, {"time": 1935, "pitch": 62, "duration": 7, "velocity": 69}, {"time": 1941, "pitch": 41, "duration": 30, "velocity": 72}, {"time": 1947, "pitch": 48, "duration": 23, "velocity": 63}, {"time": 1953, "pitch": 53, "duration": 15, "velocity": 74}, {"time": 1959, "pitch": 57, "duration": 8, "velocity": 71}, {"time": 1965, "pitch": 60, "duration": 13, "velocity": 82}, {"time": 1965, "pitch": 65, "duration": 12, "velocity": 83}, {"time": 1971, "pitch": 57, "duration": 7, "velocity": 75}, {"time": 1977, "pitch": 36, "duration": 26, "velocity": 62}, {"time": 1983, "pitch": 43, "duration": 21, "velocity": 53}, {"time": 1989, "pitch": 48, "duration": 15, "velocity": 79}, {"time": 1995, "pitch": 55, "duration": 8, "velocity": 63}, {"time": 2001, "pitch": 60, "duration": 13, "velocity": 88}, {"time": 2001, "pitch": 64, "duration": 13, "velocity": 83}, {"time": 2007, "pitch": 55, "duration": 7, "velocity": 67}, {"time": 2013, "pitch": 43, "duration": 26, "velocity": 82}, {"time": 2019, "pitch": 50, "duration": 20, "velocity": 62}, {"time": 2025, "pitch": 55, "duration": 7, "velocity": 70}, {"time": 2031, "pitch": 58, "duration": 7, "velocity": 72}, {"time": 2037, "pitch": 62, "duration": 12, "velocity": 77}, {"time": 2043, "pitch": 58, "duration": 7, "velocity": 59}, {"time": 2049, "pitch": 45, "duration": 29, "velocity": 75}, {"time": 2055, "pitch": 52, "duration": 21, "velocity": 60}, {"time": 2061, "pitch": 57, "duration": 8, "velocity": 75}, {"time": 2067, "pitch": 60, "duration": 20, "velocity": 72}, {"time": 2073, "pitch": 64, "duration": 14, "velocity": 76}, {"time": 2079, "pitch": 57, "duration": 7, "velocity": 85}, {"time": 2085, "pitch": 36, "duration": 30, "velocity": 77}, {"time": 2091, "pitch": 43, "duration": 29, "velocity": 60}, {"time": 2097, "pitch": 48, "duration": 15, "velocity": 78}, {"time": 2103, "pitch": 55, "duration": 8, "velocity": 75}, {"time": 2109, "pitch": 60, "duration": 13, "velocity": 72}, {"time": 2109, "pitch": 64, "duration": 13, "velocity": 78}, {"time": 2115, "pitch": 55, "duration": 8, "velocity": 65}, {"time": 2121, "pitch": 38, "duration": 33, "velocity": 62}, {"time": 2127, "pitch": 45, "duration": 31, "velocity": 48}, {"time": 2133, "pitch": 50, "duration": 26, "velocity": 88}, {"time": 2139, "pitch": 57, "duration": 32, "velocity": 76}, {"time": 2145, "pitch": 65, "duration": 27, "velocity": 90}, {"time": 2151, "pitch": 64, "duration": 20, "velocity": 71}, {"time": 2157, "pitch": 38, "duration": 25, "velocity": 73}, {"time": 2157, "pitch": 62, "duration": 16, "velocity": 57}, {"time": 2163, "pitch": 45, "duration": 19, "velocity": 39}, {"time": 2169, "pitch": 50, "duration": 19, "velocity": 89}, {"time": 2175, "pitch": 57, "duration": 18, "velocity": 89}, {"time": 2181, "pitch": 65, "duration": 11, "velocity": 93}, {"time": 2184, "pitch": 64, "duration": 8, "velocity": 72}, {"time": 2187, "pitch": 62, "duration": 5, "velocity": 85}, {"time": 2193, "pitch": 41, "duration": 31, "velocity": 76}, {"time": 2196, "pitch": 48, "duration": 27, "velocity": 76}, {"time": 2199, "pitch": 53, "duration": 7, "velocity": 82}, {"time": 2202, "pitch": 57, "duration": 5, "velocity": 72}, {"time": 2205, "pitch": 65, "duration": 24, "velocity": 90}, {"time": 2208, "pitch": 53, "duration": 4, "velocity": 75}, {"time": 2211, "pitch": 57, "duration": 7, "velocity": 72}, {"time": 2214, "pitch": 53, "duration": 3, "velocity": 66}, {"time": 2217, "pitch": 60, "duration": 6, "velocity": 82}, {"time": 2220, "pitch": 53, "duration": 2, "velocity": 85}, {"time": 2223, "pitch": 57, "duration": 7, "velocity": 78}, {"time": 2226, "pitch": 60, "duration": 2, "velocity": 77}, {"time": 2229, "pitch": 38, "duration": 25, "velocity": 71}, {"time": 2232, "pitch": 45, "duration": 21, "velocity": 42}, {"time": 2235, "pitch": 50, "duration": 23, "velocity": 71}, {"time": 2238, "pitch": 57, "duration": 4, "velocity": 67}, {"time": 2241, "pitch": 62, "duration": 4, "velocity": 75}, {"time": 2244, "pitch": 57, "duration": 4, "velocity": 86}, {"time": 2247, "pitch": 62, "duration": 4, "velocity": 72}, {"time": 2250, "pitch": 57, "duration": 4, "velocity": 85}, {"time": 2253, "pitch": 65, "duration": 11, "velocity": 92}, {"time": 2256, "pitch": 57, "duration": 4, "velocity": 72}, {"time": 2259, "pitch": 62, "duration": 5, "velocity": 88}, {"time": 2262, "pitch": 57, "duration": 3, "velocity": 83}, {"time": 2265, "pitch": 46, "duration": 29, "velocity": 97}, {"time": 2268, "pitch": 50, "duration": 26, "velocity": 48}, {"time": 2271, "pitch": 53, "duration": 8, "velocity": 69}, {"time": 2274, "pitch": 58, "duration": 4, "velocity": 71}, {"time": 2277, "pitch": 65, "duration": 23, "velocity": 63}, {"time": 2280, "pitch": 53, "duration": 4, "velocity": 57}, {"time": 2283, "pitch": 58, "duration": 7, "velocity": 55}, {"time": 2286, "pitch": 53, "duration": 4, "velocity": 58}, {"time": 2289, "pitch": 62, "duration": 5, "velocity": 58}, {"time": 2292, "pitch": 53, "duration": 2, "velocity": 59}, {"time": 2295, "pitch": 58, "duration": 4, "velocity": 89}, {"time": 2298, "pitch": 62, "duration": 3, "velocity": 57}, {"time": 2301, "pitch": 41, "duration": 30, "velocity": 56}, {"time": 2304, "pitch": 48, "duration": 26, "velocity": 55}, {"time": 2307, "pitch": 53, "duration": 7, "velocity": 72}, {"time": 2310, "pitch": 57, "duration": 4, "velocity": 72}, {"time": 2313, "pitch": 60, "duration": 10, "velocity": 74}, {"time": 2316, "pitch": 53, "duration": 4, "velocity": 75}, {"time": 2319, "pitch": 57, "duration": 8, "velocity": 70}, {"time": 2322, "pitch": 53, "duration": 4, "velocity": 63}, {"time": 2325, "pitch": 65, "duration": 12, "velocity": 95}, {"time": 2328, "pitch": 53, "duration": 3, "velocity": 73}, {"time": 2331, "pitch": 60, "duration": 6, "velocity": 85}, {"time": 2334, "pitch": 57, "duration": 3, "velocity": 82}, {"time": 2337, "pitch": 41, "duration": 29, "velocity": 79}, {"time": 2340, "pitch": 48, "duration": 26, "velocity": 59}, {"time": 2343, "pitch": 53, "duration": 7, "velocity": 72}, {"time": 2346, "pitch": 57, "duration": 5, "velocity": 72}, {"time": 2349, "pitch": 60, "duration": 8, "velocity": 88}, {"time": 2352, "pitch": 53, "duration": 4, "velocity": 60}, {"time": 2355, "pitch": 57, "duration": 7, "velocity": 77}, {"time": 2358, "pitch": 53, "duration": 4, "velocity": 76}, {"time": 2361, "pitch": 65, "duration": 11, "velocity": 93}, {"time": 2364, "pitch": 53, "duration": 2, "velocity": 69}, {"time": 2367, "pitch": 60, "duration": 5, "velocity": 82}, {"time": 2370, "pitch": 57, "duration": 3, "velocity": 78}, {"time": 2373, "pitch": 38, "duration": 22, "velocity": 86}, {"time": 2376, "pitch": 45, "duration": 16, "velocity": 59}, {"time": 2379, "pitch": 50, "duration": 14, "velocity": 72}, {"time": 2382, "pitch": 57, "duration": 4, "velocity": 69}, {"time": 2385, "pitch": 65, "duration": 11, "velocity": 88}, {"time": 2388, "pitch": 57, "duration": 4, "velocity": 69}, {"time": 2391, "pitch": 62, "duration": 4, "velocity": 72}, {"time": 2394, "pitch": 57, "duration": 3, "velocity": 81}, {"time": 2397, "pitch": 36, "duration": 9, "velocity": 81}, {"time": 2400, "pitch": 43, "duration": 7, "velocity": 53}, {"time": 2403, "pitch": 48, "duration": 6, "velocity": 69}, {"time": 2406, "pitch": 55, "duration": 3, "velocity": 72}, {"time": 2409, "pitch": 41, "duration": 31, "velocity": 72}, {"time": 2412, "pitch": 48, "duration": 32, "velocity": 75}, {"time": 2415, "pitch": 53, "duration": 8, "velocity": 74}, {"time": 2418, "pitch": 57, "duration": 5, "velocity": 75}, {"time": 2421, "pitch": 65, "duration": 23, "velocity": 90}, {"time": 2424, "pitch": 53, "duration": 3, "velocity": 67}, {"time": 2427, "pitch": 57, "duration": 7, "velocity": 76}, {"time": 2430, "pitch": 53, "duration": 4, "velocity": 63}, {"time": 2433, "pitch": 60, "duration": 5, "velocity": 81}, {"time": 2436, "pitch": 53, "duration": 3, "velocity": 69}, {"time": 2439, "pitch": 57, "duration": 6, "velocity": 89}, {"time": 2442, "pitch": 60, "duration": 3, "velocity": 77}, {"time": 2445, "pitch": 43, "duration": 30, "velocity": 76}, {"time": 2448, "pitch": 50, "duration": 10, "velocity": 52}, {"time": 2451, "pitch": 55, "duration": 6, "velocity": 73}, {"time": 2454, "pitch": 57, "duration": 4, "velocity": 70}, {"time": 2457, "pitch": 62, "duration": 23, "velocity": 83}, {"time": 2460, "pitch": 50, "duration": 4, "velocity": 59}, {"time": 2463, "pitch": 55, "duration": 8, "velocity": 78}, {"time": 2466, "pitch": 50, "duration": 4, "velocity": 63}, {"time": 2469, "pitch": 58, "duration": 6, "velocity": 97}, {"time": 2472, "pitch": 50, "duration": 2, "velocity": 58}, {"time": 2475, "pitch": 55, "duration": 6, "velocity": 85}, {"time": 2478, "pitch": 58, "duration": 3, "velocity": 75}, {"time": 2481, "pitch": 36, "duration": 30, "velocity": 66}, {"time": 2484, "pitch": 43, "duration": 27, "velocity": 55}, {"time": 2487, "pitch": 48, "duration": 7, "velocity": 82}, {"time": 2490, "pitch": 55, "duration": 5, "velocity": 66}, {"time": 2493, "pitch": 64, "duration": 24, "velocity": 85}, {"time": 2496, "pitch": 48, "duration": 4, "velocity": 75}, {"time": 2499, "pitch": 55, "duration": 7, "velocity": 78}, {"time": 2502, "pitch": 48, "duration": 4, "velocity": 47}, {"time": 2505, "pitch": 60, "duration": 11, "velocity": 78}, {"time": 2508, "pitch": 48, "duration": 6, "velocity": 59}, {"time": 2511, "pitch": 55, "duration": 5, "velocity": 73}, {"time": 2517, "pitch": 43, "duration": 24, "velocity": 69}, {"time": 2523, "pitch": 50, "duration": 10, "velocity": 56}, {"time": 2529, "pitch": 62, "duration": 24, "velocity": 81}, {"time": 2535, "pitch": 50, "duration": 6, "velocity": 56}, {"time": 2541, "pitch": 58, "duration": 12, "velocity": 79}, {"time": 2547, "pitch": 55, "duration": 7, "velocity": 69}, {"time": 2553, "pitch": 38, "duration": 27, "velocity": 73}, {"time": 2559, "pitch": 45, "duration": 21, "velocity": 59}, {"time": 2565, "pitch": 62, "duration": 11, "velocity": 69}, {"time": 2571, "pitch": 50, "duration": 11, "velocity": 48}, {"time": 2577, "pitch": 65, "duration": 13, "velocity": 81}, {"time": 2583, "pitch": 62, "duration": 7, "velocity": 82}, {"time": 2589, "pitch": 41, "duration": 28, "velocity": 71}, {"time": 2595, "pitch": 48, "duration": 20, "velocity": 48}, {"time": 2601, "pitch": 53, "duration": 12, "velocity": 88}, {"time": 2607, "pitch": 57, "duration": 8, "velocity": 93}, {"time": 2613, "pitch": 65, "duration": 12, "velocity": 100}, {"time": 2619, "pitch": 60, "duration": 9, "velocity": 74}, {"time": 2625, "pitch": 36, "duration": 25, "velocity": 79}, {"time": 2631, "pitch": 43, "duration": 18, "velocity": 41}, {"time": 2637, "pitch": 48, "duration": 15, "velocity": 71}, {"time": 2643, "pitch": 55, "duration": 7, "velocity": 82}, {"time": 2649, "pitch": 64, "duration": 12, "velocity": 83}, {"time": 2652, "pitch": 60, "duration": 9, "velocity": 77}, {"time": 2655, "pitch": 55, "duration": 6, "velocity": 76}, {"time": 2661, "pitch": 43, "duration": 28, "velocity": 82}, {"time": 2667, "pitch": 50, "duration": 9, "velocity": 71}, {"time": 2673, "pitch": 58, "duration": 11, "velocity": 100}, {"time": 2679, "pitch": 50, "duration": 13, "velocity": 63}, {"time": 2685, "pitch": 62, "duration": 12, "velocity": 90}, {"time": 2691, "pitch": 58, "duration": 6, "velocity": 72}, {"time": 2697, "pitch": 45, "duration": 26, "velocity": 72}, {"time": 2703, "pitch": 52, "duration": 9, "velocity": 59}, {"time": 2709, "pitch": 57, "duration": 14, "velocity": 73}, {"time": 2715, "pitch": 52, "duration": 7, "velocity": 43}, {"time": 2721, "pitch": 64, "duration": 12, "velocity": 78}, {"time": 2727, "pitch": 57, "duration": 5, "velocity": 81}, {"time": 2733, "pitch": 36, "duration": 29, "velocity": 83}, {"time": 2739, "pitch": 43, "duration": 30, "velocity": 52}, {"time": 2745, "pitch": 60, "duration": 11, "velocity": 78}, {"time": 2751, "pitch": 48, "duration": 6, "velocity": 65}, {"time": 2757, "pitch": 64, "duration": 12, "velocity": 81}, {"time": 2763, "pitch": 55, "duration": 6, "velocity": 75}, {"time": 2769, "pitch": 38, "duration": 34, "velocity": 70}, {"time": 2775, "pitch": 45, "duration": 30, "velocity": 46}, {"time": 2781, "pitch": 62, "duration": 11, "velocity": 69}, {"time": 2787, "pitch": 50, "duration": 11, "velocity": 48}, {"time": 2793, "pitch": 64, "duration": 8, "velocity": 75}, {"time": 2799, "pitch": 65, "duration": 28, "velocity": 59}, {"time": 2805, "pitch": 38, "duration": 36, "velocity": 73}, {"time": 2811, "pitch": 45, "duration": 28, "velocity": 51}, {"time": 2817, "pitch": 62, "duration": 24, "velocity": 52}, {"time": 2823, "pitch": 50, "duration": 17, "velocity": 60}, {"time": 2829, "pitch": 65, "duration": 12, "velocity": 72}, {"time": 2835, "pitch": 57, "duration": 6, "velocity": 68}, {"time": 2841, "pitch": 41, "duration": 31, "velocity": 76}, {"time": 2844, "pitch": 48, "duration": 27, "velocity": 76}, {"time": 2847, "pitch": 53, "duration": 7, "velocity": 82}, {"time": 2850, "pitch": 57, "duration": 5, "velocity": 72}, {"time": 2853, "pitch": 65, "duration": 24, "velocity": 90}, {"time": 2856, "pitch": 53, "duration": 4, "velocity": 75}, {"time": 2859, "pitch": 57, "duration": 7, "velocity": 72}, {"time": 2862, "pitch": 53, "duration": 3, "velocity": 66}, {"time": 2865, "pitch": 60, "duration": 6, "velocity": 82}, {"time": 2868, "pitch": 53, "duration": 2, "velocity": 85}, {"time": 2871, "pitch": 57, "duration": 7, "velocity": 78}, {"time": 2874, "pitch": 60, "duration": 2, "velocity": 77}, {"time": 2877, "pitch": 38, "duration": 25, "velocity": 71}, {"time": 2880, "pitch": 45, "duration": 21, "velocity": 42}, {"time": 2883, "pitch": 50, "duration": 23, "velocity": 71}, {"time": 2886, "pitch": 57, "duration": 4, "velocity": 67}, {"time": 2889, "pitch": 62, "duration": 4, "velocity": 75}, {"time": 2892, "pitch": 57, "duration": 4, "velocity": 86}, {"time": 2895, "pitch": 62, "duration": 4, "velocity": 72}, {"time": 2898, "pitch": 57, "duration": 4, "velocity": 85}, {"time": 2904, "pitch": 57, "duration": 4, "velocity": 72}, {"time": 2907, "pitch": 62, "duration": 5, "velocity": 88}, {"time": 2910, "pitch": 57, "duration": 3, "velocity": 83}, {"time": 2913, "pitch": 46, "duration": 29, "velocity": 97}, {"time": 2916, "pitch": 50, "duration": 26, "velocity": 48}, {"time": 2919, "pitch": 53, "duration": 8, "velocity": 69}, {"time": 2922, "pitch": 58, "duration": 4, "velocity": 71}, {"time": 2925, "pitch": 65, "duration": 23, "velocity": 63}, {"time": 2928, "pitch": 53, "duration": 4, "velocity": 57}, {"time": 2931, "pitch": 58, "duration": 7, "velocity": 55}, {"time": 2934, "pitch": 53, "duration": 4, "velocity": 58}, {"time": 2937, "pitch": 62, "duration": 5, "velocity": 58}, {"time": 2940, "pitch": 53, "duration": 2, "velocity": 59}, {"time": 2943, "pitch": 58, "duration": 4, "velocity": 89}, {"time": 2946, "pitch": 62, "duration": 3, "velocity": 57}, {"time": 2949, "pitch": 41, "duration": 30, "velocity": 56}, {"time": 2952, "pitch": 48, "duration": 26, "velocity": 55}, {"time": 2955, "pitch": 53, "duration": 7, "velocity": 72}, {"time": 2958, "pitch": 57, "duration": 4, "velocity": 72}, {"time": 2961, "pitch": 60, "duration": 10, "velocity": 74}, {"time": 2964, "pitch": 53, "duration": 4, "velocity": 75}, {"time": 2967, "pitch": 57, "duration": 8, "velocity": 70}, {"time": 2970, "pitch": 53, "duration": 4, "velocity": 63}, {"time": 2973, "pitch": 65, "duration": 12, "velocity": 95}, {"time": 2976, "pitch": 53, "duration": 3, "velocity": 73}, {"time": 2979, "pitch": 60, "duration": 6, "velocity": 85}, {"time": 2982, "pitch": 57, "duration": 3, "velocity": 82}, {"time": 2985, "pitch": 41, "duration": 29, "velocity": 79}, {"time": 2988, "pitch": 48, "duration": 26, "velocity": 59}, {"time": 2991, "pitch": 53, "duration": 7, "velocity": 72}, {"time": 2994, "pitch": 57, "duration": 5, "velocity": 72}, {"time": 2997, "pitch": 60, "duration": 8, "velocity": 88}, {"time": 3000, "pitch": 53, "duration": 4, "velocity": 60}, {"time": 3003, "pitch": 57, "duration": 7, "velocity": 77}, {"time": 3006, "pitch": 53, "duration": 4, "velocity": 76}, {"time": 3012, "pitch": 53, "duration": 2, "velocity": 69}, {"time": 3015, "pitch": 60, "duration": 5, "velocity": 82}, {"time": 3018, "pitch": 57, "duration": 3, "velocity": 78}, {"time": 3021, "pitch": 38, "duration": 22, "velocity": 86}, {"time": 3024, "pitch": 45, "duration": 16, "velocity": 59}, {"time": 3027, "pitch": 50, "duration": 14, "velocity": 72}, {"time": 3030, "pitch": 57, "duration": 4, "velocity": 69}, {"time": 3036, "pitch": 57, "duration": 4, "velocity": 69}, {"time": 3039, "pitch": 62, "duration": 3, "velocity": 72}, {"time": 3042, "pitch": 57, "duration": 3, "velocity": 81}, {"time": 3045, "pitch": 36, "duration": 9, "velocity": 81}, {"time": 3048, "pitch": 43, "duration": 7, "velocity": 53}, {"time": 3051, "pitch": 48, "duration": 6, "velocity": 69}, {"time": 3054, "pitch": 55, "duration": 3, "velocity": 72}, {"time": 3057, "pitch": 41, "duration": 31, "velocity": 72}, {"time": 3060, "pitch": 48, "duration": 32, "velocity": 75}, {"time": 3063, "pitch": 53, "duration": 8, "velocity": 74}, {"time": 3066, "pitch": 57, "duration": 5, "velocity": 75}, {"time": 3069, "pitch": 65, "duration": 23, "velocity": 90}, {"time": 3072, "pitch": 53, "duration": 3, "velocity": 67}, {"time": 3075, "pitch": 57, "duration": 7, "velocity": 76}, {"time": 3078, "pitch": 53, "duration": 4, "velocity": 63}, {"time": 3081, "pitch": 60, "duration": 5, "velocity": 81}, {"time": 3084, "pitch": 53, "duration": 3, "velocity": 69}, {"time": 3087, "pitch": 57, "duration": 6, "velocity": 89}, {"time": 3090, "pitch": 60, "duration": 3, "velocity": 77}, {"time": 3093, "pitch": 43, "duration": 30, "velocity": 76}, {"time": 3096, "pitch": 50, "duration": 10, "velocity": 52}, {"time": 3099, "pitch": 55, "duration": 6, "velocity": 73}, {"time": 3102, "pitch": 57, "duration": 4, "velocity": 70}, {"time": 3105, "pitch": 62, "duration": 23, "velocity": 83}, {"time": 3108, "pitch": 50, "duration": 4, "velocity": 59}, {"time": 3111, "pitch": 55, "duration": 8, "velocity": 78}, {"time": 3114, "pitch": 50, "duration": 4, "velocity": 63}, {"time": 3117, "pitch": 58, "duration": 6, "velocity": 97}, {"time": 3120, "pitch": 50, "duration": 2, "velocity": 58}, {"time": 3123, "pitch": 55, "duration": 6, "velocity": 85}, {"time": 3126, "pitch": 58, "duration": 3, "velocity": 75}, {"time": 3129, "pitch": 36, "duration": 30, "velocity": 66}, {"time": 3132, "pitch": 43, "duration": 27, "velocity": 55}, {"time": 3135, "pitch": 48, "duration": 7, "velocity": 82}, {"time": 3138, "pitch": 55, "duration": 5, "velocity": 66}, {"time": 3141, "pitch": 64, "duration": 24, "velocity": 85}, {"time": 3144, "pitch": 48, "duration": 4, "velocity": 75}, {"time": 3147, "pitch": 55, "duration": 7, "velocity": 78}, {"time": 3150, "pitch": 48, "duration": 4, "velocity": 47}, {"time": 3153, "pitch": 60, "duration": 11, "velocity": 78}, {"time": 3156, "pitch": 48, "duration": 6, "velocity": 59}, {"time": 3159, "pitch": 55, "duration": 5, "velocity": 73}, {"time": 3165, "pitch": 43, "duration": 24, "velocity": 69}, {"time": 3171, "pitch": 50, "duration": 10, "velocity": 56}, {"time": 3177, "pitch": 62, "duration": 24, "velocity": 81}, {"time": 3183, "pitch": 50, "duration": 6, "velocity": 56}, {"time": 3189, "pitch": 58, "duration": 12, "velocity": 79}, {"time": 3195, "pitch": 55, "duration": 7, "velocity": 69}, {"time": 3201, "pitch": 38, "duration": 27, "velocity": 73}, {"time": 3207, "pitch": 45, "duration": 21, "velocity": 59}, {"time": 3213, "pitch": 62, "duration": 11, "velocity": 69}, {"time": 3219, "pitch": 50, "duration": 11, "velocity": 48}, {"time": 3225, "pitch": 65, "duration": 13, "velocity": 81}, {"time": 3231, "pitch": 62, "duration": 7, "velocity": 82}, {"time": 3237, "pitch": 41, "duration": 28, "velocity": 71}, {"time": 3243, "pitch": 48, "duration": 20, "velocity": 48}, {"time": 3249, "pitch": 53, "duration": 12, "velocity": 88}, {"time": 3255, "pitch": 57, "duration": 8, "velocity": 93}, {"time": 3261, "pitch": 65, "duration": 12, "velocity": 100}, {"time": 3267, "pitch": 60, "duration": 9, "velocity": 74}, {"time": 3273, "pitch": 36, "duration": 25, "velocity": 79}, {"time": 3279, "pitch": 43, "duration": 18, "velocity": 41}, {"time": 3285, "pitch": 48, "duration": 15, "velocity": 71}, {"time": 3291, "pitch": 55, "duration": 7, "velocity": 82}, {"time": 3297, "pitch": 64, "duration": 12, "velocity": 83}, {"time": 3300, "pitch": 60, "duration": 9, "velocity": 77}, {"time": 3303, "pitch": 55, "duration": 6, "velocity": 76}, {"time": 3309, "pitch": 43, "duration": 28, "velocity": 82}, {"time": 3315, "pitch": 50, "duration": 9, "velocity": 71}, {"time": 3321, "pitch": 58, "duration": 11, "velocity": 100}, {"time": 3327, "pitch": 50, "duration": 13, "velocity": 63}, {"time": 3333, "pitch": 62, "duration": 12, "velocity": 90}, {"time": 3339, "pitch": 58, "duration": 6, "velocity": 72}, {"time": 3345, "pitch": 45, "duration": 26, "velocity": 72}, {"time": 3351, "pitch": 52, "duration": 9, "velocity": 59}, {"time": 3357, "pitch": 57, "duration": 14, "velocity": 73}, {"time": 3363, "pitch": 52, "duration": 7, "velocity": 43}, {"time": 3369, "pitch": 64, "duration": 12, "velocity": 78}, {"time": 3375, "pitch": 57, "duration": 5, "velocity": 81}, {"time": 3381, "pitch": 36, "duration": 29, "velocity": 83}, {"time": 3387, "pitch": 43, "duration": 30, "velocity": 52}, {"time": 3393, "pitch": 60, "duration": 11, "velocity": 78}, {"time": 3399, "pitch": 48, "duration": 6, "velocity": 65}, {"time": 3405, "pitch": 64, "duration": 12, "velocity": 81}, {"time": 3411, "pitch": 55, "duration": 6, "velocity": 75}, {"time": 3417, "pitch": 38, "duration": 1, "velocity": 70}, {"time": 3417, "pitch": 38, "duration": 1, "velocity": 85}, {"time": 3423, "pitch": 45, "duration": 20, "velocity": 43}, {"time": 3429, "pitch": 50, "duration": 19, "velocity": 69}, {"time": 3435, "pitch": 57, "duration": 9, "velocity": 96}, {"time": 3441, "pitch": 65, "duration": 12, "velocity": 99}, {"time": 3444, "pitch": 62, "duration": 8, "velocity": 81}, {"time": 3447, "pitch": 57, "duration": 6, "velocity": 88}, {"time": 3453, "pitch": 41, "duration": 29, "velocity": 83}, {"time": 3459, "pitch": 48, "duration": 22, "velocity": 52}, {"time": 3465, "pitch": 65, "duration": 12, "velocity": 85}, {"time": 3471, "pitch": 53, "duration": 8, "velocity": 68}, {"time": 3477, "pitch": 69, "duration": 13, "velocity": 100}, {"time": 3483, "pitch": 60, "duration": 6, "velocity": 83}, {"time": 3489, "pitch": 38, "duration": 24, "velocity": 88}, {"time": 3495, "pitch": 45, "duration": 18, "velocity": 44}, {"time": 3501, "pitch": 62, "duration": 7, "velocity": 93}, {"time": 3507, "pitch": 50, "duration": 8, "velocity": 78}, {"time": 3513, "pitch": 62, "duration": 12, "velocity": 86}, {"time": 3513, "pitch": 65, "duration": 12, "velocity": 92}, {"time": 3519, "pitch": 57, "duration": 6, "velocity": 78}, {"time": 3525, "pitch": 46, "duration": 28, "velocity": 96}, {"time": 3531, "pitch": 53, "duration": 21, "velocity": 51}, {"time": 3537, "pitch": 62, "duration": 12, "velocity": 88}, {"time": 3543, "pitch": 58, "duration": 9, "velocity": 92}, {"time": 3549, "pitch": 65, "duration": 12, "velocity": 100}, {"time": 3555, "pitch": 62, "duration": 6, "velocity": 95}, {"time": 3561, "pitch": 48, "duration": 23, "velocity": 82}, {"time": 3567, "pitch": 55, "duration": 13, "velocity": 82}, {"time": 3573, "pitch": 60, "duration": 10, "velocity": 99}, {"time": 3579, "pitch": 64, "duration": 8, "velocity": 90}, {"time": 3585, "pitch": 67, "duration": 12, "velocity": 99}, {"time": 3591, "pitch": 60, "duration": 6, "velocity": 93}, {"time": 3597, "pitch": 46, "duration": 26, "velocity": 89}, {"time": 3603, "pitch": 53, "duration": 18, "velocity": 54}, {"time": 3609, "pitch": 58, "duration": 10, "velocity": 95}, {"time": 3615, "pitch": 62, "duration": 7, "velocity": 93}, {"time": 3621, "pitch": 65, "duration": 11, "velocity": 97}, {"time": 3627, "pitch": 62, "duration": 6, "velocity": 95}, {"time": 3633, "pitch": 43, "duration": 26, "velocity": 73}, {"time": 3639, "pitch": 50, "duration": 10, "velocity": 76}, {"time": 3645, "pitch": 55, "duration": 26, "velocity": 90}, {"time": 3651, "pitch": 50, "duration": 7, "velocity": 62}, {"time": 3657, "pitch": 62, "duration": 12, "velocity": 97}, {"time": 3663, "pitch": 58, "duration": 6, "velocity": 85}, {"time": 3669, "pitch": 36, "duration": 25, "velocity": 79}, {"time": 3675, "pitch": 43, "duration": 19, "velocity": 44}, {"time": 3681, "pitch": 60, "duration": 11, "velocity": 75}, {"time": 3687, "pitch": 48, "duration": 10, "velocity": 73}, {"time": 3693, "pitch": 60, "duration": 1, "velocity": 42}, {"time": 3693, "pitch": 64, "duration": 10, "velocity": 93}, {"time": 3699, "pitch": 60, "duration": 5, "velocity": 63}, {"time": 3705, "pitch": 41, "duration": 32, "velocity": 86}, {"time": 3705, "pitch": 57, "duration": 16, "velocity": 82}, {"time": 3705, "pitch": 60, "duration": 22, "velocity": 74}, {"time": 3711, "pitch": 48, "duration": 26, "velocity": 45}, {"time": 3717, "pitch": 53, "duration": 20, "velocity": 41}, {"time": 3723, "pitch": 57, "duration": 13, "velocity": 56}, {"time": 3729, "pitch": 60, "duration": 23, "velocity": 65}, {"time": 3735, "pitch": 65, "duration": 17, "velocity": 66}, {"time": 3741, "pitch": 41, "duration": 34, "velocity": 43}, {"time": 3741, "pitch": 48, "duration": 87, "velocity": 41}, {"time": 3741, "pitch": 53, "duration": 35, "velocity": 40}, {"time": 3741, "pitch": 57, "duration": 26, "velocity": 59}, {"time": 3753, "pitch": 60, "duration": 10, "velocity": 59}, {"time": 3753, "pitch": 65, "duration": 9, "velocity": 53}, {"time": 3765, "pitch": 60, "duration": 64, "velocity": 46}, {"time": 3765, "pitch": 65, "duration": 64, "velocity": 58}, {"time": 3771, "pitch": 57, "duration": 2, "velocity": 33}, {"time": 3777, "pitch": 41, "duration": 50, "velocity": 32}, {"time": 3777, "pitch": 53, "duration": 50, "velocity": 33}, {"time": 3777, "pitch": 57, "duration": 51, "velocity": 33}], "annotations": [{"time": 285, "annotation": {"number": 64, "value": 127}, "group": "control_change"}, {"time": 319, "annotation": {"number": 64, "value": 0}, "group": "control_change"}, {"time": 322, "annotation": {"number": 64, "value": 127}, "group": "control_change"}, {"time": 354, "annotation": {"number": 64, "value": 0}, "group": "control_change"}, {"time": 358, "annotation": {"number": 64, "value": 127}, "group": "control_change"}, {"time": 391, "annotation": {"number": 64, "value": 0}, "group": "control_change"}, {"time": 394, "annotation": {"number": 64, "value": 127}, "group": "control_change"}, {"time": 426, "annotation": {"number": 64, "value": 0}, "group": "control_change"}, {"time": 429, "annotation": {"number": 64, "value": 127}, "group": "control_change"}, {"time": 458, "annotation": {"number": 64, "value": 0}, "group": "control_change"}, {"time": 465, "annotation": {"number": 64, "value": 127}, "group": "control_change"}, {"time": 498, "annotation": {"number": 64, "value": 0}, "group": "control_change"}, {"time": 502, "annotation": {"number": 64, "value": 127}, "group": "control_change"}, {"time": 502, "annotation": {"number": 64, "value": 0}, "group": "control_change"}, {"time": 534, "annotation": {"number": 64, "value": 0}, "group": "control_change"}, {"time": 537, "annotation": {"number": 64, "value": 127}, "group": "control_change"}, {"time": 570, "annotation": {"number": 64, "value": 0}, "group": "control_change"}, {"time": 575, "annotation": {"number": 64, "value": 127}, "group": "control_change"}, {"time": 603, "annotation": {"number": 64, "value": 0}, "group": "control_change"}, {"time": 609, "annotation": {"number": 64, "value": 127}, "group": "control_change"}, {"time": 641, "annotation": {"number": 64, "value": 0}, "group": "control_change"}, {"time": 645, "annotation": {"number": 64, "value": 127}, "group": "control_change"}, {"time": 678, "annotation": {"number": 64, "value": 0}, "group": "control_change"}, {"time": 682, "annotation": {"number": 64, "value": 127}, "group": "control_change"}, {"time": 714, "annotation": {"number": 64, "value": 0}, "group": "control_change"}, {"time": 717, "annotation": {"number": 64, "value": 127}, "group": "control_change"}, {"time": 749, "annotation": {"number": 64, "value": 0}, "group": "control_change"}, {"time": 753, "annotation": {"number": 64, "value": 127}, "group": "control_change"}, {"time": 785, "annotation": {"number": 64, "value": 0}, "group": "control_change"}, {"time": 789, "annotation": {"number": 64, "value": 127}, "group": "control_change"}, {"time": 822, "annotation": {"number": 64, "value": 0}, "group": "control_change"}, {"time": 825, "annotation": {"number": 64, "value": 127}, "group": "control_change"}, {"time": 858, "annotation": {"number": 64, "value": 0}, "group": "control_change"}, {"time": 861, "annotation": {"number": 64, "value": 127}, "group": "control_change"}, {"time": 893, "annotation": {"number": 64, "value": 0}, "group": "control_change"}, {"time": 897, "annotation": {"number": 64, "value": 127}, "group": "control_change"}, {"time": 929, "annotation": {"number": 64, "value": 0}, "group": "control_change"}, {"time": 933, "annotation": {"number": 64, "value": 127}, "group": "control_change"}, {"time": 966, "annotation": {"number": 64, "value": 0}, "group": "control_change"}, {"time": 969, "annotation": {"number": 64, "value": 127}, "group": "control_change"}, {"time": 1002, "annotation": {"number": 64, "value": 0}, "group": "control_change"}, {"time": 1005, "annotation": {"number": 64, "value": 127}, "group": "control_change"}, {"time": 1038, "annotation": {"number": 64, "value": 0}, "group": "control_change"}, {"time": 1041, "annotation": {"number": 64, "value": 127}, "group": "control_change"}, {"time": 1073, "annotation": {"number": 64, "value": 0}, "group": "control_change"}, {"time": 1077, "annotation": {"number": 64, "value": 127}, "group": "control_change"}, {"time": 1110, "annotation": {"number": 64, "value": 0}, "group": "control_change"}, {"time": 1113, "annotation": {"number": 64, "value": 127}, "group": "control_change"}, {"time": 1136, "annotation": {"number": 64, "value": 0}, "group": "control_change"}, {"time": 1149, "annotation": {"number": 64, "value": 127}, "group": "control_change"}, {"time": 1181, "annotation": {"number": 64, "value": 0}, "group": "control_change"}, {"time": 1185, "annotation": {"number": 64, "value": 127}, "group": "control_change"}, {"time": 1216, "annotation": {"number": 64, "value": 0}, "group": "control_change"}, {"time": 1221, "annotation": {"number": 64, "value": 127}, "group": "control_change"}, {"time": 1254, "annotation": {"number": 64, "value": 0}, "group": "control_change"}, {"time": 1264, "annotation": {"number": 64, "value": 127}, "group": "control_change"}, {"time": 1290, "annotation": {"number": 64, "value": 0}, "group": "control_change"}, {"time": 1293, "annotation": {"number": 64, "value": 127}, "group": "control_change"}, {"time": 1325, "annotation": {"number": 64, "value": 0}, "group": "control_change"}, {"time": 1329, "annotation": {"number": 64, "value": 127}, "group": "control_change"}, {"time": 1363, "annotation": {"number": 64, "value": 0}, "group": "control_change"}, {"time": 1366, "annotation": {"number": 64, "value": 127}, "group": "control_change"}, {"time": 1387, "annotation": {"number": 64, "value": 0}, "group": "control_change"}, {"time": 1390, "annotation": {"number": 64, "value": 127}, "group": "control_change"}, {"time": 1395, "annotation": {"number": 64, "value": 0}, "group": "control_change"}, {"time": 1401, "annotation": {"number": 64, "value": 127}, "group": "control_change"}, {"time": 1432, "annotation": {"number": 64, "value": 0}, "group": "control_change"}, {"time": 1437, "annotation": {"number": 64, "value": 127}, "group": "control_change"}, {"time": 1468, "annotation": {"number": 64, "value": 0}, "group": "control_change"}, {"time": 1473, "annotation": {"number": 64, "value": 127}, "group": "control_change"}, {"time": 1504, "annotation": {"number": 64, "value": 0}, "group": "control_change"}, {"time": 1509, "annotation": {"number": 64, "value": 127}, "group": "control_change"}, {"time": 1541, "annotation": {"number": 64, "value": 0}, "group": "control_change"}, {"time": 1545, "annotation": {"number": 64, "value": 127}, "group": "control_change"}, {"time": 1577, "annotation": {"number": 64, "value": 0}, "group": "control_change"}, {"time": 1581, "annotation": {"number": 64, "value": 127}, "group": "control_change"}, {"time": 1614, "annotation": {"number": 64, "value": 0}, "group": "control_change"}, {"time": 1617, "annotation": {"number": 64, "value": 127}, "group": "control_change"}, {"time": 1638, "annotation": {"number": 64, "value": 0}, "group": "control_change"}, {"time": 1641, "annotation": {"number": 64, "value": 127}, "group": "control_change"}, {"time": 1650, "annotation": {"number": 64, "value": 0}, "group": "control_change"}, {"time": 1653, "annotation": {"number": 64, "value": 127}, "group": "control_change"}, {"time": 1685, "annotation": {"number": 64, "value": 0}, "group": "control_change"}, {"time": 1689, "annotation": {"number": 64, "value": 127}, "group": "control_change"}, {"time": 1721, "annotation": {"number": 64, "value": 0}, "group": "control_change"}, {"time": 1725, "annotation": {"number": 64, "value": 127}, "group": "control_change"}, {"time": 1756, "annotation": {"number": 64, "value": 0}, "group": "control_change"}, {"time": 1762, "annotation": {"number": 64, "value": 127}, "group": "control_change"}, {"time": 1793, "annotation": {"number": 64, "value": 0}, "group": "control_change"}, {"time": 1797, "annotation": {"number": 64, "value": 127}, "group": "control_change"}, {"time": 1829, "annotation": {"number": 64, "value": 0}, "group": "control_change"}, {"time": 1833, "annotation": {"number": 64, "value": 127}, "group": "control_change"}, {"time": 1865, "annotation": {"number": 64, "value": 0}, "group": "control_change"}, {"time": 1901, "annotation": {"number": 64, "value": 0}, "group": "control_change"}, {"time": 1905, "annotation": {"number": 64, "value": 127}, "group": "control_change"}, {"time": 1938, "annotation": {"number": 64, "value": 0}, "group": "control_change"}, {"time": 1942, "annotation": {"number": 64, "value": 127}, "group": "control_change"}, {"time": 1974, "annotation": {"number": 64, "value": 0}, "group": "control_change"}, {"time": 1977, "annotation": {"number": 64, "value": 127}, "group": "control_change"}, {"time": 2009, "annotation": {"number": 64, "value": 0}, "group": "control_change"}, {"time": 2013, "annotation": {"number": 64, "value": 127}, "group": "control_change"}, {"time": 2045, "annotation": {"number": 64, "value": 0}, "group": "control_change"}, {"time": 2049, "annotation": {"number": 64, "value": 127}, "group": "control_change"}, {"time": 2082, "annotation": {"number": 64, "value": 0}, "group": "control_change"}, {"time": 2085, "annotation": {"number": 64, "value": 127}, "group": "control_change"}, {"time": 2118, "annotation": {"number": 64, "value": 0}, "group": "control_change"}, {"time": 2121, "annotation": {"number": 64, "value": 127}, "group": "control_change"}, {"time": 2153, "annotation": {"number": 64, "value": 0}, "group": "control_change"}, {"time": 2157, "annotation": {"number": 64, "value": 127}, "group": "control_change"}, {"time": 2189, "annotation": {"number": 64, "value": 0}, "group": "control_change"}, {"time": 2193, "annotation": {"number": 64, "value": 127}, "group": "control_change"}, {"time": 2226, "annotation": {"number": 64, "value": 0}, "group": "control_change"}, {"time": 2229, "annotation": {"number": 64, "value": 127}, "group": "control_change"}, {"time": 2262, "annotation": {"number": 64, "value": 0}, "group": "control_change"}, {"time": 2265, "annotation": {"number": 64, "value": 127}, "group": "control_change"}, {"time": 2298, "annotation": {"number": 64, "value": 0}, "group": "control_change"}, {"time": 2301, "annotation": {"number": 64, "value": 127}, "group": "control_change"}, {"time": 2333, "annotation": {"number": 64, "value": 0}, "group": "control_change"}, {"time": 2337, "annotation": {"number": 64, "value": 127}, "group": "control_change"}, {"time": 2370, "annotation": {"number": 64, "value": 0}, "group": "control_change"}, {"time": 2373, "annotation": {"number": 64, "value": 127}, "group": "control_change"}, {"time": 2396, "annotation": {"number": 64, "value": 0}, "group": "control_change"}, {"time": 2409, "annotation": {"number": 64, "value": 127}, "group": "control_change"}, {"time": 2441, "annotation": {"number": 64, "value": 0}, "group": "control_change"}, {"time": 2445, "annotation": {"number": 64, "value": 127}, "group": "control_change"}, {"time": 2476, "annotation": {"number": 64, "value": 0}, "group": "control_change"}, {"time": 2481, "annotation": {"number": 64, "value": 127}, "group": "control_change"}, {"time": 2514, "annotation": {"number": 64, "value": 0}, "group": "control_change"}, {"time": 2524, "annotation": {"number": 64, "value": 127}, "group": "control_change"}, {"time": 2550, "annotation": {"number": 64, "value": 0}, "group": "control_change"}, {"time": 2553, "annotation": {"number": 64, "value": 127}, "group": "control_change"}, {"time": 2585, "annotation": {"number": 64, "value": 0}, "group": "control_change"}, {"time": 2589, "annotation": {"number": 64, "value": 127}, "group": "control_change"}, {"time": 2623, "annotation": {"number": 64, "value": 0}, "group": "control_change"}, {"time": 2626, "annotation": {"number": 64, "value": 127}, "group": "control_change"}, {"time": 2647, "annotation": {"number": 64, "value": 0}, "group": "control_change"}, {"time": 2650, "annotation": {"number": 64, "value": 127}, "group": "control_change"}, {"time": 2655, "annotation": {"number": 64, "value": 0}, "group": "control_change"}, {"time": 2661, "annotation": {"number": 64, "value": 127}, "group": "control_change"}, {"time": 2692, "annotation": {"number": 64, "value": 0}, "group": "control_change"}, {"time": 2697, "annotation": {"number": 64, "value": 127}, "group": "control_change"}, {"time": 2728, "annotation": {"number": 64, "value": 0}, "group": "control_change"}, {"time": 2733, "annotation": {"number": 64, "value": 127}, "group": "control_change"}, {"time": 2764, "annotation": {"number": 64, "value": 0}, "group": "control_change"}, {"time": 2769, "annotation": {"number": 64, "value": 127}, "group": "control_change"}, {"time": 2801, "annotation": {"number": 64, "value": 0}, "group": "control_change"}, {"time": 2805, "annotation": {"number": 64, "value": 127}, "group": "control_change"}, {"time": 2837, "annotation": {"number": 64, "value": 0}, "group": "control_change"}, {"time": 2874, "annotation": {"number": 64, "value": 0}, "group": "control_change"}, {"time": 2877, "annotation": {"number": 64, "value": 127}, "group": "control_change"}, {"time": 2910, "annotation": {"number": 64, "value": 0}, "group": "control_change"}, {"time": 2913, "annotation": {"number": 64, "value": 127}, "group": "control_change"}, {"time": 2946, "annotation": {"number": 64, "value": 0}, "group": "control_change"}, {"time": 2949, "annotation": {"number": 64, "value": 127}, "group": "control_change"}, {"time": 2981, "annotation": {"number": 64, "value": 0}, "group": "control_change"}, {"time": 2985, "annotation": {"number": 64, "value": 127}, "group": "control_change"}, {"time": 3018, "annotation": {"number": 64, "value": 0}, "group": "control_change"}, {"time": 3021, "annotation": {"number": 64, "value": 127}, "group": "control_change"}, {"time": 3044, "annotation": {"number": 64, "value": 0}, "group": "control_change"}, {"time": 3057, "annotation": {"number": 64, "value": 127}, "group": "control_change"}, {"time": 3089, "annotation": {"number": 64, "value": 0}, "group": "control_change"}, {"time": 3093, "annotation": {"number": 64, "value": 127}, "group": "control_change"}, {"time": 3124, "annotation": {"number": 64, "value": 0}, "group": "control_change"}, {"time": 3129, "annotation": {"number": 64, "value": 127}, "group": "control_change"}, {"time": 3162, "annotation": {"number": 64, "value": 0}, "group": "control_change"}, {"time": 3172, "annotation": {"number": 64, "value": 127}, "group": "control_change"}, {"time": 3198, "annotation": {"number": 64, "value": 0}, "group": "control_change"}, {"time": 3201, "annotation": {"number": 64, "value": 127}, "group": "control_change"}, {"time": 3233, "annotation": {"number": 64, "value": 0}, "group": "control_change"}, {"time": 3237, "annotation": {"number": 64, "value": 127}, "group": "control_change"}, {"time": 3271, "annotation": {"number": 64, "value": 0}, "group": "control_change"}, {"time": 3274, "annotation": {"number": 64, "value": 127}, "group": "control_change"}, {"time": 3295, "annotation": {"number": 64, "value": 0}, "group": "control_change"}, {"time": 3298, "annotation": {"number": 64, "value": 127}, "group": "control_change"}, {"time": 3303, "annotation": {"number": 64, "value": 0}, "group": "control_change"}, {"time": 3309, "annotation": {"number": 64, "value": 127}, "group": "control_change"}, {"time": 3340, "annotation": {"number": 64, "value": 0}, "group": "control_change"}, {"time": 3345, "annotation": {"number": 64, "value": 127}, "group": "control_change"}, {"time": 3376, "annotation": {"number": 64, "value": 0}, "group": "control_change"}, {"time": 3381, "annotation": {"number": 64, "value": 127}, "group": "control_change"}, {"time": 3412, "annotation": {"number": 64, "value": 0}, "group": "control_change"}, {"time": 3417, "annotation": {"number": 64, "value": 127}, "group": "control_change"}, {"time": 3450, "annotation": {"number": 64, "value": 0}, "group": "control_change"}, {"time": 3454, "annotation": {"number": 64, "value": 127}, "group": "control_change"}, {"time": 3486, "annotation": {"number": 64, "value": 0}, "group": "control_change"}, {"time": 3489, "annotation": {"number": 64, "value": 127}, "group": "control_change"}, {"time": 3523, "annotation": {"number": 64, "value": 0}, "group": "control_change"}, {"time": 3525, "annotation": {"number": 64, "value": 127}, "group": "control_change"}, {"time": 3558, "annotation": {"number": 64, "value": 0}, "group": "control_change"}, {"time": 3561, "annotation": {"number": 64, "value": 127}, "group": "control_change"}, {"time": 3595, "annotation": {"number": 64, "value": 0}, "group": "control_change"}, {"time": 3598, "annotation": {"number": 64, "value": 127}, "group": "control_change"}, {"time": 3629, "annotation": {"number": 64, "value": 0}, "group": "control_change"}, {"time": 3634, "annotation": {"number": 64, "value": 127}, "group": "control_change"}, {"time": 3665, "annotation": {"number": 64, "value": 0}, "group": "control_change"}, {"time": 3669, "annotation": {"number": 64, "value": 127}, "group": "control_change"}, {"time": 3702, "annotation": {"number": 64, "value": 0}, "group": "control_change"}, {"time": 3706, "annotation": {"number": 64, "value": 127}, "group": "control_change"}, {"time": 3738, "annotation": {"number": 64, "value": 0}, "group": "control_change"}, {"time": 3825, "annotation": {"number": 64, "value": 127}, "group": "control_change"}, {"time": 3835, "annotation": {"number": 64, "value": 0}, "group": "control_change"}, {"time": 3836, "annotation": {"number": 64, "value": 127}, "group": "control_change"}, {"time": 3839, "annotation": {"number": 64, "value": 0}, "group": "control_change"}]}]}