{"metadata": {"schema_version": "0.2", "title": "None", "source_filename": "800.mid", "source_format": "midi"}, "resolution": 12, "tempos": [{"time": 0, "qpm": 108.4200844592458}], "time_signatures": [{"time": 0, "numerator": 1, "denominator": 4}], "tracks": [{"program": 0, "is_drum": false, "name": "MELODY", "notes": [{"time": 812, "pitch": 58, "duration": 6, "velocity": 107}, {"time": 818, "pitch": 60, "duration": 5, "velocity": 83}, {"time": 824, "pitch": 63, "duration": 5, "velocity": 112}, {"time": 836, "pitch": 63, "duration": 6, "velocity": 127}, {"time": 842, "pitch": 62, "duration": 5, "velocity": 83}, {"time": 848, "pitch": 63, "duration": 8, "velocity": 112}, {"time": 860, "pitch": 70, "duration": 11, "velocity": 102}, {"time": 872, "pitch": 63, "duration": 21, "velocity": 107}, {"time": 908, "pitch": 58, "duration": 4, "velocity": 107}, {"time": 914, "pitch": 60, "duration": 4, "velocity": 79}, {"time": 920, "pitch": 63, "duration": 8, "velocity": 99}, {"time": 932, "pitch": 63, "duration": 2, "velocity": 112}, {"time": 938, "pitch": 62, "duration": 3, "velocity": 82}, {"time": 944, "pitch": 63, "duration": 8, "velocity": 95}, {"time": 956, "pitch": 67, "duration": 10, "velocity": 93}, {"time": 968, "pitch": 67, "duration": 19, "velocity": 100}, {"time": 1004, "pitch": 65, "duration": 3, "velocity": 96}, {"time": 1010, "pitch": 67, "duration": 4, "velocity": 93}, {"time": 1016, "pitch": 70, "duration": 6, "velocity": 107}, {"time": 1022, "pitch": 72, "duration": 6, "velocity": 100}, {"time": 1028, "pitch": 70, "duration": 7, "velocity": 99}, {"time": 1034, "pitch": 72, "duration": 6, "velocity": 95}, {"time": 1040, "pitch": 70, "duration": 11, "velocity": 117}, {"time": 1058, "pitch": 65, "duration": 9, "velocity": 100}, {"time": 1070, "pitch": 67, "duration": 3, "velocity": 97}, {"time": 1076, "pitch": 67, "duration": 11, "velocity": 93}, {"time": 1088, "pitch": 63, "duration": 12, "velocity": 96}, {"time": 1112, "pitch": 63, "duration": 5, "velocity": 102}, {"time": 1118, "pitch": 60, "duration": 6, "velocity": 69}, {"time": 1124, "pitch": 63, "duration": 7, "velocity": 90}, {"time": 1130, "pitch": 60, "duration": 7, "velocity": 78}, {"time": 1136, "pitch": 63, "duration": 7, "velocity": 97}, {"time": 1148, "pitch": 60, "duration": 5, "velocity": 95}, {"time": 1154, "pitch": 62, "duration": 4, "velocity": 93}, {"time": 1157, "pitch": 60, "duration": 3, "velocity": 86}, {"time": 1160, "pitch": 58, "duration": 26, "velocity": 89}, {"time": 1196, "pitch": 58, "duration": 6, "velocity": 107}, {"time": 1202, "pitch": 60, "duration": 5, "velocity": 83}, {"time": 1208, "pitch": 63, "duration": 5, "velocity": 112}, {"time": 1220, "pitch": 63, "duration": 6, "velocity": 127}, {"time": 1226, "pitch": 62, "duration": 5, "velocity": 83}, {"time": 1232, "pitch": 63, "duration": 8, "velocity": 112}, {"time": 1244, "pitch": 70, "duration": 11, "velocity": 102}, {"time": 1256, "pitch": 63, "duration": 21, "velocity": 107}, {"time": 1292, "pitch": 58, "duration": 4, "velocity": 107}, {"time": 1298, "pitch": 60, "duration": 4, "velocity": 79}, {"time": 1304, "pitch": 63, "duration": 8, "velocity": 99}, {"time": 1316, "pitch": 63, "duration": 2, "velocity": 112}, {"time": 1322, "pitch": 62, "duration": 3, "velocity": 82}, {"time": 1328, "pitch": 63, "duration": 8, "velocity": 95}, {"time": 1340, "pitch": 67, "duration": 10, "velocity": 93}, {"time": 1352, "pitch": 67, "duration": 19, "velocity": 100}, {"time": 1388, "pitch": 65, "duration": 3, "velocity": 96}, {"time": 1394, "pitch": 67, "duration": 4, "velocity": 93}, {"time": 1400, "pitch": 70, "duration": 6, "velocity": 107}, {"time": 1406, "pitch": 72, "duration": 6, "velocity": 100}, {"time": 1412, "pitch": 70, "duration": 7, "velocity": 99}, {"time": 1418, "pitch": 72, "duration": 6, "velocity": 95}, {"time": 1424, "pitch": 70, "duration": 11, "velocity": 117}, {"time": 1442, "pitch": 65, "duration": 9, "velocity": 100}, {"time": 1454, "pitch": 67, "duration": 3, "velocity": 97}, {"time": 1460, "pitch": 67, "duration": 11, "velocity": 93}, {"time": 1472, "pitch": 63, "duration": 12, "velocity": 96}, {"time": 1496, "pitch": 63, "duration": 5, "velocity": 102}, {"time": 1502, "pitch": 60, "duration": 6, "velocity": 69}, {"time": 1508, "pitch": 63, "duration": 7, "velocity": 90}, {"time": 1514, "pitch": 60, "duration": 7, "velocity": 78}, {"time": 1520, "pitch": 63, "duration": 7, "velocity": 97}, {"time": 1532, "pitch": 65, "duration": 5, "velocity": 100}, {"time": 1538, "pitch": 67, "duration": 3, "velocity": 112}, {"time": 1541, "pitch": 65, "duration": 3, "velocity": 79}, {"time": 1544, "pitch": 63, "duration": 27, "velocity": 117}, {"time": 1640, "pitch": 67, "duration": 8, "velocity": 99}, {"time": 1646, "pitch": 70, "duration": 3, "velocity": 102}, {"time": 1652, "pitch": 72, "duration": 6, "velocity": 112}, {"time": 1658, "pitch": 70, "duration": 4, "velocity": 99}, {"time": 1664, "pitch": 72, "duration": 7, "velocity": 117}, {"time": 1676, "pitch": 67, "duration": 9, "velocity": 122}, {"time": 1688, "pitch": 65, "duration": 14, "velocity": 127}, {"time": 1700, "pitch": 70, "duration": 9, "velocity": 127}, {"time": 1712, "pitch": 70, "duration": 13, "velocity": 127}, {"time": 1736, "pitch": 63, "duration": 4, "velocity": 117}, {"time": 1742, "pitch": 65, "duration": 3, "velocity": 89}, {"time": 1748, "pitch": 67, "duration": 4, "velocity": 90}, {"time": 1754, "pitch": 65, "duration": 3, "velocity": 95}, {"time": 1760, "pitch": 67, "duration": 7, "velocity": 92}, {"time": 1772, "pitch": 58, "duration": 10, "velocity": 97}, {"time": 1784, "pitch": 60, "duration": 13, "velocity": 97}, {"time": 1796, "pitch": 65, "duration": 8, "velocity": 100}, {"time": 1808, "pitch": 65, "duration": 12, "velocity": 102}, {"time": 1832, "pitch": 67, "duration": 7, "velocity": 107}, {"time": 1838, "pitch": 70, "duration": 4, "velocity": 97}, {"time": 1844, "pitch": 72, "duration": 5, "velocity": 100}, {"time": 1850, "pitch": 70, "duration": 4, "velocity": 112}, {"time": 1856, "pitch": 72, "duration": 7, "velocity": 122}, {"time": 1868, "pitch": 75, "duration": 10, "velocity": 117}, {"time": 1880, "pitch": 70, "duration": 12, "velocity": 117}, {"time": 1892, "pitch": 67, "duration": 6, "velocity": 93}, {"time": 1898, "pitch": 65, "duration": 5, "velocity": 97}, {"time": 1904, "pitch": 63, "duration": 15, "velocity": 100}, {"time": 1928, "pitch": 63, "duration": 5, "velocity": 117}, {"time": 1934, "pitch": 60, "duration": 3, "velocity": 88}, {"time": 1940, "pitch": 63, "duration": 4, "velocity": 107}, {"time": 1946, "pitch": 60, "duration": 5, "velocity": 85}, {"time": 1952, "pitch": 63, "duration": 9, "velocity": 127}, {"time": 1964, "pitch": 65, "duration": 6, "velocity": 112}, {"time": 1970, "pitch": 67, "duration": 6, "velocity": 95}, {"time": 1976, "pitch": 65, "duration": 21, "velocity": 102}, {"time": 2024, "pitch": 67, "duration": 8, "velocity": 99}, {"time": 2030, "pitch": 70, "duration": 3, "velocity": 102}, {"time": 2036, "pitch": 72, "duration": 6, "velocity": 112}, {"time": 2042, "pitch": 70, "duration": 4, "velocity": 99}, {"time": 2048, "pitch": 72, "duration": 7, "velocity": 117}, {"time": 2060, "pitch": 67, "duration": 9, "velocity": 122}, {"time": 2072, "pitch": 65, "duration": 14, "velocity": 127}, {"time": 2084, "pitch": 70, "duration": 9, "velocity": 127}, {"time": 2096, "pitch": 70, "duration": 13, "velocity": 127}, {"time": 2120, "pitch": 63, "duration": 4, "velocity": 117}, {"time": 2126, "pitch": 65, "duration": 3, "velocity": 89}, {"time": 2132, "pitch": 67, "duration": 4, "velocity": 90}, {"time": 2138, "pitch": 65, "duration": 3, "velocity": 95}, {"time": 2144, "pitch": 67, "duration": 7, "velocity": 92}, {"time": 2156, "pitch": 58, "duration": 10, "velocity": 97}, {"time": 2168, "pitch": 60, "duration": 13, "velocity": 97}, {"time": 2180, "pitch": 65, "duration": 8, "velocity": 100}, {"time": 2192, "pitch": 65, "duration": 12, "velocity": 102}, {"time": 2216, "pitch": 67, "duration": 7, "velocity": 107}, {"time": 2222, "pitch": 70, "duration": 4, "velocity": 97}, {"time": 2228, "pitch": 72, "duration": 5, "velocity": 100}, {"time": 2234, "pitch": 70, "duration": 4, "velocity": 112}, {"time": 2240, "pitch": 72, "duration": 7, "velocity": 122}, {"time": 2252, "pitch": 75, "duration": 10, "velocity": 117}, {"time": 2264, "pitch": 70, "duration": 12, "velocity": 117}, {"time": 2276, "pitch": 67, "duration": 6, "velocity": 93}, {"time": 2282, "pitch": 65, "duration": 5, "velocity": 97}, {"time": 2288, "pitch": 63, "duration": 15, "velocity": 100}, {"time": 2312, "pitch": 63, "duration": 5, "velocity": 117}, {"time": 2318, "pitch": 60, "duration": 3, "velocity": 88}, {"time": 2324, "pitch": 63, "duration": 4, "velocity": 107}, {"time": 2330, "pitch": 60, "duration": 5, "velocity": 85}, {"time": 2336, "pitch": 63, "duration": 9, "velocity": 127}, {"time": 2348, "pitch": 65, "duration": 6, "velocity": 112}, {"time": 2354, "pitch": 67, "duration": 6, "velocity": 95}, {"time": 2360, "pitch": 65, "duration": 21, "velocity": 102}, {"time": 2396, "pitch": 58, "duration": 5, "velocity": 102}, {"time": 2402, "pitch": 60, "duration": 4, "velocity": 90}, {"time": 2408, "pitch": 63, "duration": 26, "velocity": 112}, {"time": 2972, "pitch": 58, "duration": 6, "velocity": 107}, {"time": 2978, "pitch": 60, "duration": 5, "velocity": 83}, {"time": 2984, "pitch": 63, "duration": 5, "velocity": 112}, {"time": 2996, "pitch": 63, "duration": 6, "velocity": 127}, {"time": 3002, "pitch": 62, "duration": 5, "velocity": 83}, {"time": 3008, "pitch": 63, "duration": 8, "velocity": 112}, {"time": 3020, "pitch": 70, "duration": 11, "velocity": 102}, {"time": 3032, "pitch": 63, "duration": 21, "velocity": 107}, {"time": 3068, "pitch": 58, "duration": 4, "velocity": 107}, {"time": 3074, "pitch": 60, "duration": 4, "velocity": 79}, {"time": 3080, "pitch": 63, "duration": 8, "velocity": 99}, {"time": 3092, "pitch": 63, "duration": 2, "velocity": 112}, {"time": 3098, "pitch": 62, "duration": 3, "velocity": 82}, {"time": 3104, "pitch": 63, "duration": 8, "velocity": 95}, {"time": 3116, "pitch": 67, "duration": 10, "velocity": 93}, {"time": 3128, "pitch": 67, "duration": 19, "velocity": 100}, {"time": 3164, "pitch": 65, "duration": 3, "velocity": 96}, {"time": 3170, "pitch": 67, "duration": 4, "velocity": 93}, {"time": 3176, "pitch": 70, "duration": 6, "velocity": 107}, {"time": 3182, "pitch": 72, "duration": 6, "velocity": 100}, {"time": 3188, "pitch": 70, "duration": 7, "velocity": 99}, {"time": 3194, "pitch": 72, "duration": 6, "velocity": 95}, {"time": 3200, "pitch": 70, "duration": 11, "velocity": 117}, {"time": 3218, "pitch": 65, "duration": 9, "velocity": 100}, {"time": 3230, "pitch": 67, "duration": 3, "velocity": 97}, {"time": 3236, "pitch": 67, "duration": 11, "velocity": 93}, {"time": 3248, "pitch": 63, "duration": 12, "velocity": 96}, {"time": 3272, "pitch": 63, "duration": 5, "velocity": 102}, {"time": 3278, "pitch": 60, "duration": 6, "velocity": 69}, {"time": 3284, "pitch": 63, "duration": 7, "velocity": 90}, {"time": 3290, "pitch": 60, "duration": 7, "velocity": 78}, {"time": 3296, "pitch": 63, "duration": 7, "velocity": 97}, {"time": 3308, "pitch": 60, "duration": 5, "velocity": 95}, {"time": 3314, "pitch": 62, "duration": 4, "velocity": 93}, {"time": 3317, "pitch": 60, "duration": 3, "velocity": 86}, {"time": 3320, "pitch": 58, "duration": 26, "velocity": 89}, {"time": 3356, "pitch": 58, "duration": 6, "velocity": 107}, {"time": 3362, "pitch": 60, "duration": 5, "velocity": 83}, {"time": 3368, "pitch": 63, "duration": 5, "velocity": 112}, {"time": 3380, "pitch": 63, "duration": 6, "velocity": 127}, {"time": 3386, "pitch": 62, "duration": 5, "velocity": 83}, {"time": 3392, "pitch": 63, "duration": 8, "velocity": 112}, {"time": 3404, "pitch": 70, "duration": 11, "velocity": 102}, {"time": 3416, "pitch": 63, "duration": 21, "velocity": 107}, {"time": 3452, "pitch": 58, "duration": 4, "velocity": 107}, {"time": 3458, "pitch": 60, "duration": 4, "velocity": 79}, {"time": 3464, "pitch": 63, "duration": 8, "velocity": 99}, {"time": 3476, "pitch": 63, "duration": 2, "velocity": 112}, {"time": 3482, "pitch": 62, "duration": 3, "velocity": 82}, {"time": 3488, "pitch": 63, "duration": 8, "velocity": 95}, {"time": 3500, "pitch": 67, "duration": 10, "velocity": 93}, {"time": 3512, "pitch": 67, "duration": 19, "velocity": 100}, {"time": 3548, "pitch": 65, "duration": 3, "velocity": 96}, {"time": 3554, "pitch": 67, "duration": 4, "velocity": 93}, {"time": 3560, "pitch": 70, "duration": 6, "velocity": 107}, {"time": 3566, "pitch": 72, "duration": 6, "velocity": 100}, {"time": 3572, "pitch": 70, "duration": 7, "velocity": 99}, {"time": 3578, "pitch": 72, "duration": 6, "velocity": 95}, {"time": 3584, "pitch": 70, "duration": 11, "velocity": 117}, {"time": 3602, "pitch": 65, "duration": 9, "velocity": 100}, {"time": 3614, "pitch": 67, "duration": 3, "velocity": 97}, {"time": 3620, "pitch": 67, "duration": 11, "velocity": 93}, {"time": 3632, "pitch": 63, "duration": 12, "velocity": 96}, {"time": 3656, "pitch": 63, "duration": 5, "velocity": 102}, {"time": 3662, "pitch": 60, "duration": 6, "velocity": 69}, {"time": 3668, "pitch": 63, "duration": 7, "velocity": 90}, {"time": 3674, "pitch": 60, "duration": 7, "velocity": 78}, {"time": 3680, "pitch": 63, "duration": 7, "velocity": 97}, {"time": 3692, "pitch": 65, "duration": 5, "velocity": 100}, {"time": 3698, "pitch": 67, "duration": 3, "velocity": 112}, {"time": 3701, "pitch": 65, "duration": 3, "velocity": 79}, {"time": 3704, "pitch": 63, "duration": 27, "velocity": 117}, {"time": 3800, "pitch": 67, "duration": 8, "velocity": 99}, {"time": 3806, "pitch": 70, "duration": 3, "velocity": 102}, {"time": 3812, "pitch": 72, "duration": 6, "velocity": 112}, {"time": 3818, "pitch": 70, "duration": 4, "velocity": 99}, {"time": 3824, "pitch": 72, "duration": 7, "velocity": 117}, {"time": 3836, "pitch": 67, "duration": 9, "velocity": 122}, {"time": 3848, "pitch": 65, "duration": 14, "velocity": 127}, {"time": 3860, "pitch": 70, "duration": 9, "velocity": 127}, {"time": 3872, "pitch": 70, "duration": 13, "velocity": 127}, {"time": 3896, "pitch": 63, "duration": 4, "velocity": 117}, {"time": 3902, "pitch": 65, "duration": 3, "velocity": 89}, {"time": 3908, "pitch": 67, "duration": 4, "velocity": 90}, {"time": 3914, "pitch": 65, "duration": 3, "velocity": 95}, {"time": 3920, "pitch": 67, "duration": 7, "velocity": 92}, {"time": 3932, "pitch": 58, "duration": 10, "velocity": 97}, {"time": 3944, "pitch": 60, "duration": 13, "velocity": 97}, {"time": 3956, "pitch": 65, "duration": 8, "velocity": 100}, {"time": 3968, "pitch": 65, "duration": 12, "velocity": 102}, {"time": 3992, "pitch": 67, "duration": 7, "velocity": 107}, {"time": 3998, "pitch": 70, "duration": 4, "velocity": 97}, {"time": 4004, "pitch": 72, "duration": 5, "velocity": 100}, {"time": 4010, "pitch": 70, "duration": 4, "velocity": 112}, {"time": 4016, "pitch": 72, "duration": 7, "velocity": 122}, {"time": 4028, "pitch": 75, "duration": 10, "velocity": 117}, {"time": 4040, "pitch": 70, "duration": 12, "velocity": 117}, {"time": 4052, "pitch": 67, "duration": 6, "velocity": 93}, {"time": 4058, "pitch": 65, "duration": 5, "velocity": 97}, {"time": 4064, "pitch": 63, "duration": 15, "velocity": 100}, {"time": 4088, "pitch": 63, "duration": 5, "velocity": 117}, {"time": 4094, "pitch": 60, "duration": 3, "velocity": 88}, {"time": 4100, "pitch": 63, "duration": 4, "velocity": 107}, {"time": 4106, "pitch": 60, "duration": 5, "velocity": 85}, {"time": 4112, "pitch": 63, "duration": 9, "velocity": 127}, {"time": 4124, "pitch": 65, "duration": 6, "velocity": 112}, {"time": 4130, "pitch": 67, "duration": 6, "velocity": 95}, {"time": 4136, "pitch": 65, "duration": 21, "velocity": 102}, {"time": 4184, "pitch": 67, "duration": 8, "velocity": 99}, {"time": 4190, "pitch": 70, "duration": 3, "velocity": 102}, {"time": 4196, "pitch": 72, "duration": 6, "velocity": 112}, {"time": 4202, "pitch": 70, "duration": 4, "velocity": 99}, {"time": 4208, "pitch": 72, "duration": 7, "velocity": 117}, {"time": 4220, "pitch": 67, "duration": 9, "velocity": 122}, {"time": 4232, "pitch": 65, "duration": 14, "velocity": 127}, {"time": 4244, "pitch": 70, "duration": 9, "velocity": 127}, {"time": 4256, "pitch": 70, "duration": 13, "velocity": 127}, {"time": 4280, "pitch": 63, "duration": 4, "velocity": 117}, {"time": 4286, "pitch": 65, "duration": 3, "velocity": 89}, {"time": 4292, "pitch": 67, "duration": 4, "velocity": 90}, {"time": 4298, "pitch": 65, "duration": 3, "velocity": 95}, {"time": 4304, "pitch": 67, "duration": 7, "velocity": 92}, {"time": 4316, "pitch": 58, "duration": 10, "velocity": 97}, {"time": 4328, "pitch": 60, "duration": 13, "velocity": 97}, {"time": 4340, "pitch": 65, "duration": 8, "velocity": 100}, {"time": 4352, "pitch": 65, "duration": 12, "velocity": 102}, {"time": 4376, "pitch": 67, "duration": 7, "velocity": 107}, {"time": 4382, "pitch": 70, "duration": 4, "velocity": 97}, {"time": 4388, "pitch": 72, "duration": 5, "velocity": 100}, {"time": 4394, "pitch": 70, "duration": 4, "velocity": 112}, {"time": 4400, "pitch": 72, "duration": 7, "velocity": 122}, {"time": 4412, "pitch": 75, "duration": 10, "velocity": 117}, {"time": 4424, "pitch": 70, "duration": 12, "velocity": 117}, {"time": 4436, "pitch": 67, "duration": 6, "velocity": 93}, {"time": 4442, "pitch": 65, "duration": 5, "velocity": 97}, {"time": 4448, "pitch": 63, "duration": 15, "velocity": 100}, {"time": 4472, "pitch": 63, "duration": 5, "velocity": 117}, {"time": 4478, "pitch": 60, "duration": 3, "velocity": 88}, {"time": 4484, "pitch": 63, "duration": 4, "velocity": 107}, {"time": 4490, "pitch": 60, "duration": 5, "velocity": 85}, {"time": 4496, "pitch": 63, "duration": 9, "velocity": 127}, {"time": 4508, "pitch": 65, "duration": 6, "velocity": 112}, {"time": 4514, "pitch": 67, "duration": 6, "velocity": 95}, {"time": 4520, "pitch": 65, "duration": 21, "velocity": 102}, {"time": 4556, "pitch": 58, "duration": 5, "velocity": 102}, {"time": 4562, "pitch": 60, "duration": 4, "velocity": 90}, {"time": 4568, "pitch": 63, "duration": 26, "velocity": 112}, {"time": 4616, "pitch": 67, "duration": 8, "velocity": 99}, {"time": 4622, "pitch": 70, "duration": 3, "velocity": 102}, {"time": 4628, "pitch": 72, "duration": 6, "velocity": 112}, {"time": 4634, "pitch": 70, "duration": 4, "velocity": 99}, {"time": 4640, "pitch": 72, "duration": 7, "velocity": 117}, {"time": 4652, "pitch": 67, "duration": 9, "velocity": 122}, {"time": 4664, "pitch": 65, "duration": 14, "velocity": 127}, {"time": 4676, "pitch": 70, "duration": 9, "velocity": 127}, {"time": 4688, "pitch": 70, "duration": 13, "velocity": 127}, {"time": 4712, "pitch": 63, "duration": 4, "velocity": 117}, {"time": 4718, "pitch": 65, "duration": 3, "velocity": 89}, {"time": 4724, "pitch": 67, "duration": 4, "velocity": 90}, {"time": 4730, "pitch": 65, "duration": 3, "velocity": 95}, {"time": 4736, "pitch": 67, "duration": 7, "velocity": 92}, {"time": 4748, "pitch": 58, "duration": 10, "velocity": 97}, {"time": 4760, "pitch": 60, "duration": 13, "velocity": 97}, {"time": 4772, "pitch": 65, "duration": 8, "velocity": 100}, {"time": 4784, "pitch": 65, "duration": 12, "velocity": 102}, {"time": 4808, "pitch": 67, "duration": 7, "velocity": 107}, {"time": 4814, "pitch": 70, "duration": 4, "velocity": 97}, {"time": 4820, "pitch": 72, "duration": 5, "velocity": 100}, {"time": 4826, "pitch": 70, "duration": 4, "velocity": 112}, {"time": 4832, "pitch": 72, "duration": 7, "velocity": 122}, {"time": 4844, "pitch": 75, "duration": 10, "velocity": 117}, {"time": 4856, "pitch": 70, "duration": 12, "velocity": 117}, {"time": 4868, "pitch": 67, "duration": 6, "velocity": 93}, {"time": 4874, "pitch": 65, "duration": 5, "velocity": 97}, {"time": 4880, "pitch": 63, "duration": 15, "velocity": 100}, {"time": 4904, "pitch": 63, "duration": 5, "velocity": 117}, {"time": 4910, "pitch": 60, "duration": 3, "velocity": 88}, {"time": 4916, "pitch": 63, "duration": 4, "velocity": 107}, {"time": 4922, "pitch": 60, "duration": 5, "velocity": 85}, {"time": 4928, "pitch": 63, "duration": 9, "velocity": 127}, {"time": 4940, "pitch": 65, "duration": 6, "velocity": 112}, {"time": 4946, "pitch": 67, "duration": 6, "velocity": 95}, {"time": 4952, "pitch": 65, "duration": 21, "velocity": 102}, {"time": 5000, "pitch": 67, "duration": 8, "velocity": 99}, {"time": 5006, "pitch": 70, "duration": 3, "velocity": 102}, {"time": 5012, "pitch": 72, "duration": 6, "velocity": 112}, {"time": 5018, "pitch": 70, "duration": 4, "velocity": 99}, {"time": 5024, "pitch": 72, "duration": 7, "velocity": 117}, {"time": 5036, "pitch": 67, "duration": 9, "velocity": 122}, {"time": 5048, "pitch": 65, "duration": 14, "velocity": 127}, {"time": 5060, "pitch": 70, "duration": 9, "velocity": 127}, {"time": 5072, "pitch": 70, "duration": 13, "velocity": 127}, {"time": 5096, "pitch": 63, "duration": 4, "velocity": 117}, {"time": 5102, "pitch": 65, "duration": 3, "velocity": 89}, {"time": 5108, "pitch": 67, "duration": 4, "velocity": 90}, {"time": 5114, "pitch": 65, "duration": 3, "velocity": 95}, {"time": 5120, "pitch": 67, "duration": 7, "velocity": 92}, {"time": 5132, "pitch": 58, "duration": 10, "velocity": 97}, {"time": 5144, "pitch": 60, "duration": 13, "velocity": 97}, {"time": 5156, "pitch": 65, "duration": 8, "velocity": 100}, {"time": 5168, "pitch": 65, "duration": 12, "velocity": 102}, {"time": 5192, "pitch": 67, "duration": 7, "velocity": 107}, {"time": 5198, "pitch": 70, "duration": 4, "velocity": 97}, {"time": 5204, "pitch": 72, "duration": 5, "velocity": 100}, {"time": 5210, "pitch": 70, "duration": 4, "velocity": 112}, {"time": 5216, "pitch": 72, "duration": 7, "velocity": 122}, {"time": 5228, "pitch": 75, "duration": 10, "velocity": 117}, {"time": 5240, "pitch": 70, "duration": 12, "velocity": 117}, {"time": 5252, "pitch": 67, "duration": 6, "velocity": 93}, {"time": 5258, "pitch": 65, "duration": 5, "velocity": 97}, {"time": 5264, "pitch": 63, "duration": 15, "velocity": 100}, {"time": 5288, "pitch": 63, "duration": 5, "velocity": 117}, {"time": 5294, "pitch": 60, "duration": 3, "velocity": 88}, {"time": 5300, "pitch": 63, "duration": 4, "velocity": 107}, {"time": 5306, "pitch": 60, "duration": 5, "velocity": 85}, {"time": 5312, "pitch": 63, "duration": 9, "velocity": 127}, {"time": 5324, "pitch": 65, "duration": 6, "velocity": 112}, {"time": 5330, "pitch": 67, "duration": 6, "velocity": 95}, {"time": 5336, "pitch": 65, "duration": 21, "velocity": 102}, {"time": 5372, "pitch": 58, "duration": 5, "velocity": 102}, {"time": 5378, "pitch": 60, "duration": 4, "velocity": 90}, {"time": 5384, "pitch": 63, "duration": 26, "velocity": 112}, {"time": 5481, "pitch": 63, "duration": 6, "velocity": 90}, {"time": 5487, "pitch": 60, "duration": 5, "velocity": 76}, {"time": 5494, "pitch": 63, "duration": 5, "velocity": 92}, {"time": 5500, "pitch": 60, "duration": 6, "velocity": 78}, {"time": 5507, "pitch": 63, "duration": 21, "velocity": 96}, {"time": 5529, "pitch": 67, "duration": 15, "velocity": 89}, {"time": 5545, "pitch": 65, "duration": 37, "velocity": 92}, {"time": 5611, "pitch": 58, "duration": 12, "velocity": 78}, {"time": 5623, "pitch": 60, "duration": 11, "velocity": 69}, {"time": 5633, "pitch": 63, "duration": 66, "velocity": 82}]}, {"program": 0, "is_drum": false, "name": "BRIDGE", "notes": [{"time": 35, "pitch": 72, "duration": 11, "velocity": 52}, {"time": 47, "pitch": 75, "duration": 7, "velocity": 38}, {"time": 56, "pitch": 79, "duration": 6, "velocity": 47}, {"time": 63, "pitch": 80, "duration": 5, "velocity": 50}, {"time": 68, "pitch": 79, "duration": 7, "velocity": 25}, {"time": 74, "pitch": 75, "duration": 6, "velocity": 52}, {"time": 79, "pitch": 72, "duration": 6, "velocity": 53}, {"time": 84, "pitch": 75, "duration": 6, "velocity": 59}, {"time": 88, "pitch": 79, "duration": 5, "velocity": 43}, {"time": 92, "pitch": 75, "duration": 4, "velocity": 38}, {"time": 96, "pitch": 72, "duration": 12, "velocity": 60}, {"time": 100, "pitch": 68, "duration": 7, "velocity": 76}, {"time": 104, "pitch": 67, "duration": 8, "velocity": 59}, {"time": 107, "pitch": 68, "duration": 7, "velocity": 71}, {"time": 111, "pitch": 72, "duration": 7, "velocity": 77}, {"time": 114, "pitch": 75, "duration": 8, "velocity": 51}, {"time": 118, "pitch": 72, "duration": 9, "velocity": 76}, {"time": 121, "pitch": 68, "duration": 6, "velocity": 86}, {"time": 124, "pitch": 67, "duration": 5, "velocity": 79}, {"time": 127, "pitch": 68, "duration": 4, "velocity": 89}, {"time": 130, "pitch": 72, "duration": 11, "velocity": 77}, {"time": 136, "pitch": 67, "duration": 4, "velocity": 78}, {"time": 139, "pitch": 63, "duration": 5, "velocity": 73}, {"time": 142, "pitch": 60, "duration": 11, "velocity": 66}, {"time": 145, "pitch": 63, "duration": 6, "velocity": 84}, {"time": 147, "pitch": 67, "duration": 6, "velocity": 85}, {"time": 150, "pitch": 68, "duration": 8, "velocity": 79}, {"time": 155, "pitch": 63, "duration": 4, "velocity": 79}, {"time": 158, "pitch": 60, "duration": 5, "velocity": 75}, {"time": 162, "pitch": 63, "duration": 7, "velocity": 68}, {"time": 162, "pitch": 67, "duration": 13, "velocity": 75}, {"time": 168, "pitch": 60, "duration": 5, "velocity": 67}, {"time": 170, "pitch": 56, "duration": 5, "velocity": 81}, {"time": 173, "pitch": 55, "duration": 4, "velocity": 77}, {"time": 175, "pitch": 56, "duration": 6, "velocity": 85}, {"time": 178, "pitch": 60, "duration": 6, "velocity": 67}, {"time": 180, "pitch": 63, "duration": 13, "velocity": 61}, {"time": 182, "pitch": 55, "duration": 5, "velocity": 78}, {"time": 184, "pitch": 56, "duration": 8, "velocity": 96}, {"time": 192, "pitch": 51, "duration": 5, "velocity": 31}, {"time": 192, "pitch": 60, "duration": 16, "velocity": 58}, {"time": 195, "pitch": 55, "duration": 14, "velocity": 71}, {"time": 202, "pitch": 51, "duration": 18, "velocity": 80}, {"time": 207, "pitch": 44, "duration": 40, "velocity": 86}, {"time": 237, "pitch": 56, "duration": 10, "velocity": 63}, {"time": 239, "pitch": 59, "duration": 9, "velocity": 70}, {"time": 240, "pitch": 62, "duration": 10, "velocity": 59}, {"time": 250, "pitch": 59, "duration": 14, "velocity": 69}, {"time": 250, "pitch": 62, "duration": 13, "velocity": 85}, {"time": 252, "pitch": 65, "duration": 12, "velocity": 85}, {"time": 262, "pitch": 62, "duration": 1, "velocity": 61}, {"time": 263, "pitch": 65, "duration": 1, "velocity": 67}, {"time": 264, "pitch": 68, "duration": 9, "velocity": 83}, {"time": 273, "pitch": 65, "duration": 10, "velocity": 59}, {"time": 274, "pitch": 68, "duration": 13, "velocity": 61}, {"time": 276, "pitch": 71, "duration": 12, "velocity": 81}, {"time": 286, "pitch": 65, "duration": 14, "velocity": 52}, {"time": 287, "pitch": 68, "duration": 1, "velocity": 78}, {"time": 289, "pitch": 74, "duration": 12, "velocity": 85}, {"time": 301, "pitch": 68, "duration": 24, "velocity": 45}, {"time": 303, "pitch": 71, "duration": 22, "velocity": 66}, {"time": 304, "pitch": 74, "duration": 21, "velocity": 60}, {"time": 305, "pitch": 77, "duration": 20, "velocity": 65}, {"time": 320, "pitch": 74, "duration": 5, "velocity": 35}, {"time": 321, "pitch": 77, "duration": 4, "velocity": 64}, {"time": 323, "pitch": 80, "duration": 25, "velocity": 95}, {"time": 342, "pitch": 74, "duration": 6, "velocity": 50}, {"time": 344, "pitch": 77, "duration": 4, "velocity": 68}, {"time": 346, "pitch": 82, "duration": 76, "velocity": 77}, {"time": 440, "pitch": 67, "duration": 6, "velocity": 97}, {"time": 446, "pitch": 70, "duration": 4, "velocity": 97}, {"time": 452, "pitch": 72, "duration": 5, "velocity": 99}, {"time": 458, "pitch": 70, "duration": 3, "velocity": 107}, {"time": 464, "pitch": 72, "duration": 9, "velocity": 127}, {"time": 476, "pitch": 67, "duration": 10, "velocity": 117}, {"time": 488, "pitch": 65, "duration": 11, "velocity": 107}, {"time": 500, "pitch": 67, "duration": 6, "velocity": 112}, {"time": 506, "pitch": 70, "duration": 4, "velocity": 127}, {"time": 512, "pitch": 70, "duration": 14, "velocity": 127}, {"time": 536, "pitch": 63, "duration": 7, "velocity": 112}, {"time": 542, "pitch": 65, "duration": 7, "velocity": 90}, {"time": 548, "pitch": 67, "duration": 6, "velocity": 90}, {"time": 554, "pitch": 65, "duration": 6, "velocity": 93}, {"time": 560, "pitch": 67, "duration": 9, "velocity": 100}, {"time": 572, "pitch": 58, "duration": 11, "velocity": 97}, {"time": 584, "pitch": 60, "duration": 15, "velocity": 77}, {"time": 596, "pitch": 63, "duration": 6, "velocity": 112}, {"time": 602, "pitch": 65, "duration": 4, "velocity": 88}, {"time": 608, "pitch": 65, "duration": 17, "velocity": 100}, {"time": 632, "pitch": 67, "duration": 7, "velocity": 99}, {"time": 638, "pitch": 70, "duration": 7, "velocity": 100}, {"time": 644, "pitch": 72, "duration": 8, "velocity": 97}, {"time": 650, "pitch": 70, "duration": 7, "velocity": 95}, {"time": 656, "pitch": 72, "duration": 9, "velocity": 102}, {"time": 668, "pitch": 75, "duration": 9, "velocity": 127}, {"time": 680, "pitch": 70, "duration": 8, "velocity": 127}, {"time": 692, "pitch": 67, "duration": 5, "velocity": 127}, {"time": 698, "pitch": 65, "duration": 6, "velocity": 90}, {"time": 704, "pitch": 63, "duration": 16, "velocity": 102}, {"time": 728, "pitch": 63, "duration": 6, "velocity": 127}, {"time": 734, "pitch": 60, "duration": 5, "velocity": 97}, {"time": 740, "pitch": 63, "duration": 6, "velocity": 122}, {"time": 746, "pitch": 60, "duration": 5, "velocity": 93}, {"time": 752, "pitch": 63, "duration": 8, "velocity": 117}, {"time": 764, "pitch": 60, "duration": 10, "velocity": 112}, {"time": 776, "pitch": 58, "duration": 40, "velocity": 107}, {"time": 890, "pitch": 70, "duration": 5, "velocity": 89}, {"time": 896, "pitch": 72, "duration": 6, "velocity": 89}, {"time": 902, "pitch": 75, "duration": 7, "velocity": 89}, {"time": 908, "pitch": 77, "duration": 6, "velocity": 93}, {"time": 914, "pitch": 79, "duration": 6, "velocity": 75}, {"time": 920, "pitch": 75, "duration": 20, "velocity": 93}, {"time": 986, "pitch": 70, "duration": 7, "velocity": 102}, {"time": 992, "pitch": 75, "duration": 11, "velocity": 102}, {"time": 1004, "pitch": 82, "duration": 13, "velocity": 102}, {"time": 1016, "pitch": 79, "duration": 27, "velocity": 107}, {"time": 1160, "pitch": 70, "duration": 5, "velocity": 102}, {"time": 1166, "pitch": 72, "duration": 8, "velocity": 99}, {"time": 1172, "pitch": 77, "duration": 6, "velocity": 97}, {"time": 1178, "pitch": 82, "duration": 6, "velocity": 117}, {"time": 1184, "pitch": 70, "duration": 16, "velocity": 95}, {"time": 1274, "pitch": 67, "duration": 2, "velocity": 102}, {"time": 1280, "pitch": 67, "duration": 21, "velocity": 127}, {"time": 1304, "pitch": 68, "duration": 24, "velocity": 127}, {"time": 1370, "pitch": 58, "duration": 6, "velocity": 96}, {"time": 1376, "pitch": 63, "duration": 6, "velocity": 83}, {"time": 1382, "pitch": 65, "duration": 7, "velocity": 93}, {"time": 1388, "pitch": 67, "duration": 12, "velocity": 117}, {"time": 1400, "pitch": 62, "duration": 23, "velocity": 100}, {"time": 1556, "pitch": 70, "duration": 6, "velocity": 127}, {"time": 1562, "pitch": 67, "duration": 6, "velocity": 100}, {"time": 1568, "pitch": 65, "duration": 7, "velocity": 112}, {"time": 1574, "pitch": 63, "duration": 7, "velocity": 112}, {"time": 1580, "pitch": 65, "duration": 7, "velocity": 96}, {"time": 1586, "pitch": 63, "duration": 4, "velocity": 97}, {"time": 1592, "pitch": 63, "duration": 14, "velocity": 112}, {"time": 1598, "pitch": 67, "duration": 4, "velocity": 107}, {"time": 1610, "pitch": 68, "duration": 4, "velocity": 127}, {"time": 1622, "pitch": 70, "duration": 8, "velocity": 127}, {"time": 1623, "pitch": 75, "duration": 5, "velocity": 86}, {"time": 1625, "pitch": 77, "duration": 5, "velocity": 81}, {"time": 1629, "pitch": 79, "duration": 5, "velocity": 76}, {"time": 1631, "pitch": 80, "duration": 6, "velocity": 73}, {"time": 1634, "pitch": 82, "duration": 5, "velocity": 74}, {"time": 1637, "pitch": 83, "duration": 7, "velocity": 87}, {"time": 1640, "pitch": 84, "duration": 24, "velocity": 99}, {"time": 1718, "pitch": 77, "duration": 5, "velocity": 97}, {"time": 1724, "pitch": 79, "duration": 4, "velocity": 93}, {"time": 1729, "pitch": 82, "duration": 6, "velocity": 112}, {"time": 1736, "pitch": 79, "duration": 22, "velocity": 117}, {"time": 1814, "pitch": 75, "duration": 4, "velocity": 122}, {"time": 1820, "pitch": 77, "duration": 3, "velocity": 96}, {"time": 1825, "pitch": 82, "duration": 6, "velocity": 93}, {"time": 1832, "pitch": 79, "duration": 30, "velocity": 117}, {"time": 1988, "pitch": 58, "duration": 6, "velocity": 127}, {"time": 1994, "pitch": 60, "duration": 5, "velocity": 107}, {"time": 2000, "pitch": 67, "duration": 5, "velocity": 117}, {"time": 2006, "pitch": 70, "duration": 6, "velocity": 127}, {"time": 2012, "pitch": 67, "duration": 6, "velocity": 112}, {"time": 2018, "pitch": 65, "duration": 7, "velocity": 102}, {"time": 2024, "pitch": 67, "duration": 14, "velocity": 127}, {"time": 2108, "pitch": 72, "duration": 7, "velocity": 117}, {"time": 2114, "pitch": 74, "duration": 6, "velocity": 97}, {"time": 2120, "pitch": 72, "duration": 23, "velocity": 107}, {"time": 2204, "pitch": 82, "duration": 2, "velocity": 117}, {"time": 2207, "pitch": 84, "duration": 3, "velocity": 112}, {"time": 2210, "pitch": 86, "duration": 3, "velocity": 93}, {"time": 2213, "pitch": 89, "duration": 3, "velocity": 117}, {"time": 2216, "pitch": 91, "duration": 29, "velocity": 127}, {"time": 2288, "pitch": 91, "duration": 5, "velocity": 117}, {"time": 2294, "pitch": 84, "duration": 5, "velocity": 88}, {"time": 2300, "pitch": 87, "duration": 11, "velocity": 112}, {"time": 2312, "pitch": 84, "duration": 23, "velocity": 97}, {"time": 2366, "pitch": 77, "duration": 3, "velocity": 127}, {"time": 2369, "pitch": 77, "duration": 7, "velocity": 95}, {"time": 2378, "pitch": 79, "duration": 6, "velocity": 117}, {"time": 2384, "pitch": 77, "duration": 9, "velocity": 127}, {"time": 2408, "pitch": 72, "duration": 12, "velocity": 127}, {"time": 2420, "pitch": 70, "duration": 12, "velocity": 102}, {"time": 2432, "pitch": 67, "duration": 11, "velocity": 107}, {"time": 2444, "pitch": 60, "duration": 3, "velocity": 96}, {"time": 2447, "pitch": 63, "duration": 4, "velocity": 93}, {"time": 2450, "pitch": 65, "duration": 5, "velocity": 82}, {"time": 2453, "pitch": 63, "duration": 18, "velocity": 85}, {"time": 2504, "pitch": 84, "duration": 10, "velocity": 122}, {"time": 2516, "pitch": 82, "duration": 10, "velocity": 122}, {"time": 2528, "pitch": 79, "duration": 9, "velocity": 97}, {"time": 2540, "pitch": 77, "duration": 10, "velocity": 117}, {"time": 2552, "pitch": 74, "duration": 7, "velocity": 112}, {"time": 2558, "pitch": 75, "duration": 6, "velocity": 97}, {"time": 2564, "pitch": 74, "duration": 23, "velocity": 127}, {"time": 2600, "pitch": 67, "duration": 5, "velocity": 102}, {"time": 2606, "pitch": 70, "duration": 4, "velocity": 112}, {"time": 2612, "pitch": 72, "duration": 5, "velocity": 117}, {"time": 2618, "pitch": 70, "duration": 4, "velocity": 117}, {"time": 2624, "pitch": 72, "duration": 9, "velocity": 127}, {"time": 2636, "pitch": 67, "duration": 11, "velocity": 122}, {"time": 2648, "pitch": 65, "duration": 11, "velocity": 117}, {"time": 2660, "pitch": 67, "duration": 5, "velocity": 127}, {"time": 2666, "pitch": 70, "duration": 3, "velocity": 127}, {"time": 2672, "pitch": 70, "duration": 17, "velocity": 127}, {"time": 2696, "pitch": 63, "duration": 6, "velocity": 127}, {"time": 2702, "pitch": 65, "duration": 6, "velocity": 95}, {"time": 2708, "pitch": 67, "duration": 6, "velocity": 92}, {"time": 2714, "pitch": 65, "duration": 5, "velocity": 97}, {"time": 2720, "pitch": 67, "duration": 9, "velocity": 117}, {"time": 2732, "pitch": 58, "duration": 9, "velocity": 122}, {"time": 2744, "pitch": 60, "duration": 10, "velocity": 102}, {"time": 2756, "pitch": 63, "duration": 6, "velocity": 117}, {"time": 2762, "pitch": 65, "duration": 4, "velocity": 96}, {"time": 2768, "pitch": 65, "duration": 19, "velocity": 102}, {"time": 2792, "pitch": 67, "duration": 5, "velocity": 112}, {"time": 2798, "pitch": 70, "duration": 4, "velocity": 117}, {"time": 2804, "pitch": 72, "duration": 5, "velocity": 112}, {"time": 2810, "pitch": 70, "duration": 4, "velocity": 112}, {"time": 2816, "pitch": 72, "duration": 12, "velocity": 122}, {"time": 2828, "pitch": 75, "duration": 7, "velocity": 127}, {"time": 2840, "pitch": 74, "duration": 9, "velocity": 127}, {"time": 2852, "pitch": 67, "duration": 6, "velocity": 112}, {"time": 2858, "pitch": 65, "duration": 6, "velocity": 96}, {"time": 2864, "pitch": 67, "duration": 16, "velocity": 112}, {"time": 2888, "pitch": 63, "duration": 5, "velocity": 127}, {"time": 2894, "pitch": 60, "duration": 7, "velocity": 100}, {"time": 2900, "pitch": 63, "duration": 6, "velocity": 117}, {"time": 2906, "pitch": 60, "duration": 7, "velocity": 95}, {"time": 2912, "pitch": 63, "duration": 11, "velocity": 127}, {"time": 2924, "pitch": 60, "duration": 12, "velocity": 102}, {"time": 2936, "pitch": 58, "duration": 36, "velocity": 93}, {"time": 3050, "pitch": 70, "duration": 5, "velocity": 89}, {"time": 3056, "pitch": 72, "duration": 6, "velocity": 89}, {"time": 3062, "pitch": 75, "duration": 7, "velocity": 89}, {"time": 3068, "pitch": 77, "duration": 6, "velocity": 93}, {"time": 3074, "pitch": 79, "duration": 6, "velocity": 75}, {"time": 3080, "pitch": 75, "duration": 20, "velocity": 93}, {"time": 3146, "pitch": 70, "duration": 7, "velocity": 102}, {"time": 3152, "pitch": 75, "duration": 11, "velocity": 102}, {"time": 3164, "pitch": 82, "duration": 13, "velocity": 102}, {"time": 3176, "pitch": 79, "duration": 27, "velocity": 107}, {"time": 3320, "pitch": 70, "duration": 5, "velocity": 102}, {"time": 3326, "pitch": 72, "duration": 8, "velocity": 99}, {"time": 3332, "pitch": 77, "duration": 6, "velocity": 97}, {"time": 3338, "pitch": 82, "duration": 6, "velocity": 117}, {"time": 3344, "pitch": 70, "duration": 16, "velocity": 95}, {"time": 3434, "pitch": 67, "duration": 2, "velocity": 102}, {"time": 3440, "pitch": 67, "duration": 21, "velocity": 127}, {"time": 3464, "pitch": 68, "duration": 24, "velocity": 127}, {"time": 3530, "pitch": 58, "duration": 6, "velocity": 96}, {"time": 3536, "pitch": 63, "duration": 6, "velocity": 83}, {"time": 3542, "pitch": 65, "duration": 7, "velocity": 93}, {"time": 3548, "pitch": 67, "duration": 12, "velocity": 117}, {"time": 3560, "pitch": 62, "duration": 23, "velocity": 100}, {"time": 3716, "pitch": 70, "duration": 6, "velocity": 127}, {"time": 3722, "pitch": 67, "duration": 6, "velocity": 100}, {"time": 3728, "pitch": 65, "duration": 7, "velocity": 112}, {"time": 3734, "pitch": 63, "duration": 7, "velocity": 112}, {"time": 3740, "pitch": 65, "duration": 7, "velocity": 96}, {"time": 3746, "pitch": 63, "duration": 4, "velocity": 97}, {"time": 3752, "pitch": 63, "duration": 14, "velocity": 112}, {"time": 3758, "pitch": 67, "duration": 4, "velocity": 107}, {"time": 3770, "pitch": 68, "duration": 4, "velocity": 127}, {"time": 3782, "pitch": 70, "duration": 8, "velocity": 127}, {"time": 3783, "pitch": 75, "duration": 5, "velocity": 86}, {"time": 3785, "pitch": 77, "duration": 5, "velocity": 81}, {"time": 3789, "pitch": 79, "duration": 5, "velocity": 76}, {"time": 3791, "pitch": 80, "duration": 6, "velocity": 73}, {"time": 3794, "pitch": 82, "duration": 5, "velocity": 74}, {"time": 3797, "pitch": 83, "duration": 7, "velocity": 87}, {"time": 3800, "pitch": 84, "duration": 24, "velocity": 99}, {"time": 3878, "pitch": 77, "duration": 5, "velocity": 97}, {"time": 3884, "pitch": 79, "duration": 4, "velocity": 93}, {"time": 3889, "pitch": 82, "duration": 6, "velocity": 112}, {"time": 3896, "pitch": 79, "duration": 22, "velocity": 117}, {"time": 3974, "pitch": 75, "duration": 4, "velocity": 122}, {"time": 3980, "pitch": 77, "duration": 3, "velocity": 96}, {"time": 3985, "pitch": 82, "duration": 6, "velocity": 93}, {"time": 3992, "pitch": 79, "duration": 30, "velocity": 117}, {"time": 4148, "pitch": 58, "duration": 6, "velocity": 127}, {"time": 4154, "pitch": 60, "duration": 5, "velocity": 107}, {"time": 4160, "pitch": 67, "duration": 5, "velocity": 117}, {"time": 4166, "pitch": 70, "duration": 6, "velocity": 127}, {"time": 4172, "pitch": 67, "duration": 6, "velocity": 112}, {"time": 4178, "pitch": 65, "duration": 7, "velocity": 102}, {"time": 4184, "pitch": 67, "duration": 14, "velocity": 127}, {"time": 4268, "pitch": 72, "duration": 7, "velocity": 117}, {"time": 4274, "pitch": 74, "duration": 6, "velocity": 97}, {"time": 4280, "pitch": 72, "duration": 23, "velocity": 107}, {"time": 4364, "pitch": 82, "duration": 2, "velocity": 117}, {"time": 4367, "pitch": 84, "duration": 3, "velocity": 112}, {"time": 4370, "pitch": 86, "duration": 3, "velocity": 93}, {"time": 4373, "pitch": 89, "duration": 3, "velocity": 117}, {"time": 4376, "pitch": 91, "duration": 29, "velocity": 127}, {"time": 4448, "pitch": 91, "duration": 5, "velocity": 117}, {"time": 4454, "pitch": 84, "duration": 5, "velocity": 88}, {"time": 4460, "pitch": 87, "duration": 11, "velocity": 112}, {"time": 4472, "pitch": 84, "duration": 23, "velocity": 97}, {"time": 4526, "pitch": 77, "duration": 3, "velocity": 127}, {"time": 4529, "pitch": 77, "duration": 7, "velocity": 95}, {"time": 4538, "pitch": 79, "duration": 6, "velocity": 117}, {"time": 4544, "pitch": 77, "duration": 9, "velocity": 127}, {"time": 4574, "pitch": 67, "duration": 2, "velocity": 122}, {"time": 4586, "pitch": 68, "duration": 3, "velocity": 127}, {"time": 4595, "pitch": 70, "duration": 20, "velocity": 127}, {"time": 4616, "pitch": 84, "duration": 24, "velocity": 99}, {"time": 4694, "pitch": 77, "duration": 5, "velocity": 97}, {"time": 4700, "pitch": 79, "duration": 4, "velocity": 93}, {"time": 4705, "pitch": 82, "duration": 6, "velocity": 112}, {"time": 4712, "pitch": 79, "duration": 22, "velocity": 117}, {"time": 4790, "pitch": 75, "duration": 4, "velocity": 122}, {"time": 4796, "pitch": 77, "duration": 3, "velocity": 96}, {"time": 4801, "pitch": 82, "duration": 6, "velocity": 93}, {"time": 4808, "pitch": 79, "duration": 30, "velocity": 117}, {"time": 4964, "pitch": 58, "duration": 6, "velocity": 127}, {"time": 4970, "pitch": 60, "duration": 5, "velocity": 107}, {"time": 4976, "pitch": 67, "duration": 5, "velocity": 117}, {"time": 4982, "pitch": 70, "duration": 6, "velocity": 127}, {"time": 4988, "pitch": 67, "duration": 6, "velocity": 112}, {"time": 4994, "pitch": 65, "duration": 7, "velocity": 102}, {"time": 5000, "pitch": 67, "duration": 14, "velocity": 127}, {"time": 5084, "pitch": 72, "duration": 7, "velocity": 117}, {"time": 5090, "pitch": 74, "duration": 6, "velocity": 97}, {"time": 5096, "pitch": 72, "duration": 23, "velocity": 107}, {"time": 5180, "pitch": 82, "duration": 2, "velocity": 117}, {"time": 5183, "pitch": 84, "duration": 3, "velocity": 112}, {"time": 5186, "pitch": 86, "duration": 3, "velocity": 93}, {"time": 5189, "pitch": 89, "duration": 3, "velocity": 117}, {"time": 5192, "pitch": 91, "duration": 29, "velocity": 127}, {"time": 5264, "pitch": 91, "duration": 5, "velocity": 117}, {"time": 5270, "pitch": 84, "duration": 5, "velocity": 88}, {"time": 5276, "pitch": 87, "duration": 11, "velocity": 112}, {"time": 5288, "pitch": 84, "duration": 23, "velocity": 97}, {"time": 5342, "pitch": 77, "duration": 3, "velocity": 127}, {"time": 5345, "pitch": 77, "duration": 7, "velocity": 95}, {"time": 5354, "pitch": 79, "duration": 6, "velocity": 117}, {"time": 5360, "pitch": 77, "duration": 9, "velocity": 127}, {"time": 5384, "pitch": 72, "duration": 10, "velocity": 127}, {"time": 5396, "pitch": 70, "duration": 10, "velocity": 127}, {"time": 5408, "pitch": 67, "duration": 11, "velocity": 117}, {"time": 5420, "pitch": 65, "duration": 11, "velocity": 122}, {"time": 5432, "pitch": 67, "duration": 8, "velocity": 99}, {"time": 5438, "pitch": 68, "duration": 6, "velocity": 107}, {"time": 5444, "pitch": 67, "duration": 24, "velocity": 122}, {"time": 5444, "pitch": 72, "duration": 10, "velocity": 117}, {"time": 5456, "pitch": 70, "duration": 10, "velocity": 117}, {"time": 5467, "pitch": 67, "duration": 1, "velocity": 95}, {"time": 5479, "pitch": 65, "duration": 29, "velocity": 89}, {"time": 5611, "pitch": 58, "duration": 5, "velocity": 73}, {"time": 5615, "pitch": 60, "duration": 34, "velocity": 70}, {"time": 5654, "pitch": 65, "duration": 23, "velocity": 89}, {"time": 5680, "pitch": 72, "duration": 21, "velocity": 102}, {"time": 5713, "pitch": 70, "duration": 39, "velocity": 127}, {"time": 5753, "pitch": 72, "duration": 22, "velocity": 93}, {"time": 5774, "pitch": 70, "duration": 21, "velocity": 89}, {"time": 5794, "pitch": 67, "duration": 23, "velocity": 73}, {"time": 5816, "pitch": 72, "duration": 24, "velocity": 85}, {"time": 5838, "pitch": 70, "duration": 17, "velocity": 69}, {"time": 5854, "pitch": 67, "duration": 31, "velocity": 70}, {"time": 5883, "pitch": 75, "duration": 18, "velocity": 32}]}, {"program": 0, "is_drum": false, "name": "PIANO", "notes": [{"time": 440, "pitch": 44, "duration": 15, "velocity": 86}, {"time": 446, "pitch": 51, "duration": 9, "velocity": 35}, {"time": 452, "pitch": 63, "duration": 20, "velocity": 88}, {"time": 452, "pitch": 68, "duration": 19, "velocity": 96}, {"time": 458, "pitch": 44, "duration": 3, "velocity": 86}, {"time": 464, "pitch": 44, "duration": 13, "velocity": 97}, {"time": 470, "pitch": 60, "duration": 8, "velocity": 73}, {"time": 476, "pitch": 63, "duration": 10, "velocity": 83}, {"time": 476, "pitch": 68, "duration": 10, "velocity": 117}, {"time": 482, "pitch": 60, "duration": 6, "velocity": 82}, {"time": 488, "pitch": 43, "duration": 16, "velocity": 85}, {"time": 494, "pitch": 50, "duration": 10, "velocity": 58}, {"time": 500, "pitch": 58, "duration": 21, "velocity": 100}, {"time": 500, "pitch": 62, "duration": 20, "velocity": 90}, {"time": 506, "pitch": 43, "duration": 2, "velocity": 45}, {"time": 512, "pitch": 43, "duration": 15, "velocity": 66}, {"time": 518, "pitch": 50, "duration": 8, "velocity": 69}, {"time": 524, "pitch": 58, "duration": 13, "velocity": 99}, {"time": 524, "pitch": 62, "duration": 10, "velocity": 79}, {"time": 530, "pitch": 55, "duration": 9, "velocity": 83}, {"time": 536, "pitch": 48, "duration": 14, "velocity": 82}, {"time": 542, "pitch": 55, "duration": 19, "velocity": 82}, {"time": 548, "pitch": 60, "duration": 18, "velocity": 85}, {"time": 554, "pitch": 48, "duration": 2, "velocity": 95}, {"time": 560, "pitch": 48, "duration": 22, "velocity": 102}, {"time": 566, "pitch": 55, "duration": 8, "velocity": 88}, {"time": 572, "pitch": 60, "duration": 9, "velocity": 96}, {"time": 572, "pitch": 63, "duration": 8, "velocity": 112}, {"time": 578, "pitch": 55, "duration": 6, "velocity": 90}, {"time": 584, "pitch": 41, "duration": 20, "velocity": 89}, {"time": 590, "pitch": 53, "duration": 9, "velocity": 88}, {"time": 596, "pitch": 56, "duration": 8, "velocity": 96}, {"time": 596, "pitch": 60, "duration": 8, "velocity": 88}, {"time": 602, "pitch": 53, "duration": 8, "velocity": 89}, {"time": 608, "pitch": 46, "duration": 11, "velocity": 107}, {"time": 614, "pitch": 53, "duration": 9, "velocity": 92}, {"time": 620, "pitch": 58, "duration": 11, "velocity": 102}, {"time": 620, "pitch": 62, "duration": 10, "velocity": 97}, {"time": 626, "pitch": 53, "duration": 5, "velocity": 92}, {"time": 632, "pitch": 39, "duration": 15, "velocity": 92}, {"time": 638, "pitch": 51, "duration": 8, "velocity": 73}, {"time": 644, "pitch": 55, "duration": 14, "velocity": 52}, {"time": 644, "pitch": 58, "duration": 15, "velocity": 117}, {"time": 650, "pitch": 39, "duration": 3, "velocity": 89}, {"time": 656, "pitch": 39, "duration": 11, "velocity": 56}, {"time": 659, "pitch": 51, "duration": 5, "velocity": 35}, {"time": 662, "pitch": 58, "duration": 18, "velocity": 97}, {"time": 662, "pitch": 63, "duration": 15, "velocity": 96}, {"time": 674, "pitch": 55, "duration": 15, "velocity": 77}, {"time": 680, "pitch": 43, "duration": 15, "velocity": 89}, {"time": 686, "pitch": 50, "duration": 10, "velocity": 67}, {"time": 692, "pitch": 58, "duration": 13, "velocity": 93}, {"time": 692, "pitch": 62, "duration": 11, "velocity": 85}, {"time": 698, "pitch": 43, "duration": 6, "velocity": 81}, {"time": 704, "pitch": 48, "duration": 21, "velocity": 93}, {"time": 710, "pitch": 55, "duration": 8, "velocity": 85}, {"time": 716, "pitch": 60, "duration": 9, "velocity": 90}, {"time": 716, "pitch": 63, "duration": 9, "velocity": 96}, {"time": 722, "pitch": 55, "duration": 6, "velocity": 90}, {"time": 728, "pitch": 41, "duration": 16, "velocity": 89}, {"time": 734, "pitch": 48, "duration": 10, "velocity": 71}, {"time": 740, "pitch": 56, "duration": 16, "velocity": 89}, {"time": 740, "pitch": 60, "duration": 17, "velocity": 79}, {"time": 746, "pitch": 41, "duration": 18, "velocity": 93}, {"time": 752, "pitch": 48, "duration": 13, "velocity": 112}, {"time": 758, "pitch": 53, "duration": 8, "velocity": 89}, {"time": 764, "pitch": 56, "duration": 7, "velocity": 107}, {"time": 764, "pitch": 60, "duration": 7, "velocity": 93}, {"time": 770, "pitch": 53, "duration": 5, "velocity": 90}, {"time": 776, "pitch": 46, "duration": 39, "velocity": 96}, {"time": 776, "pitch": 58, "duration": 42, "velocity": 102}, {"time": 776, "pitch": 62, "duration": 42, "velocity": 95}, {"time": 824, "pitch": 39, "duration": 14, "velocity": 95}, {"time": 830, "pitch": 46, "duration": 8, "velocity": 37}, {"time": 836, "pitch": 63, "duration": 36, "velocity": 88}, {"time": 842, "pitch": 39, "duration": 3, "velocity": 83}, {"time": 848, "pitch": 39, "duration": 15, "velocity": 67}, {"time": 854, "pitch": 51, "duration": 12, "velocity": 95}, {"time": 860, "pitch": 55, "duration": 14, "velocity": 81}, {"time": 866, "pitch": 58, "duration": 8, "velocity": 72}, {"time": 872, "pitch": 48, "duration": 15, "velocity": 66}, {"time": 878, "pitch": 55, "duration": 21, "velocity": 56}, {"time": 884, "pitch": 63, "duration": 36, "velocity": 82}, {"time": 890, "pitch": 48, "duration": 3, "velocity": 74}, {"time": 896, "pitch": 48, "duration": 9, "velocity": 74}, {"time": 902, "pitch": 55, "duration": 8, "velocity": 85}, {"time": 908, "pitch": 60, "duration": 10, "velocity": 76}, {"time": 914, "pitch": 55, "duration": 5, "velocity": 73}, {"time": 920, "pitch": 44, "duration": 15, "velocity": 70}, {"time": 926, "pitch": 51, "duration": 11, "velocity": 60}, {"time": 932, "pitch": 56, "duration": 5, "velocity": 51}, {"time": 932, "pitch": 60, "duration": 20, "velocity": 69}, {"time": 932, "pitch": 63, "duration": 21, "velocity": 90}, {"time": 938, "pitch": 44, "duration": 2, "velocity": 79}, {"time": 941, "pitch": 44, "duration": 16, "velocity": 72}, {"time": 950, "pitch": 51, "duration": 9, "velocity": 36}, {"time": 956, "pitch": 60, "duration": 12, "velocity": 76}, {"time": 956, "pitch": 63, "duration": 13, "velocity": 82}, {"time": 962, "pitch": 56, "duration": 6, "velocity": 57}, {"time": 968, "pitch": 39, "duration": 16, "velocity": 76}, {"time": 974, "pitch": 51, "duration": 9, "velocity": 68}, {"time": 980, "pitch": 55, "duration": 9, "velocity": 57}, {"time": 980, "pitch": 58, "duration": 19, "velocity": 60}, {"time": 980, "pitch": 63, "duration": 20, "velocity": 63}, {"time": 986, "pitch": 39, "duration": 2, "velocity": 88}, {"time": 992, "pitch": 39, "duration": 12, "velocity": 90}, {"time": 998, "pitch": 51, "duration": 9, "velocity": 96}, {"time": 1001, "pitch": 58, "duration": 17, "velocity": 86}, {"time": 1004, "pitch": 63, "duration": 13, "velocity": 100}, {"time": 1010, "pitch": 55, "duration": 11, "velocity": 67}, {"time": 1016, "pitch": 43, "duration": 14, "velocity": 76}, {"time": 1022, "pitch": 50, "duration": 10, "velocity": 59}, {"time": 1028, "pitch": 62, "duration": 36, "velocity": 96}, {"time": 1034, "pitch": 43, "duration": 3, "velocity": 88}, {"time": 1040, "pitch": 43, "duration": 15, "velocity": 77}, {"time": 1046, "pitch": 50, "duration": 9, "velocity": 75}, {"time": 1052, "pitch": 55, "duration": 14, "velocity": 93}, {"time": 1058, "pitch": 58, "duration": 8, "velocity": 72}, {"time": 1064, "pitch": 36, "duration": 12, "velocity": 85}, {"time": 1070, "pitch": 55, "duration": 8, "velocity": 77}, {"time": 1076, "pitch": 60, "duration": 11, "velocity": 78}, {"time": 1076, "pitch": 63, "duration": 11, "velocity": 96}, {"time": 1082, "pitch": 55, "duration": 7, "velocity": 74}, {"time": 1085, "pitch": 41, "duration": 21, "velocity": 72}, {"time": 1094, "pitch": 48, "duration": 16, "velocity": 73}, {"time": 1100, "pitch": 56, "duration": 9, "velocity": 83}, {"time": 1100, "pitch": 60, "duration": 13, "velocity": 76}, {"time": 1106, "pitch": 53, "duration": 6, "velocity": 49}, {"time": 1109, "pitch": 41, "duration": 22, "velocity": 66}, {"time": 1118, "pitch": 48, "duration": 17, "velocity": 70}, {"time": 1124, "pitch": 57, "duration": 21, "velocity": 72}, {"time": 1124, "pitch": 60, "duration": 21, "velocity": 72}, {"time": 1130, "pitch": 53, "duration": 16, "velocity": 55}, {"time": 1142, "pitch": 41, "duration": 10, "velocity": 69}, {"time": 1148, "pitch": 57, "duration": 9, "velocity": 75}, {"time": 1148, "pitch": 60, "duration": 10, "velocity": 79}, {"time": 1154, "pitch": 53, "duration": 8, "velocity": 59}, {"time": 1160, "pitch": 46, "duration": 16, "velocity": 92}, {"time": 1166, "pitch": 53, "duration": 20, "velocity": 59}, {"time": 1172, "pitch": 58, "duration": 17, "velocity": 72}, {"time": 1172, "pitch": 62, "duration": 17, "velocity": 85}, {"time": 1178, "pitch": 46, "duration": 3, "velocity": 81}, {"time": 1184, "pitch": 46, "duration": 11, "velocity": 88}, {"time": 1187, "pitch": 53, "duration": 18, "velocity": 78}, {"time": 1196, "pitch": 62, "duration": 11, "velocity": 100}, {"time": 1202, "pitch": 58, "duration": 12, "velocity": 67}, {"time": 1208, "pitch": 39, "duration": 15, "velocity": 86}, {"time": 1214, "pitch": 51, "duration": 9, "velocity": 81}, {"time": 1220, "pitch": 63, "duration": 22, "velocity": 99}, {"time": 1226, "pitch": 39, "duration": 3, "velocity": 74}, {"time": 1232, "pitch": 39, "duration": 16, "velocity": 78}, {"time": 1238, "pitch": 51, "duration": 11, "velocity": 92}, {"time": 1244, "pitch": 58, "duration": 15, "velocity": 95}, {"time": 1244, "pitch": 63, "duration": 14, "velocity": 99}, {"time": 1250, "pitch": 55, "duration": 8, "velocity": 81}, {"time": 1256, "pitch": 48, "duration": 14, "velocity": 73}, {"time": 1262, "pitch": 55, "duration": 16, "velocity": 81}, {"time": 1268, "pitch": 60, "duration": 13, "velocity": 81}, {"time": 1268, "pitch": 63, "duration": 12, "velocity": 89}, {"time": 1274, "pitch": 48, "duration": 2, "velocity": 72}, {"time": 1280, "pitch": 48, "duration": 9, "velocity": 81}, {"time": 1286, "pitch": 55, "duration": 17, "velocity": 85}, {"time": 1292, "pitch": 63, "duration": 12, "velocity": 97}, {"time": 1298, "pitch": 60, "duration": 5, "velocity": 58}, {"time": 1304, "pitch": 44, "duration": 14, "velocity": 69}, {"time": 1310, "pitch": 51, "duration": 8, "velocity": 31}, {"time": 1316, "pitch": 63, "duration": 22, "velocity": 85}, {"time": 1316, "pitch": 68, "duration": 22, "velocity": 79}, {"time": 1322, "pitch": 44, "duration": 3, "velocity": 66}, {"time": 1328, "pitch": 44, "duration": 15, "velocity": 74}, {"time": 1334, "pitch": 56, "duration": 8, "velocity": 90}, {"time": 1340, "pitch": 63, "duration": 11, "velocity": 96}, {"time": 1340, "pitch": 68, "duration": 11, "velocity": 97}, {"time": 1346, "pitch": 60, "duration": 6, "velocity": 72}, {"time": 1349, "pitch": 39, "duration": 16, "velocity": 82}, {"time": 1358, "pitch": 51, "duration": 10, "velocity": 76}, {"time": 1364, "pitch": 58, "duration": 21, "velocity": 76}, {"time": 1364, "pitch": 63, "duration": 21, "velocity": 83}, {"time": 1370, "pitch": 39, "duration": 3, "velocity": 81}, {"time": 1376, "pitch": 39, "duration": 13, "velocity": 75}, {"time": 1382, "pitch": 51, "duration": 9, "velocity": 90}, {"time": 1388, "pitch": 58, "duration": 13, "velocity": 112}, {"time": 1388, "pitch": 63, "duration": 11, "velocity": 100}, {"time": 1394, "pitch": 55, "duration": 8, "velocity": 72}, {"time": 1400, "pitch": 43, "duration": 15, "velocity": 79}, {"time": 1406, "pitch": 50, "duration": 10, "velocity": 52}, {"time": 1412, "pitch": 58, "duration": 21, "velocity": 90}, {"time": 1412, "pitch": 62, "duration": 21, "velocity": 83}, {"time": 1418, "pitch": 43, "duration": 3, "velocity": 83}, {"time": 1424, "pitch": 43, "duration": 14, "velocity": 89}, {"time": 1430, "pitch": 50, "duration": 9, "velocity": 90}, {"time": 1436, "pitch": 58, "duration": 14, "velocity": 117}, {"time": 1436, "pitch": 62, "duration": 8, "velocity": 92}, {"time": 1442, "pitch": 55, "duration": 9, "velocity": 76}, {"time": 1448, "pitch": 48, "duration": 16, "velocity": 92}, {"time": 1454, "pitch": 55, "duration": 8, "velocity": 79}, {"time": 1460, "pitch": 60, "duration": 9, "velocity": 97}, {"time": 1460, "pitch": 63, "duration": 9, "velocity": 107}, {"time": 1466, "pitch": 48, "duration": 5, "velocity": 86}, {"time": 1469, "pitch": 41, "duration": 20, "velocity": 67}, {"time": 1478, "pitch": 48, "duration": 15, "velocity": 93}, {"time": 1484, "pitch": 56, "duration": 10, "velocity": 93}, {"time": 1484, "pitch": 60, "duration": 10, "velocity": 85}, {"time": 1487, "pitch": 53, "duration": 6, "velocity": 69}, {"time": 1493, "pitch": 41, "duration": 18, "velocity": 78}, {"time": 1502, "pitch": 48, "duration": 14, "velocity": 59}, {"time": 1508, "pitch": 57, "duration": 8, "velocity": 90}, {"time": 1508, "pitch": 60, "duration": 9, "velocity": 92}, {"time": 1514, "pitch": 53, "duration": 7, "velocity": 69}, {"time": 1517, "pitch": 46, "duration": 11, "velocity": 85}, {"time": 1523, "pitch": 53, "duration": 8, "velocity": 81}, {"time": 1532, "pitch": 58, "duration": 10, "velocity": 107}, {"time": 1532, "pitch": 62, "duration": 10, "velocity": 96}, {"time": 1538, "pitch": 46, "duration": 1, "velocity": 27}, {"time": 1538, "pitch": 53, "duration": 5, "velocity": 89}, {"time": 1541, "pitch": 39, "duration": 49, "velocity": 93}, {"time": 1550, "pitch": 46, "duration": 41, "velocity": 35}, {"time": 1556, "pitch": 51, "duration": 14, "velocity": 96}, {"time": 1562, "pitch": 55, "duration": 8, "velocity": 95}, {"time": 1568, "pitch": 58, "duration": 14, "velocity": 93}, {"time": 1568, "pitch": 63, "duration": 24, "velocity": 127}, {"time": 1574, "pitch": 51, "duration": 17, "velocity": 95}, {"time": 1580, "pitch": 55, "duration": 12, "velocity": 107}, {"time": 1586, "pitch": 58, "duration": 6, "velocity": 112}, {"time": 1598, "pitch": 39, "duration": 4, "velocity": 97}, {"time": 1598, "pitch": 51, "duration": 3, "velocity": 107}, {"time": 1610, "pitch": 41, "duration": 3, "velocity": 89}, {"time": 1610, "pitch": 53, "duration": 3, "velocity": 100}, {"time": 1622, "pitch": 43, "duration": 3, "velocity": 97}, {"time": 1622, "pitch": 55, "duration": 3, "velocity": 112}, {"time": 1637, "pitch": 44, "duration": 16, "velocity": 102}, {"time": 1646, "pitch": 56, "duration": 9, "velocity": 81}, {"time": 1649, "pitch": 51, "duration": 5, "velocity": 24}, {"time": 1652, "pitch": 63, "duration": 20, "velocity": 99}, {"time": 1652, "pitch": 68, "duration": 20, "velocity": 93}, {"time": 1658, "pitch": 44, "duration": 25, "velocity": 95}, {"time": 1667, "pitch": 56, "duration": 12, "velocity": 85}, {"time": 1676, "pitch": 63, "duration": 13, "velocity": 127}, {"time": 1676, "pitch": 68, "duration": 13, "velocity": 112}, {"time": 1682, "pitch": 60, "duration": 8, "velocity": 95}, {"time": 1688, "pitch": 43, "duration": 38, "velocity": 83}, {"time": 1694, "pitch": 50, "duration": 21, "velocity": 96}, {"time": 1700, "pitch": 55, "duration": 11, "velocity": 64}, {"time": 1706, "pitch": 58, "duration": 5, "velocity": 102}, {"time": 1706, "pitch": 62, "duration": 5, "velocity": 99}, {"time": 1712, "pitch": 58, "duration": 14, "velocity": 127}, {"time": 1712, "pitch": 62, "duration": 23, "velocity": 107}, {"time": 1718, "pitch": 50, "duration": 7, "velocity": 83}, {"time": 1724, "pitch": 55, "duration": 18, "velocity": 107}, {"time": 1730, "pitch": 58, "duration": 6, "velocity": 122}, {"time": 1736, "pitch": 36, "duration": 35, "velocity": 93}, {"time": 1742, "pitch": 43, "duration": 30, "velocity": 52}, {"time": 1748, "pitch": 48, "duration": 14, "velocity": 93}, {"time": 1754, "pitch": 55, "duration": 8, "velocity": 100}, {"time": 1760, "pitch": 60, "duration": 13, "velocity": 97}, {"time": 1760, "pitch": 63, "duration": 26, "velocity": 107}, {"time": 1766, "pitch": 48, "duration": 17, "velocity": 95}, {"time": 1772, "pitch": 55, "duration": 14, "velocity": 102}, {"time": 1778, "pitch": 60, "duration": 7, "velocity": 93}, {"time": 1784, "pitch": 41, "duration": 16, "velocity": 89}, {"time": 1790, "pitch": 48, "duration": 12, "velocity": 72}, {"time": 1796, "pitch": 53, "duration": 15, "velocity": 96}, {"time": 1802, "pitch": 56, "duration": 5, "velocity": 102}, {"time": 1802, "pitch": 60, "duration": 5, "velocity": 95}, {"time": 1808, "pitch": 46, "duration": 14, "velocity": 107}, {"time": 1814, "pitch": 53, "duration": 8, "velocity": 93}, {"time": 1820, "pitch": 58, "duration": 11, "velocity": 127}, {"time": 1820, "pitch": 62, "duration": 10, "velocity": 102}, {"time": 1826, "pitch": 53, "duration": 6, "velocity": 93}, {"time": 1832, "pitch": 39, "duration": 36, "velocity": 88}, {"time": 1838, "pitch": 46, "duration": 29, "velocity": 33}, {"time": 1844, "pitch": 51, "duration": 14, "velocity": 90}, {"time": 1850, "pitch": 55, "duration": 8, "velocity": 90}, {"time": 1856, "pitch": 58, "duration": 14, "velocity": 107}, {"time": 1856, "pitch": 63, "duration": 19, "velocity": 117}, {"time": 1862, "pitch": 51, "duration": 7, "velocity": 83}, {"time": 1868, "pitch": 55, "duration": 13, "velocity": 97}, {"time": 1874, "pitch": 58, "duration": 10, "velocity": 100}, {"time": 1880, "pitch": 43, "duration": 16, "velocity": 77}, {"time": 1886, "pitch": 50, "duration": 17, "velocity": 72}, {"time": 1892, "pitch": 55, "duration": 14, "velocity": 95}, {"time": 1898, "pitch": 62, "duration": 5, "velocity": 96}, {"time": 1904, "pitch": 48, "duration": 12, "velocity": 90}, {"time": 1910, "pitch": 55, "duration": 8, "velocity": 95}, {"time": 1916, "pitch": 60, "duration": 13, "velocity": 95}, {"time": 1916, "pitch": 63, "duration": 13, "velocity": 112}, {"time": 1922, "pitch": 55, "duration": 6, "velocity": 90}, {"time": 1928, "pitch": 41, "duration": 36, "velocity": 64}, {"time": 1934, "pitch": 48, "duration": 21, "velocity": 43}, {"time": 1940, "pitch": 53, "duration": 8, "velocity": 82}, {"time": 1946, "pitch": 56, "duration": 5, "velocity": 97}, {"time": 1946, "pitch": 60, "duration": 3, "velocity": 65}, {"time": 1952, "pitch": 56, "duration": 14, "velocity": 85}, {"time": 1952, "pitch": 60, "duration": 24, "velocity": 96}, {"time": 1958, "pitch": 48, "duration": 6, "velocity": 78}, {"time": 1964, "pitch": 53, "duration": 8, "velocity": 93}, {"time": 1970, "pitch": 56, "duration": 5, "velocity": 88}, {"time": 1976, "pitch": 46, "duration": 37, "velocity": 83}, {"time": 1982, "pitch": 53, "duration": 21, "velocity": 69}, {"time": 1988, "pitch": 58, "duration": 10, "velocity": 102}, {"time": 1994, "pitch": 62, "duration": 5, "velocity": 95}, {"time": 1994, "pitch": 65, "duration": 5, "velocity": 81}, {"time": 2000, "pitch": 62, "duration": 8, "velocity": 100}, {"time": 2000, "pitch": 65, "duration": 8, "velocity": 99}, {"time": 2006, "pitch": 53, "duration": 6, "velocity": 55}, {"time": 2012, "pitch": 62, "duration": 11, "velocity": 102}, {"time": 2012, "pitch": 65, "duration": 11, "velocity": 100}, {"time": 2024, "pitch": 44, "duration": 39, "velocity": 93}, {"time": 2030, "pitch": 51, "duration": 30, "velocity": 35}, {"time": 2036, "pitch": 56, "duration": 13, "velocity": 95}, {"time": 2042, "pitch": 60, "duration": 7, "velocity": 72}, {"time": 2048, "pitch": 63, "duration": 14, "velocity": 102}, {"time": 2048, "pitch": 68, "duration": 23, "velocity": 112}, {"time": 2054, "pitch": 56, "duration": 5, "velocity": 88}, {"time": 2060, "pitch": 60, "duration": 13, "velocity": 107}, {"time": 2066, "pitch": 63, "duration": 7, "velocity": 107}, {"time": 2072, "pitch": 43, "duration": 35, "velocity": 86}, {"time": 2075, "pitch": 50, "duration": 23, "velocity": 56}, {"time": 2084, "pitch": 55, "duration": 8, "velocity": 92}, {"time": 2090, "pitch": 58, "duration": 5, "velocity": 107}, {"time": 2096, "pitch": 58, "duration": 14, "velocity": 99}, {"time": 2096, "pitch": 62, "duration": 24, "velocity": 93}, {"time": 2102, "pitch": 50, "duration": 3, "velocity": 83}, {"time": 2108, "pitch": 55, "duration": 27, "velocity": 97}, {"time": 2114, "pitch": 58, "duration": 6, "velocity": 127}, {"time": 2120, "pitch": 36, "duration": 36, "velocity": 86}, {"time": 2126, "pitch": 43, "duration": 29, "velocity": 45}, {"time": 2132, "pitch": 48, "duration": 15, "velocity": 72}, {"time": 2138, "pitch": 55, "duration": 8, "velocity": 96}, {"time": 2144, "pitch": 63, "duration": 23, "velocity": 127}, {"time": 2150, "pitch": 48, "duration": 14, "velocity": 86}, {"time": 2156, "pitch": 60, "duration": 11, "velocity": 99}, {"time": 2162, "pitch": 55, "duration": 6, "velocity": 89}, {"time": 2168, "pitch": 41, "duration": 14, "velocity": 82}, {"time": 2174, "pitch": 48, "duration": 10, "velocity": 81}, {"time": 2180, "pitch": 56, "duration": 8, "velocity": 96}, {"time": 2180, "pitch": 60, "duration": 9, "velocity": 93}, {"time": 2186, "pitch": 53, "duration": 9, "velocity": 86}, {"time": 2192, "pitch": 46, "duration": 13, "velocity": 95}, {"time": 2198, "pitch": 53, "duration": 19, "velocity": 93}, {"time": 2204, "pitch": 62, "duration": 12, "velocity": 112}, {"time": 2210, "pitch": 58, "duration": 7, "velocity": 100}, {"time": 2216, "pitch": 39, "duration": 33, "velocity": 74}, {"time": 2222, "pitch": 46, "duration": 26, "velocity": 39}, {"time": 2228, "pitch": 51, "duration": 14, "velocity": 88}, {"time": 2234, "pitch": 55, "duration": 15, "velocity": 77}, {"time": 2240, "pitch": 63, "duration": 20, "velocity": 112}, {"time": 2246, "pitch": 51, "duration": 6, "velocity": 79}, {"time": 2252, "pitch": 58, "duration": 12, "velocity": 95}, {"time": 2258, "pitch": 55, "duration": 6, "velocity": 88}, {"time": 2264, "pitch": 43, "duration": 20, "velocity": 73}, {"time": 2270, "pitch": 50, "duration": 9, "velocity": 90}, {"time": 2276, "pitch": 55, "duration": 15, "velocity": 88}, {"time": 2282, "pitch": 62, "duration": 6, "velocity": 93}, {"time": 2288, "pitch": 48, "duration": 24, "velocity": 88}, {"time": 2294, "pitch": 55, "duration": 17, "velocity": 90}, {"time": 2300, "pitch": 63, "duration": 10, "velocity": 127}, {"time": 2306, "pitch": 60, "duration": 6, "velocity": 96}, {"time": 2312, "pitch": 41, "duration": 35, "velocity": 69}, {"time": 2318, "pitch": 48, "duration": 21, "velocity": 64}, {"time": 2321, "pitch": 53, "duration": 8, "velocity": 83}, {"time": 2330, "pitch": 56, "duration": 5, "velocity": 86}, {"time": 2336, "pitch": 60, "duration": 24, "velocity": 95}, {"time": 2342, "pitch": 48, "duration": 6, "velocity": 62}, {"time": 2348, "pitch": 56, "duration": 12, "velocity": 92}, {"time": 2354, "pitch": 53, "duration": 6, "velocity": 76}, {"time": 2360, "pitch": 46, "duration": 32, "velocity": 86}, {"time": 2366, "pitch": 53, "duration": 25, "velocity": 58}, {"time": 2372, "pitch": 58, "duration": 13, "velocity": 89}, {"time": 2378, "pitch": 62, "duration": 6, "velocity": 83}, {"time": 2384, "pitch": 65, "duration": 13, "velocity": 97}, {"time": 2387, "pitch": 58, "duration": 2, "velocity": 93}, {"time": 2396, "pitch": 62, "duration": 11, "velocity": 93}, {"time": 2408, "pitch": 39, "duration": 45, "velocity": 48}, {"time": 2408, "pitch": 51, "duration": 10, "velocity": 92}, {"time": 2414, "pitch": 46, "duration": 42, "velocity": 81}, {"time": 2420, "pitch": 51, "duration": 16, "velocity": 89}, {"time": 2426, "pitch": 55, "duration": 16, "velocity": 69}, {"time": 2426, "pitch": 58, "duration": 21, "velocity": 89}, {"time": 2426, "pitch": 63, "duration": 51, "velocity": 81}, {"time": 2438, "pitch": 51, "duration": 19, "velocity": 56}, {"time": 2444, "pitch": 55, "duration": 28, "velocity": 65}, {"time": 2450, "pitch": 58, "duration": 40, "velocity": 55}, {"time": 2453, "pitch": 39, "duration": 37, "velocity": 77}, {"time": 2462, "pitch": 46, "duration": 28, "velocity": 55}, {"time": 2468, "pitch": 51, "duration": 15, "velocity": 58}, {"time": 2474, "pitch": 55, "duration": 28, "velocity": 65}, {"time": 2486, "pitch": 51, "duration": 4, "velocity": 58}, {"time": 2492, "pitch": 58, "duration": 8, "velocity": 76}, {"time": 2492, "pitch": 63, "duration": 9, "velocity": 96}, {"time": 2501, "pitch": 36, "duration": 46, "velocity": 66}, {"time": 2504, "pitch": 55, "duration": 65, "velocity": 65}, {"time": 2504, "pitch": 60, "duration": 17, "velocity": 67}, {"time": 2504, "pitch": 63, "duration": 16, "velocity": 62}, {"time": 2510, "pitch": 43, "duration": 44, "velocity": 42}, {"time": 2516, "pitch": 48, "duration": 44, "velocity": 85}, {"time": 2522, "pitch": 60, "duration": 46, "velocity": 72}, {"time": 2522, "pitch": 63, "duration": 46, "velocity": 75}, {"time": 2552, "pitch": 36, "duration": 38, "velocity": 69}, {"time": 2558, "pitch": 43, "duration": 32, "velocity": 58}, {"time": 2564, "pitch": 48, "duration": 13, "velocity": 71}, {"time": 2570, "pitch": 60, "duration": 28, "velocity": 95}, {"time": 2570, "pitch": 63, "duration": 28, "velocity": 102}, {"time": 2582, "pitch": 48, "duration": 9, "velocity": 66}, {"time": 2588, "pitch": 55, "duration": 9, "velocity": 95}, {"time": 2600, "pitch": 44, "duration": 15, "velocity": 86}, {"time": 2606, "pitch": 51, "duration": 9, "velocity": 35}, {"time": 2612, "pitch": 63, "duration": 20, "velocity": 88}, {"time": 2612, "pitch": 68, "duration": 19, "velocity": 96}, {"time": 2618, "pitch": 44, "duration": 3, "velocity": 86}, {"time": 2624, "pitch": 44, "duration": 13, "velocity": 97}, {"time": 2630, "pitch": 60, "duration": 8, "velocity": 73}, {"time": 2636, "pitch": 63, "duration": 10, "velocity": 83}, {"time": 2636, "pitch": 68, "duration": 10, "velocity": 117}, {"time": 2642, "pitch": 60, "duration": 6, "velocity": 82}, {"time": 2648, "pitch": 43, "duration": 16, "velocity": 85}, {"time": 2654, "pitch": 50, "duration": 10, "velocity": 58}, {"time": 2660, "pitch": 58, "duration": 21, "velocity": 100}, {"time": 2660, "pitch": 62, "duration": 20, "velocity": 90}, {"time": 2666, "pitch": 43, "duration": 2, "velocity": 45}, {"time": 2672, "pitch": 43, "duration": 15, "velocity": 66}, {"time": 2678, "pitch": 50, "duration": 8, "velocity": 69}, {"time": 2684, "pitch": 58, "duration": 13, "velocity": 99}, {"time": 2684, "pitch": 62, "duration": 10, "velocity": 79}, {"time": 2690, "pitch": 55, "duration": 9, "velocity": 83}, {"time": 2696, "pitch": 48, "duration": 14, "velocity": 82}, {"time": 2702, "pitch": 55, "duration": 19, "velocity": 82}, {"time": 2708, "pitch": 60, "duration": 18, "velocity": 85}, {"time": 2714, "pitch": 48, "duration": 2, "velocity": 95}, {"time": 2720, "pitch": 48, "duration": 22, "velocity": 102}, {"time": 2726, "pitch": 55, "duration": 8, "velocity": 88}, {"time": 2732, "pitch": 60, "duration": 9, "velocity": 96}, {"time": 2732, "pitch": 63, "duration": 8, "velocity": 112}, {"time": 2738, "pitch": 55, "duration": 6, "velocity": 90}, {"time": 2744, "pitch": 41, "duration": 20, "velocity": 89}, {"time": 2750, "pitch": 53, "duration": 9, "velocity": 88}, {"time": 2756, "pitch": 56, "duration": 8, "velocity": 96}, {"time": 2756, "pitch": 60, "duration": 8, "velocity": 88}, {"time": 2762, "pitch": 53, "duration": 8, "velocity": 89}, {"time": 2768, "pitch": 46, "duration": 11, "velocity": 107}, {"time": 2774, "pitch": 53, "duration": 9, "velocity": 92}, {"time": 2780, "pitch": 58, "duration": 11, "velocity": 102}, {"time": 2780, "pitch": 62, "duration": 10, "velocity": 97}, {"time": 2786, "pitch": 53, "duration": 5, "velocity": 92}, {"time": 2792, "pitch": 39, "duration": 15, "velocity": 92}, {"time": 2798, "pitch": 51, "duration": 8, "velocity": 73}, {"time": 2804, "pitch": 55, "duration": 14, "velocity": 52}, {"time": 2804, "pitch": 58, "duration": 15, "velocity": 117}, {"time": 2810, "pitch": 39, "duration": 3, "velocity": 89}, {"time": 2816, "pitch": 39, "duration": 11, "velocity": 56}, {"time": 2819, "pitch": 51, "duration": 5, "velocity": 35}, {"time": 2822, "pitch": 58, "duration": 18, "velocity": 97}, {"time": 2822, "pitch": 63, "duration": 15, "velocity": 96}, {"time": 2834, "pitch": 55, "duration": 15, "velocity": 77}, {"time": 2840, "pitch": 43, "duration": 15, "velocity": 89}, {"time": 2846, "pitch": 50, "duration": 10, "velocity": 67}, {"time": 2852, "pitch": 58, "duration": 13, "velocity": 93}, {"time": 2852, "pitch": 62, "duration": 11, "velocity": 85}, {"time": 2858, "pitch": 43, "duration": 6, "velocity": 81}, {"time": 2864, "pitch": 48, "duration": 21, "velocity": 93}, {"time": 2870, "pitch": 55, "duration": 8, "velocity": 85}, {"time": 2876, "pitch": 60, "duration": 9, "velocity": 90}, {"time": 2876, "pitch": 63, "duration": 9, "velocity": 96}, {"time": 2882, "pitch": 55, "duration": 6, "velocity": 90}, {"time": 2888, "pitch": 41, "duration": 16, "velocity": 89}, {"time": 2894, "pitch": 48, "duration": 10, "velocity": 71}, {"time": 2900, "pitch": 56, "duration": 16, "velocity": 89}, {"time": 2900, "pitch": 60, "duration": 17, "velocity": 79}, {"time": 2906, "pitch": 41, "duration": 18, "velocity": 93}, {"time": 2912, "pitch": 48, "duration": 13, "velocity": 112}, {"time": 2918, "pitch": 53, "duration": 8, "velocity": 89}, {"time": 2924, "pitch": 56, "duration": 7, "velocity": 107}, {"time": 2924, "pitch": 60, "duration": 7, "velocity": 93}, {"time": 2930, "pitch": 53, "duration": 5, "velocity": 90}, {"time": 2936, "pitch": 46, "duration": 39, "velocity": 96}, {"time": 2936, "pitch": 58, "duration": 42, "velocity": 102}, {"time": 2936, "pitch": 62, "duration": 42, "velocity": 95}, {"time": 2984, "pitch": 39, "duration": 14, "velocity": 95}, {"time": 2990, "pitch": 46, "duration": 8, "velocity": 37}, {"time": 2996, "pitch": 63, "duration": 36, "velocity": 88}, {"time": 3002, "pitch": 39, "duration": 3, "velocity": 83}, {"time": 3008, "pitch": 39, "duration": 15, "velocity": 67}, {"time": 3014, "pitch": 51, "duration": 12, "velocity": 95}, {"time": 3020, "pitch": 55, "duration": 14, "velocity": 81}, {"time": 3026, "pitch": 58, "duration": 8, "velocity": 72}, {"time": 3032, "pitch": 48, "duration": 15, "velocity": 66}, {"time": 3038, "pitch": 55, "duration": 21, "velocity": 56}, {"time": 3044, "pitch": 63, "duration": 36, "velocity": 82}, {"time": 3050, "pitch": 48, "duration": 3, "velocity": 74}, {"time": 3056, "pitch": 48, "duration": 9, "velocity": 74}, {"time": 3062, "pitch": 55, "duration": 8, "velocity": 85}, {"time": 3068, "pitch": 60, "duration": 10, "velocity": 76}, {"time": 3074, "pitch": 55, "duration": 5, "velocity": 73}, {"time": 3080, "pitch": 44, "duration": 15, "velocity": 70}, {"time": 3086, "pitch": 51, "duration": 11, "velocity": 60}, {"time": 3092, "pitch": 56, "duration": 5, "velocity": 51}, {"time": 3092, "pitch": 60, "duration": 20, "velocity": 69}, {"time": 3092, "pitch": 63, "duration": 21, "velocity": 90}, {"time": 3098, "pitch": 44, "duration": 2, "velocity": 79}, {"time": 3101, "pitch": 44, "duration": 16, "velocity": 72}, {"time": 3110, "pitch": 51, "duration": 9, "velocity": 36}, {"time": 3116, "pitch": 60, "duration": 12, "velocity": 76}, {"time": 3116, "pitch": 63, "duration": 13, "velocity": 82}, {"time": 3122, "pitch": 56, "duration": 6, "velocity": 57}, {"time": 3128, "pitch": 39, "duration": 16, "velocity": 76}, {"time": 3134, "pitch": 51, "duration": 9, "velocity": 68}, {"time": 3140, "pitch": 55, "duration": 9, "velocity": 57}, {"time": 3140, "pitch": 58, "duration": 19, "velocity": 60}, {"time": 3140, "pitch": 63, "duration": 20, "velocity": 63}, {"time": 3146, "pitch": 39, "duration": 2, "velocity": 88}, {"time": 3152, "pitch": 39, "duration": 12, "velocity": 90}, {"time": 3158, "pitch": 51, "duration": 9, "velocity": 96}, {"time": 3161, "pitch": 58, "duration": 17, "velocity": 86}, {"time": 3164, "pitch": 63, "duration": 13, "velocity": 100}, {"time": 3170, "pitch": 55, "duration": 11, "velocity": 67}, {"time": 3176, "pitch": 43, "duration": 14, "velocity": 76}, {"time": 3182, "pitch": 50, "duration": 10, "velocity": 59}, {"time": 3188, "pitch": 62, "duration": 36, "velocity": 96}, {"time": 3194, "pitch": 43, "duration": 3, "velocity": 88}, {"time": 3200, "pitch": 43, "duration": 15, "velocity": 77}, {"time": 3206, "pitch": 50, "duration": 9, "velocity": 75}, {"time": 3212, "pitch": 55, "duration": 14, "velocity": 93}, {"time": 3218, "pitch": 58, "duration": 8, "velocity": 72}, {"time": 3224, "pitch": 36, "duration": 12, "velocity": 85}, {"time": 3230, "pitch": 55, "duration": 8, "velocity": 77}, {"time": 3236, "pitch": 60, "duration": 11, "velocity": 78}, {"time": 3236, "pitch": 63, "duration": 11, "velocity": 96}, {"time": 3242, "pitch": 55, "duration": 7, "velocity": 74}, {"time": 3245, "pitch": 41, "duration": 21, "velocity": 72}, {"time": 3254, "pitch": 48, "duration": 16, "velocity": 73}, {"time": 3260, "pitch": 56, "duration": 9, "velocity": 83}, {"time": 3260, "pitch": 60, "duration": 13, "velocity": 76}, {"time": 3266, "pitch": 53, "duration": 6, "velocity": 49}, {"time": 3269, "pitch": 41, "duration": 22, "velocity": 66}, {"time": 3278, "pitch": 48, "duration": 17, "velocity": 70}, {"time": 3284, "pitch": 57, "duration": 21, "velocity": 72}, {"time": 3284, "pitch": 60, "duration": 21, "velocity": 72}, {"time": 3290, "pitch": 53, "duration": 16, "velocity": 55}, {"time": 3302, "pitch": 41, "duration": 10, "velocity": 69}, {"time": 3308, "pitch": 57, "duration": 9, "velocity": 75}, {"time": 3308, "pitch": 60, "duration": 10, "velocity": 79}, {"time": 3314, "pitch": 53, "duration": 8, "velocity": 59}, {"time": 3320, "pitch": 46, "duration": 16, "velocity": 92}, {"time": 3326, "pitch": 53, "duration": 20, "velocity": 59}, {"time": 3332, "pitch": 58, "duration": 17, "velocity": 72}, {"time": 3332, "pitch": 62, "duration": 17, "velocity": 85}, {"time": 3338, "pitch": 46, "duration": 3, "velocity": 81}, {"time": 3344, "pitch": 46, "duration": 11, "velocity": 88}, {"time": 3347, "pitch": 53, "duration": 18, "velocity": 78}, {"time": 3356, "pitch": 62, "duration": 11, "velocity": 100}, {"time": 3362, "pitch": 58, "duration": 12, "velocity": 67}, {"time": 3368, "pitch": 39, "duration": 15, "velocity": 86}, {"time": 3374, "pitch": 51, "duration": 9, "velocity": 81}, {"time": 3380, "pitch": 63, "duration": 22, "velocity": 99}, {"time": 3386, "pitch": 39, "duration": 3, "velocity": 74}, {"time": 3392, "pitch": 39, "duration": 16, "velocity": 78}, {"time": 3398, "pitch": 51, "duration": 11, "velocity": 92}, {"time": 3404, "pitch": 58, "duration": 15, "velocity": 95}, {"time": 3404, "pitch": 63, "duration": 14, "velocity": 99}, {"time": 3410, "pitch": 55, "duration": 8, "velocity": 81}, {"time": 3416, "pitch": 48, "duration": 14, "velocity": 73}, {"time": 3422, "pitch": 55, "duration": 16, "velocity": 81}, {"time": 3428, "pitch": 60, "duration": 13, "velocity": 81}, {"time": 3428, "pitch": 63, "duration": 12, "velocity": 89}, {"time": 3434, "pitch": 48, "duration": 2, "velocity": 72}, {"time": 3440, "pitch": 48, "duration": 9, "velocity": 81}, {"time": 3446, "pitch": 55, "duration": 17, "velocity": 85}, {"time": 3452, "pitch": 63, "duration": 12, "velocity": 97}, {"time": 3458, "pitch": 60, "duration": 5, "velocity": 58}, {"time": 3464, "pitch": 44, "duration": 14, "velocity": 69}, {"time": 3470, "pitch": 51, "duration": 8, "velocity": 31}, {"time": 3476, "pitch": 63, "duration": 22, "velocity": 85}, {"time": 3476, "pitch": 68, "duration": 22, "velocity": 79}, {"time": 3482, "pitch": 44, "duration": 3, "velocity": 66}, {"time": 3488, "pitch": 44, "duration": 15, "velocity": 74}, {"time": 3494, "pitch": 56, "duration": 8, "velocity": 90}, {"time": 3500, "pitch": 63, "duration": 11, "velocity": 96}, {"time": 3500, "pitch": 68, "duration": 11, "velocity": 97}, {"time": 3506, "pitch": 60, "duration": 6, "velocity": 72}, {"time": 3509, "pitch": 39, "duration": 16, "velocity": 82}, {"time": 3518, "pitch": 51, "duration": 10, "velocity": 76}, {"time": 3524, "pitch": 58, "duration": 21, "velocity": 76}, {"time": 3524, "pitch": 63, "duration": 21, "velocity": 83}, {"time": 3530, "pitch": 39, "duration": 3, "velocity": 81}, {"time": 3536, "pitch": 39, "duration": 13, "velocity": 75}, {"time": 3542, "pitch": 51, "duration": 9, "velocity": 90}, {"time": 3548, "pitch": 58, "duration": 13, "velocity": 112}, {"time": 3548, "pitch": 63, "duration": 11, "velocity": 100}, {"time": 3554, "pitch": 55, "duration": 8, "velocity": 72}, {"time": 3560, "pitch": 43, "duration": 15, "velocity": 79}, {"time": 3566, "pitch": 50, "duration": 10, "velocity": 52}, {"time": 3572, "pitch": 58, "duration": 21, "velocity": 90}, {"time": 3572, "pitch": 62, "duration": 21, "velocity": 83}, {"time": 3578, "pitch": 43, "duration": 3, "velocity": 83}, {"time": 3584, "pitch": 43, "duration": 14, "velocity": 89}, {"time": 3590, "pitch": 50, "duration": 9, "velocity": 90}, {"time": 3596, "pitch": 58, "duration": 14, "velocity": 117}, {"time": 3596, "pitch": 62, "duration": 8, "velocity": 92}, {"time": 3602, "pitch": 55, "duration": 9, "velocity": 76}, {"time": 3608, "pitch": 48, "duration": 16, "velocity": 92}, {"time": 3614, "pitch": 55, "duration": 8, "velocity": 79}, {"time": 3620, "pitch": 60, "duration": 9, "velocity": 97}, {"time": 3620, "pitch": 63, "duration": 9, "velocity": 107}, {"time": 3626, "pitch": 48, "duration": 5, "velocity": 86}, {"time": 3629, "pitch": 41, "duration": 20, "velocity": 67}, {"time": 3638, "pitch": 48, "duration": 15, "velocity": 93}, {"time": 3644, "pitch": 56, "duration": 10, "velocity": 93}, {"time": 3644, "pitch": 60, "duration": 10, "velocity": 85}, {"time": 3647, "pitch": 53, "duration": 6, "velocity": 69}, {"time": 3653, "pitch": 41, "duration": 18, "velocity": 78}, {"time": 3662, "pitch": 48, "duration": 14, "velocity": 59}, {"time": 3668, "pitch": 57, "duration": 8, "velocity": 90}, {"time": 3668, "pitch": 60, "duration": 9, "velocity": 92}, {"time": 3674, "pitch": 53, "duration": 7, "velocity": 69}, {"time": 3677, "pitch": 46, "duration": 11, "velocity": 85}, {"time": 3683, "pitch": 53, "duration": 8, "velocity": 81}, {"time": 3692, "pitch": 58, "duration": 10, "velocity": 107}, {"time": 3692, "pitch": 62, "duration": 10, "velocity": 96}, {"time": 3698, "pitch": 46, "duration": 1, "velocity": 27}, {"time": 3698, "pitch": 53, "duration": 5, "velocity": 89}, {"time": 3701, "pitch": 39, "duration": 49, "velocity": 93}, {"time": 3710, "pitch": 46, "duration": 41, "velocity": 35}, {"time": 3716, "pitch": 51, "duration": 14, "velocity": 96}, {"time": 3722, "pitch": 55, "duration": 8, "velocity": 95}, {"time": 3728, "pitch": 58, "duration": 14, "velocity": 93}, {"time": 3728, "pitch": 63, "duration": 24, "velocity": 127}, {"time": 3734, "pitch": 51, "duration": 17, "velocity": 95}, {"time": 3740, "pitch": 55, "duration": 12, "velocity": 107}, {"time": 3746, "pitch": 58, "duration": 6, "velocity": 112}, {"time": 3758, "pitch": 39, "duration": 4, "velocity": 97}, {"time": 3758, "pitch": 51, "duration": 3, "velocity": 107}, {"time": 3770, "pitch": 41, "duration": 3, "velocity": 89}, {"time": 3770, "pitch": 53, "duration": 3, "velocity": 100}, {"time": 3782, "pitch": 43, "duration": 3, "velocity": 97}, {"time": 3782, "pitch": 55, "duration": 3, "velocity": 112}, {"time": 3797, "pitch": 44, "duration": 16, "velocity": 102}, {"time": 3806, "pitch": 56, "duration": 9, "velocity": 81}, {"time": 3809, "pitch": 51, "duration": 5, "velocity": 24}, {"time": 3812, "pitch": 63, "duration": 20, "velocity": 99}, {"time": 3812, "pitch": 68, "duration": 20, "velocity": 93}, {"time": 3818, "pitch": 44, "duration": 25, "velocity": 95}, {"time": 3827, "pitch": 56, "duration": 12, "velocity": 85}, {"time": 3836, "pitch": 63, "duration": 13, "velocity": 127}, {"time": 3836, "pitch": 68, "duration": 13, "velocity": 112}, {"time": 3842, "pitch": 60, "duration": 8, "velocity": 95}, {"time": 3848, "pitch": 43, "duration": 38, "velocity": 83}, {"time": 3854, "pitch": 50, "duration": 21, "velocity": 96}, {"time": 3860, "pitch": 55, "duration": 11, "velocity": 64}, {"time": 3866, "pitch": 58, "duration": 5, "velocity": 102}, {"time": 3866, "pitch": 62, "duration": 5, "velocity": 99}, {"time": 3872, "pitch": 58, "duration": 14, "velocity": 127}, {"time": 3872, "pitch": 62, "duration": 23, "velocity": 107}, {"time": 3878, "pitch": 50, "duration": 7, "velocity": 83}, {"time": 3884, "pitch": 55, "duration": 18, "velocity": 107}, {"time": 3890, "pitch": 58, "duration": 6, "velocity": 122}, {"time": 3896, "pitch": 36, "duration": 35, "velocity": 93}, {"time": 3902, "pitch": 43, "duration": 30, "velocity": 52}, {"time": 3908, "pitch": 48, "duration": 14, "velocity": 93}, {"time": 3914, "pitch": 55, "duration": 8, "velocity": 100}, {"time": 3920, "pitch": 60, "duration": 13, "velocity": 97}, {"time": 3920, "pitch": 63, "duration": 26, "velocity": 107}, {"time": 3926, "pitch": 48, "duration": 17, "velocity": 95}, {"time": 3932, "pitch": 55, "duration": 14, "velocity": 102}, {"time": 3938, "pitch": 60, "duration": 7, "velocity": 93}, {"time": 3944, "pitch": 41, "duration": 16, "velocity": 89}, {"time": 3950, "pitch": 48, "duration": 12, "velocity": 72}, {"time": 3956, "pitch": 53, "duration": 15, "velocity": 96}, {"time": 3962, "pitch": 56, "duration": 5, "velocity": 102}, {"time": 3962, "pitch": 60, "duration": 5, "velocity": 95}, {"time": 3968, "pitch": 46, "duration": 14, "velocity": 107}, {"time": 3974, "pitch": 53, "duration": 8, "velocity": 93}, {"time": 3980, "pitch": 58, "duration": 11, "velocity": 127}, {"time": 3980, "pitch": 62, "duration": 10, "velocity": 102}, {"time": 3986, "pitch": 53, "duration": 6, "velocity": 93}, {"time": 3992, "pitch": 39, "duration": 36, "velocity": 88}, {"time": 3998, "pitch": 46, "duration": 29, "velocity": 33}, {"time": 4004, "pitch": 51, "duration": 14, "velocity": 90}, {"time": 4010, "pitch": 55, "duration": 8, "velocity": 90}, {"time": 4016, "pitch": 58, "duration": 14, "velocity": 107}, {"time": 4016, "pitch": 63, "duration": 19, "velocity": 117}, {"time": 4022, "pitch": 51, "duration": 7, "velocity": 83}, {"time": 4028, "pitch": 55, "duration": 13, "velocity": 97}, {"time": 4034, "pitch": 58, "duration": 10, "velocity": 100}, {"time": 4040, "pitch": 43, "duration": 16, "velocity": 77}, {"time": 4046, "pitch": 50, "duration": 17, "velocity": 72}, {"time": 4052, "pitch": 55, "duration": 14, "velocity": 95}, {"time": 4058, "pitch": 62, "duration": 5, "velocity": 96}, {"time": 4064, "pitch": 48, "duration": 12, "velocity": 90}, {"time": 4070, "pitch": 55, "duration": 8, "velocity": 95}, {"time": 4076, "pitch": 60, "duration": 13, "velocity": 95}, {"time": 4076, "pitch": 63, "duration": 13, "velocity": 112}, {"time": 4082, "pitch": 55, "duration": 6, "velocity": 90}, {"time": 4088, "pitch": 41, "duration": 36, "velocity": 64}, {"time": 4094, "pitch": 48, "duration": 21, "velocity": 43}, {"time": 4100, "pitch": 53, "duration": 8, "velocity": 82}, {"time": 4106, "pitch": 56, "duration": 5, "velocity": 97}, {"time": 4106, "pitch": 60, "duration": 3, "velocity": 65}, {"time": 4112, "pitch": 56, "duration": 14, "velocity": 85}, {"time": 4112, "pitch": 60, "duration": 24, "velocity": 96}, {"time": 4118, "pitch": 48, "duration": 6, "velocity": 78}, {"time": 4124, "pitch": 53, "duration": 8, "velocity": 93}, {"time": 4130, "pitch": 56, "duration": 5, "velocity": 88}, {"time": 4136, "pitch": 46, "duration": 37, "velocity": 83}, {"time": 4142, "pitch": 53, "duration": 21, "velocity": 69}, {"time": 4148, "pitch": 58, "duration": 10, "velocity": 102}, {"time": 4154, "pitch": 62, "duration": 5, "velocity": 95}, {"time": 4154, "pitch": 65, "duration": 5, "velocity": 81}, {"time": 4160, "pitch": 62, "duration": 8, "velocity": 100}, {"time": 4160, "pitch": 65, "duration": 8, "velocity": 99}, {"time": 4166, "pitch": 53, "duration": 6, "velocity": 55}, {"time": 4172, "pitch": 62, "duration": 11, "velocity": 102}, {"time": 4172, "pitch": 65, "duration": 11, "velocity": 100}, {"time": 4184, "pitch": 44, "duration": 39, "velocity": 93}, {"time": 4190, "pitch": 51, "duration": 30, "velocity": 35}, {"time": 4196, "pitch": 56, "duration": 13, "velocity": 95}, {"time": 4202, "pitch": 60, "duration": 7, "velocity": 72}, {"time": 4208, "pitch": 63, "duration": 14, "velocity": 102}, {"time": 4208, "pitch": 68, "duration": 23, "velocity": 112}, {"time": 4214, "pitch": 56, "duration": 5, "velocity": 88}, {"time": 4220, "pitch": 60, "duration": 13, "velocity": 107}, {"time": 4226, "pitch": 63, "duration": 7, "velocity": 107}, {"time": 4232, "pitch": 43, "duration": 35, "velocity": 86}, {"time": 4235, "pitch": 50, "duration": 23, "velocity": 56}, {"time": 4244, "pitch": 55, "duration": 8, "velocity": 92}, {"time": 4250, "pitch": 58, "duration": 5, "velocity": 107}, {"time": 4256, "pitch": 58, "duration": 14, "velocity": 99}, {"time": 4256, "pitch": 62, "duration": 24, "velocity": 93}, {"time": 4262, "pitch": 50, "duration": 3, "velocity": 83}, {"time": 4268, "pitch": 55, "duration": 27, "velocity": 97}, {"time": 4274, "pitch": 58, "duration": 6, "velocity": 127}, {"time": 4280, "pitch": 36, "duration": 36, "velocity": 86}, {"time": 4286, "pitch": 43, "duration": 29, "velocity": 45}, {"time": 4292, "pitch": 48, "duration": 15, "velocity": 72}, {"time": 4298, "pitch": 55, "duration": 8, "velocity": 96}, {"time": 4304, "pitch": 63, "duration": 23, "velocity": 127}, {"time": 4310, "pitch": 48, "duration": 14, "velocity": 86}, {"time": 4316, "pitch": 60, "duration": 11, "velocity": 99}, {"time": 4322, "pitch": 55, "duration": 6, "velocity": 89}, {"time": 4328, "pitch": 41, "duration": 14, "velocity": 82}, {"time": 4334, "pitch": 48, "duration": 10, "velocity": 81}, {"time": 4340, "pitch": 56, "duration": 8, "velocity": 96}, {"time": 4340, "pitch": 60, "duration": 9, "velocity": 93}, {"time": 4346, "pitch": 53, "duration": 9, "velocity": 86}, {"time": 4352, "pitch": 46, "duration": 13, "velocity": 95}, {"time": 4358, "pitch": 53, "duration": 19, "velocity": 93}, {"time": 4364, "pitch": 62, "duration": 12, "velocity": 112}, {"time": 4370, "pitch": 58, "duration": 7, "velocity": 100}, {"time": 4376, "pitch": 39, "duration": 33, "velocity": 74}, {"time": 4382, "pitch": 46, "duration": 26, "velocity": 39}, {"time": 4388, "pitch": 51, "duration": 14, "velocity": 88}, {"time": 4394, "pitch": 55, "duration": 15, "velocity": 77}, {"time": 4400, "pitch": 63, "duration": 20, "velocity": 112}, {"time": 4406, "pitch": 51, "duration": 6, "velocity": 79}, {"time": 4412, "pitch": 58, "duration": 12, "velocity": 95}, {"time": 4418, "pitch": 55, "duration": 6, "velocity": 88}, {"time": 4424, "pitch": 43, "duration": 20, "velocity": 73}, {"time": 4430, "pitch": 50, "duration": 9, "velocity": 90}, {"time": 4436, "pitch": 55, "duration": 15, "velocity": 88}, {"time": 4442, "pitch": 62, "duration": 6, "velocity": 93}, {"time": 4448, "pitch": 48, "duration": 24, "velocity": 88}, {"time": 4454, "pitch": 55, "duration": 17, "velocity": 90}, {"time": 4460, "pitch": 63, "duration": 10, "velocity": 127}, {"time": 4466, "pitch": 60, "duration": 6, "velocity": 96}, {"time": 4472, "pitch": 41, "duration": 35, "velocity": 69}, {"time": 4478, "pitch": 48, "duration": 21, "velocity": 64}, {"time": 4481, "pitch": 53, "duration": 8, "velocity": 83}, {"time": 4490, "pitch": 56, "duration": 5, "velocity": 86}, {"time": 4496, "pitch": 60, "duration": 24, "velocity": 95}, {"time": 4502, "pitch": 48, "duration": 6, "velocity": 62}, {"time": 4508, "pitch": 56, "duration": 12, "velocity": 92}, {"time": 4514, "pitch": 53, "duration": 6, "velocity": 76}, {"time": 4520, "pitch": 46, "duration": 32, "velocity": 86}, {"time": 4526, "pitch": 53, "duration": 25, "velocity": 58}, {"time": 4532, "pitch": 58, "duration": 13, "velocity": 89}, {"time": 4538, "pitch": 62, "duration": 6, "velocity": 83}, {"time": 4544, "pitch": 65, "duration": 13, "velocity": 97}, {"time": 4547, "pitch": 58, "duration": 2, "velocity": 93}, {"time": 4556, "pitch": 62, "duration": 11, "velocity": 93}, {"time": 4574, "pitch": 39, "duration": 5, "velocity": 100}, {"time": 4574, "pitch": 51, "duration": 3, "velocity": 127}, {"time": 4583, "pitch": 41, "duration": 5, "velocity": 85}, {"time": 4583, "pitch": 53, "duration": 4, "velocity": 107}, {"time": 4595, "pitch": 43, "duration": 6, "velocity": 112}, {"time": 4595, "pitch": 55, "duration": 6, "velocity": 112}, {"time": 4622, "pitch": 56, "duration": 9, "velocity": 81}, {"time": 4625, "pitch": 51, "duration": 5, "velocity": 24}, {"time": 4628, "pitch": 63, "duration": 20, "velocity": 99}, {"time": 4628, "pitch": 68, "duration": 20, "velocity": 93}, {"time": 4634, "pitch": 44, "duration": 25, "velocity": 95}, {"time": 4643, "pitch": 56, "duration": 12, "velocity": 85}, {"time": 4652, "pitch": 63, "duration": 13, "velocity": 127}, {"time": 4652, "pitch": 68, "duration": 13, "velocity": 112}, {"time": 4658, "pitch": 60, "duration": 8, "velocity": 95}, {"time": 4664, "pitch": 43, "duration": 38, "velocity": 83}, {"time": 4670, "pitch": 50, "duration": 21, "velocity": 96}, {"time": 4676, "pitch": 55, "duration": 11, "velocity": 64}, {"time": 4682, "pitch": 58, "duration": 5, "velocity": 102}, {"time": 4682, "pitch": 62, "duration": 5, "velocity": 99}, {"time": 4688, "pitch": 58, "duration": 14, "velocity": 127}, {"time": 4688, "pitch": 62, "duration": 23, "velocity": 107}, {"time": 4694, "pitch": 50, "duration": 7, "velocity": 83}, {"time": 4700, "pitch": 55, "duration": 18, "velocity": 107}, {"time": 4706, "pitch": 58, "duration": 6, "velocity": 122}, {"time": 4712, "pitch": 36, "duration": 35, "velocity": 93}, {"time": 4718, "pitch": 43, "duration": 30, "velocity": 52}, {"time": 4724, "pitch": 48, "duration": 14, "velocity": 93}, {"time": 4730, "pitch": 55, "duration": 8, "velocity": 100}, {"time": 4736, "pitch": 60, "duration": 13, "velocity": 97}, {"time": 4736, "pitch": 63, "duration": 26, "velocity": 107}, {"time": 4742, "pitch": 48, "duration": 17, "velocity": 95}, {"time": 4748, "pitch": 55, "duration": 14, "velocity": 102}, {"time": 4754, "pitch": 60, "duration": 7, "velocity": 93}, {"time": 4760, "pitch": 41, "duration": 16, "velocity": 89}, {"time": 4766, "pitch": 48, "duration": 12, "velocity": 72}, {"time": 4772, "pitch": 53, "duration": 15, "velocity": 96}, {"time": 4778, "pitch": 56, "duration": 5, "velocity": 102}, {"time": 4778, "pitch": 60, "duration": 5, "velocity": 95}, {"time": 4784, "pitch": 46, "duration": 14, "velocity": 107}, {"time": 4790, "pitch": 53, "duration": 8, "velocity": 93}, {"time": 4796, "pitch": 58, "duration": 11, "velocity": 127}, {"time": 4796, "pitch": 62, "duration": 10, "velocity": 102}, {"time": 4802, "pitch": 53, "duration": 6, "velocity": 93}, {"time": 4808, "pitch": 39, "duration": 36, "velocity": 88}, {"time": 4814, "pitch": 46, "duration": 29, "velocity": 33}, {"time": 4820, "pitch": 51, "duration": 14, "velocity": 90}, {"time": 4826, "pitch": 55, "duration": 8, "velocity": 90}, {"time": 4832, "pitch": 58, "duration": 14, "velocity": 107}, {"time": 4832, "pitch": 63, "duration": 19, "velocity": 117}, {"time": 4838, "pitch": 51, "duration": 7, "velocity": 83}, {"time": 4844, "pitch": 55, "duration": 13, "velocity": 97}, {"time": 4850, "pitch": 58, "duration": 10, "velocity": 100}, {"time": 4856, "pitch": 43, "duration": 16, "velocity": 77}, {"time": 4862, "pitch": 50, "duration": 17, "velocity": 72}, {"time": 4868, "pitch": 55, "duration": 14, "velocity": 95}, {"time": 4874, "pitch": 62, "duration": 5, "velocity": 96}, {"time": 4880, "pitch": 48, "duration": 12, "velocity": 90}, {"time": 4886, "pitch": 55, "duration": 8, "velocity": 95}, {"time": 4892, "pitch": 60, "duration": 13, "velocity": 95}, {"time": 4892, "pitch": 63, "duration": 13, "velocity": 112}, {"time": 4898, "pitch": 55, "duration": 6, "velocity": 90}, {"time": 4904, "pitch": 41, "duration": 36, "velocity": 64}, {"time": 4910, "pitch": 48, "duration": 21, "velocity": 43}, {"time": 4916, "pitch": 53, "duration": 8, "velocity": 82}, {"time": 4922, "pitch": 56, "duration": 5, "velocity": 97}, {"time": 4922, "pitch": 60, "duration": 3, "velocity": 65}, {"time": 4928, "pitch": 56, "duration": 14, "velocity": 85}, {"time": 4928, "pitch": 60, "duration": 24, "velocity": 96}, {"time": 4934, "pitch": 48, "duration": 6, "velocity": 78}, {"time": 4940, "pitch": 53, "duration": 8, "velocity": 93}, {"time": 4946, "pitch": 56, "duration": 5, "velocity": 88}, {"time": 4952, "pitch": 46, "duration": 37, "velocity": 83}, {"time": 4958, "pitch": 53, "duration": 21, "velocity": 69}, {"time": 4964, "pitch": 58, "duration": 10, "velocity": 102}, {"time": 4970, "pitch": 62, "duration": 5, "velocity": 95}, {"time": 4970, "pitch": 65, "duration": 5, "velocity": 81}, {"time": 4976, "pitch": 62, "duration": 8, "velocity": 100}, {"time": 4976, "pitch": 65, "duration": 8, "velocity": 99}, {"time": 4982, "pitch": 53, "duration": 6, "velocity": 55}, {"time": 4988, "pitch": 62, "duration": 11, "velocity": 102}, {"time": 4988, "pitch": 65, "duration": 11, "velocity": 100}, {"time": 5000, "pitch": 44, "duration": 39, "velocity": 93}, {"time": 5006, "pitch": 51, "duration": 30, "velocity": 35}, {"time": 5012, "pitch": 56, "duration": 13, "velocity": 95}, {"time": 5018, "pitch": 60, "duration": 7, "velocity": 72}, {"time": 5024, "pitch": 63, "duration": 14, "velocity": 102}, {"time": 5024, "pitch": 68, "duration": 23, "velocity": 112}, {"time": 5030, "pitch": 56, "duration": 5, "velocity": 88}, {"time": 5036, "pitch": 60, "duration": 13, "velocity": 107}, {"time": 5042, "pitch": 63, "duration": 7, "velocity": 107}, {"time": 5048, "pitch": 43, "duration": 35, "velocity": 86}, {"time": 5051, "pitch": 50, "duration": 23, "velocity": 56}, {"time": 5060, "pitch": 55, "duration": 8, "velocity": 92}, {"time": 5066, "pitch": 58, "duration": 5, "velocity": 107}, {"time": 5072, "pitch": 58, "duration": 14, "velocity": 99}, {"time": 5072, "pitch": 62, "duration": 24, "velocity": 93}, {"time": 5078, "pitch": 50, "duration": 3, "velocity": 83}, {"time": 5084, "pitch": 55, "duration": 27, "velocity": 97}, {"time": 5090, "pitch": 58, "duration": 6, "velocity": 127}, {"time": 5096, "pitch": 36, "duration": 36, "velocity": 86}, {"time": 5102, "pitch": 43, "duration": 29, "velocity": 45}, {"time": 5108, "pitch": 48, "duration": 15, "velocity": 72}, {"time": 5114, "pitch": 55, "duration": 8, "velocity": 96}, {"time": 5120, "pitch": 63, "duration": 23, "velocity": 127}, {"time": 5126, "pitch": 48, "duration": 14, "velocity": 86}, {"time": 5132, "pitch": 60, "duration": 11, "velocity": 99}, {"time": 5138, "pitch": 55, "duration": 6, "velocity": 89}, {"time": 5144, "pitch": 41, "duration": 14, "velocity": 82}, {"time": 5150, "pitch": 48, "duration": 10, "velocity": 81}, {"time": 5156, "pitch": 56, "duration": 8, "velocity": 96}, {"time": 5156, "pitch": 60, "duration": 9, "velocity": 93}, {"time": 5162, "pitch": 53, "duration": 9, "velocity": 86}, {"time": 5168, "pitch": 46, "duration": 13, "velocity": 95}, {"time": 5174, "pitch": 53, "duration": 19, "velocity": 93}, {"time": 5180, "pitch": 62, "duration": 12, "velocity": 112}, {"time": 5186, "pitch": 58, "duration": 7, "velocity": 100}, {"time": 5192, "pitch": 39, "duration": 33, "velocity": 74}, {"time": 5198, "pitch": 46, "duration": 26, "velocity": 39}, {"time": 5204, "pitch": 51, "duration": 14, "velocity": 88}, {"time": 5210, "pitch": 55, "duration": 15, "velocity": 77}, {"time": 5216, "pitch": 63, "duration": 20, "velocity": 112}, {"time": 5222, "pitch": 51, "duration": 6, "velocity": 79}, {"time": 5228, "pitch": 58, "duration": 12, "velocity": 95}, {"time": 5234, "pitch": 55, "duration": 6, "velocity": 88}, {"time": 5240, "pitch": 43, "duration": 20, "velocity": 73}, {"time": 5246, "pitch": 50, "duration": 9, "velocity": 90}, {"time": 5252, "pitch": 55, "duration": 15, "velocity": 88}, {"time": 5258, "pitch": 62, "duration": 6, "velocity": 93}, {"time": 5264, "pitch": 48, "duration": 24, "velocity": 88}, {"time": 5270, "pitch": 55, "duration": 17, "velocity": 90}, {"time": 5276, "pitch": 63, "duration": 10, "velocity": 127}, {"time": 5282, "pitch": 60, "duration": 6, "velocity": 96}, {"time": 5288, "pitch": 41, "duration": 35, "velocity": 69}, {"time": 5294, "pitch": 48, "duration": 21, "velocity": 64}, {"time": 5297, "pitch": 53, "duration": 8, "velocity": 83}, {"time": 5306, "pitch": 56, "duration": 5, "velocity": 86}, {"time": 5312, "pitch": 60, "duration": 24, "velocity": 95}, {"time": 5318, "pitch": 48, "duration": 6, "velocity": 62}, {"time": 5324, "pitch": 56, "duration": 12, "velocity": 92}, {"time": 5330, "pitch": 53, "duration": 6, "velocity": 76}, {"time": 5336, "pitch": 46, "duration": 22, "velocity": 95}, {"time": 5342, "pitch": 58, "duration": 9, "velocity": 88}, {"time": 5348, "pitch": 62, "duration": 5, "velocity": 67}, {"time": 5360, "pitch": 46, "duration": 4, "velocity": 86}, {"time": 5360, "pitch": 58, "duration": 4, "velocity": 102}, {"time": 5360, "pitch": 62, "duration": 3, "velocity": 86}, {"time": 5360, "pitch": 65, "duration": 4, "velocity": 85}, {"time": 5366, "pitch": 46, "duration": 4, "velocity": 78}, {"time": 5366, "pitch": 58, "duration": 4, "velocity": 97}, {"time": 5366, "pitch": 62, "duration": 4, "velocity": 88}, {"time": 5366, "pitch": 65, "duration": 4, "velocity": 82}, {"time": 5384, "pitch": 39, "duration": 39, "velocity": 93}, {"time": 5387, "pitch": 51, "duration": 22, "velocity": 93}, {"time": 5393, "pitch": 63, "duration": 9, "velocity": 72}, {"time": 5402, "pitch": 70, "duration": 9, "velocity": 100}, {"time": 5408, "pitch": 63, "duration": 10, "velocity": 100}, {"time": 5411, "pitch": 51, "duration": 6, "velocity": 85}, {"time": 5417, "pitch": 63, "duration": 1, "velocity": 76}, {"time": 5426, "pitch": 62, "duration": 7, "velocity": 97}, {"time": 5432, "pitch": 36, "duration": 39, "velocity": 74}, {"time": 5438, "pitch": 43, "duration": 31, "velocity": 40}, {"time": 5444, "pitch": 48, "duration": 14, "velocity": 66}, {"time": 5450, "pitch": 55, "duration": 8, "velocity": 85}, {"time": 5456, "pitch": 60, "duration": 23, "velocity": 97}, {"time": 5456, "pitch": 63, "duration": 23, "velocity": 100}, {"time": 5462, "pitch": 48, "duration": 8, "velocity": 72}, {"time": 5468, "pitch": 55, "duration": 10, "velocity": 90}, {"time": 5473, "pitch": 41, "duration": 42, "velocity": 37}, {"time": 5475, "pitch": 48, "duration": 38, "velocity": 55}, {"time": 5476, "pitch": 53, "duration": 37, "velocity": 50}, {"time": 5477, "pitch": 60, "duration": 2, "velocity": 78}, {"time": 5478, "pitch": 65, "duration": 37, "velocity": 71}, {"time": 5480, "pitch": 68, "duration": 34, "velocity": 96}, {"time": 5547, "pitch": 46, "duration": 49, "velocity": 90}, {"time": 5556, "pitch": 53, "duration": 38, "velocity": 42}, {"time": 5564, "pitch": 58, "duration": 30, "velocity": 65}, {"time": 5573, "pitch": 62, "duration": 29, "velocity": 64}, {"time": 5582, "pitch": 65, "duration": 19, "velocity": 53}, {"time": 5582, "pitch": 70, "duration": 19, "velocity": 52}, {"time": 5628, "pitch": 39, "duration": 129, "velocity": 79}, {"time": 5634, "pitch": 46, "duration": 124, "velocity": 58}, {"time": 5640, "pitch": 51, "duration": 115, "velocity": 72}, {"time": 5647, "pitch": 55, "duration": 16, "velocity": 61}, {"time": 5654, "pitch": 58, "duration": 9, "velocity": 74}, {"time": 5661, "pitch": 63, "duration": 5, "velocity": 58}, {"time": 5668, "pitch": 67, "duration": 17, "velocity": 72}, {"time": 5676, "pitch": 70, "duration": 9, "velocity": 55}, {"time": 5684, "pitch": 75, "duration": 4, "velocity": 63}, {"time": 5697, "pitch": 79, "duration": 15, "velocity": 50}, {"time": 5710, "pitch": 82, "duration": 21, "velocity": 64}, {"time": 5760, "pitch": 39, "duration": 106, "velocity": 50}, {"time": 5761, "pitch": 51, "duration": 105, "velocity": 46}, {"time": 5762, "pitch": 46, "duration": 104, "velocity": 30}, {"time": 5763, "pitch": 55, "duration": 102, "velocity": 42}, {"time": 5764, "pitch": 58, "duration": 101, "velocity": 56}], "annotations": [{"time": 469, "annotation": {"number": 64, "value": 127}, "group": "control_change"}, {"time": 483, "annotation": {"number": 64, "value": 0}, "group": "control_change"}, {"time": 488, "annotation": {"number": 64, "value": 127}, "group": "control_change"}, {"time": 508, "annotation": {"number": 64, "value": 0}, "group": "control_change"}, {"time": 514, "annotation": {"number": 64, "value": 127}, "group": "control_change"}, {"time": 531, "annotation": {"number": 64, "value": 0}, "group": "control_change"}, {"time": 537, "annotation": {"number": 64, "value": 127}, "group": "control_change"}, {"time": 546, "annotation": {"number": 64, "value": 0}, "group": "control_change"}, {"time": 551, "annotation": {"number": 64, "value": 127}, "group": "control_change"}, {"time": 556, "annotation": {"number": 64, "value": 0}, "group": "control_change"}, {"time": 566, "annotation": {"number": 64, "value": 127}, "group": "control_change"}, {"time": 578, "annotation": {"number": 64, "value": 0}, "group": "control_change"}, {"time": 585, "annotation": {"number": 64, "value": 127}, "group": "control_change"}, {"time": 585, "annotation": {"number": 64, "value": 0}, "group": "control_change"}, {"time": 602, "annotation": {"number": 64, "value": 0}, "group": "control_change"}, {"time": 609, "annotation": {"number": 64, "value": 127}, "group": "control_change"}, {"time": 626, "annotation": {"number": 64, "value": 0}, "group": "control_change"}, {"time": 631, "annotation": {"number": 64, "value": 127}, "group": "control_change"}, {"time": 632, "annotation": {"number": 64, "value": 127}, "group": "control_change"}, {"time": 658, "annotation": {"number": 64, "value": 0}, "group": "control_change"}, {"time": 680, "annotation": {"number": 64, "value": 127}, "group": "control_change"}, {"time": 692, "annotation": {"number": 64, "value": 0}, "group": "control_change"}, {"time": 825, "annotation": {"number": 64, "value": 127}, "group": "control_change"}, {"time": 847, "annotation": {"number": 64, "value": 0}, "group": "control_change"}, {"time": 871, "annotation": {"number": 64, "value": 127}, "group": "control_change"}, {"time": 884, "annotation": {"number": 64, "value": 0}, "group": "control_change"}, {"time": 905, "annotation": {"number": 64, "value": 127}, "group": "control_change"}, {"time": 915, "annotation": {"number": 64, "value": 0}, "group": "control_change"}, {"time": 920, "annotation": {"number": 64, "value": 127}, "group": "control_change"}, {"time": 932, "annotation": {"number": 64, "value": 0}, "group": "control_change"}, {"time": 1639, "annotation": {"number": 64, "value": 127}, "group": "control_change"}, {"time": 1683, "annotation": {"number": 64, "value": 0}, "group": "control_change"}, {"time": 1689, "annotation": {"number": 64, "value": 127}, "group": "control_change"}, {"time": 1709, "annotation": {"number": 64, "value": 0}, "group": "control_change"}, {"time": 1736, "annotation": {"number": 64, "value": 127}, "group": "control_change"}, {"time": 1770, "annotation": {"number": 64, "value": 0}, "group": "control_change"}, {"time": 1786, "annotation": {"number": 64, "value": 127}, "group": "control_change"}, {"time": 1804, "annotation": {"number": 64, "value": 0}, "group": "control_change"}, {"time": 1832, "annotation": {"number": 64, "value": 127}, "group": "control_change"}, {"time": 1853, "annotation": {"number": 64, "value": 0}, "group": "control_change"}, {"time": 1880, "annotation": {"number": 64, "value": 127}, "group": "control_change"}, {"time": 1899, "annotation": {"number": 64, "value": 0}, "group": "control_change"}, {"time": 1927, "annotation": {"number": 64, "value": 127}, "group": "control_change"}, {"time": 1970, "annotation": {"number": 64, "value": 0}, "group": "control_change"}, {"time": 1977, "annotation": {"number": 64, "value": 127}, "group": "control_change"}, {"time": 2016, "annotation": {"number": 64, "value": 0}, "group": "control_change"}, {"time": 2024, "annotation": {"number": 64, "value": 127}, "group": "control_change"}, {"time": 2067, "annotation": {"number": 64, "value": 0}, "group": "control_change"}, {"time": 2072, "annotation": {"number": 64, "value": 127}, "group": "control_change"}, {"time": 2114, "annotation": {"number": 64, "value": 0}, "group": "control_change"}, {"time": 2120, "annotation": {"number": 64, "value": 127}, "group": "control_change"}, {"time": 2161, "annotation": {"number": 64, "value": 0}, "group": "control_change"}, {"time": 2168, "annotation": {"number": 64, "value": 127}, "group": "control_change"}, {"time": 2187, "annotation": {"number": 64, "value": 0}, "group": "control_change"}, {"time": 2192, "annotation": {"number": 64, "value": 127}, "group": "control_change"}, {"time": 2211, "annotation": {"number": 64, "value": 0}, "group": "control_change"}, {"time": 2217, "annotation": {"number": 64, "value": 127}, "group": "control_change"}, {"time": 2258, "annotation": {"number": 64, "value": 0}, "group": "control_change"}, {"time": 2264, "annotation": {"number": 64, "value": 127}, "group": "control_change"}, {"time": 2285, "annotation": {"number": 64, "value": 0}, "group": "control_change"}, {"time": 2311, "annotation": {"number": 64, "value": 127}, "group": "control_change"}, {"time": 2354, "annotation": {"number": 64, "value": 0}, "group": "control_change"}, {"time": 2361, "annotation": {"number": 64, "value": 127}, "group": "control_change"}, {"time": 2402, "annotation": {"number": 64, "value": 0}, "group": "control_change"}, {"time": 2629, "annotation": {"number": 64, "value": 127}, "group": "control_change"}, {"time": 2643, "annotation": {"number": 64, "value": 0}, "group": "control_change"}, {"time": 2648, "annotation": {"number": 64, "value": 127}, "group": "control_change"}, {"time": 2668, "annotation": {"number": 64, "value": 0}, "group": "control_change"}, {"time": 2674, "annotation": {"number": 64, "value": 127}, "group": "control_change"}, {"time": 2691, "annotation": {"number": 64, "value": 0}, "group": "control_change"}, {"time": 2697, "annotation": {"number": 64, "value": 127}, "group": "control_change"}, {"time": 2706, "annotation": {"number": 64, "value": 0}, "group": "control_change"}, {"time": 2711, "annotation": {"number": 64, "value": 127}, "group": "control_change"}, {"time": 2716, "annotation": {"number": 64, "value": 0}, "group": "control_change"}, {"time": 2726, "annotation": {"number": 64, "value": 127}, "group": "control_change"}, {"time": 2738, "annotation": {"number": 64, "value": 0}, "group": "control_change"}, {"time": 2745, "annotation": {"number": 64, "value": 127}, "group": "control_change"}, {"time": 2745, "annotation": {"number": 64, "value": 0}, "group": "control_change"}, {"time": 2762, "annotation": {"number": 64, "value": 0}, "group": "control_change"}, {"time": 2769, "annotation": {"number": 64, "value": 127}, "group": "control_change"}, {"time": 2786, "annotation": {"number": 64, "value": 0}, "group": "control_change"}, {"time": 2791, "annotation": {"number": 64, "value": 127}, "group": "control_change"}, {"time": 2792, "annotation": {"number": 64, "value": 127}, "group": "control_change"}, {"time": 2818, "annotation": {"number": 64, "value": 0}, "group": "control_change"}, {"time": 2840, "annotation": {"number": 64, "value": 127}, "group": "control_change"}, {"time": 2852, "annotation": {"number": 64, "value": 0}, "group": "control_change"}, {"time": 2985, "annotation": {"number": 64, "value": 127}, "group": "control_change"}, {"time": 3007, "annotation": {"number": 64, "value": 0}, "group": "control_change"}, {"time": 3031, "annotation": {"number": 64, "value": 127}, "group": "control_change"}, {"time": 3044, "annotation": {"number": 64, "value": 0}, "group": "control_change"}, {"time": 3065, "annotation": {"number": 64, "value": 127}, "group": "control_change"}, {"time": 3075, "annotation": {"number": 64, "value": 0}, "group": "control_change"}, {"time": 3080, "annotation": {"number": 64, "value": 127}, "group": "control_change"}, {"time": 3092, "annotation": {"number": 64, "value": 0}, "group": "control_change"}, {"time": 3799, "annotation": {"number": 64, "value": 127}, "group": "control_change"}, {"time": 3843, "annotation": {"number": 64, "value": 0}, "group": "control_change"}, {"time": 3849, "annotation": {"number": 64, "value": 127}, "group": "control_change"}, {"time": 3869, "annotation": {"number": 64, "value": 0}, "group": "control_change"}, {"time": 3896, "annotation": {"number": 64, "value": 127}, "group": "control_change"}, {"time": 3930, "annotation": {"number": 64, "value": 0}, "group": "control_change"}, {"time": 3946, "annotation": {"number": 64, "value": 127}, "group": "control_change"}, {"time": 3964, "annotation": {"number": 64, "value": 0}, "group": "control_change"}, {"time": 3992, "annotation": {"number": 64, "value": 127}, "group": "control_change"}, {"time": 4013, "annotation": {"number": 64, "value": 0}, "group": "control_change"}, {"time": 4040, "annotation": {"number": 64, "value": 127}, "group": "control_change"}, {"time": 4059, "annotation": {"number": 64, "value": 0}, "group": "control_change"}, {"time": 4087, "annotation": {"number": 64, "value": 127}, "group": "control_change"}, {"time": 4130, "annotation": {"number": 64, "value": 0}, "group": "control_change"}, {"time": 4137, "annotation": {"number": 64, "value": 127}, "group": "control_change"}, {"time": 4176, "annotation": {"number": 64, "value": 0}, "group": "control_change"}, {"time": 4184, "annotation": {"number": 64, "value": 127}, "group": "control_change"}, {"time": 4227, "annotation": {"number": 64, "value": 0}, "group": "control_change"}, {"time": 4232, "annotation": {"number": 64, "value": 127}, "group": "control_change"}, {"time": 4274, "annotation": {"number": 64, "value": 0}, "group": "control_change"}, {"time": 4280, "annotation": {"number": 64, "value": 127}, "group": "control_change"}, {"time": 4321, "annotation": {"number": 64, "value": 0}, "group": "control_change"}, {"time": 4328, "annotation": {"number": 64, "value": 127}, "group": "control_change"}, {"time": 4347, "annotation": {"number": 64, "value": 0}, "group": "control_change"}, {"time": 4352, "annotation": {"number": 64, "value": 127}, "group": "control_change"}, {"time": 4371, "annotation": {"number": 64, "value": 0}, "group": "control_change"}, {"time": 4377, "annotation": {"number": 64, "value": 127}, "group": "control_change"}, {"time": 4418, "annotation": {"number": 64, "value": 0}, "group": "control_change"}, {"time": 4424, "annotation": {"number": 64, "value": 127}, "group": "control_change"}, {"time": 4445, "annotation": {"number": 64, "value": 0}, "group": "control_change"}, {"time": 4471, "annotation": {"number": 64, "value": 127}, "group": "control_change"}, {"time": 4514, "annotation": {"number": 64, "value": 0}, "group": "control_change"}, {"time": 4521, "annotation": {"number": 64, "value": 127}, "group": "control_change"}, {"time": 4562, "annotation": {"number": 64, "value": 0}, "group": "control_change"}, {"time": 4659, "annotation": {"number": 64, "value": 0}, "group": "control_change"}, {"time": 4665, "annotation": {"number": 64, "value": 127}, "group": "control_change"}, {"time": 4685, "annotation": {"number": 64, "value": 0}, "group": "control_change"}, {"time": 4712, "annotation": {"number": 64, "value": 127}, "group": "control_change"}, {"time": 4746, "annotation": {"number": 64, "value": 0}, "group": "control_change"}, {"time": 4762, "annotation": {"number": 64, "value": 127}, "group": "control_change"}, {"time": 4780, "annotation": {"number": 64, "value": 0}, "group": "control_change"}, {"time": 4808, "annotation": {"number": 64, "value": 127}, "group": "control_change"}, {"time": 4829, "annotation": {"number": 64, "value": 0}, "group": "control_change"}, {"time": 4856, "annotation": {"number": 64, "value": 127}, "group": "control_change"}, {"time": 4875, "annotation": {"number": 64, "value": 0}, "group": "control_change"}, {"time": 4903, "annotation": {"number": 64, "value": 127}, "group": "control_change"}, {"time": 4946, "annotation": {"number": 64, "value": 0}, "group": "control_change"}, {"time": 4953, "annotation": {"number": 64, "value": 127}, "group": "control_change"}, {"time": 4992, "annotation": {"number": 64, "value": 0}, "group": "control_change"}, {"time": 5000, "annotation": {"number": 64, "value": 127}, "group": "control_change"}, {"time": 5043, "annotation": {"number": 64, "value": 0}, "group": "control_change"}, {"time": 5048, "annotation": {"number": 64, "value": 127}, "group": "control_change"}, {"time": 5090, "annotation": {"number": 64, "value": 0}, "group": "control_change"}, {"time": 5096, "annotation": {"number": 64, "value": 127}, "group": "control_change"}, {"time": 5137, "annotation": {"number": 64, "value": 0}, "group": "control_change"}, {"time": 5144, "annotation": {"number": 64, "value": 127}, "group": "control_change"}, {"time": 5163, "annotation": {"number": 64, "value": 0}, "group": "control_change"}, {"time": 5168, "annotation": {"number": 64, "value": 127}, "group": "control_change"}, {"time": 5187, "annotation": {"number": 64, "value": 0}, "group": "control_change"}, {"time": 5193, "annotation": {"number": 64, "value": 127}, "group": "control_change"}, {"time": 5234, "annotation": {"number": 64, "value": 0}, "group": "control_change"}, {"time": 5240, "annotation": {"number": 64, "value": 127}, "group": "control_change"}, {"time": 5261, "annotation": {"number": 64, "value": 0}, "group": "control_change"}, {"time": 5287, "annotation": {"number": 64, "value": 127}, "group": "control_change"}, {"time": 5330, "annotation": {"number": 64, "value": 0}, "group": "control_change"}, {"time": 5485, "annotation": {"number": 64, "value": 127}, "group": "control_change"}, {"time": 5547, "annotation": {"number": 64, "value": 0}, "group": "control_change"}, {"time": 5551, "annotation": {"number": 64, "value": 127}, "group": "control_change"}, {"time": 5904, "annotation": {"number": 64, "value": 0}, "group": "control_change"}, {"time": 5907, "annotation": {"number": 64, "value": 127}, "group": "control_change"}, {"time": 5908, "annotation": {"number": 64, "value": 0}, "group": "control_change"}, {"time": 5910, "annotation": {"number": 64, "value": 127}, "group": "control_change"}, {"time": 5912, "annotation": {"number": 64, "value": 0}, "group": "control_change"}]}]}