{"metadata": {"schema_version": "0.2", "title": "None", "source_filename": "802.mid", "source_format": "midi"}, "resolution": 12, "tempos": [{"time": 0, "qpm": 52.019979139988365}], "time_signatures": [{"time": 0, "numerator": 1, "denominator": 4}], "tracks": [{"program": 0, "is_drum": false, "name": "MELODY", "notes": [{"time": 121, "pitch": 71, "duration": 9, "velocity": 95}, {"time": 130, "pitch": 68, "duration": 16, "velocity": 73}, {"time": 148, "pitch": 68, "duration": 1, "velocity": 60}, {"time": 151, "pitch": 68, "duration": 1, "velocity": 77}, {"time": 154, "pitch": 66, "duration": 2, "velocity": 82}, {"time": 157, "pitch": 68, "duration": 3, "velocity": 91}, {"time": 163, "pitch": 71, "duration": 4, "velocity": 75}, {"time": 169, "pitch": 71, "duration": 9, "velocity": 79}, {"time": 178, "pitch": 68, "duration": 11, "velocity": 71}, {"time": 196, "pitch": 68, "duration": 1, "velocity": 85}, {"time": 199, "pitch": 68, "duration": 2, "velocity": 85}, {"time": 202, "pitch": 66, "duration": 2, "velocity": 71}, {"time": 205, "pitch": 68, "duration": 6, "velocity": 88}, {"time": 211, "pitch": 64, "duration": 5, "velocity": 71}, {"time": 217, "pitch": 73, "duration": 9, "velocity": 88}, {"time": 226, "pitch": 69, "duration": 14, "velocity": 91}, {"time": 244, "pitch": 69, "duration": 1, "velocity": 95}, {"time": 247, "pitch": 69, "duration": 2, "velocity": 103}, {"time": 250, "pitch": 68, "duration": 1, "velocity": 88}, {"time": 253, "pitch": 69, "duration": 4, "velocity": 109}, {"time": 256, "pitch": 71, "duration": 8, "velocity": 79}, {"time": 265, "pitch": 66, "duration": 3, "velocity": 76}, {"time": 268, "pitch": 68, "duration": 16, "velocity": 60}, {"time": 313, "pitch": 71, "duration": 9, "velocity": 106}, {"time": 322, "pitch": 68, "duration": 15, "velocity": 106}, {"time": 340, "pitch": 68, "duration": 1, "velocity": 85}, {"time": 343, "pitch": 68, "duration": 2, "velocity": 98}, {"time": 346, "pitch": 66, "duration": 2, "velocity": 76}, {"time": 349, "pitch": 68, "duration": 6, "velocity": 106}, {"time": 355, "pitch": 71, "duration": 4, "velocity": 98}, {"time": 361, "pitch": 71, "duration": 9, "velocity": 109}, {"time": 370, "pitch": 68, "duration": 15, "velocity": 111}, {"time": 388, "pitch": 68, "duration": 1, "velocity": 109}, {"time": 391, "pitch": 68, "duration": 1, "velocity": 100}, {"time": 394, "pitch": 66, "duration": 2, "velocity": 82}, {"time": 397, "pitch": 68, "duration": 5, "velocity": 109}, {"time": 403, "pitch": 64, "duration": 5, "velocity": 98}, {"time": 409, "pitch": 73, "duration": 9, "velocity": 113}, {"time": 418, "pitch": 69, "duration": 15, "velocity": 109}, {"time": 436, "pitch": 69, "duration": 2, "velocity": 103}, {"time": 439, "pitch": 68, "duration": 1, "velocity": 79}, {"time": 442, "pitch": 69, "duration": 1, "velocity": 106}, {"time": 445, "pitch": 69, "duration": 4, "velocity": 113}, {"time": 448, "pitch": 68, "duration": 4, "velocity": 85}, {"time": 454, "pitch": 66, "duration": 3, "velocity": 77}, {"time": 457, "pitch": 64, "duration": 16, "velocity": 95}, {"time": 457, "pitch": 66, "duration": 1, "velocity": 58}, {"time": 493, "pitch": 76, "duration": 5, "velocity": 115}, {"time": 499, "pitch": 75, "duration": 5, "velocity": 109}, {"time": 505, "pitch": 76, "duration": 8, "velocity": 111}, {"time": 514, "pitch": 76, "duration": 1, "velocity": 109}, {"time": 517, "pitch": 76, "duration": 1, "velocity": 115}, {"time": 520, "pitch": 76, "duration": 1, "velocity": 106}, {"time": 523, "pitch": 76, "duration": 2, "velocity": 109}, {"time": 526, "pitch": 78, "duration": 2, "velocity": 113}, {"time": 529, "pitch": 78, "duration": 9, "velocity": 115}, {"time": 541, "pitch": 75, "duration": 4, "velocity": 113}, {"time": 547, "pitch": 73, "duration": 5, "velocity": 109}, {"time": 553, "pitch": 75, "duration": 7, "velocity": 117}, {"time": 562, "pitch": 75, "duration": 1, "velocity": 100}, {"time": 565, "pitch": 75, "duration": 2, "velocity": 120}, {"time": 568, "pitch": 71, "duration": 2, "velocity": 85}, {"time": 571, "pitch": 75, "duration": 2, "velocity": 109}, {"time": 574, "pitch": 76, "duration": 2, "velocity": 109}, {"time": 577, "pitch": 76, "duration": 12, "velocity": 117}, {"time": 586, "pitch": 71, "duration": 1, "velocity": 95}, {"time": 589, "pitch": 80, "duration": 3, "velocity": 111}, {"time": 592, "pitch": 78, "duration": 4, "velocity": 111}, {"time": 598, "pitch": 76, "duration": 3, "velocity": 100}, {"time": 601, "pitch": 78, "duration": 3, "velocity": 113}, {"time": 604, "pitch": 73, "duration": 6, "velocity": 98}, {"time": 610, "pitch": 71, "duration": 2, "velocity": 95}, {"time": 613, "pitch": 80, "duration": 3, "velocity": 117}, {"time": 616, "pitch": 81, "duration": 4, "velocity": 106}, {"time": 622, "pitch": 80, "duration": 3, "velocity": 109}, {"time": 625, "pitch": 76, "duration": 2, "velocity": 113}, {"time": 628, "pitch": 76, "duration": 13, "velocity": 111}, {"time": 643, "pitch": 78, "duration": 5, "velocity": 117}, {"time": 649, "pitch": 78, "duration": 27, "velocity": 113}, {"time": 682, "pitch": 71, "duration": 2, "velocity": 106}, {"time": 685, "pitch": 81, "duration": 2, "velocity": 106}, {"time": 688, "pitch": 80, "duration": 1, "velocity": 85}, {"time": 691, "pitch": 80, "duration": 3, "velocity": 79}, {"time": 694, "pitch": 78, "duration": 1, "velocity": 71}, {"time": 697, "pitch": 78, "duration": 3, "velocity": 106}, {"time": 700, "pitch": 80, "duration": 6, "velocity": 103}, {"time": 706, "pitch": 71, "duration": 2, "velocity": 91}, {"time": 709, "pitch": 80, "duration": 2, "velocity": 115}, {"time": 712, "pitch": 78, "duration": 1, "velocity": 106}, {"time": 715, "pitch": 78, "duration": 2, "velocity": 109}, {"time": 718, "pitch": 76, "duration": 1, "velocity": 109}, {"time": 721, "pitch": 76, "duration": 2, "velocity": 115}, {"time": 724, "pitch": 78, "duration": 8, "velocity": 113}, {"time": 730, "pitch": 71, "duration": 2, "velocity": 103}, {"time": 733, "pitch": 80, "duration": 2, "velocity": 117}, {"time": 736, "pitch": 78, "duration": 1, "velocity": 111}, {"time": 739, "pitch": 78, "duration": 2, "velocity": 113}, {"time": 742, "pitch": 76, "duration": 1, "velocity": 100}, {"time": 742, "pitch": 76, "duration": 2, "velocity": 100}, {"time": 745, "pitch": 78, "duration": 3, "velocity": 117}, {"time": 748, "pitch": 76, "duration": 6, "velocity": 113}, {"time": 754, "pitch": 76, "duration": 1, "velocity": 106}, {"time": 757, "pitch": 78, "duration": 2, "velocity": 113}, {"time": 760, "pitch": 76, "duration": 3, "velocity": 91}, {"time": 763, "pitch": 78, "duration": 2, "velocity": 109}, {"time": 766, "pitch": 76, "duration": 2, "velocity": 106}, {"time": 769, "pitch": 78, "duration": 2, "velocity": 120}, {"time": 772, "pitch": 80, "duration": 5, "velocity": 113}, {"time": 778, "pitch": 80, "duration": 1, "velocity": 120}, {"time": 781, "pitch": 80, "duration": 2, "velocity": 113}, {"time": 784, "pitch": 78, "duration": 1, "velocity": 106}, {"time": 787, "pitch": 78, "duration": 2, "velocity": 111}, {"time": 790, "pitch": 76, "duration": 2, "velocity": 103}, {"time": 793, "pitch": 78, "duration": 2, "velocity": 115}, {"time": 796, "pitch": 76, "duration": 6, "velocity": 109}, {"time": 802, "pitch": 76, "duration": 1, "velocity": 115}, {"time": 805, "pitch": 76, "duration": 2, "velocity": 115}, {"time": 808, "pitch": 75, "duration": 1, "velocity": 103}, {"time": 811, "pitch": 75, "duration": 3, "velocity": 111}, {"time": 814, "pitch": 71, "duration": 2, "velocity": 100}, {"time": 817, "pitch": 78, "duration": 2, "velocity": 120}, {"time": 820, "pitch": 80, "duration": 5, "velocity": 109}, {"time": 826, "pitch": 80, "duration": 1, "velocity": 115}, {"time": 829, "pitch": 80, "duration": 2, "velocity": 115}, {"time": 832, "pitch": 78, "duration": 1, "velocity": 109}, {"time": 835, "pitch": 78, "duration": 3, "velocity": 100}, {"time": 838, "pitch": 76, "duration": 1, "velocity": 72}, {"time": 838, "pitch": 76, "duration": 1, "velocity": 111}, {"time": 841, "pitch": 78, "duration": 1, "velocity": 109}, {"time": 844, "pitch": 76, "duration": 1, "velocity": 106}, {"time": 847, "pitch": 76, "duration": 2, "velocity": 106}, {"time": 850, "pitch": 73, "duration": 2, "velocity": 103}, {"time": 853, "pitch": 76, "duration": 2, "velocity": 115}, {"time": 856, "pitch": 80, "duration": 1, "velocity": 109}, {"time": 859, "pitch": 80, "duration": 2, "velocity": 106}, {"time": 862, "pitch": 76, "duration": 2, "velocity": 109}, {"time": 865, "pitch": 78, "duration": 9, "velocity": 117}, {"time": 874, "pitch": 71, "duration": 2, "velocity": 103}, {"time": 877, "pitch": 81, "duration": 2, "velocity": 115}, {"time": 880, "pitch": 80, "duration": 1, "velocity": 113}, {"time": 883, "pitch": 80, "duration": 2, "velocity": 113}, {"time": 886, "pitch": 78, "duration": 1, "velocity": 115}, {"time": 889, "pitch": 78, "duration": 2, "velocity": 117}, {"time": 892, "pitch": 80, "duration": 5, "velocity": 115}, {"time": 898, "pitch": 71, "duration": 2, "velocity": 109}, {"time": 901, "pitch": 80, "duration": 2, "velocity": 120}, {"time": 904, "pitch": 78, "duration": 1, "velocity": 98}, {"time": 907, "pitch": 78, "duration": 2, "velocity": 111}, {"time": 910, "pitch": 76, "duration": 1, "velocity": 113}, {"time": 913, "pitch": 76, "duration": 3, "velocity": 115}, {"time": 916, "pitch": 78, "duration": 5, "velocity": 115}, {"time": 922, "pitch": 71, "duration": 2, "velocity": 106}, {"time": 925, "pitch": 80, "duration": 2, "velocity": 115}, {"time": 928, "pitch": 78, "duration": 1, "velocity": 111}, {"time": 931, "pitch": 78, "duration": 2, "velocity": 113}, {"time": 934, "pitch": 76, "duration": 1, "velocity": 106}, {"time": 937, "pitch": 78, "duration": 3, "velocity": 120}, {"time": 940, "pitch": 76, "duration": 5, "velocity": 113}, {"time": 946, "pitch": 76, "duration": 2, "velocity": 111}, {"time": 949, "pitch": 78, "duration": 2, "velocity": 115}, {"time": 952, "pitch": 76, "duration": 1, "velocity": 111}, {"time": 955, "pitch": 78, "duration": 1, "velocity": 111}, {"time": 958, "pitch": 76, "duration": 1, "velocity": 111}, {"time": 961, "pitch": 78, "duration": 2, "velocity": 117}, {"time": 964, "pitch": 80, "duration": 5, "velocity": 111}, {"time": 970, "pitch": 80, "duration": 1, "velocity": 115}, {"time": 973, "pitch": 80, "duration": 2, "velocity": 113}, {"time": 976, "pitch": 78, "duration": 1, "velocity": 109}, {"time": 979, "pitch": 78, "duration": 2, "velocity": 109}, {"time": 982, "pitch": 76, "duration": 1, "velocity": 111}, {"time": 985, "pitch": 78, "duration": 2, "velocity": 117}, {"time": 988, "pitch": 76, "duration": 5, "velocity": 113}, {"time": 994, "pitch": 76, "duration": 1, "velocity": 117}, {"time": 997, "pitch": 76, "duration": 2, "velocity": 117}, {"time": 1000, "pitch": 75, "duration": 1, "velocity": 106}, {"time": 1003, "pitch": 75, "duration": 3, "velocity": 109}, {"time": 1006, "pitch": 71, "duration": 2, "velocity": 100}, {"time": 1009, "pitch": 78, "duration": 2, "velocity": 117}, {"time": 1012, "pitch": 80, "duration": 6, "velocity": 111}, {"time": 1018, "pitch": 80, "duration": 1, "velocity": 117}, {"time": 1021, "pitch": 80, "duration": 2, "velocity": 115}, {"time": 1024, "pitch": 78, "duration": 1, "velocity": 100}, {"time": 1027, "pitch": 78, "duration": 2, "velocity": 106}, {"time": 1030, "pitch": 76, "duration": 1, "velocity": 106}, {"time": 1033, "pitch": 78, "duration": 3, "velocity": 113}, {"time": 1036, "pitch": 76, "duration": 3, "velocity": 106}, {"time": 1042, "pitch": 76, "duration": 4, "velocity": 113}, {"time": 1045, "pitch": 73, "duration": 7, "velocity": 115}, {"time": 1054, "pitch": 71, "duration": 2, "velocity": 98}, {"time": 1057, "pitch": 80, "duration": 5, "velocity": 113}, {"time": 1063, "pitch": 78, "duration": 2, "velocity": 115}, {"time": 1066, "pitch": 76, "duration": 9, "velocity": 117}, {"time": 1075, "pitch": 75, "duration": 2, "velocity": 111}, {"time": 1078, "pitch": 76, "duration": 20, "velocity": 115}, {"time": 1321, "pitch": 71, "duration": 9, "velocity": 106}, {"time": 1330, "pitch": 68, "duration": 15, "velocity": 106}, {"time": 1348, "pitch": 68, "duration": 1, "velocity": 85}, {"time": 1351, "pitch": 68, "duration": 2, "velocity": 98}, {"time": 1354, "pitch": 66, "duration": 2, "velocity": 76}, {"time": 1357, "pitch": 68, "duration": 6, "velocity": 106}, {"time": 1363, "pitch": 71, "duration": 4, "velocity": 98}, {"time": 1369, "pitch": 71, "duration": 9, "velocity": 109}, {"time": 1378, "pitch": 68, "duration": 15, "velocity": 111}, {"time": 1396, "pitch": 68, "duration": 1, "velocity": 109}, {"time": 1399, "pitch": 68, "duration": 1, "velocity": 100}, {"time": 1402, "pitch": 66, "duration": 2, "velocity": 82}, {"time": 1405, "pitch": 68, "duration": 5, "velocity": 109}, {"time": 1411, "pitch": 64, "duration": 5, "velocity": 98}, {"time": 1417, "pitch": 73, "duration": 9, "velocity": 113}, {"time": 1426, "pitch": 69, "duration": 15, "velocity": 109}, {"time": 1444, "pitch": 69, "duration": 2, "velocity": 103}, {"time": 1447, "pitch": 68, "duration": 1, "velocity": 79}, {"time": 1450, "pitch": 69, "duration": 1, "velocity": 106}, {"time": 1453, "pitch": 69, "duration": 4, "velocity": 113}, {"time": 1456, "pitch": 68, "duration": 4, "velocity": 85}, {"time": 1462, "pitch": 66, "duration": 3, "velocity": 77}, {"time": 1465, "pitch": 64, "duration": 16, "velocity": 95}, {"time": 1465, "pitch": 66, "duration": 1, "velocity": 58}, {"time": 1501, "pitch": 76, "duration": 5, "velocity": 115}, {"time": 1507, "pitch": 75, "duration": 5, "velocity": 109}, {"time": 1513, "pitch": 76, "duration": 8, "velocity": 111}, {"time": 1522, "pitch": 76, "duration": 1, "velocity": 109}, {"time": 1525, "pitch": 76, "duration": 1, "velocity": 115}, {"time": 1528, "pitch": 76, "duration": 1, "velocity": 106}, {"time": 1531, "pitch": 76, "duration": 2, "velocity": 109}, {"time": 1534, "pitch": 78, "duration": 2, "velocity": 113}, {"time": 1537, "pitch": 78, "duration": 9, "velocity": 115}, {"time": 1549, "pitch": 75, "duration": 4, "velocity": 113}, {"time": 1555, "pitch": 73, "duration": 5, "velocity": 109}, {"time": 1561, "pitch": 75, "duration": 7, "velocity": 117}, {"time": 1570, "pitch": 75, "duration": 1, "velocity": 100}, {"time": 1573, "pitch": 75, "duration": 2, "velocity": 120}, {"time": 1576, "pitch": 71, "duration": 2, "velocity": 85}, {"time": 1579, "pitch": 75, "duration": 2, "velocity": 109}, {"time": 1582, "pitch": 76, "duration": 2, "velocity": 109}, {"time": 1585, "pitch": 76, "duration": 12, "velocity": 117}, {"time": 1594, "pitch": 71, "duration": 1, "velocity": 95}, {"time": 1597, "pitch": 80, "duration": 3, "velocity": 111}, {"time": 1600, "pitch": 78, "duration": 4, "velocity": 111}, {"time": 1606, "pitch": 76, "duration": 3, "velocity": 100}, {"time": 1609, "pitch": 78, "duration": 3, "velocity": 113}, {"time": 1612, "pitch": 73, "duration": 6, "velocity": 98}, {"time": 1618, "pitch": 71, "duration": 2, "velocity": 106}, {"time": 1621, "pitch": 80, "duration": 2, "velocity": 106}, {"time": 1624, "pitch": 78, "duration": 5, "velocity": 115}, {"time": 1630, "pitch": 76, "duration": 1, "velocity": 103}, {"time": 1633, "pitch": 76, "duration": 3, "velocity": 111}, {"time": 1636, "pitch": 73, "duration": 10, "velocity": 113}, {"time": 1651, "pitch": 78, "duration": 5, "velocity": 117}, {"time": 1657, "pitch": 78, "duration": 27, "velocity": 113}, {"time": 1690, "pitch": 71, "duration": 2, "velocity": 106}, {"time": 1693, "pitch": 81, "duration": 2, "velocity": 106}, {"time": 1696, "pitch": 80, "duration": 1, "velocity": 85}, {"time": 1699, "pitch": 80, "duration": 3, "velocity": 79}, {"time": 1702, "pitch": 78, "duration": 1, "velocity": 71}, {"time": 1705, "pitch": 78, "duration": 3, "velocity": 106}, {"time": 1708, "pitch": 80, "duration": 6, "velocity": 103}, {"time": 1714, "pitch": 71, "duration": 2, "velocity": 91}, {"time": 1717, "pitch": 80, "duration": 2, "velocity": 115}, {"time": 1720, "pitch": 78, "duration": 1, "velocity": 106}, {"time": 1723, "pitch": 78, "duration": 2, "velocity": 109}, {"time": 1726, "pitch": 76, "duration": 1, "velocity": 109}, {"time": 1729, "pitch": 76, "duration": 2, "velocity": 115}, {"time": 1732, "pitch": 78, "duration": 8, "velocity": 113}, {"time": 1738, "pitch": 71, "duration": 2, "velocity": 103}, {"time": 1741, "pitch": 80, "duration": 2, "velocity": 117}, {"time": 1744, "pitch": 78, "duration": 1, "velocity": 111}, {"time": 1747, "pitch": 78, "duration": 2, "velocity": 113}, {"time": 1750, "pitch": 76, "duration": 1, "velocity": 100}, {"time": 1750, "pitch": 76, "duration": 2, "velocity": 100}, {"time": 1753, "pitch": 78, "duration": 3, "velocity": 117}, {"time": 1756, "pitch": 76, "duration": 6, "velocity": 113}, {"time": 1762, "pitch": 76, "duration": 1, "velocity": 106}, {"time": 1765, "pitch": 78, "duration": 2, "velocity": 113}, {"time": 1768, "pitch": 76, "duration": 3, "velocity": 91}, {"time": 1771, "pitch": 78, "duration": 2, "velocity": 109}, {"time": 1774, "pitch": 76, "duration": 2, "velocity": 106}, {"time": 1777, "pitch": 78, "duration": 2, "velocity": 120}, {"time": 1780, "pitch": 80, "duration": 5, "velocity": 113}, {"time": 1786, "pitch": 80, "duration": 1, "velocity": 120}, {"time": 1789, "pitch": 80, "duration": 2, "velocity": 113}, {"time": 1792, "pitch": 78, "duration": 1, "velocity": 106}, {"time": 1795, "pitch": 78, "duration": 2, "velocity": 111}, {"time": 1798, "pitch": 76, "duration": 2, "velocity": 103}, {"time": 1801, "pitch": 78, "duration": 2, "velocity": 115}, {"time": 1804, "pitch": 76, "duration": 6, "velocity": 109}, {"time": 1810, "pitch": 76, "duration": 1, "velocity": 115}, {"time": 1813, "pitch": 76, "duration": 2, "velocity": 115}, {"time": 1816, "pitch": 75, "duration": 1, "velocity": 103}, {"time": 1819, "pitch": 75, "duration": 3, "velocity": 111}, {"time": 1822, "pitch": 71, "duration": 2, "velocity": 100}, {"time": 1825, "pitch": 78, "duration": 2, "velocity": 120}, {"time": 1828, "pitch": 80, "duration": 5, "velocity": 109}, {"time": 1834, "pitch": 80, "duration": 1, "velocity": 115}, {"time": 1837, "pitch": 80, "duration": 2, "velocity": 115}, {"time": 1840, "pitch": 78, "duration": 1, "velocity": 109}, {"time": 1843, "pitch": 78, "duration": 3, "velocity": 100}, {"time": 1846, "pitch": 76, "duration": 1, "velocity": 72}, {"time": 1846, "pitch": 76, "duration": 1, "velocity": 111}, {"time": 1849, "pitch": 78, "duration": 1, "velocity": 109}, {"time": 1852, "pitch": 76, "duration": 1, "velocity": 106}, {"time": 1855, "pitch": 76, "duration": 2, "velocity": 106}, {"time": 1858, "pitch": 73, "duration": 2, "velocity": 103}, {"time": 1861, "pitch": 76, "duration": 2, "velocity": 115}, {"time": 1864, "pitch": 80, "duration": 1, "velocity": 109}, {"time": 1867, "pitch": 80, "duration": 2, "velocity": 106}, {"time": 1870, "pitch": 76, "duration": 2, "velocity": 109}, {"time": 1873, "pitch": 78, "duration": 9, "velocity": 117}, {"time": 1882, "pitch": 71, "duration": 2, "velocity": 103}, {"time": 1885, "pitch": 81, "duration": 2, "velocity": 115}, {"time": 1888, "pitch": 80, "duration": 1, "velocity": 113}, {"time": 1891, "pitch": 80, "duration": 2, "velocity": 113}, {"time": 1894, "pitch": 78, "duration": 1, "velocity": 115}, {"time": 1897, "pitch": 78, "duration": 2, "velocity": 117}, {"time": 1900, "pitch": 80, "duration": 5, "velocity": 115}, {"time": 1906, "pitch": 71, "duration": 2, "velocity": 109}, {"time": 1909, "pitch": 80, "duration": 2, "velocity": 120}, {"time": 1912, "pitch": 78, "duration": 1, "velocity": 98}, {"time": 1915, "pitch": 78, "duration": 2, "velocity": 111}, {"time": 1918, "pitch": 76, "duration": 1, "velocity": 113}, {"time": 1921, "pitch": 76, "duration": 3, "velocity": 115}, {"time": 1924, "pitch": 78, "duration": 5, "velocity": 115}, {"time": 1930, "pitch": 71, "duration": 2, "velocity": 106}, {"time": 1933, "pitch": 80, "duration": 2, "velocity": 115}, {"time": 1936, "pitch": 78, "duration": 1, "velocity": 111}, {"time": 1939, "pitch": 78, "duration": 2, "velocity": 113}, {"time": 1942, "pitch": 76, "duration": 1, "velocity": 106}, {"time": 1945, "pitch": 78, "duration": 3, "velocity": 120}, {"time": 1948, "pitch": 76, "duration": 5, "velocity": 113}, {"time": 1954, "pitch": 76, "duration": 2, "velocity": 111}, {"time": 1957, "pitch": 78, "duration": 2, "velocity": 115}, {"time": 1960, "pitch": 76, "duration": 1, "velocity": 111}, {"time": 1963, "pitch": 78, "duration": 1, "velocity": 111}, {"time": 1966, "pitch": 76, "duration": 1, "velocity": 111}, {"time": 1969, "pitch": 78, "duration": 2, "velocity": 117}, {"time": 1972, "pitch": 80, "duration": 5, "velocity": 111}, {"time": 1978, "pitch": 80, "duration": 1, "velocity": 115}, {"time": 1981, "pitch": 80, "duration": 2, "velocity": 113}, {"time": 1984, "pitch": 78, "duration": 1, "velocity": 109}, {"time": 1987, "pitch": 78, "duration": 2, "velocity": 109}, {"time": 1990, "pitch": 76, "duration": 1, "velocity": 111}, {"time": 1993, "pitch": 78, "duration": 2, "velocity": 117}, {"time": 1996, "pitch": 76, "duration": 5, "velocity": 113}, {"time": 2002, "pitch": 76, "duration": 1, "velocity": 117}, {"time": 2005, "pitch": 76, "duration": 2, "velocity": 117}, {"time": 2008, "pitch": 75, "duration": 1, "velocity": 106}, {"time": 2011, "pitch": 75, "duration": 3, "velocity": 109}, {"time": 2014, "pitch": 71, "duration": 2, "velocity": 100}, {"time": 2017, "pitch": 78, "duration": 2, "velocity": 117}, {"time": 2020, "pitch": 80, "duration": 6, "velocity": 111}, {"time": 2026, "pitch": 80, "duration": 1, "velocity": 117}, {"time": 2029, "pitch": 80, "duration": 2, "velocity": 115}, {"time": 2032, "pitch": 78, "duration": 1, "velocity": 100}, {"time": 2035, "pitch": 78, "duration": 2, "velocity": 106}, {"time": 2038, "pitch": 76, "duration": 1, "velocity": 106}, {"time": 2041, "pitch": 78, "duration": 3, "velocity": 113}, {"time": 2044, "pitch": 76, "duration": 3, "velocity": 106}, {"time": 2050, "pitch": 76, "duration": 4, "velocity": 113}, {"time": 2053, "pitch": 73, "duration": 7, "velocity": 115}, {"time": 2062, "pitch": 71, "duration": 2, "velocity": 98}, {"time": 2065, "pitch": 80, "duration": 5, "velocity": 113}, {"time": 2071, "pitch": 78, "duration": 2, "velocity": 115}, {"time": 2074, "pitch": 76, "duration": 9, "velocity": 117}, {"time": 2083, "pitch": 75, "duration": 2, "velocity": 111}, {"time": 2086, "pitch": 76, "duration": 12, "velocity": 115}, {"time": 2098, "pitch": 72, "duration": 3, "velocity": 113}, {"time": 2101, "pitch": 82, "duration": 2, "velocity": 117}, {"time": 2104, "pitch": 81, "duration": 1, "velocity": 117}, {"time": 2107, "pitch": 81, "duration": 3, "velocity": 111}, {"time": 2110, "pitch": 79, "duration": 1, "velocity": 115}, {"time": 2113, "pitch": 79, "duration": 2, "velocity": 117}, {"time": 2116, "pitch": 81, "duration": 4, "velocity": 115}, {"time": 2122, "pitch": 72, "duration": 2, "velocity": 113}, {"time": 2125, "pitch": 81, "duration": 2, "velocity": 113}, {"time": 2128, "pitch": 79, "duration": 1, "velocity": 109}, {"time": 2131, "pitch": 79, "duration": 2, "velocity": 113}, {"time": 2134, "pitch": 77, "duration": 1, "velocity": 117}, {"time": 2137, "pitch": 77, "duration": 2, "velocity": 117}, {"time": 2140, "pitch": 79, "duration": 5, "velocity": 117}, {"time": 2146, "pitch": 72, "duration": 2, "velocity": 106}, {"time": 2149, "pitch": 81, "duration": 2, "velocity": 117}, {"time": 2152, "pitch": 79, "duration": 1, "velocity": 113}, {"time": 2155, "pitch": 79, "duration": 2, "velocity": 113}, {"time": 2158, "pitch": 77, "duration": 2, "velocity": 113}, {"time": 2161, "pitch": 79, "duration": 2, "velocity": 120}, {"time": 2164, "pitch": 77, "duration": 5, "velocity": 115}, {"time": 2170, "pitch": 77, "duration": 2, "velocity": 117}, {"time": 2173, "pitch": 79, "duration": 2, "velocity": 120}, {"time": 2176, "pitch": 77, "duration": 1, "velocity": 106}, {"time": 2176, "pitch": 77, "duration": 2, "velocity": 106}, {"time": 2179, "pitch": 79, "duration": 2, "velocity": 115}, {"time": 2182, "pitch": 77, "duration": 2, "velocity": 106}, {"time": 2185, "pitch": 79, "duration": 2, "velocity": 117}, {"time": 2188, "pitch": 81, "duration": 4, "velocity": 111}, {"time": 2197, "pitch": 81, "duration": 3, "velocity": 117}, {"time": 2203, "pitch": 79, "duration": 3, "velocity": 109}, {"time": 2206, "pitch": 77, "duration": 3, "velocity": 109}, {"time": 2209, "pitch": 79, "duration": 4, "velocity": 115}, {"time": 2215, "pitch": 77, "duration": 3, "velocity": 115}, {"time": 2218, "pitch": 77, "duration": 1, "velocity": 117}, {"time": 2221, "pitch": 79, "duration": 2, "velocity": 117}, {"time": 2224, "pitch": 77, "duration": 1, "velocity": 109}, {"time": 2227, "pitch": 77, "duration": 3, "velocity": 115}, {"time": 2230, "pitch": 72, "duration": 2, "velocity": 100}, {"time": 2233, "pitch": 79, "duration": 3, "velocity": 123}, {"time": 2236, "pitch": 81, "duration": 4, "velocity": 113}, {"time": 2242, "pitch": 81, "duration": 1, "velocity": 115}, {"time": 2245, "pitch": 81, "duration": 2, "velocity": 117}, {"time": 2248, "pitch": 79, "duration": 1, "velocity": 109}, {"time": 2251, "pitch": 79, "duration": 3, "velocity": 111}, {"time": 2254, "pitch": 77, "duration": 2, "velocity": 113}, {"time": 2257, "pitch": 79, "duration": 2, "velocity": 120}, {"time": 2260, "pitch": 77, "duration": 1, "velocity": 113}, {"time": 2263, "pitch": 77, "duration": 3, "velocity": 113}, {"time": 2266, "pitch": 74, "duration": 2, "velocity": 106}, {"time": 2269, "pitch": 77, "duration": 2, "velocity": 115}, {"time": 2272, "pitch": 81, "duration": 2, "velocity": 113}, {"time": 2275, "pitch": 81, "duration": 3, "velocity": 115}, {"time": 2278, "pitch": 82, "duration": 6, "velocity": 109}, {"time": 2284, "pitch": 79, "duration": 8, "velocity": 120}, {"time": 2290, "pitch": 84, "duration": 1, "velocity": 120}, {"time": 2293, "pitch": 84, "duration": 2, "velocity": 113}, {"time": 2296, "pitch": 81, "duration": 1, "velocity": 103}, {"time": 2299, "pitch": 81, "duration": 2, "velocity": 113}, {"time": 2302, "pitch": 79, "duration": 1, "velocity": 115}, {"time": 2305, "pitch": 79, "duration": 3, "velocity": 115}, {"time": 2308, "pitch": 81, "duration": 5, "velocity": 115}, {"time": 2314, "pitch": 81, "duration": 1, "velocity": 115}, {"time": 2317, "pitch": 81, "duration": 2, "velocity": 115}, {"time": 2320, "pitch": 79, "duration": 1, "velocity": 103}, {"time": 2323, "pitch": 79, "duration": 3, "velocity": 109}, {"time": 2326, "pitch": 77, "duration": 2, "velocity": 98}, {"time": 2326, "pitch": 77, "duration": 3, "velocity": 98}, {"time": 2329, "pitch": 81, "duration": 3, "velocity": 117}, {"time": 2332, "pitch": 79, "duration": 6, "velocity": 111}, {"time": 2338, "pitch": 79, "duration": 2, "velocity": 115}, {"time": 2341, "pitch": 81, "duration": 2, "velocity": 117}, {"time": 2344, "pitch": 79, "duration": 1, "velocity": 113}, {"time": 2347, "pitch": 79, "duration": 2, "velocity": 113}, {"time": 2350, "pitch": 77, "duration": 2, "velocity": 109}, {"time": 2353, "pitch": 79, "duration": 3, "velocity": 117}, {"time": 2356, "pitch": 77, "duration": 4, "velocity": 115}, {"time": 2362, "pitch": 77, "duration": 2, "velocity": 111}, {"time": 2365, "pitch": 79, "duration": 2, "velocity": 113}, {"time": 2368, "pitch": 77, "duration": 2, "velocity": 91}, {"time": 2371, "pitch": 79, "duration": 3, "velocity": 103}, {"time": 2374, "pitch": 77, "duration": 3, "velocity": 95}, {"time": 2377, "pitch": 84, "duration": 3, "velocity": 117}, {"time": 2380, "pitch": 81, "duration": 5, "velocity": 113}, {"time": 2386, "pitch": 81, "duration": 1, "velocity": 117}, {"time": 2389, "pitch": 81, "duration": 2, "velocity": 115}, {"time": 2392, "pitch": 79, "duration": 1, "velocity": 103}, {"time": 2395, "pitch": 79, "duration": 2, "velocity": 106}, {"time": 2395, "pitch": 79, "duration": 3, "velocity": 106}, {"time": 2398, "pitch": 77, "duration": 2, "velocity": 106}, {"time": 2401, "pitch": 79, "duration": 3, "velocity": 115}, {"time": 2404, "pitch": 77, "duration": 5, "velocity": 111}, {"time": 2410, "pitch": 77, "duration": 1, "velocity": 115}, {"time": 2413, "pitch": 79, "duration": 1, "velocity": 111}, {"time": 2416, "pitch": 77, "duration": 1, "velocity": 98}, {"time": 2419, "pitch": 77, "duration": 2, "velocity": 106}, {"time": 2422, "pitch": 72, "duration": 2, "velocity": 85}, {"time": 2425, "pitch": 79, "duration": 3, "velocity": 113}, {"time": 2428, "pitch": 81, "duration": 5, "velocity": 113}, {"time": 2428, "pitch": 81, "duration": 14, "velocity": 113}, {"time": 2449, "pitch": 81, "duration": 3, "velocity": 115}, {"time": 2452, "pitch": 79, "duration": 4, "velocity": 109}, {"time": 2458, "pitch": 77, "duration": 3, "velocity": 106}, {"time": 2461, "pitch": 74, "duration": 8, "velocity": 113}, {"time": 2470, "pitch": 72, "duration": 1, "velocity": 111}, {"time": 2473, "pitch": 81, "duration": 6, "velocity": 113}, {"time": 2479, "pitch": 79, "duration": 2, "velocity": 106}, {"time": 2482, "pitch": 77, "duration": 9, "velocity": 115}, {"time": 2491, "pitch": 76, "duration": 3, "velocity": 109}, {"time": 2494, "pitch": 77, "duration": 28, "velocity": 113}], "annotations": [{"time": 119, "annotation": {"number": 64, "value": 127}, "group": "control_change"}, {"time": 156, "annotation": {"number": 64, "value": 74}, "group": "control_change"}, {"time": 156, "annotation": {"number": 64, "value": 0}, "group": "control_change"}, {"time": 157, "annotation": {"number": 64, "value": 127}, "group": "control_change"}, {"time": 166, "annotation": {"number": 64, "value": 0}, "group": "control_change"}, {"time": 168, "annotation": {"number": 64, "value": 74}, "group": "control_change"}, {"time": 168, "annotation": {"number": 64, "value": 127}, "group": "control_change"}, {"time": 188, "annotation": {"number": 64, "value": 0}, "group": "control_change"}, {"time": 192, "annotation": {"number": 64, "value": 74}, "group": "control_change"}, {"time": 192, "annotation": {"number": 64, "value": 127}, "group": "control_change"}, {"time": 202, "annotation": {"number": 64, "value": 0}, "group": "control_change"}, {"time": 204, "annotation": {"number": 64, "value": 74}, "group": "control_change"}, {"time": 204, "annotation": {"number": 64, "value": 127}, "group": "control_change"}, {"time": 215, "annotation": {"number": 64, "value": 0}, "group": "control_change"}, {"time": 216, "annotation": {"number": 64, "value": 127}, "group": "control_change"}, {"time": 237, "annotation": {"number": 64, "value": 0}, "group": "control_change"}, {"time": 244, "annotation": {"number": 64, "value": 74}, "group": "control_change"}, {"time": 244, "annotation": {"number": 64, "value": 127}, "group": "control_change"}, {"time": 250, "annotation": {"number": 64, "value": 0}, "group": "control_change"}, {"time": 252, "annotation": {"number": 64, "value": 74}, "group": "control_change"}, {"time": 252, "annotation": {"number": 64, "value": 127}, "group": "control_change"}, {"time": 262, "annotation": {"number": 64, "value": 0}, "group": "control_change"}, {"time": 264, "annotation": {"number": 64, "value": 127}, "group": "control_change"}, {"time": 284, "annotation": {"number": 64, "value": 74}, "group": "control_change"}, {"time": 284, "annotation": {"number": 64, "value": 0}, "group": "control_change"}, {"time": 305, "annotation": {"number": 64, "value": 127}, "group": "control_change"}, {"time": 306, "annotation": {"number": 64, "value": 0}, "group": "control_change"}, {"time": 312, "annotation": {"number": 64, "value": 127}, "group": "control_change"}, {"time": 336, "annotation": {"number": 64, "value": 0}, "group": "control_change"}, {"time": 336, "annotation": {"number": 64, "value": 74}, "group": "control_change"}, {"time": 336, "annotation": {"number": 64, "value": 127}, "group": "control_change"}, {"time": 346, "annotation": {"number": 64, "value": 0}, "group": "control_change"}, {"time": 348, "annotation": {"number": 64, "value": 74}, "group": "control_change"}, {"time": 348, "annotation": {"number": 64, "value": 127}, "group": "control_change"}, {"time": 358, "annotation": {"number": 64, "value": 0}, "group": "control_change"}, {"time": 360, "annotation": {"number": 64, "value": 127}, "group": "control_change"}, {"time": 384, "annotation": {"number": 64, "value": 0}, "group": "control_change"}, {"time": 387, "annotation": {"number": 64, "value": 38}, "group": "control_change"}, {"time": 387, "annotation": {"number": 64, "value": 127}, "group": "control_change"}, {"time": 395, "annotation": {"number": 64, "value": 0}, "group": "control_change"}, {"time": 396, "annotation": {"number": 64, "value": 74}, "group": "control_change"}, {"time": 396, "annotation": {"number": 64, "value": 127}, "group": "control_change"}, {"time": 404, "annotation": {"number": 64, "value": 0}, "group": "control_change"}, {"time": 408, "annotation": {"number": 64, "value": 127}, "group": "control_change"}, {"time": 428, "annotation": {"number": 64, "value": 0}, "group": "control_change"}, {"time": 433, "annotation": {"number": 64, "value": 74}, "group": "control_change"}, {"time": 433, "annotation": {"number": 64, "value": 127}, "group": "control_change"}, {"time": 443, "annotation": {"number": 64, "value": 0}, "group": "control_change"}, {"time": 444, "annotation": {"number": 64, "value": 127}, "group": "control_change"}, {"time": 455, "annotation": {"number": 64, "value": 0}, "group": "control_change"}, {"time": 456, "annotation": {"number": 64, "value": 74}, "group": "control_change"}, {"time": 456, "annotation": {"number": 64, "value": 127}, "group": "control_change"}, {"time": 457, "annotation": {"number": 64, "value": 127}, "group": "control_change"}, {"time": 467, "annotation": {"number": 64, "value": 0}, "group": "control_change"}, {"time": 491, "annotation": {"number": 64, "value": 38}, "group": "control_change"}, {"time": 492, "annotation": {"number": 64, "value": 38}, "group": "control_change"}, {"time": 492, "annotation": {"number": 64, "value": 127}, "group": "control_change"}, {"time": 503, "annotation": {"number": 64, "value": 0}, "group": "control_change"}, {"time": 504, "annotation": {"number": 64, "value": 38}, "group": "control_change"}, {"time": 504, "annotation": {"number": 64, "value": 127}, "group": "control_change"}, {"time": 527, "annotation": {"number": 64, "value": 0}, "group": "control_change"}, {"time": 528, "annotation": {"number": 64, "value": 127}, "group": "control_change"}, {"time": 537, "annotation": {"number": 64, "value": 0}, "group": "control_change"}, {"time": 540, "annotation": {"number": 64, "value": 127}, "group": "control_change"}, {"time": 550, "annotation": {"number": 64, "value": 0}, "group": "control_change"}, {"time": 552, "annotation": {"number": 64, "value": 127}, "group": "control_change"}, {"time": 563, "annotation": {"number": 64, "value": 0}, "group": "control_change"}, {"time": 564, "annotation": {"number": 64, "value": 127}, "group": "control_change"}, {"time": 574, "annotation": {"number": 64, "value": 74}, "group": "control_change"}, {"time": 574, "annotation": {"number": 64, "value": 0}, "group": "control_change"}, {"time": 576, "annotation": {"number": 64, "value": 38}, "group": "control_change"}, {"time": 576, "annotation": {"number": 64, "value": 127}, "group": "control_change"}, {"time": 584, "annotation": {"number": 64, "value": 74}, "group": "control_change"}, {"time": 584, "annotation": {"number": 64, "value": 127}, "group": "control_change"}, {"time": 587, "annotation": {"number": 64, "value": 0}, "group": "control_change"}, {"time": 599, "annotation": {"number": 64, "value": 0}, "group": "control_change"}, {"time": 600, "annotation": {"number": 64, "value": 38}, "group": "control_change"}, {"time": 600, "annotation": {"number": 64, "value": 127}, "group": "control_change"}, {"time": 609, "annotation": {"number": 64, "value": 0}, "group": "control_change"}, {"time": 612, "annotation": {"number": 64, "value": 127}, "group": "control_change"}, {"time": 624, "annotation": {"number": 64, "value": 0}, "group": "control_change"}, {"time": 625, "annotation": {"number": 64, "value": 127}, "group": "control_change"}, {"time": 646, "annotation": {"number": 64, "value": 0}, "group": "control_change"}, {"time": 648, "annotation": {"number": 64, "value": 127}, "group": "control_change"}, {"time": 675, "annotation": {"number": 64, "value": 0}, "group": "control_change"}, {"time": 684, "annotation": {"number": 64, "value": 127}, "group": "control_change"}, {"time": 695, "annotation": {"number": 64, "value": 0}, "group": "control_change"}, {"time": 696, "annotation": {"number": 64, "value": 127}, "group": "control_change"}, {"time": 706, "annotation": {"number": 64, "value": 127}, "group": "control_change"}, {"time": 706, "annotation": {"number": 64, "value": 38}, "group": "control_change"}, {"time": 707, "annotation": {"number": 64, "value": 127}, "group": "control_change"}, {"time": 707, "annotation": {"number": 64, "value": 0}, "group": "control_change"}, {"time": 719, "annotation": {"number": 64, "value": 0}, "group": "control_change"}, {"time": 720, "annotation": {"number": 64, "value": 74}, "group": "control_change"}, {"time": 720, "annotation": {"number": 64, "value": 127}, "group": "control_change"}, {"time": 724, "annotation": {"number": 64, "value": 127}, "group": "control_change"}, {"time": 729, "annotation": {"number": 64, "value": 0}, "group": "control_change"}, {"time": 744, "annotation": {"number": 64, "value": 127}, "group": "control_change"}, {"time": 745, "annotation": {"number": 64, "value": 0}, "group": "control_change"}, {"time": 752, "annotation": {"number": 64, "value": 0}, "group": "control_change"}, {"time": 757, "annotation": {"number": 64, "value": 127}, "group": "control_change"}, {"time": 766, "annotation": {"number": 64, "value": 0}, "group": "control_change"}, {"time": 768, "annotation": {"number": 64, "value": 74}, "group": "control_change"}, {"time": 768, "annotation": {"number": 64, "value": 127}, "group": "control_change"}, {"time": 776, "annotation": {"number": 64, "value": 127}, "group": "control_change"}, {"time": 776, "annotation": {"number": 64, "value": 0}, "group": "control_change"}, {"time": 791, "annotation": {"number": 64, "value": 0}, "group": "control_change"}, {"time": 792, "annotation": {"number": 64, "value": 127}, "group": "control_change"}, {"time": 801, "annotation": {"number": 64, "value": 0}, "group": "control_change"}, {"time": 802, "annotation": {"number": 64, "value": 127}, "group": "control_change"}, {"time": 815, "annotation": {"number": 64, "value": 0}, "group": "control_change"}, {"time": 816, "annotation": {"number": 64, "value": 127}, "group": "control_change"}, {"time": 824, "annotation": {"number": 64, "value": 0}, "group": "control_change"}, {"time": 825, "annotation": {"number": 64, "value": 38}, "group": "control_change"}, {"time": 825, "annotation": {"number": 64, "value": 127}, "group": "control_change"}, {"time": 839, "annotation": {"number": 64, "value": 0}, "group": "control_change"}, {"time": 840, "annotation": {"number": 64, "value": 127}, "group": "control_change"}, {"time": 840, "annotation": {"number": 64, "value": 74}, "group": "control_change"}, {"time": 848, "annotation": {"number": 64, "value": 38}, "group": "control_change"}, {"time": 848, "annotation": {"number": 64, "value": 0}, "group": "control_change"}, {"time": 851, "annotation": {"number": 64, "value": 0}, "group": "control_change"}, {"time": 852, "annotation": {"number": 64, "value": 74}, "group": "control_change"}, {"time": 852, "annotation": {"number": 64, "value": 127}, "group": "control_change"}, {"time": 863, "annotation": {"number": 64, "value": 0}, "group": "control_change"}, {"time": 864, "annotation": {"number": 64, "value": 38}, "group": "control_change"}, {"time": 864, "annotation": {"number": 64, "value": 127}, "group": "control_change"}, {"time": 872, "annotation": {"number": 64, "value": 0}, "group": "control_change"}, {"time": 876, "annotation": {"number": 64, "value": 127}, "group": "control_change"}, {"time": 887, "annotation": {"number": 64, "value": 0}, "group": "control_change"}, {"time": 888, "annotation": {"number": 64, "value": 127}, "group": "control_change"}, {"time": 896, "annotation": {"number": 64, "value": 0}, "group": "control_change"}, {"time": 901, "annotation": {"number": 64, "value": 74}, "group": "control_change"}, {"time": 901, "annotation": {"number": 64, "value": 127}, "group": "control_change"}, {"time": 911, "annotation": {"number": 64, "value": 0}, "group": "control_change"}, {"time": 912, "annotation": {"number": 64, "value": 127}, "group": "control_change"}, {"time": 920, "annotation": {"number": 64, "value": 0}, "group": "control_change"}, {"time": 925, "annotation": {"number": 64, "value": 74}, "group": "control_change"}, {"time": 925, "annotation": {"number": 64, "value": 127}, "group": "control_change"}, {"time": 929, "annotation": {"number": 64, "value": 74}, "group": "control_change"}, {"time": 929, "annotation": {"number": 64, "value": 127}, "group": "control_change"}, {"time": 934, "annotation": {"number": 64, "value": 0}, "group": "control_change"}, {"time": 936, "annotation": {"number": 64, "value": 127}, "group": "control_change"}, {"time": 941, "annotation": {"number": 64, "value": 0}, "group": "control_change"}, {"time": 947, "annotation": {"number": 64, "value": 0}, "group": "control_change"}, {"time": 949, "annotation": {"number": 64, "value": 74}, "group": "control_change"}, {"time": 949, "annotation": {"number": 64, "value": 127}, "group": "control_change"}, {"time": 959, "annotation": {"number": 64, "value": 0}, "group": "control_change"}, {"time": 960, "annotation": {"number": 64, "value": 127}, "group": "control_change"}, {"time": 968, "annotation": {"number": 64, "value": 0}, "group": "control_change"}, {"time": 968, "annotation": {"number": 64, "value": 127}, "group": "control_change"}, {"time": 971, "annotation": {"number": 64, "value": 38}, "group": "control_change"}, {"time": 971, "annotation": {"number": 64, "value": 0}, "group": "control_change"}, {"time": 973, "annotation": {"number": 64, "value": 127}, "group": "control_change"}, {"time": 983, "annotation": {"number": 64, "value": 0}, "group": "control_change"}, {"time": 984, "annotation": {"number": 64, "value": 127}, "group": "control_change"}, {"time": 988, "annotation": {"number": 64, "value": 38}, "group": "control_change"}, {"time": 989, "annotation": {"number": 64, "value": 0}, "group": "control_change"}, {"time": 996, "annotation": {"number": 64, "value": 74}, "group": "control_change"}, {"time": 996, "annotation": {"number": 64, "value": 127}, "group": "control_change"}, {"time": 1006, "annotation": {"number": 64, "value": 0}, "group": "control_change"}, {"time": 1008, "annotation": {"number": 64, "value": 74}, "group": "control_change"}, {"time": 1008, "annotation": {"number": 64, "value": 127}, "group": "control_change"}, {"time": 1018, "annotation": {"number": 64, "value": 0}, "group": "control_change"}, {"time": 1021, "annotation": {"number": 64, "value": 127}, "group": "control_change"}, {"time": 1031, "annotation": {"number": 64, "value": 0}, "group": "control_change"}, {"time": 1032, "annotation": {"number": 64, "value": 127}, "group": "control_change"}, {"time": 1044, "annotation": {"number": 64, "value": 0}, "group": "control_change"}, {"time": 1045, "annotation": {"number": 64, "value": 127}, "group": "control_change"}, {"time": 1052, "annotation": {"number": 64, "value": 0}, "group": "control_change"}, {"time": 1056, "annotation": {"number": 64, "value": 74}, "group": "control_change"}, {"time": 1057, "annotation": {"number": 64, "value": 127}, "group": "control_change"}, {"time": 1066, "annotation": {"number": 64, "value": 0}, "group": "control_change"}, {"time": 1069, "annotation": {"number": 64, "value": 127}, "group": "control_change"}, {"time": 1076, "annotation": {"number": 64, "value": 0}, "group": "control_change"}, {"time": 1080, "annotation": {"number": 64, "value": 127}, "group": "control_change"}, {"time": 1095, "annotation": {"number": 64, "value": 0}, "group": "control_change"}, {"time": 1344, "annotation": {"number": 64, "value": 0}, "group": "control_change"}, {"time": 1344, "annotation": {"number": 64, "value": 74}, "group": "control_change"}, {"time": 1344, "annotation": {"number": 64, "value": 127}, "group": "control_change"}, {"time": 1355, "annotation": {"number": 64, "value": 0}, "group": "control_change"}, {"time": 1356, "annotation": {"number": 64, "value": 74}, "group": "control_change"}, {"time": 1356, "annotation": {"number": 64, "value": 127}, "group": "control_change"}, {"time": 1367, "annotation": {"number": 64, "value": 0}, "group": "control_change"}, {"time": 1368, "annotation": {"number": 64, "value": 127}, "group": "control_change"}, {"time": 1393, "annotation": {"number": 64, "value": 0}, "group": "control_change"}, {"time": 1395, "annotation": {"number": 64, "value": 38}, "group": "control_change"}, {"time": 1395, "annotation": {"number": 64, "value": 127}, "group": "control_change"}, {"time": 1403, "annotation": {"number": 64, "value": 0}, "group": "control_change"}, {"time": 1404, "annotation": {"number": 64, "value": 74}, "group": "control_change"}, {"time": 1404, "annotation": {"number": 64, "value": 127}, "group": "control_change"}, {"time": 1412, "annotation": {"number": 64, "value": 0}, "group": "control_change"}, {"time": 1416, "annotation": {"number": 64, "value": 127}, "group": "control_change"}, {"time": 1437, "annotation": {"number": 64, "value": 0}, "group": "control_change"}, {"time": 1441, "annotation": {"number": 64, "value": 74}, "group": "control_change"}, {"time": 1441, "annotation": {"number": 64, "value": 127}, "group": "control_change"}, {"time": 1451, "annotation": {"number": 64, "value": 0}, "group": "control_change"}, {"time": 1453, "annotation": {"number": 64, "value": 127}, "group": "control_change"}, {"time": 1463, "annotation": {"number": 64, "value": 0}, "group": "control_change"}, {"time": 1465, "annotation": {"number": 64, "value": 74}, "group": "control_change"}, {"time": 1465, "annotation": {"number": 64, "value": 127}, "group": "control_change"}, {"time": 1476, "annotation": {"number": 64, "value": 0}, "group": "control_change"}, {"time": 1500, "annotation": {"number": 64, "value": 38}, "group": "control_change"}, {"time": 1500, "annotation": {"number": 64, "value": 127}, "group": "control_change"}, {"time": 1511, "annotation": {"number": 64, "value": 0}, "group": "control_change"}, {"time": 1513, "annotation": {"number": 64, "value": 38}, "group": "control_change"}, {"time": 1513, "annotation": {"number": 64, "value": 127}, "group": "control_change"}, {"time": 1535, "annotation": {"number": 64, "value": 0}, "group": "control_change"}, {"time": 1536, "annotation": {"number": 64, "value": 0}, "group": "control_change"}, {"time": 1537, "annotation": {"number": 64, "value": 127}, "group": "control_change"}, {"time": 1546, "annotation": {"number": 64, "value": 0}, "group": "control_change"}, {"time": 1548, "annotation": {"number": 64, "value": 127}, "group": "control_change"}, {"time": 1559, "annotation": {"number": 64, "value": 0}, "group": "control_change"}, {"time": 1560, "annotation": {"number": 64, "value": 127}, "group": "control_change"}, {"time": 1572, "annotation": {"number": 64, "value": 0}, "group": "control_change"}, {"time": 1573, "annotation": {"number": 64, "value": 127}, "group": "control_change"}, {"time": 1583, "annotation": {"number": 64, "value": 74}, "group": "control_change"}, {"time": 1583, "annotation": {"number": 64, "value": 0}, "group": "control_change"}, {"time": 1584, "annotation": {"number": 64, "value": 38}, "group": "control_change"}, {"time": 1584, "annotation": {"number": 64, "value": 127}, "group": "control_change"}, {"time": 1593, "annotation": {"number": 64, "value": 74}, "group": "control_change"}, {"time": 1593, "annotation": {"number": 64, "value": 127}, "group": "control_change"}, {"time": 1596, "annotation": {"number": 64, "value": 0}, "group": "control_change"}, {"time": 1607, "annotation": {"number": 64, "value": 0}, "group": "control_change"}, {"time": 1608, "annotation": {"number": 64, "value": 38}, "group": "control_change"}, {"time": 1608, "annotation": {"number": 64, "value": 127}, "group": "control_change"}, {"time": 1618, "annotation": {"number": 64, "value": 0}, "group": "control_change"}, {"time": 1620, "annotation": {"number": 64, "value": 127}, "group": "control_change"}, {"time": 1632, "annotation": {"number": 64, "value": 0}, "group": "control_change"}, {"time": 1633, "annotation": {"number": 64, "value": 127}, "group": "control_change"}, {"time": 1655, "annotation": {"number": 64, "value": 0}, "group": "control_change"}, {"time": 1656, "annotation": {"number": 64, "value": 127}, "group": "control_change"}, {"time": 1683, "annotation": {"number": 64, "value": 0}, "group": "control_change"}, {"time": 1692, "annotation": {"number": 64, "value": 127}, "group": "control_change"}, {"time": 1693, "annotation": {"number": 64, "value": 127}, "group": "control_change"}, {"time": 1703, "annotation": {"number": 64, "value": 0}, "group": "control_change"}, {"time": 1704, "annotation": {"number": 64, "value": 127}, "group": "control_change"}, {"time": 1715, "annotation": {"number": 64, "value": 127}, "group": "control_change"}, {"time": 1715, "annotation": {"number": 64, "value": 38}, "group": "control_change"}, {"time": 1715, "annotation": {"number": 64, "value": 0}, "group": "control_change"}, {"time": 1727, "annotation": {"number": 64, "value": 0}, "group": "control_change"}, {"time": 1728, "annotation": {"number": 64, "value": 74}, "group": "control_change"}, {"time": 1728, "annotation": {"number": 64, "value": 127}, "group": "control_change"}, {"time": 1729, "annotation": {"number": 64, "value": 127}, "group": "control_change"}, {"time": 1732, "annotation": {"number": 64, "value": 127}, "group": "control_change"}, {"time": 1737, "annotation": {"number": 64, "value": 0}, "group": "control_change"}, {"time": 1753, "annotation": {"number": 64, "value": 127}, "group": "control_change"}, {"time": 1754, "annotation": {"number": 64, "value": 0}, "group": "control_change"}, {"time": 1760, "annotation": {"number": 64, "value": 0}, "group": "control_change"}, {"time": 1765, "annotation": {"number": 64, "value": 127}, "group": "control_change"}, {"time": 1775, "annotation": {"number": 64, "value": 0}, "group": "control_change"}, {"time": 1776, "annotation": {"number": 64, "value": 74}, "group": "control_change"}, {"time": 1776, "annotation": {"number": 64, "value": 127}, "group": "control_change"}, {"time": 1785, "annotation": {"number": 64, "value": 127}, "group": "control_change"}, {"time": 1785, "annotation": {"number": 64, "value": 0}, "group": "control_change"}, {"time": 1800, "annotation": {"number": 64, "value": 0}, "group": "control_change"}, {"time": 1801, "annotation": {"number": 64, "value": 127}, "group": "control_change"}, {"time": 1809, "annotation": {"number": 64, "value": 0}, "group": "control_change"}, {"time": 1811, "annotation": {"number": 64, "value": 127}, "group": "control_change"}, {"time": 1823, "annotation": {"number": 64, "value": 0}, "group": "control_change"}, {"time": 1824, "annotation": {"number": 64, "value": 127}, "group": "control_change"}, {"time": 1832, "annotation": {"number": 64, "value": 0}, "group": "control_change"}, {"time": 1833, "annotation": {"number": 64, "value": 38}, "group": "control_change"}, {"time": 1834, "annotation": {"number": 64, "value": 38}, "group": "control_change"}, {"time": 1834, "annotation": {"number": 64, "value": 127}, "group": "control_change"}, {"time": 1847, "annotation": {"number": 64, "value": 0}, "group": "control_change"}, {"time": 1848, "annotation": {"number": 64, "value": 127}, "group": "control_change"}, {"time": 1849, "annotation": {"number": 64, "value": 74}, "group": "control_change"}, {"time": 1849, "annotation": {"number": 64, "value": 127}, "group": "control_change"}, {"time": 1857, "annotation": {"number": 64, "value": 38}, "group": "control_change"}, {"time": 1857, "annotation": {"number": 64, "value": 0}, "group": "control_change"}, {"time": 1859, "annotation": {"number": 64, "value": 0}, "group": "control_change"}, {"time": 1861, "annotation": {"number": 64, "value": 74}, "group": "control_change"}, {"time": 1861, "annotation": {"number": 64, "value": 127}, "group": "control_change"}, {"time": 1871, "annotation": {"number": 64, "value": 0}, "group": "control_change"}, {"time": 1873, "annotation": {"number": 64, "value": 38}, "group": "control_change"}, {"time": 1873, "annotation": {"number": 64, "value": 127}, "group": "control_change"}, {"time": 1881, "annotation": {"number": 64, "value": 0}, "group": "control_change"}, {"time": 1885, "annotation": {"number": 64, "value": 127}, "group": "control_change"}, {"time": 1895, "annotation": {"number": 64, "value": 0}, "group": "control_change"}, {"time": 1897, "annotation": {"number": 64, "value": 127}, "group": "control_change"}, {"time": 1904, "annotation": {"number": 64, "value": 0}, "group": "control_change"}, {"time": 1909, "annotation": {"number": 64, "value": 74}, "group": "control_change"}, {"time": 1909, "annotation": {"number": 64, "value": 127}, "group": "control_change"}, {"time": 1919, "annotation": {"number": 64, "value": 0}, "group": "control_change"}, {"time": 1920, "annotation": {"number": 64, "value": 127}, "group": "control_change"}, {"time": 1928, "annotation": {"number": 64, "value": 0}, "group": "control_change"}, {"time": 1933, "annotation": {"number": 64, "value": 74}, "group": "control_change"}, {"time": 1933, "annotation": {"number": 64, "value": 127}, "group": "control_change"}, {"time": 1937, "annotation": {"number": 64, "value": 74}, "group": "control_change"}, {"time": 1937, "annotation": {"number": 64, "value": 127}, "group": "control_change"}, {"time": 1943, "annotation": {"number": 64, "value": 0}, "group": "control_change"}, {"time": 1945, "annotation": {"number": 64, "value": 127}, "group": "control_change"}, {"time": 1950, "annotation": {"number": 64, "value": 0}, "group": "control_change"}, {"time": 1955, "annotation": {"number": 64, "value": 0}, "group": "control_change"}, {"time": 1957, "annotation": {"number": 64, "value": 74}, "group": "control_change"}, {"time": 1957, "annotation": {"number": 64, "value": 127}, "group": "control_change"}, {"time": 1967, "annotation": {"number": 64, "value": 0}, "group": "control_change"}, {"time": 1969, "annotation": {"number": 64, "value": 127}, "group": "control_change"}, {"time": 1976, "annotation": {"number": 64, "value": 0}, "group": "control_change"}, {"time": 1976, "annotation": {"number": 64, "value": 127}, "group": "control_change"}, {"time": 1979, "annotation": {"number": 64, "value": 38}, "group": "control_change"}, {"time": 1979, "annotation": {"number": 64, "value": 0}, "group": "control_change"}, {"time": 1981, "annotation": {"number": 64, "value": 127}, "group": "control_change"}, {"time": 1991, "annotation": {"number": 64, "value": 0}, "group": "control_change"}, {"time": 1993, "annotation": {"number": 64, "value": 127}, "group": "control_change"}, {"time": 1997, "annotation": {"number": 64, "value": 38}, "group": "control_change"}, {"time": 1997, "annotation": {"number": 64, "value": 0}, "group": "control_change"}, {"time": 2004, "annotation": {"number": 64, "value": 74}, "group": "control_change"}, {"time": 2004, "annotation": {"number": 64, "value": 127}, "group": "control_change"}, {"time": 2005, "annotation": {"number": 64, "value": 127}, "group": "control_change"}, {"time": 2015, "annotation": {"number": 64, "value": 0}, "group": "control_change"}, {"time": 2016, "annotation": {"number": 64, "value": 74}, "group": "control_change"}, {"time": 2016, "annotation": {"number": 64, "value": 127}, "group": "control_change"}, {"time": 2027, "annotation": {"number": 64, "value": 0}, "group": "control_change"}, {"time": 2029, "annotation": {"number": 64, "value": 127}, "group": "control_change"}, {"time": 2039, "annotation": {"number": 64, "value": 0}, "group": "control_change"}, {"time": 2040, "annotation": {"number": 64, "value": 127}, "group": "control_change"}, {"time": 2053, "annotation": {"number": 64, "value": 0}, "group": "control_change"}, {"time": 2054, "annotation": {"number": 64, "value": 127}, "group": "control_change"}, {"time": 2061, "annotation": {"number": 64, "value": 0}, "group": "control_change"}, {"time": 2065, "annotation": {"number": 64, "value": 74}, "group": "control_change"}, {"time": 2065, "annotation": {"number": 64, "value": 127}, "group": "control_change"}, {"time": 2074, "annotation": {"number": 64, "value": 0}, "group": "control_change"}, {"time": 2078, "annotation": {"number": 64, "value": 127}, "group": "control_change"}, {"time": 2085, "annotation": {"number": 64, "value": 0}, "group": "control_change"}, {"time": 2089, "annotation": {"number": 64, "value": 127}, "group": "control_change"}, {"time": 2101, "annotation": {"number": 64, "value": 127}, "group": "control_change"}, {"time": 2104, "annotation": {"number": 64, "value": 0}, "group": "control_change"}, {"time": 2111, "annotation": {"number": 64, "value": 38}, "group": "control_change"}, {"time": 2111, "annotation": {"number": 64, "value": 0}, "group": "control_change"}, {"time": 2113, "annotation": {"number": 64, "value": 74}, "group": "control_change"}, {"time": 2113, "annotation": {"number": 64, "value": 127}, "group": "control_change"}, {"time": 2117, "annotation": {"number": 64, "value": 38}, "group": "control_change"}, {"time": 2117, "annotation": {"number": 64, "value": 0}, "group": "control_change"}, {"time": 2122, "annotation": {"number": 64, "value": 127}, "group": "control_change"}, {"time": 2135, "annotation": {"number": 64, "value": 74}, "group": "control_change"}, {"time": 2135, "annotation": {"number": 64, "value": 0}, "group": "control_change"}, {"time": 2137, "annotation": {"number": 64, "value": 74}, "group": "control_change"}, {"time": 2137, "annotation": {"number": 64, "value": 127}, "group": "control_change"}, {"time": 2145, "annotation": {"number": 64, "value": 0}, "group": "control_change"}, {"time": 2149, "annotation": {"number": 64, "value": 38}, "group": "control_change"}, {"time": 2149, "annotation": {"number": 64, "value": 127}, "group": "control_change"}, {"time": 2159, "annotation": {"number": 64, "value": 74}, "group": "control_change"}, {"time": 2159, "annotation": {"number": 64, "value": 0}, "group": "control_change"}, {"time": 2161, "annotation": {"number": 64, "value": 38}, "group": "control_change"}, {"time": 2161, "annotation": {"number": 64, "value": 127}, "group": "control_change"}, {"time": 2168, "annotation": {"number": 64, "value": 0}, "group": "control_change"}, {"time": 2170, "annotation": {"number": 64, "value": 74}, "group": "control_change"}, {"time": 2170, "annotation": {"number": 64, "value": 127}, "group": "control_change"}, {"time": 2183, "annotation": {"number": 64, "value": 0}, "group": "control_change"}, {"time": 2184, "annotation": {"number": 64, "value": 74}, "group": "control_change"}, {"time": 2184, "annotation": {"number": 64, "value": 127}, "group": "control_change"}, {"time": 2185, "annotation": {"number": 64, "value": 127}, "group": "control_change"}, {"time": 2198, "annotation": {"number": 64, "value": 127}, "group": "control_change"}, {"time": 2198, "annotation": {"number": 64, "value": 0}, "group": "control_change"}, {"time": 2208, "annotation": {"number": 64, "value": 0}, "group": "control_change"}, {"time": 2209, "annotation": {"number": 64, "value": 74}, "group": "control_change"}, {"time": 2209, "annotation": {"number": 64, "value": 127}, "group": "control_change"}, {"time": 2219, "annotation": {"number": 64, "value": 0}, "group": "control_change"}, {"time": 2220, "annotation": {"number": 64, "value": 127}, "group": "control_change"}, {"time": 2231, "annotation": {"number": 64, "value": 0}, "group": "control_change"}, {"time": 2233, "annotation": {"number": 64, "value": 127}, "group": "control_change"}, {"time": 2235, "annotation": {"number": 64, "value": 127}, "group": "control_change"}, {"time": 2240, "annotation": {"number": 64, "value": 0}, "group": "control_change"}, {"time": 2241, "annotation": {"number": 64, "value": 0}, "group": "control_change"}, {"time": 2245, "annotation": {"number": 64, "value": 38}, "group": "control_change"}, {"time": 2245, "annotation": {"number": 64, "value": 127}, "group": "control_change"}, {"time": 2253, "annotation": {"number": 64, "value": 0}, "group": "control_change"}, {"time": 2291, "annotation": {"number": 64, "value": 127}, "group": "control_change"}, {"time": 2304, "annotation": {"number": 64, "value": 38}, "group": "control_change"}, {"time": 2304, "annotation": {"number": 64, "value": 0}, "group": "control_change"}, {"time": 2305, "annotation": {"number": 64, "value": 38}, "group": "control_change"}, {"time": 2305, "annotation": {"number": 64, "value": 127}, "group": "control_change"}, {"time": 2310, "annotation": {"number": 64, "value": 0}, "group": "control_change"}, {"time": 2316, "annotation": {"number": 64, "value": 127}, "group": "control_change"}, {"time": 2324, "annotation": {"number": 64, "value": 127}, "group": "control_change"}, {"time": 2327, "annotation": {"number": 64, "value": 0}, "group": "control_change"}, {"time": 2329, "annotation": {"number": 64, "value": 127}, "group": "control_change"}, {"time": 2330, "annotation": {"number": 64, "value": 0}, "group": "control_change"}, {"time": 2334, "annotation": {"number": 64, "value": 0}, "group": "control_change"}, {"time": 2338, "annotation": {"number": 64, "value": 127}, "group": "control_change"}, {"time": 2351, "annotation": {"number": 64, "value": 0}, "group": "control_change"}, {"time": 2353, "annotation": {"number": 64, "value": 127}, "group": "control_change"}, {"time": 2359, "annotation": {"number": 64, "value": 0}, "group": "control_change"}, {"time": 2362, "annotation": {"number": 64, "value": 127}, "group": "control_change"}, {"time": 2376, "annotation": {"number": 64, "value": 0}, "group": "control_change"}, {"time": 2385, "annotation": {"number": 64, "value": 74}, "group": "control_change"}, {"time": 2385, "annotation": {"number": 64, "value": 127}, "group": "control_change"}, {"time": 2399, "annotation": {"number": 64, "value": 0}, "group": "control_change"}, {"time": 2401, "annotation": {"number": 64, "value": 38}, "group": "control_change"}, {"time": 2401, "annotation": {"number": 64, "value": 127}, "group": "control_change"}, {"time": 2405, "annotation": {"number": 64, "value": 0}, "group": "control_change"}, {"time": 2410, "annotation": {"number": 64, "value": 74}, "group": "control_change"}, {"time": 2410, "annotation": {"number": 64, "value": 127}, "group": "control_change"}, {"time": 2422, "annotation": {"number": 64, "value": 0}, "group": "control_change"}, {"time": 2425, "annotation": {"number": 64, "value": 127}, "group": "control_change"}, {"time": 2433, "annotation": {"number": 64, "value": 0}, "group": "control_change"}, {"time": 2448, "annotation": {"number": 64, "value": 127}, "group": "control_change"}, {"time": 2469, "annotation": {"number": 64, "value": 0}, "group": "control_change"}, {"time": 2471, "annotation": {"number": 64, "value": 127}, "group": "control_change"}, {"time": 2493, "annotation": {"number": 64, "value": 0}, "group": "control_change"}, {"time": 2494, "annotation": {"number": 64, "value": 74}, "group": "control_change"}, {"time": 2494, "annotation": {"number": 64, "value": 127}, "group": "control_change"}, {"time": 2522, "annotation": {"number": 64, "value": 0}, "group": "control_change"}]}, {"program": 0, "is_drum": false, "name": "BRIDGE", "notes": [{"time": 289, "pitch": 69, "duration": 7, "velocity": 70}, {"time": 298, "pitch": 71, "duration": 13, "velocity": 71}, {"time": 1114, "pitch": 71, "duration": 2, "velocity": 111}, {"time": 1117, "pitch": 80, "duration": 2, "velocity": 111}, {"time": 1120, "pitch": 78, "duration": 3, "velocity": 111}, {"time": 1126, "pitch": 78, "duration": 3, "velocity": 111}, {"time": 1129, "pitch": 75, "duration": 3, "velocity": 111}, {"time": 1132, "pitch": 76, "duration": 6, "velocity": 111}, {"time": 1138, "pitch": 71, "duration": 2, "velocity": 111}, {"time": 1141, "pitch": 80, "duration": 2, "velocity": 111}, {"time": 1144, "pitch": 78, "duration": 3, "velocity": 111}, {"time": 1150, "pitch": 78, "duration": 1, "velocity": 111}, {"time": 1152, "pitch": 80, "duration": 1, "velocity": 111}, {"time": 1153, "pitch": 78, "duration": 4, "velocity": 111}, {"time": 1157, "pitch": 76, "duration": 4, "velocity": 111}, {"time": 1162, "pitch": 75, "duration": 8, "velocity": 111}, {"time": 1171, "pitch": 79, "duration": 1, "velocity": 111}, {"time": 1171, "pitch": 78, "duration": 3, "velocity": 111}, {"time": 1174, "pitch": 76, "duration": 2, "velocity": 111}, {"time": 1177, "pitch": 73, "duration": 2, "velocity": 111}, {"time": 1180, "pitch": 76, "duration": 4, "velocity": 111}, {"time": 1186, "pitch": 78, "duration": 4, "velocity": 111}, {"time": 1191, "pitch": 76, "duration": 1, "velocity": 111}, {"time": 1197, "pitch": 77, "duration": 1, "velocity": 111}, {"time": 1197, "pitch": 78, "duration": 9, "velocity": 111}, {"time": 1203, "pitch": 80, "duration": 6, "velocity": 111}, {"time": 1216, "pitch": 83, "duration": 3, "velocity": 111}, {"time": 1218, "pitch": 85, "duration": 3, "velocity": 111}, {"time": 1221, "pitch": 88, "duration": 1, "velocity": 111}, {"time": 1224, "pitch": 91, "duration": 2, "velocity": 111}, {"time": 1226, "pitch": 92, "duration": 3, "velocity": 111}, {"time": 1229, "pitch": 95, "duration": 3, "velocity": 111}, {"time": 1233, "pitch": 95, "duration": 4, "velocity": 111}, {"time": 1239, "pitch": 95, "duration": 2, "velocity": 111}, {"time": 1240, "pitch": 93, "duration": 3, "velocity": 111}, {"time": 1242, "pitch": 92, "duration": 1, "velocity": 111}, {"time": 1243, "pitch": 91, "duration": 2, "velocity": 111}, {"time": 1245, "pitch": 90, "duration": 1, "velocity": 111}, {"time": 1247, "pitch": 88, "duration": 2, "velocity": 111}, {"time": 1249, "pitch": 85, "duration": 6, "velocity": 111}, {"time": 1258, "pitch": 83, "duration": 3, "velocity": 111}, {"time": 1264, "pitch": 80, "duration": 3, "velocity": 111}, {"time": 1270, "pitch": 78, "duration": 2, "velocity": 111}, {"time": 1275, "pitch": 76, "duration": 4, "velocity": 111}, {"time": 1281, "pitch": 73, "duration": 6, "velocity": 111}, {"time": 1287, "pitch": 71, "duration": 4, "velocity": 111}, {"time": 1290, "pitch": 73, "duration": 2, "velocity": 111}, {"time": 1294, "pitch": 69, "duration": 2, "velocity": 111}, {"time": 1296, "pitch": 79, "duration": 1, "velocity": 111}, {"time": 1297, "pitch": 78, "duration": 15, "velocity": 111}, {"time": 2530, "pitch": 72, "duration": 2, "velocity": 111}, {"time": 2533, "pitch": 81, "duration": 2, "velocity": 111}, {"time": 2536, "pitch": 79, "duration": 5, "velocity": 111}, {"time": 2542, "pitch": 77, "duration": 2, "velocity": 111}, {"time": 2545, "pitch": 79, "duration": 3, "velocity": 111}, {"time": 2548, "pitch": 81, "duration": 16, "velocity": 111}, {"time": 2566, "pitch": 79, "duration": 14, "velocity": 111}, {"time": 2581, "pitch": 81, "duration": 3, "velocity": 111}, {"time": 2584, "pitch": 79, "duration": 1, "velocity": 111}, {"time": 2587, "pitch": 79, "duration": 3, "velocity": 111}, {"time": 2590, "pitch": 77, "duration": 3, "velocity": 111}, {"time": 2593, "pitch": 79, "duration": 3, "velocity": 111}, {"time": 2596, "pitch": 77, "duration": 18, "velocity": 111}, {"time": 2611, "pitch": 77, "duration": 3, "velocity": 111}, {"time": 2616, "pitch": 75, "duration": 1, "velocity": 111}, {"time": 2617, "pitch": 76, "duration": 16, "velocity": 111}, {"time": 2633, "pitch": 74, "duration": 5, "velocity": 111}, {"time": 2638, "pitch": 76, "duration": 3, "velocity": 111}, {"time": 2641, "pitch": 74, "duration": 13, "velocity": 111}, {"time": 2659, "pitch": 69, "duration": 2, "velocity": 111}, {"time": 2662, "pitch": 67, "duration": 3, "velocity": 111}, {"time": 2664, "pitch": 71, "duration": 1, "velocity": 111}, {"time": 2665, "pitch": 72, "duration": 12, "velocity": 111}, {"time": 2682, "pitch": 76, "duration": 4, "velocity": 111}, {"time": 2688, "pitch": 76, "duration": 2, "velocity": 111}, {"time": 2689, "pitch": 77, "duration": 12, "velocity": 111}, {"time": 2713, "pitch": 72, "duration": 25, "velocity": 111}, {"time": 2725, "pitch": 76, "duration": 26, "velocity": 111}, {"time": 2737, "pitch": 77, "duration": 28, "velocity": 111}], "annotations": [{"time": 1105, "annotation": {"number": 64, "value": 38}, "group": "control_change"}, {"time": 1105, "annotation": {"number": 64, "value": 127}, "group": "control_change"}, {"time": 1128, "annotation": {"number": 64, "value": 0}, "group": "control_change"}, {"time": 1129, "annotation": {"number": 64, "value": 127}, "group": "control_change"}, {"time": 1140, "annotation": {"number": 64, "value": 0}, "group": "control_change"}, {"time": 1140, "annotation": {"number": 64, "value": 127}, "group": "control_change"}, {"time": 1151, "annotation": {"number": 64, "value": 0}, "group": "control_change"}, {"time": 1152, "annotation": {"number": 64, "value": 74}, "group": "control_change"}, {"time": 1152, "annotation": {"number": 64, "value": 127}, "group": "control_change"}, {"time": 1170, "annotation": {"number": 64, "value": 74}, "group": "control_change"}, {"time": 1170, "annotation": {"number": 64, "value": 0}, "group": "control_change"}, {"time": 2531, "annotation": {"number": 64, "value": 74}, "group": "control_change"}, {"time": 2531, "annotation": {"number": 64, "value": 127}, "group": "control_change"}, {"time": 2544, "annotation": {"number": 64, "value": 0}, "group": "control_change"}, {"time": 2545, "annotation": {"number": 64, "value": 74}, "group": "control_change"}, {"time": 2545, "annotation": {"number": 64, "value": 127}, "group": "control_change"}, {"time": 2555, "annotation": {"number": 64, "value": 0}, "group": "control_change"}, {"time": 2568, "annotation": {"number": 64, "value": 127}, "group": "control_change"}, {"time": 2579, "annotation": {"number": 64, "value": 0}, "group": "control_change"}, {"time": 2581, "annotation": {"number": 64, "value": 38}, "group": "control_change"}, {"time": 2581, "annotation": {"number": 64, "value": 127}, "group": "control_change"}, {"time": 2591, "annotation": {"number": 64, "value": 0}, "group": "control_change"}, {"time": 2592, "annotation": {"number": 64, "value": 127}, "group": "control_change"}, {"time": 2598, "annotation": {"number": 64, "value": 0}, "group": "control_change"}, {"time": 2737, "annotation": {"number": 64, "value": 127}, "group": "control_change"}, {"time": 2749, "annotation": {"number": 64, "value": 0}, "group": "control_change"}]}, {"program": 0, "is_drum": false, "name": "PIANO", "notes": [{"time": 24, "pitch": 64, "duration": 7, "velocity": 36}, {"time": 25, "pitch": 52, "duration": 20, "velocity": 75}, {"time": 25, "pitch": 75, "duration": 6, "velocity": 82}, {"time": 36, "pitch": 68, "duration": 11, "velocity": 71}, {"time": 36, "pitch": 64, "duration": 11, "velocity": 67}, {"time": 48, "pitch": 52, "duration": 18, "velocity": 77}, {"time": 48, "pitch": 69, "duration": 8, "velocity": 82}, {"time": 48, "pitch": 64, "duration": 8, "velocity": 65}, {"time": 57, "pitch": 64, "duration": 13, "velocity": 71}, {"time": 57, "pitch": 68, "duration": 6, "velocity": 70}, {"time": 63, "pitch": 73, "duration": 8, "velocity": 71}, {"time": 72, "pitch": 52, "duration": 23, "velocity": 73}, {"time": 72, "pitch": 75, "duration": 3, "velocity": 95}, {"time": 72, "pitch": 64, "duration": 3, "velocity": 53}, {"time": 84, "pitch": 64, "duration": 10, "velocity": 61}, {"time": 84, "pitch": 68, "duration": 10, "velocity": 60}, {"time": 95, "pitch": 64, "duration": 2, "velocity": 35}, {"time": 95, "pitch": 69, "duration": 1, "velocity": 69}, {"time": 95, "pitch": 48, "duration": 22, "velocity": 67}, {"time": 96, "pitch": 72, "duration": 11, "velocity": 66}, {"time": 108, "pitch": 71, "duration": 8, "velocity": 36}, {"time": 121, "pitch": 52, "duration": 40, "velocity": 76}, {"time": 121, "pitch": 66, "duration": 6, "velocity": 85}, {"time": 127, "pitch": 59, "duration": 3, "velocity": 47}, {"time": 130, "pitch": 64, "duration": 30, "velocity": 71}, {"time": 133, "pitch": 59, "duration": 5, "velocity": 56}, {"time": 145, "pitch": 59, "duration": 5, "velocity": 30}, {"time": 157, "pitch": 59, "duration": 2, "velocity": 57}, {"time": 169, "pitch": 49, "duration": 39, "velocity": 79}, {"time": 169, "pitch": 71, "duration": 6, "velocity": 88}, {"time": 175, "pitch": 61, "duration": 5, "velocity": 59}, {"time": 178, "pitch": 68, "duration": 38, "velocity": 75}, {"time": 193, "pitch": 61, "duration": 5, "velocity": 36}, {"time": 205, "pitch": 61, "duration": 2, "velocity": 55}, {"time": 216, "pitch": 57, "duration": 23, "velocity": 85}, {"time": 220, "pitch": 64, "duration": 19, "velocity": 61}, {"time": 223, "pitch": 69, "duration": 10, "velocity": 55}, {"time": 226, "pitch": 73, "duration": 13, "velocity": 71}, {"time": 241, "pitch": 47, "duration": 4, "velocity": 58}, {"time": 241, "pitch": 71, "duration": 9, "velocity": 48}, {"time": 265, "pitch": 52, "duration": 37, "velocity": 69}, {"time": 265, "pitch": 66, "duration": 9, "velocity": 71}, {"time": 271, "pitch": 59, "duration": 11, "velocity": 24}, {"time": 274, "pitch": 68, "duration": 27, "velocity": 71}, {"time": 289, "pitch": 52, "duration": 13, "velocity": 63}, {"time": 289, "pitch": 66, "duration": 4, "velocity": 68}, {"time": 289, "pitch": 69, "duration": 5, "velocity": 65}, {"time": 298, "pitch": 68, "duration": 3, "velocity": 69}, {"time": 298, "pitch": 71, "duration": 10, "velocity": 71}, {"time": 313, "pitch": 52, "duration": 38, "velocity": 103}, {"time": 316, "pitch": 59, "duration": 34, "velocity": 71}, {"time": 319, "pitch": 64, "duration": 3, "velocity": 62}, {"time": 322, "pitch": 68, "duration": 4, "velocity": 91}, {"time": 322, "pitch": 71, "duration": 5, "velocity": 82}, {"time": 331, "pitch": 64, "duration": 6, "velocity": 42}, {"time": 337, "pitch": 68, "duration": 6, "velocity": 77}, {"time": 337, "pitch": 71, "duration": 7, "velocity": 76}, {"time": 349, "pitch": 64, "duration": 1, "velocity": 70}, {"time": 349, "pitch": 68, "duration": 1, "velocity": 75}, {"time": 349, "pitch": 71, "duration": 1, "velocity": 73}, {"time": 361, "pitch": 49, "duration": 40, "velocity": 82}, {"time": 361, "pitch": 64, "duration": 7, "velocity": 71}, {"time": 361, "pitch": 68, "duration": 7, "velocity": 73}, {"time": 361, "pitch": 71, "duration": 8, "velocity": 69}, {"time": 364, "pitch": 56, "duration": 34, "velocity": 14}, {"time": 367, "pitch": 61, "duration": 2, "velocity": 51}, {"time": 370, "pitch": 64, "duration": 1, "velocity": 57}, {"time": 370, "pitch": 71, "duration": 5, "velocity": 88}, {"time": 373, "pitch": 61, "duration": 10, "velocity": 67}, {"time": 376, "pitch": 68, "duration": 2, "velocity": 67}, {"time": 382, "pitch": 71, "duration": 15, "velocity": 73}, {"time": 385, "pitch": 61, "duration": 6, "velocity": 12}, {"time": 397, "pitch": 61, "duration": 2, "velocity": 75}, {"time": 397, "pitch": 64, "duration": 6, "velocity": 79}, {"time": 397, "pitch": 68, "duration": 6, "velocity": 95}, {"time": 403, "pitch": 71, "duration": 5, "velocity": 68}, {"time": 406, "pitch": 64, "duration": 3, "velocity": 64}, {"time": 409, "pitch": 45, "duration": 40, "velocity": 103}, {"time": 412, "pitch": 52, "duration": 39, "velocity": 56}, {"time": 415, "pitch": 57, "duration": 3, "velocity": 52}, {"time": 418, "pitch": 61, "duration": 9, "velocity": 91}, {"time": 421, "pitch": 57, "duration": 7, "velocity": 59}, {"time": 427, "pitch": 69, "duration": 17, "velocity": 71}, {"time": 433, "pitch": 57, "duration": 6, "velocity": 58}, {"time": 445, "pitch": 57, "duration": 6, "velocity": 64}, {"time": 445, "pitch": 61, "duration": 11, "velocity": 66}, {"time": 445, "pitch": 64, "duration": 4, "velocity": 70}, {"time": 451, "pitch": 64, "duration": 4, "velocity": 38}, {"time": 457, "pitch": 52, "duration": 30, "velocity": 73}, {"time": 460, "pitch": 59, "duration": 27, "velocity": 56}, {"time": 463, "pitch": 64, "duration": 3, "velocity": 36}, {"time": 466, "pitch": 68, "duration": 6, "velocity": 66}, {"time": 469, "pitch": 64, "duration": 6, "velocity": 39}, {"time": 472, "pitch": 75, "duration": 4, "velocity": 60}, {"time": 481, "pitch": 64, "duration": 6, "velocity": 6}, {"time": 481, "pitch": 76, "duration": 7, "velocity": 61}, {"time": 505, "pitch": 45, "duration": 21, "velocity": 109}, {"time": 508, "pitch": 52, "duration": 16, "velocity": 70}, {"time": 511, "pitch": 57, "duration": 4, "velocity": 76}, {"time": 514, "pitch": 61, "duration": 6, "velocity": 106}, {"time": 517, "pitch": 57, "duration": 7, "velocity": 73}, {"time": 520, "pitch": 64, "duration": 2, "velocity": 75}, {"time": 523, "pitch": 61, "duration": 6, "velocity": 73}, {"time": 529, "pitch": 45, "duration": 20, "velocity": 109}, {"time": 532, "pitch": 52, "duration": 18, "velocity": 71}, {"time": 535, "pitch": 57, "duration": 15, "velocity": 77}, {"time": 538, "pitch": 64, "duration": 3, "velocity": 60}, {"time": 541, "pitch": 71, "duration": 6, "velocity": 111}, {"time": 547, "pitch": 64, "duration": 6, "velocity": 71}, {"time": 553, "pitch": 44, "duration": 15, "velocity": 103}, {"time": 556, "pitch": 51, "duration": 13, "velocity": 49}, {"time": 559, "pitch": 56, "duration": 11, "velocity": 72}, {"time": 562, "pitch": 59, "duration": 2, "velocity": 106}, {"time": 565, "pitch": 68, "duration": 3, "velocity": 106}, {"time": 568, "pitch": 59, "duration": 7, "velocity": 77}, {"time": 571, "pitch": 63, "duration": 2, "velocity": 70}, {"time": 574, "pitch": 68, "duration": 2, "velocity": 61}, {"time": 577, "pitch": 49, "duration": 17, "velocity": 100}, {"time": 580, "pitch": 56, "duration": 15, "velocity": 56}, {"time": 583, "pitch": 61, "duration": 13, "velocity": 69}, {"time": 586, "pitch": 64, "duration": 2, "velocity": 82}, {"time": 589, "pitch": 73, "duration": 3, "velocity": 103}, {"time": 592, "pitch": 64, "duration": 8, "velocity": 77}, {"time": 595, "pitch": 68, "duration": 3, "velocity": 67}, {"time": 598, "pitch": 73, "duration": 2, "velocity": 36}, {"time": 601, "pitch": 54, "duration": 18, "velocity": 106}, {"time": 604, "pitch": 61, "duration": 14, "velocity": 71}, {"time": 607, "pitch": 66, "duration": 4, "velocity": 91}, {"time": 610, "pitch": 69, "duration": 6, "velocity": 106}, {"time": 613, "pitch": 66, "duration": 4, "velocity": 85}, {"time": 616, "pitch": 78, "duration": 3, "velocity": 106}, {"time": 619, "pitch": 73, "duration": 2, "velocity": 73}, {"time": 622, "pitch": 69, "duration": 4, "velocity": 70}, {"time": 625, "pitch": 54, "duration": 17, "velocity": 106}, {"time": 628, "pitch": 61, "duration": 13, "velocity": 70}, {"time": 631, "pitch": 66, "duration": 9, "velocity": 73}, {"time": 634, "pitch": 69, "duration": 3, "velocity": 60}, {"time": 637, "pitch": 76, "duration": 3, "velocity": 113}, {"time": 640, "pitch": 73, "duration": 3, "velocity": 79}, {"time": 643, "pitch": 69, "duration": 5, "velocity": 79}, {"time": 646, "pitch": 73, "duration": 2, "velocity": 79}, {"time": 649, "pitch": 47, "duration": 16, "velocity": 111}, {"time": 652, "pitch": 54, "duration": 7, "velocity": 75}, {"time": 655, "pitch": 59, "duration": 3, "velocity": 85}, {"time": 658, "pitch": 63, "duration": 5, "velocity": 103}, {"time": 661, "pitch": 54, "duration": 5, "velocity": 60}, {"time": 661, "pitch": 59, "duration": 5, "velocity": 95}, {"time": 664, "pitch": 71, "duration": 2, "velocity": 103}, {"time": 667, "pitch": 66, "duration": 2, "velocity": 98}, {"time": 670, "pitch": 63, "duration": 2, "velocity": 106}, {"time": 673, "pitch": 47, "duration": 5, "velocity": 109}, {"time": 673, "pitch": 63, "duration": 7, "velocity": 95}, {"time": 673, "pitch": 66, "duration": 7, "velocity": 100}, {"time": 673, "pitch": 71, "duration": 7, "velocity": 103}, {"time": 697, "pitch": 52, "duration": 23, "velocity": 113}, {"time": 700, "pitch": 59, "duration": 7, "velocity": 82}, {"time": 703, "pitch": 64, "duration": 3, "velocity": 91}, {"time": 706, "pitch": 68, "duration": 5, "velocity": 113}, {"time": 709, "pitch": 59, "duration": 9, "velocity": 70}, {"time": 709, "pitch": 64, "duration": 6, "velocity": 106}, {"time": 712, "pitch": 76, "duration": 2, "velocity": 109}, {"time": 715, "pitch": 71, "duration": 2, "velocity": 98}, {"time": 718, "pitch": 68, "duration": 3, "velocity": 103}, {"time": 721, "pitch": 51, "duration": 22, "velocity": 106}, {"time": 724, "pitch": 59, "duration": 17, "velocity": 103}, {"time": 727, "pitch": 66, "duration": 2, "velocity": 91}, {"time": 730, "pitch": 71, "duration": 2, "velocity": 100}, {"time": 733, "pitch": 75, "duration": 7, "velocity": 113}, {"time": 739, "pitch": 71, "duration": 2, "velocity": 72}, {"time": 742, "pitch": 66, "duration": 3, "velocity": 70}, {"time": 745, "pitch": 49, "duration": 22, "velocity": 106}, {"time": 748, "pitch": 56, "duration": 19, "velocity": 71}, {"time": 751, "pitch": 61, "duration": 4, "velocity": 65}, {"time": 754, "pitch": 64, "duration": 4, "velocity": 85}, {"time": 757, "pitch": 61, "duration": 10, "velocity": 100}, {"time": 760, "pitch": 73, "duration": 3, "velocity": 103}, {"time": 763, "pitch": 68, "duration": 2, "velocity": 72}, {"time": 766, "pitch": 64, "duration": 1, "velocity": 98}, {"time": 769, "pitch": 47, "duration": 22, "velocity": 106}, {"time": 772, "pitch": 54, "duration": 7, "velocity": 85}, {"time": 775, "pitch": 59, "duration": 3, "velocity": 71}, {"time": 778, "pitch": 63, "duration": 5, "velocity": 111}, {"time": 781, "pitch": 54, "duration": 6, "velocity": 70}, {"time": 781, "pitch": 59, "duration": 6, "velocity": 100}, {"time": 784, "pitch": 71, "duration": 3, "velocity": 103}, {"time": 787, "pitch": 66, "duration": 2, "velocity": 91}, {"time": 790, "pitch": 63, "duration": 3, "velocity": 95}, {"time": 793, "pitch": 45, "duration": 23, "velocity": 113}, {"time": 796, "pitch": 52, "duration": 3, "velocity": 65}, {"time": 799, "pitch": 52, "duration": 4, "velocity": 44}, {"time": 799, "pitch": 57, "duration": 4, "velocity": 75}, {"time": 802, "pitch": 61, "duration": 5, "velocity": 111}, {"time": 805, "pitch": 52, "duration": 7, "velocity": 69}, {"time": 805, "pitch": 57, "duration": 6, "velocity": 95}, {"time": 808, "pitch": 69, "duration": 2, "velocity": 109}, {"time": 811, "pitch": 64, "duration": 2, "velocity": 79}, {"time": 814, "pitch": 61, "duration": 3, "velocity": 98}, {"time": 817, "pitch": 44, "duration": 20, "velocity": 106}, {"time": 820, "pitch": 51, "duration": 18, "velocity": 70}, {"time": 823, "pitch": 56, "duration": 15, "velocity": 88}, {"time": 826, "pitch": 59, "duration": 3, "velocity": 103}, {"time": 829, "pitch": 66, "duration": 3, "velocity": 111}, {"time": 832, "pitch": 63, "duration": 3, "velocity": 69}, {"time": 835, "pitch": 59, "duration": 5, "velocity": 71}, {"time": 838, "pitch": 63, "duration": 2, "velocity": 77}, {"time": 841, "pitch": 42, "duration": 17, "velocity": 113}, {"time": 844, "pitch": 49, "duration": 15, "velocity": 68}, {"time": 847, "pitch": 54, "duration": 4, "velocity": 75}, {"time": 850, "pitch": 57, "duration": 6, "velocity": 95}, {"time": 853, "pitch": 54, "duration": 9, "velocity": 91}, {"time": 856, "pitch": 66, "duration": 2, "velocity": 113}, {"time": 859, "pitch": 57, "duration": 6, "velocity": 88}, {"time": 862, "pitch": 61, "duration": 3, "velocity": 100}, {"time": 865, "pitch": 47, "duration": 21, "velocity": 115}, {"time": 868, "pitch": 54, "duration": 19, "velocity": 75}, {"time": 871, "pitch": 59, "duration": 16, "velocity": 91}, {"time": 874, "pitch": 63, "duration": 2, "velocity": 100}, {"time": 877, "pitch": 71, "duration": 3, "velocity": 113}, {"time": 880, "pitch": 66, "duration": 2, "velocity": 98}, {"time": 883, "pitch": 63, "duration": 6, "velocity": 109}, {"time": 886, "pitch": 66, "duration": 3, "velocity": 111}, {"time": 889, "pitch": 52, "duration": 23, "velocity": 115}, {"time": 892, "pitch": 59, "duration": 7, "velocity": 82}, {"time": 895, "pitch": 64, "duration": 3, "velocity": 91}, {"time": 898, "pitch": 68, "duration": 5, "velocity": 113}, {"time": 901, "pitch": 59, "duration": 9, "velocity": 70}, {"time": 901, "pitch": 64, "duration": 6, "velocity": 106}, {"time": 904, "pitch": 76, "duration": 2, "velocity": 109}, {"time": 907, "pitch": 71, "duration": 2, "velocity": 98}, {"time": 910, "pitch": 68, "duration": 3, "velocity": 103}, {"time": 913, "pitch": 51, "duration": 22, "velocity": 106}, {"time": 916, "pitch": 59, "duration": 17, "velocity": 103}, {"time": 919, "pitch": 66, "duration": 2, "velocity": 91}, {"time": 922, "pitch": 71, "duration": 2, "velocity": 100}, {"time": 925, "pitch": 75, "duration": 7, "velocity": 113}, {"time": 931, "pitch": 71, "duration": 2, "velocity": 72}, {"time": 934, "pitch": 66, "duration": 3, "velocity": 70}, {"time": 937, "pitch": 49, "duration": 22, "velocity": 106}, {"time": 940, "pitch": 56, "duration": 19, "velocity": 71}, {"time": 943, "pitch": 61, "duration": 4, "velocity": 65}, {"time": 946, "pitch": 64, "duration": 4, "velocity": 85}, {"time": 949, "pitch": 61, "duration": 10, "velocity": 100}, {"time": 952, "pitch": 73, "duration": 3, "velocity": 103}, {"time": 955, "pitch": 68, "duration": 2, "velocity": 72}, {"time": 958, "pitch": 64, "duration": 1, "velocity": 98}, {"time": 961, "pitch": 47, "duration": 22, "velocity": 106}, {"time": 964, "pitch": 54, "duration": 7, "velocity": 85}, {"time": 967, "pitch": 59, "duration": 3, "velocity": 71}, {"time": 970, "pitch": 63, "duration": 5, "velocity": 111}, {"time": 973, "pitch": 54, "duration": 6, "velocity": 70}, {"time": 973, "pitch": 59, "duration": 6, "velocity": 100}, {"time": 976, "pitch": 71, "duration": 3, "velocity": 103}, {"time": 979, "pitch": 66, "duration": 2, "velocity": 91}, {"time": 982, "pitch": 63, "duration": 3, "velocity": 95}, {"time": 985, "pitch": 45, "duration": 23, "velocity": 113}, {"time": 988, "pitch": 52, "duration": 3, "velocity": 65}, {"time": 991, "pitch": 52, "duration": 4, "velocity": 44}, {"time": 991, "pitch": 57, "duration": 4, "velocity": 75}, {"time": 994, "pitch": 61, "duration": 5, "velocity": 111}, {"time": 997, "pitch": 52, "duration": 7, "velocity": 69}, {"time": 997, "pitch": 57, "duration": 6, "velocity": 95}, {"time": 1000, "pitch": 69, "duration": 2, "velocity": 109}, {"time": 1003, "pitch": 64, "duration": 2, "velocity": 79}, {"time": 1006, "pitch": 61, "duration": 3, "velocity": 98}, {"time": 1009, "pitch": 44, "duration": 20, "velocity": 106}, {"time": 1012, "pitch": 51, "duration": 18, "velocity": 70}, {"time": 1015, "pitch": 56, "duration": 15, "velocity": 88}, {"time": 1018, "pitch": 59, "duration": 3, "velocity": 103}, {"time": 1021, "pitch": 66, "duration": 3, "velocity": 111}, {"time": 1024, "pitch": 63, "duration": 3, "velocity": 69}, {"time": 1027, "pitch": 59, "duration": 5, "velocity": 71}, {"time": 1030, "pitch": 63, "duration": 2, "velocity": 77}, {"time": 1033, "pitch": 42, "duration": 17, "velocity": 113}, {"time": 1036, "pitch": 49, "duration": 15, "velocity": 68}, {"time": 1039, "pitch": 54, "duration": 4, "velocity": 75}, {"time": 1042, "pitch": 57, "duration": 6, "velocity": 95}, {"time": 1045, "pitch": 54, "duration": 9, "velocity": 91}, {"time": 1048, "pitch": 66, "duration": 2, "velocity": 113}, {"time": 1051, "pitch": 57, "duration": 6, "velocity": 88}, {"time": 1054, "pitch": 61, "duration": 3, "velocity": 100}, {"time": 1057, "pitch": 47, "duration": 21, "velocity": 115}, {"time": 1060, "pitch": 54, "duration": 19, "velocity": 75}, {"time": 1063, "pitch": 59, "duration": 16, "velocity": 91}, {"time": 1066, "pitch": 63, "duration": 2, "velocity": 100}, {"time": 1069, "pitch": 71, "duration": 3, "velocity": 113}, {"time": 1072, "pitch": 66, "duration": 2, "velocity": 98}, {"time": 1075, "pitch": 63, "duration": 6, "velocity": 109}, {"time": 1078, "pitch": 66, "duration": 3, "velocity": 111}, {"time": 1081, "pitch": 52, "duration": 20, "velocity": 79}, {"time": 1084, "pitch": 59, "duration": 18, "velocity": 71}, {"time": 1087, "pitch": 64, "duration": 11, "velocity": 77}, {"time": 1090, "pitch": 68, "duration": 2, "velocity": 69}, {"time": 1093, "pitch": 69, "duration": 9, "velocity": 91}, {"time": 1099, "pitch": 64, "duration": 2, "velocity": 69}, {"time": 1102, "pitch": 52, "duration": 13, "velocity": 73}, {"time": 1102, "pitch": 68, "duration": 12, "velocity": 73}, {"time": 1129, "pitch": 52, "duration": 22, "velocity": 109}, {"time": 1132, "pitch": 59, "duration": 15, "velocity": 88}, {"time": 1135, "pitch": 64, "duration": 11, "velocity": 100}, {"time": 1138, "pitch": 68, "duration": 2, "velocity": 106}, {"time": 1141, "pitch": 68, "duration": 1, "velocity": 49}, {"time": 1141, "pitch": 71, "duration": 2, "velocity": 109}, {"time": 1144, "pitch": 76, "duration": 3, "velocity": 95}, {"time": 1147, "pitch": 68, "duration": 6, "velocity": 98}, {"time": 1150, "pitch": 71, "duration": 3, "velocity": 76}, {"time": 1153, "pitch": 51, "duration": 23, "velocity": 103}, {"time": 1156, "pitch": 57, "duration": 18, "velocity": 98}, {"time": 1159, "pitch": 63, "duration": 15, "velocity": 91}, {"time": 1162, "pitch": 66, "duration": 4, "velocity": 75}, {"time": 1165, "pitch": 71, "duration": 2, "velocity": 111}, {"time": 1168, "pitch": 73, "duration": 3, "velocity": 88}, {"time": 1171, "pitch": 66, "duration": 6, "velocity": 76}, {"time": 1174, "pitch": 71, "duration": 3, "velocity": 95}, {"time": 1177, "pitch": 49, "duration": 23, "velocity": 109}, {"time": 1180, "pitch": 56, "duration": 17, "velocity": 82}, {"time": 1183, "pitch": 61, "duration": 12, "velocity": 79}, {"time": 1186, "pitch": 64, "duration": 2, "velocity": 100}, {"time": 1189, "pitch": 68, "duration": 3, "velocity": 103}, {"time": 1192, "pitch": 73, "duration": 2, "velocity": 106}, {"time": 1195, "pitch": 64, "duration": 6, "velocity": 82}, {"time": 1198, "pitch": 68, "duration": 3, "velocity": 70}, {"time": 1201, "pitch": 47, "duration": 23, "velocity": 109}, {"time": 1204, "pitch": 54, "duration": 18, "velocity": 77}, {"time": 1207, "pitch": 59, "duration": 14, "velocity": 75}, {"time": 1210, "pitch": 63, "duration": 2, "velocity": 98}, {"time": 1213, "pitch": 63, "duration": 1, "velocity": 60}, {"time": 1213, "pitch": 66, "duration": 3, "velocity": 109}, {"time": 1216, "pitch": 71, "duration": 3, "velocity": 79}, {"time": 1219, "pitch": 63, "duration": 6, "velocity": 77}, {"time": 1222, "pitch": 66, "duration": 3, "velocity": 91}, {"time": 1225, "pitch": 45, "duration": 17, "velocity": 113}, {"time": 1228, "pitch": 52, "duration": 15, "velocity": 73}, {"time": 1231, "pitch": 57, "duration": 12, "velocity": 77}, {"time": 1234, "pitch": 61, "duration": 6, "velocity": 95}, {"time": 1237, "pitch": 64, "duration": 3, "velocity": 100}, {"time": 1240, "pitch": 69, "duration": 2, "velocity": 100}, {"time": 1243, "pitch": 61, "duration": 6, "velocity": 79}, {"time": 1246, "pitch": 64, "duration": 3, "velocity": 82}, {"time": 1249, "pitch": 56, "duration": 23, "velocity": 111}, {"time": 1252, "pitch": 63, "duration": 16, "velocity": 88}, {"time": 1255, "pitch": 68, "duration": 12, "velocity": 95}, {"time": 1258, "pitch": 71, "duration": 6, "velocity": 98}, {"time": 1261, "pitch": 75, "duration": 3, "velocity": 109}, {"time": 1264, "pitch": 80, "duration": 3, "velocity": 95}, {"time": 1267, "pitch": 71, "duration": 6, "velocity": 85}, {"time": 1270, "pitch": 75, "duration": 3, "velocity": 82}, {"time": 1273, "pitch": 54, "duration": 21, "velocity": 109}, {"time": 1276, "pitch": 61, "duration": 14, "velocity": 85}, {"time": 1279, "pitch": 66, "duration": 4, "velocity": 98}, {"time": 1282, "pitch": 69, "duration": 6, "velocity": 106}, {"time": 1285, "pitch": 66, "duration": 4, "velocity": 95}, {"time": 1288, "pitch": 78, "duration": 2, "velocity": 106}, {"time": 1291, "pitch": 69, "duration": 6, "velocity": 85}, {"time": 1291, "pitch": 78, "duration": 2, "velocity": 62}, {"time": 1294, "pitch": 73, "duration": 3, "velocity": 95}, {"time": 1297, "pitch": 47, "duration": 25, "velocity": 113}, {"time": 1300, "pitch": 54, "duration": 22, "velocity": 91}, {"time": 1303, "pitch": 59, "duration": 19, "velocity": 77}, {"time": 1306, "pitch": 63, "duration": 6, "velocity": 95}, {"time": 1309, "pitch": 66, "duration": 3, "velocity": 73}, {"time": 1312, "pitch": 71, "duration": 3, "velocity": 79}, {"time": 1315, "pitch": 63, "duration": 6, "velocity": 100}, {"time": 1318, "pitch": 66, "duration": 3, "velocity": 45}, {"time": 1321, "pitch": 52, "duration": 19, "velocity": 106}, {"time": 1324, "pitch": 59, "duration": 12, "velocity": 82}, {"time": 1327, "pitch": 64, "duration": 8, "velocity": 95}, {"time": 1330, "pitch": 68, "duration": 12, "velocity": 120}, {"time": 1342, "pitch": 51, "duration": 10, "velocity": 115}, {"time": 1348, "pitch": 63, "duration": 3, "velocity": 56}, {"time": 1351, "pitch": 68, "duration": 3, "velocity": 79}, {"time": 1354, "pitch": 44, "duration": 8, "velocity": 111}, {"time": 1360, "pitch": 56, "duration": 3, "velocity": 69}, {"time": 1369, "pitch": 49, "duration": 20, "velocity": 106}, {"time": 1372, "pitch": 56, "duration": 14, "velocity": 73}, {"time": 1375, "pitch": 61, "duration": 4, "velocity": 72}, {"time": 1378, "pitch": 64, "duration": 15, "velocity": 106}, {"time": 1393, "pitch": 59, "duration": 18, "velocity": 75}, {"time": 1393, "pitch": 62, "duration": 18, "velocity": 71}, {"time": 1393, "pitch": 65, "duration": 18, "velocity": 68}, {"time": 1417, "pitch": 45, "duration": 22, "velocity": 103}, {"time": 1420, "pitch": 52, "duration": 18, "velocity": 65}, {"time": 1423, "pitch": 57, "duration": 16, "velocity": 66}, {"time": 1426, "pitch": 61, "duration": 16, "velocity": 103}, {"time": 1441, "pitch": 47, "duration": 18, "velocity": 82}, {"time": 1444, "pitch": 54, "duration": 14, "velocity": 60}, {"time": 1447, "pitch": 59, "duration": 4, "velocity": 59}, {"time": 1450, "pitch": 63, "duration": 7, "velocity": 77}, {"time": 1453, "pitch": 59, "duration": 5, "velocity": 60}, {"time": 1456, "pitch": 66, "duration": 8, "velocity": 91}, {"time": 1465, "pitch": 40, "duration": 28, "velocity": 91}, {"time": 1468, "pitch": 47, "duration": 25, "velocity": 39}, {"time": 1471, "pitch": 52, "duration": 15, "velocity": 47}, {"time": 1474, "pitch": 56, "duration": 6, "velocity": 85}, {"time": 1480, "pitch": 64, "duration": 8, "velocity": 79}, {"time": 1489, "pitch": 52, "duration": 4, "velocity": 62}, {"time": 1489, "pitch": 56, "duration": 5, "velocity": 69}, {"time": 1489, "pitch": 59, "duration": 5, "velocity": 70}, {"time": 1489, "pitch": 64, "duration": 5, "velocity": 75}, {"time": 1513, "pitch": 45, "duration": 21, "velocity": 109}, {"time": 1516, "pitch": 52, "duration": 16, "velocity": 70}, {"time": 1519, "pitch": 57, "duration": 4, "velocity": 76}, {"time": 1522, "pitch": 61, "duration": 6, "velocity": 106}, {"time": 1525, "pitch": 57, "duration": 7, "velocity": 73}, {"time": 1528, "pitch": 64, "duration": 2, "velocity": 75}, {"time": 1531, "pitch": 61, "duration": 6, "velocity": 73}, {"time": 1537, "pitch": 45, "duration": 20, "velocity": 109}, {"time": 1540, "pitch": 52, "duration": 18, "velocity": 71}, {"time": 1543, "pitch": 57, "duration": 15, "velocity": 77}, {"time": 1546, "pitch": 64, "duration": 3, "velocity": 60}, {"time": 1549, "pitch": 71, "duration": 6, "velocity": 111}, {"time": 1555, "pitch": 64, "duration": 6, "velocity": 71}, {"time": 1561, "pitch": 44, "duration": 15, "velocity": 103}, {"time": 1564, "pitch": 51, "duration": 13, "velocity": 49}, {"time": 1567, "pitch": 56, "duration": 11, "velocity": 72}, {"time": 1570, "pitch": 59, "duration": 2, "velocity": 106}, {"time": 1573, "pitch": 68, "duration": 3, "velocity": 106}, {"time": 1576, "pitch": 59, "duration": 7, "velocity": 77}, {"time": 1579, "pitch": 63, "duration": 2, "velocity": 70}, {"time": 1582, "pitch": 68, "duration": 2, "velocity": 61}, {"time": 1585, "pitch": 49, "duration": 17, "velocity": 100}, {"time": 1588, "pitch": 56, "duration": 15, "velocity": 56}, {"time": 1591, "pitch": 61, "duration": 13, "velocity": 69}, {"time": 1594, "pitch": 64, "duration": 2, "velocity": 82}, {"time": 1597, "pitch": 73, "duration": 3, "velocity": 103}, {"time": 1600, "pitch": 64, "duration": 8, "velocity": 77}, {"time": 1603, "pitch": 68, "duration": 3, "velocity": 67}, {"time": 1606, "pitch": 73, "duration": 2, "velocity": 36}, {"time": 1609, "pitch": 54, "duration": 18, "velocity": 106}, {"time": 1612, "pitch": 61, "duration": 14, "velocity": 71}, {"time": 1615, "pitch": 66, "duration": 4, "velocity": 91}, {"time": 1618, "pitch": 69, "duration": 6, "velocity": 106}, {"time": 1621, "pitch": 66, "duration": 4, "velocity": 85}, {"time": 1624, "pitch": 78, "duration": 3, "velocity": 106}, {"time": 1627, "pitch": 73, "duration": 2, "velocity": 73}, {"time": 1630, "pitch": 69, "duration": 4, "velocity": 70}, {"time": 1633, "pitch": 54, "duration": 17, "velocity": 106}, {"time": 1636, "pitch": 61, "duration": 13, "velocity": 70}, {"time": 1639, "pitch": 66, "duration": 9, "velocity": 73}, {"time": 1642, "pitch": 69, "duration": 3, "velocity": 60}, {"time": 1645, "pitch": 76, "duration": 3, "velocity": 113}, {"time": 1648, "pitch": 73, "duration": 3, "velocity": 79}, {"time": 1651, "pitch": 69, "duration": 5, "velocity": 79}, {"time": 1654, "pitch": 73, "duration": 2, "velocity": 79}, {"time": 1657, "pitch": 47, "duration": 16, "velocity": 111}, {"time": 1660, "pitch": 54, "duration": 7, "velocity": 75}, {"time": 1663, "pitch": 59, "duration": 3, "velocity": 85}, {"time": 1666, "pitch": 63, "duration": 5, "velocity": 103}, {"time": 1669, "pitch": 54, "duration": 5, "velocity": 60}, {"time": 1669, "pitch": 59, "duration": 5, "velocity": 95}, {"time": 1672, "pitch": 71, "duration": 2, "velocity": 103}, {"time": 1675, "pitch": 66, "duration": 2, "velocity": 98}, {"time": 1678, "pitch": 63, "duration": 2, "velocity": 106}, {"time": 1681, "pitch": 47, "duration": 5, "velocity": 109}, {"time": 1681, "pitch": 63, "duration": 7, "velocity": 95}, {"time": 1681, "pitch": 66, "duration": 7, "velocity": 100}, {"time": 1681, "pitch": 71, "duration": 7, "velocity": 103}, {"time": 1705, "pitch": 52, "duration": 23, "velocity": 113}, {"time": 1708, "pitch": 59, "duration": 8, "velocity": 82}, {"time": 1711, "pitch": 64, "duration": 4, "velocity": 91}, {"time": 1714, "pitch": 68, "duration": 6, "velocity": 113}, {"time": 1717, "pitch": 59, "duration": 9, "velocity": 70}, {"time": 1717, "pitch": 64, "duration": 6, "velocity": 106}, {"time": 1720, "pitch": 76, "duration": 3, "velocity": 109}, {"time": 1723, "pitch": 71, "duration": 2, "velocity": 98}, {"time": 1726, "pitch": 68, "duration": 3, "velocity": 103}, {"time": 1729, "pitch": 51, "duration": 22, "velocity": 106}, {"time": 1732, "pitch": 59, "duration": 17, "velocity": 103}, {"time": 1735, "pitch": 66, "duration": 2, "velocity": 91}, {"time": 1738, "pitch": 71, "duration": 3, "velocity": 100}, {"time": 1741, "pitch": 75, "duration": 7, "velocity": 113}, {"time": 1747, "pitch": 71, "duration": 2, "velocity": 72}, {"time": 1750, "pitch": 66, "duration": 3, "velocity": 70}, {"time": 1753, "pitch": 49, "duration": 23, "velocity": 106}, {"time": 1756, "pitch": 56, "duration": 20, "velocity": 71}, {"time": 1759, "pitch": 61, "duration": 5, "velocity": 65}, {"time": 1762, "pitch": 64, "duration": 5, "velocity": 85}, {"time": 1765, "pitch": 61, "duration": 10, "velocity": 100}, {"time": 1768, "pitch": 73, "duration": 4, "velocity": 103}, {"time": 1771, "pitch": 68, "duration": 2, "velocity": 72}, {"time": 1774, "pitch": 64, "duration": 2, "velocity": 98}, {"time": 1777, "pitch": 47, "duration": 23, "velocity": 106}, {"time": 1780, "pitch": 54, "duration": 8, "velocity": 85}, {"time": 1783, "pitch": 59, "duration": 4, "velocity": 71}, {"time": 1786, "pitch": 63, "duration": 5, "velocity": 111}, {"time": 1789, "pitch": 54, "duration": 7, "velocity": 70}, {"time": 1789, "pitch": 59, "duration": 6, "velocity": 100}, {"time": 1792, "pitch": 71, "duration": 3, "velocity": 103}, {"time": 1795, "pitch": 66, "duration": 2, "velocity": 91}, {"time": 1798, "pitch": 63, "duration": 3, "velocity": 95}, {"time": 1801, "pitch": 45, "duration": 23, "velocity": 113}, {"time": 1804, "pitch": 52, "duration": 3, "velocity": 65}, {"time": 1807, "pitch": 52, "duration": 4, "velocity": 44}, {"time": 1807, "pitch": 57, "duration": 4, "velocity": 75}, {"time": 1810, "pitch": 61, "duration": 6, "velocity": 111}, {"time": 1813, "pitch": 52, "duration": 7, "velocity": 69}, {"time": 1813, "pitch": 57, "duration": 7, "velocity": 95}, {"time": 1816, "pitch": 69, "duration": 3, "velocity": 109}, {"time": 1819, "pitch": 64, "duration": 2, "velocity": 79}, {"time": 1822, "pitch": 61, "duration": 3, "velocity": 98}, {"time": 1825, "pitch": 44, "duration": 20, "velocity": 106}, {"time": 1828, "pitch": 51, "duration": 18, "velocity": 70}, {"time": 1831, "pitch": 56, "duration": 15, "velocity": 88}, {"time": 1834, "pitch": 59, "duration": 4, "velocity": 103}, {"time": 1837, "pitch": 66, "duration": 3, "velocity": 111}, {"time": 1840, "pitch": 63, "duration": 3, "velocity": 69}, {"time": 1843, "pitch": 59, "duration": 6, "velocity": 71}, {"time": 1846, "pitch": 63, "duration": 3, "velocity": 77}, {"time": 1849, "pitch": 42, "duration": 17, "velocity": 113}, {"time": 1852, "pitch": 49, "duration": 15, "velocity": 68}, {"time": 1855, "pitch": 54, "duration": 4, "velocity": 75}, {"time": 1858, "pitch": 57, "duration": 6, "velocity": 95}, {"time": 1861, "pitch": 54, "duration": 9, "velocity": 91}, {"time": 1864, "pitch": 66, "duration": 3, "velocity": 113}, {"time": 1867, "pitch": 57, "duration": 6, "velocity": 88}, {"time": 1870, "pitch": 61, "duration": 4, "velocity": 100}, {"time": 1873, "pitch": 47, "duration": 21, "velocity": 115}, {"time": 1876, "pitch": 54, "duration": 19, "velocity": 75}, {"time": 1879, "pitch": 59, "duration": 16, "velocity": 91}, {"time": 1882, "pitch": 63, "duration": 3, "velocity": 100}, {"time": 1885, "pitch": 71, "duration": 3, "velocity": 113}, {"time": 1888, "pitch": 66, "duration": 3, "velocity": 98}, {"time": 1891, "pitch": 63, "duration": 6, "velocity": 109}, {"time": 1894, "pitch": 66, "duration": 3, "velocity": 111}, {"time": 1897, "pitch": 52, "duration": 22, "velocity": 115}, {"time": 1900, "pitch": 59, "duration": 7, "velocity": 82}, {"time": 1903, "pitch": 64, "duration": 3, "velocity": 91}, {"time": 1906, "pitch": 68, "duration": 5, "velocity": 113}, {"time": 1909, "pitch": 59, "duration": 9, "velocity": 70}, {"time": 1909, "pitch": 64, "duration": 5, "velocity": 106}, {"time": 1912, "pitch": 76, "duration": 2, "velocity": 109}, {"time": 1915, "pitch": 71, "duration": 2, "velocity": 98}, {"time": 1918, "pitch": 68, "duration": 3, "velocity": 103}, {"time": 1921, "pitch": 51, "duration": 21, "velocity": 106}, {"time": 1924, "pitch": 59, "duration": 17, "velocity": 103}, {"time": 1927, "pitch": 66, "duration": 2, "velocity": 91}, {"time": 1930, "pitch": 71, "duration": 2, "velocity": 100}, {"time": 1933, "pitch": 75, "duration": 6, "velocity": 113}, {"time": 1939, "pitch": 71, "duration": 2, "velocity": 72}, {"time": 1942, "pitch": 66, "duration": 3, "velocity": 70}, {"time": 1945, "pitch": 49, "duration": 22, "velocity": 106}, {"time": 1948, "pitch": 56, "duration": 19, "velocity": 71}, {"time": 1951, "pitch": 61, "duration": 4, "velocity": 65}, {"time": 1954, "pitch": 64, "duration": 4, "velocity": 85}, {"time": 1957, "pitch": 61, "duration": 10, "velocity": 100}, {"time": 1960, "pitch": 73, "duration": 3, "velocity": 103}, {"time": 1963, "pitch": 68, "duration": 1, "velocity": 72}, {"time": 1966, "pitch": 64, "duration": 1, "velocity": 98}, {"time": 1969, "pitch": 47, "duration": 22, "velocity": 106}, {"time": 1972, "pitch": 54, "duration": 7, "velocity": 85}, {"time": 1975, "pitch": 59, "duration": 3, "velocity": 71}, {"time": 1978, "pitch": 63, "duration": 5, "velocity": 111}, {"time": 1981, "pitch": 54, "duration": 6, "velocity": 70}, {"time": 1981, "pitch": 59, "duration": 6, "velocity": 100}, {"time": 1984, "pitch": 71, "duration": 2, "velocity": 103}, {"time": 1987, "pitch": 66, "duration": 2, "velocity": 91}, {"time": 1990, "pitch": 63, "duration": 3, "velocity": 95}, {"time": 1993, "pitch": 45, "duration": 23, "velocity": 113}, {"time": 1996, "pitch": 52, "duration": 2, "velocity": 65}, {"time": 1999, "pitch": 52, "duration": 4, "velocity": 44}, {"time": 1999, "pitch": 57, "duration": 3, "velocity": 75}, {"time": 2002, "pitch": 61, "duration": 5, "velocity": 111}, {"time": 2005, "pitch": 52, "duration": 6, "velocity": 69}, {"time": 2005, "pitch": 57, "duration": 6, "velocity": 95}, {"time": 2008, "pitch": 69, "duration": 2, "velocity": 109}, {"time": 2011, "pitch": 64, "duration": 2, "velocity": 79}, {"time": 2014, "pitch": 61, "duration": 3, "velocity": 98}, {"time": 2017, "pitch": 44, "duration": 19, "velocity": 106}, {"time": 2020, "pitch": 51, "duration": 17, "velocity": 70}, {"time": 2023, "pitch": 56, "duration": 15, "velocity": 88}, {"time": 2026, "pitch": 59, "duration": 3, "velocity": 103}, {"time": 2029, "pitch": 66, "duration": 2, "velocity": 111}, {"time": 2032, "pitch": 63, "duration": 3, "velocity": 69}, {"time": 2035, "pitch": 59, "duration": 5, "velocity": 71}, {"time": 2038, "pitch": 63, "duration": 2, "velocity": 77}, {"time": 2041, "pitch": 42, "duration": 17, "velocity": 113}, {"time": 2044, "pitch": 49, "duration": 15, "velocity": 68}, {"time": 2047, "pitch": 54, "duration": 4, "velocity": 75}, {"time": 2050, "pitch": 57, "duration": 5, "velocity": 95}, {"time": 2053, "pitch": 54, "duration": 9, "velocity": 91}, {"time": 2056, "pitch": 66, "duration": 2, "velocity": 113}, {"time": 2059, "pitch": 57, "duration": 5, "velocity": 88}, {"time": 2062, "pitch": 61, "duration": 3, "velocity": 100}, {"time": 2065, "pitch": 47, "duration": 21, "velocity": 115}, {"time": 2068, "pitch": 54, "duration": 19, "velocity": 75}, {"time": 2071, "pitch": 59, "duration": 15, "velocity": 91}, {"time": 2074, "pitch": 63, "duration": 2, "velocity": 100}, {"time": 2077, "pitch": 71, "duration": 2, "velocity": 113}, {"time": 2080, "pitch": 66, "duration": 2, "velocity": 98}, {"time": 2083, "pitch": 63, "duration": 6, "velocity": 109}, {"time": 2086, "pitch": 66, "duration": 3, "velocity": 111}, {"time": 2089, "pitch": 52, "duration": 3, "velocity": 79}, {"time": 2113, "pitch": 53, "duration": 22, "velocity": 113}, {"time": 2116, "pitch": 60, "duration": 7, "velocity": 82}, {"time": 2119, "pitch": 65, "duration": 3, "velocity": 91}, {"time": 2122, "pitch": 69, "duration": 5, "velocity": 113}, {"time": 2125, "pitch": 60, "duration": 9, "velocity": 70}, {"time": 2125, "pitch": 65, "duration": 6, "velocity": 106}, {"time": 2128, "pitch": 77, "duration": 2, "velocity": 109}, {"time": 2131, "pitch": 72, "duration": 2, "velocity": 98}, {"time": 2134, "pitch": 69, "duration": 3, "velocity": 103}, {"time": 2137, "pitch": 52, "duration": 21, "velocity": 106}, {"time": 2140, "pitch": 60, "duration": 17, "velocity": 103}, {"time": 2143, "pitch": 67, "duration": 2, "velocity": 91}, {"time": 2146, "pitch": 72, "duration": 2, "velocity": 100}, {"time": 2149, "pitch": 76, "duration": 7, "velocity": 113}, {"time": 2155, "pitch": 72, "duration": 2, "velocity": 72}, {"time": 2158, "pitch": 67, "duration": 3, "velocity": 70}, {"time": 2161, "pitch": 50, "duration": 22, "velocity": 106}, {"time": 2164, "pitch": 57, "duration": 19, "velocity": 71}, {"time": 2167, "pitch": 62, "duration": 4, "velocity": 65}, {"time": 2170, "pitch": 65, "duration": 4, "velocity": 85}, {"time": 2173, "pitch": 62, "duration": 10, "velocity": 100}, {"time": 2176, "pitch": 74, "duration": 3, "velocity": 103}, {"time": 2179, "pitch": 69, "duration": 2, "velocity": 72}, {"time": 2182, "pitch": 65, "duration": 1, "velocity": 98}, {"time": 2185, "pitch": 48, "duration": 22, "velocity": 106}, {"time": 2188, "pitch": 55, "duration": 7, "velocity": 85}, {"time": 2191, "pitch": 60, "duration": 3, "velocity": 71}, {"time": 2194, "pitch": 64, "duration": 5, "velocity": 111}, {"time": 2197, "pitch": 55, "duration": 6, "velocity": 70}, {"time": 2197, "pitch": 60, "duration": 6, "velocity": 100}, {"time": 2200, "pitch": 72, "duration": 2, "velocity": 103}, {"time": 2203, "pitch": 67, "duration": 2, "velocity": 91}, {"time": 2206, "pitch": 64, "duration": 3, "velocity": 95}, {"time": 2209, "pitch": 46, "duration": 23, "velocity": 113}, {"time": 2212, "pitch": 53, "duration": 3, "velocity": 65}, {"time": 2215, "pitch": 53, "duration": 4, "velocity": 44}, {"time": 2215, "pitch": 58, "duration": 3, "velocity": 75}, {"time": 2218, "pitch": 62, "duration": 5, "velocity": 111}, {"time": 2221, "pitch": 53, "duration": 6, "velocity": 69}, {"time": 2221, "pitch": 58, "duration": 6, "velocity": 95}, {"time": 2224, "pitch": 70, "duration": 2, "velocity": 109}, {"time": 2227, "pitch": 65, "duration": 2, "velocity": 79}, {"time": 2230, "pitch": 62, "duration": 3, "velocity": 98}, {"time": 2233, "pitch": 45, "duration": 20, "velocity": 106}, {"time": 2236, "pitch": 52, "duration": 17, "velocity": 70}, {"time": 2239, "pitch": 57, "duration": 15, "velocity": 88}, {"time": 2242, "pitch": 60, "duration": 3, "velocity": 103}, {"time": 2245, "pitch": 67, "duration": 2, "velocity": 111}, {"time": 2248, "pitch": 64, "duration": 3, "velocity": 69}, {"time": 2251, "pitch": 60, "duration": 5, "velocity": 71}, {"time": 2254, "pitch": 64, "duration": 2, "velocity": 77}, {"time": 2257, "pitch": 43, "duration": 17, "velocity": 113}, {"time": 2260, "pitch": 50, "duration": 15, "velocity": 68}, {"time": 2263, "pitch": 55, "duration": 4, "velocity": 75}, {"time": 2266, "pitch": 58, "duration": 5, "velocity": 95}, {"time": 2269, "pitch": 55, "duration": 9, "velocity": 91}, {"time": 2272, "pitch": 67, "duration": 2, "velocity": 113}, {"time": 2275, "pitch": 58, "duration": 6, "velocity": 88}, {"time": 2278, "pitch": 62, "duration": 3, "velocity": 100}, {"time": 2281, "pitch": 48, "duration": 21, "velocity": 115}, {"time": 2284, "pitch": 55, "duration": 19, "velocity": 75}, {"time": 2287, "pitch": 60, "duration": 15, "velocity": 91}, {"time": 2290, "pitch": 64, "duration": 2, "velocity": 100}, {"time": 2293, "pitch": 72, "duration": 2, "velocity": 113}, {"time": 2296, "pitch": 67, "duration": 2, "velocity": 98}, {"time": 2299, "pitch": 64, "duration": 6, "velocity": 109}, {"time": 2302, "pitch": 67, "duration": 3, "velocity": 111}, {"time": 2305, "pitch": 53, "duration": 22, "velocity": 115}, {"time": 2308, "pitch": 60, "duration": 7, "velocity": 82}, {"time": 2311, "pitch": 65, "duration": 3, "velocity": 91}, {"time": 2314, "pitch": 69, "duration": 5, "velocity": 113}, {"time": 2317, "pitch": 60, "duration": 9, "velocity": 70}, {"time": 2317, "pitch": 65, "duration": 6, "velocity": 106}, {"time": 2320, "pitch": 77, "duration": 2, "velocity": 109}, {"time": 2323, "pitch": 72, "duration": 2, "velocity": 98}, {"time": 2326, "pitch": 69, "duration": 3, "velocity": 103}, {"time": 2329, "pitch": 52, "duration": 21, "velocity": 106}, {"time": 2332, "pitch": 60, "duration": 17, "velocity": 103}, {"time": 2335, "pitch": 67, "duration": 2, "velocity": 91}, {"time": 2338, "pitch": 72, "duration": 2, "velocity": 100}, {"time": 2341, "pitch": 76, "duration": 7, "velocity": 113}, {"time": 2347, "pitch": 72, "duration": 2, "velocity": 72}, {"time": 2350, "pitch": 67, "duration": 3, "velocity": 70}, {"time": 2353, "pitch": 50, "duration": 22, "velocity": 106}, {"time": 2356, "pitch": 57, "duration": 19, "velocity": 71}, {"time": 2359, "pitch": 62, "duration": 4, "velocity": 65}, {"time": 2362, "pitch": 65, "duration": 4, "velocity": 85}, {"time": 2365, "pitch": 62, "duration": 10, "velocity": 100}, {"time": 2368, "pitch": 74, "duration": 3, "velocity": 103}, {"time": 2371, "pitch": 69, "duration": 2, "velocity": 72}, {"time": 2374, "pitch": 65, "duration": 1, "velocity": 98}, {"time": 2377, "pitch": 48, "duration": 22, "velocity": 106}, {"time": 2380, "pitch": 55, "duration": 7, "velocity": 85}, {"time": 2383, "pitch": 60, "duration": 3, "velocity": 71}, {"time": 2386, "pitch": 64, "duration": 5, "velocity": 111}, {"time": 2389, "pitch": 55, "duration": 6, "velocity": 70}, {"time": 2389, "pitch": 60, "duration": 6, "velocity": 100}, {"time": 2392, "pitch": 72, "duration": 2, "velocity": 103}, {"time": 2395, "pitch": 67, "duration": 2, "velocity": 91}, {"time": 2398, "pitch": 64, "duration": 3, "velocity": 95}, {"time": 2401, "pitch": 46, "duration": 23, "velocity": 113}, {"time": 2404, "pitch": 53, "duration": 3, "velocity": 65}, {"time": 2407, "pitch": 53, "duration": 4, "velocity": 44}, {"time": 2407, "pitch": 58, "duration": 3, "velocity": 75}, {"time": 2410, "pitch": 62, "duration": 5, "velocity": 111}, {"time": 2413, "pitch": 53, "duration": 6, "velocity": 69}, {"time": 2413, "pitch": 58, "duration": 6, "velocity": 95}, {"time": 2416, "pitch": 70, "duration": 2, "velocity": 109}, {"time": 2419, "pitch": 65, "duration": 2, "velocity": 79}, {"time": 2422, "pitch": 62, "duration": 3, "velocity": 98}, {"time": 2425, "pitch": 45, "duration": 1, "velocity": 106}, {"time": 2425, "pitch": 45, "duration": 1, "velocity": 98}, {"time": 2428, "pitch": 52, "duration": 2, "velocity": 58}, {"time": 2431, "pitch": 57, "duration": 2, "velocity": 66}, {"time": 2434, "pitch": 50, "duration": 10, "velocity": 109}, {"time": 2437, "pitch": 57, "duration": 6, "velocity": 75}, {"time": 2440, "pitch": 62, "duration": 3, "velocity": 51}, {"time": 2443, "pitch": 65, "duration": 5, "velocity": 77}, {"time": 2446, "pitch": 69, "duration": 2, "velocity": 14}, {"time": 2449, "pitch": 43, "duration": 19, "velocity": 91}, {"time": 2452, "pitch": 50, "duration": 16, "velocity": 62}, {"time": 2455, "pitch": 55, "duration": 4, "velocity": 70}, {"time": 2458, "pitch": 58, "duration": 6, "velocity": 68}, {"time": 2461, "pitch": 55, "duration": 9, "velocity": 68}, {"time": 2464, "pitch": 67, "duration": 4, "velocity": 72}, {"time": 2467, "pitch": 58, "duration": 6, "velocity": 63}, {"time": 2470, "pitch": 62, "duration": 3, "velocity": 68}, {"time": 2473, "pitch": 48, "duration": 18, "velocity": 91}, {"time": 2476, "pitch": 55, "duration": 14, "velocity": 65}, {"time": 2479, "pitch": 60, "duration": 4, "velocity": 64}, {"time": 2482, "pitch": 64, "duration": 15, "velocity": 91}, {"time": 2485, "pitch": 60, "duration": 5, "velocity": 60}, {"time": 2497, "pitch": 41, "duration": 31, "velocity": 95}, {"time": 2500, "pitch": 48, "duration": 27, "velocity": 12}, {"time": 2503, "pitch": 53, "duration": 3, "velocity": 53}, {"time": 2506, "pitch": 57, "duration": 6, "velocity": 68}, {"time": 2509, "pitch": 53, "duration": 19, "velocity": 62}, {"time": 2512, "pitch": 60, "duration": 3, "velocity": 69}, {"time": 2515, "pitch": 57, "duration": 7, "velocity": 64}, {"time": 2521, "pitch": 65, "duration": 8, "velocity": 54}, {"time": 2545, "pitch": 65, "duration": 10, "velocity": 75}, {"time": 2545, "pitch": 72, "duration": 10, "velocity": 75}, {"time": 2557, "pitch": 65, "duration": 10, "velocity": 70}, {"time": 2557, "pitch": 72, "duration": 10, "velocity": 72}, {"time": 2569, "pitch": 65, "duration": 10, "velocity": 70}, {"time": 2569, "pitch": 72, "duration": 10, "velocity": 71}, {"time": 2581, "pitch": 65, "duration": 11, "velocity": 73}, {"time": 2581, "pitch": 72, "duration": 11, "velocity": 91}, {"time": 2593, "pitch": 62, "duration": 9, "velocity": 71}, {"time": 2593, "pitch": 65, "duration": 9, "velocity": 70}, {"time": 2605, "pitch": 62, "duration": 10, "velocity": 68}, {"time": 2605, "pitch": 65, "duration": 10, "velocity": 68}, {"time": 2617, "pitch": 60, "duration": 11, "velocity": 75}, {"time": 2617, "pitch": 64, "duration": 11, "velocity": 77}, {"time": 2629, "pitch": 60, "duration": 11, "velocity": 77}, {"time": 2629, "pitch": 64, "duration": 11, "velocity": 95}, {"time": 2641, "pitch": 58, "duration": 11, "velocity": 91}, {"time": 2641, "pitch": 62, "duration": 11, "velocity": 88}, {"time": 2653, "pitch": 58, "duration": 12, "velocity": 88}, {"time": 2653, "pitch": 62, "duration": 12, "velocity": 103}, {"time": 2665, "pitch": 57, "duration": 9, "velocity": 100}, {"time": 2665, "pitch": 60, "duration": 9, "velocity": 103}, {"time": 2677, "pitch": 57, "duration": 12, "velocity": 85}, {"time": 2677, "pitch": 60, "duration": 12, "velocity": 100}, {"time": 2688, "pitch": 55, "duration": 2, "velocity": 68}, {"time": 2688, "pitch": 58, "duration": 2, "velocity": 70}, {"time": 2689, "pitch": 65, "duration": 22, "velocity": 69}, {"time": 2713, "pitch": 60, "duration": 10, "velocity": 59}, {"time": 2713, "pitch": 62, "duration": 10, "velocity": 64}, {"time": 2713, "pitch": 67, "duration": 10, "velocity": 64}, {"time": 2725, "pitch": 64, "duration": 13, "velocity": 52}, {"time": 2725, "pitch": 67, "duration": 13, "velocity": 54}, {"time": 2737, "pitch": 53, "duration": 26, "velocity": 53}, {"time": 2737, "pitch": 60, "duration": 24, "velocity": 52}, {"time": 2737, "pitch": 65, "duration": 24, "velocity": 52}], "annotations": [{"time": 25, "annotation": {"number": 64, "value": 74}, "group": "control_change"}, {"time": 25, "annotation": {"number": 64, "value": 127}, "group": "control_change"}, {"time": 47, "annotation": {"number": 64, "value": 0}, "group": "control_change"}, {"time": 49, "annotation": {"number": 64, "value": 127}, "group": "control_change"}, {"time": 71, "annotation": {"number": 64, "value": 0}, "group": "control_change"}, {"time": 72, "annotation": {"number": 64, "value": 38}, "group": "control_change"}, {"time": 72, "annotation": {"number": 64, "value": 127}, "group": "control_change"}, {"time": 95, "annotation": {"number": 64, "value": 0}, "group": "control_change"}, {"time": 96, "annotation": {"number": 64, "value": 127}, "group": "control_change"}, {"time": 117, "annotation": {"number": 64, "value": 38}, "group": "control_change"}, {"time": 117, "annotation": {"number": 64, "value": 0}, "group": "control_change"}, {"time": 120, "annotation": {"number": 64, "value": 127}, "group": "control_change"}, {"time": 169, "annotation": {"number": 64, "value": 74}, "group": "control_change"}, {"time": 169, "annotation": {"number": 64, "value": 127}, "group": "control_change"}, {"time": 215, "annotation": {"number": 64, "value": 0}, "group": "control_change"}, {"time": 216, "annotation": {"number": 64, "value": 127}, "group": "control_change"}, {"time": 227, "annotation": {"number": 64, "value": 74}, "group": "control_change"}, {"time": 227, "annotation": {"number": 64, "value": 127}, "group": "control_change"}, {"time": 263, "annotation": {"number": 64, "value": 0}, "group": "control_change"}, {"time": 264, "annotation": {"number": 64, "value": 127}, "group": "control_change"}, {"time": 272, "annotation": {"number": 64, "value": 38}, "group": "control_change"}, {"time": 272, "annotation": {"number": 64, "value": 127}, "group": "control_change"}, {"time": 299, "annotation": {"number": 64, "value": 0}, "group": "control_change"}, {"time": 307, "annotation": {"number": 64, "value": 38}, "group": "control_change"}, {"time": 307, "annotation": {"number": 64, "value": 0}, "group": "control_change"}, {"time": 312, "annotation": {"number": 64, "value": 38}, "group": "control_change"}, {"time": 312, "annotation": {"number": 64, "value": 127}, "group": "control_change"}, {"time": 359, "annotation": {"number": 64, "value": 0}, "group": "control_change"}, {"time": 360, "annotation": {"number": 64, "value": 127}, "group": "control_change"}, {"time": 408, "annotation": {"number": 64, "value": 0}, "group": "control_change"}, {"time": 408, "annotation": {"number": 64, "value": 74}, "group": "control_change"}, {"time": 409, "annotation": {"number": 64, "value": 127}, "group": "control_change"}, {"time": 456, "annotation": {"number": 64, "value": 0}, "group": "control_change"}, {"time": 456, "annotation": {"number": 64, "value": 127}, "group": "control_change"}, {"time": 486, "annotation": {"number": 64, "value": 0}, "group": "control_change"}, {"time": 504, "annotation": {"number": 64, "value": 127}, "group": "control_change"}, {"time": 528, "annotation": {"number": 64, "value": 0}, "group": "control_change"}, {"time": 529, "annotation": {"number": 64, "value": 127}, "group": "control_change"}, {"time": 552, "annotation": {"number": 64, "value": 127}, "group": "control_change"}, {"time": 552, "annotation": {"number": 64, "value": 0}, "group": "control_change"}, {"time": 553, "annotation": {"number": 64, "value": 127}, "group": "control_change"}, {"time": 575, "annotation": {"number": 64, "value": 0}, "group": "control_change"}, {"time": 576, "annotation": {"number": 64, "value": 127}, "group": "control_change"}, {"time": 599, "annotation": {"number": 64, "value": 0}, "group": "control_change"}, {"time": 600, "annotation": {"number": 64, "value": 74}, "group": "control_change"}, {"time": 600, "annotation": {"number": 64, "value": 127}, "group": "control_change"}, {"time": 624, "annotation": {"number": 64, "value": 0}, "group": "control_change"}, {"time": 625, "annotation": {"number": 64, "value": 38}, "group": "control_change"}, {"time": 625, "annotation": {"number": 64, "value": 127}, "group": "control_change"}, {"time": 647, "annotation": {"number": 64, "value": 0}, "group": "control_change"}, {"time": 648, "annotation": {"number": 64, "value": 74}, "group": "control_change"}, {"time": 648, "annotation": {"number": 64, "value": 127}, "group": "control_change"}, {"time": 671, "annotation": {"number": 64, "value": 0}, "group": "control_change"}, {"time": 672, "annotation": {"number": 64, "value": 74}, "group": "control_change"}, {"time": 672, "annotation": {"number": 64, "value": 127}, "group": "control_change"}, {"time": 676, "annotation": {"number": 64, "value": 0}, "group": "control_change"}, {"time": 696, "annotation": {"number": 64, "value": 127}, "group": "control_change"}, {"time": 720, "annotation": {"number": 64, "value": 0}, "group": "control_change"}, {"time": 720, "annotation": {"number": 64, "value": 127}, "group": "control_change"}, {"time": 721, "annotation": {"number": 64, "value": 74}, "group": "control_change"}, {"time": 744, "annotation": {"number": 64, "value": 0}, "group": "control_change"}, {"time": 745, "annotation": {"number": 64, "value": 127}, "group": "control_change"}, {"time": 766, "annotation": {"number": 64, "value": 0}, "group": "control_change"}, {"time": 769, "annotation": {"number": 64, "value": 38}, "group": "control_change"}, {"time": 769, "annotation": {"number": 64, "value": 127}, "group": "control_change"}, {"time": 792, "annotation": {"number": 64, "value": 0}, "group": "control_change"}, {"time": 792, "annotation": {"number": 64, "value": 74}, "group": "control_change"}, {"time": 793, "annotation": {"number": 64, "value": 127}, "group": "control_change"}, {"time": 816, "annotation": {"number": 64, "value": 0}, "group": "control_change"}, {"time": 817, "annotation": {"number": 64, "value": 127}, "group": "control_change"}, {"time": 840, "annotation": {"number": 64, "value": 0}, "group": "control_change"}, {"time": 841, "annotation": {"number": 64, "value": 127}, "group": "control_change"}, {"time": 864, "annotation": {"number": 64, "value": 0}, "group": "control_change"}, {"time": 865, "annotation": {"number": 64, "value": 127}, "group": "control_change"}, {"time": 888, "annotation": {"number": 64, "value": 0}, "group": "control_change"}, {"time": 912, "annotation": {"number": 64, "value": 0}, "group": "control_change"}, {"time": 913, "annotation": {"number": 64, "value": 127}, "group": "control_change"}, {"time": 913, "annotation": {"number": 64, "value": 74}, "group": "control_change"}, {"time": 936, "annotation": {"number": 64, "value": 0}, "group": "control_change"}, {"time": 937, "annotation": {"number": 64, "value": 127}, "group": "control_change"}, {"time": 958, "annotation": {"number": 64, "value": 0}, "group": "control_change"}, {"time": 961, "annotation": {"number": 64, "value": 38}, "group": "control_change"}, {"time": 961, "annotation": {"number": 64, "value": 127}, "group": "control_change"}, {"time": 984, "annotation": {"number": 64, "value": 0}, "group": "control_change"}, {"time": 985, "annotation": {"number": 64, "value": 74}, "group": "control_change"}, {"time": 985, "annotation": {"number": 64, "value": 127}, "group": "control_change"}, {"time": 1008, "annotation": {"number": 64, "value": 0}, "group": "control_change"}, {"time": 1009, "annotation": {"number": 64, "value": 127}, "group": "control_change"}, {"time": 1032, "annotation": {"number": 64, "value": 0}, "group": "control_change"}, {"time": 1033, "annotation": {"number": 64, "value": 127}, "group": "control_change"}, {"time": 1056, "annotation": {"number": 64, "value": 0}, "group": "control_change"}, {"time": 1057, "annotation": {"number": 64, "value": 127}, "group": "control_change"}, {"time": 1080, "annotation": {"number": 64, "value": 0}, "group": "control_change"}, {"time": 1081, "annotation": {"number": 64, "value": 38}, "group": "control_change"}, {"time": 1081, "annotation": {"number": 64, "value": 127}, "group": "control_change"}, {"time": 1101, "annotation": {"number": 64, "value": 0}, "group": "control_change"}, {"time": 1129, "annotation": {"number": 64, "value": 74}, "group": "control_change"}, {"time": 1129, "annotation": {"number": 64, "value": 127}, "group": "control_change"}, {"time": 1152, "annotation": {"number": 64, "value": 0}, "group": "control_change"}, {"time": 1153, "annotation": {"number": 64, "value": 127}, "group": "control_change"}, {"time": 1176, "annotation": {"number": 64, "value": 0}, "group": "control_change"}, {"time": 1177, "annotation": {"number": 64, "value": 38}, "group": "control_change"}, {"time": 1177, "annotation": {"number": 64, "value": 127}, "group": "control_change"}, {"time": 1200, "annotation": {"number": 64, "value": 0}, "group": "control_change"}, {"time": 1201, "annotation": {"number": 64, "value": 74}, "group": "control_change"}, {"time": 1201, "annotation": {"number": 64, "value": 127}, "group": "control_change"}, {"time": 1223, "annotation": {"number": 64, "value": 0}, "group": "control_change"}, {"time": 1224, "annotation": {"number": 64, "value": 38}, "group": "control_change"}, {"time": 1224, "annotation": {"number": 64, "value": 127}, "group": "control_change"}, {"time": 1248, "annotation": {"number": 64, "value": 0}, "group": "control_change"}, {"time": 1249, "annotation": {"number": 64, "value": 127}, "group": "control_change"}, {"time": 1271, "annotation": {"number": 64, "value": 0}, "group": "control_change"}, {"time": 1273, "annotation": {"number": 64, "value": 38}, "group": "control_change"}, {"time": 1273, "annotation": {"number": 64, "value": 127}, "group": "control_change"}, {"time": 1296, "annotation": {"number": 64, "value": 0}, "group": "control_change"}, {"time": 1297, "annotation": {"number": 64, "value": 127}, "group": "control_change"}, {"time": 1321, "annotation": {"number": 64, "value": 0}, "group": "control_change"}, {"time": 1321, "annotation": {"number": 64, "value": 74}, "group": "control_change"}, {"time": 1321, "annotation": {"number": 64, "value": 127}, "group": "control_change"}, {"time": 1342, "annotation": {"number": 64, "value": 0}, "group": "control_change"}, {"time": 1343, "annotation": {"number": 64, "value": 127}, "group": "control_change"}, {"time": 1353, "annotation": {"number": 64, "value": 0}, "group": "control_change"}, {"time": 1355, "annotation": {"number": 64, "value": 127}, "group": "control_change"}, {"time": 1368, "annotation": {"number": 64, "value": 0}, "group": "control_change"}, {"time": 1369, "annotation": {"number": 64, "value": 127}, "group": "control_change"}, {"time": 1392, "annotation": {"number": 64, "value": 0}, "group": "control_change"}, {"time": 1417, "annotation": {"number": 64, "value": 74}, "group": "control_change"}, {"time": 1417, "annotation": {"number": 64, "value": 127}, "group": "control_change"}, {"time": 1440, "annotation": {"number": 64, "value": 74}, "group": "control_change"}, {"time": 1440, "annotation": {"number": 64, "value": 0}, "group": "control_change"}, {"time": 1441, "annotation": {"number": 64, "value": 127}, "group": "control_change"}, {"time": 1464, "annotation": {"number": 64, "value": 0}, "group": "control_change"}, {"time": 1465, "annotation": {"number": 64, "value": 127}, "group": "control_change"}, {"time": 1487, "annotation": {"number": 64, "value": 0}, "group": "control_change"}, {"time": 1488, "annotation": {"number": 64, "value": 127}, "group": "control_change"}, {"time": 1491, "annotation": {"number": 64, "value": 0}, "group": "control_change"}, {"time": 1512, "annotation": {"number": 64, "value": 127}, "group": "control_change"}, {"time": 1536, "annotation": {"number": 64, "value": 0}, "group": "control_change"}, {"time": 1537, "annotation": {"number": 64, "value": 127}, "group": "control_change"}, {"time": 1560, "annotation": {"number": 64, "value": 127}, "group": "control_change"}, {"time": 1560, "annotation": {"number": 64, "value": 0}, "group": "control_change"}, {"time": 1561, "annotation": {"number": 64, "value": 127}, "group": "control_change"}, {"time": 1583, "annotation": {"number": 64, "value": 0}, "group": "control_change"}, {"time": 1584, "annotation": {"number": 64, "value": 127}, "group": "control_change"}, {"time": 1607, "annotation": {"number": 64, "value": 0}, "group": "control_change"}, {"time": 1608, "annotation": {"number": 64, "value": 74}, "group": "control_change"}, {"time": 1608, "annotation": {"number": 64, "value": 127}, "group": "control_change"}, {"time": 1632, "annotation": {"number": 64, "value": 0}, "group": "control_change"}, {"time": 1633, "annotation": {"number": 64, "value": 38}, "group": "control_change"}, {"time": 1633, "annotation": {"number": 64, "value": 127}, "group": "control_change"}, {"time": 1655, "annotation": {"number": 64, "value": 0}, "group": "control_change"}, {"time": 1656, "annotation": {"number": 64, "value": 74}, "group": "control_change"}, {"time": 1656, "annotation": {"number": 64, "value": 127}, "group": "control_change"}, {"time": 1679, "annotation": {"number": 64, "value": 0}, "group": "control_change"}, {"time": 1680, "annotation": {"number": 64, "value": 74}, "group": "control_change"}, {"time": 1680, "annotation": {"number": 64, "value": 127}, "group": "control_change"}, {"time": 1684, "annotation": {"number": 64, "value": 0}, "group": "control_change"}, {"time": 1705, "annotation": {"number": 64, "value": 127}, "group": "control_change"}, {"time": 1728, "annotation": {"number": 64, "value": 0}, "group": "control_change"}, {"time": 1729, "annotation": {"number": 64, "value": 127}, "group": "control_change"}, {"time": 1729, "annotation": {"number": 64, "value": 74}, "group": "control_change"}, {"time": 1752, "annotation": {"number": 64, "value": 0}, "group": "control_change"}, {"time": 1754, "annotation": {"number": 64, "value": 127}, "group": "control_change"}, {"time": 1774, "annotation": {"number": 64, "value": 0}, "group": "control_change"}, {"time": 1777, "annotation": {"number": 64, "value": 38}, "group": "control_change"}, {"time": 1777, "annotation": {"number": 64, "value": 127}, "group": "control_change"}, {"time": 1800, "annotation": {"number": 64, "value": 0}, "group": "control_change"}, {"time": 1801, "annotation": {"number": 64, "value": 74}, "group": "control_change"}, {"time": 1801, "annotation": {"number": 64, "value": 127}, "group": "control_change"}, {"time": 1824, "annotation": {"number": 64, "value": 0}, "group": "control_change"}, {"time": 1825, "annotation": {"number": 64, "value": 127}, "group": "control_change"}, {"time": 1848, "annotation": {"number": 64, "value": 0}, "group": "control_change"}, {"time": 1849, "annotation": {"number": 64, "value": 127}, "group": "control_change"}, {"time": 1872, "annotation": {"number": 64, "value": 0}, "group": "control_change"}, {"time": 1873, "annotation": {"number": 64, "value": 127}, "group": "control_change"}, {"time": 1897, "annotation": {"number": 64, "value": 0}, "group": "control_change"}, {"time": 1920, "annotation": {"number": 64, "value": 0}, "group": "control_change"}, {"time": 1920, "annotation": {"number": 64, "value": 127}, "group": "control_change"}, {"time": 1921, "annotation": {"number": 64, "value": 74}, "group": "control_change"}, {"time": 1944, "annotation": {"number": 64, "value": 0}, "group": "control_change"}, {"time": 1945, "annotation": {"number": 64, "value": 127}, "group": "control_change"}, {"time": 1966, "annotation": {"number": 64, "value": 0}, "group": "control_change"}, {"time": 1969, "annotation": {"number": 64, "value": 38}, "group": "control_change"}, {"time": 1969, "annotation": {"number": 64, "value": 127}, "group": "control_change"}, {"time": 1991, "annotation": {"number": 64, "value": 0}, "group": "control_change"}, {"time": 1992, "annotation": {"number": 64, "value": 74}, "group": "control_change"}, {"time": 1992, "annotation": {"number": 64, "value": 127}, "group": "control_change"}, {"time": 2016, "annotation": {"number": 64, "value": 0}, "group": "control_change"}, {"time": 2016, "annotation": {"number": 64, "value": 127}, "group": "control_change"}, {"time": 2017, "annotation": {"number": 64, "value": 127}, "group": "control_change"}, {"time": 2040, "annotation": {"number": 64, "value": 0}, "group": "control_change"}, {"time": 2041, "annotation": {"number": 64, "value": 127}, "group": "control_change"}, {"time": 2064, "annotation": {"number": 64, "value": 0}, "group": "control_change"}, {"time": 2065, "annotation": {"number": 64, "value": 127}, "group": "control_change"}, {"time": 2088, "annotation": {"number": 64, "value": 0}, "group": "control_change"}, {"time": 2088, "annotation": {"number": 64, "value": 38}, "group": "control_change"}, {"time": 2088, "annotation": {"number": 64, "value": 127}, "group": "control_change"}, {"time": 2112, "annotation": {"number": 64, "value": 127}, "group": "control_change"}, {"time": 2135, "annotation": {"number": 64, "value": 0}, "group": "control_change"}, {"time": 2136, "annotation": {"number": 64, "value": 127}, "group": "control_change"}, {"time": 2136, "annotation": {"number": 64, "value": 74}, "group": "control_change"}, {"time": 2160, "annotation": {"number": 64, "value": 0}, "group": "control_change"}, {"time": 2161, "annotation": {"number": 64, "value": 127}, "group": "control_change"}, {"time": 2181, "annotation": {"number": 64, "value": 0}, "group": "control_change"}, {"time": 2184, "annotation": {"number": 64, "value": 38}, "group": "control_change"}, {"time": 2185, "annotation": {"number": 64, "value": 127}, "group": "control_change"}, {"time": 2207, "annotation": {"number": 64, "value": 0}, "group": "control_change"}, {"time": 2208, "annotation": {"number": 64, "value": 74}, "group": "control_change"}, {"time": 2208, "annotation": {"number": 64, "value": 127}, "group": "control_change"}, {"time": 2231, "annotation": {"number": 64, "value": 0}, "group": "control_change"}, {"time": 2232, "annotation": {"number": 64, "value": 127}, "group": "control_change"}, {"time": 2255, "annotation": {"number": 64, "value": 0}, "group": "control_change"}, {"time": 2256, "annotation": {"number": 64, "value": 127}, "group": "control_change"}, {"time": 2279, "annotation": {"number": 64, "value": 0}, "group": "control_change"}, {"time": 2280, "annotation": {"number": 64, "value": 127}, "group": "control_change"}, {"time": 2304, "annotation": {"number": 64, "value": 0}, "group": "control_change"}, {"time": 2327, "annotation": {"number": 64, "value": 0}, "group": "control_change"}, {"time": 2328, "annotation": {"number": 64, "value": 127}, "group": "control_change"}, {"time": 2328, "annotation": {"number": 64, "value": 74}, "group": "control_change"}, {"time": 2351, "annotation": {"number": 64, "value": 0}, "group": "control_change"}, {"time": 2352, "annotation": {"number": 64, "value": 127}, "group": "control_change"}, {"time": 2373, "annotation": {"number": 64, "value": 0}, "group": "control_change"}, {"time": 2376, "annotation": {"number": 64, "value": 38}, "group": "control_change"}, {"time": 2376, "annotation": {"number": 64, "value": 127}, "group": "control_change"}, {"time": 2399, "annotation": {"number": 64, "value": 0}, "group": "control_change"}, {"time": 2400, "annotation": {"number": 64, "value": 74}, "group": "control_change"}, {"time": 2400, "annotation": {"number": 64, "value": 127}, "group": "control_change"}, {"time": 2423, "annotation": {"number": 64, "value": 0}, "group": "control_change"}, {"time": 2424, "annotation": {"number": 64, "value": 127}, "group": "control_change"}, {"time": 2425, "annotation": {"number": 64, "value": 74}, "group": "control_change"}, {"time": 2426, "annotation": {"number": 64, "value": 127}, "group": "control_change"}, {"time": 2436, "annotation": {"number": 64, "value": 0}, "group": "control_change"}, {"time": 2438, "annotation": {"number": 64, "value": 74}, "group": "control_change"}, {"time": 2438, "annotation": {"number": 64, "value": 127}, "group": "control_change"}, {"time": 2448, "annotation": {"number": 64, "value": 0}, "group": "control_change"}, {"time": 2449, "annotation": {"number": 64, "value": 74}, "group": "control_change"}, {"time": 2449, "annotation": {"number": 64, "value": 127}, "group": "control_change"}, {"time": 2473, "annotation": {"number": 64, "value": 74}, "group": "control_change"}, {"time": 2473, "annotation": {"number": 64, "value": 0}, "group": "control_change"}, {"time": 2474, "annotation": {"number": 64, "value": 38}, "group": "control_change"}, {"time": 2474, "annotation": {"number": 64, "value": 127}, "group": "control_change"}, {"time": 2496, "annotation": {"number": 64, "value": 0}, "group": "control_change"}, {"time": 2497, "annotation": {"number": 64, "value": 74}, "group": "control_change"}, {"time": 2497, "annotation": {"number": 64, "value": 127}, "group": "control_change"}, {"time": 2528, "annotation": {"number": 64, "value": 0}, "group": "control_change"}, {"time": 2544, "annotation": {"number": 64, "value": 38}, "group": "control_change"}, {"time": 2544, "annotation": {"number": 64, "value": 127}, "group": "control_change"}, {"time": 2555, "annotation": {"number": 64, "value": 0}, "group": "control_change"}, {"time": 2557, "annotation": {"number": 64, "value": 74}, "group": "control_change"}, {"time": 2557, "annotation": {"number": 64, "value": 127}, "group": "control_change"}, {"time": 2567, "annotation": {"number": 64, "value": 0}, "group": "control_change"}, {"time": 2569, "annotation": {"number": 64, "value": 127}, "group": "control_change"}, {"time": 2579, "annotation": {"number": 64, "value": 0}, "group": "control_change"}, {"time": 2581, "annotation": {"number": 64, "value": 127}, "group": "control_change"}, {"time": 2590, "annotation": {"number": 64, "value": 38}, "group": "control_change"}, {"time": 2590, "annotation": {"number": 64, "value": 0}, "group": "control_change"}, {"time": 2593, "annotation": {"number": 64, "value": 127}, "group": "control_change"}, {"time": 2615, "annotation": {"number": 64, "value": 0}, "group": "control_change"}, {"time": 2618, "annotation": {"number": 64, "value": 127}, "group": "control_change"}, {"time": 2689, "annotation": {"number": 64, "value": 74}, "group": "control_change"}, {"time": 2689, "annotation": {"number": 64, "value": 127}, "group": "control_change"}, {"time": 2710, "annotation": {"number": 64, "value": 0}, "group": "control_change"}, {"time": 2738, "annotation": {"number": 64, "value": 127}, "group": "control_change"}, {"time": 2762, "annotation": {"number": 64, "value": 0}, "group": "control_change"}]}]}