{"metadata": {"schema_version": "0.2", "title": "None", "source_filename": "803.mid", "source_format": "midi"}, "resolution": 12, "tempos": [{"time": 0, "qpm": 62.99999685000016}, {"time": 3493, "qpm": 61.99999586666694}], "time_signatures": [{"time": 0, "numerator": 1, "denominator": 4}], "tracks": [{"program": 4, "is_drum": false, "name": "MELODY", "notes": [{"time": 357, "pitch": 70, "duration": 2, "velocity": 82}, {"time": 360, "pitch": 72, "duration": 2, "velocity": 71}, {"time": 363, "pitch": 73, "duration": 2, "velocity": 75}, {"time": 366, "pitch": 70, "duration": 3, "velocity": 71}, {"time": 369, "pitch": 72, "duration": 3, "velocity": 75}, {"time": 372, "pitch": 73, "duration": 2, "velocity": 70}, {"time": 375, "pitch": 70, "duration": 4, "velocity": 68}, {"time": 378, "pitch": 72, "duration": 2, "velocity": 68}, {"time": 381, "pitch": 73, "duration": 7, "velocity": 70}, {"time": 390, "pitch": 73, "duration": 3, "velocity": 79}, {"time": 393, "pitch": 75, "duration": 2, "velocity": 91}, {"time": 396, "pitch": 73, "duration": 2, "velocity": 77}, {"time": 399, "pitch": 72, "duration": 3, "velocity": 60}, {"time": 402, "pitch": 70, "duration": 3, "velocity": 68}, {"time": 405, "pitch": 68, "duration": 2, "velocity": 70}, {"time": 411, "pitch": 68, "duration": 1, "velocity": 71}, {"time": 414, "pitch": 68, "duration": 8, "velocity": 75}, {"time": 423, "pitch": 70, "duration": 2, "velocity": 82}, {"time": 426, "pitch": 72, "duration": 25, "velocity": 76}, {"time": 453, "pitch": 70, "duration": 3, "velocity": 88}, {"time": 456, "pitch": 72, "duration": 3, "velocity": 70}, {"time": 459, "pitch": 73, "duration": 2, "velocity": 72}, {"time": 462, "pitch": 70, "duration": 3, "velocity": 66}, {"time": 465, "pitch": 72, "duration": 3, "velocity": 68}, {"time": 468, "pitch": 73, "duration": 2, "velocity": 69}, {"time": 471, "pitch": 70, "duration": 4, "velocity": 63}, {"time": 474, "pitch": 72, "duration": 2, "velocity": 68}, {"time": 477, "pitch": 73, "duration": 6, "velocity": 73}, {"time": 486, "pitch": 73, "duration": 2, "velocity": 76}, {"time": 489, "pitch": 75, "duration": 2, "velocity": 98}, {"time": 492, "pitch": 73, "duration": 2, "velocity": 91}, {"time": 495, "pitch": 72, "duration": 2, "velocity": 66}, {"time": 498, "pitch": 70, "duration": 3, "velocity": 71}, {"time": 501, "pitch": 68, "duration": 3, "velocity": 70}, {"time": 507, "pitch": 68, "duration": 1, "velocity": 71}, {"time": 510, "pitch": 68, "duration": 9, "velocity": 77}, {"time": 519, "pitch": 75, "duration": 2, "velocity": 88}, {"time": 525, "pitch": 77, "duration": 13, "velocity": 95}, {"time": 549, "pitch": 78, "duration": 5, "velocity": 91}, {"time": 555, "pitch": 77, "duration": 2, "velocity": 85}, {"time": 558, "pitch": 78, "duration": 5, "velocity": 91}, {"time": 564, "pitch": 70, "duration": 1, "velocity": 106}, {"time": 567, "pitch": 70, "duration": 2, "velocity": 85}, {"time": 570, "pitch": 77, "duration": 1, "velocity": 109}, {"time": 573, "pitch": 77, "duration": 8, "velocity": 100}, {"time": 582, "pitch": 75, "duration": 10, "velocity": 75}, {"time": 597, "pitch": 77, "duration": 5, "velocity": 95}, {"time": 603, "pitch": 75, "duration": 2, "velocity": 85}, {"time": 606, "pitch": 77, "duration": 6, "velocity": 95}, {"time": 612, "pitch": 68, "duration": 1, "velocity": 79}, {"time": 615, "pitch": 68, "duration": 2, "velocity": 85}, {"time": 618, "pitch": 75, "duration": 1, "velocity": 72}, {"time": 621, "pitch": 75, "duration": 8, "velocity": 111}, {"time": 630, "pitch": 73, "duration": 9, "velocity": 91}, {"time": 639, "pitch": 70, "duration": 2, "velocity": 75}, {"time": 642, "pitch": 72, "duration": 2, "velocity": 72}, {"time": 645, "pitch": 73, "duration": 4, "velocity": 100}, {"time": 651, "pitch": 73, "duration": 3, "velocity": 98}, {"time": 657, "pitch": 73, "duration": 5, "velocity": 98}, {"time": 663, "pitch": 72, "duration": 2, "velocity": 71}, {"time": 666, "pitch": 70, "duration": 2, "velocity": 88}, {"time": 669, "pitch": 72, "duration": 7, "velocity": 88}, {"time": 678, "pitch": 72, "duration": 7, "velocity": 98}, {"time": 690, "pitch": 68, "duration": 2, "velocity": 70}, {"time": 693, "pitch": 65, "duration": 24, "velocity": 71}, {"time": 789, "pitch": 70, "duration": 3, "velocity": 79}, {"time": 792, "pitch": 72, "duration": 2, "velocity": 79}, {"time": 795, "pitch": 73, "duration": 2, "velocity": 75}, {"time": 798, "pitch": 70, "duration": 3, "velocity": 70}, {"time": 801, "pitch": 72, "duration": 2, "velocity": 77}, {"time": 804, "pitch": 73, "duration": 2, "velocity": 76}, {"time": 807, "pitch": 70, "duration": 3, "velocity": 70}, {"time": 810, "pitch": 72, "duration": 2, "velocity": 73}, {"time": 813, "pitch": 73, "duration": 8, "velocity": 82}, {"time": 822, "pitch": 73, "duration": 1, "velocity": 91}, {"time": 825, "pitch": 75, "duration": 1, "velocity": 88}, {"time": 828, "pitch": 73, "duration": 2, "velocity": 85}, {"time": 831, "pitch": 72, "duration": 2, "velocity": 77}, {"time": 834, "pitch": 70, "duration": 2, "velocity": 68}, {"time": 837, "pitch": 68, "duration": 3, "velocity": 82}, {"time": 843, "pitch": 68, "duration": 1, "velocity": 76}, {"time": 846, "pitch": 68, "duration": 8, "velocity": 79}, {"time": 855, "pitch": 70, "duration": 1, "velocity": 77}, {"time": 858, "pitch": 72, "duration": 22, "velocity": 75}, {"time": 885, "pitch": 70, "duration": 3, "velocity": 98}, {"time": 888, "pitch": 72, "duration": 2, "velocity": 73}, {"time": 891, "pitch": 73, "duration": 2, "velocity": 79}, {"time": 894, "pitch": 70, "duration": 3, "velocity": 71}, {"time": 897, "pitch": 72, "duration": 2, "velocity": 77}, {"time": 900, "pitch": 73, "duration": 2, "velocity": 82}, {"time": 903, "pitch": 70, "duration": 3, "velocity": 67}, {"time": 906, "pitch": 72, "duration": 2, "velocity": 79}, {"time": 909, "pitch": 73, "duration": 9, "velocity": 98}, {"time": 918, "pitch": 75, "duration": 5, "velocity": 100}, {"time": 924, "pitch": 73, "duration": 2, "velocity": 77}, {"time": 927, "pitch": 72, "duration": 1, "velocity": 69}, {"time": 930, "pitch": 70, "duration": 2, "velocity": 85}, {"time": 933, "pitch": 72, "duration": 4, "velocity": 103}, {"time": 939, "pitch": 72, "duration": 7, "velocity": 103}, {"time": 951, "pitch": 80, "duration": 5, "velocity": 100}, {"time": 957, "pitch": 77, "duration": 18, "velocity": 100}, {"time": 978, "pitch": 77, "duration": 2, "velocity": 100}, {"time": 981, "pitch": 78, "duration": 4, "velocity": 98}, {"time": 987, "pitch": 78, "duration": 13, "velocity": 88}, {"time": 999, "pitch": 70, "duration": 1, "velocity": 100}, {"time": 1002, "pitch": 77, "duration": 1, "velocity": 113}, {"time": 1005, "pitch": 77, "duration": 7, "velocity": 106}, {"time": 1014, "pitch": 75, "duration": 10, "velocity": 106}, {"time": 1026, "pitch": 68, "duration": 2, "velocity": 98}, {"time": 1029, "pitch": 77, "duration": 4, "velocity": 98}, {"time": 1035, "pitch": 75, "duration": 2, "velocity": 103}, {"time": 1038, "pitch": 77, "duration": 9, "velocity": 91}, {"time": 1047, "pitch": 68, "duration": 2, "velocity": 95}, {"time": 1050, "pitch": 75, "duration": 1, "velocity": 113}, {"time": 1053, "pitch": 75, "duration": 8, "velocity": 106}, {"time": 1062, "pitch": 73, "duration": 11, "velocity": 109}, {"time": 1071, "pitch": 70, "duration": 2, "velocity": 91}, {"time": 1074, "pitch": 72, "duration": 2, "velocity": 82}, {"time": 1077, "pitch": 73, "duration": 6, "velocity": 95}, {"time": 1086, "pitch": 73, "duration": 8, "velocity": 95}, {"time": 1095, "pitch": 72, "duration": 2, "velocity": 85}, {"time": 1098, "pitch": 70, "duration": 1, "velocity": 75}, {"time": 1101, "pitch": 72, "duration": 4, "velocity": 88}, {"time": 1107, "pitch": 72, "duration": 1, "velocity": 88}, {"time": 1110, "pitch": 72, "duration": 8, "velocity": 88}, {"time": 1119, "pitch": 70, "duration": 3, "velocity": 106}, {"time": 1125, "pitch": 68, "duration": 6, "velocity": 91}, {"time": 1131, "pitch": 70, "duration": 17, "velocity": 88}, {"time": 1161, "pitch": 70, "duration": 3, "velocity": 109}, {"time": 1164, "pitch": 72, "duration": 2, "velocity": 98}, {"time": 1167, "pitch": 73, "duration": 5, "velocity": 79}, {"time": 1170, "pitch": 75, "duration": 3, "velocity": 73}, {"time": 1173, "pitch": 77, "duration": 9, "velocity": 103}, {"time": 1182, "pitch": 70, "duration": 12, "velocity": 98}, {"time": 1197, "pitch": 78, "duration": 6, "velocity": 100}, {"time": 1203, "pitch": 77, "duration": 2, "velocity": 72}, {"time": 1206, "pitch": 75, "duration": 10, "velocity": 106}, {"time": 1221, "pitch": 75, "duration": 1, "velocity": 100}, {"time": 1224, "pitch": 75, "duration": 1, "velocity": 98}, {"time": 1227, "pitch": 75, "duration": 1, "velocity": 98}, {"time": 1230, "pitch": 75, "duration": 1, "velocity": 88}, {"time": 1233, "pitch": 80, "duration": 5, "velocity": 111}, {"time": 1239, "pitch": 82, "duration": 5, "velocity": 103}, {"time": 1245, "pitch": 77, "duration": 4, "velocity": 103}, {"time": 1251, "pitch": 75, "duration": 2, "velocity": 82}, {"time": 1254, "pitch": 73, "duration": 13, "velocity": 106}, {"time": 1269, "pitch": 73, "duration": 8, "velocity": 95}, {"time": 1278, "pitch": 66, "duration": 10, "velocity": 85}, {"time": 1293, "pitch": 75, "duration": 4, "velocity": 103}, {"time": 1299, "pitch": 73, "duration": 2, "velocity": 82}, {"time": 1302, "pitch": 72, "duration": 9, "velocity": 85}, {"time": 1311, "pitch": 70, "duration": 2, "velocity": 98}, {"time": 1314, "pitch": 72, "duration": 2, "velocity": 75}, {"time": 1317, "pitch": 73, "duration": 3, "velocity": 100}, {"time": 1323, "pitch": 73, "duration": 2, "velocity": 85}, {"time": 1326, "pitch": 75, "duration": 4, "velocity": 106}, {"time": 1332, "pitch": 73, "duration": 1, "velocity": 100}, {"time": 1335, "pitch": 75, "duration": 2, "velocity": 98}, {"time": 1338, "pitch": 77, "duration": 11, "velocity": 100}, {"time": 1353, "pitch": 70, "duration": 2, "velocity": 106}, {"time": 1356, "pitch": 72, "duration": 2, "velocity": 88}, {"time": 1359, "pitch": 73, "duration": 2, "velocity": 98}, {"time": 1362, "pitch": 75, "duration": 2, "velocity": 64}, {"time": 1365, "pitch": 77, "duration": 8, "velocity": 109}, {"time": 1374, "pitch": 70, "duration": 12, "velocity": 103}, {"time": 1389, "pitch": 78, "duration": 4, "velocity": 103}, {"time": 1395, "pitch": 77, "duration": 2, "velocity": 82}, {"time": 1398, "pitch": 75, "duration": 9, "velocity": 106}, {"time": 1413, "pitch": 75, "duration": 1, "velocity": 103}, {"time": 1416, "pitch": 75, "duration": 1, "velocity": 88}, {"time": 1419, "pitch": 75, "duration": 1, "velocity": 100}, {"time": 1422, "pitch": 75, "duration": 2, "velocity": 82}, {"time": 1425, "pitch": 80, "duration": 5, "velocity": 106}, {"time": 1431, "pitch": 82, "duration": 2, "velocity": 91}, {"time": 1437, "pitch": 77, "duration": 5, "velocity": 100}, {"time": 1443, "pitch": 75, "duration": 2, "velocity": 76}, {"time": 1446, "pitch": 73, "duration": 10, "velocity": 98}, {"time": 1461, "pitch": 73, "duration": 11, "velocity": 98}, {"time": 1473, "pitch": 66, "duration": 9, "velocity": 91}, {"time": 1485, "pitch": 72, "duration": 4, "velocity": 100}, {"time": 1491, "pitch": 73, "duration": 2, "velocity": 75}, {"time": 1494, "pitch": 75, "duration": 8, "velocity": 100}, {"time": 1503, "pitch": 73, "duration": 6, "velocity": 91}, {"time": 1509, "pitch": 72, "duration": 6, "velocity": 82}, {"time": 1512, "pitch": 73, "duration": 2, "velocity": 79}, {"time": 1518, "pitch": 70, "duration": 21, "velocity": 73}, {"time": 1749, "pitch": 80, "duration": 5, "velocity": 91}, {"time": 1755, "pitch": 77, "duration": 2, "velocity": 77}, {"time": 1758, "pitch": 75, "duration": 5, "velocity": 69}, {"time": 1764, "pitch": 73, "duration": 8, "velocity": 82}, {"time": 1773, "pitch": 81, "duration": 5, "velocity": 81}, {"time": 1779, "pitch": 77, "duration": 2, "velocity": 88}, {"time": 1782, "pitch": 75, "duration": 5, "velocity": 88}, {"time": 1788, "pitch": 73, "duration": 8, "velocity": 88}, {"time": 1797, "pitch": 84, "duration": 5, "velocity": 98}, {"time": 1803, "pitch": 82, "duration": 2, "velocity": 71}, {"time": 1806, "pitch": 84, "duration": 5, "velocity": 95}, {"time": 1812, "pitch": 85, "duration": 7, "velocity": 76}, {"time": 1821, "pitch": 89, "duration": 17, "velocity": 72}, {"time": 1839, "pitch": 85, "duration": 5, "velocity": 73}, {"time": 1845, "pitch": 82, "duration": 18, "velocity": 67}, {"time": 1941, "pitch": 70, "duration": 2, "velocity": 82}, {"time": 1944, "pitch": 72, "duration": 2, "velocity": 71}, {"time": 1947, "pitch": 73, "duration": 2, "velocity": 75}, {"time": 1950, "pitch": 70, "duration": 3, "velocity": 71}, {"time": 1953, "pitch": 72, "duration": 3, "velocity": 75}, {"time": 1956, "pitch": 73, "duration": 2, "velocity": 70}, {"time": 1959, "pitch": 70, "duration": 4, "velocity": 68}, {"time": 1962, "pitch": 72, "duration": 2, "velocity": 68}, {"time": 1965, "pitch": 73, "duration": 7, "velocity": 70}, {"time": 1974, "pitch": 73, "duration": 3, "velocity": 79}, {"time": 1977, "pitch": 75, "duration": 2, "velocity": 91}, {"time": 1980, "pitch": 73, "duration": 2, "velocity": 77}, {"time": 1983, "pitch": 72, "duration": 3, "velocity": 60}, {"time": 1986, "pitch": 70, "duration": 3, "velocity": 68}, {"time": 1989, "pitch": 68, "duration": 2, "velocity": 70}, {"time": 1995, "pitch": 68, "duration": 1, "velocity": 71}, {"time": 1998, "pitch": 68, "duration": 8, "velocity": 75}, {"time": 2007, "pitch": 70, "duration": 2, "velocity": 82}, {"time": 2010, "pitch": 72, "duration": 25, "velocity": 76}, {"time": 2037, "pitch": 70, "duration": 3, "velocity": 88}, {"time": 2040, "pitch": 72, "duration": 3, "velocity": 70}, {"time": 2043, "pitch": 73, "duration": 2, "velocity": 72}, {"time": 2046, "pitch": 70, "duration": 3, "velocity": 66}, {"time": 2049, "pitch": 72, "duration": 3, "velocity": 68}, {"time": 2052, "pitch": 73, "duration": 2, "velocity": 69}, {"time": 2055, "pitch": 70, "duration": 4, "velocity": 63}, {"time": 2058, "pitch": 72, "duration": 2, "velocity": 68}, {"time": 2061, "pitch": 73, "duration": 6, "velocity": 73}, {"time": 2070, "pitch": 73, "duration": 2, "velocity": 76}, {"time": 2073, "pitch": 75, "duration": 2, "velocity": 98}, {"time": 2076, "pitch": 73, "duration": 2, "velocity": 91}, {"time": 2079, "pitch": 72, "duration": 2, "velocity": 66}, {"time": 2082, "pitch": 70, "duration": 3, "velocity": 71}, {"time": 2085, "pitch": 68, "duration": 3, "velocity": 70}, {"time": 2091, "pitch": 68, "duration": 1, "velocity": 71}, {"time": 2094, "pitch": 68, "duration": 9, "velocity": 77}, {"time": 2103, "pitch": 75, "duration": 2, "velocity": 88}, {"time": 2109, "pitch": 77, "duration": 13, "velocity": 95}, {"time": 2133, "pitch": 78, "duration": 5, "velocity": 91}, {"time": 2139, "pitch": 77, "duration": 2, "velocity": 85}, {"time": 2142, "pitch": 78, "duration": 5, "velocity": 91}, {"time": 2148, "pitch": 70, "duration": 1, "velocity": 106}, {"time": 2151, "pitch": 70, "duration": 2, "velocity": 85}, {"time": 2154, "pitch": 77, "duration": 1, "velocity": 109}, {"time": 2157, "pitch": 77, "duration": 8, "velocity": 100}, {"time": 2166, "pitch": 75, "duration": 10, "velocity": 75}, {"time": 2181, "pitch": 77, "duration": 5, "velocity": 95}, {"time": 2187, "pitch": 75, "duration": 2, "velocity": 85}, {"time": 2190, "pitch": 77, "duration": 6, "velocity": 95}, {"time": 2196, "pitch": 68, "duration": 1, "velocity": 79}, {"time": 2199, "pitch": 68, "duration": 2, "velocity": 85}, {"time": 2202, "pitch": 75, "duration": 1, "velocity": 72}, {"time": 2205, "pitch": 75, "duration": 8, "velocity": 111}, {"time": 2214, "pitch": 73, "duration": 9, "velocity": 91}, {"time": 2223, "pitch": 70, "duration": 2, "velocity": 75}, {"time": 2226, "pitch": 72, "duration": 2, "velocity": 72}, {"time": 2229, "pitch": 73, "duration": 4, "velocity": 100}, {"time": 2235, "pitch": 73, "duration": 3, "velocity": 98}, {"time": 2241, "pitch": 73, "duration": 5, "velocity": 98}, {"time": 2247, "pitch": 72, "duration": 2, "velocity": 71}, {"time": 2250, "pitch": 70, "duration": 2, "velocity": 88}, {"time": 2253, "pitch": 72, "duration": 7, "velocity": 88}, {"time": 2262, "pitch": 72, "duration": 7, "velocity": 98}, {"time": 2277, "pitch": 68, "duration": 2, "velocity": 70}, {"time": 2283, "pitch": 65, "duration": 24, "velocity": 71}, {"time": 2325, "pitch": 70, "duration": 3, "velocity": 79}, {"time": 2328, "pitch": 72, "duration": 2, "velocity": 79}, {"time": 2331, "pitch": 73, "duration": 2, "velocity": 75}, {"time": 2334, "pitch": 70, "duration": 3, "velocity": 70}, {"time": 2337, "pitch": 72, "duration": 2, "velocity": 77}, {"time": 2340, "pitch": 73, "duration": 2, "velocity": 76}, {"time": 2343, "pitch": 70, "duration": 3, "velocity": 70}, {"time": 2346, "pitch": 72, "duration": 2, "velocity": 73}, {"time": 2349, "pitch": 73, "duration": 8, "velocity": 82}, {"time": 2358, "pitch": 73, "duration": 1, "velocity": 91}, {"time": 2361, "pitch": 75, "duration": 1, "velocity": 88}, {"time": 2364, "pitch": 73, "duration": 2, "velocity": 85}, {"time": 2367, "pitch": 72, "duration": 2, "velocity": 77}, {"time": 2370, "pitch": 70, "duration": 2, "velocity": 68}, {"time": 2373, "pitch": 68, "duration": 3, "velocity": 82}, {"time": 2379, "pitch": 68, "duration": 1, "velocity": 76}, {"time": 2382, "pitch": 68, "duration": 8, "velocity": 79}, {"time": 2391, "pitch": 70, "duration": 1, "velocity": 77}, {"time": 2394, "pitch": 72, "duration": 22, "velocity": 75}, {"time": 2421, "pitch": 70, "duration": 3, "velocity": 98}, {"time": 2424, "pitch": 72, "duration": 2, "velocity": 73}, {"time": 2427, "pitch": 73, "duration": 2, "velocity": 79}, {"time": 2430, "pitch": 70, "duration": 3, "velocity": 71}, {"time": 2433, "pitch": 72, "duration": 2, "velocity": 77}, {"time": 2436, "pitch": 73, "duration": 2, "velocity": 82}, {"time": 2439, "pitch": 70, "duration": 3, "velocity": 67}, {"time": 2442, "pitch": 72, "duration": 2, "velocity": 79}, {"time": 2445, "pitch": 73, "duration": 9, "velocity": 98}, {"time": 2454, "pitch": 75, "duration": 5, "velocity": 100}, {"time": 2460, "pitch": 73, "duration": 2, "velocity": 77}, {"time": 2463, "pitch": 72, "duration": 1, "velocity": 69}, {"time": 2466, "pitch": 70, "duration": 2, "velocity": 85}, {"time": 2469, "pitch": 72, "duration": 4, "velocity": 103}, {"time": 2475, "pitch": 72, "duration": 7, "velocity": 103}, {"time": 2487, "pitch": 80, "duration": 5, "velocity": 100}, {"time": 2493, "pitch": 77, "duration": 18, "velocity": 100}, {"time": 2514, "pitch": 77, "duration": 2, "velocity": 100}, {"time": 2517, "pitch": 78, "duration": 4, "velocity": 98}, {"time": 2523, "pitch": 78, "duration": 13, "velocity": 88}, {"time": 2535, "pitch": 70, "duration": 1, "velocity": 100}, {"time": 2538, "pitch": 77, "duration": 1, "velocity": 113}, {"time": 2541, "pitch": 77, "duration": 7, "velocity": 106}, {"time": 2550, "pitch": 75, "duration": 10, "velocity": 106}, {"time": 2562, "pitch": 68, "duration": 2, "velocity": 98}, {"time": 2565, "pitch": 77, "duration": 4, "velocity": 98}, {"time": 2571, "pitch": 75, "duration": 2, "velocity": 103}, {"time": 2574, "pitch": 77, "duration": 9, "velocity": 91}, {"time": 2583, "pitch": 68, "duration": 2, "velocity": 95}, {"time": 2586, "pitch": 75, "duration": 1, "velocity": 113}, {"time": 2589, "pitch": 75, "duration": 8, "velocity": 106}, {"time": 2598, "pitch": 73, "duration": 11, "velocity": 109}, {"time": 2607, "pitch": 70, "duration": 2, "velocity": 91}, {"time": 2610, "pitch": 72, "duration": 2, "velocity": 82}, {"time": 2613, "pitch": 73, "duration": 6, "velocity": 95}, {"time": 2622, "pitch": 73, "duration": 8, "velocity": 95}, {"time": 2631, "pitch": 72, "duration": 2, "velocity": 85}, {"time": 2634, "pitch": 70, "duration": 1, "velocity": 75}, {"time": 2637, "pitch": 72, "duration": 4, "velocity": 88}, {"time": 2643, "pitch": 72, "duration": 1, "velocity": 88}, {"time": 2646, "pitch": 72, "duration": 8, "velocity": 88}, {"time": 2655, "pitch": 70, "duration": 3, "velocity": 106}, {"time": 2661, "pitch": 68, "duration": 6, "velocity": 91}, {"time": 2667, "pitch": 70, "duration": 17, "velocity": 88}, {"time": 2697, "pitch": 70, "duration": 3, "velocity": 109}, {"time": 2700, "pitch": 72, "duration": 2, "velocity": 98}, {"time": 2703, "pitch": 73, "duration": 5, "velocity": 79}, {"time": 2706, "pitch": 75, "duration": 3, "velocity": 73}, {"time": 2709, "pitch": 77, "duration": 9, "velocity": 103}, {"time": 2718, "pitch": 70, "duration": 12, "velocity": 98}, {"time": 2733, "pitch": 78, "duration": 6, "velocity": 100}, {"time": 2739, "pitch": 77, "duration": 2, "velocity": 72}, {"time": 2742, "pitch": 75, "duration": 10, "velocity": 106}, {"time": 2757, "pitch": 75, "duration": 1, "velocity": 100}, {"time": 2760, "pitch": 75, "duration": 1, "velocity": 98}, {"time": 2763, "pitch": 75, "duration": 1, "velocity": 98}, {"time": 2766, "pitch": 75, "duration": 1, "velocity": 88}, {"time": 2769, "pitch": 80, "duration": 5, "velocity": 111}, {"time": 2775, "pitch": 82, "duration": 5, "velocity": 103}, {"time": 2781, "pitch": 77, "duration": 4, "velocity": 103}, {"time": 2787, "pitch": 75, "duration": 2, "velocity": 82}, {"time": 2790, "pitch": 73, "duration": 13, "velocity": 106}, {"time": 2805, "pitch": 73, "duration": 8, "velocity": 95}, {"time": 2814, "pitch": 66, "duration": 10, "velocity": 85}, {"time": 2829, "pitch": 75, "duration": 4, "velocity": 103}, {"time": 2835, "pitch": 73, "duration": 2, "velocity": 82}, {"time": 2838, "pitch": 72, "duration": 9, "velocity": 85}, {"time": 2847, "pitch": 70, "duration": 2, "velocity": 98}, {"time": 2850, "pitch": 72, "duration": 2, "velocity": 75}, {"time": 2853, "pitch": 73, "duration": 3, "velocity": 100}, {"time": 2859, "pitch": 73, "duration": 2, "velocity": 85}, {"time": 2862, "pitch": 75, "duration": 4, "velocity": 106}, {"time": 2868, "pitch": 73, "duration": 1, "velocity": 100}, {"time": 2871, "pitch": 75, "duration": 2, "velocity": 98}, {"time": 2874, "pitch": 77, "duration": 11, "velocity": 100}, {"time": 2889, "pitch": 70, "duration": 2, "velocity": 106}, {"time": 2892, "pitch": 72, "duration": 2, "velocity": 88}, {"time": 2895, "pitch": 73, "duration": 2, "velocity": 98}, {"time": 2898, "pitch": 75, "duration": 2, "velocity": 64}, {"time": 2901, "pitch": 77, "duration": 8, "velocity": 109}, {"time": 2910, "pitch": 70, "duration": 12, "velocity": 103}, {"time": 2925, "pitch": 78, "duration": 4, "velocity": 103}, {"time": 2931, "pitch": 77, "duration": 2, "velocity": 82}, {"time": 2934, "pitch": 75, "duration": 9, "velocity": 106}, {"time": 2949, "pitch": 75, "duration": 1, "velocity": 103}, {"time": 2952, "pitch": 75, "duration": 1, "velocity": 88}, {"time": 2955, "pitch": 75, "duration": 1, "velocity": 100}, {"time": 2958, "pitch": 75, "duration": 2, "velocity": 82}, {"time": 2961, "pitch": 80, "duration": 5, "velocity": 106}, {"time": 2967, "pitch": 82, "duration": 2, "velocity": 91}, {"time": 2973, "pitch": 77, "duration": 5, "velocity": 100}, {"time": 2979, "pitch": 75, "duration": 2, "velocity": 76}, {"time": 2982, "pitch": 73, "duration": 10, "velocity": 98}, {"time": 2997, "pitch": 73, "duration": 11, "velocity": 98}, {"time": 3009, "pitch": 66, "duration": 9, "velocity": 91}, {"time": 3021, "pitch": 72, "duration": 4, "velocity": 100}, {"time": 3027, "pitch": 73, "duration": 2, "velocity": 75}, {"time": 3030, "pitch": 75, "duration": 8, "velocity": 100}, {"time": 3039, "pitch": 73, "duration": 6, "velocity": 91}, {"time": 3045, "pitch": 72, "duration": 6, "velocity": 82}, {"time": 3048, "pitch": 73, "duration": 2, "velocity": 79}, {"time": 3054, "pitch": 70, "duration": 21, "velocity": 73}, {"time": 3081, "pitch": 70, "duration": 3, "velocity": 109}, {"time": 3084, "pitch": 72, "duration": 2, "velocity": 98}, {"time": 3087, "pitch": 73, "duration": 5, "velocity": 79}, {"time": 3090, "pitch": 75, "duration": 3, "velocity": 73}, {"time": 3093, "pitch": 77, "duration": 9, "velocity": 103}, {"time": 3102, "pitch": 70, "duration": 12, "velocity": 98}, {"time": 3117, "pitch": 78, "duration": 6, "velocity": 100}, {"time": 3123, "pitch": 77, "duration": 2, "velocity": 72}, {"time": 3126, "pitch": 75, "duration": 10, "velocity": 106}, {"time": 3141, "pitch": 75, "duration": 1, "velocity": 100}, {"time": 3144, "pitch": 75, "duration": 1, "velocity": 98}, {"time": 3147, "pitch": 75, "duration": 1, "velocity": 98}, {"time": 3150, "pitch": 75, "duration": 1, "velocity": 88}, {"time": 3153, "pitch": 80, "duration": 5, "velocity": 111}, {"time": 3159, "pitch": 82, "duration": 5, "velocity": 103}, {"time": 3165, "pitch": 77, "duration": 4, "velocity": 103}, {"time": 3171, "pitch": 75, "duration": 2, "velocity": 82}, {"time": 3174, "pitch": 73, "duration": 13, "velocity": 106}, {"time": 3189, "pitch": 73, "duration": 8, "velocity": 95}, {"time": 3198, "pitch": 66, "duration": 10, "velocity": 85}, {"time": 3213, "pitch": 75, "duration": 4, "velocity": 103}, {"time": 3219, "pitch": 73, "duration": 2, "velocity": 82}, {"time": 3222, "pitch": 72, "duration": 9, "velocity": 85}, {"time": 3231, "pitch": 70, "duration": 2, "velocity": 98}, {"time": 3234, "pitch": 72, "duration": 2, "velocity": 75}, {"time": 3237, "pitch": 73, "duration": 3, "velocity": 100}, {"time": 3243, "pitch": 73, "duration": 2, "velocity": 85}, {"time": 3246, "pitch": 75, "duration": 4, "velocity": 106}, {"time": 3252, "pitch": 73, "duration": 1, "velocity": 100}, {"time": 3255, "pitch": 75, "duration": 2, "velocity": 98}, {"time": 3258, "pitch": 77, "duration": 11, "velocity": 100}, {"time": 3273, "pitch": 70, "duration": 2, "velocity": 106}, {"time": 3276, "pitch": 72, "duration": 2, "velocity": 88}, {"time": 3279, "pitch": 73, "duration": 2, "velocity": 98}, {"time": 3282, "pitch": 75, "duration": 2, "velocity": 64}, {"time": 3285, "pitch": 77, "duration": 8, "velocity": 109}, {"time": 3294, "pitch": 70, "duration": 12, "velocity": 103}, {"time": 3309, "pitch": 78, "duration": 4, "velocity": 103}, {"time": 3315, "pitch": 77, "duration": 2, "velocity": 82}, {"time": 3318, "pitch": 75, "duration": 9, "velocity": 106}, {"time": 3333, "pitch": 75, "duration": 1, "velocity": 103}, {"time": 3336, "pitch": 75, "duration": 1, "velocity": 88}, {"time": 3339, "pitch": 75, "duration": 1, "velocity": 100}, {"time": 3342, "pitch": 75, "duration": 2, "velocity": 82}, {"time": 3345, "pitch": 80, "duration": 5, "velocity": 106}, {"time": 3351, "pitch": 82, "duration": 2, "velocity": 91}, {"time": 3357, "pitch": 77, "duration": 5, "velocity": 100}, {"time": 3363, "pitch": 75, "duration": 2, "velocity": 76}, {"time": 3366, "pitch": 73, "duration": 10, "velocity": 98}, {"time": 3381, "pitch": 73, "duration": 11, "velocity": 98}, {"time": 3393, "pitch": 66, "duration": 9, "velocity": 91}, {"time": 3405, "pitch": 72, "duration": 4, "velocity": 100}, {"time": 3411, "pitch": 73, "duration": 2, "velocity": 75}, {"time": 3414, "pitch": 75, "duration": 8, "velocity": 100}, {"time": 3423, "pitch": 73, "duration": 6, "velocity": 91}, {"time": 3429, "pitch": 72, "duration": 6, "velocity": 82}, {"time": 3432, "pitch": 73, "duration": 2, "velocity": 79}, {"time": 3438, "pitch": 70, "duration": 21, "velocity": 73}]}, {"program": 0, "is_drum": false, "name": "PIANO", "notes": [{"time": 39, "pitch": 39, "duration": 20, "velocity": 106}, {"time": 43, "pitch": 46, "duration": 17, "velocity": 68}, {"time": 47, "pitch": 51, "duration": 14, "velocity": 85}, {"time": 51, "pitch": 54, "duration": 2, "velocity": 95}, {"time": 55, "pitch": 58, "duration": 15, "velocity": 111}, {"time": 55, "pitch": 54, "duration": 3, "velocity": 63}, {"time": 71, "pitch": 44, "duration": 23, "velocity": 106}, {"time": 74, "pitch": 51, "duration": 20, "velocity": 71}, {"time": 78, "pitch": 56, "duration": 16, "velocity": 71}, {"time": 82, "pitch": 60, "duration": 3, "velocity": 71}, {"time": 86, "pitch": 63, "duration": 17, "velocity": 98}, {"time": 103, "pitch": 49, "duration": 32, "velocity": 82}, {"time": 104, "pitch": 58, "duration": 2, "velocity": 76}, {"time": 105, "pitch": 61, "duration": 22, "velocity": 73}, {"time": 106, "pitch": 66, "duration": 33, "velocity": 91}, {"time": 137, "pitch": 46, "duration": 38, "velocity": 75}, {"time": 141, "pitch": 53, "duration": 35, "velocity": 68}, {"time": 145, "pitch": 58, "duration": 31, "velocity": 68}, {"time": 149, "pitch": 61, "duration": 3, "velocity": 71}, {"time": 153, "pitch": 65, "duration": 22, "velocity": 69}, {"time": 153, "pitch": 61, "duration": 21, "velocity": 48}, {"time": 177, "pitch": 39, "duration": 22, "velocity": 103}, {"time": 181, "pitch": 46, "duration": 19, "velocity": 68}, {"time": 185, "pitch": 51, "duration": 16, "velocity": 66}, {"time": 188, "pitch": 54, "duration": 2, "velocity": 66}, {"time": 192, "pitch": 58, "duration": 15, "velocity": 75}, {"time": 193, "pitch": 63, "duration": 13, "velocity": 38}, {"time": 207, "pitch": 44, "duration": 49, "velocity": 82}, {"time": 211, "pitch": 51, "duration": 45, "velocity": 56}, {"time": 215, "pitch": 56, "duration": 41, "velocity": 48}, {"time": 219, "pitch": 60, "duration": 37, "velocity": 38}, {"time": 223, "pitch": 63, "duration": 33, "velocity": 55}, {"time": 260, "pitch": 46, "duration": 15, "velocity": 88}, {"time": 260, "pitch": 65, "duration": 5, "velocity": 88}, {"time": 260, "pitch": 61, "duration": 5, "velocity": 75}, {"time": 260, "pitch": 70, "duration": 7, "velocity": 76}, {"time": 266, "pitch": 53, "duration": 8, "velocity": 49}, {"time": 266, "pitch": 58, "duration": 8, "velocity": 58}, {"time": 272, "pitch": 65, "duration": 1, "velocity": 100}, {"time": 272, "pitch": 70, "duration": 2, "velocity": 91}, {"time": 272, "pitch": 61, "duration": 2, "velocity": 85}, {"time": 278, "pitch": 44, "duration": 24, "velocity": 98}, {"time": 278, "pitch": 68, "duration": 10, "velocity": 95}, {"time": 278, "pitch": 63, "duration": 8, "velocity": 106}, {"time": 278, "pitch": 60, "duration": 7, "velocity": 91}, {"time": 284, "pitch": 51, "duration": 19, "velocity": 65}, {"time": 284, "pitch": 56, "duration": 19, "velocity": 68}, {"time": 294, "pitch": 60, "duration": 9, "velocity": 66}, {"time": 295, "pitch": 63, "duration": 1, "velocity": 65}, {"time": 296, "pitch": 68, "duration": 7, "velocity": 95}, {"time": 308, "pitch": 46, "duration": 15, "velocity": 88}, {"time": 308, "pitch": 65, "duration": 6, "velocity": 91}, {"time": 308, "pitch": 61, "duration": 6, "velocity": 77}, {"time": 308, "pitch": 70, "duration": 7, "velocity": 85}, {"time": 314, "pitch": 53, "duration": 8, "velocity": 51}, {"time": 314, "pitch": 58, "duration": 8, "velocity": 67}, {"time": 320, "pitch": 65, "duration": 2, "velocity": 106}, {"time": 320, "pitch": 70, "duration": 2, "velocity": 98}, {"time": 320, "pitch": 61, "duration": 2, "velocity": 88}, {"time": 325, "pitch": 44, "duration": 28, "velocity": 77}, {"time": 326, "pitch": 63, "duration": 8, "velocity": 103}, {"time": 326, "pitch": 68, "duration": 16, "velocity": 82}, {"time": 326, "pitch": 60, "duration": 7, "velocity": 91}, {"time": 332, "pitch": 51, "duration": 20, "velocity": 46}, {"time": 332, "pitch": 56, "duration": 20, "velocity": 60}, {"time": 339, "pitch": 63, "duration": 1, "velocity": 12}, {"time": 341, "pitch": 60, "duration": 6, "velocity": 64}, {"time": 342, "pitch": 63, "duration": 2, "velocity": 73}, {"time": 343, "pitch": 68, "duration": 8, "velocity": 95}, {"time": 357, "pitch": 46, "duration": 20, "velocity": 82}, {"time": 360, "pitch": 53, "duration": 17, "velocity": 61}, {"time": 363, "pitch": 58, "duration": 13, "velocity": 75}, {"time": 366, "pitch": 61, "duration": 2, "velocity": 88}, {"time": 369, "pitch": 61, "duration": 2, "velocity": 59}, {"time": 369, "pitch": 65, "duration": 2, "velocity": 82}, {"time": 372, "pitch": 70, "duration": 2, "velocity": 79}, {"time": 375, "pitch": 61, "duration": 2, "velocity": 71}, {"time": 378, "pitch": 61, "duration": 1, "velocity": 40}, {"time": 381, "pitch": 46, "duration": 22, "velocity": 75}, {"time": 381, "pitch": 61, "duration": 8, "velocity": 65}, {"time": 381, "pitch": 70, "duration": 8, "velocity": 75}, {"time": 387, "pitch": 53, "duration": 9, "velocity": 8}, {"time": 387, "pitch": 58, "duration": 8, "velocity": 61}, {"time": 393, "pitch": 70, "duration": 6, "velocity": 91}, {"time": 396, "pitch": 61, "duration": 8, "velocity": 67}, {"time": 399, "pitch": 65, "duration": 2, "velocity": 66}, {"time": 405, "pitch": 41, "duration": 44, "velocity": 100}, {"time": 408, "pitch": 48, "duration": 41, "velocity": 64}, {"time": 411, "pitch": 53, "duration": 3, "velocity": 62}, {"time": 414, "pitch": 56, "duration": 6, "velocity": 75}, {"time": 417, "pitch": 53, "duration": 33, "velocity": 64}, {"time": 420, "pitch": 60, "duration": 3, "velocity": 69}, {"time": 423, "pitch": 56, "duration": 9, "velocity": 69}, {"time": 429, "pitch": 65, "duration": 20, "velocity": 73}, {"time": 453, "pitch": 42, "duration": 40, "velocity": 109}, {"time": 456, "pitch": 49, "duration": 31, "velocity": 70}, {"time": 459, "pitch": 54, "duration": 23, "velocity": 77}, {"time": 462, "pitch": 58, "duration": 2, "velocity": 98}, {"time": 465, "pitch": 58, "duration": 2, "velocity": 47}, {"time": 465, "pitch": 61, "duration": 2, "velocity": 88}, {"time": 468, "pitch": 66, "duration": 2, "velocity": 73}, {"time": 471, "pitch": 58, "duration": 2, "velocity": 77}, {"time": 474, "pitch": 58, "duration": 1, "velocity": 49}, {"time": 474, "pitch": 61, "duration": 1, "velocity": 70}, {"time": 477, "pitch": 58, "duration": 14, "velocity": 71}, {"time": 477, "pitch": 61, "duration": 14, "velocity": 75}, {"time": 477, "pitch": 66, "duration": 11, "velocity": 85}, {"time": 489, "pitch": 49, "duration": 5, "velocity": 58}, {"time": 489, "pitch": 54, "duration": 7, "velocity": 91}, {"time": 492, "pitch": 66, "duration": 2, "velocity": 77}, {"time": 495, "pitch": 58, "duration": 3, "velocity": 85}, {"time": 498, "pitch": 61, "duration": 1, "velocity": 63}, {"time": 501, "pitch": 44, "duration": 25, "velocity": 103}, {"time": 504, "pitch": 51, "duration": 22, "velocity": 76}, {"time": 507, "pitch": 56, "duration": 19, "velocity": 76}, {"time": 510, "pitch": 60, "duration": 5, "velocity": 95}, {"time": 513, "pitch": 63, "duration": 2, "velocity": 109}, {"time": 516, "pitch": 68, "duration": 2, "velocity": 85}, {"time": 519, "pitch": 60, "duration": 5, "velocity": 91}, {"time": 522, "pitch": 63, "duration": 2, "velocity": 91}, {"time": 525, "pitch": 49, "duration": 29, "velocity": 98}, {"time": 528, "pitch": 56, "duration": 25, "velocity": 75}, {"time": 531, "pitch": 61, "duration": 4, "velocity": 82}, {"time": 534, "pitch": 65, "duration": 6, "velocity": 98}, {"time": 537, "pitch": 61, "duration": 16, "velocity": 88}, {"time": 540, "pitch": 68, "duration": 2, "velocity": 88}, {"time": 543, "pitch": 73, "duration": 3, "velocity": 85}, {"time": 546, "pitch": 65, "duration": 8, "velocity": 88}, {"time": 549, "pitch": 51, "duration": 15, "velocity": 111}, {"time": 552, "pitch": 58, "duration": 11, "velocity": 88}, {"time": 555, "pitch": 63, "duration": 7, "velocity": 106}, {"time": 558, "pitch": 66, "duration": 2, "velocity": 109}, {"time": 561, "pitch": 66, "duration": 1, "velocity": 38}, {"time": 561, "pitch": 70, "duration": 2, "velocity": 95}, {"time": 564, "pitch": 75, "duration": 2, "velocity": 103}, {"time": 567, "pitch": 66, "duration": 4, "velocity": 98}, {"time": 570, "pitch": 70, "duration": 1, "velocity": 95}, {"time": 573, "pitch": 44, "duration": 16, "velocity": 109}, {"time": 576, "pitch": 51, "duration": 13, "velocity": 88}, {"time": 579, "pitch": 56, "duration": 10, "velocity": 103}, {"time": 582, "pitch": 60, "duration": 2, "velocity": 103}, {"time": 585, "pitch": 60, "duration": 1, "velocity": 53}, {"time": 585, "pitch": 63, "duration": 2, "velocity": 106}, {"time": 585, "pitch": 42, "duration": 11, "velocity": 109}, {"time": 588, "pitch": 68, "duration": 2, "velocity": 100}, {"time": 597, "pitch": 41, "duration": 18, "velocity": 100}, {"time": 600, "pitch": 48, "duration": 16, "velocity": 70}, {"time": 603, "pitch": 53, "duration": 14, "velocity": 79}, {"time": 606, "pitch": 56, "duration": 4, "velocity": 98}, {"time": 609, "pitch": 60, "duration": 2, "velocity": 82}, {"time": 612, "pitch": 63, "duration": 2, "velocity": 109}, {"time": 615, "pitch": 56, "duration": 5, "velocity": 91}, {"time": 618, "pitch": 60, "duration": 2, "velocity": 91}, {"time": 621, "pitch": 46, "duration": 26, "velocity": 106}, {"time": 624, "pitch": 53, "duration": 23, "velocity": 79}, {"time": 627, "pitch": 58, "duration": 19, "velocity": 79}, {"time": 630, "pitch": 61, "duration": 5, "velocity": 79}, {"time": 633, "pitch": 65, "duration": 2, "velocity": 82}, {"time": 636, "pitch": 68, "duration": 2, "velocity": 91}, {"time": 639, "pitch": 61, "duration": 5, "velocity": 77}, {"time": 642, "pitch": 65, "duration": 3, "velocity": 79}, {"time": 645, "pitch": 39, "duration": 23, "velocity": 111}, {"time": 648, "pitch": 46, "duration": 19, "velocity": 68}, {"time": 651, "pitch": 51, "duration": 16, "velocity": 75}, {"time": 654, "pitch": 54, "duration": 5, "velocity": 88}, {"time": 657, "pitch": 58, "duration": 10, "velocity": 85}, {"time": 669, "pitch": 41, "duration": 22, "velocity": 98}, {"time": 672, "pitch": 48, "duration": 19, "velocity": 68}, {"time": 675, "pitch": 53, "duration": 16, "velocity": 98}, {"time": 678, "pitch": 56, "duration": 12, "velocity": 88}, {"time": 681, "pitch": 63, "duration": 10, "velocity": 75}, {"time": 693, "pitch": 46, "duration": 14, "velocity": 85}, {"time": 693, "pitch": 61, "duration": 4, "velocity": 69}, {"time": 693, "pitch": 65, "duration": 5, "velocity": 72}, {"time": 693, "pitch": 70, "duration": 7, "velocity": 68}, {"time": 699, "pitch": 58, "duration": 7, "velocity": 59}, {"time": 702, "pitch": 53, "duration": 2, "velocity": 6}, {"time": 705, "pitch": 61, "duration": 2, "velocity": 61}, {"time": 705, "pitch": 65, "duration": 1, "velocity": 68}, {"time": 705, "pitch": 70, "duration": 2, "velocity": 61}, {"time": 711, "pitch": 44, "duration": 23, "velocity": 66}, {"time": 711, "pitch": 60, "duration": 13, "velocity": 69}, {"time": 711, "pitch": 63, "duration": 14, "velocity": 73}, {"time": 711, "pitch": 68, "duration": 15, "velocity": 70}, {"time": 720, "pitch": 51, "duration": 12, "velocity": 6}, {"time": 723, "pitch": 56, "duration": 11, "velocity": 18}, {"time": 729, "pitch": 60, "duration": 11, "velocity": 65}, {"time": 729, "pitch": 63, "duration": 10, "velocity": 65}, {"time": 735, "pitch": 68, "duration": 5, "velocity": 64}, {"time": 741, "pitch": 46, "duration": 14, "velocity": 91}, {"time": 747, "pitch": 53, "duration": 8, "velocity": 55}, {"time": 747, "pitch": 58, "duration": 7, "velocity": 69}, {"time": 753, "pitch": 61, "duration": 2, "velocity": 68}, {"time": 753, "pitch": 65, "duration": 2, "velocity": 69}, {"time": 753, "pitch": 70, "duration": 2, "velocity": 70}, {"time": 759, "pitch": 44, "duration": 25, "velocity": 79}, {"time": 759, "pitch": 60, "duration": 16, "velocity": 71}, {"time": 759, "pitch": 63, "duration": 17, "velocity": 82}, {"time": 759, "pitch": 68, "duration": 15, "velocity": 66}, {"time": 765, "pitch": 51, "duration": 16, "velocity": 6}, {"time": 771, "pitch": 56, "duration": 11, "velocity": 40}, {"time": 777, "pitch": 68, "duration": 6, "velocity": 73}, {"time": 789, "pitch": 46, "duration": 20, "velocity": 98}, {"time": 792, "pitch": 53, "duration": 19, "velocity": 71}, {"time": 795, "pitch": 58, "duration": 15, "velocity": 71}, {"time": 798, "pitch": 61, "duration": 4, "velocity": 75}, {"time": 801, "pitch": 65, "duration": 2, "velocity": 85}, {"time": 804, "pitch": 70, "duration": 2, "velocity": 85}, {"time": 807, "pitch": 61, "duration": 12, "velocity": 71}, {"time": 810, "pitch": 65, "duration": 4, "velocity": 51}, {"time": 813, "pitch": 46, "duration": 22, "velocity": 88}, {"time": 816, "pitch": 53, "duration": 14, "velocity": 52}, {"time": 819, "pitch": 58, "duration": 10, "velocity": 60}, {"time": 822, "pitch": 61, "duration": 5, "velocity": 69}, {"time": 825, "pitch": 65, "duration": 2, "velocity": 73}, {"time": 828, "pitch": 70, "duration": 2, "velocity": 73}, {"time": 831, "pitch": 61, "duration": 6, "velocity": 73}, {"time": 834, "pitch": 65, "duration": 3, "velocity": 68}, {"time": 837, "pitch": 41, "duration": 46, "velocity": 103}, {"time": 840, "pitch": 48, "duration": 43, "velocity": 58}, {"time": 843, "pitch": 53, "duration": 3, "velocity": 58}, {"time": 846, "pitch": 56, "duration": 7, "velocity": 98}, {"time": 849, "pitch": 53, "duration": 34, "velocity": 66}, {"time": 852, "pitch": 60, "duration": 4, "velocity": 85}, {"time": 855, "pitch": 65, "duration": 2, "velocity": 62}, {"time": 858, "pitch": 56, "duration": 3, "velocity": 69}, {"time": 861, "pitch": 65, "duration": 22, "velocity": 85}, {"time": 885, "pitch": 42, "duration": 42, "velocity": 98}, {"time": 888, "pitch": 49, "duration": 42, "velocity": 58}, {"time": 891, "pitch": 54, "duration": 21, "velocity": 64}, {"time": 894, "pitch": 58, "duration": 5, "velocity": 69}, {"time": 897, "pitch": 61, "duration": 2, "velocity": 91}, {"time": 900, "pitch": 66, "duration": 3, "velocity": 73}, {"time": 903, "pitch": 58, "duration": 11, "velocity": 70}, {"time": 909, "pitch": 66, "duration": 9, "velocity": 100}, {"time": 915, "pitch": 54, "duration": 3, "velocity": 58}, {"time": 918, "pitch": 58, "duration": 8, "velocity": 88}, {"time": 921, "pitch": 54, "duration": 8, "velocity": 67}, {"time": 924, "pitch": 61, "duration": 2, "velocity": 76}, {"time": 927, "pitch": 66, "duration": 5, "velocity": 85}, {"time": 930, "pitch": 58, "duration": 3, "velocity": 73}, {"time": 933, "pitch": 44, "duration": 21, "velocity": 98}, {"time": 936, "pitch": 51, "duration": 16, "velocity": 68}, {"time": 939, "pitch": 56, "duration": 4, "velocity": 67}, {"time": 942, "pitch": 60, "duration": 6, "velocity": 82}, {"time": 945, "pitch": 56, "duration": 6, "velocity": 72}, {"time": 948, "pitch": 68, "duration": 3, "velocity": 85}, {"time": 951, "pitch": 60, "duration": 6, "velocity": 75}, {"time": 954, "pitch": 63, "duration": 2, "velocity": 71}, {"time": 957, "pitch": 49, "duration": 20, "velocity": 77}, {"time": 960, "pitch": 56, "duration": 14, "velocity": 75}, {"time": 963, "pitch": 61, "duration": 4, "velocity": 69}, {"time": 966, "pitch": 65, "duration": 6, "velocity": 91}, {"time": 969, "pitch": 61, "duration": 5, "velocity": 59}, {"time": 972, "pitch": 73, "duration": 3, "velocity": 88}, {"time": 975, "pitch": 65, "duration": 5, "velocity": 82}, {"time": 978, "pitch": 68, "duration": 2, "velocity": 69}, {"time": 981, "pitch": 51, "duration": 17, "velocity": 100}, {"time": 984, "pitch": 58, "duration": 12, "velocity": 73}, {"time": 987, "pitch": 63, "duration": 3, "velocity": 64}, {"time": 990, "pitch": 66, "duration": 5, "velocity": 85}, {"time": 993, "pitch": 63, "duration": 2, "velocity": 73}, {"time": 996, "pitch": 75, "duration": 3, "velocity": 95}, {"time": 999, "pitch": 66, "duration": 5, "velocity": 79}, {"time": 1002, "pitch": 70, "duration": 2, "velocity": 69}, {"time": 1005, "pitch": 44, "duration": 23, "velocity": 100}, {"time": 1008, "pitch": 51, "duration": 18, "velocity": 64}, {"time": 1011, "pitch": 56, "duration": 15, "velocity": 64}, {"time": 1014, "pitch": 60, "duration": 6, "velocity": 91}, {"time": 1017, "pitch": 63, "duration": 1, "velocity": 30}, {"time": 1020, "pitch": 68, "duration": 2, "velocity": 71}, {"time": 1023, "pitch": 60, "duration": 5, "velocity": 75}, {"time": 1026, "pitch": 63, "duration": 2, "velocity": 68}, {"time": 1029, "pitch": 41, "duration": 22, "velocity": 111}, {"time": 1032, "pitch": 48, "duration": 19, "velocity": 69}, {"time": 1035, "pitch": 53, "duration": 16, "velocity": 69}, {"time": 1038, "pitch": 56, "duration": 6, "velocity": 64}, {"time": 1041, "pitch": 60, "duration": 3, "velocity": 58}, {"time": 1044, "pitch": 61, "duration": 1, "velocity": 73}, {"time": 1044, "pitch": 63, "duration": 4, "velocity": 79}, {"time": 1047, "pitch": 56, "duration": 6, "velocity": 79}, {"time": 1050, "pitch": 60, "duration": 3, "velocity": 69}, {"time": 1053, "pitch": 46, "duration": 22, "velocity": 98}, {"time": 1056, "pitch": 53, "duration": 17, "velocity": 68}, {"time": 1059, "pitch": 58, "duration": 4, "velocity": 64}, {"time": 1062, "pitch": 61, "duration": 5, "velocity": 71}, {"time": 1065, "pitch": 58, "duration": 8, "velocity": 69}, {"time": 1068, "pitch": 70, "duration": 3, "velocity": 85}, {"time": 1071, "pitch": 61, "duration": 5, "velocity": 68}, {"time": 1074, "pitch": 65, "duration": 2, "velocity": 68}, {"time": 1077, "pitch": 39, "duration": 14, "velocity": 103}, {"time": 1080, "pitch": 46, "duration": 12, "velocity": 68}, {"time": 1083, "pitch": 51, "duration": 10, "velocity": 68}, {"time": 1086, "pitch": 54, "duration": 5, "velocity": 72}, {"time": 1089, "pitch": 58, "duration": 3, "velocity": 73}, {"time": 1092, "pitch": 63, "duration": 2, "velocity": 73}, {"time": 1095, "pitch": 54, "duration": 5, "velocity": 73}, {"time": 1098, "pitch": 58, "duration": 2, "velocity": 69}, {"time": 1101, "pitch": 41, "duration": 25, "velocity": 100}, {"time": 1104, "pitch": 48, "duration": 21, "velocity": 55}, {"time": 1107, "pitch": 53, "duration": 18, "velocity": 77}, {"time": 1110, "pitch": 56, "duration": 3, "velocity": 69}, {"time": 1113, "pitch": 63, "duration": 12, "velocity": 88}, {"time": 1128, "pitch": 53, "duration": 32, "velocity": 65}, {"time": 1131, "pitch": 58, "duration": 29, "velocity": 68}, {"time": 1134, "pitch": 61, "duration": 6, "velocity": 69}, {"time": 1140, "pitch": 65, "duration": 2, "velocity": 72}, {"time": 1143, "pitch": 61, "duration": 4, "velocity": 65}, {"time": 1149, "pitch": 70, "duration": 12, "velocity": 75}, {"time": 1173, "pitch": 46, "duration": 19, "velocity": 109}, {"time": 1176, "pitch": 53, "duration": 7, "velocity": 69}, {"time": 1179, "pitch": 58, "duration": 3, "velocity": 73}, {"time": 1182, "pitch": 61, "duration": 2, "velocity": 106}, {"time": 1182, "pitch": 65, "duration": 2, "velocity": 77}, {"time": 1185, "pitch": 53, "duration": 9, "velocity": 57}, {"time": 1185, "pitch": 58, "duration": 10, "velocity": 75}, {"time": 1188, "pitch": 61, "duration": 4, "velocity": 91}, {"time": 1191, "pitch": 65, "duration": 2, "velocity": 75}, {"time": 1194, "pitch": 70, "duration": 3, "velocity": 76}, {"time": 1197, "pitch": 51, "duration": 17, "velocity": 109}, {"time": 1200, "pitch": 58, "duration": 7, "velocity": 68}, {"time": 1203, "pitch": 63, "duration": 3, "velocity": 75}, {"time": 1206, "pitch": 66, "duration": 4, "velocity": 111}, {"time": 1209, "pitch": 58, "duration": 3, "velocity": 53}, {"time": 1209, "pitch": 63, "duration": 3, "velocity": 85}, {"time": 1212, "pitch": 75, "duration": 3, "velocity": 106}, {"time": 1215, "pitch": 66, "duration": 6, "velocity": 95}, {"time": 1218, "pitch": 70, "duration": 2, "velocity": 77}, {"time": 1221, "pitch": 44, "duration": 18, "velocity": 111}, {"time": 1224, "pitch": 51, "duration": 7, "velocity": 62}, {"time": 1227, "pitch": 56, "duration": 3, "velocity": 71}, {"time": 1230, "pitch": 60, "duration": 2, "velocity": 103}, {"time": 1230, "pitch": 63, "duration": 2, "velocity": 111}, {"time": 1233, "pitch": 51, "duration": 6, "velocity": 52}, {"time": 1233, "pitch": 56, "duration": 7, "velocity": 76}, {"time": 1236, "pitch": 60, "duration": 2, "velocity": 98}, {"time": 1236, "pitch": 63, "duration": 1, "velocity": 106}, {"time": 1242, "pitch": 65, "duration": 2, "velocity": 72}, {"time": 1245, "pitch": 49, "duration": 16, "velocity": 106}, {"time": 1248, "pitch": 56, "duration": 7, "velocity": 72}, {"time": 1251, "pitch": 61, "duration": 3, "velocity": 71}, {"time": 1254, "pitch": 65, "duration": 5, "velocity": 100}, {"time": 1257, "pitch": 56, "duration": 2, "velocity": 55}, {"time": 1257, "pitch": 61, "duration": 2, "velocity": 75}, {"time": 1260, "pitch": 73, "duration": 3, "velocity": 100}, {"time": 1263, "pitch": 65, "duration": 6, "velocity": 88}, {"time": 1266, "pitch": 68, "duration": 3, "velocity": 76}, {"time": 1269, "pitch": 42, "duration": 22, "velocity": 111}, {"time": 1272, "pitch": 49, "duration": 7, "velocity": 61}, {"time": 1275, "pitch": 54, "duration": 3, "velocity": 70}, {"time": 1278, "pitch": 58, "duration": 3, "velocity": 100}, {"time": 1278, "pitch": 61, "duration": 2, "velocity": 106}, {"time": 1281, "pitch": 49, "duration": 10, "velocity": 30}, {"time": 1281, "pitch": 54, "duration": 10, "velocity": 75}, {"time": 1284, "pitch": 58, "duration": 3, "velocity": 91}, {"time": 1287, "pitch": 61, "duration": 2, "velocity": 82}, {"time": 1290, "pitch": 58, "duration": 2, "velocity": 82}, {"time": 1293, "pitch": 44, "duration": 20, "velocity": 111}, {"time": 1296, "pitch": 51, "duration": 7, "velocity": 62}, {"time": 1299, "pitch": 56, "duration": 3, "velocity": 76}, {"time": 1302, "pitch": 60, "duration": 5, "velocity": 103}, {"time": 1305, "pitch": 51, "duration": 10, "velocity": 52}, {"time": 1305, "pitch": 56, "duration": 10, "velocity": 88}, {"time": 1308, "pitch": 68, "duration": 2, "velocity": 77}, {"time": 1311, "pitch": 60, "duration": 5, "velocity": 75}, {"time": 1314, "pitch": 63, "duration": 3, "velocity": 72}, {"time": 1317, "pitch": 49, "duration": 18, "velocity": 109}, {"time": 1320, "pitch": 56, "duration": 7, "velocity": 85}, {"time": 1323, "pitch": 61, "duration": 3, "velocity": 73}, {"time": 1326, "pitch": 65, "duration": 5, "velocity": 103}, {"time": 1329, "pitch": 56, "duration": 5, "velocity": 60}, {"time": 1329, "pitch": 61, "duration": 5, "velocity": 98}, {"time": 1332, "pitch": 73, "duration": 2, "velocity": 88}, {"time": 1335, "pitch": 65, "duration": 6, "velocity": 98}, {"time": 1338, "pitch": 68, "duration": 3, "velocity": 82}, {"time": 1341, "pitch": 41, "duration": 23, "velocity": 98}, {"time": 1344, "pitch": 48, "duration": 19, "velocity": 77}, {"time": 1347, "pitch": 53, "duration": 16, "velocity": 100}, {"time": 1350, "pitch": 57, "duration": 13, "velocity": 76}, {"time": 1353, "pitch": 60, "duration": 2, "velocity": 71}, {"time": 1353, "pitch": 65, "duration": 11, "velocity": 103}, {"time": 1365, "pitch": 46, "duration": 21, "velocity": 111}, {"time": 1368, "pitch": 61, "duration": 2, "velocity": 91}, {"time": 1368, "pitch": 65, "duration": 1, "velocity": 109}, {"time": 1371, "pitch": 53, "duration": 16, "velocity": 8}, {"time": 1371, "pitch": 58, "duration": 3, "velocity": 65}, {"time": 1374, "pitch": 61, "duration": 10, "velocity": 98}, {"time": 1374, "pitch": 65, "duration": 10, "velocity": 100}, {"time": 1383, "pitch": 58, "duration": 4, "velocity": 79}, {"time": 1386, "pitch": 70, "duration": 3, "velocity": 109}, {"time": 1389, "pitch": 51, "duration": 15, "velocity": 111}, {"time": 1392, "pitch": 58, "duration": 7, "velocity": 71}, {"time": 1395, "pitch": 63, "duration": 3, "velocity": 73}, {"time": 1398, "pitch": 66, "duration": 5, "velocity": 106}, {"time": 1401, "pitch": 58, "duration": 2, "velocity": 55}, {"time": 1401, "pitch": 63, "duration": 2, "velocity": 95}, {"time": 1404, "pitch": 75, "duration": 3, "velocity": 103}, {"time": 1407, "pitch": 66, "duration": 5, "velocity": 95}, {"time": 1410, "pitch": 70, "duration": 2, "velocity": 82}, {"time": 1413, "pitch": 44, "duration": 22, "velocity": 109}, {"time": 1416, "pitch": 51, "duration": 19, "velocity": 71}, {"time": 1419, "pitch": 56, "duration": 4, "velocity": 77}, {"time": 1422, "pitch": 60, "duration": 7, "velocity": 100}, {"time": 1425, "pitch": 56, "duration": 10, "velocity": 77}, {"time": 1428, "pitch": 63, "duration": 3, "velocity": 75}, {"time": 1431, "pitch": 68, "duration": 2, "velocity": 73}, {"time": 1434, "pitch": 60, "duration": 1, "velocity": 79}, {"time": 1437, "pitch": 49, "duration": 17, "velocity": 106}, {"time": 1440, "pitch": 56, "duration": 12, "velocity": 77}, {"time": 1443, "pitch": 61, "duration": 9, "velocity": 85}, {"time": 1446, "pitch": 65, "duration": 8, "velocity": 109}, {"time": 1452, "pitch": 68, "duration": 3, "velocity": 98}, {"time": 1455, "pitch": 73, "duration": 2, "velocity": 100}, {"time": 1458, "pitch": 65, "duration": 3, "velocity": 100}, {"time": 1461, "pitch": 42, "duration": 18, "velocity": 111}, {"time": 1464, "pitch": 49, "duration": 16, "velocity": 69}, {"time": 1467, "pitch": 54, "duration": 13, "velocity": 71}, {"time": 1470, "pitch": 58, "duration": 6, "velocity": 100}, {"time": 1473, "pitch": 61, "duration": 2, "velocity": 64}, {"time": 1476, "pitch": 66, "duration": 2, "velocity": 77}, {"time": 1479, "pitch": 58, "duration": 5, "velocity": 85}, {"time": 1485, "pitch": 44, "duration": 24, "velocity": 111}, {"time": 1488, "pitch": 51, "duration": 21, "velocity": 79}, {"time": 1491, "pitch": 56, "duration": 18, "velocity": 95}, {"time": 1494, "pitch": 60, "duration": 5, "velocity": 95}, {"time": 1497, "pitch": 63, "duration": 2, "velocity": 91}, {"time": 1500, "pitch": 68, "duration": 3, "velocity": 77}, {"time": 1503, "pitch": 60, "duration": 6, "velocity": 95}, {"time": 1509, "pitch": 46, "duration": 41, "velocity": 100}, {"time": 1512, "pitch": 53, "duration": 38, "velocity": 70}, {"time": 1515, "pitch": 58, "duration": 3, "velocity": 71}, {"time": 1518, "pitch": 61, "duration": 6, "velocity": 79}, {"time": 1521, "pitch": 58, "duration": 29, "velocity": 70}, {"time": 1524, "pitch": 65, "duration": 2, "velocity": 70}, {"time": 1527, "pitch": 61, "duration": 5, "velocity": 73}, {"time": 1530, "pitch": 65, "duration": 2, "velocity": 48}, {"time": 1533, "pitch": 70, "duration": 17, "velocity": 85}, {"time": 1557, "pitch": 39, "duration": 42, "velocity": 79}, {"time": 1560, "pitch": 46, "duration": 38, "velocity": 75}, {"time": 1563, "pitch": 51, "duration": 35, "velocity": 69}, {"time": 1566, "pitch": 54, "duration": 1, "velocity": 62}, {"time": 1569, "pitch": 54, "duration": 29, "velocity": 67}, {"time": 1569, "pitch": 58, "duration": 29, "velocity": 70}, {"time": 1569, "pitch": 61, "duration": 29, "velocity": 68}, {"time": 1605, "pitch": 48, "duration": 43, "velocity": 95}, {"time": 1608, "pitch": 51, "duration": 39, "velocity": 69}, {"time": 1611, "pitch": 56, "duration": 5, "velocity": 68}, {"time": 1614, "pitch": 60, "duration": 2, "velocity": 73}, {"time": 1617, "pitch": 56, "duration": 31, "velocity": 53}, {"time": 1617, "pitch": 60, "duration": 31, "velocity": 61}, {"time": 1617, "pitch": 63, "duration": 31, "velocity": 69}, {"time": 1653, "pitch": 39, "duration": 44, "velocity": 100}, {"time": 1656, "pitch": 46, "duration": 42, "velocity": 69}, {"time": 1659, "pitch": 51, "duration": 40, "velocity": 73}, {"time": 1662, "pitch": 54, "duration": 6, "velocity": 66}, {"time": 1665, "pitch": 58, "duration": 5, "velocity": 54}, {"time": 1668, "pitch": 63, "duration": 5, "velocity": 67}, {"time": 1671, "pitch": 54, "duration": 26, "velocity": 56}, {"time": 1674, "pitch": 58, "duration": 5, "velocity": 51}, {"time": 1677, "pitch": 63, "duration": 21, "velocity": 57}, {"time": 1701, "pitch": 48, "duration": 17, "velocity": 103}, {"time": 1704, "pitch": 54, "duration": 12, "velocity": 68}, {"time": 1707, "pitch": 60, "duration": 9, "velocity": 61}, {"time": 1710, "pitch": 63, "duration": 14, "velocity": 57}, {"time": 1713, "pitch": 66, "duration": 10, "velocity": 68}, {"time": 1725, "pitch": 42, "duration": 27, "velocity": 85}, {"time": 1728, "pitch": 49, "duration": 24, "velocity": 60}, {"time": 1731, "pitch": 54, "duration": 21, "velocity": 63}, {"time": 1734, "pitch": 58, "duration": 2, "velocity": 68}, {"time": 1737, "pitch": 58, "duration": 14, "velocity": 55}, {"time": 1737, "pitch": 61, "duration": 14, "velocity": 68}, {"time": 1737, "pitch": 66, "duration": 14, "velocity": 71}, {"time": 1749, "pitch": 49, "duration": 3, "velocity": 85}, {"time": 1752, "pitch": 56, "duration": 18, "velocity": 47}, {"time": 1755, "pitch": 61, "duration": 15, "velocity": 66}, {"time": 1758, "pitch": 65, "duration": 6, "velocity": 77}, {"time": 1764, "pitch": 68, "duration": 6, "velocity": 82}, {"time": 1770, "pitch": 65, "duration": 2, "velocity": 75}, {"time": 1773, "pitch": 53, "duration": 22, "velocity": 98}, {"time": 1776, "pitch": 60, "duration": 19, "velocity": 82}, {"time": 1779, "pitch": 65, "duration": 16, "velocity": 79}, {"time": 1782, "pitch": 69, "duration": 6, "velocity": 92}, {"time": 1788, "pitch": 72, "duration": 2, "velocity": 51}, {"time": 1788, "pitch": 77, "duration": 7, "velocity": 77}, {"time": 1797, "pitch": 46, "duration": 10, "velocity": 82}, {"time": 1800, "pitch": 53, "duration": 7, "velocity": 66}, {"time": 1803, "pitch": 58, "duration": 4, "velocity": 64}, {"time": 1806, "pitch": 61, "duration": 3, "velocity": 61}, {"time": 1809, "pitch": 44, "duration": 10, "velocity": 98}, {"time": 1812, "pitch": 51, "duration": 6, "velocity": 64}, {"time": 1815, "pitch": 56, "duration": 3, "velocity": 64}, {"time": 1821, "pitch": 43, "duration": 18, "velocity": 112}, {"time": 1827, "pitch": 55, "duration": 17, "velocity": 40}, {"time": 1833, "pitch": 58, "duration": 11, "velocity": 56}, {"time": 1845, "pitch": 39, "duration": 39, "velocity": 77}, {"time": 1851, "pitch": 46, "duration": 34, "velocity": 10}, {"time": 1854, "pitch": 51, "duration": 32, "velocity": 14}, {"time": 1893, "pitch": 41, "duration": 35, "velocity": 75}, {"time": 1896, "pitch": 48, "duration": 32, "velocity": 38}, {"time": 1899, "pitch": 53, "duration": 29, "velocity": 44}, {"time": 1902, "pitch": 57, "duration": 6, "velocity": 72}, {"time": 1908, "pitch": 60, "duration": 3, "velocity": 51}, {"time": 1911, "pitch": 57, "duration": 6, "velocity": 67}, {"time": 1917, "pitch": 65, "duration": 11, "velocity": 77}, {"time": 1941, "pitch": 46, "duration": 20, "velocity": 82}, {"time": 1944, "pitch": 53, "duration": 17, "velocity": 61}, {"time": 1947, "pitch": 58, "duration": 13, "velocity": 75}, {"time": 1950, "pitch": 61, "duration": 2, "velocity": 88}, {"time": 1953, "pitch": 61, "duration": 2, "velocity": 59}, {"time": 1953, "pitch": 65, "duration": 2, "velocity": 82}, {"time": 1956, "pitch": 70, "duration": 2, "velocity": 79}, {"time": 1959, "pitch": 61, "duration": 2, "velocity": 71}, {"time": 1962, "pitch": 61, "duration": 1, "velocity": 40}, {"time": 1965, "pitch": 46, "duration": 22, "velocity": 75}, {"time": 1965, "pitch": 61, "duration": 8, "velocity": 65}, {"time": 1965, "pitch": 70, "duration": 8, "velocity": 75}, {"time": 1971, "pitch": 53, "duration": 9, "velocity": 8}, {"time": 1971, "pitch": 58, "duration": 8, "velocity": 61}, {"time": 1977, "pitch": 70, "duration": 6, "velocity": 91}, {"time": 1980, "pitch": 61, "duration": 8, "velocity": 67}, {"time": 1983, "pitch": 65, "duration": 2, "velocity": 66}, {"time": 1989, "pitch": 44, "duration": 46, "velocity": 100}, {"time": 1992, "pitch": 51, "duration": 41, "velocity": 61}, {"time": 1995, "pitch": 56, "duration": 4, "velocity": 71}, {"time": 1998, "pitch": 60, "duration": 5, "velocity": 85}, {"time": 2001, "pitch": 56, "duration": 22, "velocity": 64}, {"time": 2004, "pitch": 68, "duration": 2, "velocity": 88}, {"time": 2007, "pitch": 60, "duration": 23, "velocity": 71}, {"time": 2013, "pitch": 63, "duration": 15, "velocity": 71}, {"time": 2013, "pitch": 68, "duration": 23, "velocity": 73}, {"time": 2025, "pitch": 56, "duration": 8, "velocity": 63}, {"time": 2031, "pitch": 60, "duration": 6, "velocity": 56}, {"time": 2037, "pitch": 42, "duration": 40, "velocity": 109}, {"time": 2040, "pitch": 49, "duration": 31, "velocity": 70}, {"time": 2043, "pitch": 54, "duration": 23, "velocity": 77}, {"time": 2046, "pitch": 58, "duration": 2, "velocity": 98}, {"time": 2049, "pitch": 58, "duration": 2, "velocity": 47}, {"time": 2049, "pitch": 61, "duration": 2, "velocity": 88}, {"time": 2052, "pitch": 66, "duration": 2, "velocity": 73}, {"time": 2055, "pitch": 58, "duration": 2, "velocity": 77}, {"time": 2058, "pitch": 58, "duration": 1, "velocity": 49}, {"time": 2058, "pitch": 61, "duration": 1, "velocity": 70}, {"time": 2061, "pitch": 58, "duration": 14, "velocity": 71}, {"time": 2061, "pitch": 61, "duration": 14, "velocity": 75}, {"time": 2061, "pitch": 66, "duration": 11, "velocity": 85}, {"time": 2073, "pitch": 49, "duration": 5, "velocity": 58}, {"time": 2073, "pitch": 54, "duration": 7, "velocity": 91}, {"time": 2076, "pitch": 66, "duration": 2, "velocity": 77}, {"time": 2079, "pitch": 58, "duration": 3, "velocity": 85}, {"time": 2082, "pitch": 61, "duration": 1, "velocity": 63}, {"time": 2085, "pitch": 44, "duration": 25, "velocity": 103}, {"time": 2088, "pitch": 51, "duration": 22, "velocity": 76}, {"time": 2091, "pitch": 56, "duration": 19, "velocity": 76}, {"time": 2094, "pitch": 60, "duration": 5, "velocity": 95}, {"time": 2097, "pitch": 63, "duration": 2, "velocity": 109}, {"time": 2100, "pitch": 68, "duration": 2, "velocity": 85}, {"time": 2103, "pitch": 60, "duration": 5, "velocity": 91}, {"time": 2106, "pitch": 63, "duration": 2, "velocity": 91}, {"time": 2109, "pitch": 49, "duration": 29, "velocity": 98}, {"time": 2112, "pitch": 56, "duration": 25, "velocity": 75}, {"time": 2115, "pitch": 61, "duration": 4, "velocity": 82}, {"time": 2118, "pitch": 65, "duration": 6, "velocity": 98}, {"time": 2121, "pitch": 61, "duration": 16, "velocity": 88}, {"time": 2124, "pitch": 68, "duration": 2, "velocity": 88}, {"time": 2127, "pitch": 73, "duration": 3, "velocity": 85}, {"time": 2130, "pitch": 65, "duration": 8, "velocity": 88}, {"time": 2133, "pitch": 51, "duration": 15, "velocity": 111}, {"time": 2136, "pitch": 58, "duration": 11, "velocity": 88}, {"time": 2139, "pitch": 63, "duration": 7, "velocity": 106}, {"time": 2142, "pitch": 66, "duration": 2, "velocity": 109}, {"time": 2145, "pitch": 66, "duration": 1, "velocity": 38}, {"time": 2145, "pitch": 70, "duration": 2, "velocity": 95}, {"time": 2148, "pitch": 75, "duration": 2, "velocity": 103}, {"time": 2151, "pitch": 66, "duration": 4, "velocity": 98}, {"time": 2154, "pitch": 70, "duration": 1, "velocity": 95}, {"time": 2157, "pitch": 44, "duration": 16, "velocity": 109}, {"time": 2160, "pitch": 51, "duration": 13, "velocity": 88}, {"time": 2163, "pitch": 56, "duration": 10, "velocity": 103}, {"time": 2166, "pitch": 60, "duration": 2, "velocity": 103}, {"time": 2169, "pitch": 42, "duration": 11, "velocity": 109}, {"time": 2169, "pitch": 60, "duration": 1, "velocity": 53}, {"time": 2169, "pitch": 63, "duration": 2, "velocity": 106}, {"time": 2172, "pitch": 68, "duration": 2, "velocity": 100}, {"time": 2181, "pitch": 41, "duration": 18, "velocity": 100}, {"time": 2184, "pitch": 48, "duration": 16, "velocity": 70}, {"time": 2187, "pitch": 53, "duration": 14, "velocity": 79}, {"time": 2190, "pitch": 56, "duration": 4, "velocity": 98}, {"time": 2193, "pitch": 60, "duration": 2, "velocity": 82}, {"time": 2196, "pitch": 63, "duration": 2, "velocity": 109}, {"time": 2199, "pitch": 56, "duration": 5, "velocity": 91}, {"time": 2202, "pitch": 60, "duration": 2, "velocity": 91}, {"time": 2205, "pitch": 46, "duration": 26, "velocity": 106}, {"time": 2208, "pitch": 53, "duration": 23, "velocity": 79}, {"time": 2211, "pitch": 58, "duration": 19, "velocity": 79}, {"time": 2214, "pitch": 61, "duration": 5, "velocity": 79}, {"time": 2217, "pitch": 65, "duration": 2, "velocity": 82}, {"time": 2220, "pitch": 68, "duration": 2, "velocity": 91}, {"time": 2223, "pitch": 61, "duration": 5, "velocity": 77}, {"time": 2226, "pitch": 65, "duration": 3, "velocity": 79}, {"time": 2229, "pitch": 39, "duration": 23, "velocity": 111}, {"time": 2232, "pitch": 46, "duration": 19, "velocity": 68}, {"time": 2235, "pitch": 51, "duration": 16, "velocity": 75}, {"time": 2238, "pitch": 54, "duration": 5, "velocity": 88}, {"time": 2241, "pitch": 58, "duration": 10, "velocity": 85}, {"time": 2253, "pitch": 48, "duration": 21, "velocity": 100}, {"time": 2256, "pitch": 56, "duration": 18, "velocity": 85}, {"time": 2259, "pitch": 60, "duration": 2, "velocity": 98}, {"time": 2262, "pitch": 63, "duration": 2, "velocity": 79}, {"time": 2265, "pitch": 68, "duration": 2, "velocity": 95}, {"time": 2268, "pitch": 63, "duration": 2, "velocity": 72}, {"time": 2271, "pitch": 60, "duration": 5, "velocity": 79}, {"time": 2277, "pitch": 46, "duration": 46, "velocity": 77}, {"time": 2280, "pitch": 53, "duration": 43, "velocity": 66}, {"time": 2283, "pitch": 58, "duration": 40, "velocity": 53}, {"time": 2286, "pitch": 61, "duration": 6, "velocity": 77}, {"time": 2292, "pitch": 65, "duration": 5, "velocity": 82}, {"time": 2298, "pitch": 61, "duration": 9, "velocity": 35}, {"time": 2301, "pitch": 70, "duration": 22, "velocity": 73}, {"time": 2325, "pitch": 46, "duration": 20, "velocity": 98}, {"time": 2328, "pitch": 53, "duration": 19, "velocity": 71}, {"time": 2331, "pitch": 58, "duration": 15, "velocity": 71}, {"time": 2334, "pitch": 61, "duration": 4, "velocity": 75}, {"time": 2337, "pitch": 65, "duration": 2, "velocity": 85}, {"time": 2340, "pitch": 70, "duration": 2, "velocity": 85}, {"time": 2343, "pitch": 61, "duration": 12, "velocity": 71}, {"time": 2346, "pitch": 65, "duration": 4, "velocity": 51}, {"time": 2349, "pitch": 46, "duration": 22, "velocity": 88}, {"time": 2352, "pitch": 53, "duration": 14, "velocity": 52}, {"time": 2355, "pitch": 58, "duration": 10, "velocity": 60}, {"time": 2358, "pitch": 61, "duration": 5, "velocity": 69}, {"time": 2361, "pitch": 65, "duration": 2, "velocity": 73}, {"time": 2364, "pitch": 70, "duration": 2, "velocity": 73}, {"time": 2367, "pitch": 61, "duration": 6, "velocity": 73}, {"time": 2370, "pitch": 65, "duration": 3, "velocity": 68}, {"time": 2373, "pitch": 41, "duration": 46, "velocity": 103}, {"time": 2376, "pitch": 48, "duration": 43, "velocity": 58}, {"time": 2379, "pitch": 53, "duration": 3, "velocity": 58}, {"time": 2382, "pitch": 56, "duration": 7, "velocity": 98}, {"time": 2385, "pitch": 53, "duration": 34, "velocity": 66}, {"time": 2388, "pitch": 60, "duration": 4, "velocity": 85}, {"time": 2391, "pitch": 65, "duration": 2, "velocity": 62}, {"time": 2394, "pitch": 56, "duration": 4, "velocity": 69}, {"time": 2397, "pitch": 65, "duration": 22, "velocity": 85}, {"time": 2421, "pitch": 42, "duration": 42, "velocity": 98}, {"time": 2424, "pitch": 49, "duration": 42, "velocity": 58}, {"time": 2427, "pitch": 54, "duration": 21, "velocity": 64}, {"time": 2430, "pitch": 58, "duration": 5, "velocity": 69}, {"time": 2433, "pitch": 61, "duration": 2, "velocity": 91}, {"time": 2436, "pitch": 66, "duration": 3, "velocity": 73}, {"time": 2439, "pitch": 58, "duration": 11, "velocity": 70}, {"time": 2445, "pitch": 66, "duration": 9, "velocity": 100}, {"time": 2451, "pitch": 54, "duration": 3, "velocity": 58}, {"time": 2454, "pitch": 58, "duration": 8, "velocity": 88}, {"time": 2457, "pitch": 54, "duration": 8, "velocity": 67}, {"time": 2460, "pitch": 61, "duration": 3, "velocity": 76}, {"time": 2463, "pitch": 66, "duration": 5, "velocity": 85}, {"time": 2466, "pitch": 58, "duration": 3, "velocity": 73}, {"time": 2469, "pitch": 44, "duration": 21, "velocity": 98}, {"time": 2472, "pitch": 51, "duration": 16, "velocity": 68}, {"time": 2475, "pitch": 56, "duration": 4, "velocity": 67}, {"time": 2478, "pitch": 60, "duration": 6, "velocity": 82}, {"time": 2481, "pitch": 56, "duration": 6, "velocity": 72}, {"time": 2484, "pitch": 68, "duration": 3, "velocity": 85}, {"time": 2487, "pitch": 60, "duration": 6, "velocity": 75}, {"time": 2490, "pitch": 63, "duration": 2, "velocity": 71}, {"time": 2493, "pitch": 49, "duration": 20, "velocity": 77}, {"time": 2496, "pitch": 56, "duration": 14, "velocity": 75}, {"time": 2499, "pitch": 61, "duration": 4, "velocity": 69}, {"time": 2502, "pitch": 65, "duration": 6, "velocity": 91}, {"time": 2505, "pitch": 61, "duration": 5, "velocity": 59}, {"time": 2508, "pitch": 73, "duration": 3, "velocity": 88}, {"time": 2511, "pitch": 65, "duration": 5, "velocity": 82}, {"time": 2514, "pitch": 68, "duration": 2, "velocity": 69}, {"time": 2517, "pitch": 51, "duration": 17, "velocity": 100}, {"time": 2520, "pitch": 58, "duration": 12, "velocity": 73}, {"time": 2523, "pitch": 63, "duration": 3, "velocity": 64}, {"time": 2526, "pitch": 66, "duration": 5, "velocity": 85}, {"time": 2529, "pitch": 63, "duration": 2, "velocity": 73}, {"time": 2532, "pitch": 75, "duration": 3, "velocity": 95}, {"time": 2535, "pitch": 66, "duration": 5, "velocity": 79}, {"time": 2538, "pitch": 70, "duration": 2, "velocity": 69}, {"time": 2541, "pitch": 44, "duration": 23, "velocity": 100}, {"time": 2544, "pitch": 51, "duration": 18, "velocity": 64}, {"time": 2547, "pitch": 56, "duration": 15, "velocity": 64}, {"time": 2550, "pitch": 60, "duration": 6, "velocity": 91}, {"time": 2553, "pitch": 63, "duration": 1, "velocity": 30}, {"time": 2556, "pitch": 68, "duration": 2, "velocity": 71}, {"time": 2559, "pitch": 60, "duration": 5, "velocity": 75}, {"time": 2562, "pitch": 63, "duration": 2, "velocity": 68}, {"time": 2565, "pitch": 41, "duration": 22, "velocity": 111}, {"time": 2568, "pitch": 48, "duration": 20, "velocity": 69}, {"time": 2571, "pitch": 53, "duration": 16, "velocity": 69}, {"time": 2574, "pitch": 56, "duration": 6, "velocity": 64}, {"time": 2577, "pitch": 60, "duration": 3, "velocity": 58}, {"time": 2580, "pitch": 61, "duration": 1, "velocity": 73}, {"time": 2580, "pitch": 63, "duration": 4, "velocity": 79}, {"time": 2583, "pitch": 56, "duration": 7, "velocity": 79}, {"time": 2586, "pitch": 60, "duration": 3, "velocity": 69}, {"time": 2589, "pitch": 46, "duration": 22, "velocity": 98}, {"time": 2592, "pitch": 53, "duration": 17, "velocity": 68}, {"time": 2595, "pitch": 58, "duration": 4, "velocity": 64}, {"time": 2598, "pitch": 61, "duration": 5, "velocity": 71}, {"time": 2601, "pitch": 58, "duration": 8, "velocity": 69}, {"time": 2604, "pitch": 70, "duration": 3, "velocity": 85}, {"time": 2607, "pitch": 61, "duration": 5, "velocity": 68}, {"time": 2610, "pitch": 65, "duration": 2, "velocity": 68}, {"time": 2613, "pitch": 39, "duration": 14, "velocity": 103}, {"time": 2616, "pitch": 46, "duration": 12, "velocity": 68}, {"time": 2619, "pitch": 51, "duration": 10, "velocity": 68}, {"time": 2622, "pitch": 54, "duration": 5, "velocity": 72}, {"time": 2625, "pitch": 58, "duration": 3, "velocity": 73}, {"time": 2628, "pitch": 63, "duration": 2, "velocity": 73}, {"time": 2631, "pitch": 54, "duration": 5, "velocity": 73}, {"time": 2634, "pitch": 58, "duration": 2, "velocity": 69}, {"time": 2637, "pitch": 41, "duration": 25, "velocity": 100}, {"time": 2640, "pitch": 48, "duration": 21, "velocity": 55}, {"time": 2643, "pitch": 53, "duration": 18, "velocity": 77}, {"time": 2646, "pitch": 56, "duration": 3, "velocity": 69}, {"time": 2649, "pitch": 63, "duration": 12, "velocity": 88}, {"time": 2664, "pitch": 53, "duration": 33, "velocity": 65}, {"time": 2667, "pitch": 58, "duration": 29, "velocity": 68}, {"time": 2670, "pitch": 61, "duration": 6, "velocity": 69}, {"time": 2676, "pitch": 65, "duration": 2, "velocity": 72}, {"time": 2679, "pitch": 61, "duration": 4, "velocity": 65}, {"time": 2685, "pitch": 70, "duration": 12, "velocity": 75}, {"time": 2709, "pitch": 46, "duration": 19, "velocity": 109}, {"time": 2712, "pitch": 53, "duration": 7, "velocity": 69}, {"time": 2715, "pitch": 58, "duration": 3, "velocity": 73}, {"time": 2718, "pitch": 61, "duration": 2, "velocity": 106}, {"time": 2718, "pitch": 65, "duration": 2, "velocity": 77}, {"time": 2721, "pitch": 53, "duration": 9, "velocity": 57}, {"time": 2721, "pitch": 58, "duration": 10, "velocity": 75}, {"time": 2724, "pitch": 61, "duration": 4, "velocity": 91}, {"time": 2727, "pitch": 65, "duration": 2, "velocity": 75}, {"time": 2730, "pitch": 70, "duration": 3, "velocity": 76}, {"time": 2733, "pitch": 51, "duration": 18, "velocity": 109}, {"time": 2736, "pitch": 58, "duration": 7, "velocity": 68}, {"time": 2739, "pitch": 63, "duration": 3, "velocity": 75}, {"time": 2742, "pitch": 66, "duration": 4, "velocity": 111}, {"time": 2745, "pitch": 58, "duration": 3, "velocity": 53}, {"time": 2745, "pitch": 63, "duration": 3, "velocity": 85}, {"time": 2748, "pitch": 75, "duration": 3, "velocity": 106}, {"time": 2751, "pitch": 66, "duration": 6, "velocity": 95}, {"time": 2754, "pitch": 70, "duration": 2, "velocity": 77}, {"time": 2757, "pitch": 44, "duration": 18, "velocity": 111}, {"time": 2760, "pitch": 51, "duration": 7, "velocity": 62}, {"time": 2763, "pitch": 56, "duration": 3, "velocity": 71}, {"time": 2766, "pitch": 60, "duration": 2, "velocity": 103}, {"time": 2766, "pitch": 63, "duration": 2, "velocity": 111}, {"time": 2769, "pitch": 51, "duration": 6, "velocity": 52}, {"time": 2769, "pitch": 56, "duration": 8, "velocity": 76}, {"time": 2772, "pitch": 60, "duration": 2, "velocity": 98}, {"time": 2772, "pitch": 63, "duration": 1, "velocity": 106}, {"time": 2778, "pitch": 65, "duration": 2, "velocity": 72}, {"time": 2781, "pitch": 49, "duration": 16, "velocity": 106}, {"time": 2784, "pitch": 56, "duration": 7, "velocity": 72}, {"time": 2787, "pitch": 61, "duration": 3, "velocity": 71}, {"time": 2790, "pitch": 65, "duration": 5, "velocity": 100}, {"time": 2793, "pitch": 56, "duration": 2, "velocity": 55}, {"time": 2793, "pitch": 61, "duration": 2, "velocity": 75}, {"time": 2796, "pitch": 73, "duration": 3, "velocity": 100}, {"time": 2799, "pitch": 65, "duration": 6, "velocity": 88}, {"time": 2802, "pitch": 68, "duration": 3, "velocity": 76}, {"time": 2805, "pitch": 42, "duration": 22, "velocity": 111}, {"time": 2808, "pitch": 49, "duration": 7, "velocity": 61}, {"time": 2811, "pitch": 54, "duration": 3, "velocity": 70}, {"time": 2814, "pitch": 58, "duration": 3, "velocity": 100}, {"time": 2814, "pitch": 61, "duration": 2, "velocity": 106}, {"time": 2817, "pitch": 49, "duration": 10, "velocity": 30}, {"time": 2817, "pitch": 54, "duration": 11, "velocity": 75}, {"time": 2820, "pitch": 58, "duration": 3, "velocity": 91}, {"time": 2823, "pitch": 61, "duration": 2, "velocity": 82}, {"time": 2826, "pitch": 58, "duration": 2, "velocity": 82}, {"time": 2829, "pitch": 44, "duration": 20, "velocity": 111}, {"time": 2832, "pitch": 51, "duration": 7, "velocity": 62}, {"time": 2835, "pitch": 56, "duration": 3, "velocity": 76}, {"time": 2838, "pitch": 60, "duration": 5, "velocity": 103}, {"time": 2841, "pitch": 51, "duration": 10, "velocity": 52}, {"time": 2841, "pitch": 56, "duration": 10, "velocity": 88}, {"time": 2844, "pitch": 68, "duration": 2, "velocity": 77}, {"time": 2847, "pitch": 60, "duration": 6, "velocity": 75}, {"time": 2850, "pitch": 63, "duration": 3, "velocity": 72}, {"time": 2853, "pitch": 49, "duration": 18, "velocity": 109}, {"time": 2856, "pitch": 56, "duration": 7, "velocity": 85}, {"time": 2859, "pitch": 61, "duration": 3, "velocity": 73}, {"time": 2862, "pitch": 65, "duration": 5, "velocity": 103}, {"time": 2865, "pitch": 56, "duration": 5, "velocity": 60}, {"time": 2865, "pitch": 61, "duration": 5, "velocity": 98}, {"time": 2868, "pitch": 73, "duration": 2, "velocity": 88}, {"time": 2871, "pitch": 65, "duration": 6, "velocity": 98}, {"time": 2874, "pitch": 68, "duration": 3, "velocity": 82}, {"time": 2877, "pitch": 41, "duration": 23, "velocity": 98}, {"time": 2880, "pitch": 48, "duration": 20, "velocity": 77}, {"time": 2883, "pitch": 53, "duration": 17, "velocity": 100}, {"time": 2886, "pitch": 57, "duration": 13, "velocity": 76}, {"time": 2889, "pitch": 60, "duration": 2, "velocity": 71}, {"time": 2889, "pitch": 65, "duration": 11, "velocity": 103}, {"time": 2901, "pitch": 46, "duration": 21, "velocity": 111}, {"time": 2904, "pitch": 61, "duration": 2, "velocity": 91}, {"time": 2904, "pitch": 65, "duration": 1, "velocity": 109}, {"time": 2907, "pitch": 53, "duration": 16, "velocity": 8}, {"time": 2907, "pitch": 58, "duration": 3, "velocity": 65}, {"time": 2910, "pitch": 61, "duration": 10, "velocity": 98}, {"time": 2910, "pitch": 65, "duration": 10, "velocity": 100}, {"time": 2919, "pitch": 58, "duration": 4, "velocity": 79}, {"time": 2922, "pitch": 70, "duration": 3, "velocity": 109}, {"time": 2925, "pitch": 51, "duration": 15, "velocity": 111}, {"time": 2928, "pitch": 58, "duration": 7, "velocity": 71}, {"time": 2931, "pitch": 63, "duration": 3, "velocity": 73}, {"time": 2934, "pitch": 66, "duration": 5, "velocity": 106}, {"time": 2937, "pitch": 58, "duration": 2, "velocity": 55}, {"time": 2937, "pitch": 63, "duration": 2, "velocity": 95}, {"time": 2940, "pitch": 75, "duration": 3, "velocity": 103}, {"time": 2943, "pitch": 66, "duration": 5, "velocity": 95}, {"time": 2946, "pitch": 70, "duration": 2, "velocity": 82}, {"time": 2949, "pitch": 44, "duration": 22, "velocity": 109}, {"time": 2952, "pitch": 51, "duration": 19, "velocity": 71}, {"time": 2955, "pitch": 56, "duration": 4, "velocity": 77}, {"time": 2958, "pitch": 60, "duration": 7, "velocity": 100}, {"time": 2961, "pitch": 56, "duration": 10, "velocity": 77}, {"time": 2964, "pitch": 63, "duration": 3, "velocity": 75}, {"time": 2967, "pitch": 68, "duration": 2, "velocity": 73}, {"time": 2970, "pitch": 60, "duration": 1, "velocity": 79}, {"time": 2973, "pitch": 49, "duration": 17, "velocity": 106}, {"time": 2976, "pitch": 56, "duration": 12, "velocity": 77}, {"time": 2979, "pitch": 61, "duration": 9, "velocity": 85}, {"time": 2982, "pitch": 65, "duration": 8, "velocity": 109}, {"time": 2988, "pitch": 68, "duration": 3, "velocity": 98}, {"time": 2991, "pitch": 73, "duration": 2, "velocity": 100}, {"time": 2994, "pitch": 65, "duration": 3, "velocity": 100}, {"time": 2997, "pitch": 42, "duration": 18, "velocity": 111}, {"time": 3000, "pitch": 49, "duration": 17, "velocity": 69}, {"time": 3003, "pitch": 54, "duration": 13, "velocity": 71}, {"time": 3006, "pitch": 58, "duration": 6, "velocity": 100}, {"time": 3009, "pitch": 61, "duration": 2, "velocity": 64}, {"time": 3012, "pitch": 66, "duration": 2, "velocity": 77}, {"time": 3015, "pitch": 58, "duration": 5, "velocity": 85}, {"time": 3021, "pitch": 44, "duration": 23, "velocity": 111}, {"time": 3024, "pitch": 51, "duration": 20, "velocity": 79}, {"time": 3027, "pitch": 56, "duration": 17, "velocity": 95}, {"time": 3030, "pitch": 60, "duration": 5, "velocity": 95}, {"time": 3033, "pitch": 63, "duration": 2, "velocity": 91}, {"time": 3036, "pitch": 68, "duration": 3, "velocity": 77}, {"time": 3039, "pitch": 60, "duration": 5, "velocity": 95}, {"time": 3045, "pitch": 46, "duration": 7, "velocity": 82}, {"time": 3045, "pitch": 61, "duration": 6, "velocity": 71}, {"time": 3045, "pitch": 65, "duration": 7, "velocity": 77}, {"time": 3045, "pitch": 70, "duration": 6, "velocity": 70}, {"time": 3051, "pitch": 53, "duration": 1, "velocity": 14}, {"time": 3051, "pitch": 58, "duration": 1, "velocity": 44}, {"time": 3054, "pitch": 46, "duration": 13, "velocity": 79}, {"time": 3054, "pitch": 61, "duration": 13, "velocity": 71}, {"time": 3054, "pitch": 65, "duration": 13, "velocity": 85}, {"time": 3054, "pitch": 70, "duration": 12, "velocity": 75}, {"time": 3069, "pitch": 46, "duration": 21, "velocity": 82}, {"time": 3069, "pitch": 61, "duration": 20, "velocity": 72}, {"time": 3069, "pitch": 65, "duration": 20, "velocity": 79}, {"time": 3069, "pitch": 70, "duration": 21, "velocity": 75}, {"time": 3081, "pitch": 53, "duration": 8, "velocity": 6}, {"time": 3081, "pitch": 58, "duration": 8, "velocity": 45}, {"time": 3093, "pitch": 46, "duration": 2, "velocity": 85}, {"time": 3093, "pitch": 53, "duration": 2, "velocity": 85}, {"time": 3093, "pitch": 58, "duration": 2, "velocity": 77}, {"time": 3093, "pitch": 61, "duration": 2, "velocity": 103}, {"time": 3093, "pitch": 65, "duration": 2, "velocity": 111}, {"time": 3093, "pitch": 70, "duration": 2, "velocity": 106}, {"time": 3096, "pitch": 46, "duration": 5, "velocity": 79}, {"time": 3096, "pitch": 53, "duration": 6, "velocity": 95}, {"time": 3096, "pitch": 58, "duration": 6, "velocity": 73}, {"time": 3096, "pitch": 61, "duration": 5, "velocity": 109}, {"time": 3096, "pitch": 65, "duration": 5, "velocity": 115}, {"time": 3096, "pitch": 70, "duration": 5, "velocity": 103}, {"time": 3120, "pitch": 51, "duration": 7, "velocity": 115}, {"time": 3120, "pitch": 63, "duration": 7, "velocity": 103}, {"time": 3120, "pitch": 66, "duration": 7, "velocity": 111}, {"time": 3120, "pitch": 70, "duration": 7, "velocity": 103}, {"time": 3141, "pitch": 44, "duration": 18, "velocity": 111}, {"time": 3144, "pitch": 51, "duration": 7, "velocity": 62}, {"time": 3147, "pitch": 56, "duration": 3, "velocity": 71}, {"time": 3150, "pitch": 60, "duration": 2, "velocity": 103}, {"time": 3150, "pitch": 63, "duration": 2, "velocity": 111}, {"time": 3153, "pitch": 51, "duration": 6, "velocity": 52}, {"time": 3153, "pitch": 56, "duration": 8, "velocity": 76}, {"time": 3156, "pitch": 60, "duration": 2, "velocity": 98}, {"time": 3156, "pitch": 63, "duration": 1, "velocity": 106}, {"time": 3162, "pitch": 65, "duration": 2, "velocity": 72}, {"time": 3165, "pitch": 49, "duration": 16, "velocity": 106}, {"time": 3168, "pitch": 56, "duration": 7, "velocity": 72}, {"time": 3171, "pitch": 61, "duration": 3, "velocity": 71}, {"time": 3174, "pitch": 65, "duration": 5, "velocity": 100}, {"time": 3177, "pitch": 56, "duration": 2, "velocity": 55}, {"time": 3177, "pitch": 61, "duration": 2, "velocity": 75}, {"time": 3180, "pitch": 73, "duration": 3, "velocity": 100}, {"time": 3183, "pitch": 65, "duration": 6, "velocity": 88}, {"time": 3186, "pitch": 68, "duration": 3, "velocity": 76}, {"time": 3189, "pitch": 42, "duration": 22, "velocity": 111}, {"time": 3192, "pitch": 49, "duration": 7, "velocity": 61}, {"time": 3195, "pitch": 54, "duration": 3, "velocity": 70}, {"time": 3198, "pitch": 58, "duration": 3, "velocity": 100}, {"time": 3198, "pitch": 61, "duration": 2, "velocity": 106}, {"time": 3201, "pitch": 91, "duration": 3, "velocity": 6}, {"time": 3201, "pitch": 49, "duration": 10, "velocity": 30}, {"time": 3201, "pitch": 54, "duration": 11, "velocity": 75}, {"time": 3204, "pitch": 58, "duration": 3, "velocity": 91}, {"time": 3207, "pitch": 61, "duration": 2, "velocity": 82}, {"time": 3210, "pitch": 58, "duration": 2, "velocity": 82}, {"time": 3213, "pitch": 44, "duration": 20, "velocity": 111}, {"time": 3216, "pitch": 51, "duration": 7, "velocity": 62}, {"time": 3219, "pitch": 56, "duration": 3, "velocity": 76}, {"time": 3222, "pitch": 60, "duration": 5, "velocity": 103}, {"time": 3225, "pitch": 51, "duration": 10, "velocity": 52}, {"time": 3225, "pitch": 56, "duration": 10, "velocity": 88}, {"time": 3228, "pitch": 68, "duration": 2, "velocity": 77}, {"time": 3231, "pitch": 60, "duration": 6, "velocity": 75}, {"time": 3234, "pitch": 63, "duration": 3, "velocity": 72}, {"time": 3237, "pitch": 49, "duration": 18, "velocity": 109}, {"time": 3240, "pitch": 56, "duration": 7, "velocity": 85}, {"time": 3243, "pitch": 61, "duration": 3, "velocity": 73}, {"time": 3246, "pitch": 65, "duration": 5, "velocity": 103}, {"time": 3249, "pitch": 56, "duration": 5, "velocity": 60}, {"time": 3249, "pitch": 61, "duration": 5, "velocity": 98}, {"time": 3252, "pitch": 73, "duration": 2, "velocity": 88}, {"time": 3255, "pitch": 65, "duration": 6, "velocity": 98}, {"time": 3258, "pitch": 68, "duration": 3, "velocity": 82}, {"time": 3261, "pitch": 41, "duration": 25, "velocity": 109}, {"time": 3264, "pitch": 48, "duration": 22, "velocity": 77}, {"time": 3267, "pitch": 53, "duration": 19, "velocity": 88}, {"time": 3267, "pitch": 57, "duration": 6, "velocity": 71}, {"time": 3273, "pitch": 60, "duration": 3, "velocity": 98}, {"time": 3273, "pitch": 65, "duration": 3, "velocity": 79}, {"time": 3279, "pitch": 57, "duration": 4, "velocity": 81}, {"time": 3282, "pitch": 65, "duration": 1, "velocity": 71}, {"time": 3285, "pitch": 46, "duration": 21, "velocity": 111}, {"time": 3288, "pitch": 61, "duration": 2, "velocity": 91}, {"time": 3288, "pitch": 65, "duration": 1, "velocity": 109}, {"time": 3291, "pitch": 53, "duration": 16, "velocity": 8}, {"time": 3291, "pitch": 58, "duration": 3, "velocity": 65}, {"time": 3294, "pitch": 61, "duration": 10, "velocity": 98}, {"time": 3294, "pitch": 65, "duration": 10, "velocity": 100}, {"time": 3303, "pitch": 58, "duration": 4, "velocity": 79}, {"time": 3306, "pitch": 70, "duration": 3, "velocity": 109}, {"time": 3309, "pitch": 51, "duration": 15, "velocity": 111}, {"time": 3312, "pitch": 58, "duration": 7, "velocity": 71}, {"time": 3315, "pitch": 63, "duration": 3, "velocity": 73}, {"time": 3318, "pitch": 66, "duration": 5, "velocity": 106}, {"time": 3321, "pitch": 58, "duration": 2, "velocity": 55}, {"time": 3321, "pitch": 63, "duration": 2, "velocity": 95}, {"time": 3324, "pitch": 75, "duration": 3, "velocity": 103}, {"time": 3327, "pitch": 66, "duration": 5, "velocity": 95}, {"time": 3330, "pitch": 70, "duration": 2, "velocity": 82}, {"time": 3333, "pitch": 44, "duration": 22, "velocity": 109}, {"time": 3336, "pitch": 51, "duration": 19, "velocity": 71}, {"time": 3339, "pitch": 56, "duration": 4, "velocity": 77}, {"time": 3342, "pitch": 60, "duration": 7, "velocity": 100}, {"time": 3345, "pitch": 56, "duration": 10, "velocity": 77}, {"time": 3348, "pitch": 63, "duration": 3, "velocity": 75}, {"time": 3351, "pitch": 68, "duration": 2, "velocity": 73}, {"time": 3354, "pitch": 60, "duration": 1, "velocity": 79}, {"time": 3357, "pitch": 49, "duration": 17, "velocity": 106}, {"time": 3360, "pitch": 56, "duration": 12, "velocity": 77}, {"time": 3363, "pitch": 61, "duration": 9, "velocity": 85}, {"time": 3366, "pitch": 65, "duration": 8, "velocity": 109}, {"time": 3372, "pitch": 68, "duration": 3, "velocity": 98}, {"time": 3375, "pitch": 73, "duration": 2, "velocity": 100}, {"time": 3378, "pitch": 65, "duration": 3, "velocity": 100}, {"time": 3381, "pitch": 42, "duration": 18, "velocity": 111}, {"time": 3384, "pitch": 49, "duration": 17, "velocity": 69}, {"time": 3387, "pitch": 54, "duration": 13, "velocity": 71}, {"time": 3390, "pitch": 58, "duration": 6, "velocity": 100}, {"time": 3393, "pitch": 61, "duration": 2, "velocity": 64}, {"time": 3396, "pitch": 66, "duration": 2, "velocity": 77}, {"time": 3399, "pitch": 58, "duration": 5, "velocity": 85}, {"time": 3405, "pitch": 44, "duration": 23, "velocity": 95}, {"time": 3408, "pitch": 51, "duration": 20, "velocity": 70}, {"time": 3411, "pitch": 56, "duration": 17, "velocity": 75}, {"time": 3414, "pitch": 60, "duration": 6, "velocity": 79}, {"time": 3420, "pitch": 68, "duration": 8, "velocity": 95}, {"time": 3429, "pitch": 46, "duration": 38, "velocity": 100}, {"time": 3432, "pitch": 53, "duration": 35, "velocity": 70}, {"time": 3435, "pitch": 58, "duration": 3, "velocity": 71}, {"time": 3438, "pitch": 61, "duration": 6, "velocity": 79}, {"time": 3441, "pitch": 58, "duration": 26, "velocity": 70}, {"time": 3444, "pitch": 65, "duration": 3, "velocity": 70}, {"time": 3447, "pitch": 61, "duration": 5, "velocity": 73}, {"time": 3450, "pitch": 65, "duration": 2, "velocity": 48}, {"time": 3453, "pitch": 70, "duration": 14, "velocity": 85}, {"time": 3477, "pitch": 39, "duration": 38, "velocity": 100}, {"time": 3480, "pitch": 46, "duration": 36, "velocity": 69}, {"time": 3483, "pitch": 51, "duration": 34, "velocity": 75}, {"time": 3486, "pitch": 54, "duration": 10, "velocity": 76}, {"time": 3492, "pitch": 58, "duration": 5, "velocity": 55}, {"time": 3498, "pitch": 54, "duration": 9, "velocity": 66}, {"time": 3501, "pitch": 63, "duration": 21, "velocity": 62}, {"time": 3525, "pitch": 42, "duration": 21, "velocity": 88}, {"time": 3528, "pitch": 49, "duration": 18, "velocity": 64}, {"time": 3531, "pitch": 54, "duration": 15, "velocity": 75}, {"time": 3534, "pitch": 58, "duration": 14, "velocity": 75}, {"time": 3540, "pitch": 61, "duration": 5, "velocity": 67}, {"time": 3546, "pitch": 66, "duration": 3, "velocity": 66}, {"time": 3549, "pitch": 44, "duration": 24, "velocity": 82}, {"time": 3552, "pitch": 51, "duration": 21, "velocity": 60}, {"time": 3555, "pitch": 56, "duration": 17, "velocity": 66}, {"time": 3558, "pitch": 60, "duration": 22, "velocity": 64}, {"time": 3573, "pitch": 42, "duration": 22, "velocity": 98}, {"time": 3576, "pitch": 49, "duration": 20, "velocity": 71}, {"time": 3579, "pitch": 54, "duration": 16, "velocity": 75}, {"time": 3582, "pitch": 58, "duration": 4, "velocity": 82}, {"time": 3585, "pitch": 61, "duration": 2, "velocity": 64}, {"time": 3588, "pitch": 66, "duration": 4, "velocity": 72}, {"time": 3591, "pitch": 58, "duration": 6, "velocity": 71}, {"time": 3594, "pitch": 61, "duration": 3, "velocity": 67}, {"time": 3597, "pitch": 44, "duration": 20, "velocity": 109}, {"time": 3600, "pitch": 51, "duration": 15, "velocity": 71}, {"time": 3603, "pitch": 56, "duration": 12, "velocity": 69}, {"time": 3606, "pitch": 60, "duration": 6, "velocity": 66}, {"time": 3609, "pitch": 63, "duration": 2, "velocity": 65}, {"time": 3612, "pitch": 68, "duration": 2, "velocity": 68}, {"time": 3615, "pitch": 60, "duration": 3, "velocity": 64}, {"time": 3618, "pitch": 63, "duration": 1, "velocity": 39}, {"time": 3623, "pitch": 44, "duration": 47, "velocity": 85}, {"time": 3626, "pitch": 53, "duration": 43, "velocity": 71}, {"time": 3629, "pitch": 56, "duration": 6, "velocity": 60}, {"time": 3632, "pitch": 61, "duration": 3, "velocity": 62}, {"time": 3635, "pitch": 65, "duration": 33, "velocity": 69}], "annotations": [{"time": 10, "annotation": {"number": 64, "value": 74}, "group": "control_change"}, {"time": 10, "annotation": {"number": 64, "value": 127}, "group": "control_change"}, {"time": 38, "annotation": {"number": 64, "value": 0}, "group": "control_change"}, {"time": 39, "annotation": {"number": 64, "value": 127}, "group": "control_change"}, {"time": 70, "annotation": {"number": 64, "value": 0}, "group": "control_change"}, {"time": 71, "annotation": {"number": 64, "value": 38}, "group": "control_change"}, {"time": 71, "annotation": {"number": 64, "value": 127}, "group": "control_change"}, {"time": 92, "annotation": {"number": 64, "value": 127}, "group": "control_change"}, {"time": 103, "annotation": {"number": 64, "value": 0}, "group": "control_change"}, {"time": 104, "annotation": {"number": 64, "value": 38}, "group": "control_change"}, {"time": 104, "annotation": {"number": 64, "value": 127}, "group": "control_change"}, {"time": 137, "annotation": {"number": 64, "value": 0}, "group": "control_change"}, {"time": 138, "annotation": {"number": 64, "value": 38}, "group": "control_change"}, {"time": 138, "annotation": {"number": 64, "value": 127}, "group": "control_change"}, {"time": 167, "annotation": {"number": 64, "value": 0}, "group": "control_change"}, {"time": 177, "annotation": {"number": 64, "value": 74}, "group": "control_change"}, {"time": 177, "annotation": {"number": 64, "value": 127}, "group": "control_change"}, {"time": 183, "annotation": {"number": 64, "value": 127}, "group": "control_change"}, {"time": 206, "annotation": {"number": 64, "value": 0}, "group": "control_change"}, {"time": 207, "annotation": {"number": 64, "value": 74}, "group": "control_change"}, {"time": 207, "annotation": {"number": 64, "value": 127}, "group": "control_change"}, {"time": 222, "annotation": {"number": 64, "value": 0}, "group": "control_change"}, {"time": 227, "annotation": {"number": 64, "value": 74}, "group": "control_change"}, {"time": 227, "annotation": {"number": 64, "value": 127}, "group": "control_change"}, {"time": 246, "annotation": {"number": 64, "value": 74}, "group": "control_change"}, {"time": 246, "annotation": {"number": 64, "value": 127}, "group": "control_change"}, {"time": 254, "annotation": {"number": 64, "value": 127}, "group": "control_change"}, {"time": 258, "annotation": {"number": 64, "value": 74}, "group": "control_change"}, {"time": 259, "annotation": {"number": 64, "value": 0}, "group": "control_change"}, {"time": 260, "annotation": {"number": 64, "value": 74}, "group": "control_change"}, {"time": 260, "annotation": {"number": 64, "value": 127}, "group": "control_change"}, {"time": 276, "annotation": {"number": 64, "value": 0}, "group": "control_change"}, {"time": 282, "annotation": {"number": 64, "value": 74}, "group": "control_change"}, {"time": 282, "annotation": {"number": 64, "value": 127}, "group": "control_change"}, {"time": 307, "annotation": {"number": 64, "value": 0}, "group": "control_change"}, {"time": 308, "annotation": {"number": 64, "value": 38}, "group": "control_change"}, {"time": 308, "annotation": {"number": 64, "value": 127}, "group": "control_change"}, {"time": 323, "annotation": {"number": 64, "value": 0}, "group": "control_change"}, {"time": 326, "annotation": {"number": 64, "value": 127}, "group": "control_change"}, {"time": 339, "annotation": {"number": 64, "value": 127}, "group": "control_change"}, {"time": 350, "annotation": {"number": 64, "value": 0}, "group": "control_change"}, {"time": 354, "annotation": {"number": 64, "value": 0}, "group": "control_change"}, {"time": 355, "annotation": {"number": 64, "value": 127}, "group": "control_change"}, {"time": 369, "annotation": {"number": 64, "value": 127}, "group": "control_change"}, {"time": 387, "annotation": {"number": 64, "value": 0}, "group": "control_change"}, {"time": 396, "annotation": {"number": 64, "value": 74}, "group": "control_change"}, {"time": 396, "annotation": {"number": 64, "value": 127}, "group": "control_change"}, {"time": 403, "annotation": {"number": 64, "value": 0}, "group": "control_change"}, {"time": 404, "annotation": {"number": 64, "value": 0}, "group": "control_change"}, {"time": 405, "annotation": {"number": 64, "value": 74}, "group": "control_change"}, {"time": 405, "annotation": {"number": 64, "value": 127}, "group": "control_change"}, {"time": 430, "annotation": {"number": 64, "value": 74}, "group": "control_change"}, {"time": 430, "annotation": {"number": 64, "value": 127}, "group": "control_change"}, {"time": 432, "annotation": {"number": 64, "value": 0}, "group": "control_change"}, {"time": 439, "annotation": {"number": 64, "value": 127}, "group": "control_change"}, {"time": 450, "annotation": {"number": 64, "value": 0}, "group": "control_change"}, {"time": 451, "annotation": {"number": 64, "value": 0}, "group": "control_change"}, {"time": 453, "annotation": {"number": 64, "value": 74}, "group": "control_change"}, {"time": 453, "annotation": {"number": 64, "value": 127}, "group": "control_change"}, {"time": 487, "annotation": {"number": 64, "value": 127}, "group": "control_change"}, {"time": 498, "annotation": {"number": 64, "value": 0}, "group": "control_change"}, {"time": 500, "annotation": {"number": 64, "value": 127}, "group": "control_change"}, {"time": 523, "annotation": {"number": 64, "value": 74}, "group": "control_change"}, {"time": 523, "annotation": {"number": 64, "value": 0}, "group": "control_change"}, {"time": 524, "annotation": {"number": 64, "value": 74}, "group": "control_change"}, {"time": 524, "annotation": {"number": 64, "value": 0}, "group": "control_change"}, {"time": 524, "annotation": {"number": 64, "value": 127}, "group": "control_change"}, {"time": 526, "annotation": {"number": 64, "value": 127}, "group": "control_change"}, {"time": 547, "annotation": {"number": 64, "value": 0}, "group": "control_change"}, {"time": 549, "annotation": {"number": 64, "value": 74}, "group": "control_change"}, {"time": 549, "annotation": {"number": 64, "value": 0}, "group": "control_change"}, {"time": 549, "annotation": {"number": 64, "value": 127}, "group": "control_change"}, {"time": 571, "annotation": {"number": 64, "value": 0}, "group": "control_change"}, {"time": 572, "annotation": {"number": 64, "value": 127}, "group": "control_change"}, {"time": 596, "annotation": {"number": 64, "value": 0}, "group": "control_change"}, {"time": 597, "annotation": {"number": 64, "value": 127}, "group": "control_change"}, {"time": 620, "annotation": {"number": 64, "value": 38}, "group": "control_change"}, {"time": 620, "annotation": {"number": 64, "value": 0}, "group": "control_change"}, {"time": 621, "annotation": {"number": 64, "value": 74}, "group": "control_change"}, {"time": 621, "annotation": {"number": 64, "value": 127}, "group": "control_change"}, {"time": 624, "annotation": {"number": 64, "value": 127}, "group": "control_change"}, {"time": 642, "annotation": {"number": 64, "value": 127}, "group": "control_change"}, {"time": 643, "annotation": {"number": 64, "value": 74}, "group": "control_change"}, {"time": 643, "annotation": {"number": 64, "value": 0}, "group": "control_change"}, {"time": 644, "annotation": {"number": 64, "value": 0}, "group": "control_change"}, {"time": 645, "annotation": {"number": 64, "value": 74}, "group": "control_change"}, {"time": 645, "annotation": {"number": 64, "value": 127}, "group": "control_change"}, {"time": 667, "annotation": {"number": 64, "value": 0}, "group": "control_change"}, {"time": 668, "annotation": {"number": 64, "value": 38}, "group": "control_change"}, {"time": 668, "annotation": {"number": 64, "value": 0}, "group": "control_change"}, {"time": 669, "annotation": {"number": 64, "value": 38}, "group": "control_change"}, {"time": 670, "annotation": {"number": 64, "value": 127}, "group": "control_change"}, {"time": 690, "annotation": {"number": 64, "value": 0}, "group": "control_change"}, {"time": 691, "annotation": {"number": 64, "value": 0}, "group": "control_change"}, {"time": 693, "annotation": {"number": 64, "value": 127}, "group": "control_change"}, {"time": 708, "annotation": {"number": 64, "value": 0}, "group": "control_change"}, {"time": 710, "annotation": {"number": 64, "value": 127}, "group": "control_change"}, {"time": 720, "annotation": {"number": 64, "value": 38}, "group": "control_change"}, {"time": 720, "annotation": {"number": 64, "value": 127}, "group": "control_change"}, {"time": 732, "annotation": {"number": 64, "value": 0}, "group": "control_change"}, {"time": 739, "annotation": {"number": 64, "value": 0}, "group": "control_change"}, {"time": 740, "annotation": {"number": 64, "value": 38}, "group": "control_change"}, {"time": 740, "annotation": {"number": 64, "value": 127}, "group": "control_change"}, {"time": 740, "annotation": {"number": 64, "value": 74}, "group": "control_change"}, {"time": 748, "annotation": {"number": 64, "value": 0}, "group": "control_change"}, {"time": 755, "annotation": {"number": 64, "value": 74}, "group": "control_change"}, {"time": 755, "annotation": {"number": 64, "value": 0}, "group": "control_change"}, {"time": 757, "annotation": {"number": 64, "value": 127}, "group": "control_change"}, {"time": 760, "annotation": {"number": 64, "value": 127}, "group": "control_change"}, {"time": 782, "annotation": {"number": 64, "value": 0}, "group": "control_change"}, {"time": 787, "annotation": {"number": 64, "value": 0}, "group": "control_change"}, {"time": 788, "annotation": {"number": 64, "value": 127}, "group": "control_change"}, {"time": 814, "annotation": {"number": 64, "value": 74}, "group": "control_change"}, {"time": 814, "annotation": {"number": 64, "value": 127}, "group": "control_change"}, {"time": 836, "annotation": {"number": 64, "value": 0}, "group": "control_change"}, {"time": 837, "annotation": {"number": 64, "value": 74}, "group": "control_change"}, {"time": 837, "annotation": {"number": 64, "value": 127}, "group": "control_change"}, {"time": 883, "annotation": {"number": 64, "value": 0}, "group": "control_change"}, {"time": 884, "annotation": {"number": 64, "value": 0}, "group": "control_change"}, {"time": 885, "annotation": {"number": 64, "value": 127}, "group": "control_change"}, {"time": 932, "annotation": {"number": 64, "value": 0}, "group": "control_change"}, {"time": 932, "annotation": {"number": 64, "value": 127}, "group": "control_change"}, {"time": 957, "annotation": {"number": 64, "value": 0}, "group": "control_change"}, {"time": 957, "annotation": {"number": 64, "value": 127}, "group": "control_change"}, {"time": 980, "annotation": {"number": 64, "value": 0}, "group": "control_change"}, {"time": 981, "annotation": {"number": 64, "value": 74}, "group": "control_change"}, {"time": 981, "annotation": {"number": 64, "value": 127}, "group": "control_change"}, {"time": 1004, "annotation": {"number": 64, "value": 0}, "group": "control_change"}, {"time": 1004, "annotation": {"number": 64, "value": 127}, "group": "control_change"}, {"time": 1028, "annotation": {"number": 64, "value": 0}, "group": "control_change"}, {"time": 1029, "annotation": {"number": 64, "value": 38}, "group": "control_change"}, {"time": 1029, "annotation": {"number": 64, "value": 127}, "group": "control_change"}, {"time": 1053, "annotation": {"number": 64, "value": 74}, "group": "control_change"}, {"time": 1053, "annotation": {"number": 64, "value": 0}, "group": "control_change"}, {"time": 1054, "annotation": {"number": 64, "value": 74}, "group": "control_change"}, {"time": 1054, "annotation": {"number": 64, "value": 127}, "group": "control_change"}, {"time": 1061, "annotation": {"number": 64, "value": 74}, "group": "control_change"}, {"time": 1061, "annotation": {"number": 64, "value": 127}, "group": "control_change"}, {"time": 1072, "annotation": {"number": 64, "value": 127}, "group": "control_change"}, {"time": 1076, "annotation": {"number": 64, "value": 0}, "group": "control_change"}, {"time": 1077, "annotation": {"number": 64, "value": 127}, "group": "control_change"}, {"time": 1077, "annotation": {"number": 64, "value": 74}, "group": "control_change"}, {"time": 1099, "annotation": {"number": 64, "value": 0}, "group": "control_change"}, {"time": 1099, "annotation": {"number": 64, "value": 74}, "group": "control_change"}, {"time": 1101, "annotation": {"number": 64, "value": 127}, "group": "control_change"}, {"time": 1124, "annotation": {"number": 64, "value": 0}, "group": "control_change"}, {"time": 1126, "annotation": {"number": 64, "value": 127}, "group": "control_change"}, {"time": 1152, "annotation": {"number": 64, "value": 38}, "group": "control_change"}, {"time": 1152, "annotation": {"number": 64, "value": 127}, "group": "control_change"}, {"time": 1161, "annotation": {"number": 64, "value": 0}, "group": "control_change"}, {"time": 1172, "annotation": {"number": 64, "value": 0}, "group": "control_change"}, {"time": 1173, "annotation": {"number": 64, "value": 127}, "group": "control_change"}, {"time": 1196, "annotation": {"number": 64, "value": 0}, "group": "control_change"}, {"time": 1197, "annotation": {"number": 64, "value": 127}, "group": "control_change"}, {"time": 1219, "annotation": {"number": 64, "value": 0}, "group": "control_change"}, {"time": 1221, "annotation": {"number": 64, "value": 127}, "group": "control_change"}, {"time": 1244, "annotation": {"number": 64, "value": 0}, "group": "control_change"}, {"time": 1245, "annotation": {"number": 64, "value": 127}, "group": "control_change"}, {"time": 1267, "annotation": {"number": 64, "value": 0}, "group": "control_change"}, {"time": 1268, "annotation": {"number": 64, "value": 127}, "group": "control_change"}, {"time": 1292, "annotation": {"number": 64, "value": 0}, "group": "control_change"}, {"time": 1293, "annotation": {"number": 64, "value": 74}, "group": "control_change"}, {"time": 1293, "annotation": {"number": 64, "value": 127}, "group": "control_change"}, {"time": 1315, "annotation": {"number": 64, "value": 0}, "group": "control_change"}, {"time": 1317, "annotation": {"number": 64, "value": 38}, "group": "control_change"}, {"time": 1317, "annotation": {"number": 64, "value": 127}, "group": "control_change"}, {"time": 1339, "annotation": {"number": 64, "value": 0}, "group": "control_change"}, {"time": 1340, "annotation": {"number": 64, "value": 74}, "group": "control_change"}, {"time": 1340, "annotation": {"number": 64, "value": 127}, "group": "control_change"}, {"time": 1340, "annotation": {"number": 64, "value": 38}, "group": "control_change"}, {"time": 1341, "annotation": {"number": 64, "value": 127}, "group": "control_change"}, {"time": 1363, "annotation": {"number": 64, "value": 0}, "group": "control_change"}, {"time": 1365, "annotation": {"number": 64, "value": 74}, "group": "control_change"}, {"time": 1365, "annotation": {"number": 64, "value": 127}, "group": "control_change"}, {"time": 1387, "annotation": {"number": 64, "value": 0}, "group": "control_change"}, {"time": 1388, "annotation": {"number": 64, "value": 74}, "group": "control_change"}, {"time": 1388, "annotation": {"number": 64, "value": 127}, "group": "control_change"}, {"time": 1411, "annotation": {"number": 64, "value": 0}, "group": "control_change"}, {"time": 1412, "annotation": {"number": 64, "value": 74}, "group": "control_change"}, {"time": 1413, "annotation": {"number": 64, "value": 127}, "group": "control_change"}, {"time": 1417, "annotation": {"number": 64, "value": 127}, "group": "control_change"}, {"time": 1436, "annotation": {"number": 64, "value": 0}, "group": "control_change"}, {"time": 1437, "annotation": {"number": 64, "value": 127}, "group": "control_change"}, {"time": 1459, "annotation": {"number": 64, "value": 0}, "group": "control_change"}, {"time": 1460, "annotation": {"number": 64, "value": 127}, "group": "control_change"}, {"time": 1466, "annotation": {"number": 64, "value": 127}, "group": "control_change"}, {"time": 1483, "annotation": {"number": 64, "value": 0}, "group": "control_change"}, {"time": 1484, "annotation": {"number": 64, "value": 0}, "group": "control_change"}, {"time": 1485, "annotation": {"number": 64, "value": 74}, "group": "control_change"}, {"time": 1485, "annotation": {"number": 64, "value": 127}, "group": "control_change"}, {"time": 1507, "annotation": {"number": 64, "value": 0}, "group": "control_change"}, {"time": 1508, "annotation": {"number": 64, "value": 127}, "group": "control_change"}, {"time": 1509, "annotation": {"number": 64, "value": 0}, "group": "control_change"}, {"time": 1518, "annotation": {"number": 64, "value": 38}, "group": "control_change"}, {"time": 1518, "annotation": {"number": 64, "value": 127}, "group": "control_change"}, {"time": 1548, "annotation": {"number": 64, "value": 0}, "group": "control_change"}, {"time": 1550, "annotation": {"number": 64, "value": 127}, "group": "control_change"}, {"time": 1551, "annotation": {"number": 64, "value": 74}, "group": "control_change"}, {"time": 1551, "annotation": {"number": 64, "value": 127}, "group": "control_change"}, {"time": 1556, "annotation": {"number": 64, "value": 0}, "group": "control_change"}, {"time": 1557, "annotation": {"number": 64, "value": 74}, "group": "control_change"}, {"time": 1557, "annotation": {"number": 64, "value": 127}, "group": "control_change"}, {"time": 1561, "annotation": {"number": 64, "value": 0}, "group": "control_change"}, {"time": 1577, "annotation": {"number": 64, "value": 127}, "group": "control_change"}, {"time": 1581, "annotation": {"number": 64, "value": 0}, "group": "control_change"}, {"time": 1594, "annotation": {"number": 64, "value": 38}, "group": "control_change"}, {"time": 1594, "annotation": {"number": 64, "value": 127}, "group": "control_change"}, {"time": 1602, "annotation": {"number": 64, "value": 74}, "group": "control_change"}, {"time": 1603, "annotation": {"number": 64, "value": 0}, "group": "control_change"}, {"time": 1605, "annotation": {"number": 64, "value": 127}, "group": "control_change"}, {"time": 1645, "annotation": {"number": 64, "value": 0}, "group": "control_change"}, {"time": 1651, "annotation": {"number": 64, "value": 0}, "group": "control_change"}, {"time": 1653, "annotation": {"number": 64, "value": 74}, "group": "control_change"}, {"time": 1653, "annotation": {"number": 64, "value": 127}, "group": "control_change"}, {"time": 1658, "annotation": {"number": 64, "value": 127}, "group": "control_change"}, {"time": 1678, "annotation": {"number": 64, "value": 127}, "group": "control_change"}, {"time": 1700, "annotation": {"number": 64, "value": 0}, "group": "control_change"}, {"time": 1701, "annotation": {"number": 64, "value": 0}, "group": "control_change"}, {"time": 1702, "annotation": {"number": 64, "value": 127}, "group": "control_change"}, {"time": 1719, "annotation": {"number": 64, "value": 0}, "group": "control_change"}, {"time": 1723, "annotation": {"number": 64, "value": 0}, "group": "control_change"}, {"time": 1724, "annotation": {"number": 64, "value": 127}, "group": "control_change"}, {"time": 1747, "annotation": {"number": 64, "value": 0}, "group": "control_change"}, {"time": 1749, "annotation": {"number": 64, "value": 127}, "group": "control_change"}, {"time": 1751, "annotation": {"number": 64, "value": 74}, "group": "control_change"}, {"time": 1751, "annotation": {"number": 64, "value": 0}, "group": "control_change"}, {"time": 1771, "annotation": {"number": 64, "value": 0}, "group": "control_change"}, {"time": 1773, "annotation": {"number": 64, "value": 74}, "group": "control_change"}, {"time": 1773, "annotation": {"number": 64, "value": 127}, "group": "control_change"}, {"time": 1794, "annotation": {"number": 64, "value": 0}, "group": "control_change"}, {"time": 1797, "annotation": {"number": 64, "value": 127}, "group": "control_change"}, {"time": 1810, "annotation": {"number": 64, "value": 38}, "group": "control_change"}, {"time": 1810, "annotation": {"number": 64, "value": 0}, "group": "control_change"}, {"time": 1811, "annotation": {"number": 64, "value": 74}, "group": "control_change"}, {"time": 1811, "annotation": {"number": 64, "value": 127}, "group": "control_change"}, {"time": 1820, "annotation": {"number": 64, "value": 74}, "group": "control_change"}, {"time": 1820, "annotation": {"number": 64, "value": 0}, "group": "control_change"}, {"time": 1822, "annotation": {"number": 64, "value": 127}, "group": "control_change"}, {"time": 1845, "annotation": {"number": 64, "value": 0}, "group": "control_change"}, {"time": 1845, "annotation": {"number": 64, "value": 74}, "group": "control_change"}, {"time": 1845, "annotation": {"number": 64, "value": 127}, "group": "control_change"}, {"time": 1892, "annotation": {"number": 64, "value": 0}, "group": "control_change"}, {"time": 1893, "annotation": {"number": 64, "value": 127}, "group": "control_change"}, {"time": 1928, "annotation": {"number": 64, "value": 74}, "group": "control_change"}, {"time": 1929, "annotation": {"number": 64, "value": 0}, "group": "control_change"}, {"time": 1987, "annotation": {"number": 64, "value": 0}, "group": "control_change"}, {"time": 1989, "annotation": {"number": 64, "value": 74}, "group": "control_change"}, {"time": 1989, "annotation": {"number": 64, "value": 127}, "group": "control_change"}, {"time": 2014, "annotation": {"number": 64, "value": 74}, "group": "control_change"}, {"time": 2014, "annotation": {"number": 64, "value": 127}, "group": "control_change"}, {"time": 2016, "annotation": {"number": 64, "value": 0}, "group": "control_change"}, {"time": 2023, "annotation": {"number": 64, "value": 127}, "group": "control_change"}, {"time": 2034, "annotation": {"number": 64, "value": 0}, "group": "control_change"}, {"time": 2035, "annotation": {"number": 64, "value": 0}, "group": "control_change"}, {"time": 2037, "annotation": {"number": 64, "value": 74}, "group": "control_change"}, {"time": 2037, "annotation": {"number": 64, "value": 127}, "group": "control_change"}, {"time": 2071, "annotation": {"number": 64, "value": 127}, "group": "control_change"}, {"time": 2082, "annotation": {"number": 64, "value": 0}, "group": "control_change"}, {"time": 2084, "annotation": {"number": 64, "value": 127}, "group": "control_change"}, {"time": 2107, "annotation": {"number": 64, "value": 74}, "group": "control_change"}, {"time": 2107, "annotation": {"number": 64, "value": 0}, "group": "control_change"}, {"time": 2108, "annotation": {"number": 64, "value": 74}, "group": "control_change"}, {"time": 2108, "annotation": {"number": 64, "value": 0}, "group": "control_change"}, {"time": 2108, "annotation": {"number": 64, "value": 127}, "group": "control_change"}, {"time": 2110, "annotation": {"number": 64, "value": 127}, "group": "control_change"}, {"time": 2131, "annotation": {"number": 64, "value": 0}, "group": "control_change"}, {"time": 2133, "annotation": {"number": 64, "value": 74}, "group": "control_change"}, {"time": 2133, "annotation": {"number": 64, "value": 0}, "group": "control_change"}, {"time": 2133, "annotation": {"number": 64, "value": 127}, "group": "control_change"}, {"time": 2155, "annotation": {"number": 64, "value": 0}, "group": "control_change"}, {"time": 2156, "annotation": {"number": 64, "value": 127}, "group": "control_change"}, {"time": 2180, "annotation": {"number": 64, "value": 0}, "group": "control_change"}, {"time": 2181, "annotation": {"number": 64, "value": 127}, "group": "control_change"}, {"time": 2204, "annotation": {"number": 64, "value": 38}, "group": "control_change"}, {"time": 2204, "annotation": {"number": 64, "value": 0}, "group": "control_change"}, {"time": 2205, "annotation": {"number": 64, "value": 74}, "group": "control_change"}, {"time": 2205, "annotation": {"number": 64, "value": 127}, "group": "control_change"}, {"time": 2208, "annotation": {"number": 64, "value": 127}, "group": "control_change"}, {"time": 2227, "annotation": {"number": 64, "value": 74}, "group": "control_change"}, {"time": 2227, "annotation": {"number": 64, "value": 0}, "group": "control_change"}, {"time": 2228, "annotation": {"number": 64, "value": 0}, "group": "control_change"}, {"time": 2229, "annotation": {"number": 64, "value": 74}, "group": "control_change"}, {"time": 2229, "annotation": {"number": 64, "value": 127}, "group": "control_change"}, {"time": 2251, "annotation": {"number": 64, "value": 0}, "group": "control_change"}, {"time": 2254, "annotation": {"number": 64, "value": 127}, "group": "control_change"}, {"time": 2275, "annotation": {"number": 64, "value": 0}, "group": "control_change"}, {"time": 2276, "annotation": {"number": 64, "value": 127}, "group": "control_change"}, {"time": 2323, "annotation": {"number": 64, "value": 0}, "group": "control_change"}, {"time": 2350, "annotation": {"number": 64, "value": 74}, "group": "control_change"}, {"time": 2350, "annotation": {"number": 64, "value": 127}, "group": "control_change"}, {"time": 2372, "annotation": {"number": 64, "value": 0}, "group": "control_change"}, {"time": 2373, "annotation": {"number": 64, "value": 74}, "group": "control_change"}, {"time": 2373, "annotation": {"number": 64, "value": 127}, "group": "control_change"}, {"time": 2419, "annotation": {"number": 64, "value": 0}, "group": "control_change"}, {"time": 2420, "annotation": {"number": 64, "value": 0}, "group": "control_change"}, {"time": 2421, "annotation": {"number": 64, "value": 127}, "group": "control_change"}, {"time": 2468, "annotation": {"number": 64, "value": 0}, "group": "control_change"}, {"time": 2468, "annotation": {"number": 64, "value": 127}, "group": "control_change"}, {"time": 2493, "annotation": {"number": 64, "value": 0}, "group": "control_change"}, {"time": 2493, "annotation": {"number": 64, "value": 127}, "group": "control_change"}, {"time": 2516, "annotation": {"number": 64, "value": 0}, "group": "control_change"}, {"time": 2517, "annotation": {"number": 64, "value": 74}, "group": "control_change"}, {"time": 2517, "annotation": {"number": 64, "value": 127}, "group": "control_change"}, {"time": 2540, "annotation": {"number": 64, "value": 0}, "group": "control_change"}, {"time": 2541, "annotation": {"number": 64, "value": 127}, "group": "control_change"}, {"time": 2564, "annotation": {"number": 64, "value": 0}, "group": "control_change"}, {"time": 2565, "annotation": {"number": 64, "value": 38}, "group": "control_change"}, {"time": 2565, "annotation": {"number": 64, "value": 127}, "group": "control_change"}, {"time": 2589, "annotation": {"number": 64, "value": 74}, "group": "control_change"}, {"time": 2589, "annotation": {"number": 64, "value": 0}, "group": "control_change"}, {"time": 2590, "annotation": {"number": 64, "value": 74}, "group": "control_change"}, {"time": 2590, "annotation": {"number": 64, "value": 127}, "group": "control_change"}, {"time": 2597, "annotation": {"number": 64, "value": 74}, "group": "control_change"}, {"time": 2597, "annotation": {"number": 64, "value": 127}, "group": "control_change"}, {"time": 2608, "annotation": {"number": 64, "value": 127}, "group": "control_change"}, {"time": 2612, "annotation": {"number": 64, "value": 0}, "group": "control_change"}, {"time": 2613, "annotation": {"number": 64, "value": 127}, "group": "control_change"}, {"time": 2613, "annotation": {"number": 64, "value": 74}, "group": "control_change"}, {"time": 2635, "annotation": {"number": 64, "value": 0}, "group": "control_change"}, {"time": 2635, "annotation": {"number": 64, "value": 74}, "group": "control_change"}, {"time": 2637, "annotation": {"number": 64, "value": 127}, "group": "control_change"}, {"time": 2660, "annotation": {"number": 64, "value": 0}, "group": "control_change"}, {"time": 2662, "annotation": {"number": 64, "value": 127}, "group": "control_change"}, {"time": 2688, "annotation": {"number": 64, "value": 38}, "group": "control_change"}, {"time": 2688, "annotation": {"number": 64, "value": 127}, "group": "control_change"}, {"time": 2698, "annotation": {"number": 64, "value": 0}, "group": "control_change"}, {"time": 2708, "annotation": {"number": 64, "value": 0}, "group": "control_change"}, {"time": 2709, "annotation": {"number": 64, "value": 127}, "group": "control_change"}, {"time": 2732, "annotation": {"number": 64, "value": 0}, "group": "control_change"}, {"time": 2733, "annotation": {"number": 64, "value": 127}, "group": "control_change"}, {"time": 2755, "annotation": {"number": 64, "value": 0}, "group": "control_change"}, {"time": 2757, "annotation": {"number": 64, "value": 127}, "group": "control_change"}, {"time": 2780, "annotation": {"number": 64, "value": 0}, "group": "control_change"}, {"time": 2781, "annotation": {"number": 64, "value": 127}, "group": "control_change"}, {"time": 2803, "annotation": {"number": 64, "value": 0}, "group": "control_change"}, {"time": 2804, "annotation": {"number": 64, "value": 127}, "group": "control_change"}, {"time": 2828, "annotation": {"number": 64, "value": 0}, "group": "control_change"}, {"time": 2829, "annotation": {"number": 64, "value": 74}, "group": "control_change"}, {"time": 2829, "annotation": {"number": 64, "value": 127}, "group": "control_change"}, {"time": 2851, "annotation": {"number": 64, "value": 0}, "group": "control_change"}, {"time": 2853, "annotation": {"number": 64, "value": 38}, "group": "control_change"}, {"time": 2853, "annotation": {"number": 64, "value": 127}, "group": "control_change"}, {"time": 2875, "annotation": {"number": 64, "value": 0}, "group": "control_change"}, {"time": 2876, "annotation": {"number": 64, "value": 74}, "group": "control_change"}, {"time": 2876, "annotation": {"number": 64, "value": 127}, "group": "control_change"}, {"time": 2877, "annotation": {"number": 64, "value": 38}, "group": "control_change"}, {"time": 2877, "annotation": {"number": 64, "value": 127}, "group": "control_change"}, {"time": 2899, "annotation": {"number": 64, "value": 0}, "group": "control_change"}, {"time": 2901, "annotation": {"number": 64, "value": 74}, "group": "control_change"}, {"time": 2901, "annotation": {"number": 64, "value": 127}, "group": "control_change"}, {"time": 2923, "annotation": {"number": 64, "value": 0}, "group": "control_change"}, {"time": 2924, "annotation": {"number": 64, "value": 74}, "group": "control_change"}, {"time": 2924, "annotation": {"number": 64, "value": 127}, "group": "control_change"}, {"time": 2947, "annotation": {"number": 64, "value": 0}, "group": "control_change"}, {"time": 2949, "annotation": {"number": 64, "value": 74}, "group": "control_change"}, {"time": 2949, "annotation": {"number": 64, "value": 127}, "group": "control_change"}, {"time": 2953, "annotation": {"number": 64, "value": 127}, "group": "control_change"}, {"time": 2972, "annotation": {"number": 64, "value": 0}, "group": "control_change"}, {"time": 2973, "annotation": {"number": 64, "value": 127}, "group": "control_change"}, {"time": 2995, "annotation": {"number": 64, "value": 0}, "group": "control_change"}, {"time": 2996, "annotation": {"number": 64, "value": 127}, "group": "control_change"}, {"time": 3002, "annotation": {"number": 64, "value": 127}, "group": "control_change"}, {"time": 3019, "annotation": {"number": 64, "value": 0}, "group": "control_change"}, {"time": 3020, "annotation": {"number": 64, "value": 0}, "group": "control_change"}, {"time": 3021, "annotation": {"number": 64, "value": 74}, "group": "control_change"}, {"time": 3021, "annotation": {"number": 64, "value": 127}, "group": "control_change"}, {"time": 3043, "annotation": {"number": 64, "value": 0}, "group": "control_change"}, {"time": 3051, "annotation": {"number": 64, "value": 0}, "group": "control_change"}, {"time": 3052, "annotation": {"number": 64, "value": 38}, "group": "control_change"}, {"time": 3053, "annotation": {"number": 64, "value": 127}, "group": "control_change"}, {"time": 3065, "annotation": {"number": 64, "value": 0}, "group": "control_change"}, {"time": 3067, "annotation": {"number": 64, "value": 74}, "group": "control_change"}, {"time": 3067, "annotation": {"number": 64, "value": 127}, "group": "control_change"}, {"time": 3087, "annotation": {"number": 64, "value": 74}, "group": "control_change"}, {"time": 3087, "annotation": {"number": 64, "value": 0}, "group": "control_change"}, {"time": 3104, "annotation": {"number": 64, "value": 74}, "group": "control_change"}, {"time": 3104, "annotation": {"number": 64, "value": 127}, "group": "control_change"}, {"time": 3141, "annotation": {"number": 64, "value": 127}, "group": "control_change"}, {"time": 3164, "annotation": {"number": 64, "value": 0}, "group": "control_change"}, {"time": 3165, "annotation": {"number": 64, "value": 127}, "group": "control_change"}, {"time": 3187, "annotation": {"number": 64, "value": 0}, "group": "control_change"}, {"time": 3188, "annotation": {"number": 64, "value": 127}, "group": "control_change"}, {"time": 3205, "annotation": {"number": 64, "value": 74}, "group": "control_change"}, {"time": 3205, "annotation": {"number": 64, "value": 127}, "group": "control_change"}, {"time": 3212, "annotation": {"number": 64, "value": 0}, "group": "control_change"}, {"time": 3213, "annotation": {"number": 64, "value": 74}, "group": "control_change"}, {"time": 3213, "annotation": {"number": 64, "value": 127}, "group": "control_change"}, {"time": 3215, "annotation": {"number": 64, "value": 0}, "group": "control_change"}, {"time": 3231, "annotation": {"number": 64, "value": 74}, "group": "control_change"}, {"time": 3231, "annotation": {"number": 64, "value": 127}, "group": "control_change"}, {"time": 3234, "annotation": {"number": 64, "value": 0}, "group": "control_change"}, {"time": 3235, "annotation": {"number": 64, "value": 0}, "group": "control_change"}, {"time": 3237, "annotation": {"number": 64, "value": 38}, "group": "control_change"}, {"time": 3237, "annotation": {"number": 64, "value": 127}, "group": "control_change"}, {"time": 3259, "annotation": {"number": 64, "value": 0}, "group": "control_change"}, {"time": 3260, "annotation": {"number": 64, "value": 74}, "group": "control_change"}, {"time": 3260, "annotation": {"number": 64, "value": 127}, "group": "control_change"}, {"time": 3283, "annotation": {"number": 64, "value": 0}, "group": "control_change"}, {"time": 3284, "annotation": {"number": 64, "value": 0}, "group": "control_change"}, {"time": 3285, "annotation": {"number": 64, "value": 74}, "group": "control_change"}, {"time": 3285, "annotation": {"number": 64, "value": 127}, "group": "control_change"}, {"time": 3307, "annotation": {"number": 64, "value": 0}, "group": "control_change"}, {"time": 3308, "annotation": {"number": 64, "value": 74}, "group": "control_change"}, {"time": 3308, "annotation": {"number": 64, "value": 127}, "group": "control_change"}, {"time": 3331, "annotation": {"number": 64, "value": 0}, "group": "control_change"}, {"time": 3333, "annotation": {"number": 64, "value": 74}, "group": "control_change"}, {"time": 3333, "annotation": {"number": 64, "value": 127}, "group": "control_change"}, {"time": 3337, "annotation": {"number": 64, "value": 127}, "group": "control_change"}, {"time": 3356, "annotation": {"number": 64, "value": 0}, "group": "control_change"}, {"time": 3357, "annotation": {"number": 64, "value": 127}, "group": "control_change"}, {"time": 3379, "annotation": {"number": 64, "value": 0}, "group": "control_change"}, {"time": 3380, "annotation": {"number": 64, "value": 127}, "group": "control_change"}, {"time": 3384, "annotation": {"number": 64, "value": 38}, "group": "control_change"}, {"time": 3384, "annotation": {"number": 64, "value": 127}, "group": "control_change"}, {"time": 3403, "annotation": {"number": 64, "value": 0}, "group": "control_change"}, {"time": 3405, "annotation": {"number": 64, "value": 74}, "group": "control_change"}, {"time": 3405, "annotation": {"number": 64, "value": 127}, "group": "control_change"}, {"time": 3427, "annotation": {"number": 64, "value": 0}, "group": "control_change"}, {"time": 3428, "annotation": {"number": 64, "value": 38}, "group": "control_change"}, {"time": 3428, "annotation": {"number": 64, "value": 0}, "group": "control_change"}, {"time": 3428, "annotation": {"number": 64, "value": 127}, "group": "control_change"}, {"time": 3438, "annotation": {"number": 64, "value": 38}, "group": "control_change"}, {"time": 3438, "annotation": {"number": 64, "value": 127}, "group": "control_change"}, {"time": 3447, "annotation": {"number": 64, "value": 74}, "group": "control_change"}, {"time": 3447, "annotation": {"number": 64, "value": 127}, "group": "control_change"}, {"time": 3460, "annotation": {"number": 64, "value": 127}, "group": "control_change"}, {"time": 3476, "annotation": {"number": 64, "value": 0}, "group": "control_change"}, {"time": 3477, "annotation": {"number": 64, "value": 38}, "group": "control_change"}, {"time": 3477, "annotation": {"number": 64, "value": 127}, "group": "control_change"}, {"time": 3478, "annotation": {"number": 64, "value": 74}, "group": "control_change"}, {"time": 3478, "annotation": {"number": 64, "value": 127}, "group": "control_change"}, {"time": 3523, "annotation": {"number": 64, "value": 0}, "group": "control_change"}, {"time": 3525, "annotation": {"number": 64, "value": 38}, "group": "control_change"}, {"time": 3525, "annotation": {"number": 64, "value": 127}, "group": "control_change"}, {"time": 3548, "annotation": {"number": 64, "value": 0}, "group": "control_change"}, {"time": 3548, "annotation": {"number": 64, "value": 127}, "group": "control_change"}, {"time": 3552, "annotation": {"number": 64, "value": 0}, "group": "control_change"}, {"time": 3562, "annotation": {"number": 64, "value": 127}, "group": "control_change"}, {"time": 3571, "annotation": {"number": 64, "value": 0}, "group": "control_change"}, {"time": 3572, "annotation": {"number": 64, "value": 0}, "group": "control_change"}, {"time": 3573, "annotation": {"number": 64, "value": 127}, "group": "control_change"}, {"time": 3574, "annotation": {"number": 64, "value": 127}, "group": "control_change"}, {"time": 3581, "annotation": {"number": 64, "value": 0}, "group": "control_change"}, {"time": 3582, "annotation": {"number": 64, "value": 0}, "group": "control_change"}, {"time": 3596, "annotation": {"number": 64, "value": 0}, "group": "control_change"}, {"time": 3597, "annotation": {"number": 64, "value": 127}, "group": "control_change"}, {"time": 3624, "annotation": {"number": 64, "value": 74}, "group": "control_change"}, {"time": 3624, "annotation": {"number": 64, "value": 127}, "group": "control_change"}, {"time": 3668, "annotation": {"number": 64, "value": 0}, "group": "control_change"}]}]}