{"metadata": {"schema_version": "0.2", "title": "None", "source_filename": "804.mid", "source_format": "midi"}, "resolution": 12, "tempos": [{"time": 0, "qpm": 69.1601195086865}], "time_signatures": [{"time": 0, "numerator": 1, "denominator": 4}], "tracks": [{"program": 0, "is_drum": false, "name": "MELODY", "notes": [{"time": 393, "pitch": 62, "duration": 5, "velocity": 79}, {"time": 399, "pitch": 64, "duration": 5, "velocity": 88}, {"time": 402, "pitch": 67, "duration": 9, "velocity": 88}, {"time": 417, "pitch": 69, "duration": 5, "velocity": 95}, {"time": 423, "pitch": 71, "duration": 3, "velocity": 76}, {"time": 426, "pitch": 64, "duration": 23, "velocity": 75}, {"time": 441, "pitch": 62, "duration": 5, "velocity": 69}, {"time": 447, "pitch": 64, "duration": 2, "velocity": 77}, {"time": 453, "pitch": 67, "duration": 1, "velocity": 95}, {"time": 456, "pitch": 67, "duration": 3, "velocity": 100}, {"time": 462, "pitch": 67, "duration": 1, "velocity": 98}, {"time": 465, "pitch": 67, "duration": 5, "velocity": 95}, {"time": 471, "pitch": 64, "duration": 5, "velocity": 79}, {"time": 474, "pitch": 62, "duration": 8, "velocity": 91}, {"time": 489, "pitch": 62, "duration": 6, "velocity": 91}, {"time": 495, "pitch": 64, "duration": 3, "velocity": 79}, {"time": 498, "pitch": 67, "duration": 12, "velocity": 79}, {"time": 513, "pitch": 69, "duration": 5, "velocity": 98}, {"time": 519, "pitch": 71, "duration": 3, "velocity": 73}, {"time": 522, "pitch": 64, "duration": 14, "velocity": 71}, {"time": 537, "pitch": 62, "duration": 5, "velocity": 68}, {"time": 543, "pitch": 64, "duration": 3, "velocity": 91}, {"time": 549, "pitch": 71, "duration": 5, "velocity": 91}, {"time": 555, "pitch": 69, "duration": 9, "velocity": 77}, {"time": 561, "pitch": 67, "duration": 5, "velocity": 77}, {"time": 567, "pitch": 64, "duration": 3, "velocity": 91}, {"time": 570, "pitch": 69, "duration": 13, "velocity": 100}, {"time": 585, "pitch": 69, "duration": 5, "velocity": 109}, {"time": 591, "pitch": 71, "duration": 5, "velocity": 100}, {"time": 597, "pitch": 74, "duration": 5, "velocity": 111}, {"time": 603, "pitch": 71, "duration": 5, "velocity": 100}, {"time": 609, "pitch": 69, "duration": 5, "velocity": 100}, {"time": 615, "pitch": 67, "duration": 6, "velocity": 98}, {"time": 621, "pitch": 64, "duration": 12, "velocity": 109}, {"time": 633, "pitch": 62, "duration": 4, "velocity": 106}, {"time": 639, "pitch": 64, "duration": 3, "velocity": 82}, {"time": 645, "pitch": 67, "duration": 3, "velocity": 106}, {"time": 651, "pitch": 67, "duration": 3, "velocity": 88}, {"time": 657, "pitch": 67, "duration": 5, "velocity": 106}, {"time": 663, "pitch": 64, "duration": 3, "velocity": 100}, {"time": 666, "pitch": 69, "duration": 12, "velocity": 113}, {"time": 681, "pitch": 69, "duration": 7, "velocity": 106}, {"time": 687, "pitch": 71, "duration": 5, "velocity": 109}, {"time": 693, "pitch": 74, "duration": 5, "velocity": 111}, {"time": 699, "pitch": 71, "duration": 5, "velocity": 106}, {"time": 705, "pitch": 69, "duration": 5, "velocity": 103}, {"time": 708, "pitch": 67, "duration": 6, "velocity": 109}, {"time": 714, "pitch": 64, "duration": 8, "velocity": 111}, {"time": 729, "pitch": 62, "duration": 4, "velocity": 109}, {"time": 735, "pitch": 64, "duration": 5, "velocity": 95}, {"time": 741, "pitch": 67, "duration": 4, "velocity": 109}, {"time": 747, "pitch": 67, "duration": 9, "velocity": 115}, {"time": 759, "pitch": 76, "duration": 4, "velocity": 113}, {"time": 765, "pitch": 74, "duration": 23, "velocity": 111}, {"time": 801, "pitch": 71, "duration": 5, "velocity": 111}, {"time": 807, "pitch": 74, "duration": 4, "velocity": 91}, {"time": 813, "pitch": 76, "duration": 3, "velocity": 109}, {"time": 819, "pitch": 76, "duration": 1, "velocity": 106}, {"time": 822, "pitch": 76, "duration": 1, "velocity": 103}, {"time": 825, "pitch": 76, "duration": 4, "velocity": 113}, {"time": 831, "pitch": 74, "duration": 4, "velocity": 109}, {"time": 837, "pitch": 74, "duration": 6, "velocity": 111}, {"time": 849, "pitch": 71, "duration": 5, "velocity": 113}, {"time": 855, "pitch": 69, "duration": 4, "velocity": 106}, {"time": 861, "pitch": 71, "duration": 5, "velocity": 113}, {"time": 867, "pitch": 74, "duration": 5, "velocity": 103}, {"time": 873, "pitch": 69, "duration": 5, "velocity": 109}, {"time": 879, "pitch": 67, "duration": 6, "velocity": 109}, {"time": 885, "pitch": 64, "duration": 15, "velocity": 111}, {"time": 897, "pitch": 71, "duration": 4, "velocity": 103}, {"time": 903, "pitch": 74, "duration": 4, "velocity": 98}, {"time": 909, "pitch": 76, "duration": 3, "velocity": 113}, {"time": 915, "pitch": 76, "duration": 3, "velocity": 109}, {"time": 921, "pitch": 76, "duration": 5, "velocity": 109}, {"time": 927, "pitch": 74, "duration": 2, "velocity": 98}, {"time": 930, "pitch": 76, "duration": 8, "velocity": 109}, {"time": 939, "pitch": 74, "duration": 5, "velocity": 103}, {"time": 945, "pitch": 71, "duration": 2, "velocity": 103}, {"time": 948, "pitch": 69, "duration": 8, "velocity": 100}, {"time": 954, "pitch": 71, "duration": 27, "velocity": 109}, {"time": 993, "pitch": 71, "duration": 5, "velocity": 111}, {"time": 999, "pitch": 74, "duration": 4, "velocity": 100}, {"time": 1005, "pitch": 76, "duration": 3, "velocity": 117}, {"time": 1011, "pitch": 76, "duration": 1, "velocity": 103}, {"time": 1014, "pitch": 76, "duration": 1, "velocity": 106}, {"time": 1017, "pitch": 76, "duration": 3, "velocity": 115}, {"time": 1023, "pitch": 74, "duration": 3, "velocity": 109}, {"time": 1029, "pitch": 74, "duration": 8, "velocity": 111}, {"time": 1041, "pitch": 71, "duration": 5, "velocity": 103}, {"time": 1047, "pitch": 69, "duration": 5, "velocity": 98}, {"time": 1053, "pitch": 71, "duration": 5, "velocity": 111}, {"time": 1059, "pitch": 74, "duration": 5, "velocity": 98}, {"time": 1065, "pitch": 69, "duration": 5, "velocity": 109}, {"time": 1071, "pitch": 67, "duration": 5, "velocity": 103}, {"time": 1077, "pitch": 64, "duration": 16, "velocity": 100}, {"time": 1089, "pitch": 62, "duration": 3, "velocity": 103}, {"time": 1095, "pitch": 64, "duration": 2, "velocity": 91}, {"time": 1098, "pitch": 67, "duration": 7, "velocity": 100}, {"time": 1107, "pitch": 67, "duration": 3, "velocity": 95}, {"time": 1113, "pitch": 67, "duration": 5, "velocity": 88}, {"time": 1116, "pitch": 71, "duration": 4, "velocity": 91}, {"time": 1125, "pitch": 69, "duration": 1, "velocity": 100}, {"time": 1128, "pitch": 69, "duration": 4, "velocity": 95}, {"time": 1134, "pitch": 69, "duration": 2, "velocity": 95}, {"time": 1137, "pitch": 67, "duration": 5, "velocity": 100}, {"time": 1143, "pitch": 64, "duration": 5, "velocity": 91}, {"time": 1146, "pitch": 67, "duration": 35, "velocity": 113}, {"time": 1521, "pitch": 62, "duration": 5, "velocity": 115}, {"time": 1527, "pitch": 64, "duration": 5, "velocity": 111}, {"time": 1533, "pitch": 67, "duration": 9, "velocity": 103}, {"time": 1545, "pitch": 69, "duration": 5, "velocity": 111}, {"time": 1551, "pitch": 71, "duration": 3, "velocity": 109}, {"time": 1554, "pitch": 64, "duration": 13, "velocity": 111}, {"time": 1569, "pitch": 62, "duration": 4, "velocity": 103}, {"time": 1575, "pitch": 64, "duration": 3, "velocity": 98}, {"time": 1581, "pitch": 67, "duration": 4, "velocity": 109}, {"time": 1587, "pitch": 67, "duration": 3, "velocity": 106}, {"time": 1593, "pitch": 67, "duration": 4, "velocity": 103}, {"time": 1599, "pitch": 64, "duration": 2, "velocity": 100}, {"time": 1602, "pitch": 62, "duration": 17, "velocity": 106}, {"time": 1617, "pitch": 62, "duration": 2, "velocity": 106}, {"time": 1623, "pitch": 64, "duration": 5, "velocity": 88}, {"time": 1629, "pitch": 67, "duration": 3, "velocity": 100}, {"time": 1635, "pitch": 67, "duration": 3, "velocity": 95}, {"time": 1641, "pitch": 69, "duration": 2, "velocity": 106}, {"time": 1644, "pitch": 71, "duration": 11, "velocity": 98}, {"time": 1650, "pitch": 64, "duration": 11, "velocity": 106}, {"time": 1665, "pitch": 62, "duration": 1, "velocity": 98}, {"time": 1668, "pitch": 62, "duration": 4, "velocity": 106}, {"time": 1674, "pitch": 64, "duration": 2, "velocity": 85}, {"time": 1677, "pitch": 67, "duration": 3, "velocity": 106}, {"time": 1683, "pitch": 67, "duration": 2, "velocity": 100}, {"time": 1689, "pitch": 67, "duration": 3, "velocity": 113}, {"time": 1692, "pitch": 64, "duration": 4, "velocity": 106}, {"time": 1698, "pitch": 69, "duration": 6, "velocity": 113}, {"time": 1713, "pitch": 69, "duration": 4, "velocity": 113}, {"time": 1719, "pitch": 71, "duration": 5, "velocity": 98}, {"time": 1725, "pitch": 74, "duration": 5, "velocity": 109}, {"time": 1731, "pitch": 71, "duration": 5, "velocity": 91}, {"time": 1737, "pitch": 69, "duration": 2, "velocity": 113}, {"time": 1740, "pitch": 67, "duration": 8, "velocity": 111}, {"time": 1746, "pitch": 64, "duration": 6, "velocity": 115}, {"time": 1761, "pitch": 62, "duration": 5, "velocity": 103}, {"time": 1767, "pitch": 64, "duration": 2, "velocity": 98}, {"time": 1773, "pitch": 67, "duration": 2, "velocity": 103}, {"time": 1779, "pitch": 67, "duration": 1, "velocity": 103}, {"time": 1785, "pitch": 67, "duration": 2, "velocity": 111}, {"time": 1788, "pitch": 64, "duration": 5, "velocity": 106}, {"time": 1794, "pitch": 69, "duration": 13, "velocity": 115}, {"time": 1809, "pitch": 69, "duration": 4, "velocity": 115}, {"time": 1815, "pitch": 71, "duration": 5, "velocity": 103}, {"time": 1821, "pitch": 74, "duration": 5, "velocity": 115}, {"time": 1827, "pitch": 71, "duration": 6, "velocity": 109}, {"time": 1833, "pitch": 69, "duration": 2, "velocity": 113}, {"time": 1836, "pitch": 67, "duration": 6, "velocity": 111}, {"time": 1842, "pitch": 64, "duration": 10, "velocity": 113}, {"time": 1857, "pitch": 62, "duration": 3, "velocity": 113}, {"time": 1860, "pitch": 64, "duration": 3, "velocity": 115}, {"time": 1866, "pitch": 64, "duration": 2, "velocity": 111}, {"time": 1869, "pitch": 67, "duration": 2, "velocity": 115}, {"time": 1875, "pitch": 67, "duration": 3, "velocity": 111}, {"time": 1881, "pitch": 67, "duration": 3, "velocity": 111}, {"time": 1884, "pitch": 76, "duration": 6, "velocity": 117}, {"time": 1890, "pitch": 74, "duration": 31, "velocity": 120}, {"time": 1929, "pitch": 71, "duration": 5, "velocity": 117}, {"time": 1935, "pitch": 74, "duration": 4, "velocity": 111}, {"time": 1941, "pitch": 76, "duration": 3, "velocity": 120}, {"time": 1947, "pitch": 76, "duration": 1, "velocity": 113}, {"time": 1950, "pitch": 76, "duration": 1, "velocity": 115}, {"time": 1953, "pitch": 76, "duration": 4, "velocity": 117}, {"time": 1959, "pitch": 74, "duration": 4, "velocity": 120}, {"time": 1965, "pitch": 74, "duration": 10, "velocity": 120}, {"time": 1977, "pitch": 71, "duration": 5, "velocity": 115}, {"time": 1983, "pitch": 69, "duration": 4, "velocity": 106}, {"time": 1989, "pitch": 71, "duration": 5, "velocity": 117}, {"time": 1995, "pitch": 74, "duration": 5, "velocity": 106}, {"time": 2001, "pitch": 69, "duration": 5, "velocity": 111}, {"time": 2007, "pitch": 67, "duration": 5, "velocity": 111}, {"time": 2013, "pitch": 64, "duration": 10, "velocity": 113}, {"time": 2025, "pitch": 71, "duration": 4, "velocity": 117}, {"time": 2031, "pitch": 74, "duration": 1, "velocity": 111}, {"time": 2034, "pitch": 76, "duration": 8, "velocity": 120}, {"time": 2043, "pitch": 76, "duration": 3, "velocity": 111}, {"time": 2049, "pitch": 76, "duration": 4, "velocity": 115}, {"time": 2055, "pitch": 74, "duration": 1, "velocity": 106}, {"time": 2058, "pitch": 76, "duration": 8, "velocity": 123}, {"time": 2067, "pitch": 74, "duration": 5, "velocity": 111}, {"time": 2073, "pitch": 71, "duration": 2, "velocity": 115}, {"time": 2076, "pitch": 69, "duration": 8, "velocity": 115}, {"time": 2082, "pitch": 71, "duration": 34, "velocity": 117}, {"time": 2121, "pitch": 71, "duration": 5, "velocity": 113}, {"time": 2127, "pitch": 74, "duration": 4, "velocity": 109}, {"time": 2133, "pitch": 76, "duration": 3, "velocity": 120}, {"time": 2139, "pitch": 76, "duration": 1, "velocity": 111}, {"time": 2142, "pitch": 76, "duration": 1, "velocity": 115}, {"time": 2145, "pitch": 76, "duration": 4, "velocity": 120}, {"time": 2151, "pitch": 74, "duration": 3, "velocity": 115}, {"time": 2157, "pitch": 74, "duration": 7, "velocity": 115}, {"time": 2169, "pitch": 71, "duration": 5, "velocity": 117}, {"time": 2175, "pitch": 69, "duration": 4, "velocity": 109}, {"time": 2181, "pitch": 71, "duration": 5, "velocity": 115}, {"time": 2187, "pitch": 74, "duration": 6, "velocity": 103}, {"time": 2193, "pitch": 69, "duration": 5, "velocity": 115}, {"time": 2199, "pitch": 67, "duration": 4, "velocity": 111}, {"time": 2205, "pitch": 64, "duration": 4, "velocity": 111}, {"time": 2217, "pitch": 62, "duration": 5, "velocity": 106}, {"time": 2223, "pitch": 64, "duration": 2, "velocity": 109}, {"time": 2226, "pitch": 67, "duration": 6, "velocity": 113}, {"time": 2235, "pitch": 67, "duration": 4, "velocity": 109}, {"time": 2241, "pitch": 67, "duration": 2, "velocity": 111}, {"time": 2244, "pitch": 71, "duration": 6, "velocity": 111}, {"time": 2253, "pitch": 69, "duration": 1, "velocity": 115}, {"time": 2256, "pitch": 69, "duration": 5, "velocity": 113}, {"time": 2262, "pitch": 69, "duration": 3, "velocity": 111}, {"time": 2265, "pitch": 67, "duration": 5, "velocity": 115}, {"time": 2271, "pitch": 64, "duration": 2, "velocity": 111}, {"time": 2274, "pitch": 67, "duration": 27, "velocity": 111}, {"time": 2313, "pitch": 71, "duration": 5, "velocity": 115}, {"time": 2319, "pitch": 74, "duration": 4, "velocity": 106}, {"time": 2325, "pitch": 76, "duration": 3, "velocity": 117}, {"time": 2331, "pitch": 76, "duration": 1, "velocity": 113}, {"time": 2334, "pitch": 76, "duration": 1, "velocity": 113}, {"time": 2337, "pitch": 76, "duration": 6, "velocity": 117}, {"time": 2343, "pitch": 79, "duration": 5, "velocity": 115}, {"time": 2349, "pitch": 74, "duration": 9, "velocity": 117}, {"time": 2361, "pitch": 71, "duration": 5, "velocity": 115}, {"time": 2367, "pitch": 69, "duration": 4, "velocity": 106}, {"time": 2373, "pitch": 71, "duration": 6, "velocity": 115}, {"time": 2379, "pitch": 74, "duration": 5, "velocity": 106}, {"time": 2385, "pitch": 69, "duration": 5, "velocity": 115}, {"time": 2391, "pitch": 67, "duration": 6, "velocity": 117}, {"time": 2397, "pitch": 64, "duration": 13, "velocity": 117}, {"time": 2409, "pitch": 71, "duration": 5, "velocity": 111}, {"time": 2415, "pitch": 74, "duration": 1, "velocity": 103}, {"time": 2418, "pitch": 76, "duration": 6, "velocity": 117}, {"time": 2427, "pitch": 76, "duration": 3, "velocity": 109}, {"time": 2433, "pitch": 76, "duration": 4, "velocity": 113}, {"time": 2439, "pitch": 74, "duration": 1, "velocity": 113}, {"time": 2442, "pitch": 76, "duration": 7, "velocity": 123}, {"time": 2451, "pitch": 79, "duration": 5, "velocity": 103}, {"time": 2457, "pitch": 71, "duration": 5, "velocity": 98}, {"time": 2463, "pitch": 69, "duration": 5, "velocity": 100}, {"time": 2469, "pitch": 71, "duration": 19, "velocity": 117}, {"time": 2505, "pitch": 79, "duration": 5, "velocity": 109}, {"time": 2511, "pitch": 78, "duration": 5, "velocity": 100}, {"time": 2517, "pitch": 76, "duration": 2, "velocity": 117}, {"time": 2523, "pitch": 74, "duration": 1, "velocity": 69}, {"time": 2523, "pitch": 76, "duration": 1, "velocity": 79}, {"time": 2526, "pitch": 76, "duration": 1, "velocity": 111}, {"time": 2529, "pitch": 76, "duration": 4, "velocity": 113}, {"time": 2535, "pitch": 74, "duration": 4, "velocity": 115}, {"time": 2541, "pitch": 74, "duration": 9, "velocity": 115}, {"time": 2553, "pitch": 71, "duration": 5, "velocity": 115}, {"time": 2559, "pitch": 69, "duration": 5, "velocity": 109}, {"time": 2565, "pitch": 71, "duration": 5, "velocity": 117}, {"time": 2571, "pitch": 74, "duration": 5, "velocity": 106}, {"time": 2577, "pitch": 69, "duration": 5, "velocity": 113}, {"time": 2583, "pitch": 67, "duration": 6, "velocity": 111}, {"time": 2589, "pitch": 64, "duration": 15, "velocity": 113}, {"time": 2601, "pitch": 62, "duration": 5, "velocity": 88}, {"time": 2607, "pitch": 64, "duration": 5, "velocity": 95}, {"time": 2610, "pitch": 67, "duration": 4, "velocity": 100}, {"time": 2619, "pitch": 67, "duration": 2, "velocity": 103}, {"time": 2625, "pitch": 67, "duration": 2, "velocity": 117}, {"time": 2628, "pitch": 71, "duration": 6, "velocity": 111}, {"time": 2637, "pitch": 69, "duration": 1, "velocity": 106}, {"time": 2640, "pitch": 69, "duration": 3, "velocity": 113}, {"time": 2646, "pitch": 69, "duration": 5, "velocity": 109}, {"time": 2649, "pitch": 67, "duration": 5, "velocity": 72}, {"time": 2655, "pitch": 64, "duration": 2, "velocity": 117}, {"time": 2658, "pitch": 67, "duration": 21, "velocity": 120}]}, {"program": 0, "is_drum": false, "name": "PIANO", "notes": [{"time": 21, "pitch": 43, "duration": 19, "velocity": 70}, {"time": 27, "pitch": 55, "duration": 7, "velocity": 22}, {"time": 33, "pitch": 62, "duration": 7, "velocity": 72}, {"time": 33, "pitch": 67, "duration": 5, "velocity": 67}, {"time": 33, "pitch": 71, "duration": 5, "velocity": 65}, {"time": 42, "pitch": 55, "duration": 3, "velocity": 48}, {"time": 45, "pitch": 45, "duration": 21, "velocity": 68}, {"time": 45, "pitch": 57, "duration": 11, "velocity": 71}, {"time": 45, "pitch": 60, "duration": 11, "velocity": 67}, {"time": 45, "pitch": 64, "duration": 5, "velocity": 69}, {"time": 51, "pitch": 52, "duration": 8, "velocity": 33}, {"time": 51, "pitch": 64, "duration": 2, "velocity": 100}, {"time": 57, "pitch": 62, "duration": 6, "velocity": 71}, {"time": 63, "pitch": 52, "duration": 6, "velocity": 42}, {"time": 69, "pitch": 47, "duration": 13, "velocity": 64}, {"time": 69, "pitch": 59, "duration": 14, "velocity": 69}, {"time": 69, "pitch": 62, "duration": 5, "velocity": 66}, {"time": 69, "pitch": 66, "duration": 5, "velocity": 61}, {"time": 75, "pitch": 62, "duration": 5, "velocity": 67}, {"time": 75, "pitch": 66, "duration": 5, "velocity": 82}, {"time": 81, "pitch": 62, "duration": 1, "velocity": 59}, {"time": 81, "pitch": 66, "duration": 1, "velocity": 71}, {"time": 87, "pitch": 52, "duration": 19, "velocity": 60}, {"time": 87, "pitch": 59, "duration": 11, "velocity": 76}, {"time": 87, "pitch": 64, "duration": 11, "velocity": 73}, {"time": 87, "pitch": 67, "duration": 10, "velocity": 71}, {"time": 99, "pitch": 64, "duration": 11, "velocity": 75}, {"time": 99, "pitch": 67, "duration": 9, "velocity": 100}, {"time": 99, "pitch": 59, "duration": 6, "velocity": 100}, {"time": 105, "pitch": 62, "duration": 4, "velocity": 64}, {"time": 111, "pitch": 47, "duration": 3, "velocity": 59}, {"time": 111, "pitch": 59, "duration": 4, "velocity": 78}, {"time": 117, "pitch": 48, "duration": 17, "velocity": 68}, {"time": 117, "pitch": 60, "duration": 11, "velocity": 73}, {"time": 117, "pitch": 64, "duration": 5, "velocity": 63}, {"time": 117, "pitch": 67, "duration": 6, "velocity": 66}, {"time": 123, "pitch": 55, "duration": 6, "velocity": 59}, {"time": 129, "pitch": 64, "duration": 5, "velocity": 72}, {"time": 135, "pitch": 48, "duration": 3, "velocity": 67}, {"time": 135, "pitch": 60, "duration": 7, "velocity": 70}, {"time": 138, "pitch": 62, "duration": 13, "velocity": 72}, {"time": 141, "pitch": 50, "duration": 11, "velocity": 66}, {"time": 141, "pitch": 57, "duration": 10, "velocity": 70}, {"time": 141, "pitch": 66, "duration": 10, "velocity": 62}, {"time": 153, "pitch": 50, "duration": 6, "velocity": 71}, {"time": 153, "pitch": 57, "duration": 6, "velocity": 77}, {"time": 153, "pitch": 62, "duration": 6, "velocity": 88}, {"time": 153, "pitch": 66, "duration": 6, "velocity": 71}, {"time": 159, "pitch": 38, "duration": 4, "velocity": 76}, {"time": 165, "pitch": 43, "duration": 44, "velocity": 58}, {"time": 165, "pitch": 62, "duration": 10, "velocity": 69}, {"time": 165, "pitch": 67, "duration": 10, "velocity": 63}, {"time": 165, "pitch": 71, "duration": 10, "velocity": 66}, {"time": 171, "pitch": 50, "duration": 35, "velocity": 43}, {"time": 177, "pitch": 55, "duration": 9, "velocity": 45}, {"time": 177, "pitch": 62, "duration": 11, "velocity": 72}, {"time": 177, "pitch": 67, "duration": 11, "velocity": 67}, {"time": 177, "pitch": 71, "duration": 10, "velocity": 66}, {"time": 189, "pitch": 62, "duration": 10, "velocity": 69}, {"time": 189, "pitch": 67, "duration": 11, "velocity": 71}, {"time": 189, "pitch": 71, "duration": 10, "velocity": 63}, {"time": 195, "pitch": 55, "duration": 7, "velocity": 66}, {"time": 201, "pitch": 64, "duration": 10, "velocity": 69}, {"time": 210, "pitch": 50, "duration": 2, "velocity": 57}, {"time": 213, "pitch": 43, "duration": 21, "velocity": 60}, {"time": 213, "pitch": 62, "duration": 11, "velocity": 68}, {"time": 213, "pitch": 67, "duration": 11, "velocity": 75}, {"time": 213, "pitch": 71, "duration": 11, "velocity": 72}, {"time": 219, "pitch": 50, "duration": 18, "velocity": 35}, {"time": 225, "pitch": 62, "duration": 7, "velocity": 72}, {"time": 225, "pitch": 67, "duration": 5, "velocity": 72}, {"time": 225, "pitch": 71, "duration": 5, "velocity": 71}, {"time": 231, "pitch": 55, "duration": 3, "velocity": 58}, {"time": 237, "pitch": 45, "duration": 17, "velocity": 65}, {"time": 237, "pitch": 57, "duration": 5, "velocity": 56}, {"time": 237, "pitch": 60, "duration": 5, "velocity": 58}, {"time": 237, "pitch": 64, "duration": 5, "velocity": 62}, {"time": 243, "pitch": 57, "duration": 9, "velocity": 65}, {"time": 243, "pitch": 60, "duration": 10, "velocity": 68}, {"time": 243, "pitch": 64, "duration": 8, "velocity": 71}, {"time": 255, "pitch": 47, "duration": 4, "velocity": 49}, {"time": 255, "pitch": 59, "duration": 4, "velocity": 63}, {"time": 255, "pitch": 62, "duration": 4, "velocity": 75}, {"time": 255, "pitch": 66, "duration": 4, "velocity": 78}, {"time": 261, "pitch": 47, "duration": 5, "velocity": 66}, {"time": 261, "pitch": 59, "duration": 4, "velocity": 78}, {"time": 261, "pitch": 62, "duration": 5, "velocity": 77}, {"time": 261, "pitch": 66, "duration": 5, "velocity": 82}, {"time": 267, "pitch": 47, "duration": 4, "velocity": 88}, {"time": 267, "pitch": 59, "duration": 4, "velocity": 73}, {"time": 267, "pitch": 62, "duration": 4, "velocity": 81}, {"time": 267, "pitch": 66, "duration": 5, "velocity": 82}, {"time": 273, "pitch": 47, "duration": 4, "velocity": 71}, {"time": 273, "pitch": 59, "duration": 2, "velocity": 75}, {"time": 273, "pitch": 62, "duration": 1, "velocity": 83}, {"time": 273, "pitch": 66, "duration": 1, "velocity": 82}, {"time": 279, "pitch": 52, "duration": 19, "velocity": 65}, {"time": 279, "pitch": 59, "duration": 10, "velocity": 82}, {"time": 279, "pitch": 64, "duration": 10, "velocity": 92}, {"time": 279, "pitch": 67, "duration": 10, "velocity": 86}, {"time": 291, "pitch": 59, "duration": 5, "velocity": 52}, {"time": 291, "pitch": 64, "duration": 5, "velocity": 59}, {"time": 291, "pitch": 67, "duration": 4, "velocity": 59}, {"time": 297, "pitch": 59, "duration": 5, "velocity": 70}, {"time": 297, "pitch": 64, "duration": 8, "velocity": 76}, {"time": 297, "pitch": 67, "duration": 7, "velocity": 74}, {"time": 300, "pitch": 52, "duration": 8, "velocity": 57}, {"time": 303, "pitch": 62, "duration": 5, "velocity": 74}, {"time": 309, "pitch": 48, "duration": 16, "velocity": 67}, {"time": 309, "pitch": 60, "duration": 11, "velocity": 83}, {"time": 309, "pitch": 64, "duration": 11, "velocity": 72}, {"time": 309, "pitch": 67, "duration": 11, "velocity": 66}, {"time": 315, "pitch": 55, "duration": 10, "velocity": 56}, {"time": 321, "pitch": 60, "duration": 6, "velocity": 73}, {"time": 321, "pitch": 64, "duration": 6, "velocity": 78}, {"time": 321, "pitch": 67, "duration": 5, "velocity": 78}, {"time": 327, "pitch": 48, "duration": 5, "velocity": 47}, {"time": 333, "pitch": 50, "duration": 16, "velocity": 57}, {"time": 333, "pitch": 57, "duration": 11, "velocity": 79}, {"time": 333, "pitch": 62, "duration": 10, "velocity": 77}, {"time": 333, "pitch": 66, "duration": 10, "velocity": 66}, {"time": 345, "pitch": 57, "duration": 10, "velocity": 78}, {"time": 345, "pitch": 62, "duration": 10, "velocity": 96}, {"time": 345, "pitch": 66, "duration": 10, "velocity": 93}, {"time": 351, "pitch": 50, "duration": 5, "velocity": 62}, {"time": 357, "pitch": 50, "duration": 15, "velocity": 68}, {"time": 357, "pitch": 57, "duration": 10, "velocity": 75}, {"time": 357, "pitch": 62, "duration": 10, "velocity": 77}, {"time": 357, "pitch": 66, "duration": 10, "velocity": 70}, {"time": 369, "pitch": 57, "duration": 11, "velocity": 76}, {"time": 369, "pitch": 62, "duration": 12, "velocity": 82}, {"time": 369, "pitch": 66, "duration": 12, "velocity": 72}, {"time": 375, "pitch": 50, "duration": 7, "velocity": 59}, {"time": 381, "pitch": 48, "duration": 8, "velocity": 73}, {"time": 381, "pitch": 60, "duration": 7, "velocity": 79}, {"time": 381, "pitch": 64, "duration": 8, "velocity": 73}, {"time": 381, "pitch": 67, "duration": 6, "velocity": 67}, {"time": 390, "pitch": 50, "duration": 8, "velocity": 61}, {"time": 390, "pitch": 62, "duration": 7, "velocity": 69}, {"time": 390, "pitch": 66, "duration": 7, "velocity": 77}, {"time": 390, "pitch": 69, "duration": 7, "velocity": 75}, {"time": 399, "pitch": 50, "duration": 7, "velocity": 65}, {"time": 399, "pitch": 62, "duration": 6, "velocity": 74}, {"time": 399, "pitch": 66, "duration": 6, "velocity": 74}, {"time": 399, "pitch": 69, "duration": 6, "velocity": 71}, {"time": 405, "pitch": 43, "duration": 17, "velocity": 75}, {"time": 411, "pitch": 55, "duration": 12, "velocity": 60}, {"time": 417, "pitch": 59, "duration": 7, "velocity": 75}, {"time": 423, "pitch": 67, "duration": 5, "velocity": 70}, {"time": 429, "pitch": 40, "duration": 39, "velocity": 69}, {"time": 429, "pitch": 52, "duration": 18, "velocity": 82}, {"time": 435, "pitch": 59, "duration": 9, "velocity": 12}, {"time": 435, "pitch": 64, "duration": 9, "velocity": 64}, {"time": 441, "pitch": 66, "duration": 12, "velocity": 62}, {"time": 447, "pitch": 74, "duration": 6, "velocity": 69}, {"time": 453, "pitch": 36, "duration": 15, "velocity": 98}, {"time": 453, "pitch": 48, "duration": 17, "velocity": 85}, {"time": 459, "pitch": 60, "duration": 12, "velocity": 64}, {"time": 462, "pitch": 64, "duration": 6, "velocity": 76}, {"time": 468, "pitch": 72, "duration": 6, "velocity": 98}, {"time": 471, "pitch": 64, "duration": 6, "velocity": 71}, {"time": 477, "pitch": 38, "duration": 24, "velocity": 91}, {"time": 477, "pitch": 50, "duration": 15, "velocity": 98}, {"time": 483, "pitch": 62, "duration": 7, "velocity": 51}, {"time": 489, "pitch": 66, "duration": 12, "velocity": 65}, {"time": 501, "pitch": 43, "duration": 20, "velocity": 73}, {"time": 501, "pitch": 43, "duration": 20, "velocity": 79}, {"time": 507, "pitch": 55, "duration": 15, "velocity": 56}, {"time": 513, "pitch": 59, "duration": 11, "velocity": 70}, {"time": 519, "pitch": 62, "duration": 3, "velocity": 53}, {"time": 525, "pitch": 40, "duration": 24, "velocity": 91}, {"time": 525, "pitch": 52, "duration": 22, "velocity": 82}, {"time": 531, "pitch": 64, "duration": 12, "velocity": 68}, {"time": 537, "pitch": 67, "duration": 12, "velocity": 71}, {"time": 546, "pitch": 76, "duration": 3, "velocity": 63}, {"time": 549, "pitch": 36, "duration": 23, "velocity": 71}, {"time": 549, "pitch": 48, "duration": 18, "velocity": 91}, {"time": 555, "pitch": 60, "duration": 15, "velocity": 60}, {"time": 558, "pitch": 64, "duration": 7, "velocity": 73}, {"time": 564, "pitch": 67, "duration": 3, "velocity": 64}, {"time": 567, "pitch": 64, "duration": 5, "velocity": 68}, {"time": 573, "pitch": 38, "duration": 22, "velocity": 88}, {"time": 573, "pitch": 50, "duration": 18, "velocity": 88}, {"time": 576, "pitch": 62, "duration": 10, "velocity": 68}, {"time": 579, "pitch": 66, "duration": 6, "velocity": 68}, {"time": 591, "pitch": 66, "duration": 7, "velocity": 69}, {"time": 597, "pitch": 47, "duration": 18, "velocity": 77}, {"time": 597, "pitch": 47, "duration": 18, "velocity": 91}, {"time": 603, "pitch": 54, "duration": 12, "velocity": 12}, {"time": 603, "pitch": 59, "duration": 13, "velocity": 82}, {"time": 606, "pitch": 62, "duration": 6, "velocity": 72}, {"time": 612, "pitch": 71, "duration": 6, "velocity": 85}, {"time": 618, "pitch": 62, "duration": 3, "velocity": 68}, {"time": 621, "pitch": 40, "duration": 23, "velocity": 85}, {"time": 621, "pitch": 52, "duration": 19, "velocity": 82}, {"time": 627, "pitch": 59, "duration": 10, "velocity": 6}, {"time": 627, "pitch": 64, "duration": 9, "velocity": 68}, {"time": 633, "pitch": 67, "duration": 12, "velocity": 88}, {"time": 639, "pitch": 71, "duration": 5, "velocity": 71}, {"time": 645, "pitch": 36, "duration": 24, "velocity": 60}, {"time": 645, "pitch": 48, "duration": 18, "velocity": 98}, {"time": 648, "pitch": 55, "duration": 8, "velocity": 65}, {"time": 651, "pitch": 60, "duration": 4, "velocity": 69}, {"time": 654, "pitch": 64, "duration": 5, "velocity": 95}, {"time": 657, "pitch": 55, "duration": 9, "velocity": 54}, {"time": 657, "pitch": 60, "duration": 7, "velocity": 75}, {"time": 660, "pitch": 72, "duration": 3, "velocity": 77}, {"time": 663, "pitch": 64, "duration": 5, "velocity": 88}, {"time": 666, "pitch": 67, "duration": 2, "velocity": 71}, {"time": 669, "pitch": 38, "duration": 24, "velocity": 63}, {"time": 669, "pitch": 50, "duration": 18, "velocity": 103}, {"time": 672, "pitch": 57, "duration": 13, "velocity": 60}, {"time": 675, "pitch": 62, "duration": 10, "velocity": 71}, {"time": 678, "pitch": 66, "duration": 7, "velocity": 95}, {"time": 684, "pitch": 74, "duration": 8, "velocity": 98}, {"time": 687, "pitch": 66, "duration": 6, "velocity": 69}, {"time": 693, "pitch": 47, "duration": 24, "velocity": 75}, {"time": 699, "pitch": 54, "duration": 12, "velocity": 12}, {"time": 699, "pitch": 59, "duration": 12, "velocity": 51}, {"time": 705, "pitch": 62, "duration": 11, "velocity": 72}, {"time": 705, "pitch": 66, "duration": 11, "velocity": 75}, {"time": 717, "pitch": 40, "duration": 24, "velocity": 72}, {"time": 717, "pitch": 52, "duration": 19, "velocity": 98}, {"time": 720, "pitch": 59, "duration": 13, "velocity": 71}, {"time": 723, "pitch": 64, "duration": 9, "velocity": 75}, {"time": 726, "pitch": 67, "duration": 3, "velocity": 76}, {"time": 729, "pitch": 76, "duration": 4, "velocity": 88}, {"time": 732, "pitch": 67, "duration": 4, "velocity": 68}, {"time": 735, "pitch": 71, "duration": 2, "velocity": 75}, {"time": 738, "pitch": 76, "duration": 3, "velocity": 65}, {"time": 741, "pitch": 36, "duration": 23, "velocity": 75}, {"time": 741, "pitch": 48, "duration": 18, "velocity": 109}, {"time": 744, "pitch": 55, "duration": 18, "velocity": 67}, {"time": 747, "pitch": 60, "duration": 3, "velocity": 88}, {"time": 750, "pitch": 64, "duration": 5, "velocity": 111}, {"time": 753, "pitch": 60, "duration": 8, "velocity": 73}, {"time": 756, "pitch": 72, "duration": 3, "velocity": 85}, {"time": 759, "pitch": 64, "duration": 6, "velocity": 95}, {"time": 762, "pitch": 67, "duration": 3, "velocity": 65}, {"time": 765, "pitch": 38, "duration": 45, "velocity": 88}, {"time": 765, "pitch": 50, "duration": 22, "velocity": 106}, {"time": 768, "pitch": 57, "duration": 7, "velocity": 71}, {"time": 771, "pitch": 62, "duration": 3, "velocity": 85}, {"time": 774, "pitch": 66, "duration": 6, "velocity": 109}, {"time": 777, "pitch": 57, "duration": 8, "velocity": 52}, {"time": 777, "pitch": 62, "duration": 7, "velocity": 91}, {"time": 780, "pitch": 69, "duration": 3, "velocity": 106}, {"time": 783, "pitch": 66, "duration": 4, "velocity": 109}, {"time": 786, "pitch": 69, "duration": 2, "velocity": 98}, {"time": 789, "pitch": 50, "duration": 7, "velocity": 91}, {"time": 789, "pitch": 74, "duration": 8, "velocity": 106}, {"time": 813, "pitch": 36, "duration": 23, "velocity": 79}, {"time": 813, "pitch": 48, "duration": 19, "velocity": 111}, {"time": 816, "pitch": 55, "duration": 7, "velocity": 73}, {"time": 819, "pitch": 60, "duration": 3, "velocity": 88}, {"time": 822, "pitch": 64, "duration": 4, "velocity": 113}, {"time": 825, "pitch": 55, "duration": 10, "velocity": 64}, {"time": 825, "pitch": 60, "duration": 9, "velocity": 100}, {"time": 828, "pitch": 72, "duration": 2, "velocity": 109}, {"time": 831, "pitch": 64, "duration": 5, "velocity": 109}, {"time": 834, "pitch": 67, "duration": 2, "velocity": 103}, {"time": 837, "pitch": 38, "duration": 23, "velocity": 77}, {"time": 837, "pitch": 50, "duration": 18, "velocity": 109}, {"time": 840, "pitch": 57, "duration": 7, "velocity": 91}, {"time": 843, "pitch": 62, "duration": 3, "velocity": 91}, {"time": 846, "pitch": 66, "duration": 6, "velocity": 109}, {"time": 849, "pitch": 57, "duration": 3, "velocity": 64}, {"time": 849, "pitch": 62, "duration": 3, "velocity": 95}, {"time": 852, "pitch": 74, "duration": 3, "velocity": 106}, {"time": 855, "pitch": 66, "duration": 6, "velocity": 95}, {"time": 858, "pitch": 69, "duration": 2, "velocity": 77}, {"time": 861, "pitch": 47, "duration": 24, "velocity": 75}, {"time": 864, "pitch": 54, "duration": 8, "velocity": 70}, {"time": 867, "pitch": 59, "duration": 4, "velocity": 77}, {"time": 870, "pitch": 62, "duration": 6, "velocity": 109}, {"time": 873, "pitch": 54, "duration": 3, "velocity": 55}, {"time": 873, "pitch": 59, "duration": 3, "velocity": 85}, {"time": 876, "pitch": 71, "duration": 3, "velocity": 98}, {"time": 879, "pitch": 62, "duration": 6, "velocity": 82}, {"time": 882, "pitch": 66, "duration": 2, "velocity": 72}, {"time": 885, "pitch": 40, "duration": 19, "velocity": 71}, {"time": 885, "pitch": 40, "duration": 19, "velocity": 111}, {"time": 888, "pitch": 47, "duration": 8, "velocity": 65}, {"time": 891, "pitch": 52, "duration": 4, "velocity": 64}, {"time": 894, "pitch": 55, "duration": 6, "velocity": 98}, {"time": 897, "pitch": 47, "duration": 8, "velocity": 49}, {"time": 897, "pitch": 52, "duration": 9, "velocity": 77}, {"time": 900, "pitch": 64, "duration": 3, "velocity": 91}, {"time": 903, "pitch": 55, "duration": 5, "velocity": 77}, {"time": 906, "pitch": 59, "duration": 3, "velocity": 75}, {"time": 909, "pitch": 36, "duration": 24, "velocity": 79}, {"time": 909, "pitch": 48, "duration": 23, "velocity": 109}, {"time": 912, "pitch": 55, "duration": 7, "velocity": 76}, {"time": 915, "pitch": 60, "duration": 3, "velocity": 68}, {"time": 918, "pitch": 64, "duration": 6, "velocity": 100}, {"time": 921, "pitch": 55, "duration": 10, "velocity": 44}, {"time": 921, "pitch": 60, "duration": 10, "velocity": 100}, {"time": 924, "pitch": 72, "duration": 3, "velocity": 100}, {"time": 927, "pitch": 64, "duration": 6, "velocity": 91}, {"time": 930, "pitch": 67, "duration": 2, "velocity": 69}, {"time": 933, "pitch": 38, "duration": 23, "velocity": 88}, {"time": 933, "pitch": 50, "duration": 16, "velocity": 111}, {"time": 936, "pitch": 57, "duration": 7, "velocity": 88}, {"time": 939, "pitch": 62, "duration": 3, "velocity": 79}, {"time": 942, "pitch": 66, "duration": 5, "velocity": 106}, {"time": 945, "pitch": 57, "duration": 2, "velocity": 61}, {"time": 945, "pitch": 62, "duration": 2, "velocity": 88}, {"time": 948, "pitch": 74, "duration": 2, "velocity": 103}, {"time": 951, "pitch": 66, "duration": 5, "velocity": 95}, {"time": 954, "pitch": 69, "duration": 2, "velocity": 82}, {"time": 957, "pitch": 43, "duration": 48, "velocity": 85}, {"time": 960, "pitch": 50, "duration": 6, "velocity": 68}, {"time": 963, "pitch": 55, "duration": 3, "velocity": 75}, {"time": 966, "pitch": 59, "duration": 7, "velocity": 117}, {"time": 969, "pitch": 50, "duration": 22, "velocity": 73}, {"time": 972, "pitch": 55, "duration": 3, "velocity": 76}, {"time": 975, "pitch": 59, "duration": 1, "velocity": 68}, {"time": 975, "pitch": 62, "duration": 9, "velocity": 113}, {"time": 978, "pitch": 55, "duration": 7, "velocity": 98}, {"time": 984, "pitch": 67, "duration": 5, "velocity": 111}, {"time": 987, "pitch": 55, "duration": 3, "velocity": 77}, {"time": 990, "pitch": 59, "duration": 4, "velocity": 88}, {"time": 993, "pitch": 50, "duration": 10, "velocity": 59}, {"time": 993, "pitch": 55, "duration": 10, "velocity": 77}, {"time": 996, "pitch": 62, "duration": 2, "velocity": 63}, {"time": 999, "pitch": 59, "duration": 5, "velocity": 82}, {"time": 1002, "pitch": 62, "duration": 2, "velocity": 75}, {"time": 1005, "pitch": 36, "duration": 23, "velocity": 95}, {"time": 1005, "pitch": 48, "duration": 18, "velocity": 109}, {"time": 1008, "pitch": 55, "duration": 7, "velocity": 68}, {"time": 1011, "pitch": 60, "duration": 3, "velocity": 75}, {"time": 1014, "pitch": 64, "duration": 5, "velocity": 98}, {"time": 1017, "pitch": 55, "duration": 8, "velocity": 54}, {"time": 1017, "pitch": 60, "duration": 7, "velocity": 88}, {"time": 1020, "pitch": 72, "duration": 2, "velocity": 100}, {"time": 1023, "pitch": 67, "duration": 2, "velocity": 75}, {"time": 1026, "pitch": 64, "duration": 3, "velocity": 75}, {"time": 1029, "pitch": 38, "duration": 23, "velocity": 79}, {"time": 1029, "pitch": 50, "duration": 19, "velocity": 100}, {"time": 1032, "pitch": 57, "duration": 7, "velocity": 67}, {"time": 1035, "pitch": 62, "duration": 3, "velocity": 68}, {"time": 1038, "pitch": 66, "duration": 5, "velocity": 100}, {"time": 1041, "pitch": 57, "duration": 4, "velocity": 53}, {"time": 1041, "pitch": 62, "duration": 3, "velocity": 76}, {"time": 1044, "pitch": 74, "duration": 4, "velocity": 100}, {"time": 1047, "pitch": 69, "duration": 2, "velocity": 68}, {"time": 1050, "pitch": 66, "duration": 3, "velocity": 75}, {"time": 1053, "pitch": 47, "duration": 20, "velocity": 91}, {"time": 1053, "pitch": 47, "duration": 20, "velocity": 100}, {"time": 1056, "pitch": 54, "duration": 7, "velocity": 55}, {"time": 1059, "pitch": 59, "duration": 3, "velocity": 63}, {"time": 1062, "pitch": 62, "duration": 5, "velocity": 100}, {"time": 1065, "pitch": 59, "duration": 2, "velocity": 69}, {"time": 1068, "pitch": 71, "duration": 4, "velocity": 91}, {"time": 1071, "pitch": 62, "duration": 6, "velocity": 75}, {"time": 1074, "pitch": 66, "duration": 2, "velocity": 73}, {"time": 1077, "pitch": 40, "duration": 22, "velocity": 85}, {"time": 1080, "pitch": 47, "duration": 16, "velocity": 62}, {"time": 1083, "pitch": 52, "duration": 3, "velocity": 67}, {"time": 1086, "pitch": 55, "duration": 5, "velocity": 85}, {"time": 1089, "pitch": 52, "duration": 8, "velocity": 73}, {"time": 1092, "pitch": 64, "duration": 3, "velocity": 76}, {"time": 1095, "pitch": 55, "duration": 5, "velocity": 68}, {"time": 1098, "pitch": 59, "duration": 2, "velocity": 66}, {"time": 1101, "pitch": 36, "duration": 23, "velocity": 67}, {"time": 1101, "pitch": 48, "duration": 19, "velocity": 79}, {"time": 1104, "pitch": 55, "duration": 7, "velocity": 75}, {"time": 1107, "pitch": 60, "duration": 3, "velocity": 72}, {"time": 1110, "pitch": 64, "duration": 5, "velocity": 98}, {"time": 1113, "pitch": 55, "duration": 10, "velocity": 37}, {"time": 1113, "pitch": 60, "duration": 8, "velocity": 69}, {"time": 1116, "pitch": 72, "duration": 3, "velocity": 95}, {"time": 1119, "pitch": 64, "duration": 5, "velocity": 75}, {"time": 1122, "pitch": 67, "duration": 2, "velocity": 72}, {"time": 1125, "pitch": 38, "duration": 24, "velocity": 75}, {"time": 1125, "pitch": 50, "duration": 17, "velocity": 100}, {"time": 1128, "pitch": 57, "duration": 7, "velocity": 67}, {"time": 1131, "pitch": 62, "duration": 3, "velocity": 69}, {"time": 1134, "pitch": 66, "duration": 6, "velocity": 100}, {"time": 1137, "pitch": 57, "duration": 2, "velocity": 57}, {"time": 1137, "pitch": 62, "duration": 3, "velocity": 91}, {"time": 1140, "pitch": 74, "duration": 3, "velocity": 100}, {"time": 1143, "pitch": 66, "duration": 5, "velocity": 75}, {"time": 1146, "pitch": 69, "duration": 2, "velocity": 62}, {"time": 1149, "pitch": 43, "duration": 20, "velocity": 82}, {"time": 1149, "pitch": 62, "duration": 11, "velocity": 85}, {"time": 1149, "pitch": 67, "duration": 10, "velocity": 81}, {"time": 1149, "pitch": 71, "duration": 10, "velocity": 71}, {"time": 1155, "pitch": 50, "duration": 7, "velocity": 36}, {"time": 1161, "pitch": 55, "duration": 8, "velocity": 81}, {"time": 1161, "pitch": 62, "duration": 7, "velocity": 70}, {"time": 1161, "pitch": 67, "duration": 5, "velocity": 89}, {"time": 1161, "pitch": 71, "duration": 5, "velocity": 88}, {"time": 1167, "pitch": 50, "duration": 6, "velocity": 64}, {"time": 1173, "pitch": 45, "duration": 2, "velocity": 62}, {"time": 1173, "pitch": 57, "duration": 1, "velocity": 72}, {"time": 1173, "pitch": 60, "duration": 1, "velocity": 66}, {"time": 1173, "pitch": 64, "duration": 2, "velocity": 69}, {"time": 1179, "pitch": 45, "duration": 9, "velocity": 81}, {"time": 1179, "pitch": 57, "duration": 8, "velocity": 79}, {"time": 1179, "pitch": 60, "duration": 8, "velocity": 88}, {"time": 1179, "pitch": 64, "duration": 7, "velocity": 82}, {"time": 1191, "pitch": 47, "duration": 11, "velocity": 68}, {"time": 1191, "pitch": 59, "duration": 10, "velocity": 72}, {"time": 1191, "pitch": 62, "duration": 10, "velocity": 88}, {"time": 1191, "pitch": 66, "duration": 10, "velocity": 88}, {"time": 1203, "pitch": 47, "duration": 4, "velocity": 82}, {"time": 1203, "pitch": 59, "duration": 4, "velocity": 74}, {"time": 1203, "pitch": 62, "duration": 4, "velocity": 77}, {"time": 1203, "pitch": 66, "duration": 4, "velocity": 75}, {"time": 1209, "pitch": 47, "duration": 3, "velocity": 82}, {"time": 1209, "pitch": 59, "duration": 2, "velocity": 72}, {"time": 1209, "pitch": 62, "duration": 2, "velocity": 79}, {"time": 1209, "pitch": 66, "duration": 2, "velocity": 78}, {"time": 1215, "pitch": 52, "duration": 20, "velocity": 67}, {"time": 1215, "pitch": 59, "duration": 10, "velocity": 82}, {"time": 1215, "pitch": 64, "duration": 10, "velocity": 79}, {"time": 1215, "pitch": 67, "duration": 10, "velocity": 76}, {"time": 1227, "pitch": 59, "duration": 5, "velocity": 63}, {"time": 1227, "pitch": 64, "duration": 5, "velocity": 59}, {"time": 1227, "pitch": 67, "duration": 5, "velocity": 60}, {"time": 1233, "pitch": 59, "duration": 7, "velocity": 71}, {"time": 1233, "pitch": 64, "duration": 6, "velocity": 86}, {"time": 1233, "pitch": 67, "duration": 7, "velocity": 83}, {"time": 1239, "pitch": 52, "duration": 6, "velocity": 65}, {"time": 1245, "pitch": 48, "duration": 18, "velocity": 65}, {"time": 1245, "pitch": 60, "duration": 7, "velocity": 75}, {"time": 1245, "pitch": 64, "duration": 11, "velocity": 72}, {"time": 1245, "pitch": 67, "duration": 8, "velocity": 71}, {"time": 1251, "pitch": 55, "duration": 18, "velocity": 82}, {"time": 1257, "pitch": 64, "duration": 7, "velocity": 77}, {"time": 1257, "pitch": 67, "duration": 7, "velocity": 85}, {"time": 1263, "pitch": 60, "duration": 4, "velocity": 71}, {"time": 1269, "pitch": 50, "duration": 15, "velocity": 62}, {"time": 1269, "pitch": 62, "duration": 10, "velocity": 78}, {"time": 1269, "pitch": 66, "duration": 10, "velocity": 83}, {"time": 1281, "pitch": 57, "duration": 6, "velocity": 88}, {"time": 1281, "pitch": 62, "duration": 6, "velocity": 89}, {"time": 1281, "pitch": 66, "duration": 6, "velocity": 77}, {"time": 1287, "pitch": 50, "duration": 5, "velocity": 74}, {"time": 1293, "pitch": 43, "duration": 22, "velocity": 72}, {"time": 1293, "pitch": 62, "duration": 10, "velocity": 83}, {"time": 1293, "pitch": 67, "duration": 10, "velocity": 70}, {"time": 1293, "pitch": 71, "duration": 10, "velocity": 69}, {"time": 1299, "pitch": 50, "duration": 7, "velocity": 44}, {"time": 1305, "pitch": 55, "duration": 25, "velocity": 70}, {"time": 1305, "pitch": 62, "duration": 11, "velocity": 62}, {"time": 1305, "pitch": 67, "duration": 11, "velocity": 72}, {"time": 1305, "pitch": 71, "duration": 10, "velocity": 69}, {"time": 1311, "pitch": 50, "duration": 6, "velocity": 36}, {"time": 1317, "pitch": 43, "duration": 18, "velocity": 66}, {"time": 1317, "pitch": 62, "duration": 10, "velocity": 62}, {"time": 1317, "pitch": 67, "duration": 10, "velocity": 59}, {"time": 1317, "pitch": 71, "duration": 10, "velocity": 61}, {"time": 1323, "pitch": 50, "duration": 18, "velocity": 41}, {"time": 1329, "pitch": 67, "duration": 7, "velocity": 92}, {"time": 1329, "pitch": 71, "duration": 7, "velocity": 90}, {"time": 1332, "pitch": 55, "duration": 3, "velocity": 77}, {"time": 1335, "pitch": 62, "duration": 4, "velocity": 83}, {"time": 1341, "pitch": 43, "duration": 19, "velocity": 64}, {"time": 1341, "pitch": 55, "duration": 11, "velocity": 66}, {"time": 1341, "pitch": 59, "duration": 8, "velocity": 67}, {"time": 1341, "pitch": 62, "duration": 7, "velocity": 63}, {"time": 1347, "pitch": 50, "duration": 8, "velocity": 46}, {"time": 1353, "pitch": 55, "duration": 7, "velocity": 70}, {"time": 1353, "pitch": 59, "duration": 11, "velocity": 73}, {"time": 1353, "pitch": 62, "duration": 6, "velocity": 77}, {"time": 1359, "pitch": 50, "duration": 7, "velocity": 39}, {"time": 1365, "pitch": 45, "duration": 2, "velocity": 52}, {"time": 1365, "pitch": 57, "duration": 1, "velocity": 55}, {"time": 1365, "pitch": 60, "duration": 2, "velocity": 60}, {"time": 1365, "pitch": 64, "duration": 1, "velocity": 59}, {"time": 1371, "pitch": 45, "duration": 13, "velocity": 76}, {"time": 1371, "pitch": 57, "duration": 10, "velocity": 73}, {"time": 1371, "pitch": 60, "duration": 10, "velocity": 86}, {"time": 1371, "pitch": 64, "duration": 10, "velocity": 79}, {"time": 1377, "pitch": 52, "duration": 8, "velocity": 66}, {"time": 1383, "pitch": 57, "duration": 2, "velocity": 70}, {"time": 1383, "pitch": 60, "duration": 1, "velocity": 63}, {"time": 1383, "pitch": 64, "duration": 1, "velocity": 59}, {"time": 1389, "pitch": 47, "duration": 4, "velocity": 58}, {"time": 1389, "pitch": 59, "duration": 4, "velocity": 48}, {"time": 1389, "pitch": 62, "duration": 4, "velocity": 56}, {"time": 1389, "pitch": 66, "duration": 4, "velocity": 45}, {"time": 1395, "pitch": 47, "duration": 7, "velocity": 69}, {"time": 1395, "pitch": 59, "duration": 5, "velocity": 71}, {"time": 1395, "pitch": 62, "duration": 5, "velocity": 65}, {"time": 1395, "pitch": 66, "duration": 5, "velocity": 63}, {"time": 1401, "pitch": 59, "duration": 2, "velocity": 69}, {"time": 1401, "pitch": 62, "duration": 1, "velocity": 77}, {"time": 1401, "pitch": 66, "duration": 2, "velocity": 79}, {"time": 1407, "pitch": 52, "duration": 21, "velocity": 58}, {"time": 1407, "pitch": 59, "duration": 10, "velocity": 82}, {"time": 1407, "pitch": 64, "duration": 10, "velocity": 86}, {"time": 1407, "pitch": 67, "duration": 10, "velocity": 83}, {"time": 1419, "pitch": 59, "duration": 5, "velocity": 59}, {"time": 1419, "pitch": 64, "duration": 5, "velocity": 67}, {"time": 1419, "pitch": 67, "duration": 5, "velocity": 60}, {"time": 1425, "pitch": 59, "duration": 7, "velocity": 82}, {"time": 1425, "pitch": 64, "duration": 6, "velocity": 76}, {"time": 1425, "pitch": 67, "duration": 10, "velocity": 69}, {"time": 1431, "pitch": 52, "duration": 6, "velocity": 43}, {"time": 1437, "pitch": 48, "duration": 15, "velocity": 66}, {"time": 1437, "pitch": 60, "duration": 7, "velocity": 81}, {"time": 1437, "pitch": 64, "duration": 7, "velocity": 70}, {"time": 1437, "pitch": 67, "duration": 7, "velocity": 72}, {"time": 1443, "pitch": 55, "duration": 7, "velocity": 47}, {"time": 1449, "pitch": 60, "duration": 6, "velocity": 75}, {"time": 1449, "pitch": 64, "duration": 5, "velocity": 76}, {"time": 1449, "pitch": 67, "duration": 5, "velocity": 71}, {"time": 1455, "pitch": 48, "duration": 6, "velocity": 72}, {"time": 1461, "pitch": 50, "duration": 22, "velocity": 64}, {"time": 1461, "pitch": 57, "duration": 10, "velocity": 71}, {"time": 1461, "pitch": 62, "duration": 10, "velocity": 77}, {"time": 1461, "pitch": 66, "duration": 7, "velocity": 67}, {"time": 1473, "pitch": 57, "duration": 11, "velocity": 79}, {"time": 1473, "pitch": 62, "duration": 11, "velocity": 88}, {"time": 1473, "pitch": 66, "duration": 11, "velocity": 77}, {"time": 1485, "pitch": 50, "duration": 8, "velocity": 82}, {"time": 1485, "pitch": 62, "duration": 8, "velocity": 85}, {"time": 1485, "pitch": 66, "duration": 7, "velocity": 83}, {"time": 1485, "pitch": 69, "duration": 7, "velocity": 68}, {"time": 1494, "pitch": 55, "duration": 7, "velocity": 66}, {"time": 1494, "pitch": 62, "duration": 7, "velocity": 74}, {"time": 1494, "pitch": 67, "duration": 7, "velocity": 93}, {"time": 1494, "pitch": 71, "duration": 3, "velocity": 89}, {"time": 1503, "pitch": 54, "duration": 5, "velocity": 90}, {"time": 1503, "pitch": 66, "duration": 4, "velocity": 64}, {"time": 1503, "pitch": 69, "duration": 4, "velocity": 68}, {"time": 1509, "pitch": 48, "duration": 10, "velocity": 66}, {"time": 1509, "pitch": 60, "duration": 10, "velocity": 83}, {"time": 1509, "pitch": 64, "duration": 11, "velocity": 79}, {"time": 1509, "pitch": 67, "duration": 10, "velocity": 72}, {"time": 1521, "pitch": 50, "duration": 4, "velocity": 65}, {"time": 1521, "pitch": 62, "duration": 5, "velocity": 72}, {"time": 1521, "pitch": 66, "duration": 5, "velocity": 74}, {"time": 1521, "pitch": 69, "duration": 4, "velocity": 82}, {"time": 1527, "pitch": 50, "duration": 6, "velocity": 73}, {"time": 1527, "pitch": 62, "duration": 5, "velocity": 76}, {"time": 1527, "pitch": 66, "duration": 5, "velocity": 77}, {"time": 1527, "pitch": 69, "duration": 6, "velocity": 72}, {"time": 1533, "pitch": 43, "duration": 17, "velocity": 75}, {"time": 1539, "pitch": 55, "duration": 12, "velocity": 60}, {"time": 1545, "pitch": 59, "duration": 7, "velocity": 75}, {"time": 1551, "pitch": 67, "duration": 5, "velocity": 70}, {"time": 1557, "pitch": 40, "duration": 39, "velocity": 69}, {"time": 1557, "pitch": 52, "duration": 18, "velocity": 82}, {"time": 1563, "pitch": 59, "duration": 9, "velocity": 12}, {"time": 1563, "pitch": 64, "duration": 9, "velocity": 64}, {"time": 1569, "pitch": 66, "duration": 12, "velocity": 62}, {"time": 1575, "pitch": 74, "duration": 6, "velocity": 69}, {"time": 1581, "pitch": 36, "duration": 15, "velocity": 98}, {"time": 1581, "pitch": 48, "duration": 17, "velocity": 85}, {"time": 1587, "pitch": 60, "duration": 12, "velocity": 64}, {"time": 1590, "pitch": 64, "duration": 6, "velocity": 76}, {"time": 1596, "pitch": 72, "duration": 6, "velocity": 98}, {"time": 1599, "pitch": 64, "duration": 6, "velocity": 71}, {"time": 1605, "pitch": 38, "duration": 24, "velocity": 91}, {"time": 1605, "pitch": 50, "duration": 15, "velocity": 98}, {"time": 1611, "pitch": 62, "duration": 7, "velocity": 51}, {"time": 1617, "pitch": 66, "duration": 12, "velocity": 65}, {"time": 1629, "pitch": 43, "duration": 20, "velocity": 73}, {"time": 1629, "pitch": 43, "duration": 20, "velocity": 79}, {"time": 1635, "pitch": 55, "duration": 15, "velocity": 56}, {"time": 1641, "pitch": 59, "duration": 11, "velocity": 70}, {"time": 1647, "pitch": 62, "duration": 3, "velocity": 53}, {"time": 1653, "pitch": 40, "duration": 24, "velocity": 91}, {"time": 1653, "pitch": 52, "duration": 22, "velocity": 82}, {"time": 1659, "pitch": 64, "duration": 12, "velocity": 68}, {"time": 1665, "pitch": 67, "duration": 12, "velocity": 71}, {"time": 1674, "pitch": 76, "duration": 3, "velocity": 63}, {"time": 1677, "pitch": 36, "duration": 23, "velocity": 71}, {"time": 1677, "pitch": 48, "duration": 18, "velocity": 91}, {"time": 1683, "pitch": 60, "duration": 15, "velocity": 60}, {"time": 1686, "pitch": 64, "duration": 7, "velocity": 73}, {"time": 1692, "pitch": 67, "duration": 3, "velocity": 64}, {"time": 1695, "pitch": 64, "duration": 5, "velocity": 68}, {"time": 1701, "pitch": 38, "duration": 25, "velocity": 88}, {"time": 1701, "pitch": 50, "duration": 18, "velocity": 88}, {"time": 1704, "pitch": 62, "duration": 10, "velocity": 68}, {"time": 1707, "pitch": 66, "duration": 6, "velocity": 68}, {"time": 1719, "pitch": 66, "duration": 7, "velocity": 69}, {"time": 1725, "pitch": 47, "duration": 18, "velocity": 77}, {"time": 1725, "pitch": 47, "duration": 18, "velocity": 91}, {"time": 1731, "pitch": 54, "duration": 12, "velocity": 12}, {"time": 1731, "pitch": 59, "duration": 13, "velocity": 82}, {"time": 1734, "pitch": 62, "duration": 6, "velocity": 72}, {"time": 1740, "pitch": 71, "duration": 6, "velocity": 85}, {"time": 1746, "pitch": 62, "duration": 3, "velocity": 68}, {"time": 1749, "pitch": 40, "duration": 23, "velocity": 85}, {"time": 1749, "pitch": 52, "duration": 19, "velocity": 82}, {"time": 1755, "pitch": 59, "duration": 10, "velocity": 6}, {"time": 1755, "pitch": 64, "duration": 9, "velocity": 68}, {"time": 1761, "pitch": 67, "duration": 12, "velocity": 88}, {"time": 1767, "pitch": 71, "duration": 5, "velocity": 71}, {"time": 1773, "pitch": 36, "duration": 24, "velocity": 60}, {"time": 1773, "pitch": 48, "duration": 18, "velocity": 98}, {"time": 1776, "pitch": 55, "duration": 8, "velocity": 65}, {"time": 1779, "pitch": 60, "duration": 4, "velocity": 69}, {"time": 1782, "pitch": 64, "duration": 5, "velocity": 95}, {"time": 1785, "pitch": 55, "duration": 9, "velocity": 54}, {"time": 1785, "pitch": 60, "duration": 7, "velocity": 75}, {"time": 1788, "pitch": 72, "duration": 3, "velocity": 77}, {"time": 1791, "pitch": 64, "duration": 5, "velocity": 88}, {"time": 1794, "pitch": 67, "duration": 2, "velocity": 71}, {"time": 1797, "pitch": 38, "duration": 24, "velocity": 63}, {"time": 1797, "pitch": 50, "duration": 18, "velocity": 103}, {"time": 1800, "pitch": 57, "duration": 13, "velocity": 60}, {"time": 1803, "pitch": 62, "duration": 10, "velocity": 71}, {"time": 1806, "pitch": 66, "duration": 7, "velocity": 95}, {"time": 1812, "pitch": 74, "duration": 8, "velocity": 98}, {"time": 1815, "pitch": 66, "duration": 6, "velocity": 69}, {"time": 1821, "pitch": 47, "duration": 24, "velocity": 75}, {"time": 1827, "pitch": 54, "duration": 12, "velocity": 12}, {"time": 1827, "pitch": 59, "duration": 12, "velocity": 51}, {"time": 1833, "pitch": 62, "duration": 11, "velocity": 72}, {"time": 1833, "pitch": 66, "duration": 11, "velocity": 75}, {"time": 1845, "pitch": 40, "duration": 24, "velocity": 72}, {"time": 1845, "pitch": 52, "duration": 19, "velocity": 98}, {"time": 1848, "pitch": 59, "duration": 13, "velocity": 71}, {"time": 1851, "pitch": 64, "duration": 9, "velocity": 75}, {"time": 1854, "pitch": 67, "duration": 3, "velocity": 76}, {"time": 1857, "pitch": 76, "duration": 4, "velocity": 88}, {"time": 1860, "pitch": 67, "duration": 4, "velocity": 68}, {"time": 1863, "pitch": 71, "duration": 2, "velocity": 75}, {"time": 1866, "pitch": 76, "duration": 3, "velocity": 65}, {"time": 1869, "pitch": 36, "duration": 23, "velocity": 75}, {"time": 1869, "pitch": 48, "duration": 18, "velocity": 109}, {"time": 1872, "pitch": 55, "duration": 18, "velocity": 67}, {"time": 1875, "pitch": 60, "duration": 3, "velocity": 88}, {"time": 1878, "pitch": 64, "duration": 5, "velocity": 111}, {"time": 1881, "pitch": 60, "duration": 8, "velocity": 73}, {"time": 1884, "pitch": 72, "duration": 3, "velocity": 85}, {"time": 1887, "pitch": 64, "duration": 6, "velocity": 95}, {"time": 1890, "pitch": 67, "duration": 3, "velocity": 65}, {"time": 1893, "pitch": 38, "duration": 45, "velocity": 88}, {"time": 1893, "pitch": 50, "duration": 22, "velocity": 106}, {"time": 1896, "pitch": 57, "duration": 7, "velocity": 71}, {"time": 1899, "pitch": 62, "duration": 3, "velocity": 85}, {"time": 1902, "pitch": 66, "duration": 6, "velocity": 109}, {"time": 1905, "pitch": 57, "duration": 8, "velocity": 52}, {"time": 1905, "pitch": 62, "duration": 7, "velocity": 91}, {"time": 1908, "pitch": 69, "duration": 3, "velocity": 106}, {"time": 1911, "pitch": 66, "duration": 4, "velocity": 109}, {"time": 1914, "pitch": 69, "duration": 2, "velocity": 98}, {"time": 1917, "pitch": 50, "duration": 7, "velocity": 91}, {"time": 1917, "pitch": 74, "duration": 8, "velocity": 106}, {"time": 1941, "pitch": 36, "duration": 23, "velocity": 79}, {"time": 1941, "pitch": 48, "duration": 19, "velocity": 111}, {"time": 1944, "pitch": 55, "duration": 7, "velocity": 73}, {"time": 1947, "pitch": 60, "duration": 3, "velocity": 88}, {"time": 1950, "pitch": 64, "duration": 4, "velocity": 113}, {"time": 1953, "pitch": 55, "duration": 10, "velocity": 64}, {"time": 1953, "pitch": 60, "duration": 9, "velocity": 100}, {"time": 1956, "pitch": 72, "duration": 2, "velocity": 109}, {"time": 1959, "pitch": 64, "duration": 5, "velocity": 109}, {"time": 1962, "pitch": 67, "duration": 2, "velocity": 103}, {"time": 1965, "pitch": 38, "duration": 23, "velocity": 77}, {"time": 1965, "pitch": 50, "duration": 18, "velocity": 109}, {"time": 1968, "pitch": 57, "duration": 7, "velocity": 91}, {"time": 1971, "pitch": 62, "duration": 3, "velocity": 91}, {"time": 1974, "pitch": 66, "duration": 6, "velocity": 109}, {"time": 1977, "pitch": 57, "duration": 3, "velocity": 64}, {"time": 1977, "pitch": 62, "duration": 3, "velocity": 95}, {"time": 1980, "pitch": 74, "duration": 3, "velocity": 106}, {"time": 1983, "pitch": 66, "duration": 6, "velocity": 95}, {"time": 1986, "pitch": 69, "duration": 2, "velocity": 77}, {"time": 1989, "pitch": 47, "duration": 24, "velocity": 75}, {"time": 1992, "pitch": 54, "duration": 8, "velocity": 70}, {"time": 1995, "pitch": 59, "duration": 4, "velocity": 77}, {"time": 1998, "pitch": 62, "duration": 6, "velocity": 109}, {"time": 2001, "pitch": 54, "duration": 3, "velocity": 55}, {"time": 2001, "pitch": 59, "duration": 3, "velocity": 85}, {"time": 2004, "pitch": 71, "duration": 3, "velocity": 98}, {"time": 2007, "pitch": 62, "duration": 6, "velocity": 82}, {"time": 2010, "pitch": 66, "duration": 2, "velocity": 72}, {"time": 2013, "pitch": 40, "duration": 19, "velocity": 71}, {"time": 2013, "pitch": 40, "duration": 19, "velocity": 111}, {"time": 2016, "pitch": 47, "duration": 8, "velocity": 65}, {"time": 2019, "pitch": 52, "duration": 4, "velocity": 64}, {"time": 2022, "pitch": 55, "duration": 6, "velocity": 98}, {"time": 2025, "pitch": 47, "duration": 8, "velocity": 49}, {"time": 2025, "pitch": 52, "duration": 9, "velocity": 77}, {"time": 2028, "pitch": 64, "duration": 3, "velocity": 91}, {"time": 2031, "pitch": 55, "duration": 5, "velocity": 77}, {"time": 2034, "pitch": 59, "duration": 3, "velocity": 75}, {"time": 2037, "pitch": 36, "duration": 24, "velocity": 79}, {"time": 2037, "pitch": 48, "duration": 23, "velocity": 109}, {"time": 2040, "pitch": 55, "duration": 7, "velocity": 76}, {"time": 2043, "pitch": 60, "duration": 3, "velocity": 68}, {"time": 2046, "pitch": 64, "duration": 6, "velocity": 100}, {"time": 2049, "pitch": 55, "duration": 10, "velocity": 44}, {"time": 2049, "pitch": 60, "duration": 10, "velocity": 100}, {"time": 2052, "pitch": 72, "duration": 3, "velocity": 100}, {"time": 2055, "pitch": 64, "duration": 6, "velocity": 91}, {"time": 2058, "pitch": 67, "duration": 2, "velocity": 69}, {"time": 2061, "pitch": 38, "duration": 23, "velocity": 88}, {"time": 2061, "pitch": 50, "duration": 16, "velocity": 111}, {"time": 2064, "pitch": 57, "duration": 7, "velocity": 88}, {"time": 2067, "pitch": 62, "duration": 3, "velocity": 79}, {"time": 2070, "pitch": 66, "duration": 5, "velocity": 106}, {"time": 2073, "pitch": 57, "duration": 2, "velocity": 61}, {"time": 2073, "pitch": 62, "duration": 2, "velocity": 88}, {"time": 2076, "pitch": 74, "duration": 2, "velocity": 103}, {"time": 2079, "pitch": 66, "duration": 5, "velocity": 95}, {"time": 2082, "pitch": 69, "duration": 2, "velocity": 82}, {"time": 2085, "pitch": 43, "duration": 48, "velocity": 85}, {"time": 2088, "pitch": 50, "duration": 6, "velocity": 68}, {"time": 2091, "pitch": 55, "duration": 3, "velocity": 75}, {"time": 2094, "pitch": 59, "duration": 7, "velocity": 117}, {"time": 2097, "pitch": 50, "duration": 22, "velocity": 73}, {"time": 2100, "pitch": 55, "duration": 3, "velocity": 76}, {"time": 2103, "pitch": 59, "duration": 1, "velocity": 68}, {"time": 2103, "pitch": 62, "duration": 9, "velocity": 113}, {"time": 2106, "pitch": 55, "duration": 7, "velocity": 98}, {"time": 2112, "pitch": 67, "duration": 5, "velocity": 111}, {"time": 2115, "pitch": 55, "duration": 3, "velocity": 77}, {"time": 2118, "pitch": 59, "duration": 4, "velocity": 88}, {"time": 2121, "pitch": 50, "duration": 10, "velocity": 59}, {"time": 2121, "pitch": 55, "duration": 10, "velocity": 77}, {"time": 2124, "pitch": 62, "duration": 2, "velocity": 63}, {"time": 2127, "pitch": 59, "duration": 5, "velocity": 82}, {"time": 2130, "pitch": 62, "duration": 2, "velocity": 75}, {"time": 2133, "pitch": 36, "duration": 23, "velocity": 95}, {"time": 2133, "pitch": 48, "duration": 18, "velocity": 109}, {"time": 2136, "pitch": 55, "duration": 7, "velocity": 68}, {"time": 2139, "pitch": 60, "duration": 3, "velocity": 75}, {"time": 2142, "pitch": 64, "duration": 5, "velocity": 98}, {"time": 2145, "pitch": 55, "duration": 8, "velocity": 54}, {"time": 2145, "pitch": 60, "duration": 7, "velocity": 88}, {"time": 2148, "pitch": 72, "duration": 2, "velocity": 100}, {"time": 2151, "pitch": 67, "duration": 2, "velocity": 75}, {"time": 2154, "pitch": 64, "duration": 3, "velocity": 75}, {"time": 2157, "pitch": 38, "duration": 23, "velocity": 79}, {"time": 2157, "pitch": 50, "duration": 19, "velocity": 100}, {"time": 2160, "pitch": 57, "duration": 7, "velocity": 67}, {"time": 2163, "pitch": 62, "duration": 3, "velocity": 68}, {"time": 2166, "pitch": 66, "duration": 5, "velocity": 100}, {"time": 2169, "pitch": 57, "duration": 4, "velocity": 53}, {"time": 2169, "pitch": 62, "duration": 3, "velocity": 76}, {"time": 2172, "pitch": 74, "duration": 4, "velocity": 100}, {"time": 2175, "pitch": 69, "duration": 2, "velocity": 68}, {"time": 2178, "pitch": 66, "duration": 3, "velocity": 75}, {"time": 2181, "pitch": 47, "duration": 20, "velocity": 91}, {"time": 2181, "pitch": 47, "duration": 20, "velocity": 100}, {"time": 2184, "pitch": 54, "duration": 7, "velocity": 55}, {"time": 2187, "pitch": 59, "duration": 3, "velocity": 63}, {"time": 2190, "pitch": 62, "duration": 5, "velocity": 100}, {"time": 2193, "pitch": 59, "duration": 2, "velocity": 69}, {"time": 2196, "pitch": 71, "duration": 4, "velocity": 91}, {"time": 2199, "pitch": 62, "duration": 6, "velocity": 75}, {"time": 2202, "pitch": 66, "duration": 2, "velocity": 73}, {"time": 2205, "pitch": 40, "duration": 22, "velocity": 85}, {"time": 2208, "pitch": 47, "duration": 16, "velocity": 62}, {"time": 2211, "pitch": 52, "duration": 3, "velocity": 67}, {"time": 2214, "pitch": 55, "duration": 5, "velocity": 85}, {"time": 2217, "pitch": 52, "duration": 8, "velocity": 73}, {"time": 2220, "pitch": 64, "duration": 3, "velocity": 76}, {"time": 2223, "pitch": 55, "duration": 5, "velocity": 68}, {"time": 2226, "pitch": 59, "duration": 2, "velocity": 66}, {"time": 2229, "pitch": 36, "duration": 23, "velocity": 67}, {"time": 2229, "pitch": 48, "duration": 19, "velocity": 79}, {"time": 2232, "pitch": 55, "duration": 7, "velocity": 75}, {"time": 2235, "pitch": 60, "duration": 3, "velocity": 72}, {"time": 2238, "pitch": 64, "duration": 5, "velocity": 98}, {"time": 2241, "pitch": 55, "duration": 10, "velocity": 37}, {"time": 2241, "pitch": 60, "duration": 8, "velocity": 69}, {"time": 2244, "pitch": 72, "duration": 3, "velocity": 95}, {"time": 2247, "pitch": 64, "duration": 5, "velocity": 75}, {"time": 2250, "pitch": 67, "duration": 2, "velocity": 72}, {"time": 2253, "pitch": 38, "duration": 24, "velocity": 75}, {"time": 2253, "pitch": 50, "duration": 17, "velocity": 100}, {"time": 2256, "pitch": 57, "duration": 7, "velocity": 67}, {"time": 2259, "pitch": 62, "duration": 3, "velocity": 69}, {"time": 2262, "pitch": 66, "duration": 6, "velocity": 100}, {"time": 2265, "pitch": 57, "duration": 2, "velocity": 57}, {"time": 2265, "pitch": 62, "duration": 3, "velocity": 91}, {"time": 2268, "pitch": 74, "duration": 3, "velocity": 100}, {"time": 2271, "pitch": 66, "duration": 5, "velocity": 75}, {"time": 2274, "pitch": 69, "duration": 2, "velocity": 62}, {"time": 2277, "pitch": 43, "duration": 17, "velocity": 71}, {"time": 2283, "pitch": 50, "duration": 12, "velocity": 16}, {"time": 2286, "pitch": 55, "duration": 8, "velocity": 12}, {"time": 2289, "pitch": 59, "duration": 12, "velocity": 66}, {"time": 2295, "pitch": 67, "duration": 5, "velocity": 63}, {"time": 2301, "pitch": 45, "duration": 4, "velocity": 89}, {"time": 2301, "pitch": 57, "duration": 4, "velocity": 70}, {"time": 2301, "pitch": 60, "duration": 4, "velocity": 72}, {"time": 2301, "pitch": 64, "duration": 4, "velocity": 69}, {"time": 2307, "pitch": 45, "duration": 5, "velocity": 92}, {"time": 2307, "pitch": 57, "duration": 5, "velocity": 82}, {"time": 2307, "pitch": 60, "duration": 4, "velocity": 82}, {"time": 2307, "pitch": 64, "duration": 4, "velocity": 75}, {"time": 2319, "pitch": 47, "duration": 4, "velocity": 78}, {"time": 2319, "pitch": 59, "duration": 4, "velocity": 85}, {"time": 2319, "pitch": 62, "duration": 4, "velocity": 78}, {"time": 2325, "pitch": 36, "duration": 17, "velocity": 100}, {"time": 2325, "pitch": 48, "duration": 19, "velocity": 111}, {"time": 2328, "pitch": 55, "duration": 7, "velocity": 73}, {"time": 2331, "pitch": 60, "duration": 3, "velocity": 88}, {"time": 2334, "pitch": 64, "duration": 4, "velocity": 113}, {"time": 2337, "pitch": 55, "duration": 10, "velocity": 64}, {"time": 2337, "pitch": 60, "duration": 9, "velocity": 100}, {"time": 2340, "pitch": 72, "duration": 2, "velocity": 109}, {"time": 2343, "pitch": 64, "duration": 5, "velocity": 109}, {"time": 2346, "pitch": 67, "duration": 2, "velocity": 103}, {"time": 2349, "pitch": 38, "duration": 17, "velocity": 100}, {"time": 2349, "pitch": 50, "duration": 18, "velocity": 109}, {"time": 2352, "pitch": 57, "duration": 7, "velocity": 91}, {"time": 2355, "pitch": 62, "duration": 3, "velocity": 91}, {"time": 2358, "pitch": 66, "duration": 6, "velocity": 109}, {"time": 2361, "pitch": 57, "duration": 3, "velocity": 64}, {"time": 2361, "pitch": 62, "duration": 3, "velocity": 95}, {"time": 2364, "pitch": 74, "duration": 3, "velocity": 106}, {"time": 2367, "pitch": 66, "duration": 6, "velocity": 95}, {"time": 2370, "pitch": 69, "duration": 2, "velocity": 77}, {"time": 2373, "pitch": 47, "duration": 18, "velocity": 106}, {"time": 2376, "pitch": 54, "duration": 8, "velocity": 70}, {"time": 2379, "pitch": 59, "duration": 4, "velocity": 77}, {"time": 2382, "pitch": 62, "duration": 6, "velocity": 109}, {"time": 2385, "pitch": 54, "duration": 3, "velocity": 55}, {"time": 2385, "pitch": 59, "duration": 3, "velocity": 85}, {"time": 2388, "pitch": 71, "duration": 3, "velocity": 98}, {"time": 2391, "pitch": 62, "duration": 6, "velocity": 82}, {"time": 2394, "pitch": 66, "duration": 2, "velocity": 72}, {"time": 2397, "pitch": 40, "duration": 19, "velocity": 111}, {"time": 2400, "pitch": 47, "duration": 8, "velocity": 65}, {"time": 2403, "pitch": 52, "duration": 4, "velocity": 64}, {"time": 2406, "pitch": 55, "duration": 6, "velocity": 98}, {"time": 2409, "pitch": 47, "duration": 8, "velocity": 49}, {"time": 2409, "pitch": 52, "duration": 9, "velocity": 77}, {"time": 2412, "pitch": 64, "duration": 3, "velocity": 91}, {"time": 2415, "pitch": 55, "duration": 5, "velocity": 77}, {"time": 2418, "pitch": 59, "duration": 3, "velocity": 75}, {"time": 2421, "pitch": 36, "duration": 17, "velocity": 100}, {"time": 2421, "pitch": 48, "duration": 23, "velocity": 109}, {"time": 2424, "pitch": 55, "duration": 7, "velocity": 76}, {"time": 2427, "pitch": 60, "duration": 3, "velocity": 68}, {"time": 2430, "pitch": 64, "duration": 6, "velocity": 100}, {"time": 2433, "pitch": 55, "duration": 10, "velocity": 44}, {"time": 2433, "pitch": 60, "duration": 10, "velocity": 100}, {"time": 2436, "pitch": 72, "duration": 3, "velocity": 100}, {"time": 2439, "pitch": 64, "duration": 6, "velocity": 91}, {"time": 2442, "pitch": 67, "duration": 2, "velocity": 69}, {"time": 2445, "pitch": 38, "duration": 17, "velocity": 100}, {"time": 2445, "pitch": 50, "duration": 16, "velocity": 111}, {"time": 2448, "pitch": 57, "duration": 7, "velocity": 88}, {"time": 2451, "pitch": 62, "duration": 3, "velocity": 79}, {"time": 2454, "pitch": 66, "duration": 5, "velocity": 106}, {"time": 2457, "pitch": 57, "duration": 2, "velocity": 61}, {"time": 2457, "pitch": 62, "duration": 2, "velocity": 88}, {"time": 2460, "pitch": 74, "duration": 2, "velocity": 103}, {"time": 2463, "pitch": 66, "duration": 5, "velocity": 95}, {"time": 2466, "pitch": 69, "duration": 2, "velocity": 82}, {"time": 2469, "pitch": 43, "duration": 43, "velocity": 106}, {"time": 2472, "pitch": 50, "duration": 6, "velocity": 68}, {"time": 2475, "pitch": 55, "duration": 3, "velocity": 75}, {"time": 2478, "pitch": 59, "duration": 7, "velocity": 117}, {"time": 2481, "pitch": 50, "duration": 22, "velocity": 73}, {"time": 2484, "pitch": 55, "duration": 3, "velocity": 76}, {"time": 2487, "pitch": 59, "duration": 1, "velocity": 68}, {"time": 2487, "pitch": 62, "duration": 9, "velocity": 113}, {"time": 2490, "pitch": 55, "duration": 7, "velocity": 98}, {"time": 2496, "pitch": 67, "duration": 5, "velocity": 111}, {"time": 2499, "pitch": 55, "duration": 3, "velocity": 77}, {"time": 2502, "pitch": 59, "duration": 4, "velocity": 88}, {"time": 2505, "pitch": 50, "duration": 10, "velocity": 59}, {"time": 2505, "pitch": 55, "duration": 10, "velocity": 77}, {"time": 2508, "pitch": 62, "duration": 2, "velocity": 63}, {"time": 2511, "pitch": 59, "duration": 5, "velocity": 82}, {"time": 2514, "pitch": 62, "duration": 2, "velocity": 75}, {"time": 2517, "pitch": 36, "duration": 17, "velocity": 100}, {"time": 2517, "pitch": 48, "duration": 18, "velocity": 109}, {"time": 2520, "pitch": 55, "duration": 7, "velocity": 68}, {"time": 2523, "pitch": 60, "duration": 3, "velocity": 75}, {"time": 2526, "pitch": 64, "duration": 5, "velocity": 98}, {"time": 2529, "pitch": 55, "duration": 8, "velocity": 54}, {"time": 2529, "pitch": 60, "duration": 7, "velocity": 88}, {"time": 2532, "pitch": 72, "duration": 2, "velocity": 100}, {"time": 2535, "pitch": 67, "duration": 2, "velocity": 75}, {"time": 2538, "pitch": 64, "duration": 3, "velocity": 75}, {"time": 2541, "pitch": 38, "duration": 17, "velocity": 100}, {"time": 2541, "pitch": 50, "duration": 19, "velocity": 100}, {"time": 2544, "pitch": 57, "duration": 7, "velocity": 67}, {"time": 2547, "pitch": 62, "duration": 3, "velocity": 68}, {"time": 2550, "pitch": 66, "duration": 5, "velocity": 100}, {"time": 2553, "pitch": 57, "duration": 4, "velocity": 53}, {"time": 2553, "pitch": 62, "duration": 3, "velocity": 76}, {"time": 2556, "pitch": 74, "duration": 4, "velocity": 100}, {"time": 2559, "pitch": 69, "duration": 2, "velocity": 68}, {"time": 2562, "pitch": 66, "duration": 3, "velocity": 75}, {"time": 2565, "pitch": 47, "duration": 20, "velocity": 100}, {"time": 2568, "pitch": 54, "duration": 7, "velocity": 55}, {"time": 2571, "pitch": 59, "duration": 3, "velocity": 63}, {"time": 2574, "pitch": 62, "duration": 5, "velocity": 100}, {"time": 2577, "pitch": 59, "duration": 2, "velocity": 69}, {"time": 2580, "pitch": 71, "duration": 4, "velocity": 91}, {"time": 2583, "pitch": 62, "duration": 6, "velocity": 75}, {"time": 2586, "pitch": 66, "duration": 2, "velocity": 73}, {"time": 2589, "pitch": 40, "duration": 17, "velocity": 100}, {"time": 2592, "pitch": 47, "duration": 16, "velocity": 62}, {"time": 2595, "pitch": 52, "duration": 3, "velocity": 67}, {"time": 2598, "pitch": 55, "duration": 5, "velocity": 85}, {"time": 2601, "pitch": 52, "duration": 8, "velocity": 73}, {"time": 2604, "pitch": 64, "duration": 3, "velocity": 76}, {"time": 2607, "pitch": 55, "duration": 5, "velocity": 68}, {"time": 2610, "pitch": 59, "duration": 2, "velocity": 66}, {"time": 2613, "pitch": 36, "duration": 17, "velocity": 100}, {"time": 2613, "pitch": 48, "duration": 19, "velocity": 79}, {"time": 2616, "pitch": 55, "duration": 7, "velocity": 75}, {"time": 2619, "pitch": 60, "duration": 3, "velocity": 72}, {"time": 2622, "pitch": 64, "duration": 5, "velocity": 98}, {"time": 2625, "pitch": 55, "duration": 10, "velocity": 37}, {"time": 2625, "pitch": 60, "duration": 8, "velocity": 69}, {"time": 2628, "pitch": 72, "duration": 3, "velocity": 95}, {"time": 2631, "pitch": 64, "duration": 5, "velocity": 75}, {"time": 2634, "pitch": 67, "duration": 2, "velocity": 72}, {"time": 2637, "pitch": 38, "duration": 17, "velocity": 100}, {"time": 2637, "pitch": 50, "duration": 17, "velocity": 100}, {"time": 2640, "pitch": 57, "duration": 7, "velocity": 67}, {"time": 2643, "pitch": 62, "duration": 3, "velocity": 69}, {"time": 2646, "pitch": 66, "duration": 6, "velocity": 100}, {"time": 2649, "pitch": 57, "duration": 2, "velocity": 57}, {"time": 2649, "pitch": 62, "duration": 3, "velocity": 91}, {"time": 2652, "pitch": 74, "duration": 3, "velocity": 100}, {"time": 2655, "pitch": 66, "duration": 5, "velocity": 75}, {"time": 2658, "pitch": 69, "duration": 2, "velocity": 62}, {"time": 2661, "pitch": 43, "duration": 17, "velocity": 71}, {"time": 2667, "pitch": 50, "duration": 12, "velocity": 16}, {"time": 2670, "pitch": 55, "duration": 8, "velocity": 12}, {"time": 2673, "pitch": 59, "duration": 12, "velocity": 66}, {"time": 2679, "pitch": 67, "duration": 5, "velocity": 63}, {"time": 2685, "pitch": 45, "duration": 19, "velocity": 79}, {"time": 2691, "pitch": 57, "duration": 15, "velocity": 16}, {"time": 2697, "pitch": 60, "duration": 12, "velocity": 65}, {"time": 2709, "pitch": 47, "duration": 12, "velocity": 73}, {"time": 2715, "pitch": 59, "duration": 4, "velocity": 66}, {"time": 2727, "pitch": 40, "duration": 23, "velocity": 68}, {"time": 2727, "pitch": 59, "duration": 23, "velocity": 63}, {"time": 2727, "pitch": 64, "duration": 23, "velocity": 62}, {"time": 2727, "pitch": 67, "duration": 22, "velocity": 57}, {"time": 2757, "pitch": 36, "duration": 15, "velocity": 69}, {"time": 2757, "pitch": 60, "duration": 6, "velocity": 61}, {"time": 2757, "pitch": 64, "duration": 5, "velocity": 62}, {"time": 2757, "pitch": 67, "duration": 7, "velocity": 52}, {"time": 2763, "pitch": 48, "duration": 9, "velocity": 14}, {"time": 2775, "pitch": 60, "duration": 6, "velocity": 6}, {"time": 2775, "pitch": 67, "duration": 5, "velocity": 6}, {"time": 2781, "pitch": 38, "duration": 14, "velocity": 73}, {"time": 2787, "pitch": 45, "duration": 8, "velocity": 35}, {"time": 2787, "pitch": 50, "duration": 9, "velocity": 16}, {"time": 2793, "pitch": 54, "duration": 11, "velocity": 51}, {"time": 2799, "pitch": 62, "duration": 5, "velocity": 32}, {"time": 2805, "pitch": 43, "duration": 22, "velocity": 59}, {"time": 2811, "pitch": 50, "duration": 14, "velocity": 16}, {"time": 2811, "pitch": 55, "duration": 12, "velocity": 41}, {"time": 2817, "pitch": 59, "duration": 11, "velocity": 63}, {"time": 2817, "pitch": 62, "duration": 10, "velocity": 63}, {"time": 2829, "pitch": 43, "duration": 22, "velocity": 71}, {"time": 2835, "pitch": 50, "duration": 15, "velocity": 12}, {"time": 2835, "pitch": 55, "duration": 15, "velocity": 46}, {"time": 2841, "pitch": 59, "duration": 10, "velocity": 62}, {"time": 2841, "pitch": 62, "duration": 10, "velocity": 65}, {"time": 2853, "pitch": 43, "duration": 17, "velocity": 71}, {"time": 2859, "pitch": 50, "duration": 12, "velocity": 12}, {"time": 2859, "pitch": 55, "duration": 11, "velocity": 50}, {"time": 2865, "pitch": 59, "duration": 12, "velocity": 70}, {"time": 2877, "pitch": 45, "duration": 17, "velocity": 82}, {"time": 2883, "pitch": 52, "duration": 13, "velocity": 14}, {"time": 2883, "pitch": 57, "duration": 11, "velocity": 62}, {"time": 2889, "pitch": 60, "duration": 12, "velocity": 73}, {"time": 2895, "pitch": 69, "duration": 6, "velocity": 61}, {"time": 2901, "pitch": 47, "duration": 12, "velocity": 95}, {"time": 2907, "pitch": 59, "duration": 5, "velocity": 67}, {"time": 2919, "pitch": 40, "duration": 18, "velocity": 77}, {"time": 2919, "pitch": 59, "duration": 19, "velocity": 70}, {"time": 2919, "pitch": 64, "duration": 19, "velocity": 68}, {"time": 2919, "pitch": 67, "duration": 20, "velocity": 69}, {"time": 2937, "pitch": 50, "duration": 11, "velocity": 70}, {"time": 2937, "pitch": 62, "duration": 11, "velocity": 72}, {"time": 2937, "pitch": 66, "duration": 11, "velocity": 76}, {"time": 2949, "pitch": 48, "duration": 17, "velocity": 68}, {"time": 2949, "pitch": 60, "duration": 7, "velocity": 57}, {"time": 2949, "pitch": 64, "duration": 7, "velocity": 60}, {"time": 2949, "pitch": 67, "duration": 8, "velocity": 44}, {"time": 2958, "pitch": 55, "duration": 8, "velocity": 10}, {"time": 2961, "pitch": 60, "duration": 8, "velocity": 54}, {"time": 2961, "pitch": 64, "duration": 9, "velocity": 57}, {"time": 2961, "pitch": 67, "duration": 11, "velocity": 14}, {"time": 2973, "pitch": 50, "duration": 20, "velocity": 71}, {"time": 2973, "pitch": 62, "duration": 5, "velocity": 69}, {"time": 2973, "pitch": 66, "duration": 10, "velocity": 73}, {"time": 2979, "pitch": 57, "duration": 8, "velocity": 12}, {"time": 2979, "pitch": 62, "duration": 7, "velocity": 53}, {"time": 2985, "pitch": 66, "duration": 12, "velocity": 55}, {"time": 2985, "pitch": 69, "duration": 11, "velocity": 14}, {"time": 2997, "pitch": 38, "duration": 10, "velocity": 100}, {"time": 2997, "pitch": 50, "duration": 6, "velocity": 88}, {"time": 2997, "pitch": 62, "duration": 7, "velocity": 79}, {"time": 2997, "pitch": 66, "duration": 7, "velocity": 91}, {"time": 3006, "pitch": 43, "duration": 7, "velocity": 98}, {"time": 3006, "pitch": 55, "duration": 7, "velocity": 73}, {"time": 3006, "pitch": 67, "duration": 7, "velocity": 77}, {"time": 3006, "pitch": 71, "duration": 7, "velocity": 103}, {"time": 3015, "pitch": 42, "duration": 6, "velocity": 95}, {"time": 3015, "pitch": 54, "duration": 5, "velocity": 69}, {"time": 3015, "pitch": 66, "duration": 5, "velocity": 76}, {"time": 3015, "pitch": 69, "duration": 5, "velocity": 95}, {"time": 3021, "pitch": 40, "duration": 12, "velocity": 77}, {"time": 3021, "pitch": 52, "duration": 10, "velocity": 85}, {"time": 3021, "pitch": 64, "duration": 9, "velocity": 69}, {"time": 3021, "pitch": 67, "duration": 7, "velocity": 71}, {"time": 3030, "pitch": 38, "duration": 7, "velocity": 98}, {"time": 3030, "pitch": 50, "duration": 7, "velocity": 75}, {"time": 3030, "pitch": 62, "duration": 7, "velocity": 88}, {"time": 3030, "pitch": 66, "duration": 7, "velocity": 100}, {"time": 3039, "pitch": 36, "duration": 7, "velocity": 88}, {"time": 3039, "pitch": 48, "duration": 3, "velocity": 95}, {"time": 3039, "pitch": 60, "duration": 4, "velocity": 77}, {"time": 3039, "pitch": 64, "duration": 3, "velocity": 106}, {"time": 3045, "pitch": 43, "duration": 51, "velocity": 95}, {"time": 3045, "pitch": 59, "duration": 50, "velocity": 85}, {"time": 3045, "pitch": 62, "duration": 50, "velocity": 100}, {"time": 3063, "pitch": 50, "duration": 31, "velocity": 8}], "annotations": [{"time": 21, "annotation": {"number": 64, "value": 127}, "group": "control_change"}, {"time": 43, "annotation": {"number": 64, "value": 0}, "group": "control_change"}, {"time": 45, "annotation": {"number": 64, "value": 127}, "group": "control_change"}, {"time": 66, "annotation": {"number": 64, "value": 0}, "group": "control_change"}, {"time": 81, "annotation": {"number": 64, "value": 127}, "group": "control_change"}, {"time": 85, "annotation": {"number": 64, "value": 0}, "group": "control_change"}, {"time": 104, "annotation": {"number": 64, "value": 127}, "group": "control_change"}, {"time": 114, "annotation": {"number": 64, "value": 0}, "group": "control_change"}, {"time": 117, "annotation": {"number": 64, "value": 127}, "group": "control_change"}, {"time": 139, "annotation": {"number": 64, "value": 0}, "group": "control_change"}, {"time": 141, "annotation": {"number": 64, "value": 127}, "group": "control_change"}, {"time": 163, "annotation": {"number": 64, "value": 0}, "group": "control_change"}, {"time": 164, "annotation": {"number": 64, "value": 127}, "group": "control_change"}, {"time": 187, "annotation": {"number": 64, "value": 0}, "group": "control_change"}, {"time": 188, "annotation": {"number": 64, "value": 127}, "group": "control_change"}, {"time": 211, "annotation": {"number": 64, "value": 0}, "group": "control_change"}, {"time": 213, "annotation": {"number": 64, "value": 127}, "group": "control_change"}, {"time": 235, "annotation": {"number": 64, "value": 0}, "group": "control_change"}, {"time": 237, "annotation": {"number": 64, "value": 127}, "group": "control_change"}, {"time": 256, "annotation": {"number": 64, "value": 0}, "group": "control_change"}, {"time": 260, "annotation": {"number": 64, "value": 127}, "group": "control_change"}, {"time": 272, "annotation": {"number": 64, "value": 0}, "group": "control_change"}, {"time": 273, "annotation": {"number": 64, "value": 127}, "group": "control_change"}, {"time": 277, "annotation": {"number": 64, "value": 0}, "group": "control_change"}, {"time": 284, "annotation": {"number": 64, "value": 127}, "group": "control_change"}, {"time": 306, "annotation": {"number": 64, "value": 0}, "group": "control_change"}, {"time": 308, "annotation": {"number": 64, "value": 127}, "group": "control_change"}, {"time": 330, "annotation": {"number": 64, "value": 0}, "group": "control_change"}, {"time": 332, "annotation": {"number": 64, "value": 127}, "group": "control_change"}, {"time": 351, "annotation": {"number": 64, "value": 0}, "group": "control_change"}, {"time": 369, "annotation": {"number": 64, "value": 127}, "group": "control_change"}, {"time": 373, "annotation": {"number": 64, "value": 0}, "group": "control_change"}, {"time": 382, "annotation": {"number": 64, "value": 127}, "group": "control_change"}, {"time": 388, "annotation": {"number": 64, "value": 0}, "group": "control_change"}, {"time": 427, "annotation": {"number": 64, "value": 0}, "group": "control_change"}, {"time": 428, "annotation": {"number": 64, "value": 74}, "group": "control_change"}, {"time": 428, "annotation": {"number": 64, "value": 127}, "group": "control_change"}, {"time": 452, "annotation": {"number": 64, "value": 38}, "group": "control_change"}, {"time": 452, "annotation": {"number": 64, "value": 0}, "group": "control_change"}, {"time": 453, "annotation": {"number": 64, "value": 127}, "group": "control_change"}, {"time": 476, "annotation": {"number": 64, "value": 0}, "group": "control_change"}, {"time": 477, "annotation": {"number": 64, "value": 127}, "group": "control_change"}, {"time": 500, "annotation": {"number": 64, "value": 0}, "group": "control_change"}, {"time": 501, "annotation": {"number": 64, "value": 74}, "group": "control_change"}, {"time": 501, "annotation": {"number": 64, "value": 127}, "group": "control_change"}, {"time": 524, "annotation": {"number": 64, "value": 0}, "group": "control_change"}, {"time": 525, "annotation": {"number": 64, "value": 127}, "group": "control_change"}, {"time": 547, "annotation": {"number": 64, "value": 0}, "group": "control_change"}, {"time": 548, "annotation": {"number": 64, "value": 127}, "group": "control_change"}, {"time": 572, "annotation": {"number": 64, "value": 0}, "group": "control_change"}, {"time": 573, "annotation": {"number": 64, "value": 127}, "group": "control_change"}, {"time": 596, "annotation": {"number": 64, "value": 0}, "group": "control_change"}, {"time": 597, "annotation": {"number": 64, "value": 127}, "group": "control_change"}, {"time": 620, "annotation": {"number": 64, "value": 0}, "group": "control_change"}, {"time": 621, "annotation": {"number": 64, "value": 74}, "group": "control_change"}, {"time": 621, "annotation": {"number": 64, "value": 127}, "group": "control_change"}, {"time": 644, "annotation": {"number": 64, "value": 0}, "group": "control_change"}, {"time": 645, "annotation": {"number": 64, "value": 74}, "group": "control_change"}, {"time": 645, "annotation": {"number": 64, "value": 127}, "group": "control_change"}, {"time": 668, "annotation": {"number": 64, "value": 0}, "group": "control_change"}, {"time": 669, "annotation": {"number": 64, "value": 38}, "group": "control_change"}, {"time": 669, "annotation": {"number": 64, "value": 127}, "group": "control_change"}, {"time": 692, "annotation": {"number": 64, "value": 0}, "group": "control_change"}, {"time": 693, "annotation": {"number": 64, "value": 127}, "group": "control_change"}, {"time": 715, "annotation": {"number": 64, "value": 0}, "group": "control_change"}, {"time": 717, "annotation": {"number": 64, "value": 74}, "group": "control_change"}, {"time": 717, "annotation": {"number": 64, "value": 127}, "group": "control_change"}, {"time": 740, "annotation": {"number": 64, "value": 74}, "group": "control_change"}, {"time": 740, "annotation": {"number": 64, "value": 0}, "group": "control_change"}, {"time": 741, "annotation": {"number": 64, "value": 127}, "group": "control_change"}, {"time": 746, "annotation": {"number": 64, "value": 127}, "group": "control_change"}, {"time": 764, "annotation": {"number": 64, "value": 0}, "group": "control_change"}, {"time": 765, "annotation": {"number": 64, "value": 127}, "group": "control_change"}, {"time": 790, "annotation": {"number": 64, "value": 74}, "group": "control_change"}, {"time": 790, "annotation": {"number": 64, "value": 0}, "group": "control_change"}, {"time": 793, "annotation": {"number": 64, "value": 74}, "group": "control_change"}, {"time": 793, "annotation": {"number": 64, "value": 127}, "group": "control_change"}, {"time": 795, "annotation": {"number": 64, "value": 0}, "group": "control_change"}, {"time": 812, "annotation": {"number": 64, "value": 0}, "group": "control_change"}, {"time": 813, "annotation": {"number": 64, "value": 38}, "group": "control_change"}, {"time": 813, "annotation": {"number": 64, "value": 127}, "group": "control_change"}, {"time": 835, "annotation": {"number": 64, "value": 0}, "group": "control_change"}, {"time": 836, "annotation": {"number": 64, "value": 74}, "group": "control_change"}, {"time": 837, "annotation": {"number": 64, "value": 127}, "group": "control_change"}, {"time": 859, "annotation": {"number": 64, "value": 0}, "group": "control_change"}, {"time": 861, "annotation": {"number": 64, "value": 127}, "group": "control_change"}, {"time": 884, "annotation": {"number": 64, "value": 0}, "group": "control_change"}, {"time": 885, "annotation": {"number": 64, "value": 127}, "group": "control_change"}, {"time": 908, "annotation": {"number": 64, "value": 0}, "group": "control_change"}, {"time": 910, "annotation": {"number": 64, "value": 74}, "group": "control_change"}, {"time": 910, "annotation": {"number": 64, "value": 127}, "group": "control_change"}, {"time": 932, "annotation": {"number": 64, "value": 0}, "group": "control_change"}, {"time": 934, "annotation": {"number": 64, "value": 127}, "group": "control_change"}, {"time": 956, "annotation": {"number": 64, "value": 0}, "group": "control_change"}, {"time": 957, "annotation": {"number": 64, "value": 127}, "group": "control_change"}, {"time": 1003, "annotation": {"number": 64, "value": 38}, "group": "control_change"}, {"time": 1003, "annotation": {"number": 64, "value": 0}, "group": "control_change"}, {"time": 1005, "annotation": {"number": 64, "value": 127}, "group": "control_change"}, {"time": 1028, "annotation": {"number": 64, "value": 0}, "group": "control_change"}, {"time": 1029, "annotation": {"number": 64, "value": 127}, "group": "control_change"}, {"time": 1052, "annotation": {"number": 64, "value": 0}, "group": "control_change"}, {"time": 1053, "annotation": {"number": 64, "value": 74}, "group": "control_change"}, {"time": 1053, "annotation": {"number": 64, "value": 127}, "group": "control_change"}, {"time": 1076, "annotation": {"number": 64, "value": 0}, "group": "control_change"}, {"time": 1077, "annotation": {"number": 64, "value": 74}, "group": "control_change"}, {"time": 1077, "annotation": {"number": 64, "value": 127}, "group": "control_change"}, {"time": 1100, "annotation": {"number": 64, "value": 0}, "group": "control_change"}, {"time": 1101, "annotation": {"number": 64, "value": 127}, "group": "control_change"}, {"time": 1109, "annotation": {"number": 64, "value": 74}, "group": "control_change"}, {"time": 1109, "annotation": {"number": 64, "value": 127}, "group": "control_change"}, {"time": 1123, "annotation": {"number": 64, "value": 0}, "group": "control_change"}, {"time": 1125, "annotation": {"number": 64, "value": 127}, "group": "control_change"}, {"time": 1147, "annotation": {"number": 64, "value": 0}, "group": "control_change"}, {"time": 1149, "annotation": {"number": 64, "value": 74}, "group": "control_change"}, {"time": 1149, "annotation": {"number": 64, "value": 127}, "group": "control_change"}, {"time": 1170, "annotation": {"number": 64, "value": 0}, "group": "control_change"}, {"time": 1174, "annotation": {"number": 64, "value": 127}, "group": "control_change"}, {"time": 1178, "annotation": {"number": 64, "value": 0}, "group": "control_change"}, {"time": 1185, "annotation": {"number": 64, "value": 127}, "group": "control_change"}, {"time": 1187, "annotation": {"number": 64, "value": 0}, "group": "control_change"}, {"time": 1196, "annotation": {"number": 64, "value": 127}, "group": "control_change"}, {"time": 1202, "annotation": {"number": 64, "value": 0}, "group": "control_change"}, {"time": 1209, "annotation": {"number": 64, "value": 127}, "group": "control_change"}, {"time": 1211, "annotation": {"number": 64, "value": 0}, "group": "control_change"}, {"time": 1220, "annotation": {"number": 64, "value": 127}, "group": "control_change"}, {"time": 1227, "annotation": {"number": 64, "value": 0}, "group": "control_change"}, {"time": 1232, "annotation": {"number": 64, "value": 127}, "group": "control_change"}, {"time": 1240, "annotation": {"number": 64, "value": 0}, "group": "control_change"}, {"time": 1245, "annotation": {"number": 64, "value": 127}, "group": "control_change"}, {"time": 1266, "annotation": {"number": 64, "value": 0}, "group": "control_change"}, {"time": 1269, "annotation": {"number": 64, "value": 127}, "group": "control_change"}, {"time": 1291, "annotation": {"number": 64, "value": 0}, "group": "control_change"}, {"time": 1293, "annotation": {"number": 64, "value": 127}, "group": "control_change"}, {"time": 1314, "annotation": {"number": 64, "value": 0}, "group": "control_change"}, {"time": 1317, "annotation": {"number": 64, "value": 127}, "group": "control_change"}, {"time": 1336, "annotation": {"number": 64, "value": 0}, "group": "control_change"}, {"time": 1341, "annotation": {"number": 64, "value": 127}, "group": "control_change"}, {"time": 1362, "annotation": {"number": 64, "value": 0}, "group": "control_change"}, {"time": 1365, "annotation": {"number": 64, "value": 127}, "group": "control_change"}, {"time": 1373, "annotation": {"number": 64, "value": 0}, "group": "control_change"}, {"time": 1377, "annotation": {"number": 64, "value": 127}, "group": "control_change"}, {"time": 1383, "annotation": {"number": 64, "value": 0}, "group": "control_change"}, {"time": 1401, "annotation": {"number": 64, "value": 127}, "group": "control_change"}, {"time": 1403, "annotation": {"number": 64, "value": 0}, "group": "control_change"}, {"time": 1413, "annotation": {"number": 64, "value": 127}, "group": "control_change"}, {"time": 1432, "annotation": {"number": 64, "value": 0}, "group": "control_change"}, {"time": 1437, "annotation": {"number": 64, "value": 127}, "group": "control_change"}, {"time": 1458, "annotation": {"number": 64, "value": 0}, "group": "control_change"}, {"time": 1461, "annotation": {"number": 64, "value": 127}, "group": "control_change"}, {"time": 1480, "annotation": {"number": 64, "value": 0}, "group": "control_change"}, {"time": 1485, "annotation": {"number": 64, "value": 127}, "group": "control_change"}, {"time": 1493, "annotation": {"number": 64, "value": 0}, "group": "control_change"}, {"time": 1509, "annotation": {"number": 64, "value": 127}, "group": "control_change"}, {"time": 1515, "annotation": {"number": 64, "value": 0}, "group": "control_change"}, {"time": 1555, "annotation": {"number": 64, "value": 0}, "group": "control_change"}, {"time": 1557, "annotation": {"number": 64, "value": 74}, "group": "control_change"}, {"time": 1557, "annotation": {"number": 64, "value": 127}, "group": "control_change"}, {"time": 1580, "annotation": {"number": 64, "value": 38}, "group": "control_change"}, {"time": 1580, "annotation": {"number": 64, "value": 0}, "group": "control_change"}, {"time": 1581, "annotation": {"number": 64, "value": 127}, "group": "control_change"}, {"time": 1604, "annotation": {"number": 64, "value": 0}, "group": "control_change"}, {"time": 1605, "annotation": {"number": 64, "value": 127}, "group": "control_change"}, {"time": 1628, "annotation": {"number": 64, "value": 0}, "group": "control_change"}, {"time": 1629, "annotation": {"number": 64, "value": 74}, "group": "control_change"}, {"time": 1629, "annotation": {"number": 64, "value": 127}, "group": "control_change"}, {"time": 1652, "annotation": {"number": 64, "value": 0}, "group": "control_change"}, {"time": 1653, "annotation": {"number": 64, "value": 127}, "group": "control_change"}, {"time": 1676, "annotation": {"number": 64, "value": 0}, "group": "control_change"}, {"time": 1677, "annotation": {"number": 64, "value": 127}, "group": "control_change"}, {"time": 1700, "annotation": {"number": 64, "value": 0}, "group": "control_change"}, {"time": 1701, "annotation": {"number": 64, "value": 127}, "group": "control_change"}, {"time": 1724, "annotation": {"number": 64, "value": 0}, "group": "control_change"}, {"time": 1726, "annotation": {"number": 64, "value": 127}, "group": "control_change"}, {"time": 1748, "annotation": {"number": 64, "value": 0}, "group": "control_change"}, {"time": 1749, "annotation": {"number": 64, "value": 74}, "group": "control_change"}, {"time": 1749, "annotation": {"number": 64, "value": 127}, "group": "control_change"}, {"time": 1772, "annotation": {"number": 64, "value": 0}, "group": "control_change"}, {"time": 1773, "annotation": {"number": 64, "value": 74}, "group": "control_change"}, {"time": 1773, "annotation": {"number": 64, "value": 127}, "group": "control_change"}, {"time": 1796, "annotation": {"number": 64, "value": 0}, "group": "control_change"}, {"time": 1797, "annotation": {"number": 64, "value": 38}, "group": "control_change"}, {"time": 1797, "annotation": {"number": 64, "value": 127}, "group": "control_change"}, {"time": 1820, "annotation": {"number": 64, "value": 0}, "group": "control_change"}, {"time": 1821, "annotation": {"number": 64, "value": 127}, "group": "control_change"}, {"time": 1844, "annotation": {"number": 64, "value": 0}, "group": "control_change"}, {"time": 1845, "annotation": {"number": 64, "value": 74}, "group": "control_change"}, {"time": 1845, "annotation": {"number": 64, "value": 127}, "group": "control_change"}, {"time": 1868, "annotation": {"number": 64, "value": 74}, "group": "control_change"}, {"time": 1869, "annotation": {"number": 64, "value": 0}, "group": "control_change"}, {"time": 1870, "annotation": {"number": 64, "value": 127}, "group": "control_change"}, {"time": 1874, "annotation": {"number": 64, "value": 127}, "group": "control_change"}, {"time": 1892, "annotation": {"number": 64, "value": 0}, "group": "control_change"}, {"time": 1894, "annotation": {"number": 64, "value": 127}, "group": "control_change"}, {"time": 1918, "annotation": {"number": 64, "value": 74}, "group": "control_change"}, {"time": 1918, "annotation": {"number": 64, "value": 0}, "group": "control_change"}, {"time": 1921, "annotation": {"number": 64, "value": 74}, "group": "control_change"}, {"time": 1921, "annotation": {"number": 64, "value": 127}, "group": "control_change"}, {"time": 1923, "annotation": {"number": 64, "value": 0}, "group": "control_change"}, {"time": 1940, "annotation": {"number": 64, "value": 0}, "group": "control_change"}, {"time": 1942, "annotation": {"number": 64, "value": 38}, "group": "control_change"}, {"time": 1942, "annotation": {"number": 64, "value": 127}, "group": "control_change"}, {"time": 1963, "annotation": {"number": 64, "value": 0}, "group": "control_change"}, {"time": 1965, "annotation": {"number": 64, "value": 74}, "group": "control_change"}, {"time": 1965, "annotation": {"number": 64, "value": 127}, "group": "control_change"}, {"time": 1988, "annotation": {"number": 64, "value": 0}, "group": "control_change"}, {"time": 1989, "annotation": {"number": 64, "value": 127}, "group": "control_change"}, {"time": 2012, "annotation": {"number": 64, "value": 0}, "group": "control_change"}, {"time": 2013, "annotation": {"number": 64, "value": 127}, "group": "control_change"}, {"time": 2037, "annotation": {"number": 64, "value": 0}, "group": "control_change"}, {"time": 2038, "annotation": {"number": 64, "value": 74}, "group": "control_change"}, {"time": 2038, "annotation": {"number": 64, "value": 127}, "group": "control_change"}, {"time": 2061, "annotation": {"number": 64, "value": 0}, "group": "control_change"}, {"time": 2062, "annotation": {"number": 64, "value": 127}, "group": "control_change"}, {"time": 2084, "annotation": {"number": 64, "value": 0}, "group": "control_change"}, {"time": 2086, "annotation": {"number": 64, "value": 127}, "group": "control_change"}, {"time": 2131, "annotation": {"number": 64, "value": 38}, "group": "control_change"}, {"time": 2132, "annotation": {"number": 64, "value": 0}, "group": "control_change"}, {"time": 2133, "annotation": {"number": 64, "value": 127}, "group": "control_change"}, {"time": 2156, "annotation": {"number": 64, "value": 0}, "group": "control_change"}, {"time": 2158, "annotation": {"number": 64, "value": 127}, "group": "control_change"}, {"time": 2180, "annotation": {"number": 64, "value": 0}, "group": "control_change"}, {"time": 2182, "annotation": {"number": 64, "value": 74}, "group": "control_change"}, {"time": 2182, "annotation": {"number": 64, "value": 127}, "group": "control_change"}, {"time": 2204, "annotation": {"number": 64, "value": 0}, "group": "control_change"}, {"time": 2205, "annotation": {"number": 64, "value": 74}, "group": "control_change"}, {"time": 2206, "annotation": {"number": 64, "value": 127}, "group": "control_change"}, {"time": 2228, "annotation": {"number": 64, "value": 0}, "group": "control_change"}, {"time": 2230, "annotation": {"number": 64, "value": 127}, "group": "control_change"}, {"time": 2237, "annotation": {"number": 64, "value": 74}, "group": "control_change"}, {"time": 2237, "annotation": {"number": 64, "value": 127}, "group": "control_change"}, {"time": 2238, "annotation": {"number": 64, "value": 127}, "group": "control_change"}, {"time": 2252, "annotation": {"number": 64, "value": 0}, "group": "control_change"}, {"time": 2253, "annotation": {"number": 64, "value": 127}, "group": "control_change"}, {"time": 2275, "annotation": {"number": 64, "value": 0}, "group": "control_change"}, {"time": 2276, "annotation": {"number": 64, "value": 0}, "group": "control_change"}, {"time": 2276, "annotation": {"number": 64, "value": 38}, "group": "control_change"}, {"time": 2277, "annotation": {"number": 64, "value": 127}, "group": "control_change"}, {"time": 2277, "annotation": {"number": 64, "value": 74}, "group": "control_change"}, {"time": 2288, "annotation": {"number": 64, "value": 74}, "group": "control_change"}, {"time": 2300, "annotation": {"number": 64, "value": 0}, "group": "control_change"}, {"time": 2300, "annotation": {"number": 64, "value": 74}, "group": "control_change"}, {"time": 2300, "annotation": {"number": 64, "value": 127}, "group": "control_change"}, {"time": 2325, "annotation": {"number": 64, "value": 38}, "group": "control_change"}, {"time": 2325, "annotation": {"number": 64, "value": 127}, "group": "control_change"}, {"time": 2347, "annotation": {"number": 64, "value": 0}, "group": "control_change"}, {"time": 2348, "annotation": {"number": 64, "value": 74}, "group": "control_change"}, {"time": 2349, "annotation": {"number": 64, "value": 127}, "group": "control_change"}, {"time": 2371, "annotation": {"number": 64, "value": 0}, "group": "control_change"}, {"time": 2373, "annotation": {"number": 64, "value": 127}, "group": "control_change"}, {"time": 2396, "annotation": {"number": 64, "value": 0}, "group": "control_change"}, {"time": 2397, "annotation": {"number": 64, "value": 127}, "group": "control_change"}, {"time": 2420, "annotation": {"number": 64, "value": 0}, "group": "control_change"}, {"time": 2422, "annotation": {"number": 64, "value": 74}, "group": "control_change"}, {"time": 2422, "annotation": {"number": 64, "value": 127}, "group": "control_change"}, {"time": 2444, "annotation": {"number": 64, "value": 0}, "group": "control_change"}, {"time": 2446, "annotation": {"number": 64, "value": 127}, "group": "control_change"}, {"time": 2468, "annotation": {"number": 64, "value": 0}, "group": "control_change"}, {"time": 2469, "annotation": {"number": 64, "value": 127}, "group": "control_change"}, {"time": 2515, "annotation": {"number": 64, "value": 38}, "group": "control_change"}, {"time": 2515, "annotation": {"number": 64, "value": 0}, "group": "control_change"}, {"time": 2517, "annotation": {"number": 64, "value": 127}, "group": "control_change"}, {"time": 2540, "annotation": {"number": 64, "value": 0}, "group": "control_change"}, {"time": 2541, "annotation": {"number": 64, "value": 127}, "group": "control_change"}, {"time": 2564, "annotation": {"number": 64, "value": 0}, "group": "control_change"}, {"time": 2565, "annotation": {"number": 64, "value": 74}, "group": "control_change"}, {"time": 2565, "annotation": {"number": 64, "value": 127}, "group": "control_change"}, {"time": 2588, "annotation": {"number": 64, "value": 0}, "group": "control_change"}, {"time": 2589, "annotation": {"number": 64, "value": 74}, "group": "control_change"}, {"time": 2589, "annotation": {"number": 64, "value": 127}, "group": "control_change"}, {"time": 2612, "annotation": {"number": 64, "value": 0}, "group": "control_change"}, {"time": 2613, "annotation": {"number": 64, "value": 127}, "group": "control_change"}, {"time": 2621, "annotation": {"number": 64, "value": 74}, "group": "control_change"}, {"time": 2621, "annotation": {"number": 64, "value": 127}, "group": "control_change"}, {"time": 2635, "annotation": {"number": 64, "value": 0}, "group": "control_change"}, {"time": 2637, "annotation": {"number": 64, "value": 127}, "group": "control_change"}, {"time": 2659, "annotation": {"number": 64, "value": 0}, "group": "control_change"}, {"time": 2660, "annotation": {"number": 64, "value": 38}, "group": "control_change"}, {"time": 2661, "annotation": {"number": 64, "value": 127}, "group": "control_change"}, {"time": 2661, "annotation": {"number": 64, "value": 74}, "group": "control_change"}, {"time": 2684, "annotation": {"number": 64, "value": 0}, "group": "control_change"}, {"time": 2684, "annotation": {"number": 64, "value": 74}, "group": "control_change"}, {"time": 2684, "annotation": {"number": 64, "value": 127}, "group": "control_change"}, {"time": 2708, "annotation": {"number": 64, "value": 0}, "group": "control_change"}, {"time": 2709, "annotation": {"number": 64, "value": 127}, "group": "control_change"}, {"time": 2726, "annotation": {"number": 64, "value": 0}, "group": "control_change"}, {"time": 2727, "annotation": {"number": 64, "value": 74}, "group": "control_change"}, {"time": 2727, "annotation": {"number": 64, "value": 127}, "group": "control_change"}, {"time": 2755, "annotation": {"number": 64, "value": 0}, "group": "control_change"}, {"time": 2756, "annotation": {"number": 64, "value": 127}, "group": "control_change"}, {"time": 2779, "annotation": {"number": 64, "value": 0}, "group": "control_change"}, {"time": 2781, "annotation": {"number": 64, "value": 74}, "group": "control_change"}, {"time": 2781, "annotation": {"number": 64, "value": 127}, "group": "control_change"}, {"time": 2804, "annotation": {"number": 64, "value": 0}, "group": "control_change"}, {"time": 2805, "annotation": {"number": 64, "value": 38}, "group": "control_change"}, {"time": 2806, "annotation": {"number": 64, "value": 127}, "group": "control_change"}, {"time": 2824, "annotation": {"number": 64, "value": 0}, "group": "control_change"}, {"time": 2829, "annotation": {"number": 64, "value": 38}, "group": "control_change"}, {"time": 2830, "annotation": {"number": 64, "value": 127}, "group": "control_change"}, {"time": 2848, "annotation": {"number": 64, "value": 38}, "group": "control_change"}, {"time": 2848, "annotation": {"number": 64, "value": 0}, "group": "control_change"}, {"time": 2853, "annotation": {"number": 64, "value": 74}, "group": "control_change"}, {"time": 2853, "annotation": {"number": 64, "value": 127}, "group": "control_change"}, {"time": 2877, "annotation": {"number": 64, "value": 38}, "group": "control_change"}, {"time": 2877, "annotation": {"number": 64, "value": 0}, "group": "control_change"}, {"time": 2878, "annotation": {"number": 64, "value": 127}, "group": "control_change"}, {"time": 2900, "annotation": {"number": 64, "value": 0}, "group": "control_change"}, {"time": 2901, "annotation": {"number": 64, "value": 127}, "group": "control_change"}, {"time": 2915, "annotation": {"number": 64, "value": 127}, "group": "control_change"}, {"time": 2918, "annotation": {"number": 64, "value": 0}, "group": "control_change"}, {"time": 2919, "annotation": {"number": 64, "value": 74}, "group": "control_change"}, {"time": 2919, "annotation": {"number": 64, "value": 127}, "group": "control_change"}, {"time": 2922, "annotation": {"number": 64, "value": 0}, "group": "control_change"}, {"time": 2925, "annotation": {"number": 64, "value": 74}, "group": "control_change"}, {"time": 2925, "annotation": {"number": 64, "value": 127}, "group": "control_change"}, {"time": 2933, "annotation": {"number": 64, "value": 0}, "group": "control_change"}, {"time": 2947, "annotation": {"number": 64, "value": 0}, "group": "control_change"}, {"time": 2948, "annotation": {"number": 64, "value": 38}, "group": "control_change"}, {"time": 2948, "annotation": {"number": 64, "value": 127}, "group": "control_change"}, {"time": 2954, "annotation": {"number": 64, "value": 127}, "group": "control_change"}, {"time": 2964, "annotation": {"number": 64, "value": 0}, "group": "control_change"}, {"time": 2971, "annotation": {"number": 64, "value": 0}, "group": "control_change"}, {"time": 2972, "annotation": {"number": 64, "value": 127}, "group": "control_change"}, {"time": 2987, "annotation": {"number": 64, "value": 38}, "group": "control_change"}, {"time": 2987, "annotation": {"number": 64, "value": 0}, "group": "control_change"}, {"time": 2996, "annotation": {"number": 64, "value": 0}, "group": "control_change"}, {"time": 3006, "annotation": {"number": 64, "value": 127}, "group": "control_change"}, {"time": 3028, "annotation": {"number": 64, "value": 74}, "group": "control_change"}, {"time": 3028, "annotation": {"number": 64, "value": 0}, "group": "control_change"}, {"time": 3030, "annotation": {"number": 64, "value": 127}, "group": "control_change"}, {"time": 3043, "annotation": {"number": 64, "value": 0}, "group": "control_change"}, {"time": 3044, "annotation": {"number": 64, "value": 127}, "group": "control_change"}, {"time": 3095, "annotation": {"number": 64, "value": 0}, "group": "control_change"}]}]}