{"metadata": {"schema_version": "0.2", "title": "None", "source_filename": "805.mid", "source_format": "midi"}, "resolution": 12, "tempos": [{"time": 0, "qpm": 88.00002346667293}, {"time": 864, "qpm": 87.80003833935008}], "time_signatures": [{"time": 0, "numerator": 1, "denominator": 4}], "tracks": [{"program": 0, "is_drum": false, "name": "MELODY", "notes": [{"time": 448, "pitch": 61, "duration": 7, "velocity": 92}, {"time": 454, "pitch": 63, "duration": 5, "velocity": 92}, {"time": 460, "pitch": 65, "duration": 13, "velocity": 90}, {"time": 478, "pitch": 68, "duration": 5, "velocity": 90}, {"time": 484, "pitch": 65, "duration": 6, "velocity": 90}, {"time": 490, "pitch": 63, "duration": 5, "velocity": 90}, {"time": 496, "pitch": 61, "duration": 6, "velocity": 90}, {"time": 502, "pitch": 56, "duration": 7, "velocity": 90}, {"time": 508, "pitch": 58, "duration": 26, "velocity": 90}, {"time": 544, "pitch": 61, "duration": 7, "velocity": 90}, {"time": 550, "pitch": 63, "duration": 6, "velocity": 90}, {"time": 556, "pitch": 65, "duration": 12, "velocity": 90}, {"time": 568, "pitch": 65, "duration": 7, "velocity": 90}, {"time": 574, "pitch": 68, "duration": 5, "velocity": 90}, {"time": 580, "pitch": 65, "duration": 4, "velocity": 90}, {"time": 586, "pitch": 63, "duration": 3, "velocity": 90}, {"time": 592, "pitch": 63, "duration": 4, "velocity": 90}, {"time": 598, "pitch": 61, "duration": 6, "velocity": 90}, {"time": 604, "pitch": 63, "duration": 19, "velocity": 90}, {"time": 640, "pitch": 65, "duration": 6, "velocity": 90}, {"time": 646, "pitch": 63, "duration": 7, "velocity": 90}, {"time": 652, "pitch": 61, "duration": 12, "velocity": 90}, {"time": 664, "pitch": 63, "duration": 7, "velocity": 90}, {"time": 670, "pitch": 61, "duration": 6, "velocity": 90}, {"time": 676, "pitch": 58, "duration": 9, "velocity": 90}, {"time": 688, "pitch": 58, "duration": 6, "velocity": 90}, {"time": 694, "pitch": 56, "duration": 6, "velocity": 90}, {"time": 700, "pitch": 65, "duration": 7, "velocity": 90}, {"time": 706, "pitch": 68, "duration": 6, "velocity": 90}, {"time": 712, "pitch": 70, "duration": 6, "velocity": 90}, {"time": 718, "pitch": 68, "duration": 7, "velocity": 90}, {"time": 724, "pitch": 65, "duration": 7, "velocity": 90}, {"time": 736, "pitch": 58, "duration": 7, "velocity": 90}, {"time": 742, "pitch": 65, "duration": 7, "velocity": 90}, {"time": 748, "pitch": 63, "duration": 8, "velocity": 90}, {"time": 760, "pitch": 63, "duration": 6, "velocity": 90}, {"time": 766, "pitch": 61, "duration": 7, "velocity": 90}, {"time": 772, "pitch": 58, "duration": 10, "velocity": 90}, {"time": 784, "pitch": 61, "duration": 5, "velocity": 90}, {"time": 790, "pitch": 65, "duration": 7, "velocity": 90}, {"time": 796, "pitch": 63, "duration": 25, "velocity": 90}, {"time": 832, "pitch": 61, "duration": 6, "velocity": 90}, {"time": 838, "pitch": 63, "duration": 6, "velocity": 90}, {"time": 844, "pitch": 65, "duration": 10, "velocity": 90}, {"time": 856, "pitch": 65, "duration": 6, "velocity": 90}, {"time": 862, "pitch": 68, "duration": 5, "velocity": 90}, {"time": 868, "pitch": 65, "duration": 6, "velocity": 90}, {"time": 874, "pitch": 63, "duration": 7, "velocity": 90}, {"time": 880, "pitch": 61, "duration": 6, "velocity": 90}, {"time": 886, "pitch": 56, "duration": 7, "velocity": 90}, {"time": 892, "pitch": 58, "duration": 22, "velocity": 90}, {"time": 928, "pitch": 61, "duration": 6, "velocity": 90}, {"time": 934, "pitch": 63, "duration": 6, "velocity": 90}, {"time": 940, "pitch": 65, "duration": 7, "velocity": 90}, {"time": 952, "pitch": 65, "duration": 6, "velocity": 90}, {"time": 958, "pitch": 68, "duration": 6, "velocity": 90}, {"time": 964, "pitch": 65, "duration": 6, "velocity": 90}, {"time": 970, "pitch": 63, "duration": 6, "velocity": 90}, {"time": 976, "pitch": 63, "duration": 6, "velocity": 90}, {"time": 982, "pitch": 61, "duration": 7, "velocity": 90}, {"time": 988, "pitch": 63, "duration": 24, "velocity": 90}, {"time": 1024, "pitch": 63, "duration": 5, "velocity": 90}, {"time": 1030, "pitch": 65, "duration": 6, "velocity": 90}, {"time": 1036, "pitch": 61, "duration": 9, "velocity": 90}, {"time": 1048, "pitch": 63, "duration": 7, "velocity": 90}, {"time": 1054, "pitch": 61, "duration": 6, "velocity": 90}, {"time": 1060, "pitch": 58, "duration": 7, "velocity": 90}, {"time": 1072, "pitch": 58, "duration": 6, "velocity": 90}, {"time": 1078, "pitch": 56, "duration": 6, "velocity": 90}, {"time": 1084, "pitch": 65, "duration": 6, "velocity": 90}, {"time": 1090, "pitch": 68, "duration": 6, "velocity": 90}, {"time": 1096, "pitch": 70, "duration": 6, "velocity": 90}, {"time": 1102, "pitch": 68, "duration": 6, "velocity": 90}, {"time": 1108, "pitch": 65, "duration": 10, "velocity": 90}, {"time": 1120, "pitch": 58, "duration": 8, "velocity": 90}, {"time": 1126, "pitch": 65, "duration": 7, "velocity": 90}, {"time": 1132, "pitch": 63, "duration": 9, "velocity": 90}, {"time": 1144, "pitch": 63, "duration": 7, "velocity": 90}, {"time": 1150, "pitch": 61, "duration": 7, "velocity": 90}, {"time": 1156, "pitch": 58, "duration": 3, "velocity": 90}, {"time": 1162, "pitch": 58, "duration": 6, "velocity": 90}, {"time": 1168, "pitch": 56, "duration": 6, "velocity": 90}, {"time": 1174, "pitch": 58, "duration": 6, "velocity": 90}, {"time": 1180, "pitch": 61, "duration": 24, "velocity": 90}, {"time": 1216, "pitch": 65, "duration": 7, "velocity": 90}, {"time": 1222, "pitch": 68, "duration": 7, "velocity": 90}, {"time": 1228, "pitch": 70, "duration": 4, "velocity": 90}, {"time": 1234, "pitch": 70, "duration": 4, "velocity": 90}, {"time": 1240, "pitch": 70, "duration": 5, "velocity": 90}, {"time": 1246, "pitch": 68, "duration": 5, "velocity": 90}, {"time": 1252, "pitch": 70, "duration": 8, "velocity": 90}, {"time": 1264, "pitch": 70, "duration": 6, "velocity": 90}, {"time": 1270, "pitch": 65, "duration": 6, "velocity": 90}, {"time": 1276, "pitch": 68, "duration": 4, "velocity": 90}, {"time": 1282, "pitch": 68, "duration": 5, "velocity": 90}, {"time": 1288, "pitch": 70, "duration": 6, "velocity": 90}, {"time": 1294, "pitch": 68, "duration": 7, "velocity": 90}, {"time": 1300, "pitch": 65, "duration": 13, "velocity": 90}, {"time": 1312, "pitch": 65, "duration": 1, "velocity": 90}, {"time": 1318, "pitch": 68, "duration": 7, "velocity": 90}, {"time": 1324, "pitch": 70, "duration": 4, "velocity": 90}, {"time": 1330, "pitch": 70, "duration": 4, "velocity": 90}, {"time": 1336, "pitch": 70, "duration": 5, "velocity": 90}, {"time": 1342, "pitch": 68, "duration": 5, "velocity": 90}, {"time": 1348, "pitch": 70, "duration": 8, "velocity": 90}, {"time": 1360, "pitch": 70, "duration": 6, "velocity": 90}, {"time": 1366, "pitch": 65, "duration": 6, "velocity": 90}, {"time": 1372, "pitch": 68, "duration": 23, "velocity": 90}, {"time": 1408, "pitch": 65, "duration": 7, "velocity": 90}, {"time": 1414, "pitch": 68, "duration": 7, "velocity": 90}, {"time": 1420, "pitch": 70, "duration": 4, "velocity": 90}, {"time": 1426, "pitch": 70, "duration": 4, "velocity": 90}, {"time": 1432, "pitch": 70, "duration": 5, "velocity": 90}, {"time": 1438, "pitch": 68, "duration": 5, "velocity": 90}, {"time": 1444, "pitch": 70, "duration": 8, "velocity": 90}, {"time": 1456, "pitch": 70, "duration": 6, "velocity": 90}, {"time": 1462, "pitch": 65, "duration": 6, "velocity": 90}, {"time": 1468, "pitch": 68, "duration": 12, "velocity": 90}, {"time": 1480, "pitch": 70, "duration": 6, "velocity": 90}, {"time": 1486, "pitch": 68, "duration": 7, "velocity": 90}, {"time": 1492, "pitch": 65, "duration": 11, "velocity": 90}, {"time": 1504, "pitch": 58, "duration": 6, "velocity": 90}, {"time": 1510, "pitch": 65, "duration": 5, "velocity": 90}, {"time": 1516, "pitch": 63, "duration": 7, "velocity": 90}, {"time": 1528, "pitch": 63, "duration": 7, "velocity": 90}, {"time": 1534, "pitch": 61, "duration": 7, "velocity": 90}, {"time": 1540, "pitch": 58, "duration": 4, "velocity": 90}, {"time": 1546, "pitch": 58, "duration": 4, "velocity": 90}, {"time": 1552, "pitch": 56, "duration": 4, "velocity": 90}, {"time": 1558, "pitch": 58, "duration": 4, "velocity": 90}, {"time": 1564, "pitch": 58, "duration": 24, "velocity": 90}, {"time": 1600, "pitch": 61, "duration": 7, "velocity": 90}, {"time": 1606, "pitch": 63, "duration": 5, "velocity": 90}, {"time": 1612, "pitch": 65, "duration": 13, "velocity": 90}, {"time": 1630, "pitch": 68, "duration": 5, "velocity": 90}, {"time": 1636, "pitch": 65, "duration": 6, "velocity": 90}, {"time": 1642, "pitch": 63, "duration": 5, "velocity": 90}, {"time": 1648, "pitch": 61, "duration": 6, "velocity": 90}, {"time": 1654, "pitch": 56, "duration": 7, "velocity": 90}, {"time": 1660, "pitch": 58, "duration": 26, "velocity": 90}, {"time": 1696, "pitch": 61, "duration": 7, "velocity": 90}, {"time": 1702, "pitch": 63, "duration": 6, "velocity": 90}, {"time": 1708, "pitch": 65, "duration": 12, "velocity": 90}, {"time": 1720, "pitch": 65, "duration": 7, "velocity": 90}, {"time": 1726, "pitch": 68, "duration": 5, "velocity": 90}, {"time": 1732, "pitch": 65, "duration": 4, "velocity": 90}, {"time": 1738, "pitch": 63, "duration": 3, "velocity": 90}, {"time": 1744, "pitch": 63, "duration": 4, "velocity": 90}, {"time": 1750, "pitch": 61, "duration": 6, "velocity": 90}, {"time": 1756, "pitch": 63, "duration": 19, "velocity": 90}, {"time": 1792, "pitch": 65, "duration": 6, "velocity": 90}, {"time": 1798, "pitch": 63, "duration": 7, "velocity": 90}, {"time": 1804, "pitch": 61, "duration": 12, "velocity": 90}, {"time": 1816, "pitch": 63, "duration": 7, "velocity": 90}, {"time": 1822, "pitch": 61, "duration": 6, "velocity": 90}, {"time": 1828, "pitch": 58, "duration": 9, "velocity": 90}, {"time": 1840, "pitch": 58, "duration": 6, "velocity": 90}, {"time": 1846, "pitch": 56, "duration": 6, "velocity": 90}, {"time": 1852, "pitch": 65, "duration": 7, "velocity": 90}, {"time": 1858, "pitch": 68, "duration": 6, "velocity": 90}, {"time": 1864, "pitch": 70, "duration": 6, "velocity": 90}, {"time": 1870, "pitch": 68, "duration": 7, "velocity": 90}, {"time": 1876, "pitch": 65, "duration": 7, "velocity": 90}, {"time": 1888, "pitch": 58, "duration": 7, "velocity": 90}, {"time": 1894, "pitch": 65, "duration": 7, "velocity": 90}, {"time": 1900, "pitch": 63, "duration": 8, "velocity": 90}, {"time": 1912, "pitch": 63, "duration": 6, "velocity": 90}, {"time": 1918, "pitch": 61, "duration": 7, "velocity": 90}, {"time": 1924, "pitch": 58, "duration": 5, "velocity": 90}, {"time": 1931, "pitch": 58, "duration": 5, "velocity": 90}, {"time": 1936, "pitch": 56, "duration": 5, "velocity": 90}, {"time": 1942, "pitch": 58, "duration": 5, "velocity": 90}, {"time": 1948, "pitch": 58, "duration": 21, "velocity": 90}, {"time": 2368, "pitch": 61, "duration": 7, "velocity": 90}, {"time": 2374, "pitch": 63, "duration": 5, "velocity": 90}, {"time": 2380, "pitch": 65, "duration": 13, "velocity": 90}, {"time": 2398, "pitch": 68, "duration": 5, "velocity": 90}, {"time": 2404, "pitch": 65, "duration": 6, "velocity": 90}, {"time": 2410, "pitch": 63, "duration": 5, "velocity": 90}, {"time": 2416, "pitch": 61, "duration": 6, "velocity": 90}, {"time": 2422, "pitch": 56, "duration": 7, "velocity": 90}, {"time": 2428, "pitch": 58, "duration": 26, "velocity": 90}, {"time": 2464, "pitch": 61, "duration": 7, "velocity": 90}, {"time": 2470, "pitch": 63, "duration": 6, "velocity": 90}, {"time": 2476, "pitch": 65, "duration": 12, "velocity": 90}, {"time": 2488, "pitch": 65, "duration": 7, "velocity": 90}, {"time": 2494, "pitch": 68, "duration": 5, "velocity": 90}, {"time": 2500, "pitch": 65, "duration": 4, "velocity": 90}, {"time": 2506, "pitch": 63, "duration": 3, "velocity": 90}, {"time": 2512, "pitch": 63, "duration": 4, "velocity": 90}, {"time": 2518, "pitch": 61, "duration": 6, "velocity": 90}, {"time": 2524, "pitch": 63, "duration": 19, "velocity": 90}, {"time": 2560, "pitch": 65, "duration": 6, "velocity": 90}, {"time": 2566, "pitch": 63, "duration": 7, "velocity": 90}, {"time": 2572, "pitch": 61, "duration": 12, "velocity": 90}, {"time": 2584, "pitch": 63, "duration": 7, "velocity": 90}, {"time": 2590, "pitch": 61, "duration": 6, "velocity": 90}, {"time": 2596, "pitch": 58, "duration": 9, "velocity": 90}, {"time": 2608, "pitch": 58, "duration": 6, "velocity": 90}, {"time": 2614, "pitch": 56, "duration": 6, "velocity": 90}, {"time": 2620, "pitch": 65, "duration": 7, "velocity": 90}, {"time": 2626, "pitch": 68, "duration": 6, "velocity": 90}, {"time": 2632, "pitch": 70, "duration": 6, "velocity": 90}, {"time": 2638, "pitch": 68, "duration": 7, "velocity": 90}, {"time": 2644, "pitch": 65, "duration": 7, "velocity": 90}, {"time": 2656, "pitch": 58, "duration": 7, "velocity": 90}, {"time": 2662, "pitch": 65, "duration": 7, "velocity": 90}, {"time": 2668, "pitch": 63, "duration": 8, "velocity": 90}, {"time": 2680, "pitch": 63, "duration": 6, "velocity": 90}, {"time": 2686, "pitch": 61, "duration": 7, "velocity": 90}, {"time": 2692, "pitch": 58, "duration": 10, "velocity": 90}, {"time": 2704, "pitch": 56, "duration": 5, "velocity": 90}, {"time": 2710, "pitch": 58, "duration": 6, "velocity": 90}, {"time": 2716, "pitch": 58, "duration": 24, "velocity": 90}, {"time": 2752, "pitch": 65, "duration": 7, "velocity": 90}, {"time": 2758, "pitch": 68, "duration": 7, "velocity": 90}, {"time": 2764, "pitch": 70, "duration": 4, "velocity": 90}, {"time": 2770, "pitch": 70, "duration": 4, "velocity": 90}, {"time": 2776, "pitch": 70, "duration": 5, "velocity": 90}, {"time": 2782, "pitch": 68, "duration": 5, "velocity": 90}, {"time": 2788, "pitch": 70, "duration": 8, "velocity": 90}, {"time": 2800, "pitch": 70, "duration": 6, "velocity": 90}, {"time": 2806, "pitch": 65, "duration": 6, "velocity": 90}, {"time": 2812, "pitch": 68, "duration": 4, "velocity": 90}, {"time": 2818, "pitch": 68, "duration": 5, "velocity": 90}, {"time": 2824, "pitch": 70, "duration": 6, "velocity": 90}, {"time": 2830, "pitch": 68, "duration": 7, "velocity": 90}, {"time": 2836, "pitch": 65, "duration": 13, "velocity": 90}, {"time": 2848, "pitch": 65, "duration": 1, "velocity": 90}, {"time": 2854, "pitch": 68, "duration": 7, "velocity": 90}, {"time": 2860, "pitch": 70, "duration": 4, "velocity": 90}, {"time": 2866, "pitch": 70, "duration": 4, "velocity": 90}, {"time": 2872, "pitch": 70, "duration": 5, "velocity": 90}, {"time": 2878, "pitch": 68, "duration": 5, "velocity": 90}, {"time": 2884, "pitch": 70, "duration": 8, "velocity": 90}, {"time": 2896, "pitch": 70, "duration": 6, "velocity": 90}, {"time": 2902, "pitch": 65, "duration": 6, "velocity": 90}, {"time": 2908, "pitch": 68, "duration": 23, "velocity": 90}, {"time": 2944, "pitch": 65, "duration": 7, "velocity": 90}, {"time": 2950, "pitch": 68, "duration": 7, "velocity": 90}, {"time": 2956, "pitch": 70, "duration": 4, "velocity": 90}, {"time": 2962, "pitch": 70, "duration": 4, "velocity": 90}, {"time": 2968, "pitch": 70, "duration": 5, "velocity": 92}, {"time": 2974, "pitch": 68, "duration": 5, "velocity": 87}, {"time": 2980, "pitch": 70, "duration": 8, "velocity": 87}, {"time": 2992, "pitch": 70, "duration": 6, "velocity": 87}, {"time": 2998, "pitch": 65, "duration": 6, "velocity": 87}, {"time": 3004, "pitch": 68, "duration": 12, "velocity": 87}, {"time": 3016, "pitch": 70, "duration": 6, "velocity": 87}, {"time": 3022, "pitch": 68, "duration": 7, "velocity": 87}, {"time": 3028, "pitch": 65, "duration": 11, "velocity": 87}, {"time": 3040, "pitch": 58, "duration": 6, "velocity": 87}, {"time": 3046, "pitch": 65, "duration": 5, "velocity": 87}, {"time": 3052, "pitch": 63, "duration": 7, "velocity": 87}, {"time": 3064, "pitch": 63, "duration": 7, "velocity": 87}, {"time": 3070, "pitch": 61, "duration": 7, "velocity": 87}, {"time": 3076, "pitch": 58, "duration": 4, "velocity": 87}, {"time": 3082, "pitch": 58, "duration": 4, "velocity": 87}, {"time": 3088, "pitch": 56, "duration": 4, "velocity": 87}, {"time": 3094, "pitch": 58, "duration": 4, "velocity": 87}, {"time": 3100, "pitch": 58, "duration": 24, "velocity": 87}, {"time": 3136, "pitch": 61, "duration": 6, "velocity": 87}, {"time": 3142, "pitch": 63, "duration": 6, "velocity": 87}, {"time": 3148, "pitch": 65, "duration": 10, "velocity": 87}, {"time": 3160, "pitch": 65, "duration": 6, "velocity": 87}, {"time": 3166, "pitch": 68, "duration": 5, "velocity": 87}, {"time": 3172, "pitch": 65, "duration": 6, "velocity": 87}, {"time": 3178, "pitch": 63, "duration": 7, "velocity": 87}, {"time": 3184, "pitch": 61, "duration": 6, "velocity": 87}, {"time": 3190, "pitch": 56, "duration": 7, "velocity": 87}, {"time": 3196, "pitch": 58, "duration": 22, "velocity": 87}, {"time": 3232, "pitch": 61, "duration": 6, "velocity": 87}, {"time": 3238, "pitch": 63, "duration": 6, "velocity": 87}, {"time": 3244, "pitch": 65, "duration": 7, "velocity": 87}, {"time": 3256, "pitch": 65, "duration": 6, "velocity": 87}, {"time": 3262, "pitch": 68, "duration": 6, "velocity": 87}, {"time": 3268, "pitch": 65, "duration": 6, "velocity": 87}, {"time": 3274, "pitch": 63, "duration": 6, "velocity": 87}, {"time": 3280, "pitch": 63, "duration": 6, "velocity": 87}, {"time": 3286, "pitch": 61, "duration": 7, "velocity": 87}, {"time": 3292, "pitch": 63, "duration": 24, "velocity": 87}, {"time": 3328, "pitch": 63, "duration": 5, "velocity": 87}, {"time": 3334, "pitch": 65, "duration": 6, "velocity": 87}, {"time": 3340, "pitch": 61, "duration": 9, "velocity": 87}, {"time": 3352, "pitch": 63, "duration": 7, "velocity": 87}, {"time": 3358, "pitch": 61, "duration": 6, "velocity": 87}, {"time": 3364, "pitch": 58, "duration": 7, "velocity": 87}, {"time": 3376, "pitch": 58, "duration": 6, "velocity": 87}, {"time": 3382, "pitch": 56, "duration": 6, "velocity": 87}, {"time": 3388, "pitch": 65, "duration": 6, "velocity": 87}, {"time": 3394, "pitch": 68, "duration": 6, "velocity": 87}, {"time": 3400, "pitch": 70, "duration": 6, "velocity": 87}, {"time": 3406, "pitch": 68, "duration": 6, "velocity": 87}, {"time": 3412, "pitch": 65, "duration": 10, "velocity": 87}, {"time": 3424, "pitch": 58, "duration": 8, "velocity": 87}, {"time": 3430, "pitch": 65, "duration": 7, "velocity": 87}, {"time": 3436, "pitch": 63, "duration": 9, "velocity": 87}, {"time": 3448, "pitch": 63, "duration": 7, "velocity": 87}, {"time": 3454, "pitch": 61, "duration": 7, "velocity": 87}, {"time": 3460, "pitch": 58, "duration": 3, "velocity": 87}, {"time": 3466, "pitch": 58, "duration": 6, "velocity": 87}, {"time": 3472, "pitch": 56, "duration": 6, "velocity": 87}, {"time": 3478, "pitch": 58, "duration": 6, "velocity": 87}, {"time": 3484, "pitch": 61, "duration": 24, "velocity": 87}, {"time": 3520, "pitch": 65, "duration": 7, "velocity": 87}, {"time": 3526, "pitch": 68, "duration": 7, "velocity": 87}, {"time": 3532, "pitch": 70, "duration": 4, "velocity": 87}, {"time": 3538, "pitch": 70, "duration": 4, "velocity": 87}, {"time": 3544, "pitch": 70, "duration": 5, "velocity": 87}, {"time": 3550, "pitch": 68, "duration": 5, "velocity": 87}, {"time": 3556, "pitch": 70, "duration": 8, "velocity": 85}, {"time": 3568, "pitch": 70, "duration": 6, "velocity": 85}, {"time": 3574, "pitch": 65, "duration": 6, "velocity": 85}, {"time": 3580, "pitch": 68, "duration": 4, "velocity": 85}, {"time": 3586, "pitch": 68, "duration": 5, "velocity": 85}, {"time": 3592, "pitch": 70, "duration": 6, "velocity": 87}, {"time": 3598, "pitch": 68, "duration": 7, "velocity": 87}, {"time": 3604, "pitch": 65, "duration": 13, "velocity": 87}, {"time": 3616, "pitch": 65, "duration": 1, "velocity": 87}, {"time": 3622, "pitch": 68, "duration": 7, "velocity": 87}, {"time": 3628, "pitch": 70, "duration": 4, "velocity": 87}, {"time": 3634, "pitch": 70, "duration": 4, "velocity": 87}, {"time": 3640, "pitch": 70, "duration": 5, "velocity": 87}, {"time": 3646, "pitch": 68, "duration": 5, "velocity": 87}, {"time": 3652, "pitch": 70, "duration": 8, "velocity": 87}, {"time": 3664, "pitch": 70, "duration": 6, "velocity": 87}, {"time": 3670, "pitch": 65, "duration": 6, "velocity": 87}, {"time": 3676, "pitch": 68, "duration": 23, "velocity": 87}, {"time": 3712, "pitch": 65, "duration": 7, "velocity": 87}, {"time": 3718, "pitch": 68, "duration": 7, "velocity": 87}, {"time": 3724, "pitch": 70, "duration": 4, "velocity": 87}, {"time": 3730, "pitch": 70, "duration": 4, "velocity": 87}, {"time": 3736, "pitch": 70, "duration": 5, "velocity": 87}, {"time": 3742, "pitch": 68, "duration": 5, "velocity": 87}, {"time": 3748, "pitch": 70, "duration": 8, "velocity": 87}, {"time": 3760, "pitch": 70, "duration": 6, "velocity": 87}, {"time": 3766, "pitch": 65, "duration": 6, "velocity": 87}, {"time": 3772, "pitch": 68, "duration": 12, "velocity": 87}, {"time": 3784, "pitch": 70, "duration": 6, "velocity": 90}, {"time": 3790, "pitch": 68, "duration": 7, "velocity": 90}, {"time": 3796, "pitch": 65, "duration": 11, "velocity": 90}, {"time": 3808, "pitch": 58, "duration": 6, "velocity": 90}, {"time": 3814, "pitch": 65, "duration": 5, "velocity": 90}, {"time": 3820, "pitch": 63, "duration": 7, "velocity": 90}, {"time": 3832, "pitch": 63, "duration": 7, "velocity": 90}, {"time": 3838, "pitch": 61, "duration": 7, "velocity": 90}, {"time": 3844, "pitch": 58, "duration": 4, "velocity": 90}, {"time": 3850, "pitch": 58, "duration": 4, "velocity": 90}, {"time": 3856, "pitch": 56, "duration": 4, "velocity": 90}, {"time": 3862, "pitch": 58, "duration": 4, "velocity": 90}, {"time": 3868, "pitch": 58, "duration": 24, "velocity": 90}, {"time": 3904, "pitch": 61, "duration": 7, "velocity": 90}, {"time": 3910, "pitch": 63, "duration": 5, "velocity": 90}, {"time": 3916, "pitch": 65, "duration": 13, "velocity": 90}, {"time": 3934, "pitch": 68, "duration": 5, "velocity": 90}, {"time": 3940, "pitch": 65, "duration": 6, "velocity": 90}, {"time": 3946, "pitch": 63, "duration": 5, "velocity": 90}, {"time": 3952, "pitch": 61, "duration": 6, "velocity": 90}, {"time": 3958, "pitch": 56, "duration": 7, "velocity": 90}, {"time": 3964, "pitch": 58, "duration": 26, "velocity": 90}, {"time": 4000, "pitch": 61, "duration": 7, "velocity": 90}, {"time": 4006, "pitch": 63, "duration": 6, "velocity": 90}, {"time": 4012, "pitch": 65, "duration": 12, "velocity": 90}, {"time": 4024, "pitch": 65, "duration": 7, "velocity": 90}, {"time": 4030, "pitch": 68, "duration": 5, "velocity": 90}, {"time": 4036, "pitch": 65, "duration": 4, "velocity": 90}, {"time": 4042, "pitch": 63, "duration": 3, "velocity": 90}, {"time": 4048, "pitch": 63, "duration": 4, "velocity": 90}, {"time": 4054, "pitch": 61, "duration": 6, "velocity": 90}, {"time": 4060, "pitch": 63, "duration": 19, "velocity": 90}, {"time": 4096, "pitch": 65, "duration": 6, "velocity": 90}, {"time": 4102, "pitch": 63, "duration": 7, "velocity": 90}, {"time": 4108, "pitch": 61, "duration": 12, "velocity": 90}, {"time": 4120, "pitch": 63, "duration": 7, "velocity": 90}, {"time": 4126, "pitch": 61, "duration": 6, "velocity": 90}, {"time": 4132, "pitch": 58, "duration": 9, "velocity": 90}, {"time": 4144, "pitch": 58, "duration": 6, "velocity": 90}, {"time": 4150, "pitch": 56, "duration": 6, "velocity": 90}, {"time": 4156, "pitch": 65, "duration": 7, "velocity": 90}, {"time": 4162, "pitch": 68, "duration": 6, "velocity": 90}, {"time": 4168, "pitch": 70, "duration": 6, "velocity": 90}, {"time": 4174, "pitch": 68, "duration": 7, "velocity": 90}, {"time": 4180, "pitch": 65, "duration": 7, "velocity": 90}, {"time": 4192, "pitch": 58, "duration": 7, "velocity": 90}, {"time": 4198, "pitch": 65, "duration": 7, "velocity": 90}, {"time": 4204, "pitch": 63, "duration": 8, "velocity": 90}, {"time": 4216, "pitch": 63, "duration": 6, "velocity": 90}, {"time": 4222, "pitch": 61, "duration": 7, "velocity": 90}, {"time": 4228, "pitch": 58, "duration": 5, "velocity": 90}, {"time": 4235, "pitch": 58, "duration": 5, "velocity": 90}, {"time": 4240, "pitch": 56, "duration": 5, "velocity": 90}, {"time": 4246, "pitch": 58, "duration": 5, "velocity": 90}, {"time": 4252, "pitch": 61, "duration": 21, "velocity": 90}]}, {"program": 0, "is_drum": false, "name": "BRIDGE", "notes": [{"time": 16, "pitch": 61, "duration": 7, "velocity": 83}, {"time": 22, "pitch": 63, "duration": 6, "velocity": 83}, {"time": 28, "pitch": 65, "duration": 11, "velocity": 83}, {"time": 46, "pitch": 68, "duration": 4, "velocity": 83}, {"time": 52, "pitch": 65, "duration": 6, "velocity": 83}, {"time": 58, "pitch": 63, "duration": 4, "velocity": 83}, {"time": 64, "pitch": 61, "duration": 6, "velocity": 83}, {"time": 70, "pitch": 56, "duration": 7, "velocity": 83}, {"time": 76, "pitch": 58, "duration": 30, "velocity": 83}, {"time": 112, "pitch": 61, "duration": 7, "velocity": 83}, {"time": 118, "pitch": 63, "duration": 6, "velocity": 83}, {"time": 124, "pitch": 65, "duration": 15, "velocity": 83}, {"time": 142, "pitch": 68, "duration": 4, "velocity": 83}, {"time": 148, "pitch": 65, "duration": 5, "velocity": 83}, {"time": 154, "pitch": 63, "duration": 4, "velocity": 83}, {"time": 160, "pitch": 63, "duration": 4, "velocity": 83}, {"time": 166, "pitch": 61, "duration": 6, "velocity": 83}, {"time": 172, "pitch": 63, "duration": 31, "velocity": 83}, {"time": 208, "pitch": 61, "duration": 8, "velocity": 83}, {"time": 214, "pitch": 63, "duration": 6, "velocity": 83}, {"time": 220, "pitch": 65, "duration": 17, "velocity": 83}, {"time": 238, "pitch": 68, "duration": 4, "velocity": 83}, {"time": 244, "pitch": 65, "duration": 7, "velocity": 83}, {"time": 250, "pitch": 63, "duration": 7, "velocity": 83}, {"time": 256, "pitch": 61, "duration": 5, "velocity": 83}, {"time": 262, "pitch": 56, "duration": 6, "velocity": 83}, {"time": 268, "pitch": 58, "duration": 34, "velocity": 83}, {"time": 304, "pitch": 61, "duration": 6, "velocity": 83}, {"time": 310, "pitch": 65, "duration": 7, "velocity": 83}, {"time": 316, "pitch": 63, "duration": 10, "velocity": 83}, {"time": 328, "pitch": 63, "duration": 6, "velocity": 83}, {"time": 334, "pitch": 61, "duration": 7, "velocity": 83}, {"time": 340, "pitch": 58, "duration": 13, "velocity": 83}, {"time": 352, "pitch": 56, "duration": 5, "velocity": 83}, {"time": 358, "pitch": 58, "duration": 5, "velocity": 83}, {"time": 364, "pitch": 61, "duration": 30, "velocity": 83}, {"time": 1186, "pitch": 56, "duration": 6, "velocity": 85}, {"time": 1192, "pitch": 61, "duration": 4, "velocity": 85}, {"time": 1198, "pitch": 63, "duration": 4, "velocity": 85}, {"time": 1204, "pitch": 65, "duration": 4, "velocity": 85}, {"time": 1211, "pitch": 65, "duration": 3, "velocity": 85}, {"time": 1216, "pitch": 68, "duration": 5, "velocity": 85}, {"time": 1222, "pitch": 70, "duration": 3, "velocity": 85}, {"time": 1228, "pitch": 70, "duration": 17, "velocity": 85}, {"time": 1672, "pitch": 65, "duration": 7, "velocity": 85}, {"time": 1678, "pitch": 63, "duration": 6, "velocity": 85}, {"time": 1684, "pitch": 65, "duration": 15, "velocity": 85}, {"time": 1768, "pitch": 63, "duration": 6, "velocity": 85}, {"time": 1774, "pitch": 61, "duration": 6, "velocity": 85}, {"time": 1780, "pitch": 63, "duration": 18, "velocity": 85}, {"time": 1984, "pitch": 61, "duration": 7, "velocity": 85}, {"time": 1990, "pitch": 63, "duration": 6, "velocity": 85}, {"time": 1996, "pitch": 65, "duration": 11, "velocity": 85}, {"time": 2014, "pitch": 68, "duration": 4, "velocity": 85}, {"time": 2020, "pitch": 65, "duration": 6, "velocity": 85}, {"time": 2026, "pitch": 63, "duration": 4, "velocity": 85}, {"time": 2032, "pitch": 61, "duration": 6, "velocity": 85}, {"time": 2038, "pitch": 56, "duration": 7, "velocity": 85}, {"time": 2044, "pitch": 58, "duration": 30, "velocity": 85}, {"time": 2080, "pitch": 61, "duration": 7, "velocity": 85}, {"time": 2086, "pitch": 63, "duration": 6, "velocity": 85}, {"time": 2092, "pitch": 65, "duration": 15, "velocity": 85}, {"time": 2110, "pitch": 68, "duration": 4, "velocity": 85}, {"time": 2116, "pitch": 65, "duration": 5, "velocity": 85}, {"time": 2122, "pitch": 63, "duration": 4, "velocity": 85}, {"time": 2128, "pitch": 63, "duration": 4, "velocity": 85}, {"time": 2134, "pitch": 61, "duration": 6, "velocity": 85}, {"time": 2140, "pitch": 63, "duration": 31, "velocity": 85}, {"time": 2176, "pitch": 61, "duration": 8, "velocity": 83}, {"time": 2182, "pitch": 63, "duration": 6, "velocity": 83}, {"time": 2188, "pitch": 65, "duration": 17, "velocity": 83}, {"time": 2206, "pitch": 68, "duration": 4, "velocity": 83}, {"time": 2212, "pitch": 65, "duration": 7, "velocity": 83}, {"time": 2218, "pitch": 63, "duration": 7, "velocity": 83}, {"time": 2224, "pitch": 61, "duration": 5, "velocity": 83}, {"time": 2230, "pitch": 56, "duration": 6, "velocity": 83}, {"time": 2236, "pitch": 58, "duration": 34, "velocity": 83}, {"time": 2272, "pitch": 61, "duration": 6, "velocity": 83}, {"time": 2278, "pitch": 65, "duration": 7, "velocity": 83}, {"time": 2284, "pitch": 63, "duration": 10, "velocity": 83}, {"time": 2296, "pitch": 63, "duration": 6, "velocity": 83}, {"time": 2302, "pitch": 61, "duration": 7, "velocity": 83}, {"time": 2308, "pitch": 58, "duration": 13, "velocity": 83}, {"time": 2320, "pitch": 56, "duration": 5, "velocity": 83}, {"time": 2326, "pitch": 58, "duration": 5, "velocity": 83}, {"time": 2332, "pitch": 61, "duration": 30, "velocity": 83}, {"time": 2440, "pitch": 70, "duration": 6, "velocity": 83}, {"time": 2446, "pitch": 68, "duration": 6, "velocity": 83}, {"time": 2452, "pitch": 65, "duration": 17, "velocity": 83}, {"time": 2530, "pitch": 68, "duration": 3, "velocity": 83}, {"time": 2536, "pitch": 68, "duration": 5, "velocity": 83}, {"time": 2542, "pitch": 65, "duration": 6, "velocity": 83}, {"time": 2722, "pitch": 56, "duration": 5, "velocity": 85}, {"time": 2728, "pitch": 61, "duration": 4, "velocity": 85}, {"time": 2734, "pitch": 63, "duration": 4, "velocity": 85}, {"time": 2740, "pitch": 65, "duration": 4, "velocity": 85}, {"time": 2746, "pitch": 68, "duration": 3, "velocity": 85}, {"time": 2752, "pitch": 65, "duration": 6, "velocity": 85}, {"time": 2758, "pitch": 68, "duration": 6, "velocity": 85}, {"time": 2764, "pitch": 70, "duration": 21, "velocity": 85}, {"time": 3304, "pitch": 63, "duration": 6, "velocity": 90}, {"time": 3310, "pitch": 61, "duration": 5, "velocity": 90}, {"time": 3316, "pitch": 63, "duration": 20, "velocity": 90}, {"time": 3679, "pitch": 70, "duration": 2, "velocity": 90}, {"time": 3685, "pitch": 70, "duration": 5, "velocity": 90}, {"time": 3691, "pitch": 65, "duration": 7, "velocity": 90}, {"time": 3697, "pitch": 68, "duration": 16, "velocity": 90}, {"time": 4288, "pitch": 61, "duration": 7, "velocity": 90}, {"time": 4294, "pitch": 63, "duration": 6, "velocity": 90}, {"time": 4300, "pitch": 65, "duration": 11, "velocity": 90}, {"time": 4318, "pitch": 68, "duration": 4, "velocity": 90}, {"time": 4324, "pitch": 65, "duration": 6, "velocity": 90}, {"time": 4330, "pitch": 63, "duration": 4, "velocity": 90}, {"time": 4336, "pitch": 61, "duration": 6, "velocity": 90}, {"time": 4342, "pitch": 56, "duration": 7, "velocity": 90}, {"time": 4348, "pitch": 58, "duration": 30, "velocity": 90}, {"time": 4384, "pitch": 61, "duration": 7, "velocity": 90}, {"time": 4390, "pitch": 63, "duration": 6, "velocity": 90}, {"time": 4396, "pitch": 65, "duration": 15, "velocity": 90}, {"time": 4414, "pitch": 68, "duration": 4, "velocity": 90}, {"time": 4420, "pitch": 65, "duration": 5, "velocity": 90}, {"time": 4426, "pitch": 63, "duration": 4, "velocity": 90}, {"time": 4432, "pitch": 63, "duration": 4, "velocity": 90}, {"time": 4438, "pitch": 61, "duration": 6, "velocity": 90}, {"time": 4444, "pitch": 63, "duration": 31, "velocity": 90}, {"time": 4474, "pitch": 75, "duration": 19, "velocity": 90}, {"time": 4492, "pitch": 73, "duration": 29, "velocity": 90}]}, {"program": 0, "is_drum": false, "name": "PIANO", "notes": [{"time": 28, "pitch": 49, "duration": 46, "velocity": 83}, {"time": 34, "pitch": 56, "duration": 6, "velocity": 83}, {"time": 40, "pitch": 61, "duration": 6, "velocity": 83}, {"time": 46, "pitch": 56, "duration": 6, "velocity": 83}, {"time": 52, "pitch": 65, "duration": 6, "velocity": 83}, {"time": 58, "pitch": 56, "duration": 7, "velocity": 83}, {"time": 64, "pitch": 68, "duration": 12, "velocity": 83}, {"time": 70, "pitch": 56, "duration": 6, "velocity": 83}, {"time": 76, "pitch": 46, "duration": 38, "velocity": 83}, {"time": 82, "pitch": 56, "duration": 9, "velocity": 83}, {"time": 88, "pitch": 61, "duration": 9, "velocity": 83}, {"time": 94, "pitch": 56, "duration": 9, "velocity": 83}, {"time": 100, "pitch": 65, "duration": 7, "velocity": 83}, {"time": 106, "pitch": 56, "duration": 7, "velocity": 83}, {"time": 112, "pitch": 70, "duration": 8, "velocity": 83}, {"time": 118, "pitch": 56, "duration": 5, "velocity": 83}, {"time": 124, "pitch": 49, "duration": 44, "velocity": 83}, {"time": 130, "pitch": 56, "duration": 9, "velocity": 83}, {"time": 136, "pitch": 61, "duration": 10, "velocity": 83}, {"time": 142, "pitch": 56, "duration": 8, "velocity": 83}, {"time": 148, "pitch": 65, "duration": 6, "velocity": 83}, {"time": 154, "pitch": 56, "duration": 8, "velocity": 83}, {"time": 160, "pitch": 68, "duration": 7, "velocity": 83}, {"time": 166, "pitch": 56, "duration": 5, "velocity": 83}, {"time": 172, "pitch": 51, "duration": 45, "velocity": 83}, {"time": 178, "pitch": 58, "duration": 11, "velocity": 83}, {"time": 184, "pitch": 63, "duration": 7, "velocity": 83}, {"time": 190, "pitch": 58, "duration": 10, "velocity": 83}, {"time": 196, "pitch": 66, "duration": 7, "velocity": 83}, {"time": 202, "pitch": 58, "duration": 11, "velocity": 83}, {"time": 208, "pitch": 70, "duration": 8, "velocity": 83}, {"time": 220, "pitch": 49, "duration": 46, "velocity": 83}, {"time": 226, "pitch": 56, "duration": 11, "velocity": 83}, {"time": 232, "pitch": 61, "duration": 12, "velocity": 83}, {"time": 238, "pitch": 56, "duration": 9, "velocity": 83}, {"time": 244, "pitch": 65, "duration": 8, "velocity": 83}, {"time": 250, "pitch": 56, "duration": 8, "velocity": 83}, {"time": 256, "pitch": 68, "duration": 11, "velocity": 83}, {"time": 262, "pitch": 56, "duration": 4, "velocity": 83}, {"time": 268, "pitch": 46, "duration": 44, "velocity": 83}, {"time": 274, "pitch": 58, "duration": 9, "velocity": 83}, {"time": 280, "pitch": 61, "duration": 11, "velocity": 83}, {"time": 286, "pitch": 58, "duration": 9, "velocity": 83}, {"time": 292, "pitch": 65, "duration": 7, "velocity": 83}, {"time": 298, "pitch": 58, "duration": 9, "velocity": 83}, {"time": 304, "pitch": 61, "duration": 11, "velocity": 83}, {"time": 310, "pitch": 58, "duration": 4, "velocity": 83}, {"time": 316, "pitch": 51, "duration": 21, "velocity": 83}, {"time": 323, "pitch": 58, "duration": 9, "velocity": 83}, {"time": 329, "pitch": 63, "duration": 9, "velocity": 83}, {"time": 329, "pitch": 66, "duration": 8, "velocity": 83}, {"time": 335, "pitch": 58, "duration": 6, "velocity": 83}, {"time": 341, "pitch": 42, "duration": 11, "velocity": 89}, {"time": 347, "pitch": 58, "duration": 5, "velocity": 78}, {"time": 353, "pitch": 44, "duration": 11, "velocity": 72}, {"time": 359, "pitch": 56, "duration": 6, "velocity": 65}, {"time": 364, "pitch": 49, "duration": 44, "velocity": 83}, {"time": 370, "pitch": 56, "duration": 11, "velocity": 83}, {"time": 377, "pitch": 61, "duration": 7, "velocity": 83}, {"time": 383, "pitch": 56, "duration": 9, "velocity": 83}, {"time": 388, "pitch": 65, "duration": 6, "velocity": 83}, {"time": 395, "pitch": 56, "duration": 10, "velocity": 83}, {"time": 401, "pitch": 61, "duration": 6, "velocity": 83}, {"time": 406, "pitch": 56, "duration": 4, "velocity": 83}, {"time": 412, "pitch": 49, "duration": 21, "velocity": 83}, {"time": 418, "pitch": 56, "duration": 8, "velocity": 83}, {"time": 424, "pitch": 61, "duration": 6, "velocity": 83}, {"time": 430, "pitch": 56, "duration": 6, "velocity": 83}, {"time": 436, "pitch": 49, "duration": 20, "velocity": 83}, {"time": 438, "pitch": 56, "duration": 17, "velocity": 83}, {"time": 438, "pitch": 61, "duration": 17, "velocity": 83}, {"time": 439, "pitch": 65, "duration": 16, "velocity": 83}, {"time": 441, "pitch": 68, "duration": 15, "velocity": 83}, {"time": 460, "pitch": 49, "duration": 43, "velocity": 83}, {"time": 466, "pitch": 56, "duration": 10, "velocity": 83}, {"time": 472, "pitch": 61, "duration": 7, "velocity": 83}, {"time": 478, "pitch": 56, "duration": 9, "velocity": 83}, {"time": 484, "pitch": 65, "duration": 5, "velocity": 83}, {"time": 490, "pitch": 56, "duration": 8, "velocity": 83}, {"time": 496, "pitch": 61, "duration": 4, "velocity": 83}, {"time": 502, "pitch": 56, "duration": 4, "velocity": 83}, {"time": 508, "pitch": 46, "duration": 44, "velocity": 83}, {"time": 514, "pitch": 58, "duration": 9, "velocity": 83}, {"time": 520, "pitch": 61, "duration": 7, "velocity": 83}, {"time": 526, "pitch": 58, "duration": 9, "velocity": 83}, {"time": 532, "pitch": 65, "duration": 6, "velocity": 83}, {"time": 538, "pitch": 58, "duration": 8, "velocity": 83}, {"time": 544, "pitch": 61, "duration": 6, "velocity": 83}, {"time": 550, "pitch": 58, "duration": 5, "velocity": 83}, {"time": 556, "pitch": 49, "duration": 44, "velocity": 83}, {"time": 562, "pitch": 56, "duration": 10, "velocity": 83}, {"time": 568, "pitch": 61, "duration": 6, "velocity": 83}, {"time": 574, "pitch": 56, "duration": 8, "velocity": 83}, {"time": 580, "pitch": 65, "duration": 6, "velocity": 83}, {"time": 586, "pitch": 56, "duration": 8, "velocity": 83}, {"time": 592, "pitch": 61, "duration": 6, "velocity": 83}, {"time": 598, "pitch": 56, "duration": 4, "velocity": 83}, {"time": 604, "pitch": 44, "duration": 48, "velocity": 86}, {"time": 610, "pitch": 51, "duration": 41, "velocity": 34}, {"time": 616, "pitch": 63, "duration": 15, "velocity": 73}, {"time": 622, "pitch": 56, "duration": 8, "velocity": 69}, {"time": 628, "pitch": 60, "duration": 20, "velocity": 66}, {"time": 634, "pitch": 56, "duration": 8, "velocity": 50}, {"time": 640, "pitch": 63, "duration": 12, "velocity": 72}, {"time": 646, "pitch": 68, "duration": 7, "velocity": 59}, {"time": 652, "pitch": 46, "duration": 21, "velocity": 90}, {"time": 658, "pitch": 53, "duration": 14, "velocity": 56}, {"time": 664, "pitch": 58, "duration": 9, "velocity": 82}, {"time": 670, "pitch": 61, "duration": 5, "velocity": 68}, {"time": 676, "pitch": 46, "duration": 20, "velocity": 83}, {"time": 682, "pitch": 58, "duration": 9, "velocity": 83}, {"time": 688, "pitch": 61, "duration": 7, "velocity": 83}, {"time": 694, "pitch": 58, "duration": 6, "velocity": 83}, {"time": 700, "pitch": 49, "duration": 17, "velocity": 85}, {"time": 706, "pitch": 56, "duration": 11, "velocity": 61}, {"time": 712, "pitch": 65, "duration": 13, "velocity": 70}, {"time": 712, "pitch": 68, "duration": 13, "velocity": 67}, {"time": 718, "pitch": 61, "duration": 7, "velocity": 68}, {"time": 724, "pitch": 46, "duration": 23, "velocity": 82}, {"time": 730, "pitch": 53, "duration": 16, "velocity": 53}, {"time": 736, "pitch": 58, "duration": 10, "velocity": 82}, {"time": 742, "pitch": 61, "duration": 5, "velocity": 63}, {"time": 742, "pitch": 65, "duration": 6, "velocity": 59}, {"time": 748, "pitch": 51, "duration": 44, "velocity": 83}, {"time": 754, "pitch": 58, "duration": 8, "velocity": 83}, {"time": 760, "pitch": 63, "duration": 7, "velocity": 83}, {"time": 766, "pitch": 58, "duration": 7, "velocity": 83}, {"time": 772, "pitch": 66, "duration": 6, "velocity": 83}, {"time": 778, "pitch": 58, "duration": 8, "velocity": 83}, {"time": 784, "pitch": 63, "duration": 7, "velocity": 83}, {"time": 790, "pitch": 58, "duration": 6, "velocity": 83}, {"time": 796, "pitch": 44, "duration": 74, "velocity": 83}, {"time": 802, "pitch": 56, "duration": 11, "velocity": 83}, {"time": 808, "pitch": 60, "duration": 6, "velocity": 83}, {"time": 814, "pitch": 56, "duration": 3, "velocity": 83}, {"time": 820, "pitch": 63, "duration": 48, "velocity": 83}, {"time": 820, "pitch": 56, "duration": 40, "velocity": 83}, {"time": 820, "pitch": 60, "duration": 49, "velocity": 83}, {"time": 844, "pitch": 49, "duration": 43, "velocity": 80}, {"time": 850, "pitch": 56, "duration": 10, "velocity": 80}, {"time": 856, "pitch": 61, "duration": 7, "velocity": 80}, {"time": 862, "pitch": 56, "duration": 6, "velocity": 80}, {"time": 868, "pitch": 65, "duration": 5, "velocity": 80}, {"time": 874, "pitch": 56, "duration": 8, "velocity": 80}, {"time": 880, "pitch": 61, "duration": 4, "velocity": 80}, {"time": 886, "pitch": 56, "duration": 4, "velocity": 80}, {"time": 892, "pitch": 46, "duration": 44, "velocity": 80}, {"time": 898, "pitch": 58, "duration": 9, "velocity": 80}, {"time": 904, "pitch": 61, "duration": 7, "velocity": 80}, {"time": 910, "pitch": 58, "duration": 9, "velocity": 80}, {"time": 916, "pitch": 65, "duration": 6, "velocity": 80}, {"time": 922, "pitch": 58, "duration": 8, "velocity": 80}, {"time": 928, "pitch": 61, "duration": 6, "velocity": 80}, {"time": 934, "pitch": 58, "duration": 5, "velocity": 80}, {"time": 940, "pitch": 49, "duration": 44, "velocity": 85}, {"time": 946, "pitch": 56, "duration": 10, "velocity": 85}, {"time": 952, "pitch": 61, "duration": 6, "velocity": 85}, {"time": 958, "pitch": 56, "duration": 8, "velocity": 85}, {"time": 964, "pitch": 65, "duration": 6, "velocity": 85}, {"time": 970, "pitch": 56, "duration": 8, "velocity": 85}, {"time": 976, "pitch": 61, "duration": 6, "velocity": 85}, {"time": 982, "pitch": 56, "duration": 4, "velocity": 85}, {"time": 988, "pitch": 44, "duration": 36, "velocity": 82}, {"time": 994, "pitch": 51, "duration": 30, "velocity": 64}, {"time": 1000, "pitch": 63, "duration": 18, "velocity": 77}, {"time": 1006, "pitch": 56, "duration": 9, "velocity": 88}, {"time": 1012, "pitch": 68, "duration": 23, "velocity": 99}, {"time": 1018, "pitch": 56, "duration": 8, "velocity": 64}, {"time": 1024, "pitch": 63, "duration": 12, "velocity": 78}, {"time": 1030, "pitch": 60, "duration": 6, "velocity": 79}, {"time": 1036, "pitch": 46, "duration": 25, "velocity": 88}, {"time": 1042, "pitch": 53, "duration": 17, "velocity": 59}, {"time": 1048, "pitch": 58, "duration": 11, "velocity": 77}, {"time": 1054, "pitch": 65, "duration": 6, "velocity": 78}, {"time": 1060, "pitch": 46, "duration": 1, "velocity": 85}, {"time": 1066, "pitch": 58, "duration": 9, "velocity": 85}, {"time": 1072, "pitch": 61, "duration": 7, "velocity": 85}, {"time": 1078, "pitch": 58, "duration": 6, "velocity": 85}, {"time": 1084, "pitch": 49, "duration": 18, "velocity": 79}, {"time": 1090, "pitch": 61, "duration": 9, "velocity": 65}, {"time": 1096, "pitch": 68, "duration": 11, "velocity": 95}, {"time": 1102, "pitch": 61, "duration": 6, "velocity": 83}, {"time": 1108, "pitch": 46, "duration": 21, "velocity": 100}, {"time": 1114, "pitch": 58, "duration": 13, "velocity": 81}, {"time": 1120, "pitch": 65, "duration": 11, "velocity": 79}, {"time": 1126, "pitch": 61, "duration": 5, "velocity": 55}, {"time": 1132, "pitch": 51, "duration": 24, "velocity": 85}, {"time": 1138, "pitch": 58, "duration": 8, "velocity": 85}, {"time": 1144, "pitch": 63, "duration": 7, "velocity": 85}, {"time": 1150, "pitch": 58, "duration": 7, "velocity": 85}, {"time": 1156, "pitch": 44, "duration": 20, "velocity": 85}, {"time": 1162, "pitch": 56, "duration": 8, "velocity": 85}, {"time": 1168, "pitch": 60, "duration": 7, "velocity": 85}, {"time": 1174, "pitch": 56, "duration": 6, "velocity": 85}, {"time": 1180, "pitch": 49, "duration": 45, "velocity": 85}, {"time": 1186, "pitch": 56, "duration": 9, "velocity": 85}, {"time": 1192, "pitch": 61, "duration": 7, "velocity": 85}, {"time": 1198, "pitch": 56, "duration": 9, "velocity": 85}, {"time": 1204, "pitch": 65, "duration": 6, "velocity": 85}, {"time": 1210, "pitch": 56, "duration": 6, "velocity": 85}, {"time": 1216, "pitch": 68, "duration": 6, "velocity": 85}, {"time": 1222, "pitch": 56, "duration": 6, "velocity": 85}, {"time": 1228, "pitch": 46, "duration": 43, "velocity": 85}, {"time": 1234, "pitch": 58, "duration": 11, "velocity": 85}, {"time": 1240, "pitch": 61, "duration": 7, "velocity": 85}, {"time": 1246, "pitch": 58, "duration": 8, "velocity": 85}, {"time": 1252, "pitch": 65, "duration": 7, "velocity": 85}, {"time": 1258, "pitch": 58, "duration": 9, "velocity": 85}, {"time": 1264, "pitch": 61, "duration": 6, "velocity": 85}, {"time": 1270, "pitch": 58, "duration": 6, "velocity": 85}, {"time": 1276, "pitch": 41, "duration": 23, "velocity": 69}, {"time": 1282, "pitch": 48, "duration": 16, "velocity": 63}, {"time": 1288, "pitch": 65, "duration": 11, "velocity": 66}, {"time": 1288, "pitch": 68, "duration": 11, "velocity": 82}, {"time": 1294, "pitch": 60, "duration": 6, "velocity": 67}, {"time": 1300, "pitch": 41, "duration": 22, "velocity": 85}, {"time": 1306, "pitch": 48, "duration": 15, "velocity": 61}, {"time": 1312, "pitch": 65, "duration": 12, "velocity": 70}, {"time": 1315, "pitch": 53, "duration": 6, "velocity": 69}, {"time": 1318, "pitch": 60, "duration": 7, "velocity": 61}, {"time": 1324, "pitch": 46, "duration": 44, "velocity": 85}, {"time": 1330, "pitch": 58, "duration": 10, "velocity": 85}, {"time": 1336, "pitch": 61, "duration": 6, "velocity": 85}, {"time": 1342, "pitch": 58, "duration": 9, "velocity": 85}, {"time": 1348, "pitch": 65, "duration": 8, "velocity": 85}, {"time": 1354, "pitch": 58, "duration": 7, "velocity": 85}, {"time": 1360, "pitch": 68, "duration": 6, "velocity": 85}, {"time": 1366, "pitch": 58, "duration": 6, "velocity": 85}, {"time": 1372, "pitch": 41, "duration": 44, "velocity": 85}, {"time": 1378, "pitch": 53, "duration": 8, "velocity": 85}, {"time": 1384, "pitch": 60, "duration": 8, "velocity": 85}, {"time": 1390, "pitch": 53, "duration": 10, "velocity": 85}, {"time": 1396, "pitch": 65, "duration": 7, "velocity": 85}, {"time": 1402, "pitch": 53, "duration": 9, "velocity": 85}, {"time": 1408, "pitch": 68, "duration": 6, "velocity": 85}, {"time": 1414, "pitch": 53, "duration": 6, "velocity": 85}, {"time": 1420, "pitch": 46, "duration": 44, "velocity": 85}, {"time": 1426, "pitch": 58, "duration": 10, "velocity": 85}, {"time": 1432, "pitch": 61, "duration": 6, "velocity": 85}, {"time": 1438, "pitch": 58, "duration": 9, "velocity": 85}, {"time": 1444, "pitch": 65, "duration": 6, "velocity": 85}, {"time": 1450, "pitch": 58, "duration": 8, "velocity": 85}, {"time": 1456, "pitch": 61, "duration": 5, "velocity": 85}, {"time": 1462, "pitch": 58, "duration": 4, "velocity": 85}, {"time": 1468, "pitch": 49, "duration": 19, "velocity": 85}, {"time": 1474, "pitch": 56, "duration": 9, "velocity": 85}, {"time": 1480, "pitch": 61, "duration": 6, "velocity": 85}, {"time": 1486, "pitch": 56, "duration": 4, "velocity": 85}, {"time": 1492, "pitch": 46, "duration": 20, "velocity": 85}, {"time": 1498, "pitch": 58, "duration": 10, "velocity": 85}, {"time": 1504, "pitch": 61, "duration": 6, "velocity": 85}, {"time": 1510, "pitch": 58, "duration": 4, "velocity": 85}, {"time": 1516, "pitch": 51, "duration": 16, "velocity": 85}, {"time": 1522, "pitch": 58, "duration": 6, "velocity": 85}, {"time": 1528, "pitch": 66, "duration": 6, "velocity": 85}, {"time": 1540, "pitch": 42, "duration": 13, "velocity": 88}, {"time": 1540, "pitch": 61, "duration": 6, "velocity": 52}, {"time": 1540, "pitch": 66, "duration": 5, "velocity": 59}, {"time": 1540, "pitch": 70, "duration": 5, "velocity": 54}, {"time": 1546, "pitch": 54, "duration": 7, "velocity": 82}, {"time": 1552, "pitch": 44, "duration": 6, "velocity": 85}, {"time": 1552, "pitch": 56, "duration": 9, "velocity": 53}, {"time": 1552, "pitch": 63, "duration": 10, "velocity": 69}, {"time": 1558, "pitch": 56, "duration": 3, "velocity": 85}, {"time": 1564, "pitch": 46, "duration": 21, "velocity": 85}, {"time": 1570, "pitch": 58, "duration": 11, "velocity": 85}, {"time": 1576, "pitch": 61, "duration": 7, "velocity": 85}, {"time": 1582, "pitch": 58, "duration": 3, "velocity": 85}, {"time": 1588, "pitch": 46, "duration": 12, "velocity": 85}, {"time": 1588, "pitch": 58, "duration": 12, "velocity": 85}, {"time": 1588, "pitch": 61, "duration": 12, "velocity": 85}, {"time": 1588, "pitch": 65, "duration": 12, "velocity": 85}, {"time": 1612, "pitch": 49, "duration": 43, "velocity": 85}, {"time": 1618, "pitch": 56, "duration": 10, "velocity": 85}, {"time": 1624, "pitch": 61, "duration": 7, "velocity": 85}, {"time": 1630, "pitch": 56, "duration": 9, "velocity": 85}, {"time": 1636, "pitch": 65, "duration": 5, "velocity": 85}, {"time": 1642, "pitch": 56, "duration": 8, "velocity": 85}, {"time": 1648, "pitch": 61, "duration": 4, "velocity": 85}, {"time": 1654, "pitch": 56, "duration": 4, "velocity": 85}, {"time": 1660, "pitch": 46, "duration": 44, "velocity": 85}, {"time": 1666, "pitch": 58, "duration": 9, "velocity": 85}, {"time": 1672, "pitch": 61, "duration": 7, "velocity": 85}, {"time": 1678, "pitch": 58, "duration": 9, "velocity": 85}, {"time": 1684, "pitch": 65, "duration": 6, "velocity": 85}, {"time": 1690, "pitch": 58, "duration": 8, "velocity": 85}, {"time": 1696, "pitch": 61, "duration": 6, "velocity": 85}, {"time": 1702, "pitch": 58, "duration": 5, "velocity": 85}, {"time": 1708, "pitch": 49, "duration": 44, "velocity": 85}, {"time": 1714, "pitch": 56, "duration": 10, "velocity": 85}, {"time": 1720, "pitch": 61, "duration": 6, "velocity": 85}, {"time": 1726, "pitch": 56, "duration": 8, "velocity": 85}, {"time": 1732, "pitch": 65, "duration": 6, "velocity": 85}, {"time": 1738, "pitch": 56, "duration": 8, "velocity": 85}, {"time": 1744, "pitch": 61, "duration": 6, "velocity": 85}, {"time": 1750, "pitch": 56, "duration": 4, "velocity": 85}, {"time": 1756, "pitch": 44, "duration": 22, "velocity": 81}, {"time": 1762, "pitch": 51, "duration": 17, "velocity": 34}, {"time": 1768, "pitch": 60, "duration": 21, "velocity": 73}, {"time": 1768, "pitch": 63, "duration": 20, "velocity": 54}, {"time": 1774, "pitch": 56, "duration": 16, "velocity": 68}, {"time": 1780, "pitch": 44, "duration": 14, "velocity": 72}, {"time": 1786, "pitch": 51, "duration": 9, "velocity": 38}, {"time": 1792, "pitch": 60, "duration": 11, "velocity": 66}, {"time": 1792, "pitch": 63, "duration": 11, "velocity": 75}, {"time": 1798, "pitch": 56, "duration": 6, "velocity": 68}, {"time": 1804, "pitch": 46, "duration": 23, "velocity": 64}, {"time": 1810, "pitch": 58, "duration": 9, "velocity": 72}, {"time": 1816, "pitch": 61, "duration": 11, "velocity": 64}, {"time": 1822, "pitch": 58, "duration": 6, "velocity": 53}, {"time": 1828, "pitch": 46, "duration": 20, "velocity": 85}, {"time": 1834, "pitch": 58, "duration": 9, "velocity": 85}, {"time": 1840, "pitch": 61, "duration": 7, "velocity": 85}, {"time": 1846, "pitch": 58, "duration": 6, "velocity": 85}, {"time": 1852, "pitch": 49, "duration": 23, "velocity": 90}, {"time": 1858, "pitch": 61, "duration": 8, "velocity": 69}, {"time": 1864, "pitch": 65, "duration": 10, "velocity": 51}, {"time": 1864, "pitch": 68, "duration": 10, "velocity": 82}, {"time": 1870, "pitch": 61, "duration": 6, "velocity": 68}, {"time": 1876, "pitch": 46, "duration": 21, "velocity": 77}, {"time": 1882, "pitch": 58, "duration": 8, "velocity": 73}, {"time": 1888, "pitch": 61, "duration": 10, "velocity": 67}, {"time": 1888, "pitch": 65, "duration": 10, "velocity": 66}, {"time": 1894, "pitch": 58, "duration": 5, "velocity": 77}, {"time": 1900, "pitch": 51, "duration": 24, "velocity": 85}, {"time": 1906, "pitch": 58, "duration": 8, "velocity": 85}, {"time": 1912, "pitch": 63, "duration": 7, "velocity": 85}, {"time": 1918, "pitch": 58, "duration": 7, "velocity": 85}, {"time": 1924, "pitch": 44, "duration": 20, "velocity": 85}, {"time": 1930, "pitch": 56, "duration": 8, "velocity": 85}, {"time": 1936, "pitch": 60, "duration": 7, "velocity": 85}, {"time": 1942, "pitch": 56, "duration": 6, "velocity": 85}, {"time": 1948, "pitch": 46, "duration": 22, "velocity": 75}, {"time": 1954, "pitch": 53, "duration": 18, "velocity": 61}, {"time": 1960, "pitch": 61, "duration": 21, "velocity": 63}, {"time": 1960, "pitch": 65, "duration": 34, "velocity": 63}, {"time": 1966, "pitch": 58, "duration": 19, "velocity": 79}, {"time": 1972, "pitch": 46, "duration": 23, "velocity": 60}, {"time": 1978, "pitch": 53, "duration": 16, "velocity": 55}, {"time": 1984, "pitch": 61, "duration": 11, "velocity": 69}, {"time": 1990, "pitch": 58, "duration": 6, "velocity": 52}, {"time": 1996, "pitch": 49, "duration": 46, "velocity": 85}, {"time": 2002, "pitch": 56, "duration": 6, "velocity": 85}, {"time": 2008, "pitch": 61, "duration": 7, "velocity": 85}, {"time": 2014, "pitch": 56, "duration": 6, "velocity": 85}, {"time": 2020, "pitch": 65, "duration": 6, "velocity": 85}, {"time": 2026, "pitch": 56, "duration": 7, "velocity": 85}, {"time": 2032, "pitch": 68, "duration": 12, "velocity": 85}, {"time": 2038, "pitch": 56, "duration": 7, "velocity": 85}, {"time": 2044, "pitch": 46, "duration": 38, "velocity": 85}, {"time": 2050, "pitch": 56, "duration": 9, "velocity": 85}, {"time": 2056, "pitch": 61, "duration": 9, "velocity": 85}, {"time": 2062, "pitch": 56, "duration": 9, "velocity": 85}, {"time": 2068, "pitch": 65, "duration": 7, "velocity": 85}, {"time": 2074, "pitch": 56, "duration": 7, "velocity": 85}, {"time": 2080, "pitch": 70, "duration": 8, "velocity": 85}, {"time": 2086, "pitch": 56, "duration": 5, "velocity": 85}, {"time": 2092, "pitch": 49, "duration": 44, "velocity": 85}, {"time": 2098, "pitch": 56, "duration": 9, "velocity": 85}, {"time": 2104, "pitch": 61, "duration": 10, "velocity": 85}, {"time": 2110, "pitch": 56, "duration": 8, "velocity": 85}, {"time": 2116, "pitch": 65, "duration": 6, "velocity": 85}, {"time": 2122, "pitch": 56, "duration": 8, "velocity": 85}, {"time": 2128, "pitch": 68, "duration": 7, "velocity": 85}, {"time": 2134, "pitch": 56, "duration": 5, "velocity": 85}, {"time": 2140, "pitch": 44, "duration": 15, "velocity": 79}, {"time": 2146, "pitch": 51, "duration": 10, "velocity": 52}, {"time": 2152, "pitch": 60, "duration": 16, "velocity": 76}, {"time": 2152, "pitch": 63, "duration": 18, "velocity": 90}, {"time": 2158, "pitch": 44, "duration": 5, "velocity": 64}, {"time": 2164, "pitch": 44, "duration": 19, "velocity": 76}, {"time": 2170, "pitch": 56, "duration": 7, "velocity": 63}, {"time": 2176, "pitch": 60, "duration": 11, "velocity": 62}, {"time": 2176, "pitch": 63, "duration": 12, "velocity": 62}, {"time": 2182, "pitch": 56, "duration": 5, "velocity": 61}, {"time": 2188, "pitch": 49, "duration": 46, "velocity": 85}, {"time": 2194, "pitch": 56, "duration": 11, "velocity": 85}, {"time": 2200, "pitch": 61, "duration": 12, "velocity": 85}, {"time": 2206, "pitch": 56, "duration": 9, "velocity": 85}, {"time": 2212, "pitch": 65, "duration": 8, "velocity": 85}, {"time": 2218, "pitch": 56, "duration": 8, "velocity": 85}, {"time": 2224, "pitch": 68, "duration": 11, "velocity": 85}, {"time": 2230, "pitch": 56, "duration": 4, "velocity": 85}, {"time": 2236, "pitch": 46, "duration": 44, "velocity": 85}, {"time": 2242, "pitch": 58, "duration": 9, "velocity": 85}, {"time": 2248, "pitch": 61, "duration": 11, "velocity": 85}, {"time": 2254, "pitch": 58, "duration": 9, "velocity": 85}, {"time": 2260, "pitch": 65, "duration": 7, "velocity": 85}, {"time": 2266, "pitch": 58, "duration": 9, "velocity": 85}, {"time": 2272, "pitch": 61, "duration": 11, "velocity": 85}, {"time": 2278, "pitch": 58, "duration": 4, "velocity": 85}, {"time": 2284, "pitch": 51, "duration": 21, "velocity": 85}, {"time": 2291, "pitch": 58, "duration": 9, "velocity": 85}, {"time": 2296, "pitch": 63, "duration": 9, "velocity": 85}, {"time": 2296, "pitch": 66, "duration": 8, "velocity": 85}, {"time": 2303, "pitch": 58, "duration": 6, "velocity": 85}, {"time": 2308, "pitch": 44, "duration": 19, "velocity": 85}, {"time": 2314, "pitch": 56, "duration": 10, "velocity": 85}, {"time": 2320, "pitch": 60, "duration": 7, "velocity": 85}, {"time": 2320, "pitch": 63, "duration": 7, "velocity": 85}, {"time": 2320, "pitch": 68, "duration": 7, "velocity": 85}, {"time": 2326, "pitch": 56, "duration": 6, "velocity": 85}, {"time": 2332, "pitch": 49, "duration": 44, "velocity": 85}, {"time": 2338, "pitch": 56, "duration": 11, "velocity": 85}, {"time": 2345, "pitch": 61, "duration": 7, "velocity": 85}, {"time": 2351, "pitch": 56, "duration": 9, "velocity": 85}, {"time": 2356, "pitch": 65, "duration": 6, "velocity": 85}, {"time": 2363, "pitch": 56, "duration": 10, "velocity": 85}, {"time": 2380, "pitch": 49, "duration": 43, "velocity": 85}, {"time": 2386, "pitch": 56, "duration": 10, "velocity": 85}, {"time": 2392, "pitch": 61, "duration": 7, "velocity": 85}, {"time": 2398, "pitch": 56, "duration": 9, "velocity": 85}, {"time": 2404, "pitch": 65, "duration": 5, "velocity": 85}, {"time": 2410, "pitch": 56, "duration": 8, "velocity": 85}, {"time": 2416, "pitch": 61, "duration": 4, "velocity": 85}, {"time": 2422, "pitch": 56, "duration": 4, "velocity": 85}, {"time": 2428, "pitch": 46, "duration": 44, "velocity": 85}, {"time": 2434, "pitch": 58, "duration": 9, "velocity": 85}, {"time": 2440, "pitch": 61, "duration": 7, "velocity": 85}, {"time": 2446, "pitch": 58, "duration": 9, "velocity": 85}, {"time": 2452, "pitch": 65, "duration": 6, "velocity": 85}, {"time": 2458, "pitch": 58, "duration": 8, "velocity": 85}, {"time": 2464, "pitch": 61, "duration": 6, "velocity": 85}, {"time": 2470, "pitch": 58, "duration": 5, "velocity": 85}, {"time": 2476, "pitch": 49, "duration": 44, "velocity": 85}, {"time": 2482, "pitch": 56, "duration": 10, "velocity": 85}, {"time": 2488, "pitch": 61, "duration": 6, "velocity": 85}, {"time": 2494, "pitch": 56, "duration": 8, "velocity": 85}, {"time": 2500, "pitch": 65, "duration": 6, "velocity": 85}, {"time": 2506, "pitch": 56, "duration": 8, "velocity": 85}, {"time": 2512, "pitch": 61, "duration": 6, "velocity": 85}, {"time": 2518, "pitch": 56, "duration": 4, "velocity": 85}, {"time": 2524, "pitch": 44, "duration": 21, "velocity": 66}, {"time": 2530, "pitch": 51, "duration": 18, "velocity": 45}, {"time": 2536, "pitch": 63, "duration": 20, "velocity": 72}, {"time": 2542, "pitch": 56, "duration": 11, "velocity": 71}, {"time": 2548, "pitch": 44, "duration": 15, "velocity": 66}, {"time": 2554, "pitch": 56, "duration": 11, "velocity": 62}, {"time": 2560, "pitch": 63, "duration": 11, "velocity": 93}, {"time": 2566, "pitch": 56, "duration": 5, "velocity": 73}, {"time": 2572, "pitch": 46, "duration": 21, "velocity": 78}, {"time": 2578, "pitch": 53, "duration": 15, "velocity": 53}, {"time": 2584, "pitch": 61, "duration": 13, "velocity": 86}, {"time": 2590, "pitch": 58, "duration": 6, "velocity": 67}, {"time": 2596, "pitch": 46, "duration": 20, "velocity": 85}, {"time": 2602, "pitch": 58, "duration": 9, "velocity": 85}, {"time": 2608, "pitch": 61, "duration": 7, "velocity": 85}, {"time": 2614, "pitch": 58, "duration": 6, "velocity": 85}, {"time": 2620, "pitch": 49, "duration": 24, "velocity": 63}, {"time": 2626, "pitch": 61, "duration": 7, "velocity": 65}, {"time": 2632, "pitch": 65, "duration": 9, "velocity": 63}, {"time": 2632, "pitch": 68, "duration": 9, "velocity": 48}, {"time": 2638, "pitch": 61, "duration": 6, "velocity": 59}, {"time": 2644, "pitch": 46, "duration": 22, "velocity": 66}, {"time": 2650, "pitch": 58, "duration": 16, "velocity": 65}, {"time": 2656, "pitch": 65, "duration": 12, "velocity": 69}, {"time": 2662, "pitch": 61, "duration": 6, "velocity": 72}, {"time": 2668, "pitch": 51, "duration": 24, "velocity": 85}, {"time": 2674, "pitch": 58, "duration": 8, "velocity": 85}, {"time": 2680, "pitch": 63, "duration": 7, "velocity": 85}, {"time": 2686, "pitch": 58, "duration": 7, "velocity": 85}, {"time": 2692, "pitch": 44, "duration": 20, "velocity": 85}, {"time": 2698, "pitch": 56, "duration": 8, "velocity": 85}, {"time": 2704, "pitch": 60, "duration": 7, "velocity": 85}, {"time": 2710, "pitch": 56, "duration": 6, "velocity": 85}, {"time": 2716, "pitch": 49, "duration": 45, "velocity": 85}, {"time": 2722, "pitch": 56, "duration": 9, "velocity": 85}, {"time": 2728, "pitch": 61, "duration": 7, "velocity": 85}, {"time": 2734, "pitch": 56, "duration": 9, "velocity": 85}, {"time": 2740, "pitch": 65, "duration": 6, "velocity": 85}, {"time": 2746, "pitch": 56, "duration": 6, "velocity": 85}, {"time": 2752, "pitch": 68, "duration": 6, "velocity": 85}, {"time": 2758, "pitch": 56, "duration": 6, "velocity": 85}, {"time": 2764, "pitch": 46, "duration": 43, "velocity": 85}, {"time": 2770, "pitch": 58, "duration": 11, "velocity": 85}, {"time": 2776, "pitch": 61, "duration": 7, "velocity": 85}, {"time": 2782, "pitch": 58, "duration": 8, "velocity": 85}, {"time": 2788, "pitch": 65, "duration": 7, "velocity": 85}, {"time": 2794, "pitch": 58, "duration": 9, "velocity": 85}, {"time": 2800, "pitch": 61, "duration": 6, "velocity": 85}, {"time": 2806, "pitch": 58, "duration": 6, "velocity": 85}, {"time": 2812, "pitch": 41, "duration": 45, "velocity": 79}, {"time": 2818, "pitch": 48, "duration": 37, "velocity": 46}, {"time": 2824, "pitch": 53, "duration": 16, "velocity": 73}, {"time": 2830, "pitch": 65, "duration": 15, "velocity": 73}, {"time": 2830, "pitch": 68, "duration": 16, "velocity": 77}, {"time": 2836, "pitch": 60, "duration": 13, "velocity": 85}, {"time": 2842, "pitch": 53, "duration": 6, "velocity": 66}, {"time": 2848, "pitch": 65, "duration": 11, "velocity": 76}, {"time": 2848, "pitch": 68, "duration": 12, "velocity": 77}, {"time": 2854, "pitch": 60, "duration": 6, "velocity": 75}, {"time": 2860, "pitch": 46, "duration": 44, "velocity": 85}, {"time": 2866, "pitch": 58, "duration": 10, "velocity": 85}, {"time": 2872, "pitch": 61, "duration": 6, "velocity": 85}, {"time": 2878, "pitch": 58, "duration": 9, "velocity": 85}, {"time": 2884, "pitch": 65, "duration": 8, "velocity": 85}, {"time": 2890, "pitch": 58, "duration": 7, "velocity": 85}, {"time": 2896, "pitch": 68, "duration": 6, "velocity": 85}, {"time": 2902, "pitch": 58, "duration": 6, "velocity": 85}, {"time": 2908, "pitch": 41, "duration": 44, "velocity": 85}, {"time": 2914, "pitch": 53, "duration": 8, "velocity": 85}, {"time": 2920, "pitch": 60, "duration": 8, "velocity": 85}, {"time": 2926, "pitch": 53, "duration": 10, "velocity": 85}, {"time": 2932, "pitch": 65, "duration": 7, "velocity": 85}, {"time": 2938, "pitch": 53, "duration": 9, "velocity": 85}, {"time": 2944, "pitch": 68, "duration": 6, "velocity": 85}, {"time": 2950, "pitch": 53, "duration": 6, "velocity": 85}, {"time": 2956, "pitch": 46, "duration": 44, "velocity": 85}, {"time": 2962, "pitch": 58, "duration": 10, "velocity": 85}, {"time": 2968, "pitch": 61, "duration": 6, "velocity": 85}, {"time": 2974, "pitch": 58, "duration": 9, "velocity": 85}, {"time": 2980, "pitch": 65, "duration": 6, "velocity": 85}, {"time": 2986, "pitch": 58, "duration": 8, "velocity": 85}, {"time": 2992, "pitch": 61, "duration": 5, "velocity": 85}, {"time": 2998, "pitch": 58, "duration": 4, "velocity": 85}, {"time": 3004, "pitch": 49, "duration": 19, "velocity": 85}, {"time": 3010, "pitch": 56, "duration": 9, "velocity": 85}, {"time": 3016, "pitch": 61, "duration": 6, "velocity": 85}, {"time": 3022, "pitch": 56, "duration": 4, "velocity": 85}, {"time": 3028, "pitch": 46, "duration": 20, "velocity": 85}, {"time": 3034, "pitch": 58, "duration": 10, "velocity": 85}, {"time": 3040, "pitch": 61, "duration": 6, "velocity": 85}, {"time": 3046, "pitch": 58, "duration": 4, "velocity": 85}, {"time": 3052, "pitch": 51, "duration": 16, "velocity": 85}, {"time": 3058, "pitch": 58, "duration": 6, "velocity": 85}, {"time": 3064, "pitch": 66, "duration": 6, "velocity": 85}, {"time": 3076, "pitch": 42, "duration": 11, "velocity": 97}, {"time": 3079, "pitch": 58, "duration": 7, "velocity": 60}, {"time": 3082, "pitch": 61, "duration": 6, "velocity": 63}, {"time": 3082, "pitch": 66, "duration": 7, "velocity": 60}, {"time": 3088, "pitch": 44, "duration": 6, "velocity": 85}, {"time": 3094, "pitch": 56, "duration": 3, "velocity": 85}, {"time": 3100, "pitch": 46, "duration": 21, "velocity": 85}, {"time": 3106, "pitch": 58, "duration": 11, "velocity": 85}, {"time": 3112, "pitch": 61, "duration": 7, "velocity": 85}, {"time": 3118, "pitch": 58, "duration": 3, "velocity": 85}, {"time": 3124, "pitch": 46, "duration": 12, "velocity": 85}, {"time": 3124, "pitch": 58, "duration": 12, "velocity": 85}, {"time": 3124, "pitch": 61, "duration": 12, "velocity": 85}, {"time": 3124, "pitch": 65, "duration": 12, "velocity": 85}, {"time": 3148, "pitch": 49, "duration": 43, "velocity": 85}, {"time": 3154, "pitch": 56, "duration": 10, "velocity": 85}, {"time": 3160, "pitch": 61, "duration": 7, "velocity": 85}, {"time": 3166, "pitch": 56, "duration": 9, "velocity": 85}, {"time": 3172, "pitch": 65, "duration": 5, "velocity": 85}, {"time": 3178, "pitch": 56, "duration": 8, "velocity": 85}, {"time": 3184, "pitch": 61, "duration": 4, "velocity": 85}, {"time": 3190, "pitch": 56, "duration": 4, "velocity": 85}, {"time": 3196, "pitch": 46, "duration": 44, "velocity": 85}, {"time": 3202, "pitch": 58, "duration": 9, "velocity": 85}, {"time": 3208, "pitch": 61, "duration": 7, "velocity": 85}, {"time": 3214, "pitch": 58, "duration": 9, "velocity": 85}, {"time": 3220, "pitch": 65, "duration": 6, "velocity": 85}, {"time": 3226, "pitch": 58, "duration": 8, "velocity": 85}, {"time": 3232, "pitch": 61, "duration": 6, "velocity": 85}, {"time": 3238, "pitch": 58, "duration": 5, "velocity": 85}, {"time": 3244, "pitch": 49, "duration": 44, "velocity": 85}, {"time": 3250, "pitch": 56, "duration": 10, "velocity": 85}, {"time": 3256, "pitch": 61, "duration": 6, "velocity": 85}, {"time": 3262, "pitch": 56, "duration": 8, "velocity": 85}, {"time": 3268, "pitch": 65, "duration": 6, "velocity": 85}, {"time": 3274, "pitch": 56, "duration": 8, "velocity": 85}, {"time": 3280, "pitch": 61, "duration": 6, "velocity": 85}, {"time": 3286, "pitch": 56, "duration": 4, "velocity": 85}, {"time": 3292, "pitch": 44, "duration": 47, "velocity": 89}, {"time": 3298, "pitch": 51, "duration": 40, "velocity": 60}, {"time": 3303, "pitch": 63, "duration": 13, "velocity": 99}, {"time": 3304, "pitch": 60, "duration": 6, "velocity": 45}, {"time": 3309, "pitch": 56, "duration": 8, "velocity": 93}, {"time": 3315, "pitch": 60, "duration": 14, "velocity": 67}, {"time": 3321, "pitch": 56, "duration": 14, "velocity": 75}, {"time": 3327, "pitch": 63, "duration": 12, "velocity": 96}, {"time": 3333, "pitch": 60, "duration": 6, "velocity": 56}, {"time": 3340, "pitch": 49, "duration": 20, "velocity": 87}, {"time": 3346, "pitch": 56, "duration": 9, "velocity": 87}, {"time": 3352, "pitch": 61, "duration": 9, "velocity": 87}, {"time": 3358, "pitch": 56, "duration": 4, "velocity": 87}, {"time": 3364, "pitch": 46, "duration": 20, "velocity": 87}, {"time": 3370, "pitch": 58, "duration": 9, "velocity": 87}, {"time": 3376, "pitch": 61, "duration": 7, "velocity": 87}, {"time": 3382, "pitch": 58, "duration": 6, "velocity": 87}, {"time": 3388, "pitch": 49, "duration": 44, "velocity": 87}, {"time": 3394, "pitch": 56, "duration": 8, "velocity": 87}, {"time": 3400, "pitch": 61, "duration": 8, "velocity": 87}, {"time": 3406, "pitch": 56, "duration": 8, "velocity": 87}, {"time": 3412, "pitch": 65, "duration": 6, "velocity": 87}, {"time": 3418, "pitch": 56, "duration": 9, "velocity": 87}, {"time": 3424, "pitch": 61, "duration": 6, "velocity": 87}, {"time": 3430, "pitch": 56, "duration": 6, "velocity": 87}, {"time": 3436, "pitch": 51, "duration": 24, "velocity": 87}, {"time": 3442, "pitch": 58, "duration": 8, "velocity": 87}, {"time": 3448, "pitch": 63, "duration": 7, "velocity": 87}, {"time": 3454, "pitch": 58, "duration": 7, "velocity": 87}, {"time": 3460, "pitch": 44, "duration": 20, "velocity": 87}, {"time": 3466, "pitch": 56, "duration": 8, "velocity": 87}, {"time": 3472, "pitch": 60, "duration": 7, "velocity": 87}, {"time": 3478, "pitch": 56, "duration": 2, "velocity": 87}, {"time": 3489, "pitch": 49, "duration": 3, "velocity": 87}, {"time": 3489, "pitch": 56, "duration": 3, "velocity": 87}, {"time": 3489, "pitch": 61, "duration": 3, "velocity": 87}, {"time": 3489, "pitch": 65, "duration": 2, "velocity": 87}, {"time": 3489, "pitch": 68, "duration": 3, "velocity": 87}, {"time": 3495, "pitch": 49, "duration": 2, "velocity": 87}, {"time": 3495, "pitch": 56, "duration": 2, "velocity": 87}, {"time": 3495, "pitch": 61, "duration": 2, "velocity": 87}, {"time": 3495, "pitch": 65, "duration": 2, "velocity": 87}, {"time": 3495, "pitch": 68, "duration": 2, "velocity": 87}, {"time": 3501, "pitch": 49, "duration": 2, "velocity": 87}, {"time": 3501, "pitch": 56, "duration": 3, "velocity": 87}, {"time": 3501, "pitch": 61, "duration": 2, "velocity": 87}, {"time": 3501, "pitch": 65, "duration": 2, "velocity": 87}, {"time": 3501, "pitch": 68, "duration": 2, "velocity": 87}, {"time": 3507, "pitch": 49, "duration": 25, "velocity": 87}, {"time": 3507, "pitch": 56, "duration": 25, "velocity": 87}, {"time": 3507, "pitch": 61, "duration": 25, "velocity": 87}, {"time": 3507, "pitch": 65, "duration": 25, "velocity": 87}, {"time": 3507, "pitch": 68, "duration": 25, "velocity": 87}, {"time": 3531, "pitch": 46, "duration": 43, "velocity": 87}, {"time": 3537, "pitch": 58, "duration": 10, "velocity": 87}, {"time": 3543, "pitch": 61, "duration": 6, "velocity": 87}, {"time": 3549, "pitch": 58, "duration": 8, "velocity": 87}, {"time": 3555, "pitch": 65, "duration": 7, "velocity": 87}, {"time": 3561, "pitch": 58, "duration": 8, "velocity": 87}, {"time": 3567, "pitch": 61, "duration": 6, "velocity": 87}, {"time": 3573, "pitch": 58, "duration": 6, "velocity": 87}, {"time": 3577, "pitch": 41, "duration": 46, "velocity": 72}, {"time": 3584, "pitch": 48, "duration": 38, "velocity": 63}, {"time": 3590, "pitch": 65, "duration": 11, "velocity": 72}, {"time": 3597, "pitch": 53, "duration": 8, "velocity": 56}, {"time": 3603, "pitch": 68, "duration": 21, "velocity": 95}, {"time": 3609, "pitch": 53, "duration": 7, "velocity": 68}, {"time": 3614, "pitch": 65, "duration": 10, "velocity": 72}, {"time": 3619, "pitch": 60, "duration": 5, "velocity": 71}, {"time": 3627, "pitch": 46, "duration": 44, "velocity": 87}, {"time": 3633, "pitch": 58, "duration": 9, "velocity": 87}, {"time": 3639, "pitch": 61, "duration": 5, "velocity": 87}, {"time": 3645, "pitch": 58, "duration": 9, "velocity": 87}, {"time": 3651, "pitch": 65, "duration": 7, "velocity": 87}, {"time": 3657, "pitch": 58, "duration": 7, "velocity": 87}, {"time": 3663, "pitch": 68, "duration": 6, "velocity": 87}, {"time": 3669, "pitch": 58, "duration": 6, "velocity": 87}, {"time": 3675, "pitch": 41, "duration": 43, "velocity": 87}, {"time": 3681, "pitch": 53, "duration": 8, "velocity": 87}, {"time": 3687, "pitch": 60, "duration": 7, "velocity": 87}, {"time": 3693, "pitch": 53, "duration": 9, "velocity": 87}, {"time": 3699, "pitch": 65, "duration": 6, "velocity": 87}, {"time": 3705, "pitch": 53, "duration": 8, "velocity": 87}, {"time": 3711, "pitch": 68, "duration": 5, "velocity": 87}, {"time": 3717, "pitch": 53, "duration": 6, "velocity": 87}, {"time": 3723, "pitch": 46, "duration": 43, "velocity": 87}, {"time": 3729, "pitch": 58, "duration": 10, "velocity": 87}, {"time": 3735, "pitch": 61, "duration": 6, "velocity": 87}, {"time": 3741, "pitch": 58, "duration": 8, "velocity": 87}, {"time": 3747, "pitch": 65, "duration": 5, "velocity": 87}, {"time": 3753, "pitch": 58, "duration": 8, "velocity": 87}, {"time": 3759, "pitch": 61, "duration": 5, "velocity": 87}, {"time": 3765, "pitch": 58, "duration": 4, "velocity": 87}, {"time": 3771, "pitch": 49, "duration": 19, "velocity": 87}, {"time": 3777, "pitch": 56, "duration": 9, "velocity": 87}, {"time": 3783, "pitch": 61, "duration": 6, "velocity": 87}, {"time": 3789, "pitch": 56, "duration": 4, "velocity": 87}, {"time": 3795, "pitch": 46, "duration": 20, "velocity": 87}, {"time": 3801, "pitch": 58, "duration": 9, "velocity": 87}, {"time": 3807, "pitch": 61, "duration": 6, "velocity": 87}, {"time": 3813, "pitch": 58, "duration": 3, "velocity": 87}, {"time": 3819, "pitch": 51, "duration": 16, "velocity": 87}, {"time": 3825, "pitch": 58, "duration": 6, "velocity": 87}, {"time": 3831, "pitch": 66, "duration": 5, "velocity": 87}, {"time": 3842, "pitch": 42, "duration": 11, "velocity": 85}, {"time": 3848, "pitch": 54, "duration": 5, "velocity": 78}, {"time": 3854, "pitch": 44, "duration": 9, "velocity": 55}, {"time": 3854, "pitch": 56, "duration": 2, "velocity": 78}, {"time": 3861, "pitch": 56, "duration": 3, "velocity": 87}, {"time": 3867, "pitch": 46, "duration": 21, "velocity": 87}, {"time": 3873, "pitch": 58, "duration": 10, "velocity": 87}, {"time": 3879, "pitch": 61, "duration": 6, "velocity": 87}, {"time": 3885, "pitch": 58, "duration": 3, "velocity": 87}, {"time": 3891, "pitch": 46, "duration": 12, "velocity": 87}, {"time": 3891, "pitch": 58, "duration": 12, "velocity": 87}, {"time": 3891, "pitch": 61, "duration": 12, "velocity": 87}, {"time": 3891, "pitch": 65, "duration": 12, "velocity": 87}, {"time": 3915, "pitch": 49, "duration": 43, "velocity": 87}, {"time": 3921, "pitch": 56, "duration": 9, "velocity": 87}, {"time": 3927, "pitch": 61, "duration": 6, "velocity": 87}, {"time": 3933, "pitch": 56, "duration": 9, "velocity": 87}, {"time": 3939, "pitch": 65, "duration": 5, "velocity": 87}, {"time": 3945, "pitch": 56, "duration": 8, "velocity": 87}, {"time": 3951, "pitch": 61, "duration": 4, "velocity": 87}, {"time": 3957, "pitch": 56, "duration": 4, "velocity": 87}, {"time": 3963, "pitch": 46, "duration": 44, "velocity": 87}, {"time": 3969, "pitch": 58, "duration": 8, "velocity": 87}, {"time": 3975, "pitch": 61, "duration": 7, "velocity": 87}, {"time": 3981, "pitch": 58, "duration": 9, "velocity": 87}, {"time": 3987, "pitch": 65, "duration": 5, "velocity": 87}, {"time": 3993, "pitch": 58, "duration": 7, "velocity": 87}, {"time": 3999, "pitch": 61, "duration": 5, "velocity": 87}, {"time": 4005, "pitch": 58, "duration": 4, "velocity": 87}, {"time": 4011, "pitch": 49, "duration": 44, "velocity": 87}, {"time": 4017, "pitch": 56, "duration": 9, "velocity": 87}, {"time": 4023, "pitch": 61, "duration": 6, "velocity": 87}, {"time": 4029, "pitch": 56, "duration": 8, "velocity": 87}, {"time": 4035, "pitch": 65, "duration": 6, "velocity": 87}, {"time": 4041, "pitch": 56, "duration": 8, "velocity": 87}, {"time": 4047, "pitch": 61, "duration": 5, "velocity": 87}, {"time": 4053, "pitch": 56, "duration": 4, "velocity": 87}, {"time": 4057, "pitch": 44, "duration": 46, "velocity": 72}, {"time": 4064, "pitch": 51, "duration": 37, "velocity": 32}, {"time": 4070, "pitch": 60, "duration": 12, "velocity": 76}, {"time": 4075, "pitch": 56, "duration": 9, "velocity": 68}, {"time": 4082, "pitch": 63, "duration": 13, "velocity": 99}, {"time": 4088, "pitch": 56, "duration": 13, "velocity": 73}, {"time": 4094, "pitch": 60, "duration": 9, "velocity": 77}, {"time": 4100, "pitch": 63, "duration": 5, "velocity": 97}, {"time": 4105, "pitch": 46, "duration": 24, "velocity": 78}, {"time": 4112, "pitch": 53, "duration": 15, "velocity": 38}, {"time": 4117, "pitch": 58, "duration": 12, "velocity": 82}, {"time": 4123, "pitch": 61, "duration": 6, "velocity": 75}, {"time": 4131, "pitch": 46, "duration": 20, "velocity": 87}, {"time": 4137, "pitch": 58, "duration": 9, "velocity": 87}, {"time": 4143, "pitch": 61, "duration": 7, "velocity": 87}, {"time": 4149, "pitch": 58, "duration": 6, "velocity": 87}, {"time": 4155, "pitch": 49, "duration": 22, "velocity": 86}, {"time": 4160, "pitch": 61, "duration": 6, "velocity": 71}, {"time": 4166, "pitch": 68, "duration": 11, "velocity": 85}, {"time": 4166, "pitch": 65, "duration": 11, "velocity": 68}, {"time": 4171, "pitch": 61, "duration": 7, "velocity": 62}, {"time": 4178, "pitch": 46, "duration": 20, "velocity": 85}, {"time": 4184, "pitch": 58, "duration": 16, "velocity": 71}, {"time": 4190, "pitch": 61, "duration": 10, "velocity": 72}, {"time": 4195, "pitch": 65, "duration": 5, "velocity": 66}, {"time": 4203, "pitch": 51, "duration": 24, "velocity": 87}, {"time": 4209, "pitch": 58, "duration": 8, "velocity": 87}, {"time": 4215, "pitch": 63, "duration": 7, "velocity": 87}, {"time": 4221, "pitch": 58, "duration": 7, "velocity": 87}, {"time": 4227, "pitch": 44, "duration": 20, "velocity": 87}, {"time": 4233, "pitch": 56, "duration": 8, "velocity": 87}, {"time": 4239, "pitch": 60, "duration": 6, "velocity": 87}, {"time": 4245, "pitch": 56, "duration": 6, "velocity": 87}, {"time": 4251, "pitch": 49, "duration": 47, "velocity": 87}, {"time": 4257, "pitch": 56, "duration": 8, "velocity": 87}, {"time": 4263, "pitch": 61, "duration": 6, "velocity": 87}, {"time": 4269, "pitch": 56, "duration": 8, "velocity": 87}, {"time": 4275, "pitch": 65, "duration": 6, "velocity": 87}, {"time": 4281, "pitch": 56, "duration": 9, "velocity": 87}, {"time": 4287, "pitch": 61, "duration": 6, "velocity": 87}, {"time": 4293, "pitch": 56, "duration": 4, "velocity": 87}, {"time": 4299, "pitch": 49, "duration": 45, "velocity": 87}, {"time": 4305, "pitch": 56, "duration": 6, "velocity": 87}, {"time": 4311, "pitch": 61, "duration": 7, "velocity": 87}, {"time": 4317, "pitch": 56, "duration": 6, "velocity": 87}, {"time": 4323, "pitch": 65, "duration": 6, "velocity": 87}, {"time": 4329, "pitch": 56, "duration": 7, "velocity": 87}, {"time": 4335, "pitch": 68, "duration": 11, "velocity": 87}, {"time": 4341, "pitch": 56, "duration": 7, "velocity": 87}, {"time": 4347, "pitch": 46, "duration": 38, "velocity": 87}, {"time": 4353, "pitch": 56, "duration": 9, "velocity": 87}, {"time": 4359, "pitch": 61, "duration": 8, "velocity": 87}, {"time": 4365, "pitch": 56, "duration": 8, "velocity": 87}, {"time": 4371, "pitch": 65, "duration": 6, "velocity": 87}, {"time": 4377, "pitch": 56, "duration": 7, "velocity": 87}, {"time": 4383, "pitch": 70, "duration": 8, "velocity": 87}, {"time": 4389, "pitch": 56, "duration": 5, "velocity": 87}, {"time": 4395, "pitch": 49, "duration": 44, "velocity": 87}, {"time": 4401, "pitch": 56, "duration": 9, "velocity": 87}, {"time": 4407, "pitch": 61, "duration": 9, "velocity": 87}, {"time": 4413, "pitch": 56, "duration": 7, "velocity": 87}, {"time": 4419, "pitch": 65, "duration": 6, "velocity": 87}, {"time": 4425, "pitch": 56, "duration": 8, "velocity": 87}, {"time": 4431, "pitch": 68, "duration": 6, "velocity": 87}, {"time": 4437, "pitch": 56, "duration": 4, "velocity": 87}, {"time": 4443, "pitch": 51, "duration": 48, "velocity": 87}, {"time": 4449, "pitch": 58, "duration": 11, "velocity": 87}, {"time": 4455, "pitch": 63, "duration": 7, "velocity": 87}, {"time": 4461, "pitch": 58, "duration": 9, "velocity": 87}, {"time": 4467, "pitch": 66, "duration": 6, "velocity": 87}, {"time": 4473, "pitch": 58, "duration": 18, "velocity": 87}, {"time": 4479, "pitch": 70, "duration": 12, "velocity": 87}, {"time": 4491, "pitch": 37, "duration": 63, "velocity": 87}, {"time": 4493, "pitch": 49, "duration": 61, "velocity": 87}, {"time": 4494, "pitch": 56, "duration": 61, "velocity": 87}, {"time": 4495, "pitch": 61, "duration": 58, "velocity": 87}, {"time": 4496, "pitch": 65, "duration": 57, "velocity": 87}], "annotations": [{"time": 36, "annotation": {"number": 64, "value": 127}, "group": "control_change"}, {"time": 194, "annotation": {"number": 64, "value": 0}, "group": "control_change"}, {"time": 220, "annotation": {"number": 64, "value": 127}, "group": "control_change"}, {"time": 380, "annotation": {"number": 64, "value": 127}, "group": "control_change"}, {"time": 462, "annotation": {"number": 64, "value": 127}, "group": "control_change"}, {"time": 606, "annotation": {"number": 64, "value": 127}, "group": "control_change"}, {"time": 647, "annotation": {"number": 64, "value": 0}, "group": "control_change"}, {"time": 677, "annotation": {"number": 64, "value": 127}, "group": "control_change"}, {"time": 796, "annotation": {"number": 64, "value": 127}, "group": "control_change"}, {"time": 846, "annotation": {"number": 64, "value": 127}, "group": "control_change"}, {"time": 1061, "annotation": {"number": 64, "value": 127}, "group": "control_change"}, {"time": 1181, "annotation": {"number": 64, "value": 127}, "group": "control_change"}, {"time": 1189, "annotation": {"number": 64, "value": 0}, "group": "control_change"}, {"time": 1206, "annotation": {"number": 64, "value": 127}, "group": "control_change"}, {"time": 1230, "annotation": {"number": 64, "value": 127}, "group": "control_change"}, {"time": 1421, "annotation": {"number": 64, "value": 127}, "group": "control_change"}, {"time": 1422, "annotation": {"number": 64, "value": 0}, "group": "control_change"}, {"time": 1517, "annotation": {"number": 64, "value": 127}, "group": "control_change"}, {"time": 1614, "annotation": {"number": 64, "value": 127}, "group": "control_change"}, {"time": 1829, "annotation": {"number": 64, "value": 127}, "group": "control_change"}, {"time": 2004, "annotation": {"number": 64, "value": 127}, "group": "control_change"}, {"time": 2348, "annotation": {"number": 64, "value": 127}, "group": "control_change"}, {"time": 2382, "annotation": {"number": 64, "value": 127}, "group": "control_change"}, {"time": 2597, "annotation": {"number": 64, "value": 127}, "group": "control_change"}, {"time": 2717, "annotation": {"number": 64, "value": 127}, "group": "control_change"}, {"time": 2725, "annotation": {"number": 64, "value": 0}, "group": "control_change"}, {"time": 2742, "annotation": {"number": 64, "value": 127}, "group": "control_change"}, {"time": 2766, "annotation": {"number": 64, "value": 127}, "group": "control_change"}, {"time": 2957, "annotation": {"number": 64, "value": 127}, "group": "control_change"}, {"time": 2958, "annotation": {"number": 64, "value": 0}, "group": "control_change"}, {"time": 3053, "annotation": {"number": 64, "value": 127}, "group": "control_change"}, {"time": 3150, "annotation": {"number": 64, "value": 127}, "group": "control_change"}, {"time": 3365, "annotation": {"number": 64, "value": 127}, "group": "control_change"}, {"time": 3541, "annotation": {"number": 64, "value": 127}, "group": "control_change"}, {"time": 3732, "annotation": {"number": 64, "value": 127}, "group": "control_change"}, {"time": 3734, "annotation": {"number": 64, "value": 0}, "group": "control_change"}, {"time": 3828, "annotation": {"number": 64, "value": 127}, "group": "control_change"}, {"time": 3925, "annotation": {"number": 64, "value": 127}, "group": "control_change"}, {"time": 4140, "annotation": {"number": 64, "value": 127}, "group": "control_change"}, {"time": 4261, "annotation": {"number": 64, "value": 127}, "group": "control_change"}, {"time": 4315, "annotation": {"number": 64, "value": 127}, "group": "control_change"}, {"time": 4474, "annotation": {"number": 64, "value": 0}, "group": "control_change"}, {"time": 4499, "annotation": {"number": 64, "value": 127}, "group": "control_change"}, {"time": 4501, "annotation": {"number": 64, "value": 127}, "group": "control_change"}, {"time": 4564, "annotation": {"number": 64, "value": 0}, "group": "control_change"}]}]}