{"metadata": {"schema_version": "0.2", "title": "None", "source_filename": "806.mid", "source_format": "midi"}, "resolution": 12, "tempos": [{"time": 0, "qpm": 54.400008704001394}, {"time": 878, "qpm": 54.00000540000054}, {"time": 1142, "qpm": 53.000022083342536}], "key_signatures": [{"time": 0, "root": 0, "mode": "major"}], "time_signatures": [{"time": 0, "numerator": 4, "denominator": 4}, {"time": 0, "numerator": 1, "denominator": 4}], "tracks": [{"program": 0, "is_drum": false, "name": "MELODY", "notes": [{"time": 194, "pitch": 70, "duration": 7, "velocity": 90}, {"time": 202, "pitch": 70, "duration": 3, "velocity": 90}, {"time": 206, "pitch": 77, "duration": 2, "velocity": 90}, {"time": 210, "pitch": 77, "duration": 4, "velocity": 90}, {"time": 214, "pitch": 73, "duration": 4, "velocity": 90}, {"time": 218, "pitch": 75, "duration": 3, "velocity": 90}, {"time": 222, "pitch": 75, "duration": 4, "velocity": 90}, {"time": 226, "pitch": 73, "duration": 4, "velocity": 90}, {"time": 230, "pitch": 70, "duration": 6, "velocity": 90}, {"time": 238, "pitch": 70, "duration": 4, "velocity": 90}, {"time": 242, "pitch": 68, "duration": 7, "velocity": 90}, {"time": 250, "pitch": 65, "duration": 2, "velocity": 90}, {"time": 254, "pitch": 65, "duration": 6, "velocity": 90}, {"time": 258, "pitch": 68, "duration": 3, "velocity": 90}, {"time": 262, "pitch": 73, "duration": 2, "velocity": 90}, {"time": 266, "pitch": 70, "duration": 10, "velocity": 90}, {"time": 290, "pitch": 77, "duration": 8, "velocity": 90}, {"time": 298, "pitch": 75, "duration": 4, "velocity": 90}, {"time": 302, "pitch": 77, "duration": 2, "velocity": 90}, {"time": 306, "pitch": 77, "duration": 3, "velocity": 90}, {"time": 310, "pitch": 73, "duration": 5, "velocity": 90}, {"time": 314, "pitch": 75, "duration": 2, "velocity": 90}, {"time": 318, "pitch": 75, "duration": 4, "velocity": 90}, {"time": 322, "pitch": 73, "duration": 4, "velocity": 90}, {"time": 326, "pitch": 75, "duration": 8, "velocity": 90}, {"time": 334, "pitch": 73, "duration": 4, "velocity": 90}, {"time": 338, "pitch": 72, "duration": 6, "velocity": 90}, {"time": 346, "pitch": 72, "duration": 2, "velocity": 90}, {"time": 350, "pitch": 72, "duration": 2, "velocity": 90}, {"time": 354, "pitch": 72, "duration": 4, "velocity": 90}, {"time": 358, "pitch": 68, "duration": 3, "velocity": 90}, {"time": 362, "pitch": 77, "duration": 12, "velocity": 90}, {"time": 378, "pitch": 70, "duration": 2, "velocity": 90}, {"time": 382, "pitch": 70, "duration": 4, "velocity": 90}, {"time": 386, "pitch": 82, "duration": 8, "velocity": 90}, {"time": 394, "pitch": 80, "duration": 4, "velocity": 90}, {"time": 398, "pitch": 82, "duration": 4, "velocity": 90}, {"time": 402, "pitch": 77, "duration": 2, "velocity": 90}, {"time": 406, "pitch": 77, "duration": 4, "velocity": 90}, {"time": 410, "pitch": 80, "duration": 3, "velocity": 90}, {"time": 414, "pitch": 80, "duration": 3, "velocity": 90}, {"time": 418, "pitch": 77, "duration": 4, "velocity": 90}, {"time": 422, "pitch": 80, "duration": 6, "velocity": 90}, {"time": 430, "pitch": 73, "duration": 5, "velocity": 90}, {"time": 434, "pitch": 75, "duration": 2, "velocity": 90}, {"time": 438, "pitch": 75, "duration": 4, "velocity": 90}, {"time": 442, "pitch": 73, "duration": 3, "velocity": 90}, {"time": 446, "pitch": 75, "duration": 2, "velocity": 90}, {"time": 450, "pitch": 75, "duration": 3, "velocity": 90}, {"time": 454, "pitch": 73, "duration": 2, "velocity": 90}, {"time": 458, "pitch": 73, "duration": 4, "velocity": 90}, {"time": 462, "pitch": 77, "duration": 11, "velocity": 90}, {"time": 482, "pitch": 70, "duration": 3, "velocity": 90}, {"time": 486, "pitch": 70, "duration": 2, "velocity": 90}, {"time": 490, "pitch": 70, "duration": 3, "velocity": 90}, {"time": 494, "pitch": 77, "duration": 9, "velocity": 90}, {"time": 502, "pitch": 73, "duration": 4, "velocity": 90}, {"time": 506, "pitch": 75, "duration": 2, "velocity": 90}, {"time": 510, "pitch": 75, "duration": 4, "velocity": 90}, {"time": 514, "pitch": 73, "duration": 4, "velocity": 90}, {"time": 518, "pitch": 75, "duration": 5, "velocity": 90}, {"time": 526, "pitch": 73, "duration": 4, "velocity": 90}, {"time": 530, "pitch": 72, "duration": 3, "velocity": 90}, {"time": 534, "pitch": 72, "duration": 2, "velocity": 90}, {"time": 538, "pitch": 72, "duration": 2, "velocity": 90}, {"time": 542, "pitch": 72, "duration": 4, "velocity": 90}, {"time": 546, "pitch": 68, "duration": 4, "velocity": 90}, {"time": 550, "pitch": 72, "duration": 5, "velocity": 90}, {"time": 554, "pitch": 70, "duration": 13, "velocity": 90}, {"time": 781, "pitch": 70, "duration": 6, "velocity": 90}, {"time": 789, "pitch": 70, "duration": 3, "velocity": 90}, {"time": 793, "pitch": 77, "duration": 3, "velocity": 90}, {"time": 797, "pitch": 77, "duration": 3, "velocity": 90}, {"time": 801, "pitch": 73, "duration": 4, "velocity": 90}, {"time": 805, "pitch": 75, "duration": 3, "velocity": 90}, {"time": 809, "pitch": 75, "duration": 4, "velocity": 90}, {"time": 813, "pitch": 73, "duration": 3, "velocity": 90}, {"time": 817, "pitch": 70, "duration": 7, "velocity": 90}, {"time": 825, "pitch": 70, "duration": 4, "velocity": 90}, {"time": 829, "pitch": 68, "duration": 8, "velocity": 90}, {"time": 837, "pitch": 65, "duration": 2, "velocity": 90}, {"time": 841, "pitch": 65, "duration": 4, "velocity": 90}, {"time": 845, "pitch": 68, "duration": 3, "velocity": 90}, {"time": 849, "pitch": 72, "duration": 4, "velocity": 90}, {"time": 853, "pitch": 70, "duration": 14, "velocity": 90}, {"time": 878, "pitch": 77, "duration": 2, "velocity": 90}, {"time": 882, "pitch": 77, "duration": 4, "velocity": 90}, {"time": 886, "pitch": 75, "duration": 3, "velocity": 90}, {"time": 890, "pitch": 77, "duration": 7, "velocity": 90}, {"time": 898, "pitch": 73, "duration": 2, "velocity": 90}, {"time": 902, "pitch": 75, "duration": 2, "velocity": 90}, {"time": 906, "pitch": 75, "duration": 4, "velocity": 90}, {"time": 910, "pitch": 73, "duration": 4, "velocity": 90}, {"time": 914, "pitch": 75, "duration": 8, "velocity": 90}, {"time": 922, "pitch": 73, "duration": 4, "velocity": 90}, {"time": 926, "pitch": 72, "duration": 7, "velocity": 90}, {"time": 934, "pitch": 72, "duration": 1, "velocity": 90}, {"time": 938, "pitch": 72, "duration": 1, "velocity": 90}, {"time": 942, "pitch": 72, "duration": 4, "velocity": 90}, {"time": 946, "pitch": 68, "duration": 3, "velocity": 90}, {"time": 950, "pitch": 77, "duration": 11, "velocity": 90}, {"time": 966, "pitch": 70, "duration": 2, "velocity": 90}, {"time": 970, "pitch": 70, "duration": 3, "velocity": 90}, {"time": 974, "pitch": 82, "duration": 8, "velocity": 90}, {"time": 982, "pitch": 80, "duration": 4, "velocity": 90}, {"time": 986, "pitch": 82, "duration": 3, "velocity": 90}, {"time": 990, "pitch": 77, "duration": 2, "velocity": 90}, {"time": 994, "pitch": 77, "duration": 4, "velocity": 90}, {"time": 998, "pitch": 80, "duration": 3, "velocity": 90}, {"time": 1002, "pitch": 80, "duration": 3, "velocity": 90}, {"time": 1006, "pitch": 77, "duration": 4, "velocity": 90}, {"time": 1010, "pitch": 80, "duration": 3, "velocity": 90}, {"time": 1018, "pitch": 73, "duration": 4, "velocity": 90}, {"time": 1022, "pitch": 75, "duration": 2, "velocity": 90}, {"time": 1026, "pitch": 75, "duration": 3, "velocity": 90}, {"time": 1030, "pitch": 73, "duration": 3, "velocity": 90}, {"time": 1034, "pitch": 75, "duration": 3, "velocity": 90}, {"time": 1038, "pitch": 75, "duration": 3, "velocity": 90}, {"time": 1042, "pitch": 73, "duration": 4, "velocity": 90}, {"time": 1046, "pitch": 80, "duration": 3, "velocity": 90}, {"time": 1050, "pitch": 77, "duration": 10, "velocity": 90}, {"time": 1070, "pitch": 70, "duration": 6, "velocity": 90}, {"time": 1078, "pitch": 70, "duration": 3, "velocity": 90}, {"time": 1082, "pitch": 77, "duration": 2, "velocity": 90}, {"time": 1086, "pitch": 77, "duration": 4, "velocity": 90}, {"time": 1090, "pitch": 73, "duration": 4, "velocity": 90}, {"time": 1094, "pitch": 75, "duration": 2, "velocity": 90}, {"time": 1098, "pitch": 75, "duration": 3, "velocity": 90}, {"time": 1102, "pitch": 73, "duration": 4, "velocity": 90}, {"time": 1106, "pitch": 75, "duration": 7, "velocity": 90}, {"time": 1114, "pitch": 73, "duration": 3, "velocity": 90}, {"time": 1118, "pitch": 72, "duration": 8, "velocity": 90}, {"time": 1126, "pitch": 65, "duration": 1, "velocity": 90}, {"time": 1130, "pitch": 65, "duration": 3, "velocity": 90}, {"time": 1134, "pitch": 72, "duration": 1, "velocity": 90}, {"time": 1138, "pitch": 72, "duration": 1, "velocity": 90}, {"time": 1142, "pitch": 72, "duration": 4, "velocity": 90}, {"time": 1146, "pitch": 70, "duration": 9, "velocity": 90}, {"time": 1158, "pitch": 70, "duration": 2, "velocity": 90}, {"time": 1162, "pitch": 70, "duration": 4, "velocity": 90}, {"time": 1167, "pitch": 82, "duration": 8, "velocity": 90}, {"time": 1175, "pitch": 80, "duration": 4, "velocity": 90}, {"time": 1179, "pitch": 82, "duration": 4, "velocity": 90}, {"time": 1183, "pitch": 77, "duration": 2, "velocity": 90}, {"time": 1187, "pitch": 77, "duration": 4, "velocity": 90}, {"time": 1191, "pitch": 80, "duration": 2, "velocity": 90}, {"time": 1195, "pitch": 80, "duration": 3, "velocity": 90}, {"time": 1199, "pitch": 77, "duration": 4, "velocity": 90}, {"time": 1203, "pitch": 80, "duration": 5, "velocity": 90}, {"time": 1211, "pitch": 73, "duration": 4, "velocity": 90}, {"time": 1215, "pitch": 75, "duration": 1, "velocity": 90}, {"time": 1219, "pitch": 75, "duration": 3, "velocity": 90}, {"time": 1223, "pitch": 73, "duration": 3, "velocity": 90}, {"time": 1227, "pitch": 75, "duration": 2, "velocity": 90}, {"time": 1231, "pitch": 75, "duration": 3, "velocity": 90}, {"time": 1235, "pitch": 73, "duration": 1, "velocity": 90}, {"time": 1239, "pitch": 73, "duration": 3, "velocity": 90}, {"time": 1243, "pitch": 77, "duration": 16, "velocity": 90}, {"time": 1263, "pitch": 70, "duration": 2, "velocity": 90}, {"time": 1267, "pitch": 70, "duration": 1, "velocity": 90}, {"time": 1271, "pitch": 70, "duration": 2, "velocity": 90}, {"time": 1275, "pitch": 77, "duration": 8, "velocity": 90}, {"time": 1283, "pitch": 73, "duration": 4, "velocity": 90}, {"time": 1287, "pitch": 75, "duration": 2, "velocity": 90}, {"time": 1291, "pitch": 75, "duration": 4, "velocity": 90}, {"time": 1295, "pitch": 73, "duration": 4, "velocity": 90}, {"time": 1299, "pitch": 75, "duration": 6, "velocity": 90}, {"time": 1307, "pitch": 73, "duration": 3, "velocity": 90}, {"time": 1311, "pitch": 72, "duration": 2, "velocity": 90}, {"time": 1315, "pitch": 72, "duration": 1, "velocity": 90}, {"time": 1319, "pitch": 72, "duration": 1, "velocity": 90}, {"time": 1323, "pitch": 72, "duration": 3, "velocity": 90}, {"time": 1327, "pitch": 65, "duration": 3, "velocity": 90}, {"time": 1331, "pitch": 72, "duration": 4, "velocity": 90}, {"time": 1335, "pitch": 70, "duration": 8, "velocity": 90}, {"time": 1351, "pitch": 70, "duration": 1, "velocity": 90}, {"time": 1355, "pitch": 70, "duration": 2, "velocity": 90}, {"time": 1359, "pitch": 82, "duration": 7, "velocity": 90}, {"time": 1367, "pitch": 80, "duration": 4, "velocity": 90}, {"time": 1371, "pitch": 82, "duration": 3, "velocity": 90}, {"time": 1375, "pitch": 77, "duration": 2, "velocity": 90}, {"time": 1379, "pitch": 77, "duration": 3, "velocity": 90}, {"time": 1383, "pitch": 80, "duration": 3, "velocity": 90}, {"time": 1387, "pitch": 80, "duration": 3, "velocity": 90}, {"time": 1391, "pitch": 77, "duration": 4, "velocity": 90}, {"time": 1395, "pitch": 80, "duration": 5, "velocity": 90}, {"time": 1403, "pitch": 73, "duration": 4, "velocity": 90}, {"time": 1407, "pitch": 75, "duration": 2, "velocity": 90}, {"time": 1411, "pitch": 75, "duration": 3, "velocity": 90}, {"time": 1415, "pitch": 73, "duration": 3, "velocity": 90}, {"time": 1419, "pitch": 75, "duration": 1, "velocity": 90}, {"time": 1423, "pitch": 75, "duration": 4, "velocity": 90}, {"time": 1427, "pitch": 73, "duration": 3, "velocity": 90}, {"time": 1431, "pitch": 80, "duration": 3, "velocity": 90}, {"time": 1435, "pitch": 77, "duration": 11, "velocity": 90}, {"time": 1455, "pitch": 70, "duration": 3, "velocity": 90}, {"time": 1462, "pitch": 70, "duration": 3, "velocity": 90}, {"time": 1466, "pitch": 77, "duration": 4, "velocity": 90}, {"time": 1470, "pitch": 77, "duration": 4, "velocity": 90}, {"time": 1474, "pitch": 73, "duration": 5, "velocity": 90}, {"time": 1479, "pitch": 75, "duration": 2, "velocity": 90}, {"time": 1483, "pitch": 75, "duration": 3, "velocity": 90}, {"time": 1487, "pitch": 73, "duration": 3, "velocity": 90}, {"time": 1491, "pitch": 75, "duration": 8, "velocity": 90}, {"time": 1499, "pitch": 73, "duration": 3, "velocity": 90}, {"time": 1503, "pitch": 72, "duration": 5, "velocity": 90}, {"time": 1511, "pitch": 65, "duration": 2, "velocity": 90}, {"time": 1515, "pitch": 65, "duration": 3, "velocity": 90}, {"time": 1519, "pitch": 72, "duration": 1, "velocity": 90}, {"time": 1523, "pitch": 72, "duration": 1, "velocity": 90}, {"time": 1527, "pitch": 72, "duration": 4, "velocity": 90}, {"time": 1531, "pitch": 70, "duration": 8, "velocity": 90}]}, {"program": 0, "is_drum": false, "name": "BRIDGE", "notes": [{"time": 2, "pitch": 65, "duration": 9, "velocity": 87}, {"time": 14, "pitch": 65, "duration": 9, "velocity": 87}, {"time": 26, "pitch": 65, "duration": 9, "velocity": 87}, {"time": 38, "pitch": 65, "duration": 8, "velocity": 87}, {"time": 50, "pitch": 65, "duration": 9, "velocity": 87}, {"time": 62, "pitch": 65, "duration": 10, "velocity": 87}, {"time": 74, "pitch": 66, "duration": 10, "velocity": 87}, {"time": 86, "pitch": 68, "duration": 10, "velocity": 87}, {"time": 98, "pitch": 65, "duration": 9, "velocity": 87}, {"time": 110, "pitch": 65, "duration": 10, "velocity": 87}, {"time": 122, "pitch": 65, "duration": 9, "velocity": 87}, {"time": 134, "pitch": 65, "duration": 9, "velocity": 87}, {"time": 146, "pitch": 65, "duration": 9, "velocity": 87}, {"time": 158, "pitch": 65, "duration": 8, "velocity": 87}, {"time": 170, "pitch": 66, "duration": 9, "velocity": 87}, {"time": 181, "pitch": 68, "duration": 12, "velocity": 87}, {"time": 194, "pitch": 65, "duration": 9, "velocity": 87}, {"time": 222, "pitch": 58, "duration": 5, "velocity": 87}, {"time": 226, "pitch": 61, "duration": 3, "velocity": 87}, {"time": 229, "pitch": 66, "duration": 12, "velocity": 87}, {"time": 250, "pitch": 63, "duration": 3, "velocity": 87}, {"time": 253, "pitch": 65, "duration": 5, "velocity": 87}, {"time": 257, "pitch": 63, "duration": 8, "velocity": 87}, {"time": 273, "pitch": 58, "duration": 4, "velocity": 87}, {"time": 277, "pitch": 60, "duration": 4, "velocity": 87}, {"time": 281, "pitch": 58, "duration": 4, "velocity": 87}, {"time": 285, "pitch": 56, "duration": 2, "velocity": 87}, {"time": 326, "pitch": 65, "duration": 4, "velocity": 87}, {"time": 330, "pitch": 66, "duration": 4, "velocity": 87}, {"time": 334, "pitch": 65, "duration": 4, "velocity": 87}, {"time": 466, "pitch": 63, "duration": 3, "velocity": 90}, {"time": 470, "pitch": 65, "duration": 4, "velocity": 90}, {"time": 473, "pitch": 63, "duration": 5, "velocity": 90}, {"time": 477, "pitch": 61, "duration": 3, "velocity": 90}, {"time": 538, "pitch": 63, "duration": 3, "velocity": 90}, {"time": 542, "pitch": 65, "duration": 4, "velocity": 90}, {"time": 546, "pitch": 63, "duration": 3, "velocity": 90}, {"time": 549, "pitch": 61, "duration": 2, "velocity": 90}, {"time": 624, "pitch": 65, "duration": 4, "velocity": 90}, {"time": 628, "pitch": 61, "duration": 3, "velocity": 90}, {"time": 631, "pitch": 58, "duration": 3, "velocity": 90}, {"time": 636, "pitch": 65, "duration": 4, "velocity": 87}, {"time": 640, "pitch": 61, "duration": 4, "velocity": 87}, {"time": 643, "pitch": 58, "duration": 3, "velocity": 87}, {"time": 648, "pitch": 65, "duration": 4, "velocity": 87}, {"time": 652, "pitch": 61, "duration": 4, "velocity": 87}, {"time": 656, "pitch": 58, "duration": 2, "velocity": 87}, {"time": 660, "pitch": 66, "duration": 5, "velocity": 87}, {"time": 665, "pitch": 63, "duration": 2, "velocity": 87}, {"time": 668, "pitch": 58, "duration": 2, "velocity": 87}, {"time": 672, "pitch": 68, "duration": 4, "velocity": 87}, {"time": 676, "pitch": 63, "duration": 4, "velocity": 87}, {"time": 680, "pitch": 60, "duration": 3, "velocity": 87}, {"time": 684, "pitch": 65, "duration": 4, "velocity": 87}, {"time": 688, "pitch": 61, "duration": 4, "velocity": 87}, {"time": 692, "pitch": 58, "duration": 3, "velocity": 87}, {"time": 696, "pitch": 65, "duration": 4, "velocity": 87}, {"time": 700, "pitch": 61, "duration": 4, "velocity": 87}, {"time": 704, "pitch": 58, "duration": 3, "velocity": 87}, {"time": 708, "pitch": 65, "duration": 4, "velocity": 87}, {"time": 712, "pitch": 61, "duration": 4, "velocity": 87}, {"time": 716, "pitch": 58, "duration": 3, "velocity": 87}, {"time": 720, "pitch": 65, "duration": 4, "velocity": 87}, {"time": 724, "pitch": 61, "duration": 5, "velocity": 87}, {"time": 728, "pitch": 58, "duration": 4, "velocity": 87}, {"time": 732, "pitch": 65, "duration": 4, "velocity": 87}, {"time": 736, "pitch": 61, "duration": 4, "velocity": 87}, {"time": 740, "pitch": 58, "duration": 2, "velocity": 87}, {"time": 744, "pitch": 65, "duration": 4, "velocity": 87}, {"time": 748, "pitch": 61, "duration": 4, "velocity": 87}, {"time": 752, "pitch": 58, "duration": 3, "velocity": 87}, {"time": 756, "pitch": 66, "duration": 5, "velocity": 87}, {"time": 760, "pitch": 63, "duration": 5, "velocity": 87}, {"time": 765, "pitch": 61, "duration": 3, "velocity": 87}, {"time": 769, "pitch": 68, "duration": 11, "velocity": 87}, {"time": 837, "pitch": 63, "duration": 4, "velocity": 87}, {"time": 841, "pitch": 65, "duration": 4, "velocity": 87}, {"time": 845, "pitch": 63, "duration": 4, "velocity": 87}, {"time": 849, "pitch": 61, "duration": 4, "velocity": 87}, {"time": 853, "pitch": 58, "duration": 12, "velocity": 87}, {"time": 918, "pitch": 66, "duration": 3, "velocity": 87}, {"time": 922, "pitch": 65, "duration": 3, "velocity": 87}, {"time": 926, "pitch": 63, "duration": 7, "velocity": 87}, {"time": 934, "pitch": 63, "duration": 2, "velocity": 87}, {"time": 938, "pitch": 65, "duration": 4, "velocity": 87}, {"time": 942, "pitch": 63, "duration": 7, "velocity": 87}, {"time": 1054, "pitch": 63, "duration": 2, "velocity": 87}, {"time": 1058, "pitch": 65, "duration": 4, "velocity": 87}, {"time": 1062, "pitch": 63, "duration": 5, "velocity": 87}, {"time": 1126, "pitch": 63, "duration": 3, "velocity": 87}, {"time": 1130, "pitch": 65, "duration": 4, "velocity": 87}, {"time": 1134, "pitch": 63, "duration": 8, "velocity": 87}, {"time": 1150, "pitch": 58, "duration": 4, "velocity": 87}, {"time": 1154, "pitch": 60, "duration": 4, "velocity": 87}, {"time": 1158, "pitch": 61, "duration": 4, "velocity": 87}, {"time": 1162, "pitch": 63, "duration": 4, "velocity": 87}, {"time": 1246, "pitch": 63, "duration": 5, "velocity": 83}, {"time": 1251, "pitch": 65, "duration": 4, "velocity": 83}, {"time": 1255, "pitch": 63, "duration": 7, "velocity": 78}, {"time": 1318, "pitch": 63, "duration": 5, "velocity": 83}, {"time": 1323, "pitch": 65, "duration": 4, "velocity": 83}, {"time": 1327, "pitch": 63, "duration": 7, "velocity": 83}, {"time": 1343, "pitch": 58, "duration": 2, "velocity": 83}, {"time": 1347, "pitch": 60, "duration": 4, "velocity": 83}, {"time": 1351, "pitch": 61, "duration": 4, "velocity": 83}, {"time": 1355, "pitch": 63, "duration": 3, "velocity": 83}, {"time": 1439, "pitch": 63, "duration": 3, "velocity": 80}, {"time": 1443, "pitch": 65, "duration": 4, "velocity": 80}, {"time": 1446, "pitch": 63, "duration": 4, "velocity": 80}, {"time": 1450, "pitch": 60, "duration": 4, "velocity": 80}, {"time": 1538, "pitch": 60, "duration": 11, "velocity": 83}, {"time": 1549, "pitch": 53, "duration": 7, "velocity": 83}, {"time": 1553, "pitch": 58, "duration": 5, "velocity": 83}, {"time": 1557, "pitch": 61, "duration": 3, "velocity": 83}, {"time": 1561, "pitch": 53, "duration": 7, "velocity": 83}, {"time": 1565, "pitch": 58, "duration": 4, "velocity": 83}, {"time": 1569, "pitch": 61, "duration": 4, "velocity": 83}, {"time": 1573, "pitch": 54, "duration": 5, "velocity": 83}, {"time": 1577, "pitch": 58, "duration": 4, "velocity": 83}, {"time": 1581, "pitch": 61, "duration": 4, "velocity": 83}, {"time": 1585, "pitch": 54, "duration": 5, "velocity": 83}, {"time": 1589, "pitch": 58, "duration": 5, "velocity": 83}, {"time": 1593, "pitch": 61, "duration": 4, "velocity": 83}, {"time": 1597, "pitch": 55, "duration": 5, "velocity": 83}, {"time": 1601, "pitch": 58, "duration": 4, "velocity": 83}, {"time": 1605, "pitch": 61, "duration": 3, "velocity": 83}, {"time": 1609, "pitch": 55, "duration": 4, "velocity": 83}, {"time": 1612, "pitch": 58, "duration": 4, "velocity": 83}, {"time": 1616, "pitch": 61, "duration": 2, "velocity": 83}, {"time": 1621, "pitch": 51, "duration": 8, "velocity": 83}, {"time": 1625, "pitch": 54, "duration": 4, "velocity": 83}, {"time": 1629, "pitch": 58, "duration": 3, "velocity": 83}, {"time": 1633, "pitch": 53, "duration": 8, "velocity": 83}, {"time": 1637, "pitch": 56, "duration": 4, "velocity": 83}, {"time": 1641, "pitch": 60, "duration": 3, "velocity": 83}, {"time": 1644, "pitch": 53, "duration": 9, "velocity": 83}, {"time": 1649, "pitch": 58, "duration": 4, "velocity": 83}, {"time": 1652, "pitch": 61, "duration": 4, "velocity": 83}, {"time": 1656, "pitch": 53, "duration": 9, "velocity": 83}, {"time": 1661, "pitch": 58, "duration": 4, "velocity": 83}, {"time": 1665, "pitch": 61, "duration": 4, "velocity": 83}, {"time": 1669, "pitch": 54, "duration": 5, "velocity": 83}, {"time": 1673, "pitch": 58, "duration": 4, "velocity": 83}, {"time": 1677, "pitch": 61, "duration": 3, "velocity": 83}, {"time": 1681, "pitch": 54, "duration": 5, "velocity": 83}, {"time": 1685, "pitch": 58, "duration": 4, "velocity": 83}, {"time": 1689, "pitch": 61, "duration": 3, "velocity": 83}, {"time": 1693, "pitch": 55, "duration": 5, "velocity": 83}, {"time": 1697, "pitch": 58, "duration": 4, "velocity": 83}, {"time": 1701, "pitch": 61, "duration": 3, "velocity": 83}, {"time": 1705, "pitch": 55, "duration": 4, "velocity": 83}, {"time": 1709, "pitch": 58, "duration": 4, "velocity": 83}, {"time": 1713, "pitch": 61, "duration": 2, "velocity": 83}, {"time": 1717, "pitch": 51, "duration": 8, "velocity": 83}, {"time": 1721, "pitch": 58, "duration": 4, "velocity": 83}, {"time": 1725, "pitch": 61, "duration": 4, "velocity": 83}, {"time": 1729, "pitch": 53, "duration": 8, "velocity": 83}, {"time": 1733, "pitch": 56, "duration": 4, "velocity": 80}, {"time": 1737, "pitch": 63, "duration": 10, "velocity": 80}]}, {"program": 0, "is_drum": false, "name": "PIANO", "notes": [{"time": 2, "pitch": 53, "duration": 24, "velocity": 66}, {"time": 2, "pitch": 77, "duration": 3, "velocity": 66}, {"time": 6, "pitch": 73, "duration": 4, "velocity": 66}, {"time": 10, "pitch": 70, "duration": 4, "velocity": 66}, {"time": 14, "pitch": 77, "duration": 4, "velocity": 66}, {"time": 18, "pitch": 73, "duration": 4, "velocity": 66}, {"time": 22, "pitch": 70, "duration": 4, "velocity": 66}, {"time": 26, "pitch": 54, "duration": 24, "velocity": 66}, {"time": 26, "pitch": 77, "duration": 5, "velocity": 66}, {"time": 30, "pitch": 73, "duration": 4, "velocity": 66}, {"time": 34, "pitch": 70, "duration": 4, "velocity": 66}, {"time": 38, "pitch": 77, "duration": 4, "velocity": 66}, {"time": 42, "pitch": 73, "duration": 4, "velocity": 66}, {"time": 46, "pitch": 70, "duration": 4, "velocity": 66}, {"time": 50, "pitch": 55, "duration": 24, "velocity": 66}, {"time": 50, "pitch": 77, "duration": 4, "velocity": 66}, {"time": 54, "pitch": 73, "duration": 4, "velocity": 66}, {"time": 58, "pitch": 70, "duration": 4, "velocity": 66}, {"time": 62, "pitch": 77, "duration": 4, "velocity": 66}, {"time": 66, "pitch": 73, "duration": 4, "velocity": 66}, {"time": 70, "pitch": 70, "duration": 3, "velocity": 66}, {"time": 74, "pitch": 51, "duration": 11, "velocity": 66}, {"time": 74, "pitch": 78, "duration": 4, "velocity": 66}, {"time": 78, "pitch": 73, "duration": 4, "velocity": 66}, {"time": 82, "pitch": 70, "duration": 4, "velocity": 66}, {"time": 86, "pitch": 53, "duration": 13, "velocity": 66}, {"time": 86, "pitch": 80, "duration": 5, "velocity": 66}, {"time": 90, "pitch": 72, "duration": 3, "velocity": 66}, {"time": 94, "pitch": 68, "duration": 4, "velocity": 66}, {"time": 98, "pitch": 46, "duration": 22, "velocity": 66}, {"time": 98, "pitch": 77, "duration": 4, "velocity": 66}, {"time": 102, "pitch": 73, "duration": 4, "velocity": 66}, {"time": 106, "pitch": 70, "duration": 3, "velocity": 66}, {"time": 110, "pitch": 77, "duration": 4, "velocity": 66}, {"time": 114, "pitch": 73, "duration": 4, "velocity": 66}, {"time": 118, "pitch": 70, "duration": 4, "velocity": 66}, {"time": 122, "pitch": 54, "duration": 23, "velocity": 66}, {"time": 122, "pitch": 77, "duration": 4, "velocity": 66}, {"time": 126, "pitch": 73, "duration": 4, "velocity": 66}, {"time": 130, "pitch": 70, "duration": 4, "velocity": 66}, {"time": 134, "pitch": 77, "duration": 4, "velocity": 66}, {"time": 138, "pitch": 73, "duration": 4, "velocity": 66}, {"time": 142, "pitch": 70, "duration": 4, "velocity": 66}, {"time": 146, "pitch": 55, "duration": 24, "velocity": 66}, {"time": 146, "pitch": 77, "duration": 4, "velocity": 66}, {"time": 150, "pitch": 73, "duration": 4, "velocity": 66}, {"time": 154, "pitch": 70, "duration": 3, "velocity": 66}, {"time": 158, "pitch": 77, "duration": 4, "velocity": 66}, {"time": 162, "pitch": 73, "duration": 4, "velocity": 66}, {"time": 166, "pitch": 70, "duration": 3, "velocity": 66}, {"time": 170, "pitch": 51, "duration": 12, "velocity": 66}, {"time": 170, "pitch": 78, "duration": 4, "velocity": 66}, {"time": 174, "pitch": 73, "duration": 4, "velocity": 66}, {"time": 178, "pitch": 70, "duration": 4, "velocity": 66}, {"time": 182, "pitch": 53, "duration": 12, "velocity": 66}, {"time": 182, "pitch": 80, "duration": 3, "velocity": 66}, {"time": 186, "pitch": 72, "duration": 4, "velocity": 66}, {"time": 190, "pitch": 68, "duration": 5, "velocity": 66}, {"time": 194, "pitch": 46, "duration": 17, "velocity": 66}, {"time": 198, "pitch": 58, "duration": 9, "velocity": 66}, {"time": 202, "pitch": 61, "duration": 3, "velocity": 66}, {"time": 206, "pitch": 61, "duration": 3, "velocity": 66}, {"time": 206, "pitch": 65, "duration": 5, "velocity": 66}, {"time": 210, "pitch": 58, "duration": 5, "velocity": 66}, {"time": 214, "pitch": 61, "duration": 3, "velocity": 66}, {"time": 218, "pitch": 51, "duration": 18, "velocity": 66}, {"time": 222, "pitch": 58, "duration": 9, "velocity": 66}, {"time": 226, "pitch": 63, "duration": 2, "velocity": 66}, {"time": 230, "pitch": 63, "duration": 5, "velocity": 66}, {"time": 230, "pitch": 66, "duration": 4, "velocity": 66}, {"time": 234, "pitch": 58, "duration": 4, "velocity": 66}, {"time": 238, "pitch": 63, "duration": 3, "velocity": 66}, {"time": 238, "pitch": 70, "duration": 2, "velocity": 66}, {"time": 242, "pitch": 53, "duration": 18, "velocity": 66}, {"time": 246, "pitch": 60, "duration": 10, "velocity": 66}, {"time": 250, "pitch": 65, "duration": 2, "velocity": 66}, {"time": 254, "pitch": 65, "duration": 5, "velocity": 66}, {"time": 254, "pitch": 68, "duration": 5, "velocity": 66}, {"time": 254, "pitch": 72, "duration": 5, "velocity": 66}, {"time": 258, "pitch": 60, "duration": 3, "velocity": 66}, {"time": 262, "pitch": 65, "duration": 2, "velocity": 66}, {"time": 262, "pitch": 68, "duration": 3, "velocity": 66}, {"time": 262, "pitch": 72, "duration": 3, "velocity": 66}, {"time": 266, "pitch": 46, "duration": 20, "velocity": 66}, {"time": 270, "pitch": 58, "duration": 10, "velocity": 66}, {"time": 274, "pitch": 61, "duration": 8, "velocity": 66}, {"time": 278, "pitch": 65, "duration": 4, "velocity": 66}, {"time": 282, "pitch": 58, "duration": 5, "velocity": 66}, {"time": 286, "pitch": 61, "duration": 3, "velocity": 66}, {"time": 290, "pitch": 46, "duration": 20, "velocity": 66}, {"time": 294, "pitch": 58, "duration": 9, "velocity": 66}, {"time": 298, "pitch": 61, "duration": 3, "velocity": 66}, {"time": 302, "pitch": 65, "duration": 4, "velocity": 66}, {"time": 306, "pitch": 58, "duration": 6, "velocity": 66}, {"time": 310, "pitch": 61, "duration": 4, "velocity": 66}, {"time": 314, "pitch": 51, "duration": 22, "velocity": 66}, {"time": 318, "pitch": 58, "duration": 9, "velocity": 66}, {"time": 322, "pitch": 63, "duration": 3, "velocity": 66}, {"time": 326, "pitch": 66, "duration": 5, "velocity": 66}, {"time": 330, "pitch": 58, "duration": 6, "velocity": 66}, {"time": 334, "pitch": 63, "duration": 3, "velocity": 66}, {"time": 338, "pitch": 53, "duration": 21, "velocity": 66}, {"time": 342, "pitch": 60, "duration": 10, "velocity": 66}, {"time": 346, "pitch": 65, "duration": 3, "velocity": 66}, {"time": 350, "pitch": 65, "duration": 4, "velocity": 66}, {"time": 350, "pitch": 68, "duration": 4, "velocity": 66}, {"time": 350, "pitch": 72, "duration": 4, "velocity": 66}, {"time": 354, "pitch": 60, "duration": 5, "velocity": 66}, {"time": 358, "pitch": 65, "duration": 3, "velocity": 66}, {"time": 358, "pitch": 68, "duration": 3, "velocity": 66}, {"time": 358, "pitch": 72, "duration": 3, "velocity": 66}, {"time": 362, "pitch": 49, "duration": 9, "velocity": 66}, {"time": 366, "pitch": 56, "duration": 5, "velocity": 66}, {"time": 370, "pitch": 61, "duration": 4, "velocity": 66}, {"time": 374, "pitch": 48, "duration": 12, "velocity": 66}, {"time": 378, "pitch": 60, "duration": 8, "velocity": 66}, {"time": 386, "pitch": 54, "duration": 19, "velocity": 66}, {"time": 390, "pitch": 61, "duration": 10, "velocity": 66}, {"time": 394, "pitch": 66, "duration": 3, "velocity": 66}, {"time": 398, "pitch": 70, "duration": 4, "velocity": 66}, {"time": 402, "pitch": 61, "duration": 3, "velocity": 66}, {"time": 406, "pitch": 66, "duration": 3, "velocity": 66}, {"time": 410, "pitch": 53, "duration": 19, "velocity": 66}, {"time": 414, "pitch": 60, "duration": 10, "velocity": 66}, {"time": 418, "pitch": 65, "duration": 4, "velocity": 66}, {"time": 422, "pitch": 68, "duration": 5, "velocity": 66}, {"time": 426, "pitch": 60, "duration": 4, "velocity": 66}, {"time": 430, "pitch": 65, "duration": 4, "velocity": 66}, {"time": 434, "pitch": 51, "duration": 22, "velocity": 66}, {"time": 438, "pitch": 58, "duration": 10, "velocity": 66}, {"time": 442, "pitch": 63, "duration": 5, "velocity": 66}, {"time": 446, "pitch": 66, "duration": 5, "velocity": 66}, {"time": 450, "pitch": 58, "duration": 6, "velocity": 66}, {"time": 454, "pitch": 63, "duration": 2, "velocity": 66}, {"time": 458, "pitch": 53, "duration": 19, "velocity": 66}, {"time": 462, "pitch": 60, "duration": 9, "velocity": 66}, {"time": 466, "pitch": 65, "duration": 4, "velocity": 66}, {"time": 470, "pitch": 68, "duration": 5, "velocity": 66}, {"time": 474, "pitch": 60, "duration": 4, "velocity": 66}, {"time": 478, "pitch": 65, "duration": 4, "velocity": 66}, {"time": 482, "pitch": 46, "duration": 23, "velocity": 66}, {"time": 486, "pitch": 58, "duration": 9, "velocity": 66}, {"time": 490, "pitch": 61, "duration": 3, "velocity": 66}, {"time": 494, "pitch": 65, "duration": 5, "velocity": 66}, {"time": 498, "pitch": 58, "duration": 7, "velocity": 66}, {"time": 502, "pitch": 61, "duration": 3, "velocity": 66}, {"time": 506, "pitch": 51, "duration": 22, "velocity": 66}, {"time": 510, "pitch": 58, "duration": 10, "velocity": 66}, {"time": 514, "pitch": 63, "duration": 4, "velocity": 66}, {"time": 518, "pitch": 66, "duration": 5, "velocity": 66}, {"time": 522, "pitch": 58, "duration": 6, "velocity": 66}, {"time": 526, "pitch": 63, "duration": 3, "velocity": 66}, {"time": 530, "pitch": 53, "duration": 19, "velocity": 66}, {"time": 534, "pitch": 60, "duration": 10, "velocity": 66}, {"time": 538, "pitch": 65, "duration": 3, "velocity": 66}, {"time": 542, "pitch": 68, "duration": 4, "velocity": 66}, {"time": 546, "pitch": 60, "duration": 4, "velocity": 66}, {"time": 550, "pitch": 65, "duration": 4, "velocity": 66}, {"time": 554, "pitch": 46, "duration": 8, "velocity": 66}, {"time": 558, "pitch": 58, "duration": 7, "velocity": 66}, {"time": 562, "pitch": 61, "duration": 4, "velocity": 66}, {"time": 566, "pitch": 65, "duration": 3, "velocity": 66}, {"time": 570, "pitch": 61, "duration": 2, "velocity": 66}, {"time": 574, "pitch": 58, "duration": 6, "velocity": 66}, {"time": 579, "pitch": 46, "duration": 8, "velocity": 66}, {"time": 587, "pitch": 53, "duration": 24, "velocity": 66}, {"time": 587, "pitch": 77, "duration": 3, "velocity": 66}, {"time": 591, "pitch": 73, "duration": 3, "velocity": 66}, {"time": 595, "pitch": 70, "duration": 3, "velocity": 66}, {"time": 599, "pitch": 77, "duration": 4, "velocity": 66}, {"time": 603, "pitch": 73, "duration": 4, "velocity": 66}, {"time": 607, "pitch": 70, "duration": 2, "velocity": 66}, {"time": 611, "pitch": 54, "duration": 24, "velocity": 66}, {"time": 611, "pitch": 77, "duration": 5, "velocity": 66}, {"time": 615, "pitch": 73, "duration": 4, "velocity": 66}, {"time": 619, "pitch": 70, "duration": 4, "velocity": 66}, {"time": 623, "pitch": 77, "duration": 5, "velocity": 66}, {"time": 627, "pitch": 73, "duration": 4, "velocity": 66}, {"time": 631, "pitch": 70, "duration": 4, "velocity": 66}, {"time": 635, "pitch": 55, "duration": 15, "velocity": 66}, {"time": 635, "pitch": 77, "duration": 4, "velocity": 66}, {"time": 639, "pitch": 73, "duration": 4, "velocity": 66}, {"time": 643, "pitch": 70, "duration": 4, "velocity": 66}, {"time": 648, "pitch": 51, "duration": 11, "velocity": 66}, {"time": 648, "pitch": 78, "duration": 4, "velocity": 66}, {"time": 652, "pitch": 73, "duration": 3, "velocity": 66}, {"time": 656, "pitch": 70, "duration": 4, "velocity": 66}, {"time": 660, "pitch": 53, "duration": 12, "velocity": 66}, {"time": 660, "pitch": 80, "duration": 4, "velocity": 66}, {"time": 664, "pitch": 72, "duration": 3, "velocity": 66}, {"time": 668, "pitch": 68, "duration": 4, "velocity": 66}, {"time": 672, "pitch": 46, "duration": 6, "velocity": 66}, {"time": 672, "pitch": 77, "duration": 3, "velocity": 66}, {"time": 676, "pitch": 73, "duration": 4, "velocity": 66}, {"time": 680, "pitch": 70, "duration": 3, "velocity": 66}, {"time": 684, "pitch": 77, "duration": 4, "velocity": 66}, {"time": 688, "pitch": 73, "duration": 4, "velocity": 66}, {"time": 692, "pitch": 70, "duration": 4, "velocity": 66}, {"time": 696, "pitch": 54, "duration": 23, "velocity": 66}, {"time": 696, "pitch": 77, "duration": 4, "velocity": 66}, {"time": 700, "pitch": 73, "duration": 4, "velocity": 66}, {"time": 704, "pitch": 70, "duration": 4, "velocity": 66}, {"time": 708, "pitch": 77, "duration": 4, "velocity": 66}, {"time": 712, "pitch": 73, "duration": 4, "velocity": 66}, {"time": 716, "pitch": 70, "duration": 4, "velocity": 66}, {"time": 720, "pitch": 55, "duration": 24, "velocity": 66}, {"time": 720, "pitch": 77, "duration": 4, "velocity": 66}, {"time": 724, "pitch": 73, "duration": 4, "velocity": 66}, {"time": 728, "pitch": 70, "duration": 3, "velocity": 66}, {"time": 732, "pitch": 77, "duration": 4, "velocity": 66}, {"time": 736, "pitch": 73, "duration": 4, "velocity": 66}, {"time": 740, "pitch": 70, "duration": 3, "velocity": 66}, {"time": 745, "pitch": 51, "duration": 12, "velocity": 66}, {"time": 745, "pitch": 77, "duration": 3, "velocity": 66}, {"time": 749, "pitch": 73, "duration": 3, "velocity": 66}, {"time": 753, "pitch": 70, "duration": 4, "velocity": 66}, {"time": 757, "pitch": 53, "duration": 11, "velocity": 66}, {"time": 757, "pitch": 78, "duration": 3, "velocity": 66}, {"time": 761, "pitch": 72, "duration": 4, "velocity": 66}, {"time": 765, "pitch": 68, "duration": 3, "velocity": 66}, {"time": 781, "pitch": 80, "duration": 3, "velocity": 66}, {"time": 781, "pitch": 46, "duration": 17, "velocity": 66}, {"time": 785, "pitch": 58, "duration": 8, "velocity": 66}, {"time": 789, "pitch": 61, "duration": 3, "velocity": 66}, {"time": 793, "pitch": 65, "duration": 5, "velocity": 66}, {"time": 797, "pitch": 58, "duration": 6, "velocity": 66}, {"time": 801, "pitch": 61, "duration": 4, "velocity": 66}, {"time": 805, "pitch": 51, "duration": 18, "velocity": 66}, {"time": 809, "pitch": 58, "duration": 9, "velocity": 66}, {"time": 813, "pitch": 63, "duration": 3, "velocity": 66}, {"time": 817, "pitch": 66, "duration": 4, "velocity": 66}, {"time": 821, "pitch": 58, "duration": 4, "velocity": 66}, {"time": 825, "pitch": 63, "duration": 3, "velocity": 66}, {"time": 829, "pitch": 53, "duration": 18, "velocity": 66}, {"time": 833, "pitch": 60, "duration": 9, "velocity": 66}, {"time": 837, "pitch": 65, "duration": 3, "velocity": 66}, {"time": 841, "pitch": 68, "duration": 9, "velocity": 66}, {"time": 845, "pitch": 60, "duration": 3, "velocity": 66}, {"time": 849, "pitch": 65, "duration": 4, "velocity": 66}, {"time": 853, "pitch": 46, "duration": 22, "velocity": 66}, {"time": 857, "pitch": 58, "duration": 10, "velocity": 66}, {"time": 861, "pitch": 61, "duration": 4, "velocity": 66}, {"time": 865, "pitch": 65, "duration": 8, "velocity": 66}, {"time": 869, "pitch": 58, "duration": 6, "velocity": 66}, {"time": 873, "pitch": 61, "duration": 3, "velocity": 66}, {"time": 878, "pitch": 46, "duration": 17, "velocity": 66}, {"time": 882, "pitch": 58, "duration": 9, "velocity": 66}, {"time": 886, "pitch": 61, "duration": 3, "velocity": 66}, {"time": 890, "pitch": 65, "duration": 7, "velocity": 66}, {"time": 894, "pitch": 58, "duration": 6, "velocity": 66}, {"time": 898, "pitch": 61, "duration": 4, "velocity": 66}, {"time": 902, "pitch": 51, "duration": 18, "velocity": 66}, {"time": 906, "pitch": 58, "duration": 9, "velocity": 66}, {"time": 910, "pitch": 63, "duration": 3, "velocity": 66}, {"time": 914, "pitch": 66, "duration": 4, "velocity": 66}, {"time": 918, "pitch": 58, "duration": 4, "velocity": 66}, {"time": 922, "pitch": 63, "duration": 3, "velocity": 66}, {"time": 926, "pitch": 53, "duration": 20, "velocity": 66}, {"time": 930, "pitch": 60, "duration": 9, "velocity": 66}, {"time": 934, "pitch": 65, "duration": 3, "velocity": 66}, {"time": 938, "pitch": 68, "duration": 7, "velocity": 66}, {"time": 942, "pitch": 60, "duration": 4, "velocity": 66}, {"time": 946, "pitch": 65, "duration": 3, "velocity": 66}, {"time": 950, "pitch": 49, "duration": 10, "velocity": 66}, {"time": 954, "pitch": 56, "duration": 6, "velocity": 66}, {"time": 958, "pitch": 61, "duration": 5, "velocity": 66}, {"time": 962, "pitch": 48, "duration": 8, "velocity": 66}, {"time": 966, "pitch": 55, "duration": 4, "velocity": 66}, {"time": 970, "pitch": 60, "duration": 3, "velocity": 66}, {"time": 974, "pitch": 54, "duration": 20, "velocity": 66}, {"time": 978, "pitch": 61, "duration": 9, "velocity": 66}, {"time": 982, "pitch": 66, "duration": 5, "velocity": 66}, {"time": 986, "pitch": 70, "duration": 4, "velocity": 66}, {"time": 990, "pitch": 61, "duration": 5, "velocity": 66}, {"time": 994, "pitch": 66, "duration": 4, "velocity": 66}, {"time": 998, "pitch": 53, "duration": 20, "velocity": 66}, {"time": 1002, "pitch": 60, "duration": 9, "velocity": 66}, {"time": 1006, "pitch": 65, "duration": 4, "velocity": 66}, {"time": 1010, "pitch": 68, "duration": 5, "velocity": 66}, {"time": 1014, "pitch": 60, "duration": 4, "velocity": 66}, {"time": 1018, "pitch": 65, "duration": 4, "velocity": 66}, {"time": 1022, "pitch": 51, "duration": 20, "velocity": 66}, {"time": 1026, "pitch": 58, "duration": 10, "velocity": 66}, {"time": 1030, "pitch": 63, "duration": 4, "velocity": 66}, {"time": 1034, "pitch": 66, "duration": 5, "velocity": 66}, {"time": 1038, "pitch": 58, "duration": 5, "velocity": 66}, {"time": 1042, "pitch": 63, "duration": 2, "velocity": 66}, {"time": 1046, "pitch": 53, "duration": 21, "velocity": 66}, {"time": 1050, "pitch": 60, "duration": 10, "velocity": 66}, {"time": 1054, "pitch": 65, "duration": 4, "velocity": 66}, {"time": 1058, "pitch": 68, "duration": 7, "velocity": 66}, {"time": 1062, "pitch": 60, "duration": 5, "velocity": 66}, {"time": 1066, "pitch": 65, "duration": 2, "velocity": 66}, {"time": 1070, "pitch": 46, "duration": 20, "velocity": 66}, {"time": 1074, "pitch": 58, "duration": 9, "velocity": 66}, {"time": 1078, "pitch": 61, "duration": 3, "velocity": 66}, {"time": 1082, "pitch": 65, "duration": 5, "velocity": 66}, {"time": 1086, "pitch": 58, "duration": 6, "velocity": 66}, {"time": 1090, "pitch": 61, "duration": 4, "velocity": 66}, {"time": 1094, "pitch": 51, "duration": 20, "velocity": 66}, {"time": 1098, "pitch": 58, "duration": 9, "velocity": 66}, {"time": 1102, "pitch": 63, "duration": 4, "velocity": 66}, {"time": 1106, "pitch": 66, "duration": 4, "velocity": 66}, {"time": 1110, "pitch": 58, "duration": 5, "velocity": 66}, {"time": 1114, "pitch": 63, "duration": 3, "velocity": 66}, {"time": 1118, "pitch": 53, "duration": 21, "velocity": 66}, {"time": 1122, "pitch": 60, "duration": 9, "velocity": 66}, {"time": 1126, "pitch": 65, "duration": 4, "velocity": 66}, {"time": 1130, "pitch": 68, "duration": 7, "velocity": 66}, {"time": 1134, "pitch": 60, "duration": 5, "velocity": 66}, {"time": 1138, "pitch": 65, "duration": 3, "velocity": 66}, {"time": 1142, "pitch": 46, "duration": 21, "velocity": 66}, {"time": 1146, "pitch": 58, "duration": 9, "velocity": 66}, {"time": 1150, "pitch": 61, "duration": 3, "velocity": 66}, {"time": 1154, "pitch": 65, "duration": 4, "velocity": 66}, {"time": 1158, "pitch": 58, "duration": 6, "velocity": 66}, {"time": 1162, "pitch": 61, "duration": 3, "velocity": 66}, {"time": 1167, "pitch": 54, "duration": 19, "velocity": 66}, {"time": 1171, "pitch": 61, "duration": 9, "velocity": 66}, {"time": 1175, "pitch": 66, "duration": 3, "velocity": 66}, {"time": 1179, "pitch": 70, "duration": 4, "velocity": 66}, {"time": 1183, "pitch": 61, "duration": 4, "velocity": 66}, {"time": 1187, "pitch": 66, "duration": 3, "velocity": 66}, {"time": 1191, "pitch": 53, "duration": 19, "velocity": 66}, {"time": 1195, "pitch": 60, "duration": 8, "velocity": 66}, {"time": 1199, "pitch": 65, "duration": 4, "velocity": 66}, {"time": 1203, "pitch": 68, "duration": 7, "velocity": 66}, {"time": 1207, "pitch": 60, "duration": 3, "velocity": 66}, {"time": 1211, "pitch": 65, "duration": 3, "velocity": 66}, {"time": 1215, "pitch": 51, "duration": 21, "velocity": 66}, {"time": 1219, "pitch": 58, "duration": 9, "velocity": 66}, {"time": 1223, "pitch": 63, "duration": 4, "velocity": 66}, {"time": 1227, "pitch": 66, "duration": 5, "velocity": 66}, {"time": 1231, "pitch": 58, "duration": 6, "velocity": 66}, {"time": 1235, "pitch": 63, "duration": 3, "velocity": 66}, {"time": 1239, "pitch": 53, "duration": 18, "velocity": 66}, {"time": 1243, "pitch": 60, "duration": 9, "velocity": 66}, {"time": 1247, "pitch": 65, "duration": 3, "velocity": 66}, {"time": 1251, "pitch": 68, "duration": 6, "velocity": 66}, {"time": 1255, "pitch": 60, "duration": 3, "velocity": 66}, {"time": 1259, "pitch": 65, "duration": 3, "velocity": 66}, {"time": 1263, "pitch": 46, "duration": 21, "velocity": 66}, {"time": 1267, "pitch": 58, "duration": 9, "velocity": 66}, {"time": 1271, "pitch": 61, "duration": 4, "velocity": 66}, {"time": 1275, "pitch": 65, "duration": 5, "velocity": 66}, {"time": 1279, "pitch": 58, "duration": 5, "velocity": 66}, {"time": 1283, "pitch": 61, "duration": 4, "velocity": 66}, {"time": 1287, "pitch": 51, "duration": 18, "velocity": 66}, {"time": 1291, "pitch": 58, "duration": 9, "velocity": 66}, {"time": 1295, "pitch": 63, "duration": 3, "velocity": 66}, {"time": 1299, "pitch": 66, "duration": 4, "velocity": 66}, {"time": 1303, "pitch": 58, "duration": 4, "velocity": 66}, {"time": 1307, "pitch": 63, "duration": 3, "velocity": 66}, {"time": 1311, "pitch": 53, "duration": 18, "velocity": 66}, {"time": 1315, "pitch": 60, "duration": 9, "velocity": 66}, {"time": 1319, "pitch": 65, "duration": 4, "velocity": 66}, {"time": 1323, "pitch": 68, "duration": 4, "velocity": 66}, {"time": 1327, "pitch": 60, "duration": 2, "velocity": 66}, {"time": 1330, "pitch": 65, "duration": 4, "velocity": 66}, {"time": 1335, "pitch": 46, "duration": 19, "velocity": 66}, {"time": 1339, "pitch": 58, "duration": 9, "velocity": 66}, {"time": 1343, "pitch": 61, "duration": 3, "velocity": 66}, {"time": 1347, "pitch": 65, "duration": 5, "velocity": 66}, {"time": 1351, "pitch": 58, "duration": 6, "velocity": 66}, {"time": 1355, "pitch": 61, "duration": 3, "velocity": 66}, {"time": 1359, "pitch": 54, "duration": 18, "velocity": 66}, {"time": 1363, "pitch": 61, "duration": 9, "velocity": 66}, {"time": 1367, "pitch": 66, "duration": 4, "velocity": 66}, {"time": 1371, "pitch": 70, "duration": 4, "velocity": 66}, {"time": 1375, "pitch": 61, "duration": 4, "velocity": 66}, {"time": 1379, "pitch": 66, "duration": 3, "velocity": 66}, {"time": 1383, "pitch": 53, "duration": 19, "velocity": 66}, {"time": 1387, "pitch": 60, "duration": 9, "velocity": 66}, {"time": 1391, "pitch": 65, "duration": 4, "velocity": 66}, {"time": 1395, "pitch": 68, "duration": 7, "velocity": 66}, {"time": 1399, "pitch": 60, "duration": 4, "velocity": 66}, {"time": 1403, "pitch": 65, "duration": 4, "velocity": 66}, {"time": 1407, "pitch": 51, "duration": 21, "velocity": 66}, {"time": 1411, "pitch": 58, "duration": 9, "velocity": 66}, {"time": 1415, "pitch": 63, "duration": 4, "velocity": 66}, {"time": 1419, "pitch": 66, "duration": 4, "velocity": 66}, {"time": 1423, "pitch": 58, "duration": 6, "velocity": 66}, {"time": 1427, "pitch": 63, "duration": 3, "velocity": 66}, {"time": 1431, "pitch": 53, "duration": 18, "velocity": 66}, {"time": 1435, "pitch": 60, "duration": 8, "velocity": 66}, {"time": 1439, "pitch": 65, "duration": 3, "velocity": 66}, {"time": 1443, "pitch": 68, "duration": 6, "velocity": 66}, {"time": 1446, "pitch": 60, "duration": 4, "velocity": 66}, {"time": 1450, "pitch": 65, "duration": 4, "velocity": 66}, {"time": 1455, "pitch": 46, "duration": 19, "velocity": 66}, {"time": 1459, "pitch": 58, "duration": 9, "velocity": 66}, {"time": 1463, "pitch": 61, "duration": 4, "velocity": 66}, {"time": 1467, "pitch": 65, "duration": 4, "velocity": 66}, {"time": 1470, "pitch": 58, "duration": 7, "velocity": 66}, {"time": 1474, "pitch": 61, "duration": 5, "velocity": 66}, {"time": 1478, "pitch": 51, "duration": 21, "velocity": 66}, {"time": 1483, "pitch": 58, "duration": 9, "velocity": 66}, {"time": 1486, "pitch": 63, "duration": 5, "velocity": 66}, {"time": 1490, "pitch": 66, "duration": 6, "velocity": 66}, {"time": 1495, "pitch": 58, "duration": 5, "velocity": 66}, {"time": 1499, "pitch": 63, "duration": 2, "velocity": 66}, {"time": 1503, "pitch": 53, "duration": 20, "velocity": 66}, {"time": 1507, "pitch": 60, "duration": 9, "velocity": 66}, {"time": 1511, "pitch": 65, "duration": 3, "velocity": 66}, {"time": 1515, "pitch": 68, "duration": 6, "velocity": 66}, {"time": 1519, "pitch": 60, "duration": 4, "velocity": 66}, {"time": 1523, "pitch": 65, "duration": 3, "velocity": 66}, {"time": 1527, "pitch": 46, "duration": 22, "velocity": 66}, {"time": 1531, "pitch": 58, "duration": 10, "velocity": 66}, {"time": 1535, "pitch": 61, "duration": 4, "velocity": 66}, {"time": 1539, "pitch": 60, "duration": 7, "velocity": 66}, {"time": 1547, "pitch": 61, "duration": 4, "velocity": 66}, {"time": 1549, "pitch": 53, "duration": 7, "velocity": 66}, {"time": 1553, "pitch": 58, "duration": 4, "velocity": 66}, {"time": 1557, "pitch": 61, "duration": 5, "velocity": 66}, {"time": 1561, "pitch": 53, "duration": 6, "velocity": 66}, {"time": 1565, "pitch": 58, "duration": 4, "velocity": 66}, {"time": 1569, "pitch": 61, "duration": 4, "velocity": 66}, {"time": 1573, "pitch": 54, "duration": 5, "velocity": 66}, {"time": 1577, "pitch": 58, "duration": 4, "velocity": 66}, {"time": 1581, "pitch": 61, "duration": 5, "velocity": 66}, {"time": 1585, "pitch": 54, "duration": 5, "velocity": 66}, {"time": 1589, "pitch": 58, "duration": 4, "velocity": 66}, {"time": 1593, "pitch": 61, "duration": 4, "velocity": 66}, {"time": 1597, "pitch": 55, "duration": 7, "velocity": 66}, {"time": 1601, "pitch": 58, "duration": 4, "velocity": 66}, {"time": 1605, "pitch": 61, "duration": 4, "velocity": 66}, {"time": 1609, "pitch": 55, "duration": 5, "velocity": 66}, {"time": 1613, "pitch": 58, "duration": 4, "velocity": 66}, {"time": 1617, "pitch": 61, "duration": 3, "velocity": 66}, {"time": 1621, "pitch": 51, "duration": 6, "velocity": 66}, {"time": 1625, "pitch": 58, "duration": 4, "velocity": 66}, {"time": 1629, "pitch": 63, "duration": 4, "velocity": 66}, {"time": 1633, "pitch": 53, "duration": 5, "velocity": 66}, {"time": 1637, "pitch": 56, "duration": 4, "velocity": 66}, {"time": 1641, "pitch": 63, "duration": 4, "velocity": 66}, {"time": 1645, "pitch": 53, "duration": 6, "velocity": 66}, {"time": 1649, "pitch": 58, "duration": 4, "velocity": 66}, {"time": 1653, "pitch": 61, "duration": 4, "velocity": 66}, {"time": 1657, "pitch": 53, "duration": 5, "velocity": 66}, {"time": 1661, "pitch": 58, "duration": 4, "velocity": 66}, {"time": 1665, "pitch": 61, "duration": 4, "velocity": 66}, {"time": 1669, "pitch": 54, "duration": 5, "velocity": 66}, {"time": 1673, "pitch": 58, "duration": 4, "velocity": 66}, {"time": 1677, "pitch": 61, "duration": 4, "velocity": 66}, {"time": 1681, "pitch": 54, "duration": 5, "velocity": 66}, {"time": 1685, "pitch": 58, "duration": 4, "velocity": 66}, {"time": 1689, "pitch": 61, "duration": 4, "velocity": 66}, {"time": 1693, "pitch": 55, "duration": 7, "velocity": 66}, {"time": 1697, "pitch": 58, "duration": 4, "velocity": 66}, {"time": 1701, "pitch": 61, "duration": 4, "velocity": 66}, {"time": 1705, "pitch": 55, "duration": 6, "velocity": 66}, {"time": 1709, "pitch": 58, "duration": 4, "velocity": 66}, {"time": 1713, "pitch": 61, "duration": 2, "velocity": 66}, {"time": 1717, "pitch": 51, "duration": 5, "velocity": 66}, {"time": 1721, "pitch": 58, "duration": 5, "velocity": 66}, {"time": 1725, "pitch": 61, "duration": 3, "velocity": 66}, {"time": 1729, "pitch": 53, "duration": 5, "velocity": 66}, {"time": 1733, "pitch": 56, "duration": 4, "velocity": 66}, {"time": 1737, "pitch": 63, "duration": 29, "velocity": 66}]}]}