{"metadata": {"schema_version": "0.2", "title": "None", "source_filename": "807.mid", "source_format": "midi"}, "resolution": 12, "tempos": [{"time": 0, "qpm": 106.90004133468265}, {"time": 1536, "qpm": 105.99995053335641}, {"time": 1872, "qpm": 106.79995300802068}, {"time": 1968, "qpm": 105.90004447801869}, {"time": 1992, "qpm": 104.90005647119706}, {"time": 2016, "qpm": 107.59996485067815}, {"time": 2352, "qpm": 105.20022232313652}, {"time": 2424, "qpm": 105.50007033338022}, {"time": 2460, "qpm": 107.30016685175946}, {"time": 2760, "qpm": 105.90004447801869}, {"time": 2988, "qpm": 107.8000524626922}, {"time": 3288, "qpm": 105.7000514406917}, {"time": 3300, "qpm": 106.7000519273586}, {"time": 3564, "qpm": 107.8000524626922}, {"time": 3660, "qpm": 104.90005647119706}, {"time": 3852, "qpm": 107.40004188601634}, {"time": 4224, "qpm": 105.50007033338022}, {"time": 4404, "qpm": 111.40013256615775}, {"time": 4416, "qpm": 107.59996485067815}, {"time": 4680, "qpm": 105.90004447801869}], "time_signatures": [{"time": 0, "numerator": 1, "denominator": 4}], "tracks": [{"program": 4, "is_drum": false, "name": "MELODY", "notes": [{"time": 390, "pitch": 65, "duration": 7, "velocity": 93}, {"time": 402, "pitch": 65, "duration": 6, "velocity": 93}, {"time": 408, "pitch": 63, "duration": 4, "velocity": 93}, {"time": 414, "pitch": 67, "duration": 5, "velocity": 93}, {"time": 426, "pitch": 67, "duration": 7, "velocity": 93}, {"time": 438, "pitch": 65, "duration": 2, "velocity": 93}, {"time": 444, "pitch": 65, "duration": 2, "velocity": 93}, {"time": 450, "pitch": 65, "duration": 4, "velocity": 93}, {"time": 456, "pitch": 63, "duration": 4, "velocity": 93}, {"time": 462, "pitch": 67, "duration": 11, "velocity": 93}, {"time": 486, "pitch": 65, "duration": 7, "velocity": 93}, {"time": 498, "pitch": 65, "duration": 6, "velocity": 93}, {"time": 504, "pitch": 63, "duration": 4, "velocity": 93}, {"time": 510, "pitch": 67, "duration": 5, "velocity": 93}, {"time": 522, "pitch": 67, "duration": 7, "velocity": 93}, {"time": 534, "pitch": 65, "duration": 2, "velocity": 93}, {"time": 540, "pitch": 65, "duration": 2, "velocity": 93}, {"time": 546, "pitch": 65, "duration": 4, "velocity": 93}, {"time": 552, "pitch": 63, "duration": 4, "velocity": 93}, {"time": 558, "pitch": 67, "duration": 11, "velocity": 93}, {"time": 582, "pitch": 65, "duration": 6, "velocity": 93}, {"time": 588, "pitch": 67, "duration": 6, "velocity": 93}, {"time": 594, "pitch": 65, "duration": 6, "velocity": 93}, {"time": 600, "pitch": 63, "duration": 6, "velocity": 93}, {"time": 606, "pitch": 60, "duration": 11, "velocity": 93}, {"time": 618, "pitch": 58, "duration": 12, "velocity": 93}, {"time": 630, "pitch": 65, "duration": 6, "velocity": 93}, {"time": 636, "pitch": 67, "duration": 6, "velocity": 93}, {"time": 642, "pitch": 65, "duration": 6, "velocity": 93}, {"time": 648, "pitch": 63, "duration": 6, "velocity": 93}, {"time": 654, "pitch": 60, "duration": 12, "velocity": 93}, {"time": 666, "pitch": 58, "duration": 12, "velocity": 93}, {"time": 678, "pitch": 65, "duration": 6, "velocity": 93}, {"time": 684, "pitch": 67, "duration": 6, "velocity": 93}, {"time": 690, "pitch": 65, "duration": 6, "velocity": 93}, {"time": 696, "pitch": 63, "duration": 6, "velocity": 93}, {"time": 702, "pitch": 60, "duration": 11, "velocity": 93}, {"time": 714, "pitch": 58, "duration": 12, "velocity": 93}, {"time": 726, "pitch": 65, "duration": 3, "velocity": 93}, {"time": 732, "pitch": 65, "duration": 3, "velocity": 93}, {"time": 738, "pitch": 65, "duration": 6, "velocity": 93}, {"time": 744, "pitch": 63, "duration": 6, "velocity": 93}, {"time": 750, "pitch": 67, "duration": 13, "velocity": 93}, {"time": 774, "pitch": 65, "duration": 9, "velocity": 93}, {"time": 786, "pitch": 65, "duration": 6, "velocity": 93}, {"time": 792, "pitch": 63, "duration": 5, "velocity": 93}, {"time": 798, "pitch": 67, "duration": 9, "velocity": 93}, {"time": 810, "pitch": 67, "duration": 10, "velocity": 93}, {"time": 822, "pitch": 65, "duration": 3, "velocity": 93}, {"time": 828, "pitch": 65, "duration": 3, "velocity": 93}, {"time": 834, "pitch": 65, "duration": 6, "velocity": 93}, {"time": 840, "pitch": 63, "duration": 5, "velocity": 93}, {"time": 846, "pitch": 67, "duration": 12, "velocity": 93}, {"time": 870, "pitch": 65, "duration": 9, "velocity": 93}, {"time": 882, "pitch": 65, "duration": 6, "velocity": 93}, {"time": 888, "pitch": 63, "duration": 5, "velocity": 93}, {"time": 894, "pitch": 67, "duration": 9, "velocity": 93}, {"time": 906, "pitch": 67, "duration": 10, "velocity": 93}, {"time": 918, "pitch": 65, "duration": 3, "velocity": 93}, {"time": 924, "pitch": 65, "duration": 3, "velocity": 93}, {"time": 930, "pitch": 65, "duration": 6, "velocity": 93}, {"time": 936, "pitch": 63, "duration": 5, "velocity": 93}, {"time": 942, "pitch": 67, "duration": 12, "velocity": 93}, {"time": 966, "pitch": 65, "duration": 6, "velocity": 93}, {"time": 972, "pitch": 67, "duration": 6, "velocity": 93}, {"time": 978, "pitch": 65, "duration": 6, "velocity": 93}, {"time": 984, "pitch": 63, "duration": 6, "velocity": 93}, {"time": 990, "pitch": 60, "duration": 11, "velocity": 93}, {"time": 1002, "pitch": 58, "duration": 12, "velocity": 93}, {"time": 1014, "pitch": 65, "duration": 6, "velocity": 93}, {"time": 1020, "pitch": 67, "duration": 6, "velocity": 93}, {"time": 1026, "pitch": 65, "duration": 6, "velocity": 93}, {"time": 1032, "pitch": 63, "duration": 6, "velocity": 93}, {"time": 1038, "pitch": 60, "duration": 12, "velocity": 93}, {"time": 1050, "pitch": 58, "duration": 12, "velocity": 93}, {"time": 1062, "pitch": 65, "duration": 6, "velocity": 93}, {"time": 1068, "pitch": 67, "duration": 6, "velocity": 93}, {"time": 1074, "pitch": 65, "duration": 6, "velocity": 93}, {"time": 1080, "pitch": 63, "duration": 6, "velocity": 93}, {"time": 1086, "pitch": 60, "duration": 11, "velocity": 93}, {"time": 1098, "pitch": 58, "duration": 12, "velocity": 93}, {"time": 1110, "pitch": 70, "duration": 9, "velocity": 95}, {"time": 1122, "pitch": 70, "duration": 9, "velocity": 95}, {"time": 1134, "pitch": 63, "duration": 6, "velocity": 95}, {"time": 1140, "pitch": 65, "duration": 6, "velocity": 95}, {"time": 1146, "pitch": 67, "duration": 6, "velocity": 95}, {"time": 1152, "pitch": 70, "duration": 6, "velocity": 95}, {"time": 1158, "pitch": 72, "duration": 24, "velocity": 93}, {"time": 1194, "pitch": 67, "duration": 5, "velocity": 93}, {"time": 1200, "pitch": 65, "duration": 19, "velocity": 93}, {"time": 1230, "pitch": 63, "duration": 5, "velocity": 93}, {"time": 1236, "pitch": 65, "duration": 7, "velocity": 93}, {"time": 1242, "pitch": 67, "duration": 5, "velocity": 93}, {"time": 1248, "pitch": 72, "duration": 6, "velocity": 93}, {"time": 1254, "pitch": 70, "duration": 35, "velocity": 93}, {"time": 1290, "pitch": 65, "duration": 6, "velocity": 93}, {"time": 1296, "pitch": 63, "duration": 6, "velocity": 93}, {"time": 1302, "pitch": 60, "duration": 24, "velocity": 93}, {"time": 1326, "pitch": 58, "duration": 5, "velocity": 93}, {"time": 1332, "pitch": 60, "duration": 6, "velocity": 93}, {"time": 1339, "pitch": 70, "duration": 11, "velocity": 93}, {"time": 1351, "pitch": 68, "duration": 10, "velocity": 93}, {"time": 1363, "pitch": 67, "duration": 5, "velocity": 93}, {"time": 1369, "pitch": 68, "duration": 11, "velocity": 95}, {"time": 1381, "pitch": 67, "duration": 6, "velocity": 95}, {"time": 1387, "pitch": 68, "duration": 12, "velocity": 95}, {"time": 1399, "pitch": 67, "duration": 6, "velocity": 95}, {"time": 1405, "pitch": 68, "duration": 12, "velocity": 95}, {"time": 1423, "pitch": 67, "duration": 6, "velocity": 95}, {"time": 1429, "pitch": 65, "duration": 5, "velocity": 95}, {"time": 1435, "pitch": 63, "duration": 6, "velocity": 95}, {"time": 1441, "pitch": 67, "duration": 26, "velocity": 95}, {"time": 1477, "pitch": 68, "duration": 10, "velocity": 86}, {"time": 1489, "pitch": 70, "duration": 24, "velocity": 92}, {"time": 1519, "pitch": 63, "duration": 6, "velocity": 95}, {"time": 1525, "pitch": 65, "duration": 6, "velocity": 95}, {"time": 1531, "pitch": 67, "duration": 6, "velocity": 95}, {"time": 1537, "pitch": 70, "duration": 6, "velocity": 95}, {"time": 1543, "pitch": 72, "duration": 24, "velocity": 95}, {"time": 1579, "pitch": 67, "duration": 4, "velocity": 95}, {"time": 1585, "pitch": 65, "duration": 19, "velocity": 95}, {"time": 1615, "pitch": 63, "duration": 4, "velocity": 95}, {"time": 1621, "pitch": 65, "duration": 6, "velocity": 95}, {"time": 1627, "pitch": 67, "duration": 5, "velocity": 95}, {"time": 1633, "pitch": 72, "duration": 5, "velocity": 95}, {"time": 1639, "pitch": 70, "duration": 35, "velocity": 95}, {"time": 1675, "pitch": 65, "duration": 6, "velocity": 95}, {"time": 1681, "pitch": 63, "duration": 6, "velocity": 95}, {"time": 1687, "pitch": 60, "duration": 23, "velocity": 95}, {"time": 1711, "pitch": 58, "duration": 5, "velocity": 95}, {"time": 1717, "pitch": 60, "duration": 6, "velocity": 95}, {"time": 1723, "pitch": 70, "duration": 11, "velocity": 95}, {"time": 1735, "pitch": 68, "duration": 10, "velocity": 95}, {"time": 1747, "pitch": 67, "duration": 5, "velocity": 95}, {"time": 1753, "pitch": 68, "duration": 11, "velocity": 95}, {"time": 1765, "pitch": 67, "duration": 6, "velocity": 95}, {"time": 1771, "pitch": 68, "duration": 12, "velocity": 95}, {"time": 1783, "pitch": 67, "duration": 6, "velocity": 95}, {"time": 1789, "pitch": 68, "duration": 12, "velocity": 95}, {"time": 1801, "pitch": 67, "duration": 6, "velocity": 95}, {"time": 1807, "pitch": 65, "duration": 6, "velocity": 95}, {"time": 1813, "pitch": 63, "duration": 5, "velocity": 95}, {"time": 1819, "pitch": 60, "duration": 4, "velocity": 95}, {"time": 1825, "pitch": 63, "duration": 2, "velocity": 95}, {"time": 1831, "pitch": 63, "duration": 24, "velocity": 95}, {"time": 2407, "pitch": 65, "duration": 6, "velocity": 95}, {"time": 2419, "pitch": 65, "duration": 5, "velocity": 93}, {"time": 2425, "pitch": 63, "duration": 4, "velocity": 93}, {"time": 2431, "pitch": 67, "duration": 4, "velocity": 93}, {"time": 2443, "pitch": 67, "duration": 7, "velocity": 93}, {"time": 2455, "pitch": 65, "duration": 1, "velocity": 93}, {"time": 2461, "pitch": 65, "duration": 1, "velocity": 93}, {"time": 2467, "pitch": 65, "duration": 3, "velocity": 93}, {"time": 2473, "pitch": 63, "duration": 4, "velocity": 93}, {"time": 2479, "pitch": 67, "duration": 11, "velocity": 93}, {"time": 2503, "pitch": 65, "duration": 6, "velocity": 93}, {"time": 2515, "pitch": 65, "duration": 5, "velocity": 93}, {"time": 2521, "pitch": 63, "duration": 4, "velocity": 93}, {"time": 2527, "pitch": 67, "duration": 4, "velocity": 93}, {"time": 2539, "pitch": 67, "duration": 7, "velocity": 93}, {"time": 2551, "pitch": 65, "duration": 1, "velocity": 93}, {"time": 2557, "pitch": 65, "duration": 1, "velocity": 93}, {"time": 2563, "pitch": 65, "duration": 3, "velocity": 93}, {"time": 2569, "pitch": 63, "duration": 4, "velocity": 93}, {"time": 2575, "pitch": 67, "duration": 11, "velocity": 93}, {"time": 2599, "pitch": 65, "duration": 5, "velocity": 93}, {"time": 2605, "pitch": 67, "duration": 6, "velocity": 93}, {"time": 2611, "pitch": 65, "duration": 6, "velocity": 93}, {"time": 2617, "pitch": 63, "duration": 6, "velocity": 93}, {"time": 2623, "pitch": 60, "duration": 11, "velocity": 93}, {"time": 2634, "pitch": 58, "duration": 13, "velocity": 93}, {"time": 2647, "pitch": 65, "duration": 6, "velocity": 93}, {"time": 2653, "pitch": 67, "duration": 6, "velocity": 93}, {"time": 2659, "pitch": 65, "duration": 6, "velocity": 93}, {"time": 2665, "pitch": 63, "duration": 6, "velocity": 93}, {"time": 2671, "pitch": 60, "duration": 11, "velocity": 93}, {"time": 2683, "pitch": 58, "duration": 12, "velocity": 93}, {"time": 2695, "pitch": 65, "duration": 6, "velocity": 93}, {"time": 2700, "pitch": 67, "duration": 6, "velocity": 93}, {"time": 2706, "pitch": 65, "duration": 7, "velocity": 93}, {"time": 2712, "pitch": 63, "duration": 6, "velocity": 93}, {"time": 2719, "pitch": 60, "duration": 11, "velocity": 93}, {"time": 2730, "pitch": 58, "duration": 13, "velocity": 93}, {"time": 2743, "pitch": 65, "duration": 3, "velocity": 93}, {"time": 2749, "pitch": 65, "duration": 3, "velocity": 93}, {"time": 2755, "pitch": 65, "duration": 6, "velocity": 93}, {"time": 2761, "pitch": 63, "duration": 6, "velocity": 93}, {"time": 2767, "pitch": 67, "duration": 13, "velocity": 93}, {"time": 2791, "pitch": 65, "duration": 9, "velocity": 93}, {"time": 2803, "pitch": 65, "duration": 5, "velocity": 93}, {"time": 2809, "pitch": 63, "duration": 5, "velocity": 93}, {"time": 2815, "pitch": 67, "duration": 9, "velocity": 93}, {"time": 2827, "pitch": 67, "duration": 10, "velocity": 93}, {"time": 2839, "pitch": 65, "duration": 3, "velocity": 93}, {"time": 2845, "pitch": 65, "duration": 3, "velocity": 93}, {"time": 2851, "pitch": 65, "duration": 6, "velocity": 93}, {"time": 2857, "pitch": 63, "duration": 4, "velocity": 93}, {"time": 2863, "pitch": 67, "duration": 12, "velocity": 93}, {"time": 2887, "pitch": 65, "duration": 9, "velocity": 93}, {"time": 2899, "pitch": 65, "duration": 5, "velocity": 93}, {"time": 2905, "pitch": 63, "duration": 5, "velocity": 93}, {"time": 2911, "pitch": 67, "duration": 9, "velocity": 93}, {"time": 2923, "pitch": 67, "duration": 10, "velocity": 93}, {"time": 2935, "pitch": 65, "duration": 3, "velocity": 93}, {"time": 2941, "pitch": 65, "duration": 3, "velocity": 93}, {"time": 2947, "pitch": 65, "duration": 6, "velocity": 93}, {"time": 2953, "pitch": 63, "duration": 4, "velocity": 93}, {"time": 2959, "pitch": 67, "duration": 12, "velocity": 93}, {"time": 2983, "pitch": 65, "duration": 5, "velocity": 93}, {"time": 2989, "pitch": 67, "duration": 6, "velocity": 93}, {"time": 2995, "pitch": 65, "duration": 6, "velocity": 93}, {"time": 3001, "pitch": 63, "duration": 6, "velocity": 93}, {"time": 3007, "pitch": 60, "duration": 11, "velocity": 93}, {"time": 3018, "pitch": 58, "duration": 13, "velocity": 93}, {"time": 3031, "pitch": 65, "duration": 6, "velocity": 93}, {"time": 3037, "pitch": 67, "duration": 6, "velocity": 93}, {"time": 3043, "pitch": 65, "duration": 6, "velocity": 93}, {"time": 3049, "pitch": 63, "duration": 6, "velocity": 93}, {"time": 3055, "pitch": 60, "duration": 11, "velocity": 93}, {"time": 3067, "pitch": 58, "duration": 12, "velocity": 93}, {"time": 3079, "pitch": 65, "duration": 6, "velocity": 93}, {"time": 3084, "pitch": 67, "duration": 6, "velocity": 93}, {"time": 3090, "pitch": 65, "duration": 7, "velocity": 93}, {"time": 3096, "pitch": 63, "duration": 6, "velocity": 93}, {"time": 3103, "pitch": 60, "duration": 11, "velocity": 93}, {"time": 3114, "pitch": 58, "duration": 13, "velocity": 93}, {"time": 3127, "pitch": 70, "duration": 9, "velocity": 93}, {"time": 3139, "pitch": 70, "duration": 9, "velocity": 93}, {"time": 3151, "pitch": 63, "duration": 6, "velocity": 93}, {"time": 3157, "pitch": 65, "duration": 6, "velocity": 93}, {"time": 3163, "pitch": 67, "duration": 6, "velocity": 93}, {"time": 3169, "pitch": 70, "duration": 6, "velocity": 93}, {"time": 3175, "pitch": 72, "duration": 24, "velocity": 93}, {"time": 3211, "pitch": 67, "duration": 4, "velocity": 93}, {"time": 3217, "pitch": 65, "duration": 19, "velocity": 93}, {"time": 3247, "pitch": 63, "duration": 4, "velocity": 93}, {"time": 3253, "pitch": 65, "duration": 6, "velocity": 93}, {"time": 3259, "pitch": 67, "duration": 5, "velocity": 93}, {"time": 3265, "pitch": 72, "duration": 5, "velocity": 93}, {"time": 3271, "pitch": 70, "duration": 35, "velocity": 93}, {"time": 3307, "pitch": 65, "duration": 6, "velocity": 93}, {"time": 3313, "pitch": 63, "duration": 6, "velocity": 93}, {"time": 3319, "pitch": 60, "duration": 23, "velocity": 93}, {"time": 3343, "pitch": 58, "duration": 5, "velocity": 93}, {"time": 3349, "pitch": 60, "duration": 6, "velocity": 93}, {"time": 3355, "pitch": 70, "duration": 11, "velocity": 93}, {"time": 3367, "pitch": 68, "duration": 10, "velocity": 93}, {"time": 3379, "pitch": 67, "duration": 5, "velocity": 93}, {"time": 3385, "pitch": 68, "duration": 11, "velocity": 93}, {"time": 3397, "pitch": 67, "duration": 6, "velocity": 93}, {"time": 3403, "pitch": 68, "duration": 12, "velocity": 93}, {"time": 3415, "pitch": 67, "duration": 6, "velocity": 93}, {"time": 3421, "pitch": 68, "duration": 12, "velocity": 93}, {"time": 3439, "pitch": 67, "duration": 6, "velocity": 93}, {"time": 3445, "pitch": 65, "duration": 5, "velocity": 93}, {"time": 3451, "pitch": 63, "duration": 6, "velocity": 93}, {"time": 3457, "pitch": 67, "duration": 26, "velocity": 93}, {"time": 3493, "pitch": 68, "duration": 10, "velocity": 84}, {"time": 3505, "pitch": 70, "duration": 20, "velocity": 80}, {"time": 3535, "pitch": 63, "duration": 6, "velocity": 93}, {"time": 3541, "pitch": 65, "duration": 6, "velocity": 93}, {"time": 3547, "pitch": 67, "duration": 6, "velocity": 93}, {"time": 3553, "pitch": 70, "duration": 6, "velocity": 93}, {"time": 3559, "pitch": 72, "duration": 24, "velocity": 95}, {"time": 3595, "pitch": 67, "duration": 4, "velocity": 95}, {"time": 3601, "pitch": 65, "duration": 19, "velocity": 97}, {"time": 3631, "pitch": 63, "duration": 4, "velocity": 97}, {"time": 3637, "pitch": 65, "duration": 6, "velocity": 97}, {"time": 3643, "pitch": 67, "duration": 5, "velocity": 97}, {"time": 3649, "pitch": 72, "duration": 5, "velocity": 97}, {"time": 3655, "pitch": 70, "duration": 12, "velocity": 97}, {"time": 3673, "pitch": 70, "duration": 15, "velocity": 92}, {"time": 3691, "pitch": 65, "duration": 6, "velocity": 97}, {"time": 3697, "pitch": 63, "duration": 6, "velocity": 97}, {"time": 3703, "pitch": 60, "duration": 23, "velocity": 97}, {"time": 3727, "pitch": 58, "duration": 5, "velocity": 97}, {"time": 3733, "pitch": 60, "duration": 6, "velocity": 97}, {"time": 3739, "pitch": 70, "duration": 11, "velocity": 97}, {"time": 3751, "pitch": 68, "duration": 10, "velocity": 97}, {"time": 3763, "pitch": 67, "duration": 5, "velocity": 97}, {"time": 3769, "pitch": 68, "duration": 11, "velocity": 97}, {"time": 3781, "pitch": 67, "duration": 6, "velocity": 97}, {"time": 3787, "pitch": 68, "duration": 12, "velocity": 97}, {"time": 3799, "pitch": 67, "duration": 6, "velocity": 97}, {"time": 3805, "pitch": 68, "duration": 12, "velocity": 97}, {"time": 3817, "pitch": 67, "duration": 6, "velocity": 97}, {"time": 3823, "pitch": 65, "duration": 6, "velocity": 95}, {"time": 3829, "pitch": 63, "duration": 5, "velocity": 95}, {"time": 3835, "pitch": 60, "duration": 4, "velocity": 95}, {"time": 3841, "pitch": 63, "duration": 2, "velocity": 95}, {"time": 3847, "pitch": 63, "duration": 24, "velocity": 95}, {"time": 4206, "pitch": 63, "duration": 6, "velocity": 95}, {"time": 4212, "pitch": 65, "duration": 6, "velocity": 95}, {"time": 4218, "pitch": 67, "duration": 6, "velocity": 95}, {"time": 4224, "pitch": 70, "duration": 6, "velocity": 95}, {"time": 4230, "pitch": 72, "duration": 24, "velocity": 95}, {"time": 4266, "pitch": 67, "duration": 5, "velocity": 95}, {"time": 4272, "pitch": 65, "duration": 19, "velocity": 93}, {"time": 4302, "pitch": 63, "duration": 5, "velocity": 93}, {"time": 4308, "pitch": 65, "duration": 7, "velocity": 93}, {"time": 4314, "pitch": 67, "duration": 5, "velocity": 93}, {"time": 4320, "pitch": 72, "duration": 6, "velocity": 93}, {"time": 4326, "pitch": 70, "duration": 30, "velocity": 93}, {"time": 4356, "pitch": 58, "duration": 6, "velocity": 93}, {"time": 4362, "pitch": 65, "duration": 6, "velocity": 93}, {"time": 4368, "pitch": 63, "duration": 6, "velocity": 93}, {"time": 4374, "pitch": 60, "duration": 24, "velocity": 93}, {"time": 4398, "pitch": 58, "duration": 5, "velocity": 93}, {"time": 4404, "pitch": 60, "duration": 6, "velocity": 93}, {"time": 4410, "pitch": 70, "duration": 12, "velocity": 93}, {"time": 4422, "pitch": 68, "duration": 11, "velocity": 93}, {"time": 4434, "pitch": 67, "duration": 5, "velocity": 93}, {"time": 4440, "pitch": 68, "duration": 11, "velocity": 93}, {"time": 4452, "pitch": 67, "duration": 6, "velocity": 93}, {"time": 4458, "pitch": 68, "duration": 12, "velocity": 93}, {"time": 4470, "pitch": 67, "duration": 6, "velocity": 93}, {"time": 4476, "pitch": 68, "duration": 12, "velocity": 93}, {"time": 4494, "pitch": 67, "duration": 6, "velocity": 93}, {"time": 4500, "pitch": 65, "duration": 5, "velocity": 93}, {"time": 4506, "pitch": 63, "duration": 6, "velocity": 93}, {"time": 4512, "pitch": 67, "duration": 26, "velocity": 93}, {"time": 4548, "pitch": 68, "duration": 8, "velocity": 80}, {"time": 4560, "pitch": 70, "duration": 20, "velocity": 104}, {"time": 4590, "pitch": 63, "duration": 6, "velocity": 95}, {"time": 4596, "pitch": 65, "duration": 6, "velocity": 95}, {"time": 4602, "pitch": 67, "duration": 6, "velocity": 95}, {"time": 4608, "pitch": 70, "duration": 6, "velocity": 95}, {"time": 4614, "pitch": 72, "duration": 24, "velocity": 95}, {"time": 4650, "pitch": 67, "duration": 5, "velocity": 95}, {"time": 4656, "pitch": 65, "duration": 19, "velocity": 95}, {"time": 4686, "pitch": 63, "duration": 5, "velocity": 98}, {"time": 4692, "pitch": 65, "duration": 7, "velocity": 98}, {"time": 4698, "pitch": 67, "duration": 5, "velocity": 98}, {"time": 4704, "pitch": 72, "duration": 6, "velocity": 98}, {"time": 4710, "pitch": 70, "duration": 12, "velocity": 98}, {"time": 4728, "pitch": 70, "duration": 17, "velocity": 98}, {"time": 4746, "pitch": 65, "duration": 6, "velocity": 98}, {"time": 4752, "pitch": 63, "duration": 6, "velocity": 98}, {"time": 4758, "pitch": 60, "duration": 24, "velocity": 98}, {"time": 4782, "pitch": 58, "duration": 5, "velocity": 98}, {"time": 4788, "pitch": 60, "duration": 6, "velocity": 98}, {"time": 4794, "pitch": 70, "duration": 12, "velocity": 98}, {"time": 4806, "pitch": 68, "duration": 11, "velocity": 97}, {"time": 4818, "pitch": 67, "duration": 5, "velocity": 97}, {"time": 4824, "pitch": 68, "duration": 11, "velocity": 97}, {"time": 4836, "pitch": 67, "duration": 6, "velocity": 97}, {"time": 4842, "pitch": 68, "duration": 12, "velocity": 97}, {"time": 4854, "pitch": 67, "duration": 6, "velocity": 97}, {"time": 4860, "pitch": 68, "duration": 12, "velocity": 97}, {"time": 4872, "pitch": 67, "duration": 6, "velocity": 97}, {"time": 4878, "pitch": 65, "duration": 6, "velocity": 97}, {"time": 4884, "pitch": 63, "duration": 6, "velocity": 97}, {"time": 4890, "pitch": 60, "duration": 4, "velocity": 97}, {"time": 4896, "pitch": 63, "duration": 3, "velocity": 97}, {"time": 4902, "pitch": 63, "duration": 24, "velocity": 97}]}, {"program": 0, "is_drum": false, "name": "PIANO", "notes": [{"time": 198, "pitch": 39, "duration": 45, "velocity": 89}, {"time": 204, "pitch": 51, "duration": 9, "velocity": 53}, {"time": 210, "pitch": 58, "duration": 14, "velocity": 84}, {"time": 211, "pitch": 63, "duration": 13, "velocity": 56}, {"time": 211, "pitch": 55, "duration": 13, "velocity": 75}, {"time": 217, "pitch": 51, "duration": 14, "velocity": 53}, {"time": 229, "pitch": 58, "duration": 7, "velocity": 89}, {"time": 229, "pitch": 63, "duration": 7, "velocity": 89}, {"time": 229, "pitch": 55, "duration": 7, "velocity": 84}, {"time": 235, "pitch": 51, "duration": 9, "velocity": 49}, {"time": 241, "pitch": 63, "duration": 5, "velocity": 75}, {"time": 241, "pitch": 58, "duration": 5, "velocity": 89}, {"time": 241, "pitch": 55, "duration": 6, "velocity": 89}, {"time": 247, "pitch": 39, "duration": 38, "velocity": 89}, {"time": 253, "pitch": 51, "duration": 9, "velocity": 45}, {"time": 259, "pitch": 63, "duration": 11, "velocity": 89}, {"time": 259, "pitch": 58, "duration": 11, "velocity": 89}, {"time": 259, "pitch": 55, "duration": 11, "velocity": 89}, {"time": 265, "pitch": 51, "duration": 13, "velocity": 34}, {"time": 277, "pitch": 63, "duration": 6, "velocity": 75}, {"time": 277, "pitch": 58, "duration": 6, "velocity": 89}, {"time": 277, "pitch": 55, "duration": 6, "velocity": 89}, {"time": 282, "pitch": 51, "duration": 8, "velocity": 53}, {"time": 288, "pitch": 55, "duration": 4, "velocity": 68}, {"time": 288, "pitch": 58, "duration": 4, "velocity": 89}, {"time": 288, "pitch": 63, "duration": 4, "velocity": 75}, {"time": 293, "pitch": 44, "duration": 24, "velocity": 75}, {"time": 300, "pitch": 56, "duration": 8, "velocity": 30}, {"time": 306, "pitch": 63, "duration": 12, "velocity": 89}, {"time": 306, "pitch": 60, "duration": 12, "velocity": 84}, {"time": 306, "pitch": 68, "duration": 12, "velocity": 62}, {"time": 312, "pitch": 56, "duration": 6, "velocity": 42}, {"time": 324, "pitch": 60, "duration": 8, "velocity": 84}, {"time": 324, "pitch": 63, "duration": 7, "velocity": 89}, {"time": 324, "pitch": 68, "duration": 7, "velocity": 68}, {"time": 330, "pitch": 56, "duration": 9, "velocity": 62}, {"time": 336, "pitch": 63, "duration": 4, "velocity": 89}, {"time": 336, "pitch": 60, "duration": 4, "velocity": 68}, {"time": 336, "pitch": 68, "duration": 4, "velocity": 53}, {"time": 343, "pitch": 44, "duration": 43, "velocity": 89}, {"time": 344, "pitch": 60, "duration": 42, "velocity": 49}, {"time": 344, "pitch": 63, "duration": 42, "velocity": 27}, {"time": 346, "pitch": 68, "duration": 40, "velocity": 62}, {"time": 346, "pitch": 56, "duration": 40, "velocity": 45}, {"time": 391, "pitch": 39, "duration": 45, "velocity": 89}, {"time": 397, "pitch": 51, "duration": 9, "velocity": 53}, {"time": 403, "pitch": 55, "duration": 14, "velocity": 68}, {"time": 403, "pitch": 58, "duration": 13, "velocity": 75}, {"time": 403, "pitch": 63, "duration": 14, "velocity": 53}, {"time": 409, "pitch": 51, "duration": 14, "velocity": 30}, {"time": 421, "pitch": 55, "duration": 7, "velocity": 75}, {"time": 421, "pitch": 58, "duration": 7, "velocity": 84}, {"time": 421, "pitch": 63, "duration": 7, "velocity": 75}, {"time": 427, "pitch": 51, "duration": 12, "velocity": 45}, {"time": 433, "pitch": 55, "duration": 8, "velocity": 62}, {"time": 433, "pitch": 58, "duration": 6, "velocity": 68}, {"time": 433, "pitch": 63, "duration": 7, "velocity": 56}, {"time": 439, "pitch": 39, "duration": 43, "velocity": 75}, {"time": 445, "pitch": 51, "duration": 8, "velocity": 45}, {"time": 451, "pitch": 55, "duration": 13, "velocity": 75}, {"time": 451, "pitch": 58, "duration": 13, "velocity": 68}, {"time": 451, "pitch": 63, "duration": 13, "velocity": 56}, {"time": 457, "pitch": 51, "duration": 14, "velocity": 19}, {"time": 469, "pitch": 55, "duration": 7, "velocity": 89}, {"time": 469, "pitch": 58, "duration": 6, "velocity": 89}, {"time": 469, "pitch": 63, "duration": 7, "velocity": 68}, {"time": 475, "pitch": 51, "duration": 9, "velocity": 53}, {"time": 481, "pitch": 55, "duration": 7, "velocity": 68}, {"time": 481, "pitch": 58, "duration": 5, "velocity": 62}, {"time": 481, "pitch": 63, "duration": 6, "velocity": 53}, {"time": 487, "pitch": 39, "duration": 43, "velocity": 89}, {"time": 493, "pitch": 51, "duration": 9, "velocity": 56}, {"time": 499, "pitch": 55, "duration": 13, "velocity": 68}, {"time": 499, "pitch": 58, "duration": 12, "velocity": 75}, {"time": 499, "pitch": 63, "duration": 12, "velocity": 56}, {"time": 505, "pitch": 51, "duration": 13, "velocity": 38}, {"time": 517, "pitch": 55, "duration": 7, "velocity": 75}, {"time": 517, "pitch": 58, "duration": 7, "velocity": 68}, {"time": 517, "pitch": 63, "duration": 7, "velocity": 62}, {"time": 523, "pitch": 51, "duration": 9, "velocity": 45}, {"time": 529, "pitch": 55, "duration": 7, "velocity": 56}, {"time": 529, "pitch": 58, "duration": 6, "velocity": 62}, {"time": 529, "pitch": 63, "duration": 7, "velocity": 45}, {"time": 535, "pitch": 39, "duration": 40, "velocity": 75}, {"time": 541, "pitch": 51, "duration": 9, "velocity": 62}, {"time": 547, "pitch": 55, "duration": 10, "velocity": 62}, {"time": 547, "pitch": 58, "duration": 9, "velocity": 62}, {"time": 547, "pitch": 63, "duration": 9, "velocity": 45}, {"time": 553, "pitch": 51, "duration": 13, "velocity": 25}, {"time": 565, "pitch": 55, "duration": 7, "velocity": 68}, {"time": 565, "pitch": 58, "duration": 7, "velocity": 62}, {"time": 565, "pitch": 63, "duration": 7, "velocity": 53}, {"time": 571, "pitch": 51, "duration": 7, "velocity": 45}, {"time": 577, "pitch": 55, "duration": 4, "velocity": 53}, {"time": 577, "pitch": 58, "duration": 3, "velocity": 56}, {"time": 577, "pitch": 63, "duration": 4, "velocity": 53}, {"time": 583, "pitch": 44, "duration": 44, "velocity": 34}, {"time": 589, "pitch": 56, "duration": 9, "velocity": 27}, {"time": 595, "pitch": 60, "duration": 7, "velocity": 28}, {"time": 595, "pitch": 63, "duration": 7, "velocity": 38}, {"time": 595, "pitch": 68, "duration": 7, "velocity": 30}, {"time": 601, "pitch": 56, "duration": 13, "velocity": 27}, {"time": 613, "pitch": 60, "duration": 9, "velocity": 68}, {"time": 613, "pitch": 63, "duration": 9, "velocity": 75}, {"time": 613, "pitch": 68, "duration": 8, "velocity": 53}, {"time": 619, "pitch": 56, "duration": 9, "velocity": 34}, {"time": 625, "pitch": 60, "duration": 5, "velocity": 42}, {"time": 625, "pitch": 63, "duration": 5, "velocity": 45}, {"time": 625, "pitch": 68, "duration": 4, "velocity": 32}, {"time": 631, "pitch": 44, "duration": 43, "velocity": 89}, {"time": 637, "pitch": 56, "duration": 9, "velocity": 89}, {"time": 643, "pitch": 60, "duration": 13, "velocity": 89}, {"time": 643, "pitch": 63, "duration": 12, "velocity": 89}, {"time": 643, "pitch": 68, "duration": 12, "velocity": 89}, {"time": 649, "pitch": 56, "duration": 12, "velocity": 89}, {"time": 661, "pitch": 60, "duration": 6, "velocity": 89}, {"time": 661, "pitch": 63, "duration": 6, "velocity": 89}, {"time": 661, "pitch": 68, "duration": 5, "velocity": 89}, {"time": 667, "pitch": 56, "duration": 9, "velocity": 89}, {"time": 673, "pitch": 60, "duration": 7, "velocity": 89}, {"time": 673, "pitch": 63, "duration": 6, "velocity": 89}, {"time": 673, "pitch": 68, "duration": 6, "velocity": 89}, {"time": 679, "pitch": 44, "duration": 44, "velocity": 89}, {"time": 685, "pitch": 56, "duration": 9, "velocity": 89}, {"time": 691, "pitch": 60, "duration": 13, "velocity": 68}, {"time": 691, "pitch": 63, "duration": 13, "velocity": 84}, {"time": 691, "pitch": 68, "duration": 12, "velocity": 45}, {"time": 697, "pitch": 56, "duration": 13, "velocity": 15}, {"time": 709, "pitch": 60, "duration": 6, "velocity": 75}, {"time": 709, "pitch": 63, "duration": 6, "velocity": 89}, {"time": 709, "pitch": 68, "duration": 6, "velocity": 56}, {"time": 715, "pitch": 56, "duration": 9, "velocity": 56}, {"time": 721, "pitch": 60, "duration": 3, "velocity": 56}, {"time": 721, "pitch": 63, "duration": 3, "velocity": 62}, {"time": 721, "pitch": 68, "duration": 3, "velocity": 38}, {"time": 727, "pitch": 44, "duration": 41, "velocity": 89}, {"time": 733, "pitch": 56, "duration": 8, "velocity": 53}, {"time": 739, "pitch": 60, "duration": 8, "velocity": 75}, {"time": 739, "pitch": 63, "duration": 7, "velocity": 84}, {"time": 739, "pitch": 68, "duration": 7, "velocity": 53}, {"time": 745, "pitch": 56, "duration": 12, "velocity": 38}, {"time": 757, "pitch": 60, "duration": 4, "velocity": 53}, {"time": 757, "pitch": 63, "duration": 4, "velocity": 75}, {"time": 757, "pitch": 68, "duration": 4, "velocity": 45}, {"time": 763, "pitch": 56, "duration": 4, "velocity": 45}, {"time": 769, "pitch": 60, "duration": 4, "velocity": 56}, {"time": 769, "pitch": 63, "duration": 4, "velocity": 62}, {"time": 769, "pitch": 68, "duration": 4, "velocity": 34}, {"time": 775, "pitch": 39, "duration": 43, "velocity": 53}, {"time": 781, "pitch": 51, "duration": 8, "velocity": 62}, {"time": 787, "pitch": 55, "duration": 13, "velocity": 56}, {"time": 787, "pitch": 58, "duration": 12, "velocity": 53}, {"time": 787, "pitch": 63, "duration": 12, "velocity": 38}, {"time": 793, "pitch": 51, "duration": 14, "velocity": 30}, {"time": 805, "pitch": 55, "duration": 8, "velocity": 62}, {"time": 805, "pitch": 58, "duration": 8, "velocity": 68}, {"time": 805, "pitch": 63, "duration": 7, "velocity": 68}, {"time": 811, "pitch": 51, "duration": 10, "velocity": 38}, {"time": 817, "pitch": 55, "duration": 11, "velocity": 56}, {"time": 817, "pitch": 58, "duration": 7, "velocity": 53}, {"time": 817, "pitch": 63, "duration": 7, "velocity": 42}, {"time": 823, "pitch": 39, "duration": 44, "velocity": 84}, {"time": 829, "pitch": 51, "duration": 10, "velocity": 45}, {"time": 835, "pitch": 55, "duration": 14, "velocity": 84}, {"time": 835, "pitch": 58, "duration": 13, "velocity": 68}, {"time": 835, "pitch": 63, "duration": 13, "velocity": 53}, {"time": 841, "pitch": 51, "duration": 14, "velocity": 27}, {"time": 853, "pitch": 55, "duration": 7, "velocity": 75}, {"time": 853, "pitch": 58, "duration": 7, "velocity": 75}, {"time": 853, "pitch": 63, "duration": 7, "velocity": 75}, {"time": 859, "pitch": 51, "duration": 8, "velocity": 49}, {"time": 865, "pitch": 55, "duration": 6, "velocity": 45}, {"time": 865, "pitch": 58, "duration": 5, "velocity": 34}, {"time": 865, "pitch": 63, "duration": 5, "velocity": 27}, {"time": 871, "pitch": 39, "duration": 43, "velocity": 84}, {"time": 877, "pitch": 51, "duration": 10, "velocity": 53}, {"time": 883, "pitch": 55, "duration": 12, "velocity": 75}, {"time": 883, "pitch": 58, "duration": 11, "velocity": 84}, {"time": 883, "pitch": 63, "duration": 11, "velocity": 56}, {"time": 889, "pitch": 51, "duration": 13, "velocity": 38}, {"time": 901, "pitch": 55, "duration": 7, "velocity": 75}, {"time": 901, "pitch": 58, "duration": 7, "velocity": 75}, {"time": 901, "pitch": 63, "duration": 7, "velocity": 68}, {"time": 907, "pitch": 51, "duration": 9, "velocity": 25}, {"time": 913, "pitch": 55, "duration": 7, "velocity": 49}, {"time": 913, "pitch": 58, "duration": 5, "velocity": 42}, {"time": 913, "pitch": 63, "duration": 6, "velocity": 38}, {"time": 919, "pitch": 39, "duration": 40, "velocity": 89}, {"time": 925, "pitch": 51, "duration": 9, "velocity": 49}, {"time": 931, "pitch": 55, "duration": 13, "velocity": 68}, {"time": 931, "pitch": 58, "duration": 12, "velocity": 75}, {"time": 931, "pitch": 63, "duration": 12, "velocity": 53}, {"time": 937, "pitch": 51, "duration": 13, "velocity": 27}, {"time": 949, "pitch": 55, "duration": 7, "velocity": 68}, {"time": 949, "pitch": 58, "duration": 7, "velocity": 84}, {"time": 949, "pitch": 63, "duration": 7, "velocity": 53}, {"time": 955, "pitch": 51, "duration": 7, "velocity": 45}, {"time": 961, "pitch": 55, "duration": 4, "velocity": 49}, {"time": 961, "pitch": 58, "duration": 4, "velocity": 53}, {"time": 961, "pitch": 63, "duration": 4, "velocity": 42}, {"time": 967, "pitch": 44, "duration": 43, "velocity": 89}, {"time": 973, "pitch": 56, "duration": 10, "velocity": 42}, {"time": 979, "pitch": 60, "duration": 13, "velocity": 62}, {"time": 979, "pitch": 63, "duration": 12, "velocity": 56}, {"time": 979, "pitch": 68, "duration": 12, "velocity": 38}, {"time": 985, "pitch": 56, "duration": 13, "velocity": 17}, {"time": 997, "pitch": 60, "duration": 8, "velocity": 38}, {"time": 997, "pitch": 63, "duration": 8, "velocity": 62}, {"time": 997, "pitch": 68, "duration": 7, "velocity": 32}, {"time": 1003, "pitch": 56, "duration": 7, "velocity": 45}, {"time": 1009, "pitch": 60, "duration": 4, "velocity": 53}, {"time": 1009, "pitch": 63, "duration": 3, "velocity": 62}, {"time": 1009, "pitch": 68, "duration": 3, "velocity": 38}, {"time": 1015, "pitch": 44, "duration": 43, "velocity": 89}, {"time": 1021, "pitch": 56, "duration": 9, "velocity": 42}, {"time": 1027, "pitch": 60, "duration": 10, "velocity": 56}, {"time": 1027, "pitch": 63, "duration": 9, "velocity": 68}, {"time": 1027, "pitch": 68, "duration": 9, "velocity": 38}, {"time": 1033, "pitch": 56, "duration": 13, "velocity": 25}, {"time": 1045, "pitch": 60, "duration": 7, "velocity": 53}, {"time": 1045, "pitch": 63, "duration": 7, "velocity": 68}, {"time": 1045, "pitch": 68, "duration": 7, "velocity": 38}, {"time": 1051, "pitch": 56, "duration": 8, "velocity": 38}, {"time": 1057, "pitch": 60, "duration": 7, "velocity": 34}, {"time": 1057, "pitch": 63, "duration": 6, "velocity": 56}, {"time": 1057, "pitch": 68, "duration": 5, "velocity": 30}, {"time": 1063, "pitch": 44, "duration": 44, "velocity": 84}, {"time": 1069, "pitch": 56, "duration": 8, "velocity": 45}, {"time": 1075, "pitch": 60, "duration": 8, "velocity": 68}, {"time": 1075, "pitch": 63, "duration": 7, "velocity": 75}, {"time": 1075, "pitch": 68, "duration": 7, "velocity": 38}, {"time": 1081, "pitch": 56, "duration": 13, "velocity": 27}, {"time": 1093, "pitch": 60, "duration": 7, "velocity": 75}, {"time": 1093, "pitch": 63, "duration": 6, "velocity": 89}, {"time": 1093, "pitch": 68, "duration": 6, "velocity": 56}, {"time": 1099, "pitch": 56, "duration": 8, "velocity": 53}, {"time": 1105, "pitch": 60, "duration": 3, "velocity": 68}, {"time": 1105, "pitch": 63, "duration": 3, "velocity": 89}, {"time": 1105, "pitch": 68, "duration": 3, "velocity": 49}, {"time": 1111, "pitch": 44, "duration": 41, "velocity": 89}, {"time": 1117, "pitch": 56, "duration": 9, "velocity": 49}, {"time": 1123, "pitch": 60, "duration": 10, "velocity": 68}, {"time": 1123, "pitch": 63, "duration": 9, "velocity": 84}, {"time": 1123, "pitch": 68, "duration": 8, "velocity": 53}, {"time": 1129, "pitch": 56, "duration": 13, "velocity": 21}, {"time": 1141, "pitch": 60, "duration": 7, "velocity": 75}, {"time": 1141, "pitch": 63, "duration": 7, "velocity": 84}, {"time": 1141, "pitch": 68, "duration": 6, "velocity": 56}, {"time": 1147, "pitch": 56, "duration": 7, "velocity": 53}, {"time": 1153, "pitch": 60, "duration": 4, "velocity": 75}, {"time": 1153, "pitch": 63, "duration": 4, "velocity": 84}, {"time": 1153, "pitch": 68, "duration": 4, "velocity": 56}, {"time": 1159, "pitch": 48, "duration": 43, "velocity": 68}, {"time": 1165, "pitch": 55, "duration": 9, "velocity": 53}, {"time": 1171, "pitch": 60, "duration": 9, "velocity": 68}, {"time": 1171, "pitch": 63, "duration": 9, "velocity": 75}, {"time": 1171, "pitch": 67, "duration": 10, "velocity": 62}, {"time": 1177, "pitch": 55, "duration": 12, "velocity": 34}, {"time": 1189, "pitch": 60, "duration": 8, "velocity": 84}, {"time": 1189, "pitch": 63, "duration": 8, "velocity": 89}, {"time": 1189, "pitch": 67, "duration": 8, "velocity": 89}, {"time": 1195, "pitch": 55, "duration": 8, "velocity": 62}, {"time": 1201, "pitch": 60, "duration": 3, "velocity": 89}, {"time": 1201, "pitch": 63, "duration": 3, "velocity": 89}, {"time": 1201, "pitch": 67, "duration": 4, "velocity": 68}, {"time": 1207, "pitch": 46, "duration": 47, "velocity": 89}, {"time": 1213, "pitch": 58, "duration": 9, "velocity": 42}, {"time": 1219, "pitch": 62, "duration": 10, "velocity": 75}, {"time": 1219, "pitch": 65, "duration": 9, "velocity": 84}, {"time": 1219, "pitch": 70, "duration": 9, "velocity": 68}, {"time": 1225, "pitch": 58, "duration": 13, "velocity": 38}, {"time": 1237, "pitch": 62, "duration": 8, "velocity": 75}, {"time": 1237, "pitch": 65, "duration": 8, "velocity": 89}, {"time": 1237, "pitch": 70, "duration": 8, "velocity": 89}, {"time": 1243, "pitch": 58, "duration": 8, "velocity": 53}, {"time": 1249, "pitch": 62, "duration": 6, "velocity": 75}, {"time": 1249, "pitch": 65, "duration": 5, "velocity": 89}, {"time": 1249, "pitch": 70, "duration": 4, "velocity": 89}, {"time": 1255, "pitch": 43, "duration": 39, "velocity": 75}, {"time": 1261, "pitch": 55, "duration": 9, "velocity": 68}, {"time": 1267, "pitch": 58, "duration": 12, "velocity": 68}, {"time": 1267, "pitch": 62, "duration": 12, "velocity": 68}, {"time": 1267, "pitch": 67, "duration": 12, "velocity": 68}, {"time": 1273, "pitch": 55, "duration": 14, "velocity": 45}, {"time": 1285, "pitch": 58, "duration": 7, "velocity": 84}, {"time": 1285, "pitch": 62, "duration": 7, "velocity": 75}, {"time": 1285, "pitch": 67, "duration": 8, "velocity": 89}, {"time": 1291, "pitch": 55, "duration": 7, "velocity": 32}, {"time": 1297, "pitch": 58, "duration": 4, "velocity": 68}, {"time": 1297, "pitch": 62, "duration": 3, "velocity": 68}, {"time": 1297, "pitch": 67, "duration": 3, "velocity": 75}, {"time": 1303, "pitch": 48, "duration": 42, "velocity": 89}, {"time": 1309, "pitch": 55, "duration": 9, "velocity": 27}, {"time": 1315, "pitch": 60, "duration": 13, "velocity": 75}, {"time": 1315, "pitch": 63, "duration": 13, "velocity": 89}, {"time": 1315, "pitch": 67, "duration": 13, "velocity": 75}, {"time": 1321, "pitch": 55, "duration": 13, "velocity": 32}, {"time": 1333, "pitch": 60, "duration": 7, "velocity": 75}, {"time": 1333, "pitch": 63, "duration": 7, "velocity": 89}, {"time": 1333, "pitch": 67, "duration": 7, "velocity": 89}, {"time": 1339, "pitch": 55, "duration": 6, "velocity": 56}, {"time": 1345, "pitch": 60, "duration": 5, "velocity": 84}, {"time": 1345, "pitch": 63, "duration": 5, "velocity": 89}, {"time": 1345, "pitch": 67, "duration": 5, "velocity": 68}, {"time": 1351, "pitch": 44, "duration": 45, "velocity": 89}, {"time": 1357, "pitch": 56, "duration": 9, "velocity": 30}, {"time": 1363, "pitch": 60, "duration": 12, "velocity": 68}, {"time": 1363, "pitch": 63, "duration": 12, "velocity": 84}, {"time": 1363, "pitch": 68, "duration": 12, "velocity": 56}, {"time": 1369, "pitch": 56, "duration": 13, "velocity": 19}, {"time": 1381, "pitch": 60, "duration": 7, "velocity": 75}, {"time": 1381, "pitch": 63, "duration": 7, "velocity": 89}, {"time": 1381, "pitch": 68, "duration": 7, "velocity": 75}, {"time": 1387, "pitch": 56, "duration": 10, "velocity": 49}, {"time": 1393, "pitch": 60, "duration": 4, "velocity": 68}, {"time": 1393, "pitch": 63, "duration": 4, "velocity": 75}, {"time": 1393, "pitch": 68, "duration": 3, "velocity": 53}, {"time": 1399, "pitch": 44, "duration": 38, "velocity": 89}, {"time": 1405, "pitch": 56, "duration": 9, "velocity": 38}, {"time": 1411, "pitch": 60, "duration": 12, "velocity": 84}, {"time": 1411, "pitch": 63, "duration": 12, "velocity": 89}, {"time": 1411, "pitch": 68, "duration": 11, "velocity": 49}, {"time": 1417, "pitch": 56, "duration": 13, "velocity": 6}, {"time": 1429, "pitch": 60, "duration": 6, "velocity": 89}, {"time": 1429, "pitch": 63, "duration": 6, "velocity": 89}, {"time": 1429, "pitch": 68, "duration": 6, "velocity": 62}, {"time": 1435, "pitch": 56, "duration": 8, "velocity": 53}, {"time": 1441, "pitch": 60, "duration": 4, "velocity": 75}, {"time": 1441, "pitch": 63, "duration": 4, "velocity": 89}, {"time": 1441, "pitch": 68, "duration": 4, "velocity": 53}, {"time": 1447, "pitch": 51, "duration": 44, "velocity": 89}, {"time": 1453, "pitch": 58, "duration": 9, "velocity": 27}, {"time": 1459, "pitch": 63, "duration": 11, "velocity": 89}, {"time": 1459, "pitch": 67, "duration": 11, "velocity": 89}, {"time": 1459, "pitch": 70, "duration": 10, "velocity": 84}, {"time": 1465, "pitch": 58, "duration": 11, "velocity": 34}, {"time": 1477, "pitch": 63, "duration": 7, "velocity": 84}, {"time": 1477, "pitch": 67, "duration": 7, "velocity": 89}, {"time": 1477, "pitch": 70, "duration": 7, "velocity": 84}, {"time": 1483, "pitch": 58, "duration": 8, "velocity": 53}, {"time": 1489, "pitch": 63, "duration": 3, "velocity": 75}, {"time": 1489, "pitch": 67, "duration": 3, "velocity": 89}, {"time": 1489, "pitch": 70, "duration": 3, "velocity": 84}, {"time": 1495, "pitch": 51, "duration": 41, "velocity": 75}, {"time": 1501, "pitch": 58, "duration": 9, "velocity": 53}, {"time": 1507, "pitch": 63, "duration": 11, "velocity": 84}, {"time": 1507, "pitch": 67, "duration": 10, "velocity": 89}, {"time": 1507, "pitch": 70, "duration": 10, "velocity": 89}, {"time": 1513, "pitch": 58, "duration": 12, "velocity": 53}, {"time": 1523, "pitch": 63, "duration": 8, "velocity": 89}, {"time": 1525, "pitch": 67, "duration": 8, "velocity": 89}, {"time": 1525, "pitch": 70, "duration": 8, "velocity": 89}, {"time": 1531, "pitch": 58, "duration": 6, "velocity": 53}, {"time": 1537, "pitch": 63, "duration": 6, "velocity": 75}, {"time": 1537, "pitch": 67, "duration": 5, "velocity": 75}, {"time": 1537, "pitch": 70, "duration": 6, "velocity": 49}, {"time": 1543, "pitch": 44, "duration": 44, "velocity": 89}, {"time": 1549, "pitch": 56, "duration": 9, "velocity": 38}, {"time": 1555, "pitch": 60, "duration": 12, "velocity": 75}, {"time": 1555, "pitch": 63, "duration": 12, "velocity": 89}, {"time": 1555, "pitch": 68, "duration": 12, "velocity": 62}, {"time": 1561, "pitch": 56, "duration": 14, "velocity": 15}, {"time": 1573, "pitch": 60, "duration": 7, "velocity": 89}, {"time": 1573, "pitch": 63, "duration": 7, "velocity": 89}, {"time": 1573, "pitch": 68, "duration": 7, "velocity": 75}, {"time": 1579, "pitch": 56, "duration": 9, "velocity": 45}, {"time": 1585, "pitch": 60, "duration": 8, "velocity": 75}, {"time": 1585, "pitch": 63, "duration": 7, "velocity": 89}, {"time": 1585, "pitch": 68, "duration": 7, "velocity": 53}, {"time": 1591, "pitch": 44, "duration": 41, "velocity": 89}, {"time": 1597, "pitch": 56, "duration": 8, "velocity": 49}, {"time": 1603, "pitch": 60, "duration": 12, "velocity": 89}, {"time": 1603, "pitch": 63, "duration": 12, "velocity": 89}, {"time": 1603, "pitch": 68, "duration": 12, "velocity": 68}, {"time": 1609, "pitch": 56, "duration": 13, "velocity": 28}, {"time": 1621, "pitch": 60, "duration": 7, "velocity": 75}, {"time": 1621, "pitch": 63, "duration": 6, "velocity": 89}, {"time": 1621, "pitch": 68, "duration": 6, "velocity": 62}, {"time": 1627, "pitch": 56, "duration": 8, "velocity": 53}, {"time": 1633, "pitch": 60, "duration": 4, "velocity": 84}, {"time": 1633, "pitch": 63, "duration": 4, "velocity": 89}, {"time": 1633, "pitch": 68, "duration": 4, "velocity": 62}, {"time": 1639, "pitch": 46, "duration": 42, "velocity": 89}, {"time": 1645, "pitch": 58, "duration": 10, "velocity": 56}, {"time": 1651, "pitch": 62, "duration": 12, "velocity": 75}, {"time": 1651, "pitch": 65, "duration": 12, "velocity": 89}, {"time": 1651, "pitch": 70, "duration": 11, "velocity": 84}, {"time": 1657, "pitch": 58, "duration": 13, "velocity": 30}, {"time": 1669, "pitch": 62, "duration": 7, "velocity": 68}, {"time": 1669, "pitch": 65, "duration": 7, "velocity": 89}, {"time": 1669, "pitch": 70, "duration": 6, "velocity": 89}, {"time": 1675, "pitch": 58, "duration": 6, "velocity": 56}, {"time": 1681, "pitch": 62, "duration": 5, "velocity": 75}, {"time": 1681, "pitch": 65, "duration": 5, "velocity": 89}, {"time": 1681, "pitch": 70, "duration": 5, "velocity": 68}, {"time": 1687, "pitch": 48, "duration": 41, "velocity": 89}, {"time": 1693, "pitch": 55, "duration": 9, "velocity": 75}, {"time": 1699, "pitch": 60, "duration": 13, "velocity": 89}, {"time": 1699, "pitch": 63, "duration": 13, "velocity": 89}, {"time": 1699, "pitch": 67, "duration": 13, "velocity": 89}, {"time": 1705, "pitch": 55, "duration": 13, "velocity": 42}, {"time": 1717, "pitch": 60, "duration": 6, "velocity": 89}, {"time": 1717, "pitch": 63, "duration": 7, "velocity": 89}, {"time": 1717, "pitch": 67, "duration": 7, "velocity": 89}, {"time": 1723, "pitch": 55, "duration": 6, "velocity": 68}, {"time": 1727, "pitch": 67, "duration": 3, "velocity": 62}, {"time": 1729, "pitch": 60, "duration": 3, "velocity": 75}, {"time": 1729, "pitch": 63, "duration": 4, "velocity": 89}, {"time": 1735, "pitch": 44, "duration": 40, "velocity": 89}, {"time": 1741, "pitch": 56, "duration": 10, "velocity": 32}, {"time": 1747, "pitch": 60, "duration": 12, "velocity": 84}, {"time": 1747, "pitch": 63, "duration": 11, "velocity": 89}, {"time": 1747, "pitch": 68, "duration": 11, "velocity": 68}, {"time": 1753, "pitch": 56, "duration": 13, "velocity": 32}, {"time": 1765, "pitch": 60, "duration": 6, "velocity": 84}, {"time": 1765, "pitch": 63, "duration": 6, "velocity": 89}, {"time": 1765, "pitch": 68, "duration": 6, "velocity": 84}, {"time": 1771, "pitch": 56, "duration": 9, "velocity": 56}, {"time": 1777, "pitch": 60, "duration": 4, "velocity": 75}, {"time": 1777, "pitch": 63, "duration": 4, "velocity": 89}, {"time": 1777, "pitch": 68, "duration": 4, "velocity": 62}, {"time": 1783, "pitch": 46, "duration": 41, "velocity": 89}, {"time": 1787, "pitch": 58, "duration": 9, "velocity": 53}, {"time": 1795, "pitch": 62, "duration": 12, "velocity": 84}, {"time": 1795, "pitch": 65, "duration": 12, "velocity": 89}, {"time": 1795, "pitch": 70, "duration": 11, "velocity": 84}, {"time": 1801, "pitch": 58, "duration": 14, "velocity": 14}, {"time": 1813, "pitch": 62, "duration": 7, "velocity": 89}, {"time": 1813, "pitch": 65, "duration": 7, "velocity": 89}, {"time": 1813, "pitch": 70, "duration": 7, "velocity": 89}, {"time": 1819, "pitch": 58, "duration": 8, "velocity": 56}, {"time": 1825, "pitch": 62, "duration": 5, "velocity": 89}, {"time": 1825, "pitch": 65, "duration": 5, "velocity": 89}, {"time": 1825, "pitch": 70, "duration": 5, "velocity": 84}, {"time": 1831, "pitch": 39, "duration": 42, "velocity": 89}, {"time": 1837, "pitch": 51, "duration": 7, "velocity": 84}, {"time": 1843, "pitch": 55, "duration": 13, "velocity": 84}, {"time": 1843, "pitch": 58, "duration": 12, "velocity": 89}, {"time": 1843, "pitch": 63, "duration": 12, "velocity": 84}, {"time": 1849, "pitch": 51, "duration": 13, "velocity": 84}, {"time": 1861, "pitch": 55, "duration": 6, "velocity": 89}, {"time": 1861, "pitch": 58, "duration": 6, "velocity": 89}, {"time": 1861, "pitch": 63, "duration": 6, "velocity": 89}, {"time": 1867, "pitch": 51, "duration": 8, "velocity": 53}, {"time": 1873, "pitch": 55, "duration": 7, "velocity": 89}, {"time": 1873, "pitch": 58, "duration": 6, "velocity": 89}, {"time": 1873, "pitch": 63, "duration": 6, "velocity": 89}, {"time": 1879, "pitch": 39, "duration": 41, "velocity": 89}, {"time": 1885, "pitch": 51, "duration": 6, "velocity": 68}, {"time": 1891, "pitch": 55, "duration": 13, "velocity": 89}, {"time": 1891, "pitch": 58, "duration": 12, "velocity": 89}, {"time": 1891, "pitch": 63, "duration": 12, "velocity": 89}, {"time": 1897, "pitch": 51, "duration": 13, "velocity": 62}, {"time": 1909, "pitch": 55, "duration": 6, "velocity": 89}, {"time": 1909, "pitch": 58, "duration": 6, "velocity": 89}, {"time": 1909, "pitch": 63, "duration": 6, "velocity": 84}, {"time": 1915, "pitch": 51, "duration": 7, "velocity": 68}, {"time": 1921, "pitch": 55, "duration": 4, "velocity": 84}, {"time": 1921, "pitch": 58, "duration": 3, "velocity": 89}, {"time": 1921, "pitch": 63, "duration": 3, "velocity": 75}, {"time": 1927, "pitch": 44, "duration": 43, "velocity": 75}, {"time": 1933, "pitch": 56, "duration": 7, "velocity": 42}, {"time": 1939, "pitch": 60, "duration": 7, "velocity": 68}, {"time": 1939, "pitch": 63, "duration": 8, "velocity": 89}, {"time": 1939, "pitch": 68, "duration": 8, "velocity": 53}, {"time": 1945, "pitch": 56, "duration": 13, "velocity": 68}, {"time": 1957, "pitch": 60, "duration": 7, "velocity": 89}, {"time": 1957, "pitch": 63, "duration": 7, "velocity": 89}, {"time": 1957, "pitch": 68, "duration": 6, "velocity": 75}, {"time": 1963, "pitch": 56, "duration": 8, "velocity": 75}, {"time": 1969, "pitch": 60, "duration": 6, "velocity": 68}, {"time": 1969, "pitch": 63, "duration": 5, "velocity": 89}, {"time": 1969, "pitch": 68, "duration": 5, "velocity": 68}, {"time": 1975, "pitch": 44, "duration": 24, "velocity": 89}, {"time": 1981, "pitch": 56, "duration": 6, "velocity": 75}, {"time": 1987, "pitch": 60, "duration": 11, "velocity": 89}, {"time": 1987, "pitch": 63, "duration": 10, "velocity": 89}, {"time": 1987, "pitch": 68, "duration": 10, "velocity": 75}, {"time": 1999, "pitch": 44, "duration": 23, "velocity": 89}, {"time": 1999, "pitch": 56, "duration": 23, "velocity": 62}, {"time": 1999, "pitch": 60, "duration": 23, "velocity": 89}, {"time": 1999, "pitch": 63, "duration": 23, "velocity": 89}, {"time": 1999, "pitch": 68, "duration": 23, "velocity": 75}, {"time": 2023, "pitch": 44, "duration": 17, "velocity": 89}, {"time": 2029, "pitch": 56, "duration": 9, "velocity": 42}, {"time": 2035, "pitch": 60, "duration": 14, "velocity": 75}, {"time": 2035, "pitch": 63, "duration": 13, "velocity": 89}, {"time": 2035, "pitch": 68, "duration": 14, "velocity": 56}, {"time": 2041, "pitch": 56, "duration": 13, "velocity": 28}, {"time": 2053, "pitch": 60, "duration": 6, "velocity": 68}, {"time": 2053, "pitch": 63, "duration": 6, "velocity": 75}, {"time": 2053, "pitch": 68, "duration": 6, "velocity": 53}, {"time": 2059, "pitch": 56, "duration": 8, "velocity": 53}, {"time": 2065, "pitch": 60, "duration": 5, "velocity": 68}, {"time": 2065, "pitch": 63, "duration": 5, "velocity": 75}, {"time": 2065, "pitch": 68, "duration": 5, "velocity": 42}, {"time": 2071, "pitch": 49, "duration": 39, "velocity": 68}, {"time": 2077, "pitch": 56, "duration": 9, "velocity": 42}, {"time": 2083, "pitch": 61, "duration": 13, "velocity": 56}, {"time": 2083, "pitch": 65, "duration": 13, "velocity": 68}, {"time": 2083, "pitch": 68, "duration": 13, "velocity": 42}, {"time": 2089, "pitch": 56, "duration": 13, "velocity": 42}, {"time": 2101, "pitch": 61, "duration": 6, "velocity": 75}, {"time": 2101, "pitch": 65, "duration": 6, "velocity": 84}, {"time": 2101, "pitch": 68, "duration": 6, "velocity": 75}, {"time": 2107, "pitch": 56, "duration": 4, "velocity": 56}, {"time": 2113, "pitch": 61, "duration": 5, "velocity": 62}, {"time": 2113, "pitch": 65, "duration": 5, "velocity": 68}, {"time": 2113, "pitch": 68, "duration": 5, "velocity": 49}, {"time": 2119, "pitch": 42, "duration": 38, "velocity": 62}, {"time": 2125, "pitch": 54, "duration": 9, "velocity": 30}, {"time": 2131, "pitch": 61, "duration": 13, "velocity": 84}, {"time": 2131, "pitch": 66, "duration": 12, "velocity": 84}, {"time": 2131, "pitch": 70, "duration": 12, "velocity": 62}, {"time": 2137, "pitch": 54, "duration": 14, "velocity": 32}, {"time": 2149, "pitch": 61, "duration": 6, "velocity": 84}, {"time": 2149, "pitch": 66, "duration": 6, "velocity": 89}, {"time": 2149, "pitch": 70, "duration": 6, "velocity": 84}, {"time": 2155, "pitch": 54, "duration": 5, "velocity": 62}, {"time": 2161, "pitch": 61, "duration": 5, "velocity": 62}, {"time": 2161, "pitch": 66, "duration": 3, "velocity": 28}, {"time": 2161, "pitch": 70, "duration": 4, "velocity": 56}, {"time": 2167, "pitch": 47, "duration": 40, "velocity": 75}, {"time": 2173, "pitch": 59, "duration": 8, "velocity": 49}, {"time": 2179, "pitch": 63, "duration": 7, "velocity": 84}, {"time": 2179, "pitch": 66, "duration": 7, "velocity": 84}, {"time": 2179, "pitch": 71, "duration": 7, "velocity": 68}, {"time": 2185, "pitch": 59, "duration": 13, "velocity": 27}, {"time": 2197, "pitch": 63, "duration": 7, "velocity": 84}, {"time": 2197, "pitch": 66, "duration": 7, "velocity": 89}, {"time": 2197, "pitch": 71, "duration": 7, "velocity": 68}, {"time": 2203, "pitch": 59, "duration": 7, "velocity": 53}, {"time": 2209, "pitch": 63, "duration": 4, "velocity": 75}, {"time": 2209, "pitch": 66, "duration": 4, "velocity": 75}, {"time": 2209, "pitch": 71, "duration": 4, "velocity": 68}, {"time": 2215, "pitch": 52, "duration": 41, "velocity": 75}, {"time": 2221, "pitch": 59, "duration": 8, "velocity": 62}, {"time": 2227, "pitch": 64, "duration": 13, "velocity": 89}, {"time": 2227, "pitch": 68, "duration": 13, "velocity": 84}, {"time": 2227, "pitch": 71, "duration": 13, "velocity": 75}, {"time": 2233, "pitch": 59, "duration": 13, "velocity": 38}, {"time": 2245, "pitch": 64, "duration": 6, "velocity": 75}, {"time": 2245, "pitch": 68, "duration": 6, "velocity": 68}, {"time": 2245, "pitch": 71, "duration": 7, "velocity": 68}, {"time": 2251, "pitch": 59, "duration": 5, "velocity": 53}, {"time": 2257, "pitch": 64, "duration": 4, "velocity": 75}, {"time": 2257, "pitch": 68, "duration": 4, "velocity": 62}, {"time": 2257, "pitch": 71, "duration": 4, "velocity": 62}, {"time": 2263, "pitch": 45, "duration": 40, "velocity": 75}, {"time": 2269, "pitch": 57, "duration": 9, "velocity": 75}, {"time": 2275, "pitch": 61, "duration": 13, "velocity": 89}, {"time": 2275, "pitch": 64, "duration": 13, "velocity": 89}, {"time": 2275, "pitch": 69, "duration": 13, "velocity": 62}, {"time": 2281, "pitch": 57, "duration": 13, "velocity": 38}, {"time": 2293, "pitch": 61, "duration": 6, "velocity": 89}, {"time": 2293, "pitch": 64, "duration": 6, "velocity": 89}, {"time": 2293, "pitch": 69, "duration": 6, "velocity": 75}, {"time": 2299, "pitch": 57, "duration": 6, "velocity": 68}, {"time": 2305, "pitch": 61, "duration": 4, "velocity": 89}, {"time": 2305, "pitch": 64, "duration": 5, "velocity": 84}, {"time": 2305, "pitch": 69, "duration": 4, "velocity": 68}, {"time": 2311, "pitch": 46, "duration": 43, "velocity": 75}, {"time": 2317, "pitch": 58, "duration": 9, "velocity": 49}, {"time": 2323, "pitch": 62, "duration": 13, "velocity": 89}, {"time": 2323, "pitch": 65, "duration": 13, "velocity": 89}, {"time": 2323, "pitch": 70, "duration": 12, "velocity": 89}, {"time": 2329, "pitch": 58, "duration": 13, "velocity": 28}, {"time": 2341, "pitch": 62, "duration": 7, "velocity": 75}, {"time": 2341, "pitch": 65, "duration": 7, "velocity": 89}, {"time": 2341, "pitch": 70, "duration": 7, "velocity": 89}, {"time": 2347, "pitch": 58, "duration": 8, "velocity": 68}, {"time": 2353, "pitch": 62, "duration": 3, "velocity": 75}, {"time": 2353, "pitch": 65, "duration": 3, "velocity": 89}, {"time": 2353, "pitch": 70, "duration": 3, "velocity": 89}, {"time": 2359, "pitch": 46, "duration": 2, "velocity": 89}, {"time": 2359, "pitch": 58, "duration": 2, "velocity": 89}, {"time": 2359, "pitch": 62, "duration": 2, "velocity": 75}, {"time": 2359, "pitch": 65, "duration": 2, "velocity": 89}, {"time": 2359, "pitch": 70, "duration": 2, "velocity": 89}, {"time": 2365, "pitch": 46, "duration": 2, "velocity": 89}, {"time": 2365, "pitch": 58, "duration": 2, "velocity": 75}, {"time": 2365, "pitch": 62, "duration": 2, "velocity": 75}, {"time": 2365, "pitch": 65, "duration": 2, "velocity": 89}, {"time": 2365, "pitch": 70, "duration": 2, "velocity": 89}, {"time": 2371, "pitch": 46, "duration": 2, "velocity": 89}, {"time": 2371, "pitch": 58, "duration": 2, "velocity": 62}, {"time": 2371, "pitch": 62, "duration": 2, "velocity": 89}, {"time": 2371, "pitch": 65, "duration": 2, "velocity": 89}, {"time": 2371, "pitch": 70, "duration": 2, "velocity": 89}, {"time": 2377, "pitch": 46, "duration": 15, "velocity": 89}, {"time": 2377, "pitch": 58, "duration": 12, "velocity": 84}, {"time": 2377, "pitch": 62, "duration": 11, "velocity": 89}, {"time": 2377, "pitch": 65, "duration": 11, "velocity": 89}, {"time": 2377, "pitch": 70, "duration": 11, "velocity": 89}, {"time": 2407, "pitch": 39, "duration": 43, "velocity": 89}, {"time": 2413, "pitch": 51, "duration": 8, "velocity": 68}, {"time": 2419, "pitch": 55, "duration": 11, "velocity": 84}, {"time": 2419, "pitch": 58, "duration": 10, "velocity": 75}, {"time": 2419, "pitch": 63, "duration": 11, "velocity": 53}, {"time": 2425, "pitch": 51, "duration": 12, "velocity": 84}, {"time": 2437, "pitch": 55, "duration": 6, "velocity": 89}, {"time": 2437, "pitch": 58, "duration": 6, "velocity": 89}, {"time": 2437, "pitch": 63, "duration": 6, "velocity": 84}, {"time": 2443, "pitch": 51, "duration": 9, "velocity": 62}, {"time": 2449, "pitch": 55, "duration": 6, "velocity": 89}, {"time": 2449, "pitch": 58, "duration": 6, "velocity": 89}, {"time": 2449, "pitch": 63, "duration": 6, "velocity": 75}, {"time": 2455, "pitch": 39, "duration": 43, "velocity": 84}, {"time": 2461, "pitch": 51, "duration": 6, "velocity": 68}, {"time": 2467, "pitch": 55, "duration": 11, "velocity": 75}, {"time": 2467, "pitch": 58, "duration": 10, "velocity": 89}, {"time": 2467, "pitch": 63, "duration": 10, "velocity": 84}, {"time": 2473, "pitch": 51, "duration": 10, "velocity": 75}, {"time": 2485, "pitch": 55, "duration": 6, "velocity": 84}, {"time": 2485, "pitch": 58, "duration": 6, "velocity": 89}, {"time": 2485, "pitch": 63, "duration": 6, "velocity": 84}, {"time": 2491, "pitch": 51, "duration": 10, "velocity": 62}, {"time": 2497, "pitch": 55, "duration": 5, "velocity": 75}, {"time": 2497, "pitch": 58, "duration": 4, "velocity": 89}, {"time": 2497, "pitch": 63, "duration": 5, "velocity": 68}, {"time": 2503, "pitch": 39, "duration": 43, "velocity": 89}, {"time": 2509, "pitch": 51, "duration": 8, "velocity": 84}, {"time": 2515, "pitch": 55, "duration": 11, "velocity": 75}, {"time": 2515, "pitch": 58, "duration": 11, "velocity": 89}, {"time": 2515, "pitch": 63, "duration": 11, "velocity": 89}, {"time": 2521, "pitch": 51, "duration": 11, "velocity": 68}, {"time": 2533, "pitch": 55, "duration": 6, "velocity": 84}, {"time": 2533, "pitch": 58, "duration": 6, "velocity": 89}, {"time": 2533, "pitch": 63, "duration": 6, "velocity": 84}, {"time": 2539, "pitch": 51, "duration": 8, "velocity": 68}, {"time": 2545, "pitch": 55, "duration": 5, "velocity": 68}, {"time": 2545, "pitch": 58, "duration": 4, "velocity": 89}, {"time": 2545, "pitch": 63, "duration": 4, "velocity": 75}, {"time": 2551, "pitch": 39, "duration": 39, "velocity": 89}, {"time": 2557, "pitch": 51, "duration": 8, "velocity": 75}, {"time": 2563, "pitch": 55, "duration": 10, "velocity": 75}, {"time": 2563, "pitch": 58, "duration": 10, "velocity": 89}, {"time": 2563, "pitch": 63, "duration": 10, "velocity": 84}, {"time": 2569, "pitch": 51, "duration": 12, "velocity": 75}, {"time": 2581, "pitch": 55, "duration": 6, "velocity": 75}, {"time": 2581, "pitch": 58, "duration": 5, "velocity": 89}, {"time": 2581, "pitch": 63, "duration": 6, "velocity": 84}, {"time": 2587, "pitch": 51, "duration": 7, "velocity": 75}, {"time": 2593, "pitch": 55, "duration": 3, "velocity": 75}, {"time": 2593, "pitch": 58, "duration": 3, "velocity": 89}, {"time": 2593, "pitch": 63, "duration": 4, "velocity": 84}, {"time": 2599, "pitch": 44, "duration": 43, "velocity": 89}, {"time": 2605, "pitch": 56, "duration": 8, "velocity": 45}, {"time": 2611, "pitch": 60, "duration": 7, "velocity": 84}, {"time": 2611, "pitch": 63, "duration": 7, "velocity": 89}, {"time": 2611, "pitch": 68, "duration": 7, "velocity": 53}, {"time": 2617, "pitch": 56, "duration": 12, "velocity": 56}, {"time": 2629, "pitch": 60, "duration": 6, "velocity": 75}, {"time": 2629, "pitch": 63, "duration": 6, "velocity": 89}, {"time": 2629, "pitch": 68, "duration": 5, "velocity": 75}, {"time": 2635, "pitch": 56, "duration": 9, "velocity": 68}, {"time": 2641, "pitch": 60, "duration": 4, "velocity": 84}, {"time": 2641, "pitch": 63, "duration": 4, "velocity": 89}, {"time": 2641, "pitch": 68, "duration": 3, "velocity": 84}, {"time": 2647, "pitch": 44, "duration": 43, "velocity": 89}, {"time": 2653, "pitch": 56, "duration": 7, "velocity": 62}, {"time": 2659, "pitch": 60, "duration": 8, "velocity": 84}, {"time": 2659, "pitch": 63, "duration": 8, "velocity": 89}, {"time": 2659, "pitch": 68, "duration": 7, "velocity": 84}, {"time": 2665, "pitch": 56, "duration": 11, "velocity": 68}, {"time": 2677, "pitch": 60, "duration": 6, "velocity": 89}, {"time": 2677, "pitch": 63, "duration": 6, "velocity": 89}, {"time": 2677, "pitch": 68, "duration": 6, "velocity": 75}, {"time": 2683, "pitch": 56, "duration": 7, "velocity": 62}, {"time": 2689, "pitch": 60, "duration": 3, "velocity": 75}, {"time": 2689, "pitch": 63, "duration": 3, "velocity": 89}, {"time": 2689, "pitch": 68, "duration": 3, "velocity": 75}, {"time": 2695, "pitch": 44, "duration": 43, "velocity": 89}, {"time": 2701, "pitch": 56, "duration": 7, "velocity": 68}, {"time": 2707, "pitch": 60, "duration": 8, "velocity": 84}, {"time": 2707, "pitch": 63, "duration": 7, "velocity": 89}, {"time": 2707, "pitch": 68, "duration": 7, "velocity": 75}, {"time": 2713, "pitch": 56, "duration": 12, "velocity": 75}, {"time": 2725, "pitch": 60, "duration": 6, "velocity": 84}, {"time": 2725, "pitch": 63, "duration": 6, "velocity": 89}, {"time": 2725, "pitch": 68, "duration": 6, "velocity": 68}, {"time": 2731, "pitch": 56, "duration": 9, "velocity": 84}, {"time": 2737, "pitch": 60, "duration": 6, "velocity": 84}, {"time": 2737, "pitch": 63, "duration": 6, "velocity": 89}, {"time": 2737, "pitch": 68, "duration": 6, "velocity": 84}, {"time": 2743, "pitch": 44, "duration": 44, "velocity": 89}, {"time": 2749, "pitch": 56, "duration": 7, "velocity": 53}, {"time": 2755, "pitch": 60, "duration": 7, "velocity": 68}, {"time": 2755, "pitch": 63, "duration": 6, "velocity": 89}, {"time": 2755, "pitch": 68, "duration": 6, "velocity": 68}, {"time": 2761, "pitch": 56, "duration": 12, "velocity": 49}, {"time": 2773, "pitch": 60, "duration": 6, "velocity": 84}, {"time": 2773, "pitch": 63, "duration": 6, "velocity": 89}, {"time": 2773, "pitch": 68, "duration": 6, "velocity": 84}, {"time": 2779, "pitch": 56, "duration": 7, "velocity": 62}, {"time": 2785, "pitch": 60, "duration": 6, "velocity": 75}, {"time": 2785, "pitch": 63, "duration": 6, "velocity": 89}, {"time": 2785, "pitch": 68, "duration": 6, "velocity": 75}, {"time": 2791, "pitch": 39, "duration": 43, "velocity": 89}, {"time": 2797, "pitch": 51, "duration": 8, "velocity": 68}, {"time": 2803, "pitch": 55, "duration": 11, "velocity": 84}, {"time": 2803, "pitch": 58, "duration": 10, "velocity": 75}, {"time": 2803, "pitch": 63, "duration": 11, "velocity": 53}, {"time": 2809, "pitch": 51, "duration": 12, "velocity": 84}, {"time": 2821, "pitch": 55, "duration": 6, "velocity": 89}, {"time": 2821, "pitch": 58, "duration": 6, "velocity": 89}, {"time": 2821, "pitch": 63, "duration": 6, "velocity": 84}, {"time": 2827, "pitch": 51, "duration": 9, "velocity": 62}, {"time": 2833, "pitch": 55, "duration": 6, "velocity": 89}, {"time": 2833, "pitch": 58, "duration": 6, "velocity": 89}, {"time": 2833, "pitch": 63, "duration": 6, "velocity": 75}, {"time": 2839, "pitch": 39, "duration": 43, "velocity": 84}, {"time": 2845, "pitch": 51, "duration": 7, "velocity": 68}, {"time": 2851, "pitch": 55, "duration": 11, "velocity": 75}, {"time": 2851, "pitch": 58, "duration": 10, "velocity": 89}, {"time": 2851, "pitch": 63, "duration": 10, "velocity": 84}, {"time": 2857, "pitch": 51, "duration": 10, "velocity": 75}, {"time": 2869, "pitch": 55, "duration": 6, "velocity": 84}, {"time": 2869, "pitch": 58, "duration": 6, "velocity": 89}, {"time": 2869, "pitch": 63, "duration": 6, "velocity": 84}, {"time": 2875, "pitch": 51, "duration": 10, "velocity": 62}, {"time": 2881, "pitch": 55, "duration": 5, "velocity": 75}, {"time": 2881, "pitch": 58, "duration": 4, "velocity": 89}, {"time": 2881, "pitch": 63, "duration": 5, "velocity": 68}, {"time": 2887, "pitch": 39, "duration": 43, "velocity": 89}, {"time": 2893, "pitch": 51, "duration": 8, "velocity": 84}, {"time": 2899, "pitch": 55, "duration": 11, "velocity": 75}, {"time": 2899, "pitch": 58, "duration": 11, "velocity": 89}, {"time": 2899, "pitch": 63, "duration": 11, "velocity": 89}, {"time": 2905, "pitch": 51, "duration": 11, "velocity": 68}, {"time": 2917, "pitch": 55, "duration": 6, "velocity": 84}, {"time": 2917, "pitch": 58, "duration": 6, "velocity": 89}, {"time": 2917, "pitch": 63, "duration": 6, "velocity": 84}, {"time": 2923, "pitch": 51, "duration": 8, "velocity": 68}, {"time": 2929, "pitch": 55, "duration": 5, "velocity": 68}, {"time": 2929, "pitch": 58, "duration": 4, "velocity": 89}, {"time": 2929, "pitch": 63, "duration": 4, "velocity": 75}, {"time": 2935, "pitch": 39, "duration": 39, "velocity": 89}, {"time": 2941, "pitch": 51, "duration": 8, "velocity": 75}, {"time": 2947, "pitch": 55, "duration": 10, "velocity": 75}, {"time": 2947, "pitch": 58, "duration": 10, "velocity": 89}, {"time": 2947, "pitch": 63, "duration": 10, "velocity": 84}, {"time": 2953, "pitch": 51, "duration": 12, "velocity": 75}, {"time": 2965, "pitch": 55, "duration": 6, "velocity": 75}, {"time": 2965, "pitch": 58, "duration": 5, "velocity": 89}, {"time": 2965, "pitch": 63, "duration": 6, "velocity": 84}, {"time": 2971, "pitch": 51, "duration": 7, "velocity": 75}, {"time": 2977, "pitch": 55, "duration": 3, "velocity": 75}, {"time": 2977, "pitch": 58, "duration": 3, "velocity": 89}, {"time": 2977, "pitch": 63, "duration": 4, "velocity": 84}, {"time": 2983, "pitch": 44, "duration": 43, "velocity": 89}, {"time": 2989, "pitch": 56, "duration": 8, "velocity": 45}, {"time": 2995, "pitch": 60, "duration": 7, "velocity": 84}, {"time": 2995, "pitch": 63, "duration": 7, "velocity": 89}, {"time": 2995, "pitch": 68, "duration": 7, "velocity": 53}, {"time": 3001, "pitch": 56, "duration": 12, "velocity": 56}, {"time": 3013, "pitch": 60, "duration": 6, "velocity": 75}, {"time": 3013, "pitch": 63, "duration": 6, "velocity": 89}, {"time": 3013, "pitch": 68, "duration": 5, "velocity": 75}, {"time": 3019, "pitch": 56, "duration": 9, "velocity": 68}, {"time": 3025, "pitch": 60, "duration": 4, "velocity": 84}, {"time": 3025, "pitch": 63, "duration": 4, "velocity": 89}, {"time": 3025, "pitch": 68, "duration": 3, "velocity": 84}, {"time": 3031, "pitch": 44, "duration": 43, "velocity": 89}, {"time": 3037, "pitch": 56, "duration": 7, "velocity": 62}, {"time": 3043, "pitch": 60, "duration": 8, "velocity": 84}, {"time": 3043, "pitch": 63, "duration": 8, "velocity": 89}, {"time": 3043, "pitch": 68, "duration": 7, "velocity": 84}, {"time": 3049, "pitch": 56, "duration": 11, "velocity": 68}, {"time": 3061, "pitch": 60, "duration": 6, "velocity": 89}, {"time": 3061, "pitch": 63, "duration": 6, "velocity": 89}, {"time": 3061, "pitch": 68, "duration": 6, "velocity": 75}, {"time": 3067, "pitch": 56, "duration": 7, "velocity": 62}, {"time": 3073, "pitch": 60, "duration": 3, "velocity": 75}, {"time": 3073, "pitch": 63, "duration": 3, "velocity": 89}, {"time": 3073, "pitch": 68, "duration": 3, "velocity": 75}, {"time": 3079, "pitch": 44, "duration": 43, "velocity": 89}, {"time": 3085, "pitch": 56, "duration": 7, "velocity": 68}, {"time": 3091, "pitch": 60, "duration": 8, "velocity": 84}, {"time": 3091, "pitch": 63, "duration": 7, "velocity": 89}, {"time": 3091, "pitch": 68, "duration": 7, "velocity": 75}, {"time": 3097, "pitch": 56, "duration": 12, "velocity": 75}, {"time": 3109, "pitch": 60, "duration": 6, "velocity": 84}, {"time": 3109, "pitch": 63, "duration": 6, "velocity": 89}, {"time": 3109, "pitch": 68, "duration": 6, "velocity": 68}, {"time": 3115, "pitch": 56, "duration": 9, "velocity": 84}, {"time": 3121, "pitch": 60, "duration": 6, "velocity": 84}, {"time": 3121, "pitch": 63, "duration": 6, "velocity": 89}, {"time": 3121, "pitch": 68, "duration": 6, "velocity": 84}, {"time": 3127, "pitch": 44, "duration": 44, "velocity": 89}, {"time": 3133, "pitch": 56, "duration": 7, "velocity": 53}, {"time": 3139, "pitch": 60, "duration": 7, "velocity": 68}, {"time": 3139, "pitch": 63, "duration": 6, "velocity": 89}, {"time": 3139, "pitch": 68, "duration": 6, "velocity": 68}, {"time": 3145, "pitch": 56, "duration": 12, "velocity": 49}, {"time": 3157, "pitch": 60, "duration": 6, "velocity": 84}, {"time": 3157, "pitch": 63, "duration": 6, "velocity": 89}, {"time": 3157, "pitch": 68, "duration": 6, "velocity": 84}, {"time": 3163, "pitch": 56, "duration": 7, "velocity": 62}, {"time": 3169, "pitch": 60, "duration": 6, "velocity": 75}, {"time": 3169, "pitch": 63, "duration": 6, "velocity": 89}, {"time": 3169, "pitch": 68, "duration": 6, "velocity": 75}, {"time": 3175, "pitch": 48, "duration": 43, "velocity": 89}, {"time": 3181, "pitch": 55, "duration": 8, "velocity": 84}, {"time": 3187, "pitch": 60, "duration": 13, "velocity": 89}, {"time": 3187, "pitch": 63, "duration": 13, "velocity": 89}, {"time": 3187, "pitch": 67, "duration": 14, "velocity": 89}, {"time": 3193, "pitch": 55, "duration": 14, "velocity": 53}, {"time": 3205, "pitch": 60, "duration": 7, "velocity": 89}, {"time": 3205, "pitch": 63, "duration": 7, "velocity": 89}, {"time": 3205, "pitch": 67, "duration": 7, "velocity": 89}, {"time": 3211, "pitch": 55, "duration": 7, "velocity": 75}, {"time": 3217, "pitch": 60, "duration": 5, "velocity": 89}, {"time": 3217, "pitch": 63, "duration": 4, "velocity": 89}, {"time": 3217, "pitch": 67, "duration": 5, "velocity": 84}, {"time": 3223, "pitch": 44, "duration": 41, "velocity": 89}, {"time": 3229, "pitch": 56, "duration": 9, "velocity": 27}, {"time": 3235, "pitch": 60, "duration": 13, "velocity": 89}, {"time": 3235, "pitch": 63, "duration": 13, "velocity": 89}, {"time": 3235, "pitch": 68, "duration": 13, "velocity": 89}, {"time": 3241, "pitch": 56, "duration": 13, "velocity": 28}, {"time": 3253, "pitch": 60, "duration": 7, "velocity": 89}, {"time": 3253, "pitch": 63, "duration": 7, "velocity": 89}, {"time": 3253, "pitch": 68, "duration": 7, "velocity": 84}, {"time": 3259, "pitch": 56, "duration": 8, "velocity": 53}, {"time": 3265, "pitch": 60, "duration": 4, "velocity": 89}, {"time": 3265, "pitch": 63, "duration": 4, "velocity": 89}, {"time": 3265, "pitch": 68, "duration": 4, "velocity": 75}, {"time": 3271, "pitch": 46, "duration": 43, "velocity": 89}, {"time": 3277, "pitch": 58, "duration": 9, "velocity": 53}, {"time": 3283, "pitch": 62, "duration": 13, "velocity": 89}, {"time": 3283, "pitch": 65, "duration": 13, "velocity": 89}, {"time": 3283, "pitch": 70, "duration": 13, "velocity": 89}, {"time": 3289, "pitch": 58, "duration": 12, "velocity": 27}, {"time": 3301, "pitch": 62, "duration": 7, "velocity": 89}, {"time": 3301, "pitch": 65, "duration": 7, "velocity": 89}, {"time": 3301, "pitch": 70, "duration": 7, "velocity": 89}, {"time": 3307, "pitch": 58, "duration": 7, "velocity": 56}, {"time": 3313, "pitch": 62, "duration": 5, "velocity": 62}, {"time": 3313, "pitch": 65, "duration": 4, "velocity": 84}, {"time": 3313, "pitch": 70, "duration": 4, "velocity": 53}, {"time": 3319, "pitch": 48, "duration": 45, "velocity": 89}, {"time": 3325, "pitch": 55, "duration": 9, "velocity": 84}, {"time": 3331, "pitch": 60, "duration": 14, "velocity": 89}, {"time": 3331, "pitch": 63, "duration": 14, "velocity": 89}, {"time": 3331, "pitch": 67, "duration": 14, "velocity": 89}, {"time": 3337, "pitch": 55, "duration": 14, "velocity": 38}, {"time": 3349, "pitch": 60, "duration": 7, "velocity": 89}, {"time": 3349, "pitch": 63, "duration": 7, "velocity": 89}, {"time": 3349, "pitch": 67, "duration": 8, "velocity": 89}, {"time": 3355, "pitch": 55, "duration": 9, "velocity": 75}, {"time": 3361, "pitch": 60, "duration": 6, "velocity": 84}, {"time": 3361, "pitch": 63, "duration": 4, "velocity": 89}, {"time": 3361, "pitch": 67, "duration": 4, "velocity": 75}, {"time": 3367, "pitch": 44, "duration": 43, "velocity": 89}, {"time": 3373, "pitch": 56, "duration": 8, "velocity": 32}, {"time": 3379, "pitch": 60, "duration": 11, "velocity": 89}, {"time": 3379, "pitch": 63, "duration": 11, "velocity": 89}, {"time": 3379, "pitch": 68, "duration": 10, "velocity": 68}, {"time": 3385, "pitch": 56, "duration": 12, "velocity": 56}, {"time": 3397, "pitch": 60, "duration": 7, "velocity": 75}, {"time": 3397, "pitch": 63, "duration": 6, "velocity": 89}, {"time": 3397, "pitch": 68, "duration": 6, "velocity": 56}, {"time": 3403, "pitch": 56, "duration": 8, "velocity": 53}, {"time": 3409, "pitch": 60, "duration": 4, "velocity": 68}, {"time": 3409, "pitch": 63, "duration": 4, "velocity": 89}, {"time": 3409, "pitch": 68, "duration": 3, "velocity": 53}, {"time": 3415, "pitch": 46, "duration": 40, "velocity": 89}, {"time": 3421, "pitch": 58, "duration": 7, "velocity": 56}, {"time": 3427, "pitch": 62, "duration": 12, "velocity": 89}, {"time": 3427, "pitch": 65, "duration": 12, "velocity": 89}, {"time": 3427, "pitch": 70, "duration": 12, "velocity": 89}, {"time": 3433, "pitch": 58, "duration": 13, "velocity": 49}, {"time": 3445, "pitch": 62, "duration": 7, "velocity": 75}, {"time": 3445, "pitch": 65, "duration": 7, "velocity": 89}, {"time": 3445, "pitch": 70, "duration": 7, "velocity": 84}, {"time": 3451, "pitch": 58, "duration": 8, "velocity": 62}, {"time": 3457, "pitch": 62, "duration": 4, "velocity": 75}, {"time": 3457, "pitch": 65, "duration": 4, "velocity": 89}, {"time": 3457, "pitch": 70, "duration": 4, "velocity": 75}, {"time": 3463, "pitch": 51, "duration": 43, "velocity": 89}, {"time": 3469, "pitch": 58, "duration": 7, "velocity": 38}, {"time": 3475, "pitch": 63, "duration": 9, "velocity": 84}, {"time": 3475, "pitch": 67, "duration": 8, "velocity": 89}, {"time": 3475, "pitch": 70, "duration": 7, "velocity": 68}, {"time": 3481, "pitch": 58, "duration": 11, "velocity": 75}, {"time": 3493, "pitch": 63, "duration": 6, "velocity": 89}, {"time": 3493, "pitch": 67, "duration": 6, "velocity": 89}, {"time": 3493, "pitch": 70, "duration": 6, "velocity": 89}, {"time": 3499, "pitch": 58, "duration": 6, "velocity": 62}, {"time": 3505, "pitch": 63, "duration": 3, "velocity": 89}, {"time": 3505, "pitch": 67, "duration": 3, "velocity": 89}, {"time": 3505, "pitch": 70, "duration": 3, "velocity": 89}, {"time": 3511, "pitch": 51, "duration": 35, "velocity": 75}, {"time": 3517, "pitch": 58, "duration": 8, "velocity": 56}, {"time": 3523, "pitch": 63, "duration": 11, "velocity": 89}, {"time": 3523, "pitch": 67, "duration": 11, "velocity": 89}, {"time": 3523, "pitch": 70, "duration": 11, "velocity": 84}, {"time": 3529, "pitch": 58, "duration": 11, "velocity": 56}, {"time": 3541, "pitch": 63, "duration": 5, "velocity": 89}, {"time": 3541, "pitch": 67, "duration": 5, "velocity": 89}, {"time": 3541, "pitch": 70, "duration": 5, "velocity": 89}, {"time": 3547, "pitch": 58, "duration": 6, "velocity": 89}, {"time": 3553, "pitch": 63, "duration": 6, "velocity": 89}, {"time": 3553, "pitch": 67, "duration": 6, "velocity": 89}, {"time": 3553, "pitch": 70, "duration": 6, "velocity": 89}, {"time": 3559, "pitch": 44, "duration": 42, "velocity": 89}, {"time": 3565, "pitch": 56, "duration": 10, "velocity": 49}, {"time": 3571, "pitch": 60, "duration": 12, "velocity": 75}, {"time": 3571, "pitch": 63, "duration": 12, "velocity": 89}, {"time": 3571, "pitch": 68, "duration": 12, "velocity": 68}, {"time": 3577, "pitch": 56, "duration": 12, "velocity": 56}, {"time": 3589, "pitch": 60, "duration": 7, "velocity": 89}, {"time": 3589, "pitch": 63, "duration": 6, "velocity": 89}, {"time": 3589, "pitch": 68, "duration": 6, "velocity": 84}, {"time": 3595, "pitch": 56, "duration": 8, "velocity": 62}, {"time": 3601, "pitch": 60, "duration": 5, "velocity": 89}, {"time": 3601, "pitch": 63, "duration": 4, "velocity": 89}, {"time": 3601, "pitch": 68, "duration": 4, "velocity": 75}, {"time": 3607, "pitch": 44, "duration": 41, "velocity": 89}, {"time": 3613, "pitch": 56, "duration": 8, "velocity": 49}, {"time": 3619, "pitch": 60, "duration": 11, "velocity": 89}, {"time": 3619, "pitch": 63, "duration": 10, "velocity": 89}, {"time": 3619, "pitch": 68, "duration": 10, "velocity": 75}, {"time": 3625, "pitch": 56, "duration": 11, "velocity": 53}, {"time": 3637, "pitch": 60, "duration": 7, "velocity": 89}, {"time": 3637, "pitch": 63, "duration": 7, "velocity": 89}, {"time": 3637, "pitch": 68, "duration": 7, "velocity": 89}, {"time": 3643, "pitch": 56, "duration": 8, "velocity": 68}, {"time": 3649, "pitch": 60, "duration": 5, "velocity": 75}, {"time": 3649, "pitch": 63, "duration": 4, "velocity": 89}, {"time": 3649, "pitch": 68, "duration": 4, "velocity": 56}, {"time": 3655, "pitch": 46, "duration": 41, "velocity": 89}, {"time": 3661, "pitch": 58, "duration": 8, "velocity": 53}, {"time": 3667, "pitch": 62, "duration": 13, "velocity": 84}, {"time": 3667, "pitch": 65, "duration": 13, "velocity": 89}, {"time": 3667, "pitch": 70, "duration": 13, "velocity": 89}, {"time": 3673, "pitch": 58, "duration": 13, "velocity": 27}, {"time": 3685, "pitch": 62, "duration": 7, "velocity": 84}, {"time": 3685, "pitch": 65, "duration": 7, "velocity": 89}, {"time": 3685, "pitch": 70, "duration": 7, "velocity": 89}, {"time": 3691, "pitch": 58, "duration": 8, "velocity": 62}, {"time": 3697, "pitch": 62, "duration": 5, "velocity": 84}, {"time": 3697, "pitch": 65, "duration": 4, "velocity": 89}, {"time": 3697, "pitch": 70, "duration": 4, "velocity": 68}, {"time": 3703, "pitch": 51, "duration": 43, "velocity": 75}, {"time": 3709, "pitch": 58, "duration": 7, "velocity": 38}, {"time": 3715, "pitch": 63, "duration": 12, "velocity": 84}, {"time": 3715, "pitch": 67, "duration": 11, "velocity": 75}, {"time": 3715, "pitch": 70, "duration": 11, "velocity": 84}, {"time": 3721, "pitch": 58, "duration": 12, "velocity": 56}, {"time": 3733, "pitch": 63, "duration": 7, "velocity": 89}, {"time": 3733, "pitch": 67, "duration": 7, "velocity": 89}, {"time": 3733, "pitch": 70, "duration": 7, "velocity": 89}, {"time": 3739, "pitch": 58, "duration": 8, "velocity": 84}, {"time": 3745, "pitch": 63, "duration": 3, "velocity": 89}, {"time": 3745, "pitch": 67, "duration": 3, "velocity": 89}, {"time": 3745, "pitch": 70, "duration": 3, "velocity": 89}, {"time": 3751, "pitch": 44, "duration": 41, "velocity": 89}, {"time": 3757, "pitch": 56, "duration": 7, "velocity": 53}, {"time": 3763, "pitch": 60, "duration": 11, "velocity": 89}, {"time": 3763, "pitch": 63, "duration": 11, "velocity": 89}, {"time": 3763, "pitch": 68, "duration": 11, "velocity": 75}, {"time": 3769, "pitch": 56, "duration": 13, "velocity": 62}, {"time": 3781, "pitch": 60, "duration": 7, "velocity": 89}, {"time": 3781, "pitch": 63, "duration": 7, "velocity": 89}, {"time": 3781, "pitch": 68, "duration": 6, "velocity": 75}, {"time": 3787, "pitch": 56, "duration": 9, "velocity": 49}, {"time": 3793, "pitch": 60, "duration": 5, "velocity": 89}, {"time": 3793, "pitch": 63, "duration": 5, "velocity": 89}, {"time": 3793, "pitch": 68, "duration": 4, "velocity": 75}, {"time": 3799, "pitch": 46, "duration": 40, "velocity": 89}, {"time": 3805, "pitch": 58, "duration": 5, "velocity": 53}, {"time": 3811, "pitch": 62, "duration": 11, "velocity": 89}, {"time": 3811, "pitch": 65, "duration": 11, "velocity": 89}, {"time": 3811, "pitch": 70, "duration": 11, "velocity": 89}, {"time": 3817, "pitch": 58, "duration": 12, "velocity": 53}, {"time": 3829, "pitch": 62, "duration": 6, "velocity": 89}, {"time": 3829, "pitch": 65, "duration": 7, "velocity": 89}, {"time": 3829, "pitch": 70, "duration": 7, "velocity": 84}, {"time": 3835, "pitch": 58, "duration": 7, "velocity": 84}, {"time": 3841, "pitch": 62, "duration": 3, "velocity": 89}, {"time": 3841, "pitch": 65, "duration": 4, "velocity": 89}, {"time": 3841, "pitch": 70, "duration": 4, "velocity": 62}, {"time": 4039, "pitch": 41, "duration": 41, "velocity": 84}, {"time": 4045, "pitch": 53, "duration": 9, "velocity": 56}, {"time": 4051, "pitch": 60, "duration": 13, "velocity": 89}, {"time": 4051, "pitch": 65, "duration": 13, "velocity": 89}, {"time": 4051, "pitch": 68, "duration": 13, "velocity": 62}, {"time": 4057, "pitch": 53, "duration": 14, "velocity": 53}, {"time": 4069, "pitch": 60, "duration": 6, "velocity": 84}, {"time": 4069, "pitch": 65, "duration": 7, "velocity": 89}, {"time": 4069, "pitch": 68, "duration": 6, "velocity": 75}, {"time": 4075, "pitch": 53, "duration": 6, "velocity": 53}, {"time": 4081, "pitch": 60, "duration": 5, "velocity": 62}, {"time": 4081, "pitch": 65, "duration": 4, "velocity": 75}, {"time": 4081, "pitch": 68, "duration": 4, "velocity": 45}, {"time": 4087, "pitch": 44, "duration": 43, "velocity": 89}, {"time": 4093, "pitch": 56, "duration": 8, "velocity": 28}, {"time": 4099, "pitch": 60, "duration": 12, "velocity": 68}, {"time": 4099, "pitch": 63, "duration": 12, "velocity": 84}, {"time": 4099, "pitch": 68, "duration": 12, "velocity": 42}, {"time": 4105, "pitch": 56, "duration": 13, "velocity": 49}, {"time": 4117, "pitch": 60, "duration": 7, "velocity": 68}, {"time": 4117, "pitch": 63, "duration": 7, "velocity": 89}, {"time": 4117, "pitch": 68, "duration": 7, "velocity": 68}, {"time": 4123, "pitch": 56, "duration": 5, "velocity": 56}, {"time": 4129, "pitch": 60, "duration": 4, "velocity": 62}, {"time": 4129, "pitch": 63, "duration": 4, "velocity": 89}, {"time": 4129, "pitch": 68, "duration": 4, "velocity": 38}, {"time": 4135, "pitch": 43, "duration": 41, "velocity": 62}, {"time": 4141, "pitch": 55, "duration": 8, "velocity": 75}, {"time": 4147, "pitch": 62, "duration": 8, "velocity": 75}, {"time": 4147, "pitch": 67, "duration": 8, "velocity": 68}, {"time": 4147, "pitch": 70, "duration": 7, "velocity": 75}, {"time": 4153, "pitch": 55, "duration": 14, "velocity": 68}, {"time": 4165, "pitch": 62, "duration": 7, "velocity": 75}, {"time": 4165, "pitch": 67, "duration": 7, "velocity": 89}, {"time": 4165, "pitch": 70, "duration": 6, "velocity": 75}, {"time": 4171, "pitch": 55, "duration": 6, "velocity": 75}, {"time": 4177, "pitch": 46, "duration": 9, "velocity": 89}, {"time": 4177, "pitch": 58, "duration": 9, "velocity": 84}, {"time": 4177, "pitch": 62, "duration": 10, "velocity": 89}, {"time": 4177, "pitch": 65, "duration": 10, "velocity": 89}, {"time": 4177, "pitch": 70, "duration": 9, "velocity": 89}, {"time": 4189, "pitch": 46, "duration": 2, "velocity": 89}, {"time": 4189, "pitch": 58, "duration": 2, "velocity": 56}, {"time": 4189, "pitch": 62, "duration": 2, "velocity": 53}, {"time": 4189, "pitch": 65, "duration": 2, "velocity": 84}, {"time": 4189, "pitch": 70, "duration": 2, "velocity": 89}, {"time": 4195, "pitch": 46, "duration": 1, "velocity": 89}, {"time": 4195, "pitch": 58, "duration": 2, "velocity": 89}, {"time": 4195, "pitch": 62, "duration": 2, "velocity": 75}, {"time": 4195, "pitch": 65, "duration": 3, "velocity": 89}, {"time": 4195, "pitch": 70, "duration": 2, "velocity": 89}, {"time": 4201, "pitch": 46, "duration": 3, "velocity": 89}, {"time": 4201, "pitch": 58, "duration": 3, "velocity": 84}, {"time": 4201, "pitch": 62, "duration": 3, "velocity": 89}, {"time": 4201, "pitch": 65, "duration": 3, "velocity": 89}, {"time": 4201, "pitch": 70, "duration": 2, "velocity": 89}, {"time": 4229, "pitch": 44, "duration": 45, "velocity": 68}, {"time": 4235, "pitch": 56, "duration": 18, "velocity": 30}, {"time": 4241, "pitch": 60, "duration": 6, "velocity": 56}, {"time": 4247, "pitch": 63, "duration": 14, "velocity": 89}, {"time": 4259, "pitch": 56, "duration": 15, "velocity": 42}, {"time": 4265, "pitch": 60, "duration": 7, "velocity": 89}, {"time": 4271, "pitch": 63, "duration": 6, "velocity": 89}, {"time": 4277, "pitch": 44, "duration": 37, "velocity": 89}, {"time": 4283, "pitch": 56, "duration": 15, "velocity": 42}, {"time": 4289, "pitch": 60, "duration": 6, "velocity": 68}, {"time": 4295, "pitch": 63, "duration": 13, "velocity": 89}, {"time": 4306, "pitch": 56, "duration": 5, "velocity": 56}, {"time": 4313, "pitch": 60, "duration": 7, "velocity": 89}, {"time": 4319, "pitch": 63, "duration": 3, "velocity": 89}, {"time": 4325, "pitch": 43, "duration": 50, "velocity": 53}, {"time": 4331, "pitch": 55, "duration": 16, "velocity": 53}, {"time": 4337, "pitch": 62, "duration": 5, "velocity": 75}, {"time": 4343, "pitch": 65, "duration": 14, "velocity": 89}, {"time": 4355, "pitch": 55, "duration": 13, "velocity": 75}, {"time": 4361, "pitch": 62, "duration": 4, "velocity": 75}, {"time": 4367, "pitch": 65, "duration": 8, "velocity": 89}, {"time": 4373, "pitch": 48, "duration": 40, "velocity": 75}, {"time": 4380, "pitch": 55, "duration": 14, "velocity": 53}, {"time": 4386, "pitch": 60, "duration": 5, "velocity": 56}, {"time": 4391, "pitch": 63, "duration": 14, "velocity": 89}, {"time": 4403, "pitch": 55, "duration": 11, "velocity": 49}, {"time": 4410, "pitch": 60, "duration": 8, "velocity": 89}, {"time": 4416, "pitch": 63, "duration": 4, "velocity": 89}, {"time": 4422, "pitch": 48, "duration": 43, "velocity": 89}, {"time": 4428, "pitch": 55, "duration": 8, "velocity": 25}, {"time": 4434, "pitch": 63, "duration": 11, "velocity": 75}, {"time": 4434, "pitch": 67, "duration": 12, "velocity": 53}, {"time": 4434, "pitch": 60, "duration": 11, "velocity": 75}, {"time": 4440, "pitch": 55, "duration": 13, "velocity": 56}, {"time": 4451, "pitch": 67, "duration": 9, "velocity": 75}, {"time": 4452, "pitch": 63, "duration": 7, "velocity": 89}, {"time": 4452, "pitch": 60, "duration": 7, "velocity": 75}, {"time": 4458, "pitch": 55, "duration": 7, "velocity": 68}, {"time": 4464, "pitch": 60, "duration": 3, "velocity": 62}, {"time": 4464, "pitch": 63, "duration": 3, "velocity": 84}, {"time": 4464, "pitch": 67, "duration": 3, "velocity": 68}, {"time": 4470, "pitch": 48, "duration": 44, "velocity": 75}, {"time": 4476, "pitch": 55, "duration": 8, "velocity": 27}, {"time": 4482, "pitch": 67, "duration": 13, "velocity": 62}, {"time": 4482, "pitch": 63, "duration": 12, "velocity": 89}, {"time": 4482, "pitch": 60, "duration": 12, "velocity": 84}, {"time": 4488, "pitch": 55, "duration": 13, "velocity": 62}, {"time": 4500, "pitch": 67, "duration": 8, "velocity": 68}, {"time": 4500, "pitch": 63, "duration": 7, "velocity": 84}, {"time": 4500, "pitch": 60, "duration": 8, "velocity": 75}, {"time": 4507, "pitch": 55, "duration": 8, "velocity": 62}, {"time": 4512, "pitch": 63, "duration": 6, "velocity": 56}, {"time": 4512, "pitch": 60, "duration": 6, "velocity": 53}, {"time": 4512, "pitch": 67, "duration": 6, "velocity": 75}, {"time": 4519, "pitch": 51, "duration": 90, "velocity": 84}, {"time": 4525, "pitch": 58, "duration": 7, "velocity": 53}, {"time": 4531, "pitch": 63, "duration": 8, "velocity": 84}, {"time": 4531, "pitch": 67, "duration": 8, "velocity": 89}, {"time": 4531, "pitch": 70, "duration": 8, "velocity": 84}, {"time": 4537, "pitch": 58, "duration": 12, "velocity": 38}, {"time": 4549, "pitch": 63, "duration": 5, "velocity": 84}, {"time": 4549, "pitch": 67, "duration": 6, "velocity": 89}, {"time": 4549, "pitch": 70, "duration": 5, "velocity": 89}, {"time": 4555, "pitch": 58, "duration": 5, "velocity": 68}, {"time": 4561, "pitch": 63, "duration": 5, "velocity": 89}, {"time": 4561, "pitch": 67, "duration": 5, "velocity": 89}, {"time": 4561, "pitch": 70, "duration": 6, "velocity": 89}, {"time": 4567, "pitch": 58, "duration": 11, "velocity": 89}, {"time": 4579, "pitch": 63, "duration": 5, "velocity": 89}, {"time": 4579, "pitch": 67, "duration": 6, "velocity": 89}, {"time": 4579, "pitch": 70, "duration": 6, "velocity": 89}, {"time": 4585, "pitch": 58, "duration": 10, "velocity": 49}, {"time": 4591, "pitch": 63, "duration": 6, "velocity": 89}, {"time": 4591, "pitch": 67, "duration": 6, "velocity": 89}, {"time": 4591, "pitch": 70, "duration": 6, "velocity": 89}, {"time": 4603, "pitch": 58, "duration": 5, "velocity": 84}, {"time": 4609, "pitch": 63, "duration": 6, "velocity": 89}, {"time": 4609, "pitch": 67, "duration": 5, "velocity": 89}, {"time": 4609, "pitch": 70, "duration": 5, "velocity": 89}, {"time": 4615, "pitch": 44, "duration": 45, "velocity": 89}, {"time": 4621, "pitch": 56, "duration": 7, "velocity": 56}, {"time": 4627, "pitch": 60, "duration": 13, "velocity": 89}, {"time": 4627, "pitch": 63, "duration": 13, "velocity": 89}, {"time": 4627, "pitch": 68, "duration": 12, "velocity": 84}, {"time": 4633, "pitch": 56, "duration": 14, "velocity": 49}, {"time": 4645, "pitch": 60, "duration": 8, "velocity": 89}, {"time": 4645, "pitch": 63, "duration": 7, "velocity": 89}, {"time": 4645, "pitch": 68, "duration": 7, "velocity": 75}, {"time": 4651, "pitch": 56, "duration": 10, "velocity": 53}, {"time": 4657, "pitch": 60, "duration": 4, "velocity": 75}, {"time": 4657, "pitch": 63, "duration": 4, "velocity": 89}, {"time": 4657, "pitch": 68, "duration": 3, "velocity": 68}, {"time": 4663, "pitch": 44, "duration": 41, "velocity": 84}, {"time": 4669, "pitch": 56, "duration": 8, "velocity": 38}, {"time": 4675, "pitch": 60, "duration": 11, "velocity": 89}, {"time": 4675, "pitch": 63, "duration": 10, "velocity": 89}, {"time": 4675, "pitch": 68, "duration": 10, "velocity": 62}, {"time": 4681, "pitch": 56, "duration": 11, "velocity": 45}, {"time": 4693, "pitch": 60, "duration": 7, "velocity": 84}, {"time": 4693, "pitch": 63, "duration": 7, "velocity": 89}, {"time": 4693, "pitch": 68, "duration": 7, "velocity": 62}, {"time": 4699, "pitch": 56, "duration": 8, "velocity": 62}, {"time": 4705, "pitch": 60, "duration": 4, "velocity": 75}, {"time": 4705, "pitch": 63, "duration": 4, "velocity": 89}, {"time": 4705, "pitch": 68, "duration": 4, "velocity": 62}, {"time": 4711, "pitch": 46, "duration": 43, "velocity": 89}, {"time": 4717, "pitch": 58, "duration": 7, "velocity": 56}, {"time": 4723, "pitch": 62, "duration": 12, "velocity": 89}, {"time": 4723, "pitch": 65, "duration": 11, "velocity": 89}, {"time": 4723, "pitch": 70, "duration": 11, "velocity": 89}, {"time": 4729, "pitch": 58, "duration": 12, "velocity": 68}, {"time": 4741, "pitch": 62, "duration": 7, "velocity": 75}, {"time": 4741, "pitch": 65, "duration": 7, "velocity": 89}, {"time": 4741, "pitch": 70, "duration": 6, "velocity": 89}, {"time": 4747, "pitch": 58, "duration": 7, "velocity": 62}, {"time": 4753, "pitch": 62, "duration": 3, "velocity": 68}, {"time": 4753, "pitch": 65, "duration": 3, "velocity": 89}, {"time": 4753, "pitch": 70, "duration": 3, "velocity": 75}, {"time": 4759, "pitch": 48, "duration": 41, "velocity": 89}, {"time": 4765, "pitch": 55, "duration": 8, "velocity": 62}, {"time": 4771, "pitch": 60, "duration": 13, "velocity": 68}, {"time": 4771, "pitch": 63, "duration": 12, "velocity": 84}, {"time": 4771, "pitch": 67, "duration": 13, "velocity": 84}, {"time": 4777, "pitch": 55, "duration": 13, "velocity": 38}, {"time": 4789, "pitch": 60, "duration": 7, "velocity": 84}, {"time": 4789, "pitch": 63, "duration": 7, "velocity": 89}, {"time": 4789, "pitch": 67, "duration": 7, "velocity": 89}, {"time": 4795, "pitch": 55, "duration": 6, "velocity": 68}, {"time": 4801, "pitch": 60, "duration": 3, "velocity": 84}, {"time": 4801, "pitch": 63, "duration": 4, "velocity": 89}, {"time": 4801, "pitch": 67, "duration": 4, "velocity": 68}, {"time": 4807, "pitch": 44, "duration": 44, "velocity": 89}, {"time": 4813, "pitch": 56, "duration": 8, "velocity": 56}, {"time": 4819, "pitch": 60, "duration": 13, "velocity": 89}, {"time": 4819, "pitch": 63, "duration": 13, "velocity": 89}, {"time": 4819, "pitch": 68, "duration": 13, "velocity": 75}, {"time": 4825, "pitch": 56, "duration": 14, "velocity": 45}, {"time": 4837, "pitch": 60, "duration": 7, "velocity": 89}, {"time": 4837, "pitch": 63, "duration": 7, "velocity": 89}, {"time": 4837, "pitch": 68, "duration": 7, "velocity": 89}, {"time": 4843, "pitch": 56, "duration": 9, "velocity": 53}, {"time": 4849, "pitch": 60, "duration": 4, "velocity": 68}, {"time": 4849, "pitch": 63, "duration": 4, "velocity": 89}, {"time": 4849, "pitch": 68, "duration": 3, "velocity": 42}, {"time": 4855, "pitch": 46, "duration": 10, "velocity": 89}, {"time": 4861, "pitch": 58, "duration": 4, "velocity": 34}, {"time": 4867, "pitch": 46, "duration": 33, "velocity": 75}, {"time": 4867, "pitch": 58, "duration": 34, "velocity": 62}, {"time": 4867, "pitch": 62, "duration": 35, "velocity": 89}, {"time": 4867, "pitch": 65, "duration": 34, "velocity": 89}, {"time": 4867, "pitch": 70, "duration": 34, "velocity": 89}, {"time": 4902, "pitch": 39, "duration": 44, "velocity": 89}, {"time": 4907, "pitch": 51, "duration": 9, "velocity": 42}, {"time": 4914, "pitch": 58, "duration": 13, "velocity": 84}, {"time": 4914, "pitch": 63, "duration": 13, "velocity": 56}, {"time": 4914, "pitch": 55, "duration": 13, "velocity": 75}, {"time": 4920, "pitch": 51, "duration": 15, "velocity": 75}, {"time": 4932, "pitch": 58, "duration": 7, "velocity": 84}, {"time": 4932, "pitch": 63, "duration": 7, "velocity": 56}, {"time": 4932, "pitch": 55, "duration": 7, "velocity": 68}, {"time": 4938, "pitch": 51, "duration": 9, "velocity": 49}, {"time": 4944, "pitch": 58, "duration": 6, "velocity": 68}, {"time": 4944, "pitch": 63, "duration": 6, "velocity": 49}, {"time": 4944, "pitch": 55, "duration": 6, "velocity": 68}, {"time": 4950, "pitch": 39, "duration": 40, "velocity": 89}, {"time": 4956, "pitch": 51, "duration": 9, "velocity": 75}, {"time": 4962, "pitch": 58, "duration": 12, "velocity": 89}, {"time": 4962, "pitch": 55, "duration": 13, "velocity": 75}, {"time": 4962, "pitch": 63, "duration": 13, "velocity": 75}, {"time": 4968, "pitch": 51, "duration": 14, "velocity": 32}, {"time": 4980, "pitch": 58, "duration": 6, "velocity": 75}, {"time": 4980, "pitch": 63, "duration": 6, "velocity": 56}, {"time": 4980, "pitch": 55, "duration": 7, "velocity": 75}, {"time": 4986, "pitch": 51, "duration": 8, "velocity": 42}, {"time": 4992, "pitch": 55, "duration": 3, "velocity": 68}, {"time": 4992, "pitch": 63, "duration": 3, "velocity": 49}, {"time": 4992, "pitch": 58, "duration": 3, "velocity": 75}, {"time": 4998, "pitch": 44, "duration": 43, "velocity": 32}, {"time": 5004, "pitch": 56, "duration": 8, "velocity": 30}, {"time": 5009, "pitch": 63, "duration": 13, "velocity": 89}, {"time": 5009, "pitch": 68, "duration": 13, "velocity": 45}, {"time": 5009, "pitch": 60, "duration": 13, "velocity": 75}, {"time": 5015, "pitch": 56, "duration": 14, "velocity": 53}, {"time": 5028, "pitch": 63, "duration": 6, "velocity": 89}, {"time": 5028, "pitch": 60, "duration": 7, "velocity": 89}, {"time": 5028, "pitch": 68, "duration": 6, "velocity": 62}, {"time": 5033, "pitch": 56, "duration": 9, "velocity": 53}, {"time": 5039, "pitch": 60, "duration": 6, "velocity": 62}, {"time": 5039, "pitch": 63, "duration": 5, "velocity": 89}, {"time": 5039, "pitch": 68, "duration": 5, "velocity": 45}, {"time": 5046, "pitch": 44, "duration": 40, "velocity": 89}, {"time": 5048, "pitch": 56, "duration": 39, "velocity": 42}, {"time": 5049, "pitch": 60, "duration": 40, "velocity": 25}, {"time": 5049, "pitch": 63, "duration": 38, "velocity": 19}, {"time": 5050, "pitch": 68, "duration": 38, "velocity": 45}]}]}