{"metadata": {"schema_version": "0.2", "title": "None", "source_filename": "808.mid", "source_format": "midi"}, "resolution": 12, "tempos": [{"time": 0, "qpm": 84.000084000084}, {"time": 912, "qpm": 84.10016329448374}, {"time": 1031, "qpm": 84.20012686152447}, {"time": 1260, "qpm": 84.30009146559924}, {"time": 1296, "qpm": 84.000084000084}, {"time": 1872, "qpm": 84.20012686152447}, {"time": 2362, "qpm": 84.000084000084}, {"time": 3074, "qpm": 84.20012686152447}, {"time": 3371, "qpm": 84.000084000084}], "time_signatures": [{"time": 0, "numerator": 1, "denominator": 4}], "tracks": [{"program": 0, "is_drum": false, "name": "MELODY", "notes": [{"time": 532, "pitch": 74, "duration": 5, "velocity": 85}, {"time": 538, "pitch": 72, "duration": 5, "velocity": 82}, {"time": 544, "pitch": 74, "duration": 14, "velocity": 84}, {"time": 562, "pitch": 77, "duration": 4, "velocity": 80}, {"time": 568, "pitch": 79, "duration": 5, "velocity": 78}, {"time": 574, "pitch": 77, "duration": 6, "velocity": 84}, {"time": 580, "pitch": 74, "duration": 2, "velocity": 83}, {"time": 583, "pitch": 72, "duration": 3, "velocity": 73}, {"time": 586, "pitch": 70, "duration": 3, "velocity": 83}, {"time": 589, "pitch": 72, "duration": 3, "velocity": 83}, {"time": 592, "pitch": 74, "duration": 27, "velocity": 84}, {"time": 628, "pitch": 72, "duration": 4, "velocity": 77}, {"time": 631, "pitch": 74, "duration": 7, "velocity": 82}, {"time": 640, "pitch": 72, "duration": 15, "velocity": 77}, {"time": 658, "pitch": 74, "duration": 4, "velocity": 84}, {"time": 664, "pitch": 72, "duration": 5, "velocity": 79}, {"time": 670, "pitch": 70, "duration": 6, "velocity": 82}, {"time": 676, "pitch": 67, "duration": 6, "velocity": 79}, {"time": 682, "pitch": 70, "duration": 6, "velocity": 76}, {"time": 688, "pitch": 67, "duration": 6, "velocity": 79}, {"time": 694, "pitch": 65, "duration": 26, "velocity": 69}, {"time": 730, "pitch": 65, "duration": 2, "velocity": 81}, {"time": 733, "pitch": 67, "duration": 2, "velocity": 77}, {"time": 736, "pitch": 70, "duration": 8, "velocity": 83}, {"time": 745, "pitch": 70, "duration": 7, "velocity": 87}, {"time": 754, "pitch": 72, "duration": 2, "velocity": 84}, {"time": 757, "pitch": 74, "duration": 2, "velocity": 83}, {"time": 760, "pitch": 77, "duration": 7, "velocity": 64}, {"time": 769, "pitch": 77, "duration": 7, "velocity": 83}, {"time": 778, "pitch": 74, "duration": 2, "velocity": 83}, {"time": 781, "pitch": 77, "duration": 2, "velocity": 71}, {"time": 784, "pitch": 79, "duration": 8, "velocity": 84}, {"time": 802, "pitch": 79, "duration": 3, "velocity": 77}, {"time": 805, "pitch": 77, "duration": 3, "velocity": 75}, {"time": 808, "pitch": 74, "duration": 12, "velocity": 83}, {"time": 826, "pitch": 72, "duration": 2, "velocity": 83}, {"time": 829, "pitch": 74, "duration": 2, "velocity": 83}, {"time": 832, "pitch": 72, "duration": 15, "velocity": 83}, {"time": 850, "pitch": 70, "duration": 6, "velocity": 83}, {"time": 856, "pitch": 67, "duration": 5, "velocity": 82}, {"time": 862, "pitch": 70, "duration": 6, "velocity": 83}, {"time": 868, "pitch": 77, "duration": 5, "velocity": 82}, {"time": 874, "pitch": 74, "duration": 6, "velocity": 82}, {"time": 880, "pitch": 72, "duration": 32, "velocity": 78}, {"time": 916, "pitch": 74, "duration": 5, "velocity": 85}, {"time": 922, "pitch": 72, "duration": 5, "velocity": 82}, {"time": 928, "pitch": 74, "duration": 14, "velocity": 84}, {"time": 946, "pitch": 77, "duration": 4, "velocity": 80}, {"time": 952, "pitch": 79, "duration": 5, "velocity": 78}, {"time": 958, "pitch": 77, "duration": 6, "velocity": 84}, {"time": 964, "pitch": 74, "duration": 2, "velocity": 83}, {"time": 967, "pitch": 72, "duration": 3, "velocity": 73}, {"time": 970, "pitch": 70, "duration": 3, "velocity": 83}, {"time": 973, "pitch": 72, "duration": 3, "velocity": 83}, {"time": 976, "pitch": 74, "duration": 27, "velocity": 84}, {"time": 1012, "pitch": 72, "duration": 4, "velocity": 77}, {"time": 1018, "pitch": 74, "duration": 6, "velocity": 82}, {"time": 1024, "pitch": 72, "duration": 15, "velocity": 77}, {"time": 1042, "pitch": 74, "duration": 4, "velocity": 84}, {"time": 1048, "pitch": 72, "duration": 5, "velocity": 79}, {"time": 1054, "pitch": 70, "duration": 6, "velocity": 82}, {"time": 1060, "pitch": 67, "duration": 6, "velocity": 79}, {"time": 1066, "pitch": 70, "duration": 6, "velocity": 76}, {"time": 1072, "pitch": 67, "duration": 6, "velocity": 79}, {"time": 1078, "pitch": 65, "duration": 26, "velocity": 69}, {"time": 1114, "pitch": 65, "duration": 2, "velocity": 81}, {"time": 1117, "pitch": 67, "duration": 2, "velocity": 77}, {"time": 1120, "pitch": 70, "duration": 8, "velocity": 83}, {"time": 1129, "pitch": 70, "duration": 7, "velocity": 87}, {"time": 1138, "pitch": 72, "duration": 2, "velocity": 84}, {"time": 1141, "pitch": 74, "duration": 2, "velocity": 83}, {"time": 1144, "pitch": 77, "duration": 7, "velocity": 64}, {"time": 1153, "pitch": 77, "duration": 7, "velocity": 83}, {"time": 1162, "pitch": 74, "duration": 2, "velocity": 83}, {"time": 1165, "pitch": 77, "duration": 2, "velocity": 71}, {"time": 1168, "pitch": 79, "duration": 8, "velocity": 84}, {"time": 1186, "pitch": 79, "duration": 3, "velocity": 77}, {"time": 1189, "pitch": 77, "duration": 3, "velocity": 75}, {"time": 1192, "pitch": 74, "duration": 12, "velocity": 83}, {"time": 1210, "pitch": 72, "duration": 2, "velocity": 83}, {"time": 1213, "pitch": 74, "duration": 2, "velocity": 83}, {"time": 1216, "pitch": 72, "duration": 15, "velocity": 83}, {"time": 1234, "pitch": 74, "duration": 5, "velocity": 87}, {"time": 1240, "pitch": 79, "duration": 4, "velocity": 82}, {"time": 1246, "pitch": 77, "duration": 6, "velocity": 78}, {"time": 1252, "pitch": 74, "duration": 5, "velocity": 83}, {"time": 1258, "pitch": 72, "duration": 12, "velocity": 73}, {"time": 1270, "pitch": 70, "duration": 30, "velocity": 73}, {"time": 1300, "pitch": 74, "duration": 5, "velocity": 84}, {"time": 1306, "pitch": 74, "duration": 5, "velocity": 87}, {"time": 1312, "pitch": 77, "duration": 8, "velocity": 83}, {"time": 1321, "pitch": 79, "duration": 25, "velocity": 80}, {"time": 1348, "pitch": 79, "duration": 5, "velocity": 84}, {"time": 1354, "pitch": 77, "duration": 6, "velocity": 82}, {"time": 1360, "pitch": 74, "duration": 29, "velocity": 86}, {"time": 1396, "pitch": 77, "duration": 5, "velocity": 73}, {"time": 1402, "pitch": 74, "duration": 5, "velocity": 83}, {"time": 1408, "pitch": 72, "duration": 16, "velocity": 83}, {"time": 1426, "pitch": 70, "duration": 6, "velocity": 86}, {"time": 1432, "pitch": 67, "duration": 10, "velocity": 78}, {"time": 1444, "pitch": 70, "duration": 5, "velocity": 79}, {"time": 1450, "pitch": 72, "duration": 4, "velocity": 78}, {"time": 1456, "pitch": 74, "duration": 29, "velocity": 85}, {"time": 1492, "pitch": 74, "duration": 4, "velocity": 88}, {"time": 1498, "pitch": 74, "duration": 5, "velocity": 89}, {"time": 1504, "pitch": 77, "duration": 6, "velocity": 83}, {"time": 1510, "pitch": 79, "duration": 25, "velocity": 81}, {"time": 1540, "pitch": 82, "duration": 7, "velocity": 84}, {"time": 1546, "pitch": 79, "duration": 6, "velocity": 86}, {"time": 1552, "pitch": 77, "duration": 31, "velocity": 82}, {"time": 1588, "pitch": 77, "duration": 5, "velocity": 79}, {"time": 1594, "pitch": 79, "duration": 5, "velocity": 80}, {"time": 1600, "pitch": 82, "duration": 7, "velocity": 78}, {"time": 1609, "pitch": 82, "duration": 2, "velocity": 81}, {"time": 1612, "pitch": 82, "duration": 5, "velocity": 82}, {"time": 1618, "pitch": 79, "duration": 6, "velocity": 82}, {"time": 1624, "pitch": 86, "duration": 12, "velocity": 82}, {"time": 1636, "pitch": 86, "duration": 9, "velocity": 83}, {"time": 1645, "pitch": 84, "duration": 4, "velocity": 83}, {"time": 1648, "pitch": 82, "duration": 6, "velocity": 78}, {"time": 1654, "pitch": 84, "duration": 26, "velocity": 82}, {"time": 1684, "pitch": 82, "duration": 4, "velocity": 83}, {"time": 1690, "pitch": 82, "duration": 5, "velocity": 82}, {"time": 1696, "pitch": 84, "duration": 8, "velocity": 84}, {"time": 1705, "pitch": 86, "duration": 24, "velocity": 82}, {"time": 1732, "pitch": 86, "duration": 8, "velocity": 84}, {"time": 1741, "pitch": 84, "duration": 3, "velocity": 77}, {"time": 1744, "pitch": 82, "duration": 6, "velocity": 84}, {"time": 1750, "pitch": 79, "duration": 25, "velocity": 78}, {"time": 1780, "pitch": 79, "duration": 6, "velocity": 83}, {"time": 1786, "pitch": 82, "duration": 6, "velocity": 83}, {"time": 1792, "pitch": 79, "duration": 6, "velocity": 83}, {"time": 1798, "pitch": 77, "duration": 11, "velocity": 76}, {"time": 1810, "pitch": 79, "duration": 6, "velocity": 82}, {"time": 1816, "pitch": 77, "duration": 5, "velocity": 78}, {"time": 1822, "pitch": 74, "duration": 5, "velocity": 84}, {"time": 1828, "pitch": 72, "duration": 6, "velocity": 83}, {"time": 1834, "pitch": 74, "duration": 6, "velocity": 84}, {"time": 1840, "pitch": 72, "duration": 6, "velocity": 77}, {"time": 1846, "pitch": 70, "duration": 35, "velocity": 80}, {"time": 2260, "pitch": 74, "duration": 5, "velocity": 85}, {"time": 2266, "pitch": 72, "duration": 5, "velocity": 82}, {"time": 2272, "pitch": 74, "duration": 14, "velocity": 84}, {"time": 2290, "pitch": 77, "duration": 4, "velocity": 80}, {"time": 2296, "pitch": 79, "duration": 5, "velocity": 78}, {"time": 2302, "pitch": 77, "duration": 6, "velocity": 84}, {"time": 2308, "pitch": 74, "duration": 2, "velocity": 83}, {"time": 2311, "pitch": 72, "duration": 3, "velocity": 73}, {"time": 2314, "pitch": 70, "duration": 3, "velocity": 83}, {"time": 2317, "pitch": 72, "duration": 3, "velocity": 83}, {"time": 2320, "pitch": 74, "duration": 27, "velocity": 84}, {"time": 2356, "pitch": 72, "duration": 4, "velocity": 77}, {"time": 2362, "pitch": 74, "duration": 6, "velocity": 82}, {"time": 2368, "pitch": 72, "duration": 15, "velocity": 77}, {"time": 2386, "pitch": 74, "duration": 4, "velocity": 84}, {"time": 2392, "pitch": 72, "duration": 5, "velocity": 79}, {"time": 2398, "pitch": 70, "duration": 6, "velocity": 82}, {"time": 2404, "pitch": 67, "duration": 6, "velocity": 79}, {"time": 2410, "pitch": 70, "duration": 6, "velocity": 76}, {"time": 2416, "pitch": 67, "duration": 6, "velocity": 79}, {"time": 2422, "pitch": 65, "duration": 26, "velocity": 69}, {"time": 2458, "pitch": 65, "duration": 2, "velocity": 81}, {"time": 2461, "pitch": 67, "duration": 2, "velocity": 77}, {"time": 2464, "pitch": 70, "duration": 8, "velocity": 83}, {"time": 2473, "pitch": 70, "duration": 7, "velocity": 87}, {"time": 2482, "pitch": 72, "duration": 2, "velocity": 84}, {"time": 2485, "pitch": 74, "duration": 2, "velocity": 83}, {"time": 2488, "pitch": 77, "duration": 7, "velocity": 64}, {"time": 2497, "pitch": 77, "duration": 7, "velocity": 83}, {"time": 2506, "pitch": 74, "duration": 2, "velocity": 83}, {"time": 2509, "pitch": 77, "duration": 2, "velocity": 71}, {"time": 2512, "pitch": 79, "duration": 8, "velocity": 84}, {"time": 2530, "pitch": 79, "duration": 3, "velocity": 77}, {"time": 2533, "pitch": 77, "duration": 3, "velocity": 75}, {"time": 2536, "pitch": 74, "duration": 12, "velocity": 83}, {"time": 2554, "pitch": 72, "duration": 2, "velocity": 83}, {"time": 2557, "pitch": 74, "duration": 2, "velocity": 83}, {"time": 2560, "pitch": 72, "duration": 15, "velocity": 83}, {"time": 2578, "pitch": 74, "duration": 5, "velocity": 87}, {"time": 2584, "pitch": 79, "duration": 4, "velocity": 82}, {"time": 2590, "pitch": 77, "duration": 6, "velocity": 78}, {"time": 2596, "pitch": 74, "duration": 5, "velocity": 83}, {"time": 2602, "pitch": 72, "duration": 12, "velocity": 73}, {"time": 2614, "pitch": 70, "duration": 30, "velocity": 73}, {"time": 2644, "pitch": 74, "duration": 5, "velocity": 84}, {"time": 2650, "pitch": 74, "duration": 5, "velocity": 87}, {"time": 2656, "pitch": 77, "duration": 8, "velocity": 83}, {"time": 2665, "pitch": 79, "duration": 25, "velocity": 80}, {"time": 2692, "pitch": 79, "duration": 5, "velocity": 84}, {"time": 2698, "pitch": 77, "duration": 6, "velocity": 82}, {"time": 2704, "pitch": 74, "duration": 29, "velocity": 86}, {"time": 2740, "pitch": 77, "duration": 5, "velocity": 73}, {"time": 2746, "pitch": 74, "duration": 5, "velocity": 83}, {"time": 2752, "pitch": 72, "duration": 16, "velocity": 83}, {"time": 2770, "pitch": 70, "duration": 6, "velocity": 86}, {"time": 2776, "pitch": 67, "duration": 10, "velocity": 78}, {"time": 2788, "pitch": 70, "duration": 5, "velocity": 79}, {"time": 2794, "pitch": 72, "duration": 4, "velocity": 78}, {"time": 2800, "pitch": 74, "duration": 29, "velocity": 85}, {"time": 2836, "pitch": 74, "duration": 4, "velocity": 88}, {"time": 2842, "pitch": 74, "duration": 5, "velocity": 89}, {"time": 2848, "pitch": 77, "duration": 6, "velocity": 83}, {"time": 2854, "pitch": 79, "duration": 25, "velocity": 81}, {"time": 2884, "pitch": 82, "duration": 7, "velocity": 84}, {"time": 2890, "pitch": 79, "duration": 6, "velocity": 86}, {"time": 2896, "pitch": 77, "duration": 31, "velocity": 82}, {"time": 2932, "pitch": 77, "duration": 5, "velocity": 79}, {"time": 2938, "pitch": 79, "duration": 5, "velocity": 80}, {"time": 2944, "pitch": 82, "duration": 7, "velocity": 78}, {"time": 2953, "pitch": 82, "duration": 2, "velocity": 81}, {"time": 2956, "pitch": 82, "duration": 5, "velocity": 82}, {"time": 2962, "pitch": 79, "duration": 6, "velocity": 82}, {"time": 2968, "pitch": 86, "duration": 12, "velocity": 82}, {"time": 2980, "pitch": 86, "duration": 9, "velocity": 83}, {"time": 2989, "pitch": 84, "duration": 4, "velocity": 83}, {"time": 2992, "pitch": 82, "duration": 6, "velocity": 78}, {"time": 2998, "pitch": 84, "duration": 26, "velocity": 82}, {"time": 3028, "pitch": 82, "duration": 4, "velocity": 83}, {"time": 3034, "pitch": 82, "duration": 5, "velocity": 82}, {"time": 3040, "pitch": 84, "duration": 8, "velocity": 84}, {"time": 3049, "pitch": 86, "duration": 24, "velocity": 82}, {"time": 3076, "pitch": 86, "duration": 8, "velocity": 84}, {"time": 3085, "pitch": 84, "duration": 3, "velocity": 77}, {"time": 3088, "pitch": 82, "duration": 6, "velocity": 84}, {"time": 3094, "pitch": 79, "duration": 25, "velocity": 78}, {"time": 3124, "pitch": 79, "duration": 6, "velocity": 83}, {"time": 3130, "pitch": 82, "duration": 6, "velocity": 83}, {"time": 3136, "pitch": 79, "duration": 6, "velocity": 83}, {"time": 3142, "pitch": 77, "duration": 11, "velocity": 76}, {"time": 3154, "pitch": 79, "duration": 6, "velocity": 82}, {"time": 3160, "pitch": 77, "duration": 5, "velocity": 78}, {"time": 3166, "pitch": 74, "duration": 5, "velocity": 84}, {"time": 3172, "pitch": 72, "duration": 6, "velocity": 83}, {"time": 3178, "pitch": 74, "duration": 6, "velocity": 84}, {"time": 3184, "pitch": 72, "duration": 6, "velocity": 77}, {"time": 3190, "pitch": 70, "duration": 35, "velocity": 80}, {"time": 3220, "pitch": 74, "duration": 5, "velocity": 84}, {"time": 3226, "pitch": 74, "duration": 5, "velocity": 87}, {"time": 3232, "pitch": 77, "duration": 8, "velocity": 83}, {"time": 3241, "pitch": 79, "duration": 25, "velocity": 80}, {"time": 3268, "pitch": 79, "duration": 5, "velocity": 84}, {"time": 3274, "pitch": 77, "duration": 6, "velocity": 82}, {"time": 3280, "pitch": 74, "duration": 29, "velocity": 86}, {"time": 3316, "pitch": 77, "duration": 5, "velocity": 73}, {"time": 3322, "pitch": 74, "duration": 5, "velocity": 83}, {"time": 3328, "pitch": 72, "duration": 16, "velocity": 83}, {"time": 3346, "pitch": 70, "duration": 6, "velocity": 86}, {"time": 3352, "pitch": 67, "duration": 10, "velocity": 78}, {"time": 3364, "pitch": 70, "duration": 5, "velocity": 79}, {"time": 3370, "pitch": 72, "duration": 4, "velocity": 78}, {"time": 3376, "pitch": 74, "duration": 29, "velocity": 85}, {"time": 3412, "pitch": 74, "duration": 4, "velocity": 88}, {"time": 3418, "pitch": 74, "duration": 5, "velocity": 89}, {"time": 3424, "pitch": 77, "duration": 6, "velocity": 83}, {"time": 3430, "pitch": 79, "duration": 25, "velocity": 81}, {"time": 3460, "pitch": 82, "duration": 7, "velocity": 84}, {"time": 3466, "pitch": 79, "duration": 6, "velocity": 86}, {"time": 3472, "pitch": 77, "duration": 31, "velocity": 82}, {"time": 3508, "pitch": 77, "duration": 5, "velocity": 79}, {"time": 3514, "pitch": 79, "duration": 5, "velocity": 80}, {"time": 3520, "pitch": 82, "duration": 7, "velocity": 78}, {"time": 3529, "pitch": 82, "duration": 2, "velocity": 81}, {"time": 3532, "pitch": 82, "duration": 5, "velocity": 82}, {"time": 3538, "pitch": 79, "duration": 6, "velocity": 82}, {"time": 3544, "pitch": 86, "duration": 12, "velocity": 82}, {"time": 3556, "pitch": 86, "duration": 9, "velocity": 83}, {"time": 3565, "pitch": 84, "duration": 4, "velocity": 83}, {"time": 3568, "pitch": 82, "duration": 6, "velocity": 78}, {"time": 3574, "pitch": 84, "duration": 26, "velocity": 82}, {"time": 3604, "pitch": 82, "duration": 4, "velocity": 83}, {"time": 3610, "pitch": 82, "duration": 5, "velocity": 82}, {"time": 3616, "pitch": 84, "duration": 8, "velocity": 84}, {"time": 3625, "pitch": 86, "duration": 24, "velocity": 82}, {"time": 3652, "pitch": 86, "duration": 8, "velocity": 84}, {"time": 3661, "pitch": 84, "duration": 3, "velocity": 77}, {"time": 3664, "pitch": 82, "duration": 6, "velocity": 84}, {"time": 3670, "pitch": 79, "duration": 25, "velocity": 78}, {"time": 3700, "pitch": 79, "duration": 6, "velocity": 83}, {"time": 3706, "pitch": 82, "duration": 6, "velocity": 83}, {"time": 3712, "pitch": 79, "duration": 6, "velocity": 83}, {"time": 3718, "pitch": 77, "duration": 11, "velocity": 76}, {"time": 3730, "pitch": 79, "duration": 6, "velocity": 82}, {"time": 3736, "pitch": 77, "duration": 5, "velocity": 78}, {"time": 3742, "pitch": 74, "duration": 5, "velocity": 84}, {"time": 3748, "pitch": 72, "duration": 6, "velocity": 83}, {"time": 3754, "pitch": 74, "duration": 6, "velocity": 84}, {"time": 3760, "pitch": 72, "duration": 6, "velocity": 77}, {"time": 3766, "pitch": 70, "duration": 35, "velocity": 80}]}, {"program": 0, "is_drum": false, "name": "PIANO", "notes": [{"time": 14, "pitch": 53, "duration": 3, "velocity": 69}, {"time": 15, "pitch": 58, "duration": 8, "velocity": 67}, {"time": 16, "pitch": 46, "duration": 29, "velocity": 77}, {"time": 16, "pitch": 62, "duration": 7, "velocity": 77}, {"time": 22, "pitch": 53, "duration": 7, "velocity": 66}, {"time": 28, "pitch": 58, "duration": 7, "velocity": 77}, {"time": 34, "pitch": 53, "duration": 3, "velocity": 68}, {"time": 40, "pitch": 58, "duration": 14, "velocity": 69}, {"time": 40, "pitch": 62, "duration": 15, "velocity": 77}, {"time": 40, "pitch": 53, "duration": 11, "velocity": 71}, {"time": 61, "pitch": 55, "duration": 4, "velocity": 63}, {"time": 62, "pitch": 58, "duration": 9, "velocity": 67}, {"time": 63, "pitch": 62, "duration": 9, "velocity": 74}, {"time": 64, "pitch": 43, "duration": 42, "velocity": 79}, {"time": 64, "pitch": 67, "duration": 8, "velocity": 76}, {"time": 70, "pitch": 50, "duration": 33, "velocity": 72}, {"time": 76, "pitch": 58, "duration": 7, "velocity": 76}, {"time": 83, "pitch": 55, "duration": 4, "velocity": 82}, {"time": 88, "pitch": 62, "duration": 11, "velocity": 78}, {"time": 100, "pitch": 58, "duration": 4, "velocity": 72}, {"time": 111, "pitch": 55, "duration": 2, "velocity": 69}, {"time": 112, "pitch": 60, "duration": 6, "velocity": 77}, {"time": 112, "pitch": 48, "duration": 16, "velocity": 83}, {"time": 113, "pitch": 63, "duration": 11, "velocity": 70}, {"time": 118, "pitch": 55, "duration": 9, "velocity": 72}, {"time": 124, "pitch": 60, "duration": 2, "velocity": 77}, {"time": 130, "pitch": 58, "duration": 2, "velocity": 78}, {"time": 136, "pitch": 53, "duration": 13, "velocity": 72}, {"time": 136, "pitch": 57, "duration": 13, "velocity": 74}, {"time": 136, "pitch": 41, "duration": 16, "velocity": 83}, {"time": 142, "pitch": 48, "duration": 10, "velocity": 80}, {"time": 148, "pitch": 60, "duration": 6, "velocity": 83}, {"time": 153, "pitch": 65, "duration": 3, "velocity": 77}, {"time": 160, "pitch": 53, "duration": 7, "velocity": 69}, {"time": 160, "pitch": 46, "duration": 12, "velocity": 91}, {"time": 160, "pitch": 58, "duration": 10, "velocity": 75}, {"time": 166, "pitch": 50, "duration": 6, "velocity": 70}, {"time": 172, "pitch": 58, "duration": 2, "velocity": 76}, {"time": 172, "pitch": 53, "duration": 2, "velocity": 74}, {"time": 172, "pitch": 62, "duration": 3, "velocity": 82}, {"time": 182, "pitch": 57, "duration": 2, "velocity": 54}, {"time": 183, "pitch": 62, "duration": 5, "velocity": 76}, {"time": 183, "pitch": 50, "duration": 9, "velocity": 84}, {"time": 184, "pitch": 65, "duration": 7, "velocity": 78}, {"time": 189, "pitch": 57, "duration": 8, "velocity": 76}, {"time": 195, "pitch": 62, "duration": 2, "velocity": 82}, {"time": 205, "pitch": 55, "duration": 3, "velocity": 68}, {"time": 206, "pitch": 60, "duration": 7, "velocity": 77}, {"time": 207, "pitch": 48, "duration": 14, "velocity": 82}, {"time": 207, "pitch": 63, "duration": 12, "velocity": 76}, {"time": 213, "pitch": 55, "duration": 8, "velocity": 76}, {"time": 218, "pitch": 60, "duration": 3, "velocity": 77}, {"time": 229, "pitch": 55, "duration": 3, "velocity": 67}, {"time": 230, "pitch": 58, "duration": 3, "velocity": 77}, {"time": 231, "pitch": 62, "duration": 6, "velocity": 77}, {"time": 232, "pitch": 43, "duration": 19, "velocity": 82}, {"time": 237, "pitch": 50, "duration": 13, "velocity": 82}, {"time": 244, "pitch": 67, "duration": 7, "velocity": 81}, {"time": 250, "pitch": 55, "duration": 3, "velocity": 81}, {"time": 254, "pitch": 55, "duration": 3, "velocity": 57}, {"time": 256, "pitch": 60, "duration": 3, "velocity": 77}, {"time": 256, "pitch": 48, "duration": 14, "velocity": 80}, {"time": 257, "pitch": 63, "duration": 12, "velocity": 75}, {"time": 262, "pitch": 55, "duration": 6, "velocity": 70}, {"time": 267, "pitch": 60, "duration": 2, "velocity": 72}, {"time": 277, "pitch": 55, "duration": 3, "velocity": 65}, {"time": 278, "pitch": 58, "duration": 3, "velocity": 75}, {"time": 280, "pitch": 62, "duration": 19, "velocity": 80}, {"time": 280, "pitch": 43, "duration": 14, "velocity": 83}, {"time": 286, "pitch": 50, "duration": 8, "velocity": 82}, {"time": 292, "pitch": 55, "duration": 7, "velocity": 86}, {"time": 298, "pitch": 58, "duration": 2, "velocity": 79}, {"time": 304, "pitch": 60, "duration": 19, "velocity": 77}, {"time": 304, "pitch": 57, "duration": 12, "velocity": 70}, {"time": 304, "pitch": 41, "duration": 21, "velocity": 82}, {"time": 310, "pitch": 48, "duration": 14, "velocity": 80}, {"time": 316, "pitch": 65, "duration": 7, "velocity": 81}, {"time": 322, "pitch": 57, "duration": 3, "velocity": 81}, {"time": 328, "pitch": 60, "duration": 9, "velocity": 78}, {"time": 328, "pitch": 41, "duration": 13, "velocity": 83}, {"time": 328, "pitch": 57, "duration": 9, "velocity": 76}, {"time": 334, "pitch": 48, "duration": 7, "velocity": 80}, {"time": 340, "pitch": 60, "duration": 3, "velocity": 77}, {"time": 340, "pitch": 65, "duration": 4, "velocity": 77}, {"time": 340, "pitch": 57, "duration": 2, "velocity": 72}, {"time": 351, "pitch": 53, "duration": 2, "velocity": 66}, {"time": 352, "pitch": 58, "duration": 6, "velocity": 70}, {"time": 353, "pitch": 46, "duration": 30, "velocity": 96}, {"time": 353, "pitch": 62, "duration": 11, "velocity": 75}, {"time": 358, "pitch": 53, "duration": 12, "velocity": 77}, {"time": 364, "pitch": 58, "duration": 7, "velocity": 83}, {"time": 370, "pitch": 62, "duration": 12, "velocity": 83}, {"time": 376, "pitch": 53, "duration": 8, "velocity": 75}, {"time": 382, "pitch": 58, "duration": 3, "velocity": 67}, {"time": 388, "pitch": 58, "duration": 5, "velocity": 81}, {"time": 388, "pitch": 62, "duration": 8, "velocity": 79}, {"time": 388, "pitch": 46, "duration": 2, "velocity": 86}, {"time": 388, "pitch": 53, "duration": 1, "velocity": 68}, {"time": 394, "pitch": 53, "duration": 2, "velocity": 82}, {"time": 398, "pitch": 55, "duration": 2, "velocity": 70}, {"time": 399, "pitch": 60, "duration": 6, "velocity": 82}, {"time": 399, "pitch": 48, "duration": 16, "velocity": 79}, {"time": 400, "pitch": 63, "duration": 12, "velocity": 76}, {"time": 405, "pitch": 55, "duration": 8, "velocity": 76}, {"time": 411, "pitch": 60, "duration": 7, "velocity": 79}, {"time": 417, "pitch": 63, "duration": 3, "velocity": 82}, {"time": 423, "pitch": 53, "duration": 10, "velocity": 74}, {"time": 423, "pitch": 57, "duration": 8, "velocity": 71}, {"time": 424, "pitch": 41, "duration": 20, "velocity": 83}, {"time": 430, "pitch": 48, "duration": 14, "velocity": 83}, {"time": 436, "pitch": 57, "duration": 7, "velocity": 80}, {"time": 436, "pitch": 53, "duration": 2, "velocity": 74}, {"time": 436, "pitch": 60, "duration": 8, "velocity": 80}, {"time": 436, "pitch": 65, "duration": 7, "velocity": 77}, {"time": 447, "pitch": 55, "duration": 5, "velocity": 72}, {"time": 448, "pitch": 48, "duration": 15, "velocity": 83}, {"time": 448, "pitch": 60, "duration": 7, "velocity": 81}, {"time": 449, "pitch": 63, "duration": 8, "velocity": 73}, {"time": 454, "pitch": 55, "duration": 12, "velocity": 79}, {"time": 460, "pitch": 60, "duration": 6, "velocity": 82}, {"time": 465, "pitch": 63, "duration": 3, "velocity": 83}, {"time": 472, "pitch": 39, "duration": 11, "velocity": 82}, {"time": 472, "pitch": 55, "duration": 4, "velocity": 81}, {"time": 472, "pitch": 58, "duration": 9, "velocity": 80}, {"time": 478, "pitch": 55, "duration": 4, "velocity": 80}, {"time": 484, "pitch": 58, "duration": 6, "velocity": 83}, {"time": 484, "pitch": 41, "duration": 12, "velocity": 84}, {"time": 484, "pitch": 55, "duration": 3, "velocity": 74}, {"time": 484, "pitch": 63, "duration": 6, "velocity": 78}, {"time": 496, "pitch": 53, "duration": 2, "velocity": 66}, {"time": 496, "pitch": 58, "duration": 8, "velocity": 73}, {"time": 497, "pitch": 46, "duration": 46, "velocity": 77}, {"time": 497, "pitch": 62, "duration": 9, "velocity": 78}, {"time": 502, "pitch": 53, "duration": 7, "velocity": 69}, {"time": 508, "pitch": 58, "duration": 8, "velocity": 83}, {"time": 513, "pitch": 53, "duration": 5, "velocity": 69}, {"time": 520, "pitch": 58, "duration": 6, "velocity": 70}, {"time": 520, "pitch": 62, "duration": 5, "velocity": 77}, {"time": 531, "pitch": 58, "duration": 12, "velocity": 80}, {"time": 537, "pitch": 53, "duration": 5, "velocity": 73}, {"time": 544, "pitch": 46, "duration": 39, "velocity": 80}, {"time": 544, "pitch": 58, "duration": 13, "velocity": 78}, {"time": 550, "pitch": 53, "duration": 8, "velocity": 69}, {"time": 556, "pitch": 62, "duration": 6, "velocity": 82}, {"time": 562, "pitch": 58, "duration": 4, "velocity": 76}, {"time": 568, "pitch": 53, "duration": 3, "velocity": 74}, {"time": 568, "pitch": 58, "duration": 7, "velocity": 71}, {"time": 568, "pitch": 65, "duration": 10, "velocity": 76}, {"time": 574, "pitch": 53, "duration": 4, "velocity": 66}, {"time": 580, "pitch": 62, "duration": 4, "velocity": 78}, {"time": 592, "pitch": 43, "duration": 41, "velocity": 78}, {"time": 592, "pitch": 55, "duration": 11, "velocity": 75}, {"time": 592, "pitch": 58, "duration": 9, "velocity": 68}, {"time": 598, "pitch": 50, "duration": 21, "velocity": 66}, {"time": 604, "pitch": 62, "duration": 7, "velocity": 81}, {"time": 610, "pitch": 58, "duration": 2, "velocity": 84}, {"time": 616, "pitch": 55, "duration": 3, "velocity": 83}, {"time": 616, "pitch": 67, "duration": 4, "velocity": 81}, {"time": 622, "pitch": 50, "duration": 8, "velocity": 61}, {"time": 628, "pitch": 58, "duration": 3, "velocity": 76}, {"time": 628, "pitch": 62, "duration": 4, "velocity": 81}, {"time": 640, "pitch": 48, "duration": 32, "velocity": 83}, {"time": 640, "pitch": 55, "duration": 4, "velocity": 74}, {"time": 640, "pitch": 60, "duration": 8, "velocity": 77}, {"time": 646, "pitch": 55, "duration": 5, "velocity": 69}, {"time": 652, "pitch": 63, "duration": 5, "velocity": 87}, {"time": 658, "pitch": 55, "duration": 7, "velocity": 86}, {"time": 664, "pitch": 67, "duration": 5, "velocity": 81}, {"time": 670, "pitch": 55, "duration": 5, "velocity": 83}, {"time": 676, "pitch": 48, "duration": 4, "velocity": 85}, {"time": 676, "pitch": 60, "duration": 6, "velocity": 83}, {"time": 676, "pitch": 63, "duration": 6, "velocity": 81}, {"time": 682, "pitch": 55, "duration": 2, "velocity": 83}, {"time": 688, "pitch": 41, "duration": 39, "velocity": 83}, {"time": 688, "pitch": 53, "duration": 12, "velocity": 74}, {"time": 688, "pitch": 57, "duration": 12, "velocity": 76}, {"time": 694, "pitch": 48, "duration": 33, "velocity": 69}, {"time": 700, "pitch": 60, "duration": 7, "velocity": 82}, {"time": 706, "pitch": 53, "duration": 5, "velocity": 83}, {"time": 712, "pitch": 57, "duration": 6, "velocity": 70}, {"time": 712, "pitch": 60, "duration": 7, "velocity": 81}, {"time": 712, "pitch": 65, "duration": 7, "velocity": 82}, {"time": 718, "pitch": 53, "duration": 7, "velocity": 71}, {"time": 724, "pitch": 57, "duration": 4, "velocity": 72}, {"time": 724, "pitch": 60, "duration": 6, "velocity": 76}, {"time": 730, "pitch": 41, "duration": 4, "velocity": 82}, {"time": 736, "pitch": 46, "duration": 18, "velocity": 84}, {"time": 736, "pitch": 58, "duration": 7, "velocity": 82}, {"time": 742, "pitch": 53, "duration": 7, "velocity": 75}, {"time": 748, "pitch": 58, "duration": 6, "velocity": 76}, {"time": 748, "pitch": 62, "duration": 7, "velocity": 82}, {"time": 760, "pitch": 50, "duration": 14, "velocity": 81}, {"time": 760, "pitch": 57, "duration": 3, "velocity": 75}, {"time": 760, "pitch": 62, "duration": 8, "velocity": 82}, {"time": 766, "pitch": 57, "duration": 7, "velocity": 82}, {"time": 772, "pitch": 62, "duration": 6, "velocity": 82}, {"time": 772, "pitch": 65, "duration": 6, "velocity": 83}, {"time": 784, "pitch": 43, "duration": 21, "velocity": 83}, {"time": 784, "pitch": 55, "duration": 10, "velocity": 74}, {"time": 784, "pitch": 58, "duration": 8, "velocity": 74}, {"time": 790, "pitch": 50, "duration": 15, "velocity": 78}, {"time": 796, "pitch": 58, "duration": 7, "velocity": 72}, {"time": 796, "pitch": 62, "duration": 21, "velocity": 82}, {"time": 802, "pitch": 55, "duration": 2, "velocity": 72}, {"time": 808, "pitch": 43, "duration": 20, "velocity": 83}, {"time": 814, "pitch": 50, "duration": 12, "velocity": 72}, {"time": 820, "pitch": 58, "duration": 5, "velocity": 79}, {"time": 820, "pitch": 62, "duration": 10, "velocity": 82}, {"time": 826, "pitch": 55, "duration": 7, "velocity": 83}, {"time": 832, "pitch": 48, "duration": 22, "velocity": 84}, {"time": 832, "pitch": 60, "duration": 8, "velocity": 80}, {"time": 838, "pitch": 55, "duration": 7, "velocity": 75}, {"time": 844, "pitch": 63, "duration": 5, "velocity": 89}, {"time": 850, "pitch": 55, "duration": 8, "velocity": 79}, {"time": 856, "pitch": 48, "duration": 15, "velocity": 83}, {"time": 856, "pitch": 67, "duration": 7, "velocity": 82}, {"time": 862, "pitch": 55, "duration": 7, "velocity": 81}, {"time": 868, "pitch": 60, "duration": 6, "velocity": 78}, {"time": 868, "pitch": 63, "duration": 6, "velocity": 80}, {"time": 874, "pitch": 55, "duration": 3, "velocity": 84}, {"time": 880, "pitch": 41, "duration": 22, "velocity": 83}, {"time": 880, "pitch": 53, "duration": 7, "velocity": 75}, {"time": 880, "pitch": 57, "duration": 9, "velocity": 73}, {"time": 886, "pitch": 48, "duration": 15, "velocity": 79}, {"time": 892, "pitch": 53, "duration": 8, "velocity": 83}, {"time": 898, "pitch": 60, "duration": 8, "velocity": 83}, {"time": 904, "pitch": 41, "duration": 23, "velocity": 84}, {"time": 904, "pitch": 65, "duration": 11, "velocity": 83}, {"time": 910, "pitch": 48, "duration": 17, "velocity": 76}, {"time": 916, "pitch": 53, "duration": 2, "velocity": 77}, {"time": 916, "pitch": 57, "duration": 11, "velocity": 78}, {"time": 916, "pitch": 60, "duration": 12, "velocity": 84}, {"time": 922, "pitch": 53, "duration": 5, "velocity": 83}, {"time": 928, "pitch": 46, "duration": 39, "velocity": 80}, {"time": 928, "pitch": 58, "duration": 13, "velocity": 78}, {"time": 934, "pitch": 53, "duration": 8, "velocity": 69}, {"time": 940, "pitch": 62, "duration": 6, "velocity": 82}, {"time": 946, "pitch": 58, "duration": 4, "velocity": 76}, {"time": 952, "pitch": 53, "duration": 3, "velocity": 74}, {"time": 952, "pitch": 58, "duration": 7, "velocity": 71}, {"time": 952, "pitch": 65, "duration": 10, "velocity": 76}, {"time": 958, "pitch": 53, "duration": 4, "velocity": 66}, {"time": 964, "pitch": 62, "duration": 4, "velocity": 78}, {"time": 976, "pitch": 43, "duration": 41, "velocity": 78}, {"time": 976, "pitch": 55, "duration": 11, "velocity": 75}, {"time": 976, "pitch": 58, "duration": 9, "velocity": 68}, {"time": 982, "pitch": 50, "duration": 21, "velocity": 66}, {"time": 988, "pitch": 62, "duration": 7, "velocity": 81}, {"time": 994, "pitch": 58, "duration": 2, "velocity": 84}, {"time": 1000, "pitch": 55, "duration": 3, "velocity": 83}, {"time": 1000, "pitch": 67, "duration": 4, "velocity": 81}, {"time": 1006, "pitch": 50, "duration": 8, "velocity": 61}, {"time": 1012, "pitch": 58, "duration": 3, "velocity": 76}, {"time": 1012, "pitch": 62, "duration": 4, "velocity": 81}, {"time": 1024, "pitch": 48, "duration": 32, "velocity": 83}, {"time": 1024, "pitch": 55, "duration": 4, "velocity": 74}, {"time": 1024, "pitch": 60, "duration": 8, "velocity": 77}, {"time": 1030, "pitch": 55, "duration": 5, "velocity": 69}, {"time": 1036, "pitch": 63, "duration": 5, "velocity": 87}, {"time": 1042, "pitch": 55, "duration": 7, "velocity": 86}, {"time": 1048, "pitch": 67, "duration": 5, "velocity": 81}, {"time": 1054, "pitch": 55, "duration": 5, "velocity": 83}, {"time": 1060, "pitch": 48, "duration": 4, "velocity": 85}, {"time": 1060, "pitch": 60, "duration": 6, "velocity": 83}, {"time": 1060, "pitch": 63, "duration": 6, "velocity": 81}, {"time": 1066, "pitch": 55, "duration": 2, "velocity": 83}, {"time": 1072, "pitch": 41, "duration": 39, "velocity": 83}, {"time": 1072, "pitch": 53, "duration": 12, "velocity": 74}, {"time": 1072, "pitch": 57, "duration": 12, "velocity": 76}, {"time": 1078, "pitch": 48, "duration": 33, "velocity": 69}, {"time": 1084, "pitch": 60, "duration": 7, "velocity": 82}, {"time": 1090, "pitch": 53, "duration": 5, "velocity": 83}, {"time": 1096, "pitch": 57, "duration": 6, "velocity": 70}, {"time": 1096, "pitch": 60, "duration": 7, "velocity": 81}, {"time": 1096, "pitch": 65, "duration": 7, "velocity": 82}, {"time": 1102, "pitch": 53, "duration": 7, "velocity": 71}, {"time": 1108, "pitch": 57, "duration": 4, "velocity": 72}, {"time": 1108, "pitch": 60, "duration": 6, "velocity": 76}, {"time": 1114, "pitch": 41, "duration": 4, "velocity": 82}, {"time": 1120, "pitch": 46, "duration": 18, "velocity": 84}, {"time": 1120, "pitch": 58, "duration": 7, "velocity": 82}, {"time": 1126, "pitch": 53, "duration": 7, "velocity": 75}, {"time": 1132, "pitch": 58, "duration": 6, "velocity": 76}, {"time": 1132, "pitch": 62, "duration": 7, "velocity": 82}, {"time": 1144, "pitch": 50, "duration": 14, "velocity": 81}, {"time": 1144, "pitch": 57, "duration": 3, "velocity": 75}, {"time": 1144, "pitch": 62, "duration": 8, "velocity": 82}, {"time": 1150, "pitch": 57, "duration": 7, "velocity": 82}, {"time": 1156, "pitch": 62, "duration": 6, "velocity": 82}, {"time": 1156, "pitch": 65, "duration": 6, "velocity": 83}, {"time": 1168, "pitch": 43, "duration": 21, "velocity": 83}, {"time": 1168, "pitch": 55, "duration": 10, "velocity": 74}, {"time": 1168, "pitch": 58, "duration": 8, "velocity": 74}, {"time": 1174, "pitch": 50, "duration": 15, "velocity": 78}, {"time": 1180, "pitch": 58, "duration": 7, "velocity": 72}, {"time": 1180, "pitch": 62, "duration": 21, "velocity": 82}, {"time": 1186, "pitch": 55, "duration": 2, "velocity": 72}, {"time": 1192, "pitch": 43, "duration": 20, "velocity": 83}, {"time": 1198, "pitch": 50, "duration": 12, "velocity": 72}, {"time": 1204, "pitch": 58, "duration": 5, "velocity": 79}, {"time": 1204, "pitch": 62, "duration": 10, "velocity": 82}, {"time": 1210, "pitch": 55, "duration": 7, "velocity": 83}, {"time": 1216, "pitch": 36, "duration": 11, "velocity": 76}, {"time": 1216, "pitch": 60, "duration": 7, "velocity": 78}, {"time": 1216, "pitch": 63, "duration": 7, "velocity": 81}, {"time": 1222, "pitch": 55, "duration": 7, "velocity": 81}, {"time": 1228, "pitch": 60, "duration": 5, "velocity": 89}, {"time": 1234, "pitch": 55, "duration": 2, "velocity": 84}, {"time": 1240, "pitch": 41, "duration": 18, "velocity": 83}, {"time": 1240, "pitch": 53, "duration": 12, "velocity": 79}, {"time": 1240, "pitch": 57, "duration": 12, "velocity": 77}, {"time": 1246, "pitch": 48, "duration": 11, "velocity": 77}, {"time": 1252, "pitch": 60, "duration": 7, "velocity": 85}, {"time": 1258, "pitch": 53, "duration": 7, "velocity": 86}, {"time": 1264, "pitch": 46, "duration": 22, "velocity": 84}, {"time": 1264, "pitch": 58, "duration": 7, "velocity": 85}, {"time": 1270, "pitch": 53, "duration": 6, "velocity": 83}, {"time": 1276, "pitch": 58, "duration": 7, "velocity": 79}, {"time": 1276, "pitch": 65, "duration": 7, "velocity": 82}, {"time": 1282, "pitch": 53, "duration": 4, "velocity": 89}, {"time": 1288, "pitch": 46, "duration": 14, "velocity": 93}, {"time": 1288, "pitch": 53, "duration": 3, "velocity": 83}, {"time": 1288, "pitch": 58, "duration": 7, "velocity": 76}, {"time": 1288, "pitch": 62, "duration": 8, "velocity": 79}, {"time": 1294, "pitch": 53, "duration": 5, "velocity": 83}, {"time": 1300, "pitch": 53, "duration": 2, "velocity": 82}, {"time": 1300, "pitch": 58, "duration": 6, "velocity": 87}, {"time": 1303, "pitch": 46, "duration": 3, "velocity": 83}, {"time": 1306, "pitch": 53, "duration": 4, "velocity": 93}, {"time": 1309, "pitch": 58, "duration": 3, "velocity": 88}, {"time": 1312, "pitch": 43, "duration": 7, "velocity": 83}, {"time": 1312, "pitch": 55, "duration": 4, "velocity": 76}, {"time": 1312, "pitch": 58, "duration": 4, "velocity": 68}, {"time": 1312, "pitch": 62, "duration": 4, "velocity": 80}, {"time": 1318, "pitch": 55, "duration": 2, "velocity": 78}, {"time": 1318, "pitch": 58, "duration": 8, "velocity": 82}, {"time": 1318, "pitch": 62, "duration": 8, "velocity": 85}, {"time": 1318, "pitch": 67, "duration": 7, "velocity": 81}, {"time": 1324, "pitch": 50, "duration": 9, "velocity": 82}, {"time": 1330, "pitch": 55, "duration": 1, "velocity": 80}, {"time": 1330, "pitch": 58, "duration": 7, "velocity": 83}, {"time": 1330, "pitch": 62, "duration": 8, "velocity": 84}, {"time": 1333, "pitch": 55, "duration": 5, "velocity": 87}, {"time": 1336, "pitch": 43, "duration": 8, "velocity": 83}, {"time": 1342, "pitch": 55, "duration": 6, "velocity": 84}, {"time": 1342, "pitch": 58, "duration": 6, "velocity": 87}, {"time": 1342, "pitch": 62, "duration": 7, "velocity": 84}, {"time": 1348, "pitch": 50, "duration": 7, "velocity": 82}, {"time": 1354, "pitch": 58, "duration": 5, "velocity": 85}, {"time": 1354, "pitch": 62, "duration": 7, "velocity": 84}, {"time": 1357, "pitch": 53, "duration": 3, "velocity": 85}, {"time": 1360, "pitch": 46, "duration": 10, "velocity": 98}, {"time": 1366, "pitch": 58, "duration": 8, "velocity": 87}, {"time": 1366, "pitch": 62, "duration": 7, "velocity": 87}, {"time": 1372, "pitch": 41, "duration": 7, "velocity": 84}, {"time": 1378, "pitch": 53, "duration": 1, "velocity": 79}, {"time": 1378, "pitch": 58, "duration": 5, "velocity": 91}, {"time": 1378, "pitch": 62, "duration": 5, "velocity": 83}, {"time": 1381, "pitch": 53, "duration": 3, "velocity": 91}, {"time": 1384, "pitch": 46, "duration": 10, "velocity": 79}, {"time": 1390, "pitch": 53, "duration": 2, "velocity": 83}, {"time": 1390, "pitch": 58, "duration": 4, "velocity": 89}, {"time": 1390, "pitch": 62, "duration": 7, "velocity": 85}, {"time": 1393, "pitch": 53, "duration": 3, "velocity": 86}, {"time": 1396, "pitch": 41, "duration": 7, "velocity": 84}, {"time": 1402, "pitch": 53, "duration": 2, "velocity": 86}, {"time": 1402, "pitch": 58, "duration": 2, "velocity": 96}, {"time": 1402, "pitch": 62, "duration": 4, "velocity": 83}, {"time": 1408, "pitch": 48, "duration": 11, "velocity": 84}, {"time": 1414, "pitch": 55, "duration": 2, "velocity": 83}, {"time": 1414, "pitch": 60, "duration": 8, "velocity": 87}, {"time": 1414, "pitch": 63, "duration": 8, "velocity": 85}, {"time": 1417, "pitch": 55, "duration": 5, "velocity": 85}, {"time": 1420, "pitch": 43, "duration": 6, "velocity": 82}, {"time": 1426, "pitch": 55, "duration": 8, "velocity": 84}, {"time": 1426, "pitch": 60, "duration": 2, "velocity": 83}, {"time": 1426, "pitch": 63, "duration": 6, "velocity": 82}, {"time": 1432, "pitch": 39, "duration": 7, "velocity": 81}, {"time": 1438, "pitch": 55, "duration": 1, "velocity": 71}, {"time": 1438, "pitch": 58, "duration": 4, "velocity": 83}, {"time": 1438, "pitch": 63, "duration": 6, "velocity": 82}, {"time": 1441, "pitch": 55, "duration": 4, "velocity": 89}, {"time": 1444, "pitch": 46, "duration": 6, "velocity": 83}, {"time": 1450, "pitch": 55, "duration": 6, "velocity": 85}, {"time": 1450, "pitch": 58, "duration": 5, "velocity": 88}, {"time": 1450, "pitch": 63, "duration": 6, "velocity": 83}, {"time": 1456, "pitch": 46, "duration": 11, "velocity": 96}, {"time": 1462, "pitch": 53, "duration": 2, "velocity": 83}, {"time": 1462, "pitch": 58, "duration": 7, "velocity": 91}, {"time": 1462, "pitch": 62, "duration": 7, "velocity": 83}, {"time": 1465, "pitch": 53, "duration": 5, "velocity": 86}, {"time": 1468, "pitch": 41, "duration": 9, "velocity": 84}, {"time": 1474, "pitch": 53, "duration": 3, "velocity": 83}, {"time": 1474, "pitch": 58, "duration": 4, "velocity": 86}, {"time": 1474, "pitch": 62, "duration": 4, "velocity": 83}, {"time": 1480, "pitch": 46, "duration": 10, "velocity": 89}, {"time": 1480, "pitch": 53, "duration": 5, "velocity": 76}, {"time": 1480, "pitch": 58, "duration": 5, "velocity": 73}, {"time": 1486, "pitch": 53, "duration": 1, "velocity": 78}, {"time": 1486, "pitch": 58, "duration": 2, "velocity": 83}, {"time": 1486, "pitch": 62, "duration": 2, "velocity": 82}, {"time": 1489, "pitch": 53, "duration": 5, "velocity": 84}, {"time": 1489, "pitch": 58, "duration": 5, "velocity": 75}, {"time": 1489, "pitch": 62, "duration": 5, "velocity": 81}, {"time": 1492, "pitch": 41, "duration": 7, "velocity": 86}, {"time": 1498, "pitch": 53, "duration": 1, "velocity": 83}, {"time": 1498, "pitch": 58, "duration": 2, "velocity": 88}, {"time": 1498, "pitch": 62, "duration": 2, "velocity": 85}, {"time": 1504, "pitch": 43, "duration": 9, "velocity": 83}, {"time": 1504, "pitch": 55, "duration": 4, "velocity": 76}, {"time": 1504, "pitch": 58, "duration": 4, "velocity": 74}, {"time": 1504, "pitch": 62, "duration": 3, "velocity": 81}, {"time": 1510, "pitch": 55, "duration": 2, "velocity": 82}, {"time": 1510, "pitch": 58, "duration": 2, "velocity": 82}, {"time": 1510, "pitch": 62, "duration": 2, "velocity": 86}, {"time": 1510, "pitch": 67, "duration": 4, "velocity": 84}, {"time": 1513, "pitch": 55, "duration": 5, "velocity": 82}, {"time": 1513, "pitch": 58, "duration": 5, "velocity": 78}, {"time": 1513, "pitch": 62, "duration": 4, "velocity": 83}, {"time": 1516, "pitch": 50, "duration": 10, "velocity": 81}, {"time": 1522, "pitch": 55, "duration": 6, "velocity": 79}, {"time": 1522, "pitch": 58, "duration": 6, "velocity": 81}, {"time": 1522, "pitch": 62, "duration": 6, "velocity": 83}, {"time": 1528, "pitch": 43, "duration": 9, "velocity": 84}, {"time": 1534, "pitch": 55, "duration": 1, "velocity": 78}, {"time": 1534, "pitch": 58, "duration": 2, "velocity": 86}, {"time": 1534, "pitch": 62, "duration": 8, "velocity": 83}, {"time": 1537, "pitch": 55, "duration": 5, "velocity": 82}, {"time": 1537, "pitch": 58, "duration": 4, "velocity": 73}, {"time": 1540, "pitch": 50, "duration": 8, "velocity": 82}, {"time": 1546, "pitch": 55, "duration": 3, "velocity": 83}, {"time": 1546, "pitch": 58, "duration": 4, "velocity": 93}, {"time": 1546, "pitch": 62, "duration": 5, "velocity": 84}, {"time": 1552, "pitch": 46, "duration": 8, "velocity": 89}, {"time": 1558, "pitch": 53, "duration": 1, "velocity": 82}, {"time": 1558, "pitch": 58, "duration": 2, "velocity": 89}, {"time": 1558, "pitch": 62, "duration": 2, "velocity": 83}, {"time": 1561, "pitch": 53, "duration": 5, "velocity": 81}, {"time": 1561, "pitch": 58, "duration": 1, "velocity": 62}, {"time": 1561, "pitch": 62, "duration": 3, "velocity": 70}, {"time": 1564, "pitch": 41, "duration": 9, "velocity": 82}, {"time": 1570, "pitch": 53, "duration": 2, "velocity": 82}, {"time": 1570, "pitch": 58, "duration": 2, "velocity": 86}, {"time": 1570, "pitch": 62, "duration": 2, "velocity": 84}, {"time": 1576, "pitch": 46, "duration": 12, "velocity": 89}, {"time": 1582, "pitch": 53, "duration": 2, "velocity": 81}, {"time": 1582, "pitch": 58, "duration": 2, "velocity": 84}, {"time": 1582, "pitch": 62, "duration": 2, "velocity": 83}, {"time": 1585, "pitch": 53, "duration": 2, "velocity": 83}, {"time": 1585, "pitch": 58, "duration": 3, "velocity": 78}, {"time": 1585, "pitch": 62, "duration": 5, "velocity": 82}, {"time": 1588, "pitch": 41, "duration": 8, "velocity": 83}, {"time": 1594, "pitch": 55, "duration": 6, "velocity": 79}, {"time": 1594, "pitch": 58, "duration": 6, "velocity": 76}, {"time": 1600, "pitch": 39, "duration": 9, "velocity": 87}, {"time": 1606, "pitch": 55, "duration": 2, "velocity": 83}, {"time": 1606, "pitch": 58, "duration": 5, "velocity": 91}, {"time": 1606, "pitch": 63, "duration": 5, "velocity": 86}, {"time": 1609, "pitch": 55, "duration": 5, "velocity": 83}, {"time": 1612, "pitch": 46, "duration": 6, "velocity": 76}, {"time": 1618, "pitch": 55, "duration": 4, "velocity": 83}, {"time": 1618, "pitch": 58, "duration": 4, "velocity": 85}, {"time": 1618, "pitch": 63, "duration": 4, "velocity": 83}, {"time": 1624, "pitch": 43, "duration": 10, "velocity": 82}, {"time": 1630, "pitch": 55, "duration": 1, "velocity": 77}, {"time": 1630, "pitch": 58, "duration": 2, "velocity": 89}, {"time": 1630, "pitch": 62, "duration": 7, "velocity": 82}, {"time": 1633, "pitch": 55, "duration": 5, "velocity": 82}, {"time": 1633, "pitch": 58, "duration": 4, "velocity": 76}, {"time": 1636, "pitch": 50, "duration": 8, "velocity": 83}, {"time": 1642, "pitch": 55, "duration": 3, "velocity": 84}, {"time": 1642, "pitch": 58, "duration": 3, "velocity": 91}, {"time": 1648, "pitch": 41, "duration": 9, "velocity": 83}, {"time": 1648, "pitch": 53, "duration": 4, "velocity": 83}, {"time": 1648, "pitch": 57, "duration": 4, "velocity": 83}, {"time": 1654, "pitch": 53, "duration": 1, "velocity": 72}, {"time": 1654, "pitch": 57, "duration": 2, "velocity": 79}, {"time": 1654, "pitch": 60, "duration": 8, "velocity": 83}, {"time": 1657, "pitch": 53, "duration": 6, "velocity": 87}, {"time": 1657, "pitch": 57, "duration": 2, "velocity": 73}, {"time": 1660, "pitch": 48, "duration": 11, "velocity": 82}, {"time": 1666, "pitch": 53, "duration": 1, "velocity": 58}, {"time": 1666, "pitch": 57, "duration": 4, "velocity": 84}, {"time": 1666, "pitch": 60, "duration": 4, "velocity": 83}, {"time": 1666, "pitch": 65, "duration": 4, "velocity": 78}, {"time": 1672, "pitch": 41, "duration": 10, "velocity": 83}, {"time": 1672, "pitch": 53, "duration": 4, "velocity": 81}, {"time": 1672, "pitch": 57, "duration": 4, "velocity": 82}, {"time": 1672, "pitch": 60, "duration": 4, "velocity": 82}, {"time": 1678, "pitch": 57, "duration": 2, "velocity": 72}, {"time": 1678, "pitch": 60, "duration": 6, "velocity": 75}, {"time": 1678, "pitch": 65, "duration": 2, "velocity": 68}, {"time": 1681, "pitch": 53, "duration": 4, "velocity": 81}, {"time": 1681, "pitch": 57, "duration": 3, "velocity": 65}, {"time": 1684, "pitch": 48, "duration": 8, "velocity": 87}, {"time": 1690, "pitch": 53, "duration": 3, "velocity": 83}, {"time": 1690, "pitch": 57, "duration": 2, "velocity": 83}, {"time": 1690, "pitch": 60, "duration": 4, "velocity": 83}, {"time": 1696, "pitch": 46, "duration": 8, "velocity": 93}, {"time": 1702, "pitch": 53, "duration": 1, "velocity": 73}, {"time": 1702, "pitch": 58, "duration": 5, "velocity": 79}, {"time": 1702, "pitch": 62, "duration": 7, "velocity": 81}, {"time": 1705, "pitch": 53, "duration": 5, "velocity": 82}, {"time": 1708, "pitch": 41, "duration": 9, "velocity": 83}, {"time": 1714, "pitch": 53, "duration": 3, "velocity": 82}, {"time": 1714, "pitch": 58, "duration": 3, "velocity": 82}, {"time": 1714, "pitch": 62, "duration": 3, "velocity": 80}, {"time": 1720, "pitch": 46, "duration": 10, "velocity": 86}, {"time": 1726, "pitch": 53, "duration": 2, "velocity": 82}, {"time": 1726, "pitch": 58, "duration": 4, "velocity": 89}, {"time": 1726, "pitch": 62, "duration": 7, "velocity": 83}, {"time": 1729, "pitch": 53, "duration": 5, "velocity": 87}, {"time": 1732, "pitch": 41, "duration": 8, "velocity": 83}, {"time": 1738, "pitch": 53, "duration": 4, "velocity": 87}, {"time": 1738, "pitch": 58, "duration": 5, "velocity": 91}, {"time": 1738, "pitch": 62, "duration": 6, "velocity": 83}, {"time": 1744, "pitch": 43, "duration": 9, "velocity": 83}, {"time": 1750, "pitch": 55, "duration": 2, "velocity": 78}, {"time": 1750, "pitch": 58, "duration": 2, "velocity": 86}, {"time": 1750, "pitch": 62, "duration": 2, "velocity": 83}, {"time": 1753, "pitch": 55, "duration": 4, "velocity": 82}, {"time": 1753, "pitch": 58, "duration": 4, "velocity": 75}, {"time": 1753, "pitch": 62, "duration": 3, "velocity": 81}, {"time": 1756, "pitch": 50, "duration": 9, "velocity": 83}, {"time": 1762, "pitch": 55, "duration": 1, "velocity": 84}, {"time": 1762, "pitch": 58, "duration": 7, "velocity": 85}, {"time": 1762, "pitch": 62, "duration": 8, "velocity": 83}, {"time": 1765, "pitch": 55, "duration": 4, "velocity": 83}, {"time": 1768, "pitch": 43, "duration": 9, "velocity": 85}, {"time": 1774, "pitch": 55, "duration": 1, "velocity": 82}, {"time": 1774, "pitch": 58, "duration": 4, "velocity": 96}, {"time": 1774, "pitch": 62, "duration": 6, "velocity": 83}, {"time": 1777, "pitch": 55, "duration": 4, "velocity": 83}, {"time": 1780, "pitch": 50, "duration": 8, "velocity": 83}, {"time": 1786, "pitch": 55, "duration": 3, "velocity": 84}, {"time": 1786, "pitch": 58, "duration": 2, "velocity": 88}, {"time": 1786, "pitch": 62, "duration": 7, "velocity": 84}, {"time": 1792, "pitch": 41, "duration": 9, "velocity": 83}, {"time": 1798, "pitch": 53, "duration": 1, "velocity": 82}, {"time": 1798, "pitch": 57, "duration": 2, "velocity": 82}, {"time": 1798, "pitch": 60, "duration": 2, "velocity": 82}, {"time": 1801, "pitch": 53, "duration": 7, "velocity": 88}, {"time": 1801, "pitch": 60, "duration": 1, "velocity": 63}, {"time": 1804, "pitch": 48, "duration": 9, "velocity": 83}, {"time": 1810, "pitch": 57, "duration": 5, "velocity": 84}, {"time": 1810, "pitch": 60, "duration": 7, "velocity": 84}, {"time": 1810, "pitch": 65, "duration": 6, "velocity": 82}, {"time": 1813, "pitch": 53, "duration": 4, "velocity": 91}, {"time": 1816, "pitch": 41, "duration": 8, "velocity": 83}, {"time": 1822, "pitch": 57, "duration": 4, "velocity": 83}, {"time": 1822, "pitch": 60, "duration": 4, "velocity": 83}, {"time": 1825, "pitch": 53, "duration": 3, "velocity": 85}, {"time": 1828, "pitch": 48, "duration": 8, "velocity": 82}, {"time": 1834, "pitch": 57, "duration": 4, "velocity": 87}, {"time": 1834, "pitch": 60, "duration": 6, "velocity": 83}, {"time": 1837, "pitch": 53, "duration": 3, "velocity": 85}, {"time": 1840, "pitch": 46, "duration": 11, "velocity": 84}, {"time": 1846, "pitch": 58, "duration": 4, "velocity": 89}, {"time": 1846, "pitch": 62, "duration": 5, "velocity": 82}, {"time": 1849, "pitch": 53, "duration": 3, "velocity": 84}, {"time": 1852, "pitch": 41, "duration": 9, "velocity": 83}, {"time": 1858, "pitch": 58, "duration": 4, "velocity": 86}, {"time": 1858, "pitch": 62, "duration": 5, "velocity": 82}, {"time": 1861, "pitch": 53, "duration": 5, "velocity": 85}, {"time": 1864, "pitch": 46, "duration": 10, "velocity": 91}, {"time": 1870, "pitch": 58, "duration": 4, "velocity": 85}, {"time": 1870, "pitch": 62, "duration": 5, "velocity": 77}, {"time": 1873, "pitch": 53, "duration": 3, "velocity": 83}, {"time": 1876, "pitch": 41, "duration": 7, "velocity": 83}, {"time": 1888, "pitch": 46, "duration": 16, "velocity": 78}, {"time": 1888, "pitch": 58, "duration": 5, "velocity": 82}, {"time": 1888, "pitch": 62, "duration": 7, "velocity": 83}, {"time": 1894, "pitch": 53, "duration": 7, "velocity": 66}, {"time": 1900, "pitch": 58, "duration": 10, "velocity": 86}, {"time": 1906, "pitch": 53, "duration": 19, "velocity": 64}, {"time": 1912, "pitch": 58, "duration": 7, "velocity": 82}, {"time": 1912, "pitch": 65, "duration": 7, "velocity": 82}, {"time": 1918, "pitch": 46, "duration": 11, "velocity": 65}, {"time": 1924, "pitch": 58, "duration": 3, "velocity": 82}, {"time": 1924, "pitch": 62, "duration": 6, "velocity": 82}, {"time": 1936, "pitch": 46, "duration": 17, "velocity": 82}, {"time": 1936, "pitch": 58, "duration": 7, "velocity": 75}, {"time": 1936, "pitch": 62, "duration": 13, "velocity": 79}, {"time": 1942, "pitch": 53, "duration": 7, "velocity": 68}, {"time": 1948, "pitch": 58, "duration": 10, "velocity": 83}, {"time": 1954, "pitch": 53, "duration": 8, "velocity": 68}, {"time": 1960, "pitch": 58, "duration": 6, "velocity": 73}, {"time": 1960, "pitch": 65, "duration": 6, "velocity": 84}, {"time": 1966, "pitch": 46, "duration": 8, "velocity": 78}, {"time": 1972, "pitch": 58, "duration": 2, "velocity": 84}, {"time": 1972, "pitch": 62, "duration": 6, "velocity": 83}, {"time": 1984, "pitch": 43, "duration": 44, "velocity": 82}, {"time": 1984, "pitch": 55, "duration": 9, "velocity": 80}, {"time": 1984, "pitch": 62, "duration": 6, "velocity": 82}, {"time": 1990, "pitch": 50, "duration": 20, "velocity": 68}, {"time": 1996, "pitch": 58, "duration": 6, "velocity": 88}, {"time": 2002, "pitch": 55, "duration": 4, "velocity": 80}, {"time": 2008, "pitch": 55, "duration": 4, "velocity": 84}, {"time": 2008, "pitch": 67, "duration": 5, "velocity": 81}, {"time": 2014, "pitch": 50, "duration": 7, "velocity": 65}, {"time": 2020, "pitch": 58, "duration": 3, "velocity": 83}, {"time": 2020, "pitch": 62, "duration": 4, "velocity": 83}, {"time": 2026, "pitch": 50, "duration": 5, "velocity": 79}, {"time": 2032, "pitch": 41, "duration": 20, "velocity": 82}, {"time": 2032, "pitch": 57, "duration": 8, "velocity": 75}, {"time": 2032, "pitch": 60, "duration": 9, "velocity": 79}, {"time": 2038, "pitch": 48, "duration": 10, "velocity": 70}, {"time": 2044, "pitch": 57, "duration": 3, "velocity": 78}, {"time": 2044, "pitch": 65, "duration": 7, "velocity": 82}, {"time": 2050, "pitch": 57, "duration": 4, "velocity": 73}, {"time": 2056, "pitch": 41, "duration": 14, "velocity": 83}, {"time": 2056, "pitch": 57, "duration": 6, "velocity": 78}, {"time": 2056, "pitch": 60, "duration": 6, "velocity": 82}, {"time": 2062, "pitch": 48, "duration": 8, "velocity": 73}, {"time": 2068, "pitch": 57, "duration": 2, "velocity": 82}, {"time": 2068, "pitch": 60, "duration": 4, "velocity": 87}, {"time": 2068, "pitch": 65, "duration": 6, "velocity": 83}, {"time": 2080, "pitch": 46, "duration": 15, "velocity": 81}, {"time": 2080, "pitch": 58, "duration": 4, "velocity": 81}, {"time": 2080, "pitch": 62, "duration": 8, "velocity": 81}, {"time": 2086, "pitch": 58, "duration": 4, "velocity": 74}, {"time": 2092, "pitch": 58, "duration": 4, "velocity": 89}, {"time": 2092, "pitch": 62, "duration": 6, "velocity": 88}, {"time": 2098, "pitch": 46, "duration": 3, "velocity": 75}, {"time": 2104, "pitch": 41, "duration": 15, "velocity": 88}, {"time": 2104, "pitch": 53, "duration": 6, "velocity": 66}, {"time": 2104, "pitch": 57, "duration": 6, "velocity": 74}, {"time": 2110, "pitch": 48, "duration": 10, "velocity": 79}, {"time": 2116, "pitch": 53, "duration": 2, "velocity": 83}, {"time": 2116, "pitch": 57, "duration": 4, "velocity": 86}, {"time": 2116, "pitch": 60, "duration": 4, "velocity": 84}, {"time": 2128, "pitch": 46, "duration": 18, "velocity": 81}, {"time": 2128, "pitch": 58, "duration": 7, "velocity": 83}, {"time": 2128, "pitch": 62, "duration": 5, "velocity": 83}, {"time": 2134, "pitch": 53, "duration": 7, "velocity": 81}, {"time": 2140, "pitch": 58, "duration": 6, "velocity": 91}, {"time": 2146, "pitch": 53, "duration": 4, "velocity": 85}, {"time": 2152, "pitch": 41, "duration": 13, "velocity": 77}, {"time": 2152, "pitch": 53, "duration": 11, "velocity": 76}, {"time": 2152, "pitch": 57, "duration": 11, "velocity": 75}, {"time": 2158, "pitch": 48, "duration": 8, "velocity": 73}, {"time": 2164, "pitch": 57, "duration": 2, "velocity": 70}, {"time": 2164, "pitch": 65, "duration": 4, "velocity": 85}, {"time": 2176, "pitch": 48, "duration": 14, "velocity": 84}, {"time": 2176, "pitch": 60, "duration": 10, "velocity": 82}, {"time": 2176, "pitch": 67, "duration": 13, "velocity": 77}, {"time": 2182, "pitch": 55, "duration": 7, "velocity": 84}, {"time": 2188, "pitch": 63, "duration": 6, "velocity": 98}, {"time": 2194, "pitch": 60, "duration": 14, "velocity": 89}, {"time": 2200, "pitch": 41, "duration": 18, "velocity": 83}, {"time": 2200, "pitch": 69, "duration": 11, "velocity": 82}, {"time": 2206, "pitch": 48, "duration": 11, "velocity": 78}, {"time": 2212, "pitch": 60, "duration": 3, "velocity": 84}, {"time": 2212, "pitch": 65, "duration": 6, "velocity": 88}, {"time": 2224, "pitch": 46, "duration": 22, "velocity": 84}, {"time": 2224, "pitch": 70, "duration": 12, "velocity": 81}, {"time": 2230, "pitch": 53, "duration": 16, "velocity": 72}, {"time": 2236, "pitch": 65, "duration": 7, "velocity": 88}, {"time": 2242, "pitch": 70, "duration": 2, "velocity": 85}, {"time": 2248, "pitch": 46, "duration": 18, "velocity": 76}, {"time": 2248, "pitch": 53, "duration": 18, "velocity": 79}, {"time": 2248, "pitch": 62, "duration": 3, "velocity": 72}, {"time": 2272, "pitch": 46, "duration": 39, "velocity": 80}, {"time": 2272, "pitch": 58, "duration": 13, "velocity": 78}, {"time": 2278, "pitch": 53, "duration": 8, "velocity": 69}, {"time": 2284, "pitch": 62, "duration": 6, "velocity": 82}, {"time": 2290, "pitch": 58, "duration": 4, "velocity": 76}, {"time": 2296, "pitch": 53, "duration": 3, "velocity": 74}, {"time": 2296, "pitch": 58, "duration": 7, "velocity": 71}, {"time": 2296, "pitch": 65, "duration": 10, "velocity": 76}, {"time": 2302, "pitch": 53, "duration": 4, "velocity": 66}, {"time": 2308, "pitch": 62, "duration": 4, "velocity": 78}, {"time": 2320, "pitch": 43, "duration": 41, "velocity": 78}, {"time": 2320, "pitch": 55, "duration": 11, "velocity": 75}, {"time": 2320, "pitch": 58, "duration": 9, "velocity": 68}, {"time": 2326, "pitch": 50, "duration": 21, "velocity": 66}, {"time": 2332, "pitch": 62, "duration": 7, "velocity": 81}, {"time": 2338, "pitch": 58, "duration": 2, "velocity": 84}, {"time": 2344, "pitch": 55, "duration": 3, "velocity": 83}, {"time": 2344, "pitch": 67, "duration": 4, "velocity": 81}, {"time": 2350, "pitch": 50, "duration": 8, "velocity": 61}, {"time": 2356, "pitch": 58, "duration": 3, "velocity": 76}, {"time": 2356, "pitch": 62, "duration": 4, "velocity": 81}, {"time": 2368, "pitch": 48, "duration": 32, "velocity": 83}, {"time": 2368, "pitch": 55, "duration": 4, "velocity": 74}, {"time": 2368, "pitch": 60, "duration": 8, "velocity": 77}, {"time": 2374, "pitch": 55, "duration": 5, "velocity": 69}, {"time": 2380, "pitch": 63, "duration": 5, "velocity": 87}, {"time": 2386, "pitch": 55, "duration": 7, "velocity": 86}, {"time": 2392, "pitch": 67, "duration": 5, "velocity": 81}, {"time": 2398, "pitch": 55, "duration": 5, "velocity": 83}, {"time": 2404, "pitch": 48, "duration": 4, "velocity": 85}, {"time": 2404, "pitch": 60, "duration": 6, "velocity": 83}, {"time": 2404, "pitch": 63, "duration": 6, "velocity": 81}, {"time": 2410, "pitch": 55, "duration": 2, "velocity": 83}, {"time": 2416, "pitch": 41, "duration": 39, "velocity": 83}, {"time": 2416, "pitch": 53, "duration": 12, "velocity": 74}, {"time": 2416, "pitch": 57, "duration": 12, "velocity": 76}, {"time": 2422, "pitch": 48, "duration": 33, "velocity": 69}, {"time": 2428, "pitch": 60, "duration": 7, "velocity": 82}, {"time": 2434, "pitch": 53, "duration": 5, "velocity": 83}, {"time": 2440, "pitch": 57, "duration": 6, "velocity": 70}, {"time": 2440, "pitch": 60, "duration": 7, "velocity": 81}, {"time": 2440, "pitch": 65, "duration": 7, "velocity": 82}, {"time": 2446, "pitch": 53, "duration": 7, "velocity": 71}, {"time": 2452, "pitch": 57, "duration": 4, "velocity": 72}, {"time": 2452, "pitch": 60, "duration": 6, "velocity": 76}, {"time": 2458, "pitch": 41, "duration": 4, "velocity": 82}, {"time": 2464, "pitch": 46, "duration": 18, "velocity": 84}, {"time": 2464, "pitch": 58, "duration": 7, "velocity": 82}, {"time": 2470, "pitch": 53, "duration": 7, "velocity": 75}, {"time": 2476, "pitch": 58, "duration": 6, "velocity": 76}, {"time": 2476, "pitch": 62, "duration": 7, "velocity": 82}, {"time": 2488, "pitch": 50, "duration": 14, "velocity": 81}, {"time": 2488, "pitch": 57, "duration": 3, "velocity": 75}, {"time": 2488, "pitch": 62, "duration": 8, "velocity": 82}, {"time": 2494, "pitch": 57, "duration": 7, "velocity": 82}, {"time": 2500, "pitch": 62, "duration": 6, "velocity": 82}, {"time": 2500, "pitch": 65, "duration": 6, "velocity": 83}, {"time": 2512, "pitch": 43, "duration": 21, "velocity": 83}, {"time": 2512, "pitch": 55, "duration": 10, "velocity": 74}, {"time": 2512, "pitch": 58, "duration": 8, "velocity": 74}, {"time": 2518, "pitch": 50, "duration": 15, "velocity": 78}, {"time": 2524, "pitch": 58, "duration": 7, "velocity": 72}, {"time": 2524, "pitch": 62, "duration": 21, "velocity": 82}, {"time": 2530, "pitch": 55, "duration": 2, "velocity": 72}, {"time": 2536, "pitch": 43, "duration": 20, "velocity": 83}, {"time": 2542, "pitch": 50, "duration": 12, "velocity": 72}, {"time": 2548, "pitch": 58, "duration": 5, "velocity": 79}, {"time": 2548, "pitch": 62, "duration": 10, "velocity": 82}, {"time": 2554, "pitch": 55, "duration": 7, "velocity": 83}, {"time": 2560, "pitch": 36, "duration": 11, "velocity": 76}, {"time": 2560, "pitch": 60, "duration": 7, "velocity": 78}, {"time": 2560, "pitch": 63, "duration": 7, "velocity": 81}, {"time": 2566, "pitch": 55, "duration": 7, "velocity": 81}, {"time": 2572, "pitch": 60, "duration": 5, "velocity": 89}, {"time": 2578, "pitch": 55, "duration": 2, "velocity": 84}, {"time": 2584, "pitch": 41, "duration": 18, "velocity": 83}, {"time": 2584, "pitch": 53, "duration": 12, "velocity": 79}, {"time": 2584, "pitch": 57, "duration": 12, "velocity": 77}, {"time": 2590, "pitch": 48, "duration": 11, "velocity": 77}, {"time": 2596, "pitch": 60, "duration": 7, "velocity": 85}, {"time": 2602, "pitch": 53, "duration": 7, "velocity": 86}, {"time": 2608, "pitch": 46, "duration": 22, "velocity": 84}, {"time": 2608, "pitch": 58, "duration": 7, "velocity": 85}, {"time": 2614, "pitch": 53, "duration": 6, "velocity": 83}, {"time": 2620, "pitch": 58, "duration": 7, "velocity": 79}, {"time": 2620, "pitch": 65, "duration": 7, "velocity": 82}, {"time": 2626, "pitch": 53, "duration": 4, "velocity": 89}, {"time": 2632, "pitch": 46, "duration": 14, "velocity": 93}, {"time": 2632, "pitch": 53, "duration": 3, "velocity": 83}, {"time": 2632, "pitch": 58, "duration": 7, "velocity": 76}, {"time": 2632, "pitch": 62, "duration": 8, "velocity": 79}, {"time": 2638, "pitch": 53, "duration": 5, "velocity": 83}, {"time": 2644, "pitch": 53, "duration": 2, "velocity": 82}, {"time": 2644, "pitch": 58, "duration": 6, "velocity": 87}, {"time": 2647, "pitch": 46, "duration": 3, "velocity": 83}, {"time": 2650, "pitch": 53, "duration": 4, "velocity": 93}, {"time": 2653, "pitch": 58, "duration": 3, "velocity": 88}, {"time": 2656, "pitch": 43, "duration": 7, "velocity": 83}, {"time": 2656, "pitch": 55, "duration": 4, "velocity": 76}, {"time": 2656, "pitch": 58, "duration": 4, "velocity": 68}, {"time": 2656, "pitch": 62, "duration": 4, "velocity": 80}, {"time": 2662, "pitch": 55, "duration": 2, "velocity": 78}, {"time": 2662, "pitch": 58, "duration": 8, "velocity": 82}, {"time": 2662, "pitch": 62, "duration": 8, "velocity": 85}, {"time": 2662, "pitch": 67, "duration": 7, "velocity": 81}, {"time": 2668, "pitch": 50, "duration": 9, "velocity": 82}, {"time": 2674, "pitch": 55, "duration": 1, "velocity": 80}, {"time": 2674, "pitch": 58, "duration": 7, "velocity": 83}, {"time": 2674, "pitch": 62, "duration": 8, "velocity": 84}, {"time": 2677, "pitch": 55, "duration": 5, "velocity": 87}, {"time": 2680, "pitch": 43, "duration": 8, "velocity": 83}, {"time": 2686, "pitch": 55, "duration": 6, "velocity": 84}, {"time": 2686, "pitch": 58, "duration": 6, "velocity": 87}, {"time": 2686, "pitch": 62, "duration": 7, "velocity": 84}, {"time": 2692, "pitch": 50, "duration": 7, "velocity": 82}, {"time": 2698, "pitch": 58, "duration": 5, "velocity": 85}, {"time": 2698, "pitch": 62, "duration": 7, "velocity": 84}, {"time": 2701, "pitch": 53, "duration": 3, "velocity": 85}, {"time": 2704, "pitch": 46, "duration": 10, "velocity": 98}, {"time": 2710, "pitch": 58, "duration": 8, "velocity": 87}, {"time": 2710, "pitch": 62, "duration": 7, "velocity": 87}, {"time": 2716, "pitch": 41, "duration": 7, "velocity": 84}, {"time": 2722, "pitch": 53, "duration": 1, "velocity": 79}, {"time": 2722, "pitch": 58, "duration": 5, "velocity": 91}, {"time": 2722, "pitch": 62, "duration": 5, "velocity": 83}, {"time": 2725, "pitch": 53, "duration": 3, "velocity": 91}, {"time": 2728, "pitch": 46, "duration": 10, "velocity": 79}, {"time": 2734, "pitch": 53, "duration": 2, "velocity": 83}, {"time": 2734, "pitch": 58, "duration": 4, "velocity": 89}, {"time": 2734, "pitch": 62, "duration": 7, "velocity": 85}, {"time": 2737, "pitch": 53, "duration": 3, "velocity": 86}, {"time": 2740, "pitch": 41, "duration": 7, "velocity": 84}, {"time": 2746, "pitch": 53, "duration": 2, "velocity": 86}, {"time": 2746, "pitch": 58, "duration": 2, "velocity": 96}, {"time": 2746, "pitch": 62, "duration": 4, "velocity": 83}, {"time": 2752, "pitch": 48, "duration": 11, "velocity": 84}, {"time": 2758, "pitch": 55, "duration": 2, "velocity": 83}, {"time": 2758, "pitch": 60, "duration": 8, "velocity": 87}, {"time": 2758, "pitch": 63, "duration": 8, "velocity": 85}, {"time": 2761, "pitch": 55, "duration": 5, "velocity": 85}, {"time": 2764, "pitch": 43, "duration": 6, "velocity": 82}, {"time": 2770, "pitch": 55, "duration": 8, "velocity": 84}, {"time": 2770, "pitch": 60, "duration": 2, "velocity": 83}, {"time": 2770, "pitch": 63, "duration": 6, "velocity": 82}, {"time": 2776, "pitch": 39, "duration": 7, "velocity": 81}, {"time": 2782, "pitch": 55, "duration": 1, "velocity": 71}, {"time": 2782, "pitch": 58, "duration": 4, "velocity": 83}, {"time": 2782, "pitch": 63, "duration": 6, "velocity": 82}, {"time": 2785, "pitch": 55, "duration": 4, "velocity": 89}, {"time": 2788, "pitch": 46, "duration": 6, "velocity": 83}, {"time": 2794, "pitch": 55, "duration": 6, "velocity": 85}, {"time": 2794, "pitch": 58, "duration": 5, "velocity": 88}, {"time": 2794, "pitch": 63, "duration": 6, "velocity": 83}, {"time": 2800, "pitch": 46, "duration": 11, "velocity": 96}, {"time": 2806, "pitch": 53, "duration": 2, "velocity": 83}, {"time": 2806, "pitch": 58, "duration": 7, "velocity": 91}, {"time": 2806, "pitch": 62, "duration": 7, "velocity": 83}, {"time": 2809, "pitch": 53, "duration": 5, "velocity": 86}, {"time": 2812, "pitch": 41, "duration": 9, "velocity": 84}, {"time": 2818, "pitch": 53, "duration": 3, "velocity": 83}, {"time": 2818, "pitch": 58, "duration": 4, "velocity": 86}, {"time": 2818, "pitch": 62, "duration": 4, "velocity": 83}, {"time": 2824, "pitch": 46, "duration": 10, "velocity": 89}, {"time": 2824, "pitch": 53, "duration": 5, "velocity": 76}, {"time": 2824, "pitch": 58, "duration": 5, "velocity": 73}, {"time": 2830, "pitch": 53, "duration": 1, "velocity": 78}, {"time": 2830, "pitch": 58, "duration": 2, "velocity": 83}, {"time": 2830, "pitch": 62, "duration": 2, "velocity": 82}, {"time": 2833, "pitch": 53, "duration": 5, "velocity": 84}, {"time": 2833, "pitch": 58, "duration": 5, "velocity": 75}, {"time": 2833, "pitch": 62, "duration": 5, "velocity": 81}, {"time": 2836, "pitch": 41, "duration": 7, "velocity": 86}, {"time": 2842, "pitch": 53, "duration": 1, "velocity": 83}, {"time": 2842, "pitch": 58, "duration": 2, "velocity": 88}, {"time": 2842, "pitch": 62, "duration": 2, "velocity": 85}, {"time": 2848, "pitch": 43, "duration": 9, "velocity": 83}, {"time": 2848, "pitch": 55, "duration": 4, "velocity": 76}, {"time": 2848, "pitch": 58, "duration": 4, "velocity": 74}, {"time": 2848, "pitch": 62, "duration": 3, "velocity": 81}, {"time": 2854, "pitch": 55, "duration": 2, "velocity": 82}, {"time": 2854, "pitch": 58, "duration": 2, "velocity": 82}, {"time": 2854, "pitch": 62, "duration": 2, "velocity": 86}, {"time": 2854, "pitch": 67, "duration": 4, "velocity": 84}, {"time": 2857, "pitch": 55, "duration": 5, "velocity": 82}, {"time": 2857, "pitch": 58, "duration": 5, "velocity": 78}, {"time": 2857, "pitch": 62, "duration": 4, "velocity": 83}, {"time": 2860, "pitch": 50, "duration": 10, "velocity": 81}, {"time": 2866, "pitch": 55, "duration": 6, "velocity": 79}, {"time": 2866, "pitch": 58, "duration": 6, "velocity": 81}, {"time": 2866, "pitch": 62, "duration": 6, "velocity": 83}, {"time": 2872, "pitch": 43, "duration": 9, "velocity": 84}, {"time": 2878, "pitch": 55, "duration": 1, "velocity": 78}, {"time": 2878, "pitch": 58, "duration": 2, "velocity": 86}, {"time": 2878, "pitch": 62, "duration": 8, "velocity": 83}, {"time": 2881, "pitch": 55, "duration": 5, "velocity": 82}, {"time": 2881, "pitch": 58, "duration": 4, "velocity": 73}, {"time": 2884, "pitch": 50, "duration": 8, "velocity": 82}, {"time": 2890, "pitch": 55, "duration": 3, "velocity": 83}, {"time": 2890, "pitch": 58, "duration": 4, "velocity": 93}, {"time": 2890, "pitch": 62, "duration": 5, "velocity": 84}, {"time": 2896, "pitch": 46, "duration": 8, "velocity": 89}, {"time": 2902, "pitch": 53, "duration": 1, "velocity": 82}, {"time": 2902, "pitch": 58, "duration": 2, "velocity": 89}, {"time": 2902, "pitch": 62, "duration": 2, "velocity": 83}, {"time": 2905, "pitch": 53, "duration": 5, "velocity": 81}, {"time": 2905, "pitch": 58, "duration": 1, "velocity": 62}, {"time": 2905, "pitch": 62, "duration": 3, "velocity": 70}, {"time": 2908, "pitch": 41, "duration": 9, "velocity": 82}, {"time": 2914, "pitch": 53, "duration": 2, "velocity": 82}, {"time": 2914, "pitch": 58, "duration": 2, "velocity": 86}, {"time": 2914, "pitch": 62, "duration": 2, "velocity": 84}, {"time": 2920, "pitch": 46, "duration": 12, "velocity": 89}, {"time": 2926, "pitch": 53, "duration": 2, "velocity": 81}, {"time": 2926, "pitch": 58, "duration": 2, "velocity": 84}, {"time": 2926, "pitch": 62, "duration": 2, "velocity": 83}, {"time": 2929, "pitch": 53, "duration": 2, "velocity": 83}, {"time": 2929, "pitch": 58, "duration": 3, "velocity": 78}, {"time": 2929, "pitch": 62, "duration": 5, "velocity": 82}, {"time": 2932, "pitch": 41, "duration": 8, "velocity": 83}, {"time": 2938, "pitch": 55, "duration": 6, "velocity": 79}, {"time": 2938, "pitch": 58, "duration": 6, "velocity": 76}, {"time": 2944, "pitch": 39, "duration": 9, "velocity": 87}, {"time": 2950, "pitch": 55, "duration": 2, "velocity": 83}, {"time": 2950, "pitch": 58, "duration": 5, "velocity": 91}, {"time": 2950, "pitch": 63, "duration": 5, "velocity": 86}, {"time": 2953, "pitch": 55, "duration": 5, "velocity": 83}, {"time": 2956, "pitch": 46, "duration": 6, "velocity": 76}, {"time": 2962, "pitch": 55, "duration": 4, "velocity": 83}, {"time": 2962, "pitch": 58, "duration": 4, "velocity": 85}, {"time": 2962, "pitch": 63, "duration": 4, "velocity": 83}, {"time": 2968, "pitch": 43, "duration": 10, "velocity": 82}, {"time": 2974, "pitch": 55, "duration": 1, "velocity": 77}, {"time": 2974, "pitch": 58, "duration": 2, "velocity": 89}, {"time": 2974, "pitch": 62, "duration": 7, "velocity": 82}, {"time": 2977, "pitch": 55, "duration": 5, "velocity": 82}, {"time": 2977, "pitch": 58, "duration": 4, "velocity": 76}, {"time": 2980, "pitch": 50, "duration": 8, "velocity": 83}, {"time": 2986, "pitch": 55, "duration": 3, "velocity": 84}, {"time": 2986, "pitch": 58, "duration": 3, "velocity": 91}, {"time": 2992, "pitch": 41, "duration": 9, "velocity": 83}, {"time": 2992, "pitch": 53, "duration": 4, "velocity": 83}, {"time": 2992, "pitch": 57, "duration": 4, "velocity": 83}, {"time": 2998, "pitch": 53, "duration": 1, "velocity": 72}, {"time": 2998, "pitch": 57, "duration": 2, "velocity": 79}, {"time": 2998, "pitch": 60, "duration": 8, "velocity": 83}, {"time": 3001, "pitch": 53, "duration": 6, "velocity": 87}, {"time": 3001, "pitch": 57, "duration": 2, "velocity": 73}, {"time": 3004, "pitch": 48, "duration": 11, "velocity": 82}, {"time": 3010, "pitch": 53, "duration": 1, "velocity": 58}, {"time": 3010, "pitch": 57, "duration": 4, "velocity": 84}, {"time": 3010, "pitch": 60, "duration": 4, "velocity": 83}, {"time": 3010, "pitch": 65, "duration": 4, "velocity": 78}, {"time": 3016, "pitch": 41, "duration": 10, "velocity": 83}, {"time": 3016, "pitch": 53, "duration": 4, "velocity": 81}, {"time": 3016, "pitch": 57, "duration": 4, "velocity": 82}, {"time": 3016, "pitch": 60, "duration": 4, "velocity": 82}, {"time": 3022, "pitch": 57, "duration": 2, "velocity": 72}, {"time": 3022, "pitch": 60, "duration": 6, "velocity": 75}, {"time": 3022, "pitch": 65, "duration": 2, "velocity": 68}, {"time": 3025, "pitch": 53, "duration": 4, "velocity": 81}, {"time": 3025, "pitch": 57, "duration": 3, "velocity": 65}, {"time": 3028, "pitch": 48, "duration": 8, "velocity": 87}, {"time": 3034, "pitch": 53, "duration": 3, "velocity": 83}, {"time": 3034, "pitch": 57, "duration": 2, "velocity": 83}, {"time": 3034, "pitch": 60, "duration": 4, "velocity": 83}, {"time": 3040, "pitch": 46, "duration": 8, "velocity": 93}, {"time": 3046, "pitch": 53, "duration": 1, "velocity": 73}, {"time": 3046, "pitch": 58, "duration": 5, "velocity": 79}, {"time": 3046, "pitch": 62, "duration": 7, "velocity": 81}, {"time": 3049, "pitch": 53, "duration": 5, "velocity": 82}, {"time": 3052, "pitch": 41, "duration": 9, "velocity": 83}, {"time": 3058, "pitch": 53, "duration": 3, "velocity": 82}, {"time": 3058, "pitch": 58, "duration": 3, "velocity": 82}, {"time": 3058, "pitch": 62, "duration": 3, "velocity": 80}, {"time": 3064, "pitch": 46, "duration": 10, "velocity": 86}, {"time": 3070, "pitch": 53, "duration": 2, "velocity": 82}, {"time": 3070, "pitch": 58, "duration": 4, "velocity": 89}, {"time": 3070, "pitch": 62, "duration": 7, "velocity": 83}, {"time": 3073, "pitch": 53, "duration": 5, "velocity": 87}, {"time": 3076, "pitch": 41, "duration": 8, "velocity": 83}, {"time": 3082, "pitch": 53, "duration": 4, "velocity": 87}, {"time": 3082, "pitch": 58, "duration": 5, "velocity": 91}, {"time": 3082, "pitch": 62, "duration": 6, "velocity": 83}, {"time": 3088, "pitch": 43, "duration": 9, "velocity": 83}, {"time": 3094, "pitch": 55, "duration": 2, "velocity": 78}, {"time": 3094, "pitch": 58, "duration": 2, "velocity": 86}, {"time": 3094, "pitch": 62, "duration": 2, "velocity": 83}, {"time": 3097, "pitch": 55, "duration": 4, "velocity": 82}, {"time": 3097, "pitch": 58, "duration": 4, "velocity": 75}, {"time": 3097, "pitch": 62, "duration": 3, "velocity": 81}, {"time": 3100, "pitch": 50, "duration": 9, "velocity": 83}, {"time": 3106, "pitch": 55, "duration": 1, "velocity": 84}, {"time": 3106, "pitch": 58, "duration": 7, "velocity": 85}, {"time": 3106, "pitch": 62, "duration": 8, "velocity": 83}, {"time": 3109, "pitch": 55, "duration": 4, "velocity": 83}, {"time": 3112, "pitch": 43, "duration": 9, "velocity": 85}, {"time": 3118, "pitch": 55, "duration": 1, "velocity": 82}, {"time": 3118, "pitch": 58, "duration": 4, "velocity": 96}, {"time": 3118, "pitch": 62, "duration": 6, "velocity": 83}, {"time": 3121, "pitch": 55, "duration": 4, "velocity": 83}, {"time": 3124, "pitch": 50, "duration": 8, "velocity": 83}, {"time": 3130, "pitch": 55, "duration": 3, "velocity": 84}, {"time": 3130, "pitch": 58, "duration": 2, "velocity": 88}, {"time": 3130, "pitch": 62, "duration": 7, "velocity": 84}, {"time": 3136, "pitch": 41, "duration": 9, "velocity": 83}, {"time": 3142, "pitch": 53, "duration": 1, "velocity": 82}, {"time": 3142, "pitch": 57, "duration": 2, "velocity": 82}, {"time": 3142, "pitch": 60, "duration": 2, "velocity": 82}, {"time": 3145, "pitch": 53, "duration": 7, "velocity": 88}, {"time": 3145, "pitch": 60, "duration": 1, "velocity": 63}, {"time": 3148, "pitch": 48, "duration": 9, "velocity": 83}, {"time": 3154, "pitch": 57, "duration": 5, "velocity": 84}, {"time": 3154, "pitch": 60, "duration": 7, "velocity": 84}, {"time": 3154, "pitch": 65, "duration": 6, "velocity": 82}, {"time": 3157, "pitch": 53, "duration": 4, "velocity": 91}, {"time": 3160, "pitch": 41, "duration": 8, "velocity": 83}, {"time": 3166, "pitch": 57, "duration": 4, "velocity": 83}, {"time": 3166, "pitch": 60, "duration": 4, "velocity": 83}, {"time": 3169, "pitch": 53, "duration": 3, "velocity": 85}, {"time": 3172, "pitch": 48, "duration": 8, "velocity": 82}, {"time": 3178, "pitch": 57, "duration": 4, "velocity": 87}, {"time": 3178, "pitch": 60, "duration": 6, "velocity": 83}, {"time": 3181, "pitch": 53, "duration": 3, "velocity": 85}, {"time": 3184, "pitch": 46, "duration": 11, "velocity": 84}, {"time": 3190, "pitch": 58, "duration": 4, "velocity": 89}, {"time": 3190, "pitch": 62, "duration": 5, "velocity": 82}, {"time": 3193, "pitch": 53, "duration": 3, "velocity": 84}, {"time": 3196, "pitch": 41, "duration": 9, "velocity": 83}, {"time": 3202, "pitch": 58, "duration": 4, "velocity": 86}, {"time": 3202, "pitch": 62, "duration": 5, "velocity": 82}, {"time": 3205, "pitch": 53, "duration": 5, "velocity": 85}, {"time": 3208, "pitch": 46, "duration": 10, "velocity": 91}, {"time": 3214, "pitch": 58, "duration": 4, "velocity": 85}, {"time": 3214, "pitch": 62, "duration": 5, "velocity": 77}, {"time": 3217, "pitch": 53, "duration": 3, "velocity": 83}, {"time": 3220, "pitch": 41, "duration": 7, "velocity": 83}, {"time": 3232, "pitch": 43, "duration": 7, "velocity": 83}, {"time": 3232, "pitch": 55, "duration": 4, "velocity": 76}, {"time": 3232, "pitch": 58, "duration": 4, "velocity": 68}, {"time": 3232, "pitch": 62, "duration": 4, "velocity": 80}, {"time": 3238, "pitch": 55, "duration": 2, "velocity": 78}, {"time": 3238, "pitch": 58, "duration": 8, "velocity": 82}, {"time": 3238, "pitch": 62, "duration": 8, "velocity": 85}, {"time": 3238, "pitch": 67, "duration": 7, "velocity": 81}, {"time": 3244, "pitch": 50, "duration": 9, "velocity": 82}, {"time": 3250, "pitch": 55, "duration": 1, "velocity": 80}, {"time": 3250, "pitch": 58, "duration": 7, "velocity": 83}, {"time": 3250, "pitch": 62, "duration": 8, "velocity": 84}, {"time": 3253, "pitch": 55, "duration": 5, "velocity": 87}, {"time": 3256, "pitch": 43, "duration": 8, "velocity": 83}, {"time": 3262, "pitch": 55, "duration": 6, "velocity": 84}, {"time": 3262, "pitch": 58, "duration": 6, "velocity": 87}, {"time": 3262, "pitch": 62, "duration": 7, "velocity": 84}, {"time": 3268, "pitch": 50, "duration": 7, "velocity": 82}, {"time": 3274, "pitch": 58, "duration": 5, "velocity": 85}, {"time": 3274, "pitch": 62, "duration": 7, "velocity": 84}, {"time": 3277, "pitch": 53, "duration": 3, "velocity": 85}, {"time": 3280, "pitch": 46, "duration": 10, "velocity": 98}, {"time": 3286, "pitch": 58, "duration": 8, "velocity": 87}, {"time": 3286, "pitch": 62, "duration": 7, "velocity": 87}, {"time": 3292, "pitch": 41, "duration": 7, "velocity": 84}, {"time": 3298, "pitch": 53, "duration": 1, "velocity": 79}, {"time": 3298, "pitch": 58, "duration": 5, "velocity": 91}, {"time": 3298, "pitch": 62, "duration": 5, "velocity": 83}, {"time": 3301, "pitch": 53, "duration": 3, "velocity": 91}, {"time": 3304, "pitch": 46, "duration": 10, "velocity": 79}, {"time": 3310, "pitch": 53, "duration": 2, "velocity": 83}, {"time": 3310, "pitch": 58, "duration": 4, "velocity": 89}, {"time": 3310, "pitch": 62, "duration": 7, "velocity": 85}, {"time": 3313, "pitch": 53, "duration": 3, "velocity": 86}, {"time": 3316, "pitch": 41, "duration": 7, "velocity": 84}, {"time": 3322, "pitch": 53, "duration": 2, "velocity": 86}, {"time": 3322, "pitch": 58, "duration": 2, "velocity": 96}, {"time": 3322, "pitch": 62, "duration": 4, "velocity": 83}, {"time": 3328, "pitch": 48, "duration": 11, "velocity": 84}, {"time": 3334, "pitch": 55, "duration": 2, "velocity": 83}, {"time": 3334, "pitch": 60, "duration": 8, "velocity": 87}, {"time": 3334, "pitch": 63, "duration": 8, "velocity": 85}, {"time": 3337, "pitch": 55, "duration": 5, "velocity": 85}, {"time": 3340, "pitch": 43, "duration": 6, "velocity": 82}, {"time": 3346, "pitch": 55, "duration": 8, "velocity": 84}, {"time": 3346, "pitch": 60, "duration": 2, "velocity": 83}, {"time": 3346, "pitch": 63, "duration": 6, "velocity": 82}, {"time": 3352, "pitch": 39, "duration": 7, "velocity": 81}, {"time": 3358, "pitch": 55, "duration": 1, "velocity": 71}, {"time": 3358, "pitch": 58, "duration": 4, "velocity": 83}, {"time": 3358, "pitch": 63, "duration": 6, "velocity": 82}, {"time": 3361, "pitch": 55, "duration": 4, "velocity": 89}, {"time": 3364, "pitch": 46, "duration": 6, "velocity": 83}, {"time": 3370, "pitch": 55, "duration": 6, "velocity": 85}, {"time": 3370, "pitch": 58, "duration": 5, "velocity": 88}, {"time": 3370, "pitch": 63, "duration": 6, "velocity": 83}, {"time": 3376, "pitch": 46, "duration": 11, "velocity": 96}, {"time": 3382, "pitch": 53, "duration": 2, "velocity": 83}, {"time": 3382, "pitch": 58, "duration": 7, "velocity": 91}, {"time": 3382, "pitch": 62, "duration": 7, "velocity": 83}, {"time": 3385, "pitch": 53, "duration": 5, "velocity": 86}, {"time": 3388, "pitch": 41, "duration": 9, "velocity": 84}, {"time": 3394, "pitch": 53, "duration": 3, "velocity": 83}, {"time": 3394, "pitch": 58, "duration": 4, "velocity": 86}, {"time": 3394, "pitch": 62, "duration": 4, "velocity": 83}, {"time": 3400, "pitch": 46, "duration": 10, "velocity": 89}, {"time": 3400, "pitch": 53, "duration": 5, "velocity": 76}, {"time": 3400, "pitch": 58, "duration": 5, "velocity": 73}, {"time": 3406, "pitch": 53, "duration": 1, "velocity": 78}, {"time": 3406, "pitch": 58, "duration": 2, "velocity": 83}, {"time": 3406, "pitch": 62, "duration": 2, "velocity": 82}, {"time": 3409, "pitch": 53, "duration": 5, "velocity": 84}, {"time": 3409, "pitch": 58, "duration": 5, "velocity": 75}, {"time": 3409, "pitch": 62, "duration": 5, "velocity": 81}, {"time": 3412, "pitch": 41, "duration": 7, "velocity": 86}, {"time": 3418, "pitch": 53, "duration": 1, "velocity": 83}, {"time": 3418, "pitch": 58, "duration": 2, "velocity": 88}, {"time": 3418, "pitch": 62, "duration": 2, "velocity": 85}, {"time": 3424, "pitch": 43, "duration": 9, "velocity": 83}, {"time": 3424, "pitch": 55, "duration": 4, "velocity": 76}, {"time": 3424, "pitch": 58, "duration": 4, "velocity": 74}, {"time": 3424, "pitch": 62, "duration": 3, "velocity": 81}, {"time": 3430, "pitch": 55, "duration": 2, "velocity": 82}, {"time": 3430, "pitch": 58, "duration": 2, "velocity": 82}, {"time": 3430, "pitch": 62, "duration": 2, "velocity": 86}, {"time": 3430, "pitch": 67, "duration": 4, "velocity": 84}, {"time": 3433, "pitch": 55, "duration": 5, "velocity": 82}, {"time": 3433, "pitch": 58, "duration": 5, "velocity": 78}, {"time": 3433, "pitch": 62, "duration": 4, "velocity": 83}, {"time": 3436, "pitch": 50, "duration": 10, "velocity": 81}, {"time": 3442, "pitch": 55, "duration": 6, "velocity": 79}, {"time": 3442, "pitch": 58, "duration": 6, "velocity": 81}, {"time": 3442, "pitch": 62, "duration": 6, "velocity": 83}, {"time": 3448, "pitch": 43, "duration": 9, "velocity": 84}, {"time": 3454, "pitch": 55, "duration": 1, "velocity": 78}, {"time": 3454, "pitch": 58, "duration": 2, "velocity": 86}, {"time": 3454, "pitch": 62, "duration": 8, "velocity": 83}, {"time": 3457, "pitch": 55, "duration": 5, "velocity": 82}, {"time": 3457, "pitch": 58, "duration": 4, "velocity": 73}, {"time": 3460, "pitch": 50, "duration": 8, "velocity": 82}, {"time": 3466, "pitch": 55, "duration": 3, "velocity": 83}, {"time": 3466, "pitch": 58, "duration": 4, "velocity": 93}, {"time": 3466, "pitch": 62, "duration": 5, "velocity": 84}, {"time": 3472, "pitch": 46, "duration": 8, "velocity": 89}, {"time": 3478, "pitch": 53, "duration": 1, "velocity": 82}, {"time": 3478, "pitch": 58, "duration": 2, "velocity": 89}, {"time": 3478, "pitch": 62, "duration": 2, "velocity": 83}, {"time": 3481, "pitch": 53, "duration": 5, "velocity": 81}, {"time": 3481, "pitch": 58, "duration": 1, "velocity": 62}, {"time": 3481, "pitch": 62, "duration": 3, "velocity": 70}, {"time": 3484, "pitch": 41, "duration": 9, "velocity": 82}, {"time": 3490, "pitch": 53, "duration": 2, "velocity": 82}, {"time": 3490, "pitch": 58, "duration": 2, "velocity": 86}, {"time": 3490, "pitch": 62, "duration": 2, "velocity": 84}, {"time": 3496, "pitch": 46, "duration": 12, "velocity": 89}, {"time": 3502, "pitch": 53, "duration": 2, "velocity": 81}, {"time": 3502, "pitch": 58, "duration": 2, "velocity": 84}, {"time": 3502, "pitch": 62, "duration": 2, "velocity": 83}, {"time": 3505, "pitch": 53, "duration": 2, "velocity": 83}, {"time": 3505, "pitch": 58, "duration": 3, "velocity": 78}, {"time": 3505, "pitch": 62, "duration": 5, "velocity": 82}, {"time": 3508, "pitch": 41, "duration": 8, "velocity": 83}, {"time": 3514, "pitch": 55, "duration": 6, "velocity": 79}, {"time": 3514, "pitch": 58, "duration": 6, "velocity": 76}, {"time": 3520, "pitch": 39, "duration": 9, "velocity": 87}, {"time": 3526, "pitch": 55, "duration": 2, "velocity": 83}, {"time": 3526, "pitch": 58, "duration": 5, "velocity": 91}, {"time": 3526, "pitch": 63, "duration": 5, "velocity": 86}, {"time": 3529, "pitch": 55, "duration": 5, "velocity": 83}, {"time": 3532, "pitch": 46, "duration": 6, "velocity": 76}, {"time": 3538, "pitch": 55, "duration": 4, "velocity": 83}, {"time": 3538, "pitch": 58, "duration": 4, "velocity": 85}, {"time": 3538, "pitch": 63, "duration": 4, "velocity": 83}, {"time": 3544, "pitch": 43, "duration": 10, "velocity": 82}, {"time": 3550, "pitch": 55, "duration": 1, "velocity": 77}, {"time": 3550, "pitch": 58, "duration": 2, "velocity": 89}, {"time": 3550, "pitch": 62, "duration": 7, "velocity": 82}, {"time": 3553, "pitch": 55, "duration": 5, "velocity": 82}, {"time": 3553, "pitch": 58, "duration": 4, "velocity": 76}, {"time": 3556, "pitch": 50, "duration": 8, "velocity": 83}, {"time": 3562, "pitch": 55, "duration": 3, "velocity": 84}, {"time": 3562, "pitch": 58, "duration": 3, "velocity": 91}, {"time": 3568, "pitch": 41, "duration": 9, "velocity": 83}, {"time": 3568, "pitch": 53, "duration": 4, "velocity": 83}, {"time": 3568, "pitch": 57, "duration": 4, "velocity": 83}, {"time": 3574, "pitch": 53, "duration": 1, "velocity": 72}, {"time": 3574, "pitch": 57, "duration": 2, "velocity": 79}, {"time": 3574, "pitch": 60, "duration": 8, "velocity": 83}, {"time": 3577, "pitch": 53, "duration": 6, "velocity": 87}, {"time": 3577, "pitch": 57, "duration": 2, "velocity": 73}, {"time": 3580, "pitch": 48, "duration": 11, "velocity": 82}, {"time": 3586, "pitch": 53, "duration": 1, "velocity": 58}, {"time": 3586, "pitch": 57, "duration": 4, "velocity": 84}, {"time": 3586, "pitch": 60, "duration": 4, "velocity": 83}, {"time": 3586, "pitch": 65, "duration": 4, "velocity": 78}, {"time": 3592, "pitch": 41, "duration": 10, "velocity": 83}, {"time": 3592, "pitch": 53, "duration": 4, "velocity": 81}, {"time": 3592, "pitch": 57, "duration": 4, "velocity": 82}, {"time": 3592, "pitch": 60, "duration": 4, "velocity": 82}, {"time": 3598, "pitch": 57, "duration": 2, "velocity": 72}, {"time": 3598, "pitch": 60, "duration": 6, "velocity": 75}, {"time": 3598, "pitch": 65, "duration": 2, "velocity": 68}, {"time": 3601, "pitch": 53, "duration": 4, "velocity": 81}, {"time": 3601, "pitch": 57, "duration": 3, "velocity": 65}, {"time": 3604, "pitch": 48, "duration": 8, "velocity": 87}, {"time": 3610, "pitch": 53, "duration": 3, "velocity": 83}, {"time": 3610, "pitch": 57, "duration": 2, "velocity": 83}, {"time": 3610, "pitch": 60, "duration": 4, "velocity": 83}, {"time": 3616, "pitch": 46, "duration": 8, "velocity": 93}, {"time": 3622, "pitch": 53, "duration": 1, "velocity": 73}, {"time": 3622, "pitch": 58, "duration": 5, "velocity": 79}, {"time": 3622, "pitch": 62, "duration": 7, "velocity": 81}, {"time": 3625, "pitch": 53, "duration": 5, "velocity": 82}, {"time": 3628, "pitch": 41, "duration": 9, "velocity": 83}, {"time": 3634, "pitch": 53, "duration": 3, "velocity": 82}, {"time": 3634, "pitch": 58, "duration": 3, "velocity": 82}, {"time": 3634, "pitch": 62, "duration": 3, "velocity": 80}, {"time": 3640, "pitch": 46, "duration": 10, "velocity": 86}, {"time": 3646, "pitch": 53, "duration": 2, "velocity": 82}, {"time": 3646, "pitch": 58, "duration": 4, "velocity": 89}, {"time": 3646, "pitch": 62, "duration": 7, "velocity": 83}, {"time": 3649, "pitch": 53, "duration": 5, "velocity": 87}, {"time": 3652, "pitch": 41, "duration": 8, "velocity": 83}, {"time": 3658, "pitch": 53, "duration": 4, "velocity": 87}, {"time": 3658, "pitch": 58, "duration": 5, "velocity": 91}, {"time": 3658, "pitch": 62, "duration": 6, "velocity": 83}, {"time": 3664, "pitch": 43, "duration": 9, "velocity": 83}, {"time": 3670, "pitch": 55, "duration": 2, "velocity": 78}, {"time": 3670, "pitch": 58, "duration": 2, "velocity": 86}, {"time": 3670, "pitch": 62, "duration": 2, "velocity": 83}, {"time": 3673, "pitch": 55, "duration": 4, "velocity": 82}, {"time": 3673, "pitch": 58, "duration": 4, "velocity": 75}, {"time": 3673, "pitch": 62, "duration": 3, "velocity": 81}, {"time": 3676, "pitch": 50, "duration": 9, "velocity": 83}, {"time": 3682, "pitch": 55, "duration": 1, "velocity": 84}, {"time": 3682, "pitch": 58, "duration": 7, "velocity": 85}, {"time": 3682, "pitch": 62, "duration": 8, "velocity": 83}, {"time": 3685, "pitch": 55, "duration": 4, "velocity": 83}, {"time": 3688, "pitch": 43, "duration": 9, "velocity": 85}, {"time": 3694, "pitch": 55, "duration": 1, "velocity": 82}, {"time": 3694, "pitch": 58, "duration": 4, "velocity": 96}, {"time": 3694, "pitch": 62, "duration": 6, "velocity": 83}, {"time": 3697, "pitch": 55, "duration": 4, "velocity": 83}, {"time": 3700, "pitch": 50, "duration": 8, "velocity": 83}, {"time": 3706, "pitch": 55, "duration": 3, "velocity": 84}, {"time": 3706, "pitch": 58, "duration": 2, "velocity": 88}, {"time": 3706, "pitch": 62, "duration": 7, "velocity": 84}, {"time": 3712, "pitch": 41, "duration": 9, "velocity": 83}, {"time": 3718, "pitch": 53, "duration": 1, "velocity": 82}, {"time": 3718, "pitch": 57, "duration": 2, "velocity": 82}, {"time": 3718, "pitch": 60, "duration": 2, "velocity": 82}, {"time": 3721, "pitch": 53, "duration": 7, "velocity": 88}, {"time": 3721, "pitch": 60, "duration": 1, "velocity": 63}, {"time": 3724, "pitch": 48, "duration": 9, "velocity": 83}, {"time": 3730, "pitch": 57, "duration": 5, "velocity": 84}, {"time": 3730, "pitch": 60, "duration": 7, "velocity": 84}, {"time": 3730, "pitch": 65, "duration": 6, "velocity": 82}, {"time": 3733, "pitch": 53, "duration": 4, "velocity": 91}, {"time": 3736, "pitch": 41, "duration": 8, "velocity": 83}, {"time": 3742, "pitch": 57, "duration": 4, "velocity": 83}, {"time": 3742, "pitch": 60, "duration": 4, "velocity": 83}, {"time": 3745, "pitch": 53, "duration": 3, "velocity": 85}, {"time": 3748, "pitch": 48, "duration": 8, "velocity": 82}, {"time": 3754, "pitch": 57, "duration": 4, "velocity": 87}, {"time": 3754, "pitch": 60, "duration": 6, "velocity": 83}, {"time": 3757, "pitch": 53, "duration": 3, "velocity": 85}, {"time": 3760, "pitch": 46, "duration": 11, "velocity": 84}, {"time": 3766, "pitch": 58, "duration": 4, "velocity": 89}, {"time": 3766, "pitch": 62, "duration": 5, "velocity": 82}, {"time": 3769, "pitch": 53, "duration": 3, "velocity": 84}, {"time": 3772, "pitch": 41, "duration": 9, "velocity": 83}, {"time": 3778, "pitch": 58, "duration": 4, "velocity": 86}, {"time": 3778, "pitch": 62, "duration": 5, "velocity": 82}, {"time": 3781, "pitch": 53, "duration": 5, "velocity": 85}, {"time": 3784, "pitch": 46, "duration": 10, "velocity": 91}, {"time": 3790, "pitch": 58, "duration": 4, "velocity": 85}, {"time": 3790, "pitch": 62, "duration": 5, "velocity": 77}, {"time": 3793, "pitch": 53, "duration": 3, "velocity": 83}, {"time": 3796, "pitch": 41, "duration": 7, "velocity": 83}, {"time": 3805, "pitch": 58, "duration": 4, "velocity": 70}, {"time": 3807, "pitch": 62, "duration": 13, "velocity": 79}, {"time": 3807, "pitch": 46, "duration": 14, "velocity": 93}, {"time": 3808, "pitch": 65, "duration": 12, "velocity": 83}, {"time": 3813, "pitch": 53, "duration": 8, "velocity": 72}, {"time": 3820, "pitch": 58, "duration": 2, "velocity": 84}, {"time": 3828, "pitch": 57, "duration": 4, "velocity": 66}, {"time": 3830, "pitch": 62, "duration": 7, "velocity": 75}, {"time": 3831, "pitch": 65, "duration": 8, "velocity": 82}, {"time": 3831, "pitch": 50, "duration": 11, "velocity": 88}, {"time": 3837, "pitch": 57, "duration": 8, "velocity": 83}, {"time": 3843, "pitch": 62, "duration": 2, "velocity": 87}, {"time": 3853, "pitch": 55, "duration": 3, "velocity": 71}, {"time": 3854, "pitch": 60, "duration": 3, "velocity": 81}, {"time": 3855, "pitch": 48, "duration": 20, "velocity": 84}, {"time": 3856, "pitch": 63, "duration": 18, "velocity": 82}, {"time": 3861, "pitch": 55, "duration": 8, "velocity": 80}, {"time": 3867, "pitch": 60, "duration": 3, "velocity": 78}, {"time": 3873, "pitch": 58, "duration": 7, "velocity": 78}, {"time": 3879, "pitch": 43, "duration": 16, "velocity": 83}, {"time": 3879, "pitch": 55, "duration": 13, "velocity": 85}, {"time": 3885, "pitch": 62, "duration": 7, "velocity": 82}, {"time": 3891, "pitch": 67, "duration": 4, "velocity": 86}, {"time": 3901, "pitch": 53, "duration": 3, "velocity": 69}, {"time": 3902, "pitch": 58, "duration": 3, "velocity": 78}, {"time": 3903, "pitch": 62, "duration": 9, "velocity": 84}, {"time": 3904, "pitch": 46, "duration": 12, "velocity": 103}, {"time": 3910, "pitch": 53, "duration": 10, "velocity": 88}, {"time": 3917, "pitch": 58, "duration": 4, "velocity": 99}, {"time": 3927, "pitch": 57, "duration": 3, "velocity": 72}, {"time": 3928, "pitch": 60, "duration": 3, "velocity": 68}, {"time": 3929, "pitch": 41, "duration": 16, "velocity": 83}, {"time": 3930, "pitch": 65, "duration": 9, "velocity": 83}, {"time": 3936, "pitch": 57, "duration": 14, "velocity": 86}, {"time": 3943, "pitch": 60, "duration": 9, "velocity": 84}, {"time": 3950, "pitch": 65, "duration": 5, "velocity": 80}, {"time": 3958, "pitch": 62, "duration": 6, "velocity": 76}, {"time": 3958, "pitch": 65, "duration": 14, "velocity": 76}, {"time": 3959, "pitch": 46, "duration": 50, "velocity": 93}, {"time": 3964, "pitch": 53, "duration": 46, "velocity": 70}, {"time": 3972, "pitch": 70, "duration": 4, "velocity": 86}, {"time": 3979, "pitch": 72, "duration": 2, "velocity": 88}, {"time": 3987, "pitch": 74, "duration": 9, "velocity": 88}, {"time": 3995, "pitch": 77, "duration": 9, "velocity": 84}, {"time": 4004, "pitch": 79, "duration": 8, "velocity": 79}, {"time": 4015, "pitch": 46, "duration": 16, "velocity": 64}, {"time": 4017, "pitch": 53, "duration": 14, "velocity": 72}, {"time": 4018, "pitch": 77, "duration": 6, "velocity": 62}, {"time": 4020, "pitch": 82, "duration": 5, "velocity": 69}, {"time": 4021, "pitch": 86, "duration": 5, "velocity": 71}], "annotations": [{"time": 17, "annotation": {"number": 64, "value": 127}, "group": "control_change"}, {"time": 62, "annotation": {"number": 64, "value": 0}, "group": "control_change"}, {"time": 69, "annotation": {"number": 64, "value": 127}, "group": "control_change"}, {"time": 110, "annotation": {"number": 64, "value": 0}, "group": "control_change"}, {"time": 112, "annotation": {"number": 64, "value": 127}, "group": "control_change"}, {"time": 135, "annotation": {"number": 64, "value": 0}, "group": "control_change"}, {"time": 137, "annotation": {"number": 64, "value": 127}, "group": "control_change"}, {"time": 158, "annotation": {"number": 64, "value": 0}, "group": "control_change"}, {"time": 160, "annotation": {"number": 64, "value": 127}, "group": "control_change"}, {"time": 183, "annotation": {"number": 64, "value": 0}, "group": "control_change"}, {"time": 184, "annotation": {"number": 64, "value": 127}, "group": "control_change"}, {"time": 205, "annotation": {"number": 64, "value": 0}, "group": "control_change"}, {"time": 207, "annotation": {"number": 64, "value": 127}, "group": "control_change"}, {"time": 230, "annotation": {"number": 64, "value": 0}, "group": "control_change"}, {"time": 233, "annotation": {"number": 64, "value": 127}, "group": "control_change"}, {"time": 254, "annotation": {"number": 64, "value": 0}, "group": "control_change"}, {"time": 256, "annotation": {"number": 64, "value": 127}, "group": "control_change"}, {"time": 277, "annotation": {"number": 64, "value": 0}, "group": "control_change"}, {"time": 279, "annotation": {"number": 64, "value": 127}, "group": "control_change"}, {"time": 303, "annotation": {"number": 64, "value": 0}, "group": "control_change"}, {"time": 305, "annotation": {"number": 64, "value": 127}, "group": "control_change"}, {"time": 327, "annotation": {"number": 64, "value": 0}, "group": "control_change"}, {"time": 328, "annotation": {"number": 64, "value": 127}, "group": "control_change"}, {"time": 352, "annotation": {"number": 64, "value": 0}, "group": "control_change"}, {"time": 354, "annotation": {"number": 64, "value": 127}, "group": "control_change"}, {"time": 399, "annotation": {"number": 64, "value": 127}, "group": "control_change"}, {"time": 422, "annotation": {"number": 64, "value": 0}, "group": "control_change"}, {"time": 426, "annotation": {"number": 64, "value": 127}, "group": "control_change"}, {"time": 442, "annotation": {"number": 64, "value": 127}, "group": "control_change"}, {"time": 445, "annotation": {"number": 64, "value": 0}, "group": "control_change"}, {"time": 448, "annotation": {"number": 64, "value": 0}, "group": "control_change"}, {"time": 449, "annotation": {"number": 64, "value": 127}, "group": "control_change"}, {"time": 471, "annotation": {"number": 64, "value": 0}, "group": "control_change"}, {"time": 472, "annotation": {"number": 64, "value": 127}, "group": "control_change"}, {"time": 496, "annotation": {"number": 64, "value": 0}, "group": "control_change"}, {"time": 499, "annotation": {"number": 64, "value": 127}, "group": "control_change"}, {"time": 539, "annotation": {"number": 64, "value": 0}, "group": "control_change"}, {"time": 589, "annotation": {"number": 64, "value": 0}, "group": "control_change"}, {"time": 593, "annotation": {"number": 64, "value": 127}, "group": "control_change"}, {"time": 638, "annotation": {"number": 64, "value": 0}, "group": "control_change"}, {"time": 640, "annotation": {"number": 64, "value": 127}, "group": "control_change"}, {"time": 688, "annotation": {"number": 64, "value": 0}, "group": "control_change"}, {"time": 690, "annotation": {"number": 64, "value": 127}, "group": "control_change"}, {"time": 734, "annotation": {"number": 64, "value": 0}, "group": "control_change"}, {"time": 736, "annotation": {"number": 64, "value": 127}, "group": "control_change"}, {"time": 758, "annotation": {"number": 64, "value": 0}, "group": "control_change"}, {"time": 760, "annotation": {"number": 64, "value": 127}, "group": "control_change"}, {"time": 782, "annotation": {"number": 64, "value": 0}, "group": "control_change"}, {"time": 785, "annotation": {"number": 64, "value": 127}, "group": "control_change"}, {"time": 806, "annotation": {"number": 64, "value": 0}, "group": "control_change"}, {"time": 808, "annotation": {"number": 64, "value": 127}, "group": "control_change"}, {"time": 829, "annotation": {"number": 64, "value": 0}, "group": "control_change"}, {"time": 832, "annotation": {"number": 64, "value": 127}, "group": "control_change"}, {"time": 854, "annotation": {"number": 64, "value": 0}, "group": "control_change"}, {"time": 855, "annotation": {"number": 64, "value": 127}, "group": "control_change"}, {"time": 879, "annotation": {"number": 64, "value": 0}, "group": "control_change"}, {"time": 881, "annotation": {"number": 64, "value": 127}, "group": "control_change"}, {"time": 901, "annotation": {"number": 64, "value": 0}, "group": "control_change"}, {"time": 903, "annotation": {"number": 64, "value": 127}, "group": "control_change"}, {"time": 924, "annotation": {"number": 64, "value": 0}, "group": "control_change"}, {"time": 973, "annotation": {"number": 64, "value": 0}, "group": "control_change"}, {"time": 977, "annotation": {"number": 64, "value": 127}, "group": "control_change"}, {"time": 1022, "annotation": {"number": 64, "value": 0}, "group": "control_change"}, {"time": 1024, "annotation": {"number": 64, "value": 127}, "group": "control_change"}, {"time": 1072, "annotation": {"number": 64, "value": 0}, "group": "control_change"}, {"time": 1074, "annotation": {"number": 64, "value": 127}, "group": "control_change"}, {"time": 1118, "annotation": {"number": 64, "value": 0}, "group": "control_change"}, {"time": 1120, "annotation": {"number": 64, "value": 127}, "group": "control_change"}, {"time": 1142, "annotation": {"number": 64, "value": 0}, "group": "control_change"}, {"time": 1144, "annotation": {"number": 64, "value": 127}, "group": "control_change"}, {"time": 1166, "annotation": {"number": 64, "value": 0}, "group": "control_change"}, {"time": 1169, "annotation": {"number": 64, "value": 127}, "group": "control_change"}, {"time": 1190, "annotation": {"number": 64, "value": 0}, "group": "control_change"}, {"time": 1192, "annotation": {"number": 64, "value": 127}, "group": "control_change"}, {"time": 1213, "annotation": {"number": 64, "value": 0}, "group": "control_change"}, {"time": 1215, "annotation": {"number": 64, "value": 127}, "group": "control_change"}, {"time": 1216, "annotation": {"number": 64, "value": 127}, "group": "control_change"}, {"time": 1239, "annotation": {"number": 64, "value": 0}, "group": "control_change"}, {"time": 1242, "annotation": {"number": 64, "value": 127}, "group": "control_change"}, {"time": 1261, "annotation": {"number": 64, "value": 0}, "group": "control_change"}, {"time": 1263, "annotation": {"number": 64, "value": 127}, "group": "control_change"}, {"time": 1286, "annotation": {"number": 64, "value": 0}, "group": "control_change"}, {"time": 1287, "annotation": {"number": 64, "value": 127}, "group": "control_change"}, {"time": 1310, "annotation": {"number": 64, "value": 0}, "group": "control_change"}, {"time": 1313, "annotation": {"number": 64, "value": 127}, "group": "control_change"}, {"time": 1313, "annotation": {"number": 64, "value": 0}, "group": "control_change"}, {"time": 1333, "annotation": {"number": 64, "value": 0}, "group": "control_change"}, {"time": 1336, "annotation": {"number": 64, "value": 127}, "group": "control_change"}, {"time": 1358, "annotation": {"number": 64, "value": 0}, "group": "control_change"}, {"time": 1360, "annotation": {"number": 64, "value": 127}, "group": "control_change"}, {"time": 1381, "annotation": {"number": 64, "value": 0}, "group": "control_change"}, {"time": 1383, "annotation": {"number": 64, "value": 127}, "group": "control_change"}, {"time": 1405, "annotation": {"number": 64, "value": 0}, "group": "control_change"}, {"time": 1407, "annotation": {"number": 64, "value": 127}, "group": "control_change"}, {"time": 1431, "annotation": {"number": 64, "value": 0}, "group": "control_change"}, {"time": 1433, "annotation": {"number": 64, "value": 127}, "group": "control_change"}, {"time": 1455, "annotation": {"number": 64, "value": 0}, "group": "control_change"}, {"time": 1458, "annotation": {"number": 64, "value": 127}, "group": "control_change"}, {"time": 1466, "annotation": {"number": 64, "value": 0}, "group": "control_change"}, {"time": 1469, "annotation": {"number": 64, "value": 127}, "group": "control_change"}, {"time": 1477, "annotation": {"number": 64, "value": 0}, "group": "control_change"}, {"time": 1479, "annotation": {"number": 64, "value": 127}, "group": "control_change"}, {"time": 1501, "annotation": {"number": 64, "value": 0}, "group": "control_change"}, {"time": 1503, "annotation": {"number": 64, "value": 127}, "group": "control_change"}, {"time": 1525, "annotation": {"number": 64, "value": 0}, "group": "control_change"}, {"time": 1527, "annotation": {"number": 64, "value": 127}, "group": "control_change"}, {"time": 1550, "annotation": {"number": 64, "value": 0}, "group": "control_change"}, {"time": 1552, "annotation": {"number": 64, "value": 127}, "group": "control_change"}, {"time": 1563, "annotation": {"number": 64, "value": 0}, "group": "control_change"}, {"time": 1567, "annotation": {"number": 64, "value": 127}, "group": "control_change"}, {"time": 1573, "annotation": {"number": 64, "value": 0}, "group": "control_change"}, {"time": 1576, "annotation": {"number": 64, "value": 127}, "group": "control_change"}, {"time": 1598, "annotation": {"number": 64, "value": 0}, "group": "control_change"}, {"time": 1600, "annotation": {"number": 64, "value": 127}, "group": "control_change"}, {"time": 1623, "annotation": {"number": 64, "value": 0}, "group": "control_change"}, {"time": 1626, "annotation": {"number": 64, "value": 127}, "group": "control_change"}, {"time": 1646, "annotation": {"number": 64, "value": 0}, "group": "control_change"}, {"time": 1648, "annotation": {"number": 64, "value": 127}, "group": "control_change"}, {"time": 1670, "annotation": {"number": 64, "value": 0}, "group": "control_change"}, {"time": 1672, "annotation": {"number": 64, "value": 127}, "group": "control_change"}, {"time": 1693, "annotation": {"number": 64, "value": 0}, "group": "control_change"}, {"time": 1696, "annotation": {"number": 64, "value": 127}, "group": "control_change"}, {"time": 1706, "annotation": {"number": 64, "value": 0}, "group": "control_change"}, {"time": 1708, "annotation": {"number": 64, "value": 127}, "group": "control_change"}, {"time": 1716, "annotation": {"number": 64, "value": 0}, "group": "control_change"}, {"time": 1719, "annotation": {"number": 64, "value": 127}, "group": "control_change"}, {"time": 1729, "annotation": {"number": 64, "value": 0}, "group": "control_change"}, {"time": 1731, "annotation": {"number": 64, "value": 127}, "group": "control_change"}, {"time": 1741, "annotation": {"number": 64, "value": 0}, "group": "control_change"}, {"time": 1743, "annotation": {"number": 64, "value": 127}, "group": "control_change"}, {"time": 1754, "annotation": {"number": 64, "value": 0}, "group": "control_change"}, {"time": 1756, "annotation": {"number": 64, "value": 127}, "group": "control_change"}, {"time": 1766, "annotation": {"number": 64, "value": 0}, "group": "control_change"}, {"time": 1768, "annotation": {"number": 64, "value": 127}, "group": "control_change"}, {"time": 1790, "annotation": {"number": 64, "value": 0}, "group": "control_change"}, {"time": 1792, "annotation": {"number": 64, "value": 127}, "group": "control_change"}, {"time": 1813, "annotation": {"number": 64, "value": 0}, "group": "control_change"}, {"time": 1816, "annotation": {"number": 64, "value": 127}, "group": "control_change"}, {"time": 1837, "annotation": {"number": 64, "value": 0}, "group": "control_change"}, {"time": 1840, "annotation": {"number": 64, "value": 127}, "group": "control_change"}, {"time": 1861, "annotation": {"number": 64, "value": 0}, "group": "control_change"}, {"time": 1864, "annotation": {"number": 64, "value": 127}, "group": "control_change"}, {"time": 1883, "annotation": {"number": 64, "value": 0}, "group": "control_change"}, {"time": 1887, "annotation": {"number": 64, "value": 127}, "group": "control_change"}, {"time": 1934, "annotation": {"number": 64, "value": 0}, "group": "control_change"}, {"time": 1937, "annotation": {"number": 64, "value": 127}, "group": "control_change"}, {"time": 1982, "annotation": {"number": 64, "value": 0}, "group": "control_change"}, {"time": 1985, "annotation": {"number": 64, "value": 127}, "group": "control_change"}, {"time": 2029, "annotation": {"number": 64, "value": 0}, "group": "control_change"}, {"time": 2032, "annotation": {"number": 64, "value": 127}, "group": "control_change"}, {"time": 2079, "annotation": {"number": 64, "value": 0}, "group": "control_change"}, {"time": 2080, "annotation": {"number": 64, "value": 127}, "group": "control_change"}, {"time": 2104, "annotation": {"number": 64, "value": 0}, "group": "control_change"}, {"time": 2106, "annotation": {"number": 64, "value": 127}, "group": "control_change"}, {"time": 2126, "annotation": {"number": 64, "value": 0}, "group": "control_change"}, {"time": 2128, "annotation": {"number": 64, "value": 127}, "group": "control_change"}, {"time": 2150, "annotation": {"number": 64, "value": 0}, "group": "control_change"}, {"time": 2153, "annotation": {"number": 64, "value": 127}, "group": "control_change"}, {"time": 2174, "annotation": {"number": 64, "value": 0}, "group": "control_change"}, {"time": 2176, "annotation": {"number": 64, "value": 127}, "group": "control_change"}, {"time": 2198, "annotation": {"number": 64, "value": 0}, "group": "control_change"}, {"time": 2200, "annotation": {"number": 64, "value": 127}, "group": "control_change"}, {"time": 2223, "annotation": {"number": 64, "value": 0}, "group": "control_change"}, {"time": 2225, "annotation": {"number": 64, "value": 127}, "group": "control_change"}, {"time": 2268, "annotation": {"number": 64, "value": 0}, "group": "control_change"}, {"time": 2317, "annotation": {"number": 64, "value": 0}, "group": "control_change"}, {"time": 2321, "annotation": {"number": 64, "value": 127}, "group": "control_change"}, {"time": 2366, "annotation": {"number": 64, "value": 0}, "group": "control_change"}, {"time": 2368, "annotation": {"number": 64, "value": 127}, "group": "control_change"}, {"time": 2416, "annotation": {"number": 64, "value": 0}, "group": "control_change"}, {"time": 2418, "annotation": {"number": 64, "value": 127}, "group": "control_change"}, {"time": 2462, "annotation": {"number": 64, "value": 0}, "group": "control_change"}, {"time": 2464, "annotation": {"number": 64, "value": 127}, "group": "control_change"}, {"time": 2486, "annotation": {"number": 64, "value": 0}, "group": "control_change"}, {"time": 2488, "annotation": {"number": 64, "value": 127}, "group": "control_change"}, {"time": 2510, "annotation": {"number": 64, "value": 0}, "group": "control_change"}, {"time": 2513, "annotation": {"number": 64, "value": 127}, "group": "control_change"}, {"time": 2534, "annotation": {"number": 64, "value": 0}, "group": "control_change"}, {"time": 2536, "annotation": {"number": 64, "value": 127}, "group": "control_change"}, {"time": 2557, "annotation": {"number": 64, "value": 0}, "group": "control_change"}, {"time": 2559, "annotation": {"number": 64, "value": 127}, "group": "control_change"}, {"time": 2560, "annotation": {"number": 64, "value": 127}, "group": "control_change"}, {"time": 2583, "annotation": {"number": 64, "value": 0}, "group": "control_change"}, {"time": 2586, "annotation": {"number": 64, "value": 127}, "group": "control_change"}, {"time": 2605, "annotation": {"number": 64, "value": 0}, "group": "control_change"}, {"time": 2607, "annotation": {"number": 64, "value": 127}, "group": "control_change"}, {"time": 2630, "annotation": {"number": 64, "value": 0}, "group": "control_change"}, {"time": 2631, "annotation": {"number": 64, "value": 127}, "group": "control_change"}, {"time": 2654, "annotation": {"number": 64, "value": 0}, "group": "control_change"}, {"time": 2657, "annotation": {"number": 64, "value": 127}, "group": "control_change"}, {"time": 2657, "annotation": {"number": 64, "value": 0}, "group": "control_change"}, {"time": 2677, "annotation": {"number": 64, "value": 0}, "group": "control_change"}, {"time": 2680, "annotation": {"number": 64, "value": 127}, "group": "control_change"}, {"time": 2702, "annotation": {"number": 64, "value": 0}, "group": "control_change"}, {"time": 2704, "annotation": {"number": 64, "value": 127}, "group": "control_change"}, {"time": 2725, "annotation": {"number": 64, "value": 0}, "group": "control_change"}, {"time": 2727, "annotation": {"number": 64, "value": 127}, "group": "control_change"}, {"time": 2749, "annotation": {"number": 64, "value": 0}, "group": "control_change"}, {"time": 2751, "annotation": {"number": 64, "value": 127}, "group": "control_change"}, {"time": 2775, "annotation": {"number": 64, "value": 0}, "group": "control_change"}, {"time": 2777, "annotation": {"number": 64, "value": 127}, "group": "control_change"}, {"time": 2799, "annotation": {"number": 64, "value": 0}, "group": "control_change"}, {"time": 2802, "annotation": {"number": 64, "value": 127}, "group": "control_change"}, {"time": 2810, "annotation": {"number": 64, "value": 0}, "group": "control_change"}, {"time": 2813, "annotation": {"number": 64, "value": 127}, "group": "control_change"}, {"time": 2821, "annotation": {"number": 64, "value": 0}, "group": "control_change"}, {"time": 2823, "annotation": {"number": 64, "value": 127}, "group": "control_change"}, {"time": 2845, "annotation": {"number": 64, "value": 0}, "group": "control_change"}, {"time": 2847, "annotation": {"number": 64, "value": 127}, "group": "control_change"}, {"time": 2869, "annotation": {"number": 64, "value": 0}, "group": "control_change"}, {"time": 2871, "annotation": {"number": 64, "value": 127}, "group": "control_change"}, {"time": 2894, "annotation": {"number": 64, "value": 0}, "group": "control_change"}, {"time": 2896, "annotation": {"number": 64, "value": 127}, "group": "control_change"}, {"time": 2907, "annotation": {"number": 64, "value": 0}, "group": "control_change"}, {"time": 2911, "annotation": {"number": 64, "value": 127}, "group": "control_change"}, {"time": 2917, "annotation": {"number": 64, "value": 0}, "group": "control_change"}, {"time": 2920, "annotation": {"number": 64, "value": 127}, "group": "control_change"}, {"time": 2942, "annotation": {"number": 64, "value": 0}, "group": "control_change"}, {"time": 2944, "annotation": {"number": 64, "value": 127}, "group": "control_change"}, {"time": 2967, "annotation": {"number": 64, "value": 0}, "group": "control_change"}, {"time": 2970, "annotation": {"number": 64, "value": 127}, "group": "control_change"}, {"time": 2990, "annotation": {"number": 64, "value": 0}, "group": "control_change"}, {"time": 2992, "annotation": {"number": 64, "value": 127}, "group": "control_change"}, {"time": 3014, "annotation": {"number": 64, "value": 0}, "group": "control_change"}, {"time": 3016, "annotation": {"number": 64, "value": 127}, "group": "control_change"}, {"time": 3037, "annotation": {"number": 64, "value": 0}, "group": "control_change"}, {"time": 3040, "annotation": {"number": 64, "value": 127}, "group": "control_change"}, {"time": 3050, "annotation": {"number": 64, "value": 0}, "group": "control_change"}, {"time": 3052, "annotation": {"number": 64, "value": 127}, "group": "control_change"}, {"time": 3060, "annotation": {"number": 64, "value": 0}, "group": "control_change"}, {"time": 3063, "annotation": {"number": 64, "value": 127}, "group": "control_change"}, {"time": 3073, "annotation": {"number": 64, "value": 0}, "group": "control_change"}, {"time": 3075, "annotation": {"number": 64, "value": 127}, "group": "control_change"}, {"time": 3085, "annotation": {"number": 64, "value": 0}, "group": "control_change"}, {"time": 3087, "annotation": {"number": 64, "value": 127}, "group": "control_change"}, {"time": 3098, "annotation": {"number": 64, "value": 0}, "group": "control_change"}, {"time": 3100, "annotation": {"number": 64, "value": 127}, "group": "control_change"}, {"time": 3110, "annotation": {"number": 64, "value": 0}, "group": "control_change"}, {"time": 3112, "annotation": {"number": 64, "value": 127}, "group": "control_change"}, {"time": 3134, "annotation": {"number": 64, "value": 0}, "group": "control_change"}, {"time": 3136, "annotation": {"number": 64, "value": 127}, "group": "control_change"}, {"time": 3157, "annotation": {"number": 64, "value": 0}, "group": "control_change"}, {"time": 3160, "annotation": {"number": 64, "value": 127}, "group": "control_change"}, {"time": 3181, "annotation": {"number": 64, "value": 0}, "group": "control_change"}, {"time": 3184, "annotation": {"number": 64, "value": 127}, "group": "control_change"}, {"time": 3205, "annotation": {"number": 64, "value": 0}, "group": "control_change"}, {"time": 3208, "annotation": {"number": 64, "value": 127}, "group": "control_change"}, {"time": 3227, "annotation": {"number": 64, "value": 0}, "group": "control_change"}, {"time": 3231, "annotation": {"number": 64, "value": 127}, "group": "control_change"}, {"time": 3233, "annotation": {"number": 64, "value": 127}, "group": "control_change"}, {"time": 3233, "annotation": {"number": 64, "value": 0}, "group": "control_change"}, {"time": 3253, "annotation": {"number": 64, "value": 0}, "group": "control_change"}, {"time": 3256, "annotation": {"number": 64, "value": 127}, "group": "control_change"}, {"time": 3278, "annotation": {"number": 64, "value": 0}, "group": "control_change"}, {"time": 3280, "annotation": {"number": 64, "value": 127}, "group": "control_change"}, {"time": 3301, "annotation": {"number": 64, "value": 0}, "group": "control_change"}, {"time": 3303, "annotation": {"number": 64, "value": 127}, "group": "control_change"}, {"time": 3325, "annotation": {"number": 64, "value": 0}, "group": "control_change"}, {"time": 3327, "annotation": {"number": 64, "value": 127}, "group": "control_change"}, {"time": 3351, "annotation": {"number": 64, "value": 0}, "group": "control_change"}, {"time": 3353, "annotation": {"number": 64, "value": 127}, "group": "control_change"}, {"time": 3375, "annotation": {"number": 64, "value": 0}, "group": "control_change"}, {"time": 3378, "annotation": {"number": 64, "value": 127}, "group": "control_change"}, {"time": 3386, "annotation": {"number": 64, "value": 0}, "group": "control_change"}, {"time": 3389, "annotation": {"number": 64, "value": 127}, "group": "control_change"}, {"time": 3397, "annotation": {"number": 64, "value": 0}, "group": "control_change"}, {"time": 3399, "annotation": {"number": 64, "value": 127}, "group": "control_change"}, {"time": 3421, "annotation": {"number": 64, "value": 0}, "group": "control_change"}, {"time": 3423, "annotation": {"number": 64, "value": 127}, "group": "control_change"}, {"time": 3445, "annotation": {"number": 64, "value": 0}, "group": "control_change"}, {"time": 3447, "annotation": {"number": 64, "value": 127}, "group": "control_change"}, {"time": 3470, "annotation": {"number": 64, "value": 0}, "group": "control_change"}, {"time": 3472, "annotation": {"number": 64, "value": 127}, "group": "control_change"}, {"time": 3483, "annotation": {"number": 64, "value": 0}, "group": "control_change"}, {"time": 3487, "annotation": {"number": 64, "value": 127}, "group": "control_change"}, {"time": 3493, "annotation": {"number": 64, "value": 0}, "group": "control_change"}, {"time": 3496, "annotation": {"number": 64, "value": 127}, "group": "control_change"}, {"time": 3518, "annotation": {"number": 64, "value": 0}, "group": "control_change"}, {"time": 3520, "annotation": {"number": 64, "value": 127}, "group": "control_change"}, {"time": 3543, "annotation": {"number": 64, "value": 0}, "group": "control_change"}, {"time": 3546, "annotation": {"number": 64, "value": 127}, "group": "control_change"}, {"time": 3566, "annotation": {"number": 64, "value": 0}, "group": "control_change"}, {"time": 3568, "annotation": {"number": 64, "value": 127}, "group": "control_change"}, {"time": 3590, "annotation": {"number": 64, "value": 0}, "group": "control_change"}, {"time": 3592, "annotation": {"number": 64, "value": 127}, "group": "control_change"}, {"time": 3613, "annotation": {"number": 64, "value": 0}, "group": "control_change"}, {"time": 3616, "annotation": {"number": 64, "value": 127}, "group": "control_change"}, {"time": 3626, "annotation": {"number": 64, "value": 0}, "group": "control_change"}, {"time": 3628, "annotation": {"number": 64, "value": 127}, "group": "control_change"}, {"time": 3636, "annotation": {"number": 64, "value": 0}, "group": "control_change"}, {"time": 3639, "annotation": {"number": 64, "value": 127}, "group": "control_change"}, {"time": 3649, "annotation": {"number": 64, "value": 0}, "group": "control_change"}, {"time": 3651, "annotation": {"number": 64, "value": 127}, "group": "control_change"}, {"time": 3661, "annotation": {"number": 64, "value": 0}, "group": "control_change"}, {"time": 3663, "annotation": {"number": 64, "value": 127}, "group": "control_change"}, {"time": 3674, "annotation": {"number": 64, "value": 0}, "group": "control_change"}, {"time": 3676, "annotation": {"number": 64, "value": 127}, "group": "control_change"}, {"time": 3686, "annotation": {"number": 64, "value": 0}, "group": "control_change"}, {"time": 3688, "annotation": {"number": 64, "value": 127}, "group": "control_change"}, {"time": 3710, "annotation": {"number": 64, "value": 0}, "group": "control_change"}, {"time": 3712, "annotation": {"number": 64, "value": 127}, "group": "control_change"}, {"time": 3733, "annotation": {"number": 64, "value": 0}, "group": "control_change"}, {"time": 3736, "annotation": {"number": 64, "value": 127}, "group": "control_change"}, {"time": 3757, "annotation": {"number": 64, "value": 0}, "group": "control_change"}, {"time": 3760, "annotation": {"number": 64, "value": 127}, "group": "control_change"}, {"time": 3781, "annotation": {"number": 64, "value": 0}, "group": "control_change"}, {"time": 3784, "annotation": {"number": 64, "value": 127}, "group": "control_change"}, {"time": 3803, "annotation": {"number": 64, "value": 0}, "group": "control_change"}, {"time": 3807, "annotation": {"number": 64, "value": 127}, "group": "control_change"}, {"time": 3808, "annotation": {"number": 64, "value": 127}, "group": "control_change"}, {"time": 3830, "annotation": {"number": 64, "value": 0}, "group": "control_change"}, {"time": 3832, "annotation": {"number": 64, "value": 127}, "group": "control_change"}, {"time": 3853, "annotation": {"number": 64, "value": 0}, "group": "control_change"}, {"time": 3855, "annotation": {"number": 64, "value": 127}, "group": "control_change"}, {"time": 3878, "annotation": {"number": 64, "value": 0}, "group": "control_change"}, {"time": 3880, "annotation": {"number": 64, "value": 127}, "group": "control_change"}, {"time": 3901, "annotation": {"number": 64, "value": 0}, "group": "control_change"}, {"time": 3904, "annotation": {"number": 64, "value": 127}, "group": "control_change"}, {"time": 3927, "annotation": {"number": 64, "value": 0}, "group": "control_change"}, {"time": 3929, "annotation": {"number": 64, "value": 127}, "group": "control_change"}, {"time": 3958, "annotation": {"number": 64, "value": 0}, "group": "control_change"}, {"time": 3960, "annotation": {"number": 64, "value": 127}, "group": "control_change"}]}]}