{"metadata": {"schema_version": "0.2", "title": "None", "source_filename": "809.mid", "source_format": "midi"}, "resolution": 12, "tempos": [{"time": 0, "qpm": 120.0}], "time_signatures": [{"time": 0, "numerator": 1, "denominator": 4}], "tracks": [{"program": 0, "is_drum": false, "name": "MELODY", "notes": [{"time": 802, "pitch": 66, "duration": 5, "velocity": 85}, {"time": 808, "pitch": 71, "duration": 9, "velocity": 84}, {"time": 820, "pitch": 71, "duration": 9, "velocity": 87}, {"time": 832, "pitch": 71, "duration": 9, "velocity": 85}, {"time": 844, "pitch": 73, "duration": 4, "velocity": 81}, {"time": 850, "pitch": 74, "duration": 4, "velocity": 85}, {"time": 856, "pitch": 73, "duration": 4, "velocity": 90}, {"time": 862, "pitch": 71, "duration": 4, "velocity": 85}, {"time": 868, "pitch": 69, "duration": 8, "velocity": 85}, {"time": 880, "pitch": 69, "duration": 8, "velocity": 84}, {"time": 892, "pitch": 71, "duration": 4, "velocity": 85}, {"time": 898, "pitch": 73, "duration": 6, "velocity": 85}, {"time": 904, "pitch": 71, "duration": 9, "velocity": 85}, {"time": 916, "pitch": 66, "duration": 9, "velocity": 88}, {"time": 928, "pitch": 66, "duration": 10, "velocity": 85}, {"time": 946, "pitch": 64, "duration": 6, "velocity": 87}, {"time": 952, "pitch": 66, "duration": 36, "velocity": 86}, {"time": 1000, "pitch": 69, "duration": 8, "velocity": 83}, {"time": 1012, "pitch": 69, "duration": 10, "velocity": 85}, {"time": 1024, "pitch": 69, "duration": 4, "velocity": 83}, {"time": 1030, "pitch": 66, "duration": 5, "velocity": 82}, {"time": 1036, "pitch": 64, "duration": 5, "velocity": 88}, {"time": 1042, "pitch": 66, "duration": 5, "velocity": 78}, {"time": 1048, "pitch": 69, "duration": 9, "velocity": 82}, {"time": 1060, "pitch": 71, "duration": 4, "velocity": 79}, {"time": 1066, "pitch": 73, "duration": 4, "velocity": 83}, {"time": 1072, "pitch": 74, "duration": 9, "velocity": 86}, {"time": 1084, "pitch": 73, "duration": 5, "velocity": 87}, {"time": 1090, "pitch": 71, "duration": 5, "velocity": 83}, {"time": 1096, "pitch": 73, "duration": 11, "velocity": 86}, {"time": 1108, "pitch": 69, "duration": 3, "velocity": 78}, {"time": 1114, "pitch": 69, "duration": 3, "velocity": 82}, {"time": 1120, "pitch": 69, "duration": 4, "velocity": 83}, {"time": 1126, "pitch": 71, "duration": 4, "velocity": 84}, {"time": 1132, "pitch": 73, "duration": 10, "velocity": 83}, {"time": 1144, "pitch": 71, "duration": 38, "velocity": 83}, {"time": 1192, "pitch": 73, "duration": 9, "velocity": 85}, {"time": 1204, "pitch": 73, "duration": 11, "velocity": 84}, {"time": 1216, "pitch": 74, "duration": 9, "velocity": 84}, {"time": 1228, "pitch": 74, "duration": 9, "velocity": 86}, {"time": 1240, "pitch": 76, "duration": 9, "velocity": 85}, {"time": 1252, "pitch": 76, "duration": 6, "velocity": 84}, {"time": 1258, "pitch": 76, "duration": 6, "velocity": 84}, {"time": 1264, "pitch": 78, "duration": 12, "velocity": 84}, {"time": 1276, "pitch": 76, "duration": 5, "velocity": 88}, {"time": 1282, "pitch": 78, "duration": 5, "velocity": 84}, {"time": 1288, "pitch": 81, "duration": 8, "velocity": 84}, {"time": 1300, "pitch": 81, "duration": 9, "velocity": 84}, {"time": 1312, "pitch": 78, "duration": 16, "velocity": 94}, {"time": 1330, "pitch": 76, "duration": 12, "velocity": 85}, {"time": 1342, "pitch": 74, "duration": 36, "velocity": 87}, {"time": 1384, "pitch": 78, "duration": 10, "velocity": 87}, {"time": 1396, "pitch": 74, "duration": 8, "velocity": 89}, {"time": 1408, "pitch": 76, "duration": 9, "velocity": 83}, {"time": 1420, "pitch": 73, "duration": 9, "velocity": 89}, {"time": 1432, "pitch": 74, "duration": 4, "velocity": 85}, {"time": 1438, "pitch": 76, "duration": 5, "velocity": 79}, {"time": 1444, "pitch": 74, "duration": 6, "velocity": 88}, {"time": 1450, "pitch": 73, "duration": 6, "velocity": 81}, {"time": 1456, "pitch": 71, "duration": 9, "velocity": 84}, {"time": 1468, "pitch": 73, "duration": 4, "velocity": 78}, {"time": 1474, "pitch": 74, "duration": 5, "velocity": 84}, {"time": 1480, "pitch": 73, "duration": 12, "velocity": 81}, {"time": 1492, "pitch": 69, "duration": 9, "velocity": 84}, {"time": 1504, "pitch": 69, "duration": 4, "velocity": 83}, {"time": 1510, "pitch": 71, "duration": 4, "velocity": 79}, {"time": 1516, "pitch": 73, "duration": 11, "velocity": 84}, {"time": 1528, "pitch": 71, "duration": 36, "velocity": 84}, {"time": 1570, "pitch": 66, "duration": 5, "velocity": 85}, {"time": 1576, "pitch": 71, "duration": 9, "velocity": 84}, {"time": 1588, "pitch": 71, "duration": 9, "velocity": 87}, {"time": 1600, "pitch": 71, "duration": 9, "velocity": 85}, {"time": 1612, "pitch": 73, "duration": 4, "velocity": 81}, {"time": 1618, "pitch": 74, "duration": 4, "velocity": 85}, {"time": 1624, "pitch": 73, "duration": 4, "velocity": 90}, {"time": 1630, "pitch": 71, "duration": 4, "velocity": 85}, {"time": 1636, "pitch": 69, "duration": 8, "velocity": 85}, {"time": 1648, "pitch": 69, "duration": 8, "velocity": 84}, {"time": 1660, "pitch": 71, "duration": 4, "velocity": 85}, {"time": 1666, "pitch": 73, "duration": 6, "velocity": 85}, {"time": 1672, "pitch": 71, "duration": 9, "velocity": 85}, {"time": 1684, "pitch": 66, "duration": 9, "velocity": 88}, {"time": 1696, "pitch": 66, "duration": 10, "velocity": 85}, {"time": 1714, "pitch": 64, "duration": 6, "velocity": 87}, {"time": 1720, "pitch": 66, "duration": 36, "velocity": 86}, {"time": 1768, "pitch": 69, "duration": 8, "velocity": 83}, {"time": 1780, "pitch": 69, "duration": 10, "velocity": 85}, {"time": 1792, "pitch": 69, "duration": 4, "velocity": 83}, {"time": 1798, "pitch": 66, "duration": 5, "velocity": 82}, {"time": 1804, "pitch": 64, "duration": 5, "velocity": 88}, {"time": 1810, "pitch": 66, "duration": 5, "velocity": 78}, {"time": 1816, "pitch": 69, "duration": 9, "velocity": 82}, {"time": 1828, "pitch": 71, "duration": 4, "velocity": 79}, {"time": 1834, "pitch": 73, "duration": 4, "velocity": 83}, {"time": 1840, "pitch": 74, "duration": 9, "velocity": 86}, {"time": 1852, "pitch": 73, "duration": 5, "velocity": 87}, {"time": 1858, "pitch": 71, "duration": 5, "velocity": 83}, {"time": 1864, "pitch": 73, "duration": 11, "velocity": 86}, {"time": 1876, "pitch": 69, "duration": 3, "velocity": 78}, {"time": 1882, "pitch": 69, "duration": 3, "velocity": 82}, {"time": 1888, "pitch": 69, "duration": 4, "velocity": 83}, {"time": 1894, "pitch": 71, "duration": 4, "velocity": 84}, {"time": 1900, "pitch": 73, "duration": 10, "velocity": 83}, {"time": 1912, "pitch": 71, "duration": 38, "velocity": 83}, {"time": 1960, "pitch": 73, "duration": 9, "velocity": 85}, {"time": 1972, "pitch": 73, "duration": 11, "velocity": 84}, {"time": 1984, "pitch": 74, "duration": 9, "velocity": 84}, {"time": 1996, "pitch": 74, "duration": 9, "velocity": 86}, {"time": 2008, "pitch": 76, "duration": 9, "velocity": 85}, {"time": 2020, "pitch": 76, "duration": 6, "velocity": 84}, {"time": 2026, "pitch": 76, "duration": 6, "velocity": 84}, {"time": 2032, "pitch": 78, "duration": 12, "velocity": 84}, {"time": 2044, "pitch": 76, "duration": 5, "velocity": 88}, {"time": 2050, "pitch": 78, "duration": 5, "velocity": 84}, {"time": 2056, "pitch": 81, "duration": 8, "velocity": 84}, {"time": 2068, "pitch": 81, "duration": 9, "velocity": 84}, {"time": 2080, "pitch": 78, "duration": 16, "velocity": 94}, {"time": 2098, "pitch": 76, "duration": 12, "velocity": 85}, {"time": 2110, "pitch": 74, "duration": 36, "velocity": 87}, {"time": 2152, "pitch": 78, "duration": 10, "velocity": 87}, {"time": 2164, "pitch": 74, "duration": 8, "velocity": 89}, {"time": 2176, "pitch": 76, "duration": 9, "velocity": 83}, {"time": 2188, "pitch": 73, "duration": 9, "velocity": 89}, {"time": 2200, "pitch": 74, "duration": 4, "velocity": 85}, {"time": 2206, "pitch": 76, "duration": 5, "velocity": 79}, {"time": 2212, "pitch": 74, "duration": 6, "velocity": 88}, {"time": 2218, "pitch": 73, "duration": 6, "velocity": 81}, {"time": 2224, "pitch": 71, "duration": 9, "velocity": 84}, {"time": 2236, "pitch": 73, "duration": 4, "velocity": 78}, {"time": 2242, "pitch": 74, "duration": 5, "velocity": 84}, {"time": 2248, "pitch": 73, "duration": 12, "velocity": 81}, {"time": 2260, "pitch": 69, "duration": 9, "velocity": 84}, {"time": 2272, "pitch": 69, "duration": 4, "velocity": 83}, {"time": 2278, "pitch": 71, "duration": 4, "velocity": 79}, {"time": 2284, "pitch": 73, "duration": 11, "velocity": 84}, {"time": 2296, "pitch": 71, "duration": 36, "velocity": 84}, {"time": 2344, "pitch": 73, "duration": 14, "velocity": 86}, {"time": 2362, "pitch": 66, "duration": 4, "velocity": 85}, {"time": 2368, "pitch": 73, "duration": 9, "velocity": 78}, {"time": 2380, "pitch": 76, "duration": 4, "velocity": 84}, {"time": 2386, "pitch": 74, "duration": 5, "velocity": 89}, {"time": 2392, "pitch": 73, "duration": 13, "velocity": 87}, {"time": 2410, "pitch": 73, "duration": 5, "velocity": 79}, {"time": 2416, "pitch": 74, "duration": 9, "velocity": 87}, {"time": 2428, "pitch": 76, "duration": 11, "velocity": 83}, {"time": 2440, "pitch": 74, "duration": 16, "velocity": 85}, {"time": 2458, "pitch": 74, "duration": 3, "velocity": 89}, {"time": 2464, "pitch": 76, "duration": 9, "velocity": 87}, {"time": 2476, "pitch": 78, "duration": 11, "velocity": 87}, {"time": 2488, "pitch": 76, "duration": 40, "velocity": 89}, {"time": 2536, "pitch": 78, "duration": 13, "velocity": 87}, {"time": 2554, "pitch": 78, "duration": 6, "velocity": 94}, {"time": 2560, "pitch": 76, "duration": 9, "velocity": 85}, {"time": 2572, "pitch": 74, "duration": 9, "velocity": 94}, {"time": 2584, "pitch": 76, "duration": 24, "velocity": 85}, {"time": 2608, "pitch": 69, "duration": 18, "velocity": 85}, {"time": 2632, "pitch": 74, "duration": 10, "velocity": 80}, {"time": 2644, "pitch": 71, "duration": 4, "velocity": 86}, {"time": 2650, "pitch": 73, "duration": 5, "velocity": 82}, {"time": 2656, "pitch": 74, "duration": 7, "velocity": 90}, {"time": 2668, "pitch": 76, "duration": 5, "velocity": 83}, {"time": 2674, "pitch": 74, "duration": 5, "velocity": 86}, {"time": 2680, "pitch": 73, "duration": 37, "velocity": 79}, {"time": 2722, "pitch": 66, "duration": 5, "velocity": 85}, {"time": 2728, "pitch": 71, "duration": 9, "velocity": 84}, {"time": 2740, "pitch": 71, "duration": 6, "velocity": 87}, {"time": 2746, "pitch": 71, "duration": 6, "velocity": 87}, {"time": 2752, "pitch": 71, "duration": 9, "velocity": 85}, {"time": 2764, "pitch": 73, "duration": 4, "velocity": 81}, {"time": 2770, "pitch": 74, "duration": 4, "velocity": 85}, {"time": 2776, "pitch": 73, "duration": 4, "velocity": 90}, {"time": 2782, "pitch": 71, "duration": 4, "velocity": 85}, {"time": 2788, "pitch": 69, "duration": 8, "velocity": 85}, {"time": 2800, "pitch": 69, "duration": 8, "velocity": 84}, {"time": 2812, "pitch": 71, "duration": 4, "velocity": 85}, {"time": 2818, "pitch": 73, "duration": 6, "velocity": 85}, {"time": 2824, "pitch": 71, "duration": 9, "velocity": 85}, {"time": 2836, "pitch": 66, "duration": 9, "velocity": 88}, {"time": 2848, "pitch": 66, "duration": 10, "velocity": 85}, {"time": 2866, "pitch": 64, "duration": 6, "velocity": 87}, {"time": 2872, "pitch": 66, "duration": 36, "velocity": 86}, {"time": 2920, "pitch": 69, "duration": 8, "velocity": 83}, {"time": 2932, "pitch": 69, "duration": 10, "velocity": 85}, {"time": 2944, "pitch": 69, "duration": 4, "velocity": 83}, {"time": 2950, "pitch": 66, "duration": 5, "velocity": 82}, {"time": 2956, "pitch": 64, "duration": 5, "velocity": 88}, {"time": 2962, "pitch": 66, "duration": 5, "velocity": 78}, {"time": 2968, "pitch": 69, "duration": 9, "velocity": 82}, {"time": 2980, "pitch": 71, "duration": 4, "velocity": 79}, {"time": 2986, "pitch": 73, "duration": 4, "velocity": 83}, {"time": 2992, "pitch": 74, "duration": 9, "velocity": 86}, {"time": 3004, "pitch": 73, "duration": 5, "velocity": 87}, {"time": 3010, "pitch": 71, "duration": 5, "velocity": 83}, {"time": 3016, "pitch": 73, "duration": 11, "velocity": 86}, {"time": 3028, "pitch": 69, "duration": 12, "velocity": 78}, {"time": 3040, "pitch": 69, "duration": 4, "velocity": 83}, {"time": 3046, "pitch": 71, "duration": 4, "velocity": 84}, {"time": 3052, "pitch": 73, "duration": 10, "velocity": 83}, {"time": 3064, "pitch": 71, "duration": 38, "velocity": 83}, {"time": 3112, "pitch": 73, "duration": 9, "velocity": 85}, {"time": 3124, "pitch": 73, "duration": 11, "velocity": 84}, {"time": 3136, "pitch": 74, "duration": 9, "velocity": 84}, {"time": 3148, "pitch": 74, "duration": 9, "velocity": 86}, {"time": 3160, "pitch": 76, "duration": 9, "velocity": 85}, {"time": 3172, "pitch": 76, "duration": 12, "velocity": 84}, {"time": 3184, "pitch": 78, "duration": 12, "velocity": 84}, {"time": 3196, "pitch": 76, "duration": 5, "velocity": 88}, {"time": 3202, "pitch": 78, "duration": 5, "velocity": 84}, {"time": 3208, "pitch": 81, "duration": 8, "velocity": 84}, {"time": 3220, "pitch": 81, "duration": 9, "velocity": 84}, {"time": 3232, "pitch": 78, "duration": 16, "velocity": 94}, {"time": 3250, "pitch": 76, "duration": 12, "velocity": 85}, {"time": 3262, "pitch": 74, "duration": 36, "velocity": 87}, {"time": 3304, "pitch": 78, "duration": 10, "velocity": 87}, {"time": 3316, "pitch": 74, "duration": 8, "velocity": 89}, {"time": 3328, "pitch": 76, "duration": 9, "velocity": 83}, {"time": 3340, "pitch": 73, "duration": 9, "velocity": 89}, {"time": 3352, "pitch": 74, "duration": 4, "velocity": 85}, {"time": 3358, "pitch": 76, "duration": 5, "velocity": 79}, {"time": 3364, "pitch": 74, "duration": 6, "velocity": 88}, {"time": 3370, "pitch": 73, "duration": 6, "velocity": 81}, {"time": 3376, "pitch": 71, "duration": 9, "velocity": 84}, {"time": 3388, "pitch": 73, "duration": 4, "velocity": 78}, {"time": 3394, "pitch": 74, "duration": 5, "velocity": 84}, {"time": 3400, "pitch": 73, "duration": 12, "velocity": 81}, {"time": 3412, "pitch": 69, "duration": 9, "velocity": 84}, {"time": 3424, "pitch": 69, "duration": 4, "velocity": 83}, {"time": 3430, "pitch": 71, "duration": 4, "velocity": 79}, {"time": 3436, "pitch": 73, "duration": 11, "velocity": 84}, {"time": 3448, "pitch": 71, "duration": 36, "velocity": 84}, {"time": 4264, "pitch": 75, "duration": 14, "velocity": 86}, {"time": 4282, "pitch": 68, "duration": 4, "velocity": 85}, {"time": 4288, "pitch": 75, "duration": 9, "velocity": 78}, {"time": 4300, "pitch": 78, "duration": 4, "velocity": 84}, {"time": 4306, "pitch": 76, "duration": 5, "velocity": 89}, {"time": 4312, "pitch": 75, "duration": 13, "velocity": 87}, {"time": 4330, "pitch": 75, "duration": 5, "velocity": 79}, {"time": 4336, "pitch": 76, "duration": 9, "velocity": 87}, {"time": 4348, "pitch": 78, "duration": 11, "velocity": 83}, {"time": 4360, "pitch": 76, "duration": 16, "velocity": 85}, {"time": 4378, "pitch": 76, "duration": 3, "velocity": 89}, {"time": 4384, "pitch": 78, "duration": 9, "velocity": 87}, {"time": 4396, "pitch": 80, "duration": 11, "velocity": 87}, {"time": 4408, "pitch": 78, "duration": 40, "velocity": 89}, {"time": 4456, "pitch": 80, "duration": 13, "velocity": 87}, {"time": 4474, "pitch": 80, "duration": 6, "velocity": 94}, {"time": 4480, "pitch": 78, "duration": 9, "velocity": 85}, {"time": 4492, "pitch": 76, "duration": 9, "velocity": 94}, {"time": 4504, "pitch": 78, "duration": 24, "velocity": 85}, {"time": 4528, "pitch": 71, "duration": 18, "velocity": 85}, {"time": 4552, "pitch": 76, "duration": 10, "velocity": 80}, {"time": 4564, "pitch": 73, "duration": 4, "velocity": 86}, {"time": 4570, "pitch": 75, "duration": 5, "velocity": 82}, {"time": 4576, "pitch": 76, "duration": 7, "velocity": 90}, {"time": 4588, "pitch": 78, "duration": 5, "velocity": 83}, {"time": 4594, "pitch": 76, "duration": 5, "velocity": 86}, {"time": 4600, "pitch": 75, "duration": 37, "velocity": 79}, {"time": 4642, "pitch": 68, "duration": 5, "velocity": 85}, {"time": 4648, "pitch": 73, "duration": 9, "velocity": 84}, {"time": 4660, "pitch": 73, "duration": 6, "velocity": 87}, {"time": 4666, "pitch": 73, "duration": 6, "velocity": 87}, {"time": 4672, "pitch": 73, "duration": 9, "velocity": 85}, {"time": 4684, "pitch": 75, "duration": 4, "velocity": 81}, {"time": 4690, "pitch": 76, "duration": 4, "velocity": 85}, {"time": 4696, "pitch": 75, "duration": 4, "velocity": 90}, {"time": 4702, "pitch": 73, "duration": 4, "velocity": 85}, {"time": 4708, "pitch": 71, "duration": 8, "velocity": 85}, {"time": 4720, "pitch": 71, "duration": 8, "velocity": 84}, {"time": 4732, "pitch": 73, "duration": 4, "velocity": 85}, {"time": 4738, "pitch": 75, "duration": 6, "velocity": 85}, {"time": 4744, "pitch": 73, "duration": 9, "velocity": 85}, {"time": 4756, "pitch": 68, "duration": 9, "velocity": 88}, {"time": 4768, "pitch": 68, "duration": 10, "velocity": 85}, {"time": 4786, "pitch": 66, "duration": 6, "velocity": 87}, {"time": 4792, "pitch": 68, "duration": 36, "velocity": 86}, {"time": 4840, "pitch": 71, "duration": 8, "velocity": 83}, {"time": 4852, "pitch": 71, "duration": 10, "velocity": 85}, {"time": 4864, "pitch": 71, "duration": 4, "velocity": 83}, {"time": 4870, "pitch": 68, "duration": 5, "velocity": 82}, {"time": 4876, "pitch": 66, "duration": 5, "velocity": 88}, {"time": 4882, "pitch": 68, "duration": 5, "velocity": 78}, {"time": 4888, "pitch": 71, "duration": 9, "velocity": 82}, {"time": 4900, "pitch": 73, "duration": 4, "velocity": 79}, {"time": 4906, "pitch": 75, "duration": 4, "velocity": 83}, {"time": 4912, "pitch": 76, "duration": 9, "velocity": 86}, {"time": 4924, "pitch": 75, "duration": 5, "velocity": 87}, {"time": 4930, "pitch": 73, "duration": 5, "velocity": 83}, {"time": 4936, "pitch": 75, "duration": 11, "velocity": 86}, {"time": 4948, "pitch": 71, "duration": 12, "velocity": 78}, {"time": 4960, "pitch": 71, "duration": 4, "velocity": 83}, {"time": 4966, "pitch": 73, "duration": 4, "velocity": 84}, {"time": 4972, "pitch": 75, "duration": 10, "velocity": 83}, {"time": 4984, "pitch": 73, "duration": 38, "velocity": 83}, {"time": 5032, "pitch": 75, "duration": 9, "velocity": 85}, {"time": 5044, "pitch": 75, "duration": 11, "velocity": 84}, {"time": 5056, "pitch": 76, "duration": 9, "velocity": 84}, {"time": 5068, "pitch": 76, "duration": 9, "velocity": 86}, {"time": 5080, "pitch": 78, "duration": 9, "velocity": 85}, {"time": 5092, "pitch": 78, "duration": 12, "velocity": 84}, {"time": 5104, "pitch": 80, "duration": 12, "velocity": 84}, {"time": 5116, "pitch": 78, "duration": 5, "velocity": 88}, {"time": 5122, "pitch": 80, "duration": 5, "velocity": 84}, {"time": 5128, "pitch": 83, "duration": 8, "velocity": 84}, {"time": 5140, "pitch": 83, "duration": 9, "velocity": 84}, {"time": 5152, "pitch": 80, "duration": 16, "velocity": 94}, {"time": 5170, "pitch": 78, "duration": 12, "velocity": 85}, {"time": 5182, "pitch": 76, "duration": 36, "velocity": 87}, {"time": 5224, "pitch": 80, "duration": 10, "velocity": 87}, {"time": 5236, "pitch": 76, "duration": 8, "velocity": 89}, {"time": 5248, "pitch": 78, "duration": 9, "velocity": 83}, {"time": 5260, "pitch": 75, "duration": 9, "velocity": 89}, {"time": 5272, "pitch": 76, "duration": 4, "velocity": 85}, {"time": 5278, "pitch": 78, "duration": 5, "velocity": 79}, {"time": 5284, "pitch": 76, "duration": 6, "velocity": 88}, {"time": 5290, "pitch": 75, "duration": 6, "velocity": 81}, {"time": 5296, "pitch": 73, "duration": 9, "velocity": 84}, {"time": 5308, "pitch": 75, "duration": 4, "velocity": 78}, {"time": 5314, "pitch": 76, "duration": 5, "velocity": 84}, {"time": 5320, "pitch": 75, "duration": 12, "velocity": 81}, {"time": 5332, "pitch": 71, "duration": 9, "velocity": 84}, {"time": 5344, "pitch": 71, "duration": 4, "velocity": 83}, {"time": 5350, "pitch": 73, "duration": 4, "velocity": 79}, {"time": 5356, "pitch": 75, "duration": 11, "velocity": 84}, {"time": 5368, "pitch": 73, "duration": 36, "velocity": 84}, {"time": 5416, "pitch": 80, "duration": 10, "velocity": 87}, {"time": 5428, "pitch": 76, "duration": 8, "velocity": 89}, {"time": 5440, "pitch": 78, "duration": 9, "velocity": 83}, {"time": 5452, "pitch": 75, "duration": 9, "velocity": 89}, {"time": 5464, "pitch": 76, "duration": 4, "velocity": 85}, {"time": 5470, "pitch": 78, "duration": 5, "velocity": 79}, {"time": 5476, "pitch": 76, "duration": 6, "velocity": 88}, {"time": 5482, "pitch": 75, "duration": 6, "velocity": 81}, {"time": 5488, "pitch": 73, "duration": 9, "velocity": 84}, {"time": 5500, "pitch": 75, "duration": 4, "velocity": 78}, {"time": 5506, "pitch": 76, "duration": 5, "velocity": 84}, {"time": 5512, "pitch": 75, "duration": 12, "velocity": 81}, {"time": 5524, "pitch": 71, "duration": 9, "velocity": 84}, {"time": 5536, "pitch": 71, "duration": 4, "velocity": 83}, {"time": 5542, "pitch": 73, "duration": 4, "velocity": 79}, {"time": 5548, "pitch": 75, "duration": 11, "velocity": 84}, {"time": 5560, "pitch": 73, "duration": 36, "velocity": 84}]}, {"program": 0, "is_drum": false, "name": "PIANO", "notes": [{"time": 40, "pitch": 47, "duration": 20, "velocity": 72}, {"time": 40, "pitch": 71, "duration": 6, "velocity": 77}, {"time": 46, "pitch": 66, "duration": 4, "velocity": 76}, {"time": 52, "pitch": 74, "duration": 2, "velocity": 85}, {"time": 64, "pitch": 54, "duration": 13, "velocity": 31}, {"time": 70, "pitch": 71, "duration": 4, "velocity": 77}, {"time": 82, "pitch": 71, "duration": 11, "velocity": 71}, {"time": 88, "pitch": 47, "duration": 39, "velocity": 73}, {"time": 94, "pitch": 54, "duration": 34, "velocity": 57}, {"time": 100, "pitch": 71, "duration": 6, "velocity": 63}, {"time": 106, "pitch": 66, "duration": 5, "velocity": 60}, {"time": 118, "pitch": 71, "duration": 3, "velocity": 58}, {"time": 136, "pitch": 47, "duration": 36, "velocity": 83}, {"time": 136, "pitch": 71, "duration": 7, "velocity": 79}, {"time": 142, "pitch": 66, "duration": 4, "velocity": 70}, {"time": 148, "pitch": 74, "duration": 5, "velocity": 84}, {"time": 160, "pitch": 54, "duration": 14, "velocity": 55}, {"time": 166, "pitch": 71, "duration": 6, "velocity": 67}, {"time": 172, "pitch": 66, "duration": 3, "velocity": 63}, {"time": 178, "pitch": 71, "duration": 10, "velocity": 65}, {"time": 184, "pitch": 47, "duration": 39, "velocity": 75}, {"time": 190, "pitch": 54, "duration": 34, "velocity": 61}, {"time": 196, "pitch": 66, "duration": 2, "velocity": 70}, {"time": 202, "pitch": 71, "duration": 3, "velocity": 57}, {"time": 214, "pitch": 71, "duration": 7, "velocity": 68}, {"time": 220, "pitch": 66, "duration": 2, "velocity": 68}, {"time": 232, "pitch": 47, "duration": 20, "velocity": 81}, {"time": 232, "pitch": 71, "duration": 9, "velocity": 81}, {"time": 238, "pitch": 66, "duration": 4, "velocity": 72}, {"time": 244, "pitch": 74, "duration": 5, "velocity": 86}, {"time": 256, "pitch": 54, "duration": 9, "velocity": 63}, {"time": 262, "pitch": 71, "duration": 3, "velocity": 75}, {"time": 268, "pitch": 66, "duration": 2, "velocity": 65}, {"time": 274, "pitch": 71, "duration": 8, "velocity": 79}, {"time": 280, "pitch": 47, "duration": 14, "velocity": 79}, {"time": 286, "pitch": 54, "duration": 9, "velocity": 61}, {"time": 292, "pitch": 71, "duration": 8, "velocity": 75}, {"time": 298, "pitch": 66, "duration": 3, "velocity": 71}, {"time": 304, "pitch": 74, "duration": 6, "velocity": 85}, {"time": 310, "pitch": 66, "duration": 3, "velocity": 73}, {"time": 316, "pitch": 71, "duration": 4, "velocity": 77}, {"time": 322, "pitch": 66, "duration": 3, "velocity": 61}, {"time": 328, "pitch": 47, "duration": 39, "velocity": 83}, {"time": 328, "pitch": 59, "duration": 7, "velocity": 82}, {"time": 328, "pitch": 66, "duration": 15, "velocity": 78}, {"time": 334, "pitch": 54, "duration": 9, "velocity": 67}, {"time": 340, "pitch": 59, "duration": 8, "velocity": 84}, {"time": 346, "pitch": 54, "duration": 8, "velocity": 68}, {"time": 352, "pitch": 62, "duration": 12, "velocity": 82}, {"time": 352, "pitch": 66, "duration": 13, "velocity": 77}, {"time": 358, "pitch": 54, "duration": 7, "velocity": 72}, {"time": 364, "pitch": 59, "duration": 9, "velocity": 87}, {"time": 370, "pitch": 62, "duration": 2, "velocity": 73}, {"time": 376, "pitch": 45, "duration": 36, "velocity": 82}, {"time": 376, "pitch": 57, "duration": 7, "velocity": 74}, {"time": 376, "pitch": 61, "duration": 13, "velocity": 78}, {"time": 382, "pitch": 52, "duration": 9, "velocity": 73}, {"time": 388, "pitch": 57, "duration": 7, "velocity": 86}, {"time": 394, "pitch": 52, "duration": 7, "velocity": 79}, {"time": 400, "pitch": 57, "duration": 7, "velocity": 84}, {"time": 400, "pitch": 64, "duration": 7, "velocity": 84}, {"time": 406, "pitch": 52, "duration": 6, "velocity": 80}, {"time": 412, "pitch": 61, "duration": 6, "velocity": 94}, {"time": 418, "pitch": 57, "duration": 3, "velocity": 85}, {"time": 424, "pitch": 43, "duration": 36, "velocity": 80}, {"time": 424, "pitch": 55, "duration": 8, "velocity": 83}, {"time": 424, "pitch": 59, "duration": 9, "velocity": 80}, {"time": 430, "pitch": 50, "duration": 21, "velocity": 82}, {"time": 436, "pitch": 62, "duration": 6, "velocity": 88}, {"time": 442, "pitch": 55, "duration": 5, "velocity": 78}, {"time": 448, "pitch": 62, "duration": 13, "velocity": 83}, {"time": 454, "pitch": 50, "duration": 7, "velocity": 81}, {"time": 460, "pitch": 55, "duration": 7, "velocity": 84}, {"time": 466, "pitch": 59, "duration": 5, "velocity": 79}, {"time": 472, "pitch": 45, "duration": 38, "velocity": 82}, {"time": 472, "pitch": 61, "duration": 12, "velocity": 84}, {"time": 478, "pitch": 52, "duration": 33, "velocity": 78}, {"time": 484, "pitch": 57, "duration": 9, "velocity": 85}, {"time": 490, "pitch": 61, "duration": 3, "velocity": 87}, {"time": 496, "pitch": 62, "duration": 6, "velocity": 77}, {"time": 502, "pitch": 61, "duration": 6, "velocity": 85}, {"time": 508, "pitch": 57, "duration": 4, "velocity": 83}, {"time": 520, "pitch": 47, "duration": 36, "velocity": 81}, {"time": 520, "pitch": 59, "duration": 7, "velocity": 79}, {"time": 520, "pitch": 62, "duration": 13, "velocity": 83}, {"time": 526, "pitch": 54, "duration": 8, "velocity": 75}, {"time": 532, "pitch": 59, "duration": 7, "velocity": 85}, {"time": 538, "pitch": 54, "duration": 7, "velocity": 72}, {"time": 544, "pitch": 59, "duration": 7, "velocity": 85}, {"time": 544, "pitch": 66, "duration": 7, "velocity": 79}, {"time": 550, "pitch": 54, "duration": 5, "velocity": 68}, {"time": 556, "pitch": 62, "duration": 6, "velocity": 83}, {"time": 562, "pitch": 59, "duration": 4, "velocity": 75}, {"time": 568, "pitch": 45, "duration": 26, "velocity": 72}, {"time": 568, "pitch": 57, "duration": 6, "velocity": 74}, {"time": 568, "pitch": 61, "duration": 8, "velocity": 83}, {"time": 574, "pitch": 52, "duration": 9, "velocity": 78}, {"time": 580, "pitch": 57, "duration": 7, "velocity": 85}, {"time": 586, "pitch": 52, "duration": 6, "velocity": 81}, {"time": 592, "pitch": 57, "duration": 6, "velocity": 83}, {"time": 592, "pitch": 62, "duration": 5, "velocity": 83}, {"time": 598, "pitch": 52, "duration": 5, "velocity": 83}, {"time": 604, "pitch": 57, "duration": 4, "velocity": 74}, {"time": 604, "pitch": 61, "duration": 5, "velocity": 88}, {"time": 616, "pitch": 43, "duration": 42, "velocity": 81}, {"time": 616, "pitch": 55, "duration": 7, "velocity": 79}, {"time": 616, "pitch": 59, "duration": 11, "velocity": 72}, {"time": 622, "pitch": 50, "duration": 20, "velocity": 71}, {"time": 628, "pitch": 55, "duration": 8, "velocity": 84}, {"time": 634, "pitch": 59, "duration": 5, "velocity": 75}, {"time": 640, "pitch": 62, "duration": 11, "velocity": 84}, {"time": 646, "pitch": 50, "duration": 13, "velocity": 75}, {"time": 652, "pitch": 55, "duration": 6, "velocity": 86}, {"time": 658, "pitch": 62, "duration": 5, "velocity": 78}, {"time": 664, "pitch": 45, "duration": 39, "velocity": 84}, {"time": 664, "pitch": 57, "duration": 6, "velocity": 67}, {"time": 664, "pitch": 61, "duration": 12, "velocity": 73}, {"time": 670, "pitch": 52, "duration": 21, "velocity": 73}, {"time": 676, "pitch": 57, "duration": 8, "velocity": 79}, {"time": 682, "pitch": 61, "duration": 7, "velocity": 87}, {"time": 688, "pitch": 62, "duration": 12, "velocity": 83}, {"time": 694, "pitch": 52, "duration": 9, "velocity": 79}, {"time": 700, "pitch": 61, "duration": 5, "velocity": 83}, {"time": 712, "pitch": 47, "duration": 44, "velocity": 81}, {"time": 712, "pitch": 59, "duration": 11, "velocity": 78}, {"time": 712, "pitch": 62, "duration": 12, "velocity": 75}, {"time": 724, "pitch": 54, "duration": 14, "velocity": 68}, {"time": 730, "pitch": 59, "duration": 4, "velocity": 75}, {"time": 736, "pitch": 66, "duration": 10, "velocity": 77}, {"time": 742, "pitch": 54, "duration": 15, "velocity": 71}, {"time": 748, "pitch": 62, "duration": 18, "velocity": 74}, {"time": 754, "pitch": 59, "duration": 11, "velocity": 76}, {"time": 760, "pitch": 47, "duration": 38, "velocity": 77}, {"time": 766, "pitch": 54, "duration": 25, "velocity": 64}, {"time": 772, "pitch": 62, "duration": 7, "velocity": 74}, {"time": 778, "pitch": 59, "duration": 4, "velocity": 78}, {"time": 784, "pitch": 66, "duration": 18, "velocity": 86}, {"time": 790, "pitch": 59, "duration": 7, "velocity": 79}, {"time": 796, "pitch": 54, "duration": 6, "velocity": 71}, {"time": 808, "pitch": 47, "duration": 36, "velocity": 83}, {"time": 808, "pitch": 62, "duration": 13, "velocity": 79}, {"time": 814, "pitch": 54, "duration": 7, "velocity": 71}, {"time": 820, "pitch": 59, "duration": 10, "velocity": 88}, {"time": 826, "pitch": 54, "duration": 7, "velocity": 77}, {"time": 832, "pitch": 66, "duration": 14, "velocity": 85}, {"time": 838, "pitch": 54, "duration": 6, "velocity": 63}, {"time": 844, "pitch": 59, "duration": 6, "velocity": 83}, {"time": 856, "pitch": 42, "duration": 24, "velocity": 84}, {"time": 856, "pitch": 61, "duration": 13, "velocity": 80}, {"time": 862, "pitch": 49, "duration": 7, "velocity": 53}, {"time": 868, "pitch": 57, "duration": 13, "velocity": 84}, {"time": 874, "pitch": 49, "duration": 7, "velocity": 70}, {"time": 880, "pitch": 61, "duration": 6, "velocity": 72}, {"time": 880, "pitch": 66, "duration": 13, "velocity": 83}, {"time": 886, "pitch": 49, "duration": 5, "velocity": 71}, {"time": 892, "pitch": 57, "duration": 6, "velocity": 85}, {"time": 904, "pitch": 47, "duration": 43, "velocity": 79}, {"time": 904, "pitch": 62, "duration": 14, "velocity": 79}, {"time": 910, "pitch": 54, "duration": 8, "velocity": 71}, {"time": 916, "pitch": 59, "duration": 19, "velocity": 87}, {"time": 922, "pitch": 54, "duration": 10, "velocity": 74}, {"time": 928, "pitch": 66, "duration": 22, "velocity": 88}, {"time": 934, "pitch": 54, "duration": 10, "velocity": 68}, {"time": 940, "pitch": 59, "duration": 10, "velocity": 85}, {"time": 952, "pitch": 47, "duration": 36, "velocity": 78}, {"time": 952, "pitch": 62, "duration": 13, "velocity": 77}, {"time": 958, "pitch": 54, "duration": 7, "velocity": 60}, {"time": 964, "pitch": 59, "duration": 7, "velocity": 84}, {"time": 970, "pitch": 54, "duration": 7, "velocity": 67}, {"time": 976, "pitch": 59, "duration": 6, "velocity": 85}, {"time": 976, "pitch": 66, "duration": 9, "velocity": 73}, {"time": 982, "pitch": 54, "duration": 5, "velocity": 68}, {"time": 988, "pitch": 59, "duration": 3, "velocity": 75}, {"time": 988, "pitch": 62, "duration": 5, "velocity": 79}, {"time": 994, "pitch": 59, "duration": 2, "velocity": 82}, {"time": 1000, "pitch": 45, "duration": 44, "velocity": 83}, {"time": 1000, "pitch": 57, "duration": 7, "velocity": 82}, {"time": 1000, "pitch": 61, "duration": 9, "velocity": 79}, {"time": 1006, "pitch": 52, "duration": 8, "velocity": 76}, {"time": 1012, "pitch": 61, "duration": 6, "velocity": 78}, {"time": 1018, "pitch": 52, "duration": 8, "velocity": 70}, {"time": 1024, "pitch": 57, "duration": 6, "velocity": 80}, {"time": 1024, "pitch": 64, "duration": 6, "velocity": 84}, {"time": 1030, "pitch": 52, "duration": 14, "velocity": 78}, {"time": 1036, "pitch": 57, "duration": 6, "velocity": 84}, {"time": 1048, "pitch": 45, "duration": 20, "velocity": 84}, {"time": 1048, "pitch": 57, "duration": 6, "velocity": 80}, {"time": 1048, "pitch": 61, "duration": 9, "velocity": 84}, {"time": 1054, "pitch": 52, "duration": 15, "velocity": 71}, {"time": 1060, "pitch": 57, "duration": 6, "velocity": 85}, {"time": 1066, "pitch": 61, "duration": 4, "velocity": 83}, {"time": 1072, "pitch": 47, "duration": 15, "velocity": 83}, {"time": 1072, "pitch": 59, "duration": 8, "velocity": 79}, {"time": 1072, "pitch": 62, "duration": 13, "velocity": 82}, {"time": 1078, "pitch": 54, "duration": 6, "velocity": 73}, {"time": 1084, "pitch": 59, "duration": 7, "velocity": 84}, {"time": 1090, "pitch": 62, "duration": 4, "velocity": 78}, {"time": 1096, "pitch": 45, "duration": 38, "velocity": 83}, {"time": 1096, "pitch": 57, "duration": 7, "velocity": 79}, {"time": 1096, "pitch": 61, "duration": 14, "velocity": 75}, {"time": 1102, "pitch": 52, "duration": 7, "velocity": 72}, {"time": 1108, "pitch": 57, "duration": 6, "velocity": 84}, {"time": 1114, "pitch": 52, "duration": 7, "velocity": 76}, {"time": 1120, "pitch": 57, "duration": 7, "velocity": 82}, {"time": 1120, "pitch": 61, "duration": 7, "velocity": 85}, {"time": 1120, "pitch": 64, "duration": 9, "velocity": 84}, {"time": 1126, "pitch": 52, "duration": 14, "velocity": 77}, {"time": 1132, "pitch": 57, "duration": 8, "velocity": 84}, {"time": 1138, "pitch": 61, "duration": 4, "velocity": 87}, {"time": 1144, "pitch": 47, "duration": 36, "velocity": 84}, {"time": 1144, "pitch": 59, "duration": 7, "velocity": 81}, {"time": 1144, "pitch": 62, "duration": 6, "velocity": 83}, {"time": 1150, "pitch": 54, "duration": 7, "velocity": 71}, {"time": 1156, "pitch": 59, "duration": 7, "velocity": 86}, {"time": 1162, "pitch": 54, "duration": 6, "velocity": 71}, {"time": 1168, "pitch": 59, "duration": 7, "velocity": 78}, {"time": 1168, "pitch": 62, "duration": 7, "velocity": 77}, {"time": 1168, "pitch": 66, "duration": 10, "velocity": 80}, {"time": 1174, "pitch": 54, "duration": 4, "velocity": 74}, {"time": 1180, "pitch": 59, "duration": 3, "velocity": 85}, {"time": 1192, "pitch": 45, "duration": 20, "velocity": 80}, {"time": 1192, "pitch": 57, "duration": 6, "velocity": 79}, {"time": 1192, "pitch": 61, "duration": 13, "velocity": 77}, {"time": 1198, "pitch": 52, "duration": 15, "velocity": 77}, {"time": 1204, "pitch": 57, "duration": 7, "velocity": 85}, {"time": 1210, "pitch": 61, "duration": 4, "velocity": 84}, {"time": 1216, "pitch": 47, "duration": 14, "velocity": 84}, {"time": 1216, "pitch": 59, "duration": 8, "velocity": 80}, {"time": 1216, "pitch": 62, "duration": 13, "velocity": 82}, {"time": 1222, "pitch": 54, "duration": 9, "velocity": 69}, {"time": 1228, "pitch": 59, "duration": 8, "velocity": 87}, {"time": 1240, "pitch": 49, "duration": 19, "velocity": 72}, {"time": 1240, "pitch": 61, "duration": 4, "velocity": 84}, {"time": 1240, "pitch": 64, "duration": 8, "velocity": 84}, {"time": 1246, "pitch": 61, "duration": 6, "velocity": 80}, {"time": 1252, "pitch": 64, "duration": 8, "velocity": 81}, {"time": 1264, "pitch": 50, "duration": 21, "velocity": 78}, {"time": 1264, "pitch": 57, "duration": 4, "velocity": 84}, {"time": 1264, "pitch": 62, "duration": 8, "velocity": 84}, {"time": 1270, "pitch": 57, "duration": 4, "velocity": 78}, {"time": 1276, "pitch": 66, "duration": 7, "velocity": 90}, {"time": 1282, "pitch": 57, "duration": 3, "velocity": 84}, {"time": 1288, "pitch": 45, "duration": 29, "velocity": 79}, {"time": 1288, "pitch": 52, "duration": 5, "velocity": 69}, {"time": 1288, "pitch": 57, "duration": 5, "velocity": 66}, {"time": 1288, "pitch": 61, "duration": 12, "velocity": 66}, {"time": 1294, "pitch": 52, "duration": 9, "velocity": 78}, {"time": 1300, "pitch": 57, "duration": 7, "velocity": 89}, {"time": 1306, "pitch": 52, "duration": 6, "velocity": 76}, {"time": 1312, "pitch": 57, "duration": 6, "velocity": 82}, {"time": 1312, "pitch": 61, "duration": 7, "velocity": 85}, {"time": 1312, "pitch": 64, "duration": 10, "velocity": 85}, {"time": 1318, "pitch": 52, "duration": 15, "velocity": 75}, {"time": 1324, "pitch": 57, "duration": 7, "velocity": 84}, {"time": 1330, "pitch": 61, "duration": 4, "velocity": 92}, {"time": 1336, "pitch": 47, "duration": 28, "velocity": 84}, {"time": 1336, "pitch": 59, "duration": 7, "velocity": 80}, {"time": 1336, "pitch": 62, "duration": 7, "velocity": 83}, {"time": 1342, "pitch": 54, "duration": 6, "velocity": 72}, {"time": 1348, "pitch": 59, "duration": 4, "velocity": 89}, {"time": 1354, "pitch": 54, "duration": 7, "velocity": 76}, {"time": 1360, "pitch": 59, "duration": 6, "velocity": 85}, {"time": 1360, "pitch": 62, "duration": 7, "velocity": 84}, {"time": 1360, "pitch": 66, "duration": 9, "velocity": 84}, {"time": 1366, "pitch": 47, "duration": 16, "velocity": 49}, {"time": 1366, "pitch": 54, "duration": 15, "velocity": 75}, {"time": 1372, "pitch": 59, "duration": 3, "velocity": 84}, {"time": 1378, "pitch": 62, "duration": 3, "velocity": 72}, {"time": 1384, "pitch": 47, "duration": 17, "velocity": 83}, {"time": 1384, "pitch": 59, "duration": 9, "velocity": 80}, {"time": 1384, "pitch": 66, "duration": 12, "velocity": 75}, {"time": 1390, "pitch": 54, "duration": 9, "velocity": 71}, {"time": 1396, "pitch": 62, "duration": 6, "velocity": 81}, {"time": 1402, "pitch": 59, "duration": 3, "velocity": 83}, {"time": 1408, "pitch": 45, "duration": 20, "velocity": 83}, {"time": 1408, "pitch": 57, "duration": 6, "velocity": 82}, {"time": 1408, "pitch": 61, "duration": 9, "velocity": 74}, {"time": 1414, "pitch": 52, "duration": 12, "velocity": 83}, {"time": 1420, "pitch": 57, "duration": 7, "velocity": 83}, {"time": 1426, "pitch": 61, "duration": 2, "velocity": 83}, {"time": 1432, "pitch": 43, "duration": 38, "velocity": 82}, {"time": 1432, "pitch": 55, "duration": 7, "velocity": 77}, {"time": 1432, "pitch": 62, "duration": 12, "velocity": 79}, {"time": 1438, "pitch": 50, "duration": 8, "velocity": 74}, {"time": 1444, "pitch": 55, "duration": 7, "velocity": 83}, {"time": 1450, "pitch": 50, "duration": 6, "velocity": 78}, {"time": 1456, "pitch": 55, "duration": 6, "velocity": 81}, {"time": 1456, "pitch": 62, "duration": 6, "velocity": 79}, {"time": 1462, "pitch": 50, "duration": 7, "velocity": 80}, {"time": 1468, "pitch": 55, "duration": 3, "velocity": 79}, {"time": 1468, "pitch": 59, "duration": 6, "velocity": 83}, {"time": 1474, "pitch": 43, "duration": 2, "velocity": 54}, {"time": 1474, "pitch": 50, "duration": 3, "velocity": 78}, {"time": 1480, "pitch": 45, "duration": 26, "velocity": 84}, {"time": 1480, "pitch": 57, "duration": 7, "velocity": 78}, {"time": 1480, "pitch": 61, "duration": 7, "velocity": 73}, {"time": 1486, "pitch": 52, "duration": 8, "velocity": 80}, {"time": 1492, "pitch": 57, "duration": 7, "velocity": 83}, {"time": 1498, "pitch": 52, "duration": 7, "velocity": 81}, {"time": 1504, "pitch": 57, "duration": 6, "velocity": 83}, {"time": 1504, "pitch": 61, "duration": 6, "velocity": 86}, {"time": 1510, "pitch": 52, "duration": 8, "velocity": 77}, {"time": 1516, "pitch": 57, "duration": 2, "velocity": 74}, {"time": 1516, "pitch": 61, "duration": 7, "velocity": 71}, {"time": 1516, "pitch": 64, "duration": 11, "velocity": 83}, {"time": 1522, "pitch": 57, "duration": 3, "velocity": 78}, {"time": 1528, "pitch": 47, "duration": 43, "velocity": 82}, {"time": 1528, "pitch": 59, "duration": 7, "velocity": 82}, {"time": 1528, "pitch": 62, "duration": 7, "velocity": 83}, {"time": 1534, "pitch": 54, "duration": 7, "velocity": 70}, {"time": 1540, "pitch": 59, "duration": 6, "velocity": 87}, {"time": 1546, "pitch": 54, "duration": 7, "velocity": 75}, {"time": 1552, "pitch": 59, "duration": 5, "velocity": 79}, {"time": 1552, "pitch": 66, "duration": 10, "velocity": 82}, {"time": 1558, "pitch": 54, "duration": 13, "velocity": 81}, {"time": 1564, "pitch": 59, "duration": 3, "velocity": 83}, {"time": 1564, "pitch": 62, "duration": 8, "velocity": 83}, {"time": 1570, "pitch": 59, "duration": 6, "velocity": 83}, {"time": 1576, "pitch": 47, "duration": 36, "velocity": 83}, {"time": 1576, "pitch": 62, "duration": 13, "velocity": 79}, {"time": 1582, "pitch": 54, "duration": 7, "velocity": 71}, {"time": 1588, "pitch": 59, "duration": 10, "velocity": 88}, {"time": 1594, "pitch": 54, "duration": 7, "velocity": 77}, {"time": 1600, "pitch": 66, "duration": 14, "velocity": 85}, {"time": 1606, "pitch": 54, "duration": 6, "velocity": 63}, {"time": 1612, "pitch": 59, "duration": 6, "velocity": 83}, {"time": 1624, "pitch": 42, "duration": 24, "velocity": 84}, {"time": 1624, "pitch": 61, "duration": 13, "velocity": 80}, {"time": 1630, "pitch": 49, "duration": 7, "velocity": 53}, {"time": 1636, "pitch": 57, "duration": 13, "velocity": 84}, {"time": 1642, "pitch": 49, "duration": 7, "velocity": 70}, {"time": 1648, "pitch": 61, "duration": 6, "velocity": 72}, {"time": 1648, "pitch": 66, "duration": 13, "velocity": 83}, {"time": 1654, "pitch": 49, "duration": 5, "velocity": 71}, {"time": 1660, "pitch": 57, "duration": 6, "velocity": 85}, {"time": 1672, "pitch": 47, "duration": 43, "velocity": 79}, {"time": 1672, "pitch": 62, "duration": 14, "velocity": 79}, {"time": 1678, "pitch": 54, "duration": 8, "velocity": 71}, {"time": 1684, "pitch": 59, "duration": 19, "velocity": 87}, {"time": 1690, "pitch": 54, "duration": 10, "velocity": 74}, {"time": 1696, "pitch": 66, "duration": 22, "velocity": 88}, {"time": 1702, "pitch": 54, "duration": 10, "velocity": 68}, {"time": 1708, "pitch": 59, "duration": 10, "velocity": 85}, {"time": 1720, "pitch": 47, "duration": 36, "velocity": 78}, {"time": 1720, "pitch": 62, "duration": 13, "velocity": 77}, {"time": 1726, "pitch": 54, "duration": 7, "velocity": 60}, {"time": 1732, "pitch": 59, "duration": 7, "velocity": 84}, {"time": 1738, "pitch": 54, "duration": 7, "velocity": 67}, {"time": 1744, "pitch": 59, "duration": 6, "velocity": 85}, {"time": 1744, "pitch": 66, "duration": 9, "velocity": 73}, {"time": 1750, "pitch": 54, "duration": 5, "velocity": 68}, {"time": 1756, "pitch": 59, "duration": 3, "velocity": 75}, {"time": 1756, "pitch": 62, "duration": 5, "velocity": 79}, {"time": 1762, "pitch": 59, "duration": 2, "velocity": 82}, {"time": 1768, "pitch": 45, "duration": 44, "velocity": 83}, {"time": 1768, "pitch": 57, "duration": 7, "velocity": 82}, {"time": 1768, "pitch": 61, "duration": 9, "velocity": 79}, {"time": 1774, "pitch": 52, "duration": 8, "velocity": 76}, {"time": 1780, "pitch": 61, "duration": 6, "velocity": 78}, {"time": 1786, "pitch": 52, "duration": 8, "velocity": 70}, {"time": 1792, "pitch": 57, "duration": 6, "velocity": 80}, {"time": 1792, "pitch": 64, "duration": 6, "velocity": 84}, {"time": 1798, "pitch": 52, "duration": 14, "velocity": 78}, {"time": 1804, "pitch": 57, "duration": 6, "velocity": 84}, {"time": 1816, "pitch": 45, "duration": 20, "velocity": 84}, {"time": 1816, "pitch": 57, "duration": 6, "velocity": 80}, {"time": 1816, "pitch": 61, "duration": 9, "velocity": 84}, {"time": 1822, "pitch": 52, "duration": 15, "velocity": 71}, {"time": 1828, "pitch": 57, "duration": 6, "velocity": 85}, {"time": 1834, "pitch": 61, "duration": 4, "velocity": 83}, {"time": 1840, "pitch": 47, "duration": 15, "velocity": 83}, {"time": 1840, "pitch": 59, "duration": 8, "velocity": 79}, {"time": 1840, "pitch": 62, "duration": 13, "velocity": 82}, {"time": 1846, "pitch": 54, "duration": 6, "velocity": 73}, {"time": 1852, "pitch": 59, "duration": 7, "velocity": 84}, {"time": 1858, "pitch": 62, "duration": 4, "velocity": 78}, {"time": 1864, "pitch": 45, "duration": 38, "velocity": 83}, {"time": 1864, "pitch": 57, "duration": 7, "velocity": 79}, {"time": 1864, "pitch": 61, "duration": 14, "velocity": 75}, {"time": 1870, "pitch": 52, "duration": 7, "velocity": 72}, {"time": 1876, "pitch": 57, "duration": 6, "velocity": 84}, {"time": 1882, "pitch": 52, "duration": 7, "velocity": 76}, {"time": 1888, "pitch": 57, "duration": 7, "velocity": 82}, {"time": 1888, "pitch": 61, "duration": 7, "velocity": 85}, {"time": 1888, "pitch": 64, "duration": 9, "velocity": 84}, {"time": 1894, "pitch": 52, "duration": 14, "velocity": 77}, {"time": 1900, "pitch": 57, "duration": 8, "velocity": 84}, {"time": 1906, "pitch": 61, "duration": 4, "velocity": 87}, {"time": 1912, "pitch": 47, "duration": 36, "velocity": 84}, {"time": 1912, "pitch": 59, "duration": 7, "velocity": 81}, {"time": 1912, "pitch": 62, "duration": 6, "velocity": 83}, {"time": 1918, "pitch": 54, "duration": 7, "velocity": 71}, {"time": 1924, "pitch": 59, "duration": 7, "velocity": 86}, {"time": 1930, "pitch": 54, "duration": 6, "velocity": 71}, {"time": 1936, "pitch": 59, "duration": 7, "velocity": 78}, {"time": 1936, "pitch": 62, "duration": 7, "velocity": 77}, {"time": 1936, "pitch": 66, "duration": 10, "velocity": 80}, {"time": 1942, "pitch": 54, "duration": 4, "velocity": 74}, {"time": 1948, "pitch": 59, "duration": 3, "velocity": 85}, {"time": 1960, "pitch": 45, "duration": 20, "velocity": 80}, {"time": 1960, "pitch": 57, "duration": 6, "velocity": 79}, {"time": 1960, "pitch": 61, "duration": 13, "velocity": 77}, {"time": 1966, "pitch": 52, "duration": 15, "velocity": 77}, {"time": 1972, "pitch": 57, "duration": 7, "velocity": 85}, {"time": 1978, "pitch": 61, "duration": 4, "velocity": 84}, {"time": 1984, "pitch": 47, "duration": 14, "velocity": 84}, {"time": 1984, "pitch": 59, "duration": 8, "velocity": 80}, {"time": 1984, "pitch": 62, "duration": 13, "velocity": 82}, {"time": 1990, "pitch": 54, "duration": 9, "velocity": 69}, {"time": 1996, "pitch": 59, "duration": 8, "velocity": 87}, {"time": 2008, "pitch": 49, "duration": 19, "velocity": 72}, {"time": 2008, "pitch": 61, "duration": 4, "velocity": 84}, {"time": 2008, "pitch": 64, "duration": 8, "velocity": 84}, {"time": 2014, "pitch": 61, "duration": 6, "velocity": 80}, {"time": 2020, "pitch": 64, "duration": 8, "velocity": 81}, {"time": 2032, "pitch": 50, "duration": 21, "velocity": 78}, {"time": 2032, "pitch": 57, "duration": 4, "velocity": 84}, {"time": 2032, "pitch": 62, "duration": 8, "velocity": 84}, {"time": 2038, "pitch": 57, "duration": 4, "velocity": 78}, {"time": 2044, "pitch": 66, "duration": 7, "velocity": 90}, {"time": 2050, "pitch": 57, "duration": 3, "velocity": 84}, {"time": 2056, "pitch": 45, "duration": 29, "velocity": 79}, {"time": 2056, "pitch": 52, "duration": 5, "velocity": 69}, {"time": 2056, "pitch": 57, "duration": 5, "velocity": 66}, {"time": 2056, "pitch": 61, "duration": 12, "velocity": 66}, {"time": 2062, "pitch": 52, "duration": 9, "velocity": 78}, {"time": 2068, "pitch": 57, "duration": 7, "velocity": 89}, {"time": 2074, "pitch": 52, "duration": 6, "velocity": 76}, {"time": 2080, "pitch": 57, "duration": 6, "velocity": 82}, {"time": 2080, "pitch": 61, "duration": 7, "velocity": 85}, {"time": 2080, "pitch": 64, "duration": 10, "velocity": 85}, {"time": 2086, "pitch": 52, "duration": 15, "velocity": 75}, {"time": 2092, "pitch": 57, "duration": 7, "velocity": 84}, {"time": 2098, "pitch": 61, "duration": 4, "velocity": 92}, {"time": 2104, "pitch": 47, "duration": 28, "velocity": 84}, {"time": 2104, "pitch": 59, "duration": 7, "velocity": 80}, {"time": 2104, "pitch": 62, "duration": 7, "velocity": 83}, {"time": 2110, "pitch": 54, "duration": 6, "velocity": 72}, {"time": 2116, "pitch": 59, "duration": 4, "velocity": 89}, {"time": 2122, "pitch": 54, "duration": 7, "velocity": 76}, {"time": 2128, "pitch": 59, "duration": 6, "velocity": 85}, {"time": 2128, "pitch": 62, "duration": 7, "velocity": 84}, {"time": 2128, "pitch": 66, "duration": 9, "velocity": 84}, {"time": 2134, "pitch": 47, "duration": 16, "velocity": 49}, {"time": 2134, "pitch": 54, "duration": 15, "velocity": 75}, {"time": 2140, "pitch": 59, "duration": 3, "velocity": 84}, {"time": 2146, "pitch": 62, "duration": 3, "velocity": 72}, {"time": 2152, "pitch": 47, "duration": 17, "velocity": 83}, {"time": 2152, "pitch": 59, "duration": 9, "velocity": 80}, {"time": 2152, "pitch": 66, "duration": 12, "velocity": 75}, {"time": 2158, "pitch": 54, "duration": 9, "velocity": 71}, {"time": 2164, "pitch": 62, "duration": 6, "velocity": 81}, {"time": 2170, "pitch": 59, "duration": 3, "velocity": 83}, {"time": 2176, "pitch": 45, "duration": 20, "velocity": 83}, {"time": 2176, "pitch": 57, "duration": 6, "velocity": 82}, {"time": 2176, "pitch": 61, "duration": 9, "velocity": 74}, {"time": 2182, "pitch": 52, "duration": 12, "velocity": 83}, {"time": 2188, "pitch": 57, "duration": 7, "velocity": 83}, {"time": 2194, "pitch": 61, "duration": 2, "velocity": 83}, {"time": 2200, "pitch": 43, "duration": 38, "velocity": 82}, {"time": 2200, "pitch": 55, "duration": 7, "velocity": 77}, {"time": 2200, "pitch": 62, "duration": 12, "velocity": 79}, {"time": 2206, "pitch": 50, "duration": 8, "velocity": 74}, {"time": 2212, "pitch": 55, "duration": 7, "velocity": 83}, {"time": 2218, "pitch": 50, "duration": 6, "velocity": 78}, {"time": 2224, "pitch": 55, "duration": 6, "velocity": 81}, {"time": 2224, "pitch": 62, "duration": 6, "velocity": 79}, {"time": 2230, "pitch": 50, "duration": 7, "velocity": 80}, {"time": 2236, "pitch": 55, "duration": 3, "velocity": 79}, {"time": 2236, "pitch": 59, "duration": 6, "velocity": 83}, {"time": 2242, "pitch": 43, "duration": 2, "velocity": 54}, {"time": 2242, "pitch": 50, "duration": 3, "velocity": 78}, {"time": 2248, "pitch": 45, "duration": 26, "velocity": 84}, {"time": 2248, "pitch": 57, "duration": 7, "velocity": 78}, {"time": 2248, "pitch": 61, "duration": 7, "velocity": 73}, {"time": 2254, "pitch": 52, "duration": 8, "velocity": 80}, {"time": 2260, "pitch": 57, "duration": 7, "velocity": 83}, {"time": 2266, "pitch": 52, "duration": 7, "velocity": 81}, {"time": 2272, "pitch": 57, "duration": 6, "velocity": 83}, {"time": 2272, "pitch": 61, "duration": 6, "velocity": 86}, {"time": 2278, "pitch": 52, "duration": 8, "velocity": 77}, {"time": 2284, "pitch": 57, "duration": 2, "velocity": 74}, {"time": 2284, "pitch": 61, "duration": 7, "velocity": 71}, {"time": 2284, "pitch": 64, "duration": 11, "velocity": 83}, {"time": 2290, "pitch": 57, "duration": 3, "velocity": 78}, {"time": 2296, "pitch": 47, "duration": 43, "velocity": 82}, {"time": 2296, "pitch": 59, "duration": 7, "velocity": 82}, {"time": 2296, "pitch": 62, "duration": 7, "velocity": 83}, {"time": 2302, "pitch": 54, "duration": 7, "velocity": 70}, {"time": 2308, "pitch": 59, "duration": 6, "velocity": 87}, {"time": 2314, "pitch": 54, "duration": 7, "velocity": 75}, {"time": 2320, "pitch": 59, "duration": 5, "velocity": 79}, {"time": 2320, "pitch": 66, "duration": 10, "velocity": 82}, {"time": 2326, "pitch": 54, "duration": 13, "velocity": 81}, {"time": 2332, "pitch": 59, "duration": 3, "velocity": 83}, {"time": 2332, "pitch": 62, "duration": 8, "velocity": 83}, {"time": 2338, "pitch": 59, "duration": 6, "velocity": 83}, {"time": 2344, "pitch": 42, "duration": 28, "velocity": 94}, {"time": 2344, "pitch": 57, "duration": 8, "velocity": 83}, {"time": 2344, "pitch": 61, "duration": 14, "velocity": 84}, {"time": 2350, "pitch": 49, "duration": 21, "velocity": 67}, {"time": 2356, "pitch": 57, "duration": 7, "velocity": 84}, {"time": 2368, "pitch": 57, "duration": 7, "velocity": 85}, {"time": 2368, "pitch": 61, "duration": 8, "velocity": 97}, {"time": 2368, "pitch": 66, "duration": 7, "velocity": 85}, {"time": 2374, "pitch": 49, "duration": 3, "velocity": 79}, {"time": 2380, "pitch": 57, "duration": 2, "velocity": 83}, {"time": 2386, "pitch": 61, "duration": 2, "velocity": 90}, {"time": 2392, "pitch": 42, "duration": 25, "velocity": 85}, {"time": 2392, "pitch": 57, "duration": 7, "velocity": 81}, {"time": 2392, "pitch": 61, "duration": 13, "velocity": 85}, {"time": 2398, "pitch": 49, "duration": 9, "velocity": 67}, {"time": 2404, "pitch": 57, "duration": 6, "velocity": 73}, {"time": 2410, "pitch": 49, "duration": 7, "velocity": 71}, {"time": 2416, "pitch": 57, "duration": 6, "velocity": 85}, {"time": 2416, "pitch": 61, "duration": 9, "velocity": 90}, {"time": 2416, "pitch": 66, "duration": 12, "velocity": 82}, {"time": 2422, "pitch": 49, "duration": 5, "velocity": 81}, {"time": 2428, "pitch": 57, "duration": 4, "velocity": 87}, {"time": 2440, "pitch": 43, "duration": 36, "velocity": 85}, {"time": 2440, "pitch": 55, "duration": 7, "velocity": 83}, {"time": 2440, "pitch": 59, "duration": 7, "velocity": 83}, {"time": 2446, "pitch": 50, "duration": 20, "velocity": 75}, {"time": 2452, "pitch": 55, "duration": 9, "velocity": 83}, {"time": 2452, "pitch": 62, "duration": 7, "velocity": 81}, {"time": 2458, "pitch": 59, "duration": 2, "velocity": 72}, {"time": 2464, "pitch": 55, "duration": 5, "velocity": 81}, {"time": 2464, "pitch": 59, "duration": 7, "velocity": 86}, {"time": 2464, "pitch": 62, "duration": 7, "velocity": 84}, {"time": 2464, "pitch": 67, "duration": 6, "velocity": 84}, {"time": 2470, "pitch": 50, "duration": 5, "velocity": 82}, {"time": 2476, "pitch": 55, "duration": 7, "velocity": 84}, {"time": 2482, "pitch": 59, "duration": 4, "velocity": 79}, {"time": 2488, "pitch": 45, "duration": 30, "velocity": 84}, {"time": 2488, "pitch": 57, "duration": 6, "velocity": 76}, {"time": 2488, "pitch": 61, "duration": 6, "velocity": 83}, {"time": 2494, "pitch": 52, "duration": 20, "velocity": 81}, {"time": 2500, "pitch": 57, "duration": 4, "velocity": 82}, {"time": 2506, "pitch": 64, "duration": 3, "velocity": 85}, {"time": 2512, "pitch": 69, "duration": 6, "velocity": 89}, {"time": 2518, "pitch": 64, "duration": 11, "velocity": 88}, {"time": 2524, "pitch": 52, "duration": 5, "velocity": 88}, {"time": 2530, "pitch": 57, "duration": 4, "velocity": 84}, {"time": 2536, "pitch": 50, "duration": 28, "velocity": 92}, {"time": 2536, "pitch": 57, "duration": 3, "velocity": 80}, {"time": 2536, "pitch": 62, "duration": 7, "velocity": 83}, {"time": 2542, "pitch": 57, "duration": 6, "velocity": 82}, {"time": 2548, "pitch": 62, "duration": 7, "velocity": 75}, {"time": 2554, "pitch": 57, "duration": 2, "velocity": 77}, {"time": 2560, "pitch": 57, "duration": 3, "velocity": 81}, {"time": 2560, "pitch": 62, "duration": 5, "velocity": 85}, {"time": 2560, "pitch": 66, "duration": 9, "velocity": 84}, {"time": 2566, "pitch": 57, "duration": 5, "velocity": 83}, {"time": 2572, "pitch": 62, "duration": 4, "velocity": 75}, {"time": 2584, "pitch": 45, "duration": 27, "velocity": 84}, {"time": 2584, "pitch": 61, "duration": 7, "velocity": 85}, {"time": 2590, "pitch": 52, "duration": 18, "velocity": 82}, {"time": 2596, "pitch": 64, "duration": 6, "velocity": 81}, {"time": 2602, "pitch": 57, "duration": 3, "velocity": 83}, {"time": 2608, "pitch": 57, "duration": 3, "velocity": 87}, {"time": 2608, "pitch": 69, "duration": 7, "velocity": 72}, {"time": 2614, "pitch": 57, "duration": 1, "velocity": 66}, {"time": 2620, "pitch": 45, "duration": 6, "velocity": 81}, {"time": 2620, "pitch": 57, "duration": 2, "velocity": 72}, {"time": 2620, "pitch": 61, "duration": 6, "velocity": 65}, {"time": 2620, "pitch": 64, "duration": 7, "velocity": 82}, {"time": 2626, "pitch": 57, "duration": 3, "velocity": 76}, {"time": 2632, "pitch": 43, "duration": 34, "velocity": 84}, {"time": 2632, "pitch": 55, "duration": 6, "velocity": 80}, {"time": 2632, "pitch": 59, "duration": 7, "velocity": 83}, {"time": 2638, "pitch": 50, "duration": 28, "velocity": 69}, {"time": 2644, "pitch": 62, "duration": 6, "velocity": 79}, {"time": 2650, "pitch": 55, "duration": 5, "velocity": 79}, {"time": 2656, "pitch": 67, "duration": 7, "velocity": 88}, {"time": 2662, "pitch": 55, "duration": 2, "velocity": 77}, {"time": 2668, "pitch": 43, "duration": 3, "velocity": 84}, {"time": 2668, "pitch": 55, "duration": 3, "velocity": 84}, {"time": 2668, "pitch": 62, "duration": 4, "velocity": 82}, {"time": 2680, "pitch": 42, "duration": 46, "velocity": 89}, {"time": 2680, "pitch": 54, "duration": 7, "velocity": 84}, {"time": 2680, "pitch": 66, "duration": 8, "velocity": 77}, {"time": 2686, "pitch": 49, "duration": 41, "velocity": 71}, {"time": 2692, "pitch": 58, "duration": 5, "velocity": 82}, {"time": 2698, "pitch": 54, "duration": 4, "velocity": 89}, {"time": 2704, "pitch": 61, "duration": 7, "velocity": 86}, {"time": 2710, "pitch": 54, "duration": 5, "velocity": 88}, {"time": 2716, "pitch": 66, "duration": 11, "velocity": 82}, {"time": 2728, "pitch": 47, "duration": 36, "velocity": 83}, {"time": 2728, "pitch": 62, "duration": 13, "velocity": 79}, {"time": 2734, "pitch": 54, "duration": 7, "velocity": 71}, {"time": 2740, "pitch": 59, "duration": 10, "velocity": 88}, {"time": 2746, "pitch": 54, "duration": 7, "velocity": 77}, {"time": 2752, "pitch": 66, "duration": 14, "velocity": 85}, {"time": 2758, "pitch": 54, "duration": 6, "velocity": 63}, {"time": 2764, "pitch": 59, "duration": 6, "velocity": 83}, {"time": 2776, "pitch": 42, "duration": 24, "velocity": 84}, {"time": 2776, "pitch": 61, "duration": 13, "velocity": 80}, {"time": 2782, "pitch": 49, "duration": 7, "velocity": 53}, {"time": 2788, "pitch": 57, "duration": 13, "velocity": 84}, {"time": 2794, "pitch": 49, "duration": 7, "velocity": 70}, {"time": 2800, "pitch": 61, "duration": 6, "velocity": 72}, {"time": 2800, "pitch": 66, "duration": 13, "velocity": 83}, {"time": 2806, "pitch": 49, "duration": 5, "velocity": 71}, {"time": 2812, "pitch": 57, "duration": 6, "velocity": 85}, {"time": 2824, "pitch": 47, "duration": 43, "velocity": 79}, {"time": 2824, "pitch": 62, "duration": 14, "velocity": 79}, {"time": 2830, "pitch": 54, "duration": 8, "velocity": 71}, {"time": 2836, "pitch": 59, "duration": 19, "velocity": 87}, {"time": 2842, "pitch": 54, "duration": 10, "velocity": 74}, {"time": 2848, "pitch": 66, "duration": 22, "velocity": 88}, {"time": 2854, "pitch": 54, "duration": 10, "velocity": 68}, {"time": 2860, "pitch": 59, "duration": 10, "velocity": 85}, {"time": 2872, "pitch": 47, "duration": 36, "velocity": 78}, {"time": 2872, "pitch": 62, "duration": 13, "velocity": 77}, {"time": 2878, "pitch": 54, "duration": 7, "velocity": 60}, {"time": 2884, "pitch": 59, "duration": 7, "velocity": 84}, {"time": 2890, "pitch": 54, "duration": 7, "velocity": 67}, {"time": 2896, "pitch": 59, "duration": 6, "velocity": 85}, {"time": 2896, "pitch": 66, "duration": 9, "velocity": 73}, {"time": 2902, "pitch": 54, "duration": 5, "velocity": 68}, {"time": 2908, "pitch": 59, "duration": 3, "velocity": 75}, {"time": 2908, "pitch": 62, "duration": 5, "velocity": 79}, {"time": 2914, "pitch": 59, "duration": 2, "velocity": 82}, {"time": 2920, "pitch": 45, "duration": 44, "velocity": 83}, {"time": 2920, "pitch": 57, "duration": 7, "velocity": 82}, {"time": 2920, "pitch": 61, "duration": 9, "velocity": 79}, {"time": 2926, "pitch": 52, "duration": 8, "velocity": 76}, {"time": 2932, "pitch": 61, "duration": 6, "velocity": 78}, {"time": 2938, "pitch": 52, "duration": 8, "velocity": 70}, {"time": 2944, "pitch": 57, "duration": 6, "velocity": 80}, {"time": 2944, "pitch": 64, "duration": 6, "velocity": 84}, {"time": 2950, "pitch": 52, "duration": 14, "velocity": 78}, {"time": 2956, "pitch": 57, "duration": 6, "velocity": 84}, {"time": 2968, "pitch": 45, "duration": 20, "velocity": 84}, {"time": 2968, "pitch": 57, "duration": 6, "velocity": 80}, {"time": 2968, "pitch": 61, "duration": 9, "velocity": 84}, {"time": 2974, "pitch": 52, "duration": 15, "velocity": 71}, {"time": 2980, "pitch": 57, "duration": 6, "velocity": 85}, {"time": 2986, "pitch": 61, "duration": 4, "velocity": 83}, {"time": 2992, "pitch": 47, "duration": 15, "velocity": 83}, {"time": 2992, "pitch": 59, "duration": 8, "velocity": 79}, {"time": 2992, "pitch": 62, "duration": 13, "velocity": 82}, {"time": 2998, "pitch": 54, "duration": 6, "velocity": 73}, {"time": 3004, "pitch": 59, "duration": 7, "velocity": 84}, {"time": 3010, "pitch": 62, "duration": 4, "velocity": 78}, {"time": 3016, "pitch": 45, "duration": 38, "velocity": 83}, {"time": 3016, "pitch": 57, "duration": 7, "velocity": 79}, {"time": 3016, "pitch": 61, "duration": 14, "velocity": 75}, {"time": 3022, "pitch": 52, "duration": 7, "velocity": 72}, {"time": 3028, "pitch": 57, "duration": 6, "velocity": 84}, {"time": 3034, "pitch": 52, "duration": 7, "velocity": 76}, {"time": 3040, "pitch": 57, "duration": 7, "velocity": 82}, {"time": 3040, "pitch": 61, "duration": 7, "velocity": 85}, {"time": 3040, "pitch": 64, "duration": 9, "velocity": 84}, {"time": 3046, "pitch": 52, "duration": 14, "velocity": 77}, {"time": 3052, "pitch": 57, "duration": 8, "velocity": 84}, {"time": 3058, "pitch": 61, "duration": 4, "velocity": 87}, {"time": 3064, "pitch": 47, "duration": 36, "velocity": 84}, {"time": 3064, "pitch": 59, "duration": 7, "velocity": 81}, {"time": 3064, "pitch": 62, "duration": 6, "velocity": 83}, {"time": 3070, "pitch": 54, "duration": 7, "velocity": 71}, {"time": 3076, "pitch": 59, "duration": 7, "velocity": 86}, {"time": 3082, "pitch": 54, "duration": 6, "velocity": 71}, {"time": 3088, "pitch": 59, "duration": 7, "velocity": 78}, {"time": 3088, "pitch": 62, "duration": 7, "velocity": 77}, {"time": 3088, "pitch": 66, "duration": 10, "velocity": 80}, {"time": 3094, "pitch": 54, "duration": 4, "velocity": 74}, {"time": 3100, "pitch": 59, "duration": 3, "velocity": 85}, {"time": 3112, "pitch": 45, "duration": 20, "velocity": 80}, {"time": 3112, "pitch": 57, "duration": 6, "velocity": 79}, {"time": 3112, "pitch": 61, "duration": 13, "velocity": 77}, {"time": 3118, "pitch": 52, "duration": 15, "velocity": 77}, {"time": 3124, "pitch": 57, "duration": 7, "velocity": 85}, {"time": 3130, "pitch": 61, "duration": 4, "velocity": 84}, {"time": 3136, "pitch": 47, "duration": 14, "velocity": 84}, {"time": 3136, "pitch": 59, "duration": 8, "velocity": 80}, {"time": 3136, "pitch": 62, "duration": 13, "velocity": 82}, {"time": 3142, "pitch": 54, "duration": 9, "velocity": 69}, {"time": 3148, "pitch": 59, "duration": 8, "velocity": 87}, {"time": 3160, "pitch": 49, "duration": 19, "velocity": 72}, {"time": 3160, "pitch": 61, "duration": 4, "velocity": 84}, {"time": 3160, "pitch": 64, "duration": 8, "velocity": 84}, {"time": 3166, "pitch": 61, "duration": 6, "velocity": 80}, {"time": 3172, "pitch": 64, "duration": 8, "velocity": 81}, {"time": 3184, "pitch": 50, "duration": 21, "velocity": 78}, {"time": 3184, "pitch": 57, "duration": 4, "velocity": 84}, {"time": 3184, "pitch": 62, "duration": 8, "velocity": 84}, {"time": 3190, "pitch": 57, "duration": 4, "velocity": 78}, {"time": 3196, "pitch": 66, "duration": 7, "velocity": 90}, {"time": 3202, "pitch": 57, "duration": 3, "velocity": 84}, {"time": 3208, "pitch": 45, "duration": 29, "velocity": 79}, {"time": 3208, "pitch": 52, "duration": 5, "velocity": 69}, {"time": 3208, "pitch": 57, "duration": 5, "velocity": 66}, {"time": 3208, "pitch": 61, "duration": 12, "velocity": 66}, {"time": 3214, "pitch": 52, "duration": 9, "velocity": 78}, {"time": 3220, "pitch": 57, "duration": 7, "velocity": 89}, {"time": 3226, "pitch": 52, "duration": 6, "velocity": 76}, {"time": 3232, "pitch": 57, "duration": 6, "velocity": 82}, {"time": 3232, "pitch": 61, "duration": 7, "velocity": 85}, {"time": 3232, "pitch": 64, "duration": 10, "velocity": 85}, {"time": 3238, "pitch": 52, "duration": 15, "velocity": 75}, {"time": 3244, "pitch": 57, "duration": 7, "velocity": 84}, {"time": 3250, "pitch": 61, "duration": 4, "velocity": 92}, {"time": 3256, "pitch": 47, "duration": 28, "velocity": 84}, {"time": 3256, "pitch": 59, "duration": 7, "velocity": 80}, {"time": 3256, "pitch": 62, "duration": 7, "velocity": 83}, {"time": 3262, "pitch": 54, "duration": 6, "velocity": 72}, {"time": 3268, "pitch": 59, "duration": 4, "velocity": 89}, {"time": 3274, "pitch": 54, "duration": 7, "velocity": 76}, {"time": 3280, "pitch": 59, "duration": 6, "velocity": 85}, {"time": 3280, "pitch": 62, "duration": 7, "velocity": 84}, {"time": 3280, "pitch": 66, "duration": 9, "velocity": 84}, {"time": 3286, "pitch": 47, "duration": 16, "velocity": 49}, {"time": 3286, "pitch": 54, "duration": 15, "velocity": 75}, {"time": 3292, "pitch": 59, "duration": 3, "velocity": 84}, {"time": 3298, "pitch": 62, "duration": 3, "velocity": 72}, {"time": 3304, "pitch": 47, "duration": 17, "velocity": 83}, {"time": 3304, "pitch": 59, "duration": 9, "velocity": 80}, {"time": 3304, "pitch": 66, "duration": 12, "velocity": 75}, {"time": 3310, "pitch": 54, "duration": 9, "velocity": 71}, {"time": 3316, "pitch": 62, "duration": 6, "velocity": 81}, {"time": 3322, "pitch": 59, "duration": 3, "velocity": 83}, {"time": 3328, "pitch": 45, "duration": 20, "velocity": 83}, {"time": 3328, "pitch": 57, "duration": 6, "velocity": 82}, {"time": 3328, "pitch": 61, "duration": 9, "velocity": 74}, {"time": 3334, "pitch": 52, "duration": 12, "velocity": 83}, {"time": 3340, "pitch": 57, "duration": 7, "velocity": 83}, {"time": 3346, "pitch": 61, "duration": 2, "velocity": 83}, {"time": 3352, "pitch": 43, "duration": 38, "velocity": 82}, {"time": 3352, "pitch": 55, "duration": 7, "velocity": 77}, {"time": 3352, "pitch": 62, "duration": 12, "velocity": 79}, {"time": 3358, "pitch": 50, "duration": 8, "velocity": 74}, {"time": 3364, "pitch": 55, "duration": 7, "velocity": 83}, {"time": 3370, "pitch": 50, "duration": 6, "velocity": 78}, {"time": 3376, "pitch": 55, "duration": 6, "velocity": 81}, {"time": 3376, "pitch": 62, "duration": 6, "velocity": 79}, {"time": 3382, "pitch": 50, "duration": 7, "velocity": 80}, {"time": 3388, "pitch": 55, "duration": 3, "velocity": 79}, {"time": 3388, "pitch": 59, "duration": 6, "velocity": 83}, {"time": 3394, "pitch": 43, "duration": 2, "velocity": 54}, {"time": 3394, "pitch": 50, "duration": 3, "velocity": 78}, {"time": 3400, "pitch": 45, "duration": 26, "velocity": 84}, {"time": 3400, "pitch": 57, "duration": 7, "velocity": 78}, {"time": 3400, "pitch": 61, "duration": 7, "velocity": 73}, {"time": 3406, "pitch": 52, "duration": 8, "velocity": 80}, {"time": 3412, "pitch": 57, "duration": 7, "velocity": 83}, {"time": 3418, "pitch": 52, "duration": 7, "velocity": 81}, {"time": 3424, "pitch": 57, "duration": 6, "velocity": 83}, {"time": 3424, "pitch": 61, "duration": 6, "velocity": 86}, {"time": 3430, "pitch": 52, "duration": 8, "velocity": 77}, {"time": 3436, "pitch": 57, "duration": 2, "velocity": 74}, {"time": 3436, "pitch": 61, "duration": 7, "velocity": 71}, {"time": 3436, "pitch": 64, "duration": 11, "velocity": 83}, {"time": 3442, "pitch": 57, "duration": 3, "velocity": 78}, {"time": 3448, "pitch": 47, "duration": 43, "velocity": 82}, {"time": 3448, "pitch": 59, "duration": 7, "velocity": 82}, {"time": 3448, "pitch": 62, "duration": 7, "velocity": 83}, {"time": 3454, "pitch": 54, "duration": 7, "velocity": 70}, {"time": 3460, "pitch": 59, "duration": 6, "velocity": 87}, {"time": 3466, "pitch": 54, "duration": 7, "velocity": 75}, {"time": 3472, "pitch": 59, "duration": 5, "velocity": 79}, {"time": 3472, "pitch": 66, "duration": 10, "velocity": 82}, {"time": 3478, "pitch": 54, "duration": 13, "velocity": 81}, {"time": 3484, "pitch": 59, "duration": 3, "velocity": 83}, {"time": 3484, "pitch": 62, "duration": 8, "velocity": 83}, {"time": 3490, "pitch": 59, "duration": 6, "velocity": 83}, {"time": 3496, "pitch": 37, "duration": 7, "velocity": 81}, {"time": 3496, "pitch": 61, "duration": 12, "velocity": 83}, {"time": 3496, "pitch": 64, "duration": 14, "velocity": 82}, {"time": 3508, "pitch": 49, "duration": 18, "velocity": 74}, {"time": 3514, "pitch": 56, "duration": 7, "velocity": 79}, {"time": 3520, "pitch": 61, "duration": 4, "velocity": 84}, {"time": 3520, "pitch": 64, "duration": 4, "velocity": 89}, {"time": 3520, "pitch": 68, "duration": 5, "velocity": 87}, {"time": 3526, "pitch": 56, "duration": 3, "velocity": 77}, {"time": 3532, "pitch": 61, "duration": 3, "velocity": 85}, {"time": 3538, "pitch": 64, "duration": 4, "velocity": 73}, {"time": 3544, "pitch": 49, "duration": 31, "velocity": 86}, {"time": 3544, "pitch": 61, "duration": 7, "velocity": 66}, {"time": 3544, "pitch": 64, "duration": 2, "velocity": 72}, {"time": 3544, "pitch": 68, "duration": 12, "velocity": 82}, {"time": 3550, "pitch": 56, "duration": 18, "velocity": 77}, {"time": 3556, "pitch": 61, "duration": 7, "velocity": 65}, {"time": 3562, "pitch": 64, "duration": 3, "velocity": 77}, {"time": 3568, "pitch": 61, "duration": 7, "velocity": 83}, {"time": 3568, "pitch": 64, "duration": 8, "velocity": 84}, {"time": 3568, "pitch": 68, "duration": 9, "velocity": 83}, {"time": 3574, "pitch": 56, "duration": 2, "velocity": 77}, {"time": 3580, "pitch": 61, "duration": 2, "velocity": 88}, {"time": 3592, "pitch": 47, "duration": 38, "velocity": 87}, {"time": 3592, "pitch": 59, "duration": 8, "velocity": 79}, {"time": 3592, "pitch": 63, "duration": 8, "velocity": 83}, {"time": 3604, "pitch": 59, "duration": 2, "velocity": 78}, {"time": 3604, "pitch": 66, "duration": 3, "velocity": 77}, {"time": 3610, "pitch": 59, "duration": 2, "velocity": 69}, {"time": 3616, "pitch": 59, "duration": 6, "velocity": 84}, {"time": 3616, "pitch": 63, "duration": 7, "velocity": 88}, {"time": 3622, "pitch": 54, "duration": 6, "velocity": 72}, {"time": 3628, "pitch": 59, "duration": 8, "velocity": 79}, {"time": 3634, "pitch": 63, "duration": 3, "velocity": 76}, {"time": 3640, "pitch": 35, "duration": 2, "velocity": 79}, {"time": 3640, "pitch": 59, "duration": 9, "velocity": 81}, {"time": 3640, "pitch": 63, "duration": 13, "velocity": 84}, {"time": 3640, "pitch": 66, "duration": 10, "velocity": 76}, {"time": 3652, "pitch": 47, "duration": 19, "velocity": 84}, {"time": 3658, "pitch": 54, "duration": 7, "velocity": 72}, {"time": 3664, "pitch": 59, "duration": 6, "velocity": 84}, {"time": 3664, "pitch": 63, "duration": 7, "velocity": 87}, {"time": 3664, "pitch": 66, "duration": 8, "velocity": 83}, {"time": 3670, "pitch": 54, "duration": 2, "velocity": 83}, {"time": 3676, "pitch": 59, "duration": 4, "velocity": 85}, {"time": 3688, "pitch": 45, "duration": 26, "velocity": 85}, {"time": 3688, "pitch": 61, "duration": 5, "velocity": 78}, {"time": 3688, "pitch": 64, "duration": 5, "velocity": 78}, {"time": 3694, "pitch": 52, "duration": 19, "velocity": 71}, {"time": 3700, "pitch": 57, "duration": 8, "velocity": 84}, {"time": 3706, "pitch": 61, "duration": 2, "velocity": 72}, {"time": 3712, "pitch": 57, "duration": 6, "velocity": 83}, {"time": 3712, "pitch": 61, "duration": 7, "velocity": 84}, {"time": 3712, "pitch": 64, "duration": 8, "velocity": 84}, {"time": 3718, "pitch": 52, "duration": 3, "velocity": 81}, {"time": 3724, "pitch": 57, "duration": 6, "velocity": 80}, {"time": 3730, "pitch": 64, "duration": 3, "velocity": 84}, {"time": 3736, "pitch": 47, "duration": 25, "velocity": 88}, {"time": 3736, "pitch": 59, "duration": 7, "velocity": 75}, {"time": 3736, "pitch": 63, "duration": 8, "velocity": 78}, {"time": 3742, "pitch": 54, "duration": 19, "velocity": 79}, {"time": 3748, "pitch": 59, "duration": 3, "velocity": 84}, {"time": 3760, "pitch": 59, "duration": 6, "velocity": 83}, {"time": 3760, "pitch": 63, "duration": 7, "velocity": 85}, {"time": 3760, "pitch": 66, "duration": 8, "velocity": 83}, {"time": 3766, "pitch": 54, "duration": 2, "velocity": 83}, {"time": 3772, "pitch": 59, "duration": 2, "velocity": 87}, {"time": 3784, "pitch": 37, "duration": 2, "velocity": 85}, {"time": 3784, "pitch": 61, "duration": 19, "velocity": 77}, {"time": 3784, "pitch": 64, "duration": 20, "velocity": 78}, {"time": 3796, "pitch": 49, "duration": 26, "velocity": 82}, {"time": 3802, "pitch": 56, "duration": 20, "velocity": 77}, {"time": 3808, "pitch": 61, "duration": 3, "velocity": 86}, {"time": 3820, "pitch": 61, "duration": 2, "velocity": 84}, {"time": 3820, "pitch": 64, "duration": 5, "velocity": 88}, {"time": 3826, "pitch": 61, "duration": 2, "velocity": 78}, {"time": 3832, "pitch": 44, "duration": 45, "velocity": 84}, {"time": 3838, "pitch": 51, "duration": 14, "velocity": 78}, {"time": 3844, "pitch": 56, "duration": 2, "velocity": 87}, {"time": 3850, "pitch": 56, "duration": 8, "velocity": 85}, {"time": 3850, "pitch": 60, "duration": 7, "velocity": 85}, {"time": 3856, "pitch": 51, "duration": 8, "velocity": 86}, {"time": 3862, "pitch": 56, "duration": 6, "velocity": 84}, {"time": 3862, "pitch": 60, "duration": 9, "velocity": 84}, {"time": 3862, "pitch": 63, "duration": 17, "velocity": 86}, {"time": 3868, "pitch": 51, "duration": 11, "velocity": 81}, {"time": 3874, "pitch": 56, "duration": 5, "velocity": 84}, {"time": 3874, "pitch": 60, "duration": 4, "velocity": 55}, {"time": 3880, "pitch": 37, "duration": 7, "velocity": 81}, {"time": 3880, "pitch": 61, "duration": 12, "velocity": 83}, {"time": 3880, "pitch": 64, "duration": 14, "velocity": 82}, {"time": 3892, "pitch": 49, "duration": 18, "velocity": 74}, {"time": 3898, "pitch": 56, "duration": 7, "velocity": 79}, {"time": 3904, "pitch": 61, "duration": 4, "velocity": 84}, {"time": 3904, "pitch": 64, "duration": 4, "velocity": 89}, {"time": 3904, "pitch": 68, "duration": 5, "velocity": 87}, {"time": 3910, "pitch": 56, "duration": 3, "velocity": 77}, {"time": 3916, "pitch": 61, "duration": 3, "velocity": 85}, {"time": 3922, "pitch": 64, "duration": 4, "velocity": 73}, {"time": 3928, "pitch": 49, "duration": 31, "velocity": 86}, {"time": 3928, "pitch": 61, "duration": 7, "velocity": 66}, {"time": 3928, "pitch": 64, "duration": 2, "velocity": 72}, {"time": 3928, "pitch": 68, "duration": 12, "velocity": 82}, {"time": 3934, "pitch": 56, "duration": 18, "velocity": 77}, {"time": 3940, "pitch": 61, "duration": 7, "velocity": 65}, {"time": 3946, "pitch": 64, "duration": 3, "velocity": 77}, {"time": 3952, "pitch": 61, "duration": 7, "velocity": 83}, {"time": 3952, "pitch": 64, "duration": 8, "velocity": 84}, {"time": 3952, "pitch": 68, "duration": 9, "velocity": 83}, {"time": 3958, "pitch": 56, "duration": 2, "velocity": 77}, {"time": 3964, "pitch": 61, "duration": 2, "velocity": 88}, {"time": 3976, "pitch": 47, "duration": 38, "velocity": 87}, {"time": 3976, "pitch": 59, "duration": 8, "velocity": 79}, {"time": 3976, "pitch": 63, "duration": 8, "velocity": 83}, {"time": 3988, "pitch": 59, "duration": 2, "velocity": 78}, {"time": 3988, "pitch": 66, "duration": 3, "velocity": 77}, {"time": 3994, "pitch": 59, "duration": 2, "velocity": 69}, {"time": 4000, "pitch": 59, "duration": 6, "velocity": 84}, {"time": 4000, "pitch": 63, "duration": 7, "velocity": 88}, {"time": 4006, "pitch": 54, "duration": 6, "velocity": 72}, {"time": 4012, "pitch": 59, "duration": 8, "velocity": 79}, {"time": 4018, "pitch": 63, "duration": 3, "velocity": 76}, {"time": 4024, "pitch": 35, "duration": 2, "velocity": 79}, {"time": 4024, "pitch": 59, "duration": 9, "velocity": 81}, {"time": 4024, "pitch": 63, "duration": 13, "velocity": 84}, {"time": 4024, "pitch": 66, "duration": 10, "velocity": 76}, {"time": 4036, "pitch": 47, "duration": 19, "velocity": 84}, {"time": 4042, "pitch": 54, "duration": 7, "velocity": 72}, {"time": 4048, "pitch": 59, "duration": 6, "velocity": 84}, {"time": 4048, "pitch": 63, "duration": 7, "velocity": 87}, {"time": 4048, "pitch": 66, "duration": 8, "velocity": 83}, {"time": 4054, "pitch": 54, "duration": 2, "velocity": 83}, {"time": 4060, "pitch": 59, "duration": 4, "velocity": 85}, {"time": 4072, "pitch": 45, "duration": 26, "velocity": 85}, {"time": 4072, "pitch": 61, "duration": 5, "velocity": 78}, {"time": 4072, "pitch": 64, "duration": 5, "velocity": 78}, {"time": 4078, "pitch": 52, "duration": 19, "velocity": 71}, {"time": 4084, "pitch": 57, "duration": 8, "velocity": 84}, {"time": 4090, "pitch": 61, "duration": 2, "velocity": 72}, {"time": 4096, "pitch": 57, "duration": 6, "velocity": 83}, {"time": 4096, "pitch": 61, "duration": 7, "velocity": 84}, {"time": 4096, "pitch": 64, "duration": 8, "velocity": 84}, {"time": 4102, "pitch": 52, "duration": 3, "velocity": 81}, {"time": 4108, "pitch": 57, "duration": 6, "velocity": 80}, {"time": 4114, "pitch": 64, "duration": 3, "velocity": 84}, {"time": 4120, "pitch": 47, "duration": 25, "velocity": 88}, {"time": 4120, "pitch": 59, "duration": 7, "velocity": 75}, {"time": 4120, "pitch": 63, "duration": 8, "velocity": 78}, {"time": 4126, "pitch": 54, "duration": 19, "velocity": 79}, {"time": 4132, "pitch": 59, "duration": 3, "velocity": 84}, {"time": 4144, "pitch": 59, "duration": 6, "velocity": 83}, {"time": 4144, "pitch": 63, "duration": 7, "velocity": 85}, {"time": 4144, "pitch": 66, "duration": 8, "velocity": 83}, {"time": 4150, "pitch": 54, "duration": 2, "velocity": 83}, {"time": 4156, "pitch": 59, "duration": 2, "velocity": 87}, {"time": 4168, "pitch": 37, "duration": 2, "velocity": 85}, {"time": 4168, "pitch": 61, "duration": 19, "velocity": 77}, {"time": 4168, "pitch": 64, "duration": 20, "velocity": 78}, {"time": 4180, "pitch": 49, "duration": 26, "velocity": 82}, {"time": 4186, "pitch": 56, "duration": 20, "velocity": 77}, {"time": 4192, "pitch": 61, "duration": 3, "velocity": 86}, {"time": 4204, "pitch": 61, "duration": 2, "velocity": 84}, {"time": 4204, "pitch": 64, "duration": 5, "velocity": 88}, {"time": 4210, "pitch": 61, "duration": 2, "velocity": 78}, {"time": 4216, "pitch": 37, "duration": 21, "velocity": 90}, {"time": 4216, "pitch": 56, "duration": 8, "velocity": 79}, {"time": 4216, "pitch": 61, "duration": 8, "velocity": 83}, {"time": 4222, "pitch": 44, "duration": 9, "velocity": 71}, {"time": 4228, "pitch": 56, "duration": 2, "velocity": 70}, {"time": 4234, "pitch": 44, "duration": 3, "velocity": 65}, {"time": 4234, "pitch": 56, "duration": 3, "velocity": 69}, {"time": 4234, "pitch": 61, "duration": 4, "velocity": 73}, {"time": 4240, "pitch": 37, "duration": 3, "velocity": 81}, {"time": 4240, "pitch": 44, "duration": 2, "velocity": 78}, {"time": 4240, "pitch": 56, "duration": 3, "velocity": 80}, {"time": 4240, "pitch": 61, "duration": 3, "velocity": 81}, {"time": 4246, "pitch": 37, "duration": 17, "velocity": 83}, {"time": 4246, "pitch": 44, "duration": 17, "velocity": 79}, {"time": 4246, "pitch": 56, "duration": 3, "velocity": 83}, {"time": 4246, "pitch": 61, "duration": 3, "velocity": 85}, {"time": 4252, "pitch": 56, "duration": 11, "velocity": 86}, {"time": 4252, "pitch": 61, "duration": 11, "velocity": 87}, {"time": 4264, "pitch": 44, "duration": 28, "velocity": 94}, {"time": 4264, "pitch": 59, "duration": 8, "velocity": 83}, {"time": 4264, "pitch": 63, "duration": 14, "velocity": 84}, {"time": 4270, "pitch": 51, "duration": 21, "velocity": 67}, {"time": 4276, "pitch": 59, "duration": 7, "velocity": 84}, {"time": 4288, "pitch": 59, "duration": 7, "velocity": 85}, {"time": 4288, "pitch": 63, "duration": 8, "velocity": 97}, {"time": 4288, "pitch": 68, "duration": 7, "velocity": 85}, {"time": 4294, "pitch": 51, "duration": 3, "velocity": 79}, {"time": 4300, "pitch": 59, "duration": 2, "velocity": 83}, {"time": 4306, "pitch": 63, "duration": 2, "velocity": 90}, {"time": 4312, "pitch": 44, "duration": 25, "velocity": 85}, {"time": 4312, "pitch": 59, "duration": 7, "velocity": 81}, {"time": 4312, "pitch": 63, "duration": 13, "velocity": 85}, {"time": 4318, "pitch": 51, "duration": 9, "velocity": 67}, {"time": 4324, "pitch": 59, "duration": 6, "velocity": 73}, {"time": 4330, "pitch": 51, "duration": 7, "velocity": 71}, {"time": 4336, "pitch": 59, "duration": 6, "velocity": 85}, {"time": 4336, "pitch": 63, "duration": 9, "velocity": 90}, {"time": 4336, "pitch": 68, "duration": 12, "velocity": 82}, {"time": 4342, "pitch": 51, "duration": 5, "velocity": 81}, {"time": 4348, "pitch": 59, "duration": 4, "velocity": 87}, {"time": 4360, "pitch": 45, "duration": 36, "velocity": 85}, {"time": 4360, "pitch": 57, "duration": 7, "velocity": 83}, {"time": 4360, "pitch": 61, "duration": 7, "velocity": 83}, {"time": 4366, "pitch": 52, "duration": 20, "velocity": 75}, {"time": 4372, "pitch": 57, "duration": 9, "velocity": 83}, {"time": 4372, "pitch": 64, "duration": 7, "velocity": 81}, {"time": 4378, "pitch": 61, "duration": 2, "velocity": 72}, {"time": 4384, "pitch": 57, "duration": 5, "velocity": 81}, {"time": 4384, "pitch": 61, "duration": 7, "velocity": 86}, {"time": 4384, "pitch": 64, "duration": 7, "velocity": 84}, {"time": 4384, "pitch": 69, "duration": 6, "velocity": 84}, {"time": 4390, "pitch": 52, "duration": 5, "velocity": 82}, {"time": 4396, "pitch": 57, "duration": 7, "velocity": 84}, {"time": 4402, "pitch": 61, "duration": 4, "velocity": 79}, {"time": 4408, "pitch": 47, "duration": 30, "velocity": 84}, {"time": 4408, "pitch": 59, "duration": 6, "velocity": 76}, {"time": 4408, "pitch": 63, "duration": 6, "velocity": 83}, {"time": 4414, "pitch": 54, "duration": 20, "velocity": 81}, {"time": 4420, "pitch": 59, "duration": 4, "velocity": 82}, {"time": 4426, "pitch": 66, "duration": 3, "velocity": 85}, {"time": 4432, "pitch": 71, "duration": 6, "velocity": 89}, {"time": 4438, "pitch": 66, "duration": 11, "velocity": 88}, {"time": 4444, "pitch": 54, "duration": 5, "velocity": 88}, {"time": 4450, "pitch": 59, "duration": 4, "velocity": 84}, {"time": 4456, "pitch": 52, "duration": 28, "velocity": 92}, {"time": 4456, "pitch": 59, "duration": 3, "velocity": 80}, {"time": 4456, "pitch": 64, "duration": 7, "velocity": 83}, {"time": 4462, "pitch": 59, "duration": 6, "velocity": 82}, {"time": 4468, "pitch": 64, "duration": 7, "velocity": 75}, {"time": 4474, "pitch": 59, "duration": 2, "velocity": 77}, {"time": 4480, "pitch": 59, "duration": 3, "velocity": 81}, {"time": 4480, "pitch": 64, "duration": 5, "velocity": 85}, {"time": 4480, "pitch": 68, "duration": 9, "velocity": 84}, {"time": 4486, "pitch": 59, "duration": 5, "velocity": 83}, {"time": 4492, "pitch": 64, "duration": 4, "velocity": 75}, {"time": 4504, "pitch": 47, "duration": 27, "velocity": 84}, {"time": 4504, "pitch": 63, "duration": 7, "velocity": 85}, {"time": 4510, "pitch": 54, "duration": 18, "velocity": 82}, {"time": 4516, "pitch": 66, "duration": 6, "velocity": 81}, {"time": 4522, "pitch": 59, "duration": 3, "velocity": 83}, {"time": 4528, "pitch": 59, "duration": 3, "velocity": 87}, {"time": 4528, "pitch": 71, "duration": 7, "velocity": 72}, {"time": 4534, "pitch": 59, "duration": 1, "velocity": 66}, {"time": 4540, "pitch": 47, "duration": 6, "velocity": 81}, {"time": 4540, "pitch": 59, "duration": 2, "velocity": 72}, {"time": 4540, "pitch": 63, "duration": 6, "velocity": 65}, {"time": 4540, "pitch": 66, "duration": 7, "velocity": 82}, {"time": 4546, "pitch": 59, "duration": 3, "velocity": 76}, {"time": 4552, "pitch": 45, "duration": 34, "velocity": 84}, {"time": 4552, "pitch": 57, "duration": 6, "velocity": 80}, {"time": 4552, "pitch": 61, "duration": 7, "velocity": 83}, {"time": 4558, "pitch": 52, "duration": 28, "velocity": 69}, {"time": 4564, "pitch": 64, "duration": 6, "velocity": 79}, {"time": 4570, "pitch": 57, "duration": 5, "velocity": 79}, {"time": 4576, "pitch": 69, "duration": 7, "velocity": 88}, {"time": 4582, "pitch": 57, "duration": 2, "velocity": 77}, {"time": 4588, "pitch": 45, "duration": 3, "velocity": 84}, {"time": 4588, "pitch": 57, "duration": 3, "velocity": 84}, {"time": 4588, "pitch": 64, "duration": 4, "velocity": 82}, {"time": 4600, "pitch": 44, "duration": 46, "velocity": 89}, {"time": 4600, "pitch": 56, "duration": 7, "velocity": 84}, {"time": 4600, "pitch": 68, "duration": 8, "velocity": 77}, {"time": 4606, "pitch": 51, "duration": 41, "velocity": 71}, {"time": 4612, "pitch": 60, "duration": 5, "velocity": 82}, {"time": 4618, "pitch": 56, "duration": 4, "velocity": 89}, {"time": 4624, "pitch": 63, "duration": 7, "velocity": 86}, {"time": 4630, "pitch": 56, "duration": 5, "velocity": 88}, {"time": 4636, "pitch": 68, "duration": 11, "velocity": 82}, {"time": 4648, "pitch": 49, "duration": 36, "velocity": 83}, {"time": 4648, "pitch": 64, "duration": 13, "velocity": 79}, {"time": 4654, "pitch": 56, "duration": 7, "velocity": 71}, {"time": 4660, "pitch": 61, "duration": 10, "velocity": 88}, {"time": 4666, "pitch": 56, "duration": 7, "velocity": 77}, {"time": 4672, "pitch": 68, "duration": 14, "velocity": 85}, {"time": 4678, "pitch": 56, "duration": 6, "velocity": 63}, {"time": 4684, "pitch": 61, "duration": 6, "velocity": 83}, {"time": 4696, "pitch": 44, "duration": 24, "velocity": 84}, {"time": 4696, "pitch": 63, "duration": 13, "velocity": 80}, {"time": 4702, "pitch": 51, "duration": 7, "velocity": 53}, {"time": 4708, "pitch": 59, "duration": 13, "velocity": 84}, {"time": 4714, "pitch": 51, "duration": 7, "velocity": 70}, {"time": 4720, "pitch": 63, "duration": 6, "velocity": 72}, {"time": 4720, "pitch": 68, "duration": 13, "velocity": 83}, {"time": 4726, "pitch": 51, "duration": 5, "velocity": 71}, {"time": 4732, "pitch": 59, "duration": 6, "velocity": 85}, {"time": 4744, "pitch": 49, "duration": 43, "velocity": 79}, {"time": 4744, "pitch": 64, "duration": 14, "velocity": 79}, {"time": 4750, "pitch": 56, "duration": 8, "velocity": 71}, {"time": 4756, "pitch": 61, "duration": 19, "velocity": 87}, {"time": 4762, "pitch": 56, "duration": 10, "velocity": 74}, {"time": 4768, "pitch": 68, "duration": 22, "velocity": 88}, {"time": 4774, "pitch": 56, "duration": 10, "velocity": 68}, {"time": 4780, "pitch": 61, "duration": 10, "velocity": 85}, {"time": 4792, "pitch": 49, "duration": 36, "velocity": 78}, {"time": 4792, "pitch": 64, "duration": 13, "velocity": 77}, {"time": 4798, "pitch": 56, "duration": 7, "velocity": 60}, {"time": 4804, "pitch": 61, "duration": 7, "velocity": 84}, {"time": 4810, "pitch": 56, "duration": 7, "velocity": 67}, {"time": 4816, "pitch": 61, "duration": 6, "velocity": 85}, {"time": 4816, "pitch": 68, "duration": 9, "velocity": 73}, {"time": 4822, "pitch": 56, "duration": 5, "velocity": 68}, {"time": 4828, "pitch": 61, "duration": 3, "velocity": 75}, {"time": 4828, "pitch": 64, "duration": 5, "velocity": 79}, {"time": 4834, "pitch": 61, "duration": 2, "velocity": 82}, {"time": 4840, "pitch": 47, "duration": 44, "velocity": 83}, {"time": 4840, "pitch": 59, "duration": 7, "velocity": 82}, {"time": 4840, "pitch": 63, "duration": 9, "velocity": 79}, {"time": 4846, "pitch": 54, "duration": 8, "velocity": 76}, {"time": 4852, "pitch": 63, "duration": 6, "velocity": 78}, {"time": 4858, "pitch": 54, "duration": 8, "velocity": 70}, {"time": 4864, "pitch": 59, "duration": 6, "velocity": 80}, {"time": 4864, "pitch": 66, "duration": 6, "velocity": 84}, {"time": 4870, "pitch": 54, "duration": 14, "velocity": 78}, {"time": 4876, "pitch": 59, "duration": 6, "velocity": 84}, {"time": 4888, "pitch": 47, "duration": 20, "velocity": 84}, {"time": 4888, "pitch": 59, "duration": 6, "velocity": 80}, {"time": 4888, "pitch": 63, "duration": 9, "velocity": 84}, {"time": 4894, "pitch": 54, "duration": 15, "velocity": 71}, {"time": 4900, "pitch": 59, "duration": 6, "velocity": 85}, {"time": 4906, "pitch": 63, "duration": 4, "velocity": 83}, {"time": 4912, "pitch": 49, "duration": 15, "velocity": 83}, {"time": 4912, "pitch": 61, "duration": 8, "velocity": 79}, {"time": 4912, "pitch": 64, "duration": 13, "velocity": 82}, {"time": 4918, "pitch": 56, "duration": 6, "velocity": 73}, {"time": 4924, "pitch": 61, "duration": 7, "velocity": 84}, {"time": 4930, "pitch": 64, "duration": 4, "velocity": 78}, {"time": 4936, "pitch": 47, "duration": 38, "velocity": 83}, {"time": 4936, "pitch": 59, "duration": 7, "velocity": 79}, {"time": 4936, "pitch": 63, "duration": 14, "velocity": 75}, {"time": 4942, "pitch": 54, "duration": 7, "velocity": 72}, {"time": 4948, "pitch": 59, "duration": 6, "velocity": 84}, {"time": 4954, "pitch": 54, "duration": 7, "velocity": 76}, {"time": 4960, "pitch": 59, "duration": 7, "velocity": 82}, {"time": 4960, "pitch": 63, "duration": 7, "velocity": 85}, {"time": 4960, "pitch": 66, "duration": 9, "velocity": 84}, {"time": 4966, "pitch": 54, "duration": 14, "velocity": 77}, {"time": 4972, "pitch": 59, "duration": 8, "velocity": 84}, {"time": 4978, "pitch": 63, "duration": 4, "velocity": 87}, {"time": 4984, "pitch": 49, "duration": 36, "velocity": 84}, {"time": 4984, "pitch": 61, "duration": 7, "velocity": 81}, {"time": 4984, "pitch": 64, "duration": 6, "velocity": 83}, {"time": 4990, "pitch": 56, "duration": 7, "velocity": 71}, {"time": 4996, "pitch": 61, "duration": 7, "velocity": 86}, {"time": 5002, "pitch": 56, "duration": 6, "velocity": 71}, {"time": 5008, "pitch": 61, "duration": 7, "velocity": 78}, {"time": 5008, "pitch": 64, "duration": 7, "velocity": 77}, {"time": 5008, "pitch": 68, "duration": 10, "velocity": 80}, {"time": 5014, "pitch": 56, "duration": 4, "velocity": 74}, {"time": 5020, "pitch": 61, "duration": 3, "velocity": 85}, {"time": 5032, "pitch": 47, "duration": 20, "velocity": 80}, {"time": 5032, "pitch": 59, "duration": 6, "velocity": 79}, {"time": 5032, "pitch": 63, "duration": 13, "velocity": 77}, {"time": 5038, "pitch": 54, "duration": 15, "velocity": 77}, {"time": 5044, "pitch": 59, "duration": 7, "velocity": 85}, {"time": 5050, "pitch": 63, "duration": 4, "velocity": 84}, {"time": 5056, "pitch": 49, "duration": 14, "velocity": 84}, {"time": 5056, "pitch": 61, "duration": 8, "velocity": 80}, {"time": 5056, "pitch": 64, "duration": 13, "velocity": 82}, {"time": 5062, "pitch": 56, "duration": 9, "velocity": 69}, {"time": 5068, "pitch": 61, "duration": 8, "velocity": 87}, {"time": 5080, "pitch": 51, "duration": 19, "velocity": 72}, {"time": 5080, "pitch": 63, "duration": 4, "velocity": 84}, {"time": 5080, "pitch": 66, "duration": 8, "velocity": 84}, {"time": 5086, "pitch": 63, "duration": 6, "velocity": 80}, {"time": 5092, "pitch": 66, "duration": 8, "velocity": 81}, {"time": 5104, "pitch": 52, "duration": 21, "velocity": 78}, {"time": 5104, "pitch": 59, "duration": 4, "velocity": 84}, {"time": 5104, "pitch": 64, "duration": 8, "velocity": 84}, {"time": 5110, "pitch": 59, "duration": 4, "velocity": 78}, {"time": 5116, "pitch": 68, "duration": 7, "velocity": 90}, {"time": 5122, "pitch": 59, "duration": 3, "velocity": 84}, {"time": 5128, "pitch": 47, "duration": 29, "velocity": 79}, {"time": 5128, "pitch": 54, "duration": 5, "velocity": 69}, {"time": 5128, "pitch": 59, "duration": 5, "velocity": 66}, {"time": 5128, "pitch": 63, "duration": 12, "velocity": 66}, {"time": 5134, "pitch": 54, "duration": 9, "velocity": 78}, {"time": 5140, "pitch": 59, "duration": 7, "velocity": 89}, {"time": 5146, "pitch": 54, "duration": 6, "velocity": 76}, {"time": 5152, "pitch": 59, "duration": 6, "velocity": 82}, {"time": 5152, "pitch": 63, "duration": 7, "velocity": 85}, {"time": 5152, "pitch": 66, "duration": 10, "velocity": 85}, {"time": 5158, "pitch": 54, "duration": 15, "velocity": 75}, {"time": 5164, "pitch": 59, "duration": 7, "velocity": 84}, {"time": 5170, "pitch": 63, "duration": 4, "velocity": 92}, {"time": 5176, "pitch": 49, "duration": 28, "velocity": 84}, {"time": 5176, "pitch": 61, "duration": 7, "velocity": 80}, {"time": 5176, "pitch": 64, "duration": 7, "velocity": 83}, {"time": 5182, "pitch": 56, "duration": 6, "velocity": 72}, {"time": 5188, "pitch": 61, "duration": 4, "velocity": 89}, {"time": 5194, "pitch": 56, "duration": 7, "velocity": 76}, {"time": 5200, "pitch": 61, "duration": 6, "velocity": 85}, {"time": 5200, "pitch": 64, "duration": 7, "velocity": 84}, {"time": 5200, "pitch": 68, "duration": 9, "velocity": 84}, {"time": 5206, "pitch": 49, "duration": 16, "velocity": 49}, {"time": 5206, "pitch": 56, "duration": 15, "velocity": 75}, {"time": 5212, "pitch": 61, "duration": 3, "velocity": 84}, {"time": 5218, "pitch": 64, "duration": 3, "velocity": 72}, {"time": 5224, "pitch": 49, "duration": 17, "velocity": 83}, {"time": 5224, "pitch": 61, "duration": 9, "velocity": 80}, {"time": 5224, "pitch": 68, "duration": 12, "velocity": 75}, {"time": 5230, "pitch": 56, "duration": 9, "velocity": 71}, {"time": 5236, "pitch": 64, "duration": 6, "velocity": 81}, {"time": 5242, "pitch": 61, "duration": 3, "velocity": 83}, {"time": 5248, "pitch": 47, "duration": 20, "velocity": 83}, {"time": 5248, "pitch": 59, "duration": 6, "velocity": 82}, {"time": 5248, "pitch": 63, "duration": 9, "velocity": 74}, {"time": 5254, "pitch": 54, "duration": 12, "velocity": 83}, {"time": 5260, "pitch": 59, "duration": 7, "velocity": 83}, {"time": 5266, "pitch": 63, "duration": 2, "velocity": 83}, {"time": 5272, "pitch": 45, "duration": 38, "velocity": 82}, {"time": 5272, "pitch": 57, "duration": 7, "velocity": 77}, {"time": 5272, "pitch": 64, "duration": 12, "velocity": 79}, {"time": 5278, "pitch": 52, "duration": 8, "velocity": 74}, {"time": 5284, "pitch": 57, "duration": 7, "velocity": 83}, {"time": 5290, "pitch": 52, "duration": 6, "velocity": 78}, {"time": 5296, "pitch": 57, "duration": 6, "velocity": 81}, {"time": 5296, "pitch": 64, "duration": 6, "velocity": 79}, {"time": 5302, "pitch": 52, "duration": 7, "velocity": 80}, {"time": 5308, "pitch": 57, "duration": 3, "velocity": 79}, {"time": 5308, "pitch": 61, "duration": 6, "velocity": 83}, {"time": 5314, "pitch": 45, "duration": 2, "velocity": 54}, {"time": 5314, "pitch": 52, "duration": 3, "velocity": 78}, {"time": 5320, "pitch": 47, "duration": 26, "velocity": 84}, {"time": 5320, "pitch": 59, "duration": 7, "velocity": 78}, {"time": 5320, "pitch": 63, "duration": 7, "velocity": 73}, {"time": 5326, "pitch": 54, "duration": 8, "velocity": 80}, {"time": 5332, "pitch": 59, "duration": 7, "velocity": 83}, {"time": 5338, "pitch": 54, "duration": 7, "velocity": 81}, {"time": 5344, "pitch": 59, "duration": 6, "velocity": 83}, {"time": 5344, "pitch": 63, "duration": 6, "velocity": 86}, {"time": 5350, "pitch": 54, "duration": 8, "velocity": 77}, {"time": 5356, "pitch": 59, "duration": 2, "velocity": 74}, {"time": 5356, "pitch": 63, "duration": 7, "velocity": 71}, {"time": 5356, "pitch": 66, "duration": 11, "velocity": 83}, {"time": 5362, "pitch": 59, "duration": 3, "velocity": 78}, {"time": 5368, "pitch": 49, "duration": 43, "velocity": 82}, {"time": 5368, "pitch": 61, "duration": 7, "velocity": 82}, {"time": 5368, "pitch": 64, "duration": 7, "velocity": 83}, {"time": 5374, "pitch": 56, "duration": 7, "velocity": 70}, {"time": 5380, "pitch": 61, "duration": 6, "velocity": 87}, {"time": 5386, "pitch": 56, "duration": 7, "velocity": 75}, {"time": 5392, "pitch": 61, "duration": 5, "velocity": 79}, {"time": 5392, "pitch": 68, "duration": 10, "velocity": 82}, {"time": 5398, "pitch": 56, "duration": 13, "velocity": 81}, {"time": 5404, "pitch": 61, "duration": 3, "velocity": 83}, {"time": 5404, "pitch": 64, "duration": 8, "velocity": 83}, {"time": 5410, "pitch": 61, "duration": 6, "velocity": 83}, {"time": 5416, "pitch": 49, "duration": 17, "velocity": 83}, {"time": 5416, "pitch": 61, "duration": 1, "velocity": 80}, {"time": 5416, "pitch": 68, "duration": 12, "velocity": 75}, {"time": 5422, "pitch": 56, "duration": 9, "velocity": 71}, {"time": 5428, "pitch": 64, "duration": 6, "velocity": 81}, {"time": 5434, "pitch": 61, "duration": 3, "velocity": 83}, {"time": 5440, "pitch": 47, "duration": 20, "velocity": 83}, {"time": 5440, "pitch": 59, "duration": 6, "velocity": 82}, {"time": 5440, "pitch": 63, "duration": 9, "velocity": 74}, {"time": 5446, "pitch": 54, "duration": 12, "velocity": 83}, {"time": 5452, "pitch": 59, "duration": 7, "velocity": 83}, {"time": 5458, "pitch": 63, "duration": 2, "velocity": 83}, {"time": 5464, "pitch": 45, "duration": 38, "velocity": 82}, {"time": 5464, "pitch": 57, "duration": 7, "velocity": 77}, {"time": 5464, "pitch": 64, "duration": 12, "velocity": 79}, {"time": 5470, "pitch": 52, "duration": 8, "velocity": 74}, {"time": 5476, "pitch": 57, "duration": 7, "velocity": 83}, {"time": 5482, "pitch": 52, "duration": 6, "velocity": 78}, {"time": 5488, "pitch": 57, "duration": 6, "velocity": 81}, {"time": 5488, "pitch": 64, "duration": 6, "velocity": 79}, {"time": 5494, "pitch": 52, "duration": 7, "velocity": 80}, {"time": 5500, "pitch": 57, "duration": 3, "velocity": 79}, {"time": 5500, "pitch": 61, "duration": 6, "velocity": 83}, {"time": 5506, "pitch": 45, "duration": 2, "velocity": 54}, {"time": 5506, "pitch": 52, "duration": 3, "velocity": 78}, {"time": 5512, "pitch": 47, "duration": 26, "velocity": 84}, {"time": 5512, "pitch": 59, "duration": 7, "velocity": 78}, {"time": 5512, "pitch": 63, "duration": 7, "velocity": 73}, {"time": 5518, "pitch": 54, "duration": 8, "velocity": 80}, {"time": 5524, "pitch": 59, "duration": 7, "velocity": 83}, {"time": 5530, "pitch": 54, "duration": 7, "velocity": 81}, {"time": 5536, "pitch": 59, "duration": 6, "velocity": 83}, {"time": 5536, "pitch": 63, "duration": 6, "velocity": 86}, {"time": 5542, "pitch": 54, "duration": 8, "velocity": 77}, {"time": 5548, "pitch": 59, "duration": 2, "velocity": 74}, {"time": 5548, "pitch": 63, "duration": 7, "velocity": 71}, {"time": 5548, "pitch": 66, "duration": 11, "velocity": 83}, {"time": 5554, "pitch": 59, "duration": 3, "velocity": 78}, {"time": 5560, "pitch": 49, "duration": 43, "velocity": 82}, {"time": 5560, "pitch": 61, "duration": 7, "velocity": 82}, {"time": 5560, "pitch": 64, "duration": 7, "velocity": 83}, {"time": 5566, "pitch": 56, "duration": 7, "velocity": 70}, {"time": 5572, "pitch": 61, "duration": 6, "velocity": 87}, {"time": 5578, "pitch": 56, "duration": 7, "velocity": 75}, {"time": 5584, "pitch": 61, "duration": 5, "velocity": 79}, {"time": 5584, "pitch": 68, "duration": 10, "velocity": 82}, {"time": 5590, "pitch": 56, "duration": 13, "velocity": 81}, {"time": 5596, "pitch": 61, "duration": 3, "velocity": 83}, {"time": 5596, "pitch": 64, "duration": 8, "velocity": 83}, {"time": 5602, "pitch": 61, "duration": 6, "velocity": 83}, {"time": 5608, "pitch": 49, "duration": 39, "velocity": 83}, {"time": 5608, "pitch": 61, "duration": 1, "velocity": 82}, {"time": 5608, "pitch": 68, "duration": 15, "velocity": 78}, {"time": 5614, "pitch": 56, "duration": 9, "velocity": 67}, {"time": 5620, "pitch": 61, "duration": 8, "velocity": 84}, {"time": 5626, "pitch": 56, "duration": 8, "velocity": 68}, {"time": 5632, "pitch": 64, "duration": 12, "velocity": 82}, {"time": 5632, "pitch": 68, "duration": 13, "velocity": 77}, {"time": 5638, "pitch": 56, "duration": 7, "velocity": 72}, {"time": 5644, "pitch": 61, "duration": 9, "velocity": 87}, {"time": 5650, "pitch": 64, "duration": 2, "velocity": 73}, {"time": 5656, "pitch": 47, "duration": 36, "velocity": 82}, {"time": 5656, "pitch": 59, "duration": 7, "velocity": 74}, {"time": 5656, "pitch": 63, "duration": 13, "velocity": 78}, {"time": 5662, "pitch": 54, "duration": 9, "velocity": 73}, {"time": 5668, "pitch": 59, "duration": 7, "velocity": 86}, {"time": 5674, "pitch": 54, "duration": 7, "velocity": 79}, {"time": 5680, "pitch": 59, "duration": 7, "velocity": 84}, {"time": 5680, "pitch": 66, "duration": 7, "velocity": 84}, {"time": 5686, "pitch": 54, "duration": 6, "velocity": 80}, {"time": 5692, "pitch": 63, "duration": 6, "velocity": 94}, {"time": 5698, "pitch": 59, "duration": 3, "velocity": 85}, {"time": 5704, "pitch": 45, "duration": 36, "velocity": 80}, {"time": 5704, "pitch": 57, "duration": 8, "velocity": 83}, {"time": 5704, "pitch": 61, "duration": 9, "velocity": 80}, {"time": 5710, "pitch": 52, "duration": 21, "velocity": 82}, {"time": 5716, "pitch": 64, "duration": 6, "velocity": 88}, {"time": 5722, "pitch": 57, "duration": 5, "velocity": 78}, {"time": 5728, "pitch": 64, "duration": 13, "velocity": 83}, {"time": 5734, "pitch": 52, "duration": 7, "velocity": 81}, {"time": 5740, "pitch": 57, "duration": 7, "velocity": 84}, {"time": 5746, "pitch": 61, "duration": 5, "velocity": 79}, {"time": 5752, "pitch": 47, "duration": 38, "velocity": 82}, {"time": 5752, "pitch": 63, "duration": 12, "velocity": 84}, {"time": 5758, "pitch": 54, "duration": 33, "velocity": 78}, {"time": 5764, "pitch": 59, "duration": 9, "velocity": 85}, {"time": 5770, "pitch": 63, "duration": 3, "velocity": 87}, {"time": 5776, "pitch": 64, "duration": 6, "velocity": 77}, {"time": 5782, "pitch": 63, "duration": 6, "velocity": 85}, {"time": 5788, "pitch": 59, "duration": 4, "velocity": 83}, {"time": 5800, "pitch": 49, "duration": 36, "velocity": 81}, {"time": 5800, "pitch": 61, "duration": 7, "velocity": 79}, {"time": 5800, "pitch": 64, "duration": 13, "velocity": 83}, {"time": 5806, "pitch": 56, "duration": 8, "velocity": 75}, {"time": 5812, "pitch": 61, "duration": 7, "velocity": 85}, {"time": 5818, "pitch": 56, "duration": 7, "velocity": 72}, {"time": 5824, "pitch": 61, "duration": 7, "velocity": 85}, {"time": 5824, "pitch": 68, "duration": 7, "velocity": 79}, {"time": 5830, "pitch": 56, "duration": 5, "velocity": 68}, {"time": 5836, "pitch": 64, "duration": 6, "velocity": 83}, {"time": 5842, "pitch": 61, "duration": 4, "velocity": 75}, {"time": 5848, "pitch": 47, "duration": 26, "velocity": 72}, {"time": 5848, "pitch": 59, "duration": 6, "velocity": 74}, {"time": 5848, "pitch": 63, "duration": 8, "velocity": 83}, {"time": 5854, "pitch": 54, "duration": 9, "velocity": 78}, {"time": 5860, "pitch": 59, "duration": 7, "velocity": 85}, {"time": 5866, "pitch": 54, "duration": 6, "velocity": 81}, {"time": 5872, "pitch": 59, "duration": 6, "velocity": 83}, {"time": 5872, "pitch": 64, "duration": 5, "velocity": 83}, {"time": 5878, "pitch": 54, "duration": 5, "velocity": 83}, {"time": 5884, "pitch": 59, "duration": 4, "velocity": 74}, {"time": 5884, "pitch": 63, "duration": 5, "velocity": 88}, {"time": 5896, "pitch": 45, "duration": 42, "velocity": 81}, {"time": 5896, "pitch": 57, "duration": 7, "velocity": 79}, {"time": 5896, "pitch": 61, "duration": 11, "velocity": 72}, {"time": 5902, "pitch": 52, "duration": 20, "velocity": 71}, {"time": 5908, "pitch": 57, "duration": 8, "velocity": 84}, {"time": 5914, "pitch": 61, "duration": 5, "velocity": 75}, {"time": 5920, "pitch": 64, "duration": 11, "velocity": 84}, {"time": 5926, "pitch": 52, "duration": 13, "velocity": 75}, {"time": 5932, "pitch": 57, "duration": 6, "velocity": 86}, {"time": 5938, "pitch": 64, "duration": 5, "velocity": 78}, {"time": 5944, "pitch": 47, "duration": 39, "velocity": 84}, {"time": 5944, "pitch": 59, "duration": 6, "velocity": 67}, {"time": 5944, "pitch": 63, "duration": 12, "velocity": 73}, {"time": 5950, "pitch": 54, "duration": 21, "velocity": 73}, {"time": 5956, "pitch": 59, "duration": 8, "velocity": 79}, {"time": 5962, "pitch": 63, "duration": 7, "velocity": 87}, {"time": 5968, "pitch": 64, "duration": 12, "velocity": 83}, {"time": 5974, "pitch": 54, "duration": 9, "velocity": 79}, {"time": 5980, "pitch": 63, "duration": 5, "velocity": 83}, {"time": 5992, "pitch": 49, "duration": 44, "velocity": 81}, {"time": 5992, "pitch": 61, "duration": 60, "velocity": 78}, {"time": 5993, "pitch": 68, "duration": 62, "velocity": 75}, {"time": 5995, "pitch": 73, "duration": 39, "velocity": 77}], "annotations": [{"time": 40, "annotation": {"number": 64, "value": 127}, "group": "control_change"}, {"time": 135, "annotation": {"number": 64, "value": 0}, "group": "control_change"}, {"time": 137, "annotation": {"number": 64, "value": 127}, "group": "control_change"}, {"time": 230, "annotation": {"number": 64, "value": 0}, "group": "control_change"}, {"time": 232, "annotation": {"number": 64, "value": 127}, "group": "control_change"}, {"time": 280, "annotation": {"number": 64, "value": 0}, "group": "control_change"}, {"time": 281, "annotation": {"number": 64, "value": 127}, "group": "control_change"}, {"time": 324, "annotation": {"number": 64, "value": 0}, "group": "control_change"}, {"time": 328, "annotation": {"number": 64, "value": 127}, "group": "control_change"}, {"time": 374, "annotation": {"number": 64, "value": 0}, "group": "control_change"}, {"time": 378, "annotation": {"number": 64, "value": 127}, "group": "control_change"}, {"time": 422, "annotation": {"number": 64, "value": 0}, "group": "control_change"}, {"time": 425, "annotation": {"number": 64, "value": 127}, "group": "control_change"}, {"time": 469, "annotation": {"number": 64, "value": 0}, "group": "control_change"}, {"time": 473, "annotation": {"number": 64, "value": 127}, "group": "control_change"}, {"time": 517, "annotation": {"number": 64, "value": 0}, "group": "control_change"}, {"time": 521, "annotation": {"number": 64, "value": 127}, "group": "control_change"}, {"time": 565, "annotation": {"number": 64, "value": 0}, "group": "control_change"}, {"time": 568, "annotation": {"number": 64, "value": 127}, "group": "control_change"}, {"time": 612, "annotation": {"number": 64, "value": 0}, "group": "control_change"}, {"time": 616, "annotation": {"number": 64, "value": 127}, "group": "control_change"}, {"time": 660, "annotation": {"number": 64, "value": 0}, "group": "control_change"}, {"time": 664, "annotation": {"number": 64, "value": 127}, "group": "control_change"}, {"time": 709, "annotation": {"number": 64, "value": 0}, "group": "control_change"}, {"time": 712, "annotation": {"number": 64, "value": 127}, "group": "control_change"}, {"time": 807, "annotation": {"number": 64, "value": 0}, "group": "control_change"}, {"time": 809, "annotation": {"number": 64, "value": 127}, "group": "control_change"}, {"time": 856, "annotation": {"number": 64, "value": 0}, "group": "control_change"}, {"time": 860, "annotation": {"number": 64, "value": 127}, "group": "control_change"}, {"time": 903, "annotation": {"number": 64, "value": 0}, "group": "control_change"}, {"time": 904, "annotation": {"number": 64, "value": 127}, "group": "control_change"}, {"time": 927, "annotation": {"number": 64, "value": 0}, "group": "control_change"}, {"time": 929, "annotation": {"number": 64, "value": 127}, "group": "control_change"}, {"time": 949, "annotation": {"number": 64, "value": 0}, "group": "control_change"}, {"time": 952, "annotation": {"number": 64, "value": 127}, "group": "control_change"}, {"time": 997, "annotation": {"number": 64, "value": 0}, "group": "control_change"}, {"time": 1000, "annotation": {"number": 64, "value": 127}, "group": "control_change"}, {"time": 1044, "annotation": {"number": 64, "value": 0}, "group": "control_change"}, {"time": 1047, "annotation": {"number": 64, "value": 127}, "group": "control_change"}, {"time": 1068, "annotation": {"number": 64, "value": 0}, "group": "control_change"}, {"time": 1072, "annotation": {"number": 64, "value": 127}, "group": "control_change"}, {"time": 1092, "annotation": {"number": 64, "value": 0}, "group": "control_change"}, {"time": 1096, "annotation": {"number": 64, "value": 127}, "group": "control_change"}, {"time": 1140, "annotation": {"number": 64, "value": 0}, "group": "control_change"}, {"time": 1145, "annotation": {"number": 64, "value": 127}, "group": "control_change"}, {"time": 1190, "annotation": {"number": 64, "value": 0}, "group": "control_change"}, {"time": 1196, "annotation": {"number": 64, "value": 127}, "group": "control_change"}, {"time": 1212, "annotation": {"number": 64, "value": 0}, "group": "control_change"}, {"time": 1216, "annotation": {"number": 64, "value": 127}, "group": "control_change"}, {"time": 1237, "annotation": {"number": 64, "value": 0}, "group": "control_change"}, {"time": 1239, "annotation": {"number": 64, "value": 127}, "group": "control_change"}, {"time": 1262, "annotation": {"number": 64, "value": 0}, "group": "control_change"}, {"time": 1264, "annotation": {"number": 64, "value": 127}, "group": "control_change"}, {"time": 1285, "annotation": {"number": 64, "value": 0}, "group": "control_change"}, {"time": 1289, "annotation": {"number": 64, "value": 127}, "group": "control_change"}, {"time": 1332, "annotation": {"number": 64, "value": 0}, "group": "control_change"}, {"time": 1336, "annotation": {"number": 64, "value": 127}, "group": "control_change"}, {"time": 1379, "annotation": {"number": 64, "value": 0}, "group": "control_change"}, {"time": 1382, "annotation": {"number": 64, "value": 127}, "group": "control_change"}, {"time": 1406, "annotation": {"number": 64, "value": 0}, "group": "control_change"}, {"time": 1410, "annotation": {"number": 64, "value": 127}, "group": "control_change"}, {"time": 1429, "annotation": {"number": 64, "value": 0}, "group": "control_change"}, {"time": 1433, "annotation": {"number": 64, "value": 127}, "group": "control_change"}, {"time": 1477, "annotation": {"number": 64, "value": 0}, "group": "control_change"}, {"time": 1483, "annotation": {"number": 64, "value": 127}, "group": "control_change"}, {"time": 1525, "annotation": {"number": 64, "value": 0}, "group": "control_change"}, {"time": 1529, "annotation": {"number": 64, "value": 127}, "group": "control_change"}, {"time": 1571, "annotation": {"number": 64, "value": 0}, "group": "control_change"}, {"time": 1577, "annotation": {"number": 64, "value": 127}, "group": "control_change"}, {"time": 1624, "annotation": {"number": 64, "value": 0}, "group": "control_change"}, {"time": 1628, "annotation": {"number": 64, "value": 127}, "group": "control_change"}, {"time": 1671, "annotation": {"number": 64, "value": 0}, "group": "control_change"}, {"time": 1672, "annotation": {"number": 64, "value": 127}, "group": "control_change"}, {"time": 1695, "annotation": {"number": 64, "value": 0}, "group": "control_change"}, {"time": 1697, "annotation": {"number": 64, "value": 127}, "group": "control_change"}, {"time": 1717, "annotation": {"number": 64, "value": 0}, "group": "control_change"}, {"time": 1720, "annotation": {"number": 64, "value": 127}, "group": "control_change"}, {"time": 1765, "annotation": {"number": 64, "value": 0}, "group": "control_change"}, {"time": 1768, "annotation": {"number": 64, "value": 127}, "group": "control_change"}, {"time": 1812, "annotation": {"number": 64, "value": 0}, "group": "control_change"}, {"time": 1815, "annotation": {"number": 64, "value": 127}, "group": "control_change"}, {"time": 1836, "annotation": {"number": 64, "value": 0}, "group": "control_change"}, {"time": 1840, "annotation": {"number": 64, "value": 127}, "group": "control_change"}, {"time": 1860, "annotation": {"number": 64, "value": 0}, "group": "control_change"}, {"time": 1864, "annotation": {"number": 64, "value": 127}, "group": "control_change"}, {"time": 1908, "annotation": {"number": 64, "value": 0}, "group": "control_change"}, {"time": 1913, "annotation": {"number": 64, "value": 127}, "group": "control_change"}, {"time": 1958, "annotation": {"number": 64, "value": 0}, "group": "control_change"}, {"time": 1964, "annotation": {"number": 64, "value": 127}, "group": "control_change"}, {"time": 1980, "annotation": {"number": 64, "value": 0}, "group": "control_change"}, {"time": 1984, "annotation": {"number": 64, "value": 127}, "group": "control_change"}, {"time": 2005, "annotation": {"number": 64, "value": 0}, "group": "control_change"}, {"time": 2007, "annotation": {"number": 64, "value": 127}, "group": "control_change"}, {"time": 2030, "annotation": {"number": 64, "value": 0}, "group": "control_change"}, {"time": 2032, "annotation": {"number": 64, "value": 127}, "group": "control_change"}, {"time": 2053, "annotation": {"number": 64, "value": 0}, "group": "control_change"}, {"time": 2057, "annotation": {"number": 64, "value": 127}, "group": "control_change"}, {"time": 2100, "annotation": {"number": 64, "value": 0}, "group": "control_change"}, {"time": 2104, "annotation": {"number": 64, "value": 127}, "group": "control_change"}, {"time": 2147, "annotation": {"number": 64, "value": 0}, "group": "control_change"}, {"time": 2150, "annotation": {"number": 64, "value": 127}, "group": "control_change"}, {"time": 2174, "annotation": {"number": 64, "value": 0}, "group": "control_change"}, {"time": 2178, "annotation": {"number": 64, "value": 127}, "group": "control_change"}, {"time": 2197, "annotation": {"number": 64, "value": 0}, "group": "control_change"}, {"time": 2201, "annotation": {"number": 64, "value": 127}, "group": "control_change"}, {"time": 2245, "annotation": {"number": 64, "value": 0}, "group": "control_change"}, {"time": 2251, "annotation": {"number": 64, "value": 127}, "group": "control_change"}, {"time": 2293, "annotation": {"number": 64, "value": 0}, "group": "control_change"}, {"time": 2297, "annotation": {"number": 64, "value": 127}, "group": "control_change"}, {"time": 2339, "annotation": {"number": 64, "value": 0}, "group": "control_change"}, {"time": 2392, "annotation": {"number": 64, "value": 0}, "group": "control_change"}, {"time": 2394, "annotation": {"number": 64, "value": 127}, "group": "control_change"}, {"time": 2438, "annotation": {"number": 64, "value": 0}, "group": "control_change"}, {"time": 2441, "annotation": {"number": 64, "value": 127}, "group": "control_change"}, {"time": 2486, "annotation": {"number": 64, "value": 0}, "group": "control_change"}, {"time": 2490, "annotation": {"number": 64, "value": 127}, "group": "control_change"}, {"time": 2532, "annotation": {"number": 64, "value": 0}, "group": "control_change"}, {"time": 2535, "annotation": {"number": 64, "value": 127}, "group": "control_change"}, {"time": 2582, "annotation": {"number": 64, "value": 0}, "group": "control_change"}, {"time": 2586, "annotation": {"number": 64, "value": 127}, "group": "control_change"}, {"time": 2629, "annotation": {"number": 64, "value": 0}, "group": "control_change"}, {"time": 2632, "annotation": {"number": 64, "value": 127}, "group": "control_change"}, {"time": 2679, "annotation": {"number": 64, "value": 0}, "group": "control_change"}, {"time": 2682, "annotation": {"number": 64, "value": 127}, "group": "control_change"}, {"time": 2718, "annotation": {"number": 64, "value": 0}, "group": "control_change"}, {"time": 2729, "annotation": {"number": 64, "value": 127}, "group": "control_change"}, {"time": 2776, "annotation": {"number": 64, "value": 0}, "group": "control_change"}, {"time": 2780, "annotation": {"number": 64, "value": 127}, "group": "control_change"}, {"time": 2823, "annotation": {"number": 64, "value": 0}, "group": "control_change"}, {"time": 2824, "annotation": {"number": 64, "value": 127}, "group": "control_change"}, {"time": 2847, "annotation": {"number": 64, "value": 0}, "group": "control_change"}, {"time": 2849, "annotation": {"number": 64, "value": 127}, "group": "control_change"}, {"time": 2869, "annotation": {"number": 64, "value": 0}, "group": "control_change"}, {"time": 2872, "annotation": {"number": 64, "value": 127}, "group": "control_change"}, {"time": 2917, "annotation": {"number": 64, "value": 0}, "group": "control_change"}, {"time": 2920, "annotation": {"number": 64, "value": 127}, "group": "control_change"}, {"time": 2964, "annotation": {"number": 64, "value": 0}, "group": "control_change"}, {"time": 2967, "annotation": {"number": 64, "value": 127}, "group": "control_change"}, {"time": 2988, "annotation": {"number": 64, "value": 0}, "group": "control_change"}, {"time": 2992, "annotation": {"number": 64, "value": 127}, "group": "control_change"}, {"time": 3012, "annotation": {"number": 64, "value": 0}, "group": "control_change"}, {"time": 3016, "annotation": {"number": 64, "value": 127}, "group": "control_change"}, {"time": 3060, "annotation": {"number": 64, "value": 0}, "group": "control_change"}, {"time": 3065, "annotation": {"number": 64, "value": 127}, "group": "control_change"}, {"time": 3110, "annotation": {"number": 64, "value": 0}, "group": "control_change"}, {"time": 3116, "annotation": {"number": 64, "value": 127}, "group": "control_change"}, {"time": 3132, "annotation": {"number": 64, "value": 0}, "group": "control_change"}, {"time": 3136, "annotation": {"number": 64, "value": 127}, "group": "control_change"}, {"time": 3157, "annotation": {"number": 64, "value": 0}, "group": "control_change"}, {"time": 3159, "annotation": {"number": 64, "value": 127}, "group": "control_change"}, {"time": 3182, "annotation": {"number": 64, "value": 0}, "group": "control_change"}, {"time": 3184, "annotation": {"number": 64, "value": 127}, "group": "control_change"}, {"time": 3205, "annotation": {"number": 64, "value": 0}, "group": "control_change"}, {"time": 3209, "annotation": {"number": 64, "value": 127}, "group": "control_change"}, {"time": 3252, "annotation": {"number": 64, "value": 0}, "group": "control_change"}, {"time": 3256, "annotation": {"number": 64, "value": 127}, "group": "control_change"}, {"time": 3299, "annotation": {"number": 64, "value": 0}, "group": "control_change"}, {"time": 3302, "annotation": {"number": 64, "value": 127}, "group": "control_change"}, {"time": 3326, "annotation": {"number": 64, "value": 0}, "group": "control_change"}, {"time": 3330, "annotation": {"number": 64, "value": 127}, "group": "control_change"}, {"time": 3349, "annotation": {"number": 64, "value": 0}, "group": "control_change"}, {"time": 3353, "annotation": {"number": 64, "value": 127}, "group": "control_change"}, {"time": 3397, "annotation": {"number": 64, "value": 0}, "group": "control_change"}, {"time": 3403, "annotation": {"number": 64, "value": 127}, "group": "control_change"}, {"time": 3445, "annotation": {"number": 64, "value": 0}, "group": "control_change"}, {"time": 3449, "annotation": {"number": 64, "value": 127}, "group": "control_change"}, {"time": 3491, "annotation": {"number": 64, "value": 0}, "group": "control_change"}, {"time": 3543, "annotation": {"number": 64, "value": 0}, "group": "control_change"}, {"time": 3545, "annotation": {"number": 64, "value": 127}, "group": "control_change"}, {"time": 3588, "annotation": {"number": 64, "value": 0}, "group": "control_change"}, {"time": 3592, "annotation": {"number": 64, "value": 127}, "group": "control_change"}, {"time": 3638, "annotation": {"number": 64, "value": 0}, "group": "control_change"}, {"time": 3639, "annotation": {"number": 64, "value": 127}, "group": "control_change"}, {"time": 3686, "annotation": {"number": 64, "value": 0}, "group": "control_change"}, {"time": 3689, "annotation": {"number": 64, "value": 127}, "group": "control_change"}, {"time": 3734, "annotation": {"number": 64, "value": 0}, "group": "control_change"}, {"time": 3737, "annotation": {"number": 64, "value": 127}, "group": "control_change"}, {"time": 3780, "annotation": {"number": 64, "value": 0}, "group": "control_change"}, {"time": 3782, "annotation": {"number": 64, "value": 127}, "group": "control_change"}, {"time": 3831, "annotation": {"number": 64, "value": 0}, "group": "control_change"}, {"time": 3833, "annotation": {"number": 64, "value": 127}, "group": "control_change"}, {"time": 3874, "annotation": {"number": 64, "value": 0}, "group": "control_change"}, {"time": 3927, "annotation": {"number": 64, "value": 0}, "group": "control_change"}, {"time": 3929, "annotation": {"number": 64, "value": 127}, "group": "control_change"}, {"time": 3972, "annotation": {"number": 64, "value": 0}, "group": "control_change"}, {"time": 3976, "annotation": {"number": 64, "value": 127}, "group": "control_change"}, {"time": 4022, "annotation": {"number": 64, "value": 0}, "group": "control_change"}, {"time": 4023, "annotation": {"number": 64, "value": 127}, "group": "control_change"}, {"time": 4070, "annotation": {"number": 64, "value": 0}, "group": "control_change"}, {"time": 4073, "annotation": {"number": 64, "value": 127}, "group": "control_change"}, {"time": 4118, "annotation": {"number": 64, "value": 0}, "group": "control_change"}, {"time": 4121, "annotation": {"number": 64, "value": 127}, "group": "control_change"}, {"time": 4164, "annotation": {"number": 64, "value": 0}, "group": "control_change"}, {"time": 4166, "annotation": {"number": 64, "value": 127}, "group": "control_change"}, {"time": 4215, "annotation": {"number": 64, "value": 0}, "group": "control_change"}, {"time": 4216, "annotation": {"number": 64, "value": 127}, "group": "control_change"}, {"time": 4261, "annotation": {"number": 64, "value": 0}, "group": "control_change"}, {"time": 4312, "annotation": {"number": 64, "value": 0}, "group": "control_change"}, {"time": 4314, "annotation": {"number": 64, "value": 127}, "group": "control_change"}, {"time": 4358, "annotation": {"number": 64, "value": 0}, "group": "control_change"}, {"time": 4361, "annotation": {"number": 64, "value": 127}, "group": "control_change"}, {"time": 4406, "annotation": {"number": 64, "value": 0}, "group": "control_change"}, {"time": 4410, "annotation": {"number": 64, "value": 127}, "group": "control_change"}, {"time": 4452, "annotation": {"number": 64, "value": 0}, "group": "control_change"}, {"time": 4455, "annotation": {"number": 64, "value": 127}, "group": "control_change"}, {"time": 4502, "annotation": {"number": 64, "value": 0}, "group": "control_change"}, {"time": 4506, "annotation": {"number": 64, "value": 127}, "group": "control_change"}, {"time": 4549, "annotation": {"number": 64, "value": 0}, "group": "control_change"}, {"time": 4552, "annotation": {"number": 64, "value": 127}, "group": "control_change"}, {"time": 4599, "annotation": {"number": 64, "value": 0}, "group": "control_change"}, {"time": 4602, "annotation": {"number": 64, "value": 127}, "group": "control_change"}, {"time": 4638, "annotation": {"number": 64, "value": 0}, "group": "control_change"}, {"time": 4649, "annotation": {"number": 64, "value": 127}, "group": "control_change"}, {"time": 4696, "annotation": {"number": 64, "value": 0}, "group": "control_change"}, {"time": 4700, "annotation": {"number": 64, "value": 127}, "group": "control_change"}, {"time": 4743, "annotation": {"number": 64, "value": 0}, "group": "control_change"}, {"time": 4744, "annotation": {"number": 64, "value": 127}, "group": "control_change"}, {"time": 4767, "annotation": {"number": 64, "value": 0}, "group": "control_change"}, {"time": 4769, "annotation": {"number": 64, "value": 127}, "group": "control_change"}, {"time": 4789, "annotation": {"number": 64, "value": 0}, "group": "control_change"}, {"time": 4792, "annotation": {"number": 64, "value": 127}, "group": "control_change"}, {"time": 4837, "annotation": {"number": 64, "value": 0}, "group": "control_change"}, {"time": 4840, "annotation": {"number": 64, "value": 127}, "group": "control_change"}, {"time": 4884, "annotation": {"number": 64, "value": 0}, "group": "control_change"}, {"time": 4887, "annotation": {"number": 64, "value": 127}, "group": "control_change"}, {"time": 4908, "annotation": {"number": 64, "value": 0}, "group": "control_change"}, {"time": 4912, "annotation": {"number": 64, "value": 127}, "group": "control_change"}, {"time": 4932, "annotation": {"number": 64, "value": 0}, "group": "control_change"}, {"time": 4936, "annotation": {"number": 64, "value": 127}, "group": "control_change"}, {"time": 4980, "annotation": {"number": 64, "value": 0}, "group": "control_change"}, {"time": 4985, "annotation": {"number": 64, "value": 127}, "group": "control_change"}, {"time": 5030, "annotation": {"number": 64, "value": 0}, "group": "control_change"}, {"time": 5036, "annotation": {"number": 64, "value": 127}, "group": "control_change"}, {"time": 5052, "annotation": {"number": 64, "value": 0}, "group": "control_change"}, {"time": 5056, "annotation": {"number": 64, "value": 127}, "group": "control_change"}, {"time": 5077, "annotation": {"number": 64, "value": 0}, "group": "control_change"}, {"time": 5079, "annotation": {"number": 64, "value": 127}, "group": "control_change"}, {"time": 5102, "annotation": {"number": 64, "value": 0}, "group": "control_change"}, {"time": 5104, "annotation": {"number": 64, "value": 127}, "group": "control_change"}, {"time": 5125, "annotation": {"number": 64, "value": 0}, "group": "control_change"}, {"time": 5129, "annotation": {"number": 64, "value": 127}, "group": "control_change"}, {"time": 5172, "annotation": {"number": 64, "value": 0}, "group": "control_change"}, {"time": 5176, "annotation": {"number": 64, "value": 127}, "group": "control_change"}, {"time": 5219, "annotation": {"number": 64, "value": 0}, "group": "control_change"}, {"time": 5222, "annotation": {"number": 64, "value": 127}, "group": "control_change"}, {"time": 5246, "annotation": {"number": 64, "value": 0}, "group": "control_change"}, {"time": 5250, "annotation": {"number": 64, "value": 127}, "group": "control_change"}, {"time": 5269, "annotation": {"number": 64, "value": 0}, "group": "control_change"}, {"time": 5273, "annotation": {"number": 64, "value": 127}, "group": "control_change"}, {"time": 5317, "annotation": {"number": 64, "value": 0}, "group": "control_change"}, {"time": 5323, "annotation": {"number": 64, "value": 127}, "group": "control_change"}, {"time": 5365, "annotation": {"number": 64, "value": 0}, "group": "control_change"}, {"time": 5369, "annotation": {"number": 64, "value": 127}, "group": "control_change"}, {"time": 5411, "annotation": {"number": 64, "value": 0}, "group": "control_change"}, {"time": 5438, "annotation": {"number": 64, "value": 0}, "group": "control_change"}, {"time": 5442, "annotation": {"number": 64, "value": 127}, "group": "control_change"}, {"time": 5461, "annotation": {"number": 64, "value": 0}, "group": "control_change"}, {"time": 5465, "annotation": {"number": 64, "value": 127}, "group": "control_change"}, {"time": 5509, "annotation": {"number": 64, "value": 0}, "group": "control_change"}, {"time": 5515, "annotation": {"number": 64, "value": 127}, "group": "control_change"}, {"time": 5557, "annotation": {"number": 64, "value": 0}, "group": "control_change"}, {"time": 5561, "annotation": {"number": 64, "value": 127}, "group": "control_change"}, {"time": 5603, "annotation": {"number": 64, "value": 0}, "group": "control_change"}, {"time": 5608, "annotation": {"number": 64, "value": 127}, "group": "control_change"}, {"time": 5654, "annotation": {"number": 64, "value": 0}, "group": "control_change"}, {"time": 5658, "annotation": {"number": 64, "value": 127}, "group": "control_change"}, {"time": 5702, "annotation": {"number": 64, "value": 0}, "group": "control_change"}, {"time": 5705, "annotation": {"number": 64, "value": 127}, "group": "control_change"}, {"time": 5749, "annotation": {"number": 64, "value": 0}, "group": "control_change"}, {"time": 5753, "annotation": {"number": 64, "value": 127}, "group": "control_change"}, {"time": 5797, "annotation": {"number": 64, "value": 0}, "group": "control_change"}, {"time": 5801, "annotation": {"number": 64, "value": 127}, "group": "control_change"}, {"time": 5845, "annotation": {"number": 64, "value": 0}, "group": "control_change"}, {"time": 5848, "annotation": {"number": 64, "value": 127}, "group": "control_change"}, {"time": 5892, "annotation": {"number": 64, "value": 0}, "group": "control_change"}, {"time": 5896, "annotation": {"number": 64, "value": 127}, "group": "control_change"}, {"time": 5940, "annotation": {"number": 64, "value": 0}, "group": "control_change"}, {"time": 5944, "annotation": {"number": 64, "value": 127}, "group": "control_change"}, {"time": 5989, "annotation": {"number": 64, "value": 0}, "group": "control_change"}, {"time": 5992, "annotation": {"number": 64, "value": 127}, "group": "control_change"}, {"time": 6087, "annotation": {"number": 64, "value": 0}, "group": "control_change"}]}]}