{"metadata": {"schema_version": "0.2", "title": "None", "source_filename": "810.mid", "source_format": "midi"}, "resolution": 12, "tempos": [{"time": 0, "qpm": 72.00011520018433}], "time_signatures": [{"time": 0, "numerator": 1, "denominator": 4}], "tracks": [{"program": 0, "is_drum": false, "name": "MELODY", "notes": [{"time": 225, "pitch": 73, "duration": 4, "velocity": 84}, {"time": 231, "pitch": 73, "duration": 5, "velocity": 84}, {"time": 237, "pitch": 73, "duration": 5, "velocity": 83}, {"time": 243, "pitch": 73, "duration": 5, "velocity": 83}, {"time": 249, "pitch": 73, "duration": 4, "velocity": 81}, {"time": 255, "pitch": 73, "duration": 5, "velocity": 81}, {"time": 261, "pitch": 71, "duration": 5, "velocity": 82}, {"time": 267, "pitch": 69, "duration": 5, "velocity": 82}, {"time": 273, "pitch": 73, "duration": 5, "velocity": 85}, {"time": 279, "pitch": 69, "duration": 5, "velocity": 82}, {"time": 285, "pitch": 73, "duration": 5, "velocity": 84}, {"time": 291, "pitch": 71, "duration": 9, "velocity": 86}, {"time": 309, "pitch": 69, "duration": 5, "velocity": 82}, {"time": 315, "pitch": 71, "duration": 4, "velocity": 84}, {"time": 321, "pitch": 73, "duration": 5, "velocity": 81}, {"time": 327, "pitch": 73, "duration": 5, "velocity": 81}, {"time": 333, "pitch": 73, "duration": 5, "velocity": 84}, {"time": 339, "pitch": 73, "duration": 5, "velocity": 81}, {"time": 345, "pitch": 73, "duration": 5, "velocity": 82}, {"time": 351, "pitch": 73, "duration": 4, "velocity": 81}, {"time": 357, "pitch": 73, "duration": 6, "velocity": 81}, {"time": 363, "pitch": 73, "duration": 4, "velocity": 80}, {"time": 369, "pitch": 73, "duration": 5, "velocity": 84}, {"time": 375, "pitch": 71, "duration": 6, "velocity": 81}, {"time": 381, "pitch": 69, "duration": 5, "velocity": 76}, {"time": 387, "pitch": 64, "duration": 19, "velocity": 84}, {"time": 417, "pitch": 73, "duration": 5, "velocity": 82}, {"time": 423, "pitch": 73, "duration": 5, "velocity": 78}, {"time": 429, "pitch": 73, "duration": 5, "velocity": 81}, {"time": 435, "pitch": 73, "duration": 4, "velocity": 79}, {"time": 441, "pitch": 73, "duration": 4, "velocity": 80}, {"time": 447, "pitch": 73, "duration": 4, "velocity": 82}, {"time": 453, "pitch": 71, "duration": 4, "velocity": 77}, {"time": 459, "pitch": 69, "duration": 5, "velocity": 82}, {"time": 465, "pitch": 73, "duration": 5, "velocity": 81}, {"time": 471, "pitch": 76, "duration": 5, "velocity": 82}, {"time": 477, "pitch": 73, "duration": 5, "velocity": 80}, {"time": 483, "pitch": 71, "duration": 9, "velocity": 80}, {"time": 495, "pitch": 64, "duration": 5, "velocity": 81}, {"time": 501, "pitch": 69, "duration": 5, "velocity": 82}, {"time": 507, "pitch": 71, "duration": 4, "velocity": 85}, {"time": 513, "pitch": 73, "duration": 5, "velocity": 81}, {"time": 519, "pitch": 71, "duration": 6, "velocity": 77}, {"time": 525, "pitch": 69, "duration": 5, "velocity": 75}, {"time": 531, "pitch": 64, "duration": 5, "velocity": 82}, {"time": 537, "pitch": 66, "duration": 6, "velocity": 80}, {"time": 543, "pitch": 69, "duration": 5, "velocity": 82}, {"time": 549, "pitch": 66, "duration": 5, "velocity": 81}, {"time": 555, "pitch": 69, "duration": 44, "velocity": 81}, {"time": 606, "pitch": 64, "duration": 3, "velocity": 80}, {"time": 609, "pitch": 73, "duration": 5, "velocity": 82}, {"time": 615, "pitch": 73, "duration": 5, "velocity": 80}, {"time": 621, "pitch": 73, "duration": 5, "velocity": 84}, {"time": 627, "pitch": 73, "duration": 4, "velocity": 81}, {"time": 633, "pitch": 73, "duration": 5, "velocity": 84}, {"time": 639, "pitch": 73, "duration": 5, "velocity": 81}, {"time": 645, "pitch": 71, "duration": 4, "velocity": 82}, {"time": 651, "pitch": 69, "duration": 6, "velocity": 84}, {"time": 657, "pitch": 73, "duration": 6, "velocity": 81}, {"time": 663, "pitch": 69, "duration": 6, "velocity": 83}, {"time": 669, "pitch": 73, "duration": 6, "velocity": 82}, {"time": 675, "pitch": 71, "duration": 12, "velocity": 80}, {"time": 693, "pitch": 69, "duration": 5, "velocity": 82}, {"time": 699, "pitch": 71, "duration": 5, "velocity": 81}, {"time": 705, "pitch": 73, "duration": 5, "velocity": 76}, {"time": 711, "pitch": 73, "duration": 5, "velocity": 76}, {"time": 717, "pitch": 73, "duration": 4, "velocity": 81}, {"time": 723, "pitch": 73, "duration": 4, "velocity": 81}, {"time": 729, "pitch": 73, "duration": 5, "velocity": 84}, {"time": 735, "pitch": 73, "duration": 5, "velocity": 80}, {"time": 741, "pitch": 73, "duration": 5, "velocity": 79}, {"time": 747, "pitch": 73, "duration": 4, "velocity": 81}, {"time": 753, "pitch": 73, "duration": 6, "velocity": 87}, {"time": 759, "pitch": 71, "duration": 6, "velocity": 81}, {"time": 765, "pitch": 69, "duration": 4, "velocity": 81}, {"time": 771, "pitch": 64, "duration": 24, "velocity": 75}, {"time": 801, "pitch": 73, "duration": 5, "velocity": 82}, {"time": 807, "pitch": 73, "duration": 5, "velocity": 78}, {"time": 813, "pitch": 73, "duration": 5, "velocity": 81}, {"time": 819, "pitch": 73, "duration": 4, "velocity": 79}, {"time": 825, "pitch": 73, "duration": 4, "velocity": 80}, {"time": 831, "pitch": 73, "duration": 4, "velocity": 82}, {"time": 837, "pitch": 71, "duration": 4, "velocity": 77}, {"time": 843, "pitch": 69, "duration": 5, "velocity": 82}, {"time": 849, "pitch": 73, "duration": 5, "velocity": 81}, {"time": 855, "pitch": 76, "duration": 5, "velocity": 82}, {"time": 861, "pitch": 73, "duration": 5, "velocity": 80}, {"time": 867, "pitch": 71, "duration": 9, "velocity": 80}, {"time": 879, "pitch": 64, "duration": 5, "velocity": 81}, {"time": 885, "pitch": 69, "duration": 5, "velocity": 82}, {"time": 891, "pitch": 71, "duration": 4, "velocity": 85}, {"time": 897, "pitch": 73, "duration": 5, "velocity": 81}, {"time": 903, "pitch": 71, "duration": 6, "velocity": 77}, {"time": 909, "pitch": 69, "duration": 5, "velocity": 75}, {"time": 915, "pitch": 64, "duration": 5, "velocity": 82}, {"time": 921, "pitch": 66, "duration": 6, "velocity": 80}, {"time": 927, "pitch": 69, "duration": 5, "velocity": 82}, {"time": 933, "pitch": 66, "duration": 5, "velocity": 81}, {"time": 939, "pitch": 69, "duration": 30, "velocity": 81}, {"time": 975, "pitch": 71, "duration": 6, "velocity": 81}, {"time": 981, "pitch": 69, "duration": 5, "velocity": 83}, {"time": 987, "pitch": 71, "duration": 5, "velocity": 81}, {"time": 993, "pitch": 72, "duration": 5, "velocity": 81}, {"time": 999, "pitch": 71, "duration": 6, "velocity": 85}, {"time": 1005, "pitch": 69, "duration": 6, "velocity": 83}, {"time": 1011, "pitch": 71, "duration": 10, "velocity": 86}, {"time": 1023, "pitch": 69, "duration": 6, "velocity": 84}, {"time": 1029, "pitch": 71, "duration": 7, "velocity": 80}, {"time": 1035, "pitch": 69, "duration": 5, "velocity": 81}, {"time": 1041, "pitch": 72, "duration": 6, "velocity": 81}, {"time": 1047, "pitch": 71, "duration": 6, "velocity": 81}, {"time": 1053, "pitch": 69, "duration": 5, "velocity": 82}, {"time": 1059, "pitch": 71, "duration": 9, "velocity": 81}, {"time": 1071, "pitch": 69, "duration": 5, "velocity": 82}, {"time": 1077, "pitch": 71, "duration": 6, "velocity": 82}, {"time": 1083, "pitch": 69, "duration": 5, "velocity": 84}, {"time": 1089, "pitch": 72, "duration": 6, "velocity": 81}, {"time": 1095, "pitch": 71, "duration": 6, "velocity": 80}, {"time": 1101, "pitch": 69, "duration": 7, "velocity": 80}, {"time": 1107, "pitch": 71, "duration": 9, "velocity": 82}, {"time": 1119, "pitch": 71, "duration": 5, "velocity": 85}, {"time": 1125, "pitch": 73, "duration": 6, "velocity": 84}, {"time": 1131, "pitch": 71, "duration": 3, "velocity": 81}, {"time": 1134, "pitch": 66, "duration": 15, "velocity": 82}, {"time": 1167, "pitch": 71, "duration": 6, "velocity": 81}, {"time": 1173, "pitch": 69, "duration": 5, "velocity": 82}, {"time": 1179, "pitch": 71, "duration": 5, "velocity": 80}, {"time": 1185, "pitch": 72, "duration": 7, "velocity": 80}, {"time": 1191, "pitch": 71, "duration": 6, "velocity": 82}, {"time": 1197, "pitch": 69, "duration": 7, "velocity": 80}, {"time": 1203, "pitch": 71, "duration": 8, "velocity": 86}, {"time": 1215, "pitch": 69, "duration": 5, "velocity": 84}, {"time": 1221, "pitch": 71, "duration": 6, "velocity": 82}, {"time": 1227, "pitch": 69, "duration": 6, "velocity": 83}, {"time": 1233, "pitch": 72, "duration": 6, "velocity": 82}, {"time": 1239, "pitch": 71, "duration": 6, "velocity": 85}, {"time": 1245, "pitch": 69, "duration": 5, "velocity": 81}, {"time": 1251, "pitch": 71, "duration": 9, "velocity": 83}, {"time": 1263, "pitch": 69, "duration": 6, "velocity": 80}, {"time": 1269, "pitch": 71, "duration": 6, "velocity": 80}, {"time": 1275, "pitch": 69, "duration": 6, "velocity": 81}, {"time": 1281, "pitch": 72, "duration": 7, "velocity": 76}, {"time": 1287, "pitch": 71, "duration": 7, "velocity": 81}, {"time": 1293, "pitch": 69, "duration": 7, "velocity": 80}, {"time": 1299, "pitch": 71, "duration": 7, "velocity": 86}, {"time": 1305, "pitch": 72, "duration": 7, "velocity": 81}, {"time": 1311, "pitch": 71, "duration": 7, "velocity": 79}, {"time": 1317, "pitch": 69, "duration": 7, "velocity": 81}, {"time": 1323, "pitch": 76, "duration": 30, "velocity": 87}, {"time": 1365, "pitch": 78, "duration": 5, "velocity": 87}, {"time": 1371, "pitch": 76, "duration": 5, "velocity": 91}, {"time": 1377, "pitch": 85, "duration": 28, "velocity": 83}, {"time": 1407, "pitch": 76, "duration": 6, "velocity": 91}, {"time": 1413, "pitch": 78, "duration": 6, "velocity": 86}, {"time": 1419, "pitch": 76, "duration": 5, "velocity": 91}, {"time": 1425, "pitch": 83, "duration": 6, "velocity": 86}, {"time": 1431, "pitch": 81, "duration": 5, "velocity": 81}, {"time": 1437, "pitch": 80, "duration": 5, "velocity": 83}, {"time": 1443, "pitch": 81, "duration": 12, "velocity": 84}, {"time": 1455, "pitch": 76, "duration": 5, "velocity": 87}, {"time": 1461, "pitch": 78, "duration": 5, "velocity": 86}, {"time": 1467, "pitch": 76, "duration": 6, "velocity": 91}, {"time": 1473, "pitch": 83, "duration": 5, "velocity": 81}, {"time": 1479, "pitch": 81, "duration": 6, "velocity": 85}, {"time": 1485, "pitch": 80, "duration": 5, "velocity": 75}, {"time": 1491, "pitch": 81, "duration": 4, "velocity": 81}, {"time": 1497, "pitch": 83, "duration": 5, "velocity": 81}, {"time": 1503, "pitch": 81, "duration": 5, "velocity": 81}, {"time": 1509, "pitch": 76, "duration": 6, "velocity": 80}, {"time": 1515, "pitch": 76, "duration": 6, "velocity": 77}, {"time": 1521, "pitch": 71, "duration": 4, "velocity": 81}, {"time": 1527, "pitch": 73, "duration": 10, "velocity": 82}, {"time": 1539, "pitch": 71, "duration": 10, "velocity": 82}, {"time": 1551, "pitch": 73, "duration": 5, "velocity": 82}, {"time": 1557, "pitch": 74, "duration": 5, "velocity": 87}, {"time": 1563, "pitch": 76, "duration": 4, "velocity": 85}, {"time": 1569, "pitch": 80, "duration": 5, "velocity": 84}, {"time": 1575, "pitch": 80, "duration": 5, "velocity": 80}, {"time": 1581, "pitch": 80, "duration": 5, "velocity": 82}, {"time": 1587, "pitch": 80, "duration": 5, "velocity": 85}, {"time": 1593, "pitch": 80, "duration": 5, "velocity": 85}, {"time": 1599, "pitch": 80, "duration": 9, "velocity": 80}, {"time": 1611, "pitch": 81, "duration": 10, "velocity": 81}, {"time": 1623, "pitch": 80, "duration": 12, "velocity": 85}, {"time": 1635, "pitch": 78, "duration": 12, "velocity": 76}, {"time": 1653, "pitch": 80, "duration": 6, "velocity": 84}, {"time": 1659, "pitch": 78, "duration": 9, "velocity": 81}, {"time": 1671, "pitch": 81, "duration": 5, "velocity": 81}, {"time": 1677, "pitch": 81, "duration": 4, "velocity": 78}, {"time": 1683, "pitch": 81, "duration": 4, "velocity": 81}, {"time": 1689, "pitch": 81, "duration": 5, "velocity": 82}, {"time": 1695, "pitch": 80, "duration": 5, "velocity": 81}, {"time": 1701, "pitch": 81, "duration": 4, "velocity": 81}, {"time": 1707, "pitch": 83, "duration": 42, "velocity": 83}, {"time": 1749, "pitch": 78, "duration": 5, "velocity": 87}, {"time": 1755, "pitch": 76, "duration": 5, "velocity": 91}, {"time": 1761, "pitch": 85, "duration": 28, "velocity": 83}, {"time": 1791, "pitch": 76, "duration": 6, "velocity": 91}, {"time": 1797, "pitch": 78, "duration": 6, "velocity": 86}, {"time": 1803, "pitch": 76, "duration": 5, "velocity": 91}, {"time": 1809, "pitch": 83, "duration": 6, "velocity": 86}, {"time": 1815, "pitch": 81, "duration": 5, "velocity": 81}, {"time": 1821, "pitch": 80, "duration": 5, "velocity": 83}, {"time": 1827, "pitch": 81, "duration": 12, "velocity": 84}, {"time": 1839, "pitch": 76, "duration": 5, "velocity": 87}, {"time": 1845, "pitch": 78, "duration": 5, "velocity": 86}, {"time": 1851, "pitch": 76, "duration": 6, "velocity": 91}, {"time": 1857, "pitch": 83, "duration": 5, "velocity": 81}, {"time": 1863, "pitch": 81, "duration": 6, "velocity": 85}, {"time": 1869, "pitch": 80, "duration": 5, "velocity": 75}, {"time": 1875, "pitch": 81, "duration": 4, "velocity": 81}, {"time": 1881, "pitch": 78, "duration": 5, "velocity": 81}, {"time": 1887, "pitch": 76, "duration": 5, "velocity": 81}, {"time": 1893, "pitch": 73, "duration": 6, "velocity": 80}, {"time": 1899, "pitch": 73, "duration": 6, "velocity": 77}, {"time": 1905, "pitch": 71, "duration": 4, "velocity": 81}, {"time": 1911, "pitch": 69, "duration": 10, "velocity": 82}, {"time": 1923, "pitch": 71, "duration": 10, "velocity": 82}, {"time": 1941, "pitch": 73, "duration": 5, "velocity": 87}, {"time": 1947, "pitch": 74, "duration": 6, "velocity": 85}, {"time": 1953, "pitch": 80, "duration": 5, "velocity": 84}, {"time": 1959, "pitch": 80, "duration": 5, "velocity": 80}, {"time": 1965, "pitch": 80, "duration": 5, "velocity": 82}, {"time": 1971, "pitch": 80, "duration": 5, "velocity": 85}, {"time": 1983, "pitch": 77, "duration": 9, "velocity": 80}, {"time": 1995, "pitch": 78, "duration": 6, "velocity": 81}, {"time": 2001, "pitch": 85, "duration": 12, "velocity": 85}, {"time": 2013, "pitch": 83, "duration": 12, "velocity": 76}, {"time": 2025, "pitch": 81, "duration": 12, "velocity": 84}, {"time": 2037, "pitch": 80, "duration": 6, "velocity": 81}, {"time": 2043, "pitch": 81, "duration": 9, "velocity": 81}, {"time": 2055, "pitch": 81, "duration": 5, "velocity": 81}, {"time": 2061, "pitch": 81, "duration": 4, "velocity": 78}, {"time": 2067, "pitch": 81, "duration": 4, "velocity": 81}, {"time": 2073, "pitch": 81, "duration": 5, "velocity": 82}, {"time": 2079, "pitch": 83, "duration": 5, "velocity": 81}, {"time": 2085, "pitch": 85, "duration": 4, "velocity": 81}, {"time": 2091, "pitch": 83, "duration": 42, "velocity": 83}, {"time": 2529, "pitch": 73, "duration": 5, "velocity": 82}, {"time": 2535, "pitch": 73, "duration": 5, "velocity": 80}, {"time": 2541, "pitch": 73, "duration": 5, "velocity": 84}, {"time": 2547, "pitch": 73, "duration": 4, "velocity": 81}, {"time": 2553, "pitch": 73, "duration": 5, "velocity": 84}, {"time": 2559, "pitch": 73, "duration": 5, "velocity": 81}, {"time": 2565, "pitch": 71, "duration": 4, "velocity": 82}, {"time": 2571, "pitch": 69, "duration": 6, "velocity": 84}, {"time": 2577, "pitch": 73, "duration": 6, "velocity": 81}, {"time": 2583, "pitch": 69, "duration": 6, "velocity": 83}, {"time": 2589, "pitch": 73, "duration": 6, "velocity": 82}, {"time": 2595, "pitch": 71, "duration": 12, "velocity": 80}, {"time": 2613, "pitch": 69, "duration": 5, "velocity": 82}, {"time": 2619, "pitch": 71, "duration": 5, "velocity": 81}, {"time": 2625, "pitch": 73, "duration": 5, "velocity": 76}, {"time": 2631, "pitch": 73, "duration": 5, "velocity": 76}, {"time": 2637, "pitch": 73, "duration": 4, "velocity": 81}, {"time": 2643, "pitch": 73, "duration": 4, "velocity": 81}, {"time": 2649, "pitch": 73, "duration": 5, "velocity": 84}, {"time": 2655, "pitch": 73, "duration": 5, "velocity": 80}, {"time": 2661, "pitch": 73, "duration": 5, "velocity": 79}, {"time": 2667, "pitch": 73, "duration": 4, "velocity": 81}, {"time": 2673, "pitch": 73, "duration": 6, "velocity": 87}, {"time": 2679, "pitch": 71, "duration": 6, "velocity": 81}, {"time": 2685, "pitch": 69, "duration": 4, "velocity": 81}, {"time": 2691, "pitch": 64, "duration": 24, "velocity": 75}, {"time": 2721, "pitch": 73, "duration": 5, "velocity": 82}, {"time": 2727, "pitch": 73, "duration": 5, "velocity": 78}, {"time": 2733, "pitch": 73, "duration": 5, "velocity": 81}, {"time": 2739, "pitch": 73, "duration": 4, "velocity": 79}, {"time": 2745, "pitch": 73, "duration": 4, "velocity": 80}, {"time": 2751, "pitch": 73, "duration": 4, "velocity": 82}, {"time": 2757, "pitch": 71, "duration": 4, "velocity": 77}, {"time": 2763, "pitch": 69, "duration": 5, "velocity": 82}, {"time": 2769, "pitch": 73, "duration": 5, "velocity": 81}, {"time": 2775, "pitch": 76, "duration": 5, "velocity": 82}, {"time": 2781, "pitch": 73, "duration": 5, "velocity": 80}, {"time": 2787, "pitch": 71, "duration": 9, "velocity": 80}, {"time": 2799, "pitch": 64, "duration": 5, "velocity": 81}, {"time": 2805, "pitch": 69, "duration": 5, "velocity": 82}, {"time": 2811, "pitch": 71, "duration": 4, "velocity": 85}, {"time": 2817, "pitch": 73, "duration": 5, "velocity": 81}, {"time": 2823, "pitch": 71, "duration": 6, "velocity": 77}, {"time": 2829, "pitch": 69, "duration": 5, "velocity": 75}, {"time": 2835, "pitch": 64, "duration": 5, "velocity": 82}, {"time": 2841, "pitch": 66, "duration": 6, "velocity": 80}, {"time": 2847, "pitch": 69, "duration": 5, "velocity": 82}, {"time": 2853, "pitch": 66, "duration": 5, "velocity": 81}, {"time": 2859, "pitch": 69, "duration": 30, "velocity": 81}, {"time": 2895, "pitch": 71, "duration": 6, "velocity": 81}, {"time": 2901, "pitch": 69, "duration": 5, "velocity": 83}, {"time": 2907, "pitch": 71, "duration": 5, "velocity": 81}, {"time": 2913, "pitch": 72, "duration": 5, "velocity": 81}, {"time": 2919, "pitch": 71, "duration": 6, "velocity": 85}, {"time": 2925, "pitch": 69, "duration": 6, "velocity": 83}, {"time": 2931, "pitch": 71, "duration": 10, "velocity": 86}, {"time": 2943, "pitch": 69, "duration": 6, "velocity": 84}, {"time": 2949, "pitch": 71, "duration": 7, "velocity": 80}, {"time": 2955, "pitch": 69, "duration": 5, "velocity": 81}, {"time": 2961, "pitch": 72, "duration": 6, "velocity": 81}, {"time": 2967, "pitch": 71, "duration": 6, "velocity": 81}, {"time": 2973, "pitch": 69, "duration": 5, "velocity": 82}, {"time": 2979, "pitch": 71, "duration": 9, "velocity": 81}, {"time": 2991, "pitch": 69, "duration": 5, "velocity": 82}, {"time": 2997, "pitch": 71, "duration": 6, "velocity": 82}, {"time": 3003, "pitch": 69, "duration": 5, "velocity": 84}, {"time": 3009, "pitch": 72, "duration": 6, "velocity": 81}, {"time": 3015, "pitch": 71, "duration": 6, "velocity": 80}, {"time": 3021, "pitch": 69, "duration": 7, "velocity": 80}, {"time": 3027, "pitch": 71, "duration": 9, "velocity": 82}, {"time": 3039, "pitch": 71, "duration": 5, "velocity": 85}, {"time": 3045, "pitch": 73, "duration": 6, "velocity": 84}, {"time": 3051, "pitch": 71, "duration": 3, "velocity": 81}, {"time": 3054, "pitch": 66, "duration": 15, "velocity": 82}, {"time": 3087, "pitch": 71, "duration": 6, "velocity": 81}, {"time": 3093, "pitch": 69, "duration": 5, "velocity": 82}, {"time": 3099, "pitch": 71, "duration": 5, "velocity": 80}, {"time": 3105, "pitch": 72, "duration": 7, "velocity": 80}, {"time": 3111, "pitch": 71, "duration": 6, "velocity": 82}, {"time": 3117, "pitch": 69, "duration": 7, "velocity": 80}, {"time": 3123, "pitch": 71, "duration": 8, "velocity": 86}, {"time": 3135, "pitch": 69, "duration": 5, "velocity": 84}, {"time": 3141, "pitch": 71, "duration": 6, "velocity": 82}, {"time": 3147, "pitch": 69, "duration": 6, "velocity": 83}, {"time": 3153, "pitch": 72, "duration": 6, "velocity": 82}, {"time": 3159, "pitch": 71, "duration": 6, "velocity": 85}, {"time": 3165, "pitch": 69, "duration": 5, "velocity": 81}, {"time": 3171, "pitch": 71, "duration": 9, "velocity": 83}, {"time": 3183, "pitch": 69, "duration": 6, "velocity": 80}, {"time": 3189, "pitch": 71, "duration": 6, "velocity": 80}, {"time": 3195, "pitch": 69, "duration": 6, "velocity": 81}, {"time": 3201, "pitch": 72, "duration": 7, "velocity": 76}, {"time": 3207, "pitch": 71, "duration": 7, "velocity": 81}, {"time": 3213, "pitch": 69, "duration": 7, "velocity": 80}, {"time": 3219, "pitch": 71, "duration": 7, "velocity": 86}, {"time": 3225, "pitch": 72, "duration": 7, "velocity": 81}, {"time": 3231, "pitch": 71, "duration": 7, "velocity": 79}, {"time": 3237, "pitch": 69, "duration": 7, "velocity": 81}, {"time": 3243, "pitch": 76, "duration": 30, "velocity": 87}, {"time": 3285, "pitch": 78, "duration": 5, "velocity": 87}, {"time": 3291, "pitch": 76, "duration": 5, "velocity": 91}, {"time": 3297, "pitch": 85, "duration": 28, "velocity": 83}, {"time": 3327, "pitch": 76, "duration": 6, "velocity": 91}, {"time": 3333, "pitch": 78, "duration": 6, "velocity": 86}, {"time": 3339, "pitch": 76, "duration": 5, "velocity": 91}, {"time": 3345, "pitch": 83, "duration": 6, "velocity": 86}, {"time": 3351, "pitch": 81, "duration": 5, "velocity": 81}, {"time": 3357, "pitch": 80, "duration": 5, "velocity": 83}, {"time": 3363, "pitch": 81, "duration": 12, "velocity": 84}, {"time": 3375, "pitch": 76, "duration": 5, "velocity": 87}, {"time": 3381, "pitch": 78, "duration": 5, "velocity": 86}, {"time": 3387, "pitch": 76, "duration": 6, "velocity": 91}, {"time": 3393, "pitch": 83, "duration": 5, "velocity": 81}, {"time": 3399, "pitch": 81, "duration": 6, "velocity": 85}, {"time": 3405, "pitch": 80, "duration": 5, "velocity": 75}, {"time": 3411, "pitch": 81, "duration": 4, "velocity": 81}, {"time": 3417, "pitch": 83, "duration": 5, "velocity": 81}, {"time": 3423, "pitch": 81, "duration": 5, "velocity": 81}, {"time": 3429, "pitch": 76, "duration": 6, "velocity": 80}, {"time": 3435, "pitch": 76, "duration": 6, "velocity": 77}, {"time": 3441, "pitch": 71, "duration": 4, "velocity": 81}, {"time": 3447, "pitch": 73, "duration": 10, "velocity": 82}, {"time": 3459, "pitch": 71, "duration": 10, "velocity": 82}, {"time": 3471, "pitch": 73, "duration": 5, "velocity": 82}, {"time": 3477, "pitch": 74, "duration": 5, "velocity": 87}, {"time": 3483, "pitch": 76, "duration": 4, "velocity": 85}, {"time": 3489, "pitch": 80, "duration": 5, "velocity": 84}, {"time": 3495, "pitch": 80, "duration": 5, "velocity": 80}, {"time": 3501, "pitch": 80, "duration": 5, "velocity": 82}, {"time": 3507, "pitch": 80, "duration": 5, "velocity": 85}, {"time": 3513, "pitch": 80, "duration": 5, "velocity": 85}, {"time": 3519, "pitch": 80, "duration": 9, "velocity": 80}, {"time": 3531, "pitch": 81, "duration": 10, "velocity": 81}, {"time": 3543, "pitch": 80, "duration": 12, "velocity": 85}, {"time": 3555, "pitch": 78, "duration": 12, "velocity": 76}, {"time": 3573, "pitch": 80, "duration": 6, "velocity": 84}, {"time": 3579, "pitch": 78, "duration": 9, "velocity": 81}, {"time": 3591, "pitch": 81, "duration": 5, "velocity": 81}, {"time": 3597, "pitch": 81, "duration": 4, "velocity": 78}, {"time": 3603, "pitch": 81, "duration": 4, "velocity": 81}, {"time": 3609, "pitch": 81, "duration": 5, "velocity": 82}, {"time": 3615, "pitch": 80, "duration": 5, "velocity": 81}, {"time": 3621, "pitch": 81, "duration": 4, "velocity": 81}, {"time": 3627, "pitch": 83, "duration": 42, "velocity": 83}, {"time": 3669, "pitch": 78, "duration": 5, "velocity": 87}, {"time": 3675, "pitch": 76, "duration": 5, "velocity": 91}, {"time": 3681, "pitch": 85, "duration": 28, "velocity": 83}, {"time": 3711, "pitch": 76, "duration": 6, "velocity": 91}, {"time": 3717, "pitch": 78, "duration": 6, "velocity": 86}, {"time": 3723, "pitch": 76, "duration": 5, "velocity": 91}, {"time": 3729, "pitch": 83, "duration": 6, "velocity": 86}, {"time": 3735, "pitch": 81, "duration": 5, "velocity": 81}, {"time": 3741, "pitch": 80, "duration": 5, "velocity": 83}, {"time": 3747, "pitch": 81, "duration": 12, "velocity": 84}, {"time": 3759, "pitch": 76, "duration": 5, "velocity": 87}, {"time": 3765, "pitch": 78, "duration": 5, "velocity": 86}, {"time": 3771, "pitch": 76, "duration": 6, "velocity": 91}, {"time": 3777, "pitch": 83, "duration": 5, "velocity": 81}, {"time": 3783, "pitch": 81, "duration": 6, "velocity": 85}, {"time": 3789, "pitch": 80, "duration": 5, "velocity": 75}, {"time": 3795, "pitch": 81, "duration": 4, "velocity": 81}, {"time": 3801, "pitch": 78, "duration": 5, "velocity": 81}, {"time": 3807, "pitch": 76, "duration": 5, "velocity": 81}, {"time": 3813, "pitch": 73, "duration": 6, "velocity": 80}, {"time": 3819, "pitch": 73, "duration": 6, "velocity": 77}, {"time": 3825, "pitch": 71, "duration": 4, "velocity": 81}, {"time": 3831, "pitch": 69, "duration": 10, "velocity": 82}, {"time": 3843, "pitch": 71, "duration": 10, "velocity": 82}, {"time": 3861, "pitch": 73, "duration": 5, "velocity": 87}, {"time": 3867, "pitch": 74, "duration": 6, "velocity": 85}, {"time": 3873, "pitch": 80, "duration": 5, "velocity": 84}, {"time": 3879, "pitch": 80, "duration": 5, "velocity": 80}, {"time": 3885, "pitch": 80, "duration": 5, "velocity": 82}, {"time": 3891, "pitch": 80, "duration": 5, "velocity": 85}, {"time": 3903, "pitch": 77, "duration": 9, "velocity": 80}, {"time": 3915, "pitch": 78, "duration": 6, "velocity": 81}, {"time": 3921, "pitch": 85, "duration": 12, "velocity": 85}, {"time": 3933, "pitch": 83, "duration": 12, "velocity": 76}, {"time": 3945, "pitch": 81, "duration": 12, "velocity": 84}, {"time": 3957, "pitch": 80, "duration": 6, "velocity": 81}, {"time": 3963, "pitch": 81, "duration": 9, "velocity": 81}, {"time": 3975, "pitch": 81, "duration": 5, "velocity": 81}, {"time": 3981, "pitch": 81, "duration": 4, "velocity": 78}, {"time": 3987, "pitch": 81, "duration": 4, "velocity": 81}, {"time": 3993, "pitch": 81, "duration": 5, "velocity": 82}, {"time": 3999, "pitch": 83, "duration": 5, "velocity": 81}, {"time": 4005, "pitch": 85, "duration": 4, "velocity": 81}, {"time": 4011, "pitch": 83, "duration": 42, "velocity": 83}, {"time": 4071, "pitch": 78, "duration": 4, "velocity": 81}, {"time": 4077, "pitch": 78, "duration": 5, "velocity": 91}, {"time": 4083, "pitch": 81, "duration": 5, "velocity": 82}, {"time": 4089, "pitch": 83, "duration": 5, "velocity": 80}, {"time": 4095, "pitch": 81, "duration": 5, "velocity": 84}, {"time": 4101, "pitch": 80, "duration": 5, "velocity": 81}, {"time": 4107, "pitch": 81, "duration": 55, "velocity": 82}]}, {"program": 0, "is_drum": false, "name": "BRIDGE", "notes": [{"time": 609, "pitch": 69, "duration": 47, "velocity": 69}, {"time": 609, "pitch": 73, "duration": 47, "velocity": 69}, {"time": 657, "pitch": 68, "duration": 45, "velocity": 68}, {"time": 657, "pitch": 71, "duration": 46, "velocity": 73}, {"time": 705, "pitch": 69, "duration": 46, "velocity": 65}, {"time": 705, "pitch": 73, "duration": 46, "velocity": 63}, {"time": 753, "pitch": 69, "duration": 20, "velocity": 72}, {"time": 753, "pitch": 74, "duration": 20, "velocity": 76}, {"time": 777, "pitch": 71, "duration": 21, "velocity": 66}, {"time": 777, "pitch": 76, "duration": 23, "velocity": 73}, {"time": 801, "pitch": 69, "duration": 37, "velocity": 72}, {"time": 801, "pitch": 73, "duration": 34, "velocity": 70}, {"time": 837, "pitch": 73, "duration": 7, "velocity": 81}, {"time": 843, "pitch": 69, "duration": 7, "velocity": 76}, {"time": 849, "pitch": 71, "duration": 35, "velocity": 75}, {"time": 885, "pitch": 71, "duration": 9, "velocity": 74}, {"time": 897, "pitch": 66, "duration": 34, "velocity": 65}, {"time": 897, "pitch": 69, "duration": 35, "velocity": 73}, {"time": 897, "pitch": 88, "duration": 72, "velocity": 81}, {"time": 933, "pitch": 69, "duration": 9, "velocity": 76}, {"time": 939, "pitch": 66, "duration": 6, "velocity": 69}, {"time": 945, "pitch": 69, "duration": 12, "velocity": 72}, {"time": 957, "pitch": 69, "duration": 24, "velocity": 80}, {"time": 975, "pitch": 86, "duration": 2, "velocity": 81}, {"time": 977, "pitch": 85, "duration": 1, "velocity": 81}, {"time": 978, "pitch": 83, "duration": 2, "velocity": 81}, {"time": 980, "pitch": 81, "duration": 1, "velocity": 81}, {"time": 981, "pitch": 78, "duration": 2, "velocity": 81}, {"time": 983, "pitch": 76, "duration": 1, "velocity": 81}, {"time": 984, "pitch": 74, "duration": 2, "velocity": 81}, {"time": 986, "pitch": 73, "duration": 1, "velocity": 81}, {"time": 987, "pitch": 71, "duration": 2, "velocity": 81}, {"time": 989, "pitch": 69, "duration": 1, "velocity": 81}, {"time": 990, "pitch": 68, "duration": 2, "velocity": 81}, {"time": 992, "pitch": 66, "duration": 1, "velocity": 81}, {"time": 993, "pitch": 64, "duration": 11, "velocity": 81}, {"time": 993, "pitch": 76, "duration": 3, "velocity": 82}, {"time": 1005, "pitch": 71, "duration": 2, "velocity": 84}, {"time": 1011, "pitch": 71, "duration": 2, "velocity": 81}, {"time": 1011, "pitch": 76, "duration": 1, "velocity": 91}, {"time": 1023, "pitch": 71, "duration": 2, "velocity": 78}, {"time": 1029, "pitch": 71, "duration": 2, "velocity": 80}, {"time": 1029, "pitch": 76, "duration": 2, "velocity": 83}, {"time": 1035, "pitch": 71, "duration": 2, "velocity": 79}, {"time": 1053, "pitch": 71, "duration": 2, "velocity": 80}, {"time": 1053, "pitch": 76, "duration": 2, "velocity": 82}, {"time": 1071, "pitch": 71, "duration": 2, "velocity": 84}, {"time": 1077, "pitch": 71, "duration": 2, "velocity": 83}, {"time": 1077, "pitch": 76, "duration": 2, "velocity": 84}, {"time": 1077, "pitch": 69, "duration": 12, "velocity": 80}, {"time": 1083, "pitch": 71, "duration": 2, "velocity": 87}, {"time": 1089, "pitch": 71, "duration": 3, "velocity": 93}, {"time": 1089, "pitch": 71, "duration": 3, "velocity": 95}, {"time": 1089, "pitch": 75, "duration": 3, "velocity": 95}, {"time": 1095, "pitch": 71, "duration": 3, "velocity": 96}, {"time": 1101, "pitch": 71, "duration": 3, "velocity": 79}, {"time": 1101, "pitch": 75, "duration": 3, "velocity": 80}, {"time": 1107, "pitch": 71, "duration": 2, "velocity": 81}, {"time": 1119, "pitch": 71, "duration": 2, "velocity": 81}, {"time": 1125, "pitch": 71, "duration": 2, "velocity": 84}, {"time": 1125, "pitch": 75, "duration": 2, "velocity": 86}, {"time": 1137, "pitch": 66, "duration": 6, "velocity": 80}, {"time": 1137, "pitch": 78, "duration": 7, "velocity": 71}, {"time": 1146, "pitch": 68, "duration": 7, "velocity": 82}, {"time": 1146, "pitch": 80, "duration": 7, "velocity": 81}, {"time": 1155, "pitch": 69, "duration": 8, "velocity": 63}, {"time": 1155, "pitch": 81, "duration": 8, "velocity": 80}, {"time": 1164, "pitch": 71, "duration": 7, "velocity": 78}, {"time": 1164, "pitch": 83, "duration": 8, "velocity": 81}, {"time": 1173, "pitch": 72, "duration": 5, "velocity": 80}, {"time": 1173, "pitch": 84, "duration": 4, "velocity": 83}, {"time": 1179, "pitch": 69, "duration": 2, "velocity": 79}, {"time": 1179, "pitch": 83, "duration": 5, "velocity": 79}, {"time": 1181, "pitch": 71, "duration": 1, "velocity": 79}, {"time": 1182, "pitch": 72, "duration": 3, "velocity": 79}, {"time": 1185, "pitch": 63, "duration": 41, "velocity": 82}, {"time": 1185, "pitch": 66, "duration": 1, "velocity": 80}, {"time": 1185, "pitch": 71, "duration": 1, "velocity": 80}, {"time": 1191, "pitch": 66, "duration": 2, "velocity": 70}, {"time": 1197, "pitch": 66, "duration": 2, "velocity": 74}, {"time": 1197, "pitch": 71, "duration": 2, "velocity": 81}, {"time": 1203, "pitch": 66, "duration": 2, "velocity": 66}, {"time": 1209, "pitch": 66, "duration": 2, "velocity": 76}, {"time": 1209, "pitch": 71, "duration": 2, "velocity": 81}, {"time": 1215, "pitch": 66, "duration": 2, "velocity": 67}, {"time": 1221, "pitch": 66, "duration": 2, "velocity": 80}, {"time": 1221, "pitch": 68, "duration": 12, "velocity": 80}, {"time": 1221, "pitch": 71, "duration": 2, "velocity": 84}, {"time": 1227, "pitch": 66, "duration": 2, "velocity": 76}, {"time": 1233, "pitch": 60, "duration": 38, "velocity": 76}, {"time": 1233, "pitch": 69, "duration": 2, "velocity": 77}, {"time": 1233, "pitch": 74, "duration": 2, "velocity": 77}, {"time": 1239, "pitch": 69, "duration": 2, "velocity": 76}, {"time": 1245, "pitch": 69, "duration": 2, "velocity": 80}, {"time": 1245, "pitch": 74, "duration": 2, "velocity": 81}, {"time": 1251, "pitch": 69, "duration": 2, "velocity": 75}, {"time": 1257, "pitch": 69, "duration": 2, "velocity": 82}, {"time": 1257, "pitch": 74, "duration": 2, "velocity": 82}, {"time": 1263, "pitch": 65, "duration": 6, "velocity": 81}, {"time": 1263, "pitch": 69, "duration": 2, "velocity": 80}, {"time": 1269, "pitch": 69, "duration": 2, "velocity": 81}, {"time": 1269, "pitch": 74, "duration": 2, "velocity": 81}, {"time": 1275, "pitch": 71, "duration": 6, "velocity": 81}, {"time": 1281, "pitch": 69, "duration": 28, "velocity": 70}, {"time": 1281, "pitch": 65, "duration": 2, "velocity": 70}, {"time": 1281, "pitch": 72, "duration": 2, "velocity": 70}, {"time": 1287, "pitch": 65, "duration": 2, "velocity": 71}, {"time": 1287, "pitch": 72, "duration": 2, "velocity": 73}, {"time": 1293, "pitch": 65, "duration": 2, "velocity": 81}, {"time": 1293, "pitch": 72, "duration": 2, "velocity": 82}, {"time": 1299, "pitch": 65, "duration": 2, "velocity": 83}, {"time": 1299, "pitch": 72, "duration": 2, "velocity": 83}, {"time": 1305, "pitch": 67, "duration": 11, "velocity": 83}, {"time": 1305, "pitch": 65, "duration": 2, "velocity": 85}, {"time": 1305, "pitch": 72, "duration": 2, "velocity": 85}, {"time": 1311, "pitch": 65, "duration": 2, "velocity": 80}, {"time": 1311, "pitch": 72, "duration": 3, "velocity": 80}, {"time": 1317, "pitch": 65, "duration": 2, "velocity": 80}, {"time": 1317, "pitch": 72, "duration": 2, "velocity": 80}, {"time": 1323, "pitch": 65, "duration": 2, "velocity": 80}, {"time": 1323, "pitch": 72, "duration": 2, "velocity": 80}, {"time": 1335, "pitch": 71, "duration": 3, "velocity": 68}, {"time": 1335, "pitch": 76, "duration": 3, "velocity": 73}, {"time": 1341, "pitch": 71, "duration": 2, "velocity": 79}, {"time": 1341, "pitch": 76, "duration": 2, "velocity": 81}, {"time": 1347, "pitch": 71, "duration": 2, "velocity": 82}, {"time": 1347, "pitch": 76, "duration": 2, "velocity": 82}, {"time": 1352, "pitch": 64, "duration": 12, "velocity": 82}, {"time": 1353, "pitch": 71, "duration": 2, "velocity": 82}, {"time": 1353, "pitch": 76, "duration": 2, "velocity": 82}, {"time": 1359, "pitch": 71, "duration": 2, "velocity": 82}, {"time": 1359, "pitch": 76, "duration": 2, "velocity": 82}, {"time": 1365, "pitch": 71, "duration": 2, "velocity": 82}, {"time": 1365, "pitch": 76, "duration": 2, "velocity": 82}, {"time": 1371, "pitch": 71, "duration": 2, "velocity": 82}, {"time": 1371, "pitch": 76, "duration": 2, "velocity": 82}, {"time": 1377, "pitch": 64, "duration": 34, "velocity": 82}, {"time": 1377, "pitch": 81, "duration": 4, "velocity": 82}, {"time": 1383, "pitch": 76, "duration": 4, "velocity": 82}, {"time": 1389, "pitch": 76, "duration": 3, "velocity": 82}, {"time": 1389, "pitch": 81, "duration": 3, "velocity": 82}, {"time": 1395, "pitch": 76, "duration": 3, "velocity": 82}, {"time": 1401, "pitch": 76, "duration": 3, "velocity": 82}, {"time": 1401, "pitch": 81, "duration": 3, "velocity": 82}, {"time": 1407, "pitch": 64, "duration": 4, "velocity": 82}, {"time": 1407, "pitch": 76, "duration": 3, "velocity": 82}, {"time": 1413, "pitch": 71, "duration": 6, "velocity": 82}, {"time": 1413, "pitch": 76, "duration": 3, "velocity": 82}, {"time": 1413, "pitch": 81, "duration": 4, "velocity": 82}, {"time": 1419, "pitch": 69, "duration": 7, "velocity": 82}, {"time": 1419, "pitch": 76, "duration": 3, "velocity": 82}, {"time": 1425, "pitch": 85, "duration": 3, "velocity": 82}, {"time": 1425, "pitch": 68, "duration": 23, "velocity": 82}, {"time": 1431, "pitch": 80, "duration": 2, "velocity": 82}, {"time": 1437, "pitch": 80, "duration": 2, "velocity": 82}, {"time": 1437, "pitch": 85, "duration": 3, "velocity": 82}, {"time": 1443, "pitch": 80, "duration": 2, "velocity": 82}, {"time": 1449, "pitch": 80, "duration": 2, "velocity": 82}, {"time": 1449, "pitch": 85, "duration": 3, "velocity": 82}, {"time": 1455, "pitch": 80, "duration": 2, "velocity": 82}, {"time": 1461, "pitch": 64, "duration": 12, "velocity": 82}, {"time": 1461, "pitch": 80, "duration": 2, "velocity": 82}, {"time": 1461, "pitch": 85, "duration": 3, "velocity": 82}, {"time": 1473, "pitch": 61, "duration": 24, "velocity": 82}, {"time": 1473, "pitch": 81, "duration": 13, "velocity": 82}, {"time": 1485, "pitch": 78, "duration": 13, "velocity": 82}, {"time": 1497, "pitch": 85, "duration": 13, "velocity": 82}, {"time": 1509, "pitch": 81, "duration": 11, "velocity": 82}, {"time": 1521, "pitch": 64, "duration": 34, "velocity": 82}, {"time": 1521, "pitch": 59, "duration": 29, "velocity": 82}, {"time": 1521, "pitch": 80, "duration": 17, "velocity": 82}, {"time": 1539, "pitch": 80, "duration": 4, "velocity": 82}, {"time": 1542, "pitch": 81, "duration": 5, "velocity": 80}, {"time": 1545, "pitch": 80, "duration": 7, "velocity": 87}, {"time": 1551, "pitch": 76, "duration": 4, "velocity": 81}, {"time": 1557, "pitch": 76, "duration": 10, "velocity": 94}, {"time": 1569, "pitch": 85, "duration": 3, "velocity": 87}, {"time": 1575, "pitch": 85, "duration": 2, "velocity": 80}, {"time": 1581, "pitch": 85, "duration": 6, "velocity": 85}, {"time": 1593, "pitch": 81, "duration": 2, "velocity": 71}, {"time": 1593, "pitch": 85, "duration": 3, "velocity": 81}, {"time": 1599, "pitch": 85, "duration": 3, "velocity": 87}, {"time": 1605, "pitch": 85, "duration": 8, "velocity": 86}, {"time": 1617, "pitch": 85, "duration": 12, "velocity": 87}, {"time": 1629, "pitch": 83, "duration": 11, "velocity": 84}, {"time": 1641, "pitch": 81, "duration": 13, "velocity": 84}, {"time": 1653, "pitch": 80, "duration": 8, "velocity": 87}, {"time": 1665, "pitch": 74, "duration": 5, "velocity": 74}, {"time": 1665, "pitch": 78, "duration": 5, "velocity": 76}, {"time": 1677, "pitch": 74, "duration": 4, "velocity": 80}, {"time": 1677, "pitch": 78, "duration": 4, "velocity": 81}, {"time": 1689, "pitch": 74, "duration": 3, "velocity": 81}, {"time": 1689, "pitch": 78, "duration": 3, "velocity": 82}, {"time": 1695, "pitch": 74, "duration": 3, "velocity": 76}, {"time": 1695, "pitch": 78, "duration": 3, "velocity": 76}, {"time": 1701, "pitch": 78, "duration": 3, "velocity": 75}, {"time": 1701, "pitch": 81, "duration": 3, "velocity": 82}, {"time": 1707, "pitch": 76, "duration": 2, "velocity": 74}, {"time": 1707, "pitch": 80, "duration": 3, "velocity": 74}, {"time": 1719, "pitch": 76, "duration": 2, "velocity": 73}, {"time": 1719, "pitch": 80, "duration": 2, "velocity": 70}, {"time": 1725, "pitch": 76, "duration": 2, "velocity": 79}, {"time": 1725, "pitch": 80, "duration": 2, "velocity": 82}, {"time": 1731, "pitch": 76, "duration": 3, "velocity": 78}, {"time": 1731, "pitch": 80, "duration": 3, "velocity": 85}, {"time": 1737, "pitch": 76, "duration": 2, "velocity": 80}, {"time": 1737, "pitch": 80, "duration": 2, "velocity": 83}, {"time": 1749, "pitch": 76, "duration": 7, "velocity": 80}, {"time": 1749, "pitch": 80, "duration": 7, "velocity": 82}, {"time": 1761, "pitch": 81, "duration": 4, "velocity": 84}, {"time": 1767, "pitch": 76, "duration": 4, "velocity": 84}, {"time": 1773, "pitch": 76, "duration": 3, "velocity": 83}, {"time": 1773, "pitch": 81, "duration": 3, "velocity": 83}, {"time": 1779, "pitch": 76, "duration": 3, "velocity": 72}, {"time": 1785, "pitch": 76, "duration": 3, "velocity": 80}, {"time": 1785, "pitch": 81, "duration": 3, "velocity": 81}, {"time": 1791, "pitch": 76, "duration": 3, "velocity": 75}, {"time": 1797, "pitch": 76, "duration": 3, "velocity": 82}, {"time": 1797, "pitch": 81, "duration": 4, "velocity": 82}, {"time": 1803, "pitch": 76, "duration": 3, "velocity": 82}, {"time": 1809, "pitch": 85, "duration": 3, "velocity": 87}, {"time": 1815, "pitch": 80, "duration": 2, "velocity": 73}, {"time": 1821, "pitch": 80, "duration": 2, "velocity": 75}, {"time": 1821, "pitch": 85, "duration": 3, "velocity": 81}, {"time": 1827, "pitch": 80, "duration": 2, "velocity": 59}, {"time": 1833, "pitch": 80, "duration": 2, "velocity": 70}, {"time": 1833, "pitch": 85, "duration": 3, "velocity": 81}, {"time": 1839, "pitch": 80, "duration": 2, "velocity": 68}, {"time": 1845, "pitch": 80, "duration": 2, "velocity": 78}, {"time": 1845, "pitch": 85, "duration": 3, "velocity": 82}, {"time": 1857, "pitch": 81, "duration": 13, "velocity": 80}, {"time": 1869, "pitch": 78, "duration": 13, "velocity": 83}, {"time": 1881, "pitch": 85, "duration": 13, "velocity": 81}, {"time": 1893, "pitch": 81, "duration": 11, "velocity": 80}, {"time": 1905, "pitch": 80, "duration": 17, "velocity": 84}, {"time": 1923, "pitch": 80, "duration": 4, "velocity": 76}, {"time": 1926, "pitch": 81, "duration": 5, "velocity": 80}, {"time": 1929, "pitch": 80, "duration": 7, "velocity": 87}, {"time": 1935, "pitch": 76, "duration": 4, "velocity": 81}, {"time": 1941, "pitch": 76, "duration": 10, "velocity": 94}, {"time": 1953, "pitch": 85, "duration": 3, "velocity": 87}, {"time": 1959, "pitch": 85, "duration": 2, "velocity": 80}, {"time": 1965, "pitch": 85, "duration": 6, "velocity": 85}, {"time": 1977, "pitch": 81, "duration": 2, "velocity": 71}, {"time": 1977, "pitch": 85, "duration": 3, "velocity": 81}, {"time": 1983, "pitch": 85, "duration": 3, "velocity": 87}, {"time": 1989, "pitch": 85, "duration": 8, "velocity": 86}, {"time": 2001, "pitch": 85, "duration": 12, "velocity": 87}, {"time": 2013, "pitch": 83, "duration": 11, "velocity": 84}, {"time": 2025, "pitch": 81, "duration": 13, "velocity": 84}, {"time": 2037, "pitch": 80, "duration": 8, "velocity": 87}, {"time": 2049, "pitch": 74, "duration": 5, "velocity": 74}, {"time": 2049, "pitch": 78, "duration": 5, "velocity": 76}, {"time": 2061, "pitch": 74, "duration": 4, "velocity": 80}, {"time": 2061, "pitch": 78, "duration": 4, "velocity": 81}, {"time": 2073, "pitch": 74, "duration": 3, "velocity": 81}, {"time": 2073, "pitch": 78, "duration": 3, "velocity": 82}, {"time": 2079, "pitch": 74, "duration": 3, "velocity": 76}, {"time": 2079, "pitch": 78, "duration": 3, "velocity": 76}, {"time": 2085, "pitch": 78, "duration": 3, "velocity": 75}, {"time": 2085, "pitch": 81, "duration": 3, "velocity": 82}, {"time": 2091, "pitch": 76, "duration": 2, "velocity": 74}, {"time": 2091, "pitch": 80, "duration": 3, "velocity": 74}, {"time": 2103, "pitch": 76, "duration": 2, "velocity": 73}, {"time": 2103, "pitch": 80, "duration": 2, "velocity": 70}, {"time": 2109, "pitch": 76, "duration": 2, "velocity": 79}, {"time": 2109, "pitch": 80, "duration": 2, "velocity": 82}, {"time": 2115, "pitch": 76, "duration": 3, "velocity": 78}, {"time": 2115, "pitch": 80, "duration": 3, "velocity": 85}, {"time": 2121, "pitch": 76, "duration": 2, "velocity": 80}, {"time": 2121, "pitch": 80, "duration": 2, "velocity": 83}, {"time": 2133, "pitch": 76, "duration": 7, "velocity": 80}, {"time": 2133, "pitch": 80, "duration": 7, "velocity": 82}, {"time": 2145, "pitch": 69, "duration": 36, "velocity": 78}, {"time": 2145, "pitch": 73, "duration": 36, "velocity": 81}, {"time": 2181, "pitch": 64, "duration": 12, "velocity": 83}, {"time": 2181, "pitch": 69, "duration": 12, "velocity": 83}, {"time": 2193, "pitch": 64, "duration": 23, "velocity": 81}, {"time": 2193, "pitch": 69, "duration": 23, "velocity": 80}, {"time": 2217, "pitch": 64, "duration": 12, "velocity": 81}, {"time": 2217, "pitch": 68, "duration": 12, "velocity": 77}, {"time": 2229, "pitch": 68, "duration": 13, "velocity": 81}, {"time": 2229, "pitch": 71, "duration": 13, "velocity": 80}, {"time": 2241, "pitch": 66, "duration": 24, "velocity": 79}, {"time": 2241, "pitch": 69, "duration": 24, "velocity": 80}, {"time": 2265, "pitch": 71, "duration": 11, "velocity": 75}, {"time": 2265, "pitch": 74, "duration": 11, "velocity": 85}, {"time": 2277, "pitch": 69, "duration": 10, "velocity": 75}, {"time": 2277, "pitch": 73, "duration": 10, "velocity": 73}, {"time": 2289, "pitch": 66, "duration": 23, "velocity": 80}, {"time": 2289, "pitch": 74, "duration": 23, "velocity": 83}, {"time": 2313, "pitch": 74, "duration": 7, "velocity": 82}, {"time": 2313, "pitch": 86, "duration": 7, "velocity": 82}, {"time": 2319, "pitch": 73, "duration": 7, "velocity": 84}, {"time": 2319, "pitch": 85, "duration": 7, "velocity": 84}, {"time": 2325, "pitch": 71, "duration": 7, "velocity": 84}, {"time": 2325, "pitch": 83, "duration": 7, "velocity": 84}, {"time": 2331, "pitch": 73, "duration": 5, "velocity": 87}, {"time": 2331, "pitch": 85, "duration": 5, "velocity": 87}, {"time": 2337, "pitch": 69, "duration": 12, "velocity": 83}, {"time": 2337, "pitch": 81, "duration": 12, "velocity": 83}, {"time": 2349, "pitch": 64, "duration": 12, "velocity": 81}, {"time": 2349, "pitch": 76, "duration": 12, "velocity": 81}, {"time": 2361, "pitch": 74, "duration": 6, "velocity": 87}, {"time": 2361, "pitch": 86, "duration": 6, "velocity": 87}, {"time": 2367, "pitch": 73, "duration": 7, "velocity": 96}, {"time": 2367, "pitch": 85, "duration": 7, "velocity": 96}, {"time": 2373, "pitch": 71, "duration": 6, "velocity": 87}, {"time": 2373, "pitch": 83, "duration": 6, "velocity": 87}, {"time": 2379, "pitch": 73, "duration": 7, "velocity": 106}, {"time": 2379, "pitch": 85, "duration": 7, "velocity": 106}, {"time": 2385, "pitch": 68, "duration": 12, "velocity": 97}, {"time": 2385, "pitch": 80, "duration": 12, "velocity": 97}, {"time": 2397, "pitch": 64, "duration": 13, "velocity": 91}, {"time": 2397, "pitch": 76, "duration": 13, "velocity": 91}, {"time": 2409, "pitch": 74, "duration": 6, "velocity": 84}, {"time": 2409, "pitch": 86, "duration": 6, "velocity": 84}, {"time": 2415, "pitch": 73, "duration": 7, "velocity": 87}, {"time": 2415, "pitch": 85, "duration": 7, "velocity": 87}, {"time": 2421, "pitch": 71, "duration": 6, "velocity": 82}, {"time": 2421, "pitch": 83, "duration": 6, "velocity": 82}, {"time": 2427, "pitch": 73, "duration": 4, "velocity": 94}, {"time": 2427, "pitch": 85, "duration": 4, "velocity": 94}, {"time": 2433, "pitch": 66, "duration": 4, "velocity": 87}, {"time": 2433, "pitch": 78, "duration": 4, "velocity": 87}, {"time": 2442, "pitch": 68, "duration": 4, "velocity": 81}, {"time": 2442, "pitch": 80, "duration": 4, "velocity": 81}, {"time": 2451, "pitch": 69, "duration": 2, "velocity": 84}, {"time": 2451, "pitch": 81, "duration": 2, "velocity": 84}, {"time": 2457, "pitch": 74, "duration": 7, "velocity": 89}, {"time": 2457, "pitch": 86, "duration": 7, "velocity": 89}, {"time": 2463, "pitch": 73, "duration": 7, "velocity": 91}, {"time": 2463, "pitch": 85, "duration": 7, "velocity": 91}, {"time": 2469, "pitch": 71, "duration": 6, "velocity": 83}, {"time": 2469, "pitch": 83, "duration": 6, "velocity": 83}, {"time": 2475, "pitch": 73, "duration": 7, "velocity": 82}, {"time": 2475, "pitch": 85, "duration": 7, "velocity": 82}, {"time": 2481, "pitch": 74, "duration": 24, "velocity": 83}, {"time": 2481, "pitch": 86, "duration": 24, "velocity": 83}, {"time": 2505, "pitch": 74, "duration": 24, "velocity": 89}, {"time": 2505, "pitch": 86, "duration": 24, "velocity": 89}, {"time": 2529, "pitch": 69, "duration": 47, "velocity": 69}, {"time": 2529, "pitch": 73, "duration": 47, "velocity": 69}, {"time": 2577, "pitch": 68, "duration": 45, "velocity": 68}, {"time": 2577, "pitch": 71, "duration": 46, "velocity": 73}, {"time": 2625, "pitch": 69, "duration": 46, "velocity": 65}, {"time": 2625, "pitch": 73, "duration": 46, "velocity": 63}, {"time": 2673, "pitch": 69, "duration": 20, "velocity": 72}, {"time": 2673, "pitch": 74, "duration": 20, "velocity": 76}, {"time": 2697, "pitch": 71, "duration": 21, "velocity": 66}, {"time": 2697, "pitch": 76, "duration": 23, "velocity": 73}, {"time": 2721, "pitch": 69, "duration": 37, "velocity": 72}, {"time": 2721, "pitch": 73, "duration": 34, "velocity": 70}, {"time": 2757, "pitch": 73, "duration": 7, "velocity": 81}, {"time": 2763, "pitch": 69, "duration": 7, "velocity": 76}, {"time": 2769, "pitch": 71, "duration": 35, "velocity": 75}, {"time": 2805, "pitch": 71, "duration": 9, "velocity": 74}, {"time": 2817, "pitch": 66, "duration": 34, "velocity": 65}, {"time": 2817, "pitch": 69, "duration": 35, "velocity": 73}, {"time": 2817, "pitch": 88, "duration": 72, "velocity": 81}, {"time": 2853, "pitch": 69, "duration": 9, "velocity": 76}, {"time": 2859, "pitch": 66, "duration": 6, "velocity": 69}, {"time": 2865, "pitch": 69, "duration": 12, "velocity": 72}, {"time": 2877, "pitch": 69, "duration": 24, "velocity": 80}, {"time": 2895, "pitch": 86, "duration": 2, "velocity": 81}, {"time": 2897, "pitch": 85, "duration": 1, "velocity": 81}, {"time": 2898, "pitch": 83, "duration": 2, "velocity": 81}, {"time": 2900, "pitch": 81, "duration": 1, "velocity": 81}, {"time": 2901, "pitch": 78, "duration": 2, "velocity": 81}, {"time": 2903, "pitch": 76, "duration": 1, "velocity": 81}, {"time": 2904, "pitch": 74, "duration": 2, "velocity": 81}, {"time": 2906, "pitch": 73, "duration": 1, "velocity": 81}, {"time": 2907, "pitch": 71, "duration": 2, "velocity": 81}, {"time": 2909, "pitch": 69, "duration": 1, "velocity": 81}, {"time": 2910, "pitch": 68, "duration": 2, "velocity": 81}, {"time": 2912, "pitch": 66, "duration": 1, "velocity": 81}, {"time": 2913, "pitch": 64, "duration": 11, "velocity": 81}, {"time": 2913, "pitch": 76, "duration": 3, "velocity": 82}, {"time": 2925, "pitch": 71, "duration": 2, "velocity": 84}, {"time": 2931, "pitch": 71, "duration": 2, "velocity": 81}, {"time": 2931, "pitch": 76, "duration": 1, "velocity": 91}, {"time": 2943, "pitch": 71, "duration": 2, "velocity": 78}, {"time": 2949, "pitch": 71, "duration": 2, "velocity": 80}, {"time": 2949, "pitch": 76, "duration": 2, "velocity": 83}, {"time": 2955, "pitch": 71, "duration": 2, "velocity": 79}, {"time": 2973, "pitch": 71, "duration": 2, "velocity": 80}, {"time": 2973, "pitch": 76, "duration": 2, "velocity": 82}, {"time": 2991, "pitch": 71, "duration": 2, "velocity": 84}, {"time": 2997, "pitch": 71, "duration": 2, "velocity": 83}, {"time": 2997, "pitch": 76, "duration": 2, "velocity": 84}, {"time": 3003, "pitch": 71, "duration": 2, "velocity": 82}, {"time": 3009, "pitch": 71, "duration": 3, "velocity": 80}, {"time": 3009, "pitch": 75, "duration": 3, "velocity": 81}, {"time": 3015, "pitch": 71, "duration": 3, "velocity": 81}, {"time": 3021, "pitch": 71, "duration": 3, "velocity": 79}, {"time": 3021, "pitch": 75, "duration": 3, "velocity": 80}, {"time": 3027, "pitch": 71, "duration": 2, "velocity": 81}, {"time": 3039, "pitch": 71, "duration": 2, "velocity": 81}, {"time": 3045, "pitch": 71, "duration": 2, "velocity": 84}, {"time": 3045, "pitch": 75, "duration": 2, "velocity": 86}, {"time": 3057, "pitch": 66, "duration": 6, "velocity": 80}, {"time": 3057, "pitch": 78, "duration": 7, "velocity": 71}, {"time": 3066, "pitch": 68, "duration": 7, "velocity": 82}, {"time": 3066, "pitch": 80, "duration": 7, "velocity": 81}, {"time": 3075, "pitch": 69, "duration": 8, "velocity": 63}, {"time": 3075, "pitch": 81, "duration": 8, "velocity": 80}, {"time": 3084, "pitch": 71, "duration": 7, "velocity": 78}, {"time": 3084, "pitch": 83, "duration": 8, "velocity": 81}, {"time": 3093, "pitch": 72, "duration": 5, "velocity": 80}, {"time": 3093, "pitch": 84, "duration": 4, "velocity": 83}, {"time": 3099, "pitch": 71, "duration": 6, "velocity": 81}, {"time": 3099, "pitch": 83, "duration": 5, "velocity": 75}, {"time": 3105, "pitch": 66, "duration": 1, "velocity": 73}, {"time": 3105, "pitch": 71, "duration": 1, "velocity": 82}, {"time": 3111, "pitch": 66, "duration": 2, "velocity": 70}, {"time": 3117, "pitch": 66, "duration": 2, "velocity": 74}, {"time": 3117, "pitch": 71, "duration": 2, "velocity": 81}, {"time": 3123, "pitch": 66, "duration": 2, "velocity": 66}, {"time": 3129, "pitch": 66, "duration": 2, "velocity": 76}, {"time": 3129, "pitch": 71, "duration": 2, "velocity": 81}, {"time": 3135, "pitch": 66, "duration": 2, "velocity": 67}, {"time": 3141, "pitch": 66, "duration": 2, "velocity": 80}, {"time": 3141, "pitch": 71, "duration": 2, "velocity": 84}, {"time": 3147, "pitch": 66, "duration": 2, "velocity": 76}, {"time": 3153, "pitch": 69, "duration": 2, "velocity": 79}, {"time": 3153, "pitch": 74, "duration": 2, "velocity": 82}, {"time": 3159, "pitch": 69, "duration": 2, "velocity": 76}, {"time": 3165, "pitch": 69, "duration": 2, "velocity": 80}, {"time": 3165, "pitch": 74, "duration": 2, "velocity": 81}, {"time": 3171, "pitch": 69, "duration": 2, "velocity": 75}, {"time": 3177, "pitch": 69, "duration": 2, "velocity": 78}, {"time": 3177, "pitch": 74, "duration": 2, "velocity": 81}, {"time": 3183, "pitch": 69, "duration": 2, "velocity": 73}, {"time": 3189, "pitch": 69, "duration": 2, "velocity": 77}, {"time": 3189, "pitch": 74, "duration": 2, "velocity": 84}, {"time": 3195, "pitch": 69, "duration": 2, "velocity": 78}, {"time": 3201, "pitch": 65, "duration": 2, "velocity": 74}, {"time": 3201, "pitch": 72, "duration": 2, "velocity": 68}, {"time": 3207, "pitch": 65, "duration": 2, "velocity": 71}, {"time": 3207, "pitch": 72, "duration": 2, "velocity": 73}, {"time": 3213, "pitch": 65, "duration": 2, "velocity": 81}, {"time": 3213, "pitch": 72, "duration": 2, "velocity": 82}, {"time": 3219, "pitch": 65, "duration": 2, "velocity": 60}, {"time": 3219, "pitch": 72, "duration": 2, "velocity": 69}, {"time": 3225, "pitch": 65, "duration": 2, "velocity": 79}, {"time": 3225, "pitch": 72, "duration": 2, "velocity": 80}, {"time": 3231, "pitch": 65, "duration": 2, "velocity": 66}, {"time": 3231, "pitch": 72, "duration": 3, "velocity": 72}, {"time": 3237, "pitch": 65, "duration": 2, "velocity": 80}, {"time": 3237, "pitch": 72, "duration": 2, "velocity": 81}, {"time": 3243, "pitch": 65, "duration": 2, "velocity": 73}, {"time": 3243, "pitch": 72, "duration": 2, "velocity": 75}, {"time": 3255, "pitch": 71, "duration": 3, "velocity": 68}, {"time": 3255, "pitch": 76, "duration": 3, "velocity": 73}, {"time": 3261, "pitch": 71, "duration": 2, "velocity": 79}, {"time": 3261, "pitch": 76, "duration": 2, "velocity": 81}, {"time": 3267, "pitch": 71, "duration": 2, "velocity": 80}, {"time": 3267, "pitch": 76, "duration": 2, "velocity": 83}, {"time": 3273, "pitch": 71, "duration": 2, "velocity": 79}, {"time": 3273, "pitch": 76, "duration": 2, "velocity": 82}, {"time": 3279, "pitch": 71, "duration": 2, "velocity": 75}, {"time": 3279, "pitch": 76, "duration": 2, "velocity": 80}, {"time": 3285, "pitch": 71, "duration": 2, "velocity": 79}, {"time": 3285, "pitch": 76, "duration": 2, "velocity": 81}, {"time": 3291, "pitch": 71, "duration": 2, "velocity": 73}, {"time": 3291, "pitch": 76, "duration": 2, "velocity": 80}, {"time": 3297, "pitch": 85, "duration": 33, "velocity": 127}, {"time": 3297, "pitch": 81, "duration": 4, "velocity": 84}, {"time": 3303, "pitch": 76, "duration": 4, "velocity": 84}, {"time": 3309, "pitch": 76, "duration": 3, "velocity": 83}, {"time": 3309, "pitch": 81, "duration": 3, "velocity": 83}, {"time": 3315, "pitch": 76, "duration": 3, "velocity": 72}, {"time": 3321, "pitch": 76, "duration": 3, "velocity": 80}, {"time": 3321, "pitch": 81, "duration": 3, "velocity": 81}, {"time": 3327, "pitch": 76, "duration": 3, "velocity": 75}, {"time": 3333, "pitch": 83, "duration": 6, "velocity": 127}, {"time": 3333, "pitch": 76, "duration": 3, "velocity": 82}, {"time": 3333, "pitch": 81, "duration": 4, "velocity": 82}, {"time": 3339, "pitch": 81, "duration": 4, "velocity": 127}, {"time": 3339, "pitch": 76, "duration": 3, "velocity": 82}, {"time": 3345, "pitch": 80, "duration": 8, "velocity": 127}, {"time": 3345, "pitch": 85, "duration": 3, "velocity": 87}, {"time": 3351, "pitch": 80, "duration": 2, "velocity": 73}, {"time": 3357, "pitch": 80, "duration": 2, "velocity": 75}, {"time": 3357, "pitch": 85, "duration": 3, "velocity": 81}, {"time": 3363, "pitch": 80, "duration": 2, "velocity": 59}, {"time": 3369, "pitch": 80, "duration": 2, "velocity": 70}, {"time": 3369, "pitch": 85, "duration": 3, "velocity": 81}, {"time": 3375, "pitch": 88, "duration": 6, "velocity": 127}, {"time": 3375, "pitch": 80, "duration": 2, "velocity": 68}, {"time": 3381, "pitch": 85, "duration": 3, "velocity": 127}, {"time": 3381, "pitch": 80, "duration": 2, "velocity": 78}, {"time": 3381, "pitch": 85, "duration": 3, "velocity": 82}, {"time": 3393, "pitch": 81, "duration": 13, "velocity": 80}, {"time": 3394, "pitch": 78, "duration": 24, "velocity": 127}, {"time": 3405, "pitch": 78, "duration": 13, "velocity": 83}, {"time": 3417, "pitch": 85, "duration": 13, "velocity": 81}, {"time": 3429, "pitch": 83, "duration": 4, "velocity": 123}, {"time": 3429, "pitch": 81, "duration": 9, "velocity": 80}, {"time": 3435, "pitch": 81, "duration": 3, "velocity": 127}, {"time": 3441, "pitch": 80, "duration": 17, "velocity": 127}, {"time": 3441, "pitch": 80, "duration": 17, "velocity": 84}, {"time": 3459, "pitch": 80, "duration": 1, "velocity": 76}, {"time": 3462, "pitch": 81, "duration": 5, "velocity": 80}, {"time": 3465, "pitch": 85, "duration": 4, "velocity": 127}, {"time": 3465, "pitch": 80, "duration": 7, "velocity": 87}, {"time": 3468, "pitch": 86, "duration": 4, "velocity": 127}, {"time": 3471, "pitch": 76, "duration": 4, "velocity": 81}, {"time": 3471, "pitch": 85, "duration": 5, "velocity": 127}, {"time": 3477, "pitch": 76, "duration": 10, "velocity": 94}, {"time": 3489, "pitch": 85, "duration": 3, "velocity": 87}, {"time": 3495, "pitch": 85, "duration": 2, "velocity": 80}, {"time": 3501, "pitch": 85, "duration": 6, "velocity": 127}, {"time": 3501, "pitch": 85, "duration": 6, "velocity": 85}, {"time": 3513, "pitch": 86, "duration": 9, "velocity": 127}, {"time": 3513, "pitch": 81, "duration": 2, "velocity": 71}, {"time": 3513, "pitch": 85, "duration": 3, "velocity": 81}, {"time": 3519, "pitch": 85, "duration": 3, "velocity": 87}, {"time": 3525, "pitch": 85, "duration": 8, "velocity": 127}, {"time": 3525, "pitch": 85, "duration": 8, "velocity": 86}, {"time": 3537, "pitch": 81, "duration": 19, "velocity": 127}, {"time": 3537, "pitch": 85, "duration": 12, "velocity": 87}, {"time": 3549, "pitch": 83, "duration": 11, "velocity": 84}, {"time": 3549, "pitch": 80, "duration": 9, "velocity": 127}, {"time": 3561, "pitch": 78, "duration": 10, "velocity": 127}, {"time": 3561, "pitch": 81, "duration": 13, "velocity": 84}, {"time": 3573, "pitch": 76, "duration": 9, "velocity": 127}, {"time": 3573, "pitch": 80, "duration": 8, "velocity": 87}, {"time": 3583, "pitch": 76, "duration": 1, "velocity": 13}, {"time": 3585, "pitch": 78, "duration": 5, "velocity": 127}, {"time": 3585, "pitch": 74, "duration": 5, "velocity": 74}, {"time": 3585, "pitch": 78, "duration": 5, "velocity": 76}, {"time": 3597, "pitch": 74, "duration": 4, "velocity": 80}, {"time": 3597, "pitch": 78, "duration": 4, "velocity": 81}, {"time": 3609, "pitch": 74, "duration": 3, "velocity": 81}, {"time": 3609, "pitch": 78, "duration": 3, "velocity": 82}, {"time": 3615, "pitch": 74, "duration": 3, "velocity": 76}, {"time": 3615, "pitch": 78, "duration": 3, "velocity": 76}, {"time": 3621, "pitch": 78, "duration": 3, "velocity": 75}, {"time": 3621, "pitch": 81, "duration": 3, "velocity": 82}, {"time": 3627, "pitch": 76, "duration": 2, "velocity": 74}, {"time": 3627, "pitch": 80, "duration": 3, "velocity": 74}, {"time": 3639, "pitch": 76, "duration": 2, "velocity": 73}, {"time": 3639, "pitch": 80, "duration": 2, "velocity": 70}, {"time": 3645, "pitch": 76, "duration": 2, "velocity": 79}, {"time": 3645, "pitch": 80, "duration": 2, "velocity": 82}, {"time": 3651, "pitch": 76, "duration": 3, "velocity": 78}, {"time": 3651, "pitch": 80, "duration": 3, "velocity": 85}, {"time": 3657, "pitch": 76, "duration": 2, "velocity": 80}, {"time": 3657, "pitch": 80, "duration": 2, "velocity": 83}, {"time": 3657, "pitch": 81, "duration": 10, "velocity": 127}, {"time": 3669, "pitch": 83, "duration": 10, "velocity": 127}, {"time": 3669, "pitch": 76, "duration": 7, "velocity": 80}, {"time": 3669, "pitch": 80, "duration": 7, "velocity": 82}, {"time": 3681, "pitch": 85, "duration": 32, "velocity": 127}, {"time": 3777, "pitch": 81, "duration": 13, "velocity": 80}, {"time": 3789, "pitch": 78, "duration": 13, "velocity": 83}, {"time": 3801, "pitch": 85, "duration": 13, "velocity": 81}, {"time": 3813, "pitch": 81, "duration": 11, "velocity": 80}, {"time": 3825, "pitch": 80, "duration": 17, "velocity": 84}, {"time": 3843, "pitch": 80, "duration": 4, "velocity": 76}, {"time": 3846, "pitch": 81, "duration": 5, "velocity": 80}, {"time": 3849, "pitch": 80, "duration": 7, "velocity": 87}, {"time": 3855, "pitch": 76, "duration": 4, "velocity": 81}, {"time": 3861, "pitch": 76, "duration": 10, "velocity": 94}, {"time": 3885, "pitch": 85, "duration": 11, "velocity": 127}, {"time": 3898, "pitch": 86, "duration": 10, "velocity": 127}, {"time": 3909, "pitch": 85, "duration": 10, "velocity": 127}, {"time": 3921, "pitch": 85, "duration": 10, "velocity": 127}, {"time": 3921, "pitch": 90, "duration": 9, "velocity": 127}, {"time": 3932, "pitch": 88, "duration": 10, "velocity": 127}, {"time": 3933, "pitch": 83, "duration": 10, "velocity": 127}, {"time": 3944, "pitch": 86, "duration": 12, "velocity": 127}, {"time": 3945, "pitch": 81, "duration": 11, "velocity": 127}, {"time": 3956, "pitch": 85, "duration": 10, "velocity": 127}, {"time": 3969, "pitch": 86, "duration": 16, "velocity": 127}, {"time": 3999, "pitch": 85, "duration": 6, "velocity": 127}, {"time": 4005, "pitch": 86, "duration": 6, "velocity": 127}, {"time": 4011, "pitch": 88, "duration": 31, "velocity": 127}, {"time": 4089, "pitch": 74, "duration": 7, "velocity": 82}, {"time": 4089, "pitch": 86, "duration": 7, "velocity": 82}, {"time": 4095, "pitch": 73, "duration": 7, "velocity": 84}, {"time": 4095, "pitch": 85, "duration": 7, "velocity": 84}, {"time": 4101, "pitch": 71, "duration": 7, "velocity": 84}, {"time": 4101, "pitch": 83, "duration": 7, "velocity": 84}, {"time": 4107, "pitch": 73, "duration": 5, "velocity": 87}, {"time": 4107, "pitch": 85, "duration": 5, "velocity": 87}, {"time": 4113, "pitch": 69, "duration": 12, "velocity": 83}, {"time": 4113, "pitch": 81, "duration": 12, "velocity": 83}, {"time": 4125, "pitch": 64, "duration": 12, "velocity": 81}, {"time": 4125, "pitch": 76, "duration": 12, "velocity": 81}, {"time": 4137, "pitch": 74, "duration": 6, "velocity": 87}, {"time": 4137, "pitch": 86, "duration": 6, "velocity": 87}, {"time": 4143, "pitch": 73, "duration": 7, "velocity": 96}, {"time": 4143, "pitch": 85, "duration": 7, "velocity": 96}, {"time": 4149, "pitch": 71, "duration": 6, "velocity": 87}, {"time": 4149, "pitch": 83, "duration": 6, "velocity": 87}, {"time": 4155, "pitch": 73, "duration": 7, "velocity": 106}, {"time": 4155, "pitch": 85, "duration": 7, "velocity": 106}, {"time": 4161, "pitch": 68, "duration": 12, "velocity": 97}, {"time": 4161, "pitch": 80, "duration": 12, "velocity": 97}, {"time": 4173, "pitch": 64, "duration": 13, "velocity": 91}, {"time": 4173, "pitch": 76, "duration": 13, "velocity": 91}, {"time": 4185, "pitch": 74, "duration": 6, "velocity": 84}, {"time": 4185, "pitch": 86, "duration": 6, "velocity": 84}, {"time": 4191, "pitch": 73, "duration": 7, "velocity": 87}, {"time": 4191, "pitch": 85, "duration": 7, "velocity": 87}, {"time": 4197, "pitch": 71, "duration": 6, "velocity": 82}, {"time": 4197, "pitch": 83, "duration": 6, "velocity": 82}, {"time": 4203, "pitch": 73, "duration": 4, "velocity": 94}, {"time": 4203, "pitch": 85, "duration": 4, "velocity": 94}, {"time": 4209, "pitch": 66, "duration": 4, "velocity": 87}, {"time": 4209, "pitch": 78, "duration": 4, "velocity": 87}, {"time": 4218, "pitch": 68, "duration": 4, "velocity": 81}, {"time": 4218, "pitch": 80, "duration": 4, "velocity": 81}, {"time": 4227, "pitch": 69, "duration": 2, "velocity": 84}, {"time": 4227, "pitch": 81, "duration": 2, "velocity": 84}, {"time": 4233, "pitch": 74, "duration": 7, "velocity": 89}, {"time": 4233, "pitch": 86, "duration": 7, "velocity": 89}, {"time": 4239, "pitch": 73, "duration": 7, "velocity": 91}, {"time": 4239, "pitch": 85, "duration": 7, "velocity": 91}, {"time": 4245, "pitch": 71, "duration": 6, "velocity": 83}, {"time": 4245, "pitch": 83, "duration": 6, "velocity": 83}, {"time": 4251, "pitch": 73, "duration": 7, "velocity": 82}, {"time": 4251, "pitch": 85, "duration": 7, "velocity": 82}, {"time": 4257, "pitch": 74, "duration": 24, "velocity": 83}, {"time": 4257, "pitch": 86, "duration": 24, "velocity": 83}, {"time": 4281, "pitch": 74, "duration": 7, "velocity": 82}, {"time": 4281, "pitch": 86, "duration": 7, "velocity": 82}, {"time": 4287, "pitch": 73, "duration": 7, "velocity": 84}, {"time": 4287, "pitch": 85, "duration": 7, "velocity": 84}, {"time": 4293, "pitch": 71, "duration": 7, "velocity": 84}, {"time": 4293, "pitch": 83, "duration": 7, "velocity": 84}, {"time": 4299, "pitch": 73, "duration": 5, "velocity": 87}, {"time": 4299, "pitch": 85, "duration": 5, "velocity": 87}, {"time": 4305, "pitch": 69, "duration": 12, "velocity": 83}, {"time": 4305, "pitch": 81, "duration": 12, "velocity": 83}, {"time": 4317, "pitch": 64, "duration": 12, "velocity": 81}, {"time": 4317, "pitch": 76, "duration": 12, "velocity": 81}, {"time": 4329, "pitch": 74, "duration": 6, "velocity": 87}, {"time": 4329, "pitch": 86, "duration": 6, "velocity": 87}, {"time": 4335, "pitch": 73, "duration": 7, "velocity": 96}, {"time": 4335, "pitch": 85, "duration": 7, "velocity": 96}, {"time": 4341, "pitch": 71, "duration": 6, "velocity": 87}, {"time": 4341, "pitch": 83, "duration": 6, "velocity": 87}, {"time": 4347, "pitch": 73, "duration": 7, "velocity": 106}, {"time": 4347, "pitch": 85, "duration": 7, "velocity": 106}, {"time": 4353, "pitch": 68, "duration": 12, "velocity": 97}, {"time": 4353, "pitch": 80, "duration": 12, "velocity": 97}, {"time": 4365, "pitch": 64, "duration": 13, "velocity": 91}, {"time": 4365, "pitch": 76, "duration": 13, "velocity": 91}, {"time": 4377, "pitch": 74, "duration": 6, "velocity": 84}, {"time": 4377, "pitch": 86, "duration": 6, "velocity": 84}, {"time": 4383, "pitch": 73, "duration": 7, "velocity": 87}, {"time": 4383, "pitch": 85, "duration": 7, "velocity": 87}, {"time": 4389, "pitch": 71, "duration": 6, "velocity": 82}, {"time": 4389, "pitch": 83, "duration": 6, "velocity": 82}, {"time": 4395, "pitch": 73, "duration": 4, "velocity": 94}, {"time": 4395, "pitch": 85, "duration": 4, "velocity": 94}, {"time": 4401, "pitch": 66, "duration": 4, "velocity": 87}, {"time": 4401, "pitch": 78, "duration": 4, "velocity": 87}, {"time": 4410, "pitch": 68, "duration": 4, "velocity": 81}, {"time": 4410, "pitch": 80, "duration": 4, "velocity": 81}, {"time": 4419, "pitch": 69, "duration": 2, "velocity": 84}, {"time": 4419, "pitch": 81, "duration": 2, "velocity": 84}, {"time": 4425, "pitch": 74, "duration": 7, "velocity": 89}, {"time": 4425, "pitch": 86, "duration": 7, "velocity": 89}, {"time": 4431, "pitch": 73, "duration": 7, "velocity": 91}, {"time": 4431, "pitch": 85, "duration": 7, "velocity": 91}, {"time": 4437, "pitch": 71, "duration": 6, "velocity": 83}, {"time": 4437, "pitch": 83, "duration": 6, "velocity": 83}, {"time": 4443, "pitch": 73, "duration": 7, "velocity": 82}, {"time": 4443, "pitch": 85, "duration": 7, "velocity": 82}, {"time": 4449, "pitch": 74, "duration": 24, "velocity": 83}, {"time": 4449, "pitch": 86, "duration": 24, "velocity": 83}, {"time": 4473, "pitch": 74, "duration": 24, "velocity": 89}, {"time": 4473, "pitch": 86, "duration": 24, "velocity": 89}]}, {"program": 0, "is_drum": false, "name": "PIANO", "notes": [{"time": 21, "pitch": 40, "duration": 3, "velocity": 82}, {"time": 21, "pitch": 52, "duration": 3, "velocity": 81}, {"time": 21, "pitch": 56, "duration": 4, "velocity": 73}, {"time": 33, "pitch": 45, "duration": 39, "velocity": 81}, {"time": 33, "pitch": 57, "duration": 6, "velocity": 76}, {"time": 33, "pitch": 61, "duration": 8, "velocity": 76}, {"time": 39, "pitch": 52, "duration": 8, "velocity": 62}, {"time": 45, "pitch": 57, "duration": 7, "velocity": 78}, {"time": 45, "pitch": 61, "duration": 8, "velocity": 80}, {"time": 51, "pitch": 52, "duration": 8, "velocity": 60}, {"time": 57, "pitch": 57, "duration": 7, "velocity": 80}, {"time": 57, "pitch": 61, "duration": 8, "velocity": 82}, {"time": 63, "pitch": 52, "duration": 10, "velocity": 61}, {"time": 69, "pitch": 57, "duration": 3, "velocity": 80}, {"time": 69, "pitch": 61, "duration": 6, "velocity": 86}, {"time": 75, "pitch": 57, "duration": 2, "velocity": 82}, {"time": 81, "pitch": 40, "duration": 43, "velocity": 84}, {"time": 81, "pitch": 52, "duration": 10, "velocity": 75}, {"time": 81, "pitch": 56, "duration": 9, "velocity": 73}, {"time": 87, "pitch": 47, "duration": 9, "velocity": 72}, {"time": 93, "pitch": 56, "duration": 9, "velocity": 77}, {"time": 93, "pitch": 59, "duration": 9, "velocity": 78}, {"time": 99, "pitch": 52, "duration": 7, "velocity": 76}, {"time": 105, "pitch": 56, "duration": 7, "velocity": 77}, {"time": 105, "pitch": 59, "duration": 6, "velocity": 80}, {"time": 105, "pitch": 62, "duration": 7, "velocity": 75}, {"time": 111, "pitch": 52, "duration": 5, "velocity": 79}, {"time": 117, "pitch": 52, "duration": 1, "velocity": 67}, {"time": 117, "pitch": 56, "duration": 8, "velocity": 77}, {"time": 117, "pitch": 61, "duration": 9, "velocity": 80}, {"time": 123, "pitch": 52, "duration": 2, "velocity": 89}, {"time": 129, "pitch": 42, "duration": 28, "velocity": 82}, {"time": 129, "pitch": 57, "duration": 8, "velocity": 75}, {"time": 129, "pitch": 61, "duration": 8, "velocity": 74}, {"time": 135, "pitch": 49, "duration": 24, "velocity": 64}, {"time": 141, "pitch": 61, "duration": 10, "velocity": 82}, {"time": 141, "pitch": 66, "duration": 11, "velocity": 76}, {"time": 147, "pitch": 57, "duration": 5, "velocity": 76}, {"time": 153, "pitch": 57, "duration": 11, "velocity": 81}, {"time": 153, "pitch": 61, "duration": 11, "velocity": 81}, {"time": 153, "pitch": 66, "duration": 7, "velocity": 67}, {"time": 159, "pitch": 42, "duration": 13, "velocity": 79}, {"time": 165, "pitch": 57, "duration": 4, "velocity": 82}, {"time": 165, "pitch": 61, "duration": 12, "velocity": 86}, {"time": 165, "pitch": 66, "duration": 12, "velocity": 81}, {"time": 171, "pitch": 49, "duration": 7, "velocity": 75}, {"time": 177, "pitch": 38, "duration": 47, "velocity": 85}, {"time": 177, "pitch": 54, "duration": 14, "velocity": 73}, {"time": 177, "pitch": 57, "duration": 16, "velocity": 75}, {"time": 183, "pitch": 45, "duration": 8, "velocity": 72}, {"time": 189, "pitch": 50, "duration": 13, "velocity": 86}, {"time": 195, "pitch": 45, "duration": 29, "velocity": 70}, {"time": 201, "pitch": 54, "duration": 9, "velocity": 71}, {"time": 201, "pitch": 57, "duration": 9, "velocity": 76}, {"time": 201, "pitch": 62, "duration": 9, "velocity": 80}, {"time": 207, "pitch": 50, "duration": 17, "velocity": 76}, {"time": 213, "pitch": 54, "duration": 11, "velocity": 65}, {"time": 213, "pitch": 57, "duration": 11, "velocity": 73}, {"time": 225, "pitch": 45, "duration": 16, "velocity": 82}, {"time": 225, "pitch": 57, "duration": 8, "velocity": 76}, {"time": 225, "pitch": 61, "duration": 7, "velocity": 80}, {"time": 231, "pitch": 52, "duration": 8, "velocity": 80}, {"time": 237, "pitch": 57, "duration": 1, "velocity": 68}, {"time": 237, "pitch": 61, "duration": 5, "velocity": 83}, {"time": 237, "pitch": 64, "duration": 5, "velocity": 82}, {"time": 243, "pitch": 57, "duration": 4, "velocity": 73}, {"time": 249, "pitch": 45, "duration": 16, "velocity": 65}, {"time": 249, "pitch": 57, "duration": 5, "velocity": 69}, {"time": 249, "pitch": 61, "duration": 7, "velocity": 68}, {"time": 249, "pitch": 64, "duration": 7, "velocity": 79}, {"time": 255, "pitch": 52, "duration": 9, "velocity": 64}, {"time": 261, "pitch": 57, "duration": 2, "velocity": 77}, {"time": 261, "pitch": 61, "duration": 5, "velocity": 84}, {"time": 261, "pitch": 64, "duration": 6, "velocity": 82}, {"time": 267, "pitch": 57, "duration": 3, "velocity": 75}, {"time": 273, "pitch": 40, "duration": 20, "velocity": 81}, {"time": 273, "pitch": 59, "duration": 8, "velocity": 70}, {"time": 273, "pitch": 64, "duration": 8, "velocity": 66}, {"time": 279, "pitch": 47, "duration": 10, "velocity": 62}, {"time": 285, "pitch": 59, "duration": 2, "velocity": 80}, {"time": 285, "pitch": 64, "duration": 3, "velocity": 81}, {"time": 285, "pitch": 68, "duration": 6, "velocity": 72}, {"time": 291, "pitch": 59, "duration": 3, "velocity": 70}, {"time": 297, "pitch": 40, "duration": 16, "velocity": 76}, {"time": 297, "pitch": 59, "duration": 6, "velocity": 75}, {"time": 297, "pitch": 64, "duration": 7, "velocity": 79}, {"time": 303, "pitch": 47, "duration": 9, "velocity": 58}, {"time": 309, "pitch": 59, "duration": 3, "velocity": 78}, {"time": 309, "pitch": 64, "duration": 7, "velocity": 82}, {"time": 309, "pitch": 68, "duration": 6, "velocity": 80}, {"time": 315, "pitch": 59, "duration": 3, "velocity": 82}, {"time": 321, "pitch": 42, "duration": 21, "velocity": 82}, {"time": 321, "pitch": 57, "duration": 8, "velocity": 74}, {"time": 321, "pitch": 61, "duration": 9, "velocity": 76}, {"time": 327, "pitch": 49, "duration": 16, "velocity": 62}, {"time": 333, "pitch": 61, "duration": 3, "velocity": 86}, {"time": 333, "pitch": 66, "duration": 2, "velocity": 76}, {"time": 339, "pitch": 57, "duration": 5, "velocity": 76}, {"time": 345, "pitch": 42, "duration": 17, "velocity": 82}, {"time": 345, "pitch": 57, "duration": 9, "velocity": 75}, {"time": 345, "pitch": 61, "duration": 9, "velocity": 69}, {"time": 351, "pitch": 49, "duration": 10, "velocity": 69}, {"time": 357, "pitch": 61, "duration": 7, "velocity": 87}, {"time": 357, "pitch": 66, "duration": 7, "velocity": 80}, {"time": 363, "pitch": 57, "duration": 4, "velocity": 81}, {"time": 369, "pitch": 50, "duration": 22, "velocity": 80}, {"time": 369, "pitch": 57, "duration": 4, "velocity": 71}, {"time": 369, "pitch": 62, "duration": 8, "velocity": 78}, {"time": 375, "pitch": 57, "duration": 4, "velocity": 77}, {"time": 381, "pitch": 57, "duration": 3, "velocity": 80}, {"time": 381, "pitch": 62, "duration": 9, "velocity": 81}, {"time": 381, "pitch": 66, "duration": 10, "velocity": 75}, {"time": 387, "pitch": 57, "duration": 3, "velocity": 71}, {"time": 393, "pitch": 52, "duration": 7, "velocity": 85}, {"time": 393, "pitch": 59, "duration": 4, "velocity": 76}, {"time": 393, "pitch": 64, "duration": 5, "velocity": 81}, {"time": 399, "pitch": 59, "duration": 8, "velocity": 81}, {"time": 405, "pitch": 40, "duration": 5, "velocity": 82}, {"time": 405, "pitch": 64, "duration": 6, "velocity": 80}, {"time": 405, "pitch": 68, "duration": 6, "velocity": 69}, {"time": 411, "pitch": 59, "duration": 2, "velocity": 83}, {"time": 417, "pitch": 45, "duration": 20, "velocity": 80}, {"time": 417, "pitch": 57, "duration": 7, "velocity": 72}, {"time": 417, "pitch": 61, "duration": 7, "velocity": 67}, {"time": 417, "pitch": 64, "duration": 7, "velocity": 78}, {"time": 423, "pitch": 52, "duration": 14, "velocity": 71}, {"time": 429, "pitch": 61, "duration": 3, "velocity": 84}, {"time": 429, "pitch": 64, "duration": 2, "velocity": 81}, {"time": 435, "pitch": 57, "duration": 8, "velocity": 72}, {"time": 441, "pitch": 45, "duration": 16, "velocity": 80}, {"time": 441, "pitch": 61, "duration": 6, "velocity": 70}, {"time": 441, "pitch": 64, "duration": 6, "velocity": 82}, {"time": 447, "pitch": 52, "duration": 9, "velocity": 66}, {"time": 453, "pitch": 57, "duration": 3, "velocity": 76}, {"time": 453, "pitch": 61, "duration": 6, "velocity": 83}, {"time": 453, "pitch": 64, "duration": 7, "velocity": 82}, {"time": 459, "pitch": 57, "duration": 2, "velocity": 65}, {"time": 465, "pitch": 40, "duration": 22, "velocity": 81}, {"time": 465, "pitch": 59, "duration": 3, "velocity": 74}, {"time": 465, "pitch": 64, "duration": 9, "velocity": 80}, {"time": 471, "pitch": 59, "duration": 5, "velocity": 72}, {"time": 477, "pitch": 64, "duration": 7, "velocity": 81}, {"time": 477, "pitch": 68, "duration": 5, "velocity": 80}, {"time": 483, "pitch": 59, "duration": 8, "velocity": 82}, {"time": 489, "pitch": 40, "duration": 17, "velocity": 83}, {"time": 489, "pitch": 64, "duration": 8, "velocity": 81}, {"time": 495, "pitch": 47, "duration": 9, "velocity": 62}, {"time": 495, "pitch": 59, "duration": 4, "velocity": 78}, {"time": 501, "pitch": 59, "duration": 3, "velocity": 82}, {"time": 501, "pitch": 64, "duration": 3, "velocity": 83}, {"time": 501, "pitch": 68, "duration": 4, "velocity": 75}, {"time": 513, "pitch": 42, "duration": 21, "velocity": 82}, {"time": 513, "pitch": 61, "duration": 7, "velocity": 85}, {"time": 519, "pitch": 57, "duration": 7, "velocity": 81}, {"time": 525, "pitch": 49, "duration": 10, "velocity": 66}, {"time": 525, "pitch": 61, "duration": 7, "velocity": 80}, {"time": 525, "pitch": 66, "duration": 7, "velocity": 81}, {"time": 531, "pitch": 57, "duration": 8, "velocity": 80}, {"time": 537, "pitch": 42, "duration": 9, "velocity": 74}, {"time": 537, "pitch": 61, "duration": 7, "velocity": 80}, {"time": 543, "pitch": 57, "duration": 3, "velocity": 75}, {"time": 549, "pitch": 61, "duration": 7, "velocity": 82}, {"time": 549, "pitch": 66, "duration": 7, "velocity": 81}, {"time": 555, "pitch": 57, "duration": 4, "velocity": 81}, {"time": 561, "pitch": 50, "duration": 11, "velocity": 82}, {"time": 561, "pitch": 57, "duration": 3, "velocity": 79}, {"time": 561, "pitch": 62, "duration": 8, "velocity": 81}, {"time": 567, "pitch": 57, "duration": 3, "velocity": 69}, {"time": 573, "pitch": 57, "duration": 1, "velocity": 62}, {"time": 573, "pitch": 62, "duration": 10, "velocity": 81}, {"time": 573, "pitch": 66, "duration": 8, "velocity": 73}, {"time": 579, "pitch": 33, "duration": 6, "velocity": 73}, {"time": 585, "pitch": 38, "duration": 19, "velocity": 81}, {"time": 585, "pitch": 57, "duration": 4, "velocity": 74}, {"time": 585, "pitch": 62, "duration": 10, "velocity": 80}, {"time": 585, "pitch": 66, "duration": 10, "velocity": 77}, {"time": 591, "pitch": 57, "duration": 4, "velocity": 73}, {"time": 597, "pitch": 57, "duration": 4, "velocity": 81}, {"time": 597, "pitch": 62, "duration": 11, "velocity": 85}, {"time": 597, "pitch": 66, "duration": 12, "velocity": 81}, {"time": 603, "pitch": 57, "duration": 5, "velocity": 82}, {"time": 609, "pitch": 45, "duration": 16, "velocity": 82}, {"time": 609, "pitch": 57, "duration": 8, "velocity": 76}, {"time": 609, "pitch": 61, "duration": 7, "velocity": 80}, {"time": 615, "pitch": 52, "duration": 8, "velocity": 80}, {"time": 621, "pitch": 57, "duration": 1, "velocity": 68}, {"time": 621, "pitch": 61, "duration": 5, "velocity": 83}, {"time": 621, "pitch": 64, "duration": 5, "velocity": 82}, {"time": 627, "pitch": 57, "duration": 4, "velocity": 73}, {"time": 633, "pitch": 45, "duration": 16, "velocity": 65}, {"time": 633, "pitch": 57, "duration": 5, "velocity": 69}, {"time": 633, "pitch": 61, "duration": 7, "velocity": 68}, {"time": 633, "pitch": 64, "duration": 7, "velocity": 79}, {"time": 639, "pitch": 52, "duration": 9, "velocity": 64}, {"time": 645, "pitch": 57, "duration": 2, "velocity": 77}, {"time": 645, "pitch": 61, "duration": 5, "velocity": 84}, {"time": 645, "pitch": 64, "duration": 6, "velocity": 82}, {"time": 651, "pitch": 57, "duration": 3, "velocity": 75}, {"time": 657, "pitch": 40, "duration": 20, "velocity": 81}, {"time": 657, "pitch": 59, "duration": 8, "velocity": 70}, {"time": 657, "pitch": 64, "duration": 8, "velocity": 66}, {"time": 663, "pitch": 47, "duration": 10, "velocity": 62}, {"time": 669, "pitch": 59, "duration": 2, "velocity": 80}, {"time": 669, "pitch": 64, "duration": 3, "velocity": 81}, {"time": 669, "pitch": 68, "duration": 6, "velocity": 72}, {"time": 675, "pitch": 59, "duration": 3, "velocity": 70}, {"time": 681, "pitch": 40, "duration": 16, "velocity": 76}, {"time": 681, "pitch": 59, "duration": 6, "velocity": 75}, {"time": 681, "pitch": 64, "duration": 7, "velocity": 79}, {"time": 687, "pitch": 47, "duration": 9, "velocity": 58}, {"time": 693, "pitch": 59, "duration": 3, "velocity": 78}, {"time": 693, "pitch": 64, "duration": 7, "velocity": 82}, {"time": 693, "pitch": 68, "duration": 6, "velocity": 80}, {"time": 699, "pitch": 59, "duration": 3, "velocity": 82}, {"time": 705, "pitch": 42, "duration": 21, "velocity": 82}, {"time": 705, "pitch": 57, "duration": 8, "velocity": 74}, {"time": 705, "pitch": 61, "duration": 9, "velocity": 76}, {"time": 711, "pitch": 49, "duration": 16, "velocity": 62}, {"time": 717, "pitch": 61, "duration": 3, "velocity": 86}, {"time": 717, "pitch": 66, "duration": 2, "velocity": 76}, {"time": 723, "pitch": 57, "duration": 5, "velocity": 76}, {"time": 729, "pitch": 42, "duration": 17, "velocity": 82}, {"time": 729, "pitch": 57, "duration": 9, "velocity": 75}, {"time": 729, "pitch": 61, "duration": 9, "velocity": 69}, {"time": 735, "pitch": 49, "duration": 10, "velocity": 69}, {"time": 741, "pitch": 61, "duration": 7, "velocity": 87}, {"time": 741, "pitch": 66, "duration": 7, "velocity": 80}, {"time": 747, "pitch": 57, "duration": 4, "velocity": 81}, {"time": 753, "pitch": 50, "duration": 22, "velocity": 80}, {"time": 753, "pitch": 57, "duration": 4, "velocity": 71}, {"time": 753, "pitch": 62, "duration": 8, "velocity": 78}, {"time": 759, "pitch": 57, "duration": 4, "velocity": 77}, {"time": 765, "pitch": 57, "duration": 3, "velocity": 80}, {"time": 765, "pitch": 62, "duration": 9, "velocity": 81}, {"time": 765, "pitch": 66, "duration": 10, "velocity": 75}, {"time": 771, "pitch": 57, "duration": 3, "velocity": 71}, {"time": 777, "pitch": 52, "duration": 7, "velocity": 85}, {"time": 777, "pitch": 59, "duration": 4, "velocity": 76}, {"time": 777, "pitch": 64, "duration": 5, "velocity": 81}, {"time": 783, "pitch": 59, "duration": 8, "velocity": 81}, {"time": 789, "pitch": 40, "duration": 5, "velocity": 82}, {"time": 789, "pitch": 64, "duration": 6, "velocity": 80}, {"time": 789, "pitch": 68, "duration": 6, "velocity": 69}, {"time": 795, "pitch": 59, "duration": 2, "velocity": 83}, {"time": 801, "pitch": 45, "duration": 20, "velocity": 80}, {"time": 801, "pitch": 57, "duration": 7, "velocity": 72}, {"time": 801, "pitch": 61, "duration": 7, "velocity": 67}, {"time": 801, "pitch": 64, "duration": 7, "velocity": 78}, {"time": 807, "pitch": 52, "duration": 14, "velocity": 71}, {"time": 813, "pitch": 61, "duration": 3, "velocity": 84}, {"time": 813, "pitch": 64, "duration": 2, "velocity": 81}, {"time": 819, "pitch": 57, "duration": 8, "velocity": 72}, {"time": 825, "pitch": 45, "duration": 16, "velocity": 80}, {"time": 825, "pitch": 61, "duration": 6, "velocity": 70}, {"time": 825, "pitch": 64, "duration": 6, "velocity": 82}, {"time": 831, "pitch": 52, "duration": 9, "velocity": 66}, {"time": 837, "pitch": 57, "duration": 3, "velocity": 76}, {"time": 837, "pitch": 61, "duration": 6, "velocity": 83}, {"time": 837, "pitch": 64, "duration": 7, "velocity": 82}, {"time": 843, "pitch": 57, "duration": 2, "velocity": 65}, {"time": 849, "pitch": 40, "duration": 22, "velocity": 81}, {"time": 849, "pitch": 59, "duration": 3, "velocity": 74}, {"time": 849, "pitch": 64, "duration": 9, "velocity": 80}, {"time": 855, "pitch": 59, "duration": 5, "velocity": 72}, {"time": 861, "pitch": 64, "duration": 7, "velocity": 81}, {"time": 861, "pitch": 68, "duration": 5, "velocity": 80}, {"time": 867, "pitch": 59, "duration": 8, "velocity": 82}, {"time": 873, "pitch": 40, "duration": 17, "velocity": 83}, {"time": 873, "pitch": 64, "duration": 8, "velocity": 81}, {"time": 879, "pitch": 47, "duration": 9, "velocity": 62}, {"time": 879, "pitch": 59, "duration": 4, "velocity": 78}, {"time": 885, "pitch": 59, "duration": 3, "velocity": 82}, {"time": 885, "pitch": 64, "duration": 3, "velocity": 83}, {"time": 885, "pitch": 68, "duration": 4, "velocity": 75}, {"time": 897, "pitch": 42, "duration": 21, "velocity": 82}, {"time": 897, "pitch": 61, "duration": 7, "velocity": 85}, {"time": 903, "pitch": 57, "duration": 7, "velocity": 81}, {"time": 909, "pitch": 49, "duration": 10, "velocity": 66}, {"time": 909, "pitch": 61, "duration": 7, "velocity": 80}, {"time": 909, "pitch": 66, "duration": 7, "velocity": 81}, {"time": 915, "pitch": 57, "duration": 8, "velocity": 80}, {"time": 921, "pitch": 42, "duration": 9, "velocity": 74}, {"time": 921, "pitch": 61, "duration": 7, "velocity": 80}, {"time": 927, "pitch": 57, "duration": 3, "velocity": 75}, {"time": 933, "pitch": 61, "duration": 7, "velocity": 82}, {"time": 933, "pitch": 66, "duration": 7, "velocity": 81}, {"time": 939, "pitch": 57, "duration": 4, "velocity": 81}, {"time": 945, "pitch": 50, "duration": 11, "velocity": 82}, {"time": 945, "pitch": 57, "duration": 3, "velocity": 79}, {"time": 945, "pitch": 62, "duration": 8, "velocity": 81}, {"time": 951, "pitch": 57, "duration": 3, "velocity": 69}, {"time": 957, "pitch": 57, "duration": 1, "velocity": 62}, {"time": 957, "pitch": 62, "duration": 10, "velocity": 81}, {"time": 957, "pitch": 66, "duration": 8, "velocity": 73}, {"time": 963, "pitch": 33, "duration": 6, "velocity": 73}, {"time": 969, "pitch": 38, "duration": 19, "velocity": 81}, {"time": 969, "pitch": 57, "duration": 4, "velocity": 74}, {"time": 969, "pitch": 62, "duration": 10, "velocity": 80}, {"time": 969, "pitch": 66, "duration": 10, "velocity": 77}, {"time": 975, "pitch": 57, "duration": 4, "velocity": 73}, {"time": 981, "pitch": 57, "duration": 4, "velocity": 81}, {"time": 981, "pitch": 62, "duration": 11, "velocity": 85}, {"time": 981, "pitch": 66, "duration": 12, "velocity": 81}, {"time": 987, "pitch": 57, "duration": 5, "velocity": 82}, {"time": 993, "pitch": 40, "duration": 8, "velocity": 80}, {"time": 993, "pitch": 47, "duration": 8, "velocity": 79}, {"time": 993, "pitch": 68, "duration": 6, "velocity": 77}, {"time": 999, "pitch": 64, "duration": 5, "velocity": 76}, {"time": 1005, "pitch": 40, "duration": 7, "velocity": 77}, {"time": 1005, "pitch": 47, "duration": 7, "velocity": 75}, {"time": 1005, "pitch": 64, "duration": 4, "velocity": 81}, {"time": 1005, "pitch": 68, "duration": 6, "velocity": 76}, {"time": 1011, "pitch": 64, "duration": 4, "velocity": 80}, {"time": 1017, "pitch": 40, "duration": 8, "velocity": 72}, {"time": 1017, "pitch": 47, "duration": 7, "velocity": 71}, {"time": 1017, "pitch": 64, "duration": 3, "velocity": 76}, {"time": 1017, "pitch": 68, "duration": 7, "velocity": 71}, {"time": 1023, "pitch": 64, "duration": 3, "velocity": 76}, {"time": 1029, "pitch": 40, "duration": 10, "velocity": 79}, {"time": 1029, "pitch": 47, "duration": 9, "velocity": 73}, {"time": 1029, "pitch": 64, "duration": 3, "velocity": 80}, {"time": 1029, "pitch": 68, "duration": 7, "velocity": 74}, {"time": 1035, "pitch": 64, "duration": 5, "velocity": 82}, {"time": 1041, "pitch": 38, "duration": 8, "velocity": 76}, {"time": 1041, "pitch": 45, "duration": 8, "velocity": 74}, {"time": 1041, "pitch": 60, "duration": 6, "velocity": 80}, {"time": 1047, "pitch": 57, "duration": 5, "velocity": 79}, {"time": 1053, "pitch": 38, "duration": 9, "velocity": 86}, {"time": 1053, "pitch": 45, "duration": 9, "velocity": 80}, {"time": 1053, "pitch": 57, "duration": 4, "velocity": 79}, {"time": 1053, "pitch": 60, "duration": 7, "velocity": 76}, {"time": 1059, "pitch": 57, "duration": 4, "velocity": 78}, {"time": 1065, "pitch": 38, "duration": 10, "velocity": 81}, {"time": 1065, "pitch": 45, "duration": 10, "velocity": 75}, {"time": 1065, "pitch": 57, "duration": 4, "velocity": 79}, {"time": 1065, "pitch": 60, "duration": 8, "velocity": 82}, {"time": 1071, "pitch": 57, "duration": 4, "velocity": 70}, {"time": 1077, "pitch": 38, "duration": 11, "velocity": 78}, {"time": 1077, "pitch": 45, "duration": 11, "velocity": 75}, {"time": 1077, "pitch": 57, "duration": 3, "velocity": 79}, {"time": 1077, "pitch": 60, "duration": 8, "velocity": 76}, {"time": 1083, "pitch": 57, "duration": 4, "velocity": 81}, {"time": 1089, "pitch": 47, "duration": 9, "velocity": 80}, {"time": 1089, "pitch": 54, "duration": 9, "velocity": 74}, {"time": 1089, "pitch": 57, "duration": 4, "velocity": 74}, {"time": 1089, "pitch": 63, "duration": 8, "velocity": 74}, {"time": 1095, "pitch": 57, "duration": 3, "velocity": 71}, {"time": 1101, "pitch": 47, "duration": 9, "velocity": 80}, {"time": 1101, "pitch": 54, "duration": 9, "velocity": 73}, {"time": 1101, "pitch": 57, "duration": 5, "velocity": 79}, {"time": 1101, "pitch": 63, "duration": 8, "velocity": 74}, {"time": 1107, "pitch": 57, "duration": 4, "velocity": 72}, {"time": 1113, "pitch": 47, "duration": 10, "velocity": 80}, {"time": 1113, "pitch": 54, "duration": 10, "velocity": 75}, {"time": 1113, "pitch": 57, "duration": 4, "velocity": 77}, {"time": 1113, "pitch": 63, "duration": 9, "velocity": 74}, {"time": 1119, "pitch": 57, "duration": 4, "velocity": 66}, {"time": 1125, "pitch": 47, "duration": 12, "velocity": 82}, {"time": 1125, "pitch": 54, "duration": 12, "velocity": 80}, {"time": 1125, "pitch": 57, "duration": 3, "velocity": 79}, {"time": 1125, "pitch": 63, "duration": 12, "velocity": 74}, {"time": 1131, "pitch": 57, "duration": 6, "velocity": 80}, {"time": 1137, "pitch": 42, "duration": 6, "velocity": 91}, {"time": 1137, "pitch": 54, "duration": 3, "velocity": 83}, {"time": 1137, "pitch": 66, "duration": 5, "velocity": 69}, {"time": 1140, "pitch": 54, "duration": 2, "velocity": 67}, {"time": 1143, "pitch": 42, "duration": 2, "velocity": 76}, {"time": 1143, "pitch": 54, "duration": 2, "velocity": 87}, {"time": 1143, "pitch": 66, "duration": 2, "velocity": 75}, {"time": 1146, "pitch": 44, "duration": 6, "velocity": 96}, {"time": 1146, "pitch": 56, "duration": 6, "velocity": 91}, {"time": 1146, "pitch": 68, "duration": 6, "velocity": 81}, {"time": 1155, "pitch": 45, "duration": 4, "velocity": 82}, {"time": 1155, "pitch": 57, "duration": 4, "velocity": 78}, {"time": 1155, "pitch": 69, "duration": 3, "velocity": 82}, {"time": 1164, "pitch": 48, "duration": 11, "velocity": 82}, {"time": 1164, "pitch": 57, "duration": 11, "velocity": 75}, {"time": 1164, "pitch": 60, "duration": 11, "velocity": 84}, {"time": 1164, "pitch": 67, "duration": 11, "velocity": 84}, {"time": 1173, "pitch": 47, "duration": 11, "velocity": 85}, {"time": 1173, "pitch": 59, "duration": 11, "velocity": 85}, {"time": 1173, "pitch": 66, "duration": 11, "velocity": 85}, {"time": 1185, "pitch": 47, "duration": 9, "velocity": 80}, {"time": 1185, "pitch": 63, "duration": 8, "velocity": 68}, {"time": 1185, "pitch": 69, "duration": 8, "velocity": 78}, {"time": 1191, "pitch": 59, "duration": 4, "velocity": 75}, {"time": 1197, "pitch": 47, "duration": 7, "velocity": 75}, {"time": 1197, "pitch": 54, "duration": 6, "velocity": 70}, {"time": 1197, "pitch": 63, "duration": 7, "velocity": 73}, {"time": 1197, "pitch": 69, "duration": 8, "velocity": 76}, {"time": 1203, "pitch": 59, "duration": 7, "velocity": 74}, {"time": 1209, "pitch": 47, "duration": 8, "velocity": 73}, {"time": 1209, "pitch": 54, "duration": 8, "velocity": 69}, {"time": 1209, "pitch": 63, "duration": 8, "velocity": 79}, {"time": 1209, "pitch": 69, "duration": 8, "velocity": 79}, {"time": 1215, "pitch": 59, "duration": 3, "velocity": 69}, {"time": 1221, "pitch": 47, "duration": 9, "velocity": 73}, {"time": 1221, "pitch": 54, "duration": 8, "velocity": 68}, {"time": 1221, "pitch": 59, "duration": 3, "velocity": 80}, {"time": 1221, "pitch": 63, "duration": 7, "velocity": 74}, {"time": 1221, "pitch": 69, "duration": 9, "velocity": 79}, {"time": 1227, "pitch": 59, "duration": 3, "velocity": 84}, {"time": 1233, "pitch": 50, "duration": 9, "velocity": 91}, {"time": 1233, "pitch": 57, "duration": 3, "velocity": 73}, {"time": 1233, "pitch": 60, "duration": 9, "velocity": 76}, {"time": 1233, "pitch": 66, "duration": 8, "velocity": 72}, {"time": 1239, "pitch": 57, "duration": 7, "velocity": 75}, {"time": 1245, "pitch": 50, "duration": 7, "velocity": 86}, {"time": 1245, "pitch": 60, "duration": 10, "velocity": 82}, {"time": 1245, "pitch": 66, "duration": 10, "velocity": 80}, {"time": 1251, "pitch": 45, "duration": 6, "velocity": 81}, {"time": 1251, "pitch": 57, "duration": 8, "velocity": 72}, {"time": 1257, "pitch": 50, "duration": 11, "velocity": 85}, {"time": 1257, "pitch": 60, "duration": 9, "velocity": 76}, {"time": 1257, "pitch": 66, "duration": 10, "velocity": 76}, {"time": 1269, "pitch": 50, "duration": 12, "velocity": 89}, {"time": 1269, "pitch": 60, "duration": 11, "velocity": 83}, {"time": 1269, "pitch": 66, "duration": 11, "velocity": 81}, {"time": 1275, "pitch": 57, "duration": 5, "velocity": 82}, {"time": 1281, "pitch": 41, "duration": 10, "velocity": 81}, {"time": 1281, "pitch": 57, "duration": 7, "velocity": 73}, {"time": 1281, "pitch": 60, "duration": 7, "velocity": 75}, {"time": 1281, "pitch": 63, "duration": 8, "velocity": 74}, {"time": 1287, "pitch": 53, "duration": 7, "velocity": 75}, {"time": 1293, "pitch": 41, "duration": 9, "velocity": 80}, {"time": 1293, "pitch": 57, "duration": 7, "velocity": 74}, {"time": 1293, "pitch": 60, "duration": 8, "velocity": 74}, {"time": 1293, "pitch": 63, "duration": 8, "velocity": 72}, {"time": 1299, "pitch": 53, "duration": 7, "velocity": 80}, {"time": 1305, "pitch": 41, "duration": 9, "velocity": 80}, {"time": 1305, "pitch": 57, "duration": 7, "velocity": 70}, {"time": 1305, "pitch": 60, "duration": 8, "velocity": 75}, {"time": 1305, "pitch": 63, "duration": 8, "velocity": 70}, {"time": 1311, "pitch": 53, "duration": 7, "velocity": 80}, {"time": 1317, "pitch": 41, "duration": 5, "velocity": 80}, {"time": 1317, "pitch": 57, "duration": 6, "velocity": 75}, {"time": 1317, "pitch": 60, "duration": 6, "velocity": 76}, {"time": 1317, "pitch": 63, "duration": 7, "velocity": 73}, {"time": 1323, "pitch": 53, "duration": 5, "velocity": 81}, {"time": 1335, "pitch": 40, "duration": 2, "velocity": 82}, {"time": 1335, "pitch": 52, "duration": 3, "velocity": 80}, {"time": 1335, "pitch": 56, "duration": 3, "velocity": 71}, {"time": 1335, "pitch": 59, "duration": 3, "velocity": 76}, {"time": 1341, "pitch": 40, "duration": 2, "velocity": 81}, {"time": 1341, "pitch": 52, "duration": 2, "velocity": 81}, {"time": 1341, "pitch": 56, "duration": 2, "velocity": 76}, {"time": 1341, "pitch": 59, "duration": 2, "velocity": 81}, {"time": 1347, "pitch": 40, "duration": 2, "velocity": 82}, {"time": 1347, "pitch": 52, "duration": 2, "velocity": 80}, {"time": 1347, "pitch": 56, "duration": 2, "velocity": 72}, {"time": 1347, "pitch": 59, "duration": 2, "velocity": 80}, {"time": 1353, "pitch": 40, "duration": 3, "velocity": 84}, {"time": 1353, "pitch": 52, "duration": 2, "velocity": 81}, {"time": 1353, "pitch": 56, "duration": 2, "velocity": 73}, {"time": 1353, "pitch": 59, "duration": 3, "velocity": 80}, {"time": 1359, "pitch": 40, "duration": 2, "velocity": 82}, {"time": 1359, "pitch": 52, "duration": 2, "velocity": 80}, {"time": 1359, "pitch": 56, "duration": 2, "velocity": 71}, {"time": 1359, "pitch": 59, "duration": 2, "velocity": 79}, {"time": 1365, "pitch": 40, "duration": 3, "velocity": 87}, {"time": 1365, "pitch": 52, "duration": 3, "velocity": 82}, {"time": 1365, "pitch": 56, "duration": 3, "velocity": 82}, {"time": 1365, "pitch": 59, "duration": 3, "velocity": 84}, {"time": 1365, "pitch": 64, "duration": 3, "velocity": 87}, {"time": 1371, "pitch": 40, "duration": 2, "velocity": 84}, {"time": 1371, "pitch": 52, "duration": 2, "velocity": 82}, {"time": 1371, "pitch": 56, "duration": 2, "velocity": 81}, {"time": 1371, "pitch": 59, "duration": 2, "velocity": 81}, {"time": 1371, "pitch": 64, "duration": 2, "velocity": 81}, {"time": 1377, "pitch": 45, "duration": 14, "velocity": 81}, {"time": 1377, "pitch": 57, "duration": 5, "velocity": 73}, {"time": 1377, "pitch": 61, "duration": 5, "velocity": 75}, {"time": 1377, "pitch": 64, "duration": 6, "velocity": 83}, {"time": 1383, "pitch": 52, "duration": 7, "velocity": 66}, {"time": 1389, "pitch": 57, "duration": 2, "velocity": 80}, {"time": 1389, "pitch": 61, "duration": 2, "velocity": 85}, {"time": 1389, "pitch": 64, "duration": 3, "velocity": 85}, {"time": 1398, "pitch": 57, "duration": 3, "velocity": 80}, {"time": 1398, "pitch": 64, "duration": 3, "velocity": 82}, {"time": 1401, "pitch": 45, "duration": 5, "velocity": 78}, {"time": 1404, "pitch": 57, "duration": 3, "velocity": 76}, {"time": 1404, "pitch": 61, "duration": 3, "velocity": 87}, {"time": 1407, "pitch": 52, "duration": 5, "velocity": 81}, {"time": 1410, "pitch": 57, "duration": 2, "velocity": 81}, {"time": 1413, "pitch": 57, "duration": 4, "velocity": 82}, {"time": 1413, "pitch": 64, "duration": 5, "velocity": 82}, {"time": 1416, "pitch": 52, "duration": 2, "velocity": 79}, {"time": 1419, "pitch": 57, "duration": 3, "velocity": 82}, {"time": 1425, "pitch": 37, "duration": 2, "velocity": 80}, {"time": 1425, "pitch": 56, "duration": 3, "velocity": 76}, {"time": 1425, "pitch": 61, "duration": 7, "velocity": 81}, {"time": 1425, "pitch": 64, "duration": 9, "velocity": 82}, {"time": 1431, "pitch": 56, "duration": 5, "velocity": 71}, {"time": 1437, "pitch": 49, "duration": 1, "velocity": 89}, {"time": 1437, "pitch": 56, "duration": 2, "velocity": 77}, {"time": 1437, "pitch": 61, "duration": 3, "velocity": 76}, {"time": 1437, "pitch": 64, "duration": 3, "velocity": 83}, {"time": 1446, "pitch": 56, "duration": 5, "velocity": 78}, {"time": 1446, "pitch": 61, "duration": 7, "velocity": 79}, {"time": 1446, "pitch": 64, "duration": 7, "velocity": 82}, {"time": 1449, "pitch": 49, "duration": 3, "velocity": 82}, {"time": 1452, "pitch": 56, "duration": 2, "velocity": 83}, {"time": 1458, "pitch": 56, "duration": 3, "velocity": 78}, {"time": 1461, "pitch": 44, "duration": 2, "velocity": 81}, {"time": 1461, "pitch": 56, "duration": 2, "velocity": 71}, {"time": 1461, "pitch": 61, "duration": 2, "velocity": 82}, {"time": 1461, "pitch": 64, "duration": 3, "velocity": 81}, {"time": 1464, "pitch": 56, "duration": 4, "velocity": 81}, {"time": 1467, "pitch": 49, "duration": 2, "velocity": 84}, {"time": 1467, "pitch": 61, "duration": 4, "velocity": 83}, {"time": 1467, "pitch": 64, "duration": 4, "velocity": 83}, {"time": 1470, "pitch": 56, "duration": 3, "velocity": 80}, {"time": 1473, "pitch": 42, "duration": 13, "velocity": 83}, {"time": 1473, "pitch": 57, "duration": 9, "velocity": 74}, {"time": 1473, "pitch": 61, "duration": 9, "velocity": 80}, {"time": 1479, "pitch": 49, "duration": 8, "velocity": 69}, {"time": 1485, "pitch": 57, "duration": 6, "velocity": 80}, {"time": 1485, "pitch": 61, "duration": 6, "velocity": 85}, {"time": 1485, "pitch": 66, "duration": 5, "velocity": 78}, {"time": 1494, "pitch": 57, "duration": 3, "velocity": 77}, {"time": 1494, "pitch": 61, "duration": 3, "velocity": 84}, {"time": 1494, "pitch": 66, "duration": 3, "velocity": 81}, {"time": 1497, "pitch": 42, "duration": 2, "velocity": 81}, {"time": 1500, "pitch": 57, "duration": 2, "velocity": 73}, {"time": 1500, "pitch": 61, "duration": 3, "velocity": 84}, {"time": 1503, "pitch": 49, "duration": 2, "velocity": 81}, {"time": 1506, "pitch": 57, "duration": 2, "velocity": 73}, {"time": 1509, "pitch": 42, "duration": 5, "velocity": 85}, {"time": 1509, "pitch": 49, "duration": 5, "velocity": 83}, {"time": 1509, "pitch": 57, "duration": 4, "velocity": 82}, {"time": 1509, "pitch": 61, "duration": 7, "velocity": 91}, {"time": 1509, "pitch": 66, "duration": 7, "velocity": 81}, {"time": 1515, "pitch": 57, "duration": 3, "velocity": 83}, {"time": 1521, "pitch": 40, "duration": 7, "velocity": 87}, {"time": 1521, "pitch": 59, "duration": 4, "velocity": 76}, {"time": 1521, "pitch": 64, "duration": 7, "velocity": 81}, {"time": 1527, "pitch": 59, "duration": 3, "velocity": 81}, {"time": 1533, "pitch": 59, "duration": 6, "velocity": 82}, {"time": 1533, "pitch": 64, "duration": 5, "velocity": 86}, {"time": 1533, "pitch": 68, "duration": 6, "velocity": 82}, {"time": 1542, "pitch": 59, "duration": 4, "velocity": 83}, {"time": 1542, "pitch": 64, "duration": 4, "velocity": 85}, {"time": 1542, "pitch": 68, "duration": 5, "velocity": 82}, {"time": 1545, "pitch": 40, "duration": 4, "velocity": 82}, {"time": 1548, "pitch": 59, "duration": 1, "velocity": 80}, {"time": 1548, "pitch": 64, "duration": 5, "velocity": 82}, {"time": 1551, "pitch": 59, "duration": 5, "velocity": 89}, {"time": 1554, "pitch": 64, "duration": 1, "velocity": 76}, {"time": 1557, "pitch": 40, "duration": 2, "velocity": 85}, {"time": 1557, "pitch": 47, "duration": 2, "velocity": 81}, {"time": 1557, "pitch": 59, "duration": 2, "velocity": 85}, {"time": 1557, "pitch": 64, "duration": 3, "velocity": 89}, {"time": 1557, "pitch": 68, "duration": 4, "velocity": 89}, {"time": 1560, "pitch": 40, "duration": 2, "velocity": 76}, {"time": 1560, "pitch": 47, "duration": 1, "velocity": 74}, {"time": 1563, "pitch": 59, "duration": 2, "velocity": 82}, {"time": 1563, "pitch": 64, "duration": 6, "velocity": 83}, {"time": 1563, "pitch": 68, "duration": 5, "velocity": 80}, {"time": 1566, "pitch": 59, "duration": 3, "velocity": 81}, {"time": 1569, "pitch": 37, "duration": 3, "velocity": 82}, {"time": 1569, "pitch": 56, "duration": 3, "velocity": 74}, {"time": 1569, "pitch": 61, "duration": 2, "velocity": 75}, {"time": 1569, "pitch": 65, "duration": 3, "velocity": 80}, {"time": 1575, "pitch": 37, "duration": 3, "velocity": 68}, {"time": 1575, "pitch": 56, "duration": 3, "velocity": 68}, {"time": 1575, "pitch": 61, "duration": 3, "velocity": 69}, {"time": 1575, "pitch": 65, "duration": 3, "velocity": 79}, {"time": 1581, "pitch": 37, "duration": 4, "velocity": 86}, {"time": 1581, "pitch": 56, "duration": 2, "velocity": 76}, {"time": 1581, "pitch": 61, "duration": 2, "velocity": 81}, {"time": 1581, "pitch": 65, "duration": 2, "velocity": 81}, {"time": 1587, "pitch": 37, "duration": 2, "velocity": 78}, {"time": 1587, "pitch": 56, "duration": 2, "velocity": 73}, {"time": 1587, "pitch": 61, "duration": 2, "velocity": 78}, {"time": 1590, "pitch": 56, "duration": 2, "velocity": 80}, {"time": 1593, "pitch": 37, "duration": 2, "velocity": 80}, {"time": 1593, "pitch": 56, "duration": 1, "velocity": 73}, {"time": 1593, "pitch": 61, "duration": 3, "velocity": 86}, {"time": 1593, "pitch": 65, "duration": 4, "velocity": 80}, {"time": 1599, "pitch": 61, "duration": 2, "velocity": 73}, {"time": 1599, "pitch": 65, "duration": 2, "velocity": 78}, {"time": 1602, "pitch": 56, "duration": 2, "velocity": 75}, {"time": 1605, "pitch": 37, "duration": 4, "velocity": 82}, {"time": 1605, "pitch": 56, "duration": 4, "velocity": 83}, {"time": 1605, "pitch": 61, "duration": 5, "velocity": 81}, {"time": 1605, "pitch": 65, "duration": 5, "velocity": 81}, {"time": 1611, "pitch": 37, "duration": 6, "velocity": 80}, {"time": 1611, "pitch": 56, "duration": 5, "velocity": 81}, {"time": 1611, "pitch": 61, "duration": 6, "velocity": 74}, {"time": 1611, "pitch": 65, "duration": 6, "velocity": 81}, {"time": 1617, "pitch": 42, "duration": 6, "velocity": 85}, {"time": 1617, "pitch": 57, "duration": 3, "velocity": 79}, {"time": 1617, "pitch": 61, "duration": 7, "velocity": 82}, {"time": 1617, "pitch": 66, "duration": 7, "velocity": 77}, {"time": 1623, "pitch": 57, "duration": 2, "velocity": 75}, {"time": 1629, "pitch": 40, "duration": 9, "velocity": 84}, {"time": 1629, "pitch": 59, "duration": 3, "velocity": 76}, {"time": 1629, "pitch": 64, "duration": 7, "velocity": 80}, {"time": 1629, "pitch": 68, "duration": 7, "velocity": 76}, {"time": 1635, "pitch": 59, "duration": 4, "velocity": 80}, {"time": 1641, "pitch": 38, "duration": 10, "velocity": 77}, {"time": 1641, "pitch": 57, "duration": 4, "velocity": 80}, {"time": 1641, "pitch": 62, "duration": 9, "velocity": 73}, {"time": 1647, "pitch": 57, "duration": 4, "velocity": 81}, {"time": 1653, "pitch": 37, "duration": 12, "velocity": 81}, {"time": 1653, "pitch": 56, "duration": 3, "velocity": 75}, {"time": 1653, "pitch": 61, "duration": 11, "velocity": 78}, {"time": 1653, "pitch": 64, "duration": 11, "velocity": 84}, {"time": 1659, "pitch": 56, "duration": 6, "velocity": 81}, {"time": 1665, "pitch": 38, "duration": 9, "velocity": 84}, {"time": 1665, "pitch": 57, "duration": 3, "velocity": 80}, {"time": 1665, "pitch": 62, "duration": 8, "velocity": 81}, {"time": 1665, "pitch": 66, "duration": 8, "velocity": 76}, {"time": 1671, "pitch": 57, "duration": 3, "velocity": 75}, {"time": 1677, "pitch": 57, "duration": 2, "velocity": 82}, {"time": 1677, "pitch": 62, "duration": 4, "velocity": 86}, {"time": 1677, "pitch": 66, "duration": 8, "velocity": 82}, {"time": 1683, "pitch": 57, "duration": 4, "velocity": 84}, {"time": 1683, "pitch": 62, "duration": 2, "velocity": 44}, {"time": 1689, "pitch": 38, "duration": 8, "velocity": 86}, {"time": 1689, "pitch": 57, "duration": 3, "velocity": 81}, {"time": 1689, "pitch": 62, "duration": 8, "velocity": 82}, {"time": 1689, "pitch": 66, "duration": 8, "velocity": 80}, {"time": 1695, "pitch": 57, "duration": 4, "velocity": 73}, {"time": 1701, "pitch": 38, "duration": 4, "velocity": 83}, {"time": 1701, "pitch": 50, "duration": 3, "velocity": 80}, {"time": 1701, "pitch": 54, "duration": 3, "velocity": 71}, {"time": 1701, "pitch": 57, "duration": 3, "velocity": 75}, {"time": 1707, "pitch": 40, "duration": 21, "velocity": 89}, {"time": 1707, "pitch": 52, "duration": 9, "velocity": 81}, {"time": 1707, "pitch": 56, "duration": 9, "velocity": 76}, {"time": 1713, "pitch": 47, "duration": 14, "velocity": 74}, {"time": 1719, "pitch": 52, "duration": 2, "velocity": 72}, {"time": 1719, "pitch": 56, "duration": 2, "velocity": 51}, {"time": 1719, "pitch": 59, "duration": 3, "velocity": 71}, {"time": 1725, "pitch": 52, "duration": 2, "velocity": 85}, {"time": 1725, "pitch": 56, "duration": 2, "velocity": 85}, {"time": 1725, "pitch": 59, "duration": 2, "velocity": 89}, {"time": 1725, "pitch": 64, "duration": 3, "velocity": 85}, {"time": 1731, "pitch": 47, "duration": 2, "velocity": 51}, {"time": 1734, "pitch": 52, "duration": 2, "velocity": 81}, {"time": 1737, "pitch": 40, "duration": 23, "velocity": 82}, {"time": 1737, "pitch": 52, "duration": 10, "velocity": 82}, {"time": 1737, "pitch": 56, "duration": 10, "velocity": 76}, {"time": 1737, "pitch": 59, "duration": 10, "velocity": 76}, {"time": 1737, "pitch": 64, "duration": 10, "velocity": 81}, {"time": 1749, "pitch": 47, "duration": 4, "velocity": 75}, {"time": 1749, "pitch": 52, "duration": 2, "velocity": 82}, {"time": 1749, "pitch": 56, "duration": 6, "velocity": 79}, {"time": 1749, "pitch": 59, "duration": 7, "velocity": 80}, {"time": 1749, "pitch": 64, "duration": 6, "velocity": 81}, {"time": 1752, "pitch": 52, "duration": 4, "velocity": 87}, {"time": 1755, "pitch": 47, "duration": 6, "velocity": 82}, {"time": 1758, "pitch": 52, "duration": 3, "velocity": 89}, {"time": 1761, "pitch": 45, "duration": 14, "velocity": 81}, {"time": 1761, "pitch": 57, "duration": 5, "velocity": 73}, {"time": 1761, "pitch": 61, "duration": 5, "velocity": 75}, {"time": 1761, "pitch": 64, "duration": 6, "velocity": 83}, {"time": 1767, "pitch": 52, "duration": 7, "velocity": 66}, {"time": 1773, "pitch": 57, "duration": 2, "velocity": 80}, {"time": 1773, "pitch": 61, "duration": 2, "velocity": 85}, {"time": 1773, "pitch": 64, "duration": 3, "velocity": 85}, {"time": 1782, "pitch": 57, "duration": 3, "velocity": 80}, {"time": 1782, "pitch": 64, "duration": 3, "velocity": 82}, {"time": 1785, "pitch": 45, "duration": 5, "velocity": 78}, {"time": 1788, "pitch": 57, "duration": 3, "velocity": 76}, {"time": 1788, "pitch": 61, "duration": 3, "velocity": 87}, {"time": 1791, "pitch": 52, "duration": 5, "velocity": 81}, {"time": 1794, "pitch": 57, "duration": 2, "velocity": 81}, {"time": 1797, "pitch": 57, "duration": 4, "velocity": 82}, {"time": 1797, "pitch": 64, "duration": 5, "velocity": 82}, {"time": 1800, "pitch": 52, "duration": 2, "velocity": 79}, {"time": 1803, "pitch": 57, "duration": 3, "velocity": 82}, {"time": 1809, "pitch": 37, "duration": 2, "velocity": 80}, {"time": 1809, "pitch": 56, "duration": 3, "velocity": 76}, {"time": 1809, "pitch": 61, "duration": 7, "velocity": 81}, {"time": 1809, "pitch": 64, "duration": 9, "velocity": 82}, {"time": 1815, "pitch": 56, "duration": 5, "velocity": 71}, {"time": 1821, "pitch": 49, "duration": 1, "velocity": 89}, {"time": 1821, "pitch": 56, "duration": 2, "velocity": 77}, {"time": 1821, "pitch": 61, "duration": 3, "velocity": 76}, {"time": 1821, "pitch": 64, "duration": 3, "velocity": 83}, {"time": 1830, "pitch": 56, "duration": 5, "velocity": 78}, {"time": 1830, "pitch": 61, "duration": 7, "velocity": 79}, {"time": 1830, "pitch": 64, "duration": 7, "velocity": 82}, {"time": 1833, "pitch": 49, "duration": 3, "velocity": 82}, {"time": 1836, "pitch": 56, "duration": 2, "velocity": 83}, {"time": 1842, "pitch": 56, "duration": 3, "velocity": 78}, {"time": 1845, "pitch": 44, "duration": 2, "velocity": 81}, {"time": 1845, "pitch": 56, "duration": 2, "velocity": 71}, {"time": 1845, "pitch": 61, "duration": 2, "velocity": 82}, {"time": 1845, "pitch": 64, "duration": 3, "velocity": 81}, {"time": 1848, "pitch": 56, "duration": 4, "velocity": 81}, {"time": 1851, "pitch": 49, "duration": 2, "velocity": 84}, {"time": 1851, "pitch": 61, "duration": 4, "velocity": 83}, {"time": 1851, "pitch": 64, "duration": 4, "velocity": 83}, {"time": 1854, "pitch": 56, "duration": 3, "velocity": 80}, {"time": 1857, "pitch": 42, "duration": 13, "velocity": 83}, {"time": 1857, "pitch": 57, "duration": 9, "velocity": 74}, {"time": 1857, "pitch": 61, "duration": 9, "velocity": 80}, {"time": 1863, "pitch": 49, "duration": 8, "velocity": 69}, {"time": 1869, "pitch": 57, "duration": 6, "velocity": 80}, {"time": 1869, "pitch": 61, "duration": 6, "velocity": 85}, {"time": 1869, "pitch": 66, "duration": 5, "velocity": 78}, {"time": 1878, "pitch": 57, "duration": 3, "velocity": 77}, {"time": 1878, "pitch": 61, "duration": 3, "velocity": 84}, {"time": 1878, "pitch": 66, "duration": 3, "velocity": 81}, {"time": 1881, "pitch": 42, "duration": 2, "velocity": 81}, {"time": 1884, "pitch": 57, "duration": 2, "velocity": 73}, {"time": 1884, "pitch": 61, "duration": 3, "velocity": 84}, {"time": 1887, "pitch": 49, "duration": 2, "velocity": 81}, {"time": 1890, "pitch": 57, "duration": 2, "velocity": 73}, {"time": 1893, "pitch": 42, "duration": 5, "velocity": 85}, {"time": 1893, "pitch": 49, "duration": 5, "velocity": 83}, {"time": 1893, "pitch": 57, "duration": 4, "velocity": 82}, {"time": 1893, "pitch": 61, "duration": 7, "velocity": 91}, {"time": 1893, "pitch": 66, "duration": 7, "velocity": 81}, {"time": 1899, "pitch": 57, "duration": 3, "velocity": 83}, {"time": 1905, "pitch": 40, "duration": 7, "velocity": 87}, {"time": 1905, "pitch": 59, "duration": 4, "velocity": 76}, {"time": 1905, "pitch": 64, "duration": 7, "velocity": 81}, {"time": 1911, "pitch": 59, "duration": 3, "velocity": 81}, {"time": 1917, "pitch": 59, "duration": 6, "velocity": 82}, {"time": 1917, "pitch": 64, "duration": 5, "velocity": 86}, {"time": 1917, "pitch": 68, "duration": 6, "velocity": 82}, {"time": 1926, "pitch": 59, "duration": 4, "velocity": 83}, {"time": 1926, "pitch": 64, "duration": 4, "velocity": 85}, {"time": 1926, "pitch": 68, "duration": 5, "velocity": 82}, {"time": 1929, "pitch": 40, "duration": 4, "velocity": 82}, {"time": 1932, "pitch": 59, "duration": 1, "velocity": 80}, {"time": 1932, "pitch": 64, "duration": 5, "velocity": 82}, {"time": 1935, "pitch": 59, "duration": 5, "velocity": 89}, {"time": 1938, "pitch": 64, "duration": 1, "velocity": 76}, {"time": 1941, "pitch": 40, "duration": 2, "velocity": 85}, {"time": 1941, "pitch": 47, "duration": 2, "velocity": 81}, {"time": 1941, "pitch": 59, "duration": 2, "velocity": 85}, {"time": 1941, "pitch": 64, "duration": 3, "velocity": 89}, {"time": 1941, "pitch": 68, "duration": 4, "velocity": 89}, {"time": 1944, "pitch": 40, "duration": 2, "velocity": 76}, {"time": 1944, "pitch": 47, "duration": 1, "velocity": 74}, {"time": 1947, "pitch": 59, "duration": 2, "velocity": 82}, {"time": 1947, "pitch": 64, "duration": 6, "velocity": 83}, {"time": 1947, "pitch": 68, "duration": 5, "velocity": 80}, {"time": 1950, "pitch": 59, "duration": 3, "velocity": 81}, {"time": 1953, "pitch": 37, "duration": 3, "velocity": 82}, {"time": 1953, "pitch": 56, "duration": 3, "velocity": 74}, {"time": 1953, "pitch": 61, "duration": 2, "velocity": 75}, {"time": 1953, "pitch": 65, "duration": 3, "velocity": 80}, {"time": 1959, "pitch": 37, "duration": 3, "velocity": 68}, {"time": 1959, "pitch": 56, "duration": 3, "velocity": 68}, {"time": 1959, "pitch": 61, "duration": 3, "velocity": 69}, {"time": 1959, "pitch": 65, "duration": 3, "velocity": 79}, {"time": 1965, "pitch": 37, "duration": 4, "velocity": 86}, {"time": 1965, "pitch": 56, "duration": 2, "velocity": 76}, {"time": 1965, "pitch": 61, "duration": 2, "velocity": 81}, {"time": 1965, "pitch": 65, "duration": 2, "velocity": 81}, {"time": 1971, "pitch": 37, "duration": 2, "velocity": 78}, {"time": 1971, "pitch": 56, "duration": 2, "velocity": 73}, {"time": 1971, "pitch": 61, "duration": 2, "velocity": 78}, {"time": 1974, "pitch": 56, "duration": 2, "velocity": 80}, {"time": 1977, "pitch": 37, "duration": 2, "velocity": 80}, {"time": 1977, "pitch": 56, "duration": 1, "velocity": 73}, {"time": 1977, "pitch": 61, "duration": 3, "velocity": 86}, {"time": 1977, "pitch": 65, "duration": 4, "velocity": 80}, {"time": 1983, "pitch": 61, "duration": 2, "velocity": 73}, {"time": 1983, "pitch": 65, "duration": 2, "velocity": 78}, {"time": 1986, "pitch": 56, "duration": 2, "velocity": 75}, {"time": 1989, "pitch": 37, "duration": 4, "velocity": 82}, {"time": 1989, "pitch": 56, "duration": 4, "velocity": 83}, {"time": 1989, "pitch": 61, "duration": 5, "velocity": 81}, {"time": 1989, "pitch": 65, "duration": 5, "velocity": 81}, {"time": 1995, "pitch": 37, "duration": 6, "velocity": 80}, {"time": 1995, "pitch": 56, "duration": 5, "velocity": 81}, {"time": 1995, "pitch": 61, "duration": 6, "velocity": 74}, {"time": 1995, "pitch": 65, "duration": 6, "velocity": 81}, {"time": 2001, "pitch": 42, "duration": 6, "velocity": 85}, {"time": 2001, "pitch": 57, "duration": 3, "velocity": 79}, {"time": 2001, "pitch": 61, "duration": 7, "velocity": 82}, {"time": 2001, "pitch": 66, "duration": 7, "velocity": 77}, {"time": 2007, "pitch": 57, "duration": 2, "velocity": 75}, {"time": 2013, "pitch": 40, "duration": 9, "velocity": 84}, {"time": 2013, "pitch": 59, "duration": 3, "velocity": 76}, {"time": 2013, "pitch": 64, "duration": 7, "velocity": 80}, {"time": 2013, "pitch": 68, "duration": 7, "velocity": 76}, {"time": 2019, "pitch": 59, "duration": 4, "velocity": 80}, {"time": 2025, "pitch": 38, "duration": 10, "velocity": 77}, {"time": 2025, "pitch": 57, "duration": 4, "velocity": 80}, {"time": 2025, "pitch": 62, "duration": 9, "velocity": 73}, {"time": 2031, "pitch": 57, "duration": 4, "velocity": 81}, {"time": 2037, "pitch": 37, "duration": 12, "velocity": 81}, {"time": 2037, "pitch": 56, "duration": 3, "velocity": 75}, {"time": 2037, "pitch": 61, "duration": 11, "velocity": 78}, {"time": 2037, "pitch": 64, "duration": 11, "velocity": 84}, {"time": 2043, "pitch": 56, "duration": 6, "velocity": 81}, {"time": 2049, "pitch": 38, "duration": 9, "velocity": 84}, {"time": 2049, "pitch": 57, "duration": 3, "velocity": 80}, {"time": 2049, "pitch": 62, "duration": 8, "velocity": 81}, {"time": 2049, "pitch": 66, "duration": 8, "velocity": 76}, {"time": 2055, "pitch": 57, "duration": 3, "velocity": 75}, {"time": 2061, "pitch": 57, "duration": 2, "velocity": 82}, {"time": 2061, "pitch": 62, "duration": 4, "velocity": 86}, {"time": 2061, "pitch": 66, "duration": 8, "velocity": 82}, {"time": 2067, "pitch": 57, "duration": 4, "velocity": 84}, {"time": 2067, "pitch": 62, "duration": 2, "velocity": 44}, {"time": 2073, "pitch": 38, "duration": 8, "velocity": 86}, {"time": 2073, "pitch": 57, "duration": 3, "velocity": 81}, {"time": 2073, "pitch": 62, "duration": 8, "velocity": 82}, {"time": 2073, "pitch": 66, "duration": 8, "velocity": 80}, {"time": 2079, "pitch": 57, "duration": 4, "velocity": 73}, {"time": 2085, "pitch": 38, "duration": 4, "velocity": 83}, {"time": 2085, "pitch": 50, "duration": 3, "velocity": 80}, {"time": 2085, "pitch": 54, "duration": 3, "velocity": 71}, {"time": 2085, "pitch": 57, "duration": 3, "velocity": 75}, {"time": 2091, "pitch": 40, "duration": 21, "velocity": 89}, {"time": 2091, "pitch": 52, "duration": 9, "velocity": 81}, {"time": 2091, "pitch": 56, "duration": 9, "velocity": 76}, {"time": 2097, "pitch": 47, "duration": 14, "velocity": 74}, {"time": 2103, "pitch": 52, "duration": 2, "velocity": 72}, {"time": 2103, "pitch": 56, "duration": 2, "velocity": 51}, {"time": 2103, "pitch": 59, "duration": 3, "velocity": 71}, {"time": 2109, "pitch": 52, "duration": 2, "velocity": 85}, {"time": 2109, "pitch": 56, "duration": 2, "velocity": 85}, {"time": 2109, "pitch": 59, "duration": 2, "velocity": 89}, {"time": 2109, "pitch": 64, "duration": 3, "velocity": 85}, {"time": 2115, "pitch": 47, "duration": 2, "velocity": 51}, {"time": 2118, "pitch": 52, "duration": 2, "velocity": 81}, {"time": 2121, "pitch": 40, "duration": 23, "velocity": 82}, {"time": 2121, "pitch": 52, "duration": 10, "velocity": 82}, {"time": 2121, "pitch": 56, "duration": 10, "velocity": 76}, {"time": 2121, "pitch": 59, "duration": 10, "velocity": 76}, {"time": 2121, "pitch": 64, "duration": 10, "velocity": 81}, {"time": 2133, "pitch": 47, "duration": 4, "velocity": 75}, {"time": 2133, "pitch": 52, "duration": 2, "velocity": 82}, {"time": 2133, "pitch": 56, "duration": 6, "velocity": 79}, {"time": 2133, "pitch": 59, "duration": 7, "velocity": 80}, {"time": 2133, "pitch": 64, "duration": 6, "velocity": 81}, {"time": 2136, "pitch": 52, "duration": 4, "velocity": 87}, {"time": 2139, "pitch": 47, "duration": 6, "velocity": 82}, {"time": 2142, "pitch": 52, "duration": 3, "velocity": 89}, {"time": 2145, "pitch": 45, "duration": 16, "velocity": 82}, {"time": 2145, "pitch": 57, "duration": 8, "velocity": 76}, {"time": 2145, "pitch": 61, "duration": 7, "velocity": 80}, {"time": 2151, "pitch": 52, "duration": 8, "velocity": 80}, {"time": 2157, "pitch": 57, "duration": 1, "velocity": 68}, {"time": 2157, "pitch": 61, "duration": 5, "velocity": 83}, {"time": 2157, "pitch": 64, "duration": 5, "velocity": 82}, {"time": 2163, "pitch": 57, "duration": 4, "velocity": 73}, {"time": 2169, "pitch": 45, "duration": 16, "velocity": 65}, {"time": 2169, "pitch": 57, "duration": 5, "velocity": 69}, {"time": 2169, "pitch": 61, "duration": 7, "velocity": 68}, {"time": 2169, "pitch": 64, "duration": 7, "velocity": 79}, {"time": 2175, "pitch": 52, "duration": 9, "velocity": 64}, {"time": 2181, "pitch": 57, "duration": 2, "velocity": 77}, {"time": 2181, "pitch": 61, "duration": 5, "velocity": 84}, {"time": 2181, "pitch": 64, "duration": 6, "velocity": 82}, {"time": 2187, "pitch": 57, "duration": 3, "velocity": 75}, {"time": 2193, "pitch": 40, "duration": 20, "velocity": 81}, {"time": 2193, "pitch": 59, "duration": 8, "velocity": 70}, {"time": 2193, "pitch": 64, "duration": 8, "velocity": 66}, {"time": 2199, "pitch": 47, "duration": 10, "velocity": 62}, {"time": 2205, "pitch": 59, "duration": 2, "velocity": 80}, {"time": 2205, "pitch": 64, "duration": 3, "velocity": 81}, {"time": 2205, "pitch": 68, "duration": 6, "velocity": 72}, {"time": 2211, "pitch": 59, "duration": 3, "velocity": 70}, {"time": 2217, "pitch": 40, "duration": 16, "velocity": 76}, {"time": 2217, "pitch": 59, "duration": 6, "velocity": 75}, {"time": 2217, "pitch": 64, "duration": 7, "velocity": 79}, {"time": 2223, "pitch": 47, "duration": 9, "velocity": 58}, {"time": 2229, "pitch": 59, "duration": 3, "velocity": 78}, {"time": 2229, "pitch": 64, "duration": 7, "velocity": 82}, {"time": 2229, "pitch": 68, "duration": 6, "velocity": 80}, {"time": 2235, "pitch": 59, "duration": 3, "velocity": 82}, {"time": 2241, "pitch": 42, "duration": 21, "velocity": 82}, {"time": 2241, "pitch": 57, "duration": 8, "velocity": 74}, {"time": 2241, "pitch": 61, "duration": 9, "velocity": 76}, {"time": 2247, "pitch": 49, "duration": 16, "velocity": 62}, {"time": 2253, "pitch": 61, "duration": 3, "velocity": 86}, {"time": 2253, "pitch": 66, "duration": 2, "velocity": 76}, {"time": 2259, "pitch": 57, "duration": 5, "velocity": 76}, {"time": 2265, "pitch": 42, "duration": 17, "velocity": 82}, {"time": 2265, "pitch": 57, "duration": 9, "velocity": 75}, {"time": 2265, "pitch": 61, "duration": 9, "velocity": 69}, {"time": 2271, "pitch": 49, "duration": 10, "velocity": 69}, {"time": 2277, "pitch": 61, "duration": 7, "velocity": 87}, {"time": 2277, "pitch": 66, "duration": 7, "velocity": 80}, {"time": 2283, "pitch": 57, "duration": 4, "velocity": 81}, {"time": 2289, "pitch": 50, "duration": 22, "velocity": 80}, {"time": 2289, "pitch": 57, "duration": 4, "velocity": 71}, {"time": 2289, "pitch": 62, "duration": 8, "velocity": 78}, {"time": 2295, "pitch": 57, "duration": 4, "velocity": 77}, {"time": 2301, "pitch": 57, "duration": 3, "velocity": 80}, {"time": 2301, "pitch": 62, "duration": 9, "velocity": 81}, {"time": 2301, "pitch": 66, "duration": 10, "velocity": 75}, {"time": 2307, "pitch": 57, "duration": 3, "velocity": 71}, {"time": 2313, "pitch": 52, "duration": 7, "velocity": 85}, {"time": 2313, "pitch": 59, "duration": 4, "velocity": 76}, {"time": 2313, "pitch": 64, "duration": 5, "velocity": 81}, {"time": 2319, "pitch": 59, "duration": 8, "velocity": 81}, {"time": 2325, "pitch": 40, "duration": 5, "velocity": 82}, {"time": 2325, "pitch": 64, "duration": 6, "velocity": 80}, {"time": 2325, "pitch": 68, "duration": 6, "velocity": 69}, {"time": 2331, "pitch": 59, "duration": 2, "velocity": 83}, {"time": 2337, "pitch": 45, "duration": 20, "velocity": 80}, {"time": 2337, "pitch": 57, "duration": 7, "velocity": 72}, {"time": 2337, "pitch": 61, "duration": 7, "velocity": 67}, {"time": 2337, "pitch": 64, "duration": 7, "velocity": 78}, {"time": 2343, "pitch": 52, "duration": 14, "velocity": 71}, {"time": 2349, "pitch": 61, "duration": 3, "velocity": 84}, {"time": 2349, "pitch": 64, "duration": 2, "velocity": 81}, {"time": 2355, "pitch": 57, "duration": 8, "velocity": 72}, {"time": 2361, "pitch": 45, "duration": 16, "velocity": 80}, {"time": 2361, "pitch": 61, "duration": 6, "velocity": 70}, {"time": 2361, "pitch": 64, "duration": 6, "velocity": 82}, {"time": 2367, "pitch": 52, "duration": 9, "velocity": 66}, {"time": 2373, "pitch": 57, "duration": 3, "velocity": 76}, {"time": 2373, "pitch": 61, "duration": 6, "velocity": 83}, {"time": 2373, "pitch": 64, "duration": 7, "velocity": 82}, {"time": 2379, "pitch": 57, "duration": 2, "velocity": 65}, {"time": 2385, "pitch": 40, "duration": 22, "velocity": 81}, {"time": 2385, "pitch": 59, "duration": 3, "velocity": 74}, {"time": 2385, "pitch": 64, "duration": 9, "velocity": 80}, {"time": 2391, "pitch": 59, "duration": 5, "velocity": 72}, {"time": 2397, "pitch": 64, "duration": 7, "velocity": 81}, {"time": 2397, "pitch": 68, "duration": 5, "velocity": 80}, {"time": 2403, "pitch": 59, "duration": 8, "velocity": 82}, {"time": 2409, "pitch": 40, "duration": 17, "velocity": 83}, {"time": 2409, "pitch": 64, "duration": 8, "velocity": 81}, {"time": 2415, "pitch": 47, "duration": 9, "velocity": 62}, {"time": 2415, "pitch": 59, "duration": 4, "velocity": 78}, {"time": 2421, "pitch": 59, "duration": 3, "velocity": 82}, {"time": 2421, "pitch": 64, "duration": 3, "velocity": 83}, {"time": 2421, "pitch": 68, "duration": 4, "velocity": 75}, {"time": 2433, "pitch": 42, "duration": 21, "velocity": 82}, {"time": 2433, "pitch": 61, "duration": 7, "velocity": 85}, {"time": 2439, "pitch": 57, "duration": 7, "velocity": 81}, {"time": 2445, "pitch": 49, "duration": 10, "velocity": 66}, {"time": 2445, "pitch": 61, "duration": 7, "velocity": 80}, {"time": 2445, "pitch": 66, "duration": 7, "velocity": 81}, {"time": 2451, "pitch": 57, "duration": 8, "velocity": 80}, {"time": 2457, "pitch": 42, "duration": 9, "velocity": 74}, {"time": 2457, "pitch": 61, "duration": 7, "velocity": 80}, {"time": 2463, "pitch": 57, "duration": 3, "velocity": 75}, {"time": 2469, "pitch": 61, "duration": 7, "velocity": 82}, {"time": 2469, "pitch": 66, "duration": 7, "velocity": 81}, {"time": 2475, "pitch": 57, "duration": 4, "velocity": 81}, {"time": 2481, "pitch": 50, "duration": 11, "velocity": 82}, {"time": 2481, "pitch": 57, "duration": 3, "velocity": 79}, {"time": 2481, "pitch": 62, "duration": 8, "velocity": 81}, {"time": 2487, "pitch": 57, "duration": 3, "velocity": 69}, {"time": 2493, "pitch": 57, "duration": 1, "velocity": 62}, {"time": 2493, "pitch": 62, "duration": 10, "velocity": 81}, {"time": 2493, "pitch": 66, "duration": 8, "velocity": 73}, {"time": 2499, "pitch": 33, "duration": 6, "velocity": 73}, {"time": 2505, "pitch": 38, "duration": 19, "velocity": 81}, {"time": 2505, "pitch": 57, "duration": 4, "velocity": 74}, {"time": 2505, "pitch": 62, "duration": 10, "velocity": 80}, {"time": 2505, "pitch": 66, "duration": 10, "velocity": 77}, {"time": 2511, "pitch": 57, "duration": 4, "velocity": 73}, {"time": 2517, "pitch": 57, "duration": 4, "velocity": 81}, {"time": 2517, "pitch": 62, "duration": 11, "velocity": 85}, {"time": 2517, "pitch": 66, "duration": 12, "velocity": 81}, {"time": 2523, "pitch": 57, "duration": 5, "velocity": 82}, {"time": 2529, "pitch": 45, "duration": 16, "velocity": 82}, {"time": 2529, "pitch": 57, "duration": 8, "velocity": 76}, {"time": 2529, "pitch": 61, "duration": 7, "velocity": 80}, {"time": 2535, "pitch": 52, "duration": 8, "velocity": 80}, {"time": 2541, "pitch": 57, "duration": 1, "velocity": 68}, {"time": 2541, "pitch": 61, "duration": 5, "velocity": 83}, {"time": 2541, "pitch": 64, "duration": 5, "velocity": 82}, {"time": 2547, "pitch": 57, "duration": 4, "velocity": 73}, {"time": 2553, "pitch": 45, "duration": 16, "velocity": 65}, {"time": 2553, "pitch": 57, "duration": 5, "velocity": 69}, {"time": 2553, "pitch": 61, "duration": 7, "velocity": 68}, {"time": 2553, "pitch": 64, "duration": 7, "velocity": 79}, {"time": 2559, "pitch": 52, "duration": 9, "velocity": 64}, {"time": 2565, "pitch": 57, "duration": 2, "velocity": 77}, {"time": 2565, "pitch": 61, "duration": 5, "velocity": 84}, {"time": 2565, "pitch": 64, "duration": 6, "velocity": 82}, {"time": 2571, "pitch": 57, "duration": 3, "velocity": 75}, {"time": 2577, "pitch": 40, "duration": 20, "velocity": 81}, {"time": 2577, "pitch": 59, "duration": 8, "velocity": 70}, {"time": 2577, "pitch": 64, "duration": 8, "velocity": 66}, {"time": 2583, "pitch": 47, "duration": 10, "velocity": 62}, {"time": 2589, "pitch": 59, "duration": 2, "velocity": 80}, {"time": 2589, "pitch": 64, "duration": 3, "velocity": 81}, {"time": 2589, "pitch": 68, "duration": 6, "velocity": 72}, {"time": 2595, "pitch": 59, "duration": 3, "velocity": 70}, {"time": 2601, "pitch": 40, "duration": 16, "velocity": 76}, {"time": 2601, "pitch": 59, "duration": 6, "velocity": 75}, {"time": 2601, "pitch": 64, "duration": 7, "velocity": 79}, {"time": 2607, "pitch": 47, "duration": 9, "velocity": 58}, {"time": 2613, "pitch": 59, "duration": 3, "velocity": 78}, {"time": 2613, "pitch": 64, "duration": 7, "velocity": 82}, {"time": 2613, "pitch": 68, "duration": 6, "velocity": 80}, {"time": 2619, "pitch": 59, "duration": 3, "velocity": 82}, {"time": 2625, "pitch": 42, "duration": 21, "velocity": 82}, {"time": 2625, "pitch": 57, "duration": 8, "velocity": 74}, {"time": 2625, "pitch": 61, "duration": 9, "velocity": 76}, {"time": 2631, "pitch": 49, "duration": 16, "velocity": 62}, {"time": 2637, "pitch": 61, "duration": 3, "velocity": 86}, {"time": 2637, "pitch": 66, "duration": 2, "velocity": 76}, {"time": 2643, "pitch": 57, "duration": 5, "velocity": 76}, {"time": 2649, "pitch": 42, "duration": 17, "velocity": 82}, {"time": 2649, "pitch": 57, "duration": 9, "velocity": 75}, {"time": 2649, "pitch": 61, "duration": 9, "velocity": 69}, {"time": 2655, "pitch": 49, "duration": 10, "velocity": 69}, {"time": 2661, "pitch": 61, "duration": 7, "velocity": 87}, {"time": 2661, "pitch": 66, "duration": 7, "velocity": 80}, {"time": 2667, "pitch": 57, "duration": 4, "velocity": 81}, {"time": 2673, "pitch": 50, "duration": 22, "velocity": 80}, {"time": 2673, "pitch": 57, "duration": 4, "velocity": 71}, {"time": 2673, "pitch": 62, "duration": 8, "velocity": 78}, {"time": 2679, "pitch": 57, "duration": 4, "velocity": 77}, {"time": 2685, "pitch": 57, "duration": 3, "velocity": 80}, {"time": 2685, "pitch": 62, "duration": 9, "velocity": 81}, {"time": 2685, "pitch": 66, "duration": 10, "velocity": 75}, {"time": 2691, "pitch": 57, "duration": 3, "velocity": 71}, {"time": 2697, "pitch": 52, "duration": 7, "velocity": 85}, {"time": 2697, "pitch": 59, "duration": 4, "velocity": 76}, {"time": 2697, "pitch": 64, "duration": 5, "velocity": 81}, {"time": 2703, "pitch": 59, "duration": 8, "velocity": 81}, {"time": 2709, "pitch": 40, "duration": 5, "velocity": 82}, {"time": 2709, "pitch": 64, "duration": 6, "velocity": 80}, {"time": 2709, "pitch": 68, "duration": 6, "velocity": 69}, {"time": 2715, "pitch": 59, "duration": 2, "velocity": 83}, {"time": 2721, "pitch": 45, "duration": 20, "velocity": 80}, {"time": 2721, "pitch": 57, "duration": 7, "velocity": 72}, {"time": 2721, "pitch": 61, "duration": 7, "velocity": 67}, {"time": 2721, "pitch": 64, "duration": 7, "velocity": 78}, {"time": 2727, "pitch": 52, "duration": 14, "velocity": 71}, {"time": 2733, "pitch": 61, "duration": 3, "velocity": 84}, {"time": 2733, "pitch": 64, "duration": 2, "velocity": 81}, {"time": 2739, "pitch": 57, "duration": 8, "velocity": 72}, {"time": 2745, "pitch": 45, "duration": 16, "velocity": 80}, {"time": 2745, "pitch": 61, "duration": 6, "velocity": 70}, {"time": 2745, "pitch": 64, "duration": 6, "velocity": 82}, {"time": 2751, "pitch": 52, "duration": 9, "velocity": 66}, {"time": 2757, "pitch": 57, "duration": 3, "velocity": 76}, {"time": 2757, "pitch": 61, "duration": 6, "velocity": 83}, {"time": 2757, "pitch": 64, "duration": 7, "velocity": 82}, {"time": 2763, "pitch": 57, "duration": 2, "velocity": 65}, {"time": 2769, "pitch": 40, "duration": 22, "velocity": 81}, {"time": 2769, "pitch": 59, "duration": 3, "velocity": 74}, {"time": 2769, "pitch": 64, "duration": 9, "velocity": 80}, {"time": 2775, "pitch": 59, "duration": 5, "velocity": 72}, {"time": 2781, "pitch": 64, "duration": 7, "velocity": 81}, {"time": 2781, "pitch": 68, "duration": 5, "velocity": 80}, {"time": 2787, "pitch": 59, "duration": 8, "velocity": 82}, {"time": 2793, "pitch": 40, "duration": 17, "velocity": 83}, {"time": 2793, "pitch": 64, "duration": 8, "velocity": 81}, {"time": 2799, "pitch": 47, "duration": 9, "velocity": 62}, {"time": 2799, "pitch": 59, "duration": 4, "velocity": 78}, {"time": 2805, "pitch": 59, "duration": 3, "velocity": 82}, {"time": 2805, "pitch": 64, "duration": 3, "velocity": 83}, {"time": 2805, "pitch": 68, "duration": 4, "velocity": 75}, {"time": 2817, "pitch": 42, "duration": 21, "velocity": 82}, {"time": 2817, "pitch": 61, "duration": 7, "velocity": 85}, {"time": 2823, "pitch": 57, "duration": 7, "velocity": 81}, {"time": 2829, "pitch": 49, "duration": 10, "velocity": 66}, {"time": 2829, "pitch": 61, "duration": 7, "velocity": 80}, {"time": 2829, "pitch": 66, "duration": 7, "velocity": 81}, {"time": 2835, "pitch": 57, "duration": 8, "velocity": 80}, {"time": 2841, "pitch": 42, "duration": 9, "velocity": 74}, {"time": 2841, "pitch": 61, "duration": 7, "velocity": 80}, {"time": 2847, "pitch": 57, "duration": 3, "velocity": 75}, {"time": 2853, "pitch": 61, "duration": 7, "velocity": 82}, {"time": 2853, "pitch": 66, "duration": 7, "velocity": 81}, {"time": 2859, "pitch": 57, "duration": 4, "velocity": 81}, {"time": 2865, "pitch": 50, "duration": 11, "velocity": 82}, {"time": 2865, "pitch": 57, "duration": 3, "velocity": 79}, {"time": 2865, "pitch": 62, "duration": 8, "velocity": 81}, {"time": 2871, "pitch": 57, "duration": 3, "velocity": 69}, {"time": 2877, "pitch": 57, "duration": 1, "velocity": 62}, {"time": 2877, "pitch": 62, "duration": 10, "velocity": 81}, {"time": 2877, "pitch": 66, "duration": 8, "velocity": 73}, {"time": 2883, "pitch": 33, "duration": 6, "velocity": 73}, {"time": 2889, "pitch": 38, "duration": 19, "velocity": 81}, {"time": 2889, "pitch": 57, "duration": 4, "velocity": 74}, {"time": 2889, "pitch": 62, "duration": 10, "velocity": 80}, {"time": 2889, "pitch": 66, "duration": 10, "velocity": 77}, {"time": 2895, "pitch": 57, "duration": 4, "velocity": 73}, {"time": 2901, "pitch": 57, "duration": 4, "velocity": 81}, {"time": 2901, "pitch": 62, "duration": 11, "velocity": 85}, {"time": 2901, "pitch": 66, "duration": 12, "velocity": 81}, {"time": 2907, "pitch": 57, "duration": 5, "velocity": 82}, {"time": 2913, "pitch": 40, "duration": 8, "velocity": 80}, {"time": 2913, "pitch": 47, "duration": 8, "velocity": 79}, {"time": 2913, "pitch": 68, "duration": 6, "velocity": 77}, {"time": 2919, "pitch": 64, "duration": 5, "velocity": 76}, {"time": 2925, "pitch": 40, "duration": 7, "velocity": 77}, {"time": 2925, "pitch": 47, "duration": 7, "velocity": 75}, {"time": 2925, "pitch": 64, "duration": 4, "velocity": 81}, {"time": 2925, "pitch": 68, "duration": 6, "velocity": 76}, {"time": 2931, "pitch": 64, "duration": 4, "velocity": 80}, {"time": 2937, "pitch": 40, "duration": 8, "velocity": 72}, {"time": 2937, "pitch": 47, "duration": 7, "velocity": 71}, {"time": 2937, "pitch": 64, "duration": 3, "velocity": 76}, {"time": 2937, "pitch": 68, "duration": 7, "velocity": 71}, {"time": 2943, "pitch": 64, "duration": 3, "velocity": 76}, {"time": 2949, "pitch": 40, "duration": 10, "velocity": 79}, {"time": 2949, "pitch": 47, "duration": 9, "velocity": 73}, {"time": 2949, "pitch": 64, "duration": 3, "velocity": 80}, {"time": 2949, "pitch": 68, "duration": 7, "velocity": 74}, {"time": 2955, "pitch": 64, "duration": 5, "velocity": 82}, {"time": 2961, "pitch": 38, "duration": 8, "velocity": 76}, {"time": 2961, "pitch": 45, "duration": 8, "velocity": 74}, {"time": 2961, "pitch": 60, "duration": 6, "velocity": 80}, {"time": 2967, "pitch": 57, "duration": 5, "velocity": 79}, {"time": 2973, "pitch": 38, "duration": 9, "velocity": 86}, {"time": 2973, "pitch": 45, "duration": 9, "velocity": 80}, {"time": 2973, "pitch": 57, "duration": 4, "velocity": 79}, {"time": 2973, "pitch": 60, "duration": 7, "velocity": 76}, {"time": 2979, "pitch": 57, "duration": 4, "velocity": 78}, {"time": 2985, "pitch": 38, "duration": 10, "velocity": 81}, {"time": 2985, "pitch": 45, "duration": 10, "velocity": 75}, {"time": 2985, "pitch": 57, "duration": 4, "velocity": 79}, {"time": 2985, "pitch": 60, "duration": 8, "velocity": 82}, {"time": 2991, "pitch": 57, "duration": 4, "velocity": 70}, {"time": 2997, "pitch": 38, "duration": 11, "velocity": 78}, {"time": 2997, "pitch": 45, "duration": 11, "velocity": 75}, {"time": 2997, "pitch": 57, "duration": 3, "velocity": 79}, {"time": 2997, "pitch": 60, "duration": 8, "velocity": 76}, {"time": 3003, "pitch": 57, "duration": 4, "velocity": 81}, {"time": 3009, "pitch": 47, "duration": 9, "velocity": 80}, {"time": 3009, "pitch": 54, "duration": 9, "velocity": 74}, {"time": 3009, "pitch": 57, "duration": 4, "velocity": 74}, {"time": 3009, "pitch": 63, "duration": 8, "velocity": 74}, {"time": 3015, "pitch": 57, "duration": 3, "velocity": 71}, {"time": 3021, "pitch": 47, "duration": 9, "velocity": 80}, {"time": 3021, "pitch": 54, "duration": 9, "velocity": 73}, {"time": 3021, "pitch": 57, "duration": 5, "velocity": 79}, {"time": 3021, "pitch": 63, "duration": 8, "velocity": 74}, {"time": 3027, "pitch": 57, "duration": 4, "velocity": 72}, {"time": 3033, "pitch": 47, "duration": 10, "velocity": 80}, {"time": 3033, "pitch": 54, "duration": 10, "velocity": 75}, {"time": 3033, "pitch": 57, "duration": 4, "velocity": 77}, {"time": 3033, "pitch": 63, "duration": 9, "velocity": 74}, {"time": 3039, "pitch": 57, "duration": 4, "velocity": 66}, {"time": 3045, "pitch": 47, "duration": 12, "velocity": 82}, {"time": 3045, "pitch": 54, "duration": 12, "velocity": 80}, {"time": 3045, "pitch": 57, "duration": 3, "velocity": 79}, {"time": 3045, "pitch": 63, "duration": 12, "velocity": 74}, {"time": 3051, "pitch": 57, "duration": 6, "velocity": 80}, {"time": 3057, "pitch": 42, "duration": 6, "velocity": 91}, {"time": 3057, "pitch": 54, "duration": 3, "velocity": 83}, {"time": 3057, "pitch": 66, "duration": 5, "velocity": 69}, {"time": 3060, "pitch": 54, "duration": 2, "velocity": 67}, {"time": 3063, "pitch": 42, "duration": 2, "velocity": 76}, {"time": 3063, "pitch": 54, "duration": 2, "velocity": 87}, {"time": 3063, "pitch": 66, "duration": 2, "velocity": 75}, {"time": 3066, "pitch": 44, "duration": 6, "velocity": 96}, {"time": 3066, "pitch": 56, "duration": 6, "velocity": 91}, {"time": 3066, "pitch": 68, "duration": 6, "velocity": 81}, {"time": 3075, "pitch": 45, "duration": 4, "velocity": 82}, {"time": 3075, "pitch": 57, "duration": 4, "velocity": 78}, {"time": 3075, "pitch": 69, "duration": 3, "velocity": 82}, {"time": 3081, "pitch": 48, "duration": 11, "velocity": 82}, {"time": 3081, "pitch": 57, "duration": 11, "velocity": 75}, {"time": 3081, "pitch": 60, "duration": 11, "velocity": 84}, {"time": 3081, "pitch": 67, "duration": 11, "velocity": 84}, {"time": 3093, "pitch": 47, "duration": 11, "velocity": 85}, {"time": 3093, "pitch": 59, "duration": 11, "velocity": 85}, {"time": 3093, "pitch": 66, "duration": 11, "velocity": 85}, {"time": 3105, "pitch": 47, "duration": 9, "velocity": 80}, {"time": 3105, "pitch": 63, "duration": 8, "velocity": 68}, {"time": 3105, "pitch": 69, "duration": 8, "velocity": 78}, {"time": 3111, "pitch": 59, "duration": 4, "velocity": 75}, {"time": 3117, "pitch": 47, "duration": 7, "velocity": 75}, {"time": 3117, "pitch": 54, "duration": 6, "velocity": 70}, {"time": 3117, "pitch": 63, "duration": 7, "velocity": 73}, {"time": 3117, "pitch": 69, "duration": 8, "velocity": 76}, {"time": 3123, "pitch": 59, "duration": 7, "velocity": 74}, {"time": 3129, "pitch": 47, "duration": 8, "velocity": 73}, {"time": 3129, "pitch": 54, "duration": 8, "velocity": 69}, {"time": 3129, "pitch": 63, "duration": 8, "velocity": 79}, {"time": 3129, "pitch": 69, "duration": 8, "velocity": 79}, {"time": 3135, "pitch": 59, "duration": 3, "velocity": 69}, {"time": 3141, "pitch": 47, "duration": 9, "velocity": 73}, {"time": 3141, "pitch": 54, "duration": 8, "velocity": 68}, {"time": 3141, "pitch": 59, "duration": 3, "velocity": 80}, {"time": 3141, "pitch": 63, "duration": 7, "velocity": 74}, {"time": 3141, "pitch": 69, "duration": 9, "velocity": 79}, {"time": 3147, "pitch": 59, "duration": 3, "velocity": 84}, {"time": 3153, "pitch": 50, "duration": 9, "velocity": 91}, {"time": 3153, "pitch": 57, "duration": 3, "velocity": 73}, {"time": 3153, "pitch": 60, "duration": 9, "velocity": 76}, {"time": 3153, "pitch": 66, "duration": 8, "velocity": 72}, {"time": 3159, "pitch": 57, "duration": 7, "velocity": 75}, {"time": 3165, "pitch": 50, "duration": 7, "velocity": 86}, {"time": 3165, "pitch": 60, "duration": 10, "velocity": 82}, {"time": 3165, "pitch": 66, "duration": 10, "velocity": 80}, {"time": 3171, "pitch": 45, "duration": 6, "velocity": 81}, {"time": 3171, "pitch": 57, "duration": 8, "velocity": 72}, {"time": 3177, "pitch": 50, "duration": 11, "velocity": 85}, {"time": 3177, "pitch": 60, "duration": 9, "velocity": 76}, {"time": 3177, "pitch": 66, "duration": 10, "velocity": 76}, {"time": 3189, "pitch": 50, "duration": 12, "velocity": 89}, {"time": 3189, "pitch": 60, "duration": 11, "velocity": 83}, {"time": 3189, "pitch": 66, "duration": 11, "velocity": 81}, {"time": 3195, "pitch": 57, "duration": 5, "velocity": 82}, {"time": 3201, "pitch": 41, "duration": 10, "velocity": 81}, {"time": 3201, "pitch": 57, "duration": 7, "velocity": 73}, {"time": 3201, "pitch": 60, "duration": 7, "velocity": 75}, {"time": 3201, "pitch": 63, "duration": 8, "velocity": 74}, {"time": 3207, "pitch": 53, "duration": 7, "velocity": 75}, {"time": 3213, "pitch": 41, "duration": 9, "velocity": 80}, {"time": 3213, "pitch": 57, "duration": 7, "velocity": 74}, {"time": 3213, "pitch": 60, "duration": 8, "velocity": 74}, {"time": 3213, "pitch": 63, "duration": 8, "velocity": 72}, {"time": 3219, "pitch": 53, "duration": 7, "velocity": 80}, {"time": 3225, "pitch": 41, "duration": 9, "velocity": 80}, {"time": 3225, "pitch": 57, "duration": 7, "velocity": 70}, {"time": 3225, "pitch": 60, "duration": 8, "velocity": 75}, {"time": 3225, "pitch": 63, "duration": 8, "velocity": 70}, {"time": 3231, "pitch": 53, "duration": 7, "velocity": 80}, {"time": 3237, "pitch": 41, "duration": 5, "velocity": 80}, {"time": 3237, "pitch": 57, "duration": 6, "velocity": 75}, {"time": 3237, "pitch": 60, "duration": 6, "velocity": 76}, {"time": 3237, "pitch": 63, "duration": 7, "velocity": 73}, {"time": 3243, "pitch": 53, "duration": 5, "velocity": 81}, {"time": 3255, "pitch": 40, "duration": 2, "velocity": 82}, {"time": 3255, "pitch": 52, "duration": 3, "velocity": 80}, {"time": 3255, "pitch": 56, "duration": 3, "velocity": 71}, {"time": 3255, "pitch": 59, "duration": 3, "velocity": 76}, {"time": 3261, "pitch": 40, "duration": 2, "velocity": 81}, {"time": 3261, "pitch": 52, "duration": 2, "velocity": 81}, {"time": 3261, "pitch": 56, "duration": 2, "velocity": 76}, {"time": 3261, "pitch": 59, "duration": 2, "velocity": 81}, {"time": 3267, "pitch": 40, "duration": 2, "velocity": 82}, {"time": 3267, "pitch": 52, "duration": 2, "velocity": 80}, {"time": 3267, "pitch": 56, "duration": 2, "velocity": 72}, {"time": 3267, "pitch": 59, "duration": 2, "velocity": 80}, {"time": 3273, "pitch": 40, "duration": 3, "velocity": 84}, {"time": 3273, "pitch": 52, "duration": 2, "velocity": 81}, {"time": 3273, "pitch": 56, "duration": 2, "velocity": 73}, {"time": 3273, "pitch": 59, "duration": 3, "velocity": 80}, {"time": 3279, "pitch": 40, "duration": 2, "velocity": 82}, {"time": 3279, "pitch": 52, "duration": 2, "velocity": 80}, {"time": 3279, "pitch": 56, "duration": 2, "velocity": 71}, {"time": 3279, "pitch": 59, "duration": 2, "velocity": 79}, {"time": 3285, "pitch": 40, "duration": 3, "velocity": 87}, {"time": 3285, "pitch": 52, "duration": 3, "velocity": 82}, {"time": 3285, "pitch": 56, "duration": 3, "velocity": 82}, {"time": 3285, "pitch": 59, "duration": 3, "velocity": 84}, {"time": 3285, "pitch": 64, "duration": 3, "velocity": 87}, {"time": 3291, "pitch": 40, "duration": 2, "velocity": 84}, {"time": 3291, "pitch": 52, "duration": 2, "velocity": 82}, {"time": 3291, "pitch": 56, "duration": 2, "velocity": 81}, {"time": 3291, "pitch": 59, "duration": 2, "velocity": 81}, {"time": 3291, "pitch": 64, "duration": 2, "velocity": 81}, {"time": 3297, "pitch": 45, "duration": 14, "velocity": 81}, {"time": 3297, "pitch": 57, "duration": 5, "velocity": 73}, {"time": 3297, "pitch": 61, "duration": 5, "velocity": 75}, {"time": 3297, "pitch": 64, "duration": 6, "velocity": 83}, {"time": 3303, "pitch": 52, "duration": 7, "velocity": 66}, {"time": 3309, "pitch": 57, "duration": 2, "velocity": 80}, {"time": 3309, "pitch": 61, "duration": 2, "velocity": 85}, {"time": 3309, "pitch": 64, "duration": 3, "velocity": 85}, {"time": 3318, "pitch": 57, "duration": 3, "velocity": 80}, {"time": 3318, "pitch": 64, "duration": 3, "velocity": 82}, {"time": 3321, "pitch": 45, "duration": 5, "velocity": 78}, {"time": 3324, "pitch": 57, "duration": 3, "velocity": 76}, {"time": 3324, "pitch": 61, "duration": 3, "velocity": 87}, {"time": 3327, "pitch": 52, "duration": 5, "velocity": 81}, {"time": 3330, "pitch": 57, "duration": 2, "velocity": 81}, {"time": 3333, "pitch": 57, "duration": 4, "velocity": 82}, {"time": 3333, "pitch": 64, "duration": 5, "velocity": 82}, {"time": 3336, "pitch": 52, "duration": 2, "velocity": 79}, {"time": 3339, "pitch": 57, "duration": 3, "velocity": 82}, {"time": 3345, "pitch": 37, "duration": 2, "velocity": 80}, {"time": 3345, "pitch": 56, "duration": 3, "velocity": 76}, {"time": 3345, "pitch": 61, "duration": 7, "velocity": 81}, {"time": 3345, "pitch": 64, "duration": 9, "velocity": 82}, {"time": 3351, "pitch": 56, "duration": 5, "velocity": 71}, {"time": 3357, "pitch": 49, "duration": 1, "velocity": 89}, {"time": 3357, "pitch": 56, "duration": 2, "velocity": 77}, {"time": 3357, "pitch": 61, "duration": 3, "velocity": 76}, {"time": 3357, "pitch": 64, "duration": 3, "velocity": 83}, {"time": 3366, "pitch": 56, "duration": 5, "velocity": 78}, {"time": 3366, "pitch": 61, "duration": 7, "velocity": 79}, {"time": 3366, "pitch": 64, "duration": 7, "velocity": 82}, {"time": 3369, "pitch": 49, "duration": 3, "velocity": 82}, {"time": 3372, "pitch": 56, "duration": 2, "velocity": 83}, {"time": 3378, "pitch": 56, "duration": 3, "velocity": 78}, {"time": 3381, "pitch": 44, "duration": 2, "velocity": 81}, {"time": 3381, "pitch": 56, "duration": 2, "velocity": 71}, {"time": 3381, "pitch": 61, "duration": 2, "velocity": 82}, {"time": 3381, "pitch": 64, "duration": 3, "velocity": 81}, {"time": 3384, "pitch": 56, "duration": 4, "velocity": 81}, {"time": 3387, "pitch": 49, "duration": 2, "velocity": 84}, {"time": 3387, "pitch": 61, "duration": 4, "velocity": 83}, {"time": 3387, "pitch": 64, "duration": 4, "velocity": 83}, {"time": 3390, "pitch": 56, "duration": 3, "velocity": 80}, {"time": 3393, "pitch": 42, "duration": 13, "velocity": 83}, {"time": 3393, "pitch": 57, "duration": 9, "velocity": 74}, {"time": 3393, "pitch": 61, "duration": 9, "velocity": 80}, {"time": 3399, "pitch": 49, "duration": 8, "velocity": 69}, {"time": 3405, "pitch": 57, "duration": 6, "velocity": 80}, {"time": 3405, "pitch": 61, "duration": 6, "velocity": 85}, {"time": 3405, "pitch": 66, "duration": 5, "velocity": 78}, {"time": 3414, "pitch": 57, "duration": 3, "velocity": 77}, {"time": 3414, "pitch": 61, "duration": 3, "velocity": 84}, {"time": 3414, "pitch": 66, "duration": 3, "velocity": 81}, {"time": 3417, "pitch": 42, "duration": 2, "velocity": 81}, {"time": 3420, "pitch": 57, "duration": 2, "velocity": 73}, {"time": 3420, "pitch": 61, "duration": 3, "velocity": 84}, {"time": 3423, "pitch": 49, "duration": 2, "velocity": 81}, {"time": 3426, "pitch": 57, "duration": 2, "velocity": 73}, {"time": 3429, "pitch": 42, "duration": 5, "velocity": 85}, {"time": 3429, "pitch": 49, "duration": 5, "velocity": 83}, {"time": 3429, "pitch": 57, "duration": 4, "velocity": 82}, {"time": 3429, "pitch": 61, "duration": 7, "velocity": 91}, {"time": 3429, "pitch": 66, "duration": 7, "velocity": 81}, {"time": 3435, "pitch": 57, "duration": 3, "velocity": 83}, {"time": 3441, "pitch": 40, "duration": 7, "velocity": 87}, {"time": 3441, "pitch": 59, "duration": 4, "velocity": 76}, {"time": 3441, "pitch": 64, "duration": 7, "velocity": 81}, {"time": 3447, "pitch": 59, "duration": 3, "velocity": 81}, {"time": 3453, "pitch": 59, "duration": 6, "velocity": 82}, {"time": 3453, "pitch": 64, "duration": 5, "velocity": 86}, {"time": 3453, "pitch": 68, "duration": 6, "velocity": 82}, {"time": 3462, "pitch": 59, "duration": 4, "velocity": 83}, {"time": 3462, "pitch": 64, "duration": 4, "velocity": 85}, {"time": 3462, "pitch": 68, "duration": 5, "velocity": 82}, {"time": 3465, "pitch": 40, "duration": 4, "velocity": 82}, {"time": 3468, "pitch": 59, "duration": 1, "velocity": 80}, {"time": 3468, "pitch": 64, "duration": 5, "velocity": 82}, {"time": 3471, "pitch": 59, "duration": 5, "velocity": 89}, {"time": 3474, "pitch": 64, "duration": 1, "velocity": 76}, {"time": 3477, "pitch": 40, "duration": 2, "velocity": 85}, {"time": 3477, "pitch": 47, "duration": 2, "velocity": 81}, {"time": 3477, "pitch": 59, "duration": 2, "velocity": 85}, {"time": 3477, "pitch": 64, "duration": 3, "velocity": 89}, {"time": 3477, "pitch": 68, "duration": 4, "velocity": 89}, {"time": 3480, "pitch": 40, "duration": 2, "velocity": 76}, {"time": 3480, "pitch": 47, "duration": 1, "velocity": 74}, {"time": 3483, "pitch": 59, "duration": 2, "velocity": 82}, {"time": 3483, "pitch": 64, "duration": 6, "velocity": 83}, {"time": 3483, "pitch": 68, "duration": 5, "velocity": 80}, {"time": 3486, "pitch": 59, "duration": 3, "velocity": 81}, {"time": 3489, "pitch": 37, "duration": 3, "velocity": 82}, {"time": 3489, "pitch": 56, "duration": 3, "velocity": 74}, {"time": 3489, "pitch": 61, "duration": 2, "velocity": 75}, {"time": 3489, "pitch": 65, "duration": 3, "velocity": 80}, {"time": 3495, "pitch": 37, "duration": 3, "velocity": 68}, {"time": 3495, "pitch": 56, "duration": 3, "velocity": 68}, {"time": 3495, "pitch": 61, "duration": 3, "velocity": 69}, {"time": 3495, "pitch": 65, "duration": 3, "velocity": 79}, {"time": 3501, "pitch": 37, "duration": 4, "velocity": 86}, {"time": 3501, "pitch": 56, "duration": 2, "velocity": 76}, {"time": 3501, "pitch": 61, "duration": 2, "velocity": 81}, {"time": 3501, "pitch": 65, "duration": 2, "velocity": 81}, {"time": 3507, "pitch": 37, "duration": 2, "velocity": 78}, {"time": 3507, "pitch": 56, "duration": 2, "velocity": 73}, {"time": 3507, "pitch": 61, "duration": 2, "velocity": 78}, {"time": 3510, "pitch": 56, "duration": 2, "velocity": 80}, {"time": 3513, "pitch": 37, "duration": 2, "velocity": 80}, {"time": 3513, "pitch": 56, "duration": 1, "velocity": 73}, {"time": 3513, "pitch": 61, "duration": 3, "velocity": 86}, {"time": 3513, "pitch": 65, "duration": 4, "velocity": 80}, {"time": 3519, "pitch": 61, "duration": 2, "velocity": 73}, {"time": 3519, "pitch": 65, "duration": 2, "velocity": 78}, {"time": 3522, "pitch": 56, "duration": 2, "velocity": 75}, {"time": 3525, "pitch": 37, "duration": 4, "velocity": 82}, {"time": 3525, "pitch": 56, "duration": 4, "velocity": 83}, {"time": 3525, "pitch": 61, "duration": 5, "velocity": 81}, {"time": 3525, "pitch": 65, "duration": 5, "velocity": 81}, {"time": 3531, "pitch": 37, "duration": 6, "velocity": 80}, {"time": 3531, "pitch": 56, "duration": 5, "velocity": 81}, {"time": 3531, "pitch": 61, "duration": 6, "velocity": 74}, {"time": 3531, "pitch": 65, "duration": 6, "velocity": 81}, {"time": 3537, "pitch": 42, "duration": 6, "velocity": 85}, {"time": 3537, "pitch": 57, "duration": 3, "velocity": 79}, {"time": 3537, "pitch": 61, "duration": 7, "velocity": 82}, {"time": 3537, "pitch": 66, "duration": 7, "velocity": 77}, {"time": 3543, "pitch": 57, "duration": 2, "velocity": 75}, {"time": 3549, "pitch": 40, "duration": 9, "velocity": 84}, {"time": 3549, "pitch": 59, "duration": 3, "velocity": 76}, {"time": 3549, "pitch": 64, "duration": 7, "velocity": 80}, {"time": 3549, "pitch": 68, "duration": 7, "velocity": 76}, {"time": 3555, "pitch": 59, "duration": 4, "velocity": 80}, {"time": 3561, "pitch": 38, "duration": 10, "velocity": 77}, {"time": 3561, "pitch": 57, "duration": 4, "velocity": 80}, {"time": 3561, "pitch": 62, "duration": 9, "velocity": 73}, {"time": 3567, "pitch": 57, "duration": 4, "velocity": 81}, {"time": 3573, "pitch": 37, "duration": 12, "velocity": 81}, {"time": 3573, "pitch": 56, "duration": 3, "velocity": 75}, {"time": 3573, "pitch": 61, "duration": 11, "velocity": 78}, {"time": 3573, "pitch": 64, "duration": 11, "velocity": 84}, {"time": 3579, "pitch": 56, "duration": 6, "velocity": 81}, {"time": 3585, "pitch": 38, "duration": 9, "velocity": 84}, {"time": 3585, "pitch": 57, "duration": 3, "velocity": 80}, {"time": 3585, "pitch": 62, "duration": 8, "velocity": 81}, {"time": 3585, "pitch": 66, "duration": 8, "velocity": 76}, {"time": 3591, "pitch": 57, "duration": 3, "velocity": 75}, {"time": 3597, "pitch": 57, "duration": 2, "velocity": 82}, {"time": 3597, "pitch": 62, "duration": 4, "velocity": 86}, {"time": 3597, "pitch": 66, "duration": 8, "velocity": 82}, {"time": 3603, "pitch": 57, "duration": 4, "velocity": 84}, {"time": 3603, "pitch": 62, "duration": 2, "velocity": 44}, {"time": 3609, "pitch": 38, "duration": 8, "velocity": 86}, {"time": 3609, "pitch": 57, "duration": 3, "velocity": 81}, {"time": 3609, "pitch": 62, "duration": 8, "velocity": 82}, {"time": 3609, "pitch": 66, "duration": 8, "velocity": 80}, {"time": 3615, "pitch": 57, "duration": 4, "velocity": 73}, {"time": 3621, "pitch": 38, "duration": 4, "velocity": 83}, {"time": 3621, "pitch": 50, "duration": 3, "velocity": 80}, {"time": 3621, "pitch": 54, "duration": 3, "velocity": 71}, {"time": 3621, "pitch": 57, "duration": 3, "velocity": 75}, {"time": 3627, "pitch": 40, "duration": 21, "velocity": 89}, {"time": 3627, "pitch": 52, "duration": 9, "velocity": 81}, {"time": 3627, "pitch": 56, "duration": 9, "velocity": 76}, {"time": 3633, "pitch": 47, "duration": 14, "velocity": 74}, {"time": 3639, "pitch": 52, "duration": 2, "velocity": 72}, {"time": 3639, "pitch": 56, "duration": 2, "velocity": 51}, {"time": 3639, "pitch": 59, "duration": 3, "velocity": 71}, {"time": 3645, "pitch": 52, "duration": 2, "velocity": 85}, {"time": 3645, "pitch": 56, "duration": 2, "velocity": 85}, {"time": 3645, "pitch": 59, "duration": 2, "velocity": 89}, {"time": 3645, "pitch": 64, "duration": 3, "velocity": 85}, {"time": 3651, "pitch": 47, "duration": 2, "velocity": 51}, {"time": 3654, "pitch": 52, "duration": 2, "velocity": 81}, {"time": 3657, "pitch": 40, "duration": 23, "velocity": 82}, {"time": 3657, "pitch": 52, "duration": 10, "velocity": 82}, {"time": 3657, "pitch": 56, "duration": 10, "velocity": 76}, {"time": 3657, "pitch": 59, "duration": 10, "velocity": 76}, {"time": 3657, "pitch": 64, "duration": 10, "velocity": 81}, {"time": 3669, "pitch": 47, "duration": 4, "velocity": 75}, {"time": 3669, "pitch": 52, "duration": 2, "velocity": 82}, {"time": 3669, "pitch": 56, "duration": 6, "velocity": 79}, {"time": 3669, "pitch": 59, "duration": 7, "velocity": 80}, {"time": 3669, "pitch": 64, "duration": 6, "velocity": 81}, {"time": 3672, "pitch": 52, "duration": 4, "velocity": 87}, {"time": 3675, "pitch": 47, "duration": 6, "velocity": 82}, {"time": 3678, "pitch": 52, "duration": 3, "velocity": 89}, {"time": 3681, "pitch": 45, "duration": 34, "velocity": 80}, {"time": 3681, "pitch": 57, "duration": 4, "velocity": 70}, {"time": 3681, "pitch": 64, "duration": 9, "velocity": 80}, {"time": 3687, "pitch": 57, "duration": 3, "velocity": 66}, {"time": 3693, "pitch": 61, "duration": 8, "velocity": 68}, {"time": 3693, "pitch": 64, "duration": 8, "velocity": 78}, {"time": 3699, "pitch": 57, "duration": 3, "velocity": 35}, {"time": 3705, "pitch": 61, "duration": 6, "velocity": 67}, {"time": 3705, "pitch": 64, "duration": 8, "velocity": 77}, {"time": 3711, "pitch": 57, "duration": 7, "velocity": 62}, {"time": 3717, "pitch": 61, "duration": 2, "velocity": 72}, {"time": 3717, "pitch": 64, "duration": 4, "velocity": 80}, {"time": 3729, "pitch": 37, "duration": 9, "velocity": 71}, {"time": 3729, "pitch": 61, "duration": 7, "velocity": 71}, {"time": 3729, "pitch": 64, "duration": 7, "velocity": 75}, {"time": 3735, "pitch": 56, "duration": 5, "velocity": 66}, {"time": 3741, "pitch": 61, "duration": 2, "velocity": 74}, {"time": 3741, "pitch": 64, "duration": 2, "velocity": 82}, {"time": 3747, "pitch": 56, "duration": 4, "velocity": 54}, {"time": 3753, "pitch": 61, "duration": 2, "velocity": 72}, {"time": 3753, "pitch": 64, "duration": 2, "velocity": 80}, {"time": 3759, "pitch": 56, "duration": 7, "velocity": 71}, {"time": 3765, "pitch": 61, "duration": 4, "velocity": 78}, {"time": 3765, "pitch": 64, "duration": 4, "velocity": 82}, {"time": 3771, "pitch": 37, "duration": 2, "velocity": 83}, {"time": 3777, "pitch": 42, "duration": 38, "velocity": 69}, {"time": 3777, "pitch": 54, "duration": 6, "velocity": 73}, {"time": 3777, "pitch": 57, "duration": 5, "velocity": 69}, {"time": 3777, "pitch": 61, "duration": 6, "velocity": 76}, {"time": 3783, "pitch": 49, "duration": 21, "velocity": 61}, {"time": 3789, "pitch": 54, "duration": 2, "velocity": 75}, {"time": 3789, "pitch": 61, "duration": 2, "velocity": 68}, {"time": 3801, "pitch": 57, "duration": 6, "velocity": 69}, {"time": 3801, "pitch": 61, "duration": 6, "velocity": 69}, {"time": 3807, "pitch": 49, "duration": 7, "velocity": 45}, {"time": 3813, "pitch": 57, "duration": 2, "velocity": 73}, {"time": 3813, "pitch": 61, "duration": 2, "velocity": 74}, {"time": 3825, "pitch": 40, "duration": 46, "velocity": 76}, {"time": 3825, "pitch": 52, "duration": 6, "velocity": 73}, {"time": 3825, "pitch": 56, "duration": 6, "velocity": 67}, {"time": 3825, "pitch": 59, "duration": 6, "velocity": 74}, {"time": 3831, "pitch": 47, "duration": 21, "velocity": 61}, {"time": 3837, "pitch": 56, "duration": 2, "velocity": 68}, {"time": 3837, "pitch": 59, "duration": 3, "velocity": 75}, {"time": 3843, "pitch": 52, "duration": 4, "velocity": 78}, {"time": 3849, "pitch": 52, "duration": 5, "velocity": 77}, {"time": 3849, "pitch": 56, "duration": 6, "velocity": 79}, {"time": 3849, "pitch": 59, "duration": 6, "velocity": 77}, {"time": 3849, "pitch": 64, "duration": 5, "velocity": 82}, {"time": 3855, "pitch": 47, "duration": 8, "velocity": 69}, {"time": 3861, "pitch": 52, "duration": 10, "velocity": 81}, {"time": 3861, "pitch": 56, "duration": 11, "velocity": 81}, {"time": 3861, "pitch": 59, "duration": 11, "velocity": 80}, {"time": 3867, "pitch": 47, "duration": 5, "velocity": 78}, {"time": 3873, "pitch": 37, "duration": 3, "velocity": 82}, {"time": 3873, "pitch": 56, "duration": 3, "velocity": 74}, {"time": 3873, "pitch": 61, "duration": 2, "velocity": 75}, {"time": 3873, "pitch": 65, "duration": 3, "velocity": 80}, {"time": 3879, "pitch": 37, "duration": 3, "velocity": 68}, {"time": 3879, "pitch": 56, "duration": 3, "velocity": 68}, {"time": 3879, "pitch": 61, "duration": 3, "velocity": 69}, {"time": 3879, "pitch": 65, "duration": 3, "velocity": 79}, {"time": 3885, "pitch": 37, "duration": 4, "velocity": 86}, {"time": 3885, "pitch": 56, "duration": 2, "velocity": 76}, {"time": 3885, "pitch": 61, "duration": 2, "velocity": 81}, {"time": 3885, "pitch": 65, "duration": 2, "velocity": 81}, {"time": 3891, "pitch": 37, "duration": 2, "velocity": 78}, {"time": 3891, "pitch": 56, "duration": 2, "velocity": 73}, {"time": 3891, "pitch": 61, "duration": 2, "velocity": 78}, {"time": 3894, "pitch": 56, "duration": 2, "velocity": 80}, {"time": 3897, "pitch": 37, "duration": 2, "velocity": 80}, {"time": 3897, "pitch": 56, "duration": 1, "velocity": 73}, {"time": 3897, "pitch": 61, "duration": 3, "velocity": 86}, {"time": 3897, "pitch": 65, "duration": 4, "velocity": 80}, {"time": 3903, "pitch": 61, "duration": 2, "velocity": 73}, {"time": 3903, "pitch": 65, "duration": 2, "velocity": 78}, {"time": 3906, "pitch": 56, "duration": 2, "velocity": 75}, {"time": 3909, "pitch": 37, "duration": 4, "velocity": 82}, {"time": 3909, "pitch": 56, "duration": 4, "velocity": 83}, {"time": 3909, "pitch": 61, "duration": 5, "velocity": 81}, {"time": 3909, "pitch": 65, "duration": 5, "velocity": 81}, {"time": 3915, "pitch": 37, "duration": 6, "velocity": 80}, {"time": 3915, "pitch": 56, "duration": 5, "velocity": 81}, {"time": 3915, "pitch": 61, "duration": 6, "velocity": 74}, {"time": 3915, "pitch": 65, "duration": 6, "velocity": 81}, {"time": 3921, "pitch": 42, "duration": 6, "velocity": 85}, {"time": 3921, "pitch": 57, "duration": 3, "velocity": 79}, {"time": 3921, "pitch": 61, "duration": 7, "velocity": 82}, {"time": 3921, "pitch": 66, "duration": 7, "velocity": 77}, {"time": 3927, "pitch": 57, "duration": 2, "velocity": 75}, {"time": 3933, "pitch": 40, "duration": 9, "velocity": 84}, {"time": 3933, "pitch": 59, "duration": 3, "velocity": 76}, {"time": 3933, "pitch": 64, "duration": 7, "velocity": 80}, {"time": 3933, "pitch": 68, "duration": 7, "velocity": 76}, {"time": 3939, "pitch": 59, "duration": 4, "velocity": 80}, {"time": 3945, "pitch": 38, "duration": 10, "velocity": 77}, {"time": 3945, "pitch": 57, "duration": 4, "velocity": 80}, {"time": 3945, "pitch": 62, "duration": 9, "velocity": 73}, {"time": 3951, "pitch": 57, "duration": 4, "velocity": 81}, {"time": 3957, "pitch": 37, "duration": 12, "velocity": 81}, {"time": 3957, "pitch": 56, "duration": 3, "velocity": 75}, {"time": 3957, "pitch": 61, "duration": 11, "velocity": 78}, {"time": 3957, "pitch": 64, "duration": 11, "velocity": 84}, {"time": 3963, "pitch": 56, "duration": 6, "velocity": 81}, {"time": 3969, "pitch": 38, "duration": 9, "velocity": 84}, {"time": 3969, "pitch": 57, "duration": 3, "velocity": 80}, {"time": 3969, "pitch": 62, "duration": 8, "velocity": 81}, {"time": 3969, "pitch": 66, "duration": 8, "velocity": 76}, {"time": 3975, "pitch": 57, "duration": 3, "velocity": 75}, {"time": 3981, "pitch": 57, "duration": 2, "velocity": 82}, {"time": 3981, "pitch": 62, "duration": 4, "velocity": 86}, {"time": 3981, "pitch": 66, "duration": 8, "velocity": 82}, {"time": 3987, "pitch": 57, "duration": 4, "velocity": 84}, {"time": 3987, "pitch": 62, "duration": 2, "velocity": 44}, {"time": 3993, "pitch": 38, "duration": 8, "velocity": 86}, {"time": 3993, "pitch": 57, "duration": 3, "velocity": 81}, {"time": 3993, "pitch": 62, "duration": 8, "velocity": 82}, {"time": 3993, "pitch": 66, "duration": 8, "velocity": 80}, {"time": 3999, "pitch": 57, "duration": 4, "velocity": 73}, {"time": 4005, "pitch": 38, "duration": 4, "velocity": 83}, {"time": 4005, "pitch": 50, "duration": 3, "velocity": 80}, {"time": 4005, "pitch": 54, "duration": 3, "velocity": 71}, {"time": 4005, "pitch": 57, "duration": 3, "velocity": 75}, {"time": 4011, "pitch": 40, "duration": 21, "velocity": 89}, {"time": 4011, "pitch": 52, "duration": 9, "velocity": 81}, {"time": 4011, "pitch": 56, "duration": 9, "velocity": 76}, {"time": 4017, "pitch": 47, "duration": 14, "velocity": 74}, {"time": 4023, "pitch": 52, "duration": 2, "velocity": 72}, {"time": 4023, "pitch": 56, "duration": 2, "velocity": 51}, {"time": 4023, "pitch": 59, "duration": 3, "velocity": 71}, {"time": 4029, "pitch": 52, "duration": 2, "velocity": 85}, {"time": 4029, "pitch": 56, "duration": 2, "velocity": 85}, {"time": 4029, "pitch": 59, "duration": 2, "velocity": 89}, {"time": 4029, "pitch": 64, "duration": 3, "velocity": 85}, {"time": 4035, "pitch": 47, "duration": 2, "velocity": 51}, {"time": 4038, "pitch": 52, "duration": 2, "velocity": 81}, {"time": 4041, "pitch": 40, "duration": 23, "velocity": 82}, {"time": 4041, "pitch": 52, "duration": 10, "velocity": 82}, {"time": 4041, "pitch": 56, "duration": 10, "velocity": 76}, {"time": 4041, "pitch": 59, "duration": 10, "velocity": 76}, {"time": 4041, "pitch": 64, "duration": 10, "velocity": 81}, {"time": 4053, "pitch": 47, "duration": 4, "velocity": 75}, {"time": 4053, "pitch": 52, "duration": 2, "velocity": 82}, {"time": 4053, "pitch": 56, "duration": 6, "velocity": 79}, {"time": 4053, "pitch": 59, "duration": 7, "velocity": 80}, {"time": 4053, "pitch": 64, "duration": 6, "velocity": 81}, {"time": 4056, "pitch": 52, "duration": 4, "velocity": 87}, {"time": 4059, "pitch": 47, "duration": 6, "velocity": 82}, {"time": 4062, "pitch": 52, "duration": 3, "velocity": 89}, {"time": 4065, "pitch": 38, "duration": 14, "velocity": 87}, {"time": 4065, "pitch": 57, "duration": 7, "velocity": 76}, {"time": 4065, "pitch": 62, "duration": 8, "velocity": 77}, {"time": 4065, "pitch": 66, "duration": 10, "velocity": 78}, {"time": 4071, "pitch": 45, "duration": 9, "velocity": 66}, {"time": 4077, "pitch": 57, "duration": 3, "velocity": 80}, {"time": 4077, "pitch": 62, "duration": 5, "velocity": 80}, {"time": 4083, "pitch": 40, "duration": 21, "velocity": 83}, {"time": 4083, "pitch": 59, "duration": 8, "velocity": 80}, {"time": 4083, "pitch": 64, "duration": 7, "velocity": 82}, {"time": 4101, "pitch": 64, "duration": 11, "velocity": 81}, {"time": 4101, "pitch": 68, "duration": 11, "velocity": 80}, {"time": 4107, "pitch": 59, "duration": 6, "velocity": 79}, {"time": 4113, "pitch": 45, "duration": 16, "velocity": 82}, {"time": 4113, "pitch": 57, "duration": 8, "velocity": 76}, {"time": 4113, "pitch": 61, "duration": 7, "velocity": 80}, {"time": 4119, "pitch": 52, "duration": 8, "velocity": 80}, {"time": 4125, "pitch": 57, "duration": 1, "velocity": 68}, {"time": 4125, "pitch": 61, "duration": 5, "velocity": 83}, {"time": 4125, "pitch": 64, "duration": 5, "velocity": 82}, {"time": 4131, "pitch": 57, "duration": 4, "velocity": 73}, {"time": 4137, "pitch": 45, "duration": 16, "velocity": 65}, {"time": 4137, "pitch": 57, "duration": 5, "velocity": 69}, {"time": 4137, "pitch": 61, "duration": 7, "velocity": 68}, {"time": 4137, "pitch": 64, "duration": 7, "velocity": 79}, {"time": 4143, "pitch": 52, "duration": 9, "velocity": 64}, {"time": 4149, "pitch": 57, "duration": 2, "velocity": 77}, {"time": 4149, "pitch": 61, "duration": 5, "velocity": 84}, {"time": 4149, "pitch": 64, "duration": 6, "velocity": 82}, {"time": 4155, "pitch": 57, "duration": 3, "velocity": 75}, {"time": 4161, "pitch": 40, "duration": 20, "velocity": 81}, {"time": 4161, "pitch": 59, "duration": 8, "velocity": 70}, {"time": 4161, "pitch": 64, "duration": 8, "velocity": 66}, {"time": 4167, "pitch": 47, "duration": 10, "velocity": 62}, {"time": 4173, "pitch": 59, "duration": 2, "velocity": 80}, {"time": 4173, "pitch": 64, "duration": 3, "velocity": 81}, {"time": 4173, "pitch": 68, "duration": 6, "velocity": 72}, {"time": 4179, "pitch": 59, "duration": 3, "velocity": 70}, {"time": 4185, "pitch": 40, "duration": 16, "velocity": 76}, {"time": 4185, "pitch": 59, "duration": 6, "velocity": 75}, {"time": 4185, "pitch": 64, "duration": 7, "velocity": 79}, {"time": 4191, "pitch": 47, "duration": 9, "velocity": 58}, {"time": 4197, "pitch": 59, "duration": 3, "velocity": 78}, {"time": 4197, "pitch": 64, "duration": 7, "velocity": 82}, {"time": 4197, "pitch": 68, "duration": 6, "velocity": 80}, {"time": 4203, "pitch": 59, "duration": 3, "velocity": 82}, {"time": 4209, "pitch": 42, "duration": 21, "velocity": 82}, {"time": 4209, "pitch": 57, "duration": 8, "velocity": 74}, {"time": 4209, "pitch": 61, "duration": 9, "velocity": 76}, {"time": 4215, "pitch": 49, "duration": 16, "velocity": 62}, {"time": 4221, "pitch": 61, "duration": 3, "velocity": 86}, {"time": 4221, "pitch": 66, "duration": 2, "velocity": 76}, {"time": 4227, "pitch": 57, "duration": 5, "velocity": 76}, {"time": 4233, "pitch": 42, "duration": 17, "velocity": 82}, {"time": 4233, "pitch": 57, "duration": 9, "velocity": 75}, {"time": 4233, "pitch": 61, "duration": 9, "velocity": 69}, {"time": 4239, "pitch": 49, "duration": 10, "velocity": 69}, {"time": 4245, "pitch": 61, "duration": 7, "velocity": 87}, {"time": 4245, "pitch": 66, "duration": 7, "velocity": 80}, {"time": 4251, "pitch": 57, "duration": 4, "velocity": 81}, {"time": 4257, "pitch": 50, "duration": 22, "velocity": 80}, {"time": 4257, "pitch": 57, "duration": 4, "velocity": 71}, {"time": 4257, "pitch": 62, "duration": 8, "velocity": 78}, {"time": 4263, "pitch": 57, "duration": 4, "velocity": 77}, {"time": 4269, "pitch": 57, "duration": 3, "velocity": 80}, {"time": 4269, "pitch": 62, "duration": 9, "velocity": 81}, {"time": 4269, "pitch": 66, "duration": 10, "velocity": 75}, {"time": 4275, "pitch": 57, "duration": 3, "velocity": 71}, {"time": 4281, "pitch": 52, "duration": 7, "velocity": 85}, {"time": 4281, "pitch": 59, "duration": 4, "velocity": 76}, {"time": 4281, "pitch": 64, "duration": 5, "velocity": 81}, {"time": 4287, "pitch": 59, "duration": 8, "velocity": 81}, {"time": 4293, "pitch": 40, "duration": 5, "velocity": 82}, {"time": 4293, "pitch": 64, "duration": 6, "velocity": 80}, {"time": 4293, "pitch": 68, "duration": 6, "velocity": 69}, {"time": 4299, "pitch": 59, "duration": 2, "velocity": 83}, {"time": 4305, "pitch": 45, "duration": 20, "velocity": 80}, {"time": 4305, "pitch": 57, "duration": 7, "velocity": 72}, {"time": 4305, "pitch": 61, "duration": 7, "velocity": 67}, {"time": 4305, "pitch": 64, "duration": 7, "velocity": 78}, {"time": 4311, "pitch": 52, "duration": 14, "velocity": 71}, {"time": 4317, "pitch": 61, "duration": 3, "velocity": 84}, {"time": 4317, "pitch": 64, "duration": 2, "velocity": 81}, {"time": 4323, "pitch": 57, "duration": 8, "velocity": 72}, {"time": 4329, "pitch": 45, "duration": 16, "velocity": 80}, {"time": 4329, "pitch": 61, "duration": 6, "velocity": 70}, {"time": 4329, "pitch": 64, "duration": 6, "velocity": 82}, {"time": 4335, "pitch": 52, "duration": 9, "velocity": 66}, {"time": 4341, "pitch": 57, "duration": 3, "velocity": 76}, {"time": 4341, "pitch": 61, "duration": 6, "velocity": 83}, {"time": 4341, "pitch": 64, "duration": 7, "velocity": 82}, {"time": 4347, "pitch": 57, "duration": 2, "velocity": 65}, {"time": 4353, "pitch": 40, "duration": 22, "velocity": 81}, {"time": 4353, "pitch": 59, "duration": 3, "velocity": 74}, {"time": 4353, "pitch": 64, "duration": 9, "velocity": 80}, {"time": 4359, "pitch": 59, "duration": 5, "velocity": 72}, {"time": 4365, "pitch": 64, "duration": 7, "velocity": 81}, {"time": 4365, "pitch": 68, "duration": 5, "velocity": 80}, {"time": 4371, "pitch": 59, "duration": 8, "velocity": 82}, {"time": 4377, "pitch": 40, "duration": 17, "velocity": 83}, {"time": 4377, "pitch": 64, "duration": 8, "velocity": 81}, {"time": 4383, "pitch": 47, "duration": 9, "velocity": 62}, {"time": 4383, "pitch": 59, "duration": 4, "velocity": 78}, {"time": 4389, "pitch": 59, "duration": 3, "velocity": 82}, {"time": 4389, "pitch": 64, "duration": 3, "velocity": 83}, {"time": 4389, "pitch": 68, "duration": 4, "velocity": 75}, {"time": 4401, "pitch": 42, "duration": 21, "velocity": 82}, {"time": 4401, "pitch": 61, "duration": 7, "velocity": 85}, {"time": 4407, "pitch": 57, "duration": 7, "velocity": 81}, {"time": 4413, "pitch": 49, "duration": 10, "velocity": 66}, {"time": 4413, "pitch": 61, "duration": 7, "velocity": 80}, {"time": 4413, "pitch": 66, "duration": 7, "velocity": 81}, {"time": 4419, "pitch": 57, "duration": 8, "velocity": 80}, {"time": 4425, "pitch": 42, "duration": 9, "velocity": 74}, {"time": 4425, "pitch": 61, "duration": 7, "velocity": 80}, {"time": 4431, "pitch": 57, "duration": 3, "velocity": 75}, {"time": 4437, "pitch": 61, "duration": 7, "velocity": 82}, {"time": 4437, "pitch": 66, "duration": 7, "velocity": 81}, {"time": 4443, "pitch": 57, "duration": 4, "velocity": 81}, {"time": 4449, "pitch": 50, "duration": 11, "velocity": 82}, {"time": 4449, "pitch": 57, "duration": 3, "velocity": 79}, {"time": 4449, "pitch": 62, "duration": 8, "velocity": 81}, {"time": 4455, "pitch": 57, "duration": 3, "velocity": 69}, {"time": 4461, "pitch": 57, "duration": 1, "velocity": 62}, {"time": 4461, "pitch": 62, "duration": 10, "velocity": 81}, {"time": 4461, "pitch": 66, "duration": 8, "velocity": 73}, {"time": 4467, "pitch": 33, "duration": 6, "velocity": 73}, {"time": 4473, "pitch": 38, "duration": 33, "velocity": 81}, {"time": 4473, "pitch": 57, "duration": 19, "velocity": 74}, {"time": 4473, "pitch": 62, "duration": 25, "velocity": 80}, {"time": 4473, "pitch": 66, "duration": 24, "velocity": 77}], "annotations": [{"time": 19, "annotation": {"number": 64, "value": 127}, "group": "control_change"}, {"time": 20, "annotation": {"number": 64, "value": 0}, "group": "control_change"}, {"time": 20, "annotation": {"number": 64, "value": 127}, "group": "control_change"}, {"time": 30, "annotation": {"number": 64, "value": 0}, "group": "control_change"}, {"time": 35, "annotation": {"number": 64, "value": 127}, "group": "control_change"}, {"time": 80, "annotation": {"number": 64, "value": 0}, "group": "control_change"}, {"time": 82, "annotation": {"number": 64, "value": 127}, "group": "control_change"}, {"time": 127, "annotation": {"number": 64, "value": 0}, "group": "control_change"}, {"time": 129, "annotation": {"number": 64, "value": 0}, "group": "control_change"}, {"time": 130, "annotation": {"number": 64, "value": 127}, "group": "control_change"}, {"time": 132, "annotation": {"number": 64, "value": 127}, "group": "control_change"}, {"time": 137, "annotation": {"number": 64, "value": 0}, "group": "control_change"}, {"time": 176, "annotation": {"number": 64, "value": 0}, "group": "control_change"}, {"time": 178, "annotation": {"number": 64, "value": 127}, "group": "control_change"}, {"time": 222, "annotation": {"number": 64, "value": 0}, "group": "control_change"}, {"time": 272, "annotation": {"number": 64, "value": 0}, "group": "control_change"}, {"time": 275, "annotation": {"number": 64, "value": 127}, "group": "control_change"}, {"time": 296, "annotation": {"number": 64, "value": 0}, "group": "control_change"}, {"time": 298, "annotation": {"number": 64, "value": 127}, "group": "control_change"}, {"time": 320, "annotation": {"number": 64, "value": 0}, "group": "control_change"}, {"time": 321, "annotation": {"number": 64, "value": 127}, "group": "control_change"}, {"time": 321, "annotation": {"number": 64, "value": 0}, "group": "control_change"}, {"time": 322, "annotation": {"number": 64, "value": 127}, "group": "control_change"}, {"time": 354, "annotation": {"number": 64, "value": 0}, "group": "control_change"}, {"time": 356, "annotation": {"number": 64, "value": 127}, "group": "control_change"}, {"time": 369, "annotation": {"number": 64, "value": 0}, "group": "control_change"}, {"time": 370, "annotation": {"number": 64, "value": 127}, "group": "control_change"}, {"time": 392, "annotation": {"number": 64, "value": 0}, "group": "control_change"}, {"time": 394, "annotation": {"number": 64, "value": 127}, "group": "control_change"}, {"time": 416, "annotation": {"number": 64, "value": 0}, "group": "control_change"}, {"time": 421, "annotation": {"number": 64, "value": 127}, "group": "control_change"}, {"time": 465, "annotation": {"number": 64, "value": 0}, "group": "control_change"}, {"time": 467, "annotation": {"number": 64, "value": 127}, "group": "control_change"}, {"time": 488, "annotation": {"number": 64, "value": 0}, "group": "control_change"}, {"time": 490, "annotation": {"number": 64, "value": 127}, "group": "control_change"}, {"time": 512, "annotation": {"number": 64, "value": 0}, "group": "control_change"}, {"time": 514, "annotation": {"number": 64, "value": 127}, "group": "control_change"}, {"time": 536, "annotation": {"number": 64, "value": 0}, "group": "control_change"}, {"time": 538, "annotation": {"number": 64, "value": 127}, "group": "control_change"}, {"time": 560, "annotation": {"number": 64, "value": 0}, "group": "control_change"}, {"time": 562, "annotation": {"number": 64, "value": 127}, "group": "control_change"}, {"time": 583, "annotation": {"number": 64, "value": 0}, "group": "control_change"}, {"time": 585, "annotation": {"number": 64, "value": 127}, "group": "control_change"}, {"time": 607, "annotation": {"number": 64, "value": 0}, "group": "control_change"}, {"time": 656, "annotation": {"number": 64, "value": 0}, "group": "control_change"}, {"time": 659, "annotation": {"number": 64, "value": 127}, "group": "control_change"}, {"time": 680, "annotation": {"number": 64, "value": 0}, "group": "control_change"}, {"time": 682, "annotation": {"number": 64, "value": 127}, "group": "control_change"}, {"time": 704, "annotation": {"number": 64, "value": 0}, "group": "control_change"}, {"time": 705, "annotation": {"number": 64, "value": 127}, "group": "control_change"}, {"time": 705, "annotation": {"number": 64, "value": 0}, "group": "control_change"}, {"time": 706, "annotation": {"number": 64, "value": 127}, "group": "control_change"}, {"time": 738, "annotation": {"number": 64, "value": 0}, "group": "control_change"}, {"time": 740, "annotation": {"number": 64, "value": 127}, "group": "control_change"}, {"time": 753, "annotation": {"number": 64, "value": 0}, "group": "control_change"}, {"time": 754, "annotation": {"number": 64, "value": 127}, "group": "control_change"}, {"time": 776, "annotation": {"number": 64, "value": 0}, "group": "control_change"}, {"time": 778, "annotation": {"number": 64, "value": 127}, "group": "control_change"}, {"time": 800, "annotation": {"number": 64, "value": 0}, "group": "control_change"}, {"time": 805, "annotation": {"number": 64, "value": 127}, "group": "control_change"}, {"time": 849, "annotation": {"number": 64, "value": 0}, "group": "control_change"}, {"time": 851, "annotation": {"number": 64, "value": 127}, "group": "control_change"}, {"time": 872, "annotation": {"number": 64, "value": 0}, "group": "control_change"}, {"time": 874, "annotation": {"number": 64, "value": 127}, "group": "control_change"}, {"time": 896, "annotation": {"number": 64, "value": 0}, "group": "control_change"}, {"time": 898, "annotation": {"number": 64, "value": 127}, "group": "control_change"}, {"time": 920, "annotation": {"number": 64, "value": 0}, "group": "control_change"}, {"time": 922, "annotation": {"number": 64, "value": 127}, "group": "control_change"}, {"time": 944, "annotation": {"number": 64, "value": 0}, "group": "control_change"}, {"time": 946, "annotation": {"number": 64, "value": 127}, "group": "control_change"}, {"time": 967, "annotation": {"number": 64, "value": 0}, "group": "control_change"}, {"time": 969, "annotation": {"number": 64, "value": 127}, "group": "control_change"}, {"time": 991, "annotation": {"number": 64, "value": 0}, "group": "control_change"}, {"time": 994, "annotation": {"number": 64, "value": 127}, "group": "control_change"}, {"time": 994, "annotation": {"number": 64, "value": 0}, "group": "control_change"}, {"time": 1004, "annotation": {"number": 64, "value": 0}, "group": "control_change"}, {"time": 1006, "annotation": {"number": 64, "value": 127}, "group": "control_change"}, {"time": 1016, "annotation": {"number": 64, "value": 0}, "group": "control_change"}, {"time": 1017, "annotation": {"number": 64, "value": 127}, "group": "control_change"}, {"time": 1027, "annotation": {"number": 64, "value": 0}, "group": "control_change"}, {"time": 1029, "annotation": {"number": 64, "value": 127}, "group": "control_change"}, {"time": 1039, "annotation": {"number": 64, "value": 0}, "group": "control_change"}, {"time": 1042, "annotation": {"number": 64, "value": 127}, "group": "control_change"}, {"time": 1052, "annotation": {"number": 64, "value": 0}, "group": "control_change"}, {"time": 1054, "annotation": {"number": 64, "value": 127}, "group": "control_change"}, {"time": 1063, "annotation": {"number": 64, "value": 0}, "group": "control_change"}, {"time": 1065, "annotation": {"number": 64, "value": 127}, "group": "control_change"}, {"time": 1081, "annotation": {"number": 64, "value": 0}, "group": "control_change"}, {"time": 1090, "annotation": {"number": 64, "value": 127}, "group": "control_change"}, {"time": 1100, "annotation": {"number": 64, "value": 0}, "group": "control_change"}, {"time": 1102, "annotation": {"number": 64, "value": 127}, "group": "control_change"}, {"time": 1111, "annotation": {"number": 64, "value": 0}, "group": "control_change"}, {"time": 1113, "annotation": {"number": 64, "value": 127}, "group": "control_change"}, {"time": 1132, "annotation": {"number": 64, "value": 0}, "group": "control_change"}, {"time": 1138, "annotation": {"number": 64, "value": 127}, "group": "control_change"}, {"time": 1145, "annotation": {"number": 64, "value": 0}, "group": "control_change"}, {"time": 1147, "annotation": {"number": 64, "value": 127}, "group": "control_change"}, {"time": 1153, "annotation": {"number": 64, "value": 0}, "group": "control_change"}, {"time": 1155, "annotation": {"number": 64, "value": 127}, "group": "control_change"}, {"time": 1160, "annotation": {"number": 64, "value": 0}, "group": "control_change"}, {"time": 1186, "annotation": {"number": 64, "value": 127}, "group": "control_change"}, {"time": 1207, "annotation": {"number": 64, "value": 0}, "group": "control_change"}, {"time": 1209, "annotation": {"number": 64, "value": 127}, "group": "control_change"}, {"time": 1232, "annotation": {"number": 64, "value": 0}, "group": "control_change"}, {"time": 1233, "annotation": {"number": 64, "value": 127}, "group": "control_change"}, {"time": 1249, "annotation": {"number": 64, "value": 0}, "group": "control_change"}, {"time": 1251, "annotation": {"number": 64, "value": 127}, "group": "control_change"}, {"time": 1256, "annotation": {"number": 64, "value": 0}, "group": "control_change"}, {"time": 1257, "annotation": {"number": 64, "value": 127}, "group": "control_change"}, {"time": 1277, "annotation": {"number": 64, "value": 0}, "group": "control_change"}, {"time": 1283, "annotation": {"number": 64, "value": 127}, "group": "control_change"}, {"time": 1292, "annotation": {"number": 64, "value": 0}, "group": "control_change"}, {"time": 1294, "annotation": {"number": 64, "value": 127}, "group": "control_change"}, {"time": 1303, "annotation": {"number": 64, "value": 0}, "group": "control_change"}, {"time": 1305, "annotation": {"number": 64, "value": 127}, "group": "control_change"}, {"time": 1332, "annotation": {"number": 64, "value": 0}, "group": "control_change"}, {"time": 1424, "annotation": {"number": 64, "value": 0}, "group": "control_change"}, {"time": 1425, "annotation": {"number": 64, "value": 127}, "group": "control_change"}, {"time": 1425, "annotation": {"number": 64, "value": 0}, "group": "control_change"}, {"time": 1447, "annotation": {"number": 64, "value": 0}, "group": "control_change"}, {"time": 1448, "annotation": {"number": 64, "value": 127}, "group": "control_change"}, {"time": 1471, "annotation": {"number": 64, "value": 0}, "group": "control_change"}, {"time": 1474, "annotation": {"number": 64, "value": 127}, "group": "control_change"}, {"time": 1519, "annotation": {"number": 64, "value": 0}, "group": "control_change"}, {"time": 1522, "annotation": {"number": 64, "value": 127}, "group": "control_change"}, {"time": 1543, "annotation": {"number": 64, "value": 0}, "group": "control_change"}, {"time": 1545, "annotation": {"number": 64, "value": 127}, "group": "control_change"}, {"time": 1568, "annotation": {"number": 64, "value": 0}, "group": "control_change"}, {"time": 1569, "annotation": {"number": 64, "value": 127}, "group": "control_change"}, {"time": 1592, "annotation": {"number": 64, "value": 0}, "group": "control_change"}, {"time": 1593, "annotation": {"number": 64, "value": 127}, "group": "control_change"}, {"time": 1615, "annotation": {"number": 64, "value": 0}, "group": "control_change"}, {"time": 1617, "annotation": {"number": 64, "value": 127}, "group": "control_change"}, {"time": 1617, "annotation": {"number": 64, "value": 0}, "group": "control_change"}, {"time": 1627, "annotation": {"number": 64, "value": 0}, "group": "control_change"}, {"time": 1629, "annotation": {"number": 64, "value": 127}, "group": "control_change"}, {"time": 1640, "annotation": {"number": 64, "value": 0}, "group": "control_change"}, {"time": 1643, "annotation": {"number": 64, "value": 127}, "group": "control_change"}, {"time": 1652, "annotation": {"number": 64, "value": 0}, "group": "control_change"}, {"time": 1653, "annotation": {"number": 64, "value": 127}, "group": "control_change"}, {"time": 1663, "annotation": {"number": 64, "value": 0}, "group": "control_change"}, {"time": 1664, "annotation": {"number": 64, "value": 127}, "group": "control_change"}, {"time": 1688, "annotation": {"number": 64, "value": 0}, "group": "control_change"}, {"time": 1689, "annotation": {"number": 64, "value": 127}, "group": "control_change"}, {"time": 1700, "annotation": {"number": 64, "value": 127}, "group": "control_change"}, {"time": 1700, "annotation": {"number": 64, "value": 0}, "group": "control_change"}, {"time": 1709, "annotation": {"number": 64, "value": 0}, "group": "control_change"}, {"time": 1712, "annotation": {"number": 64, "value": 127}, "group": "control_change"}, {"time": 1739, "annotation": {"number": 64, "value": 0}, "group": "control_change"}, {"time": 1741, "annotation": {"number": 64, "value": 127}, "group": "control_change"}, {"time": 1759, "annotation": {"number": 64, "value": 0}, "group": "control_change"}, {"time": 1808, "annotation": {"number": 64, "value": 0}, "group": "control_change"}, {"time": 1809, "annotation": {"number": 64, "value": 127}, "group": "control_change"}, {"time": 1809, "annotation": {"number": 64, "value": 0}, "group": "control_change"}, {"time": 1831, "annotation": {"number": 64, "value": 0}, "group": "control_change"}, {"time": 1832, "annotation": {"number": 64, "value": 127}, "group": "control_change"}, {"time": 1855, "annotation": {"number": 64, "value": 0}, "group": "control_change"}, {"time": 1858, "annotation": {"number": 64, "value": 127}, "group": "control_change"}, {"time": 1903, "annotation": {"number": 64, "value": 0}, "group": "control_change"}, {"time": 1906, "annotation": {"number": 64, "value": 127}, "group": "control_change"}, {"time": 1927, "annotation": {"number": 64, "value": 0}, "group": "control_change"}, {"time": 1929, "annotation": {"number": 64, "value": 127}, "group": "control_change"}, {"time": 1952, "annotation": {"number": 64, "value": 0}, "group": "control_change"}, {"time": 1953, "annotation": {"number": 64, "value": 127}, "group": "control_change"}, {"time": 1976, "annotation": {"number": 64, "value": 0}, "group": "control_change"}, {"time": 1977, "annotation": {"number": 64, "value": 127}, "group": "control_change"}, {"time": 1999, "annotation": {"number": 64, "value": 0}, "group": "control_change"}, {"time": 2001, "annotation": {"number": 64, "value": 127}, "group": "control_change"}, {"time": 2001, "annotation": {"number": 64, "value": 0}, "group": "control_change"}, {"time": 2011, "annotation": {"number": 64, "value": 0}, "group": "control_change"}, {"time": 2013, "annotation": {"number": 64, "value": 127}, "group": "control_change"}, {"time": 2024, "annotation": {"number": 64, "value": 0}, "group": "control_change"}, {"time": 2027, "annotation": {"number": 64, "value": 127}, "group": "control_change"}, {"time": 2036, "annotation": {"number": 64, "value": 0}, "group": "control_change"}, {"time": 2037, "annotation": {"number": 64, "value": 127}, "group": "control_change"}, {"time": 2047, "annotation": {"number": 64, "value": 0}, "group": "control_change"}, {"time": 2048, "annotation": {"number": 64, "value": 127}, "group": "control_change"}, {"time": 2072, "annotation": {"number": 64, "value": 0}, "group": "control_change"}, {"time": 2073, "annotation": {"number": 64, "value": 127}, "group": "control_change"}, {"time": 2084, "annotation": {"number": 64, "value": 127}, "group": "control_change"}, {"time": 2084, "annotation": {"number": 64, "value": 0}, "group": "control_change"}, {"time": 2093, "annotation": {"number": 64, "value": 0}, "group": "control_change"}, {"time": 2096, "annotation": {"number": 64, "value": 127}, "group": "control_change"}, {"time": 2123, "annotation": {"number": 64, "value": 0}, "group": "control_change"}, {"time": 2125, "annotation": {"number": 64, "value": 127}, "group": "control_change"}, {"time": 2143, "annotation": {"number": 64, "value": 0}, "group": "control_change"}, {"time": 2192, "annotation": {"number": 64, "value": 0}, "group": "control_change"}, {"time": 2195, "annotation": {"number": 64, "value": 127}, "group": "control_change"}, {"time": 2216, "annotation": {"number": 64, "value": 0}, "group": "control_change"}, {"time": 2218, "annotation": {"number": 64, "value": 127}, "group": "control_change"}, {"time": 2240, "annotation": {"number": 64, "value": 0}, "group": "control_change"}, {"time": 2241, "annotation": {"number": 64, "value": 127}, "group": "control_change"}, {"time": 2241, "annotation": {"number": 64, "value": 0}, "group": "control_change"}, {"time": 2242, "annotation": {"number": 64, "value": 127}, "group": "control_change"}, {"time": 2274, "annotation": {"number": 64, "value": 0}, "group": "control_change"}, {"time": 2276, "annotation": {"number": 64, "value": 127}, "group": "control_change"}, {"time": 2289, "annotation": {"number": 64, "value": 0}, "group": "control_change"}, {"time": 2290, "annotation": {"number": 64, "value": 127}, "group": "control_change"}, {"time": 2312, "annotation": {"number": 64, "value": 0}, "group": "control_change"}, {"time": 2314, "annotation": {"number": 64, "value": 127}, "group": "control_change"}, {"time": 2336, "annotation": {"number": 64, "value": 0}, "group": "control_change"}, {"time": 2341, "annotation": {"number": 64, "value": 127}, "group": "control_change"}, {"time": 2385, "annotation": {"number": 64, "value": 0}, "group": "control_change"}, {"time": 2387, "annotation": {"number": 64, "value": 127}, "group": "control_change"}, {"time": 2408, "annotation": {"number": 64, "value": 0}, "group": "control_change"}, {"time": 2410, "annotation": {"number": 64, "value": 127}, "group": "control_change"}, {"time": 2432, "annotation": {"number": 64, "value": 0}, "group": "control_change"}, {"time": 2434, "annotation": {"number": 64, "value": 127}, "group": "control_change"}, {"time": 2456, "annotation": {"number": 64, "value": 0}, "group": "control_change"}, {"time": 2458, "annotation": {"number": 64, "value": 127}, "group": "control_change"}, {"time": 2480, "annotation": {"number": 64, "value": 0}, "group": "control_change"}, {"time": 2482, "annotation": {"number": 64, "value": 127}, "group": "control_change"}, {"time": 2503, "annotation": {"number": 64, "value": 0}, "group": "control_change"}, {"time": 2505, "annotation": {"number": 64, "value": 127}, "group": "control_change"}, {"time": 2527, "annotation": {"number": 64, "value": 0}, "group": "control_change"}, {"time": 2576, "annotation": {"number": 64, "value": 0}, "group": "control_change"}, {"time": 2579, "annotation": {"number": 64, "value": 127}, "group": "control_change"}, {"time": 2600, "annotation": {"number": 64, "value": 0}, "group": "control_change"}, {"time": 2602, "annotation": {"number": 64, "value": 127}, "group": "control_change"}, {"time": 2624, "annotation": {"number": 64, "value": 0}, "group": "control_change"}, {"time": 2625, "annotation": {"number": 64, "value": 127}, "group": "control_change"}, {"time": 2625, "annotation": {"number": 64, "value": 0}, "group": "control_change"}, {"time": 2626, "annotation": {"number": 64, "value": 127}, "group": "control_change"}, {"time": 2658, "annotation": {"number": 64, "value": 0}, "group": "control_change"}, {"time": 2660, "annotation": {"number": 64, "value": 127}, "group": "control_change"}, {"time": 2673, "annotation": {"number": 64, "value": 0}, "group": "control_change"}, {"time": 2674, "annotation": {"number": 64, "value": 127}, "group": "control_change"}, {"time": 2696, "annotation": {"number": 64, "value": 0}, "group": "control_change"}, {"time": 2698, "annotation": {"number": 64, "value": 127}, "group": "control_change"}, {"time": 2720, "annotation": {"number": 64, "value": 0}, "group": "control_change"}, {"time": 2725, "annotation": {"number": 64, "value": 127}, "group": "control_change"}, {"time": 2769, "annotation": {"number": 64, "value": 0}, "group": "control_change"}, {"time": 2771, "annotation": {"number": 64, "value": 127}, "group": "control_change"}, {"time": 2792, "annotation": {"number": 64, "value": 0}, "group": "control_change"}, {"time": 2794, "annotation": {"number": 64, "value": 127}, "group": "control_change"}, {"time": 2816, "annotation": {"number": 64, "value": 0}, "group": "control_change"}, {"time": 2818, "annotation": {"number": 64, "value": 127}, "group": "control_change"}, {"time": 2840, "annotation": {"number": 64, "value": 0}, "group": "control_change"}, {"time": 2842, "annotation": {"number": 64, "value": 127}, "group": "control_change"}, {"time": 2864, "annotation": {"number": 64, "value": 0}, "group": "control_change"}, {"time": 2866, "annotation": {"number": 64, "value": 127}, "group": "control_change"}, {"time": 2887, "annotation": {"number": 64, "value": 0}, "group": "control_change"}, {"time": 2889, "annotation": {"number": 64, "value": 127}, "group": "control_change"}, {"time": 2911, "annotation": {"number": 64, "value": 0}, "group": "control_change"}, {"time": 2914, "annotation": {"number": 64, "value": 127}, "group": "control_change"}, {"time": 2914, "annotation": {"number": 64, "value": 0}, "group": "control_change"}, {"time": 2924, "annotation": {"number": 64, "value": 0}, "group": "control_change"}, {"time": 2926, "annotation": {"number": 64, "value": 127}, "group": "control_change"}, {"time": 2936, "annotation": {"number": 64, "value": 0}, "group": "control_change"}, {"time": 2937, "annotation": {"number": 64, "value": 127}, "group": "control_change"}, {"time": 2947, "annotation": {"number": 64, "value": 0}, "group": "control_change"}, {"time": 2949, "annotation": {"number": 64, "value": 127}, "group": "control_change"}, {"time": 2959, "annotation": {"number": 64, "value": 0}, "group": "control_change"}, {"time": 2962, "annotation": {"number": 64, "value": 127}, "group": "control_change"}, {"time": 2972, "annotation": {"number": 64, "value": 0}, "group": "control_change"}, {"time": 2974, "annotation": {"number": 64, "value": 127}, "group": "control_change"}, {"time": 2983, "annotation": {"number": 64, "value": 0}, "group": "control_change"}, {"time": 2985, "annotation": {"number": 64, "value": 127}, "group": "control_change"}, {"time": 3001, "annotation": {"number": 64, "value": 0}, "group": "control_change"}, {"time": 3010, "annotation": {"number": 64, "value": 127}, "group": "control_change"}, {"time": 3020, "annotation": {"number": 64, "value": 0}, "group": "control_change"}, {"time": 3022, "annotation": {"number": 64, "value": 127}, "group": "control_change"}, {"time": 3031, "annotation": {"number": 64, "value": 0}, "group": "control_change"}, {"time": 3033, "annotation": {"number": 64, "value": 127}, "group": "control_change"}, {"time": 3052, "annotation": {"number": 64, "value": 0}, "group": "control_change"}, {"time": 3058, "annotation": {"number": 64, "value": 127}, "group": "control_change"}, {"time": 3065, "annotation": {"number": 64, "value": 0}, "group": "control_change"}, {"time": 3067, "annotation": {"number": 64, "value": 127}, "group": "control_change"}, {"time": 3073, "annotation": {"number": 64, "value": 0}, "group": "control_change"}, {"time": 3075, "annotation": {"number": 64, "value": 127}, "group": "control_change"}, {"time": 3080, "annotation": {"number": 64, "value": 0}, "group": "control_change"}, {"time": 3106, "annotation": {"number": 64, "value": 127}, "group": "control_change"}, {"time": 3127, "annotation": {"number": 64, "value": 0}, "group": "control_change"}, {"time": 3129, "annotation": {"number": 64, "value": 127}, "group": "control_change"}, {"time": 3152, "annotation": {"number": 64, "value": 0}, "group": "control_change"}, {"time": 3153, "annotation": {"number": 64, "value": 127}, "group": "control_change"}, {"time": 3169, "annotation": {"number": 64, "value": 0}, "group": "control_change"}, {"time": 3171, "annotation": {"number": 64, "value": 127}, "group": "control_change"}, {"time": 3176, "annotation": {"number": 64, "value": 0}, "group": "control_change"}, {"time": 3177, "annotation": {"number": 64, "value": 127}, "group": "control_change"}, {"time": 3197, "annotation": {"number": 64, "value": 0}, "group": "control_change"}, {"time": 3203, "annotation": {"number": 64, "value": 127}, "group": "control_change"}, {"time": 3212, "annotation": {"number": 64, "value": 0}, "group": "control_change"}, {"time": 3214, "annotation": {"number": 64, "value": 127}, "group": "control_change"}, {"time": 3223, "annotation": {"number": 64, "value": 0}, "group": "control_change"}, {"time": 3225, "annotation": {"number": 64, "value": 127}, "group": "control_change"}, {"time": 3252, "annotation": {"number": 64, "value": 0}, "group": "control_change"}, {"time": 3344, "annotation": {"number": 64, "value": 0}, "group": "control_change"}, {"time": 3345, "annotation": {"number": 64, "value": 127}, "group": "control_change"}, {"time": 3345, "annotation": {"number": 64, "value": 0}, "group": "control_change"}, {"time": 3367, "annotation": {"number": 64, "value": 0}, "group": "control_change"}, {"time": 3368, "annotation": {"number": 64, "value": 127}, "group": "control_change"}, {"time": 3391, "annotation": {"number": 64, "value": 0}, "group": "control_change"}, {"time": 3394, "annotation": {"number": 64, "value": 127}, "group": "control_change"}, {"time": 3439, "annotation": {"number": 64, "value": 0}, "group": "control_change"}, {"time": 3442, "annotation": {"number": 64, "value": 127}, "group": "control_change"}, {"time": 3463, "annotation": {"number": 64, "value": 0}, "group": "control_change"}, {"time": 3465, "annotation": {"number": 64, "value": 127}, "group": "control_change"}, {"time": 3488, "annotation": {"number": 64, "value": 0}, "group": "control_change"}, {"time": 3489, "annotation": {"number": 64, "value": 127}, "group": "control_change"}, {"time": 3512, "annotation": {"number": 64, "value": 0}, "group": "control_change"}, {"time": 3513, "annotation": {"number": 64, "value": 127}, "group": "control_change"}, {"time": 3535, "annotation": {"number": 64, "value": 0}, "group": "control_change"}, {"time": 3537, "annotation": {"number": 64, "value": 127}, "group": "control_change"}, {"time": 3537, "annotation": {"number": 64, "value": 0}, "group": "control_change"}, {"time": 3547, "annotation": {"number": 64, "value": 0}, "group": "control_change"}, {"time": 3549, "annotation": {"number": 64, "value": 127}, "group": "control_change"}, {"time": 3560, "annotation": {"number": 64, "value": 0}, "group": "control_change"}, {"time": 3563, "annotation": {"number": 64, "value": 127}, "group": "control_change"}, {"time": 3572, "annotation": {"number": 64, "value": 0}, "group": "control_change"}, {"time": 3573, "annotation": {"number": 64, "value": 127}, "group": "control_change"}, {"time": 3583, "annotation": {"number": 64, "value": 0}, "group": "control_change"}, {"time": 3584, "annotation": {"number": 64, "value": 127}, "group": "control_change"}, {"time": 3608, "annotation": {"number": 64, "value": 0}, "group": "control_change"}, {"time": 3609, "annotation": {"number": 64, "value": 127}, "group": "control_change"}, {"time": 3620, "annotation": {"number": 64, "value": 127}, "group": "control_change"}, {"time": 3620, "annotation": {"number": 64, "value": 0}, "group": "control_change"}, {"time": 3629, "annotation": {"number": 64, "value": 0}, "group": "control_change"}, {"time": 3632, "annotation": {"number": 64, "value": 127}, "group": "control_change"}, {"time": 3659, "annotation": {"number": 64, "value": 0}, "group": "control_change"}, {"time": 3661, "annotation": {"number": 64, "value": 127}, "group": "control_change"}, {"time": 3679, "annotation": {"number": 64, "value": 0}, "group": "control_change"}, {"time": 3728, "annotation": {"number": 64, "value": 0}, "group": "control_change"}, {"time": 3730, "annotation": {"number": 64, "value": 127}, "group": "control_change"}, {"time": 3776, "annotation": {"number": 64, "value": 0}, "group": "control_change"}, {"time": 3778, "annotation": {"number": 64, "value": 127}, "group": "control_change"}, {"time": 3824, "annotation": {"number": 64, "value": 0}, "group": "control_change"}, {"time": 3826, "annotation": {"number": 64, "value": 127}, "group": "control_change"}, {"time": 3870, "annotation": {"number": 64, "value": 0}, "group": "control_change"}, {"time": 3896, "annotation": {"number": 64, "value": 0}, "group": "control_change"}, {"time": 3897, "annotation": {"number": 64, "value": 127}, "group": "control_change"}, {"time": 3919, "annotation": {"number": 64, "value": 0}, "group": "control_change"}, {"time": 3921, "annotation": {"number": 64, "value": 127}, "group": "control_change"}, {"time": 3921, "annotation": {"number": 64, "value": 0}, "group": "control_change"}, {"time": 3931, "annotation": {"number": 64, "value": 0}, "group": "control_change"}, {"time": 3933, "annotation": {"number": 64, "value": 127}, "group": "control_change"}, {"time": 3944, "annotation": {"number": 64, "value": 0}, "group": "control_change"}, {"time": 3947, "annotation": {"number": 64, "value": 127}, "group": "control_change"}, {"time": 3956, "annotation": {"number": 64, "value": 0}, "group": "control_change"}, {"time": 3957, "annotation": {"number": 64, "value": 127}, "group": "control_change"}, {"time": 3967, "annotation": {"number": 64, "value": 0}, "group": "control_change"}, {"time": 3968, "annotation": {"number": 64, "value": 127}, "group": "control_change"}, {"time": 3992, "annotation": {"number": 64, "value": 0}, "group": "control_change"}, {"time": 3993, "annotation": {"number": 64, "value": 127}, "group": "control_change"}, {"time": 4004, "annotation": {"number": 64, "value": 127}, "group": "control_change"}, {"time": 4004, "annotation": {"number": 64, "value": 0}, "group": "control_change"}, {"time": 4013, "annotation": {"number": 64, "value": 0}, "group": "control_change"}, {"time": 4016, "annotation": {"number": 64, "value": 127}, "group": "control_change"}, {"time": 4043, "annotation": {"number": 64, "value": 0}, "group": "control_change"}, {"time": 4045, "annotation": {"number": 64, "value": 127}, "group": "control_change"}, {"time": 4063, "annotation": {"number": 64, "value": 0}, "group": "control_change"}, {"time": 4066, "annotation": {"number": 64, "value": 127}, "group": "control_change"}, {"time": 4081, "annotation": {"number": 64, "value": 0}, "group": "control_change"}, {"time": 4084, "annotation": {"number": 64, "value": 127}, "group": "control_change"}, {"time": 4111, "annotation": {"number": 64, "value": 0}, "group": "control_change"}, {"time": 4160, "annotation": {"number": 64, "value": 0}, "group": "control_change"}, {"time": 4163, "annotation": {"number": 64, "value": 127}, "group": "control_change"}, {"time": 4184, "annotation": {"number": 64, "value": 0}, "group": "control_change"}, {"time": 4186, "annotation": {"number": 64, "value": 127}, "group": "control_change"}, {"time": 4208, "annotation": {"number": 64, "value": 0}, "group": "control_change"}, {"time": 4209, "annotation": {"number": 64, "value": 127}, "group": "control_change"}, {"time": 4209, "annotation": {"number": 64, "value": 0}, "group": "control_change"}, {"time": 4210, "annotation": {"number": 64, "value": 127}, "group": "control_change"}, {"time": 4242, "annotation": {"number": 64, "value": 0}, "group": "control_change"}, {"time": 4244, "annotation": {"number": 64, "value": 127}, "group": "control_change"}, {"time": 4257, "annotation": {"number": 64, "value": 0}, "group": "control_change"}, {"time": 4258, "annotation": {"number": 64, "value": 127}, "group": "control_change"}, {"time": 4280, "annotation": {"number": 64, "value": 0}, "group": "control_change"}, {"time": 4282, "annotation": {"number": 64, "value": 127}, "group": "control_change"}, {"time": 4304, "annotation": {"number": 64, "value": 0}, "group": "control_change"}, {"time": 4309, "annotation": {"number": 64, "value": 127}, "group": "control_change"}, {"time": 4353, "annotation": {"number": 64, "value": 0}, "group": "control_change"}, {"time": 4355, "annotation": {"number": 64, "value": 127}, "group": "control_change"}, {"time": 4376, "annotation": {"number": 64, "value": 0}, "group": "control_change"}, {"time": 4378, "annotation": {"number": 64, "value": 127}, "group": "control_change"}, {"time": 4400, "annotation": {"number": 64, "value": 0}, "group": "control_change"}, {"time": 4402, "annotation": {"number": 64, "value": 127}, "group": "control_change"}, {"time": 4424, "annotation": {"number": 64, "value": 0}, "group": "control_change"}, {"time": 4426, "annotation": {"number": 64, "value": 127}, "group": "control_change"}, {"time": 4448, "annotation": {"number": 64, "value": 0}, "group": "control_change"}, {"time": 4450, "annotation": {"number": 64, "value": 127}, "group": "control_change"}, {"time": 4471, "annotation": {"number": 64, "value": 0}, "group": "control_change"}, {"time": 4473, "annotation": {"number": 64, "value": 127}, "group": "control_change"}, {"time": 4495, "annotation": {"number": 64, "value": 0}, "group": "control_change"}]}]}