{"metadata": {"schema_version": "0.2", "title": "None", "source_filename": "811.mid", "source_format": "midi"}, "resolution": 12, "tempos": [{"time": 0, "qpm": 84.000084000084}, {"time": 373, "qpm": 83.80005307336695}, {"time": 832, "qpm": 84.000084000084}, {"time": 1598, "qpm": 83.80005307336695}, {"time": 2362, "qpm": 84.000084000084}], "time_signatures": [{"time": 0, "numerator": 1, "denominator": 4}], "tracks": [{"program": 0, "is_drum": false, "name": "MELODY", "notes": [{"time": 372, "pitch": 77, "duration": 5, "velocity": 83}, {"time": 378, "pitch": 77, "duration": 4, "velocity": 80}, {"time": 384, "pitch": 77, "duration": 5, "velocity": 81}, {"time": 390, "pitch": 80, "duration": 5, "velocity": 77}, {"time": 396, "pitch": 72, "duration": 6, "velocity": 81}, {"time": 402, "pitch": 75, "duration": 10, "velocity": 80}, {"time": 414, "pitch": 84, "duration": 5, "velocity": 81}, {"time": 420, "pitch": 82, "duration": 12, "velocity": 80}, {"time": 432, "pitch": 80, "duration": 5, "velocity": 77}, {"time": 438, "pitch": 82, "duration": 4, "velocity": 80}, {"time": 444, "pitch": 84, "duration": 6, "velocity": 82}, {"time": 450, "pitch": 82, "duration": 6, "velocity": 82}, {"time": 456, "pitch": 80, "duration": 12, "velocity": 60}, {"time": 468, "pitch": 82, "duration": 5, "velocity": 80}, {"time": 474, "pitch": 82, "duration": 5, "velocity": 79}, {"time": 480, "pitch": 82, "duration": 5, "velocity": 79}, {"time": 486, "pitch": 84, "duration": 5, "velocity": 79}, {"time": 492, "pitch": 75, "duration": 5, "velocity": 79}, {"time": 498, "pitch": 77, "duration": 5, "velocity": 81}, {"time": 504, "pitch": 82, "duration": 5, "velocity": 77}, {"time": 510, "pitch": 79, "duration": 5, "velocity": 73}, {"time": 516, "pitch": 77, "duration": 34, "velocity": 73}, {"time": 564, "pitch": 77, "duration": 3, "velocity": 90}, {"time": 570, "pitch": 77, "duration": 2, "velocity": 81}, {"time": 573, "pitch": 77, "duration": 2, "velocity": 83}, {"time": 576, "pitch": 77, "duration": 4, "velocity": 82}, {"time": 582, "pitch": 80, "duration": 5, "velocity": 76}, {"time": 588, "pitch": 72, "duration": 5, "velocity": 83}, {"time": 594, "pitch": 75, "duration": 12, "velocity": 80}, {"time": 606, "pitch": 72, "duration": 5, "velocity": 80}, {"time": 612, "pitch": 77, "duration": 4, "velocity": 81}, {"time": 618, "pitch": 79, "duration": 2, "velocity": 76}, {"time": 621, "pitch": 77, "duration": 2, "velocity": 77}, {"time": 624, "pitch": 75, "duration": 5, "velocity": 81}, {"time": 630, "pitch": 77, "duration": 5, "velocity": 81}, {"time": 636, "pitch": 80, "duration": 20, "velocity": 77}, {"time": 660, "pitch": 77, "duration": 11, "velocity": 80}, {"time": 672, "pitch": 84, "duration": 13, "velocity": 80}, {"time": 684, "pitch": 77, "duration": 12, "velocity": 83}, {"time": 696, "pitch": 84, "duration": 11, "velocity": 80}, {"time": 708, "pitch": 82, "duration": 5, "velocity": 81}, {"time": 714, "pitch": 84, "duration": 3, "velocity": 77}, {"time": 717, "pitch": 82, "duration": 3, "velocity": 72}, {"time": 720, "pitch": 80, "duration": 5, "velocity": 80}, {"time": 726, "pitch": 82, "duration": 3, "velocity": 80}, {"time": 729, "pitch": 82, "duration": 3, "velocity": 80}, {"time": 732, "pitch": 84, "duration": 6, "velocity": 80}, {"time": 738, "pitch": 82, "duration": 7, "velocity": 80}, {"time": 744, "pitch": 80, "duration": 11, "velocity": 79}, {"time": 756, "pitch": 82, "duration": 5, "velocity": 77}, {"time": 762, "pitch": 82, "duration": 5, "velocity": 80}, {"time": 768, "pitch": 82, "duration": 5, "velocity": 81}, {"time": 774, "pitch": 84, "duration": 5, "velocity": 80}, {"time": 780, "pitch": 75, "duration": 5, "velocity": 81}, {"time": 786, "pitch": 77, "duration": 5, "velocity": 83}, {"time": 792, "pitch": 82, "duration": 5, "velocity": 81}, {"time": 798, "pitch": 79, "duration": 5, "velocity": 75}, {"time": 804, "pitch": 77, "duration": 45, "velocity": 81}, {"time": 900, "pitch": 77, "duration": 5, "velocity": 81}, {"time": 906, "pitch": 77, "duration": 4, "velocity": 83}, {"time": 912, "pitch": 77, "duration": 5, "velocity": 82}, {"time": 918, "pitch": 80, "duration": 2, "velocity": 72}, {"time": 921, "pitch": 80, "duration": 3, "velocity": 75}, {"time": 924, "pitch": 72, "duration": 13, "velocity": 81}, {"time": 936, "pitch": 75, "duration": 6, "velocity": 79}, {"time": 942, "pitch": 72, "duration": 6, "velocity": 81}, {"time": 948, "pitch": 77, "duration": 4, "velocity": 79}, {"time": 954, "pitch": 77, "duration": 2, "velocity": 78}, {"time": 957, "pitch": 77, "duration": 2, "velocity": 80}, {"time": 960, "pitch": 75, "duration": 5, "velocity": 81}, {"time": 966, "pitch": 77, "duration": 5, "velocity": 82}, {"time": 972, "pitch": 80, "duration": 19, "velocity": 79}, {"time": 996, "pitch": 77, "duration": 9, "velocity": 81}, {"time": 1008, "pitch": 84, "duration": 10, "velocity": 80}, {"time": 1020, "pitch": 77, "duration": 10, "velocity": 83}, {"time": 1032, "pitch": 84, "duration": 11, "velocity": 81}, {"time": 1044, "pitch": 82, "duration": 5, "velocity": 82}, {"time": 1050, "pitch": 84, "duration": 3, "velocity": 79}, {"time": 1053, "pitch": 82, "duration": 3, "velocity": 80}, {"time": 1056, "pitch": 80, "duration": 5, "velocity": 80}, {"time": 1062, "pitch": 82, "duration": 5, "velocity": 81}, {"time": 1068, "pitch": 84, "duration": 6, "velocity": 81}, {"time": 1074, "pitch": 82, "duration": 6, "velocity": 81}, {"time": 1080, "pitch": 80, "duration": 10, "velocity": 79}, {"time": 1092, "pitch": 82, "duration": 5, "velocity": 80}, {"time": 1098, "pitch": 82, "duration": 4, "velocity": 80}, {"time": 1104, "pitch": 82, "duration": 5, "velocity": 81}, {"time": 1110, "pitch": 84, "duration": 5, "velocity": 79}, {"time": 1116, "pitch": 75, "duration": 5, "velocity": 80}, {"time": 1122, "pitch": 77, "duration": 5, "velocity": 81}, {"time": 1128, "pitch": 82, "duration": 6, "velocity": 80}, {"time": 1134, "pitch": 79, "duration": 6, "velocity": 75}, {"time": 1140, "pitch": 77, "duration": 25, "velocity": 79}, {"time": 1188, "pitch": 77, "duration": 3, "velocity": 81}, {"time": 1194, "pitch": 77, "duration": 2, "velocity": 74}, {"time": 1197, "pitch": 77, "duration": 2, "velocity": 77}, {"time": 1200, "pitch": 77, "duration": 5, "velocity": 80}, {"time": 1206, "pitch": 80, "duration": 5, "velocity": 72}, {"time": 1212, "pitch": 72, "duration": 6, "velocity": 82}, {"time": 1218, "pitch": 75, "duration": 13, "velocity": 80}, {"time": 1230, "pitch": 72, "duration": 6, "velocity": 81}, {"time": 1236, "pitch": 77, "duration": 5, "velocity": 80}, {"time": 1242, "pitch": 79, "duration": 3, "velocity": 72}, {"time": 1245, "pitch": 77, "duration": 3, "velocity": 82}, {"time": 1248, "pitch": 75, "duration": 5, "velocity": 79}, {"time": 1254, "pitch": 77, "duration": 5, "velocity": 83}, {"time": 1260, "pitch": 80, "duration": 21, "velocity": 79}, {"time": 1284, "pitch": 77, "duration": 11, "velocity": 84}, {"time": 1296, "pitch": 84, "duration": 12, "velocity": 76}, {"time": 1308, "pitch": 77, "duration": 11, "velocity": 81}, {"time": 1320, "pitch": 84, "duration": 11, "velocity": 79}, {"time": 1332, "pitch": 82, "duration": 5, "velocity": 77}, {"time": 1338, "pitch": 82, "duration": 2, "velocity": 76}, {"time": 1341, "pitch": 82, "duration": 3, "velocity": 74}, {"time": 1344, "pitch": 80, "duration": 5, "velocity": 80}, {"time": 1350, "pitch": 82, "duration": 3, "velocity": 80}, {"time": 1353, "pitch": 82, "duration": 3, "velocity": 80}, {"time": 1356, "pitch": 84, "duration": 6, "velocity": 77}, {"time": 1362, "pitch": 82, "duration": 7, "velocity": 80}, {"time": 1368, "pitch": 80, "duration": 11, "velocity": 79}, {"time": 1380, "pitch": 82, "duration": 4, "velocity": 79}, {"time": 1386, "pitch": 82, "duration": 3, "velocity": 73}, {"time": 1389, "pitch": 82, "duration": 2, "velocity": 76}, {"time": 1392, "pitch": 82, "duration": 4, "velocity": 75}, {"time": 1398, "pitch": 84, "duration": 5, "velocity": 80}, {"time": 1404, "pitch": 75, "duration": 5, "velocity": 79}, {"time": 1410, "pitch": 77, "duration": 5, "velocity": 79}, {"time": 1416, "pitch": 82, "duration": 6, "velocity": 80}, {"time": 1422, "pitch": 79, "duration": 5, "velocity": 75}, {"time": 1428, "pitch": 77, "duration": 40, "velocity": 80}, {"time": 1812, "pitch": 77, "duration": 5, "velocity": 81}, {"time": 1818, "pitch": 77, "duration": 4, "velocity": 83}, {"time": 1824, "pitch": 77, "duration": 5, "velocity": 82}, {"time": 1830, "pitch": 80, "duration": 2, "velocity": 72}, {"time": 1833, "pitch": 80, "duration": 3, "velocity": 75}, {"time": 1836, "pitch": 72, "duration": 13, "velocity": 81}, {"time": 1848, "pitch": 75, "duration": 6, "velocity": 79}, {"time": 1854, "pitch": 72, "duration": 6, "velocity": 81}, {"time": 1860, "pitch": 77, "duration": 4, "velocity": 79}, {"time": 1866, "pitch": 77, "duration": 2, "velocity": 78}, {"time": 1869, "pitch": 77, "duration": 2, "velocity": 80}, {"time": 1872, "pitch": 75, "duration": 5, "velocity": 81}, {"time": 1878, "pitch": 77, "duration": 5, "velocity": 82}, {"time": 1884, "pitch": 80, "duration": 19, "velocity": 79}, {"time": 1908, "pitch": 77, "duration": 9, "velocity": 81}, {"time": 1920, "pitch": 84, "duration": 10, "velocity": 80}, {"time": 1932, "pitch": 77, "duration": 10, "velocity": 83}, {"time": 1944, "pitch": 84, "duration": 11, "velocity": 81}, {"time": 1956, "pitch": 82, "duration": 5, "velocity": 82}, {"time": 1962, "pitch": 84, "duration": 3, "velocity": 79}, {"time": 1965, "pitch": 82, "duration": 3, "velocity": 80}, {"time": 1968, "pitch": 80, "duration": 5, "velocity": 80}, {"time": 1974, "pitch": 82, "duration": 5, "velocity": 81}, {"time": 1980, "pitch": 84, "duration": 6, "velocity": 81}, {"time": 1986, "pitch": 82, "duration": 6, "velocity": 81}, {"time": 1992, "pitch": 80, "duration": 10, "velocity": 79}, {"time": 2004, "pitch": 82, "duration": 5, "velocity": 80}, {"time": 2010, "pitch": 82, "duration": 4, "velocity": 80}, {"time": 2016, "pitch": 82, "duration": 5, "velocity": 81}, {"time": 2022, "pitch": 84, "duration": 5, "velocity": 79}, {"time": 2028, "pitch": 75, "duration": 5, "velocity": 80}, {"time": 2034, "pitch": 77, "duration": 5, "velocity": 81}, {"time": 2040, "pitch": 82, "duration": 6, "velocity": 80}, {"time": 2046, "pitch": 79, "duration": 6, "velocity": 75}, {"time": 2052, "pitch": 77, "duration": 25, "velocity": 79}, {"time": 2148, "pitch": 77, "duration": 3, "velocity": 81}, {"time": 2154, "pitch": 77, "duration": 2, "velocity": 74}, {"time": 2157, "pitch": 77, "duration": 2, "velocity": 77}, {"time": 2160, "pitch": 77, "duration": 5, "velocity": 80}, {"time": 2166, "pitch": 80, "duration": 5, "velocity": 72}, {"time": 2172, "pitch": 72, "duration": 6, "velocity": 82}, {"time": 2178, "pitch": 75, "duration": 13, "velocity": 80}, {"time": 2190, "pitch": 72, "duration": 6, "velocity": 81}, {"time": 2196, "pitch": 77, "duration": 5, "velocity": 80}, {"time": 2202, "pitch": 79, "duration": 3, "velocity": 72}, {"time": 2205, "pitch": 77, "duration": 3, "velocity": 82}, {"time": 2208, "pitch": 75, "duration": 5, "velocity": 79}, {"time": 2214, "pitch": 77, "duration": 5, "velocity": 83}, {"time": 2220, "pitch": 80, "duration": 21, "velocity": 79}, {"time": 2244, "pitch": 77, "duration": 11, "velocity": 84}, {"time": 2256, "pitch": 84, "duration": 12, "velocity": 76}, {"time": 2268, "pitch": 77, "duration": 11, "velocity": 81}, {"time": 2280, "pitch": 84, "duration": 11, "velocity": 79}, {"time": 2292, "pitch": 82, "duration": 5, "velocity": 77}, {"time": 2298, "pitch": 82, "duration": 2, "velocity": 76}, {"time": 2301, "pitch": 82, "duration": 3, "velocity": 74}, {"time": 2304, "pitch": 80, "duration": 5, "velocity": 80}, {"time": 2310, "pitch": 82, "duration": 3, "velocity": 80}, {"time": 2313, "pitch": 82, "duration": 3, "velocity": 80}, {"time": 2316, "pitch": 84, "duration": 6, "velocity": 77}, {"time": 2322, "pitch": 82, "duration": 7, "velocity": 80}, {"time": 2328, "pitch": 80, "duration": 11, "velocity": 79}, {"time": 2340, "pitch": 82, "duration": 4, "velocity": 79}, {"time": 2346, "pitch": 82, "duration": 3, "velocity": 73}, {"time": 2349, "pitch": 82, "duration": 2, "velocity": 76}, {"time": 2352, "pitch": 82, "duration": 4, "velocity": 75}, {"time": 2358, "pitch": 84, "duration": 5, "velocity": 80}, {"time": 2364, "pitch": 75, "duration": 5, "velocity": 79}, {"time": 2370, "pitch": 77, "duration": 5, "velocity": 79}, {"time": 2376, "pitch": 82, "duration": 6, "velocity": 80}, {"time": 2382, "pitch": 79, "duration": 5, "velocity": 75}, {"time": 2388, "pitch": 77, "duration": 40, "velocity": 80}, {"time": 2436, "pitch": 77, "duration": 3, "velocity": 81}, {"time": 2442, "pitch": 77, "duration": 2, "velocity": 74}, {"time": 2445, "pitch": 77, "duration": 2, "velocity": 77}, {"time": 2448, "pitch": 77, "duration": 5, "velocity": 80}, {"time": 2454, "pitch": 80, "duration": 5, "velocity": 72}, {"time": 2460, "pitch": 72, "duration": 6, "velocity": 82}, {"time": 2466, "pitch": 75, "duration": 13, "velocity": 80}, {"time": 2478, "pitch": 72, "duration": 6, "velocity": 81}, {"time": 2484, "pitch": 77, "duration": 5, "velocity": 80}, {"time": 2490, "pitch": 79, "duration": 3, "velocity": 72}, {"time": 2493, "pitch": 77, "duration": 3, "velocity": 82}, {"time": 2496, "pitch": 75, "duration": 5, "velocity": 79}, {"time": 2502, "pitch": 77, "duration": 5, "velocity": 83}, {"time": 2508, "pitch": 80, "duration": 21, "velocity": 79}, {"time": 2532, "pitch": 77, "duration": 11, "velocity": 84}, {"time": 2544, "pitch": 84, "duration": 12, "velocity": 76}, {"time": 2556, "pitch": 77, "duration": 11, "velocity": 81}, {"time": 2568, "pitch": 84, "duration": 11, "velocity": 79}, {"time": 2580, "pitch": 82, "duration": 5, "velocity": 77}, {"time": 2586, "pitch": 82, "duration": 2, "velocity": 76}, {"time": 2589, "pitch": 82, "duration": 3, "velocity": 74}, {"time": 2592, "pitch": 80, "duration": 5, "velocity": 80}, {"time": 2598, "pitch": 82, "duration": 3, "velocity": 80}, {"time": 2601, "pitch": 82, "duration": 3, "velocity": 80}, {"time": 2604, "pitch": 84, "duration": 6, "velocity": 77}, {"time": 2610, "pitch": 82, "duration": 7, "velocity": 80}, {"time": 2616, "pitch": 80, "duration": 11, "velocity": 79}, {"time": 2628, "pitch": 82, "duration": 4, "velocity": 79}, {"time": 2634, "pitch": 82, "duration": 3, "velocity": 73}, {"time": 2637, "pitch": 82, "duration": 2, "velocity": 76}, {"time": 2640, "pitch": 82, "duration": 4, "velocity": 75}, {"time": 2646, "pitch": 84, "duration": 5, "velocity": 80}, {"time": 2652, "pitch": 75, "duration": 5, "velocity": 79}, {"time": 2658, "pitch": 77, "duration": 5, "velocity": 79}, {"time": 2664, "pitch": 82, "duration": 6, "velocity": 80}, {"time": 2670, "pitch": 79, "duration": 5, "velocity": 75}, {"time": 2676, "pitch": 77, "duration": 40, "velocity": 80}]}, {"program": 0, "is_drum": false, "name": "PIANO", "notes": [{"time": 36, "pitch": 41, "duration": 8, "velocity": 80}, {"time": 36, "pitch": 60, "duration": 4, "velocity": 75}, {"time": 36, "pitch": 65, "duration": 8, "velocity": 79}, {"time": 42, "pitch": 60, "duration": 4, "velocity": 78}, {"time": 48, "pitch": 65, "duration": 3, "velocity": 80}, {"time": 48, "pitch": 68, "duration": 6, "velocity": 79}, {"time": 54, "pitch": 60, "duration": 5, "velocity": 69}, {"time": 60, "pitch": 65, "duration": 3, "velocity": 73}, {"time": 60, "pitch": 68, "duration": 4, "velocity": 68}, {"time": 66, "pitch": 60, "duration": 4, "velocity": 70}, {"time": 72, "pitch": 65, "duration": 10, "velocity": 80}, {"time": 72, "pitch": 68, "duration": 10, "velocity": 75}, {"time": 78, "pitch": 48, "duration": 3, "velocity": 86}, {"time": 84, "pitch": 41, "duration": 15, "velocity": 84}, {"time": 84, "pitch": 60, "duration": 4, "velocity": 79}, {"time": 84, "pitch": 65, "duration": 8, "velocity": 78}, {"time": 84, "pitch": 68, "duration": 8, "velocity": 74}, {"time": 90, "pitch": 60, "duration": 5, "velocity": 74}, {"time": 96, "pitch": 65, "duration": 2, "velocity": 68}, {"time": 96, "pitch": 68, "duration": 3, "velocity": 71}, {"time": 102, "pitch": 60, "duration": 6, "velocity": 73}, {"time": 108, "pitch": 65, "duration": 7, "velocity": 71}, {"time": 108, "pitch": 68, "duration": 8, "velocity": 72}, {"time": 114, "pitch": 60, "duration": 7, "velocity": 73}, {"time": 120, "pitch": 65, "duration": 5, "velocity": 77}, {"time": 120, "pitch": 68, "duration": 6, "velocity": 74}, {"time": 126, "pitch": 43, "duration": 2, "velocity": 85}, {"time": 132, "pitch": 44, "duration": 19, "velocity": 79}, {"time": 132, "pitch": 56, "duration": 5, "velocity": 75}, {"time": 132, "pitch": 60, "duration": 6, "velocity": 78}, {"time": 132, "pitch": 63, "duration": 7, "velocity": 80}, {"time": 138, "pitch": 51, "duration": 9, "velocity": 77}, {"time": 144, "pitch": 56, "duration": 1, "velocity": 72}, {"time": 144, "pitch": 60, "duration": 4, "velocity": 83}, {"time": 144, "pitch": 63, "duration": 4, "velocity": 81}, {"time": 150, "pitch": 56, "duration": 2, "velocity": 45}, {"time": 156, "pitch": 44, "duration": 21, "velocity": 79}, {"time": 156, "pitch": 60, "duration": 8, "velocity": 79}, {"time": 156, "pitch": 63, "duration": 8, "velocity": 79}, {"time": 162, "pitch": 51, "duration": 13, "velocity": 69}, {"time": 168, "pitch": 60, "duration": 2, "velocity": 75}, {"time": 168, "pitch": 63, "duration": 3, "velocity": 79}, {"time": 174, "pitch": 56, "duration": 8, "velocity": 81}, {"time": 180, "pitch": 44, "duration": 23, "velocity": 79}, {"time": 180, "pitch": 63, "duration": 9, "velocity": 79}, {"time": 186, "pitch": 51, "duration": 16, "velocity": 68}, {"time": 192, "pitch": 60, "duration": 6, "velocity": 76}, {"time": 198, "pitch": 56, "duration": 8, "velocity": 79}, {"time": 204, "pitch": 44, "duration": 16, "velocity": 76}, {"time": 204, "pitch": 63, "duration": 9, "velocity": 76}, {"time": 210, "pitch": 51, "duration": 10, "velocity": 73}, {"time": 210, "pitch": 56, "duration": 3, "velocity": 61}, {"time": 216, "pitch": 60, "duration": 2, "velocity": 81}, {"time": 216, "pitch": 63, "duration": 2, "velocity": 79}, {"time": 216, "pitch": 68, "duration": 3, "velocity": 75}, {"time": 222, "pitch": 39, "duration": 2, "velocity": 79}, {"time": 222, "pitch": 43, "duration": 2, "velocity": 79}, {"time": 222, "pitch": 55, "duration": 3, "velocity": 72}, {"time": 228, "pitch": 41, "duration": 14, "velocity": 82}, {"time": 228, "pitch": 53, "duration": 8, "velocity": 75}, {"time": 228, "pitch": 56, "duration": 8, "velocity": 69}, {"time": 234, "pitch": 48, "duration": 7, "velocity": 74}, {"time": 240, "pitch": 53, "duration": 3, "velocity": 79}, {"time": 240, "pitch": 56, "duration": 4, "velocity": 79}, {"time": 240, "pitch": 60, "duration": 4, "velocity": 80}, {"time": 252, "pitch": 39, "duration": 14, "velocity": 81}, {"time": 252, "pitch": 58, "duration": 7, "velocity": 70}, {"time": 252, "pitch": 63, "duration": 8, "velocity": 74}, {"time": 258, "pitch": 46, "duration": 8, "velocity": 61}, {"time": 264, "pitch": 58, "duration": 4, "velocity": 75}, {"time": 264, "pitch": 63, "duration": 4, "velocity": 77}, {"time": 264, "pitch": 67, "duration": 5, "velocity": 71}, {"time": 276, "pitch": 44, "duration": 14, "velocity": 80}, {"time": 276, "pitch": 56, "duration": 9, "velocity": 72}, {"time": 276, "pitch": 60, "duration": 8, "velocity": 73}, {"time": 282, "pitch": 51, "duration": 9, "velocity": 75}, {"time": 288, "pitch": 56, "duration": 2, "velocity": 74}, {"time": 288, "pitch": 60, "duration": 6, "velocity": 79}, {"time": 288, "pitch": 63, "duration": 8, "velocity": 74}, {"time": 294, "pitch": 56, "duration": 3, "velocity": 78}, {"time": 300, "pitch": 48, "duration": 15, "velocity": 79}, {"time": 300, "pitch": 60, "duration": 8, "velocity": 75}, {"time": 300, "pitch": 63, "duration": 9, "velocity": 76}, {"time": 306, "pitch": 55, "duration": 7, "velocity": 64}, {"time": 312, "pitch": 60, "duration": 3, "velocity": 78}, {"time": 312, "pitch": 63, "duration": 8, "velocity": 77}, {"time": 312, "pitch": 67, "duration": 8, "velocity": 76}, {"time": 318, "pitch": 60, "duration": 3, "velocity": 80}, {"time": 324, "pitch": 49, "duration": 30, "velocity": 81}, {"time": 324, "pitch": 56, "duration": 4, "velocity": 80}, {"time": 324, "pitch": 61, "duration": 8, "velocity": 78}, {"time": 330, "pitch": 56, "duration": 7, "velocity": 80}, {"time": 336, "pitch": 61, "duration": 10, "velocity": 80}, {"time": 336, "pitch": 65, "duration": 7, "velocity": 81}, {"time": 342, "pitch": 56, "duration": 5, "velocity": 67}, {"time": 348, "pitch": 61, "duration": 9, "velocity": 76}, {"time": 348, "pitch": 65, "duration": 9, "velocity": 79}, {"time": 354, "pitch": 56, "duration": 4, "velocity": 77}, {"time": 360, "pitch": 39, "duration": 11, "velocity": 85}, {"time": 360, "pitch": 58, "duration": 3, "velocity": 79}, {"time": 360, "pitch": 63, "duration": 9, "velocity": 77}, {"time": 366, "pitch": 58, "duration": 4, "velocity": 79}, {"time": 372, "pitch": 41, "duration": 16, "velocity": 72}, {"time": 372, "pitch": 60, "duration": 4, "velocity": 78}, {"time": 372, "pitch": 65, "duration": 9, "velocity": 79}, {"time": 378, "pitch": 60, "duration": 7, "velocity": 75}, {"time": 384, "pitch": 65, "duration": 3, "velocity": 80}, {"time": 384, "pitch": 68, "duration": 3, "velocity": 78}, {"time": 390, "pitch": 60, "duration": 4, "velocity": 77}, {"time": 396, "pitch": 60, "duration": 3, "velocity": 67}, {"time": 396, "pitch": 65, "duration": 4, "velocity": 73}, {"time": 402, "pitch": 60, "duration": 3, "velocity": 61}, {"time": 408, "pitch": 65, "duration": 8, "velocity": 79}, {"time": 408, "pitch": 68, "duration": 6, "velocity": 76}, {"time": 414, "pitch": 60, "duration": 3, "velocity": 79}, {"time": 420, "pitch": 44, "duration": 41, "velocity": 79}, {"time": 420, "pitch": 56, "duration": 8, "velocity": 61}, {"time": 420, "pitch": 60, "duration": 8, "velocity": 61}, {"time": 426, "pitch": 51, "duration": 33, "velocity": 61}, {"time": 432, "pitch": 63, "duration": 4, "velocity": 74}, {"time": 438, "pitch": 56, "duration": 4, "velocity": 80}, {"time": 444, "pitch": 60, "duration": 3, "velocity": 66}, {"time": 444, "pitch": 63, "duration": 6, "velocity": 69}, {"time": 450, "pitch": 56, "duration": 5, "velocity": 66}, {"time": 456, "pitch": 60, "duration": 3, "velocity": 69}, {"time": 456, "pitch": 63, "duration": 8, "velocity": 75}, {"time": 456, "pitch": 68, "duration": 8, "velocity": 74}, {"time": 462, "pitch": 56, "duration": 3, "velocity": 74}, {"time": 468, "pitch": 46, "duration": 17, "velocity": 79}, {"time": 468, "pitch": 58, "duration": 9, "velocity": 70}, {"time": 468, "pitch": 61, "duration": 7, "velocity": 69}, {"time": 474, "pitch": 53, "duration": 13, "velocity": 65}, {"time": 480, "pitch": 61, "duration": 7, "velocity": 75}, {"time": 480, "pitch": 65, "duration": 10, "velocity": 80}, {"time": 486, "pitch": 58, "duration": 4, "velocity": 78}, {"time": 492, "pitch": 48, "duration": 17, "velocity": 79}, {"time": 492, "pitch": 63, "duration": 14, "velocity": 75}, {"time": 498, "pitch": 55, "duration": 9, "velocity": 71}, {"time": 504, "pitch": 67, "duration": 6, "velocity": 83}, {"time": 510, "pitch": 60, "duration": 8, "velocity": 82}, {"time": 516, "pitch": 41, "duration": 44, "velocity": 80}, {"time": 516, "pitch": 65, "duration": 8, "velocity": 79}, {"time": 522, "pitch": 60, "duration": 7, "velocity": 76}, {"time": 528, "pitch": 68, "duration": 10, "velocity": 80}, {"time": 534, "pitch": 60, "duration": 7, "velocity": 79}, {"time": 540, "pitch": 48, "duration": 18, "velocity": 75}, {"time": 540, "pitch": 65, "duration": 8, "velocity": 75}, {"time": 546, "pitch": 60, "duration": 4, "velocity": 72}, {"time": 552, "pitch": 60, "duration": 3, "velocity": 84}, {"time": 552, "pitch": 65, "duration": 7, "velocity": 84}, {"time": 552, "pitch": 68, "duration": 8, "velocity": 79}, {"time": 564, "pitch": 41, "duration": 15, "velocity": 81}, {"time": 564, "pitch": 60, "duration": 4, "velocity": 79}, {"time": 564, "pitch": 65, "duration": 8, "velocity": 80}, {"time": 570, "pitch": 60, "duration": 4, "velocity": 68}, {"time": 576, "pitch": 65, "duration": 7, "velocity": 78}, {"time": 576, "pitch": 68, "duration": 6, "velocity": 77}, {"time": 582, "pitch": 60, "duration": 3, "velocity": 83}, {"time": 588, "pitch": 44, "duration": 21, "velocity": 77}, {"time": 588, "pitch": 56, "duration": 8, "velocity": 77}, {"time": 588, "pitch": 60, "duration": 7, "velocity": 79}, {"time": 594, "pitch": 51, "duration": 15, "velocity": 66}, {"time": 600, "pitch": 56, "duration": 2, "velocity": 74}, {"time": 600, "pitch": 60, "duration": 8, "velocity": 79}, {"time": 600, "pitch": 63, "duration": 8, "velocity": 78}, {"time": 606, "pitch": 56, "duration": 4, "velocity": 74}, {"time": 612, "pitch": 41, "duration": 14, "velocity": 80}, {"time": 612, "pitch": 53, "duration": 7, "velocity": 72}, {"time": 612, "pitch": 56, "duration": 7, "velocity": 72}, {"time": 618, "pitch": 48, "duration": 8, "velocity": 69}, {"time": 624, "pitch": 53, "duration": 2, "velocity": 79}, {"time": 624, "pitch": 56, "duration": 5, "velocity": 80}, {"time": 624, "pitch": 60, "duration": 7, "velocity": 79}, {"time": 630, "pitch": 53, "duration": 2, "velocity": 80}, {"time": 636, "pitch": 44, "duration": 17, "velocity": 79}, {"time": 636, "pitch": 56, "duration": 7, "velocity": 74}, {"time": 636, "pitch": 60, "duration": 7, "velocity": 79}, {"time": 642, "pitch": 51, "duration": 10, "velocity": 64}, {"time": 648, "pitch": 56, "duration": 3, "velocity": 79}, {"time": 648, "pitch": 60, "duration": 4, "velocity": 83}, {"time": 648, "pitch": 63, "duration": 4, "velocity": 78}, {"time": 660, "pitch": 41, "duration": 22, "velocity": 78}, {"time": 660, "pitch": 53, "duration": 4, "velocity": 73}, {"time": 660, "pitch": 56, "duration": 4, "velocity": 75}, {"time": 666, "pitch": 48, "duration": 16, "velocity": 70}, {"time": 672, "pitch": 56, "duration": 3, "velocity": 73}, {"time": 672, "pitch": 60, "duration": 4, "velocity": 75}, {"time": 678, "pitch": 56, "duration": 8, "velocity": 73}, {"time": 684, "pitch": 41, "duration": 15, "velocity": 79}, {"time": 684, "pitch": 60, "duration": 7, "velocity": 75}, {"time": 684, "pitch": 65, "duration": 7, "velocity": 79}, {"time": 690, "pitch": 48, "duration": 8, "velocity": 63}, {"time": 690, "pitch": 56, "duration": 5, "velocity": 72}, {"time": 696, "pitch": 60, "duration": 2, "velocity": 81}, {"time": 696, "pitch": 65, "duration": 3, "velocity": 81}, {"time": 708, "pitch": 39, "duration": 11, "velocity": 80}, {"time": 708, "pitch": 63, "duration": 9, "velocity": 78}, {"time": 708, "pitch": 67, "duration": 10, "velocity": 74}, {"time": 711, "pitch": 58, "duration": 4, "velocity": 70}, {"time": 720, "pitch": 58, "duration": 3, "velocity": 79}, {"time": 720, "pitch": 63, "duration": 7, "velocity": 82}, {"time": 720, "pitch": 67, "duration": 6, "velocity": 80}, {"time": 726, "pitch": 58, "duration": 2, "velocity": 70}, {"time": 732, "pitch": 44, "duration": 19, "velocity": 79}, {"time": 732, "pitch": 56, "duration": 4, "velocity": 71}, {"time": 732, "pitch": 60, "duration": 6, "velocity": 74}, {"time": 732, "pitch": 63, "duration": 5, "velocity": 72}, {"time": 738, "pitch": 56, "duration": 4, "velocity": 74}, {"time": 744, "pitch": 60, "duration": 6, "velocity": 85}, {"time": 744, "pitch": 63, "duration": 8, "velocity": 83}, {"time": 744, "pitch": 68, "duration": 5, "velocity": 78}, {"time": 750, "pitch": 56, "duration": 3, "velocity": 83}, {"time": 756, "pitch": 46, "duration": 16, "velocity": 79}, {"time": 756, "pitch": 58, "duration": 6, "velocity": 77}, {"time": 756, "pitch": 61, "duration": 6, "velocity": 72}, {"time": 762, "pitch": 53, "duration": 11, "velocity": 65}, {"time": 768, "pitch": 58, "duration": 3, "velocity": 74}, {"time": 768, "pitch": 61, "duration": 6, "velocity": 82}, {"time": 768, "pitch": 65, "duration": 6, "velocity": 83}, {"time": 774, "pitch": 58, "duration": 2, "velocity": 75}, {"time": 780, "pitch": 48, "duration": 18, "velocity": 80}, {"time": 780, "pitch": 60, "duration": 6, "velocity": 79}, {"time": 780, "pitch": 63, "duration": 8, "velocity": 75}, {"time": 786, "pitch": 55, "duration": 8, "velocity": 69}, {"time": 792, "pitch": 60, "duration": 3, "velocity": 79}, {"time": 792, "pitch": 63, "duration": 7, "velocity": 80}, {"time": 792, "pitch": 67, "duration": 7, "velocity": 73}, {"time": 798, "pitch": 60, "duration": 3, "velocity": 75}, {"time": 804, "pitch": 41, "duration": 14, "velocity": 85}, {"time": 804, "pitch": 60, "duration": 9, "velocity": 74}, {"time": 804, "pitch": 65, "duration": 8, "velocity": 75}, {"time": 810, "pitch": 48, "duration": 7, "velocity": 69}, {"time": 816, "pitch": 60, "duration": 3, "velocity": 79}, {"time": 816, "pitch": 65, "duration": 7, "velocity": 81}, {"time": 816, "pitch": 68, "duration": 6, "velocity": 74}, {"time": 822, "pitch": 60, "duration": 2, "velocity": 81}, {"time": 828, "pitch": 46, "duration": 19, "velocity": 80}, {"time": 828, "pitch": 58, "duration": 9, "velocity": 70}, {"time": 828, "pitch": 62, "duration": 8, "velocity": 67}, {"time": 834, "pitch": 53, "duration": 11, "velocity": 71}, {"time": 840, "pitch": 58, "duration": 3, "velocity": 80}, {"time": 840, "pitch": 62, "duration": 6, "velocity": 86}, {"time": 840, "pitch": 65, "duration": 8, "velocity": 84}, {"time": 846, "pitch": 58, "duration": 3, "velocity": 76}, {"time": 852, "pitch": 39, "duration": 8, "velocity": 80}, {"time": 852, "pitch": 58, "duration": 7, "velocity": 79}, {"time": 852, "pitch": 63, "duration": 5, "velocity": 80}, {"time": 864, "pitch": 40, "duration": 11, "velocity": 83}, {"time": 864, "pitch": 64, "duration": 11, "velocity": 85}, {"time": 864, "pitch": 67, "duration": 11, "velocity": 77}, {"time": 876, "pitch": 41, "duration": 22, "velocity": 83}, {"time": 876, "pitch": 60, "duration": 7, "velocity": 80}, {"time": 876, "pitch": 65, "duration": 7, "velocity": 82}, {"time": 882, "pitch": 48, "duration": 16, "velocity": 71}, {"time": 888, "pitch": 60, "duration": 3, "velocity": 81}, {"time": 888, "pitch": 68, "duration": 8, "velocity": 79}, {"time": 894, "pitch": 60, "duration": 4, "velocity": 78}, {"time": 900, "pitch": 41, "duration": 18, "velocity": 82}, {"time": 900, "pitch": 53, "duration": 7, "velocity": 80}, {"time": 900, "pitch": 56, "duration": 6, "velocity": 78}, {"time": 906, "pitch": 48, "duration": 13, "velocity": 78}, {"time": 912, "pitch": 56, "duration": 4, "velocity": 77}, {"time": 912, "pitch": 60, "duration": 7, "velocity": 80}, {"time": 918, "pitch": 53, "duration": 2, "velocity": 83}, {"time": 924, "pitch": 44, "duration": 15, "velocity": 79}, {"time": 924, "pitch": 56, "duration": 7, "velocity": 75}, {"time": 924, "pitch": 60, "duration": 7, "velocity": 72}, {"time": 930, "pitch": 51, "duration": 8, "velocity": 73}, {"time": 936, "pitch": 56, "duration": 2, "velocity": 78}, {"time": 936, "pitch": 60, "duration": 3, "velocity": 80}, {"time": 936, "pitch": 63, "duration": 6, "velocity": 79}, {"time": 942, "pitch": 56, "duration": 5, "velocity": 80}, {"time": 948, "pitch": 41, "duration": 15, "velocity": 80}, {"time": 948, "pitch": 60, "duration": 8, "velocity": 72}, {"time": 948, "pitch": 65, "duration": 8, "velocity": 79}, {"time": 954, "pitch": 48, "duration": 7, "velocity": 64}, {"time": 954, "pitch": 56, "duration": 5, "velocity": 70}, {"time": 960, "pitch": 60, "duration": 3, "velocity": 80}, {"time": 960, "pitch": 65, "duration": 8, "velocity": 80}, {"time": 966, "pitch": 56, "duration": 3, "velocity": 81}, {"time": 972, "pitch": 44, "duration": 14, "velocity": 79}, {"time": 972, "pitch": 56, "duration": 5, "velocity": 67}, {"time": 972, "pitch": 60, "duration": 5, "velocity": 65}, {"time": 972, "pitch": 63, "duration": 5, "velocity": 73}, {"time": 978, "pitch": 51, "duration": 7, "velocity": 67}, {"time": 984, "pitch": 56, "duration": 2, "velocity": 78}, {"time": 984, "pitch": 60, "duration": 2, "velocity": 82}, {"time": 984, "pitch": 63, "duration": 3, "velocity": 79}, {"time": 996, "pitch": 41, "duration": 22, "velocity": 82}, {"time": 996, "pitch": 56, "duration": 8, "velocity": 73}, {"time": 996, "pitch": 60, "duration": 8, "velocity": 77}, {"time": 996, "pitch": 65, "duration": 8, "velocity": 78}, {"time": 1002, "pitch": 48, "duration": 17, "velocity": 63}, {"time": 1008, "pitch": 60, "duration": 9, "velocity": 81}, {"time": 1008, "pitch": 65, "duration": 9, "velocity": 82}, {"time": 1014, "pitch": 56, "duration": 10, "velocity": 80}, {"time": 1020, "pitch": 41, "duration": 20, "velocity": 80}, {"time": 1020, "pitch": 60, "duration": 9, "velocity": 76}, {"time": 1020, "pitch": 65, "duration": 8, "velocity": 81}, {"time": 1026, "pitch": 48, "duration": 13, "velocity": 67}, {"time": 1032, "pitch": 56, "duration": 3, "velocity": 75}, {"time": 1032, "pitch": 60, "duration": 6, "velocity": 82}, {"time": 1032, "pitch": 65, "duration": 8, "velocity": 80}, {"time": 1038, "pitch": 56, "duration": 3, "velocity": 79}, {"time": 1044, "pitch": 39, "duration": 15, "velocity": 81}, {"time": 1044, "pitch": 51, "duration": 9, "velocity": 58}, {"time": 1044, "pitch": 55, "duration": 10, "velocity": 63}, {"time": 1044, "pitch": 58, "duration": 11, "velocity": 69}, {"time": 1050, "pitch": 46, "duration": 9, "velocity": 70}, {"time": 1056, "pitch": 51, "duration": 3, "velocity": 80}, {"time": 1056, "pitch": 55, "duration": 6, "velocity": 80}, {"time": 1056, "pitch": 58, "duration": 8, "velocity": 77}, {"time": 1062, "pitch": 51, "duration": 2, "velocity": 79}, {"time": 1068, "pitch": 44, "duration": 15, "velocity": 79}, {"time": 1068, "pitch": 56, "duration": 8, "velocity": 76}, {"time": 1068, "pitch": 60, "duration": 7, "velocity": 75}, {"time": 1074, "pitch": 51, "duration": 8, "velocity": 67}, {"time": 1080, "pitch": 56, "duration": 3, "velocity": 79}, {"time": 1080, "pitch": 60, "duration": 3, "velocity": 81}, {"time": 1080, "pitch": 63, "duration": 4, "velocity": 79}, {"time": 1092, "pitch": 46, "duration": 21, "velocity": 80}, {"time": 1092, "pitch": 58, "duration": 8, "velocity": 73}, {"time": 1092, "pitch": 61, "duration": 8, "velocity": 76}, {"time": 1098, "pitch": 53, "duration": 11, "velocity": 79}, {"time": 1104, "pitch": 58, "duration": 6, "velocity": 79}, {"time": 1104, "pitch": 61, "duration": 7, "velocity": 82}, {"time": 1104, "pitch": 65, "duration": 7, "velocity": 80}, {"time": 1110, "pitch": 53, "duration": 5, "velocity": 79}, {"time": 1116, "pitch": 48, "duration": 14, "velocity": 80}, {"time": 1116, "pitch": 60, "duration": 7, "velocity": 74}, {"time": 1116, "pitch": 63, "duration": 7, "velocity": 76}, {"time": 1122, "pitch": 55, "duration": 7, "velocity": 73}, {"time": 1128, "pitch": 60, "duration": 3, "velocity": 79}, {"time": 1128, "pitch": 63, "duration": 7, "velocity": 79}, {"time": 1128, "pitch": 67, "duration": 7, "velocity": 78}, {"time": 1134, "pitch": 60, "duration": 4, "velocity": 74}, {"time": 1140, "pitch": 41, "duration": 15, "velocity": 81}, {"time": 1140, "pitch": 60, "duration": 8, "velocity": 67}, {"time": 1140, "pitch": 65, "duration": 8, "velocity": 75}, {"time": 1140, "pitch": 66, "duration": 3, "velocity": 74}, {"time": 1146, "pitch": 48, "duration": 8, "velocity": 71}, {"time": 1152, "pitch": 60, "duration": 3, "velocity": 79}, {"time": 1152, "pitch": 65, "duration": 7, "velocity": 82}, {"time": 1152, "pitch": 68, "duration": 6, "velocity": 78}, {"time": 1158, "pitch": 60, "duration": 3, "velocity": 79}, {"time": 1164, "pitch": 46, "duration": 16, "velocity": 80}, {"time": 1164, "pitch": 58, "duration": 6, "velocity": 73}, {"time": 1164, "pitch": 62, "duration": 5, "velocity": 71}, {"time": 1164, "pitch": 65, "duration": 5, "velocity": 80}, {"time": 1170, "pitch": 53, "duration": 8, "velocity": 79}, {"time": 1176, "pitch": 58, "duration": 12, "velocity": 79}, {"time": 1176, "pitch": 62, "duration": 12, "velocity": 83}, {"time": 1176, "pitch": 65, "duration": 13, "velocity": 83}, {"time": 1176, "pitch": 70, "duration": 13, "velocity": 78}, {"time": 1182, "pitch": 53, "duration": 6, "velocity": 86}, {"time": 1188, "pitch": 41, "duration": 18, "velocity": 82}, {"time": 1188, "pitch": 53, "duration": 7, "velocity": 80}, {"time": 1188, "pitch": 56, "duration": 6, "velocity": 78}, {"time": 1194, "pitch": 48, "duration": 13, "velocity": 78}, {"time": 1200, "pitch": 56, "duration": 4, "velocity": 77}, {"time": 1200, "pitch": 60, "duration": 7, "velocity": 80}, {"time": 1206, "pitch": 53, "duration": 2, "velocity": 83}, {"time": 1212, "pitch": 44, "duration": 15, "velocity": 79}, {"time": 1212, "pitch": 56, "duration": 7, "velocity": 75}, {"time": 1212, "pitch": 60, "duration": 7, "velocity": 72}, {"time": 1218, "pitch": 51, "duration": 8, "velocity": 73}, {"time": 1224, "pitch": 56, "duration": 2, "velocity": 78}, {"time": 1224, "pitch": 60, "duration": 3, "velocity": 80}, {"time": 1224, "pitch": 63, "duration": 6, "velocity": 79}, {"time": 1230, "pitch": 56, "duration": 5, "velocity": 80}, {"time": 1236, "pitch": 41, "duration": 15, "velocity": 80}, {"time": 1236, "pitch": 60, "duration": 8, "velocity": 72}, {"time": 1236, "pitch": 65, "duration": 8, "velocity": 79}, {"time": 1242, "pitch": 48, "duration": 7, "velocity": 64}, {"time": 1242, "pitch": 56, "duration": 5, "velocity": 70}, {"time": 1248, "pitch": 60, "duration": 3, "velocity": 80}, {"time": 1248, "pitch": 65, "duration": 8, "velocity": 80}, {"time": 1254, "pitch": 56, "duration": 3, "velocity": 81}, {"time": 1260, "pitch": 44, "duration": 14, "velocity": 79}, {"time": 1260, "pitch": 56, "duration": 5, "velocity": 67}, {"time": 1260, "pitch": 60, "duration": 5, "velocity": 65}, {"time": 1260, "pitch": 63, "duration": 5, "velocity": 73}, {"time": 1266, "pitch": 51, "duration": 7, "velocity": 67}, {"time": 1272, "pitch": 56, "duration": 2, "velocity": 78}, {"time": 1272, "pitch": 60, "duration": 2, "velocity": 82}, {"time": 1272, "pitch": 63, "duration": 3, "velocity": 79}, {"time": 1284, "pitch": 41, "duration": 22, "velocity": 82}, {"time": 1284, "pitch": 56, "duration": 8, "velocity": 73}, {"time": 1284, "pitch": 60, "duration": 8, "velocity": 77}, {"time": 1284, "pitch": 65, "duration": 8, "velocity": 78}, {"time": 1290, "pitch": 48, "duration": 17, "velocity": 63}, {"time": 1296, "pitch": 60, "duration": 9, "velocity": 81}, {"time": 1296, "pitch": 65, "duration": 9, "velocity": 82}, {"time": 1302, "pitch": 56, "duration": 10, "velocity": 80}, {"time": 1308, "pitch": 41, "duration": 20, "velocity": 80}, {"time": 1308, "pitch": 60, "duration": 9, "velocity": 76}, {"time": 1308, "pitch": 65, "duration": 8, "velocity": 81}, {"time": 1314, "pitch": 48, "duration": 13, "velocity": 67}, {"time": 1320, "pitch": 56, "duration": 3, "velocity": 75}, {"time": 1320, "pitch": 60, "duration": 6, "velocity": 82}, {"time": 1320, "pitch": 65, "duration": 8, "velocity": 80}, {"time": 1326, "pitch": 56, "duration": 3, "velocity": 79}, {"time": 1332, "pitch": 39, "duration": 15, "velocity": 81}, {"time": 1332, "pitch": 51, "duration": 9, "velocity": 58}, {"time": 1332, "pitch": 55, "duration": 10, "velocity": 63}, {"time": 1332, "pitch": 58, "duration": 11, "velocity": 69}, {"time": 1338, "pitch": 46, "duration": 9, "velocity": 70}, {"time": 1344, "pitch": 51, "duration": 3, "velocity": 80}, {"time": 1344, "pitch": 55, "duration": 6, "velocity": 80}, {"time": 1344, "pitch": 58, "duration": 8, "velocity": 77}, {"time": 1350, "pitch": 51, "duration": 2, "velocity": 79}, {"time": 1356, "pitch": 44, "duration": 15, "velocity": 79}, {"time": 1356, "pitch": 56, "duration": 8, "velocity": 76}, {"time": 1356, "pitch": 60, "duration": 7, "velocity": 75}, {"time": 1362, "pitch": 51, "duration": 8, "velocity": 67}, {"time": 1368, "pitch": 56, "duration": 3, "velocity": 79}, {"time": 1368, "pitch": 60, "duration": 3, "velocity": 81}, {"time": 1368, "pitch": 63, "duration": 4, "velocity": 79}, {"time": 1380, "pitch": 46, "duration": 21, "velocity": 80}, {"time": 1380, "pitch": 58, "duration": 8, "velocity": 73}, {"time": 1380, "pitch": 61, "duration": 8, "velocity": 76}, {"time": 1386, "pitch": 53, "duration": 11, "velocity": 79}, {"time": 1392, "pitch": 58, "duration": 6, "velocity": 79}, {"time": 1392, "pitch": 61, "duration": 7, "velocity": 82}, {"time": 1392, "pitch": 65, "duration": 7, "velocity": 80}, {"time": 1398, "pitch": 53, "duration": 5, "velocity": 79}, {"time": 1404, "pitch": 48, "duration": 14, "velocity": 80}, {"time": 1404, "pitch": 60, "duration": 7, "velocity": 74}, {"time": 1404, "pitch": 63, "duration": 7, "velocity": 76}, {"time": 1410, "pitch": 55, "duration": 7, "velocity": 73}, {"time": 1416, "pitch": 60, "duration": 3, "velocity": 79}, {"time": 1416, "pitch": 63, "duration": 7, "velocity": 79}, {"time": 1416, "pitch": 67, "duration": 7, "velocity": 78}, {"time": 1422, "pitch": 60, "duration": 4, "velocity": 74}, {"time": 1428, "pitch": 41, "duration": 15, "velocity": 81}, {"time": 1428, "pitch": 60, "duration": 8, "velocity": 67}, {"time": 1428, "pitch": 65, "duration": 8, "velocity": 75}, {"time": 1428, "pitch": 66, "duration": 3, "velocity": 74}, {"time": 1434, "pitch": 48, "duration": 8, "velocity": 71}, {"time": 1440, "pitch": 60, "duration": 3, "velocity": 79}, {"time": 1440, "pitch": 65, "duration": 7, "velocity": 82}, {"time": 1440, "pitch": 68, "duration": 6, "velocity": 78}, {"time": 1446, "pitch": 60, "duration": 3, "velocity": 79}, {"time": 1452, "pitch": 46, "duration": 16, "velocity": 80}, {"time": 1452, "pitch": 58, "duration": 6, "velocity": 73}, {"time": 1452, "pitch": 62, "duration": 5, "velocity": 71}, {"time": 1452, "pitch": 65, "duration": 5, "velocity": 80}, {"time": 1458, "pitch": 53, "duration": 8, "velocity": 79}, {"time": 1464, "pitch": 58, "duration": 12, "velocity": 79}, {"time": 1464, "pitch": 62, "duration": 12, "velocity": 83}, {"time": 1464, "pitch": 65, "duration": 13, "velocity": 83}, {"time": 1464, "pitch": 70, "duration": 13, "velocity": 78}, {"time": 1470, "pitch": 53, "duration": 6, "velocity": 86}, {"time": 1476, "pitch": 41, "duration": 8, "velocity": 80}, {"time": 1476, "pitch": 60, "duration": 4, "velocity": 75}, {"time": 1476, "pitch": 65, "duration": 1, "velocity": 79}, {"time": 1482, "pitch": 60, "duration": 4, "velocity": 78}, {"time": 1488, "pitch": 65, "duration": 3, "velocity": 80}, {"time": 1488, "pitch": 68, "duration": 6, "velocity": 79}, {"time": 1494, "pitch": 60, "duration": 5, "velocity": 69}, {"time": 1500, "pitch": 65, "duration": 3, "velocity": 73}, {"time": 1500, "pitch": 68, "duration": 4, "velocity": 68}, {"time": 1506, "pitch": 60, "duration": 4, "velocity": 70}, {"time": 1512, "pitch": 65, "duration": 10, "velocity": 80}, {"time": 1512, "pitch": 68, "duration": 10, "velocity": 75}, {"time": 1518, "pitch": 48, "duration": 3, "velocity": 86}, {"time": 1524, "pitch": 41, "duration": 15, "velocity": 84}, {"time": 1524, "pitch": 60, "duration": 4, "velocity": 79}, {"time": 1524, "pitch": 65, "duration": 8, "velocity": 78}, {"time": 1524, "pitch": 68, "duration": 8, "velocity": 74}, {"time": 1530, "pitch": 60, "duration": 5, "velocity": 74}, {"time": 1536, "pitch": 65, "duration": 2, "velocity": 68}, {"time": 1536, "pitch": 68, "duration": 3, "velocity": 71}, {"time": 1542, "pitch": 60, "duration": 6, "velocity": 73}, {"time": 1548, "pitch": 65, "duration": 7, "velocity": 71}, {"time": 1548, "pitch": 68, "duration": 8, "velocity": 72}, {"time": 1554, "pitch": 60, "duration": 7, "velocity": 73}, {"time": 1560, "pitch": 65, "duration": 5, "velocity": 77}, {"time": 1560, "pitch": 68, "duration": 6, "velocity": 74}, {"time": 1566, "pitch": 43, "duration": 2, "velocity": 85}, {"time": 1572, "pitch": 44, "duration": 19, "velocity": 79}, {"time": 1572, "pitch": 56, "duration": 5, "velocity": 75}, {"time": 1572, "pitch": 60, "duration": 6, "velocity": 78}, {"time": 1572, "pitch": 63, "duration": 7, "velocity": 80}, {"time": 1578, "pitch": 51, "duration": 9, "velocity": 77}, {"time": 1584, "pitch": 56, "duration": 1, "velocity": 72}, {"time": 1584, "pitch": 60, "duration": 4, "velocity": 83}, {"time": 1584, "pitch": 63, "duration": 4, "velocity": 81}, {"time": 1590, "pitch": 56, "duration": 2, "velocity": 45}, {"time": 1596, "pitch": 44, "duration": 21, "velocity": 79}, {"time": 1596, "pitch": 60, "duration": 8, "velocity": 79}, {"time": 1596, "pitch": 63, "duration": 8, "velocity": 79}, {"time": 1602, "pitch": 51, "duration": 13, "velocity": 69}, {"time": 1608, "pitch": 60, "duration": 2, "velocity": 75}, {"time": 1608, "pitch": 63, "duration": 3, "velocity": 79}, {"time": 1614, "pitch": 56, "duration": 8, "velocity": 81}, {"time": 1620, "pitch": 44, "duration": 23, "velocity": 79}, {"time": 1620, "pitch": 63, "duration": 9, "velocity": 79}, {"time": 1626, "pitch": 51, "duration": 16, "velocity": 68}, {"time": 1632, "pitch": 60, "duration": 6, "velocity": 76}, {"time": 1638, "pitch": 56, "duration": 8, "velocity": 79}, {"time": 1644, "pitch": 44, "duration": 16, "velocity": 76}, {"time": 1644, "pitch": 63, "duration": 9, "velocity": 76}, {"time": 1650, "pitch": 51, "duration": 10, "velocity": 73}, {"time": 1650, "pitch": 56, "duration": 3, "velocity": 61}, {"time": 1656, "pitch": 60, "duration": 2, "velocity": 81}, {"time": 1656, "pitch": 63, "duration": 2, "velocity": 79}, {"time": 1656, "pitch": 68, "duration": 3, "velocity": 75}, {"time": 1662, "pitch": 39, "duration": 2, "velocity": 79}, {"time": 1662, "pitch": 43, "duration": 2, "velocity": 79}, {"time": 1662, "pitch": 55, "duration": 3, "velocity": 72}, {"time": 1668, "pitch": 41, "duration": 14, "velocity": 82}, {"time": 1668, "pitch": 53, "duration": 8, "velocity": 75}, {"time": 1668, "pitch": 56, "duration": 8, "velocity": 69}, {"time": 1674, "pitch": 48, "duration": 7, "velocity": 74}, {"time": 1680, "pitch": 53, "duration": 3, "velocity": 79}, {"time": 1680, "pitch": 56, "duration": 4, "velocity": 79}, {"time": 1680, "pitch": 60, "duration": 4, "velocity": 80}, {"time": 1692, "pitch": 39, "duration": 14, "velocity": 81}, {"time": 1692, "pitch": 58, "duration": 7, "velocity": 70}, {"time": 1692, "pitch": 63, "duration": 8, "velocity": 74}, {"time": 1698, "pitch": 46, "duration": 8, "velocity": 61}, {"time": 1704, "pitch": 58, "duration": 4, "velocity": 75}, {"time": 1704, "pitch": 63, "duration": 4, "velocity": 77}, {"time": 1704, "pitch": 67, "duration": 5, "velocity": 71}, {"time": 1716, "pitch": 44, "duration": 14, "velocity": 80}, {"time": 1716, "pitch": 56, "duration": 9, "velocity": 72}, {"time": 1716, "pitch": 60, "duration": 8, "velocity": 73}, {"time": 1722, "pitch": 51, "duration": 9, "velocity": 75}, {"time": 1728, "pitch": 56, "duration": 2, "velocity": 74}, {"time": 1728, "pitch": 60, "duration": 6, "velocity": 79}, {"time": 1728, "pitch": 63, "duration": 8, "velocity": 74}, {"time": 1734, "pitch": 56, "duration": 3, "velocity": 78}, {"time": 1740, "pitch": 48, "duration": 15, "velocity": 79}, {"time": 1740, "pitch": 60, "duration": 8, "velocity": 75}, {"time": 1740, "pitch": 63, "duration": 9, "velocity": 76}, {"time": 1746, "pitch": 55, "duration": 7, "velocity": 64}, {"time": 1752, "pitch": 60, "duration": 3, "velocity": 78}, {"time": 1752, "pitch": 63, "duration": 8, "velocity": 77}, {"time": 1752, "pitch": 67, "duration": 8, "velocity": 76}, {"time": 1758, "pitch": 60, "duration": 3, "velocity": 80}, {"time": 1764, "pitch": 49, "duration": 30, "velocity": 81}, {"time": 1764, "pitch": 56, "duration": 4, "velocity": 80}, {"time": 1764, "pitch": 61, "duration": 8, "velocity": 78}, {"time": 1770, "pitch": 56, "duration": 7, "velocity": 80}, {"time": 1776, "pitch": 61, "duration": 10, "velocity": 80}, {"time": 1776, "pitch": 65, "duration": 7, "velocity": 81}, {"time": 1782, "pitch": 56, "duration": 5, "velocity": 67}, {"time": 1788, "pitch": 61, "duration": 9, "velocity": 76}, {"time": 1788, "pitch": 65, "duration": 9, "velocity": 79}, {"time": 1794, "pitch": 56, "duration": 4, "velocity": 77}, {"time": 1800, "pitch": 39, "duration": 11, "velocity": 85}, {"time": 1800, "pitch": 58, "duration": 3, "velocity": 79}, {"time": 1800, "pitch": 63, "duration": 9, "velocity": 77}, {"time": 1806, "pitch": 58, "duration": 4, "velocity": 79}, {"time": 1812, "pitch": 41, "duration": 18, "velocity": 82}, {"time": 1812, "pitch": 53, "duration": 7, "velocity": 80}, {"time": 1812, "pitch": 56, "duration": 6, "velocity": 78}, {"time": 1818, "pitch": 48, "duration": 13, "velocity": 78}, {"time": 1824, "pitch": 56, "duration": 4, "velocity": 77}, {"time": 1824, "pitch": 60, "duration": 7, "velocity": 80}, {"time": 1830, "pitch": 53, "duration": 2, "velocity": 83}, {"time": 1836, "pitch": 44, "duration": 15, "velocity": 79}, {"time": 1836, "pitch": 56, "duration": 7, "velocity": 75}, {"time": 1836, "pitch": 60, "duration": 7, "velocity": 72}, {"time": 1842, "pitch": 51, "duration": 8, "velocity": 73}, {"time": 1848, "pitch": 56, "duration": 2, "velocity": 78}, {"time": 1848, "pitch": 60, "duration": 3, "velocity": 80}, {"time": 1848, "pitch": 63, "duration": 6, "velocity": 79}, {"time": 1854, "pitch": 56, "duration": 5, "velocity": 80}, {"time": 1860, "pitch": 41, "duration": 15, "velocity": 80}, {"time": 1860, "pitch": 60, "duration": 8, "velocity": 72}, {"time": 1860, "pitch": 65, "duration": 8, "velocity": 79}, {"time": 1866, "pitch": 48, "duration": 7, "velocity": 64}, {"time": 1866, "pitch": 56, "duration": 5, "velocity": 70}, {"time": 1872, "pitch": 60, "duration": 3, "velocity": 80}, {"time": 1872, "pitch": 65, "duration": 8, "velocity": 80}, {"time": 1878, "pitch": 56, "duration": 3, "velocity": 81}, {"time": 1884, "pitch": 44, "duration": 14, "velocity": 79}, {"time": 1884, "pitch": 56, "duration": 5, "velocity": 67}, {"time": 1884, "pitch": 60, "duration": 5, "velocity": 65}, {"time": 1884, "pitch": 63, "duration": 5, "velocity": 73}, {"time": 1890, "pitch": 51, "duration": 7, "velocity": 67}, {"time": 1896, "pitch": 56, "duration": 2, "velocity": 78}, {"time": 1896, "pitch": 60, "duration": 2, "velocity": 82}, {"time": 1896, "pitch": 63, "duration": 3, "velocity": 79}, {"time": 1908, "pitch": 41, "duration": 22, "velocity": 82}, {"time": 1908, "pitch": 56, "duration": 8, "velocity": 73}, {"time": 1908, "pitch": 60, "duration": 8, "velocity": 77}, {"time": 1908, "pitch": 65, "duration": 8, "velocity": 78}, {"time": 1914, "pitch": 48, "duration": 17, "velocity": 63}, {"time": 1920, "pitch": 60, "duration": 9, "velocity": 81}, {"time": 1920, "pitch": 65, "duration": 9, "velocity": 82}, {"time": 1926, "pitch": 56, "duration": 10, "velocity": 80}, {"time": 1932, "pitch": 41, "duration": 20, "velocity": 80}, {"time": 1932, "pitch": 60, "duration": 9, "velocity": 76}, {"time": 1932, "pitch": 65, "duration": 8, "velocity": 81}, {"time": 1938, "pitch": 48, "duration": 13, "velocity": 67}, {"time": 1944, "pitch": 56, "duration": 3, "velocity": 75}, {"time": 1944, "pitch": 60, "duration": 6, "velocity": 82}, {"time": 1944, "pitch": 65, "duration": 8, "velocity": 80}, {"time": 1950, "pitch": 56, "duration": 3, "velocity": 79}, {"time": 1956, "pitch": 39, "duration": 15, "velocity": 81}, {"time": 1956, "pitch": 51, "duration": 9, "velocity": 58}, {"time": 1956, "pitch": 55, "duration": 10, "velocity": 63}, {"time": 1956, "pitch": 58, "duration": 11, "velocity": 69}, {"time": 1962, "pitch": 46, "duration": 9, "velocity": 70}, {"time": 1968, "pitch": 51, "duration": 3, "velocity": 80}, {"time": 1968, "pitch": 55, "duration": 6, "velocity": 80}, {"time": 1968, "pitch": 58, "duration": 8, "velocity": 77}, {"time": 1974, "pitch": 51, "duration": 2, "velocity": 79}, {"time": 1980, "pitch": 44, "duration": 15, "velocity": 79}, {"time": 1980, "pitch": 56, "duration": 8, "velocity": 76}, {"time": 1980, "pitch": 60, "duration": 7, "velocity": 75}, {"time": 1986, "pitch": 51, "duration": 8, "velocity": 67}, {"time": 1992, "pitch": 56, "duration": 3, "velocity": 79}, {"time": 1992, "pitch": 60, "duration": 3, "velocity": 81}, {"time": 1992, "pitch": 63, "duration": 4, "velocity": 79}, {"time": 2004, "pitch": 46, "duration": 21, "velocity": 80}, {"time": 2004, "pitch": 58, "duration": 8, "velocity": 73}, {"time": 2004, "pitch": 61, "duration": 8, "velocity": 76}, {"time": 2010, "pitch": 53, "duration": 11, "velocity": 79}, {"time": 2016, "pitch": 58, "duration": 6, "velocity": 79}, {"time": 2016, "pitch": 61, "duration": 7, "velocity": 82}, {"time": 2016, "pitch": 65, "duration": 7, "velocity": 80}, {"time": 2022, "pitch": 53, "duration": 5, "velocity": 79}, {"time": 2028, "pitch": 48, "duration": 14, "velocity": 80}, {"time": 2028, "pitch": 60, "duration": 7, "velocity": 74}, {"time": 2028, "pitch": 63, "duration": 7, "velocity": 76}, {"time": 2034, "pitch": 55, "duration": 7, "velocity": 73}, {"time": 2040, "pitch": 60, "duration": 3, "velocity": 79}, {"time": 2040, "pitch": 63, "duration": 7, "velocity": 79}, {"time": 2040, "pitch": 67, "duration": 7, "velocity": 78}, {"time": 2046, "pitch": 60, "duration": 4, "velocity": 74}, {"time": 2052, "pitch": 41, "duration": 14, "velocity": 85}, {"time": 2052, "pitch": 60, "duration": 9, "velocity": 74}, {"time": 2052, "pitch": 65, "duration": 8, "velocity": 75}, {"time": 2058, "pitch": 48, "duration": 7, "velocity": 69}, {"time": 2064, "pitch": 60, "duration": 3, "velocity": 79}, {"time": 2064, "pitch": 65, "duration": 7, "velocity": 81}, {"time": 2064, "pitch": 68, "duration": 6, "velocity": 74}, {"time": 2070, "pitch": 60, "duration": 2, "velocity": 81}, {"time": 2076, "pitch": 46, "duration": 19, "velocity": 80}, {"time": 2076, "pitch": 58, "duration": 9, "velocity": 70}, {"time": 2076, "pitch": 62, "duration": 8, "velocity": 67}, {"time": 2082, "pitch": 53, "duration": 11, "velocity": 71}, {"time": 2088, "pitch": 58, "duration": 3, "velocity": 80}, {"time": 2088, "pitch": 62, "duration": 6, "velocity": 86}, {"time": 2088, "pitch": 65, "duration": 8, "velocity": 84}, {"time": 2094, "pitch": 58, "duration": 3, "velocity": 76}, {"time": 2100, "pitch": 39, "duration": 8, "velocity": 80}, {"time": 2100, "pitch": 58, "duration": 7, "velocity": 79}, {"time": 2100, "pitch": 63, "duration": 5, "velocity": 80}, {"time": 2112, "pitch": 40, "duration": 11, "velocity": 83}, {"time": 2112, "pitch": 64, "duration": 11, "velocity": 85}, {"time": 2112, "pitch": 67, "duration": 11, "velocity": 77}, {"time": 2124, "pitch": 41, "duration": 22, "velocity": 83}, {"time": 2124, "pitch": 60, "duration": 7, "velocity": 80}, {"time": 2124, "pitch": 65, "duration": 7, "velocity": 82}, {"time": 2130, "pitch": 48, "duration": 16, "velocity": 71}, {"time": 2136, "pitch": 60, "duration": 3, "velocity": 81}, {"time": 2136, "pitch": 68, "duration": 8, "velocity": 79}, {"time": 2142, "pitch": 60, "duration": 4, "velocity": 78}, {"time": 2148, "pitch": 41, "duration": 18, "velocity": 82}, {"time": 2148, "pitch": 53, "duration": 7, "velocity": 80}, {"time": 2148, "pitch": 56, "duration": 6, "velocity": 78}, {"time": 2154, "pitch": 48, "duration": 13, "velocity": 78}, {"time": 2160, "pitch": 56, "duration": 4, "velocity": 77}, {"time": 2160, "pitch": 60, "duration": 7, "velocity": 80}, {"time": 2166, "pitch": 53, "duration": 2, "velocity": 83}, {"time": 2172, "pitch": 44, "duration": 15, "velocity": 79}, {"time": 2172, "pitch": 56, "duration": 7, "velocity": 75}, {"time": 2172, "pitch": 60, "duration": 7, "velocity": 72}, {"time": 2178, "pitch": 51, "duration": 8, "velocity": 73}, {"time": 2184, "pitch": 56, "duration": 2, "velocity": 78}, {"time": 2184, "pitch": 60, "duration": 3, "velocity": 80}, {"time": 2184, "pitch": 63, "duration": 6, "velocity": 79}, {"time": 2190, "pitch": 56, "duration": 5, "velocity": 80}, {"time": 2196, "pitch": 41, "duration": 15, "velocity": 80}, {"time": 2196, "pitch": 60, "duration": 8, "velocity": 72}, {"time": 2196, "pitch": 65, "duration": 8, "velocity": 79}, {"time": 2202, "pitch": 48, "duration": 7, "velocity": 64}, {"time": 2202, "pitch": 56, "duration": 5, "velocity": 70}, {"time": 2208, "pitch": 60, "duration": 3, "velocity": 80}, {"time": 2208, "pitch": 65, "duration": 8, "velocity": 80}, {"time": 2214, "pitch": 56, "duration": 3, "velocity": 81}, {"time": 2220, "pitch": 44, "duration": 14, "velocity": 79}, {"time": 2220, "pitch": 56, "duration": 5, "velocity": 67}, {"time": 2220, "pitch": 60, "duration": 5, "velocity": 65}, {"time": 2220, "pitch": 63, "duration": 5, "velocity": 73}, {"time": 2226, "pitch": 51, "duration": 7, "velocity": 67}, {"time": 2232, "pitch": 56, "duration": 2, "velocity": 78}, {"time": 2232, "pitch": 60, "duration": 2, "velocity": 82}, {"time": 2232, "pitch": 63, "duration": 3, "velocity": 79}, {"time": 2244, "pitch": 41, "duration": 22, "velocity": 82}, {"time": 2244, "pitch": 56, "duration": 8, "velocity": 73}, {"time": 2244, "pitch": 60, "duration": 8, "velocity": 77}, {"time": 2244, "pitch": 65, "duration": 8, "velocity": 78}, {"time": 2250, "pitch": 48, "duration": 17, "velocity": 63}, {"time": 2256, "pitch": 60, "duration": 9, "velocity": 81}, {"time": 2256, "pitch": 65, "duration": 9, "velocity": 82}, {"time": 2262, "pitch": 56, "duration": 10, "velocity": 80}, {"time": 2268, "pitch": 41, "duration": 20, "velocity": 80}, {"time": 2268, "pitch": 60, "duration": 9, "velocity": 76}, {"time": 2268, "pitch": 65, "duration": 8, "velocity": 81}, {"time": 2274, "pitch": 48, "duration": 13, "velocity": 67}, {"time": 2280, "pitch": 56, "duration": 3, "velocity": 75}, {"time": 2280, "pitch": 60, "duration": 6, "velocity": 82}, {"time": 2280, "pitch": 65, "duration": 8, "velocity": 80}, {"time": 2286, "pitch": 56, "duration": 3, "velocity": 79}, {"time": 2292, "pitch": 39, "duration": 15, "velocity": 81}, {"time": 2292, "pitch": 51, "duration": 9, "velocity": 58}, {"time": 2292, "pitch": 55, "duration": 10, "velocity": 63}, {"time": 2292, "pitch": 58, "duration": 11, "velocity": 69}, {"time": 2298, "pitch": 46, "duration": 9, "velocity": 70}, {"time": 2304, "pitch": 51, "duration": 3, "velocity": 80}, {"time": 2304, "pitch": 55, "duration": 6, "velocity": 80}, {"time": 2304, "pitch": 58, "duration": 8, "velocity": 77}, {"time": 2310, "pitch": 51, "duration": 2, "velocity": 79}, {"time": 2316, "pitch": 44, "duration": 15, "velocity": 79}, {"time": 2316, "pitch": 56, "duration": 8, "velocity": 76}, {"time": 2316, "pitch": 60, "duration": 7, "velocity": 75}, {"time": 2322, "pitch": 51, "duration": 8, "velocity": 67}, {"time": 2328, "pitch": 56, "duration": 3, "velocity": 79}, {"time": 2328, "pitch": 60, "duration": 3, "velocity": 81}, {"time": 2328, "pitch": 63, "duration": 4, "velocity": 79}, {"time": 2340, "pitch": 46, "duration": 21, "velocity": 80}, {"time": 2340, "pitch": 58, "duration": 8, "velocity": 73}, {"time": 2340, "pitch": 61, "duration": 8, "velocity": 76}, {"time": 2346, "pitch": 53, "duration": 11, "velocity": 79}, {"time": 2352, "pitch": 58, "duration": 6, "velocity": 79}, {"time": 2352, "pitch": 61, "duration": 7, "velocity": 82}, {"time": 2352, "pitch": 65, "duration": 7, "velocity": 80}, {"time": 2358, "pitch": 53, "duration": 5, "velocity": 79}, {"time": 2364, "pitch": 48, "duration": 14, "velocity": 80}, {"time": 2364, "pitch": 60, "duration": 7, "velocity": 74}, {"time": 2364, "pitch": 63, "duration": 7, "velocity": 76}, {"time": 2370, "pitch": 55, "duration": 7, "velocity": 73}, {"time": 2376, "pitch": 60, "duration": 3, "velocity": 79}, {"time": 2376, "pitch": 63, "duration": 7, "velocity": 79}, {"time": 2376, "pitch": 67, "duration": 7, "velocity": 78}, {"time": 2382, "pitch": 60, "duration": 4, "velocity": 74}, {"time": 2388, "pitch": 41, "duration": 15, "velocity": 81}, {"time": 2388, "pitch": 60, "duration": 8, "velocity": 67}, {"time": 2388, "pitch": 65, "duration": 8, "velocity": 75}, {"time": 2388, "pitch": 66, "duration": 3, "velocity": 74}, {"time": 2394, "pitch": 48, "duration": 8, "velocity": 71}, {"time": 2400, "pitch": 60, "duration": 3, "velocity": 79}, {"time": 2400, "pitch": 65, "duration": 7, "velocity": 82}, {"time": 2400, "pitch": 68, "duration": 6, "velocity": 78}, {"time": 2406, "pitch": 60, "duration": 3, "velocity": 79}, {"time": 2412, "pitch": 46, "duration": 16, "velocity": 80}, {"time": 2412, "pitch": 58, "duration": 6, "velocity": 73}, {"time": 2412, "pitch": 62, "duration": 5, "velocity": 71}, {"time": 2412, "pitch": 65, "duration": 5, "velocity": 80}, {"time": 2418, "pitch": 53, "duration": 8, "velocity": 79}, {"time": 2424, "pitch": 58, "duration": 12, "velocity": 79}, {"time": 2424, "pitch": 62, "duration": 12, "velocity": 83}, {"time": 2424, "pitch": 65, "duration": 13, "velocity": 83}, {"time": 2424, "pitch": 70, "duration": 13, "velocity": 78}, {"time": 2430, "pitch": 53, "duration": 6, "velocity": 86}, {"time": 2436, "pitch": 41, "duration": 18, "velocity": 82}, {"time": 2436, "pitch": 53, "duration": 7, "velocity": 80}, {"time": 2436, "pitch": 56, "duration": 6, "velocity": 78}, {"time": 2442, "pitch": 48, "duration": 13, "velocity": 78}, {"time": 2448, "pitch": 56, "duration": 4, "velocity": 77}, {"time": 2448, "pitch": 60, "duration": 7, "velocity": 80}, {"time": 2454, "pitch": 53, "duration": 2, "velocity": 83}, {"time": 2460, "pitch": 44, "duration": 15, "velocity": 79}, {"time": 2460, "pitch": 56, "duration": 7, "velocity": 75}, {"time": 2460, "pitch": 60, "duration": 7, "velocity": 72}, {"time": 2466, "pitch": 51, "duration": 8, "velocity": 73}, {"time": 2472, "pitch": 56, "duration": 2, "velocity": 78}, {"time": 2472, "pitch": 60, "duration": 3, "velocity": 80}, {"time": 2472, "pitch": 63, "duration": 6, "velocity": 79}, {"time": 2478, "pitch": 56, "duration": 5, "velocity": 80}, {"time": 2484, "pitch": 41, "duration": 15, "velocity": 80}, {"time": 2484, "pitch": 60, "duration": 8, "velocity": 72}, {"time": 2484, "pitch": 65, "duration": 8, "velocity": 79}, {"time": 2490, "pitch": 48, "duration": 7, "velocity": 64}, {"time": 2490, "pitch": 56, "duration": 5, "velocity": 70}, {"time": 2496, "pitch": 60, "duration": 3, "velocity": 80}, {"time": 2496, "pitch": 65, "duration": 8, "velocity": 80}, {"time": 2502, "pitch": 56, "duration": 3, "velocity": 81}, {"time": 2508, "pitch": 44, "duration": 14, "velocity": 79}, {"time": 2508, "pitch": 56, "duration": 5, "velocity": 67}, {"time": 2508, "pitch": 60, "duration": 5, "velocity": 65}, {"time": 2508, "pitch": 63, "duration": 5, "velocity": 73}, {"time": 2514, "pitch": 51, "duration": 7, "velocity": 67}, {"time": 2520, "pitch": 56, "duration": 2, "velocity": 78}, {"time": 2520, "pitch": 60, "duration": 2, "velocity": 82}, {"time": 2520, "pitch": 63, "duration": 3, "velocity": 79}, {"time": 2532, "pitch": 41, "duration": 22, "velocity": 82}, {"time": 2532, "pitch": 56, "duration": 8, "velocity": 73}, {"time": 2532, "pitch": 60, "duration": 8, "velocity": 77}, {"time": 2532, "pitch": 65, "duration": 8, "velocity": 78}, {"time": 2538, "pitch": 48, "duration": 17, "velocity": 63}, {"time": 2544, "pitch": 60, "duration": 9, "velocity": 81}, {"time": 2544, "pitch": 65, "duration": 9, "velocity": 82}, {"time": 2550, "pitch": 56, "duration": 10, "velocity": 80}, {"time": 2556, "pitch": 41, "duration": 20, "velocity": 80}, {"time": 2556, "pitch": 60, "duration": 9, "velocity": 76}, {"time": 2556, "pitch": 65, "duration": 8, "velocity": 81}, {"time": 2562, "pitch": 48, "duration": 13, "velocity": 67}, {"time": 2568, "pitch": 56, "duration": 3, "velocity": 75}, {"time": 2568, "pitch": 60, "duration": 6, "velocity": 82}, {"time": 2568, "pitch": 65, "duration": 8, "velocity": 80}, {"time": 2574, "pitch": 56, "duration": 3, "velocity": 79}, {"time": 2580, "pitch": 39, "duration": 15, "velocity": 81}, {"time": 2580, "pitch": 51, "duration": 9, "velocity": 58}, {"time": 2580, "pitch": 55, "duration": 10, "velocity": 63}, {"time": 2580, "pitch": 58, "duration": 11, "velocity": 69}, {"time": 2586, "pitch": 46, "duration": 9, "velocity": 70}, {"time": 2592, "pitch": 51, "duration": 3, "velocity": 80}, {"time": 2592, "pitch": 55, "duration": 6, "velocity": 80}, {"time": 2592, "pitch": 58, "duration": 8, "velocity": 77}, {"time": 2598, "pitch": 51, "duration": 2, "velocity": 79}, {"time": 2604, "pitch": 44, "duration": 15, "velocity": 79}, {"time": 2604, "pitch": 56, "duration": 8, "velocity": 76}, {"time": 2604, "pitch": 60, "duration": 7, "velocity": 75}, {"time": 2610, "pitch": 51, "duration": 8, "velocity": 67}, {"time": 2616, "pitch": 56, "duration": 3, "velocity": 79}, {"time": 2616, "pitch": 60, "duration": 3, "velocity": 81}, {"time": 2616, "pitch": 63, "duration": 4, "velocity": 79}, {"time": 2628, "pitch": 46, "duration": 21, "velocity": 80}, {"time": 2628, "pitch": 58, "duration": 8, "velocity": 73}, {"time": 2628, "pitch": 61, "duration": 8, "velocity": 76}, {"time": 2634, "pitch": 53, "duration": 11, "velocity": 79}, {"time": 2640, "pitch": 58, "duration": 6, "velocity": 79}, {"time": 2640, "pitch": 61, "duration": 7, "velocity": 82}, {"time": 2640, "pitch": 65, "duration": 7, "velocity": 80}, {"time": 2646, "pitch": 53, "duration": 5, "velocity": 79}, {"time": 2652, "pitch": 48, "duration": 14, "velocity": 80}, {"time": 2652, "pitch": 60, "duration": 7, "velocity": 74}, {"time": 2652, "pitch": 63, "duration": 7, "velocity": 76}, {"time": 2658, "pitch": 55, "duration": 7, "velocity": 73}, {"time": 2664, "pitch": 60, "duration": 3, "velocity": 79}, {"time": 2664, "pitch": 63, "duration": 7, "velocity": 79}, {"time": 2664, "pitch": 67, "duration": 7, "velocity": 78}, {"time": 2670, "pitch": 60, "duration": 4, "velocity": 74}, {"time": 2676, "pitch": 41, "duration": 15, "velocity": 81}, {"time": 2676, "pitch": 60, "duration": 8, "velocity": 67}, {"time": 2676, "pitch": 65, "duration": 8, "velocity": 75}, {"time": 2676, "pitch": 66, "duration": 3, "velocity": 74}, {"time": 2682, "pitch": 48, "duration": 8, "velocity": 71}, {"time": 2688, "pitch": 60, "duration": 3, "velocity": 79}, {"time": 2688, "pitch": 65, "duration": 7, "velocity": 82}, {"time": 2688, "pitch": 68, "duration": 6, "velocity": 78}, {"time": 2694, "pitch": 60, "duration": 3, "velocity": 79}, {"time": 2700, "pitch": 46, "duration": 16, "velocity": 80}, {"time": 2700, "pitch": 58, "duration": 6, "velocity": 73}, {"time": 2700, "pitch": 62, "duration": 5, "velocity": 71}, {"time": 2700, "pitch": 65, "duration": 5, "velocity": 80}, {"time": 2706, "pitch": 53, "duration": 8, "velocity": 79}, {"time": 2712, "pitch": 58, "duration": 12, "velocity": 79}, {"time": 2712, "pitch": 62, "duration": 12, "velocity": 83}, {"time": 2712, "pitch": 65, "duration": 13, "velocity": 83}, {"time": 2712, "pitch": 70, "duration": 13, "velocity": 78}, {"time": 2718, "pitch": 53, "duration": 6, "velocity": 86}, {"time": 2724, "pitch": 39, "duration": 13, "velocity": 85}, {"time": 2724, "pitch": 58, "duration": 7, "velocity": 78}, {"time": 2724, "pitch": 63, "duration": 7, "velocity": 80}, {"time": 2730, "pitch": 46, "duration": 7, "velocity": 58}, {"time": 2736, "pitch": 63, "duration": 12, "velocity": 77}, {"time": 2736, "pitch": 67, "duration": 12, "velocity": 78}, {"time": 2742, "pitch": 58, "duration": 6, "velocity": 75}, {"time": 2748, "pitch": 51, "duration": 12, "velocity": 80}, {"time": 2754, "pitch": 58, "duration": 5, "velocity": 69}, {"time": 2760, "pitch": 63, "duration": 4, "velocity": 78}, {"time": 2760, "pitch": 67, "duration": 8, "velocity": 74}, {"time": 2766, "pitch": 63, "duration": 13, "velocity": 67}, {"time": 2772, "pitch": 44, "duration": 18, "velocity": 78}, {"time": 2772, "pitch": 72, "duration": 21, "velocity": 70}, {"time": 2778, "pitch": 51, "duration": 12, "velocity": 77}, {"time": 2784, "pitch": 63, "duration": 9, "velocity": 86}, {"time": 2790, "pitch": 68, "duration": 4, "velocity": 82}, {"time": 2796, "pitch": 44, "duration": 19, "velocity": 79}, {"time": 2796, "pitch": 63, "duration": 3, "velocity": 79}, {"time": 2796, "pitch": 68, "duration": 10, "velocity": 82}, {"time": 2796, "pitch": 72, "duration": 12, "velocity": 80}, {"time": 2802, "pitch": 63, "duration": 15, "velocity": 72}, {"time": 2808, "pitch": 68, "duration": 9, "velocity": 71}, {"time": 2817, "pitch": 58, "duration": 11, "velocity": 61}, {"time": 2817, "pitch": 63, "duration": 14, "velocity": 74}, {"time": 2820, "pitch": 39, "duration": 14, "velocity": 81}, {"time": 2820, "pitch": 67, "duration": 17, "velocity": 69}, {"time": 2826, "pitch": 46, "duration": 8, "velocity": 67}, {"time": 2832, "pitch": 58, "duration": 4, "velocity": 80}, {"time": 2841, "pitch": 60, "duration": 4, "velocity": 72}, {"time": 2844, "pitch": 48, "duration": 23, "velocity": 80}, {"time": 2844, "pitch": 63, "duration": 12, "velocity": 77}, {"time": 2844, "pitch": 67, "duration": 14, "velocity": 71}, {"time": 2853, "pitch": 55, "duration": 15, "velocity": 75}, {"time": 2859, "pitch": 60, "duration": 4, "velocity": 83}, {"time": 2859, "pitch": 63, "duration": 10, "velocity": 86}, {"time": 2865, "pitch": 60, "duration": 9, "velocity": 81}, {"time": 2874, "pitch": 41, "duration": 27, "velocity": 82}, {"time": 2874, "pitch": 65, "duration": 24, "velocity": 80}, {"time": 2880, "pitch": 48, "duration": 19, "velocity": 68}, {"time": 2889, "pitch": 53, "duration": 9, "velocity": 86}, {"time": 2898, "pitch": 60, "duration": 3, "velocity": 81}, {"time": 2907, "pitch": 41, "duration": 19, "velocity": 60}, {"time": 2910, "pitch": 48, "duration": 16, "velocity": 64}, {"time": 2910, "pitch": 65, "duration": 17, "velocity": 62}, {"time": 2910, "pitch": 68, "duration": 15, "velocity": 67}, {"time": 2913, "pitch": 77, "duration": 13, "velocity": 69}], "annotations": [{"time": 37, "annotation": {"number": 64, "value": 127}, "group": "control_change"}, {"time": 82, "annotation": {"number": 64, "value": 0}, "group": "control_change"}, {"time": 84, "annotation": {"number": 64, "value": 127}, "group": "control_change"}, {"time": 131, "annotation": {"number": 64, "value": 0}, "group": "control_change"}, {"time": 133, "annotation": {"number": 64, "value": 127}, "group": "control_change"}, {"time": 179, "annotation": {"number": 64, "value": 0}, "group": "control_change"}, {"time": 181, "annotation": {"number": 64, "value": 127}, "group": "control_change"}, {"time": 203, "annotation": {"number": 64, "value": 0}, "group": "control_change"}, {"time": 204, "annotation": {"number": 64, "value": 127}, "group": "control_change"}, {"time": 228, "annotation": {"number": 64, "value": 0}, "group": "control_change"}, {"time": 230, "annotation": {"number": 64, "value": 127}, "group": "control_change"}, {"time": 250, "annotation": {"number": 64, "value": 0}, "group": "control_change"}, {"time": 252, "annotation": {"number": 64, "value": 0}, "group": "control_change"}, {"time": 253, "annotation": {"number": 64, "value": 127}, "group": "control_change"}, {"time": 256, "annotation": {"number": 64, "value": 0}, "group": "control_change"}, {"time": 273, "annotation": {"number": 64, "value": 0}, "group": "control_change"}, {"time": 277, "annotation": {"number": 64, "value": 127}, "group": "control_change"}, {"time": 278, "annotation": {"number": 64, "value": 0}, "group": "control_change"}, {"time": 278, "annotation": {"number": 64, "value": 127}, "group": "control_change"}, {"time": 300, "annotation": {"number": 64, "value": 0}, "group": "control_change"}, {"time": 303, "annotation": {"number": 64, "value": 127}, "group": "control_change"}, {"time": 324, "annotation": {"number": 64, "value": 0}, "group": "control_change"}, {"time": 326, "annotation": {"number": 64, "value": 127}, "group": "control_change"}, {"time": 359, "annotation": {"number": 64, "value": 0}, "group": "control_change"}, {"time": 361, "annotation": {"number": 64, "value": 127}, "group": "control_change"}, {"time": 372, "annotation": {"number": 64, "value": 0}, "group": "control_change"}, {"time": 378, "annotation": {"number": 64, "value": 127}, "group": "control_change"}, {"time": 420, "annotation": {"number": 64, "value": 0}, "group": "control_change"}, {"time": 423, "annotation": {"number": 64, "value": 127}, "group": "control_change"}, {"time": 467, "annotation": {"number": 64, "value": 0}, "group": "control_change"}, {"time": 471, "annotation": {"number": 64, "value": 127}, "group": "control_change"}, {"time": 492, "annotation": {"number": 64, "value": 0}, "group": "control_change"}, {"time": 496, "annotation": {"number": 64, "value": 127}, "group": "control_change"}, {"time": 514, "annotation": {"number": 64, "value": 0}, "group": "control_change"}, {"time": 517, "annotation": {"number": 64, "value": 127}, "group": "control_change"}, {"time": 562, "annotation": {"number": 64, "value": 0}, "group": "control_change"}, {"time": 566, "annotation": {"number": 64, "value": 127}, "group": "control_change"}, {"time": 589, "annotation": {"number": 64, "value": 0}, "group": "control_change"}, {"time": 592, "annotation": {"number": 64, "value": 127}, "group": "control_change"}, {"time": 613, "annotation": {"number": 64, "value": 0}, "group": "control_change"}, {"time": 615, "annotation": {"number": 64, "value": 127}, "group": "control_change"}, {"time": 635, "annotation": {"number": 64, "value": 0}, "group": "control_change"}, {"time": 639, "annotation": {"number": 64, "value": 127}, "group": "control_change"}, {"time": 658, "annotation": {"number": 64, "value": 0}, "group": "control_change"}, {"time": 662, "annotation": {"number": 64, "value": 127}, "group": "control_change"}, {"time": 706, "annotation": {"number": 64, "value": 0}, "group": "control_change"}, {"time": 709, "annotation": {"number": 64, "value": 127}, "group": "control_change"}, {"time": 731, "annotation": {"number": 64, "value": 0}, "group": "control_change"}, {"time": 733, "annotation": {"number": 64, "value": 127}, "group": "control_change"}, {"time": 754, "annotation": {"number": 64, "value": 0}, "group": "control_change"}, {"time": 757, "annotation": {"number": 64, "value": 127}, "group": "control_change"}, {"time": 779, "annotation": {"number": 64, "value": 0}, "group": "control_change"}, {"time": 782, "annotation": {"number": 64, "value": 127}, "group": "control_change"}, {"time": 803, "annotation": {"number": 64, "value": 0}, "group": "control_change"}, {"time": 805, "annotation": {"number": 64, "value": 127}, "group": "control_change"}, {"time": 827, "annotation": {"number": 64, "value": 0}, "group": "control_change"}, {"time": 829, "annotation": {"number": 64, "value": 127}, "group": "control_change"}, {"time": 850, "annotation": {"number": 64, "value": 0}, "group": "control_change"}, {"time": 852, "annotation": {"number": 64, "value": 127}, "group": "control_change"}, {"time": 852, "annotation": {"number": 64, "value": 0}, "group": "control_change"}, {"time": 862, "annotation": {"number": 64, "value": 0}, "group": "control_change"}, {"time": 864, "annotation": {"number": 64, "value": 127}, "group": "control_change"}, {"time": 874, "annotation": {"number": 64, "value": 0}, "group": "control_change"}, {"time": 876, "annotation": {"number": 64, "value": 127}, "group": "control_change"}, {"time": 900, "annotation": {"number": 64, "value": 0}, "group": "control_change"}, {"time": 902, "annotation": {"number": 64, "value": 127}, "group": "control_change"}, {"time": 923, "annotation": {"number": 64, "value": 0}, "group": "control_change"}, {"time": 926, "annotation": {"number": 64, "value": 127}, "group": "control_change"}, {"time": 947, "annotation": {"number": 64, "value": 0}, "group": "control_change"}, {"time": 949, "annotation": {"number": 64, "value": 127}, "group": "control_change"}, {"time": 970, "annotation": {"number": 64, "value": 0}, "group": "control_change"}, {"time": 973, "annotation": {"number": 64, "value": 127}, "group": "control_change"}, {"time": 994, "annotation": {"number": 64, "value": 0}, "group": "control_change"}, {"time": 996, "annotation": {"number": 64, "value": 127}, "group": "control_change"}, {"time": 998, "annotation": {"number": 64, "value": 127}, "group": "control_change"}, {"time": 1018, "annotation": {"number": 64, "value": 0}, "group": "control_change"}, {"time": 1021, "annotation": {"number": 64, "value": 127}, "group": "control_change"}, {"time": 1044, "annotation": {"number": 64, "value": 0}, "group": "control_change"}, {"time": 1046, "annotation": {"number": 64, "value": 127}, "group": "control_change"}, {"time": 1067, "annotation": {"number": 64, "value": 0}, "group": "control_change"}, {"time": 1070, "annotation": {"number": 64, "value": 127}, "group": "control_change"}, {"time": 1092, "annotation": {"number": 64, "value": 0}, "group": "control_change"}, {"time": 1093, "annotation": {"number": 64, "value": 127}, "group": "control_change"}, {"time": 1103, "annotation": {"number": 64, "value": 0}, "group": "control_change"}, {"time": 1105, "annotation": {"number": 64, "value": 127}, "group": "control_change"}, {"time": 1114, "annotation": {"number": 64, "value": 0}, "group": "control_change"}, {"time": 1116, "annotation": {"number": 64, "value": 127}, "group": "control_change"}, {"time": 1138, "annotation": {"number": 64, "value": 0}, "group": "control_change"}, {"time": 1140, "annotation": {"number": 64, "value": 127}, "group": "control_change"}, {"time": 1163, "annotation": {"number": 64, "value": 0}, "group": "control_change"}, {"time": 1165, "annotation": {"number": 64, "value": 127}, "group": "control_change"}, {"time": 1187, "annotation": {"number": 64, "value": 0}, "group": "control_change"}, {"time": 1190, "annotation": {"number": 64, "value": 127}, "group": "control_change"}, {"time": 1211, "annotation": {"number": 64, "value": 0}, "group": "control_change"}, {"time": 1214, "annotation": {"number": 64, "value": 127}, "group": "control_change"}, {"time": 1235, "annotation": {"number": 64, "value": 0}, "group": "control_change"}, {"time": 1237, "annotation": {"number": 64, "value": 127}, "group": "control_change"}, {"time": 1258, "annotation": {"number": 64, "value": 0}, "group": "control_change"}, {"time": 1261, "annotation": {"number": 64, "value": 127}, "group": "control_change"}, {"time": 1282, "annotation": {"number": 64, "value": 0}, "group": "control_change"}, {"time": 1284, "annotation": {"number": 64, "value": 127}, "group": "control_change"}, {"time": 1286, "annotation": {"number": 64, "value": 127}, "group": "control_change"}, {"time": 1306, "annotation": {"number": 64, "value": 0}, "group": "control_change"}, {"time": 1309, "annotation": {"number": 64, "value": 127}, "group": "control_change"}, {"time": 1332, "annotation": {"number": 64, "value": 0}, "group": "control_change"}, {"time": 1334, "annotation": {"number": 64, "value": 127}, "group": "control_change"}, {"time": 1355, "annotation": {"number": 64, "value": 0}, "group": "control_change"}, {"time": 1358, "annotation": {"number": 64, "value": 127}, "group": "control_change"}, {"time": 1380, "annotation": {"number": 64, "value": 0}, "group": "control_change"}, {"time": 1381, "annotation": {"number": 64, "value": 127}, "group": "control_change"}, {"time": 1391, "annotation": {"number": 64, "value": 0}, "group": "control_change"}, {"time": 1393, "annotation": {"number": 64, "value": 127}, "group": "control_change"}, {"time": 1402, "annotation": {"number": 64, "value": 0}, "group": "control_change"}, {"time": 1404, "annotation": {"number": 64, "value": 127}, "group": "control_change"}, {"time": 1426, "annotation": {"number": 64, "value": 0}, "group": "control_change"}, {"time": 1428, "annotation": {"number": 64, "value": 127}, "group": "control_change"}, {"time": 1451, "annotation": {"number": 64, "value": 0}, "group": "control_change"}, {"time": 1453, "annotation": {"number": 64, "value": 127}, "group": "control_change"}, {"time": 1475, "annotation": {"number": 64, "value": 0}, "group": "control_change"}, {"time": 1477, "annotation": {"number": 64, "value": 127}, "group": "control_change"}, {"time": 1522, "annotation": {"number": 64, "value": 0}, "group": "control_change"}, {"time": 1524, "annotation": {"number": 64, "value": 127}, "group": "control_change"}, {"time": 1571, "annotation": {"number": 64, "value": 0}, "group": "control_change"}, {"time": 1573, "annotation": {"number": 64, "value": 127}, "group": "control_change"}, {"time": 1619, "annotation": {"number": 64, "value": 0}, "group": "control_change"}, {"time": 1621, "annotation": {"number": 64, "value": 127}, "group": "control_change"}, {"time": 1643, "annotation": {"number": 64, "value": 0}, "group": "control_change"}, {"time": 1644, "annotation": {"number": 64, "value": 127}, "group": "control_change"}, {"time": 1668, "annotation": {"number": 64, "value": 0}, "group": "control_change"}, {"time": 1670, "annotation": {"number": 64, "value": 127}, "group": "control_change"}, {"time": 1690, "annotation": {"number": 64, "value": 0}, "group": "control_change"}, {"time": 1692, "annotation": {"number": 64, "value": 0}, "group": "control_change"}, {"time": 1693, "annotation": {"number": 64, "value": 127}, "group": "control_change"}, {"time": 1696, "annotation": {"number": 64, "value": 0}, "group": "control_change"}, {"time": 1713, "annotation": {"number": 64, "value": 0}, "group": "control_change"}, {"time": 1717, "annotation": {"number": 64, "value": 127}, "group": "control_change"}, {"time": 1718, "annotation": {"number": 64, "value": 0}, "group": "control_change"}, {"time": 1718, "annotation": {"number": 64, "value": 127}, "group": "control_change"}, {"time": 1740, "annotation": {"number": 64, "value": 0}, "group": "control_change"}, {"time": 1743, "annotation": {"number": 64, "value": 127}, "group": "control_change"}, {"time": 1764, "annotation": {"number": 64, "value": 0}, "group": "control_change"}, {"time": 1766, "annotation": {"number": 64, "value": 127}, "group": "control_change"}, {"time": 1799, "annotation": {"number": 64, "value": 0}, "group": "control_change"}, {"time": 1801, "annotation": {"number": 64, "value": 127}, "group": "control_change"}, {"time": 1812, "annotation": {"number": 64, "value": 0}, "group": "control_change"}, {"time": 1814, "annotation": {"number": 64, "value": 127}, "group": "control_change"}, {"time": 1835, "annotation": {"number": 64, "value": 0}, "group": "control_change"}, {"time": 1838, "annotation": {"number": 64, "value": 127}, "group": "control_change"}, {"time": 1859, "annotation": {"number": 64, "value": 0}, "group": "control_change"}, {"time": 1861, "annotation": {"number": 64, "value": 127}, "group": "control_change"}, {"time": 1882, "annotation": {"number": 64, "value": 0}, "group": "control_change"}, {"time": 1885, "annotation": {"number": 64, "value": 127}, "group": "control_change"}, {"time": 1906, "annotation": {"number": 64, "value": 0}, "group": "control_change"}, {"time": 1908, "annotation": {"number": 64, "value": 127}, "group": "control_change"}, {"time": 1910, "annotation": {"number": 64, "value": 127}, "group": "control_change"}, {"time": 1930, "annotation": {"number": 64, "value": 0}, "group": "control_change"}, {"time": 1933, "annotation": {"number": 64, "value": 127}, "group": "control_change"}, {"time": 1956, "annotation": {"number": 64, "value": 0}, "group": "control_change"}, {"time": 1958, "annotation": {"number": 64, "value": 127}, "group": "control_change"}, {"time": 1979, "annotation": {"number": 64, "value": 0}, "group": "control_change"}, {"time": 1982, "annotation": {"number": 64, "value": 127}, "group": "control_change"}, {"time": 2004, "annotation": {"number": 64, "value": 0}, "group": "control_change"}, {"time": 2005, "annotation": {"number": 64, "value": 127}, "group": "control_change"}, {"time": 2015, "annotation": {"number": 64, "value": 0}, "group": "control_change"}, {"time": 2017, "annotation": {"number": 64, "value": 127}, "group": "control_change"}, {"time": 2026, "annotation": {"number": 64, "value": 0}, "group": "control_change"}, {"time": 2028, "annotation": {"number": 64, "value": 127}, "group": "control_change"}, {"time": 2050, "annotation": {"number": 64, "value": 0}, "group": "control_change"}, {"time": 2052, "annotation": {"number": 64, "value": 127}, "group": "control_change"}, {"time": 2053, "annotation": {"number": 64, "value": 127}, "group": "control_change"}, {"time": 2075, "annotation": {"number": 64, "value": 0}, "group": "control_change"}, {"time": 2077, "annotation": {"number": 64, "value": 127}, "group": "control_change"}, {"time": 2098, "annotation": {"number": 64, "value": 0}, "group": "control_change"}, {"time": 2100, "annotation": {"number": 64, "value": 127}, "group": "control_change"}, {"time": 2100, "annotation": {"number": 64, "value": 0}, "group": "control_change"}, {"time": 2110, "annotation": {"number": 64, "value": 0}, "group": "control_change"}, {"time": 2112, "annotation": {"number": 64, "value": 127}, "group": "control_change"}, {"time": 2122, "annotation": {"number": 64, "value": 0}, "group": "control_change"}, {"time": 2124, "annotation": {"number": 64, "value": 127}, "group": "control_change"}, {"time": 2148, "annotation": {"number": 64, "value": 0}, "group": "control_change"}, {"time": 2150, "annotation": {"number": 64, "value": 127}, "group": "control_change"}, {"time": 2171, "annotation": {"number": 64, "value": 0}, "group": "control_change"}, {"time": 2174, "annotation": {"number": 64, "value": 127}, "group": "control_change"}, {"time": 2195, "annotation": {"number": 64, "value": 0}, "group": "control_change"}, {"time": 2197, "annotation": {"number": 64, "value": 127}, "group": "control_change"}, {"time": 2218, "annotation": {"number": 64, "value": 0}, "group": "control_change"}, {"time": 2221, "annotation": {"number": 64, "value": 127}, "group": "control_change"}, {"time": 2242, "annotation": {"number": 64, "value": 0}, "group": "control_change"}, {"time": 2244, "annotation": {"number": 64, "value": 127}, "group": "control_change"}, {"time": 2246, "annotation": {"number": 64, "value": 127}, "group": "control_change"}, {"time": 2266, "annotation": {"number": 64, "value": 0}, "group": "control_change"}, {"time": 2269, "annotation": {"number": 64, "value": 127}, "group": "control_change"}, {"time": 2292, "annotation": {"number": 64, "value": 0}, "group": "control_change"}, {"time": 2294, "annotation": {"number": 64, "value": 127}, "group": "control_change"}, {"time": 2315, "annotation": {"number": 64, "value": 0}, "group": "control_change"}, {"time": 2318, "annotation": {"number": 64, "value": 127}, "group": "control_change"}, {"time": 2340, "annotation": {"number": 64, "value": 0}, "group": "control_change"}, {"time": 2341, "annotation": {"number": 64, "value": 127}, "group": "control_change"}, {"time": 2351, "annotation": {"number": 64, "value": 0}, "group": "control_change"}, {"time": 2353, "annotation": {"number": 64, "value": 127}, "group": "control_change"}, {"time": 2362, "annotation": {"number": 64, "value": 0}, "group": "control_change"}, {"time": 2364, "annotation": {"number": 64, "value": 127}, "group": "control_change"}, {"time": 2386, "annotation": {"number": 64, "value": 0}, "group": "control_change"}, {"time": 2388, "annotation": {"number": 64, "value": 127}, "group": "control_change"}, {"time": 2411, "annotation": {"number": 64, "value": 0}, "group": "control_change"}, {"time": 2413, "annotation": {"number": 64, "value": 127}, "group": "control_change"}, {"time": 2435, "annotation": {"number": 64, "value": 0}, "group": "control_change"}, {"time": 2438, "annotation": {"number": 64, "value": 127}, "group": "control_change"}, {"time": 2459, "annotation": {"number": 64, "value": 0}, "group": "control_change"}, {"time": 2462, "annotation": {"number": 64, "value": 127}, "group": "control_change"}, {"time": 2483, "annotation": {"number": 64, "value": 0}, "group": "control_change"}, {"time": 2485, "annotation": {"number": 64, "value": 127}, "group": "control_change"}, {"time": 2506, "annotation": {"number": 64, "value": 0}, "group": "control_change"}, {"time": 2509, "annotation": {"number": 64, "value": 127}, "group": "control_change"}, {"time": 2530, "annotation": {"number": 64, "value": 0}, "group": "control_change"}, {"time": 2532, "annotation": {"number": 64, "value": 127}, "group": "control_change"}, {"time": 2534, "annotation": {"number": 64, "value": 127}, "group": "control_change"}, {"time": 2554, "annotation": {"number": 64, "value": 0}, "group": "control_change"}, {"time": 2557, "annotation": {"number": 64, "value": 127}, "group": "control_change"}, {"time": 2580, "annotation": {"number": 64, "value": 0}, "group": "control_change"}, {"time": 2582, "annotation": {"number": 64, "value": 127}, "group": "control_change"}, {"time": 2603, "annotation": {"number": 64, "value": 0}, "group": "control_change"}, {"time": 2606, "annotation": {"number": 64, "value": 127}, "group": "control_change"}, {"time": 2628, "annotation": {"number": 64, "value": 0}, "group": "control_change"}, {"time": 2629, "annotation": {"number": 64, "value": 127}, "group": "control_change"}, {"time": 2639, "annotation": {"number": 64, "value": 0}, "group": "control_change"}, {"time": 2641, "annotation": {"number": 64, "value": 127}, "group": "control_change"}, {"time": 2650, "annotation": {"number": 64, "value": 0}, "group": "control_change"}, {"time": 2652, "annotation": {"number": 64, "value": 127}, "group": "control_change"}, {"time": 2674, "annotation": {"number": 64, "value": 0}, "group": "control_change"}, {"time": 2676, "annotation": {"number": 64, "value": 127}, "group": "control_change"}, {"time": 2699, "annotation": {"number": 64, "value": 0}, "group": "control_change"}, {"time": 2701, "annotation": {"number": 64, "value": 127}, "group": "control_change"}, {"time": 2723, "annotation": {"number": 64, "value": 0}, "group": "control_change"}, {"time": 2725, "annotation": {"number": 64, "value": 127}, "group": "control_change"}, {"time": 2770, "annotation": {"number": 64, "value": 0}, "group": "control_change"}, {"time": 2773, "annotation": {"number": 64, "value": 127}, "group": "control_change"}, {"time": 2809, "annotation": {"number": 64, "value": 127}, "group": "control_change"}, {"time": 2817, "annotation": {"number": 64, "value": 0}, "group": "control_change"}, {"time": 2819, "annotation": {"number": 64, "value": 0}, "group": "control_change"}, {"time": 2822, "annotation": {"number": 64, "value": 127}, "group": "control_change"}, {"time": 2842, "annotation": {"number": 64, "value": 0}, "group": "control_change"}, {"time": 2845, "annotation": {"number": 64, "value": 127}, "group": "control_change"}, {"time": 2872, "annotation": {"number": 64, "value": 0}, "group": "control_change"}, {"time": 2875, "annotation": {"number": 64, "value": 127}, "group": "control_change"}, {"time": 2962, "annotation": {"number": 64, "value": 0}, "group": "control_change"}]}]}