{"metadata": {"schema_version": "0.2", "title": "None", "source_filename": "812.mid", "source_format": "midi"}, "resolution": 12, "tempos": [{"time": 0, "qpm": 66.000066000066}, {"time": 132, "qpm": 66.30002751451141}, {"time": 216, "qpm": 66.000066000066}], "time_signatures": [{"time": 0, "numerator": 1, "denominator": 4}], "tracks": [{"program": 4, "is_drum": false, "name": "MELODY", "notes": [{"time": 410, "pitch": 66, "duration": 2, "velocity": 83}, {"time": 413, "pitch": 66, "duration": 1, "velocity": 83}, {"time": 416, "pitch": 66, "duration": 3, "velocity": 84}, {"time": 419, "pitch": 63, "duration": 3, "velocity": 84}, {"time": 422, "pitch": 68, "duration": 6, "velocity": 83}, {"time": 431, "pitch": 66, "duration": 16, "velocity": 83}, {"time": 458, "pitch": 66, "duration": 1, "velocity": 84}, {"time": 461, "pitch": 66, "duration": 1, "velocity": 83}, {"time": 464, "pitch": 66, "duration": 2, "velocity": 78}, {"time": 467, "pitch": 63, "duration": 2, "velocity": 83}, {"time": 470, "pitch": 68, "duration": 5, "velocity": 82}, {"time": 476, "pitch": 66, "duration": 16, "velocity": 83}, {"time": 506, "pitch": 66, "duration": 1, "velocity": 84}, {"time": 509, "pitch": 66, "duration": 1, "velocity": 82}, {"time": 512, "pitch": 66, "duration": 2, "velocity": 82}, {"time": 515, "pitch": 63, "duration": 1, "velocity": 82}, {"time": 518, "pitch": 68, "duration": 4, "velocity": 79}, {"time": 524, "pitch": 66, "duration": 1, "velocity": 84}, {"time": 527, "pitch": 68, "duration": 8, "velocity": 78}, {"time": 536, "pitch": 66, "duration": 5, "velocity": 83}, {"time": 542, "pitch": 68, "duration": 4, "velocity": 77}, {"time": 548, "pitch": 66, "duration": 6, "velocity": 82}, {"time": 554, "pitch": 61, "duration": 33, "velocity": 82}, {"time": 602, "pitch": 66, "duration": 1, "velocity": 81}, {"time": 605, "pitch": 66, "duration": 1, "velocity": 78}, {"time": 608, "pitch": 66, "duration": 2, "velocity": 81}, {"time": 611, "pitch": 63, "duration": 2, "velocity": 83}, {"time": 614, "pitch": 68, "duration": 5, "velocity": 82}, {"time": 620, "pitch": 66, "duration": 20, "velocity": 83}, {"time": 650, "pitch": 66, "duration": 1, "velocity": 83}, {"time": 653, "pitch": 66, "duration": 1, "velocity": 82}, {"time": 656, "pitch": 66, "duration": 2, "velocity": 80}, {"time": 659, "pitch": 63, "duration": 2, "velocity": 81}, {"time": 662, "pitch": 68, "duration": 5, "velocity": 83}, {"time": 668, "pitch": 66, "duration": 20, "velocity": 84}, {"time": 698, "pitch": 66, "duration": 1, "velocity": 82}, {"time": 701, "pitch": 66, "duration": 1, "velocity": 83}, {"time": 704, "pitch": 66, "duration": 2, "velocity": 83}, {"time": 707, "pitch": 63, "duration": 2, "velocity": 82}, {"time": 710, "pitch": 68, "duration": 5, "velocity": 83}, {"time": 716, "pitch": 66, "duration": 1, "velocity": 83}, {"time": 719, "pitch": 68, "duration": 7, "velocity": 82}, {"time": 728, "pitch": 61, "duration": 5, "velocity": 83}, {"time": 734, "pitch": 68, "duration": 5, "velocity": 83}, {"time": 740, "pitch": 66, "duration": 4, "velocity": 83}, {"time": 746, "pitch": 66, "duration": 15, "velocity": 83}, {"time": 770, "pitch": 70, "duration": 4, "velocity": 84}, {"time": 776, "pitch": 71, "duration": 4, "velocity": 87}, {"time": 782, "pitch": 73, "duration": 15, "velocity": 83}, {"time": 800, "pitch": 63, "duration": 5, "velocity": 82}, {"time": 806, "pitch": 62, "duration": 12, "velocity": 85}, {"time": 818, "pitch": 71, "duration": 11, "velocity": 87}, {"time": 830, "pitch": 70, "duration": 12, "velocity": 83}, {"time": 848, "pitch": 71, "duration": 4, "velocity": 85}, {"time": 854, "pitch": 70, "duration": 18, "velocity": 83}, {"time": 878, "pitch": 68, "duration": 4, "velocity": 82}, {"time": 884, "pitch": 66, "duration": 4, "velocity": 83}, {"time": 890, "pitch": 66, "duration": 5, "velocity": 83}, {"time": 896, "pitch": 63, "duration": 4, "velocity": 80}, {"time": 902, "pitch": 63, "duration": 4, "velocity": 84}, {"time": 908, "pitch": 65, "duration": 4, "velocity": 86}, {"time": 914, "pitch": 66, "duration": 4, "velocity": 83}, {"time": 920, "pitch": 68, "duration": 6, "velocity": 76}, {"time": 926, "pitch": 70, "duration": 18, "velocity": 80}, {"time": 944, "pitch": 73, "duration": 6, "velocity": 86}, {"time": 950, "pitch": 68, "duration": 11, "velocity": 80}, {"time": 962, "pitch": 70, "duration": 11, "velocity": 83}, {"time": 974, "pitch": 66, "duration": 12, "velocity": 83}, {"time": 986, "pitch": 61, "duration": 2, "velocity": 86}, {"time": 989, "pitch": 73, "duration": 1, "velocity": 84}, {"time": 992, "pitch": 73, "duration": 1, "velocity": 84}, {"time": 995, "pitch": 73, "duration": 1, "velocity": 81}, {"time": 998, "pitch": 73, "duration": 4, "velocity": 84}, {"time": 1004, "pitch": 73, "duration": 1, "velocity": 84}, {"time": 1007, "pitch": 73, "duration": 1, "velocity": 84}, {"time": 1010, "pitch": 73, "duration": 4, "velocity": 83}, {"time": 1016, "pitch": 71, "duration": 5, "velocity": 83}, {"time": 1022, "pitch": 65, "duration": 7, "velocity": 83}, {"time": 1034, "pitch": 61, "duration": 2, "velocity": 89}, {"time": 1037, "pitch": 73, "duration": 1, "velocity": 80}, {"time": 1040, "pitch": 73, "duration": 1, "velocity": 81}, {"time": 1043, "pitch": 73, "duration": 1, "velocity": 83}, {"time": 1046, "pitch": 73, "duration": 4, "velocity": 84}, {"time": 1052, "pitch": 73, "duration": 1, "velocity": 82}, {"time": 1055, "pitch": 73, "duration": 1, "velocity": 82}, {"time": 1058, "pitch": 73, "duration": 3, "velocity": 86}, {"time": 1064, "pitch": 71, "duration": 2, "velocity": 85}, {"time": 1067, "pitch": 70, "duration": 2, "velocity": 83}, {"time": 1070, "pitch": 66, "duration": 9, "velocity": 84}, {"time": 1082, "pitch": 63, "duration": 3, "velocity": 84}, {"time": 1085, "pitch": 73, "duration": 1, "velocity": 71}, {"time": 1088, "pitch": 73, "duration": 1, "velocity": 86}, {"time": 1091, "pitch": 73, "duration": 2, "velocity": 83}, {"time": 1094, "pitch": 75, "duration": 4, "velocity": 87}, {"time": 1100, "pitch": 75, "duration": 2, "velocity": 84}, {"time": 1103, "pitch": 78, "duration": 1, "velocity": 67}, {"time": 1106, "pitch": 75, "duration": 5, "velocity": 98}, {"time": 1112, "pitch": 73, "duration": 5, "velocity": 84}, {"time": 1118, "pitch": 71, "duration": 9, "velocity": 84}, {"time": 1130, "pitch": 63, "duration": 1, "velocity": 84}, {"time": 1133, "pitch": 63, "duration": 1, "velocity": 86}, {"time": 1136, "pitch": 66, "duration": 1, "velocity": 83}, {"time": 1139, "pitch": 68, "duration": 1, "velocity": 82}, {"time": 1142, "pitch": 70, "duration": 4, "velocity": 82}, {"time": 1148, "pitch": 61, "duration": 5, "velocity": 83}, {"time": 1154, "pitch": 63, "duration": 4, "velocity": 82}, {"time": 1160, "pitch": 66, "duration": 4, "velocity": 84}, {"time": 1166, "pitch": 71, "duration": 4, "velocity": 83}, {"time": 1172, "pitch": 71, "duration": 4, "velocity": 80}, {"time": 1178, "pitch": 71, "duration": 4, "velocity": 86}, {"time": 1184, "pitch": 73, "duration": 4, "velocity": 83}, {"time": 1190, "pitch": 68, "duration": 9, "velocity": 81}, {"time": 1202, "pitch": 70, "duration": 10, "velocity": 84}, {"time": 1214, "pitch": 66, "duration": 12, "velocity": 83}, {"time": 1226, "pitch": 61, "duration": 2, "velocity": 86}, {"time": 1229, "pitch": 73, "duration": 1, "velocity": 84}, {"time": 1232, "pitch": 73, "duration": 1, "velocity": 84}, {"time": 1235, "pitch": 73, "duration": 1, "velocity": 81}, {"time": 1238, "pitch": 73, "duration": 4, "velocity": 84}, {"time": 1244, "pitch": 73, "duration": 1, "velocity": 84}, {"time": 1247, "pitch": 73, "duration": 1, "velocity": 84}, {"time": 1250, "pitch": 73, "duration": 4, "velocity": 83}, {"time": 1256, "pitch": 71, "duration": 5, "velocity": 83}, {"time": 1262, "pitch": 65, "duration": 7, "velocity": 83}, {"time": 1274, "pitch": 61, "duration": 2, "velocity": 89}, {"time": 1277, "pitch": 73, "duration": 1, "velocity": 80}, {"time": 1280, "pitch": 73, "duration": 1, "velocity": 81}, {"time": 1283, "pitch": 73, "duration": 1, "velocity": 83}, {"time": 1286, "pitch": 73, "duration": 4, "velocity": 84}, {"time": 1292, "pitch": 73, "duration": 1, "velocity": 82}, {"time": 1295, "pitch": 73, "duration": 1, "velocity": 82}, {"time": 1298, "pitch": 73, "duration": 3, "velocity": 86}, {"time": 1304, "pitch": 71, "duration": 2, "velocity": 85}, {"time": 1307, "pitch": 70, "duration": 2, "velocity": 83}, {"time": 1310, "pitch": 66, "duration": 9, "velocity": 84}, {"time": 1322, "pitch": 63, "duration": 3, "velocity": 84}, {"time": 1325, "pitch": 73, "duration": 1, "velocity": 71}, {"time": 1328, "pitch": 73, "duration": 1, "velocity": 86}, {"time": 1331, "pitch": 73, "duration": 2, "velocity": 83}, {"time": 1334, "pitch": 75, "duration": 4, "velocity": 87}, {"time": 1340, "pitch": 75, "duration": 2, "velocity": 84}, {"time": 1343, "pitch": 78, "duration": 1, "velocity": 67}, {"time": 1346, "pitch": 75, "duration": 5, "velocity": 98}, {"time": 1352, "pitch": 73, "duration": 5, "velocity": 84}, {"time": 1358, "pitch": 71, "duration": 9, "velocity": 84}, {"time": 1370, "pitch": 63, "duration": 1, "velocity": 84}, {"time": 1373, "pitch": 63, "duration": 1, "velocity": 86}, {"time": 1376, "pitch": 66, "duration": 1, "velocity": 83}, {"time": 1379, "pitch": 68, "duration": 1, "velocity": 82}, {"time": 1382, "pitch": 70, "duration": 4, "velocity": 82}, {"time": 1388, "pitch": 61, "duration": 5, "velocity": 83}, {"time": 1394, "pitch": 63, "duration": 4, "velocity": 82}, {"time": 1400, "pitch": 66, "duration": 4, "velocity": 84}, {"time": 1406, "pitch": 71, "duration": 4, "velocity": 83}, {"time": 1412, "pitch": 71, "duration": 4, "velocity": 80}, {"time": 1418, "pitch": 71, "duration": 4, "velocity": 86}, {"time": 1424, "pitch": 70, "duration": 4, "velocity": 83}, {"time": 1430, "pitch": 68, "duration": 9, "velocity": 81}, {"time": 1442, "pitch": 70, "duration": 12, "velocity": 84}, {"time": 1454, "pitch": 66, "duration": 24, "velocity": 83}, {"time": 1658, "pitch": 66, "duration": 1, "velocity": 81}, {"time": 1661, "pitch": 66, "duration": 1, "velocity": 78}, {"time": 1664, "pitch": 66, "duration": 2, "velocity": 81}, {"time": 1667, "pitch": 63, "duration": 2, "velocity": 83}, {"time": 1670, "pitch": 68, "duration": 5, "velocity": 82}, {"time": 1676, "pitch": 66, "duration": 20, "velocity": 83}, {"time": 1706, "pitch": 66, "duration": 1, "velocity": 83}, {"time": 1709, "pitch": 66, "duration": 1, "velocity": 82}, {"time": 1712, "pitch": 66, "duration": 2, "velocity": 80}, {"time": 1715, "pitch": 63, "duration": 2, "velocity": 81}, {"time": 1718, "pitch": 68, "duration": 5, "velocity": 83}, {"time": 1724, "pitch": 66, "duration": 20, "velocity": 84}, {"time": 1754, "pitch": 66, "duration": 1, "velocity": 82}, {"time": 1757, "pitch": 66, "duration": 1, "velocity": 83}, {"time": 1760, "pitch": 66, "duration": 2, "velocity": 83}, {"time": 1763, "pitch": 63, "duration": 2, "velocity": 82}, {"time": 1766, "pitch": 68, "duration": 5, "velocity": 83}, {"time": 1772, "pitch": 66, "duration": 1, "velocity": 83}, {"time": 1775, "pitch": 68, "duration": 7, "velocity": 82}, {"time": 1784, "pitch": 61, "duration": 5, "velocity": 83}, {"time": 1790, "pitch": 68, "duration": 5, "velocity": 83}, {"time": 1796, "pitch": 66, "duration": 4, "velocity": 83}, {"time": 1802, "pitch": 66, "duration": 15, "velocity": 83}, {"time": 1826, "pitch": 70, "duration": 4, "velocity": 84}, {"time": 1832, "pitch": 71, "duration": 4, "velocity": 87}, {"time": 1838, "pitch": 73, "duration": 15, "velocity": 83}, {"time": 1856, "pitch": 63, "duration": 5, "velocity": 82}, {"time": 1862, "pitch": 62, "duration": 12, "velocity": 85}, {"time": 1874, "pitch": 71, "duration": 11, "velocity": 87}, {"time": 1886, "pitch": 70, "duration": 12, "velocity": 83}, {"time": 1904, "pitch": 71, "duration": 4, "velocity": 85}, {"time": 1910, "pitch": 70, "duration": 18, "velocity": 83}, {"time": 1934, "pitch": 68, "duration": 4, "velocity": 82}, {"time": 1940, "pitch": 66, "duration": 4, "velocity": 83}, {"time": 1946, "pitch": 66, "duration": 5, "velocity": 83}, {"time": 1952, "pitch": 63, "duration": 4, "velocity": 80}, {"time": 1958, "pitch": 63, "duration": 4, "velocity": 84}, {"time": 1964, "pitch": 65, "duration": 4, "velocity": 86}, {"time": 1970, "pitch": 66, "duration": 4, "velocity": 83}, {"time": 1976, "pitch": 68, "duration": 6, "velocity": 76}, {"time": 1982, "pitch": 70, "duration": 18, "velocity": 80}, {"time": 2000, "pitch": 73, "duration": 6, "velocity": 86}, {"time": 2006, "pitch": 68, "duration": 11, "velocity": 80}, {"time": 2018, "pitch": 70, "duration": 11, "velocity": 83}, {"time": 2030, "pitch": 66, "duration": 12, "velocity": 83}, {"time": 2042, "pitch": 61, "duration": 2, "velocity": 86}, {"time": 2045, "pitch": 73, "duration": 1, "velocity": 84}, {"time": 2048, "pitch": 73, "duration": 1, "velocity": 84}, {"time": 2051, "pitch": 73, "duration": 1, "velocity": 81}, {"time": 2054, "pitch": 73, "duration": 4, "velocity": 84}, {"time": 2060, "pitch": 73, "duration": 1, "velocity": 84}, {"time": 2063, "pitch": 73, "duration": 1, "velocity": 84}, {"time": 2066, "pitch": 73, "duration": 4, "velocity": 83}, {"time": 2072, "pitch": 71, "duration": 5, "velocity": 83}, {"time": 2078, "pitch": 65, "duration": 7, "velocity": 83}, {"time": 2090, "pitch": 61, "duration": 2, "velocity": 89}, {"time": 2093, "pitch": 73, "duration": 1, "velocity": 80}, {"time": 2096, "pitch": 73, "duration": 1, "velocity": 81}, {"time": 2099, "pitch": 73, "duration": 1, "velocity": 83}, {"time": 2102, "pitch": 73, "duration": 4, "velocity": 84}, {"time": 2108, "pitch": 73, "duration": 1, "velocity": 82}, {"time": 2111, "pitch": 73, "duration": 1, "velocity": 82}, {"time": 2114, "pitch": 73, "duration": 3, "velocity": 86}, {"time": 2120, "pitch": 71, "duration": 2, "velocity": 85}, {"time": 2123, "pitch": 70, "duration": 2, "velocity": 83}, {"time": 2126, "pitch": 66, "duration": 9, "velocity": 84}, {"time": 2138, "pitch": 63, "duration": 3, "velocity": 84}, {"time": 2141, "pitch": 73, "duration": 1, "velocity": 71}, {"time": 2144, "pitch": 73, "duration": 1, "velocity": 86}, {"time": 2147, "pitch": 73, "duration": 2, "velocity": 83}, {"time": 2150, "pitch": 75, "duration": 4, "velocity": 87}, {"time": 2156, "pitch": 75, "duration": 2, "velocity": 84}, {"time": 2159, "pitch": 78, "duration": 1, "velocity": 67}, {"time": 2162, "pitch": 75, "duration": 5, "velocity": 98}, {"time": 2168, "pitch": 73, "duration": 5, "velocity": 84}, {"time": 2174, "pitch": 71, "duration": 9, "velocity": 84}, {"time": 2186, "pitch": 63, "duration": 1, "velocity": 84}, {"time": 2189, "pitch": 63, "duration": 1, "velocity": 86}, {"time": 2192, "pitch": 66, "duration": 1, "velocity": 83}, {"time": 2195, "pitch": 68, "duration": 1, "velocity": 82}, {"time": 2198, "pitch": 70, "duration": 4, "velocity": 82}, {"time": 2204, "pitch": 61, "duration": 5, "velocity": 83}, {"time": 2210, "pitch": 63, "duration": 4, "velocity": 82}, {"time": 2216, "pitch": 66, "duration": 4, "velocity": 84}, {"time": 2222, "pitch": 71, "duration": 4, "velocity": 83}, {"time": 2228, "pitch": 71, "duration": 4, "velocity": 80}, {"time": 2234, "pitch": 71, "duration": 4, "velocity": 86}, {"time": 2240, "pitch": 73, "duration": 4, "velocity": 83}, {"time": 2246, "pitch": 68, "duration": 9, "velocity": 81}, {"time": 2258, "pitch": 70, "duration": 10, "velocity": 84}, {"time": 2270, "pitch": 66, "duration": 12, "velocity": 83}, {"time": 2282, "pitch": 61, "duration": 2, "velocity": 86}, {"time": 2285, "pitch": 73, "duration": 1, "velocity": 84}, {"time": 2288, "pitch": 73, "duration": 1, "velocity": 84}, {"time": 2291, "pitch": 73, "duration": 1, "velocity": 81}, {"time": 2294, "pitch": 73, "duration": 4, "velocity": 84}, {"time": 2300, "pitch": 73, "duration": 1, "velocity": 84}, {"time": 2303, "pitch": 73, "duration": 1, "velocity": 84}, {"time": 2306, "pitch": 73, "duration": 4, "velocity": 83}, {"time": 2312, "pitch": 71, "duration": 5, "velocity": 83}, {"time": 2318, "pitch": 65, "duration": 7, "velocity": 83}, {"time": 2330, "pitch": 61, "duration": 2, "velocity": 89}, {"time": 2333, "pitch": 73, "duration": 1, "velocity": 80}, {"time": 2336, "pitch": 73, "duration": 1, "velocity": 81}, {"time": 2339, "pitch": 73, "duration": 1, "velocity": 83}, {"time": 2342, "pitch": 73, "duration": 4, "velocity": 84}, {"time": 2348, "pitch": 73, "duration": 1, "velocity": 82}, {"time": 2351, "pitch": 73, "duration": 1, "velocity": 82}, {"time": 2354, "pitch": 73, "duration": 3, "velocity": 86}, {"time": 2360, "pitch": 71, "duration": 2, "velocity": 85}, {"time": 2363, "pitch": 70, "duration": 2, "velocity": 83}, {"time": 2366, "pitch": 66, "duration": 9, "velocity": 84}, {"time": 2378, "pitch": 63, "duration": 3, "velocity": 84}, {"time": 2381, "pitch": 73, "duration": 1, "velocity": 71}, {"time": 2384, "pitch": 73, "duration": 1, "velocity": 86}, {"time": 2387, "pitch": 73, "duration": 2, "velocity": 83}, {"time": 2390, "pitch": 75, "duration": 4, "velocity": 87}, {"time": 2396, "pitch": 75, "duration": 2, "velocity": 84}, {"time": 2399, "pitch": 78, "duration": 1, "velocity": 67}, {"time": 2402, "pitch": 75, "duration": 5, "velocity": 98}, {"time": 2408, "pitch": 73, "duration": 5, "velocity": 84}, {"time": 2414, "pitch": 71, "duration": 9, "velocity": 84}, {"time": 2426, "pitch": 63, "duration": 1, "velocity": 84}, {"time": 2429, "pitch": 63, "duration": 1, "velocity": 86}, {"time": 2432, "pitch": 66, "duration": 1, "velocity": 83}, {"time": 2435, "pitch": 68, "duration": 1, "velocity": 82}, {"time": 2438, "pitch": 70, "duration": 4, "velocity": 82}, {"time": 2444, "pitch": 61, "duration": 5, "velocity": 83}, {"time": 2450, "pitch": 63, "duration": 4, "velocity": 82}, {"time": 2456, "pitch": 66, "duration": 4, "velocity": 84}, {"time": 2462, "pitch": 71, "duration": 4, "velocity": 83}, {"time": 2468, "pitch": 71, "duration": 4, "velocity": 80}, {"time": 2474, "pitch": 71, "duration": 4, "velocity": 86}, {"time": 2480, "pitch": 70, "duration": 4, "velocity": 83}, {"time": 2486, "pitch": 68, "duration": 9, "velocity": 81}, {"time": 2498, "pitch": 70, "duration": 12, "velocity": 84}, {"time": 2510, "pitch": 66, "duration": 12, "velocity": 83}, {"time": 2522, "pitch": 61, "duration": 2, "velocity": 86}, {"time": 2525, "pitch": 73, "duration": 1, "velocity": 84}, {"time": 2528, "pitch": 73, "duration": 1, "velocity": 84}, {"time": 2531, "pitch": 73, "duration": 1, "velocity": 81}, {"time": 2534, "pitch": 73, "duration": 4, "velocity": 84}, {"time": 2540, "pitch": 73, "duration": 1, "velocity": 84}, {"time": 2543, "pitch": 73, "duration": 1, "velocity": 84}, {"time": 2546, "pitch": 73, "duration": 4, "velocity": 83}, {"time": 2552, "pitch": 71, "duration": 5, "velocity": 83}, {"time": 2558, "pitch": 65, "duration": 7, "velocity": 83}, {"time": 2570, "pitch": 61, "duration": 2, "velocity": 89}, {"time": 2573, "pitch": 73, "duration": 1, "velocity": 80}, {"time": 2576, "pitch": 73, "duration": 1, "velocity": 81}, {"time": 2579, "pitch": 73, "duration": 1, "velocity": 83}, {"time": 2582, "pitch": 73, "duration": 4, "velocity": 84}, {"time": 2588, "pitch": 73, "duration": 1, "velocity": 82}, {"time": 2591, "pitch": 73, "duration": 1, "velocity": 82}, {"time": 2594, "pitch": 73, "duration": 3, "velocity": 86}, {"time": 2600, "pitch": 71, "duration": 2, "velocity": 85}, {"time": 2603, "pitch": 70, "duration": 2, "velocity": 83}, {"time": 2606, "pitch": 66, "duration": 9, "velocity": 84}, {"time": 2618, "pitch": 63, "duration": 3, "velocity": 84}, {"time": 2621, "pitch": 73, "duration": 1, "velocity": 71}, {"time": 2624, "pitch": 73, "duration": 1, "velocity": 86}, {"time": 2627, "pitch": 73, "duration": 2, "velocity": 83}, {"time": 2630, "pitch": 75, "duration": 4, "velocity": 87}, {"time": 2636, "pitch": 75, "duration": 2, "velocity": 84}, {"time": 2639, "pitch": 78, "duration": 1, "velocity": 67}, {"time": 2642, "pitch": 75, "duration": 5, "velocity": 98}, {"time": 2648, "pitch": 73, "duration": 5, "velocity": 84}, {"time": 2654, "pitch": 71, "duration": 9, "velocity": 84}, {"time": 2666, "pitch": 63, "duration": 1, "velocity": 84}, {"time": 2669, "pitch": 63, "duration": 1, "velocity": 86}, {"time": 2672, "pitch": 66, "duration": 1, "velocity": 83}, {"time": 2675, "pitch": 68, "duration": 1, "velocity": 82}, {"time": 2678, "pitch": 70, "duration": 4, "velocity": 82}, {"time": 2684, "pitch": 61, "duration": 5, "velocity": 83}, {"time": 2690, "pitch": 63, "duration": 4, "velocity": 82}, {"time": 2696, "pitch": 66, "duration": 4, "velocity": 84}, {"time": 2702, "pitch": 71, "duration": 4, "velocity": 83}, {"time": 2708, "pitch": 71, "duration": 4, "velocity": 80}, {"time": 2714, "pitch": 71, "duration": 4, "velocity": 86}, {"time": 2720, "pitch": 73, "duration": 4, "velocity": 83}, {"time": 2726, "pitch": 68, "duration": 9, "velocity": 81}, {"time": 2738, "pitch": 70, "duration": 10, "velocity": 84}, {"time": 2750, "pitch": 66, "duration": 12, "velocity": 83}, {"time": 2762, "pitch": 61, "duration": 2, "velocity": 86}, {"time": 2765, "pitch": 73, "duration": 1, "velocity": 84}, {"time": 2768, "pitch": 73, "duration": 1, "velocity": 84}, {"time": 2771, "pitch": 73, "duration": 1, "velocity": 81}, {"time": 2774, "pitch": 73, "duration": 4, "velocity": 84}, {"time": 2780, "pitch": 73, "duration": 1, "velocity": 84}, {"time": 2783, "pitch": 73, "duration": 1, "velocity": 84}, {"time": 2786, "pitch": 73, "duration": 4, "velocity": 83}, {"time": 2792, "pitch": 71, "duration": 5, "velocity": 83}, {"time": 2798, "pitch": 65, "duration": 7, "velocity": 83}, {"time": 2810, "pitch": 61, "duration": 2, "velocity": 89}, {"time": 2813, "pitch": 73, "duration": 1, "velocity": 80}, {"time": 2816, "pitch": 73, "duration": 1, "velocity": 81}, {"time": 2819, "pitch": 73, "duration": 1, "velocity": 83}, {"time": 2822, "pitch": 73, "duration": 4, "velocity": 84}, {"time": 2828, "pitch": 73, "duration": 1, "velocity": 82}, {"time": 2831, "pitch": 73, "duration": 1, "velocity": 82}, {"time": 2834, "pitch": 73, "duration": 3, "velocity": 86}, {"time": 2840, "pitch": 71, "duration": 2, "velocity": 85}, {"time": 2843, "pitch": 70, "duration": 2, "velocity": 83}, {"time": 2846, "pitch": 66, "duration": 9, "velocity": 84}, {"time": 2858, "pitch": 63, "duration": 3, "velocity": 84}, {"time": 2861, "pitch": 73, "duration": 1, "velocity": 71}, {"time": 2864, "pitch": 73, "duration": 1, "velocity": 86}, {"time": 2867, "pitch": 73, "duration": 2, "velocity": 83}, {"time": 2870, "pitch": 75, "duration": 4, "velocity": 87}, {"time": 2876, "pitch": 75, "duration": 2, "velocity": 84}, {"time": 2879, "pitch": 78, "duration": 1, "velocity": 67}, {"time": 2882, "pitch": 75, "duration": 5, "velocity": 98}, {"time": 2888, "pitch": 73, "duration": 5, "velocity": 84}, {"time": 2894, "pitch": 71, "duration": 9, "velocity": 84}, {"time": 2906, "pitch": 63, "duration": 1, "velocity": 84}, {"time": 2909, "pitch": 63, "duration": 1, "velocity": 86}, {"time": 2912, "pitch": 66, "duration": 1, "velocity": 83}, {"time": 2915, "pitch": 68, "duration": 1, "velocity": 82}, {"time": 2918, "pitch": 70, "duration": 4, "velocity": 82}, {"time": 2924, "pitch": 61, "duration": 5, "velocity": 83}, {"time": 2930, "pitch": 63, "duration": 4, "velocity": 82}, {"time": 2936, "pitch": 66, "duration": 4, "velocity": 84}, {"time": 2942, "pitch": 71, "duration": 4, "velocity": 83}, {"time": 2948, "pitch": 71, "duration": 4, "velocity": 80}, {"time": 2954, "pitch": 71, "duration": 4, "velocity": 86}, {"time": 2960, "pitch": 70, "duration": 4, "velocity": 83}, {"time": 2966, "pitch": 68, "duration": 9, "velocity": 81}, {"time": 2978, "pitch": 70, "duration": 12, "velocity": 84}, {"time": 2990, "pitch": 66, "duration": 24, "velocity": 83}]}, {"program": 0, "is_drum": false, "name": "PIANO", "notes": [{"time": 14, "pitch": 47, "duration": 40, "velocity": 83}, {"time": 20, "pitch": 54, "duration": 34, "velocity": 60}, {"time": 26, "pitch": 59, "duration": 11, "velocity": 80}, {"time": 32, "pitch": 66, "duration": 4, "velocity": 80}, {"time": 50, "pitch": 59, "duration": 3, "velocity": 68}, {"time": 50, "pitch": 63, "duration": 5, "velocity": 76}, {"time": 62, "pitch": 46, "duration": 40, "velocity": 83}, {"time": 62, "pitch": 61, "duration": 13, "velocity": 81}, {"time": 68, "pitch": 53, "duration": 34, "velocity": 69}, {"time": 74, "pitch": 56, "duration": 8, "velocity": 81}, {"time": 80, "pitch": 65, "duration": 3, "velocity": 83}, {"time": 92, "pitch": 56, "duration": 3, "velocity": 62}, {"time": 98, "pitch": 56, "duration": 3, "velocity": 77}, {"time": 98, "pitch": 61, "duration": 3, "velocity": 78}, {"time": 110, "pitch": 44, "duration": 37, "velocity": 82}, {"time": 110, "pitch": 63, "duration": 11, "velocity": 78}, {"time": 116, "pitch": 51, "duration": 30, "velocity": 62}, {"time": 122, "pitch": 59, "duration": 6, "velocity": 79}, {"time": 128, "pitch": 56, "duration": 7, "velocity": 82}, {"time": 146, "pitch": 56, "duration": 4, "velocity": 78}, {"time": 146, "pitch": 63, "duration": 5, "velocity": 80}, {"time": 158, "pitch": 42, "duration": 41, "velocity": 78}, {"time": 158, "pitch": 58, "duration": 12, "velocity": 74}, {"time": 158, "pitch": 66, "duration": 12, "velocity": 74}, {"time": 164, "pitch": 49, "duration": 22, "velocity": 66}, {"time": 170, "pitch": 61, "duration": 6, "velocity": 85}, {"time": 176, "pitch": 58, "duration": 3, "velocity": 71}, {"time": 182, "pitch": 58, "duration": 2, "velocity": 73}, {"time": 182, "pitch": 66, "duration": 8, "velocity": 74}, {"time": 188, "pitch": 49, "duration": 11, "velocity": 58}, {"time": 194, "pitch": 58, "duration": 7, "velocity": 71}, {"time": 206, "pitch": 47, "duration": 14, "velocity": 77}, {"time": 206, "pitch": 59, "duration": 7, "velocity": 71}, {"time": 206, "pitch": 63, "duration": 8, "velocity": 76}, {"time": 212, "pitch": 54, "duration": 8, "velocity": 46}, {"time": 218, "pitch": 59, "duration": 4, "velocity": 84}, {"time": 218, "pitch": 63, "duration": 9, "velocity": 83}, {"time": 224, "pitch": 54, "duration": 9, "velocity": 68}, {"time": 230, "pitch": 59, "duration": 2, "velocity": 69}, {"time": 230, "pitch": 63, "duration": 5, "velocity": 79}, {"time": 230, "pitch": 66, "duration": 5, "velocity": 79}, {"time": 236, "pitch": 47, "duration": 8, "velocity": 65}, {"time": 242, "pitch": 59, "duration": 2, "velocity": 78}, {"time": 242, "pitch": 63, "duration": 3, "velocity": 82}, {"time": 242, "pitch": 66, "duration": 4, "velocity": 81}, {"time": 248, "pitch": 54, "duration": 2, "velocity": 72}, {"time": 254, "pitch": 46, "duration": 14, "velocity": 83}, {"time": 254, "pitch": 58, "duration": 4, "velocity": 70}, {"time": 254, "pitch": 61, "duration": 5, "velocity": 75}, {"time": 260, "pitch": 53, "duration": 8, "velocity": 75}, {"time": 266, "pitch": 58, "duration": 9, "velocity": 77}, {"time": 266, "pitch": 61, "duration": 9, "velocity": 82}, {"time": 266, "pitch": 65, "duration": 9, "velocity": 84}, {"time": 272, "pitch": 46, "duration": 3, "velocity": 71}, {"time": 278, "pitch": 46, "duration": 10, "velocity": 69}, {"time": 278, "pitch": 53, "duration": 9, "velocity": 81}, {"time": 278, "pitch": 58, "duration": 2, "velocity": 72}, {"time": 278, "pitch": 61, "duration": 6, "velocity": 76}, {"time": 278, "pitch": 65, "duration": 5, "velocity": 81}, {"time": 284, "pitch": 58, "duration": 3, "velocity": 72}, {"time": 290, "pitch": 51, "duration": 5, "velocity": 87}, {"time": 290, "pitch": 58, "duration": 2, "velocity": 78}, {"time": 290, "pitch": 63, "duration": 5, "velocity": 82}, {"time": 296, "pitch": 58, "duration": 1, "velocity": 83}, {"time": 302, "pitch": 44, "duration": 14, "velocity": 82}, {"time": 302, "pitch": 56, "duration": 4, "velocity": 78}, {"time": 302, "pitch": 59, "duration": 4, "velocity": 76}, {"time": 302, "pitch": 63, "duration": 4, "velocity": 78}, {"time": 308, "pitch": 51, "duration": 7, "velocity": 53}, {"time": 314, "pitch": 56, "duration": 2, "velocity": 81}, {"time": 314, "pitch": 59, "duration": 3, "velocity": 84}, {"time": 314, "pitch": 63, "duration": 4, "velocity": 84}, {"time": 320, "pitch": 56, "duration": 3, "velocity": 84}, {"time": 326, "pitch": 49, "duration": 15, "velocity": 78}, {"time": 326, "pitch": 56, "duration": 3, "velocity": 82}, {"time": 326, "pitch": 61, "duration": 6, "velocity": 84}, {"time": 332, "pitch": 56, "duration": 3, "velocity": 77}, {"time": 338, "pitch": 56, "duration": 2, "velocity": 83}, {"time": 338, "pitch": 61, "duration": 5, "velocity": 83}, {"time": 338, "pitch": 65, "duration": 5, "velocity": 84}, {"time": 344, "pitch": 56, "duration": 1, "velocity": 81}, {"time": 350, "pitch": 42, "duration": 21, "velocity": 82}, {"time": 350, "pitch": 54, "duration": 11, "velocity": 74}, {"time": 350, "pitch": 58, "duration": 5, "velocity": 71}, {"time": 356, "pitch": 49, "duration": 13, "velocity": 70}, {"time": 362, "pitch": 58, "duration": 1, "velocity": 77}, {"time": 362, "pitch": 61, "duration": 1, "velocity": 81}, {"time": 368, "pitch": 54, "duration": 12, "velocity": 81}, {"time": 374, "pitch": 42, "duration": 18, "velocity": 79}, {"time": 374, "pitch": 58, "duration": 6, "velocity": 66}, {"time": 374, "pitch": 66, "duration": 6, "velocity": 81}, {"time": 380, "pitch": 49, "duration": 12, "velocity": 63}, {"time": 386, "pitch": 58, "duration": 6, "velocity": 72}, {"time": 386, "pitch": 61, "duration": 7, "velocity": 74}, {"time": 398, "pitch": 47, "duration": 40, "velocity": 82}, {"time": 398, "pitch": 59, "duration": 7, "velocity": 66}, {"time": 398, "pitch": 63, "duration": 6, "velocity": 82}, {"time": 398, "pitch": 66, "duration": 5, "velocity": 66}, {"time": 404, "pitch": 54, "duration": 34, "velocity": 63}, {"time": 410, "pitch": 59, "duration": 1, "velocity": 56}, {"time": 410, "pitch": 63, "duration": 5, "velocity": 81}, {"time": 410, "pitch": 70, "duration": 5, "velocity": 78}, {"time": 416, "pitch": 59, "duration": 6, "velocity": 51}, {"time": 422, "pitch": 63, "duration": 2, "velocity": 77}, {"time": 422, "pitch": 70, "duration": 3, "velocity": 74}, {"time": 428, "pitch": 59, "duration": 2, "velocity": 57}, {"time": 434, "pitch": 59, "duration": 2, "velocity": 76}, {"time": 434, "pitch": 63, "duration": 3, "velocity": 81}, {"time": 434, "pitch": 70, "duration": 7, "velocity": 80}, {"time": 440, "pitch": 59, "duration": 1, "velocity": 80}, {"time": 446, "pitch": 46, "duration": 42, "velocity": 80}, {"time": 446, "pitch": 58, "duration": 4, "velocity": 52}, {"time": 446, "pitch": 61, "duration": 7, "velocity": 50}, {"time": 446, "pitch": 65, "duration": 8, "velocity": 64}, {"time": 452, "pitch": 58, "duration": 6, "velocity": 69}, {"time": 458, "pitch": 61, "duration": 1, "velocity": 77}, {"time": 458, "pitch": 65, "duration": 1, "velocity": 80}, {"time": 458, "pitch": 68, "duration": 2, "velocity": 67}, {"time": 470, "pitch": 61, "duration": 5, "velocity": 76}, {"time": 470, "pitch": 65, "duration": 5, "velocity": 75}, {"time": 476, "pitch": 58, "duration": 4, "velocity": 46}, {"time": 482, "pitch": 61, "duration": 2, "velocity": 75}, {"time": 482, "pitch": 68, "duration": 2, "velocity": 75}, {"time": 482, "pitch": 70, "duration": 2, "velocity": 79}, {"time": 488, "pitch": 65, "duration": 1, "velocity": 80}, {"time": 494, "pitch": 44, "duration": 39, "velocity": 80}, {"time": 494, "pitch": 56, "duration": 4, "velocity": 69}, {"time": 494, "pitch": 59, "duration": 5, "velocity": 66}, {"time": 494, "pitch": 63, "duration": 5, "velocity": 74}, {"time": 500, "pitch": 51, "duration": 32, "velocity": 58}, {"time": 506, "pitch": 59, "duration": 1, "velocity": 74}, {"time": 506, "pitch": 63, "duration": 1, "velocity": 76}, {"time": 512, "pitch": 56, "duration": 2, "velocity": 78}, {"time": 518, "pitch": 59, "duration": 1, "velocity": 74}, {"time": 518, "pitch": 63, "duration": 1, "velocity": 78}, {"time": 530, "pitch": 56, "duration": 2, "velocity": 78}, {"time": 530, "pitch": 59, "duration": 1, "velocity": 85}, {"time": 530, "pitch": 63, "duration": 2, "velocity": 82}, {"time": 536, "pitch": 44, "duration": 2, "velocity": 82}, {"time": 542, "pitch": 42, "duration": 20, "velocity": 82}, {"time": 542, "pitch": 54, "duration": 5, "velocity": 69}, {"time": 542, "pitch": 58, "duration": 6, "velocity": 68}, {"time": 548, "pitch": 61, "duration": 2, "velocity": 72}, {"time": 554, "pitch": 66, "duration": 2, "velocity": 84}, {"time": 560, "pitch": 54, "duration": 2, "velocity": 76}, {"time": 566, "pitch": 42, "duration": 13, "velocity": 63}, {"time": 566, "pitch": 58, "duration": 2, "velocity": 60}, {"time": 566, "pitch": 61, "duration": 6, "velocity": 66}, {"time": 572, "pitch": 54, "duration": 6, "velocity": 65}, {"time": 578, "pitch": 58, "duration": 1, "velocity": 81}, {"time": 578, "pitch": 61, "duration": 1, "velocity": 79}, {"time": 578, "pitch": 66, "duration": 1, "velocity": 79}, {"time": 584, "pitch": 46, "duration": 1, "velocity": 82}, {"time": 590, "pitch": 47, "duration": 39, "velocity": 83}, {"time": 590, "pitch": 59, "duration": 2, "velocity": 71}, {"time": 590, "pitch": 63, "duration": 3, "velocity": 77}, {"time": 596, "pitch": 54, "duration": 32, "velocity": 40}, {"time": 602, "pitch": 59, "duration": 2, "velocity": 67}, {"time": 602, "pitch": 63, "duration": 2, "velocity": 82}, {"time": 602, "pitch": 70, "duration": 2, "velocity": 80}, {"time": 614, "pitch": 59, "duration": 1, "velocity": 52}, {"time": 614, "pitch": 63, "duration": 3, "velocity": 76}, {"time": 614, "pitch": 70, "duration": 3, "velocity": 77}, {"time": 620, "pitch": 59, "duration": 2, "velocity": 56}, {"time": 626, "pitch": 59, "duration": 2, "velocity": 73}, {"time": 626, "pitch": 63, "duration": 1, "velocity": 78}, {"time": 626, "pitch": 70, "duration": 3, "velocity": 81}, {"time": 632, "pitch": 47, "duration": 4, "velocity": 72}, {"time": 638, "pitch": 46, "duration": 39, "velocity": 79}, {"time": 638, "pitch": 58, "duration": 5, "velocity": 67}, {"time": 638, "pitch": 61, "duration": 6, "velocity": 74}, {"time": 644, "pitch": 53, "duration": 33, "velocity": 76}, {"time": 650, "pitch": 61, "duration": 2, "velocity": 69}, {"time": 650, "pitch": 68, "duration": 1, "velocity": 76}, {"time": 656, "pitch": 58, "duration": 2, "velocity": 46}, {"time": 662, "pitch": 58, "duration": 1, "velocity": 55}, {"time": 662, "pitch": 61, "duration": 9, "velocity": 59}, {"time": 662, "pitch": 68, "duration": 6, "velocity": 69}, {"time": 668, "pitch": 58, "duration": 3, "velocity": 55}, {"time": 674, "pitch": 58, "duration": 3, "velocity": 80}, {"time": 674, "pitch": 61, "duration": 3, "velocity": 82}, {"time": 674, "pitch": 68, "duration": 3, "velocity": 76}, {"time": 680, "pitch": 46, "duration": 2, "velocity": 83}, {"time": 686, "pitch": 44, "duration": 34, "velocity": 78}, {"time": 686, "pitch": 59, "duration": 6, "velocity": 65}, {"time": 686, "pitch": 63, "duration": 6, "velocity": 72}, {"time": 692, "pitch": 51, "duration": 22, "velocity": 49}, {"time": 698, "pitch": 56, "duration": 2, "velocity": 69}, {"time": 698, "pitch": 59, "duration": 7, "velocity": 82}, {"time": 698, "pitch": 63, "duration": 8, "velocity": 82}, {"time": 704, "pitch": 56, "duration": 3, "velocity": 59}, {"time": 710, "pitch": 59, "duration": 7, "velocity": 57}, {"time": 710, "pitch": 63, "duration": 10, "velocity": 68}, {"time": 716, "pitch": 56, "duration": 3, "velocity": 61}, {"time": 722, "pitch": 49, "duration": 5, "velocity": 85}, {"time": 722, "pitch": 56, "duration": 2, "velocity": 79}, {"time": 722, "pitch": 61, "duration": 5, "velocity": 80}, {"time": 722, "pitch": 65, "duration": 6, "velocity": 84}, {"time": 728, "pitch": 56, "duration": 1, "velocity": 72}, {"time": 734, "pitch": 42, "duration": 46, "velocity": 82}, {"time": 734, "pitch": 54, "duration": 6, "velocity": 71}, {"time": 734, "pitch": 58, "duration": 7, "velocity": 74}, {"time": 740, "pitch": 61, "duration": 2, "velocity": 69}, {"time": 746, "pitch": 65, "duration": 1, "velocity": 75}, {"time": 752, "pitch": 54, "duration": 6, "velocity": 71}, {"time": 758, "pitch": 66, "duration": 3, "velocity": 82}, {"time": 764, "pitch": 54, "duration": 4, "velocity": 74}, {"time": 770, "pitch": 54, "duration": 2, "velocity": 69}, {"time": 770, "pitch": 58, "duration": 5, "velocity": 82}, {"time": 770, "pitch": 65, "duration": 5, "velocity": 83}, {"time": 776, "pitch": 61, "duration": 4, "velocity": 83}, {"time": 782, "pitch": 47, "duration": 21, "velocity": 79}, {"time": 782, "pitch": 59, "duration": 12, "velocity": 70}, {"time": 782, "pitch": 63, "duration": 7, "velocity": 82}, {"time": 788, "pitch": 54, "duration": 13, "velocity": 54}, {"time": 794, "pitch": 63, "duration": 5, "velocity": 79}, {"time": 794, "pitch": 66, "duration": 9, "velocity": 81}, {"time": 800, "pitch": 59, "duration": 4, "velocity": 82}, {"time": 806, "pitch": 47, "duration": 17, "velocity": 82}, {"time": 806, "pitch": 59, "duration": 3, "velocity": 77}, {"time": 806, "pitch": 62, "duration": 7, "velocity": 71}, {"time": 812, "pitch": 59, "duration": 7, "velocity": 77}, {"time": 818, "pitch": 62, "duration": 5, "velocity": 77}, {"time": 818, "pitch": 66, "duration": 6, "velocity": 82}, {"time": 824, "pitch": 59, "duration": 1, "velocity": 78}, {"time": 830, "pitch": 46, "duration": 17, "velocity": 82}, {"time": 830, "pitch": 58, "duration": 9, "velocity": 63}, {"time": 830, "pitch": 61, "duration": 8, "velocity": 63}, {"time": 836, "pitch": 53, "duration": 10, "velocity": 75}, {"time": 842, "pitch": 58, "duration": 2, "velocity": 76}, {"time": 842, "pitch": 61, "duration": 4, "velocity": 82}, {"time": 842, "pitch": 65, "duration": 4, "velocity": 83}, {"time": 848, "pitch": 58, "duration": 7, "velocity": 86}, {"time": 854, "pitch": 39, "duration": 18, "velocity": 83}, {"time": 854, "pitch": 66, "duration": 7, "velocity": 82}, {"time": 860, "pitch": 58, "duration": 9, "velocity": 84}, {"time": 866, "pitch": 46, "duration": 6, "velocity": 77}, {"time": 866, "pitch": 63, "duration": 6, "velocity": 79}, {"time": 872, "pitch": 61, "duration": 5, "velocity": 77}, {"time": 878, "pitch": 44, "duration": 19, "velocity": 82}, {"time": 878, "pitch": 56, "duration": 7, "velocity": 77}, {"time": 878, "pitch": 59, "duration": 7, "velocity": 79}, {"time": 884, "pitch": 51, "duration": 11, "velocity": 67}, {"time": 890, "pitch": 59, "duration": 8, "velocity": 78}, {"time": 890, "pitch": 63, "duration": 7, "velocity": 82}, {"time": 896, "pitch": 56, "duration": 19, "velocity": 76}, {"time": 902, "pitch": 44, "duration": 15, "velocity": 71}, {"time": 902, "pitch": 63, "duration": 8, "velocity": 75}, {"time": 908, "pitch": 51, "duration": 9, "velocity": 65}, {"time": 914, "pitch": 59, "duration": 3, "velocity": 81}, {"time": 914, "pitch": 63, "duration": 5, "velocity": 84}, {"time": 914, "pitch": 68, "duration": 5, "velocity": 79}, {"time": 920, "pitch": 44, "duration": 5, "velocity": 83}, {"time": 926, "pitch": 49, "duration": 21, "velocity": 83}, {"time": 926, "pitch": 56, "duration": 2, "velocity": 75}, {"time": 926, "pitch": 61, "duration": 8, "velocity": 74}, {"time": 932, "pitch": 56, "duration": 7, "velocity": 75}, {"time": 938, "pitch": 61, "duration": 5, "velocity": 78}, {"time": 938, "pitch": 65, "duration": 8, "velocity": 83}, {"time": 944, "pitch": 56, "duration": 4, "velocity": 81}, {"time": 950, "pitch": 49, "duration": 14, "velocity": 86}, {"time": 950, "pitch": 56, "duration": 2, "velocity": 82}, {"time": 950, "pitch": 61, "duration": 8, "velocity": 79}, {"time": 956, "pitch": 56, "duration": 3, "velocity": 76}, {"time": 962, "pitch": 56, "duration": 2, "velocity": 84}, {"time": 962, "pitch": 61, "duration": 2, "velocity": 86}, {"time": 962, "pitch": 65, "duration": 2, "velocity": 84}, {"time": 974, "pitch": 42, "duration": 21, "velocity": 83}, {"time": 974, "pitch": 54, "duration": 2, "velocity": 82}, {"time": 974, "pitch": 58, "duration": 4, "velocity": 82}, {"time": 977, "pitch": 49, "duration": 15, "velocity": 64}, {"time": 980, "pitch": 54, "duration": 4, "velocity": 82}, {"time": 983, "pitch": 61, "duration": 2, "velocity": 79}, {"time": 986, "pitch": 66, "duration": 4, "velocity": 87}, {"time": 989, "pitch": 61, "duration": 3, "velocity": 82}, {"time": 992, "pitch": 54, "duration": 8, "velocity": 82}, {"time": 995, "pitch": 61, "duration": 10, "velocity": 77}, {"time": 998, "pitch": 42, "duration": 15, "velocity": 83}, {"time": 1001, "pitch": 49, "duration": 11, "velocity": 74}, {"time": 1004, "pitch": 54, "duration": 9, "velocity": 82}, {"time": 1007, "pitch": 58, "duration": 2, "velocity": 76}, {"time": 1010, "pitch": 66, "duration": 5, "velocity": 89}, {"time": 1013, "pitch": 61, "duration": 4, "velocity": 84}, {"time": 1016, "pitch": 54, "duration": 3, "velocity": 84}, {"time": 1019, "pitch": 58, "duration": 1, "velocity": 75}, {"time": 1022, "pitch": 46, "duration": 17, "velocity": 83}, {"time": 1022, "pitch": 58, "duration": 3, "velocity": 72}, {"time": 1022, "pitch": 61, "duration": 3, "velocity": 76}, {"time": 1025, "pitch": 53, "duration": 14, "velocity": 76}, {"time": 1028, "pitch": 58, "duration": 4, "velocity": 82}, {"time": 1031, "pitch": 61, "duration": 4, "velocity": 73}, {"time": 1034, "pitch": 70, "duration": 3, "velocity": 87}, {"time": 1037, "pitch": 65, "duration": 3, "velocity": 83}, {"time": 1040, "pitch": 61, "duration": 3, "velocity": 87}, {"time": 1043, "pitch": 65, "duration": 9, "velocity": 86}, {"time": 1046, "pitch": 46, "duration": 12, "velocity": 87}, {"time": 1049, "pitch": 53, "duration": 9, "velocity": 75}, {"time": 1052, "pitch": 61, "duration": 2, "velocity": 81}, {"time": 1055, "pitch": 58, "duration": 4, "velocity": 84}, {"time": 1058, "pitch": 70, "duration": 3, "velocity": 86}, {"time": 1061, "pitch": 65, "duration": 3, "velocity": 83}, {"time": 1064, "pitch": 61, "duration": 2, "velocity": 83}, {"time": 1067, "pitch": 58, "duration": 2, "velocity": 83}, {"time": 1070, "pitch": 51, "duration": 14, "velocity": 86}, {"time": 1070, "pitch": 63, "duration": 3, "velocity": 86}, {"time": 1073, "pitch": 58, "duration": 3, "velocity": 83}, {"time": 1076, "pitch": 66, "duration": 3, "velocity": 79}, {"time": 1079, "pitch": 58, "duration": 3, "velocity": 77}, {"time": 1082, "pitch": 63, "duration": 2, "velocity": 79}, {"time": 1085, "pitch": 58, "duration": 3, "velocity": 82}, {"time": 1088, "pitch": 66, "duration": 3, "velocity": 75}, {"time": 1091, "pitch": 58, "duration": 3, "velocity": 75}, {"time": 1094, "pitch": 47, "duration": 16, "velocity": 86}, {"time": 1094, "pitch": 63, "duration": 6, "velocity": 82}, {"time": 1097, "pitch": 54, "duration": 12, "velocity": 75}, {"time": 1100, "pitch": 59, "duration": 3, "velocity": 82}, {"time": 1103, "pitch": 63, "duration": 2, "velocity": 81}, {"time": 1106, "pitch": 66, "duration": 3, "velocity": 88}, {"time": 1109, "pitch": 63, "duration": 3, "velocity": 82}, {"time": 1112, "pitch": 59, "duration": 4, "velocity": 76}, {"time": 1115, "pitch": 63, "duration": 4, "velocity": 81}, {"time": 1118, "pitch": 44, "duration": 21, "velocity": 83}, {"time": 1121, "pitch": 51, "duration": 18, "velocity": 79}, {"time": 1124, "pitch": 63, "duration": 3, "velocity": 82}, {"time": 1127, "pitch": 56, "duration": 3, "velocity": 82}, {"time": 1130, "pitch": 68, "duration": 3, "velocity": 85}, {"time": 1133, "pitch": 63, "duration": 3, "velocity": 82}, {"time": 1136, "pitch": 59, "duration": 3, "velocity": 79}, {"time": 1139, "pitch": 63, "duration": 9, "velocity": 82}, {"time": 1142, "pitch": 44, "duration": 22, "velocity": 83}, {"time": 1145, "pitch": 51, "duration": 19, "velocity": 74}, {"time": 1148, "pitch": 59, "duration": 2, "velocity": 82}, {"time": 1151, "pitch": 56, "duration": 2, "velocity": 83}, {"time": 1154, "pitch": 63, "duration": 3, "velocity": 86}, {"time": 1157, "pitch": 59, "duration": 3, "velocity": 86}, {"time": 1160, "pitch": 56, "duration": 3, "velocity": 85}, {"time": 1163, "pitch": 63, "duration": 4, "velocity": 82}, {"time": 1166, "pitch": 49, "duration": 21, "velocity": 96}, {"time": 1169, "pitch": 61, "duration": 3, "velocity": 82}, {"time": 1172, "pitch": 56, "duration": 4, "velocity": 83}, {"time": 1175, "pitch": 61, "duration": 1, "velocity": 82}, {"time": 1178, "pitch": 63, "duration": 3, "velocity": 83}, {"time": 1181, "pitch": 61, "duration": 2, "velocity": 84}, {"time": 1184, "pitch": 56, "duration": 4, "velocity": 82}, {"time": 1187, "pitch": 61, "duration": 1, "velocity": 84}, {"time": 1190, "pitch": 49, "duration": 23, "velocity": 98}, {"time": 1190, "pitch": 56, "duration": 2, "velocity": 83}, {"time": 1190, "pitch": 65, "duration": 5, "velocity": 86}, {"time": 1193, "pitch": 56, "duration": 3, "velocity": 78}, {"time": 1196, "pitch": 61, "duration": 3, "velocity": 77}, {"time": 1199, "pitch": 56, "duration": 1, "velocity": 83}, {"time": 1202, "pitch": 56, "duration": 1, "velocity": 88}, {"time": 1202, "pitch": 65, "duration": 5, "velocity": 83}, {"time": 1205, "pitch": 56, "duration": 1, "velocity": 85}, {"time": 1208, "pitch": 61, "duration": 3, "velocity": 89}, {"time": 1211, "pitch": 56, "duration": 2, "velocity": 85}, {"time": 1214, "pitch": 42, "duration": 21, "velocity": 83}, {"time": 1214, "pitch": 54, "duration": 2, "velocity": 82}, {"time": 1214, "pitch": 58, "duration": 4, "velocity": 82}, {"time": 1217, "pitch": 49, "duration": 15, "velocity": 64}, {"time": 1220, "pitch": 54, "duration": 4, "velocity": 82}, {"time": 1223, "pitch": 61, "duration": 2, "velocity": 79}, {"time": 1226, "pitch": 66, "duration": 4, "velocity": 87}, {"time": 1229, "pitch": 61, "duration": 3, "velocity": 82}, {"time": 1232, "pitch": 54, "duration": 8, "velocity": 82}, {"time": 1235, "pitch": 61, "duration": 10, "velocity": 77}, {"time": 1238, "pitch": 42, "duration": 15, "velocity": 83}, {"time": 1241, "pitch": 49, "duration": 11, "velocity": 74}, {"time": 1244, "pitch": 54, "duration": 9, "velocity": 82}, {"time": 1247, "pitch": 58, "duration": 2, "velocity": 76}, {"time": 1250, "pitch": 66, "duration": 5, "velocity": 89}, {"time": 1253, "pitch": 61, "duration": 4, "velocity": 84}, {"time": 1256, "pitch": 54, "duration": 3, "velocity": 84}, {"time": 1259, "pitch": 58, "duration": 1, "velocity": 75}, {"time": 1262, "pitch": 46, "duration": 17, "velocity": 83}, {"time": 1262, "pitch": 58, "duration": 3, "velocity": 72}, {"time": 1262, "pitch": 61, "duration": 3, "velocity": 76}, {"time": 1265, "pitch": 53, "duration": 14, "velocity": 76}, {"time": 1268, "pitch": 58, "duration": 4, "velocity": 82}, {"time": 1271, "pitch": 61, "duration": 4, "velocity": 73}, {"time": 1274, "pitch": 70, "duration": 3, "velocity": 87}, {"time": 1277, "pitch": 65, "duration": 3, "velocity": 83}, {"time": 1280, "pitch": 61, "duration": 3, "velocity": 87}, {"time": 1283, "pitch": 65, "duration": 9, "velocity": 86}, {"time": 1286, "pitch": 46, "duration": 12, "velocity": 87}, {"time": 1289, "pitch": 53, "duration": 9, "velocity": 75}, {"time": 1292, "pitch": 61, "duration": 2, "velocity": 81}, {"time": 1295, "pitch": 58, "duration": 4, "velocity": 84}, {"time": 1298, "pitch": 70, "duration": 3, "velocity": 86}, {"time": 1301, "pitch": 65, "duration": 3, "velocity": 83}, {"time": 1304, "pitch": 61, "duration": 2, "velocity": 83}, {"time": 1307, "pitch": 58, "duration": 2, "velocity": 83}, {"time": 1310, "pitch": 51, "duration": 14, "velocity": 86}, {"time": 1310, "pitch": 63, "duration": 3, "velocity": 86}, {"time": 1313, "pitch": 58, "duration": 3, "velocity": 83}, {"time": 1316, "pitch": 66, "duration": 3, "velocity": 79}, {"time": 1319, "pitch": 58, "duration": 3, "velocity": 77}, {"time": 1322, "pitch": 63, "duration": 2, "velocity": 79}, {"time": 1325, "pitch": 58, "duration": 3, "velocity": 82}, {"time": 1328, "pitch": 66, "duration": 3, "velocity": 75}, {"time": 1331, "pitch": 58, "duration": 3, "velocity": 75}, {"time": 1334, "pitch": 47, "duration": 16, "velocity": 86}, {"time": 1334, "pitch": 63, "duration": 6, "velocity": 82}, {"time": 1337, "pitch": 54, "duration": 12, "velocity": 75}, {"time": 1340, "pitch": 59, "duration": 3, "velocity": 82}, {"time": 1343, "pitch": 63, "duration": 2, "velocity": 81}, {"time": 1346, "pitch": 66, "duration": 3, "velocity": 88}, {"time": 1349, "pitch": 63, "duration": 3, "velocity": 82}, {"time": 1352, "pitch": 59, "duration": 4, "velocity": 76}, {"time": 1355, "pitch": 63, "duration": 4, "velocity": 81}, {"time": 1358, "pitch": 44, "duration": 21, "velocity": 83}, {"time": 1361, "pitch": 51, "duration": 18, "velocity": 79}, {"time": 1364, "pitch": 63, "duration": 3, "velocity": 82}, {"time": 1367, "pitch": 56, "duration": 3, "velocity": 82}, {"time": 1370, "pitch": 68, "duration": 3, "velocity": 85}, {"time": 1373, "pitch": 63, "duration": 3, "velocity": 82}, {"time": 1376, "pitch": 59, "duration": 3, "velocity": 79}, {"time": 1379, "pitch": 63, "duration": 9, "velocity": 82}, {"time": 1382, "pitch": 44, "duration": 22, "velocity": 83}, {"time": 1385, "pitch": 51, "duration": 19, "velocity": 74}, {"time": 1388, "pitch": 59, "duration": 2, "velocity": 82}, {"time": 1391, "pitch": 56, "duration": 2, "velocity": 83}, {"time": 1394, "pitch": 63, "duration": 3, "velocity": 86}, {"time": 1397, "pitch": 59, "duration": 3, "velocity": 86}, {"time": 1400, "pitch": 56, "duration": 3, "velocity": 85}, {"time": 1403, "pitch": 63, "duration": 4, "velocity": 82}, {"time": 1406, "pitch": 49, "duration": 21, "velocity": 96}, {"time": 1409, "pitch": 61, "duration": 3, "velocity": 82}, {"time": 1412, "pitch": 56, "duration": 4, "velocity": 83}, {"time": 1415, "pitch": 61, "duration": 1, "velocity": 82}, {"time": 1418, "pitch": 63, "duration": 3, "velocity": 83}, {"time": 1421, "pitch": 61, "duration": 2, "velocity": 84}, {"time": 1424, "pitch": 56, "duration": 4, "velocity": 82}, {"time": 1427, "pitch": 61, "duration": 1, "velocity": 84}, {"time": 1430, "pitch": 49, "duration": 23, "velocity": 98}, {"time": 1430, "pitch": 56, "duration": 2, "velocity": 83}, {"time": 1430, "pitch": 65, "duration": 5, "velocity": 86}, {"time": 1433, "pitch": 56, "duration": 3, "velocity": 78}, {"time": 1436, "pitch": 61, "duration": 3, "velocity": 77}, {"time": 1439, "pitch": 56, "duration": 1, "velocity": 83}, {"time": 1442, "pitch": 56, "duration": 1, "velocity": 88}, {"time": 1442, "pitch": 65, "duration": 5, "velocity": 83}, {"time": 1445, "pitch": 56, "duration": 1, "velocity": 85}, {"time": 1448, "pitch": 61, "duration": 3, "velocity": 89}, {"time": 1451, "pitch": 54, "duration": 2, "velocity": 69}, {"time": 1451, "pitch": 56, "duration": 2, "velocity": 85}, {"time": 1454, "pitch": 47, "duration": 2, "velocity": 98}, {"time": 1454, "pitch": 59, "duration": 1, "velocity": 78}, {"time": 1454, "pitch": 66, "duration": 4, "velocity": 83}, {"time": 1457, "pitch": 54, "duration": 5, "velocity": 79}, {"time": 1460, "pitch": 59, "duration": 2, "velocity": 71}, {"time": 1463, "pitch": 66, "duration": 3, "velocity": 82}, {"time": 1475, "pitch": 54, "duration": 1, "velocity": 67}, {"time": 1478, "pitch": 47, "duration": 1, "velocity": 98}, {"time": 1478, "pitch": 59, "duration": 1, "velocity": 83}, {"time": 1478, "pitch": 66, "duration": 2, "velocity": 82}, {"time": 1493, "pitch": 47, "duration": 1, "velocity": 82}, {"time": 1496, "pitch": 54, "duration": 2, "velocity": 82}, {"time": 1502, "pitch": 46, "duration": 18, "velocity": 85}, {"time": 1502, "pitch": 58, "duration": 6, "velocity": 76}, {"time": 1502, "pitch": 61, "duration": 6, "velocity": 82}, {"time": 1508, "pitch": 53, "duration": 12, "velocity": 77}, {"time": 1511, "pitch": 58, "duration": 5, "velocity": 82}, {"time": 1517, "pitch": 65, "duration": 1, "velocity": 85}, {"time": 1523, "pitch": 58, "duration": 2, "velocity": 69}, {"time": 1526, "pitch": 46, "duration": 13, "velocity": 83}, {"time": 1526, "pitch": 61, "duration": 4, "velocity": 75}, {"time": 1526, "pitch": 65, "duration": 3, "velocity": 78}, {"time": 1526, "pitch": 70, "duration": 3, "velocity": 81}, {"time": 1547, "pitch": 56, "duration": 2, "velocity": 70}, {"time": 1547, "pitch": 59, "duration": 2, "velocity": 80}, {"time": 1550, "pitch": 44, "duration": 39, "velocity": 83}, {"time": 1550, "pitch": 63, "duration": 3, "velocity": 77}, {"time": 1550, "pitch": 68, "duration": 3, "velocity": 77}, {"time": 1553, "pitch": 51, "duration": 34, "velocity": 76}, {"time": 1556, "pitch": 56, "duration": 2, "velocity": 82}, {"time": 1559, "pitch": 63, "duration": 1, "velocity": 84}, {"time": 1565, "pitch": 59, "duration": 1, "velocity": 83}, {"time": 1568, "pitch": 56, "duration": 3, "velocity": 81}, {"time": 1586, "pitch": 56, "duration": 4, "velocity": 81}, {"time": 1586, "pitch": 59, "duration": 4, "velocity": 77}, {"time": 1586, "pitch": 63, "duration": 6, "velocity": 82}, {"time": 1586, "pitch": 68, "duration": 5, "velocity": 82}, {"time": 1589, "pitch": 51, "duration": 1, "velocity": 82}, {"time": 1592, "pitch": 56, "duration": 2, "velocity": 82}, {"time": 1598, "pitch": 42, "duration": 28, "velocity": 83}, {"time": 1598, "pitch": 54, "duration": 8, "velocity": 76}, {"time": 1598, "pitch": 58, "duration": 8, "velocity": 77}, {"time": 1610, "pitch": 61, "duration": 4, "velocity": 76}, {"time": 1613, "pitch": 54, "duration": 6, "velocity": 78}, {"time": 1616, "pitch": 58, "duration": 4, "velocity": 75}, {"time": 1619, "pitch": 61, "duration": 3, "velocity": 75}, {"time": 1622, "pitch": 66, "duration": 12, "velocity": 83}, {"time": 1634, "pitch": 54, "duration": 11, "velocity": 67}, {"time": 1634, "pitch": 58, "duration": 11, "velocity": 71}, {"time": 1634, "pitch": 61, "duration": 11, "velocity": 77}, {"time": 1646, "pitch": 47, "duration": 39, "velocity": 83}, {"time": 1646, "pitch": 59, "duration": 2, "velocity": 71}, {"time": 1646, "pitch": 63, "duration": 3, "velocity": 77}, {"time": 1652, "pitch": 54, "duration": 32, "velocity": 40}, {"time": 1658, "pitch": 59, "duration": 2, "velocity": 67}, {"time": 1658, "pitch": 63, "duration": 2, "velocity": 82}, {"time": 1658, "pitch": 70, "duration": 2, "velocity": 80}, {"time": 1670, "pitch": 59, "duration": 1, "velocity": 52}, {"time": 1670, "pitch": 63, "duration": 3, "velocity": 76}, {"time": 1670, "pitch": 70, "duration": 3, "velocity": 77}, {"time": 1676, "pitch": 59, "duration": 2, "velocity": 56}, {"time": 1682, "pitch": 59, "duration": 2, "velocity": 73}, {"time": 1682, "pitch": 63, "duration": 1, "velocity": 78}, {"time": 1682, "pitch": 70, "duration": 3, "velocity": 81}, {"time": 1688, "pitch": 47, "duration": 4, "velocity": 72}, {"time": 1694, "pitch": 46, "duration": 39, "velocity": 79}, {"time": 1694, "pitch": 58, "duration": 5, "velocity": 67}, {"time": 1694, "pitch": 61, "duration": 6, "velocity": 74}, {"time": 1700, "pitch": 53, "duration": 33, "velocity": 76}, {"time": 1706, "pitch": 61, "duration": 2, "velocity": 69}, {"time": 1706, "pitch": 68, "duration": 1, "velocity": 76}, {"time": 1712, "pitch": 58, "duration": 2, "velocity": 46}, {"time": 1718, "pitch": 58, "duration": 1, "velocity": 55}, {"time": 1718, "pitch": 61, "duration": 9, "velocity": 59}, {"time": 1718, "pitch": 68, "duration": 6, "velocity": 69}, {"time": 1724, "pitch": 58, "duration": 3, "velocity": 55}, {"time": 1730, "pitch": 58, "duration": 3, "velocity": 80}, {"time": 1730, "pitch": 61, "duration": 3, "velocity": 82}, {"time": 1730, "pitch": 68, "duration": 3, "velocity": 76}, {"time": 1736, "pitch": 46, "duration": 2, "velocity": 83}, {"time": 1742, "pitch": 44, "duration": 34, "velocity": 78}, {"time": 1742, "pitch": 59, "duration": 6, "velocity": 65}, {"time": 1742, "pitch": 63, "duration": 6, "velocity": 72}, {"time": 1748, "pitch": 51, "duration": 22, "velocity": 49}, {"time": 1754, "pitch": 56, "duration": 2, "velocity": 69}, {"time": 1754, "pitch": 59, "duration": 7, "velocity": 82}, {"time": 1754, "pitch": 63, "duration": 8, "velocity": 82}, {"time": 1760, "pitch": 56, "duration": 3, "velocity": 59}, {"time": 1766, "pitch": 59, "duration": 7, "velocity": 57}, {"time": 1766, "pitch": 63, "duration": 10, "velocity": 68}, {"time": 1772, "pitch": 56, "duration": 3, "velocity": 61}, {"time": 1778, "pitch": 49, "duration": 5, "velocity": 85}, {"time": 1778, "pitch": 56, "duration": 2, "velocity": 79}, {"time": 1778, "pitch": 61, "duration": 5, "velocity": 80}, {"time": 1778, "pitch": 65, "duration": 6, "velocity": 84}, {"time": 1784, "pitch": 56, "duration": 1, "velocity": 72}, {"time": 1790, "pitch": 42, "duration": 46, "velocity": 82}, {"time": 1790, "pitch": 54, "duration": 6, "velocity": 71}, {"time": 1790, "pitch": 58, "duration": 7, "velocity": 74}, {"time": 1796, "pitch": 61, "duration": 2, "velocity": 69}, {"time": 1802, "pitch": 65, "duration": 1, "velocity": 75}, {"time": 1808, "pitch": 54, "duration": 6, "velocity": 71}, {"time": 1814, "pitch": 66, "duration": 3, "velocity": 82}, {"time": 1820, "pitch": 54, "duration": 4, "velocity": 74}, {"time": 1826, "pitch": 54, "duration": 2, "velocity": 69}, {"time": 1826, "pitch": 58, "duration": 5, "velocity": 82}, {"time": 1826, "pitch": 65, "duration": 5, "velocity": 83}, {"time": 1832, "pitch": 61, "duration": 4, "velocity": 83}, {"time": 1838, "pitch": 47, "duration": 21, "velocity": 79}, {"time": 1838, "pitch": 59, "duration": 12, "velocity": 70}, {"time": 1838, "pitch": 63, "duration": 7, "velocity": 82}, {"time": 1844, "pitch": 54, "duration": 13, "velocity": 54}, {"time": 1850, "pitch": 63, "duration": 5, "velocity": 79}, {"time": 1850, "pitch": 66, "duration": 9, "velocity": 81}, {"time": 1856, "pitch": 59, "duration": 4, "velocity": 82}, {"time": 1862, "pitch": 47, "duration": 17, "velocity": 82}, {"time": 1862, "pitch": 59, "duration": 3, "velocity": 77}, {"time": 1862, "pitch": 62, "duration": 7, "velocity": 71}, {"time": 1868, "pitch": 59, "duration": 7, "velocity": 77}, {"time": 1874, "pitch": 62, "duration": 5, "velocity": 77}, {"time": 1874, "pitch": 66, "duration": 6, "velocity": 82}, {"time": 1880, "pitch": 59, "duration": 1, "velocity": 78}, {"time": 1886, "pitch": 46, "duration": 17, "velocity": 82}, {"time": 1886, "pitch": 58, "duration": 9, "velocity": 63}, {"time": 1886, "pitch": 61, "duration": 8, "velocity": 63}, {"time": 1892, "pitch": 53, "duration": 10, "velocity": 75}, {"time": 1898, "pitch": 58, "duration": 2, "velocity": 76}, {"time": 1898, "pitch": 61, "duration": 4, "velocity": 82}, {"time": 1898, "pitch": 65, "duration": 4, "velocity": 83}, {"time": 1904, "pitch": 58, "duration": 7, "velocity": 86}, {"time": 1910, "pitch": 39, "duration": 18, "velocity": 83}, {"time": 1910, "pitch": 66, "duration": 7, "velocity": 82}, {"time": 1916, "pitch": 58, "duration": 9, "velocity": 84}, {"time": 1922, "pitch": 46, "duration": 6, "velocity": 77}, {"time": 1922, "pitch": 63, "duration": 6, "velocity": 79}, {"time": 1928, "pitch": 61, "duration": 5, "velocity": 77}, {"time": 1934, "pitch": 44, "duration": 19, "velocity": 82}, {"time": 1934, "pitch": 56, "duration": 7, "velocity": 77}, {"time": 1934, "pitch": 59, "duration": 7, "velocity": 79}, {"time": 1940, "pitch": 51, "duration": 11, "velocity": 67}, {"time": 1946, "pitch": 59, "duration": 8, "velocity": 78}, {"time": 1946, "pitch": 63, "duration": 7, "velocity": 82}, {"time": 1952, "pitch": 56, "duration": 19, "velocity": 76}, {"time": 1958, "pitch": 44, "duration": 15, "velocity": 71}, {"time": 1958, "pitch": 63, "duration": 8, "velocity": 75}, {"time": 1964, "pitch": 51, "duration": 9, "velocity": 65}, {"time": 1970, "pitch": 59, "duration": 3, "velocity": 81}, {"time": 1970, "pitch": 63, "duration": 5, "velocity": 84}, {"time": 1970, "pitch": 68, "duration": 5, "velocity": 79}, {"time": 1976, "pitch": 44, "duration": 5, "velocity": 83}, {"time": 1982, "pitch": 49, "duration": 21, "velocity": 83}, {"time": 1982, "pitch": 56, "duration": 2, "velocity": 75}, {"time": 1982, "pitch": 61, "duration": 8, "velocity": 74}, {"time": 1988, "pitch": 56, "duration": 7, "velocity": 75}, {"time": 1994, "pitch": 61, "duration": 5, "velocity": 78}, {"time": 1994, "pitch": 65, "duration": 8, "velocity": 83}, {"time": 2000, "pitch": 56, "duration": 4, "velocity": 81}, {"time": 2006, "pitch": 49, "duration": 14, "velocity": 86}, {"time": 2006, "pitch": 56, "duration": 2, "velocity": 82}, {"time": 2006, "pitch": 61, "duration": 8, "velocity": 79}, {"time": 2012, "pitch": 56, "duration": 3, "velocity": 76}, {"time": 2018, "pitch": 56, "duration": 2, "velocity": 84}, {"time": 2018, "pitch": 61, "duration": 2, "velocity": 86}, {"time": 2018, "pitch": 65, "duration": 2, "velocity": 84}, {"time": 2030, "pitch": 42, "duration": 21, "velocity": 83}, {"time": 2030, "pitch": 54, "duration": 2, "velocity": 82}, {"time": 2030, "pitch": 58, "duration": 4, "velocity": 82}, {"time": 2033, "pitch": 49, "duration": 15, "velocity": 64}, {"time": 2036, "pitch": 54, "duration": 4, "velocity": 82}, {"time": 2039, "pitch": 61, "duration": 2, "velocity": 79}, {"time": 2042, "pitch": 66, "duration": 4, "velocity": 87}, {"time": 2045, "pitch": 61, "duration": 3, "velocity": 82}, {"time": 2048, "pitch": 54, "duration": 8, "velocity": 82}, {"time": 2051, "pitch": 61, "duration": 10, "velocity": 77}, {"time": 2054, "pitch": 42, "duration": 15, "velocity": 83}, {"time": 2057, "pitch": 49, "duration": 11, "velocity": 74}, {"time": 2060, "pitch": 54, "duration": 9, "velocity": 82}, {"time": 2063, "pitch": 58, "duration": 2, "velocity": 76}, {"time": 2066, "pitch": 66, "duration": 5, "velocity": 89}, {"time": 2069, "pitch": 61, "duration": 4, "velocity": 84}, {"time": 2072, "pitch": 54, "duration": 3, "velocity": 84}, {"time": 2075, "pitch": 58, "duration": 1, "velocity": 75}, {"time": 2078, "pitch": 46, "duration": 17, "velocity": 83}, {"time": 2078, "pitch": 58, "duration": 3, "velocity": 72}, {"time": 2078, "pitch": 61, "duration": 3, "velocity": 76}, {"time": 2081, "pitch": 53, "duration": 14, "velocity": 76}, {"time": 2084, "pitch": 58, "duration": 4, "velocity": 82}, {"time": 2087, "pitch": 61, "duration": 4, "velocity": 73}, {"time": 2090, "pitch": 70, "duration": 3, "velocity": 87}, {"time": 2093, "pitch": 65, "duration": 3, "velocity": 83}, {"time": 2096, "pitch": 61, "duration": 3, "velocity": 87}, {"time": 2099, "pitch": 65, "duration": 9, "velocity": 86}, {"time": 2102, "pitch": 46, "duration": 12, "velocity": 87}, {"time": 2105, "pitch": 53, "duration": 9, "velocity": 75}, {"time": 2108, "pitch": 61, "duration": 2, "velocity": 81}, {"time": 2111, "pitch": 58, "duration": 4, "velocity": 84}, {"time": 2114, "pitch": 70, "duration": 3, "velocity": 86}, {"time": 2117, "pitch": 65, "duration": 3, "velocity": 83}, {"time": 2120, "pitch": 61, "duration": 2, "velocity": 83}, {"time": 2123, "pitch": 58, "duration": 2, "velocity": 83}, {"time": 2126, "pitch": 51, "duration": 14, "velocity": 86}, {"time": 2126, "pitch": 63, "duration": 3, "velocity": 86}, {"time": 2129, "pitch": 58, "duration": 3, "velocity": 83}, {"time": 2132, "pitch": 66, "duration": 3, "velocity": 79}, {"time": 2135, "pitch": 58, "duration": 3, "velocity": 77}, {"time": 2138, "pitch": 63, "duration": 2, "velocity": 79}, {"time": 2141, "pitch": 58, "duration": 3, "velocity": 82}, {"time": 2144, "pitch": 66, "duration": 3, "velocity": 75}, {"time": 2147, "pitch": 58, "duration": 3, "velocity": 75}, {"time": 2150, "pitch": 47, "duration": 16, "velocity": 86}, {"time": 2150, "pitch": 63, "duration": 6, "velocity": 82}, {"time": 2153, "pitch": 54, "duration": 12, "velocity": 75}, {"time": 2156, "pitch": 59, "duration": 3, "velocity": 82}, {"time": 2159, "pitch": 63, "duration": 2, "velocity": 81}, {"time": 2162, "pitch": 66, "duration": 3, "velocity": 88}, {"time": 2165, "pitch": 63, "duration": 3, "velocity": 82}, {"time": 2168, "pitch": 59, "duration": 4, "velocity": 76}, {"time": 2171, "pitch": 63, "duration": 4, "velocity": 81}, {"time": 2174, "pitch": 44, "duration": 21, "velocity": 83}, {"time": 2177, "pitch": 51, "duration": 18, "velocity": 79}, {"time": 2180, "pitch": 63, "duration": 3, "velocity": 82}, {"time": 2183, "pitch": 56, "duration": 3, "velocity": 82}, {"time": 2186, "pitch": 68, "duration": 3, "velocity": 85}, {"time": 2189, "pitch": 63, "duration": 3, "velocity": 82}, {"time": 2192, "pitch": 59, "duration": 3, "velocity": 79}, {"time": 2195, "pitch": 63, "duration": 9, "velocity": 82}, {"time": 2198, "pitch": 44, "duration": 22, "velocity": 83}, {"time": 2201, "pitch": 51, "duration": 19, "velocity": 74}, {"time": 2204, "pitch": 59, "duration": 2, "velocity": 82}, {"time": 2207, "pitch": 56, "duration": 2, "velocity": 83}, {"time": 2210, "pitch": 63, "duration": 3, "velocity": 86}, {"time": 2213, "pitch": 59, "duration": 3, "velocity": 86}, {"time": 2216, "pitch": 56, "duration": 3, "velocity": 85}, {"time": 2219, "pitch": 63, "duration": 4, "velocity": 82}, {"time": 2222, "pitch": 49, "duration": 21, "velocity": 96}, {"time": 2225, "pitch": 61, "duration": 3, "velocity": 82}, {"time": 2228, "pitch": 56, "duration": 4, "velocity": 83}, {"time": 2231, "pitch": 61, "duration": 1, "velocity": 82}, {"time": 2234, "pitch": 63, "duration": 3, "velocity": 83}, {"time": 2237, "pitch": 61, "duration": 2, "velocity": 84}, {"time": 2240, "pitch": 56, "duration": 4, "velocity": 82}, {"time": 2243, "pitch": 61, "duration": 1, "velocity": 84}, {"time": 2246, "pitch": 49, "duration": 23, "velocity": 98}, {"time": 2246, "pitch": 56, "duration": 2, "velocity": 83}, {"time": 2246, "pitch": 65, "duration": 5, "velocity": 86}, {"time": 2249, "pitch": 56, "duration": 3, "velocity": 78}, {"time": 2252, "pitch": 61, "duration": 3, "velocity": 77}, {"time": 2255, "pitch": 56, "duration": 1, "velocity": 83}, {"time": 2258, "pitch": 56, "duration": 1, "velocity": 88}, {"time": 2258, "pitch": 65, "duration": 5, "velocity": 83}, {"time": 2261, "pitch": 56, "duration": 1, "velocity": 85}, {"time": 2264, "pitch": 61, "duration": 3, "velocity": 89}, {"time": 2267, "pitch": 56, "duration": 2, "velocity": 85}, {"time": 2270, "pitch": 42, "duration": 21, "velocity": 83}, {"time": 2270, "pitch": 54, "duration": 2, "velocity": 82}, {"time": 2270, "pitch": 58, "duration": 4, "velocity": 82}, {"time": 2273, "pitch": 49, "duration": 15, "velocity": 64}, {"time": 2276, "pitch": 54, "duration": 4, "velocity": 82}, {"time": 2279, "pitch": 61, "duration": 2, "velocity": 79}, {"time": 2282, "pitch": 66, "duration": 4, "velocity": 87}, {"time": 2285, "pitch": 61, "duration": 3, "velocity": 82}, {"time": 2288, "pitch": 54, "duration": 8, "velocity": 82}, {"time": 2291, "pitch": 61, "duration": 10, "velocity": 77}, {"time": 2294, "pitch": 42, "duration": 15, "velocity": 83}, {"time": 2297, "pitch": 49, "duration": 11, "velocity": 74}, {"time": 2300, "pitch": 54, "duration": 9, "velocity": 82}, {"time": 2303, "pitch": 58, "duration": 2, "velocity": 76}, {"time": 2306, "pitch": 66, "duration": 5, "velocity": 89}, {"time": 2309, "pitch": 61, "duration": 4, "velocity": 84}, {"time": 2312, "pitch": 54, "duration": 3, "velocity": 84}, {"time": 2315, "pitch": 58, "duration": 1, "velocity": 75}, {"time": 2318, "pitch": 46, "duration": 17, "velocity": 83}, {"time": 2318, "pitch": 58, "duration": 3, "velocity": 72}, {"time": 2318, "pitch": 61, "duration": 3, "velocity": 76}, {"time": 2321, "pitch": 53, "duration": 14, "velocity": 76}, {"time": 2324, "pitch": 58, "duration": 4, "velocity": 82}, {"time": 2327, "pitch": 61, "duration": 4, "velocity": 73}, {"time": 2330, "pitch": 70, "duration": 3, "velocity": 87}, {"time": 2333, "pitch": 65, "duration": 3, "velocity": 83}, {"time": 2336, "pitch": 61, "duration": 3, "velocity": 87}, {"time": 2339, "pitch": 65, "duration": 9, "velocity": 86}, {"time": 2342, "pitch": 46, "duration": 12, "velocity": 87}, {"time": 2345, "pitch": 53, "duration": 9, "velocity": 75}, {"time": 2348, "pitch": 61, "duration": 2, "velocity": 81}, {"time": 2351, "pitch": 58, "duration": 4, "velocity": 84}, {"time": 2354, "pitch": 70, "duration": 3, "velocity": 86}, {"time": 2357, "pitch": 65, "duration": 3, "velocity": 83}, {"time": 2360, "pitch": 61, "duration": 2, "velocity": 83}, {"time": 2363, "pitch": 58, "duration": 2, "velocity": 83}, {"time": 2366, "pitch": 51, "duration": 14, "velocity": 86}, {"time": 2366, "pitch": 63, "duration": 3, "velocity": 86}, {"time": 2369, "pitch": 58, "duration": 3, "velocity": 83}, {"time": 2372, "pitch": 66, "duration": 3, "velocity": 79}, {"time": 2375, "pitch": 58, "duration": 3, "velocity": 77}, {"time": 2378, "pitch": 63, "duration": 2, "velocity": 79}, {"time": 2381, "pitch": 58, "duration": 3, "velocity": 82}, {"time": 2384, "pitch": 66, "duration": 3, "velocity": 75}, {"time": 2387, "pitch": 58, "duration": 3, "velocity": 75}, {"time": 2390, "pitch": 47, "duration": 16, "velocity": 86}, {"time": 2390, "pitch": 63, "duration": 6, "velocity": 82}, {"time": 2393, "pitch": 54, "duration": 12, "velocity": 75}, {"time": 2396, "pitch": 59, "duration": 3, "velocity": 82}, {"time": 2399, "pitch": 63, "duration": 2, "velocity": 81}, {"time": 2402, "pitch": 66, "duration": 3, "velocity": 88}, {"time": 2405, "pitch": 63, "duration": 3, "velocity": 82}, {"time": 2408, "pitch": 59, "duration": 4, "velocity": 76}, {"time": 2411, "pitch": 63, "duration": 4, "velocity": 81}, {"time": 2414, "pitch": 44, "duration": 21, "velocity": 83}, {"time": 2417, "pitch": 51, "duration": 18, "velocity": 79}, {"time": 2420, "pitch": 63, "duration": 3, "velocity": 82}, {"time": 2423, "pitch": 56, "duration": 3, "velocity": 82}, {"time": 2426, "pitch": 68, "duration": 3, "velocity": 85}, {"time": 2429, "pitch": 63, "duration": 3, "velocity": 82}, {"time": 2432, "pitch": 59, "duration": 3, "velocity": 79}, {"time": 2435, "pitch": 63, "duration": 9, "velocity": 82}, {"time": 2438, "pitch": 44, "duration": 22, "velocity": 83}, {"time": 2441, "pitch": 51, "duration": 19, "velocity": 74}, {"time": 2444, "pitch": 59, "duration": 2, "velocity": 82}, {"time": 2447, "pitch": 56, "duration": 2, "velocity": 83}, {"time": 2450, "pitch": 63, "duration": 3, "velocity": 86}, {"time": 2453, "pitch": 59, "duration": 3, "velocity": 86}, {"time": 2456, "pitch": 56, "duration": 3, "velocity": 85}, {"time": 2459, "pitch": 63, "duration": 4, "velocity": 82}, {"time": 2462, "pitch": 49, "duration": 21, "velocity": 96}, {"time": 2465, "pitch": 61, "duration": 3, "velocity": 82}, {"time": 2468, "pitch": 56, "duration": 4, "velocity": 83}, {"time": 2471, "pitch": 61, "duration": 1, "velocity": 82}, {"time": 2474, "pitch": 63, "duration": 3, "velocity": 83}, {"time": 2477, "pitch": 61, "duration": 2, "velocity": 84}, {"time": 2480, "pitch": 56, "duration": 4, "velocity": 82}, {"time": 2483, "pitch": 61, "duration": 1, "velocity": 84}, {"time": 2486, "pitch": 49, "duration": 23, "velocity": 98}, {"time": 2486, "pitch": 56, "duration": 2, "velocity": 83}, {"time": 2486, "pitch": 65, "duration": 5, "velocity": 86}, {"time": 2489, "pitch": 56, "duration": 3, "velocity": 78}, {"time": 2492, "pitch": 61, "duration": 3, "velocity": 77}, {"time": 2495, "pitch": 56, "duration": 1, "velocity": 83}, {"time": 2498, "pitch": 56, "duration": 1, "velocity": 88}, {"time": 2498, "pitch": 65, "duration": 5, "velocity": 83}, {"time": 2501, "pitch": 56, "duration": 1, "velocity": 85}, {"time": 2504, "pitch": 61, "duration": 3, "velocity": 89}, {"time": 2507, "pitch": 56, "duration": 2, "velocity": 85}, {"time": 2507, "pitch": 54, "duration": 9, "velocity": 71}, {"time": 2508, "pitch": 58, "duration": 11, "velocity": 76}, {"time": 2508, "pitch": 61, "duration": 11, "velocity": 75}, {"time": 2509, "pitch": 42, "duration": 33, "velocity": 83}, {"time": 2509, "pitch": 66, "duration": 9, "velocity": 82}, {"time": 2514, "pitch": 49, "duration": 27, "velocity": 68}, {"time": 2521, "pitch": 54, "duration": 12, "velocity": 75}, {"time": 2533, "pitch": 66, "duration": 5, "velocity": 78}, {"time": 2533, "pitch": 61, "duration": 2, "velocity": 72}, {"time": 2533, "pitch": 58, "duration": 2, "velocity": 72}, {"time": 2538, "pitch": 54, "duration": 2, "velocity": 76}, {"time": 2544, "pitch": 66, "duration": 3, "velocity": 81}, {"time": 2544, "pitch": 54, "duration": 3, "velocity": 84}, {"time": 2544, "pitch": 42, "duration": 3, "velocity": 84}, {"time": 2549, "pitch": 44, "duration": 2, "velocity": 83}, {"time": 2549, "pitch": 68, "duration": 2, "velocity": 81}, {"time": 2549, "pitch": 56, "duration": 2, "velocity": 81}, {"time": 2553, "pitch": 45, "duration": 2, "velocity": 83}, {"time": 2553, "pitch": 69, "duration": 1, "velocity": 78}, {"time": 2553, "pitch": 57, "duration": 1, "velocity": 69}, {"time": 2557, "pitch": 70, "duration": 4, "velocity": 81}, {"time": 2557, "pitch": 58, "duration": 8, "velocity": 82}, {"time": 2557, "pitch": 46, "duration": 13, "velocity": 87}, {"time": 2563, "pitch": 53, "duration": 7, "velocity": 72}, {"time": 2568, "pitch": 65, "duration": 2, "velocity": 84}, {"time": 2569, "pitch": 61, "duration": 1, "velocity": 85}, {"time": 2569, "pitch": 58, "duration": 1, "velocity": 73}, {"time": 2577, "pitch": 70, "duration": 6, "velocity": 74}, {"time": 2578, "pitch": 65, "duration": 5, "velocity": 83}, {"time": 2579, "pitch": 61, "duration": 4, "velocity": 78}, {"time": 2580, "pitch": 58, "duration": 3, "velocity": 75}, {"time": 2581, "pitch": 46, "duration": 20, "velocity": 88}, {"time": 2581, "pitch": 53, "duration": 16, "velocity": 93}, {"time": 2584, "pitch": 61, "duration": 2, "velocity": 89}, {"time": 2584, "pitch": 58, "duration": 3, "velocity": 88}, {"time": 2584, "pitch": 65, "duration": 3, "velocity": 85}, {"time": 2590, "pitch": 58, "duration": 1, "velocity": 61}, {"time": 2593, "pitch": 61, "duration": 5, "velocity": 88}, {"time": 2593, "pitch": 58, "duration": 3, "velocity": 81}, {"time": 2593, "pitch": 70, "duration": 4, "velocity": 84}, {"time": 2593, "pitch": 65, "duration": 5, "velocity": 91}, {"time": 2599, "pitch": 61, "duration": 4, "velocity": 75}, {"time": 2602, "pitch": 58, "duration": 2, "velocity": 86}, {"time": 2606, "pitch": 51, "duration": 14, "velocity": 86}, {"time": 2606, "pitch": 63, "duration": 3, "velocity": 86}, {"time": 2609, "pitch": 58, "duration": 3, "velocity": 83}, {"time": 2612, "pitch": 66, "duration": 3, "velocity": 79}, {"time": 2615, "pitch": 58, "duration": 3, "velocity": 77}, {"time": 2618, "pitch": 63, "duration": 2, "velocity": 79}, {"time": 2621, "pitch": 58, "duration": 3, "velocity": 82}, {"time": 2624, "pitch": 66, "duration": 3, "velocity": 75}, {"time": 2627, "pitch": 58, "duration": 3, "velocity": 75}, {"time": 2630, "pitch": 47, "duration": 16, "velocity": 86}, {"time": 2630, "pitch": 63, "duration": 6, "velocity": 82}, {"time": 2633, "pitch": 54, "duration": 12, "velocity": 75}, {"time": 2636, "pitch": 59, "duration": 3, "velocity": 82}, {"time": 2639, "pitch": 63, "duration": 2, "velocity": 81}, {"time": 2642, "pitch": 66, "duration": 3, "velocity": 88}, {"time": 2645, "pitch": 63, "duration": 3, "velocity": 82}, {"time": 2648, "pitch": 59, "duration": 4, "velocity": 76}, {"time": 2651, "pitch": 63, "duration": 4, "velocity": 81}, {"time": 2654, "pitch": 44, "duration": 21, "velocity": 83}, {"time": 2657, "pitch": 51, "duration": 18, "velocity": 79}, {"time": 2660, "pitch": 63, "duration": 3, "velocity": 82}, {"time": 2663, "pitch": 56, "duration": 3, "velocity": 82}, {"time": 2666, "pitch": 68, "duration": 3, "velocity": 85}, {"time": 2669, "pitch": 63, "duration": 3, "velocity": 82}, {"time": 2672, "pitch": 59, "duration": 3, "velocity": 79}, {"time": 2675, "pitch": 63, "duration": 9, "velocity": 82}, {"time": 2678, "pitch": 44, "duration": 22, "velocity": 83}, {"time": 2681, "pitch": 51, "duration": 19, "velocity": 74}, {"time": 2684, "pitch": 59, "duration": 2, "velocity": 82}, {"time": 2687, "pitch": 56, "duration": 2, "velocity": 83}, {"time": 2690, "pitch": 63, "duration": 3, "velocity": 86}, {"time": 2693, "pitch": 59, "duration": 3, "velocity": 86}, {"time": 2696, "pitch": 56, "duration": 3, "velocity": 85}, {"time": 2699, "pitch": 63, "duration": 4, "velocity": 82}, {"time": 2702, "pitch": 49, "duration": 21, "velocity": 96}, {"time": 2705, "pitch": 61, "duration": 3, "velocity": 82}, {"time": 2708, "pitch": 56, "duration": 4, "velocity": 83}, {"time": 2711, "pitch": 61, "duration": 1, "velocity": 82}, {"time": 2714, "pitch": 63, "duration": 3, "velocity": 83}, {"time": 2717, "pitch": 61, "duration": 2, "velocity": 84}, {"time": 2720, "pitch": 56, "duration": 4, "velocity": 82}, {"time": 2723, "pitch": 61, "duration": 1, "velocity": 84}, {"time": 2726, "pitch": 49, "duration": 23, "velocity": 98}, {"time": 2726, "pitch": 56, "duration": 2, "velocity": 83}, {"time": 2726, "pitch": 65, "duration": 5, "velocity": 86}, {"time": 2729, "pitch": 56, "duration": 3, "velocity": 78}, {"time": 2732, "pitch": 61, "duration": 3, "velocity": 77}, {"time": 2735, "pitch": 56, "duration": 1, "velocity": 83}, {"time": 2738, "pitch": 56, "duration": 1, "velocity": 88}, {"time": 2738, "pitch": 65, "duration": 5, "velocity": 83}, {"time": 2741, "pitch": 56, "duration": 1, "velocity": 85}, {"time": 2744, "pitch": 61, "duration": 3, "velocity": 89}, {"time": 2747, "pitch": 56, "duration": 2, "velocity": 85}, {"time": 2750, "pitch": 42, "duration": 21, "velocity": 83}, {"time": 2750, "pitch": 54, "duration": 2, "velocity": 82}, {"time": 2750, "pitch": 58, "duration": 4, "velocity": 82}, {"time": 2753, "pitch": 49, "duration": 15, "velocity": 64}, {"time": 2756, "pitch": 54, "duration": 4, "velocity": 82}, {"time": 2759, "pitch": 61, "duration": 2, "velocity": 79}, {"time": 2762, "pitch": 66, "duration": 4, "velocity": 87}, {"time": 2765, "pitch": 61, "duration": 3, "velocity": 82}, {"time": 2768, "pitch": 54, "duration": 8, "velocity": 82}, {"time": 2771, "pitch": 61, "duration": 10, "velocity": 77}, {"time": 2774, "pitch": 42, "duration": 15, "velocity": 83}, {"time": 2777, "pitch": 49, "duration": 11, "velocity": 74}, {"time": 2780, "pitch": 54, "duration": 9, "velocity": 82}, {"time": 2783, "pitch": 58, "duration": 2, "velocity": 76}, {"time": 2786, "pitch": 66, "duration": 5, "velocity": 89}, {"time": 2789, "pitch": 61, "duration": 4, "velocity": 84}, {"time": 2792, "pitch": 54, "duration": 3, "velocity": 84}, {"time": 2795, "pitch": 58, "duration": 1, "velocity": 75}, {"time": 2798, "pitch": 46, "duration": 17, "velocity": 83}, {"time": 2798, "pitch": 58, "duration": 3, "velocity": 72}, {"time": 2798, "pitch": 61, "duration": 3, "velocity": 76}, {"time": 2801, "pitch": 53, "duration": 14, "velocity": 76}, {"time": 2804, "pitch": 58, "duration": 4, "velocity": 82}, {"time": 2807, "pitch": 61, "duration": 4, "velocity": 73}, {"time": 2810, "pitch": 70, "duration": 3, "velocity": 87}, {"time": 2813, "pitch": 65, "duration": 3, "velocity": 83}, {"time": 2816, "pitch": 61, "duration": 3, "velocity": 87}, {"time": 2819, "pitch": 65, "duration": 9, "velocity": 86}, {"time": 2822, "pitch": 46, "duration": 12, "velocity": 87}, {"time": 2825, "pitch": 53, "duration": 9, "velocity": 75}, {"time": 2828, "pitch": 61, "duration": 2, "velocity": 81}, {"time": 2831, "pitch": 58, "duration": 4, "velocity": 84}, {"time": 2834, "pitch": 70, "duration": 3, "velocity": 86}, {"time": 2837, "pitch": 65, "duration": 3, "velocity": 83}, {"time": 2840, "pitch": 61, "duration": 2, "velocity": 83}, {"time": 2843, "pitch": 58, "duration": 2, "velocity": 83}, {"time": 2846, "pitch": 51, "duration": 14, "velocity": 86}, {"time": 2846, "pitch": 63, "duration": 3, "velocity": 86}, {"time": 2849, "pitch": 58, "duration": 3, "velocity": 83}, {"time": 2852, "pitch": 66, "duration": 3, "velocity": 79}, {"time": 2855, "pitch": 58, "duration": 3, "velocity": 77}, {"time": 2858, "pitch": 63, "duration": 2, "velocity": 79}, {"time": 2861, "pitch": 58, "duration": 3, "velocity": 82}, {"time": 2864, "pitch": 66, "duration": 3, "velocity": 75}, {"time": 2867, "pitch": 58, "duration": 3, "velocity": 75}, {"time": 2870, "pitch": 47, "duration": 16, "velocity": 86}, {"time": 2870, "pitch": 63, "duration": 6, "velocity": 82}, {"time": 2873, "pitch": 54, "duration": 12, "velocity": 75}, {"time": 2876, "pitch": 59, "duration": 3, "velocity": 82}, {"time": 2879, "pitch": 63, "duration": 2, "velocity": 81}, {"time": 2882, "pitch": 66, "duration": 3, "velocity": 88}, {"time": 2885, "pitch": 63, "duration": 3, "velocity": 82}, {"time": 2888, "pitch": 59, "duration": 4, "velocity": 76}, {"time": 2891, "pitch": 63, "duration": 4, "velocity": 81}, {"time": 2894, "pitch": 44, "duration": 21, "velocity": 83}, {"time": 2897, "pitch": 51, "duration": 18, "velocity": 79}, {"time": 2900, "pitch": 63, "duration": 3, "velocity": 82}, {"time": 2903, "pitch": 56, "duration": 3, "velocity": 82}, {"time": 2906, "pitch": 68, "duration": 3, "velocity": 85}, {"time": 2909, "pitch": 63, "duration": 3, "velocity": 82}, {"time": 2912, "pitch": 59, "duration": 3, "velocity": 79}, {"time": 2915, "pitch": 63, "duration": 9, "velocity": 82}, {"time": 2918, "pitch": 44, "duration": 22, "velocity": 83}, {"time": 2921, "pitch": 51, "duration": 19, "velocity": 74}, {"time": 2924, "pitch": 59, "duration": 2, "velocity": 82}, {"time": 2927, "pitch": 56, "duration": 2, "velocity": 83}, {"time": 2930, "pitch": 63, "duration": 3, "velocity": 86}, {"time": 2933, "pitch": 59, "duration": 3, "velocity": 86}, {"time": 2936, "pitch": 56, "duration": 3, "velocity": 85}, {"time": 2939, "pitch": 63, "duration": 4, "velocity": 82}, {"time": 2942, "pitch": 49, "duration": 21, "velocity": 96}, {"time": 2945, "pitch": 61, "duration": 3, "velocity": 82}, {"time": 2948, "pitch": 56, "duration": 4, "velocity": 83}, {"time": 2951, "pitch": 61, "duration": 1, "velocity": 82}, {"time": 2954, "pitch": 63, "duration": 3, "velocity": 83}, {"time": 2957, "pitch": 61, "duration": 2, "velocity": 84}, {"time": 2960, "pitch": 56, "duration": 4, "velocity": 82}, {"time": 2963, "pitch": 61, "duration": 1, "velocity": 84}, {"time": 2966, "pitch": 49, "duration": 23, "velocity": 98}, {"time": 2966, "pitch": 56, "duration": 2, "velocity": 83}, {"time": 2966, "pitch": 65, "duration": 5, "velocity": 86}, {"time": 2969, "pitch": 56, "duration": 3, "velocity": 78}, {"time": 2972, "pitch": 61, "duration": 3, "velocity": 77}, {"time": 2975, "pitch": 56, "duration": 1, "velocity": 83}, {"time": 2978, "pitch": 56, "duration": 1, "velocity": 88}, {"time": 2978, "pitch": 65, "duration": 5, "velocity": 83}, {"time": 2981, "pitch": 56, "duration": 1, "velocity": 85}, {"time": 2984, "pitch": 61, "duration": 3, "velocity": 89}, {"time": 2986, "pitch": 54, "duration": 3, "velocity": 73}, {"time": 2987, "pitch": 56, "duration": 2, "velocity": 85}, {"time": 2987, "pitch": 58, "duration": 3, "velocity": 75}, {"time": 2988, "pitch": 61, "duration": 3, "velocity": 70}, {"time": 2989, "pitch": 66, "duration": 3, "velocity": 80}, {"time": 2989, "pitch": 42, "duration": 43, "velocity": 83}, {"time": 2996, "pitch": 54, "duration": 5, "velocity": 59}, {"time": 3001, "pitch": 58, "duration": 2, "velocity": 71}, {"time": 3001, "pitch": 61, "duration": 2, "velocity": 74}, {"time": 3013, "pitch": 61, "duration": 2, "velocity": 77}, {"time": 3013, "pitch": 58, "duration": 1, "velocity": 69}, {"time": 3025, "pitch": 61, "duration": 2, "velocity": 76}, {"time": 3025, "pitch": 58, "duration": 1, "velocity": 61}, {"time": 3031, "pitch": 54, "duration": 18, "velocity": 68}, {"time": 3037, "pitch": 61, "duration": 9, "velocity": 68}, {"time": 3037, "pitch": 42, "duration": 42, "velocity": 72}, {"time": 3037, "pitch": 58, "duration": 8, "velocity": 59}, {"time": 3043, "pitch": 49, "duration": 35, "velocity": 57}, {"time": 3049, "pitch": 61, "duration": 2, "velocity": 50}, {"time": 3061, "pitch": 61, "duration": 3, "velocity": 59}, {"time": 3061, "pitch": 58, "duration": 3, "velocity": 59}, {"time": 3073, "pitch": 61, "duration": 3, "velocity": 66}, {"time": 3073, "pitch": 58, "duration": 3, "velocity": 67}, {"time": 3085, "pitch": 61, "duration": 5, "velocity": 63}, {"time": 3085, "pitch": 58, "duration": 5, "velocity": 65}, {"time": 3085, "pitch": 42, "duration": 21, "velocity": 65}, {"time": 3092, "pitch": 49, "duration": 12, "velocity": 39}, {"time": 3097, "pitch": 61, "duration": 6, "velocity": 56}, {"time": 3097, "pitch": 58, "duration": 5, "velocity": 51}, {"time": 3103, "pitch": 54, "duration": 8, "velocity": 60}, {"time": 3108, "pitch": 58, "duration": 5, "velocity": 46}, {"time": 3109, "pitch": 61, "duration": 4, "velocity": 60}, {"time": 3109, "pitch": 42, "duration": 5, "velocity": 58}, {"time": 3109, "pitch": 66, "duration": 4, "velocity": 59}], "annotations": [{"time": 23, "annotation": {"number": 64, "value": 127}, "group": "control_change"}, {"time": 23, "annotation": {"number": 64, "value": 0}, "group": "control_change"}, {"time": 61, "annotation": {"number": 64, "value": 0}, "group": "control_change"}, {"time": 68, "annotation": {"number": 64, "value": 127}, "group": "control_change"}, {"time": 108, "annotation": {"number": 64, "value": 0}, "group": "control_change"}, {"time": 115, "annotation": {"number": 64, "value": 127}, "group": "control_change"}, {"time": 158, "annotation": {"number": 64, "value": 0}, "group": "control_change"}, {"time": 162, "annotation": {"number": 64, "value": 127}, "group": "control_change"}, {"time": 204, "annotation": {"number": 64, "value": 0}, "group": "control_change"}, {"time": 207, "annotation": {"number": 64, "value": 127}, "group": "control_change"}, {"time": 251, "annotation": {"number": 64, "value": 0}, "group": "control_change"}, {"time": 253, "annotation": {"number": 64, "value": 127}, "group": "control_change"}, {"time": 275, "annotation": {"number": 64, "value": 0}, "group": "control_change"}, {"time": 277, "annotation": {"number": 64, "value": 127}, "group": "control_change"}, {"time": 300, "annotation": {"number": 64, "value": 0}, "group": "control_change"}, {"time": 303, "annotation": {"number": 64, "value": 127}, "group": "control_change"}, {"time": 325, "annotation": {"number": 64, "value": 0}, "group": "control_change"}, {"time": 327, "annotation": {"number": 64, "value": 127}, "group": "control_change"}, {"time": 347, "annotation": {"number": 64, "value": 0}, "group": "control_change"}, {"time": 350, "annotation": {"number": 64, "value": 127}, "group": "control_change"}, {"time": 372, "annotation": {"number": 64, "value": 0}, "group": "control_change"}, {"time": 374, "annotation": {"number": 64, "value": 127}, "group": "control_change"}, {"time": 396, "annotation": {"number": 64, "value": 0}, "group": "control_change"}, {"time": 398, "annotation": {"number": 64, "value": 127}, "group": "control_change"}, {"time": 398, "annotation": {"number": 64, "value": 0}, "group": "control_change"}, {"time": 399, "annotation": {"number": 64, "value": 127}, "group": "control_change"}, {"time": 445, "annotation": {"number": 64, "value": 0}, "group": "control_change"}, {"time": 447, "annotation": {"number": 64, "value": 127}, "group": "control_change"}, {"time": 492, "annotation": {"number": 64, "value": 0}, "group": "control_change"}, {"time": 495, "annotation": {"number": 64, "value": 127}, "group": "control_change"}, {"time": 540, "annotation": {"number": 64, "value": 0}, "group": "control_change"}, {"time": 543, "annotation": {"number": 64, "value": 127}, "group": "control_change"}, {"time": 588, "annotation": {"number": 64, "value": 0}, "group": "control_change"}, {"time": 589, "annotation": {"number": 64, "value": 127}, "group": "control_change"}, {"time": 637, "annotation": {"number": 64, "value": 0}, "group": "control_change"}, {"time": 639, "annotation": {"number": 64, "value": 127}, "group": "control_change"}, {"time": 684, "annotation": {"number": 64, "value": 0}, "group": "control_change"}, {"time": 686, "annotation": {"number": 64, "value": 127}, "group": "control_change"}, {"time": 733, "annotation": {"number": 64, "value": 0}, "group": "control_change"}, {"time": 735, "annotation": {"number": 64, "value": 127}, "group": "control_change"}, {"time": 779, "annotation": {"number": 64, "value": 0}, "group": "control_change"}, {"time": 783, "annotation": {"number": 64, "value": 127}, "group": "control_change"}, {"time": 804, "annotation": {"number": 64, "value": 0}, "group": "control_change"}, {"time": 807, "annotation": {"number": 64, "value": 127}, "group": "control_change"}, {"time": 829, "annotation": {"number": 64, "value": 0}, "group": "control_change"}, {"time": 834, "annotation": {"number": 64, "value": 127}, "group": "control_change"}, {"time": 852, "annotation": {"number": 64, "value": 0}, "group": "control_change"}, {"time": 855, "annotation": {"number": 64, "value": 127}, "group": "control_change"}, {"time": 875, "annotation": {"number": 64, "value": 0}, "group": "control_change"}, {"time": 877, "annotation": {"number": 64, "value": 127}, "group": "control_change"}, {"time": 899, "annotation": {"number": 64, "value": 0}, "group": "control_change"}, {"time": 901, "annotation": {"number": 64, "value": 127}, "group": "control_change"}, {"time": 923, "annotation": {"number": 64, "value": 0}, "group": "control_change"}, {"time": 925, "annotation": {"number": 64, "value": 127}, "group": "control_change"}, {"time": 947, "annotation": {"number": 64, "value": 0}, "group": "control_change"}, {"time": 949, "annotation": {"number": 64, "value": 127}, "group": "control_change"}, {"time": 969, "annotation": {"number": 64, "value": 0}, "group": "control_change"}, {"time": 974, "annotation": {"number": 64, "value": 127}, "group": "control_change"}, {"time": 996, "annotation": {"number": 64, "value": 0}, "group": "control_change"}, {"time": 998, "annotation": {"number": 64, "value": 127}, "group": "control_change"}, {"time": 1020, "annotation": {"number": 64, "value": 0}, "group": "control_change"}, {"time": 1022, "annotation": {"number": 64, "value": 127}, "group": "control_change"}, {"time": 1044, "annotation": {"number": 64, "value": 0}, "group": "control_change"}, {"time": 1046, "annotation": {"number": 64, "value": 127}, "group": "control_change"}, {"time": 1068, "annotation": {"number": 64, "value": 0}, "group": "control_change"}, {"time": 1070, "annotation": {"number": 64, "value": 127}, "group": "control_change"}, {"time": 1092, "annotation": {"number": 64, "value": 0}, "group": "control_change"}, {"time": 1093, "annotation": {"number": 64, "value": 127}, "group": "control_change"}, {"time": 1094, "annotation": {"number": 64, "value": 127}, "group": "control_change"}, {"time": 1116, "annotation": {"number": 64, "value": 0}, "group": "control_change"}, {"time": 1118, "annotation": {"number": 64, "value": 127}, "group": "control_change"}, {"time": 1139, "annotation": {"number": 64, "value": 0}, "group": "control_change"}, {"time": 1142, "annotation": {"number": 64, "value": 127}, "group": "control_change"}, {"time": 1163, "annotation": {"number": 64, "value": 0}, "group": "control_change"}, {"time": 1166, "annotation": {"number": 64, "value": 127}, "group": "control_change"}, {"time": 1187, "annotation": {"number": 64, "value": 0}, "group": "control_change"}, {"time": 1189, "annotation": {"number": 64, "value": 127}, "group": "control_change"}, {"time": 1209, "annotation": {"number": 64, "value": 0}, "group": "control_change"}, {"time": 1214, "annotation": {"number": 64, "value": 127}, "group": "control_change"}, {"time": 1236, "annotation": {"number": 64, "value": 0}, "group": "control_change"}, {"time": 1238, "annotation": {"number": 64, "value": 127}, "group": "control_change"}, {"time": 1260, "annotation": {"number": 64, "value": 0}, "group": "control_change"}, {"time": 1262, "annotation": {"number": 64, "value": 127}, "group": "control_change"}, {"time": 1284, "annotation": {"number": 64, "value": 0}, "group": "control_change"}, {"time": 1286, "annotation": {"number": 64, "value": 127}, "group": "control_change"}, {"time": 1308, "annotation": {"number": 64, "value": 0}, "group": "control_change"}, {"time": 1310, "annotation": {"number": 64, "value": 127}, "group": "control_change"}, {"time": 1332, "annotation": {"number": 64, "value": 0}, "group": "control_change"}, {"time": 1333, "annotation": {"number": 64, "value": 127}, "group": "control_change"}, {"time": 1334, "annotation": {"number": 64, "value": 127}, "group": "control_change"}, {"time": 1356, "annotation": {"number": 64, "value": 0}, "group": "control_change"}, {"time": 1358, "annotation": {"number": 64, "value": 127}, "group": "control_change"}, {"time": 1379, "annotation": {"number": 64, "value": 0}, "group": "control_change"}, {"time": 1382, "annotation": {"number": 64, "value": 127}, "group": "control_change"}, {"time": 1403, "annotation": {"number": 64, "value": 0}, "group": "control_change"}, {"time": 1406, "annotation": {"number": 64, "value": 127}, "group": "control_change"}, {"time": 1427, "annotation": {"number": 64, "value": 0}, "group": "control_change"}, {"time": 1429, "annotation": {"number": 64, "value": 127}, "group": "control_change"}, {"time": 1449, "annotation": {"number": 64, "value": 0}, "group": "control_change"}, {"time": 1452, "annotation": {"number": 64, "value": 127}, "group": "control_change"}, {"time": 1501, "annotation": {"number": 64, "value": 0}, "group": "control_change"}, {"time": 1502, "annotation": {"number": 64, "value": 127}, "group": "control_change"}, {"time": 1525, "annotation": {"number": 64, "value": 0}, "group": "control_change"}, {"time": 1525, "annotation": {"number": 64, "value": 127}, "group": "control_change"}, {"time": 1547, "annotation": {"number": 64, "value": 0}, "group": "control_change"}, {"time": 1549, "annotation": {"number": 64, "value": 127}, "group": "control_change"}, {"time": 1597, "annotation": {"number": 64, "value": 0}, "group": "control_change"}, {"time": 1599, "annotation": {"number": 64, "value": 127}, "group": "control_change"}, {"time": 1643, "annotation": {"number": 64, "value": 0}, "group": "control_change"}, {"time": 1693, "annotation": {"number": 64, "value": 0}, "group": "control_change"}, {"time": 1695, "annotation": {"number": 64, "value": 127}, "group": "control_change"}, {"time": 1740, "annotation": {"number": 64, "value": 0}, "group": "control_change"}, {"time": 1742, "annotation": {"number": 64, "value": 127}, "group": "control_change"}, {"time": 1789, "annotation": {"number": 64, "value": 0}, "group": "control_change"}, {"time": 1791, "annotation": {"number": 64, "value": 127}, "group": "control_change"}, {"time": 1835, "annotation": {"number": 64, "value": 0}, "group": "control_change"}, {"time": 1839, "annotation": {"number": 64, "value": 127}, "group": "control_change"}, {"time": 1860, "annotation": {"number": 64, "value": 0}, "group": "control_change"}, {"time": 1863, "annotation": {"number": 64, "value": 127}, "group": "control_change"}, {"time": 1885, "annotation": {"number": 64, "value": 0}, "group": "control_change"}, {"time": 1890, "annotation": {"number": 64, "value": 127}, "group": "control_change"}, {"time": 1908, "annotation": {"number": 64, "value": 0}, "group": "control_change"}, {"time": 1911, "annotation": {"number": 64, "value": 127}, "group": "control_change"}, {"time": 1931, "annotation": {"number": 64, "value": 0}, "group": "control_change"}, {"time": 1933, "annotation": {"number": 64, "value": 127}, "group": "control_change"}, {"time": 1955, "annotation": {"number": 64, "value": 0}, "group": "control_change"}, {"time": 1957, "annotation": {"number": 64, "value": 127}, "group": "control_change"}, {"time": 1979, "annotation": {"number": 64, "value": 0}, "group": "control_change"}, {"time": 1981, "annotation": {"number": 64, "value": 127}, "group": "control_change"}, {"time": 2003, "annotation": {"number": 64, "value": 0}, "group": "control_change"}, {"time": 2005, "annotation": {"number": 64, "value": 127}, "group": "control_change"}, {"time": 2025, "annotation": {"number": 64, "value": 0}, "group": "control_change"}, {"time": 2030, "annotation": {"number": 64, "value": 127}, "group": "control_change"}, {"time": 2052, "annotation": {"number": 64, "value": 0}, "group": "control_change"}, {"time": 2054, "annotation": {"number": 64, "value": 127}, "group": "control_change"}, {"time": 2076, "annotation": {"number": 64, "value": 0}, "group": "control_change"}, {"time": 2078, "annotation": {"number": 64, "value": 127}, "group": "control_change"}, {"time": 2100, "annotation": {"number": 64, "value": 0}, "group": "control_change"}, {"time": 2102, "annotation": {"number": 64, "value": 127}, "group": "control_change"}, {"time": 2124, "annotation": {"number": 64, "value": 0}, "group": "control_change"}, {"time": 2126, "annotation": {"number": 64, "value": 127}, "group": "control_change"}, {"time": 2148, "annotation": {"number": 64, "value": 0}, "group": "control_change"}, {"time": 2149, "annotation": {"number": 64, "value": 127}, "group": "control_change"}, {"time": 2150, "annotation": {"number": 64, "value": 127}, "group": "control_change"}, {"time": 2172, "annotation": {"number": 64, "value": 0}, "group": "control_change"}, {"time": 2174, "annotation": {"number": 64, "value": 127}, "group": "control_change"}, {"time": 2195, "annotation": {"number": 64, "value": 0}, "group": "control_change"}, {"time": 2198, "annotation": {"number": 64, "value": 127}, "group": "control_change"}, {"time": 2219, "annotation": {"number": 64, "value": 0}, "group": "control_change"}, {"time": 2222, "annotation": {"number": 64, "value": 127}, "group": "control_change"}, {"time": 2243, "annotation": {"number": 64, "value": 0}, "group": "control_change"}, {"time": 2245, "annotation": {"number": 64, "value": 127}, "group": "control_change"}, {"time": 2265, "annotation": {"number": 64, "value": 0}, "group": "control_change"}, {"time": 2270, "annotation": {"number": 64, "value": 127}, "group": "control_change"}, {"time": 2292, "annotation": {"number": 64, "value": 0}, "group": "control_change"}, {"time": 2294, "annotation": {"number": 64, "value": 127}, "group": "control_change"}, {"time": 2316, "annotation": {"number": 64, "value": 0}, "group": "control_change"}, {"time": 2318, "annotation": {"number": 64, "value": 127}, "group": "control_change"}, {"time": 2340, "annotation": {"number": 64, "value": 0}, "group": "control_change"}, {"time": 2342, "annotation": {"number": 64, "value": 127}, "group": "control_change"}, {"time": 2364, "annotation": {"number": 64, "value": 0}, "group": "control_change"}, {"time": 2366, "annotation": {"number": 64, "value": 127}, "group": "control_change"}, {"time": 2388, "annotation": {"number": 64, "value": 0}, "group": "control_change"}, {"time": 2389, "annotation": {"number": 64, "value": 127}, "group": "control_change"}, {"time": 2390, "annotation": {"number": 64, "value": 127}, "group": "control_change"}, {"time": 2412, "annotation": {"number": 64, "value": 0}, "group": "control_change"}, {"time": 2414, "annotation": {"number": 64, "value": 127}, "group": "control_change"}, {"time": 2435, "annotation": {"number": 64, "value": 0}, "group": "control_change"}, {"time": 2438, "annotation": {"number": 64, "value": 127}, "group": "control_change"}, {"time": 2459, "annotation": {"number": 64, "value": 0}, "group": "control_change"}, {"time": 2462, "annotation": {"number": 64, "value": 127}, "group": "control_change"}, {"time": 2483, "annotation": {"number": 64, "value": 0}, "group": "control_change"}, {"time": 2485, "annotation": {"number": 64, "value": 127}, "group": "control_change"}, {"time": 2505, "annotation": {"number": 64, "value": 0}, "group": "control_change"}, {"time": 2509, "annotation": {"number": 64, "value": 127}, "group": "control_change"}, {"time": 2543, "annotation": {"number": 64, "value": 0}, "group": "control_change"}, {"time": 2544, "annotation": {"number": 64, "value": 127}, "group": "control_change"}, {"time": 2556, "annotation": {"number": 64, "value": 0}, "group": "control_change"}, {"time": 2558, "annotation": {"number": 64, "value": 127}, "group": "control_change"}, {"time": 2579, "annotation": {"number": 64, "value": 0}, "group": "control_change"}, {"time": 2581, "annotation": {"number": 64, "value": 127}, "group": "control_change"}, {"time": 2604, "annotation": {"number": 64, "value": 0}, "group": "control_change"}, {"time": 2606, "annotation": {"number": 64, "value": 127}, "group": "control_change"}, {"time": 2628, "annotation": {"number": 64, "value": 0}, "group": "control_change"}, {"time": 2629, "annotation": {"number": 64, "value": 127}, "group": "control_change"}, {"time": 2630, "annotation": {"number": 64, "value": 127}, "group": "control_change"}, {"time": 2652, "annotation": {"number": 64, "value": 0}, "group": "control_change"}, {"time": 2654, "annotation": {"number": 64, "value": 127}, "group": "control_change"}, {"time": 2675, "annotation": {"number": 64, "value": 0}, "group": "control_change"}, {"time": 2678, "annotation": {"number": 64, "value": 127}, "group": "control_change"}, {"time": 2699, "annotation": {"number": 64, "value": 0}, "group": "control_change"}, {"time": 2702, "annotation": {"number": 64, "value": 127}, "group": "control_change"}, {"time": 2723, "annotation": {"number": 64, "value": 0}, "group": "control_change"}, {"time": 2725, "annotation": {"number": 64, "value": 127}, "group": "control_change"}, {"time": 2745, "annotation": {"number": 64, "value": 0}, "group": "control_change"}, {"time": 2750, "annotation": {"number": 64, "value": 127}, "group": "control_change"}, {"time": 2772, "annotation": {"number": 64, "value": 0}, "group": "control_change"}, {"time": 2774, "annotation": {"number": 64, "value": 127}, "group": "control_change"}, {"time": 2796, "annotation": {"number": 64, "value": 0}, "group": "control_change"}, {"time": 2798, "annotation": {"number": 64, "value": 127}, "group": "control_change"}, {"time": 2820, "annotation": {"number": 64, "value": 0}, "group": "control_change"}, {"time": 2822, "annotation": {"number": 64, "value": 127}, "group": "control_change"}, {"time": 2844, "annotation": {"number": 64, "value": 0}, "group": "control_change"}, {"time": 2846, "annotation": {"number": 64, "value": 127}, "group": "control_change"}, {"time": 2868, "annotation": {"number": 64, "value": 0}, "group": "control_change"}, {"time": 2869, "annotation": {"number": 64, "value": 127}, "group": "control_change"}, {"time": 2870, "annotation": {"number": 64, "value": 127}, "group": "control_change"}, {"time": 2892, "annotation": {"number": 64, "value": 0}, "group": "control_change"}, {"time": 2894, "annotation": {"number": 64, "value": 127}, "group": "control_change"}, {"time": 2915, "annotation": {"number": 64, "value": 0}, "group": "control_change"}, {"time": 2918, "annotation": {"number": 64, "value": 127}, "group": "control_change"}, {"time": 2939, "annotation": {"number": 64, "value": 0}, "group": "control_change"}, {"time": 2942, "annotation": {"number": 64, "value": 127}, "group": "control_change"}, {"time": 2963, "annotation": {"number": 64, "value": 0}, "group": "control_change"}, {"time": 2965, "annotation": {"number": 64, "value": 127}, "group": "control_change"}, {"time": 2985, "annotation": {"number": 64, "value": 0}, "group": "control_change"}, {"time": 2988, "annotation": {"number": 64, "value": 127}, "group": "control_change"}, {"time": 3037, "annotation": {"number": 64, "value": 0}, "group": "control_change"}, {"time": 3042, "annotation": {"number": 64, "value": 127}, "group": "control_change"}, {"time": 3084, "annotation": {"number": 64, "value": 0}, "group": "control_change"}, {"time": 3087, "annotation": {"number": 64, "value": 127}, "group": "control_change"}]}]}