{"metadata": {"schema_version": "0.2", "title": "None", "source_filename": "813.mid", "source_format": "midi"}, "resolution": 12, "tempos": [{"time": 0, "qpm": 69.00009660013524}], "time_signatures": [{"time": 0, "numerator": 1, "denominator": 4}], "tracks": [{"program": 0, "is_drum": false, "name": "MELODY", "notes": [{"time": 226, "pitch": 67, "duration": 3, "velocity": 83}, {"time": 229, "pitch": 70, "duration": 2, "velocity": 82}, {"time": 233, "pitch": 70, "duration": 3, "velocity": 84}, {"time": 237, "pitch": 70, "duration": 3, "velocity": 91}, {"time": 240, "pitch": 67, "duration": 4, "velocity": 82}, {"time": 244, "pitch": 74, "duration": 4, "velocity": 87}, {"time": 250, "pitch": 74, "duration": 2, "velocity": 84}, {"time": 254, "pitch": 74, "duration": 8, "velocity": 88}, {"time": 265, "pitch": 67, "duration": 3, "velocity": 82}, {"time": 268, "pitch": 70, "duration": 4, "velocity": 80}, {"time": 271, "pitch": 67, "duration": 9, "velocity": 74}, {"time": 322, "pitch": 67, "duration": 3, "velocity": 79}, {"time": 325, "pitch": 70, "duration": 2, "velocity": 78}, {"time": 329, "pitch": 70, "duration": 3, "velocity": 83}, {"time": 334, "pitch": 70, "duration": 3, "velocity": 83}, {"time": 337, "pitch": 74, "duration": 6, "velocity": 85}, {"time": 344, "pitch": 74, "duration": 3, "velocity": 84}, {"time": 349, "pitch": 74, "duration": 2, "velocity": 87}, {"time": 352, "pitch": 74, "duration": 5, "velocity": 86}, {"time": 358, "pitch": 70, "duration": 4, "velocity": 84}, {"time": 362, "pitch": 72, "duration": 17, "velocity": 77}, {"time": 406, "pitch": 65, "duration": 2, "velocity": 78}, {"time": 409, "pitch": 65, "duration": 2, "velocity": 81}, {"time": 413, "pitch": 67, "duration": 2, "velocity": 83}, {"time": 416, "pitch": 70, "duration": 3, "velocity": 79}, {"time": 420, "pitch": 70, "duration": 3, "velocity": 82}, {"time": 424, "pitch": 70, "duration": 3, "velocity": 83}, {"time": 428, "pitch": 70, "duration": 3, "velocity": 86}, {"time": 432, "pitch": 70, "duration": 2, "velocity": 85}, {"time": 435, "pitch": 74, "duration": 3, "velocity": 91}, {"time": 440, "pitch": 74, "duration": 2, "velocity": 86}, {"time": 444, "pitch": 74, "duration": 3, "velocity": 87}, {"time": 448, "pitch": 79, "duration": 3, "velocity": 85}, {"time": 452, "pitch": 79, "duration": 3, "velocity": 83}, {"time": 457, "pitch": 79, "duration": 2, "velocity": 84}, {"time": 460, "pitch": 77, "duration": 5, "velocity": 84}, {"time": 466, "pitch": 74, "duration": 2, "velocity": 86}, {"time": 469, "pitch": 74, "duration": 25, "velocity": 89}, {"time": 497, "pitch": 74, "duration": 3, "velocity": 93}, {"time": 501, "pitch": 72, "duration": 3, "velocity": 84}, {"time": 504, "pitch": 70, "duration": 4, "velocity": 83}, {"time": 508, "pitch": 67, "duration": 5, "velocity": 82}, {"time": 514, "pitch": 72, "duration": 2, "velocity": 83}, {"time": 518, "pitch": 72, "duration": 10, "velocity": 82}, {"time": 550, "pitch": 67, "duration": 3, "velocity": 80}, {"time": 552, "pitch": 70, "duration": 4, "velocity": 78}, {"time": 555, "pitch": 67, "duration": 18, "velocity": 83}, {"time": 610, "pitch": 67, "duration": 3, "velocity": 83}, {"time": 613, "pitch": 70, "duration": 2, "velocity": 82}, {"time": 617, "pitch": 70, "duration": 3, "velocity": 84}, {"time": 621, "pitch": 70, "duration": 3, "velocity": 91}, {"time": 624, "pitch": 67, "duration": 4, "velocity": 82}, {"time": 628, "pitch": 74, "duration": 4, "velocity": 87}, {"time": 634, "pitch": 74, "duration": 2, "velocity": 84}, {"time": 638, "pitch": 74, "duration": 8, "velocity": 88}, {"time": 649, "pitch": 67, "duration": 3, "velocity": 82}, {"time": 652, "pitch": 70, "duration": 4, "velocity": 80}, {"time": 655, "pitch": 67, "duration": 9, "velocity": 74}, {"time": 706, "pitch": 67, "duration": 3, "velocity": 79}, {"time": 709, "pitch": 70, "duration": 2, "velocity": 78}, {"time": 713, "pitch": 70, "duration": 3, "velocity": 83}, {"time": 718, "pitch": 70, "duration": 3, "velocity": 83}, {"time": 721, "pitch": 70, "duration": 4, "velocity": 83}, {"time": 724, "pitch": 74, "duration": 3, "velocity": 85}, {"time": 728, "pitch": 74, "duration": 3, "velocity": 84}, {"time": 733, "pitch": 67, "duration": 2, "velocity": 87}, {"time": 736, "pitch": 74, "duration": 5, "velocity": 86}, {"time": 742, "pitch": 70, "duration": 4, "velocity": 84}, {"time": 746, "pitch": 72, "duration": 17, "velocity": 77}, {"time": 790, "pitch": 65, "duration": 2, "velocity": 78}, {"time": 793, "pitch": 65, "duration": 2, "velocity": 81}, {"time": 797, "pitch": 67, "duration": 2, "velocity": 83}, {"time": 800, "pitch": 70, "duration": 3, "velocity": 79}, {"time": 804, "pitch": 70, "duration": 3, "velocity": 82}, {"time": 808, "pitch": 70, "duration": 3, "velocity": 83}, {"time": 812, "pitch": 70, "duration": 3, "velocity": 86}, {"time": 816, "pitch": 70, "duration": 2, "velocity": 85}, {"time": 819, "pitch": 74, "duration": 3, "velocity": 91}, {"time": 824, "pitch": 74, "duration": 2, "velocity": 86}, {"time": 828, "pitch": 74, "duration": 3, "velocity": 87}, {"time": 832, "pitch": 79, "duration": 3, "velocity": 85}, {"time": 836, "pitch": 79, "duration": 3, "velocity": 83}, {"time": 841, "pitch": 79, "duration": 2, "velocity": 84}, {"time": 844, "pitch": 77, "duration": 5, "velocity": 84}, {"time": 850, "pitch": 74, "duration": 2, "velocity": 86}, {"time": 853, "pitch": 74, "duration": 25, "velocity": 89}, {"time": 881, "pitch": 74, "duration": 3, "velocity": 93}, {"time": 885, "pitch": 72, "duration": 3, "velocity": 84}, {"time": 888, "pitch": 70, "duration": 4, "velocity": 83}, {"time": 892, "pitch": 67, "duration": 5, "velocity": 82}, {"time": 898, "pitch": 72, "duration": 2, "velocity": 83}, {"time": 902, "pitch": 72, "duration": 10, "velocity": 82}, {"time": 934, "pitch": 67, "duration": 3, "velocity": 80}, {"time": 936, "pitch": 70, "duration": 4, "velocity": 78}, {"time": 939, "pitch": 67, "duration": 18, "velocity": 83}, {"time": 970, "pitch": 67, "duration": 4, "velocity": 87}, {"time": 976, "pitch": 70, "duration": 4, "velocity": 91}, {"time": 982, "pitch": 74, "duration": 5, "velocity": 89}, {"time": 988, "pitch": 79, "duration": 28, "velocity": 83}, {"time": 1021, "pitch": 67, "duration": 2, "velocity": 79}, {"time": 1024, "pitch": 67, "duration": 6, "velocity": 82}, {"time": 1030, "pitch": 79, "duration": 3, "velocity": 80}, {"time": 1033, "pitch": 77, "duration": 28, "velocity": 86}, {"time": 1072, "pitch": 67, "duration": 4, "velocity": 88}, {"time": 1077, "pitch": 70, "duration": 6, "velocity": 87}, {"time": 1084, "pitch": 79, "duration": 15, "velocity": 88}, {"time": 1102, "pitch": 79, "duration": 2, "velocity": 86}, {"time": 1105, "pitch": 82, "duration": 2, "velocity": 84}, {"time": 1108, "pitch": 81, "duration": 6, "velocity": 87}, {"time": 1114, "pitch": 77, "duration": 2, "velocity": 83}, {"time": 1117, "pitch": 77, "duration": 9, "velocity": 84}, {"time": 1126, "pitch": 72, "duration": 5, "velocity": 75}, {"time": 1132, "pitch": 74, "duration": 29, "velocity": 88}, {"time": 1162, "pitch": 67, "duration": 4, "velocity": 71}, {"time": 1168, "pitch": 70, "duration": 5, "velocity": 84}, {"time": 1174, "pitch": 74, "duration": 6, "velocity": 86}, {"time": 1180, "pitch": 79, "duration": 23, "velocity": 83}, {"time": 1212, "pitch": 67, "duration": 3, "velocity": 82}, {"time": 1216, "pitch": 67, "duration": 5, "velocity": 83}, {"time": 1222, "pitch": 79, "duration": 2, "velocity": 83}, {"time": 1225, "pitch": 79, "duration": 9, "velocity": 84}, {"time": 1234, "pitch": 77, "duration": 12, "velocity": 83}, {"time": 1245, "pitch": 74, "duration": 15, "velocity": 86}, {"time": 1263, "pitch": 74, "duration": 4, "velocity": 89}, {"time": 1268, "pitch": 72, "duration": 4, "velocity": 83}, {"time": 1273, "pitch": 70, "duration": 3, "velocity": 83}, {"time": 1276, "pitch": 72, "duration": 26, "velocity": 83}, {"time": 1305, "pitch": 65, "duration": 2, "velocity": 80}, {"time": 1308, "pitch": 65, "duration": 3, "velocity": 82}, {"time": 1312, "pitch": 70, "duration": 5, "velocity": 86}, {"time": 1318, "pitch": 69, "duration": 3, "velocity": 82}, {"time": 1320, "pitch": 70, "duration": 4, "velocity": 80}, {"time": 1324, "pitch": 67, "duration": 46, "velocity": 78}, {"time": 1378, "pitch": 67, "duration": 3, "velocity": 83}, {"time": 1381, "pitch": 70, "duration": 2, "velocity": 82}, {"time": 1385, "pitch": 70, "duration": 3, "velocity": 84}, {"time": 1389, "pitch": 70, "duration": 3, "velocity": 91}, {"time": 1392, "pitch": 67, "duration": 4, "velocity": 82}, {"time": 1396, "pitch": 74, "duration": 4, "velocity": 87}, {"time": 1402, "pitch": 74, "duration": 2, "velocity": 84}, {"time": 1406, "pitch": 74, "duration": 8, "velocity": 88}, {"time": 1417, "pitch": 67, "duration": 3, "velocity": 82}, {"time": 1420, "pitch": 70, "duration": 4, "velocity": 80}, {"time": 1423, "pitch": 67, "duration": 9, "velocity": 74}, {"time": 1474, "pitch": 67, "duration": 3, "velocity": 79}, {"time": 1477, "pitch": 70, "duration": 2, "velocity": 78}, {"time": 1481, "pitch": 70, "duration": 3, "velocity": 83}, {"time": 1486, "pitch": 70, "duration": 3, "velocity": 83}, {"time": 1489, "pitch": 70, "duration": 4, "velocity": 83}, {"time": 1492, "pitch": 74, "duration": 3, "velocity": 85}, {"time": 1496, "pitch": 74, "duration": 3, "velocity": 84}, {"time": 1501, "pitch": 74, "duration": 2, "velocity": 87}, {"time": 1504, "pitch": 77, "duration": 5, "velocity": 86}, {"time": 1510, "pitch": 70, "duration": 4, "velocity": 84}, {"time": 1514, "pitch": 72, "duration": 17, "velocity": 77}, {"time": 1558, "pitch": 65, "duration": 2, "velocity": 78}, {"time": 1561, "pitch": 65, "duration": 2, "velocity": 81}, {"time": 1565, "pitch": 67, "duration": 2, "velocity": 83}, {"time": 1568, "pitch": 70, "duration": 3, "velocity": 79}, {"time": 1572, "pitch": 70, "duration": 3, "velocity": 82}, {"time": 1576, "pitch": 70, "duration": 3, "velocity": 83}, {"time": 1580, "pitch": 70, "duration": 3, "velocity": 86}, {"time": 1584, "pitch": 70, "duration": 2, "velocity": 85}, {"time": 1587, "pitch": 74, "duration": 3, "velocity": 91}, {"time": 1592, "pitch": 74, "duration": 2, "velocity": 86}, {"time": 1596, "pitch": 74, "duration": 3, "velocity": 87}, {"time": 1600, "pitch": 79, "duration": 3, "velocity": 85}, {"time": 1604, "pitch": 79, "duration": 3, "velocity": 83}, {"time": 1609, "pitch": 79, "duration": 2, "velocity": 84}, {"time": 1612, "pitch": 77, "duration": 5, "velocity": 84}, {"time": 1618, "pitch": 74, "duration": 2, "velocity": 86}, {"time": 1621, "pitch": 74, "duration": 25, "velocity": 89}, {"time": 1649, "pitch": 74, "duration": 3, "velocity": 93}, {"time": 1653, "pitch": 72, "duration": 3, "velocity": 84}, {"time": 1656, "pitch": 70, "duration": 4, "velocity": 83}, {"time": 1660, "pitch": 67, "duration": 5, "velocity": 82}, {"time": 1666, "pitch": 72, "duration": 2, "velocity": 83}, {"time": 1670, "pitch": 72, "duration": 10, "velocity": 82}, {"time": 1702, "pitch": 67, "duration": 3, "velocity": 80}, {"time": 1704, "pitch": 70, "duration": 4, "velocity": 78}, {"time": 1707, "pitch": 67, "duration": 18, "velocity": 83}, {"time": 1738, "pitch": 67, "duration": 4, "velocity": 87}, {"time": 1744, "pitch": 70, "duration": 4, "velocity": 91}, {"time": 1750, "pitch": 74, "duration": 5, "velocity": 89}, {"time": 1756, "pitch": 79, "duration": 28, "velocity": 83}, {"time": 1789, "pitch": 67, "duration": 2, "velocity": 79}, {"time": 1792, "pitch": 67, "duration": 6, "velocity": 82}, {"time": 1798, "pitch": 79, "duration": 3, "velocity": 80}, {"time": 1801, "pitch": 77, "duration": 28, "velocity": 86}, {"time": 1840, "pitch": 67, "duration": 4, "velocity": 88}, {"time": 1845, "pitch": 70, "duration": 6, "velocity": 87}, {"time": 1852, "pitch": 79, "duration": 15, "velocity": 88}, {"time": 1870, "pitch": 79, "duration": 2, "velocity": 86}, {"time": 1873, "pitch": 82, "duration": 2, "velocity": 84}, {"time": 1876, "pitch": 81, "duration": 6, "velocity": 87}, {"time": 1882, "pitch": 77, "duration": 2, "velocity": 83}, {"time": 1885, "pitch": 77, "duration": 9, "velocity": 84}, {"time": 1894, "pitch": 72, "duration": 5, "velocity": 75}, {"time": 1900, "pitch": 74, "duration": 29, "velocity": 88}, {"time": 1930, "pitch": 67, "duration": 4, "velocity": 71}, {"time": 1936, "pitch": 70, "duration": 5, "velocity": 84}, {"time": 1942, "pitch": 74, "duration": 6, "velocity": 86}, {"time": 1948, "pitch": 79, "duration": 23, "velocity": 83}, {"time": 1980, "pitch": 67, "duration": 3, "velocity": 82}, {"time": 1984, "pitch": 67, "duration": 5, "velocity": 83}, {"time": 1990, "pitch": 79, "duration": 2, "velocity": 83}, {"time": 1993, "pitch": 79, "duration": 9, "velocity": 84}, {"time": 2002, "pitch": 77, "duration": 12, "velocity": 83}, {"time": 2013, "pitch": 74, "duration": 15, "velocity": 86}, {"time": 2031, "pitch": 74, "duration": 4, "velocity": 89}, {"time": 2036, "pitch": 72, "duration": 4, "velocity": 83}, {"time": 2041, "pitch": 70, "duration": 3, "velocity": 83}, {"time": 2044, "pitch": 72, "duration": 26, "velocity": 83}, {"time": 2073, "pitch": 77, "duration": 2, "velocity": 80}, {"time": 2076, "pitch": 77, "duration": 3, "velocity": 82}, {"time": 2080, "pitch": 82, "duration": 5, "velocity": 86}, {"time": 2086, "pitch": 81, "duration": 3, "velocity": 82}, {"time": 2088, "pitch": 82, "duration": 4, "velocity": 80}, {"time": 2092, "pitch": 79, "duration": 46, "velocity": 78}, {"time": 2314, "pitch": 67, "duration": 4, "velocity": 87}, {"time": 2320, "pitch": 70, "duration": 4, "velocity": 91}, {"time": 2326, "pitch": 74, "duration": 5, "velocity": 89}, {"time": 2332, "pitch": 79, "duration": 28, "velocity": 83}, {"time": 2365, "pitch": 67, "duration": 2, "velocity": 79}, {"time": 2368, "pitch": 67, "duration": 6, "velocity": 82}, {"time": 2374, "pitch": 79, "duration": 3, "velocity": 80}, {"time": 2377, "pitch": 77, "duration": 28, "velocity": 86}, {"time": 2416, "pitch": 67, "duration": 4, "velocity": 88}, {"time": 2421, "pitch": 70, "duration": 6, "velocity": 87}, {"time": 2428, "pitch": 79, "duration": 15, "velocity": 88}, {"time": 2446, "pitch": 79, "duration": 2, "velocity": 86}, {"time": 2449, "pitch": 82, "duration": 2, "velocity": 84}, {"time": 2452, "pitch": 81, "duration": 6, "velocity": 87}, {"time": 2458, "pitch": 77, "duration": 2, "velocity": 83}, {"time": 2461, "pitch": 77, "duration": 9, "velocity": 84}, {"time": 2470, "pitch": 72, "duration": 5, "velocity": 75}, {"time": 2476, "pitch": 74, "duration": 29, "velocity": 88}, {"time": 2506, "pitch": 67, "duration": 4, "velocity": 71}, {"time": 2512, "pitch": 70, "duration": 5, "velocity": 84}, {"time": 2518, "pitch": 74, "duration": 6, "velocity": 86}, {"time": 2524, "pitch": 79, "duration": 23, "velocity": 83}, {"time": 2556, "pitch": 67, "duration": 3, "velocity": 82}, {"time": 2560, "pitch": 67, "duration": 5, "velocity": 83}, {"time": 2566, "pitch": 79, "duration": 2, "velocity": 83}, {"time": 2569, "pitch": 79, "duration": 9, "velocity": 84}, {"time": 2578, "pitch": 77, "duration": 12, "velocity": 83}, {"time": 2589, "pitch": 74, "duration": 15, "velocity": 86}, {"time": 2607, "pitch": 74, "duration": 4, "velocity": 89}, {"time": 2612, "pitch": 72, "duration": 4, "velocity": 83}, {"time": 2617, "pitch": 70, "duration": 3, "velocity": 83}, {"time": 2620, "pitch": 72, "duration": 26, "velocity": 83}, {"time": 2649, "pitch": 77, "duration": 2, "velocity": 80}, {"time": 2652, "pitch": 77, "duration": 3, "velocity": 82}, {"time": 2656, "pitch": 82, "duration": 5, "velocity": 86}, {"time": 2662, "pitch": 81, "duration": 3, "velocity": 82}, {"time": 2664, "pitch": 82, "duration": 4, "velocity": 80}, {"time": 2674, "pitch": 79, "duration": 21, "velocity": 78}, {"time": 2698, "pitch": 67, "duration": 4, "velocity": 87}, {"time": 2704, "pitch": 70, "duration": 4, "velocity": 91}, {"time": 2710, "pitch": 74, "duration": 5, "velocity": 89}, {"time": 2716, "pitch": 79, "duration": 28, "velocity": 83}, {"time": 2749, "pitch": 82, "duration": 2, "velocity": 79}, {"time": 2752, "pitch": 82, "duration": 6, "velocity": 82}, {"time": 2758, "pitch": 77, "duration": 3, "velocity": 80}, {"time": 2761, "pitch": 79, "duration": 8, "velocity": 86}, {"time": 2770, "pitch": 77, "duration": 18, "velocity": 97}, {"time": 2800, "pitch": 67, "duration": 4, "velocity": 88}, {"time": 2805, "pitch": 70, "duration": 6, "velocity": 87}, {"time": 2812, "pitch": 79, "duration": 15, "velocity": 88}, {"time": 2830, "pitch": 79, "duration": 2, "velocity": 86}, {"time": 2833, "pitch": 82, "duration": 2, "velocity": 84}, {"time": 2836, "pitch": 81, "duration": 6, "velocity": 87}, {"time": 2842, "pitch": 77, "duration": 2, "velocity": 83}, {"time": 2845, "pitch": 77, "duration": 9, "velocity": 84}, {"time": 2854, "pitch": 72, "duration": 5, "velocity": 75}, {"time": 2860, "pitch": 74, "duration": 3, "velocity": 88}, {"time": 2863, "pitch": 72, "duration": 4, "velocity": 97}, {"time": 2866, "pitch": 74, "duration": 14, "velocity": 97}, {"time": 2890, "pitch": 67, "duration": 4, "velocity": 71}, {"time": 2896, "pitch": 70, "duration": 5, "velocity": 84}, {"time": 2902, "pitch": 74, "duration": 6, "velocity": 86}, {"time": 2908, "pitch": 79, "duration": 23, "velocity": 83}, {"time": 2940, "pitch": 67, "duration": 3, "velocity": 82}, {"time": 2944, "pitch": 67, "duration": 5, "velocity": 83}, {"time": 2950, "pitch": 79, "duration": 2, "velocity": 83}, {"time": 2953, "pitch": 79, "duration": 9, "velocity": 84}, {"time": 2962, "pitch": 77, "duration": 12, "velocity": 83}, {"time": 2973, "pitch": 74, "duration": 15, "velocity": 86}, {"time": 2991, "pitch": 74, "duration": 4, "velocity": 89}, {"time": 2996, "pitch": 72, "duration": 4, "velocity": 83}, {"time": 3001, "pitch": 70, "duration": 3, "velocity": 83}, {"time": 3004, "pitch": 72, "duration": 26, "velocity": 83}, {"time": 3034, "pitch": 65, "duration": 2, "velocity": 84}, {"time": 3037, "pitch": 65, "duration": 3, "velocity": 84}, {"time": 3042, "pitch": 70, "duration": 6, "velocity": 82}, {"time": 3049, "pitch": 69, "duration": 23, "velocity": 83}, {"time": 3076, "pitch": 70, "duration": 13, "velocity": 83}, {"time": 3089, "pitch": 67, "duration": 38, "velocity": 79}]}, {"program": 0, "is_drum": false, "name": "PIANO", "notes": [{"time": 28, "pitch": 51, "duration": 13, "velocity": 71}, {"time": 31, "pitch": 58, "duration": 11, "velocity": 61}, {"time": 34, "pitch": 63, "duration": 8, "velocity": 82}, {"time": 37, "pitch": 70, "duration": 6, "velocity": 74}, {"time": 52, "pitch": 41, "duration": 15, "velocity": 71}, {"time": 52, "pitch": 69, "duration": 9, "velocity": 75}, {"time": 58, "pitch": 48, "duration": 8, "velocity": 67}, {"time": 61, "pitch": 65, "duration": 7, "velocity": 74}, {"time": 67, "pitch": 69, "duration": 2, "velocity": 75}, {"time": 76, "pitch": 43, "duration": 22, "velocity": 79}, {"time": 76, "pitch": 70, "duration": 6, "velocity": 82}, {"time": 79, "pitch": 50, "duration": 19, "velocity": 76}, {"time": 82, "pitch": 62, "duration": 5, "velocity": 73}, {"time": 85, "pitch": 70, "duration": 7, "velocity": 73}, {"time": 94, "pitch": 69, "duration": 2, "velocity": 66}, {"time": 97, "pitch": 70, "duration": 10, "velocity": 70}, {"time": 100, "pitch": 43, "duration": 16, "velocity": 72}, {"time": 100, "pitch": 67, "duration": 6, "velocity": 69}, {"time": 103, "pitch": 50, "duration": 12, "velocity": 73}, {"time": 106, "pitch": 62, "duration": 9, "velocity": 82}, {"time": 109, "pitch": 70, "duration": 9, "velocity": 83}, {"time": 124, "pitch": 51, "duration": 14, "velocity": 82}, {"time": 124, "pitch": 70, "duration": 6, "velocity": 73}, {"time": 127, "pitch": 58, "duration": 12, "velocity": 69}, {"time": 130, "pitch": 63, "duration": 9, "velocity": 72}, {"time": 133, "pitch": 70, "duration": 7, "velocity": 71}, {"time": 148, "pitch": 41, "duration": 19, "velocity": 80}, {"time": 148, "pitch": 69, "duration": 7, "velocity": 65}, {"time": 151, "pitch": 48, "duration": 15, "velocity": 69}, {"time": 154, "pitch": 60, "duration": 4, "velocity": 80}, {"time": 157, "pitch": 65, "duration": 7, "velocity": 83}, {"time": 163, "pitch": 69, "duration": 9, "velocity": 81}, {"time": 166, "pitch": 65, "duration": 6, "velocity": 74}, {"time": 172, "pitch": 43, "duration": 46, "velocity": 82}, {"time": 172, "pitch": 67, "duration": 24, "velocity": 76}, {"time": 178, "pitch": 50, "duration": 39, "velocity": 66}, {"time": 181, "pitch": 55, "duration": 6, "velocity": 83}, {"time": 187, "pitch": 62, "duration": 7, "velocity": 76}, {"time": 190, "pitch": 55, "duration": 30, "velocity": 82}, {"time": 196, "pitch": 62, "duration": 24, "velocity": 73}, {"time": 196, "pitch": 67, "duration": 24, "velocity": 73}, {"time": 220, "pitch": 43, "duration": 40, "velocity": 79}, {"time": 226, "pitch": 50, "duration": 32, "velocity": 57}, {"time": 232, "pitch": 62, "duration": 14, "velocity": 79}, {"time": 238, "pitch": 55, "duration": 7, "velocity": 74}, {"time": 244, "pitch": 67, "duration": 6, "velocity": 78}, {"time": 256, "pitch": 55, "duration": 3, "velocity": 70}, {"time": 256, "pitch": 62, "duration": 5, "velocity": 68}, {"time": 268, "pitch": 39, "duration": 25, "velocity": 76}, {"time": 268, "pitch": 58, "duration": 12, "velocity": 71}, {"time": 274, "pitch": 46, "duration": 20, "velocity": 48}, {"time": 280, "pitch": 55, "duration": 9, "velocity": 74}, {"time": 286, "pitch": 58, "duration": 6, "velocity": 55}, {"time": 292, "pitch": 58, "duration": 4, "velocity": 70}, {"time": 292, "pitch": 63, "duration": 4, "velocity": 72}, {"time": 304, "pitch": 41, "duration": 4, "velocity": 82}, {"time": 304, "pitch": 53, "duration": 4, "velocity": 75}, {"time": 304, "pitch": 57, "duration": 4, "velocity": 74}, {"time": 316, "pitch": 43, "duration": 20, "velocity": 82}, {"time": 316, "pitch": 55, "duration": 4, "velocity": 75}, {"time": 316, "pitch": 58, "duration": 9, "velocity": 70}, {"time": 319, "pitch": 50, "duration": 17, "velocity": 73}, {"time": 322, "pitch": 55, "duration": 19, "velocity": 77}, {"time": 325, "pitch": 62, "duration": 22, "velocity": 72}, {"time": 340, "pitch": 43, "duration": 17, "velocity": 73}, {"time": 340, "pitch": 67, "duration": 8, "velocity": 71}, {"time": 346, "pitch": 50, "duration": 9, "velocity": 62}, {"time": 352, "pitch": 58, "duration": 6, "velocity": 77}, {"time": 352, "pitch": 62, "duration": 6, "velocity": 77}, {"time": 358, "pitch": 55, "duration": 2, "velocity": 81}, {"time": 364, "pitch": 41, "duration": 41, "velocity": 77}, {"time": 364, "pitch": 53, "duration": 12, "velocity": 74}, {"time": 364, "pitch": 57, "duration": 13, "velocity": 69}, {"time": 370, "pitch": 48, "duration": 34, "velocity": 65}, {"time": 376, "pitch": 60, "duration": 4, "velocity": 77}, {"time": 379, "pitch": 53, "duration": 10, "velocity": 76}, {"time": 382, "pitch": 60, "duration": 9, "velocity": 76}, {"time": 388, "pitch": 65, "duration": 9, "velocity": 78}, {"time": 394, "pitch": 53, "duration": 5, "velocity": 64}, {"time": 400, "pitch": 57, "duration": 4, "velocity": 75}, {"time": 400, "pitch": 60, "duration": 5, "velocity": 78}, {"time": 412, "pitch": 39, "duration": 41, "velocity": 83}, {"time": 412, "pitch": 55, "duration": 12, "velocity": 75}, {"time": 412, "pitch": 58, "duration": 13, "velocity": 71}, {"time": 418, "pitch": 46, "duration": 35, "velocity": 62}, {"time": 424, "pitch": 63, "duration": 9, "velocity": 79}, {"time": 430, "pitch": 55, "duration": 7, "velocity": 67}, {"time": 436, "pitch": 58, "duration": 4, "velocity": 68}, {"time": 448, "pitch": 63, "duration": 4, "velocity": 84}, {"time": 451, "pitch": 58, "duration": 4, "velocity": 83}, {"time": 454, "pitch": 55, "duration": 2, "velocity": 83}, {"time": 460, "pitch": 46, "duration": 27, "velocity": 79}, {"time": 460, "pitch": 53, "duration": 3, "velocity": 73}, {"time": 460, "pitch": 58, "duration": 16, "velocity": 70}, {"time": 466, "pitch": 53, "duration": 6, "velocity": 52}, {"time": 472, "pitch": 62, "duration": 9, "velocity": 80}, {"time": 478, "pitch": 53, "duration": 6, "velocity": 66}, {"time": 484, "pitch": 58, "duration": 3, "velocity": 58}, {"time": 496, "pitch": 62, "duration": 6, "velocity": 86}, {"time": 499, "pitch": 46, "duration": 2, "velocity": 75}, {"time": 502, "pitch": 53, "duration": 4, "velocity": 80}, {"time": 505, "pitch": 58, "duration": 3, "velocity": 80}, {"time": 508, "pitch": 48, "duration": 15, "velocity": 80}, {"time": 508, "pitch": 60, "duration": 6, "velocity": 76}, {"time": 514, "pitch": 55, "duration": 7, "velocity": 71}, {"time": 520, "pitch": 63, "duration": 6, "velocity": 82}, {"time": 526, "pitch": 55, "duration": 2, "velocity": 82}, {"time": 532, "pitch": 41, "duration": 14, "velocity": 80}, {"time": 532, "pitch": 53, "duration": 9, "velocity": 74}, {"time": 532, "pitch": 57, "duration": 9, "velocity": 73}, {"time": 538, "pitch": 48, "duration": 8, "velocity": 70}, {"time": 544, "pitch": 53, "duration": 2, "velocity": 74}, {"time": 544, "pitch": 57, "duration": 3, "velocity": 73}, {"time": 556, "pitch": 43, "duration": 41, "velocity": 82}, {"time": 556, "pitch": 55, "duration": 13, "velocity": 72}, {"time": 556, "pitch": 62, "duration": 12, "velocity": 77}, {"time": 562, "pitch": 50, "duration": 10, "velocity": 65}, {"time": 568, "pitch": 58, "duration": 7, "velocity": 83}, {"time": 574, "pitch": 50, "duration": 22, "velocity": 64}, {"time": 580, "pitch": 67, "duration": 4, "velocity": 79}, {"time": 586, "pitch": 55, "duration": 2, "velocity": 27}, {"time": 592, "pitch": 58, "duration": 12, "velocity": 72}, {"time": 592, "pitch": 62, "duration": 13, "velocity": 79}, {"time": 598, "pitch": 55, "duration": 8, "velocity": 82}, {"time": 604, "pitch": 43, "duration": 22, "velocity": 84}, {"time": 607, "pitch": 50, "duration": 19, "velocity": 71}, {"time": 610, "pitch": 55, "duration": 5, "velocity": 82}, {"time": 613, "pitch": 62, "duration": 10, "velocity": 81}, {"time": 622, "pitch": 67, "duration": 7, "velocity": 75}, {"time": 625, "pitch": 55, "duration": 11, "velocity": 80}, {"time": 628, "pitch": 43, "duration": 16, "velocity": 82}, {"time": 628, "pitch": 62, "duration": 7, "velocity": 75}, {"time": 634, "pitch": 50, "duration": 9, "velocity": 63}, {"time": 640, "pitch": 55, "duration": 3, "velocity": 81}, {"time": 640, "pitch": 58, "duration": 7, "velocity": 82}, {"time": 646, "pitch": 55, "duration": 8, "velocity": 82}, {"time": 652, "pitch": 39, "duration": 22, "velocity": 74}, {"time": 652, "pitch": 58, "duration": 13, "velocity": 76}, {"time": 658, "pitch": 46, "duration": 17, "velocity": 68}, {"time": 664, "pitch": 63, "duration": 6, "velocity": 83}, {"time": 667, "pitch": 55, "duration": 6, "velocity": 74}, {"time": 670, "pitch": 58, "duration": 15, "velocity": 65}, {"time": 673, "pitch": 63, "duration": 13, "velocity": 70}, {"time": 676, "pitch": 39, "duration": 9, "velocity": 82}, {"time": 682, "pitch": 46, "duration": 3, "velocity": 68}, {"time": 685, "pitch": 55, "duration": 2, "velocity": 82}, {"time": 688, "pitch": 41, "duration": 7, "velocity": 82}, {"time": 688, "pitch": 53, "duration": 6, "velocity": 82}, {"time": 688, "pitch": 57, "duration": 13, "velocity": 83}, {"time": 700, "pitch": 43, "duration": 22, "velocity": 83}, {"time": 700, "pitch": 55, "duration": 10, "velocity": 82}, {"time": 700, "pitch": 58, "duration": 6, "velocity": 77}, {"time": 706, "pitch": 50, "duration": 16, "velocity": 65}, {"time": 712, "pitch": 62, "duration": 4, "velocity": 82}, {"time": 715, "pitch": 58, "duration": 4, "velocity": 77}, {"time": 718, "pitch": 55, "duration": 8, "velocity": 83}, {"time": 724, "pitch": 43, "duration": 18, "velocity": 78}, {"time": 724, "pitch": 58, "duration": 2, "velocity": 28}, {"time": 724, "pitch": 67, "duration": 9, "velocity": 81}, {"time": 730, "pitch": 50, "duration": 7, "velocity": 48}, {"time": 736, "pitch": 58, "duration": 7, "velocity": 82}, {"time": 736, "pitch": 62, "duration": 5, "velocity": 82}, {"time": 739, "pitch": 50, "duration": 3, "velocity": 73}, {"time": 742, "pitch": 55, "duration": 3, "velocity": 85}, {"time": 748, "pitch": 41, "duration": 22, "velocity": 81}, {"time": 748, "pitch": 53, "duration": 12, "velocity": 78}, {"time": 748, "pitch": 57, "duration": 12, "velocity": 70}, {"time": 754, "pitch": 48, "duration": 16, "velocity": 53}, {"time": 760, "pitch": 60, "duration": 4, "velocity": 79}, {"time": 763, "pitch": 53, "duration": 4, "velocity": 72}, {"time": 766, "pitch": 60, "duration": 11, "velocity": 76}, {"time": 769, "pitch": 53, "duration": 4, "velocity": 80}, {"time": 772, "pitch": 41, "duration": 15, "velocity": 82}, {"time": 772, "pitch": 65, "duration": 9, "velocity": 82}, {"time": 778, "pitch": 48, "duration": 8, "velocity": 66}, {"time": 784, "pitch": 57, "duration": 2, "velocity": 79}, {"time": 784, "pitch": 60, "duration": 6, "velocity": 82}, {"time": 790, "pitch": 53, "duration": 2, "velocity": 82}, {"time": 796, "pitch": 39, "duration": 21, "velocity": 81}, {"time": 796, "pitch": 55, "duration": 11, "velocity": 77}, {"time": 796, "pitch": 58, "duration": 12, "velocity": 69}, {"time": 802, "pitch": 46, "duration": 16, "velocity": 65}, {"time": 808, "pitch": 63, "duration": 4, "velocity": 87}, {"time": 811, "pitch": 55, "duration": 10, "velocity": 75}, {"time": 814, "pitch": 58, "duration": 11, "velocity": 78}, {"time": 817, "pitch": 63, "duration": 5, "velocity": 80}, {"time": 820, "pitch": 39, "duration": 12, "velocity": 83}, {"time": 820, "pitch": 67, "duration": 10, "velocity": 80}, {"time": 826, "pitch": 46, "duration": 7, "velocity": 61}, {"time": 832, "pitch": 58, "duration": 6, "velocity": 82}, {"time": 832, "pitch": 63, "duration": 6, "velocity": 79}, {"time": 838, "pitch": 55, "duration": 3, "velocity": 78}, {"time": 844, "pitch": 46, "duration": 23, "velocity": 73}, {"time": 844, "pitch": 58, "duration": 14, "velocity": 76}, {"time": 850, "pitch": 53, "duration": 6, "velocity": 73}, {"time": 856, "pitch": 65, "duration": 13, "velocity": 79}, {"time": 859, "pitch": 53, "duration": 5, "velocity": 83}, {"time": 862, "pitch": 58, "duration": 7, "velocity": 81}, {"time": 868, "pitch": 46, "duration": 14, "velocity": 71}, {"time": 868, "pitch": 62, "duration": 10, "velocity": 75}, {"time": 874, "pitch": 53, "duration": 4, "velocity": 71}, {"time": 880, "pitch": 53, "duration": 3, "velocity": 83}, {"time": 880, "pitch": 58, "duration": 3, "velocity": 78}, {"time": 892, "pitch": 48, "duration": 19, "velocity": 81}, {"time": 892, "pitch": 55, "duration": 4, "velocity": 76}, {"time": 892, "pitch": 60, "duration": 10, "velocity": 78}, {"time": 898, "pitch": 55, "duration": 7, "velocity": 72}, {"time": 904, "pitch": 63, "duration": 7, "velocity": 86}, {"time": 910, "pitch": 55, "duration": 3, "velocity": 83}, {"time": 916, "pitch": 41, "duration": 18, "velocity": 82}, {"time": 916, "pitch": 53, "duration": 6, "velocity": 73}, {"time": 916, "pitch": 57, "duration": 10, "velocity": 75}, {"time": 922, "pitch": 48, "duration": 12, "velocity": 67}, {"time": 925, "pitch": 60, "duration": 4, "velocity": 80}, {"time": 928, "pitch": 65, "duration": 8, "velocity": 84}, {"time": 931, "pitch": 53, "duration": 4, "velocity": 82}, {"time": 934, "pitch": 57, "duration": 2, "velocity": 76}, {"time": 940, "pitch": 43, "duration": 21, "velocity": 82}, {"time": 940, "pitch": 55, "duration": 12, "velocity": 76}, {"time": 940, "pitch": 58, "duration": 13, "velocity": 72}, {"time": 946, "pitch": 50, "duration": 14, "velocity": 65}, {"time": 952, "pitch": 62, "duration": 6, "velocity": 83}, {"time": 958, "pitch": 55, "duration": 4, "velocity": 71}, {"time": 964, "pitch": 43, "duration": 16, "velocity": 84}, {"time": 964, "pitch": 55, "duration": 6, "velocity": 83}, {"time": 964, "pitch": 58, "duration": 7, "velocity": 79}, {"time": 964, "pitch": 62, "duration": 7, "velocity": 83}, {"time": 970, "pitch": 50, "duration": 8, "velocity": 70}, {"time": 973, "pitch": 55, "duration": 2, "velocity": 75}, {"time": 976, "pitch": 55, "duration": 3, "velocity": 88}, {"time": 976, "pitch": 58, "duration": 4, "velocity": 89}, {"time": 976, "pitch": 62, "duration": 4, "velocity": 87}, {"time": 976, "pitch": 67, "duration": 4, "velocity": 82}, {"time": 979, "pitch": 50, "duration": 2, "velocity": 87}, {"time": 982, "pitch": 43, "duration": 2, "velocity": 84}, {"time": 988, "pitch": 39, "duration": 19, "velocity": 86}, {"time": 988, "pitch": 58, "duration": 4, "velocity": 83}, {"time": 988, "pitch": 63, "duration": 4, "velocity": 84}, {"time": 994, "pitch": 46, "duration": 15, "velocity": 67}, {"time": 997, "pitch": 51, "duration": 6, "velocity": 83}, {"time": 1000, "pitch": 55, "duration": 4, "velocity": 78}, {"time": 1003, "pitch": 63, "duration": 6, "velocity": 83}, {"time": 1006, "pitch": 51, "duration": 5, "velocity": 86}, {"time": 1009, "pitch": 55, "duration": 7, "velocity": 77}, {"time": 1012, "pitch": 39, "duration": 11, "velocity": 87}, {"time": 1012, "pitch": 63, "duration": 9, "velocity": 77}, {"time": 1015, "pitch": 46, "duration": 11, "velocity": 63}, {"time": 1018, "pitch": 51, "duration": 5, "velocity": 84}, {"time": 1021, "pitch": 55, "duration": 2, "velocity": 76}, {"time": 1024, "pitch": 51, "duration": 1, "velocity": 76}, {"time": 1024, "pitch": 55, "duration": 6, "velocity": 82}, {"time": 1024, "pitch": 63, "duration": 7, "velocity": 88}, {"time": 1030, "pitch": 51, "duration": 1, "velocity": 82}, {"time": 1036, "pitch": 46, "duration": 9, "velocity": 83}, {"time": 1036, "pitch": 53, "duration": 3, "velocity": 80}, {"time": 1036, "pitch": 58, "duration": 7, "velocity": 76}, {"time": 1042, "pitch": 53, "duration": 7, "velocity": 70}, {"time": 1048, "pitch": 58, "duration": 7, "velocity": 83}, {"time": 1048, "pitch": 62, "duration": 6, "velocity": 83}, {"time": 1054, "pitch": 53, "duration": 5, "velocity": 74}, {"time": 1060, "pitch": 46, "duration": 14, "velocity": 84}, {"time": 1060, "pitch": 53, "duration": 2, "velocity": 78}, {"time": 1060, "pitch": 58, "duration": 4, "velocity": 74}, {"time": 1063, "pitch": 53, "duration": 4, "velocity": 74}, {"time": 1066, "pitch": 58, "duration": 4, "velocity": 71}, {"time": 1072, "pitch": 53, "duration": 3, "velocity": 84}, {"time": 1072, "pitch": 58, "duration": 5, "velocity": 82}, {"time": 1072, "pitch": 62, "duration": 7, "velocity": 82}, {"time": 1075, "pitch": 46, "duration": 1, "velocity": 82}, {"time": 1078, "pitch": 53, "duration": 2, "velocity": 85}, {"time": 1084, "pitch": 39, "duration": 15, "velocity": 83}, {"time": 1084, "pitch": 55, "duration": 7, "velocity": 82}, {"time": 1084, "pitch": 58, "duration": 7, "velocity": 75}, {"time": 1090, "pitch": 46, "duration": 9, "velocity": 70}, {"time": 1096, "pitch": 63, "duration": 4, "velocity": 91}, {"time": 1099, "pitch": 55, "duration": 6, "velocity": 84}, {"time": 1102, "pitch": 58, "duration": 4, "velocity": 89}, {"time": 1105, "pitch": 63, "duration": 2, "velocity": 82}, {"time": 1108, "pitch": 41, "duration": 19, "velocity": 82}, {"time": 1108, "pitch": 53, "duration": 3, "velocity": 78}, {"time": 1108, "pitch": 57, "duration": 7, "velocity": 81}, {"time": 1111, "pitch": 48, "duration": 15, "velocity": 76}, {"time": 1114, "pitch": 53, "duration": 6, "velocity": 84}, {"time": 1117, "pitch": 60, "duration": 4, "velocity": 82}, {"time": 1120, "pitch": 65, "duration": 5, "velocity": 86}, {"time": 1123, "pitch": 60, "duration": 4, "velocity": 83}, {"time": 1126, "pitch": 53, "duration": 3, "velocity": 82}, {"time": 1132, "pitch": 46, "duration": 20, "velocity": 83}, {"time": 1132, "pitch": 53, "duration": 3, "velocity": 81}, {"time": 1132, "pitch": 58, "duration": 7, "velocity": 78}, {"time": 1138, "pitch": 53, "duration": 3, "velocity": 62}, {"time": 1144, "pitch": 53, "duration": 2, "velocity": 84}, {"time": 1144, "pitch": 62, "duration": 8, "velocity": 84}, {"time": 1150, "pitch": 53, "duration": 1, "velocity": 73}, {"time": 1153, "pitch": 58, "duration": 2, "velocity": 80}, {"time": 1156, "pitch": 46, "duration": 10, "velocity": 91}, {"time": 1156, "pitch": 53, "duration": 2, "velocity": 80}, {"time": 1156, "pitch": 58, "duration": 6, "velocity": 83}, {"time": 1156, "pitch": 62, "duration": 7, "velocity": 82}, {"time": 1165, "pitch": 53, "duration": 2, "velocity": 83}, {"time": 1168, "pitch": 46, "duration": 7, "velocity": 89}, {"time": 1168, "pitch": 53, "duration": 4, "velocity": 89}, {"time": 1168, "pitch": 58, "duration": 7, "velocity": 88}, {"time": 1174, "pitch": 57, "duration": 3, "velocity": 91}, {"time": 1180, "pitch": 39, "duration": 16, "velocity": 96}, {"time": 1180, "pitch": 55, "duration": 5, "velocity": 82}, {"time": 1180, "pitch": 58, "duration": 5, "velocity": 80}, {"time": 1186, "pitch": 46, "duration": 7, "velocity": 71}, {"time": 1192, "pitch": 55, "duration": 2, "velocity": 89}, {"time": 1192, "pitch": 63, "duration": 7, "velocity": 85}, {"time": 1195, "pitch": 46, "duration": 7, "velocity": 77}, {"time": 1198, "pitch": 55, "duration": 9, "velocity": 79}, {"time": 1201, "pitch": 58, "duration": 10, "velocity": 81}, {"time": 1204, "pitch": 39, "duration": 15, "velocity": 83}, {"time": 1207, "pitch": 46, "duration": 10, "velocity": 72}, {"time": 1210, "pitch": 55, "duration": 4, "velocity": 82}, {"time": 1213, "pitch": 58, "duration": 2, "velocity": 93}, {"time": 1216, "pitch": 55, "duration": 5, "velocity": 85}, {"time": 1216, "pitch": 58, "duration": 5, "velocity": 89}, {"time": 1216, "pitch": 63, "duration": 5, "velocity": 88}, {"time": 1219, "pitch": 46, "duration": 2, "velocity": 72}, {"time": 1222, "pitch": 39, "duration": 2, "velocity": 87}, {"time": 1228, "pitch": 38, "duration": 13, "velocity": 84}, {"time": 1228, "pitch": 53, "duration": 6, "velocity": 72}, {"time": 1228, "pitch": 57, "duration": 7, "velocity": 76}, {"time": 1234, "pitch": 45, "duration": 7, "velocity": 66}, {"time": 1237, "pitch": 53, "duration": 1, "velocity": 83}, {"time": 1240, "pitch": 53, "duration": 2, "velocity": 89}, {"time": 1240, "pitch": 57, "duration": 2, "velocity": 91}, {"time": 1246, "pitch": 43, "duration": 25, "velocity": 84}, {"time": 1246, "pitch": 55, "duration": 16, "velocity": 78}, {"time": 1246, "pitch": 58, "duration": 16, "velocity": 84}, {"time": 1258, "pitch": 50, "duration": 7, "velocity": 85}, {"time": 1261, "pitch": 62, "duration": 2, "velocity": 80}, {"time": 1264, "pitch": 55, "duration": 3, "velocity": 73}, {"time": 1264, "pitch": 58, "duration": 4, "velocity": 71}, {"time": 1264, "pitch": 62, "duration": 4, "velocity": 74}, {"time": 1264, "pitch": 67, "duration": 6, "velocity": 86}, {"time": 1267, "pitch": 50, "duration": 4, "velocity": 81}, {"time": 1270, "pitch": 55, "duration": 5, "velocity": 83}, {"time": 1276, "pitch": 48, "duration": 18, "velocity": 81}, {"time": 1276, "pitch": 55, "duration": 4, "velocity": 79}, {"time": 1276, "pitch": 60, "duration": 7, "velocity": 83}, {"time": 1276, "pitch": 63, "duration": 9, "velocity": 82}, {"time": 1282, "pitch": 55, "duration": 3, "velocity": 74}, {"time": 1288, "pitch": 60, "duration": 2, "velocity": 84}, {"time": 1294, "pitch": 58, "duration": 6, "velocity": 75}, {"time": 1300, "pitch": 41, "duration": 19, "velocity": 82}, {"time": 1300, "pitch": 53, "duration": 4, "velocity": 73}, {"time": 1300, "pitch": 57, "duration": 7, "velocity": 78}, {"time": 1303, "pitch": 48, "duration": 8, "velocity": 78}, {"time": 1306, "pitch": 60, "duration": 4, "velocity": 78}, {"time": 1309, "pitch": 65, "duration": 10, "velocity": 84}, {"time": 1312, "pitch": 48, "duration": 7, "velocity": 67}, {"time": 1315, "pitch": 60, "duration": 4, "velocity": 82}, {"time": 1318, "pitch": 53, "duration": 1, "velocity": 82}, {"time": 1324, "pitch": 43, "duration": 47, "velocity": 82}, {"time": 1324, "pitch": 55, "duration": 13, "velocity": 78}, {"time": 1324, "pitch": 58, "duration": 13, "velocity": 67}, {"time": 1330, "pitch": 50, "duration": 20, "velocity": 62}, {"time": 1336, "pitch": 62, "duration": 9, "velocity": 79}, {"time": 1342, "pitch": 55, "duration": 7, "velocity": 76}, {"time": 1348, "pitch": 67, "duration": 6, "velocity": 82}, {"time": 1354, "pitch": 50, "duration": 7, "velocity": 74}, {"time": 1354, "pitch": 55, "duration": 2, "velocity": 70}, {"time": 1360, "pitch": 55, "duration": 4, "velocity": 82}, {"time": 1360, "pitch": 58, "duration": 4, "velocity": 85}, {"time": 1363, "pitch": 50, "duration": 7, "velocity": 66}, {"time": 1366, "pitch": 57, "duration": 4, "velocity": 65}, {"time": 1369, "pitch": 58, "duration": 3, "velocity": 71}, {"time": 1372, "pitch": 43, "duration": 22, "velocity": 84}, {"time": 1375, "pitch": 50, "duration": 19, "velocity": 71}, {"time": 1378, "pitch": 55, "duration": 5, "velocity": 82}, {"time": 1381, "pitch": 62, "duration": 10, "velocity": 81}, {"time": 1390, "pitch": 67, "duration": 7, "velocity": 75}, {"time": 1393, "pitch": 55, "duration": 11, "velocity": 80}, {"time": 1396, "pitch": 43, "duration": 16, "velocity": 82}, {"time": 1396, "pitch": 62, "duration": 7, "velocity": 75}, {"time": 1402, "pitch": 50, "duration": 9, "velocity": 63}, {"time": 1408, "pitch": 55, "duration": 3, "velocity": 81}, {"time": 1408, "pitch": 58, "duration": 7, "velocity": 82}, {"time": 1414, "pitch": 55, "duration": 8, "velocity": 82}, {"time": 1420, "pitch": 39, "duration": 22, "velocity": 74}, {"time": 1420, "pitch": 58, "duration": 13, "velocity": 76}, {"time": 1426, "pitch": 46, "duration": 17, "velocity": 68}, {"time": 1432, "pitch": 63, "duration": 6, "velocity": 83}, {"time": 1435, "pitch": 55, "duration": 6, "velocity": 74}, {"time": 1438, "pitch": 58, "duration": 15, "velocity": 65}, {"time": 1441, "pitch": 63, "duration": 13, "velocity": 70}, {"time": 1444, "pitch": 39, "duration": 9, "velocity": 82}, {"time": 1450, "pitch": 46, "duration": 3, "velocity": 68}, {"time": 1453, "pitch": 55, "duration": 2, "velocity": 82}, {"time": 1456, "pitch": 41, "duration": 7, "velocity": 82}, {"time": 1456, "pitch": 53, "duration": 6, "velocity": 82}, {"time": 1456, "pitch": 57, "duration": 13, "velocity": 83}, {"time": 1468, "pitch": 43, "duration": 22, "velocity": 83}, {"time": 1468, "pitch": 55, "duration": 10, "velocity": 82}, {"time": 1468, "pitch": 58, "duration": 6, "velocity": 77}, {"time": 1474, "pitch": 50, "duration": 16, "velocity": 65}, {"time": 1480, "pitch": 62, "duration": 4, "velocity": 82}, {"time": 1483, "pitch": 58, "duration": 4, "velocity": 77}, {"time": 1486, "pitch": 55, "duration": 8, "velocity": 83}, {"time": 1492, "pitch": 43, "duration": 18, "velocity": 78}, {"time": 1492, "pitch": 58, "duration": 2, "velocity": 28}, {"time": 1492, "pitch": 67, "duration": 9, "velocity": 81}, {"time": 1498, "pitch": 50, "duration": 7, "velocity": 48}, {"time": 1504, "pitch": 58, "duration": 7, "velocity": 82}, {"time": 1504, "pitch": 62, "duration": 5, "velocity": 82}, {"time": 1507, "pitch": 50, "duration": 3, "velocity": 73}, {"time": 1510, "pitch": 55, "duration": 3, "velocity": 85}, {"time": 1516, "pitch": 41, "duration": 22, "velocity": 81}, {"time": 1516, "pitch": 53, "duration": 12, "velocity": 78}, {"time": 1516, "pitch": 57, "duration": 12, "velocity": 70}, {"time": 1522, "pitch": 48, "duration": 16, "velocity": 53}, {"time": 1528, "pitch": 60, "duration": 4, "velocity": 79}, {"time": 1531, "pitch": 53, "duration": 4, "velocity": 72}, {"time": 1534, "pitch": 60, "duration": 11, "velocity": 76}, {"time": 1537, "pitch": 53, "duration": 4, "velocity": 80}, {"time": 1540, "pitch": 41, "duration": 15, "velocity": 82}, {"time": 1540, "pitch": 65, "duration": 9, "velocity": 82}, {"time": 1546, "pitch": 48, "duration": 8, "velocity": 66}, {"time": 1552, "pitch": 57, "duration": 2, "velocity": 79}, {"time": 1552, "pitch": 60, "duration": 6, "velocity": 82}, {"time": 1558, "pitch": 53, "duration": 2, "velocity": 82}, {"time": 1564, "pitch": 39, "duration": 21, "velocity": 81}, {"time": 1564, "pitch": 55, "duration": 11, "velocity": 77}, {"time": 1564, "pitch": 58, "duration": 12, "velocity": 69}, {"time": 1570, "pitch": 46, "duration": 16, "velocity": 65}, {"time": 1576, "pitch": 63, "duration": 4, "velocity": 87}, {"time": 1579, "pitch": 55, "duration": 10, "velocity": 75}, {"time": 1582, "pitch": 58, "duration": 11, "velocity": 78}, {"time": 1585, "pitch": 63, "duration": 5, "velocity": 80}, {"time": 1588, "pitch": 39, "duration": 12, "velocity": 83}, {"time": 1588, "pitch": 67, "duration": 10, "velocity": 80}, {"time": 1594, "pitch": 46, "duration": 7, "velocity": 61}, {"time": 1600, "pitch": 58, "duration": 6, "velocity": 82}, {"time": 1600, "pitch": 63, "duration": 6, "velocity": 79}, {"time": 1606, "pitch": 55, "duration": 3, "velocity": 78}, {"time": 1612, "pitch": 46, "duration": 23, "velocity": 73}, {"time": 1612, "pitch": 58, "duration": 14, "velocity": 76}, {"time": 1618, "pitch": 53, "duration": 6, "velocity": 73}, {"time": 1624, "pitch": 65, "duration": 13, "velocity": 79}, {"time": 1627, "pitch": 53, "duration": 5, "velocity": 83}, {"time": 1630, "pitch": 58, "duration": 7, "velocity": 81}, {"time": 1636, "pitch": 46, "duration": 14, "velocity": 71}, {"time": 1636, "pitch": 62, "duration": 10, "velocity": 75}, {"time": 1642, "pitch": 53, "duration": 4, "velocity": 71}, {"time": 1648, "pitch": 53, "duration": 3, "velocity": 83}, {"time": 1648, "pitch": 58, "duration": 3, "velocity": 78}, {"time": 1660, "pitch": 48, "duration": 19, "velocity": 81}, {"time": 1660, "pitch": 55, "duration": 4, "velocity": 76}, {"time": 1660, "pitch": 60, "duration": 10, "velocity": 78}, {"time": 1666, "pitch": 55, "duration": 7, "velocity": 72}, {"time": 1672, "pitch": 63, "duration": 7, "velocity": 86}, {"time": 1678, "pitch": 55, "duration": 3, "velocity": 83}, {"time": 1684, "pitch": 41, "duration": 18, "velocity": 82}, {"time": 1684, "pitch": 53, "duration": 6, "velocity": 73}, {"time": 1684, "pitch": 57, "duration": 10, "velocity": 75}, {"time": 1690, "pitch": 48, "duration": 12, "velocity": 67}, {"time": 1693, "pitch": 60, "duration": 4, "velocity": 80}, {"time": 1696, "pitch": 65, "duration": 8, "velocity": 84}, {"time": 1699, "pitch": 53, "duration": 4, "velocity": 82}, {"time": 1702, "pitch": 57, "duration": 2, "velocity": 76}, {"time": 1708, "pitch": 43, "duration": 21, "velocity": 82}, {"time": 1708, "pitch": 55, "duration": 12, "velocity": 76}, {"time": 1708, "pitch": 58, "duration": 13, "velocity": 72}, {"time": 1714, "pitch": 50, "duration": 14, "velocity": 65}, {"time": 1720, "pitch": 62, "duration": 6, "velocity": 83}, {"time": 1726, "pitch": 55, "duration": 4, "velocity": 71}, {"time": 1732, "pitch": 43, "duration": 16, "velocity": 84}, {"time": 1732, "pitch": 55, "duration": 6, "velocity": 83}, {"time": 1732, "pitch": 58, "duration": 7, "velocity": 79}, {"time": 1732, "pitch": 62, "duration": 7, "velocity": 83}, {"time": 1738, "pitch": 50, "duration": 8, "velocity": 70}, {"time": 1741, "pitch": 55, "duration": 2, "velocity": 75}, {"time": 1744, "pitch": 55, "duration": 3, "velocity": 88}, {"time": 1744, "pitch": 58, "duration": 4, "velocity": 89}, {"time": 1744, "pitch": 62, "duration": 4, "velocity": 87}, {"time": 1744, "pitch": 67, "duration": 4, "velocity": 82}, {"time": 1747, "pitch": 50, "duration": 2, "velocity": 87}, {"time": 1750, "pitch": 43, "duration": 2, "velocity": 84}, {"time": 1756, "pitch": 39, "duration": 19, "velocity": 86}, {"time": 1756, "pitch": 58, "duration": 4, "velocity": 83}, {"time": 1756, "pitch": 63, "duration": 4, "velocity": 84}, {"time": 1762, "pitch": 46, "duration": 15, "velocity": 67}, {"time": 1765, "pitch": 51, "duration": 6, "velocity": 83}, {"time": 1768, "pitch": 55, "duration": 4, "velocity": 78}, {"time": 1771, "pitch": 63, "duration": 6, "velocity": 83}, {"time": 1774, "pitch": 51, "duration": 5, "velocity": 86}, {"time": 1777, "pitch": 55, "duration": 7, "velocity": 77}, {"time": 1780, "pitch": 39, "duration": 11, "velocity": 87}, {"time": 1780, "pitch": 63, "duration": 9, "velocity": 77}, {"time": 1783, "pitch": 46, "duration": 11, "velocity": 63}, {"time": 1786, "pitch": 51, "duration": 5, "velocity": 84}, {"time": 1789, "pitch": 55, "duration": 2, "velocity": 76}, {"time": 1792, "pitch": 51, "duration": 1, "velocity": 76}, {"time": 1792, "pitch": 55, "duration": 6, "velocity": 82}, {"time": 1792, "pitch": 63, "duration": 7, "velocity": 88}, {"time": 1798, "pitch": 51, "duration": 1, "velocity": 82}, {"time": 1804, "pitch": 46, "duration": 9, "velocity": 83}, {"time": 1804, "pitch": 53, "duration": 3, "velocity": 80}, {"time": 1804, "pitch": 58, "duration": 7, "velocity": 76}, {"time": 1810, "pitch": 53, "duration": 7, "velocity": 70}, {"time": 1816, "pitch": 58, "duration": 7, "velocity": 83}, {"time": 1816, "pitch": 62, "duration": 6, "velocity": 83}, {"time": 1822, "pitch": 53, "duration": 5, "velocity": 74}, {"time": 1828, "pitch": 46, "duration": 14, "velocity": 84}, {"time": 1828, "pitch": 53, "duration": 2, "velocity": 78}, {"time": 1828, "pitch": 58, "duration": 4, "velocity": 74}, {"time": 1831, "pitch": 53, "duration": 4, "velocity": 74}, {"time": 1834, "pitch": 58, "duration": 4, "velocity": 71}, {"time": 1840, "pitch": 53, "duration": 3, "velocity": 84}, {"time": 1840, "pitch": 58, "duration": 5, "velocity": 82}, {"time": 1840, "pitch": 62, "duration": 7, "velocity": 82}, {"time": 1843, "pitch": 46, "duration": 1, "velocity": 82}, {"time": 1846, "pitch": 53, "duration": 2, "velocity": 85}, {"time": 1852, "pitch": 39, "duration": 15, "velocity": 83}, {"time": 1852, "pitch": 55, "duration": 7, "velocity": 82}, {"time": 1852, "pitch": 58, "duration": 7, "velocity": 75}, {"time": 1858, "pitch": 46, "duration": 9, "velocity": 70}, {"time": 1864, "pitch": 63, "duration": 4, "velocity": 91}, {"time": 1867, "pitch": 55, "duration": 6, "velocity": 84}, {"time": 1870, "pitch": 58, "duration": 4, "velocity": 89}, {"time": 1873, "pitch": 63, "duration": 2, "velocity": 82}, {"time": 1876, "pitch": 41, "duration": 19, "velocity": 82}, {"time": 1876, "pitch": 53, "duration": 3, "velocity": 78}, {"time": 1876, "pitch": 57, "duration": 7, "velocity": 81}, {"time": 1879, "pitch": 48, "duration": 15, "velocity": 76}, {"time": 1882, "pitch": 53, "duration": 6, "velocity": 84}, {"time": 1885, "pitch": 60, "duration": 4, "velocity": 82}, {"time": 1888, "pitch": 65, "duration": 5, "velocity": 86}, {"time": 1891, "pitch": 60, "duration": 4, "velocity": 83}, {"time": 1894, "pitch": 53, "duration": 3, "velocity": 82}, {"time": 1900, "pitch": 46, "duration": 20, "velocity": 83}, {"time": 1900, "pitch": 53, "duration": 3, "velocity": 81}, {"time": 1900, "pitch": 58, "duration": 7, "velocity": 78}, {"time": 1906, "pitch": 53, "duration": 3, "velocity": 62}, {"time": 1912, "pitch": 53, "duration": 2, "velocity": 84}, {"time": 1912, "pitch": 62, "duration": 8, "velocity": 84}, {"time": 1918, "pitch": 53, "duration": 1, "velocity": 73}, {"time": 1921, "pitch": 58, "duration": 2, "velocity": 80}, {"time": 1924, "pitch": 46, "duration": 10, "velocity": 91}, {"time": 1924, "pitch": 53, "duration": 2, "velocity": 80}, {"time": 1924, "pitch": 58, "duration": 6, "velocity": 83}, {"time": 1924, "pitch": 62, "duration": 7, "velocity": 82}, {"time": 1933, "pitch": 53, "duration": 2, "velocity": 83}, {"time": 1936, "pitch": 46, "duration": 7, "velocity": 89}, {"time": 1936, "pitch": 53, "duration": 4, "velocity": 89}, {"time": 1936, "pitch": 58, "duration": 7, "velocity": 88}, {"time": 1942, "pitch": 57, "duration": 3, "velocity": 91}, {"time": 1948, "pitch": 39, "duration": 16, "velocity": 96}, {"time": 1948, "pitch": 55, "duration": 5, "velocity": 82}, {"time": 1948, "pitch": 58, "duration": 5, "velocity": 80}, {"time": 1954, "pitch": 46, "duration": 7, "velocity": 71}, {"time": 1960, "pitch": 55, "duration": 2, "velocity": 89}, {"time": 1960, "pitch": 63, "duration": 7, "velocity": 85}, {"time": 1963, "pitch": 46, "duration": 7, "velocity": 77}, {"time": 1966, "pitch": 55, "duration": 9, "velocity": 79}, {"time": 1969, "pitch": 58, "duration": 10, "velocity": 81}, {"time": 1972, "pitch": 39, "duration": 15, "velocity": 83}, {"time": 1975, "pitch": 46, "duration": 10, "velocity": 72}, {"time": 1978, "pitch": 55, "duration": 4, "velocity": 82}, {"time": 1981, "pitch": 58, "duration": 2, "velocity": 93}, {"time": 1984, "pitch": 55, "duration": 5, "velocity": 85}, {"time": 1984, "pitch": 58, "duration": 5, "velocity": 89}, {"time": 1984, "pitch": 63, "duration": 5, "velocity": 88}, {"time": 1987, "pitch": 46, "duration": 2, "velocity": 72}, {"time": 1990, "pitch": 39, "duration": 2, "velocity": 87}, {"time": 1996, "pitch": 38, "duration": 13, "velocity": 84}, {"time": 1996, "pitch": 53, "duration": 6, "velocity": 72}, {"time": 1996, "pitch": 57, "duration": 7, "velocity": 76}, {"time": 2002, "pitch": 45, "duration": 7, "velocity": 66}, {"time": 2005, "pitch": 53, "duration": 1, "velocity": 83}, {"time": 2008, "pitch": 53, "duration": 2, "velocity": 89}, {"time": 2008, "pitch": 57, "duration": 2, "velocity": 91}, {"time": 2014, "pitch": 43, "duration": 25, "velocity": 84}, {"time": 2014, "pitch": 55, "duration": 16, "velocity": 78}, {"time": 2014, "pitch": 58, "duration": 16, "velocity": 84}, {"time": 2026, "pitch": 50, "duration": 7, "velocity": 85}, {"time": 2029, "pitch": 62, "duration": 2, "velocity": 80}, {"time": 2032, "pitch": 55, "duration": 3, "velocity": 73}, {"time": 2032, "pitch": 58, "duration": 4, "velocity": 71}, {"time": 2032, "pitch": 62, "duration": 4, "velocity": 74}, {"time": 2032, "pitch": 67, "duration": 6, "velocity": 86}, {"time": 2035, "pitch": 50, "duration": 4, "velocity": 81}, {"time": 2038, "pitch": 55, "duration": 5, "velocity": 83}, {"time": 2044, "pitch": 48, "duration": 18, "velocity": 81}, {"time": 2044, "pitch": 55, "duration": 4, "velocity": 79}, {"time": 2044, "pitch": 60, "duration": 7, "velocity": 83}, {"time": 2044, "pitch": 63, "duration": 9, "velocity": 82}, {"time": 2050, "pitch": 55, "duration": 3, "velocity": 74}, {"time": 2056, "pitch": 60, "duration": 2, "velocity": 84}, {"time": 2062, "pitch": 58, "duration": 6, "velocity": 75}, {"time": 2068, "pitch": 41, "duration": 19, "velocity": 82}, {"time": 2068, "pitch": 53, "duration": 4, "velocity": 73}, {"time": 2068, "pitch": 57, "duration": 7, "velocity": 78}, {"time": 2071, "pitch": 48, "duration": 8, "velocity": 78}, {"time": 2074, "pitch": 60, "duration": 4, "velocity": 78}, {"time": 2077, "pitch": 65, "duration": 10, "velocity": 84}, {"time": 2080, "pitch": 48, "duration": 7, "velocity": 67}, {"time": 2083, "pitch": 60, "duration": 4, "velocity": 82}, {"time": 2086, "pitch": 53, "duration": 1, "velocity": 82}, {"time": 2092, "pitch": 43, "duration": 47, "velocity": 82}, {"time": 2092, "pitch": 55, "duration": 13, "velocity": 78}, {"time": 2092, "pitch": 58, "duration": 13, "velocity": 67}, {"time": 2098, "pitch": 50, "duration": 20, "velocity": 62}, {"time": 2104, "pitch": 62, "duration": 9, "velocity": 79}, {"time": 2110, "pitch": 55, "duration": 7, "velocity": 76}, {"time": 2116, "pitch": 67, "duration": 6, "velocity": 82}, {"time": 2122, "pitch": 50, "duration": 7, "velocity": 74}, {"time": 2122, "pitch": 55, "duration": 2, "velocity": 70}, {"time": 2128, "pitch": 55, "duration": 4, "velocity": 82}, {"time": 2128, "pitch": 58, "duration": 3, "velocity": 85}, {"time": 2131, "pitch": 50, "duration": 7, "velocity": 66}, {"time": 2134, "pitch": 57, "duration": 3, "velocity": 65}, {"time": 2137, "pitch": 58, "duration": 3, "velocity": 71}, {"time": 2140, "pitch": 39, "duration": 16, "velocity": 88}, {"time": 2140, "pitch": 51, "duration": 4, "velocity": 77}, {"time": 2140, "pitch": 55, "duration": 6, "velocity": 82}, {"time": 2140, "pitch": 58, "duration": 7, "velocity": 74}, {"time": 2143, "pitch": 46, "duration": 11, "velocity": 65}, {"time": 2146, "pitch": 51, "duration": 4, "velocity": 82}, {"time": 2149, "pitch": 55, "duration": 5, "velocity": 78}, {"time": 2152, "pitch": 63, "duration": 7, "velocity": 93}, {"time": 2155, "pitch": 46, "duration": 2, "velocity": 80}, {"time": 2158, "pitch": 51, "duration": 3, "velocity": 91}, {"time": 2161, "pitch": 55, "duration": 2, "velocity": 74}, {"time": 2164, "pitch": 41, "duration": 16, "velocity": 84}, {"time": 2164, "pitch": 53, "duration": 4, "velocity": 75}, {"time": 2164, "pitch": 57, "duration": 5, "velocity": 83}, {"time": 2167, "pitch": 48, "duration": 10, "velocity": 78}, {"time": 2170, "pitch": 53, "duration": 4, "velocity": 82}, {"time": 2173, "pitch": 57, "duration": 2, "velocity": 83}, {"time": 2176, "pitch": 53, "duration": 4, "velocity": 84}, {"time": 2176, "pitch": 57, "duration": 4, "velocity": 85}, {"time": 2176, "pitch": 60, "duration": 4, "velocity": 86}, {"time": 2179, "pitch": 48, "duration": 2, "velocity": 79}, {"time": 2182, "pitch": 41, "duration": 2, "velocity": 82}, {"time": 2188, "pitch": 38, "duration": 1, "velocity": 86}, {"time": 2188, "pitch": 57, "duration": 2, "velocity": 82}, {"time": 2188, "pitch": 62, "duration": 4, "velocity": 82}, {"time": 2191, "pitch": 57, "duration": 3, "velocity": 76}, {"time": 2194, "pitch": 62, "duration": 4, "velocity": 76}, {"time": 2197, "pitch": 65, "duration": 9, "velocity": 78}, {"time": 2200, "pitch": 50, "duration": 6, "velocity": 87}, {"time": 2203, "pitch": 57, "duration": 5, "velocity": 74}, {"time": 2206, "pitch": 62, "duration": 3, "velocity": 84}, {"time": 2209, "pitch": 65, "duration": 1, "velocity": 83}, {"time": 2212, "pitch": 43, "duration": 21, "velocity": 84}, {"time": 2212, "pitch": 55, "duration": 4, "velocity": 80}, {"time": 2212, "pitch": 58, "duration": 4, "velocity": 83}, {"time": 2215, "pitch": 50, "duration": 11, "velocity": 77}, {"time": 2218, "pitch": 55, "duration": 2, "velocity": 82}, {"time": 2221, "pitch": 55, "duration": 1, "velocity": 82}, {"time": 2221, "pitch": 62, "duration": 2, "velocity": 82}, {"time": 2224, "pitch": 62, "duration": 1, "velocity": 72}, {"time": 2224, "pitch": 67, "duration": 5, "velocity": 91}, {"time": 2227, "pitch": 55, "duration": 3, "velocity": 83}, {"time": 2230, "pitch": 62, "duration": 3, "velocity": 83}, {"time": 2233, "pitch": 55, "duration": 2, "velocity": 84}, {"time": 2236, "pitch": 48, "duration": 14, "velocity": 93}, {"time": 2236, "pitch": 55, "duration": 2, "velocity": 85}, {"time": 2236, "pitch": 60, "duration": 3, "velocity": 84}, {"time": 2239, "pitch": 55, "duration": 3, "velocity": 82}, {"time": 2242, "pitch": 60, "duration": 3, "velocity": 78}, {"time": 2245, "pitch": 55, "duration": 1, "velocity": 83}, {"time": 2248, "pitch": 55, "duration": 2, "velocity": 89}, {"time": 2248, "pitch": 60, "duration": 3, "velocity": 91}, {"time": 2248, "pitch": 63, "duration": 6, "velocity": 87}, {"time": 2251, "pitch": 48, "duration": 2, "velocity": 85}, {"time": 2254, "pitch": 55, "duration": 4, "velocity": 86}, {"time": 2257, "pitch": 63, "duration": 2, "velocity": 66}, {"time": 2260, "pitch": 44, "duration": 11, "velocity": 89}, {"time": 2260, "pitch": 56, "duration": 3, "velocity": 84}, {"time": 2260, "pitch": 63, "duration": 4, "velocity": 78}, {"time": 2263, "pitch": 51, "duration": 8, "velocity": 78}, {"time": 2266, "pitch": 56, "duration": 2, "velocity": 84}, {"time": 2269, "pitch": 56, "duration": 4, "velocity": 91}, {"time": 2269, "pitch": 60, "duration": 4, "velocity": 85}, {"time": 2269, "pitch": 63, "duration": 7, "velocity": 88}, {"time": 2272, "pitch": 51, "duration": 2, "velocity": 84}, {"time": 2275, "pitch": 56, "duration": 3, "velocity": 87}, {"time": 2278, "pitch": 63, "duration": 1, "velocity": 74}, {"time": 2284, "pitch": 38, "duration": 5, "velocity": 86}, {"time": 2284, "pitch": 50, "duration": 2, "velocity": 83}, {"time": 2284, "pitch": 54, "duration": 2, "velocity": 78}, {"time": 2284, "pitch": 57, "duration": 2, "velocity": 82}, {"time": 2287, "pitch": 50, "duration": 2, "velocity": 86}, {"time": 2287, "pitch": 54, "duration": 2, "velocity": 88}, {"time": 2287, "pitch": 57, "duration": 3, "velocity": 84}, {"time": 2296, "pitch": 38, "duration": 2, "velocity": 91}, {"time": 2296, "pitch": 50, "duration": 2, "velocity": 83}, {"time": 2296, "pitch": 54, "duration": 2, "velocity": 82}, {"time": 2296, "pitch": 57, "duration": 2, "velocity": 82}, {"time": 2296, "pitch": 62, "duration": 2, "velocity": 82}, {"time": 2299, "pitch": 38, "duration": 2, "velocity": 83}, {"time": 2299, "pitch": 50, "duration": 3, "velocity": 86}, {"time": 2299, "pitch": 54, "duration": 2, "velocity": 91}, {"time": 2299, "pitch": 57, "duration": 3, "velocity": 87}, {"time": 2299, "pitch": 62, "duration": 3, "velocity": 84}, {"time": 2308, "pitch": 38, "duration": 1, "velocity": 96}, {"time": 2308, "pitch": 50, "duration": 3, "velocity": 86}, {"time": 2308, "pitch": 54, "duration": 3, "velocity": 77}, {"time": 2308, "pitch": 57, "duration": 3, "velocity": 83}, {"time": 2308, "pitch": 62, "duration": 5, "velocity": 85}, {"time": 2314, "pitch": 50, "duration": 7, "velocity": 82}, {"time": 2317, "pitch": 54, "duration": 3, "velocity": 75}, {"time": 2320, "pitch": 57, "duration": 2, "velocity": 87}, {"time": 2323, "pitch": 62, "duration": 6, "velocity": 99}, {"time": 2326, "pitch": 66, "duration": 3, "velocity": 93}, {"time": 2329, "pitch": 69, "duration": 3, "velocity": 82}, {"time": 2332, "pitch": 39, "duration": 19, "velocity": 86}, {"time": 2332, "pitch": 58, "duration": 4, "velocity": 83}, {"time": 2332, "pitch": 63, "duration": 4, "velocity": 84}, {"time": 2338, "pitch": 46, "duration": 15, "velocity": 67}, {"time": 2341, "pitch": 51, "duration": 6, "velocity": 83}, {"time": 2344, "pitch": 55, "duration": 4, "velocity": 78}, {"time": 2347, "pitch": 63, "duration": 6, "velocity": 83}, {"time": 2350, "pitch": 51, "duration": 5, "velocity": 86}, {"time": 2353, "pitch": 55, "duration": 7, "velocity": 77}, {"time": 2356, "pitch": 39, "duration": 11, "velocity": 87}, {"time": 2356, "pitch": 63, "duration": 9, "velocity": 77}, {"time": 2359, "pitch": 46, "duration": 11, "velocity": 63}, {"time": 2362, "pitch": 51, "duration": 5, "velocity": 84}, {"time": 2365, "pitch": 55, "duration": 2, "velocity": 76}, {"time": 2368, "pitch": 51, "duration": 1, "velocity": 76}, {"time": 2368, "pitch": 55, "duration": 6, "velocity": 82}, {"time": 2368, "pitch": 63, "duration": 7, "velocity": 88}, {"time": 2374, "pitch": 51, "duration": 1, "velocity": 82}, {"time": 2380, "pitch": 46, "duration": 9, "velocity": 83}, {"time": 2380, "pitch": 53, "duration": 3, "velocity": 80}, {"time": 2380, "pitch": 58, "duration": 7, "velocity": 76}, {"time": 2386, "pitch": 53, "duration": 7, "velocity": 70}, {"time": 2392, "pitch": 58, "duration": 7, "velocity": 83}, {"time": 2392, "pitch": 62, "duration": 6, "velocity": 83}, {"time": 2398, "pitch": 53, "duration": 5, "velocity": 74}, {"time": 2404, "pitch": 46, "duration": 14, "velocity": 84}, {"time": 2404, "pitch": 53, "duration": 2, "velocity": 78}, {"time": 2404, "pitch": 58, "duration": 4, "velocity": 74}, {"time": 2407, "pitch": 53, "duration": 4, "velocity": 74}, {"time": 2410, "pitch": 58, "duration": 4, "velocity": 71}, {"time": 2416, "pitch": 53, "duration": 3, "velocity": 84}, {"time": 2416, "pitch": 58, "duration": 5, "velocity": 82}, {"time": 2416, "pitch": 62, "duration": 7, "velocity": 82}, {"time": 2419, "pitch": 46, "duration": 1, "velocity": 82}, {"time": 2422, "pitch": 53, "duration": 2, "velocity": 85}, {"time": 2428, "pitch": 39, "duration": 15, "velocity": 83}, {"time": 2428, "pitch": 55, "duration": 7, "velocity": 82}, {"time": 2428, "pitch": 58, "duration": 7, "velocity": 75}, {"time": 2434, "pitch": 46, "duration": 9, "velocity": 70}, {"time": 2440, "pitch": 63, "duration": 4, "velocity": 91}, {"time": 2443, "pitch": 55, "duration": 6, "velocity": 84}, {"time": 2446, "pitch": 58, "duration": 4, "velocity": 89}, {"time": 2449, "pitch": 63, "duration": 2, "velocity": 82}, {"time": 2452, "pitch": 41, "duration": 19, "velocity": 82}, {"time": 2452, "pitch": 53, "duration": 3, "velocity": 78}, {"time": 2452, "pitch": 57, "duration": 7, "velocity": 81}, {"time": 2455, "pitch": 48, "duration": 15, "velocity": 76}, {"time": 2458, "pitch": 53, "duration": 6, "velocity": 84}, {"time": 2461, "pitch": 60, "duration": 4, "velocity": 82}, {"time": 2464, "pitch": 65, "duration": 5, "velocity": 86}, {"time": 2467, "pitch": 60, "duration": 4, "velocity": 83}, {"time": 2470, "pitch": 53, "duration": 3, "velocity": 82}, {"time": 2476, "pitch": 46, "duration": 20, "velocity": 83}, {"time": 2476, "pitch": 53, "duration": 3, "velocity": 81}, {"time": 2476, "pitch": 58, "duration": 7, "velocity": 78}, {"time": 2482, "pitch": 53, "duration": 3, "velocity": 62}, {"time": 2488, "pitch": 53, "duration": 2, "velocity": 84}, {"time": 2488, "pitch": 62, "duration": 8, "velocity": 84}, {"time": 2494, "pitch": 53, "duration": 1, "velocity": 73}, {"time": 2497, "pitch": 58, "duration": 2, "velocity": 80}, {"time": 2500, "pitch": 46, "duration": 10, "velocity": 91}, {"time": 2500, "pitch": 53, "duration": 2, "velocity": 80}, {"time": 2500, "pitch": 58, "duration": 6, "velocity": 83}, {"time": 2500, "pitch": 62, "duration": 7, "velocity": 82}, {"time": 2509, "pitch": 53, "duration": 2, "velocity": 83}, {"time": 2512, "pitch": 46, "duration": 7, "velocity": 89}, {"time": 2512, "pitch": 53, "duration": 4, "velocity": 89}, {"time": 2512, "pitch": 58, "duration": 7, "velocity": 88}, {"time": 2518, "pitch": 57, "duration": 3, "velocity": 91}, {"time": 2524, "pitch": 39, "duration": 16, "velocity": 96}, {"time": 2524, "pitch": 55, "duration": 5, "velocity": 82}, {"time": 2524, "pitch": 58, "duration": 5, "velocity": 80}, {"time": 2530, "pitch": 46, "duration": 7, "velocity": 71}, {"time": 2536, "pitch": 55, "duration": 2, "velocity": 89}, {"time": 2536, "pitch": 63, "duration": 7, "velocity": 85}, {"time": 2539, "pitch": 46, "duration": 7, "velocity": 77}, {"time": 2542, "pitch": 55, "duration": 9, "velocity": 79}, {"time": 2545, "pitch": 58, "duration": 10, "velocity": 81}, {"time": 2548, "pitch": 39, "duration": 15, "velocity": 83}, {"time": 2551, "pitch": 46, "duration": 10, "velocity": 72}, {"time": 2554, "pitch": 55, "duration": 4, "velocity": 82}, {"time": 2557, "pitch": 58, "duration": 2, "velocity": 93}, {"time": 2560, "pitch": 55, "duration": 5, "velocity": 85}, {"time": 2560, "pitch": 58, "duration": 5, "velocity": 89}, {"time": 2560, "pitch": 63, "duration": 5, "velocity": 88}, {"time": 2563, "pitch": 46, "duration": 2, "velocity": 72}, {"time": 2566, "pitch": 39, "duration": 2, "velocity": 87}, {"time": 2572, "pitch": 38, "duration": 13, "velocity": 84}, {"time": 2572, "pitch": 53, "duration": 6, "velocity": 72}, {"time": 2572, "pitch": 57, "duration": 7, "velocity": 76}, {"time": 2578, "pitch": 45, "duration": 7, "velocity": 66}, {"time": 2581, "pitch": 53, "duration": 1, "velocity": 83}, {"time": 2584, "pitch": 53, "duration": 2, "velocity": 89}, {"time": 2584, "pitch": 57, "duration": 2, "velocity": 91}, {"time": 2590, "pitch": 43, "duration": 25, "velocity": 84}, {"time": 2590, "pitch": 55, "duration": 16, "velocity": 78}, {"time": 2590, "pitch": 58, "duration": 16, "velocity": 84}, {"time": 2602, "pitch": 50, "duration": 7, "velocity": 85}, {"time": 2605, "pitch": 62, "duration": 2, "velocity": 80}, {"time": 2608, "pitch": 55, "duration": 3, "velocity": 73}, {"time": 2608, "pitch": 58, "duration": 4, "velocity": 71}, {"time": 2608, "pitch": 62, "duration": 4, "velocity": 74}, {"time": 2608, "pitch": 67, "duration": 6, "velocity": 86}, {"time": 2611, "pitch": 50, "duration": 4, "velocity": 81}, {"time": 2614, "pitch": 55, "duration": 5, "velocity": 83}, {"time": 2620, "pitch": 48, "duration": 18, "velocity": 81}, {"time": 2620, "pitch": 55, "duration": 4, "velocity": 79}, {"time": 2620, "pitch": 60, "duration": 7, "velocity": 83}, {"time": 2620, "pitch": 63, "duration": 9, "velocity": 82}, {"time": 2626, "pitch": 55, "duration": 3, "velocity": 74}, {"time": 2632, "pitch": 60, "duration": 2, "velocity": 84}, {"time": 2638, "pitch": 58, "duration": 6, "velocity": 75}, {"time": 2644, "pitch": 41, "duration": 19, "velocity": 82}, {"time": 2644, "pitch": 53, "duration": 4, "velocity": 73}, {"time": 2644, "pitch": 57, "duration": 7, "velocity": 78}, {"time": 2647, "pitch": 48, "duration": 8, "velocity": 78}, {"time": 2650, "pitch": 60, "duration": 4, "velocity": 78}, {"time": 2653, "pitch": 65, "duration": 10, "velocity": 84}, {"time": 2656, "pitch": 48, "duration": 7, "velocity": 67}, {"time": 2659, "pitch": 60, "duration": 4, "velocity": 82}, {"time": 2662, "pitch": 53, "duration": 1, "velocity": 82}, {"time": 2668, "pitch": 43, "duration": 47, "velocity": 82}, {"time": 2668, "pitch": 55, "duration": 13, "velocity": 78}, {"time": 2668, "pitch": 58, "duration": 13, "velocity": 67}, {"time": 2674, "pitch": 50, "duration": 20, "velocity": 62}, {"time": 2680, "pitch": 62, "duration": 9, "velocity": 79}, {"time": 2686, "pitch": 55, "duration": 7, "velocity": 76}, {"time": 2692, "pitch": 67, "duration": 6, "velocity": 82}, {"time": 2698, "pitch": 50, "duration": 7, "velocity": 74}, {"time": 2698, "pitch": 55, "duration": 2, "velocity": 70}, {"time": 2704, "pitch": 55, "duration": 4, "velocity": 82}, {"time": 2704, "pitch": 58, "duration": 4, "velocity": 85}, {"time": 2707, "pitch": 50, "duration": 7, "velocity": 66}, {"time": 2710, "pitch": 57, "duration": 4, "velocity": 65}, {"time": 2713, "pitch": 58, "duration": 3, "velocity": 71}, {"time": 2716, "pitch": 39, "duration": 1, "velocity": 87}, {"time": 2716, "pitch": 55, "duration": 2, "velocity": 79}, {"time": 2716, "pitch": 58, "duration": 1, "velocity": 75}, {"time": 2716, "pitch": 63, "duration": 2, "velocity": 78}, {"time": 2722, "pitch": 39, "duration": 4, "velocity": 89}, {"time": 2722, "pitch": 55, "duration": 5, "velocity": 82}, {"time": 2722, "pitch": 58, "duration": 4, "velocity": 81}, {"time": 2722, "pitch": 63, "duration": 4, "velocity": 82}, {"time": 2731, "pitch": 41, "duration": 5, "velocity": 85}, {"time": 2731, "pitch": 53, "duration": 4, "velocity": 77}, {"time": 2731, "pitch": 57, "duration": 5, "velocity": 83}, {"time": 2731, "pitch": 60, "duration": 5, "velocity": 82}, {"time": 2731, "pitch": 65, "duration": 5, "velocity": 83}, {"time": 2740, "pitch": 43, "duration": 20, "velocity": 84}, {"time": 2740, "pitch": 55, "duration": 6, "velocity": 80}, {"time": 2740, "pitch": 58, "duration": 7, "velocity": 77}, {"time": 2740, "pitch": 62, "duration": 7, "velocity": 83}, {"time": 2746, "pitch": 50, "duration": 8, "velocity": 72}, {"time": 2749, "pitch": 55, "duration": 2, "velocity": 78}, {"time": 2752, "pitch": 55, "duration": 4, "velocity": 84}, {"time": 2752, "pitch": 58, "duration": 5, "velocity": 87}, {"time": 2752, "pitch": 62, "duration": 6, "velocity": 85}, {"time": 2752, "pitch": 67, "duration": 6, "velocity": 82}, {"time": 2755, "pitch": 50, "duration": 7, "velocity": 83}, {"time": 2758, "pitch": 55, "duration": 5, "velocity": 83}, {"time": 2761, "pitch": 58, "duration": 2, "velocity": 74}, {"time": 2764, "pitch": 46, "duration": 9, "velocity": 83}, {"time": 2764, "pitch": 53, "duration": 3, "velocity": 80}, {"time": 2764, "pitch": 58, "duration": 7, "velocity": 76}, {"time": 2770, "pitch": 53, "duration": 7, "velocity": 70}, {"time": 2776, "pitch": 58, "duration": 7, "velocity": 83}, {"time": 2776, "pitch": 62, "duration": 6, "velocity": 83}, {"time": 2782, "pitch": 53, "duration": 5, "velocity": 74}, {"time": 2788, "pitch": 46, "duration": 14, "velocity": 84}, {"time": 2788, "pitch": 53, "duration": 2, "velocity": 78}, {"time": 2788, "pitch": 58, "duration": 4, "velocity": 74}, {"time": 2791, "pitch": 53, "duration": 4, "velocity": 74}, {"time": 2794, "pitch": 58, "duration": 4, "velocity": 71}, {"time": 2800, "pitch": 53, "duration": 3, "velocity": 84}, {"time": 2800, "pitch": 58, "duration": 5, "velocity": 82}, {"time": 2800, "pitch": 62, "duration": 7, "velocity": 82}, {"time": 2803, "pitch": 46, "duration": 1, "velocity": 82}, {"time": 2806, "pitch": 53, "duration": 2, "velocity": 85}, {"time": 2812, "pitch": 39, "duration": 15, "velocity": 83}, {"time": 2812, "pitch": 55, "duration": 7, "velocity": 82}, {"time": 2812, "pitch": 58, "duration": 7, "velocity": 75}, {"time": 2818, "pitch": 46, "duration": 9, "velocity": 70}, {"time": 2824, "pitch": 63, "duration": 4, "velocity": 91}, {"time": 2827, "pitch": 55, "duration": 6, "velocity": 84}, {"time": 2830, "pitch": 58, "duration": 4, "velocity": 89}, {"time": 2833, "pitch": 63, "duration": 2, "velocity": 82}, {"time": 2836, "pitch": 41, "duration": 19, "velocity": 82}, {"time": 2836, "pitch": 53, "duration": 3, "velocity": 78}, {"time": 2836, "pitch": 57, "duration": 7, "velocity": 81}, {"time": 2839, "pitch": 48, "duration": 15, "velocity": 76}, {"time": 2842, "pitch": 53, "duration": 6, "velocity": 84}, {"time": 2845, "pitch": 60, "duration": 4, "velocity": 82}, {"time": 2848, "pitch": 65, "duration": 5, "velocity": 86}, {"time": 2851, "pitch": 60, "duration": 4, "velocity": 83}, {"time": 2854, "pitch": 53, "duration": 3, "velocity": 82}, {"time": 2860, "pitch": 46, "duration": 20, "velocity": 83}, {"time": 2860, "pitch": 53, "duration": 3, "velocity": 81}, {"time": 2860, "pitch": 58, "duration": 7, "velocity": 78}, {"time": 2866, "pitch": 53, "duration": 3, "velocity": 62}, {"time": 2872, "pitch": 53, "duration": 2, "velocity": 84}, {"time": 2872, "pitch": 62, "duration": 8, "velocity": 84}, {"time": 2878, "pitch": 53, "duration": 1, "velocity": 73}, {"time": 2881, "pitch": 58, "duration": 2, "velocity": 80}, {"time": 2884, "pitch": 46, "duration": 10, "velocity": 91}, {"time": 2884, "pitch": 53, "duration": 2, "velocity": 80}, {"time": 2884, "pitch": 58, "duration": 6, "velocity": 83}, {"time": 2884, "pitch": 62, "duration": 7, "velocity": 82}, {"time": 2893, "pitch": 53, "duration": 2, "velocity": 83}, {"time": 2896, "pitch": 46, "duration": 7, "velocity": 89}, {"time": 2896, "pitch": 53, "duration": 4, "velocity": 89}, {"time": 2896, "pitch": 58, "duration": 7, "velocity": 88}, {"time": 2902, "pitch": 57, "duration": 3, "velocity": 91}, {"time": 2908, "pitch": 39, "duration": 16, "velocity": 96}, {"time": 2908, "pitch": 55, "duration": 5, "velocity": 82}, {"time": 2908, "pitch": 58, "duration": 5, "velocity": 80}, {"time": 2914, "pitch": 46, "duration": 7, "velocity": 71}, {"time": 2920, "pitch": 55, "duration": 2, "velocity": 89}, {"time": 2920, "pitch": 63, "duration": 7, "velocity": 85}, {"time": 2923, "pitch": 46, "duration": 7, "velocity": 77}, {"time": 2926, "pitch": 55, "duration": 9, "velocity": 79}, {"time": 2929, "pitch": 58, "duration": 10, "velocity": 81}, {"time": 2932, "pitch": 39, "duration": 15, "velocity": 83}, {"time": 2935, "pitch": 46, "duration": 10, "velocity": 72}, {"time": 2938, "pitch": 55, "duration": 4, "velocity": 82}, {"time": 2941, "pitch": 58, "duration": 2, "velocity": 93}, {"time": 2944, "pitch": 55, "duration": 5, "velocity": 85}, {"time": 2944, "pitch": 58, "duration": 5, "velocity": 89}, {"time": 2944, "pitch": 63, "duration": 5, "velocity": 88}, {"time": 2947, "pitch": 46, "duration": 2, "velocity": 72}, {"time": 2950, "pitch": 39, "duration": 2, "velocity": 87}, {"time": 2956, "pitch": 38, "duration": 13, "velocity": 84}, {"time": 2956, "pitch": 53, "duration": 6, "velocity": 72}, {"time": 2956, "pitch": 57, "duration": 7, "velocity": 76}, {"time": 2962, "pitch": 45, "duration": 7, "velocity": 66}, {"time": 2965, "pitch": 53, "duration": 1, "velocity": 83}, {"time": 2968, "pitch": 53, "duration": 2, "velocity": 89}, {"time": 2968, "pitch": 57, "duration": 2, "velocity": 91}, {"time": 2974, "pitch": 43, "duration": 25, "velocity": 84}, {"time": 2974, "pitch": 55, "duration": 16, "velocity": 78}, {"time": 2974, "pitch": 58, "duration": 16, "velocity": 84}, {"time": 2986, "pitch": 50, "duration": 7, "velocity": 85}, {"time": 2989, "pitch": 62, "duration": 2, "velocity": 80}, {"time": 2992, "pitch": 55, "duration": 3, "velocity": 73}, {"time": 2992, "pitch": 58, "duration": 4, "velocity": 71}, {"time": 2992, "pitch": 62, "duration": 4, "velocity": 74}, {"time": 2992, "pitch": 67, "duration": 6, "velocity": 86}, {"time": 2995, "pitch": 50, "duration": 4, "velocity": 81}, {"time": 2998, "pitch": 55, "duration": 5, "velocity": 83}, {"time": 3004, "pitch": 48, "duration": 18, "velocity": 81}, {"time": 3004, "pitch": 55, "duration": 4, "velocity": 79}, {"time": 3004, "pitch": 60, "duration": 7, "velocity": 83}, {"time": 3004, "pitch": 63, "duration": 9, "velocity": 82}, {"time": 3010, "pitch": 55, "duration": 3, "velocity": 74}, {"time": 3016, "pitch": 60, "duration": 2, "velocity": 84}, {"time": 3022, "pitch": 58, "duration": 6, "velocity": 75}, {"time": 3026, "pitch": 53, "duration": 23, "velocity": 70}, {"time": 3027, "pitch": 41, "duration": 43, "velocity": 80}, {"time": 3027, "pitch": 57, "duration": 22, "velocity": 73}, {"time": 3028, "pitch": 60, "duration": 22, "velocity": 78}, {"time": 3029, "pitch": 65, "duration": 21, "velocity": 63}, {"time": 3047, "pitch": 48, "duration": 22, "velocity": 50}, {"time": 3051, "pitch": 53, "duration": 19, "velocity": 70}, {"time": 3055, "pitch": 60, "duration": 15, "velocity": 66}, {"time": 3060, "pitch": 65, "duration": 10, "velocity": 71}, {"time": 3100, "pitch": 43, "duration": 16, "velocity": 72}, {"time": 3100, "pitch": 67, "duration": 6, "velocity": 69}, {"time": 3103, "pitch": 50, "duration": 12, "velocity": 73}, {"time": 3106, "pitch": 62, "duration": 9, "velocity": 82}, {"time": 3109, "pitch": 70, "duration": 9, "velocity": 83}, {"time": 3124, "pitch": 51, "duration": 14, "velocity": 82}, {"time": 3124, "pitch": 70, "duration": 6, "velocity": 73}, {"time": 3127, "pitch": 58, "duration": 12, "velocity": 69}, {"time": 3130, "pitch": 63, "duration": 9, "velocity": 72}, {"time": 3133, "pitch": 70, "duration": 7, "velocity": 71}, {"time": 3148, "pitch": 41, "duration": 19, "velocity": 80}, {"time": 3148, "pitch": 69, "duration": 7, "velocity": 65}, {"time": 3151, "pitch": 48, "duration": 15, "velocity": 69}, {"time": 3154, "pitch": 60, "duration": 4, "velocity": 80}, {"time": 3157, "pitch": 65, "duration": 7, "velocity": 83}, {"time": 3163, "pitch": 69, "duration": 9, "velocity": 81}, {"time": 3166, "pitch": 65, "duration": 6, "velocity": 74}, {"time": 3172, "pitch": 43, "duration": 46, "velocity": 82}, {"time": 3172, "pitch": 67, "duration": 24, "velocity": 76}, {"time": 3178, "pitch": 50, "duration": 39, "velocity": 66}, {"time": 3181, "pitch": 55, "duration": 6, "velocity": 83}, {"time": 3187, "pitch": 62, "duration": 7, "velocity": 76}, {"time": 3190, "pitch": 55, "duration": 30, "velocity": 82}, {"time": 3196, "pitch": 62, "duration": 24, "velocity": 73}, {"time": 3196, "pitch": 67, "duration": 24, "velocity": 73}], "annotations": [{"time": 29, "annotation": {"number": 64, "value": 127}, "group": "control_change"}, {"time": 29, "annotation": {"number": 64, "value": 0}, "group": "control_change"}, {"time": 50, "annotation": {"number": 64, "value": 0}, "group": "control_change"}, {"time": 52, "annotation": {"number": 64, "value": 127}, "group": "control_change"}, {"time": 74, "annotation": {"number": 64, "value": 0}, "group": "control_change"}, {"time": 76, "annotation": {"number": 64, "value": 127}, "group": "control_change"}, {"time": 99, "annotation": {"number": 64, "value": 0}, "group": "control_change"}, {"time": 101, "annotation": {"number": 64, "value": 127}, "group": "control_change"}, {"time": 123, "annotation": {"number": 64, "value": 0}, "group": "control_change"}, {"time": 124, "annotation": {"number": 64, "value": 127}, "group": "control_change"}, {"time": 147, "annotation": {"number": 64, "value": 0}, "group": "control_change"}, {"time": 148, "annotation": {"number": 64, "value": 127}, "group": "control_change"}, {"time": 171, "annotation": {"number": 64, "value": 0}, "group": "control_change"}, {"time": 173, "annotation": {"number": 64, "value": 127}, "group": "control_change"}, {"time": 195, "annotation": {"number": 64, "value": 0}, "group": "control_change"}, {"time": 197, "annotation": {"number": 64, "value": 127}, "group": "control_change"}, {"time": 215, "annotation": {"number": 64, "value": 0}, "group": "control_change"}, {"time": 226, "annotation": {"number": 64, "value": 127}, "group": "control_change"}, {"time": 267, "annotation": {"number": 64, "value": 0}, "group": "control_change"}, {"time": 273, "annotation": {"number": 64, "value": 127}, "group": "control_change"}, {"time": 302, "annotation": {"number": 64, "value": 0}, "group": "control_change"}, {"time": 304, "annotation": {"number": 64, "value": 127}, "group": "control_change"}, {"time": 314, "annotation": {"number": 64, "value": 0}, "group": "control_change"}, {"time": 318, "annotation": {"number": 64, "value": 127}, "group": "control_change"}, {"time": 340, "annotation": {"number": 64, "value": 0}, "group": "control_change"}, {"time": 342, "annotation": {"number": 64, "value": 127}, "group": "control_change"}, {"time": 364, "annotation": {"number": 64, "value": 0}, "group": "control_change"}, {"time": 369, "annotation": {"number": 64, "value": 127}, "group": "control_change"}, {"time": 369, "annotation": {"number": 64, "value": 0}, "group": "control_change"}, {"time": 411, "annotation": {"number": 64, "value": 0}, "group": "control_change"}, {"time": 417, "annotation": {"number": 64, "value": 127}, "group": "control_change"}, {"time": 417, "annotation": {"number": 64, "value": 0}, "group": "control_change"}, {"time": 459, "annotation": {"number": 64, "value": 0}, "group": "control_change"}, {"time": 464, "annotation": {"number": 64, "value": 127}, "group": "control_change"}, {"time": 507, "annotation": {"number": 64, "value": 0}, "group": "control_change"}, {"time": 510, "annotation": {"number": 64, "value": 127}, "group": "control_change"}, {"time": 531, "annotation": {"number": 64, "value": 0}, "group": "control_change"}, {"time": 536, "annotation": {"number": 64, "value": 127}, "group": "control_change"}, {"time": 553, "annotation": {"number": 64, "value": 0}, "group": "control_change"}, {"time": 560, "annotation": {"number": 64, "value": 127}, "group": "control_change"}, {"time": 560, "annotation": {"number": 64, "value": 0}, "group": "control_change"}, {"time": 603, "annotation": {"number": 64, "value": 0}, "group": "control_change"}, {"time": 607, "annotation": {"number": 64, "value": 127}, "group": "control_change"}, {"time": 651, "annotation": {"number": 64, "value": 0}, "group": "control_change"}, {"time": 654, "annotation": {"number": 64, "value": 127}, "group": "control_change"}, {"time": 698, "annotation": {"number": 64, "value": 0}, "group": "control_change"}, {"time": 704, "annotation": {"number": 64, "value": 127}, "group": "control_change"}, {"time": 704, "annotation": {"number": 64, "value": 0}, "group": "control_change"}, {"time": 747, "annotation": {"number": 64, "value": 0}, "group": "control_change"}, {"time": 754, "annotation": {"number": 64, "value": 127}, "group": "control_change"}, {"time": 794, "annotation": {"number": 64, "value": 0}, "group": "control_change"}, {"time": 801, "annotation": {"number": 64, "value": 127}, "group": "control_change"}, {"time": 819, "annotation": {"number": 64, "value": 0}, "group": "control_change"}, {"time": 821, "annotation": {"number": 64, "value": 127}, "group": "control_change"}, {"time": 842, "annotation": {"number": 64, "value": 0}, "group": "control_change"}, {"time": 845, "annotation": {"number": 64, "value": 127}, "group": "control_change"}, {"time": 889, "annotation": {"number": 64, "value": 0}, "group": "control_change"}, {"time": 895, "annotation": {"number": 64, "value": 127}, "group": "control_change"}, {"time": 916, "annotation": {"number": 64, "value": 0}, "group": "control_change"}, {"time": 922, "annotation": {"number": 64, "value": 127}, "group": "control_change"}, {"time": 939, "annotation": {"number": 64, "value": 0}, "group": "control_change"}, {"time": 945, "annotation": {"number": 64, "value": 127}, "group": "control_change"}, {"time": 986, "annotation": {"number": 64, "value": 0}, "group": "control_change"}, {"time": 989, "annotation": {"number": 64, "value": 127}, "group": "control_change"}, {"time": 1012, "annotation": {"number": 64, "value": 0}, "group": "control_change"}, {"time": 1013, "annotation": {"number": 64, "value": 127}, "group": "control_change"}, {"time": 1035, "annotation": {"number": 64, "value": 0}, "group": "control_change"}, {"time": 1037, "annotation": {"number": 64, "value": 127}, "group": "control_change"}, {"time": 1059, "annotation": {"number": 64, "value": 0}, "group": "control_change"}, {"time": 1061, "annotation": {"number": 64, "value": 127}, "group": "control_change"}, {"time": 1082, "annotation": {"number": 64, "value": 0}, "group": "control_change"}, {"time": 1084, "annotation": {"number": 64, "value": 127}, "group": "control_change"}, {"time": 1107, "annotation": {"number": 64, "value": 0}, "group": "control_change"}, {"time": 1109, "annotation": {"number": 64, "value": 127}, "group": "control_change"}, {"time": 1130, "annotation": {"number": 64, "value": 0}, "group": "control_change"}, {"time": 1132, "annotation": {"number": 64, "value": 127}, "group": "control_change"}, {"time": 1178, "annotation": {"number": 64, "value": 0}, "group": "control_change"}, {"time": 1181, "annotation": {"number": 64, "value": 127}, "group": "control_change"}, {"time": 1227, "annotation": {"number": 64, "value": 0}, "group": "control_change"}, {"time": 1229, "annotation": {"number": 64, "value": 127}, "group": "control_change"}, {"time": 1246, "annotation": {"number": 64, "value": 0}, "group": "control_change"}, {"time": 1250, "annotation": {"number": 64, "value": 127}, "group": "control_change"}, {"time": 1275, "annotation": {"number": 64, "value": 0}, "group": "control_change"}, {"time": 1277, "annotation": {"number": 64, "value": 127}, "group": "control_change"}, {"time": 1299, "annotation": {"number": 64, "value": 0}, "group": "control_change"}, {"time": 1301, "annotation": {"number": 64, "value": 127}, "group": "control_change"}, {"time": 1322, "annotation": {"number": 64, "value": 0}, "group": "control_change"}, {"time": 1325, "annotation": {"number": 64, "value": 127}, "group": "control_change"}, {"time": 1369, "annotation": {"number": 64, "value": 0}, "group": "control_change"}, {"time": 1375, "annotation": {"number": 64, "value": 127}, "group": "control_change"}, {"time": 1419, "annotation": {"number": 64, "value": 0}, "group": "control_change"}, {"time": 1422, "annotation": {"number": 64, "value": 127}, "group": "control_change"}, {"time": 1466, "annotation": {"number": 64, "value": 0}, "group": "control_change"}, {"time": 1472, "annotation": {"number": 64, "value": 127}, "group": "control_change"}, {"time": 1472, "annotation": {"number": 64, "value": 0}, "group": "control_change"}, {"time": 1515, "annotation": {"number": 64, "value": 0}, "group": "control_change"}, {"time": 1522, "annotation": {"number": 64, "value": 127}, "group": "control_change"}, {"time": 1562, "annotation": {"number": 64, "value": 0}, "group": "control_change"}, {"time": 1569, "annotation": {"number": 64, "value": 127}, "group": "control_change"}, {"time": 1587, "annotation": {"number": 64, "value": 0}, "group": "control_change"}, {"time": 1589, "annotation": {"number": 64, "value": 127}, "group": "control_change"}, {"time": 1610, "annotation": {"number": 64, "value": 0}, "group": "control_change"}, {"time": 1613, "annotation": {"number": 64, "value": 127}, "group": "control_change"}, {"time": 1657, "annotation": {"number": 64, "value": 0}, "group": "control_change"}, {"time": 1663, "annotation": {"number": 64, "value": 127}, "group": "control_change"}, {"time": 1684, "annotation": {"number": 64, "value": 0}, "group": "control_change"}, {"time": 1690, "annotation": {"number": 64, "value": 127}, "group": "control_change"}, {"time": 1707, "annotation": {"number": 64, "value": 0}, "group": "control_change"}, {"time": 1713, "annotation": {"number": 64, "value": 127}, "group": "control_change"}, {"time": 1754, "annotation": {"number": 64, "value": 0}, "group": "control_change"}, {"time": 1757, "annotation": {"number": 64, "value": 127}, "group": "control_change"}, {"time": 1780, "annotation": {"number": 64, "value": 0}, "group": "control_change"}, {"time": 1781, "annotation": {"number": 64, "value": 127}, "group": "control_change"}, {"time": 1803, "annotation": {"number": 64, "value": 0}, "group": "control_change"}, {"time": 1805, "annotation": {"number": 64, "value": 127}, "group": "control_change"}, {"time": 1827, "annotation": {"number": 64, "value": 0}, "group": "control_change"}, {"time": 1829, "annotation": {"number": 64, "value": 127}, "group": "control_change"}, {"time": 1850, "annotation": {"number": 64, "value": 0}, "group": "control_change"}, {"time": 1852, "annotation": {"number": 64, "value": 127}, "group": "control_change"}, {"time": 1875, "annotation": {"number": 64, "value": 0}, "group": "control_change"}, {"time": 1877, "annotation": {"number": 64, "value": 127}, "group": "control_change"}, {"time": 1898, "annotation": {"number": 64, "value": 0}, "group": "control_change"}, {"time": 1900, "annotation": {"number": 64, "value": 127}, "group": "control_change"}, {"time": 1946, "annotation": {"number": 64, "value": 0}, "group": "control_change"}, {"time": 1949, "annotation": {"number": 64, "value": 127}, "group": "control_change"}, {"time": 1995, "annotation": {"number": 64, "value": 0}, "group": "control_change"}, {"time": 1997, "annotation": {"number": 64, "value": 127}, "group": "control_change"}, {"time": 2014, "annotation": {"number": 64, "value": 0}, "group": "control_change"}, {"time": 2018, "annotation": {"number": 64, "value": 127}, "group": "control_change"}, {"time": 2043, "annotation": {"number": 64, "value": 0}, "group": "control_change"}, {"time": 2045, "annotation": {"number": 64, "value": 127}, "group": "control_change"}, {"time": 2067, "annotation": {"number": 64, "value": 0}, "group": "control_change"}, {"time": 2069, "annotation": {"number": 64, "value": 127}, "group": "control_change"}, {"time": 2090, "annotation": {"number": 64, "value": 0}, "group": "control_change"}, {"time": 2093, "annotation": {"number": 64, "value": 127}, "group": "control_change"}, {"time": 2137, "annotation": {"number": 64, "value": 0}, "group": "control_change"}, {"time": 2141, "annotation": {"number": 64, "value": 127}, "group": "control_change"}, {"time": 2164, "annotation": {"number": 64, "value": 0}, "group": "control_change"}, {"time": 2166, "annotation": {"number": 64, "value": 127}, "group": "control_change"}, {"time": 2186, "annotation": {"number": 64, "value": 0}, "group": "control_change"}, {"time": 2188, "annotation": {"number": 64, "value": 127}, "group": "control_change"}, {"time": 2211, "annotation": {"number": 64, "value": 0}, "group": "control_change"}, {"time": 2213, "annotation": {"number": 64, "value": 127}, "group": "control_change"}, {"time": 2235, "annotation": {"number": 64, "value": 0}, "group": "control_change"}, {"time": 2236, "annotation": {"number": 64, "value": 127}, "group": "control_change"}, {"time": 2259, "annotation": {"number": 64, "value": 0}, "group": "control_change"}, {"time": 2261, "annotation": {"number": 64, "value": 127}, "group": "control_change"}, {"time": 2282, "annotation": {"number": 64, "value": 0}, "group": "control_change"}, {"time": 2285, "annotation": {"number": 64, "value": 127}, "group": "control_change"}, {"time": 2288, "annotation": {"number": 64, "value": 0}, "group": "control_change"}, {"time": 2297, "annotation": {"number": 64, "value": 127}, "group": "control_change"}, {"time": 2304, "annotation": {"number": 64, "value": 0}, "group": "control_change"}, {"time": 2308, "annotation": {"number": 64, "value": 127}, "group": "control_change"}, {"time": 2330, "annotation": {"number": 64, "value": 0}, "group": "control_change"}, {"time": 2333, "annotation": {"number": 64, "value": 127}, "group": "control_change"}, {"time": 2356, "annotation": {"number": 64, "value": 0}, "group": "control_change"}, {"time": 2357, "annotation": {"number": 64, "value": 127}, "group": "control_change"}, {"time": 2379, "annotation": {"number": 64, "value": 0}, "group": "control_change"}, {"time": 2381, "annotation": {"number": 64, "value": 127}, "group": "control_change"}, {"time": 2403, "annotation": {"number": 64, "value": 0}, "group": "control_change"}, {"time": 2405, "annotation": {"number": 64, "value": 127}, "group": "control_change"}, {"time": 2426, "annotation": {"number": 64, "value": 0}, "group": "control_change"}, {"time": 2428, "annotation": {"number": 64, "value": 127}, "group": "control_change"}, {"time": 2451, "annotation": {"number": 64, "value": 0}, "group": "control_change"}, {"time": 2453, "annotation": {"number": 64, "value": 127}, "group": "control_change"}, {"time": 2474, "annotation": {"number": 64, "value": 0}, "group": "control_change"}, {"time": 2476, "annotation": {"number": 64, "value": 127}, "group": "control_change"}, {"time": 2522, "annotation": {"number": 64, "value": 0}, "group": "control_change"}, {"time": 2525, "annotation": {"number": 64, "value": 127}, "group": "control_change"}, {"time": 2571, "annotation": {"number": 64, "value": 0}, "group": "control_change"}, {"time": 2573, "annotation": {"number": 64, "value": 127}, "group": "control_change"}, {"time": 2590, "annotation": {"number": 64, "value": 0}, "group": "control_change"}, {"time": 2594, "annotation": {"number": 64, "value": 127}, "group": "control_change"}, {"time": 2619, "annotation": {"number": 64, "value": 0}, "group": "control_change"}, {"time": 2621, "annotation": {"number": 64, "value": 127}, "group": "control_change"}, {"time": 2643, "annotation": {"number": 64, "value": 0}, "group": "control_change"}, {"time": 2645, "annotation": {"number": 64, "value": 127}, "group": "control_change"}, {"time": 2666, "annotation": {"number": 64, "value": 0}, "group": "control_change"}, {"time": 2669, "annotation": {"number": 64, "value": 127}, "group": "control_change"}, {"time": 2713, "annotation": {"number": 64, "value": 0}, "group": "control_change"}, {"time": 2718, "annotation": {"number": 64, "value": 0}, "group": "control_change"}, {"time": 2722, "annotation": {"number": 64, "value": 127}, "group": "control_change"}, {"time": 2730, "annotation": {"number": 64, "value": 0}, "group": "control_change"}, {"time": 2732, "annotation": {"number": 64, "value": 127}, "group": "control_change"}, {"time": 2740, "annotation": {"number": 64, "value": 0}, "group": "control_change"}, {"time": 2744, "annotation": {"number": 64, "value": 127}, "group": "control_change"}, {"time": 2761, "annotation": {"number": 64, "value": 0}, "group": "control_change"}, {"time": 2765, "annotation": {"number": 64, "value": 127}, "group": "control_change"}, {"time": 2787, "annotation": {"number": 64, "value": 0}, "group": "control_change"}, {"time": 2789, "annotation": {"number": 64, "value": 127}, "group": "control_change"}, {"time": 2810, "annotation": {"number": 64, "value": 0}, "group": "control_change"}, {"time": 2812, "annotation": {"number": 64, "value": 127}, "group": "control_change"}, {"time": 2835, "annotation": {"number": 64, "value": 0}, "group": "control_change"}, {"time": 2837, "annotation": {"number": 64, "value": 127}, "group": "control_change"}, {"time": 2858, "annotation": {"number": 64, "value": 0}, "group": "control_change"}, {"time": 2860, "annotation": {"number": 64, "value": 127}, "group": "control_change"}, {"time": 2906, "annotation": {"number": 64, "value": 0}, "group": "control_change"}, {"time": 2909, "annotation": {"number": 64, "value": 127}, "group": "control_change"}, {"time": 2955, "annotation": {"number": 64, "value": 0}, "group": "control_change"}, {"time": 2957, "annotation": {"number": 64, "value": 127}, "group": "control_change"}, {"time": 2974, "annotation": {"number": 64, "value": 0}, "group": "control_change"}, {"time": 2978, "annotation": {"number": 64, "value": 127}, "group": "control_change"}, {"time": 3003, "annotation": {"number": 64, "value": 0}, "group": "control_change"}, {"time": 3005, "annotation": {"number": 64, "value": 127}, "group": "control_change"}, {"time": 3027, "annotation": {"number": 64, "value": 0}, "group": "control_change"}, {"time": 3044, "annotation": {"number": 64, "value": 127}, "group": "control_change"}, {"time": 3089, "annotation": {"number": 64, "value": 0}, "group": "control_change"}, {"time": 3101, "annotation": {"number": 64, "value": 127}, "group": "control_change"}, {"time": 3123, "annotation": {"number": 64, "value": 0}, "group": "control_change"}, {"time": 3124, "annotation": {"number": 64, "value": 127}, "group": "control_change"}, {"time": 3147, "annotation": {"number": 64, "value": 0}, "group": "control_change"}, {"time": 3148, "annotation": {"number": 64, "value": 127}, "group": "control_change"}, {"time": 3171, "annotation": {"number": 64, "value": 0}, "group": "control_change"}, {"time": 3173, "annotation": {"number": 64, "value": 127}, "group": "control_change"}, {"time": 3195, "annotation": {"number": 64, "value": 0}, "group": "control_change"}, {"time": 3197, "annotation": {"number": 64, "value": 127}, "group": "control_change"}, {"time": 3215, "annotation": {"number": 64, "value": 0}, "group": "control_change"}]}]}