{"metadata": {"schema_version": "0.2", "title": "None", "source_filename": "814.mid", "source_format": "midi"}, "resolution": 12, "tempos": [{"time": 0, "qpm": 120.0}], "time_signatures": [{"time": 0, "numerator": 1, "denominator": 4}], "tracks": [{"program": 0, "is_drum": false, "name": "MELODY", "notes": [{"time": 400, "pitch": 70, "duration": 4, "velocity": 86}, {"time": 406, "pitch": 70, "duration": 3, "velocity": 88}, {"time": 412, "pitch": 70, "duration": 3, "velocity": 88}, {"time": 418, "pitch": 70, "duration": 4, "velocity": 89}, {"time": 424, "pitch": 70, "duration": 5, "velocity": 95}, {"time": 436, "pitch": 71, "duration": 9, "velocity": 91}, {"time": 448, "pitch": 71, "duration": 6, "velocity": 86}, {"time": 460, "pitch": 71, "duration": 3, "velocity": 85}, {"time": 466, "pitch": 71, "duration": 3, "velocity": 88}, {"time": 472, "pitch": 66, "duration": 6, "velocity": 85}, {"time": 484, "pitch": 61, "duration": 5, "velocity": 86}, {"time": 496, "pitch": 70, "duration": 4, "velocity": 85}, {"time": 502, "pitch": 70, "duration": 3, "velocity": 84}, {"time": 508, "pitch": 70, "duration": 4, "velocity": 86}, {"time": 514, "pitch": 70, "duration": 4, "velocity": 84}, {"time": 520, "pitch": 70, "duration": 10, "velocity": 85}, {"time": 532, "pitch": 68, "duration": 18, "velocity": 84}, {"time": 592, "pitch": 70, "duration": 4, "velocity": 87}, {"time": 598, "pitch": 70, "duration": 3, "velocity": 83}, {"time": 604, "pitch": 70, "duration": 4, "velocity": 85}, {"time": 610, "pitch": 70, "duration": 3, "velocity": 85}, {"time": 616, "pitch": 70, "duration": 5, "velocity": 85}, {"time": 628, "pitch": 71, "duration": 10, "velocity": 87}, {"time": 640, "pitch": 71, "duration": 12, "velocity": 83}, {"time": 652, "pitch": 71, "duration": 3, "velocity": 85}, {"time": 658, "pitch": 71, "duration": 4, "velocity": 84}, {"time": 664, "pitch": 66, "duration": 11, "velocity": 90}, {"time": 676, "pitch": 61, "duration": 4, "velocity": 91}, {"time": 688, "pitch": 70, "duration": 4, "velocity": 83}, {"time": 694, "pitch": 70, "duration": 4, "velocity": 85}, {"time": 700, "pitch": 70, "duration": 3, "velocity": 84}, {"time": 706, "pitch": 70, "duration": 4, "velocity": 84}, {"time": 712, "pitch": 73, "duration": 11, "velocity": 86}, {"time": 724, "pitch": 65, "duration": 33, "velocity": 89}, {"time": 784, "pitch": 71, "duration": 4, "velocity": 85}, {"time": 790, "pitch": 71, "duration": 3, "velocity": 80}, {"time": 796, "pitch": 71, "duration": 3, "velocity": 84}, {"time": 802, "pitch": 71, "duration": 3, "velocity": 80}, {"time": 808, "pitch": 71, "duration": 3, "velocity": 80}, {"time": 814, "pitch": 71, "duration": 3, "velocity": 84}, {"time": 820, "pitch": 71, "duration": 6, "velocity": 84}, {"time": 832, "pitch": 70, "duration": 3, "velocity": 84}, {"time": 838, "pitch": 70, "duration": 10, "velocity": 86}, {"time": 850, "pitch": 68, "duration": 4, "velocity": 83}, {"time": 856, "pitch": 66, "duration": 4, "velocity": 85}, {"time": 862, "pitch": 68, "duration": 4, "velocity": 86}, {"time": 868, "pitch": 68, "duration": 8, "velocity": 85}, {"time": 880, "pitch": 70, "duration": 4, "velocity": 85}, {"time": 886, "pitch": 70, "duration": 9, "velocity": 88}, {"time": 898, "pitch": 68, "duration": 4, "velocity": 83}, {"time": 904, "pitch": 68, "duration": 4, "velocity": 85}, {"time": 910, "pitch": 70, "duration": 3, "velocity": 85}, {"time": 916, "pitch": 66, "duration": 12, "velocity": 84}, {"time": 928, "pitch": 63, "duration": 15, "velocity": 85}, {"time": 976, "pitch": 71, "duration": 3, "velocity": 84}, {"time": 982, "pitch": 71, "duration": 3, "velocity": 85}, {"time": 988, "pitch": 71, "duration": 3, "velocity": 90}, {"time": 994, "pitch": 71, "duration": 3, "velocity": 82}, {"time": 1000, "pitch": 71, "duration": 4, "velocity": 86}, {"time": 1012, "pitch": 71, "duration": 9, "velocity": 90}, {"time": 1024, "pitch": 71, "duration": 3, "velocity": 86}, {"time": 1030, "pitch": 71, "duration": 3, "velocity": 85}, {"time": 1036, "pitch": 71, "duration": 3, "velocity": 88}, {"time": 1042, "pitch": 71, "duration": 6, "velocity": 91}, {"time": 1048, "pitch": 71, "duration": 6, "velocity": 91}, {"time": 1054, "pitch": 73, "duration": 4, "velocity": 84}, {"time": 1060, "pitch": 73, "duration": 42, "velocity": 85}, {"time": 1126, "pitch": 75, "duration": 4, "velocity": 93}, {"time": 1132, "pitch": 75, "duration": 4, "velocity": 93}, {"time": 1138, "pitch": 78, "duration": 5, "velocity": 91}, {"time": 1144, "pitch": 75, "duration": 3, "velocity": 101}, {"time": 1150, "pitch": 78, "duration": 5, "velocity": 86}, {"time": 1156, "pitch": 75, "duration": 4, "velocity": 95}, {"time": 1162, "pitch": 78, "duration": 12, "velocity": 88}, {"time": 1174, "pitch": 75, "duration": 13, "velocity": 98}, {"time": 1192, "pitch": 78, "duration": 3, "velocity": 85}, {"time": 1198, "pitch": 78, "duration": 5, "velocity": 88}, {"time": 1204, "pitch": 75, "duration": 4, "velocity": 95}, {"time": 1210, "pitch": 78, "duration": 12, "velocity": 86}, {"time": 1222, "pitch": 75, "duration": 11, "velocity": 95}, {"time": 1240, "pitch": 73, "duration": 3, "velocity": 87}, {"time": 1246, "pitch": 73, "duration": 3, "velocity": 86}, {"time": 1252, "pitch": 73, "duration": 4, "velocity": 87}, {"time": 1258, "pitch": 78, "duration": 9, "velocity": 85}, {"time": 1270, "pitch": 78, "duration": 9, "velocity": 85}, {"time": 1282, "pitch": 78, "duration": 4, "velocity": 83}, {"time": 1288, "pitch": 78, "duration": 10, "velocity": 86}, {"time": 1300, "pitch": 77, "duration": 23, "velocity": 90}, {"time": 1324, "pitch": 77, "duration": 3, "velocity": 87}, {"time": 1330, "pitch": 77, "duration": 3, "velocity": 90}, {"time": 1336, "pitch": 77, "duration": 3, "velocity": 90}, {"time": 1342, "pitch": 77, "duration": 3, "velocity": 86}, {"time": 1348, "pitch": 77, "duration": 4, "velocity": 86}, {"time": 1354, "pitch": 78, "duration": 11, "velocity": 86}, {"time": 1366, "pitch": 75, "duration": 12, "velocity": 95}, {"time": 1384, "pitch": 78, "duration": 4, "velocity": 85}, {"time": 1390, "pitch": 78, "duration": 5, "velocity": 86}, {"time": 1396, "pitch": 75, "duration": 4, "velocity": 91}, {"time": 1402, "pitch": 78, "duration": 11, "velocity": 85}, {"time": 1414, "pitch": 75, "duration": 10, "velocity": 91}, {"time": 1432, "pitch": 73, "duration": 2, "velocity": 84}, {"time": 1438, "pitch": 73, "duration": 3, "velocity": 91}, {"time": 1444, "pitch": 73, "duration": 3, "velocity": 91}, {"time": 1450, "pitch": 82, "duration": 3, "velocity": 90}, {"time": 1456, "pitch": 82, "duration": 3, "velocity": 87}, {"time": 1462, "pitch": 82, "duration": 3, "velocity": 86}, {"time": 1468, "pitch": 82, "duration": 9, "velocity": 86}, {"time": 1480, "pitch": 82, "duration": 10, "velocity": 86}, {"time": 1492, "pitch": 80, "duration": 30, "velocity": 85}, {"time": 1534, "pitch": 75, "duration": 4, "velocity": 89}, {"time": 1540, "pitch": 77, "duration": 4, "velocity": 90}, {"time": 1546, "pitch": 78, "duration": 5, "velocity": 86}, {"time": 1552, "pitch": 75, "duration": 4, "velocity": 95}, {"time": 1558, "pitch": 78, "duration": 5, "velocity": 90}, {"time": 1564, "pitch": 75, "duration": 4, "velocity": 88}, {"time": 1570, "pitch": 78, "duration": 5, "velocity": 86}, {"time": 1576, "pitch": 75, "duration": 7, "velocity": 95}, {"time": 1588, "pitch": 78, "duration": 11, "velocity": 88}, {"time": 1600, "pitch": 75, "duration": 3, "velocity": 89}, {"time": 1606, "pitch": 78, "duration": 4, "velocity": 90}, {"time": 1612, "pitch": 75, "duration": 3, "velocity": 91}, {"time": 1618, "pitch": 78, "duration": 5, "velocity": 90}, {"time": 1624, "pitch": 75, "duration": 7, "velocity": 95}, {"time": 1642, "pitch": 78, "duration": 4, "velocity": 86}, {"time": 1648, "pitch": 78, "duration": 4, "velocity": 83}, {"time": 1654, "pitch": 78, "duration": 3, "velocity": 86}, {"time": 1660, "pitch": 78, "duration": 4, "velocity": 85}, {"time": 1666, "pitch": 78, "duration": 3, "velocity": 83}, {"time": 1672, "pitch": 78, "duration": 10, "velocity": 88}, {"time": 1684, "pitch": 77, "duration": 21, "velocity": 91}, {"time": 1708, "pitch": 77, "duration": 3, "velocity": 88}, {"time": 1714, "pitch": 77, "duration": 4, "velocity": 88}, {"time": 1720, "pitch": 77, "duration": 9, "velocity": 95}, {"time": 1732, "pitch": 78, "duration": 11, "velocity": 88}, {"time": 1744, "pitch": 75, "duration": 3, "velocity": 87}, {"time": 1750, "pitch": 78, "duration": 5, "velocity": 86}, {"time": 1756, "pitch": 75, "duration": 4, "velocity": 87}, {"time": 1762, "pitch": 78, "duration": 5, "velocity": 86}, {"time": 1768, "pitch": 75, "duration": 8, "velocity": 91}, {"time": 1780, "pitch": 78, "duration": 12, "velocity": 86}, {"time": 1792, "pitch": 75, "duration": 4, "velocity": 91}, {"time": 1798, "pitch": 78, "duration": 5, "velocity": 88}, {"time": 1804, "pitch": 75, "duration": 3, "velocity": 95}, {"time": 1810, "pitch": 78, "duration": 5, "velocity": 88}, {"time": 1816, "pitch": 75, "duration": 8, "velocity": 95}, {"time": 1834, "pitch": 82, "duration": 3, "velocity": 86}, {"time": 1840, "pitch": 82, "duration": 3, "velocity": 83}, {"time": 1846, "pitch": 82, "duration": 3, "velocity": 82}, {"time": 1852, "pitch": 82, "duration": 3, "velocity": 84}, {"time": 1858, "pitch": 82, "duration": 3, "velocity": 84}, {"time": 1864, "pitch": 82, "duration": 10, "velocity": 86}, {"time": 1876, "pitch": 80, "duration": 16, "velocity": 86}, {"time": 1894, "pitch": 77, "duration": 3, "velocity": 91}, {"time": 1900, "pitch": 77, "duration": 3, "velocity": 84}, {"time": 1906, "pitch": 77, "duration": 3, "velocity": 86}, {"time": 1912, "pitch": 77, "duration": 10, "velocity": 91}, {"time": 1924, "pitch": 78, "duration": 68, "velocity": 85}, {"time": 2128, "pitch": 70, "duration": 4, "velocity": 86}, {"time": 2134, "pitch": 70, "duration": 3, "velocity": 88}, {"time": 2140, "pitch": 70, "duration": 3, "velocity": 88}, {"time": 2146, "pitch": 70, "duration": 4, "velocity": 89}, {"time": 2152, "pitch": 70, "duration": 5, "velocity": 95}, {"time": 2164, "pitch": 71, "duration": 9, "velocity": 91}, {"time": 2176, "pitch": 71, "duration": 6, "velocity": 86}, {"time": 2188, "pitch": 71, "duration": 3, "velocity": 85}, {"time": 2194, "pitch": 71, "duration": 3, "velocity": 88}, {"time": 2200, "pitch": 66, "duration": 6, "velocity": 85}, {"time": 2212, "pitch": 61, "duration": 5, "velocity": 86}, {"time": 2224, "pitch": 70, "duration": 4, "velocity": 85}, {"time": 2230, "pitch": 70, "duration": 3, "velocity": 84}, {"time": 2236, "pitch": 70, "duration": 4, "velocity": 86}, {"time": 2242, "pitch": 70, "duration": 4, "velocity": 84}, {"time": 2248, "pitch": 70, "duration": 10, "velocity": 85}, {"time": 2260, "pitch": 68, "duration": 18, "velocity": 84}, {"time": 2320, "pitch": 70, "duration": 4, "velocity": 87}, {"time": 2326, "pitch": 70, "duration": 3, "velocity": 83}, {"time": 2332, "pitch": 70, "duration": 4, "velocity": 85}, {"time": 2338, "pitch": 70, "duration": 3, "velocity": 85}, {"time": 2344, "pitch": 70, "duration": 5, "velocity": 85}, {"time": 2356, "pitch": 71, "duration": 10, "velocity": 87}, {"time": 2368, "pitch": 71, "duration": 12, "velocity": 83}, {"time": 2380, "pitch": 71, "duration": 3, "velocity": 85}, {"time": 2386, "pitch": 71, "duration": 4, "velocity": 84}, {"time": 2392, "pitch": 66, "duration": 11, "velocity": 90}, {"time": 2404, "pitch": 61, "duration": 4, "velocity": 91}, {"time": 2416, "pitch": 70, "duration": 4, "velocity": 83}, {"time": 2422, "pitch": 70, "duration": 4, "velocity": 85}, {"time": 2428, "pitch": 70, "duration": 3, "velocity": 84}, {"time": 2434, "pitch": 70, "duration": 4, "velocity": 84}, {"time": 2440, "pitch": 73, "duration": 11, "velocity": 86}, {"time": 2452, "pitch": 65, "duration": 33, "velocity": 89}, {"time": 2512, "pitch": 71, "duration": 4, "velocity": 85}, {"time": 2518, "pitch": 71, "duration": 3, "velocity": 80}, {"time": 2524, "pitch": 71, "duration": 3, "velocity": 84}, {"time": 2530, "pitch": 71, "duration": 3, "velocity": 80}, {"time": 2536, "pitch": 71, "duration": 3, "velocity": 80}, {"time": 2542, "pitch": 71, "duration": 3, "velocity": 84}, {"time": 2548, "pitch": 71, "duration": 6, "velocity": 84}, {"time": 2560, "pitch": 70, "duration": 3, "velocity": 84}, {"time": 2566, "pitch": 70, "duration": 10, "velocity": 86}, {"time": 2578, "pitch": 68, "duration": 4, "velocity": 83}, {"time": 2584, "pitch": 66, "duration": 4, "velocity": 85}, {"time": 2590, "pitch": 68, "duration": 4, "velocity": 86}, {"time": 2596, "pitch": 68, "duration": 8, "velocity": 85}, {"time": 2608, "pitch": 70, "duration": 4, "velocity": 85}, {"time": 2614, "pitch": 70, "duration": 9, "velocity": 88}, {"time": 2626, "pitch": 68, "duration": 4, "velocity": 83}, {"time": 2632, "pitch": 68, "duration": 4, "velocity": 85}, {"time": 2638, "pitch": 70, "duration": 3, "velocity": 85}, {"time": 2644, "pitch": 66, "duration": 12, "velocity": 84}, {"time": 2656, "pitch": 63, "duration": 15, "velocity": 85}, {"time": 2704, "pitch": 71, "duration": 3, "velocity": 84}, {"time": 2710, "pitch": 71, "duration": 3, "velocity": 85}, {"time": 2716, "pitch": 71, "duration": 3, "velocity": 90}, {"time": 2722, "pitch": 71, "duration": 3, "velocity": 82}, {"time": 2728, "pitch": 71, "duration": 4, "velocity": 86}, {"time": 2740, "pitch": 71, "duration": 9, "velocity": 90}, {"time": 2752, "pitch": 71, "duration": 3, "velocity": 86}, {"time": 2758, "pitch": 71, "duration": 3, "velocity": 85}, {"time": 2764, "pitch": 71, "duration": 3, "velocity": 88}, {"time": 2770, "pitch": 71, "duration": 6, "velocity": 91}, {"time": 2776, "pitch": 71, "duration": 6, "velocity": 91}, {"time": 2782, "pitch": 73, "duration": 4, "velocity": 84}, {"time": 2788, "pitch": 73, "duration": 42, "velocity": 85}, {"time": 2854, "pitch": 75, "duration": 4, "velocity": 93}, {"time": 2860, "pitch": 75, "duration": 4, "velocity": 93}, {"time": 2866, "pitch": 78, "duration": 5, "velocity": 91}, {"time": 2872, "pitch": 75, "duration": 3, "velocity": 101}, {"time": 2878, "pitch": 78, "duration": 5, "velocity": 86}, {"time": 2884, "pitch": 75, "duration": 4, "velocity": 95}, {"time": 2890, "pitch": 78, "duration": 12, "velocity": 88}, {"time": 2902, "pitch": 75, "duration": 13, "velocity": 98}, {"time": 2920, "pitch": 78, "duration": 3, "velocity": 85}, {"time": 2926, "pitch": 78, "duration": 5, "velocity": 88}, {"time": 2932, "pitch": 75, "duration": 4, "velocity": 95}, {"time": 2938, "pitch": 78, "duration": 12, "velocity": 86}, {"time": 2950, "pitch": 75, "duration": 11, "velocity": 95}, {"time": 2968, "pitch": 73, "duration": 3, "velocity": 87}, {"time": 2974, "pitch": 73, "duration": 3, "velocity": 86}, {"time": 2980, "pitch": 73, "duration": 4, "velocity": 87}, {"time": 2986, "pitch": 78, "duration": 9, "velocity": 85}, {"time": 2998, "pitch": 78, "duration": 9, "velocity": 85}, {"time": 3010, "pitch": 78, "duration": 4, "velocity": 83}, {"time": 3016, "pitch": 78, "duration": 10, "velocity": 86}, {"time": 3028, "pitch": 77, "duration": 23, "velocity": 90}, {"time": 3052, "pitch": 77, "duration": 3, "velocity": 87}, {"time": 3058, "pitch": 77, "duration": 3, "velocity": 90}, {"time": 3064, "pitch": 77, "duration": 3, "velocity": 90}, {"time": 3070, "pitch": 77, "duration": 3, "velocity": 86}, {"time": 3076, "pitch": 77, "duration": 4, "velocity": 86}, {"time": 3082, "pitch": 78, "duration": 11, "velocity": 86}, {"time": 3094, "pitch": 75, "duration": 12, "velocity": 95}, {"time": 3112, "pitch": 78, "duration": 4, "velocity": 85}, {"time": 3118, "pitch": 78, "duration": 5, "velocity": 86}, {"time": 3124, "pitch": 75, "duration": 4, "velocity": 91}, {"time": 3130, "pitch": 78, "duration": 11, "velocity": 85}, {"time": 3142, "pitch": 75, "duration": 10, "velocity": 91}, {"time": 3160, "pitch": 73, "duration": 2, "velocity": 84}, {"time": 3166, "pitch": 73, "duration": 3, "velocity": 91}, {"time": 3172, "pitch": 73, "duration": 3, "velocity": 91}, {"time": 3178, "pitch": 82, "duration": 3, "velocity": 90}, {"time": 3184, "pitch": 82, "duration": 3, "velocity": 87}, {"time": 3190, "pitch": 82, "duration": 3, "velocity": 86}, {"time": 3196, "pitch": 82, "duration": 9, "velocity": 86}, {"time": 3208, "pitch": 82, "duration": 10, "velocity": 86}, {"time": 3220, "pitch": 80, "duration": 30, "velocity": 85}, {"time": 3262, "pitch": 75, "duration": 4, "velocity": 89}, {"time": 3268, "pitch": 77, "duration": 4, "velocity": 90}, {"time": 3274, "pitch": 78, "duration": 5, "velocity": 86}, {"time": 3280, "pitch": 75, "duration": 4, "velocity": 95}, {"time": 3286, "pitch": 78, "duration": 5, "velocity": 90}, {"time": 3292, "pitch": 75, "duration": 4, "velocity": 88}, {"time": 3298, "pitch": 78, "duration": 5, "velocity": 86}, {"time": 3304, "pitch": 75, "duration": 7, "velocity": 95}, {"time": 3316, "pitch": 78, "duration": 11, "velocity": 88}, {"time": 3328, "pitch": 75, "duration": 3, "velocity": 89}, {"time": 3334, "pitch": 78, "duration": 4, "velocity": 90}, {"time": 3340, "pitch": 75, "duration": 3, "velocity": 91}, {"time": 3346, "pitch": 78, "duration": 5, "velocity": 90}, {"time": 3352, "pitch": 75, "duration": 7, "velocity": 95}, {"time": 3370, "pitch": 78, "duration": 4, "velocity": 86}, {"time": 3376, "pitch": 78, "duration": 4, "velocity": 83}, {"time": 3382, "pitch": 78, "duration": 3, "velocity": 86}, {"time": 3388, "pitch": 78, "duration": 4, "velocity": 85}, {"time": 3394, "pitch": 78, "duration": 3, "velocity": 83}, {"time": 3400, "pitch": 78, "duration": 10, "velocity": 88}, {"time": 3412, "pitch": 77, "duration": 21, "velocity": 91}, {"time": 3436, "pitch": 77, "duration": 3, "velocity": 88}, {"time": 3442, "pitch": 77, "duration": 4, "velocity": 88}, {"time": 3448, "pitch": 77, "duration": 9, "velocity": 95}, {"time": 3460, "pitch": 78, "duration": 11, "velocity": 88}, {"time": 3472, "pitch": 75, "duration": 3, "velocity": 87}, {"time": 3478, "pitch": 78, "duration": 5, "velocity": 86}, {"time": 3484, "pitch": 75, "duration": 4, "velocity": 87}, {"time": 3490, "pitch": 78, "duration": 5, "velocity": 86}, {"time": 3496, "pitch": 75, "duration": 8, "velocity": 91}, {"time": 3508, "pitch": 78, "duration": 12, "velocity": 86}, {"time": 3520, "pitch": 75, "duration": 4, "velocity": 91}, {"time": 3526, "pitch": 78, "duration": 5, "velocity": 88}, {"time": 3532, "pitch": 75, "duration": 3, "velocity": 95}, {"time": 3538, "pitch": 78, "duration": 5, "velocity": 88}, {"time": 3544, "pitch": 75, "duration": 8, "velocity": 95}, {"time": 3562, "pitch": 82, "duration": 3, "velocity": 86}, {"time": 3568, "pitch": 82, "duration": 3, "velocity": 83}, {"time": 3574, "pitch": 82, "duration": 3, "velocity": 82}, {"time": 3580, "pitch": 82, "duration": 3, "velocity": 84}, {"time": 3586, "pitch": 82, "duration": 3, "velocity": 84}, {"time": 3592, "pitch": 82, "duration": 10, "velocity": 86}, {"time": 3604, "pitch": 80, "duration": 16, "velocity": 86}, {"time": 3622, "pitch": 77, "duration": 3, "velocity": 91}, {"time": 3628, "pitch": 77, "duration": 3, "velocity": 84}, {"time": 3634, "pitch": 77, "duration": 3, "velocity": 86}, {"time": 3640, "pitch": 77, "duration": 10, "velocity": 91}, {"time": 3652, "pitch": 78, "duration": 68, "velocity": 85}, {"time": 3862, "pitch": 78, "duration": 4, "velocity": 85}, {"time": 3868, "pitch": 78, "duration": 7, "velocity": 88}, {"time": 3874, "pitch": 77, "duration": 6, "velocity": 84}, {"time": 3880, "pitch": 75, "duration": 8, "velocity": 86}, {"time": 3892, "pitch": 78, "duration": 10, "velocity": 88}, {"time": 3904, "pitch": 78, "duration": 3, "velocity": 84}, {"time": 3910, "pitch": 78, "duration": 3, "velocity": 85}, {"time": 3916, "pitch": 78, "duration": 5, "velocity": 84}, {"time": 3922, "pitch": 77, "duration": 4, "velocity": 88}, {"time": 3928, "pitch": 75, "duration": 7, "velocity": 95}, {"time": 3952, "pitch": 73, "duration": 2, "velocity": 95}, {"time": 3958, "pitch": 73, "duration": 3, "velocity": 86}, {"time": 3964, "pitch": 73, "duration": 3, "velocity": 85}, {"time": 3970, "pitch": 73, "duration": 4, "velocity": 84}, {"time": 3976, "pitch": 75, "duration": 10, "velocity": 91}, {"time": 3988, "pitch": 73, "duration": 6, "velocity": 86}, {"time": 3994, "pitch": 68, "duration": 5, "velocity": 85}, {"time": 4000, "pitch": 70, "duration": 18, "velocity": 85}, {"time": 4048, "pitch": 71, "duration": 4, "velocity": 84}, {"time": 4054, "pitch": 71, "duration": 4, "velocity": 86}, {"time": 4060, "pitch": 71, "duration": 4, "velocity": 85}, {"time": 4066, "pitch": 71, "duration": 4, "velocity": 90}, {"time": 4072, "pitch": 71, "duration": 9, "velocity": 89}, {"time": 4084, "pitch": 78, "duration": 30, "velocity": 88}, {"time": 4132, "pitch": 71, "duration": 4, "velocity": 93}, {"time": 4138, "pitch": 73, "duration": 3, "velocity": 81}, {"time": 4144, "pitch": 73, "duration": 3, "velocity": 85}, {"time": 4150, "pitch": 73, "duration": 4, "velocity": 86}, {"time": 4156, "pitch": 73, "duration": 3, "velocity": 84}, {"time": 4162, "pitch": 73, "duration": 4, "velocity": 86}, {"time": 4168, "pitch": 75, "duration": 10, "velocity": 90}, {"time": 4180, "pitch": 73, "duration": 18, "velocity": 86}, {"time": 4210, "pitch": 78, "duration": 5, "velocity": 91}, {"time": 4216, "pitch": 75, "duration": 3, "velocity": 101}, {"time": 4222, "pitch": 78, "duration": 5, "velocity": 86}, {"time": 4228, "pitch": 75, "duration": 4, "velocity": 95}, {"time": 4234, "pitch": 78, "duration": 12, "velocity": 88}, {"time": 4246, "pitch": 75, "duration": 13, "velocity": 98}, {"time": 4264, "pitch": 78, "duration": 3, "velocity": 85}, {"time": 4270, "pitch": 78, "duration": 5, "velocity": 88}, {"time": 4276, "pitch": 75, "duration": 4, "velocity": 95}, {"time": 4282, "pitch": 78, "duration": 12, "velocity": 86}, {"time": 4294, "pitch": 75, "duration": 11, "velocity": 95}, {"time": 4312, "pitch": 73, "duration": 3, "velocity": 87}, {"time": 4318, "pitch": 73, "duration": 3, "velocity": 86}, {"time": 4324, "pitch": 73, "duration": 4, "velocity": 87}, {"time": 4330, "pitch": 78, "duration": 9, "velocity": 85}, {"time": 4342, "pitch": 78, "duration": 9, "velocity": 85}, {"time": 4354, "pitch": 78, "duration": 4, "velocity": 83}, {"time": 4360, "pitch": 78, "duration": 10, "velocity": 86}, {"time": 4372, "pitch": 77, "duration": 23, "velocity": 90}, {"time": 4396, "pitch": 77, "duration": 3, "velocity": 87}, {"time": 4402, "pitch": 77, "duration": 3, "velocity": 90}, {"time": 4408, "pitch": 77, "duration": 3, "velocity": 90}, {"time": 4414, "pitch": 77, "duration": 3, "velocity": 86}, {"time": 4420, "pitch": 77, "duration": 4, "velocity": 86}, {"time": 4426, "pitch": 78, "duration": 11, "velocity": 86}, {"time": 4438, "pitch": 75, "duration": 12, "velocity": 95}, {"time": 4456, "pitch": 78, "duration": 4, "velocity": 85}, {"time": 4462, "pitch": 78, "duration": 5, "velocity": 86}, {"time": 4468, "pitch": 75, "duration": 4, "velocity": 91}, {"time": 4474, "pitch": 78, "duration": 11, "velocity": 85}, {"time": 4486, "pitch": 75, "duration": 10, "velocity": 91}, {"time": 4504, "pitch": 73, "duration": 2, "velocity": 84}, {"time": 4510, "pitch": 73, "duration": 3, "velocity": 91}, {"time": 4516, "pitch": 73, "duration": 3, "velocity": 91}, {"time": 4522, "pitch": 82, "duration": 3, "velocity": 90}, {"time": 4528, "pitch": 82, "duration": 3, "velocity": 87}, {"time": 4534, "pitch": 82, "duration": 3, "velocity": 86}, {"time": 4540, "pitch": 82, "duration": 9, "velocity": 86}, {"time": 4552, "pitch": 82, "duration": 10, "velocity": 86}, {"time": 4564, "pitch": 80, "duration": 30, "velocity": 85}, {"time": 4606, "pitch": 75, "duration": 4, "velocity": 89}, {"time": 4612, "pitch": 77, "duration": 4, "velocity": 90}, {"time": 4618, "pitch": 78, "duration": 5, "velocity": 86}, {"time": 4624, "pitch": 75, "duration": 4, "velocity": 95}, {"time": 4630, "pitch": 78, "duration": 5, "velocity": 90}, {"time": 4636, "pitch": 75, "duration": 4, "velocity": 88}, {"time": 4642, "pitch": 78, "duration": 5, "velocity": 86}, {"time": 4648, "pitch": 75, "duration": 7, "velocity": 95}, {"time": 4660, "pitch": 78, "duration": 11, "velocity": 88}, {"time": 4672, "pitch": 75, "duration": 3, "velocity": 89}, {"time": 4678, "pitch": 78, "duration": 4, "velocity": 90}, {"time": 4684, "pitch": 75, "duration": 3, "velocity": 91}, {"time": 4690, "pitch": 78, "duration": 5, "velocity": 90}, {"time": 4696, "pitch": 75, "duration": 7, "velocity": 95}, {"time": 4714, "pitch": 78, "duration": 4, "velocity": 86}, {"time": 4720, "pitch": 78, "duration": 4, "velocity": 83}, {"time": 4726, "pitch": 78, "duration": 3, "velocity": 86}, {"time": 4732, "pitch": 78, "duration": 4, "velocity": 85}, {"time": 4738, "pitch": 78, "duration": 3, "velocity": 83}, {"time": 4744, "pitch": 78, "duration": 10, "velocity": 88}, {"time": 4756, "pitch": 77, "duration": 21, "velocity": 91}, {"time": 4780, "pitch": 77, "duration": 3, "velocity": 88}, {"time": 4786, "pitch": 77, "duration": 4, "velocity": 88}, {"time": 4792, "pitch": 77, "duration": 9, "velocity": 95}, {"time": 4804, "pitch": 78, "duration": 11, "velocity": 88}, {"time": 4816, "pitch": 75, "duration": 3, "velocity": 87}, {"time": 4822, "pitch": 78, "duration": 5, "velocity": 86}, {"time": 4828, "pitch": 75, "duration": 4, "velocity": 87}, {"time": 4834, "pitch": 78, "duration": 5, "velocity": 86}, {"time": 4840, "pitch": 75, "duration": 8, "velocity": 91}, {"time": 4852, "pitch": 78, "duration": 12, "velocity": 86}, {"time": 4864, "pitch": 75, "duration": 4, "velocity": 91}, {"time": 4870, "pitch": 78, "duration": 5, "velocity": 88}, {"time": 4876, "pitch": 75, "duration": 3, "velocity": 95}, {"time": 4882, "pitch": 78, "duration": 5, "velocity": 88}, {"time": 4888, "pitch": 75, "duration": 8, "velocity": 95}, {"time": 4906, "pitch": 82, "duration": 3, "velocity": 86}, {"time": 4912, "pitch": 82, "duration": 3, "velocity": 83}, {"time": 4918, "pitch": 82, "duration": 3, "velocity": 82}, {"time": 4924, "pitch": 82, "duration": 3, "velocity": 84}, {"time": 4930, "pitch": 82, "duration": 3, "velocity": 84}, {"time": 4936, "pitch": 82, "duration": 10, "velocity": 86}, {"time": 4948, "pitch": 80, "duration": 16, "velocity": 86}, {"time": 4966, "pitch": 77, "duration": 3, "velocity": 91}, {"time": 4972, "pitch": 77, "duration": 3, "velocity": 84}, {"time": 4978, "pitch": 77, "duration": 3, "velocity": 86}, {"time": 4984, "pitch": 77, "duration": 10, "velocity": 91}, {"time": 4996, "pitch": 80, "duration": 24, "velocity": 85}, {"time": 5020, "pitch": 78, "duration": 84, "velocity": 85}]}, {"program": 0, "is_drum": false, "name": "PIANO", "notes": [{"time": 10, "pitch": 39, "duration": 12, "velocity": 87}, {"time": 10, "pitch": 51, "duration": 13, "velocity": 79}, {"time": 10, "pitch": 58, "duration": 14, "velocity": 80}, {"time": 58, "pitch": 47, "duration": 25, "velocity": 83}, {"time": 58, "pitch": 54, "duration": 24, "velocity": 76}, {"time": 58, "pitch": 59, "duration": 24, "velocity": 77}, {"time": 106, "pitch": 42, "duration": 37, "velocity": 84}, {"time": 106, "pitch": 54, "duration": 26, "velocity": 73}, {"time": 106, "pitch": 58, "duration": 26, "velocity": 74}, {"time": 154, "pitch": 37, "duration": 20, "velocity": 80}, {"time": 154, "pitch": 56, "duration": 8, "velocity": 74}, {"time": 154, "pitch": 61, "duration": 8, "velocity": 80}, {"time": 190, "pitch": 49, "duration": 10, "velocity": 79}, {"time": 190, "pitch": 53, "duration": 10, "velocity": 82}, {"time": 190, "pitch": 56, "duration": 10, "velocity": 82}, {"time": 202, "pitch": 51, "duration": 14, "velocity": 88}, {"time": 202, "pitch": 58, "duration": 2, "velocity": 79}, {"time": 202, "pitch": 63, "duration": 5, "velocity": 86}, {"time": 202, "pitch": 66, "duration": 7, "velocity": 85}, {"time": 208, "pitch": 58, "duration": 2, "velocity": 80}, {"time": 214, "pitch": 58, "duration": 2, "velocity": 85}, {"time": 214, "pitch": 63, "duration": 4, "velocity": 91}, {"time": 214, "pitch": 66, "duration": 7, "velocity": 88}, {"time": 220, "pitch": 58, "duration": 3, "velocity": 73}, {"time": 226, "pitch": 51, "duration": 12, "velocity": 85}, {"time": 226, "pitch": 58, "duration": 3, "velocity": 81}, {"time": 226, "pitch": 63, "duration": 8, "velocity": 85}, {"time": 232, "pitch": 58, "duration": 3, "velocity": 75}, {"time": 238, "pitch": 58, "duration": 2, "velocity": 81}, {"time": 238, "pitch": 63, "duration": 6, "velocity": 88}, {"time": 238, "pitch": 66, "duration": 7, "velocity": 87}, {"time": 244, "pitch": 58, "duration": 3, "velocity": 80}, {"time": 250, "pitch": 47, "duration": 16, "velocity": 85}, {"time": 250, "pitch": 59, "duration": 4, "velocity": 86}, {"time": 250, "pitch": 63, "duration": 8, "velocity": 85}, {"time": 256, "pitch": 54, "duration": 10, "velocity": 64}, {"time": 256, "pitch": 59, "duration": 2, "velocity": 71}, {"time": 262, "pitch": 59, "duration": 3, "velocity": 91}, {"time": 262, "pitch": 63, "duration": 3, "velocity": 87}, {"time": 262, "pitch": 66, "duration": 5, "velocity": 85}, {"time": 268, "pitch": 59, "duration": 3, "velocity": 75}, {"time": 274, "pitch": 59, "duration": 3, "velocity": 76}, {"time": 274, "pitch": 63, "duration": 8, "velocity": 79}, {"time": 280, "pitch": 59, "duration": 3, "velocity": 69}, {"time": 286, "pitch": 47, "duration": 2, "velocity": 80}, {"time": 286, "pitch": 54, "duration": 2, "velocity": 83}, {"time": 286, "pitch": 59, "duration": 3, "velocity": 84}, {"time": 286, "pitch": 63, "duration": 4, "velocity": 84}, {"time": 286, "pitch": 66, "duration": 8, "velocity": 82}, {"time": 292, "pitch": 59, "duration": 3, "velocity": 76}, {"time": 298, "pitch": 42, "duration": 16, "velocity": 85}, {"time": 298, "pitch": 58, "duration": 4, "velocity": 79}, {"time": 298, "pitch": 61, "duration": 8, "velocity": 82}, {"time": 304, "pitch": 58, "duration": 3, "velocity": 79}, {"time": 310, "pitch": 61, "duration": 4, "velocity": 89}, {"time": 310, "pitch": 66, "duration": 4, "velocity": 83}, {"time": 316, "pitch": 58, "duration": 2, "velocity": 74}, {"time": 322, "pitch": 58, "duration": 2, "velocity": 78}, {"time": 322, "pitch": 61, "duration": 5, "velocity": 85}, {"time": 322, "pitch": 66, "duration": 8, "velocity": 78}, {"time": 328, "pitch": 58, "duration": 4, "velocity": 70}, {"time": 334, "pitch": 42, "duration": 3, "velocity": 84}, {"time": 334, "pitch": 61, "duration": 5, "velocity": 88}, {"time": 334, "pitch": 66, "duration": 8, "velocity": 84}, {"time": 340, "pitch": 58, "duration": 2, "velocity": 81}, {"time": 346, "pitch": 49, "duration": 16, "velocity": 89}, {"time": 346, "pitch": 56, "duration": 3, "velocity": 84}, {"time": 346, "pitch": 61, "duration": 7, "velocity": 85}, {"time": 352, "pitch": 56, "duration": 3, "velocity": 83}, {"time": 358, "pitch": 61, "duration": 7, "velocity": 87}, {"time": 358, "pitch": 65, "duration": 7, "velocity": 93}, {"time": 364, "pitch": 56, "duration": 3, "velocity": 84}, {"time": 370, "pitch": 61, "duration": 4, "velocity": 79}, {"time": 370, "pitch": 65, "duration": 4, "velocity": 82}, {"time": 376, "pitch": 56, "duration": 3, "velocity": 80}, {"time": 382, "pitch": 49, "duration": 11, "velocity": 89}, {"time": 382, "pitch": 56, "duration": 2, "velocity": 84}, {"time": 382, "pitch": 61, "duration": 9, "velocity": 85}, {"time": 388, "pitch": 56, "duration": 3, "velocity": 84}, {"time": 394, "pitch": 39, "duration": 3, "velocity": 86}, {"time": 394, "pitch": 58, "duration": 9, "velocity": 80}, {"time": 394, "pitch": 63, "duration": 8, "velocity": 80}, {"time": 400, "pitch": 39, "duration": 3, "velocity": 84}, {"time": 406, "pitch": 39, "duration": 3, "velocity": 81}, {"time": 406, "pitch": 63, "duration": 16, "velocity": 84}, {"time": 406, "pitch": 66, "duration": 17, "velocity": 85}, {"time": 412, "pitch": 39, "duration": 3, "velocity": 78}, {"time": 418, "pitch": 39, "duration": 3, "velocity": 79}, {"time": 424, "pitch": 39, "duration": 3, "velocity": 81}, {"time": 430, "pitch": 39, "duration": 3, "velocity": 79}, {"time": 430, "pitch": 58, "duration": 3, "velocity": 81}, {"time": 430, "pitch": 63, "duration": 8, "velocity": 85}, {"time": 430, "pitch": 66, "duration": 8, "velocity": 82}, {"time": 436, "pitch": 39, "duration": 3, "velocity": 80}, {"time": 436, "pitch": 58, "duration": 4, "velocity": 83}, {"time": 442, "pitch": 47, "duration": 2, "velocity": 79}, {"time": 442, "pitch": 59, "duration": 4, "velocity": 72}, {"time": 442, "pitch": 63, "duration": 8, "velocity": 85}, {"time": 448, "pitch": 47, "duration": 3, "velocity": 78}, {"time": 454, "pitch": 47, "duration": 3, "velocity": 78}, {"time": 454, "pitch": 59, "duration": 5, "velocity": 82}, {"time": 454, "pitch": 66, "duration": 6, "velocity": 85}, {"time": 460, "pitch": 47, "duration": 3, "velocity": 79}, {"time": 466, "pitch": 47, "duration": 2, "velocity": 80}, {"time": 472, "pitch": 47, "duration": 3, "velocity": 83}, {"time": 472, "pitch": 59, "duration": 3, "velocity": 86}, {"time": 478, "pitch": 47, "duration": 3, "velocity": 83}, {"time": 478, "pitch": 59, "duration": 3, "velocity": 87}, {"time": 478, "pitch": 63, "duration": 6, "velocity": 86}, {"time": 484, "pitch": 47, "duration": 3, "velocity": 79}, {"time": 490, "pitch": 42, "duration": 3, "velocity": 80}, {"time": 490, "pitch": 58, "duration": 10, "velocity": 84}, {"time": 490, "pitch": 61, "duration": 10, "velocity": 85}, {"time": 496, "pitch": 42, "duration": 3, "velocity": 79}, {"time": 502, "pitch": 42, "duration": 3, "velocity": 76}, {"time": 502, "pitch": 58, "duration": 6, "velocity": 85}, {"time": 502, "pitch": 61, "duration": 7, "velocity": 86}, {"time": 502, "pitch": 66, "duration": 9, "velocity": 84}, {"time": 508, "pitch": 42, "duration": 3, "velocity": 74}, {"time": 514, "pitch": 42, "duration": 3, "velocity": 76}, {"time": 520, "pitch": 42, "duration": 3, "velocity": 79}, {"time": 520, "pitch": 58, "duration": 4, "velocity": 80}, {"time": 520, "pitch": 61, "duration": 2, "velocity": 75}, {"time": 526, "pitch": 42, "duration": 3, "velocity": 77}, {"time": 526, "pitch": 58, "duration": 4, "velocity": 78}, {"time": 526, "pitch": 61, "duration": 7, "velocity": 85}, {"time": 526, "pitch": 66, "duration": 8, "velocity": 88}, {"time": 532, "pitch": 42, "duration": 2, "velocity": 80}, {"time": 532, "pitch": 58, "duration": 2, "velocity": 71}, {"time": 538, "pitch": 37, "duration": 3, "velocity": 82}, {"time": 538, "pitch": 56, "duration": 5, "velocity": 85}, {"time": 538, "pitch": 61, "duration": 7, "velocity": 84}, {"time": 544, "pitch": 37, "duration": 2, "velocity": 74}, {"time": 544, "pitch": 56, "duration": 3, "velocity": 80}, {"time": 550, "pitch": 37, "duration": 3, "velocity": 76}, {"time": 550, "pitch": 56, "duration": 4, "velocity": 74}, {"time": 550, "pitch": 61, "duration": 4, "velocity": 86}, {"time": 550, "pitch": 65, "duration": 4, "velocity": 85}, {"time": 556, "pitch": 37, "duration": 3, "velocity": 73}, {"time": 562, "pitch": 37, "duration": 3, "velocity": 72}, {"time": 568, "pitch": 37, "duration": 3, "velocity": 78}, {"time": 568, "pitch": 56, "duration": 3, "velocity": 84}, {"time": 574, "pitch": 37, "duration": 3, "velocity": 72}, {"time": 574, "pitch": 61, "duration": 11, "velocity": 89}, {"time": 574, "pitch": 65, "duration": 10, "velocity": 91}, {"time": 580, "pitch": 37, "duration": 3, "velocity": 74}, {"time": 580, "pitch": 56, "duration": 4, "velocity": 84}, {"time": 586, "pitch": 39, "duration": 3, "velocity": 86}, {"time": 586, "pitch": 58, "duration": 9, "velocity": 80}, {"time": 586, "pitch": 63, "duration": 8, "velocity": 80}, {"time": 592, "pitch": 39, "duration": 3, "velocity": 84}, {"time": 598, "pitch": 39, "duration": 3, "velocity": 81}, {"time": 598, "pitch": 63, "duration": 16, "velocity": 84}, {"time": 598, "pitch": 66, "duration": 17, "velocity": 85}, {"time": 604, "pitch": 39, "duration": 3, "velocity": 78}, {"time": 610, "pitch": 39, "duration": 3, "velocity": 79}, {"time": 616, "pitch": 39, "duration": 3, "velocity": 81}, {"time": 622, "pitch": 39, "duration": 3, "velocity": 79}, {"time": 622, "pitch": 58, "duration": 3, "velocity": 81}, {"time": 622, "pitch": 63, "duration": 8, "velocity": 85}, {"time": 622, "pitch": 66, "duration": 8, "velocity": 82}, {"time": 628, "pitch": 39, "duration": 3, "velocity": 80}, {"time": 628, "pitch": 58, "duration": 4, "velocity": 83}, {"time": 634, "pitch": 47, "duration": 2, "velocity": 79}, {"time": 634, "pitch": 59, "duration": 4, "velocity": 72}, {"time": 634, "pitch": 63, "duration": 8, "velocity": 85}, {"time": 640, "pitch": 47, "duration": 3, "velocity": 78}, {"time": 646, "pitch": 47, "duration": 3, "velocity": 78}, {"time": 646, "pitch": 59, "duration": 5, "velocity": 82}, {"time": 646, "pitch": 66, "duration": 6, "velocity": 85}, {"time": 652, "pitch": 47, "duration": 3, "velocity": 79}, {"time": 658, "pitch": 47, "duration": 2, "velocity": 80}, {"time": 664, "pitch": 47, "duration": 3, "velocity": 83}, {"time": 664, "pitch": 59, "duration": 3, "velocity": 86}, {"time": 670, "pitch": 47, "duration": 3, "velocity": 83}, {"time": 670, "pitch": 59, "duration": 3, "velocity": 87}, {"time": 670, "pitch": 63, "duration": 6, "velocity": 86}, {"time": 676, "pitch": 47, "duration": 3, "velocity": 79}, {"time": 682, "pitch": 42, "duration": 3, "velocity": 80}, {"time": 682, "pitch": 58, "duration": 10, "velocity": 84}, {"time": 682, "pitch": 61, "duration": 10, "velocity": 85}, {"time": 688, "pitch": 42, "duration": 3, "velocity": 79}, {"time": 694, "pitch": 42, "duration": 3, "velocity": 76}, {"time": 694, "pitch": 58, "duration": 6, "velocity": 85}, {"time": 694, "pitch": 61, "duration": 7, "velocity": 86}, {"time": 694, "pitch": 66, "duration": 9, "velocity": 84}, {"time": 700, "pitch": 42, "duration": 3, "velocity": 74}, {"time": 706, "pitch": 42, "duration": 3, "velocity": 76}, {"time": 712, "pitch": 42, "duration": 3, "velocity": 79}, {"time": 712, "pitch": 58, "duration": 4, "velocity": 80}, {"time": 712, "pitch": 61, "duration": 2, "velocity": 75}, {"time": 718, "pitch": 42, "duration": 3, "velocity": 77}, {"time": 718, "pitch": 58, "duration": 4, "velocity": 78}, {"time": 718, "pitch": 61, "duration": 7, "velocity": 85}, {"time": 718, "pitch": 66, "duration": 8, "velocity": 88}, {"time": 724, "pitch": 42, "duration": 2, "velocity": 80}, {"time": 724, "pitch": 58, "duration": 2, "velocity": 71}, {"time": 730, "pitch": 37, "duration": 3, "velocity": 82}, {"time": 730, "pitch": 56, "duration": 5, "velocity": 85}, {"time": 730, "pitch": 61, "duration": 7, "velocity": 84}, {"time": 736, "pitch": 37, "duration": 2, "velocity": 74}, {"time": 736, "pitch": 56, "duration": 3, "velocity": 80}, {"time": 742, "pitch": 37, "duration": 3, "velocity": 76}, {"time": 742, "pitch": 56, "duration": 4, "velocity": 74}, {"time": 742, "pitch": 61, "duration": 4, "velocity": 86}, {"time": 742, "pitch": 65, "duration": 4, "velocity": 85}, {"time": 748, "pitch": 37, "duration": 3, "velocity": 73}, {"time": 754, "pitch": 37, "duration": 3, "velocity": 72}, {"time": 760, "pitch": 37, "duration": 3, "velocity": 78}, {"time": 760, "pitch": 56, "duration": 3, "velocity": 84}, {"time": 766, "pitch": 37, "duration": 3, "velocity": 72}, {"time": 766, "pitch": 61, "duration": 11, "velocity": 89}, {"time": 766, "pitch": 65, "duration": 10, "velocity": 91}, {"time": 772, "pitch": 37, "duration": 3, "velocity": 74}, {"time": 772, "pitch": 56, "duration": 4, "velocity": 84}, {"time": 778, "pitch": 44, "duration": 3, "velocity": 85}, {"time": 778, "pitch": 56, "duration": 9, "velocity": 74}, {"time": 778, "pitch": 59, "duration": 9, "velocity": 75}, {"time": 778, "pitch": 63, "duration": 9, "velocity": 81}, {"time": 784, "pitch": 44, "duration": 3, "velocity": 79}, {"time": 790, "pitch": 44, "duration": 3, "velocity": 77}, {"time": 790, "pitch": 56, "duration": 7, "velocity": 77}, {"time": 790, "pitch": 59, "duration": 8, "velocity": 73}, {"time": 790, "pitch": 63, "duration": 7, "velocity": 82}, {"time": 796, "pitch": 44, "duration": 3, "velocity": 76}, {"time": 802, "pitch": 44, "duration": 3, "velocity": 73}, {"time": 808, "pitch": 44, "duration": 3, "velocity": 78}, {"time": 808, "pitch": 56, "duration": 4, "velocity": 72}, {"time": 814, "pitch": 44, "duration": 3, "velocity": 77}, {"time": 814, "pitch": 56, "duration": 2, "velocity": 82}, {"time": 814, "pitch": 59, "duration": 5, "velocity": 86}, {"time": 814, "pitch": 63, "duration": 5, "velocity": 83}, {"time": 820, "pitch": 44, "duration": 3, "velocity": 79}, {"time": 820, "pitch": 56, "duration": 6, "velocity": 73}, {"time": 826, "pitch": 37, "duration": 3, "velocity": 86}, {"time": 826, "pitch": 61, "duration": 6, "velocity": 79}, {"time": 826, "pitch": 65, "duration": 7, "velocity": 86}, {"time": 832, "pitch": 37, "duration": 3, "velocity": 75}, {"time": 838, "pitch": 37, "duration": 3, "velocity": 74}, {"time": 838, "pitch": 56, "duration": 3, "velocity": 81}, {"time": 838, "pitch": 61, "duration": 4, "velocity": 82}, {"time": 838, "pitch": 65, "duration": 4, "velocity": 85}, {"time": 844, "pitch": 37, "duration": 2, "velocity": 83}, {"time": 844, "pitch": 56, "duration": 3, "velocity": 73}, {"time": 850, "pitch": 37, "duration": 3, "velocity": 81}, {"time": 856, "pitch": 37, "duration": 3, "velocity": 73}, {"time": 856, "pitch": 56, "duration": 3, "velocity": 76}, {"time": 862, "pitch": 37, "duration": 3, "velocity": 74}, {"time": 862, "pitch": 61, "duration": 5, "velocity": 86}, {"time": 862, "pitch": 65, "duration": 8, "velocity": 88}, {"time": 868, "pitch": 37, "duration": 3, "velocity": 79}, {"time": 868, "pitch": 56, "duration": 3, "velocity": 80}, {"time": 874, "pitch": 42, "duration": 3, "velocity": 81}, {"time": 874, "pitch": 58, "duration": 3, "velocity": 77}, {"time": 874, "pitch": 61, "duration": 7, "velocity": 80}, {"time": 880, "pitch": 42, "duration": 3, "velocity": 84}, {"time": 880, "pitch": 58, "duration": 4, "velocity": 72}, {"time": 886, "pitch": 42, "duration": 3, "velocity": 84}, {"time": 886, "pitch": 58, "duration": 1, "velocity": 72}, {"time": 886, "pitch": 61, "duration": 7, "velocity": 86}, {"time": 886, "pitch": 66, "duration": 8, "velocity": 82}, {"time": 892, "pitch": 42, "duration": 3, "velocity": 84}, {"time": 898, "pitch": 41, "duration": 3, "velocity": 88}, {"time": 898, "pitch": 61, "duration": 9, "velocity": 83}, {"time": 898, "pitch": 65, "duration": 9, "velocity": 79}, {"time": 904, "pitch": 41, "duration": 3, "velocity": 85}, {"time": 910, "pitch": 41, "duration": 2, "velocity": 86}, {"time": 910, "pitch": 61, "duration": 11, "velocity": 82}, {"time": 910, "pitch": 65, "duration": 11, "velocity": 85}, {"time": 916, "pitch": 41, "duration": 3, "velocity": 85}, {"time": 922, "pitch": 39, "duration": 3, "velocity": 86}, {"time": 922, "pitch": 58, "duration": 8, "velocity": 76}, {"time": 922, "pitch": 63, "duration": 8, "velocity": 82}, {"time": 922, "pitch": 66, "duration": 7, "velocity": 80}, {"time": 928, "pitch": 39, "duration": 3, "velocity": 86}, {"time": 934, "pitch": 39, "duration": 3, "velocity": 86}, {"time": 934, "pitch": 63, "duration": 4, "velocity": 86}, {"time": 934, "pitch": 66, "duration": 4, "velocity": 85}, {"time": 940, "pitch": 39, "duration": 3, "velocity": 85}, {"time": 940, "pitch": 58, "duration": 3, "velocity": 66}, {"time": 946, "pitch": 39, "duration": 3, "velocity": 85}, {"time": 952, "pitch": 39, "duration": 3, "velocity": 83}, {"time": 952, "pitch": 58, "duration": 3, "velocity": 73}, {"time": 958, "pitch": 39, "duration": 3, "velocity": 85}, {"time": 958, "pitch": 63, "duration": 8, "velocity": 85}, {"time": 958, "pitch": 66, "duration": 7, "velocity": 85}, {"time": 964, "pitch": 39, "duration": 3, "velocity": 86}, {"time": 964, "pitch": 58, "duration": 4, "velocity": 79}, {"time": 970, "pitch": 44, "duration": 3, "velocity": 87}, {"time": 970, "pitch": 59, "duration": 5, "velocity": 83}, {"time": 970, "pitch": 63, "duration": 5, "velocity": 84}, {"time": 976, "pitch": 44, "duration": 3, "velocity": 80}, {"time": 976, "pitch": 56, "duration": 3, "velocity": 44}, {"time": 982, "pitch": 44, "duration": 3, "velocity": 84}, {"time": 982, "pitch": 56, "duration": 3, "velocity": 84}, {"time": 982, "pitch": 59, "duration": 3, "velocity": 86}, {"time": 982, "pitch": 63, "duration": 4, "velocity": 84}, {"time": 988, "pitch": 44, "duration": 3, "velocity": 84}, {"time": 994, "pitch": 44, "duration": 3, "velocity": 84}, {"time": 1000, "pitch": 44, "duration": 3, "velocity": 81}, {"time": 1000, "pitch": 56, "duration": 3, "velocity": 78}, {"time": 1006, "pitch": 44, "duration": 3, "velocity": 86}, {"time": 1006, "pitch": 59, "duration": 8, "velocity": 89}, {"time": 1006, "pitch": 63, "duration": 8, "velocity": 85}, {"time": 1012, "pitch": 44, "duration": 3, "velocity": 79}, {"time": 1012, "pitch": 56, "duration": 5, "velocity": 78}, {"time": 1018, "pitch": 47, "duration": 2, "velocity": 85}, {"time": 1018, "pitch": 59, "duration": 7, "velocity": 84}, {"time": 1018, "pitch": 63, "duration": 7, "velocity": 84}, {"time": 1024, "pitch": 47, "duration": 2, "velocity": 82}, {"time": 1024, "pitch": 54, "duration": 3, "velocity": 80}, {"time": 1030, "pitch": 47, "duration": 2, "velocity": 82}, {"time": 1030, "pitch": 59, "duration": 3, "velocity": 88}, {"time": 1030, "pitch": 63, "duration": 4, "velocity": 85}, {"time": 1036, "pitch": 47, "duration": 3, "velocity": 80}, {"time": 1042, "pitch": 47, "duration": 2, "velocity": 85}, {"time": 1048, "pitch": 47, "duration": 3, "velocity": 84}, {"time": 1048, "pitch": 54, "duration": 3, "velocity": 84}, {"time": 1054, "pitch": 47, "duration": 2, "velocity": 86}, {"time": 1054, "pitch": 59, "duration": 3, "velocity": 91}, {"time": 1054, "pitch": 63, "duration": 7, "velocity": 86}, {"time": 1060, "pitch": 47, "duration": 3, "velocity": 90}, {"time": 1060, "pitch": 54, "duration": 3, "velocity": 86}, {"time": 1066, "pitch": 37, "duration": 2, "velocity": 85}, {"time": 1066, "pitch": 56, "duration": 3, "velocity": 84}, {"time": 1066, "pitch": 61, "duration": 4, "velocity": 85}, {"time": 1066, "pitch": 65, "duration": 4, "velocity": 88}, {"time": 1072, "pitch": 37, "duration": 2, "velocity": 80}, {"time": 1072, "pitch": 56, "duration": 2, "velocity": 84}, {"time": 1078, "pitch": 37, "duration": 3, "velocity": 85}, {"time": 1078, "pitch": 61, "duration": 3, "velocity": 89}, {"time": 1078, "pitch": 65, "duration": 3, "velocity": 90}, {"time": 1084, "pitch": 37, "duration": 3, "velocity": 83}, {"time": 1084, "pitch": 56, "duration": 3, "velocity": 79}, {"time": 1090, "pitch": 37, "duration": 3, "velocity": 85}, {"time": 1090, "pitch": 56, "duration": 2, "velocity": 85}, {"time": 1090, "pitch": 61, "duration": 3, "velocity": 87}, {"time": 1090, "pitch": 65, "duration": 4, "velocity": 88}, {"time": 1096, "pitch": 37, "duration": 2, "velocity": 86}, {"time": 1096, "pitch": 56, "duration": 3, "velocity": 76}, {"time": 1102, "pitch": 37, "duration": 2, "velocity": 85}, {"time": 1102, "pitch": 56, "duration": 2, "velocity": 87}, {"time": 1102, "pitch": 61, "duration": 4, "velocity": 91}, {"time": 1102, "pitch": 65, "duration": 5, "velocity": 87}, {"time": 1108, "pitch": 37, "duration": 3, "velocity": 85}, {"time": 1108, "pitch": 56, "duration": 4, "velocity": 86}, {"time": 1114, "pitch": 37, "duration": 45, "velocity": 91}, {"time": 1114, "pitch": 56, "duration": 5, "velocity": 89}, {"time": 1114, "pitch": 61, "duration": 5, "velocity": 91}, {"time": 1114, "pitch": 65, "duration": 5, "velocity": 93}, {"time": 1162, "pitch": 39, "duration": 15, "velocity": 88}, {"time": 1162, "pitch": 58, "duration": 3, "velocity": 83}, {"time": 1162, "pitch": 63, "duration": 4, "velocity": 86}, {"time": 1162, "pitch": 66, "duration": 6, "velocity": 86}, {"time": 1168, "pitch": 58, "duration": 2, "velocity": 83}, {"time": 1174, "pitch": 58, "duration": 3, "velocity": 86}, {"time": 1174, "pitch": 63, "duration": 4, "velocity": 95}, {"time": 1174, "pitch": 66, "duration": 6, "velocity": 91}, {"time": 1180, "pitch": 58, "duration": 2, "velocity": 80}, {"time": 1186, "pitch": 63, "duration": 2, "velocity": 80}, {"time": 1192, "pitch": 39, "duration": 8, "velocity": 87}, {"time": 1192, "pitch": 58, "duration": 4, "velocity": 90}, {"time": 1198, "pitch": 46, "duration": 3, "velocity": 85}, {"time": 1198, "pitch": 58, "duration": 2, "velocity": 89}, {"time": 1198, "pitch": 63, "duration": 4, "velocity": 98}, {"time": 1198, "pitch": 66, "duration": 5, "velocity": 93}, {"time": 1204, "pitch": 58, "duration": 3, "velocity": 86}, {"time": 1210, "pitch": 47, "duration": 14, "velocity": 98}, {"time": 1210, "pitch": 59, "duration": 6, "velocity": 73}, {"time": 1216, "pitch": 54, "duration": 3, "velocity": 79}, {"time": 1222, "pitch": 59, "duration": 2, "velocity": 90}, {"time": 1222, "pitch": 63, "duration": 3, "velocity": 85}, {"time": 1228, "pitch": 54, "duration": 1, "velocity": 65}, {"time": 1234, "pitch": 54, "duration": 2, "velocity": 79}, {"time": 1240, "pitch": 54, "duration": 3, "velocity": 86}, {"time": 1246, "pitch": 47, "duration": 3, "velocity": 98}, {"time": 1246, "pitch": 59, "duration": 3, "velocity": 93}, {"time": 1246, "pitch": 63, "duration": 3, "velocity": 91}, {"time": 1252, "pitch": 54, "duration": 3, "velocity": 88}, {"time": 1258, "pitch": 42, "duration": 19, "velocity": 86}, {"time": 1258, "pitch": 54, "duration": 5, "velocity": 84}, {"time": 1258, "pitch": 58, "duration": 6, "velocity": 79}, {"time": 1264, "pitch": 49, "duration": 8, "velocity": 70}, {"time": 1270, "pitch": 54, "duration": 2, "velocity": 85}, {"time": 1270, "pitch": 58, "duration": 2, "velocity": 87}, {"time": 1270, "pitch": 61, "duration": 3, "velocity": 88}, {"time": 1276, "pitch": 54, "duration": 3, "velocity": 81}, {"time": 1288, "pitch": 54, "duration": 3, "velocity": 85}, {"time": 1294, "pitch": 42, "duration": 3, "velocity": 86}, {"time": 1294, "pitch": 58, "duration": 3, "velocity": 88}, {"time": 1294, "pitch": 61, "duration": 3, "velocity": 91}, {"time": 1294, "pitch": 66, "duration": 5, "velocity": 89}, {"time": 1300, "pitch": 54, "duration": 2, "velocity": 87}, {"time": 1306, "pitch": 49, "duration": 12, "velocity": 91}, {"time": 1306, "pitch": 56, "duration": 3, "velocity": 84}, {"time": 1306, "pitch": 61, "duration": 5, "velocity": 86}, {"time": 1312, "pitch": 56, "duration": 3, "velocity": 84}, {"time": 1318, "pitch": 56, "duration": 2, "velocity": 88}, {"time": 1318, "pitch": 61, "duration": 4, "velocity": 89}, {"time": 1318, "pitch": 65, "duration": 5, "velocity": 85}, {"time": 1324, "pitch": 56, "duration": 2, "velocity": 85}, {"time": 1330, "pitch": 61, "duration": 3, "velocity": 82}, {"time": 1336, "pitch": 56, "duration": 3, "velocity": 86}, {"time": 1342, "pitch": 49, "duration": 2, "velocity": 101}, {"time": 1342, "pitch": 56, "duration": 2, "velocity": 87}, {"time": 1342, "pitch": 61, "duration": 3, "velocity": 95}, {"time": 1342, "pitch": 65, "duration": 4, "velocity": 90}, {"time": 1348, "pitch": 56, "duration": 2, "velocity": 84}, {"time": 1354, "pitch": 39, "duration": 15, "velocity": 88}, {"time": 1354, "pitch": 58, "duration": 3, "velocity": 83}, {"time": 1354, "pitch": 63, "duration": 4, "velocity": 86}, {"time": 1354, "pitch": 66, "duration": 6, "velocity": 86}, {"time": 1360, "pitch": 58, "duration": 2, "velocity": 83}, {"time": 1366, "pitch": 58, "duration": 3, "velocity": 86}, {"time": 1366, "pitch": 63, "duration": 4, "velocity": 95}, {"time": 1366, "pitch": 66, "duration": 6, "velocity": 91}, {"time": 1372, "pitch": 58, "duration": 2, "velocity": 80}, {"time": 1378, "pitch": 63, "duration": 2, "velocity": 80}, {"time": 1384, "pitch": 39, "duration": 8, "velocity": 87}, {"time": 1384, "pitch": 58, "duration": 4, "velocity": 90}, {"time": 1390, "pitch": 46, "duration": 3, "velocity": 85}, {"time": 1390, "pitch": 58, "duration": 2, "velocity": 89}, {"time": 1390, "pitch": 63, "duration": 4, "velocity": 98}, {"time": 1390, "pitch": 66, "duration": 5, "velocity": 93}, {"time": 1396, "pitch": 58, "duration": 3, "velocity": 86}, {"time": 1402, "pitch": 47, "duration": 14, "velocity": 98}, {"time": 1402, "pitch": 59, "duration": 6, "velocity": 73}, {"time": 1408, "pitch": 54, "duration": 3, "velocity": 79}, {"time": 1414, "pitch": 59, "duration": 2, "velocity": 90}, {"time": 1414, "pitch": 63, "duration": 3, "velocity": 85}, {"time": 1420, "pitch": 54, "duration": 1, "velocity": 65}, {"time": 1426, "pitch": 54, "duration": 2, "velocity": 79}, {"time": 1432, "pitch": 54, "duration": 3, "velocity": 86}, {"time": 1438, "pitch": 47, "duration": 3, "velocity": 98}, {"time": 1438, "pitch": 59, "duration": 3, "velocity": 93}, {"time": 1438, "pitch": 63, "duration": 3, "velocity": 91}, {"time": 1444, "pitch": 54, "duration": 3, "velocity": 88}, {"time": 1450, "pitch": 42, "duration": 19, "velocity": 86}, {"time": 1450, "pitch": 54, "duration": 5, "velocity": 84}, {"time": 1450, "pitch": 58, "duration": 6, "velocity": 79}, {"time": 1456, "pitch": 49, "duration": 8, "velocity": 70}, {"time": 1462, "pitch": 54, "duration": 2, "velocity": 85}, {"time": 1462, "pitch": 58, "duration": 2, "velocity": 87}, {"time": 1462, "pitch": 61, "duration": 3, "velocity": 88}, {"time": 1468, "pitch": 54, "duration": 3, "velocity": 81}, {"time": 1480, "pitch": 54, "duration": 3, "velocity": 85}, {"time": 1486, "pitch": 42, "duration": 3, "velocity": 86}, {"time": 1486, "pitch": 58, "duration": 3, "velocity": 88}, {"time": 1486, "pitch": 61, "duration": 3, "velocity": 91}, {"time": 1486, "pitch": 66, "duration": 5, "velocity": 89}, {"time": 1492, "pitch": 54, "duration": 2, "velocity": 87}, {"time": 1498, "pitch": 49, "duration": 12, "velocity": 91}, {"time": 1498, "pitch": 56, "duration": 3, "velocity": 84}, {"time": 1498, "pitch": 61, "duration": 5, "velocity": 86}, {"time": 1504, "pitch": 56, "duration": 3, "velocity": 84}, {"time": 1510, "pitch": 56, "duration": 2, "velocity": 88}, {"time": 1510, "pitch": 61, "duration": 4, "velocity": 89}, {"time": 1510, "pitch": 65, "duration": 5, "velocity": 85}, {"time": 1516, "pitch": 56, "duration": 2, "velocity": 85}, {"time": 1522, "pitch": 61, "duration": 3, "velocity": 82}, {"time": 1528, "pitch": 56, "duration": 3, "velocity": 86}, {"time": 1534, "pitch": 49, "duration": 2, "velocity": 101}, {"time": 1534, "pitch": 56, "duration": 2, "velocity": 87}, {"time": 1534, "pitch": 61, "duration": 3, "velocity": 95}, {"time": 1534, "pitch": 65, "duration": 4, "velocity": 90}, {"time": 1540, "pitch": 56, "duration": 2, "velocity": 84}, {"time": 1546, "pitch": 39, "duration": 15, "velocity": 88}, {"time": 1546, "pitch": 58, "duration": 3, "velocity": 83}, {"time": 1546, "pitch": 63, "duration": 4, "velocity": 86}, {"time": 1546, "pitch": 66, "duration": 6, "velocity": 86}, {"time": 1552, "pitch": 58, "duration": 2, "velocity": 83}, {"time": 1558, "pitch": 58, "duration": 3, "velocity": 86}, {"time": 1558, "pitch": 63, "duration": 4, "velocity": 95}, {"time": 1558, "pitch": 66, "duration": 6, "velocity": 91}, {"time": 1564, "pitch": 58, "duration": 2, "velocity": 80}, {"time": 1570, "pitch": 63, "duration": 2, "velocity": 80}, {"time": 1576, "pitch": 39, "duration": 8, "velocity": 87}, {"time": 1576, "pitch": 58, "duration": 4, "velocity": 90}, {"time": 1582, "pitch": 46, "duration": 3, "velocity": 85}, {"time": 1582, "pitch": 58, "duration": 2, "velocity": 89}, {"time": 1582, "pitch": 63, "duration": 4, "velocity": 98}, {"time": 1582, "pitch": 66, "duration": 5, "velocity": 93}, {"time": 1588, "pitch": 58, "duration": 3, "velocity": 86}, {"time": 1594, "pitch": 47, "duration": 14, "velocity": 98}, {"time": 1594, "pitch": 59, "duration": 6, "velocity": 73}, {"time": 1600, "pitch": 54, "duration": 3, "velocity": 79}, {"time": 1606, "pitch": 59, "duration": 2, "velocity": 90}, {"time": 1606, "pitch": 63, "duration": 3, "velocity": 85}, {"time": 1612, "pitch": 54, "duration": 1, "velocity": 65}, {"time": 1618, "pitch": 54, "duration": 2, "velocity": 79}, {"time": 1624, "pitch": 54, "duration": 3, "velocity": 86}, {"time": 1630, "pitch": 47, "duration": 3, "velocity": 98}, {"time": 1630, "pitch": 59, "duration": 3, "velocity": 93}, {"time": 1630, "pitch": 63, "duration": 3, "velocity": 91}, {"time": 1636, "pitch": 54, "duration": 3, "velocity": 88}, {"time": 1642, "pitch": 42, "duration": 19, "velocity": 86}, {"time": 1642, "pitch": 54, "duration": 5, "velocity": 84}, {"time": 1642, "pitch": 58, "duration": 6, "velocity": 79}, {"time": 1648, "pitch": 49, "duration": 8, "velocity": 70}, {"time": 1654, "pitch": 54, "duration": 2, "velocity": 85}, {"time": 1654, "pitch": 58, "duration": 2, "velocity": 87}, {"time": 1654, "pitch": 61, "duration": 3, "velocity": 88}, {"time": 1660, "pitch": 54, "duration": 3, "velocity": 81}, {"time": 1672, "pitch": 54, "duration": 3, "velocity": 85}, {"time": 1678, "pitch": 42, "duration": 3, "velocity": 86}, {"time": 1678, "pitch": 58, "duration": 3, "velocity": 88}, {"time": 1678, "pitch": 61, "duration": 3, "velocity": 91}, {"time": 1678, "pitch": 66, "duration": 5, "velocity": 89}, {"time": 1684, "pitch": 54, "duration": 2, "velocity": 87}, {"time": 1690, "pitch": 49, "duration": 12, "velocity": 91}, {"time": 1690, "pitch": 56, "duration": 3, "velocity": 84}, {"time": 1690, "pitch": 61, "duration": 5, "velocity": 86}, {"time": 1696, "pitch": 56, "duration": 3, "velocity": 84}, {"time": 1702, "pitch": 56, "duration": 2, "velocity": 88}, {"time": 1702, "pitch": 61, "duration": 4, "velocity": 89}, {"time": 1702, "pitch": 65, "duration": 5, "velocity": 85}, {"time": 1708, "pitch": 56, "duration": 2, "velocity": 85}, {"time": 1714, "pitch": 61, "duration": 3, "velocity": 82}, {"time": 1720, "pitch": 56, "duration": 3, "velocity": 86}, {"time": 1726, "pitch": 49, "duration": 2, "velocity": 101}, {"time": 1726, "pitch": 56, "duration": 2, "velocity": 87}, {"time": 1726, "pitch": 61, "duration": 3, "velocity": 95}, {"time": 1726, "pitch": 65, "duration": 4, "velocity": 90}, {"time": 1732, "pitch": 56, "duration": 2, "velocity": 84}, {"time": 1738, "pitch": 39, "duration": 15, "velocity": 88}, {"time": 1738, "pitch": 58, "duration": 3, "velocity": 83}, {"time": 1738, "pitch": 63, "duration": 4, "velocity": 86}, {"time": 1738, "pitch": 66, "duration": 6, "velocity": 86}, {"time": 1744, "pitch": 58, "duration": 2, "velocity": 83}, {"time": 1750, "pitch": 58, "duration": 3, "velocity": 86}, {"time": 1750, "pitch": 63, "duration": 4, "velocity": 95}, {"time": 1750, "pitch": 66, "duration": 6, "velocity": 91}, {"time": 1756, "pitch": 58, "duration": 2, "velocity": 80}, {"time": 1762, "pitch": 63, "duration": 2, "velocity": 80}, {"time": 1768, "pitch": 39, "duration": 8, "velocity": 87}, {"time": 1768, "pitch": 58, "duration": 4, "velocity": 90}, {"time": 1774, "pitch": 46, "duration": 3, "velocity": 85}, {"time": 1774, "pitch": 58, "duration": 2, "velocity": 89}, {"time": 1774, "pitch": 63, "duration": 4, "velocity": 98}, {"time": 1774, "pitch": 66, "duration": 5, "velocity": 93}, {"time": 1780, "pitch": 58, "duration": 3, "velocity": 86}, {"time": 1786, "pitch": 47, "duration": 14, "velocity": 98}, {"time": 1786, "pitch": 59, "duration": 6, "velocity": 73}, {"time": 1792, "pitch": 54, "duration": 3, "velocity": 79}, {"time": 1798, "pitch": 59, "duration": 2, "velocity": 90}, {"time": 1798, "pitch": 63, "duration": 3, "velocity": 85}, {"time": 1804, "pitch": 54, "duration": 1, "velocity": 65}, {"time": 1810, "pitch": 54, "duration": 2, "velocity": 79}, {"time": 1816, "pitch": 54, "duration": 3, "velocity": 86}, {"time": 1822, "pitch": 47, "duration": 3, "velocity": 98}, {"time": 1822, "pitch": 59, "duration": 3, "velocity": 93}, {"time": 1822, "pitch": 63, "duration": 3, "velocity": 91}, {"time": 1828, "pitch": 54, "duration": 3, "velocity": 88}, {"time": 1834, "pitch": 42, "duration": 19, "velocity": 86}, {"time": 1834, "pitch": 54, "duration": 5, "velocity": 84}, {"time": 1834, "pitch": 58, "duration": 6, "velocity": 79}, {"time": 1840, "pitch": 49, "duration": 8, "velocity": 70}, {"time": 1846, "pitch": 54, "duration": 2, "velocity": 85}, {"time": 1846, "pitch": 58, "duration": 2, "velocity": 87}, {"time": 1846, "pitch": 61, "duration": 3, "velocity": 88}, {"time": 1852, "pitch": 54, "duration": 3, "velocity": 81}, {"time": 1864, "pitch": 54, "duration": 3, "velocity": 85}, {"time": 1870, "pitch": 42, "duration": 3, "velocity": 86}, {"time": 1870, "pitch": 58, "duration": 3, "velocity": 88}, {"time": 1870, "pitch": 61, "duration": 3, "velocity": 91}, {"time": 1870, "pitch": 66, "duration": 5, "velocity": 89}, {"time": 1876, "pitch": 54, "duration": 2, "velocity": 87}, {"time": 1882, "pitch": 49, "duration": 12, "velocity": 91}, {"time": 1882, "pitch": 56, "duration": 3, "velocity": 84}, {"time": 1882, "pitch": 61, "duration": 5, "velocity": 86}, {"time": 1888, "pitch": 56, "duration": 3, "velocity": 84}, {"time": 1894, "pitch": 56, "duration": 2, "velocity": 88}, {"time": 1894, "pitch": 61, "duration": 4, "velocity": 89}, {"time": 1894, "pitch": 65, "duration": 5, "velocity": 85}, {"time": 1900, "pitch": 56, "duration": 2, "velocity": 85}, {"time": 1906, "pitch": 61, "duration": 3, "velocity": 82}, {"time": 1912, "pitch": 56, "duration": 3, "velocity": 86}, {"time": 1918, "pitch": 49, "duration": 2, "velocity": 101}, {"time": 1918, "pitch": 56, "duration": 2, "velocity": 87}, {"time": 1918, "pitch": 61, "duration": 3, "velocity": 95}, {"time": 1918, "pitch": 65, "duration": 4, "velocity": 90}, {"time": 1924, "pitch": 56, "duration": 2, "velocity": 84}, {"time": 1930, "pitch": 39, "duration": 15, "velocity": 88}, {"time": 1930, "pitch": 58, "duration": 3, "velocity": 83}, {"time": 1930, "pitch": 63, "duration": 4, "velocity": 86}, {"time": 1930, "pitch": 66, "duration": 6, "velocity": 86}, {"time": 1936, "pitch": 58, "duration": 2, "velocity": 83}, {"time": 1942, "pitch": 58, "duration": 3, "velocity": 86}, {"time": 1942, "pitch": 63, "duration": 4, "velocity": 95}, {"time": 1942, "pitch": 66, "duration": 6, "velocity": 91}, {"time": 1948, "pitch": 58, "duration": 2, "velocity": 80}, {"time": 1954, "pitch": 63, "duration": 2, "velocity": 80}, {"time": 1960, "pitch": 39, "duration": 8, "velocity": 87}, {"time": 1960, "pitch": 58, "duration": 4, "velocity": 90}, {"time": 1966, "pitch": 46, "duration": 3, "velocity": 85}, {"time": 1966, "pitch": 58, "duration": 2, "velocity": 89}, {"time": 1966, "pitch": 63, "duration": 4, "velocity": 98}, {"time": 1966, "pitch": 66, "duration": 5, "velocity": 93}, {"time": 1972, "pitch": 58, "duration": 3, "velocity": 86}, {"time": 1978, "pitch": 47, "duration": 14, "velocity": 98}, {"time": 1978, "pitch": 59, "duration": 6, "velocity": 73}, {"time": 1984, "pitch": 54, "duration": 3, "velocity": 79}, {"time": 1990, "pitch": 59, "duration": 2, "velocity": 90}, {"time": 1990, "pitch": 63, "duration": 3, "velocity": 85}, {"time": 1996, "pitch": 54, "duration": 1, "velocity": 65}, {"time": 2002, "pitch": 54, "duration": 2, "velocity": 79}, {"time": 2008, "pitch": 54, "duration": 3, "velocity": 86}, {"time": 2014, "pitch": 47, "duration": 3, "velocity": 98}, {"time": 2014, "pitch": 59, "duration": 3, "velocity": 93}, {"time": 2014, "pitch": 63, "duration": 3, "velocity": 91}, {"time": 2020, "pitch": 54, "duration": 3, "velocity": 88}, {"time": 2026, "pitch": 42, "duration": 19, "velocity": 86}, {"time": 2026, "pitch": 54, "duration": 5, "velocity": 84}, {"time": 2026, "pitch": 58, "duration": 6, "velocity": 79}, {"time": 2032, "pitch": 49, "duration": 8, "velocity": 70}, {"time": 2038, "pitch": 54, "duration": 2, "velocity": 85}, {"time": 2038, "pitch": 58, "duration": 2, "velocity": 87}, {"time": 2038, "pitch": 61, "duration": 3, "velocity": 88}, {"time": 2044, "pitch": 54, "duration": 3, "velocity": 81}, {"time": 2056, "pitch": 54, "duration": 3, "velocity": 85}, {"time": 2062, "pitch": 42, "duration": 3, "velocity": 86}, {"time": 2062, "pitch": 58, "duration": 3, "velocity": 88}, {"time": 2062, "pitch": 61, "duration": 3, "velocity": 91}, {"time": 2062, "pitch": 66, "duration": 5, "velocity": 89}, {"time": 2068, "pitch": 54, "duration": 2, "velocity": 87}, {"time": 2074, "pitch": 49, "duration": 12, "velocity": 91}, {"time": 2074, "pitch": 56, "duration": 3, "velocity": 84}, {"time": 2074, "pitch": 61, "duration": 5, "velocity": 86}, {"time": 2080, "pitch": 56, "duration": 3, "velocity": 84}, {"time": 2086, "pitch": 56, "duration": 2, "velocity": 88}, {"time": 2086, "pitch": 61, "duration": 4, "velocity": 89}, {"time": 2086, "pitch": 65, "duration": 5, "velocity": 85}, {"time": 2092, "pitch": 56, "duration": 2, "velocity": 85}, {"time": 2098, "pitch": 61, "duration": 3, "velocity": 82}, {"time": 2104, "pitch": 56, "duration": 3, "velocity": 86}, {"time": 2110, "pitch": 49, "duration": 2, "velocity": 101}, {"time": 2110, "pitch": 56, "duration": 2, "velocity": 87}, {"time": 2110, "pitch": 61, "duration": 3, "velocity": 95}, {"time": 2110, "pitch": 65, "duration": 4, "velocity": 90}, {"time": 2116, "pitch": 56, "duration": 2, "velocity": 84}, {"time": 2122, "pitch": 39, "duration": 3, "velocity": 86}, {"time": 2122, "pitch": 58, "duration": 9, "velocity": 80}, {"time": 2122, "pitch": 63, "duration": 8, "velocity": 80}, {"time": 2128, "pitch": 39, "duration": 3, "velocity": 84}, {"time": 2134, "pitch": 39, "duration": 3, "velocity": 81}, {"time": 2134, "pitch": 63, "duration": 16, "velocity": 84}, {"time": 2134, "pitch": 66, "duration": 17, "velocity": 85}, {"time": 2140, "pitch": 39, "duration": 3, "velocity": 78}, {"time": 2146, "pitch": 39, "duration": 3, "velocity": 79}, {"time": 2152, "pitch": 39, "duration": 3, "velocity": 81}, {"time": 2158, "pitch": 39, "duration": 3, "velocity": 79}, {"time": 2158, "pitch": 58, "duration": 3, "velocity": 81}, {"time": 2158, "pitch": 63, "duration": 8, "velocity": 85}, {"time": 2158, "pitch": 66, "duration": 8, "velocity": 82}, {"time": 2164, "pitch": 39, "duration": 3, "velocity": 80}, {"time": 2164, "pitch": 58, "duration": 4, "velocity": 83}, {"time": 2170, "pitch": 47, "duration": 2, "velocity": 79}, {"time": 2170, "pitch": 59, "duration": 4, "velocity": 72}, {"time": 2170, "pitch": 63, "duration": 8, "velocity": 85}, {"time": 2176, "pitch": 47, "duration": 3, "velocity": 78}, {"time": 2182, "pitch": 47, "duration": 3, "velocity": 78}, {"time": 2182, "pitch": 59, "duration": 5, "velocity": 82}, {"time": 2182, "pitch": 66, "duration": 6, "velocity": 85}, {"time": 2188, "pitch": 47, "duration": 3, "velocity": 79}, {"time": 2194, "pitch": 47, "duration": 2, "velocity": 80}, {"time": 2200, "pitch": 47, "duration": 3, "velocity": 83}, {"time": 2200, "pitch": 59, "duration": 3, "velocity": 86}, {"time": 2206, "pitch": 47, "duration": 3, "velocity": 83}, {"time": 2206, "pitch": 59, "duration": 3, "velocity": 87}, {"time": 2206, "pitch": 63, "duration": 6, "velocity": 86}, {"time": 2212, "pitch": 47, "duration": 3, "velocity": 79}, {"time": 2218, "pitch": 42, "duration": 3, "velocity": 80}, {"time": 2218, "pitch": 58, "duration": 10, "velocity": 84}, {"time": 2218, "pitch": 61, "duration": 10, "velocity": 85}, {"time": 2224, "pitch": 42, "duration": 3, "velocity": 79}, {"time": 2230, "pitch": 42, "duration": 3, "velocity": 76}, {"time": 2230, "pitch": 58, "duration": 6, "velocity": 85}, {"time": 2230, "pitch": 61, "duration": 7, "velocity": 86}, {"time": 2230, "pitch": 66, "duration": 9, "velocity": 84}, {"time": 2236, "pitch": 42, "duration": 3, "velocity": 74}, {"time": 2242, "pitch": 42, "duration": 3, "velocity": 76}, {"time": 2248, "pitch": 42, "duration": 3, "velocity": 79}, {"time": 2248, "pitch": 58, "duration": 4, "velocity": 80}, {"time": 2248, "pitch": 61, "duration": 2, "velocity": 75}, {"time": 2254, "pitch": 42, "duration": 3, "velocity": 77}, {"time": 2254, "pitch": 58, "duration": 4, "velocity": 78}, {"time": 2254, "pitch": 61, "duration": 7, "velocity": 85}, {"time": 2254, "pitch": 66, "duration": 8, "velocity": 88}, {"time": 2260, "pitch": 42, "duration": 2, "velocity": 80}, {"time": 2260, "pitch": 58, "duration": 2, "velocity": 71}, {"time": 2266, "pitch": 37, "duration": 3, "velocity": 82}, {"time": 2266, "pitch": 56, "duration": 5, "velocity": 85}, {"time": 2266, "pitch": 61, "duration": 7, "velocity": 84}, {"time": 2272, "pitch": 37, "duration": 2, "velocity": 74}, {"time": 2272, "pitch": 56, "duration": 3, "velocity": 80}, {"time": 2278, "pitch": 37, "duration": 3, "velocity": 76}, {"time": 2278, "pitch": 56, "duration": 4, "velocity": 74}, {"time": 2278, "pitch": 61, "duration": 4, "velocity": 86}, {"time": 2278, "pitch": 65, "duration": 4, "velocity": 85}, {"time": 2284, "pitch": 37, "duration": 3, "velocity": 73}, {"time": 2290, "pitch": 37, "duration": 3, "velocity": 72}, {"time": 2296, "pitch": 37, "duration": 3, "velocity": 78}, {"time": 2296, "pitch": 56, "duration": 3, "velocity": 84}, {"time": 2302, "pitch": 37, "duration": 3, "velocity": 72}, {"time": 2302, "pitch": 61, "duration": 11, "velocity": 89}, {"time": 2302, "pitch": 65, "duration": 10, "velocity": 91}, {"time": 2308, "pitch": 37, "duration": 3, "velocity": 74}, {"time": 2308, "pitch": 56, "duration": 4, "velocity": 84}, {"time": 2314, "pitch": 39, "duration": 3, "velocity": 86}, {"time": 2314, "pitch": 58, "duration": 9, "velocity": 80}, {"time": 2314, "pitch": 63, "duration": 8, "velocity": 80}, {"time": 2320, "pitch": 39, "duration": 3, "velocity": 84}, {"time": 2326, "pitch": 39, "duration": 3, "velocity": 81}, {"time": 2326, "pitch": 63, "duration": 16, "velocity": 84}, {"time": 2326, "pitch": 66, "duration": 17, "velocity": 85}, {"time": 2332, "pitch": 39, "duration": 3, "velocity": 78}, {"time": 2338, "pitch": 39, "duration": 3, "velocity": 79}, {"time": 2344, "pitch": 39, "duration": 3, "velocity": 81}, {"time": 2350, "pitch": 39, "duration": 3, "velocity": 79}, {"time": 2350, "pitch": 58, "duration": 3, "velocity": 81}, {"time": 2350, "pitch": 63, "duration": 8, "velocity": 85}, {"time": 2350, "pitch": 66, "duration": 8, "velocity": 82}, {"time": 2356, "pitch": 39, "duration": 3, "velocity": 80}, {"time": 2356, "pitch": 58, "duration": 4, "velocity": 83}, {"time": 2362, "pitch": 47, "duration": 2, "velocity": 79}, {"time": 2362, "pitch": 59, "duration": 4, "velocity": 72}, {"time": 2362, "pitch": 63, "duration": 8, "velocity": 85}, {"time": 2368, "pitch": 47, "duration": 3, "velocity": 78}, {"time": 2374, "pitch": 47, "duration": 3, "velocity": 78}, {"time": 2374, "pitch": 59, "duration": 5, "velocity": 82}, {"time": 2374, "pitch": 66, "duration": 6, "velocity": 85}, {"time": 2380, "pitch": 47, "duration": 3, "velocity": 79}, {"time": 2386, "pitch": 47, "duration": 2, "velocity": 80}, {"time": 2392, "pitch": 47, "duration": 3, "velocity": 83}, {"time": 2392, "pitch": 59, "duration": 3, "velocity": 86}, {"time": 2398, "pitch": 47, "duration": 3, "velocity": 83}, {"time": 2398, "pitch": 59, "duration": 3, "velocity": 87}, {"time": 2398, "pitch": 63, "duration": 6, "velocity": 86}, {"time": 2404, "pitch": 47, "duration": 3, "velocity": 79}, {"time": 2410, "pitch": 42, "duration": 3, "velocity": 80}, {"time": 2410, "pitch": 58, "duration": 10, "velocity": 84}, {"time": 2410, "pitch": 61, "duration": 10, "velocity": 85}, {"time": 2416, "pitch": 42, "duration": 3, "velocity": 79}, {"time": 2422, "pitch": 42, "duration": 3, "velocity": 76}, {"time": 2422, "pitch": 58, "duration": 6, "velocity": 85}, {"time": 2422, "pitch": 61, "duration": 7, "velocity": 86}, {"time": 2422, "pitch": 66, "duration": 9, "velocity": 84}, {"time": 2428, "pitch": 42, "duration": 3, "velocity": 74}, {"time": 2434, "pitch": 42, "duration": 3, "velocity": 76}, {"time": 2440, "pitch": 42, "duration": 3, "velocity": 79}, {"time": 2440, "pitch": 58, "duration": 4, "velocity": 80}, {"time": 2440, "pitch": 61, "duration": 2, "velocity": 75}, {"time": 2446, "pitch": 42, "duration": 3, "velocity": 77}, {"time": 2446, "pitch": 58, "duration": 4, "velocity": 78}, {"time": 2446, "pitch": 61, "duration": 7, "velocity": 85}, {"time": 2446, "pitch": 66, "duration": 8, "velocity": 88}, {"time": 2452, "pitch": 42, "duration": 2, "velocity": 80}, {"time": 2452, "pitch": 58, "duration": 2, "velocity": 71}, {"time": 2458, "pitch": 37, "duration": 3, "velocity": 82}, {"time": 2458, "pitch": 56, "duration": 5, "velocity": 85}, {"time": 2458, "pitch": 61, "duration": 7, "velocity": 84}, {"time": 2464, "pitch": 37, "duration": 2, "velocity": 74}, {"time": 2464, "pitch": 56, "duration": 3, "velocity": 80}, {"time": 2470, "pitch": 37, "duration": 3, "velocity": 76}, {"time": 2470, "pitch": 56, "duration": 4, "velocity": 74}, {"time": 2470, "pitch": 61, "duration": 4, "velocity": 86}, {"time": 2470, "pitch": 65, "duration": 4, "velocity": 85}, {"time": 2476, "pitch": 37, "duration": 3, "velocity": 73}, {"time": 2482, "pitch": 37, "duration": 3, "velocity": 72}, {"time": 2488, "pitch": 37, "duration": 3, "velocity": 78}, {"time": 2488, "pitch": 56, "duration": 3, "velocity": 84}, {"time": 2494, "pitch": 37, "duration": 3, "velocity": 72}, {"time": 2494, "pitch": 61, "duration": 11, "velocity": 89}, {"time": 2494, "pitch": 65, "duration": 10, "velocity": 91}, {"time": 2500, "pitch": 37, "duration": 3, "velocity": 74}, {"time": 2500, "pitch": 56, "duration": 4, "velocity": 84}, {"time": 2506, "pitch": 44, "duration": 3, "velocity": 85}, {"time": 2506, "pitch": 56, "duration": 9, "velocity": 74}, {"time": 2506, "pitch": 59, "duration": 9, "velocity": 75}, {"time": 2506, "pitch": 63, "duration": 9, "velocity": 81}, {"time": 2512, "pitch": 44, "duration": 3, "velocity": 79}, {"time": 2518, "pitch": 44, "duration": 3, "velocity": 77}, {"time": 2518, "pitch": 56, "duration": 7, "velocity": 77}, {"time": 2518, "pitch": 59, "duration": 8, "velocity": 73}, {"time": 2518, "pitch": 63, "duration": 7, "velocity": 82}, {"time": 2524, "pitch": 44, "duration": 3, "velocity": 76}, {"time": 2530, "pitch": 44, "duration": 3, "velocity": 73}, {"time": 2536, "pitch": 44, "duration": 3, "velocity": 78}, {"time": 2536, "pitch": 56, "duration": 4, "velocity": 72}, {"time": 2542, "pitch": 44, "duration": 3, "velocity": 77}, {"time": 2542, "pitch": 56, "duration": 2, "velocity": 82}, {"time": 2542, "pitch": 59, "duration": 5, "velocity": 86}, {"time": 2542, "pitch": 63, "duration": 5, "velocity": 83}, {"time": 2548, "pitch": 44, "duration": 3, "velocity": 79}, {"time": 2548, "pitch": 56, "duration": 6, "velocity": 73}, {"time": 2554, "pitch": 37, "duration": 3, "velocity": 86}, {"time": 2554, "pitch": 61, "duration": 6, "velocity": 79}, {"time": 2554, "pitch": 65, "duration": 7, "velocity": 86}, {"time": 2560, "pitch": 37, "duration": 3, "velocity": 75}, {"time": 2566, "pitch": 37, "duration": 3, "velocity": 74}, {"time": 2566, "pitch": 56, "duration": 3, "velocity": 81}, {"time": 2566, "pitch": 61, "duration": 4, "velocity": 82}, {"time": 2566, "pitch": 65, "duration": 4, "velocity": 85}, {"time": 2572, "pitch": 37, "duration": 2, "velocity": 83}, {"time": 2572, "pitch": 56, "duration": 3, "velocity": 73}, {"time": 2578, "pitch": 37, "duration": 3, "velocity": 81}, {"time": 2584, "pitch": 37, "duration": 3, "velocity": 73}, {"time": 2584, "pitch": 56, "duration": 3, "velocity": 76}, {"time": 2590, "pitch": 37, "duration": 3, "velocity": 74}, {"time": 2590, "pitch": 61, "duration": 5, "velocity": 86}, {"time": 2590, "pitch": 65, "duration": 8, "velocity": 88}, {"time": 2596, "pitch": 37, "duration": 3, "velocity": 79}, {"time": 2596, "pitch": 56, "duration": 3, "velocity": 80}, {"time": 2602, "pitch": 42, "duration": 3, "velocity": 81}, {"time": 2602, "pitch": 58, "duration": 3, "velocity": 77}, {"time": 2602, "pitch": 61, "duration": 7, "velocity": 80}, {"time": 2608, "pitch": 42, "duration": 3, "velocity": 84}, {"time": 2608, "pitch": 58, "duration": 4, "velocity": 72}, {"time": 2614, "pitch": 42, "duration": 3, "velocity": 84}, {"time": 2614, "pitch": 58, "duration": 1, "velocity": 72}, {"time": 2614, "pitch": 61, "duration": 7, "velocity": 86}, {"time": 2614, "pitch": 66, "duration": 8, "velocity": 82}, {"time": 2620, "pitch": 42, "duration": 3, "velocity": 84}, {"time": 2626, "pitch": 41, "duration": 3, "velocity": 88}, {"time": 2626, "pitch": 61, "duration": 9, "velocity": 83}, {"time": 2626, "pitch": 65, "duration": 9, "velocity": 79}, {"time": 2632, "pitch": 41, "duration": 3, "velocity": 85}, {"time": 2638, "pitch": 41, "duration": 2, "velocity": 86}, {"time": 2638, "pitch": 61, "duration": 11, "velocity": 82}, {"time": 2638, "pitch": 65, "duration": 11, "velocity": 85}, {"time": 2644, "pitch": 41, "duration": 3, "velocity": 85}, {"time": 2650, "pitch": 39, "duration": 3, "velocity": 86}, {"time": 2650, "pitch": 58, "duration": 8, "velocity": 76}, {"time": 2650, "pitch": 63, "duration": 8, "velocity": 82}, {"time": 2650, "pitch": 66, "duration": 7, "velocity": 80}, {"time": 2656, "pitch": 39, "duration": 3, "velocity": 86}, {"time": 2662, "pitch": 39, "duration": 3, "velocity": 86}, {"time": 2662, "pitch": 63, "duration": 4, "velocity": 86}, {"time": 2662, "pitch": 66, "duration": 4, "velocity": 85}, {"time": 2668, "pitch": 39, "duration": 3, "velocity": 85}, {"time": 2668, "pitch": 58, "duration": 3, "velocity": 66}, {"time": 2674, "pitch": 39, "duration": 3, "velocity": 85}, {"time": 2680, "pitch": 39, "duration": 3, "velocity": 83}, {"time": 2680, "pitch": 58, "duration": 3, "velocity": 73}, {"time": 2686, "pitch": 39, "duration": 3, "velocity": 85}, {"time": 2686, "pitch": 63, "duration": 8, "velocity": 85}, {"time": 2686, "pitch": 66, "duration": 7, "velocity": 85}, {"time": 2692, "pitch": 39, "duration": 3, "velocity": 86}, {"time": 2692, "pitch": 58, "duration": 4, "velocity": 79}, {"time": 2698, "pitch": 44, "duration": 3, "velocity": 87}, {"time": 2698, "pitch": 59, "duration": 5, "velocity": 83}, {"time": 2698, "pitch": 63, "duration": 5, "velocity": 84}, {"time": 2704, "pitch": 44, "duration": 3, "velocity": 80}, {"time": 2704, "pitch": 56, "duration": 3, "velocity": 44}, {"time": 2710, "pitch": 44, "duration": 3, "velocity": 84}, {"time": 2710, "pitch": 56, "duration": 3, "velocity": 84}, {"time": 2710, "pitch": 59, "duration": 3, "velocity": 86}, {"time": 2710, "pitch": 63, "duration": 4, "velocity": 84}, {"time": 2716, "pitch": 44, "duration": 3, "velocity": 84}, {"time": 2722, "pitch": 44, "duration": 3, "velocity": 84}, {"time": 2728, "pitch": 44, "duration": 3, "velocity": 81}, {"time": 2728, "pitch": 56, "duration": 3, "velocity": 78}, {"time": 2734, "pitch": 44, "duration": 3, "velocity": 86}, {"time": 2734, "pitch": 59, "duration": 8, "velocity": 89}, {"time": 2734, "pitch": 63, "duration": 8, "velocity": 85}, {"time": 2740, "pitch": 44, "duration": 3, "velocity": 79}, {"time": 2740, "pitch": 56, "duration": 5, "velocity": 78}, {"time": 2746, "pitch": 47, "duration": 2, "velocity": 85}, {"time": 2746, "pitch": 59, "duration": 7, "velocity": 84}, {"time": 2746, "pitch": 63, "duration": 7, "velocity": 84}, {"time": 2752, "pitch": 47, "duration": 2, "velocity": 82}, {"time": 2752, "pitch": 54, "duration": 3, "velocity": 80}, {"time": 2758, "pitch": 47, "duration": 2, "velocity": 82}, {"time": 2758, "pitch": 59, "duration": 3, "velocity": 88}, {"time": 2758, "pitch": 63, "duration": 4, "velocity": 85}, {"time": 2764, "pitch": 47, "duration": 3, "velocity": 80}, {"time": 2770, "pitch": 47, "duration": 2, "velocity": 85}, {"time": 2776, "pitch": 47, "duration": 3, "velocity": 84}, {"time": 2776, "pitch": 54, "duration": 3, "velocity": 84}, {"time": 2782, "pitch": 47, "duration": 2, "velocity": 86}, {"time": 2782, "pitch": 59, "duration": 3, "velocity": 91}, {"time": 2782, "pitch": 63, "duration": 7, "velocity": 86}, {"time": 2788, "pitch": 47, "duration": 3, "velocity": 90}, {"time": 2788, "pitch": 54, "duration": 3, "velocity": 86}, {"time": 2794, "pitch": 37, "duration": 2, "velocity": 85}, {"time": 2794, "pitch": 56, "duration": 3, "velocity": 84}, {"time": 2794, "pitch": 61, "duration": 4, "velocity": 85}, {"time": 2794, "pitch": 65, "duration": 4, "velocity": 88}, {"time": 2800, "pitch": 37, "duration": 2, "velocity": 80}, {"time": 2800, "pitch": 56, "duration": 2, "velocity": 84}, {"time": 2806, "pitch": 37, "duration": 3, "velocity": 85}, {"time": 2806, "pitch": 61, "duration": 3, "velocity": 89}, {"time": 2806, "pitch": 65, "duration": 3, "velocity": 90}, {"time": 2812, "pitch": 37, "duration": 3, "velocity": 83}, {"time": 2812, "pitch": 56, "duration": 3, "velocity": 79}, {"time": 2818, "pitch": 37, "duration": 3, "velocity": 85}, {"time": 2818, "pitch": 56, "duration": 2, "velocity": 85}, {"time": 2818, "pitch": 61, "duration": 3, "velocity": 87}, {"time": 2818, "pitch": 65, "duration": 4, "velocity": 88}, {"time": 2824, "pitch": 37, "duration": 2, "velocity": 86}, {"time": 2824, "pitch": 56, "duration": 3, "velocity": 76}, {"time": 2830, "pitch": 37, "duration": 2, "velocity": 85}, {"time": 2830, "pitch": 56, "duration": 2, "velocity": 87}, {"time": 2830, "pitch": 61, "duration": 4, "velocity": 91}, {"time": 2830, "pitch": 65, "duration": 5, "velocity": 87}, {"time": 2836, "pitch": 37, "duration": 3, "velocity": 85}, {"time": 2836, "pitch": 56, "duration": 4, "velocity": 86}, {"time": 2842, "pitch": 37, "duration": 45, "velocity": 91}, {"time": 2842, "pitch": 56, "duration": 5, "velocity": 89}, {"time": 2842, "pitch": 61, "duration": 5, "velocity": 91}, {"time": 2842, "pitch": 65, "duration": 5, "velocity": 93}, {"time": 2890, "pitch": 39, "duration": 15, "velocity": 88}, {"time": 2890, "pitch": 58, "duration": 3, "velocity": 83}, {"time": 2890, "pitch": 63, "duration": 4, "velocity": 86}, {"time": 2890, "pitch": 66, "duration": 6, "velocity": 86}, {"time": 2896, "pitch": 58, "duration": 2, "velocity": 83}, {"time": 2902, "pitch": 58, "duration": 3, "velocity": 86}, {"time": 2902, "pitch": 63, "duration": 4, "velocity": 95}, {"time": 2902, "pitch": 66, "duration": 6, "velocity": 91}, {"time": 2908, "pitch": 58, "duration": 2, "velocity": 80}, {"time": 2914, "pitch": 63, "duration": 2, "velocity": 80}, {"time": 2920, "pitch": 39, "duration": 8, "velocity": 87}, {"time": 2920, "pitch": 58, "duration": 4, "velocity": 90}, {"time": 2926, "pitch": 46, "duration": 3, "velocity": 85}, {"time": 2926, "pitch": 58, "duration": 2, "velocity": 89}, {"time": 2926, "pitch": 63, "duration": 4, "velocity": 98}, {"time": 2926, "pitch": 66, "duration": 5, "velocity": 93}, {"time": 2932, "pitch": 58, "duration": 3, "velocity": 86}, {"time": 2938, "pitch": 47, "duration": 14, "velocity": 98}, {"time": 2938, "pitch": 59, "duration": 6, "velocity": 73}, {"time": 2944, "pitch": 54, "duration": 3, "velocity": 79}, {"time": 2950, "pitch": 59, "duration": 2, "velocity": 90}, {"time": 2950, "pitch": 63, "duration": 3, "velocity": 85}, {"time": 2956, "pitch": 54, "duration": 1, "velocity": 65}, {"time": 2962, "pitch": 54, "duration": 2, "velocity": 79}, {"time": 2968, "pitch": 54, "duration": 3, "velocity": 86}, {"time": 2974, "pitch": 47, "duration": 3, "velocity": 98}, {"time": 2974, "pitch": 59, "duration": 3, "velocity": 93}, {"time": 2974, "pitch": 63, "duration": 3, "velocity": 91}, {"time": 2980, "pitch": 54, "duration": 3, "velocity": 88}, {"time": 2986, "pitch": 42, "duration": 19, "velocity": 86}, {"time": 2986, "pitch": 54, "duration": 5, "velocity": 84}, {"time": 2986, "pitch": 58, "duration": 6, "velocity": 79}, {"time": 2992, "pitch": 49, "duration": 8, "velocity": 70}, {"time": 2998, "pitch": 54, "duration": 2, "velocity": 85}, {"time": 2998, "pitch": 58, "duration": 2, "velocity": 87}, {"time": 2998, "pitch": 61, "duration": 3, "velocity": 88}, {"time": 3004, "pitch": 54, "duration": 3, "velocity": 81}, {"time": 3016, "pitch": 54, "duration": 3, "velocity": 85}, {"time": 3022, "pitch": 42, "duration": 3, "velocity": 86}, {"time": 3022, "pitch": 58, "duration": 3, "velocity": 88}, {"time": 3022, "pitch": 61, "duration": 3, "velocity": 91}, {"time": 3022, "pitch": 66, "duration": 5, "velocity": 89}, {"time": 3028, "pitch": 54, "duration": 2, "velocity": 87}, {"time": 3034, "pitch": 49, "duration": 12, "velocity": 91}, {"time": 3034, "pitch": 56, "duration": 3, "velocity": 84}, {"time": 3034, "pitch": 61, "duration": 5, "velocity": 86}, {"time": 3040, "pitch": 56, "duration": 3, "velocity": 84}, {"time": 3046, "pitch": 56, "duration": 2, "velocity": 88}, {"time": 3046, "pitch": 61, "duration": 4, "velocity": 89}, {"time": 3046, "pitch": 65, "duration": 5, "velocity": 85}, {"time": 3052, "pitch": 56, "duration": 2, "velocity": 85}, {"time": 3058, "pitch": 61, "duration": 3, "velocity": 82}, {"time": 3064, "pitch": 56, "duration": 3, "velocity": 86}, {"time": 3070, "pitch": 49, "duration": 2, "velocity": 101}, {"time": 3070, "pitch": 56, "duration": 2, "velocity": 87}, {"time": 3070, "pitch": 61, "duration": 3, "velocity": 95}, {"time": 3070, "pitch": 65, "duration": 4, "velocity": 90}, {"time": 3076, "pitch": 56, "duration": 2, "velocity": 84}, {"time": 3082, "pitch": 39, "duration": 15, "velocity": 88}, {"time": 3082, "pitch": 58, "duration": 3, "velocity": 83}, {"time": 3082, "pitch": 63, "duration": 4, "velocity": 86}, {"time": 3082, "pitch": 66, "duration": 6, "velocity": 86}, {"time": 3088, "pitch": 58, "duration": 2, "velocity": 83}, {"time": 3094, "pitch": 58, "duration": 3, "velocity": 86}, {"time": 3094, "pitch": 63, "duration": 4, "velocity": 95}, {"time": 3094, "pitch": 66, "duration": 6, "velocity": 91}, {"time": 3100, "pitch": 58, "duration": 2, "velocity": 80}, {"time": 3106, "pitch": 63, "duration": 2, "velocity": 80}, {"time": 3112, "pitch": 39, "duration": 8, "velocity": 87}, {"time": 3112, "pitch": 58, "duration": 4, "velocity": 90}, {"time": 3118, "pitch": 46, "duration": 3, "velocity": 85}, {"time": 3118, "pitch": 58, "duration": 2, "velocity": 89}, {"time": 3118, "pitch": 63, "duration": 4, "velocity": 98}, {"time": 3118, "pitch": 66, "duration": 5, "velocity": 93}, {"time": 3124, "pitch": 58, "duration": 3, "velocity": 86}, {"time": 3130, "pitch": 47, "duration": 14, "velocity": 98}, {"time": 3130, "pitch": 59, "duration": 6, "velocity": 73}, {"time": 3136, "pitch": 54, "duration": 3, "velocity": 79}, {"time": 3142, "pitch": 59, "duration": 2, "velocity": 90}, {"time": 3142, "pitch": 63, "duration": 3, "velocity": 85}, {"time": 3148, "pitch": 54, "duration": 1, "velocity": 65}, {"time": 3154, "pitch": 54, "duration": 2, "velocity": 79}, {"time": 3160, "pitch": 54, "duration": 3, "velocity": 86}, {"time": 3166, "pitch": 47, "duration": 3, "velocity": 98}, {"time": 3166, "pitch": 59, "duration": 3, "velocity": 93}, {"time": 3166, "pitch": 63, "duration": 3, "velocity": 91}, {"time": 3172, "pitch": 54, "duration": 3, "velocity": 88}, {"time": 3178, "pitch": 42, "duration": 19, "velocity": 86}, {"time": 3178, "pitch": 54, "duration": 5, "velocity": 84}, {"time": 3178, "pitch": 58, "duration": 6, "velocity": 79}, {"time": 3184, "pitch": 49, "duration": 8, "velocity": 70}, {"time": 3190, "pitch": 54, "duration": 2, "velocity": 85}, {"time": 3190, "pitch": 58, "duration": 2, "velocity": 87}, {"time": 3190, "pitch": 61, "duration": 3, "velocity": 88}, {"time": 3196, "pitch": 54, "duration": 3, "velocity": 81}, {"time": 3208, "pitch": 54, "duration": 3, "velocity": 85}, {"time": 3214, "pitch": 42, "duration": 3, "velocity": 86}, {"time": 3214, "pitch": 58, "duration": 3, "velocity": 88}, {"time": 3214, "pitch": 61, "duration": 3, "velocity": 91}, {"time": 3214, "pitch": 66, "duration": 5, "velocity": 89}, {"time": 3220, "pitch": 54, "duration": 2, "velocity": 87}, {"time": 3226, "pitch": 49, "duration": 12, "velocity": 91}, {"time": 3226, "pitch": 56, "duration": 3, "velocity": 84}, {"time": 3226, "pitch": 61, "duration": 5, "velocity": 86}, {"time": 3232, "pitch": 56, "duration": 3, "velocity": 84}, {"time": 3238, "pitch": 56, "duration": 2, "velocity": 88}, {"time": 3238, "pitch": 61, "duration": 4, "velocity": 89}, {"time": 3238, "pitch": 65, "duration": 5, "velocity": 85}, {"time": 3244, "pitch": 56, "duration": 2, "velocity": 85}, {"time": 3250, "pitch": 61, "duration": 3, "velocity": 82}, {"time": 3256, "pitch": 56, "duration": 3, "velocity": 86}, {"time": 3262, "pitch": 49, "duration": 2, "velocity": 101}, {"time": 3262, "pitch": 56, "duration": 2, "velocity": 87}, {"time": 3262, "pitch": 61, "duration": 3, "velocity": 95}, {"time": 3262, "pitch": 65, "duration": 4, "velocity": 90}, {"time": 3268, "pitch": 56, "duration": 2, "velocity": 84}, {"time": 3274, "pitch": 39, "duration": 15, "velocity": 88}, {"time": 3274, "pitch": 58, "duration": 3, "velocity": 83}, {"time": 3274, "pitch": 63, "duration": 4, "velocity": 86}, {"time": 3274, "pitch": 66, "duration": 6, "velocity": 86}, {"time": 3280, "pitch": 58, "duration": 2, "velocity": 83}, {"time": 3286, "pitch": 58, "duration": 3, "velocity": 86}, {"time": 3286, "pitch": 63, "duration": 4, "velocity": 95}, {"time": 3286, "pitch": 66, "duration": 6, "velocity": 91}, {"time": 3292, "pitch": 58, "duration": 2, "velocity": 80}, {"time": 3298, "pitch": 63, "duration": 2, "velocity": 80}, {"time": 3304, "pitch": 39, "duration": 8, "velocity": 87}, {"time": 3304, "pitch": 58, "duration": 4, "velocity": 90}, {"time": 3310, "pitch": 46, "duration": 3, "velocity": 85}, {"time": 3310, "pitch": 58, "duration": 2, "velocity": 89}, {"time": 3310, "pitch": 63, "duration": 4, "velocity": 98}, {"time": 3310, "pitch": 66, "duration": 5, "velocity": 93}, {"time": 3316, "pitch": 58, "duration": 3, "velocity": 86}, {"time": 3322, "pitch": 47, "duration": 14, "velocity": 98}, {"time": 3322, "pitch": 59, "duration": 6, "velocity": 73}, {"time": 3328, "pitch": 54, "duration": 3, "velocity": 79}, {"time": 3334, "pitch": 59, "duration": 2, "velocity": 90}, {"time": 3334, "pitch": 63, "duration": 3, "velocity": 85}, {"time": 3340, "pitch": 54, "duration": 1, "velocity": 65}, {"time": 3346, "pitch": 54, "duration": 2, "velocity": 79}, {"time": 3352, "pitch": 54, "duration": 3, "velocity": 86}, {"time": 3358, "pitch": 47, "duration": 3, "velocity": 98}, {"time": 3358, "pitch": 59, "duration": 3, "velocity": 93}, {"time": 3358, "pitch": 63, "duration": 3, "velocity": 91}, {"time": 3364, "pitch": 54, "duration": 3, "velocity": 88}, {"time": 3370, "pitch": 42, "duration": 19, "velocity": 86}, {"time": 3370, "pitch": 54, "duration": 5, "velocity": 84}, {"time": 3370, "pitch": 58, "duration": 6, "velocity": 79}, {"time": 3376, "pitch": 49, "duration": 8, "velocity": 70}, {"time": 3382, "pitch": 54, "duration": 2, "velocity": 85}, {"time": 3382, "pitch": 58, "duration": 2, "velocity": 87}, {"time": 3382, "pitch": 61, "duration": 3, "velocity": 88}, {"time": 3388, "pitch": 54, "duration": 3, "velocity": 81}, {"time": 3400, "pitch": 54, "duration": 3, "velocity": 85}, {"time": 3406, "pitch": 42, "duration": 3, "velocity": 86}, {"time": 3406, "pitch": 58, "duration": 3, "velocity": 88}, {"time": 3406, "pitch": 61, "duration": 3, "velocity": 91}, {"time": 3406, "pitch": 66, "duration": 5, "velocity": 89}, {"time": 3412, "pitch": 54, "duration": 2, "velocity": 87}, {"time": 3418, "pitch": 49, "duration": 12, "velocity": 91}, {"time": 3418, "pitch": 56, "duration": 3, "velocity": 84}, {"time": 3418, "pitch": 61, "duration": 5, "velocity": 86}, {"time": 3424, "pitch": 56, "duration": 3, "velocity": 84}, {"time": 3430, "pitch": 56, "duration": 2, "velocity": 88}, {"time": 3430, "pitch": 61, "duration": 4, "velocity": 89}, {"time": 3430, "pitch": 65, "duration": 5, "velocity": 85}, {"time": 3436, "pitch": 56, "duration": 2, "velocity": 85}, {"time": 3442, "pitch": 61, "duration": 3, "velocity": 82}, {"time": 3448, "pitch": 56, "duration": 3, "velocity": 86}, {"time": 3454, "pitch": 49, "duration": 2, "velocity": 101}, {"time": 3454, "pitch": 56, "duration": 2, "velocity": 87}, {"time": 3454, "pitch": 61, "duration": 3, "velocity": 95}, {"time": 3454, "pitch": 65, "duration": 4, "velocity": 90}, {"time": 3460, "pitch": 56, "duration": 2, "velocity": 84}, {"time": 3466, "pitch": 39, "duration": 15, "velocity": 88}, {"time": 3466, "pitch": 58, "duration": 3, "velocity": 83}, {"time": 3466, "pitch": 63, "duration": 4, "velocity": 86}, {"time": 3466, "pitch": 66, "duration": 6, "velocity": 86}, {"time": 3472, "pitch": 58, "duration": 2, "velocity": 83}, {"time": 3478, "pitch": 58, "duration": 3, "velocity": 86}, {"time": 3478, "pitch": 63, "duration": 4, "velocity": 95}, {"time": 3478, "pitch": 66, "duration": 6, "velocity": 91}, {"time": 3484, "pitch": 58, "duration": 2, "velocity": 80}, {"time": 3490, "pitch": 63, "duration": 2, "velocity": 80}, {"time": 3496, "pitch": 39, "duration": 8, "velocity": 87}, {"time": 3496, "pitch": 58, "duration": 4, "velocity": 90}, {"time": 3502, "pitch": 46, "duration": 3, "velocity": 85}, {"time": 3502, "pitch": 58, "duration": 2, "velocity": 89}, {"time": 3502, "pitch": 63, "duration": 4, "velocity": 98}, {"time": 3502, "pitch": 66, "duration": 5, "velocity": 93}, {"time": 3508, "pitch": 58, "duration": 3, "velocity": 86}, {"time": 3514, "pitch": 47, "duration": 14, "velocity": 98}, {"time": 3514, "pitch": 59, "duration": 6, "velocity": 73}, {"time": 3520, "pitch": 54, "duration": 3, "velocity": 79}, {"time": 3526, "pitch": 59, "duration": 2, "velocity": 90}, {"time": 3526, "pitch": 63, "duration": 3, "velocity": 85}, {"time": 3532, "pitch": 54, "duration": 1, "velocity": 65}, {"time": 3538, "pitch": 54, "duration": 2, "velocity": 79}, {"time": 3544, "pitch": 54, "duration": 3, "velocity": 86}, {"time": 3550, "pitch": 47, "duration": 3, "velocity": 98}, {"time": 3550, "pitch": 59, "duration": 3, "velocity": 93}, {"time": 3550, "pitch": 63, "duration": 3, "velocity": 91}, {"time": 3556, "pitch": 54, "duration": 3, "velocity": 88}, {"time": 3562, "pitch": 42, "duration": 19, "velocity": 86}, {"time": 3562, "pitch": 54, "duration": 5, "velocity": 84}, {"time": 3562, "pitch": 58, "duration": 6, "velocity": 79}, {"time": 3568, "pitch": 49, "duration": 8, "velocity": 70}, {"time": 3574, "pitch": 54, "duration": 2, "velocity": 85}, {"time": 3574, "pitch": 58, "duration": 2, "velocity": 87}, {"time": 3574, "pitch": 61, "duration": 3, "velocity": 88}, {"time": 3580, "pitch": 54, "duration": 3, "velocity": 81}, {"time": 3592, "pitch": 54, "duration": 3, "velocity": 85}, {"time": 3598, "pitch": 42, "duration": 3, "velocity": 86}, {"time": 3598, "pitch": 58, "duration": 3, "velocity": 88}, {"time": 3598, "pitch": 61, "duration": 3, "velocity": 91}, {"time": 3598, "pitch": 66, "duration": 5, "velocity": 89}, {"time": 3604, "pitch": 54, "duration": 2, "velocity": 87}, {"time": 3610, "pitch": 49, "duration": 12, "velocity": 91}, {"time": 3610, "pitch": 56, "duration": 3, "velocity": 84}, {"time": 3610, "pitch": 61, "duration": 5, "velocity": 86}, {"time": 3616, "pitch": 56, "duration": 3, "velocity": 84}, {"time": 3622, "pitch": 56, "duration": 2, "velocity": 88}, {"time": 3622, "pitch": 61, "duration": 4, "velocity": 89}, {"time": 3622, "pitch": 65, "duration": 5, "velocity": 85}, {"time": 3628, "pitch": 56, "duration": 2, "velocity": 85}, {"time": 3634, "pitch": 61, "duration": 3, "velocity": 82}, {"time": 3640, "pitch": 56, "duration": 3, "velocity": 86}, {"time": 3646, "pitch": 49, "duration": 2, "velocity": 101}, {"time": 3646, "pitch": 56, "duration": 2, "velocity": 87}, {"time": 3646, "pitch": 61, "duration": 3, "velocity": 95}, {"time": 3646, "pitch": 65, "duration": 4, "velocity": 90}, {"time": 3652, "pitch": 56, "duration": 2, "velocity": 84}, {"time": 3658, "pitch": 39, "duration": 15, "velocity": 88}, {"time": 3658, "pitch": 58, "duration": 3, "velocity": 83}, {"time": 3658, "pitch": 63, "duration": 4, "velocity": 86}, {"time": 3658, "pitch": 66, "duration": 6, "velocity": 86}, {"time": 3664, "pitch": 58, "duration": 2, "velocity": 83}, {"time": 3670, "pitch": 58, "duration": 3, "velocity": 86}, {"time": 3670, "pitch": 63, "duration": 4, "velocity": 95}, {"time": 3670, "pitch": 66, "duration": 6, "velocity": 91}, {"time": 3676, "pitch": 58, "duration": 2, "velocity": 80}, {"time": 3682, "pitch": 63, "duration": 2, "velocity": 80}, {"time": 3688, "pitch": 39, "duration": 8, "velocity": 87}, {"time": 3688, "pitch": 58, "duration": 4, "velocity": 90}, {"time": 3694, "pitch": 46, "duration": 3, "velocity": 85}, {"time": 3694, "pitch": 58, "duration": 2, "velocity": 89}, {"time": 3694, "pitch": 63, "duration": 4, "velocity": 98}, {"time": 3694, "pitch": 66, "duration": 5, "velocity": 93}, {"time": 3700, "pitch": 58, "duration": 3, "velocity": 86}, {"time": 3706, "pitch": 47, "duration": 14, "velocity": 98}, {"time": 3706, "pitch": 59, "duration": 6, "velocity": 73}, {"time": 3712, "pitch": 54, "duration": 3, "velocity": 79}, {"time": 3718, "pitch": 59, "duration": 2, "velocity": 90}, {"time": 3718, "pitch": 63, "duration": 3, "velocity": 85}, {"time": 3724, "pitch": 54, "duration": 1, "velocity": 65}, {"time": 3730, "pitch": 54, "duration": 2, "velocity": 79}, {"time": 3736, "pitch": 54, "duration": 3, "velocity": 86}, {"time": 3742, "pitch": 47, "duration": 3, "velocity": 98}, {"time": 3742, "pitch": 59, "duration": 3, "velocity": 93}, {"time": 3742, "pitch": 63, "duration": 3, "velocity": 91}, {"time": 3748, "pitch": 54, "duration": 3, "velocity": 88}, {"time": 3754, "pitch": 42, "duration": 19, "velocity": 86}, {"time": 3754, "pitch": 54, "duration": 5, "velocity": 84}, {"time": 3754, "pitch": 58, "duration": 6, "velocity": 79}, {"time": 3760, "pitch": 49, "duration": 8, "velocity": 70}, {"time": 3766, "pitch": 54, "duration": 2, "velocity": 85}, {"time": 3766, "pitch": 58, "duration": 2, "velocity": 87}, {"time": 3766, "pitch": 61, "duration": 3, "velocity": 88}, {"time": 3772, "pitch": 54, "duration": 3, "velocity": 81}, {"time": 3784, "pitch": 54, "duration": 3, "velocity": 85}, {"time": 3790, "pitch": 42, "duration": 3, "velocity": 86}, {"time": 3790, "pitch": 58, "duration": 3, "velocity": 88}, {"time": 3790, "pitch": 61, "duration": 3, "velocity": 91}, {"time": 3790, "pitch": 66, "duration": 5, "velocity": 89}, {"time": 3796, "pitch": 54, "duration": 2, "velocity": 87}, {"time": 3802, "pitch": 49, "duration": 12, "velocity": 91}, {"time": 3802, "pitch": 56, "duration": 3, "velocity": 84}, {"time": 3802, "pitch": 61, "duration": 5, "velocity": 86}, {"time": 3808, "pitch": 56, "duration": 3, "velocity": 84}, {"time": 3814, "pitch": 56, "duration": 2, "velocity": 88}, {"time": 3814, "pitch": 61, "duration": 4, "velocity": 89}, {"time": 3814, "pitch": 65, "duration": 5, "velocity": 85}, {"time": 3820, "pitch": 56, "duration": 2, "velocity": 85}, {"time": 3826, "pitch": 61, "duration": 3, "velocity": 82}, {"time": 3832, "pitch": 56, "duration": 3, "velocity": 86}, {"time": 3838, "pitch": 49, "duration": 2, "velocity": 101}, {"time": 3838, "pitch": 56, "duration": 2, "velocity": 87}, {"time": 3838, "pitch": 61, "duration": 3, "velocity": 95}, {"time": 3838, "pitch": 65, "duration": 4, "velocity": 90}, {"time": 3844, "pitch": 56, "duration": 2, "velocity": 84}, {"time": 3850, "pitch": 47, "duration": 7, "velocity": 95}, {"time": 3850, "pitch": 54, "duration": 3, "velocity": 79}, {"time": 3850, "pitch": 59, "duration": 4, "velocity": 83}, {"time": 3850, "pitch": 63, "duration": 4, "velocity": 79}, {"time": 3856, "pitch": 54, "duration": 2, "velocity": 75}, {"time": 3862, "pitch": 54, "duration": 3, "velocity": 86}, {"time": 3862, "pitch": 59, "duration": 3, "velocity": 85}, {"time": 3868, "pitch": 54, "duration": 2, "velocity": 79}, {"time": 3874, "pitch": 59, "duration": 3, "velocity": 86}, {"time": 3874, "pitch": 63, "duration": 3, "velocity": 84}, {"time": 3880, "pitch": 54, "duration": 3, "velocity": 80}, {"time": 3886, "pitch": 47, "duration": 2, "velocity": 98}, {"time": 3886, "pitch": 54, "duration": 2, "velocity": 85}, {"time": 3886, "pitch": 59, "duration": 3, "velocity": 98}, {"time": 3886, "pitch": 63, "duration": 3, "velocity": 85}, {"time": 3892, "pitch": 54, "duration": 4, "velocity": 80}, {"time": 3898, "pitch": 47, "duration": 4, "velocity": 89}, {"time": 3898, "pitch": 54, "duration": 2, "velocity": 74}, {"time": 3898, "pitch": 59, "duration": 7, "velocity": 76}, {"time": 3898, "pitch": 66, "duration": 5, "velocity": 86}, {"time": 3904, "pitch": 54, "duration": 3, "velocity": 76}, {"time": 3910, "pitch": 59, "duration": 4, "velocity": 86}, {"time": 3910, "pitch": 63, "duration": 4, "velocity": 80}, {"time": 3916, "pitch": 54, "duration": 3, "velocity": 77}, {"time": 3922, "pitch": 47, "duration": 2, "velocity": 81}, {"time": 3922, "pitch": 59, "duration": 3, "velocity": 79}, {"time": 3922, "pitch": 63, "duration": 3, "velocity": 79}, {"time": 3928, "pitch": 54, "duration": 3, "velocity": 78}, {"time": 3934, "pitch": 47, "duration": 2, "velocity": 91}, {"time": 3934, "pitch": 54, "duration": 2, "velocity": 85}, {"time": 3934, "pitch": 59, "duration": 2, "velocity": 90}, {"time": 3934, "pitch": 63, "duration": 3, "velocity": 85}, {"time": 3946, "pitch": 42, "duration": 10, "velocity": 86}, {"time": 3946, "pitch": 58, "duration": 3, "velocity": 78}, {"time": 3946, "pitch": 61, "duration": 8, "velocity": 82}, {"time": 3946, "pitch": 66, "duration": 5, "velocity": 82}, {"time": 3952, "pitch": 58, "duration": 2, "velocity": 80}, {"time": 3958, "pitch": 58, "duration": 2, "velocity": 87}, {"time": 3958, "pitch": 61, "duration": 3, "velocity": 98}, {"time": 3958, "pitch": 66, "duration": 4, "velocity": 86}, {"time": 3964, "pitch": 58, "duration": 3, "velocity": 79}, {"time": 3970, "pitch": 61, "duration": 3, "velocity": 86}, {"time": 3970, "pitch": 66, "duration": 4, "velocity": 84}, {"time": 3976, "pitch": 58, "duration": 3, "velocity": 82}, {"time": 3982, "pitch": 42, "duration": 3, "velocity": 78}, {"time": 3982, "pitch": 58, "duration": 2, "velocity": 86}, {"time": 3982, "pitch": 61, "duration": 3, "velocity": 90}, {"time": 3982, "pitch": 66, "duration": 4, "velocity": 81}, {"time": 3988, "pitch": 58, "duration": 2, "velocity": 79}, {"time": 3988, "pitch": 66, "duration": 2, "velocity": 67}, {"time": 3994, "pitch": 49, "duration": 8, "velocity": 87}, {"time": 3994, "pitch": 56, "duration": 3, "velocity": 84}, {"time": 3994, "pitch": 61, "duration": 4, "velocity": 84}, {"time": 3994, "pitch": 65, "duration": 5, "velocity": 85}, {"time": 4000, "pitch": 56, "duration": 2, "velocity": 84}, {"time": 4006, "pitch": 56, "duration": 2, "velocity": 85}, {"time": 4006, "pitch": 61, "duration": 4, "velocity": 88}, {"time": 4006, "pitch": 65, "duration": 4, "velocity": 88}, {"time": 4012, "pitch": 56, "duration": 3, "velocity": 85}, {"time": 4018, "pitch": 56, "duration": 1, "velocity": 67}, {"time": 4018, "pitch": 61, "duration": 4, "velocity": 88}, {"time": 4018, "pitch": 65, "duration": 8, "velocity": 87}, {"time": 4024, "pitch": 56, "duration": 3, "velocity": 89}, {"time": 4024, "pitch": 61, "duration": 1, "velocity": 62}, {"time": 4030, "pitch": 61, "duration": 7, "velocity": 86}, {"time": 4030, "pitch": 65, "duration": 7, "velocity": 88}, {"time": 4036, "pitch": 56, "duration": 3, "velocity": 88}, {"time": 4042, "pitch": 39, "duration": 9, "velocity": 88}, {"time": 4042, "pitch": 63, "duration": 4, "velocity": 86}, {"time": 4042, "pitch": 66, "duration": 4, "velocity": 93}, {"time": 4048, "pitch": 58, "duration": 2, "velocity": 85}, {"time": 4054, "pitch": 58, "duration": 2, "velocity": 87}, {"time": 4054, "pitch": 63, "duration": 3, "velocity": 91}, {"time": 4054, "pitch": 66, "duration": 4, "velocity": 89}, {"time": 4060, "pitch": 58, "duration": 2, "velocity": 82}, {"time": 4066, "pitch": 63, "duration": 3, "velocity": 84}, {"time": 4066, "pitch": 66, "duration": 4, "velocity": 86}, {"time": 4072, "pitch": 58, "duration": 3, "velocity": 84}, {"time": 4078, "pitch": 63, "duration": 4, "velocity": 87}, {"time": 4078, "pitch": 66, "duration": 4, "velocity": 86}, {"time": 4084, "pitch": 58, "duration": 3, "velocity": 85}, {"time": 4090, "pitch": 51, "duration": 13, "velocity": 88}, {"time": 4090, "pitch": 58, "duration": 2, "velocity": 83}, {"time": 4090, "pitch": 63, "duration": 7, "velocity": 88}, {"time": 4090, "pitch": 66, "duration": 7, "velocity": 85}, {"time": 4096, "pitch": 58, "duration": 3, "velocity": 84}, {"time": 4102, "pitch": 58, "duration": 2, "velocity": 85}, {"time": 4102, "pitch": 63, "duration": 4, "velocity": 91}, {"time": 4102, "pitch": 66, "duration": 4, "velocity": 89}, {"time": 4108, "pitch": 58, "duration": 3, "velocity": 85}, {"time": 4108, "pitch": 63, "duration": 1, "velocity": 62}, {"time": 4114, "pitch": 51, "duration": 7, "velocity": 98}, {"time": 4114, "pitch": 58, "duration": 2, "velocity": 85}, {"time": 4114, "pitch": 63, "duration": 8, "velocity": 89}, {"time": 4114, "pitch": 66, "duration": 8, "velocity": 84}, {"time": 4120, "pitch": 58, "duration": 4, "velocity": 84}, {"time": 4126, "pitch": 58, "duration": 2, "velocity": 85}, {"time": 4126, "pitch": 63, "duration": 5, "velocity": 88}, {"time": 4126, "pitch": 66, "duration": 6, "velocity": 86}, {"time": 4132, "pitch": 58, "duration": 2, "velocity": 84}, {"time": 4138, "pitch": 47, "duration": 15, "velocity": 95}, {"time": 4138, "pitch": 59, "duration": 6, "velocity": 87}, {"time": 4138, "pitch": 63, "duration": 7, "velocity": 87}, {"time": 4144, "pitch": 54, "duration": 4, "velocity": 86}, {"time": 4150, "pitch": 59, "duration": 3, "velocity": 90}, {"time": 4150, "pitch": 63, "duration": 4, "velocity": 86}, {"time": 4156, "pitch": 54, "duration": 4, "velocity": 84}, {"time": 4162, "pitch": 47, "duration": 3, "velocity": 81}, {"time": 4162, "pitch": 59, "duration": 3, "velocity": 85}, {"time": 4162, "pitch": 63, "duration": 3, "velocity": 84}, {"time": 4168, "pitch": 54, "duration": 3, "velocity": 85}, {"time": 4174, "pitch": 47, "duration": 3, "velocity": 98}, {"time": 4174, "pitch": 54, "duration": 2, "velocity": 85}, {"time": 4174, "pitch": 59, "duration": 3, "velocity": 100}, {"time": 4174, "pitch": 63, "duration": 4, "velocity": 85}, {"time": 4180, "pitch": 54, "duration": 2, "velocity": 85}, {"time": 4186, "pitch": 49, "duration": 32, "velocity": 105}, {"time": 4186, "pitch": 56, "duration": 27, "velocity": 90}, {"time": 4186, "pitch": 61, "duration": 30, "velocity": 95}, {"time": 4186, "pitch": 65, "duration": 31, "velocity": 95}, {"time": 4216, "pitch": 56, "duration": 2, "velocity": 80}, {"time": 4222, "pitch": 49, "duration": 4, "velocity": 91}, {"time": 4222, "pitch": 56, "duration": 2, "velocity": 85}, {"time": 4222, "pitch": 61, "duration": 4, "velocity": 87}, {"time": 4222, "pitch": 65, "duration": 8, "velocity": 86}, {"time": 4228, "pitch": 56, "duration": 3, "velocity": 86}, {"time": 4228, "pitch": 61, "duration": 3, "velocity": 75}, {"time": 4234, "pitch": 39, "duration": 15, "velocity": 88}, {"time": 4234, "pitch": 58, "duration": 3, "velocity": 83}, {"time": 4234, "pitch": 63, "duration": 4, "velocity": 86}, {"time": 4234, "pitch": 66, "duration": 6, "velocity": 86}, {"time": 4240, "pitch": 58, "duration": 2, "velocity": 83}, {"time": 4246, "pitch": 58, "duration": 3, "velocity": 86}, {"time": 4246, "pitch": 63, "duration": 4, "velocity": 95}, {"time": 4246, "pitch": 66, "duration": 6, "velocity": 91}, {"time": 4252, "pitch": 58, "duration": 2, "velocity": 80}, {"time": 4258, "pitch": 63, "duration": 2, "velocity": 80}, {"time": 4264, "pitch": 39, "duration": 8, "velocity": 87}, {"time": 4264, "pitch": 58, "duration": 4, "velocity": 90}, {"time": 4270, "pitch": 46, "duration": 3, "velocity": 85}, {"time": 4270, "pitch": 58, "duration": 2, "velocity": 89}, {"time": 4270, "pitch": 63, "duration": 4, "velocity": 98}, {"time": 4270, "pitch": 66, "duration": 5, "velocity": 93}, {"time": 4276, "pitch": 58, "duration": 3, "velocity": 86}, {"time": 4282, "pitch": 47, "duration": 14, "velocity": 98}, {"time": 4282, "pitch": 59, "duration": 6, "velocity": 73}, {"time": 4288, "pitch": 54, "duration": 3, "velocity": 79}, {"time": 4294, "pitch": 59, "duration": 2, "velocity": 90}, {"time": 4294, "pitch": 63, "duration": 3, "velocity": 85}, {"time": 4300, "pitch": 54, "duration": 1, "velocity": 65}, {"time": 4306, "pitch": 54, "duration": 2, "velocity": 79}, {"time": 4312, "pitch": 54, "duration": 3, "velocity": 86}, {"time": 4318, "pitch": 47, "duration": 3, "velocity": 98}, {"time": 4318, "pitch": 59, "duration": 3, "velocity": 93}, {"time": 4318, "pitch": 63, "duration": 3, "velocity": 91}, {"time": 4324, "pitch": 54, "duration": 3, "velocity": 88}, {"time": 4330, "pitch": 42, "duration": 19, "velocity": 86}, {"time": 4330, "pitch": 54, "duration": 5, "velocity": 84}, {"time": 4330, "pitch": 58, "duration": 6, "velocity": 79}, {"time": 4336, "pitch": 49, "duration": 8, "velocity": 70}, {"time": 4342, "pitch": 54, "duration": 2, "velocity": 85}, {"time": 4342, "pitch": 58, "duration": 2, "velocity": 87}, {"time": 4342, "pitch": 61, "duration": 3, "velocity": 88}, {"time": 4348, "pitch": 54, "duration": 3, "velocity": 81}, {"time": 4360, "pitch": 54, "duration": 3, "velocity": 85}, {"time": 4366, "pitch": 42, "duration": 3, "velocity": 86}, {"time": 4366, "pitch": 58, "duration": 3, "velocity": 88}, {"time": 4366, "pitch": 61, "duration": 3, "velocity": 91}, {"time": 4366, "pitch": 66, "duration": 5, "velocity": 89}, {"time": 4372, "pitch": 54, "duration": 2, "velocity": 87}, {"time": 4378, "pitch": 49, "duration": 12, "velocity": 91}, {"time": 4378, "pitch": 56, "duration": 3, "velocity": 84}, {"time": 4378, "pitch": 61, "duration": 5, "velocity": 86}, {"time": 4384, "pitch": 56, "duration": 3, "velocity": 84}, {"time": 4390, "pitch": 56, "duration": 2, "velocity": 88}, {"time": 4390, "pitch": 61, "duration": 4, "velocity": 89}, {"time": 4390, "pitch": 65, "duration": 5, "velocity": 85}, {"time": 4396, "pitch": 56, "duration": 2, "velocity": 85}, {"time": 4402, "pitch": 61, "duration": 3, "velocity": 82}, {"time": 4408, "pitch": 56, "duration": 3, "velocity": 86}, {"time": 4414, "pitch": 49, "duration": 2, "velocity": 101}, {"time": 4414, "pitch": 56, "duration": 2, "velocity": 87}, {"time": 4414, "pitch": 61, "duration": 3, "velocity": 95}, {"time": 4414, "pitch": 65, "duration": 4, "velocity": 90}, {"time": 4420, "pitch": 56, "duration": 2, "velocity": 84}, {"time": 4426, "pitch": 39, "duration": 15, "velocity": 88}, {"time": 4426, "pitch": 58, "duration": 3, "velocity": 83}, {"time": 4426, "pitch": 63, "duration": 4, "velocity": 86}, {"time": 4426, "pitch": 66, "duration": 6, "velocity": 86}, {"time": 4432, "pitch": 58, "duration": 2, "velocity": 83}, {"time": 4438, "pitch": 58, "duration": 3, "velocity": 86}, {"time": 4438, "pitch": 63, "duration": 4, "velocity": 95}, {"time": 4438, "pitch": 66, "duration": 6, "velocity": 91}, {"time": 4444, "pitch": 58, "duration": 2, "velocity": 80}, {"time": 4450, "pitch": 63, "duration": 2, "velocity": 80}, {"time": 4456, "pitch": 39, "duration": 8, "velocity": 87}, {"time": 4456, "pitch": 58, "duration": 4, "velocity": 90}, {"time": 4462, "pitch": 46, "duration": 3, "velocity": 85}, {"time": 4462, "pitch": 58, "duration": 2, "velocity": 89}, {"time": 4462, "pitch": 63, "duration": 4, "velocity": 98}, {"time": 4462, "pitch": 66, "duration": 5, "velocity": 93}, {"time": 4468, "pitch": 58, "duration": 3, "velocity": 86}, {"time": 4474, "pitch": 47, "duration": 14, "velocity": 98}, {"time": 4474, "pitch": 59, "duration": 6, "velocity": 73}, {"time": 4480, "pitch": 54, "duration": 3, "velocity": 79}, {"time": 4486, "pitch": 59, "duration": 2, "velocity": 90}, {"time": 4486, "pitch": 63, "duration": 3, "velocity": 85}, {"time": 4492, "pitch": 54, "duration": 1, "velocity": 65}, {"time": 4498, "pitch": 54, "duration": 2, "velocity": 79}, {"time": 4504, "pitch": 54, "duration": 3, "velocity": 86}, {"time": 4510, "pitch": 47, "duration": 3, "velocity": 98}, {"time": 4510, "pitch": 59, "duration": 3, "velocity": 93}, {"time": 4510, "pitch": 63, "duration": 3, "velocity": 91}, {"time": 4516, "pitch": 54, "duration": 3, "velocity": 88}, {"time": 4522, "pitch": 42, "duration": 19, "velocity": 86}, {"time": 4522, "pitch": 54, "duration": 5, "velocity": 84}, {"time": 4522, "pitch": 58, "duration": 6, "velocity": 79}, {"time": 4528, "pitch": 49, "duration": 8, "velocity": 70}, {"time": 4534, "pitch": 54, "duration": 2, "velocity": 85}, {"time": 4534, "pitch": 58, "duration": 2, "velocity": 87}, {"time": 4534, "pitch": 61, "duration": 3, "velocity": 88}, {"time": 4540, "pitch": 54, "duration": 3, "velocity": 81}, {"time": 4552, "pitch": 54, "duration": 3, "velocity": 85}, {"time": 4558, "pitch": 42, "duration": 3, "velocity": 86}, {"time": 4558, "pitch": 58, "duration": 3, "velocity": 88}, {"time": 4558, "pitch": 61, "duration": 3, "velocity": 91}, {"time": 4558, "pitch": 66, "duration": 5, "velocity": 89}, {"time": 4564, "pitch": 54, "duration": 2, "velocity": 87}, {"time": 4570, "pitch": 49, "duration": 12, "velocity": 91}, {"time": 4570, "pitch": 56, "duration": 3, "velocity": 84}, {"time": 4570, "pitch": 61, "duration": 5, "velocity": 86}, {"time": 4576, "pitch": 56, "duration": 3, "velocity": 84}, {"time": 4582, "pitch": 56, "duration": 2, "velocity": 88}, {"time": 4582, "pitch": 61, "duration": 4, "velocity": 89}, {"time": 4582, "pitch": 65, "duration": 5, "velocity": 85}, {"time": 4588, "pitch": 56, "duration": 2, "velocity": 85}, {"time": 4594, "pitch": 61, "duration": 3, "velocity": 82}, {"time": 4600, "pitch": 56, "duration": 3, "velocity": 86}, {"time": 4606, "pitch": 49, "duration": 2, "velocity": 101}, {"time": 4606, "pitch": 56, "duration": 2, "velocity": 87}, {"time": 4606, "pitch": 61, "duration": 3, "velocity": 95}, {"time": 4606, "pitch": 65, "duration": 4, "velocity": 90}, {"time": 4612, "pitch": 56, "duration": 2, "velocity": 84}, {"time": 4618, "pitch": 39, "duration": 15, "velocity": 88}, {"time": 4618, "pitch": 58, "duration": 3, "velocity": 83}, {"time": 4618, "pitch": 63, "duration": 4, "velocity": 86}, {"time": 4618, "pitch": 66, "duration": 6, "velocity": 86}, {"time": 4624, "pitch": 58, "duration": 2, "velocity": 83}, {"time": 4630, "pitch": 58, "duration": 3, "velocity": 86}, {"time": 4630, "pitch": 63, "duration": 4, "velocity": 95}, {"time": 4630, "pitch": 66, "duration": 6, "velocity": 91}, {"time": 4636, "pitch": 58, "duration": 2, "velocity": 80}, {"time": 4642, "pitch": 63, "duration": 2, "velocity": 80}, {"time": 4648, "pitch": 39, "duration": 8, "velocity": 87}, {"time": 4648, "pitch": 58, "duration": 4, "velocity": 90}, {"time": 4654, "pitch": 46, "duration": 3, "velocity": 85}, {"time": 4654, "pitch": 58, "duration": 2, "velocity": 89}, {"time": 4654, "pitch": 63, "duration": 4, "velocity": 98}, {"time": 4654, "pitch": 66, "duration": 5, "velocity": 93}, {"time": 4660, "pitch": 58, "duration": 3, "velocity": 86}, {"time": 4666, "pitch": 47, "duration": 14, "velocity": 98}, {"time": 4666, "pitch": 59, "duration": 6, "velocity": 73}, {"time": 4672, "pitch": 54, "duration": 3, "velocity": 79}, {"time": 4678, "pitch": 59, "duration": 2, "velocity": 90}, {"time": 4678, "pitch": 63, "duration": 3, "velocity": 85}, {"time": 4684, "pitch": 54, "duration": 1, "velocity": 65}, {"time": 4690, "pitch": 54, "duration": 2, "velocity": 79}, {"time": 4696, "pitch": 54, "duration": 3, "velocity": 86}, {"time": 4702, "pitch": 47, "duration": 3, "velocity": 98}, {"time": 4702, "pitch": 59, "duration": 3, "velocity": 93}, {"time": 4702, "pitch": 63, "duration": 3, "velocity": 91}, {"time": 4708, "pitch": 54, "duration": 3, "velocity": 88}, {"time": 4714, "pitch": 42, "duration": 19, "velocity": 86}, {"time": 4714, "pitch": 54, "duration": 5, "velocity": 84}, {"time": 4714, "pitch": 58, "duration": 6, "velocity": 79}, {"time": 4720, "pitch": 49, "duration": 8, "velocity": 70}, {"time": 4726, "pitch": 54, "duration": 2, "velocity": 85}, {"time": 4726, "pitch": 58, "duration": 2, "velocity": 87}, {"time": 4726, "pitch": 61, "duration": 3, "velocity": 88}, {"time": 4732, "pitch": 54, "duration": 3, "velocity": 81}, {"time": 4744, "pitch": 54, "duration": 3, "velocity": 85}, {"time": 4750, "pitch": 42, "duration": 3, "velocity": 86}, {"time": 4750, "pitch": 58, "duration": 3, "velocity": 88}, {"time": 4750, "pitch": 61, "duration": 3, "velocity": 91}, {"time": 4750, "pitch": 66, "duration": 5, "velocity": 89}, {"time": 4756, "pitch": 54, "duration": 2, "velocity": 87}, {"time": 4762, "pitch": 49, "duration": 12, "velocity": 91}, {"time": 4762, "pitch": 56, "duration": 3, "velocity": 84}, {"time": 4762, "pitch": 61, "duration": 5, "velocity": 86}, {"time": 4768, "pitch": 56, "duration": 3, "velocity": 84}, {"time": 4774, "pitch": 56, "duration": 2, "velocity": 88}, {"time": 4774, "pitch": 61, "duration": 4, "velocity": 89}, {"time": 4774, "pitch": 65, "duration": 5, "velocity": 85}, {"time": 4780, "pitch": 56, "duration": 2, "velocity": 85}, {"time": 4786, "pitch": 61, "duration": 3, "velocity": 82}, {"time": 4792, "pitch": 56, "duration": 3, "velocity": 86}, {"time": 4798, "pitch": 49, "duration": 2, "velocity": 101}, {"time": 4798, "pitch": 56, "duration": 2, "velocity": 87}, {"time": 4798, "pitch": 61, "duration": 3, "velocity": 95}, {"time": 4798, "pitch": 65, "duration": 4, "velocity": 90}, {"time": 4804, "pitch": 56, "duration": 2, "velocity": 84}, {"time": 4810, "pitch": 39, "duration": 15, "velocity": 88}, {"time": 4810, "pitch": 58, "duration": 3, "velocity": 83}, {"time": 4810, "pitch": 63, "duration": 4, "velocity": 86}, {"time": 4810, "pitch": 66, "duration": 6, "velocity": 86}, {"time": 4816, "pitch": 58, "duration": 2, "velocity": 83}, {"time": 4822, "pitch": 58, "duration": 3, "velocity": 86}, {"time": 4822, "pitch": 63, "duration": 4, "velocity": 95}, {"time": 4822, "pitch": 66, "duration": 6, "velocity": 91}, {"time": 4828, "pitch": 58, "duration": 2, "velocity": 80}, {"time": 4834, "pitch": 63, "duration": 2, "velocity": 80}, {"time": 4840, "pitch": 39, "duration": 8, "velocity": 87}, {"time": 4840, "pitch": 58, "duration": 4, "velocity": 90}, {"time": 4846, "pitch": 46, "duration": 3, "velocity": 85}, {"time": 4846, "pitch": 58, "duration": 2, "velocity": 89}, {"time": 4846, "pitch": 63, "duration": 4, "velocity": 98}, {"time": 4846, "pitch": 66, "duration": 5, "velocity": 93}, {"time": 4852, "pitch": 58, "duration": 3, "velocity": 86}, {"time": 4858, "pitch": 47, "duration": 14, "velocity": 98}, {"time": 4858, "pitch": 59, "duration": 6, "velocity": 73}, {"time": 4864, "pitch": 54, "duration": 3, "velocity": 79}, {"time": 4870, "pitch": 59, "duration": 2, "velocity": 90}, {"time": 4870, "pitch": 63, "duration": 3, "velocity": 85}, {"time": 4876, "pitch": 54, "duration": 1, "velocity": 65}, {"time": 4882, "pitch": 54, "duration": 2, "velocity": 79}, {"time": 4888, "pitch": 54, "duration": 3, "velocity": 86}, {"time": 4894, "pitch": 47, "duration": 3, "velocity": 98}, {"time": 4894, "pitch": 59, "duration": 3, "velocity": 93}, {"time": 4894, "pitch": 63, "duration": 3, "velocity": 91}, {"time": 4900, "pitch": 54, "duration": 3, "velocity": 88}, {"time": 4906, "pitch": 42, "duration": 19, "velocity": 86}, {"time": 4906, "pitch": 54, "duration": 5, "velocity": 84}, {"time": 4906, "pitch": 58, "duration": 6, "velocity": 79}, {"time": 4912, "pitch": 49, "duration": 8, "velocity": 70}, {"time": 4918, "pitch": 54, "duration": 2, "velocity": 85}, {"time": 4918, "pitch": 58, "duration": 2, "velocity": 87}, {"time": 4918, "pitch": 61, "duration": 3, "velocity": 88}, {"time": 4924, "pitch": 54, "duration": 3, "velocity": 81}, {"time": 4936, "pitch": 54, "duration": 3, "velocity": 85}, {"time": 4942, "pitch": 42, "duration": 3, "velocity": 86}, {"time": 4942, "pitch": 58, "duration": 3, "velocity": 88}, {"time": 4942, "pitch": 61, "duration": 3, "velocity": 91}, {"time": 4942, "pitch": 66, "duration": 5, "velocity": 89}, {"time": 4948, "pitch": 54, "duration": 2, "velocity": 87}, {"time": 4954, "pitch": 49, "duration": 12, "velocity": 91}, {"time": 4954, "pitch": 56, "duration": 3, "velocity": 84}, {"time": 4954, "pitch": 61, "duration": 5, "velocity": 86}, {"time": 4960, "pitch": 56, "duration": 3, "velocity": 84}, {"time": 4966, "pitch": 56, "duration": 2, "velocity": 88}, {"time": 4966, "pitch": 61, "duration": 4, "velocity": 89}, {"time": 4966, "pitch": 65, "duration": 5, "velocity": 85}, {"time": 4972, "pitch": 56, "duration": 2, "velocity": 85}, {"time": 4978, "pitch": 61, "duration": 3, "velocity": 82}, {"time": 4984, "pitch": 56, "duration": 3, "velocity": 86}, {"time": 4990, "pitch": 49, "duration": 2, "velocity": 101}, {"time": 4990, "pitch": 56, "duration": 2, "velocity": 87}, {"time": 4990, "pitch": 61, "duration": 3, "velocity": 95}, {"time": 4990, "pitch": 65, "duration": 4, "velocity": 90}, {"time": 4996, "pitch": 56, "duration": 2, "velocity": 84}, {"time": 5002, "pitch": 39, "duration": 15, "velocity": 88}, {"time": 5002, "pitch": 58, "duration": 3, "velocity": 83}, {"time": 5002, "pitch": 63, "duration": 4, "velocity": 86}, {"time": 5002, "pitch": 66, "duration": 6, "velocity": 86}, {"time": 5008, "pitch": 58, "duration": 2, "velocity": 83}, {"time": 5014, "pitch": 58, "duration": 3, "velocity": 86}, {"time": 5014, "pitch": 63, "duration": 4, "velocity": 95}, {"time": 5014, "pitch": 66, "duration": 6, "velocity": 91}, {"time": 5020, "pitch": 58, "duration": 2, "velocity": 80}, {"time": 5026, "pitch": 63, "duration": 2, "velocity": 80}, {"time": 5032, "pitch": 39, "duration": 8, "velocity": 87}, {"time": 5032, "pitch": 58, "duration": 4, "velocity": 90}, {"time": 5038, "pitch": 46, "duration": 3, "velocity": 85}, {"time": 5038, "pitch": 58, "duration": 2, "velocity": 89}, {"time": 5038, "pitch": 63, "duration": 4, "velocity": 98}, {"time": 5038, "pitch": 66, "duration": 5, "velocity": 93}, {"time": 5044, "pitch": 58, "duration": 3, "velocity": 86}, {"time": 5050, "pitch": 47, "duration": 14, "velocity": 98}, {"time": 5050, "pitch": 59, "duration": 6, "velocity": 73}, {"time": 5056, "pitch": 54, "duration": 3, "velocity": 79}, {"time": 5062, "pitch": 59, "duration": 2, "velocity": 90}, {"time": 5062, "pitch": 63, "duration": 3, "velocity": 85}, {"time": 5068, "pitch": 54, "duration": 1, "velocity": 65}, {"time": 5074, "pitch": 54, "duration": 2, "velocity": 79}, {"time": 5080, "pitch": 54, "duration": 3, "velocity": 86}, {"time": 5086, "pitch": 47, "duration": 3, "velocity": 98}, {"time": 5086, "pitch": 59, "duration": 3, "velocity": 93}, {"time": 5086, "pitch": 63, "duration": 3, "velocity": 91}, {"time": 5092, "pitch": 54, "duration": 3, "velocity": 88}, {"time": 5098, "pitch": 42, "duration": 19, "velocity": 86}, {"time": 5098, "pitch": 54, "duration": 5, "velocity": 84}, {"time": 5098, "pitch": 58, "duration": 6, "velocity": 79}, {"time": 5104, "pitch": 49, "duration": 8, "velocity": 70}, {"time": 5110, "pitch": 54, "duration": 2, "velocity": 85}, {"time": 5110, "pitch": 58, "duration": 2, "velocity": 87}, {"time": 5110, "pitch": 61, "duration": 3, "velocity": 88}, {"time": 5116, "pitch": 54, "duration": 3, "velocity": 81}, {"time": 5128, "pitch": 54, "duration": 3, "velocity": 85}, {"time": 5134, "pitch": 42, "duration": 3, "velocity": 86}, {"time": 5134, "pitch": 58, "duration": 3, "velocity": 88}, {"time": 5134, "pitch": 61, "duration": 3, "velocity": 91}, {"time": 5134, "pitch": 66, "duration": 5, "velocity": 89}, {"time": 5140, "pitch": 54, "duration": 2, "velocity": 87}, {"time": 5146, "pitch": 49, "duration": 12, "velocity": 91}, {"time": 5146, "pitch": 56, "duration": 3, "velocity": 84}, {"time": 5146, "pitch": 61, "duration": 5, "velocity": 86}, {"time": 5152, "pitch": 56, "duration": 3, "velocity": 84}, {"time": 5158, "pitch": 56, "duration": 2, "velocity": 88}, {"time": 5158, "pitch": 61, "duration": 4, "velocity": 89}, {"time": 5158, "pitch": 65, "duration": 5, "velocity": 85}, {"time": 5164, "pitch": 56, "duration": 2, "velocity": 85}, {"time": 5170, "pitch": 61, "duration": 3, "velocity": 82}, {"time": 5176, "pitch": 56, "duration": 3, "velocity": 86}, {"time": 5182, "pitch": 49, "duration": 2, "velocity": 101}, {"time": 5182, "pitch": 56, "duration": 2, "velocity": 87}, {"time": 5182, "pitch": 61, "duration": 3, "velocity": 95}, {"time": 5182, "pitch": 65, "duration": 4, "velocity": 90}, {"time": 5188, "pitch": 56, "duration": 2, "velocity": 84}, {"time": 5194, "pitch": 39, "duration": 15, "velocity": 88}, {"time": 5194, "pitch": 58, "duration": 3, "velocity": 83}, {"time": 5194, "pitch": 63, "duration": 4, "velocity": 86}, {"time": 5194, "pitch": 66, "duration": 6, "velocity": 86}, {"time": 5200, "pitch": 58, "duration": 2, "velocity": 83}, {"time": 5206, "pitch": 58, "duration": 3, "velocity": 86}, {"time": 5206, "pitch": 63, "duration": 4, "velocity": 95}, {"time": 5206, "pitch": 66, "duration": 6, "velocity": 91}, {"time": 5212, "pitch": 58, "duration": 2, "velocity": 80}, {"time": 5218, "pitch": 63, "duration": 2, "velocity": 80}, {"time": 5224, "pitch": 39, "duration": 8, "velocity": 87}, {"time": 5224, "pitch": 58, "duration": 4, "velocity": 90}, {"time": 5230, "pitch": 46, "duration": 3, "velocity": 85}, {"time": 5230, "pitch": 58, "duration": 2, "velocity": 89}, {"time": 5230, "pitch": 63, "duration": 4, "velocity": 98}, {"time": 5230, "pitch": 66, "duration": 5, "velocity": 93}, {"time": 5236, "pitch": 58, "duration": 3, "velocity": 86}, {"time": 5242, "pitch": 47, "duration": 14, "velocity": 98}, {"time": 5242, "pitch": 59, "duration": 6, "velocity": 73}, {"time": 5248, "pitch": 54, "duration": 3, "velocity": 79}, {"time": 5254, "pitch": 59, "duration": 2, "velocity": 90}, {"time": 5254, "pitch": 63, "duration": 3, "velocity": 85}, {"time": 5260, "pitch": 54, "duration": 1, "velocity": 65}, {"time": 5266, "pitch": 54, "duration": 2, "velocity": 79}, {"time": 5272, "pitch": 54, "duration": 3, "velocity": 86}, {"time": 5278, "pitch": 47, "duration": 3, "velocity": 98}, {"time": 5278, "pitch": 59, "duration": 3, "velocity": 93}, {"time": 5278, "pitch": 63, "duration": 3, "velocity": 91}, {"time": 5284, "pitch": 54, "duration": 3, "velocity": 88}, {"time": 5290, "pitch": 42, "duration": 19, "velocity": 86}, {"time": 5290, "pitch": 54, "duration": 5, "velocity": 84}, {"time": 5290, "pitch": 58, "duration": 6, "velocity": 79}, {"time": 5296, "pitch": 49, "duration": 8, "velocity": 70}, {"time": 5302, "pitch": 54, "duration": 2, "velocity": 85}, {"time": 5302, "pitch": 58, "duration": 2, "velocity": 87}, {"time": 5302, "pitch": 61, "duration": 3, "velocity": 88}, {"time": 5308, "pitch": 54, "duration": 3, "velocity": 81}, {"time": 5320, "pitch": 54, "duration": 3, "velocity": 85}, {"time": 5326, "pitch": 42, "duration": 3, "velocity": 86}, {"time": 5326, "pitch": 58, "duration": 3, "velocity": 88}, {"time": 5326, "pitch": 61, "duration": 3, "velocity": 91}, {"time": 5326, "pitch": 66, "duration": 5, "velocity": 89}, {"time": 5332, "pitch": 54, "duration": 2, "velocity": 87}, {"time": 5338, "pitch": 49, "duration": 12, "velocity": 91}, {"time": 5338, "pitch": 56, "duration": 3, "velocity": 84}, {"time": 5338, "pitch": 61, "duration": 5, "velocity": 86}, {"time": 5344, "pitch": 56, "duration": 3, "velocity": 84}, {"time": 5350, "pitch": 56, "duration": 2, "velocity": 88}, {"time": 5350, "pitch": 61, "duration": 4, "velocity": 89}, {"time": 5350, "pitch": 65, "duration": 5, "velocity": 85}, {"time": 5356, "pitch": 56, "duration": 2, "velocity": 85}, {"time": 5362, "pitch": 61, "duration": 3, "velocity": 82}, {"time": 5368, "pitch": 56, "duration": 3, "velocity": 86}, {"time": 5374, "pitch": 49, "duration": 2, "velocity": 101}, {"time": 5374, "pitch": 56, "duration": 2, "velocity": 87}, {"time": 5374, "pitch": 61, "duration": 3, "velocity": 95}, {"time": 5374, "pitch": 65, "duration": 4, "velocity": 90}, {"time": 5380, "pitch": 56, "duration": 2, "velocity": 84}, {"time": 5383, "pitch": 58, "duration": 34, "velocity": 79}, {"time": 5385, "pitch": 39, "duration": 30, "velocity": 84}, {"time": 5385, "pitch": 63, "duration": 32, "velocity": 80}, {"time": 5387, "pitch": 66, "duration": 29, "velocity": 70}], "annotations": [{"time": 12, "annotation": {"number": 64, "value": 127}, "group": "control_change"}, {"time": 56, "annotation": {"number": 64, "value": 0}, "group": "control_change"}, {"time": 73, "annotation": {"number": 64, "value": 127}, "group": "control_change"}, {"time": 73, "annotation": {"number": 64, "value": 0}, "group": "control_change"}, {"time": 97, "annotation": {"number": 64, "value": 0}, "group": "control_change"}, {"time": 119, "annotation": {"number": 64, "value": 127}, "group": "control_change"}, {"time": 119, "annotation": {"number": 64, "value": 0}, "group": "control_change"}, {"time": 151, "annotation": {"number": 64, "value": 0}, "group": "control_change"}, {"time": 156, "annotation": {"number": 64, "value": 127}, "group": "control_change"}, {"time": 196, "annotation": {"number": 64, "value": 0}, "group": "control_change"}, {"time": 224, "annotation": {"number": 64, "value": 0}, "group": "control_change"}, {"time": 226, "annotation": {"number": 64, "value": 127}, "group": "control_change"}, {"time": 248, "annotation": {"number": 64, "value": 0}, "group": "control_change"}, {"time": 251, "annotation": {"number": 64, "value": 127}, "group": "control_change"}, {"time": 297, "annotation": {"number": 64, "value": 0}, "group": "control_change"}, {"time": 300, "annotation": {"number": 64, "value": 127}, "group": "control_change"}, {"time": 344, "annotation": {"number": 64, "value": 0}, "group": "control_change"}, {"time": 347, "annotation": {"number": 64, "value": 127}, "group": "control_change"}, {"time": 389, "annotation": {"number": 64, "value": 0}, "group": "control_change"}, {"time": 395, "annotation": {"number": 64, "value": 127}, "group": "control_change"}, {"time": 440, "annotation": {"number": 64, "value": 0}, "group": "control_change"}, {"time": 443, "annotation": {"number": 64, "value": 127}, "group": "control_change"}, {"time": 489, "annotation": {"number": 64, "value": 0}, "group": "control_change"}, {"time": 491, "annotation": {"number": 64, "value": 127}, "group": "control_change"}, {"time": 524, "annotation": {"number": 64, "value": 0}, "group": "control_change"}, {"time": 526, "annotation": {"number": 64, "value": 127}, "group": "control_change"}, {"time": 536, "annotation": {"number": 64, "value": 0}, "group": "control_change"}, {"time": 538, "annotation": {"number": 64, "value": 127}, "group": "control_change"}, {"time": 581, "annotation": {"number": 64, "value": 0}, "group": "control_change"}, {"time": 587, "annotation": {"number": 64, "value": 127}, "group": "control_change"}, {"time": 632, "annotation": {"number": 64, "value": 0}, "group": "control_change"}, {"time": 635, "annotation": {"number": 64, "value": 127}, "group": "control_change"}, {"time": 681, "annotation": {"number": 64, "value": 0}, "group": "control_change"}, {"time": 683, "annotation": {"number": 64, "value": 127}, "group": "control_change"}, {"time": 716, "annotation": {"number": 64, "value": 0}, "group": "control_change"}, {"time": 718, "annotation": {"number": 64, "value": 127}, "group": "control_change"}, {"time": 728, "annotation": {"number": 64, "value": 0}, "group": "control_change"}, {"time": 730, "annotation": {"number": 64, "value": 127}, "group": "control_change"}, {"time": 773, "annotation": {"number": 64, "value": 0}, "group": "control_change"}, {"time": 780, "annotation": {"number": 64, "value": 127}, "group": "control_change"}, {"time": 822, "annotation": {"number": 64, "value": 0}, "group": "control_change"}, {"time": 825, "annotation": {"number": 64, "value": 127}, "group": "control_change"}, {"time": 871, "annotation": {"number": 64, "value": 0}, "group": "control_change"}, {"time": 873, "annotation": {"number": 64, "value": 127}, "group": "control_change"}, {"time": 919, "annotation": {"number": 64, "value": 0}, "group": "control_change"}, {"time": 922, "annotation": {"number": 64, "value": 127}, "group": "control_change"}, {"time": 969, "annotation": {"number": 64, "value": 0}, "group": "control_change"}, {"time": 969, "annotation": {"number": 64, "value": 127}, "group": "control_change"}, {"time": 1014, "annotation": {"number": 64, "value": 0}, "group": "control_change"}, {"time": 1017, "annotation": {"number": 64, "value": 127}, "group": "control_change"}, {"time": 1062, "annotation": {"number": 64, "value": 0}, "group": "control_change"}, {"time": 1065, "annotation": {"number": 64, "value": 127}, "group": "control_change"}, {"time": 1110, "annotation": {"number": 64, "value": 0}, "group": "control_change"}, {"time": 1112, "annotation": {"number": 64, "value": 127}, "group": "control_change"}, {"time": 1155, "annotation": {"number": 64, "value": 0}, "group": "control_change"}, {"time": 1207, "annotation": {"number": 64, "value": 0}, "group": "control_change"}, {"time": 1209, "annotation": {"number": 64, "value": 127}, "group": "control_change"}, {"time": 1255, "annotation": {"number": 64, "value": 0}, "group": "control_change"}, {"time": 1258, "annotation": {"number": 64, "value": 127}, "group": "control_change"}, {"time": 1303, "annotation": {"number": 64, "value": 0}, "group": "control_change"}, {"time": 1305, "annotation": {"number": 64, "value": 127}, "group": "control_change"}, {"time": 1350, "annotation": {"number": 64, "value": 0}, "group": "control_change"}, {"time": 1352, "annotation": {"number": 64, "value": 127}, "group": "control_change"}, {"time": 1399, "annotation": {"number": 64, "value": 0}, "group": "control_change"}, {"time": 1401, "annotation": {"number": 64, "value": 127}, "group": "control_change"}, {"time": 1447, "annotation": {"number": 64, "value": 0}, "group": "control_change"}, {"time": 1450, "annotation": {"number": 64, "value": 127}, "group": "control_change"}, {"time": 1495, "annotation": {"number": 64, "value": 0}, "group": "control_change"}, {"time": 1497, "annotation": {"number": 64, "value": 127}, "group": "control_change"}, {"time": 1542, "annotation": {"number": 64, "value": 0}, "group": "control_change"}, {"time": 1544, "annotation": {"number": 64, "value": 127}, "group": "control_change"}, {"time": 1591, "annotation": {"number": 64, "value": 0}, "group": "control_change"}, {"time": 1593, "annotation": {"number": 64, "value": 127}, "group": "control_change"}, {"time": 1639, "annotation": {"number": 64, "value": 0}, "group": "control_change"}, {"time": 1642, "annotation": {"number": 64, "value": 127}, "group": "control_change"}, {"time": 1687, "annotation": {"number": 64, "value": 0}, "group": "control_change"}, {"time": 1689, "annotation": {"number": 64, "value": 127}, "group": "control_change"}, {"time": 1734, "annotation": {"number": 64, "value": 0}, "group": "control_change"}, {"time": 1736, "annotation": {"number": 64, "value": 127}, "group": "control_change"}, {"time": 1783, "annotation": {"number": 64, "value": 0}, "group": "control_change"}, {"time": 1785, "annotation": {"number": 64, "value": 127}, "group": "control_change"}, {"time": 1831, "annotation": {"number": 64, "value": 0}, "group": "control_change"}, {"time": 1834, "annotation": {"number": 64, "value": 127}, "group": "control_change"}, {"time": 1879, "annotation": {"number": 64, "value": 0}, "group": "control_change"}, {"time": 1881, "annotation": {"number": 64, "value": 127}, "group": "control_change"}, {"time": 1926, "annotation": {"number": 64, "value": 0}, "group": "control_change"}, {"time": 1928, "annotation": {"number": 64, "value": 127}, "group": "control_change"}, {"time": 1975, "annotation": {"number": 64, "value": 0}, "group": "control_change"}, {"time": 1977, "annotation": {"number": 64, "value": 127}, "group": "control_change"}, {"time": 2023, "annotation": {"number": 64, "value": 0}, "group": "control_change"}, {"time": 2026, "annotation": {"number": 64, "value": 127}, "group": "control_change"}, {"time": 2071, "annotation": {"number": 64, "value": 0}, "group": "control_change"}, {"time": 2073, "annotation": {"number": 64, "value": 127}, "group": "control_change"}, {"time": 2118, "annotation": {"number": 64, "value": 0}, "group": "control_change"}, {"time": 2120, "annotation": {"number": 64, "value": 127}, "group": "control_change"}, {"time": 2123, "annotation": {"number": 64, "value": 127}, "group": "control_change"}, {"time": 2168, "annotation": {"number": 64, "value": 0}, "group": "control_change"}, {"time": 2171, "annotation": {"number": 64, "value": 127}, "group": "control_change"}, {"time": 2217, "annotation": {"number": 64, "value": 0}, "group": "control_change"}, {"time": 2219, "annotation": {"number": 64, "value": 127}, "group": "control_change"}, {"time": 2252, "annotation": {"number": 64, "value": 0}, "group": "control_change"}, {"time": 2254, "annotation": {"number": 64, "value": 127}, "group": "control_change"}, {"time": 2264, "annotation": {"number": 64, "value": 0}, "group": "control_change"}, {"time": 2266, "annotation": {"number": 64, "value": 127}, "group": "control_change"}, {"time": 2309, "annotation": {"number": 64, "value": 0}, "group": "control_change"}, {"time": 2315, "annotation": {"number": 64, "value": 127}, "group": "control_change"}, {"time": 2360, "annotation": {"number": 64, "value": 0}, "group": "control_change"}, {"time": 2363, "annotation": {"number": 64, "value": 127}, "group": "control_change"}, {"time": 2409, "annotation": {"number": 64, "value": 0}, "group": "control_change"}, {"time": 2411, "annotation": {"number": 64, "value": 127}, "group": "control_change"}, {"time": 2444, "annotation": {"number": 64, "value": 0}, "group": "control_change"}, {"time": 2446, "annotation": {"number": 64, "value": 127}, "group": "control_change"}, {"time": 2456, "annotation": {"number": 64, "value": 0}, "group": "control_change"}, {"time": 2458, "annotation": {"number": 64, "value": 127}, "group": "control_change"}, {"time": 2501, "annotation": {"number": 64, "value": 0}, "group": "control_change"}, {"time": 2508, "annotation": {"number": 64, "value": 127}, "group": "control_change"}, {"time": 2550, "annotation": {"number": 64, "value": 0}, "group": "control_change"}, {"time": 2553, "annotation": {"number": 64, "value": 127}, "group": "control_change"}, {"time": 2599, "annotation": {"number": 64, "value": 0}, "group": "control_change"}, {"time": 2601, "annotation": {"number": 64, "value": 127}, "group": "control_change"}, {"time": 2647, "annotation": {"number": 64, "value": 0}, "group": "control_change"}, {"time": 2650, "annotation": {"number": 64, "value": 127}, "group": "control_change"}, {"time": 2697, "annotation": {"number": 64, "value": 0}, "group": "control_change"}, {"time": 2697, "annotation": {"number": 64, "value": 127}, "group": "control_change"}, {"time": 2742, "annotation": {"number": 64, "value": 0}, "group": "control_change"}, {"time": 2745, "annotation": {"number": 64, "value": 127}, "group": "control_change"}, {"time": 2790, "annotation": {"number": 64, "value": 0}, "group": "control_change"}, {"time": 2793, "annotation": {"number": 64, "value": 127}, "group": "control_change"}, {"time": 2838, "annotation": {"number": 64, "value": 0}, "group": "control_change"}, {"time": 2840, "annotation": {"number": 64, "value": 127}, "group": "control_change"}, {"time": 2883, "annotation": {"number": 64, "value": 0}, "group": "control_change"}, {"time": 2935, "annotation": {"number": 64, "value": 0}, "group": "control_change"}, {"time": 2937, "annotation": {"number": 64, "value": 127}, "group": "control_change"}, {"time": 2983, "annotation": {"number": 64, "value": 0}, "group": "control_change"}, {"time": 2986, "annotation": {"number": 64, "value": 127}, "group": "control_change"}, {"time": 3031, "annotation": {"number": 64, "value": 0}, "group": "control_change"}, {"time": 3033, "annotation": {"number": 64, "value": 127}, "group": "control_change"}, {"time": 3078, "annotation": {"number": 64, "value": 0}, "group": "control_change"}, {"time": 3080, "annotation": {"number": 64, "value": 127}, "group": "control_change"}, {"time": 3127, "annotation": {"number": 64, "value": 0}, "group": "control_change"}, {"time": 3129, "annotation": {"number": 64, "value": 127}, "group": "control_change"}, {"time": 3175, "annotation": {"number": 64, "value": 0}, "group": "control_change"}, {"time": 3178, "annotation": {"number": 64, "value": 127}, "group": "control_change"}, {"time": 3223, "annotation": {"number": 64, "value": 0}, "group": "control_change"}, {"time": 3225, "annotation": {"number": 64, "value": 127}, "group": "control_change"}, {"time": 3270, "annotation": {"number": 64, "value": 0}, "group": "control_change"}, {"time": 3272, "annotation": {"number": 64, "value": 127}, "group": "control_change"}, {"time": 3319, "annotation": {"number": 64, "value": 0}, "group": "control_change"}, {"time": 3321, "annotation": {"number": 64, "value": 127}, "group": "control_change"}, {"time": 3367, "annotation": {"number": 64, "value": 0}, "group": "control_change"}, {"time": 3370, "annotation": {"number": 64, "value": 127}, "group": "control_change"}, {"time": 3415, "annotation": {"number": 64, "value": 0}, "group": "control_change"}, {"time": 3417, "annotation": {"number": 64, "value": 127}, "group": "control_change"}, {"time": 3462, "annotation": {"number": 64, "value": 0}, "group": "control_change"}, {"time": 3464, "annotation": {"number": 64, "value": 127}, "group": "control_change"}, {"time": 3511, "annotation": {"number": 64, "value": 0}, "group": "control_change"}, {"time": 3513, "annotation": {"number": 64, "value": 127}, "group": "control_change"}, {"time": 3559, "annotation": {"number": 64, "value": 0}, "group": "control_change"}, {"time": 3562, "annotation": {"number": 64, "value": 127}, "group": "control_change"}, {"time": 3607, "annotation": {"number": 64, "value": 0}, "group": "control_change"}, {"time": 3609, "annotation": {"number": 64, "value": 127}, "group": "control_change"}, {"time": 3654, "annotation": {"number": 64, "value": 0}, "group": "control_change"}, {"time": 3656, "annotation": {"number": 64, "value": 127}, "group": "control_change"}, {"time": 3703, "annotation": {"number": 64, "value": 0}, "group": "control_change"}, {"time": 3705, "annotation": {"number": 64, "value": 127}, "group": "control_change"}, {"time": 3751, "annotation": {"number": 64, "value": 0}, "group": "control_change"}, {"time": 3754, "annotation": {"number": 64, "value": 127}, "group": "control_change"}, {"time": 3799, "annotation": {"number": 64, "value": 0}, "group": "control_change"}, {"time": 3801, "annotation": {"number": 64, "value": 127}, "group": "control_change"}, {"time": 3846, "annotation": {"number": 64, "value": 0}, "group": "control_change"}, {"time": 3848, "annotation": {"number": 64, "value": 127}, "group": "control_change"}, {"time": 3895, "annotation": {"number": 64, "value": 0}, "group": "control_change"}, {"time": 3897, "annotation": {"number": 64, "value": 127}, "group": "control_change"}, {"time": 3943, "annotation": {"number": 64, "value": 0}, "group": "control_change"}, {"time": 3946, "annotation": {"number": 64, "value": 127}, "group": "control_change"}, {"time": 3991, "annotation": {"number": 64, "value": 0}, "group": "control_change"}, {"time": 3993, "annotation": {"number": 64, "value": 127}, "group": "control_change"}, {"time": 4037, "annotation": {"number": 64, "value": 0}, "group": "control_change"}, {"time": 4041, "annotation": {"number": 64, "value": 127}, "group": "control_change"}, {"time": 4086, "annotation": {"number": 64, "value": 0}, "group": "control_change"}, {"time": 4088, "annotation": {"number": 64, "value": 127}, "group": "control_change"}, {"time": 4112, "annotation": {"number": 64, "value": 0}, "group": "control_change"}, {"time": 4113, "annotation": {"number": 64, "value": 127}, "group": "control_change"}, {"time": 4137, "annotation": {"number": 64, "value": 0}, "group": "control_change"}, {"time": 4138, "annotation": {"number": 64, "value": 127}, "group": "control_change"}, {"time": 4183, "annotation": {"number": 64, "value": 0}, "group": "control_change"}, {"time": 4185, "annotation": {"number": 64, "value": 127}, "group": "control_change"}, {"time": 4229, "annotation": {"number": 64, "value": 0}, "group": "control_change"}, {"time": 4279, "annotation": {"number": 64, "value": 0}, "group": "control_change"}, {"time": 4281, "annotation": {"number": 64, "value": 127}, "group": "control_change"}, {"time": 4327, "annotation": {"number": 64, "value": 0}, "group": "control_change"}, {"time": 4330, "annotation": {"number": 64, "value": 127}, "group": "control_change"}, {"time": 4375, "annotation": {"number": 64, "value": 0}, "group": "control_change"}, {"time": 4377, "annotation": {"number": 64, "value": 127}, "group": "control_change"}, {"time": 4422, "annotation": {"number": 64, "value": 0}, "group": "control_change"}, {"time": 4424, "annotation": {"number": 64, "value": 127}, "group": "control_change"}, {"time": 4471, "annotation": {"number": 64, "value": 0}, "group": "control_change"}, {"time": 4473, "annotation": {"number": 64, "value": 127}, "group": "control_change"}, {"time": 4519, "annotation": {"number": 64, "value": 0}, "group": "control_change"}, {"time": 4522, "annotation": {"number": 64, "value": 127}, "group": "control_change"}, {"time": 4567, "annotation": {"number": 64, "value": 0}, "group": "control_change"}, {"time": 4569, "annotation": {"number": 64, "value": 127}, "group": "control_change"}, {"time": 4614, "annotation": {"number": 64, "value": 0}, "group": "control_change"}, {"time": 4616, "annotation": {"number": 64, "value": 127}, "group": "control_change"}, {"time": 4663, "annotation": {"number": 64, "value": 0}, "group": "control_change"}, {"time": 4665, "annotation": {"number": 64, "value": 127}, "group": "control_change"}, {"time": 4711, "annotation": {"number": 64, "value": 0}, "group": "control_change"}, {"time": 4714, "annotation": {"number": 64, "value": 127}, "group": "control_change"}, {"time": 4759, "annotation": {"number": 64, "value": 0}, "group": "control_change"}, {"time": 4761, "annotation": {"number": 64, "value": 127}, "group": "control_change"}, {"time": 4806, "annotation": {"number": 64, "value": 0}, "group": "control_change"}, {"time": 4808, "annotation": {"number": 64, "value": 127}, "group": "control_change"}, {"time": 4855, "annotation": {"number": 64, "value": 0}, "group": "control_change"}, {"time": 4857, "annotation": {"number": 64, "value": 127}, "group": "control_change"}, {"time": 4903, "annotation": {"number": 64, "value": 0}, "group": "control_change"}, {"time": 4906, "annotation": {"number": 64, "value": 127}, "group": "control_change"}, {"time": 4951, "annotation": {"number": 64, "value": 0}, "group": "control_change"}, {"time": 4953, "annotation": {"number": 64, "value": 127}, "group": "control_change"}, {"time": 4998, "annotation": {"number": 64, "value": 0}, "group": "control_change"}, {"time": 5000, "annotation": {"number": 64, "value": 127}, "group": "control_change"}, {"time": 5047, "annotation": {"number": 64, "value": 0}, "group": "control_change"}, {"time": 5049, "annotation": {"number": 64, "value": 127}, "group": "control_change"}, {"time": 5095, "annotation": {"number": 64, "value": 0}, "group": "control_change"}, {"time": 5098, "annotation": {"number": 64, "value": 127}, "group": "control_change"}, {"time": 5143, "annotation": {"number": 64, "value": 0}, "group": "control_change"}, {"time": 5145, "annotation": {"number": 64, "value": 127}, "group": "control_change"}, {"time": 5190, "annotation": {"number": 64, "value": 0}, "group": "control_change"}, {"time": 5192, "annotation": {"number": 64, "value": 127}, "group": "control_change"}, {"time": 5239, "annotation": {"number": 64, "value": 0}, "group": "control_change"}, {"time": 5241, "annotation": {"number": 64, "value": 127}, "group": "control_change"}, {"time": 5287, "annotation": {"number": 64, "value": 0}, "group": "control_change"}, {"time": 5290, "annotation": {"number": 64, "value": 127}, "group": "control_change"}, {"time": 5335, "annotation": {"number": 64, "value": 0}, "group": "control_change"}, {"time": 5337, "annotation": {"number": 64, "value": 127}, "group": "control_change"}, {"time": 5382, "annotation": {"number": 64, "value": 0}, "group": "control_change"}, {"time": 5384, "annotation": {"number": 64, "value": 127}, "group": "control_change"}, {"time": 5385, "annotation": {"number": 64, "value": 127}, "group": "control_change"}, {"time": 5494, "annotation": {"number": 64, "value": 0}, "group": "control_change"}]}]}