{"metadata": {"schema_version": "0.2", "title": "None", "source_filename": "815.mid", "source_format": "midi"}, "resolution": 12, "tempos": [{"time": 0, "qpm": 72.00002880001152}], "time_signatures": [{"time": 0, "numerator": 1, "denominator": 4}], "tracks": [{"program": 4, "is_drum": false, "name": "MELODY", "notes": [{"time": 288, "pitch": 59, "duration": 5, "velocity": 86}, {"time": 294, "pitch": 68, "duration": 5, "velocity": 88}, {"time": 300, "pitch": 66, "duration": 5, "velocity": 83}, {"time": 306, "pitch": 64, "duration": 5, "velocity": 85}, {"time": 312, "pitch": 64, "duration": 4, "velocity": 85}, {"time": 318, "pitch": 64, "duration": 14, "velocity": 86}, {"time": 336, "pitch": 59, "duration": 5, "velocity": 85}, {"time": 342, "pitch": 68, "duration": 5, "velocity": 86}, {"time": 348, "pitch": 66, "duration": 4, "velocity": 85}, {"time": 354, "pitch": 64, "duration": 4, "velocity": 85}, {"time": 360, "pitch": 64, "duration": 4, "velocity": 86}, {"time": 366, "pitch": 64, "duration": 14, "velocity": 86}, {"time": 384, "pitch": 59, "duration": 5, "velocity": 86}, {"time": 390, "pitch": 68, "duration": 5, "velocity": 88}, {"time": 396, "pitch": 66, "duration": 5, "velocity": 83}, {"time": 402, "pitch": 64, "duration": 5, "velocity": 85}, {"time": 408, "pitch": 64, "duration": 4, "velocity": 85}, {"time": 414, "pitch": 64, "duration": 6, "velocity": 86}, {"time": 420, "pitch": 66, "duration": 4, "velocity": 80}, {"time": 426, "pitch": 66, "duration": 4, "velocity": 76}, {"time": 432, "pitch": 66, "duration": 5, "velocity": 79}, {"time": 438, "pitch": 64, "duration": 5, "velocity": 84}, {"time": 444, "pitch": 66, "duration": 6, "velocity": 79}, {"time": 450, "pitch": 68, "duration": 5, "velocity": 79}, {"time": 456, "pitch": 68, "duration": 5, "velocity": 80}, {"time": 462, "pitch": 68, "duration": 16, "velocity": 83}, {"time": 480, "pitch": 64, "duration": 6, "velocity": 85}, {"time": 486, "pitch": 73, "duration": 5, "velocity": 86}, {"time": 492, "pitch": 73, "duration": 4, "velocity": 85}, {"time": 498, "pitch": 73, "duration": 5, "velocity": 86}, {"time": 504, "pitch": 73, "duration": 4, "velocity": 85}, {"time": 510, "pitch": 73, "duration": 5, "velocity": 85}, {"time": 516, "pitch": 73, "duration": 9, "velocity": 87}, {"time": 528, "pitch": 73, "duration": 5, "velocity": 84}, {"time": 534, "pitch": 68, "duration": 5, "velocity": 79}, {"time": 540, "pitch": 71, "duration": 5, "velocity": 79}, {"time": 546, "pitch": 71, "duration": 4, "velocity": 82}, {"time": 552, "pitch": 71, "duration": 4, "velocity": 82}, {"time": 558, "pitch": 73, "duration": 4, "velocity": 81}, {"time": 564, "pitch": 71, "duration": 9, "velocity": 79}, {"time": 576, "pitch": 59, "duration": 4, "velocity": 79}, {"time": 582, "pitch": 68, "duration": 4, "velocity": 78}, {"time": 588, "pitch": 69, "duration": 9, "velocity": 84}, {"time": 600, "pitch": 69, "duration": 5, "velocity": 80}, {"time": 606, "pitch": 68, "duration": 4, "velocity": 80}, {"time": 612, "pitch": 69, "duration": 5, "velocity": 82}, {"time": 618, "pitch": 68, "duration": 4, "velocity": 79}, {"time": 624, "pitch": 66, "duration": 5, "velocity": 79}, {"time": 630, "pitch": 64, "duration": 5, "velocity": 82}, {"time": 636, "pitch": 64, "duration": 4, "velocity": 85}, {"time": 642, "pitch": 66, "duration": 5, "velocity": 73}, {"time": 648, "pitch": 66, "duration": 4, "velocity": 78}, {"time": 654, "pitch": 66, "duration": 14, "velocity": 79}, {"time": 672, "pitch": 59, "duration": 5, "velocity": 86}, {"time": 678, "pitch": 68, "duration": 5, "velocity": 88}, {"time": 684, "pitch": 66, "duration": 5, "velocity": 83}, {"time": 690, "pitch": 64, "duration": 5, "velocity": 85}, {"time": 696, "pitch": 64, "duration": 4, "velocity": 85}, {"time": 702, "pitch": 64, "duration": 14, "velocity": 86}, {"time": 720, "pitch": 59, "duration": 5, "velocity": 85}, {"time": 726, "pitch": 68, "duration": 5, "velocity": 86}, {"time": 732, "pitch": 66, "duration": 4, "velocity": 85}, {"time": 738, "pitch": 64, "duration": 4, "velocity": 85}, {"time": 744, "pitch": 64, "duration": 4, "velocity": 86}, {"time": 750, "pitch": 64, "duration": 14, "velocity": 86}, {"time": 768, "pitch": 59, "duration": 5, "velocity": 86}, {"time": 774, "pitch": 68, "duration": 5, "velocity": 88}, {"time": 780, "pitch": 66, "duration": 5, "velocity": 83}, {"time": 786, "pitch": 64, "duration": 5, "velocity": 85}, {"time": 792, "pitch": 64, "duration": 4, "velocity": 85}, {"time": 798, "pitch": 64, "duration": 6, "velocity": 86}, {"time": 804, "pitch": 66, "duration": 4, "velocity": 80}, {"time": 810, "pitch": 66, "duration": 4, "velocity": 76}, {"time": 816, "pitch": 66, "duration": 5, "velocity": 79}, {"time": 822, "pitch": 64, "duration": 5, "velocity": 84}, {"time": 828, "pitch": 66, "duration": 6, "velocity": 79}, {"time": 834, "pitch": 68, "duration": 5, "velocity": 79}, {"time": 840, "pitch": 68, "duration": 5, "velocity": 80}, {"time": 846, "pitch": 68, "duration": 16, "velocity": 83}, {"time": 864, "pitch": 64, "duration": 6, "velocity": 85}, {"time": 870, "pitch": 73, "duration": 5, "velocity": 86}, {"time": 876, "pitch": 73, "duration": 4, "velocity": 85}, {"time": 882, "pitch": 73, "duration": 5, "velocity": 86}, {"time": 888, "pitch": 73, "duration": 4, "velocity": 85}, {"time": 894, "pitch": 73, "duration": 5, "velocity": 85}, {"time": 900, "pitch": 73, "duration": 9, "velocity": 87}, {"time": 912, "pitch": 73, "duration": 5, "velocity": 84}, {"time": 918, "pitch": 68, "duration": 5, "velocity": 79}, {"time": 924, "pitch": 71, "duration": 5, "velocity": 79}, {"time": 930, "pitch": 71, "duration": 4, "velocity": 82}, {"time": 936, "pitch": 71, "duration": 4, "velocity": 82}, {"time": 942, "pitch": 73, "duration": 4, "velocity": 81}, {"time": 948, "pitch": 71, "duration": 9, "velocity": 79}, {"time": 960, "pitch": 59, "duration": 4, "velocity": 79}, {"time": 966, "pitch": 68, "duration": 4, "velocity": 78}, {"time": 972, "pitch": 69, "duration": 9, "velocity": 84}, {"time": 984, "pitch": 69, "duration": 5, "velocity": 80}, {"time": 990, "pitch": 68, "duration": 4, "velocity": 80}, {"time": 996, "pitch": 69, "duration": 5, "velocity": 82}, {"time": 1002, "pitch": 68, "duration": 4, "velocity": 79}, {"time": 1008, "pitch": 66, "duration": 5, "velocity": 79}, {"time": 1014, "pitch": 64, "duration": 5, "velocity": 82}, {"time": 1020, "pitch": 64, "duration": 4, "velocity": 85}, {"time": 1026, "pitch": 71, "duration": 42, "velocity": 73}, {"time": 1074, "pitch": 64, "duration": 4, "velocity": 85}, {"time": 1080, "pitch": 64, "duration": 4, "velocity": 85}, {"time": 1086, "pitch": 66, "duration": 4, "velocity": 85}, {"time": 1092, "pitch": 68, "duration": 11, "velocity": 86}, {"time": 1104, "pitch": 68, "duration": 4, "velocity": 89}, {"time": 1110, "pitch": 71, "duration": 5, "velocity": 88}, {"time": 1116, "pitch": 73, "duration": 8, "velocity": 88}, {"time": 1125, "pitch": 75, "duration": 2, "velocity": 85}, {"time": 1128, "pitch": 73, "duration": 4, "velocity": 91}, {"time": 1134, "pitch": 71, "duration": 5, "velocity": 88}, {"time": 1140, "pitch": 68, "duration": 9, "velocity": 86}, {"time": 1170, "pitch": 64, "duration": 4, "velocity": 81}, {"time": 1176, "pitch": 64, "duration": 4, "velocity": 83}, {"time": 1182, "pitch": 66, "duration": 5, "velocity": 80}, {"time": 1188, "pitch": 68, "duration": 11, "velocity": 84}, {"time": 1200, "pitch": 66, "duration": 6, "velocity": 85}, {"time": 1206, "pitch": 64, "duration": 5, "velocity": 84}, {"time": 1212, "pitch": 68, "duration": 7, "velocity": 82}, {"time": 1218, "pitch": 71, "duration": 4, "velocity": 84}, {"time": 1224, "pitch": 71, "duration": 5, "velocity": 85}, {"time": 1230, "pitch": 73, "duration": 5, "velocity": 90}, {"time": 1236, "pitch": 66, "duration": 12, "velocity": 80}, {"time": 1266, "pitch": 68, "duration": 4, "velocity": 88}, {"time": 1272, "pitch": 68, "duration": 5, "velocity": 85}, {"time": 1278, "pitch": 70, "duration": 5, "velocity": 85}, {"time": 1284, "pitch": 72, "duration": 10, "velocity": 84}, {"time": 1296, "pitch": 72, "duration": 5, "velocity": 88}, {"time": 1302, "pitch": 68, "duration": 5, "velocity": 85}, {"time": 1308, "pitch": 75, "duration": 6, "velocity": 87}, {"time": 1314, "pitch": 73, "duration": 5, "velocity": 90}, {"time": 1320, "pitch": 75, "duration": 6, "velocity": 89}, {"time": 1326, "pitch": 76, "duration": 6, "velocity": 85}, {"time": 1332, "pitch": 75, "duration": 6, "velocity": 86}, {"time": 1338, "pitch": 73, "duration": 8, "velocity": 88}, {"time": 1362, "pitch": 73, "duration": 5, "velocity": 90}, {"time": 1368, "pitch": 73, "duration": 4, "velocity": 88}, {"time": 1374, "pitch": 71, "duration": 5, "velocity": 80}, {"time": 1380, "pitch": 71, "duration": 9, "velocity": 84}, {"time": 1389, "pitch": 68, "duration": 2, "velocity": 84}, {"time": 1392, "pitch": 66, "duration": 5, "velocity": 78}, {"time": 1398, "pitch": 64, "duration": 4, "velocity": 83}, {"time": 1404, "pitch": 66, "duration": 5, "velocity": 84}, {"time": 1410, "pitch": 68, "duration": 5, "velocity": 82}, {"time": 1416, "pitch": 66, "duration": 5, "velocity": 79}, {"time": 1422, "pitch": 64, "duration": 5, "velocity": 84}, {"time": 1428, "pitch": 66, "duration": 4, "velocity": 76}, {"time": 1434, "pitch": 68, "duration": 4, "velocity": 80}, {"time": 1440, "pitch": 66, "duration": 5, "velocity": 79}, {"time": 1446, "pitch": 64, "duration": 5, "velocity": 81}, {"time": 1458, "pitch": 64, "duration": 4, "velocity": 85}, {"time": 1464, "pitch": 64, "duration": 4, "velocity": 85}, {"time": 1470, "pitch": 66, "duration": 4, "velocity": 85}, {"time": 1476, "pitch": 68, "duration": 11, "velocity": 86}, {"time": 1488, "pitch": 68, "duration": 4, "velocity": 89}, {"time": 1494, "pitch": 71, "duration": 5, "velocity": 88}, {"time": 1500, "pitch": 73, "duration": 8, "velocity": 88}, {"time": 1509, "pitch": 75, "duration": 2, "velocity": 85}, {"time": 1512, "pitch": 73, "duration": 4, "velocity": 91}, {"time": 1518, "pitch": 71, "duration": 5, "velocity": 88}, {"time": 1524, "pitch": 68, "duration": 9, "velocity": 86}, {"time": 1554, "pitch": 64, "duration": 4, "velocity": 81}, {"time": 1560, "pitch": 64, "duration": 4, "velocity": 83}, {"time": 1566, "pitch": 66, "duration": 5, "velocity": 80}, {"time": 1572, "pitch": 68, "duration": 11, "velocity": 84}, {"time": 1584, "pitch": 66, "duration": 6, "velocity": 85}, {"time": 1590, "pitch": 64, "duration": 5, "velocity": 84}, {"time": 1596, "pitch": 68, "duration": 7, "velocity": 82}, {"time": 1602, "pitch": 71, "duration": 4, "velocity": 84}, {"time": 1608, "pitch": 71, "duration": 5, "velocity": 85}, {"time": 1614, "pitch": 73, "duration": 5, "velocity": 90}, {"time": 1620, "pitch": 66, "duration": 12, "velocity": 80}, {"time": 1650, "pitch": 68, "duration": 4, "velocity": 88}, {"time": 1656, "pitch": 68, "duration": 5, "velocity": 85}, {"time": 1662, "pitch": 70, "duration": 5, "velocity": 85}, {"time": 1668, "pitch": 72, "duration": 10, "velocity": 84}, {"time": 1680, "pitch": 72, "duration": 5, "velocity": 88}, {"time": 1686, "pitch": 68, "duration": 5, "velocity": 85}, {"time": 1692, "pitch": 75, "duration": 6, "velocity": 87}, {"time": 1698, "pitch": 73, "duration": 5, "velocity": 90}, {"time": 1704, "pitch": 75, "duration": 6, "velocity": 89}, {"time": 1710, "pitch": 76, "duration": 6, "velocity": 85}, {"time": 1716, "pitch": 75, "duration": 6, "velocity": 86}, {"time": 1722, "pitch": 73, "duration": 8, "velocity": 88}, {"time": 1746, "pitch": 73, "duration": 5, "velocity": 90}, {"time": 1752, "pitch": 73, "duration": 4, "velocity": 88}, {"time": 1758, "pitch": 71, "duration": 5, "velocity": 80}, {"time": 1764, "pitch": 71, "duration": 9, "velocity": 84}, {"time": 1773, "pitch": 68, "duration": 2, "velocity": 84}, {"time": 1776, "pitch": 66, "duration": 5, "velocity": 78}, {"time": 1782, "pitch": 64, "duration": 4, "velocity": 83}, {"time": 1788, "pitch": 66, "duration": 5, "velocity": 84}, {"time": 1794, "pitch": 68, "duration": 5, "velocity": 82}, {"time": 1800, "pitch": 66, "duration": 5, "velocity": 79}, {"time": 1806, "pitch": 64, "duration": 12, "velocity": 84}, {"time": 1818, "pitch": 68, "duration": 4, "velocity": 80}, {"time": 1824, "pitch": 66, "duration": 5, "velocity": 79}, {"time": 1830, "pitch": 64, "duration": 5, "velocity": 81}, {"time": 2208, "pitch": 59, "duration": 5, "velocity": 86}, {"time": 2214, "pitch": 68, "duration": 5, "velocity": 88}, {"time": 2220, "pitch": 66, "duration": 5, "velocity": 83}, {"time": 2226, "pitch": 64, "duration": 5, "velocity": 85}, {"time": 2232, "pitch": 64, "duration": 4, "velocity": 85}, {"time": 2238, "pitch": 64, "duration": 14, "velocity": 86}, {"time": 2256, "pitch": 59, "duration": 5, "velocity": 85}, {"time": 2262, "pitch": 68, "duration": 5, "velocity": 86}, {"time": 2268, "pitch": 66, "duration": 4, "velocity": 85}, {"time": 2274, "pitch": 64, "duration": 4, "velocity": 85}, {"time": 2280, "pitch": 64, "duration": 4, "velocity": 86}, {"time": 2286, "pitch": 64, "duration": 14, "velocity": 86}, {"time": 2304, "pitch": 59, "duration": 5, "velocity": 86}, {"time": 2310, "pitch": 68, "duration": 5, "velocity": 88}, {"time": 2316, "pitch": 66, "duration": 5, "velocity": 83}, {"time": 2322, "pitch": 64, "duration": 5, "velocity": 85}, {"time": 2328, "pitch": 64, "duration": 4, "velocity": 85}, {"time": 2334, "pitch": 64, "duration": 6, "velocity": 86}, {"time": 2340, "pitch": 66, "duration": 4, "velocity": 80}, {"time": 2346, "pitch": 66, "duration": 4, "velocity": 76}, {"time": 2352, "pitch": 66, "duration": 5, "velocity": 79}, {"time": 2358, "pitch": 64, "duration": 5, "velocity": 84}, {"time": 2364, "pitch": 66, "duration": 6, "velocity": 79}, {"time": 2370, "pitch": 68, "duration": 5, "velocity": 79}, {"time": 2376, "pitch": 68, "duration": 5, "velocity": 80}, {"time": 2382, "pitch": 68, "duration": 16, "velocity": 83}, {"time": 2400, "pitch": 64, "duration": 6, "velocity": 85}, {"time": 2406, "pitch": 73, "duration": 5, "velocity": 86}, {"time": 2412, "pitch": 73, "duration": 4, "velocity": 85}, {"time": 2418, "pitch": 73, "duration": 5, "velocity": 86}, {"time": 2424, "pitch": 73, "duration": 4, "velocity": 85}, {"time": 2430, "pitch": 73, "duration": 5, "velocity": 85}, {"time": 2436, "pitch": 73, "duration": 9, "velocity": 87}, {"time": 2448, "pitch": 73, "duration": 5, "velocity": 84}, {"time": 2454, "pitch": 68, "duration": 5, "velocity": 79}, {"time": 2460, "pitch": 71, "duration": 5, "velocity": 79}, {"time": 2466, "pitch": 71, "duration": 4, "velocity": 82}, {"time": 2472, "pitch": 71, "duration": 4, "velocity": 82}, {"time": 2478, "pitch": 73, "duration": 4, "velocity": 81}, {"time": 2484, "pitch": 71, "duration": 9, "velocity": 79}, {"time": 2496, "pitch": 59, "duration": 4, "velocity": 79}, {"time": 2502, "pitch": 68, "duration": 4, "velocity": 78}, {"time": 2508, "pitch": 69, "duration": 9, "velocity": 84}, {"time": 2520, "pitch": 69, "duration": 5, "velocity": 80}, {"time": 2526, "pitch": 68, "duration": 4, "velocity": 80}, {"time": 2532, "pitch": 69, "duration": 5, "velocity": 82}, {"time": 2538, "pitch": 68, "duration": 4, "velocity": 79}, {"time": 2544, "pitch": 66, "duration": 5, "velocity": 79}, {"time": 2550, "pitch": 64, "duration": 5, "velocity": 82}, {"time": 2556, "pitch": 64, "duration": 4, "velocity": 85}, {"time": 2562, "pitch": 71, "duration": 42, "velocity": 73}, {"time": 2610, "pitch": 64, "duration": 4, "velocity": 85}, {"time": 2616, "pitch": 64, "duration": 4, "velocity": 85}, {"time": 2622, "pitch": 66, "duration": 4, "velocity": 85}, {"time": 2628, "pitch": 68, "duration": 11, "velocity": 86}, {"time": 2640, "pitch": 68, "duration": 4, "velocity": 89}, {"time": 2646, "pitch": 71, "duration": 5, "velocity": 88}, {"time": 2652, "pitch": 73, "duration": 8, "velocity": 88}, {"time": 2661, "pitch": 75, "duration": 2, "velocity": 85}, {"time": 2664, "pitch": 73, "duration": 4, "velocity": 91}, {"time": 2670, "pitch": 71, "duration": 5, "velocity": 88}, {"time": 2676, "pitch": 68, "duration": 9, "velocity": 86}, {"time": 2706, "pitch": 64, "duration": 4, "velocity": 81}, {"time": 2712, "pitch": 64, "duration": 4, "velocity": 83}, {"time": 2718, "pitch": 66, "duration": 5, "velocity": 80}, {"time": 2724, "pitch": 68, "duration": 11, "velocity": 84}, {"time": 2736, "pitch": 66, "duration": 6, "velocity": 85}, {"time": 2742, "pitch": 64, "duration": 5, "velocity": 84}, {"time": 2748, "pitch": 68, "duration": 7, "velocity": 82}, {"time": 2754, "pitch": 71, "duration": 4, "velocity": 84}, {"time": 2760, "pitch": 71, "duration": 5, "velocity": 85}, {"time": 2766, "pitch": 73, "duration": 5, "velocity": 90}, {"time": 2772, "pitch": 66, "duration": 12, "velocity": 80}, {"time": 2802, "pitch": 68, "duration": 4, "velocity": 88}, {"time": 2808, "pitch": 68, "duration": 5, "velocity": 85}, {"time": 2814, "pitch": 70, "duration": 5, "velocity": 85}, {"time": 2820, "pitch": 72, "duration": 10, "velocity": 84}, {"time": 2832, "pitch": 72, "duration": 5, "velocity": 88}, {"time": 2838, "pitch": 68, "duration": 5, "velocity": 85}, {"time": 2844, "pitch": 75, "duration": 6, "velocity": 87}, {"time": 2850, "pitch": 73, "duration": 5, "velocity": 90}, {"time": 2856, "pitch": 75, "duration": 6, "velocity": 89}, {"time": 2862, "pitch": 76, "duration": 6, "velocity": 85}, {"time": 2868, "pitch": 75, "duration": 6, "velocity": 86}, {"time": 2874, "pitch": 73, "duration": 8, "velocity": 88}, {"time": 2898, "pitch": 73, "duration": 5, "velocity": 90}, {"time": 2904, "pitch": 73, "duration": 4, "velocity": 88}, {"time": 2910, "pitch": 71, "duration": 5, "velocity": 80}, {"time": 2916, "pitch": 71, "duration": 9, "velocity": 84}, {"time": 2925, "pitch": 68, "duration": 2, "velocity": 84}, {"time": 2928, "pitch": 66, "duration": 5, "velocity": 78}, {"time": 2934, "pitch": 64, "duration": 4, "velocity": 83}, {"time": 2940, "pitch": 66, "duration": 5, "velocity": 84}, {"time": 2946, "pitch": 68, "duration": 5, "velocity": 82}, {"time": 2952, "pitch": 66, "duration": 5, "velocity": 79}, {"time": 2958, "pitch": 64, "duration": 5, "velocity": 84}, {"time": 2964, "pitch": 66, "duration": 4, "velocity": 76}, {"time": 2970, "pitch": 68, "duration": 4, "velocity": 80}, {"time": 2976, "pitch": 66, "duration": 5, "velocity": 79}, {"time": 2982, "pitch": 64, "duration": 5, "velocity": 81}, {"time": 2994, "pitch": 64, "duration": 4, "velocity": 85}, {"time": 3000, "pitch": 64, "duration": 4, "velocity": 85}, {"time": 3006, "pitch": 66, "duration": 4, "velocity": 85}, {"time": 3012, "pitch": 68, "duration": 11, "velocity": 86}, {"time": 3024, "pitch": 68, "duration": 4, "velocity": 89}, {"time": 3030, "pitch": 71, "duration": 5, "velocity": 88}, {"time": 3036, "pitch": 73, "duration": 8, "velocity": 88}, {"time": 3045, "pitch": 75, "duration": 2, "velocity": 85}, {"time": 3048, "pitch": 73, "duration": 4, "velocity": 91}, {"time": 3054, "pitch": 71, "duration": 5, "velocity": 88}, {"time": 3060, "pitch": 68, "duration": 9, "velocity": 86}, {"time": 3090, "pitch": 64, "duration": 4, "velocity": 81}, {"time": 3096, "pitch": 64, "duration": 4, "velocity": 83}, {"time": 3102, "pitch": 66, "duration": 5, "velocity": 80}, {"time": 3108, "pitch": 68, "duration": 11, "velocity": 84}, {"time": 3120, "pitch": 66, "duration": 6, "velocity": 85}, {"time": 3126, "pitch": 64, "duration": 5, "velocity": 84}, {"time": 3132, "pitch": 68, "duration": 7, "velocity": 82}, {"time": 3138, "pitch": 71, "duration": 4, "velocity": 84}, {"time": 3144, "pitch": 71, "duration": 5, "velocity": 85}, {"time": 3150, "pitch": 73, "duration": 5, "velocity": 90}, {"time": 3156, "pitch": 66, "duration": 12, "velocity": 80}, {"time": 3186, "pitch": 68, "duration": 4, "velocity": 88}, {"time": 3192, "pitch": 68, "duration": 5, "velocity": 85}, {"time": 3198, "pitch": 70, "duration": 5, "velocity": 85}, {"time": 3204, "pitch": 72, "duration": 10, "velocity": 84}, {"time": 3216, "pitch": 72, "duration": 5, "velocity": 88}, {"time": 3222, "pitch": 68, "duration": 5, "velocity": 85}, {"time": 3228, "pitch": 75, "duration": 6, "velocity": 87}, {"time": 3234, "pitch": 73, "duration": 5, "velocity": 90}, {"time": 3240, "pitch": 75, "duration": 6, "velocity": 89}, {"time": 3246, "pitch": 76, "duration": 6, "velocity": 85}, {"time": 3252, "pitch": 75, "duration": 6, "velocity": 86}, {"time": 3258, "pitch": 73, "duration": 8, "velocity": 88}, {"time": 3282, "pitch": 73, "duration": 5, "velocity": 90}, {"time": 3288, "pitch": 73, "duration": 4, "velocity": 88}, {"time": 3294, "pitch": 71, "duration": 5, "velocity": 80}, {"time": 3300, "pitch": 71, "duration": 9, "velocity": 84}, {"time": 3309, "pitch": 68, "duration": 2, "velocity": 84}, {"time": 3312, "pitch": 66, "duration": 5, "velocity": 78}, {"time": 3318, "pitch": 64, "duration": 4, "velocity": 83}, {"time": 3324, "pitch": 66, "duration": 5, "velocity": 84}, {"time": 3330, "pitch": 68, "duration": 5, "velocity": 82}, {"time": 3336, "pitch": 66, "duration": 5, "velocity": 79}, {"time": 3342, "pitch": 64, "duration": 12, "velocity": 84}, {"time": 3354, "pitch": 68, "duration": 4, "velocity": 80}, {"time": 3360, "pitch": 66, "duration": 5, "velocity": 79}, {"time": 3366, "pitch": 64, "duration": 5, "velocity": 81}, {"time": 3378, "pitch": 65, "duration": 4, "velocity": 85}, {"time": 3384, "pitch": 65, "duration": 4, "velocity": 85}, {"time": 3390, "pitch": 67, "duration": 4, "velocity": 85}, {"time": 3396, "pitch": 69, "duration": 11, "velocity": 86}, {"time": 3408, "pitch": 69, "duration": 4, "velocity": 89}, {"time": 3414, "pitch": 72, "duration": 5, "velocity": 88}, {"time": 3420, "pitch": 74, "duration": 8, "velocity": 88}, {"time": 3429, "pitch": 76, "duration": 2, "velocity": 85}, {"time": 3432, "pitch": 74, "duration": 4, "velocity": 91}, {"time": 3438, "pitch": 72, "duration": 5, "velocity": 88}, {"time": 3444, "pitch": 69, "duration": 9, "velocity": 86}, {"time": 3474, "pitch": 65, "duration": 4, "velocity": 81}, {"time": 3480, "pitch": 65, "duration": 4, "velocity": 83}, {"time": 3486, "pitch": 67, "duration": 5, "velocity": 80}, {"time": 3492, "pitch": 69, "duration": 11, "velocity": 84}, {"time": 3504, "pitch": 67, "duration": 6, "velocity": 85}, {"time": 3510, "pitch": 65, "duration": 5, "velocity": 84}, {"time": 3516, "pitch": 69, "duration": 7, "velocity": 82}, {"time": 3522, "pitch": 72, "duration": 4, "velocity": 84}, {"time": 3528, "pitch": 72, "duration": 5, "velocity": 85}, {"time": 3534, "pitch": 74, "duration": 5, "velocity": 90}, {"time": 3540, "pitch": 67, "duration": 12, "velocity": 80}, {"time": 3570, "pitch": 69, "duration": 4, "velocity": 88}, {"time": 3576, "pitch": 69, "duration": 5, "velocity": 85}, {"time": 3582, "pitch": 71, "duration": 5, "velocity": 85}, {"time": 3588, "pitch": 73, "duration": 10, "velocity": 84}, {"time": 3600, "pitch": 73, "duration": 5, "velocity": 88}, {"time": 3606, "pitch": 69, "duration": 5, "velocity": 85}, {"time": 3612, "pitch": 76, "duration": 6, "velocity": 87}, {"time": 3618, "pitch": 74, "duration": 5, "velocity": 90}, {"time": 3624, "pitch": 76, "duration": 6, "velocity": 89}, {"time": 3630, "pitch": 77, "duration": 6, "velocity": 85}, {"time": 3636, "pitch": 76, "duration": 6, "velocity": 86}, {"time": 3642, "pitch": 74, "duration": 8, "velocity": 88}, {"time": 3666, "pitch": 74, "duration": 5, "velocity": 90}, {"time": 3672, "pitch": 74, "duration": 4, "velocity": 88}, {"time": 3678, "pitch": 72, "duration": 5, "velocity": 80}, {"time": 3684, "pitch": 72, "duration": 9, "velocity": 84}, {"time": 3693, "pitch": 69, "duration": 2, "velocity": 84}, {"time": 3696, "pitch": 67, "duration": 5, "velocity": 78}, {"time": 3702, "pitch": 65, "duration": 4, "velocity": 83}, {"time": 3708, "pitch": 67, "duration": 5, "velocity": 84}, {"time": 3714, "pitch": 69, "duration": 5, "velocity": 82}, {"time": 3720, "pitch": 67, "duration": 5, "velocity": 79}, {"time": 3726, "pitch": 65, "duration": 5, "velocity": 84}, {"time": 3732, "pitch": 67, "duration": 4, "velocity": 76}, {"time": 3738, "pitch": 69, "duration": 4, "velocity": 80}, {"time": 3744, "pitch": 67, "duration": 5, "velocity": 79}, {"time": 3750, "pitch": 65, "duration": 5, "velocity": 81}, {"time": 3762, "pitch": 65, "duration": 4, "velocity": 85}, {"time": 3768, "pitch": 65, "duration": 4, "velocity": 85}, {"time": 3774, "pitch": 67, "duration": 4, "velocity": 85}, {"time": 3780, "pitch": 69, "duration": 11, "velocity": 86}, {"time": 3792, "pitch": 69, "duration": 4, "velocity": 89}, {"time": 3798, "pitch": 72, "duration": 5, "velocity": 88}, {"time": 3804, "pitch": 74, "duration": 8, "velocity": 88}, {"time": 3813, "pitch": 76, "duration": 2, "velocity": 85}, {"time": 3816, "pitch": 74, "duration": 4, "velocity": 91}, {"time": 3822, "pitch": 72, "duration": 5, "velocity": 88}, {"time": 3828, "pitch": 69, "duration": 9, "velocity": 86}, {"time": 3858, "pitch": 65, "duration": 4, "velocity": 81}, {"time": 3864, "pitch": 65, "duration": 4, "velocity": 83}, {"time": 3870, "pitch": 67, "duration": 5, "velocity": 80}, {"time": 3876, "pitch": 69, "duration": 11, "velocity": 84}, {"time": 3888, "pitch": 67, "duration": 6, "velocity": 85}, {"time": 3894, "pitch": 65, "duration": 5, "velocity": 84}, {"time": 3900, "pitch": 69, "duration": 7, "velocity": 82}, {"time": 3906, "pitch": 72, "duration": 4, "velocity": 84}, {"time": 3912, "pitch": 72, "duration": 5, "velocity": 85}, {"time": 3918, "pitch": 74, "duration": 5, "velocity": 90}, {"time": 3924, "pitch": 67, "duration": 12, "velocity": 80}, {"time": 3954, "pitch": 69, "duration": 4, "velocity": 88}, {"time": 3960, "pitch": 69, "duration": 5, "velocity": 85}, {"time": 3966, "pitch": 71, "duration": 5, "velocity": 85}, {"time": 3972, "pitch": 73, "duration": 10, "velocity": 84}, {"time": 3984, "pitch": 73, "duration": 5, "velocity": 88}, {"time": 3990, "pitch": 69, "duration": 5, "velocity": 85}, {"time": 3996, "pitch": 76, "duration": 6, "velocity": 87}, {"time": 4002, "pitch": 74, "duration": 5, "velocity": 90}, {"time": 4008, "pitch": 76, "duration": 6, "velocity": 89}, {"time": 4014, "pitch": 77, "duration": 6, "velocity": 85}, {"time": 4020, "pitch": 76, "duration": 6, "velocity": 86}, {"time": 4026, "pitch": 74, "duration": 8, "velocity": 88}, {"time": 4050, "pitch": 74, "duration": 5, "velocity": 90}, {"time": 4056, "pitch": 74, "duration": 4, "velocity": 88}, {"time": 4062, "pitch": 72, "duration": 5, "velocity": 80}, {"time": 4068, "pitch": 72, "duration": 9, "velocity": 84}, {"time": 4077, "pitch": 69, "duration": 2, "velocity": 84}, {"time": 4080, "pitch": 67, "duration": 5, "velocity": 78}, {"time": 4086, "pitch": 65, "duration": 4, "velocity": 83}, {"time": 4092, "pitch": 67, "duration": 5, "velocity": 84}, {"time": 4098, "pitch": 69, "duration": 5, "velocity": 82}, {"time": 4104, "pitch": 67, "duration": 5, "velocity": 79}, {"time": 4110, "pitch": 65, "duration": 12, "velocity": 84}, {"time": 4122, "pitch": 69, "duration": 4, "velocity": 80}, {"time": 4128, "pitch": 67, "duration": 5, "velocity": 79}, {"time": 4134, "pitch": 65, "duration": 5, "velocity": 81}]}, {"program": 0, "is_drum": false, "name": "PIANO", "notes": [{"time": 12, "pitch": 52, "duration": 24, "velocity": 79}, {"time": 12, "pitch": 59, "duration": 5, "velocity": 76}, {"time": 12, "pitch": 64, "duration": 8, "velocity": 75}, {"time": 24, "pitch": 64, "duration": 7, "velocity": 81}, {"time": 24, "pitch": 68, "duration": 11, "velocity": 78}, {"time": 30, "pitch": 59, "duration": 4, "velocity": 77}, {"time": 36, "pitch": 51, "duration": 14, "velocity": 79}, {"time": 36, "pitch": 59, "duration": 3, "velocity": 72}, {"time": 36, "pitch": 63, "duration": 7, "velocity": 79}, {"time": 42, "pitch": 59, "duration": 7, "velocity": 76}, {"time": 48, "pitch": 63, "duration": 4, "velocity": 80}, {"time": 48, "pitch": 66, "duration": 5, "velocity": 73}, {"time": 60, "pitch": 49, "duration": 13, "velocity": 80}, {"time": 60, "pitch": 61, "duration": 3, "velocity": 73}, {"time": 60, "pitch": 64, "duration": 8, "velocity": 78}, {"time": 66, "pitch": 61, "duration": 7, "velocity": 73}, {"time": 72, "pitch": 64, "duration": 4, "velocity": 78}, {"time": 72, "pitch": 68, "duration": 4, "velocity": 78}, {"time": 84, "pitch": 47, "duration": 13, "velocity": 85}, {"time": 84, "pitch": 59, "duration": 12, "velocity": 73}, {"time": 84, "pitch": 63, "duration": 12, "velocity": 79}, {"time": 90, "pitch": 54, "duration": 7, "velocity": 74}, {"time": 96, "pitch": 66, "duration": 6, "velocity": 84}, {"time": 102, "pitch": 59, "duration": 5, "velocity": 80}, {"time": 108, "pitch": 45, "duration": 19, "velocity": 78}, {"time": 108, "pitch": 64, "duration": 12, "velocity": 64}, {"time": 114, "pitch": 52, "duration": 14, "velocity": 72}, {"time": 120, "pitch": 57, "duration": 8, "velocity": 75}, {"time": 126, "pitch": 64, "duration": 6, "velocity": 84}, {"time": 132, "pitch": 47, "duration": 14, "velocity": 79}, {"time": 132, "pitch": 54, "duration": 3, "velocity": 77}, {"time": 132, "pitch": 63, "duration": 10, "velocity": 84}, {"time": 138, "pitch": 54, "duration": 4, "velocity": 76}, {"time": 144, "pitch": 54, "duration": 2, "velocity": 79}, {"time": 144, "pitch": 59, "duration": 6, "velocity": 81}, {"time": 150, "pitch": 54, "duration": 2, "velocity": 85}, {"time": 156, "pitch": 40, "duration": 20, "velocity": 82}, {"time": 156, "pitch": 56, "duration": 12, "velocity": 76}, {"time": 156, "pitch": 59, "duration": 7, "velocity": 77}, {"time": 162, "pitch": 47, "duration": 12, "velocity": 71}, {"time": 168, "pitch": 59, "duration": 2, "velocity": 82}, {"time": 168, "pitch": 64, "duration": 4, "velocity": 78}, {"time": 174, "pitch": 56, "duration": 7, "velocity": 72}, {"time": 180, "pitch": 59, "duration": 8, "velocity": 79}, {"time": 186, "pitch": 56, "duration": 6, "velocity": 73}, {"time": 192, "pitch": 59, "duration": 8, "velocity": 80}, {"time": 192, "pitch": 64, "duration": 8, "velocity": 80}, {"time": 198, "pitch": 56, "duration": 3, "velocity": 67}, {"time": 204, "pitch": 45, "duration": 15, "velocity": 77}, {"time": 204, "pitch": 64, "duration": 6, "velocity": 79}, {"time": 210, "pitch": 52, "duration": 7, "velocity": 85}, {"time": 216, "pitch": 57, "duration": 6, "velocity": 78}, {"time": 216, "pitch": 61, "duration": 8, "velocity": 83}, {"time": 222, "pitch": 52, "duration": 2, "velocity": 74}, {"time": 228, "pitch": 47, "duration": 16, "velocity": 84}, {"time": 228, "pitch": 59, "duration": 6, "velocity": 78}, {"time": 234, "pitch": 54, "duration": 6, "velocity": 83}, {"time": 240, "pitch": 59, "duration": 7, "velocity": 83}, {"time": 240, "pitch": 63, "duration": 6, "velocity": 85}, {"time": 246, "pitch": 54, "duration": 2, "velocity": 84}, {"time": 252, "pitch": 44, "duration": 15, "velocity": 84}, {"time": 252, "pitch": 59, "duration": 9, "velocity": 82}, {"time": 258, "pitch": 51, "duration": 8, "velocity": 76}, {"time": 264, "pitch": 54, "duration": 3, "velocity": 82}, {"time": 264, "pitch": 59, "duration": 12, "velocity": 81}, {"time": 270, "pitch": 54, "duration": 4, "velocity": 84}, {"time": 276, "pitch": 37, "duration": 14, "velocity": 85}, {"time": 276, "pitch": 61, "duration": 8, "velocity": 79}, {"time": 282, "pitch": 44, "duration": 7, "velocity": 67}, {"time": 288, "pitch": 56, "duration": 2, "velocity": 77}, {"time": 288, "pitch": 61, "duration": 3, "velocity": 76}, {"time": 288, "pitch": 64, "duration": 3, "velocity": 79}, {"time": 300, "pitch": 40, "duration": 22, "velocity": 84}, {"time": 300, "pitch": 52, "duration": 13, "velocity": 75}, {"time": 300, "pitch": 56, "duration": 7, "velocity": 73}, {"time": 306, "pitch": 47, "duration": 16, "velocity": 70}, {"time": 312, "pitch": 56, "duration": 1, "velocity": 74}, {"time": 312, "pitch": 59, "duration": 7, "velocity": 83}, {"time": 318, "pitch": 52, "duration": 12, "velocity": 80}, {"time": 324, "pitch": 40, "duration": 15, "velocity": 79}, {"time": 324, "pitch": 56, "duration": 6, "velocity": 75}, {"time": 330, "pitch": 47, "duration": 8, "velocity": 71}, {"time": 336, "pitch": 52, "duration": 2, "velocity": 79}, {"time": 336, "pitch": 56, "duration": 3, "velocity": 79}, {"time": 336, "pitch": 59, "duration": 7, "velocity": 80}, {"time": 342, "pitch": 52, "duration": 2, "velocity": 86}, {"time": 348, "pitch": 42, "duration": 34, "velocity": 85}, {"time": 348, "pitch": 54, "duration": 13, "velocity": 74}, {"time": 348, "pitch": 58, "duration": 9, "velocity": 77}, {"time": 354, "pitch": 49, "duration": 28, "velocity": 71}, {"time": 360, "pitch": 61, "duration": 13, "velocity": 84}, {"time": 366, "pitch": 54, "duration": 7, "velocity": 83}, {"time": 372, "pitch": 66, "duration": 4, "velocity": 84}, {"time": 378, "pitch": 54, "duration": 3, "velocity": 85}, {"time": 384, "pitch": 42, "duration": 4, "velocity": 83}, {"time": 384, "pitch": 54, "duration": 2, "velocity": 80}, {"time": 384, "pitch": 58, "duration": 6, "velocity": 76}, {"time": 384, "pitch": 61, "duration": 7, "velocity": 76}, {"time": 390, "pitch": 54, "duration": 2, "velocity": 84}, {"time": 396, "pitch": 45, "duration": 14, "velocity": 84}, {"time": 396, "pitch": 52, "duration": 3, "velocity": 79}, {"time": 396, "pitch": 57, "duration": 7, "velocity": 75}, {"time": 402, "pitch": 52, "duration": 4, "velocity": 76}, {"time": 408, "pitch": 57, "duration": 7, "velocity": 87}, {"time": 408, "pitch": 61, "duration": 8, "velocity": 85}, {"time": 414, "pitch": 52, "duration": 2, "velocity": 84}, {"time": 420, "pitch": 47, "duration": 14, "velocity": 81}, {"time": 420, "pitch": 54, "duration": 3, "velocity": 77}, {"time": 420, "pitch": 59, "duration": 8, "velocity": 78}, {"time": 426, "pitch": 54, "duration": 3, "velocity": 76}, {"time": 432, "pitch": 54, "duration": 2, "velocity": 84}, {"time": 432, "pitch": 59, "duration": 7, "velocity": 86}, {"time": 432, "pitch": 63, "duration": 6, "velocity": 84}, {"time": 438, "pitch": 54, "duration": 2, "velocity": 74}, {"time": 444, "pitch": 40, "duration": 19, "velocity": 84}, {"time": 444, "pitch": 56, "duration": 10, "velocity": 76}, {"time": 444, "pitch": 59, "duration": 8, "velocity": 80}, {"time": 450, "pitch": 47, "duration": 13, "velocity": 73}, {"time": 456, "pitch": 59, "duration": 3, "velocity": 81}, {"time": 456, "pitch": 64, "duration": 4, "velocity": 80}, {"time": 462, "pitch": 56, "duration": 7, "velocity": 77}, {"time": 468, "pitch": 64, "duration": 7, "velocity": 85}, {"time": 474, "pitch": 56, "duration": 4, "velocity": 84}, {"time": 480, "pitch": 56, "duration": 2, "velocity": 82}, {"time": 480, "pitch": 59, "duration": 6, "velocity": 84}, {"time": 480, "pitch": 64, "duration": 7, "velocity": 85}, {"time": 486, "pitch": 56, "duration": 2, "velocity": 85}, {"time": 492, "pitch": 45, "duration": 15, "velocity": 95}, {"time": 492, "pitch": 57, "duration": 7, "velocity": 86}, {"time": 498, "pitch": 52, "duration": 6, "velocity": 85}, {"time": 504, "pitch": 61, "duration": 6, "velocity": 86}, {"time": 510, "pitch": 52, "duration": 7, "velocity": 87}, {"time": 516, "pitch": 45, "duration": 8, "velocity": 74}, {"time": 516, "pitch": 57, "duration": 7, "velocity": 84}, {"time": 522, "pitch": 52, "duration": 3, "velocity": 84}, {"time": 528, "pitch": 52, "duration": 2, "velocity": 83}, {"time": 528, "pitch": 57, "duration": 7, "velocity": 84}, {"time": 528, "pitch": 61, "duration": 10, "velocity": 83}, {"time": 534, "pitch": 52, "duration": 2, "velocity": 79}, {"time": 540, "pitch": 44, "duration": 21, "velocity": 85}, {"time": 540, "pitch": 59, "duration": 6, "velocity": 85}, {"time": 546, "pitch": 51, "duration": 14, "velocity": 83}, {"time": 552, "pitch": 56, "duration": 2, "velocity": 73}, {"time": 552, "pitch": 63, "duration": 9, "velocity": 85}, {"time": 558, "pitch": 56, "duration": 4, "velocity": 85}, {"time": 564, "pitch": 44, "duration": 15, "velocity": 85}, {"time": 564, "pitch": 56, "duration": 9, "velocity": 77}, {"time": 564, "pitch": 63, "duration": 8, "velocity": 84}, {"time": 570, "pitch": 51, "duration": 9, "velocity": 77}, {"time": 576, "pitch": 56, "duration": 2, "velocity": 85}, {"time": 576, "pitch": 59, "duration": 5, "velocity": 88}, {"time": 582, "pitch": 56, "duration": 2, "velocity": 79}, {"time": 588, "pitch": 42, "duration": 20, "velocity": 84}, {"time": 588, "pitch": 54, "duration": 10, "velocity": 79}, {"time": 588, "pitch": 61, "duration": 8, "velocity": 80}, {"time": 594, "pitch": 49, "duration": 14, "velocity": 73}, {"time": 600, "pitch": 57, "duration": 6, "velocity": 89}, {"time": 606, "pitch": 54, "duration": 10, "velocity": 86}, {"time": 612, "pitch": 42, "duration": 20, "velocity": 85}, {"time": 612, "pitch": 57, "duration": 6, "velocity": 72}, {"time": 612, "pitch": 61, "duration": 7, "velocity": 80}, {"time": 618, "pitch": 49, "duration": 9, "velocity": 70}, {"time": 624, "pitch": 57, "duration": 7, "velocity": 86}, {"time": 624, "pitch": 61, "duration": 7, "velocity": 85}, {"time": 630, "pitch": 49, "duration": 4, "velocity": 84}, {"time": 636, "pitch": 47, "duration": 18, "velocity": 85}, {"time": 636, "pitch": 54, "duration": 3, "velocity": 79}, {"time": 636, "pitch": 59, "duration": 7, "velocity": 83}, {"time": 642, "pitch": 54, "duration": 7, "velocity": 85}, {"time": 648, "pitch": 61, "duration": 6, "velocity": 86}, {"time": 654, "pitch": 54, "duration": 4, "velocity": 91}, {"time": 660, "pitch": 47, "duration": 22, "velocity": 89}, {"time": 660, "pitch": 54, "duration": 2, "velocity": 82}, {"time": 660, "pitch": 59, "duration": 7, "velocity": 84}, {"time": 660, "pitch": 63, "duration": 7, "velocity": 85}, {"time": 666, "pitch": 54, "duration": 4, "velocity": 84}, {"time": 672, "pitch": 59, "duration": 6, "velocity": 91}, {"time": 678, "pitch": 54, "duration": 3, "velocity": 87}, {"time": 681, "pitch": 56, "duration": 3, "velocity": 83}, {"time": 684, "pitch": 40, "duration": 22, "velocity": 84}, {"time": 684, "pitch": 52, "duration": 13, "velocity": 75}, {"time": 684, "pitch": 56, "duration": 7, "velocity": 73}, {"time": 690, "pitch": 47, "duration": 16, "velocity": 70}, {"time": 696, "pitch": 56, "duration": 1, "velocity": 74}, {"time": 696, "pitch": 59, "duration": 7, "velocity": 83}, {"time": 702, "pitch": 52, "duration": 12, "velocity": 80}, {"time": 708, "pitch": 40, "duration": 15, "velocity": 79}, {"time": 708, "pitch": 56, "duration": 6, "velocity": 75}, {"time": 714, "pitch": 47, "duration": 8, "velocity": 71}, {"time": 720, "pitch": 52, "duration": 2, "velocity": 79}, {"time": 720, "pitch": 56, "duration": 3, "velocity": 79}, {"time": 720, "pitch": 59, "duration": 7, "velocity": 80}, {"time": 726, "pitch": 52, "duration": 2, "velocity": 86}, {"time": 732, "pitch": 42, "duration": 34, "velocity": 85}, {"time": 732, "pitch": 54, "duration": 13, "velocity": 74}, {"time": 732, "pitch": 58, "duration": 9, "velocity": 77}, {"time": 738, "pitch": 49, "duration": 28, "velocity": 71}, {"time": 744, "pitch": 61, "duration": 13, "velocity": 84}, {"time": 750, "pitch": 54, "duration": 7, "velocity": 83}, {"time": 756, "pitch": 66, "duration": 4, "velocity": 84}, {"time": 762, "pitch": 54, "duration": 3, "velocity": 85}, {"time": 768, "pitch": 42, "duration": 4, "velocity": 83}, {"time": 768, "pitch": 54, "duration": 2, "velocity": 80}, {"time": 768, "pitch": 58, "duration": 6, "velocity": 76}, {"time": 768, "pitch": 61, "duration": 7, "velocity": 76}, {"time": 774, "pitch": 54, "duration": 2, "velocity": 84}, {"time": 780, "pitch": 45, "duration": 14, "velocity": 84}, {"time": 780, "pitch": 52, "duration": 3, "velocity": 79}, {"time": 780, "pitch": 57, "duration": 7, "velocity": 75}, {"time": 786, "pitch": 52, "duration": 4, "velocity": 76}, {"time": 792, "pitch": 57, "duration": 7, "velocity": 87}, {"time": 792, "pitch": 61, "duration": 8, "velocity": 85}, {"time": 798, "pitch": 52, "duration": 2, "velocity": 84}, {"time": 804, "pitch": 47, "duration": 14, "velocity": 81}, {"time": 804, "pitch": 54, "duration": 3, "velocity": 77}, {"time": 804, "pitch": 59, "duration": 8, "velocity": 78}, {"time": 810, "pitch": 54, "duration": 3, "velocity": 76}, {"time": 816, "pitch": 54, "duration": 2, "velocity": 84}, {"time": 816, "pitch": 59, "duration": 7, "velocity": 86}, {"time": 816, "pitch": 63, "duration": 6, "velocity": 84}, {"time": 822, "pitch": 54, "duration": 2, "velocity": 74}, {"time": 828, "pitch": 40, "duration": 19, "velocity": 84}, {"time": 828, "pitch": 56, "duration": 10, "velocity": 76}, {"time": 828, "pitch": 59, "duration": 8, "velocity": 80}, {"time": 834, "pitch": 47, "duration": 13, "velocity": 73}, {"time": 840, "pitch": 59, "duration": 3, "velocity": 81}, {"time": 840, "pitch": 64, "duration": 4, "velocity": 80}, {"time": 846, "pitch": 56, "duration": 7, "velocity": 77}, {"time": 852, "pitch": 64, "duration": 7, "velocity": 85}, {"time": 858, "pitch": 56, "duration": 4, "velocity": 84}, {"time": 864, "pitch": 56, "duration": 2, "velocity": 82}, {"time": 864, "pitch": 59, "duration": 6, "velocity": 84}, {"time": 864, "pitch": 64, "duration": 7, "velocity": 85}, {"time": 870, "pitch": 56, "duration": 2, "velocity": 85}, {"time": 876, "pitch": 45, "duration": 15, "velocity": 95}, {"time": 876, "pitch": 57, "duration": 7, "velocity": 86}, {"time": 882, "pitch": 52, "duration": 6, "velocity": 85}, {"time": 888, "pitch": 61, "duration": 6, "velocity": 86}, {"time": 894, "pitch": 52, "duration": 7, "velocity": 87}, {"time": 900, "pitch": 45, "duration": 8, "velocity": 74}, {"time": 900, "pitch": 57, "duration": 7, "velocity": 84}, {"time": 906, "pitch": 52, "duration": 3, "velocity": 84}, {"time": 912, "pitch": 52, "duration": 2, "velocity": 83}, {"time": 912, "pitch": 57, "duration": 7, "velocity": 84}, {"time": 912, "pitch": 61, "duration": 10, "velocity": 83}, {"time": 918, "pitch": 52, "duration": 2, "velocity": 79}, {"time": 924, "pitch": 44, "duration": 21, "velocity": 85}, {"time": 924, "pitch": 59, "duration": 6, "velocity": 85}, {"time": 930, "pitch": 51, "duration": 14, "velocity": 83}, {"time": 936, "pitch": 56, "duration": 2, "velocity": 73}, {"time": 936, "pitch": 63, "duration": 9, "velocity": 85}, {"time": 942, "pitch": 56, "duration": 4, "velocity": 85}, {"time": 948, "pitch": 44, "duration": 15, "velocity": 85}, {"time": 948, "pitch": 56, "duration": 9, "velocity": 77}, {"time": 948, "pitch": 63, "duration": 8, "velocity": 84}, {"time": 954, "pitch": 51, "duration": 9, "velocity": 77}, {"time": 960, "pitch": 56, "duration": 2, "velocity": 85}, {"time": 960, "pitch": 59, "duration": 5, "velocity": 88}, {"time": 966, "pitch": 56, "duration": 2, "velocity": 79}, {"time": 972, "pitch": 42, "duration": 20, "velocity": 84}, {"time": 972, "pitch": 54, "duration": 10, "velocity": 79}, {"time": 972, "pitch": 61, "duration": 8, "velocity": 80}, {"time": 978, "pitch": 49, "duration": 14, "velocity": 73}, {"time": 984, "pitch": 57, "duration": 6, "velocity": 89}, {"time": 990, "pitch": 54, "duration": 10, "velocity": 86}, {"time": 996, "pitch": 42, "duration": 20, "velocity": 85}, {"time": 996, "pitch": 57, "duration": 6, "velocity": 72}, {"time": 996, "pitch": 61, "duration": 7, "velocity": 80}, {"time": 1002, "pitch": 49, "duration": 9, "velocity": 70}, {"time": 1008, "pitch": 57, "duration": 7, "velocity": 86}, {"time": 1008, "pitch": 61, "duration": 7, "velocity": 85}, {"time": 1014, "pitch": 49, "duration": 4, "velocity": 84}, {"time": 1020, "pitch": 47, "duration": 18, "velocity": 85}, {"time": 1020, "pitch": 54, "duration": 3, "velocity": 79}, {"time": 1020, "pitch": 59, "duration": 7, "velocity": 83}, {"time": 1026, "pitch": 54, "duration": 7, "velocity": 85}, {"time": 1032, "pitch": 61, "duration": 6, "velocity": 86}, {"time": 1038, "pitch": 54, "duration": 4, "velocity": 91}, {"time": 1044, "pitch": 47, "duration": 22, "velocity": 89}, {"time": 1044, "pitch": 54, "duration": 2, "velocity": 82}, {"time": 1044, "pitch": 59, "duration": 7, "velocity": 84}, {"time": 1044, "pitch": 63, "duration": 7, "velocity": 85}, {"time": 1050, "pitch": 54, "duration": 4, "velocity": 84}, {"time": 1056, "pitch": 59, "duration": 6, "velocity": 91}, {"time": 1062, "pitch": 54, "duration": 3, "velocity": 87}, {"time": 1065, "pitch": 56, "duration": 3, "velocity": 83}, {"time": 1068, "pitch": 40, "duration": 16, "velocity": 88}, {"time": 1074, "pitch": 47, "duration": 8, "velocity": 84}, {"time": 1080, "pitch": 52, "duration": 4, "velocity": 82}, {"time": 1080, "pitch": 56, "duration": 6, "velocity": 86}, {"time": 1080, "pitch": 59, "duration": 9, "velocity": 85}, {"time": 1086, "pitch": 47, "duration": 2, "velocity": 87}, {"time": 1089, "pitch": 52, "duration": 2, "velocity": 85}, {"time": 1092, "pitch": 44, "duration": 15, "velocity": 86}, {"time": 1098, "pitch": 51, "duration": 9, "velocity": 84}, {"time": 1104, "pitch": 56, "duration": 3, "velocity": 84}, {"time": 1104, "pitch": 59, "duration": 6, "velocity": 88}, {"time": 1110, "pitch": 44, "duration": 5, "velocity": 84}, {"time": 1110, "pitch": 56, "duration": 7, "velocity": 85}, {"time": 1116, "pitch": 49, "duration": 14, "velocity": 78}, {"time": 1116, "pitch": 64, "duration": 7, "velocity": 85}, {"time": 1122, "pitch": 56, "duration": 3, "velocity": 82}, {"time": 1128, "pitch": 56, "duration": 7, "velocity": 85}, {"time": 1128, "pitch": 61, "duration": 7, "velocity": 84}, {"time": 1134, "pitch": 49, "duration": 3, "velocity": 81}, {"time": 1134, "pitch": 59, "duration": 4, "velocity": 87}, {"time": 1137, "pitch": 61, "duration": 2, "velocity": 84}, {"time": 1140, "pitch": 44, "duration": 15, "velocity": 80}, {"time": 1140, "pitch": 56, "duration": 7, "velocity": 78}, {"time": 1140, "pitch": 59, "duration": 7, "velocity": 85}, {"time": 1146, "pitch": 51, "duration": 8, "velocity": 84}, {"time": 1152, "pitch": 56, "duration": 2, "velocity": 84}, {"time": 1152, "pitch": 59, "duration": 4, "velocity": 89}, {"time": 1152, "pitch": 63, "duration": 7, "velocity": 87}, {"time": 1158, "pitch": 56, "duration": 2, "velocity": 75}, {"time": 1164, "pitch": 45, "duration": 14, "velocity": 89}, {"time": 1164, "pitch": 57, "duration": 7, "velocity": 84}, {"time": 1164, "pitch": 61, "duration": 6, "velocity": 83}, {"time": 1170, "pitch": 52, "duration": 3, "velocity": 84}, {"time": 1176, "pitch": 52, "duration": 4, "velocity": 87}, {"time": 1176, "pitch": 57, "duration": 4, "velocity": 89}, {"time": 1179, "pitch": 45, "duration": 1, "velocity": 81}, {"time": 1182, "pitch": 56, "duration": 3, "velocity": 90}, {"time": 1185, "pitch": 57, "duration": 2, "velocity": 88}, {"time": 1188, "pitch": 40, "duration": 15, "velocity": 85}, {"time": 1188, "pitch": 52, "duration": 7, "velocity": 78}, {"time": 1188, "pitch": 56, "duration": 6, "velocity": 83}, {"time": 1194, "pitch": 47, "duration": 8, "velocity": 79}, {"time": 1200, "pitch": 52, "duration": 4, "velocity": 86}, {"time": 1200, "pitch": 59, "duration": 6, "velocity": 86}, {"time": 1206, "pitch": 40, "duration": 4, "velocity": 86}, {"time": 1212, "pitch": 45, "duration": 13, "velocity": 89}, {"time": 1212, "pitch": 52, "duration": 3, "velocity": 80}, {"time": 1212, "pitch": 57, "duration": 7, "velocity": 84}, {"time": 1218, "pitch": 52, "duration": 3, "velocity": 84}, {"time": 1224, "pitch": 57, "duration": 6, "velocity": 85}, {"time": 1224, "pitch": 61, "duration": 8, "velocity": 84}, {"time": 1230, "pitch": 45, "duration": 2, "velocity": 100}, {"time": 1236, "pitch": 47, "duration": 19, "velocity": 91}, {"time": 1236, "pitch": 54, "duration": 3, "velocity": 84}, {"time": 1236, "pitch": 59, "duration": 7, "velocity": 84}, {"time": 1242, "pitch": 54, "duration": 4, "velocity": 80}, {"time": 1245, "pitch": 59, "duration": 2, "velocity": 85}, {"time": 1248, "pitch": 61, "duration": 3, "velocity": 82}, {"time": 1251, "pitch": 59, "duration": 4, "velocity": 98}, {"time": 1254, "pitch": 54, "duration": 4, "velocity": 91}, {"time": 1260, "pitch": 44, "duration": 16, "velocity": 84}, {"time": 1260, "pitch": 56, "duration": 9, "velocity": 80}, {"time": 1260, "pitch": 59, "duration": 8, "velocity": 84}, {"time": 1266, "pitch": 51, "duration": 7, "velocity": 85}, {"time": 1272, "pitch": 56, "duration": 3, "velocity": 84}, {"time": 1272, "pitch": 59, "duration": 4, "velocity": 91}, {"time": 1272, "pitch": 63, "duration": 5, "velocity": 90}, {"time": 1275, "pitch": 51, "duration": 3, "velocity": 84}, {"time": 1278, "pitch": 56, "duration": 3, "velocity": 87}, {"time": 1284, "pitch": 44, "duration": 14, "velocity": 87}, {"time": 1284, "pitch": 54, "duration": 9, "velocity": 80}, {"time": 1284, "pitch": 56, "duration": 1, "velocity": 78}, {"time": 1284, "pitch": 60, "duration": 10, "velocity": 84}, {"time": 1290, "pitch": 51, "duration": 7, "velocity": 86}, {"time": 1296, "pitch": 54, "duration": 6, "velocity": 95}, {"time": 1296, "pitch": 60, "duration": 6, "velocity": 90}, {"time": 1302, "pitch": 51, "duration": 4, "velocity": 88}, {"time": 1308, "pitch": 49, "duration": 14, "velocity": 85}, {"time": 1308, "pitch": 56, "duration": 3, "velocity": 84}, {"time": 1308, "pitch": 64, "duration": 8, "velocity": 84}, {"time": 1314, "pitch": 56, "duration": 3, "velocity": 81}, {"time": 1320, "pitch": 56, "duration": 4, "velocity": 87}, {"time": 1320, "pitch": 64, "duration": 5, "velocity": 85}, {"time": 1326, "pitch": 63, "duration": 3, "velocity": 91}, {"time": 1329, "pitch": 64, "duration": 3, "velocity": 88}, {"time": 1332, "pitch": 49, "duration": 15, "velocity": 85}, {"time": 1332, "pitch": 56, "duration": 4, "velocity": 75}, {"time": 1332, "pitch": 63, "duration": 11, "velocity": 93}, {"time": 1338, "pitch": 56, "duration": 3, "velocity": 72}, {"time": 1344, "pitch": 56, "duration": 5, "velocity": 85}, {"time": 1344, "pitch": 61, "duration": 5, "velocity": 85}, {"time": 1350, "pitch": 59, "duration": 1, "velocity": 85}, {"time": 1356, "pitch": 45, "duration": 15, "velocity": 90}, {"time": 1356, "pitch": 52, "duration": 3, "velocity": 80}, {"time": 1356, "pitch": 61, "duration": 7, "velocity": 82}, {"time": 1362, "pitch": 52, "duration": 3, "velocity": 86}, {"time": 1368, "pitch": 52, "duration": 2, "velocity": 86}, {"time": 1368, "pitch": 57, "duration": 6, "velocity": 89}, {"time": 1368, "pitch": 61, "duration": 7, "velocity": 85}, {"time": 1374, "pitch": 52, "duration": 4, "velocity": 91}, {"time": 1380, "pitch": 40, "duration": 16, "velocity": 86}, {"time": 1380, "pitch": 52, "duration": 11, "velocity": 84}, {"time": 1380, "pitch": 56, "duration": 6, "velocity": 80}, {"time": 1386, "pitch": 47, "duration": 8, "velocity": 76}, {"time": 1392, "pitch": 56, "duration": 6, "velocity": 88}, {"time": 1392, "pitch": 59, "duration": 8, "velocity": 87}, {"time": 1392, "pitch": 64, "duration": 9, "velocity": 82}, {"time": 1398, "pitch": 40, "duration": 3, "velocity": 85}, {"time": 1401, "pitch": 52, "duration": 2, "velocity": 89}, {"time": 1404, "pitch": 45, "duration": 14, "velocity": 83}, {"time": 1404, "pitch": 57, "duration": 7, "velocity": 86}, {"time": 1410, "pitch": 52, "duration": 5, "velocity": 85}, {"time": 1416, "pitch": 57, "duration": 7, "velocity": 86}, {"time": 1416, "pitch": 61, "duration": 7, "velocity": 85}, {"time": 1422, "pitch": 52, "duration": 2, "velocity": 87}, {"time": 1428, "pitch": 47, "duration": 14, "velocity": 86}, {"time": 1428, "pitch": 54, "duration": 2, "velocity": 85}, {"time": 1428, "pitch": 59, "duration": 4, "velocity": 84}, {"time": 1431, "pitch": 54, "duration": 4, "velocity": 85}, {"time": 1434, "pitch": 59, "duration": 3, "velocity": 84}, {"time": 1437, "pitch": 61, "duration": 3, "velocity": 86}, {"time": 1440, "pitch": 59, "duration": 3, "velocity": 95}, {"time": 1443, "pitch": 54, "duration": 3, "velocity": 100}, {"time": 1446, "pitch": 47, "duration": 5, "velocity": 93}, {"time": 1449, "pitch": 54, "duration": 3, "velocity": 93}, {"time": 1452, "pitch": 40, "duration": 16, "velocity": 88}, {"time": 1458, "pitch": 47, "duration": 8, "velocity": 84}, {"time": 1464, "pitch": 52, "duration": 4, "velocity": 82}, {"time": 1464, "pitch": 56, "duration": 6, "velocity": 86}, {"time": 1464, "pitch": 59, "duration": 9, "velocity": 85}, {"time": 1470, "pitch": 47, "duration": 2, "velocity": 87}, {"time": 1473, "pitch": 52, "duration": 2, "velocity": 85}, {"time": 1476, "pitch": 44, "duration": 15, "velocity": 86}, {"time": 1482, "pitch": 51, "duration": 9, "velocity": 84}, {"time": 1488, "pitch": 56, "duration": 3, "velocity": 84}, {"time": 1488, "pitch": 59, "duration": 6, "velocity": 88}, {"time": 1494, "pitch": 44, "duration": 5, "velocity": 84}, {"time": 1494, "pitch": 56, "duration": 7, "velocity": 85}, {"time": 1500, "pitch": 49, "duration": 14, "velocity": 78}, {"time": 1500, "pitch": 64, "duration": 7, "velocity": 85}, {"time": 1506, "pitch": 56, "duration": 3, "velocity": 82}, {"time": 1512, "pitch": 56, "duration": 7, "velocity": 85}, {"time": 1512, "pitch": 61, "duration": 7, "velocity": 84}, {"time": 1518, "pitch": 49, "duration": 3, "velocity": 81}, {"time": 1518, "pitch": 59, "duration": 4, "velocity": 87}, {"time": 1521, "pitch": 61, "duration": 2, "velocity": 84}, {"time": 1524, "pitch": 44, "duration": 15, "velocity": 80}, {"time": 1524, "pitch": 56, "duration": 7, "velocity": 78}, {"time": 1524, "pitch": 59, "duration": 7, "velocity": 85}, {"time": 1530, "pitch": 51, "duration": 8, "velocity": 84}, {"time": 1536, "pitch": 56, "duration": 2, "velocity": 84}, {"time": 1536, "pitch": 59, "duration": 4, "velocity": 89}, {"time": 1536, "pitch": 63, "duration": 7, "velocity": 87}, {"time": 1542, "pitch": 56, "duration": 2, "velocity": 75}, {"time": 1548, "pitch": 45, "duration": 14, "velocity": 89}, {"time": 1548, "pitch": 57, "duration": 7, "velocity": 84}, {"time": 1548, "pitch": 61, "duration": 6, "velocity": 83}, {"time": 1554, "pitch": 52, "duration": 3, "velocity": 84}, {"time": 1560, "pitch": 52, "duration": 4, "velocity": 87}, {"time": 1560, "pitch": 57, "duration": 4, "velocity": 89}, {"time": 1563, "pitch": 45, "duration": 1, "velocity": 81}, {"time": 1566, "pitch": 56, "duration": 3, "velocity": 90}, {"time": 1569, "pitch": 57, "duration": 2, "velocity": 88}, {"time": 1572, "pitch": 40, "duration": 15, "velocity": 85}, {"time": 1572, "pitch": 52, "duration": 7, "velocity": 78}, {"time": 1572, "pitch": 56, "duration": 6, "velocity": 83}, {"time": 1578, "pitch": 47, "duration": 8, "velocity": 79}, {"time": 1584, "pitch": 52, "duration": 4, "velocity": 86}, {"time": 1584, "pitch": 59, "duration": 6, "velocity": 86}, {"time": 1590, "pitch": 40, "duration": 4, "velocity": 86}, {"time": 1596, "pitch": 45, "duration": 13, "velocity": 89}, {"time": 1596, "pitch": 52, "duration": 3, "velocity": 80}, {"time": 1596, "pitch": 57, "duration": 7, "velocity": 84}, {"time": 1602, "pitch": 52, "duration": 3, "velocity": 84}, {"time": 1608, "pitch": 57, "duration": 6, "velocity": 85}, {"time": 1608, "pitch": 61, "duration": 8, "velocity": 84}, {"time": 1614, "pitch": 45, "duration": 2, "velocity": 100}, {"time": 1620, "pitch": 47, "duration": 19, "velocity": 91}, {"time": 1620, "pitch": 54, "duration": 3, "velocity": 84}, {"time": 1620, "pitch": 59, "duration": 7, "velocity": 84}, {"time": 1626, "pitch": 54, "duration": 4, "velocity": 80}, {"time": 1629, "pitch": 59, "duration": 2, "velocity": 85}, {"time": 1632, "pitch": 61, "duration": 3, "velocity": 82}, {"time": 1635, "pitch": 59, "duration": 4, "velocity": 98}, {"time": 1638, "pitch": 54, "duration": 4, "velocity": 91}, {"time": 1644, "pitch": 44, "duration": 16, "velocity": 84}, {"time": 1644, "pitch": 56, "duration": 9, "velocity": 80}, {"time": 1644, "pitch": 59, "duration": 8, "velocity": 84}, {"time": 1650, "pitch": 51, "duration": 7, "velocity": 85}, {"time": 1656, "pitch": 56, "duration": 3, "velocity": 84}, {"time": 1656, "pitch": 59, "duration": 4, "velocity": 91}, {"time": 1656, "pitch": 63, "duration": 5, "velocity": 90}, {"time": 1659, "pitch": 51, "duration": 3, "velocity": 84}, {"time": 1662, "pitch": 56, "duration": 3, "velocity": 87}, {"time": 1668, "pitch": 44, "duration": 14, "velocity": 87}, {"time": 1668, "pitch": 54, "duration": 9, "velocity": 80}, {"time": 1668, "pitch": 56, "duration": 1, "velocity": 78}, {"time": 1668, "pitch": 60, "duration": 10, "velocity": 84}, {"time": 1674, "pitch": 51, "duration": 7, "velocity": 86}, {"time": 1680, "pitch": 54, "duration": 6, "velocity": 95}, {"time": 1680, "pitch": 60, "duration": 6, "velocity": 90}, {"time": 1686, "pitch": 51, "duration": 4, "velocity": 88}, {"time": 1692, "pitch": 49, "duration": 14, "velocity": 85}, {"time": 1692, "pitch": 56, "duration": 3, "velocity": 84}, {"time": 1692, "pitch": 64, "duration": 8, "velocity": 84}, {"time": 1698, "pitch": 56, "duration": 3, "velocity": 81}, {"time": 1704, "pitch": 56, "duration": 4, "velocity": 87}, {"time": 1704, "pitch": 64, "duration": 5, "velocity": 85}, {"time": 1710, "pitch": 63, "duration": 3, "velocity": 91}, {"time": 1713, "pitch": 64, "duration": 3, "velocity": 88}, {"time": 1716, "pitch": 49, "duration": 15, "velocity": 85}, {"time": 1716, "pitch": 56, "duration": 4, "velocity": 75}, {"time": 1716, "pitch": 63, "duration": 11, "velocity": 93}, {"time": 1722, "pitch": 56, "duration": 3, "velocity": 72}, {"time": 1728, "pitch": 56, "duration": 5, "velocity": 85}, {"time": 1728, "pitch": 61, "duration": 5, "velocity": 85}, {"time": 1734, "pitch": 59, "duration": 1, "velocity": 85}, {"time": 1740, "pitch": 45, "duration": 15, "velocity": 90}, {"time": 1740, "pitch": 52, "duration": 3, "velocity": 80}, {"time": 1740, "pitch": 61, "duration": 7, "velocity": 82}, {"time": 1746, "pitch": 52, "duration": 3, "velocity": 86}, {"time": 1752, "pitch": 52, "duration": 2, "velocity": 86}, {"time": 1752, "pitch": 57, "duration": 6, "velocity": 89}, {"time": 1752, "pitch": 61, "duration": 7, "velocity": 85}, {"time": 1758, "pitch": 52, "duration": 4, "velocity": 91}, {"time": 1764, "pitch": 40, "duration": 16, "velocity": 86}, {"time": 1764, "pitch": 52, "duration": 11, "velocity": 84}, {"time": 1764, "pitch": 56, "duration": 6, "velocity": 80}, {"time": 1770, "pitch": 47, "duration": 8, "velocity": 76}, {"time": 1776, "pitch": 56, "duration": 6, "velocity": 88}, {"time": 1776, "pitch": 59, "duration": 8, "velocity": 87}, {"time": 1776, "pitch": 64, "duration": 9, "velocity": 82}, {"time": 1782, "pitch": 40, "duration": 3, "velocity": 85}, {"time": 1785, "pitch": 52, "duration": 2, "velocity": 89}, {"time": 1788, "pitch": 45, "duration": 14, "velocity": 83}, {"time": 1788, "pitch": 57, "duration": 7, "velocity": 86}, {"time": 1794, "pitch": 52, "duration": 5, "velocity": 85}, {"time": 1800, "pitch": 57, "duration": 7, "velocity": 86}, {"time": 1800, "pitch": 61, "duration": 7, "velocity": 85}, {"time": 1806, "pitch": 52, "duration": 2, "velocity": 87}, {"time": 1812, "pitch": 47, "duration": 14, "velocity": 86}, {"time": 1812, "pitch": 54, "duration": 2, "velocity": 85}, {"time": 1812, "pitch": 59, "duration": 4, "velocity": 84}, {"time": 1815, "pitch": 54, "duration": 4, "velocity": 85}, {"time": 1818, "pitch": 59, "duration": 3, "velocity": 84}, {"time": 1821, "pitch": 61, "duration": 3, "velocity": 86}, {"time": 1824, "pitch": 59, "duration": 3, "velocity": 95}, {"time": 1827, "pitch": 54, "duration": 3, "velocity": 100}, {"time": 1830, "pitch": 47, "duration": 5, "velocity": 93}, {"time": 1833, "pitch": 54, "duration": 3, "velocity": 93}, {"time": 1836, "pitch": 52, "duration": 24, "velocity": 79}, {"time": 1836, "pitch": 59, "duration": 5, "velocity": 76}, {"time": 1836, "pitch": 64, "duration": 8, "velocity": 75}, {"time": 1848, "pitch": 64, "duration": 7, "velocity": 81}, {"time": 1848, "pitch": 68, "duration": 11, "velocity": 78}, {"time": 1854, "pitch": 59, "duration": 4, "velocity": 77}, {"time": 1860, "pitch": 51, "duration": 14, "velocity": 79}, {"time": 1860, "pitch": 59, "duration": 3, "velocity": 72}, {"time": 1860, "pitch": 63, "duration": 7, "velocity": 79}, {"time": 1866, "pitch": 59, "duration": 7, "velocity": 76}, {"time": 1872, "pitch": 63, "duration": 4, "velocity": 80}, {"time": 1872, "pitch": 66, "duration": 5, "velocity": 73}, {"time": 1884, "pitch": 49, "duration": 13, "velocity": 80}, {"time": 1884, "pitch": 61, "duration": 3, "velocity": 73}, {"time": 1884, "pitch": 64, "duration": 8, "velocity": 78}, {"time": 1890, "pitch": 61, "duration": 7, "velocity": 73}, {"time": 1896, "pitch": 64, "duration": 4, "velocity": 78}, {"time": 1896, "pitch": 68, "duration": 4, "velocity": 78}, {"time": 1908, "pitch": 47, "duration": 13, "velocity": 85}, {"time": 1908, "pitch": 59, "duration": 12, "velocity": 73}, {"time": 1908, "pitch": 63, "duration": 12, "velocity": 79}, {"time": 1914, "pitch": 54, "duration": 7, "velocity": 74}, {"time": 1920, "pitch": 66, "duration": 6, "velocity": 84}, {"time": 1926, "pitch": 59, "duration": 5, "velocity": 80}, {"time": 1932, "pitch": 45, "duration": 19, "velocity": 78}, {"time": 1932, "pitch": 64, "duration": 12, "velocity": 64}, {"time": 1938, "pitch": 52, "duration": 14, "velocity": 72}, {"time": 1944, "pitch": 57, "duration": 8, "velocity": 75}, {"time": 1950, "pitch": 64, "duration": 6, "velocity": 84}, {"time": 1956, "pitch": 47, "duration": 14, "velocity": 79}, {"time": 1956, "pitch": 54, "duration": 3, "velocity": 77}, {"time": 1956, "pitch": 63, "duration": 10, "velocity": 84}, {"time": 1962, "pitch": 54, "duration": 4, "velocity": 76}, {"time": 1968, "pitch": 54, "duration": 2, "velocity": 79}, {"time": 1968, "pitch": 59, "duration": 6, "velocity": 81}, {"time": 1974, "pitch": 54, "duration": 2, "velocity": 85}, {"time": 1980, "pitch": 40, "duration": 20, "velocity": 82}, {"time": 1980, "pitch": 56, "duration": 12, "velocity": 76}, {"time": 1980, "pitch": 59, "duration": 7, "velocity": 77}, {"time": 1986, "pitch": 47, "duration": 12, "velocity": 71}, {"time": 1992, "pitch": 59, "duration": 2, "velocity": 82}, {"time": 1992, "pitch": 64, "duration": 4, "velocity": 78}, {"time": 1998, "pitch": 56, "duration": 7, "velocity": 72}, {"time": 2004, "pitch": 59, "duration": 8, "velocity": 79}, {"time": 2010, "pitch": 56, "duration": 6, "velocity": 73}, {"time": 2016, "pitch": 59, "duration": 8, "velocity": 80}, {"time": 2016, "pitch": 64, "duration": 8, "velocity": 80}, {"time": 2022, "pitch": 56, "duration": 3, "velocity": 67}, {"time": 2028, "pitch": 45, "duration": 15, "velocity": 77}, {"time": 2028, "pitch": 64, "duration": 6, "velocity": 79}, {"time": 2034, "pitch": 52, "duration": 7, "velocity": 85}, {"time": 2040, "pitch": 57, "duration": 6, "velocity": 78}, {"time": 2040, "pitch": 61, "duration": 8, "velocity": 83}, {"time": 2046, "pitch": 52, "duration": 2, "velocity": 74}, {"time": 2052, "pitch": 47, "duration": 16, "velocity": 84}, {"time": 2052, "pitch": 59, "duration": 6, "velocity": 78}, {"time": 2058, "pitch": 54, "duration": 6, "velocity": 83}, {"time": 2064, "pitch": 59, "duration": 7, "velocity": 83}, {"time": 2064, "pitch": 63, "duration": 6, "velocity": 85}, {"time": 2070, "pitch": 54, "duration": 2, "velocity": 84}, {"time": 2076, "pitch": 44, "duration": 15, "velocity": 84}, {"time": 2076, "pitch": 59, "duration": 9, "velocity": 82}, {"time": 2082, "pitch": 51, "duration": 8, "velocity": 76}, {"time": 2088, "pitch": 54, "duration": 3, "velocity": 82}, {"time": 2088, "pitch": 59, "duration": 12, "velocity": 81}, {"time": 2094, "pitch": 54, "duration": 4, "velocity": 84}, {"time": 2100, "pitch": 37, "duration": 14, "velocity": 85}, {"time": 2100, "pitch": 61, "duration": 8, "velocity": 79}, {"time": 2106, "pitch": 44, "duration": 7, "velocity": 67}, {"time": 2112, "pitch": 56, "duration": 2, "velocity": 77}, {"time": 2112, "pitch": 61, "duration": 3, "velocity": 76}, {"time": 2112, "pitch": 64, "duration": 3, "velocity": 79}, {"time": 2124, "pitch": 45, "duration": 19, "velocity": 83}, {"time": 2124, "pitch": 52, "duration": 3, "velocity": 78}, {"time": 2124, "pitch": 57, "duration": 9, "velocity": 74}, {"time": 2130, "pitch": 52, "duration": 5, "velocity": 73}, {"time": 2136, "pitch": 52, "duration": 1, "velocity": 49}, {"time": 2136, "pitch": 57, "duration": 6, "velocity": 84}, {"time": 2136, "pitch": 64, "duration": 12, "velocity": 79}, {"time": 2142, "pitch": 52, "duration": 2, "velocity": 87}, {"time": 2148, "pitch": 47, "duration": 19, "velocity": 84}, {"time": 2148, "pitch": 54, "duration": 3, "velocity": 78}, {"time": 2148, "pitch": 59, "duration": 8, "velocity": 79}, {"time": 2154, "pitch": 54, "duration": 4, "velocity": 81}, {"time": 2160, "pitch": 54, "duration": 2, "velocity": 82}, {"time": 2160, "pitch": 63, "duration": 12, "velocity": 86}, {"time": 2166, "pitch": 54, "duration": 3, "velocity": 76}, {"time": 2172, "pitch": 40, "duration": 20, "velocity": 79}, {"time": 2172, "pitch": 56, "duration": 10, "velocity": 76}, {"time": 2172, "pitch": 59, "duration": 13, "velocity": 79}, {"time": 2178, "pitch": 47, "duration": 12, "velocity": 69}, {"time": 2184, "pitch": 64, "duration": 7, "velocity": 88}, {"time": 2190, "pitch": 56, "duration": 5, "velocity": 81}, {"time": 2196, "pitch": 40, "duration": 17, "velocity": 84}, {"time": 2196, "pitch": 56, "duration": 7, "velocity": 75}, {"time": 2196, "pitch": 59, "duration": 7, "velocity": 79}, {"time": 2202, "pitch": 47, "duration": 10, "velocity": 67}, {"time": 2208, "pitch": 59, "duration": 11, "velocity": 76}, {"time": 2208, "pitch": 64, "duration": 11, "velocity": 82}, {"time": 2214, "pitch": 56, "duration": 6, "velocity": 77}, {"time": 2220, "pitch": 40, "duration": 22, "velocity": 84}, {"time": 2220, "pitch": 52, "duration": 13, "velocity": 75}, {"time": 2220, "pitch": 56, "duration": 7, "velocity": 73}, {"time": 2226, "pitch": 47, "duration": 16, "velocity": 70}, {"time": 2232, "pitch": 56, "duration": 1, "velocity": 74}, {"time": 2232, "pitch": 59, "duration": 7, "velocity": 83}, {"time": 2238, "pitch": 52, "duration": 12, "velocity": 80}, {"time": 2244, "pitch": 40, "duration": 15, "velocity": 79}, {"time": 2244, "pitch": 56, "duration": 6, "velocity": 75}, {"time": 2250, "pitch": 47, "duration": 8, "velocity": 71}, {"time": 2256, "pitch": 52, "duration": 2, "velocity": 79}, {"time": 2256, "pitch": 56, "duration": 3, "velocity": 79}, {"time": 2256, "pitch": 59, "duration": 7, "velocity": 80}, {"time": 2262, "pitch": 52, "duration": 2, "velocity": 86}, {"time": 2268, "pitch": 42, "duration": 34, "velocity": 85}, {"time": 2268, "pitch": 54, "duration": 13, "velocity": 74}, {"time": 2268, "pitch": 58, "duration": 9, "velocity": 77}, {"time": 2274, "pitch": 49, "duration": 28, "velocity": 71}, {"time": 2280, "pitch": 61, "duration": 13, "velocity": 84}, {"time": 2286, "pitch": 54, "duration": 7, "velocity": 83}, {"time": 2292, "pitch": 66, "duration": 4, "velocity": 84}, {"time": 2298, "pitch": 54, "duration": 3, "velocity": 85}, {"time": 2304, "pitch": 42, "duration": 4, "velocity": 83}, {"time": 2304, "pitch": 54, "duration": 2, "velocity": 80}, {"time": 2304, "pitch": 58, "duration": 6, "velocity": 76}, {"time": 2304, "pitch": 61, "duration": 7, "velocity": 76}, {"time": 2310, "pitch": 54, "duration": 2, "velocity": 84}, {"time": 2316, "pitch": 45, "duration": 14, "velocity": 84}, {"time": 2316, "pitch": 52, "duration": 3, "velocity": 79}, {"time": 2316, "pitch": 57, "duration": 7, "velocity": 75}, {"time": 2322, "pitch": 52, "duration": 4, "velocity": 76}, {"time": 2328, "pitch": 57, "duration": 7, "velocity": 87}, {"time": 2328, "pitch": 61, "duration": 8, "velocity": 85}, {"time": 2334, "pitch": 52, "duration": 2, "velocity": 84}, {"time": 2340, "pitch": 47, "duration": 14, "velocity": 81}, {"time": 2340, "pitch": 54, "duration": 3, "velocity": 77}, {"time": 2340, "pitch": 59, "duration": 8, "velocity": 78}, {"time": 2346, "pitch": 54, "duration": 3, "velocity": 76}, {"time": 2352, "pitch": 54, "duration": 2, "velocity": 84}, {"time": 2352, "pitch": 59, "duration": 7, "velocity": 86}, {"time": 2352, "pitch": 63, "duration": 6, "velocity": 84}, {"time": 2358, "pitch": 54, "duration": 2, "velocity": 74}, {"time": 2364, "pitch": 40, "duration": 19, "velocity": 84}, {"time": 2364, "pitch": 56, "duration": 10, "velocity": 76}, {"time": 2364, "pitch": 59, "duration": 8, "velocity": 80}, {"time": 2370, "pitch": 47, "duration": 13, "velocity": 73}, {"time": 2376, "pitch": 59, "duration": 3, "velocity": 81}, {"time": 2376, "pitch": 64, "duration": 4, "velocity": 80}, {"time": 2382, "pitch": 56, "duration": 7, "velocity": 77}, {"time": 2388, "pitch": 64, "duration": 7, "velocity": 85}, {"time": 2394, "pitch": 56, "duration": 4, "velocity": 84}, {"time": 2400, "pitch": 56, "duration": 2, "velocity": 82}, {"time": 2400, "pitch": 59, "duration": 6, "velocity": 84}, {"time": 2400, "pitch": 64, "duration": 7, "velocity": 85}, {"time": 2406, "pitch": 56, "duration": 2, "velocity": 85}, {"time": 2412, "pitch": 45, "duration": 15, "velocity": 95}, {"time": 2412, "pitch": 57, "duration": 7, "velocity": 86}, {"time": 2418, "pitch": 52, "duration": 6, "velocity": 85}, {"time": 2424, "pitch": 61, "duration": 6, "velocity": 86}, {"time": 2430, "pitch": 52, "duration": 7, "velocity": 87}, {"time": 2436, "pitch": 45, "duration": 8, "velocity": 74}, {"time": 2436, "pitch": 57, "duration": 7, "velocity": 84}, {"time": 2442, "pitch": 52, "duration": 3, "velocity": 84}, {"time": 2448, "pitch": 52, "duration": 2, "velocity": 83}, {"time": 2448, "pitch": 57, "duration": 7, "velocity": 84}, {"time": 2448, "pitch": 61, "duration": 10, "velocity": 83}, {"time": 2454, "pitch": 52, "duration": 2, "velocity": 79}, {"time": 2460, "pitch": 44, "duration": 21, "velocity": 85}, {"time": 2460, "pitch": 59, "duration": 6, "velocity": 85}, {"time": 2466, "pitch": 51, "duration": 14, "velocity": 83}, {"time": 2472, "pitch": 56, "duration": 2, "velocity": 73}, {"time": 2472, "pitch": 63, "duration": 9, "velocity": 85}, {"time": 2478, "pitch": 56, "duration": 4, "velocity": 85}, {"time": 2484, "pitch": 44, "duration": 15, "velocity": 85}, {"time": 2484, "pitch": 56, "duration": 9, "velocity": 77}, {"time": 2484, "pitch": 63, "duration": 8, "velocity": 84}, {"time": 2490, "pitch": 51, "duration": 9, "velocity": 77}, {"time": 2496, "pitch": 56, "duration": 2, "velocity": 85}, {"time": 2496, "pitch": 59, "duration": 5, "velocity": 88}, {"time": 2502, "pitch": 56, "duration": 2, "velocity": 79}, {"time": 2508, "pitch": 42, "duration": 20, "velocity": 84}, {"time": 2508, "pitch": 54, "duration": 10, "velocity": 79}, {"time": 2508, "pitch": 61, "duration": 8, "velocity": 80}, {"time": 2514, "pitch": 49, "duration": 14, "velocity": 73}, {"time": 2520, "pitch": 57, "duration": 6, "velocity": 89}, {"time": 2526, "pitch": 54, "duration": 10, "velocity": 86}, {"time": 2532, "pitch": 42, "duration": 20, "velocity": 85}, {"time": 2532, "pitch": 57, "duration": 6, "velocity": 72}, {"time": 2532, "pitch": 61, "duration": 7, "velocity": 80}, {"time": 2538, "pitch": 49, "duration": 9, "velocity": 70}, {"time": 2544, "pitch": 57, "duration": 7, "velocity": 86}, {"time": 2544, "pitch": 61, "duration": 7, "velocity": 85}, {"time": 2550, "pitch": 49, "duration": 4, "velocity": 84}, {"time": 2556, "pitch": 47, "duration": 18, "velocity": 85}, {"time": 2556, "pitch": 54, "duration": 3, "velocity": 79}, {"time": 2556, "pitch": 59, "duration": 7, "velocity": 83}, {"time": 2562, "pitch": 54, "duration": 7, "velocity": 85}, {"time": 2568, "pitch": 61, "duration": 6, "velocity": 86}, {"time": 2574, "pitch": 54, "duration": 4, "velocity": 91}, {"time": 2580, "pitch": 47, "duration": 22, "velocity": 89}, {"time": 2580, "pitch": 54, "duration": 2, "velocity": 82}, {"time": 2580, "pitch": 59, "duration": 7, "velocity": 84}, {"time": 2580, "pitch": 63, "duration": 7, "velocity": 85}, {"time": 2586, "pitch": 54, "duration": 4, "velocity": 84}, {"time": 2592, "pitch": 59, "duration": 6, "velocity": 91}, {"time": 2598, "pitch": 54, "duration": 3, "velocity": 87}, {"time": 2601, "pitch": 56, "duration": 3, "velocity": 83}, {"time": 2604, "pitch": 40, "duration": 16, "velocity": 88}, {"time": 2610, "pitch": 47, "duration": 8, "velocity": 84}, {"time": 2616, "pitch": 52, "duration": 4, "velocity": 82}, {"time": 2616, "pitch": 56, "duration": 6, "velocity": 86}, {"time": 2616, "pitch": 59, "duration": 9, "velocity": 85}, {"time": 2622, "pitch": 47, "duration": 2, "velocity": 87}, {"time": 2625, "pitch": 52, "duration": 2, "velocity": 85}, {"time": 2628, "pitch": 44, "duration": 15, "velocity": 86}, {"time": 2634, "pitch": 51, "duration": 9, "velocity": 84}, {"time": 2640, "pitch": 56, "duration": 3, "velocity": 84}, {"time": 2640, "pitch": 59, "duration": 6, "velocity": 88}, {"time": 2646, "pitch": 44, "duration": 5, "velocity": 84}, {"time": 2646, "pitch": 56, "duration": 7, "velocity": 85}, {"time": 2652, "pitch": 49, "duration": 14, "velocity": 78}, {"time": 2652, "pitch": 64, "duration": 7, "velocity": 85}, {"time": 2658, "pitch": 56, "duration": 3, "velocity": 82}, {"time": 2664, "pitch": 56, "duration": 7, "velocity": 85}, {"time": 2664, "pitch": 61, "duration": 7, "velocity": 84}, {"time": 2670, "pitch": 49, "duration": 3, "velocity": 81}, {"time": 2670, "pitch": 59, "duration": 4, "velocity": 87}, {"time": 2673, "pitch": 61, "duration": 2, "velocity": 84}, {"time": 2676, "pitch": 44, "duration": 15, "velocity": 80}, {"time": 2676, "pitch": 56, "duration": 7, "velocity": 78}, {"time": 2676, "pitch": 59, "duration": 7, "velocity": 85}, {"time": 2682, "pitch": 51, "duration": 8, "velocity": 84}, {"time": 2688, "pitch": 56, "duration": 2, "velocity": 84}, {"time": 2688, "pitch": 59, "duration": 4, "velocity": 89}, {"time": 2688, "pitch": 63, "duration": 7, "velocity": 87}, {"time": 2694, "pitch": 56, "duration": 2, "velocity": 75}, {"time": 2700, "pitch": 45, "duration": 14, "velocity": 89}, {"time": 2700, "pitch": 57, "duration": 7, "velocity": 84}, {"time": 2700, "pitch": 61, "duration": 6, "velocity": 83}, {"time": 2706, "pitch": 52, "duration": 3, "velocity": 84}, {"time": 2712, "pitch": 52, "duration": 4, "velocity": 87}, {"time": 2712, "pitch": 57, "duration": 4, "velocity": 89}, {"time": 2715, "pitch": 45, "duration": 1, "velocity": 81}, {"time": 2718, "pitch": 56, "duration": 3, "velocity": 90}, {"time": 2721, "pitch": 57, "duration": 2, "velocity": 88}, {"time": 2724, "pitch": 40, "duration": 15, "velocity": 85}, {"time": 2724, "pitch": 52, "duration": 7, "velocity": 78}, {"time": 2724, "pitch": 56, "duration": 6, "velocity": 83}, {"time": 2730, "pitch": 47, "duration": 8, "velocity": 79}, {"time": 2736, "pitch": 52, "duration": 4, "velocity": 86}, {"time": 2736, "pitch": 59, "duration": 6, "velocity": 86}, {"time": 2742, "pitch": 40, "duration": 4, "velocity": 86}, {"time": 2748, "pitch": 45, "duration": 13, "velocity": 89}, {"time": 2748, "pitch": 52, "duration": 3, "velocity": 80}, {"time": 2748, "pitch": 57, "duration": 7, "velocity": 84}, {"time": 2754, "pitch": 52, "duration": 3, "velocity": 84}, {"time": 2760, "pitch": 57, "duration": 6, "velocity": 85}, {"time": 2760, "pitch": 61, "duration": 8, "velocity": 84}, {"time": 2766, "pitch": 45, "duration": 2, "velocity": 100}, {"time": 2772, "pitch": 47, "duration": 19, "velocity": 91}, {"time": 2772, "pitch": 54, "duration": 3, "velocity": 84}, {"time": 2772, "pitch": 59, "duration": 7, "velocity": 84}, {"time": 2778, "pitch": 54, "duration": 4, "velocity": 80}, {"time": 2781, "pitch": 59, "duration": 2, "velocity": 85}, {"time": 2784, "pitch": 61, "duration": 3, "velocity": 82}, {"time": 2787, "pitch": 59, "duration": 4, "velocity": 98}, {"time": 2790, "pitch": 54, "duration": 4, "velocity": 91}, {"time": 2796, "pitch": 44, "duration": 16, "velocity": 84}, {"time": 2796, "pitch": 56, "duration": 9, "velocity": 80}, {"time": 2796, "pitch": 59, "duration": 8, "velocity": 84}, {"time": 2802, "pitch": 51, "duration": 7, "velocity": 85}, {"time": 2808, "pitch": 56, "duration": 3, "velocity": 84}, {"time": 2808, "pitch": 59, "duration": 4, "velocity": 91}, {"time": 2808, "pitch": 63, "duration": 5, "velocity": 90}, {"time": 2811, "pitch": 51, "duration": 3, "velocity": 84}, {"time": 2814, "pitch": 56, "duration": 3, "velocity": 87}, {"time": 2820, "pitch": 44, "duration": 14, "velocity": 87}, {"time": 2820, "pitch": 54, "duration": 9, "velocity": 80}, {"time": 2820, "pitch": 56, "duration": 1, "velocity": 78}, {"time": 2820, "pitch": 60, "duration": 10, "velocity": 84}, {"time": 2826, "pitch": 51, "duration": 7, "velocity": 86}, {"time": 2832, "pitch": 54, "duration": 6, "velocity": 95}, {"time": 2832, "pitch": 60, "duration": 6, "velocity": 90}, {"time": 2838, "pitch": 51, "duration": 4, "velocity": 88}, {"time": 2844, "pitch": 49, "duration": 14, "velocity": 85}, {"time": 2844, "pitch": 56, "duration": 3, "velocity": 84}, {"time": 2844, "pitch": 64, "duration": 8, "velocity": 84}, {"time": 2850, "pitch": 56, "duration": 3, "velocity": 81}, {"time": 2856, "pitch": 56, "duration": 4, "velocity": 87}, {"time": 2856, "pitch": 64, "duration": 5, "velocity": 85}, {"time": 2862, "pitch": 63, "duration": 3, "velocity": 91}, {"time": 2865, "pitch": 64, "duration": 3, "velocity": 88}, {"time": 2868, "pitch": 49, "duration": 15, "velocity": 85}, {"time": 2868, "pitch": 56, "duration": 4, "velocity": 75}, {"time": 2868, "pitch": 63, "duration": 11, "velocity": 93}, {"time": 2874, "pitch": 56, "duration": 3, "velocity": 72}, {"time": 2880, "pitch": 56, "duration": 5, "velocity": 85}, {"time": 2880, "pitch": 61, "duration": 5, "velocity": 85}, {"time": 2886, "pitch": 59, "duration": 1, "velocity": 85}, {"time": 2892, "pitch": 45, "duration": 15, "velocity": 90}, {"time": 2892, "pitch": 52, "duration": 3, "velocity": 80}, {"time": 2892, "pitch": 61, "duration": 7, "velocity": 82}, {"time": 2898, "pitch": 52, "duration": 3, "velocity": 86}, {"time": 2904, "pitch": 52, "duration": 2, "velocity": 86}, {"time": 2904, "pitch": 57, "duration": 6, "velocity": 89}, {"time": 2904, "pitch": 61, "duration": 7, "velocity": 85}, {"time": 2910, "pitch": 52, "duration": 4, "velocity": 91}, {"time": 2916, "pitch": 40, "duration": 16, "velocity": 86}, {"time": 2916, "pitch": 52, "duration": 11, "velocity": 84}, {"time": 2916, "pitch": 56, "duration": 6, "velocity": 80}, {"time": 2922, "pitch": 47, "duration": 8, "velocity": 76}, {"time": 2928, "pitch": 56, "duration": 6, "velocity": 88}, {"time": 2928, "pitch": 59, "duration": 8, "velocity": 87}, {"time": 2928, "pitch": 64, "duration": 9, "velocity": 82}, {"time": 2934, "pitch": 40, "duration": 3, "velocity": 85}, {"time": 2937, "pitch": 52, "duration": 2, "velocity": 89}, {"time": 2940, "pitch": 45, "duration": 14, "velocity": 83}, {"time": 2940, "pitch": 57, "duration": 7, "velocity": 86}, {"time": 2946, "pitch": 52, "duration": 5, "velocity": 85}, {"time": 2952, "pitch": 57, "duration": 7, "velocity": 86}, {"time": 2952, "pitch": 61, "duration": 7, "velocity": 85}, {"time": 2958, "pitch": 52, "duration": 2, "velocity": 87}, {"time": 2964, "pitch": 47, "duration": 14, "velocity": 86}, {"time": 2964, "pitch": 54, "duration": 2, "velocity": 85}, {"time": 2964, "pitch": 59, "duration": 4, "velocity": 84}, {"time": 2967, "pitch": 54, "duration": 4, "velocity": 85}, {"time": 2970, "pitch": 59, "duration": 3, "velocity": 84}, {"time": 2973, "pitch": 61, "duration": 3, "velocity": 86}, {"time": 2976, "pitch": 59, "duration": 3, "velocity": 95}, {"time": 2979, "pitch": 54, "duration": 3, "velocity": 100}, {"time": 2982, "pitch": 47, "duration": 5, "velocity": 93}, {"time": 2985, "pitch": 54, "duration": 3, "velocity": 93}, {"time": 2988, "pitch": 40, "duration": 16, "velocity": 88}, {"time": 2994, "pitch": 47, "duration": 8, "velocity": 84}, {"time": 3000, "pitch": 52, "duration": 4, "velocity": 82}, {"time": 3000, "pitch": 56, "duration": 6, "velocity": 86}, {"time": 3000, "pitch": 59, "duration": 9, "velocity": 85}, {"time": 3006, "pitch": 47, "duration": 2, "velocity": 87}, {"time": 3009, "pitch": 52, "duration": 2, "velocity": 85}, {"time": 3012, "pitch": 44, "duration": 15, "velocity": 86}, {"time": 3018, "pitch": 51, "duration": 9, "velocity": 84}, {"time": 3024, "pitch": 56, "duration": 3, "velocity": 84}, {"time": 3024, "pitch": 59, "duration": 6, "velocity": 88}, {"time": 3030, "pitch": 44, "duration": 5, "velocity": 84}, {"time": 3030, "pitch": 56, "duration": 7, "velocity": 85}, {"time": 3036, "pitch": 49, "duration": 14, "velocity": 78}, {"time": 3036, "pitch": 64, "duration": 7, "velocity": 85}, {"time": 3042, "pitch": 56, "duration": 3, "velocity": 82}, {"time": 3048, "pitch": 56, "duration": 7, "velocity": 85}, {"time": 3048, "pitch": 61, "duration": 7, "velocity": 84}, {"time": 3054, "pitch": 49, "duration": 3, "velocity": 81}, {"time": 3054, "pitch": 59, "duration": 4, "velocity": 87}, {"time": 3057, "pitch": 61, "duration": 2, "velocity": 84}, {"time": 3060, "pitch": 44, "duration": 15, "velocity": 80}, {"time": 3060, "pitch": 56, "duration": 7, "velocity": 78}, {"time": 3060, "pitch": 59, "duration": 7, "velocity": 85}, {"time": 3066, "pitch": 51, "duration": 8, "velocity": 84}, {"time": 3072, "pitch": 56, "duration": 2, "velocity": 84}, {"time": 3072, "pitch": 59, "duration": 4, "velocity": 89}, {"time": 3072, "pitch": 63, "duration": 7, "velocity": 87}, {"time": 3078, "pitch": 56, "duration": 2, "velocity": 75}, {"time": 3084, "pitch": 45, "duration": 14, "velocity": 89}, {"time": 3084, "pitch": 57, "duration": 7, "velocity": 84}, {"time": 3084, "pitch": 61, "duration": 6, "velocity": 83}, {"time": 3090, "pitch": 52, "duration": 3, "velocity": 84}, {"time": 3096, "pitch": 52, "duration": 4, "velocity": 87}, {"time": 3096, "pitch": 57, "duration": 4, "velocity": 89}, {"time": 3099, "pitch": 45, "duration": 1, "velocity": 81}, {"time": 3102, "pitch": 56, "duration": 3, "velocity": 90}, {"time": 3105, "pitch": 57, "duration": 2, "velocity": 88}, {"time": 3108, "pitch": 40, "duration": 15, "velocity": 85}, {"time": 3108, "pitch": 52, "duration": 7, "velocity": 78}, {"time": 3108, "pitch": 56, "duration": 6, "velocity": 83}, {"time": 3114, "pitch": 47, "duration": 8, "velocity": 79}, {"time": 3120, "pitch": 52, "duration": 4, "velocity": 86}, {"time": 3120, "pitch": 59, "duration": 6, "velocity": 86}, {"time": 3126, "pitch": 40, "duration": 4, "velocity": 86}, {"time": 3132, "pitch": 45, "duration": 13, "velocity": 89}, {"time": 3132, "pitch": 52, "duration": 3, "velocity": 80}, {"time": 3132, "pitch": 57, "duration": 7, "velocity": 84}, {"time": 3138, "pitch": 52, "duration": 3, "velocity": 84}, {"time": 3144, "pitch": 57, "duration": 6, "velocity": 85}, {"time": 3144, "pitch": 61, "duration": 8, "velocity": 84}, {"time": 3150, "pitch": 45, "duration": 2, "velocity": 100}, {"time": 3156, "pitch": 47, "duration": 19, "velocity": 91}, {"time": 3156, "pitch": 54, "duration": 3, "velocity": 84}, {"time": 3156, "pitch": 59, "duration": 7, "velocity": 84}, {"time": 3162, "pitch": 54, "duration": 4, "velocity": 80}, {"time": 3165, "pitch": 59, "duration": 2, "velocity": 85}, {"time": 3168, "pitch": 61, "duration": 3, "velocity": 82}, {"time": 3171, "pitch": 59, "duration": 4, "velocity": 98}, {"time": 3174, "pitch": 54, "duration": 4, "velocity": 91}, {"time": 3180, "pitch": 44, "duration": 16, "velocity": 84}, {"time": 3180, "pitch": 56, "duration": 9, "velocity": 80}, {"time": 3180, "pitch": 59, "duration": 8, "velocity": 84}, {"time": 3186, "pitch": 51, "duration": 7, "velocity": 85}, {"time": 3192, "pitch": 56, "duration": 3, "velocity": 84}, {"time": 3192, "pitch": 59, "duration": 4, "velocity": 91}, {"time": 3192, "pitch": 63, "duration": 5, "velocity": 90}, {"time": 3195, "pitch": 51, "duration": 3, "velocity": 84}, {"time": 3198, "pitch": 56, "duration": 3, "velocity": 87}, {"time": 3204, "pitch": 44, "duration": 14, "velocity": 87}, {"time": 3204, "pitch": 54, "duration": 9, "velocity": 80}, {"time": 3204, "pitch": 56, "duration": 1, "velocity": 78}, {"time": 3204, "pitch": 60, "duration": 10, "velocity": 84}, {"time": 3210, "pitch": 51, "duration": 7, "velocity": 86}, {"time": 3216, "pitch": 54, "duration": 6, "velocity": 95}, {"time": 3216, "pitch": 60, "duration": 6, "velocity": 90}, {"time": 3222, "pitch": 51, "duration": 4, "velocity": 88}, {"time": 3228, "pitch": 49, "duration": 14, "velocity": 85}, {"time": 3228, "pitch": 56, "duration": 3, "velocity": 84}, {"time": 3228, "pitch": 64, "duration": 8, "velocity": 84}, {"time": 3234, "pitch": 56, "duration": 3, "velocity": 81}, {"time": 3240, "pitch": 56, "duration": 4, "velocity": 87}, {"time": 3240, "pitch": 64, "duration": 5, "velocity": 85}, {"time": 3246, "pitch": 63, "duration": 3, "velocity": 91}, {"time": 3249, "pitch": 64, "duration": 3, "velocity": 88}, {"time": 3252, "pitch": 49, "duration": 15, "velocity": 85}, {"time": 3252, "pitch": 56, "duration": 4, "velocity": 75}, {"time": 3252, "pitch": 63, "duration": 11, "velocity": 93}, {"time": 3258, "pitch": 56, "duration": 3, "velocity": 72}, {"time": 3264, "pitch": 56, "duration": 5, "velocity": 85}, {"time": 3264, "pitch": 61, "duration": 5, "velocity": 85}, {"time": 3270, "pitch": 59, "duration": 1, "velocity": 85}, {"time": 3276, "pitch": 45, "duration": 15, "velocity": 90}, {"time": 3276, "pitch": 52, "duration": 3, "velocity": 80}, {"time": 3276, "pitch": 61, "duration": 7, "velocity": 82}, {"time": 3282, "pitch": 52, "duration": 3, "velocity": 86}, {"time": 3288, "pitch": 52, "duration": 2, "velocity": 86}, {"time": 3288, "pitch": 57, "duration": 6, "velocity": 89}, {"time": 3288, "pitch": 61, "duration": 7, "velocity": 85}, {"time": 3294, "pitch": 52, "duration": 4, "velocity": 91}, {"time": 3300, "pitch": 40, "duration": 16, "velocity": 86}, {"time": 3300, "pitch": 52, "duration": 11, "velocity": 84}, {"time": 3300, "pitch": 56, "duration": 6, "velocity": 80}, {"time": 3306, "pitch": 47, "duration": 8, "velocity": 76}, {"time": 3312, "pitch": 56, "duration": 6, "velocity": 88}, {"time": 3312, "pitch": 59, "duration": 8, "velocity": 87}, {"time": 3312, "pitch": 64, "duration": 9, "velocity": 82}, {"time": 3318, "pitch": 40, "duration": 3, "velocity": 85}, {"time": 3321, "pitch": 52, "duration": 2, "velocity": 89}, {"time": 3324, "pitch": 45, "duration": 14, "velocity": 83}, {"time": 3324, "pitch": 57, "duration": 7, "velocity": 86}, {"time": 3330, "pitch": 52, "duration": 5, "velocity": 85}, {"time": 3336, "pitch": 57, "duration": 7, "velocity": 86}, {"time": 3336, "pitch": 61, "duration": 7, "velocity": 85}, {"time": 3342, "pitch": 52, "duration": 2, "velocity": 87}, {"time": 3348, "pitch": 47, "duration": 14, "velocity": 86}, {"time": 3348, "pitch": 54, "duration": 2, "velocity": 85}, {"time": 3348, "pitch": 59, "duration": 4, "velocity": 84}, {"time": 3351, "pitch": 54, "duration": 4, "velocity": 85}, {"time": 3354, "pitch": 59, "duration": 3, "velocity": 84}, {"time": 3357, "pitch": 61, "duration": 3, "velocity": 86}, {"time": 3360, "pitch": 59, "duration": 3, "velocity": 95}, {"time": 3363, "pitch": 54, "duration": 3, "velocity": 100}, {"time": 3366, "pitch": 47, "duration": 5, "velocity": 93}, {"time": 3369, "pitch": 54, "duration": 3, "velocity": 93}, {"time": 3372, "pitch": 41, "duration": 16, "velocity": 88}, {"time": 3378, "pitch": 48, "duration": 8, "velocity": 84}, {"time": 3384, "pitch": 53, "duration": 4, "velocity": 82}, {"time": 3384, "pitch": 57, "duration": 6, "velocity": 86}, {"time": 3384, "pitch": 60, "duration": 9, "velocity": 85}, {"time": 3390, "pitch": 48, "duration": 2, "velocity": 87}, {"time": 3393, "pitch": 53, "duration": 2, "velocity": 85}, {"time": 3396, "pitch": 45, "duration": 15, "velocity": 86}, {"time": 3402, "pitch": 52, "duration": 9, "velocity": 84}, {"time": 3408, "pitch": 57, "duration": 3, "velocity": 84}, {"time": 3408, "pitch": 60, "duration": 6, "velocity": 88}, {"time": 3414, "pitch": 45, "duration": 5, "velocity": 84}, {"time": 3414, "pitch": 57, "duration": 7, "velocity": 85}, {"time": 3420, "pitch": 50, "duration": 14, "velocity": 78}, {"time": 3420, "pitch": 65, "duration": 7, "velocity": 85}, {"time": 3426, "pitch": 57, "duration": 3, "velocity": 82}, {"time": 3432, "pitch": 57, "duration": 7, "velocity": 85}, {"time": 3432, "pitch": 62, "duration": 7, "velocity": 84}, {"time": 3438, "pitch": 50, "duration": 3, "velocity": 81}, {"time": 3438, "pitch": 60, "duration": 4, "velocity": 87}, {"time": 3441, "pitch": 62, "duration": 2, "velocity": 84}, {"time": 3444, "pitch": 45, "duration": 15, "velocity": 80}, {"time": 3444, "pitch": 57, "duration": 7, "velocity": 78}, {"time": 3444, "pitch": 60, "duration": 7, "velocity": 85}, {"time": 3450, "pitch": 52, "duration": 8, "velocity": 84}, {"time": 3456, "pitch": 57, "duration": 2, "velocity": 84}, {"time": 3456, "pitch": 60, "duration": 4, "velocity": 89}, {"time": 3456, "pitch": 64, "duration": 7, "velocity": 87}, {"time": 3462, "pitch": 57, "duration": 2, "velocity": 75}, {"time": 3468, "pitch": 46, "duration": 14, "velocity": 89}, {"time": 3468, "pitch": 58, "duration": 7, "velocity": 84}, {"time": 3468, "pitch": 62, "duration": 6, "velocity": 83}, {"time": 3474, "pitch": 53, "duration": 3, "velocity": 84}, {"time": 3480, "pitch": 53, "duration": 4, "velocity": 87}, {"time": 3480, "pitch": 58, "duration": 4, "velocity": 89}, {"time": 3483, "pitch": 46, "duration": 1, "velocity": 81}, {"time": 3486, "pitch": 57, "duration": 3, "velocity": 90}, {"time": 3489, "pitch": 58, "duration": 2, "velocity": 88}, {"time": 3492, "pitch": 41, "duration": 15, "velocity": 85}, {"time": 3492, "pitch": 53, "duration": 7, "velocity": 78}, {"time": 3492, "pitch": 57, "duration": 6, "velocity": 83}, {"time": 3498, "pitch": 48, "duration": 8, "velocity": 79}, {"time": 3504, "pitch": 53, "duration": 4, "velocity": 86}, {"time": 3504, "pitch": 60, "duration": 6, "velocity": 86}, {"time": 3510, "pitch": 41, "duration": 4, "velocity": 86}, {"time": 3516, "pitch": 46, "duration": 13, "velocity": 89}, {"time": 3516, "pitch": 53, "duration": 3, "velocity": 80}, {"time": 3516, "pitch": 58, "duration": 7, "velocity": 84}, {"time": 3522, "pitch": 53, "duration": 3, "velocity": 84}, {"time": 3528, "pitch": 58, "duration": 6, "velocity": 85}, {"time": 3528, "pitch": 62, "duration": 8, "velocity": 84}, {"time": 3534, "pitch": 46, "duration": 2, "velocity": 100}, {"time": 3540, "pitch": 48, "duration": 19, "velocity": 91}, {"time": 3540, "pitch": 55, "duration": 3, "velocity": 84}, {"time": 3540, "pitch": 60, "duration": 7, "velocity": 84}, {"time": 3546, "pitch": 55, "duration": 4, "velocity": 80}, {"time": 3549, "pitch": 60, "duration": 2, "velocity": 85}, {"time": 3552, "pitch": 62, "duration": 3, "velocity": 82}, {"time": 3555, "pitch": 60, "duration": 4, "velocity": 98}, {"time": 3558, "pitch": 55, "duration": 4, "velocity": 91}, {"time": 3564, "pitch": 45, "duration": 16, "velocity": 84}, {"time": 3564, "pitch": 57, "duration": 9, "velocity": 80}, {"time": 3564, "pitch": 60, "duration": 8, "velocity": 84}, {"time": 3570, "pitch": 52, "duration": 7, "velocity": 85}, {"time": 3576, "pitch": 57, "duration": 3, "velocity": 84}, {"time": 3576, "pitch": 60, "duration": 4, "velocity": 91}, {"time": 3576, "pitch": 64, "duration": 5, "velocity": 90}, {"time": 3579, "pitch": 52, "duration": 3, "velocity": 84}, {"time": 3582, "pitch": 57, "duration": 3, "velocity": 87}, {"time": 3588, "pitch": 45, "duration": 14, "velocity": 87}, {"time": 3588, "pitch": 55, "duration": 9, "velocity": 80}, {"time": 3588, "pitch": 57, "duration": 1, "velocity": 78}, {"time": 3588, "pitch": 61, "duration": 10, "velocity": 84}, {"time": 3594, "pitch": 52, "duration": 7, "velocity": 86}, {"time": 3600, "pitch": 55, "duration": 6, "velocity": 95}, {"time": 3600, "pitch": 61, "duration": 6, "velocity": 90}, {"time": 3606, "pitch": 52, "duration": 4, "velocity": 88}, {"time": 3612, "pitch": 50, "duration": 14, "velocity": 85}, {"time": 3612, "pitch": 57, "duration": 3, "velocity": 84}, {"time": 3612, "pitch": 65, "duration": 8, "velocity": 84}, {"time": 3618, "pitch": 57, "duration": 3, "velocity": 81}, {"time": 3624, "pitch": 57, "duration": 4, "velocity": 87}, {"time": 3624, "pitch": 65, "duration": 5, "velocity": 85}, {"time": 3630, "pitch": 64, "duration": 3, "velocity": 91}, {"time": 3633, "pitch": 65, "duration": 3, "velocity": 88}, {"time": 3636, "pitch": 50, "duration": 15, "velocity": 85}, {"time": 3636, "pitch": 57, "duration": 4, "velocity": 75}, {"time": 3636, "pitch": 64, "duration": 11, "velocity": 93}, {"time": 3642, "pitch": 57, "duration": 3, "velocity": 72}, {"time": 3648, "pitch": 57, "duration": 5, "velocity": 85}, {"time": 3648, "pitch": 62, "duration": 5, "velocity": 85}, {"time": 3654, "pitch": 60, "duration": 1, "velocity": 85}, {"time": 3660, "pitch": 46, "duration": 15, "velocity": 90}, {"time": 3660, "pitch": 53, "duration": 3, "velocity": 80}, {"time": 3660, "pitch": 62, "duration": 7, "velocity": 82}, {"time": 3666, "pitch": 53, "duration": 3, "velocity": 86}, {"time": 3672, "pitch": 53, "duration": 2, "velocity": 86}, {"time": 3672, "pitch": 58, "duration": 6, "velocity": 89}, {"time": 3672, "pitch": 62, "duration": 7, "velocity": 85}, {"time": 3678, "pitch": 53, "duration": 4, "velocity": 91}, {"time": 3684, "pitch": 41, "duration": 16, "velocity": 86}, {"time": 3684, "pitch": 53, "duration": 11, "velocity": 84}, {"time": 3684, "pitch": 57, "duration": 6, "velocity": 80}, {"time": 3690, "pitch": 48, "duration": 8, "velocity": 76}, {"time": 3696, "pitch": 57, "duration": 6, "velocity": 88}, {"time": 3696, "pitch": 60, "duration": 8, "velocity": 87}, {"time": 3696, "pitch": 65, "duration": 9, "velocity": 82}, {"time": 3702, "pitch": 41, "duration": 3, "velocity": 85}, {"time": 3705, "pitch": 53, "duration": 2, "velocity": 89}, {"time": 3708, "pitch": 46, "duration": 14, "velocity": 83}, {"time": 3708, "pitch": 58, "duration": 7, "velocity": 86}, {"time": 3714, "pitch": 53, "duration": 5, "velocity": 85}, {"time": 3720, "pitch": 58, "duration": 7, "velocity": 86}, {"time": 3720, "pitch": 62, "duration": 7, "velocity": 85}, {"time": 3726, "pitch": 53, "duration": 2, "velocity": 87}, {"time": 3732, "pitch": 48, "duration": 14, "velocity": 86}, {"time": 3732, "pitch": 55, "duration": 2, "velocity": 85}, {"time": 3732, "pitch": 60, "duration": 4, "velocity": 84}, {"time": 3735, "pitch": 55, "duration": 4, "velocity": 85}, {"time": 3738, "pitch": 60, "duration": 3, "velocity": 84}, {"time": 3741, "pitch": 62, "duration": 3, "velocity": 86}, {"time": 3744, "pitch": 60, "duration": 3, "velocity": 95}, {"time": 3747, "pitch": 55, "duration": 3, "velocity": 100}, {"time": 3750, "pitch": 48, "duration": 5, "velocity": 93}, {"time": 3753, "pitch": 55, "duration": 3, "velocity": 93}, {"time": 3756, "pitch": 41, "duration": 16, "velocity": 88}, {"time": 3762, "pitch": 48, "duration": 8, "velocity": 84}, {"time": 3768, "pitch": 53, "duration": 4, "velocity": 82}, {"time": 3768, "pitch": 57, "duration": 6, "velocity": 86}, {"time": 3768, "pitch": 60, "duration": 9, "velocity": 85}, {"time": 3774, "pitch": 48, "duration": 2, "velocity": 87}, {"time": 3777, "pitch": 53, "duration": 2, "velocity": 85}, {"time": 3780, "pitch": 45, "duration": 15, "velocity": 86}, {"time": 3786, "pitch": 52, "duration": 9, "velocity": 84}, {"time": 3792, "pitch": 57, "duration": 3, "velocity": 84}, {"time": 3792, "pitch": 60, "duration": 6, "velocity": 88}, {"time": 3798, "pitch": 45, "duration": 5, "velocity": 84}, {"time": 3798, "pitch": 57, "duration": 7, "velocity": 85}, {"time": 3804, "pitch": 50, "duration": 14, "velocity": 78}, {"time": 3804, "pitch": 65, "duration": 7, "velocity": 85}, {"time": 3810, "pitch": 57, "duration": 3, "velocity": 82}, {"time": 3816, "pitch": 57, "duration": 7, "velocity": 85}, {"time": 3816, "pitch": 62, "duration": 7, "velocity": 84}, {"time": 3822, "pitch": 50, "duration": 3, "velocity": 81}, {"time": 3822, "pitch": 60, "duration": 4, "velocity": 87}, {"time": 3825, "pitch": 62, "duration": 2, "velocity": 84}, {"time": 3828, "pitch": 45, "duration": 15, "velocity": 80}, {"time": 3828, "pitch": 57, "duration": 7, "velocity": 78}, {"time": 3828, "pitch": 60, "duration": 7, "velocity": 85}, {"time": 3834, "pitch": 52, "duration": 8, "velocity": 84}, {"time": 3840, "pitch": 57, "duration": 2, "velocity": 84}, {"time": 3840, "pitch": 60, "duration": 4, "velocity": 89}, {"time": 3840, "pitch": 64, "duration": 7, "velocity": 87}, {"time": 3846, "pitch": 57, "duration": 2, "velocity": 75}, {"time": 3852, "pitch": 46, "duration": 14, "velocity": 89}, {"time": 3852, "pitch": 58, "duration": 7, "velocity": 84}, {"time": 3852, "pitch": 62, "duration": 6, "velocity": 83}, {"time": 3858, "pitch": 53, "duration": 3, "velocity": 84}, {"time": 3864, "pitch": 53, "duration": 4, "velocity": 87}, {"time": 3864, "pitch": 58, "duration": 4, "velocity": 89}, {"time": 3867, "pitch": 46, "duration": 1, "velocity": 81}, {"time": 3870, "pitch": 57, "duration": 3, "velocity": 90}, {"time": 3873, "pitch": 58, "duration": 2, "velocity": 88}, {"time": 3876, "pitch": 41, "duration": 15, "velocity": 85}, {"time": 3876, "pitch": 53, "duration": 7, "velocity": 78}, {"time": 3876, "pitch": 57, "duration": 6, "velocity": 83}, {"time": 3882, "pitch": 48, "duration": 8, "velocity": 79}, {"time": 3888, "pitch": 53, "duration": 4, "velocity": 86}, {"time": 3888, "pitch": 60, "duration": 6, "velocity": 86}, {"time": 3894, "pitch": 41, "duration": 4, "velocity": 86}, {"time": 3900, "pitch": 46, "duration": 13, "velocity": 89}, {"time": 3900, "pitch": 53, "duration": 3, "velocity": 80}, {"time": 3900, "pitch": 58, "duration": 7, "velocity": 84}, {"time": 3906, "pitch": 53, "duration": 3, "velocity": 84}, {"time": 3912, "pitch": 58, "duration": 6, "velocity": 85}, {"time": 3912, "pitch": 62, "duration": 8, "velocity": 84}, {"time": 3918, "pitch": 46, "duration": 2, "velocity": 100}, {"time": 3924, "pitch": 48, "duration": 19, "velocity": 91}, {"time": 3924, "pitch": 55, "duration": 3, "velocity": 84}, {"time": 3924, "pitch": 60, "duration": 7, "velocity": 84}, {"time": 3930, "pitch": 55, "duration": 4, "velocity": 80}, {"time": 3933, "pitch": 60, "duration": 2, "velocity": 85}, {"time": 3936, "pitch": 62, "duration": 3, "velocity": 82}, {"time": 3939, "pitch": 60, "duration": 4, "velocity": 98}, {"time": 3942, "pitch": 55, "duration": 4, "velocity": 91}, {"time": 3948, "pitch": 45, "duration": 16, "velocity": 84}, {"time": 3948, "pitch": 57, "duration": 9, "velocity": 80}, {"time": 3948, "pitch": 60, "duration": 8, "velocity": 84}, {"time": 3954, "pitch": 52, "duration": 7, "velocity": 85}, {"time": 3960, "pitch": 57, "duration": 3, "velocity": 84}, {"time": 3960, "pitch": 60, "duration": 4, "velocity": 91}, {"time": 3960, "pitch": 64, "duration": 5, "velocity": 90}, {"time": 3963, "pitch": 52, "duration": 3, "velocity": 84}, {"time": 3966, "pitch": 57, "duration": 3, "velocity": 87}, {"time": 3972, "pitch": 45, "duration": 14, "velocity": 87}, {"time": 3972, "pitch": 55, "duration": 9, "velocity": 80}, {"time": 3972, "pitch": 57, "duration": 1, "velocity": 78}, {"time": 3972, "pitch": 61, "duration": 10, "velocity": 84}, {"time": 3978, "pitch": 52, "duration": 7, "velocity": 86}, {"time": 3984, "pitch": 55, "duration": 6, "velocity": 95}, {"time": 3984, "pitch": 61, "duration": 6, "velocity": 90}, {"time": 3990, "pitch": 52, "duration": 4, "velocity": 88}, {"time": 3996, "pitch": 50, "duration": 14, "velocity": 85}, {"time": 3996, "pitch": 57, "duration": 3, "velocity": 84}, {"time": 3996, "pitch": 65, "duration": 8, "velocity": 84}, {"time": 4002, "pitch": 57, "duration": 3, "velocity": 81}, {"time": 4008, "pitch": 57, "duration": 4, "velocity": 87}, {"time": 4008, "pitch": 65, "duration": 5, "velocity": 85}, {"time": 4014, "pitch": 64, "duration": 3, "velocity": 91}, {"time": 4017, "pitch": 65, "duration": 3, "velocity": 88}, {"time": 4020, "pitch": 50, "duration": 15, "velocity": 85}, {"time": 4020, "pitch": 57, "duration": 4, "velocity": 75}, {"time": 4020, "pitch": 64, "duration": 11, "velocity": 93}, {"time": 4026, "pitch": 57, "duration": 3, "velocity": 72}, {"time": 4032, "pitch": 57, "duration": 5, "velocity": 85}, {"time": 4032, "pitch": 62, "duration": 5, "velocity": 85}, {"time": 4038, "pitch": 60, "duration": 1, "velocity": 85}, {"time": 4044, "pitch": 46, "duration": 15, "velocity": 90}, {"time": 4044, "pitch": 53, "duration": 3, "velocity": 80}, {"time": 4044, "pitch": 62, "duration": 7, "velocity": 82}, {"time": 4050, "pitch": 53, "duration": 3, "velocity": 86}, {"time": 4056, "pitch": 53, "duration": 2, "velocity": 86}, {"time": 4056, "pitch": 58, "duration": 6, "velocity": 89}, {"time": 4056, "pitch": 62, "duration": 7, "velocity": 85}, {"time": 4062, "pitch": 53, "duration": 4, "velocity": 91}, {"time": 4068, "pitch": 41, "duration": 16, "velocity": 86}, {"time": 4068, "pitch": 53, "duration": 11, "velocity": 84}, {"time": 4068, "pitch": 57, "duration": 6, "velocity": 80}, {"time": 4074, "pitch": 48, "duration": 8, "velocity": 76}, {"time": 4080, "pitch": 57, "duration": 6, "velocity": 88}, {"time": 4080, "pitch": 60, "duration": 8, "velocity": 87}, {"time": 4080, "pitch": 65, "duration": 9, "velocity": 82}, {"time": 4086, "pitch": 41, "duration": 3, "velocity": 85}, {"time": 4089, "pitch": 53, "duration": 2, "velocity": 89}, {"time": 4092, "pitch": 46, "duration": 14, "velocity": 83}, {"time": 4092, "pitch": 58, "duration": 7, "velocity": 86}, {"time": 4098, "pitch": 53, "duration": 5, "velocity": 85}, {"time": 4104, "pitch": 58, "duration": 7, "velocity": 86}, {"time": 4104, "pitch": 62, "duration": 7, "velocity": 85}, {"time": 4110, "pitch": 53, "duration": 2, "velocity": 87}, {"time": 4116, "pitch": 48, "duration": 14, "velocity": 86}, {"time": 4116, "pitch": 55, "duration": 2, "velocity": 85}, {"time": 4116, "pitch": 60, "duration": 4, "velocity": 84}, {"time": 4119, "pitch": 55, "duration": 4, "velocity": 85}, {"time": 4122, "pitch": 60, "duration": 3, "velocity": 84}, {"time": 4125, "pitch": 62, "duration": 3, "velocity": 86}, {"time": 4128, "pitch": 60, "duration": 3, "velocity": 95}, {"time": 4131, "pitch": 55, "duration": 3, "velocity": 100}, {"time": 4134, "pitch": 48, "duration": 5, "velocity": 93}, {"time": 4137, "pitch": 55, "duration": 3, "velocity": 93}, {"time": 4140, "pitch": 41, "duration": 20, "velocity": 82}, {"time": 4140, "pitch": 57, "duration": 9, "velocity": 74}, {"time": 4146, "pitch": 48, "duration": 13, "velocity": 71}, {"time": 4152, "pitch": 53, "duration": 2, "velocity": 78}, {"time": 4152, "pitch": 60, "duration": 21, "velocity": 84}, {"time": 4164, "pitch": 38, "duration": 14, "velocity": 86}, {"time": 4170, "pitch": 50, "duration": 7, "velocity": 76}, {"time": 4176, "pitch": 53, "duration": 2, "velocity": 73}, {"time": 4176, "pitch": 57, "duration": 3, "velocity": 74}, {"time": 4188, "pitch": 46, "duration": 22, "velocity": 85}, {"time": 4194, "pitch": 53, "duration": 7, "velocity": 82}, {"time": 4200, "pitch": 58, "duration": 7, "velocity": 71}, {"time": 4200, "pitch": 62, "duration": 13, "velocity": 84}, {"time": 4206, "pitch": 53, "duration": 3, "velocity": 78}, {"time": 4212, "pitch": 48, "duration": 23, "velocity": 84}, {"time": 4212, "pitch": 60, "duration": 10, "velocity": 81}, {"time": 4218, "pitch": 55, "duration": 7, "velocity": 77}, {"time": 4224, "pitch": 60, "duration": 11, "velocity": 80}, {"time": 4224, "pitch": 64, "duration": 11, "velocity": 83}, {"time": 4236, "pitch": 41, "duration": 20, "velocity": 82}, {"time": 4236, "pitch": 57, "duration": 9, "velocity": 74}, {"time": 4242, "pitch": 48, "duration": 13, "velocity": 71}, {"time": 4248, "pitch": 53, "duration": 2, "velocity": 78}, {"time": 4248, "pitch": 60, "duration": 21, "velocity": 84}, {"time": 4260, "pitch": 38, "duration": 14, "velocity": 86}, {"time": 4266, "pitch": 50, "duration": 7, "velocity": 76}, {"time": 4272, "pitch": 53, "duration": 2, "velocity": 73}, {"time": 4272, "pitch": 57, "duration": 3, "velocity": 74}, {"time": 4284, "pitch": 46, "duration": 22, "velocity": 85}, {"time": 4290, "pitch": 53, "duration": 7, "velocity": 82}, {"time": 4296, "pitch": 58, "duration": 7, "velocity": 71}, {"time": 4296, "pitch": 62, "duration": 13, "velocity": 84}, {"time": 4302, "pitch": 53, "duration": 3, "velocity": 78}, {"time": 4308, "pitch": 48, "duration": 23, "velocity": 84}, {"time": 4308, "pitch": 60, "duration": 10, "velocity": 81}, {"time": 4314, "pitch": 55, "duration": 7, "velocity": 77}, {"time": 4320, "pitch": 60, "duration": 11, "velocity": 80}, {"time": 4320, "pitch": 64, "duration": 11, "velocity": 83}, {"time": 4332, "pitch": 41, "duration": 38, "velocity": 68}, {"time": 4332, "pitch": 53, "duration": 37, "velocity": 64}, {"time": 4332, "pitch": 57, "duration": 37, "velocity": 69}], "annotations": [{"time": 11, "annotation": {"number": 64, "value": 127}, "group": "control_change"}, {"time": 35, "annotation": {"number": 64, "value": 0}, "group": "control_change"}, {"time": 38, "annotation": {"number": 64, "value": 127}, "group": "control_change"}, {"time": 58, "annotation": {"number": 64, "value": 0}, "group": "control_change"}, {"time": 61, "annotation": {"number": 64, "value": 127}, "group": "control_change"}, {"time": 84, "annotation": {"number": 64, "value": 0}, "group": "control_change"}, {"time": 89, "annotation": {"number": 64, "value": 127}, "group": "control_change"}, {"time": 108, "annotation": {"number": 64, "value": 0}, "group": "control_change"}, {"time": 111, "annotation": {"number": 64, "value": 127}, "group": "control_change"}, {"time": 132, "annotation": {"number": 64, "value": 0}, "group": "control_change"}, {"time": 132, "annotation": {"number": 64, "value": 127}, "group": "control_change"}, {"time": 155, "annotation": {"number": 64, "value": 0}, "group": "control_change"}, {"time": 158, "annotation": {"number": 64, "value": 127}, "group": "control_change"}, {"time": 203, "annotation": {"number": 64, "value": 0}, "group": "control_change"}, {"time": 204, "annotation": {"number": 64, "value": 127}, "group": "control_change"}, {"time": 227, "annotation": {"number": 64, "value": 0}, "group": "control_change"}, {"time": 231, "annotation": {"number": 64, "value": 127}, "group": "control_change"}, {"time": 251, "annotation": {"number": 64, "value": 0}, "group": "control_change"}, {"time": 254, "annotation": {"number": 64, "value": 127}, "group": "control_change"}, {"time": 274, "annotation": {"number": 64, "value": 0}, "group": "control_change"}, {"time": 279, "annotation": {"number": 64, "value": 127}, "group": "control_change"}, {"time": 298, "annotation": {"number": 64, "value": 0}, "group": "control_change"}, {"time": 304, "annotation": {"number": 64, "value": 127}, "group": "control_change"}, {"time": 346, "annotation": {"number": 64, "value": 0}, "group": "control_change"}, {"time": 351, "annotation": {"number": 64, "value": 127}, "group": "control_change"}, {"time": 394, "annotation": {"number": 64, "value": 0}, "group": "control_change"}, {"time": 396, "annotation": {"number": 64, "value": 127}, "group": "control_change"}, {"time": 418, "annotation": {"number": 64, "value": 0}, "group": "control_change"}, {"time": 421, "annotation": {"number": 64, "value": 127}, "group": "control_change"}, {"time": 442, "annotation": {"number": 64, "value": 0}, "group": "control_change"}, {"time": 445, "annotation": {"number": 64, "value": 127}, "group": "control_change"}, {"time": 491, "annotation": {"number": 64, "value": 0}, "group": "control_change"}, {"time": 492, "annotation": {"number": 64, "value": 127}, "group": "control_change"}, {"time": 514, "annotation": {"number": 64, "value": 0}, "group": "control_change"}, {"time": 516, "annotation": {"number": 64, "value": 127}, "group": "control_change"}, {"time": 539, "annotation": {"number": 64, "value": 0}, "group": "control_change"}, {"time": 542, "annotation": {"number": 64, "value": 127}, "group": "control_change"}, {"time": 565, "annotation": {"number": 64, "value": 0}, "group": "control_change"}, {"time": 567, "annotation": {"number": 64, "value": 127}, "group": "control_change"}, {"time": 587, "annotation": {"number": 64, "value": 0}, "group": "control_change"}, {"time": 592, "annotation": {"number": 64, "value": 127}, "group": "control_change"}, {"time": 611, "annotation": {"number": 64, "value": 0}, "group": "control_change"}, {"time": 613, "annotation": {"number": 64, "value": 127}, "group": "control_change"}, {"time": 634, "annotation": {"number": 64, "value": 0}, "group": "control_change"}, {"time": 636, "annotation": {"number": 64, "value": 127}, "group": "control_change"}, {"time": 658, "annotation": {"number": 64, "value": 0}, "group": "control_change"}, {"time": 660, "annotation": {"number": 64, "value": 127}, "group": "control_change"}, {"time": 681, "annotation": {"number": 64, "value": 0}, "group": "control_change"}, {"time": 688, "annotation": {"number": 64, "value": 127}, "group": "control_change"}, {"time": 730, "annotation": {"number": 64, "value": 0}, "group": "control_change"}, {"time": 735, "annotation": {"number": 64, "value": 127}, "group": "control_change"}, {"time": 778, "annotation": {"number": 64, "value": 0}, "group": "control_change"}, {"time": 780, "annotation": {"number": 64, "value": 127}, "group": "control_change"}, {"time": 802, "annotation": {"number": 64, "value": 0}, "group": "control_change"}, {"time": 805, "annotation": {"number": 64, "value": 127}, "group": "control_change"}, {"time": 826, "annotation": {"number": 64, "value": 0}, "group": "control_change"}, {"time": 829, "annotation": {"number": 64, "value": 127}, "group": "control_change"}, {"time": 875, "annotation": {"number": 64, "value": 0}, "group": "control_change"}, {"time": 876, "annotation": {"number": 64, "value": 127}, "group": "control_change"}, {"time": 898, "annotation": {"number": 64, "value": 0}, "group": "control_change"}, {"time": 900, "annotation": {"number": 64, "value": 127}, "group": "control_change"}, {"time": 923, "annotation": {"number": 64, "value": 0}, "group": "control_change"}, {"time": 926, "annotation": {"number": 64, "value": 127}, "group": "control_change"}, {"time": 949, "annotation": {"number": 64, "value": 0}, "group": "control_change"}, {"time": 951, "annotation": {"number": 64, "value": 127}, "group": "control_change"}, {"time": 971, "annotation": {"number": 64, "value": 0}, "group": "control_change"}, {"time": 976, "annotation": {"number": 64, "value": 127}, "group": "control_change"}, {"time": 995, "annotation": {"number": 64, "value": 0}, "group": "control_change"}, {"time": 997, "annotation": {"number": 64, "value": 127}, "group": "control_change"}, {"time": 1018, "annotation": {"number": 64, "value": 0}, "group": "control_change"}, {"time": 1020, "annotation": {"number": 64, "value": 127}, "group": "control_change"}, {"time": 1042, "annotation": {"number": 64, "value": 0}, "group": "control_change"}, {"time": 1044, "annotation": {"number": 64, "value": 127}, "group": "control_change"}, {"time": 1065, "annotation": {"number": 64, "value": 0}, "group": "control_change"}, {"time": 1068, "annotation": {"number": 64, "value": 127}, "group": "control_change"}, {"time": 1090, "annotation": {"number": 64, "value": 0}, "group": "control_change"}, {"time": 1092, "annotation": {"number": 64, "value": 127}, "group": "control_change"}, {"time": 1114, "annotation": {"number": 64, "value": 0}, "group": "control_change"}, {"time": 1115, "annotation": {"number": 64, "value": 127}, "group": "control_change"}, {"time": 1138, "annotation": {"number": 64, "value": 0}, "group": "control_change"}, {"time": 1140, "annotation": {"number": 64, "value": 127}, "group": "control_change"}, {"time": 1162, "annotation": {"number": 64, "value": 0}, "group": "control_change"}, {"time": 1164, "annotation": {"number": 64, "value": 127}, "group": "control_change"}, {"time": 1187, "annotation": {"number": 64, "value": 0}, "group": "control_change"}, {"time": 1190, "annotation": {"number": 64, "value": 127}, "group": "control_change"}, {"time": 1210, "annotation": {"number": 64, "value": 0}, "group": "control_change"}, {"time": 1212, "annotation": {"number": 64, "value": 127}, "group": "control_change"}, {"time": 1234, "annotation": {"number": 64, "value": 0}, "group": "control_change"}, {"time": 1235, "annotation": {"number": 64, "value": 127}, "group": "control_change"}, {"time": 1260, "annotation": {"number": 64, "value": 0}, "group": "control_change"}, {"time": 1262, "annotation": {"number": 64, "value": 127}, "group": "control_change"}, {"time": 1282, "annotation": {"number": 64, "value": 0}, "group": "control_change"}, {"time": 1284, "annotation": {"number": 64, "value": 127}, "group": "control_change"}, {"time": 1306, "annotation": {"number": 64, "value": 0}, "group": "control_change"}, {"time": 1307, "annotation": {"number": 64, "value": 127}, "group": "control_change"}, {"time": 1330, "annotation": {"number": 64, "value": 0}, "group": "control_change"}, {"time": 1332, "annotation": {"number": 64, "value": 127}, "group": "control_change"}, {"time": 1354, "annotation": {"number": 64, "value": 0}, "group": "control_change"}, {"time": 1356, "annotation": {"number": 64, "value": 127}, "group": "control_change"}, {"time": 1379, "annotation": {"number": 64, "value": 0}, "group": "control_change"}, {"time": 1381, "annotation": {"number": 64, "value": 127}, "group": "control_change"}, {"time": 1402, "annotation": {"number": 64, "value": 0}, "group": "control_change"}, {"time": 1404, "annotation": {"number": 64, "value": 127}, "group": "control_change"}, {"time": 1426, "annotation": {"number": 64, "value": 0}, "group": "control_change"}, {"time": 1428, "annotation": {"number": 64, "value": 127}, "group": "control_change"}, {"time": 1449, "annotation": {"number": 64, "value": 0}, "group": "control_change"}, {"time": 1452, "annotation": {"number": 64, "value": 127}, "group": "control_change"}, {"time": 1474, "annotation": {"number": 64, "value": 0}, "group": "control_change"}, {"time": 1476, "annotation": {"number": 64, "value": 127}, "group": "control_change"}, {"time": 1498, "annotation": {"number": 64, "value": 0}, "group": "control_change"}, {"time": 1499, "annotation": {"number": 64, "value": 127}, "group": "control_change"}, {"time": 1522, "annotation": {"number": 64, "value": 0}, "group": "control_change"}, {"time": 1524, "annotation": {"number": 64, "value": 127}, "group": "control_change"}, {"time": 1546, "annotation": {"number": 64, "value": 0}, "group": "control_change"}, {"time": 1548, "annotation": {"number": 64, "value": 127}, "group": "control_change"}, {"time": 1571, "annotation": {"number": 64, "value": 0}, "group": "control_change"}, {"time": 1574, "annotation": {"number": 64, "value": 127}, "group": "control_change"}, {"time": 1594, "annotation": {"number": 64, "value": 0}, "group": "control_change"}, {"time": 1596, "annotation": {"number": 64, "value": 127}, "group": "control_change"}, {"time": 1618, "annotation": {"number": 64, "value": 0}, "group": "control_change"}, {"time": 1619, "annotation": {"number": 64, "value": 127}, "group": "control_change"}, {"time": 1644, "annotation": {"number": 64, "value": 0}, "group": "control_change"}, {"time": 1646, "annotation": {"number": 64, "value": 127}, "group": "control_change"}, {"time": 1666, "annotation": {"number": 64, "value": 0}, "group": "control_change"}, {"time": 1668, "annotation": {"number": 64, "value": 127}, "group": "control_change"}, {"time": 1690, "annotation": {"number": 64, "value": 0}, "group": "control_change"}, {"time": 1691, "annotation": {"number": 64, "value": 127}, "group": "control_change"}, {"time": 1714, "annotation": {"number": 64, "value": 0}, "group": "control_change"}, {"time": 1716, "annotation": {"number": 64, "value": 127}, "group": "control_change"}, {"time": 1738, "annotation": {"number": 64, "value": 0}, "group": "control_change"}, {"time": 1740, "annotation": {"number": 64, "value": 127}, "group": "control_change"}, {"time": 1763, "annotation": {"number": 64, "value": 0}, "group": "control_change"}, {"time": 1765, "annotation": {"number": 64, "value": 127}, "group": "control_change"}, {"time": 1786, "annotation": {"number": 64, "value": 0}, "group": "control_change"}, {"time": 1788, "annotation": {"number": 64, "value": 127}, "group": "control_change"}, {"time": 1810, "annotation": {"number": 64, "value": 0}, "group": "control_change"}, {"time": 1812, "annotation": {"number": 64, "value": 127}, "group": "control_change"}, {"time": 1833, "annotation": {"number": 64, "value": 0}, "group": "control_change"}, {"time": 1859, "annotation": {"number": 64, "value": 0}, "group": "control_change"}, {"time": 1862, "annotation": {"number": 64, "value": 127}, "group": "control_change"}, {"time": 1882, "annotation": {"number": 64, "value": 0}, "group": "control_change"}, {"time": 1885, "annotation": {"number": 64, "value": 127}, "group": "control_change"}, {"time": 1908, "annotation": {"number": 64, "value": 0}, "group": "control_change"}, {"time": 1913, "annotation": {"number": 64, "value": 127}, "group": "control_change"}, {"time": 1932, "annotation": {"number": 64, "value": 0}, "group": "control_change"}, {"time": 1935, "annotation": {"number": 64, "value": 127}, "group": "control_change"}, {"time": 1956, "annotation": {"number": 64, "value": 0}, "group": "control_change"}, {"time": 1956, "annotation": {"number": 64, "value": 127}, "group": "control_change"}, {"time": 1979, "annotation": {"number": 64, "value": 0}, "group": "control_change"}, {"time": 1982, "annotation": {"number": 64, "value": 127}, "group": "control_change"}, {"time": 2027, "annotation": {"number": 64, "value": 0}, "group": "control_change"}, {"time": 2028, "annotation": {"number": 64, "value": 127}, "group": "control_change"}, {"time": 2051, "annotation": {"number": 64, "value": 0}, "group": "control_change"}, {"time": 2055, "annotation": {"number": 64, "value": 127}, "group": "control_change"}, {"time": 2075, "annotation": {"number": 64, "value": 0}, "group": "control_change"}, {"time": 2078, "annotation": {"number": 64, "value": 127}, "group": "control_change"}, {"time": 2098, "annotation": {"number": 64, "value": 0}, "group": "control_change"}, {"time": 2103, "annotation": {"number": 64, "value": 127}, "group": "control_change"}, {"time": 2122, "annotation": {"number": 64, "value": 0}, "group": "control_change"}, {"time": 2124, "annotation": {"number": 64, "value": 127}, "group": "control_change"}, {"time": 2146, "annotation": {"number": 64, "value": 0}, "group": "control_change"}, {"time": 2149, "annotation": {"number": 64, "value": 127}, "group": "control_change"}, {"time": 2171, "annotation": {"number": 64, "value": 0}, "group": "control_change"}, {"time": 2173, "annotation": {"number": 64, "value": 127}, "group": "control_change"}, {"time": 2194, "annotation": {"number": 64, "value": 0}, "group": "control_change"}, {"time": 2196, "annotation": {"number": 64, "value": 127}, "group": "control_change"}, {"time": 2216, "annotation": {"number": 64, "value": 0}, "group": "control_change"}, {"time": 2224, "annotation": {"number": 64, "value": 127}, "group": "control_change"}, {"time": 2266, "annotation": {"number": 64, "value": 0}, "group": "control_change"}, {"time": 2271, "annotation": {"number": 64, "value": 127}, "group": "control_change"}, {"time": 2314, "annotation": {"number": 64, "value": 0}, "group": "control_change"}, {"time": 2316, "annotation": {"number": 64, "value": 127}, "group": "control_change"}, {"time": 2338, "annotation": {"number": 64, "value": 0}, "group": "control_change"}, {"time": 2341, "annotation": {"number": 64, "value": 127}, "group": "control_change"}, {"time": 2362, "annotation": {"number": 64, "value": 0}, "group": "control_change"}, {"time": 2365, "annotation": {"number": 64, "value": 127}, "group": "control_change"}, {"time": 2411, "annotation": {"number": 64, "value": 0}, "group": "control_change"}, {"time": 2412, "annotation": {"number": 64, "value": 127}, "group": "control_change"}, {"time": 2434, "annotation": {"number": 64, "value": 0}, "group": "control_change"}, {"time": 2436, "annotation": {"number": 64, "value": 127}, "group": "control_change"}, {"time": 2459, "annotation": {"number": 64, "value": 0}, "group": "control_change"}, {"time": 2462, "annotation": {"number": 64, "value": 127}, "group": "control_change"}, {"time": 2485, "annotation": {"number": 64, "value": 0}, "group": "control_change"}, {"time": 2487, "annotation": {"number": 64, "value": 127}, "group": "control_change"}, {"time": 2507, "annotation": {"number": 64, "value": 0}, "group": "control_change"}, {"time": 2512, "annotation": {"number": 64, "value": 127}, "group": "control_change"}, {"time": 2531, "annotation": {"number": 64, "value": 0}, "group": "control_change"}, {"time": 2533, "annotation": {"number": 64, "value": 127}, "group": "control_change"}, {"time": 2554, "annotation": {"number": 64, "value": 0}, "group": "control_change"}, {"time": 2556, "annotation": {"number": 64, "value": 127}, "group": "control_change"}, {"time": 2578, "annotation": {"number": 64, "value": 0}, "group": "control_change"}, {"time": 2580, "annotation": {"number": 64, "value": 127}, "group": "control_change"}, {"time": 2601, "annotation": {"number": 64, "value": 0}, "group": "control_change"}, {"time": 2604, "annotation": {"number": 64, "value": 127}, "group": "control_change"}, {"time": 2626, "annotation": {"number": 64, "value": 0}, "group": "control_change"}, {"time": 2628, "annotation": {"number": 64, "value": 127}, "group": "control_change"}, {"time": 2650, "annotation": {"number": 64, "value": 0}, "group": "control_change"}, {"time": 2651, "annotation": {"number": 64, "value": 127}, "group": "control_change"}, {"time": 2674, "annotation": {"number": 64, "value": 0}, "group": "control_change"}, {"time": 2676, "annotation": {"number": 64, "value": 127}, "group": "control_change"}, {"time": 2698, "annotation": {"number": 64, "value": 0}, "group": "control_change"}, {"time": 2700, "annotation": {"number": 64, "value": 127}, "group": "control_change"}, {"time": 2723, "annotation": {"number": 64, "value": 0}, "group": "control_change"}, {"time": 2726, "annotation": {"number": 64, "value": 127}, "group": "control_change"}, {"time": 2746, "annotation": {"number": 64, "value": 0}, "group": "control_change"}, {"time": 2748, "annotation": {"number": 64, "value": 127}, "group": "control_change"}, {"time": 2770, "annotation": {"number": 64, "value": 0}, "group": "control_change"}, {"time": 2771, "annotation": {"number": 64, "value": 127}, "group": "control_change"}, {"time": 2796, "annotation": {"number": 64, "value": 0}, "group": "control_change"}, {"time": 2798, "annotation": {"number": 64, "value": 127}, "group": "control_change"}, {"time": 2818, "annotation": {"number": 64, "value": 0}, "group": "control_change"}, {"time": 2820, "annotation": {"number": 64, "value": 127}, "group": "control_change"}, {"time": 2842, "annotation": {"number": 64, "value": 0}, "group": "control_change"}, {"time": 2843, "annotation": {"number": 64, "value": 127}, "group": "control_change"}, {"time": 2866, "annotation": {"number": 64, "value": 0}, "group": "control_change"}, {"time": 2868, "annotation": {"number": 64, "value": 127}, "group": "control_change"}, {"time": 2890, "annotation": {"number": 64, "value": 0}, "group": "control_change"}, {"time": 2892, "annotation": {"number": 64, "value": 127}, "group": "control_change"}, {"time": 2915, "annotation": {"number": 64, "value": 0}, "group": "control_change"}, {"time": 2917, "annotation": {"number": 64, "value": 127}, "group": "control_change"}, {"time": 2938, "annotation": {"number": 64, "value": 0}, "group": "control_change"}, {"time": 2940, "annotation": {"number": 64, "value": 127}, "group": "control_change"}, {"time": 2962, "annotation": {"number": 64, "value": 0}, "group": "control_change"}, {"time": 2964, "annotation": {"number": 64, "value": 127}, "group": "control_change"}, {"time": 2985, "annotation": {"number": 64, "value": 0}, "group": "control_change"}, {"time": 2988, "annotation": {"number": 64, "value": 127}, "group": "control_change"}, {"time": 3010, "annotation": {"number": 64, "value": 0}, "group": "control_change"}, {"time": 3012, "annotation": {"number": 64, "value": 127}, "group": "control_change"}, {"time": 3034, "annotation": {"number": 64, "value": 0}, "group": "control_change"}, {"time": 3035, "annotation": {"number": 64, "value": 127}, "group": "control_change"}, {"time": 3058, "annotation": {"number": 64, "value": 0}, "group": "control_change"}, {"time": 3060, "annotation": {"number": 64, "value": 127}, "group": "control_change"}, {"time": 3082, "annotation": {"number": 64, "value": 0}, "group": "control_change"}, {"time": 3084, "annotation": {"number": 64, "value": 127}, "group": "control_change"}, {"time": 3107, "annotation": {"number": 64, "value": 0}, "group": "control_change"}, {"time": 3110, "annotation": {"number": 64, "value": 127}, "group": "control_change"}, {"time": 3130, "annotation": {"number": 64, "value": 0}, "group": "control_change"}, {"time": 3132, "annotation": {"number": 64, "value": 127}, "group": "control_change"}, {"time": 3154, "annotation": {"number": 64, "value": 0}, "group": "control_change"}, {"time": 3155, "annotation": {"number": 64, "value": 127}, "group": "control_change"}, {"time": 3180, "annotation": {"number": 64, "value": 0}, "group": "control_change"}, {"time": 3182, "annotation": {"number": 64, "value": 127}, "group": "control_change"}, {"time": 3202, "annotation": {"number": 64, "value": 0}, "group": "control_change"}, {"time": 3204, "annotation": {"number": 64, "value": 127}, "group": "control_change"}, {"time": 3226, "annotation": {"number": 64, "value": 0}, "group": "control_change"}, {"time": 3227, "annotation": {"number": 64, "value": 127}, "group": "control_change"}, {"time": 3250, "annotation": {"number": 64, "value": 0}, "group": "control_change"}, {"time": 3252, "annotation": {"number": 64, "value": 127}, "group": "control_change"}, {"time": 3274, "annotation": {"number": 64, "value": 0}, "group": "control_change"}, {"time": 3276, "annotation": {"number": 64, "value": 127}, "group": "control_change"}, {"time": 3299, "annotation": {"number": 64, "value": 0}, "group": "control_change"}, {"time": 3301, "annotation": {"number": 64, "value": 127}, "group": "control_change"}, {"time": 3322, "annotation": {"number": 64, "value": 0}, "group": "control_change"}, {"time": 3324, "annotation": {"number": 64, "value": 127}, "group": "control_change"}, {"time": 3346, "annotation": {"number": 64, "value": 0}, "group": "control_change"}, {"time": 3348, "annotation": {"number": 64, "value": 127}, "group": "control_change"}, {"time": 3369, "annotation": {"number": 64, "value": 0}, "group": "control_change"}, {"time": 3372, "annotation": {"number": 64, "value": 127}, "group": "control_change"}, {"time": 3394, "annotation": {"number": 64, "value": 0}, "group": "control_change"}, {"time": 3396, "annotation": {"number": 64, "value": 127}, "group": "control_change"}, {"time": 3418, "annotation": {"number": 64, "value": 0}, "group": "control_change"}, {"time": 3419, "annotation": {"number": 64, "value": 127}, "group": "control_change"}, {"time": 3442, "annotation": {"number": 64, "value": 0}, "group": "control_change"}, {"time": 3444, "annotation": {"number": 64, "value": 127}, "group": "control_change"}, {"time": 3466, "annotation": {"number": 64, "value": 0}, "group": "control_change"}, {"time": 3468, "annotation": {"number": 64, "value": 127}, "group": "control_change"}, {"time": 3491, "annotation": {"number": 64, "value": 0}, "group": "control_change"}, {"time": 3494, "annotation": {"number": 64, "value": 127}, "group": "control_change"}, {"time": 3514, "annotation": {"number": 64, "value": 0}, "group": "control_change"}, {"time": 3516, "annotation": {"number": 64, "value": 127}, "group": "control_change"}, {"time": 3538, "annotation": {"number": 64, "value": 0}, "group": "control_change"}, {"time": 3539, "annotation": {"number": 64, "value": 127}, "group": "control_change"}, {"time": 3564, "annotation": {"number": 64, "value": 0}, "group": "control_change"}, {"time": 3566, "annotation": {"number": 64, "value": 127}, "group": "control_change"}, {"time": 3586, "annotation": {"number": 64, "value": 0}, "group": "control_change"}, {"time": 3588, "annotation": {"number": 64, "value": 127}, "group": "control_change"}, {"time": 3610, "annotation": {"number": 64, "value": 0}, "group": "control_change"}, {"time": 3611, "annotation": {"number": 64, "value": 127}, "group": "control_change"}, {"time": 3634, "annotation": {"number": 64, "value": 0}, "group": "control_change"}, {"time": 3636, "annotation": {"number": 64, "value": 127}, "group": "control_change"}, {"time": 3658, "annotation": {"number": 64, "value": 0}, "group": "control_change"}, {"time": 3660, "annotation": {"number": 64, "value": 127}, "group": "control_change"}, {"time": 3683, "annotation": {"number": 64, "value": 0}, "group": "control_change"}, {"time": 3685, "annotation": {"number": 64, "value": 127}, "group": "control_change"}, {"time": 3706, "annotation": {"number": 64, "value": 0}, "group": "control_change"}, {"time": 3708, "annotation": {"number": 64, "value": 127}, "group": "control_change"}, {"time": 3730, "annotation": {"number": 64, "value": 0}, "group": "control_change"}, {"time": 3732, "annotation": {"number": 64, "value": 127}, "group": "control_change"}, {"time": 3753, "annotation": {"number": 64, "value": 0}, "group": "control_change"}, {"time": 3756, "annotation": {"number": 64, "value": 127}, "group": "control_change"}, {"time": 3778, "annotation": {"number": 64, "value": 0}, "group": "control_change"}, {"time": 3780, "annotation": {"number": 64, "value": 127}, "group": "control_change"}, {"time": 3802, "annotation": {"number": 64, "value": 0}, "group": "control_change"}, {"time": 3803, "annotation": {"number": 64, "value": 127}, "group": "control_change"}, {"time": 3826, "annotation": {"number": 64, "value": 0}, "group": "control_change"}, {"time": 3828, "annotation": {"number": 64, "value": 127}, "group": "control_change"}, {"time": 3850, "annotation": {"number": 64, "value": 0}, "group": "control_change"}, {"time": 3852, "annotation": {"number": 64, "value": 127}, "group": "control_change"}, {"time": 3875, "annotation": {"number": 64, "value": 0}, "group": "control_change"}, {"time": 3878, "annotation": {"number": 64, "value": 127}, "group": "control_change"}, {"time": 3898, "annotation": {"number": 64, "value": 0}, "group": "control_change"}, {"time": 3900, "annotation": {"number": 64, "value": 127}, "group": "control_change"}, {"time": 3922, "annotation": {"number": 64, "value": 0}, "group": "control_change"}, {"time": 3923, "annotation": {"number": 64, "value": 127}, "group": "control_change"}, {"time": 3948, "annotation": {"number": 64, "value": 0}, "group": "control_change"}, {"time": 3950, "annotation": {"number": 64, "value": 127}, "group": "control_change"}, {"time": 3970, "annotation": {"number": 64, "value": 0}, "group": "control_change"}, {"time": 3972, "annotation": {"number": 64, "value": 127}, "group": "control_change"}, {"time": 3994, "annotation": {"number": 64, "value": 0}, "group": "control_change"}, {"time": 3995, "annotation": {"number": 64, "value": 127}, "group": "control_change"}, {"time": 4018, "annotation": {"number": 64, "value": 0}, "group": "control_change"}, {"time": 4020, "annotation": {"number": 64, "value": 127}, "group": "control_change"}, {"time": 4042, "annotation": {"number": 64, "value": 0}, "group": "control_change"}, {"time": 4044, "annotation": {"number": 64, "value": 127}, "group": "control_change"}, {"time": 4067, "annotation": {"number": 64, "value": 0}, "group": "control_change"}, {"time": 4069, "annotation": {"number": 64, "value": 127}, "group": "control_change"}, {"time": 4090, "annotation": {"number": 64, "value": 0}, "group": "control_change"}, {"time": 4092, "annotation": {"number": 64, "value": 127}, "group": "control_change"}, {"time": 4114, "annotation": {"number": 64, "value": 0}, "group": "control_change"}, {"time": 4116, "annotation": {"number": 64, "value": 127}, "group": "control_change"}, {"time": 4137, "annotation": {"number": 64, "value": 0}, "group": "control_change"}, {"time": 4163, "annotation": {"number": 64, "value": 0}, "group": "control_change"}, {"time": 4167, "annotation": {"number": 64, "value": 127}, "group": "control_change"}, {"time": 4188, "annotation": {"number": 64, "value": 0}, "group": "control_change"}, {"time": 4190, "annotation": {"number": 64, "value": 127}, "group": "control_change"}, {"time": 4211, "annotation": {"number": 64, "value": 0}, "group": "control_change"}, {"time": 4217, "annotation": {"number": 64, "value": 127}, "group": "control_change"}, {"time": 4232, "annotation": {"number": 64, "value": 0}, "group": "control_change"}, {"time": 4259, "annotation": {"number": 64, "value": 0}, "group": "control_change"}, {"time": 4263, "annotation": {"number": 64, "value": 127}, "group": "control_change"}, {"time": 4284, "annotation": {"number": 64, "value": 0}, "group": "control_change"}, {"time": 4286, "annotation": {"number": 64, "value": 127}, "group": "control_change"}, {"time": 4307, "annotation": {"number": 64, "value": 0}, "group": "control_change"}, {"time": 4313, "annotation": {"number": 64, "value": 127}, "group": "control_change"}, {"time": 4328, "annotation": {"number": 64, "value": 0}, "group": "control_change"}]}]}