{"metadata": {"schema_version": "0.2", "title": "None", "source_filename": "816.mid", "source_format": "midi"}, "resolution": 12, "tempos": [{"time": 0, "qpm": 63.000063000063}, {"time": 204, "qpm": 63.20007246941643}, {"time": 383, "qpm": 64.0}, {"time": 396, "qpm": 63.20007246941643}, {"time": 504, "qpm": 63.000063000063}, {"time": 614, "qpm": 62.600029630680694}, {"time": 860, "qpm": 62.20001451333672}, {"time": 899, "qpm": 62.600029630680694}, {"time": 911, "qpm": 62.90007065774604}, {"time": 924, "qpm": 63.50005979588964}, {"time": 948, "qpm": 64.0}, {"time": 1049, "qpm": 64.30006697923643}, {"time": 1092, "qpm": 64.70007203274686}, {"time": 1308, "qpm": 64.40007041074365}, {"time": 1574, "qpm": 64.8000648000648}, {"time": 1621, "qpm": 65.09999902350002}, {"time": 1643, "qpm": 65.40001373400288}, {"time": 1944, "qpm": 65.700000657}, {"time": 1994, "qpm": 65.40001373400288}, {"time": 2004, "qpm": 65.00013541694878}, {"time": 2030, "qpm": 64.90001611683734}, {"time": 2249, "qpm": 64.50010803768096}, {"time": 2289, "qpm": 64.30006697923643}, {"time": 2311, "qpm": 64.0}, {"time": 2320, "qpm": 63.600082680107484}, {"time": 2326, "qpm": 63.30008672111881}, {"time": 2332, "qpm": 62.80000083733334}, {"time": 2352, "qpm": 62.5}], "time_signatures": [{"time": 0, "numerator": 1, "denominator": 4}], "tracks": [{"program": 0, "is_drum": false, "name": "MELODY", "notes": [{"time": 186, "pitch": 62, "duration": 6, "velocity": 84}, {"time": 192, "pitch": 64, "duration": 4, "velocity": 86}, {"time": 198, "pitch": 71, "duration": 5, "velocity": 86}, {"time": 204, "pitch": 71, "duration": 25, "velocity": 87}, {"time": 234, "pitch": 71, "duration": 3, "velocity": 89}, {"time": 237, "pitch": 74, "duration": 2, "velocity": 88}, {"time": 240, "pitch": 74, "duration": 3, "velocity": 87}, {"time": 243, "pitch": 71, "duration": 4, "velocity": 86}, {"time": 246, "pitch": 76, "duration": 6, "velocity": 87}, {"time": 252, "pitch": 74, "duration": 7, "velocity": 87}, {"time": 258, "pitch": 71, "duration": 21, "velocity": 84}, {"time": 282, "pitch": 69, "duration": 3, "velocity": 86}, {"time": 285, "pitch": 71, "duration": 4, "velocity": 81}, {"time": 288, "pitch": 69, "duration": 4, "velocity": 89}, {"time": 291, "pitch": 67, "duration": 4, "velocity": 82}, {"time": 294, "pitch": 69, "duration": 7, "velocity": 88}, {"time": 300, "pitch": 71, "duration": 3, "velocity": 85}, {"time": 303, "pitch": 69, "duration": 24, "velocity": 85}, {"time": 330, "pitch": 64, "duration": 3, "velocity": 91}, {"time": 333, "pitch": 67, "duration": 2, "velocity": 79}, {"time": 336, "pitch": 67, "duration": 3, "velocity": 81}, {"time": 339, "pitch": 64, "duration": 4, "velocity": 88}, {"time": 342, "pitch": 69, "duration": 6, "velocity": 87}, {"time": 348, "pitch": 71, "duration": 4, "velocity": 81}, {"time": 351, "pitch": 69, "duration": 4, "velocity": 74}, {"time": 354, "pitch": 71, "duration": 22, "velocity": 85}, {"time": 378, "pitch": 62, "duration": 4, "velocity": 88}, {"time": 381, "pitch": 64, "duration": 9, "velocity": 89}, {"time": 390, "pitch": 71, "duration": 6, "velocity": 81}, {"time": 396, "pitch": 71, "duration": 18, "velocity": 82}, {"time": 426, "pitch": 71, "duration": 3, "velocity": 94}, {"time": 429, "pitch": 74, "duration": 2, "velocity": 88}, {"time": 432, "pitch": 74, "duration": 3, "velocity": 89}, {"time": 435, "pitch": 71, "duration": 3, "velocity": 87}, {"time": 438, "pitch": 76, "duration": 6, "velocity": 88}, {"time": 444, "pitch": 74, "duration": 4, "velocity": 88}, {"time": 447, "pitch": 71, "duration": 3, "velocity": 86}, {"time": 450, "pitch": 74, "duration": 21, "velocity": 87}, {"time": 474, "pitch": 69, "duration": 4, "velocity": 83}, {"time": 477, "pitch": 71, "duration": 4, "velocity": 85}, {"time": 480, "pitch": 69, "duration": 4, "velocity": 86}, {"time": 483, "pitch": 67, "duration": 4, "velocity": 76}, {"time": 486, "pitch": 69, "duration": 7, "velocity": 86}, {"time": 492, "pitch": 71, "duration": 4, "velocity": 85}, {"time": 495, "pitch": 69, "duration": 16, "velocity": 83}, {"time": 522, "pitch": 64, "duration": 4, "velocity": 87}, {"time": 525, "pitch": 67, "duration": 2, "velocity": 85}, {"time": 528, "pitch": 67, "duration": 4, "velocity": 82}, {"time": 531, "pitch": 64, "duration": 4, "velocity": 89}, {"time": 534, "pitch": 69, "duration": 7, "velocity": 85}, {"time": 540, "pitch": 71, "duration": 4, "velocity": 83}, {"time": 543, "pitch": 69, "duration": 4, "velocity": 78}, {"time": 546, "pitch": 71, "duration": 6, "velocity": 83}, {"time": 552, "pitch": 69, "duration": 17, "velocity": 80}, {"time": 570, "pitch": 74, "duration": 3, "velocity": 91}, {"time": 573, "pitch": 76, "duration": 9, "velocity": 86}, {"time": 582, "pitch": 71, "duration": 6, "velocity": 89}, {"time": 588, "pitch": 69, "duration": 3, "velocity": 80}, {"time": 591, "pitch": 67, "duration": 21, "velocity": 84}, {"time": 618, "pitch": 71, "duration": 3, "velocity": 86}, {"time": 621, "pitch": 74, "duration": 2, "velocity": 85}, {"time": 624, "pitch": 74, "duration": 3, "velocity": 89}, {"time": 627, "pitch": 71, "duration": 9, "velocity": 90}, {"time": 636, "pitch": 76, "duration": 6, "velocity": 89}, {"time": 642, "pitch": 74, "duration": 22, "velocity": 87}, {"time": 666, "pitch": 71, "duration": 4, "velocity": 87}, {"time": 669, "pitch": 72, "duration": 2, "velocity": 83}, {"time": 672, "pitch": 74, "duration": 4, "velocity": 92}, {"time": 675, "pitch": 71, "duration": 9, "velocity": 83}, {"time": 684, "pitch": 69, "duration": 3, "velocity": 80}, {"time": 687, "pitch": 67, "duration": 18, "velocity": 75}, {"time": 714, "pitch": 67, "duration": 2, "velocity": 78}, {"time": 717, "pitch": 67, "duration": 2, "velocity": 86}, {"time": 720, "pitch": 64, "duration": 3, "velocity": 87}, {"time": 723, "pitch": 62, "duration": 3, "velocity": 84}, {"time": 726, "pitch": 69, "duration": 7, "velocity": 91}, {"time": 732, "pitch": 71, "duration": 3, "velocity": 85}, {"time": 735, "pitch": 69, "duration": 3, "velocity": 75}, {"time": 738, "pitch": 71, "duration": 12, "velocity": 84}, {"time": 762, "pitch": 74, "duration": 3, "velocity": 89}, {"time": 765, "pitch": 76, "duration": 15, "velocity": 87}, {"time": 780, "pitch": 71, "duration": 4, "velocity": 85}, {"time": 783, "pitch": 69, "duration": 7, "velocity": 80}, {"time": 789, "pitch": 71, "duration": 19, "velocity": 83}, {"time": 810, "pitch": 71, "duration": 3, "velocity": 89}, {"time": 813, "pitch": 74, "duration": 2, "velocity": 87}, {"time": 816, "pitch": 74, "duration": 3, "velocity": 89}, {"time": 819, "pitch": 71, "duration": 4, "velocity": 86}, {"time": 822, "pitch": 76, "duration": 6, "velocity": 87}, {"time": 828, "pitch": 74, "duration": 2, "velocity": 87}, {"time": 831, "pitch": 74, "duration": 7, "velocity": 89}, {"time": 837, "pitch": 76, "duration": 3, "velocity": 85}, {"time": 840, "pitch": 71, "duration": 16, "velocity": 85}, {"time": 858, "pitch": 69, "duration": 3, "velocity": 85}, {"time": 861, "pitch": 71, "duration": 4, "velocity": 83}, {"time": 864, "pitch": 69, "duration": 4, "velocity": 84}, {"time": 867, "pitch": 67, "duration": 4, "velocity": 77}, {"time": 870, "pitch": 69, "duration": 6, "velocity": 84}, {"time": 876, "pitch": 71, "duration": 3, "velocity": 81}, {"time": 879, "pitch": 69, "duration": 14, "velocity": 78}, {"time": 906, "pitch": 64, "duration": 4, "velocity": 90}, {"time": 909, "pitch": 67, "duration": 2, "velocity": 84}, {"time": 912, "pitch": 67, "duration": 3, "velocity": 83}, {"time": 915, "pitch": 64, "duration": 4, "velocity": 85}, {"time": 918, "pitch": 69, "duration": 7, "velocity": 82}, {"time": 924, "pitch": 67, "duration": 4, "velocity": 74}, {"time": 927, "pitch": 69, "duration": 7, "velocity": 85}, {"time": 933, "pitch": 71, "duration": 10, "velocity": 83}, {"time": 942, "pitch": 74, "duration": 11, "velocity": 74}, {"time": 966, "pitch": 76, "duration": 2, "velocity": 91}, {"time": 969, "pitch": 76, "duration": 2, "velocity": 86}, {"time": 972, "pitch": 76, "duration": 2, "velocity": 86}, {"time": 975, "pitch": 76, "duration": 2, "velocity": 86}, {"time": 978, "pitch": 76, "duration": 2, "velocity": 86}, {"time": 981, "pitch": 76, "duration": 2, "velocity": 86}, {"time": 984, "pitch": 76, "duration": 2, "velocity": 86}, {"time": 987, "pitch": 76, "duration": 11, "velocity": 87}, {"time": 1002, "pitch": 76, "duration": 5, "velocity": 90}, {"time": 1008, "pitch": 76, "duration": 3, "velocity": 89}, {"time": 1011, "pitch": 71, "duration": 3, "velocity": 86}, {"time": 1014, "pitch": 74, "duration": 5, "velocity": 96}, {"time": 1020, "pitch": 76, "duration": 2, "velocity": 88}, {"time": 1023, "pitch": 76, "duration": 7, "velocity": 92}, {"time": 1029, "pitch": 74, "duration": 16, "velocity": 91}, {"time": 1062, "pitch": 76, "duration": 2, "velocity": 87}, {"time": 1065, "pitch": 76, "duration": 2, "velocity": 86}, {"time": 1068, "pitch": 76, "duration": 2, "velocity": 85}, {"time": 1071, "pitch": 76, "duration": 2, "velocity": 86}, {"time": 1074, "pitch": 76, "duration": 2, "velocity": 86}, {"time": 1077, "pitch": 76, "duration": 2, "velocity": 87}, {"time": 1080, "pitch": 76, "duration": 2, "velocity": 87}, {"time": 1083, "pitch": 76, "duration": 13, "velocity": 86}, {"time": 1098, "pitch": 76, "duration": 5, "velocity": 90}, {"time": 1104, "pitch": 76, "duration": 3, "velocity": 87}, {"time": 1107, "pitch": 71, "duration": 3, "velocity": 86}, {"time": 1110, "pitch": 74, "duration": 5, "velocity": 89}, {"time": 1116, "pitch": 76, "duration": 2, "velocity": 88}, {"time": 1119, "pitch": 76, "duration": 9, "velocity": 87}, {"time": 1128, "pitch": 74, "duration": 19, "velocity": 94}, {"time": 1158, "pitch": 76, "duration": 5, "velocity": 87}, {"time": 1164, "pitch": 76, "duration": 24, "velocity": 87}, {"time": 1188, "pitch": 76, "duration": 5, "velocity": 91}, {"time": 1194, "pitch": 76, "duration": 6, "velocity": 88}, {"time": 1200, "pitch": 72, "duration": 7, "velocity": 87}, {"time": 1206, "pitch": 74, "duration": 13, "velocity": 91}, {"time": 1218, "pitch": 76, "duration": 7, "velocity": 84}, {"time": 1224, "pitch": 71, "duration": 27, "velocity": 85}, {"time": 1254, "pitch": 71, "duration": 12, "velocity": 86}, {"time": 1266, "pitch": 69, "duration": 13, "velocity": 86}, {"time": 1278, "pitch": 64, "duration": 10, "velocity": 85}, {"time": 1290, "pitch": 69, "duration": 5, "velocity": 87}, {"time": 1296, "pitch": 71, "duration": 12, "velocity": 87}, {"time": 1308, "pitch": 69, "duration": 31, "velocity": 83}, {"time": 1542, "pitch": 76, "duration": 2, "velocity": 91}, {"time": 1545, "pitch": 76, "duration": 2, "velocity": 86}, {"time": 1548, "pitch": 76, "duration": 2, "velocity": 86}, {"time": 1551, "pitch": 76, "duration": 2, "velocity": 86}, {"time": 1554, "pitch": 76, "duration": 2, "velocity": 86}, {"time": 1557, "pitch": 76, "duration": 2, "velocity": 86}, {"time": 1560, "pitch": 76, "duration": 2, "velocity": 86}, {"time": 1563, "pitch": 76, "duration": 11, "velocity": 87}, {"time": 1578, "pitch": 76, "duration": 5, "velocity": 90}, {"time": 1584, "pitch": 76, "duration": 3, "velocity": 89}, {"time": 1587, "pitch": 71, "duration": 3, "velocity": 86}, {"time": 1590, "pitch": 74, "duration": 5, "velocity": 96}, {"time": 1596, "pitch": 76, "duration": 2, "velocity": 88}, {"time": 1599, "pitch": 76, "duration": 7, "velocity": 92}, {"time": 1605, "pitch": 74, "duration": 16, "velocity": 91}, {"time": 1638, "pitch": 76, "duration": 2, "velocity": 87}, {"time": 1641, "pitch": 76, "duration": 2, "velocity": 86}, {"time": 1644, "pitch": 76, "duration": 2, "velocity": 85}, {"time": 1647, "pitch": 76, "duration": 2, "velocity": 86}, {"time": 1650, "pitch": 76, "duration": 2, "velocity": 86}, {"time": 1653, "pitch": 76, "duration": 2, "velocity": 87}, {"time": 1656, "pitch": 76, "duration": 2, "velocity": 87}, {"time": 1659, "pitch": 76, "duration": 13, "velocity": 86}, {"time": 1674, "pitch": 76, "duration": 5, "velocity": 90}, {"time": 1680, "pitch": 76, "duration": 3, "velocity": 87}, {"time": 1683, "pitch": 71, "duration": 3, "velocity": 86}, {"time": 1686, "pitch": 74, "duration": 5, "velocity": 89}, {"time": 1692, "pitch": 76, "duration": 2, "velocity": 88}, {"time": 1695, "pitch": 76, "duration": 9, "velocity": 87}, {"time": 1704, "pitch": 74, "duration": 19, "velocity": 94}, {"time": 1734, "pitch": 76, "duration": 5, "velocity": 87}, {"time": 1740, "pitch": 76, "duration": 24, "velocity": 87}, {"time": 1764, "pitch": 76, "duration": 5, "velocity": 91}, {"time": 1770, "pitch": 76, "duration": 6, "velocity": 88}, {"time": 1776, "pitch": 72, "duration": 7, "velocity": 87}, {"time": 1782, "pitch": 74, "duration": 13, "velocity": 91}, {"time": 1794, "pitch": 76, "duration": 7, "velocity": 84}, {"time": 1800, "pitch": 71, "duration": 27, "velocity": 85}, {"time": 1830, "pitch": 71, "duration": 12, "velocity": 86}, {"time": 1842, "pitch": 69, "duration": 9, "velocity": 86}, {"time": 1854, "pitch": 69, "duration": 5, "velocity": 89}, {"time": 1860, "pitch": 74, "duration": 8, "velocity": 96}, {"time": 1872, "pitch": 76, "duration": 12, "velocity": 90}, {"time": 1884, "pitch": 74, "duration": 42, "velocity": 94}, {"time": 1926, "pitch": 75, "duration": 30, "velocity": 94}, {"time": 1957, "pitch": 80, "duration": 36, "velocity": 89}, {"time": 1992, "pitch": 77, "duration": 5, "velocity": 89}, {"time": 1998, "pitch": 77, "duration": 6, "velocity": 96}, {"time": 2004, "pitch": 75, "duration": 17, "velocity": 89}, {"time": 2034, "pitch": 80, "duration": 3, "velocity": 86}, {"time": 2037, "pitch": 77, "duration": 2, "velocity": 85}, {"time": 2040, "pitch": 77, "duration": 3, "velocity": 89}, {"time": 2043, "pitch": 77, "duration": 3, "velocity": 90}, {"time": 2046, "pitch": 77, "duration": 6, "velocity": 90}, {"time": 2052, "pitch": 77, "duration": 6, "velocity": 89}, {"time": 2058, "pitch": 75, "duration": 22, "velocity": 87}, {"time": 2082, "pitch": 72, "duration": 4, "velocity": 87}, {"time": 2085, "pitch": 73, "duration": 2, "velocity": 83}, {"time": 2088, "pitch": 75, "duration": 4, "velocity": 92}, {"time": 2091, "pitch": 72, "duration": 9, "velocity": 83}, {"time": 2100, "pitch": 70, "duration": 3, "velocity": 80}, {"time": 2103, "pitch": 68, "duration": 18, "velocity": 75}, {"time": 2130, "pitch": 80, "duration": 2, "velocity": 78}, {"time": 2133, "pitch": 80, "duration": 2, "velocity": 86}, {"time": 2136, "pitch": 77, "duration": 3, "velocity": 87}, {"time": 2139, "pitch": 75, "duration": 3, "velocity": 84}, {"time": 2142, "pitch": 77, "duration": 7, "velocity": 91}, {"time": 2148, "pitch": 79, "duration": 3, "velocity": 85}, {"time": 2151, "pitch": 77, "duration": 3, "velocity": 75}, {"time": 2154, "pitch": 75, "duration": 12, "velocity": 84}, {"time": 2178, "pitch": 75, "duration": 3, "velocity": 89}, {"time": 2181, "pitch": 77, "duration": 15, "velocity": 87}, {"time": 2196, "pitch": 72, "duration": 4, "velocity": 85}, {"time": 2199, "pitch": 70, "duration": 7, "velocity": 80}, {"time": 2205, "pitch": 72, "duration": 19, "velocity": 83}, {"time": 2226, "pitch": 72, "duration": 3, "velocity": 89}, {"time": 2229, "pitch": 75, "duration": 2, "velocity": 87}, {"time": 2232, "pitch": 75, "duration": 3, "velocity": 89}, {"time": 2235, "pitch": 72, "duration": 4, "velocity": 86}, {"time": 2238, "pitch": 77, "duration": 6, "velocity": 87}, {"time": 2244, "pitch": 75, "duration": 2, "velocity": 87}, {"time": 2247, "pitch": 75, "duration": 7, "velocity": 89}, {"time": 2253, "pitch": 77, "duration": 3, "velocity": 85}, {"time": 2256, "pitch": 72, "duration": 16, "velocity": 85}, {"time": 2274, "pitch": 70, "duration": 3, "velocity": 85}, {"time": 2277, "pitch": 72, "duration": 4, "velocity": 83}, {"time": 2280, "pitch": 70, "duration": 4, "velocity": 84}, {"time": 2283, "pitch": 68, "duration": 4, "velocity": 77}, {"time": 2286, "pitch": 70, "duration": 6, "velocity": 84}, {"time": 2292, "pitch": 72, "duration": 3, "velocity": 81}, {"time": 2295, "pitch": 70, "duration": 14, "velocity": 78}, {"time": 2322, "pitch": 72, "duration": 4, "velocity": 90}, {"time": 2325, "pitch": 70, "duration": 2, "velocity": 84}, {"time": 2328, "pitch": 68, "duration": 3, "velocity": 83}, {"time": 2331, "pitch": 70, "duration": 4, "velocity": 85}, {"time": 2334, "pitch": 68, "duration": 36, "velocity": 82}, {"time": 2382, "pitch": 73, "duration": 16, "velocity": 89}, {"time": 2400, "pitch": 72, "duration": 3, "velocity": 86}, {"time": 2402, "pitch": 70, "duration": 3, "velocity": 81}, {"time": 2405, "pitch": 68, "duration": 11, "velocity": 70}, {"time": 2420, "pitch": 80, "duration": 8, "velocity": 65}, {"time": 2427, "pitch": 82, "duration": 5, "velocity": 75}, {"time": 2431, "pitch": 84, "duration": 10, "velocity": 87}, {"time": 2441, "pitch": 82, "duration": 3, "velocity": 76}, {"time": 2443, "pitch": 80, "duration": 3, "velocity": 73}, {"time": 2446, "pitch": 82, "duration": 3, "velocity": 77}, {"time": 2448, "pitch": 80, "duration": 15, "velocity": 78}, {"time": 2466, "pitch": 87, "duration": 7, "velocity": 92}, {"time": 2474, "pitch": 85, "duration": 3, "velocity": 86}, {"time": 2478, "pitch": 84, "duration": 4, "velocity": 89}, {"time": 2483, "pitch": 85, "duration": 3, "velocity": 87}, {"time": 2486, "pitch": 84, "duration": 6, "velocity": 86}, {"time": 2492, "pitch": 80, "duration": 23, "velocity": 75}, {"time": 2523, "pitch": 75, "duration": 4, "velocity": 77}, {"time": 2527, "pitch": 77, "duration": 4, "velocity": 80}, {"time": 2530, "pitch": 80, "duration": 3, "velocity": 86}, {"time": 2532, "pitch": 82, "duration": 5, "velocity": 85}, {"time": 2536, "pitch": 84, "duration": 4, "velocity": 80}, {"time": 2539, "pitch": 80, "duration": 5, "velocity": 80}, {"time": 2542, "pitch": 82, "duration": 20, "velocity": 77}, {"time": 2566, "pitch": 80, "duration": 4, "velocity": 79}, {"time": 2569, "pitch": 82, "duration": 4, "velocity": 76}, {"time": 2572, "pitch": 84, "duration": 3, "velocity": 87}, {"time": 2575, "pitch": 80, "duration": 3, "velocity": 79}, {"time": 2578, "pitch": 82, "duration": 10, "velocity": 70}, {"time": 2588, "pitch": 80, "duration": 33, "velocity": 80}]}, {"program": 0, "is_drum": false, "name": "PIANO", "notes": [{"time": 26, "pitch": 48, "duration": 10, "velocity": 75}, {"time": 26, "pitch": 60, "duration": 6, "velocity": 76}, {"time": 27, "pitch": 64, "duration": 7, "velocity": 78}, {"time": 27, "pitch": 67, "duration": 7, "velocity": 69}, {"time": 28, "pitch": 55, "duration": 7, "velocity": 33}, {"time": 28, "pitch": 71, "duration": 6, "velocity": 74}, {"time": 40, "pitch": 59, "duration": 9, "velocity": 56}, {"time": 41, "pitch": 62, "duration": 7, "velocity": 67}, {"time": 41, "pitch": 66, "duration": 7, "velocity": 72}, {"time": 41, "pitch": 47, "duration": 8, "velocity": 78}, {"time": 43, "pitch": 69, "duration": 6, "velocity": 57}, {"time": 53, "pitch": 45, "duration": 21, "velocity": 68}, {"time": 54, "pitch": 57, "duration": 22, "velocity": 70}, {"time": 55, "pitch": 52, "duration": 19, "velocity": 68}, {"time": 56, "pitch": 60, "duration": 20, "velocity": 69}, {"time": 56, "pitch": 64, "duration": 20, "velocity": 72}, {"time": 86, "pitch": 48, "duration": 7, "velocity": 84}, {"time": 87, "pitch": 60, "duration": 5, "velocity": 71}, {"time": 88, "pitch": 64, "duration": 4, "velocity": 71}, {"time": 88, "pitch": 67, "duration": 7, "velocity": 63}, {"time": 99, "pitch": 47, "duration": 10, "velocity": 76}, {"time": 99, "pitch": 59, "duration": 10, "velocity": 70}, {"time": 101, "pitch": 62, "duration": 7, "velocity": 56}, {"time": 103, "pitch": 71, "duration": 5, "velocity": 45}, {"time": 112, "pitch": 45, "duration": 17, "velocity": 73}, {"time": 114, "pitch": 55, "duration": 26, "velocity": 65}, {"time": 114, "pitch": 52, "duration": 14, "velocity": 69}, {"time": 116, "pitch": 60, "duration": 24, "velocity": 47}, {"time": 117, "pitch": 64, "duration": 23, "velocity": 73}, {"time": 139, "pitch": 50, "duration": 20, "velocity": 75}, {"time": 140, "pitch": 62, "duration": 23, "velocity": 67}, {"time": 141, "pitch": 57, "duration": 17, "velocity": 72}, {"time": 142, "pitch": 67, "duration": 21, "velocity": 70}, {"time": 164, "pitch": 50, "duration": 10, "velocity": 67}, {"time": 167, "pitch": 57, "duration": 6, "velocity": 63}, {"time": 168, "pitch": 62, "duration": 6, "velocity": 66}, {"time": 169, "pitch": 66, "duration": 5, "velocity": 68}, {"time": 170, "pitch": 69, "duration": 4, "velocity": 70}, {"time": 198, "pitch": 43, "duration": 37, "velocity": 85}, {"time": 198, "pitch": 55, "duration": 6, "velocity": 78}, {"time": 198, "pitch": 62, "duration": 5, "velocity": 81}, {"time": 204, "pitch": 50, "duration": 31, "velocity": 59}, {"time": 210, "pitch": 59, "duration": 2, "velocity": 75}, {"time": 210, "pitch": 62, "duration": 2, "velocity": 85}, {"time": 222, "pitch": 59, "duration": 2, "velocity": 75}, {"time": 222, "pitch": 62, "duration": 2, "velocity": 79}, {"time": 228, "pitch": 55, "duration": 4, "velocity": 72}, {"time": 234, "pitch": 59, "duration": 2, "velocity": 74}, {"time": 234, "pitch": 62, "duration": 2, "velocity": 81}, {"time": 246, "pitch": 47, "duration": 40, "velocity": 81}, {"time": 246, "pitch": 57, "duration": 2, "velocity": 67}, {"time": 246, "pitch": 59, "duration": 4, "velocity": 66}, {"time": 246, "pitch": 62, "duration": 9, "velocity": 78}, {"time": 246, "pitch": 66, "duration": 8, "velocity": 73}, {"time": 252, "pitch": 54, "duration": 21, "velocity": 51}, {"time": 258, "pitch": 57, "duration": 2, "velocity": 73}, {"time": 258, "pitch": 62, "duration": 2, "velocity": 80}, {"time": 258, "pitch": 66, "duration": 2, "velocity": 72}, {"time": 270, "pitch": 62, "duration": 5, "velocity": 78}, {"time": 270, "pitch": 66, "duration": 4, "velocity": 69}, {"time": 276, "pitch": 54, "duration": 7, "velocity": 43}, {"time": 282, "pitch": 57, "duration": 3, "velocity": 75}, {"time": 282, "pitch": 62, "duration": 6, "velocity": 79}, {"time": 282, "pitch": 66, "duration": 6, "velocity": 77}, {"time": 294, "pitch": 45, "duration": 17, "velocity": 85}, {"time": 294, "pitch": 55, "duration": 7, "velocity": 78}, {"time": 294, "pitch": 60, "duration": 7, "velocity": 78}, {"time": 300, "pitch": 52, "duration": 9, "velocity": 58}, {"time": 306, "pitch": 55, "duration": 2, "velocity": 70}, {"time": 306, "pitch": 60, "duration": 2, "velocity": 78}, {"time": 306, "pitch": 64, "duration": 2, "velocity": 82}, {"time": 318, "pitch": 55, "duration": 3, "velocity": 73}, {"time": 318, "pitch": 60, "duration": 3, "velocity": 74}, {"time": 330, "pitch": 55, "duration": 3, "velocity": 83}, {"time": 330, "pitch": 60, "duration": 4, "velocity": 80}, {"time": 330, "pitch": 64, "duration": 5, "velocity": 85}, {"time": 336, "pitch": 45, "duration": 2, "velocity": 85}, {"time": 342, "pitch": 38, "duration": 23, "velocity": 87}, {"time": 342, "pitch": 57, "duration": 4, "velocity": 74}, {"time": 342, "pitch": 62, "duration": 8, "velocity": 78}, {"time": 348, "pitch": 57, "duration": 3, "velocity": 70}, {"time": 354, "pitch": 57, "duration": 2, "velocity": 71}, {"time": 354, "pitch": 62, "duration": 2, "velocity": 76}, {"time": 354, "pitch": 66, "duration": 3, "velocity": 74}, {"time": 366, "pitch": 38, "duration": 14, "velocity": 86}, {"time": 366, "pitch": 57, "duration": 7, "velocity": 73}, {"time": 366, "pitch": 62, "duration": 8, "velocity": 77}, {"time": 372, "pitch": 45, "duration": 8, "velocity": 57}, {"time": 378, "pitch": 57, "duration": 2, "velocity": 81}, {"time": 378, "pitch": 62, "duration": 2, "velocity": 85}, {"time": 378, "pitch": 66, "duration": 2, "velocity": 77}, {"time": 390, "pitch": 43, "duration": 19, "velocity": 84}, {"time": 390, "pitch": 55, "duration": 7, "velocity": 74}, {"time": 390, "pitch": 62, "duration": 6, "velocity": 82}, {"time": 396, "pitch": 50, "duration": 13, "velocity": 68}, {"time": 402, "pitch": 57, "duration": 2, "velocity": 76}, {"time": 402, "pitch": 62, "duration": 2, "velocity": 81}, {"time": 408, "pitch": 55, "duration": 3, "velocity": 67}, {"time": 414, "pitch": 43, "duration": 16, "velocity": 84}, {"time": 414, "pitch": 55, "duration": 6, "velocity": 70}, {"time": 414, "pitch": 62, "duration": 6, "velocity": 83}, {"time": 420, "pitch": 50, "duration": 8, "velocity": 61}, {"time": 426, "pitch": 55, "duration": 2, "velocity": 80}, {"time": 426, "pitch": 57, "duration": 1, "velocity": 74}, {"time": 426, "pitch": 59, "duration": 3, "velocity": 73}, {"time": 426, "pitch": 62, "duration": 4, "velocity": 80}, {"time": 432, "pitch": 55, "duration": 2, "velocity": 85}, {"time": 438, "pitch": 47, "duration": 19, "velocity": 85}, {"time": 438, "pitch": 59, "duration": 8, "velocity": 78}, {"time": 438, "pitch": 62, "duration": 7, "velocity": 79}, {"time": 438, "pitch": 66, "duration": 7, "velocity": 78}, {"time": 444, "pitch": 54, "duration": 12, "velocity": 60}, {"time": 450, "pitch": 59, "duration": 2, "velocity": 80}, {"time": 450, "pitch": 62, "duration": 2, "velocity": 81}, {"time": 450, "pitch": 66, "duration": 3, "velocity": 79}, {"time": 462, "pitch": 47, "duration": 8, "velocity": 85}, {"time": 462, "pitch": 59, "duration": 4, "velocity": 76}, {"time": 462, "pitch": 62, "duration": 4, "velocity": 77}, {"time": 462, "pitch": 66, "duration": 5, "velocity": 77}, {"time": 468, "pitch": 54, "duration": 3, "velocity": 64}, {"time": 474, "pitch": 59, "duration": 3, "velocity": 83}, {"time": 474, "pitch": 62, "duration": 3, "velocity": 85}, {"time": 474, "pitch": 66, "duration": 3, "velocity": 84}, {"time": 486, "pitch": 45, "duration": 20, "velocity": 85}, {"time": 486, "pitch": 55, "duration": 7, "velocity": 73}, {"time": 486, "pitch": 60, "duration": 7, "velocity": 75}, {"time": 492, "pitch": 52, "duration": 13, "velocity": 60}, {"time": 498, "pitch": 55, "duration": 4, "velocity": 81}, {"time": 498, "pitch": 60, "duration": 4, "velocity": 77}, {"time": 498, "pitch": 64, "duration": 4, "velocity": 86}, {"time": 510, "pitch": 45, "duration": 15, "velocity": 80}, {"time": 510, "pitch": 55, "duration": 9, "velocity": 76}, {"time": 510, "pitch": 60, "duration": 9, "velocity": 75}, {"time": 516, "pitch": 52, "duration": 9, "velocity": 58}, {"time": 522, "pitch": 55, "duration": 2, "velocity": 87}, {"time": 522, "pitch": 60, "duration": 3, "velocity": 86}, {"time": 528, "pitch": 55, "duration": 2, "velocity": 85}, {"time": 534, "pitch": 38, "duration": 19, "velocity": 88}, {"time": 534, "pitch": 57, "duration": 8, "velocity": 75}, {"time": 534, "pitch": 62, "duration": 8, "velocity": 77}, {"time": 540, "pitch": 45, "duration": 10, "velocity": 62}, {"time": 546, "pitch": 57, "duration": 2, "velocity": 81}, {"time": 546, "pitch": 62, "duration": 2, "velocity": 81}, {"time": 546, "pitch": 66, "duration": 3, "velocity": 79}, {"time": 552, "pitch": 57, "duration": 3, "velocity": 72}, {"time": 558, "pitch": 38, "duration": 24, "velocity": 86}, {"time": 558, "pitch": 57, "duration": 6, "velocity": 77}, {"time": 558, "pitch": 62, "duration": 6, "velocity": 78}, {"time": 558, "pitch": 66, "duration": 7, "velocity": 78}, {"time": 564, "pitch": 45, "duration": 18, "velocity": 64}, {"time": 570, "pitch": 57, "duration": 3, "velocity": 85}, {"time": 570, "pitch": 62, "duration": 12, "velocity": 87}, {"time": 570, "pitch": 66, "duration": 12, "velocity": 82}, {"time": 576, "pitch": 57, "duration": 6, "velocity": 86}, {"time": 582, "pitch": 43, "duration": 21, "velocity": 85}, {"time": 582, "pitch": 55, "duration": 7, "velocity": 75}, {"time": 582, "pitch": 62, "duration": 6, "velocity": 78}, {"time": 588, "pitch": 50, "duration": 7, "velocity": 68}, {"time": 594, "pitch": 55, "duration": 3, "velocity": 85}, {"time": 594, "pitch": 59, "duration": 3, "velocity": 87}, {"time": 594, "pitch": 62, "duration": 4, "velocity": 85}, {"time": 597, "pitch": 50, "duration": 5, "velocity": 68}, {"time": 600, "pitch": 57, "duration": 4, "velocity": 71}, {"time": 603, "pitch": 59, "duration": 8, "velocity": 81}, {"time": 606, "pitch": 43, "duration": 16, "velocity": 86}, {"time": 612, "pitch": 50, "duration": 7, "velocity": 67}, {"time": 618, "pitch": 55, "duration": 3, "velocity": 81}, {"time": 618, "pitch": 59, "duration": 3, "velocity": 86}, {"time": 618, "pitch": 62, "duration": 4, "velocity": 85}, {"time": 624, "pitch": 43, "duration": 3, "velocity": 86}, {"time": 630, "pitch": 47, "duration": 21, "velocity": 87}, {"time": 630, "pitch": 57, "duration": 8, "velocity": 76}, {"time": 630, "pitch": 62, "duration": 9, "velocity": 77}, {"time": 636, "pitch": 54, "duration": 7, "velocity": 72}, {"time": 642, "pitch": 57, "duration": 3, "velocity": 85}, {"time": 642, "pitch": 62, "duration": 3, "velocity": 87}, {"time": 642, "pitch": 66, "duration": 5, "velocity": 85}, {"time": 645, "pitch": 54, "duration": 7, "velocity": 66}, {"time": 648, "pitch": 62, "duration": 4, "velocity": 80}, {"time": 651, "pitch": 66, "duration": 4, "velocity": 78}, {"time": 654, "pitch": 47, "duration": 19, "velocity": 88}, {"time": 654, "pitch": 62, "duration": 7, "velocity": 79}, {"time": 660, "pitch": 54, "duration": 7, "velocity": 70}, {"time": 666, "pitch": 57, "duration": 7, "velocity": 86}, {"time": 666, "pitch": 62, "duration": 7, "velocity": 88}, {"time": 672, "pitch": 54, "duration": 2, "velocity": 80}, {"time": 678, "pitch": 45, "duration": 22, "velocity": 85}, {"time": 678, "pitch": 55, "duration": 7, "velocity": 86}, {"time": 678, "pitch": 60, "duration": 7, "velocity": 79}, {"time": 684, "pitch": 52, "duration": 7, "velocity": 70}, {"time": 690, "pitch": 55, "duration": 4, "velocity": 85}, {"time": 690, "pitch": 60, "duration": 4, "velocity": 88}, {"time": 690, "pitch": 64, "duration": 4, "velocity": 86}, {"time": 693, "pitch": 52, "duration": 7, "velocity": 85}, {"time": 696, "pitch": 55, "duration": 5, "velocity": 87}, {"time": 702, "pitch": 45, "duration": 16, "velocity": 86}, {"time": 702, "pitch": 55, "duration": 8, "velocity": 81}, {"time": 702, "pitch": 60, "duration": 8, "velocity": 81}, {"time": 708, "pitch": 52, "duration": 10, "velocity": 67}, {"time": 714, "pitch": 55, "duration": 5, "velocity": 88}, {"time": 714, "pitch": 60, "duration": 5, "velocity": 89}, {"time": 720, "pitch": 45, "duration": 3, "velocity": 86}, {"time": 726, "pitch": 38, "duration": 2, "velocity": 87}, {"time": 726, "pitch": 57, "duration": 4, "velocity": 76}, {"time": 726, "pitch": 62, "duration": 6, "velocity": 81}, {"time": 732, "pitch": 50, "duration": 15, "velocity": 73}, {"time": 738, "pitch": 62, "duration": 3, "velocity": 87}, {"time": 738, "pitch": 66, "duration": 6, "velocity": 90}, {"time": 741, "pitch": 57, "duration": 6, "velocity": 74}, {"time": 744, "pitch": 62, "duration": 5, "velocity": 79}, {"time": 747, "pitch": 66, "duration": 2, "velocity": 77}, {"time": 750, "pitch": 50, "duration": 16, "velocity": 91}, {"time": 750, "pitch": 62, "duration": 5, "velocity": 80}, {"time": 750, "pitch": 66, "duration": 5, "velocity": 81}, {"time": 750, "pitch": 69, "duration": 5, "velocity": 81}, {"time": 756, "pitch": 57, "duration": 7, "velocity": 74}, {"time": 759, "pitch": 62, "duration": 2, "velocity": 81}, {"time": 762, "pitch": 62, "duration": 3, "velocity": 90}, {"time": 762, "pitch": 74, "duration": 4, "velocity": 89}, {"time": 765, "pitch": 57, "duration": 2, "velocity": 85}, {"time": 768, "pitch": 62, "duration": 2, "velocity": 90}, {"time": 774, "pitch": 43, "duration": 18, "velocity": 86}, {"time": 774, "pitch": 55, "duration": 6, "velocity": 80}, {"time": 774, "pitch": 62, "duration": 6, "velocity": 81}, {"time": 780, "pitch": 50, "duration": 8, "velocity": 71}, {"time": 786, "pitch": 57, "duration": 3, "velocity": 86}, {"time": 786, "pitch": 62, "duration": 3, "velocity": 87}, {"time": 789, "pitch": 50, "duration": 3, "velocity": 73}, {"time": 792, "pitch": 55, "duration": 4, "velocity": 87}, {"time": 798, "pitch": 43, "duration": 17, "velocity": 85}, {"time": 798, "pitch": 55, "duration": 7, "velocity": 80}, {"time": 798, "pitch": 59, "duration": 7, "velocity": 74}, {"time": 798, "pitch": 62, "duration": 6, "velocity": 80}, {"time": 804, "pitch": 50, "duration": 7, "velocity": 70}, {"time": 810, "pitch": 55, "duration": 3, "velocity": 90}, {"time": 810, "pitch": 59, "duration": 4, "velocity": 91}, {"time": 810, "pitch": 62, "duration": 4, "velocity": 91}, {"time": 813, "pitch": 50, "duration": 2, "velocity": 87}, {"time": 816, "pitch": 43, "duration": 2, "velocity": 86}, {"time": 822, "pitch": 47, "duration": 22, "velocity": 87}, {"time": 822, "pitch": 57, "duration": 8, "velocity": 78}, {"time": 822, "pitch": 62, "duration": 8, "velocity": 81}, {"time": 828, "pitch": 54, "duration": 8, "velocity": 75}, {"time": 834, "pitch": 57, "duration": 6, "velocity": 86}, {"time": 834, "pitch": 62, "duration": 6, "velocity": 91}, {"time": 834, "pitch": 66, "duration": 7, "velocity": 86}, {"time": 840, "pitch": 54, "duration": 6, "velocity": 71}, {"time": 843, "pitch": 57, "duration": 11, "velocity": 80}, {"time": 846, "pitch": 47, "duration": 19, "velocity": 87}, {"time": 846, "pitch": 62, "duration": 8, "velocity": 85}, {"time": 852, "pitch": 54, "duration": 7, "velocity": 69}, {"time": 858, "pitch": 57, "duration": 3, "velocity": 86}, {"time": 858, "pitch": 62, "duration": 6, "velocity": 87}, {"time": 858, "pitch": 66, "duration": 7, "velocity": 86}, {"time": 861, "pitch": 54, "duration": 2, "velocity": 70}, {"time": 864, "pitch": 57, "duration": 3, "velocity": 86}, {"time": 870, "pitch": 45, "duration": 16, "velocity": 85}, {"time": 870, "pitch": 55, "duration": 9, "velocity": 86}, {"time": 870, "pitch": 60, "duration": 8, "velocity": 80}, {"time": 876, "pitch": 52, "duration": 7, "velocity": 67}, {"time": 882, "pitch": 55, "duration": 3, "velocity": 87}, {"time": 882, "pitch": 60, "duration": 4, "velocity": 87}, {"time": 882, "pitch": 64, "duration": 7, "velocity": 90}, {"time": 885, "pitch": 52, "duration": 4, "velocity": 83}, {"time": 888, "pitch": 55, "duration": 4, "velocity": 86}, {"time": 891, "pitch": 60, "duration": 3, "velocity": 81}, {"time": 894, "pitch": 50, "duration": 15, "velocity": 85}, {"time": 894, "pitch": 57, "duration": 4, "velocity": 80}, {"time": 894, "pitch": 62, "duration": 5, "velocity": 83}, {"time": 900, "pitch": 57, "duration": 3, "velocity": 78}, {"time": 906, "pitch": 57, "duration": 2, "velocity": 85}, {"time": 906, "pitch": 62, "duration": 6, "velocity": 86}, {"time": 906, "pitch": 66, "duration": 6, "velocity": 86}, {"time": 912, "pitch": 57, "duration": 2, "velocity": 81}, {"time": 918, "pitch": 43, "duration": 22, "velocity": 86}, {"time": 918, "pitch": 55, "duration": 7, "velocity": 80}, {"time": 918, "pitch": 62, "duration": 6, "velocity": 83}, {"time": 924, "pitch": 50, "duration": 8, "velocity": 68}, {"time": 930, "pitch": 55, "duration": 4, "velocity": 84}, {"time": 930, "pitch": 59, "duration": 7, "velocity": 85}, {"time": 930, "pitch": 62, "duration": 11, "velocity": 86}, {"time": 936, "pitch": 50, "duration": 5, "velocity": 86}, {"time": 939, "pitch": 55, "duration": 2, "velocity": 85}, {"time": 942, "pitch": 43, "duration": 16, "velocity": 87}, {"time": 942, "pitch": 55, "duration": 9, "velocity": 90}, {"time": 942, "pitch": 60, "duration": 8, "velocity": 86}, {"time": 948, "pitch": 50, "duration": 7, "velocity": 90}, {"time": 954, "pitch": 55, "duration": 4, "velocity": 88}, {"time": 954, "pitch": 59, "duration": 6, "velocity": 90}, {"time": 954, "pitch": 62, "duration": 6, "velocity": 99}, {"time": 957, "pitch": 50, "duration": 9, "velocity": 91}, {"time": 960, "pitch": 55, "duration": 4, "velocity": 94}, {"time": 963, "pitch": 62, "duration": 2, "velocity": 87}, {"time": 966, "pitch": 48, "duration": 14, "velocity": 94}, {"time": 966, "pitch": 55, "duration": 4, "velocity": 86}, {"time": 966, "pitch": 60, "duration": 5, "velocity": 88}, {"time": 972, "pitch": 55, "duration": 2, "velocity": 86}, {"time": 978, "pitch": 55, "duration": 6, "velocity": 86}, {"time": 978, "pitch": 60, "duration": 5, "velocity": 80}, {"time": 978, "pitch": 64, "duration": 6, "velocity": 88}, {"time": 987, "pitch": 55, "duration": 4, "velocity": 86}, {"time": 987, "pitch": 60, "duration": 5, "velocity": 88}, {"time": 987, "pitch": 64, "duration": 5, "velocity": 90}, {"time": 990, "pitch": 48, "duration": 14, "velocity": 74}, {"time": 993, "pitch": 55, "duration": 2, "velocity": 90}, {"time": 996, "pitch": 55, "duration": 1, "velocity": 59}, {"time": 996, "pitch": 60, "duration": 3, "velocity": 74}, {"time": 999, "pitch": 55, "duration": 1, "velocity": 79}, {"time": 1002, "pitch": 55, "duration": 3, "velocity": 92}, {"time": 1002, "pitch": 62, "duration": 4, "velocity": 91}, {"time": 1005, "pitch": 48, "duration": 2, "velocity": 92}, {"time": 1008, "pitch": 55, "duration": 2, "velocity": 87}, {"time": 1008, "pitch": 60, "duration": 2, "velocity": 86}, {"time": 1014, "pitch": 47, "duration": 21, "velocity": 87}, {"time": 1014, "pitch": 57, "duration": 7, "velocity": 78}, {"time": 1014, "pitch": 62, "duration": 7, "velocity": 81}, {"time": 1020, "pitch": 54, "duration": 7, "velocity": 74}, {"time": 1026, "pitch": 57, "duration": 6, "velocity": 88}, {"time": 1026, "pitch": 62, "duration": 5, "velocity": 89}, {"time": 1026, "pitch": 66, "duration": 6, "velocity": 89}, {"time": 1032, "pitch": 54, "duration": 6, "velocity": 58}, {"time": 1035, "pitch": 57, "duration": 5, "velocity": 87}, {"time": 1035, "pitch": 62, "duration": 7, "velocity": 94}, {"time": 1038, "pitch": 47, "duration": 19, "velocity": 87}, {"time": 1041, "pitch": 54, "duration": 5, "velocity": 87}, {"time": 1044, "pitch": 57, "duration": 2, "velocity": 94}, {"time": 1047, "pitch": 54, "duration": 4, "velocity": 85}, {"time": 1050, "pitch": 57, "duration": 4, "velocity": 94}, {"time": 1050, "pitch": 62, "duration": 5, "velocity": 99}, {"time": 1053, "pitch": 54, "duration": 2, "velocity": 79}, {"time": 1056, "pitch": 57, "duration": 2, "velocity": 86}, {"time": 1062, "pitch": 48, "duration": 13, "velocity": 94}, {"time": 1062, "pitch": 55, "duration": 3, "velocity": 89}, {"time": 1062, "pitch": 60, "duration": 7, "velocity": 87}, {"time": 1068, "pitch": 55, "duration": 3, "velocity": 85}, {"time": 1074, "pitch": 55, "duration": 3, "velocity": 87}, {"time": 1074, "pitch": 60, "duration": 3, "velocity": 88}, {"time": 1074, "pitch": 64, "duration": 4, "velocity": 92}, {"time": 1077, "pitch": 48, "duration": 2, "velocity": 87}, {"time": 1080, "pitch": 55, "duration": 7, "velocity": 89}, {"time": 1083, "pitch": 60, "duration": 6, "velocity": 92}, {"time": 1086, "pitch": 36, "duration": 5, "velocity": 86}, {"time": 1089, "pitch": 55, "duration": 2, "velocity": 87}, {"time": 1092, "pitch": 60, "duration": 4, "velocity": 86}, {"time": 1095, "pitch": 55, "duration": 2, "velocity": 83}, {"time": 1098, "pitch": 48, "duration": 10, "velocity": 91}, {"time": 1098, "pitch": 55, "duration": 3, "velocity": 87}, {"time": 1098, "pitch": 60, "duration": 4, "velocity": 87}, {"time": 1104, "pitch": 55, "duration": 2, "velocity": 87}, {"time": 1104, "pitch": 62, "duration": 4, "velocity": 86}, {"time": 1107, "pitch": 55, "duration": 1, "velocity": 83}, {"time": 1110, "pitch": 47, "duration": 22, "velocity": 88}, {"time": 1110, "pitch": 57, "duration": 7, "velocity": 77}, {"time": 1110, "pitch": 62, "duration": 6, "velocity": 86}, {"time": 1116, "pitch": 54, "duration": 7, "velocity": 73}, {"time": 1122, "pitch": 57, "duration": 3, "velocity": 86}, {"time": 1122, "pitch": 62, "duration": 4, "velocity": 88}, {"time": 1122, "pitch": 66, "duration": 7, "velocity": 92}, {"time": 1125, "pitch": 54, "duration": 9, "velocity": 80}, {"time": 1128, "pitch": 57, "duration": 2, "velocity": 85}, {"time": 1131, "pitch": 57, "duration": 3, "velocity": 87}, {"time": 1131, "pitch": 62, "duration": 3, "velocity": 87}, {"time": 1134, "pitch": 38, "duration": 9, "velocity": 90}, {"time": 1134, "pitch": 57, "duration": 4, "velocity": 81}, {"time": 1134, "pitch": 60, "duration": 7, "velocity": 87}, {"time": 1134, "pitch": 65, "duration": 6, "velocity": 85}, {"time": 1137, "pitch": 45, "duration": 7, "velocity": 82}, {"time": 1140, "pitch": 57, "duration": 6, "velocity": 89}, {"time": 1143, "pitch": 65, "duration": 11, "velocity": 90}, {"time": 1146, "pitch": 43, "duration": 10, "velocity": 86}, {"time": 1149, "pitch": 50, "duration": 6, "velocity": 87}, {"time": 1152, "pitch": 55, "duration": 5, "velocity": 90}, {"time": 1155, "pitch": 59, "duration": 2, "velocity": 88}, {"time": 1158, "pitch": 48, "duration": 14, "velocity": 96}, {"time": 1158, "pitch": 55, "duration": 4, "velocity": 83}, {"time": 1158, "pitch": 60, "duration": 7, "velocity": 85}, {"time": 1164, "pitch": 55, "duration": 4, "velocity": 80}, {"time": 1170, "pitch": 55, "duration": 5, "velocity": 86}, {"time": 1170, "pitch": 60, "duration": 5, "velocity": 92}, {"time": 1170, "pitch": 64, "duration": 5, "velocity": 90}, {"time": 1179, "pitch": 55, "duration": 4, "velocity": 90}, {"time": 1179, "pitch": 60, "duration": 4, "velocity": 92}, {"time": 1182, "pitch": 48, "duration": 14, "velocity": 81}, {"time": 1185, "pitch": 64, "duration": 5, "velocity": 85}, {"time": 1188, "pitch": 55, "duration": 3, "velocity": 91}, {"time": 1191, "pitch": 60, "duration": 2, "velocity": 79}, {"time": 1194, "pitch": 55, "duration": 4, "velocity": 92}, {"time": 1194, "pitch": 60, "duration": 4, "velocity": 101}, {"time": 1197, "pitch": 48, "duration": 2, "velocity": 87}, {"time": 1200, "pitch": 55, "duration": 2, "velocity": 87}, {"time": 1206, "pitch": 47, "duration": 18, "velocity": 87}, {"time": 1206, "pitch": 57, "duration": 5, "velocity": 84}, {"time": 1206, "pitch": 62, "duration": 4, "velocity": 85}, {"time": 1212, "pitch": 54, "duration": 7, "velocity": 74}, {"time": 1218, "pitch": 57, "duration": 4, "velocity": 87}, {"time": 1218, "pitch": 62, "duration": 5, "velocity": 88}, {"time": 1218, "pitch": 66, "duration": 9, "velocity": 88}, {"time": 1221, "pitch": 54, "duration": 3, "velocity": 75}, {"time": 1224, "pitch": 57, "duration": 4, "velocity": 88}, {"time": 1227, "pitch": 62, "duration": 4, "velocity": 82}, {"time": 1230, "pitch": 40, "duration": 17, "velocity": 90}, {"time": 1230, "pitch": 64, "duration": 7, "velocity": 85}, {"time": 1233, "pitch": 47, "duration": 10, "velocity": 76}, {"time": 1236, "pitch": 52, "duration": 4, "velocity": 89}, {"time": 1242, "pitch": 52, "duration": 4, "velocity": 94}, {"time": 1242, "pitch": 59, "duration": 7, "velocity": 88}, {"time": 1245, "pitch": 47, "duration": 2, "velocity": 85}, {"time": 1248, "pitch": 52, "duration": 2, "velocity": 87}, {"time": 1254, "pitch": 45, "duration": 16, "velocity": 85}, {"time": 1254, "pitch": 57, "duration": 8, "velocity": 77}, {"time": 1254, "pitch": 60, "duration": 8, "velocity": 79}, {"time": 1260, "pitch": 52, "duration": 9, "velocity": 71}, {"time": 1266, "pitch": 57, "duration": 4, "velocity": 85}, {"time": 1266, "pitch": 60, "duration": 7, "velocity": 89}, {"time": 1266, "pitch": 64, "duration": 9, "velocity": 88}, {"time": 1272, "pitch": 57, "duration": 5, "velocity": 79}, {"time": 1278, "pitch": 45, "duration": 16, "velocity": 87}, {"time": 1278, "pitch": 60, "duration": 8, "velocity": 86}, {"time": 1278, "pitch": 64, "duration": 7, "velocity": 86}, {"time": 1284, "pitch": 52, "duration": 7, "velocity": 78}, {"time": 1290, "pitch": 55, "duration": 3, "velocity": 89}, {"time": 1290, "pitch": 60, "duration": 4, "velocity": 90}, {"time": 1290, "pitch": 64, "duration": 4, "velocity": 90}, {"time": 1293, "pitch": 52, "duration": 2, "velocity": 85}, {"time": 1296, "pitch": 55, "duration": 4, "velocity": 85}, {"time": 1299, "pitch": 60, "duration": 3, "velocity": 87}, {"time": 1302, "pitch": 38, "duration": 17, "velocity": 92}, {"time": 1305, "pitch": 45, "duration": 14, "velocity": 72}, {"time": 1308, "pitch": 50, "duration": 9, "velocity": 86}, {"time": 1311, "pitch": 54, "duration": 5, "velocity": 96}, {"time": 1317, "pitch": 50, "duration": 1, "velocity": 72}, {"time": 1317, "pitch": 54, "duration": 4, "velocity": 87}, {"time": 1317, "pitch": 62, "duration": 4, "velocity": 85}, {"time": 1320, "pitch": 50, "duration": 2, "velocity": 85}, {"time": 1326, "pitch": 39, "duration": 24, "velocity": 80}, {"time": 1326, "pitch": 51, "duration": 12, "velocity": 68}, {"time": 1326, "pitch": 54, "duration": 10, "velocity": 81}, {"time": 1326, "pitch": 59, "duration": 10, "velocity": 78}, {"time": 1338, "pitch": 54, "duration": 5, "velocity": 86}, {"time": 1338, "pitch": 59, "duration": 8, "velocity": 87}, {"time": 1341, "pitch": 51, "duration": 8, "velocity": 75}, {"time": 1344, "pitch": 54, "duration": 6, "velocity": 80}, {"time": 1350, "pitch": 36, "duration": 2, "velocity": 85}, {"time": 1350, "pitch": 55, "duration": 5, "velocity": 86}, {"time": 1350, "pitch": 64, "duration": 7, "velocity": 86}, {"time": 1356, "pitch": 48, "duration": 16, "velocity": 85}, {"time": 1359, "pitch": 55, "duration": 13, "velocity": 81}, {"time": 1362, "pitch": 62, "duration": 2, "velocity": 85}, {"time": 1365, "pitch": 60, "duration": 3, "velocity": 79}, {"time": 1365, "pitch": 62, "duration": 3, "velocity": 85}, {"time": 1365, "pitch": 67, "duration": 4, "velocity": 86}, {"time": 1371, "pitch": 60, "duration": 2, "velocity": 77}, {"time": 1374, "pitch": 48, "duration": 16, "velocity": 89}, {"time": 1374, "pitch": 60, "duration": 6, "velocity": 85}, {"time": 1374, "pitch": 67, "duration": 6, "velocity": 79}, {"time": 1380, "pitch": 55, "duration": 7, "velocity": 78}, {"time": 1386, "pitch": 60, "duration": 3, "velocity": 89}, {"time": 1386, "pitch": 64, "duration": 4, "velocity": 91}, {"time": 1386, "pitch": 67, "duration": 4, "velocity": 87}, {"time": 1389, "pitch": 55, "duration": 2, "velocity": 85}, {"time": 1392, "pitch": 60, "duration": 2, "velocity": 87}, {"time": 1398, "pitch": 47, "duration": 17, "velocity": 87}, {"time": 1398, "pitch": 57, "duration": 6, "velocity": 86}, {"time": 1398, "pitch": 62, "duration": 6, "velocity": 85}, {"time": 1404, "pitch": 54, "duration": 4, "velocity": 63}, {"time": 1407, "pitch": 57, "duration": 4, "velocity": 90}, {"time": 1407, "pitch": 66, "duration": 4, "velocity": 87}, {"time": 1410, "pitch": 54, "duration": 5, "velocity": 74}, {"time": 1413, "pitch": 57, "duration": 2, "velocity": 86}, {"time": 1413, "pitch": 62, "duration": 2, "velocity": 86}, {"time": 1419, "pitch": 57, "duration": 2, "velocity": 76}, {"time": 1422, "pitch": 47, "duration": 19, "velocity": 87}, {"time": 1422, "pitch": 57, "duration": 11, "velocity": 80}, {"time": 1422, "pitch": 62, "duration": 10, "velocity": 85}, {"time": 1428, "pitch": 54, "duration": 8, "velocity": 72}, {"time": 1434, "pitch": 57, "duration": 4, "velocity": 85}, {"time": 1434, "pitch": 62, "duration": 5, "velocity": 89}, {"time": 1434, "pitch": 66, "duration": 6, "velocity": 87}, {"time": 1437, "pitch": 54, "duration": 3, "velocity": 84}, {"time": 1440, "pitch": 57, "duration": 4, "velocity": 99}, {"time": 1446, "pitch": 45, "duration": 20, "velocity": 86}, {"time": 1446, "pitch": 57, "duration": 8, "velocity": 84}, {"time": 1446, "pitch": 60, "duration": 9, "velocity": 82}, {"time": 1452, "pitch": 52, "duration": 7, "velocity": 73}, {"time": 1458, "pitch": 55, "duration": 3, "velocity": 87}, {"time": 1458, "pitch": 60, "duration": 4, "velocity": 88}, {"time": 1458, "pitch": 64, "duration": 4, "velocity": 90}, {"time": 1461, "pitch": 52, "duration": 6, "velocity": 81}, {"time": 1464, "pitch": 55, "duration": 10, "velocity": 84}, {"time": 1467, "pitch": 60, "duration": 9, "velocity": 78}, {"time": 1470, "pitch": 45, "duration": 15, "velocity": 86}, {"time": 1473, "pitch": 52, "duration": 7, "velocity": 82}, {"time": 1476, "pitch": 55, "duration": 2, "velocity": 89}, {"time": 1479, "pitch": 55, "duration": 5, "velocity": 99}, {"time": 1479, "pitch": 60, "duration": 5, "velocity": 96}, {"time": 1482, "pitch": 52, "duration": 4, "velocity": 86}, {"time": 1485, "pitch": 55, "duration": 3, "velocity": 92}, {"time": 1485, "pitch": 60, "duration": 3, "velocity": 94}, {"time": 1485, "pitch": 64, "duration": 4, "velocity": 94}, {"time": 1488, "pitch": 45, "duration": 2, "velocity": 86}, {"time": 1491, "pitch": 55, "duration": 2, "velocity": 85}, {"time": 1491, "pitch": 60, "duration": 1, "velocity": 65}, {"time": 1494, "pitch": 38, "duration": 3, "velocity": 90}, {"time": 1494, "pitch": 57, "duration": 4, "velocity": 87}, {"time": 1494, "pitch": 62, "duration": 4, "velocity": 77}, {"time": 1500, "pitch": 50, "duration": 15, "velocity": 86}, {"time": 1500, "pitch": 57, "duration": 4, "velocity": 77}, {"time": 1500, "pitch": 62, "duration": 6, "velocity": 79}, {"time": 1506, "pitch": 54, "duration": 10, "velocity": 83}, {"time": 1509, "pitch": 64, "duration": 3, "velocity": 99}, {"time": 1512, "pitch": 57, "duration": 4, "velocity": 73}, {"time": 1515, "pitch": 62, "duration": 2, "velocity": 75}, {"time": 1518, "pitch": 50, "duration": 16, "velocity": 94}, {"time": 1518, "pitch": 62, "duration": 4, "velocity": 90}, {"time": 1518, "pitch": 66, "duration": 4, "velocity": 94}, {"time": 1521, "pitch": 57, "duration": 7, "velocity": 81}, {"time": 1524, "pitch": 66, "duration": 1, "velocity": 72}, {"time": 1524, "pitch": 69, "duration": 2, "velocity": 79}, {"time": 1527, "pitch": 62, "duration": 4, "velocity": 92}, {"time": 1527, "pitch": 66, "duration": 5, "velocity": 94}, {"time": 1527, "pitch": 69, "duration": 5, "velocity": 94}, {"time": 1527, "pitch": 74, "duration": 5, "velocity": 90}, {"time": 1530, "pitch": 57, "duration": 8, "velocity": 86}, {"time": 1533, "pitch": 62, "duration": 5, "velocity": 96}, {"time": 1536, "pitch": 50, "duration": 2, "velocity": 43}, {"time": 1536, "pitch": 54, "duration": 6, "velocity": 94}, {"time": 1539, "pitch": 62, "duration": 3, "velocity": 91}, {"time": 1542, "pitch": 48, "duration": 14, "velocity": 94}, {"time": 1542, "pitch": 55, "duration": 4, "velocity": 86}, {"time": 1542, "pitch": 60, "duration": 5, "velocity": 88}, {"time": 1548, "pitch": 55, "duration": 2, "velocity": 86}, {"time": 1554, "pitch": 55, "duration": 6, "velocity": 86}, {"time": 1554, "pitch": 60, "duration": 5, "velocity": 80}, {"time": 1554, "pitch": 64, "duration": 6, "velocity": 88}, {"time": 1563, "pitch": 55, "duration": 4, "velocity": 86}, {"time": 1563, "pitch": 60, "duration": 5, "velocity": 88}, {"time": 1563, "pitch": 64, "duration": 5, "velocity": 90}, {"time": 1566, "pitch": 48, "duration": 14, "velocity": 74}, {"time": 1569, "pitch": 55, "duration": 2, "velocity": 90}, {"time": 1572, "pitch": 55, "duration": 1, "velocity": 59}, {"time": 1572, "pitch": 60, "duration": 3, "velocity": 74}, {"time": 1575, "pitch": 55, "duration": 1, "velocity": 79}, {"time": 1578, "pitch": 55, "duration": 3, "velocity": 92}, {"time": 1578, "pitch": 62, "duration": 4, "velocity": 91}, {"time": 1581, "pitch": 48, "duration": 2, "velocity": 92}, {"time": 1584, "pitch": 55, "duration": 2, "velocity": 87}, {"time": 1584, "pitch": 60, "duration": 2, "velocity": 86}, {"time": 1590, "pitch": 47, "duration": 21, "velocity": 87}, {"time": 1590, "pitch": 57, "duration": 7, "velocity": 78}, {"time": 1590, "pitch": 62, "duration": 7, "velocity": 81}, {"time": 1596, "pitch": 54, "duration": 7, "velocity": 74}, {"time": 1602, "pitch": 57, "duration": 6, "velocity": 88}, {"time": 1602, "pitch": 62, "duration": 5, "velocity": 89}, {"time": 1602, "pitch": 66, "duration": 6, "velocity": 89}, {"time": 1608, "pitch": 54, "duration": 6, "velocity": 58}, {"time": 1611, "pitch": 57, "duration": 5, "velocity": 87}, {"time": 1611, "pitch": 62, "duration": 7, "velocity": 94}, {"time": 1614, "pitch": 47, "duration": 19, "velocity": 87}, {"time": 1617, "pitch": 54, "duration": 5, "velocity": 87}, {"time": 1620, "pitch": 57, "duration": 2, "velocity": 94}, {"time": 1623, "pitch": 54, "duration": 4, "velocity": 85}, {"time": 1626, "pitch": 57, "duration": 4, "velocity": 94}, {"time": 1626, "pitch": 62, "duration": 5, "velocity": 99}, {"time": 1629, "pitch": 54, "duration": 2, "velocity": 79}, {"time": 1632, "pitch": 57, "duration": 2, "velocity": 86}, {"time": 1638, "pitch": 48, "duration": 13, "velocity": 94}, {"time": 1638, "pitch": 55, "duration": 3, "velocity": 89}, {"time": 1638, "pitch": 60, "duration": 7, "velocity": 87}, {"time": 1644, "pitch": 55, "duration": 3, "velocity": 85}, {"time": 1650, "pitch": 55, "duration": 3, "velocity": 87}, {"time": 1650, "pitch": 60, "duration": 3, "velocity": 88}, {"time": 1650, "pitch": 64, "duration": 4, "velocity": 92}, {"time": 1653, "pitch": 48, "duration": 2, "velocity": 87}, {"time": 1656, "pitch": 55, "duration": 7, "velocity": 89}, {"time": 1659, "pitch": 60, "duration": 6, "velocity": 92}, {"time": 1662, "pitch": 36, "duration": 5, "velocity": 86}, {"time": 1665, "pitch": 55, "duration": 2, "velocity": 87}, {"time": 1668, "pitch": 60, "duration": 4, "velocity": 86}, {"time": 1671, "pitch": 55, "duration": 2, "velocity": 83}, {"time": 1674, "pitch": 48, "duration": 10, "velocity": 91}, {"time": 1674, "pitch": 55, "duration": 3, "velocity": 87}, {"time": 1674, "pitch": 60, "duration": 4, "velocity": 87}, {"time": 1680, "pitch": 55, "duration": 2, "velocity": 87}, {"time": 1680, "pitch": 62, "duration": 4, "velocity": 86}, {"time": 1683, "pitch": 55, "duration": 1, "velocity": 83}, {"time": 1686, "pitch": 47, "duration": 22, "velocity": 88}, {"time": 1686, "pitch": 57, "duration": 7, "velocity": 77}, {"time": 1686, "pitch": 62, "duration": 6, "velocity": 86}, {"time": 1692, "pitch": 54, "duration": 7, "velocity": 73}, {"time": 1698, "pitch": 57, "duration": 3, "velocity": 86}, {"time": 1698, "pitch": 62, "duration": 4, "velocity": 88}, {"time": 1698, "pitch": 66, "duration": 7, "velocity": 92}, {"time": 1701, "pitch": 54, "duration": 9, "velocity": 80}, {"time": 1704, "pitch": 57, "duration": 2, "velocity": 85}, {"time": 1707, "pitch": 57, "duration": 3, "velocity": 87}, {"time": 1707, "pitch": 62, "duration": 3, "velocity": 87}, {"time": 1710, "pitch": 38, "duration": 9, "velocity": 90}, {"time": 1710, "pitch": 57, "duration": 4, "velocity": 81}, {"time": 1710, "pitch": 60, "duration": 7, "velocity": 87}, {"time": 1710, "pitch": 65, "duration": 6, "velocity": 85}, {"time": 1713, "pitch": 45, "duration": 7, "velocity": 82}, {"time": 1716, "pitch": 57, "duration": 6, "velocity": 89}, {"time": 1719, "pitch": 65, "duration": 11, "velocity": 90}, {"time": 1722, "pitch": 43, "duration": 10, "velocity": 86}, {"time": 1725, "pitch": 50, "duration": 6, "velocity": 87}, {"time": 1728, "pitch": 55, "duration": 5, "velocity": 90}, {"time": 1731, "pitch": 59, "duration": 2, "velocity": 88}, {"time": 1734, "pitch": 48, "duration": 14, "velocity": 96}, {"time": 1734, "pitch": 55, "duration": 4, "velocity": 83}, {"time": 1734, "pitch": 60, "duration": 7, "velocity": 85}, {"time": 1740, "pitch": 55, "duration": 4, "velocity": 80}, {"time": 1746, "pitch": 55, "duration": 5, "velocity": 86}, {"time": 1746, "pitch": 60, "duration": 5, "velocity": 92}, {"time": 1746, "pitch": 64, "duration": 5, "velocity": 90}, {"time": 1755, "pitch": 55, "duration": 4, "velocity": 90}, {"time": 1755, "pitch": 60, "duration": 4, "velocity": 92}, {"time": 1758, "pitch": 48, "duration": 14, "velocity": 81}, {"time": 1761, "pitch": 64, "duration": 5, "velocity": 85}, {"time": 1764, "pitch": 55, "duration": 3, "velocity": 91}, {"time": 1767, "pitch": 60, "duration": 2, "velocity": 79}, {"time": 1770, "pitch": 55, "duration": 4, "velocity": 92}, {"time": 1770, "pitch": 60, "duration": 4, "velocity": 101}, {"time": 1773, "pitch": 48, "duration": 2, "velocity": 87}, {"time": 1776, "pitch": 55, "duration": 2, "velocity": 87}, {"time": 1782, "pitch": 47, "duration": 18, "velocity": 87}, {"time": 1782, "pitch": 57, "duration": 5, "velocity": 84}, {"time": 1782, "pitch": 62, "duration": 4, "velocity": 85}, {"time": 1788, "pitch": 54, "duration": 7, "velocity": 74}, {"time": 1794, "pitch": 57, "duration": 4, "velocity": 87}, {"time": 1794, "pitch": 62, "duration": 5, "velocity": 88}, {"time": 1794, "pitch": 66, "duration": 9, "velocity": 88}, {"time": 1797, "pitch": 54, "duration": 3, "velocity": 75}, {"time": 1800, "pitch": 57, "duration": 4, "velocity": 88}, {"time": 1803, "pitch": 62, "duration": 4, "velocity": 82}, {"time": 1806, "pitch": 40, "duration": 17, "velocity": 90}, {"time": 1806, "pitch": 64, "duration": 7, "velocity": 85}, {"time": 1809, "pitch": 47, "duration": 10, "velocity": 76}, {"time": 1812, "pitch": 52, "duration": 4, "velocity": 89}, {"time": 1818, "pitch": 52, "duration": 4, "velocity": 94}, {"time": 1818, "pitch": 59, "duration": 7, "velocity": 88}, {"time": 1821, "pitch": 47, "duration": 2, "velocity": 85}, {"time": 1824, "pitch": 52, "duration": 2, "velocity": 87}, {"time": 1830, "pitch": 45, "duration": 16, "velocity": 85}, {"time": 1830, "pitch": 57, "duration": 8, "velocity": 77}, {"time": 1830, "pitch": 60, "duration": 8, "velocity": 79}, {"time": 1836, "pitch": 52, "duration": 9, "velocity": 71}, {"time": 1842, "pitch": 57, "duration": 4, "velocity": 85}, {"time": 1842, "pitch": 60, "duration": 7, "velocity": 89}, {"time": 1842, "pitch": 64, "duration": 9, "velocity": 88}, {"time": 1848, "pitch": 57, "duration": 5, "velocity": 79}, {"time": 1854, "pitch": 45, "duration": 16, "velocity": 87}, {"time": 1854, "pitch": 60, "duration": 8, "velocity": 86}, {"time": 1854, "pitch": 64, "duration": 7, "velocity": 86}, {"time": 1860, "pitch": 52, "duration": 7, "velocity": 78}, {"time": 1866, "pitch": 55, "duration": 3, "velocity": 89}, {"time": 1866, "pitch": 60, "duration": 4, "velocity": 90}, {"time": 1866, "pitch": 64, "duration": 4, "velocity": 90}, {"time": 1869, "pitch": 52, "duration": 2, "velocity": 85}, {"time": 1872, "pitch": 55, "duration": 4, "velocity": 85}, {"time": 1875, "pitch": 60, "duration": 3, "velocity": 87}, {"time": 1878, "pitch": 38, "duration": 17, "velocity": 92}, {"time": 1881, "pitch": 45, "duration": 14, "velocity": 72}, {"time": 1884, "pitch": 50, "duration": 9, "velocity": 86}, {"time": 1887, "pitch": 54, "duration": 5, "velocity": 96}, {"time": 1893, "pitch": 50, "duration": 1, "velocity": 72}, {"time": 1893, "pitch": 54, "duration": 4, "velocity": 87}, {"time": 1893, "pitch": 62, "duration": 4, "velocity": 85}, {"time": 1896, "pitch": 50, "duration": 2, "velocity": 85}, {"time": 1902, "pitch": 38, "duration": 2, "velocity": 89}, {"time": 1902, "pitch": 50, "duration": 4, "velocity": 82}, {"time": 1902, "pitch": 54, "duration": 4, "velocity": 72}, {"time": 1902, "pitch": 57, "duration": 5, "velocity": 75}, {"time": 1902, "pitch": 62, "duration": 7, "velocity": 81}, {"time": 1908, "pitch": 50, "duration": 13, "velocity": 87}, {"time": 1911, "pitch": 57, "duration": 7, "velocity": 90}, {"time": 1914, "pitch": 62, "duration": 5, "velocity": 96}, {"time": 1917, "pitch": 66, "duration": 2, "velocity": 101}, {"time": 1920, "pitch": 57, "duration": 2, "velocity": 86}, {"time": 1926, "pitch": 39, "duration": 4, "velocity": 80}, {"time": 1926, "pitch": 46, "duration": 4, "velocity": 79}, {"time": 1926, "pitch": 63, "duration": 5, "velocity": 83}, {"time": 1926, "pitch": 75, "duration": 5, "velocity": 72}, {"time": 1932, "pitch": 39, "duration": 3, "velocity": 80}, {"time": 1932, "pitch": 46, "duration": 4, "velocity": 81}, {"time": 1932, "pitch": 63, "duration": 4, "velocity": 86}, {"time": 1932, "pitch": 75, "duration": 4, "velocity": 78}, {"time": 1938, "pitch": 39, "duration": 4, "velocity": 85}, {"time": 1938, "pitch": 46, "duration": 4, "velocity": 86}, {"time": 1938, "pitch": 63, "duration": 4, "velocity": 86}, {"time": 1938, "pitch": 75, "duration": 4, "velocity": 79}, {"time": 1944, "pitch": 39, "duration": 4, "velocity": 87}, {"time": 1944, "pitch": 46, "duration": 4, "velocity": 87}, {"time": 1944, "pitch": 63, "duration": 5, "velocity": 89}, {"time": 1944, "pitch": 75, "duration": 5, "velocity": 86}, {"time": 1950, "pitch": 39, "duration": 36, "velocity": 90}, {"time": 1950, "pitch": 46, "duration": 36, "velocity": 92}, {"time": 1950, "pitch": 63, "duration": 30, "velocity": 101}, {"time": 1950, "pitch": 75, "duration": 28, "velocity": 87}, {"time": 1998, "pitch": 44, "duration": 21, "velocity": 85}, {"time": 1998, "pitch": 56, "duration": 7, "velocity": 75}, {"time": 1998, "pitch": 63, "duration": 6, "velocity": 78}, {"time": 2004, "pitch": 51, "duration": 7, "velocity": 68}, {"time": 2010, "pitch": 56, "duration": 3, "velocity": 85}, {"time": 2010, "pitch": 60, "duration": 3, "velocity": 87}, {"time": 2010, "pitch": 63, "duration": 4, "velocity": 85}, {"time": 2013, "pitch": 51, "duration": 5, "velocity": 68}, {"time": 2016, "pitch": 58, "duration": 4, "velocity": 71}, {"time": 2019, "pitch": 60, "duration": 8, "velocity": 81}, {"time": 2022, "pitch": 44, "duration": 16, "velocity": 86}, {"time": 2028, "pitch": 51, "duration": 7, "velocity": 67}, {"time": 2034, "pitch": 56, "duration": 3, "velocity": 81}, {"time": 2034, "pitch": 60, "duration": 3, "velocity": 86}, {"time": 2034, "pitch": 63, "duration": 4, "velocity": 85}, {"time": 2040, "pitch": 44, "duration": 3, "velocity": 86}, {"time": 2046, "pitch": 48, "duration": 21, "velocity": 87}, {"time": 2046, "pitch": 58, "duration": 8, "velocity": 76}, {"time": 2046, "pitch": 63, "duration": 9, "velocity": 77}, {"time": 2052, "pitch": 55, "duration": 7, "velocity": 72}, {"time": 2058, "pitch": 58, "duration": 3, "velocity": 85}, {"time": 2058, "pitch": 63, "duration": 3, "velocity": 87}, {"time": 2058, "pitch": 67, "duration": 5, "velocity": 85}, {"time": 2061, "pitch": 55, "duration": 7, "velocity": 66}, {"time": 2064, "pitch": 63, "duration": 4, "velocity": 80}, {"time": 2067, "pitch": 67, "duration": 4, "velocity": 78}, {"time": 2070, "pitch": 48, "duration": 19, "velocity": 88}, {"time": 2070, "pitch": 63, "duration": 7, "velocity": 79}, {"time": 2076, "pitch": 55, "duration": 7, "velocity": 70}, {"time": 2082, "pitch": 58, "duration": 7, "velocity": 86}, {"time": 2082, "pitch": 63, "duration": 7, "velocity": 88}, {"time": 2088, "pitch": 55, "duration": 2, "velocity": 80}, {"time": 2094, "pitch": 46, "duration": 22, "velocity": 85}, {"time": 2094, "pitch": 56, "duration": 7, "velocity": 86}, {"time": 2094, "pitch": 61, "duration": 7, "velocity": 79}, {"time": 2100, "pitch": 53, "duration": 7, "velocity": 70}, {"time": 2106, "pitch": 56, "duration": 4, "velocity": 85}, {"time": 2106, "pitch": 61, "duration": 4, "velocity": 88}, {"time": 2106, "pitch": 65, "duration": 4, "velocity": 86}, {"time": 2109, "pitch": 53, "duration": 7, "velocity": 85}, {"time": 2112, "pitch": 56, "duration": 5, "velocity": 87}, {"time": 2118, "pitch": 46, "duration": 16, "velocity": 86}, {"time": 2118, "pitch": 56, "duration": 8, "velocity": 81}, {"time": 2118, "pitch": 61, "duration": 8, "velocity": 81}, {"time": 2124, "pitch": 53, "duration": 10, "velocity": 67}, {"time": 2130, "pitch": 56, "duration": 5, "velocity": 88}, {"time": 2130, "pitch": 61, "duration": 5, "velocity": 89}, {"time": 2136, "pitch": 46, "duration": 3, "velocity": 86}, {"time": 2142, "pitch": 39, "duration": 2, "velocity": 87}, {"time": 2142, "pitch": 58, "duration": 4, "velocity": 76}, {"time": 2142, "pitch": 63, "duration": 6, "velocity": 81}, {"time": 2148, "pitch": 51, "duration": 15, "velocity": 73}, {"time": 2154, "pitch": 63, "duration": 3, "velocity": 87}, {"time": 2154, "pitch": 67, "duration": 6, "velocity": 90}, {"time": 2157, "pitch": 58, "duration": 6, "velocity": 74}, {"time": 2160, "pitch": 63, "duration": 5, "velocity": 79}, {"time": 2163, "pitch": 67, "duration": 2, "velocity": 77}, {"time": 2166, "pitch": 51, "duration": 16, "velocity": 91}, {"time": 2166, "pitch": 63, "duration": 5, "velocity": 80}, {"time": 2166, "pitch": 67, "duration": 5, "velocity": 81}, {"time": 2166, "pitch": 70, "duration": 5, "velocity": 81}, {"time": 2172, "pitch": 58, "duration": 7, "velocity": 74}, {"time": 2175, "pitch": 63, "duration": 2, "velocity": 81}, {"time": 2178, "pitch": 63, "duration": 3, "velocity": 90}, {"time": 2178, "pitch": 75, "duration": 4, "velocity": 89}, {"time": 2181, "pitch": 58, "duration": 2, "velocity": 85}, {"time": 2184, "pitch": 63, "duration": 2, "velocity": 90}, {"time": 2190, "pitch": 44, "duration": 18, "velocity": 86}, {"time": 2190, "pitch": 56, "duration": 6, "velocity": 80}, {"time": 2190, "pitch": 63, "duration": 6, "velocity": 81}, {"time": 2196, "pitch": 51, "duration": 8, "velocity": 71}, {"time": 2202, "pitch": 58, "duration": 3, "velocity": 86}, {"time": 2202, "pitch": 63, "duration": 3, "velocity": 87}, {"time": 2205, "pitch": 51, "duration": 3, "velocity": 73}, {"time": 2208, "pitch": 56, "duration": 4, "velocity": 87}, {"time": 2214, "pitch": 44, "duration": 17, "velocity": 85}, {"time": 2214, "pitch": 56, "duration": 7, "velocity": 80}, {"time": 2214, "pitch": 60, "duration": 7, "velocity": 74}, {"time": 2214, "pitch": 63, "duration": 6, "velocity": 80}, {"time": 2220, "pitch": 51, "duration": 7, "velocity": 70}, {"time": 2226, "pitch": 56, "duration": 3, "velocity": 90}, {"time": 2226, "pitch": 60, "duration": 4, "velocity": 91}, {"time": 2226, "pitch": 63, "duration": 4, "velocity": 91}, {"time": 2229, "pitch": 51, "duration": 2, "velocity": 87}, {"time": 2232, "pitch": 44, "duration": 2, "velocity": 86}, {"time": 2238, "pitch": 48, "duration": 22, "velocity": 87}, {"time": 2238, "pitch": 58, "duration": 8, "velocity": 78}, {"time": 2238, "pitch": 63, "duration": 8, "velocity": 81}, {"time": 2244, "pitch": 55, "duration": 8, "velocity": 75}, {"time": 2250, "pitch": 58, "duration": 6, "velocity": 86}, {"time": 2250, "pitch": 63, "duration": 6, "velocity": 91}, {"time": 2250, "pitch": 67, "duration": 7, "velocity": 86}, {"time": 2256, "pitch": 55, "duration": 6, "velocity": 71}, {"time": 2259, "pitch": 58, "duration": 11, "velocity": 80}, {"time": 2262, "pitch": 48, "duration": 19, "velocity": 87}, {"time": 2262, "pitch": 63, "duration": 8, "velocity": 85}, {"time": 2268, "pitch": 55, "duration": 7, "velocity": 69}, {"time": 2274, "pitch": 58, "duration": 3, "velocity": 86}, {"time": 2274, "pitch": 63, "duration": 6, "velocity": 87}, {"time": 2274, "pitch": 67, "duration": 7, "velocity": 86}, {"time": 2277, "pitch": 55, "duration": 2, "velocity": 70}, {"time": 2280, "pitch": 58, "duration": 3, "velocity": 86}, {"time": 2286, "pitch": 46, "duration": 16, "velocity": 85}, {"time": 2286, "pitch": 56, "duration": 9, "velocity": 86}, {"time": 2286, "pitch": 61, "duration": 8, "velocity": 80}, {"time": 2292, "pitch": 53, "duration": 7, "velocity": 67}, {"time": 2298, "pitch": 56, "duration": 3, "velocity": 87}, {"time": 2298, "pitch": 61, "duration": 4, "velocity": 87}, {"time": 2298, "pitch": 65, "duration": 7, "velocity": 90}, {"time": 2301, "pitch": 53, "duration": 4, "velocity": 83}, {"time": 2304, "pitch": 56, "duration": 4, "velocity": 86}, {"time": 2307, "pitch": 61, "duration": 3, "velocity": 81}, {"time": 2310, "pitch": 51, "duration": 15, "velocity": 85}, {"time": 2310, "pitch": 58, "duration": 4, "velocity": 80}, {"time": 2310, "pitch": 63, "duration": 5, "velocity": 83}, {"time": 2316, "pitch": 58, "duration": 3, "velocity": 78}, {"time": 2322, "pitch": 58, "duration": 2, "velocity": 85}, {"time": 2322, "pitch": 63, "duration": 6, "velocity": 86}, {"time": 2322, "pitch": 67, "duration": 6, "velocity": 86}, {"time": 2328, "pitch": 58, "duration": 2, "velocity": 81}, {"time": 2332, "pitch": 63, "duration": 10, "velocity": 75}, {"time": 2334, "pitch": 60, "duration": 7, "velocity": 75}, {"time": 2334, "pitch": 44, "duration": 18, "velocity": 85}, {"time": 2334, "pitch": 56, "duration": 8, "velocity": 82}, {"time": 2339, "pitch": 51, "duration": 9, "velocity": 71}, {"time": 2346, "pitch": 63, "duration": 4, "velocity": 81}, {"time": 2346, "pitch": 56, "duration": 6, "velocity": 82}, {"time": 2352, "pitch": 51, "duration": 5, "velocity": 73}, {"time": 2356, "pitch": 56, "duration": 11, "velocity": 80}, {"time": 2357, "pitch": 60, "duration": 14, "velocity": 78}, {"time": 2358, "pitch": 44, "duration": 15, "velocity": 81}, {"time": 2358, "pitch": 63, "duration": 15, "velocity": 81}, {"time": 2359, "pitch": 68, "duration": 14, "velocity": 76}, {"time": 2365, "pitch": 51, "duration": 8, "velocity": 70}, {"time": 2383, "pitch": 46, "duration": 26, "velocity": 86}, {"time": 2386, "pitch": 53, "duration": 23, "velocity": 82}, {"time": 2388, "pitch": 56, "duration": 5, "velocity": 82}, {"time": 2390, "pitch": 61, "duration": 5, "velocity": 76}, {"time": 2393, "pitch": 65, "duration": 6, "velocity": 76}, {"time": 2395, "pitch": 58, "duration": 13, "velocity": 70}, {"time": 2398, "pitch": 61, "duration": 11, "velocity": 80}, {"time": 2401, "pitch": 65, "duration": 8, "velocity": 80}, {"time": 2405, "pitch": 70, "duration": 6, "velocity": 60}, {"time": 2422, "pitch": 58, "duration": 12, "velocity": 72}, {"time": 2423, "pitch": 48, "duration": 18, "velocity": 86}, {"time": 2423, "pitch": 63, "duration": 13, "velocity": 82}, {"time": 2424, "pitch": 67, "duration": 15, "velocity": 73}, {"time": 2432, "pitch": 55, "duration": 7, "velocity": 75}, {"time": 2436, "pitch": 58, "duration": 7, "velocity": 79}, {"time": 2439, "pitch": 63, "duration": 4, "velocity": 85}, {"time": 2442, "pitch": 67, "duration": 6, "velocity": 86}, {"time": 2448, "pitch": 41, "duration": 15, "velocity": 85}, {"time": 2450, "pitch": 48, "duration": 12, "velocity": 80}, {"time": 2451, "pitch": 65, "duration": 2, "velocity": 75}, {"time": 2452, "pitch": 68, "duration": 14, "velocity": 74}, {"time": 2475, "pitch": 46, "duration": 38, "velocity": 84}, {"time": 2478, "pitch": 53, "duration": 34, "velocity": 79}, {"time": 2479, "pitch": 56, "duration": 11, "velocity": 73}, {"time": 2480, "pitch": 61, "duration": 10, "velocity": 75}, {"time": 2481, "pitch": 65, "duration": 10, "velocity": 74}, {"time": 2495, "pitch": 61, "duration": 3, "velocity": 86}, {"time": 2495, "pitch": 56, "duration": 4, "velocity": 83}, {"time": 2501, "pitch": 60, "duration": 5, "velocity": 77}, {"time": 2501, "pitch": 56, "duration": 4, "velocity": 79}, {"time": 2508, "pitch": 58, "duration": 6, "velocity": 73}, {"time": 2525, "pitch": 58, "duration": 3, "velocity": 70}, {"time": 2525, "pitch": 48, "duration": 55, "velocity": 85}, {"time": 2526, "pitch": 63, "duration": 23, "velocity": 75}, {"time": 2526, "pitch": 67, "duration": 40, "velocity": 77}, {"time": 2561, "pitch": 55, "duration": 17, "velocity": 39}, {"time": 2565, "pitch": 63, "duration": 5, "velocity": 80}, {"time": 2569, "pitch": 60, "duration": 5, "velocity": 87}, {"time": 2573, "pitch": 63, "duration": 9, "velocity": 72}, {"time": 2578, "pitch": 60, "duration": 4, "velocity": 43}, {"time": 2592, "pitch": 44, "duration": 86, "velocity": 80}, {"time": 2595, "pitch": 51, "duration": 83, "velocity": 72}, {"time": 2598, "pitch": 56, "duration": 3, "velocity": 85}, {"time": 2601, "pitch": 67, "duration": 1, "velocity": 92}, {"time": 2604, "pitch": 63, "duration": 3, "velocity": 83}, {"time": 2607, "pitch": 56, "duration": 3, "velocity": 80}, {"time": 2611, "pitch": 60, "duration": 4, "velocity": 63}, {"time": 2615, "pitch": 56, "duration": 4, "velocity": 70}, {"time": 2619, "pitch": 63, "duration": 1, "velocity": 80}, {"time": 2623, "pitch": 67, "duration": 2, "velocity": 75}, {"time": 2627, "pitch": 70, "duration": 2, "velocity": 74}, {"time": 2631, "pitch": 72, "duration": 4, "velocity": 62}, {"time": 2635, "pitch": 75, "duration": 2, "velocity": 78}, {"time": 2640, "pitch": 79, "duration": 2, "velocity": 80}, {"time": 2646, "pitch": 77, "duration": 6, "velocity": 75}, {"time": 2652, "pitch": 82, "duration": 2, "velocity": 74}, {"time": 2661, "pitch": 79, "duration": 1, "velocity": 64}, {"time": 2662, "pitch": 87, "duration": 1, "velocity": 83}], "annotations": [{"time": 27, "annotation": {"number": 64, "value": 127}, "group": "control_change"}, {"time": 40, "annotation": {"number": 64, "value": 0}, "group": "control_change"}, {"time": 42, "annotation": {"number": 64, "value": 127}, "group": "control_change"}, {"time": 54, "annotation": {"number": 64, "value": 0}, "group": "control_change"}, {"time": 56, "annotation": {"number": 64, "value": 127}, "group": "control_change"}, {"time": 75, "annotation": {"number": 64, "value": 0}, "group": "control_change"}, {"time": 87, "annotation": {"number": 64, "value": 127}, "group": "control_change"}, {"time": 88, "annotation": {"number": 64, "value": 0}, "group": "control_change"}, {"time": 88, "annotation": {"number": 64, "value": 127}, "group": "control_change"}, {"time": 100, "annotation": {"number": 64, "value": 0}, "group": "control_change"}, {"time": 102, "annotation": {"number": 64, "value": 127}, "group": "control_change"}, {"time": 112, "annotation": {"number": 64, "value": 0}, "group": "control_change"}, {"time": 115, "annotation": {"number": 64, "value": 127}, "group": "control_change"}, {"time": 137, "annotation": {"number": 64, "value": 0}, "group": "control_change"}, {"time": 141, "annotation": {"number": 64, "value": 127}, "group": "control_change"}, {"time": 160, "annotation": {"number": 64, "value": 127}, "group": "control_change"}, {"time": 160, "annotation": {"number": 64, "value": 0}, "group": "control_change"}, {"time": 183, "annotation": {"number": 64, "value": 0}, "group": "control_change"}, {"time": 244, "annotation": {"number": 64, "value": 0}, "group": "control_change"}, {"time": 246, "annotation": {"number": 64, "value": 127}, "group": "control_change"}, {"time": 293, "annotation": {"number": 64, "value": 0}, "group": "control_change"}, {"time": 296, "annotation": {"number": 64, "value": 127}, "group": "control_change"}, {"time": 341, "annotation": {"number": 64, "value": 0}, "group": "control_change"}, {"time": 343, "annotation": {"number": 64, "value": 127}, "group": "control_change"}, {"time": 367, "annotation": {"number": 64, "value": 0}, "group": "control_change"}, {"time": 368, "annotation": {"number": 64, "value": 127}, "group": "control_change"}, {"time": 389, "annotation": {"number": 64, "value": 0}, "group": "control_change"}, {"time": 392, "annotation": {"number": 64, "value": 127}, "group": "control_change"}, {"time": 435, "annotation": {"number": 64, "value": 0}, "group": "control_change"}, {"time": 437, "annotation": {"number": 64, "value": 127}, "group": "control_change"}, {"time": 461, "annotation": {"number": 64, "value": 0}, "group": "control_change"}, {"time": 461, "annotation": {"number": 64, "value": 127}, "group": "control_change"}, {"time": 485, "annotation": {"number": 64, "value": 0}, "group": "control_change"}, {"time": 485, "annotation": {"number": 64, "value": 127}, "group": "control_change"}, {"time": 486, "annotation": {"number": 64, "value": 127}, "group": "control_change"}, {"time": 509, "annotation": {"number": 64, "value": 0}, "group": "control_change"}, {"time": 511, "annotation": {"number": 64, "value": 127}, "group": "control_change"}, {"time": 533, "annotation": {"number": 64, "value": 0}, "group": "control_change"}, {"time": 538, "annotation": {"number": 64, "value": 127}, "group": "control_change"}, {"time": 578, "annotation": {"number": 64, "value": 0}, "group": "control_change"}, {"time": 583, "annotation": {"number": 64, "value": 127}, "group": "control_change"}, {"time": 604, "annotation": {"number": 64, "value": 0}, "group": "control_change"}, {"time": 606, "annotation": {"number": 64, "value": 127}, "group": "control_change"}, {"time": 629, "annotation": {"number": 64, "value": 0}, "group": "control_change"}, {"time": 630, "annotation": {"number": 64, "value": 127}, "group": "control_change"}, {"time": 652, "annotation": {"number": 64, "value": 0}, "group": "control_change"}, {"time": 654, "annotation": {"number": 64, "value": 127}, "group": "control_change"}, {"time": 676, "annotation": {"number": 64, "value": 0}, "group": "control_change"}, {"time": 679, "annotation": {"number": 64, "value": 127}, "group": "control_change"}, {"time": 701, "annotation": {"number": 64, "value": 0}, "group": "control_change"}, {"time": 703, "annotation": {"number": 64, "value": 127}, "group": "control_change"}, {"time": 724, "annotation": {"number": 64, "value": 0}, "group": "control_change"}, {"time": 726, "annotation": {"number": 64, "value": 127}, "group": "control_change"}, {"time": 749, "annotation": {"number": 64, "value": 0}, "group": "control_change"}, {"time": 750, "annotation": {"number": 64, "value": 127}, "group": "control_change"}, {"time": 773, "annotation": {"number": 64, "value": 0}, "group": "control_change"}, {"time": 775, "annotation": {"number": 64, "value": 127}, "group": "control_change"}, {"time": 797, "annotation": {"number": 64, "value": 0}, "group": "control_change"}, {"time": 799, "annotation": {"number": 64, "value": 127}, "group": "control_change"}, {"time": 821, "annotation": {"number": 64, "value": 0}, "group": "control_change"}, {"time": 822, "annotation": {"number": 64, "value": 127}, "group": "control_change"}, {"time": 845, "annotation": {"number": 64, "value": 0}, "group": "control_change"}, {"time": 846, "annotation": {"number": 64, "value": 127}, "group": "control_change"}, {"time": 869, "annotation": {"number": 64, "value": 0}, "group": "control_change"}, {"time": 871, "annotation": {"number": 64, "value": 127}, "group": "control_change"}, {"time": 892, "annotation": {"number": 64, "value": 0}, "group": "control_change"}, {"time": 894, "annotation": {"number": 64, "value": 127}, "group": "control_change"}, {"time": 917, "annotation": {"number": 64, "value": 0}, "group": "control_change"}, {"time": 919, "annotation": {"number": 64, "value": 127}, "group": "control_change"}, {"time": 941, "annotation": {"number": 64, "value": 0}, "group": "control_change"}, {"time": 943, "annotation": {"number": 64, "value": 127}, "group": "control_change"}, {"time": 963, "annotation": {"number": 64, "value": 0}, "group": "control_change"}, {"time": 988, "annotation": {"number": 64, "value": 0}, "group": "control_change"}, {"time": 990, "annotation": {"number": 64, "value": 127}, "group": "control_change"}, {"time": 1013, "annotation": {"number": 64, "value": 0}, "group": "control_change"}, {"time": 1015, "annotation": {"number": 64, "value": 127}, "group": "control_change"}, {"time": 1036, "annotation": {"number": 64, "value": 0}, "group": "control_change"}, {"time": 1038, "annotation": {"number": 64, "value": 127}, "group": "control_change"}, {"time": 1060, "annotation": {"number": 64, "value": 0}, "group": "control_change"}, {"time": 1062, "annotation": {"number": 64, "value": 127}, "group": "control_change"}, {"time": 1085, "annotation": {"number": 64, "value": 0}, "group": "control_change"}, {"time": 1087, "annotation": {"number": 64, "value": 127}, "group": "control_change"}, {"time": 1109, "annotation": {"number": 64, "value": 0}, "group": "control_change"}, {"time": 1111, "annotation": {"number": 64, "value": 127}, "group": "control_change"}, {"time": 1134, "annotation": {"number": 64, "value": 0}, "group": "control_change"}, {"time": 1135, "annotation": {"number": 64, "value": 127}, "group": "control_change"}, {"time": 1145, "annotation": {"number": 64, "value": 0}, "group": "control_change"}, {"time": 1147, "annotation": {"number": 64, "value": 127}, "group": "control_change"}, {"time": 1156, "annotation": {"number": 64, "value": 0}, "group": "control_change"}, {"time": 1158, "annotation": {"number": 64, "value": 127}, "group": "control_change"}, {"time": 1180, "annotation": {"number": 64, "value": 0}, "group": "control_change"}, {"time": 1182, "annotation": {"number": 64, "value": 127}, "group": "control_change"}, {"time": 1205, "annotation": {"number": 64, "value": 0}, "group": "control_change"}, {"time": 1207, "annotation": {"number": 64, "value": 127}, "group": "control_change"}, {"time": 1229, "annotation": {"number": 64, "value": 0}, "group": "control_change"}, {"time": 1232, "annotation": {"number": 64, "value": 127}, "group": "control_change"}, {"time": 1252, "annotation": {"number": 64, "value": 0}, "group": "control_change"}, {"time": 1258, "annotation": {"number": 64, "value": 127}, "group": "control_change"}, {"time": 1279, "annotation": {"number": 64, "value": 127}, "group": "control_change"}, {"time": 1279, "annotation": {"number": 64, "value": 0}, "group": "control_change"}, {"time": 1300, "annotation": {"number": 64, "value": 0}, "group": "control_change"}, {"time": 1303, "annotation": {"number": 64, "value": 127}, "group": "control_change"}, {"time": 1325, "annotation": {"number": 64, "value": 0}, "group": "control_change"}, {"time": 1327, "annotation": {"number": 64, "value": 127}, "group": "control_change"}, {"time": 1346, "annotation": {"number": 64, "value": 0}, "group": "control_change"}, {"time": 1350, "annotation": {"number": 64, "value": 127}, "group": "control_change"}, {"time": 1372, "annotation": {"number": 64, "value": 0}, "group": "control_change"}, {"time": 1374, "annotation": {"number": 64, "value": 127}, "group": "control_change"}, {"time": 1396, "annotation": {"number": 64, "value": 0}, "group": "control_change"}, {"time": 1398, "annotation": {"number": 64, "value": 127}, "group": "control_change"}, {"time": 1419, "annotation": {"number": 64, "value": 0}, "group": "control_change"}, {"time": 1421, "annotation": {"number": 64, "value": 0}, "group": "control_change"}, {"time": 1422, "annotation": {"number": 64, "value": 127}, "group": "control_change"}, {"time": 1443, "annotation": {"number": 64, "value": 0}, "group": "control_change"}, {"time": 1445, "annotation": {"number": 64, "value": 0}, "group": "control_change"}, {"time": 1446, "annotation": {"number": 64, "value": 127}, "group": "control_change"}, {"time": 1447, "annotation": {"number": 64, "value": 127}, "group": "control_change"}, {"time": 1466, "annotation": {"number": 64, "value": 0}, "group": "control_change"}, {"time": 1469, "annotation": {"number": 64, "value": 127}, "group": "control_change"}, {"time": 1470, "annotation": {"number": 64, "value": 0}, "group": "control_change"}, {"time": 1471, "annotation": {"number": 64, "value": 127}, "group": "control_change"}, {"time": 1492, "annotation": {"number": 64, "value": 0}, "group": "control_change"}, {"time": 1493, "annotation": {"number": 64, "value": 127}, "group": "control_change"}, {"time": 1494, "annotation": {"number": 64, "value": 127}, "group": "control_change"}, {"time": 1516, "annotation": {"number": 64, "value": 0}, "group": "control_change"}, {"time": 1518, "annotation": {"number": 64, "value": 127}, "group": "control_change"}, {"time": 1539, "annotation": {"number": 64, "value": 0}, "group": "control_change"}, {"time": 1540, "annotation": {"number": 64, "value": 0}, "group": "control_change"}, {"time": 1564, "annotation": {"number": 64, "value": 0}, "group": "control_change"}, {"time": 1566, "annotation": {"number": 64, "value": 127}, "group": "control_change"}, {"time": 1589, "annotation": {"number": 64, "value": 0}, "group": "control_change"}, {"time": 1591, "annotation": {"number": 64, "value": 127}, "group": "control_change"}, {"time": 1612, "annotation": {"number": 64, "value": 0}, "group": "control_change"}, {"time": 1614, "annotation": {"number": 64, "value": 127}, "group": "control_change"}, {"time": 1636, "annotation": {"number": 64, "value": 0}, "group": "control_change"}, {"time": 1638, "annotation": {"number": 64, "value": 127}, "group": "control_change"}, {"time": 1661, "annotation": {"number": 64, "value": 0}, "group": "control_change"}, {"time": 1663, "annotation": {"number": 64, "value": 127}, "group": "control_change"}, {"time": 1685, "annotation": {"number": 64, "value": 0}, "group": "control_change"}, {"time": 1687, "annotation": {"number": 64, "value": 127}, "group": "control_change"}, {"time": 1710, "annotation": {"number": 64, "value": 0}, "group": "control_change"}, {"time": 1711, "annotation": {"number": 64, "value": 127}, "group": "control_change"}, {"time": 1721, "annotation": {"number": 64, "value": 0}, "group": "control_change"}, {"time": 1723, "annotation": {"number": 64, "value": 127}, "group": "control_change"}, {"time": 1732, "annotation": {"number": 64, "value": 0}, "group": "control_change"}, {"time": 1734, "annotation": {"number": 64, "value": 127}, "group": "control_change"}, {"time": 1756, "annotation": {"number": 64, "value": 0}, "group": "control_change"}, {"time": 1758, "annotation": {"number": 64, "value": 127}, "group": "control_change"}, {"time": 1781, "annotation": {"number": 64, "value": 0}, "group": "control_change"}, {"time": 1783, "annotation": {"number": 64, "value": 127}, "group": "control_change"}, {"time": 1805, "annotation": {"number": 64, "value": 0}, "group": "control_change"}, {"time": 1808, "annotation": {"number": 64, "value": 127}, "group": "control_change"}, {"time": 1828, "annotation": {"number": 64, "value": 0}, "group": "control_change"}, {"time": 1834, "annotation": {"number": 64, "value": 127}, "group": "control_change"}, {"time": 1855, "annotation": {"number": 64, "value": 127}, "group": "control_change"}, {"time": 1855, "annotation": {"number": 64, "value": 0}, "group": "control_change"}, {"time": 1876, "annotation": {"number": 64, "value": 0}, "group": "control_change"}, {"time": 1879, "annotation": {"number": 64, "value": 127}, "group": "control_change"}, {"time": 1901, "annotation": {"number": 64, "value": 0}, "group": "control_change"}, {"time": 1924, "annotation": {"number": 64, "value": 0}, "group": "control_change"}, {"time": 1925, "annotation": {"number": 64, "value": 127}, "group": "control_change"}, {"time": 1935, "annotation": {"number": 64, "value": 0}, "group": "control_change"}, {"time": 1938, "annotation": {"number": 64, "value": 127}, "group": "control_change"}, {"time": 1949, "annotation": {"number": 64, "value": 0}, "group": "control_change"}, {"time": 1950, "annotation": {"number": 64, "value": 127}, "group": "control_change"}, {"time": 1992, "annotation": {"number": 64, "value": 0}, "group": "control_change"}, {"time": 1999, "annotation": {"number": 64, "value": 127}, "group": "control_change"}, {"time": 2020, "annotation": {"number": 64, "value": 0}, "group": "control_change"}, {"time": 2022, "annotation": {"number": 64, "value": 127}, "group": "control_change"}, {"time": 2045, "annotation": {"number": 64, "value": 0}, "group": "control_change"}, {"time": 2046, "annotation": {"number": 64, "value": 127}, "group": "control_change"}, {"time": 2068, "annotation": {"number": 64, "value": 0}, "group": "control_change"}, {"time": 2070, "annotation": {"number": 64, "value": 127}, "group": "control_change"}, {"time": 2092, "annotation": {"number": 64, "value": 0}, "group": "control_change"}, {"time": 2095, "annotation": {"number": 64, "value": 127}, "group": "control_change"}, {"time": 2117, "annotation": {"number": 64, "value": 0}, "group": "control_change"}, {"time": 2119, "annotation": {"number": 64, "value": 127}, "group": "control_change"}, {"time": 2140, "annotation": {"number": 64, "value": 0}, "group": "control_change"}, {"time": 2142, "annotation": {"number": 64, "value": 127}, "group": "control_change"}, {"time": 2165, "annotation": {"number": 64, "value": 0}, "group": "control_change"}, {"time": 2166, "annotation": {"number": 64, "value": 127}, "group": "control_change"}, {"time": 2189, "annotation": {"number": 64, "value": 0}, "group": "control_change"}, {"time": 2191, "annotation": {"number": 64, "value": 127}, "group": "control_change"}, {"time": 2213, "annotation": {"number": 64, "value": 0}, "group": "control_change"}, {"time": 2215, "annotation": {"number": 64, "value": 127}, "group": "control_change"}, {"time": 2237, "annotation": {"number": 64, "value": 0}, "group": "control_change"}, {"time": 2238, "annotation": {"number": 64, "value": 127}, "group": "control_change"}, {"time": 2261, "annotation": {"number": 64, "value": 0}, "group": "control_change"}, {"time": 2262, "annotation": {"number": 64, "value": 127}, "group": "control_change"}, {"time": 2285, "annotation": {"number": 64, "value": 0}, "group": "control_change"}, {"time": 2287, "annotation": {"number": 64, "value": 127}, "group": "control_change"}, {"time": 2308, "annotation": {"number": 64, "value": 0}, "group": "control_change"}, {"time": 2310, "annotation": {"number": 64, "value": 127}, "group": "control_change"}, {"time": 2333, "annotation": {"number": 64, "value": 0}, "group": "control_change"}, {"time": 2336, "annotation": {"number": 64, "value": 127}, "group": "control_change"}, {"time": 2356, "annotation": {"number": 64, "value": 0}, "group": "control_change"}, {"time": 2358, "annotation": {"number": 64, "value": 127}, "group": "control_change"}, {"time": 2382, "annotation": {"number": 64, "value": 0}, "group": "control_change"}, {"time": 2385, "annotation": {"number": 64, "value": 127}, "group": "control_change"}, {"time": 2423, "annotation": {"number": 64, "value": 0}, "group": "control_change"}, {"time": 2425, "annotation": {"number": 64, "value": 127}, "group": "control_change"}, {"time": 2448, "annotation": {"number": 64, "value": 0}, "group": "control_change"}, {"time": 2450, "annotation": {"number": 64, "value": 127}, "group": "control_change"}, {"time": 2476, "annotation": {"number": 64, "value": 0}, "group": "control_change"}, {"time": 2478, "annotation": {"number": 64, "value": 127}, "group": "control_change"}, {"time": 2522, "annotation": {"number": 64, "value": 0}, "group": "control_change"}, {"time": 2527, "annotation": {"number": 64, "value": 127}, "group": "control_change"}, {"time": 2593, "annotation": {"number": 64, "value": 0}, "group": "control_change"}, {"time": 2595, "annotation": {"number": 64, "value": 127}, "group": "control_change"}, {"time": 2692, "annotation": {"number": 64, "value": 0}, "group": "control_change"}]}]}