{"metadata": {"schema_version": "0.2", "title": "None", "source_filename": "817.mid", "source_format": "midi"}, "resolution": 12, "tempos": [{"time": 0, "qpm": 90.00009000009}, {"time": 1992, "qpm": 89.80006016604031}, {"time": 2160, "qpm": 90.00009000009}], "time_signatures": [{"time": 0, "numerator": 1, "denominator": 4}], "tracks": [{"program": 4, "is_drum": false, "name": "MELODY", "notes": [{"time": 452, "pitch": 64, "duration": 9, "velocity": 82}, {"time": 464, "pitch": 64, "duration": 10, "velocity": 78}, {"time": 476, "pitch": 64, "duration": 9, "velocity": 78}, {"time": 488, "pitch": 64, "duration": 5, "velocity": 82}, {"time": 494, "pitch": 69, "duration": 5, "velocity": 76}, {"time": 500, "pitch": 67, "duration": 12, "velocity": 76}, {"time": 512, "pitch": 62, "duration": 10, "velocity": 77}, {"time": 524, "pitch": 62, "duration": 22, "velocity": 77}, {"time": 548, "pitch": 60, "duration": 10, "velocity": 78}, {"time": 560, "pitch": 60, "duration": 10, "velocity": 77}, {"time": 572, "pitch": 60, "duration": 11, "velocity": 78}, {"time": 584, "pitch": 60, "duration": 5, "velocity": 80}, {"time": 590, "pitch": 65, "duration": 5, "velocity": 78}, {"time": 596, "pitch": 64, "duration": 11, "velocity": 79}, {"time": 608, "pitch": 59, "duration": 12, "velocity": 78}, {"time": 620, "pitch": 59, "duration": 13, "velocity": 78}, {"time": 632, "pitch": 60, "duration": 5, "velocity": 78}, {"time": 638, "pitch": 59, "duration": 6, "velocity": 78}, {"time": 644, "pitch": 57, "duration": 10, "velocity": 77}, {"time": 656, "pitch": 57, "duration": 10, "velocity": 77}, {"time": 668, "pitch": 57, "duration": 5, "velocity": 74}, {"time": 674, "pitch": 59, "duration": 5, "velocity": 76}, {"time": 680, "pitch": 60, "duration": 5, "velocity": 77}, {"time": 686, "pitch": 62, "duration": 5, "velocity": 76}, {"time": 692, "pitch": 60, "duration": 12, "velocity": 79}, {"time": 704, "pitch": 55, "duration": 12, "velocity": 79}, {"time": 716, "pitch": 64, "duration": 12, "velocity": 78}, {"time": 734, "pitch": 64, "duration": 5, "velocity": 80}, {"time": 740, "pitch": 62, "duration": 6, "velocity": 71}, {"time": 746, "pitch": 60, "duration": 5, "velocity": 76}, {"time": 752, "pitch": 60, "duration": 6, "velocity": 76}, {"time": 758, "pitch": 57, "duration": 5, "velocity": 76}, {"time": 764, "pitch": 59, "duration": 12, "velocity": 77}, {"time": 776, "pitch": 60, "duration": 12, "velocity": 77}, {"time": 788, "pitch": 62, "duration": 38, "velocity": 74}, {"time": 836, "pitch": 64, "duration": 9, "velocity": 82}, {"time": 848, "pitch": 64, "duration": 10, "velocity": 78}, {"time": 860, "pitch": 64, "duration": 9, "velocity": 78}, {"time": 872, "pitch": 64, "duration": 5, "velocity": 82}, {"time": 878, "pitch": 69, "duration": 5, "velocity": 76}, {"time": 884, "pitch": 67, "duration": 12, "velocity": 76}, {"time": 896, "pitch": 62, "duration": 10, "velocity": 77}, {"time": 908, "pitch": 62, "duration": 22, "velocity": 77}, {"time": 932, "pitch": 60, "duration": 10, "velocity": 78}, {"time": 944, "pitch": 60, "duration": 10, "velocity": 77}, {"time": 956, "pitch": 60, "duration": 11, "velocity": 78}, {"time": 968, "pitch": 60, "duration": 5, "velocity": 80}, {"time": 974, "pitch": 65, "duration": 5, "velocity": 78}, {"time": 980, "pitch": 64, "duration": 11, "velocity": 79}, {"time": 992, "pitch": 59, "duration": 12, "velocity": 78}, {"time": 1004, "pitch": 59, "duration": 13, "velocity": 78}, {"time": 1016, "pitch": 60, "duration": 5, "velocity": 78}, {"time": 1022, "pitch": 59, "duration": 6, "velocity": 78}, {"time": 1028, "pitch": 57, "duration": 10, "velocity": 77}, {"time": 1040, "pitch": 57, "duration": 10, "velocity": 77}, {"time": 1052, "pitch": 57, "duration": 5, "velocity": 74}, {"time": 1058, "pitch": 59, "duration": 5, "velocity": 76}, {"time": 1064, "pitch": 60, "duration": 5, "velocity": 77}, {"time": 1070, "pitch": 62, "duration": 5, "velocity": 76}, {"time": 1076, "pitch": 60, "duration": 12, "velocity": 79}, {"time": 1088, "pitch": 55, "duration": 12, "velocity": 79}, {"time": 1100, "pitch": 64, "duration": 12, "velocity": 78}, {"time": 1118, "pitch": 64, "duration": 5, "velocity": 80}, {"time": 1124, "pitch": 62, "duration": 6, "velocity": 71}, {"time": 1130, "pitch": 60, "duration": 5, "velocity": 76}, {"time": 1136, "pitch": 60, "duration": 6, "velocity": 76}, {"time": 1142, "pitch": 57, "duration": 5, "velocity": 76}, {"time": 1148, "pitch": 59, "duration": 12, "velocity": 77}, {"time": 1160, "pitch": 62, "duration": 12, "velocity": 77}, {"time": 1172, "pitch": 60, "duration": 38, "velocity": 74}, {"time": 1268, "pitch": 60, "duration": 10, "velocity": 78}, {"time": 1280, "pitch": 60, "duration": 10, "velocity": 79}, {"time": 1292, "pitch": 60, "duration": 7, "velocity": 80}, {"time": 1298, "pitch": 62, "duration": 5, "velocity": 77}, {"time": 1304, "pitch": 64, "duration": 5, "velocity": 78}, {"time": 1310, "pitch": 65, "duration": 5, "velocity": 77}, {"time": 1316, "pitch": 67, "duration": 10, "velocity": 76}, {"time": 1328, "pitch": 67, "duration": 11, "velocity": 78}, {"time": 1340, "pitch": 67, "duration": 10, "velocity": 78}, {"time": 1352, "pitch": 64, "duration": 5, "velocity": 82}, {"time": 1358, "pitch": 62, "duration": 6, "velocity": 77}, {"time": 1364, "pitch": 60, "duration": 11, "velocity": 76}, {"time": 1376, "pitch": 60, "duration": 10, "velocity": 77}, {"time": 1388, "pitch": 60, "duration": 4, "velocity": 78}, {"time": 1394, "pitch": 62, "duration": 5, "velocity": 77}, {"time": 1400, "pitch": 64, "duration": 4, "velocity": 77}, {"time": 1406, "pitch": 65, "duration": 5, "velocity": 76}, {"time": 1412, "pitch": 67, "duration": 10, "velocity": 76}, {"time": 1424, "pitch": 67, "duration": 11, "velocity": 76}, {"time": 1436, "pitch": 67, "duration": 9, "velocity": 74}, {"time": 1448, "pitch": 64, "duration": 5, "velocity": 77}, {"time": 1454, "pitch": 62, "duration": 5, "velocity": 75}, {"time": 1460, "pitch": 60, "duration": 11, "velocity": 79}, {"time": 1472, "pitch": 72, "duration": 10, "velocity": 79}, {"time": 1484, "pitch": 71, "duration": 10, "velocity": 76}, {"time": 1496, "pitch": 67, "duration": 10, "velocity": 77}, {"time": 1508, "pitch": 69, "duration": 10, "velocity": 77}, {"time": 1520, "pitch": 67, "duration": 5, "velocity": 71}, {"time": 1526, "pitch": 65, "duration": 5, "velocity": 76}, {"time": 1532, "pitch": 67, "duration": 10, "velocity": 71}, {"time": 1550, "pitch": 60, "duration": 5, "velocity": 82}, {"time": 1556, "pitch": 65, "duration": 10, "velocity": 80}, {"time": 1568, "pitch": 67, "duration": 10, "velocity": 74}, {"time": 1580, "pitch": 69, "duration": 15, "velocity": 76}, {"time": 1598, "pitch": 67, "duration": 11, "velocity": 78}, {"time": 1610, "pitch": 67, "duration": 26, "velocity": 76}, {"time": 1652, "pitch": 60, "duration": 10, "velocity": 78}, {"time": 1664, "pitch": 60, "duration": 10, "velocity": 79}, {"time": 1676, "pitch": 60, "duration": 7, "velocity": 80}, {"time": 1682, "pitch": 62, "duration": 5, "velocity": 77}, {"time": 1688, "pitch": 64, "duration": 5, "velocity": 78}, {"time": 1694, "pitch": 65, "duration": 5, "velocity": 77}, {"time": 1700, "pitch": 67, "duration": 10, "velocity": 76}, {"time": 1712, "pitch": 67, "duration": 11, "velocity": 78}, {"time": 1724, "pitch": 67, "duration": 10, "velocity": 78}, {"time": 1736, "pitch": 64, "duration": 5, "velocity": 82}, {"time": 1742, "pitch": 62, "duration": 6, "velocity": 77}, {"time": 1748, "pitch": 60, "duration": 11, "velocity": 76}, {"time": 1760, "pitch": 60, "duration": 10, "velocity": 77}, {"time": 1772, "pitch": 60, "duration": 4, "velocity": 78}, {"time": 1778, "pitch": 62, "duration": 5, "velocity": 77}, {"time": 1784, "pitch": 64, "duration": 4, "velocity": 77}, {"time": 1790, "pitch": 65, "duration": 5, "velocity": 76}, {"time": 1796, "pitch": 67, "duration": 10, "velocity": 76}, {"time": 1808, "pitch": 67, "duration": 11, "velocity": 76}, {"time": 1820, "pitch": 67, "duration": 9, "velocity": 74}, {"time": 1832, "pitch": 64, "duration": 5, "velocity": 77}, {"time": 1838, "pitch": 62, "duration": 5, "velocity": 75}, {"time": 1844, "pitch": 60, "duration": 11, "velocity": 79}, {"time": 1856, "pitch": 72, "duration": 10, "velocity": 79}, {"time": 1868, "pitch": 71, "duration": 10, "velocity": 76}, {"time": 1880, "pitch": 69, "duration": 6, "velocity": 77}, {"time": 1886, "pitch": 67, "duration": 6, "velocity": 77}, {"time": 1892, "pitch": 69, "duration": 10, "velocity": 77}, {"time": 1904, "pitch": 67, "duration": 5, "velocity": 71}, {"time": 1910, "pitch": 65, "duration": 5, "velocity": 76}, {"time": 1916, "pitch": 67, "duration": 10, "velocity": 71}, {"time": 1934, "pitch": 60, "duration": 5, "velocity": 82}, {"time": 1940, "pitch": 65, "duration": 10, "velocity": 80}, {"time": 1952, "pitch": 67, "duration": 10, "velocity": 74}, {"time": 1964, "pitch": 64, "duration": 12, "velocity": 76}, {"time": 1976, "pitch": 62, "duration": 5, "velocity": 78}, {"time": 1982, "pitch": 60, "duration": 11, "velocity": 77}, {"time": 1994, "pitch": 60, "duration": 39, "velocity": 78}, {"time": 2180, "pitch": 64, "duration": 9, "velocity": 82}, {"time": 2192, "pitch": 64, "duration": 10, "velocity": 78}, {"time": 2204, "pitch": 64, "duration": 9, "velocity": 78}, {"time": 2216, "pitch": 64, "duration": 5, "velocity": 82}, {"time": 2222, "pitch": 69, "duration": 5, "velocity": 76}, {"time": 2228, "pitch": 67, "duration": 12, "velocity": 76}, {"time": 2240, "pitch": 62, "duration": 10, "velocity": 77}, {"time": 2252, "pitch": 62, "duration": 22, "velocity": 77}, {"time": 2276, "pitch": 60, "duration": 10, "velocity": 78}, {"time": 2288, "pitch": 60, "duration": 10, "velocity": 77}, {"time": 2300, "pitch": 60, "duration": 11, "velocity": 78}, {"time": 2312, "pitch": 60, "duration": 5, "velocity": 80}, {"time": 2318, "pitch": 65, "duration": 5, "velocity": 78}, {"time": 2324, "pitch": 64, "duration": 11, "velocity": 79}, {"time": 2336, "pitch": 59, "duration": 12, "velocity": 78}, {"time": 2348, "pitch": 59, "duration": 13, "velocity": 78}, {"time": 2360, "pitch": 60, "duration": 5, "velocity": 78}, {"time": 2366, "pitch": 59, "duration": 6, "velocity": 78}, {"time": 2372, "pitch": 57, "duration": 10, "velocity": 77}, {"time": 2384, "pitch": 57, "duration": 10, "velocity": 77}, {"time": 2396, "pitch": 57, "duration": 5, "velocity": 74}, {"time": 2402, "pitch": 59, "duration": 5, "velocity": 76}, {"time": 2408, "pitch": 60, "duration": 5, "velocity": 77}, {"time": 2414, "pitch": 62, "duration": 5, "velocity": 76}, {"time": 2420, "pitch": 60, "duration": 12, "velocity": 79}, {"time": 2432, "pitch": 55, "duration": 12, "velocity": 79}, {"time": 2444, "pitch": 64, "duration": 12, "velocity": 78}, {"time": 2462, "pitch": 64, "duration": 5, "velocity": 80}, {"time": 2468, "pitch": 62, "duration": 6, "velocity": 71}, {"time": 2474, "pitch": 60, "duration": 5, "velocity": 76}, {"time": 2480, "pitch": 60, "duration": 6, "velocity": 76}, {"time": 2486, "pitch": 57, "duration": 5, "velocity": 76}, {"time": 2492, "pitch": 59, "duration": 12, "velocity": 77}, {"time": 2504, "pitch": 62, "duration": 12, "velocity": 77}, {"time": 2516, "pitch": 60, "duration": 38, "velocity": 74}, {"time": 2612, "pitch": 60, "duration": 10, "velocity": 78}, {"time": 2624, "pitch": 60, "duration": 10, "velocity": 79}, {"time": 2636, "pitch": 60, "duration": 7, "velocity": 80}, {"time": 2642, "pitch": 62, "duration": 5, "velocity": 77}, {"time": 2648, "pitch": 64, "duration": 5, "velocity": 78}, {"time": 2654, "pitch": 65, "duration": 5, "velocity": 77}, {"time": 2660, "pitch": 67, "duration": 10, "velocity": 76}, {"time": 2672, "pitch": 67, "duration": 11, "velocity": 78}, {"time": 2684, "pitch": 67, "duration": 10, "velocity": 78}, {"time": 2696, "pitch": 64, "duration": 5, "velocity": 82}, {"time": 2702, "pitch": 62, "duration": 6, "velocity": 77}, {"time": 2708, "pitch": 60, "duration": 11, "velocity": 76}, {"time": 2720, "pitch": 60, "duration": 10, "velocity": 77}, {"time": 2732, "pitch": 60, "duration": 4, "velocity": 78}, {"time": 2738, "pitch": 62, "duration": 5, "velocity": 77}, {"time": 2744, "pitch": 64, "duration": 4, "velocity": 77}, {"time": 2750, "pitch": 65, "duration": 5, "velocity": 76}, {"time": 2756, "pitch": 67, "duration": 10, "velocity": 76}, {"time": 2768, "pitch": 67, "duration": 11, "velocity": 76}, {"time": 2780, "pitch": 67, "duration": 9, "velocity": 74}, {"time": 2792, "pitch": 64, "duration": 5, "velocity": 77}, {"time": 2798, "pitch": 62, "duration": 5, "velocity": 75}, {"time": 2804, "pitch": 60, "duration": 11, "velocity": 79}, {"time": 2816, "pitch": 72, "duration": 10, "velocity": 79}, {"time": 2828, "pitch": 71, "duration": 10, "velocity": 76}, {"time": 2840, "pitch": 67, "duration": 10, "velocity": 77}, {"time": 2852, "pitch": 69, "duration": 10, "velocity": 77}, {"time": 2864, "pitch": 67, "duration": 5, "velocity": 71}, {"time": 2870, "pitch": 65, "duration": 5, "velocity": 76}, {"time": 2876, "pitch": 67, "duration": 10, "velocity": 71}, {"time": 2894, "pitch": 60, "duration": 5, "velocity": 82}, {"time": 2900, "pitch": 65, "duration": 10, "velocity": 80}, {"time": 2912, "pitch": 67, "duration": 10, "velocity": 74}, {"time": 2924, "pitch": 69, "duration": 15, "velocity": 76}, {"time": 2942, "pitch": 67, "duration": 11, "velocity": 78}, {"time": 2954, "pitch": 67, "duration": 26, "velocity": 76}, {"time": 2996, "pitch": 60, "duration": 10, "velocity": 78}, {"time": 3008, "pitch": 60, "duration": 10, "velocity": 79}, {"time": 3020, "pitch": 60, "duration": 7, "velocity": 80}, {"time": 3026, "pitch": 62, "duration": 5, "velocity": 77}, {"time": 3032, "pitch": 64, "duration": 5, "velocity": 78}, {"time": 3038, "pitch": 65, "duration": 5, "velocity": 77}, {"time": 3044, "pitch": 67, "duration": 10, "velocity": 76}, {"time": 3056, "pitch": 67, "duration": 11, "velocity": 78}, {"time": 3068, "pitch": 67, "duration": 10, "velocity": 78}, {"time": 3080, "pitch": 64, "duration": 5, "velocity": 82}, {"time": 3086, "pitch": 62, "duration": 6, "velocity": 77}, {"time": 3092, "pitch": 60, "duration": 11, "velocity": 76}, {"time": 3104, "pitch": 60, "duration": 10, "velocity": 77}, {"time": 3116, "pitch": 60, "duration": 4, "velocity": 78}, {"time": 3122, "pitch": 62, "duration": 5, "velocity": 77}, {"time": 3128, "pitch": 64, "duration": 4, "velocity": 77}, {"time": 3134, "pitch": 65, "duration": 5, "velocity": 76}, {"time": 3140, "pitch": 67, "duration": 10, "velocity": 76}, {"time": 3152, "pitch": 67, "duration": 11, "velocity": 76}, {"time": 3164, "pitch": 67, "duration": 9, "velocity": 74}, {"time": 3176, "pitch": 64, "duration": 5, "velocity": 77}, {"time": 3182, "pitch": 62, "duration": 5, "velocity": 75}, {"time": 3188, "pitch": 60, "duration": 11, "velocity": 79}, {"time": 3200, "pitch": 72, "duration": 10, "velocity": 79}, {"time": 3212, "pitch": 71, "duration": 10, "velocity": 76}, {"time": 3224, "pitch": 69, "duration": 6, "velocity": 77}, {"time": 3230, "pitch": 67, "duration": 6, "velocity": 77}, {"time": 3236, "pitch": 69, "duration": 10, "velocity": 77}, {"time": 3248, "pitch": 67, "duration": 5, "velocity": 71}, {"time": 3254, "pitch": 65, "duration": 5, "velocity": 76}, {"time": 3260, "pitch": 67, "duration": 10, "velocity": 71}, {"time": 3278, "pitch": 60, "duration": 5, "velocity": 82}, {"time": 3284, "pitch": 65, "duration": 10, "velocity": 80}, {"time": 3296, "pitch": 67, "duration": 10, "velocity": 74}, {"time": 3308, "pitch": 64, "duration": 12, "velocity": 76}, {"time": 3320, "pitch": 62, "duration": 5, "velocity": 78}, {"time": 3326, "pitch": 60, "duration": 11, "velocity": 77}, {"time": 3338, "pitch": 60, "duration": 39, "velocity": 78}, {"time": 3380, "pitch": 62, "duration": 10, "velocity": 78}, {"time": 3392, "pitch": 62, "duration": 10, "velocity": 79}, {"time": 3404, "pitch": 62, "duration": 7, "velocity": 80}, {"time": 3410, "pitch": 64, "duration": 5, "velocity": 77}, {"time": 3416, "pitch": 66, "duration": 5, "velocity": 78}, {"time": 3422, "pitch": 67, "duration": 5, "velocity": 77}, {"time": 3428, "pitch": 69, "duration": 10, "velocity": 76}, {"time": 3440, "pitch": 69, "duration": 11, "velocity": 78}, {"time": 3452, "pitch": 69, "duration": 10, "velocity": 78}, {"time": 3464, "pitch": 66, "duration": 5, "velocity": 82}, {"time": 3470, "pitch": 64, "duration": 6, "velocity": 77}, {"time": 3476, "pitch": 62, "duration": 11, "velocity": 76}, {"time": 3488, "pitch": 62, "duration": 10, "velocity": 77}, {"time": 3500, "pitch": 62, "duration": 4, "velocity": 78}, {"time": 3506, "pitch": 64, "duration": 5, "velocity": 77}, {"time": 3512, "pitch": 66, "duration": 4, "velocity": 77}, {"time": 3518, "pitch": 67, "duration": 5, "velocity": 76}, {"time": 3524, "pitch": 69, "duration": 10, "velocity": 76}, {"time": 3536, "pitch": 69, "duration": 11, "velocity": 76}, {"time": 3548, "pitch": 69, "duration": 9, "velocity": 74}, {"time": 3560, "pitch": 66, "duration": 5, "velocity": 77}, {"time": 3566, "pitch": 64, "duration": 5, "velocity": 75}, {"time": 3572, "pitch": 62, "duration": 11, "velocity": 79}, {"time": 3584, "pitch": 74, "duration": 10, "velocity": 79}, {"time": 3596, "pitch": 73, "duration": 10, "velocity": 76}, {"time": 3608, "pitch": 69, "duration": 10, "velocity": 77}, {"time": 3620, "pitch": 71, "duration": 10, "velocity": 77}, {"time": 3632, "pitch": 69, "duration": 5, "velocity": 71}, {"time": 3638, "pitch": 67, "duration": 5, "velocity": 76}, {"time": 3644, "pitch": 69, "duration": 10, "velocity": 71}, {"time": 3662, "pitch": 62, "duration": 5, "velocity": 82}, {"time": 3668, "pitch": 67, "duration": 10, "velocity": 80}, {"time": 3680, "pitch": 69, "duration": 10, "velocity": 74}, {"time": 3692, "pitch": 71, "duration": 15, "velocity": 76}, {"time": 3710, "pitch": 69, "duration": 11, "velocity": 78}, {"time": 3722, "pitch": 69, "duration": 26, "velocity": 76}, {"time": 3764, "pitch": 62, "duration": 10, "velocity": 78}, {"time": 3776, "pitch": 62, "duration": 10, "velocity": 79}, {"time": 3788, "pitch": 62, "duration": 7, "velocity": 80}, {"time": 3794, "pitch": 64, "duration": 5, "velocity": 77}, {"time": 3800, "pitch": 66, "duration": 5, "velocity": 78}, {"time": 3806, "pitch": 67, "duration": 5, "velocity": 77}, {"time": 3812, "pitch": 69, "duration": 10, "velocity": 76}, {"time": 3824, "pitch": 69, "duration": 11, "velocity": 78}, {"time": 3836, "pitch": 69, "duration": 10, "velocity": 78}, {"time": 3848, "pitch": 66, "duration": 5, "velocity": 82}, {"time": 3854, "pitch": 64, "duration": 6, "velocity": 77}, {"time": 3860, "pitch": 62, "duration": 11, "velocity": 76}, {"time": 3872, "pitch": 62, "duration": 10, "velocity": 77}, {"time": 3884, "pitch": 62, "duration": 4, "velocity": 78}, {"time": 3890, "pitch": 64, "duration": 5, "velocity": 77}, {"time": 3896, "pitch": 66, "duration": 4, "velocity": 77}, {"time": 3902, "pitch": 67, "duration": 5, "velocity": 76}, {"time": 3908, "pitch": 69, "duration": 10, "velocity": 76}, {"time": 3920, "pitch": 69, "duration": 11, "velocity": 76}, {"time": 3932, "pitch": 69, "duration": 9, "velocity": 74}, {"time": 3944, "pitch": 66, "duration": 5, "velocity": 77}, {"time": 3950, "pitch": 64, "duration": 5, "velocity": 75}, {"time": 3956, "pitch": 62, "duration": 11, "velocity": 79}, {"time": 3968, "pitch": 74, "duration": 10, "velocity": 79}, {"time": 3980, "pitch": 73, "duration": 10, "velocity": 76}, {"time": 3992, "pitch": 71, "duration": 6, "velocity": 77}, {"time": 3998, "pitch": 69, "duration": 6, "velocity": 77}, {"time": 4004, "pitch": 71, "duration": 10, "velocity": 77}, {"time": 4016, "pitch": 69, "duration": 5, "velocity": 71}, {"time": 4022, "pitch": 67, "duration": 5, "velocity": 76}, {"time": 4028, "pitch": 69, "duration": 10, "velocity": 71}, {"time": 4046, "pitch": 62, "duration": 5, "velocity": 82}, {"time": 4052, "pitch": 67, "duration": 10, "velocity": 80}, {"time": 4064, "pitch": 69, "duration": 10, "velocity": 74}, {"time": 4076, "pitch": 66, "duration": 12, "velocity": 76}, {"time": 4088, "pitch": 64, "duration": 5, "velocity": 78}, {"time": 4094, "pitch": 62, "duration": 11, "velocity": 77}, {"time": 4106, "pitch": 62, "duration": 39, "velocity": 78}, {"time": 4165, "pitch": 57, "duration": 5, "velocity": 78}, {"time": 4171, "pitch": 69, "duration": 6, "velocity": 77}, {"time": 4178, "pitch": 67, "duration": 6, "velocity": 71}, {"time": 4185, "pitch": 66, "duration": 8, "velocity": 78}, {"time": 4192, "pitch": 67, "duration": 7, "velocity": 77}, {"time": 4199, "pitch": 66, "duration": 6, "velocity": 79}, {"time": 4206, "pitch": 62, "duration": 5, "velocity": 77}, {"time": 4213, "pitch": 66, "duration": 7, "velocity": 78}, {"time": 4220, "pitch": 67, "duration": 11, "velocity": 71}, {"time": 4238, "pitch": 64, "duration": 45, "velocity": 74}, {"time": 4286, "pitch": 62, "duration": 13, "velocity": 71}, {"time": 4302, "pitch": 62, "duration": 52, "velocity": 70}]}, {"program": 0, "is_drum": false, "name": "PIANO", "notes": [{"time": 20, "pitch": 48, "duration": 44, "velocity": 77}, {"time": 26, "pitch": 55, "duration": 46, "velocity": 64}, {"time": 32, "pitch": 60, "duration": 8, "velocity": 68}, {"time": 38, "pitch": 62, "duration": 5, "velocity": 67}, {"time": 44, "pitch": 60, "duration": 9, "velocity": 58}, {"time": 44, "pitch": 64, "duration": 7, "velocity": 68}, {"time": 68, "pitch": 47, "duration": 18, "velocity": 71}, {"time": 68, "pitch": 59, "duration": 7, "velocity": 65}, {"time": 68, "pitch": 62, "duration": 13, "velocity": 71}, {"time": 74, "pitch": 55, "duration": 10, "velocity": 68}, {"time": 80, "pitch": 59, "duration": 13, "velocity": 70}, {"time": 86, "pitch": 62, "duration": 8, "velocity": 72}, {"time": 92, "pitch": 67, "duration": 3, "velocity": 67}, {"time": 104, "pitch": 44, "duration": 5, "velocity": 68}, {"time": 104, "pitch": 56, "duration": 5, "velocity": 65}, {"time": 104, "pitch": 59, "duration": 6, "velocity": 69}, {"time": 116, "pitch": 45, "duration": 35, "velocity": 76}, {"time": 116, "pitch": 57, "duration": 24, "velocity": 64}, {"time": 116, "pitch": 60, "duration": 12, "velocity": 68}, {"time": 122, "pitch": 52, "duration": 28, "velocity": 63}, {"time": 128, "pitch": 64, "duration": 20, "velocity": 69}, {"time": 134, "pitch": 60, "duration": 13, "velocity": 60}, {"time": 140, "pitch": 69, "duration": 8, "velocity": 70}, {"time": 164, "pitch": 40, "duration": 27, "velocity": 76}, {"time": 164, "pitch": 52, "duration": 13, "velocity": 70}, {"time": 164, "pitch": 59, "duration": 21, "velocity": 64}, {"time": 170, "pitch": 47, "duration": 21, "velocity": 57}, {"time": 176, "pitch": 55, "duration": 8, "velocity": 71}, {"time": 182, "pitch": 52, "duration": 7, "velocity": 70}, {"time": 188, "pitch": 55, "duration": 2, "velocity": 70}, {"time": 188, "pitch": 59, "duration": 3, "velocity": 70}, {"time": 200, "pitch": 39, "duration": 8, "velocity": 70}, {"time": 200, "pitch": 51, "duration": 6, "velocity": 71}, {"time": 200, "pitch": 63, "duration": 6, "velocity": 71}, {"time": 212, "pitch": 38, "duration": 20, "velocity": 76}, {"time": 212, "pitch": 50, "duration": 8, "velocity": 68}, {"time": 212, "pitch": 53, "duration": 12, "velocity": 64}, {"time": 218, "pitch": 45, "duration": 15, "velocity": 58}, {"time": 224, "pitch": 50, "duration": 10, "velocity": 66}, {"time": 230, "pitch": 57, "duration": 7, "velocity": 67}, {"time": 236, "pitch": 43, "duration": 15, "velocity": 75}, {"time": 242, "pitch": 50, "duration": 10, "velocity": 69}, {"time": 248, "pitch": 55, "duration": 4, "velocity": 71}, {"time": 254, "pitch": 41, "duration": 6, "velocity": 72}, {"time": 254, "pitch": 53, "duration": 6, "velocity": 71}, {"time": 260, "pitch": 40, "duration": 14, "velocity": 75}, {"time": 260, "pitch": 52, "duration": 8, "velocity": 73}, {"time": 260, "pitch": 59, "duration": 10, "velocity": 68}, {"time": 266, "pitch": 47, "duration": 8, "velocity": 64}, {"time": 272, "pitch": 55, "duration": 3, "velocity": 69}, {"time": 284, "pitch": 45, "duration": 21, "velocity": 76}, {"time": 284, "pitch": 57, "duration": 6, "velocity": 65}, {"time": 284, "pitch": 61, "duration": 13, "velocity": 65}, {"time": 290, "pitch": 52, "duration": 13, "velocity": 65}, {"time": 296, "pitch": 57, "duration": 10, "velocity": 76}, {"time": 302, "pitch": 61, "duration": 4, "velocity": 73}, {"time": 308, "pitch": 50, "duration": 39, "velocity": 72}, {"time": 308, "pitch": 57, "duration": 7, "velocity": 69}, {"time": 308, "pitch": 62, "duration": 13, "velocity": 77}, {"time": 314, "pitch": 53, "duration": 32, "velocity": 59}, {"time": 320, "pitch": 57, "duration": 13, "velocity": 72}, {"time": 326, "pitch": 62, "duration": 16, "velocity": 72}, {"time": 356, "pitch": 43, "duration": 46, "velocity": 76}, {"time": 356, "pitch": 60, "duration": 45, "velocity": 70}, {"time": 356, "pitch": 65, "duration": 45, "velocity": 70}, {"time": 404, "pitch": 43, "duration": 31, "velocity": 72}, {"time": 404, "pitch": 60, "duration": 8, "velocity": 63}, {"time": 404, "pitch": 67, "duration": 8, "velocity": 65}, {"time": 410, "pitch": 50, "duration": 24, "velocity": 52}, {"time": 416, "pitch": 60, "duration": 20, "velocity": 61}, {"time": 422, "pitch": 67, "duration": 15, "velocity": 58}, {"time": 452, "pitch": 48, "duration": 42, "velocity": 73}, {"time": 452, "pitch": 55, "duration": 3, "velocity": 69}, {"time": 452, "pitch": 60, "duration": 8, "velocity": 72}, {"time": 458, "pitch": 55, "duration": 6, "velocity": 67}, {"time": 464, "pitch": 60, "duration": 7, "velocity": 65}, {"time": 470, "pitch": 55, "duration": 7, "velocity": 69}, {"time": 476, "pitch": 64, "duration": 13, "velocity": 78}, {"time": 482, "pitch": 55, "duration": 7, "velocity": 61}, {"time": 488, "pitch": 60, "duration": 5, "velocity": 71}, {"time": 500, "pitch": 47, "duration": 39, "velocity": 75}, {"time": 500, "pitch": 59, "duration": 3, "velocity": 67}, {"time": 500, "pitch": 62, "duration": 7, "velocity": 70}, {"time": 506, "pitch": 59, "duration": 8, "velocity": 64}, {"time": 512, "pitch": 62, "duration": 8, "velocity": 69}, {"time": 518, "pitch": 59, "duration": 4, "velocity": 59}, {"time": 524, "pitch": 59, "duration": 3, "velocity": 76}, {"time": 524, "pitch": 67, "duration": 12, "velocity": 64}, {"time": 530, "pitch": 59, "duration": 4, "velocity": 64}, {"time": 536, "pitch": 62, "duration": 4, "velocity": 68}, {"time": 542, "pitch": 59, "duration": 3, "velocity": 49}, {"time": 548, "pitch": 45, "duration": 38, "velocity": 76}, {"time": 548, "pitch": 57, "duration": 8, "velocity": 61}, {"time": 548, "pitch": 60, "duration": 8, "velocity": 68}, {"time": 554, "pitch": 52, "duration": 8, "velocity": 61}, {"time": 560, "pitch": 60, "duration": 8, "velocity": 68}, {"time": 566, "pitch": 52, "duration": 8, "velocity": 65}, {"time": 572, "pitch": 57, "duration": 5, "velocity": 70}, {"time": 572, "pitch": 64, "duration": 6, "velocity": 76}, {"time": 578, "pitch": 52, "duration": 8, "velocity": 63}, {"time": 584, "pitch": 57, "duration": 3, "velocity": 69}, {"time": 584, "pitch": 60, "duration": 4, "velocity": 71}, {"time": 596, "pitch": 40, "duration": 30, "velocity": 77}, {"time": 596, "pitch": 55, "duration": 4, "velocity": 65}, {"time": 596, "pitch": 59, "duration": 8, "velocity": 70}, {"time": 602, "pitch": 55, "duration": 7, "velocity": 63}, {"time": 608, "pitch": 59, "duration": 7, "velocity": 70}, {"time": 614, "pitch": 55, "duration": 4, "velocity": 64}, {"time": 620, "pitch": 55, "duration": 3, "velocity": 73}, {"time": 620, "pitch": 59, "duration": 7, "velocity": 76}, {"time": 620, "pitch": 64, "duration": 8, "velocity": 76}, {"time": 626, "pitch": 55, "duration": 2, "velocity": 72}, {"time": 632, "pitch": 39, "duration": 10, "velocity": 76}, {"time": 632, "pitch": 51, "duration": 6, "velocity": 82}, {"time": 632, "pitch": 63, "duration": 6, "velocity": 74}, {"time": 644, "pitch": 38, "duration": 17, "velocity": 78}, {"time": 644, "pitch": 57, "duration": 8, "velocity": 67}, {"time": 644, "pitch": 62, "duration": 13, "velocity": 64}, {"time": 650, "pitch": 45, "duration": 10, "velocity": 60}, {"time": 656, "pitch": 57, "duration": 10, "velocity": 68}, {"time": 662, "pitch": 62, "duration": 3, "velocity": 72}, {"time": 668, "pitch": 43, "duration": 21, "velocity": 77}, {"time": 674, "pitch": 50, "duration": 14, "velocity": 76}, {"time": 680, "pitch": 55, "duration": 3, "velocity": 72}, {"time": 680, "pitch": 59, "duration": 7, "velocity": 71}, {"time": 680, "pitch": 62, "duration": 8, "velocity": 73}, {"time": 686, "pitch": 55, "duration": 6, "velocity": 66}, {"time": 692, "pitch": 40, "duration": 13, "velocity": 77}, {"time": 692, "pitch": 55, "duration": 8, "velocity": 69}, {"time": 692, "pitch": 64, "duration": 13, "velocity": 74}, {"time": 698, "pitch": 47, "duration": 7, "velocity": 69}, {"time": 704, "pitch": 55, "duration": 7, "velocity": 75}, {"time": 710, "pitch": 64, "duration": 15, "velocity": 76}, {"time": 716, "pitch": 45, "duration": 19, "velocity": 77}, {"time": 722, "pitch": 52, "duration": 9, "velocity": 75}, {"time": 728, "pitch": 57, "duration": 4, "velocity": 71}, {"time": 728, "pitch": 61, "duration": 7, "velocity": 76}, {"time": 734, "pitch": 57, "duration": 8, "velocity": 70}, {"time": 740, "pitch": 50, "duration": 17, "velocity": 76}, {"time": 740, "pitch": 65, "duration": 14, "velocity": 72}, {"time": 746, "pitch": 53, "duration": 12, "velocity": 62}, {"time": 752, "pitch": 62, "duration": 7, "velocity": 72}, {"time": 758, "pitch": 38, "duration": 5, "velocity": 78}, {"time": 758, "pitch": 57, "duration": 6, "velocity": 77}, {"time": 764, "pitch": 42, "duration": 16, "velocity": 72}, {"time": 764, "pitch": 60, "duration": 9, "velocity": 74}, {"time": 764, "pitch": 69, "duration": 11, "velocity": 70}, {"time": 770, "pitch": 57, "duration": 7, "velocity": 66}, {"time": 776, "pitch": 60, "duration": 9, "velocity": 69}, {"time": 776, "pitch": 64, "duration": 6, "velocity": 58}, {"time": 782, "pitch": 38, "duration": 5, "velocity": 61}, {"time": 782, "pitch": 57, "duration": 5, "velocity": 61}, {"time": 788, "pitch": 43, "duration": 41, "velocity": 75}, {"time": 788, "pitch": 55, "duration": 8, "velocity": 70}, {"time": 788, "pitch": 62, "duration": 13, "velocity": 71}, {"time": 794, "pitch": 50, "duration": 33, "velocity": 67}, {"time": 800, "pitch": 55, "duration": 7, "velocity": 78}, {"time": 806, "pitch": 62, "duration": 7, "velocity": 76}, {"time": 812, "pitch": 67, "duration": 8, "velocity": 76}, {"time": 818, "pitch": 55, "duration": 3, "velocity": 71}, {"time": 824, "pitch": 55, "duration": 13, "velocity": 77}, {"time": 824, "pitch": 62, "duration": 13, "velocity": 73}, {"time": 830, "pitch": 43, "duration": 7, "velocity": 51}, {"time": 830, "pitch": 50, "duration": 7, "velocity": 78}, {"time": 836, "pitch": 48, "duration": 42, "velocity": 73}, {"time": 836, "pitch": 55, "duration": 1, "velocity": 69}, {"time": 836, "pitch": 60, "duration": 8, "velocity": 72}, {"time": 842, "pitch": 55, "duration": 6, "velocity": 67}, {"time": 848, "pitch": 60, "duration": 7, "velocity": 65}, {"time": 854, "pitch": 55, "duration": 7, "velocity": 69}, {"time": 860, "pitch": 64, "duration": 13, "velocity": 78}, {"time": 866, "pitch": 55, "duration": 7, "velocity": 61}, {"time": 872, "pitch": 60, "duration": 5, "velocity": 71}, {"time": 884, "pitch": 47, "duration": 32, "velocity": 75}, {"time": 884, "pitch": 59, "duration": 3, "velocity": 67}, {"time": 884, "pitch": 62, "duration": 7, "velocity": 70}, {"time": 890, "pitch": 59, "duration": 8, "velocity": 64}, {"time": 896, "pitch": 62, "duration": 8, "velocity": 69}, {"time": 902, "pitch": 59, "duration": 4, "velocity": 59}, {"time": 908, "pitch": 59, "duration": 3, "velocity": 76}, {"time": 908, "pitch": 67, "duration": 12, "velocity": 64}, {"time": 914, "pitch": 59, "duration": 4, "velocity": 64}, {"time": 920, "pitch": 65, "duration": 7, "velocity": 68}, {"time": 921, "pitch": 44, "duration": 9, "velocity": 68}, {"time": 921, "pitch": 59, "duration": 5, "velocity": 68}, {"time": 926, "pitch": 59, "duration": 3, "velocity": 49}, {"time": 932, "pitch": 45, "duration": 38, "velocity": 76}, {"time": 932, "pitch": 57, "duration": 8, "velocity": 61}, {"time": 932, "pitch": 60, "duration": 8, "velocity": 68}, {"time": 938, "pitch": 52, "duration": 8, "velocity": 61}, {"time": 944, "pitch": 60, "duration": 8, "velocity": 68}, {"time": 950, "pitch": 52, "duration": 8, "velocity": 65}, {"time": 956, "pitch": 57, "duration": 5, "velocity": 70}, {"time": 956, "pitch": 64, "duration": 6, "velocity": 76}, {"time": 962, "pitch": 52, "duration": 8, "velocity": 63}, {"time": 968, "pitch": 57, "duration": 3, "velocity": 69}, {"time": 968, "pitch": 60, "duration": 4, "velocity": 71}, {"time": 980, "pitch": 40, "duration": 30, "velocity": 77}, {"time": 980, "pitch": 55, "duration": 4, "velocity": 65}, {"time": 980, "pitch": 59, "duration": 8, "velocity": 70}, {"time": 986, "pitch": 55, "duration": 7, "velocity": 63}, {"time": 992, "pitch": 59, "duration": 7, "velocity": 70}, {"time": 998, "pitch": 55, "duration": 4, "velocity": 64}, {"time": 1004, "pitch": 55, "duration": 3, "velocity": 73}, {"time": 1004, "pitch": 59, "duration": 7, "velocity": 76}, {"time": 1004, "pitch": 64, "duration": 8, "velocity": 76}, {"time": 1010, "pitch": 55, "duration": 2, "velocity": 72}, {"time": 1016, "pitch": 39, "duration": 10, "velocity": 76}, {"time": 1016, "pitch": 51, "duration": 6, "velocity": 82}, {"time": 1016, "pitch": 63, "duration": 6, "velocity": 74}, {"time": 1028, "pitch": 38, "duration": 17, "velocity": 78}, {"time": 1028, "pitch": 57, "duration": 8, "velocity": 67}, {"time": 1028, "pitch": 62, "duration": 13, "velocity": 64}, {"time": 1034, "pitch": 45, "duration": 10, "velocity": 60}, {"time": 1040, "pitch": 57, "duration": 10, "velocity": 68}, {"time": 1046, "pitch": 62, "duration": 3, "velocity": 72}, {"time": 1052, "pitch": 43, "duration": 21, "velocity": 77}, {"time": 1058, "pitch": 50, "duration": 14, "velocity": 76}, {"time": 1064, "pitch": 55, "duration": 3, "velocity": 72}, {"time": 1064, "pitch": 59, "duration": 7, "velocity": 71}, {"time": 1064, "pitch": 62, "duration": 8, "velocity": 73}, {"time": 1070, "pitch": 55, "duration": 6, "velocity": 66}, {"time": 1076, "pitch": 40, "duration": 13, "velocity": 77}, {"time": 1076, "pitch": 55, "duration": 8, "velocity": 69}, {"time": 1076, "pitch": 64, "duration": 13, "velocity": 74}, {"time": 1082, "pitch": 47, "duration": 7, "velocity": 69}, {"time": 1088, "pitch": 55, "duration": 7, "velocity": 75}, {"time": 1094, "pitch": 64, "duration": 15, "velocity": 76}, {"time": 1100, "pitch": 45, "duration": 19, "velocity": 77}, {"time": 1106, "pitch": 52, "duration": 9, "velocity": 75}, {"time": 1112, "pitch": 57, "duration": 4, "velocity": 71}, {"time": 1112, "pitch": 61, "duration": 7, "velocity": 76}, {"time": 1118, "pitch": 57, "duration": 8, "velocity": 70}, {"time": 1124, "pitch": 50, "duration": 22, "velocity": 78}, {"time": 1124, "pitch": 57, "duration": 2, "velocity": 64}, {"time": 1124, "pitch": 65, "duration": 14, "velocity": 69}, {"time": 1130, "pitch": 57, "duration": 8, "velocity": 76}, {"time": 1136, "pitch": 62, "duration": 6, "velocity": 77}, {"time": 1142, "pitch": 57, "duration": 3, "velocity": 72}, {"time": 1148, "pitch": 43, "duration": 21, "velocity": 75}, {"time": 1148, "pitch": 55, "duration": 10, "velocity": 67}, {"time": 1148, "pitch": 59, "duration": 10, "velocity": 66}, {"time": 1154, "pitch": 50, "duration": 14, "velocity": 69}, {"time": 1160, "pitch": 55, "duration": 3, "velocity": 71}, {"time": 1160, "pitch": 59, "duration": 7, "velocity": 73}, {"time": 1160, "pitch": 62, "duration": 7, "velocity": 75}, {"time": 1166, "pitch": 55, "duration": 4, "velocity": 66}, {"time": 1172, "pitch": 48, "duration": 43, "velocity": 72}, {"time": 1172, "pitch": 55, "duration": 3, "velocity": 76}, {"time": 1172, "pitch": 60, "duration": 11, "velocity": 75}, {"time": 1178, "pitch": 55, "duration": 6, "velocity": 73}, {"time": 1184, "pitch": 62, "duration": 7, "velocity": 74}, {"time": 1190, "pitch": 55, "duration": 4, "velocity": 69}, {"time": 1196, "pitch": 55, "duration": 2, "velocity": 77}, {"time": 1196, "pitch": 64, "duration": 10, "velocity": 76}, {"time": 1202, "pitch": 55, "duration": 4, "velocity": 64}, {"time": 1208, "pitch": 60, "duration": 6, "velocity": 76}, {"time": 1214, "pitch": 55, "duration": 4, "velocity": 76}, {"time": 1220, "pitch": 43, "duration": 22, "velocity": 77}, {"time": 1220, "pitch": 55, "duration": 9, "velocity": 71}, {"time": 1220, "pitch": 62, "duration": 10, "velocity": 71}, {"time": 1226, "pitch": 50, "duration": 15, "velocity": 79}, {"time": 1232, "pitch": 62, "duration": 9, "velocity": 78}, {"time": 1238, "pitch": 55, "duration": 4, "velocity": 76}, {"time": 1244, "pitch": 43, "duration": 24, "velocity": 80}, {"time": 1244, "pitch": 55, "duration": 3, "velocity": 78}, {"time": 1244, "pitch": 62, "duration": 3, "velocity": 77}, {"time": 1244, "pitch": 67, "duration": 5, "velocity": 73}, {"time": 1250, "pitch": 50, "duration": 9, "velocity": 76}, {"time": 1256, "pitch": 67, "duration": 5, "velocity": 77}, {"time": 1256, "pitch": 71, "duration": 12, "velocity": 82}, {"time": 1262, "pitch": 50, "duration": 6, "velocity": 71}, {"time": 1262, "pitch": 67, "duration": 3, "velocity": 44}, {"time": 1268, "pitch": 36, "duration": 2, "velocity": 76}, {"time": 1268, "pitch": 55, "duration": 3, "velocity": 69}, {"time": 1268, "pitch": 60, "duration": 9, "velocity": 72}, {"time": 1274, "pitch": 55, "duration": 7, "velocity": 65}, {"time": 1280, "pitch": 64, "duration": 8, "velocity": 80}, {"time": 1286, "pitch": 55, "duration": 4, "velocity": 76}, {"time": 1292, "pitch": 48, "duration": 14, "velocity": 74}, {"time": 1292, "pitch": 55, "duration": 3, "velocity": 69}, {"time": 1292, "pitch": 60, "duration": 9, "velocity": 63}, {"time": 1298, "pitch": 55, "duration": 3, "velocity": 65}, {"time": 1304, "pitch": 55, "duration": 2, "velocity": 78}, {"time": 1304, "pitch": 60, "duration": 7, "velocity": 78}, {"time": 1304, "pitch": 64, "duration": 7, "velocity": 79}, {"time": 1310, "pitch": 55, "duration": 4, "velocity": 76}, {"time": 1316, "pitch": 36, "duration": 44, "velocity": 73}, {"time": 1316, "pitch": 55, "duration": 3, "velocity": 71}, {"time": 1316, "pitch": 58, "duration": 8, "velocity": 67}, {"time": 1322, "pitch": 55, "duration": 3, "velocity": 63}, {"time": 1328, "pitch": 55, "duration": 2, "velocity": 78}, {"time": 1328, "pitch": 64, "duration": 9, "velocity": 77}, {"time": 1334, "pitch": 55, "duration": 3, "velocity": 66}, {"time": 1340, "pitch": 60, "duration": 8, "velocity": 60}, {"time": 1346, "pitch": 55, "duration": 4, "velocity": 75}, {"time": 1352, "pitch": 55, "duration": 3, "velocity": 74}, {"time": 1352, "pitch": 58, "duration": 7, "velocity": 73}, {"time": 1352, "pitch": 60, "duration": 9, "velocity": 75}, {"time": 1358, "pitch": 55, "duration": 5, "velocity": 76}, {"time": 1364, "pitch": 41, "duration": 19, "velocity": 76}, {"time": 1364, "pitch": 60, "duration": 14, "velocity": 72}, {"time": 1370, "pitch": 48, "duration": 12, "velocity": 65}, {"time": 1376, "pitch": 53, "duration": 6, "velocity": 77}, {"time": 1382, "pitch": 60, "duration": 6, "velocity": 77}, {"time": 1388, "pitch": 43, "duration": 21, "velocity": 76}, {"time": 1388, "pitch": 55, "duration": 8, "velocity": 73}, {"time": 1388, "pitch": 59, "duration": 10, "velocity": 71}, {"time": 1394, "pitch": 50, "duration": 13, "velocity": 68}, {"time": 1400, "pitch": 62, "duration": 7, "velocity": 76}, {"time": 1406, "pitch": 55, "duration": 7, "velocity": 76}, {"time": 1412, "pitch": 48, "duration": 17, "velocity": 77}, {"time": 1412, "pitch": 64, "duration": 8, "velocity": 76}, {"time": 1418, "pitch": 55, "duration": 7, "velocity": 77}, {"time": 1424, "pitch": 62, "duration": 10, "velocity": 77}, {"time": 1430, "pitch": 55, "duration": 7, "velocity": 74}, {"time": 1436, "pitch": 48, "duration": 16, "velocity": 79}, {"time": 1436, "pitch": 60, "duration": 7, "velocity": 76}, {"time": 1442, "pitch": 55, "duration": 4, "velocity": 77}, {"time": 1448, "pitch": 60, "duration": 4, "velocity": 81}, {"time": 1448, "pitch": 64, "duration": 10, "velocity": 80}, {"time": 1454, "pitch": 47, "duration": 4, "velocity": 79}, {"time": 1460, "pitch": 45, "duration": 21, "velocity": 78}, {"time": 1460, "pitch": 57, "duration": 7, "velocity": 70}, {"time": 1460, "pitch": 60, "duration": 8, "velocity": 71}, {"time": 1466, "pitch": 52, "duration": 15, "velocity": 72}, {"time": 1472, "pitch": 57, "duration": 3, "velocity": 71}, {"time": 1472, "pitch": 60, "duration": 9, "velocity": 78}, {"time": 1472, "pitch": 64, "duration": 10, "velocity": 76}, {"time": 1478, "pitch": 57, "duration": 5, "velocity": 64}, {"time": 1484, "pitch": 40, "duration": 19, "velocity": 82}, {"time": 1484, "pitch": 52, "duration": 12, "velocity": 76}, {"time": 1484, "pitch": 55, "duration": 13, "velocity": 76}, {"time": 1490, "pitch": 47, "duration": 14, "velocity": 66}, {"time": 1496, "pitch": 59, "duration": 11, "velocity": 77}, {"time": 1502, "pitch": 52, "duration": 3, "velocity": 71}, {"time": 1508, "pitch": 41, "duration": 22, "velocity": 72}, {"time": 1508, "pitch": 53, "duration": 13, "velocity": 69}, {"time": 1508, "pitch": 57, "duration": 14, "velocity": 69}, {"time": 1514, "pitch": 48, "duration": 15, "velocity": 71}, {"time": 1520, "pitch": 60, "duration": 12, "velocity": 78}, {"time": 1526, "pitch": 53, "duration": 6, "velocity": 76}, {"time": 1532, "pitch": 40, "duration": 13, "velocity": 78}, {"time": 1532, "pitch": 52, "duration": 8, "velocity": 71}, {"time": 1532, "pitch": 55, "duration": 7, "velocity": 71}, {"time": 1538, "pitch": 47, "duration": 6, "velocity": 65}, {"time": 1544, "pitch": 55, "duration": 6, "velocity": 72}, {"time": 1544, "pitch": 59, "duration": 7, "velocity": 74}, {"time": 1550, "pitch": 52, "duration": 2, "velocity": 76}, {"time": 1556, "pitch": 50, "duration": 24, "velocity": 76}, {"time": 1556, "pitch": 57, "duration": 4, "velocity": 74}, {"time": 1556, "pitch": 62, "duration": 9, "velocity": 67}, {"time": 1562, "pitch": 57, "duration": 7, "velocity": 75}, {"time": 1568, "pitch": 62, "duration": 6, "velocity": 77}, {"time": 1568, "pitch": 65, "duration": 8, "velocity": 78}, {"time": 1574, "pitch": 57, "duration": 8, "velocity": 75}, {"time": 1580, "pitch": 48, "duration": 15, "velocity": 78}, {"time": 1580, "pitch": 60, "duration": 8, "velocity": 66}, {"time": 1580, "pitch": 66, "duration": 8, "velocity": 74}, {"time": 1586, "pitch": 57, "duration": 3, "velocity": 74}, {"time": 1592, "pitch": 60, "duration": 6, "velocity": 76}, {"time": 1598, "pitch": 57, "duration": 3, "velocity": 76}, {"time": 1604, "pitch": 43, "duration": 22, "velocity": 77}, {"time": 1604, "pitch": 55, "duration": 12, "velocity": 72}, {"time": 1604, "pitch": 59, "duration": 12, "velocity": 67}, {"time": 1610, "pitch": 50, "duration": 16, "velocity": 70}, {"time": 1616, "pitch": 62, "duration": 7, "velocity": 77}, {"time": 1622, "pitch": 55, "duration": 4, "velocity": 82}, {"time": 1628, "pitch": 43, "duration": 24, "velocity": 77}, {"time": 1628, "pitch": 55, "duration": 3, "velocity": 77}, {"time": 1628, "pitch": 62, "duration": 3, "velocity": 74}, {"time": 1628, "pitch": 67, "duration": 6, "velocity": 74}, {"time": 1634, "pitch": 50, "duration": 18, "velocity": 77}, {"time": 1640, "pitch": 67, "duration": 4, "velocity": 77}, {"time": 1640, "pitch": 71, "duration": 5, "velocity": 77}, {"time": 1646, "pitch": 67, "duration": 6, "velocity": 68}, {"time": 1646, "pitch": 74, "duration": 7, "velocity": 73}, {"time": 1652, "pitch": 36, "duration": 2, "velocity": 76}, {"time": 1652, "pitch": 55, "duration": 3, "velocity": 69}, {"time": 1652, "pitch": 60, "duration": 9, "velocity": 72}, {"time": 1658, "pitch": 55, "duration": 7, "velocity": 65}, {"time": 1664, "pitch": 64, "duration": 8, "velocity": 80}, {"time": 1670, "pitch": 55, "duration": 4, "velocity": 76}, {"time": 1676, "pitch": 48, "duration": 14, "velocity": 74}, {"time": 1676, "pitch": 55, "duration": 3, "velocity": 69}, {"time": 1676, "pitch": 60, "duration": 9, "velocity": 63}, {"time": 1682, "pitch": 55, "duration": 3, "velocity": 65}, {"time": 1688, "pitch": 55, "duration": 2, "velocity": 78}, {"time": 1688, "pitch": 60, "duration": 7, "velocity": 78}, {"time": 1688, "pitch": 64, "duration": 7, "velocity": 79}, {"time": 1694, "pitch": 55, "duration": 4, "velocity": 76}, {"time": 1700, "pitch": 36, "duration": 44, "velocity": 73}, {"time": 1700, "pitch": 55, "duration": 3, "velocity": 71}, {"time": 1700, "pitch": 58, "duration": 8, "velocity": 67}, {"time": 1706, "pitch": 55, "duration": 3, "velocity": 63}, {"time": 1712, "pitch": 55, "duration": 2, "velocity": 78}, {"time": 1712, "pitch": 64, "duration": 9, "velocity": 77}, {"time": 1718, "pitch": 55, "duration": 3, "velocity": 66}, {"time": 1724, "pitch": 60, "duration": 8, "velocity": 60}, {"time": 1730, "pitch": 55, "duration": 4, "velocity": 75}, {"time": 1736, "pitch": 55, "duration": 3, "velocity": 74}, {"time": 1736, "pitch": 58, "duration": 7, "velocity": 73}, {"time": 1736, "pitch": 60, "duration": 9, "velocity": 75}, {"time": 1742, "pitch": 55, "duration": 5, "velocity": 76}, {"time": 1748, "pitch": 41, "duration": 19, "velocity": 76}, {"time": 1748, "pitch": 60, "duration": 14, "velocity": 72}, {"time": 1754, "pitch": 48, "duration": 12, "velocity": 65}, {"time": 1760, "pitch": 53, "duration": 6, "velocity": 77}, {"time": 1766, "pitch": 60, "duration": 6, "velocity": 77}, {"time": 1772, "pitch": 43, "duration": 21, "velocity": 76}, {"time": 1772, "pitch": 55, "duration": 8, "velocity": 73}, {"time": 1772, "pitch": 59, "duration": 10, "velocity": 71}, {"time": 1778, "pitch": 50, "duration": 13, "velocity": 68}, {"time": 1784, "pitch": 62, "duration": 7, "velocity": 76}, {"time": 1790, "pitch": 55, "duration": 7, "velocity": 76}, {"time": 1796, "pitch": 48, "duration": 17, "velocity": 77}, {"time": 1796, "pitch": 64, "duration": 8, "velocity": 76}, {"time": 1802, "pitch": 55, "duration": 7, "velocity": 77}, {"time": 1808, "pitch": 62, "duration": 10, "velocity": 77}, {"time": 1814, "pitch": 55, "duration": 7, "velocity": 74}, {"time": 1820, "pitch": 48, "duration": 16, "velocity": 79}, {"time": 1820, "pitch": 60, "duration": 7, "velocity": 76}, {"time": 1826, "pitch": 55, "duration": 4, "velocity": 77}, {"time": 1832, "pitch": 60, "duration": 4, "velocity": 81}, {"time": 1832, "pitch": 64, "duration": 10, "velocity": 80}, {"time": 1838, "pitch": 47, "duration": 4, "velocity": 79}, {"time": 1844, "pitch": 45, "duration": 21, "velocity": 78}, {"time": 1844, "pitch": 57, "duration": 7, "velocity": 70}, {"time": 1844, "pitch": 60, "duration": 8, "velocity": 71}, {"time": 1850, "pitch": 52, "duration": 15, "velocity": 72}, {"time": 1856, "pitch": 57, "duration": 3, "velocity": 71}, {"time": 1856, "pitch": 60, "duration": 9, "velocity": 78}, {"time": 1856, "pitch": 64, "duration": 10, "velocity": 76}, {"time": 1862, "pitch": 57, "duration": 5, "velocity": 64}, {"time": 1868, "pitch": 40, "duration": 19, "velocity": 82}, {"time": 1868, "pitch": 52, "duration": 12, "velocity": 76}, {"time": 1868, "pitch": 55, "duration": 13, "velocity": 76}, {"time": 1874, "pitch": 47, "duration": 14, "velocity": 66}, {"time": 1880, "pitch": 59, "duration": 11, "velocity": 77}, {"time": 1886, "pitch": 52, "duration": 3, "velocity": 71}, {"time": 1892, "pitch": 41, "duration": 22, "velocity": 72}, {"time": 1892, "pitch": 53, "duration": 13, "velocity": 69}, {"time": 1892, "pitch": 57, "duration": 14, "velocity": 69}, {"time": 1898, "pitch": 48, "duration": 15, "velocity": 71}, {"time": 1904, "pitch": 60, "duration": 12, "velocity": 78}, {"time": 1910, "pitch": 53, "duration": 6, "velocity": 76}, {"time": 1916, "pitch": 40, "duration": 13, "velocity": 78}, {"time": 1916, "pitch": 52, "duration": 8, "velocity": 71}, {"time": 1916, "pitch": 55, "duration": 7, "velocity": 71}, {"time": 1922, "pitch": 47, "duration": 6, "velocity": 65}, {"time": 1928, "pitch": 55, "duration": 6, "velocity": 72}, {"time": 1928, "pitch": 59, "duration": 7, "velocity": 74}, {"time": 1934, "pitch": 52, "duration": 2, "velocity": 76}, {"time": 1940, "pitch": 50, "duration": 24, "velocity": 76}, {"time": 1940, "pitch": 57, "duration": 4, "velocity": 74}, {"time": 1940, "pitch": 62, "duration": 9, "velocity": 67}, {"time": 1946, "pitch": 57, "duration": 7, "velocity": 75}, {"time": 1952, "pitch": 62, "duration": 6, "velocity": 77}, {"time": 1952, "pitch": 65, "duration": 8, "velocity": 78}, {"time": 1958, "pitch": 57, "duration": 8, "velocity": 75}, {"time": 1964, "pitch": 43, "duration": 19, "velocity": 72}, {"time": 1964, "pitch": 62, "duration": 19, "velocity": 76}, {"time": 1970, "pitch": 50, "duration": 13, "velocity": 76}, {"time": 1976, "pitch": 55, "duration": 7, "velocity": 80}, {"time": 1982, "pitch": 67, "duration": 3, "velocity": 72}, {"time": 1988, "pitch": 41, "duration": 40, "velocity": 77}, {"time": 1988, "pitch": 53, "duration": 18, "velocity": 66}, {"time": 1988, "pitch": 57, "duration": 16, "velocity": 67}, {"time": 1994, "pitch": 48, "duration": 33, "velocity": 71}, {"time": 2000, "pitch": 60, "duration": 7, "velocity": 71}, {"time": 2006, "pitch": 65, "duration": 16, "velocity": 72}, {"time": 2018, "pitch": 53, "duration": 3, "velocity": 62}, {"time": 2024, "pitch": 57, "duration": 3, "velocity": 76}, {"time": 2024, "pitch": 60, "duration": 3, "velocity": 76}, {"time": 2036, "pitch": 40, "duration": 40, "velocity": 78}, {"time": 2036, "pitch": 52, "duration": 11, "velocity": 71}, {"time": 2036, "pitch": 55, "duration": 13, "velocity": 68}, {"time": 2042, "pitch": 47, "duration": 34, "velocity": 71}, {"time": 2048, "pitch": 59, "duration": 7, "velocity": 67}, {"time": 2054, "pitch": 64, "duration": 19, "velocity": 78}, {"time": 2066, "pitch": 52, "duration": 2, "velocity": 47}, {"time": 2072, "pitch": 52, "duration": 2, "velocity": 75}, {"time": 2072, "pitch": 59, "duration": 3, "velocity": 65}, {"time": 2084, "pitch": 44, "duration": 36, "velocity": 73}, {"time": 2084, "pitch": 56, "duration": 12, "velocity": 64}, {"time": 2084, "pitch": 63, "duration": 8, "velocity": 70}, {"time": 2090, "pitch": 51, "duration": 30, "velocity": 62}, {"time": 2096, "pitch": 60, "duration": 20, "velocity": 69}, {"time": 2102, "pitch": 56, "duration": 7, "velocity": 70}, {"time": 2108, "pitch": 68, "duration": 11, "velocity": 78}, {"time": 2114, "pitch": 56, "duration": 7, "velocity": 63}, {"time": 2120, "pitch": 63, "duration": 3, "velocity": 70}, {"time": 2132, "pitch": 43, "duration": 48, "velocity": 77}, {"time": 2132, "pitch": 55, "duration": 8, "velocity": 68}, {"time": 2132, "pitch": 60, "duration": 13, "velocity": 71}, {"time": 2138, "pitch": 50, "duration": 21, "velocity": 68}, {"time": 2144, "pitch": 55, "duration": 9, "velocity": 77}, {"time": 2150, "pitch": 60, "duration": 4, "velocity": 78}, {"time": 2156, "pitch": 55, "duration": 10, "velocity": 76}, {"time": 2156, "pitch": 59, "duration": 9, "velocity": 72}, {"time": 2162, "pitch": 50, "duration": 18, "velocity": 71}, {"time": 2168, "pitch": 59, "duration": 11, "velocity": 71}, {"time": 2168, "pitch": 62, "duration": 12, "velocity": 71}, {"time": 2174, "pitch": 55, "duration": 5, "velocity": 69}, {"time": 2180, "pitch": 48, "duration": 42, "velocity": 73}, {"time": 2180, "pitch": 55, "duration": 3, "velocity": 69}, {"time": 2180, "pitch": 60, "duration": 8, "velocity": 72}, {"time": 2186, "pitch": 55, "duration": 6, "velocity": 67}, {"time": 2192, "pitch": 60, "duration": 7, "velocity": 65}, {"time": 2198, "pitch": 55, "duration": 7, "velocity": 69}, {"time": 2204, "pitch": 64, "duration": 13, "velocity": 78}, {"time": 2210, "pitch": 55, "duration": 7, "velocity": 61}, {"time": 2216, "pitch": 60, "duration": 5, "velocity": 71}, {"time": 2228, "pitch": 47, "duration": 35, "velocity": 75}, {"time": 2228, "pitch": 59, "duration": 3, "velocity": 67}, {"time": 2228, "pitch": 62, "duration": 7, "velocity": 70}, {"time": 2234, "pitch": 59, "duration": 8, "velocity": 64}, {"time": 2240, "pitch": 62, "duration": 8, "velocity": 69}, {"time": 2246, "pitch": 59, "duration": 4, "velocity": 59}, {"time": 2252, "pitch": 59, "duration": 3, "velocity": 76}, {"time": 2252, "pitch": 67, "duration": 11, "velocity": 64}, {"time": 2258, "pitch": 59, "duration": 4, "velocity": 64}, {"time": 2264, "pitch": 65, "duration": 6, "velocity": 68}, {"time": 2264, "pitch": 44, "duration": 10, "velocity": 68}, {"time": 2264, "pitch": 59, "duration": 6, "velocity": 68}, {"time": 2270, "pitch": 59, "duration": 3, "velocity": 49}, {"time": 2276, "pitch": 45, "duration": 38, "velocity": 76}, {"time": 2276, "pitch": 57, "duration": 8, "velocity": 61}, {"time": 2276, "pitch": 60, "duration": 8, "velocity": 68}, {"time": 2282, "pitch": 52, "duration": 8, "velocity": 61}, {"time": 2288, "pitch": 60, "duration": 8, "velocity": 68}, {"time": 2294, "pitch": 52, "duration": 8, "velocity": 65}, {"time": 2300, "pitch": 57, "duration": 5, "velocity": 70}, {"time": 2300, "pitch": 64, "duration": 6, "velocity": 76}, {"time": 2306, "pitch": 52, "duration": 8, "velocity": 63}, {"time": 2312, "pitch": 57, "duration": 3, "velocity": 69}, {"time": 2312, "pitch": 60, "duration": 4, "velocity": 71}, {"time": 2324, "pitch": 40, "duration": 30, "velocity": 77}, {"time": 2324, "pitch": 55, "duration": 4, "velocity": 65}, {"time": 2324, "pitch": 59, "duration": 8, "velocity": 70}, {"time": 2330, "pitch": 55, "duration": 7, "velocity": 63}, {"time": 2336, "pitch": 59, "duration": 7, "velocity": 70}, {"time": 2342, "pitch": 55, "duration": 4, "velocity": 64}, {"time": 2348, "pitch": 55, "duration": 3, "velocity": 73}, {"time": 2348, "pitch": 59, "duration": 7, "velocity": 76}, {"time": 2348, "pitch": 67, "duration": 8, "velocity": 76}, {"time": 2354, "pitch": 55, "duration": 2, "velocity": 72}, {"time": 2360, "pitch": 39, "duration": 10, "velocity": 76}, {"time": 2360, "pitch": 54, "duration": 6, "velocity": 49}, {"time": 2360, "pitch": 66, "duration": 6, "velocity": 74}, {"time": 2372, "pitch": 38, "duration": 17, "velocity": 78}, {"time": 2372, "pitch": 57, "duration": 8, "velocity": 67}, {"time": 2372, "pitch": 65, "duration": 13, "velocity": 64}, {"time": 2378, "pitch": 45, "duration": 10, "velocity": 60}, {"time": 2384, "pitch": 57, "duration": 10, "velocity": 68}, {"time": 2390, "pitch": 62, "duration": 3, "velocity": 72}, {"time": 2396, "pitch": 43, "duration": 21, "velocity": 77}, {"time": 2402, "pitch": 50, "duration": 14, "velocity": 76}, {"time": 2408, "pitch": 55, "duration": 3, "velocity": 72}, {"time": 2408, "pitch": 59, "duration": 7, "velocity": 71}, {"time": 2408, "pitch": 62, "duration": 8, "velocity": 73}, {"time": 2414, "pitch": 55, "duration": 6, "velocity": 66}, {"time": 2420, "pitch": 40, "duration": 13, "velocity": 77}, {"time": 2420, "pitch": 55, "duration": 8, "velocity": 69}, {"time": 2420, "pitch": 64, "duration": 13, "velocity": 74}, {"time": 2426, "pitch": 47, "duration": 7, "velocity": 69}, {"time": 2432, "pitch": 55, "duration": 7, "velocity": 75}, {"time": 2438, "pitch": 64, "duration": 15, "velocity": 76}, {"time": 2444, "pitch": 45, "duration": 19, "velocity": 77}, {"time": 2450, "pitch": 52, "duration": 9, "velocity": 75}, {"time": 2456, "pitch": 57, "duration": 4, "velocity": 71}, {"time": 2456, "pitch": 61, "duration": 7, "velocity": 76}, {"time": 2462, "pitch": 57, "duration": 8, "velocity": 70}, {"time": 2468, "pitch": 50, "duration": 22, "velocity": 78}, {"time": 2468, "pitch": 57, "duration": 2, "velocity": 64}, {"time": 2468, "pitch": 65, "duration": 14, "velocity": 69}, {"time": 2474, "pitch": 57, "duration": 8, "velocity": 76}, {"time": 2480, "pitch": 62, "duration": 6, "velocity": 77}, {"time": 2486, "pitch": 57, "duration": 3, "velocity": 72}, {"time": 2492, "pitch": 43, "duration": 21, "velocity": 75}, {"time": 2492, "pitch": 55, "duration": 10, "velocity": 67}, {"time": 2492, "pitch": 59, "duration": 10, "velocity": 66}, {"time": 2498, "pitch": 50, "duration": 14, "velocity": 69}, {"time": 2504, "pitch": 55, "duration": 3, "velocity": 71}, {"time": 2504, "pitch": 59, "duration": 7, "velocity": 73}, {"time": 2504, "pitch": 62, "duration": 7, "velocity": 75}, {"time": 2510, "pitch": 55, "duration": 4, "velocity": 66}, {"time": 2516, "pitch": 48, "duration": 43, "velocity": 72}, {"time": 2516, "pitch": 55, "duration": 3, "velocity": 76}, {"time": 2516, "pitch": 60, "duration": 11, "velocity": 75}, {"time": 2522, "pitch": 55, "duration": 6, "velocity": 73}, {"time": 2528, "pitch": 62, "duration": 7, "velocity": 74}, {"time": 2534, "pitch": 55, "duration": 4, "velocity": 69}, {"time": 2540, "pitch": 55, "duration": 2, "velocity": 77}, {"time": 2540, "pitch": 64, "duration": 10, "velocity": 76}, {"time": 2546, "pitch": 55, "duration": 4, "velocity": 64}, {"time": 2552, "pitch": 60, "duration": 6, "velocity": 76}, {"time": 2558, "pitch": 55, "duration": 4, "velocity": 76}, {"time": 2564, "pitch": 43, "duration": 22, "velocity": 77}, {"time": 2564, "pitch": 55, "duration": 9, "velocity": 71}, {"time": 2564, "pitch": 62, "duration": 10, "velocity": 71}, {"time": 2570, "pitch": 50, "duration": 15, "velocity": 79}, {"time": 2576, "pitch": 62, "duration": 9, "velocity": 78}, {"time": 2582, "pitch": 55, "duration": 4, "velocity": 76}, {"time": 2588, "pitch": 43, "duration": 24, "velocity": 80}, {"time": 2588, "pitch": 55, "duration": 3, "velocity": 78}, {"time": 2588, "pitch": 62, "duration": 3, "velocity": 77}, {"time": 2588, "pitch": 67, "duration": 5, "velocity": 73}, {"time": 2594, "pitch": 50, "duration": 9, "velocity": 76}, {"time": 2600, "pitch": 67, "duration": 5, "velocity": 77}, {"time": 2600, "pitch": 71, "duration": 12, "velocity": 82}, {"time": 2606, "pitch": 50, "duration": 6, "velocity": 71}, {"time": 2606, "pitch": 67, "duration": 3, "velocity": 44}, {"time": 2612, "pitch": 36, "duration": 2, "velocity": 76}, {"time": 2612, "pitch": 55, "duration": 3, "velocity": 69}, {"time": 2612, "pitch": 60, "duration": 9, "velocity": 72}, {"time": 2618, "pitch": 55, "duration": 7, "velocity": 65}, {"time": 2624, "pitch": 64, "duration": 8, "velocity": 80}, {"time": 2630, "pitch": 55, "duration": 4, "velocity": 76}, {"time": 2636, "pitch": 48, "duration": 14, "velocity": 74}, {"time": 2636, "pitch": 55, "duration": 3, "velocity": 69}, {"time": 2636, "pitch": 60, "duration": 9, "velocity": 63}, {"time": 2642, "pitch": 55, "duration": 3, "velocity": 65}, {"time": 2648, "pitch": 55, "duration": 2, "velocity": 78}, {"time": 2648, "pitch": 60, "duration": 7, "velocity": 78}, {"time": 2648, "pitch": 64, "duration": 7, "velocity": 79}, {"time": 2654, "pitch": 55, "duration": 4, "velocity": 76}, {"time": 2660, "pitch": 36, "duration": 44, "velocity": 73}, {"time": 2660, "pitch": 55, "duration": 3, "velocity": 71}, {"time": 2660, "pitch": 58, "duration": 8, "velocity": 67}, {"time": 2666, "pitch": 55, "duration": 3, "velocity": 63}, {"time": 2672, "pitch": 55, "duration": 2, "velocity": 78}, {"time": 2672, "pitch": 64, "duration": 9, "velocity": 77}, {"time": 2678, "pitch": 55, "duration": 3, "velocity": 66}, {"time": 2684, "pitch": 60, "duration": 8, "velocity": 60}, {"time": 2690, "pitch": 55, "duration": 4, "velocity": 75}, {"time": 2696, "pitch": 55, "duration": 3, "velocity": 74}, {"time": 2696, "pitch": 58, "duration": 7, "velocity": 73}, {"time": 2696, "pitch": 60, "duration": 9, "velocity": 75}, {"time": 2702, "pitch": 55, "duration": 5, "velocity": 76}, {"time": 2708, "pitch": 41, "duration": 19, "velocity": 76}, {"time": 2708, "pitch": 60, "duration": 14, "velocity": 72}, {"time": 2714, "pitch": 48, "duration": 12, "velocity": 65}, {"time": 2720, "pitch": 53, "duration": 6, "velocity": 77}, {"time": 2726, "pitch": 60, "duration": 6, "velocity": 77}, {"time": 2732, "pitch": 43, "duration": 21, "velocity": 76}, {"time": 2732, "pitch": 55, "duration": 8, "velocity": 73}, {"time": 2732, "pitch": 59, "duration": 10, "velocity": 71}, {"time": 2738, "pitch": 50, "duration": 13, "velocity": 68}, {"time": 2744, "pitch": 62, "duration": 7, "velocity": 76}, {"time": 2750, "pitch": 55, "duration": 7, "velocity": 76}, {"time": 2756, "pitch": 48, "duration": 17, "velocity": 77}, {"time": 2756, "pitch": 64, "duration": 8, "velocity": 76}, {"time": 2762, "pitch": 55, "duration": 7, "velocity": 77}, {"time": 2768, "pitch": 62, "duration": 10, "velocity": 77}, {"time": 2774, "pitch": 55, "duration": 7, "velocity": 74}, {"time": 2780, "pitch": 48, "duration": 16, "velocity": 79}, {"time": 2780, "pitch": 60, "duration": 7, "velocity": 76}, {"time": 2786, "pitch": 55, "duration": 4, "velocity": 77}, {"time": 2792, "pitch": 60, "duration": 4, "velocity": 81}, {"time": 2792, "pitch": 64, "duration": 10, "velocity": 80}, {"time": 2798, "pitch": 47, "duration": 4, "velocity": 79}, {"time": 2804, "pitch": 45, "duration": 21, "velocity": 78}, {"time": 2804, "pitch": 57, "duration": 7, "velocity": 70}, {"time": 2804, "pitch": 60, "duration": 8, "velocity": 71}, {"time": 2810, "pitch": 52, "duration": 15, "velocity": 72}, {"time": 2816, "pitch": 57, "duration": 3, "velocity": 71}, {"time": 2816, "pitch": 60, "duration": 9, "velocity": 78}, {"time": 2816, "pitch": 64, "duration": 10, "velocity": 76}, {"time": 2822, "pitch": 57, "duration": 5, "velocity": 64}, {"time": 2828, "pitch": 40, "duration": 19, "velocity": 82}, {"time": 2828, "pitch": 52, "duration": 12, "velocity": 76}, {"time": 2828, "pitch": 55, "duration": 13, "velocity": 76}, {"time": 2834, "pitch": 47, "duration": 14, "velocity": 66}, {"time": 2840, "pitch": 59, "duration": 11, "velocity": 77}, {"time": 2846, "pitch": 52, "duration": 3, "velocity": 71}, {"time": 2852, "pitch": 41, "duration": 22, "velocity": 72}, {"time": 2852, "pitch": 53, "duration": 13, "velocity": 69}, {"time": 2852, "pitch": 57, "duration": 14, "velocity": 69}, {"time": 2858, "pitch": 48, "duration": 15, "velocity": 71}, {"time": 2864, "pitch": 60, "duration": 12, "velocity": 78}, {"time": 2870, "pitch": 53, "duration": 6, "velocity": 76}, {"time": 2876, "pitch": 40, "duration": 13, "velocity": 78}, {"time": 2876, "pitch": 52, "duration": 8, "velocity": 71}, {"time": 2876, "pitch": 55, "duration": 7, "velocity": 71}, {"time": 2882, "pitch": 47, "duration": 6, "velocity": 65}, {"time": 2888, "pitch": 55, "duration": 6, "velocity": 72}, {"time": 2888, "pitch": 59, "duration": 7, "velocity": 74}, {"time": 2894, "pitch": 52, "duration": 2, "velocity": 76}, {"time": 2900, "pitch": 50, "duration": 24, "velocity": 76}, {"time": 2900, "pitch": 57, "duration": 4, "velocity": 74}, {"time": 2900, "pitch": 62, "duration": 9, "velocity": 67}, {"time": 2906, "pitch": 57, "duration": 7, "velocity": 75}, {"time": 2912, "pitch": 62, "duration": 6, "velocity": 77}, {"time": 2912, "pitch": 65, "duration": 8, "velocity": 78}, {"time": 2918, "pitch": 57, "duration": 8, "velocity": 75}, {"time": 2924, "pitch": 48, "duration": 15, "velocity": 78}, {"time": 2924, "pitch": 60, "duration": 8, "velocity": 66}, {"time": 2924, "pitch": 66, "duration": 8, "velocity": 74}, {"time": 2930, "pitch": 57, "duration": 3, "velocity": 74}, {"time": 2936, "pitch": 60, "duration": 6, "velocity": 76}, {"time": 2942, "pitch": 57, "duration": 3, "velocity": 76}, {"time": 2948, "pitch": 43, "duration": 22, "velocity": 77}, {"time": 2948, "pitch": 55, "duration": 12, "velocity": 72}, {"time": 2948, "pitch": 59, "duration": 12, "velocity": 67}, {"time": 2954, "pitch": 50, "duration": 16, "velocity": 70}, {"time": 2960, "pitch": 62, "duration": 7, "velocity": 77}, {"time": 2966, "pitch": 55, "duration": 4, "velocity": 82}, {"time": 2972, "pitch": 43, "duration": 24, "velocity": 77}, {"time": 2972, "pitch": 55, "duration": 3, "velocity": 77}, {"time": 2972, "pitch": 62, "duration": 3, "velocity": 74}, {"time": 2972, "pitch": 67, "duration": 6, "velocity": 74}, {"time": 2978, "pitch": 50, "duration": 18, "velocity": 77}, {"time": 2984, "pitch": 67, "duration": 4, "velocity": 77}, {"time": 2984, "pitch": 71, "duration": 5, "velocity": 77}, {"time": 2990, "pitch": 67, "duration": 6, "velocity": 68}, {"time": 2990, "pitch": 74, "duration": 7, "velocity": 73}, {"time": 2996, "pitch": 36, "duration": 2, "velocity": 76}, {"time": 2996, "pitch": 55, "duration": 3, "velocity": 69}, {"time": 2996, "pitch": 60, "duration": 9, "velocity": 72}, {"time": 3002, "pitch": 55, "duration": 7, "velocity": 65}, {"time": 3008, "pitch": 64, "duration": 8, "velocity": 80}, {"time": 3014, "pitch": 55, "duration": 4, "velocity": 76}, {"time": 3020, "pitch": 48, "duration": 14, "velocity": 74}, {"time": 3020, "pitch": 55, "duration": 3, "velocity": 69}, {"time": 3020, "pitch": 60, "duration": 9, "velocity": 63}, {"time": 3026, "pitch": 55, "duration": 3, "velocity": 65}, {"time": 3032, "pitch": 55, "duration": 2, "velocity": 78}, {"time": 3032, "pitch": 60, "duration": 7, "velocity": 78}, {"time": 3032, "pitch": 64, "duration": 7, "velocity": 79}, {"time": 3038, "pitch": 55, "duration": 4, "velocity": 76}, {"time": 3044, "pitch": 36, "duration": 44, "velocity": 73}, {"time": 3044, "pitch": 55, "duration": 3, "velocity": 71}, {"time": 3044, "pitch": 58, "duration": 8, "velocity": 67}, {"time": 3050, "pitch": 55, "duration": 3, "velocity": 63}, {"time": 3056, "pitch": 55, "duration": 2, "velocity": 78}, {"time": 3056, "pitch": 64, "duration": 9, "velocity": 77}, {"time": 3062, "pitch": 55, "duration": 3, "velocity": 66}, {"time": 3068, "pitch": 60, "duration": 8, "velocity": 60}, {"time": 3074, "pitch": 55, "duration": 4, "velocity": 75}, {"time": 3080, "pitch": 55, "duration": 3, "velocity": 74}, {"time": 3080, "pitch": 58, "duration": 7, "velocity": 73}, {"time": 3080, "pitch": 60, "duration": 9, "velocity": 75}, {"time": 3086, "pitch": 55, "duration": 5, "velocity": 76}, {"time": 3092, "pitch": 41, "duration": 19, "velocity": 76}, {"time": 3092, "pitch": 60, "duration": 14, "velocity": 72}, {"time": 3098, "pitch": 48, "duration": 12, "velocity": 65}, {"time": 3104, "pitch": 53, "duration": 6, "velocity": 77}, {"time": 3110, "pitch": 60, "duration": 6, "velocity": 77}, {"time": 3116, "pitch": 43, "duration": 21, "velocity": 76}, {"time": 3116, "pitch": 55, "duration": 8, "velocity": 73}, {"time": 3116, "pitch": 59, "duration": 10, "velocity": 71}, {"time": 3122, "pitch": 50, "duration": 13, "velocity": 68}, {"time": 3128, "pitch": 62, "duration": 7, "velocity": 76}, {"time": 3134, "pitch": 55, "duration": 7, "velocity": 76}, {"time": 3140, "pitch": 48, "duration": 17, "velocity": 77}, {"time": 3140, "pitch": 64, "duration": 8, "velocity": 76}, {"time": 3146, "pitch": 55, "duration": 7, "velocity": 77}, {"time": 3152, "pitch": 62, "duration": 10, "velocity": 77}, {"time": 3158, "pitch": 55, "duration": 7, "velocity": 74}, {"time": 3164, "pitch": 48, "duration": 16, "velocity": 79}, {"time": 3164, "pitch": 60, "duration": 7, "velocity": 76}, {"time": 3170, "pitch": 55, "duration": 4, "velocity": 77}, {"time": 3176, "pitch": 60, "duration": 4, "velocity": 81}, {"time": 3176, "pitch": 64, "duration": 10, "velocity": 80}, {"time": 3182, "pitch": 47, "duration": 4, "velocity": 79}, {"time": 3188, "pitch": 45, "duration": 21, "velocity": 78}, {"time": 3188, "pitch": 57, "duration": 7, "velocity": 70}, {"time": 3188, "pitch": 60, "duration": 8, "velocity": 71}, {"time": 3194, "pitch": 52, "duration": 15, "velocity": 72}, {"time": 3200, "pitch": 57, "duration": 3, "velocity": 71}, {"time": 3200, "pitch": 60, "duration": 9, "velocity": 78}, {"time": 3200, "pitch": 64, "duration": 10, "velocity": 76}, {"time": 3206, "pitch": 57, "duration": 5, "velocity": 64}, {"time": 3212, "pitch": 40, "duration": 19, "velocity": 82}, {"time": 3212, "pitch": 52, "duration": 12, "velocity": 76}, {"time": 3212, "pitch": 55, "duration": 13, "velocity": 76}, {"time": 3218, "pitch": 47, "duration": 14, "velocity": 66}, {"time": 3224, "pitch": 59, "duration": 11, "velocity": 77}, {"time": 3230, "pitch": 52, "duration": 3, "velocity": 71}, {"time": 3236, "pitch": 41, "duration": 22, "velocity": 72}, {"time": 3236, "pitch": 53, "duration": 13, "velocity": 69}, {"time": 3236, "pitch": 57, "duration": 14, "velocity": 69}, {"time": 3242, "pitch": 48, "duration": 15, "velocity": 71}, {"time": 3248, "pitch": 60, "duration": 12, "velocity": 78}, {"time": 3254, "pitch": 53, "duration": 6, "velocity": 76}, {"time": 3260, "pitch": 40, "duration": 13, "velocity": 78}, {"time": 3260, "pitch": 52, "duration": 8, "velocity": 71}, {"time": 3260, "pitch": 55, "duration": 7, "velocity": 71}, {"time": 3266, "pitch": 47, "duration": 6, "velocity": 65}, {"time": 3272, "pitch": 55, "duration": 6, "velocity": 72}, {"time": 3272, "pitch": 59, "duration": 7, "velocity": 74}, {"time": 3278, "pitch": 52, "duration": 2, "velocity": 76}, {"time": 3284, "pitch": 50, "duration": 24, "velocity": 76}, {"time": 3284, "pitch": 57, "duration": 4, "velocity": 74}, {"time": 3284, "pitch": 62, "duration": 9, "velocity": 67}, {"time": 3290, "pitch": 57, "duration": 7, "velocity": 75}, {"time": 3296, "pitch": 62, "duration": 6, "velocity": 77}, {"time": 3296, "pitch": 65, "duration": 8, "velocity": 78}, {"time": 3302, "pitch": 57, "duration": 8, "velocity": 75}, {"time": 3308, "pitch": 43, "duration": 19, "velocity": 72}, {"time": 3308, "pitch": 62, "duration": 19, "velocity": 76}, {"time": 3314, "pitch": 50, "duration": 13, "velocity": 76}, {"time": 3320, "pitch": 55, "duration": 7, "velocity": 80}, {"time": 3326, "pitch": 67, "duration": 3, "velocity": 72}, {"time": 3332, "pitch": 36, "duration": 36, "velocity": 72}, {"time": 3332, "pitch": 55, "duration": 8, "velocity": 68}, {"time": 3332, "pitch": 64, "duration": 15, "velocity": 76}, {"time": 3338, "pitch": 43, "duration": 30, "velocity": 52}, {"time": 3344, "pitch": 55, "duration": 7, "velocity": 71}, {"time": 3350, "pitch": 62, "duration": 4, "velocity": 73}, {"time": 3356, "pitch": 55, "duration": 20, "velocity": 73}, {"time": 3356, "pitch": 60, "duration": 21, "velocity": 72}, {"time": 3380, "pitch": 38, "duration": 2, "velocity": 76}, {"time": 3380, "pitch": 57, "duration": 3, "velocity": 69}, {"time": 3380, "pitch": 62, "duration": 9, "velocity": 72}, {"time": 3386, "pitch": 57, "duration": 7, "velocity": 65}, {"time": 3392, "pitch": 66, "duration": 8, "velocity": 80}, {"time": 3398, "pitch": 57, "duration": 4, "velocity": 76}, {"time": 3404, "pitch": 50, "duration": 14, "velocity": 74}, {"time": 3404, "pitch": 57, "duration": 3, "velocity": 69}, {"time": 3404, "pitch": 62, "duration": 9, "velocity": 63}, {"time": 3410, "pitch": 57, "duration": 3, "velocity": 65}, {"time": 3416, "pitch": 57, "duration": 2, "velocity": 78}, {"time": 3416, "pitch": 62, "duration": 7, "velocity": 78}, {"time": 3416, "pitch": 66, "duration": 7, "velocity": 79}, {"time": 3422, "pitch": 57, "duration": 4, "velocity": 76}, {"time": 3428, "pitch": 38, "duration": 44, "velocity": 73}, {"time": 3428, "pitch": 57, "duration": 3, "velocity": 71}, {"time": 3428, "pitch": 60, "duration": 8, "velocity": 67}, {"time": 3434, "pitch": 57, "duration": 3, "velocity": 63}, {"time": 3440, "pitch": 57, "duration": 2, "velocity": 78}, {"time": 3440, "pitch": 66, "duration": 9, "velocity": 77}, {"time": 3446, "pitch": 57, "duration": 3, "velocity": 66}, {"time": 3452, "pitch": 62, "duration": 8, "velocity": 60}, {"time": 3458, "pitch": 57, "duration": 4, "velocity": 75}, {"time": 3464, "pitch": 57, "duration": 3, "velocity": 74}, {"time": 3464, "pitch": 60, "duration": 7, "velocity": 73}, {"time": 3464, "pitch": 62, "duration": 9, "velocity": 75}, {"time": 3470, "pitch": 57, "duration": 5, "velocity": 76}, {"time": 3476, "pitch": 43, "duration": 19, "velocity": 76}, {"time": 3476, "pitch": 62, "duration": 14, "velocity": 72}, {"time": 3482, "pitch": 50, "duration": 12, "velocity": 65}, {"time": 3488, "pitch": 55, "duration": 6, "velocity": 77}, {"time": 3494, "pitch": 62, "duration": 6, "velocity": 77}, {"time": 3500, "pitch": 45, "duration": 21, "velocity": 76}, {"time": 3500, "pitch": 57, "duration": 8, "velocity": 73}, {"time": 3500, "pitch": 61, "duration": 10, "velocity": 71}, {"time": 3506, "pitch": 52, "duration": 13, "velocity": 68}, {"time": 3512, "pitch": 64, "duration": 7, "velocity": 76}, {"time": 3518, "pitch": 57, "duration": 7, "velocity": 76}, {"time": 3524, "pitch": 50, "duration": 17, "velocity": 77}, {"time": 3524, "pitch": 66, "duration": 8, "velocity": 76}, {"time": 3530, "pitch": 57, "duration": 7, "velocity": 77}, {"time": 3536, "pitch": 64, "duration": 10, "velocity": 77}, {"time": 3542, "pitch": 57, "duration": 7, "velocity": 74}, {"time": 3548, "pitch": 50, "duration": 16, "velocity": 79}, {"time": 3548, "pitch": 62, "duration": 7, "velocity": 76}, {"time": 3554, "pitch": 57, "duration": 4, "velocity": 77}, {"time": 3560, "pitch": 62, "duration": 4, "velocity": 81}, {"time": 3560, "pitch": 66, "duration": 10, "velocity": 80}, {"time": 3566, "pitch": 49, "duration": 4, "velocity": 79}, {"time": 3572, "pitch": 47, "duration": 21, "velocity": 78}, {"time": 3572, "pitch": 59, "duration": 7, "velocity": 70}, {"time": 3572, "pitch": 62, "duration": 8, "velocity": 71}, {"time": 3578, "pitch": 54, "duration": 15, "velocity": 72}, {"time": 3584, "pitch": 59, "duration": 3, "velocity": 71}, {"time": 3584, "pitch": 62, "duration": 9, "velocity": 78}, {"time": 3584, "pitch": 66, "duration": 10, "velocity": 76}, {"time": 3590, "pitch": 59, "duration": 5, "velocity": 64}, {"time": 3596, "pitch": 42, "duration": 19, "velocity": 82}, {"time": 3596, "pitch": 54, "duration": 12, "velocity": 76}, {"time": 3596, "pitch": 57, "duration": 13, "velocity": 76}, {"time": 3602, "pitch": 49, "duration": 14, "velocity": 66}, {"time": 3608, "pitch": 61, "duration": 11, "velocity": 77}, {"time": 3614, "pitch": 54, "duration": 3, "velocity": 71}, {"time": 3620, "pitch": 43, "duration": 22, "velocity": 72}, {"time": 3620, "pitch": 55, "duration": 13, "velocity": 69}, {"time": 3620, "pitch": 59, "duration": 14, "velocity": 69}, {"time": 3626, "pitch": 50, "duration": 15, "velocity": 71}, {"time": 3632, "pitch": 62, "duration": 12, "velocity": 78}, {"time": 3638, "pitch": 55, "duration": 6, "velocity": 76}, {"time": 3644, "pitch": 42, "duration": 13, "velocity": 78}, {"time": 3644, "pitch": 54, "duration": 8, "velocity": 71}, {"time": 3644, "pitch": 57, "duration": 7, "velocity": 71}, {"time": 3650, "pitch": 49, "duration": 6, "velocity": 65}, {"time": 3656, "pitch": 57, "duration": 6, "velocity": 72}, {"time": 3656, "pitch": 61, "duration": 7, "velocity": 74}, {"time": 3662, "pitch": 54, "duration": 2, "velocity": 76}, {"time": 3668, "pitch": 52, "duration": 24, "velocity": 76}, {"time": 3668, "pitch": 59, "duration": 4, "velocity": 74}, {"time": 3668, "pitch": 64, "duration": 9, "velocity": 67}, {"time": 3674, "pitch": 59, "duration": 7, "velocity": 75}, {"time": 3680, "pitch": 64, "duration": 6, "velocity": 77}, {"time": 3680, "pitch": 67, "duration": 8, "velocity": 78}, {"time": 3686, "pitch": 59, "duration": 8, "velocity": 75}, {"time": 3692, "pitch": 50, "duration": 15, "velocity": 78}, {"time": 3692, "pitch": 62, "duration": 8, "velocity": 66}, {"time": 3692, "pitch": 68, "duration": 8, "velocity": 74}, {"time": 3698, "pitch": 59, "duration": 3, "velocity": 74}, {"time": 3704, "pitch": 62, "duration": 6, "velocity": 76}, {"time": 3710, "pitch": 59, "duration": 3, "velocity": 76}, {"time": 3716, "pitch": 45, "duration": 22, "velocity": 77}, {"time": 3716, "pitch": 57, "duration": 12, "velocity": 72}, {"time": 3716, "pitch": 61, "duration": 12, "velocity": 67}, {"time": 3722, "pitch": 52, "duration": 16, "velocity": 70}, {"time": 3728, "pitch": 64, "duration": 7, "velocity": 77}, {"time": 3734, "pitch": 57, "duration": 4, "velocity": 82}, {"time": 3740, "pitch": 45, "duration": 24, "velocity": 77}, {"time": 3740, "pitch": 57, "duration": 3, "velocity": 77}, {"time": 3740, "pitch": 64, "duration": 3, "velocity": 74}, {"time": 3740, "pitch": 69, "duration": 6, "velocity": 74}, {"time": 3746, "pitch": 52, "duration": 18, "velocity": 77}, {"time": 3752, "pitch": 69, "duration": 4, "velocity": 77}, {"time": 3752, "pitch": 73, "duration": 5, "velocity": 77}, {"time": 3758, "pitch": 69, "duration": 6, "velocity": 68}, {"time": 3758, "pitch": 76, "duration": 7, "velocity": 73}, {"time": 3764, "pitch": 38, "duration": 2, "velocity": 76}, {"time": 3764, "pitch": 57, "duration": 3, "velocity": 69}, {"time": 3764, "pitch": 62, "duration": 9, "velocity": 72}, {"time": 3770, "pitch": 57, "duration": 7, "velocity": 65}, {"time": 3776, "pitch": 66, "duration": 8, "velocity": 80}, {"time": 3782, "pitch": 57, "duration": 4, "velocity": 76}, {"time": 3788, "pitch": 50, "duration": 14, "velocity": 74}, {"time": 3788, "pitch": 57, "duration": 3, "velocity": 69}, {"time": 3788, "pitch": 62, "duration": 9, "velocity": 63}, {"time": 3794, "pitch": 57, "duration": 3, "velocity": 65}, {"time": 3800, "pitch": 57, "duration": 2, "velocity": 78}, {"time": 3800, "pitch": 62, "duration": 7, "velocity": 78}, {"time": 3800, "pitch": 66, "duration": 7, "velocity": 79}, {"time": 3806, "pitch": 57, "duration": 4, "velocity": 76}, {"time": 3812, "pitch": 38, "duration": 44, "velocity": 73}, {"time": 3812, "pitch": 57, "duration": 3, "velocity": 71}, {"time": 3812, "pitch": 60, "duration": 8, "velocity": 67}, {"time": 3818, "pitch": 57, "duration": 3, "velocity": 63}, {"time": 3824, "pitch": 57, "duration": 2, "velocity": 78}, {"time": 3824, "pitch": 66, "duration": 9, "velocity": 77}, {"time": 3830, "pitch": 57, "duration": 3, "velocity": 66}, {"time": 3836, "pitch": 62, "duration": 8, "velocity": 60}, {"time": 3842, "pitch": 57, "duration": 4, "velocity": 75}, {"time": 3848, "pitch": 57, "duration": 3, "velocity": 74}, {"time": 3848, "pitch": 60, "duration": 7, "velocity": 73}, {"time": 3848, "pitch": 62, "duration": 9, "velocity": 75}, {"time": 3854, "pitch": 57, "duration": 5, "velocity": 76}, {"time": 3860, "pitch": 43, "duration": 19, "velocity": 76}, {"time": 3860, "pitch": 62, "duration": 14, "velocity": 72}, {"time": 3866, "pitch": 50, "duration": 12, "velocity": 65}, {"time": 3872, "pitch": 55, "duration": 6, "velocity": 77}, {"time": 3878, "pitch": 62, "duration": 6, "velocity": 77}, {"time": 3884, "pitch": 45, "duration": 21, "velocity": 76}, {"time": 3884, "pitch": 57, "duration": 8, "velocity": 73}, {"time": 3884, "pitch": 61, "duration": 10, "velocity": 71}, {"time": 3890, "pitch": 52, "duration": 13, "velocity": 68}, {"time": 3896, "pitch": 64, "duration": 7, "velocity": 76}, {"time": 3902, "pitch": 57, "duration": 7, "velocity": 76}, {"time": 3908, "pitch": 50, "duration": 17, "velocity": 77}, {"time": 3908, "pitch": 66, "duration": 8, "velocity": 76}, {"time": 3914, "pitch": 57, "duration": 7, "velocity": 77}, {"time": 3920, "pitch": 64, "duration": 10, "velocity": 77}, {"time": 3926, "pitch": 57, "duration": 7, "velocity": 74}, {"time": 3932, "pitch": 50, "duration": 16, "velocity": 79}, {"time": 3932, "pitch": 62, "duration": 7, "velocity": 76}, {"time": 3938, "pitch": 57, "duration": 4, "velocity": 77}, {"time": 3944, "pitch": 62, "duration": 4, "velocity": 81}, {"time": 3944, "pitch": 66, "duration": 10, "velocity": 80}, {"time": 3950, "pitch": 49, "duration": 4, "velocity": 79}, {"time": 3956, "pitch": 47, "duration": 21, "velocity": 78}, {"time": 3956, "pitch": 59, "duration": 7, "velocity": 70}, {"time": 3956, "pitch": 62, "duration": 8, "velocity": 71}, {"time": 3962, "pitch": 54, "duration": 15, "velocity": 72}, {"time": 3968, "pitch": 59, "duration": 3, "velocity": 71}, {"time": 3968, "pitch": 62, "duration": 9, "velocity": 78}, {"time": 3968, "pitch": 66, "duration": 10, "velocity": 76}, {"time": 3974, "pitch": 59, "duration": 5, "velocity": 64}, {"time": 3980, "pitch": 42, "duration": 19, "velocity": 82}, {"time": 3980, "pitch": 54, "duration": 12, "velocity": 76}, {"time": 3980, "pitch": 57, "duration": 13, "velocity": 76}, {"time": 3986, "pitch": 49, "duration": 14, "velocity": 66}, {"time": 3992, "pitch": 61, "duration": 11, "velocity": 77}, {"time": 3998, "pitch": 54, "duration": 3, "velocity": 71}, {"time": 4004, "pitch": 43, "duration": 22, "velocity": 72}, {"time": 4004, "pitch": 55, "duration": 13, "velocity": 69}, {"time": 4004, "pitch": 59, "duration": 14, "velocity": 69}, {"time": 4010, "pitch": 50, "duration": 15, "velocity": 71}, {"time": 4016, "pitch": 62, "duration": 12, "velocity": 78}, {"time": 4022, "pitch": 55, "duration": 6, "velocity": 76}, {"time": 4028, "pitch": 42, "duration": 13, "velocity": 78}, {"time": 4028, "pitch": 54, "duration": 8, "velocity": 71}, {"time": 4028, "pitch": 57, "duration": 7, "velocity": 71}, {"time": 4034, "pitch": 49, "duration": 6, "velocity": 65}, {"time": 4040, "pitch": 57, "duration": 6, "velocity": 72}, {"time": 4040, "pitch": 61, "duration": 7, "velocity": 74}, {"time": 4046, "pitch": 54, "duration": 2, "velocity": 76}, {"time": 4052, "pitch": 52, "duration": 24, "velocity": 76}, {"time": 4052, "pitch": 59, "duration": 4, "velocity": 74}, {"time": 4052, "pitch": 64, "duration": 9, "velocity": 67}, {"time": 4058, "pitch": 59, "duration": 7, "velocity": 75}, {"time": 4064, "pitch": 64, "duration": 6, "velocity": 77}, {"time": 4064, "pitch": 67, "duration": 8, "velocity": 78}, {"time": 4070, "pitch": 59, "duration": 8, "velocity": 75}, {"time": 4076, "pitch": 45, "duration": 19, "velocity": 72}, {"time": 4076, "pitch": 64, "duration": 19, "velocity": 76}, {"time": 4082, "pitch": 52, "duration": 13, "velocity": 76}, {"time": 4088, "pitch": 57, "duration": 7, "velocity": 80}, {"time": 4094, "pitch": 69, "duration": 3, "velocity": 72}, {"time": 4100, "pitch": 43, "duration": 39, "velocity": 76}, {"time": 4100, "pitch": 62, "duration": 7, "velocity": 65}, {"time": 4100, "pitch": 55, "duration": 17, "velocity": 64}, {"time": 4106, "pitch": 50, "duration": 26, "velocity": 63}, {"time": 4112, "pitch": 62, "duration": 6, "velocity": 69}, {"time": 4118, "pitch": 67, "duration": 2, "velocity": 71}, {"time": 4130, "pitch": 71, "duration": 9, "velocity": 71}, {"time": 4130, "pitch": 67, "duration": 8, "velocity": 64}, {"time": 4136, "pitch": 50, "duration": 4, "velocity": 68}, {"time": 4148, "pitch": 42, "duration": 35, "velocity": 70}, {"time": 4148, "pitch": 69, "duration": 14, "velocity": 66}, {"time": 4154, "pitch": 49, "duration": 29, "velocity": 49}, {"time": 4160, "pitch": 61, "duration": 11, "velocity": 61}, {"time": 4165, "pitch": 69, "duration": 14, "velocity": 73}, {"time": 4178, "pitch": 66, "duration": 6, "velocity": 68}, {"time": 4184, "pitch": 61, "duration": 2, "velocity": 57}, {"time": 4197, "pitch": 40, "duration": 34, "velocity": 76}, {"time": 4197, "pitch": 67, "duration": 12, "velocity": 63}, {"time": 4197, "pitch": 62, "duration": 7, "velocity": 63}, {"time": 4202, "pitch": 47, "duration": 27, "velocity": 62}, {"time": 4209, "pitch": 62, "duration": 14, "velocity": 74}, {"time": 4216, "pitch": 67, "duration": 9, "velocity": 76}, {"time": 4223, "pitch": 71, "duration": 15, "velocity": 75}, {"time": 4231, "pitch": 62, "duration": 8, "velocity": 58}, {"time": 4238, "pitch": 45, "duration": 35, "velocity": 75}, {"time": 4243, "pitch": 52, "duration": 26, "velocity": 71}, {"time": 4248, "pitch": 55, "duration": 6, "velocity": 76}, {"time": 4252, "pitch": 61, "duration": 8, "velocity": 61}, {"time": 4257, "pitch": 64, "duration": 9, "velocity": 67}, {"time": 4263, "pitch": 67, "duration": 5, "velocity": 57}, {"time": 4304, "pitch": 38, "duration": 76, "velocity": 65}, {"time": 4308, "pitch": 45, "duration": 71, "velocity": 60}, {"time": 4312, "pitch": 52, "duration": 4, "velocity": 70}, {"time": 4316, "pitch": 54, "duration": 2, "velocity": 64}, {"time": 4320, "pitch": 57, "duration": 2, "velocity": 60}, {"time": 4324, "pitch": 62, "duration": 3, "velocity": 66}, {"time": 4328, "pitch": 64, "duration": 3, "velocity": 77}, {"time": 4332, "pitch": 66, "duration": 5, "velocity": 60}, {"time": 4337, "pitch": 69, "duration": 2, "velocity": 66}, {"time": 4342, "pitch": 74, "duration": 2, "velocity": 75}, {"time": 4348, "pitch": 76, "duration": 2, "velocity": 59}, {"time": 4354, "pitch": 78, "duration": 3, "velocity": 53}, {"time": 4364, "pitch": 74, "duration": 14, "velocity": 56}, {"time": 4365, "pitch": 78, "duration": 14, "velocity": 56}, {"time": 4366, "pitch": 81, "duration": 14, "velocity": 44}, {"time": 4368, "pitch": 86, "duration": 12, "velocity": 24}], "annotations": [{"time": 21, "annotation": {"number": 64, "value": 127}, "group": "control_change"}, {"time": 21, "annotation": {"number": 64, "value": 0}, "group": "control_change"}, {"time": 66, "annotation": {"number": 64, "value": 0}, "group": "control_change"}, {"time": 70, "annotation": {"number": 64, "value": 127}, "group": "control_change"}, {"time": 102, "annotation": {"number": 64, "value": 0}, "group": "control_change"}, {"time": 105, "annotation": {"number": 64, "value": 127}, "group": "control_change"}, {"time": 115, "annotation": {"number": 64, "value": 0}, "group": "control_change"}, {"time": 121, "annotation": {"number": 64, "value": 127}, "group": "control_change"}, {"time": 162, "annotation": {"number": 64, "value": 0}, "group": "control_change"}, {"time": 166, "annotation": {"number": 64, "value": 127}, "group": "control_change"}, {"time": 198, "annotation": {"number": 64, "value": 0}, "group": "control_change"}, {"time": 201, "annotation": {"number": 64, "value": 127}, "group": "control_change"}, {"time": 210, "annotation": {"number": 64, "value": 0}, "group": "control_change"}, {"time": 218, "annotation": {"number": 64, "value": 127}, "group": "control_change"}, {"time": 236, "annotation": {"number": 64, "value": 0}, "group": "control_change"}, {"time": 240, "annotation": {"number": 64, "value": 127}, "group": "control_change"}, {"time": 257, "annotation": {"number": 64, "value": 0}, "group": "control_change"}, {"time": 262, "annotation": {"number": 64, "value": 127}, "group": "control_change"}, {"time": 262, "annotation": {"number": 64, "value": 0}, "group": "control_change"}, {"time": 284, "annotation": {"number": 64, "value": 0}, "group": "control_change"}, {"time": 288, "annotation": {"number": 64, "value": 127}, "group": "control_change"}, {"time": 306, "annotation": {"number": 64, "value": 0}, "group": "control_change"}, {"time": 309, "annotation": {"number": 64, "value": 127}, "group": "control_change"}, {"time": 355, "annotation": {"number": 64, "value": 0}, "group": "control_change"}, {"time": 357, "annotation": {"number": 64, "value": 127}, "group": "control_change"}, {"time": 404, "annotation": {"number": 64, "value": 127}, "group": "control_change"}, {"time": 450, "annotation": {"number": 64, "value": 0}, "group": "control_change"}, {"time": 453, "annotation": {"number": 64, "value": 127}, "group": "control_change"}, {"time": 453, "annotation": {"number": 64, "value": 0}, "group": "control_change"}, {"time": 499, "annotation": {"number": 64, "value": 0}, "group": "control_change"}, {"time": 502, "annotation": {"number": 64, "value": 127}, "group": "control_change"}, {"time": 547, "annotation": {"number": 64, "value": 0}, "group": "control_change"}, {"time": 551, "annotation": {"number": 64, "value": 127}, "group": "control_change"}, {"time": 596, "annotation": {"number": 64, "value": 0}, "group": "control_change"}, {"time": 599, "annotation": {"number": 64, "value": 127}, "group": "control_change"}, {"time": 636, "annotation": {"number": 64, "value": 127}, "group": "control_change"}, {"time": 643, "annotation": {"number": 64, "value": 0}, "group": "control_change"}, {"time": 651, "annotation": {"number": 64, "value": 127}, "group": "control_change"}, {"time": 651, "annotation": {"number": 64, "value": 0}, "group": "control_change"}, {"time": 669, "annotation": {"number": 64, "value": 0}, "group": "control_change"}, {"time": 672, "annotation": {"number": 64, "value": 127}, "group": "control_change"}, {"time": 691, "annotation": {"number": 64, "value": 0}, "group": "control_change"}, {"time": 694, "annotation": {"number": 64, "value": 127}, "group": "control_change"}, {"time": 694, "annotation": {"number": 64, "value": 0}, "group": "control_change"}, {"time": 715, "annotation": {"number": 64, "value": 0}, "group": "control_change"}, {"time": 718, "annotation": {"number": 64, "value": 127}, "group": "control_change"}, {"time": 739, "annotation": {"number": 64, "value": 0}, "group": "control_change"}, {"time": 741, "annotation": {"number": 64, "value": 127}, "group": "control_change"}, {"time": 762, "annotation": {"number": 64, "value": 0}, "group": "control_change"}, {"time": 764, "annotation": {"number": 64, "value": 127}, "group": "control_change"}, {"time": 787, "annotation": {"number": 64, "value": 0}, "group": "control_change"}, {"time": 791, "annotation": {"number": 64, "value": 127}, "group": "control_change"}, {"time": 833, "annotation": {"number": 64, "value": 0}, "group": "control_change"}, {"time": 837, "annotation": {"number": 64, "value": 127}, "group": "control_change"}, {"time": 837, "annotation": {"number": 64, "value": 0}, "group": "control_change"}, {"time": 883, "annotation": {"number": 64, "value": 0}, "group": "control_change"}, {"time": 886, "annotation": {"number": 64, "value": 127}, "group": "control_change"}, {"time": 931, "annotation": {"number": 64, "value": 0}, "group": "control_change"}, {"time": 935, "annotation": {"number": 64, "value": 127}, "group": "control_change"}, {"time": 980, "annotation": {"number": 64, "value": 0}, "group": "control_change"}, {"time": 983, "annotation": {"number": 64, "value": 127}, "group": "control_change"}, {"time": 1020, "annotation": {"number": 64, "value": 127}, "group": "control_change"}, {"time": 1027, "annotation": {"number": 64, "value": 0}, "group": "control_change"}, {"time": 1035, "annotation": {"number": 64, "value": 127}, "group": "control_change"}, {"time": 1035, "annotation": {"number": 64, "value": 0}, "group": "control_change"}, {"time": 1053, "annotation": {"number": 64, "value": 0}, "group": "control_change"}, {"time": 1056, "annotation": {"number": 64, "value": 127}, "group": "control_change"}, {"time": 1075, "annotation": {"number": 64, "value": 0}, "group": "control_change"}, {"time": 1078, "annotation": {"number": 64, "value": 127}, "group": "control_change"}, {"time": 1078, "annotation": {"number": 64, "value": 0}, "group": "control_change"}, {"time": 1099, "annotation": {"number": 64, "value": 0}, "group": "control_change"}, {"time": 1102, "annotation": {"number": 64, "value": 127}, "group": "control_change"}, {"time": 1123, "annotation": {"number": 64, "value": 0}, "group": "control_change"}, {"time": 1125, "annotation": {"number": 64, "value": 127}, "group": "control_change"}, {"time": 1149, "annotation": {"number": 64, "value": 0}, "group": "control_change"}, {"time": 1155, "annotation": {"number": 64, "value": 127}, "group": "control_change"}, {"time": 1170, "annotation": {"number": 64, "value": 0}, "group": "control_change"}, {"time": 1173, "annotation": {"number": 64, "value": 127}, "group": "control_change"}, {"time": 1218, "annotation": {"number": 64, "value": 0}, "group": "control_change"}, {"time": 1221, "annotation": {"number": 64, "value": 127}, "group": "control_change"}, {"time": 1265, "annotation": {"number": 64, "value": 0}, "group": "control_change"}, {"time": 1314, "annotation": {"number": 64, "value": 0}, "group": "control_change"}, {"time": 1317, "annotation": {"number": 64, "value": 127}, "group": "control_change"}, {"time": 1361, "annotation": {"number": 64, "value": 0}, "group": "control_change"}, {"time": 1364, "annotation": {"number": 64, "value": 127}, "group": "control_change"}, {"time": 1386, "annotation": {"number": 64, "value": 0}, "group": "control_change"}, {"time": 1393, "annotation": {"number": 64, "value": 127}, "group": "control_change"}, {"time": 1410, "annotation": {"number": 64, "value": 0}, "group": "control_change"}, {"time": 1413, "annotation": {"number": 64, "value": 127}, "group": "control_change"}, {"time": 1434, "annotation": {"number": 64, "value": 0}, "group": "control_change"}, {"time": 1436, "annotation": {"number": 64, "value": 127}, "group": "control_change"}, {"time": 1459, "annotation": {"number": 64, "value": 0}, "group": "control_change"}, {"time": 1462, "annotation": {"number": 64, "value": 127}, "group": "control_change"}, {"time": 1475, "annotation": {"number": 64, "value": 127}, "group": "control_change"}, {"time": 1484, "annotation": {"number": 64, "value": 0}, "group": "control_change"}, {"time": 1486, "annotation": {"number": 64, "value": 0}, "group": "control_change"}, {"time": 1489, "annotation": {"number": 64, "value": 127}, "group": "control_change"}, {"time": 1490, "annotation": {"number": 64, "value": 127}, "group": "control_change"}, {"time": 1501, "annotation": {"number": 64, "value": 0}, "group": "control_change"}, {"time": 1508, "annotation": {"number": 64, "value": 0}, "group": "control_change"}, {"time": 1514, "annotation": {"number": 64, "value": 127}, "group": "control_change"}, {"time": 1531, "annotation": {"number": 64, "value": 0}, "group": "control_change"}, {"time": 1532, "annotation": {"number": 64, "value": 127}, "group": "control_change"}, {"time": 1532, "annotation": {"number": 64, "value": 0}, "group": "control_change"}, {"time": 1533, "annotation": {"number": 64, "value": 127}, "group": "control_change"}, {"time": 1557, "annotation": {"number": 64, "value": 0}, "group": "control_change"}, {"time": 1561, "annotation": {"number": 64, "value": 127}, "group": "control_change"}, {"time": 1578, "annotation": {"number": 64, "value": 0}, "group": "control_change"}, {"time": 1581, "annotation": {"number": 64, "value": 127}, "group": "control_change"}, {"time": 1603, "annotation": {"number": 64, "value": 0}, "group": "control_change"}, {"time": 1606, "annotation": {"number": 64, "value": 127}, "group": "control_change"}, {"time": 1640, "annotation": {"number": 64, "value": 127}, "group": "control_change"}, {"time": 1649, "annotation": {"number": 64, "value": 0}, "group": "control_change"}, {"time": 1651, "annotation": {"number": 64, "value": 0}, "group": "control_change"}, {"time": 1698, "annotation": {"number": 64, "value": 0}, "group": "control_change"}, {"time": 1701, "annotation": {"number": 64, "value": 127}, "group": "control_change"}, {"time": 1745, "annotation": {"number": 64, "value": 0}, "group": "control_change"}, {"time": 1748, "annotation": {"number": 64, "value": 127}, "group": "control_change"}, {"time": 1770, "annotation": {"number": 64, "value": 0}, "group": "control_change"}, {"time": 1777, "annotation": {"number": 64, "value": 127}, "group": "control_change"}, {"time": 1794, "annotation": {"number": 64, "value": 0}, "group": "control_change"}, {"time": 1797, "annotation": {"number": 64, "value": 127}, "group": "control_change"}, {"time": 1818, "annotation": {"number": 64, "value": 0}, "group": "control_change"}, {"time": 1820, "annotation": {"number": 64, "value": 127}, "group": "control_change"}, {"time": 1843, "annotation": {"number": 64, "value": 0}, "group": "control_change"}, {"time": 1846, "annotation": {"number": 64, "value": 127}, "group": "control_change"}, {"time": 1859, "annotation": {"number": 64, "value": 127}, "group": "control_change"}, {"time": 1868, "annotation": {"number": 64, "value": 0}, "group": "control_change"}, {"time": 1870, "annotation": {"number": 64, "value": 0}, "group": "control_change"}, {"time": 1873, "annotation": {"number": 64, "value": 127}, "group": "control_change"}, {"time": 1874, "annotation": {"number": 64, "value": 127}, "group": "control_change"}, {"time": 1885, "annotation": {"number": 64, "value": 0}, "group": "control_change"}, {"time": 1892, "annotation": {"number": 64, "value": 0}, "group": "control_change"}, {"time": 1898, "annotation": {"number": 64, "value": 127}, "group": "control_change"}, {"time": 1915, "annotation": {"number": 64, "value": 0}, "group": "control_change"}, {"time": 1916, "annotation": {"number": 64, "value": 127}, "group": "control_change"}, {"time": 1916, "annotation": {"number": 64, "value": 0}, "group": "control_change"}, {"time": 1917, "annotation": {"number": 64, "value": 127}, "group": "control_change"}, {"time": 1941, "annotation": {"number": 64, "value": 0}, "group": "control_change"}, {"time": 1945, "annotation": {"number": 64, "value": 127}, "group": "control_change"}, {"time": 1962, "annotation": {"number": 64, "value": 0}, "group": "control_change"}, {"time": 1965, "annotation": {"number": 64, "value": 127}, "group": "control_change"}, {"time": 1990, "annotation": {"number": 64, "value": 0}, "group": "control_change"}, {"time": 1994, "annotation": {"number": 64, "value": 127}, "group": "control_change"}, {"time": 2033, "annotation": {"number": 64, "value": 0}, "group": "control_change"}, {"time": 2036, "annotation": {"number": 64, "value": 127}, "group": "control_change"}, {"time": 2084, "annotation": {"number": 64, "value": 0}, "group": "control_change"}, {"time": 2086, "annotation": {"number": 64, "value": 127}, "group": "control_change"}, {"time": 2131, "annotation": {"number": 64, "value": 0}, "group": "control_change"}, {"time": 2136, "annotation": {"number": 64, "value": 127}, "group": "control_change"}, {"time": 2176, "annotation": {"number": 64, "value": 0}, "group": "control_change"}, {"time": 2181, "annotation": {"number": 64, "value": 127}, "group": "control_change"}, {"time": 2181, "annotation": {"number": 64, "value": 0}, "group": "control_change"}, {"time": 2227, "annotation": {"number": 64, "value": 0}, "group": "control_change"}, {"time": 2230, "annotation": {"number": 64, "value": 127}, "group": "control_change"}, {"time": 2275, "annotation": {"number": 64, "value": 0}, "group": "control_change"}, {"time": 2279, "annotation": {"number": 64, "value": 127}, "group": "control_change"}, {"time": 2324, "annotation": {"number": 64, "value": 0}, "group": "control_change"}, {"time": 2327, "annotation": {"number": 64, "value": 127}, "group": "control_change"}, {"time": 2364, "annotation": {"number": 64, "value": 127}, "group": "control_change"}, {"time": 2371, "annotation": {"number": 64, "value": 0}, "group": "control_change"}, {"time": 2379, "annotation": {"number": 64, "value": 127}, "group": "control_change"}, {"time": 2379, "annotation": {"number": 64, "value": 0}, "group": "control_change"}, {"time": 2397, "annotation": {"number": 64, "value": 0}, "group": "control_change"}, {"time": 2400, "annotation": {"number": 64, "value": 127}, "group": "control_change"}, {"time": 2419, "annotation": {"number": 64, "value": 0}, "group": "control_change"}, {"time": 2422, "annotation": {"number": 64, "value": 127}, "group": "control_change"}, {"time": 2422, "annotation": {"number": 64, "value": 0}, "group": "control_change"}, {"time": 2443, "annotation": {"number": 64, "value": 0}, "group": "control_change"}, {"time": 2446, "annotation": {"number": 64, "value": 127}, "group": "control_change"}, {"time": 2467, "annotation": {"number": 64, "value": 0}, "group": "control_change"}, {"time": 2469, "annotation": {"number": 64, "value": 127}, "group": "control_change"}, {"time": 2493, "annotation": {"number": 64, "value": 0}, "group": "control_change"}, {"time": 2499, "annotation": {"number": 64, "value": 127}, "group": "control_change"}, {"time": 2514, "annotation": {"number": 64, "value": 0}, "group": "control_change"}, {"time": 2517, "annotation": {"number": 64, "value": 127}, "group": "control_change"}, {"time": 2562, "annotation": {"number": 64, "value": 0}, "group": "control_change"}, {"time": 2565, "annotation": {"number": 64, "value": 127}, "group": "control_change"}, {"time": 2609, "annotation": {"number": 64, "value": 0}, "group": "control_change"}, {"time": 2658, "annotation": {"number": 64, "value": 0}, "group": "control_change"}, {"time": 2661, "annotation": {"number": 64, "value": 127}, "group": "control_change"}, {"time": 2705, "annotation": {"number": 64, "value": 0}, "group": "control_change"}, {"time": 2708, "annotation": {"number": 64, "value": 127}, "group": "control_change"}, {"time": 2730, "annotation": {"number": 64, "value": 0}, "group": "control_change"}, {"time": 2737, "annotation": {"number": 64, "value": 127}, "group": "control_change"}, {"time": 2754, "annotation": {"number": 64, "value": 0}, "group": "control_change"}, {"time": 2757, "annotation": {"number": 64, "value": 127}, "group": "control_change"}, {"time": 2778, "annotation": {"number": 64, "value": 0}, "group": "control_change"}, {"time": 2780, "annotation": {"number": 64, "value": 127}, "group": "control_change"}, {"time": 2803, "annotation": {"number": 64, "value": 0}, "group": "control_change"}, {"time": 2806, "annotation": {"number": 64, "value": 127}, "group": "control_change"}, {"time": 2819, "annotation": {"number": 64, "value": 127}, "group": "control_change"}, {"time": 2828, "annotation": {"number": 64, "value": 0}, "group": "control_change"}, {"time": 2830, "annotation": {"number": 64, "value": 0}, "group": "control_change"}, {"time": 2833, "annotation": {"number": 64, "value": 127}, "group": "control_change"}, {"time": 2834, "annotation": {"number": 64, "value": 127}, "group": "control_change"}, {"time": 2845, "annotation": {"number": 64, "value": 0}, "group": "control_change"}, {"time": 2852, "annotation": {"number": 64, "value": 0}, "group": "control_change"}, {"time": 2858, "annotation": {"number": 64, "value": 127}, "group": "control_change"}, {"time": 2875, "annotation": {"number": 64, "value": 0}, "group": "control_change"}, {"time": 2876, "annotation": {"number": 64, "value": 127}, "group": "control_change"}, {"time": 2876, "annotation": {"number": 64, "value": 0}, "group": "control_change"}, {"time": 2877, "annotation": {"number": 64, "value": 127}, "group": "control_change"}, {"time": 2901, "annotation": {"number": 64, "value": 0}, "group": "control_change"}, {"time": 2905, "annotation": {"number": 64, "value": 127}, "group": "control_change"}, {"time": 2922, "annotation": {"number": 64, "value": 0}, "group": "control_change"}, {"time": 2925, "annotation": {"number": 64, "value": 127}, "group": "control_change"}, {"time": 2947, "annotation": {"number": 64, "value": 0}, "group": "control_change"}, {"time": 2950, "annotation": {"number": 64, "value": 127}, "group": "control_change"}, {"time": 2984, "annotation": {"number": 64, "value": 127}, "group": "control_change"}, {"time": 2993, "annotation": {"number": 64, "value": 0}, "group": "control_change"}, {"time": 2995, "annotation": {"number": 64, "value": 0}, "group": "control_change"}, {"time": 3042, "annotation": {"number": 64, "value": 0}, "group": "control_change"}, {"time": 3045, "annotation": {"number": 64, "value": 127}, "group": "control_change"}, {"time": 3089, "annotation": {"number": 64, "value": 0}, "group": "control_change"}, {"time": 3092, "annotation": {"number": 64, "value": 127}, "group": "control_change"}, {"time": 3114, "annotation": {"number": 64, "value": 0}, "group": "control_change"}, {"time": 3121, "annotation": {"number": 64, "value": 127}, "group": "control_change"}, {"time": 3138, "annotation": {"number": 64, "value": 0}, "group": "control_change"}, {"time": 3141, "annotation": {"number": 64, "value": 127}, "group": "control_change"}, {"time": 3162, "annotation": {"number": 64, "value": 0}, "group": "control_change"}, {"time": 3164, "annotation": {"number": 64, "value": 127}, "group": "control_change"}, {"time": 3187, "annotation": {"number": 64, "value": 0}, "group": "control_change"}, {"time": 3190, "annotation": {"number": 64, "value": 127}, "group": "control_change"}, {"time": 3203, "annotation": {"number": 64, "value": 127}, "group": "control_change"}, {"time": 3212, "annotation": {"number": 64, "value": 0}, "group": "control_change"}, {"time": 3214, "annotation": {"number": 64, "value": 0}, "group": "control_change"}, {"time": 3217, "annotation": {"number": 64, "value": 127}, "group": "control_change"}, {"time": 3218, "annotation": {"number": 64, "value": 127}, "group": "control_change"}, {"time": 3229, "annotation": {"number": 64, "value": 0}, "group": "control_change"}, {"time": 3236, "annotation": {"number": 64, "value": 0}, "group": "control_change"}, {"time": 3242, "annotation": {"number": 64, "value": 127}, "group": "control_change"}, {"time": 3259, "annotation": {"number": 64, "value": 0}, "group": "control_change"}, {"time": 3260, "annotation": {"number": 64, "value": 127}, "group": "control_change"}, {"time": 3260, "annotation": {"number": 64, "value": 0}, "group": "control_change"}, {"time": 3261, "annotation": {"number": 64, "value": 127}, "group": "control_change"}, {"time": 3285, "annotation": {"number": 64, "value": 0}, "group": "control_change"}, {"time": 3289, "annotation": {"number": 64, "value": 127}, "group": "control_change"}, {"time": 3306, "annotation": {"number": 64, "value": 0}, "group": "control_change"}, {"time": 3309, "annotation": {"number": 64, "value": 127}, "group": "control_change"}, {"time": 3331, "annotation": {"number": 64, "value": 127}, "group": "control_change"}, {"time": 3331, "annotation": {"number": 64, "value": 0}, "group": "control_change"}, {"time": 3332, "annotation": {"number": 64, "value": 127}, "group": "control_change"}, {"time": 3375, "annotation": {"number": 64, "value": 0}, "group": "control_change"}, {"time": 3381, "annotation": {"number": 64, "value": 127}, "group": "control_change"}, {"time": 3401, "annotation": {"number": 64, "value": 0}, "group": "control_change"}, {"time": 3404, "annotation": {"number": 64, "value": 127}, "group": "control_change"}, {"time": 3425, "annotation": {"number": 64, "value": 0}, "group": "control_change"}, {"time": 3426, "annotation": {"number": 64, "value": 0}, "group": "control_change"}, {"time": 3428, "annotation": {"number": 64, "value": 127}, "group": "control_change"}, {"time": 3429, "annotation": {"number": 64, "value": 127}, "group": "control_change"}, {"time": 3473, "annotation": {"number": 64, "value": 0}, "group": "control_change"}, {"time": 3476, "annotation": {"number": 64, "value": 127}, "group": "control_change"}, {"time": 3498, "annotation": {"number": 64, "value": 0}, "group": "control_change"}, {"time": 3505, "annotation": {"number": 64, "value": 127}, "group": "control_change"}, {"time": 3522, "annotation": {"number": 64, "value": 0}, "group": "control_change"}, {"time": 3525, "annotation": {"number": 64, "value": 127}, "group": "control_change"}, {"time": 3546, "annotation": {"number": 64, "value": 0}, "group": "control_change"}, {"time": 3548, "annotation": {"number": 64, "value": 127}, "group": "control_change"}, {"time": 3571, "annotation": {"number": 64, "value": 0}, "group": "control_change"}, {"time": 3574, "annotation": {"number": 64, "value": 127}, "group": "control_change"}, {"time": 3587, "annotation": {"number": 64, "value": 127}, "group": "control_change"}, {"time": 3596, "annotation": {"number": 64, "value": 0}, "group": "control_change"}, {"time": 3598, "annotation": {"number": 64, "value": 0}, "group": "control_change"}, {"time": 3601, "annotation": {"number": 64, "value": 127}, "group": "control_change"}, {"time": 3602, "annotation": {"number": 64, "value": 127}, "group": "control_change"}, {"time": 3613, "annotation": {"number": 64, "value": 0}, "group": "control_change"}, {"time": 3620, "annotation": {"number": 64, "value": 0}, "group": "control_change"}, {"time": 3626, "annotation": {"number": 64, "value": 127}, "group": "control_change"}, {"time": 3643, "annotation": {"number": 64, "value": 0}, "group": "control_change"}, {"time": 3644, "annotation": {"number": 64, "value": 127}, "group": "control_change"}, {"time": 3644, "annotation": {"number": 64, "value": 0}, "group": "control_change"}, {"time": 3645, "annotation": {"number": 64, "value": 127}, "group": "control_change"}, {"time": 3669, "annotation": {"number": 64, "value": 0}, "group": "control_change"}, {"time": 3673, "annotation": {"number": 64, "value": 127}, "group": "control_change"}, {"time": 3690, "annotation": {"number": 64, "value": 0}, "group": "control_change"}, {"time": 3693, "annotation": {"number": 64, "value": 127}, "group": "control_change"}, {"time": 3715, "annotation": {"number": 64, "value": 0}, "group": "control_change"}, {"time": 3718, "annotation": {"number": 64, "value": 127}, "group": "control_change"}, {"time": 3752, "annotation": {"number": 64, "value": 127}, "group": "control_change"}, {"time": 3761, "annotation": {"number": 64, "value": 0}, "group": "control_change"}, {"time": 3763, "annotation": {"number": 64, "value": 0}, "group": "control_change"}, {"time": 3810, "annotation": {"number": 64, "value": 0}, "group": "control_change"}, {"time": 3813, "annotation": {"number": 64, "value": 127}, "group": "control_change"}, {"time": 3857, "annotation": {"number": 64, "value": 0}, "group": "control_change"}, {"time": 3860, "annotation": {"number": 64, "value": 127}, "group": "control_change"}, {"time": 3882, "annotation": {"number": 64, "value": 0}, "group": "control_change"}, {"time": 3889, "annotation": {"number": 64, "value": 127}, "group": "control_change"}, {"time": 3906, "annotation": {"number": 64, "value": 0}, "group": "control_change"}, {"time": 3909, "annotation": {"number": 64, "value": 127}, "group": "control_change"}, {"time": 3930, "annotation": {"number": 64, "value": 0}, "group": "control_change"}, {"time": 3932, "annotation": {"number": 64, "value": 127}, "group": "control_change"}, {"time": 3955, "annotation": {"number": 64, "value": 0}, "group": "control_change"}, {"time": 3958, "annotation": {"number": 64, "value": 127}, "group": "control_change"}, {"time": 3971, "annotation": {"number": 64, "value": 127}, "group": "control_change"}, {"time": 3980, "annotation": {"number": 64, "value": 0}, "group": "control_change"}, {"time": 3982, "annotation": {"number": 64, "value": 0}, "group": "control_change"}, {"time": 3985, "annotation": {"number": 64, "value": 127}, "group": "control_change"}, {"time": 3986, "annotation": {"number": 64, "value": 127}, "group": "control_change"}, {"time": 3997, "annotation": {"number": 64, "value": 0}, "group": "control_change"}, {"time": 4004, "annotation": {"number": 64, "value": 0}, "group": "control_change"}, {"time": 4010, "annotation": {"number": 64, "value": 127}, "group": "control_change"}, {"time": 4027, "annotation": {"number": 64, "value": 0}, "group": "control_change"}, {"time": 4028, "annotation": {"number": 64, "value": 127}, "group": "control_change"}, {"time": 4028, "annotation": {"number": 64, "value": 0}, "group": "control_change"}, {"time": 4029, "annotation": {"number": 64, "value": 127}, "group": "control_change"}, {"time": 4053, "annotation": {"number": 64, "value": 0}, "group": "control_change"}, {"time": 4057, "annotation": {"number": 64, "value": 127}, "group": "control_change"}, {"time": 4074, "annotation": {"number": 64, "value": 0}, "group": "control_change"}, {"time": 4077, "annotation": {"number": 64, "value": 127}, "group": "control_change"}, {"time": 4099, "annotation": {"number": 64, "value": 127}, "group": "control_change"}, {"time": 4099, "annotation": {"number": 64, "value": 0}, "group": "control_change"}, {"time": 4100, "annotation": {"number": 64, "value": 127}, "group": "control_change"}, {"time": 4103, "annotation": {"number": 64, "value": 127}, "group": "control_change"}, {"time": 4146, "annotation": {"number": 64, "value": 0}, "group": "control_change"}, {"time": 4150, "annotation": {"number": 64, "value": 127}, "group": "control_change"}, {"time": 4195, "annotation": {"number": 64, "value": 0}, "group": "control_change"}, {"time": 4198, "annotation": {"number": 64, "value": 127}, "group": "control_change"}, {"time": 4248, "annotation": {"number": 64, "value": 0}, "group": "control_change"}, {"time": 4250, "annotation": {"number": 64, "value": 127}, "group": "control_change"}, {"time": 4306, "annotation": {"number": 64, "value": 0}, "group": "control_change"}, {"time": 4308, "annotation": {"number": 64, "value": 127}, "group": "control_change"}, {"time": 4409, "annotation": {"number": 64, "value": 0}, "group": "control_change"}]}]}