{"metadata": {"schema_version": "0.2", "title": "None", "source_filename": "818.mid", "source_format": "midi"}, "resolution": 12, "tempos": [{"time": 0, "qpm": 66.000066000066}], "time_signatures": [{"time": 0, "numerator": 1, "denominator": 4}], "tracks": [{"program": 0, "is_drum": false, "name": "MELODY", "notes": [{"time": 226, "pitch": 73, "duration": 2, "velocity": 52}, {"time": 229, "pitch": 73, "duration": 2, "velocity": 56}, {"time": 232, "pitch": 73, "duration": 2, "velocity": 57}, {"time": 235, "pitch": 73, "duration": 2, "velocity": 58}, {"time": 238, "pitch": 70, "duration": 2, "velocity": 57}, {"time": 241, "pitch": 73, "duration": 2, "velocity": 52}, {"time": 244, "pitch": 70, "duration": 2, "velocity": 54}, {"time": 247, "pitch": 73, "duration": 2, "velocity": 59}, {"time": 250, "pitch": 77, "duration": 2, "velocity": 59}, {"time": 253, "pitch": 77, "duration": 4, "velocity": 60}, {"time": 262, "pitch": 75, "duration": 5, "velocity": 64}, {"time": 268, "pitch": 73, "duration": 2, "velocity": 57}, {"time": 271, "pitch": 75, "duration": 1, "velocity": 60}, {"time": 274, "pitch": 75, "duration": 1, "velocity": 59}, {"time": 277, "pitch": 75, "duration": 1, "velocity": 59}, {"time": 280, "pitch": 75, "duration": 1, "velocity": 59}, {"time": 283, "pitch": 75, "duration": 1, "velocity": 58}, {"time": 286, "pitch": 77, "duration": 2, "velocity": 59}, {"time": 289, "pitch": 75, "duration": 1, "velocity": 63}, {"time": 292, "pitch": 68, "duration": 8, "velocity": 54}, {"time": 322, "pitch": 73, "duration": 2, "velocity": 54}, {"time": 325, "pitch": 73, "duration": 2, "velocity": 56}, {"time": 328, "pitch": 73, "duration": 1, "velocity": 56}, {"time": 331, "pitch": 73, "duration": 2, "velocity": 55}, {"time": 334, "pitch": 70, "duration": 2, "velocity": 58}, {"time": 337, "pitch": 73, "duration": 2, "velocity": 58}, {"time": 340, "pitch": 70, "duration": 2, "velocity": 54}, {"time": 343, "pitch": 73, "duration": 2, "velocity": 58}, {"time": 346, "pitch": 80, "duration": 4, "velocity": 45}, {"time": 352, "pitch": 80, "duration": 4, "velocity": 58}, {"time": 358, "pitch": 77, "duration": 2, "velocity": 58}, {"time": 361, "pitch": 75, "duration": 2, "velocity": 58}, {"time": 364, "pitch": 73, "duration": 2, "velocity": 52}, {"time": 367, "pitch": 75, "duration": 1, "velocity": 58}, {"time": 370, "pitch": 75, "duration": 1, "velocity": 58}, {"time": 373, "pitch": 75, "duration": 2, "velocity": 58}, {"time": 376, "pitch": 73, "duration": 2, "velocity": 47}, {"time": 379, "pitch": 75, "duration": 2, "velocity": 59}, {"time": 382, "pitch": 80, "duration": 4, "velocity": 55}, {"time": 388, "pitch": 77, "duration": 16, "velocity": 55}, {"time": 418, "pitch": 75, "duration": 2, "velocity": 57}, {"time": 421, "pitch": 75, "duration": 1, "velocity": 59}, {"time": 424, "pitch": 75, "duration": 1, "velocity": 59}, {"time": 427, "pitch": 75, "duration": 4, "velocity": 62}, {"time": 433, "pitch": 75, "duration": 1, "velocity": 60}, {"time": 436, "pitch": 75, "duration": 1, "velocity": 60}, {"time": 439, "pitch": 75, "duration": 1, "velocity": 60}, {"time": 442, "pitch": 75, "duration": 2, "velocity": 60}, {"time": 445, "pitch": 73, "duration": 2, "velocity": 59}, {"time": 448, "pitch": 77, "duration": 4, "velocity": 61}, {"time": 454, "pitch": 75, "duration": 3, "velocity": 62}, {"time": 457, "pitch": 77, "duration": 2, "velocity": 53}, {"time": 460, "pitch": 75, "duration": 3, "velocity": 59}, {"time": 466, "pitch": 70, "duration": 2, "velocity": 49}, {"time": 469, "pitch": 73, "duration": 2, "velocity": 58}, {"time": 472, "pitch": 70, "duration": 2, "velocity": 54}, {"time": 475, "pitch": 73, "duration": 3, "velocity": 58}, {"time": 478, "pitch": 70, "duration": 2, "velocity": 52}, {"time": 481, "pitch": 73, "duration": 2, "velocity": 52}, {"time": 484, "pitch": 77, "duration": 6, "velocity": 56}, {"time": 490, "pitch": 73, "duration": 9, "velocity": 54}, {"time": 514, "pitch": 75, "duration": 2, "velocity": 59}, {"time": 517, "pitch": 75, "duration": 1, "velocity": 59}, {"time": 520, "pitch": 75, "duration": 1, "velocity": 61}, {"time": 523, "pitch": 75, "duration": 1, "velocity": 59}, {"time": 526, "pitch": 75, "duration": 4, "velocity": 59}, {"time": 532, "pitch": 75, "duration": 1, "velocity": 60}, {"time": 535, "pitch": 75, "duration": 1, "velocity": 59}, {"time": 538, "pitch": 77, "duration": 4, "velocity": 60}, {"time": 544, "pitch": 75, "duration": 4, "velocity": 59}, {"time": 550, "pitch": 77, "duration": 2, "velocity": 62}, {"time": 553, "pitch": 75, "duration": 2, "velocity": 58}, {"time": 556, "pitch": 73, "duration": 2, "velocity": 55}, {"time": 559, "pitch": 75, "duration": 1, "velocity": 53}, {"time": 562, "pitch": 75, "duration": 1, "velocity": 60}, {"time": 565, "pitch": 75, "duration": 1, "velocity": 59}, {"time": 568, "pitch": 75, "duration": 1, "velocity": 57}, {"time": 571, "pitch": 75, "duration": 2, "velocity": 60}, {"time": 574, "pitch": 73, "duration": 2, "velocity": 56}, {"time": 577, "pitch": 75, "duration": 2, "velocity": 59}, {"time": 580, "pitch": 80, "duration": 4, "velocity": 59}, {"time": 586, "pitch": 75, "duration": 21, "velocity": 60}, {"time": 610, "pitch": 73, "duration": 1, "velocity": 55}, {"time": 613, "pitch": 73, "duration": 2, "velocity": 54}, {"time": 616, "pitch": 73, "duration": 2, "velocity": 55}, {"time": 619, "pitch": 73, "duration": 2, "velocity": 58}, {"time": 622, "pitch": 80, "duration": 1, "velocity": 54}, {"time": 625, "pitch": 80, "duration": 1, "velocity": 58}, {"time": 628, "pitch": 80, "duration": 1, "velocity": 57}, {"time": 631, "pitch": 80, "duration": 2, "velocity": 59}, {"time": 634, "pitch": 75, "duration": 1, "velocity": 54}, {"time": 637, "pitch": 75, "duration": 2, "velocity": 59}, {"time": 640, "pitch": 73, "duration": 2, "velocity": 58}, {"time": 646, "pitch": 77, "duration": 2, "velocity": 59}, {"time": 649, "pitch": 75, "duration": 2, "velocity": 53}, {"time": 652, "pitch": 73, "duration": 2, "velocity": 58}, {"time": 655, "pitch": 75, "duration": 2, "velocity": 60}, {"time": 658, "pitch": 75, "duration": 1, "velocity": 60}, {"time": 661, "pitch": 75, "duration": 1, "velocity": 59}, {"time": 664, "pitch": 75, "duration": 1, "velocity": 60}, {"time": 667, "pitch": 75, "duration": 2, "velocity": 62}, {"time": 670, "pitch": 77, "duration": 1, "velocity": 57}, {"time": 673, "pitch": 78, "duration": 2, "velocity": 53}, {"time": 676, "pitch": 78, "duration": 6, "velocity": 57}, {"time": 682, "pitch": 77, "duration": 19, "velocity": 51}, {"time": 706, "pitch": 73, "duration": 1, "velocity": 58}, {"time": 709, "pitch": 73, "duration": 1, "velocity": 53}, {"time": 712, "pitch": 73, "duration": 1, "velocity": 56}, {"time": 715, "pitch": 73, "duration": 1, "velocity": 53}, {"time": 718, "pitch": 73, "duration": 1, "velocity": 52}, {"time": 721, "pitch": 73, "duration": 2, "velocity": 52}, {"time": 724, "pitch": 77, "duration": 6, "velocity": 53}, {"time": 730, "pitch": 73, "duration": 6, "velocity": 59}, {"time": 736, "pitch": 70, "duration": 4, "velocity": 58}, {"time": 742, "pitch": 77, "duration": 2, "velocity": 60}, {"time": 745, "pitch": 73, "duration": 2, "velocity": 53}, {"time": 748, "pitch": 70, "duration": 2, "velocity": 51}, {"time": 751, "pitch": 73, "duration": 1, "velocity": 50}, {"time": 754, "pitch": 73, "duration": 1, "velocity": 54}, {"time": 757, "pitch": 73, "duration": 1, "velocity": 54}, {"time": 760, "pitch": 73, "duration": 1, "velocity": 54}, {"time": 763, "pitch": 73, "duration": 2, "velocity": 58}, {"time": 766, "pitch": 73, "duration": 1, "velocity": 54}, {"time": 769, "pitch": 73, "duration": 2, "velocity": 58}, {"time": 772, "pitch": 80, "duration": 6, "velocity": 60}, {"time": 778, "pitch": 77, "duration": 5, "velocity": 60}, {"time": 784, "pitch": 75, "duration": 10, "velocity": 60}, {"time": 802, "pitch": 73, "duration": 1, "velocity": 55}, {"time": 805, "pitch": 73, "duration": 2, "velocity": 54}, {"time": 808, "pitch": 73, "duration": 2, "velocity": 55}, {"time": 811, "pitch": 73, "duration": 2, "velocity": 58}, {"time": 814, "pitch": 80, "duration": 1, "velocity": 54}, {"time": 817, "pitch": 80, "duration": 1, "velocity": 58}, {"time": 820, "pitch": 80, "duration": 1, "velocity": 57}, {"time": 823, "pitch": 80, "duration": 2, "velocity": 59}, {"time": 826, "pitch": 75, "duration": 1, "velocity": 54}, {"time": 829, "pitch": 75, "duration": 2, "velocity": 59}, {"time": 832, "pitch": 73, "duration": 2, "velocity": 58}, {"time": 838, "pitch": 77, "duration": 2, "velocity": 59}, {"time": 841, "pitch": 75, "duration": 2, "velocity": 53}, {"time": 844, "pitch": 73, "duration": 2, "velocity": 58}, {"time": 847, "pitch": 75, "duration": 2, "velocity": 60}, {"time": 850, "pitch": 75, "duration": 1, "velocity": 60}, {"time": 853, "pitch": 75, "duration": 1, "velocity": 59}, {"time": 856, "pitch": 75, "duration": 1, "velocity": 60}, {"time": 859, "pitch": 75, "duration": 2, "velocity": 62}, {"time": 862, "pitch": 77, "duration": 1, "velocity": 57}, {"time": 865, "pitch": 78, "duration": 2, "velocity": 53}, {"time": 868, "pitch": 78, "duration": 6, "velocity": 57}, {"time": 874, "pitch": 77, "duration": 19, "velocity": 51}, {"time": 898, "pitch": 73, "duration": 1, "velocity": 58}, {"time": 901, "pitch": 73, "duration": 1, "velocity": 53}, {"time": 904, "pitch": 73, "duration": 1, "velocity": 56}, {"time": 907, "pitch": 73, "duration": 1, "velocity": 53}, {"time": 910, "pitch": 82, "duration": 1, "velocity": 52}, {"time": 913, "pitch": 82, "duration": 2, "velocity": 52}, {"time": 916, "pitch": 84, "duration": 6, "velocity": 53}, {"time": 922, "pitch": 82, "duration": 3, "velocity": 59}, {"time": 925, "pitch": 77, "duration": 3, "velocity": 59}, {"time": 928, "pitch": 73, "duration": 4, "velocity": 58}, {"time": 934, "pitch": 70, "duration": 2, "velocity": 60}, {"time": 937, "pitch": 73, "duration": 2, "velocity": 53}, {"time": 940, "pitch": 75, "duration": 2, "velocity": 51}, {"time": 943, "pitch": 77, "duration": 1, "velocity": 44}, {"time": 946, "pitch": 73, "duration": 1, "velocity": 59}, {"time": 949, "pitch": 73, "duration": 12, "velocity": 58}, {"time": 964, "pitch": 80, "duration": 2, "velocity": 51}, {"time": 967, "pitch": 80, "duration": 4, "velocity": 59}, {"time": 973, "pitch": 77, "duration": 5, "velocity": 58}, {"time": 979, "pitch": 75, "duration": 6, "velocity": 60}, {"time": 985, "pitch": 75, "duration": 6, "velocity": 58}, {"time": 991, "pitch": 73, "duration": 24, "velocity": 51}, {"time": 1018, "pitch": 73, "duration": 2, "velocity": 52}, {"time": 1021, "pitch": 73, "duration": 2, "velocity": 56}, {"time": 1024, "pitch": 73, "duration": 2, "velocity": 57}, {"time": 1027, "pitch": 73, "duration": 2, "velocity": 58}, {"time": 1030, "pitch": 70, "duration": 2, "velocity": 57}, {"time": 1033, "pitch": 73, "duration": 2, "velocity": 52}, {"time": 1036, "pitch": 70, "duration": 2, "velocity": 54}, {"time": 1039, "pitch": 73, "duration": 2, "velocity": 59}, {"time": 1042, "pitch": 77, "duration": 2, "velocity": 59}, {"time": 1045, "pitch": 77, "duration": 4, "velocity": 60}, {"time": 1054, "pitch": 75, "duration": 5, "velocity": 64}, {"time": 1060, "pitch": 73, "duration": 2, "velocity": 57}, {"time": 1063, "pitch": 75, "duration": 1, "velocity": 60}, {"time": 1066, "pitch": 75, "duration": 1, "velocity": 59}, {"time": 1069, "pitch": 75, "duration": 1, "velocity": 59}, {"time": 1072, "pitch": 75, "duration": 1, "velocity": 59}, {"time": 1075, "pitch": 75, "duration": 1, "velocity": 58}, {"time": 1078, "pitch": 77, "duration": 2, "velocity": 59}, {"time": 1081, "pitch": 75, "duration": 1, "velocity": 63}, {"time": 1084, "pitch": 68, "duration": 8, "velocity": 54}, {"time": 1114, "pitch": 73, "duration": 2, "velocity": 54}, {"time": 1117, "pitch": 73, "duration": 2, "velocity": 56}, {"time": 1120, "pitch": 73, "duration": 1, "velocity": 56}, {"time": 1123, "pitch": 73, "duration": 2, "velocity": 55}, {"time": 1126, "pitch": 70, "duration": 2, "velocity": 58}, {"time": 1129, "pitch": 73, "duration": 2, "velocity": 58}, {"time": 1132, "pitch": 70, "duration": 2, "velocity": 54}, {"time": 1135, "pitch": 73, "duration": 2, "velocity": 58}, {"time": 1138, "pitch": 80, "duration": 4, "velocity": 45}, {"time": 1144, "pitch": 80, "duration": 4, "velocity": 58}, {"time": 1150, "pitch": 77, "duration": 2, "velocity": 58}, {"time": 1153, "pitch": 75, "duration": 2, "velocity": 58}, {"time": 1156, "pitch": 73, "duration": 2, "velocity": 52}, {"time": 1159, "pitch": 75, "duration": 1, "velocity": 58}, {"time": 1162, "pitch": 75, "duration": 1, "velocity": 58}, {"time": 1165, "pitch": 75, "duration": 2, "velocity": 58}, {"time": 1168, "pitch": 73, "duration": 2, "velocity": 47}, {"time": 1171, "pitch": 75, "duration": 2, "velocity": 59}, {"time": 1174, "pitch": 80, "duration": 4, "velocity": 55}, {"time": 1180, "pitch": 77, "duration": 16, "velocity": 55}, {"time": 1210, "pitch": 75, "duration": 2, "velocity": 57}, {"time": 1213, "pitch": 75, "duration": 1, "velocity": 59}, {"time": 1216, "pitch": 75, "duration": 1, "velocity": 59}, {"time": 1219, "pitch": 75, "duration": 4, "velocity": 62}, {"time": 1225, "pitch": 75, "duration": 1, "velocity": 60}, {"time": 1228, "pitch": 75, "duration": 1, "velocity": 60}, {"time": 1231, "pitch": 75, "duration": 1, "velocity": 60}, {"time": 1234, "pitch": 75, "duration": 2, "velocity": 60}, {"time": 1237, "pitch": 73, "duration": 2, "velocity": 59}, {"time": 1240, "pitch": 77, "duration": 4, "velocity": 61}, {"time": 1246, "pitch": 75, "duration": 3, "velocity": 62}, {"time": 1249, "pitch": 77, "duration": 2, "velocity": 53}, {"time": 1252, "pitch": 75, "duration": 3, "velocity": 59}, {"time": 1258, "pitch": 70, "duration": 2, "velocity": 49}, {"time": 1261, "pitch": 73, "duration": 2, "velocity": 58}, {"time": 1264, "pitch": 70, "duration": 2, "velocity": 54}, {"time": 1267, "pitch": 73, "duration": 3, "velocity": 58}, {"time": 1270, "pitch": 70, "duration": 2, "velocity": 52}, {"time": 1273, "pitch": 73, "duration": 2, "velocity": 52}, {"time": 1276, "pitch": 77, "duration": 6, "velocity": 56}, {"time": 1282, "pitch": 73, "duration": 9, "velocity": 54}, {"time": 1306, "pitch": 75, "duration": 2, "velocity": 59}, {"time": 1309, "pitch": 75, "duration": 1, "velocity": 59}, {"time": 1312, "pitch": 75, "duration": 1, "velocity": 61}, {"time": 1315, "pitch": 75, "duration": 1, "velocity": 59}, {"time": 1318, "pitch": 75, "duration": 4, "velocity": 59}, {"time": 1324, "pitch": 75, "duration": 1, "velocity": 60}, {"time": 1327, "pitch": 75, "duration": 1, "velocity": 59}, {"time": 1330, "pitch": 77, "duration": 4, "velocity": 60}, {"time": 1336, "pitch": 75, "duration": 4, "velocity": 59}, {"time": 1342, "pitch": 77, "duration": 2, "velocity": 62}, {"time": 1345, "pitch": 75, "duration": 2, "velocity": 58}, {"time": 1348, "pitch": 73, "duration": 2, "velocity": 55}, {"time": 1351, "pitch": 75, "duration": 1, "velocity": 53}, {"time": 1354, "pitch": 75, "duration": 1, "velocity": 60}, {"time": 1357, "pitch": 75, "duration": 1, "velocity": 59}, {"time": 1360, "pitch": 75, "duration": 1, "velocity": 57}, {"time": 1363, "pitch": 75, "duration": 2, "velocity": 60}, {"time": 1366, "pitch": 73, "duration": 2, "velocity": 56}, {"time": 1369, "pitch": 75, "duration": 2, "velocity": 59}, {"time": 1372, "pitch": 80, "duration": 4, "velocity": 59}, {"time": 1378, "pitch": 75, "duration": 21, "velocity": 60}, {"time": 1402, "pitch": 73, "duration": 1, "velocity": 55}, {"time": 1405, "pitch": 73, "duration": 2, "velocity": 54}, {"time": 1408, "pitch": 73, "duration": 2, "velocity": 55}, {"time": 1411, "pitch": 73, "duration": 2, "velocity": 58}, {"time": 1414, "pitch": 80, "duration": 1, "velocity": 54}, {"time": 1417, "pitch": 80, "duration": 1, "velocity": 58}, {"time": 1420, "pitch": 80, "duration": 1, "velocity": 57}, {"time": 1423, "pitch": 80, "duration": 2, "velocity": 59}, {"time": 1426, "pitch": 75, "duration": 1, "velocity": 54}, {"time": 1429, "pitch": 75, "duration": 2, "velocity": 59}, {"time": 1432, "pitch": 73, "duration": 2, "velocity": 58}, {"time": 1438, "pitch": 77, "duration": 2, "velocity": 59}, {"time": 1441, "pitch": 75, "duration": 2, "velocity": 53}, {"time": 1444, "pitch": 73, "duration": 2, "velocity": 58}, {"time": 1447, "pitch": 75, "duration": 2, "velocity": 60}, {"time": 1450, "pitch": 75, "duration": 1, "velocity": 60}, {"time": 1453, "pitch": 75, "duration": 1, "velocity": 59}, {"time": 1456, "pitch": 75, "duration": 1, "velocity": 60}, {"time": 1459, "pitch": 75, "duration": 2, "velocity": 62}, {"time": 1462, "pitch": 77, "duration": 1, "velocity": 57}, {"time": 1465, "pitch": 78, "duration": 2, "velocity": 53}, {"time": 1468, "pitch": 78, "duration": 6, "velocity": 57}, {"time": 1474, "pitch": 77, "duration": 19, "velocity": 51}, {"time": 1498, "pitch": 73, "duration": 1, "velocity": 58}, {"time": 1501, "pitch": 73, "duration": 1, "velocity": 53}, {"time": 1504, "pitch": 73, "duration": 1, "velocity": 56}, {"time": 1507, "pitch": 73, "duration": 1, "velocity": 53}, {"time": 1510, "pitch": 73, "duration": 1, "velocity": 52}, {"time": 1513, "pitch": 73, "duration": 2, "velocity": 52}, {"time": 1516, "pitch": 77, "duration": 6, "velocity": 53}, {"time": 1522, "pitch": 73, "duration": 6, "velocity": 59}, {"time": 1528, "pitch": 70, "duration": 4, "velocity": 58}, {"time": 1534, "pitch": 77, "duration": 2, "velocity": 60}, {"time": 1537, "pitch": 73, "duration": 2, "velocity": 53}, {"time": 1540, "pitch": 70, "duration": 2, "velocity": 51}, {"time": 1543, "pitch": 73, "duration": 1, "velocity": 50}, {"time": 1546, "pitch": 73, "duration": 1, "velocity": 54}, {"time": 1549, "pitch": 73, "duration": 1, "velocity": 54}, {"time": 1552, "pitch": 73, "duration": 1, "velocity": 54}, {"time": 1555, "pitch": 73, "duration": 2, "velocity": 58}, {"time": 1558, "pitch": 73, "duration": 1, "velocity": 54}, {"time": 1561, "pitch": 73, "duration": 2, "velocity": 58}, {"time": 1564, "pitch": 80, "duration": 6, "velocity": 60}, {"time": 1570, "pitch": 77, "duration": 5, "velocity": 60}, {"time": 1576, "pitch": 75, "duration": 10, "velocity": 60}, {"time": 1594, "pitch": 73, "duration": 1, "velocity": 55}, {"time": 1597, "pitch": 73, "duration": 2, "velocity": 54}, {"time": 1600, "pitch": 73, "duration": 2, "velocity": 55}, {"time": 1603, "pitch": 73, "duration": 2, "velocity": 58}, {"time": 1606, "pitch": 80, "duration": 1, "velocity": 54}, {"time": 1609, "pitch": 80, "duration": 1, "velocity": 58}, {"time": 1612, "pitch": 80, "duration": 1, "velocity": 57}, {"time": 1615, "pitch": 80, "duration": 2, "velocity": 59}, {"time": 1618, "pitch": 75, "duration": 1, "velocity": 54}, {"time": 1621, "pitch": 75, "duration": 2, "velocity": 59}, {"time": 1624, "pitch": 73, "duration": 2, "velocity": 58}, {"time": 1630, "pitch": 77, "duration": 2, "velocity": 59}, {"time": 1633, "pitch": 75, "duration": 2, "velocity": 53}, {"time": 1636, "pitch": 73, "duration": 2, "velocity": 58}, {"time": 1639, "pitch": 75, "duration": 2, "velocity": 60}, {"time": 1642, "pitch": 75, "duration": 1, "velocity": 60}, {"time": 1645, "pitch": 75, "duration": 1, "velocity": 59}, {"time": 1648, "pitch": 75, "duration": 1, "velocity": 60}, {"time": 1651, "pitch": 75, "duration": 2, "velocity": 62}, {"time": 1654, "pitch": 77, "duration": 1, "velocity": 57}, {"time": 1657, "pitch": 78, "duration": 2, "velocity": 53}, {"time": 1660, "pitch": 78, "duration": 6, "velocity": 57}, {"time": 1666, "pitch": 77, "duration": 19, "velocity": 51}, {"time": 1690, "pitch": 73, "duration": 1, "velocity": 58}, {"time": 1693, "pitch": 73, "duration": 1, "velocity": 53}, {"time": 1696, "pitch": 73, "duration": 1, "velocity": 56}, {"time": 1699, "pitch": 73, "duration": 1, "velocity": 53}, {"time": 1702, "pitch": 82, "duration": 1, "velocity": 52}, {"time": 1705, "pitch": 82, "duration": 2, "velocity": 52}, {"time": 1708, "pitch": 84, "duration": 6, "velocity": 53}, {"time": 1714, "pitch": 82, "duration": 3, "velocity": 59}, {"time": 1717, "pitch": 77, "duration": 3, "velocity": 59}, {"time": 1720, "pitch": 73, "duration": 4, "velocity": 58}, {"time": 1726, "pitch": 70, "duration": 2, "velocity": 60}, {"time": 1729, "pitch": 73, "duration": 2, "velocity": 53}, {"time": 1732, "pitch": 75, "duration": 2, "velocity": 51}, {"time": 1735, "pitch": 77, "duration": 1, "velocity": 44}, {"time": 1738, "pitch": 73, "duration": 1, "velocity": 59}, {"time": 1741, "pitch": 73, "duration": 12, "velocity": 58}, {"time": 1756, "pitch": 80, "duration": 2, "velocity": 51}, {"time": 1759, "pitch": 80, "duration": 4, "velocity": 59}, {"time": 1765, "pitch": 77, "duration": 5, "velocity": 58}, {"time": 1771, "pitch": 75, "duration": 6, "velocity": 60}, {"time": 1777, "pitch": 75, "duration": 6, "velocity": 58}, {"time": 1783, "pitch": 73, "duration": 24, "velocity": 51}, {"time": 1882, "pitch": 73, "duration": 1, "velocity": 58}, {"time": 1885, "pitch": 73, "duration": 1, "velocity": 53}, {"time": 1888, "pitch": 73, "duration": 1, "velocity": 56}, {"time": 1891, "pitch": 73, "duration": 1, "velocity": 53}, {"time": 1894, "pitch": 73, "duration": 1, "velocity": 52}, {"time": 1897, "pitch": 73, "duration": 2, "velocity": 52}, {"time": 1900, "pitch": 77, "duration": 6, "velocity": 53}, {"time": 1906, "pitch": 73, "duration": 6, "velocity": 59}, {"time": 1912, "pitch": 70, "duration": 4, "velocity": 58}, {"time": 1918, "pitch": 77, "duration": 2, "velocity": 60}, {"time": 1921, "pitch": 73, "duration": 2, "velocity": 53}, {"time": 1924, "pitch": 70, "duration": 2, "velocity": 51}, {"time": 1927, "pitch": 73, "duration": 1, "velocity": 50}, {"time": 1930, "pitch": 73, "duration": 1, "velocity": 54}, {"time": 1933, "pitch": 73, "duration": 1, "velocity": 54}, {"time": 1936, "pitch": 73, "duration": 1, "velocity": 54}, {"time": 1939, "pitch": 73, "duration": 2, "velocity": 58}, {"time": 1942, "pitch": 73, "duration": 1, "velocity": 54}, {"time": 1945, "pitch": 73, "duration": 2, "velocity": 58}, {"time": 1948, "pitch": 80, "duration": 6, "velocity": 60}, {"time": 1954, "pitch": 77, "duration": 5, "velocity": 60}, {"time": 1960, "pitch": 75, "duration": 10, "velocity": 60}, {"time": 1978, "pitch": 73, "duration": 1, "velocity": 55}, {"time": 1981, "pitch": 73, "duration": 2, "velocity": 54}, {"time": 1984, "pitch": 73, "duration": 2, "velocity": 55}, {"time": 1987, "pitch": 73, "duration": 2, "velocity": 58}, {"time": 1990, "pitch": 80, "duration": 1, "velocity": 54}, {"time": 1993, "pitch": 80, "duration": 1, "velocity": 58}, {"time": 1996, "pitch": 80, "duration": 1, "velocity": 57}, {"time": 1999, "pitch": 80, "duration": 2, "velocity": 59}, {"time": 2002, "pitch": 75, "duration": 1, "velocity": 54}, {"time": 2005, "pitch": 75, "duration": 2, "velocity": 59}, {"time": 2008, "pitch": 73, "duration": 2, "velocity": 58}, {"time": 2014, "pitch": 77, "duration": 2, "velocity": 59}, {"time": 2017, "pitch": 75, "duration": 2, "velocity": 53}, {"time": 2020, "pitch": 73, "duration": 2, "velocity": 58}, {"time": 2023, "pitch": 75, "duration": 2, "velocity": 60}, {"time": 2026, "pitch": 75, "duration": 1, "velocity": 60}, {"time": 2029, "pitch": 75, "duration": 1, "velocity": 59}, {"time": 2032, "pitch": 75, "duration": 1, "velocity": 60}, {"time": 2035, "pitch": 75, "duration": 2, "velocity": 62}, {"time": 2038, "pitch": 77, "duration": 1, "velocity": 57}, {"time": 2041, "pitch": 78, "duration": 2, "velocity": 53}, {"time": 2044, "pitch": 78, "duration": 6, "velocity": 57}, {"time": 2050, "pitch": 77, "duration": 19, "velocity": 51}, {"time": 2074, "pitch": 73, "duration": 1, "velocity": 58}, {"time": 2077, "pitch": 73, "duration": 1, "velocity": 53}, {"time": 2080, "pitch": 73, "duration": 1, "velocity": 56}, {"time": 2083, "pitch": 73, "duration": 1, "velocity": 53}, {"time": 2086, "pitch": 82, "duration": 1, "velocity": 52}, {"time": 2089, "pitch": 82, "duration": 2, "velocity": 52}, {"time": 2092, "pitch": 84, "duration": 6, "velocity": 53}, {"time": 2098, "pitch": 82, "duration": 3, "velocity": 59}, {"time": 2101, "pitch": 77, "duration": 3, "velocity": 59}, {"time": 2104, "pitch": 73, "duration": 4, "velocity": 58}, {"time": 2110, "pitch": 70, "duration": 2, "velocity": 60}, {"time": 2113, "pitch": 73, "duration": 2, "velocity": 53}, {"time": 2116, "pitch": 75, "duration": 2, "velocity": 51}, {"time": 2119, "pitch": 77, "duration": 1, "velocity": 44}, {"time": 2122, "pitch": 73, "duration": 1, "velocity": 59}, {"time": 2125, "pitch": 73, "duration": 12, "velocity": 58}, {"time": 2140, "pitch": 80, "duration": 2, "velocity": 51}, {"time": 2143, "pitch": 80, "duration": 4, "velocity": 59}, {"time": 2149, "pitch": 77, "duration": 5, "velocity": 58}, {"time": 2155, "pitch": 75, "duration": 6, "velocity": 60}, {"time": 2161, "pitch": 75, "duration": 6, "velocity": 58}, {"time": 2167, "pitch": 73, "duration": 24, "velocity": 51}]}, {"program": 0, "is_drum": false, "name": "PIANO", "notes": [{"time": 31, "pitch": 42, "duration": 22, "velocity": 58}, {"time": 34, "pitch": 49, "duration": 19, "velocity": 46}, {"time": 37, "pitch": 54, "duration": 9, "velocity": 54}, {"time": 40, "pitch": 61, "duration": 8, "velocity": 52}, {"time": 46, "pitch": 66, "duration": 4, "velocity": 55}, {"time": 49, "pitch": 54, "duration": 3, "velocity": 44}, {"time": 55, "pitch": 42, "duration": 14, "velocity": 39}, {"time": 55, "pitch": 54, "duration": 11, "velocity": 44}, {"time": 55, "pitch": 61, "duration": 11, "velocity": 43}, {"time": 79, "pitch": 49, "duration": 38, "velocity": 54}, {"time": 79, "pitch": 56, "duration": 2, "velocity": 43}, {"time": 79, "pitch": 61, "duration": 4, "velocity": 52}, {"time": 82, "pitch": 56, "duration": 4, "velocity": 53}, {"time": 85, "pitch": 61, "duration": 2, "velocity": 50}, {"time": 88, "pitch": 65, "duration": 4, "velocity": 55}, {"time": 94, "pitch": 61, "duration": 5, "velocity": 46}, {"time": 97, "pitch": 56, "duration": 3, "velocity": 38}, {"time": 103, "pitch": 65, "duration": 6, "velocity": 49}, {"time": 115, "pitch": 56, "duration": 2, "velocity": 49}, {"time": 115, "pitch": 61, "duration": 2, "velocity": 52}, {"time": 127, "pitch": 42, "duration": 22, "velocity": 56}, {"time": 127, "pitch": 54, "duration": 4, "velocity": 46}, {"time": 127, "pitch": 61, "duration": 5, "velocity": 53}, {"time": 130, "pitch": 49, "duration": 19, "velocity": 47}, {"time": 133, "pitch": 54, "duration": 3, "velocity": 42}, {"time": 136, "pitch": 61, "duration": 9, "velocity": 50}, {"time": 142, "pitch": 66, "duration": 4, "velocity": 58}, {"time": 145, "pitch": 54, "duration": 3, "velocity": 51}, {"time": 151, "pitch": 54, "duration": 6, "velocity": 46}, {"time": 151, "pitch": 61, "duration": 6, "velocity": 45}, {"time": 157, "pitch": 42, "duration": 7, "velocity": 21}, {"time": 163, "pitch": 54, "duration": 2, "velocity": 47}, {"time": 163, "pitch": 58, "duration": 3, "velocity": 49}, {"time": 175, "pitch": 49, "duration": 21, "velocity": 54}, {"time": 175, "pitch": 56, "duration": 2, "velocity": 46}, {"time": 175, "pitch": 61, "duration": 4, "velocity": 53}, {"time": 178, "pitch": 56, "duration": 3, "velocity": 50}, {"time": 181, "pitch": 63, "duration": 2, "velocity": 52}, {"time": 184, "pitch": 56, "duration": 4, "velocity": 46}, {"time": 190, "pitch": 65, "duration": 2, "velocity": 52}, {"time": 193, "pitch": 56, "duration": 2, "velocity": 45}, {"time": 199, "pitch": 49, "duration": 14, "velocity": 47}, {"time": 199, "pitch": 56, "duration": 2, "velocity": 33}, {"time": 199, "pitch": 68, "duration": 7, "velocity": 31}, {"time": 205, "pitch": 56, "duration": 3, "velocity": 36}, {"time": 211, "pitch": 56, "duration": 2, "velocity": 44}, {"time": 211, "pitch": 61, "duration": 2, "velocity": 44}, {"time": 211, "pitch": 65, "duration": 2, "velocity": 53}, {"time": 223, "pitch": 42, "duration": 41, "velocity": 58}, {"time": 223, "pitch": 61, "duration": 6, "velocity": 52}, {"time": 226, "pitch": 49, "duration": 25, "velocity": 44}, {"time": 229, "pitch": 54, "duration": 3, "velocity": 43}, {"time": 232, "pitch": 58, "duration": 2, "velocity": 41}, {"time": 238, "pitch": 61, "duration": 2, "velocity": 52}, {"time": 241, "pitch": 54, "duration": 2, "velocity": 38}, {"time": 247, "pitch": 61, "duration": 2, "velocity": 49}, {"time": 256, "pitch": 49, "duration": 7, "velocity": 42}, {"time": 259, "pitch": 54, "duration": 4, "velocity": 47}, {"time": 262, "pitch": 58, "duration": 3, "velocity": 60}, {"time": 265, "pitch": 61, "duration": 1, "velocity": 59}, {"time": 271, "pitch": 49, "duration": 40, "velocity": 57}, {"time": 271, "pitch": 56, "duration": 2, "velocity": 51}, {"time": 271, "pitch": 61, "duration": 4, "velocity": 52}, {"time": 274, "pitch": 56, "duration": 4, "velocity": 47}, {"time": 277, "pitch": 61, "duration": 2, "velocity": 48}, {"time": 280, "pitch": 63, "duration": 2, "velocity": 45}, {"time": 286, "pitch": 61, "duration": 3, "velocity": 51}, {"time": 289, "pitch": 56, "duration": 3, "velocity": 43}, {"time": 292, "pitch": 65, "duration": 10, "velocity": 53}, {"time": 304, "pitch": 61, "duration": 3, "velocity": 52}, {"time": 307, "pitch": 56, "duration": 3, "velocity": 54}, {"time": 310, "pitch": 61, "duration": 1, "velocity": 53}, {"time": 319, "pitch": 42, "duration": 22, "velocity": 57}, {"time": 319, "pitch": 54, "duration": 1, "velocity": 45}, {"time": 319, "pitch": 58, "duration": 7, "velocity": 44}, {"time": 322, "pitch": 49, "duration": 19, "velocity": 55}, {"time": 325, "pitch": 54, "duration": 4, "velocity": 48}, {"time": 328, "pitch": 61, "duration": 2, "velocity": 52}, {"time": 334, "pitch": 58, "duration": 2, "velocity": 48}, {"time": 337, "pitch": 54, "duration": 5, "velocity": 43}, {"time": 340, "pitch": 66, "duration": 13, "velocity": 55}, {"time": 343, "pitch": 42, "duration": 15, "velocity": 49}, {"time": 346, "pitch": 49, "duration": 11, "velocity": 46}, {"time": 349, "pitch": 54, "duration": 5, "velocity": 48}, {"time": 352, "pitch": 61, "duration": 6, "velocity": 52}, {"time": 358, "pitch": 58, "duration": 4, "velocity": 49}, {"time": 361, "pitch": 54, "duration": 1, "velocity": 45}, {"time": 367, "pitch": 49, "duration": 39, "velocity": 56}, {"time": 370, "pitch": 56, "duration": 3, "velocity": 50}, {"time": 373, "pitch": 61, "duration": 4, "velocity": 50}, {"time": 376, "pitch": 56, "duration": 2, "velocity": 47}, {"time": 379, "pitch": 63, "duration": 2, "velocity": 58}, {"time": 382, "pitch": 56, "duration": 4, "velocity": 47}, {"time": 388, "pitch": 65, "duration": 7, "velocity": 59}, {"time": 394, "pitch": 56, "duration": 3, "velocity": 48}, {"time": 397, "pitch": 61, "duration": 4, "velocity": 54}, {"time": 403, "pitch": 56, "duration": 4, "velocity": 52}, {"time": 403, "pitch": 61, "duration": 3, "velocity": 54}, {"time": 415, "pitch": 47, "duration": 41, "velocity": 61}, {"time": 418, "pitch": 59, "duration": 4, "velocity": 52}, {"time": 421, "pitch": 54, "duration": 4, "velocity": 49}, {"time": 424, "pitch": 63, "duration": 4, "velocity": 57}, {"time": 427, "pitch": 59, "duration": 3, "velocity": 54}, {"time": 430, "pitch": 54, "duration": 4, "velocity": 46}, {"time": 433, "pitch": 59, "duration": 5, "velocity": 46}, {"time": 436, "pitch": 54, "duration": 4, "velocity": 44}, {"time": 448, "pitch": 59, "duration": 3, "velocity": 59}, {"time": 451, "pitch": 54, "duration": 4, "velocity": 53}, {"time": 454, "pitch": 59, "duration": 2, "velocity": 63}, {"time": 463, "pitch": 42, "duration": 39, "velocity": 58}, {"time": 463, "pitch": 58, "duration": 4, "velocity": 51}, {"time": 466, "pitch": 49, "duration": 36, "velocity": 49}, {"time": 469, "pitch": 58, "duration": 2, "velocity": 59}, {"time": 472, "pitch": 61, "duration": 6, "velocity": 59}, {"time": 478, "pitch": 66, "duration": 5, "velocity": 52}, {"time": 487, "pitch": 58, "duration": 8, "velocity": 42}, {"time": 487, "pitch": 61, "duration": 10, "velocity": 49}, {"time": 499, "pitch": 66, "duration": 3, "velocity": 62}, {"time": 502, "pitch": 61, "duration": 3, "velocity": 60}, {"time": 505, "pitch": 58, "duration": 2, "velocity": 50}, {"time": 511, "pitch": 47, "duration": 38, "velocity": 59}, {"time": 511, "pitch": 59, "duration": 4, "velocity": 59}, {"time": 514, "pitch": 54, "duration": 3, "velocity": 53}, {"time": 517, "pitch": 63, "duration": 3, "velocity": 43}, {"time": 520, "pitch": 59, "duration": 4, "velocity": 45}, {"time": 523, "pitch": 54, "duration": 2, "velocity": 53}, {"time": 526, "pitch": 66, "duration": 5, "velocity": 58}, {"time": 532, "pitch": 54, "duration": 2, "velocity": 49}, {"time": 535, "pitch": 54, "duration": 4, "velocity": 46}, {"time": 535, "pitch": 63, "duration": 7, "velocity": 51}, {"time": 544, "pitch": 59, "duration": 6, "velocity": 63}, {"time": 550, "pitch": 54, "duration": 3, "velocity": 58}, {"time": 553, "pitch": 59, "duration": 1, "velocity": 45}, {"time": 559, "pitch": 44, "duration": 22, "velocity": 59}, {"time": 559, "pitch": 63, "duration": 6, "velocity": 53}, {"time": 562, "pitch": 51, "duration": 19, "velocity": 47}, {"time": 565, "pitch": 56, "duration": 4, "velocity": 58}, {"time": 568, "pitch": 63, "duration": 3, "velocity": 59}, {"time": 571, "pitch": 68, "duration": 3, "velocity": 59}, {"time": 574, "pitch": 63, "duration": 4, "velocity": 54}, {"time": 577, "pitch": 56, "duration": 7, "velocity": 60}, {"time": 580, "pitch": 63, "duration": 9, "velocity": 56}, {"time": 583, "pitch": 44, "duration": 17, "velocity": 58}, {"time": 586, "pitch": 51, "duration": 7, "velocity": 45}, {"time": 589, "pitch": 56, "duration": 2, "velocity": 58}, {"time": 592, "pitch": 56, "duration": 6, "velocity": 53}, {"time": 592, "pitch": 60, "duration": 8, "velocity": 58}, {"time": 592, "pitch": 63, "duration": 10, "velocity": 58}, {"time": 598, "pitch": 51, "duration": 7, "velocity": 56}, {"time": 601, "pitch": 56, "duration": 5, "velocity": 60}, {"time": 604, "pitch": 60, "duration": 2, "velocity": 53}, {"time": 604, "pitch": 63, "duration": 1, "velocity": 5}, {"time": 607, "pitch": 37, "duration": 1, "velocity": 59}, {"time": 607, "pitch": 56, "duration": 2, "velocity": 57}, {"time": 607, "pitch": 65, "duration": 6, "velocity": 58}, {"time": 610, "pitch": 56, "duration": 4, "velocity": 58}, {"time": 613, "pitch": 61, "duration": 2, "velocity": 44}, {"time": 616, "pitch": 65, "duration": 6, "velocity": 62}, {"time": 619, "pitch": 49, "duration": 10, "velocity": 49}, {"time": 622, "pitch": 61, "duration": 3, "velocity": 53}, {"time": 625, "pitch": 56, "duration": 4, "velocity": 58}, {"time": 628, "pitch": 61, "duration": 3, "velocity": 55}, {"time": 631, "pitch": 51, "duration": 17, "velocity": 60}, {"time": 631, "pitch": 63, "duration": 4, "velocity": 59}, {"time": 634, "pitch": 58, "duration": 3, "velocity": 49}, {"time": 637, "pitch": 63, "duration": 2, "velocity": 56}, {"time": 640, "pitch": 66, "duration": 5, "velocity": 59}, {"time": 646, "pitch": 63, "duration": 3, "velocity": 60}, {"time": 649, "pitch": 58, "duration": 1, "velocity": 54}, {"time": 655, "pitch": 44, "duration": 22, "velocity": 58}, {"time": 655, "pitch": 56, "duration": 3, "velocity": 55}, {"time": 655, "pitch": 60, "duration": 6, "velocity": 54}, {"time": 658, "pitch": 51, "duration": 16, "velocity": 38}, {"time": 661, "pitch": 56, "duration": 2, "velocity": 53}, {"time": 664, "pitch": 63, "duration": 4, "velocity": 60}, {"time": 670, "pitch": 60, "duration": 3, "velocity": 60}, {"time": 673, "pitch": 56, "duration": 2, "velocity": 58}, {"time": 679, "pitch": 49, "duration": 11, "velocity": 60}, {"time": 679, "pitch": 56, "duration": 1, "velocity": 57}, {"time": 679, "pitch": 61, "duration": 3, "velocity": 58}, {"time": 682, "pitch": 56, "duration": 4, "velocity": 58}, {"time": 685, "pitch": 61, "duration": 2, "velocity": 54}, {"time": 688, "pitch": 56, "duration": 2, "velocity": 58}, {"time": 688, "pitch": 61, "duration": 2, "velocity": 59}, {"time": 688, "pitch": 65, "duration": 3, "velocity": 62}, {"time": 694, "pitch": 48, "duration": 7, "velocity": 60}, {"time": 694, "pitch": 60, "duration": 6, "velocity": 56}, {"time": 694, "pitch": 63, "duration": 6, "velocity": 58}, {"time": 703, "pitch": 46, "duration": 17, "velocity": 58}, {"time": 703, "pitch": 58, "duration": 3, "velocity": 58}, {"time": 703, "pitch": 61, "duration": 6, "velocity": 58}, {"time": 706, "pitch": 53, "duration": 7, "velocity": 47}, {"time": 709, "pitch": 58, "duration": 1, "velocity": 51}, {"time": 712, "pitch": 58, "duration": 3, "velocity": 57}, {"time": 712, "pitch": 65, "duration": 4, "velocity": 60}, {"time": 715, "pitch": 53, "duration": 4, "velocity": 53}, {"time": 718, "pitch": 58, "duration": 2, "velocity": 58}, {"time": 718, "pitch": 61, "duration": 3, "velocity": 58}, {"time": 721, "pitch": 58, "duration": 4, "velocity": 51}, {"time": 724, "pitch": 61, "duration": 2, "velocity": 52}, {"time": 727, "pitch": 39, "duration": 14, "velocity": 62}, {"time": 727, "pitch": 63, "duration": 3, "velocity": 54}, {"time": 730, "pitch": 46, "duration": 11, "velocity": 43}, {"time": 733, "pitch": 58, "duration": 1, "velocity": 59}, {"time": 736, "pitch": 58, "duration": 2, "velocity": 57}, {"time": 736, "pitch": 67, "duration": 3, "velocity": 55}, {"time": 742, "pitch": 58, "duration": 2, "velocity": 55}, {"time": 742, "pitch": 63, "duration": 2, "velocity": 58}, {"time": 751, "pitch": 39, "duration": 17, "velocity": 61}, {"time": 751, "pitch": 66, "duration": 6, "velocity": 57}, {"time": 754, "pitch": 46, "duration": 13, "velocity": 43}, {"time": 757, "pitch": 58, "duration": 3, "velocity": 58}, {"time": 760, "pitch": 63, "duration": 2, "velocity": 58}, {"time": 766, "pitch": 58, "duration": 1, "velocity": 59}, {"time": 766, "pitch": 66, "duration": 3, "velocity": 59}, {"time": 769, "pitch": 63, "duration": 2, "velocity": 59}, {"time": 772, "pitch": 58, "duration": 1, "velocity": 50}, {"time": 775, "pitch": 44, "duration": 19, "velocity": 57}, {"time": 775, "pitch": 63, "duration": 5, "velocity": 58}, {"time": 778, "pitch": 51, "duration": 7, "velocity": 51}, {"time": 781, "pitch": 56, "duration": 1, "velocity": 57}, {"time": 784, "pitch": 56, "duration": 3, "velocity": 57}, {"time": 784, "pitch": 63, "duration": 3, "velocity": 59}, {"time": 787, "pitch": 51, "duration": 4, "velocity": 55}, {"time": 790, "pitch": 56, "duration": 3, "velocity": 61}, {"time": 790, "pitch": 60, "duration": 5, "velocity": 60}, {"time": 793, "pitch": 51, "duration": 4, "velocity": 58}, {"time": 796, "pitch": 56, "duration": 2, "velocity": 61}, {"time": 799, "pitch": 37, "duration": 1, "velocity": 59}, {"time": 799, "pitch": 56, "duration": 2, "velocity": 57}, {"time": 799, "pitch": 65, "duration": 6, "velocity": 58}, {"time": 802, "pitch": 56, "duration": 4, "velocity": 58}, {"time": 805, "pitch": 61, "duration": 2, "velocity": 44}, {"time": 808, "pitch": 65, "duration": 6, "velocity": 62}, {"time": 811, "pitch": 49, "duration": 10, "velocity": 49}, {"time": 814, "pitch": 61, "duration": 3, "velocity": 53}, {"time": 817, "pitch": 56, "duration": 4, "velocity": 58}, {"time": 820, "pitch": 61, "duration": 3, "velocity": 55}, {"time": 823, "pitch": 51, "duration": 17, "velocity": 60}, {"time": 823, "pitch": 63, "duration": 4, "velocity": 59}, {"time": 826, "pitch": 58, "duration": 3, "velocity": 49}, {"time": 829, "pitch": 63, "duration": 2, "velocity": 56}, {"time": 832, "pitch": 66, "duration": 5, "velocity": 59}, {"time": 838, "pitch": 63, "duration": 3, "velocity": 60}, {"time": 841, "pitch": 58, "duration": 1, "velocity": 54}, {"time": 847, "pitch": 44, "duration": 22, "velocity": 58}, {"time": 847, "pitch": 56, "duration": 3, "velocity": 55}, {"time": 847, "pitch": 60, "duration": 6, "velocity": 54}, {"time": 850, "pitch": 51, "duration": 16, "velocity": 38}, {"time": 853, "pitch": 56, "duration": 2, "velocity": 53}, {"time": 856, "pitch": 63, "duration": 4, "velocity": 60}, {"time": 862, "pitch": 60, "duration": 3, "velocity": 60}, {"time": 865, "pitch": 56, "duration": 2, "velocity": 58}, {"time": 871, "pitch": 49, "duration": 11, "velocity": 60}, {"time": 871, "pitch": 56, "duration": 1, "velocity": 57}, {"time": 871, "pitch": 61, "duration": 3, "velocity": 58}, {"time": 874, "pitch": 56, "duration": 4, "velocity": 58}, {"time": 877, "pitch": 61, "duration": 2, "velocity": 54}, {"time": 880, "pitch": 56, "duration": 2, "velocity": 58}, {"time": 880, "pitch": 61, "duration": 2, "velocity": 59}, {"time": 880, "pitch": 65, "duration": 3, "velocity": 62}, {"time": 886, "pitch": 48, "duration": 7, "velocity": 60}, {"time": 886, "pitch": 60, "duration": 6, "velocity": 56}, {"time": 886, "pitch": 63, "duration": 6, "velocity": 58}, {"time": 895, "pitch": 46, "duration": 17, "velocity": 58}, {"time": 895, "pitch": 58, "duration": 3, "velocity": 58}, {"time": 895, "pitch": 61, "duration": 6, "velocity": 58}, {"time": 898, "pitch": 53, "duration": 7, "velocity": 47}, {"time": 901, "pitch": 58, "duration": 1, "velocity": 51}, {"time": 904, "pitch": 58, "duration": 3, "velocity": 57}, {"time": 904, "pitch": 65, "duration": 4, "velocity": 60}, {"time": 907, "pitch": 53, "duration": 4, "velocity": 53}, {"time": 910, "pitch": 58, "duration": 2, "velocity": 58}, {"time": 910, "pitch": 61, "duration": 3, "velocity": 58}, {"time": 913, "pitch": 58, "duration": 4, "velocity": 51}, {"time": 916, "pitch": 61, "duration": 2, "velocity": 52}, {"time": 919, "pitch": 39, "duration": 14, "velocity": 62}, {"time": 919, "pitch": 63, "duration": 3, "velocity": 54}, {"time": 922, "pitch": 46, "duration": 11, "velocity": 43}, {"time": 925, "pitch": 58, "duration": 1, "velocity": 59}, {"time": 928, "pitch": 58, "duration": 2, "velocity": 57}, {"time": 928, "pitch": 67, "duration": 3, "velocity": 55}, {"time": 934, "pitch": 58, "duration": 2, "velocity": 55}, {"time": 934, "pitch": 63, "duration": 2, "velocity": 58}, {"time": 943, "pitch": 39, "duration": 13, "velocity": 60}, {"time": 943, "pitch": 58, "duration": 3, "velocity": 56}, {"time": 943, "pitch": 66, "duration": 7, "velocity": 53}, {"time": 946, "pitch": 46, "duration": 9, "velocity": 49}, {"time": 949, "pitch": 58, "duration": 4, "velocity": 54}, {"time": 952, "pitch": 63, "duration": 3, "velocity": 60}, {"time": 958, "pitch": 58, "duration": 1, "velocity": 59}, {"time": 958, "pitch": 66, "duration": 3, "velocity": 58}, {"time": 961, "pitch": 63, "duration": 3, "velocity": 52}, {"time": 964, "pitch": 58, "duration": 5, "velocity": 54}, {"time": 967, "pitch": 44, "duration": 18, "velocity": 59}, {"time": 970, "pitch": 51, "duration": 8, "velocity": 53}, {"time": 973, "pitch": 56, "duration": 2, "velocity": 61}, {"time": 976, "pitch": 56, "duration": 4, "velocity": 52}, {"time": 976, "pitch": 63, "duration": 4, "velocity": 58}, {"time": 979, "pitch": 51, "duration": 5, "velocity": 54}, {"time": 982, "pitch": 56, "duration": 4, "velocity": 59}, {"time": 982, "pitch": 63, "duration": 5, "velocity": 58}, {"time": 989, "pitch": 56, "duration": 23, "velocity": 38}, {"time": 990, "pitch": 60, "duration": 22, "velocity": 47}, {"time": 991, "pitch": 44, "duration": 21, "velocity": 58}, {"time": 991, "pitch": 63, "duration": 21, "velocity": 52}, {"time": 991, "pitch": 68, "duration": 21, "velocity": 46}, {"time": 1015, "pitch": 42, "duration": 41, "velocity": 58}, {"time": 1015, "pitch": 61, "duration": 6, "velocity": 52}, {"time": 1018, "pitch": 49, "duration": 25, "velocity": 44}, {"time": 1021, "pitch": 54, "duration": 3, "velocity": 43}, {"time": 1024, "pitch": 58, "duration": 2, "velocity": 41}, {"time": 1030, "pitch": 61, "duration": 2, "velocity": 52}, {"time": 1033, "pitch": 54, "duration": 2, "velocity": 38}, {"time": 1039, "pitch": 61, "duration": 2, "velocity": 49}, {"time": 1048, "pitch": 49, "duration": 7, "velocity": 42}, {"time": 1051, "pitch": 54, "duration": 4, "velocity": 47}, {"time": 1054, "pitch": 58, "duration": 3, "velocity": 60}, {"time": 1057, "pitch": 61, "duration": 1, "velocity": 59}, {"time": 1063, "pitch": 49, "duration": 40, "velocity": 57}, {"time": 1063, "pitch": 56, "duration": 2, "velocity": 51}, {"time": 1063, "pitch": 61, "duration": 4, "velocity": 52}, {"time": 1066, "pitch": 56, "duration": 4, "velocity": 47}, {"time": 1069, "pitch": 61, "duration": 2, "velocity": 48}, {"time": 1072, "pitch": 63, "duration": 2, "velocity": 45}, {"time": 1078, "pitch": 61, "duration": 3, "velocity": 51}, {"time": 1081, "pitch": 56, "duration": 3, "velocity": 43}, {"time": 1084, "pitch": 65, "duration": 10, "velocity": 53}, {"time": 1096, "pitch": 61, "duration": 3, "velocity": 52}, {"time": 1099, "pitch": 56, "duration": 3, "velocity": 54}, {"time": 1102, "pitch": 61, "duration": 1, "velocity": 53}, {"time": 1111, "pitch": 42, "duration": 22, "velocity": 57}, {"time": 1111, "pitch": 54, "duration": 1, "velocity": 45}, {"time": 1111, "pitch": 58, "duration": 7, "velocity": 44}, {"time": 1114, "pitch": 49, "duration": 19, "velocity": 55}, {"time": 1117, "pitch": 54, "duration": 4, "velocity": 48}, {"time": 1120, "pitch": 61, "duration": 2, "velocity": 52}, {"time": 1126, "pitch": 58, "duration": 2, "velocity": 48}, {"time": 1129, "pitch": 54, "duration": 5, "velocity": 43}, {"time": 1132, "pitch": 66, "duration": 13, "velocity": 55}, {"time": 1135, "pitch": 42, "duration": 15, "velocity": 49}, {"time": 1138, "pitch": 49, "duration": 11, "velocity": 46}, {"time": 1141, "pitch": 54, "duration": 5, "velocity": 48}, {"time": 1144, "pitch": 61, "duration": 6, "velocity": 52}, {"time": 1150, "pitch": 58, "duration": 4, "velocity": 49}, {"time": 1153, "pitch": 54, "duration": 1, "velocity": 45}, {"time": 1159, "pitch": 49, "duration": 39, "velocity": 56}, {"time": 1162, "pitch": 56, "duration": 3, "velocity": 50}, {"time": 1165, "pitch": 61, "duration": 4, "velocity": 50}, {"time": 1168, "pitch": 56, "duration": 2, "velocity": 47}, {"time": 1171, "pitch": 63, "duration": 2, "velocity": 58}, {"time": 1174, "pitch": 56, "duration": 4, "velocity": 47}, {"time": 1180, "pitch": 65, "duration": 7, "velocity": 59}, {"time": 1186, "pitch": 56, "duration": 3, "velocity": 48}, {"time": 1189, "pitch": 61, "duration": 4, "velocity": 54}, {"time": 1195, "pitch": 56, "duration": 4, "velocity": 52}, {"time": 1195, "pitch": 61, "duration": 3, "velocity": 54}, {"time": 1207, "pitch": 47, "duration": 41, "velocity": 61}, {"time": 1210, "pitch": 59, "duration": 4, "velocity": 52}, {"time": 1213, "pitch": 54, "duration": 4, "velocity": 49}, {"time": 1216, "pitch": 63, "duration": 4, "velocity": 57}, {"time": 1219, "pitch": 59, "duration": 3, "velocity": 54}, {"time": 1222, "pitch": 54, "duration": 4, "velocity": 46}, {"time": 1225, "pitch": 59, "duration": 5, "velocity": 46}, {"time": 1228, "pitch": 54, "duration": 4, "velocity": 44}, {"time": 1240, "pitch": 59, "duration": 3, "velocity": 59}, {"time": 1243, "pitch": 54, "duration": 4, "velocity": 53}, {"time": 1246, "pitch": 59, "duration": 2, "velocity": 63}, {"time": 1255, "pitch": 42, "duration": 39, "velocity": 58}, {"time": 1255, "pitch": 58, "duration": 4, "velocity": 51}, {"time": 1258, "pitch": 49, "duration": 36, "velocity": 49}, {"time": 1261, "pitch": 58, "duration": 2, "velocity": 59}, {"time": 1264, "pitch": 61, "duration": 6, "velocity": 59}, {"time": 1270, "pitch": 66, "duration": 5, "velocity": 52}, {"time": 1279, "pitch": 58, "duration": 8, "velocity": 42}, {"time": 1279, "pitch": 61, "duration": 10, "velocity": 49}, {"time": 1291, "pitch": 66, "duration": 3, "velocity": 62}, {"time": 1294, "pitch": 61, "duration": 3, "velocity": 60}, {"time": 1297, "pitch": 58, "duration": 2, "velocity": 50}, {"time": 1303, "pitch": 47, "duration": 38, "velocity": 59}, {"time": 1303, "pitch": 59, "duration": 4, "velocity": 59}, {"time": 1306, "pitch": 54, "duration": 3, "velocity": 53}, {"time": 1309, "pitch": 63, "duration": 3, "velocity": 43}, {"time": 1312, "pitch": 59, "duration": 4, "velocity": 45}, {"time": 1315, "pitch": 54, "duration": 2, "velocity": 53}, {"time": 1318, "pitch": 66, "duration": 5, "velocity": 58}, {"time": 1324, "pitch": 54, "duration": 2, "velocity": 49}, {"time": 1327, "pitch": 54, "duration": 4, "velocity": 46}, {"time": 1327, "pitch": 63, "duration": 7, "velocity": 51}, {"time": 1336, "pitch": 59, "duration": 6, "velocity": 63}, {"time": 1342, "pitch": 54, "duration": 3, "velocity": 58}, {"time": 1345, "pitch": 59, "duration": 1, "velocity": 45}, {"time": 1351, "pitch": 44, "duration": 22, "velocity": 59}, {"time": 1351, "pitch": 63, "duration": 6, "velocity": 53}, {"time": 1354, "pitch": 51, "duration": 19, "velocity": 47}, {"time": 1357, "pitch": 56, "duration": 4, "velocity": 58}, {"time": 1360, "pitch": 63, "duration": 3, "velocity": 59}, {"time": 1363, "pitch": 68, "duration": 3, "velocity": 59}, {"time": 1366, "pitch": 63, "duration": 4, "velocity": 54}, {"time": 1369, "pitch": 56, "duration": 7, "velocity": 60}, {"time": 1372, "pitch": 63, "duration": 9, "velocity": 56}, {"time": 1375, "pitch": 44, "duration": 17, "velocity": 58}, {"time": 1378, "pitch": 51, "duration": 7, "velocity": 45}, {"time": 1381, "pitch": 56, "duration": 2, "velocity": 58}, {"time": 1384, "pitch": 56, "duration": 6, "velocity": 53}, {"time": 1384, "pitch": 60, "duration": 8, "velocity": 58}, {"time": 1384, "pitch": 63, "duration": 10, "velocity": 58}, {"time": 1390, "pitch": 51, "duration": 7, "velocity": 56}, {"time": 1393, "pitch": 56, "duration": 5, "velocity": 60}, {"time": 1396, "pitch": 60, "duration": 2, "velocity": 53}, {"time": 1396, "pitch": 63, "duration": 1, "velocity": 5}, {"time": 1399, "pitch": 37, "duration": 1, "velocity": 59}, {"time": 1399, "pitch": 56, "duration": 2, "velocity": 57}, {"time": 1399, "pitch": 65, "duration": 6, "velocity": 58}, {"time": 1402, "pitch": 56, "duration": 4, "velocity": 58}, {"time": 1405, "pitch": 61, "duration": 2, "velocity": 44}, {"time": 1408, "pitch": 65, "duration": 6, "velocity": 62}, {"time": 1411, "pitch": 49, "duration": 10, "velocity": 49}, {"time": 1414, "pitch": 61, "duration": 3, "velocity": 53}, {"time": 1417, "pitch": 56, "duration": 4, "velocity": 58}, {"time": 1420, "pitch": 61, "duration": 3, "velocity": 55}, {"time": 1423, "pitch": 51, "duration": 17, "velocity": 60}, {"time": 1423, "pitch": 63, "duration": 4, "velocity": 59}, {"time": 1426, "pitch": 58, "duration": 3, "velocity": 49}, {"time": 1429, "pitch": 63, "duration": 2, "velocity": 56}, {"time": 1432, "pitch": 66, "duration": 5, "velocity": 59}, {"time": 1438, "pitch": 63, "duration": 3, "velocity": 60}, {"time": 1441, "pitch": 58, "duration": 1, "velocity": 54}, {"time": 1447, "pitch": 44, "duration": 22, "velocity": 58}, {"time": 1447, "pitch": 56, "duration": 3, "velocity": 55}, {"time": 1447, "pitch": 60, "duration": 6, "velocity": 54}, {"time": 1450, "pitch": 51, "duration": 16, "velocity": 38}, {"time": 1453, "pitch": 56, "duration": 2, "velocity": 53}, {"time": 1456, "pitch": 63, "duration": 4, "velocity": 60}, {"time": 1462, "pitch": 60, "duration": 3, "velocity": 60}, {"time": 1465, "pitch": 56, "duration": 2, "velocity": 58}, {"time": 1471, "pitch": 49, "duration": 11, "velocity": 60}, {"time": 1471, "pitch": 56, "duration": 1, "velocity": 57}, {"time": 1471, "pitch": 61, "duration": 3, "velocity": 58}, {"time": 1474, "pitch": 56, "duration": 4, "velocity": 58}, {"time": 1477, "pitch": 61, "duration": 2, "velocity": 54}, {"time": 1480, "pitch": 56, "duration": 2, "velocity": 58}, {"time": 1480, "pitch": 61, "duration": 2, "velocity": 59}, {"time": 1480, "pitch": 65, "duration": 3, "velocity": 62}, {"time": 1486, "pitch": 48, "duration": 7, "velocity": 60}, {"time": 1486, "pitch": 60, "duration": 6, "velocity": 56}, {"time": 1486, "pitch": 63, "duration": 6, "velocity": 58}, {"time": 1495, "pitch": 46, "duration": 17, "velocity": 58}, {"time": 1495, "pitch": 58, "duration": 3, "velocity": 58}, {"time": 1495, "pitch": 61, "duration": 6, "velocity": 58}, {"time": 1498, "pitch": 53, "duration": 7, "velocity": 47}, {"time": 1501, "pitch": 58, "duration": 1, "velocity": 51}, {"time": 1504, "pitch": 58, "duration": 3, "velocity": 57}, {"time": 1504, "pitch": 65, "duration": 4, "velocity": 60}, {"time": 1507, "pitch": 53, "duration": 4, "velocity": 53}, {"time": 1510, "pitch": 58, "duration": 2, "velocity": 58}, {"time": 1510, "pitch": 61, "duration": 3, "velocity": 58}, {"time": 1513, "pitch": 58, "duration": 4, "velocity": 51}, {"time": 1516, "pitch": 61, "duration": 2, "velocity": 52}, {"time": 1519, "pitch": 39, "duration": 14, "velocity": 62}, {"time": 1519, "pitch": 63, "duration": 3, "velocity": 54}, {"time": 1522, "pitch": 46, "duration": 11, "velocity": 43}, {"time": 1525, "pitch": 58, "duration": 1, "velocity": 59}, {"time": 1528, "pitch": 58, "duration": 2, "velocity": 57}, {"time": 1528, "pitch": 67, "duration": 3, "velocity": 55}, {"time": 1534, "pitch": 58, "duration": 2, "velocity": 55}, {"time": 1534, "pitch": 63, "duration": 2, "velocity": 58}, {"time": 1543, "pitch": 39, "duration": 17, "velocity": 61}, {"time": 1543, "pitch": 66, "duration": 6, "velocity": 57}, {"time": 1546, "pitch": 46, "duration": 13, "velocity": 43}, {"time": 1549, "pitch": 58, "duration": 3, "velocity": 58}, {"time": 1552, "pitch": 63, "duration": 2, "velocity": 58}, {"time": 1558, "pitch": 58, "duration": 1, "velocity": 59}, {"time": 1558, "pitch": 66, "duration": 3, "velocity": 59}, {"time": 1561, "pitch": 63, "duration": 2, "velocity": 59}, {"time": 1564, "pitch": 58, "duration": 1, "velocity": 50}, {"time": 1567, "pitch": 44, "duration": 19, "velocity": 57}, {"time": 1567, "pitch": 63, "duration": 5, "velocity": 58}, {"time": 1570, "pitch": 51, "duration": 7, "velocity": 51}, {"time": 1573, "pitch": 56, "duration": 1, "velocity": 57}, {"time": 1576, "pitch": 56, "duration": 3, "velocity": 57}, {"time": 1576, "pitch": 63, "duration": 3, "velocity": 59}, {"time": 1579, "pitch": 51, "duration": 4, "velocity": 55}, {"time": 1582, "pitch": 56, "duration": 3, "velocity": 61}, {"time": 1582, "pitch": 60, "duration": 5, "velocity": 60}, {"time": 1585, "pitch": 51, "duration": 4, "velocity": 58}, {"time": 1588, "pitch": 56, "duration": 2, "velocity": 61}, {"time": 1591, "pitch": 37, "duration": 1, "velocity": 59}, {"time": 1591, "pitch": 56, "duration": 2, "velocity": 57}, {"time": 1591, "pitch": 65, "duration": 6, "velocity": 58}, {"time": 1594, "pitch": 56, "duration": 4, "velocity": 58}, {"time": 1597, "pitch": 61, "duration": 2, "velocity": 44}, {"time": 1600, "pitch": 65, "duration": 6, "velocity": 62}, {"time": 1603, "pitch": 49, "duration": 10, "velocity": 49}, {"time": 1606, "pitch": 61, "duration": 3, "velocity": 53}, {"time": 1609, "pitch": 56, "duration": 4, "velocity": 58}, {"time": 1612, "pitch": 61, "duration": 3, "velocity": 55}, {"time": 1615, "pitch": 51, "duration": 17, "velocity": 60}, {"time": 1615, "pitch": 63, "duration": 4, "velocity": 59}, {"time": 1618, "pitch": 58, "duration": 3, "velocity": 49}, {"time": 1621, "pitch": 63, "duration": 2, "velocity": 56}, {"time": 1624, "pitch": 66, "duration": 5, "velocity": 59}, {"time": 1630, "pitch": 63, "duration": 3, "velocity": 60}, {"time": 1633, "pitch": 58, "duration": 1, "velocity": 54}, {"time": 1639, "pitch": 44, "duration": 22, "velocity": 58}, {"time": 1639, "pitch": 56, "duration": 3, "velocity": 55}, {"time": 1639, "pitch": 60, "duration": 6, "velocity": 54}, {"time": 1642, "pitch": 51, "duration": 16, "velocity": 38}, {"time": 1645, "pitch": 56, "duration": 2, "velocity": 53}, {"time": 1648, "pitch": 63, "duration": 4, "velocity": 60}, {"time": 1654, "pitch": 60, "duration": 3, "velocity": 60}, {"time": 1657, "pitch": 56, "duration": 2, "velocity": 58}, {"time": 1663, "pitch": 49, "duration": 11, "velocity": 60}, {"time": 1663, "pitch": 56, "duration": 1, "velocity": 57}, {"time": 1663, "pitch": 61, "duration": 3, "velocity": 58}, {"time": 1666, "pitch": 56, "duration": 4, "velocity": 58}, {"time": 1669, "pitch": 61, "duration": 2, "velocity": 54}, {"time": 1672, "pitch": 56, "duration": 2, "velocity": 58}, {"time": 1672, "pitch": 61, "duration": 2, "velocity": 59}, {"time": 1672, "pitch": 65, "duration": 3, "velocity": 62}, {"time": 1678, "pitch": 48, "duration": 7, "velocity": 60}, {"time": 1678, "pitch": 60, "duration": 6, "velocity": 56}, {"time": 1678, "pitch": 63, "duration": 6, "velocity": 58}, {"time": 1687, "pitch": 46, "duration": 17, "velocity": 58}, {"time": 1687, "pitch": 58, "duration": 3, "velocity": 58}, {"time": 1687, "pitch": 61, "duration": 6, "velocity": 58}, {"time": 1690, "pitch": 53, "duration": 7, "velocity": 47}, {"time": 1693, "pitch": 58, "duration": 1, "velocity": 51}, {"time": 1696, "pitch": 58, "duration": 3, "velocity": 57}, {"time": 1696, "pitch": 65, "duration": 4, "velocity": 60}, {"time": 1699, "pitch": 53, "duration": 4, "velocity": 53}, {"time": 1702, "pitch": 58, "duration": 2, "velocity": 58}, {"time": 1702, "pitch": 61, "duration": 3, "velocity": 58}, {"time": 1705, "pitch": 58, "duration": 4, "velocity": 51}, {"time": 1708, "pitch": 61, "duration": 2, "velocity": 52}, {"time": 1711, "pitch": 39, "duration": 14, "velocity": 62}, {"time": 1711, "pitch": 63, "duration": 3, "velocity": 54}, {"time": 1714, "pitch": 46, "duration": 11, "velocity": 43}, {"time": 1717, "pitch": 58, "duration": 1, "velocity": 59}, {"time": 1720, "pitch": 58, "duration": 2, "velocity": 57}, {"time": 1720, "pitch": 67, "duration": 3, "velocity": 55}, {"time": 1726, "pitch": 58, "duration": 2, "velocity": 55}, {"time": 1726, "pitch": 63, "duration": 2, "velocity": 58}, {"time": 1735, "pitch": 39, "duration": 13, "velocity": 60}, {"time": 1735, "pitch": 58, "duration": 3, "velocity": 56}, {"time": 1735, "pitch": 66, "duration": 7, "velocity": 53}, {"time": 1738, "pitch": 46, "duration": 9, "velocity": 49}, {"time": 1741, "pitch": 58, "duration": 4, "velocity": 54}, {"time": 1744, "pitch": 63, "duration": 3, "velocity": 60}, {"time": 1750, "pitch": 58, "duration": 1, "velocity": 59}, {"time": 1750, "pitch": 66, "duration": 3, "velocity": 58}, {"time": 1753, "pitch": 63, "duration": 3, "velocity": 52}, {"time": 1756, "pitch": 58, "duration": 5, "velocity": 54}, {"time": 1759, "pitch": 44, "duration": 18, "velocity": 59}, {"time": 1762, "pitch": 51, "duration": 8, "velocity": 53}, {"time": 1765, "pitch": 56, "duration": 2, "velocity": 61}, {"time": 1768, "pitch": 56, "duration": 4, "velocity": 52}, {"time": 1768, "pitch": 63, "duration": 4, "velocity": 58}, {"time": 1771, "pitch": 51, "duration": 5, "velocity": 54}, {"time": 1774, "pitch": 56, "duration": 4, "velocity": 59}, {"time": 1774, "pitch": 63, "duration": 5, "velocity": 58}, {"time": 1783, "pitch": 37, "duration": 1, "velocity": 59}, {"time": 1783, "pitch": 56, "duration": 2, "velocity": 57}, {"time": 1783, "pitch": 65, "duration": 6, "velocity": 58}, {"time": 1786, "pitch": 56, "duration": 4, "velocity": 58}, {"time": 1789, "pitch": 61, "duration": 2, "velocity": 44}, {"time": 1792, "pitch": 65, "duration": 6, "velocity": 62}, {"time": 1795, "pitch": 49, "duration": 10, "velocity": 49}, {"time": 1798, "pitch": 61, "duration": 3, "velocity": 53}, {"time": 1801, "pitch": 56, "duration": 4, "velocity": 58}, {"time": 1804, "pitch": 61, "duration": 3, "velocity": 55}, {"time": 1807, "pitch": 51, "duration": 17, "velocity": 60}, {"time": 1807, "pitch": 63, "duration": 4, "velocity": 59}, {"time": 1810, "pitch": 58, "duration": 3, "velocity": 49}, {"time": 1813, "pitch": 63, "duration": 2, "velocity": 56}, {"time": 1816, "pitch": 66, "duration": 5, "velocity": 59}, {"time": 1822, "pitch": 63, "duration": 3, "velocity": 60}, {"time": 1825, "pitch": 58, "duration": 1, "velocity": 54}, {"time": 1831, "pitch": 44, "duration": 22, "velocity": 58}, {"time": 1831, "pitch": 56, "duration": 3, "velocity": 55}, {"time": 1831, "pitch": 60, "duration": 6, "velocity": 54}, {"time": 1834, "pitch": 51, "duration": 16, "velocity": 38}, {"time": 1837, "pitch": 56, "duration": 2, "velocity": 53}, {"time": 1840, "pitch": 63, "duration": 4, "velocity": 60}, {"time": 1846, "pitch": 60, "duration": 3, "velocity": 60}, {"time": 1849, "pitch": 56, "duration": 2, "velocity": 58}, {"time": 1855, "pitch": 49, "duration": 11, "velocity": 60}, {"time": 1855, "pitch": 56, "duration": 1, "velocity": 57}, {"time": 1855, "pitch": 61, "duration": 3, "velocity": 58}, {"time": 1858, "pitch": 56, "duration": 4, "velocity": 58}, {"time": 1861, "pitch": 61, "duration": 2, "velocity": 54}, {"time": 1864, "pitch": 56, "duration": 2, "velocity": 58}, {"time": 1864, "pitch": 61, "duration": 2, "velocity": 59}, {"time": 1864, "pitch": 65, "duration": 3, "velocity": 62}, {"time": 1870, "pitch": 48, "duration": 7, "velocity": 60}, {"time": 1870, "pitch": 60, "duration": 6, "velocity": 56}, {"time": 1870, "pitch": 63, "duration": 6, "velocity": 58}, {"time": 1879, "pitch": 46, "duration": 17, "velocity": 58}, {"time": 1879, "pitch": 58, "duration": 3, "velocity": 58}, {"time": 1879, "pitch": 61, "duration": 6, "velocity": 58}, {"time": 1882, "pitch": 53, "duration": 7, "velocity": 47}, {"time": 1885, "pitch": 58, "duration": 1, "velocity": 51}, {"time": 1888, "pitch": 58, "duration": 3, "velocity": 57}, {"time": 1888, "pitch": 65, "duration": 4, "velocity": 60}, {"time": 1891, "pitch": 53, "duration": 4, "velocity": 53}, {"time": 1894, "pitch": 58, "duration": 2, "velocity": 58}, {"time": 1894, "pitch": 61, "duration": 3, "velocity": 58}, {"time": 1897, "pitch": 58, "duration": 4, "velocity": 51}, {"time": 1900, "pitch": 61, "duration": 2, "velocity": 52}, {"time": 1903, "pitch": 39, "duration": 14, "velocity": 62}, {"time": 1903, "pitch": 63, "duration": 3, "velocity": 54}, {"time": 1906, "pitch": 46, "duration": 11, "velocity": 43}, {"time": 1909, "pitch": 58, "duration": 1, "velocity": 59}, {"time": 1912, "pitch": 58, "duration": 2, "velocity": 57}, {"time": 1912, "pitch": 67, "duration": 3, "velocity": 55}, {"time": 1918, "pitch": 58, "duration": 2, "velocity": 55}, {"time": 1918, "pitch": 63, "duration": 2, "velocity": 58}, {"time": 1927, "pitch": 39, "duration": 17, "velocity": 61}, {"time": 1927, "pitch": 66, "duration": 6, "velocity": 57}, {"time": 1930, "pitch": 46, "duration": 13, "velocity": 43}, {"time": 1933, "pitch": 58, "duration": 3, "velocity": 58}, {"time": 1936, "pitch": 63, "duration": 2, "velocity": 58}, {"time": 1942, "pitch": 58, "duration": 1, "velocity": 59}, {"time": 1942, "pitch": 66, "duration": 3, "velocity": 59}, {"time": 1945, "pitch": 63, "duration": 2, "velocity": 59}, {"time": 1948, "pitch": 58, "duration": 1, "velocity": 50}, {"time": 1951, "pitch": 44, "duration": 19, "velocity": 57}, {"time": 1951, "pitch": 63, "duration": 5, "velocity": 58}, {"time": 1954, "pitch": 51, "duration": 7, "velocity": 51}, {"time": 1957, "pitch": 56, "duration": 1, "velocity": 57}, {"time": 1960, "pitch": 56, "duration": 3, "velocity": 57}, {"time": 1960, "pitch": 63, "duration": 3, "velocity": 59}, {"time": 1963, "pitch": 51, "duration": 4, "velocity": 55}, {"time": 1966, "pitch": 56, "duration": 3, "velocity": 61}, {"time": 1966, "pitch": 60, "duration": 5, "velocity": 60}, {"time": 1969, "pitch": 51, "duration": 4, "velocity": 58}, {"time": 1972, "pitch": 56, "duration": 2, "velocity": 61}, {"time": 1975, "pitch": 37, "duration": 1, "velocity": 59}, {"time": 1975, "pitch": 56, "duration": 2, "velocity": 57}, {"time": 1975, "pitch": 65, "duration": 6, "velocity": 58}, {"time": 1978, "pitch": 56, "duration": 4, "velocity": 58}, {"time": 1981, "pitch": 61, "duration": 2, "velocity": 44}, {"time": 1984, "pitch": 65, "duration": 6, "velocity": 62}, {"time": 1987, "pitch": 49, "duration": 10, "velocity": 49}, {"time": 1990, "pitch": 61, "duration": 3, "velocity": 53}, {"time": 1993, "pitch": 56, "duration": 4, "velocity": 58}, {"time": 1996, "pitch": 61, "duration": 3, "velocity": 55}, {"time": 1999, "pitch": 51, "duration": 17, "velocity": 60}, {"time": 1999, "pitch": 63, "duration": 4, "velocity": 59}, {"time": 2002, "pitch": 58, "duration": 3, "velocity": 49}, {"time": 2005, "pitch": 63, "duration": 2, "velocity": 56}, {"time": 2008, "pitch": 66, "duration": 5, "velocity": 59}, {"time": 2014, "pitch": 63, "duration": 3, "velocity": 60}, {"time": 2017, "pitch": 58, "duration": 1, "velocity": 54}, {"time": 2023, "pitch": 44, "duration": 22, "velocity": 58}, {"time": 2023, "pitch": 56, "duration": 3, "velocity": 55}, {"time": 2023, "pitch": 60, "duration": 6, "velocity": 54}, {"time": 2026, "pitch": 51, "duration": 16, "velocity": 38}, {"time": 2029, "pitch": 56, "duration": 2, "velocity": 53}, {"time": 2032, "pitch": 63, "duration": 4, "velocity": 60}, {"time": 2038, "pitch": 60, "duration": 3, "velocity": 60}, {"time": 2041, "pitch": 56, "duration": 2, "velocity": 58}, {"time": 2047, "pitch": 49, "duration": 11, "velocity": 60}, {"time": 2047, "pitch": 56, "duration": 1, "velocity": 57}, {"time": 2047, "pitch": 61, "duration": 3, "velocity": 58}, {"time": 2050, "pitch": 56, "duration": 4, "velocity": 58}, {"time": 2053, "pitch": 61, "duration": 2, "velocity": 54}, {"time": 2056, "pitch": 56, "duration": 2, "velocity": 58}, {"time": 2056, "pitch": 61, "duration": 2, "velocity": 59}, {"time": 2056, "pitch": 65, "duration": 3, "velocity": 62}, {"time": 2062, "pitch": 48, "duration": 7, "velocity": 60}, {"time": 2062, "pitch": 60, "duration": 6, "velocity": 56}, {"time": 2062, "pitch": 63, "duration": 6, "velocity": 58}, {"time": 2071, "pitch": 46, "duration": 17, "velocity": 58}, {"time": 2071, "pitch": 58, "duration": 3, "velocity": 58}, {"time": 2071, "pitch": 61, "duration": 6, "velocity": 58}, {"time": 2074, "pitch": 53, "duration": 7, "velocity": 47}, {"time": 2077, "pitch": 58, "duration": 1, "velocity": 51}, {"time": 2080, "pitch": 58, "duration": 3, "velocity": 57}, {"time": 2080, "pitch": 65, "duration": 4, "velocity": 60}, {"time": 2083, "pitch": 53, "duration": 4, "velocity": 53}, {"time": 2086, "pitch": 58, "duration": 2, "velocity": 58}, {"time": 2086, "pitch": 61, "duration": 3, "velocity": 58}, {"time": 2089, "pitch": 58, "duration": 4, "velocity": 51}, {"time": 2092, "pitch": 61, "duration": 2, "velocity": 52}, {"time": 2095, "pitch": 39, "duration": 14, "velocity": 62}, {"time": 2095, "pitch": 63, "duration": 3, "velocity": 54}, {"time": 2098, "pitch": 46, "duration": 11, "velocity": 43}, {"time": 2101, "pitch": 58, "duration": 1, "velocity": 59}, {"time": 2104, "pitch": 58, "duration": 2, "velocity": 57}, {"time": 2104, "pitch": 67, "duration": 3, "velocity": 55}, {"time": 2110, "pitch": 58, "duration": 2, "velocity": 55}, {"time": 2110, "pitch": 63, "duration": 2, "velocity": 58}, {"time": 2119, "pitch": 39, "duration": 13, "velocity": 60}, {"time": 2119, "pitch": 58, "duration": 3, "velocity": 56}, {"time": 2119, "pitch": 66, "duration": 7, "velocity": 53}, {"time": 2122, "pitch": 46, "duration": 9, "velocity": 49}, {"time": 2125, "pitch": 58, "duration": 4, "velocity": 54}, {"time": 2128, "pitch": 63, "duration": 3, "velocity": 60}, {"time": 2134, "pitch": 58, "duration": 1, "velocity": 59}, {"time": 2134, "pitch": 66, "duration": 3, "velocity": 58}, {"time": 2137, "pitch": 63, "duration": 3, "velocity": 52}, {"time": 2140, "pitch": 58, "duration": 5, "velocity": 54}, {"time": 2143, "pitch": 44, "duration": 18, "velocity": 59}, {"time": 2146, "pitch": 51, "duration": 8, "velocity": 53}, {"time": 2149, "pitch": 56, "duration": 2, "velocity": 61}, {"time": 2152, "pitch": 56, "duration": 4, "velocity": 52}, {"time": 2152, "pitch": 63, "duration": 4, "velocity": 58}, {"time": 2155, "pitch": 51, "duration": 5, "velocity": 54}, {"time": 2158, "pitch": 56, "duration": 4, "velocity": 59}, {"time": 2158, "pitch": 63, "duration": 5, "velocity": 58}, {"time": 2165, "pitch": 56, "duration": 16, "velocity": 38}, {"time": 2166, "pitch": 60, "duration": 16, "velocity": 47}, {"time": 2167, "pitch": 44, "duration": 15, "velocity": 58}, {"time": 2167, "pitch": 63, "duration": 14, "velocity": 52}, {"time": 2167, "pitch": 68, "duration": 15, "velocity": 46}, {"time": 2187, "pitch": 42, "duration": 23, "velocity": 58}, {"time": 2190, "pitch": 49, "duration": 20, "velocity": 46}, {"time": 2193, "pitch": 54, "duration": 9, "velocity": 54}, {"time": 2196, "pitch": 61, "duration": 9, "velocity": 52}, {"time": 2202, "pitch": 66, "duration": 5, "velocity": 55}, {"time": 2205, "pitch": 54, "duration": 4, "velocity": 44}, {"time": 2211, "pitch": 42, "duration": 15, "velocity": 39}, {"time": 2211, "pitch": 54, "duration": 12, "velocity": 44}, {"time": 2211, "pitch": 61, "duration": 12, "velocity": 43}, {"time": 2235, "pitch": 49, "duration": 38, "velocity": 54}, {"time": 2235, "pitch": 56, "duration": 2, "velocity": 43}, {"time": 2235, "pitch": 61, "duration": 5, "velocity": 52}, {"time": 2238, "pitch": 56, "duration": 5, "velocity": 53}, {"time": 2241, "pitch": 61, "duration": 2, "velocity": 50}, {"time": 2244, "pitch": 65, "duration": 4, "velocity": 55}, {"time": 2250, "pitch": 61, "duration": 5, "velocity": 46}, {"time": 2253, "pitch": 56, "duration": 3, "velocity": 38}, {"time": 2259, "pitch": 65, "duration": 6, "velocity": 49}, {"time": 2271, "pitch": 56, "duration": 2, "velocity": 49}, {"time": 2271, "pitch": 61, "duration": 3, "velocity": 52}, {"time": 2283, "pitch": 42, "duration": 23, "velocity": 56}, {"time": 2283, "pitch": 54, "duration": 4, "velocity": 46}, {"time": 2283, "pitch": 61, "duration": 6, "velocity": 53}, {"time": 2286, "pitch": 49, "duration": 20, "velocity": 47}, {"time": 2289, "pitch": 54, "duration": 4, "velocity": 42}, {"time": 2292, "pitch": 61, "duration": 10, "velocity": 50}, {"time": 2298, "pitch": 66, "duration": 4, "velocity": 58}, {"time": 2301, "pitch": 54, "duration": 4, "velocity": 51}, {"time": 2307, "pitch": 54, "duration": 6, "velocity": 46}, {"time": 2307, "pitch": 61, "duration": 7, "velocity": 45}, {"time": 2313, "pitch": 42, "duration": 8, "velocity": 21}, {"time": 2319, "pitch": 54, "duration": 3, "velocity": 47}, {"time": 2319, "pitch": 58, "duration": 4, "velocity": 49}, {"time": 2331, "pitch": 49, "duration": 21, "velocity": 54}, {"time": 2331, "pitch": 56, "duration": 3, "velocity": 46}, {"time": 2331, "pitch": 61, "duration": 5, "velocity": 53}, {"time": 2334, "pitch": 56, "duration": 4, "velocity": 50}, {"time": 2337, "pitch": 63, "duration": 3, "velocity": 52}, {"time": 2340, "pitch": 56, "duration": 4, "velocity": 46}, {"time": 2346, "pitch": 65, "duration": 3, "velocity": 52}, {"time": 2349, "pitch": 56, "duration": 3, "velocity": 45}, {"time": 2355, "pitch": 37, "duration": 29, "velocity": 53}, {"time": 2358, "pitch": 44, "duration": 25, "velocity": 40}, {"time": 2362, "pitch": 51, "duration": 5, "velocity": 47}, {"time": 2366, "pitch": 53, "duration": 5, "velocity": 45}, {"time": 2372, "pitch": 49, "duration": 11, "velocity": 39}, {"time": 2373, "pitch": 56, "duration": 11, "velocity": 37}], "annotations": [{"time": 33, "annotation": {"number": 64, "value": 127}, "group": "control_change"}, {"time": 77, "annotation": {"number": 64, "value": 0}, "group": "control_change"}, {"time": 80, "annotation": {"number": 64, "value": 127}, "group": "control_change"}, {"time": 125, "annotation": {"number": 64, "value": 0}, "group": "control_change"}, {"time": 130, "annotation": {"number": 64, "value": 127}, "group": "control_change"}, {"time": 173, "annotation": {"number": 64, "value": 0}, "group": "control_change"}, {"time": 175, "annotation": {"number": 64, "value": 127}, "group": "control_change"}, {"time": 220, "annotation": {"number": 64, "value": 0}, "group": "control_change"}, {"time": 224, "annotation": {"number": 64, "value": 127}, "group": "control_change"}, {"time": 270, "annotation": {"number": 64, "value": 0}, "group": "control_change"}, {"time": 272, "annotation": {"number": 64, "value": 127}, "group": "control_change"}, {"time": 317, "annotation": {"number": 64, "value": 0}, "group": "control_change"}, {"time": 322, "annotation": {"number": 64, "value": 127}, "group": "control_change"}, {"time": 342, "annotation": {"number": 64, "value": 0}, "group": "control_change"}, {"time": 344, "annotation": {"number": 64, "value": 127}, "group": "control_change"}, {"time": 365, "annotation": {"number": 64, "value": 0}, "group": "control_change"}, {"time": 368, "annotation": {"number": 64, "value": 127}, "group": "control_change"}, {"time": 412, "annotation": {"number": 64, "value": 0}, "group": "control_change"}, {"time": 415, "annotation": {"number": 64, "value": 127}, "group": "control_change"}, {"time": 463, "annotation": {"number": 64, "value": 0}, "group": "control_change"}, {"time": 465, "annotation": {"number": 64, "value": 127}, "group": "control_change"}, {"time": 509, "annotation": {"number": 64, "value": 0}, "group": "control_change"}, {"time": 511, "annotation": {"number": 64, "value": 127}, "group": "control_change"}, {"time": 558, "annotation": {"number": 64, "value": 0}, "group": "control_change"}, {"time": 561, "annotation": {"number": 64, "value": 127}, "group": "control_change"}, {"time": 604, "annotation": {"number": 64, "value": 0}, "group": "control_change"}, {"time": 630, "annotation": {"number": 64, "value": 0}, "group": "control_change"}, {"time": 631, "annotation": {"number": 64, "value": 127}, "group": "control_change"}, {"time": 654, "annotation": {"number": 64, "value": 0}, "group": "control_change"}, {"time": 656, "annotation": {"number": 64, "value": 127}, "group": "control_change"}, {"time": 677, "annotation": {"number": 64, "value": 0}, "group": "control_change"}, {"time": 679, "annotation": {"number": 64, "value": 127}, "group": "control_change"}, {"time": 692, "annotation": {"number": 64, "value": 0}, "group": "control_change"}, {"time": 694, "annotation": {"number": 64, "value": 127}, "group": "control_change"}, {"time": 702, "annotation": {"number": 64, "value": 0}, "group": "control_change"}, {"time": 704, "annotation": {"number": 64, "value": 127}, "group": "control_change"}, {"time": 725, "annotation": {"number": 64, "value": 0}, "group": "control_change"}, {"time": 727, "annotation": {"number": 64, "value": 127}, "group": "control_change"}, {"time": 749, "annotation": {"number": 64, "value": 0}, "group": "control_change"}, {"time": 751, "annotation": {"number": 64, "value": 127}, "group": "control_change"}, {"time": 774, "annotation": {"number": 64, "value": 0}, "group": "control_change"}, {"time": 776, "annotation": {"number": 64, "value": 127}, "group": "control_change"}, {"time": 796, "annotation": {"number": 64, "value": 0}, "group": "control_change"}, {"time": 822, "annotation": {"number": 64, "value": 0}, "group": "control_change"}, {"time": 823, "annotation": {"number": 64, "value": 127}, "group": "control_change"}, {"time": 846, "annotation": {"number": 64, "value": 0}, "group": "control_change"}, {"time": 848, "annotation": {"number": 64, "value": 127}, "group": "control_change"}, {"time": 869, "annotation": {"number": 64, "value": 0}, "group": "control_change"}, {"time": 871, "annotation": {"number": 64, "value": 127}, "group": "control_change"}, {"time": 884, "annotation": {"number": 64, "value": 0}, "group": "control_change"}, {"time": 886, "annotation": {"number": 64, "value": 127}, "group": "control_change"}, {"time": 894, "annotation": {"number": 64, "value": 0}, "group": "control_change"}, {"time": 896, "annotation": {"number": 64, "value": 127}, "group": "control_change"}, {"time": 917, "annotation": {"number": 64, "value": 0}, "group": "control_change"}, {"time": 919, "annotation": {"number": 64, "value": 127}, "group": "control_change"}, {"time": 941, "annotation": {"number": 64, "value": 0}, "group": "control_change"}, {"time": 943, "annotation": {"number": 64, "value": 127}, "group": "control_change"}, {"time": 965, "annotation": {"number": 64, "value": 0}, "group": "control_change"}, {"time": 968, "annotation": {"number": 64, "value": 127}, "group": "control_change"}, {"time": 989, "annotation": {"number": 64, "value": 0}, "group": "control_change"}, {"time": 1016, "annotation": {"number": 64, "value": 127}, "group": "control_change"}, {"time": 1062, "annotation": {"number": 64, "value": 0}, "group": "control_change"}, {"time": 1064, "annotation": {"number": 64, "value": 127}, "group": "control_change"}, {"time": 1109, "annotation": {"number": 64, "value": 0}, "group": "control_change"}, {"time": 1114, "annotation": {"number": 64, "value": 127}, "group": "control_change"}, {"time": 1134, "annotation": {"number": 64, "value": 0}, "group": "control_change"}, {"time": 1136, "annotation": {"number": 64, "value": 127}, "group": "control_change"}, {"time": 1157, "annotation": {"number": 64, "value": 0}, "group": "control_change"}, {"time": 1160, "annotation": {"number": 64, "value": 127}, "group": "control_change"}, {"time": 1204, "annotation": {"number": 64, "value": 0}, "group": "control_change"}, {"time": 1207, "annotation": {"number": 64, "value": 127}, "group": "control_change"}, {"time": 1255, "annotation": {"number": 64, "value": 0}, "group": "control_change"}, {"time": 1257, "annotation": {"number": 64, "value": 127}, "group": "control_change"}, {"time": 1301, "annotation": {"number": 64, "value": 0}, "group": "control_change"}, {"time": 1303, "annotation": {"number": 64, "value": 127}, "group": "control_change"}, {"time": 1350, "annotation": {"number": 64, "value": 0}, "group": "control_change"}, {"time": 1353, "annotation": {"number": 64, "value": 127}, "group": "control_change"}, {"time": 1396, "annotation": {"number": 64, "value": 0}, "group": "control_change"}, {"time": 1422, "annotation": {"number": 64, "value": 0}, "group": "control_change"}, {"time": 1423, "annotation": {"number": 64, "value": 127}, "group": "control_change"}, {"time": 1446, "annotation": {"number": 64, "value": 0}, "group": "control_change"}, {"time": 1448, "annotation": {"number": 64, "value": 127}, "group": "control_change"}, {"time": 1469, "annotation": {"number": 64, "value": 0}, "group": "control_change"}, {"time": 1471, "annotation": {"number": 64, "value": 127}, "group": "control_change"}, {"time": 1484, "annotation": {"number": 64, "value": 0}, "group": "control_change"}, {"time": 1486, "annotation": {"number": 64, "value": 127}, "group": "control_change"}, {"time": 1494, "annotation": {"number": 64, "value": 0}, "group": "control_change"}, {"time": 1496, "annotation": {"number": 64, "value": 127}, "group": "control_change"}, {"time": 1517, "annotation": {"number": 64, "value": 0}, "group": "control_change"}, {"time": 1519, "annotation": {"number": 64, "value": 127}, "group": "control_change"}, {"time": 1541, "annotation": {"number": 64, "value": 0}, "group": "control_change"}, {"time": 1543, "annotation": {"number": 64, "value": 127}, "group": "control_change"}, {"time": 1566, "annotation": {"number": 64, "value": 0}, "group": "control_change"}, {"time": 1568, "annotation": {"number": 64, "value": 127}, "group": "control_change"}, {"time": 1588, "annotation": {"number": 64, "value": 0}, "group": "control_change"}, {"time": 1614, "annotation": {"number": 64, "value": 0}, "group": "control_change"}, {"time": 1615, "annotation": {"number": 64, "value": 127}, "group": "control_change"}, {"time": 1638, "annotation": {"number": 64, "value": 0}, "group": "control_change"}, {"time": 1640, "annotation": {"number": 64, "value": 127}, "group": "control_change"}, {"time": 1661, "annotation": {"number": 64, "value": 0}, "group": "control_change"}, {"time": 1663, "annotation": {"number": 64, "value": 127}, "group": "control_change"}, {"time": 1676, "annotation": {"number": 64, "value": 0}, "group": "control_change"}, {"time": 1678, "annotation": {"number": 64, "value": 127}, "group": "control_change"}, {"time": 1686, "annotation": {"number": 64, "value": 0}, "group": "control_change"}, {"time": 1688, "annotation": {"number": 64, "value": 127}, "group": "control_change"}, {"time": 1709, "annotation": {"number": 64, "value": 0}, "group": "control_change"}, {"time": 1711, "annotation": {"number": 64, "value": 127}, "group": "control_change"}, {"time": 1733, "annotation": {"number": 64, "value": 0}, "group": "control_change"}, {"time": 1735, "annotation": {"number": 64, "value": 127}, "group": "control_change"}, {"time": 1757, "annotation": {"number": 64, "value": 0}, "group": "control_change"}, {"time": 1760, "annotation": {"number": 64, "value": 127}, "group": "control_change"}, {"time": 1806, "annotation": {"number": 64, "value": 0}, "group": "control_change"}, {"time": 1807, "annotation": {"number": 64, "value": 127}, "group": "control_change"}, {"time": 1830, "annotation": {"number": 64, "value": 0}, "group": "control_change"}, {"time": 1832, "annotation": {"number": 64, "value": 127}, "group": "control_change"}, {"time": 1853, "annotation": {"number": 64, "value": 0}, "group": "control_change"}, {"time": 1855, "annotation": {"number": 64, "value": 127}, "group": "control_change"}, {"time": 1868, "annotation": {"number": 64, "value": 0}, "group": "control_change"}, {"time": 1870, "annotation": {"number": 64, "value": 127}, "group": "control_change"}, {"time": 1878, "annotation": {"number": 64, "value": 0}, "group": "control_change"}, {"time": 1880, "annotation": {"number": 64, "value": 127}, "group": "control_change"}, {"time": 1901, "annotation": {"number": 64, "value": 0}, "group": "control_change"}, {"time": 1903, "annotation": {"number": 64, "value": 127}, "group": "control_change"}, {"time": 1925, "annotation": {"number": 64, "value": 0}, "group": "control_change"}, {"time": 1927, "annotation": {"number": 64, "value": 127}, "group": "control_change"}, {"time": 1950, "annotation": {"number": 64, "value": 0}, "group": "control_change"}, {"time": 1952, "annotation": {"number": 64, "value": 127}, "group": "control_change"}, {"time": 1972, "annotation": {"number": 64, "value": 0}, "group": "control_change"}, {"time": 1998, "annotation": {"number": 64, "value": 0}, "group": "control_change"}, {"time": 1999, "annotation": {"number": 64, "value": 127}, "group": "control_change"}, {"time": 2022, "annotation": {"number": 64, "value": 0}, "group": "control_change"}, {"time": 2024, "annotation": {"number": 64, "value": 127}, "group": "control_change"}, {"time": 2045, "annotation": {"number": 64, "value": 0}, "group": "control_change"}, {"time": 2047, "annotation": {"number": 64, "value": 127}, "group": "control_change"}, {"time": 2060, "annotation": {"number": 64, "value": 0}, "group": "control_change"}, {"time": 2062, "annotation": {"number": 64, "value": 127}, "group": "control_change"}, {"time": 2070, "annotation": {"number": 64, "value": 0}, "group": "control_change"}, {"time": 2072, "annotation": {"number": 64, "value": 127}, "group": "control_change"}, {"time": 2093, "annotation": {"number": 64, "value": 0}, "group": "control_change"}, {"time": 2095, "annotation": {"number": 64, "value": 127}, "group": "control_change"}, {"time": 2117, "annotation": {"number": 64, "value": 0}, "group": "control_change"}, {"time": 2119, "annotation": {"number": 64, "value": 127}, "group": "control_change"}, {"time": 2141, "annotation": {"number": 64, "value": 0}, "group": "control_change"}, {"time": 2144, "annotation": {"number": 64, "value": 127}, "group": "control_change"}, {"time": 2165, "annotation": {"number": 64, "value": 0}, "group": "control_change"}, {"time": 2190, "annotation": {"number": 64, "value": 127}, "group": "control_change"}, {"time": 2233, "annotation": {"number": 64, "value": 0}, "group": "control_change"}, {"time": 2236, "annotation": {"number": 64, "value": 127}, "group": "control_change"}, {"time": 2282, "annotation": {"number": 64, "value": 0}, "group": "control_change"}, {"time": 2287, "annotation": {"number": 64, "value": 127}, "group": "control_change"}, {"time": 2329, "annotation": {"number": 64, "value": 0}, "group": "control_change"}, {"time": 2332, "annotation": {"number": 64, "value": 127}, "group": "control_change"}, {"time": 2357, "annotation": {"number": 64, "value": 127}, "group": "control_change"}, {"time": 2396, "annotation": {"number": 64, "value": 0}, "group": "control_change"}]}]}