{"metadata": {"schema_version": "0.2", "title": "None", "source_filename": "819.mid", "source_format": "midi"}, "resolution": 12, "tempos": [{"time": 0, "qpm": 113.00030886751091}, {"time": 2723, "qpm": 112.50007031254394}, {"time": 2730, "qpm": 112.00005973336519}, {"time": 2735, "qpm": 111.90000615450033}, {"time": 2739, "qpm": 111.50012265013491}, {"time": 2746, "qpm": 110.8000502293561}, {"time": 2749, "qpm": 109.90017400860884}, {"time": 2754, "qpm": 109.5000410625154}, {"time": 2758, "qpm": 109.10003382101048}, {"time": 2764, "qpm": 108.000108000108}, {"time": 2769, "qpm": 107.40004188601634}, {"time": 2778, "qpm": 106.80014311219178}, {"time": 2796, "qpm": 113.00030886751091}, {"time": 3528, "qpm": 112.80018950431837}, {"time": 3539, "qpm": 112.3000357488447}, {"time": 3612, "qpm": 113.00030886751091}, {"time": 4646, "qpm": 107.40004188601634}, {"time": 4647, "qpm": 107.30016685175946}, {"time": 4649, "qpm": 107.20009433608301}, {"time": 4651, "qpm": 107.10001713600275}, {"time": 4652, "qpm": 107.0001266168165}, {"time": 4655, "qpm": 106.80014311219178}, {"time": 4657, "qpm": 106.7000519273586}, {"time": 4660, "qpm": 106.60014817420596}, {"time": 4663, "qpm": 106.50005325002662}, {"time": 4664, "qpm": 106.40014612286734}, {"time": 4666, "qpm": 106.30004960668981}, {"time": 4668, "qpm": 106.10004526935265}, {"time": 4671, "qpm": 105.90004447801869}, {"time": 4673, "qpm": 105.80014000885194}, {"time": 4674, "qpm": 105.7000514406917}, {"time": 4674, "qpm": 105.60033792108135}, {"time": 4676, "qpm": 105.50007033338022}, {"time": 4677, "qpm": 105.3001053001053}, {"time": 4679, "qpm": 105.000105000105}, {"time": 4681, "qpm": 104.80001537066892}, {"time": 4682, "qpm": 104.70016490275972}, {"time": 4683, "qpm": 104.60032216899228}, {"time": 4686, "qpm": 104.40011692813096}, {"time": 4687, "qpm": 104.20013372350495}, {"time": 4689, "qpm": 104.10015823224052}, {"time": 4691, "qpm": 104.00001386666851}, {"time": 4691, "qpm": 103.90006199370366}, {"time": 4692, "qpm": 103.70001659200265}, {"time": 4694, "qpm": 103.6001036001036}, {"time": 4696, "qpm": 103.40031950698727}, {"time": 4698, "qpm": 103.20006192003716}, {"time": 4699, "qpm": 103.10004656685436}, {"time": 4700, "qpm": 103.0000480666891}, {"time": 4701, "qpm": 102.90006688504347}, {"time": 4702, "qpm": 102.8001034854375}, {"time": 4704, "qpm": 102.70015832941075}, {"time": 4706, "qpm": 102.60005643003103}, {"time": 4707, "qpm": 102.50014947938466}, {"time": 4710, "qpm": 102.4000873814079}, {"time": 4712, "qpm": 102.30004603502071}, {"time": 4714, "qpm": 102.20002589067323}, {"time": 4715, "qpm": 102.10002739684069}, {"time": 4716, "qpm": 102.0000510000255}, {"time": 4717, "qpm": 101.90009714475927}, {"time": 4717, "qpm": 101.80016627360492}, {"time": 4718, "qpm": 101.70008644507348}, {"time": 4720, "qpm": 101.60003115734288}, {"time": 4722, "qpm": 101.50000084583334}, {"time": 4723, "qpm": 101.39999594400017}, {"time": 4725, "qpm": 101.30001688333614}, {"time": 4726, "qpm": 101.20006409337392}, {"time": 4728, "qpm": 101.10013800168838}, {"time": 4729, "qpm": 101.00006901671382}, {"time": 4729, "qpm": 100.90002825200791}, {"time": 4732, "qpm": 100.80018547234127}, {"time": 4734, "qpm": 100.70003306317753}, {"time": 4735, "qpm": 100.50032411354526}, {"time": 4736, "qpm": 100.40009437608872}, {"time": 4737, "qpm": 100.30006435920797}, {"time": 4738, "qpm": 100.20006613204364}, {"time": 4739, "qpm": 100.10010010010011}, {"time": 4740, "qpm": 100.0}, {"time": 4742, "qpm": 99.9000999000999}, {"time": 4742, "qpm": 99.80006719871191}, {"time": 4744, "qpm": 99.70006895921436}, {"time": 4744, "qpm": 99.60010557611191}, {"time": 4746, "qpm": 99.50001243750155}, {"time": 4789, "qpm": 99.30009979660029}, {"time": 4792, "qpm": 99.20011639480323}, {"time": 4794, "qpm": 99.10000677183379}, {"time": 4795, "qpm": 99.000099000099}, {"time": 4797, "qpm": 98.90006642787795}, {"time": 4798, "qpm": 98.80007311205411}, {"time": 4799, "qpm": 98.7001194271445}, {"time": 4800, "qpm": 98.60004371268604}, {"time": 4803, "qpm": 98.5000090291675}, {"time": 4807, "qpm": 98.40001574400252}, {"time": 4808, "qpm": 98.20015482891078}, {"time": 4809, "qpm": 98.10012753016579}, {"time": 4811, "qpm": 97.80014865622596}, {"time": 4813, "qpm": 97.6000156160025}, {"time": 4816, "qpm": 97.10010535361431}, {"time": 4818, "qpm": 96.90016376127676}, {"time": 4819, "qpm": 96.8001109974606}, {"time": 4822, "qpm": 96.60000193200004}, {"time": 4822, "qpm": 96.30014830222838}, {"time": 4822, "qpm": 96.40009897076828}, {"time": 4824, "qpm": 96.2000962000962}, {"time": 4826, "qpm": 96.0}, {"time": 4831, "qpm": 95.58340926904181}, {"time": 4832, "qpm": 95.50003820001528}, {"time": 4836, "qpm": 95.1802317004107}, {"time": 4841, "qpm": 94.86001033974112}, {"time": 4843, "qpm": 94.70025790036901}, {"time": 4847, "qpm": 94.60007031938561}, {"time": 4847, "qpm": 94.5000945000945}, {"time": 4850, "qpm": 94.20009985210584}, {"time": 4856, "qpm": 93.90597195028617}, {"time": 4860, "qpm": 93.70007542856072}, {"time": 4864, "qpm": 93.28633774940491}, {"time": 4866, "qpm": 93.10004530868872}, {"time": 4870, "qpm": 92.80024746732659}, {"time": 4875, "qpm": 92.51435514410653}, {"time": 4877, "qpm": 92.4000924000924}, {"time": 4882, "qpm": 92.10378868934774}, {"time": 4883, "qpm": 92.00012880018032}, {"time": 4888, "qpm": 91.80010832412782}, {"time": 4892, "qpm": 91.50009836260574}, {"time": 4895, "qpm": 91.2001021441144}, {"time": 4896, "qpm": 91.10012511083849}, {"time": 4899, "qpm": 90.80013075218828}, {"time": 4902, "qpm": 90.5000580708706}, {"time": 4907, "qpm": 90.19233515471744}, {"time": 4911, "qpm": 89.90003116534413}, {"time": 4915, "qpm": 89.6001146881468}, {"time": 4917, "qpm": 89.40012516017522}, {"time": 4920, "qpm": 89.3000660820489}, {"time": 4922, "qpm": 89.20009812010794}, {"time": 4925, "qpm": 89.00004005001803}, {"time": 4927, "qpm": 88.8000888000888}, {"time": 4929, "qpm": 88.50001327500199}, {"time": 4931, "qpm": 88.30009080192671}, {"time": 4932, "qpm": 88.10003465268029}, {"time": 4933, "qpm": 88.00002346667293}, {"time": 4935, "qpm": 87.50016406280761}, {"time": 4936, "qpm": 87.4001089588025}, {"time": 4937, "qpm": 87.3001553942766}, {"time": 4938, "qpm": 87.20004999469533}, {"time": 4938, "qpm": 87.10004746952588}, {"time": 4939, "qpm": 86.8000300906771}, {"time": 4941, "qpm": 86.6000808267421}, {"time": 4942, "qpm": 86.40005529603539}, {"time": 4944, "qpm": 86.20008476341668}], "time_signatures": [{"time": 0, "numerator": 1, "denominator": 4}], "tracks": [{"program": 4, "is_drum": false, "name": "MELODY", "notes": [{"time": 401, "pitch": 63, "duration": 5, "velocity": 84}, {"time": 407, "pitch": 66, "duration": 4, "velocity": 87}, {"time": 413, "pitch": 66, "duration": 13, "velocity": 93}, {"time": 431, "pitch": 63, "duration": 4, "velocity": 93}, {"time": 437, "pitch": 68, "duration": 8, "velocity": 93}, {"time": 449, "pitch": 66, "duration": 4, "velocity": 87}, {"time": 455, "pitch": 66, "duration": 11, "velocity": 89}, {"time": 479, "pitch": 63, "duration": 5, "velocity": 94}, {"time": 485, "pitch": 61, "duration": 11, "velocity": 91}, {"time": 497, "pitch": 59, "duration": 19, "velocity": 90}, {"time": 521, "pitch": 61, "duration": 6, "velocity": 93}, {"time": 527, "pitch": 63, "duration": 44, "velocity": 93}, {"time": 593, "pitch": 64, "duration": 3, "velocity": 86}, {"time": 599, "pitch": 64, "duration": 4, "velocity": 93}, {"time": 605, "pitch": 64, "duration": 12, "velocity": 97}, {"time": 617, "pitch": 63, "duration": 4, "velocity": 91}, {"time": 623, "pitch": 66, "duration": 15, "velocity": 95}, {"time": 641, "pitch": 66, "duration": 9, "velocity": 94}, {"time": 653, "pitch": 63, "duration": 12, "velocity": 95}, {"time": 665, "pitch": 61, "duration": 6, "velocity": 89}, {"time": 671, "pitch": 59, "duration": 10, "velocity": 91}, {"time": 689, "pitch": 59, "duration": 7, "velocity": 94}, {"time": 695, "pitch": 56, "duration": 5, "velocity": 85}, {"time": 701, "pitch": 59, "duration": 7, "velocity": 88}, {"time": 707, "pitch": 61, "duration": 7, "velocity": 86}, {"time": 713, "pitch": 63, "duration": 13, "velocity": 94}, {"time": 725, "pitch": 61, "duration": 45, "velocity": 93}, {"time": 785, "pitch": 63, "duration": 5, "velocity": 94}, {"time": 791, "pitch": 66, "duration": 4, "velocity": 87}, {"time": 797, "pitch": 66, "duration": 16, "velocity": 90}, {"time": 815, "pitch": 63, "duration": 5, "velocity": 94}, {"time": 821, "pitch": 68, "duration": 9, "velocity": 91}, {"time": 833, "pitch": 70, "duration": 5, "velocity": 87}, {"time": 839, "pitch": 68, "duration": 11, "velocity": 86}, {"time": 851, "pitch": 66, "duration": 12, "velocity": 87}, {"time": 863, "pitch": 63, "duration": 5, "velocity": 92}, {"time": 869, "pitch": 61, "duration": 12, "velocity": 88}, {"time": 881, "pitch": 59, "duration": 29, "velocity": 89}, {"time": 911, "pitch": 66, "duration": 4, "velocity": 85}, {"time": 917, "pitch": 66, "duration": 12, "velocity": 90}, {"time": 929, "pitch": 63, "duration": 32, "velocity": 89}, {"time": 977, "pitch": 68, "duration": 6, "velocity": 93}, {"time": 983, "pitch": 66, "duration": 4, "velocity": 88}, {"time": 989, "pitch": 66, "duration": 12, "velocity": 95}, {"time": 1001, "pitch": 71, "duration": 9, "velocity": 94}, {"time": 1013, "pitch": 70, "duration": 10, "velocity": 92}, {"time": 1025, "pitch": 71, "duration": 4, "velocity": 93}, {"time": 1031, "pitch": 73, "duration": 4, "velocity": 95}, {"time": 1037, "pitch": 68, "duration": 11, "velocity": 89}, {"time": 1049, "pitch": 71, "duration": 13, "velocity": 93}, {"time": 1073, "pitch": 71, "duration": 3, "velocity": 92}, {"time": 1079, "pitch": 71, "duration": 3, "velocity": 93}, {"time": 1085, "pitch": 71, "duration": 5, "velocity": 94}, {"time": 1091, "pitch": 68, "duration": 5, "velocity": 95}, {"time": 1097, "pitch": 71, "duration": 13, "velocity": 95}, {"time": 1109, "pitch": 73, "duration": 47, "velocity": 94}, {"time": 1217, "pitch": 75, "duration": 5, "velocity": 95}, {"time": 1223, "pitch": 78, "duration": 4, "velocity": 93}, {"time": 1229, "pitch": 78, "duration": 10, "velocity": 94}, {"time": 1241, "pitch": 75, "duration": 3, "velocity": 94}, {"time": 1247, "pitch": 75, "duration": 5, "velocity": 89}, {"time": 1253, "pitch": 73, "duration": 9, "velocity": 95}, {"time": 1265, "pitch": 73, "duration": 3, "velocity": 95}, {"time": 1271, "pitch": 73, "duration": 4, "velocity": 88}, {"time": 1277, "pitch": 75, "duration": 11, "velocity": 95}, {"time": 1289, "pitch": 73, "duration": 7, "velocity": 96}, {"time": 1295, "pitch": 71, "duration": 13, "velocity": 92}, {"time": 1313, "pitch": 71, "duration": 6, "velocity": 89}, {"time": 1319, "pitch": 68, "duration": 7, "velocity": 93}, {"time": 1325, "pitch": 71, "duration": 9, "velocity": 94}, {"time": 1337, "pitch": 73, "duration": 6, "velocity": 94}, {"time": 1343, "pitch": 71, "duration": 4, "velocity": 90}, {"time": 1349, "pitch": 71, "duration": 12, "velocity": 91}, {"time": 1361, "pitch": 66, "duration": 33, "velocity": 88}, {"time": 1409, "pitch": 68, "duration": 5, "velocity": 94}, {"time": 1415, "pitch": 71, "duration": 4, "velocity": 91}, {"time": 1421, "pitch": 71, "duration": 12, "velocity": 93}, {"time": 1433, "pitch": 66, "duration": 6, "velocity": 88}, {"time": 1439, "pitch": 75, "duration": 9, "velocity": 94}, {"time": 1451, "pitch": 75, "duration": 9, "velocity": 96}, {"time": 1463, "pitch": 75, "duration": 6, "velocity": 94}, {"time": 1469, "pitch": 75, "duration": 1, "velocity": 93}, {"time": 1481, "pitch": 73, "duration": 5, "velocity": 94}, {"time": 1487, "pitch": 71, "duration": 14, "velocity": 82}, {"time": 1505, "pitch": 71, "duration": 6, "velocity": 93}, {"time": 1511, "pitch": 68, "duration": 5, "velocity": 94}, {"time": 1517, "pitch": 71, "duration": 6, "velocity": 94}, {"time": 1523, "pitch": 73, "duration": 7, "velocity": 95}, {"time": 1529, "pitch": 75, "duration": 12, "velocity": 98}, {"time": 1541, "pitch": 73, "duration": 43, "velocity": 95}, {"time": 1601, "pitch": 75, "duration": 5, "velocity": 95}, {"time": 1607, "pitch": 78, "duration": 4, "velocity": 93}, {"time": 1613, "pitch": 78, "duration": 10, "velocity": 94}, {"time": 1625, "pitch": 75, "duration": 3, "velocity": 94}, {"time": 1631, "pitch": 75, "duration": 5, "velocity": 89}, {"time": 1637, "pitch": 73, "duration": 9, "velocity": 95}, {"time": 1649, "pitch": 73, "duration": 3, "velocity": 95}, {"time": 1655, "pitch": 73, "duration": 4, "velocity": 88}, {"time": 1661, "pitch": 75, "duration": 11, "velocity": 95}, {"time": 1673, "pitch": 73, "duration": 7, "velocity": 96}, {"time": 1679, "pitch": 71, "duration": 13, "velocity": 92}, {"time": 1697, "pitch": 71, "duration": 6, "velocity": 89}, {"time": 1703, "pitch": 68, "duration": 7, "velocity": 93}, {"time": 1709, "pitch": 71, "duration": 9, "velocity": 94}, {"time": 1721, "pitch": 73, "duration": 6, "velocity": 94}, {"time": 1727, "pitch": 71, "duration": 4, "velocity": 90}, {"time": 1733, "pitch": 71, "duration": 12, "velocity": 91}, {"time": 1745, "pitch": 66, "duration": 33, "velocity": 88}, {"time": 1793, "pitch": 68, "duration": 5, "velocity": 94}, {"time": 1799, "pitch": 71, "duration": 4, "velocity": 91}, {"time": 1805, "pitch": 71, "duration": 12, "velocity": 93}, {"time": 1817, "pitch": 66, "duration": 6, "velocity": 88}, {"time": 1823, "pitch": 75, "duration": 9, "velocity": 94}, {"time": 1835, "pitch": 78, "duration": 9, "velocity": 96}, {"time": 1847, "pitch": 78, "duration": 6, "velocity": 94}, {"time": 1853, "pitch": 75, "duration": 9, "velocity": 93}, {"time": 1865, "pitch": 73, "duration": 5, "velocity": 94}, {"time": 1871, "pitch": 71, "duration": 14, "velocity": 82}, {"time": 1889, "pitch": 71, "duration": 6, "velocity": 93}, {"time": 1895, "pitch": 68, "duration": 5, "velocity": 94}, {"time": 1901, "pitch": 71, "duration": 6, "velocity": 94}, {"time": 1907, "pitch": 73, "duration": 7, "velocity": 95}, {"time": 1913, "pitch": 75, "duration": 12, "velocity": 98}, {"time": 1925, "pitch": 71, "duration": 43, "velocity": 95}, {"time": 2801, "pitch": 63, "duration": 5, "velocity": 84}, {"time": 2807, "pitch": 66, "duration": 4, "velocity": 87}, {"time": 2813, "pitch": 66, "duration": 13, "velocity": 93}, {"time": 2831, "pitch": 63, "duration": 4, "velocity": 93}, {"time": 2837, "pitch": 68, "duration": 8, "velocity": 93}, {"time": 2849, "pitch": 66, "duration": 4, "velocity": 87}, {"time": 2855, "pitch": 66, "duration": 11, "velocity": 89}, {"time": 2879, "pitch": 63, "duration": 5, "velocity": 94}, {"time": 2885, "pitch": 61, "duration": 11, "velocity": 91}, {"time": 2897, "pitch": 59, "duration": 19, "velocity": 90}, {"time": 2921, "pitch": 61, "duration": 6, "velocity": 93}, {"time": 2927, "pitch": 63, "duration": 44, "velocity": 93}, {"time": 2993, "pitch": 64, "duration": 3, "velocity": 86}, {"time": 2999, "pitch": 64, "duration": 4, "velocity": 93}, {"time": 3005, "pitch": 64, "duration": 12, "velocity": 97}, {"time": 3017, "pitch": 63, "duration": 4, "velocity": 91}, {"time": 3023, "pitch": 66, "duration": 15, "velocity": 95}, {"time": 3041, "pitch": 66, "duration": 9, "velocity": 94}, {"time": 3053, "pitch": 63, "duration": 12, "velocity": 95}, {"time": 3065, "pitch": 61, "duration": 6, "velocity": 89}, {"time": 3071, "pitch": 59, "duration": 10, "velocity": 91}, {"time": 3089, "pitch": 59, "duration": 7, "velocity": 94}, {"time": 3095, "pitch": 56, "duration": 5, "velocity": 85}, {"time": 3101, "pitch": 59, "duration": 7, "velocity": 88}, {"time": 3107, "pitch": 61, "duration": 7, "velocity": 86}, {"time": 3113, "pitch": 63, "duration": 13, "velocity": 94}, {"time": 3125, "pitch": 61, "duration": 45, "velocity": 93}, {"time": 3185, "pitch": 63, "duration": 5, "velocity": 94}, {"time": 3191, "pitch": 66, "duration": 4, "velocity": 87}, {"time": 3197, "pitch": 66, "duration": 16, "velocity": 90}, {"time": 3215, "pitch": 63, "duration": 5, "velocity": 94}, {"time": 3221, "pitch": 68, "duration": 9, "velocity": 91}, {"time": 3233, "pitch": 70, "duration": 5, "velocity": 87}, {"time": 3239, "pitch": 68, "duration": 11, "velocity": 86}, {"time": 3251, "pitch": 66, "duration": 12, "velocity": 87}, {"time": 3263, "pitch": 63, "duration": 5, "velocity": 92}, {"time": 3269, "pitch": 61, "duration": 12, "velocity": 88}, {"time": 3281, "pitch": 59, "duration": 29, "velocity": 89}, {"time": 3311, "pitch": 66, "duration": 4, "velocity": 85}, {"time": 3317, "pitch": 66, "duration": 12, "velocity": 90}, {"time": 3329, "pitch": 63, "duration": 32, "velocity": 89}, {"time": 3377, "pitch": 68, "duration": 6, "velocity": 93}, {"time": 3383, "pitch": 66, "duration": 4, "velocity": 88}, {"time": 3389, "pitch": 66, "duration": 12, "velocity": 95}, {"time": 3401, "pitch": 71, "duration": 9, "velocity": 94}, {"time": 3413, "pitch": 70, "duration": 10, "velocity": 92}, {"time": 3425, "pitch": 71, "duration": 4, "velocity": 93}, {"time": 3431, "pitch": 73, "duration": 4, "velocity": 95}, {"time": 3437, "pitch": 68, "duration": 11, "velocity": 89}, {"time": 3449, "pitch": 71, "duration": 13, "velocity": 93}, {"time": 3473, "pitch": 71, "duration": 3, "velocity": 92}, {"time": 3479, "pitch": 71, "duration": 3, "velocity": 93}, {"time": 3485, "pitch": 71, "duration": 5, "velocity": 94}, {"time": 3491, "pitch": 68, "duration": 5, "velocity": 95}, {"time": 3497, "pitch": 71, "duration": 13, "velocity": 95}, {"time": 3509, "pitch": 73, "duration": 47, "velocity": 94}, {"time": 3617, "pitch": 75, "duration": 5, "velocity": 95}, {"time": 3623, "pitch": 78, "duration": 4, "velocity": 93}, {"time": 3629, "pitch": 78, "duration": 10, "velocity": 94}, {"time": 3641, "pitch": 75, "duration": 3, "velocity": 94}, {"time": 3647, "pitch": 75, "duration": 5, "velocity": 89}, {"time": 3653, "pitch": 73, "duration": 9, "velocity": 95}, {"time": 3665, "pitch": 73, "duration": 3, "velocity": 95}, {"time": 3671, "pitch": 73, "duration": 4, "velocity": 88}, {"time": 3677, "pitch": 75, "duration": 11, "velocity": 95}, {"time": 3689, "pitch": 73, "duration": 7, "velocity": 96}, {"time": 3695, "pitch": 71, "duration": 13, "velocity": 92}, {"time": 3713, "pitch": 71, "duration": 6, "velocity": 89}, {"time": 3719, "pitch": 68, "duration": 7, "velocity": 93}, {"time": 3725, "pitch": 71, "duration": 9, "velocity": 94}, {"time": 3737, "pitch": 73, "duration": 6, "velocity": 94}, {"time": 3743, "pitch": 71, "duration": 4, "velocity": 90}, {"time": 3749, "pitch": 71, "duration": 12, "velocity": 91}, {"time": 3761, "pitch": 66, "duration": 33, "velocity": 88}, {"time": 3809, "pitch": 68, "duration": 5, "velocity": 94}, {"time": 3815, "pitch": 71, "duration": 4, "velocity": 91}, {"time": 3821, "pitch": 71, "duration": 12, "velocity": 93}, {"time": 3833, "pitch": 66, "duration": 6, "velocity": 88}, {"time": 3839, "pitch": 75, "duration": 9, "velocity": 94}, {"time": 3851, "pitch": 75, "duration": 9, "velocity": 96}, {"time": 3863, "pitch": 75, "duration": 6, "velocity": 94}, {"time": 3869, "pitch": 75, "duration": 1, "velocity": 93}, {"time": 3881, "pitch": 73, "duration": 5, "velocity": 94}, {"time": 3887, "pitch": 71, "duration": 14, "velocity": 82}, {"time": 3905, "pitch": 71, "duration": 6, "velocity": 93}, {"time": 3911, "pitch": 68, "duration": 5, "velocity": 94}, {"time": 3917, "pitch": 71, "duration": 6, "velocity": 94}, {"time": 3923, "pitch": 73, "duration": 7, "velocity": 95}, {"time": 3929, "pitch": 75, "duration": 12, "velocity": 98}, {"time": 3941, "pitch": 73, "duration": 43, "velocity": 95}, {"time": 4001, "pitch": 75, "duration": 5, "velocity": 95}, {"time": 4007, "pitch": 78, "duration": 4, "velocity": 93}, {"time": 4013, "pitch": 78, "duration": 10, "velocity": 94}, {"time": 4025, "pitch": 75, "duration": 3, "velocity": 94}, {"time": 4031, "pitch": 75, "duration": 5, "velocity": 89}, {"time": 4037, "pitch": 73, "duration": 9, "velocity": 95}, {"time": 4049, "pitch": 73, "duration": 3, "velocity": 95}, {"time": 4055, "pitch": 73, "duration": 4, "velocity": 88}, {"time": 4061, "pitch": 75, "duration": 11, "velocity": 95}, {"time": 4073, "pitch": 73, "duration": 7, "velocity": 96}, {"time": 4079, "pitch": 71, "duration": 13, "velocity": 92}, {"time": 4097, "pitch": 71, "duration": 6, "velocity": 89}, {"time": 4103, "pitch": 68, "duration": 7, "velocity": 93}, {"time": 4109, "pitch": 71, "duration": 9, "velocity": 94}, {"time": 4121, "pitch": 73, "duration": 6, "velocity": 94}, {"time": 4127, "pitch": 71, "duration": 4, "velocity": 90}, {"time": 4133, "pitch": 71, "duration": 12, "velocity": 91}, {"time": 4145, "pitch": 66, "duration": 33, "velocity": 88}, {"time": 4193, "pitch": 68, "duration": 5, "velocity": 94}, {"time": 4199, "pitch": 71, "duration": 4, "velocity": 91}, {"time": 4205, "pitch": 71, "duration": 12, "velocity": 93}, {"time": 4217, "pitch": 66, "duration": 6, "velocity": 88}, {"time": 4223, "pitch": 75, "duration": 9, "velocity": 94}, {"time": 4235, "pitch": 78, "duration": 9, "velocity": 96}, {"time": 4247, "pitch": 78, "duration": 6, "velocity": 94}, {"time": 4253, "pitch": 75, "duration": 9, "velocity": 93}, {"time": 4265, "pitch": 73, "duration": 5, "velocity": 94}, {"time": 4271, "pitch": 71, "duration": 14, "velocity": 82}, {"time": 4289, "pitch": 71, "duration": 6, "velocity": 93}, {"time": 4295, "pitch": 68, "duration": 5, "velocity": 94}, {"time": 4301, "pitch": 71, "duration": 6, "velocity": 94}, {"time": 4307, "pitch": 73, "duration": 7, "velocity": 95}, {"time": 4313, "pitch": 75, "duration": 12, "velocity": 98}, {"time": 4325, "pitch": 71, "duration": 43, "velocity": 95}, {"time": 4433, "pitch": 68, "duration": 5, "velocity": 87}, {"time": 4439, "pitch": 71, "duration": 4, "velocity": 88}, {"time": 4446, "pitch": 71, "duration": 12, "velocity": 90}, {"time": 4458, "pitch": 66, "duration": 6, "velocity": 86}, {"time": 4465, "pitch": 75, "duration": 10, "velocity": 94}, {"time": 4477, "pitch": 78, "duration": 8, "velocity": 94}, {"time": 4488, "pitch": 78, "duration": 4, "velocity": 88}, {"time": 4494, "pitch": 75, "duration": 12, "velocity": 90}, {"time": 4505, "pitch": 73, "duration": 7, "velocity": 89}, {"time": 4512, "pitch": 71, "duration": 14, "velocity": 85}, {"time": 4529, "pitch": 71, "duration": 9, "velocity": 88}, {"time": 4538, "pitch": 68, "duration": 8, "velocity": 84}, {"time": 4546, "pitch": 71, "duration": 12, "velocity": 84}, {"time": 4557, "pitch": 73, "duration": 13, "velocity": 92}, {"time": 4568, "pitch": 75, "duration": 26, "velocity": 89}, {"time": 4594, "pitch": 73, "duration": 11, "velocity": 93}, {"time": 4604, "pitch": 71, "duration": 90, "velocity": 79}]}, {"program": 0, "is_drum": false, "name": "PIANO", "notes": [{"time": 5, "pitch": 47, "duration": 43, "velocity": 93}, {"time": 11, "pitch": 54, "duration": 45, "velocity": 81}, {"time": 17, "pitch": 61, "duration": 7, "velocity": 83}, {"time": 23, "pitch": 63, "duration": 7, "velocity": 89}, {"time": 35, "pitch": 59, "duration": 4, "velocity": 87}, {"time": 35, "pitch": 66, "duration": 5, "velocity": 87}, {"time": 53, "pitch": 46, "duration": 37, "velocity": 94}, {"time": 59, "pitch": 54, "duration": 28, "velocity": 83}, {"time": 65, "pitch": 61, "duration": 7, "velocity": 85}, {"time": 71, "pitch": 66, "duration": 41, "velocity": 91}, {"time": 101, "pitch": 45, "duration": 35, "velocity": 90}, {"time": 107, "pitch": 52, "duration": 31, "velocity": 66}, {"time": 113, "pitch": 57, "duration": 15, "velocity": 84}, {"time": 119, "pitch": 64, "duration": 11, "velocity": 84}, {"time": 131, "pitch": 61, "duration": 8, "velocity": 87}, {"time": 137, "pitch": 57, "duration": 3, "velocity": 85}, {"time": 149, "pitch": 44, "duration": 42, "velocity": 92}, {"time": 149, "pitch": 59, "duration": 13, "velocity": 86}, {"time": 155, "pitch": 51, "duration": 35, "velocity": 84}, {"time": 161, "pitch": 54, "duration": 25, "velocity": 89}, {"time": 167, "pitch": 59, "duration": 9, "velocity": 88}, {"time": 179, "pitch": 59, "duration": 15, "velocity": 86}, {"time": 179, "pitch": 63, "duration": 19, "velocity": 94}, {"time": 197, "pitch": 37, "duration": 32, "velocity": 85}, {"time": 197, "pitch": 61, "duration": 13, "velocity": 89}, {"time": 203, "pitch": 44, "duration": 25, "velocity": 70}, {"time": 209, "pitch": 56, "duration": 13, "velocity": 88}, {"time": 215, "pitch": 61, "duration": 8, "velocity": 94}, {"time": 227, "pitch": 56, "duration": 8, "velocity": 88}, {"time": 227, "pitch": 61, "duration": 8, "velocity": 89}, {"time": 227, "pitch": 64, "duration": 10, "velocity": 93}, {"time": 245, "pitch": 37, "duration": 33, "velocity": 89}, {"time": 245, "pitch": 56, "duration": 7, "velocity": 82}, {"time": 245, "pitch": 61, "duration": 11, "velocity": 87}, {"time": 251, "pitch": 44, "duration": 26, "velocity": 76}, {"time": 257, "pitch": 56, "duration": 5, "velocity": 82}, {"time": 263, "pitch": 64, "duration": 12, "velocity": 94}, {"time": 275, "pitch": 61, "duration": 7, "velocity": 85}, {"time": 293, "pitch": 47, "duration": 29, "velocity": 86}, {"time": 293, "pitch": 54, "duration": 3, "velocity": 86}, {"time": 293, "pitch": 59, "duration": 12, "velocity": 86}, {"time": 299, "pitch": 54, "duration": 8, "velocity": 86}, {"time": 305, "pitch": 61, "duration": 7, "velocity": 86}, {"time": 311, "pitch": 63, "duration": 12, "velocity": 94}, {"time": 323, "pitch": 59, "duration": 3, "velocity": 88}, {"time": 341, "pitch": 35, "duration": 43, "velocity": 80}, {"time": 341, "pitch": 66, "duration": 12, "velocity": 86}, {"time": 347, "pitch": 42, "duration": 36, "velocity": 77}, {"time": 353, "pitch": 61, "duration": 6, "velocity": 73}, {"time": 359, "pitch": 63, "duration": 3, "velocity": 91}, {"time": 365, "pitch": 59, "duration": 11, "velocity": 82}, {"time": 377, "pitch": 54, "duration": 9, "velocity": 80}, {"time": 389, "pitch": 47, "duration": 40, "velocity": 96}, {"time": 395, "pitch": 54, "duration": 45, "velocity": 78}, {"time": 401, "pitch": 61, "duration": 6, "velocity": 77}, {"time": 407, "pitch": 63, "duration": 4, "velocity": 89}, {"time": 419, "pitch": 59, "duration": 2, "velocity": 87}, {"time": 419, "pitch": 66, "duration": 3, "velocity": 91}, {"time": 437, "pitch": 46, "duration": 34, "velocity": 93}, {"time": 443, "pitch": 54, "duration": 27, "velocity": 83}, {"time": 449, "pitch": 61, "duration": 7, "velocity": 83}, {"time": 455, "pitch": 66, "duration": 14, "velocity": 88}, {"time": 467, "pitch": 61, "duration": 3, "velocity": 87}, {"time": 485, "pitch": 44, "duration": 36, "velocity": 92}, {"time": 485, "pitch": 59, "duration": 12, "velocity": 87}, {"time": 491, "pitch": 51, "duration": 34, "velocity": 83}, {"time": 497, "pitch": 54, "duration": 8, "velocity": 90}, {"time": 503, "pitch": 59, "duration": 5, "velocity": 93}, {"time": 515, "pitch": 63, "duration": 5, "velocity": 89}, {"time": 533, "pitch": 42, "duration": 36, "velocity": 92}, {"time": 533, "pitch": 63, "duration": 13, "velocity": 89}, {"time": 539, "pitch": 49, "duration": 28, "velocity": 87}, {"time": 545, "pitch": 54, "duration": 4, "velocity": 89}, {"time": 551, "pitch": 63, "duration": 11, "velocity": 99}, {"time": 563, "pitch": 61, "duration": 15, "velocity": 90}, {"time": 581, "pitch": 40, "duration": 44, "velocity": 92}, {"time": 581, "pitch": 56, "duration": 7, "velocity": 83}, {"time": 581, "pitch": 59, "duration": 11, "velocity": 86}, {"time": 587, "pitch": 47, "duration": 35, "velocity": 80}, {"time": 593, "pitch": 56, "duration": 14, "velocity": 88}, {"time": 599, "pitch": 59, "duration": 22, "velocity": 95}, {"time": 629, "pitch": 39, "duration": 33, "velocity": 95}, {"time": 635, "pitch": 46, "duration": 25, "velocity": 82}, {"time": 641, "pitch": 51, "duration": 4, "velocity": 86}, {"time": 647, "pitch": 54, "duration": 4, "velocity": 95}, {"time": 659, "pitch": 51, "duration": 2, "velocity": 93}, {"time": 659, "pitch": 54, "duration": 2, "velocity": 90}, {"time": 659, "pitch": 58, "duration": 3, "velocity": 89}, {"time": 677, "pitch": 37, "duration": 31, "velocity": 94}, {"time": 677, "pitch": 56, "duration": 5, "velocity": 85}, {"time": 677, "pitch": 59, "duration": 13, "velocity": 89}, {"time": 683, "pitch": 44, "duration": 24, "velocity": 82}, {"time": 689, "pitch": 56, "duration": 4, "velocity": 85}, {"time": 695, "pitch": 64, "duration": 11, "velocity": 95}, {"time": 707, "pitch": 61, "duration": 6, "velocity": 90}, {"time": 713, "pitch": 56, "duration": 3, "velocity": 84}, {"time": 725, "pitch": 42, "duration": 40, "velocity": 93}, {"time": 725, "pitch": 61, "duration": 12, "velocity": 88}, {"time": 731, "pitch": 49, "duration": 33, "velocity": 79}, {"time": 737, "pitch": 54, "duration": 8, "velocity": 91}, {"time": 743, "pitch": 61, "duration": 18, "velocity": 94}, {"time": 755, "pitch": 66, "duration": 14, "velocity": 91}, {"time": 761, "pitch": 54, "duration": 5, "velocity": 94}, {"time": 773, "pitch": 47, "duration": 35, "velocity": 94}, {"time": 773, "pitch": 59, "duration": 7, "velocity": 86}, {"time": 779, "pitch": 54, "duration": 9, "velocity": 87}, {"time": 785, "pitch": 59, "duration": 7, "velocity": 86}, {"time": 791, "pitch": 61, "duration": 9, "velocity": 93}, {"time": 803, "pitch": 63, "duration": 3, "velocity": 94}, {"time": 821, "pitch": 46, "duration": 35, "velocity": 89}, {"time": 821, "pitch": 61, "duration": 6, "velocity": 89}, {"time": 827, "pitch": 58, "duration": 8, "velocity": 87}, {"time": 833, "pitch": 61, "duration": 7, "velocity": 81}, {"time": 839, "pitch": 66, "duration": 13, "velocity": 94}, {"time": 851, "pitch": 61, "duration": 3, "velocity": 87}, {"time": 869, "pitch": 44, "duration": 41, "velocity": 88}, {"time": 869, "pitch": 54, "duration": 7, "velocity": 88}, {"time": 869, "pitch": 59, "duration": 12, "velocity": 86}, {"time": 875, "pitch": 51, "duration": 40, "velocity": 84}, {"time": 881, "pitch": 54, "duration": 13, "velocity": 86}, {"time": 887, "pitch": 63, "duration": 11, "velocity": 94}, {"time": 899, "pitch": 59, "duration": 6, "velocity": 90}, {"time": 905, "pitch": 54, "duration": 7, "velocity": 86}, {"time": 911, "pitch": 59, "duration": 13, "velocity": 82}, {"time": 917, "pitch": 42, "duration": 37, "velocity": 94}, {"time": 923, "pitch": 49, "duration": 28, "velocity": 83}, {"time": 929, "pitch": 61, "duration": 13, "velocity": 82}, {"time": 935, "pitch": 66, "duration": 15, "velocity": 91}, {"time": 947, "pitch": 61, "duration": 7, "velocity": 92}, {"time": 953, "pitch": 54, "duration": 13, "velocity": 94}, {"time": 959, "pitch": 61, "duration": 19, "velocity": 85}, {"time": 965, "pitch": 40, "duration": 43, "velocity": 87}, {"time": 971, "pitch": 47, "duration": 35, "velocity": 89}, {"time": 977, "pitch": 59, "duration": 18, "velocity": 86}, {"time": 983, "pitch": 56, "duration": 12, "velocity": 81}, {"time": 995, "pitch": 64, "duration": 20, "velocity": 90}, {"time": 1001, "pitch": 59, "duration": 12, "velocity": 83}, {"time": 1007, "pitch": 56, "duration": 8, "velocity": 87}, {"time": 1013, "pitch": 39, "duration": 17, "velocity": 96}, {"time": 1019, "pitch": 46, "duration": 9, "velocity": 80}, {"time": 1025, "pitch": 54, "duration": 6, "velocity": 85}, {"time": 1031, "pitch": 51, "duration": 1, "velocity": 88}, {"time": 1037, "pitch": 44, "duration": 18, "velocity": 94}, {"time": 1037, "pitch": 56, "duration": 8, "velocity": 87}, {"time": 1037, "pitch": 59, "duration": 13, "velocity": 92}, {"time": 1043, "pitch": 51, "duration": 11, "velocity": 87}, {"time": 1049, "pitch": 56, "duration": 3, "velocity": 87}, {"time": 1061, "pitch": 49, "duration": 36, "velocity": 95}, {"time": 1061, "pitch": 61, "duration": 7, "velocity": 88}, {"time": 1067, "pitch": 56, "duration": 13, "velocity": 91}, {"time": 1073, "pitch": 61, "duration": 7, "velocity": 85}, {"time": 1079, "pitch": 64, "duration": 7, "velocity": 88}, {"time": 1091, "pitch": 59, "duration": 6, "velocity": 83}, {"time": 1097, "pitch": 56, "duration": 7, "velocity": 82}, {"time": 1103, "pitch": 59, "duration": 6, "velocity": 79}, {"time": 1109, "pitch": 42, "duration": 44, "velocity": 94}, {"time": 1109, "pitch": 58, "duration": 13, "velocity": 88}, {"time": 1115, "pitch": 49, "duration": 37, "velocity": 87}, {"time": 1121, "pitch": 54, "duration": 8, "velocity": 93}, {"time": 1127, "pitch": 61, "duration": 7, "velocity": 88}, {"time": 1133, "pitch": 66, "duration": 14, "velocity": 94}, {"time": 1139, "pitch": 54, "duration": 6, "velocity": 94}, {"time": 1145, "pitch": 58, "duration": 7, "velocity": 72}, {"time": 1145, "pitch": 61, "duration": 7, "velocity": 85}, {"time": 1151, "pitch": 54, "duration": 32, "velocity": 90}, {"time": 1157, "pitch": 42, "duration": 44, "velocity": 94}, {"time": 1157, "pitch": 58, "duration": 26, "velocity": 86}, {"time": 1157, "pitch": 61, "duration": 30, "velocity": 88}, {"time": 1181, "pitch": 49, "duration": 20, "velocity": 89}, {"time": 1187, "pitch": 54, "duration": 13, "velocity": 89}, {"time": 1193, "pitch": 58, "duration": 8, "velocity": 81}, {"time": 1199, "pitch": 61, "duration": 3, "velocity": 81}, {"time": 1205, "pitch": 47, "duration": 27, "velocity": 95}, {"time": 1205, "pitch": 54, "duration": 8, "velocity": 88}, {"time": 1205, "pitch": 59, "duration": 14, "velocity": 83}, {"time": 1217, "pitch": 54, "duration": 6, "velocity": 87}, {"time": 1229, "pitch": 54, "duration": 4, "velocity": 94}, {"time": 1229, "pitch": 59, "duration": 8, "velocity": 96}, {"time": 1229, "pitch": 63, "duration": 8, "velocity": 95}, {"time": 1235, "pitch": 47, "duration": 2, "velocity": 94}, {"time": 1241, "pitch": 54, "duration": 7, "velocity": 91}, {"time": 1247, "pitch": 59, "duration": 6, "velocity": 86}, {"time": 1253, "pitch": 39, "duration": 35, "velocity": 98}, {"time": 1253, "pitch": 63, "duration": 8, "velocity": 90}, {"time": 1259, "pitch": 46, "duration": 21, "velocity": 82}, {"time": 1265, "pitch": 58, "duration": 7, "velocity": 66}, {"time": 1271, "pitch": 63, "duration": 3, "velocity": 80}, {"time": 1277, "pitch": 58, "duration": 5, "velocity": 86}, {"time": 1277, "pitch": 63, "duration": 8, "velocity": 94}, {"time": 1277, "pitch": 67, "duration": 14, "velocity": 85}, {"time": 1283, "pitch": 46, "duration": 6, "velocity": 90}, {"time": 1289, "pitch": 58, "duration": 3, "velocity": 85}, {"time": 1301, "pitch": 44, "duration": 37, "velocity": 94}, {"time": 1301, "pitch": 56, "duration": 6, "velocity": 80}, {"time": 1301, "pitch": 59, "duration": 14, "velocity": 87}, {"time": 1307, "pitch": 51, "duration": 26, "velocity": 82}, {"time": 1313, "pitch": 63, "duration": 6, "velocity": 87}, {"time": 1319, "pitch": 68, "duration": 11, "velocity": 94}, {"time": 1331, "pitch": 59, "duration": 10, "velocity": 93}, {"time": 1331, "pitch": 63, "duration": 9, "velocity": 93}, {"time": 1337, "pitch": 51, "duration": 4, "velocity": 93}, {"time": 1343, "pitch": 56, "duration": 3, "velocity": 89}, {"time": 1349, "pitch": 42, "duration": 42, "velocity": 92}, {"time": 1349, "pitch": 54, "duration": 6, "velocity": 89}, {"time": 1349, "pitch": 58, "duration": 13, "velocity": 84}, {"time": 1355, "pitch": 49, "duration": 33, "velocity": 86}, {"time": 1361, "pitch": 54, "duration": 6, "velocity": 86}, {"time": 1367, "pitch": 61, "duration": 4, "velocity": 84}, {"time": 1373, "pitch": 66, "duration": 9, "velocity": 95}, {"time": 1379, "pitch": 54, "duration": 7, "velocity": 92}, {"time": 1385, "pitch": 61, "duration": 4, "velocity": 89}, {"time": 1397, "pitch": 40, "duration": 31, "velocity": 94}, {"time": 1397, "pitch": 56, "duration": 5, "velocity": 85}, {"time": 1397, "pitch": 59, "duration": 12, "velocity": 86}, {"time": 1403, "pitch": 47, "duration": 25, "velocity": 85}, {"time": 1409, "pitch": 56, "duration": 8, "velocity": 76}, {"time": 1415, "pitch": 59, "duration": 12, "velocity": 90}, {"time": 1427, "pitch": 64, "duration": 13, "velocity": 95}, {"time": 1433, "pitch": 47, "duration": 7, "velocity": 88}, {"time": 1439, "pitch": 56, "duration": 2, "velocity": 84}, {"time": 1445, "pitch": 39, "duration": 33, "velocity": 94}, {"time": 1445, "pitch": 51, "duration": 5, "velocity": 88}, {"time": 1445, "pitch": 54, "duration": 11, "velocity": 91}, {"time": 1451, "pitch": 46, "duration": 23, "velocity": 82}, {"time": 1457, "pitch": 51, "duration": 7, "velocity": 89}, {"time": 1463, "pitch": 54, "duration": 18, "velocity": 92}, {"time": 1463, "pitch": 58, "duration": 19, "velocity": 92}, {"time": 1475, "pitch": 51, "duration": 6, "velocity": 88}, {"time": 1481, "pitch": 46, "duration": 2, "velocity": 88}, {"time": 1493, "pitch": 49, "duration": 36, "velocity": 95}, {"time": 1493, "pitch": 56, "duration": 3, "velocity": 84}, {"time": 1493, "pitch": 61, "duration": 7, "velocity": 91}, {"time": 1499, "pitch": 56, "duration": 7, "velocity": 88}, {"time": 1505, "pitch": 61, "duration": 3, "velocity": 81}, {"time": 1511, "pitch": 64, "duration": 7, "velocity": 96}, {"time": 1517, "pitch": 59, "duration": 6, "velocity": 94}, {"time": 1523, "pitch": 56, "duration": 8, "velocity": 94}, {"time": 1529, "pitch": 59, "duration": 6, "velocity": 94}, {"time": 1535, "pitch": 64, "duration": 4, "velocity": 89}, {"time": 1541, "pitch": 42, "duration": 32, "velocity": 94}, {"time": 1541, "pitch": 54, "duration": 6, "velocity": 88}, {"time": 1541, "pitch": 58, "duration": 9, "velocity": 87}, {"time": 1547, "pitch": 49, "duration": 14, "velocity": 91}, {"time": 1553, "pitch": 54, "duration": 3, "velocity": 82}, {"time": 1559, "pitch": 54, "duration": 8, "velocity": 93}, {"time": 1559, "pitch": 58, "duration": 7, "velocity": 100}, {"time": 1559, "pitch": 61, "duration": 8, "velocity": 97}, {"time": 1565, "pitch": 49, "duration": 10, "velocity": 90}, {"time": 1571, "pitch": 54, "duration": 5, "velocity": 87}, {"time": 1571, "pitch": 58, "duration": 7, "velocity": 94}, {"time": 1571, "pitch": 61, "duration": 8, "velocity": 90}, {"time": 1571, "pitch": 66, "duration": 8, "velocity": 93}, {"time": 1589, "pitch": 35, "duration": 2, "velocity": 93}, {"time": 1589, "pitch": 54, "duration": 6, "velocity": 93}, {"time": 1589, "pitch": 63, "duration": 10, "velocity": 94}, {"time": 1595, "pitch": 47, "duration": 32, "velocity": 78}, {"time": 1601, "pitch": 54, "duration": 19, "velocity": 89}, {"time": 1607, "pitch": 61, "duration": 9, "velocity": 94}, {"time": 1619, "pitch": 59, "duration": 6, "velocity": 92}, {"time": 1619, "pitch": 63, "duration": 11, "velocity": 95}, {"time": 1625, "pitch": 54, "duration": 2, "velocity": 80}, {"time": 1631, "pitch": 59, "duration": 4, "velocity": 63}, {"time": 1637, "pitch": 39, "duration": 31, "velocity": 97}, {"time": 1637, "pitch": 63, "duration": 10, "velocity": 94}, {"time": 1643, "pitch": 46, "duration": 14, "velocity": 82}, {"time": 1649, "pitch": 58, "duration": 3, "velocity": 93}, {"time": 1655, "pitch": 58, "duration": 7, "velocity": 95}, {"time": 1655, "pitch": 63, "duration": 8, "velocity": 98}, {"time": 1661, "pitch": 46, "duration": 8, "velocity": 78}, {"time": 1667, "pitch": 63, "duration": 5, "velocity": 95}, {"time": 1667, "pitch": 67, "duration": 5, "velocity": 91}, {"time": 1685, "pitch": 44, "duration": 37, "velocity": 94}, {"time": 1685, "pitch": 56, "duration": 5, "velocity": 83}, {"time": 1685, "pitch": 59, "duration": 13, "velocity": 86}, {"time": 1691, "pitch": 51, "duration": 14, "velocity": 82}, {"time": 1697, "pitch": 56, "duration": 3, "velocity": 80}, {"time": 1703, "pitch": 56, "duration": 8, "velocity": 92}, {"time": 1703, "pitch": 63, "duration": 12, "velocity": 93}, {"time": 1715, "pitch": 59, "duration": 6, "velocity": 93}, {"time": 1721, "pitch": 56, "duration": 3, "velocity": 88}, {"time": 1733, "pitch": 42, "duration": 14, "velocity": 94}, {"time": 1733, "pitch": 54, "duration": 6, "velocity": 91}, {"time": 1733, "pitch": 57, "duration": 13, "velocity": 89}, {"time": 1739, "pitch": 49, "duration": 7, "velocity": 80}, {"time": 1745, "pitch": 54, "duration": 4, "velocity": 89}, {"time": 1757, "pitch": 35, "duration": 11, "velocity": 92}, {"time": 1757, "pitch": 54, "duration": 5, "velocity": 89}, {"time": 1757, "pitch": 59, "duration": 7, "velocity": 89}, {"time": 1757, "pitch": 63, "duration": 11, "velocity": 94}, {"time": 1763, "pitch": 42, "duration": 4, "velocity": 86}, {"time": 1769, "pitch": 57, "duration": 5, "velocity": 91}, {"time": 1775, "pitch": 54, "duration": 3, "velocity": 86}, {"time": 1781, "pitch": 40, "duration": 39, "velocity": 86}, {"time": 1781, "pitch": 52, "duration": 15, "velocity": 90}, {"time": 1781, "pitch": 56, "duration": 15, "velocity": 89}, {"time": 1787, "pitch": 47, "duration": 29, "velocity": 84}, {"time": 1793, "pitch": 59, "duration": 7, "velocity": 82}, {"time": 1799, "pitch": 64, "duration": 9, "velocity": 97}, {"time": 1811, "pitch": 56, "duration": 7, "velocity": 94}, {"time": 1811, "pitch": 59, "duration": 7, "velocity": 95}, {"time": 1817, "pitch": 52, "duration": 2, "velocity": 80}, {"time": 1829, "pitch": 39, "duration": 12, "velocity": 95}, {"time": 1829, "pitch": 54, "duration": 13, "velocity": 87}, {"time": 1835, "pitch": 46, "duration": 6, "velocity": 88}, {"time": 1841, "pitch": 51, "duration": 6, "velocity": 97}, {"time": 1847, "pitch": 54, "duration": 6, "velocity": 98}, {"time": 1853, "pitch": 44, "duration": 19, "velocity": 94}, {"time": 1853, "pitch": 56, "duration": 11, "velocity": 94}, {"time": 1859, "pitch": 51, "duration": 11, "velocity": 93}, {"time": 1865, "pitch": 59, "duration": 8, "velocity": 96}, {"time": 1871, "pitch": 56, "duration": 4, "velocity": 89}, {"time": 1877, "pitch": 49, "duration": 15, "velocity": 94}, {"time": 1877, "pitch": 64, "duration": 13, "velocity": 94}, {"time": 1883, "pitch": 56, "duration": 7, "velocity": 89}, {"time": 1889, "pitch": 61, "duration": 6, "velocity": 88}, {"time": 1895, "pitch": 56, "duration": 3, "velocity": 79}, {"time": 1901, "pitch": 42, "duration": 13, "velocity": 93}, {"time": 1901, "pitch": 54, "duration": 7, "velocity": 88}, {"time": 1901, "pitch": 58, "duration": 12, "velocity": 88}, {"time": 1907, "pitch": 49, "duration": 6, "velocity": 84}, {"time": 1913, "pitch": 54, "duration": 13, "velocity": 93}, {"time": 1925, "pitch": 35, "duration": 2, "velocity": 89}, {"time": 1925, "pitch": 59, "duration": 11, "velocity": 88}, {"time": 1931, "pitch": 47, "duration": 35, "velocity": 89}, {"time": 1937, "pitch": 54, "duration": 24, "velocity": 87}, {"time": 1943, "pitch": 61, "duration": 7, "velocity": 88}, {"time": 1949, "pitch": 63, "duration": 5, "velocity": 94}, {"time": 1955, "pitch": 66, "duration": 8, "velocity": 96}, {"time": 1967, "pitch": 59, "duration": 16, "velocity": 80}, {"time": 1973, "pitch": 47, "duration": 43, "velocity": 97}, {"time": 1979, "pitch": 54, "duration": 38, "velocity": 80}, {"time": 1985, "pitch": 61, "duration": 7, "velocity": 77}, {"time": 1991, "pitch": 63, "duration": 27, "velocity": 87}, {"time": 2021, "pitch": 47, "duration": 40, "velocity": 96}, {"time": 2027, "pitch": 54, "duration": 45, "velocity": 78}, {"time": 2033, "pitch": 61, "duration": 6, "velocity": 77}, {"time": 2039, "pitch": 63, "duration": 4, "velocity": 89}, {"time": 2051, "pitch": 59, "duration": 2, "velocity": 87}, {"time": 2051, "pitch": 66, "duration": 3, "velocity": 91}, {"time": 2069, "pitch": 46, "duration": 34, "velocity": 93}, {"time": 2075, "pitch": 54, "duration": 27, "velocity": 83}, {"time": 2081, "pitch": 61, "duration": 7, "velocity": 83}, {"time": 2087, "pitch": 66, "duration": 14, "velocity": 88}, {"time": 2099, "pitch": 61, "duration": 3, "velocity": 87}, {"time": 2117, "pitch": 44, "duration": 36, "velocity": 92}, {"time": 2117, "pitch": 59, "duration": 12, "velocity": 87}, {"time": 2123, "pitch": 51, "duration": 34, "velocity": 83}, {"time": 2129, "pitch": 54, "duration": 8, "velocity": 90}, {"time": 2135, "pitch": 59, "duration": 5, "velocity": 93}, {"time": 2147, "pitch": 63, "duration": 5, "velocity": 89}, {"time": 2165, "pitch": 42, "duration": 36, "velocity": 92}, {"time": 2165, "pitch": 63, "duration": 13, "velocity": 89}, {"time": 2171, "pitch": 49, "duration": 28, "velocity": 87}, {"time": 2177, "pitch": 54, "duration": 4, "velocity": 89}, {"time": 2183, "pitch": 63, "duration": 11, "velocity": 99}, {"time": 2195, "pitch": 61, "duration": 15, "velocity": 90}, {"time": 2213, "pitch": 40, "duration": 44, "velocity": 92}, {"time": 2213, "pitch": 56, "duration": 7, "velocity": 83}, {"time": 2213, "pitch": 59, "duration": 11, "velocity": 86}, {"time": 2219, "pitch": 47, "duration": 35, "velocity": 80}, {"time": 2225, "pitch": 56, "duration": 14, "velocity": 88}, {"time": 2231, "pitch": 59, "duration": 22, "velocity": 95}, {"time": 2261, "pitch": 39, "duration": 33, "velocity": 95}, {"time": 2267, "pitch": 46, "duration": 25, "velocity": 82}, {"time": 2273, "pitch": 51, "duration": 4, "velocity": 86}, {"time": 2279, "pitch": 54, "duration": 4, "velocity": 95}, {"time": 2291, "pitch": 51, "duration": 2, "velocity": 93}, {"time": 2291, "pitch": 54, "duration": 2, "velocity": 90}, {"time": 2291, "pitch": 58, "duration": 3, "velocity": 89}, {"time": 2309, "pitch": 37, "duration": 31, "velocity": 94}, {"time": 2309, "pitch": 56, "duration": 5, "velocity": 85}, {"time": 2309, "pitch": 59, "duration": 13, "velocity": 89}, {"time": 2315, "pitch": 44, "duration": 24, "velocity": 82}, {"time": 2321, "pitch": 56, "duration": 4, "velocity": 85}, {"time": 2327, "pitch": 64, "duration": 11, "velocity": 95}, {"time": 2339, "pitch": 61, "duration": 6, "velocity": 90}, {"time": 2345, "pitch": 56, "duration": 3, "velocity": 84}, {"time": 2357, "pitch": 42, "duration": 40, "velocity": 93}, {"time": 2357, "pitch": 61, "duration": 12, "velocity": 88}, {"time": 2363, "pitch": 49, "duration": 33, "velocity": 79}, {"time": 2369, "pitch": 54, "duration": 8, "velocity": 91}, {"time": 2375, "pitch": 61, "duration": 18, "velocity": 94}, {"time": 2387, "pitch": 66, "duration": 14, "velocity": 91}, {"time": 2393, "pitch": 54, "duration": 5, "velocity": 94}, {"time": 2405, "pitch": 47, "duration": 35, "velocity": 94}, {"time": 2405, "pitch": 59, "duration": 7, "velocity": 86}, {"time": 2411, "pitch": 54, "duration": 9, "velocity": 87}, {"time": 2417, "pitch": 59, "duration": 7, "velocity": 86}, {"time": 2423, "pitch": 61, "duration": 9, "velocity": 93}, {"time": 2435, "pitch": 63, "duration": 3, "velocity": 94}, {"time": 2453, "pitch": 46, "duration": 35, "velocity": 89}, {"time": 2453, "pitch": 61, "duration": 6, "velocity": 89}, {"time": 2459, "pitch": 58, "duration": 8, "velocity": 87}, {"time": 2465, "pitch": 61, "duration": 7, "velocity": 81}, {"time": 2471, "pitch": 66, "duration": 13, "velocity": 94}, {"time": 2483, "pitch": 61, "duration": 3, "velocity": 87}, {"time": 2501, "pitch": 44, "duration": 41, "velocity": 88}, {"time": 2501, "pitch": 54, "duration": 7, "velocity": 88}, {"time": 2501, "pitch": 59, "duration": 12, "velocity": 86}, {"time": 2507, "pitch": 51, "duration": 40, "velocity": 84}, {"time": 2513, "pitch": 54, "duration": 13, "velocity": 86}, {"time": 2519, "pitch": 63, "duration": 11, "velocity": 94}, {"time": 2531, "pitch": 59, "duration": 6, "velocity": 90}, {"time": 2537, "pitch": 54, "duration": 7, "velocity": 86}, {"time": 2543, "pitch": 59, "duration": 13, "velocity": 82}, {"time": 2549, "pitch": 42, "duration": 37, "velocity": 94}, {"time": 2555, "pitch": 49, "duration": 28, "velocity": 83}, {"time": 2561, "pitch": 61, "duration": 13, "velocity": 82}, {"time": 2567, "pitch": 66, "duration": 15, "velocity": 91}, {"time": 2579, "pitch": 61, "duration": 7, "velocity": 92}, {"time": 2585, "pitch": 54, "duration": 13, "velocity": 94}, {"time": 2591, "pitch": 61, "duration": 19, "velocity": 85}, {"time": 2597, "pitch": 40, "duration": 43, "velocity": 87}, {"time": 2603, "pitch": 47, "duration": 35, "velocity": 89}, {"time": 2609, "pitch": 59, "duration": 18, "velocity": 86}, {"time": 2615, "pitch": 56, "duration": 12, "velocity": 81}, {"time": 2627, "pitch": 64, "duration": 20, "velocity": 90}, {"time": 2633, "pitch": 59, "duration": 12, "velocity": 83}, {"time": 2639, "pitch": 56, "duration": 8, "velocity": 87}, {"time": 2645, "pitch": 39, "duration": 17, "velocity": 96}, {"time": 2651, "pitch": 46, "duration": 9, "velocity": 80}, {"time": 2657, "pitch": 54, "duration": 6, "velocity": 85}, {"time": 2663, "pitch": 51, "duration": 1, "velocity": 88}, {"time": 2669, "pitch": 44, "duration": 18, "velocity": 94}, {"time": 2669, "pitch": 56, "duration": 8, "velocity": 87}, {"time": 2669, "pitch": 59, "duration": 13, "velocity": 92}, {"time": 2675, "pitch": 51, "duration": 11, "velocity": 87}, {"time": 2681, "pitch": 56, "duration": 3, "velocity": 87}, {"time": 2693, "pitch": 49, "duration": 36, "velocity": 95}, {"time": 2693, "pitch": 61, "duration": 7, "velocity": 88}, {"time": 2699, "pitch": 56, "duration": 13, "velocity": 91}, {"time": 2705, "pitch": 61, "duration": 7, "velocity": 85}, {"time": 2711, "pitch": 64, "duration": 7, "velocity": 88}, {"time": 2723, "pitch": 59, "duration": 6, "velocity": 83}, {"time": 2729, "pitch": 56, "duration": 7, "velocity": 82}, {"time": 2735, "pitch": 59, "duration": 6, "velocity": 79}, {"time": 2736, "pitch": 54, "duration": 51, "velocity": 83}, {"time": 2738, "pitch": 58, "duration": 50, "velocity": 88}, {"time": 2739, "pitch": 42, "duration": 39, "velocity": 94}, {"time": 2739, "pitch": 61, "duration": 49, "velocity": 88}, {"time": 2740, "pitch": 66, "duration": 48, "velocity": 90}, {"time": 2789, "pitch": 47, "duration": 40, "velocity": 96}, {"time": 2795, "pitch": 54, "duration": 45, "velocity": 78}, {"time": 2801, "pitch": 61, "duration": 6, "velocity": 77}, {"time": 2807, "pitch": 63, "duration": 4, "velocity": 89}, {"time": 2819, "pitch": 59, "duration": 2, "velocity": 87}, {"time": 2819, "pitch": 66, "duration": 3, "velocity": 91}, {"time": 2837, "pitch": 46, "duration": 34, "velocity": 93}, {"time": 2843, "pitch": 54, "duration": 27, "velocity": 83}, {"time": 2849, "pitch": 61, "duration": 7, "velocity": 83}, {"time": 2855, "pitch": 66, "duration": 14, "velocity": 88}, {"time": 2867, "pitch": 61, "duration": 3, "velocity": 87}, {"time": 2885, "pitch": 44, "duration": 36, "velocity": 92}, {"time": 2885, "pitch": 59, "duration": 12, "velocity": 87}, {"time": 2891, "pitch": 51, "duration": 34, "velocity": 83}, {"time": 2897, "pitch": 54, "duration": 8, "velocity": 90}, {"time": 2903, "pitch": 59, "duration": 5, "velocity": 93}, {"time": 2915, "pitch": 63, "duration": 5, "velocity": 89}, {"time": 2933, "pitch": 42, "duration": 36, "velocity": 92}, {"time": 2933, "pitch": 63, "duration": 13, "velocity": 89}, {"time": 2939, "pitch": 49, "duration": 28, "velocity": 87}, {"time": 2945, "pitch": 54, "duration": 4, "velocity": 89}, {"time": 2951, "pitch": 63, "duration": 11, "velocity": 99}, {"time": 2963, "pitch": 61, "duration": 15, "velocity": 90}, {"time": 2981, "pitch": 40, "duration": 44, "velocity": 92}, {"time": 2981, "pitch": 56, "duration": 7, "velocity": 83}, {"time": 2981, "pitch": 59, "duration": 11, "velocity": 86}, {"time": 2987, "pitch": 47, "duration": 35, "velocity": 80}, {"time": 2993, "pitch": 56, "duration": 14, "velocity": 88}, {"time": 2999, "pitch": 59, "duration": 22, "velocity": 95}, {"time": 3029, "pitch": 39, "duration": 33, "velocity": 95}, {"time": 3035, "pitch": 46, "duration": 25, "velocity": 82}, {"time": 3041, "pitch": 51, "duration": 4, "velocity": 86}, {"time": 3047, "pitch": 54, "duration": 4, "velocity": 95}, {"time": 3059, "pitch": 51, "duration": 2, "velocity": 93}, {"time": 3059, "pitch": 54, "duration": 2, "velocity": 90}, {"time": 3059, "pitch": 58, "duration": 3, "velocity": 89}, {"time": 3077, "pitch": 37, "duration": 31, "velocity": 94}, {"time": 3077, "pitch": 56, "duration": 5, "velocity": 85}, {"time": 3077, "pitch": 59, "duration": 13, "velocity": 89}, {"time": 3083, "pitch": 44, "duration": 24, "velocity": 82}, {"time": 3089, "pitch": 56, "duration": 4, "velocity": 85}, {"time": 3095, "pitch": 64, "duration": 11, "velocity": 95}, {"time": 3107, "pitch": 61, "duration": 6, "velocity": 90}, {"time": 3113, "pitch": 56, "duration": 3, "velocity": 84}, {"time": 3125, "pitch": 42, "duration": 40, "velocity": 93}, {"time": 3125, "pitch": 61, "duration": 12, "velocity": 88}, {"time": 3131, "pitch": 49, "duration": 33, "velocity": 79}, {"time": 3137, "pitch": 54, "duration": 8, "velocity": 91}, {"time": 3143, "pitch": 61, "duration": 18, "velocity": 94}, {"time": 3155, "pitch": 66, "duration": 14, "velocity": 91}, {"time": 3161, "pitch": 54, "duration": 5, "velocity": 94}, {"time": 3173, "pitch": 47, "duration": 35, "velocity": 94}, {"time": 3173, "pitch": 59, "duration": 7, "velocity": 86}, {"time": 3179, "pitch": 54, "duration": 9, "velocity": 87}, {"time": 3185, "pitch": 59, "duration": 7, "velocity": 86}, {"time": 3191, "pitch": 61, "duration": 9, "velocity": 93}, {"time": 3203, "pitch": 63, "duration": 3, "velocity": 94}, {"time": 3221, "pitch": 46, "duration": 35, "velocity": 89}, {"time": 3221, "pitch": 61, "duration": 6, "velocity": 89}, {"time": 3227, "pitch": 58, "duration": 8, "velocity": 87}, {"time": 3233, "pitch": 61, "duration": 7, "velocity": 81}, {"time": 3239, "pitch": 66, "duration": 13, "velocity": 94}, {"time": 3251, "pitch": 61, "duration": 3, "velocity": 87}, {"time": 3269, "pitch": 44, "duration": 41, "velocity": 88}, {"time": 3269, "pitch": 54, "duration": 7, "velocity": 88}, {"time": 3269, "pitch": 59, "duration": 12, "velocity": 86}, {"time": 3275, "pitch": 51, "duration": 40, "velocity": 84}, {"time": 3281, "pitch": 54, "duration": 13, "velocity": 86}, {"time": 3287, "pitch": 63, "duration": 11, "velocity": 94}, {"time": 3299, "pitch": 59, "duration": 6, "velocity": 90}, {"time": 3305, "pitch": 54, "duration": 7, "velocity": 86}, {"time": 3311, "pitch": 59, "duration": 13, "velocity": 82}, {"time": 3317, "pitch": 42, "duration": 37, "velocity": 94}, {"time": 3323, "pitch": 49, "duration": 28, "velocity": 83}, {"time": 3329, "pitch": 61, "duration": 13, "velocity": 82}, {"time": 3335, "pitch": 66, "duration": 15, "velocity": 91}, {"time": 3347, "pitch": 61, "duration": 7, "velocity": 92}, {"time": 3353, "pitch": 54, "duration": 13, "velocity": 94}, {"time": 3359, "pitch": 61, "duration": 19, "velocity": 85}, {"time": 3365, "pitch": 40, "duration": 43, "velocity": 87}, {"time": 3371, "pitch": 47, "duration": 35, "velocity": 89}, {"time": 3377, "pitch": 59, "duration": 18, "velocity": 86}, {"time": 3383, "pitch": 56, "duration": 12, "velocity": 81}, {"time": 3395, "pitch": 64, "duration": 20, "velocity": 90}, {"time": 3401, "pitch": 59, "duration": 12, "velocity": 83}, {"time": 3407, "pitch": 56, "duration": 8, "velocity": 87}, {"time": 3413, "pitch": 39, "duration": 17, "velocity": 96}, {"time": 3419, "pitch": 46, "duration": 9, "velocity": 80}, {"time": 3425, "pitch": 54, "duration": 6, "velocity": 85}, {"time": 3431, "pitch": 51, "duration": 1, "velocity": 88}, {"time": 3437, "pitch": 44, "duration": 18, "velocity": 94}, {"time": 3437, "pitch": 56, "duration": 8, "velocity": 87}, {"time": 3437, "pitch": 59, "duration": 13, "velocity": 92}, {"time": 3443, "pitch": 51, "duration": 11, "velocity": 87}, {"time": 3449, "pitch": 56, "duration": 3, "velocity": 87}, {"time": 3461, "pitch": 49, "duration": 36, "velocity": 95}, {"time": 3461, "pitch": 61, "duration": 7, "velocity": 88}, {"time": 3467, "pitch": 56, "duration": 13, "velocity": 91}, {"time": 3473, "pitch": 61, "duration": 7, "velocity": 85}, {"time": 3479, "pitch": 64, "duration": 7, "velocity": 88}, {"time": 3491, "pitch": 59, "duration": 6, "velocity": 83}, {"time": 3497, "pitch": 56, "duration": 7, "velocity": 82}, {"time": 3503, "pitch": 59, "duration": 6, "velocity": 79}, {"time": 3509, "pitch": 42, "duration": 44, "velocity": 94}, {"time": 3509, "pitch": 58, "duration": 13, "velocity": 88}, {"time": 3515, "pitch": 49, "duration": 37, "velocity": 87}, {"time": 3521, "pitch": 54, "duration": 8, "velocity": 93}, {"time": 3527, "pitch": 61, "duration": 7, "velocity": 88}, {"time": 3533, "pitch": 66, "duration": 14, "velocity": 94}, {"time": 3539, "pitch": 54, "duration": 6, "velocity": 94}, {"time": 3545, "pitch": 58, "duration": 7, "velocity": 72}, {"time": 3545, "pitch": 61, "duration": 7, "velocity": 85}, {"time": 3551, "pitch": 54, "duration": 32, "velocity": 90}, {"time": 3557, "pitch": 42, "duration": 44, "velocity": 94}, {"time": 3557, "pitch": 58, "duration": 26, "velocity": 86}, {"time": 3557, "pitch": 61, "duration": 30, "velocity": 88}, {"time": 3581, "pitch": 49, "duration": 20, "velocity": 89}, {"time": 3587, "pitch": 54, "duration": 13, "velocity": 89}, {"time": 3593, "pitch": 58, "duration": 8, "velocity": 81}, {"time": 3599, "pitch": 61, "duration": 3, "velocity": 81}, {"time": 3605, "pitch": 47, "duration": 27, "velocity": 95}, {"time": 3605, "pitch": 54, "duration": 8, "velocity": 88}, {"time": 3605, "pitch": 59, "duration": 14, "velocity": 83}, {"time": 3617, "pitch": 54, "duration": 6, "velocity": 87}, {"time": 3629, "pitch": 54, "duration": 4, "velocity": 94}, {"time": 3629, "pitch": 59, "duration": 8, "velocity": 96}, {"time": 3629, "pitch": 63, "duration": 8, "velocity": 95}, {"time": 3635, "pitch": 47, "duration": 2, "velocity": 94}, {"time": 3641, "pitch": 54, "duration": 7, "velocity": 91}, {"time": 3647, "pitch": 59, "duration": 6, "velocity": 86}, {"time": 3653, "pitch": 39, "duration": 35, "velocity": 98}, {"time": 3653, "pitch": 63, "duration": 8, "velocity": 90}, {"time": 3659, "pitch": 46, "duration": 21, "velocity": 82}, {"time": 3665, "pitch": 58, "duration": 7, "velocity": 66}, {"time": 3671, "pitch": 63, "duration": 3, "velocity": 80}, {"time": 3677, "pitch": 58, "duration": 5, "velocity": 86}, {"time": 3677, "pitch": 63, "duration": 8, "velocity": 94}, {"time": 3677, "pitch": 67, "duration": 14, "velocity": 85}, {"time": 3683, "pitch": 46, "duration": 6, "velocity": 90}, {"time": 3689, "pitch": 58, "duration": 3, "velocity": 85}, {"time": 3701, "pitch": 44, "duration": 37, "velocity": 94}, {"time": 3701, "pitch": 56, "duration": 6, "velocity": 80}, {"time": 3701, "pitch": 59, "duration": 14, "velocity": 87}, {"time": 3707, "pitch": 51, "duration": 26, "velocity": 82}, {"time": 3713, "pitch": 63, "duration": 6, "velocity": 87}, {"time": 3719, "pitch": 68, "duration": 11, "velocity": 94}, {"time": 3731, "pitch": 59, "duration": 10, "velocity": 93}, {"time": 3731, "pitch": 63, "duration": 9, "velocity": 93}, {"time": 3737, "pitch": 51, "duration": 4, "velocity": 93}, {"time": 3743, "pitch": 56, "duration": 3, "velocity": 89}, {"time": 3749, "pitch": 42, "duration": 42, "velocity": 92}, {"time": 3749, "pitch": 54, "duration": 6, "velocity": 89}, {"time": 3749, "pitch": 58, "duration": 13, "velocity": 84}, {"time": 3755, "pitch": 49, "duration": 33, "velocity": 86}, {"time": 3761, "pitch": 54, "duration": 6, "velocity": 86}, {"time": 3767, "pitch": 61, "duration": 4, "velocity": 84}, {"time": 3773, "pitch": 66, "duration": 9, "velocity": 95}, {"time": 3779, "pitch": 54, "duration": 7, "velocity": 92}, {"time": 3785, "pitch": 61, "duration": 4, "velocity": 89}, {"time": 3797, "pitch": 40, "duration": 31, "velocity": 94}, {"time": 3797, "pitch": 56, "duration": 5, "velocity": 85}, {"time": 3797, "pitch": 59, "duration": 12, "velocity": 86}, {"time": 3803, "pitch": 47, "duration": 25, "velocity": 85}, {"time": 3809, "pitch": 56, "duration": 8, "velocity": 76}, {"time": 3815, "pitch": 59, "duration": 12, "velocity": 90}, {"time": 3827, "pitch": 64, "duration": 13, "velocity": 95}, {"time": 3833, "pitch": 47, "duration": 7, "velocity": 88}, {"time": 3839, "pitch": 56, "duration": 2, "velocity": 84}, {"time": 3845, "pitch": 39, "duration": 33, "velocity": 94}, {"time": 3845, "pitch": 51, "duration": 5, "velocity": 88}, {"time": 3845, "pitch": 54, "duration": 11, "velocity": 91}, {"time": 3851, "pitch": 46, "duration": 23, "velocity": 82}, {"time": 3857, "pitch": 51, "duration": 7, "velocity": 89}, {"time": 3863, "pitch": 54, "duration": 18, "velocity": 92}, {"time": 3863, "pitch": 58, "duration": 19, "velocity": 92}, {"time": 3875, "pitch": 51, "duration": 6, "velocity": 88}, {"time": 3881, "pitch": 46, "duration": 2, "velocity": 88}, {"time": 3893, "pitch": 49, "duration": 36, "velocity": 95}, {"time": 3893, "pitch": 56, "duration": 3, "velocity": 84}, {"time": 3893, "pitch": 61, "duration": 7, "velocity": 91}, {"time": 3899, "pitch": 56, "duration": 7, "velocity": 88}, {"time": 3905, "pitch": 61, "duration": 3, "velocity": 81}, {"time": 3911, "pitch": 64, "duration": 7, "velocity": 96}, {"time": 3917, "pitch": 59, "duration": 6, "velocity": 94}, {"time": 3923, "pitch": 56, "duration": 8, "velocity": 94}, {"time": 3929, "pitch": 59, "duration": 6, "velocity": 94}, {"time": 3935, "pitch": 64, "duration": 4, "velocity": 89}, {"time": 3941, "pitch": 42, "duration": 32, "velocity": 94}, {"time": 3941, "pitch": 54, "duration": 6, "velocity": 88}, {"time": 3941, "pitch": 58, "duration": 9, "velocity": 87}, {"time": 3947, "pitch": 49, "duration": 14, "velocity": 91}, {"time": 3953, "pitch": 54, "duration": 3, "velocity": 82}, {"time": 3959, "pitch": 54, "duration": 8, "velocity": 93}, {"time": 3959, "pitch": 58, "duration": 7, "velocity": 100}, {"time": 3959, "pitch": 61, "duration": 8, "velocity": 97}, {"time": 3965, "pitch": 49, "duration": 10, "velocity": 90}, {"time": 3971, "pitch": 54, "duration": 5, "velocity": 87}, {"time": 3971, "pitch": 58, "duration": 7, "velocity": 94}, {"time": 3971, "pitch": 61, "duration": 8, "velocity": 90}, {"time": 3971, "pitch": 66, "duration": 8, "velocity": 93}, {"time": 3989, "pitch": 35, "duration": 2, "velocity": 93}, {"time": 3989, "pitch": 54, "duration": 6, "velocity": 93}, {"time": 3989, "pitch": 63, "duration": 10, "velocity": 94}, {"time": 3995, "pitch": 47, "duration": 32, "velocity": 78}, {"time": 4001, "pitch": 54, "duration": 19, "velocity": 89}, {"time": 4007, "pitch": 61, "duration": 9, "velocity": 94}, {"time": 4019, "pitch": 59, "duration": 6, "velocity": 92}, {"time": 4019, "pitch": 63, "duration": 11, "velocity": 95}, {"time": 4025, "pitch": 54, "duration": 2, "velocity": 80}, {"time": 4031, "pitch": 59, "duration": 4, "velocity": 63}, {"time": 4037, "pitch": 39, "duration": 31, "velocity": 97}, {"time": 4037, "pitch": 63, "duration": 10, "velocity": 94}, {"time": 4043, "pitch": 46, "duration": 14, "velocity": 82}, {"time": 4049, "pitch": 58, "duration": 3, "velocity": 93}, {"time": 4055, "pitch": 58, "duration": 7, "velocity": 95}, {"time": 4055, "pitch": 63, "duration": 8, "velocity": 98}, {"time": 4061, "pitch": 46, "duration": 8, "velocity": 78}, {"time": 4067, "pitch": 63, "duration": 5, "velocity": 95}, {"time": 4067, "pitch": 67, "duration": 5, "velocity": 91}, {"time": 4085, "pitch": 44, "duration": 37, "velocity": 94}, {"time": 4085, "pitch": 56, "duration": 5, "velocity": 83}, {"time": 4085, "pitch": 59, "duration": 13, "velocity": 86}, {"time": 4091, "pitch": 51, "duration": 14, "velocity": 82}, {"time": 4097, "pitch": 56, "duration": 3, "velocity": 80}, {"time": 4103, "pitch": 56, "duration": 8, "velocity": 92}, {"time": 4103, "pitch": 63, "duration": 12, "velocity": 93}, {"time": 4115, "pitch": 59, "duration": 6, "velocity": 93}, {"time": 4121, "pitch": 56, "duration": 3, "velocity": 88}, {"time": 4133, "pitch": 42, "duration": 14, "velocity": 94}, {"time": 4133, "pitch": 54, "duration": 6, "velocity": 91}, {"time": 4133, "pitch": 57, "duration": 13, "velocity": 89}, {"time": 4139, "pitch": 49, "duration": 7, "velocity": 80}, {"time": 4145, "pitch": 54, "duration": 4, "velocity": 89}, {"time": 4157, "pitch": 35, "duration": 11, "velocity": 92}, {"time": 4157, "pitch": 54, "duration": 5, "velocity": 89}, {"time": 4157, "pitch": 59, "duration": 7, "velocity": 89}, {"time": 4157, "pitch": 63, "duration": 11, "velocity": 94}, {"time": 4163, "pitch": 42, "duration": 4, "velocity": 86}, {"time": 4169, "pitch": 57, "duration": 5, "velocity": 91}, {"time": 4175, "pitch": 54, "duration": 3, "velocity": 86}, {"time": 4181, "pitch": 40, "duration": 39, "velocity": 86}, {"time": 4181, "pitch": 52, "duration": 15, "velocity": 90}, {"time": 4181, "pitch": 56, "duration": 15, "velocity": 89}, {"time": 4187, "pitch": 47, "duration": 29, "velocity": 84}, {"time": 4193, "pitch": 59, "duration": 7, "velocity": 82}, {"time": 4199, "pitch": 64, "duration": 9, "velocity": 97}, {"time": 4211, "pitch": 56, "duration": 7, "velocity": 94}, {"time": 4211, "pitch": 59, "duration": 7, "velocity": 95}, {"time": 4217, "pitch": 52, "duration": 2, "velocity": 80}, {"time": 4229, "pitch": 39, "duration": 12, "velocity": 95}, {"time": 4229, "pitch": 54, "duration": 13, "velocity": 87}, {"time": 4235, "pitch": 46, "duration": 6, "velocity": 88}, {"time": 4241, "pitch": 51, "duration": 6, "velocity": 97}, {"time": 4247, "pitch": 54, "duration": 6, "velocity": 98}, {"time": 4253, "pitch": 44, "duration": 19, "velocity": 94}, {"time": 4253, "pitch": 56, "duration": 11, "velocity": 94}, {"time": 4259, "pitch": 51, "duration": 11, "velocity": 93}, {"time": 4265, "pitch": 59, "duration": 8, "velocity": 96}, {"time": 4271, "pitch": 56, "duration": 4, "velocity": 89}, {"time": 4277, "pitch": 49, "duration": 15, "velocity": 94}, {"time": 4277, "pitch": 64, "duration": 13, "velocity": 94}, {"time": 4283, "pitch": 56, "duration": 7, "velocity": 89}, {"time": 4289, "pitch": 61, "duration": 6, "velocity": 88}, {"time": 4295, "pitch": 56, "duration": 3, "velocity": 79}, {"time": 4301, "pitch": 42, "duration": 13, "velocity": 93}, {"time": 4301, "pitch": 54, "duration": 7, "velocity": 88}, {"time": 4301, "pitch": 58, "duration": 12, "velocity": 88}, {"time": 4307, "pitch": 49, "duration": 6, "velocity": 84}, {"time": 4313, "pitch": 54, "duration": 13, "velocity": 93}, {"time": 4325, "pitch": 35, "duration": 2, "velocity": 89}, {"time": 4325, "pitch": 59, "duration": 11, "velocity": 88}, {"time": 4331, "pitch": 47, "duration": 35, "velocity": 89}, {"time": 4337, "pitch": 54, "duration": 24, "velocity": 87}, {"time": 4343, "pitch": 61, "duration": 7, "velocity": 88}, {"time": 4349, "pitch": 63, "duration": 5, "velocity": 94}, {"time": 4355, "pitch": 66, "duration": 8, "velocity": 96}, {"time": 4367, "pitch": 59, "duration": 16, "velocity": 80}, {"time": 4373, "pitch": 47, "duration": 43, "velocity": 97}, {"time": 4379, "pitch": 54, "duration": 38, "velocity": 80}, {"time": 4385, "pitch": 61, "duration": 7, "velocity": 77}, {"time": 4391, "pitch": 63, "duration": 27, "velocity": 87}, {"time": 4420, "pitch": 52, "duration": 35, "velocity": 92}, {"time": 4426, "pitch": 59, "duration": 9, "velocity": 83}, {"time": 4433, "pitch": 64, "duration": 5, "velocity": 82}, {"time": 4439, "pitch": 73, "duration": 9, "velocity": 95}, {"time": 4452, "pitch": 71, "duration": 2, "velocity": 88}, {"time": 4471, "pitch": 51, "duration": 10, "velocity": 95}, {"time": 4477, "pitch": 58, "duration": 4, "velocity": 82}, {"time": 4483, "pitch": 63, "duration": 7, "velocity": 83}, {"time": 4489, "pitch": 66, "duration": 28, "velocity": 75}, {"time": 4495, "pitch": 44, "duration": 21, "velocity": 91}, {"time": 4501, "pitch": 51, "duration": 13, "velocity": 81}, {"time": 4508, "pitch": 54, "duration": 8, "velocity": 85}, {"time": 4514, "pitch": 59, "duration": 8, "velocity": 91}, {"time": 4521, "pitch": 49, "duration": 17, "velocity": 90}, {"time": 4521, "pitch": 61, "duration": 11, "velocity": 85}, {"time": 4528, "pitch": 56, "duration": 11, "velocity": 80}, {"time": 4537, "pitch": 61, "duration": 4, "velocity": 79}, {"time": 4550, "pitch": 42, "duration": 51, "velocity": 82}, {"time": 4553, "pitch": 54, "duration": 68, "velocity": 76}, {"time": 4554, "pitch": 49, "duration": 43, "velocity": 77}, {"time": 4554, "pitch": 58, "duration": 76, "velocity": 80}, {"time": 4557, "pitch": 61, "duration": 74, "velocity": 78}, {"time": 4558, "pitch": 66, "duration": 73, "velocity": 73}, {"time": 4640, "pitch": 47, "duration": 43, "velocity": 93}, {"time": 4646, "pitch": 54, "duration": 45, "velocity": 81}, {"time": 4652, "pitch": 61, "duration": 7, "velocity": 83}, {"time": 4658, "pitch": 63, "duration": 8, "velocity": 89}, {"time": 4670, "pitch": 59, "duration": 4, "velocity": 87}, {"time": 4670, "pitch": 66, "duration": 6, "velocity": 87}, {"time": 4688, "pitch": 46, "duration": 37, "velocity": 94}, {"time": 4694, "pitch": 54, "duration": 28, "velocity": 83}, {"time": 4700, "pitch": 61, "duration": 7, "velocity": 85}, {"time": 4706, "pitch": 66, "duration": 42, "velocity": 91}, {"time": 4736, "pitch": 45, "duration": 35, "velocity": 90}, {"time": 4742, "pitch": 52, "duration": 31, "velocity": 66}, {"time": 4748, "pitch": 57, "duration": 15, "velocity": 84}, {"time": 4754, "pitch": 64, "duration": 11, "velocity": 84}, {"time": 4766, "pitch": 61, "duration": 8, "velocity": 87}, {"time": 4772, "pitch": 57, "duration": 3, "velocity": 85}, {"time": 4784, "pitch": 44, "duration": 42, "velocity": 92}, {"time": 4784, "pitch": 59, "duration": 13, "velocity": 86}, {"time": 4790, "pitch": 51, "duration": 35, "velocity": 84}, {"time": 4796, "pitch": 54, "duration": 26, "velocity": 89}, {"time": 4802, "pitch": 59, "duration": 9, "velocity": 88}, {"time": 4814, "pitch": 59, "duration": 16, "velocity": 86}, {"time": 4814, "pitch": 63, "duration": 19, "velocity": 94}, {"time": 4832, "pitch": 37, "duration": 32, "velocity": 85}, {"time": 4832, "pitch": 61, "duration": 13, "velocity": 89}, {"time": 4838, "pitch": 44, "duration": 25, "velocity": 70}, {"time": 4844, "pitch": 56, "duration": 14, "velocity": 88}, {"time": 4850, "pitch": 61, "duration": 8, "velocity": 94}, {"time": 4862, "pitch": 56, "duration": 9, "velocity": 88}, {"time": 4862, "pitch": 61, "duration": 9, "velocity": 89}, {"time": 4862, "pitch": 64, "duration": 10, "velocity": 93}, {"time": 4880, "pitch": 37, "duration": 34, "velocity": 89}, {"time": 4880, "pitch": 56, "duration": 7, "velocity": 82}, {"time": 4880, "pitch": 61, "duration": 11, "velocity": 87}, {"time": 4886, "pitch": 44, "duration": 26, "velocity": 76}, {"time": 4892, "pitch": 56, "duration": 6, "velocity": 82}, {"time": 4898, "pitch": 64, "duration": 12, "velocity": 94}, {"time": 4910, "pitch": 61, "duration": 7, "velocity": 85}, {"time": 4928, "pitch": 47, "duration": 29, "velocity": 86}, {"time": 4928, "pitch": 54, "duration": 3, "velocity": 86}, {"time": 4928, "pitch": 59, "duration": 13, "velocity": 86}, {"time": 4934, "pitch": 54, "duration": 8, "velocity": 86}, {"time": 4940, "pitch": 61, "duration": 8, "velocity": 86}, {"time": 4946, "pitch": 63, "duration": 12, "velocity": 94}, {"time": 4958, "pitch": 59, "duration": 3, "velocity": 88}, {"time": 4976, "pitch": 47, "duration": 31, "velocity": 93}, {"time": 4978, "pitch": 59, "duration": 5, "velocity": 70}, {"time": 4979, "pitch": 54, "duration": 27, "velocity": 82}, {"time": 4979, "pitch": 61, "duration": 26, "velocity": 83}, {"time": 4982, "pitch": 66, "duration": 23, "velocity": 73}], "annotations": [{"time": 9, "annotation": {"number": 64, "value": 127}, "group": "control_change"}, {"time": 52, "annotation": {"number": 64, "value": 0}, "group": "control_change"}, {"time": 60, "annotation": {"number": 64, "value": 127}, "group": "control_change"}, {"time": 99, "annotation": {"number": 64, "value": 0}, "group": "control_change"}, {"time": 104, "annotation": {"number": 64, "value": 127}, "group": "control_change"}, {"time": 148, "annotation": {"number": 64, "value": 0}, "group": "control_change"}, {"time": 157, "annotation": {"number": 64, "value": 127}, "group": "control_change"}, {"time": 195, "annotation": {"number": 64, "value": 0}, "group": "control_change"}, {"time": 199, "annotation": {"number": 64, "value": 127}, "group": "control_change"}, {"time": 243, "annotation": {"number": 64, "value": 0}, "group": "control_change"}, {"time": 247, "annotation": {"number": 64, "value": 127}, "group": "control_change"}, {"time": 290, "annotation": {"number": 64, "value": 0}, "group": "control_change"}, {"time": 294, "annotation": {"number": 64, "value": 127}, "group": "control_change"}, {"time": 338, "annotation": {"number": 64, "value": 0}, "group": "control_change"}, {"time": 342, "annotation": {"number": 64, "value": 127}, "group": "control_change"}, {"time": 387, "annotation": {"number": 64, "value": 0}, "group": "control_change"}, {"time": 393, "annotation": {"number": 64, "value": 127}, "group": "control_change"}, {"time": 393, "annotation": {"number": 64, "value": 0}, "group": "control_change"}, {"time": 435, "annotation": {"number": 64, "value": 0}, "group": "control_change"}, {"time": 441, "annotation": {"number": 64, "value": 127}, "group": "control_change"}, {"time": 483, "annotation": {"number": 64, "value": 0}, "group": "control_change"}, {"time": 488, "annotation": {"number": 64, "value": 127}, "group": "control_change"}, {"time": 533, "annotation": {"number": 64, "value": 0}, "group": "control_change"}, {"time": 537, "annotation": {"number": 64, "value": 127}, "group": "control_change"}, {"time": 577, "annotation": {"number": 64, "value": 0}, "group": "control_change"}, {"time": 582, "annotation": {"number": 64, "value": 127}, "group": "control_change"}, {"time": 627, "annotation": {"number": 64, "value": 0}, "group": "control_change"}, {"time": 630, "annotation": {"number": 64, "value": 127}, "group": "control_change"}, {"time": 676, "annotation": {"number": 64, "value": 0}, "group": "control_change"}, {"time": 679, "annotation": {"number": 64, "value": 127}, "group": "control_change"}, {"time": 723, "annotation": {"number": 64, "value": 0}, "group": "control_change"}, {"time": 728, "annotation": {"number": 64, "value": 127}, "group": "control_change"}, {"time": 769, "annotation": {"number": 64, "value": 0}, "group": "control_change"}, {"time": 774, "annotation": {"number": 64, "value": 127}, "group": "control_change"}, {"time": 819, "annotation": {"number": 64, "value": 0}, "group": "control_change"}, {"time": 822, "annotation": {"number": 64, "value": 127}, "group": "control_change"}, {"time": 867, "annotation": {"number": 64, "value": 0}, "group": "control_change"}, {"time": 871, "annotation": {"number": 64, "value": 127}, "group": "control_change"}, {"time": 915, "annotation": {"number": 64, "value": 0}, "group": "control_change"}, {"time": 921, "annotation": {"number": 64, "value": 127}, "group": "control_change"}, {"time": 962, "annotation": {"number": 64, "value": 0}, "group": "control_change"}, {"time": 965, "annotation": {"number": 64, "value": 127}, "group": "control_change"}, {"time": 1007, "annotation": {"number": 64, "value": 0}, "group": "control_change"}, {"time": 1011, "annotation": {"number": 64, "value": 127}, "group": "control_change"}, {"time": 1037, "annotation": {"number": 64, "value": 0}, "group": "control_change"}, {"time": 1042, "annotation": {"number": 64, "value": 127}, "group": "control_change"}, {"time": 1058, "annotation": {"number": 64, "value": 0}, "group": "control_change"}, {"time": 1062, "annotation": {"number": 64, "value": 127}, "group": "control_change"}, {"time": 1107, "annotation": {"number": 64, "value": 0}, "group": "control_change"}, {"time": 1111, "annotation": {"number": 64, "value": 127}, "group": "control_change"}, {"time": 1154, "annotation": {"number": 64, "value": 0}, "group": "control_change"}, {"time": 1158, "annotation": {"number": 64, "value": 127}, "group": "control_change"}, {"time": 1202, "annotation": {"number": 64, "value": 0}, "group": "control_change"}, {"time": 1212, "annotation": {"number": 64, "value": 127}, "group": "control_change"}, {"time": 1250, "annotation": {"number": 64, "value": 0}, "group": "control_change"}, {"time": 1254, "annotation": {"number": 64, "value": 127}, "group": "control_change"}, {"time": 1299, "annotation": {"number": 64, "value": 0}, "group": "control_change"}, {"time": 1308, "annotation": {"number": 64, "value": 127}, "group": "control_change"}, {"time": 1347, "annotation": {"number": 64, "value": 0}, "group": "control_change"}, {"time": 1351, "annotation": {"number": 64, "value": 127}, "group": "control_change"}, {"time": 1395, "annotation": {"number": 64, "value": 0}, "group": "control_change"}, {"time": 1400, "annotation": {"number": 64, "value": 127}, "group": "control_change"}, {"time": 1444, "annotation": {"number": 64, "value": 0}, "group": "control_change"}, {"time": 1447, "annotation": {"number": 64, "value": 127}, "group": "control_change"}, {"time": 1492, "annotation": {"number": 64, "value": 0}, "group": "control_change"}, {"time": 1495, "annotation": {"number": 64, "value": 127}, "group": "control_change"}, {"time": 1537, "annotation": {"number": 64, "value": 0}, "group": "control_change"}, {"time": 1542, "annotation": {"number": 64, "value": 127}, "group": "control_change"}, {"time": 1585, "annotation": {"number": 64, "value": 0}, "group": "control_change"}, {"time": 1588, "annotation": {"number": 64, "value": 127}, "group": "control_change"}, {"time": 1634, "annotation": {"number": 64, "value": 0}, "group": "control_change"}, {"time": 1638, "annotation": {"number": 64, "value": 127}, "group": "control_change"}, {"time": 1682, "annotation": {"number": 64, "value": 0}, "group": "control_change"}, {"time": 1687, "annotation": {"number": 64, "value": 127}, "group": "control_change"}, {"time": 1729, "annotation": {"number": 64, "value": 0}, "group": "control_change"}, {"time": 1732, "annotation": {"number": 64, "value": 127}, "group": "control_change"}, {"time": 1754, "annotation": {"number": 64, "value": 0}, "group": "control_change"}, {"time": 1757, "annotation": {"number": 64, "value": 127}, "group": "control_change"}, {"time": 1777, "annotation": {"number": 64, "value": 0}, "group": "control_change"}, {"time": 1782, "annotation": {"number": 64, "value": 127}, "group": "control_change"}, {"time": 1826, "annotation": {"number": 64, "value": 0}, "group": "control_change"}, {"time": 1831, "annotation": {"number": 64, "value": 127}, "group": "control_change"}, {"time": 1849, "annotation": {"number": 64, "value": 0}, "group": "control_change"}, {"time": 1853, "annotation": {"number": 64, "value": 127}, "group": "control_change"}, {"time": 1874, "annotation": {"number": 64, "value": 0}, "group": "control_change"}, {"time": 1876, "annotation": {"number": 64, "value": 127}, "group": "control_change"}, {"time": 1900, "annotation": {"number": 64, "value": 0}, "group": "control_change"}, {"time": 1903, "annotation": {"number": 64, "value": 127}, "group": "control_change"}, {"time": 1922, "annotation": {"number": 64, "value": 0}, "group": "control_change"}, {"time": 1925, "annotation": {"number": 64, "value": 127}, "group": "control_change"}, {"time": 1971, "annotation": {"number": 64, "value": 0}, "group": "control_change"}, {"time": 1974, "annotation": {"number": 64, "value": 127}, "group": "control_change"}, {"time": 2015, "annotation": {"number": 64, "value": 0}, "group": "control_change"}, {"time": 2025, "annotation": {"number": 64, "value": 127}, "group": "control_change"}, {"time": 2025, "annotation": {"number": 64, "value": 0}, "group": "control_change"}, {"time": 2067, "annotation": {"number": 64, "value": 0}, "group": "control_change"}, {"time": 2073, "annotation": {"number": 64, "value": 127}, "group": "control_change"}, {"time": 2115, "annotation": {"number": 64, "value": 0}, "group": "control_change"}, {"time": 2120, "annotation": {"number": 64, "value": 127}, "group": "control_change"}, {"time": 2165, "annotation": {"number": 64, "value": 0}, "group": "control_change"}, {"time": 2169, "annotation": {"number": 64, "value": 127}, "group": "control_change"}, {"time": 2209, "annotation": {"number": 64, "value": 0}, "group": "control_change"}, {"time": 2214, "annotation": {"number": 64, "value": 127}, "group": "control_change"}, {"time": 2259, "annotation": {"number": 64, "value": 0}, "group": "control_change"}, {"time": 2262, "annotation": {"number": 64, "value": 127}, "group": "control_change"}, {"time": 2308, "annotation": {"number": 64, "value": 0}, "group": "control_change"}, {"time": 2311, "annotation": {"number": 64, "value": 127}, "group": "control_change"}, {"time": 2355, "annotation": {"number": 64, "value": 0}, "group": "control_change"}, {"time": 2360, "annotation": {"number": 64, "value": 127}, "group": "control_change"}, {"time": 2401, "annotation": {"number": 64, "value": 0}, "group": "control_change"}, {"time": 2406, "annotation": {"number": 64, "value": 127}, "group": "control_change"}, {"time": 2451, "annotation": {"number": 64, "value": 0}, "group": "control_change"}, {"time": 2454, "annotation": {"number": 64, "value": 127}, "group": "control_change"}, {"time": 2499, "annotation": {"number": 64, "value": 0}, "group": "control_change"}, {"time": 2503, "annotation": {"number": 64, "value": 127}, "group": "control_change"}, {"time": 2547, "annotation": {"number": 64, "value": 0}, "group": "control_change"}, {"time": 2553, "annotation": {"number": 64, "value": 127}, "group": "control_change"}, {"time": 2594, "annotation": {"number": 64, "value": 0}, "group": "control_change"}, {"time": 2597, "annotation": {"number": 64, "value": 127}, "group": "control_change"}, {"time": 2639, "annotation": {"number": 64, "value": 0}, "group": "control_change"}, {"time": 2643, "annotation": {"number": 64, "value": 127}, "group": "control_change"}, {"time": 2669, "annotation": {"number": 64, "value": 0}, "group": "control_change"}, {"time": 2674, "annotation": {"number": 64, "value": 127}, "group": "control_change"}, {"time": 2690, "annotation": {"number": 64, "value": 0}, "group": "control_change"}, {"time": 2694, "annotation": {"number": 64, "value": 127}, "group": "control_change"}, {"time": 2739, "annotation": {"number": 64, "value": 0}, "group": "control_change"}, {"time": 2741, "annotation": {"number": 64, "value": 127}, "group": "control_change"}, {"time": 2786, "annotation": {"number": 64, "value": 0}, "group": "control_change"}, {"time": 2793, "annotation": {"number": 64, "value": 127}, "group": "control_change"}, {"time": 2793, "annotation": {"number": 64, "value": 0}, "group": "control_change"}, {"time": 2835, "annotation": {"number": 64, "value": 0}, "group": "control_change"}, {"time": 2841, "annotation": {"number": 64, "value": 127}, "group": "control_change"}, {"time": 2883, "annotation": {"number": 64, "value": 0}, "group": "control_change"}, {"time": 2888, "annotation": {"number": 64, "value": 127}, "group": "control_change"}, {"time": 2933, "annotation": {"number": 64, "value": 0}, "group": "control_change"}, {"time": 2937, "annotation": {"number": 64, "value": 127}, "group": "control_change"}, {"time": 2977, "annotation": {"number": 64, "value": 0}, "group": "control_change"}, {"time": 2982, "annotation": {"number": 64, "value": 127}, "group": "control_change"}, {"time": 3027, "annotation": {"number": 64, "value": 0}, "group": "control_change"}, {"time": 3030, "annotation": {"number": 64, "value": 127}, "group": "control_change"}, {"time": 3076, "annotation": {"number": 64, "value": 0}, "group": "control_change"}, {"time": 3079, "annotation": {"number": 64, "value": 127}, "group": "control_change"}, {"time": 3123, "annotation": {"number": 64, "value": 0}, "group": "control_change"}, {"time": 3128, "annotation": {"number": 64, "value": 127}, "group": "control_change"}, {"time": 3169, "annotation": {"number": 64, "value": 0}, "group": "control_change"}, {"time": 3174, "annotation": {"number": 64, "value": 127}, "group": "control_change"}, {"time": 3219, "annotation": {"number": 64, "value": 0}, "group": "control_change"}, {"time": 3222, "annotation": {"number": 64, "value": 127}, "group": "control_change"}, {"time": 3267, "annotation": {"number": 64, "value": 0}, "group": "control_change"}, {"time": 3271, "annotation": {"number": 64, "value": 127}, "group": "control_change"}, {"time": 3315, "annotation": {"number": 64, "value": 0}, "group": "control_change"}, {"time": 3321, "annotation": {"number": 64, "value": 127}, "group": "control_change"}, {"time": 3362, "annotation": {"number": 64, "value": 0}, "group": "control_change"}, {"time": 3365, "annotation": {"number": 64, "value": 127}, "group": "control_change"}, {"time": 3407, "annotation": {"number": 64, "value": 0}, "group": "control_change"}, {"time": 3411, "annotation": {"number": 64, "value": 127}, "group": "control_change"}, {"time": 3437, "annotation": {"number": 64, "value": 0}, "group": "control_change"}, {"time": 3442, "annotation": {"number": 64, "value": 127}, "group": "control_change"}, {"time": 3458, "annotation": {"number": 64, "value": 0}, "group": "control_change"}, {"time": 3462, "annotation": {"number": 64, "value": 127}, "group": "control_change"}, {"time": 3507, "annotation": {"number": 64, "value": 0}, "group": "control_change"}, {"time": 3511, "annotation": {"number": 64, "value": 127}, "group": "control_change"}, {"time": 3554, "annotation": {"number": 64, "value": 0}, "group": "control_change"}, {"time": 3558, "annotation": {"number": 64, "value": 127}, "group": "control_change"}, {"time": 3602, "annotation": {"number": 64, "value": 0}, "group": "control_change"}, {"time": 3612, "annotation": {"number": 64, "value": 127}, "group": "control_change"}, {"time": 3650, "annotation": {"number": 64, "value": 0}, "group": "control_change"}, {"time": 3654, "annotation": {"number": 64, "value": 127}, "group": "control_change"}, {"time": 3699, "annotation": {"number": 64, "value": 0}, "group": "control_change"}, {"time": 3708, "annotation": {"number": 64, "value": 127}, "group": "control_change"}, {"time": 3747, "annotation": {"number": 64, "value": 0}, "group": "control_change"}, {"time": 3751, "annotation": {"number": 64, "value": 127}, "group": "control_change"}, {"time": 3795, "annotation": {"number": 64, "value": 0}, "group": "control_change"}, {"time": 3800, "annotation": {"number": 64, "value": 127}, "group": "control_change"}, {"time": 3844, "annotation": {"number": 64, "value": 0}, "group": "control_change"}, {"time": 3847, "annotation": {"number": 64, "value": 127}, "group": "control_change"}, {"time": 3892, "annotation": {"number": 64, "value": 0}, "group": "control_change"}, {"time": 3895, "annotation": {"number": 64, "value": 127}, "group": "control_change"}, {"time": 3937, "annotation": {"number": 64, "value": 0}, "group": "control_change"}, {"time": 3942, "annotation": {"number": 64, "value": 127}, "group": "control_change"}, {"time": 3985, "annotation": {"number": 64, "value": 0}, "group": "control_change"}, {"time": 3988, "annotation": {"number": 64, "value": 127}, "group": "control_change"}, {"time": 4034, "annotation": {"number": 64, "value": 0}, "group": "control_change"}, {"time": 4038, "annotation": {"number": 64, "value": 127}, "group": "control_change"}, {"time": 4082, "annotation": {"number": 64, "value": 0}, "group": "control_change"}, {"time": 4087, "annotation": {"number": 64, "value": 127}, "group": "control_change"}, {"time": 4129, "annotation": {"number": 64, "value": 0}, "group": "control_change"}, {"time": 4132, "annotation": {"number": 64, "value": 127}, "group": "control_change"}, {"time": 4154, "annotation": {"number": 64, "value": 0}, "group": "control_change"}, {"time": 4157, "annotation": {"number": 64, "value": 127}, "group": "control_change"}, {"time": 4177, "annotation": {"number": 64, "value": 0}, "group": "control_change"}, {"time": 4182, "annotation": {"number": 64, "value": 127}, "group": "control_change"}, {"time": 4226, "annotation": {"number": 64, "value": 0}, "group": "control_change"}, {"time": 4231, "annotation": {"number": 64, "value": 127}, "group": "control_change"}, {"time": 4249, "annotation": {"number": 64, "value": 0}, "group": "control_change"}, {"time": 4253, "annotation": {"number": 64, "value": 127}, "group": "control_change"}, {"time": 4274, "annotation": {"number": 64, "value": 0}, "group": "control_change"}, {"time": 4276, "annotation": {"number": 64, "value": 127}, "group": "control_change"}, {"time": 4300, "annotation": {"number": 64, "value": 0}, "group": "control_change"}, {"time": 4303, "annotation": {"number": 64, "value": 127}, "group": "control_change"}, {"time": 4322, "annotation": {"number": 64, "value": 0}, "group": "control_change"}, {"time": 4325, "annotation": {"number": 64, "value": 127}, "group": "control_change"}, {"time": 4371, "annotation": {"number": 64, "value": 0}, "group": "control_change"}, {"time": 4374, "annotation": {"number": 64, "value": 127}, "group": "control_change"}, {"time": 4415, "annotation": {"number": 64, "value": 0}, "group": "control_change"}, {"time": 4421, "annotation": {"number": 64, "value": 127}, "group": "control_change"}, {"time": 4469, "annotation": {"number": 64, "value": 0}, "group": "control_change"}, {"time": 4473, "annotation": {"number": 64, "value": 127}, "group": "control_change"}, {"time": 4494, "annotation": {"number": 64, "value": 0}, "group": "control_change"}, {"time": 4500, "annotation": {"number": 64, "value": 127}, "group": "control_change"}, {"time": 4518, "annotation": {"number": 64, "value": 0}, "group": "control_change"}, {"time": 4523, "annotation": {"number": 64, "value": 127}, "group": "control_change"}, {"time": 4552, "annotation": {"number": 64, "value": 0}, "group": "control_change"}, {"time": 4556, "annotation": {"number": 64, "value": 127}, "group": "control_change"}, {"time": 4604, "annotation": {"number": 64, "value": 0}, "group": "control_change"}, {"time": 4644, "annotation": {"number": 64, "value": 127}, "group": "control_change"}, {"time": 4688, "annotation": {"number": 64, "value": 0}, "group": "control_change"}, {"time": 4695, "annotation": {"number": 64, "value": 127}, "group": "control_change"}, {"time": 4734, "annotation": {"number": 64, "value": 0}, "group": "control_change"}, {"time": 4739, "annotation": {"number": 64, "value": 127}, "group": "control_change"}, {"time": 4783, "annotation": {"number": 64, "value": 0}, "group": "control_change"}, {"time": 4793, "annotation": {"number": 64, "value": 127}, "group": "control_change"}, {"time": 4830, "annotation": {"number": 64, "value": 0}, "group": "control_change"}, {"time": 4834, "annotation": {"number": 64, "value": 127}, "group": "control_change"}, {"time": 4878, "annotation": {"number": 64, "value": 0}, "group": "control_change"}, {"time": 4882, "annotation": {"number": 64, "value": 127}, "group": "control_change"}, {"time": 4925, "annotation": {"number": 64, "value": 0}, "group": "control_change"}, {"time": 4929, "annotation": {"number": 64, "value": 127}, "group": "control_change"}, {"time": 4981, "annotation": {"number": 64, "value": 127}, "group": "control_change"}, {"time": 5036, "annotation": {"number": 64, "value": 0}, "group": "control_change"}]}]}