{"metadata": {"schema_version": "0.2", "title": "None", "source_filename": "820.mid", "source_format": "midi"}, "resolution": 12, "tempos": [{"time": 0, "qpm": 70.00007000007}], "time_signatures": [{"time": 0, "numerator": 1, "denominator": 4}], "tracks": [{"program": 4, "is_drum": false, "name": "MELODY", "notes": [{"time": 241, "pitch": 75, "duration": 6, "velocity": 83}, {"time": 247, "pitch": 71, "duration": 5, "velocity": 83}, {"time": 253, "pitch": 71, "duration": 6, "velocity": 82}, {"time": 259, "pitch": 66, "duration": 5, "velocity": 81}, {"time": 265, "pitch": 68, "duration": 5, "velocity": 83}, {"time": 271, "pitch": 68, "duration": 6, "velocity": 82}, {"time": 277, "pitch": 76, "duration": 5, "velocity": 86}, {"time": 283, "pitch": 75, "duration": 6, "velocity": 83}, {"time": 289, "pitch": 73, "duration": 5, "velocity": 91}, {"time": 295, "pitch": 73, "duration": 5, "velocity": 88}, {"time": 301, "pitch": 73, "duration": 3, "velocity": 87}, {"time": 304, "pitch": 73, "duration": 6, "velocity": 87}, {"time": 310, "pitch": 71, "duration": 3, "velocity": 84}, {"time": 313, "pitch": 75, "duration": 24, "velocity": 84}, {"time": 337, "pitch": 75, "duration": 6, "velocity": 87}, {"time": 343, "pitch": 71, "duration": 5, "velocity": 86}, {"time": 349, "pitch": 71, "duration": 6, "velocity": 83}, {"time": 355, "pitch": 66, "duration": 5, "velocity": 77}, {"time": 361, "pitch": 68, "duration": 5, "velocity": 83}, {"time": 367, "pitch": 68, "duration": 6, "velocity": 83}, {"time": 373, "pitch": 73, "duration": 5, "velocity": 86}, {"time": 379, "pitch": 71, "duration": 6, "velocity": 82}, {"time": 385, "pitch": 70, "duration": 5, "velocity": 83}, {"time": 391, "pitch": 71, "duration": 5, "velocity": 83}, {"time": 397, "pitch": 73, "duration": 4, "velocity": 84}, {"time": 400, "pitch": 78, "duration": 10, "velocity": 82}, {"time": 409, "pitch": 75, "duration": 20, "velocity": 82}, {"time": 433, "pitch": 78, "duration": 5, "velocity": 84}, {"time": 439, "pitch": 78, "duration": 4, "velocity": 79}, {"time": 445, "pitch": 78, "duration": 5, "velocity": 82}, {"time": 451, "pitch": 75, "duration": 5, "velocity": 84}, {"time": 457, "pitch": 75, "duration": 5, "velocity": 86}, {"time": 463, "pitch": 76, "duration": 2, "velocity": 78}, {"time": 466, "pitch": 76, "duration": 7, "velocity": 82}, {"time": 478, "pitch": 75, "duration": 3, "velocity": 83}, {"time": 481, "pitch": 73, "duration": 5, "velocity": 86}, {"time": 487, "pitch": 73, "duration": 5, "velocity": 89}, {"time": 493, "pitch": 73, "duration": 7, "velocity": 89}, {"time": 499, "pitch": 71, "duration": 4, "velocity": 82}, {"time": 502, "pitch": 75, "duration": 27, "velocity": 81}, {"time": 529, "pitch": 75, "duration": 6, "velocity": 84}, {"time": 535, "pitch": 71, "duration": 4, "velocity": 83}, {"time": 541, "pitch": 71, "duration": 6, "velocity": 83}, {"time": 547, "pitch": 66, "duration": 6, "velocity": 83}, {"time": 553, "pitch": 68, "duration": 5, "velocity": 81}, {"time": 559, "pitch": 68, "duration": 6, "velocity": 81}, {"time": 565, "pitch": 73, "duration": 5, "velocity": 88}, {"time": 571, "pitch": 71, "duration": 5, "velocity": 83}, {"time": 577, "pitch": 70, "duration": 5, "velocity": 83}, {"time": 583, "pitch": 71, "duration": 5, "velocity": 83}, {"time": 589, "pitch": 73, "duration": 6, "velocity": 87}, {"time": 595, "pitch": 70, "duration": 4, "velocity": 82}, {"time": 598, "pitch": 71, "duration": 21, "velocity": 83}, {"time": 817, "pitch": 75, "duration": 6, "velocity": 83}, {"time": 823, "pitch": 71, "duration": 5, "velocity": 83}, {"time": 829, "pitch": 71, "duration": 6, "velocity": 82}, {"time": 835, "pitch": 66, "duration": 5, "velocity": 81}, {"time": 841, "pitch": 68, "duration": 5, "velocity": 83}, {"time": 847, "pitch": 68, "duration": 6, "velocity": 82}, {"time": 853, "pitch": 76, "duration": 5, "velocity": 86}, {"time": 859, "pitch": 75, "duration": 6, "velocity": 83}, {"time": 865, "pitch": 73, "duration": 5, "velocity": 91}, {"time": 871, "pitch": 73, "duration": 5, "velocity": 88}, {"time": 877, "pitch": 73, "duration": 3, "velocity": 87}, {"time": 880, "pitch": 73, "duration": 6, "velocity": 87}, {"time": 886, "pitch": 71, "duration": 3, "velocity": 84}, {"time": 889, "pitch": 75, "duration": 24, "velocity": 84}, {"time": 913, "pitch": 75, "duration": 6, "velocity": 87}, {"time": 919, "pitch": 71, "duration": 5, "velocity": 86}, {"time": 925, "pitch": 71, "duration": 6, "velocity": 83}, {"time": 931, "pitch": 66, "duration": 5, "velocity": 77}, {"time": 937, "pitch": 68, "duration": 5, "velocity": 83}, {"time": 943, "pitch": 68, "duration": 6, "velocity": 83}, {"time": 949, "pitch": 73, "duration": 5, "velocity": 86}, {"time": 955, "pitch": 71, "duration": 6, "velocity": 82}, {"time": 961, "pitch": 70, "duration": 5, "velocity": 83}, {"time": 967, "pitch": 71, "duration": 5, "velocity": 83}, {"time": 973, "pitch": 73, "duration": 4, "velocity": 84}, {"time": 976, "pitch": 78, "duration": 10, "velocity": 82}, {"time": 985, "pitch": 75, "duration": 20, "velocity": 82}, {"time": 1009, "pitch": 78, "duration": 5, "velocity": 84}, {"time": 1015, "pitch": 78, "duration": 4, "velocity": 79}, {"time": 1021, "pitch": 78, "duration": 5, "velocity": 82}, {"time": 1027, "pitch": 75, "duration": 5, "velocity": 84}, {"time": 1033, "pitch": 75, "duration": 5, "velocity": 86}, {"time": 1039, "pitch": 76, "duration": 2, "velocity": 78}, {"time": 1042, "pitch": 76, "duration": 7, "velocity": 82}, {"time": 1054, "pitch": 75, "duration": 3, "velocity": 83}, {"time": 1057, "pitch": 73, "duration": 5, "velocity": 86}, {"time": 1063, "pitch": 73, "duration": 5, "velocity": 89}, {"time": 1069, "pitch": 73, "duration": 7, "velocity": 89}, {"time": 1075, "pitch": 71, "duration": 4, "velocity": 82}, {"time": 1078, "pitch": 75, "duration": 24, "velocity": 81}, {"time": 1105, "pitch": 75, "duration": 6, "velocity": 84}, {"time": 1111, "pitch": 71, "duration": 4, "velocity": 83}, {"time": 1117, "pitch": 71, "duration": 6, "velocity": 83}, {"time": 1123, "pitch": 66, "duration": 6, "velocity": 83}, {"time": 1129, "pitch": 68, "duration": 5, "velocity": 81}, {"time": 1135, "pitch": 68, "duration": 6, "velocity": 81}, {"time": 1141, "pitch": 73, "duration": 5, "velocity": 88}, {"time": 1147, "pitch": 71, "duration": 5, "velocity": 83}, {"time": 1153, "pitch": 70, "duration": 5, "velocity": 83}, {"time": 1159, "pitch": 71, "duration": 5, "velocity": 83}, {"time": 1165, "pitch": 73, "duration": 6, "velocity": 87}, {"time": 1171, "pitch": 70, "duration": 4, "velocity": 82}, {"time": 1174, "pitch": 71, "duration": 21, "velocity": 83}, {"time": 1201, "pitch": 78, "duration": 5, "velocity": 91}, {"time": 1207, "pitch": 78, "duration": 5, "velocity": 86}, {"time": 1213, "pitch": 78, "duration": 4, "velocity": 89}, {"time": 1219, "pitch": 78, "duration": 6, "velocity": 91}, {"time": 1225, "pitch": 83, "duration": 5, "velocity": 88}, {"time": 1231, "pitch": 82, "duration": 6, "velocity": 84}, {"time": 1237, "pitch": 80, "duration": 6, "velocity": 89}, {"time": 1243, "pitch": 78, "duration": 4, "velocity": 86}, {"time": 1249, "pitch": 78, "duration": 6, "velocity": 83}, {"time": 1255, "pitch": 73, "duration": 5, "velocity": 96}, {"time": 1261, "pitch": 75, "duration": 6, "velocity": 89}, {"time": 1267, "pitch": 76, "duration": 3, "velocity": 83}, {"time": 1270, "pitch": 75, "duration": 23, "velocity": 96}, {"time": 1297, "pitch": 75, "duration": 5, "velocity": 86}, {"time": 1303, "pitch": 71, "duration": 5, "velocity": 84}, {"time": 1309, "pitch": 71, "duration": 5, "velocity": 84}, {"time": 1315, "pitch": 71, "duration": 6, "velocity": 87}, {"time": 1321, "pitch": 70, "duration": 5, "velocity": 93}, {"time": 1327, "pitch": 71, "duration": 5, "velocity": 85}, {"time": 1333, "pitch": 73, "duration": 6, "velocity": 84}, {"time": 1339, "pitch": 71, "duration": 6, "velocity": 84}, {"time": 1345, "pitch": 70, "duration": 5, "velocity": 86}, {"time": 1351, "pitch": 71, "duration": 5, "velocity": 89}, {"time": 1357, "pitch": 73, "duration": 2, "velocity": 89}, {"time": 1360, "pitch": 78, "duration": 8, "velocity": 84}, {"time": 1369, "pitch": 78, "duration": 20, "velocity": 85}, {"time": 1393, "pitch": 78, "duration": 5, "velocity": 91}, {"time": 1399, "pitch": 78, "duration": 5, "velocity": 86}, {"time": 1405, "pitch": 78, "duration": 4, "velocity": 89}, {"time": 1411, "pitch": 78, "duration": 6, "velocity": 91}, {"time": 1417, "pitch": 83, "duration": 5, "velocity": 88}, {"time": 1423, "pitch": 82, "duration": 6, "velocity": 84}, {"time": 1429, "pitch": 80, "duration": 6, "velocity": 89}, {"time": 1435, "pitch": 78, "duration": 4, "velocity": 86}, {"time": 1441, "pitch": 78, "duration": 6, "velocity": 83}, {"time": 1447, "pitch": 73, "duration": 5, "velocity": 96}, {"time": 1453, "pitch": 75, "duration": 6, "velocity": 89}, {"time": 1459, "pitch": 76, "duration": 3, "velocity": 83}, {"time": 1462, "pitch": 75, "duration": 23, "velocity": 96}, {"time": 1489, "pitch": 75, "duration": 5, "velocity": 86}, {"time": 1495, "pitch": 71, "duration": 5, "velocity": 84}, {"time": 1501, "pitch": 71, "duration": 5, "velocity": 84}, {"time": 1507, "pitch": 66, "duration": 6, "velocity": 87}, {"time": 1513, "pitch": 68, "duration": 5, "velocity": 93}, {"time": 1519, "pitch": 68, "duration": 5, "velocity": 85}, {"time": 1525, "pitch": 73, "duration": 6, "velocity": 84}, {"time": 1531, "pitch": 71, "duration": 6, "velocity": 84}, {"time": 1537, "pitch": 70, "duration": 5, "velocity": 86}, {"time": 1543, "pitch": 71, "duration": 5, "velocity": 89}, {"time": 1549, "pitch": 73, "duration": 2, "velocity": 89}, {"time": 1552, "pitch": 70, "duration": 8, "velocity": 84}, {"time": 1561, "pitch": 71, "duration": 20, "velocity": 85}, {"time": 1585, "pitch": 78, "duration": 5, "velocity": 91}, {"time": 1591, "pitch": 78, "duration": 5, "velocity": 86}, {"time": 1597, "pitch": 78, "duration": 4, "velocity": 89}, {"time": 1603, "pitch": 78, "duration": 6, "velocity": 91}, {"time": 1609, "pitch": 83, "duration": 5, "velocity": 88}, {"time": 1615, "pitch": 82, "duration": 6, "velocity": 84}, {"time": 1621, "pitch": 80, "duration": 6, "velocity": 89}, {"time": 1627, "pitch": 78, "duration": 4, "velocity": 86}, {"time": 1633, "pitch": 78, "duration": 6, "velocity": 83}, {"time": 1639, "pitch": 73, "duration": 5, "velocity": 96}, {"time": 1645, "pitch": 75, "duration": 6, "velocity": 89}, {"time": 1651, "pitch": 76, "duration": 3, "velocity": 83}, {"time": 1654, "pitch": 75, "duration": 23, "velocity": 96}, {"time": 1681, "pitch": 75, "duration": 5, "velocity": 86}, {"time": 1687, "pitch": 71, "duration": 5, "velocity": 84}, {"time": 1693, "pitch": 71, "duration": 5, "velocity": 84}, {"time": 1699, "pitch": 71, "duration": 6, "velocity": 87}, {"time": 1705, "pitch": 70, "duration": 5, "velocity": 93}, {"time": 1711, "pitch": 71, "duration": 5, "velocity": 85}, {"time": 1717, "pitch": 73, "duration": 6, "velocity": 84}, {"time": 1723, "pitch": 71, "duration": 6, "velocity": 84}, {"time": 1729, "pitch": 70, "duration": 5, "velocity": 86}, {"time": 1735, "pitch": 71, "duration": 5, "velocity": 89}, {"time": 1741, "pitch": 73, "duration": 3, "velocity": 89}, {"time": 1744, "pitch": 78, "duration": 8, "velocity": 84}, {"time": 1753, "pitch": 78, "duration": 20, "velocity": 85}, {"time": 1777, "pitch": 78, "duration": 5, "velocity": 91}, {"time": 1783, "pitch": 78, "duration": 5, "velocity": 86}, {"time": 1789, "pitch": 78, "duration": 4, "velocity": 89}, {"time": 1795, "pitch": 78, "duration": 6, "velocity": 91}, {"time": 1801, "pitch": 83, "duration": 5, "velocity": 88}, {"time": 1807, "pitch": 82, "duration": 6, "velocity": 84}, {"time": 1813, "pitch": 80, "duration": 6, "velocity": 89}, {"time": 1819, "pitch": 78, "duration": 4, "velocity": 86}, {"time": 1825, "pitch": 78, "duration": 6, "velocity": 83}, {"time": 1831, "pitch": 73, "duration": 5, "velocity": 96}, {"time": 1837, "pitch": 75, "duration": 6, "velocity": 89}, {"time": 1843, "pitch": 76, "duration": 3, "velocity": 83}, {"time": 1846, "pitch": 75, "duration": 23, "velocity": 96}, {"time": 1873, "pitch": 75, "duration": 5, "velocity": 86}, {"time": 1879, "pitch": 71, "duration": 5, "velocity": 84}, {"time": 1885, "pitch": 71, "duration": 5, "velocity": 84}, {"time": 1891, "pitch": 66, "duration": 6, "velocity": 87}, {"time": 1897, "pitch": 68, "duration": 5, "velocity": 93}, {"time": 1903, "pitch": 68, "duration": 5, "velocity": 85}, {"time": 1909, "pitch": 73, "duration": 6, "velocity": 84}, {"time": 1915, "pitch": 71, "duration": 6, "velocity": 84}, {"time": 1921, "pitch": 70, "duration": 5, "velocity": 86}, {"time": 1927, "pitch": 71, "duration": 5, "velocity": 89}, {"time": 1933, "pitch": 73, "duration": 2, "velocity": 89}, {"time": 1936, "pitch": 70, "duration": 8, "velocity": 84}, {"time": 1945, "pitch": 71, "duration": 20, "velocity": 85}, {"time": 1969, "pitch": 75, "duration": 5, "velocity": 86}, {"time": 1975, "pitch": 71, "duration": 5, "velocity": 84}, {"time": 1981, "pitch": 71, "duration": 5, "velocity": 84}, {"time": 1987, "pitch": 66, "duration": 6, "velocity": 87}, {"time": 1993, "pitch": 68, "duration": 5, "velocity": 93}, {"time": 1999, "pitch": 68, "duration": 5, "velocity": 85}, {"time": 2005, "pitch": 73, "duration": 6, "velocity": 84}, {"time": 2011, "pitch": 71, "duration": 6, "velocity": 84}, {"time": 2017, "pitch": 70, "duration": 5, "velocity": 86}, {"time": 2023, "pitch": 71, "duration": 5, "velocity": 89}, {"time": 2029, "pitch": 73, "duration": 2, "velocity": 89}, {"time": 2032, "pitch": 71, "duration": 8, "velocity": 84}, {"time": 2041, "pitch": 75, "duration": 20, "velocity": 85}, {"time": 2065, "pitch": 75, "duration": 5, "velocity": 86}, {"time": 2071, "pitch": 71, "duration": 5, "velocity": 84}, {"time": 2077, "pitch": 71, "duration": 5, "velocity": 84}, {"time": 2083, "pitch": 66, "duration": 6, "velocity": 87}, {"time": 2089, "pitch": 68, "duration": 5, "velocity": 93}, {"time": 2095, "pitch": 68, "duration": 5, "velocity": 85}, {"time": 2101, "pitch": 73, "duration": 6, "velocity": 84}, {"time": 2107, "pitch": 71, "duration": 6, "velocity": 84}, {"time": 2113, "pitch": 70, "duration": 5, "velocity": 86}, {"time": 2119, "pitch": 71, "duration": 5, "velocity": 89}, {"time": 2125, "pitch": 73, "duration": 2, "velocity": 89}, {"time": 2128, "pitch": 70, "duration": 8, "velocity": 84}, {"time": 2137, "pitch": 71, "duration": 20, "velocity": 85}]}, {"program": 0, "is_drum": false, "name": "PIANO", "notes": [{"time": 49, "pitch": 47, "duration": 22, "velocity": 82}, {"time": 55, "pitch": 54, "duration": 16, "velocity": 70}, {"time": 61, "pitch": 59, "duration": 4, "velocity": 73}, {"time": 61, "pitch": 63, "duration": 14, "velocity": 76}, {"time": 61, "pitch": 66, "duration": 15, "velocity": 74}, {"time": 67, "pitch": 59, "duration": 7, "velocity": 72}, {"time": 73, "pitch": 47, "duration": 23, "velocity": 83}, {"time": 79, "pitch": 59, "duration": 11, "velocity": 85}, {"time": 85, "pitch": 52, "duration": 12, "velocity": 72}, {"time": 85, "pitch": 64, "duration": 14, "velocity": 72}, {"time": 85, "pitch": 68, "duration": 14, "velocity": 77}, {"time": 91, "pitch": 59, "duration": 7, "velocity": 75}, {"time": 97, "pitch": 49, "duration": 24, "velocity": 77}, {"time": 103, "pitch": 58, "duration": 8, "velocity": 72}, {"time": 109, "pitch": 61, "duration": 11, "velocity": 75}, {"time": 109, "pitch": 66, "duration": 12, "velocity": 71}, {"time": 115, "pitch": 58, "duration": 5, "velocity": 71}, {"time": 121, "pitch": 47, "duration": 21, "velocity": 78}, {"time": 127, "pitch": 59, "duration": 16, "velocity": 76}, {"time": 133, "pitch": 63, "duration": 10, "velocity": 78}, {"time": 133, "pitch": 66, "duration": 11, "velocity": 69}, {"time": 145, "pitch": 47, "duration": 23, "velocity": 78}, {"time": 151, "pitch": 54, "duration": 8, "velocity": 74}, {"time": 157, "pitch": 59, "duration": 12, "velocity": 76}, {"time": 157, "pitch": 63, "duration": 12, "velocity": 77}, {"time": 163, "pitch": 54, "duration": 5, "velocity": 74}, {"time": 169, "pitch": 47, "duration": 22, "velocity": 82}, {"time": 175, "pitch": 59, "duration": 10, "velocity": 79}, {"time": 181, "pitch": 64, "duration": 12, "velocity": 76}, {"time": 181, "pitch": 68, "duration": 12, "velocity": 80}, {"time": 187, "pitch": 59, "duration": 7, "velocity": 73}, {"time": 193, "pitch": 46, "duration": 23, "velocity": 80}, {"time": 199, "pitch": 58, "duration": 9, "velocity": 77}, {"time": 205, "pitch": 61, "duration": 12, "velocity": 74}, {"time": 205, "pitch": 66, "duration": 13, "velocity": 73}, {"time": 211, "pitch": 58, "duration": 5, "velocity": 68}, {"time": 217, "pitch": 47, "duration": 24, "velocity": 83}, {"time": 223, "pitch": 54, "duration": 18, "velocity": 80}, {"time": 229, "pitch": 59, "duration": 12, "velocity": 72}, {"time": 229, "pitch": 63, "duration": 12, "velocity": 69}, {"time": 241, "pitch": 47, "duration": 22, "velocity": 82}, {"time": 247, "pitch": 54, "duration": 16, "velocity": 70}, {"time": 253, "pitch": 59, "duration": 4, "velocity": 73}, {"time": 253, "pitch": 63, "duration": 14, "velocity": 76}, {"time": 253, "pitch": 66, "duration": 15, "velocity": 74}, {"time": 259, "pitch": 59, "duration": 7, "velocity": 72}, {"time": 265, "pitch": 47, "duration": 23, "velocity": 83}, {"time": 271, "pitch": 59, "duration": 11, "velocity": 85}, {"time": 277, "pitch": 52, "duration": 12, "velocity": 72}, {"time": 277, "pitch": 64, "duration": 14, "velocity": 72}, {"time": 277, "pitch": 68, "duration": 14, "velocity": 77}, {"time": 283, "pitch": 59, "duration": 7, "velocity": 75}, {"time": 289, "pitch": 49, "duration": 24, "velocity": 77}, {"time": 295, "pitch": 58, "duration": 8, "velocity": 72}, {"time": 301, "pitch": 61, "duration": 11, "velocity": 75}, {"time": 301, "pitch": 66, "duration": 12, "velocity": 71}, {"time": 307, "pitch": 58, "duration": 5, "velocity": 71}, {"time": 313, "pitch": 47, "duration": 21, "velocity": 78}, {"time": 319, "pitch": 59, "duration": 16, "velocity": 76}, {"time": 325, "pitch": 63, "duration": 10, "velocity": 78}, {"time": 325, "pitch": 66, "duration": 11, "velocity": 69}, {"time": 337, "pitch": 47, "duration": 23, "velocity": 78}, {"time": 343, "pitch": 54, "duration": 8, "velocity": 74}, {"time": 349, "pitch": 59, "duration": 12, "velocity": 76}, {"time": 349, "pitch": 63, "duration": 12, "velocity": 77}, {"time": 355, "pitch": 54, "duration": 5, "velocity": 74}, {"time": 361, "pitch": 47, "duration": 22, "velocity": 82}, {"time": 367, "pitch": 59, "duration": 10, "velocity": 79}, {"time": 373, "pitch": 64, "duration": 12, "velocity": 76}, {"time": 373, "pitch": 68, "duration": 12, "velocity": 80}, {"time": 379, "pitch": 59, "duration": 7, "velocity": 73}, {"time": 385, "pitch": 46, "duration": 23, "velocity": 80}, {"time": 391, "pitch": 58, "duration": 9, "velocity": 77}, {"time": 397, "pitch": 61, "duration": 12, "velocity": 74}, {"time": 397, "pitch": 66, "duration": 13, "velocity": 73}, {"time": 403, "pitch": 58, "duration": 5, "velocity": 68}, {"time": 409, "pitch": 47, "duration": 24, "velocity": 83}, {"time": 415, "pitch": 54, "duration": 18, "velocity": 80}, {"time": 421, "pitch": 59, "duration": 12, "velocity": 72}, {"time": 421, "pitch": 63, "duration": 12, "velocity": 69}, {"time": 433, "pitch": 47, "duration": 22, "velocity": 82}, {"time": 439, "pitch": 54, "duration": 16, "velocity": 70}, {"time": 445, "pitch": 59, "duration": 4, "velocity": 73}, {"time": 445, "pitch": 63, "duration": 14, "velocity": 76}, {"time": 445, "pitch": 66, "duration": 15, "velocity": 74}, {"time": 451, "pitch": 59, "duration": 7, "velocity": 72}, {"time": 457, "pitch": 47, "duration": 23, "velocity": 83}, {"time": 463, "pitch": 59, "duration": 11, "velocity": 85}, {"time": 469, "pitch": 52, "duration": 12, "velocity": 72}, {"time": 469, "pitch": 64, "duration": 14, "velocity": 72}, {"time": 469, "pitch": 68, "duration": 14, "velocity": 77}, {"time": 475, "pitch": 59, "duration": 7, "velocity": 75}, {"time": 481, "pitch": 49, "duration": 24, "velocity": 77}, {"time": 487, "pitch": 58, "duration": 8, "velocity": 72}, {"time": 493, "pitch": 61, "duration": 11, "velocity": 75}, {"time": 493, "pitch": 66, "duration": 12, "velocity": 71}, {"time": 499, "pitch": 58, "duration": 5, "velocity": 71}, {"time": 505, "pitch": 47, "duration": 21, "velocity": 78}, {"time": 511, "pitch": 59, "duration": 16, "velocity": 76}, {"time": 517, "pitch": 63, "duration": 10, "velocity": 78}, {"time": 517, "pitch": 66, "duration": 11, "velocity": 69}, {"time": 529, "pitch": 47, "duration": 23, "velocity": 78}, {"time": 535, "pitch": 54, "duration": 8, "velocity": 74}, {"time": 541, "pitch": 59, "duration": 12, "velocity": 76}, {"time": 541, "pitch": 63, "duration": 12, "velocity": 77}, {"time": 547, "pitch": 54, "duration": 5, "velocity": 74}, {"time": 553, "pitch": 47, "duration": 22, "velocity": 82}, {"time": 559, "pitch": 59, "duration": 10, "velocity": 79}, {"time": 565, "pitch": 64, "duration": 12, "velocity": 76}, {"time": 565, "pitch": 68, "duration": 12, "velocity": 80}, {"time": 571, "pitch": 59, "duration": 7, "velocity": 73}, {"time": 577, "pitch": 46, "duration": 23, "velocity": 80}, {"time": 583, "pitch": 58, "duration": 9, "velocity": 77}, {"time": 589, "pitch": 61, "duration": 12, "velocity": 74}, {"time": 589, "pitch": 66, "duration": 13, "velocity": 73}, {"time": 595, "pitch": 58, "duration": 5, "velocity": 68}, {"time": 601, "pitch": 47, "duration": 24, "velocity": 83}, {"time": 607, "pitch": 54, "duration": 18, "velocity": 80}, {"time": 613, "pitch": 59, "duration": 12, "velocity": 72}, {"time": 613, "pitch": 63, "duration": 12, "velocity": 69}, {"time": 625, "pitch": 47, "duration": 22, "velocity": 82}, {"time": 631, "pitch": 54, "duration": 16, "velocity": 70}, {"time": 637, "pitch": 59, "duration": 4, "velocity": 73}, {"time": 637, "pitch": 63, "duration": 14, "velocity": 76}, {"time": 637, "pitch": 66, "duration": 15, "velocity": 74}, {"time": 643, "pitch": 59, "duration": 7, "velocity": 72}, {"time": 649, "pitch": 47, "duration": 23, "velocity": 83}, {"time": 655, "pitch": 59, "duration": 11, "velocity": 85}, {"time": 661, "pitch": 52, "duration": 12, "velocity": 72}, {"time": 661, "pitch": 64, "duration": 14, "velocity": 72}, {"time": 661, "pitch": 68, "duration": 14, "velocity": 77}, {"time": 667, "pitch": 59, "duration": 7, "velocity": 75}, {"time": 673, "pitch": 49, "duration": 24, "velocity": 77}, {"time": 679, "pitch": 58, "duration": 8, "velocity": 72}, {"time": 685, "pitch": 61, "duration": 11, "velocity": 75}, {"time": 685, "pitch": 66, "duration": 12, "velocity": 71}, {"time": 691, "pitch": 58, "duration": 5, "velocity": 71}, {"time": 697, "pitch": 47, "duration": 21, "velocity": 78}, {"time": 703, "pitch": 59, "duration": 16, "velocity": 76}, {"time": 709, "pitch": 63, "duration": 10, "velocity": 78}, {"time": 709, "pitch": 66, "duration": 11, "velocity": 69}, {"time": 721, "pitch": 47, "duration": 23, "velocity": 78}, {"time": 727, "pitch": 54, "duration": 8, "velocity": 74}, {"time": 733, "pitch": 59, "duration": 12, "velocity": 76}, {"time": 733, "pitch": 63, "duration": 12, "velocity": 77}, {"time": 739, "pitch": 54, "duration": 5, "velocity": 74}, {"time": 745, "pitch": 47, "duration": 22, "velocity": 82}, {"time": 751, "pitch": 59, "duration": 10, "velocity": 79}, {"time": 757, "pitch": 64, "duration": 12, "velocity": 76}, {"time": 757, "pitch": 68, "duration": 12, "velocity": 80}, {"time": 763, "pitch": 59, "duration": 7, "velocity": 73}, {"time": 769, "pitch": 46, "duration": 23, "velocity": 80}, {"time": 775, "pitch": 58, "duration": 9, "velocity": 77}, {"time": 781, "pitch": 61, "duration": 12, "velocity": 74}, {"time": 781, "pitch": 66, "duration": 13, "velocity": 73}, {"time": 787, "pitch": 58, "duration": 5, "velocity": 68}, {"time": 793, "pitch": 47, "duration": 24, "velocity": 83}, {"time": 799, "pitch": 54, "duration": 18, "velocity": 80}, {"time": 805, "pitch": 59, "duration": 12, "velocity": 72}, {"time": 805, "pitch": 63, "duration": 12, "velocity": 69}, {"time": 817, "pitch": 47, "duration": 17, "velocity": 83}, {"time": 817, "pitch": 54, "duration": 4, "velocity": 72}, {"time": 817, "pitch": 59, "duration": 8, "velocity": 67}, {"time": 823, "pitch": 54, "duration": 5, "velocity": 82}, {"time": 829, "pitch": 63, "duration": 4, "velocity": 84}, {"time": 832, "pitch": 59, "duration": 4, "velocity": 86}, {"time": 835, "pitch": 54, "duration": 3, "velocity": 84}, {"time": 841, "pitch": 40, "duration": 19, "velocity": 79}, {"time": 841, "pitch": 52, "duration": 14, "velocity": 75}, {"time": 841, "pitch": 56, "duration": 8, "velocity": 72}, {"time": 847, "pitch": 47, "duration": 11, "velocity": 65}, {"time": 853, "pitch": 64, "duration": 5, "velocity": 82}, {"time": 856, "pitch": 59, "duration": 4, "velocity": 78}, {"time": 859, "pitch": 52, "duration": 2, "velocity": 83}, {"time": 865, "pitch": 42, "duration": 22, "velocity": 81}, {"time": 865, "pitch": 54, "duration": 12, "velocity": 76}, {"time": 865, "pitch": 58, "duration": 7, "velocity": 75}, {"time": 871, "pitch": 49, "duration": 14, "velocity": 70}, {"time": 877, "pitch": 61, "duration": 4, "velocity": 77}, {"time": 880, "pitch": 58, "duration": 4, "velocity": 77}, {"time": 883, "pitch": 54, "duration": 5, "velocity": 82}, {"time": 889, "pitch": 47, "duration": 20, "velocity": 82}, {"time": 889, "pitch": 59, "duration": 7, "velocity": 77}, {"time": 895, "pitch": 54, "duration": 5, "velocity": 78}, {"time": 901, "pitch": 54, "duration": 7, "velocity": 80}, {"time": 901, "pitch": 63, "duration": 8, "velocity": 82}, {"time": 907, "pitch": 59, "duration": 4, "velocity": 71}, {"time": 910, "pitch": 54, "duration": 4, "velocity": 74}, {"time": 913, "pitch": 47, "duration": 17, "velocity": 86}, {"time": 913, "pitch": 59, "duration": 7, "velocity": 73}, {"time": 919, "pitch": 54, "duration": 8, "velocity": 78}, {"time": 925, "pitch": 63, "duration": 4, "velocity": 82}, {"time": 928, "pitch": 59, "duration": 4, "velocity": 82}, {"time": 931, "pitch": 54, "duration": 3, "velocity": 83}, {"time": 937, "pitch": 40, "duration": 18, "velocity": 77}, {"time": 937, "pitch": 56, "duration": 6, "velocity": 73}, {"time": 937, "pitch": 59, "duration": 11, "velocity": 75}, {"time": 943, "pitch": 47, "duration": 11, "velocity": 76}, {"time": 949, "pitch": 64, "duration": 4, "velocity": 83}, {"time": 952, "pitch": 59, "duration": 4, "velocity": 82}, {"time": 955, "pitch": 56, "duration": 3, "velocity": 81}, {"time": 961, "pitch": 42, "duration": 21, "velocity": 79}, {"time": 961, "pitch": 54, "duration": 8, "velocity": 71}, {"time": 961, "pitch": 58, "duration": 8, "velocity": 75}, {"time": 967, "pitch": 49, "duration": 14, "velocity": 70}, {"time": 973, "pitch": 54, "duration": 2, "velocity": 76}, {"time": 973, "pitch": 61, "duration": 10, "velocity": 78}, {"time": 979, "pitch": 54, "duration": 4, "velocity": 74}, {"time": 985, "pitch": 47, "duration": 24, "velocity": 77}, {"time": 985, "pitch": 59, "duration": 7, "velocity": 74}, {"time": 991, "pitch": 54, "duration": 8, "velocity": 79}, {"time": 997, "pitch": 63, "duration": 4, "velocity": 84}, {"time": 1000, "pitch": 59, "duration": 5, "velocity": 82}, {"time": 1003, "pitch": 54, "duration": 5, "velocity": 86}, {"time": 1009, "pitch": 47, "duration": 17, "velocity": 83}, {"time": 1009, "pitch": 54, "duration": 4, "velocity": 72}, {"time": 1009, "pitch": 59, "duration": 8, "velocity": 67}, {"time": 1015, "pitch": 54, "duration": 5, "velocity": 82}, {"time": 1021, "pitch": 63, "duration": 4, "velocity": 84}, {"time": 1024, "pitch": 59, "duration": 4, "velocity": 86}, {"time": 1027, "pitch": 54, "duration": 3, "velocity": 84}, {"time": 1033, "pitch": 40, "duration": 19, "velocity": 79}, {"time": 1033, "pitch": 52, "duration": 14, "velocity": 75}, {"time": 1033, "pitch": 56, "duration": 8, "velocity": 72}, {"time": 1039, "pitch": 47, "duration": 11, "velocity": 65}, {"time": 1045, "pitch": 64, "duration": 5, "velocity": 82}, {"time": 1048, "pitch": 59, "duration": 4, "velocity": 78}, {"time": 1051, "pitch": 52, "duration": 2, "velocity": 83}, {"time": 1057, "pitch": 42, "duration": 22, "velocity": 81}, {"time": 1057, "pitch": 54, "duration": 12, "velocity": 76}, {"time": 1057, "pitch": 58, "duration": 7, "velocity": 75}, {"time": 1063, "pitch": 49, "duration": 14, "velocity": 70}, {"time": 1069, "pitch": 61, "duration": 4, "velocity": 77}, {"time": 1072, "pitch": 58, "duration": 4, "velocity": 77}, {"time": 1075, "pitch": 54, "duration": 5, "velocity": 82}, {"time": 1081, "pitch": 47, "duration": 20, "velocity": 82}, {"time": 1081, "pitch": 59, "duration": 7, "velocity": 77}, {"time": 1087, "pitch": 54, "duration": 5, "velocity": 78}, {"time": 1093, "pitch": 54, "duration": 7, "velocity": 80}, {"time": 1093, "pitch": 63, "duration": 8, "velocity": 82}, {"time": 1099, "pitch": 59, "duration": 4, "velocity": 71}, {"time": 1102, "pitch": 54, "duration": 4, "velocity": 74}, {"time": 1105, "pitch": 47, "duration": 17, "velocity": 86}, {"time": 1105, "pitch": 59, "duration": 7, "velocity": 73}, {"time": 1111, "pitch": 54, "duration": 8, "velocity": 78}, {"time": 1117, "pitch": 63, "duration": 4, "velocity": 82}, {"time": 1120, "pitch": 59, "duration": 4, "velocity": 82}, {"time": 1123, "pitch": 54, "duration": 3, "velocity": 83}, {"time": 1129, "pitch": 40, "duration": 18, "velocity": 77}, {"time": 1129, "pitch": 56, "duration": 6, "velocity": 73}, {"time": 1129, "pitch": 59, "duration": 11, "velocity": 75}, {"time": 1135, "pitch": 47, "duration": 11, "velocity": 76}, {"time": 1141, "pitch": 64, "duration": 4, "velocity": 83}, {"time": 1144, "pitch": 59, "duration": 4, "velocity": 82}, {"time": 1147, "pitch": 56, "duration": 3, "velocity": 81}, {"time": 1153, "pitch": 42, "duration": 21, "velocity": 79}, {"time": 1153, "pitch": 54, "duration": 8, "velocity": 71}, {"time": 1153, "pitch": 58, "duration": 8, "velocity": 75}, {"time": 1159, "pitch": 49, "duration": 14, "velocity": 70}, {"time": 1165, "pitch": 54, "duration": 2, "velocity": 76}, {"time": 1165, "pitch": 61, "duration": 10, "velocity": 78}, {"time": 1171, "pitch": 54, "duration": 4, "velocity": 74}, {"time": 1177, "pitch": 47, "duration": 24, "velocity": 77}, {"time": 1177, "pitch": 59, "duration": 7, "velocity": 74}, {"time": 1183, "pitch": 54, "duration": 8, "velocity": 79}, {"time": 1189, "pitch": 63, "duration": 4, "velocity": 84}, {"time": 1192, "pitch": 59, "duration": 5, "velocity": 82}, {"time": 1195, "pitch": 54, "duration": 5, "velocity": 86}, {"time": 1201, "pitch": 47, "duration": 17, "velocity": 83}, {"time": 1201, "pitch": 54, "duration": 4, "velocity": 72}, {"time": 1201, "pitch": 59, "duration": 8, "velocity": 67}, {"time": 1207, "pitch": 54, "duration": 5, "velocity": 82}, {"time": 1213, "pitch": 63, "duration": 4, "velocity": 84}, {"time": 1216, "pitch": 59, "duration": 4, "velocity": 86}, {"time": 1219, "pitch": 54, "duration": 3, "velocity": 84}, {"time": 1225, "pitch": 40, "duration": 19, "velocity": 79}, {"time": 1225, "pitch": 52, "duration": 14, "velocity": 75}, {"time": 1225, "pitch": 56, "duration": 8, "velocity": 72}, {"time": 1231, "pitch": 47, "duration": 11, "velocity": 65}, {"time": 1237, "pitch": 64, "duration": 5, "velocity": 82}, {"time": 1240, "pitch": 59, "duration": 4, "velocity": 78}, {"time": 1243, "pitch": 52, "duration": 2, "velocity": 83}, {"time": 1249, "pitch": 42, "duration": 22, "velocity": 81}, {"time": 1249, "pitch": 54, "duration": 12, "velocity": 76}, {"time": 1249, "pitch": 58, "duration": 7, "velocity": 75}, {"time": 1255, "pitch": 49, "duration": 14, "velocity": 70}, {"time": 1261, "pitch": 61, "duration": 4, "velocity": 77}, {"time": 1264, "pitch": 58, "duration": 4, "velocity": 77}, {"time": 1267, "pitch": 54, "duration": 5, "velocity": 82}, {"time": 1273, "pitch": 47, "duration": 20, "velocity": 82}, {"time": 1273, "pitch": 59, "duration": 7, "velocity": 77}, {"time": 1279, "pitch": 54, "duration": 5, "velocity": 78}, {"time": 1285, "pitch": 54, "duration": 7, "velocity": 80}, {"time": 1285, "pitch": 63, "duration": 8, "velocity": 82}, {"time": 1291, "pitch": 59, "duration": 4, "velocity": 71}, {"time": 1294, "pitch": 54, "duration": 4, "velocity": 74}, {"time": 1297, "pitch": 51, "duration": 18, "velocity": 87}, {"time": 1297, "pitch": 63, "duration": 7, "velocity": 83}, {"time": 1297, "pitch": 66, "duration": 7, "velocity": 81}, {"time": 1303, "pitch": 58, "duration": 3, "velocity": 80}, {"time": 1309, "pitch": 58, "duration": 3, "velocity": 84}, {"time": 1309, "pitch": 66, "duration": 4, "velocity": 83}, {"time": 1312, "pitch": 63, "duration": 3, "velocity": 86}, {"time": 1315, "pitch": 58, "duration": 2, "velocity": 84}, {"time": 1321, "pitch": 40, "duration": 20, "velocity": 82}, {"time": 1321, "pitch": 52, "duration": 8, "velocity": 74}, {"time": 1321, "pitch": 56, "duration": 8, "velocity": 82}, {"time": 1327, "pitch": 47, "duration": 9, "velocity": 75}, {"time": 1333, "pitch": 52, "duration": 8, "velocity": 82}, {"time": 1333, "pitch": 59, "duration": 10, "velocity": 82}, {"time": 1339, "pitch": 47, "duration": 4, "velocity": 88}, {"time": 1342, "pitch": 56, "duration": 9, "velocity": 78}, {"time": 1345, "pitch": 42, "duration": 16, "velocity": 84}, {"time": 1351, "pitch": 54, "duration": 5, "velocity": 78}, {"time": 1357, "pitch": 54, "duration": 3, "velocity": 82}, {"time": 1357, "pitch": 58, "duration": 4, "velocity": 83}, {"time": 1357, "pitch": 61, "duration": 5, "velocity": 82}, {"time": 1360, "pitch": 49, "duration": 5, "velocity": 82}, {"time": 1363, "pitch": 54, "duration": 4, "velocity": 82}, {"time": 1369, "pitch": 47, "duration": 21, "velocity": 83}, {"time": 1369, "pitch": 54, "duration": 3, "velocity": 78}, {"time": 1369, "pitch": 59, "duration": 7, "velocity": 77}, {"time": 1375, "pitch": 54, "duration": 8, "velocity": 78}, {"time": 1381, "pitch": 63, "duration": 4, "velocity": 88}, {"time": 1384, "pitch": 59, "duration": 3, "velocity": 88}, {"time": 1387, "pitch": 54, "duration": 6, "velocity": 84}, {"time": 1390, "pitch": 59, "duration": 3, "velocity": 78}, {"time": 1393, "pitch": 47, "duration": 17, "velocity": 83}, {"time": 1393, "pitch": 54, "duration": 4, "velocity": 72}, {"time": 1393, "pitch": 59, "duration": 8, "velocity": 67}, {"time": 1399, "pitch": 54, "duration": 5, "velocity": 82}, {"time": 1405, "pitch": 63, "duration": 4, "velocity": 84}, {"time": 1408, "pitch": 59, "duration": 4, "velocity": 86}, {"time": 1411, "pitch": 54, "duration": 3, "velocity": 84}, {"time": 1417, "pitch": 40, "duration": 19, "velocity": 79}, {"time": 1417, "pitch": 52, "duration": 14, "velocity": 75}, {"time": 1417, "pitch": 56, "duration": 8, "velocity": 72}, {"time": 1423, "pitch": 47, "duration": 11, "velocity": 65}, {"time": 1429, "pitch": 64, "duration": 5, "velocity": 82}, {"time": 1432, "pitch": 59, "duration": 4, "velocity": 78}, {"time": 1435, "pitch": 52, "duration": 2, "velocity": 83}, {"time": 1441, "pitch": 42, "duration": 22, "velocity": 81}, {"time": 1441, "pitch": 54, "duration": 12, "velocity": 76}, {"time": 1441, "pitch": 58, "duration": 7, "velocity": 75}, {"time": 1447, "pitch": 49, "duration": 14, "velocity": 70}, {"time": 1453, "pitch": 61, "duration": 4, "velocity": 77}, {"time": 1456, "pitch": 58, "duration": 4, "velocity": 77}, {"time": 1459, "pitch": 54, "duration": 5, "velocity": 82}, {"time": 1465, "pitch": 44, "duration": 24, "velocity": 82}, {"time": 1465, "pitch": 56, "duration": 7, "velocity": 76}, {"time": 1465, "pitch": 63, "duration": 7, "velocity": 82}, {"time": 1471, "pitch": 51, "duration": 8, "velocity": 70}, {"time": 1477, "pitch": 59, "duration": 6, "velocity": 89}, {"time": 1477, "pitch": 63, "duration": 8, "velocity": 86}, {"time": 1480, "pitch": 51, "duration": 9, "velocity": 84}, {"time": 1483, "pitch": 56, "duration": 4, "velocity": 82}, {"time": 1486, "pitch": 59, "duration": 3, "velocity": 75}, {"time": 1489, "pitch": 51, "duration": 18, "velocity": 87}, {"time": 1489, "pitch": 63, "duration": 7, "velocity": 83}, {"time": 1489, "pitch": 66, "duration": 7, "velocity": 81}, {"time": 1495, "pitch": 58, "duration": 3, "velocity": 80}, {"time": 1501, "pitch": 58, "duration": 3, "velocity": 84}, {"time": 1501, "pitch": 66, "duration": 4, "velocity": 83}, {"time": 1504, "pitch": 63, "duration": 3, "velocity": 86}, {"time": 1507, "pitch": 58, "duration": 2, "velocity": 84}, {"time": 1513, "pitch": 40, "duration": 20, "velocity": 82}, {"time": 1513, "pitch": 52, "duration": 8, "velocity": 74}, {"time": 1513, "pitch": 56, "duration": 8, "velocity": 82}, {"time": 1519, "pitch": 47, "duration": 9, "velocity": 75}, {"time": 1525, "pitch": 52, "duration": 8, "velocity": 82}, {"time": 1525, "pitch": 59, "duration": 10, "velocity": 82}, {"time": 1531, "pitch": 47, "duration": 4, "velocity": 88}, {"time": 1534, "pitch": 56, "duration": 9, "velocity": 78}, {"time": 1537, "pitch": 42, "duration": 16, "velocity": 84}, {"time": 1543, "pitch": 54, "duration": 5, "velocity": 78}, {"time": 1549, "pitch": 54, "duration": 3, "velocity": 82}, {"time": 1549, "pitch": 58, "duration": 4, "velocity": 83}, {"time": 1549, "pitch": 61, "duration": 5, "velocity": 82}, {"time": 1552, "pitch": 49, "duration": 5, "velocity": 82}, {"time": 1555, "pitch": 54, "duration": 4, "velocity": 82}, {"time": 1561, "pitch": 47, "duration": 21, "velocity": 83}, {"time": 1561, "pitch": 54, "duration": 3, "velocity": 78}, {"time": 1561, "pitch": 59, "duration": 7, "velocity": 77}, {"time": 1567, "pitch": 54, "duration": 8, "velocity": 78}, {"time": 1573, "pitch": 63, "duration": 4, "velocity": 88}, {"time": 1576, "pitch": 59, "duration": 3, "velocity": 88}, {"time": 1579, "pitch": 54, "duration": 6, "velocity": 84}, {"time": 1582, "pitch": 59, "duration": 3, "velocity": 78}, {"time": 1585, "pitch": 47, "duration": 17, "velocity": 83}, {"time": 1585, "pitch": 54, "duration": 4, "velocity": 72}, {"time": 1585, "pitch": 59, "duration": 8, "velocity": 67}, {"time": 1591, "pitch": 54, "duration": 5, "velocity": 82}, {"time": 1597, "pitch": 63, "duration": 4, "velocity": 84}, {"time": 1600, "pitch": 59, "duration": 4, "velocity": 86}, {"time": 1603, "pitch": 54, "duration": 3, "velocity": 84}, {"time": 1609, "pitch": 40, "duration": 19, "velocity": 79}, {"time": 1609, "pitch": 52, "duration": 14, "velocity": 75}, {"time": 1609, "pitch": 56, "duration": 8, "velocity": 72}, {"time": 1615, "pitch": 47, "duration": 11, "velocity": 65}, {"time": 1621, "pitch": 64, "duration": 5, "velocity": 82}, {"time": 1624, "pitch": 59, "duration": 4, "velocity": 78}, {"time": 1627, "pitch": 52, "duration": 2, "velocity": 83}, {"time": 1633, "pitch": 42, "duration": 22, "velocity": 81}, {"time": 1633, "pitch": 54, "duration": 12, "velocity": 76}, {"time": 1633, "pitch": 58, "duration": 7, "velocity": 75}, {"time": 1639, "pitch": 49, "duration": 14, "velocity": 70}, {"time": 1645, "pitch": 61, "duration": 4, "velocity": 77}, {"time": 1648, "pitch": 58, "duration": 4, "velocity": 77}, {"time": 1651, "pitch": 54, "duration": 5, "velocity": 82}, {"time": 1657, "pitch": 47, "duration": 20, "velocity": 82}, {"time": 1657, "pitch": 59, "duration": 7, "velocity": 77}, {"time": 1663, "pitch": 54, "duration": 5, "velocity": 78}, {"time": 1669, "pitch": 54, "duration": 7, "velocity": 80}, {"time": 1669, "pitch": 63, "duration": 8, "velocity": 82}, {"time": 1675, "pitch": 59, "duration": 4, "velocity": 71}, {"time": 1678, "pitch": 54, "duration": 4, "velocity": 74}, {"time": 1681, "pitch": 51, "duration": 18, "velocity": 87}, {"time": 1681, "pitch": 63, "duration": 7, "velocity": 83}, {"time": 1681, "pitch": 66, "duration": 7, "velocity": 81}, {"time": 1687, "pitch": 58, "duration": 3, "velocity": 80}, {"time": 1693, "pitch": 58, "duration": 3, "velocity": 84}, {"time": 1693, "pitch": 66, "duration": 4, "velocity": 83}, {"time": 1696, "pitch": 63, "duration": 3, "velocity": 86}, {"time": 1699, "pitch": 58, "duration": 2, "velocity": 84}, {"time": 1705, "pitch": 40, "duration": 20, "velocity": 82}, {"time": 1705, "pitch": 52, "duration": 8, "velocity": 74}, {"time": 1705, "pitch": 56, "duration": 8, "velocity": 82}, {"time": 1711, "pitch": 47, "duration": 9, "velocity": 75}, {"time": 1717, "pitch": 52, "duration": 8, "velocity": 82}, {"time": 1717, "pitch": 59, "duration": 10, "velocity": 82}, {"time": 1723, "pitch": 47, "duration": 4, "velocity": 88}, {"time": 1726, "pitch": 56, "duration": 9, "velocity": 78}, {"time": 1729, "pitch": 42, "duration": 16, "velocity": 84}, {"time": 1735, "pitch": 54, "duration": 5, "velocity": 78}, {"time": 1741, "pitch": 54, "duration": 3, "velocity": 82}, {"time": 1741, "pitch": 58, "duration": 4, "velocity": 83}, {"time": 1741, "pitch": 61, "duration": 5, "velocity": 82}, {"time": 1744, "pitch": 49, "duration": 5, "velocity": 82}, {"time": 1747, "pitch": 54, "duration": 4, "velocity": 82}, {"time": 1753, "pitch": 47, "duration": 21, "velocity": 83}, {"time": 1753, "pitch": 54, "duration": 3, "velocity": 78}, {"time": 1753, "pitch": 59, "duration": 7, "velocity": 77}, {"time": 1759, "pitch": 54, "duration": 8, "velocity": 78}, {"time": 1765, "pitch": 63, "duration": 4, "velocity": 88}, {"time": 1768, "pitch": 59, "duration": 3, "velocity": 88}, {"time": 1771, "pitch": 54, "duration": 6, "velocity": 84}, {"time": 1774, "pitch": 59, "duration": 3, "velocity": 78}, {"time": 1777, "pitch": 47, "duration": 17, "velocity": 83}, {"time": 1777, "pitch": 54, "duration": 4, "velocity": 72}, {"time": 1777, "pitch": 59, "duration": 8, "velocity": 67}, {"time": 1783, "pitch": 54, "duration": 5, "velocity": 82}, {"time": 1789, "pitch": 63, "duration": 4, "velocity": 84}, {"time": 1792, "pitch": 59, "duration": 4, "velocity": 86}, {"time": 1795, "pitch": 54, "duration": 3, "velocity": 84}, {"time": 1801, "pitch": 40, "duration": 19, "velocity": 79}, {"time": 1801, "pitch": 52, "duration": 14, "velocity": 75}, {"time": 1801, "pitch": 56, "duration": 8, "velocity": 72}, {"time": 1807, "pitch": 47, "duration": 11, "velocity": 65}, {"time": 1813, "pitch": 64, "duration": 5, "velocity": 82}, {"time": 1816, "pitch": 59, "duration": 4, "velocity": 78}, {"time": 1819, "pitch": 52, "duration": 2, "velocity": 83}, {"time": 1825, "pitch": 42, "duration": 22, "velocity": 81}, {"time": 1825, "pitch": 54, "duration": 12, "velocity": 76}, {"time": 1825, "pitch": 58, "duration": 7, "velocity": 75}, {"time": 1831, "pitch": 49, "duration": 14, "velocity": 70}, {"time": 1837, "pitch": 61, "duration": 4, "velocity": 77}, {"time": 1840, "pitch": 58, "duration": 4, "velocity": 77}, {"time": 1843, "pitch": 54, "duration": 5, "velocity": 82}, {"time": 1849, "pitch": 44, "duration": 24, "velocity": 82}, {"time": 1849, "pitch": 56, "duration": 7, "velocity": 76}, {"time": 1849, "pitch": 63, "duration": 7, "velocity": 82}, {"time": 1855, "pitch": 51, "duration": 8, "velocity": 70}, {"time": 1861, "pitch": 59, "duration": 6, "velocity": 89}, {"time": 1861, "pitch": 63, "duration": 8, "velocity": 86}, {"time": 1864, "pitch": 51, "duration": 9, "velocity": 84}, {"time": 1867, "pitch": 56, "duration": 4, "velocity": 82}, {"time": 1870, "pitch": 59, "duration": 3, "velocity": 75}, {"time": 1873, "pitch": 51, "duration": 18, "velocity": 87}, {"time": 1873, "pitch": 63, "duration": 7, "velocity": 83}, {"time": 1873, "pitch": 66, "duration": 7, "velocity": 81}, {"time": 1879, "pitch": 58, "duration": 3, "velocity": 80}, {"time": 1885, "pitch": 58, "duration": 3, "velocity": 84}, {"time": 1885, "pitch": 66, "duration": 4, "velocity": 83}, {"time": 1888, "pitch": 63, "duration": 3, "velocity": 86}, {"time": 1891, "pitch": 58, "duration": 2, "velocity": 84}, {"time": 1897, "pitch": 40, "duration": 20, "velocity": 82}, {"time": 1897, "pitch": 52, "duration": 8, "velocity": 74}, {"time": 1897, "pitch": 56, "duration": 8, "velocity": 82}, {"time": 1903, "pitch": 47, "duration": 9, "velocity": 75}, {"time": 1909, "pitch": 52, "duration": 8, "velocity": 82}, {"time": 1909, "pitch": 59, "duration": 10, "velocity": 82}, {"time": 1915, "pitch": 47, "duration": 4, "velocity": 88}, {"time": 1918, "pitch": 56, "duration": 9, "velocity": 78}, {"time": 1921, "pitch": 42, "duration": 16, "velocity": 84}, {"time": 1927, "pitch": 54, "duration": 5, "velocity": 78}, {"time": 1933, "pitch": 54, "duration": 3, "velocity": 82}, {"time": 1933, "pitch": 58, "duration": 4, "velocity": 83}, {"time": 1933, "pitch": 61, "duration": 5, "velocity": 82}, {"time": 1936, "pitch": 49, "duration": 5, "velocity": 82}, {"time": 1939, "pitch": 54, "duration": 4, "velocity": 82}, {"time": 1945, "pitch": 47, "duration": 21, "velocity": 83}, {"time": 1945, "pitch": 54, "duration": 3, "velocity": 78}, {"time": 1945, "pitch": 59, "duration": 7, "velocity": 77}, {"time": 1951, "pitch": 54, "duration": 8, "velocity": 78}, {"time": 1957, "pitch": 63, "duration": 4, "velocity": 88}, {"time": 1960, "pitch": 59, "duration": 3, "velocity": 88}, {"time": 1963, "pitch": 54, "duration": 6, "velocity": 84}, {"time": 1966, "pitch": 59, "duration": 3, "velocity": 78}, {"time": 1969, "pitch": 51, "duration": 18, "velocity": 87}, {"time": 1969, "pitch": 63, "duration": 7, "velocity": 83}, {"time": 1969, "pitch": 66, "duration": 7, "velocity": 81}, {"time": 1975, "pitch": 58, "duration": 3, "velocity": 80}, {"time": 1981, "pitch": 58, "duration": 3, "velocity": 84}, {"time": 1981, "pitch": 66, "duration": 4, "velocity": 83}, {"time": 1984, "pitch": 63, "duration": 3, "velocity": 86}, {"time": 1987, "pitch": 58, "duration": 2, "velocity": 84}, {"time": 1993, "pitch": 40, "duration": 20, "velocity": 82}, {"time": 1993, "pitch": 52, "duration": 8, "velocity": 74}, {"time": 1993, "pitch": 56, "duration": 8, "velocity": 82}, {"time": 1999, "pitch": 47, "duration": 9, "velocity": 75}, {"time": 2005, "pitch": 52, "duration": 8, "velocity": 82}, {"time": 2005, "pitch": 59, "duration": 10, "velocity": 82}, {"time": 2011, "pitch": 47, "duration": 4, "velocity": 88}, {"time": 2014, "pitch": 56, "duration": 9, "velocity": 78}, {"time": 2017, "pitch": 42, "duration": 16, "velocity": 84}, {"time": 2023, "pitch": 54, "duration": 5, "velocity": 78}, {"time": 2029, "pitch": 54, "duration": 3, "velocity": 82}, {"time": 2029, "pitch": 58, "duration": 4, "velocity": 83}, {"time": 2029, "pitch": 61, "duration": 5, "velocity": 82}, {"time": 2032, "pitch": 49, "duration": 5, "velocity": 82}, {"time": 2035, "pitch": 54, "duration": 4, "velocity": 82}, {"time": 2041, "pitch": 47, "duration": 21, "velocity": 83}, {"time": 2041, "pitch": 54, "duration": 3, "velocity": 78}, {"time": 2041, "pitch": 59, "duration": 7, "velocity": 77}, {"time": 2047, "pitch": 54, "duration": 8, "velocity": 78}, {"time": 2053, "pitch": 63, "duration": 4, "velocity": 88}, {"time": 2056, "pitch": 59, "duration": 3, "velocity": 88}, {"time": 2059, "pitch": 54, "duration": 6, "velocity": 84}, {"time": 2062, "pitch": 59, "duration": 3, "velocity": 78}, {"time": 2065, "pitch": 51, "duration": 18, "velocity": 87}, {"time": 2065, "pitch": 63, "duration": 7, "velocity": 83}, {"time": 2065, "pitch": 66, "duration": 7, "velocity": 81}, {"time": 2071, "pitch": 58, "duration": 3, "velocity": 80}, {"time": 2077, "pitch": 58, "duration": 3, "velocity": 84}, {"time": 2077, "pitch": 66, "duration": 4, "velocity": 83}, {"time": 2080, "pitch": 63, "duration": 3, "velocity": 86}, {"time": 2083, "pitch": 58, "duration": 2, "velocity": 84}, {"time": 2089, "pitch": 40, "duration": 20, "velocity": 82}, {"time": 2089, "pitch": 52, "duration": 8, "velocity": 74}, {"time": 2089, "pitch": 56, "duration": 8, "velocity": 82}, {"time": 2095, "pitch": 47, "duration": 9, "velocity": 75}, {"time": 2101, "pitch": 52, "duration": 8, "velocity": 82}, {"time": 2101, "pitch": 59, "duration": 10, "velocity": 82}, {"time": 2107, "pitch": 47, "duration": 4, "velocity": 88}, {"time": 2110, "pitch": 56, "duration": 9, "velocity": 78}, {"time": 2113, "pitch": 42, "duration": 16, "velocity": 84}, {"time": 2119, "pitch": 54, "duration": 5, "velocity": 78}, {"time": 2125, "pitch": 54, "duration": 3, "velocity": 82}, {"time": 2125, "pitch": 58, "duration": 4, "velocity": 83}, {"time": 2125, "pitch": 61, "duration": 5, "velocity": 82}, {"time": 2128, "pitch": 49, "duration": 5, "velocity": 82}, {"time": 2131, "pitch": 54, "duration": 4, "velocity": 82}, {"time": 2137, "pitch": 47, "duration": 21, "velocity": 83}, {"time": 2137, "pitch": 54, "duration": 3, "velocity": 78}, {"time": 2137, "pitch": 59, "duration": 7, "velocity": 77}, {"time": 2143, "pitch": 54, "duration": 8, "velocity": 78}, {"time": 2149, "pitch": 63, "duration": 4, "velocity": 88}, {"time": 2152, "pitch": 59, "duration": 3, "velocity": 88}, {"time": 2155, "pitch": 54, "duration": 6, "velocity": 84}, {"time": 2158, "pitch": 59, "duration": 3, "velocity": 78}, {"time": 2161, "pitch": 51, "duration": 18, "velocity": 87}, {"time": 2161, "pitch": 63, "duration": 7, "velocity": 83}, {"time": 2161, "pitch": 66, "duration": 7, "velocity": 81}, {"time": 2167, "pitch": 58, "duration": 3, "velocity": 80}, {"time": 2173, "pitch": 58, "duration": 3, "velocity": 84}, {"time": 2173, "pitch": 66, "duration": 4, "velocity": 83}, {"time": 2176, "pitch": 63, "duration": 3, "velocity": 86}, {"time": 2179, "pitch": 58, "duration": 2, "velocity": 84}, {"time": 2185, "pitch": 40, "duration": 20, "velocity": 82}, {"time": 2185, "pitch": 52, "duration": 8, "velocity": 74}, {"time": 2185, "pitch": 56, "duration": 8, "velocity": 82}, {"time": 2191, "pitch": 47, "duration": 9, "velocity": 75}, {"time": 2197, "pitch": 52, "duration": 8, "velocity": 82}, {"time": 2197, "pitch": 59, "duration": 10, "velocity": 82}, {"time": 2203, "pitch": 47, "duration": 4, "velocity": 88}, {"time": 2206, "pitch": 56, "duration": 9, "velocity": 78}, {"time": 2209, "pitch": 42, "duration": 16, "velocity": 84}, {"time": 2215, "pitch": 54, "duration": 5, "velocity": 78}, {"time": 2221, "pitch": 54, "duration": 3, "velocity": 82}, {"time": 2221, "pitch": 58, "duration": 4, "velocity": 83}, {"time": 2221, "pitch": 61, "duration": 5, "velocity": 82}, {"time": 2224, "pitch": 49, "duration": 5, "velocity": 82}, {"time": 2227, "pitch": 54, "duration": 4, "velocity": 82}, {"time": 2233, "pitch": 47, "duration": 21, "velocity": 83}, {"time": 2233, "pitch": 54, "duration": 3, "velocity": 78}, {"time": 2233, "pitch": 59, "duration": 7, "velocity": 77}, {"time": 2239, "pitch": 54, "duration": 8, "velocity": 78}, {"time": 2245, "pitch": 63, "duration": 4, "velocity": 88}, {"time": 2248, "pitch": 59, "duration": 3, "velocity": 88}, {"time": 2251, "pitch": 54, "duration": 6, "velocity": 84}, {"time": 2254, "pitch": 59, "duration": 3, "velocity": 78}, {"time": 2257, "pitch": 51, "duration": 18, "velocity": 87}, {"time": 2257, "pitch": 63, "duration": 7, "velocity": 83}, {"time": 2257, "pitch": 66, "duration": 7, "velocity": 81}, {"time": 2263, "pitch": 58, "duration": 3, "velocity": 80}, {"time": 2269, "pitch": 58, "duration": 3, "velocity": 84}, {"time": 2269, "pitch": 66, "duration": 4, "velocity": 83}, {"time": 2272, "pitch": 63, "duration": 3, "velocity": 86}, {"time": 2275, "pitch": 58, "duration": 2, "velocity": 84}, {"time": 2281, "pitch": 40, "duration": 20, "velocity": 82}, {"time": 2281, "pitch": 52, "duration": 8, "velocity": 74}, {"time": 2281, "pitch": 56, "duration": 8, "velocity": 82}, {"time": 2287, "pitch": 47, "duration": 9, "velocity": 75}, {"time": 2293, "pitch": 52, "duration": 8, "velocity": 82}, {"time": 2293, "pitch": 59, "duration": 10, "velocity": 82}, {"time": 2299, "pitch": 47, "duration": 4, "velocity": 88}, {"time": 2302, "pitch": 56, "duration": 9, "velocity": 78}, {"time": 2305, "pitch": 42, "duration": 19, "velocity": 81}, {"time": 2305, "pitch": 61, "duration": 10, "velocity": 78}, {"time": 2312, "pitch": 49, "duration": 10, "velocity": 69}, {"time": 2314, "pitch": 54, "duration": 4, "velocity": 82}, {"time": 2318, "pitch": 66, "duration": 4, "velocity": 82}, {"time": 2321, "pitch": 61, "duration": 5, "velocity": 82}, {"time": 2325, "pitch": 54, "duration": 2, "velocity": 86}, {"time": 2332, "pitch": 35, "duration": 6, "velocity": 80}, {"time": 2333, "pitch": 54, "duration": 3, "velocity": 74}, {"time": 2334, "pitch": 42, "duration": 3, "velocity": 64}, {"time": 2335, "pitch": 59, "duration": 2, "velocity": 76}, {"time": 2336, "pitch": 63, "duration": 2, "velocity": 80}], "annotations": [{"time": 821, "annotation": {"number": 64, "value": 127}, "group": "control_change"}, {"time": 839, "annotation": {"number": 64, "value": 0}, "group": "control_change"}, {"time": 845, "annotation": {"number": 64, "value": 127}, "group": "control_change"}, {"time": 864, "annotation": {"number": 64, "value": 0}, "group": "control_change"}, {"time": 869, "annotation": {"number": 64, "value": 127}, "group": "control_change"}, {"time": 887, "annotation": {"number": 64, "value": 0}, "group": "control_change"}, {"time": 891, "annotation": {"number": 64, "value": 127}, "group": "control_change"}, {"time": 912, "annotation": {"number": 64, "value": 0}, "group": "control_change"}, {"time": 914, "annotation": {"number": 64, "value": 127}, "group": "control_change"}, {"time": 936, "annotation": {"number": 64, "value": 0}, "group": "control_change"}, {"time": 939, "annotation": {"number": 64, "value": 127}, "group": "control_change"}, {"time": 960, "annotation": {"number": 64, "value": 0}, "group": "control_change"}, {"time": 963, "annotation": {"number": 64, "value": 127}, "group": "control_change"}, {"time": 983, "annotation": {"number": 64, "value": 0}, "group": "control_change"}, {"time": 986, "annotation": {"number": 64, "value": 127}, "group": "control_change"}, {"time": 1005, "annotation": {"number": 64, "value": 0}, "group": "control_change"}, {"time": 1013, "annotation": {"number": 64, "value": 127}, "group": "control_change"}, {"time": 1031, "annotation": {"number": 64, "value": 0}, "group": "control_change"}, {"time": 1037, "annotation": {"number": 64, "value": 127}, "group": "control_change"}, {"time": 1056, "annotation": {"number": 64, "value": 0}, "group": "control_change"}, {"time": 1061, "annotation": {"number": 64, "value": 127}, "group": "control_change"}, {"time": 1079, "annotation": {"number": 64, "value": 0}, "group": "control_change"}, {"time": 1083, "annotation": {"number": 64, "value": 127}, "group": "control_change"}, {"time": 1104, "annotation": {"number": 64, "value": 0}, "group": "control_change"}, {"time": 1106, "annotation": {"number": 64, "value": 127}, "group": "control_change"}, {"time": 1128, "annotation": {"number": 64, "value": 0}, "group": "control_change"}, {"time": 1131, "annotation": {"number": 64, "value": 127}, "group": "control_change"}, {"time": 1152, "annotation": {"number": 64, "value": 0}, "group": "control_change"}, {"time": 1155, "annotation": {"number": 64, "value": 127}, "group": "control_change"}, {"time": 1175, "annotation": {"number": 64, "value": 0}, "group": "control_change"}, {"time": 1178, "annotation": {"number": 64, "value": 127}, "group": "control_change"}, {"time": 1197, "annotation": {"number": 64, "value": 0}, "group": "control_change"}, {"time": 1205, "annotation": {"number": 64, "value": 127}, "group": "control_change"}, {"time": 1223, "annotation": {"number": 64, "value": 0}, "group": "control_change"}, {"time": 1229, "annotation": {"number": 64, "value": 127}, "group": "control_change"}, {"time": 1248, "annotation": {"number": 64, "value": 0}, "group": "control_change"}, {"time": 1253, "annotation": {"number": 64, "value": 127}, "group": "control_change"}, {"time": 1271, "annotation": {"number": 64, "value": 0}, "group": "control_change"}, {"time": 1275, "annotation": {"number": 64, "value": 127}, "group": "control_change"}, {"time": 1296, "annotation": {"number": 64, "value": 0}, "group": "control_change"}, {"time": 1298, "annotation": {"number": 64, "value": 127}, "group": "control_change"}, {"time": 1320, "annotation": {"number": 64, "value": 0}, "group": "control_change"}, {"time": 1322, "annotation": {"number": 64, "value": 0}, "group": "control_change"}, {"time": 1323, "annotation": {"number": 64, "value": 127}, "group": "control_change"}, {"time": 1326, "annotation": {"number": 64, "value": 127}, "group": "control_change"}, {"time": 1344, "annotation": {"number": 64, "value": 0}, "group": "control_change"}, {"time": 1347, "annotation": {"number": 64, "value": 127}, "group": "control_change"}, {"time": 1367, "annotation": {"number": 64, "value": 0}, "group": "control_change"}, {"time": 1370, "annotation": {"number": 64, "value": 127}, "group": "control_change"}, {"time": 1389, "annotation": {"number": 64, "value": 0}, "group": "control_change"}, {"time": 1391, "annotation": {"number": 64, "value": 0}, "group": "control_change"}, {"time": 1397, "annotation": {"number": 64, "value": 127}, "group": "control_change"}, {"time": 1415, "annotation": {"number": 64, "value": 0}, "group": "control_change"}, {"time": 1421, "annotation": {"number": 64, "value": 127}, "group": "control_change"}, {"time": 1440, "annotation": {"number": 64, "value": 0}, "group": "control_change"}, {"time": 1445, "annotation": {"number": 64, "value": 127}, "group": "control_change"}, {"time": 1463, "annotation": {"number": 64, "value": 0}, "group": "control_change"}, {"time": 1466, "annotation": {"number": 64, "value": 127}, "group": "control_change"}, {"time": 1486, "annotation": {"number": 64, "value": 0}, "group": "control_change"}, {"time": 1490, "annotation": {"number": 64, "value": 127}, "group": "control_change"}, {"time": 1512, "annotation": {"number": 64, "value": 0}, "group": "control_change"}, {"time": 1514, "annotation": {"number": 64, "value": 0}, "group": "control_change"}, {"time": 1515, "annotation": {"number": 64, "value": 127}, "group": "control_change"}, {"time": 1518, "annotation": {"number": 64, "value": 127}, "group": "control_change"}, {"time": 1536, "annotation": {"number": 64, "value": 0}, "group": "control_change"}, {"time": 1539, "annotation": {"number": 64, "value": 127}, "group": "control_change"}, {"time": 1559, "annotation": {"number": 64, "value": 0}, "group": "control_change"}, {"time": 1562, "annotation": {"number": 64, "value": 127}, "group": "control_change"}, {"time": 1581, "annotation": {"number": 64, "value": 0}, "group": "control_change"}, {"time": 1583, "annotation": {"number": 64, "value": 0}, "group": "control_change"}, {"time": 1589, "annotation": {"number": 64, "value": 127}, "group": "control_change"}, {"time": 1607, "annotation": {"number": 64, "value": 0}, "group": "control_change"}, {"time": 1613, "annotation": {"number": 64, "value": 127}, "group": "control_change"}, {"time": 1632, "annotation": {"number": 64, "value": 0}, "group": "control_change"}, {"time": 1637, "annotation": {"number": 64, "value": 127}, "group": "control_change"}, {"time": 1655, "annotation": {"number": 64, "value": 0}, "group": "control_change"}, {"time": 1659, "annotation": {"number": 64, "value": 127}, "group": "control_change"}, {"time": 1680, "annotation": {"number": 64, "value": 0}, "group": "control_change"}, {"time": 1682, "annotation": {"number": 64, "value": 127}, "group": "control_change"}, {"time": 1704, "annotation": {"number": 64, "value": 0}, "group": "control_change"}, {"time": 1706, "annotation": {"number": 64, "value": 0}, "group": "control_change"}, {"time": 1707, "annotation": {"number": 64, "value": 127}, "group": "control_change"}, {"time": 1710, "annotation": {"number": 64, "value": 127}, "group": "control_change"}, {"time": 1728, "annotation": {"number": 64, "value": 0}, "group": "control_change"}, {"time": 1731, "annotation": {"number": 64, "value": 127}, "group": "control_change"}, {"time": 1751, "annotation": {"number": 64, "value": 0}, "group": "control_change"}, {"time": 1754, "annotation": {"number": 64, "value": 127}, "group": "control_change"}, {"time": 1773, "annotation": {"number": 64, "value": 0}, "group": "control_change"}, {"time": 1775, "annotation": {"number": 64, "value": 0}, "group": "control_change"}, {"time": 1781, "annotation": {"number": 64, "value": 127}, "group": "control_change"}, {"time": 1799, "annotation": {"number": 64, "value": 0}, "group": "control_change"}, {"time": 1805, "annotation": {"number": 64, "value": 127}, "group": "control_change"}, {"time": 1824, "annotation": {"number": 64, "value": 0}, "group": "control_change"}, {"time": 1829, "annotation": {"number": 64, "value": 127}, "group": "control_change"}, {"time": 1847, "annotation": {"number": 64, "value": 0}, "group": "control_change"}, {"time": 1850, "annotation": {"number": 64, "value": 127}, "group": "control_change"}, {"time": 1870, "annotation": {"number": 64, "value": 0}, "group": "control_change"}, {"time": 1874, "annotation": {"number": 64, "value": 127}, "group": "control_change"}, {"time": 1896, "annotation": {"number": 64, "value": 0}, "group": "control_change"}, {"time": 1898, "annotation": {"number": 64, "value": 0}, "group": "control_change"}, {"time": 1899, "annotation": {"number": 64, "value": 127}, "group": "control_change"}, {"time": 1902, "annotation": {"number": 64, "value": 127}, "group": "control_change"}, {"time": 1920, "annotation": {"number": 64, "value": 0}, "group": "control_change"}, {"time": 1923, "annotation": {"number": 64, "value": 127}, "group": "control_change"}, {"time": 1943, "annotation": {"number": 64, "value": 0}, "group": "control_change"}, {"time": 1946, "annotation": {"number": 64, "value": 127}, "group": "control_change"}, {"time": 1965, "annotation": {"number": 64, "value": 0}, "group": "control_change"}, {"time": 1967, "annotation": {"number": 64, "value": 0}, "group": "control_change"}, {"time": 1970, "annotation": {"number": 64, "value": 127}, "group": "control_change"}, {"time": 1992, "annotation": {"number": 64, "value": 0}, "group": "control_change"}, {"time": 1994, "annotation": {"number": 64, "value": 0}, "group": "control_change"}, {"time": 1995, "annotation": {"number": 64, "value": 127}, "group": "control_change"}, {"time": 1998, "annotation": {"number": 64, "value": 127}, "group": "control_change"}, {"time": 2016, "annotation": {"number": 64, "value": 0}, "group": "control_change"}, {"time": 2019, "annotation": {"number": 64, "value": 127}, "group": "control_change"}, {"time": 2039, "annotation": {"number": 64, "value": 0}, "group": "control_change"}, {"time": 2042, "annotation": {"number": 64, "value": 127}, "group": "control_change"}, {"time": 2061, "annotation": {"number": 64, "value": 0}, "group": "control_change"}, {"time": 2063, "annotation": {"number": 64, "value": 0}, "group": "control_change"}, {"time": 2066, "annotation": {"number": 64, "value": 127}, "group": "control_change"}, {"time": 2088, "annotation": {"number": 64, "value": 0}, "group": "control_change"}, {"time": 2090, "annotation": {"number": 64, "value": 0}, "group": "control_change"}, {"time": 2091, "annotation": {"number": 64, "value": 127}, "group": "control_change"}, {"time": 2094, "annotation": {"number": 64, "value": 127}, "group": "control_change"}, {"time": 2112, "annotation": {"number": 64, "value": 0}, "group": "control_change"}, {"time": 2115, "annotation": {"number": 64, "value": 127}, "group": "control_change"}, {"time": 2135, "annotation": {"number": 64, "value": 0}, "group": "control_change"}, {"time": 2138, "annotation": {"number": 64, "value": 127}, "group": "control_change"}, {"time": 2157, "annotation": {"number": 64, "value": 0}, "group": "control_change"}, {"time": 2159, "annotation": {"number": 64, "value": 0}, "group": "control_change"}, {"time": 2162, "annotation": {"number": 64, "value": 127}, "group": "control_change"}, {"time": 2184, "annotation": {"number": 64, "value": 0}, "group": "control_change"}, {"time": 2186, "annotation": {"number": 64, "value": 0}, "group": "control_change"}, {"time": 2187, "annotation": {"number": 64, "value": 127}, "group": "control_change"}, {"time": 2190, "annotation": {"number": 64, "value": 127}, "group": "control_change"}, {"time": 2208, "annotation": {"number": 64, "value": 0}, "group": "control_change"}, {"time": 2211, "annotation": {"number": 64, "value": 127}, "group": "control_change"}, {"time": 2231, "annotation": {"number": 64, "value": 0}, "group": "control_change"}, {"time": 2234, "annotation": {"number": 64, "value": 127}, "group": "control_change"}, {"time": 2253, "annotation": {"number": 64, "value": 0}, "group": "control_change"}, {"time": 2255, "annotation": {"number": 64, "value": 0}, "group": "control_change"}, {"time": 2258, "annotation": {"number": 64, "value": 127}, "group": "control_change"}, {"time": 2280, "annotation": {"number": 64, "value": 0}, "group": "control_change"}, {"time": 2282, "annotation": {"number": 64, "value": 0}, "group": "control_change"}, {"time": 2283, "annotation": {"number": 64, "value": 127}, "group": "control_change"}, {"time": 2286, "annotation": {"number": 64, "value": 127}, "group": "control_change"}, {"time": 2304, "annotation": {"number": 64, "value": 0}, "group": "control_change"}, {"time": 2307, "annotation": {"number": 64, "value": 127}, "group": "control_change"}, {"time": 2330, "annotation": {"number": 64, "value": 0}, "group": "control_change"}, {"time": 2333, "annotation": {"number": 64, "value": 127}, "group": "control_change"}]}]}