{"metadata": {"schema_version": "0.2", "title": "None", "source_filename": "821.mid", "source_format": "midi"}, "resolution": 12, "tempos": [{"time": 0, "qpm": 54.00000540000054}, {"time": 348, "qpm": 55.00000458333371}, {"time": 714, "qpm": 55.50000416250031}, {"time": 721, "qpm": 58.500115537728185}, {"time": 731, "qpm": 59.00006686674245}, {"time": 759, "qpm": 59.60002423734319}, {"time": 772, "qpm": 60.0}], "time_signatures": [{"time": 0, "numerator": 1, "denominator": 4}], "tracks": [{"program": 0, "is_drum": false, "name": "MELODY", "notes": [{"time": 358, "pitch": 73, "duration": 4, "velocity": 82}, {"time": 361, "pitch": 76, "duration": 3, "velocity": 76}, {"time": 364, "pitch": 80, "duration": 4, "velocity": 75}, {"time": 370, "pitch": 78, "duration": 5, "velocity": 81}, {"time": 376, "pitch": 75, "duration": 4, "velocity": 76}, {"time": 380, "pitch": 71, "duration": 14, "velocity": 69}, {"time": 404, "pitch": 68, "duration": 3, "velocity": 76}, {"time": 407, "pitch": 71, "duration": 3, "velocity": 75}, {"time": 410, "pitch": 75, "duration": 7, "velocity": 80}, {"time": 419, "pitch": 75, "duration": 5, "velocity": 81}, {"time": 424, "pitch": 73, "duration": 4, "velocity": 70}, {"time": 427, "pitch": 76, "duration": 15, "velocity": 71}, {"time": 451, "pitch": 66, "duration": 3, "velocity": 71}, {"time": 454, "pitch": 69, "duration": 3, "velocity": 78}, {"time": 457, "pitch": 73, "duration": 7, "velocity": 81}, {"time": 467, "pitch": 73, "duration": 5, "velocity": 80}, {"time": 472, "pitch": 71, "duration": 2, "velocity": 70}, {"time": 475, "pitch": 71, "duration": 10, "velocity": 76}, {"time": 484, "pitch": 66, "duration": 3, "velocity": 68}, {"time": 487, "pitch": 69, "duration": 3, "velocity": 70}, {"time": 490, "pitch": 68, "duration": 17, "velocity": 75}, {"time": 508, "pitch": 68, "duration": 3, "velocity": 71}, {"time": 511, "pitch": 69, "duration": 3, "velocity": 72}, {"time": 514, "pitch": 71, "duration": 23, "velocity": 80}, {"time": 548, "pitch": 73, "duration": 1, "velocity": 84}, {"time": 551, "pitch": 76, "duration": 3, "velocity": 70}, {"time": 553, "pitch": 80, "duration": 8, "velocity": 73}, {"time": 563, "pitch": 78, "duration": 4, "velocity": 76}, {"time": 568, "pitch": 75, "duration": 3, "velocity": 73}, {"time": 571, "pitch": 71, "duration": 14, "velocity": 72}, {"time": 596, "pitch": 68, "duration": 2, "velocity": 78}, {"time": 599, "pitch": 71, "duration": 3, "velocity": 78}, {"time": 602, "pitch": 75, "duration": 6, "velocity": 77}, {"time": 610, "pitch": 75, "duration": 6, "velocity": 80}, {"time": 616, "pitch": 73, "duration": 4, "velocity": 72}, {"time": 619, "pitch": 76, "duration": 12, "velocity": 72}, {"time": 643, "pitch": 69, "duration": 2, "velocity": 69}, {"time": 646, "pitch": 69, "duration": 2, "velocity": 81}, {"time": 649, "pitch": 73, "duration": 7, "velocity": 81}, {"time": 659, "pitch": 73, "duration": 4, "velocity": 82}, {"time": 664, "pitch": 71, "duration": 2, "velocity": 71}, {"time": 667, "pitch": 71, "duration": 7, "velocity": 75}, {"time": 676, "pitch": 66, "duration": 3, "velocity": 74}, {"time": 679, "pitch": 69, "duration": 3, "velocity": 72}, {"time": 682, "pitch": 68, "duration": 15, "velocity": 76}, {"time": 700, "pitch": 68, "duration": 3, "velocity": 73}, {"time": 703, "pitch": 69, "duration": 3, "velocity": 71}, {"time": 706, "pitch": 71, "duration": 23, "velocity": 75}, {"time": 741, "pitch": 73, "duration": 3, "velocity": 80}, {"time": 743, "pitch": 76, "duration": 4, "velocity": 79}, {"time": 746, "pitch": 80, "duration": 7, "velocity": 80}, {"time": 755, "pitch": 80, "duration": 6, "velocity": 72}, {"time": 761, "pitch": 78, "duration": 2, "velocity": 73}, {"time": 764, "pitch": 78, "duration": 13, "velocity": 79}, {"time": 788, "pitch": 71, "duration": 3, "velocity": 79}, {"time": 792, "pitch": 71, "duration": 2, "velocity": 78}, {"time": 795, "pitch": 75, "duration": 7, "velocity": 75}, {"time": 804, "pitch": 75, "duration": 6, "velocity": 80}, {"time": 810, "pitch": 73, "duration": 2, "velocity": 75}, {"time": 813, "pitch": 76, "duration": 14, "velocity": 81}, {"time": 836, "pitch": 69, "duration": 2, "velocity": 74}, {"time": 839, "pitch": 69, "duration": 2, "velocity": 73}, {"time": 842, "pitch": 73, "duration": 7, "velocity": 81}, {"time": 851, "pitch": 73, "duration": 4, "velocity": 82}, {"time": 856, "pitch": 71, "duration": 3, "velocity": 65}, {"time": 860, "pitch": 71, "duration": 6, "velocity": 75}, {"time": 869, "pitch": 66, "duration": 2, "velocity": 76}, {"time": 872, "pitch": 69, "duration": 3, "velocity": 80}, {"time": 875, "pitch": 68, "duration": 15, "velocity": 75}, {"time": 893, "pitch": 68, "duration": 3, "velocity": 76}, {"time": 896, "pitch": 69, "duration": 4, "velocity": 74}, {"time": 900, "pitch": 71, "duration": 15, "velocity": 75}, {"time": 932, "pitch": 73, "duration": 3, "velocity": 82}, {"time": 935, "pitch": 76, "duration": 3, "velocity": 71}, {"time": 938, "pitch": 80, "duration": 7, "velocity": 75}, {"time": 947, "pitch": 80, "duration": 6, "velocity": 78}, {"time": 953, "pitch": 78, "duration": 2, "velocity": 74}, {"time": 956, "pitch": 78, "duration": 12, "velocity": 81}, {"time": 980, "pitch": 71, "duration": 2, "velocity": 72}, {"time": 983, "pitch": 71, "duration": 2, "velocity": 74}, {"time": 986, "pitch": 75, "duration": 7, "velocity": 80}, {"time": 995, "pitch": 75, "duration": 5, "velocity": 78}, {"time": 1000, "pitch": 73, "duration": 3, "velocity": 75}, {"time": 1004, "pitch": 76, "duration": 12, "velocity": 81}, {"time": 1027, "pitch": 69, "duration": 2, "velocity": 72}, {"time": 1030, "pitch": 69, "duration": 3, "velocity": 72}, {"time": 1034, "pitch": 73, "duration": 7, "velocity": 82}, {"time": 1043, "pitch": 73, "duration": 5, "velocity": 85}, {"time": 1049, "pitch": 71, "duration": 2, "velocity": 73}, {"time": 1052, "pitch": 71, "duration": 7, "velocity": 76}, {"time": 1061, "pitch": 71, "duration": 2, "velocity": 82}, {"time": 1064, "pitch": 80, "duration": 2, "velocity": 78}, {"time": 1067, "pitch": 80, "duration": 10, "velocity": 82}, {"time": 1079, "pitch": 80, "duration": 6, "velocity": 73}, {"time": 1085, "pitch": 78, "duration": 3, "velocity": 71}, {"time": 1088, "pitch": 80, "duration": 26, "velocity": 76}, {"time": 1139, "pitch": 76, "duration": 12, "velocity": 67}, {"time": 1151, "pitch": 78, "duration": 8, "velocity": 78}, {"time": 1163, "pitch": 80, "duration": 2, "velocity": 78}, {"time": 1166, "pitch": 78, "duration": 2, "velocity": 72}, {"time": 1169, "pitch": 80, "duration": 2, "velocity": 75}, {"time": 1172, "pitch": 78, "duration": 3, "velocity": 75}, {"time": 1175, "pitch": 80, "duration": 3, "velocity": 79}, {"time": 1178, "pitch": 85, "duration": 2, "velocity": 80}, {"time": 1181, "pitch": 85, "duration": 3, "velocity": 73}, {"time": 1184, "pitch": 85, "duration": 3, "velocity": 73}, {"time": 1187, "pitch": 85, "duration": 3, "velocity": 73}, {"time": 1190, "pitch": 80, "duration": 1, "velocity": 71}, {"time": 1193, "pitch": 80, "duration": 1, "velocity": 76}, {"time": 1196, "pitch": 80, "duration": 1, "velocity": 81}, {"time": 1199, "pitch": 80, "duration": 2, "velocity": 81}, {"time": 1202, "pitch": 78, "duration": 1, "velocity": 80}, {"time": 1205, "pitch": 78, "duration": 2, "velocity": 80}, {"time": 1208, "pitch": 76, "duration": 2, "velocity": 78}, {"time": 1211, "pitch": 78, "duration": 2, "velocity": 76}, {"time": 1214, "pitch": 76, "duration": 1, "velocity": 76}, {"time": 1217, "pitch": 78, "duration": 2, "velocity": 78}, {"time": 1220, "pitch": 76, "duration": 2, "velocity": 76}, {"time": 1223, "pitch": 78, "duration": 1, "velocity": 81}, {"time": 1226, "pitch": 83, "duration": 1, "velocity": 80}, {"time": 1229, "pitch": 83, "duration": 1, "velocity": 82}, {"time": 1232, "pitch": 83, "duration": 1, "velocity": 77}, {"time": 1235, "pitch": 83, "duration": 1, "velocity": 81}, {"time": 1238, "pitch": 78, "duration": 1, "velocity": 63}, {"time": 1241, "pitch": 78, "duration": 1, "velocity": 77}, {"time": 1244, "pitch": 78, "duration": 1, "velocity": 80}, {"time": 1247, "pitch": 78, "duration": 3, "velocity": 81}, {"time": 1250, "pitch": 76, "duration": 1, "velocity": 75}, {"time": 1253, "pitch": 76, "duration": 2, "velocity": 78}, {"time": 1256, "pitch": 73, "duration": 2, "velocity": 84}, {"time": 1259, "pitch": 76, "duration": 4, "velocity": 80}, {"time": 1265, "pitch": 76, "duration": 5, "velocity": 80}, {"time": 1295, "pitch": 75, "duration": 2, "velocity": 81}, {"time": 1298, "pitch": 76, "duration": 5, "velocity": 81}, {"time": 1304, "pitch": 71, "duration": 21, "velocity": 82}, {"time": 1331, "pitch": 80, "duration": 11, "velocity": 77}, {"time": 1343, "pitch": 78, "duration": 10, "velocity": 81}, {"time": 1355, "pitch": 80, "duration": 2, "velocity": 78}, {"time": 1358, "pitch": 78, "duration": 1, "velocity": 77}, {"time": 1361, "pitch": 80, "duration": 2, "velocity": 81}, {"time": 1364, "pitch": 78, "duration": 3, "velocity": 80}, {"time": 1367, "pitch": 80, "duration": 1, "velocity": 81}, {"time": 1370, "pitch": 85, "duration": 1, "velocity": 80}, {"time": 1373, "pitch": 85, "duration": 2, "velocity": 80}, {"time": 1376, "pitch": 85, "duration": 1, "velocity": 80}, {"time": 1379, "pitch": 85, "duration": 1, "velocity": 84}, {"time": 1382, "pitch": 80, "duration": 1, "velocity": 80}, {"time": 1385, "pitch": 80, "duration": 1, "velocity": 78}, {"time": 1388, "pitch": 80, "duration": 1, "velocity": 80}, {"time": 1391, "pitch": 80, "duration": 2, "velocity": 80}, {"time": 1394, "pitch": 78, "duration": 1, "velocity": 75}, {"time": 1397, "pitch": 78, "duration": 2, "velocity": 80}, {"time": 1400, "pitch": 76, "duration": 2, "velocity": 76}, {"time": 1403, "pitch": 78, "duration": 2, "velocity": 71}, {"time": 1406, "pitch": 76, "duration": 1, "velocity": 76}, {"time": 1409, "pitch": 78, "duration": 2, "velocity": 80}, {"time": 1412, "pitch": 76, "duration": 1, "velocity": 75}, {"time": 1415, "pitch": 78, "duration": 1, "velocity": 80}, {"time": 1418, "pitch": 83, "duration": 1, "velocity": 80}, {"time": 1421, "pitch": 83, "duration": 1, "velocity": 81}, {"time": 1424, "pitch": 83, "duration": 1, "velocity": 82}, {"time": 1427, "pitch": 83, "duration": 2, "velocity": 83}, {"time": 1430, "pitch": 78, "duration": 1, "velocity": 77}, {"time": 1433, "pitch": 78, "duration": 1, "velocity": 81}, {"time": 1436, "pitch": 78, "duration": 1, "velocity": 78}, {"time": 1439, "pitch": 78, "duration": 2, "velocity": 80}, {"time": 1442, "pitch": 76, "duration": 1, "velocity": 76}, {"time": 1445, "pitch": 76, "duration": 2, "velocity": 77}, {"time": 1448, "pitch": 73, "duration": 2, "velocity": 82}, {"time": 1451, "pitch": 76, "duration": 14, "velocity": 75}, {"time": 1472, "pitch": 75, "duration": 2, "velocity": 80}, {"time": 1475, "pitch": 76, "duration": 15, "velocity": 80}, {"time": 1493, "pitch": 81, "duration": 5, "velocity": 84}, {"time": 1499, "pitch": 80, "duration": 28, "velocity": 76}, {"time": 1652, "pitch": 73, "duration": 3, "velocity": 80}, {"time": 1655, "pitch": 76, "duration": 3, "velocity": 79}, {"time": 1658, "pitch": 80, "duration": 6, "velocity": 80}, {"time": 1667, "pitch": 80, "duration": 5, "velocity": 72}, {"time": 1673, "pitch": 78, "duration": 2, "velocity": 73}, {"time": 1676, "pitch": 78, "duration": 13, "velocity": 79}, {"time": 1700, "pitch": 71, "duration": 2, "velocity": 79}, {"time": 1703, "pitch": 71, "duration": 2, "velocity": 78}, {"time": 1706, "pitch": 75, "duration": 7, "velocity": 75}, {"time": 1715, "pitch": 75, "duration": 5, "velocity": 80}, {"time": 1721, "pitch": 73, "duration": 2, "velocity": 75}, {"time": 1724, "pitch": 76, "duration": 14, "velocity": 81}, {"time": 1748, "pitch": 69, "duration": 2, "velocity": 74}, {"time": 1751, "pitch": 69, "duration": 2, "velocity": 73}, {"time": 1754, "pitch": 73, "duration": 7, "velocity": 81}, {"time": 1763, "pitch": 73, "duration": 4, "velocity": 82}, {"time": 1769, "pitch": 71, "duration": 2, "velocity": 65}, {"time": 1772, "pitch": 71, "duration": 6, "velocity": 75}, {"time": 1781, "pitch": 66, "duration": 2, "velocity": 76}, {"time": 1784, "pitch": 69, "duration": 3, "velocity": 80}, {"time": 1787, "pitch": 68, "duration": 15, "velocity": 75}, {"time": 1805, "pitch": 68, "duration": 2, "velocity": 76}, {"time": 1808, "pitch": 69, "duration": 3, "velocity": 74}, {"time": 1811, "pitch": 71, "duration": 15, "velocity": 75}, {"time": 1844, "pitch": 73, "duration": 3, "velocity": 82}, {"time": 1847, "pitch": 76, "duration": 3, "velocity": 71}, {"time": 1850, "pitch": 80, "duration": 7, "velocity": 75}, {"time": 1859, "pitch": 80, "duration": 5, "velocity": 78}, {"time": 1865, "pitch": 78, "duration": 1, "velocity": 74}, {"time": 1868, "pitch": 78, "duration": 12, "velocity": 81}, {"time": 1892, "pitch": 71, "duration": 2, "velocity": 72}, {"time": 1895, "pitch": 71, "duration": 2, "velocity": 74}, {"time": 1898, "pitch": 75, "duration": 7, "velocity": 80}, {"time": 1907, "pitch": 75, "duration": 5, "velocity": 78}, {"time": 1913, "pitch": 73, "duration": 2, "velocity": 75}, {"time": 1916, "pitch": 76, "duration": 12, "velocity": 81}, {"time": 1940, "pitch": 69, "duration": 2, "velocity": 72}, {"time": 1943, "pitch": 69, "duration": 3, "velocity": 72}, {"time": 1946, "pitch": 73, "duration": 7, "velocity": 82}, {"time": 1955, "pitch": 73, "duration": 5, "velocity": 85}, {"time": 1961, "pitch": 71, "duration": 2, "velocity": 73}, {"time": 1964, "pitch": 71, "duration": 7, "velocity": 76}, {"time": 1973, "pitch": 71, "duration": 2, "velocity": 82}, {"time": 1976, "pitch": 80, "duration": 2, "velocity": 78}, {"time": 1979, "pitch": 80, "duration": 9, "velocity": 82}, {"time": 1991, "pitch": 80, "duration": 6, "velocity": 73}, {"time": 1997, "pitch": 78, "duration": 3, "velocity": 71}, {"time": 2000, "pitch": 80, "duration": 15, "velocity": 76}, {"time": 2015, "pitch": 76, "duration": 6, "velocity": 67}, {"time": 2021, "pitch": 78, "duration": 6, "velocity": 67}, {"time": 2027, "pitch": 80, "duration": 2, "velocity": 78}, {"time": 2030, "pitch": 78, "duration": 2, "velocity": 72}, {"time": 2033, "pitch": 80, "duration": 2, "velocity": 75}, {"time": 2036, "pitch": 78, "duration": 3, "velocity": 75}, {"time": 2039, "pitch": 80, "duration": 3, "velocity": 79}, {"time": 2042, "pitch": 85, "duration": 2, "velocity": 80}, {"time": 2045, "pitch": 85, "duration": 3, "velocity": 73}, {"time": 2048, "pitch": 85, "duration": 3, "velocity": 73}, {"time": 2051, "pitch": 85, "duration": 3, "velocity": 73}, {"time": 2054, "pitch": 80, "duration": 1, "velocity": 71}, {"time": 2057, "pitch": 80, "duration": 1, "velocity": 76}, {"time": 2060, "pitch": 80, "duration": 1, "velocity": 81}, {"time": 2063, "pitch": 80, "duration": 2, "velocity": 81}, {"time": 2066, "pitch": 78, "duration": 1, "velocity": 80}, {"time": 2069, "pitch": 78, "duration": 2, "velocity": 80}, {"time": 2072, "pitch": 76, "duration": 2, "velocity": 78}, {"time": 2075, "pitch": 78, "duration": 2, "velocity": 76}, {"time": 2078, "pitch": 76, "duration": 1, "velocity": 76}, {"time": 2081, "pitch": 78, "duration": 2, "velocity": 78}, {"time": 2084, "pitch": 76, "duration": 2, "velocity": 76}, {"time": 2087, "pitch": 78, "duration": 1, "velocity": 81}, {"time": 2090, "pitch": 83, "duration": 1, "velocity": 80}, {"time": 2093, "pitch": 83, "duration": 1, "velocity": 82}, {"time": 2096, "pitch": 83, "duration": 1, "velocity": 77}, {"time": 2099, "pitch": 83, "duration": 1, "velocity": 81}, {"time": 2102, "pitch": 78, "duration": 1, "velocity": 63}, {"time": 2105, "pitch": 78, "duration": 1, "velocity": 77}, {"time": 2108, "pitch": 78, "duration": 1, "velocity": 80}, {"time": 2111, "pitch": 78, "duration": 3, "velocity": 81}, {"time": 2114, "pitch": 76, "duration": 1, "velocity": 75}, {"time": 2117, "pitch": 76, "duration": 2, "velocity": 78}, {"time": 2120, "pitch": 73, "duration": 2, "velocity": 84}, {"time": 2123, "pitch": 76, "duration": 4, "velocity": 80}, {"time": 2129, "pitch": 76, "duration": 5, "velocity": 80}, {"time": 2159, "pitch": 75, "duration": 2, "velocity": 81}, {"time": 2162, "pitch": 76, "duration": 5, "velocity": 81}, {"time": 2168, "pitch": 71, "duration": 21, "velocity": 82}, {"time": 2195, "pitch": 80, "duration": 11, "velocity": 77}, {"time": 2207, "pitch": 78, "duration": 10, "velocity": 81}, {"time": 2219, "pitch": 80, "duration": 2, "velocity": 78}, {"time": 2222, "pitch": 78, "duration": 1, "velocity": 77}, {"time": 2225, "pitch": 80, "duration": 2, "velocity": 81}, {"time": 2228, "pitch": 78, "duration": 3, "velocity": 80}, {"time": 2231, "pitch": 80, "duration": 1, "velocity": 81}, {"time": 2234, "pitch": 85, "duration": 1, "velocity": 80}, {"time": 2237, "pitch": 85, "duration": 2, "velocity": 80}, {"time": 2240, "pitch": 85, "duration": 1, "velocity": 80}, {"time": 2243, "pitch": 85, "duration": 1, "velocity": 84}, {"time": 2246, "pitch": 80, "duration": 1, "velocity": 80}, {"time": 2249, "pitch": 80, "duration": 1, "velocity": 78}, {"time": 2252, "pitch": 80, "duration": 1, "velocity": 80}, {"time": 2255, "pitch": 80, "duration": 2, "velocity": 80}, {"time": 2258, "pitch": 78, "duration": 1, "velocity": 75}, {"time": 2261, "pitch": 78, "duration": 2, "velocity": 80}, {"time": 2264, "pitch": 76, "duration": 2, "velocity": 76}, {"time": 2267, "pitch": 78, "duration": 2, "velocity": 71}, {"time": 2270, "pitch": 76, "duration": 1, "velocity": 76}, {"time": 2273, "pitch": 78, "duration": 2, "velocity": 80}, {"time": 2276, "pitch": 76, "duration": 1, "velocity": 75}, {"time": 2279, "pitch": 78, "duration": 1, "velocity": 80}, {"time": 2282, "pitch": 83, "duration": 1, "velocity": 80}, {"time": 2285, "pitch": 83, "duration": 1, "velocity": 81}, {"time": 2288, "pitch": 83, "duration": 1, "velocity": 82}, {"time": 2291, "pitch": 83, "duration": 2, "velocity": 83}, {"time": 2294, "pitch": 78, "duration": 1, "velocity": 77}, {"time": 2297, "pitch": 78, "duration": 1, "velocity": 81}, {"time": 2300, "pitch": 78, "duration": 1, "velocity": 78}, {"time": 2303, "pitch": 78, "duration": 2, "velocity": 80}, {"time": 2306, "pitch": 76, "duration": 1, "velocity": 76}, {"time": 2309, "pitch": 76, "duration": 2, "velocity": 77}, {"time": 2312, "pitch": 73, "duration": 2, "velocity": 82}, {"time": 2315, "pitch": 76, "duration": 14, "velocity": 75}, {"time": 2336, "pitch": 75, "duration": 2, "velocity": 80}, {"time": 2339, "pitch": 76, "duration": 15, "velocity": 80}, {"time": 2357, "pitch": 81, "duration": 5, "velocity": 84}, {"time": 2363, "pitch": 80, "duration": 28, "velocity": 76}, {"time": 2591, "pitch": 76, "duration": 6, "velocity": 67}, {"time": 2597, "pitch": 78, "duration": 6, "velocity": 67}, {"time": 2603, "pitch": 80, "duration": 2, "velocity": 78}, {"time": 2606, "pitch": 78, "duration": 2, "velocity": 72}, {"time": 2609, "pitch": 80, "duration": 2, "velocity": 75}, {"time": 2612, "pitch": 78, "duration": 3, "velocity": 75}, {"time": 2615, "pitch": 80, "duration": 3, "velocity": 79}, {"time": 2618, "pitch": 85, "duration": 2, "velocity": 80}, {"time": 2621, "pitch": 85, "duration": 3, "velocity": 73}, {"time": 2624, "pitch": 85, "duration": 3, "velocity": 73}, {"time": 2627, "pitch": 85, "duration": 3, "velocity": 73}, {"time": 2630, "pitch": 80, "duration": 1, "velocity": 71}, {"time": 2633, "pitch": 80, "duration": 1, "velocity": 76}, {"time": 2636, "pitch": 80, "duration": 1, "velocity": 81}, {"time": 2639, "pitch": 80, "duration": 2, "velocity": 81}, {"time": 2642, "pitch": 78, "duration": 1, "velocity": 80}, {"time": 2645, "pitch": 78, "duration": 2, "velocity": 80}, {"time": 2648, "pitch": 76, "duration": 2, "velocity": 78}, {"time": 2651, "pitch": 78, "duration": 2, "velocity": 76}, {"time": 2654, "pitch": 76, "duration": 1, "velocity": 76}, {"time": 2657, "pitch": 78, "duration": 2, "velocity": 78}, {"time": 2660, "pitch": 76, "duration": 2, "velocity": 76}, {"time": 2663, "pitch": 78, "duration": 1, "velocity": 81}, {"time": 2666, "pitch": 83, "duration": 1, "velocity": 80}, {"time": 2669, "pitch": 83, "duration": 1, "velocity": 82}, {"time": 2672, "pitch": 83, "duration": 1, "velocity": 77}, {"time": 2675, "pitch": 83, "duration": 1, "velocity": 81}, {"time": 2678, "pitch": 78, "duration": 1, "velocity": 63}, {"time": 2681, "pitch": 78, "duration": 1, "velocity": 77}, {"time": 2684, "pitch": 78, "duration": 1, "velocity": 80}, {"time": 2687, "pitch": 78, "duration": 3, "velocity": 81}, {"time": 2690, "pitch": 76, "duration": 1, "velocity": 75}, {"time": 2693, "pitch": 76, "duration": 2, "velocity": 78}, {"time": 2696, "pitch": 73, "duration": 2, "velocity": 84}, {"time": 2699, "pitch": 76, "duration": 4, "velocity": 80}, {"time": 2705, "pitch": 76, "duration": 5, "velocity": 80}, {"time": 2735, "pitch": 75, "duration": 2, "velocity": 81}, {"time": 2738, "pitch": 76, "duration": 5, "velocity": 81}, {"time": 2744, "pitch": 71, "duration": 21, "velocity": 82}, {"time": 2771, "pitch": 80, "duration": 11, "velocity": 77}, {"time": 2783, "pitch": 78, "duration": 10, "velocity": 81}, {"time": 2795, "pitch": 80, "duration": 2, "velocity": 78}, {"time": 2798, "pitch": 78, "duration": 1, "velocity": 77}, {"time": 2801, "pitch": 80, "duration": 2, "velocity": 81}, {"time": 2804, "pitch": 78, "duration": 3, "velocity": 80}, {"time": 2807, "pitch": 80, "duration": 1, "velocity": 81}, {"time": 2810, "pitch": 85, "duration": 1, "velocity": 80}, {"time": 2813, "pitch": 85, "duration": 2, "velocity": 80}, {"time": 2816, "pitch": 85, "duration": 1, "velocity": 80}, {"time": 2819, "pitch": 85, "duration": 1, "velocity": 84}, {"time": 2822, "pitch": 80, "duration": 1, "velocity": 80}, {"time": 2825, "pitch": 80, "duration": 1, "velocity": 78}, {"time": 2828, "pitch": 80, "duration": 1, "velocity": 80}, {"time": 2831, "pitch": 80, "duration": 2, "velocity": 80}, {"time": 2834, "pitch": 78, "duration": 1, "velocity": 75}, {"time": 2837, "pitch": 78, "duration": 2, "velocity": 80}, {"time": 2840, "pitch": 76, "duration": 2, "velocity": 76}, {"time": 2843, "pitch": 78, "duration": 2, "velocity": 71}, {"time": 2846, "pitch": 76, "duration": 1, "velocity": 76}, {"time": 2849, "pitch": 78, "duration": 2, "velocity": 80}, {"time": 2852, "pitch": 76, "duration": 1, "velocity": 75}, {"time": 2855, "pitch": 78, "duration": 1, "velocity": 80}, {"time": 2858, "pitch": 83, "duration": 1, "velocity": 80}, {"time": 2861, "pitch": 83, "duration": 1, "velocity": 81}, {"time": 2864, "pitch": 83, "duration": 1, "velocity": 82}, {"time": 2867, "pitch": 83, "duration": 2, "velocity": 83}, {"time": 2870, "pitch": 78, "duration": 1, "velocity": 77}, {"time": 2873, "pitch": 78, "duration": 1, "velocity": 81}, {"time": 2876, "pitch": 78, "duration": 1, "velocity": 78}, {"time": 2879, "pitch": 78, "duration": 2, "velocity": 80}, {"time": 2882, "pitch": 76, "duration": 1, "velocity": 76}, {"time": 2885, "pitch": 76, "duration": 2, "velocity": 77}, {"time": 2888, "pitch": 73, "duration": 2, "velocity": 82}, {"time": 2891, "pitch": 76, "duration": 14, "velocity": 75}, {"time": 2912, "pitch": 75, "duration": 2, "velocity": 80}, {"time": 2915, "pitch": 76, "duration": 15, "velocity": 80}, {"time": 2933, "pitch": 81, "duration": 5, "velocity": 84}, {"time": 2939, "pitch": 80, "duration": 28, "velocity": 76}, {"time": 3005, "pitch": 73, "duration": 4, "velocity": 82}, {"time": 3009, "pitch": 76, "duration": 3, "velocity": 75}, {"time": 3012, "pitch": 80, "duration": 8, "velocity": 71}, {"time": 3024, "pitch": 78, "duration": 4, "velocity": 75}, {"time": 3030, "pitch": 75, "duration": 4, "velocity": 70}, {"time": 3034, "pitch": 71, "duration": 12, "velocity": 59}, {"time": 3051, "pitch": 68, "duration": 3, "velocity": 66}, {"time": 3054, "pitch": 71, "duration": 4, "velocity": 72}, {"time": 3058, "pitch": 75, "duration": 7, "velocity": 75}, {"time": 3066, "pitch": 75, "duration": 6, "velocity": 77}, {"time": 3072, "pitch": 73, "duration": 4, "velocity": 76}, {"time": 3076, "pitch": 76, "duration": 19, "velocity": 70}, {"time": 3100, "pitch": 69, "duration": 2, "velocity": 68}, {"time": 3103, "pitch": 69, "duration": 3, "velocity": 72}, {"time": 3107, "pitch": 73, "duration": 8, "velocity": 80}, {"time": 3117, "pitch": 73, "duration": 5, "velocity": 80}, {"time": 3123, "pitch": 71, "duration": 2, "velocity": 72}, {"time": 3127, "pitch": 71, "duration": 9, "velocity": 74}, {"time": 3142, "pitch": 66, "duration": 3, "velocity": 78}, {"time": 3145, "pitch": 69, "duration": 5, "velocity": 69}, {"time": 3149, "pitch": 68, "duration": 10, "velocity": 72}, {"time": 3176, "pitch": 68, "duration": 7, "velocity": 67}, {"time": 3180, "pitch": 66, "duration": 12, "velocity": 43}]}, {"program": 0, "is_drum": false, "name": "BRIDGE", "notes": [{"time": 18, "pitch": 76, "duration": 2, "velocity": 80}, {"time": 20, "pitch": 78, "duration": 2, "velocity": 76}, {"time": 22, "pitch": 80, "duration": 4, "velocity": 75}, {"time": 26, "pitch": 78, "duration": 4, "velocity": 76}, {"time": 30, "pitch": 80, "duration": 4, "velocity": 76}, {"time": 34, "pitch": 73, "duration": 17, "velocity": 82}, {"time": 54, "pitch": 76, "duration": 3, "velocity": 70}, {"time": 56, "pitch": 78, "duration": 3, "velocity": 80}, {"time": 59, "pitch": 80, "duration": 4, "velocity": 80}, {"time": 63, "pitch": 78, "duration": 4, "velocity": 78}, {"time": 67, "pitch": 80, "duration": 4, "velocity": 82}, {"time": 71, "pitch": 71, "duration": 17, "velocity": 82}, {"time": 93, "pitch": 76, "duration": 3, "velocity": 74}, {"time": 96, "pitch": 78, "duration": 3, "velocity": 80}, {"time": 98, "pitch": 80, "duration": 4, "velocity": 81}, {"time": 102, "pitch": 78, "duration": 5, "velocity": 80}, {"time": 106, "pitch": 80, "duration": 4, "velocity": 78}, {"time": 110, "pitch": 73, "duration": 12, "velocity": 82}, {"time": 122, "pitch": 83, "duration": 13, "velocity": 82}, {"time": 133, "pitch": 80, "duration": 28, "velocity": 75}, {"time": 174, "pitch": 61, "duration": 3, "velocity": 76}, {"time": 176, "pitch": 59, "duration": 4, "velocity": 75}, {"time": 179, "pitch": 61, "duration": 5, "velocity": 82}, {"time": 185, "pitch": 73, "duration": 3, "velocity": 86}, {"time": 187, "pitch": 71, "duration": 4, "velocity": 80}, {"time": 190, "pitch": 73, "duration": 5, "velocity": 82}, {"time": 195, "pitch": 85, "duration": 3, "velocity": 81}, {"time": 195, "pitch": 80, "duration": 3, "velocity": 75}, {"time": 198, "pitch": 78, "duration": 3, "velocity": 73}, {"time": 198, "pitch": 83, "duration": 3, "velocity": 82}, {"time": 200, "pitch": 80, "duration": 5, "velocity": 74}, {"time": 200, "pitch": 85, "duration": 6, "velocity": 84}, {"time": 205, "pitch": 80, "duration": 3, "velocity": 81}, {"time": 208, "pitch": 78, "duration": 3, "velocity": 81}, {"time": 211, "pitch": 80, "duration": 6, "velocity": 86}, {"time": 216, "pitch": 66, "duration": 4, "velocity": 80}, {"time": 219, "pitch": 64, "duration": 4, "velocity": 80}, {"time": 222, "pitch": 66, "duration": 7, "velocity": 80}, {"time": 227, "pitch": 75, "duration": 4, "velocity": 82}, {"time": 230, "pitch": 73, "duration": 3, "velocity": 84}, {"time": 233, "pitch": 75, "duration": 5, "velocity": 81}, {"time": 238, "pitch": 68, "duration": 11, "velocity": 63}, {"time": 239, "pitch": 71, "duration": 10, "velocity": 73}, {"time": 249, "pitch": 73, "duration": 5, "velocity": 80}, {"time": 249, "pitch": 68, "duration": 11, "velocity": 70}, {"time": 254, "pitch": 73, "duration": 2, "velocity": 80}, {"time": 255, "pitch": 75, "duration": 2, "velocity": 76}, {"time": 257, "pitch": 76, "duration": 2, "velocity": 69}, {"time": 258, "pitch": 78, "duration": 2, "velocity": 70}, {"time": 259, "pitch": 80, "duration": 8, "velocity": 81}, {"time": 271, "pitch": 85, "duration": 4, "velocity": 86}, {"time": 275, "pitch": 92, "duration": 7, "velocity": 81}, {"time": 287, "pitch": 74, "duration": 4, "velocity": 81}, {"time": 288, "pitch": 77, "duration": 7, "velocity": 61}, {"time": 290, "pitch": 82, "duration": 6, "velocity": 63}, {"time": 291, "pitch": 86, "duration": 2, "velocity": 64}, {"time": 293, "pitch": 89, "duration": 3, "velocity": 52}, {"time": 295, "pitch": 94, "duration": 2, "velocity": 56}, {"time": 297, "pitch": 98, "duration": 8, "velocity": 64}, {"time": 303, "pitch": 64, "duration": 20, "velocity": 71}, {"time": 304, "pitch": 61, "duration": 18, "velocity": 65}, {"time": 318, "pitch": 69, "duration": 3, "velocity": 69}, {"time": 320, "pitch": 73, "duration": 3, "velocity": 80}, {"time": 322, "pitch": 76, "duration": 4, "velocity": 80}, {"time": 325, "pitch": 75, "duration": 22, "velocity": 80}, {"time": 731, "pitch": 64, "duration": 23, "velocity": 55}, {"time": 731, "pitch": 69, "duration": 23, "velocity": 60}, {"time": 755, "pitch": 71, "duration": 37, "velocity": 66}, {"time": 780, "pitch": 68, "duration": 18, "velocity": 42}, {"time": 797, "pitch": 66, "duration": 7, "velocity": 70}, {"time": 803, "pitch": 64, "duration": 24, "velocity": 73}, {"time": 874, "pitch": 68, "duration": 18, "velocity": 68}, {"time": 874, "pitch": 64, "duration": 17, "velocity": 57}, {"time": 892, "pitch": 69, "duration": 7, "velocity": 65}, {"time": 898, "pitch": 71, "duration": 24, "velocity": 77}, {"time": 959, "pitch": 78, "duration": 12, "velocity": 71}, {"time": 970, "pitch": 75, "duration": 19, "velocity": 76}, {"time": 988, "pitch": 71, "duration": 7, "velocity": 73}, {"time": 994, "pitch": 76, "duration": 39, "velocity": 69}, {"time": 1036, "pitch": 73, "duration": 6, "velocity": 75}, {"time": 1042, "pitch": 71, "duration": 19, "velocity": 71}, {"time": 1060, "pitch": 69, "duration": 7, "velocity": 63}, {"time": 1066, "pitch": 68, "duration": 72, "velocity": 67}, {"time": 1163, "pitch": 69, "duration": 26, "velocity": 62}, {"time": 1163, "pitch": 73, "duration": 35, "velocity": 81}, {"time": 1199, "pitch": 68, "duration": 7, "velocity": 74}, {"time": 1205, "pitch": 73, "duration": 7, "velocity": 75}, {"time": 1211, "pitch": 66, "duration": 23, "velocity": 79}, {"time": 1241, "pitch": 71, "duration": 6, "velocity": 77}, {"time": 1247, "pitch": 66, "duration": 11, "velocity": 81}, {"time": 1259, "pitch": 64, "duration": 22, "velocity": 81}, {"time": 1295, "pitch": 66, "duration": 6, "velocity": 70}, {"time": 1301, "pitch": 64, "duration": 6, "velocity": 79}, {"time": 1307, "pitch": 68, "duration": 25, "velocity": 74}, {"time": 1343, "pitch": 69, "duration": 6, "velocity": 73}, {"time": 1349, "pitch": 71, "duration": 5, "velocity": 73}, {"time": 1355, "pitch": 73, "duration": 27, "velocity": 82}, {"time": 1385, "pitch": 73, "duration": 6, "velocity": 87}, {"time": 1391, "pitch": 68, "duration": 12, "velocity": 80}, {"time": 1403, "pitch": 66, "duration": 30, "velocity": 81}, {"time": 1433, "pitch": 71, "duration": 6, "velocity": 80}, {"time": 1439, "pitch": 66, "duration": 12, "velocity": 81}, {"time": 1451, "pitch": 64, "duration": 22, "velocity": 78}, {"time": 1487, "pitch": 66, "duration": 10, "velocity": 73}, {"time": 1499, "pitch": 64, "duration": 45, "velocity": 68}, {"time": 1499, "pitch": 68, "duration": 45, "velocity": 70}, {"time": 1547, "pitch": 66, "duration": 3, "velocity": 82}, {"time": 1550, "pitch": 68, "duration": 3, "velocity": 78}, {"time": 1553, "pitch": 71, "duration": 3, "velocity": 79}, {"time": 1556, "pitch": 68, "duration": 3, "velocity": 80}, {"time": 1559, "pitch": 73, "duration": 3, "velocity": 91}, {"time": 1562, "pitch": 71, "duration": 3, "velocity": 80}, {"time": 1565, "pitch": 68, "duration": 4, "velocity": 80}, {"time": 1571, "pitch": 78, "duration": 4, "velocity": 89}, {"time": 1574, "pitch": 76, "duration": 3, "velocity": 76}, {"time": 1577, "pitch": 73, "duration": 2, "velocity": 82}, {"time": 1580, "pitch": 80, "duration": 3, "velocity": 80}, {"time": 1583, "pitch": 76, "duration": 2, "velocity": 80}, {"time": 1586, "pitch": 73, "duration": 3, "velocity": 75}, {"time": 1589, "pitch": 85, "duration": 6, "velocity": 75}, {"time": 1595, "pitch": 83, "duration": 18, "velocity": 86}, {"time": 1612, "pitch": 71, "duration": 3, "velocity": 80}, {"time": 1614, "pitch": 76, "duration": 3, "velocity": 74}, {"time": 1616, "pitch": 78, "duration": 2, "velocity": 76}, {"time": 1618, "pitch": 85, "duration": 21, "velocity": 79}, {"time": 1643, "pitch": 73, "duration": 23, "velocity": 81}, {"time": 1679, "pitch": 73, "duration": 12, "velocity": 81}, {"time": 1691, "pitch": 71, "duration": 41, "velocity": 69}, {"time": 1733, "pitch": 68, "duration": 5, "velocity": 75}, {"time": 1739, "pitch": 69, "duration": 28, "velocity": 75}, {"time": 1775, "pitch": 71, "duration": 6, "velocity": 78}, {"time": 1781, "pitch": 69, "duration": 6, "velocity": 80}, {"time": 1787, "pitch": 68, "duration": 19, "velocity": 74}, {"time": 1805, "pitch": 69, "duration": 6, "velocity": 82}, {"time": 1811, "pitch": 71, "duration": 12, "velocity": 78}, {"time": 1823, "pitch": 68, "duration": 13, "velocity": 75}, {"time": 1835, "pitch": 73, "duration": 23, "velocity": 81}, {"time": 1877, "pitch": 75, "duration": 3, "velocity": 80}, {"time": 1880, "pitch": 76, "duration": 3, "velocity": 71}, {"time": 1883, "pitch": 75, "duration": 24, "velocity": 78}, {"time": 1907, "pitch": 73, "duration": 18, "velocity": 80}, {"time": 1925, "pitch": 76, "duration": 7, "velocity": 67}, {"time": 1931, "pitch": 73, "duration": 24, "velocity": 81}, {"time": 1955, "pitch": 75, "duration": 18, "velocity": 81}, {"time": 1973, "pitch": 78, "duration": 6, "velocity": 77}, {"time": 1979, "pitch": 76, "duration": 18, "velocity": 80}, {"time": 1997, "pitch": 78, "duration": 7, "velocity": 80}, {"time": 2003, "pitch": 80, "duration": 21, "velocity": 81}, {"time": 2027, "pitch": 69, "duration": 26, "velocity": 62}, {"time": 2027, "pitch": 73, "duration": 35, "velocity": 81}, {"time": 2063, "pitch": 68, "duration": 7, "velocity": 74}, {"time": 2069, "pitch": 73, "duration": 7, "velocity": 75}, {"time": 2075, "pitch": 66, "duration": 23, "velocity": 79}, {"time": 2105, "pitch": 71, "duration": 6, "velocity": 77}, {"time": 2111, "pitch": 66, "duration": 11, "velocity": 81}, {"time": 2123, "pitch": 64, "duration": 22, "velocity": 81}, {"time": 2159, "pitch": 66, "duration": 6, "velocity": 70}, {"time": 2165, "pitch": 64, "duration": 6, "velocity": 79}, {"time": 2171, "pitch": 68, "duration": 25, "velocity": 74}, {"time": 2207, "pitch": 69, "duration": 6, "velocity": 73}, {"time": 2213, "pitch": 71, "duration": 5, "velocity": 73}, {"time": 2219, "pitch": 73, "duration": 27, "velocity": 82}, {"time": 2249, "pitch": 73, "duration": 6, "velocity": 87}, {"time": 2255, "pitch": 68, "duration": 12, "velocity": 80}, {"time": 2267, "pitch": 66, "duration": 30, "velocity": 81}, {"time": 2297, "pitch": 71, "duration": 6, "velocity": 80}, {"time": 2303, "pitch": 66, "duration": 12, "velocity": 81}, {"time": 2315, "pitch": 64, "duration": 22, "velocity": 78}, {"time": 2351, "pitch": 66, "duration": 10, "velocity": 73}, {"time": 2363, "pitch": 64, "duration": 45, "velocity": 68}, {"time": 2363, "pitch": 68, "duration": 45, "velocity": 70}, {"time": 2407, "pitch": 64, "duration": 1, "velocity": 85}, {"time": 2411, "pitch": 73, "duration": 3, "velocity": 85}, {"time": 2413, "pitch": 71, "duration": 3, "velocity": 81}, {"time": 2416, "pitch": 73, "duration": 6, "velocity": 91}, {"time": 2423, "pitch": 78, "duration": 2, "velocity": 76}, {"time": 2423, "pitch": 73, "duration": 3, "velocity": 81}, {"time": 2425, "pitch": 76, "duration": 3, "velocity": 76}, {"time": 2428, "pitch": 78, "duration": 6, "velocity": 80}, {"time": 2429, "pitch": 73, "duration": 5, "velocity": 81}, {"time": 2435, "pitch": 80, "duration": 2, "velocity": 80}, {"time": 2435, "pitch": 73, "duration": 2, "velocity": 68}, {"time": 2438, "pitch": 80, "duration": 4, "velocity": 82}, {"time": 2438, "pitch": 73, "duration": 4, "velocity": 84}, {"time": 2444, "pitch": 80, "duration": 2, "velocity": 81}, {"time": 2444, "pitch": 73, "duration": 1, "velocity": 82}, {"time": 2447, "pitch": 76, "duration": 4, "velocity": 81}, {"time": 2447, "pitch": 73, "duration": 4, "velocity": 83}, {"time": 2453, "pitch": 78, "duration": 12, "velocity": 80}, {"time": 2453, "pitch": 75, "duration": 11, "velocity": 83}, {"time": 2468, "pitch": 80, "duration": 2, "velocity": 70}, {"time": 2468, "pitch": 83, "duration": 5, "velocity": 73}, {"time": 2474, "pitch": 85, "duration": 1, "velocity": 82}, {"time": 2476, "pitch": 85, "duration": 2, "velocity": 87}, {"time": 2478, "pitch": 83, "duration": 1, "velocity": 80}, {"time": 2479, "pitch": 80, "duration": 2, "velocity": 71}, {"time": 2481, "pitch": 78, "duration": 1, "velocity": 83}, {"time": 2483, "pitch": 80, "duration": 9, "velocity": 82}, {"time": 2492, "pitch": 76, "duration": 6, "velocity": 76}, {"time": 2492, "pitch": 80, "duration": 1, "velocity": 76}, {"time": 2498, "pitch": 78, "duration": 3, "velocity": 80}, {"time": 2501, "pitch": 76, "duration": 3, "velocity": 82}, {"time": 2504, "pitch": 73, "duration": 9, "velocity": 84}, {"time": 2513, "pitch": 68, "duration": 3, "velocity": 81}, {"time": 2516, "pitch": 71, "duration": 3, "velocity": 82}, {"time": 2519, "pitch": 73, "duration": 3, "velocity": 84}, {"time": 2522, "pitch": 76, "duration": 3, "velocity": 83}, {"time": 2525, "pitch": 78, "duration": 3, "velocity": 81}, {"time": 2528, "pitch": 76, "duration": 7, "velocity": 87}, {"time": 2537, "pitch": 80, "duration": 3, "velocity": 91}, {"time": 2540, "pitch": 83, "duration": 1, "velocity": 91}, {"time": 2543, "pitch": 83, "duration": 2, "velocity": 85}, {"time": 2546, "pitch": 83, "duration": 2, "velocity": 84}, {"time": 2549, "pitch": 80, "duration": 2, "velocity": 82}, {"time": 2552, "pitch": 83, "duration": 3, "velocity": 87}, {"time": 2555, "pitch": 83, "duration": 3, "velocity": 91}, {"time": 2558, "pitch": 80, "duration": 3, "velocity": 72}, {"time": 2561, "pitch": 83, "duration": 3, "velocity": 84}, {"time": 2564, "pitch": 78, "duration": 3, "velocity": 81}, {"time": 2567, "pitch": 76, "duration": 3, "velocity": 80}, {"time": 2570, "pitch": 73, "duration": 3, "velocity": 84}, {"time": 2573, "pitch": 71, "duration": 3, "velocity": 81}, {"time": 2576, "pitch": 76, "duration": 15, "velocity": 71}, {"time": 2615, "pitch": 76, "duration": 12, "velocity": 71}, {"time": 2627, "pitch": 73, "duration": 24, "velocity": 77}, {"time": 2651, "pitch": 75, "duration": 18, "velocity": 81}, {"time": 2681, "pitch": 76, "duration": 6, "velocity": 64}, {"time": 2687, "pitch": 75, "duration": 6, "velocity": 80}, {"time": 2693, "pitch": 71, "duration": 5, "velocity": 72}, {"time": 2699, "pitch": 64, "duration": 22, "velocity": 81}, {"time": 2735, "pitch": 66, "duration": 6, "velocity": 70}, {"time": 2741, "pitch": 64, "duration": 6, "velocity": 79}, {"time": 2747, "pitch": 68, "duration": 25, "velocity": 74}, {"time": 2783, "pitch": 69, "duration": 6, "velocity": 73}, {"time": 2789, "pitch": 71, "duration": 5, "velocity": 73}, {"time": 2795, "pitch": 73, "duration": 27, "velocity": 82}, {"time": 2825, "pitch": 73, "duration": 6, "velocity": 87}, {"time": 2831, "pitch": 68, "duration": 12, "velocity": 80}, {"time": 2843, "pitch": 66, "duration": 30, "velocity": 81}, {"time": 2873, "pitch": 71, "duration": 6, "velocity": 80}, {"time": 2879, "pitch": 66, "duration": 12, "velocity": 81}, {"time": 2891, "pitch": 64, "duration": 22, "velocity": 78}, {"time": 2927, "pitch": 66, "duration": 10, "velocity": 73}, {"time": 2939, "pitch": 64, "duration": 45, "velocity": 68}, {"time": 2939, "pitch": 68, "duration": 45, "velocity": 70}]}, {"program": 0, "is_drum": false, "name": "PIANO", "notes": [{"time": 22, "pitch": 45, "duration": 19, "velocity": 69}, {"time": 22, "pitch": 57, "duration": 17, "velocity": 67}, {"time": 23, "pitch": 61, "duration": 16, "velocity": 74}, {"time": 24, "pitch": 64, "duration": 17, "velocity": 60}, {"time": 56, "pitch": 44, "duration": 27, "velocity": 67}, {"time": 57, "pitch": 56, "duration": 25, "velocity": 67}, {"time": 58, "pitch": 59, "duration": 23, "velocity": 68}, {"time": 59, "pitch": 63, "duration": 23, "velocity": 74}, {"time": 97, "pitch": 54, "duration": 27, "velocity": 63}, {"time": 98, "pitch": 57, "duration": 26, "velocity": 66}, {"time": 98, "pitch": 42, "duration": 28, "velocity": 70}, {"time": 99, "pitch": 61, "duration": 25, "velocity": 73}, {"time": 129, "pitch": 56, "duration": 8, "velocity": 28}, {"time": 130, "pitch": 40, "duration": 29, "velocity": 74}, {"time": 130, "pitch": 59, "duration": 10, "velocity": 62}, {"time": 130, "pitch": 63, "duration": 12, "velocity": 63}, {"time": 135, "pitch": 47, "duration": 22, "velocity": 53}, {"time": 140, "pitch": 56, "duration": 20, "velocity": 58}, {"time": 145, "pitch": 59, "duration": 15, "velocity": 70}, {"time": 150, "pitch": 63, "duration": 10, "velocity": 41}, {"time": 173, "pitch": 57, "duration": 33, "velocity": 69}, {"time": 174, "pitch": 45, "duration": 33, "velocity": 70}, {"time": 174, "pitch": 61, "duration": 33, "velocity": 74}, {"time": 175, "pitch": 64, "duration": 32, "velocity": 70}, {"time": 215, "pitch": 44, "duration": 21, "velocity": 74}, {"time": 216, "pitch": 54, "duration": 11, "velocity": 61}, {"time": 217, "pitch": 59, "duration": 11, "velocity": 63}, {"time": 217, "pitch": 63, "duration": 11, "velocity": 65}, {"time": 237, "pitch": 56, "duration": 6, "velocity": 50}, {"time": 237, "pitch": 59, "duration": 8, "velocity": 73}, {"time": 238, "pitch": 63, "duration": 6, "velocity": 67}, {"time": 238, "pitch": 44, "duration": 10, "velocity": 59}, {"time": 239, "pitch": 68, "duration": 5, "velocity": 72}, {"time": 248, "pitch": 56, "duration": 11, "velocity": 60}, {"time": 249, "pitch": 49, "duration": 9, "velocity": 80}, {"time": 249, "pitch": 61, "duration": 10, "velocity": 69}, {"time": 259, "pitch": 54, "duration": 8, "velocity": 69}, {"time": 260, "pitch": 42, "duration": 20, "velocity": 76}, {"time": 260, "pitch": 57, "duration": 19, "velocity": 67}, {"time": 261, "pitch": 61, "duration": 19, "velocity": 67}, {"time": 265, "pitch": 49, "duration": 15, "velocity": 61}, {"time": 282, "pitch": 50, "duration": 20, "velocity": 74}, {"time": 282, "pitch": 58, "duration": 20, "velocity": 68}, {"time": 283, "pitch": 62, "duration": 20, "velocity": 72}, {"time": 284, "pitch": 65, "duration": 19, "velocity": 68}, {"time": 285, "pitch": 68, "duration": 18, "velocity": 61}, {"time": 302, "pitch": 54, "duration": 23, "velocity": 68}, {"time": 302, "pitch": 45, "duration": 23, "velocity": 66}, {"time": 303, "pitch": 59, "duration": 22, "velocity": 69}, {"time": 304, "pitch": 63, "duration": 21, "velocity": 62}, {"time": 325, "pitch": 59, "duration": 20, "velocity": 61}, {"time": 325, "pitch": 47, "duration": 21, "velocity": 59}, {"time": 325, "pitch": 63, "duration": 20, "velocity": 71}, {"time": 326, "pitch": 66, "duration": 20, "velocity": 49}, {"time": 327, "pitch": 71, "duration": 19, "velocity": 52}, {"time": 345, "pitch": 57, "duration": 22, "velocity": 67}, {"time": 346, "pitch": 45, "duration": 22, "velocity": 76}, {"time": 346, "pitch": 61, "duration": 22, "velocity": 70}, {"time": 347, "pitch": 64, "duration": 22, "velocity": 71}, {"time": 368, "pitch": 57, "duration": 18, "velocity": 61}, {"time": 370, "pitch": 45, "duration": 17, "velocity": 69}, {"time": 370, "pitch": 61, "duration": 16, "velocity": 68}, {"time": 388, "pitch": 57, "duration": 2, "velocity": 80}, {"time": 388, "pitch": 61, "duration": 5, "velocity": 80}, {"time": 394, "pitch": 59, "duration": 15, "velocity": 76}, {"time": 394, "pitch": 54, "duration": 14, "velocity": 69}, {"time": 394, "pitch": 44, "duration": 23, "velocity": 80}, {"time": 418, "pitch": 56, "duration": 13, "velocity": 57}, {"time": 418, "pitch": 61, "duration": 13, "velocity": 70}, {"time": 418, "pitch": 49, "duration": 18, "velocity": 79}, {"time": 419, "pitch": 64, "duration": 17, "velocity": 69}, {"time": 436, "pitch": 63, "duration": 1, "velocity": 81}, {"time": 441, "pitch": 54, "duration": 18, "velocity": 66}, {"time": 442, "pitch": 57, "duration": 16, "velocity": 68}, {"time": 442, "pitch": 42, "duration": 22, "velocity": 77}, {"time": 443, "pitch": 61, "duration": 16, "velocity": 63}, {"time": 465, "pitch": 54, "duration": 15, "velocity": 66}, {"time": 466, "pitch": 59, "duration": 14, "velocity": 69}, {"time": 466, "pitch": 47, "duration": 22, "velocity": 74}, {"time": 467, "pitch": 63, "duration": 12, "velocity": 64}, {"time": 484, "pitch": 59, "duration": 3, "velocity": 79}, {"time": 487, "pitch": 54, "duration": 4, "velocity": 75}, {"time": 490, "pitch": 57, "duration": 8, "velocity": 64}, {"time": 490, "pitch": 40, "duration": 21, "velocity": 75}, {"time": 496, "pitch": 47, "duration": 12, "velocity": 65}, {"time": 499, "pitch": 52, "duration": 7, "velocity": 71}, {"time": 499, "pitch": 56, "duration": 7, "velocity": 73}, {"time": 512, "pitch": 64, "duration": 15, "velocity": 74}, {"time": 513, "pitch": 59, "duration": 14, "velocity": 69}, {"time": 514, "pitch": 56, "duration": 11, "velocity": 72}, {"time": 514, "pitch": 40, "duration": 15, "velocity": 75}, {"time": 514, "pitch": 52, "duration": 11, "velocity": 63}, {"time": 532, "pitch": 56, "duration": 5, "velocity": 80}, {"time": 538, "pitch": 57, "duration": 12, "velocity": 81}, {"time": 538, "pitch": 45, "duration": 21, "velocity": 69}, {"time": 539, "pitch": 61, "duration": 12, "velocity": 63}, {"time": 561, "pitch": 45, "duration": 15, "velocity": 69}, {"time": 561, "pitch": 61, "duration": 13, "velocity": 65}, {"time": 562, "pitch": 69, "duration": 8, "velocity": 63}, {"time": 580, "pitch": 64, "duration": 5, "velocity": 80}, {"time": 580, "pitch": 61, "duration": 2, "velocity": 73}, {"time": 585, "pitch": 59, "duration": 4, "velocity": 41}, {"time": 586, "pitch": 44, "duration": 19, "velocity": 80}, {"time": 586, "pitch": 63, "duration": 8, "velocity": 75}, {"time": 597, "pitch": 54, "duration": 7, "velocity": 69}, {"time": 598, "pitch": 51, "duration": 6, "velocity": 62}, {"time": 598, "pitch": 59, "duration": 6, "velocity": 74}, {"time": 599, "pitch": 63, "duration": 5, "velocity": 75}, {"time": 610, "pitch": 56, "duration": 7, "velocity": 69}, {"time": 610, "pitch": 37, "duration": 4, "velocity": 74}, {"time": 610, "pitch": 61, "duration": 8, "velocity": 76}, {"time": 626, "pitch": 49, "duration": 2, "velocity": 76}, {"time": 628, "pitch": 64, "duration": 3, "velocity": 81}, {"time": 628, "pitch": 61, "duration": 2, "velocity": 79}, {"time": 634, "pitch": 54, "duration": 17, "velocity": 68}, {"time": 635, "pitch": 42, "duration": 21, "velocity": 75}, {"time": 635, "pitch": 57, "duration": 16, "velocity": 66}, {"time": 636, "pitch": 61, "duration": 16, "velocity": 70}, {"time": 657, "pitch": 54, "duration": 3, "velocity": 67}, {"time": 657, "pitch": 59, "duration": 6, "velocity": 74}, {"time": 658, "pitch": 47, "duration": 18, "velocity": 69}, {"time": 658, "pitch": 63, "duration": 12, "velocity": 70}, {"time": 664, "pitch": 54, "duration": 4, "velocity": 58}, {"time": 670, "pitch": 59, "duration": 2, "velocity": 75}, {"time": 681, "pitch": 52, "duration": 22, "velocity": 65}, {"time": 682, "pitch": 40, "duration": 22, "velocity": 77}, {"time": 682, "pitch": 56, "duration": 22, "velocity": 67}, {"time": 703, "pitch": 64, "duration": 2, "velocity": 71}, {"time": 705, "pitch": 52, "duration": 8, "velocity": 74}, {"time": 706, "pitch": 56, "duration": 8, "velocity": 79}, {"time": 706, "pitch": 40, "duration": 16, "velocity": 80}, {"time": 712, "pitch": 47, "duration": 7, "velocity": 66}, {"time": 717, "pitch": 52, "duration": 11, "velocity": 68}, {"time": 717, "pitch": 56, "duration": 8, "velocity": 79}, {"time": 717, "pitch": 62, "duration": 9, "velocity": 74}, {"time": 729, "pitch": 57, "duration": 17, "velocity": 65}, {"time": 730, "pitch": 45, "duration": 23, "velocity": 69}, {"time": 730, "pitch": 61, "duration": 15, "velocity": 75}, {"time": 731, "pitch": 69, "duration": 13, "velocity": 76}, {"time": 755, "pitch": 47, "duration": 17, "velocity": 81}, {"time": 759, "pitch": 54, "duration": 4, "velocity": 65}, {"time": 761, "pitch": 59, "duration": 11, "velocity": 75}, {"time": 764, "pitch": 63, "duration": 8, "velocity": 86}, {"time": 778, "pitch": 54, "duration": 14, "velocity": 66}, {"time": 779, "pitch": 59, "duration": 14, "velocity": 73}, {"time": 779, "pitch": 44, "duration": 23, "velocity": 80}, {"time": 780, "pitch": 63, "duration": 14, "velocity": 75}, {"time": 802, "pitch": 56, "duration": 9, "velocity": 65}, {"time": 803, "pitch": 49, "duration": 19, "velocity": 80}, {"time": 803, "pitch": 61, "duration": 9, "velocity": 76}, {"time": 813, "pitch": 56, "duration": 3, "velocity": 65}, {"time": 815, "pitch": 61, "duration": 1, "velocity": 71}, {"time": 816, "pitch": 64, "duration": 1, "velocity": 79}, {"time": 827, "pitch": 54, "duration": 7, "velocity": 60}, {"time": 827, "pitch": 57, "duration": 7, "velocity": 63}, {"time": 828, "pitch": 42, "duration": 21, "velocity": 76}, {"time": 828, "pitch": 61, "duration": 12, "velocity": 63}, {"time": 833, "pitch": 49, "duration": 14, "velocity": 59}, {"time": 839, "pitch": 54, "duration": 8, "velocity": 78}, {"time": 849, "pitch": 54, "duration": 6, "velocity": 72}, {"time": 850, "pitch": 59, "duration": 7, "velocity": 69}, {"time": 850, "pitch": 47, "duration": 19, "velocity": 83}, {"time": 851, "pitch": 63, "duration": 7, "velocity": 81}, {"time": 868, "pitch": 57, "duration": 2, "velocity": 89}, {"time": 874, "pitch": 52, "duration": 19, "velocity": 70}, {"time": 874, "pitch": 40, "duration": 42, "velocity": 80}, {"time": 874, "pitch": 56, "duration": 13, "velocity": 71}, {"time": 880, "pitch": 47, "duration": 37, "velocity": 61}, {"time": 886, "pitch": 59, "duration": 9, "velocity": 60}, {"time": 895, "pitch": 52, "duration": 6, "velocity": 67}, {"time": 896, "pitch": 56, "duration": 4, "velocity": 73}, {"time": 897, "pitch": 59, "duration": 5, "velocity": 69}, {"time": 898, "pitch": 64, "duration": 3, "velocity": 79}, {"time": 920, "pitch": 62, "duration": 2, "velocity": 56}, {"time": 922, "pitch": 61, "duration": 7, "velocity": 80}, {"time": 922, "pitch": 45, "duration": 22, "velocity": 82}, {"time": 925, "pitch": 52, "duration": 16, "velocity": 62}, {"time": 928, "pitch": 57, "duration": 15, "velocity": 68}, {"time": 931, "pitch": 61, "duration": 14, "velocity": 72}, {"time": 946, "pitch": 54, "duration": 14, "velocity": 55}, {"time": 946, "pitch": 59, "duration": 12, "velocity": 68}, {"time": 947, "pitch": 47, "duration": 18, "velocity": 80}, {"time": 947, "pitch": 63, "duration": 13, "velocity": 78}, {"time": 967, "pitch": 57, "duration": 3, "velocity": 80}, {"time": 970, "pitch": 56, "duration": 4, "velocity": 74}, {"time": 970, "pitch": 44, "duration": 23, "velocity": 81}, {"time": 973, "pitch": 51, "duration": 18, "velocity": 75}, {"time": 976, "pitch": 54, "duration": 10, "velocity": 77}, {"time": 979, "pitch": 59, "duration": 9, "velocity": 74}, {"time": 993, "pitch": 56, "duration": 17, "velocity": 69}, {"time": 994, "pitch": 49, "duration": 21, "velocity": 85}, {"time": 994, "pitch": 61, "duration": 16, "velocity": 75}, {"time": 1012, "pitch": 64, "duration": 4, "velocity": 84}, {"time": 1015, "pitch": 63, "duration": 4, "velocity": 67}, {"time": 1019, "pitch": 61, "duration": 11, "velocity": 76}, {"time": 1019, "pitch": 42, "duration": 21, "velocity": 80}, {"time": 1021, "pitch": 49, "duration": 18, "velocity": 68}, {"time": 1024, "pitch": 52, "duration": 12, "velocity": 76}, {"time": 1027, "pitch": 57, "duration": 9, "velocity": 74}, {"time": 1041, "pitch": 54, "duration": 9, "velocity": 63}, {"time": 1042, "pitch": 59, "duration": 8, "velocity": 72}, {"time": 1042, "pitch": 47, "duration": 22, "velocity": 77}, {"time": 1043, "pitch": 63, "duration": 11, "velocity": 64}, {"time": 1060, "pitch": 59, "duration": 3, "velocity": 78}, {"time": 1060, "pitch": 54, "duration": 4, "velocity": 75}, {"time": 1063, "pitch": 57, "duration": 4, "velocity": 60}, {"time": 1066, "pitch": 56, "duration": 13, "velocity": 68}, {"time": 1066, "pitch": 40, "duration": 66, "velocity": 81}, {"time": 1072, "pitch": 47, "duration": 59, "velocity": 58}, {"time": 1078, "pitch": 52, "duration": 7, "velocity": 58}, {"time": 1084, "pitch": 54, "duration": 5, "velocity": 73}, {"time": 1090, "pitch": 56, "duration": 2, "velocity": 76}, {"time": 1090, "pitch": 52, "duration": 3, "velocity": 75}, {"time": 1163, "pitch": 45, "duration": 16, "velocity": 82}, {"time": 1163, "pitch": 57, "duration": 6, "velocity": 73}, {"time": 1163, "pitch": 61, "duration": 7, "velocity": 76}, {"time": 1169, "pitch": 52, "duration": 10, "velocity": 68}, {"time": 1172, "pitch": 61, "duration": 1, "velocity": 79}, {"time": 1178, "pitch": 61, "duration": 2, "velocity": 79}, {"time": 1178, "pitch": 64, "duration": 2, "velocity": 84}, {"time": 1184, "pitch": 61, "duration": 1, "velocity": 40}, {"time": 1187, "pitch": 45, "duration": 16, "velocity": 75}, {"time": 1187, "pitch": 61, "duration": 5, "velocity": 76}, {"time": 1187, "pitch": 64, "duration": 5, "velocity": 74}, {"time": 1187, "pitch": 69, "duration": 5, "velocity": 76}, {"time": 1196, "pitch": 61, "duration": 1, "velocity": 69}, {"time": 1199, "pitch": 52, "duration": 5, "velocity": 80}, {"time": 1202, "pitch": 61, "duration": 3, "velocity": 86}, {"time": 1205, "pitch": 64, "duration": 1, "velocity": 81}, {"time": 1211, "pitch": 44, "duration": 21, "velocity": 81}, {"time": 1211, "pitch": 54, "duration": 6, "velocity": 77}, {"time": 1211, "pitch": 59, "duration": 6, "velocity": 79}, {"time": 1220, "pitch": 54, "duration": 1, "velocity": 82}, {"time": 1220, "pitch": 63, "duration": 1, "velocity": 81}, {"time": 1226, "pitch": 59, "duration": 4, "velocity": 75}, {"time": 1232, "pitch": 54, "duration": 1, "velocity": 61}, {"time": 1235, "pitch": 44, "duration": 19, "velocity": 77}, {"time": 1235, "pitch": 54, "duration": 10, "velocity": 73}, {"time": 1235, "pitch": 59, "duration": 11, "velocity": 75}, {"time": 1247, "pitch": 51, "duration": 5, "velocity": 76}, {"time": 1250, "pitch": 54, "duration": 1, "velocity": 81}, {"time": 1250, "pitch": 63, "duration": 4, "velocity": 83}, {"time": 1253, "pitch": 54, "duration": 3, "velocity": 79}, {"time": 1259, "pitch": 42, "duration": 22, "velocity": 81}, {"time": 1259, "pitch": 54, "duration": 6, "velocity": 74}, {"time": 1259, "pitch": 57, "duration": 6, "velocity": 81}, {"time": 1265, "pitch": 49, "duration": 16, "velocity": 58}, {"time": 1268, "pitch": 54, "duration": 3, "velocity": 76}, {"time": 1268, "pitch": 61, "duration": 3, "velocity": 79}, {"time": 1274, "pitch": 54, "duration": 1, "velocity": 75}, {"time": 1274, "pitch": 66, "duration": 3, "velocity": 76}, {"time": 1277, "pitch": 54, "duration": 2, "velocity": 68}, {"time": 1280, "pitch": 57, "duration": 1, "velocity": 63}, {"time": 1283, "pitch": 47, "duration": 17, "velocity": 82}, {"time": 1283, "pitch": 54, "duration": 3, "velocity": 75}, {"time": 1283, "pitch": 59, "duration": 6, "velocity": 75}, {"time": 1289, "pitch": 54, "duration": 1, "velocity": 57}, {"time": 1292, "pitch": 54, "duration": 4, "velocity": 80}, {"time": 1292, "pitch": 63, "duration": 4, "velocity": 82}, {"time": 1298, "pitch": 54, "duration": 1, "velocity": 67}, {"time": 1298, "pitch": 59, "duration": 2, "velocity": 76}, {"time": 1307, "pitch": 40, "duration": 21, "velocity": 81}, {"time": 1307, "pitch": 56, "duration": 7, "velocity": 71}, {"time": 1307, "pitch": 59, "duration": 10, "velocity": 78}, {"time": 1313, "pitch": 47, "duration": 15, "velocity": 55}, {"time": 1316, "pitch": 64, "duration": 9, "velocity": 81}, {"time": 1322, "pitch": 56, "duration": 4, "velocity": 70}, {"time": 1325, "pitch": 59, "duration": 3, "velocity": 70}, {"time": 1328, "pitch": 64, "duration": 3, "velocity": 80}, {"time": 1331, "pitch": 40, "duration": 22, "velocity": 80}, {"time": 1331, "pitch": 63, "duration": 6, "velocity": 87}, {"time": 1334, "pitch": 47, "duration": 7, "velocity": 75}, {"time": 1337, "pitch": 56, "duration": 1, "velocity": 67}, {"time": 1340, "pitch": 56, "duration": 3, "velocity": 81}, {"time": 1340, "pitch": 59, "duration": 4, "velocity": 86}, {"time": 1343, "pitch": 47, "duration": 9, "velocity": 77}, {"time": 1346, "pitch": 56, "duration": 2, "velocity": 81}, {"time": 1355, "pitch": 45, "duration": 10, "velocity": 85}, {"time": 1355, "pitch": 52, "duration": 2, "velocity": 74}, {"time": 1355, "pitch": 61, "duration": 7, "velocity": 81}, {"time": 1364, "pitch": 52, "duration": 3, "velocity": 75}, {"time": 1364, "pitch": 57, "duration": 4, "velocity": 82}, {"time": 1370, "pitch": 57, "duration": 1, "velocity": 75}, {"time": 1370, "pitch": 61, "duration": 2, "velocity": 81}, {"time": 1379, "pitch": 45, "duration": 16, "velocity": 80}, {"time": 1379, "pitch": 61, "duration": 3, "velocity": 76}, {"time": 1379, "pitch": 64, "duration": 5, "velocity": 75}, {"time": 1382, "pitch": 52, "duration": 7, "velocity": 60}, {"time": 1385, "pitch": 61, "duration": 1, "velocity": 60}, {"time": 1388, "pitch": 61, "duration": 3, "velocity": 80}, {"time": 1388, "pitch": 64, "duration": 3, "velocity": 81}, {"time": 1388, "pitch": 69, "duration": 4, "velocity": 81}, {"time": 1391, "pitch": 52, "duration": 5, "velocity": 74}, {"time": 1394, "pitch": 61, "duration": 1, "velocity": 80}, {"time": 1394, "pitch": 64, "duration": 1, "velocity": 76}, {"time": 1403, "pitch": 44, "duration": 22, "velocity": 81}, {"time": 1403, "pitch": 54, "duration": 6, "velocity": 75}, {"time": 1403, "pitch": 59, "duration": 6, "velocity": 77}, {"time": 1409, "pitch": 51, "duration": 17, "velocity": 55}, {"time": 1412, "pitch": 54, "duration": 1, "velocity": 80}, {"time": 1412, "pitch": 63, "duration": 1, "velocity": 81}, {"time": 1424, "pitch": 54, "duration": 6, "velocity": 82}, {"time": 1427, "pitch": 44, "duration": 21, "velocity": 81}, {"time": 1427, "pitch": 59, "duration": 4, "velocity": 81}, {"time": 1430, "pitch": 51, "duration": 7, "velocity": 74}, {"time": 1433, "pitch": 54, "duration": 1, "velocity": 68}, {"time": 1436, "pitch": 54, "duration": 2, "velocity": 82}, {"time": 1436, "pitch": 63, "duration": 2, "velocity": 82}, {"time": 1439, "pitch": 51, "duration": 8, "velocity": 73}, {"time": 1442, "pitch": 54, "duration": 2, "velocity": 79}, {"time": 1442, "pitch": 59, "duration": 2, "velocity": 76}, {"time": 1448, "pitch": 58, "duration": 1, "velocity": 73}, {"time": 1451, "pitch": 42, "duration": 22, "velocity": 80}, {"time": 1451, "pitch": 54, "duration": 8, "velocity": 66}, {"time": 1451, "pitch": 57, "duration": 6, "velocity": 69}, {"time": 1466, "pitch": 57, "duration": 5, "velocity": 74}, {"time": 1466, "pitch": 61, "duration": 7, "velocity": 80}, {"time": 1469, "pitch": 49, "duration": 4, "velocity": 64}, {"time": 1472, "pitch": 54, "duration": 1, "velocity": 62}, {"time": 1475, "pitch": 47, "duration": 14, "velocity": 80}, {"time": 1475, "pitch": 54, "duration": 5, "velocity": 76}, {"time": 1475, "pitch": 59, "duration": 6, "velocity": 75}, {"time": 1487, "pitch": 54, "duration": 4, "velocity": 79}, {"time": 1487, "pitch": 57, "duration": 6, "velocity": 85}, {"time": 1490, "pitch": 47, "duration": 1, "velocity": 71}, {"time": 1493, "pitch": 54, "duration": 3, "velocity": 81}, {"time": 1499, "pitch": 40, "duration": 22, "velocity": 79}, {"time": 1499, "pitch": 52, "duration": 10, "velocity": 73}, {"time": 1499, "pitch": 56, "duration": 5, "velocity": 71}, {"time": 1505, "pitch": 47, "duration": 16, "velocity": 51}, {"time": 1508, "pitch": 64, "duration": 4, "velocity": 72}, {"time": 1514, "pitch": 59, "duration": 4, "velocity": 75}, {"time": 1523, "pitch": 40, "duration": 23, "velocity": 79}, {"time": 1523, "pitch": 52, "duration": 22, "velocity": 68}, {"time": 1523, "pitch": 56, "duration": 22, "velocity": 68}, {"time": 1523, "pitch": 59, "duration": 23, "velocity": 74}, {"time": 1547, "pitch": 45, "duration": 3, "velocity": 91}, {"time": 1547, "pitch": 57, "duration": 10, "velocity": 74}, {"time": 1547, "pitch": 61, "duration": 9, "velocity": 80}, {"time": 1553, "pitch": 45, "duration": 2, "velocity": 76}, {"time": 1559, "pitch": 45, "duration": 3, "velocity": 86}, {"time": 1559, "pitch": 57, "duration": 6, "velocity": 73}, {"time": 1559, "pitch": 61, "duration": 6, "velocity": 81}, {"time": 1559, "pitch": 64, "duration": 7, "velocity": 81}, {"time": 1565, "pitch": 45, "duration": 3, "velocity": 81}, {"time": 1568, "pitch": 57, "duration": 1, "velocity": 82}, {"time": 1571, "pitch": 46, "duration": 16, "velocity": 85}, {"time": 1571, "pitch": 58, "duration": 6, "velocity": 76}, {"time": 1571, "pitch": 61, "duration": 7, "velocity": 76}, {"time": 1577, "pitch": 52, "duration": 7, "velocity": 81}, {"time": 1583, "pitch": 58, "duration": 3, "velocity": 82}, {"time": 1583, "pitch": 61, "duration": 3, "velocity": 86}, {"time": 1583, "pitch": 64, "duration": 4, "velocity": 82}, {"time": 1586, "pitch": 52, "duration": 1, "velocity": 82}, {"time": 1589, "pitch": 58, "duration": 1, "velocity": 82}, {"time": 1595, "pitch": 35, "duration": 1, "velocity": 81}, {"time": 1595, "pitch": 54, "duration": 6, "velocity": 78}, {"time": 1595, "pitch": 59, "duration": 8, "velocity": 80}, {"time": 1607, "pitch": 54, "duration": 8, "velocity": 58}, {"time": 1610, "pitch": 61, "duration": 3, "velocity": 72}, {"time": 1613, "pitch": 63, "duration": 2, "velocity": 82}, {"time": 1619, "pitch": 47, "duration": 18, "velocity": 82}, {"time": 1619, "pitch": 59, "duration": 4, "velocity": 69}, {"time": 1619, "pitch": 63, "duration": 3, "velocity": 76}, {"time": 1619, "pitch": 66, "duration": 4, "velocity": 72}, {"time": 1643, "pitch": 45, "duration": 21, "velocity": 81}, {"time": 1643, "pitch": 64, "duration": 9, "velocity": 80}, {"time": 1649, "pitch": 52, "duration": 15, "velocity": 56}, {"time": 1652, "pitch": 57, "duration": 4, "velocity": 68}, {"time": 1658, "pitch": 57, "duration": 8, "velocity": 67}, {"time": 1658, "pitch": 61, "duration": 7, "velocity": 76}, {"time": 1667, "pitch": 47, "duration": 15, "velocity": 84}, {"time": 1670, "pitch": 54, "duration": 12, "velocity": 72}, {"time": 1673, "pitch": 59, "duration": 3, "velocity": 73}, {"time": 1676, "pitch": 61, "duration": 4, "velocity": 83}, {"time": 1682, "pitch": 59, "duration": 1, "velocity": 71}, {"time": 1682, "pitch": 63, "duration": 1, "velocity": 77}, {"time": 1691, "pitch": 44, "duration": 23, "velocity": 77}, {"time": 1691, "pitch": 54, "duration": 9, "velocity": 73}, {"time": 1691, "pitch": 59, "duration": 9, "velocity": 74}, {"time": 1703, "pitch": 54, "duration": 4, "velocity": 80}, {"time": 1703, "pitch": 63, "duration": 6, "velocity": 80}, {"time": 1706, "pitch": 51, "duration": 7, "velocity": 67}, {"time": 1709, "pitch": 59, "duration": 3, "velocity": 73}, {"time": 1712, "pitch": 56, "duration": 1, "velocity": 61}, {"time": 1715, "pitch": 49, "duration": 18, "velocity": 75}, {"time": 1715, "pitch": 61, "duration": 7, "velocity": 74}, {"time": 1724, "pitch": 64, "duration": 9, "velocity": 80}, {"time": 1730, "pitch": 56, "duration": 2, "velocity": 58}, {"time": 1733, "pitch": 63, "duration": 1, "velocity": 81}, {"time": 1739, "pitch": 42, "duration": 21, "velocity": 78}, {"time": 1739, "pitch": 54, "duration": 8, "velocity": 72}, {"time": 1739, "pitch": 61, "duration": 12, "velocity": 73}, {"time": 1748, "pitch": 49, "duration": 9, "velocity": 62}, {"time": 1751, "pitch": 56, "duration": 3, "velocity": 72}, {"time": 1754, "pitch": 57, "duration": 3, "velocity": 86}, {"time": 1757, "pitch": 61, "duration": 2, "velocity": 80}, {"time": 1760, "pitch": 54, "duration": 2, "velocity": 62}, {"time": 1763, "pitch": 47, "duration": 20, "velocity": 81}, {"time": 1763, "pitch": 54, "duration": 3, "velocity": 72}, {"time": 1763, "pitch": 59, "duration": 6, "velocity": 61}, {"time": 1772, "pitch": 57, "duration": 2, "velocity": 84}, {"time": 1778, "pitch": 56, "duration": 2, "velocity": 74}, {"time": 1784, "pitch": 54, "duration": 2, "velocity": 59}, {"time": 1787, "pitch": 40, "duration": 22, "velocity": 74}, {"time": 1787, "pitch": 52, "duration": 5, "velocity": 71}, {"time": 1787, "pitch": 56, "duration": 6, "velocity": 72}, {"time": 1793, "pitch": 47, "duration": 15, "velocity": 55}, {"time": 1796, "pitch": 59, "duration": 6, "velocity": 75}, {"time": 1802, "pitch": 64, "duration": 6, "velocity": 84}, {"time": 1811, "pitch": 40, "duration": 19, "velocity": 80}, {"time": 1811, "pitch": 52, "duration": 8, "velocity": 70}, {"time": 1811, "pitch": 56, "duration": 10, "velocity": 68}, {"time": 1820, "pitch": 47, "duration": 7, "velocity": 65}, {"time": 1823, "pitch": 52, "duration": 1, "velocity": 66}, {"time": 1826, "pitch": 52, "duration": 3, "velocity": 77}, {"time": 1826, "pitch": 56, "duration": 4, "velocity": 75}, {"time": 1826, "pitch": 62, "duration": 4, "velocity": 78}, {"time": 1829, "pitch": 47, "duration": 1, "velocity": 74}, {"time": 1835, "pitch": 45, "duration": 18, "velocity": 79}, {"time": 1835, "pitch": 57, "duration": 6, "velocity": 70}, {"time": 1835, "pitch": 61, "duration": 5, "velocity": 75}, {"time": 1841, "pitch": 52, "duration": 8, "velocity": 62}, {"time": 1847, "pitch": 57, "duration": 5, "velocity": 80}, {"time": 1847, "pitch": 64, "duration": 7, "velocity": 79}, {"time": 1859, "pitch": 45, "duration": 15, "velocity": 75}, {"time": 1859, "pitch": 57, "duration": 5, "velocity": 73}, {"time": 1859, "pitch": 64, "duration": 11, "velocity": 79}, {"time": 1874, "pitch": 57, "duration": 1, "velocity": 76}, {"time": 1874, "pitch": 64, "duration": 3, "velocity": 80}, {"time": 1877, "pitch": 47, "duration": 3, "velocity": 83}, {"time": 1880, "pitch": 59, "duration": 4, "velocity": 74}, {"time": 1883, "pitch": 44, "duration": 23, "velocity": 75}, {"time": 1889, "pitch": 51, "duration": 4, "velocity": 65}, {"time": 1892, "pitch": 54, "duration": 4, "velocity": 78}, {"time": 1892, "pitch": 59, "duration": 4, "velocity": 76}, {"time": 1895, "pitch": 51, "duration": 5, "velocity": 65}, {"time": 1898, "pitch": 54, "duration": 2, "velocity": 70}, {"time": 1898, "pitch": 59, "duration": 3, "velocity": 78}, {"time": 1898, "pitch": 63, "duration": 4, "velocity": 81}, {"time": 1907, "pitch": 49, "duration": 13, "velocity": 83}, {"time": 1907, "pitch": 56, "duration": 8, "velocity": 67}, {"time": 1907, "pitch": 61, "duration": 8, "velocity": 73}, {"time": 1919, "pitch": 56, "duration": 3, "velocity": 80}, {"time": 1919, "pitch": 64, "duration": 4, "velocity": 80}, {"time": 1922, "pitch": 49, "duration": 2, "velocity": 74}, {"time": 1925, "pitch": 63, "duration": 1, "velocity": 80}, {"time": 1931, "pitch": 42, "duration": 17, "velocity": 78}, {"time": 1931, "pitch": 54, "duration": 7, "velocity": 72}, {"time": 1931, "pitch": 61, "duration": 8, "velocity": 73}, {"time": 1937, "pitch": 49, "duration": 9, "velocity": 53}, {"time": 1943, "pitch": 57, "duration": 8, "velocity": 69}, {"time": 1943, "pitch": 61, "duration": 10, "velocity": 75}, {"time": 1955, "pitch": 47, "duration": 20, "velocity": 75}, {"time": 1955, "pitch": 54, "duration": 3, "velocity": 75}, {"time": 1955, "pitch": 59, "duration": 7, "velocity": 79}, {"time": 1961, "pitch": 54, "duration": 1, "velocity": 52}, {"time": 1964, "pitch": 54, "duration": 2, "velocity": 75}, {"time": 1964, "pitch": 63, "duration": 4, "velocity": 81}, {"time": 1970, "pitch": 59, "duration": 3, "velocity": 78}, {"time": 1973, "pitch": 54, "duration": 2, "velocity": 71}, {"time": 1979, "pitch": 40, "duration": 21, "velocity": 82}, {"time": 1979, "pitch": 52, "duration": 8, "velocity": 68}, {"time": 1979, "pitch": 56, "duration": 6, "velocity": 69}, {"time": 1985, "pitch": 47, "duration": 13, "velocity": 66}, {"time": 1991, "pitch": 54, "duration": 3, "velocity": 74}, {"time": 1994, "pitch": 56, "duration": 2, "velocity": 82}, {"time": 1997, "pitch": 52, "duration": 4, "velocity": 82}, {"time": 2003, "pitch": 40, "duration": 21, "velocity": 82}, {"time": 2003, "pitch": 52, "duration": 6, "velocity": 76}, {"time": 2003, "pitch": 64, "duration": 6, "velocity": 80}, {"time": 2009, "pitch": 47, "duration": 14, "velocity": 76}, {"time": 2012, "pitch": 52, "duration": 1, "velocity": 75}, {"time": 2015, "pitch": 54, "duration": 2, "velocity": 80}, {"time": 2018, "pitch": 56, "duration": 2, "velocity": 76}, {"time": 2027, "pitch": 45, "duration": 16, "velocity": 82}, {"time": 2027, "pitch": 57, "duration": 6, "velocity": 73}, {"time": 2027, "pitch": 61, "duration": 7, "velocity": 76}, {"time": 2033, "pitch": 52, "duration": 10, "velocity": 68}, {"time": 2036, "pitch": 61, "duration": 1, "velocity": 79}, {"time": 2042, "pitch": 61, "duration": 2, "velocity": 79}, {"time": 2042, "pitch": 64, "duration": 2, "velocity": 84}, {"time": 2048, "pitch": 61, "duration": 1, "velocity": 40}, {"time": 2051, "pitch": 45, "duration": 16, "velocity": 75}, {"time": 2051, "pitch": 61, "duration": 5, "velocity": 76}, {"time": 2051, "pitch": 64, "duration": 5, "velocity": 74}, {"time": 2051, "pitch": 69, "duration": 5, "velocity": 76}, {"time": 2060, "pitch": 61, "duration": 1, "velocity": 69}, {"time": 2063, "pitch": 52, "duration": 5, "velocity": 80}, {"time": 2066, "pitch": 61, "duration": 3, "velocity": 86}, {"time": 2069, "pitch": 64, "duration": 1, "velocity": 81}, {"time": 2075, "pitch": 44, "duration": 21, "velocity": 81}, {"time": 2075, "pitch": 54, "duration": 6, "velocity": 77}, {"time": 2075, "pitch": 59, "duration": 6, "velocity": 79}, {"time": 2084, "pitch": 54, "duration": 1, "velocity": 82}, {"time": 2084, "pitch": 63, "duration": 1, "velocity": 81}, {"time": 2090, "pitch": 59, "duration": 4, "velocity": 75}, {"time": 2096, "pitch": 54, "duration": 1, "velocity": 61}, {"time": 2099, "pitch": 44, "duration": 19, "velocity": 77}, {"time": 2099, "pitch": 54, "duration": 10, "velocity": 73}, {"time": 2099, "pitch": 59, "duration": 11, "velocity": 75}, {"time": 2111, "pitch": 51, "duration": 5, "velocity": 76}, {"time": 2114, "pitch": 54, "duration": 1, "velocity": 81}, {"time": 2114, "pitch": 63, "duration": 4, "velocity": 83}, {"time": 2117, "pitch": 54, "duration": 3, "velocity": 79}, {"time": 2123, "pitch": 42, "duration": 22, "velocity": 81}, {"time": 2123, "pitch": 54, "duration": 6, "velocity": 74}, {"time": 2123, "pitch": 57, "duration": 6, "velocity": 81}, {"time": 2129, "pitch": 49, "duration": 16, "velocity": 58}, {"time": 2132, "pitch": 54, "duration": 3, "velocity": 76}, {"time": 2132, "pitch": 61, "duration": 3, "velocity": 79}, {"time": 2138, "pitch": 54, "duration": 1, "velocity": 75}, {"time": 2138, "pitch": 66, "duration": 3, "velocity": 76}, {"time": 2141, "pitch": 54, "duration": 2, "velocity": 68}, {"time": 2144, "pitch": 57, "duration": 1, "velocity": 63}, {"time": 2147, "pitch": 47, "duration": 17, "velocity": 82}, {"time": 2147, "pitch": 54, "duration": 3, "velocity": 75}, {"time": 2147, "pitch": 59, "duration": 6, "velocity": 75}, {"time": 2153, "pitch": 54, "duration": 1, "velocity": 57}, {"time": 2156, "pitch": 54, "duration": 4, "velocity": 80}, {"time": 2156, "pitch": 63, "duration": 4, "velocity": 82}, {"time": 2162, "pitch": 54, "duration": 1, "velocity": 67}, {"time": 2162, "pitch": 59, "duration": 2, "velocity": 76}, {"time": 2171, "pitch": 40, "duration": 21, "velocity": 81}, {"time": 2171, "pitch": 56, "duration": 7, "velocity": 71}, {"time": 2171, "pitch": 59, "duration": 10, "velocity": 78}, {"time": 2177, "pitch": 47, "duration": 15, "velocity": 55}, {"time": 2180, "pitch": 64, "duration": 9, "velocity": 81}, {"time": 2186, "pitch": 56, "duration": 4, "velocity": 70}, {"time": 2189, "pitch": 59, "duration": 3, "velocity": 70}, {"time": 2192, "pitch": 64, "duration": 3, "velocity": 80}, {"time": 2195, "pitch": 40, "duration": 22, "velocity": 80}, {"time": 2195, "pitch": 63, "duration": 6, "velocity": 87}, {"time": 2198, "pitch": 47, "duration": 7, "velocity": 75}, {"time": 2201, "pitch": 56, "duration": 1, "velocity": 67}, {"time": 2204, "pitch": 56, "duration": 3, "velocity": 81}, {"time": 2204, "pitch": 59, "duration": 4, "velocity": 86}, {"time": 2207, "pitch": 47, "duration": 9, "velocity": 77}, {"time": 2210, "pitch": 56, "duration": 2, "velocity": 81}, {"time": 2219, "pitch": 45, "duration": 10, "velocity": 85}, {"time": 2219, "pitch": 52, "duration": 2, "velocity": 74}, {"time": 2219, "pitch": 61, "duration": 7, "velocity": 81}, {"time": 2228, "pitch": 52, "duration": 3, "velocity": 75}, {"time": 2228, "pitch": 57, "duration": 4, "velocity": 82}, {"time": 2234, "pitch": 57, "duration": 1, "velocity": 75}, {"time": 2234, "pitch": 61, "duration": 2, "velocity": 81}, {"time": 2243, "pitch": 45, "duration": 16, "velocity": 80}, {"time": 2243, "pitch": 61, "duration": 3, "velocity": 76}, {"time": 2243, "pitch": 64, "duration": 5, "velocity": 75}, {"time": 2246, "pitch": 52, "duration": 7, "velocity": 60}, {"time": 2249, "pitch": 61, "duration": 1, "velocity": 60}, {"time": 2252, "pitch": 61, "duration": 3, "velocity": 80}, {"time": 2252, "pitch": 64, "duration": 3, "velocity": 81}, {"time": 2252, "pitch": 69, "duration": 4, "velocity": 81}, {"time": 2255, "pitch": 52, "duration": 5, "velocity": 74}, {"time": 2258, "pitch": 61, "duration": 1, "velocity": 80}, {"time": 2258, "pitch": 64, "duration": 1, "velocity": 76}, {"time": 2267, "pitch": 44, "duration": 22, "velocity": 81}, {"time": 2267, "pitch": 54, "duration": 6, "velocity": 75}, {"time": 2267, "pitch": 59, "duration": 6, "velocity": 77}, {"time": 2273, "pitch": 51, "duration": 17, "velocity": 55}, {"time": 2276, "pitch": 54, "duration": 1, "velocity": 80}, {"time": 2276, "pitch": 63, "duration": 1, "velocity": 81}, {"time": 2288, "pitch": 54, "duration": 6, "velocity": 82}, {"time": 2291, "pitch": 44, "duration": 21, "velocity": 81}, {"time": 2291, "pitch": 59, "duration": 4, "velocity": 81}, {"time": 2294, "pitch": 51, "duration": 7, "velocity": 74}, {"time": 2297, "pitch": 54, "duration": 1, "velocity": 68}, {"time": 2300, "pitch": 54, "duration": 2, "velocity": 82}, {"time": 2300, "pitch": 63, "duration": 2, "velocity": 82}, {"time": 2303, "pitch": 51, "duration": 8, "velocity": 73}, {"time": 2306, "pitch": 54, "duration": 2, "velocity": 79}, {"time": 2306, "pitch": 59, "duration": 2, "velocity": 76}, {"time": 2312, "pitch": 58, "duration": 1, "velocity": 73}, {"time": 2315, "pitch": 42, "duration": 22, "velocity": 80}, {"time": 2315, "pitch": 54, "duration": 8, "velocity": 66}, {"time": 2315, "pitch": 57, "duration": 6, "velocity": 69}, {"time": 2330, "pitch": 57, "duration": 5, "velocity": 74}, {"time": 2330, "pitch": 61, "duration": 7, "velocity": 80}, {"time": 2333, "pitch": 49, "duration": 4, "velocity": 64}, {"time": 2336, "pitch": 54, "duration": 1, "velocity": 62}, {"time": 2339, "pitch": 47, "duration": 14, "velocity": 80}, {"time": 2339, "pitch": 54, "duration": 5, "velocity": 76}, {"time": 2339, "pitch": 59, "duration": 6, "velocity": 75}, {"time": 2351, "pitch": 54, "duration": 4, "velocity": 79}, {"time": 2351, "pitch": 57, "duration": 6, "velocity": 85}, {"time": 2354, "pitch": 47, "duration": 1, "velocity": 71}, {"time": 2357, "pitch": 54, "duration": 3, "velocity": 81}, {"time": 2363, "pitch": 40, "duration": 22, "velocity": 79}, {"time": 2363, "pitch": 52, "duration": 10, "velocity": 73}, {"time": 2363, "pitch": 56, "duration": 5, "velocity": 71}, {"time": 2369, "pitch": 47, "duration": 16, "velocity": 51}, {"time": 2372, "pitch": 64, "duration": 4, "velocity": 72}, {"time": 2378, "pitch": 59, "duration": 4, "velocity": 75}, {"time": 2387, "pitch": 40, "duration": 23, "velocity": 79}, {"time": 2387, "pitch": 52, "duration": 22, "velocity": 68}, {"time": 2387, "pitch": 56, "duration": 22, "velocity": 68}, {"time": 2387, "pitch": 59, "duration": 23, "velocity": 74}, {"time": 2411, "pitch": 45, "duration": 9, "velocity": 82}, {"time": 2411, "pitch": 52, "duration": 4, "velocity": 77}, {"time": 2411, "pitch": 57, "duration": 4, "velocity": 73}, {"time": 2417, "pitch": 57, "duration": 4, "velocity": 80}, {"time": 2423, "pitch": 45, "duration": 1, "velocity": 87}, {"time": 2423, "pitch": 52, "duration": 2, "velocity": 80}, {"time": 2423, "pitch": 57, "duration": 2, "velocity": 86}, {"time": 2423, "pitch": 61, "duration": 2, "velocity": 81}, {"time": 2429, "pitch": 52, "duration": 2, "velocity": 66}, {"time": 2435, "pitch": 45, "duration": 10, "velocity": 82}, {"time": 2435, "pitch": 57, "duration": 1, "velocity": 72}, {"time": 2435, "pitch": 61, "duration": 2, "velocity": 74}, {"time": 2441, "pitch": 52, "duration": 4, "velocity": 66}, {"time": 2444, "pitch": 57, "duration": 1, "velocity": 62}, {"time": 2447, "pitch": 45, "duration": 1, "velocity": 77}, {"time": 2447, "pitch": 52, "duration": 4, "velocity": 76}, {"time": 2447, "pitch": 57, "duration": 4, "velocity": 81}, {"time": 2447, "pitch": 61, "duration": 4, "velocity": 81}, {"time": 2447, "pitch": 64, "duration": 4, "velocity": 80}, {"time": 2453, "pitch": 45, "duration": 1, "velocity": 94}, {"time": 2459, "pitch": 44, "duration": 9, "velocity": 82}, {"time": 2459, "pitch": 54, "duration": 3, "velocity": 79}, {"time": 2459, "pitch": 59, "duration": 3, "velocity": 76}, {"time": 2465, "pitch": 54, "duration": 2, "velocity": 68}, {"time": 2465, "pitch": 59, "duration": 2, "velocity": 73}, {"time": 2471, "pitch": 44, "duration": 4, "velocity": 81}, {"time": 2471, "pitch": 51, "duration": 4, "velocity": 82}, {"time": 2471, "pitch": 54, "duration": 6, "velocity": 79}, {"time": 2471, "pitch": 59, "duration": 6, "velocity": 80}, {"time": 2471, "pitch": 63, "duration": 6, "velocity": 82}, {"time": 2477, "pitch": 44, "duration": 4, "velocity": 74}, {"time": 2480, "pitch": 54, "duration": 4, "velocity": 77}, {"time": 2480, "pitch": 59, "duration": 4, "velocity": 80}, {"time": 2483, "pitch": 44, "duration": 16, "velocity": 81}, {"time": 2486, "pitch": 54, "duration": 3, "velocity": 82}, {"time": 2486, "pitch": 59, "duration": 3, "velocity": 84}, {"time": 2486, "pitch": 63, "duration": 2, "velocity": 91}, {"time": 2489, "pitch": 51, "duration": 7, "velocity": 75}, {"time": 2492, "pitch": 54, "duration": 1, "velocity": 70}, {"time": 2495, "pitch": 54, "duration": 2, "velocity": 87}, {"time": 2495, "pitch": 59, "duration": 3, "velocity": 87}, {"time": 2495, "pitch": 64, "duration": 1, "velocity": 63}, {"time": 2498, "pitch": 51, "duration": 1, "velocity": 80}, {"time": 2501, "pitch": 54, "duration": 3, "velocity": 83}, {"time": 2507, "pitch": 42, "duration": 16, "velocity": 82}, {"time": 2507, "pitch": 54, "duration": 5, "velocity": 77}, {"time": 2507, "pitch": 57, "duration": 5, "velocity": 74}, {"time": 2507, "pitch": 61, "duration": 7, "velocity": 77}, {"time": 2513, "pitch": 49, "duration": 7, "velocity": 68}, {"time": 2519, "pitch": 54, "duration": 3, "velocity": 81}, {"time": 2519, "pitch": 57, "duration": 3, "velocity": 86}, {"time": 2519, "pitch": 61, "duration": 3, "velocity": 84}, {"time": 2522, "pitch": 49, "duration": 1, "velocity": 80}, {"time": 2525, "pitch": 54, "duration": 4, "velocity": 81}, {"time": 2528, "pitch": 57, "duration": 1, "velocity": 76}, {"time": 2531, "pitch": 35, "duration": 1, "velocity": 80}, {"time": 2531, "pitch": 54, "duration": 4, "velocity": 76}, {"time": 2531, "pitch": 59, "duration": 5, "velocity": 82}, {"time": 2537, "pitch": 47, "duration": 10, "velocity": 78}, {"time": 2540, "pitch": 59, "duration": 3, "velocity": 81}, {"time": 2540, "pitch": 63, "duration": 3, "velocity": 83}, {"time": 2543, "pitch": 54, "duration": 3, "velocity": 82}, {"time": 2546, "pitch": 59, "duration": 2, "velocity": 82}, {"time": 2546, "pitch": 63, "duration": 2, "velocity": 85}, {"time": 2546, "pitch": 66, "duration": 3, "velocity": 81}, {"time": 2549, "pitch": 47, "duration": 1, "velocity": 59}, {"time": 2552, "pitch": 59, "duration": 1, "velocity": 84}, {"time": 2555, "pitch": 40, "duration": 16, "velocity": 81}, {"time": 2555, "pitch": 59, "duration": 1, "velocity": 81}, {"time": 2555, "pitch": 64, "duration": 1, "velocity": 80}, {"time": 2558, "pitch": 47, "duration": 6, "velocity": 69}, {"time": 2561, "pitch": 52, "duration": 1, "velocity": 50}, {"time": 2564, "pitch": 54, "duration": 3, "velocity": 96}, {"time": 2567, "pitch": 47, "duration": 3, "velocity": 80}, {"time": 2570, "pitch": 52, "duration": 2, "velocity": 81}, {"time": 2570, "pitch": 56, "duration": 2, "velocity": 82}, {"time": 2576, "pitch": 52, "duration": 1, "velocity": 66}, {"time": 2579, "pitch": 40, "duration": 10, "velocity": 82}, {"time": 2579, "pitch": 52, "duration": 3, "velocity": 79}, {"time": 2579, "pitch": 56, "duration": 2, "velocity": 80}, {"time": 2579, "pitch": 59, "duration": 2, "velocity": 81}, {"time": 2582, "pitch": 47, "duration": 6, "velocity": 84}, {"time": 2585, "pitch": 52, "duration": 1, "velocity": 80}, {"time": 2588, "pitch": 52, "duration": 2, "velocity": 81}, {"time": 2588, "pitch": 56, "duration": 2, "velocity": 82}, {"time": 2588, "pitch": 64, "duration": 2, "velocity": 82}, {"time": 2591, "pitch": 40, "duration": 3, "velocity": 80}, {"time": 2591, "pitch": 47, "duration": 3, "velocity": 85}, {"time": 2594, "pitch": 52, "duration": 1, "velocity": 78}, {"time": 2594, "pitch": 56, "duration": 1, "velocity": 80}, {"time": 2594, "pitch": 62, "duration": 1, "velocity": 80}, {"time": 2597, "pitch": 40, "duration": 3, "velocity": 75}, {"time": 2597, "pitch": 52, "duration": 1, "velocity": 76}, {"time": 2600, "pitch": 56, "duration": 2, "velocity": 73}, {"time": 2600, "pitch": 61, "duration": 3, "velocity": 80}, {"time": 2603, "pitch": 45, "duration": 2, "velocity": 79}, {"time": 2603, "pitch": 52, "duration": 2, "velocity": 70}, {"time": 2603, "pitch": 57, "duration": 2, "velocity": 69}, {"time": 2603, "pitch": 61, "duration": 1, "velocity": 80}, {"time": 2606, "pitch": 45, "duration": 3, "velocity": 80}, {"time": 2606, "pitch": 52, "duration": 3, "velocity": 75}, {"time": 2606, "pitch": 57, "duration": 3, "velocity": 77}, {"time": 2606, "pitch": 61, "duration": 3, "velocity": 81}, {"time": 2627, "pitch": 45, "duration": 2, "velocity": 80}, {"time": 2627, "pitch": 57, "duration": 2, "velocity": 67}, {"time": 2627, "pitch": 61, "duration": 2, "velocity": 76}, {"time": 2627, "pitch": 64, "duration": 2, "velocity": 72}, {"time": 2630, "pitch": 45, "duration": 1, "velocity": 81}, {"time": 2630, "pitch": 57, "duration": 2, "velocity": 80}, {"time": 2630, "pitch": 61, "duration": 1, "velocity": 82}, {"time": 2630, "pitch": 64, "duration": 2, "velocity": 82}, {"time": 2639, "pitch": 52, "duration": 3, "velocity": 76}, {"time": 2642, "pitch": 57, "duration": 2, "velocity": 74}, {"time": 2642, "pitch": 61, "duration": 3, "velocity": 80}, {"time": 2642, "pitch": 64, "duration": 4, "velocity": 82}, {"time": 2645, "pitch": 45, "duration": 1, "velocity": 68}, {"time": 2651, "pitch": 44, "duration": 2, "velocity": 82}, {"time": 2651, "pitch": 54, "duration": 2, "velocity": 75}, {"time": 2651, "pitch": 59, "duration": 2, "velocity": 80}, {"time": 2654, "pitch": 44, "duration": 1, "velocity": 82}, {"time": 2654, "pitch": 54, "duration": 2, "velocity": 76}, {"time": 2654, "pitch": 59, "duration": 2, "velocity": 81}, {"time": 2663, "pitch": 59, "duration": 3, "velocity": 82}, {"time": 2663, "pitch": 63, "duration": 3, "velocity": 85}, {"time": 2666, "pitch": 51, "duration": 1, "velocity": 79}, {"time": 2669, "pitch": 54, "duration": 2, "velocity": 80}, {"time": 2675, "pitch": 44, "duration": 2, "velocity": 82}, {"time": 2675, "pitch": 54, "duration": 1, "velocity": 81}, {"time": 2675, "pitch": 59, "duration": 2, "velocity": 80}, {"time": 2678, "pitch": 44, "duration": 1, "velocity": 81}, {"time": 2678, "pitch": 54, "duration": 1, "velocity": 81}, {"time": 2678, "pitch": 59, "duration": 2, "velocity": 81}, {"time": 2684, "pitch": 56, "duration": 3, "velocity": 81}, {"time": 2684, "pitch": 59, "duration": 3, "velocity": 86}, {"time": 2684, "pitch": 63, "duration": 3, "velocity": 89}, {"time": 2687, "pitch": 51, "duration": 6, "velocity": 83}, {"time": 2690, "pitch": 56, "duration": 2, "velocity": 83}, {"time": 2690, "pitch": 59, "duration": 6, "velocity": 96}, {"time": 2693, "pitch": 47, "duration": 6, "velocity": 81}, {"time": 2696, "pitch": 56, "duration": 2, "velocity": 82}, {"time": 2699, "pitch": 42, "duration": 22, "velocity": 81}, {"time": 2699, "pitch": 54, "duration": 6, "velocity": 74}, {"time": 2699, "pitch": 57, "duration": 6, "velocity": 81}, {"time": 2705, "pitch": 49, "duration": 16, "velocity": 58}, {"time": 2708, "pitch": 54, "duration": 3, "velocity": 76}, {"time": 2708, "pitch": 61, "duration": 3, "velocity": 79}, {"time": 2714, "pitch": 54, "duration": 1, "velocity": 75}, {"time": 2714, "pitch": 66, "duration": 3, "velocity": 76}, {"time": 2717, "pitch": 54, "duration": 2, "velocity": 68}, {"time": 2720, "pitch": 57, "duration": 1, "velocity": 63}, {"time": 2723, "pitch": 47, "duration": 17, "velocity": 82}, {"time": 2723, "pitch": 54, "duration": 3, "velocity": 75}, {"time": 2723, "pitch": 59, "duration": 6, "velocity": 75}, {"time": 2729, "pitch": 54, "duration": 1, "velocity": 57}, {"time": 2732, "pitch": 54, "duration": 4, "velocity": 80}, {"time": 2732, "pitch": 63, "duration": 4, "velocity": 82}, {"time": 2738, "pitch": 54, "duration": 1, "velocity": 67}, {"time": 2738, "pitch": 59, "duration": 2, "velocity": 76}, {"time": 2747, "pitch": 40, "duration": 21, "velocity": 81}, {"time": 2747, "pitch": 56, "duration": 7, "velocity": 71}, {"time": 2747, "pitch": 59, "duration": 10, "velocity": 78}, {"time": 2753, "pitch": 47, "duration": 15, "velocity": 55}, {"time": 2756, "pitch": 64, "duration": 9, "velocity": 81}, {"time": 2762, "pitch": 56, "duration": 4, "velocity": 70}, {"time": 2765, "pitch": 59, "duration": 3, "velocity": 70}, {"time": 2768, "pitch": 64, "duration": 3, "velocity": 80}, {"time": 2771, "pitch": 40, "duration": 22, "velocity": 80}, {"time": 2771, "pitch": 63, "duration": 6, "velocity": 87}, {"time": 2774, "pitch": 47, "duration": 7, "velocity": 75}, {"time": 2777, "pitch": 56, "duration": 1, "velocity": 67}, {"time": 2780, "pitch": 56, "duration": 3, "velocity": 81}, {"time": 2780, "pitch": 59, "duration": 4, "velocity": 86}, {"time": 2783, "pitch": 47, "duration": 9, "velocity": 77}, {"time": 2786, "pitch": 56, "duration": 2, "velocity": 81}, {"time": 2795, "pitch": 45, "duration": 10, "velocity": 85}, {"time": 2795, "pitch": 52, "duration": 2, "velocity": 74}, {"time": 2795, "pitch": 61, "duration": 7, "velocity": 81}, {"time": 2804, "pitch": 52, "duration": 3, "velocity": 75}, {"time": 2804, "pitch": 57, "duration": 4, "velocity": 82}, {"time": 2810, "pitch": 57, "duration": 1, "velocity": 75}, {"time": 2810, "pitch": 61, "duration": 2, "velocity": 81}, {"time": 2819, "pitch": 45, "duration": 16, "velocity": 80}, {"time": 2819, "pitch": 61, "duration": 3, "velocity": 76}, {"time": 2819, "pitch": 64, "duration": 5, "velocity": 75}, {"time": 2822, "pitch": 52, "duration": 7, "velocity": 60}, {"time": 2825, "pitch": 61, "duration": 1, "velocity": 60}, {"time": 2828, "pitch": 61, "duration": 3, "velocity": 80}, {"time": 2828, "pitch": 64, "duration": 3, "velocity": 81}, {"time": 2828, "pitch": 69, "duration": 4, "velocity": 81}, {"time": 2831, "pitch": 52, "duration": 5, "velocity": 74}, {"time": 2834, "pitch": 61, "duration": 1, "velocity": 80}, {"time": 2834, "pitch": 64, "duration": 1, "velocity": 76}, {"time": 2843, "pitch": 44, "duration": 22, "velocity": 81}, {"time": 2843, "pitch": 54, "duration": 6, "velocity": 75}, {"time": 2843, "pitch": 59, "duration": 6, "velocity": 77}, {"time": 2849, "pitch": 51, "duration": 17, "velocity": 55}, {"time": 2852, "pitch": 54, "duration": 1, "velocity": 80}, {"time": 2852, "pitch": 63, "duration": 1, "velocity": 81}, {"time": 2864, "pitch": 54, "duration": 6, "velocity": 82}, {"time": 2867, "pitch": 44, "duration": 21, "velocity": 81}, {"time": 2867, "pitch": 59, "duration": 4, "velocity": 81}, {"time": 2870, "pitch": 51, "duration": 7, "velocity": 74}, {"time": 2873, "pitch": 54, "duration": 1, "velocity": 68}, {"time": 2876, "pitch": 54, "duration": 2, "velocity": 82}, {"time": 2876, "pitch": 63, "duration": 2, "velocity": 82}, {"time": 2879, "pitch": 51, "duration": 8, "velocity": 73}, {"time": 2882, "pitch": 54, "duration": 2, "velocity": 79}, {"time": 2882, "pitch": 59, "duration": 2, "velocity": 76}, {"time": 2888, "pitch": 58, "duration": 1, "velocity": 73}, {"time": 2891, "pitch": 42, "duration": 22, "velocity": 80}, {"time": 2891, "pitch": 54, "duration": 8, "velocity": 66}, {"time": 2891, "pitch": 57, "duration": 6, "velocity": 69}, {"time": 2906, "pitch": 57, "duration": 5, "velocity": 74}, {"time": 2906, "pitch": 61, "duration": 7, "velocity": 80}, {"time": 2909, "pitch": 49, "duration": 4, "velocity": 64}, {"time": 2912, "pitch": 54, "duration": 1, "velocity": 62}, {"time": 2915, "pitch": 47, "duration": 14, "velocity": 80}, {"time": 2915, "pitch": 54, "duration": 5, "velocity": 76}, {"time": 2915, "pitch": 59, "duration": 6, "velocity": 75}, {"time": 2927, "pitch": 54, "duration": 4, "velocity": 79}, {"time": 2927, "pitch": 57, "duration": 6, "velocity": 85}, {"time": 2930, "pitch": 47, "duration": 1, "velocity": 71}, {"time": 2933, "pitch": 54, "duration": 3, "velocity": 81}, {"time": 2939, "pitch": 40, "duration": 22, "velocity": 79}, {"time": 2939, "pitch": 52, "duration": 10, "velocity": 73}, {"time": 2939, "pitch": 56, "duration": 5, "velocity": 71}, {"time": 2945, "pitch": 47, "duration": 16, "velocity": 51}, {"time": 2948, "pitch": 64, "duration": 4, "velocity": 72}, {"time": 2954, "pitch": 59, "duration": 4, "velocity": 75}, {"time": 2963, "pitch": 40, "duration": 23, "velocity": 79}, {"time": 2963, "pitch": 52, "duration": 22, "velocity": 68}, {"time": 2963, "pitch": 56, "duration": 22, "velocity": 68}, {"time": 2963, "pitch": 59, "duration": 23, "velocity": 74}, {"time": 2991, "pitch": 52, "duration": 13, "velocity": 63}, {"time": 2991, "pitch": 45, "duration": 15, "velocity": 67}, {"time": 2992, "pitch": 57, "duration": 14, "velocity": 66}, {"time": 2993, "pitch": 61, "duration": 15, "velocity": 80}, {"time": 3017, "pitch": 54, "duration": 21, "velocity": 71}, {"time": 3018, "pitch": 59, "duration": 23, "velocity": 72}, {"time": 3019, "pitch": 44, "duration": 45, "velocity": 74}, {"time": 3019, "pitch": 63, "duration": 23, "velocity": 75}, {"time": 3042, "pitch": 56, "duration": 18, "velocity": 52}, {"time": 3042, "pitch": 51, "duration": 20, "velocity": 67}, {"time": 3043, "pitch": 59, "duration": 1, "velocity": 69}, {"time": 3043, "pitch": 63, "duration": 17, "velocity": 80}, {"time": 3065, "pitch": 56, "duration": 4, "velocity": 63}, {"time": 3066, "pitch": 61, "duration": 8, "velocity": 47}, {"time": 3066, "pitch": 49, "duration": 16, "velocity": 80}, {"time": 3067, "pitch": 64, "duration": 19, "velocity": 74}, {"time": 3090, "pitch": 54, "duration": 20, "velocity": 60}, {"time": 3090, "pitch": 57, "duration": 17, "velocity": 60}, {"time": 3091, "pitch": 42, "duration": 25, "velocity": 75}, {"time": 3092, "pitch": 61, "duration": 15, "velocity": 71}, {"time": 3115, "pitch": 54, "duration": 5, "velocity": 64}, {"time": 3116, "pitch": 47, "duration": 21, "velocity": 80}, {"time": 3116, "pitch": 59, "duration": 7, "velocity": 75}, {"time": 3136, "pitch": 57, "duration": 8, "velocity": 71}, {"time": 3142, "pitch": 52, "duration": 9, "velocity": 58}, {"time": 3143, "pitch": 40, "duration": 27, "velocity": 78}, {"time": 3143, "pitch": 56, "duration": 13, "velocity": 59}, {"time": 3149, "pitch": 47, "duration": 21, "velocity": 54}, {"time": 3155, "pitch": 52, "duration": 9, "velocity": 74}, {"time": 3163, "pitch": 54, "duration": 21, "velocity": 80}, {"time": 3177, "pitch": 40, "duration": 50, "velocity": 78}, {"time": 3181, "pitch": 47, "duration": 45, "velocity": 61}, {"time": 3184, "pitch": 56, "duration": 3, "velocity": 65}, {"time": 3187, "pitch": 54, "duration": 4, "velocity": 63}, {"time": 3191, "pitch": 56, "duration": 3, "velocity": 68}, {"time": 3194, "pitch": 59, "duration": 2, "velocity": 71}, {"time": 3199, "pitch": 63, "duration": 9, "velocity": 66}, {"time": 3199, "pitch": 59, "duration": 29, "velocity": 54}, {"time": 3206, "pitch": 64, "duration": 22, "velocity": 65}], "annotations": [{"time": 23, "annotation": {"number": 64, "value": 127}, "group": "control_change"}, {"time": 57, "annotation": {"number": 64, "value": 0}, "group": "control_change"}, {"time": 77, "annotation": {"number": 64, "value": 127}, "group": "control_change"}, {"time": 98, "annotation": {"number": 64, "value": 0}, "group": "control_change"}, {"time": 121, "annotation": {"number": 64, "value": 127}, "group": "control_change"}, {"time": 129, "annotation": {"number": 64, "value": 0}, "group": "control_change"}, {"time": 132, "annotation": {"number": 64, "value": 127}, "group": "control_change"}, {"time": 175, "annotation": {"number": 64, "value": 127}, "group": "control_change"}, {"time": 178, "annotation": {"number": 64, "value": 0}, "group": "control_change"}, {"time": 181, "annotation": {"number": 64, "value": 0}, "group": "control_change"}, {"time": 198, "annotation": {"number": 64, "value": 127}, "group": "control_change"}, {"time": 217, "annotation": {"number": 64, "value": 127}, "group": "control_change"}, {"time": 237, "annotation": {"number": 64, "value": 0}, "group": "control_change"}, {"time": 238, "annotation": {"number": 64, "value": 127}, "group": "control_change"}, {"time": 248, "annotation": {"number": 64, "value": 0}, "group": "control_change"}, {"time": 249, "annotation": {"number": 64, "value": 127}, "group": "control_change"}, {"time": 259, "annotation": {"number": 64, "value": 0}, "group": "control_change"}, {"time": 262, "annotation": {"number": 64, "value": 127}, "group": "control_change"}, {"time": 280, "annotation": {"number": 64, "value": 0}, "group": "control_change"}, {"time": 347, "annotation": {"number": 64, "value": 127}, "group": "control_change"}, {"time": 369, "annotation": {"number": 64, "value": 0}, "group": "control_change"}, {"time": 370, "annotation": {"number": 64, "value": 127}, "group": "control_change"}, {"time": 394, "annotation": {"number": 64, "value": 0}, "group": "control_change"}, {"time": 396, "annotation": {"number": 64, "value": 127}, "group": "control_change"}, {"time": 417, "annotation": {"number": 64, "value": 0}, "group": "control_change"}, {"time": 418, "annotation": {"number": 64, "value": 127}, "group": "control_change"}, {"time": 441, "annotation": {"number": 64, "value": 0}, "group": "control_change"}, {"time": 443, "annotation": {"number": 64, "value": 127}, "group": "control_change"}, {"time": 465, "annotation": {"number": 64, "value": 0}, "group": "control_change"}, {"time": 466, "annotation": {"number": 64, "value": 127}, "group": "control_change"}, {"time": 489, "annotation": {"number": 64, "value": 0}, "group": "control_change"}, {"time": 491, "annotation": {"number": 64, "value": 127}, "group": "control_change"}, {"time": 513, "annotation": {"number": 64, "value": 0}, "group": "control_change"}, {"time": 514, "annotation": {"number": 64, "value": 127}, "group": "control_change"}, {"time": 538, "annotation": {"number": 64, "value": 0}, "group": "control_change"}, {"time": 539, "annotation": {"number": 64, "value": 127}, "group": "control_change"}, {"time": 585, "annotation": {"number": 64, "value": 0}, "group": "control_change"}, {"time": 587, "annotation": {"number": 64, "value": 127}, "group": "control_change"}, {"time": 610, "annotation": {"number": 64, "value": 0}, "group": "control_change"}, {"time": 611, "annotation": {"number": 64, "value": 127}, "group": "control_change"}, {"time": 635, "annotation": {"number": 64, "value": 0}, "group": "control_change"}, {"time": 636, "annotation": {"number": 64, "value": 127}, "group": "control_change"}, {"time": 656, "annotation": {"number": 64, "value": 0}, "group": "control_change"}, {"time": 658, "annotation": {"number": 64, "value": 127}, "group": "control_change"}, {"time": 681, "annotation": {"number": 64, "value": 0}, "group": "control_change"}, {"time": 683, "annotation": {"number": 64, "value": 127}, "group": "control_change"}, {"time": 705, "annotation": {"number": 64, "value": 0}, "group": "control_change"}, {"time": 706, "annotation": {"number": 64, "value": 127}, "group": "control_change"}, {"time": 731, "annotation": {"number": 64, "value": 127}, "group": "control_change"}, {"time": 755, "annotation": {"number": 64, "value": 0}, "group": "control_change"}, {"time": 756, "annotation": {"number": 64, "value": 127}, "group": "control_change"}, {"time": 777, "annotation": {"number": 64, "value": 0}, "group": "control_change"}, {"time": 779, "annotation": {"number": 64, "value": 127}, "group": "control_change"}, {"time": 802, "annotation": {"number": 64, "value": 0}, "group": "control_change"}, {"time": 803, "annotation": {"number": 64, "value": 127}, "group": "control_change"}, {"time": 826, "annotation": {"number": 64, "value": 0}, "group": "control_change"}, {"time": 828, "annotation": {"number": 64, "value": 127}, "group": "control_change"}, {"time": 849, "annotation": {"number": 64, "value": 0}, "group": "control_change"}, {"time": 851, "annotation": {"number": 64, "value": 127}, "group": "control_change"}, {"time": 874, "annotation": {"number": 64, "value": 0}, "group": "control_change"}, {"time": 876, "annotation": {"number": 64, "value": 127}, "group": "control_change"}, {"time": 922, "annotation": {"number": 64, "value": 0}, "group": "control_change"}, {"time": 923, "annotation": {"number": 64, "value": 127}, "group": "control_change"}, {"time": 946, "annotation": {"number": 64, "value": 0}, "group": "control_change"}, {"time": 947, "annotation": {"number": 64, "value": 127}, "group": "control_change"}, {"time": 970, "annotation": {"number": 64, "value": 0}, "group": "control_change"}, {"time": 972, "annotation": {"number": 64, "value": 127}, "group": "control_change"}, {"time": 993, "annotation": {"number": 64, "value": 0}, "group": "control_change"}, {"time": 994, "annotation": {"number": 64, "value": 127}, "group": "control_change"}, {"time": 1018, "annotation": {"number": 64, "value": 0}, "group": "control_change"}, {"time": 1020, "annotation": {"number": 64, "value": 127}, "group": "control_change"}, {"time": 1041, "annotation": {"number": 64, "value": 0}, "group": "control_change"}, {"time": 1043, "annotation": {"number": 64, "value": 127}, "group": "control_change"}, {"time": 1065, "annotation": {"number": 64, "value": 0}, "group": "control_change"}, {"time": 1067, "annotation": {"number": 64, "value": 127}, "group": "control_change"}, {"time": 1137, "annotation": {"number": 64, "value": 0}, "group": "control_change"}, {"time": 1166, "annotation": {"number": 64, "value": 127}, "group": "control_change"}, {"time": 1185, "annotation": {"number": 64, "value": 0}, "group": "control_change"}, {"time": 1186, "annotation": {"number": 64, "value": 127}, "group": "control_change"}, {"time": 1210, "annotation": {"number": 64, "value": 0}, "group": "control_change"}, {"time": 1212, "annotation": {"number": 64, "value": 127}, "group": "control_change"}, {"time": 1234, "annotation": {"number": 64, "value": 0}, "group": "control_change"}, {"time": 1235, "annotation": {"number": 64, "value": 127}, "group": "control_change"}, {"time": 1258, "annotation": {"number": 64, "value": 0}, "group": "control_change"}, {"time": 1259, "annotation": {"number": 64, "value": 127}, "group": "control_change"}, {"time": 1281, "annotation": {"number": 64, "value": 0}, "group": "control_change"}, {"time": 1283, "annotation": {"number": 64, "value": 127}, "group": "control_change"}, {"time": 1305, "annotation": {"number": 64, "value": 0}, "group": "control_change"}, {"time": 1307, "annotation": {"number": 64, "value": 127}, "group": "control_change"}, {"time": 1328, "annotation": {"number": 64, "value": 0}, "group": "control_change"}, {"time": 1330, "annotation": {"number": 64, "value": 127}, "group": "control_change"}, {"time": 1353, "annotation": {"number": 64, "value": 0}, "group": "control_change"}, {"time": 1355, "annotation": {"number": 64, "value": 127}, "group": "control_change"}, {"time": 1378, "annotation": {"number": 64, "value": 0}, "group": "control_change"}, {"time": 1379, "annotation": {"number": 64, "value": 127}, "group": "control_change"}, {"time": 1402, "annotation": {"number": 64, "value": 0}, "group": "control_change"}, {"time": 1403, "annotation": {"number": 64, "value": 127}, "group": "control_change"}, {"time": 1425, "annotation": {"number": 64, "value": 0}, "group": "control_change"}, {"time": 1426, "annotation": {"number": 64, "value": 127}, "group": "control_change"}, {"time": 1450, "annotation": {"number": 64, "value": 0}, "group": "control_change"}, {"time": 1451, "annotation": {"number": 64, "value": 127}, "group": "control_change"}, {"time": 1473, "annotation": {"number": 64, "value": 0}, "group": "control_change"}, {"time": 1475, "annotation": {"number": 64, "value": 127}, "group": "control_change"}, {"time": 1498, "annotation": {"number": 64, "value": 0}, "group": "control_change"}, {"time": 1500, "annotation": {"number": 64, "value": 127}, "group": "control_change"}, {"time": 1543, "annotation": {"number": 64, "value": 0}, "group": "control_change"}, {"time": 1570, "annotation": {"number": 64, "value": 0}, "group": "control_change"}, {"time": 1571, "annotation": {"number": 64, "value": 127}, "group": "control_change"}, {"time": 1593, "annotation": {"number": 64, "value": 0}, "group": "control_change"}, {"time": 1594, "annotation": {"number": 64, "value": 127}, "group": "control_change"}, {"time": 1618, "annotation": {"number": 64, "value": 0}, "group": "control_change"}, {"time": 1619, "annotation": {"number": 64, "value": 127}, "group": "control_change"}, {"time": 1641, "annotation": {"number": 64, "value": 0}, "group": "control_change"}, {"time": 1643, "annotation": {"number": 64, "value": 127}, "group": "control_change"}, {"time": 1643, "annotation": {"number": 64, "value": 0}, "group": "control_change"}, {"time": 1666, "annotation": {"number": 64, "value": 0}, "group": "control_change"}, {"time": 1667, "annotation": {"number": 64, "value": 127}, "group": "control_change"}, {"time": 1690, "annotation": {"number": 64, "value": 0}, "group": "control_change"}, {"time": 1691, "annotation": {"number": 64, "value": 127}, "group": "control_change"}, {"time": 1714, "annotation": {"number": 64, "value": 0}, "group": "control_change"}, {"time": 1716, "annotation": {"number": 64, "value": 127}, "group": "control_change"}, {"time": 1738, "annotation": {"number": 64, "value": 0}, "group": "control_change"}, {"time": 1741, "annotation": {"number": 64, "value": 127}, "group": "control_change"}, {"time": 1761, "annotation": {"number": 64, "value": 0}, "group": "control_change"}, {"time": 1763, "annotation": {"number": 64, "value": 127}, "group": "control_change"}, {"time": 1786, "annotation": {"number": 64, "value": 0}, "group": "control_change"}, {"time": 1787, "annotation": {"number": 64, "value": 127}, "group": "control_change"}, {"time": 1810, "annotation": {"number": 64, "value": 0}, "group": "control_change"}, {"time": 1811, "annotation": {"number": 64, "value": 127}, "group": "control_change"}, {"time": 1834, "annotation": {"number": 64, "value": 0}, "group": "control_change"}, {"time": 1835, "annotation": {"number": 64, "value": 127}, "group": "control_change"}, {"time": 1881, "annotation": {"number": 64, "value": 0}, "group": "control_change"}, {"time": 1883, "annotation": {"number": 64, "value": 127}, "group": "control_change"}, {"time": 1906, "annotation": {"number": 64, "value": 0}, "group": "control_change"}, {"time": 1907, "annotation": {"number": 64, "value": 127}, "group": "control_change"}, {"time": 1930, "annotation": {"number": 64, "value": 0}, "group": "control_change"}, {"time": 1932, "annotation": {"number": 64, "value": 127}, "group": "control_change"}, {"time": 1955, "annotation": {"number": 64, "value": 0}, "group": "control_change"}, {"time": 1956, "annotation": {"number": 64, "value": 127}, "group": "control_change"}, {"time": 1978, "annotation": {"number": 64, "value": 0}, "group": "control_change"}, {"time": 1980, "annotation": {"number": 64, "value": 127}, "group": "control_change"}, {"time": 2001, "annotation": {"number": 64, "value": 0}, "group": "control_change"}, {"time": 2002, "annotation": {"number": 64, "value": 127}, "group": "control_change"}, {"time": 2025, "annotation": {"number": 64, "value": 0}, "group": "control_change"}, {"time": 2030, "annotation": {"number": 64, "value": 127}, "group": "control_change"}, {"time": 2049, "annotation": {"number": 64, "value": 0}, "group": "control_change"}, {"time": 2050, "annotation": {"number": 64, "value": 127}, "group": "control_change"}, {"time": 2074, "annotation": {"number": 64, "value": 0}, "group": "control_change"}, {"time": 2076, "annotation": {"number": 64, "value": 127}, "group": "control_change"}, {"time": 2098, "annotation": {"number": 64, "value": 0}, "group": "control_change"}, {"time": 2099, "annotation": {"number": 64, "value": 127}, "group": "control_change"}, {"time": 2122, "annotation": {"number": 64, "value": 0}, "group": "control_change"}, {"time": 2123, "annotation": {"number": 64, "value": 127}, "group": "control_change"}, {"time": 2145, "annotation": {"number": 64, "value": 0}, "group": "control_change"}, {"time": 2147, "annotation": {"number": 64, "value": 127}, "group": "control_change"}, {"time": 2169, "annotation": {"number": 64, "value": 0}, "group": "control_change"}, {"time": 2171, "annotation": {"number": 64, "value": 127}, "group": "control_change"}, {"time": 2192, "annotation": {"number": 64, "value": 0}, "group": "control_change"}, {"time": 2194, "annotation": {"number": 64, "value": 127}, "group": "control_change"}, {"time": 2217, "annotation": {"number": 64, "value": 0}, "group": "control_change"}, {"time": 2219, "annotation": {"number": 64, "value": 127}, "group": "control_change"}, {"time": 2242, "annotation": {"number": 64, "value": 0}, "group": "control_change"}, {"time": 2243, "annotation": {"number": 64, "value": 127}, "group": "control_change"}, {"time": 2266, "annotation": {"number": 64, "value": 0}, "group": "control_change"}, {"time": 2267, "annotation": {"number": 64, "value": 127}, "group": "control_change"}, {"time": 2289, "annotation": {"number": 64, "value": 0}, "group": "control_change"}, {"time": 2290, "annotation": {"number": 64, "value": 127}, "group": "control_change"}, {"time": 2314, "annotation": {"number": 64, "value": 0}, "group": "control_change"}, {"time": 2315, "annotation": {"number": 64, "value": 127}, "group": "control_change"}, {"time": 2337, "annotation": {"number": 64, "value": 0}, "group": "control_change"}, {"time": 2339, "annotation": {"number": 64, "value": 127}, "group": "control_change"}, {"time": 2362, "annotation": {"number": 64, "value": 0}, "group": "control_change"}, {"time": 2364, "annotation": {"number": 64, "value": 127}, "group": "control_change"}, {"time": 2407, "annotation": {"number": 64, "value": 0}, "group": "control_change"}, {"time": 2415, "annotation": {"number": 64, "value": 127}, "group": "control_change"}, {"time": 2433, "annotation": {"number": 64, "value": 0}, "group": "control_change"}, {"time": 2435, "annotation": {"number": 64, "value": 127}, "group": "control_change"}, {"time": 2457, "annotation": {"number": 64, "value": 0}, "group": "control_change"}, {"time": 2459, "annotation": {"number": 64, "value": 127}, "group": "control_change"}, {"time": 2481, "annotation": {"number": 64, "value": 0}, "group": "control_change"}, {"time": 2482, "annotation": {"number": 64, "value": 127}, "group": "control_change"}, {"time": 2505, "annotation": {"number": 64, "value": 0}, "group": "control_change"}, {"time": 2507, "annotation": {"number": 64, "value": 127}, "group": "control_change"}, {"time": 2529, "annotation": {"number": 64, "value": 0}, "group": "control_change"}, {"time": 2530, "annotation": {"number": 64, "value": 127}, "group": "control_change"}, {"time": 2553, "annotation": {"number": 64, "value": 0}, "group": "control_change"}, {"time": 2555, "annotation": {"number": 64, "value": 127}, "group": "control_change"}, {"time": 2578, "annotation": {"number": 64, "value": 0}, "group": "control_change"}, {"time": 2580, "annotation": {"number": 64, "value": 127}, "group": "control_change"}, {"time": 2602, "annotation": {"number": 64, "value": 0}, "group": "control_change"}, {"time": 2603, "annotation": {"number": 64, "value": 127}, "group": "control_change"}, {"time": 2625, "annotation": {"number": 64, "value": 0}, "group": "control_change"}, {"time": 2627, "annotation": {"number": 64, "value": 127}, "group": "control_change"}, {"time": 2650, "annotation": {"number": 64, "value": 0}, "group": "control_change"}, {"time": 2651, "annotation": {"number": 64, "value": 127}, "group": "control_change"}, {"time": 2654, "annotation": {"number": 64, "value": 0}, "group": "control_change"}, {"time": 2663, "annotation": {"number": 64, "value": 127}, "group": "control_change"}, {"time": 2675, "annotation": {"number": 64, "value": 0}, "group": "control_change"}, {"time": 2676, "annotation": {"number": 64, "value": 127}, "group": "control_change"}, {"time": 2696, "annotation": {"number": 64, "value": 0}, "group": "control_change"}, {"time": 2699, "annotation": {"number": 64, "value": 127}, "group": "control_change"}, {"time": 2721, "annotation": {"number": 64, "value": 0}, "group": "control_change"}, {"time": 2723, "annotation": {"number": 64, "value": 127}, "group": "control_change"}, {"time": 2745, "annotation": {"number": 64, "value": 0}, "group": "control_change"}, {"time": 2747, "annotation": {"number": 64, "value": 127}, "group": "control_change"}, {"time": 2768, "annotation": {"number": 64, "value": 0}, "group": "control_change"}, {"time": 2770, "annotation": {"number": 64, "value": 127}, "group": "control_change"}, {"time": 2793, "annotation": {"number": 64, "value": 0}, "group": "control_change"}, {"time": 2795, "annotation": {"number": 64, "value": 127}, "group": "control_change"}, {"time": 2818, "annotation": {"number": 64, "value": 0}, "group": "control_change"}, {"time": 2819, "annotation": {"number": 64, "value": 127}, "group": "control_change"}, {"time": 2842, "annotation": {"number": 64, "value": 0}, "group": "control_change"}, {"time": 2843, "annotation": {"number": 64, "value": 127}, "group": "control_change"}, {"time": 2865, "annotation": {"number": 64, "value": 0}, "group": "control_change"}, {"time": 2866, "annotation": {"number": 64, "value": 127}, "group": "control_change"}, {"time": 2890, "annotation": {"number": 64, "value": 0}, "group": "control_change"}, {"time": 2891, "annotation": {"number": 64, "value": 127}, "group": "control_change"}, {"time": 2913, "annotation": {"number": 64, "value": 0}, "group": "control_change"}, {"time": 2915, "annotation": {"number": 64, "value": 127}, "group": "control_change"}, {"time": 2938, "annotation": {"number": 64, "value": 0}, "group": "control_change"}, {"time": 2940, "annotation": {"number": 64, "value": 127}, "group": "control_change"}, {"time": 2983, "annotation": {"number": 64, "value": 0}, "group": "control_change"}, {"time": 2993, "annotation": {"number": 64, "value": 127}, "group": "control_change"}, {"time": 3016, "annotation": {"number": 64, "value": 0}, "group": "control_change"}, {"time": 3044, "annotation": {"number": 64, "value": 127}, "group": "control_change"}, {"time": 3064, "annotation": {"number": 64, "value": 0}, "group": "control_change"}, {"time": 3067, "annotation": {"number": 64, "value": 127}, "group": "control_change"}, {"time": 3090, "annotation": {"number": 64, "value": 0}, "group": "control_change"}, {"time": 3093, "annotation": {"number": 64, "value": 127}, "group": "control_change"}, {"time": 3115, "annotation": {"number": 64, "value": 0}, "group": "control_change"}, {"time": 3116, "annotation": {"number": 64, "value": 127}, "group": "control_change"}, {"time": 3142, "annotation": {"number": 64, "value": 0}, "group": "control_change"}, {"time": 3145, "annotation": {"number": 64, "value": 127}, "group": "control_change"}, {"time": 3178, "annotation": {"number": 64, "value": 0}, "group": "control_change"}, {"time": 3180, "annotation": {"number": 64, "value": 127}, "group": "control_change"}, {"time": 3242, "annotation": {"number": 64, "value": 0}, "group": "control_change"}]}]}