{"metadata": {"schema_version": "0.2", "title": "None", "source_filename": "822.mid", "source_format": "midi"}, "resolution": 12, "tempos": [{"time": 0, "qpm": 68.0000725334107}, {"time": 3115, "qpm": 67.5000675000675}, {"time": 3141, "qpm": 67.20001075200172}, {"time": 3153, "qpm": 66.90007359008095}, {"time": 3159, "qpm": 67.00002903334591}, {"time": 3163, "qpm": 66.6000666000666}, {"time": 3170, "qpm": 66.10004241419388}, {"time": 3174, "qpm": 65.700000657}, {"time": 3180, "qpm": 65.09999902350002}, {"time": 3186, "qpm": 64.10003023384759}, {"time": 3191, "qpm": 63.10004196152791}, {"time": 3196, "qpm": 62.5}], "time_signatures": [{"time": 0, "numerator": 1, "denominator": 4}], "tracks": [{"program": 0, "is_drum": false, "name": "MELODY", "notes": [{"time": 318, "pitch": 69, "duration": 4, "velocity": 86}, {"time": 324, "pitch": 69, "duration": 4, "velocity": 87}, {"time": 330, "pitch": 69, "duration": 1, "velocity": 84}, {"time": 333, "pitch": 69, "duration": 8, "velocity": 84}, {"time": 342, "pitch": 67, "duration": 4, "velocity": 76}, {"time": 348, "pitch": 67, "duration": 6, "velocity": 73}, {"time": 354, "pitch": 66, "duration": 6, "velocity": 81}, {"time": 360, "pitch": 64, "duration": 28, "velocity": 85}, {"time": 414, "pitch": 69, "duration": 4, "velocity": 85}, {"time": 420, "pitch": 69, "duration": 4, "velocity": 82}, {"time": 426, "pitch": 69, "duration": 2, "velocity": 81}, {"time": 429, "pitch": 69, "duration": 7, "velocity": 85}, {"time": 438, "pitch": 69, "duration": 4, "velocity": 86}, {"time": 444, "pitch": 73, "duration": 5, "velocity": 86}, {"time": 450, "pitch": 74, "duration": 2, "velocity": 87}, {"time": 453, "pitch": 69, "duration": 28, "velocity": 87}, {"time": 501, "pitch": 69, "duration": 3, "velocity": 81}, {"time": 504, "pitch": 67, "duration": 4, "velocity": 84}, {"time": 510, "pitch": 67, "duration": 2, "velocity": 80}, {"time": 513, "pitch": 69, "duration": 5, "velocity": 85}, {"time": 519, "pitch": 74, "duration": 7, "velocity": 89}, {"time": 528, "pitch": 73, "duration": 4, "velocity": 81}, {"time": 534, "pitch": 71, "duration": 2, "velocity": 85}, {"time": 537, "pitch": 69, "duration": 4, "velocity": 81}, {"time": 543, "pitch": 67, "duration": 6, "velocity": 82}, {"time": 549, "pitch": 69, "duration": 15, "velocity": 85}, {"time": 576, "pitch": 74, "duration": 21, "velocity": 87}, {"time": 606, "pitch": 71, "duration": 4, "velocity": 81}, {"time": 612, "pitch": 71, "duration": 4, "velocity": 83}, {"time": 618, "pitch": 69, "duration": 2, "velocity": 81}, {"time": 621, "pitch": 69, "duration": 4, "velocity": 86}, {"time": 627, "pitch": 67, "duration": 5, "velocity": 84}, {"time": 633, "pitch": 67, "duration": 5, "velocity": 86}, {"time": 639, "pitch": 66, "duration": 5, "velocity": 80}, {"time": 645, "pitch": 64, "duration": 37, "velocity": 87}, {"time": 702, "pitch": 69, "duration": 4, "velocity": 86}, {"time": 708, "pitch": 69, "duration": 4, "velocity": 87}, {"time": 714, "pitch": 69, "duration": 1, "velocity": 84}, {"time": 717, "pitch": 69, "duration": 8, "velocity": 84}, {"time": 726, "pitch": 67, "duration": 4, "velocity": 76}, {"time": 732, "pitch": 67, "duration": 6, "velocity": 73}, {"time": 738, "pitch": 66, "duration": 6, "velocity": 81}, {"time": 744, "pitch": 64, "duration": 28, "velocity": 85}, {"time": 789, "pitch": 69, "duration": 2, "velocity": 85}, {"time": 792, "pitch": 74, "duration": 5, "velocity": 90}, {"time": 798, "pitch": 73, "duration": 2, "velocity": 86}, {"time": 801, "pitch": 74, "duration": 7, "velocity": 87}, {"time": 810, "pitch": 73, "duration": 2, "velocity": 81}, {"time": 813, "pitch": 74, "duration": 7, "velocity": 85}, {"time": 822, "pitch": 76, "duration": 2, "velocity": 88}, {"time": 825, "pitch": 78, "duration": 10, "velocity": 86}, {"time": 834, "pitch": 74, "duration": 3, "velocity": 87}, {"time": 837, "pitch": 76, "duration": 28, "velocity": 81}, {"time": 885, "pitch": 69, "duration": 3, "velocity": 84}, {"time": 888, "pitch": 71, "duration": 4, "velocity": 86}, {"time": 894, "pitch": 71, "duration": 2, "velocity": 86}, {"time": 897, "pitch": 73, "duration": 4, "velocity": 84}, {"time": 903, "pitch": 74, "duration": 5, "velocity": 87}, {"time": 909, "pitch": 76, "duration": 7, "velocity": 87}, {"time": 918, "pitch": 74, "duration": 2, "velocity": 88}, {"time": 921, "pitch": 73, "duration": 5, "velocity": 84}, {"time": 927, "pitch": 71, "duration": 8, "velocity": 87}, {"time": 936, "pitch": 69, "duration": 17, "velocity": 85}, {"time": 954, "pitch": 76, "duration": 5, "velocity": 81}, {"time": 960, "pitch": 74, "duration": 21, "velocity": 87}, {"time": 984, "pitch": 71, "duration": 4, "velocity": 88}, {"time": 990, "pitch": 74, "duration": 1, "velocity": 85}, {"time": 993, "pitch": 74, "duration": 5, "velocity": 87}, {"time": 999, "pitch": 71, "duration": 7, "velocity": 88}, {"time": 1008, "pitch": 74, "duration": 5, "velocity": 94}, {"time": 1014, "pitch": 76, "duration": 1, "velocity": 84}, {"time": 1017, "pitch": 76, "duration": 5, "velocity": 86}, {"time": 1023, "pitch": 74, "duration": 7, "velocity": 91}, {"time": 1032, "pitch": 76, "duration": 26, "velocity": 90}, {"time": 1062, "pitch": 78, "duration": 4, "velocity": 83}, {"time": 1068, "pitch": 78, "duration": 4, "velocity": 81}, {"time": 1074, "pitch": 74, "duration": 4, "velocity": 86}, {"time": 1080, "pitch": 71, "duration": 4, "velocity": 86}, {"time": 1086, "pitch": 71, "duration": 5, "velocity": 87}, {"time": 1092, "pitch": 78, "duration": 5, "velocity": 86}, {"time": 1098, "pitch": 74, "duration": 4, "velocity": 89}, {"time": 1104, "pitch": 76, "duration": 15, "velocity": 87}, {"time": 1128, "pitch": 69, "duration": 4, "velocity": 86}, {"time": 1134, "pitch": 69, "duration": 4, "velocity": 86}, {"time": 1140, "pitch": 76, "duration": 5, "velocity": 87}, {"time": 1146, "pitch": 73, "duration": 4, "velocity": 85}, {"time": 1152, "pitch": 74, "duration": 12, "velocity": 87}, {"time": 1176, "pitch": 71, "duration": 4, "velocity": 86}, {"time": 1182, "pitch": 71, "duration": 5, "velocity": 86}, {"time": 1188, "pitch": 78, "duration": 5, "velocity": 86}, {"time": 1194, "pitch": 74, "duration": 5, "velocity": 91}, {"time": 1200, "pitch": 73, "duration": 5, "velocity": 85}, {"time": 1206, "pitch": 71, "duration": 2, "velocity": 85}, {"time": 1209, "pitch": 71, "duration": 5, "velocity": 85}, {"time": 1215, "pitch": 69, "duration": 7, "velocity": 86}, {"time": 1224, "pitch": 79, "duration": 4, "velocity": 87}, {"time": 1230, "pitch": 78, "duration": 1, "velocity": 92}, {"time": 1233, "pitch": 78, "duration": 4, "velocity": 89}, {"time": 1239, "pitch": 76, "duration": 4, "velocity": 86}, {"time": 1245, "pitch": 78, "duration": 7, "velocity": 89}, {"time": 1254, "pitch": 78, "duration": 5, "velocity": 86}, {"time": 1260, "pitch": 78, "duration": 3, "velocity": 87}, {"time": 1266, "pitch": 79, "duration": 3, "velocity": 86}, {"time": 1272, "pitch": 81, "duration": 4, "velocity": 86}, {"time": 1278, "pitch": 79, "duration": 4, "velocity": 86}, {"time": 1284, "pitch": 78, "duration": 5, "velocity": 91}, {"time": 1290, "pitch": 74, "duration": 4, "velocity": 89}, {"time": 1296, "pitch": 76, "duration": 13, "velocity": 84}, {"time": 1317, "pitch": 73, "duration": 2, "velocity": 83}, {"time": 1320, "pitch": 81, "duration": 5, "velocity": 86}, {"time": 1326, "pitch": 79, "duration": 4, "velocity": 87}, {"time": 1332, "pitch": 78, "duration": 5, "velocity": 89}, {"time": 1338, "pitch": 76, "duration": 5, "velocity": 87}, {"time": 1344, "pitch": 74, "duration": 12, "velocity": 92}, {"time": 1362, "pitch": 76, "duration": 2, "velocity": 91}, {"time": 1365, "pitch": 78, "duration": 1, "velocity": 86}, {"time": 1368, "pitch": 78, "duration": 5, "velocity": 84}, {"time": 1374, "pitch": 79, "duration": 6, "velocity": 85}, {"time": 1380, "pitch": 71, "duration": 9, "velocity": 88}, {"time": 1389, "pitch": 74, "duration": 1, "velocity": 89}, {"time": 1392, "pitch": 74, "duration": 4, "velocity": 89}, {"time": 1398, "pitch": 73, "duration": 5, "velocity": 90}, {"time": 1404, "pitch": 71, "duration": 6, "velocity": 89}, {"time": 1410, "pitch": 73, "duration": 6, "velocity": 87}, {"time": 1416, "pitch": 76, "duration": 8, "velocity": 89}, {"time": 1425, "pitch": 74, "duration": 39, "velocity": 87}, {"time": 1614, "pitch": 69, "duration": 4, "velocity": 86}, {"time": 1620, "pitch": 69, "duration": 4, "velocity": 87}, {"time": 1626, "pitch": 69, "duration": 1, "velocity": 84}, {"time": 1629, "pitch": 69, "duration": 8, "velocity": 84}, {"time": 1638, "pitch": 67, "duration": 4, "velocity": 76}, {"time": 1644, "pitch": 67, "duration": 6, "velocity": 73}, {"time": 1650, "pitch": 66, "duration": 6, "velocity": 81}, {"time": 1656, "pitch": 64, "duration": 28, "velocity": 85}, {"time": 1701, "pitch": 69, "duration": 2, "velocity": 85}, {"time": 1704, "pitch": 74, "duration": 5, "velocity": 90}, {"time": 1710, "pitch": 73, "duration": 2, "velocity": 86}, {"time": 1713, "pitch": 74, "duration": 7, "velocity": 87}, {"time": 1722, "pitch": 73, "duration": 2, "velocity": 81}, {"time": 1725, "pitch": 74, "duration": 7, "velocity": 85}, {"time": 1734, "pitch": 76, "duration": 2, "velocity": 88}, {"time": 1737, "pitch": 78, "duration": 10, "velocity": 86}, {"time": 1746, "pitch": 74, "duration": 3, "velocity": 87}, {"time": 1749, "pitch": 76, "duration": 28, "velocity": 81}, {"time": 1797, "pitch": 69, "duration": 3, "velocity": 84}, {"time": 1800, "pitch": 71, "duration": 4, "velocity": 86}, {"time": 1806, "pitch": 71, "duration": 2, "velocity": 86}, {"time": 1809, "pitch": 73, "duration": 4, "velocity": 84}, {"time": 1815, "pitch": 74, "duration": 5, "velocity": 87}, {"time": 1821, "pitch": 76, "duration": 7, "velocity": 87}, {"time": 1830, "pitch": 74, "duration": 2, "velocity": 88}, {"time": 1833, "pitch": 73, "duration": 5, "velocity": 84}, {"time": 1839, "pitch": 71, "duration": 8, "velocity": 87}, {"time": 1848, "pitch": 69, "duration": 17, "velocity": 85}, {"time": 1866, "pitch": 76, "duration": 5, "velocity": 81}, {"time": 1872, "pitch": 74, "duration": 21, "velocity": 87}, {"time": 1896, "pitch": 71, "duration": 4, "velocity": 88}, {"time": 1902, "pitch": 74, "duration": 1, "velocity": 85}, {"time": 1905, "pitch": 74, "duration": 5, "velocity": 87}, {"time": 1911, "pitch": 71, "duration": 7, "velocity": 88}, {"time": 1920, "pitch": 74, "duration": 5, "velocity": 94}, {"time": 1926, "pitch": 76, "duration": 1, "velocity": 84}, {"time": 1929, "pitch": 76, "duration": 5, "velocity": 86}, {"time": 1935, "pitch": 74, "duration": 7, "velocity": 91}, {"time": 1944, "pitch": 76, "duration": 26, "velocity": 90}, {"time": 1974, "pitch": 78, "duration": 4, "velocity": 83}, {"time": 1980, "pitch": 78, "duration": 4, "velocity": 81}, {"time": 1986, "pitch": 74, "duration": 4, "velocity": 86}, {"time": 1992, "pitch": 71, "duration": 4, "velocity": 86}, {"time": 1998, "pitch": 71, "duration": 5, "velocity": 87}, {"time": 2004, "pitch": 78, "duration": 5, "velocity": 86}, {"time": 2010, "pitch": 74, "duration": 4, "velocity": 89}, {"time": 2016, "pitch": 76, "duration": 15, "velocity": 87}, {"time": 2040, "pitch": 69, "duration": 4, "velocity": 86}, {"time": 2046, "pitch": 69, "duration": 4, "velocity": 86}, {"time": 2052, "pitch": 76, "duration": 5, "velocity": 87}, {"time": 2058, "pitch": 73, "duration": 4, "velocity": 85}, {"time": 2064, "pitch": 74, "duration": 12, "velocity": 87}, {"time": 2088, "pitch": 71, "duration": 4, "velocity": 86}, {"time": 2094, "pitch": 71, "duration": 5, "velocity": 86}, {"time": 2100, "pitch": 78, "duration": 5, "velocity": 86}, {"time": 2106, "pitch": 74, "duration": 5, "velocity": 91}, {"time": 2112, "pitch": 73, "duration": 5, "velocity": 85}, {"time": 2118, "pitch": 71, "duration": 2, "velocity": 85}, {"time": 2121, "pitch": 71, "duration": 5, "velocity": 85}, {"time": 2127, "pitch": 69, "duration": 7, "velocity": 86}, {"time": 2136, "pitch": 79, "duration": 4, "velocity": 87}, {"time": 2142, "pitch": 78, "duration": 1, "velocity": 92}, {"time": 2145, "pitch": 78, "duration": 4, "velocity": 89}, {"time": 2151, "pitch": 76, "duration": 4, "velocity": 86}, {"time": 2157, "pitch": 78, "duration": 7, "velocity": 89}, {"time": 2166, "pitch": 78, "duration": 5, "velocity": 86}, {"time": 2172, "pitch": 78, "duration": 3, "velocity": 87}, {"time": 2178, "pitch": 79, "duration": 3, "velocity": 86}, {"time": 2184, "pitch": 81, "duration": 4, "velocity": 86}, {"time": 2190, "pitch": 79, "duration": 4, "velocity": 86}, {"time": 2196, "pitch": 78, "duration": 5, "velocity": 91}, {"time": 2202, "pitch": 74, "duration": 4, "velocity": 89}, {"time": 2208, "pitch": 76, "duration": 13, "velocity": 84}, {"time": 2229, "pitch": 73, "duration": 2, "velocity": 83}, {"time": 2232, "pitch": 81, "duration": 5, "velocity": 86}, {"time": 2238, "pitch": 79, "duration": 4, "velocity": 87}, {"time": 2244, "pitch": 78, "duration": 5, "velocity": 89}, {"time": 2250, "pitch": 76, "duration": 5, "velocity": 87}, {"time": 2256, "pitch": 74, "duration": 12, "velocity": 92}, {"time": 2274, "pitch": 76, "duration": 2, "velocity": 91}, {"time": 2277, "pitch": 78, "duration": 1, "velocity": 86}, {"time": 2280, "pitch": 78, "duration": 5, "velocity": 84}, {"time": 2286, "pitch": 79, "duration": 6, "velocity": 85}, {"time": 2292, "pitch": 71, "duration": 9, "velocity": 88}, {"time": 2301, "pitch": 74, "duration": 1, "velocity": 89}, {"time": 2304, "pitch": 74, "duration": 4, "velocity": 89}, {"time": 2310, "pitch": 73, "duration": 5, "velocity": 90}, {"time": 2316, "pitch": 71, "duration": 6, "velocity": 89}, {"time": 2322, "pitch": 73, "duration": 6, "velocity": 87}, {"time": 2328, "pitch": 76, "duration": 8, "velocity": 89}, {"time": 2337, "pitch": 74, "duration": 39, "velocity": 87}, {"time": 2376, "pitch": 74, "duration": 2, "velocity": 92}, {"time": 2379, "pitch": 73, "duration": 1, "velocity": 87}, {"time": 2382, "pitch": 74, "duration": 1, "velocity": 89}, {"time": 2385, "pitch": 73, "duration": 1, "velocity": 94}, {"time": 2388, "pitch": 74, "duration": 4, "velocity": 89}, {"time": 2397, "pitch": 74, "duration": 5, "velocity": 91}, {"time": 2403, "pitch": 73, "duration": 3, "velocity": 91}, {"time": 2409, "pitch": 73, "duration": 4, "velocity": 91}, {"time": 2415, "pitch": 71, "duration": 1, "velocity": 85}, {"time": 2418, "pitch": 69, "duration": 5, "velocity": 87}, {"time": 2424, "pitch": 73, "duration": 2, "velocity": 92}, {"time": 2427, "pitch": 71, "duration": 2, "velocity": 80}, {"time": 2430, "pitch": 73, "duration": 2, "velocity": 83}, {"time": 2433, "pitch": 71, "duration": 1, "velocity": 85}, {"time": 2436, "pitch": 73, "duration": 7, "velocity": 87}, {"time": 2445, "pitch": 76, "duration": 4, "velocity": 87}, {"time": 2451, "pitch": 74, "duration": 5, "velocity": 92}, {"time": 2457, "pitch": 71, "duration": 3, "velocity": 83}, {"time": 2460, "pitch": 74, "duration": 1, "velocity": 89}, {"time": 2463, "pitch": 76, "duration": 2, "velocity": 89}, {"time": 2466, "pitch": 78, "duration": 4, "velocity": 89}, {"time": 2478, "pitch": 74, "duration": 4, "velocity": 92}, {"time": 2484, "pitch": 76, "duration": 5, "velocity": 88}, {"time": 2490, "pitch": 74, "duration": 4, "velocity": 96}, {"time": 2496, "pitch": 76, "duration": 4, "velocity": 92}, {"time": 2502, "pitch": 74, "duration": 4, "velocity": 89}, {"time": 2508, "pitch": 76, "duration": 5, "velocity": 87}, {"time": 2514, "pitch": 74, "duration": 5, "velocity": 92}, {"time": 2520, "pitch": 76, "duration": 5, "velocity": 80}, {"time": 2526, "pitch": 74, "duration": 7, "velocity": 91}, {"time": 2535, "pitch": 76, "duration": 5, "velocity": 86}, {"time": 2541, "pitch": 74, "duration": 3, "velocity": 85}, {"time": 2544, "pitch": 76, "duration": 42, "velocity": 86}, {"time": 2598, "pitch": 78, "duration": 4, "velocity": 83}, {"time": 2604, "pitch": 78, "duration": 4, "velocity": 81}, {"time": 2610, "pitch": 74, "duration": 4, "velocity": 86}, {"time": 2616, "pitch": 71, "duration": 4, "velocity": 86}, {"time": 2622, "pitch": 71, "duration": 5, "velocity": 87}, {"time": 2628, "pitch": 78, "duration": 5, "velocity": 86}, {"time": 2634, "pitch": 74, "duration": 4, "velocity": 89}, {"time": 2640, "pitch": 76, "duration": 15, "velocity": 87}, {"time": 2664, "pitch": 69, "duration": 4, "velocity": 86}, {"time": 2670, "pitch": 69, "duration": 4, "velocity": 86}, {"time": 2676, "pitch": 76, "duration": 5, "velocity": 87}, {"time": 2682, "pitch": 73, "duration": 4, "velocity": 85}, {"time": 2688, "pitch": 74, "duration": 12, "velocity": 87}, {"time": 2712, "pitch": 71, "duration": 4, "velocity": 86}, {"time": 2718, "pitch": 71, "duration": 5, "velocity": 86}, {"time": 2724, "pitch": 78, "duration": 5, "velocity": 86}, {"time": 2730, "pitch": 74, "duration": 5, "velocity": 91}, {"time": 2736, "pitch": 73, "duration": 5, "velocity": 85}, {"time": 2742, "pitch": 71, "duration": 2, "velocity": 85}, {"time": 2745, "pitch": 71, "duration": 5, "velocity": 85}, {"time": 2751, "pitch": 69, "duration": 7, "velocity": 86}, {"time": 2760, "pitch": 79, "duration": 4, "velocity": 87}, {"time": 2766, "pitch": 78, "duration": 1, "velocity": 92}, {"time": 2769, "pitch": 78, "duration": 4, "velocity": 89}, {"time": 2775, "pitch": 76, "duration": 4, "velocity": 86}, {"time": 2781, "pitch": 78, "duration": 7, "velocity": 89}, {"time": 2790, "pitch": 78, "duration": 5, "velocity": 86}, {"time": 2796, "pitch": 78, "duration": 3, "velocity": 87}, {"time": 2802, "pitch": 79, "duration": 3, "velocity": 86}, {"time": 2808, "pitch": 81, "duration": 4, "velocity": 86}, {"time": 2814, "pitch": 79, "duration": 4, "velocity": 86}, {"time": 2820, "pitch": 78, "duration": 5, "velocity": 91}, {"time": 2826, "pitch": 74, "duration": 4, "velocity": 89}, {"time": 2832, "pitch": 76, "duration": 13, "velocity": 84}, {"time": 2853, "pitch": 73, "duration": 2, "velocity": 83}, {"time": 2856, "pitch": 81, "duration": 5, "velocity": 86}, {"time": 2862, "pitch": 79, "duration": 4, "velocity": 87}, {"time": 2868, "pitch": 78, "duration": 5, "velocity": 89}, {"time": 2874, "pitch": 76, "duration": 5, "velocity": 87}, {"time": 2880, "pitch": 74, "duration": 12, "velocity": 92}, {"time": 2898, "pitch": 76, "duration": 2, "velocity": 91}, {"time": 2901, "pitch": 78, "duration": 1, "velocity": 86}, {"time": 2904, "pitch": 78, "duration": 5, "velocity": 84}, {"time": 2910, "pitch": 79, "duration": 6, "velocity": 85}, {"time": 2916, "pitch": 71, "duration": 9, "velocity": 88}, {"time": 2925, "pitch": 74, "duration": 1, "velocity": 89}, {"time": 2928, "pitch": 74, "duration": 4, "velocity": 89}, {"time": 2934, "pitch": 73, "duration": 5, "velocity": 90}, {"time": 2940, "pitch": 71, "duration": 6, "velocity": 89}, {"time": 2946, "pitch": 73, "duration": 6, "velocity": 87}, {"time": 2952, "pitch": 76, "duration": 8, "velocity": 89}, {"time": 2961, "pitch": 74, "duration": 30, "velocity": 87}, {"time": 2996, "pitch": 76, "duration": 3, "velocity": 85}, {"time": 2999, "pitch": 78, "duration": 3, "velocity": 79}, {"time": 3004, "pitch": 78, "duration": 6, "velocity": 86}, {"time": 3011, "pitch": 79, "duration": 5, "velocity": 82}, {"time": 3016, "pitch": 71, "duration": 10, "velocity": 84}, {"time": 3028, "pitch": 74, "duration": 3, "velocity": 84}, {"time": 3033, "pitch": 74, "duration": 6, "velocity": 87}, {"time": 3040, "pitch": 73, "duration": 7, "velocity": 74}, {"time": 3048, "pitch": 71, "duration": 20, "velocity": 85}, {"time": 3076, "pitch": 73, "duration": 14, "velocity": 83}, {"time": 3090, "pitch": 74, "duration": 33, "velocity": 89}]}, {"program": 0, "is_drum": false, "name": "BRIDGE", "notes": [{"time": 119, "pitch": 71, "duration": 5, "velocity": 92}, {"time": 125, "pitch": 71, "duration": 6, "velocity": 88}, {"time": 131, "pitch": 78, "duration": 6, "velocity": 90}, {"time": 137, "pitch": 74, "duration": 7, "velocity": 96}, {"time": 143, "pitch": 76, "duration": 21, "velocity": 87}, {"time": 164, "pitch": 73, "duration": 2, "velocity": 81}, {"time": 166, "pitch": 71, "duration": 2, "velocity": 79}, {"time": 167, "pitch": 69, "duration": 5, "velocity": 83}, {"time": 173, "pitch": 69, "duration": 6, "velocity": 87}, {"time": 179, "pitch": 76, "duration": 7, "velocity": 89}, {"time": 185, "pitch": 73, "duration": 5, "velocity": 89}, {"time": 191, "pitch": 74, "duration": 23, "velocity": 92}, {"time": 212, "pitch": 64, "duration": 2, "velocity": 74}, {"time": 213, "pitch": 66, "duration": 2, "velocity": 87}, {"time": 215, "pitch": 67, "duration": 6, "velocity": 86}, {"time": 221, "pitch": 66, "duration": 6, "velocity": 99}, {"time": 227, "pitch": 62, "duration": 6, "velocity": 90}, {"time": 233, "pitch": 59, "duration": 7, "velocity": 89}, {"time": 239, "pitch": 62, "duration": 13, "velocity": 85}, {"time": 251, "pitch": 61, "duration": 11, "velocity": 73}, {"time": 251, "pitch": 57, "duration": 11, "velocity": 74}, {"time": 264, "pitch": 59, "duration": 11, "velocity": 73}, {"time": 264, "pitch": 62, "duration": 11, "velocity": 78}, {"time": 275, "pitch": 55, "duration": 4, "velocity": 85}, {"time": 278, "pitch": 57, "duration": 4, "velocity": 81}, {"time": 282, "pitch": 52, "duration": 6, "velocity": 78}, {"time": 288, "pitch": 54, "duration": 23, "velocity": 79}, {"time": 480, "pitch": 78, "duration": 11, "velocity": 87}, {"time": 492, "pitch": 73, "duration": 11, "velocity": 89}, {"time": 504, "pitch": 71, "duration": 22, "velocity": 78}, {"time": 504, "pitch": 74, "duration": 22, "velocity": 85}, {"time": 588, "pitch": 69, "duration": 6, "velocity": 85}, {"time": 594, "pitch": 67, "duration": 3, "velocity": 80}, {"time": 597, "pitch": 66, "duration": 3, "velocity": 75}, {"time": 600, "pitch": 67, "duration": 22, "velocity": 85}, {"time": 648, "pitch": 81, "duration": 48, "velocity": 81}, {"time": 672, "pitch": 69, "duration": 22, "velocity": 82}, {"time": 684, "pitch": 67, "duration": 11, "velocity": 73}, {"time": 696, "pitch": 62, "duration": 41, "velocity": 78}, {"time": 696, "pitch": 69, "duration": 44, "velocity": 79}, {"time": 744, "pitch": 69, "duration": 17, "velocity": 73}, {"time": 762, "pitch": 69, "duration": 5, "velocity": 86}, {"time": 768, "pitch": 73, "duration": 6, "velocity": 85}, {"time": 774, "pitch": 74, "duration": 6, "velocity": 92}, {"time": 780, "pitch": 76, "duration": 11, "velocity": 85}, {"time": 792, "pitch": 71, "duration": 36, "velocity": 78}, {"time": 792, "pitch": 74, "duration": 35, "velocity": 85}, {"time": 834, "pitch": 71, "duration": 6, "velocity": 81}, {"time": 840, "pitch": 69, "duration": 19, "velocity": 82}, {"time": 858, "pitch": 71, "duration": 6, "velocity": 88}, {"time": 864, "pitch": 72, "duration": 12, "velocity": 85}, {"time": 876, "pitch": 74, "duration": 12, "velocity": 86}, {"time": 888, "pitch": 83, "duration": 36, "velocity": 85}, {"time": 924, "pitch": 85, "duration": 7, "velocity": 80}, {"time": 930, "pitch": 83, "duration": 5, "velocity": 88}, {"time": 936, "pitch": 81, "duration": 32, "velocity": 84}, {"time": 972, "pitch": 78, "duration": 10, "velocity": 86}, {"time": 984, "pitch": 76, "duration": 23, "velocity": 80}, {"time": 984, "pitch": 79, "duration": 24, "velocity": 80}, {"time": 1020, "pitch": 79, "duration": 6, "velocity": 85}, {"time": 1026, "pitch": 78, "duration": 6, "velocity": 79}, {"time": 1032, "pitch": 76, "duration": 19, "velocity": 83}, {"time": 1050, "pitch": 74, "duration": 6, "velocity": 86}, {"time": 1056, "pitch": 69, "duration": 19, "velocity": 76}, {"time": 1056, "pitch": 73, "duration": 19, "velocity": 76}, {"time": 1080, "pitch": 79, "duration": 24, "velocity": 74}, {"time": 1080, "pitch": 83, "duration": 24, "velocity": 80}, {"time": 1104, "pitch": 81, "duration": 19, "velocity": 76}, {"time": 1128, "pitch": 78, "duration": 14, "velocity": 78}, {"time": 1128, "pitch": 81, "duration": 18, "velocity": 81}, {"time": 1146, "pitch": 78, "duration": 5, "velocity": 84}, {"time": 1152, "pitch": 74, "duration": 19, "velocity": 78}, {"time": 1152, "pitch": 78, "duration": 19, "velocity": 73}, {"time": 1176, "pitch": 76, "duration": 25, "velocity": 80}, {"time": 1176, "pitch": 79, "duration": 24, "velocity": 75}, {"time": 1212, "pitch": 73, "duration": 10, "velocity": 84}, {"time": 1224, "pitch": 74, "duration": 18, "velocity": 91}, {"time": 1242, "pitch": 76, "duration": 5, "velocity": 86}, {"time": 1248, "pitch": 78, "duration": 6, "velocity": 85}, {"time": 1254, "pitch": 79, "duration": 6, "velocity": 85}, {"time": 1260, "pitch": 81, "duration": 8, "velocity": 88}, {"time": 1272, "pitch": 79, "duration": 33, "velocity": 77}, {"time": 1272, "pitch": 83, "duration": 33, "velocity": 83}, {"time": 1308, "pitch": 83, "duration": 11, "velocity": 85}, {"time": 1320, "pitch": 81, "duration": 18, "velocity": 80}, {"time": 1338, "pitch": 78, "duration": 7, "velocity": 78}, {"time": 1344, "pitch": 86, "duration": 11, "velocity": 82}, {"time": 1356, "pitch": 85, "duration": 12, "velocity": 85}, {"time": 1368, "pitch": 83, "duration": 23, "velocity": 81}, {"time": 1392, "pitch": 81, "duration": 12, "velocity": 78}, {"time": 1404, "pitch": 79, "duration": 11, "velocity": 77}, {"time": 1416, "pitch": 67, "duration": 6, "velocity": 89}, {"time": 1416, "pitch": 93, "duration": 48, "velocity": 81}, {"time": 1422, "pitch": 69, "duration": 2, "velocity": 87}, {"time": 1425, "pitch": 71, "duration": 4, "velocity": 86}, {"time": 1428, "pitch": 78, "duration": 5, "velocity": 90}, {"time": 1434, "pitch": 74, "duration": 27, "velocity": 89}, {"time": 1460, "pitch": 73, "duration": 2, "velocity": 87}, {"time": 1462, "pitch": 71, "duration": 2, "velocity": 85}, {"time": 1463, "pitch": 69, "duration": 5, "velocity": 86}, {"time": 1464, "pitch": 81, "duration": 30, "velocity": 86}, {"time": 1469, "pitch": 69, "duration": 6, "velocity": 92}, {"time": 1475, "pitch": 76, "duration": 6, "velocity": 92}, {"time": 1481, "pitch": 73, "duration": 4, "velocity": 91}, {"time": 1488, "pitch": 74, "duration": 16, "velocity": 102}, {"time": 1494, "pitch": 47, "duration": 3, "velocity": 86}, {"time": 1497, "pitch": 49, "duration": 2, "velocity": 86}, {"time": 1500, "pitch": 50, "duration": 3, "velocity": 85}, {"time": 1503, "pitch": 54, "duration": 2, "velocity": 85}, {"time": 1506, "pitch": 59, "duration": 3, "velocity": 85}, {"time": 1506, "pitch": 81, "duration": 5, "velocity": 87}, {"time": 1509, "pitch": 61, "duration": 3, "velocity": 73}, {"time": 1512, "pitch": 59, "duration": 14, "velocity": 73}, {"time": 1512, "pitch": 62, "duration": 24, "velocity": 88}, {"time": 1512, "pitch": 79, "duration": 5, "velocity": 86}, {"time": 1518, "pitch": 78, "duration": 6, "velocity": 91}, {"time": 1524, "pitch": 55, "duration": 11, "velocity": 81}, {"time": 1524, "pitch": 74, "duration": 6, "velocity": 94}, {"time": 1530, "pitch": 71, "duration": 6, "velocity": 92}, {"time": 1536, "pitch": 52, "duration": 23, "velocity": 75}, {"time": 1536, "pitch": 57, "duration": 24, "velocity": 77}, {"time": 1536, "pitch": 69, "duration": 13, "velocity": 87}, {"time": 1560, "pitch": 58, "duration": 15, "velocity": 66}, {"time": 1560, "pitch": 62, "duration": 15, "velocity": 78}, {"time": 1560, "pitch": 74, "duration": 9, "velocity": 84}, {"time": 1560, "pitch": 77, "duration": 12, "velocity": 81}, {"time": 1572, "pitch": 74, "duration": 3, "velocity": 79}, {"time": 1578, "pitch": 57, "duration": 26, "velocity": 71}, {"time": 1578, "pitch": 64, "duration": 26, "velocity": 75}, {"time": 1578, "pitch": 76, "duration": 25, "velocity": 81}, {"time": 1608, "pitch": 62, "duration": 41, "velocity": 78}, {"time": 1608, "pitch": 69, "duration": 44, "velocity": 79}, {"time": 1656, "pitch": 69, "duration": 17, "velocity": 73}, {"time": 1674, "pitch": 69, "duration": 5, "velocity": 86}, {"time": 1680, "pitch": 73, "duration": 6, "velocity": 85}, {"time": 1686, "pitch": 74, "duration": 6, "velocity": 92}, {"time": 1692, "pitch": 76, "duration": 11, "velocity": 85}, {"time": 1704, "pitch": 71, "duration": 36, "velocity": 78}, {"time": 1704, "pitch": 74, "duration": 35, "velocity": 85}, {"time": 1746, "pitch": 71, "duration": 6, "velocity": 81}, {"time": 1752, "pitch": 69, "duration": 19, "velocity": 82}, {"time": 1770, "pitch": 71, "duration": 6, "velocity": 88}, {"time": 1776, "pitch": 72, "duration": 12, "velocity": 85}, {"time": 1788, "pitch": 74, "duration": 12, "velocity": 86}, {"time": 1800, "pitch": 83, "duration": 36, "velocity": 85}, {"time": 1836, "pitch": 85, "duration": 7, "velocity": 80}, {"time": 1842, "pitch": 83, "duration": 5, "velocity": 88}, {"time": 1848, "pitch": 81, "duration": 32, "velocity": 84}, {"time": 1884, "pitch": 78, "duration": 10, "velocity": 86}, {"time": 1896, "pitch": 76, "duration": 23, "velocity": 80}, {"time": 1896, "pitch": 79, "duration": 24, "velocity": 80}, {"time": 1932, "pitch": 79, "duration": 6, "velocity": 85}, {"time": 1938, "pitch": 78, "duration": 6, "velocity": 79}, {"time": 1944, "pitch": 76, "duration": 19, "velocity": 83}, {"time": 1962, "pitch": 74, "duration": 6, "velocity": 86}, {"time": 1968, "pitch": 69, "duration": 19, "velocity": 76}, {"time": 1968, "pitch": 73, "duration": 19, "velocity": 76}, {"time": 1992, "pitch": 79, "duration": 24, "velocity": 74}, {"time": 1992, "pitch": 83, "duration": 24, "velocity": 80}, {"time": 2016, "pitch": 81, "duration": 19, "velocity": 76}, {"time": 2040, "pitch": 78, "duration": 14, "velocity": 78}, {"time": 2040, "pitch": 81, "duration": 18, "velocity": 81}, {"time": 2058, "pitch": 78, "duration": 5, "velocity": 84}, {"time": 2064, "pitch": 74, "duration": 19, "velocity": 78}, {"time": 2064, "pitch": 78, "duration": 19, "velocity": 73}, {"time": 2088, "pitch": 76, "duration": 25, "velocity": 80}, {"time": 2088, "pitch": 79, "duration": 24, "velocity": 75}, {"time": 2124, "pitch": 73, "duration": 10, "velocity": 84}, {"time": 2136, "pitch": 74, "duration": 18, "velocity": 91}, {"time": 2154, "pitch": 76, "duration": 5, "velocity": 86}, {"time": 2160, "pitch": 78, "duration": 6, "velocity": 85}, {"time": 2166, "pitch": 79, "duration": 6, "velocity": 85}, {"time": 2172, "pitch": 81, "duration": 8, "velocity": 88}, {"time": 2184, "pitch": 79, "duration": 33, "velocity": 77}, {"time": 2184, "pitch": 83, "duration": 33, "velocity": 83}, {"time": 2220, "pitch": 83, "duration": 11, "velocity": 85}, {"time": 2232, "pitch": 81, "duration": 18, "velocity": 80}, {"time": 2250, "pitch": 78, "duration": 7, "velocity": 78}, {"time": 2256, "pitch": 86, "duration": 11, "velocity": 82}, {"time": 2268, "pitch": 85, "duration": 12, "velocity": 85}, {"time": 2280, "pitch": 83, "duration": 23, "velocity": 81}, {"time": 2304, "pitch": 81, "duration": 12, "velocity": 78}, {"time": 2316, "pitch": 79, "duration": 11, "velocity": 77}, {"time": 2327, "pitch": 69, "duration": 7, "velocity": 85}, {"time": 2327, "pitch": 57, "duration": 7, "velocity": 86}, {"time": 2333, "pitch": 55, "duration": 2, "velocity": 83}, {"time": 2333, "pitch": 67, "duration": 4, "velocity": 74}, {"time": 2336, "pitch": 54, "duration": 2, "velocity": 86}, {"time": 2336, "pitch": 66, "duration": 2, "velocity": 87}, {"time": 2339, "pitch": 66, "duration": 6, "velocity": 81}, {"time": 2339, "pitch": 54, "duration": 5, "velocity": 81}, {"time": 2342, "pitch": 62, "duration": 4, "velocity": 90}, {"time": 2345, "pitch": 69, "duration": 3, "velocity": 87}, {"time": 2345, "pitch": 57, "duration": 4, "velocity": 72}, {"time": 2348, "pitch": 71, "duration": 4, "velocity": 89}, {"time": 2348, "pitch": 59, "duration": 4, "velocity": 83}, {"time": 2351, "pitch": 72, "duration": 12, "velocity": 89}, {"time": 2351, "pitch": 60, "duration": 11, "velocity": 86}, {"time": 2363, "pitch": 74, "duration": 12, "velocity": 99}, {"time": 2363, "pitch": 62, "duration": 11, "velocity": 85}, {"time": 2376, "pitch": 67, "duration": 1, "velocity": 85}, {"time": 2376, "pitch": 71, "duration": 1, "velocity": 90}, {"time": 2379, "pitch": 67, "duration": 1, "velocity": 79}, {"time": 2382, "pitch": 71, "duration": 1, "velocity": 84}, {"time": 2385, "pitch": 67, "duration": 1, "velocity": 80}, {"time": 2388, "pitch": 67, "duration": 1, "velocity": 80}, {"time": 2388, "pitch": 71, "duration": 3, "velocity": 88}, {"time": 2391, "pitch": 67, "duration": 1, "velocity": 81}, {"time": 2394, "pitch": 74, "duration": 3, "velocity": 92}, {"time": 2397, "pitch": 73, "duration": 11, "velocity": 87}, {"time": 2409, "pitch": 67, "duration": 1, "velocity": 76}, {"time": 2412, "pitch": 73, "duration": 2, "velocity": 92}, {"time": 2415, "pitch": 67, "duration": 1, "velocity": 80}, {"time": 2418, "pitch": 73, "duration": 2, "velocity": 85}, {"time": 2424, "pitch": 73, "duration": 2, "velocity": 86}, {"time": 2427, "pitch": 69, "duration": 1, "velocity": 83}, {"time": 2430, "pitch": 73, "duration": 2, "velocity": 88}, {"time": 2433, "pitch": 69, "duration": 1, "velocity": 75}, {"time": 2436, "pitch": 69, "duration": 1, "velocity": 75}, {"time": 2436, "pitch": 73, "duration": 3, "velocity": 90}, {"time": 2439, "pitch": 69, "duration": 1, "velocity": 83}, {"time": 2442, "pitch": 76, "duration": 2, "velocity": 87}, {"time": 2445, "pitch": 74, "duration": 8, "velocity": 92}, {"time": 2454, "pitch": 71, "duration": 1, "velocity": 75}, {"time": 2454, "pitch": 74, "duration": 1, "velocity": 86}, {"time": 2457, "pitch": 71, "duration": 1, "velocity": 80}, {"time": 2460, "pitch": 74, "duration": 2, "velocity": 89}, {"time": 2463, "pitch": 71, "duration": 1, "velocity": 80}, {"time": 2466, "pitch": 74, "duration": 2, "velocity": 88}, {"time": 2469, "pitch": 71, "duration": 1, "velocity": 62}, {"time": 2472, "pitch": 71, "duration": 2, "velocity": 79}, {"time": 2472, "pitch": 76, "duration": 2, "velocity": 81}, {"time": 2478, "pitch": 71, "duration": 2, "velocity": 72}, {"time": 2478, "pitch": 76, "duration": 2, "velocity": 76}, {"time": 2484, "pitch": 71, "duration": 2, "velocity": 86}, {"time": 2484, "pitch": 76, "duration": 2, "velocity": 86}, {"time": 2490, "pitch": 71, "duration": 2, "velocity": 81}, {"time": 2490, "pitch": 76, "duration": 1, "velocity": 84}, {"time": 2496, "pitch": 69, "duration": 2, "velocity": 77}, {"time": 2496, "pitch": 73, "duration": 2, "velocity": 73}, {"time": 2502, "pitch": 69, "duration": 2, "velocity": 80}, {"time": 2502, "pitch": 73, "duration": 2, "velocity": 77}, {"time": 2508, "pitch": 69, "duration": 2, "velocity": 85}, {"time": 2508, "pitch": 73, "duration": 2, "velocity": 87}, {"time": 2514, "pitch": 69, "duration": 2, "velocity": 80}, {"time": 2514, "pitch": 73, "duration": 2, "velocity": 77}, {"time": 2520, "pitch": 67, "duration": 2, "velocity": 75}, {"time": 2520, "pitch": 71, "duration": 2, "velocity": 86}, {"time": 2526, "pitch": 67, "duration": 2, "velocity": 76}, {"time": 2526, "pitch": 71, "duration": 2, "velocity": 85}, {"time": 2532, "pitch": 67, "duration": 2, "velocity": 79}, {"time": 2532, "pitch": 71, "duration": 2, "velocity": 86}, {"time": 2538, "pitch": 67, "duration": 2, "velocity": 76}, {"time": 2538, "pitch": 71, "duration": 2, "velocity": 85}, {"time": 2544, "pitch": 69, "duration": 69, "velocity": 71}, {"time": 2544, "pitch": 73, "duration": 69, "velocity": 70}, {"time": 2801, "pitch": 74, "duration": 4, "velocity": 92}, {"time": 2804, "pitch": 76, "duration": 4, "velocity": 89}, {"time": 2808, "pitch": 78, "duration": 22, "velocity": 90}, {"time": 2831, "pitch": 76, "duration": 13, "velocity": 89}, {"time": 2843, "pitch": 74, "duration": 12, "velocity": 90}, {"time": 2855, "pitch": 73, "duration": 12, "velocity": 81}, {"time": 2855, "pitch": 69, "duration": 10, "velocity": 80}, {"time": 2867, "pitch": 57, "duration": 10, "velocity": 80}, {"time": 2867, "pitch": 69, "duration": 11, "velocity": 85}, {"time": 2879, "pitch": 74, "duration": 22, "velocity": 87}, {"time": 2879, "pitch": 62, "duration": 21, "velocity": 87}, {"time": 2903, "pitch": 71, "duration": 24, "velocity": 81}, {"time": 2903, "pitch": 67, "duration": 21, "velocity": 76}, {"time": 2927, "pitch": 73, "duration": 24, "velocity": 68}, {"time": 2927, "pitch": 69, "duration": 23, "velocity": 72}, {"time": 2951, "pitch": 74, "duration": 46, "velocity": 87}, {"time": 3086, "pitch": 71, "duration": 6, "velocity": 92}, {"time": 3093, "pitch": 71, "duration": 6, "velocity": 88}, {"time": 3099, "pitch": 78, "duration": 5, "velocity": 90}, {"time": 3105, "pitch": 74, "duration": 6, "velocity": 96}, {"time": 3111, "pitch": 76, "duration": 21, "velocity": 87}, {"time": 3132, "pitch": 73, "duration": 2, "velocity": 81}, {"time": 3134, "pitch": 71, "duration": 1, "velocity": 79}, {"time": 3135, "pitch": 69, "duration": 5, "velocity": 83}, {"time": 3141, "pitch": 69, "duration": 6, "velocity": 87}, {"time": 3147, "pitch": 76, "duration": 7, "velocity": 89}, {"time": 3153, "pitch": 73, "duration": 5, "velocity": 89}, {"time": 3159, "pitch": 74, "duration": 22, "velocity": 92}, {"time": 3180, "pitch": 64, "duration": 2, "velocity": 74}, {"time": 3181, "pitch": 66, "duration": 2, "velocity": 87}, {"time": 3183, "pitch": 67, "duration": 6, "velocity": 86}, {"time": 3189, "pitch": 66, "duration": 5, "velocity": 99}, {"time": 3194, "pitch": 62, "duration": 7, "velocity": 90}, {"time": 3201, "pitch": 59, "duration": 6, "velocity": 89}, {"time": 3207, "pitch": 62, "duration": 12, "velocity": 85}, {"time": 3219, "pitch": 61, "duration": 11, "velocity": 73}, {"time": 3219, "pitch": 57, "duration": 11, "velocity": 74}, {"time": 3231, "pitch": 59, "duration": 11, "velocity": 73}, {"time": 3231, "pitch": 62, "duration": 12, "velocity": 78}, {"time": 3243, "pitch": 55, "duration": 3, "velocity": 85}, {"time": 3246, "pitch": 57, "duration": 3, "velocity": 81}, {"time": 3250, "pitch": 52, "duration": 6, "velocity": 78}, {"time": 3255, "pitch": 54, "duration": 24, "velocity": 79}]}, {"program": 0, "is_drum": false, "name": "PIANO", "notes": [{"time": 120, "pitch": 43, "duration": 38, "velocity": 83}, {"time": 123, "pitch": 50, "duration": 35, "velocity": 76}, {"time": 126, "pitch": 55, "duration": 8, "velocity": 79}, {"time": 129, "pitch": 62, "duration": 9, "velocity": 77}, {"time": 135, "pitch": 67, "duration": 5, "velocity": 80}, {"time": 138, "pitch": 55, "duration": 2, "velocity": 75}, {"time": 144, "pitch": 55, "duration": 12, "velocity": 63}, {"time": 144, "pitch": 59, "duration": 12, "velocity": 55}, {"time": 144, "pitch": 62, "duration": 12, "velocity": 69}, {"time": 168, "pitch": 42, "duration": 16, "velocity": 78}, {"time": 171, "pitch": 49, "duration": 13, "velocity": 66}, {"time": 174, "pitch": 54, "duration": 10, "velocity": 76}, {"time": 177, "pitch": 57, "duration": 8, "velocity": 76}, {"time": 192, "pitch": 47, "duration": 17, "velocity": 85}, {"time": 192, "pitch": 62, "duration": 6, "velocity": 82}, {"time": 195, "pitch": 54, "duration": 11, "velocity": 74}, {"time": 198, "pitch": 57, "duration": 6, "velocity": 84}, {"time": 201, "pitch": 62, "duration": 4, "velocity": 80}, {"time": 207, "pitch": 62, "duration": 1, "velocity": 74}, {"time": 207, "pitch": 66, "duration": 2, "velocity": 75}, {"time": 216, "pitch": 40, "duration": 18, "velocity": 86}, {"time": 216, "pitch": 59, "duration": 4, "velocity": 75}, {"time": 216, "pitch": 67, "duration": 8, "velocity": 66}, {"time": 219, "pitch": 47, "duration": 14, "velocity": 73}, {"time": 222, "pitch": 59, "duration": 9, "velocity": 73}, {"time": 225, "pitch": 64, "duration": 6, "velocity": 85}, {"time": 231, "pitch": 67, "duration": 13, "velocity": 79}, {"time": 234, "pitch": 59, "duration": 7, "velocity": 73}, {"time": 240, "pitch": 45, "duration": 20, "velocity": 82}, {"time": 243, "pitch": 52, "duration": 16, "velocity": 73}, {"time": 246, "pitch": 55, "duration": 5, "velocity": 80}, {"time": 249, "pitch": 61, "duration": 2, "velocity": 80}, {"time": 252, "pitch": 64, "duration": 6, "velocity": 80}, {"time": 264, "pitch": 50, "duration": 21, "velocity": 77}, {"time": 264, "pitch": 57, "duration": 2, "velocity": 69}, {"time": 264, "pitch": 62, "duration": 18, "velocity": 73}, {"time": 270, "pitch": 57, "duration": 7, "velocity": 69}, {"time": 276, "pitch": 67, "duration": 6, "velocity": 77}, {"time": 282, "pitch": 57, "duration": 7, "velocity": 72}, {"time": 288, "pitch": 50, "duration": 22, "velocity": 79}, {"time": 288, "pitch": 62, "duration": 8, "velocity": 75}, {"time": 288, "pitch": 66, "duration": 8, "velocity": 74}, {"time": 294, "pitch": 57, "duration": 3, "velocity": 59}, {"time": 300, "pitch": 62, "duration": 11, "velocity": 70}, {"time": 300, "pitch": 66, "duration": 11, "velocity": 70}, {"time": 312, "pitch": 38, "duration": 39, "velocity": 89}, {"time": 318, "pitch": 45, "duration": 20, "velocity": 70}, {"time": 324, "pitch": 52, "duration": 6, "velocity": 85}, {"time": 330, "pitch": 54, "duration": 6, "velocity": 91}, {"time": 336, "pitch": 57, "duration": 17, "velocity": 85}, {"time": 342, "pitch": 45, "duration": 8, "velocity": 54}, {"time": 348, "pitch": 50, "duration": 3, "velocity": 64}, {"time": 348, "pitch": 54, "duration": 4, "velocity": 78}, {"time": 360, "pitch": 45, "duration": 40, "velocity": 80}, {"time": 366, "pitch": 52, "duration": 9, "velocity": 66}, {"time": 372, "pitch": 61, "duration": 7, "velocity": 87}, {"time": 378, "pitch": 52, "duration": 27, "velocity": 74}, {"time": 384, "pitch": 57, "duration": 1, "velocity": 67}, {"time": 384, "pitch": 61, "duration": 6, "velocity": 75}, {"time": 384, "pitch": 64, "duration": 7, "velocity": 84}, {"time": 396, "pitch": 61, "duration": 7, "velocity": 79}, {"time": 408, "pitch": 47, "duration": 40, "velocity": 79}, {"time": 408, "pitch": 59, "duration": 8, "velocity": 75}, {"time": 408, "pitch": 62, "duration": 15, "velocity": 81}, {"time": 414, "pitch": 54, "duration": 8, "velocity": 68}, {"time": 420, "pitch": 59, "duration": 16, "velocity": 82}, {"time": 426, "pitch": 54, "duration": 18, "velocity": 49}, {"time": 432, "pitch": 66, "duration": 12, "velocity": 81}, {"time": 444, "pitch": 62, "duration": 5, "velocity": 80}, {"time": 450, "pitch": 59, "duration": 7, "velocity": 65}, {"time": 456, "pitch": 45, "duration": 41, "velocity": 77}, {"time": 456, "pitch": 61, "duration": 12, "velocity": 84}, {"time": 462, "pitch": 52, "duration": 9, "velocity": 76}, {"time": 468, "pitch": 57, "duration": 8, "velocity": 82}, {"time": 474, "pitch": 52, "duration": 22, "velocity": 79}, {"time": 480, "pitch": 57, "duration": 7, "velocity": 78}, {"time": 480, "pitch": 61, "duration": 6, "velocity": 75}, {"time": 486, "pitch": 62, "duration": 6, "velocity": 80}, {"time": 492, "pitch": 61, "duration": 6, "velocity": 77}, {"time": 498, "pitch": 57, "duration": 2, "velocity": 81}, {"time": 504, "pitch": 43, "duration": 27, "velocity": 84}, {"time": 504, "pitch": 62, "duration": 12, "velocity": 81}, {"time": 510, "pitch": 50, "duration": 21, "velocity": 70}, {"time": 516, "pitch": 55, "duration": 7, "velocity": 87}, {"time": 522, "pitch": 59, "duration": 1, "velocity": 89}, {"time": 528, "pitch": 55, "duration": 2, "velocity": 81}, {"time": 528, "pitch": 62, "duration": 3, "velocity": 76}, {"time": 540, "pitch": 45, "duration": 4, "velocity": 86}, {"time": 540, "pitch": 57, "duration": 7, "velocity": 79}, {"time": 540, "pitch": 61, "duration": 6, "velocity": 77}, {"time": 552, "pitch": 42, "duration": 14, "velocity": 74}, {"time": 552, "pitch": 57, "duration": 9, "velocity": 72}, {"time": 552, "pitch": 61, "duration": 13, "velocity": 77}, {"time": 558, "pitch": 49, "duration": 8, "velocity": 67}, {"time": 564, "pitch": 66, "duration": 9, "velocity": 87}, {"time": 576, "pitch": 47, "duration": 15, "velocity": 85}, {"time": 576, "pitch": 57, "duration": 8, "velocity": 73}, {"time": 576, "pitch": 62, "duration": 8, "velocity": 79}, {"time": 582, "pitch": 54, "duration": 6, "velocity": 67}, {"time": 588, "pitch": 57, "duration": 1, "velocity": 73}, {"time": 588, "pitch": 62, "duration": 6, "velocity": 80}, {"time": 588, "pitch": 66, "duration": 5, "velocity": 73}, {"time": 600, "pitch": 40, "duration": 35, "velocity": 76}, {"time": 600, "pitch": 64, "duration": 12, "velocity": 82}, {"time": 606, "pitch": 47, "duration": 30, "velocity": 74}, {"time": 612, "pitch": 59, "duration": 7, "velocity": 86}, {"time": 618, "pitch": 64, "duration": 2, "velocity": 81}, {"time": 624, "pitch": 59, "duration": 12, "velocity": 79}, {"time": 624, "pitch": 64, "duration": 12, "velocity": 81}, {"time": 624, "pitch": 67, "duration": 12, "velocity": 76}, {"time": 648, "pitch": 43, "duration": 23, "velocity": 86}, {"time": 654, "pitch": 50, "duration": 13, "velocity": 71}, {"time": 657, "pitch": 55, "duration": 5, "velocity": 79}, {"time": 660, "pitch": 58, "duration": 3, "velocity": 87}, {"time": 663, "pitch": 64, "duration": 3, "velocity": 87}, {"time": 672, "pitch": 48, "duration": 6, "velocity": 85}, {"time": 672, "pitch": 55, "duration": 4, "velocity": 74}, {"time": 672, "pitch": 60, "duration": 6, "velocity": 77}, {"time": 684, "pitch": 45, "duration": 12, "velocity": 86}, {"time": 684, "pitch": 57, "duration": 11, "velocity": 68}, {"time": 684, "pitch": 61, "duration": 12, "velocity": 74}, {"time": 696, "pitch": 38, "duration": 20, "velocity": 87}, {"time": 696, "pitch": 57, "duration": 7, "velocity": 73}, {"time": 696, "pitch": 62, "duration": 8, "velocity": 75}, {"time": 702, "pitch": 45, "duration": 11, "velocity": 66}, {"time": 708, "pitch": 57, "duration": 1, "velocity": 50}, {"time": 708, "pitch": 64, "duration": 6, "velocity": 85}, {"time": 714, "pitch": 57, "duration": 4, "velocity": 79}, {"time": 720, "pitch": 38, "duration": 15, "velocity": 71}, {"time": 720, "pitch": 62, "duration": 7, "velocity": 78}, {"time": 720, "pitch": 66, "duration": 8, "velocity": 75}, {"time": 726, "pitch": 57, "duration": 2, "velocity": 64}, {"time": 732, "pitch": 57, "duration": 2, "velocity": 81}, {"time": 732, "pitch": 62, "duration": 7, "velocity": 85}, {"time": 732, "pitch": 66, "duration": 7, "velocity": 85}, {"time": 738, "pitch": 57, "duration": 4, "velocity": 74}, {"time": 744, "pitch": 45, "duration": 43, "velocity": 79}, {"time": 744, "pitch": 57, "duration": 4, "velocity": 75}, {"time": 744, "pitch": 61, "duration": 7, "velocity": 75}, {"time": 750, "pitch": 57, "duration": 3, "velocity": 73}, {"time": 756, "pitch": 61, "duration": 2, "velocity": 78}, {"time": 756, "pitch": 64, "duration": 3, "velocity": 85}, {"time": 762, "pitch": 52, "duration": 23, "velocity": 67}, {"time": 768, "pitch": 61, "duration": 6, "velocity": 81}, {"time": 768, "pitch": 69, "duration": 4, "velocity": 81}, {"time": 774, "pitch": 57, "duration": 2, "velocity": 78}, {"time": 780, "pitch": 57, "duration": 4, "velocity": 85}, {"time": 780, "pitch": 61, "duration": 4, "velocity": 91}, {"time": 786, "pitch": 62, "duration": 3, "velocity": 84}, {"time": 792, "pitch": 47, "duration": 31, "velocity": 85}, {"time": 792, "pitch": 59, "duration": 6, "velocity": 74}, {"time": 792, "pitch": 62, "duration": 5, "velocity": 80}, {"time": 798, "pitch": 54, "duration": 8, "velocity": 67}, {"time": 804, "pitch": 59, "duration": 3, "velocity": 80}, {"time": 804, "pitch": 62, "duration": 4, "velocity": 81}, {"time": 804, "pitch": 66, "duration": 4, "velocity": 86}, {"time": 810, "pitch": 54, "duration": 8, "velocity": 56}, {"time": 816, "pitch": 59, "duration": 6, "velocity": 80}, {"time": 816, "pitch": 62, "duration": 7, "velocity": 80}, {"time": 822, "pitch": 54, "duration": 8, "velocity": 45}, {"time": 828, "pitch": 59, "duration": 2, "velocity": 83}, {"time": 828, "pitch": 62, "duration": 5, "velocity": 85}, {"time": 828, "pitch": 66, "duration": 6, "velocity": 81}, {"time": 834, "pitch": 59, "duration": 2, "velocity": 80}, {"time": 840, "pitch": 42, "duration": 15, "velocity": 86}, {"time": 840, "pitch": 57, "duration": 7, "velocity": 77}, {"time": 840, "pitch": 61, "duration": 6, "velocity": 78}, {"time": 846, "pitch": 49, "duration": 9, "velocity": 62}, {"time": 852, "pitch": 57, "duration": 2, "velocity": 84}, {"time": 852, "pitch": 61, "duration": 7, "velocity": 89}, {"time": 852, "pitch": 66, "duration": 7, "velocity": 80}, {"time": 858, "pitch": 57, "duration": 3, "velocity": 86}, {"time": 864, "pitch": 45, "duration": 8, "velocity": 87}, {"time": 864, "pitch": 57, "duration": 5, "velocity": 85}, {"time": 864, "pitch": 60, "duration": 7, "velocity": 85}, {"time": 870, "pitch": 52, "duration": 2, "velocity": 83}, {"time": 873, "pitch": 57, "duration": 1, "velocity": 85}, {"time": 876, "pitch": 38, "duration": 8, "velocity": 89}, {"time": 876, "pitch": 57, "duration": 2, "velocity": 85}, {"time": 876, "pitch": 62, "duration": 3, "velocity": 83}, {"time": 879, "pitch": 45, "duration": 5, "velocity": 74}, {"time": 882, "pitch": 57, "duration": 5, "velocity": 87}, {"time": 885, "pitch": 66, "duration": 2, "velocity": 82}, {"time": 888, "pitch": 43, "duration": 17, "velocity": 86}, {"time": 891, "pitch": 50, "duration": 15, "velocity": 78}, {"time": 894, "pitch": 55, "duration": 7, "velocity": 80}, {"time": 897, "pitch": 59, "duration": 4, "velocity": 80}, {"time": 903, "pitch": 55, "duration": 2, "velocity": 77}, {"time": 903, "pitch": 59, "duration": 2, "velocity": 77}, {"time": 903, "pitch": 62, "duration": 3, "velocity": 82}, {"time": 912, "pitch": 45, "duration": 15, "velocity": 86}, {"time": 912, "pitch": 57, "duration": 7, "velocity": 79}, {"time": 912, "pitch": 61, "duration": 8, "velocity": 79}, {"time": 918, "pitch": 52, "duration": 8, "velocity": 73}, {"time": 924, "pitch": 57, "duration": 2, "velocity": 83}, {"time": 924, "pitch": 61, "duration": 3, "velocity": 88}, {"time": 924, "pitch": 64, "duration": 3, "velocity": 86}, {"time": 936, "pitch": 42, "duration": 12, "velocity": 87}, {"time": 936, "pitch": 57, "duration": 6, "velocity": 79}, {"time": 936, "pitch": 61, "duration": 9, "velocity": 77}, {"time": 942, "pitch": 49, "duration": 7, "velocity": 77}, {"time": 945, "pitch": 57, "duration": 6, "velocity": 85}, {"time": 948, "pitch": 61, "duration": 3, "velocity": 89}, {"time": 951, "pitch": 66, "duration": 2, "velocity": 89}, {"time": 960, "pitch": 47, "duration": 21, "velocity": 86}, {"time": 960, "pitch": 57, "duration": 8, "velocity": 76}, {"time": 960, "pitch": 62, "duration": 8, "velocity": 81}, {"time": 966, "pitch": 54, "duration": 13, "velocity": 70}, {"time": 972, "pitch": 62, "duration": 10, "velocity": 78}, {"time": 972, "pitch": 66, "duration": 10, "velocity": 76}, {"time": 984, "pitch": 40, "duration": 16, "velocity": 85}, {"time": 984, "pitch": 59, "duration": 6, "velocity": 81}, {"time": 984, "pitch": 67, "duration": 10, "velocity": 79}, {"time": 990, "pitch": 47, "duration": 9, "velocity": 75}, {"time": 993, "pitch": 59, "duration": 4, "velocity": 85}, {"time": 999, "pitch": 59, "duration": 3, "velocity": 85}, {"time": 999, "pitch": 64, "duration": 2, "velocity": 85}, {"time": 1008, "pitch": 38, "duration": 18, "velocity": 75}, {"time": 1008, "pitch": 59, "duration": 4, "velocity": 80}, {"time": 1008, "pitch": 64, "duration": 7, "velocity": 85}, {"time": 1008, "pitch": 67, "duration": 7, "velocity": 78}, {"time": 1014, "pitch": 59, "duration": 2, "velocity": 79}, {"time": 1017, "pitch": 59, "duration": 1, "velocity": 72}, {"time": 1017, "pitch": 64, "duration": 7, "velocity": 88}, {"time": 1017, "pitch": 67, "duration": 9, "velocity": 86}, {"time": 1023, "pitch": 59, "duration": 4, "velocity": 85}, {"time": 1026, "pitch": 64, "duration": 7, "velocity": 80}, {"time": 1029, "pitch": 59, "duration": 4, "velocity": 72}, {"time": 1032, "pitch": 45, "duration": 18, "velocity": 87}, {"time": 1035, "pitch": 52, "duration": 14, "velocity": 78}, {"time": 1038, "pitch": 55, "duration": 2, "velocity": 71}, {"time": 1038, "pitch": 57, "duration": 3, "velocity": 70}, {"time": 1041, "pitch": 61, "duration": 3, "velocity": 86}, {"time": 1047, "pitch": 57, "duration": 2, "velocity": 82}, {"time": 1047, "pitch": 61, "duration": 2, "velocity": 85}, {"time": 1047, "pitch": 64, "duration": 3, "velocity": 87}, {"time": 1056, "pitch": 45, "duration": 18, "velocity": 86}, {"time": 1056, "pitch": 57, "duration": 4, "velocity": 79}, {"time": 1056, "pitch": 61, "duration": 5, "velocity": 78}, {"time": 1056, "pitch": 69, "duration": 5, "velocity": 83}, {"time": 1062, "pitch": 52, "duration": 12, "velocity": 73}, {"time": 1068, "pitch": 55, "duration": 11, "velocity": 85}, {"time": 1068, "pitch": 61, "duration": 11, "velocity": 81}, {"time": 1068, "pitch": 64, "duration": 12, "velocity": 86}, {"time": 1080, "pitch": 43, "duration": 21, "velocity": 85}, {"time": 1080, "pitch": 55, "duration": 5, "velocity": 81}, {"time": 1080, "pitch": 62, "duration": 5, "velocity": 80}, {"time": 1086, "pitch": 50, "duration": 6, "velocity": 74}, {"time": 1092, "pitch": 55, "duration": 3, "velocity": 88}, {"time": 1092, "pitch": 59, "duration": 3, "velocity": 90}, {"time": 1095, "pitch": 50, "duration": 7, "velocity": 85}, {"time": 1098, "pitch": 55, "duration": 3, "velocity": 84}, {"time": 1101, "pitch": 59, "duration": 3, "velocity": 85}, {"time": 1104, "pitch": 45, "duration": 14, "velocity": 86}, {"time": 1104, "pitch": 57, "duration": 5, "velocity": 76}, {"time": 1104, "pitch": 61, "duration": 4, "velocity": 85}, {"time": 1110, "pitch": 52, "duration": 8, "velocity": 64}, {"time": 1116, "pitch": 57, "duration": 4, "velocity": 84}, {"time": 1116, "pitch": 61, "duration": 5, "velocity": 89}, {"time": 1116, "pitch": 64, "duration": 5, "velocity": 87}, {"time": 1122, "pitch": 45, "duration": 2, "velocity": 85}, {"time": 1125, "pitch": 57, "duration": 2, "velocity": 79}, {"time": 1128, "pitch": 42, "duration": 16, "velocity": 87}, {"time": 1128, "pitch": 57, "duration": 6, "velocity": 76}, {"time": 1128, "pitch": 61, "duration": 7, "velocity": 78}, {"time": 1134, "pitch": 49, "duration": 7, "velocity": 65}, {"time": 1140, "pitch": 57, "duration": 3, "velocity": 86}, {"time": 1140, "pitch": 61, "duration": 7, "velocity": 91}, {"time": 1140, "pitch": 66, "duration": 7, "velocity": 85}, {"time": 1143, "pitch": 49, "duration": 1, "velocity": 76}, {"time": 1146, "pitch": 57, "duration": 2, "velocity": 86}, {"time": 1152, "pitch": 47, "duration": 16, "velocity": 85}, {"time": 1152, "pitch": 59, "duration": 7, "velocity": 82}, {"time": 1152, "pitch": 62, "duration": 7, "velocity": 81}, {"time": 1158, "pitch": 54, "duration": 6, "velocity": 72}, {"time": 1164, "pitch": 57, "duration": 3, "velocity": 85}, {"time": 1164, "pitch": 62, "duration": 5, "velocity": 86}, {"time": 1164, "pitch": 66, "duration": 9, "velocity": 86}, {"time": 1167, "pitch": 54, "duration": 2, "velocity": 82}, {"time": 1170, "pitch": 57, "duration": 4, "velocity": 85}, {"time": 1173, "pitch": 62, "duration": 3, "velocity": 79}, {"time": 1176, "pitch": 40, "duration": 14, "velocity": 87}, {"time": 1176, "pitch": 59, "duration": 7, "velocity": 70}, {"time": 1176, "pitch": 64, "duration": 8, "velocity": 80}, {"time": 1182, "pitch": 47, "duration": 7, "velocity": 77}, {"time": 1188, "pitch": 59, "duration": 2, "velocity": 85}, {"time": 1188, "pitch": 64, "duration": 6, "velocity": 88}, {"time": 1188, "pitch": 67, "duration": 6, "velocity": 83}, {"time": 1194, "pitch": 59, "duration": 1, "velocity": 79}, {"time": 1200, "pitch": 45, "duration": 17, "velocity": 86}, {"time": 1200, "pitch": 57, "duration": 6, "velocity": 77}, {"time": 1200, "pitch": 61, "duration": 6, "velocity": 74}, {"time": 1200, "pitch": 64, "duration": 7, "velocity": 86}, {"time": 1206, "pitch": 52, "duration": 4, "velocity": 74}, {"time": 1209, "pitch": 57, "duration": 4, "velocity": 87}, {"time": 1212, "pitch": 52, "duration": 4, "velocity": 86}, {"time": 1215, "pitch": 57, "duration": 3, "velocity": 87}, {"time": 1215, "pitch": 61, "duration": 4, "velocity": 101}, {"time": 1215, "pitch": 64, "duration": 7, "velocity": 92}, {"time": 1218, "pitch": 49, "duration": 2, "velocity": 78}, {"time": 1221, "pitch": 57, "duration": 1, "velocity": 86}, {"time": 1224, "pitch": 45, "duration": 16, "velocity": 89}, {"time": 1224, "pitch": 55, "duration": 9, "velocity": 86}, {"time": 1224, "pitch": 57, "duration": 8, "velocity": 86}, {"time": 1224, "pitch": 60, "duration": 10, "velocity": 90}, {"time": 1230, "pitch": 52, "duration": 6, "velocity": 85}, {"time": 1236, "pitch": 55, "duration": 3, "velocity": 88}, {"time": 1236, "pitch": 60, "duration": 4, "velocity": 92}, {"time": 1236, "pitch": 64, "duration": 4, "velocity": 91}, {"time": 1239, "pitch": 52, "duration": 2, "velocity": 90}, {"time": 1242, "pitch": 55, "duration": 3, "velocity": 87}, {"time": 1245, "pitch": 60, "duration": 2, "velocity": 85}, {"time": 1248, "pitch": 50, "duration": 10, "velocity": 91}, {"time": 1248, "pitch": 57, "duration": 3, "velocity": 81}, {"time": 1248, "pitch": 60, "duration": 7, "velocity": 82}, {"time": 1248, "pitch": 66, "duration": 6, "velocity": 80}, {"time": 1254, "pitch": 57, "duration": 1, "velocity": 72}, {"time": 1257, "pitch": 57, "duration": 3, "velocity": 85}, {"time": 1257, "pitch": 62, "duration": 4, "velocity": 87}, {"time": 1260, "pitch": 50, "duration": 4, "velocity": 91}, {"time": 1263, "pitch": 57, "duration": 2, "velocity": 86}, {"time": 1263, "pitch": 60, "duration": 4, "velocity": 88}, {"time": 1269, "pitch": 55, "duration": 1, "velocity": 77}, {"time": 1272, "pitch": 43, "duration": 19, "velocity": 87}, {"time": 1272, "pitch": 55, "duration": 6, "velocity": 86}, {"time": 1272, "pitch": 59, "duration": 6, "velocity": 86}, {"time": 1278, "pitch": 50, "duration": 6, "velocity": 72}, {"time": 1284, "pitch": 55, "duration": 2, "velocity": 84}, {"time": 1284, "pitch": 59, "duration": 3, "velocity": 87}, {"time": 1284, "pitch": 62, "duration": 4, "velocity": 86}, {"time": 1287, "pitch": 50, "duration": 5, "velocity": 76}, {"time": 1290, "pitch": 55, "duration": 4, "velocity": 78}, {"time": 1293, "pitch": 59, "duration": 3, "velocity": 76}, {"time": 1296, "pitch": 57, "duration": 6, "velocity": 83}, {"time": 1296, "pitch": 61, "duration": 5, "velocity": 85}, {"time": 1296, "pitch": 43, "duration": 19, "velocity": 86}, {"time": 1302, "pitch": 52, "duration": 6, "velocity": 76}, {"time": 1308, "pitch": 57, "duration": 6, "velocity": 82}, {"time": 1308, "pitch": 61, "duration": 6, "velocity": 92}, {"time": 1308, "pitch": 64, "duration": 7, "velocity": 87}, {"time": 1314, "pitch": 52, "duration": 1, "velocity": 81}, {"time": 1320, "pitch": 42, "duration": 14, "velocity": 87}, {"time": 1320, "pitch": 57, "duration": 5, "velocity": 80}, {"time": 1320, "pitch": 61, "duration": 6, "velocity": 86}, {"time": 1326, "pitch": 49, "duration": 3, "velocity": 64}, {"time": 1329, "pitch": 57, "duration": 4, "velocity": 85}, {"time": 1329, "pitch": 61, "duration": 3, "velocity": 90}, {"time": 1329, "pitch": 66, "duration": 6, "velocity": 87}, {"time": 1332, "pitch": 46, "duration": 7, "velocity": 79}, {"time": 1335, "pitch": 61, "duration": 5, "velocity": 94}, {"time": 1338, "pitch": 58, "duration": 5, "velocity": 85}, {"time": 1344, "pitch": 47, "duration": 16, "velocity": 86}, {"time": 1344, "pitch": 57, "duration": 9, "velocity": 82}, {"time": 1344, "pitch": 62, "duration": 9, "velocity": 85}, {"time": 1350, "pitch": 54, "duration": 6, "velocity": 58}, {"time": 1356, "pitch": 57, "duration": 3, "velocity": 85}, {"time": 1356, "pitch": 62, "duration": 4, "velocity": 88}, {"time": 1356, "pitch": 66, "duration": 6, "velocity": 86}, {"time": 1359, "pitch": 54, "duration": 2, "velocity": 76}, {"time": 1362, "pitch": 47, "duration": 2, "velocity": 85}, {"time": 1368, "pitch": 40, "duration": 16, "velocity": 86}, {"time": 1368, "pitch": 59, "duration": 8, "velocity": 78}, {"time": 1368, "pitch": 64, "duration": 8, "velocity": 84}, {"time": 1374, "pitch": 47, "duration": 7, "velocity": 70}, {"time": 1380, "pitch": 59, "duration": 5, "velocity": 81}, {"time": 1380, "pitch": 64, "duration": 5, "velocity": 87}, {"time": 1380, "pitch": 67, "duration": 6, "velocity": 81}, {"time": 1392, "pitch": 45, "duration": 14, "velocity": 84}, {"time": 1392, "pitch": 55, "duration": 6, "velocity": 79}, {"time": 1392, "pitch": 61, "duration": 6, "velocity": 73}, {"time": 1398, "pitch": 52, "duration": 6, "velocity": 72}, {"time": 1404, "pitch": 57, "duration": 6, "velocity": 79}, {"time": 1404, "pitch": 61, "duration": 5, "velocity": 85}, {"time": 1404, "pitch": 64, "duration": 7, "velocity": 86}, {"time": 1416, "pitch": 43, "duration": 42, "velocity": 84}, {"time": 1416, "pitch": 55, "duration": 7, "velocity": 78}, {"time": 1416, "pitch": 59, "duration": 6, "velocity": 75}, {"time": 1422, "pitch": 50, "duration": 31, "velocity": 65}, {"time": 1425, "pitch": 57, "duration": 5, "velocity": 82}, {"time": 1431, "pitch": 62, "duration": 5, "velocity": 82}, {"time": 1455, "pitch": 50, "duration": 3, "velocity": 81}, {"time": 1458, "pitch": 55, "duration": 5, "velocity": 82}, {"time": 1461, "pitch": 62, "duration": 2, "velocity": 75}, {"time": 1464, "pitch": 42, "duration": 14, "velocity": 81}, {"time": 1464, "pitch": 57, "duration": 3, "velocity": 72}, {"time": 1464, "pitch": 61, "duration": 6, "velocity": 78}, {"time": 1467, "pitch": 49, "duration": 12, "velocity": 71}, {"time": 1470, "pitch": 57, "duration": 10, "velocity": 80}, {"time": 1473, "pitch": 61, "duration": 6, "velocity": 88}, {"time": 1479, "pitch": 66, "duration": 3, "velocity": 85}, {"time": 1488, "pitch": 47, "duration": 16, "velocity": 85}, {"time": 1488, "pitch": 57, "duration": 9, "velocity": 73}, {"time": 1488, "pitch": 62, "duration": 12, "velocity": 79}, {"time": 1494, "pitch": 54, "duration": 7, "velocity": 55}, {"time": 1500, "pitch": 57, "duration": 2, "velocity": 71}, {"time": 1512, "pitch": 40, "duration": 14, "velocity": 88}, {"time": 1512, "pitch": 59, "duration": 6, "velocity": 80}, {"time": 1512, "pitch": 64, "duration": 8, "velocity": 83}, {"time": 1518, "pitch": 47, "duration": 8, "velocity": 74}, {"time": 1521, "pitch": 59, "duration": 6, "velocity": 84}, {"time": 1524, "pitch": 64, "duration": 3, "velocity": 79}, {"time": 1527, "pitch": 67, "duration": 1, "velocity": 87}, {"time": 1536, "pitch": 42, "duration": 13, "velocity": 82}, {"time": 1536, "pitch": 57, "duration": 3, "velocity": 74}, {"time": 1536, "pitch": 61, "duration": 5, "velocity": 76}, {"time": 1539, "pitch": 49, "duration": 10, "velocity": 74}, {"time": 1542, "pitch": 57, "duration": 6, "velocity": 74}, {"time": 1545, "pitch": 61, "duration": 3, "velocity": 91}, {"time": 1548, "pitch": 66, "duration": 4, "velocity": 89}, {"time": 1551, "pitch": 61, "duration": 3, "velocity": 87}, {"time": 1554, "pitch": 57, "duration": 2, "velocity": 82}, {"time": 1560, "pitch": 43, "duration": 17, "velocity": 85}, {"time": 1560, "pitch": 55, "duration": 3, "velocity": 80}, {"time": 1560, "pitch": 58, "duration": 6, "velocity": 71}, {"time": 1563, "pitch": 50, "duration": 13, "velocity": 72}, {"time": 1566, "pitch": 55, "duration": 4, "velocity": 84}, {"time": 1569, "pitch": 62, "duration": 6, "velocity": 86}, {"time": 1575, "pitch": 67, "duration": 6, "velocity": 86}, {"time": 1578, "pitch": 55, "duration": 2, "velocity": 84}, {"time": 1584, "pitch": 45, "duration": 22, "velocity": 86}, {"time": 1584, "pitch": 57, "duration": 22, "velocity": 75}, {"time": 1584, "pitch": 61, "duration": 22, "velocity": 77}, {"time": 1608, "pitch": 38, "duration": 20, "velocity": 87}, {"time": 1608, "pitch": 57, "duration": 7, "velocity": 73}, {"time": 1608, "pitch": 62, "duration": 8, "velocity": 75}, {"time": 1614, "pitch": 45, "duration": 11, "velocity": 66}, {"time": 1620, "pitch": 57, "duration": 1, "velocity": 50}, {"time": 1620, "pitch": 64, "duration": 6, "velocity": 85}, {"time": 1626, "pitch": 57, "duration": 4, "velocity": 79}, {"time": 1632, "pitch": 38, "duration": 15, "velocity": 71}, {"time": 1632, "pitch": 62, "duration": 7, "velocity": 78}, {"time": 1632, "pitch": 66, "duration": 8, "velocity": 75}, {"time": 1638, "pitch": 57, "duration": 2, "velocity": 64}, {"time": 1644, "pitch": 57, "duration": 2, "velocity": 81}, {"time": 1644, "pitch": 62, "duration": 7, "velocity": 85}, {"time": 1644, "pitch": 66, "duration": 7, "velocity": 85}, {"time": 1650, "pitch": 57, "duration": 4, "velocity": 74}, {"time": 1656, "pitch": 45, "duration": 43, "velocity": 79}, {"time": 1656, "pitch": 57, "duration": 4, "velocity": 75}, {"time": 1656, "pitch": 61, "duration": 7, "velocity": 75}, {"time": 1662, "pitch": 57, "duration": 3, "velocity": 73}, {"time": 1668, "pitch": 61, "duration": 2, "velocity": 78}, {"time": 1668, "pitch": 64, "duration": 3, "velocity": 85}, {"time": 1674, "pitch": 52, "duration": 23, "velocity": 67}, {"time": 1680, "pitch": 61, "duration": 6, "velocity": 81}, {"time": 1680, "pitch": 69, "duration": 4, "velocity": 81}, {"time": 1686, "pitch": 57, "duration": 2, "velocity": 78}, {"time": 1692, "pitch": 57, "duration": 4, "velocity": 85}, {"time": 1692, "pitch": 61, "duration": 4, "velocity": 91}, {"time": 1698, "pitch": 62, "duration": 3, "velocity": 84}, {"time": 1704, "pitch": 47, "duration": 31, "velocity": 85}, {"time": 1704, "pitch": 59, "duration": 6, "velocity": 74}, {"time": 1704, "pitch": 62, "duration": 5, "velocity": 80}, {"time": 1710, "pitch": 54, "duration": 8, "velocity": 67}, {"time": 1716, "pitch": 59, "duration": 3, "velocity": 80}, {"time": 1716, "pitch": 62, "duration": 4, "velocity": 81}, {"time": 1716, "pitch": 66, "duration": 4, "velocity": 86}, {"time": 1722, "pitch": 54, "duration": 8, "velocity": 56}, {"time": 1728, "pitch": 59, "duration": 6, "velocity": 80}, {"time": 1728, "pitch": 62, "duration": 7, "velocity": 80}, {"time": 1734, "pitch": 54, "duration": 8, "velocity": 45}, {"time": 1740, "pitch": 59, "duration": 2, "velocity": 83}, {"time": 1740, "pitch": 62, "duration": 5, "velocity": 85}, {"time": 1740, "pitch": 66, "duration": 6, "velocity": 81}, {"time": 1746, "pitch": 59, "duration": 2, "velocity": 80}, {"time": 1752, "pitch": 42, "duration": 15, "velocity": 86}, {"time": 1752, "pitch": 57, "duration": 7, "velocity": 77}, {"time": 1752, "pitch": 61, "duration": 6, "velocity": 78}, {"time": 1758, "pitch": 49, "duration": 9, "velocity": 62}, {"time": 1764, "pitch": 57, "duration": 2, "velocity": 84}, {"time": 1764, "pitch": 61, "duration": 7, "velocity": 89}, {"time": 1764, "pitch": 66, "duration": 7, "velocity": 80}, {"time": 1770, "pitch": 57, "duration": 3, "velocity": 86}, {"time": 1776, "pitch": 45, "duration": 8, "velocity": 87}, {"time": 1776, "pitch": 57, "duration": 5, "velocity": 85}, {"time": 1776, "pitch": 60, "duration": 7, "velocity": 85}, {"time": 1782, "pitch": 52, "duration": 2, "velocity": 83}, {"time": 1785, "pitch": 57, "duration": 1, "velocity": 85}, {"time": 1788, "pitch": 38, "duration": 8, "velocity": 89}, {"time": 1788, "pitch": 57, "duration": 2, "velocity": 85}, {"time": 1788, "pitch": 62, "duration": 3, "velocity": 83}, {"time": 1791, "pitch": 45, "duration": 5, "velocity": 74}, {"time": 1794, "pitch": 57, "duration": 5, "velocity": 87}, {"time": 1797, "pitch": 66, "duration": 2, "velocity": 82}, {"time": 1800, "pitch": 43, "duration": 17, "velocity": 86}, {"time": 1803, "pitch": 50, "duration": 15, "velocity": 78}, {"time": 1806, "pitch": 55, "duration": 7, "velocity": 80}, {"time": 1809, "pitch": 59, "duration": 4, "velocity": 80}, {"time": 1815, "pitch": 55, "duration": 2, "velocity": 77}, {"time": 1815, "pitch": 59, "duration": 2, "velocity": 77}, {"time": 1815, "pitch": 62, "duration": 3, "velocity": 82}, {"time": 1824, "pitch": 45, "duration": 15, "velocity": 86}, {"time": 1824, "pitch": 57, "duration": 7, "velocity": 79}, {"time": 1824, "pitch": 61, "duration": 8, "velocity": 79}, {"time": 1830, "pitch": 52, "duration": 8, "velocity": 73}, {"time": 1836, "pitch": 57, "duration": 2, "velocity": 83}, {"time": 1836, "pitch": 61, "duration": 3, "velocity": 88}, {"time": 1836, "pitch": 64, "duration": 3, "velocity": 86}, {"time": 1848, "pitch": 42, "duration": 12, "velocity": 87}, {"time": 1848, "pitch": 57, "duration": 6, "velocity": 79}, {"time": 1848, "pitch": 61, "duration": 9, "velocity": 77}, {"time": 1854, "pitch": 49, "duration": 7, "velocity": 77}, {"time": 1857, "pitch": 57, "duration": 6, "velocity": 85}, {"time": 1860, "pitch": 61, "duration": 3, "velocity": 89}, {"time": 1863, "pitch": 66, "duration": 2, "velocity": 89}, {"time": 1872, "pitch": 47, "duration": 21, "velocity": 86}, {"time": 1872, "pitch": 57, "duration": 8, "velocity": 76}, {"time": 1872, "pitch": 62, "duration": 8, "velocity": 81}, {"time": 1878, "pitch": 54, "duration": 13, "velocity": 70}, {"time": 1884, "pitch": 62, "duration": 10, "velocity": 78}, {"time": 1884, "pitch": 66, "duration": 10, "velocity": 76}, {"time": 1896, "pitch": 40, "duration": 16, "velocity": 85}, {"time": 1896, "pitch": 59, "duration": 6, "velocity": 81}, {"time": 1896, "pitch": 67, "duration": 10, "velocity": 79}, {"time": 1902, "pitch": 47, "duration": 9, "velocity": 75}, {"time": 1905, "pitch": 59, "duration": 4, "velocity": 85}, {"time": 1911, "pitch": 59, "duration": 3, "velocity": 85}, {"time": 1911, "pitch": 64, "duration": 2, "velocity": 85}, {"time": 1920, "pitch": 38, "duration": 18, "velocity": 75}, {"time": 1920, "pitch": 59, "duration": 4, "velocity": 80}, {"time": 1920, "pitch": 64, "duration": 7, "velocity": 85}, {"time": 1920, "pitch": 67, "duration": 7, "velocity": 78}, {"time": 1926, "pitch": 59, "duration": 2, "velocity": 79}, {"time": 1929, "pitch": 59, "duration": 1, "velocity": 72}, {"time": 1929, "pitch": 64, "duration": 7, "velocity": 88}, {"time": 1929, "pitch": 67, "duration": 9, "velocity": 86}, {"time": 1935, "pitch": 59, "duration": 4, "velocity": 85}, {"time": 1938, "pitch": 64, "duration": 7, "velocity": 80}, {"time": 1941, "pitch": 59, "duration": 4, "velocity": 72}, {"time": 1944, "pitch": 45, "duration": 18, "velocity": 87}, {"time": 1947, "pitch": 52, "duration": 14, "velocity": 78}, {"time": 1950, "pitch": 55, "duration": 2, "velocity": 71}, {"time": 1950, "pitch": 57, "duration": 3, "velocity": 70}, {"time": 1953, "pitch": 61, "duration": 3, "velocity": 86}, {"time": 1959, "pitch": 57, "duration": 2, "velocity": 82}, {"time": 1959, "pitch": 61, "duration": 2, "velocity": 85}, {"time": 1959, "pitch": 64, "duration": 3, "velocity": 87}, {"time": 1968, "pitch": 45, "duration": 18, "velocity": 86}, {"time": 1968, "pitch": 57, "duration": 4, "velocity": 79}, {"time": 1968, "pitch": 61, "duration": 5, "velocity": 78}, {"time": 1968, "pitch": 69, "duration": 5, "velocity": 83}, {"time": 1974, "pitch": 52, "duration": 12, "velocity": 73}, {"time": 1980, "pitch": 55, "duration": 11, "velocity": 85}, {"time": 1980, "pitch": 61, "duration": 11, "velocity": 81}, {"time": 1980, "pitch": 64, "duration": 12, "velocity": 86}, {"time": 1992, "pitch": 43, "duration": 21, "velocity": 85}, {"time": 1992, "pitch": 55, "duration": 5, "velocity": 81}, {"time": 1992, "pitch": 62, "duration": 5, "velocity": 80}, {"time": 1998, "pitch": 50, "duration": 6, "velocity": 74}, {"time": 2004, "pitch": 55, "duration": 3, "velocity": 88}, {"time": 2004, "pitch": 59, "duration": 3, "velocity": 90}, {"time": 2007, "pitch": 50, "duration": 7, "velocity": 85}, {"time": 2010, "pitch": 55, "duration": 3, "velocity": 84}, {"time": 2013, "pitch": 59, "duration": 3, "velocity": 85}, {"time": 2016, "pitch": 45, "duration": 14, "velocity": 86}, {"time": 2016, "pitch": 57, "duration": 5, "velocity": 76}, {"time": 2016, "pitch": 61, "duration": 4, "velocity": 85}, {"time": 2022, "pitch": 52, "duration": 8, "velocity": 64}, {"time": 2028, "pitch": 57, "duration": 4, "velocity": 84}, {"time": 2028, "pitch": 61, "duration": 5, "velocity": 89}, {"time": 2028, "pitch": 64, "duration": 5, "velocity": 87}, {"time": 2034, "pitch": 45, "duration": 2, "velocity": 85}, {"time": 2037, "pitch": 57, "duration": 2, "velocity": 79}, {"time": 2040, "pitch": 42, "duration": 16, "velocity": 87}, {"time": 2040, "pitch": 57, "duration": 6, "velocity": 76}, {"time": 2040, "pitch": 61, "duration": 7, "velocity": 78}, {"time": 2046, "pitch": 49, "duration": 7, "velocity": 65}, {"time": 2052, "pitch": 57, "duration": 3, "velocity": 86}, {"time": 2052, "pitch": 61, "duration": 7, "velocity": 91}, {"time": 2052, "pitch": 66, "duration": 7, "velocity": 85}, {"time": 2055, "pitch": 49, "duration": 1, "velocity": 76}, {"time": 2058, "pitch": 57, "duration": 2, "velocity": 86}, {"time": 2064, "pitch": 47, "duration": 16, "velocity": 85}, {"time": 2064, "pitch": 59, "duration": 7, "velocity": 82}, {"time": 2064, "pitch": 62, "duration": 7, "velocity": 81}, {"time": 2070, "pitch": 54, "duration": 6, "velocity": 72}, {"time": 2076, "pitch": 57, "duration": 3, "velocity": 85}, {"time": 2076, "pitch": 62, "duration": 5, "velocity": 86}, {"time": 2076, "pitch": 66, "duration": 9, "velocity": 86}, {"time": 2079, "pitch": 54, "duration": 2, "velocity": 82}, {"time": 2082, "pitch": 57, "duration": 4, "velocity": 85}, {"time": 2085, "pitch": 62, "duration": 3, "velocity": 79}, {"time": 2088, "pitch": 40, "duration": 14, "velocity": 87}, {"time": 2088, "pitch": 59, "duration": 7, "velocity": 70}, {"time": 2088, "pitch": 64, "duration": 8, "velocity": 80}, {"time": 2094, "pitch": 47, "duration": 7, "velocity": 77}, {"time": 2100, "pitch": 59, "duration": 2, "velocity": 85}, {"time": 2100, "pitch": 64, "duration": 6, "velocity": 88}, {"time": 2100, "pitch": 67, "duration": 6, "velocity": 83}, {"time": 2106, "pitch": 59, "duration": 1, "velocity": 79}, {"time": 2112, "pitch": 45, "duration": 17, "velocity": 86}, {"time": 2112, "pitch": 57, "duration": 6, "velocity": 77}, {"time": 2112, "pitch": 61, "duration": 6, "velocity": 74}, {"time": 2112, "pitch": 64, "duration": 7, "velocity": 86}, {"time": 2118, "pitch": 52, "duration": 4, "velocity": 74}, {"time": 2121, "pitch": 57, "duration": 4, "velocity": 87}, {"time": 2124, "pitch": 52, "duration": 4, "velocity": 86}, {"time": 2127, "pitch": 57, "duration": 3, "velocity": 87}, {"time": 2127, "pitch": 61, "duration": 4, "velocity": 101}, {"time": 2127, "pitch": 64, "duration": 7, "velocity": 92}, {"time": 2130, "pitch": 49, "duration": 2, "velocity": 78}, {"time": 2133, "pitch": 57, "duration": 1, "velocity": 86}, {"time": 2136, "pitch": 45, "duration": 16, "velocity": 89}, {"time": 2136, "pitch": 55, "duration": 9, "velocity": 86}, {"time": 2136, "pitch": 57, "duration": 8, "velocity": 86}, {"time": 2136, "pitch": 60, "duration": 10, "velocity": 90}, {"time": 2142, "pitch": 52, "duration": 6, "velocity": 85}, {"time": 2148, "pitch": 55, "duration": 3, "velocity": 88}, {"time": 2148, "pitch": 60, "duration": 4, "velocity": 92}, {"time": 2148, "pitch": 64, "duration": 4, "velocity": 91}, {"time": 2151, "pitch": 52, "duration": 2, "velocity": 90}, {"time": 2154, "pitch": 55, "duration": 3, "velocity": 87}, {"time": 2157, "pitch": 60, "duration": 2, "velocity": 85}, {"time": 2160, "pitch": 50, "duration": 10, "velocity": 91}, {"time": 2160, "pitch": 57, "duration": 3, "velocity": 81}, {"time": 2160, "pitch": 60, "duration": 7, "velocity": 82}, {"time": 2160, "pitch": 66, "duration": 6, "velocity": 80}, {"time": 2166, "pitch": 57, "duration": 1, "velocity": 72}, {"time": 2169, "pitch": 57, "duration": 3, "velocity": 85}, {"time": 2169, "pitch": 62, "duration": 4, "velocity": 87}, {"time": 2172, "pitch": 50, "duration": 4, "velocity": 91}, {"time": 2175, "pitch": 57, "duration": 2, "velocity": 86}, {"time": 2175, "pitch": 60, "duration": 4, "velocity": 88}, {"time": 2181, "pitch": 55, "duration": 1, "velocity": 77}, {"time": 2184, "pitch": 43, "duration": 19, "velocity": 87}, {"time": 2184, "pitch": 55, "duration": 6, "velocity": 86}, {"time": 2184, "pitch": 59, "duration": 6, "velocity": 86}, {"time": 2190, "pitch": 50, "duration": 6, "velocity": 72}, {"time": 2196, "pitch": 55, "duration": 2, "velocity": 84}, {"time": 2196, "pitch": 59, "duration": 3, "velocity": 87}, {"time": 2196, "pitch": 62, "duration": 4, "velocity": 86}, {"time": 2199, "pitch": 50, "duration": 5, "velocity": 76}, {"time": 2202, "pitch": 55, "duration": 4, "velocity": 78}, {"time": 2205, "pitch": 59, "duration": 3, "velocity": 76}, {"time": 2208, "pitch": 57, "duration": 6, "velocity": 83}, {"time": 2208, "pitch": 61, "duration": 5, "velocity": 85}, {"time": 2208, "pitch": 43, "duration": 19, "velocity": 86}, {"time": 2214, "pitch": 52, "duration": 6, "velocity": 76}, {"time": 2220, "pitch": 57, "duration": 6, "velocity": 82}, {"time": 2220, "pitch": 61, "duration": 6, "velocity": 92}, {"time": 2220, "pitch": 64, "duration": 7, "velocity": 87}, {"time": 2226, "pitch": 52, "duration": 1, "velocity": 81}, {"time": 2232, "pitch": 42, "duration": 14, "velocity": 87}, {"time": 2232, "pitch": 57, "duration": 5, "velocity": 80}, {"time": 2232, "pitch": 61, "duration": 6, "velocity": 86}, {"time": 2238, "pitch": 49, "duration": 3, "velocity": 64}, {"time": 2241, "pitch": 57, "duration": 4, "velocity": 85}, {"time": 2241, "pitch": 61, "duration": 3, "velocity": 90}, {"time": 2241, "pitch": 66, "duration": 6, "velocity": 87}, {"time": 2244, "pitch": 46, "duration": 7, "velocity": 79}, {"time": 2247, "pitch": 61, "duration": 5, "velocity": 94}, {"time": 2250, "pitch": 58, "duration": 5, "velocity": 85}, {"time": 2256, "pitch": 47, "duration": 16, "velocity": 86}, {"time": 2256, "pitch": 57, "duration": 9, "velocity": 82}, {"time": 2256, "pitch": 62, "duration": 9, "velocity": 85}, {"time": 2262, "pitch": 54, "duration": 6, "velocity": 58}, {"time": 2268, "pitch": 57, "duration": 3, "velocity": 85}, {"time": 2268, "pitch": 62, "duration": 4, "velocity": 88}, {"time": 2268, "pitch": 66, "duration": 6, "velocity": 86}, {"time": 2271, "pitch": 54, "duration": 2, "velocity": 76}, {"time": 2274, "pitch": 47, "duration": 2, "velocity": 85}, {"time": 2280, "pitch": 40, "duration": 16, "velocity": 86}, {"time": 2280, "pitch": 59, "duration": 8, "velocity": 78}, {"time": 2280, "pitch": 64, "duration": 8, "velocity": 84}, {"time": 2286, "pitch": 47, "duration": 7, "velocity": 70}, {"time": 2292, "pitch": 59, "duration": 5, "velocity": 81}, {"time": 2292, "pitch": 64, "duration": 5, "velocity": 87}, {"time": 2292, "pitch": 67, "duration": 6, "velocity": 81}, {"time": 2304, "pitch": 45, "duration": 14, "velocity": 84}, {"time": 2304, "pitch": 55, "duration": 6, "velocity": 79}, {"time": 2304, "pitch": 61, "duration": 6, "velocity": 73}, {"time": 2310, "pitch": 52, "duration": 6, "velocity": 72}, {"time": 2316, "pitch": 57, "duration": 6, "velocity": 79}, {"time": 2316, "pitch": 61, "duration": 5, "velocity": 85}, {"time": 2316, "pitch": 64, "duration": 7, "velocity": 86}, {"time": 2328, "pitch": 38, "duration": 19, "velocity": 91}, {"time": 2328, "pitch": 54, "duration": 2, "velocity": 86}, {"time": 2328, "pitch": 57, "duration": 3, "velocity": 85}, {"time": 2334, "pitch": 45, "duration": 10, "velocity": 75}, {"time": 2337, "pitch": 57, "duration": 1, "velocity": 91}, {"time": 2343, "pitch": 57, "duration": 2, "velocity": 86}, {"time": 2343, "pitch": 62, "duration": 3, "velocity": 87}, {"time": 2346, "pitch": 45, "duration": 3, "velocity": 87}, {"time": 2352, "pitch": 40, "duration": 6, "velocity": 87}, {"time": 2352, "pitch": 52, "duration": 3, "velocity": 86}, {"time": 2352, "pitch": 64, "duration": 4, "velocity": 86}, {"time": 2355, "pitch": 47, "duration": 4, "velocity": 81}, {"time": 2358, "pitch": 52, "duration": 3, "velocity": 88}, {"time": 2364, "pitch": 42, "duration": 6, "velocity": 96}, {"time": 2364, "pitch": 54, "duration": 3, "velocity": 79}, {"time": 2364, "pitch": 57, "duration": 5, "velocity": 73}, {"time": 2367, "pitch": 49, "duration": 4, "velocity": 86}, {"time": 2370, "pitch": 54, "duration": 3, "velocity": 91}, {"time": 2373, "pitch": 57, "duration": 1, "velocity": 75}, {"time": 2376, "pitch": 43, "duration": 9, "velocity": 87}, {"time": 2376, "pitch": 55, "duration": 3, "velocity": 81}, {"time": 2376, "pitch": 62, "duration": 4, "velocity": 83}, {"time": 2379, "pitch": 50, "duration": 6, "velocity": 79}, {"time": 2382, "pitch": 55, "duration": 1, "velocity": 88}, {"time": 2385, "pitch": 55, "duration": 3, "velocity": 89}, {"time": 2385, "pitch": 59, "duration": 3, "velocity": 91}, {"time": 2385, "pitch": 62, "duration": 3, "velocity": 88}, {"time": 2391, "pitch": 55, "duration": 1, "velocity": 88}, {"time": 2391, "pitch": 62, "duration": 2, "velocity": 90}, {"time": 2400, "pitch": 45, "duration": 14, "velocity": 87}, {"time": 2400, "pitch": 57, "duration": 3, "velocity": 85}, {"time": 2400, "pitch": 61, "duration": 4, "velocity": 88}, {"time": 2403, "pitch": 52, "duration": 7, "velocity": 84}, {"time": 2406, "pitch": 57, "duration": 1, "velocity": 85}, {"time": 2409, "pitch": 57, "duration": 3, "velocity": 85}, {"time": 2409, "pitch": 64, "duration": 3, "velocity": 86}, {"time": 2412, "pitch": 52, "duration": 4, "velocity": 76}, {"time": 2412, "pitch": 69, "duration": 4, "velocity": 85}, {"time": 2415, "pitch": 57, "duration": 1, "velocity": 80}, {"time": 2415, "pitch": 61, "duration": 4, "velocity": 88}, {"time": 2415, "pitch": 64, "duration": 3, "velocity": 86}, {"time": 2418, "pitch": 57, "duration": 2, "velocity": 80}, {"time": 2424, "pitch": 42, "duration": 14, "velocity": 86}, {"time": 2424, "pitch": 57, "duration": 2, "velocity": 80}, {"time": 2424, "pitch": 61, "duration": 5, "velocity": 80}, {"time": 2427, "pitch": 49, "duration": 11, "velocity": 76}, {"time": 2430, "pitch": 57, "duration": 4, "velocity": 76}, {"time": 2433, "pitch": 61, "duration": 2, "velocity": 77}, {"time": 2439, "pitch": 57, "duration": 1, "velocity": 85}, {"time": 2439, "pitch": 61, "duration": 3, "velocity": 87}, {"time": 2439, "pitch": 66, "duration": 6, "velocity": 86}, {"time": 2442, "pitch": 57, "duration": 3, "velocity": 78}, {"time": 2445, "pitch": 61, "duration": 1, "velocity": 86}, {"time": 2448, "pitch": 47, "duration": 11, "velocity": 86}, {"time": 2448, "pitch": 59, "duration": 3, "velocity": 83}, {"time": 2448, "pitch": 62, "duration": 4, "velocity": 85}, {"time": 2451, "pitch": 54, "duration": 6, "velocity": 74}, {"time": 2454, "pitch": 57, "duration": 1, "velocity": 84}, {"time": 2457, "pitch": 57, "duration": 4, "velocity": 88}, {"time": 2457, "pitch": 62, "duration": 4, "velocity": 89}, {"time": 2457, "pitch": 66, "duration": 4, "velocity": 85}, {"time": 2460, "pitch": 54, "duration": 2, "velocity": 77}, {"time": 2463, "pitch": 57, "duration": 1, "velocity": 86}, {"time": 2463, "pitch": 62, "duration": 2, "velocity": 86}, {"time": 2472, "pitch": 40, "duration": 16, "velocity": 87}, {"time": 2472, "pitch": 59, "duration": 3, "velocity": 81}, {"time": 2472, "pitch": 64, "duration": 4, "velocity": 85}, {"time": 2475, "pitch": 47, "duration": 12, "velocity": 78}, {"time": 2478, "pitch": 59, "duration": 4, "velocity": 79}, {"time": 2481, "pitch": 64, "duration": 2, "velocity": 83}, {"time": 2484, "pitch": 67, "duration": 3, "velocity": 87}, {"time": 2487, "pitch": 64, "duration": 2, "velocity": 94}, {"time": 2490, "pitch": 59, "duration": 3, "velocity": 87}, {"time": 2493, "pitch": 64, "duration": 1, "velocity": 85}, {"time": 2496, "pitch": 42, "duration": 15, "velocity": 89}, {"time": 2496, "pitch": 57, "duration": 3, "velocity": 79}, {"time": 2496, "pitch": 61, "duration": 5, "velocity": 87}, {"time": 2499, "pitch": 49, "duration": 12, "velocity": 87}, {"time": 2502, "pitch": 57, "duration": 4, "velocity": 83}, {"time": 2505, "pitch": 61, "duration": 2, "velocity": 92}, {"time": 2511, "pitch": 57, "duration": 2, "velocity": 81}, {"time": 2511, "pitch": 61, "duration": 4, "velocity": 89}, {"time": 2511, "pitch": 66, "duration": 5, "velocity": 87}, {"time": 2514, "pitch": 49, "duration": 1, "velocity": 85}, {"time": 2517, "pitch": 57, "duration": 1, "velocity": 78}, {"time": 2520, "pitch": 43, "duration": 9, "velocity": 86}, {"time": 2520, "pitch": 55, "duration": 4, "velocity": 80}, {"time": 2520, "pitch": 59, "duration": 4, "velocity": 86}, {"time": 2526, "pitch": 55, "duration": 3, "velocity": 83}, {"time": 2526, "pitch": 59, "duration": 4, "velocity": 85}, {"time": 2532, "pitch": 43, "duration": 7, "velocity": 87}, {"time": 2532, "pitch": 50, "duration": 7, "velocity": 87}, {"time": 2532, "pitch": 55, "duration": 3, "velocity": 85}, {"time": 2532, "pitch": 59, "duration": 7, "velocity": 85}, {"time": 2532, "pitch": 62, "duration": 7, "velocity": 85}, {"time": 2538, "pitch": 55, "duration": 3, "velocity": 88}, {"time": 2544, "pitch": 45, "duration": 51, "velocity": 86}, {"time": 2546, "pitch": 52, "duration": 48, "velocity": 86}, {"time": 2549, "pitch": 57, "duration": 4, "velocity": 87}, {"time": 2552, "pitch": 62, "duration": 3, "velocity": 89}, {"time": 2555, "pitch": 64, "duration": 3, "velocity": 91}, {"time": 2558, "pitch": 69, "duration": 3, "velocity": 87}, {"time": 2560, "pitch": 57, "duration": 2, "velocity": 85}, {"time": 2566, "pitch": 69, "duration": 2, "velocity": 71}, {"time": 2567, "pitch": 73, "duration": 1, "velocity": 69}, {"time": 2568, "pitch": 76, "duration": 1, "velocity": 76}, {"time": 2568, "pitch": 81, "duration": 2, "velocity": 89}, {"time": 2614, "pitch": 55, "duration": 10, "velocity": 71}, {"time": 2615, "pitch": 59, "duration": 15, "velocity": 76}, {"time": 2615, "pitch": 43, "duration": 18, "velocity": 85}, {"time": 2616, "pitch": 62, "duration": 16, "velocity": 74}, {"time": 2622, "pitch": 50, "duration": 10, "velocity": 57}, {"time": 2628, "pitch": 55, "duration": 3, "velocity": 68}, {"time": 2638, "pitch": 57, "duration": 8, "velocity": 59}, {"time": 2639, "pitch": 61, "duration": 10, "velocity": 73}, {"time": 2640, "pitch": 45, "duration": 14, "velocity": 77}, {"time": 2640, "pitch": 64, "duration": 12, "velocity": 76}, {"time": 2645, "pitch": 52, "duration": 9, "velocity": 71}, {"time": 2652, "pitch": 57, "duration": 3, "velocity": 81}, {"time": 2661, "pitch": 57, "duration": 4, "velocity": 68}, {"time": 2662, "pitch": 61, "duration": 3, "velocity": 72}, {"time": 2663, "pitch": 66, "duration": 3, "velocity": 73}, {"time": 2663, "pitch": 42, "duration": 13, "velocity": 80}, {"time": 2664, "pitch": 69, "duration": 9, "velocity": 85}, {"time": 2666, "pitch": 49, "duration": 11, "velocity": 74}, {"time": 2670, "pitch": 57, "duration": 7, "velocity": 79}, {"time": 2673, "pitch": 61, "duration": 5, "velocity": 85}, {"time": 2676, "pitch": 66, "duration": 4, "velocity": 73}, {"time": 2686, "pitch": 57, "duration": 10, "velocity": 69}, {"time": 2687, "pitch": 62, "duration": 12, "velocity": 74}, {"time": 2687, "pitch": 47, "duration": 15, "velocity": 79}, {"time": 2693, "pitch": 54, "duration": 7, "velocity": 60}, {"time": 2699, "pitch": 57, "duration": 2, "velocity": 74}, {"time": 2711, "pitch": 59, "duration": 9, "velocity": 78}, {"time": 2711, "pitch": 40, "duration": 15, "velocity": 90}, {"time": 2711, "pitch": 64, "duration": 13, "velocity": 82}, {"time": 2711, "pitch": 67, "duration": 13, "velocity": 81}, {"time": 2717, "pitch": 47, "duration": 8, "velocity": 53}, {"time": 2723, "pitch": 59, "duration": 3, "velocity": 80}, {"time": 2736, "pitch": 45, "duration": 17, "velocity": 87}, {"time": 2739, "pitch": 52, "duration": 13, "velocity": 85}, {"time": 2741, "pitch": 57, "duration": 7, "velocity": 87}, {"time": 2744, "pitch": 61, "duration": 4, "velocity": 92}, {"time": 2747, "pitch": 64, "duration": 4, "velocity": 86}, {"time": 2750, "pitch": 69, "duration": 5, "velocity": 89}, {"time": 2753, "pitch": 57, "duration": 3, "velocity": 81}, {"time": 2759, "pitch": 38, "duration": 14, "velocity": 87}, {"time": 2759, "pitch": 57, "duration": 5, "velocity": 84}, {"time": 2759, "pitch": 62, "duration": 9, "velocity": 84}, {"time": 2765, "pitch": 45, "duration": 7, "velocity": 73}, {"time": 2771, "pitch": 57, "duration": 3, "velocity": 85}, {"time": 2771, "pitch": 66, "duration": 5, "velocity": 88}, {"time": 2771, "pitch": 62, "duration": 3, "velocity": 88}, {"time": 2783, "pitch": 66, "duration": 5, "velocity": 91}, {"time": 2783, "pitch": 60, "duration": 4, "velocity": 90}, {"time": 2783, "pitch": 50, "duration": 14, "velocity": 91}, {"time": 2786, "pitch": 57, "duration": 10, "velocity": 86}, {"time": 2789, "pitch": 60, "duration": 4, "velocity": 86}, {"time": 2792, "pitch": 66, "duration": 2, "velocity": 92}, {"time": 2796, "pitch": 66, "duration": 3, "velocity": 92}, {"time": 2796, "pitch": 69, "duration": 3, "velocity": 92}, {"time": 2796, "pitch": 62, "duration": 3, "velocity": 96}, {"time": 2798, "pitch": 57, "duration": 7, "velocity": 89}, {"time": 2799, "pitch": 50, "duration": 4, "velocity": 61}, {"time": 2801, "pitch": 66, "duration": 5, "velocity": 99}, {"time": 2801, "pitch": 69, "duration": 6, "velocity": 94}, {"time": 2801, "pitch": 74, "duration": 6, "velocity": 90}, {"time": 2801, "pitch": 62, "duration": 1, "velocity": 89}, {"time": 2804, "pitch": 62, "duration": 3, "velocity": 85}, {"time": 2808, "pitch": 43, "duration": 19, "velocity": 87}, {"time": 2808, "pitch": 55, "duration": 6, "velocity": 86}, {"time": 2808, "pitch": 59, "duration": 6, "velocity": 86}, {"time": 2814, "pitch": 50, "duration": 6, "velocity": 72}, {"time": 2820, "pitch": 55, "duration": 2, "velocity": 84}, {"time": 2820, "pitch": 59, "duration": 3, "velocity": 87}, {"time": 2820, "pitch": 62, "duration": 4, "velocity": 86}, {"time": 2823, "pitch": 50, "duration": 5, "velocity": 76}, {"time": 2826, "pitch": 55, "duration": 4, "velocity": 78}, {"time": 2829, "pitch": 59, "duration": 3, "velocity": 76}, {"time": 2832, "pitch": 57, "duration": 6, "velocity": 83}, {"time": 2832, "pitch": 61, "duration": 5, "velocity": 85}, {"time": 2832, "pitch": 43, "duration": 19, "velocity": 86}, {"time": 2838, "pitch": 52, "duration": 6, "velocity": 76}, {"time": 2844, "pitch": 57, "duration": 6, "velocity": 82}, {"time": 2844, "pitch": 61, "duration": 6, "velocity": 92}, {"time": 2844, "pitch": 64, "duration": 7, "velocity": 87}, {"time": 2850, "pitch": 52, "duration": 1, "velocity": 81}, {"time": 2856, "pitch": 42, "duration": 14, "velocity": 87}, {"time": 2856, "pitch": 57, "duration": 5, "velocity": 80}, {"time": 2856, "pitch": 61, "duration": 6, "velocity": 86}, {"time": 2862, "pitch": 49, "duration": 3, "velocity": 64}, {"time": 2865, "pitch": 57, "duration": 4, "velocity": 85}, {"time": 2865, "pitch": 61, "duration": 3, "velocity": 90}, {"time": 2865, "pitch": 66, "duration": 6, "velocity": 87}, {"time": 2868, "pitch": 46, "duration": 7, "velocity": 79}, {"time": 2871, "pitch": 61, "duration": 5, "velocity": 94}, {"time": 2874, "pitch": 58, "duration": 5, "velocity": 85}, {"time": 2880, "pitch": 47, "duration": 16, "velocity": 86}, {"time": 2880, "pitch": 57, "duration": 9, "velocity": 82}, {"time": 2880, "pitch": 62, "duration": 9, "velocity": 85}, {"time": 2886, "pitch": 54, "duration": 6, "velocity": 58}, {"time": 2892, "pitch": 57, "duration": 3, "velocity": 85}, {"time": 2892, "pitch": 62, "duration": 4, "velocity": 88}, {"time": 2892, "pitch": 66, "duration": 6, "velocity": 86}, {"time": 2895, "pitch": 54, "duration": 2, "velocity": 76}, {"time": 2898, "pitch": 47, "duration": 2, "velocity": 85}, {"time": 2904, "pitch": 40, "duration": 16, "velocity": 86}, {"time": 2904, "pitch": 59, "duration": 8, "velocity": 78}, {"time": 2904, "pitch": 64, "duration": 8, "velocity": 84}, {"time": 2910, "pitch": 47, "duration": 7, "velocity": 70}, {"time": 2916, "pitch": 59, "duration": 5, "velocity": 81}, {"time": 2916, "pitch": 64, "duration": 5, "velocity": 87}, {"time": 2916, "pitch": 67, "duration": 6, "velocity": 81}, {"time": 2928, "pitch": 45, "duration": 14, "velocity": 84}, {"time": 2928, "pitch": 55, "duration": 6, "velocity": 79}, {"time": 2928, "pitch": 61, "duration": 6, "velocity": 73}, {"time": 2934, "pitch": 52, "duration": 6, "velocity": 72}, {"time": 2940, "pitch": 57, "duration": 6, "velocity": 79}, {"time": 2940, "pitch": 61, "duration": 5, "velocity": 85}, {"time": 2940, "pitch": 64, "duration": 7, "velocity": 86}, {"time": 2950, "pitch": 50, "duration": 3, "velocity": 71}, {"time": 2950, "pitch": 54, "duration": 3, "velocity": 75}, {"time": 2951, "pitch": 38, "duration": 22, "velocity": 86}, {"time": 2951, "pitch": 57, "duration": 2, "velocity": 62}, {"time": 2952, "pitch": 62, "duration": 6, "velocity": 83}, {"time": 2957, "pitch": 45, "duration": 16, "velocity": 69}, {"time": 2963, "pitch": 57, "duration": 7, "velocity": 79}, {"time": 2969, "pitch": 62, "duration": 9, "velocity": 80}, {"time": 2973, "pitch": 57, "duration": 5, "velocity": 32}, {"time": 2975, "pitch": 38, "duration": 16, "velocity": 85}, {"time": 2976, "pitch": 66, "duration": 21, "velocity": 77}, {"time": 2982, "pitch": 45, "duration": 7, "velocity": 53}, {"time": 2988, "pitch": 62, "duration": 9, "velocity": 77}, {"time": 3000, "pitch": 40, "duration": 18, "velocity": 85}, {"time": 3004, "pitch": 47, "duration": 13, "velocity": 75}, {"time": 3006, "pitch": 52, "duration": 18, "velocity": 79}, {"time": 3009, "pitch": 55, "duration": 17, "velocity": 77}, {"time": 3011, "pitch": 59, "duration": 16, "velocity": 72}, {"time": 3014, "pitch": 64, "duration": 13, "velocity": 70}, {"time": 3034, "pitch": 45, "duration": 39, "velocity": 87}, {"time": 3037, "pitch": 52, "duration": 34, "velocity": 80}, {"time": 3040, "pitch": 57, "duration": 17, "velocity": 75}, {"time": 3043, "pitch": 64, "duration": 43, "velocity": 72}, {"time": 3048, "pitch": 69, "duration": 39, "velocity": 65}, {"time": 3087, "pitch": 43, "duration": 39, "velocity": 83}, {"time": 3090, "pitch": 50, "duration": 35, "velocity": 76}, {"time": 3093, "pitch": 55, "duration": 9, "velocity": 79}, {"time": 3096, "pitch": 62, "duration": 10, "velocity": 77}, {"time": 3102, "pitch": 67, "duration": 6, "velocity": 80}, {"time": 3105, "pitch": 55, "duration": 3, "velocity": 75}, {"time": 3111, "pitch": 55, "duration": 13, "velocity": 63}, {"time": 3111, "pitch": 59, "duration": 13, "velocity": 55}, {"time": 3111, "pitch": 62, "duration": 13, "velocity": 69}, {"time": 3135, "pitch": 42, "duration": 16, "velocity": 78}, {"time": 3138, "pitch": 49, "duration": 13, "velocity": 66}, {"time": 3141, "pitch": 54, "duration": 11, "velocity": 76}, {"time": 3144, "pitch": 57, "duration": 8, "velocity": 76}, {"time": 3159, "pitch": 47, "duration": 17, "velocity": 85}, {"time": 3159, "pitch": 62, "duration": 7, "velocity": 82}, {"time": 3162, "pitch": 54, "duration": 12, "velocity": 74}, {"time": 3165, "pitch": 57, "duration": 6, "velocity": 84}, {"time": 3168, "pitch": 62, "duration": 5, "velocity": 80}, {"time": 3174, "pitch": 62, "duration": 1, "velocity": 74}, {"time": 3174, "pitch": 66, "duration": 3, "velocity": 75}, {"time": 3183, "pitch": 40, "duration": 19, "velocity": 86}, {"time": 3183, "pitch": 59, "duration": 5, "velocity": 75}, {"time": 3183, "pitch": 67, "duration": 9, "velocity": 66}, {"time": 3186, "pitch": 47, "duration": 15, "velocity": 73}, {"time": 3189, "pitch": 59, "duration": 10, "velocity": 73}, {"time": 3192, "pitch": 64, "duration": 7, "velocity": 85}, {"time": 3198, "pitch": 67, "duration": 13, "velocity": 79}, {"time": 3201, "pitch": 59, "duration": 7, "velocity": 73}, {"time": 3207, "pitch": 45, "duration": 21, "velocity": 82}, {"time": 3210, "pitch": 52, "duration": 17, "velocity": 73}, {"time": 3213, "pitch": 55, "duration": 6, "velocity": 80}, {"time": 3216, "pitch": 61, "duration": 3, "velocity": 80}, {"time": 3219, "pitch": 64, "duration": 7, "velocity": 80}, {"time": 3231, "pitch": 50, "duration": 21, "velocity": 77}, {"time": 3231, "pitch": 57, "duration": 3, "velocity": 69}, {"time": 3231, "pitch": 62, "duration": 19, "velocity": 73}, {"time": 3237, "pitch": 57, "duration": 8, "velocity": 69}, {"time": 3243, "pitch": 67, "duration": 7, "velocity": 77}, {"time": 3249, "pitch": 57, "duration": 7, "velocity": 72}, {"time": 3255, "pitch": 50, "duration": 23, "velocity": 79}, {"time": 3257, "pitch": 57, "duration": 3, "velocity": 59}, {"time": 3257, "pitch": 62, "duration": 26, "velocity": 75}, {"time": 3258, "pitch": 69, "duration": 26, "velocity": 74}], "annotations": [{"time": 120, "annotation": {"number": 64, "value": 127}, "group": "control_change"}, {"time": 167, "annotation": {"number": 64, "value": 0}, "group": "control_change"}, {"time": 169, "annotation": {"number": 64, "value": 127}, "group": "control_change"}, {"time": 190, "annotation": {"number": 64, "value": 0}, "group": "control_change"}, {"time": 195, "annotation": {"number": 64, "value": 127}, "group": "control_change"}, {"time": 215, "annotation": {"number": 64, "value": 0}, "group": "control_change"}, {"time": 217, "annotation": {"number": 64, "value": 127}, "group": "control_change"}, {"time": 238, "annotation": {"number": 64, "value": 0}, "group": "control_change"}, {"time": 241, "annotation": {"number": 64, "value": 127}, "group": "control_change"}, {"time": 262, "annotation": {"number": 64, "value": 0}, "group": "control_change"}, {"time": 264, "annotation": {"number": 64, "value": 127}, "group": "control_change"}, {"time": 285, "annotation": {"number": 64, "value": 0}, "group": "control_change"}, {"time": 287, "annotation": {"number": 64, "value": 127}, "group": "control_change"}, {"time": 311, "annotation": {"number": 64, "value": 0}, "group": "control_change"}, {"time": 312, "annotation": {"number": 64, "value": 127}, "group": "control_change"}, {"time": 339, "annotation": {"number": 64, "value": 0}, "group": "control_change"}, {"time": 342, "annotation": {"number": 64, "value": 127}, "group": "control_change"}, {"time": 360, "annotation": {"number": 64, "value": 0}, "group": "control_change"}, {"time": 363, "annotation": {"number": 64, "value": 127}, "group": "control_change"}, {"time": 407, "annotation": {"number": 64, "value": 0}, "group": "control_change"}, {"time": 413, "annotation": {"number": 64, "value": 127}, "group": "control_change"}, {"time": 456, "annotation": {"number": 64, "value": 0}, "group": "control_change"}, {"time": 462, "annotation": {"number": 64, "value": 127}, "group": "control_change"}, {"time": 503, "annotation": {"number": 64, "value": 127}, "group": "control_change"}, {"time": 504, "annotation": {"number": 64, "value": 0}, "group": "control_change"}, {"time": 538, "annotation": {"number": 64, "value": 0}, "group": "control_change"}, {"time": 540, "annotation": {"number": 64, "value": 127}, "group": "control_change"}, {"time": 551, "annotation": {"number": 64, "value": 0}, "group": "control_change"}, {"time": 553, "annotation": {"number": 64, "value": 127}, "group": "control_change"}, {"time": 575, "annotation": {"number": 64, "value": 0}, "group": "control_change"}, {"time": 577, "annotation": {"number": 64, "value": 127}, "group": "control_change"}, {"time": 598, "annotation": {"number": 64, "value": 0}, "group": "control_change"}, {"time": 601, "annotation": {"number": 64, "value": 127}, "group": "control_change"}, {"time": 647, "annotation": {"number": 64, "value": 0}, "group": "control_change"}, {"time": 651, "annotation": {"number": 64, "value": 127}, "group": "control_change"}, {"time": 670, "annotation": {"number": 64, "value": 0}, "group": "control_change"}, {"time": 671, "annotation": {"number": 64, "value": 127}, "group": "control_change"}, {"time": 682, "annotation": {"number": 64, "value": 0}, "group": "control_change"}, {"time": 683, "annotation": {"number": 64, "value": 127}, "group": "control_change"}, {"time": 695, "annotation": {"number": 64, "value": 0}, "group": "control_change"}, {"time": 696, "annotation": {"number": 64, "value": 127}, "group": "control_change"}, {"time": 742, "annotation": {"number": 64, "value": 0}, "group": "control_change"}, {"time": 744, "annotation": {"number": 64, "value": 127}, "group": "control_change"}, {"time": 790, "annotation": {"number": 64, "value": 0}, "group": "control_change"}, {"time": 792, "annotation": {"number": 64, "value": 127}, "group": "control_change"}, {"time": 838, "annotation": {"number": 64, "value": 0}, "group": "control_change"}, {"time": 840, "annotation": {"number": 64, "value": 127}, "group": "control_change"}, {"time": 862, "annotation": {"number": 64, "value": 0}, "group": "control_change"}, {"time": 864, "annotation": {"number": 64, "value": 127}, "group": "control_change"}, {"time": 874, "annotation": {"number": 64, "value": 0}, "group": "control_change"}, {"time": 876, "annotation": {"number": 64, "value": 127}, "group": "control_change"}, {"time": 886, "annotation": {"number": 64, "value": 0}, "group": "control_change"}, {"time": 888, "annotation": {"number": 64, "value": 127}, "group": "control_change"}, {"time": 911, "annotation": {"number": 64, "value": 0}, "group": "control_change"}, {"time": 913, "annotation": {"number": 64, "value": 127}, "group": "control_change"}, {"time": 933, "annotation": {"number": 64, "value": 0}, "group": "control_change"}, {"time": 936, "annotation": {"number": 64, "value": 127}, "group": "control_change"}, {"time": 958, "annotation": {"number": 64, "value": 0}, "group": "control_change"}, {"time": 960, "annotation": {"number": 64, "value": 127}, "group": "control_change"}, {"time": 983, "annotation": {"number": 64, "value": 0}, "group": "control_change"}, {"time": 984, "annotation": {"number": 64, "value": 127}, "group": "control_change"}, {"time": 1006, "annotation": {"number": 64, "value": 0}, "group": "control_change"}, {"time": 1007, "annotation": {"number": 64, "value": 127}, "group": "control_change"}, {"time": 1030, "annotation": {"number": 64, "value": 0}, "group": "control_change"}, {"time": 1032, "annotation": {"number": 64, "value": 127}, "group": "control_change"}, {"time": 1054, "annotation": {"number": 64, "value": 0}, "group": "control_change"}, {"time": 1055, "annotation": {"number": 64, "value": 127}, "group": "control_change"}, {"time": 1077, "annotation": {"number": 64, "value": 0}, "group": "control_change"}, {"time": 1080, "annotation": {"number": 64, "value": 127}, "group": "control_change"}, {"time": 1102, "annotation": {"number": 64, "value": 0}, "group": "control_change"}, {"time": 1104, "annotation": {"number": 64, "value": 127}, "group": "control_change"}, {"time": 1125, "annotation": {"number": 64, "value": 0}, "group": "control_change"}, {"time": 1127, "annotation": {"number": 64, "value": 127}, "group": "control_change"}, {"time": 1150, "annotation": {"number": 64, "value": 0}, "group": "control_change"}, {"time": 1152, "annotation": {"number": 64, "value": 127}, "group": "control_change"}, {"time": 1174, "annotation": {"number": 64, "value": 0}, "group": "control_change"}, {"time": 1176, "annotation": {"number": 64, "value": 127}, "group": "control_change"}, {"time": 1198, "annotation": {"number": 64, "value": 0}, "group": "control_change"}, {"time": 1201, "annotation": {"number": 64, "value": 127}, "group": "control_change"}, {"time": 1222, "annotation": {"number": 64, "value": 0}, "group": "control_change"}, {"time": 1223, "annotation": {"number": 64, "value": 127}, "group": "control_change"}, {"time": 1245, "annotation": {"number": 64, "value": 0}, "group": "control_change"}, {"time": 1247, "annotation": {"number": 64, "value": 127}, "group": "control_change"}, {"time": 1270, "annotation": {"number": 64, "value": 0}, "group": "control_change"}, {"time": 1272, "annotation": {"number": 64, "value": 127}, "group": "control_change"}, {"time": 1294, "annotation": {"number": 64, "value": 0}, "group": "control_change"}, {"time": 1296, "annotation": {"number": 64, "value": 127}, "group": "control_change"}, {"time": 1318, "annotation": {"number": 64, "value": 0}, "group": "control_change"}, {"time": 1320, "annotation": {"number": 64, "value": 127}, "group": "control_change"}, {"time": 1342, "annotation": {"number": 64, "value": 0}, "group": "control_change"}, {"time": 1344, "annotation": {"number": 64, "value": 127}, "group": "control_change"}, {"time": 1366, "annotation": {"number": 64, "value": 0}, "group": "control_change"}, {"time": 1368, "annotation": {"number": 64, "value": 127}, "group": "control_change"}, {"time": 1390, "annotation": {"number": 64, "value": 0}, "group": "control_change"}, {"time": 1392, "annotation": {"number": 64, "value": 127}, "group": "control_change"}, {"time": 1415, "annotation": {"number": 64, "value": 0}, "group": "control_change"}, {"time": 1418, "annotation": {"number": 64, "value": 127}, "group": "control_change"}, {"time": 1462, "annotation": {"number": 64, "value": 0}, "group": "control_change"}, {"time": 1464, "annotation": {"number": 64, "value": 127}, "group": "control_change"}, {"time": 1486, "annotation": {"number": 64, "value": 0}, "group": "control_change"}, {"time": 1488, "annotation": {"number": 64, "value": 127}, "group": "control_change"}, {"time": 1510, "annotation": {"number": 64, "value": 0}, "group": "control_change"}, {"time": 1512, "annotation": {"number": 64, "value": 127}, "group": "control_change"}, {"time": 1535, "annotation": {"number": 64, "value": 0}, "group": "control_change"}, {"time": 1537, "annotation": {"number": 64, "value": 127}, "group": "control_change"}, {"time": 1558, "annotation": {"number": 64, "value": 0}, "group": "control_change"}, {"time": 1560, "annotation": {"number": 64, "value": 127}, "group": "control_change"}, {"time": 1582, "annotation": {"number": 64, "value": 0}, "group": "control_change"}, {"time": 1593, "annotation": {"number": 64, "value": 127}, "group": "control_change"}, {"time": 1605, "annotation": {"number": 64, "value": 0}, "group": "control_change"}, {"time": 1608, "annotation": {"number": 64, "value": 127}, "group": "control_change"}, {"time": 1654, "annotation": {"number": 64, "value": 0}, "group": "control_change"}, {"time": 1656, "annotation": {"number": 64, "value": 127}, "group": "control_change"}, {"time": 1702, "annotation": {"number": 64, "value": 0}, "group": "control_change"}, {"time": 1704, "annotation": {"number": 64, "value": 127}, "group": "control_change"}, {"time": 1750, "annotation": {"number": 64, "value": 0}, "group": "control_change"}, {"time": 1752, "annotation": {"number": 64, "value": 127}, "group": "control_change"}, {"time": 1774, "annotation": {"number": 64, "value": 0}, "group": "control_change"}, {"time": 1776, "annotation": {"number": 64, "value": 127}, "group": "control_change"}, {"time": 1786, "annotation": {"number": 64, "value": 0}, "group": "control_change"}, {"time": 1788, "annotation": {"number": 64, "value": 127}, "group": "control_change"}, {"time": 1798, "annotation": {"number": 64, "value": 0}, "group": "control_change"}, {"time": 1800, "annotation": {"number": 64, "value": 127}, "group": "control_change"}, {"time": 1823, "annotation": {"number": 64, "value": 0}, "group": "control_change"}, {"time": 1825, "annotation": {"number": 64, "value": 127}, "group": "control_change"}, {"time": 1845, "annotation": {"number": 64, "value": 0}, "group": "control_change"}, {"time": 1848, "annotation": {"number": 64, "value": 127}, "group": "control_change"}, {"time": 1870, "annotation": {"number": 64, "value": 0}, "group": "control_change"}, {"time": 1872, "annotation": {"number": 64, "value": 127}, "group": "control_change"}, {"time": 1895, "annotation": {"number": 64, "value": 0}, "group": "control_change"}, {"time": 1896, "annotation": {"number": 64, "value": 127}, "group": "control_change"}, {"time": 1918, "annotation": {"number": 64, "value": 0}, "group": "control_change"}, {"time": 1919, "annotation": {"number": 64, "value": 127}, "group": "control_change"}, {"time": 1942, "annotation": {"number": 64, "value": 0}, "group": "control_change"}, {"time": 1944, "annotation": {"number": 64, "value": 127}, "group": "control_change"}, {"time": 1966, "annotation": {"number": 64, "value": 0}, "group": "control_change"}, {"time": 1967, "annotation": {"number": 64, "value": 127}, "group": "control_change"}, {"time": 1989, "annotation": {"number": 64, "value": 0}, "group": "control_change"}, {"time": 1992, "annotation": {"number": 64, "value": 127}, "group": "control_change"}, {"time": 2014, "annotation": {"number": 64, "value": 0}, "group": "control_change"}, {"time": 2016, "annotation": {"number": 64, "value": 127}, "group": "control_change"}, {"time": 2037, "annotation": {"number": 64, "value": 0}, "group": "control_change"}, {"time": 2039, "annotation": {"number": 64, "value": 127}, "group": "control_change"}, {"time": 2062, "annotation": {"number": 64, "value": 0}, "group": "control_change"}, {"time": 2064, "annotation": {"number": 64, "value": 127}, "group": "control_change"}, {"time": 2086, "annotation": {"number": 64, "value": 0}, "group": "control_change"}, {"time": 2088, "annotation": {"number": 64, "value": 127}, "group": "control_change"}, {"time": 2110, "annotation": {"number": 64, "value": 0}, "group": "control_change"}, {"time": 2113, "annotation": {"number": 64, "value": 127}, "group": "control_change"}, {"time": 2134, "annotation": {"number": 64, "value": 0}, "group": "control_change"}, {"time": 2135, "annotation": {"number": 64, "value": 127}, "group": "control_change"}, {"time": 2157, "annotation": {"number": 64, "value": 0}, "group": "control_change"}, {"time": 2159, "annotation": {"number": 64, "value": 127}, "group": "control_change"}, {"time": 2182, "annotation": {"number": 64, "value": 0}, "group": "control_change"}, {"time": 2184, "annotation": {"number": 64, "value": 127}, "group": "control_change"}, {"time": 2206, "annotation": {"number": 64, "value": 0}, "group": "control_change"}, {"time": 2208, "annotation": {"number": 64, "value": 127}, "group": "control_change"}, {"time": 2230, "annotation": {"number": 64, "value": 0}, "group": "control_change"}, {"time": 2232, "annotation": {"number": 64, "value": 127}, "group": "control_change"}, {"time": 2254, "annotation": {"number": 64, "value": 0}, "group": "control_change"}, {"time": 2256, "annotation": {"number": 64, "value": 127}, "group": "control_change"}, {"time": 2278, "annotation": {"number": 64, "value": 0}, "group": "control_change"}, {"time": 2280, "annotation": {"number": 64, "value": 127}, "group": "control_change"}, {"time": 2302, "annotation": {"number": 64, "value": 0}, "group": "control_change"}, {"time": 2304, "annotation": {"number": 64, "value": 127}, "group": "control_change"}, {"time": 2327, "annotation": {"number": 64, "value": 0}, "group": "control_change"}, {"time": 2350, "annotation": {"number": 64, "value": 0}, "group": "control_change"}, {"time": 2352, "annotation": {"number": 64, "value": 127}, "group": "control_change"}, {"time": 2362, "annotation": {"number": 64, "value": 0}, "group": "control_change"}, {"time": 2364, "annotation": {"number": 64, "value": 127}, "group": "control_change"}, {"time": 2374, "annotation": {"number": 64, "value": 0}, "group": "control_change"}, {"time": 2375, "annotation": {"number": 64, "value": 127}, "group": "control_change"}, {"time": 2397, "annotation": {"number": 64, "value": 0}, "group": "control_change"}, {"time": 2399, "annotation": {"number": 64, "value": 127}, "group": "control_change"}, {"time": 2422, "annotation": {"number": 64, "value": 0}, "group": "control_change"}, {"time": 2424, "annotation": {"number": 64, "value": 127}, "group": "control_change"}, {"time": 2446, "annotation": {"number": 64, "value": 0}, "group": "control_change"}, {"time": 2448, "annotation": {"number": 64, "value": 127}, "group": "control_change"}, {"time": 2469, "annotation": {"number": 64, "value": 0}, "group": "control_change"}, {"time": 2471, "annotation": {"number": 64, "value": 127}, "group": "control_change"}, {"time": 2494, "annotation": {"number": 64, "value": 0}, "group": "control_change"}, {"time": 2496, "annotation": {"number": 64, "value": 127}, "group": "control_change"}, {"time": 2518, "annotation": {"number": 64, "value": 0}, "group": "control_change"}, {"time": 2520, "annotation": {"number": 64, "value": 127}, "group": "control_change"}, {"time": 2543, "annotation": {"number": 64, "value": 0}, "group": "control_change"}, {"time": 2544, "annotation": {"number": 64, "value": 127}, "group": "control_change"}, {"time": 2613, "annotation": {"number": 64, "value": 0}, "group": "control_change"}, {"time": 2617, "annotation": {"number": 64, "value": 127}, "group": "control_change"}, {"time": 2639, "annotation": {"number": 64, "value": 0}, "group": "control_change"}, {"time": 2643, "annotation": {"number": 64, "value": 127}, "group": "control_change"}, {"time": 2644, "annotation": {"number": 64, "value": 0}, "group": "control_change"}, {"time": 2644, "annotation": {"number": 64, "value": 127}, "group": "control_change"}, {"time": 2662, "annotation": {"number": 64, "value": 0}, "group": "control_change"}, {"time": 2664, "annotation": {"number": 64, "value": 127}, "group": "control_change"}, {"time": 2687, "annotation": {"number": 64, "value": 0}, "group": "control_change"}, {"time": 2689, "annotation": {"number": 64, "value": 127}, "group": "control_change"}, {"time": 2710, "annotation": {"number": 64, "value": 0}, "group": "control_change"}, {"time": 2712, "annotation": {"number": 64, "value": 127}, "group": "control_change"}, {"time": 2735, "annotation": {"number": 64, "value": 0}, "group": "control_change"}, {"time": 2737, "annotation": {"number": 64, "value": 127}, "group": "control_change"}, {"time": 2758, "annotation": {"number": 64, "value": 0}, "group": "control_change"}, {"time": 2759, "annotation": {"number": 64, "value": 127}, "group": "control_change"}, {"time": 2782, "annotation": {"number": 64, "value": 0}, "group": "control_change"}, {"time": 2784, "annotation": {"number": 64, "value": 127}, "group": "control_change"}, {"time": 2805, "annotation": {"number": 64, "value": 0}, "group": "control_change"}, {"time": 2808, "annotation": {"number": 64, "value": 127}, "group": "control_change"}, {"time": 2830, "annotation": {"number": 64, "value": 0}, "group": "control_change"}, {"time": 2832, "annotation": {"number": 64, "value": 127}, "group": "control_change"}, {"time": 2854, "annotation": {"number": 64, "value": 0}, "group": "control_change"}, {"time": 2856, "annotation": {"number": 64, "value": 127}, "group": "control_change"}, {"time": 2878, "annotation": {"number": 64, "value": 0}, "group": "control_change"}, {"time": 2880, "annotation": {"number": 64, "value": 127}, "group": "control_change"}, {"time": 2902, "annotation": {"number": 64, "value": 0}, "group": "control_change"}, {"time": 2904, "annotation": {"number": 64, "value": 127}, "group": "control_change"}, {"time": 2926, "annotation": {"number": 64, "value": 0}, "group": "control_change"}, {"time": 2928, "annotation": {"number": 64, "value": 127}, "group": "control_change"}, {"time": 2950, "annotation": {"number": 64, "value": 127}, "group": "control_change"}, {"time": 2951, "annotation": {"number": 64, "value": 0}, "group": "control_change"}, {"time": 2974, "annotation": {"number": 64, "value": 0}, "group": "control_change"}, {"time": 2976, "annotation": {"number": 64, "value": 127}, "group": "control_change"}, {"time": 3000, "annotation": {"number": 64, "value": 0}, "group": "control_change"}, {"time": 3003, "annotation": {"number": 64, "value": 127}, "group": "control_change"}, {"time": 3034, "annotation": {"number": 64, "value": 0}, "group": "control_change"}, {"time": 3037, "annotation": {"number": 64, "value": 127}, "group": "control_change"}, {"time": 3081, "annotation": {"number": 64, "value": 0}, "group": "control_change"}, {"time": 3088, "annotation": {"number": 64, "value": 127}, "group": "control_change"}, {"time": 3135, "annotation": {"number": 64, "value": 0}, "group": "control_change"}, {"time": 3136, "annotation": {"number": 64, "value": 127}, "group": "control_change"}, {"time": 3158, "annotation": {"number": 64, "value": 0}, "group": "control_change"}, {"time": 3162, "annotation": {"number": 64, "value": 127}, "group": "control_change"}, {"time": 3182, "annotation": {"number": 64, "value": 0}, "group": "control_change"}, {"time": 3185, "annotation": {"number": 64, "value": 127}, "group": "control_change"}, {"time": 3206, "annotation": {"number": 64, "value": 0}, "group": "control_change"}, {"time": 3209, "annotation": {"number": 64, "value": 127}, "group": "control_change"}, {"time": 3229, "annotation": {"number": 64, "value": 0}, "group": "control_change"}, {"time": 3232, "annotation": {"number": 64, "value": 127}, "group": "control_change"}, {"time": 3253, "annotation": {"number": 64, "value": 0}, "group": "control_change"}, {"time": 3255, "annotation": {"number": 64, "value": 127}, "group": "control_change"}, {"time": 3279, "annotation": {"number": 64, "value": 0}, "group": "control_change"}]}]}