{"metadata": {"schema_version": "0.2", "title": "None", "source_filename": "823.mid", "source_format": "midi"}, "resolution": 12, "tempos": [{"time": 0, "qpm": 79.00006978339498}, {"time": 647, "qpm": 79.2000792000792}, {"time": 1020, "qpm": 79.00006978339498}, {"time": 1433, "qpm": 79.2000792000792}, {"time": 1557, "qpm": 79.10015661831011}, {"time": 2307, "qpm": 79.00006978339498}, {"time": 2460, "qpm": 78.55007043322982}, {"time": 2508, "qpm": 79.00006978339498}, {"time": 2540, "qpm": 79.10015661831011}, {"time": 3874, "qpm": 78.95006934447757}, {"time": 4091, "qpm": 79.00006978339498}, {"time": 4140, "qpm": 79.2000792000792}, {"time": 4236, "qpm": 79.05002944613597}, {"time": 5174, "qpm": 79.15003416643141}, {"time": 5196, "qpm": 79.25008288237835}, {"time": 5582, "qpm": 79.00006978339498}, {"time": 5588, "qpm": 78.90002840401023}, {"time": 5598, "qpm": 78.45003647926696}, {"time": 5607, "qpm": 78.10008525925974}, {"time": 5621, "qpm": 77.8500918631084}], "time_signatures": [{"time": 0, "numerator": 1, "denominator": 4}], "tracks": [{"program": 0, "is_drum": false, "name": "MELODY", "notes": [{"time": 285, "pitch": 65, "duration": 2, "velocity": 83}, {"time": 288, "pitch": 65, "duration": 2, "velocity": 86}, {"time": 291, "pitch": 67, "duration": 2, "velocity": 82}, {"time": 294, "pitch": 69, "duration": 4, "velocity": 86}, {"time": 300, "pitch": 69, "duration": 4, "velocity": 85}, {"time": 306, "pitch": 69, "duration": 5, "velocity": 85}, {"time": 312, "pitch": 70, "duration": 3, "velocity": 85}, {"time": 315, "pitch": 69, "duration": 16, "velocity": 81}, {"time": 333, "pitch": 69, "duration": 3, "velocity": 85}, {"time": 336, "pitch": 67, "duration": 3, "velocity": 80}, {"time": 339, "pitch": 65, "duration": 3, "velocity": 81}, {"time": 342, "pitch": 67, "duration": 5, "velocity": 81}, {"time": 348, "pitch": 67, "duration": 4, "velocity": 84}, {"time": 354, "pitch": 67, "duration": 5, "velocity": 84}, {"time": 360, "pitch": 70, "duration": 2, "velocity": 82}, {"time": 363, "pitch": 69, "duration": 16, "velocity": 85}, {"time": 384, "pitch": 67, "duration": 5, "velocity": 85}, {"time": 390, "pitch": 65, "duration": 6, "velocity": 85}, {"time": 396, "pitch": 64, "duration": 3, "velocity": 81}, {"time": 399, "pitch": 65, "duration": 11, "velocity": 84}, {"time": 411, "pitch": 64, "duration": 3, "velocity": 88}, {"time": 414, "pitch": 65, "duration": 6, "velocity": 83}, {"time": 420, "pitch": 64, "duration": 6, "velocity": 85}, {"time": 426, "pitch": 62, "duration": 5, "velocity": 81}, {"time": 432, "pitch": 60, "duration": 2, "velocity": 79}, {"time": 435, "pitch": 60, "duration": 28, "velocity": 82}, {"time": 477, "pitch": 65, "duration": 3, "velocity": 85}, {"time": 480, "pitch": 67, "duration": 3, "velocity": 80}, {"time": 483, "pitch": 69, "duration": 3, "velocity": 81}, {"time": 486, "pitch": 70, "duration": 9, "velocity": 86}, {"time": 498, "pitch": 62, "duration": 6, "velocity": 86}, {"time": 504, "pitch": 65, "duration": 3, "velocity": 83}, {"time": 507, "pitch": 64, "duration": 20, "velocity": 87}, {"time": 531, "pitch": 60, "duration": 3, "velocity": 82}, {"time": 534, "pitch": 69, "duration": 5, "velocity": 86}, {"time": 540, "pitch": 70, "duration": 4, "velocity": 84}, {"time": 546, "pitch": 69, "duration": 5, "velocity": 86}, {"time": 552, "pitch": 67, "duration": 2, "velocity": 80}, {"time": 555, "pitch": 65, "duration": 8, "velocity": 83}, {"time": 564, "pitch": 65, "duration": 6, "velocity": 85}, {"time": 570, "pitch": 64, "duration": 5, "velocity": 86}, {"time": 576, "pitch": 65, "duration": 5, "velocity": 86}, {"time": 582, "pitch": 70, "duration": 5, "velocity": 84}, {"time": 588, "pitch": 69, "duration": 6, "velocity": 85}, {"time": 594, "pitch": 67, "duration": 6, "velocity": 81}, {"time": 600, "pitch": 65, "duration": 2, "velocity": 79}, {"time": 603, "pitch": 70, "duration": 8, "velocity": 73}, {"time": 612, "pitch": 69, "duration": 6, "velocity": 82}, {"time": 618, "pitch": 67, "duration": 6, "velocity": 81}, {"time": 624, "pitch": 65, "duration": 5, "velocity": 81}, {"time": 630, "pitch": 67, "duration": 33, "velocity": 79}, {"time": 669, "pitch": 65, "duration": 2, "velocity": 83}, {"time": 672, "pitch": 65, "duration": 2, "velocity": 86}, {"time": 675, "pitch": 67, "duration": 2, "velocity": 82}, {"time": 678, "pitch": 69, "duration": 4, "velocity": 86}, {"time": 684, "pitch": 69, "duration": 4, "velocity": 85}, {"time": 690, "pitch": 69, "duration": 5, "velocity": 85}, {"time": 696, "pitch": 70, "duration": 3, "velocity": 85}, {"time": 699, "pitch": 69, "duration": 16, "velocity": 81}, {"time": 717, "pitch": 69, "duration": 3, "velocity": 85}, {"time": 720, "pitch": 67, "duration": 3, "velocity": 80}, {"time": 723, "pitch": 65, "duration": 3, "velocity": 81}, {"time": 726, "pitch": 67, "duration": 5, "velocity": 81}, {"time": 732, "pitch": 67, "duration": 4, "velocity": 84}, {"time": 738, "pitch": 67, "duration": 5, "velocity": 84}, {"time": 744, "pitch": 70, "duration": 2, "velocity": 82}, {"time": 747, "pitch": 69, "duration": 16, "velocity": 85}, {"time": 768, "pitch": 67, "duration": 5, "velocity": 85}, {"time": 774, "pitch": 65, "duration": 6, "velocity": 85}, {"time": 780, "pitch": 64, "duration": 3, "velocity": 81}, {"time": 783, "pitch": 65, "duration": 11, "velocity": 84}, {"time": 795, "pitch": 64, "duration": 3, "velocity": 88}, {"time": 798, "pitch": 65, "duration": 6, "velocity": 83}, {"time": 804, "pitch": 64, "duration": 6, "velocity": 85}, {"time": 810, "pitch": 65, "duration": 5, "velocity": 81}, {"time": 816, "pitch": 74, "duration": 2, "velocity": 79}, {"time": 819, "pitch": 72, "duration": 24, "velocity": 82}, {"time": 846, "pitch": 72, "duration": 6, "velocity": 87}, {"time": 852, "pitch": 70, "duration": 6, "velocity": 86}, {"time": 858, "pitch": 69, "duration": 5, "velocity": 85}, {"time": 864, "pitch": 72, "duration": 5, "velocity": 87}, {"time": 870, "pitch": 72, "duration": 5, "velocity": 86}, {"time": 876, "pitch": 74, "duration": 6, "velocity": 86}, {"time": 882, "pitch": 70, "duration": 6, "velocity": 82}, {"time": 888, "pitch": 69, "duration": 4, "velocity": 86}, {"time": 894, "pitch": 67, "duration": 12, "velocity": 84}, {"time": 909, "pitch": 67, "duration": 2, "velocity": 84}, {"time": 912, "pitch": 69, "duration": 2, "velocity": 87}, {"time": 915, "pitch": 70, "duration": 2, "velocity": 86}, {"time": 918, "pitch": 70, "duration": 4, "velocity": 85}, {"time": 924, "pitch": 72, "duration": 4, "velocity": 87}, {"time": 930, "pitch": 69, "duration": 5, "velocity": 86}, {"time": 936, "pitch": 67, "duration": 2, "velocity": 80}, {"time": 939, "pitch": 65, "duration": 8, "velocity": 83}, {"time": 948, "pitch": 65, "duration": 6, "velocity": 85}, {"time": 954, "pitch": 64, "duration": 5, "velocity": 86}, {"time": 960, "pitch": 65, "duration": 5, "velocity": 86}, {"time": 966, "pitch": 70, "duration": 5, "velocity": 84}, {"time": 972, "pitch": 69, "duration": 6, "velocity": 85}, {"time": 978, "pitch": 70, "duration": 6, "velocity": 81}, {"time": 984, "pitch": 62, "duration": 6, "velocity": 81}, {"time": 990, "pitch": 65, "duration": 11, "velocity": 83}, {"time": 1002, "pitch": 64, "duration": 5, "velocity": 85}, {"time": 1008, "pitch": 65, "duration": 2, "velocity": 80}, {"time": 1011, "pitch": 65, "duration": 42, "velocity": 84}, {"time": 1062, "pitch": 70, "duration": 4, "velocity": 86}, {"time": 1068, "pitch": 70, "duration": 5, "velocity": 91}, {"time": 1074, "pitch": 70, "duration": 4, "velocity": 89}, {"time": 1080, "pitch": 70, "duration": 2, "velocity": 88}, {"time": 1083, "pitch": 69, "duration": 7, "velocity": 86}, {"time": 1092, "pitch": 64, "duration": 5, "velocity": 90}, {"time": 1098, "pitch": 69, "duration": 5, "velocity": 87}, {"time": 1104, "pitch": 67, "duration": 5, "velocity": 80}, {"time": 1110, "pitch": 67, "duration": 5, "velocity": 85}, {"time": 1116, "pitch": 65, "duration": 2, "velocity": 85}, {"time": 1119, "pitch": 65, "duration": 10, "velocity": 86}, {"time": 1131, "pitch": 65, "duration": 2, "velocity": 86}, {"time": 1134, "pitch": 70, "duration": 5, "velocity": 83}, {"time": 1140, "pitch": 69, "duration": 5, "velocity": 86}, {"time": 1146, "pitch": 67, "duration": 5, "velocity": 85}, {"time": 1152, "pitch": 69, "duration": 6, "velocity": 86}, {"time": 1158, "pitch": 70, "duration": 6, "velocity": 86}, {"time": 1164, "pitch": 69, "duration": 2, "velocity": 87}, {"time": 1167, "pitch": 70, "duration": 8, "velocity": 84}, {"time": 1176, "pitch": 74, "duration": 4, "velocity": 92}, {"time": 1182, "pitch": 74, "duration": 5, "velocity": 90}, {"time": 1188, "pitch": 76, "duration": 6, "velocity": 85}, {"time": 1194, "pitch": 72, "duration": 6, "velocity": 86}, {"time": 1200, "pitch": 70, "duration": 5, "velocity": 87}, {"time": 1206, "pitch": 70, "duration": 6, "velocity": 86}, {"time": 1212, "pitch": 72, "duration": 3, "velocity": 84}, {"time": 1215, "pitch": 69, "duration": 17, "velocity": 86}, {"time": 1254, "pitch": 74, "duration": 5, "velocity": 87}, {"time": 1260, "pitch": 74, "duration": 5, "velocity": 92}, {"time": 1266, "pitch": 74, "duration": 4, "velocity": 89}, {"time": 1272, "pitch": 74, "duration": 2, "velocity": 91}, {"time": 1275, "pitch": 73, "duration": 7, "velocity": 87}, {"time": 1284, "pitch": 74, "duration": 3, "velocity": 86}, {"time": 1287, "pitch": 76, "duration": 9, "velocity": 94}, {"time": 1299, "pitch": 69, "duration": 2, "velocity": 91}, {"time": 1302, "pitch": 76, "duration": 4, "velocity": 85}, {"time": 1308, "pitch": 77, "duration": 6, "velocity": 80}, {"time": 1314, "pitch": 76, "duration": 5, "velocity": 89}, {"time": 1320, "pitch": 72, "duration": 6, "velocity": 75}, {"time": 1326, "pitch": 65, "duration": 14, "velocity": 80}, {"time": 1350, "pitch": 70, "duration": 4, "velocity": 78}, {"time": 1356, "pitch": 69, "duration": 3, "velocity": 85}, {"time": 1359, "pitch": 67, "duration": 10, "velocity": 84}, {"time": 1371, "pitch": 65, "duration": 3, "velocity": 85}, {"time": 1374, "pitch": 70, "duration": 7, "velocity": 85}, {"time": 1380, "pitch": 69, "duration": 5, "velocity": 85}, {"time": 1386, "pitch": 70, "duration": 5, "velocity": 87}, {"time": 1392, "pitch": 72, "duration": 4, "velocity": 87}, {"time": 1398, "pitch": 72, "duration": 55, "velocity": 90}, {"time": 1482, "pitch": 69, "duration": 3, "velocity": 86}, {"time": 1485, "pitch": 72, "duration": 2, "velocity": 86}, {"time": 1488, "pitch": 72, "duration": 2, "velocity": 88}, {"time": 1491, "pitch": 76, "duration": 2, "velocity": 87}, {"time": 1494, "pitch": 77, "duration": 4, "velocity": 88}, {"time": 1500, "pitch": 77, "duration": 2, "velocity": 86}, {"time": 1503, "pitch": 77, "duration": 8, "velocity": 89}, {"time": 1512, "pitch": 72, "duration": 3, "velocity": 87}, {"time": 1515, "pitch": 72, "duration": 8, "velocity": 87}, {"time": 1533, "pitch": 72, "duration": 2, "velocity": 89}, {"time": 1536, "pitch": 72, "duration": 2, "velocity": 86}, {"time": 1539, "pitch": 77, "duration": 2, "velocity": 85}, {"time": 1542, "pitch": 79, "duration": 4, "velocity": 81}, {"time": 1548, "pitch": 79, "duration": 2, "velocity": 81}, {"time": 1551, "pitch": 79, "duration": 9, "velocity": 86}, {"time": 1560, "pitch": 72, "duration": 3, "velocity": 87}, {"time": 1563, "pitch": 73, "duration": 10, "velocity": 87}, {"time": 1578, "pitch": 79, "duration": 5, "velocity": 88}, {"time": 1584, "pitch": 81, "duration": 5, "velocity": 87}, {"time": 1590, "pitch": 79, "duration": 6, "velocity": 87}, {"time": 1596, "pitch": 77, "duration": 2, "velocity": 85}, {"time": 1599, "pitch": 77, "duration": 10, "velocity": 86}, {"time": 1611, "pitch": 77, "duration": 3, "velocity": 87}, {"time": 1614, "pitch": 76, "duration": 5, "velocity": 91}, {"time": 1620, "pitch": 77, "duration": 6, "velocity": 86}, {"time": 1626, "pitch": 76, "duration": 6, "velocity": 89}, {"time": 1632, "pitch": 72, "duration": 6, "velocity": 86}, {"time": 1638, "pitch": 74, "duration": 10, "velocity": 87}, {"time": 1650, "pitch": 79, "duration": 25, "velocity": 86}, {"time": 1677, "pitch": 67, "duration": 2, "velocity": 87}, {"time": 1680, "pitch": 67, "duration": 2, "velocity": 86}, {"time": 1683, "pitch": 69, "duration": 2, "velocity": 88}, {"time": 1686, "pitch": 70, "duration": 5, "velocity": 86}, {"time": 1692, "pitch": 69, "duration": 5, "velocity": 89}, {"time": 1698, "pitch": 70, "duration": 5, "velocity": 87}, {"time": 1704, "pitch": 74, "duration": 3, "velocity": 86}, {"time": 1707, "pitch": 72, "duration": 15, "velocity": 86}, {"time": 1725, "pitch": 70, "duration": 2, "velocity": 94}, {"time": 1728, "pitch": 69, "duration": 2, "velocity": 89}, {"time": 1731, "pitch": 70, "duration": 2, "velocity": 88}, {"time": 1734, "pitch": 72, "duration": 4, "velocity": 85}, {"time": 1740, "pitch": 72, "duration": 4, "velocity": 91}, {"time": 1746, "pitch": 79, "duration": 5, "velocity": 89}, {"time": 1752, "pitch": 76, "duration": 2, "velocity": 90}, {"time": 1755, "pitch": 77, "duration": 7, "velocity": 88}, {"time": 1764, "pitch": 77, "duration": 5, "velocity": 86}, {"time": 1770, "pitch": 77, "duration": 5, "velocity": 86}, {"time": 1776, "pitch": 72, "duration": 4, "velocity": 87}, {"time": 1782, "pitch": 70, "duration": 6, "velocity": 87}, {"time": 1788, "pitch": 69, "duration": 2, "velocity": 84}, {"time": 1791, "pitch": 70, "duration": 9, "velocity": 87}, {"time": 1800, "pitch": 72, "duration": 5, "velocity": 91}, {"time": 1806, "pitch": 74, "duration": 5, "velocity": 96}, {"time": 1812, "pitch": 81, "duration": 5, "velocity": 87}, {"time": 1818, "pitch": 79, "duration": 5, "velocity": 87}, {"time": 1824, "pitch": 77, "duration": 2, "velocity": 84}, {"time": 1827, "pitch": 79, "duration": 39, "velocity": 89}, {"time": 1866, "pitch": 69, "duration": 3, "velocity": 86}, {"time": 1869, "pitch": 72, "duration": 2, "velocity": 86}, {"time": 1872, "pitch": 72, "duration": 2, "velocity": 88}, {"time": 1875, "pitch": 76, "duration": 2, "velocity": 87}, {"time": 1878, "pitch": 77, "duration": 4, "velocity": 88}, {"time": 1884, "pitch": 77, "duration": 2, "velocity": 86}, {"time": 1887, "pitch": 77, "duration": 8, "velocity": 89}, {"time": 1896, "pitch": 72, "duration": 3, "velocity": 87}, {"time": 1899, "pitch": 72, "duration": 8, "velocity": 87}, {"time": 1917, "pitch": 72, "duration": 2, "velocity": 89}, {"time": 1920, "pitch": 72, "duration": 2, "velocity": 86}, {"time": 1923, "pitch": 77, "duration": 2, "velocity": 85}, {"time": 1926, "pitch": 79, "duration": 4, "velocity": 81}, {"time": 1932, "pitch": 79, "duration": 2, "velocity": 81}, {"time": 1935, "pitch": 79, "duration": 9, "velocity": 86}, {"time": 1944, "pitch": 72, "duration": 3, "velocity": 87}, {"time": 1947, "pitch": 73, "duration": 10, "velocity": 87}, {"time": 1962, "pitch": 79, "duration": 5, "velocity": 88}, {"time": 1968, "pitch": 81, "duration": 5, "velocity": 87}, {"time": 1974, "pitch": 79, "duration": 6, "velocity": 87}, {"time": 1980, "pitch": 77, "duration": 2, "velocity": 85}, {"time": 1983, "pitch": 77, "duration": 10, "velocity": 86}, {"time": 1995, "pitch": 77, "duration": 3, "velocity": 87}, {"time": 1998, "pitch": 76, "duration": 5, "velocity": 91}, {"time": 2004, "pitch": 77, "duration": 6, "velocity": 86}, {"time": 2010, "pitch": 76, "duration": 6, "velocity": 89}, {"time": 2016, "pitch": 72, "duration": 6, "velocity": 86}, {"time": 2022, "pitch": 74, "duration": 6, "velocity": 87}, {"time": 2028, "pitch": 81, "duration": 6, "velocity": 86}, {"time": 2034, "pitch": 81, "duration": 25, "velocity": 86}, {"time": 2061, "pitch": 69, "duration": 2, "velocity": 90}, {"time": 2064, "pitch": 70, "duration": 3, "velocity": 90}, {"time": 2067, "pitch": 72, "duration": 2, "velocity": 85}, {"time": 2070, "pitch": 74, "duration": 6, "velocity": 101}, {"time": 2076, "pitch": 72, "duration": 4, "velocity": 87}, {"time": 2082, "pitch": 74, "duration": 5, "velocity": 96}, {"time": 2088, "pitch": 77, "duration": 2, "velocity": 85}, {"time": 2091, "pitch": 76, "duration": 17, "velocity": 89}, {"time": 2109, "pitch": 76, "duration": 2, "velocity": 94}, {"time": 2112, "pitch": 76, "duration": 2, "velocity": 89}, {"time": 2115, "pitch": 74, "duration": 2, "velocity": 88}, {"time": 2118, "pitch": 73, "duration": 4, "velocity": 85}, {"time": 2124, "pitch": 73, "duration": 4, "velocity": 91}, {"time": 2130, "pitch": 81, "duration": 5, "velocity": 89}, {"time": 2136, "pitch": 79, "duration": 2, "velocity": 90}, {"time": 2139, "pitch": 77, "duration": 7, "velocity": 88}, {"time": 2148, "pitch": 77, "duration": 5, "velocity": 86}, {"time": 2154, "pitch": 76, "duration": 5, "velocity": 86}, {"time": 2160, "pitch": 72, "duration": 4, "velocity": 87}, {"time": 2166, "pitch": 70, "duration": 6, "velocity": 87}, {"time": 2172, "pitch": 69, "duration": 2, "velocity": 84}, {"time": 2175, "pitch": 70, "duration": 9, "velocity": 87}, {"time": 2184, "pitch": 72, "duration": 5, "velocity": 91}, {"time": 2190, "pitch": 74, "duration": 5, "velocity": 96}, {"time": 2196, "pitch": 81, "duration": 5, "velocity": 87}, {"time": 2202, "pitch": 79, "duration": 5, "velocity": 87}, {"time": 2208, "pitch": 77, "duration": 2, "velocity": 84}, {"time": 2211, "pitch": 79, "duration": 21, "velocity": 89}, {"time": 2235, "pitch": 77, "duration": 2, "velocity": 87}, {"time": 2238, "pitch": 77, "duration": 10, "velocity": 87}, {"time": 2250, "pitch": 76, "duration": 6, "velocity": 89}, {"time": 2256, "pitch": 77, "duration": 2, "velocity": 87}, {"time": 2259, "pitch": 77, "duration": 48, "velocity": 84}, {"time": 2493, "pitch": 65, "duration": 2, "velocity": 83}, {"time": 2496, "pitch": 65, "duration": 2, "velocity": 86}, {"time": 2499, "pitch": 67, "duration": 2, "velocity": 82}, {"time": 2502, "pitch": 69, "duration": 4, "velocity": 86}, {"time": 2508, "pitch": 69, "duration": 4, "velocity": 85}, {"time": 2514, "pitch": 69, "duration": 5, "velocity": 85}, {"time": 2520, "pitch": 70, "duration": 3, "velocity": 85}, {"time": 2523, "pitch": 69, "duration": 16, "velocity": 81}, {"time": 2541, "pitch": 69, "duration": 3, "velocity": 85}, {"time": 2544, "pitch": 67, "duration": 3, "velocity": 80}, {"time": 2547, "pitch": 65, "duration": 3, "velocity": 81}, {"time": 2550, "pitch": 67, "duration": 5, "velocity": 81}, {"time": 2556, "pitch": 67, "duration": 4, "velocity": 84}, {"time": 2562, "pitch": 67, "duration": 5, "velocity": 84}, {"time": 2568, "pitch": 70, "duration": 2, "velocity": 82}, {"time": 2571, "pitch": 69, "duration": 16, "velocity": 85}, {"time": 2592, "pitch": 67, "duration": 5, "velocity": 85}, {"time": 2598, "pitch": 65, "duration": 6, "velocity": 85}, {"time": 2604, "pitch": 64, "duration": 3, "velocity": 81}, {"time": 2607, "pitch": 65, "duration": 11, "velocity": 84}, {"time": 2619, "pitch": 64, "duration": 3, "velocity": 88}, {"time": 2622, "pitch": 65, "duration": 6, "velocity": 83}, {"time": 2628, "pitch": 64, "duration": 6, "velocity": 85}, {"time": 2634, "pitch": 65, "duration": 5, "velocity": 81}, {"time": 2640, "pitch": 74, "duration": 2, "velocity": 79}, {"time": 2643, "pitch": 72, "duration": 24, "velocity": 82}, {"time": 2670, "pitch": 72, "duration": 6, "velocity": 87}, {"time": 2676, "pitch": 70, "duration": 6, "velocity": 86}, {"time": 2682, "pitch": 69, "duration": 5, "velocity": 85}, {"time": 2688, "pitch": 72, "duration": 5, "velocity": 87}, {"time": 2694, "pitch": 72, "duration": 5, "velocity": 86}, {"time": 2700, "pitch": 74, "duration": 6, "velocity": 86}, {"time": 2706, "pitch": 70, "duration": 6, "velocity": 82}, {"time": 2712, "pitch": 69, "duration": 4, "velocity": 86}, {"time": 2718, "pitch": 67, "duration": 12, "velocity": 84}, {"time": 2733, "pitch": 67, "duration": 2, "velocity": 84}, {"time": 2736, "pitch": 69, "duration": 2, "velocity": 87}, {"time": 2739, "pitch": 70, "duration": 2, "velocity": 86}, {"time": 2742, "pitch": 70, "duration": 4, "velocity": 85}, {"time": 2748, "pitch": 72, "duration": 4, "velocity": 87}, {"time": 2754, "pitch": 69, "duration": 5, "velocity": 86}, {"time": 2760, "pitch": 67, "duration": 2, "velocity": 80}, {"time": 2763, "pitch": 65, "duration": 8, "velocity": 83}, {"time": 2772, "pitch": 65, "duration": 6, "velocity": 85}, {"time": 2778, "pitch": 64, "duration": 5, "velocity": 86}, {"time": 2784, "pitch": 65, "duration": 5, "velocity": 86}, {"time": 2790, "pitch": 70, "duration": 5, "velocity": 84}, {"time": 2796, "pitch": 69, "duration": 6, "velocity": 85}, {"time": 2802, "pitch": 70, "duration": 6, "velocity": 81}, {"time": 2808, "pitch": 62, "duration": 6, "velocity": 81}, {"time": 2814, "pitch": 65, "duration": 11, "velocity": 83}, {"time": 2826, "pitch": 64, "duration": 5, "velocity": 85}, {"time": 2832, "pitch": 65, "duration": 2, "velocity": 80}, {"time": 2835, "pitch": 65, "duration": 42, "velocity": 84}, {"time": 2886, "pitch": 70, "duration": 4, "velocity": 86}, {"time": 2892, "pitch": 70, "duration": 5, "velocity": 91}, {"time": 2898, "pitch": 70, "duration": 4, "velocity": 89}, {"time": 2904, "pitch": 70, "duration": 2, "velocity": 88}, {"time": 2907, "pitch": 69, "duration": 7, "velocity": 86}, {"time": 2916, "pitch": 64, "duration": 5, "velocity": 90}, {"time": 2922, "pitch": 69, "duration": 5, "velocity": 87}, {"time": 2928, "pitch": 67, "duration": 5, "velocity": 80}, {"time": 2934, "pitch": 67, "duration": 5, "velocity": 85}, {"time": 2940, "pitch": 65, "duration": 2, "velocity": 85}, {"time": 2943, "pitch": 65, "duration": 10, "velocity": 86}, {"time": 2955, "pitch": 65, "duration": 2, "velocity": 86}, {"time": 2958, "pitch": 70, "duration": 5, "velocity": 83}, {"time": 2964, "pitch": 69, "duration": 5, "velocity": 86}, {"time": 2970, "pitch": 67, "duration": 5, "velocity": 85}, {"time": 2976, "pitch": 69, "duration": 6, "velocity": 86}, {"time": 2982, "pitch": 70, "duration": 6, "velocity": 86}, {"time": 2988, "pitch": 69, "duration": 2, "velocity": 87}, {"time": 2991, "pitch": 70, "duration": 8, "velocity": 84}, {"time": 3000, "pitch": 74, "duration": 4, "velocity": 92}, {"time": 3006, "pitch": 74, "duration": 5, "velocity": 90}, {"time": 3012, "pitch": 76, "duration": 6, "velocity": 85}, {"time": 3018, "pitch": 72, "duration": 6, "velocity": 86}, {"time": 3024, "pitch": 70, "duration": 5, "velocity": 87}, {"time": 3030, "pitch": 70, "duration": 6, "velocity": 86}, {"time": 3036, "pitch": 72, "duration": 3, "velocity": 84}, {"time": 3039, "pitch": 69, "duration": 17, "velocity": 86}, {"time": 3078, "pitch": 74, "duration": 5, "velocity": 87}, {"time": 3084, "pitch": 74, "duration": 5, "velocity": 92}, {"time": 3090, "pitch": 74, "duration": 4, "velocity": 89}, {"time": 3096, "pitch": 74, "duration": 2, "velocity": 91}, {"time": 3099, "pitch": 73, "duration": 7, "velocity": 87}, {"time": 3108, "pitch": 74, "duration": 3, "velocity": 86}, {"time": 3111, "pitch": 76, "duration": 9, "velocity": 94}, {"time": 3123, "pitch": 69, "duration": 2, "velocity": 91}, {"time": 3126, "pitch": 76, "duration": 4, "velocity": 85}, {"time": 3132, "pitch": 77, "duration": 6, "velocity": 80}, {"time": 3138, "pitch": 76, "duration": 5, "velocity": 89}, {"time": 3144, "pitch": 72, "duration": 6, "velocity": 75}, {"time": 3150, "pitch": 65, "duration": 14, "velocity": 80}, {"time": 3174, "pitch": 70, "duration": 4, "velocity": 78}, {"time": 3180, "pitch": 69, "duration": 3, "velocity": 85}, {"time": 3183, "pitch": 67, "duration": 10, "velocity": 84}, {"time": 3195, "pitch": 65, "duration": 3, "velocity": 85}, {"time": 3198, "pitch": 70, "duration": 7, "velocity": 85}, {"time": 3204, "pitch": 69, "duration": 5, "velocity": 85}, {"time": 3210, "pitch": 70, "duration": 5, "velocity": 87}, {"time": 3216, "pitch": 72, "duration": 4, "velocity": 87}, {"time": 3222, "pitch": 72, "duration": 55, "velocity": 90}, {"time": 3306, "pitch": 69, "duration": 3, "velocity": 86}, {"time": 3309, "pitch": 72, "duration": 2, "velocity": 86}, {"time": 3312, "pitch": 72, "duration": 2, "velocity": 88}, {"time": 3315, "pitch": 76, "duration": 2, "velocity": 87}, {"time": 3318, "pitch": 77, "duration": 4, "velocity": 88}, {"time": 3324, "pitch": 77, "duration": 2, "velocity": 86}, {"time": 3327, "pitch": 77, "duration": 8, "velocity": 89}, {"time": 3336, "pitch": 72, "duration": 3, "velocity": 87}, {"time": 3339, "pitch": 72, "duration": 8, "velocity": 87}, {"time": 3357, "pitch": 72, "duration": 2, "velocity": 89}, {"time": 3360, "pitch": 72, "duration": 2, "velocity": 86}, {"time": 3363, "pitch": 77, "duration": 2, "velocity": 85}, {"time": 3366, "pitch": 79, "duration": 4, "velocity": 81}, {"time": 3372, "pitch": 79, "duration": 2, "velocity": 81}, {"time": 3375, "pitch": 79, "duration": 9, "velocity": 86}, {"time": 3384, "pitch": 72, "duration": 3, "velocity": 87}, {"time": 3387, "pitch": 73, "duration": 10, "velocity": 87}, {"time": 3402, "pitch": 79, "duration": 5, "velocity": 88}, {"time": 3408, "pitch": 81, "duration": 5, "velocity": 87}, {"time": 3414, "pitch": 79, "duration": 6, "velocity": 87}, {"time": 3420, "pitch": 77, "duration": 2, "velocity": 85}, {"time": 3423, "pitch": 77, "duration": 10, "velocity": 86}, {"time": 3435, "pitch": 77, "duration": 3, "velocity": 87}, {"time": 3438, "pitch": 76, "duration": 5, "velocity": 91}, {"time": 3444, "pitch": 77, "duration": 6, "velocity": 86}, {"time": 3450, "pitch": 76, "duration": 6, "velocity": 89}, {"time": 3456, "pitch": 72, "duration": 6, "velocity": 86}, {"time": 3462, "pitch": 74, "duration": 10, "velocity": 87}, {"time": 3474, "pitch": 79, "duration": 25, "velocity": 86}, {"time": 3501, "pitch": 67, "duration": 2, "velocity": 87}, {"time": 3504, "pitch": 67, "duration": 2, "velocity": 86}, {"time": 3507, "pitch": 69, "duration": 2, "velocity": 88}, {"time": 3510, "pitch": 70, "duration": 5, "velocity": 86}, {"time": 3516, "pitch": 69, "duration": 5, "velocity": 89}, {"time": 3522, "pitch": 70, "duration": 5, "velocity": 87}, {"time": 3528, "pitch": 74, "duration": 3, "velocity": 86}, {"time": 3531, "pitch": 72, "duration": 15, "velocity": 86}, {"time": 3549, "pitch": 70, "duration": 2, "velocity": 94}, {"time": 3552, "pitch": 69, "duration": 2, "velocity": 89}, {"time": 3555, "pitch": 70, "duration": 2, "velocity": 88}, {"time": 3558, "pitch": 72, "duration": 4, "velocity": 85}, {"time": 3564, "pitch": 72, "duration": 4, "velocity": 91}, {"time": 3570, "pitch": 79, "duration": 5, "velocity": 89}, {"time": 3576, "pitch": 76, "duration": 2, "velocity": 90}, {"time": 3579, "pitch": 77, "duration": 7, "velocity": 88}, {"time": 3588, "pitch": 77, "duration": 5, "velocity": 86}, {"time": 3594, "pitch": 77, "duration": 5, "velocity": 86}, {"time": 3600, "pitch": 72, "duration": 4, "velocity": 87}, {"time": 3606, "pitch": 70, "duration": 6, "velocity": 87}, {"time": 3612, "pitch": 69, "duration": 2, "velocity": 84}, {"time": 3615, "pitch": 70, "duration": 9, "velocity": 87}, {"time": 3624, "pitch": 72, "duration": 5, "velocity": 91}, {"time": 3630, "pitch": 74, "duration": 5, "velocity": 96}, {"time": 3636, "pitch": 81, "duration": 5, "velocity": 87}, {"time": 3642, "pitch": 79, "duration": 5, "velocity": 87}, {"time": 3648, "pitch": 77, "duration": 2, "velocity": 84}, {"time": 3651, "pitch": 79, "duration": 39, "velocity": 89}, {"time": 3690, "pitch": 69, "duration": 3, "velocity": 86}, {"time": 3693, "pitch": 72, "duration": 2, "velocity": 86}, {"time": 3696, "pitch": 72, "duration": 2, "velocity": 88}, {"time": 3699, "pitch": 76, "duration": 2, "velocity": 87}, {"time": 3702, "pitch": 77, "duration": 4, "velocity": 88}, {"time": 3708, "pitch": 77, "duration": 2, "velocity": 86}, {"time": 3711, "pitch": 77, "duration": 8, "velocity": 89}, {"time": 3720, "pitch": 72, "duration": 3, "velocity": 87}, {"time": 3723, "pitch": 72, "duration": 8, "velocity": 87}, {"time": 3741, "pitch": 72, "duration": 2, "velocity": 89}, {"time": 3744, "pitch": 72, "duration": 2, "velocity": 86}, {"time": 3747, "pitch": 77, "duration": 2, "velocity": 85}, {"time": 3750, "pitch": 79, "duration": 4, "velocity": 81}, {"time": 3756, "pitch": 79, "duration": 2, "velocity": 81}, {"time": 3759, "pitch": 79, "duration": 9, "velocity": 86}, {"time": 3768, "pitch": 72, "duration": 3, "velocity": 87}, {"time": 3771, "pitch": 73, "duration": 10, "velocity": 87}, {"time": 3786, "pitch": 79, "duration": 5, "velocity": 88}, {"time": 3792, "pitch": 81, "duration": 5, "velocity": 87}, {"time": 3798, "pitch": 79, "duration": 6, "velocity": 87}, {"time": 3804, "pitch": 77, "duration": 2, "velocity": 85}, {"time": 3807, "pitch": 77, "duration": 10, "velocity": 86}, {"time": 3819, "pitch": 77, "duration": 3, "velocity": 87}, {"time": 3822, "pitch": 76, "duration": 5, "velocity": 91}, {"time": 3828, "pitch": 77, "duration": 6, "velocity": 86}, {"time": 3834, "pitch": 76, "duration": 6, "velocity": 89}, {"time": 3840, "pitch": 72, "duration": 6, "velocity": 86}, {"time": 3846, "pitch": 74, "duration": 6, "velocity": 87}, {"time": 3852, "pitch": 81, "duration": 6, "velocity": 86}, {"time": 3858, "pitch": 81, "duration": 25, "velocity": 86}, {"time": 3885, "pitch": 69, "duration": 2, "velocity": 90}, {"time": 3888, "pitch": 70, "duration": 3, "velocity": 90}, {"time": 3891, "pitch": 72, "duration": 2, "velocity": 85}, {"time": 3894, "pitch": 74, "duration": 6, "velocity": 101}, {"time": 3900, "pitch": 72, "duration": 4, "velocity": 87}, {"time": 3906, "pitch": 74, "duration": 5, "velocity": 96}, {"time": 3912, "pitch": 77, "duration": 2, "velocity": 85}, {"time": 3915, "pitch": 76, "duration": 17, "velocity": 89}, {"time": 3933, "pitch": 76, "duration": 2, "velocity": 94}, {"time": 3936, "pitch": 76, "duration": 2, "velocity": 89}, {"time": 3939, "pitch": 74, "duration": 2, "velocity": 88}, {"time": 3942, "pitch": 73, "duration": 4, "velocity": 85}, {"time": 3948, "pitch": 73, "duration": 4, "velocity": 91}, {"time": 3954, "pitch": 81, "duration": 5, "velocity": 89}, {"time": 3960, "pitch": 79, "duration": 2, "velocity": 90}, {"time": 3963, "pitch": 77, "duration": 7, "velocity": 88}, {"time": 3972, "pitch": 77, "duration": 5, "velocity": 86}, {"time": 3978, "pitch": 76, "duration": 5, "velocity": 86}, {"time": 3984, "pitch": 72, "duration": 4, "velocity": 87}, {"time": 3990, "pitch": 70, "duration": 6, "velocity": 87}, {"time": 3996, "pitch": 69, "duration": 2, "velocity": 84}, {"time": 3999, "pitch": 70, "duration": 9, "velocity": 87}, {"time": 4008, "pitch": 72, "duration": 5, "velocity": 91}, {"time": 4014, "pitch": 74, "duration": 5, "velocity": 96}, {"time": 4020, "pitch": 81, "duration": 5, "velocity": 87}, {"time": 4026, "pitch": 79, "duration": 5, "velocity": 87}, {"time": 4032, "pitch": 77, "duration": 2, "velocity": 84}, {"time": 4035, "pitch": 79, "duration": 21, "velocity": 89}, {"time": 4059, "pitch": 77, "duration": 2, "velocity": 87}, {"time": 4062, "pitch": 77, "duration": 10, "velocity": 87}, {"time": 4074, "pitch": 76, "duration": 6, "velocity": 89}, {"time": 4080, "pitch": 77, "duration": 2, "velocity": 87}, {"time": 4083, "pitch": 77, "duration": 48, "velocity": 84}, {"time": 4506, "pitch": 69, "duration": 3, "velocity": 86}, {"time": 4509, "pitch": 72, "duration": 2, "velocity": 86}, {"time": 4512, "pitch": 72, "duration": 2, "velocity": 88}, {"time": 4515, "pitch": 76, "duration": 2, "velocity": 87}, {"time": 4518, "pitch": 77, "duration": 4, "velocity": 88}, {"time": 4524, "pitch": 77, "duration": 2, "velocity": 86}, {"time": 4527, "pitch": 77, "duration": 8, "velocity": 89}, {"time": 4536, "pitch": 72, "duration": 3, "velocity": 87}, {"time": 4539, "pitch": 72, "duration": 8, "velocity": 87}, {"time": 4557, "pitch": 72, "duration": 2, "velocity": 89}, {"time": 4560, "pitch": 72, "duration": 2, "velocity": 86}, {"time": 4563, "pitch": 77, "duration": 2, "velocity": 85}, {"time": 4566, "pitch": 79, "duration": 4, "velocity": 81}, {"time": 4572, "pitch": 79, "duration": 2, "velocity": 81}, {"time": 4575, "pitch": 79, "duration": 9, "velocity": 86}, {"time": 4584, "pitch": 72, "duration": 3, "velocity": 87}, {"time": 4587, "pitch": 73, "duration": 10, "velocity": 87}, {"time": 4602, "pitch": 79, "duration": 5, "velocity": 88}, {"time": 4608, "pitch": 81, "duration": 5, "velocity": 87}, {"time": 4614, "pitch": 79, "duration": 6, "velocity": 87}, {"time": 4620, "pitch": 77, "duration": 2, "velocity": 85}, {"time": 4623, "pitch": 77, "duration": 10, "velocity": 86}, {"time": 4635, "pitch": 77, "duration": 3, "velocity": 87}, {"time": 4638, "pitch": 76, "duration": 5, "velocity": 91}, {"time": 4644, "pitch": 77, "duration": 6, "velocity": 86}, {"time": 4650, "pitch": 76, "duration": 6, "velocity": 89}, {"time": 4656, "pitch": 72, "duration": 6, "velocity": 86}, {"time": 4662, "pitch": 74, "duration": 10, "velocity": 87}, {"time": 4674, "pitch": 79, "duration": 25, "velocity": 86}, {"time": 4701, "pitch": 67, "duration": 2, "velocity": 87}, {"time": 4704, "pitch": 67, "duration": 2, "velocity": 86}, {"time": 4707, "pitch": 69, "duration": 2, "velocity": 88}, {"time": 4710, "pitch": 70, "duration": 5, "velocity": 86}, {"time": 4716, "pitch": 69, "duration": 5, "velocity": 89}, {"time": 4722, "pitch": 70, "duration": 5, "velocity": 87}, {"time": 4728, "pitch": 74, "duration": 3, "velocity": 86}, {"time": 4731, "pitch": 72, "duration": 15, "velocity": 86}, {"time": 4749, "pitch": 70, "duration": 2, "velocity": 94}, {"time": 4752, "pitch": 69, "duration": 2, "velocity": 89}, {"time": 4755, "pitch": 70, "duration": 2, "velocity": 88}, {"time": 4758, "pitch": 72, "duration": 4, "velocity": 85}, {"time": 4764, "pitch": 72, "duration": 4, "velocity": 91}, {"time": 4770, "pitch": 79, "duration": 5, "velocity": 89}, {"time": 4776, "pitch": 76, "duration": 2, "velocity": 90}, {"time": 4779, "pitch": 77, "duration": 7, "velocity": 88}, {"time": 4788, "pitch": 77, "duration": 5, "velocity": 86}, {"time": 4794, "pitch": 77, "duration": 5, "velocity": 86}, {"time": 4800, "pitch": 72, "duration": 4, "velocity": 87}, {"time": 4806, "pitch": 70, "duration": 6, "velocity": 87}, {"time": 4812, "pitch": 69, "duration": 2, "velocity": 84}, {"time": 4815, "pitch": 70, "duration": 9, "velocity": 87}, {"time": 4824, "pitch": 72, "duration": 5, "velocity": 91}, {"time": 4830, "pitch": 74, "duration": 5, "velocity": 96}, {"time": 4836, "pitch": 81, "duration": 5, "velocity": 87}, {"time": 4842, "pitch": 79, "duration": 5, "velocity": 87}, {"time": 4848, "pitch": 77, "duration": 2, "velocity": 84}, {"time": 4851, "pitch": 79, "duration": 39, "velocity": 89}, {"time": 4890, "pitch": 69, "duration": 3, "velocity": 86}, {"time": 4893, "pitch": 72, "duration": 2, "velocity": 86}, {"time": 4896, "pitch": 72, "duration": 2, "velocity": 88}, {"time": 4899, "pitch": 76, "duration": 2, "velocity": 87}, {"time": 4902, "pitch": 77, "duration": 4, "velocity": 88}, {"time": 4908, "pitch": 77, "duration": 2, "velocity": 86}, {"time": 4911, "pitch": 77, "duration": 8, "velocity": 89}, {"time": 4920, "pitch": 72, "duration": 3, "velocity": 87}, {"time": 4923, "pitch": 72, "duration": 8, "velocity": 87}, {"time": 4941, "pitch": 72, "duration": 2, "velocity": 89}, {"time": 4944, "pitch": 72, "duration": 2, "velocity": 86}, {"time": 4947, "pitch": 77, "duration": 2, "velocity": 85}, {"time": 4950, "pitch": 79, "duration": 4, "velocity": 81}, {"time": 4956, "pitch": 79, "duration": 2, "velocity": 81}, {"time": 4959, "pitch": 79, "duration": 9, "velocity": 86}, {"time": 4968, "pitch": 72, "duration": 3, "velocity": 87}, {"time": 4971, "pitch": 73, "duration": 10, "velocity": 87}, {"time": 4986, "pitch": 79, "duration": 5, "velocity": 88}, {"time": 4992, "pitch": 81, "duration": 5, "velocity": 87}, {"time": 4998, "pitch": 79, "duration": 6, "velocity": 87}, {"time": 5004, "pitch": 77, "duration": 2, "velocity": 85}, {"time": 5007, "pitch": 77, "duration": 10, "velocity": 86}, {"time": 5019, "pitch": 77, "duration": 3, "velocity": 87}, {"time": 5022, "pitch": 76, "duration": 5, "velocity": 91}, {"time": 5028, "pitch": 77, "duration": 6, "velocity": 86}, {"time": 5034, "pitch": 76, "duration": 6, "velocity": 89}, {"time": 5040, "pitch": 72, "duration": 6, "velocity": 86}, {"time": 5046, "pitch": 74, "duration": 6, "velocity": 87}, {"time": 5052, "pitch": 81, "duration": 6, "velocity": 86}, {"time": 5058, "pitch": 81, "duration": 25, "velocity": 86}, {"time": 5085, "pitch": 69, "duration": 2, "velocity": 90}, {"time": 5088, "pitch": 70, "duration": 3, "velocity": 90}, {"time": 5091, "pitch": 72, "duration": 2, "velocity": 85}, {"time": 5094, "pitch": 74, "duration": 6, "velocity": 101}, {"time": 5100, "pitch": 72, "duration": 4, "velocity": 87}, {"time": 5106, "pitch": 74, "duration": 5, "velocity": 96}, {"time": 5112, "pitch": 77, "duration": 2, "velocity": 85}, {"time": 5115, "pitch": 76, "duration": 17, "velocity": 89}, {"time": 5133, "pitch": 76, "duration": 2, "velocity": 94}, {"time": 5136, "pitch": 76, "duration": 2, "velocity": 89}, {"time": 5139, "pitch": 74, "duration": 2, "velocity": 88}, {"time": 5142, "pitch": 73, "duration": 4, "velocity": 85}, {"time": 5148, "pitch": 73, "duration": 4, "velocity": 91}, {"time": 5154, "pitch": 81, "duration": 5, "velocity": 89}, {"time": 5160, "pitch": 79, "duration": 2, "velocity": 90}, {"time": 5163, "pitch": 77, "duration": 7, "velocity": 88}, {"time": 5172, "pitch": 77, "duration": 5, "velocity": 86}, {"time": 5178, "pitch": 76, "duration": 5, "velocity": 86}, {"time": 5184, "pitch": 72, "duration": 4, "velocity": 87}, {"time": 5190, "pitch": 70, "duration": 6, "velocity": 87}, {"time": 5196, "pitch": 69, "duration": 2, "velocity": 84}, {"time": 5199, "pitch": 70, "duration": 9, "velocity": 87}, {"time": 5208, "pitch": 72, "duration": 5, "velocity": 91}, {"time": 5214, "pitch": 74, "duration": 5, "velocity": 96}, {"time": 5220, "pitch": 81, "duration": 5, "velocity": 87}, {"time": 5226, "pitch": 79, "duration": 5, "velocity": 87}, {"time": 5232, "pitch": 77, "duration": 2, "velocity": 84}, {"time": 5235, "pitch": 79, "duration": 21, "velocity": 89}, {"time": 5259, "pitch": 77, "duration": 2, "velocity": 87}, {"time": 5262, "pitch": 77, "duration": 10, "velocity": 87}, {"time": 5274, "pitch": 76, "duration": 6, "velocity": 89}, {"time": 5280, "pitch": 77, "duration": 2, "velocity": 87}, {"time": 5283, "pitch": 77, "duration": 48, "velocity": 84}]}, {"program": 0, "is_drum": false, "name": "PIANO", "notes": [{"time": 6, "pitch": 53, "duration": 15, "velocity": 80}, {"time": 6, "pitch": 69, "duration": 14, "velocity": 79}, {"time": 12, "pitch": 60, "duration": 8, "velocity": 70}, {"time": 18, "pitch": 65, "duration": 4, "velocity": 76}, {"time": 30, "pitch": 52, "duration": 15, "velocity": 85}, {"time": 30, "pitch": 64, "duration": 7, "velocity": 78}, {"time": 30, "pitch": 67, "duration": 13, "velocity": 75}, {"time": 36, "pitch": 60, "duration": 8, "velocity": 72}, {"time": 42, "pitch": 64, "duration": 6, "velocity": 81}, {"time": 54, "pitch": 50, "duration": 15, "velocity": 81}, {"time": 54, "pitch": 65, "duration": 12, "velocity": 79}, {"time": 60, "pitch": 57, "duration": 8, "velocity": 65}, {"time": 66, "pitch": 62, "duration": 5, "velocity": 85}, {"time": 78, "pitch": 53, "duration": 15, "velocity": 80}, {"time": 78, "pitch": 60, "duration": 4, "velocity": 76}, {"time": 78, "pitch": 65, "duration": 9, "velocity": 78}, {"time": 84, "pitch": 60, "duration": 7, "velocity": 80}, {"time": 90, "pitch": 63, "duration": 6, "velocity": 76}, {"time": 96, "pitch": 60, "duration": 5, "velocity": 61}, {"time": 102, "pitch": 46, "duration": 21, "velocity": 79}, {"time": 102, "pitch": 58, "duration": 8, "velocity": 74}, {"time": 102, "pitch": 65, "duration": 13, "velocity": 82}, {"time": 108, "pitch": 53, "duration": 16, "velocity": 64}, {"time": 114, "pitch": 58, "duration": 6, "velocity": 85}, {"time": 120, "pitch": 62, "duration": 6, "velocity": 79}, {"time": 126, "pitch": 45, "duration": 17, "velocity": 74}, {"time": 126, "pitch": 60, "duration": 13, "velocity": 83}, {"time": 132, "pitch": 52, "duration": 11, "velocity": 80}, {"time": 138, "pitch": 57, "duration": 8, "velocity": 80}, {"time": 144, "pitch": 60, "duration": 6, "velocity": 81}, {"time": 150, "pitch": 43, "duration": 45, "velocity": 85}, {"time": 150, "pitch": 62, "duration": 13, "velocity": 80}, {"time": 156, "pitch": 50, "duration": 21, "velocity": 74}, {"time": 162, "pitch": 58, "duration": 8, "velocity": 88}, {"time": 168, "pitch": 62, "duration": 10, "velocity": 85}, {"time": 174, "pitch": 67, "duration": 7, "velocity": 85}, {"time": 180, "pitch": 50, "duration": 10, "velocity": 67}, {"time": 186, "pitch": 58, "duration": 6, "velocity": 74}, {"time": 186, "pitch": 62, "duration": 12, "velocity": 80}, {"time": 192, "pitch": 55, "duration": 7, "velocity": 86}, {"time": 198, "pitch": 48, "duration": 39, "velocity": 85}, {"time": 198, "pitch": 60, "duration": 8, "velocity": 85}, {"time": 204, "pitch": 55, "duration": 7, "velocity": 80}, {"time": 210, "pitch": 62, "duration": 7, "velocity": 78}, {"time": 216, "pitch": 55, "duration": 5, "velocity": 77}, {"time": 222, "pitch": 64, "duration": 12, "velocity": 82}, {"time": 228, "pitch": 55, "duration": 7, "velocity": 69}, {"time": 234, "pitch": 60, "duration": 4, "velocity": 79}, {"time": 246, "pitch": 36, "duration": 2, "velocity": 81}, {"time": 246, "pitch": 55, "duration": 4, "velocity": 75}, {"time": 246, "pitch": 64, "duration": 8, "velocity": 81}, {"time": 252, "pitch": 48, "duration": 30, "velocity": 70}, {"time": 258, "pitch": 55, "duration": 24, "velocity": 80}, {"time": 264, "pitch": 60, "duration": 7, "velocity": 75}, {"time": 264, "pitch": 67, "duration": 8, "velocity": 75}, {"time": 294, "pitch": 53, "duration": 49, "velocity": 76}, {"time": 294, "pitch": 65, "duration": 11, "velocity": 81}, {"time": 300, "pitch": 60, "duration": 7, "velocity": 75}, {"time": 306, "pitch": 67, "duration": 6, "velocity": 84}, {"time": 312, "pitch": 60, "duration": 7, "velocity": 75}, {"time": 318, "pitch": 69, "duration": 13, "velocity": 82}, {"time": 324, "pitch": 60, "duration": 8, "velocity": 72}, {"time": 330, "pitch": 65, "duration": 4, "velocity": 83}, {"time": 342, "pitch": 52, "duration": 22, "velocity": 86}, {"time": 342, "pitch": 64, "duration": 10, "velocity": 86}, {"time": 348, "pitch": 60, "duration": 5, "velocity": 74}, {"time": 354, "pitch": 67, "duration": 10, "velocity": 75}, {"time": 360, "pitch": 64, "duration": 7, "velocity": 86}, {"time": 366, "pitch": 49, "duration": 17, "velocity": 90}, {"time": 372, "pitch": 61, "duration": 7, "velocity": 78}, {"time": 378, "pitch": 64, "duration": 9, "velocity": 85}, {"time": 384, "pitch": 61, "duration": 3, "velocity": 70}, {"time": 390, "pitch": 50, "duration": 20, "velocity": 82}, {"time": 390, "pitch": 62, "duration": 13, "velocity": 79}, {"time": 396, "pitch": 57, "duration": 8, "velocity": 74}, {"time": 402, "pitch": 65, "duration": 14, "velocity": 82}, {"time": 408, "pitch": 57, "duration": 8, "velocity": 78}, {"time": 414, "pitch": 50, "duration": 17, "velocity": 85}, {"time": 414, "pitch": 62, "duration": 10, "velocity": 85}, {"time": 420, "pitch": 57, "duration": 7, "velocity": 78}, {"time": 426, "pitch": 65, "duration": 13, "velocity": 84}, {"time": 438, "pitch": 45, "duration": 39, "velocity": 83}, {"time": 438, "pitch": 60, "duration": 13, "velocity": 80}, {"time": 444, "pitch": 52, "duration": 20, "velocity": 78}, {"time": 450, "pitch": 55, "duration": 7, "velocity": 86}, {"time": 456, "pitch": 60, "duration": 4, "velocity": 90}, {"time": 462, "pitch": 64, "duration": 12, "velocity": 88}, {"time": 468, "pitch": 52, "duration": 9, "velocity": 69}, {"time": 474, "pitch": 57, "duration": 3, "velocity": 81}, {"time": 474, "pitch": 60, "duration": 3, "velocity": 84}, {"time": 486, "pitch": 46, "duration": 16, "velocity": 79}, {"time": 486, "pitch": 62, "duration": 13, "velocity": 83}, {"time": 492, "pitch": 53, "duration": 10, "velocity": 73}, {"time": 498, "pitch": 58, "duration": 5, "velocity": 85}, {"time": 510, "pitch": 48, "duration": 14, "velocity": 86}, {"time": 510, "pitch": 60, "duration": 8, "velocity": 75}, {"time": 510, "pitch": 64, "duration": 13, "velocity": 85}, {"time": 516, "pitch": 55, "duration": 8, "velocity": 80}, {"time": 522, "pitch": 60, "duration": 3, "velocity": 87}, {"time": 534, "pitch": 45, "duration": 22, "velocity": 86}, {"time": 534, "pitch": 57, "duration": 8, "velocity": 80}, {"time": 540, "pitch": 52, "duration": 16, "velocity": 78}, {"time": 546, "pitch": 57, "duration": 3, "velocity": 83}, {"time": 546, "pitch": 61, "duration": 6, "velocity": 86}, {"time": 552, "pitch": 57, "duration": 8, "velocity": 81}, {"time": 558, "pitch": 50, "duration": 12, "velocity": 85}, {"time": 558, "pitch": 62, "duration": 13, "velocity": 83}, {"time": 564, "pitch": 57, "duration": 8, "velocity": 71}, {"time": 570, "pitch": 65, "duration": 8, "velocity": 76}, {"time": 582, "pitch": 46, "duration": 40, "velocity": 78}, {"time": 582, "pitch": 58, "duration": 13, "velocity": 82}, {"time": 588, "pitch": 53, "duration": 19, "velocity": 84}, {"time": 594, "pitch": 61, "duration": 23, "velocity": 87}, {"time": 600, "pitch": 58, "duration": 17, "velocity": 77}, {"time": 606, "pitch": 65, "duration": 16, "velocity": 70}, {"time": 630, "pitch": 48, "duration": 21, "velocity": 86}, {"time": 630, "pitch": 60, "duration": 9, "velocity": 81}, {"time": 630, "pitch": 65, "duration": 13, "velocity": 82}, {"time": 636, "pitch": 55, "duration": 16, "velocity": 82}, {"time": 642, "pitch": 60, "duration": 7, "velocity": 89}, {"time": 648, "pitch": 65, "duration": 6, "velocity": 87}, {"time": 654, "pitch": 48, "duration": 23, "velocity": 86}, {"time": 654, "pitch": 60, "duration": 9, "velocity": 77}, {"time": 654, "pitch": 64, "duration": 13, "velocity": 86}, {"time": 660, "pitch": 55, "duration": 17, "velocity": 70}, {"time": 666, "pitch": 60, "duration": 11, "velocity": 86}, {"time": 678, "pitch": 53, "duration": 49, "velocity": 76}, {"time": 678, "pitch": 65, "duration": 11, "velocity": 81}, {"time": 684, "pitch": 60, "duration": 7, "velocity": 75}, {"time": 690, "pitch": 67, "duration": 6, "velocity": 84}, {"time": 696, "pitch": 60, "duration": 7, "velocity": 75}, {"time": 702, "pitch": 69, "duration": 13, "velocity": 82}, {"time": 708, "pitch": 60, "duration": 8, "velocity": 72}, {"time": 714, "pitch": 65, "duration": 4, "velocity": 83}, {"time": 726, "pitch": 52, "duration": 22, "velocity": 86}, {"time": 726, "pitch": 64, "duration": 10, "velocity": 86}, {"time": 732, "pitch": 60, "duration": 5, "velocity": 74}, {"time": 738, "pitch": 67, "duration": 10, "velocity": 75}, {"time": 744, "pitch": 64, "duration": 7, "velocity": 86}, {"time": 750, "pitch": 49, "duration": 17, "velocity": 90}, {"time": 756, "pitch": 61, "duration": 7, "velocity": 78}, {"time": 762, "pitch": 64, "duration": 9, "velocity": 85}, {"time": 768, "pitch": 61, "duration": 3, "velocity": 70}, {"time": 774, "pitch": 50, "duration": 20, "velocity": 82}, {"time": 774, "pitch": 62, "duration": 13, "velocity": 79}, {"time": 780, "pitch": 57, "duration": 8, "velocity": 74}, {"time": 786, "pitch": 65, "duration": 14, "velocity": 82}, {"time": 792, "pitch": 57, "duration": 8, "velocity": 78}, {"time": 798, "pitch": 50, "duration": 17, "velocity": 85}, {"time": 798, "pitch": 62, "duration": 10, "velocity": 85}, {"time": 804, "pitch": 57, "duration": 7, "velocity": 78}, {"time": 810, "pitch": 65, "duration": 13, "velocity": 84}, {"time": 822, "pitch": 45, "duration": 39, "velocity": 83}, {"time": 822, "pitch": 60, "duration": 13, "velocity": 80}, {"time": 828, "pitch": 52, "duration": 20, "velocity": 78}, {"time": 834, "pitch": 55, "duration": 7, "velocity": 86}, {"time": 840, "pitch": 60, "duration": 4, "velocity": 90}, {"time": 846, "pitch": 64, "duration": 12, "velocity": 88}, {"time": 852, "pitch": 52, "duration": 9, "velocity": 69}, {"time": 858, "pitch": 57, "duration": 3, "velocity": 81}, {"time": 858, "pitch": 60, "duration": 3, "velocity": 84}, {"time": 870, "pitch": 46, "duration": 16, "velocity": 79}, {"time": 870, "pitch": 62, "duration": 13, "velocity": 83}, {"time": 876, "pitch": 53, "duration": 10, "velocity": 73}, {"time": 882, "pitch": 58, "duration": 5, "velocity": 85}, {"time": 894, "pitch": 48, "duration": 14, "velocity": 86}, {"time": 894, "pitch": 60, "duration": 8, "velocity": 75}, {"time": 894, "pitch": 64, "duration": 13, "velocity": 85}, {"time": 900, "pitch": 55, "duration": 8, "velocity": 80}, {"time": 906, "pitch": 60, "duration": 3, "velocity": 87}, {"time": 918, "pitch": 45, "duration": 22, "velocity": 86}, {"time": 918, "pitch": 57, "duration": 8, "velocity": 80}, {"time": 924, "pitch": 52, "duration": 16, "velocity": 78}, {"time": 930, "pitch": 57, "duration": 3, "velocity": 83}, {"time": 930, "pitch": 61, "duration": 6, "velocity": 86}, {"time": 936, "pitch": 57, "duration": 8, "velocity": 81}, {"time": 942, "pitch": 50, "duration": 12, "velocity": 85}, {"time": 942, "pitch": 62, "duration": 13, "velocity": 83}, {"time": 948, "pitch": 57, "duration": 8, "velocity": 71}, {"time": 954, "pitch": 65, "duration": 8, "velocity": 76}, {"time": 966, "pitch": 46, "duration": 16, "velocity": 86}, {"time": 966, "pitch": 58, "duration": 9, "velocity": 83}, {"time": 972, "pitch": 53, "duration": 7, "velocity": 82}, {"time": 978, "pitch": 58, "duration": 4, "velocity": 69}, {"time": 978, "pitch": 65, "duration": 9, "velocity": 89}, {"time": 984, "pitch": 53, "duration": 2, "velocity": 88}, {"time": 990, "pitch": 48, "duration": 15, "velocity": 86}, {"time": 990, "pitch": 60, "duration": 8, "velocity": 78}, {"time": 990, "pitch": 64, "duration": 10, "velocity": 83}, {"time": 996, "pitch": 55, "duration": 8, "velocity": 78}, {"time": 1002, "pitch": 60, "duration": 13, "velocity": 86}, {"time": 1014, "pitch": 41, "duration": 48, "velocity": 81}, {"time": 1014, "pitch": 65, "duration": 10, "velocity": 85}, {"time": 1020, "pitch": 48, "duration": 9, "velocity": 69}, {"time": 1026, "pitch": 60, "duration": 5, "velocity": 84}, {"time": 1026, "pitch": 65, "duration": 10, "velocity": 77}, {"time": 1032, "pitch": 60, "duration": 6, "velocity": 86}, {"time": 1038, "pitch": 48, "duration": 23, "velocity": 83}, {"time": 1038, "pitch": 60, "duration": 3, "velocity": 67}, {"time": 1038, "pitch": 67, "duration": 8, "velocity": 74}, {"time": 1044, "pitch": 60, "duration": 4, "velocity": 70}, {"time": 1050, "pitch": 65, "duration": 12, "velocity": 86}, {"time": 1050, "pitch": 69, "duration": 12, "velocity": 85}, {"time": 1056, "pitch": 60, "duration": 6, "velocity": 86}, {"time": 1062, "pitch": 43, "duration": 17, "velocity": 86}, {"time": 1062, "pitch": 55, "duration": 14, "velocity": 79}, {"time": 1062, "pitch": 62, "duration": 13, "velocity": 80}, {"time": 1068, "pitch": 50, "duration": 10, "velocity": 72}, {"time": 1074, "pitch": 58, "duration": 6, "velocity": 87}, {"time": 1086, "pitch": 45, "duration": 19, "velocity": 85}, {"time": 1086, "pitch": 57, "duration": 6, "velocity": 80}, {"time": 1086, "pitch": 61, "duration": 8, "velocity": 69}, {"time": 1092, "pitch": 52, "duration": 11, "velocity": 81}, {"time": 1098, "pitch": 57, "duration": 4, "velocity": 87}, {"time": 1104, "pitch": 61, "duration": 5, "velocity": 92}, {"time": 1110, "pitch": 50, "duration": 16, "velocity": 86}, {"time": 1110, "pitch": 62, "duration": 10, "velocity": 86}, {"time": 1116, "pitch": 57, "duration": 8, "velocity": 81}, {"time": 1122, "pitch": 62, "duration": 2, "velocity": 80}, {"time": 1122, "pitch": 65, "duration": 4, "velocity": 85}, {"time": 1134, "pitch": 41, "duration": 19, "velocity": 85}, {"time": 1134, "pitch": 60, "duration": 5, "velocity": 70}, {"time": 1134, "pitch": 63, "duration": 11, "velocity": 75}, {"time": 1140, "pitch": 48, "duration": 12, "velocity": 75}, {"time": 1146, "pitch": 53, "duration": 4, "velocity": 79}, {"time": 1146, "pitch": 57, "duration": 5, "velocity": 77}, {"time": 1158, "pitch": 46, "duration": 12, "velocity": 84}, {"time": 1158, "pitch": 62, "duration": 8, "velocity": 82}, {"time": 1164, "pitch": 53, "duration": 7, "velocity": 85}, {"time": 1170, "pitch": 58, "duration": 5, "velocity": 92}, {"time": 1176, "pitch": 53, "duration": 3, "velocity": 86}, {"time": 1182, "pitch": 48, "duration": 15, "velocity": 85}, {"time": 1182, "pitch": 55, "duration": 3, "velocity": 71}, {"time": 1182, "pitch": 60, "duration": 8, "velocity": 78}, {"time": 1188, "pitch": 55, "duration": 7, "velocity": 80}, {"time": 1194, "pitch": 60, "duration": 2, "velocity": 86}, {"time": 1194, "pitch": 64, "duration": 3, "velocity": 90}, {"time": 1206, "pitch": 41, "duration": 27, "velocity": 83}, {"time": 1206, "pitch": 57, "duration": 12, "velocity": 76}, {"time": 1206, "pitch": 60, "duration": 13, "velocity": 81}, {"time": 1212, "pitch": 48, "duration": 20, "velocity": 71}, {"time": 1218, "pitch": 65, "duration": 10, "velocity": 86}, {"time": 1224, "pitch": 57, "duration": 4, "velocity": 77}, {"time": 1230, "pitch": 57, "duration": 3, "velocity": 81}, {"time": 1230, "pitch": 60, "duration": 3, "velocity": 79}, {"time": 1242, "pitch": 45, "duration": 11, "velocity": 86}, {"time": 1242, "pitch": 57, "duration": 7, "velocity": 81}, {"time": 1242, "pitch": 61, "duration": 8, "velocity": 82}, {"time": 1248, "pitch": 52, "duration": 5, "velocity": 83}, {"time": 1254, "pitch": 50, "duration": 17, "velocity": 89}, {"time": 1254, "pitch": 65, "duration": 12, "velocity": 87}, {"time": 1260, "pitch": 57, "duration": 18, "velocity": 77}, {"time": 1266, "pitch": 62, "duration": 8, "velocity": 86}, {"time": 1272, "pitch": 65, "duration": 7, "velocity": 79}, {"time": 1278, "pitch": 49, "duration": 21, "velocity": 83}, {"time": 1278, "pitch": 64, "duration": 12, "velocity": 87}, {"time": 1284, "pitch": 57, "duration": 19, "velocity": 68}, {"time": 1290, "pitch": 61, "duration": 4, "velocity": 85}, {"time": 1302, "pitch": 48, "duration": 20, "velocity": 85}, {"time": 1302, "pitch": 64, "duration": 13, "velocity": 86}, {"time": 1308, "pitch": 57, "duration": 15, "velocity": 73}, {"time": 1314, "pitch": 60, "duration": 7, "velocity": 87}, {"time": 1320, "pitch": 64, "duration": 8, "velocity": 86}, {"time": 1326, "pitch": 47, "duration": 17, "velocity": 85}, {"time": 1326, "pitch": 62, "duration": 14, "velocity": 83}, {"time": 1332, "pitch": 53, "duration": 11, "velocity": 71}, {"time": 1338, "pitch": 59, "duration": 5, "velocity": 79}, {"time": 1350, "pitch": 46, "duration": 22, "velocity": 74}, {"time": 1350, "pitch": 58, "duration": 5, "velocity": 75}, {"time": 1350, "pitch": 62, "duration": 7, "velocity": 80}, {"time": 1356, "pitch": 58, "duration": 10, "velocity": 85}, {"time": 1362, "pitch": 65, "duration": 10, "velocity": 84}, {"time": 1374, "pitch": 46, "duration": 17, "velocity": 89}, {"time": 1380, "pitch": 53, "duration": 7, "velocity": 74}, {"time": 1386, "pitch": 58, "duration": 6, "velocity": 81}, {"time": 1386, "pitch": 61, "duration": 7, "velocity": 83}, {"time": 1392, "pitch": 53, "duration": 2, "velocity": 80}, {"time": 1398, "pitch": 48, "duration": 21, "velocity": 86}, {"time": 1398, "pitch": 60, "duration": 7, "velocity": 82}, {"time": 1404, "pitch": 55, "duration": 7, "velocity": 80}, {"time": 1410, "pitch": 60, "duration": 7, "velocity": 86}, {"time": 1410, "pitch": 65, "duration": 8, "velocity": 84}, {"time": 1416, "pitch": 55, "duration": 7, "velocity": 87}, {"time": 1422, "pitch": 48, "duration": 22, "velocity": 87}, {"time": 1422, "pitch": 60, "duration": 7, "velocity": 85}, {"time": 1422, "pitch": 64, "duration": 7, "velocity": 87}, {"time": 1428, "pitch": 55, "duration": 4, "velocity": 81}, {"time": 1434, "pitch": 55, "duration": 3, "velocity": 86}, {"time": 1434, "pitch": 60, "duration": 10, "velocity": 86}, {"time": 1440, "pitch": 55, "duration": 4, "velocity": 76}, {"time": 1446, "pitch": 48, "duration": 46, "velocity": 92}, {"time": 1446, "pitch": 55, "duration": 4, "velocity": 86}, {"time": 1446, "pitch": 60, "duration": 9, "velocity": 85}, {"time": 1452, "pitch": 55, "duration": 3, "velocity": 71}, {"time": 1458, "pitch": 62, "duration": 8, "velocity": 77}, {"time": 1464, "pitch": 55, "duration": 3, "velocity": 70}, {"time": 1470, "pitch": 55, "duration": 21, "velocity": 86}, {"time": 1470, "pitch": 60, "duration": 22, "velocity": 85}, {"time": 1470, "pitch": 64, "duration": 22, "velocity": 87}, {"time": 1494, "pitch": 41, "duration": 23, "velocity": 86}, {"time": 1494, "pitch": 57, "duration": 7, "velocity": 81}, {"time": 1494, "pitch": 65, "duration": 6, "velocity": 84}, {"time": 1500, "pitch": 48, "duration": 17, "velocity": 69}, {"time": 1506, "pitch": 57, "duration": 3, "velocity": 85}, {"time": 1506, "pitch": 60, "duration": 3, "velocity": 88}, {"time": 1506, "pitch": 65, "duration": 3, "velocity": 85}, {"time": 1515, "pitch": 57, "duration": 4, "velocity": 75}, {"time": 1518, "pitch": 41, "duration": 16, "velocity": 85}, {"time": 1518, "pitch": 60, "duration": 8, "velocity": 86}, {"time": 1518, "pitch": 65, "duration": 7, "velocity": 86}, {"time": 1524, "pitch": 48, "duration": 8, "velocity": 76}, {"time": 1527, "pitch": 57, "duration": 2, "velocity": 79}, {"time": 1530, "pitch": 57, "duration": 1, "velocity": 68}, {"time": 1530, "pitch": 60, "duration": 4, "velocity": 91}, {"time": 1530, "pitch": 65, "duration": 9, "velocity": 88}, {"time": 1536, "pitch": 57, "duration": 3, "velocity": 80}, {"time": 1542, "pitch": 48, "duration": 21, "velocity": 89}, {"time": 1542, "pitch": 55, "duration": 5, "velocity": 85}, {"time": 1542, "pitch": 64, "duration": 7, "velocity": 86}, {"time": 1548, "pitch": 55, "duration": 3, "velocity": 77}, {"time": 1554, "pitch": 55, "duration": 4, "velocity": 87}, {"time": 1554, "pitch": 60, "duration": 4, "velocity": 87}, {"time": 1563, "pitch": 55, "duration": 3, "velocity": 71}, {"time": 1566, "pitch": 45, "duration": 17, "velocity": 86}, {"time": 1566, "pitch": 57, "duration": 6, "velocity": 85}, {"time": 1566, "pitch": 61, "duration": 7, "velocity": 92}, {"time": 1572, "pitch": 52, "duration": 8, "velocity": 90}, {"time": 1578, "pitch": 57, "duration": 2, "velocity": 89}, {"time": 1578, "pitch": 61, "duration": 3, "velocity": 99}, {"time": 1581, "pitch": 52, "duration": 3, "velocity": 89}, {"time": 1584, "pitch": 57, "duration": 4, "velocity": 87}, {"time": 1587, "pitch": 61, "duration": 2, "velocity": 92}, {"time": 1590, "pitch": 50, "duration": 21, "velocity": 88}, {"time": 1590, "pitch": 57, "duration": 4, "velocity": 71}, {"time": 1590, "pitch": 62, "duration": 7, "velocity": 87}, {"time": 1596, "pitch": 57, "duration": 2, "velocity": 79}, {"time": 1602, "pitch": 57, "duration": 2, "velocity": 86}, {"time": 1602, "pitch": 62, "duration": 3, "velocity": 87}, {"time": 1602, "pitch": 65, "duration": 5, "velocity": 84}, {"time": 1605, "pitch": 57, "duration": 4, "velocity": 84}, {"time": 1608, "pitch": 62, "duration": 4, "velocity": 83}, {"time": 1611, "pitch": 65, "duration": 4, "velocity": 86}, {"time": 1614, "pitch": 48, "duration": 15, "velocity": 92}, {"time": 1614, "pitch": 64, "duration": 9, "velocity": 89}, {"time": 1620, "pitch": 55, "duration": 4, "velocity": 84}, {"time": 1626, "pitch": 55, "duration": 3, "velocity": 91}, {"time": 1626, "pitch": 60, "duration": 5, "velocity": 94}, {"time": 1632, "pitch": 55, "duration": 3, "velocity": 81}, {"time": 1638, "pitch": 47, "duration": 22, "velocity": 86}, {"time": 1638, "pitch": 59, "duration": 8, "velocity": 84}, {"time": 1638, "pitch": 62, "duration": 8, "velocity": 85}, {"time": 1644, "pitch": 53, "duration": 16, "velocity": 75}, {"time": 1647, "pitch": 65, "duration": 8, "velocity": 89}, {"time": 1653, "pitch": 59, "duration": 10, "velocity": 86}, {"time": 1656, "pitch": 62, "duration": 11, "velocity": 85}, {"time": 1659, "pitch": 65, "duration": 12, "velocity": 85}, {"time": 1662, "pitch": 47, "duration": 17, "velocity": 88}, {"time": 1665, "pitch": 53, "duration": 10, "velocity": 80}, {"time": 1668, "pitch": 59, "duration": 4, "velocity": 77}, {"time": 1671, "pitch": 62, "duration": 2, "velocity": 85}, {"time": 1674, "pitch": 59, "duration": 4, "velocity": 82}, {"time": 1674, "pitch": 62, "duration": 5, "velocity": 86}, {"time": 1674, "pitch": 65, "duration": 4, "velocity": 84}, {"time": 1674, "pitch": 71, "duration": 5, "velocity": 86}, {"time": 1677, "pitch": 53, "duration": 3, "velocity": 81}, {"time": 1680, "pitch": 47, "duration": 2, "velocity": 81}, {"time": 1686, "pitch": 43, "duration": 23, "velocity": 85}, {"time": 1686, "pitch": 55, "duration": 9, "velocity": 78}, {"time": 1686, "pitch": 58, "duration": 8, "velocity": 79}, {"time": 1692, "pitch": 50, "duration": 7, "velocity": 73}, {"time": 1698, "pitch": 55, "duration": 1, "velocity": 77}, {"time": 1698, "pitch": 58, "duration": 6, "velocity": 89}, {"time": 1698, "pitch": 62, "duration": 10, "velocity": 87}, {"time": 1701, "pitch": 50, "duration": 5, "velocity": 85}, {"time": 1704, "pitch": 55, "duration": 5, "velocity": 85}, {"time": 1707, "pitch": 58, "duration": 2, "velocity": 81}, {"time": 1710, "pitch": 48, "duration": 15, "velocity": 88}, {"time": 1710, "pitch": 55, "duration": 4, "velocity": 81}, {"time": 1710, "pitch": 60, "duration": 7, "velocity": 86}, {"time": 1716, "pitch": 55, "duration": 2, "velocity": 86}, {"time": 1722, "pitch": 55, "duration": 3, "velocity": 88}, {"time": 1722, "pitch": 60, "duration": 6, "velocity": 89}, {"time": 1722, "pitch": 64, "duration": 8, "velocity": 89}, {"time": 1728, "pitch": 55, "duration": 2, "velocity": 87}, {"time": 1734, "pitch": 45, "duration": 18, "velocity": 86}, {"time": 1734, "pitch": 57, "duration": 4, "velocity": 86}, {"time": 1734, "pitch": 61, "duration": 6, "velocity": 92}, {"time": 1737, "pitch": 52, "duration": 7, "velocity": 87}, {"time": 1740, "pitch": 57, "duration": 4, "velocity": 86}, {"time": 1743, "pitch": 61, "duration": 6, "velocity": 94}, {"time": 1746, "pitch": 52, "duration": 6, "velocity": 85}, {"time": 1749, "pitch": 57, "duration": 4, "velocity": 75}, {"time": 1752, "pitch": 61, "duration": 3, "velocity": 82}, {"time": 1755, "pitch": 57, "duration": 2, "velocity": 78}, {"time": 1758, "pitch": 50, "duration": 14, "velocity": 89}, {"time": 1758, "pitch": 57, "duration": 1, "velocity": 76}, {"time": 1758, "pitch": 62, "duration": 7, "velocity": 86}, {"time": 1764, "pitch": 57, "duration": 3, "velocity": 82}, {"time": 1770, "pitch": 57, "duration": 2, "velocity": 87}, {"time": 1770, "pitch": 62, "duration": 3, "velocity": 87}, {"time": 1770, "pitch": 65, "duration": 6, "velocity": 87}, {"time": 1773, "pitch": 50, "duration": 2, "velocity": 87}, {"time": 1776, "pitch": 64, "duration": 4, "velocity": 96}, {"time": 1776, "pitch": 65, "duration": 1, "velocity": 57}, {"time": 1779, "pitch": 57, "duration": 3, "velocity": 73}, {"time": 1782, "pitch": 43, "duration": 16, "velocity": 86}, {"time": 1782, "pitch": 62, "duration": 9, "velocity": 83}, {"time": 1788, "pitch": 50, "duration": 8, "velocity": 81}, {"time": 1794, "pitch": 55, "duration": 3, "velocity": 79}, {"time": 1794, "pitch": 58, "duration": 3, "velocity": 91}, {"time": 1794, "pitch": 62, "duration": 3, "velocity": 86}, {"time": 1806, "pitch": 43, "duration": 16, "velocity": 87}, {"time": 1806, "pitch": 67, "duration": 5, "velocity": 86}, {"time": 1809, "pitch": 50, "duration": 7, "velocity": 76}, {"time": 1812, "pitch": 55, "duration": 3, "velocity": 87}, {"time": 1815, "pitch": 62, "duration": 5, "velocity": 87}, {"time": 1818, "pitch": 50, "duration": 4, "velocity": 85}, {"time": 1821, "pitch": 58, "duration": 3, "velocity": 88}, {"time": 1824, "pitch": 55, "duration": 3, "velocity": 87}, {"time": 1830, "pitch": 48, "duration": 20, "velocity": 92}, {"time": 1830, "pitch": 55, "duration": 3, "velocity": 87}, {"time": 1830, "pitch": 60, "duration": 7, "velocity": 87}, {"time": 1836, "pitch": 55, "duration": 2, "velocity": 85}, {"time": 1839, "pitch": 55, "duration": 5, "velocity": 86}, {"time": 1839, "pitch": 62, "duration": 7, "velocity": 90}, {"time": 1845, "pitch": 60, "duration": 2, "velocity": 91}, {"time": 1848, "pitch": 55, "duration": 2, "velocity": 87}, {"time": 1851, "pitch": 55, "duration": 4, "velocity": 88}, {"time": 1851, "pitch": 64, "duration": 7, "velocity": 90}, {"time": 1854, "pitch": 48, "duration": 21, "velocity": 94}, {"time": 1857, "pitch": 55, "duration": 3, "velocity": 90}, {"time": 1860, "pitch": 62, "duration": 3, "velocity": 86}, {"time": 1863, "pitch": 55, "duration": 2, "velocity": 87}, {"time": 1866, "pitch": 60, "duration": 3, "velocity": 86}, {"time": 1869, "pitch": 55, "duration": 3, "velocity": 75}, {"time": 1872, "pitch": 58, "duration": 3, "velocity": 85}, {"time": 1875, "pitch": 55, "duration": 3, "velocity": 85}, {"time": 1878, "pitch": 41, "duration": 23, "velocity": 86}, {"time": 1878, "pitch": 57, "duration": 7, "velocity": 81}, {"time": 1878, "pitch": 65, "duration": 6, "velocity": 84}, {"time": 1884, "pitch": 48, "duration": 17, "velocity": 69}, {"time": 1890, "pitch": 57, "duration": 3, "velocity": 85}, {"time": 1890, "pitch": 60, "duration": 3, "velocity": 88}, {"time": 1890, "pitch": 65, "duration": 3, "velocity": 85}, {"time": 1899, "pitch": 57, "duration": 4, "velocity": 75}, {"time": 1902, "pitch": 41, "duration": 16, "velocity": 85}, {"time": 1902, "pitch": 60, "duration": 8, "velocity": 86}, {"time": 1902, "pitch": 65, "duration": 7, "velocity": 86}, {"time": 1908, "pitch": 48, "duration": 8, "velocity": 76}, {"time": 1911, "pitch": 57, "duration": 2, "velocity": 79}, {"time": 1914, "pitch": 57, "duration": 1, "velocity": 68}, {"time": 1914, "pitch": 60, "duration": 4, "velocity": 91}, {"time": 1914, "pitch": 65, "duration": 9, "velocity": 88}, {"time": 1920, "pitch": 57, "duration": 3, "velocity": 80}, {"time": 1926, "pitch": 48, "duration": 21, "velocity": 89}, {"time": 1926, "pitch": 55, "duration": 5, "velocity": 85}, {"time": 1926, "pitch": 64, "duration": 7, "velocity": 86}, {"time": 1932, "pitch": 55, "duration": 3, "velocity": 77}, {"time": 1938, "pitch": 55, "duration": 4, "velocity": 87}, {"time": 1938, "pitch": 60, "duration": 4, "velocity": 87}, {"time": 1947, "pitch": 55, "duration": 3, "velocity": 71}, {"time": 1950, "pitch": 45, "duration": 17, "velocity": 86}, {"time": 1950, "pitch": 57, "duration": 6, "velocity": 85}, {"time": 1950, "pitch": 61, "duration": 7, "velocity": 92}, {"time": 1956, "pitch": 52, "duration": 8, "velocity": 90}, {"time": 1962, "pitch": 57, "duration": 2, "velocity": 89}, {"time": 1962, "pitch": 61, "duration": 3, "velocity": 99}, {"time": 1965, "pitch": 52, "duration": 3, "velocity": 89}, {"time": 1968, "pitch": 57, "duration": 4, "velocity": 87}, {"time": 1971, "pitch": 61, "duration": 2, "velocity": 92}, {"time": 1974, "pitch": 50, "duration": 21, "velocity": 88}, {"time": 1974, "pitch": 57, "duration": 4, "velocity": 71}, {"time": 1974, "pitch": 62, "duration": 7, "velocity": 87}, {"time": 1980, "pitch": 57, "duration": 2, "velocity": 79}, {"time": 1986, "pitch": 57, "duration": 2, "velocity": 86}, {"time": 1986, "pitch": 62, "duration": 3, "velocity": 87}, {"time": 1986, "pitch": 65, "duration": 5, "velocity": 84}, {"time": 1989, "pitch": 57, "duration": 4, "velocity": 84}, {"time": 1992, "pitch": 62, "duration": 4, "velocity": 83}, {"time": 1995, "pitch": 65, "duration": 4, "velocity": 86}, {"time": 1998, "pitch": 48, "duration": 15, "velocity": 92}, {"time": 1998, "pitch": 64, "duration": 9, "velocity": 89}, {"time": 2004, "pitch": 55, "duration": 4, "velocity": 84}, {"time": 2010, "pitch": 55, "duration": 3, "velocity": 91}, {"time": 2010, "pitch": 60, "duration": 5, "velocity": 94}, {"time": 2016, "pitch": 55, "duration": 3, "velocity": 81}, {"time": 2022, "pitch": 47, "duration": 22, "velocity": 86}, {"time": 2022, "pitch": 59, "duration": 8, "velocity": 84}, {"time": 2022, "pitch": 62, "duration": 8, "velocity": 85}, {"time": 2028, "pitch": 53, "duration": 16, "velocity": 75}, {"time": 2031, "pitch": 65, "duration": 8, "velocity": 89}, {"time": 2037, "pitch": 59, "duration": 10, "velocity": 86}, {"time": 2040, "pitch": 62, "duration": 11, "velocity": 85}, {"time": 2043, "pitch": 65, "duration": 12, "velocity": 85}, {"time": 2046, "pitch": 47, "duration": 17, "velocity": 88}, {"time": 2049, "pitch": 53, "duration": 10, "velocity": 80}, {"time": 2052, "pitch": 59, "duration": 4, "velocity": 77}, {"time": 2055, "pitch": 62, "duration": 2, "velocity": 85}, {"time": 2058, "pitch": 59, "duration": 4, "velocity": 82}, {"time": 2058, "pitch": 62, "duration": 5, "velocity": 86}, {"time": 2058, "pitch": 65, "duration": 4, "velocity": 84}, {"time": 2058, "pitch": 71, "duration": 5, "velocity": 86}, {"time": 2061, "pitch": 53, "duration": 3, "velocity": 81}, {"time": 2064, "pitch": 47, "duration": 2, "velocity": 81}, {"time": 2070, "pitch": 43, "duration": 19, "velocity": 86}, {"time": 2070, "pitch": 65, "duration": 7, "velocity": 86}, {"time": 2073, "pitch": 50, "duration": 8, "velocity": 85}, {"time": 2076, "pitch": 55, "duration": 2, "velocity": 87}, {"time": 2079, "pitch": 55, "duration": 5, "velocity": 87}, {"time": 2079, "pitch": 62, "duration": 4, "velocity": 85}, {"time": 2082, "pitch": 50, "duration": 4, "velocity": 87}, {"time": 2085, "pitch": 55, "duration": 2, "velocity": 86}, {"time": 2085, "pitch": 58, "duration": 4, "velocity": 86}, {"time": 2085, "pitch": 62, "duration": 4, "velocity": 89}, {"time": 2088, "pitch": 50, "duration": 2, "velocity": 85}, {"time": 2094, "pitch": 45, "duration": 19, "velocity": 87}, {"time": 2094, "pitch": 57, "duration": 4, "velocity": 86}, {"time": 2094, "pitch": 61, "duration": 5, "velocity": 81}, {"time": 2097, "pitch": 52, "duration": 7, "velocity": 85}, {"time": 2100, "pitch": 55, "duration": 5, "velocity": 89}, {"time": 2103, "pitch": 61, "duration": 3, "velocity": 92}, {"time": 2106, "pitch": 52, "duration": 5, "velocity": 84}, {"time": 2109, "pitch": 57, "duration": 6, "velocity": 85}, {"time": 2109, "pitch": 64, "duration": 8, "velocity": 87}, {"time": 2115, "pitch": 57, "duration": 3, "velocity": 88}, {"time": 2118, "pitch": 45, "duration": 18, "velocity": 86}, {"time": 2118, "pitch": 57, "duration": 4, "velocity": 86}, {"time": 2118, "pitch": 61, "duration": 1, "velocity": 76}, {"time": 2118, "pitch": 61, "duration": 1, "velocity": 92}, {"time": 2121, "pitch": 52, "duration": 7, "velocity": 87}, {"time": 2124, "pitch": 57, "duration": 4, "velocity": 86}, {"time": 2127, "pitch": 61, "duration": 6, "velocity": 94}, {"time": 2130, "pitch": 52, "duration": 6, "velocity": 85}, {"time": 2133, "pitch": 57, "duration": 4, "velocity": 75}, {"time": 2136, "pitch": 61, "duration": 3, "velocity": 82}, {"time": 2139, "pitch": 57, "duration": 2, "velocity": 78}, {"time": 2142, "pitch": 50, "duration": 14, "velocity": 89}, {"time": 2142, "pitch": 57, "duration": 1, "velocity": 76}, {"time": 2142, "pitch": 62, "duration": 7, "velocity": 86}, {"time": 2148, "pitch": 57, "duration": 3, "velocity": 82}, {"time": 2154, "pitch": 57, "duration": 2, "velocity": 87}, {"time": 2154, "pitch": 62, "duration": 3, "velocity": 87}, {"time": 2154, "pitch": 65, "duration": 6, "velocity": 87}, {"time": 2157, "pitch": 50, "duration": 2, "velocity": 87}, {"time": 2160, "pitch": 64, "duration": 4, "velocity": 96}, {"time": 2160, "pitch": 65, "duration": 1, "velocity": 57}, {"time": 2163, "pitch": 57, "duration": 3, "velocity": 73}, {"time": 2166, "pitch": 43, "duration": 16, "velocity": 86}, {"time": 2166, "pitch": 62, "duration": 9, "velocity": 83}, {"time": 2172, "pitch": 50, "duration": 8, "velocity": 81}, {"time": 2178, "pitch": 55, "duration": 3, "velocity": 79}, {"time": 2178, "pitch": 58, "duration": 3, "velocity": 91}, {"time": 2178, "pitch": 62, "duration": 3, "velocity": 86}, {"time": 2190, "pitch": 43, "duration": 16, "velocity": 87}, {"time": 2190, "pitch": 67, "duration": 5, "velocity": 86}, {"time": 2193, "pitch": 50, "duration": 7, "velocity": 76}, {"time": 2196, "pitch": 55, "duration": 3, "velocity": 87}, {"time": 2199, "pitch": 62, "duration": 5, "velocity": 87}, {"time": 2202, "pitch": 50, "duration": 4, "velocity": 85}, {"time": 2205, "pitch": 58, "duration": 3, "velocity": 88}, {"time": 2208, "pitch": 55, "duration": 3, "velocity": 87}, {"time": 2214, "pitch": 48, "duration": 20, "velocity": 92}, {"time": 2214, "pitch": 55, "duration": 3, "velocity": 87}, {"time": 2214, "pitch": 60, "duration": 7, "velocity": 87}, {"time": 2220, "pitch": 55, "duration": 2, "velocity": 85}, {"time": 2223, "pitch": 55, "duration": 5, "velocity": 86}, {"time": 2223, "pitch": 62, "duration": 7, "velocity": 90}, {"time": 2229, "pitch": 60, "duration": 2, "velocity": 91}, {"time": 2232, "pitch": 55, "duration": 2, "velocity": 87}, {"time": 2235, "pitch": 55, "duration": 4, "velocity": 88}, {"time": 2235, "pitch": 64, "duration": 7, "velocity": 90}, {"time": 2238, "pitch": 48, "duration": 21, "velocity": 94}, {"time": 2241, "pitch": 55, "duration": 3, "velocity": 90}, {"time": 2244, "pitch": 62, "duration": 3, "velocity": 86}, {"time": 2247, "pitch": 55, "duration": 2, "velocity": 87}, {"time": 2250, "pitch": 60, "duration": 3, "velocity": 86}, {"time": 2253, "pitch": 55, "duration": 3, "velocity": 75}, {"time": 2256, "pitch": 58, "duration": 3, "velocity": 85}, {"time": 2259, "pitch": 55, "duration": 3, "velocity": 85}, {"time": 2262, "pitch": 53, "duration": 15, "velocity": 80}, {"time": 2262, "pitch": 69, "duration": 14, "velocity": 79}, {"time": 2268, "pitch": 60, "duration": 8, "velocity": 70}, {"time": 2274, "pitch": 65, "duration": 4, "velocity": 76}, {"time": 2286, "pitch": 52, "duration": 15, "velocity": 85}, {"time": 2286, "pitch": 64, "duration": 7, "velocity": 78}, {"time": 2286, "pitch": 67, "duration": 13, "velocity": 75}, {"time": 2292, "pitch": 60, "duration": 8, "velocity": 72}, {"time": 2298, "pitch": 64, "duration": 6, "velocity": 81}, {"time": 2310, "pitch": 50, "duration": 15, "velocity": 81}, {"time": 2310, "pitch": 65, "duration": 12, "velocity": 79}, {"time": 2316, "pitch": 57, "duration": 8, "velocity": 65}, {"time": 2322, "pitch": 62, "duration": 5, "velocity": 85}, {"time": 2334, "pitch": 53, "duration": 15, "velocity": 80}, {"time": 2334, "pitch": 60, "duration": 4, "velocity": 76}, {"time": 2334, "pitch": 65, "duration": 9, "velocity": 78}, {"time": 2340, "pitch": 60, "duration": 7, "velocity": 80}, {"time": 2346, "pitch": 63, "duration": 6, "velocity": 76}, {"time": 2352, "pitch": 60, "duration": 5, "velocity": 61}, {"time": 2358, "pitch": 46, "duration": 21, "velocity": 79}, {"time": 2358, "pitch": 58, "duration": 8, "velocity": 74}, {"time": 2358, "pitch": 65, "duration": 13, "velocity": 82}, {"time": 2364, "pitch": 53, "duration": 16, "velocity": 64}, {"time": 2370, "pitch": 58, "duration": 6, "velocity": 85}, {"time": 2376, "pitch": 62, "duration": 6, "velocity": 79}, {"time": 2382, "pitch": 45, "duration": 17, "velocity": 74}, {"time": 2382, "pitch": 60, "duration": 13, "velocity": 83}, {"time": 2388, "pitch": 52, "duration": 11, "velocity": 80}, {"time": 2394, "pitch": 57, "duration": 8, "velocity": 80}, {"time": 2400, "pitch": 60, "duration": 6, "velocity": 81}, {"time": 2406, "pitch": 43, "duration": 45, "velocity": 85}, {"time": 2406, "pitch": 62, "duration": 13, "velocity": 80}, {"time": 2412, "pitch": 50, "duration": 21, "velocity": 74}, {"time": 2418, "pitch": 58, "duration": 8, "velocity": 88}, {"time": 2424, "pitch": 62, "duration": 10, "velocity": 85}, {"time": 2430, "pitch": 67, "duration": 7, "velocity": 85}, {"time": 2436, "pitch": 50, "duration": 10, "velocity": 67}, {"time": 2442, "pitch": 58, "duration": 6, "velocity": 74}, {"time": 2442, "pitch": 62, "duration": 12, "velocity": 80}, {"time": 2448, "pitch": 55, "duration": 7, "velocity": 86}, {"time": 2453, "pitch": 55, "duration": 2, "velocity": 65}, {"time": 2454, "pitch": 48, "duration": 17, "velocity": 86}, {"time": 2455, "pitch": 60, "duration": 15, "velocity": 78}, {"time": 2455, "pitch": 64, "duration": 15, "velocity": 80}, {"time": 2471, "pitch": 55, "duration": 29, "velocity": 77}, {"time": 2472, "pitch": 48, "duration": 28, "velocity": 85}, {"time": 2472, "pitch": 60, "duration": 28, "velocity": 81}, {"time": 2502, "pitch": 53, "duration": 49, "velocity": 76}, {"time": 2502, "pitch": 65, "duration": 11, "velocity": 81}, {"time": 2508, "pitch": 60, "duration": 7, "velocity": 75}, {"time": 2514, "pitch": 67, "duration": 6, "velocity": 84}, {"time": 2520, "pitch": 60, "duration": 7, "velocity": 75}, {"time": 2526, "pitch": 69, "duration": 13, "velocity": 82}, {"time": 2532, "pitch": 60, "duration": 8, "velocity": 72}, {"time": 2538, "pitch": 65, "duration": 4, "velocity": 83}, {"time": 2550, "pitch": 52, "duration": 22, "velocity": 86}, {"time": 2550, "pitch": 64, "duration": 10, "velocity": 86}, {"time": 2556, "pitch": 60, "duration": 5, "velocity": 74}, {"time": 2562, "pitch": 67, "duration": 10, "velocity": 75}, {"time": 2568, "pitch": 64, "duration": 7, "velocity": 86}, {"time": 2574, "pitch": 49, "duration": 17, "velocity": 90}, {"time": 2580, "pitch": 61, "duration": 7, "velocity": 78}, {"time": 2586, "pitch": 64, "duration": 9, "velocity": 85}, {"time": 2592, "pitch": 61, "duration": 3, "velocity": 70}, {"time": 2598, "pitch": 50, "duration": 20, "velocity": 82}, {"time": 2598, "pitch": 62, "duration": 13, "velocity": 79}, {"time": 2604, "pitch": 57, "duration": 8, "velocity": 74}, {"time": 2610, "pitch": 65, "duration": 14, "velocity": 82}, {"time": 2616, "pitch": 57, "duration": 8, "velocity": 78}, {"time": 2622, "pitch": 50, "duration": 17, "velocity": 85}, {"time": 2622, "pitch": 62, "duration": 10, "velocity": 85}, {"time": 2628, "pitch": 57, "duration": 7, "velocity": 78}, {"time": 2634, "pitch": 65, "duration": 13, "velocity": 84}, {"time": 2646, "pitch": 45, "duration": 39, "velocity": 83}, {"time": 2646, "pitch": 60, "duration": 13, "velocity": 80}, {"time": 2652, "pitch": 52, "duration": 20, "velocity": 78}, {"time": 2658, "pitch": 55, "duration": 7, "velocity": 86}, {"time": 2664, "pitch": 60, "duration": 4, "velocity": 90}, {"time": 2670, "pitch": 64, "duration": 12, "velocity": 88}, {"time": 2676, "pitch": 52, "duration": 9, "velocity": 69}, {"time": 2682, "pitch": 57, "duration": 3, "velocity": 81}, {"time": 2682, "pitch": 60, "duration": 3, "velocity": 84}, {"time": 2694, "pitch": 46, "duration": 16, "velocity": 79}, {"time": 2694, "pitch": 62, "duration": 13, "velocity": 83}, {"time": 2700, "pitch": 53, "duration": 10, "velocity": 73}, {"time": 2706, "pitch": 58, "duration": 5, "velocity": 85}, {"time": 2718, "pitch": 48, "duration": 14, "velocity": 86}, {"time": 2718, "pitch": 60, "duration": 8, "velocity": 75}, {"time": 2718, "pitch": 64, "duration": 13, "velocity": 85}, {"time": 2724, "pitch": 55, "duration": 8, "velocity": 80}, {"time": 2730, "pitch": 60, "duration": 3, "velocity": 87}, {"time": 2742, "pitch": 45, "duration": 22, "velocity": 86}, {"time": 2742, "pitch": 57, "duration": 8, "velocity": 80}, {"time": 2748, "pitch": 52, "duration": 16, "velocity": 78}, {"time": 2754, "pitch": 57, "duration": 3, "velocity": 83}, {"time": 2754, "pitch": 61, "duration": 6, "velocity": 86}, {"time": 2760, "pitch": 57, "duration": 8, "velocity": 81}, {"time": 2766, "pitch": 50, "duration": 12, "velocity": 85}, {"time": 2766, "pitch": 62, "duration": 13, "velocity": 83}, {"time": 2772, "pitch": 57, "duration": 8, "velocity": 71}, {"time": 2778, "pitch": 65, "duration": 8, "velocity": 76}, {"time": 2790, "pitch": 46, "duration": 16, "velocity": 86}, {"time": 2790, "pitch": 58, "duration": 9, "velocity": 83}, {"time": 2796, "pitch": 53, "duration": 7, "velocity": 82}, {"time": 2802, "pitch": 58, "duration": 4, "velocity": 69}, {"time": 2802, "pitch": 65, "duration": 9, "velocity": 89}, {"time": 2808, "pitch": 53, "duration": 2, "velocity": 88}, {"time": 2814, "pitch": 48, "duration": 15, "velocity": 86}, {"time": 2814, "pitch": 60, "duration": 8, "velocity": 78}, {"time": 2814, "pitch": 64, "duration": 10, "velocity": 83}, {"time": 2820, "pitch": 55, "duration": 8, "velocity": 78}, {"time": 2826, "pitch": 60, "duration": 13, "velocity": 86}, {"time": 2838, "pitch": 41, "duration": 48, "velocity": 81}, {"time": 2838, "pitch": 65, "duration": 10, "velocity": 85}, {"time": 2844, "pitch": 48, "duration": 9, "velocity": 69}, {"time": 2850, "pitch": 60, "duration": 5, "velocity": 84}, {"time": 2850, "pitch": 65, "duration": 10, "velocity": 77}, {"time": 2856, "pitch": 60, "duration": 6, "velocity": 86}, {"time": 2862, "pitch": 48, "duration": 23, "velocity": 83}, {"time": 2862, "pitch": 60, "duration": 3, "velocity": 67}, {"time": 2862, "pitch": 67, "duration": 8, "velocity": 74}, {"time": 2868, "pitch": 60, "duration": 4, "velocity": 70}, {"time": 2874, "pitch": 65, "duration": 12, "velocity": 86}, {"time": 2874, "pitch": 69, "duration": 12, "velocity": 85}, {"time": 2880, "pitch": 60, "duration": 6, "velocity": 86}, {"time": 2886, "pitch": 43, "duration": 17, "velocity": 86}, {"time": 2886, "pitch": 55, "duration": 14, "velocity": 79}, {"time": 2886, "pitch": 62, "duration": 13, "velocity": 80}, {"time": 2892, "pitch": 50, "duration": 10, "velocity": 72}, {"time": 2898, "pitch": 58, "duration": 6, "velocity": 87}, {"time": 2910, "pitch": 45, "duration": 19, "velocity": 85}, {"time": 2910, "pitch": 57, "duration": 6, "velocity": 80}, {"time": 2910, "pitch": 61, "duration": 8, "velocity": 69}, {"time": 2916, "pitch": 52, "duration": 11, "velocity": 81}, {"time": 2922, "pitch": 57, "duration": 4, "velocity": 87}, {"time": 2928, "pitch": 61, "duration": 5, "velocity": 92}, {"time": 2934, "pitch": 50, "duration": 16, "velocity": 86}, {"time": 2934, "pitch": 62, "duration": 10, "velocity": 86}, {"time": 2940, "pitch": 57, "duration": 8, "velocity": 81}, {"time": 2946, "pitch": 62, "duration": 2, "velocity": 80}, {"time": 2946, "pitch": 65, "duration": 4, "velocity": 85}, {"time": 2958, "pitch": 41, "duration": 19, "velocity": 85}, {"time": 2958, "pitch": 60, "duration": 5, "velocity": 70}, {"time": 2958, "pitch": 63, "duration": 11, "velocity": 75}, {"time": 2964, "pitch": 48, "duration": 12, "velocity": 75}, {"time": 2970, "pitch": 53, "duration": 4, "velocity": 79}, {"time": 2970, "pitch": 57, "duration": 5, "velocity": 77}, {"time": 2982, "pitch": 46, "duration": 12, "velocity": 84}, {"time": 2982, "pitch": 62, "duration": 8, "velocity": 82}, {"time": 2988, "pitch": 53, "duration": 7, "velocity": 85}, {"time": 2994, "pitch": 58, "duration": 5, "velocity": 92}, {"time": 3000, "pitch": 53, "duration": 3, "velocity": 86}, {"time": 3006, "pitch": 48, "duration": 15, "velocity": 85}, {"time": 3006, "pitch": 55, "duration": 3, "velocity": 71}, {"time": 3006, "pitch": 60, "duration": 8, "velocity": 78}, {"time": 3012, "pitch": 55, "duration": 7, "velocity": 80}, {"time": 3018, "pitch": 60, "duration": 2, "velocity": 86}, {"time": 3018, "pitch": 64, "duration": 3, "velocity": 90}, {"time": 3030, "pitch": 41, "duration": 27, "velocity": 83}, {"time": 3030, "pitch": 57, "duration": 12, "velocity": 76}, {"time": 3030, "pitch": 60, "duration": 13, "velocity": 81}, {"time": 3036, "pitch": 48, "duration": 20, "velocity": 71}, {"time": 3042, "pitch": 65, "duration": 10, "velocity": 86}, {"time": 3048, "pitch": 57, "duration": 4, "velocity": 77}, {"time": 3054, "pitch": 57, "duration": 3, "velocity": 81}, {"time": 3054, "pitch": 60, "duration": 3, "velocity": 79}, {"time": 3066, "pitch": 45, "duration": 11, "velocity": 86}, {"time": 3066, "pitch": 57, "duration": 7, "velocity": 81}, {"time": 3066, "pitch": 61, "duration": 8, "velocity": 82}, {"time": 3072, "pitch": 52, "duration": 5, "velocity": 83}, {"time": 3078, "pitch": 50, "duration": 17, "velocity": 89}, {"time": 3078, "pitch": 65, "duration": 12, "velocity": 87}, {"time": 3084, "pitch": 57, "duration": 18, "velocity": 77}, {"time": 3090, "pitch": 62, "duration": 8, "velocity": 86}, {"time": 3096, "pitch": 65, "duration": 7, "velocity": 79}, {"time": 3102, "pitch": 49, "duration": 21, "velocity": 83}, {"time": 3102, "pitch": 64, "duration": 12, "velocity": 87}, {"time": 3108, "pitch": 57, "duration": 19, "velocity": 68}, {"time": 3114, "pitch": 61, "duration": 4, "velocity": 85}, {"time": 3126, "pitch": 48, "duration": 20, "velocity": 85}, {"time": 3126, "pitch": 64, "duration": 13, "velocity": 86}, {"time": 3132, "pitch": 57, "duration": 15, "velocity": 73}, {"time": 3138, "pitch": 60, "duration": 7, "velocity": 87}, {"time": 3144, "pitch": 64, "duration": 8, "velocity": 86}, {"time": 3150, "pitch": 47, "duration": 17, "velocity": 85}, {"time": 3150, "pitch": 62, "duration": 14, "velocity": 83}, {"time": 3156, "pitch": 53, "duration": 11, "velocity": 71}, {"time": 3162, "pitch": 59, "duration": 5, "velocity": 79}, {"time": 3174, "pitch": 46, "duration": 22, "velocity": 74}, {"time": 3174, "pitch": 58, "duration": 5, "velocity": 75}, {"time": 3174, "pitch": 62, "duration": 7, "velocity": 80}, {"time": 3180, "pitch": 58, "duration": 10, "velocity": 85}, {"time": 3186, "pitch": 65, "duration": 10, "velocity": 84}, {"time": 3198, "pitch": 46, "duration": 17, "velocity": 89}, {"time": 3204, "pitch": 53, "duration": 7, "velocity": 74}, {"time": 3210, "pitch": 58, "duration": 6, "velocity": 81}, {"time": 3210, "pitch": 61, "duration": 7, "velocity": 83}, {"time": 3216, "pitch": 53, "duration": 2, "velocity": 80}, {"time": 3222, "pitch": 48, "duration": 21, "velocity": 86}, {"time": 3222, "pitch": 60, "duration": 7, "velocity": 82}, {"time": 3228, "pitch": 55, "duration": 7, "velocity": 80}, {"time": 3234, "pitch": 60, "duration": 7, "velocity": 86}, {"time": 3234, "pitch": 65, "duration": 8, "velocity": 84}, {"time": 3240, "pitch": 55, "duration": 7, "velocity": 87}, {"time": 3246, "pitch": 48, "duration": 22, "velocity": 87}, {"time": 3246, "pitch": 60, "duration": 7, "velocity": 85}, {"time": 3246, "pitch": 64, "duration": 7, "velocity": 87}, {"time": 3252, "pitch": 55, "duration": 4, "velocity": 81}, {"time": 3258, "pitch": 55, "duration": 3, "velocity": 86}, {"time": 3258, "pitch": 60, "duration": 10, "velocity": 86}, {"time": 3264, "pitch": 55, "duration": 4, "velocity": 76}, {"time": 3270, "pitch": 48, "duration": 46, "velocity": 92}, {"time": 3270, "pitch": 55, "duration": 4, "velocity": 86}, {"time": 3270, "pitch": 60, "duration": 9, "velocity": 85}, {"time": 3276, "pitch": 55, "duration": 3, "velocity": 71}, {"time": 3282, "pitch": 62, "duration": 8, "velocity": 77}, {"time": 3288, "pitch": 55, "duration": 3, "velocity": 70}, {"time": 3294, "pitch": 55, "duration": 21, "velocity": 86}, {"time": 3294, "pitch": 60, "duration": 22, "velocity": 85}, {"time": 3294, "pitch": 64, "duration": 22, "velocity": 87}, {"time": 3318, "pitch": 41, "duration": 23, "velocity": 86}, {"time": 3318, "pitch": 57, "duration": 7, "velocity": 81}, {"time": 3318, "pitch": 65, "duration": 6, "velocity": 84}, {"time": 3324, "pitch": 48, "duration": 17, "velocity": 69}, {"time": 3330, "pitch": 57, "duration": 3, "velocity": 85}, {"time": 3330, "pitch": 60, "duration": 3, "velocity": 88}, {"time": 3330, "pitch": 65, "duration": 3, "velocity": 85}, {"time": 3339, "pitch": 57, "duration": 4, "velocity": 75}, {"time": 3342, "pitch": 41, "duration": 16, "velocity": 85}, {"time": 3342, "pitch": 60, "duration": 8, "velocity": 86}, {"time": 3342, "pitch": 65, "duration": 7, "velocity": 86}, {"time": 3348, "pitch": 48, "duration": 8, "velocity": 76}, {"time": 3351, "pitch": 57, "duration": 2, "velocity": 79}, {"time": 3354, "pitch": 57, "duration": 1, "velocity": 68}, {"time": 3354, "pitch": 60, "duration": 4, "velocity": 91}, {"time": 3354, "pitch": 65, "duration": 9, "velocity": 88}, {"time": 3360, "pitch": 57, "duration": 3, "velocity": 80}, {"time": 3366, "pitch": 48, "duration": 21, "velocity": 89}, {"time": 3366, "pitch": 55, "duration": 5, "velocity": 85}, {"time": 3366, "pitch": 64, "duration": 7, "velocity": 86}, {"time": 3372, "pitch": 55, "duration": 3, "velocity": 77}, {"time": 3378, "pitch": 55, "duration": 4, "velocity": 87}, {"time": 3378, "pitch": 60, "duration": 4, "velocity": 87}, {"time": 3387, "pitch": 55, "duration": 3, "velocity": 71}, {"time": 3390, "pitch": 45, "duration": 17, "velocity": 86}, {"time": 3390, "pitch": 57, "duration": 6, "velocity": 85}, {"time": 3390, "pitch": 61, "duration": 7, "velocity": 92}, {"time": 3396, "pitch": 52, "duration": 8, "velocity": 90}, {"time": 3402, "pitch": 57, "duration": 2, "velocity": 89}, {"time": 3402, "pitch": 61, "duration": 3, "velocity": 99}, {"time": 3405, "pitch": 52, "duration": 3, "velocity": 89}, {"time": 3408, "pitch": 57, "duration": 4, "velocity": 87}, {"time": 3411, "pitch": 61, "duration": 2, "velocity": 92}, {"time": 3414, "pitch": 50, "duration": 21, "velocity": 88}, {"time": 3414, "pitch": 57, "duration": 4, "velocity": 71}, {"time": 3414, "pitch": 62, "duration": 7, "velocity": 87}, {"time": 3420, "pitch": 57, "duration": 2, "velocity": 79}, {"time": 3426, "pitch": 57, "duration": 2, "velocity": 86}, {"time": 3426, "pitch": 62, "duration": 3, "velocity": 87}, {"time": 3426, "pitch": 65, "duration": 5, "velocity": 84}, {"time": 3429, "pitch": 57, "duration": 4, "velocity": 84}, {"time": 3432, "pitch": 62, "duration": 4, "velocity": 83}, {"time": 3435, "pitch": 65, "duration": 4, "velocity": 86}, {"time": 3438, "pitch": 48, "duration": 15, "velocity": 92}, {"time": 3438, "pitch": 64, "duration": 9, "velocity": 89}, {"time": 3444, "pitch": 55, "duration": 4, "velocity": 84}, {"time": 3450, "pitch": 55, "duration": 3, "velocity": 91}, {"time": 3450, "pitch": 60, "duration": 5, "velocity": 94}, {"time": 3456, "pitch": 55, "duration": 3, "velocity": 81}, {"time": 3462, "pitch": 47, "duration": 22, "velocity": 86}, {"time": 3462, "pitch": 59, "duration": 8, "velocity": 84}, {"time": 3462, "pitch": 62, "duration": 8, "velocity": 85}, {"time": 3468, "pitch": 53, "duration": 16, "velocity": 75}, {"time": 3471, "pitch": 65, "duration": 8, "velocity": 89}, {"time": 3477, "pitch": 59, "duration": 10, "velocity": 86}, {"time": 3480, "pitch": 62, "duration": 11, "velocity": 85}, {"time": 3483, "pitch": 65, "duration": 12, "velocity": 85}, {"time": 3486, "pitch": 47, "duration": 17, "velocity": 88}, {"time": 3489, "pitch": 53, "duration": 10, "velocity": 80}, {"time": 3492, "pitch": 59, "duration": 4, "velocity": 77}, {"time": 3495, "pitch": 62, "duration": 2, "velocity": 85}, {"time": 3498, "pitch": 59, "duration": 4, "velocity": 82}, {"time": 3498, "pitch": 62, "duration": 5, "velocity": 86}, {"time": 3498, "pitch": 65, "duration": 4, "velocity": 84}, {"time": 3498, "pitch": 71, "duration": 5, "velocity": 86}, {"time": 3501, "pitch": 53, "duration": 3, "velocity": 81}, {"time": 3504, "pitch": 47, "duration": 2, "velocity": 81}, {"time": 3510, "pitch": 43, "duration": 23, "velocity": 85}, {"time": 3510, "pitch": 55, "duration": 9, "velocity": 78}, {"time": 3510, "pitch": 58, "duration": 8, "velocity": 79}, {"time": 3516, "pitch": 50, "duration": 7, "velocity": 73}, {"time": 3522, "pitch": 55, "duration": 1, "velocity": 77}, {"time": 3522, "pitch": 58, "duration": 6, "velocity": 89}, {"time": 3522, "pitch": 62, "duration": 10, "velocity": 87}, {"time": 3525, "pitch": 50, "duration": 5, "velocity": 85}, {"time": 3528, "pitch": 55, "duration": 5, "velocity": 85}, {"time": 3531, "pitch": 58, "duration": 2, "velocity": 81}, {"time": 3534, "pitch": 48, "duration": 15, "velocity": 88}, {"time": 3534, "pitch": 55, "duration": 4, "velocity": 81}, {"time": 3534, "pitch": 60, "duration": 7, "velocity": 86}, {"time": 3540, "pitch": 55, "duration": 2, "velocity": 86}, {"time": 3546, "pitch": 55, "duration": 3, "velocity": 88}, {"time": 3546, "pitch": 60, "duration": 6, "velocity": 89}, {"time": 3546, "pitch": 64, "duration": 8, "velocity": 89}, {"time": 3552, "pitch": 55, "duration": 2, "velocity": 87}, {"time": 3558, "pitch": 45, "duration": 18, "velocity": 86}, {"time": 3558, "pitch": 57, "duration": 4, "velocity": 86}, {"time": 3558, "pitch": 61, "duration": 6, "velocity": 92}, {"time": 3561, "pitch": 52, "duration": 7, "velocity": 87}, {"time": 3564, "pitch": 57, "duration": 4, "velocity": 86}, {"time": 3567, "pitch": 61, "duration": 6, "velocity": 94}, {"time": 3570, "pitch": 52, "duration": 6, "velocity": 85}, {"time": 3573, "pitch": 57, "duration": 4, "velocity": 75}, {"time": 3576, "pitch": 61, "duration": 3, "velocity": 82}, {"time": 3579, "pitch": 57, "duration": 2, "velocity": 78}, {"time": 3582, "pitch": 50, "duration": 14, "velocity": 89}, {"time": 3582, "pitch": 57, "duration": 1, "velocity": 76}, {"time": 3582, "pitch": 62, "duration": 7, "velocity": 86}, {"time": 3588, "pitch": 57, "duration": 3, "velocity": 82}, {"time": 3594, "pitch": 57, "duration": 2, "velocity": 87}, {"time": 3594, "pitch": 62, "duration": 3, "velocity": 87}, {"time": 3594, "pitch": 65, "duration": 6, "velocity": 87}, {"time": 3597, "pitch": 50, "duration": 2, "velocity": 87}, {"time": 3600, "pitch": 64, "duration": 4, "velocity": 96}, {"time": 3600, "pitch": 65, "duration": 1, "velocity": 57}, {"time": 3603, "pitch": 57, "duration": 3, "velocity": 73}, {"time": 3606, "pitch": 43, "duration": 16, "velocity": 86}, {"time": 3606, "pitch": 62, "duration": 9, "velocity": 83}, {"time": 3612, "pitch": 50, "duration": 8, "velocity": 81}, {"time": 3618, "pitch": 55, "duration": 3, "velocity": 79}, {"time": 3618, "pitch": 58, "duration": 3, "velocity": 91}, {"time": 3618, "pitch": 62, "duration": 3, "velocity": 86}, {"time": 3630, "pitch": 43, "duration": 16, "velocity": 87}, {"time": 3630, "pitch": 67, "duration": 5, "velocity": 86}, {"time": 3633, "pitch": 50, "duration": 7, "velocity": 76}, {"time": 3636, "pitch": 55, "duration": 3, "velocity": 87}, {"time": 3639, "pitch": 62, "duration": 5, "velocity": 87}, {"time": 3642, "pitch": 50, "duration": 4, "velocity": 85}, {"time": 3645, "pitch": 58, "duration": 3, "velocity": 88}, {"time": 3648, "pitch": 55, "duration": 3, "velocity": 87}, {"time": 3654, "pitch": 48, "duration": 20, "velocity": 92}, {"time": 3654, "pitch": 55, "duration": 3, "velocity": 87}, {"time": 3654, "pitch": 60, "duration": 7, "velocity": 87}, {"time": 3660, "pitch": 55, "duration": 2, "velocity": 85}, {"time": 3663, "pitch": 55, "duration": 5, "velocity": 86}, {"time": 3663, "pitch": 62, "duration": 7, "velocity": 90}, {"time": 3669, "pitch": 60, "duration": 2, "velocity": 91}, {"time": 3672, "pitch": 55, "duration": 2, "velocity": 87}, {"time": 3675, "pitch": 55, "duration": 4, "velocity": 88}, {"time": 3675, "pitch": 64, "duration": 7, "velocity": 90}, {"time": 3678, "pitch": 48, "duration": 21, "velocity": 94}, {"time": 3681, "pitch": 55, "duration": 3, "velocity": 90}, {"time": 3684, "pitch": 62, "duration": 3, "velocity": 86}, {"time": 3687, "pitch": 55, "duration": 2, "velocity": 87}, {"time": 3690, "pitch": 60, "duration": 3, "velocity": 86}, {"time": 3693, "pitch": 55, "duration": 3, "velocity": 75}, {"time": 3696, "pitch": 58, "duration": 3, "velocity": 85}, {"time": 3699, "pitch": 55, "duration": 3, "velocity": 85}, {"time": 3702, "pitch": 41, "duration": 23, "velocity": 86}, {"time": 3702, "pitch": 57, "duration": 7, "velocity": 81}, {"time": 3702, "pitch": 65, "duration": 6, "velocity": 84}, {"time": 3708, "pitch": 48, "duration": 17, "velocity": 69}, {"time": 3714, "pitch": 57, "duration": 3, "velocity": 85}, {"time": 3714, "pitch": 60, "duration": 3, "velocity": 88}, {"time": 3714, "pitch": 65, "duration": 3, "velocity": 85}, {"time": 3723, "pitch": 57, "duration": 4, "velocity": 75}, {"time": 3726, "pitch": 41, "duration": 16, "velocity": 85}, {"time": 3726, "pitch": 60, "duration": 8, "velocity": 86}, {"time": 3726, "pitch": 65, "duration": 7, "velocity": 86}, {"time": 3732, "pitch": 48, "duration": 8, "velocity": 76}, {"time": 3735, "pitch": 57, "duration": 2, "velocity": 79}, {"time": 3738, "pitch": 57, "duration": 1, "velocity": 68}, {"time": 3738, "pitch": 60, "duration": 4, "velocity": 91}, {"time": 3738, "pitch": 65, "duration": 9, "velocity": 88}, {"time": 3744, "pitch": 57, "duration": 3, "velocity": 80}, {"time": 3750, "pitch": 48, "duration": 21, "velocity": 89}, {"time": 3750, "pitch": 55, "duration": 5, "velocity": 85}, {"time": 3750, "pitch": 64, "duration": 7, "velocity": 86}, {"time": 3756, "pitch": 55, "duration": 3, "velocity": 77}, {"time": 3762, "pitch": 55, "duration": 4, "velocity": 87}, {"time": 3762, "pitch": 60, "duration": 4, "velocity": 87}, {"time": 3771, "pitch": 55, "duration": 3, "velocity": 71}, {"time": 3774, "pitch": 45, "duration": 17, "velocity": 86}, {"time": 3774, "pitch": 57, "duration": 6, "velocity": 85}, {"time": 3774, "pitch": 61, "duration": 7, "velocity": 92}, {"time": 3780, "pitch": 52, "duration": 8, "velocity": 90}, {"time": 3786, "pitch": 57, "duration": 2, "velocity": 89}, {"time": 3786, "pitch": 61, "duration": 3, "velocity": 99}, {"time": 3789, "pitch": 52, "duration": 3, "velocity": 89}, {"time": 3792, "pitch": 57, "duration": 4, "velocity": 87}, {"time": 3795, "pitch": 61, "duration": 2, "velocity": 92}, {"time": 3798, "pitch": 50, "duration": 21, "velocity": 88}, {"time": 3798, "pitch": 57, "duration": 4, "velocity": 71}, {"time": 3798, "pitch": 62, "duration": 7, "velocity": 87}, {"time": 3804, "pitch": 57, "duration": 2, "velocity": 79}, {"time": 3810, "pitch": 57, "duration": 2, "velocity": 86}, {"time": 3810, "pitch": 62, "duration": 3, "velocity": 87}, {"time": 3810, "pitch": 65, "duration": 5, "velocity": 84}, {"time": 3813, "pitch": 57, "duration": 4, "velocity": 84}, {"time": 3816, "pitch": 62, "duration": 4, "velocity": 83}, {"time": 3819, "pitch": 65, "duration": 4, "velocity": 86}, {"time": 3822, "pitch": 48, "duration": 15, "velocity": 92}, {"time": 3822, "pitch": 64, "duration": 9, "velocity": 89}, {"time": 3828, "pitch": 55, "duration": 4, "velocity": 84}, {"time": 3834, "pitch": 55, "duration": 3, "velocity": 91}, {"time": 3834, "pitch": 60, "duration": 5, "velocity": 94}, {"time": 3840, "pitch": 55, "duration": 3, "velocity": 81}, {"time": 3846, "pitch": 47, "duration": 22, "velocity": 86}, {"time": 3846, "pitch": 59, "duration": 8, "velocity": 84}, {"time": 3846, "pitch": 62, "duration": 8, "velocity": 85}, {"time": 3852, "pitch": 53, "duration": 16, "velocity": 75}, {"time": 3855, "pitch": 65, "duration": 8, "velocity": 89}, {"time": 3861, "pitch": 59, "duration": 10, "velocity": 86}, {"time": 3864, "pitch": 62, "duration": 11, "velocity": 85}, {"time": 3867, "pitch": 65, "duration": 12, "velocity": 85}, {"time": 3870, "pitch": 47, "duration": 17, "velocity": 88}, {"time": 3873, "pitch": 53, "duration": 10, "velocity": 80}, {"time": 3876, "pitch": 59, "duration": 4, "velocity": 77}, {"time": 3879, "pitch": 62, "duration": 2, "velocity": 85}, {"time": 3882, "pitch": 59, "duration": 4, "velocity": 82}, {"time": 3882, "pitch": 62, "duration": 5, "velocity": 86}, {"time": 3882, "pitch": 65, "duration": 4, "velocity": 84}, {"time": 3882, "pitch": 71, "duration": 5, "velocity": 86}, {"time": 3885, "pitch": 53, "duration": 3, "velocity": 81}, {"time": 3888, "pitch": 47, "duration": 2, "velocity": 81}, {"time": 3894, "pitch": 43, "duration": 19, "velocity": 86}, {"time": 3894, "pitch": 65, "duration": 7, "velocity": 86}, {"time": 3897, "pitch": 50, "duration": 8, "velocity": 85}, {"time": 3900, "pitch": 55, "duration": 2, "velocity": 87}, {"time": 3903, "pitch": 55, "duration": 5, "velocity": 87}, {"time": 3903, "pitch": 62, "duration": 4, "velocity": 85}, {"time": 3906, "pitch": 50, "duration": 4, "velocity": 87}, {"time": 3909, "pitch": 55, "duration": 2, "velocity": 86}, {"time": 3909, "pitch": 58, "duration": 4, "velocity": 86}, {"time": 3909, "pitch": 62, "duration": 4, "velocity": 89}, {"time": 3912, "pitch": 50, "duration": 2, "velocity": 85}, {"time": 3918, "pitch": 45, "duration": 19, "velocity": 87}, {"time": 3918, "pitch": 57, "duration": 4, "velocity": 86}, {"time": 3918, "pitch": 61, "duration": 5, "velocity": 81}, {"time": 3921, "pitch": 52, "duration": 7, "velocity": 85}, {"time": 3924, "pitch": 55, "duration": 5, "velocity": 89}, {"time": 3927, "pitch": 61, "duration": 3, "velocity": 92}, {"time": 3930, "pitch": 52, "duration": 5, "velocity": 84}, {"time": 3933, "pitch": 57, "duration": 6, "velocity": 85}, {"time": 3933, "pitch": 64, "duration": 8, "velocity": 87}, {"time": 3939, "pitch": 57, "duration": 3, "velocity": 88}, {"time": 3942, "pitch": 45, "duration": 18, "velocity": 86}, {"time": 3942, "pitch": 57, "duration": 4, "velocity": 86}, {"time": 3942, "pitch": 61, "duration": 1, "velocity": 76}, {"time": 3942, "pitch": 61, "duration": 1, "velocity": 92}, {"time": 3945, "pitch": 52, "duration": 7, "velocity": 87}, {"time": 3948, "pitch": 57, "duration": 4, "velocity": 86}, {"time": 3951, "pitch": 61, "duration": 6, "velocity": 94}, {"time": 3954, "pitch": 52, "duration": 6, "velocity": 85}, {"time": 3957, "pitch": 57, "duration": 4, "velocity": 75}, {"time": 3960, "pitch": 61, "duration": 3, "velocity": 82}, {"time": 3963, "pitch": 57, "duration": 2, "velocity": 78}, {"time": 3966, "pitch": 50, "duration": 14, "velocity": 89}, {"time": 3966, "pitch": 57, "duration": 1, "velocity": 76}, {"time": 3966, "pitch": 62, "duration": 7, "velocity": 86}, {"time": 3972, "pitch": 57, "duration": 3, "velocity": 82}, {"time": 3978, "pitch": 57, "duration": 2, "velocity": 87}, {"time": 3978, "pitch": 62, "duration": 3, "velocity": 87}, {"time": 3978, "pitch": 65, "duration": 6, "velocity": 87}, {"time": 3981, "pitch": 50, "duration": 2, "velocity": 87}, {"time": 3984, "pitch": 64, "duration": 4, "velocity": 96}, {"time": 3984, "pitch": 65, "duration": 1, "velocity": 57}, {"time": 3987, "pitch": 57, "duration": 3, "velocity": 73}, {"time": 3990, "pitch": 43, "duration": 16, "velocity": 86}, {"time": 3990, "pitch": 62, "duration": 9, "velocity": 83}, {"time": 3996, "pitch": 50, "duration": 8, "velocity": 81}, {"time": 4002, "pitch": 55, "duration": 3, "velocity": 79}, {"time": 4002, "pitch": 58, "duration": 3, "velocity": 91}, {"time": 4002, "pitch": 62, "duration": 3, "velocity": 86}, {"time": 4014, "pitch": 43, "duration": 16, "velocity": 87}, {"time": 4014, "pitch": 67, "duration": 5, "velocity": 86}, {"time": 4017, "pitch": 50, "duration": 7, "velocity": 76}, {"time": 4020, "pitch": 55, "duration": 3, "velocity": 87}, {"time": 4023, "pitch": 62, "duration": 5, "velocity": 87}, {"time": 4026, "pitch": 50, "duration": 4, "velocity": 85}, {"time": 4029, "pitch": 58, "duration": 3, "velocity": 88}, {"time": 4032, "pitch": 55, "duration": 3, "velocity": 87}, {"time": 4038, "pitch": 48, "duration": 20, "velocity": 92}, {"time": 4038, "pitch": 55, "duration": 3, "velocity": 87}, {"time": 4038, "pitch": 60, "duration": 7, "velocity": 87}, {"time": 4044, "pitch": 55, "duration": 2, "velocity": 85}, {"time": 4047, "pitch": 55, "duration": 5, "velocity": 86}, {"time": 4047, "pitch": 62, "duration": 7, "velocity": 90}, {"time": 4053, "pitch": 60, "duration": 2, "velocity": 91}, {"time": 4056, "pitch": 55, "duration": 2, "velocity": 87}, {"time": 4059, "pitch": 55, "duration": 4, "velocity": 88}, {"time": 4059, "pitch": 64, "duration": 7, "velocity": 90}, {"time": 4062, "pitch": 48, "duration": 21, "velocity": 94}, {"time": 4065, "pitch": 55, "duration": 3, "velocity": 90}, {"time": 4068, "pitch": 62, "duration": 3, "velocity": 86}, {"time": 4071, "pitch": 55, "duration": 2, "velocity": 87}, {"time": 4074, "pitch": 60, "duration": 3, "velocity": 86}, {"time": 4077, "pitch": 55, "duration": 3, "velocity": 75}, {"time": 4080, "pitch": 58, "duration": 3, "velocity": 85}, {"time": 4083, "pitch": 55, "duration": 3, "velocity": 85}, {"time": 4086, "pitch": 41, "duration": 19, "velocity": 88}, {"time": 4086, "pitch": 53, "duration": 7, "velocity": 85}, {"time": 4086, "pitch": 57, "duration": 6, "velocity": 83}, {"time": 4092, "pitch": 48, "duration": 8, "velocity": 74}, {"time": 4098, "pitch": 53, "duration": 2, "velocity": 90}, {"time": 4098, "pitch": 57, "duration": 3, "velocity": 99}, {"time": 4098, "pitch": 65, "duration": 4, "velocity": 87}, {"time": 4101, "pitch": 48, "duration": 2, "velocity": 84}, {"time": 4104, "pitch": 53, "duration": 3, "velocity": 94}, {"time": 4110, "pitch": 41, "duration": 11, "velocity": 89}, {"time": 4110, "pitch": 53, "duration": 3, "velocity": 85}, {"time": 4110, "pitch": 57, "duration": 4, "velocity": 81}, {"time": 4110, "pitch": 63, "duration": 4, "velocity": 86}, {"time": 4113, "pitch": 48, "duration": 6, "velocity": 85}, {"time": 4116, "pitch": 53, "duration": 2, "velocity": 85}, {"time": 4119, "pitch": 53, "duration": 4, "velocity": 94}, {"time": 4119, "pitch": 57, "duration": 1, "velocity": 86}, {"time": 4119, "pitch": 60, "duration": 4, "velocity": 92}, {"time": 4122, "pitch": 41, "duration": 4, "velocity": 57}, {"time": 4122, "pitch": 48, "duration": 4, "velocity": 89}, {"time": 4125, "pitch": 53, "duration": 2, "velocity": 91}, {"time": 4125, "pitch": 57, "duration": 3, "velocity": 91}, {"time": 4128, "pitch": 41, "duration": 2, "velocity": 72}, {"time": 4128, "pitch": 48, "duration": 3, "velocity": 86}, {"time": 4134, "pitch": 43, "duration": 14, "velocity": 88}, {"time": 4134, "pitch": 55, "duration": 6, "velocity": 85}, {"time": 4134, "pitch": 58, "duration": 7, "velocity": 85}, {"time": 4140, "pitch": 50, "duration": 7, "velocity": 86}, {"time": 4146, "pitch": 55, "duration": 2, "velocity": 87}, {"time": 4146, "pitch": 58, "duration": 3, "velocity": 99}, {"time": 4146, "pitch": 62, "duration": 3, "velocity": 88}, {"time": 4149, "pitch": 50, "duration": 2, "velocity": 87}, {"time": 4152, "pitch": 55, "duration": 5, "velocity": 84}, {"time": 4155, "pitch": 58, "duration": 2, "velocity": 96}, {"time": 4158, "pitch": 48, "duration": 10, "velocity": 92}, {"time": 4158, "pitch": 55, "duration": 4, "velocity": 85}, {"time": 4158, "pitch": 60, "duration": 6, "velocity": 89}, {"time": 4164, "pitch": 55, "duration": 2, "velocity": 86}, {"time": 4167, "pitch": 55, "duration": 4, "velocity": 92}, {"time": 4167, "pitch": 60, "duration": 4, "velocity": 90}, {"time": 4167, "pitch": 64, "duration": 4, "velocity": 87}, {"time": 4170, "pitch": 48, "duration": 5, "velocity": 87}, {"time": 4173, "pitch": 55, "duration": 2, "velocity": 87}, {"time": 4173, "pitch": 60, "duration": 4, "velocity": 90}, {"time": 4182, "pitch": 45, "duration": 17, "velocity": 87}, {"time": 4182, "pitch": 57, "duration": 6, "velocity": 86}, {"time": 4188, "pitch": 52, "duration": 5, "velocity": 78}, {"time": 4191, "pitch": 55, "duration": 4, "velocity": 92}, {"time": 4191, "pitch": 60, "duration": 4, "velocity": 91}, {"time": 4194, "pitch": 52, "duration": 4, "velocity": 85}, {"time": 4197, "pitch": 55, "duration": 4, "velocity": 87}, {"time": 4197, "pitch": 64, "duration": 5, "velocity": 86}, {"time": 4200, "pitch": 45, "duration": 1, "velocity": 48}, {"time": 4200, "pitch": 52, "duration": 3, "velocity": 86}, {"time": 4203, "pitch": 55, "duration": 3, "velocity": 79}, {"time": 4206, "pitch": 50, "duration": 15, "velocity": 101}, {"time": 4206, "pitch": 62, "duration": 6, "velocity": 78}, {"time": 4212, "pitch": 53, "duration": 8, "velocity": 82}, {"time": 4215, "pitch": 57, "duration": 3, "velocity": 86}, {"time": 4221, "pitch": 57, "duration": 2, "velocity": 88}, {"time": 4221, "pitch": 65, "duration": 5, "velocity": 88}, {"time": 4230, "pitch": 49, "duration": 12, "velocity": 87}, {"time": 4230, "pitch": 61, "duration": 4, "velocity": 87}, {"time": 4230, "pitch": 64, "duration": 7, "velocity": 89}, {"time": 4236, "pitch": 55, "duration": 4, "velocity": 78}, {"time": 4239, "pitch": 61, "duration": 4, "velocity": 101}, {"time": 4239, "pitch": 64, "duration": 5, "velocity": 91}, {"time": 4239, "pitch": 67, "duration": 6, "velocity": 86}, {"time": 4242, "pitch": 55, "duration": 4, "velocity": 81}, {"time": 4245, "pitch": 61, "duration": 4, "velocity": 101}, {"time": 4245, "pitch": 64, "duration": 1, "velocity": 73}, {"time": 4248, "pitch": 64, "duration": 4, "velocity": 85}, {"time": 4251, "pitch": 61, "duration": 1, "velocity": 83}, {"time": 4254, "pitch": 57, "duration": 2, "velocity": 76}, {"time": 4254, "pitch": 45, "duration": 3, "velocity": 86}, {"time": 4254, "pitch": 61, "duration": 2, "velocity": 78}, {"time": 4254, "pitch": 69, "duration": 3, "velocity": 77}, {"time": 4258, "pitch": 61, "duration": 2, "velocity": 73}, {"time": 4258, "pitch": 52, "duration": 2, "velocity": 83}, {"time": 4258, "pitch": 69, "duration": 2, "velocity": 79}, {"time": 4258, "pitch": 57, "duration": 2, "velocity": 73}, {"time": 4258, "pitch": 45, "duration": 2, "velocity": 79}, {"time": 4262, "pitch": 45, "duration": 2, "velocity": 82}, {"time": 4262, "pitch": 61, "duration": 2, "velocity": 76}, {"time": 4262, "pitch": 69, "duration": 2, "velocity": 82}, {"time": 4262, "pitch": 52, "duration": 2, "velocity": 86}, {"time": 4262, "pitch": 57, "duration": 2, "velocity": 81}, {"time": 4265, "pitch": 69, "duration": 3, "velocity": 86}, {"time": 4265, "pitch": 61, "duration": 2, "velocity": 92}, {"time": 4265, "pitch": 45, "duration": 3, "velocity": 86}, {"time": 4266, "pitch": 57, "duration": 4, "velocity": 91}, {"time": 4266, "pitch": 52, "duration": 3, "velocity": 94}, {"time": 4269, "pitch": 47, "duration": 4, "velocity": 85}, {"time": 4269, "pitch": 59, "duration": 5, "velocity": 85}, {"time": 4273, "pitch": 49, "duration": 3, "velocity": 89}, {"time": 4273, "pitch": 61, "duration": 4, "velocity": 89}, {"time": 4277, "pitch": 65, "duration": 7, "velocity": 86}, {"time": 4277, "pitch": 57, "duration": 6, "velocity": 87}, {"time": 4277, "pitch": 38, "duration": 14, "velocity": 91}, {"time": 4283, "pitch": 45, "duration": 4, "velocity": 75}, {"time": 4286, "pitch": 62, "duration": 5, "velocity": 91}, {"time": 4286, "pitch": 57, "duration": 4, "velocity": 90}, {"time": 4289, "pitch": 45, "duration": 2, "velocity": 84}, {"time": 4292, "pitch": 57, "duration": 2, "velocity": 96}, {"time": 4302, "pitch": 63, "duration": 5, "velocity": 96}, {"time": 4302, "pitch": 48, "duration": 10, "velocity": 90}, {"time": 4302, "pitch": 60, "duration": 3, "velocity": 87}, {"time": 4305, "pitch": 55, "duration": 4, "velocity": 90}, {"time": 4308, "pitch": 60, "duration": 4, "velocity": 86}, {"time": 4310, "pitch": 63, "duration": 2, "velocity": 92}, {"time": 4313, "pitch": 60, "duration": 2, "velocity": 90}, {"time": 4313, "pitch": 65, "duration": 5, "velocity": 92}, {"time": 4314, "pitch": 53, "duration": 8, "velocity": 87}, {"time": 4317, "pitch": 60, "duration": 3, "velocity": 91}, {"time": 4320, "pitch": 63, "duration": 3, "velocity": 89}, {"time": 4323, "pitch": 60, "duration": 3, "velocity": 79}, {"time": 4326, "pitch": 46, "duration": 13, "velocity": 96}, {"time": 4326, "pitch": 53, "duration": 3, "velocity": 82}, {"time": 4326, "pitch": 58, "duration": 6, "velocity": 81}, {"time": 4332, "pitch": 53, "duration": 2, "velocity": 74}, {"time": 4335, "pitch": 53, "duration": 2, "velocity": 92}, {"time": 4335, "pitch": 62, "duration": 3, "velocity": 90}, {"time": 4341, "pitch": 53, "duration": 2, "velocity": 85}, {"time": 4341, "pitch": 58, "duration": 3, "velocity": 91}, {"time": 4344, "pitch": 53, "duration": 4, "velocity": 81}, {"time": 4347, "pitch": 58, "duration": 2, "velocity": 88}, {"time": 4350, "pitch": 48, "duration": 10, "velocity": 86}, {"time": 4350, "pitch": 55, "duration": 2, "velocity": 86}, {"time": 4350, "pitch": 60, "duration": 4, "velocity": 87}, {"time": 4353, "pitch": 55, "duration": 4, "velocity": 85}, {"time": 4356, "pitch": 60, "duration": 2, "velocity": 85}, {"time": 4359, "pitch": 55, "duration": 4, "velocity": 91}, {"time": 4359, "pitch": 60, "duration": 4, "velocity": 88}, {"time": 4359, "pitch": 64, "duration": 4, "velocity": 89}, {"time": 4362, "pitch": 48, "duration": 5, "velocity": 87}, {"time": 4365, "pitch": 55, "duration": 2, "velocity": 85}, {"time": 4365, "pitch": 60, "duration": 4, "velocity": 92}, {"time": 4374, "pitch": 45, "duration": 20, "velocity": 87}, {"time": 4374, "pitch": 57, "duration": 5, "velocity": 87}, {"time": 4374, "pitch": 60, "duration": 7, "velocity": 78}, {"time": 4380, "pitch": 52, "duration": 5, "velocity": 81}, {"time": 4383, "pitch": 55, "duration": 4, "velocity": 94}, {"time": 4383, "pitch": 65, "duration": 1, "velocity": 82}, {"time": 4386, "pitch": 52, "duration": 4, "velocity": 85}, {"time": 4389, "pitch": 57, "duration": 3, "velocity": 89}, {"time": 4392, "pitch": 52, "duration": 4, "velocity": 85}, {"time": 4395, "pitch": 57, "duration": 2, "velocity": 85}, {"time": 4398, "pitch": 50, "duration": 10, "velocity": 90}, {"time": 4398, "pitch": 57, "duration": 4, "velocity": 85}, {"time": 4398, "pitch": 62, "duration": 6, "velocity": 86}, {"time": 4404, "pitch": 57, "duration": 1, "velocity": 72}, {"time": 4407, "pitch": 57, "duration": 4, "velocity": 87}, {"time": 4407, "pitch": 65, "duration": 5, "velocity": 87}, {"time": 4410, "pitch": 50, "duration": 4, "velocity": 85}, {"time": 4413, "pitch": 57, "duration": 3, "velocity": 87}, {"time": 4413, "pitch": 64, "duration": 4, "velocity": 91}, {"time": 4416, "pitch": 62, "duration": 4, "velocity": 80}, {"time": 4419, "pitch": 57, "duration": 2, "velocity": 72}, {"time": 4422, "pitch": 39, "duration": 19, "velocity": 86}, {"time": 4422, "pitch": 51, "duration": 8, "velocity": 80}, {"time": 4422, "pitch": 58, "duration": 7, "velocity": 75}, {"time": 4428, "pitch": 46, "duration": 6, "velocity": 72}, {"time": 4431, "pitch": 51, "duration": 3, "velocity": 75}, {"time": 4431, "pitch": 55, "duration": 4, "velocity": 82}, {"time": 4431, "pitch": 58, "duration": 2, "velocity": 71}, {"time": 4434, "pitch": 46, "duration": 4, "velocity": 66}, {"time": 4437, "pitch": 51, "duration": 3, "velocity": 87}, {"time": 4437, "pitch": 55, "duration": 3, "velocity": 86}, {"time": 4437, "pitch": 58, "duration": 2, "velocity": 72}, {"time": 4437, "pitch": 63, "duration": 4, "velocity": 81}, {"time": 4443, "pitch": 51, "duration": 2, "velocity": 85}, {"time": 4446, "pitch": 39, "duration": 14, "velocity": 90}, {"time": 4446, "pitch": 51, "duration": 6, "velocity": 85}, {"time": 4446, "pitch": 55, "duration": 6, "velocity": 85}, {"time": 4446, "pitch": 58, "duration": 6, "velocity": 84}, {"time": 4452, "pitch": 46, "duration": 7, "velocity": 78}, {"time": 4455, "pitch": 51, "duration": 2, "velocity": 85}, {"time": 4458, "pitch": 51, "duration": 3, "velocity": 85}, {"time": 4458, "pitch": 55, "duration": 3, "velocity": 88}, {"time": 4458, "pitch": 58, "duration": 4, "velocity": 90}, {"time": 4458, "pitch": 63, "duration": 5, "velocity": 86}, {"time": 4461, "pitch": 46, "duration": 2, "velocity": 86}, {"time": 4464, "pitch": 39, "duration": 2, "velocity": 84}, {"time": 4470, "pitch": 36, "duration": 2, "velocity": 86}, {"time": 4470, "pitch": 48, "duration": 3, "velocity": 85}, {"time": 4470, "pitch": 52, "duration": 3, "velocity": 86}, {"time": 4476, "pitch": 48, "duration": 17, "velocity": 87}, {"time": 4479, "pitch": 55, "duration": 13, "velocity": 85}, {"time": 4482, "pitch": 60, "duration": 3, "velocity": 88}, {"time": 4485, "pitch": 62, "duration": 2, "velocity": 88}, {"time": 4488, "pitch": 64, "duration": 2, "velocity": 87}, {"time": 4491, "pitch": 60, "duration": 2, "velocity": 85}, {"time": 4494, "pitch": 37, "duration": 7, "velocity": 92}, {"time": 4494, "pitch": 61, "duration": 4, "velocity": 82}, {"time": 4494, "pitch": 65, "duration": 5, "velocity": 82}, {"time": 4494, "pitch": 68, "duration": 6, "velocity": 76}, {"time": 4497, "pitch": 44, "duration": 5, "velocity": 85}, {"time": 4500, "pitch": 61, "duration": 4, "velocity": 89}, {"time": 4503, "pitch": 65, "duration": 2, "velocity": 85}, {"time": 4506, "pitch": 39, "duration": 12, "velocity": 102}, {"time": 4506, "pitch": 63, "duration": 7, "velocity": 86}, {"time": 4506, "pitch": 67, "duration": 10, "velocity": 89}, {"time": 4512, "pitch": 46, "duration": 6, "velocity": 85}, {"time": 4518, "pitch": 41, "duration": 23, "velocity": 86}, {"time": 4518, "pitch": 57, "duration": 7, "velocity": 81}, {"time": 4518, "pitch": 65, "duration": 6, "velocity": 84}, {"time": 4524, "pitch": 48, "duration": 17, "velocity": 69}, {"time": 4530, "pitch": 57, "duration": 3, "velocity": 85}, {"time": 4530, "pitch": 60, "duration": 3, "velocity": 88}, {"time": 4530, "pitch": 65, "duration": 3, "velocity": 85}, {"time": 4539, "pitch": 57, "duration": 4, "velocity": 75}, {"time": 4542, "pitch": 41, "duration": 16, "velocity": 85}, {"time": 4542, "pitch": 60, "duration": 8, "velocity": 86}, {"time": 4542, "pitch": 65, "duration": 7, "velocity": 86}, {"time": 4548, "pitch": 48, "duration": 8, "velocity": 76}, {"time": 4551, "pitch": 57, "duration": 2, "velocity": 79}, {"time": 4554, "pitch": 57, "duration": 1, "velocity": 68}, {"time": 4554, "pitch": 60, "duration": 4, "velocity": 91}, {"time": 4554, "pitch": 65, "duration": 9, "velocity": 88}, {"time": 4560, "pitch": 57, "duration": 3, "velocity": 80}, {"time": 4566, "pitch": 48, "duration": 21, "velocity": 89}, {"time": 4566, "pitch": 55, "duration": 5, "velocity": 85}, {"time": 4566, "pitch": 64, "duration": 7, "velocity": 86}, {"time": 4572, "pitch": 55, "duration": 3, "velocity": 77}, {"time": 4578, "pitch": 55, "duration": 4, "velocity": 87}, {"time": 4578, "pitch": 60, "duration": 4, "velocity": 87}, {"time": 4587, "pitch": 55, "duration": 3, "velocity": 71}, {"time": 4590, "pitch": 45, "duration": 17, "velocity": 86}, {"time": 4590, "pitch": 57, "duration": 6, "velocity": 85}, {"time": 4590, "pitch": 61, "duration": 7, "velocity": 92}, {"time": 4596, "pitch": 52, "duration": 8, "velocity": 90}, {"time": 4602, "pitch": 57, "duration": 2, "velocity": 89}, {"time": 4602, "pitch": 61, "duration": 3, "velocity": 99}, {"time": 4605, "pitch": 52, "duration": 3, "velocity": 89}, {"time": 4608, "pitch": 57, "duration": 4, "velocity": 87}, {"time": 4611, "pitch": 61, "duration": 2, "velocity": 92}, {"time": 4614, "pitch": 50, "duration": 21, "velocity": 88}, {"time": 4614, "pitch": 57, "duration": 4, "velocity": 71}, {"time": 4614, "pitch": 62, "duration": 7, "velocity": 87}, {"time": 4620, "pitch": 57, "duration": 2, "velocity": 79}, {"time": 4626, "pitch": 57, "duration": 2, "velocity": 86}, {"time": 4626, "pitch": 62, "duration": 3, "velocity": 87}, {"time": 4626, "pitch": 65, "duration": 5, "velocity": 84}, {"time": 4629, "pitch": 57, "duration": 4, "velocity": 84}, {"time": 4632, "pitch": 62, "duration": 4, "velocity": 83}, {"time": 4635, "pitch": 65, "duration": 4, "velocity": 86}, {"time": 4638, "pitch": 48, "duration": 15, "velocity": 92}, {"time": 4638, "pitch": 64, "duration": 9, "velocity": 89}, {"time": 4644, "pitch": 55, "duration": 4, "velocity": 84}, {"time": 4650, "pitch": 55, "duration": 3, "velocity": 91}, {"time": 4650, "pitch": 60, "duration": 5, "velocity": 94}, {"time": 4656, "pitch": 55, "duration": 3, "velocity": 81}, {"time": 4662, "pitch": 47, "duration": 22, "velocity": 86}, {"time": 4662, "pitch": 59, "duration": 8, "velocity": 84}, {"time": 4662, "pitch": 62, "duration": 8, "velocity": 85}, {"time": 4668, "pitch": 53, "duration": 16, "velocity": 75}, {"time": 4671, "pitch": 65, "duration": 8, "velocity": 89}, {"time": 4677, "pitch": 59, "duration": 10, "velocity": 86}, {"time": 4680, "pitch": 62, "duration": 11, "velocity": 85}, {"time": 4683, "pitch": 65, "duration": 12, "velocity": 85}, {"time": 4686, "pitch": 47, "duration": 17, "velocity": 88}, {"time": 4689, "pitch": 53, "duration": 10, "velocity": 80}, {"time": 4692, "pitch": 59, "duration": 4, "velocity": 77}, {"time": 4695, "pitch": 62, "duration": 2, "velocity": 85}, {"time": 4698, "pitch": 59, "duration": 4, "velocity": 82}, {"time": 4698, "pitch": 62, "duration": 5, "velocity": 86}, {"time": 4698, "pitch": 65, "duration": 4, "velocity": 84}, {"time": 4698, "pitch": 71, "duration": 5, "velocity": 86}, {"time": 4701, "pitch": 53, "duration": 3, "velocity": 81}, {"time": 4704, "pitch": 47, "duration": 2, "velocity": 81}, {"time": 4710, "pitch": 43, "duration": 23, "velocity": 85}, {"time": 4710, "pitch": 55, "duration": 9, "velocity": 78}, {"time": 4710, "pitch": 58, "duration": 8, "velocity": 79}, {"time": 4716, "pitch": 50, "duration": 7, "velocity": 73}, {"time": 4722, "pitch": 55, "duration": 1, "velocity": 77}, {"time": 4722, "pitch": 58, "duration": 6, "velocity": 89}, {"time": 4722, "pitch": 62, "duration": 10, "velocity": 87}, {"time": 4725, "pitch": 50, "duration": 5, "velocity": 85}, {"time": 4728, "pitch": 55, "duration": 5, "velocity": 85}, {"time": 4731, "pitch": 58, "duration": 2, "velocity": 81}, {"time": 4734, "pitch": 48, "duration": 15, "velocity": 88}, {"time": 4734, "pitch": 55, "duration": 4, "velocity": 81}, {"time": 4734, "pitch": 60, "duration": 7, "velocity": 86}, {"time": 4740, "pitch": 55, "duration": 2, "velocity": 86}, {"time": 4746, "pitch": 55, "duration": 3, "velocity": 88}, {"time": 4746, "pitch": 60, "duration": 6, "velocity": 89}, {"time": 4746, "pitch": 64, "duration": 8, "velocity": 89}, {"time": 4752, "pitch": 55, "duration": 2, "velocity": 87}, {"time": 4758, "pitch": 45, "duration": 18, "velocity": 86}, {"time": 4758, "pitch": 57, "duration": 4, "velocity": 86}, {"time": 4758, "pitch": 61, "duration": 6, "velocity": 92}, {"time": 4761, "pitch": 52, "duration": 7, "velocity": 87}, {"time": 4764, "pitch": 57, "duration": 4, "velocity": 86}, {"time": 4767, "pitch": 61, "duration": 6, "velocity": 94}, {"time": 4770, "pitch": 52, "duration": 6, "velocity": 85}, {"time": 4773, "pitch": 57, "duration": 4, "velocity": 75}, {"time": 4776, "pitch": 61, "duration": 3, "velocity": 82}, {"time": 4779, "pitch": 57, "duration": 2, "velocity": 78}, {"time": 4782, "pitch": 50, "duration": 14, "velocity": 89}, {"time": 4782, "pitch": 57, "duration": 1, "velocity": 76}, {"time": 4782, "pitch": 62, "duration": 7, "velocity": 86}, {"time": 4788, "pitch": 57, "duration": 3, "velocity": 82}, {"time": 4794, "pitch": 57, "duration": 2, "velocity": 87}, {"time": 4794, "pitch": 62, "duration": 3, "velocity": 87}, {"time": 4794, "pitch": 65, "duration": 6, "velocity": 87}, {"time": 4797, "pitch": 50, "duration": 2, "velocity": 87}, {"time": 4800, "pitch": 64, "duration": 4, "velocity": 96}, {"time": 4800, "pitch": 65, "duration": 1, "velocity": 57}, {"time": 4803, "pitch": 57, "duration": 3, "velocity": 73}, {"time": 4806, "pitch": 43, "duration": 16, "velocity": 86}, {"time": 4806, "pitch": 62, "duration": 9, "velocity": 83}, {"time": 4812, "pitch": 50, "duration": 8, "velocity": 81}, {"time": 4818, "pitch": 55, "duration": 3, "velocity": 79}, {"time": 4818, "pitch": 58, "duration": 3, "velocity": 91}, {"time": 4818, "pitch": 62, "duration": 3, "velocity": 86}, {"time": 4830, "pitch": 43, "duration": 16, "velocity": 87}, {"time": 4830, "pitch": 67, "duration": 5, "velocity": 86}, {"time": 4833, "pitch": 50, "duration": 7, "velocity": 76}, {"time": 4836, "pitch": 55, "duration": 3, "velocity": 87}, {"time": 4839, "pitch": 62, "duration": 5, "velocity": 87}, {"time": 4842, "pitch": 50, "duration": 4, "velocity": 85}, {"time": 4845, "pitch": 58, "duration": 3, "velocity": 88}, {"time": 4848, "pitch": 55, "duration": 3, "velocity": 87}, {"time": 4854, "pitch": 48, "duration": 20, "velocity": 92}, {"time": 4854, "pitch": 55, "duration": 3, "velocity": 87}, {"time": 4854, "pitch": 60, "duration": 7, "velocity": 87}, {"time": 4860, "pitch": 55, "duration": 2, "velocity": 85}, {"time": 4863, "pitch": 55, "duration": 5, "velocity": 86}, {"time": 4863, "pitch": 62, "duration": 7, "velocity": 90}, {"time": 4869, "pitch": 60, "duration": 2, "velocity": 91}, {"time": 4872, "pitch": 55, "duration": 2, "velocity": 87}, {"time": 4875, "pitch": 55, "duration": 4, "velocity": 88}, {"time": 4875, "pitch": 64, "duration": 7, "velocity": 90}, {"time": 4878, "pitch": 48, "duration": 21, "velocity": 94}, {"time": 4881, "pitch": 55, "duration": 3, "velocity": 90}, {"time": 4884, "pitch": 62, "duration": 3, "velocity": 86}, {"time": 4887, "pitch": 55, "duration": 2, "velocity": 87}, {"time": 4890, "pitch": 60, "duration": 3, "velocity": 86}, {"time": 4893, "pitch": 55, "duration": 3, "velocity": 75}, {"time": 4896, "pitch": 58, "duration": 3, "velocity": 85}, {"time": 4899, "pitch": 55, "duration": 3, "velocity": 85}, {"time": 4902, "pitch": 41, "duration": 23, "velocity": 86}, {"time": 4902, "pitch": 57, "duration": 7, "velocity": 81}, {"time": 4902, "pitch": 65, "duration": 6, "velocity": 84}, {"time": 4908, "pitch": 48, "duration": 17, "velocity": 69}, {"time": 4914, "pitch": 57, "duration": 3, "velocity": 85}, {"time": 4914, "pitch": 60, "duration": 3, "velocity": 88}, {"time": 4914, "pitch": 65, "duration": 3, "velocity": 85}, {"time": 4923, "pitch": 57, "duration": 4, "velocity": 75}, {"time": 4926, "pitch": 41, "duration": 16, "velocity": 85}, {"time": 4926, "pitch": 60, "duration": 8, "velocity": 86}, {"time": 4926, "pitch": 65, "duration": 7, "velocity": 86}, {"time": 4932, "pitch": 48, "duration": 8, "velocity": 76}, {"time": 4935, "pitch": 57, "duration": 2, "velocity": 79}, {"time": 4938, "pitch": 57, "duration": 1, "velocity": 68}, {"time": 4938, "pitch": 60, "duration": 4, "velocity": 91}, {"time": 4938, "pitch": 65, "duration": 9, "velocity": 88}, {"time": 4944, "pitch": 57, "duration": 3, "velocity": 80}, {"time": 4950, "pitch": 48, "duration": 21, "velocity": 89}, {"time": 4950, "pitch": 55, "duration": 5, "velocity": 85}, {"time": 4950, "pitch": 64, "duration": 7, "velocity": 86}, {"time": 4956, "pitch": 55, "duration": 3, "velocity": 77}, {"time": 4962, "pitch": 55, "duration": 4, "velocity": 87}, {"time": 4962, "pitch": 60, "duration": 4, "velocity": 87}, {"time": 4971, "pitch": 55, "duration": 3, "velocity": 71}, {"time": 4974, "pitch": 45, "duration": 17, "velocity": 86}, {"time": 4974, "pitch": 57, "duration": 6, "velocity": 85}, {"time": 4974, "pitch": 61, "duration": 7, "velocity": 92}, {"time": 4980, "pitch": 52, "duration": 8, "velocity": 90}, {"time": 4986, "pitch": 57, "duration": 2, "velocity": 89}, {"time": 4986, "pitch": 61, "duration": 3, "velocity": 99}, {"time": 4989, "pitch": 52, "duration": 3, "velocity": 89}, {"time": 4992, "pitch": 57, "duration": 4, "velocity": 87}, {"time": 4995, "pitch": 61, "duration": 2, "velocity": 92}, {"time": 4998, "pitch": 50, "duration": 21, "velocity": 88}, {"time": 4998, "pitch": 57, "duration": 4, "velocity": 71}, {"time": 4998, "pitch": 62, "duration": 7, "velocity": 87}, {"time": 5004, "pitch": 57, "duration": 2, "velocity": 79}, {"time": 5010, "pitch": 57, "duration": 2, "velocity": 86}, {"time": 5010, "pitch": 62, "duration": 3, "velocity": 87}, {"time": 5010, "pitch": 65, "duration": 5, "velocity": 84}, {"time": 5013, "pitch": 57, "duration": 4, "velocity": 84}, {"time": 5016, "pitch": 62, "duration": 4, "velocity": 83}, {"time": 5019, "pitch": 65, "duration": 4, "velocity": 86}, {"time": 5022, "pitch": 48, "duration": 15, "velocity": 92}, {"time": 5022, "pitch": 64, "duration": 9, "velocity": 89}, {"time": 5028, "pitch": 55, "duration": 4, "velocity": 84}, {"time": 5034, "pitch": 55, "duration": 3, "velocity": 91}, {"time": 5034, "pitch": 60, "duration": 5, "velocity": 94}, {"time": 5040, "pitch": 55, "duration": 3, "velocity": 81}, {"time": 5046, "pitch": 47, "duration": 22, "velocity": 86}, {"time": 5046, "pitch": 59, "duration": 8, "velocity": 84}, {"time": 5046, "pitch": 62, "duration": 8, "velocity": 85}, {"time": 5052, "pitch": 53, "duration": 16, "velocity": 75}, {"time": 5055, "pitch": 65, "duration": 8, "velocity": 89}, {"time": 5061, "pitch": 59, "duration": 10, "velocity": 86}, {"time": 5064, "pitch": 62, "duration": 11, "velocity": 85}, {"time": 5067, "pitch": 65, "duration": 12, "velocity": 85}, {"time": 5070, "pitch": 47, "duration": 17, "velocity": 88}, {"time": 5073, "pitch": 53, "duration": 10, "velocity": 80}, {"time": 5076, "pitch": 59, "duration": 4, "velocity": 77}, {"time": 5079, "pitch": 62, "duration": 2, "velocity": 85}, {"time": 5082, "pitch": 59, "duration": 4, "velocity": 82}, {"time": 5082, "pitch": 62, "duration": 5, "velocity": 86}, {"time": 5082, "pitch": 65, "duration": 4, "velocity": 84}, {"time": 5082, "pitch": 71, "duration": 5, "velocity": 86}, {"time": 5085, "pitch": 53, "duration": 3, "velocity": 81}, {"time": 5088, "pitch": 47, "duration": 2, "velocity": 81}, {"time": 5094, "pitch": 43, "duration": 19, "velocity": 86}, {"time": 5094, "pitch": 65, "duration": 7, "velocity": 86}, {"time": 5097, "pitch": 50, "duration": 8, "velocity": 85}, {"time": 5100, "pitch": 55, "duration": 2, "velocity": 87}, {"time": 5103, "pitch": 55, "duration": 5, "velocity": 87}, {"time": 5103, "pitch": 62, "duration": 4, "velocity": 85}, {"time": 5106, "pitch": 50, "duration": 4, "velocity": 87}, {"time": 5109, "pitch": 55, "duration": 2, "velocity": 86}, {"time": 5109, "pitch": 58, "duration": 4, "velocity": 86}, {"time": 5109, "pitch": 62, "duration": 4, "velocity": 89}, {"time": 5112, "pitch": 50, "duration": 2, "velocity": 85}, {"time": 5118, "pitch": 45, "duration": 19, "velocity": 87}, {"time": 5118, "pitch": 57, "duration": 4, "velocity": 86}, {"time": 5118, "pitch": 61, "duration": 5, "velocity": 81}, {"time": 5121, "pitch": 52, "duration": 7, "velocity": 85}, {"time": 5124, "pitch": 55, "duration": 5, "velocity": 89}, {"time": 5127, "pitch": 61, "duration": 3, "velocity": 92}, {"time": 5130, "pitch": 52, "duration": 5, "velocity": 84}, {"time": 5133, "pitch": 57, "duration": 6, "velocity": 85}, {"time": 5133, "pitch": 64, "duration": 8, "velocity": 87}, {"time": 5139, "pitch": 57, "duration": 3, "velocity": 88}, {"time": 5142, "pitch": 45, "duration": 18, "velocity": 86}, {"time": 5142, "pitch": 57, "duration": 4, "velocity": 86}, {"time": 5142, "pitch": 61, "duration": 1, "velocity": 76}, {"time": 5142, "pitch": 61, "duration": 1, "velocity": 92}, {"time": 5145, "pitch": 52, "duration": 7, "velocity": 87}, {"time": 5148, "pitch": 57, "duration": 4, "velocity": 86}, {"time": 5151, "pitch": 61, "duration": 6, "velocity": 94}, {"time": 5154, "pitch": 52, "duration": 6, "velocity": 85}, {"time": 5157, "pitch": 57, "duration": 4, "velocity": 75}, {"time": 5160, "pitch": 61, "duration": 3, "velocity": 82}, {"time": 5163, "pitch": 57, "duration": 2, "velocity": 78}, {"time": 5166, "pitch": 50, "duration": 14, "velocity": 89}, {"time": 5166, "pitch": 57, "duration": 1, "velocity": 76}, {"time": 5166, "pitch": 62, "duration": 7, "velocity": 86}, {"time": 5172, "pitch": 57, "duration": 3, "velocity": 82}, {"time": 5178, "pitch": 57, "duration": 2, "velocity": 87}, {"time": 5178, "pitch": 62, "duration": 3, "velocity": 87}, {"time": 5178, "pitch": 65, "duration": 6, "velocity": 87}, {"time": 5181, "pitch": 50, "duration": 2, "velocity": 87}, {"time": 5184, "pitch": 64, "duration": 4, "velocity": 96}, {"time": 5184, "pitch": 65, "duration": 1, "velocity": 57}, {"time": 5187, "pitch": 57, "duration": 3, "velocity": 73}, {"time": 5190, "pitch": 43, "duration": 16, "velocity": 86}, {"time": 5190, "pitch": 62, "duration": 9, "velocity": 83}, {"time": 5196, "pitch": 50, "duration": 8, "velocity": 81}, {"time": 5202, "pitch": 55, "duration": 3, "velocity": 79}, {"time": 5202, "pitch": 58, "duration": 3, "velocity": 91}, {"time": 5202, "pitch": 62, "duration": 3, "velocity": 86}, {"time": 5214, "pitch": 43, "duration": 16, "velocity": 87}, {"time": 5214, "pitch": 67, "duration": 5, "velocity": 86}, {"time": 5217, "pitch": 50, "duration": 7, "velocity": 76}, {"time": 5220, "pitch": 55, "duration": 3, "velocity": 87}, {"time": 5223, "pitch": 62, "duration": 5, "velocity": 87}, {"time": 5226, "pitch": 50, "duration": 4, "velocity": 85}, {"time": 5229, "pitch": 58, "duration": 3, "velocity": 88}, {"time": 5232, "pitch": 55, "duration": 3, "velocity": 87}, {"time": 5238, "pitch": 48, "duration": 20, "velocity": 92}, {"time": 5238, "pitch": 55, "duration": 3, "velocity": 87}, {"time": 5238, "pitch": 60, "duration": 7, "velocity": 87}, {"time": 5244, "pitch": 55, "duration": 2, "velocity": 85}, {"time": 5247, "pitch": 55, "duration": 5, "velocity": 86}, {"time": 5247, "pitch": 62, "duration": 7, "velocity": 90}, {"time": 5253, "pitch": 60, "duration": 2, "velocity": 91}, {"time": 5256, "pitch": 55, "duration": 2, "velocity": 87}, {"time": 5259, "pitch": 55, "duration": 4, "velocity": 88}, {"time": 5259, "pitch": 64, "duration": 7, "velocity": 90}, {"time": 5262, "pitch": 48, "duration": 21, "velocity": 94}, {"time": 5265, "pitch": 55, "duration": 3, "velocity": 90}, {"time": 5268, "pitch": 62, "duration": 3, "velocity": 86}, {"time": 5271, "pitch": 55, "duration": 2, "velocity": 87}, {"time": 5274, "pitch": 60, "duration": 3, "velocity": 86}, {"time": 5277, "pitch": 55, "duration": 3, "velocity": 75}, {"time": 5280, "pitch": 58, "duration": 3, "velocity": 85}, {"time": 5283, "pitch": 55, "duration": 3, "velocity": 85}, {"time": 5286, "pitch": 53, "duration": 15, "velocity": 80}, {"time": 5286, "pitch": 69, "duration": 14, "velocity": 79}, {"time": 5292, "pitch": 60, "duration": 8, "velocity": 70}, {"time": 5298, "pitch": 65, "duration": 4, "velocity": 76}, {"time": 5310, "pitch": 52, "duration": 15, "velocity": 85}, {"time": 5310, "pitch": 64, "duration": 7, "velocity": 78}, {"time": 5310, "pitch": 67, "duration": 13, "velocity": 75}, {"time": 5316, "pitch": 60, "duration": 8, "velocity": 72}, {"time": 5322, "pitch": 64, "duration": 6, "velocity": 81}, {"time": 5334, "pitch": 50, "duration": 15, "velocity": 81}, {"time": 5334, "pitch": 65, "duration": 12, "velocity": 79}, {"time": 5340, "pitch": 57, "duration": 8, "velocity": 65}, {"time": 5346, "pitch": 62, "duration": 5, "velocity": 85}, {"time": 5358, "pitch": 53, "duration": 15, "velocity": 80}, {"time": 5358, "pitch": 60, "duration": 4, "velocity": 76}, {"time": 5358, "pitch": 65, "duration": 9, "velocity": 78}, {"time": 5364, "pitch": 60, "duration": 7, "velocity": 80}, {"time": 5370, "pitch": 63, "duration": 6, "velocity": 76}, {"time": 5376, "pitch": 60, "duration": 5, "velocity": 61}, {"time": 5382, "pitch": 46, "duration": 21, "velocity": 79}, {"time": 5382, "pitch": 58, "duration": 8, "velocity": 74}, {"time": 5382, "pitch": 65, "duration": 13, "velocity": 82}, {"time": 5388, "pitch": 53, "duration": 16, "velocity": 64}, {"time": 5394, "pitch": 58, "duration": 6, "velocity": 85}, {"time": 5400, "pitch": 62, "duration": 6, "velocity": 79}, {"time": 5406, "pitch": 45, "duration": 17, "velocity": 74}, {"time": 5406, "pitch": 60, "duration": 13, "velocity": 83}, {"time": 5412, "pitch": 52, "duration": 11, "velocity": 80}, {"time": 5418, "pitch": 57, "duration": 8, "velocity": 80}, {"time": 5424, "pitch": 60, "duration": 6, "velocity": 81}, {"time": 5430, "pitch": 43, "duration": 23, "velocity": 86}, {"time": 5436, "pitch": 50, "duration": 14, "velocity": 80}, {"time": 5442, "pitch": 58, "duration": 6, "velocity": 79}, {"time": 5442, "pitch": 62, "duration": 9, "velocity": 84}, {"time": 5448, "pitch": 55, "duration": 8, "velocity": 83}, {"time": 5454, "pitch": 48, "duration": 24, "velocity": 85}, {"time": 5454, "pitch": 60, "duration": 7, "velocity": 87}, {"time": 5460, "pitch": 55, "duration": 7, "velocity": 85}, {"time": 5466, "pitch": 60, "duration": 12, "velocity": 81}, {"time": 5466, "pitch": 64, "duration": 12, "velocity": 87}, {"time": 5472, "pitch": 55, "duration": 6, "velocity": 80}, {"time": 5478, "pitch": 53, "duration": 15, "velocity": 80}, {"time": 5478, "pitch": 69, "duration": 14, "velocity": 79}, {"time": 5484, "pitch": 60, "duration": 8, "velocity": 70}, {"time": 5490, "pitch": 65, "duration": 4, "velocity": 76}, {"time": 5502, "pitch": 52, "duration": 15, "velocity": 85}, {"time": 5502, "pitch": 64, "duration": 7, "velocity": 78}, {"time": 5502, "pitch": 67, "duration": 13, "velocity": 75}, {"time": 5508, "pitch": 60, "duration": 8, "velocity": 72}, {"time": 5514, "pitch": 64, "duration": 6, "velocity": 81}, {"time": 5526, "pitch": 50, "duration": 15, "velocity": 81}, {"time": 5526, "pitch": 65, "duration": 12, "velocity": 79}, {"time": 5532, "pitch": 57, "duration": 8, "velocity": 65}, {"time": 5538, "pitch": 62, "duration": 5, "velocity": 85}, {"time": 5550, "pitch": 53, "duration": 15, "velocity": 80}, {"time": 5550, "pitch": 60, "duration": 4, "velocity": 76}, {"time": 5550, "pitch": 65, "duration": 9, "velocity": 78}, {"time": 5556, "pitch": 60, "duration": 7, "velocity": 80}, {"time": 5562, "pitch": 63, "duration": 6, "velocity": 76}, {"time": 5568, "pitch": 60, "duration": 5, "velocity": 61}, {"time": 5574, "pitch": 46, "duration": 21, "velocity": 79}, {"time": 5574, "pitch": 58, "duration": 8, "velocity": 74}, {"time": 5574, "pitch": 65, "duration": 13, "velocity": 82}, {"time": 5580, "pitch": 53, "duration": 16, "velocity": 64}, {"time": 5586, "pitch": 58, "duration": 6, "velocity": 85}, {"time": 5592, "pitch": 62, "duration": 6, "velocity": 79}, {"time": 5598, "pitch": 45, "duration": 17, "velocity": 74}, {"time": 5598, "pitch": 60, "duration": 13, "velocity": 83}, {"time": 5604, "pitch": 52, "duration": 11, "velocity": 80}, {"time": 5610, "pitch": 57, "duration": 8, "velocity": 80}, {"time": 5616, "pitch": 60, "duration": 6, "velocity": 81}, {"time": 5621, "pitch": 43, "duration": 28, "velocity": 86}, {"time": 5628, "pitch": 50, "duration": 20, "velocity": 70}, {"time": 5634, "pitch": 58, "duration": 8, "velocity": 87}, {"time": 5641, "pitch": 62, "duration": 8, "velocity": 85}, {"time": 5647, "pitch": 67, "duration": 13, "velocity": 85}, {"time": 5653, "pitch": 55, "duration": 7, "velocity": 75}, {"time": 5668, "pitch": 55, "duration": 10, "velocity": 68}, {"time": 5670, "pitch": 60, "duration": 11, "velocity": 78}, {"time": 5671, "pitch": 36, "duration": 4, "velocity": 83}, {"time": 5672, "pitch": 64, "duration": 11, "velocity": 85}, {"time": 5679, "pitch": 48, "duration": 42, "velocity": 79}, {"time": 5686, "pitch": 55, "duration": 34, "velocity": 84}, {"time": 5697, "pitch": 60, "duration": 13, "velocity": 55}, {"time": 5699, "pitch": 64, "duration": 11, "velocity": 78}, {"time": 5727, "pitch": 60, "duration": 6, "velocity": 60}, {"time": 5729, "pitch": 65, "duration": 11, "velocity": 71}, {"time": 5729, "pitch": 41, "duration": 5, "velocity": 85}, {"time": 5730, "pitch": 69, "duration": 14, "velocity": 78}, {"time": 5739, "pitch": 53, "duration": 37, "velocity": 73}, {"time": 5744, "pitch": 60, "duration": 32, "velocity": 69}, {"time": 5747, "pitch": 67, "duration": 2, "velocity": 69}, {"time": 5749, "pitch": 69, "duration": 4, "velocity": 74}, {"time": 5752, "pitch": 65, "duration": 23, "velocity": 73}, {"time": 5757, "pitch": 69, "duration": 18, "velocity": 75}], "annotations": [{"time": 6, "annotation": {"number": 64, "value": 127}, "group": "control_change"}, {"time": 29, "annotation": {"number": 64, "value": 0}, "group": "control_change"}, {"time": 33, "annotation": {"number": 64, "value": 127}, "group": "control_change"}, {"time": 53, "annotation": {"number": 64, "value": 0}, "group": "control_change"}, {"time": 60, "annotation": {"number": 64, "value": 127}, "group": "control_change"}, {"time": 77, "annotation": {"number": 64, "value": 0}, "group": "control_change"}, {"time": 79, "annotation": {"number": 64, "value": 127}, "group": "control_change"}, {"time": 101, "annotation": {"number": 64, "value": 0}, "group": "control_change"}, {"time": 102, "annotation": {"number": 64, "value": 127}, "group": "control_change"}, {"time": 103, "annotation": {"number": 64, "value": 0}, "group": "control_change"}, {"time": 103, "annotation": {"number": 64, "value": 127}, "group": "control_change"}, {"time": 104, "annotation": {"number": 64, "value": 127}, "group": "control_change"}, {"time": 112, "annotation": {"number": 64, "value": 0}, "group": "control_change"}, {"time": 125, "annotation": {"number": 64, "value": 0}, "group": "control_change"}, {"time": 130, "annotation": {"number": 64, "value": 127}, "group": "control_change"}, {"time": 148, "annotation": {"number": 64, "value": 0}, "group": "control_change"}, {"time": 152, "annotation": {"number": 64, "value": 127}, "group": "control_change"}, {"time": 152, "annotation": {"number": 64, "value": 0}, "group": "control_change"}, {"time": 173, "annotation": {"number": 64, "value": 0}, "group": "control_change"}, {"time": 177, "annotation": {"number": 64, "value": 127}, "group": "control_change"}, {"time": 195, "annotation": {"number": 64, "value": 0}, "group": "control_change"}, {"time": 196, "annotation": {"number": 64, "value": 0}, "group": "control_change"}, {"time": 200, "annotation": {"number": 64, "value": 127}, "group": "control_change"}, {"time": 243, "annotation": {"number": 64, "value": 0}, "group": "control_change"}, {"time": 245, "annotation": {"number": 64, "value": 127}, "group": "control_change"}, {"time": 290, "annotation": {"number": 64, "value": 0}, "group": "control_change"}, {"time": 341, "annotation": {"number": 64, "value": 0}, "group": "control_change"}, {"time": 343, "annotation": {"number": 64, "value": 127}, "group": "control_change"}, {"time": 365, "annotation": {"number": 64, "value": 0}, "group": "control_change"}, {"time": 369, "annotation": {"number": 64, "value": 127}, "group": "control_change"}, {"time": 389, "annotation": {"number": 64, "value": 0}, "group": "control_change"}, {"time": 401, "annotation": {"number": 64, "value": 127}, "group": "control_change"}, {"time": 413, "annotation": {"number": 64, "value": 0}, "group": "control_change"}, {"time": 415, "annotation": {"number": 64, "value": 127}, "group": "control_change"}, {"time": 437, "annotation": {"number": 64, "value": 0}, "group": "control_change"}, {"time": 444, "annotation": {"number": 64, "value": 127}, "group": "control_change"}, {"time": 485, "annotation": {"number": 64, "value": 0}, "group": "control_change"}, {"time": 491, "annotation": {"number": 64, "value": 127}, "group": "control_change"}, {"time": 510, "annotation": {"number": 64, "value": 0}, "group": "control_change"}, {"time": 516, "annotation": {"number": 64, "value": 127}, "group": "control_change"}, {"time": 533, "annotation": {"number": 64, "value": 0}, "group": "control_change"}, {"time": 537, "annotation": {"number": 64, "value": 127}, "group": "control_change"}, {"time": 557, "annotation": {"number": 64, "value": 0}, "group": "control_change"}, {"time": 561, "annotation": {"number": 64, "value": 127}, "group": "control_change"}, {"time": 581, "annotation": {"number": 64, "value": 0}, "group": "control_change"}, {"time": 584, "annotation": {"number": 64, "value": 127}, "group": "control_change"}, {"time": 630, "annotation": {"number": 64, "value": 0}, "group": "control_change"}, {"time": 633, "annotation": {"number": 64, "value": 127}, "group": "control_change"}, {"time": 655, "annotation": {"number": 64, "value": 0}, "group": "control_change"}, {"time": 657, "annotation": {"number": 64, "value": 127}, "group": "control_change"}, {"time": 677, "annotation": {"number": 64, "value": 0}, "group": "control_change"}, {"time": 725, "annotation": {"number": 64, "value": 0}, "group": "control_change"}, {"time": 727, "annotation": {"number": 64, "value": 127}, "group": "control_change"}, {"time": 749, "annotation": {"number": 64, "value": 0}, "group": "control_change"}, {"time": 753, "annotation": {"number": 64, "value": 127}, "group": "control_change"}, {"time": 773, "annotation": {"number": 64, "value": 0}, "group": "control_change"}, {"time": 785, "annotation": {"number": 64, "value": 127}, "group": "control_change"}, {"time": 797, "annotation": {"number": 64, "value": 0}, "group": "control_change"}, {"time": 799, "annotation": {"number": 64, "value": 127}, "group": "control_change"}, {"time": 821, "annotation": {"number": 64, "value": 0}, "group": "control_change"}, {"time": 828, "annotation": {"number": 64, "value": 127}, "group": "control_change"}, {"time": 869, "annotation": {"number": 64, "value": 0}, "group": "control_change"}, {"time": 875, "annotation": {"number": 64, "value": 127}, "group": "control_change"}, {"time": 894, "annotation": {"number": 64, "value": 0}, "group": "control_change"}, {"time": 900, "annotation": {"number": 64, "value": 127}, "group": "control_change"}, {"time": 917, "annotation": {"number": 64, "value": 0}, "group": "control_change"}, {"time": 921, "annotation": {"number": 64, "value": 127}, "group": "control_change"}, {"time": 941, "annotation": {"number": 64, "value": 0}, "group": "control_change"}, {"time": 945, "annotation": {"number": 64, "value": 127}, "group": "control_change"}, {"time": 965, "annotation": {"number": 64, "value": 0}, "group": "control_change"}, {"time": 968, "annotation": {"number": 64, "value": 127}, "group": "control_change"}, {"time": 990, "annotation": {"number": 64, "value": 0}, "group": "control_change"}, {"time": 996, "annotation": {"number": 64, "value": 127}, "group": "control_change"}, {"time": 1012, "annotation": {"number": 64, "value": 0}, "group": "control_change"}, {"time": 1015, "annotation": {"number": 64, "value": 127}, "group": "control_change"}, {"time": 1060, "annotation": {"number": 64, "value": 0}, "group": "control_change"}, {"time": 1064, "annotation": {"number": 64, "value": 127}, "group": "control_change"}, {"time": 1086, "annotation": {"number": 64, "value": 0}, "group": "control_change"}, {"time": 1091, "annotation": {"number": 64, "value": 127}, "group": "control_change"}, {"time": 1108, "annotation": {"number": 64, "value": 0}, "group": "control_change"}, {"time": 1110, "annotation": {"number": 64, "value": 127}, "group": "control_change"}, {"time": 1133, "annotation": {"number": 64, "value": 0}, "group": "control_change"}, {"time": 1135, "annotation": {"number": 64, "value": 127}, "group": "control_change"}, {"time": 1156, "annotation": {"number": 64, "value": 0}, "group": "control_change"}, {"time": 1158, "annotation": {"number": 64, "value": 127}, "group": "control_change"}, {"time": 1181, "annotation": {"number": 64, "value": 0}, "group": "control_change"}, {"time": 1184, "annotation": {"number": 64, "value": 127}, "group": "control_change"}, {"time": 1206, "annotation": {"number": 64, "value": 0}, "group": "control_change"}, {"time": 1206, "annotation": {"number": 64, "value": 127}, "group": "control_change"}, {"time": 1242, "annotation": {"number": 64, "value": 0}, "group": "control_change"}, {"time": 1244, "annotation": {"number": 64, "value": 127}, "group": "control_change"}, {"time": 1253, "annotation": {"number": 64, "value": 0}, "group": "control_change"}, {"time": 1255, "annotation": {"number": 64, "value": 127}, "group": "control_change"}, {"time": 1255, "annotation": {"number": 64, "value": 0}, "group": "control_change"}, {"time": 1275, "annotation": {"number": 64, "value": 0}, "group": "control_change"}, {"time": 1278, "annotation": {"number": 64, "value": 127}, "group": "control_change"}, {"time": 1300, "annotation": {"number": 64, "value": 0}, "group": "control_change"}, {"time": 1304, "annotation": {"number": 64, "value": 127}, "group": "control_change"}, {"time": 1326, "annotation": {"number": 64, "value": 0}, "group": "control_change"}, {"time": 1332, "annotation": {"number": 64, "value": 127}, "group": "control_change"}, {"time": 1349, "annotation": {"number": 64, "value": 0}, "group": "control_change"}, {"time": 1354, "annotation": {"number": 64, "value": 127}, "group": "control_change"}, {"time": 1373, "annotation": {"number": 64, "value": 0}, "group": "control_change"}, {"time": 1376, "annotation": {"number": 64, "value": 127}, "group": "control_change"}, {"time": 1397, "annotation": {"number": 64, "value": 0}, "group": "control_change"}, {"time": 1400, "annotation": {"number": 64, "value": 127}, "group": "control_change"}, {"time": 1420, "annotation": {"number": 64, "value": 0}, "group": "control_change"}, {"time": 1421, "annotation": {"number": 64, "value": 127}, "group": "control_change"}, {"time": 1445, "annotation": {"number": 64, "value": 0}, "group": "control_change"}, {"time": 1446, "annotation": {"number": 64, "value": 127}, "group": "control_change"}, {"time": 1489, "annotation": {"number": 64, "value": 0}, "group": "control_change"}, {"time": 1495, "annotation": {"number": 64, "value": 127}, "group": "control_change"}, {"time": 1517, "annotation": {"number": 64, "value": 0}, "group": "control_change"}, {"time": 1519, "annotation": {"number": 64, "value": 127}, "group": "control_change"}, {"time": 1541, "annotation": {"number": 64, "value": 0}, "group": "control_change"}, {"time": 1544, "annotation": {"number": 64, "value": 127}, "group": "control_change"}, {"time": 1565, "annotation": {"number": 64, "value": 0}, "group": "control_change"}, {"time": 1567, "annotation": {"number": 64, "value": 127}, "group": "control_change"}, {"time": 1589, "annotation": {"number": 64, "value": 0}, "group": "control_change"}, {"time": 1591, "annotation": {"number": 64, "value": 127}, "group": "control_change"}, {"time": 1614, "annotation": {"number": 64, "value": 0}, "group": "control_change"}, {"time": 1615, "annotation": {"number": 64, "value": 127}, "group": "control_change"}, {"time": 1640, "annotation": {"number": 64, "value": 127}, "group": "control_change"}, {"time": 1661, "annotation": {"number": 64, "value": 0}, "group": "control_change"}, {"time": 1663, "annotation": {"number": 64, "value": 127}, "group": "control_change"}, {"time": 1685, "annotation": {"number": 64, "value": 0}, "group": "control_change"}, {"time": 1688, "annotation": {"number": 64, "value": 127}, "group": "control_change"}, {"time": 1711, "annotation": {"number": 64, "value": 0}, "group": "control_change"}, {"time": 1712, "annotation": {"number": 64, "value": 127}, "group": "control_change"}, {"time": 1733, "annotation": {"number": 64, "value": 0}, "group": "control_change"}, {"time": 1735, "annotation": {"number": 64, "value": 127}, "group": "control_change"}, {"time": 1757, "annotation": {"number": 64, "value": 0}, "group": "control_change"}, {"time": 1759, "annotation": {"number": 64, "value": 127}, "group": "control_change"}, {"time": 1781, "annotation": {"number": 64, "value": 0}, "group": "control_change"}, {"time": 1783, "annotation": {"number": 64, "value": 127}, "group": "control_change"}, {"time": 1804, "annotation": {"number": 64, "value": 0}, "group": "control_change"}, {"time": 1806, "annotation": {"number": 64, "value": 127}, "group": "control_change"}, {"time": 1829, "annotation": {"number": 64, "value": 0}, "group": "control_change"}, {"time": 1831, "annotation": {"number": 64, "value": 127}, "group": "control_change"}, {"time": 1852, "annotation": {"number": 64, "value": 0}, "group": "control_change"}, {"time": 1853, "annotation": {"number": 64, "value": 127}, "group": "control_change"}, {"time": 1876, "annotation": {"number": 64, "value": 0}, "group": "control_change"}, {"time": 1879, "annotation": {"number": 64, "value": 127}, "group": "control_change"}, {"time": 1901, "annotation": {"number": 64, "value": 0}, "group": "control_change"}, {"time": 1903, "annotation": {"number": 64, "value": 127}, "group": "control_change"}, {"time": 1925, "annotation": {"number": 64, "value": 0}, "group": "control_change"}, {"time": 1928, "annotation": {"number": 64, "value": 127}, "group": "control_change"}, {"time": 1949, "annotation": {"number": 64, "value": 0}, "group": "control_change"}, {"time": 1951, "annotation": {"number": 64, "value": 127}, "group": "control_change"}, {"time": 1973, "annotation": {"number": 64, "value": 0}, "group": "control_change"}, {"time": 1975, "annotation": {"number": 64, "value": 127}, "group": "control_change"}, {"time": 1998, "annotation": {"number": 64, "value": 0}, "group": "control_change"}, {"time": 1999, "annotation": {"number": 64, "value": 127}, "group": "control_change"}, {"time": 2024, "annotation": {"number": 64, "value": 127}, "group": "control_change"}, {"time": 2045, "annotation": {"number": 64, "value": 0}, "group": "control_change"}, {"time": 2047, "annotation": {"number": 64, "value": 127}, "group": "control_change"}, {"time": 2069, "annotation": {"number": 64, "value": 0}, "group": "control_change"}, {"time": 2070, "annotation": {"number": 64, "value": 127}, "group": "control_change"}, {"time": 2094, "annotation": {"number": 64, "value": 0}, "group": "control_change"}, {"time": 2096, "annotation": {"number": 64, "value": 127}, "group": "control_change"}, {"time": 2118, "annotation": {"number": 64, "value": 0}, "group": "control_change"}, {"time": 2119, "annotation": {"number": 64, "value": 127}, "group": "control_change"}, {"time": 2141, "annotation": {"number": 64, "value": 0}, "group": "control_change"}, {"time": 2143, "annotation": {"number": 64, "value": 127}, "group": "control_change"}, {"time": 2165, "annotation": {"number": 64, "value": 0}, "group": "control_change"}, {"time": 2167, "annotation": {"number": 64, "value": 127}, "group": "control_change"}, {"time": 2188, "annotation": {"number": 64, "value": 0}, "group": "control_change"}, {"time": 2190, "annotation": {"number": 64, "value": 127}, "group": "control_change"}, {"time": 2213, "annotation": {"number": 64, "value": 0}, "group": "control_change"}, {"time": 2215, "annotation": {"number": 64, "value": 127}, "group": "control_change"}, {"time": 2236, "annotation": {"number": 64, "value": 0}, "group": "control_change"}, {"time": 2237, "annotation": {"number": 64, "value": 127}, "group": "control_change"}, {"time": 2260, "annotation": {"number": 64, "value": 0}, "group": "control_change"}, {"time": 2262, "annotation": {"number": 64, "value": 127}, "group": "control_change"}, {"time": 2285, "annotation": {"number": 64, "value": 0}, "group": "control_change"}, {"time": 2289, "annotation": {"number": 64, "value": 127}, "group": "control_change"}, {"time": 2309, "annotation": {"number": 64, "value": 0}, "group": "control_change"}, {"time": 2316, "annotation": {"number": 64, "value": 127}, "group": "control_change"}, {"time": 2333, "annotation": {"number": 64, "value": 0}, "group": "control_change"}, {"time": 2335, "annotation": {"number": 64, "value": 127}, "group": "control_change"}, {"time": 2357, "annotation": {"number": 64, "value": 0}, "group": "control_change"}, {"time": 2358, "annotation": {"number": 64, "value": 127}, "group": "control_change"}, {"time": 2359, "annotation": {"number": 64, "value": 0}, "group": "control_change"}, {"time": 2359, "annotation": {"number": 64, "value": 127}, "group": "control_change"}, {"time": 2360, "annotation": {"number": 64, "value": 127}, "group": "control_change"}, {"time": 2368, "annotation": {"number": 64, "value": 0}, "group": "control_change"}, {"time": 2381, "annotation": {"number": 64, "value": 0}, "group": "control_change"}, {"time": 2386, "annotation": {"number": 64, "value": 127}, "group": "control_change"}, {"time": 2404, "annotation": {"number": 64, "value": 0}, "group": "control_change"}, {"time": 2408, "annotation": {"number": 64, "value": 127}, "group": "control_change"}, {"time": 2408, "annotation": {"number": 64, "value": 0}, "group": "control_change"}, {"time": 2429, "annotation": {"number": 64, "value": 0}, "group": "control_change"}, {"time": 2433, "annotation": {"number": 64, "value": 127}, "group": "control_change"}, {"time": 2451, "annotation": {"number": 64, "value": 0}, "group": "control_change"}, {"time": 2452, "annotation": {"number": 64, "value": 0}, "group": "control_change"}, {"time": 2549, "annotation": {"number": 64, "value": 0}, "group": "control_change"}, {"time": 2551, "annotation": {"number": 64, "value": 127}, "group": "control_change"}, {"time": 2573, "annotation": {"number": 64, "value": 0}, "group": "control_change"}, {"time": 2577, "annotation": {"number": 64, "value": 127}, "group": "control_change"}, {"time": 2597, "annotation": {"number": 64, "value": 0}, "group": "control_change"}, {"time": 2609, "annotation": {"number": 64, "value": 127}, "group": "control_change"}, {"time": 2621, "annotation": {"number": 64, "value": 0}, "group": "control_change"}, {"time": 2623, "annotation": {"number": 64, "value": 127}, "group": "control_change"}, {"time": 2645, "annotation": {"number": 64, "value": 0}, "group": "control_change"}, {"time": 2652, "annotation": {"number": 64, "value": 127}, "group": "control_change"}, {"time": 2693, "annotation": {"number": 64, "value": 0}, "group": "control_change"}, {"time": 2699, "annotation": {"number": 64, "value": 127}, "group": "control_change"}, {"time": 2718, "annotation": {"number": 64, "value": 0}, "group": "control_change"}, {"time": 2724, "annotation": {"number": 64, "value": 127}, "group": "control_change"}, {"time": 2741, "annotation": {"number": 64, "value": 0}, "group": "control_change"}, {"time": 2745, "annotation": {"number": 64, "value": 127}, "group": "control_change"}, {"time": 2765, "annotation": {"number": 64, "value": 0}, "group": "control_change"}, {"time": 2769, "annotation": {"number": 64, "value": 127}, "group": "control_change"}, {"time": 2789, "annotation": {"number": 64, "value": 0}, "group": "control_change"}, {"time": 2792, "annotation": {"number": 64, "value": 127}, "group": "control_change"}, {"time": 2814, "annotation": {"number": 64, "value": 0}, "group": "control_change"}, {"time": 2820, "annotation": {"number": 64, "value": 127}, "group": "control_change"}, {"time": 2836, "annotation": {"number": 64, "value": 0}, "group": "control_change"}, {"time": 2839, "annotation": {"number": 64, "value": 127}, "group": "control_change"}, {"time": 2884, "annotation": {"number": 64, "value": 0}, "group": "control_change"}, {"time": 2888, "annotation": {"number": 64, "value": 127}, "group": "control_change"}, {"time": 2910, "annotation": {"number": 64, "value": 0}, "group": "control_change"}, {"time": 2915, "annotation": {"number": 64, "value": 127}, "group": "control_change"}, {"time": 2932, "annotation": {"number": 64, "value": 0}, "group": "control_change"}, {"time": 2934, "annotation": {"number": 64, "value": 127}, "group": "control_change"}, {"time": 2957, "annotation": {"number": 64, "value": 0}, "group": "control_change"}, {"time": 2959, "annotation": {"number": 64, "value": 127}, "group": "control_change"}, {"time": 2980, "annotation": {"number": 64, "value": 0}, "group": "control_change"}, {"time": 2982, "annotation": {"number": 64, "value": 127}, "group": "control_change"}, {"time": 3005, "annotation": {"number": 64, "value": 0}, "group": "control_change"}, {"time": 3008, "annotation": {"number": 64, "value": 127}, "group": "control_change"}, {"time": 3030, "annotation": {"number": 64, "value": 0}, "group": "control_change"}, {"time": 3030, "annotation": {"number": 64, "value": 127}, "group": "control_change"}, {"time": 3066, "annotation": {"number": 64, "value": 0}, "group": "control_change"}, {"time": 3068, "annotation": {"number": 64, "value": 127}, "group": "control_change"}, {"time": 3077, "annotation": {"number": 64, "value": 0}, "group": "control_change"}, {"time": 3079, "annotation": {"number": 64, "value": 127}, "group": "control_change"}, {"time": 3079, "annotation": {"number": 64, "value": 0}, "group": "control_change"}, {"time": 3099, "annotation": {"number": 64, "value": 0}, "group": "control_change"}, {"time": 3102, "annotation": {"number": 64, "value": 127}, "group": "control_change"}, {"time": 3124, "annotation": {"number": 64, "value": 0}, "group": "control_change"}, {"time": 3128, "annotation": {"number": 64, "value": 127}, "group": "control_change"}, {"time": 3150, "annotation": {"number": 64, "value": 0}, "group": "control_change"}, {"time": 3156, "annotation": {"number": 64, "value": 127}, "group": "control_change"}, {"time": 3173, "annotation": {"number": 64, "value": 0}, "group": "control_change"}, {"time": 3178, "annotation": {"number": 64, "value": 127}, "group": "control_change"}, {"time": 3197, "annotation": {"number": 64, "value": 0}, "group": "control_change"}, {"time": 3200, "annotation": {"number": 64, "value": 127}, "group": "control_change"}, {"time": 3221, "annotation": {"number": 64, "value": 0}, "group": "control_change"}, {"time": 3224, "annotation": {"number": 64, "value": 127}, "group": "control_change"}, {"time": 3244, "annotation": {"number": 64, "value": 0}, "group": "control_change"}, {"time": 3245, "annotation": {"number": 64, "value": 127}, "group": "control_change"}, {"time": 3269, "annotation": {"number": 64, "value": 0}, "group": "control_change"}, {"time": 3270, "annotation": {"number": 64, "value": 127}, "group": "control_change"}, {"time": 3313, "annotation": {"number": 64, "value": 0}, "group": "control_change"}, {"time": 3319, "annotation": {"number": 64, "value": 127}, "group": "control_change"}, {"time": 3341, "annotation": {"number": 64, "value": 0}, "group": "control_change"}, {"time": 3343, "annotation": {"number": 64, "value": 127}, "group": "control_change"}, {"time": 3365, "annotation": {"number": 64, "value": 0}, "group": "control_change"}, {"time": 3368, "annotation": {"number": 64, "value": 127}, "group": "control_change"}, {"time": 3389, "annotation": {"number": 64, "value": 0}, "group": "control_change"}, {"time": 3391, "annotation": {"number": 64, "value": 127}, "group": "control_change"}, {"time": 3413, "annotation": {"number": 64, "value": 0}, "group": "control_change"}, {"time": 3415, "annotation": {"number": 64, "value": 127}, "group": "control_change"}, {"time": 3438, "annotation": {"number": 64, "value": 0}, "group": "control_change"}, {"time": 3439, "annotation": {"number": 64, "value": 127}, "group": "control_change"}, {"time": 3464, "annotation": {"number": 64, "value": 127}, "group": "control_change"}, {"time": 3485, "annotation": {"number": 64, "value": 0}, "group": "control_change"}, {"time": 3487, "annotation": {"number": 64, "value": 127}, "group": "control_change"}, {"time": 3509, "annotation": {"number": 64, "value": 0}, "group": "control_change"}, {"time": 3512, "annotation": {"number": 64, "value": 127}, "group": "control_change"}, {"time": 3535, "annotation": {"number": 64, "value": 0}, "group": "control_change"}, {"time": 3536, "annotation": {"number": 64, "value": 127}, "group": "control_change"}, {"time": 3557, "annotation": {"number": 64, "value": 0}, "group": "control_change"}, {"time": 3559, "annotation": {"number": 64, "value": 127}, "group": "control_change"}, {"time": 3581, "annotation": {"number": 64, "value": 0}, "group": "control_change"}, {"time": 3583, "annotation": {"number": 64, "value": 127}, "group": "control_change"}, {"time": 3605, "annotation": {"number": 64, "value": 0}, "group": "control_change"}, {"time": 3607, "annotation": {"number": 64, "value": 127}, "group": "control_change"}, {"time": 3628, "annotation": {"number": 64, "value": 0}, "group": "control_change"}, {"time": 3630, "annotation": {"number": 64, "value": 127}, "group": "control_change"}, {"time": 3653, "annotation": {"number": 64, "value": 0}, "group": "control_change"}, {"time": 3655, "annotation": {"number": 64, "value": 127}, "group": "control_change"}, {"time": 3676, "annotation": {"number": 64, "value": 0}, "group": "control_change"}, {"time": 3677, "annotation": {"number": 64, "value": 127}, "group": "control_change"}, {"time": 3700, "annotation": {"number": 64, "value": 0}, "group": "control_change"}, {"time": 3703, "annotation": {"number": 64, "value": 127}, "group": "control_change"}, {"time": 3725, "annotation": {"number": 64, "value": 0}, "group": "control_change"}, {"time": 3727, "annotation": {"number": 64, "value": 127}, "group": "control_change"}, {"time": 3749, "annotation": {"number": 64, "value": 0}, "group": "control_change"}, {"time": 3752, "annotation": {"number": 64, "value": 127}, "group": "control_change"}, {"time": 3773, "annotation": {"number": 64, "value": 0}, "group": "control_change"}, {"time": 3775, "annotation": {"number": 64, "value": 127}, "group": "control_change"}, {"time": 3797, "annotation": {"number": 64, "value": 0}, "group": "control_change"}, {"time": 3799, "annotation": {"number": 64, "value": 127}, "group": "control_change"}, {"time": 3822, "annotation": {"number": 64, "value": 0}, "group": "control_change"}, {"time": 3823, "annotation": {"number": 64, "value": 127}, "group": "control_change"}, {"time": 3848, "annotation": {"number": 64, "value": 127}, "group": "control_change"}, {"time": 3869, "annotation": {"number": 64, "value": 0}, "group": "control_change"}, {"time": 3871, "annotation": {"number": 64, "value": 127}, "group": "control_change"}, {"time": 3893, "annotation": {"number": 64, "value": 0}, "group": "control_change"}, {"time": 3894, "annotation": {"number": 64, "value": 127}, "group": "control_change"}, {"time": 3918, "annotation": {"number": 64, "value": 0}, "group": "control_change"}, {"time": 3920, "annotation": {"number": 64, "value": 127}, "group": "control_change"}, {"time": 3942, "annotation": {"number": 64, "value": 0}, "group": "control_change"}, {"time": 3943, "annotation": {"number": 64, "value": 127}, "group": "control_change"}, {"time": 3965, "annotation": {"number": 64, "value": 0}, "group": "control_change"}, {"time": 3967, "annotation": {"number": 64, "value": 127}, "group": "control_change"}, {"time": 3989, "annotation": {"number": 64, "value": 0}, "group": "control_change"}, {"time": 3991, "annotation": {"number": 64, "value": 127}, "group": "control_change"}, {"time": 4012, "annotation": {"number": 64, "value": 0}, "group": "control_change"}, {"time": 4014, "annotation": {"number": 64, "value": 127}, "group": "control_change"}, {"time": 4037, "annotation": {"number": 64, "value": 0}, "group": "control_change"}, {"time": 4039, "annotation": {"number": 64, "value": 127}, "group": "control_change"}, {"time": 4060, "annotation": {"number": 64, "value": 0}, "group": "control_change"}, {"time": 4061, "annotation": {"number": 64, "value": 127}, "group": "control_change"}, {"time": 4084, "annotation": {"number": 64, "value": 0}, "group": "control_change"}, {"time": 4109, "annotation": {"number": 64, "value": 0}, "group": "control_change"}, {"time": 4111, "annotation": {"number": 64, "value": 127}, "group": "control_change"}, {"time": 4133, "annotation": {"number": 64, "value": 0}, "group": "control_change"}, {"time": 4136, "annotation": {"number": 64, "value": 127}, "group": "control_change"}, {"time": 4157, "annotation": {"number": 64, "value": 0}, "group": "control_change"}, {"time": 4159, "annotation": {"number": 64, "value": 127}, "group": "control_change"}, {"time": 4181, "annotation": {"number": 64, "value": 0}, "group": "control_change"}, {"time": 4183, "annotation": {"number": 64, "value": 127}, "group": "control_change"}, {"time": 4205, "annotation": {"number": 64, "value": 0}, "group": "control_change"}, {"time": 4207, "annotation": {"number": 64, "value": 127}, "group": "control_change"}, {"time": 4229, "annotation": {"number": 64, "value": 0}, "group": "control_change"}, {"time": 4231, "annotation": {"number": 64, "value": 127}, "group": "control_change"}, {"time": 4253, "annotation": {"number": 64, "value": 0}, "group": "control_change"}, {"time": 4254, "annotation": {"number": 64, "value": 127}, "group": "control_change"}, {"time": 4266, "annotation": {"number": 64, "value": 0}, "group": "control_change"}, {"time": 4278, "annotation": {"number": 64, "value": 127}, "group": "control_change"}, {"time": 4301, "annotation": {"number": 64, "value": 0}, "group": "control_change"}, {"time": 4303, "annotation": {"number": 64, "value": 127}, "group": "control_change"}, {"time": 4313, "annotation": {"number": 64, "value": 0}, "group": "control_change"}, {"time": 4315, "annotation": {"number": 64, "value": 127}, "group": "control_change"}, {"time": 4324, "annotation": {"number": 64, "value": 0}, "group": "control_change"}, {"time": 4327, "annotation": {"number": 64, "value": 127}, "group": "control_change"}, {"time": 4349, "annotation": {"number": 64, "value": 0}, "group": "control_change"}, {"time": 4351, "annotation": {"number": 64, "value": 127}, "group": "control_change"}, {"time": 4373, "annotation": {"number": 64, "value": 0}, "group": "control_change"}, {"time": 4375, "annotation": {"number": 64, "value": 127}, "group": "control_change"}, {"time": 4397, "annotation": {"number": 64, "value": 0}, "group": "control_change"}, {"time": 4399, "annotation": {"number": 64, "value": 127}, "group": "control_change"}, {"time": 4421, "annotation": {"number": 64, "value": 0}, "group": "control_change"}, {"time": 4422, "annotation": {"number": 64, "value": 127}, "group": "control_change"}, {"time": 4446, "annotation": {"number": 64, "value": 0}, "group": "control_change"}, {"time": 4447, "annotation": {"number": 64, "value": 127}, "group": "control_change"}, {"time": 4469, "annotation": {"number": 64, "value": 0}, "group": "control_change"}, {"time": 4470, "annotation": {"number": 64, "value": 127}, "group": "control_change"}, {"time": 4494, "annotation": {"number": 64, "value": 127}, "group": "control_change"}, {"time": 4506, "annotation": {"number": 64, "value": 0}, "group": "control_change"}, {"time": 4508, "annotation": {"number": 64, "value": 127}, "group": "control_change"}, {"time": 4517, "annotation": {"number": 64, "value": 0}, "group": "control_change"}, {"time": 4519, "annotation": {"number": 64, "value": 127}, "group": "control_change"}, {"time": 4541, "annotation": {"number": 64, "value": 0}, "group": "control_change"}, {"time": 4543, "annotation": {"number": 64, "value": 127}, "group": "control_change"}, {"time": 4565, "annotation": {"number": 64, "value": 0}, "group": "control_change"}, {"time": 4568, "annotation": {"number": 64, "value": 127}, "group": "control_change"}, {"time": 4589, "annotation": {"number": 64, "value": 0}, "group": "control_change"}, {"time": 4591, "annotation": {"number": 64, "value": 127}, "group": "control_change"}, {"time": 4613, "annotation": {"number": 64, "value": 0}, "group": "control_change"}, {"time": 4615, "annotation": {"number": 64, "value": 127}, "group": "control_change"}, {"time": 4638, "annotation": {"number": 64, "value": 0}, "group": "control_change"}, {"time": 4639, "annotation": {"number": 64, "value": 127}, "group": "control_change"}, {"time": 4664, "annotation": {"number": 64, "value": 127}, "group": "control_change"}, {"time": 4685, "annotation": {"number": 64, "value": 0}, "group": "control_change"}, {"time": 4687, "annotation": {"number": 64, "value": 127}, "group": "control_change"}, {"time": 4709, "annotation": {"number": 64, "value": 0}, "group": "control_change"}, {"time": 4712, "annotation": {"number": 64, "value": 127}, "group": "control_change"}, {"time": 4735, "annotation": {"number": 64, "value": 0}, "group": "control_change"}, {"time": 4736, "annotation": {"number": 64, "value": 127}, "group": "control_change"}, {"time": 4757, "annotation": {"number": 64, "value": 0}, "group": "control_change"}, {"time": 4759, "annotation": {"number": 64, "value": 127}, "group": "control_change"}, {"time": 4781, "annotation": {"number": 64, "value": 0}, "group": "control_change"}, {"time": 4783, "annotation": {"number": 64, "value": 127}, "group": "control_change"}, {"time": 4805, "annotation": {"number": 64, "value": 0}, "group": "control_change"}, {"time": 4807, "annotation": {"number": 64, "value": 127}, "group": "control_change"}, {"time": 4828, "annotation": {"number": 64, "value": 0}, "group": "control_change"}, {"time": 4830, "annotation": {"number": 64, "value": 127}, "group": "control_change"}, {"time": 4853, "annotation": {"number": 64, "value": 0}, "group": "control_change"}, {"time": 4855, "annotation": {"number": 64, "value": 127}, "group": "control_change"}, {"time": 4876, "annotation": {"number": 64, "value": 0}, "group": "control_change"}, {"time": 4877, "annotation": {"number": 64, "value": 127}, "group": "control_change"}, {"time": 4900, "annotation": {"number": 64, "value": 0}, "group": "control_change"}, {"time": 4903, "annotation": {"number": 64, "value": 127}, "group": "control_change"}, {"time": 4925, "annotation": {"number": 64, "value": 0}, "group": "control_change"}, {"time": 4927, "annotation": {"number": 64, "value": 127}, "group": "control_change"}, {"time": 4949, "annotation": {"number": 64, "value": 0}, "group": "control_change"}, {"time": 4952, "annotation": {"number": 64, "value": 127}, "group": "control_change"}, {"time": 4973, "annotation": {"number": 64, "value": 0}, "group": "control_change"}, {"time": 4975, "annotation": {"number": 64, "value": 127}, "group": "control_change"}, {"time": 4997, "annotation": {"number": 64, "value": 0}, "group": "control_change"}, {"time": 4999, "annotation": {"number": 64, "value": 127}, "group": "control_change"}, {"time": 5022, "annotation": {"number": 64, "value": 0}, "group": "control_change"}, {"time": 5023, "annotation": {"number": 64, "value": 127}, "group": "control_change"}, {"time": 5048, "annotation": {"number": 64, "value": 127}, "group": "control_change"}, {"time": 5069, "annotation": {"number": 64, "value": 0}, "group": "control_change"}, {"time": 5071, "annotation": {"number": 64, "value": 127}, "group": "control_change"}, {"time": 5093, "annotation": {"number": 64, "value": 0}, "group": "control_change"}, {"time": 5094, "annotation": {"number": 64, "value": 127}, "group": "control_change"}, {"time": 5118, "annotation": {"number": 64, "value": 0}, "group": "control_change"}, {"time": 5120, "annotation": {"number": 64, "value": 127}, "group": "control_change"}, {"time": 5142, "annotation": {"number": 64, "value": 0}, "group": "control_change"}, {"time": 5143, "annotation": {"number": 64, "value": 127}, "group": "control_change"}, {"time": 5165, "annotation": {"number": 64, "value": 0}, "group": "control_change"}, {"time": 5167, "annotation": {"number": 64, "value": 127}, "group": "control_change"}, {"time": 5189, "annotation": {"number": 64, "value": 0}, "group": "control_change"}, {"time": 5191, "annotation": {"number": 64, "value": 127}, "group": "control_change"}, {"time": 5212, "annotation": {"number": 64, "value": 0}, "group": "control_change"}, {"time": 5214, "annotation": {"number": 64, "value": 127}, "group": "control_change"}, {"time": 5237, "annotation": {"number": 64, "value": 0}, "group": "control_change"}, {"time": 5239, "annotation": {"number": 64, "value": 127}, "group": "control_change"}, {"time": 5260, "annotation": {"number": 64, "value": 0}, "group": "control_change"}, {"time": 5261, "annotation": {"number": 64, "value": 127}, "group": "control_change"}, {"time": 5284, "annotation": {"number": 64, "value": 0}, "group": "control_change"}, {"time": 5286, "annotation": {"number": 64, "value": 127}, "group": "control_change"}, {"time": 5309, "annotation": {"number": 64, "value": 0}, "group": "control_change"}, {"time": 5313, "annotation": {"number": 64, "value": 127}, "group": "control_change"}, {"time": 5333, "annotation": {"number": 64, "value": 0}, "group": "control_change"}, {"time": 5340, "annotation": {"number": 64, "value": 127}, "group": "control_change"}, {"time": 5357, "annotation": {"number": 64, "value": 0}, "group": "control_change"}, {"time": 5359, "annotation": {"number": 64, "value": 127}, "group": "control_change"}, {"time": 5381, "annotation": {"number": 64, "value": 0}, "group": "control_change"}, {"time": 5382, "annotation": {"number": 64, "value": 127}, "group": "control_change"}, {"time": 5383, "annotation": {"number": 64, "value": 0}, "group": "control_change"}, {"time": 5383, "annotation": {"number": 64, "value": 127}, "group": "control_change"}, {"time": 5384, "annotation": {"number": 64, "value": 127}, "group": "control_change"}, {"time": 5392, "annotation": {"number": 64, "value": 0}, "group": "control_change"}, {"time": 5405, "annotation": {"number": 64, "value": 0}, "group": "control_change"}, {"time": 5410, "annotation": {"number": 64, "value": 127}, "group": "control_change"}, {"time": 5428, "annotation": {"number": 64, "value": 0}, "group": "control_change"}, {"time": 5432, "annotation": {"number": 64, "value": 127}, "group": "control_change"}, {"time": 5433, "annotation": {"number": 64, "value": 0}, "group": "control_change"}, {"time": 5433, "annotation": {"number": 64, "value": 127}, "group": "control_change"}, {"time": 5451, "annotation": {"number": 64, "value": 0}, "group": "control_change"}, {"time": 5457, "annotation": {"number": 64, "value": 127}, "group": "control_change"}, {"time": 5473, "annotation": {"number": 64, "value": 0}, "group": "control_change"}, {"time": 5478, "annotation": {"number": 64, "value": 127}, "group": "control_change"}, {"time": 5501, "annotation": {"number": 64, "value": 0}, "group": "control_change"}, {"time": 5505, "annotation": {"number": 64, "value": 127}, "group": "control_change"}, {"time": 5525, "annotation": {"number": 64, "value": 0}, "group": "control_change"}, {"time": 5532, "annotation": {"number": 64, "value": 127}, "group": "control_change"}, {"time": 5549, "annotation": {"number": 64, "value": 0}, "group": "control_change"}, {"time": 5551, "annotation": {"number": 64, "value": 127}, "group": "control_change"}, {"time": 5573, "annotation": {"number": 64, "value": 0}, "group": "control_change"}, {"time": 5574, "annotation": {"number": 64, "value": 127}, "group": "control_change"}, {"time": 5575, "annotation": {"number": 64, "value": 0}, "group": "control_change"}, {"time": 5575, "annotation": {"number": 64, "value": 127}, "group": "control_change"}, {"time": 5576, "annotation": {"number": 64, "value": 127}, "group": "control_change"}, {"time": 5584, "annotation": {"number": 64, "value": 0}, "group": "control_change"}, {"time": 5597, "annotation": {"number": 64, "value": 0}, "group": "control_change"}, {"time": 5602, "annotation": {"number": 64, "value": 127}, "group": "control_change"}, {"time": 5620, "annotation": {"number": 64, "value": 0}, "group": "control_change"}, {"time": 5626, "annotation": {"number": 64, "value": 127}, "group": "control_change"}, {"time": 5626, "annotation": {"number": 64, "value": 0}, "group": "control_change"}, {"time": 5669, "annotation": {"number": 64, "value": 0}, "group": "control_change"}, {"time": 5672, "annotation": {"number": 64, "value": 127}, "group": "control_change"}, {"time": 5697, "annotation": {"number": 64, "value": 0}, "group": "control_change"}, {"time": 5699, "annotation": {"number": 64, "value": 127}, "group": "control_change"}, {"time": 5728, "annotation": {"number": 64, "value": 0}, "group": "control_change"}, {"time": 5730, "annotation": {"number": 64, "value": 127}, "group": "control_change"}, {"time": 5803, "annotation": {"number": 64, "value": 0}, "group": "control_change"}]}]}