{"metadata": {"schema_version": "0.2", "title": "None", "source_filename": "824.mid", "source_format": "midi"}, "resolution": 12, "tempos": [{"time": 0, "qpm": 80.0}, {"time": 791, "qpm": 79.95000459712526}, {"time": 791, "qpm": 79.90017804423007}, {"time": 791, "qpm": 79.55006483330284}, {"time": 791, "qpm": 79.3500700264368}, {"time": 792, "qpm": 79.25008288237835}, {"time": 792, "qpm": 79.2000792000792}, {"time": 792, "qpm": 79.05002944613597}, {"time": 792, "qpm": 79.00006978339498}, {"time": 792, "qpm": 78.90002840401023}, {"time": 792, "qpm": 78.8500508582828}, {"time": 792, "qpm": 78.75018210979613}, {"time": 792, "qpm": 78.65005053265747}, {"time": 792, "qpm": 78.60008017208177}, {"time": 792, "qpm": 78.45003647926696}, {"time": 793, "qpm": 78.35015467626368}, {"time": 793, "qpm": 78.30005363553674}, {"time": 793, "qpm": 78.15003243226346}, {"time": 793, "qpm": 78.10008525925974}, {"time": 793, "qpm": 78.04999882925001}, {"time": 793, "qpm": 78.00017940041262}, {"time": 793, "qpm": 77.95001844817104}, {"time": 793, "qpm": 77.90002311034019}, {"time": 793, "qpm": 77.8500918631084}, {"time": 794, "qpm": 77.65000038825}, {"time": 794, "qpm": 77.50015500031}, {"time": 794, "qpm": 77.40007972208211}, {"time": 794, "qpm": 77.30006338605197}, {"time": 794, "qpm": 77.200007205334}, {"time": 794, "qpm": 77.15007618570023}, {"time": 794, "qpm": 76.850167789533}, {"time": 795, "qpm": 76.30005760654349}, {"time": 795, "qpm": 76.00006586672374}, {"time": 796, "qpm": 75.35000075350001}, {"time": 796, "qpm": 75.10007084440016}, {"time": 796, "qpm": 74.90000848866762}, {"time": 796, "qpm": 74.6000504793675}, {"time": 797, "qpm": 74.10014634778904}, {"time": 797, "qpm": 73.7500291927199}, {"time": 798, "qpm": 73.20001171200187}, {"time": 798, "qpm": 72.90011226617288}, {"time": 798, "qpm": 72.5500746661185}, {"time": 799, "qpm": 72.0500027018751}, {"time": 800, "qpm": 71.5000715000715}, {"time": 801, "qpm": 71.0500606885935}, {"time": 802, "qpm": 70.60002965201245}, {"time": 804, "qpm": 70.00913619227309}, {"time": 804, "qpm": 69.95004401023603}, {"time": 806, "qpm": 69.66432246221581}, {"time": 806, "qpm": 69.5500574947142}, {"time": 808, "qpm": 69.27006667243917}, {"time": 808, "qpm": 69.20008165609636}, {"time": 810, "qpm": 68.9619502439529}, {"time": 810, "qpm": 68.95006291693241}, {"time": 812, "qpm": 68.79377003618552}, {"time": 813, "qpm": 68.70003503701787}, {"time": 813, "qpm": 68.45009588717599}, {"time": 814, "qpm": 68.55004095864948}, {"time": 815, "qpm": 68.60004459002899}, {"time": 818, "qpm": 68.70003503701787}, {"time": 818, "qpm": 68.75010026056287}, {"time": 819, "qpm": 68.80008072542805}, {"time": 820, "qpm": 68.85005490791879}, {"time": 820, "qpm": 68.90010174248357}, {"time": 821, "qpm": 68.95006291693241}, {"time": 824, "qpm": 69.00009660013524}, {"time": 826, "qpm": 69.05004401940306}, {"time": 827, "qpm": 69.10006380239224}, {"time": 828, "qpm": 69.15015610647741}, {"time": 828, "qpm": 69.24999942291667}, {"time": 828, "qpm": 69.35005131903797}, {"time": 829, "qpm": 69.4000252153425}, {"time": 829, "qpm": 69.6000779520873}, {"time": 829, "qpm": 69.70001115200178}, {"time": 829, "qpm": 70.00007000007}, {"time": 830, "qpm": 70.10000934666792}, {"time": 830, "qpm": 70.25004332086004}, {"time": 830, "qpm": 70.4500702739451}, {"time": 830, "qpm": 70.55013821947912}, {"time": 830, "qpm": 70.75004480836171}, {"time": 831, "qpm": 70.90011237667812}, {"time": 831, "qpm": 71.0500606885935}, {"time": 831, "qpm": 71.15006972706833}, {"time": 832, "qpm": 71.40001142400183}, {"time": 832, "qpm": 71.55012145633117}, {"time": 832, "qpm": 71.7500801209228}, {"time": 832, "qpm": 71.95003789368663}, {"time": 833, "qpm": 72.20008086409057}, {"time": 833, "qpm": 72.25007194902999}, {"time": 833, "qpm": 72.30004518752824}, {"time": 833, "qpm": 72.40002461600837}, {"time": 833, "qpm": 72.5500746661185}, {"time": 833, "qpm": 76.50007076256546}, {"time": 834, "qpm": 76.90010548131136}, {"time": 834, "qpm": 77.200007205334}, {"time": 835, "qpm": 77.40007972208211}, {"time": 835, "qpm": 77.45013502140205}, {"time": 835, "qpm": 77.50015500031}, {"time": 835, "qpm": 77.55003916276978}, {"time": 835, "qpm": 77.7000777000777}, {"time": 836, "qpm": 77.80002282134002}, {"time": 836, "qpm": 77.95001844817104}, {"time": 837, "qpm": 78.10008525925974}, {"time": 837, "qpm": 78.20004353135757}, {"time": 838, "qpm": 78.25001662812853}, {"time": 838, "qpm": 78.30005363553674}, {"time": 838, "qpm": 78.40001254400201}, {"time": 838, "qpm": 78.50002158750594}, {"time": 839, "qpm": 78.65005053265747}, {"time": 839, "qpm": 78.75018210979613}, {"time": 839, "qpm": 78.95006934447757}, {"time": 839, "qpm": 79.05002944613597}, {"time": 839, "qpm": 79.10015661831011}, {"time": 839, "qpm": 79.15003416643141}, {"time": 840, "qpm": 80.0}, {"time": 4140, "qpm": 79.70000916550106}, {"time": 4145, "qpm": 79.60008915209986}, {"time": 4145, "qpm": 79.55006483330284}, {"time": 4146, "qpm": 79.40005319803564}, {"time": 4146, "qpm": 79.25008288237835}, {"time": 4146, "qpm": 79.2000792000792}, {"time": 4146, "qpm": 79.15003416643141}, {"time": 4146, "qpm": 79.10015661831011}, {"time": 4147, "qpm": 79.05002944613597}, {"time": 4147, "qpm": 78.95006934447757}, {"time": 4154, "qpm": 78.8000330960139}, {"time": 4154, "qpm": 78.75018210979613}, {"time": 4154, "qpm": 78.65005053265747}, {"time": 4155, "qpm": 78.55007043322982}, {"time": 4155, "qpm": 78.40001254400201}, {"time": 4155, "qpm": 78.20004353135757}, {"time": 4169, "qpm": 78.10008525925974}, {"time": 4169, "qpm": 77.95001844817104}, {"time": 4169, "qpm": 77.80002282134002}, {"time": 4170, "qpm": 77.7000777000777}, {"time": 4170, "qpm": 77.55003916276978}, {"time": 4170, "qpm": 77.50015500031}, {"time": 4174, "qpm": 77.35018879891916}, {"time": 4174, "qpm": 77.30006338605197}, {"time": 4174, "qpm": 77.10001156500174}, {"time": 4175, "qpm": 76.95000942637616}, {"time": 4175, "qpm": 76.90010548131136}, {"time": 4175, "qpm": 76.850167789533}, {"time": 4176, "qpm": 76.700056758042}, {"time": 4176, "qpm": 76.60007991941671}], "time_signatures": [{"time": 0, "numerator": 1, "denominator": 4}], "tracks": [{"program": 0, "is_drum": false, "name": "MELODY", "notes": [{"time": 452, "pitch": 67, "duration": 4, "velocity": 84}, {"time": 458, "pitch": 67, "duration": 4, "velocity": 85}, {"time": 464, "pitch": 67, "duration": 8, "velocity": 85}, {"time": 476, "pitch": 67, "duration": 3, "velocity": 82}, {"time": 482, "pitch": 67, "duration": 3, "velocity": 85}, {"time": 488, "pitch": 67, "duration": 10, "velocity": 85}, {"time": 500, "pitch": 69, "duration": 5, "velocity": 84}, {"time": 506, "pitch": 64, "duration": 5, "velocity": 86}, {"time": 512, "pitch": 65, "duration": 18, "velocity": 84}, {"time": 530, "pitch": 62, "duration": 4, "velocity": 83}, {"time": 536, "pitch": 64, "duration": 3, "velocity": 87}, {"time": 542, "pitch": 65, "duration": 4, "velocity": 83}, {"time": 548, "pitch": 65, "duration": 8, "velocity": 87}, {"time": 566, "pitch": 65, "duration": 4, "velocity": 84}, {"time": 572, "pitch": 55, "duration": 5, "velocity": 82}, {"time": 578, "pitch": 65, "duration": 4, "velocity": 86}, {"time": 584, "pitch": 64, "duration": 43, "velocity": 86}, {"time": 644, "pitch": 62, "duration": 4, "velocity": 79}, {"time": 650, "pitch": 62, "duration": 4, "velocity": 83}, {"time": 656, "pitch": 65, "duration": 11, "velocity": 84}, {"time": 668, "pitch": 64, "duration": 5, "velocity": 86}, {"time": 674, "pitch": 62, "duration": 5, "velocity": 85}, {"time": 680, "pitch": 60, "duration": 8, "velocity": 86}, {"time": 692, "pitch": 60, "duration": 4, "velocity": 82}, {"time": 698, "pitch": 60, "duration": 4, "velocity": 83}, {"time": 704, "pitch": 64, "duration": 11, "velocity": 88}, {"time": 716, "pitch": 67, "duration": 4, "velocity": 85}, {"time": 722, "pitch": 71, "duration": 4, "velocity": 84}, {"time": 728, "pitch": 72, "duration": 8, "velocity": 86}, {"time": 740, "pitch": 60, "duration": 4, "velocity": 85}, {"time": 746, "pitch": 69, "duration": 4, "velocity": 85}, {"time": 752, "pitch": 69, "duration": 9, "velocity": 86}, {"time": 764, "pitch": 60, "duration": 4, "velocity": 85}, {"time": 770, "pitch": 62, "duration": 4, "velocity": 85}, {"time": 776, "pitch": 62, "duration": 31, "velocity": 85}, {"time": 836, "pitch": 67, "duration": 4, "velocity": 84}, {"time": 842, "pitch": 67, "duration": 4, "velocity": 85}, {"time": 848, "pitch": 67, "duration": 6, "velocity": 85}, {"time": 854, "pitch": 67, "duration": 6, "velocity": 85}, {"time": 860, "pitch": 67, "duration": 3, "velocity": 82}, {"time": 872, "pitch": 67, "duration": 6, "velocity": 85}, {"time": 878, "pitch": 67, "duration": 3, "velocity": 85}, {"time": 884, "pitch": 72, "duration": 5, "velocity": 84}, {"time": 890, "pitch": 72, "duration": 5, "velocity": 86}, {"time": 896, "pitch": 64, "duration": 6, "velocity": 84}, {"time": 902, "pitch": 65, "duration": 12, "velocity": 84}, {"time": 914, "pitch": 62, "duration": 4, "velocity": 83}, {"time": 920, "pitch": 64, "duration": 3, "velocity": 87}, {"time": 926, "pitch": 65, "duration": 4, "velocity": 83}, {"time": 932, "pitch": 65, "duration": 8, "velocity": 87}, {"time": 944, "pitch": 65, "duration": 6, "velocity": 85}, {"time": 950, "pitch": 65, "duration": 4, "velocity": 84}, {"time": 956, "pitch": 72, "duration": 5, "velocity": 82}, {"time": 962, "pitch": 72, "duration": 4, "velocity": 86}, {"time": 968, "pitch": 62, "duration": 6, "velocity": 85}, {"time": 974, "pitch": 64, "duration": 37, "velocity": 86}, {"time": 1028, "pitch": 62, "duration": 4, "velocity": 79}, {"time": 1034, "pitch": 62, "duration": 4, "velocity": 83}, {"time": 1040, "pitch": 65, "duration": 11, "velocity": 84}, {"time": 1052, "pitch": 64, "duration": 5, "velocity": 86}, {"time": 1058, "pitch": 62, "duration": 5, "velocity": 85}, {"time": 1064, "pitch": 60, "duration": 8, "velocity": 86}, {"time": 1076, "pitch": 60, "duration": 4, "velocity": 82}, {"time": 1082, "pitch": 60, "duration": 4, "velocity": 83}, {"time": 1088, "pitch": 64, "duration": 11, "velocity": 88}, {"time": 1100, "pitch": 67, "duration": 4, "velocity": 85}, {"time": 1106, "pitch": 71, "duration": 4, "velocity": 84}, {"time": 1112, "pitch": 72, "duration": 8, "velocity": 86}, {"time": 1124, "pitch": 60, "duration": 4, "velocity": 85}, {"time": 1130, "pitch": 69, "duration": 4, "velocity": 85}, {"time": 1136, "pitch": 69, "duration": 9, "velocity": 86}, {"time": 1148, "pitch": 60, "duration": 4, "velocity": 85}, {"time": 1154, "pitch": 64, "duration": 4, "velocity": 85}, {"time": 1160, "pitch": 62, "duration": 24, "velocity": 85}, {"time": 1184, "pitch": 67, "duration": 4, "velocity": 82}, {"time": 1190, "pitch": 69, "duration": 4, "velocity": 86}, {"time": 1196, "pitch": 72, "duration": 4, "velocity": 85}, {"time": 1202, "pitch": 72, "duration": 5, "velocity": 85}, {"time": 1208, "pitch": 69, "duration": 4, "velocity": 85}, {"time": 1214, "pitch": 74, "duration": 7, "velocity": 89}, {"time": 1226, "pitch": 74, "duration": 4, "velocity": 88}, {"time": 1232, "pitch": 71, "duration": 4, "velocity": 84}, {"time": 1238, "pitch": 74, "duration": 4, "velocity": 87}, {"time": 1244, "pitch": 76, "duration": 4, "velocity": 85}, {"time": 1250, "pitch": 76, "duration": 5, "velocity": 85}, {"time": 1256, "pitch": 71, "duration": 4, "velocity": 85}, {"time": 1262, "pitch": 72, "duration": 12, "velocity": 81}, {"time": 1280, "pitch": 72, "duration": 4, "velocity": 87}, {"time": 1286, "pitch": 71, "duration": 5, "velocity": 84}, {"time": 1292, "pitch": 67, "duration": 4, "velocity": 85}, {"time": 1298, "pitch": 69, "duration": 4, "velocity": 83}, {"time": 1304, "pitch": 69, "duration": 11, "velocity": 85}, {"time": 1322, "pitch": 69, "duration": 4, "velocity": 85}, {"time": 1328, "pitch": 67, "duration": 4, "velocity": 85}, {"time": 1334, "pitch": 69, "duration": 4, "velocity": 88}, {"time": 1340, "pitch": 64, "duration": 4, "velocity": 86}, {"time": 1346, "pitch": 64, "duration": 5, "velocity": 85}, {"time": 1352, "pitch": 62, "duration": 4, "velocity": 86}, {"time": 1358, "pitch": 64, "duration": 14, "velocity": 85}, {"time": 1376, "pitch": 67, "duration": 4, "velocity": 86}, {"time": 1382, "pitch": 67, "duration": 4, "velocity": 84}, {"time": 1388, "pitch": 72, "duration": 4, "velocity": 86}, {"time": 1394, "pitch": 77, "duration": 4, "velocity": 84}, {"time": 1400, "pitch": 76, "duration": 4, "velocity": 87}, {"time": 1406, "pitch": 74, "duration": 9, "velocity": 90}, {"time": 1418, "pitch": 74, "duration": 5, "velocity": 89}, {"time": 1424, "pitch": 71, "duration": 4, "velocity": 85}, {"time": 1430, "pitch": 74, "duration": 4, "velocity": 90}, {"time": 1436, "pitch": 76, "duration": 4, "velocity": 84}, {"time": 1442, "pitch": 76, "duration": 4, "velocity": 86}, {"time": 1448, "pitch": 71, "duration": 4, "velocity": 86}, {"time": 1454, "pitch": 72, "duration": 13, "velocity": 85}, {"time": 1472, "pitch": 72, "duration": 4, "velocity": 85}, {"time": 1478, "pitch": 71, "duration": 4, "velocity": 86}, {"time": 1484, "pitch": 76, "duration": 4, "velocity": 85}, {"time": 1490, "pitch": 76, "duration": 4, "velocity": 86}, {"time": 1496, "pitch": 71, "duration": 4, "velocity": 84}, {"time": 1502, "pitch": 69, "duration": 9, "velocity": 84}, {"time": 1514, "pitch": 69, "duration": 4, "velocity": 86}, {"time": 1520, "pitch": 71, "duration": 4, "velocity": 85}, {"time": 1526, "pitch": 72, "duration": 4, "velocity": 85}, {"time": 1532, "pitch": 79, "duration": 4, "velocity": 84}, {"time": 1538, "pitch": 76, "duration": 4, "velocity": 85}, {"time": 1544, "pitch": 77, "duration": 4, "velocity": 84}, {"time": 1550, "pitch": 76, "duration": 5, "velocity": 85}, {"time": 1556, "pitch": 74, "duration": 11, "velocity": 88}, {"time": 1568, "pitch": 67, "duration": 4, "velocity": 82}, {"time": 1574, "pitch": 69, "duration": 4, "velocity": 86}, {"time": 1580, "pitch": 72, "duration": 4, "velocity": 85}, {"time": 1586, "pitch": 72, "duration": 5, "velocity": 85}, {"time": 1592, "pitch": 69, "duration": 4, "velocity": 85}, {"time": 1598, "pitch": 74, "duration": 7, "velocity": 89}, {"time": 1610, "pitch": 74, "duration": 4, "velocity": 88}, {"time": 1616, "pitch": 71, "duration": 4, "velocity": 84}, {"time": 1622, "pitch": 74, "duration": 4, "velocity": 87}, {"time": 1628, "pitch": 76, "duration": 4, "velocity": 85}, {"time": 1634, "pitch": 76, "duration": 5, "velocity": 85}, {"time": 1640, "pitch": 71, "duration": 4, "velocity": 85}, {"time": 1646, "pitch": 72, "duration": 12, "velocity": 81}, {"time": 1664, "pitch": 72, "duration": 4, "velocity": 87}, {"time": 1670, "pitch": 71, "duration": 5, "velocity": 84}, {"time": 1676, "pitch": 67, "duration": 4, "velocity": 85}, {"time": 1682, "pitch": 69, "duration": 4, "velocity": 83}, {"time": 1688, "pitch": 69, "duration": 11, "velocity": 85}, {"time": 1706, "pitch": 69, "duration": 4, "velocity": 85}, {"time": 1712, "pitch": 67, "duration": 4, "velocity": 85}, {"time": 1718, "pitch": 69, "duration": 4, "velocity": 88}, {"time": 1724, "pitch": 64, "duration": 4, "velocity": 86}, {"time": 1730, "pitch": 64, "duration": 5, "velocity": 85}, {"time": 1736, "pitch": 62, "duration": 4, "velocity": 86}, {"time": 1742, "pitch": 64, "duration": 14, "velocity": 85}, {"time": 1760, "pitch": 67, "duration": 4, "velocity": 86}, {"time": 1766, "pitch": 67, "duration": 4, "velocity": 84}, {"time": 1772, "pitch": 72, "duration": 4, "velocity": 86}, {"time": 1778, "pitch": 77, "duration": 4, "velocity": 84}, {"time": 1784, "pitch": 76, "duration": 4, "velocity": 87}, {"time": 1790, "pitch": 74, "duration": 9, "velocity": 90}, {"time": 1802, "pitch": 74, "duration": 5, "velocity": 89}, {"time": 1808, "pitch": 71, "duration": 4, "velocity": 85}, {"time": 1814, "pitch": 74, "duration": 4, "velocity": 90}, {"time": 1820, "pitch": 76, "duration": 4, "velocity": 84}, {"time": 1826, "pitch": 76, "duration": 4, "velocity": 86}, {"time": 1832, "pitch": 71, "duration": 4, "velocity": 86}, {"time": 1838, "pitch": 72, "duration": 13, "velocity": 85}, {"time": 1856, "pitch": 72, "duration": 4, "velocity": 85}, {"time": 1862, "pitch": 71, "duration": 4, "velocity": 86}, {"time": 1868, "pitch": 76, "duration": 4, "velocity": 85}, {"time": 1874, "pitch": 76, "duration": 4, "velocity": 86}, {"time": 1880, "pitch": 71, "duration": 4, "velocity": 84}, {"time": 1886, "pitch": 69, "duration": 9, "velocity": 84}, {"time": 1898, "pitch": 69, "duration": 4, "velocity": 86}, {"time": 1904, "pitch": 72, "duration": 4, "velocity": 85}, {"time": 1910, "pitch": 76, "duration": 4, "velocity": 85}, {"time": 1916, "pitch": 77, "duration": 4, "velocity": 84}, {"time": 1922, "pitch": 74, "duration": 24, "velocity": 85}, {"time": 1952, "pitch": 71, "duration": 5, "velocity": 86}, {"time": 1958, "pitch": 72, "duration": 27, "velocity": 85}, {"time": 2012, "pitch": 67, "duration": 4, "velocity": 84}, {"time": 2018, "pitch": 67, "duration": 4, "velocity": 85}, {"time": 2024, "pitch": 67, "duration": 6, "velocity": 85}, {"time": 2030, "pitch": 67, "duration": 6, "velocity": 85}, {"time": 2036, "pitch": 67, "duration": 3, "velocity": 82}, {"time": 2048, "pitch": 67, "duration": 6, "velocity": 85}, {"time": 2054, "pitch": 67, "duration": 3, "velocity": 85}, {"time": 2060, "pitch": 72, "duration": 5, "velocity": 84}, {"time": 2066, "pitch": 72, "duration": 5, "velocity": 86}, {"time": 2072, "pitch": 64, "duration": 6, "velocity": 84}, {"time": 2078, "pitch": 65, "duration": 12, "velocity": 84}, {"time": 2090, "pitch": 62, "duration": 4, "velocity": 83}, {"time": 2096, "pitch": 64, "duration": 3, "velocity": 87}, {"time": 2102, "pitch": 65, "duration": 4, "velocity": 83}, {"time": 2108, "pitch": 65, "duration": 8, "velocity": 87}, {"time": 2120, "pitch": 65, "duration": 6, "velocity": 85}, {"time": 2126, "pitch": 65, "duration": 4, "velocity": 84}, {"time": 2132, "pitch": 72, "duration": 5, "velocity": 82}, {"time": 2138, "pitch": 72, "duration": 4, "velocity": 86}, {"time": 2144, "pitch": 62, "duration": 6, "velocity": 85}, {"time": 2150, "pitch": 64, "duration": 37, "velocity": 86}, {"time": 2204, "pitch": 62, "duration": 4, "velocity": 79}, {"time": 2210, "pitch": 62, "duration": 4, "velocity": 83}, {"time": 2216, "pitch": 65, "duration": 11, "velocity": 84}, {"time": 2228, "pitch": 64, "duration": 5, "velocity": 86}, {"time": 2234, "pitch": 62, "duration": 5, "velocity": 85}, {"time": 2240, "pitch": 60, "duration": 8, "velocity": 86}, {"time": 2252, "pitch": 60, "duration": 4, "velocity": 82}, {"time": 2258, "pitch": 60, "duration": 4, "velocity": 83}, {"time": 2264, "pitch": 64, "duration": 11, "velocity": 88}, {"time": 2276, "pitch": 67, "duration": 4, "velocity": 85}, {"time": 2282, "pitch": 71, "duration": 4, "velocity": 84}, {"time": 2288, "pitch": 72, "duration": 8, "velocity": 86}, {"time": 2300, "pitch": 60, "duration": 4, "velocity": 85}, {"time": 2306, "pitch": 69, "duration": 4, "velocity": 85}, {"time": 2312, "pitch": 69, "duration": 9, "velocity": 86}, {"time": 2324, "pitch": 72, "duration": 4, "velocity": 85}, {"time": 2330, "pitch": 69, "duration": 4, "velocity": 85}, {"time": 2336, "pitch": 74, "duration": 24, "velocity": 85}, {"time": 2360, "pitch": 67, "duration": 4, "velocity": 82}, {"time": 2366, "pitch": 69, "duration": 4, "velocity": 86}, {"time": 2372, "pitch": 72, "duration": 4, "velocity": 85}, {"time": 2378, "pitch": 72, "duration": 5, "velocity": 85}, {"time": 2384, "pitch": 69, "duration": 4, "velocity": 85}, {"time": 2390, "pitch": 74, "duration": 7, "velocity": 89}, {"time": 2402, "pitch": 74, "duration": 4, "velocity": 88}, {"time": 2408, "pitch": 71, "duration": 4, "velocity": 84}, {"time": 2414, "pitch": 74, "duration": 4, "velocity": 87}, {"time": 2420, "pitch": 76, "duration": 4, "velocity": 85}, {"time": 2426, "pitch": 76, "duration": 5, "velocity": 85}, {"time": 2432, "pitch": 71, "duration": 4, "velocity": 85}, {"time": 2438, "pitch": 72, "duration": 12, "velocity": 81}, {"time": 2456, "pitch": 72, "duration": 4, "velocity": 87}, {"time": 2462, "pitch": 71, "duration": 5, "velocity": 84}, {"time": 2468, "pitch": 67, "duration": 4, "velocity": 85}, {"time": 2474, "pitch": 69, "duration": 4, "velocity": 83}, {"time": 2480, "pitch": 69, "duration": 11, "velocity": 85}, {"time": 2498, "pitch": 69, "duration": 4, "velocity": 85}, {"time": 2504, "pitch": 67, "duration": 4, "velocity": 85}, {"time": 2510, "pitch": 69, "duration": 4, "velocity": 88}, {"time": 2516, "pitch": 64, "duration": 4, "velocity": 86}, {"time": 2522, "pitch": 64, "duration": 5, "velocity": 85}, {"time": 2528, "pitch": 62, "duration": 4, "velocity": 86}, {"time": 2534, "pitch": 64, "duration": 14, "velocity": 85}, {"time": 2552, "pitch": 67, "duration": 4, "velocity": 86}, {"time": 2558, "pitch": 67, "duration": 4, "velocity": 84}, {"time": 2564, "pitch": 72, "duration": 4, "velocity": 86}, {"time": 2570, "pitch": 77, "duration": 4, "velocity": 84}, {"time": 2576, "pitch": 76, "duration": 4, "velocity": 87}, {"time": 2582, "pitch": 74, "duration": 9, "velocity": 90}, {"time": 2594, "pitch": 74, "duration": 5, "velocity": 89}, {"time": 2600, "pitch": 71, "duration": 4, "velocity": 85}, {"time": 2606, "pitch": 74, "duration": 4, "velocity": 90}, {"time": 2612, "pitch": 76, "duration": 4, "velocity": 84}, {"time": 2618, "pitch": 76, "duration": 4, "velocity": 86}, {"time": 2624, "pitch": 71, "duration": 4, "velocity": 86}, {"time": 2630, "pitch": 72, "duration": 13, "velocity": 85}, {"time": 2648, "pitch": 72, "duration": 4, "velocity": 85}, {"time": 2654, "pitch": 71, "duration": 4, "velocity": 86}, {"time": 2660, "pitch": 76, "duration": 4, "velocity": 85}, {"time": 2666, "pitch": 76, "duration": 4, "velocity": 86}, {"time": 2672, "pitch": 71, "duration": 4, "velocity": 84}, {"time": 2678, "pitch": 69, "duration": 9, "velocity": 84}, {"time": 2690, "pitch": 69, "duration": 4, "velocity": 86}, {"time": 2696, "pitch": 71, "duration": 4, "velocity": 85}, {"time": 2702, "pitch": 72, "duration": 4, "velocity": 85}, {"time": 2708, "pitch": 79, "duration": 4, "velocity": 84}, {"time": 2714, "pitch": 76, "duration": 4, "velocity": 85}, {"time": 2720, "pitch": 77, "duration": 4, "velocity": 84}, {"time": 2726, "pitch": 76, "duration": 5, "velocity": 85}, {"time": 2732, "pitch": 74, "duration": 11, "velocity": 88}, {"time": 2744, "pitch": 67, "duration": 4, "velocity": 82}, {"time": 2750, "pitch": 69, "duration": 4, "velocity": 86}, {"time": 2756, "pitch": 72, "duration": 4, "velocity": 85}, {"time": 2762, "pitch": 72, "duration": 5, "velocity": 85}, {"time": 2768, "pitch": 69, "duration": 4, "velocity": 85}, {"time": 2774, "pitch": 74, "duration": 7, "velocity": 89}, {"time": 2786, "pitch": 74, "duration": 4, "velocity": 88}, {"time": 2792, "pitch": 71, "duration": 4, "velocity": 84}, {"time": 2798, "pitch": 74, "duration": 4, "velocity": 87}, {"time": 2804, "pitch": 76, "duration": 4, "velocity": 85}, {"time": 2810, "pitch": 76, "duration": 5, "velocity": 85}, {"time": 2816, "pitch": 71, "duration": 4, "velocity": 85}, {"time": 2822, "pitch": 72, "duration": 12, "velocity": 81}, {"time": 2840, "pitch": 72, "duration": 4, "velocity": 87}, {"time": 2846, "pitch": 71, "duration": 5, "velocity": 84}, {"time": 2852, "pitch": 67, "duration": 4, "velocity": 85}, {"time": 2858, "pitch": 69, "duration": 4, "velocity": 83}, {"time": 2864, "pitch": 69, "duration": 11, "velocity": 85}, {"time": 2882, "pitch": 69, "duration": 4, "velocity": 85}, {"time": 2888, "pitch": 67, "duration": 4, "velocity": 85}, {"time": 2894, "pitch": 69, "duration": 4, "velocity": 88}, {"time": 2900, "pitch": 64, "duration": 4, "velocity": 86}, {"time": 2906, "pitch": 64, "duration": 5, "velocity": 85}, {"time": 2912, "pitch": 62, "duration": 4, "velocity": 86}, {"time": 2918, "pitch": 64, "duration": 14, "velocity": 85}, {"time": 2936, "pitch": 67, "duration": 4, "velocity": 86}, {"time": 2942, "pitch": 67, "duration": 4, "velocity": 84}, {"time": 2948, "pitch": 72, "duration": 4, "velocity": 86}, {"time": 2954, "pitch": 77, "duration": 4, "velocity": 84}, {"time": 2960, "pitch": 76, "duration": 4, "velocity": 87}, {"time": 2966, "pitch": 74, "duration": 9, "velocity": 90}, {"time": 2978, "pitch": 74, "duration": 5, "velocity": 89}, {"time": 2984, "pitch": 71, "duration": 4, "velocity": 85}, {"time": 2990, "pitch": 74, "duration": 4, "velocity": 90}, {"time": 2996, "pitch": 76, "duration": 4, "velocity": 84}, {"time": 3002, "pitch": 76, "duration": 4, "velocity": 86}, {"time": 3008, "pitch": 71, "duration": 4, "velocity": 86}, {"time": 3014, "pitch": 72, "duration": 13, "velocity": 85}, {"time": 3032, "pitch": 72, "duration": 4, "velocity": 85}, {"time": 3038, "pitch": 71, "duration": 4, "velocity": 86}, {"time": 3044, "pitch": 76, "duration": 4, "velocity": 85}, {"time": 3050, "pitch": 76, "duration": 4, "velocity": 86}, {"time": 3056, "pitch": 71, "duration": 4, "velocity": 84}, {"time": 3062, "pitch": 69, "duration": 9, "velocity": 84}, {"time": 3074, "pitch": 69, "duration": 4, "velocity": 86}, {"time": 3080, "pitch": 72, "duration": 4, "velocity": 85}, {"time": 3086, "pitch": 76, "duration": 4, "velocity": 85}, {"time": 3092, "pitch": 77, "duration": 4, "velocity": 84}, {"time": 3098, "pitch": 74, "duration": 6, "velocity": 85}, {"time": 3104, "pitch": 72, "duration": 5, "velocity": 86}, {"time": 3110, "pitch": 72, "duration": 36, "velocity": 85}, {"time": 3272, "pitch": 67, "duration": 4, "velocity": 82}, {"time": 3278, "pitch": 69, "duration": 4, "velocity": 86}, {"time": 3284, "pitch": 72, "duration": 4, "velocity": 85}, {"time": 3290, "pitch": 72, "duration": 5, "velocity": 85}, {"time": 3296, "pitch": 69, "duration": 4, "velocity": 85}, {"time": 3302, "pitch": 74, "duration": 7, "velocity": 89}, {"time": 3314, "pitch": 74, "duration": 4, "velocity": 88}, {"time": 3320, "pitch": 71, "duration": 4, "velocity": 84}, {"time": 3326, "pitch": 74, "duration": 4, "velocity": 87}, {"time": 3332, "pitch": 76, "duration": 4, "velocity": 85}, {"time": 3338, "pitch": 76, "duration": 5, "velocity": 85}, {"time": 3344, "pitch": 71, "duration": 4, "velocity": 85}, {"time": 3350, "pitch": 72, "duration": 12, "velocity": 81}, {"time": 3368, "pitch": 72, "duration": 4, "velocity": 87}, {"time": 3374, "pitch": 71, "duration": 5, "velocity": 84}, {"time": 3380, "pitch": 67, "duration": 4, "velocity": 85}, {"time": 3386, "pitch": 69, "duration": 4, "velocity": 83}, {"time": 3392, "pitch": 69, "duration": 11, "velocity": 85}, {"time": 3410, "pitch": 69, "duration": 4, "velocity": 85}, {"time": 3416, "pitch": 67, "duration": 4, "velocity": 85}, {"time": 3422, "pitch": 69, "duration": 4, "velocity": 88}, {"time": 3428, "pitch": 64, "duration": 4, "velocity": 86}, {"time": 3434, "pitch": 64, "duration": 5, "velocity": 85}, {"time": 3440, "pitch": 62, "duration": 4, "velocity": 86}, {"time": 3446, "pitch": 64, "duration": 14, "velocity": 85}, {"time": 3464, "pitch": 67, "duration": 4, "velocity": 86}, {"time": 3470, "pitch": 67, "duration": 4, "velocity": 84}, {"time": 3476, "pitch": 72, "duration": 4, "velocity": 86}, {"time": 3482, "pitch": 77, "duration": 4, "velocity": 84}, {"time": 3488, "pitch": 76, "duration": 4, "velocity": 87}, {"time": 3494, "pitch": 74, "duration": 9, "velocity": 90}, {"time": 3506, "pitch": 74, "duration": 5, "velocity": 89}, {"time": 3512, "pitch": 71, "duration": 4, "velocity": 85}, {"time": 3518, "pitch": 74, "duration": 4, "velocity": 90}, {"time": 3524, "pitch": 76, "duration": 4, "velocity": 84}, {"time": 3530, "pitch": 76, "duration": 4, "velocity": 86}, {"time": 3536, "pitch": 71, "duration": 4, "velocity": 86}, {"time": 3542, "pitch": 72, "duration": 13, "velocity": 85}, {"time": 3560, "pitch": 72, "duration": 4, "velocity": 85}, {"time": 3566, "pitch": 71, "duration": 4, "velocity": 86}, {"time": 3572, "pitch": 76, "duration": 4, "velocity": 85}, {"time": 3578, "pitch": 76, "duration": 4, "velocity": 86}, {"time": 3584, "pitch": 71, "duration": 4, "velocity": 84}, {"time": 3590, "pitch": 69, "duration": 9, "velocity": 84}, {"time": 3602, "pitch": 69, "duration": 4, "velocity": 86}, {"time": 3608, "pitch": 71, "duration": 4, "velocity": 85}, {"time": 3614, "pitch": 72, "duration": 4, "velocity": 85}, {"time": 3620, "pitch": 79, "duration": 4, "velocity": 84}, {"time": 3626, "pitch": 76, "duration": 4, "velocity": 85}, {"time": 3632, "pitch": 77, "duration": 4, "velocity": 84}, {"time": 3638, "pitch": 76, "duration": 5, "velocity": 85}, {"time": 3644, "pitch": 74, "duration": 11, "velocity": 88}, {"time": 3656, "pitch": 67, "duration": 4, "velocity": 82}, {"time": 3662, "pitch": 69, "duration": 4, "velocity": 86}, {"time": 3668, "pitch": 72, "duration": 4, "velocity": 85}, {"time": 3674, "pitch": 72, "duration": 5, "velocity": 85}, {"time": 3680, "pitch": 69, "duration": 4, "velocity": 85}, {"time": 3686, "pitch": 74, "duration": 7, "velocity": 89}, {"time": 3698, "pitch": 74, "duration": 4, "velocity": 88}, {"time": 3704, "pitch": 71, "duration": 4, "velocity": 84}, {"time": 3710, "pitch": 74, "duration": 4, "velocity": 87}, {"time": 3716, "pitch": 76, "duration": 4, "velocity": 85}, {"time": 3722, "pitch": 76, "duration": 5, "velocity": 85}, {"time": 3728, "pitch": 71, "duration": 4, "velocity": 85}, {"time": 3734, "pitch": 72, "duration": 12, "velocity": 81}, {"time": 3752, "pitch": 72, "duration": 4, "velocity": 87}, {"time": 3758, "pitch": 71, "duration": 5, "velocity": 84}, {"time": 3764, "pitch": 67, "duration": 4, "velocity": 85}, {"time": 3770, "pitch": 69, "duration": 4, "velocity": 83}, {"time": 3776, "pitch": 69, "duration": 11, "velocity": 85}, {"time": 3794, "pitch": 69, "duration": 4, "velocity": 85}, {"time": 3800, "pitch": 67, "duration": 4, "velocity": 85}, {"time": 3806, "pitch": 69, "duration": 4, "velocity": 88}, {"time": 3812, "pitch": 64, "duration": 4, "velocity": 86}, {"time": 3818, "pitch": 64, "duration": 5, "velocity": 85}, {"time": 3824, "pitch": 62, "duration": 4, "velocity": 86}, {"time": 3830, "pitch": 64, "duration": 14, "velocity": 85}, {"time": 3848, "pitch": 67, "duration": 4, "velocity": 86}, {"time": 3854, "pitch": 67, "duration": 4, "velocity": 84}, {"time": 3860, "pitch": 72, "duration": 4, "velocity": 86}, {"time": 3866, "pitch": 77, "duration": 4, "velocity": 84}, {"time": 3872, "pitch": 76, "duration": 4, "velocity": 87}, {"time": 3878, "pitch": 74, "duration": 9, "velocity": 90}, {"time": 3890, "pitch": 74, "duration": 5, "velocity": 89}, {"time": 3896, "pitch": 71, "duration": 4, "velocity": 85}, {"time": 3902, "pitch": 74, "duration": 4, "velocity": 90}, {"time": 3908, "pitch": 76, "duration": 4, "velocity": 84}, {"time": 3914, "pitch": 76, "duration": 4, "velocity": 86}, {"time": 3920, "pitch": 71, "duration": 4, "velocity": 86}, {"time": 3926, "pitch": 72, "duration": 13, "velocity": 85}, {"time": 3944, "pitch": 72, "duration": 4, "velocity": 85}, {"time": 3950, "pitch": 71, "duration": 4, "velocity": 86}, {"time": 3956, "pitch": 76, "duration": 4, "velocity": 85}, {"time": 3962, "pitch": 76, "duration": 4, "velocity": 86}, {"time": 3968, "pitch": 71, "duration": 4, "velocity": 84}, {"time": 3974, "pitch": 69, "duration": 9, "velocity": 84}, {"time": 3986, "pitch": 69, "duration": 4, "velocity": 86}, {"time": 3992, "pitch": 72, "duration": 4, "velocity": 85}, {"time": 3998, "pitch": 76, "duration": 4, "velocity": 85}, {"time": 4004, "pitch": 77, "duration": 4, "velocity": 84}, {"time": 4010, "pitch": 74, "duration": 24, "velocity": 85}, {"time": 4058, "pitch": 71, "duration": 6, "velocity": 85}, {"time": 4064, "pitch": 72, "duration": 48, "velocity": 86}]}, {"program": 0, "is_drum": false, "name": "PIANO", "notes": [{"time": 62, "pitch": 48, "duration": 22, "velocity": 85}, {"time": 68, "pitch": 55, "duration": 33, "velocity": 72}, {"time": 74, "pitch": 60, "duration": 7, "velocity": 85}, {"time": 80, "pitch": 64, "duration": 13, "velocity": 79}, {"time": 86, "pitch": 47, "duration": 17, "velocity": 74}, {"time": 92, "pitch": 59, "duration": 7, "velocity": 76}, {"time": 98, "pitch": 62, "duration": 2, "velocity": 75}, {"time": 110, "pitch": 45, "duration": 45, "velocity": 71}, {"time": 110, "pitch": 60, "duration": 7, "velocity": 71}, {"time": 116, "pitch": 52, "duration": 37, "velocity": 58}, {"time": 122, "pitch": 60, "duration": 8, "velocity": 77}, {"time": 122, "pitch": 64, "duration": 9, "velocity": 77}, {"time": 128, "pitch": 57, "duration": 5, "velocity": 64}, {"time": 134, "pitch": 60, "duration": 7, "velocity": 66}, {"time": 140, "pitch": 57, "duration": 2, "velocity": 61}, {"time": 146, "pitch": 55, "duration": 3, "velocity": 77}, {"time": 146, "pitch": 59, "duration": 10, "velocity": 75}, {"time": 152, "pitch": 55, "duration": 5, "velocity": 80}, {"time": 158, "pitch": 48, "duration": 20, "velocity": 85}, {"time": 158, "pitch": 60, "duration": 12, "velocity": 71}, {"time": 158, "pitch": 64, "duration": 8, "velocity": 78}, {"time": 164, "pitch": 55, "duration": 13, "velocity": 72}, {"time": 170, "pitch": 64, "duration": 6, "velocity": 83}, {"time": 170, "pitch": 67, "duration": 13, "velocity": 75}, {"time": 176, "pitch": 60, "duration": 7, "velocity": 74}, {"time": 182, "pitch": 47, "duration": 21, "velocity": 73}, {"time": 182, "pitch": 62, "duration": 8, "velocity": 77}, {"time": 188, "pitch": 53, "duration": 13, "velocity": 69}, {"time": 194, "pitch": 59, "duration": 7, "velocity": 77}, {"time": 200, "pitch": 62, "duration": 2, "velocity": 80}, {"time": 206, "pitch": 45, "duration": 40, "velocity": 78}, {"time": 206, "pitch": 60, "duration": 14, "velocity": 76}, {"time": 212, "pitch": 52, "duration": 7, "velocity": 59}, {"time": 218, "pitch": 57, "duration": 8, "velocity": 74}, {"time": 224, "pitch": 52, "duration": 8, "velocity": 67}, {"time": 230, "pitch": 57, "duration": 5, "velocity": 72}, {"time": 230, "pitch": 60, "duration": 5, "velocity": 75}, {"time": 236, "pitch": 52, "duration": 8, "velocity": 55}, {"time": 242, "pitch": 57, "duration": 1, "velocity": 69}, {"time": 242, "pitch": 60, "duration": 8, "velocity": 79}, {"time": 242, "pitch": 64, "duration": 8, "velocity": 84}, {"time": 254, "pitch": 48, "duration": 22, "velocity": 85}, {"time": 260, "pitch": 55, "duration": 33, "velocity": 72}, {"time": 266, "pitch": 60, "duration": 7, "velocity": 85}, {"time": 272, "pitch": 64, "duration": 13, "velocity": 79}, {"time": 278, "pitch": 47, "duration": 17, "velocity": 74}, {"time": 284, "pitch": 59, "duration": 7, "velocity": 76}, {"time": 290, "pitch": 62, "duration": 2, "velocity": 75}, {"time": 302, "pitch": 45, "duration": 45, "velocity": 71}, {"time": 302, "pitch": 60, "duration": 7, "velocity": 71}, {"time": 308, "pitch": 52, "duration": 37, "velocity": 58}, {"time": 314, "pitch": 60, "duration": 8, "velocity": 77}, {"time": 314, "pitch": 64, "duration": 9, "velocity": 77}, {"time": 320, "pitch": 57, "duration": 5, "velocity": 64}, {"time": 326, "pitch": 60, "duration": 7, "velocity": 66}, {"time": 332, "pitch": 57, "duration": 2, "velocity": 61}, {"time": 338, "pitch": 55, "duration": 3, "velocity": 77}, {"time": 338, "pitch": 60, "duration": 10, "velocity": 75}, {"time": 344, "pitch": 55, "duration": 5, "velocity": 80}, {"time": 350, "pitch": 50, "duration": 21, "velocity": 84}, {"time": 350, "pitch": 65, "duration": 12, "velocity": 76}, {"time": 356, "pitch": 57, "duration": 7, "velocity": 78}, {"time": 362, "pitch": 62, "duration": 6, "velocity": 86}, {"time": 368, "pitch": 57, "duration": 9, "velocity": 85}, {"time": 374, "pitch": 43, "duration": 21, "velocity": 84}, {"time": 380, "pitch": 50, "duration": 13, "velocity": 74}, {"time": 386, "pitch": 55, "duration": 6, "velocity": 77}, {"time": 386, "pitch": 62, "duration": 5, "velocity": 78}, {"time": 398, "pitch": 48, "duration": 20, "velocity": 76}, {"time": 398, "pitch": 60, "duration": 8, "velocity": 79}, {"time": 404, "pitch": 55, "duration": 6, "velocity": 77}, {"time": 410, "pitch": 65, "duration": 9, "velocity": 79}, {"time": 416, "pitch": 55, "duration": 7, "velocity": 72}, {"time": 422, "pitch": 48, "duration": 19, "velocity": 80}, {"time": 422, "pitch": 60, "duration": 8, "velocity": 71}, {"time": 422, "pitch": 64, "duration": 12, "velocity": 76}, {"time": 446, "pitch": 48, "duration": 15, "velocity": 83}, {"time": 446, "pitch": 55, "duration": 3, "velocity": 73}, {"time": 446, "pitch": 60, "duration": 7, "velocity": 77}, {"time": 452, "pitch": 55, "duration": 6, "velocity": 78}, {"time": 458, "pitch": 60, "duration": 3, "velocity": 78}, {"time": 464, "pitch": 48, "duration": 19, "velocity": 78}, {"time": 464, "pitch": 55, "duration": 5, "velocity": 71}, {"time": 464, "pitch": 60, "duration": 6, "velocity": 73}, {"time": 464, "pitch": 64, "duration": 6, "velocity": 78}, {"time": 482, "pitch": 55, "duration": 2, "velocity": 75}, {"time": 482, "pitch": 60, "duration": 2, "velocity": 79}, {"time": 494, "pitch": 41, "duration": 42, "velocity": 84}, {"time": 494, "pitch": 53, "duration": 5, "velocity": 73}, {"time": 494, "pitch": 60, "duration": 5, "velocity": 77}, {"time": 500, "pitch": 48, "duration": 27, "velocity": 68}, {"time": 506, "pitch": 57, "duration": 2, "velocity": 69}, {"time": 512, "pitch": 53, "duration": 1, "velocity": 73}, {"time": 512, "pitch": 57, "duration": 1, "velocity": 76}, {"time": 512, "pitch": 65, "duration": 2, "velocity": 80}, {"time": 530, "pitch": 48, "duration": 6, "velocity": 73}, {"time": 542, "pitch": 43, "duration": 24, "velocity": 84}, {"time": 542, "pitch": 55, "duration": 7, "velocity": 80}, {"time": 542, "pitch": 59, "duration": 8, "velocity": 83}, {"time": 548, "pitch": 50, "duration": 18, "velocity": 74}, {"time": 554, "pitch": 55, "duration": 3, "velocity": 67}, {"time": 560, "pitch": 55, "duration": 3, "velocity": 81}, {"time": 560, "pitch": 62, "duration": 3, "velocity": 79}, {"time": 572, "pitch": 55, "duration": 7, "velocity": 69}, {"time": 578, "pitch": 59, "duration": 1, "velocity": 76}, {"time": 578, "pitch": 62, "duration": 1, "velocity": 74}, {"time": 578, "pitch": 67, "duration": 2, "velocity": 79}, {"time": 590, "pitch": 48, "duration": 39, "velocity": 79}, {"time": 590, "pitch": 55, "duration": 3, "velocity": 72}, {"time": 590, "pitch": 60, "duration": 9, "velocity": 78}, {"time": 596, "pitch": 55, "duration": 4, "velocity": 70}, {"time": 602, "pitch": 62, "duration": 2, "velocity": 73}, {"time": 608, "pitch": 55, "duration": 2, "velocity": 81}, {"time": 608, "pitch": 64, "duration": 2, "velocity": 84}, {"time": 620, "pitch": 55, "duration": 2, "velocity": 32}, {"time": 626, "pitch": 55, "duration": 2, "velocity": 77}, {"time": 626, "pitch": 60, "duration": 2, "velocity": 81}, {"time": 638, "pitch": 47, "duration": 15, "velocity": 85}, {"time": 638, "pitch": 59, "duration": 7, "velocity": 77}, {"time": 638, "pitch": 62, "duration": 12, "velocity": 78}, {"time": 644, "pitch": 53, "duration": 7, "velocity": 65}, {"time": 650, "pitch": 59, "duration": 4, "velocity": 81}, {"time": 662, "pitch": 40, "duration": 15, "velocity": 84}, {"time": 662, "pitch": 59, "duration": 5, "velocity": 73}, {"time": 662, "pitch": 64, "duration": 7, "velocity": 80}, {"time": 668, "pitch": 47, "duration": 8, "velocity": 69}, {"time": 674, "pitch": 68, "duration": 7, "velocity": 86}, {"time": 680, "pitch": 64, "duration": 7, "velocity": 78}, {"time": 686, "pitch": 45, "duration": 20, "velocity": 81}, {"time": 686, "pitch": 69, "duration": 5, "velocity": 77}, {"time": 692, "pitch": 52, "duration": 11, "velocity": 47}, {"time": 698, "pitch": 57, "duration": 3, "velocity": 76}, {"time": 698, "pitch": 60, "duration": 5, "velocity": 79}, {"time": 710, "pitch": 43, "duration": 15, "velocity": 68}, {"time": 710, "pitch": 55, "duration": 7, "velocity": 69}, {"time": 710, "pitch": 59, "duration": 12, "velocity": 74}, {"time": 716, "pitch": 50, "duration": 8, "velocity": 73}, {"time": 722, "pitch": 55, "duration": 2, "velocity": 85}, {"time": 734, "pitch": 41, "duration": 14, "velocity": 82}, {"time": 734, "pitch": 57, "duration": 6, "velocity": 75}, {"time": 734, "pitch": 65, "duration": 12, "velocity": 79}, {"time": 740, "pitch": 48, "duration": 7, "velocity": 69}, {"time": 746, "pitch": 60, "duration": 2, "velocity": 84}, {"time": 758, "pitch": 50, "duration": 14, "velocity": 84}, {"time": 758, "pitch": 62, "duration": 8, "velocity": 83}, {"time": 764, "pitch": 57, "duration": 6, "velocity": 73}, {"time": 770, "pitch": 65, "duration": 6, "velocity": 82}, {"time": 776, "pitch": 57, "duration": 2, "velocity": 79}, {"time": 779, "pitch": 55, "duration": 7, "velocity": 67}, {"time": 780, "pitch": 59, "duration": 6, "velocity": 76}, {"time": 781, "pitch": 62, "duration": 9, "velocity": 64}, {"time": 781, "pitch": 43, "duration": 21, "velocity": 85}, {"time": 787, "pitch": 50, "duration": 15, "velocity": 78}, {"time": 792, "pitch": 55, "duration": 28, "velocity": 84}, {"time": 799, "pitch": 59, "duration": 4, "velocity": 85}, {"time": 804, "pitch": 59, "duration": 16, "velocity": 73}, {"time": 805, "pitch": 43, "duration": 12, "velocity": 82}, {"time": 806, "pitch": 62, "duration": 14, "velocity": 76}, {"time": 807, "pitch": 67, "duration": 13, "velocity": 75}, {"time": 830, "pitch": 48, "duration": 20, "velocity": 87}, {"time": 830, "pitch": 60, "duration": 7, "velocity": 79}, {"time": 830, "pitch": 67, "duration": 13, "velocity": 77}, {"time": 836, "pitch": 55, "duration": 14, "velocity": 71}, {"time": 842, "pitch": 60, "duration": 2, "velocity": 81}, {"time": 848, "pitch": 60, "duration": 13, "velocity": 86}, {"time": 848, "pitch": 67, "duration": 14, "velocity": 84}, {"time": 860, "pitch": 48, "duration": 11, "velocity": 62}, {"time": 866, "pitch": 60, "duration": 9, "velocity": 85}, {"time": 866, "pitch": 67, "duration": 10, "velocity": 84}, {"time": 878, "pitch": 48, "duration": 46, "velocity": 87}, {"time": 878, "pitch": 60, "duration": 5, "velocity": 85}, {"time": 878, "pitch": 67, "duration": 5, "velocity": 81}, {"time": 884, "pitch": 55, "duration": 40, "velocity": 72}, {"time": 890, "pitch": 60, "duration": 3, "velocity": 83}, {"time": 896, "pitch": 60, "duration": 2, "velocity": 86}, {"time": 896, "pitch": 65, "duration": 2, "velocity": 85}, {"time": 908, "pitch": 60, "duration": 2, "velocity": 71}, {"time": 914, "pitch": 60, "duration": 3, "velocity": 86}, {"time": 914, "pitch": 65, "duration": 3, "velocity": 86}, {"time": 926, "pitch": 48, "duration": 44, "velocity": 86}, {"time": 926, "pitch": 59, "duration": 6, "velocity": 81}, {"time": 926, "pitch": 62, "duration": 12, "velocity": 84}, {"time": 932, "pitch": 55, "duration": 38, "velocity": 62}, {"time": 938, "pitch": 59, "duration": 2, "velocity": 70}, {"time": 944, "pitch": 59, "duration": 2, "velocity": 83}, {"time": 944, "pitch": 62, "duration": 2, "velocity": 82}, {"time": 944, "pitch": 67, "duration": 2, "velocity": 73}, {"time": 962, "pitch": 59, "duration": 2, "velocity": 80}, {"time": 962, "pitch": 62, "duration": 3, "velocity": 83}, {"time": 962, "pitch": 67, "duration": 7, "velocity": 80}, {"time": 968, "pitch": 59, "duration": 1, "velocity": 69}, {"time": 974, "pitch": 48, "duration": 44, "velocity": 85}, {"time": 974, "pitch": 60, "duration": 7, "velocity": 81}, {"time": 974, "pitch": 64, "duration": 6, "velocity": 84}, {"time": 980, "pitch": 55, "duration": 22, "velocity": 66}, {"time": 986, "pitch": 62, "duration": 2, "velocity": 73}, {"time": 992, "pitch": 60, "duration": 7, "velocity": 84}, {"time": 992, "pitch": 67, "duration": 14, "velocity": 80}, {"time": 1004, "pitch": 55, "duration": 14, "velocity": 62}, {"time": 1010, "pitch": 60, "duration": 2, "velocity": 84}, {"time": 1010, "pitch": 64, "duration": 7, "velocity": 86}, {"time": 1016, "pitch": 60, "duration": 3, "velocity": 73}, {"time": 1022, "pitch": 47, "duration": 19, "velocity": 84}, {"time": 1022, "pitch": 65, "duration": 14, "velocity": 77}, {"time": 1028, "pitch": 53, "duration": 11, "velocity": 69}, {"time": 1034, "pitch": 59, "duration": 7, "velocity": 91}, {"time": 1040, "pitch": 62, "duration": 6, "velocity": 85}, {"time": 1046, "pitch": 40, "duration": 13, "velocity": 85}, {"time": 1046, "pitch": 64, "duration": 5, "velocity": 85}, {"time": 1052, "pitch": 47, "duration": 6, "velocity": 66}, {"time": 1058, "pitch": 59, "duration": 3, "velocity": 84}, {"time": 1058, "pitch": 64, "duration": 2, "velocity": 88}, {"time": 1070, "pitch": 45, "duration": 21, "velocity": 84}, {"time": 1070, "pitch": 57, "duration": 7, "velocity": 74}, {"time": 1070, "pitch": 60, "duration": 7, "velocity": 79}, {"time": 1076, "pitch": 52, "duration": 13, "velocity": 68}, {"time": 1082, "pitch": 60, "duration": 7, "velocity": 84}, {"time": 1082, "pitch": 64, "duration": 7, "velocity": 83}, {"time": 1088, "pitch": 57, "duration": 3, "velocity": 84}, {"time": 1094, "pitch": 43, "duration": 20, "velocity": 80}, {"time": 1094, "pitch": 55, "duration": 12, "velocity": 79}, {"time": 1094, "pitch": 59, "duration": 13, "velocity": 77}, {"time": 1100, "pitch": 50, "duration": 12, "velocity": 61}, {"time": 1106, "pitch": 62, "duration": 10, "velocity": 85}, {"time": 1112, "pitch": 55, "duration": 3, "velocity": 86}, {"time": 1118, "pitch": 41, "duration": 17, "velocity": 84}, {"time": 1118, "pitch": 57, "duration": 8, "velocity": 74}, {"time": 1118, "pitch": 65, "duration": 10, "velocity": 80}, {"time": 1124, "pitch": 48, "duration": 8, "velocity": 59}, {"time": 1130, "pitch": 57, "duration": 2, "velocity": 79}, {"time": 1130, "pitch": 60, "duration": 5, "velocity": 84}, {"time": 1136, "pitch": 57, "duration": 7, "velocity": 80}, {"time": 1142, "pitch": 38, "duration": 13, "velocity": 85}, {"time": 1142, "pitch": 65, "duration": 12, "velocity": 81}, {"time": 1148, "pitch": 57, "duration": 7, "velocity": 81}, {"time": 1154, "pitch": 62, "duration": 5, "velocity": 85}, {"time": 1160, "pitch": 57, "duration": 2, "velocity": 77}, {"time": 1166, "pitch": 43, "duration": 21, "velocity": 78}, {"time": 1166, "pitch": 62, "duration": 13, "velocity": 80}, {"time": 1172, "pitch": 50, "duration": 14, "velocity": 84}, {"time": 1178, "pitch": 55, "duration": 4, "velocity": 89}, {"time": 1184, "pitch": 59, "duration": 3, "velocity": 86}, {"time": 1190, "pitch": 43, "duration": 22, "velocity": 85}, {"time": 1190, "pitch": 55, "duration": 4, "velocity": 84}, {"time": 1190, "pitch": 59, "duration": 3, "velocity": 87}, {"time": 1190, "pitch": 62, "duration": 4, "velocity": 84}, {"time": 1196, "pitch": 50, "duration": 15, "velocity": 88}, {"time": 1202, "pitch": 55, "duration": 2, "velocity": 85}, {"time": 1202, "pitch": 59, "duration": 5, "velocity": 90}, {"time": 1202, "pitch": 62, "duration": 9, "velocity": 87}, {"time": 1202, "pitch": 67, "duration": 7, "velocity": 84}, {"time": 1208, "pitch": 55, "duration": 4, "velocity": 85}, {"time": 1214, "pitch": 41, "duration": 19, "velocity": 81}, {"time": 1214, "pitch": 53, "duration": 6, "velocity": 80}, {"time": 1214, "pitch": 60, "duration": 8, "velocity": 79}, {"time": 1220, "pitch": 48, "duration": 8, "velocity": 81}, {"time": 1223, "pitch": 53, "duration": 4, "velocity": 84}, {"time": 1226, "pitch": 57, "duration": 2, "velocity": 90}, {"time": 1229, "pitch": 60, "duration": 2, "velocity": 105}, {"time": 1232, "pitch": 48, "duration": 2, "velocity": 90}, {"time": 1238, "pitch": 40, "duration": 15, "velocity": 88}, {"time": 1238, "pitch": 52, "duration": 5, "velocity": 86}, {"time": 1238, "pitch": 56, "duration": 6, "velocity": 74}, {"time": 1244, "pitch": 47, "duration": 6, "velocity": 75}, {"time": 1250, "pitch": 52, "duration": 2, "velocity": 89}, {"time": 1250, "pitch": 59, "duration": 3, "velocity": 88}, {"time": 1253, "pitch": 47, "duration": 1, "velocity": 86}, {"time": 1256, "pitch": 52, "duration": 3, "velocity": 85}, {"time": 1259, "pitch": 56, "duration": 1, "velocity": 85}, {"time": 1262, "pitch": 45, "duration": 16, "velocity": 86}, {"time": 1262, "pitch": 57, "duration": 6, "velocity": 84}, {"time": 1268, "pitch": 52, "duration": 6, "velocity": 77}, {"time": 1274, "pitch": 57, "duration": 2, "velocity": 84}, {"time": 1274, "pitch": 60, "duration": 3, "velocity": 85}, {"time": 1274, "pitch": 64, "duration": 3, "velocity": 86}, {"time": 1277, "pitch": 52, "duration": 2, "velocity": 81}, {"time": 1280, "pitch": 57, "duration": 3, "velocity": 80}, {"time": 1283, "pitch": 60, "duration": 1, "velocity": 75}, {"time": 1286, "pitch": 43, "duration": 14, "velocity": 84}, {"time": 1286, "pitch": 55, "duration": 6, "velocity": 84}, {"time": 1286, "pitch": 59, "duration": 6, "velocity": 86}, {"time": 1292, "pitch": 50, "duration": 6, "velocity": 77}, {"time": 1298, "pitch": 55, "duration": 7, "velocity": 87}, {"time": 1298, "pitch": 62, "duration": 9, "velocity": 88}, {"time": 1304, "pitch": 50, "duration": 1, "velocity": 85}, {"time": 1310, "pitch": 41, "duration": 7, "velocity": 85}, {"time": 1310, "pitch": 57, "duration": 3, "velocity": 78}, {"time": 1310, "pitch": 60, "duration": 4, "velocity": 80}, {"time": 1316, "pitch": 48, "duration": 1, "velocity": 75}, {"time": 1322, "pitch": 53, "duration": 6, "velocity": 85}, {"time": 1322, "pitch": 57, "duration": 6, "velocity": 86}, {"time": 1322, "pitch": 60, "duration": 7, "velocity": 87}, {"time": 1328, "pitch": 48, "duration": 2, "velocity": 84}, {"time": 1334, "pitch": 43, "duration": 13, "velocity": 86}, {"time": 1334, "pitch": 55, "duration": 5, "velocity": 79}, {"time": 1334, "pitch": 59, "duration": 6, "velocity": 81}, {"time": 1340, "pitch": 50, "duration": 7, "velocity": 72}, {"time": 1346, "pitch": 55, "duration": 6, "velocity": 84}, {"time": 1346, "pitch": 59, "duration": 6, "velocity": 87}, {"time": 1346, "pitch": 62, "duration": 6, "velocity": 84}, {"time": 1352, "pitch": 43, "duration": 4, "velocity": 86}, {"time": 1358, "pitch": 48, "duration": 14, "velocity": 89}, {"time": 1358, "pitch": 55, "duration": 3, "velocity": 81}, {"time": 1358, "pitch": 60, "duration": 6, "velocity": 82}, {"time": 1364, "pitch": 55, "duration": 2, "velocity": 71}, {"time": 1370, "pitch": 55, "duration": 5, "velocity": 88}, {"time": 1370, "pitch": 60, "duration": 6, "velocity": 93}, {"time": 1370, "pitch": 64, "duration": 5, "velocity": 89}, {"time": 1376, "pitch": 48, "duration": 4, "velocity": 84}, {"time": 1379, "pitch": 55, "duration": 1, "velocity": 84}, {"time": 1382, "pitch": 48, "duration": 16, "velocity": 89}, {"time": 1382, "pitch": 55, "duration": 3, "velocity": 84}, {"time": 1382, "pitch": 60, "duration": 6, "velocity": 84}, {"time": 1382, "pitch": 64, "duration": 7, "velocity": 87}, {"time": 1388, "pitch": 55, "duration": 1, "velocity": 84}, {"time": 1394, "pitch": 55, "duration": 3, "velocity": 86}, {"time": 1394, "pitch": 62, "duration": 6, "velocity": 85}, {"time": 1400, "pitch": 60, "duration": 4, "velocity": 89}, {"time": 1406, "pitch": 47, "duration": 14, "velocity": 87}, {"time": 1406, "pitch": 59, "duration": 5, "velocity": 83}, {"time": 1406, "pitch": 62, "duration": 4, "velocity": 81}, {"time": 1412, "pitch": 53, "duration": 6, "velocity": 69}, {"time": 1418, "pitch": 59, "duration": 6, "velocity": 86}, {"time": 1418, "pitch": 65, "duration": 6, "velocity": 86}, {"time": 1424, "pitch": 53, "duration": 1, "velocity": 78}, {"time": 1427, "pitch": 62, "duration": 3, "velocity": 82}, {"time": 1430, "pitch": 40, "duration": 16, "velocity": 87}, {"time": 1430, "pitch": 64, "duration": 2, "velocity": 86}, {"time": 1436, "pitch": 47, "duration": 6, "velocity": 76}, {"time": 1439, "pitch": 50, "duration": 4, "velocity": 84}, {"time": 1442, "pitch": 56, "duration": 3, "velocity": 91}, {"time": 1445, "pitch": 47, "duration": 1, "velocity": 86}, {"time": 1448, "pitch": 52, "duration": 4, "velocity": 86}, {"time": 1451, "pitch": 56, "duration": 2, "velocity": 85}, {"time": 1454, "pitch": 45, "duration": 19, "velocity": 86}, {"time": 1454, "pitch": 57, "duration": 4, "velocity": 85}, {"time": 1460, "pitch": 52, "duration": 6, "velocity": 78}, {"time": 1466, "pitch": 57, "duration": 3, "velocity": 85}, {"time": 1466, "pitch": 60, "duration": 4, "velocity": 91}, {"time": 1469, "pitch": 52, "duration": 4, "velocity": 80}, {"time": 1472, "pitch": 57, "duration": 4, "velocity": 84}, {"time": 1475, "pitch": 60, "duration": 1, "velocity": 80}, {"time": 1478, "pitch": 43, "duration": 16, "velocity": 84}, {"time": 1478, "pitch": 55, "duration": 5, "velocity": 84}, {"time": 1478, "pitch": 59, "duration": 5, "velocity": 87}, {"time": 1484, "pitch": 50, "duration": 6, "velocity": 74}, {"time": 1490, "pitch": 55, "duration": 3, "velocity": 84}, {"time": 1490, "pitch": 59, "duration": 3, "velocity": 87}, {"time": 1490, "pitch": 62, "duration": 3, "velocity": 86}, {"time": 1493, "pitch": 50, "duration": 1, "velocity": 80}, {"time": 1496, "pitch": 55, "duration": 2, "velocity": 85}, {"time": 1502, "pitch": 41, "duration": 15, "velocity": 84}, {"time": 1502, "pitch": 53, "duration": 5, "velocity": 74}, {"time": 1502, "pitch": 57, "duration": 4, "velocity": 74}, {"time": 1508, "pitch": 48, "duration": 6, "velocity": 74}, {"time": 1514, "pitch": 53, "duration": 2, "velocity": 86}, {"time": 1514, "pitch": 57, "duration": 3, "velocity": 89}, {"time": 1514, "pitch": 65, "duration": 4, "velocity": 84}, {"time": 1517, "pitch": 48, "duration": 1, "velocity": 80}, {"time": 1520, "pitch": 53, "duration": 1, "velocity": 88}, {"time": 1526, "pitch": 38, "duration": 14, "velocity": 86}, {"time": 1526, "pitch": 57, "duration": 6, "velocity": 78}, {"time": 1526, "pitch": 65, "duration": 10, "velocity": 80}, {"time": 1532, "pitch": 45, "duration": 7, "velocity": 64}, {"time": 1535, "pitch": 57, "duration": 2, "velocity": 78}, {"time": 1538, "pitch": 62, "duration": 2, "velocity": 88}, {"time": 1541, "pitch": 57, "duration": 2, "velocity": 86}, {"time": 1544, "pitch": 62, "duration": 1, "velocity": 80}, {"time": 1550, "pitch": 43, "duration": 21, "velocity": 85}, {"time": 1550, "pitch": 55, "duration": 5, "velocity": 80}, {"time": 1550, "pitch": 59, "duration": 5, "velocity": 83}, {"time": 1556, "pitch": 50, "duration": 3, "velocity": 71}, {"time": 1559, "pitch": 50, "duration": 1, "velocity": 69}, {"time": 1559, "pitch": 55, "duration": 2, "velocity": 86}, {"time": 1559, "pitch": 62, "duration": 2, "velocity": 88}, {"time": 1565, "pitch": 55, "duration": 3, "velocity": 84}, {"time": 1565, "pitch": 59, "duration": 3, "velocity": 85}, {"time": 1568, "pitch": 50, "duration": 2, "velocity": 80}, {"time": 1571, "pitch": 55, "duration": 1, "velocity": 84}, {"time": 1574, "pitch": 43, "duration": 16, "velocity": 85}, {"time": 1574, "pitch": 55, "duration": 3, "velocity": 81}, {"time": 1574, "pitch": 59, "duration": 3, "velocity": 86}, {"time": 1574, "pitch": 62, "duration": 4, "velocity": 84}, {"time": 1577, "pitch": 50, "duration": 7, "velocity": 84}, {"time": 1580, "pitch": 55, "duration": 1, "velocity": 82}, {"time": 1583, "pitch": 55, "duration": 4, "velocity": 85}, {"time": 1583, "pitch": 62, "duration": 2, "velocity": 73}, {"time": 1583, "pitch": 67, "duration": 5, "velocity": 81}, {"time": 1586, "pitch": 50, "duration": 3, "velocity": 86}, {"time": 1589, "pitch": 55, "duration": 1, "velocity": 75}, {"time": 1589, "pitch": 59, "duration": 4, "velocity": 86}, {"time": 1589, "pitch": 62, "duration": 3, "velocity": 85}, {"time": 1592, "pitch": 55, "duration": 3, "velocity": 84}, {"time": 1598, "pitch": 41, "duration": 19, "velocity": 81}, {"time": 1598, "pitch": 53, "duration": 6, "velocity": 80}, {"time": 1598, "pitch": 60, "duration": 8, "velocity": 79}, {"time": 1604, "pitch": 48, "duration": 8, "velocity": 81}, {"time": 1607, "pitch": 53, "duration": 4, "velocity": 84}, {"time": 1610, "pitch": 57, "duration": 2, "velocity": 90}, {"time": 1613, "pitch": 60, "duration": 2, "velocity": 105}, {"time": 1616, "pitch": 48, "duration": 2, "velocity": 90}, {"time": 1622, "pitch": 40, "duration": 15, "velocity": 88}, {"time": 1622, "pitch": 52, "duration": 5, "velocity": 86}, {"time": 1622, "pitch": 56, "duration": 6, "velocity": 74}, {"time": 1628, "pitch": 47, "duration": 6, "velocity": 75}, {"time": 1634, "pitch": 52, "duration": 2, "velocity": 89}, {"time": 1634, "pitch": 59, "duration": 3, "velocity": 88}, {"time": 1637, "pitch": 47, "duration": 1, "velocity": 86}, {"time": 1640, "pitch": 52, "duration": 3, "velocity": 85}, {"time": 1643, "pitch": 56, "duration": 1, "velocity": 85}, {"time": 1646, "pitch": 45, "duration": 16, "velocity": 86}, {"time": 1646, "pitch": 57, "duration": 6, "velocity": 84}, {"time": 1652, "pitch": 52, "duration": 6, "velocity": 77}, {"time": 1658, "pitch": 57, "duration": 2, "velocity": 84}, {"time": 1658, "pitch": 60, "duration": 3, "velocity": 85}, {"time": 1658, "pitch": 64, "duration": 3, "velocity": 86}, {"time": 1661, "pitch": 52, "duration": 2, "velocity": 81}, {"time": 1664, "pitch": 57, "duration": 3, "velocity": 80}, {"time": 1667, "pitch": 60, "duration": 1, "velocity": 75}, {"time": 1670, "pitch": 43, "duration": 14, "velocity": 84}, {"time": 1670, "pitch": 55, "duration": 6, "velocity": 84}, {"time": 1670, "pitch": 59, "duration": 6, "velocity": 86}, {"time": 1676, "pitch": 50, "duration": 6, "velocity": 77}, {"time": 1682, "pitch": 55, "duration": 7, "velocity": 87}, {"time": 1682, "pitch": 62, "duration": 9, "velocity": 88}, {"time": 1688, "pitch": 50, "duration": 1, "velocity": 85}, {"time": 1694, "pitch": 41, "duration": 7, "velocity": 85}, {"time": 1694, "pitch": 57, "duration": 3, "velocity": 78}, {"time": 1694, "pitch": 60, "duration": 4, "velocity": 80}, {"time": 1700, "pitch": 48, "duration": 1, "velocity": 75}, {"time": 1706, "pitch": 53, "duration": 6, "velocity": 85}, {"time": 1706, "pitch": 57, "duration": 6, "velocity": 86}, {"time": 1706, "pitch": 60, "duration": 7, "velocity": 87}, {"time": 1712, "pitch": 48, "duration": 2, "velocity": 84}, {"time": 1718, "pitch": 43, "duration": 13, "velocity": 86}, {"time": 1718, "pitch": 55, "duration": 5, "velocity": 79}, {"time": 1718, "pitch": 59, "duration": 6, "velocity": 81}, {"time": 1724, "pitch": 50, "duration": 7, "velocity": 72}, {"time": 1730, "pitch": 55, "duration": 6, "velocity": 84}, {"time": 1730, "pitch": 59, "duration": 6, "velocity": 87}, {"time": 1730, "pitch": 62, "duration": 6, "velocity": 84}, {"time": 1736, "pitch": 43, "duration": 4, "velocity": 86}, {"time": 1742, "pitch": 48, "duration": 14, "velocity": 89}, {"time": 1742, "pitch": 55, "duration": 3, "velocity": 81}, {"time": 1742, "pitch": 60, "duration": 6, "velocity": 82}, {"time": 1748, "pitch": 55, "duration": 2, "velocity": 71}, {"time": 1754, "pitch": 55, "duration": 5, "velocity": 88}, {"time": 1754, "pitch": 60, "duration": 6, "velocity": 93}, {"time": 1754, "pitch": 64, "duration": 5, "velocity": 89}, {"time": 1760, "pitch": 48, "duration": 4, "velocity": 84}, {"time": 1763, "pitch": 55, "duration": 1, "velocity": 84}, {"time": 1766, "pitch": 48, "duration": 16, "velocity": 89}, {"time": 1766, "pitch": 55, "duration": 3, "velocity": 84}, {"time": 1766, "pitch": 60, "duration": 6, "velocity": 84}, {"time": 1766, "pitch": 64, "duration": 7, "velocity": 87}, {"time": 1772, "pitch": 55, "duration": 1, "velocity": 84}, {"time": 1778, "pitch": 55, "duration": 3, "velocity": 86}, {"time": 1778, "pitch": 62, "duration": 6, "velocity": 85}, {"time": 1784, "pitch": 60, "duration": 4, "velocity": 89}, {"time": 1790, "pitch": 47, "duration": 14, "velocity": 87}, {"time": 1790, "pitch": 59, "duration": 5, "velocity": 83}, {"time": 1790, "pitch": 62, "duration": 4, "velocity": 81}, {"time": 1796, "pitch": 53, "duration": 6, "velocity": 69}, {"time": 1802, "pitch": 59, "duration": 6, "velocity": 86}, {"time": 1802, "pitch": 65, "duration": 6, "velocity": 86}, {"time": 1808, "pitch": 53, "duration": 1, "velocity": 78}, {"time": 1811, "pitch": 62, "duration": 3, "velocity": 82}, {"time": 1814, "pitch": 40, "duration": 16, "velocity": 87}, {"time": 1814, "pitch": 64, "duration": 2, "velocity": 86}, {"time": 1820, "pitch": 47, "duration": 6, "velocity": 76}, {"time": 1823, "pitch": 50, "duration": 4, "velocity": 84}, {"time": 1826, "pitch": 56, "duration": 3, "velocity": 91}, {"time": 1829, "pitch": 47, "duration": 1, "velocity": 86}, {"time": 1832, "pitch": 52, "duration": 4, "velocity": 86}, {"time": 1835, "pitch": 56, "duration": 2, "velocity": 85}, {"time": 1838, "pitch": 45, "duration": 19, "velocity": 86}, {"time": 1838, "pitch": 57, "duration": 4, "velocity": 85}, {"time": 1844, "pitch": 52, "duration": 6, "velocity": 78}, {"time": 1850, "pitch": 57, "duration": 3, "velocity": 85}, {"time": 1850, "pitch": 60, "duration": 4, "velocity": 91}, {"time": 1853, "pitch": 52, "duration": 4, "velocity": 80}, {"time": 1856, "pitch": 57, "duration": 4, "velocity": 84}, {"time": 1859, "pitch": 60, "duration": 1, "velocity": 80}, {"time": 1862, "pitch": 43, "duration": 16, "velocity": 84}, {"time": 1862, "pitch": 55, "duration": 5, "velocity": 84}, {"time": 1862, "pitch": 59, "duration": 5, "velocity": 87}, {"time": 1868, "pitch": 50, "duration": 6, "velocity": 74}, {"time": 1874, "pitch": 55, "duration": 3, "velocity": 84}, {"time": 1874, "pitch": 59, "duration": 3, "velocity": 87}, {"time": 1874, "pitch": 62, "duration": 3, "velocity": 86}, {"time": 1877, "pitch": 50, "duration": 1, "velocity": 80}, {"time": 1880, "pitch": 55, "duration": 2, "velocity": 85}, {"time": 1886, "pitch": 41, "duration": 15, "velocity": 84}, {"time": 1886, "pitch": 53, "duration": 5, "velocity": 74}, {"time": 1886, "pitch": 57, "duration": 4, "velocity": 74}, {"time": 1892, "pitch": 48, "duration": 6, "velocity": 74}, {"time": 1898, "pitch": 53, "duration": 2, "velocity": 86}, {"time": 1898, "pitch": 57, "duration": 3, "velocity": 89}, {"time": 1898, "pitch": 65, "duration": 4, "velocity": 84}, {"time": 1901, "pitch": 48, "duration": 1, "velocity": 80}, {"time": 1904, "pitch": 53, "duration": 1, "velocity": 88}, {"time": 1910, "pitch": 43, "duration": 22, "velocity": 86}, {"time": 1910, "pitch": 55, "duration": 7, "velocity": 81}, {"time": 1910, "pitch": 62, "duration": 8, "velocity": 79}, {"time": 1916, "pitch": 50, "duration": 15, "velocity": 77}, {"time": 1919, "pitch": 55, "duration": 6, "velocity": 80}, {"time": 1922, "pitch": 59, "duration": 3, "velocity": 84}, {"time": 1925, "pitch": 62, "duration": 4, "velocity": 89}, {"time": 1928, "pitch": 55, "duration": 4, "velocity": 86}, {"time": 1934, "pitch": 43, "duration": 10, "velocity": 84}, {"time": 1934, "pitch": 55, "duration": 6, "velocity": 72}, {"time": 1934, "pitch": 59, "duration": 6, "velocity": 76}, {"time": 1934, "pitch": 62, "duration": 7, "velocity": 78}, {"time": 1934, "pitch": 67, "duration": 6, "velocity": 75}, {"time": 1940, "pitch": 50, "duration": 4, "velocity": 62}, {"time": 1946, "pitch": 55, "duration": 4, "velocity": 76}, {"time": 1952, "pitch": 59, "duration": 6, "velocity": 80}, {"time": 1952, "pitch": 62, "duration": 8, "velocity": 82}, {"time": 1970, "pitch": 59, "duration": 4, "velocity": 77}, {"time": 1970, "pitch": 62, "duration": 6, "velocity": 78}, {"time": 1982, "pitch": 59, "duration": 5, "velocity": 76}, {"time": 1982, "pitch": 62, "duration": 7, "velocity": 78}, {"time": 1994, "pitch": 55, "duration": 2, "velocity": 83}, {"time": 1994, "pitch": 62, "duration": 9, "velocity": 81}, {"time": 2000, "pitch": 55, "duration": 5, "velocity": 88}, {"time": 2006, "pitch": 48, "duration": 20, "velocity": 87}, {"time": 2006, "pitch": 60, "duration": 7, "velocity": 79}, {"time": 2006, "pitch": 67, "duration": 13, "velocity": 77}, {"time": 2012, "pitch": 55, "duration": 14, "velocity": 71}, {"time": 2018, "pitch": 60, "duration": 2, "velocity": 81}, {"time": 2024, "pitch": 60, "duration": 13, "velocity": 86}, {"time": 2024, "pitch": 67, "duration": 14, "velocity": 84}, {"time": 2036, "pitch": 48, "duration": 11, "velocity": 62}, {"time": 2042, "pitch": 60, "duration": 9, "velocity": 85}, {"time": 2042, "pitch": 67, "duration": 10, "velocity": 84}, {"time": 2054, "pitch": 48, "duration": 46, "velocity": 87}, {"time": 2054, "pitch": 60, "duration": 5, "velocity": 85}, {"time": 2054, "pitch": 67, "duration": 5, "velocity": 81}, {"time": 2060, "pitch": 55, "duration": 40, "velocity": 72}, {"time": 2066, "pitch": 60, "duration": 3, "velocity": 83}, {"time": 2072, "pitch": 60, "duration": 2, "velocity": 86}, {"time": 2072, "pitch": 65, "duration": 2, "velocity": 85}, {"time": 2084, "pitch": 60, "duration": 2, "velocity": 71}, {"time": 2090, "pitch": 60, "duration": 3, "velocity": 86}, {"time": 2090, "pitch": 65, "duration": 3, "velocity": 86}, {"time": 2102, "pitch": 48, "duration": 44, "velocity": 86}, {"time": 2102, "pitch": 59, "duration": 6, "velocity": 81}, {"time": 2102, "pitch": 62, "duration": 12, "velocity": 84}, {"time": 2108, "pitch": 55, "duration": 38, "velocity": 62}, {"time": 2114, "pitch": 59, "duration": 2, "velocity": 70}, {"time": 2120, "pitch": 59, "duration": 2, "velocity": 83}, {"time": 2120, "pitch": 62, "duration": 2, "velocity": 82}, {"time": 2120, "pitch": 67, "duration": 2, "velocity": 73}, {"time": 2138, "pitch": 59, "duration": 2, "velocity": 80}, {"time": 2138, "pitch": 62, "duration": 3, "velocity": 83}, {"time": 2138, "pitch": 67, "duration": 7, "velocity": 80}, {"time": 2144, "pitch": 59, "duration": 1, "velocity": 69}, {"time": 2150, "pitch": 48, "duration": 44, "velocity": 85}, {"time": 2150, "pitch": 60, "duration": 7, "velocity": 81}, {"time": 2150, "pitch": 64, "duration": 6, "velocity": 84}, {"time": 2156, "pitch": 55, "duration": 22, "velocity": 66}, {"time": 2162, "pitch": 62, "duration": 2, "velocity": 73}, {"time": 2168, "pitch": 60, "duration": 7, "velocity": 84}, {"time": 2168, "pitch": 67, "duration": 14, "velocity": 80}, {"time": 2180, "pitch": 55, "duration": 14, "velocity": 62}, {"time": 2186, "pitch": 60, "duration": 2, "velocity": 84}, {"time": 2186, "pitch": 64, "duration": 7, "velocity": 86}, {"time": 2192, "pitch": 60, "duration": 3, "velocity": 73}, {"time": 2198, "pitch": 47, "duration": 19, "velocity": 84}, {"time": 2198, "pitch": 65, "duration": 14, "velocity": 77}, {"time": 2204, "pitch": 53, "duration": 11, "velocity": 69}, {"time": 2210, "pitch": 59, "duration": 7, "velocity": 91}, {"time": 2216, "pitch": 62, "duration": 6, "velocity": 85}, {"time": 2222, "pitch": 40, "duration": 13, "velocity": 85}, {"time": 2222, "pitch": 64, "duration": 5, "velocity": 85}, {"time": 2228, "pitch": 47, "duration": 6, "velocity": 66}, {"time": 2234, "pitch": 59, "duration": 3, "velocity": 84}, {"time": 2234, "pitch": 64, "duration": 2, "velocity": 88}, {"time": 2246, "pitch": 45, "duration": 21, "velocity": 84}, {"time": 2246, "pitch": 57, "duration": 7, "velocity": 74}, {"time": 2246, "pitch": 60, "duration": 7, "velocity": 79}, {"time": 2252, "pitch": 52, "duration": 13, "velocity": 68}, {"time": 2258, "pitch": 60, "duration": 7, "velocity": 84}, {"time": 2258, "pitch": 64, "duration": 7, "velocity": 83}, {"time": 2264, "pitch": 57, "duration": 3, "velocity": 84}, {"time": 2270, "pitch": 43, "duration": 20, "velocity": 80}, {"time": 2270, "pitch": 55, "duration": 12, "velocity": 79}, {"time": 2270, "pitch": 59, "duration": 13, "velocity": 77}, {"time": 2276, "pitch": 50, "duration": 12, "velocity": 61}, {"time": 2282, "pitch": 62, "duration": 10, "velocity": 85}, {"time": 2288, "pitch": 55, "duration": 3, "velocity": 86}, {"time": 2294, "pitch": 41, "duration": 17, "velocity": 84}, {"time": 2294, "pitch": 57, "duration": 8, "velocity": 74}, {"time": 2294, "pitch": 65, "duration": 10, "velocity": 80}, {"time": 2300, "pitch": 48, "duration": 8, "velocity": 59}, {"time": 2306, "pitch": 57, "duration": 2, "velocity": 79}, {"time": 2306, "pitch": 60, "duration": 5, "velocity": 84}, {"time": 2312, "pitch": 57, "duration": 7, "velocity": 80}, {"time": 2318, "pitch": 38, "duration": 13, "velocity": 85}, {"time": 2318, "pitch": 65, "duration": 12, "velocity": 81}, {"time": 2324, "pitch": 57, "duration": 7, "velocity": 81}, {"time": 2330, "pitch": 62, "duration": 5, "velocity": 85}, {"time": 2336, "pitch": 57, "duration": 2, "velocity": 77}, {"time": 2342, "pitch": 43, "duration": 21, "velocity": 78}, {"time": 2342, "pitch": 62, "duration": 13, "velocity": 80}, {"time": 2348, "pitch": 50, "duration": 14, "velocity": 84}, {"time": 2354, "pitch": 55, "duration": 4, "velocity": 89}, {"time": 2360, "pitch": 59, "duration": 3, "velocity": 86}, {"time": 2366, "pitch": 43, "duration": 22, "velocity": 85}, {"time": 2366, "pitch": 55, "duration": 4, "velocity": 84}, {"time": 2366, "pitch": 59, "duration": 3, "velocity": 87}, {"time": 2366, "pitch": 62, "duration": 4, "velocity": 84}, {"time": 2372, "pitch": 50, "duration": 15, "velocity": 88}, {"time": 2378, "pitch": 55, "duration": 2, "velocity": 85}, {"time": 2378, "pitch": 59, "duration": 5, "velocity": 90}, {"time": 2378, "pitch": 62, "duration": 9, "velocity": 87}, {"time": 2378, "pitch": 67, "duration": 7, "velocity": 84}, {"time": 2384, "pitch": 55, "duration": 4, "velocity": 85}, {"time": 2390, "pitch": 41, "duration": 19, "velocity": 81}, {"time": 2390, "pitch": 53, "duration": 6, "velocity": 80}, {"time": 2390, "pitch": 60, "duration": 8, "velocity": 79}, {"time": 2396, "pitch": 48, "duration": 8, "velocity": 81}, {"time": 2399, "pitch": 53, "duration": 4, "velocity": 84}, {"time": 2402, "pitch": 57, "duration": 2, "velocity": 90}, {"time": 2405, "pitch": 60, "duration": 2, "velocity": 105}, {"time": 2408, "pitch": 48, "duration": 2, "velocity": 90}, {"time": 2414, "pitch": 40, "duration": 15, "velocity": 88}, {"time": 2414, "pitch": 52, "duration": 5, "velocity": 86}, {"time": 2414, "pitch": 56, "duration": 6, "velocity": 74}, {"time": 2420, "pitch": 47, "duration": 6, "velocity": 75}, {"time": 2426, "pitch": 52, "duration": 2, "velocity": 89}, {"time": 2426, "pitch": 59, "duration": 3, "velocity": 88}, {"time": 2429, "pitch": 47, "duration": 1, "velocity": 86}, {"time": 2432, "pitch": 52, "duration": 3, "velocity": 85}, {"time": 2435, "pitch": 56, "duration": 1, "velocity": 85}, {"time": 2438, "pitch": 45, "duration": 16, "velocity": 86}, {"time": 2438, "pitch": 57, "duration": 6, "velocity": 84}, {"time": 2444, "pitch": 52, "duration": 6, "velocity": 77}, {"time": 2450, "pitch": 57, "duration": 2, "velocity": 84}, {"time": 2450, "pitch": 60, "duration": 3, "velocity": 85}, {"time": 2450, "pitch": 64, "duration": 3, "velocity": 86}, {"time": 2453, "pitch": 52, "duration": 2, "velocity": 81}, {"time": 2456, "pitch": 57, "duration": 3, "velocity": 80}, {"time": 2459, "pitch": 60, "duration": 1, "velocity": 75}, {"time": 2462, "pitch": 43, "duration": 14, "velocity": 84}, {"time": 2462, "pitch": 55, "duration": 6, "velocity": 84}, {"time": 2462, "pitch": 59, "duration": 6, "velocity": 86}, {"time": 2468, "pitch": 50, "duration": 6, "velocity": 77}, {"time": 2474, "pitch": 55, "duration": 7, "velocity": 87}, {"time": 2474, "pitch": 62, "duration": 9, "velocity": 88}, {"time": 2480, "pitch": 50, "duration": 1, "velocity": 85}, {"time": 2486, "pitch": 41, "duration": 7, "velocity": 85}, {"time": 2486, "pitch": 57, "duration": 3, "velocity": 78}, {"time": 2486, "pitch": 60, "duration": 4, "velocity": 80}, {"time": 2492, "pitch": 48, "duration": 1, "velocity": 75}, {"time": 2498, "pitch": 53, "duration": 6, "velocity": 85}, {"time": 2498, "pitch": 57, "duration": 6, "velocity": 86}, {"time": 2498, "pitch": 60, "duration": 7, "velocity": 87}, {"time": 2504, "pitch": 48, "duration": 2, "velocity": 84}, {"time": 2510, "pitch": 43, "duration": 13, "velocity": 86}, {"time": 2510, "pitch": 55, "duration": 5, "velocity": 79}, {"time": 2510, "pitch": 59, "duration": 6, "velocity": 81}, {"time": 2516, "pitch": 50, "duration": 7, "velocity": 72}, {"time": 2522, "pitch": 55, "duration": 6, "velocity": 84}, {"time": 2522, "pitch": 59, "duration": 6, "velocity": 87}, {"time": 2522, "pitch": 62, "duration": 6, "velocity": 84}, {"time": 2528, "pitch": 43, "duration": 4, "velocity": 86}, {"time": 2534, "pitch": 48, "duration": 14, "velocity": 89}, {"time": 2534, "pitch": 55, "duration": 3, "velocity": 81}, {"time": 2534, "pitch": 60, "duration": 6, "velocity": 82}, {"time": 2540, "pitch": 55, "duration": 2, "velocity": 71}, {"time": 2546, "pitch": 55, "duration": 5, "velocity": 88}, {"time": 2546, "pitch": 60, "duration": 6, "velocity": 93}, {"time": 2546, "pitch": 64, "duration": 5, "velocity": 89}, {"time": 2552, "pitch": 48, "duration": 4, "velocity": 84}, {"time": 2555, "pitch": 55, "duration": 1, "velocity": 84}, {"time": 2558, "pitch": 48, "duration": 16, "velocity": 89}, {"time": 2558, "pitch": 55, "duration": 3, "velocity": 84}, {"time": 2558, "pitch": 60, "duration": 6, "velocity": 84}, {"time": 2558, "pitch": 64, "duration": 7, "velocity": 87}, {"time": 2564, "pitch": 55, "duration": 1, "velocity": 84}, {"time": 2570, "pitch": 55, "duration": 3, "velocity": 86}, {"time": 2570, "pitch": 62, "duration": 6, "velocity": 85}, {"time": 2576, "pitch": 60, "duration": 4, "velocity": 89}, {"time": 2582, "pitch": 47, "duration": 14, "velocity": 87}, {"time": 2582, "pitch": 59, "duration": 5, "velocity": 83}, {"time": 2582, "pitch": 62, "duration": 4, "velocity": 81}, {"time": 2588, "pitch": 53, "duration": 6, "velocity": 69}, {"time": 2594, "pitch": 59, "duration": 6, "velocity": 86}, {"time": 2594, "pitch": 65, "duration": 6, "velocity": 86}, {"time": 2600, "pitch": 53, "duration": 1, "velocity": 78}, {"time": 2603, "pitch": 62, "duration": 3, "velocity": 82}, {"time": 2606, "pitch": 40, "duration": 16, "velocity": 87}, {"time": 2606, "pitch": 64, "duration": 2, "velocity": 86}, {"time": 2612, "pitch": 47, "duration": 6, "velocity": 76}, {"time": 2615, "pitch": 50, "duration": 4, "velocity": 84}, {"time": 2618, "pitch": 56, "duration": 3, "velocity": 91}, {"time": 2621, "pitch": 47, "duration": 1, "velocity": 86}, {"time": 2624, "pitch": 52, "duration": 4, "velocity": 86}, {"time": 2627, "pitch": 56, "duration": 2, "velocity": 85}, {"time": 2630, "pitch": 45, "duration": 19, "velocity": 86}, {"time": 2630, "pitch": 57, "duration": 4, "velocity": 85}, {"time": 2636, "pitch": 52, "duration": 6, "velocity": 78}, {"time": 2642, "pitch": 57, "duration": 3, "velocity": 85}, {"time": 2642, "pitch": 60, "duration": 4, "velocity": 91}, {"time": 2645, "pitch": 52, "duration": 4, "velocity": 80}, {"time": 2648, "pitch": 57, "duration": 4, "velocity": 84}, {"time": 2651, "pitch": 60, "duration": 1, "velocity": 80}, {"time": 2654, "pitch": 43, "duration": 16, "velocity": 84}, {"time": 2654, "pitch": 55, "duration": 5, "velocity": 84}, {"time": 2654, "pitch": 59, "duration": 5, "velocity": 87}, {"time": 2660, "pitch": 50, "duration": 6, "velocity": 74}, {"time": 2666, "pitch": 55, "duration": 3, "velocity": 84}, {"time": 2666, "pitch": 59, "duration": 3, "velocity": 87}, {"time": 2666, "pitch": 62, "duration": 3, "velocity": 86}, {"time": 2669, "pitch": 50, "duration": 1, "velocity": 80}, {"time": 2672, "pitch": 55, "duration": 2, "velocity": 85}, {"time": 2678, "pitch": 41, "duration": 15, "velocity": 84}, {"time": 2678, "pitch": 53, "duration": 5, "velocity": 74}, {"time": 2678, "pitch": 57, "duration": 4, "velocity": 74}, {"time": 2684, "pitch": 48, "duration": 6, "velocity": 74}, {"time": 2690, "pitch": 53, "duration": 2, "velocity": 86}, {"time": 2690, "pitch": 57, "duration": 3, "velocity": 89}, {"time": 2690, "pitch": 65, "duration": 4, "velocity": 84}, {"time": 2693, "pitch": 48, "duration": 1, "velocity": 80}, {"time": 2696, "pitch": 53, "duration": 1, "velocity": 88}, {"time": 2702, "pitch": 38, "duration": 14, "velocity": 86}, {"time": 2702, "pitch": 57, "duration": 6, "velocity": 78}, {"time": 2702, "pitch": 65, "duration": 10, "velocity": 80}, {"time": 2708, "pitch": 45, "duration": 7, "velocity": 64}, {"time": 2711, "pitch": 57, "duration": 2, "velocity": 78}, {"time": 2714, "pitch": 62, "duration": 2, "velocity": 88}, {"time": 2717, "pitch": 57, "duration": 2, "velocity": 86}, {"time": 2720, "pitch": 62, "duration": 1, "velocity": 80}, {"time": 2726, "pitch": 43, "duration": 21, "velocity": 85}, {"time": 2726, "pitch": 55, "duration": 5, "velocity": 80}, {"time": 2726, "pitch": 59, "duration": 5, "velocity": 83}, {"time": 2732, "pitch": 50, "duration": 3, "velocity": 71}, {"time": 2735, "pitch": 50, "duration": 1, "velocity": 69}, {"time": 2735, "pitch": 55, "duration": 2, "velocity": 86}, {"time": 2735, "pitch": 62, "duration": 2, "velocity": 88}, {"time": 2741, "pitch": 55, "duration": 3, "velocity": 84}, {"time": 2741, "pitch": 59, "duration": 3, "velocity": 85}, {"time": 2744, "pitch": 50, "duration": 2, "velocity": 80}, {"time": 2747, "pitch": 55, "duration": 1, "velocity": 84}, {"time": 2750, "pitch": 43, "duration": 16, "velocity": 85}, {"time": 2750, "pitch": 55, "duration": 3, "velocity": 81}, {"time": 2750, "pitch": 59, "duration": 3, "velocity": 86}, {"time": 2750, "pitch": 62, "duration": 4, "velocity": 84}, {"time": 2753, "pitch": 50, "duration": 7, "velocity": 84}, {"time": 2756, "pitch": 55, "duration": 1, "velocity": 82}, {"time": 2759, "pitch": 55, "duration": 4, "velocity": 85}, {"time": 2759, "pitch": 62, "duration": 2, "velocity": 73}, {"time": 2759, "pitch": 67, "duration": 5, "velocity": 81}, {"time": 2762, "pitch": 50, "duration": 3, "velocity": 86}, {"time": 2765, "pitch": 55, "duration": 1, "velocity": 75}, {"time": 2765, "pitch": 59, "duration": 4, "velocity": 86}, {"time": 2765, "pitch": 62, "duration": 3, "velocity": 85}, {"time": 2768, "pitch": 55, "duration": 3, "velocity": 84}, {"time": 2774, "pitch": 41, "duration": 19, "velocity": 81}, {"time": 2774, "pitch": 53, "duration": 6, "velocity": 80}, {"time": 2774, "pitch": 60, "duration": 8, "velocity": 79}, {"time": 2780, "pitch": 48, "duration": 8, "velocity": 81}, {"time": 2783, "pitch": 53, "duration": 4, "velocity": 84}, {"time": 2786, "pitch": 57, "duration": 2, "velocity": 90}, {"time": 2789, "pitch": 60, "duration": 2, "velocity": 105}, {"time": 2792, "pitch": 48, "duration": 2, "velocity": 90}, {"time": 2798, "pitch": 40, "duration": 15, "velocity": 88}, {"time": 2798, "pitch": 52, "duration": 5, "velocity": 86}, {"time": 2798, "pitch": 56, "duration": 6, "velocity": 74}, {"time": 2804, "pitch": 47, "duration": 6, "velocity": 75}, {"time": 2810, "pitch": 52, "duration": 2, "velocity": 89}, {"time": 2810, "pitch": 59, "duration": 3, "velocity": 88}, {"time": 2813, "pitch": 47, "duration": 1, "velocity": 86}, {"time": 2816, "pitch": 52, "duration": 3, "velocity": 85}, {"time": 2819, "pitch": 56, "duration": 1, "velocity": 85}, {"time": 2822, "pitch": 45, "duration": 16, "velocity": 86}, {"time": 2822, "pitch": 57, "duration": 6, "velocity": 84}, {"time": 2828, "pitch": 52, "duration": 6, "velocity": 77}, {"time": 2834, "pitch": 57, "duration": 2, "velocity": 84}, {"time": 2834, "pitch": 60, "duration": 3, "velocity": 85}, {"time": 2834, "pitch": 64, "duration": 3, "velocity": 86}, {"time": 2837, "pitch": 52, "duration": 2, "velocity": 81}, {"time": 2840, "pitch": 57, "duration": 3, "velocity": 80}, {"time": 2843, "pitch": 60, "duration": 1, "velocity": 75}, {"time": 2846, "pitch": 43, "duration": 14, "velocity": 84}, {"time": 2846, "pitch": 55, "duration": 6, "velocity": 84}, {"time": 2846, "pitch": 59, "duration": 6, "velocity": 86}, {"time": 2852, "pitch": 50, "duration": 6, "velocity": 77}, {"time": 2858, "pitch": 55, "duration": 7, "velocity": 87}, {"time": 2858, "pitch": 62, "duration": 9, "velocity": 88}, {"time": 2864, "pitch": 50, "duration": 1, "velocity": 85}, {"time": 2870, "pitch": 41, "duration": 7, "velocity": 85}, {"time": 2870, "pitch": 57, "duration": 3, "velocity": 78}, {"time": 2870, "pitch": 60, "duration": 4, "velocity": 80}, {"time": 2876, "pitch": 48, "duration": 1, "velocity": 75}, {"time": 2882, "pitch": 53, "duration": 6, "velocity": 85}, {"time": 2882, "pitch": 57, "duration": 6, "velocity": 86}, {"time": 2882, "pitch": 60, "duration": 7, "velocity": 87}, {"time": 2888, "pitch": 48, "duration": 2, "velocity": 84}, {"time": 2894, "pitch": 43, "duration": 13, "velocity": 86}, {"time": 2894, "pitch": 55, "duration": 5, "velocity": 79}, {"time": 2894, "pitch": 59, "duration": 6, "velocity": 81}, {"time": 2900, "pitch": 50, "duration": 7, "velocity": 72}, {"time": 2906, "pitch": 55, "duration": 6, "velocity": 84}, {"time": 2906, "pitch": 59, "duration": 6, "velocity": 87}, {"time": 2906, "pitch": 62, "duration": 6, "velocity": 84}, {"time": 2912, "pitch": 43, "duration": 4, "velocity": 86}, {"time": 2918, "pitch": 48, "duration": 14, "velocity": 89}, {"time": 2918, "pitch": 55, "duration": 3, "velocity": 81}, {"time": 2918, "pitch": 60, "duration": 6, "velocity": 82}, {"time": 2924, "pitch": 55, "duration": 2, "velocity": 71}, {"time": 2930, "pitch": 55, "duration": 5, "velocity": 88}, {"time": 2930, "pitch": 60, "duration": 6, "velocity": 93}, {"time": 2930, "pitch": 64, "duration": 5, "velocity": 89}, {"time": 2936, "pitch": 48, "duration": 4, "velocity": 84}, {"time": 2939, "pitch": 55, "duration": 1, "velocity": 84}, {"time": 2942, "pitch": 48, "duration": 16, "velocity": 89}, {"time": 2942, "pitch": 55, "duration": 3, "velocity": 84}, {"time": 2942, "pitch": 60, "duration": 6, "velocity": 84}, {"time": 2942, "pitch": 64, "duration": 7, "velocity": 87}, {"time": 2948, "pitch": 55, "duration": 1, "velocity": 84}, {"time": 2954, "pitch": 55, "duration": 3, "velocity": 86}, {"time": 2954, "pitch": 62, "duration": 6, "velocity": 85}, {"time": 2960, "pitch": 60, "duration": 4, "velocity": 89}, {"time": 2966, "pitch": 47, "duration": 14, "velocity": 87}, {"time": 2966, "pitch": 59, "duration": 5, "velocity": 83}, {"time": 2966, "pitch": 62, "duration": 4, "velocity": 81}, {"time": 2972, "pitch": 53, "duration": 6, "velocity": 69}, {"time": 2978, "pitch": 59, "duration": 6, "velocity": 86}, {"time": 2978, "pitch": 65, "duration": 6, "velocity": 86}, {"time": 2984, "pitch": 53, "duration": 1, "velocity": 78}, {"time": 2987, "pitch": 62, "duration": 3, "velocity": 82}, {"time": 2990, "pitch": 40, "duration": 16, "velocity": 87}, {"time": 2990, "pitch": 64, "duration": 2, "velocity": 86}, {"time": 2996, "pitch": 47, "duration": 6, "velocity": 76}, {"time": 2999, "pitch": 50, "duration": 4, "velocity": 84}, {"time": 3002, "pitch": 56, "duration": 3, "velocity": 91}, {"time": 3005, "pitch": 47, "duration": 1, "velocity": 86}, {"time": 3008, "pitch": 52, "duration": 4, "velocity": 86}, {"time": 3011, "pitch": 56, "duration": 2, "velocity": 85}, {"time": 3014, "pitch": 45, "duration": 19, "velocity": 86}, {"time": 3014, "pitch": 57, "duration": 4, "velocity": 85}, {"time": 3020, "pitch": 52, "duration": 6, "velocity": 78}, {"time": 3026, "pitch": 57, "duration": 3, "velocity": 85}, {"time": 3026, "pitch": 60, "duration": 4, "velocity": 91}, {"time": 3029, "pitch": 52, "duration": 4, "velocity": 80}, {"time": 3032, "pitch": 57, "duration": 4, "velocity": 84}, {"time": 3035, "pitch": 60, "duration": 1, "velocity": 80}, {"time": 3038, "pitch": 43, "duration": 16, "velocity": 84}, {"time": 3038, "pitch": 55, "duration": 5, "velocity": 84}, {"time": 3038, "pitch": 59, "duration": 5, "velocity": 87}, {"time": 3044, "pitch": 50, "duration": 6, "velocity": 74}, {"time": 3050, "pitch": 55, "duration": 3, "velocity": 84}, {"time": 3050, "pitch": 59, "duration": 3, "velocity": 87}, {"time": 3050, "pitch": 62, "duration": 3, "velocity": 86}, {"time": 3053, "pitch": 50, "duration": 1, "velocity": 80}, {"time": 3056, "pitch": 55, "duration": 2, "velocity": 85}, {"time": 3062, "pitch": 41, "duration": 15, "velocity": 84}, {"time": 3062, "pitch": 53, "duration": 5, "velocity": 74}, {"time": 3062, "pitch": 57, "duration": 4, "velocity": 74}, {"time": 3068, "pitch": 48, "duration": 6, "velocity": 74}, {"time": 3074, "pitch": 53, "duration": 2, "velocity": 86}, {"time": 3074, "pitch": 57, "duration": 3, "velocity": 89}, {"time": 3074, "pitch": 65, "duration": 4, "velocity": 84}, {"time": 3077, "pitch": 48, "duration": 1, "velocity": 80}, {"time": 3080, "pitch": 53, "duration": 1, "velocity": 88}, {"time": 3086, "pitch": 43, "duration": 22, "velocity": 86}, {"time": 3086, "pitch": 55, "duration": 7, "velocity": 81}, {"time": 3086, "pitch": 62, "duration": 8, "velocity": 79}, {"time": 3092, "pitch": 50, "duration": 15, "velocity": 77}, {"time": 3095, "pitch": 55, "duration": 6, "velocity": 80}, {"time": 3098, "pitch": 59, "duration": 3, "velocity": 84}, {"time": 3101, "pitch": 62, "duration": 4, "velocity": 89}, {"time": 3104, "pitch": 55, "duration": 4, "velocity": 86}, {"time": 3110, "pitch": 44, "duration": 1, "velocity": 90}, {"time": 3110, "pitch": 56, "duration": 1, "velocity": 70}, {"time": 3110, "pitch": 60, "duration": 1, "velocity": 74}, {"time": 3110, "pitch": 63, "duration": 1, "velocity": 72}, {"time": 3116, "pitch": 44, "duration": 14, "velocity": 101}, {"time": 3116, "pitch": 56, "duration": 7, "velocity": 74}, {"time": 3116, "pitch": 60, "duration": 6, "velocity": 85}, {"time": 3116, "pitch": 63, "duration": 7, "velocity": 79}, {"time": 3125, "pitch": 56, "duration": 2, "velocity": 83}, {"time": 3125, "pitch": 60, "duration": 1, "velocity": 84}, {"time": 3125, "pitch": 63, "duration": 1, "velocity": 82}, {"time": 3125, "pitch": 68, "duration": 3, "velocity": 80}, {"time": 3131, "pitch": 56, "duration": 1, "velocity": 66}, {"time": 3134, "pitch": 44, "duration": 13, "velocity": 85}, {"time": 3134, "pitch": 56, "duration": 5, "velocity": 76}, {"time": 3134, "pitch": 60, "duration": 5, "velocity": 83}, {"time": 3134, "pitch": 63, "duration": 5, "velocity": 78}, {"time": 3140, "pitch": 51, "duration": 2, "velocity": 41}, {"time": 3143, "pitch": 56, "duration": 3, "velocity": 78}, {"time": 3143, "pitch": 60, "duration": 2, "velocity": 72}, {"time": 3143, "pitch": 63, "duration": 3, "velocity": 73}, {"time": 3146, "pitch": 51, "duration": 1, "velocity": 54}, {"time": 3149, "pitch": 56, "duration": 5, "velocity": 79}, {"time": 3152, "pitch": 60, "duration": 2, "velocity": 78}, {"time": 3158, "pitch": 46, "duration": 14, "velocity": 80}, {"time": 3158, "pitch": 53, "duration": 4, "velocity": 76}, {"time": 3158, "pitch": 58, "duration": 4, "velocity": 74}, {"time": 3164, "pitch": 53, "duration": 4, "velocity": 76}, {"time": 3164, "pitch": 62, "duration": 3, "velocity": 85}, {"time": 3173, "pitch": 53, "duration": 2, "velocity": 80}, {"time": 3173, "pitch": 58, "duration": 2, "velocity": 84}, {"time": 3179, "pitch": 53, "duration": 1, "velocity": 78}, {"time": 3182, "pitch": 46, "duration": 9, "velocity": 75}, {"time": 3182, "pitch": 53, "duration": 4, "velocity": 73}, {"time": 3182, "pitch": 58, "duration": 6, "velocity": 68}, {"time": 3191, "pitch": 53, "duration": 2, "velocity": 80}, {"time": 3191, "pitch": 58, "duration": 3, "velocity": 85}, {"time": 3191, "pitch": 62, "duration": 2, "velocity": 84}, {"time": 3194, "pitch": 46, "duration": 3, "velocity": 74}, {"time": 3197, "pitch": 53, "duration": 2, "velocity": 83}, {"time": 3197, "pitch": 58, "duration": 3, "velocity": 85}, {"time": 3203, "pitch": 53, "duration": 2, "velocity": 81}, {"time": 3206, "pitch": 44, "duration": 21, "velocity": 88}, {"time": 3209, "pitch": 51, "duration": 7, "velocity": 75}, {"time": 3212, "pitch": 56, "duration": 1, "velocity": 80}, {"time": 3215, "pitch": 56, "duration": 2, "velocity": 83}, {"time": 3215, "pitch": 60, "duration": 1, "velocity": 80}, {"time": 3215, "pitch": 63, "duration": 2, "velocity": 80}, {"time": 3218, "pitch": 51, "duration": 3, "velocity": 59}, {"time": 3221, "pitch": 56, "duration": 2, "velocity": 77}, {"time": 3221, "pitch": 60, "duration": 2, "velocity": 84}, {"time": 3221, "pitch": 63, "duration": 2, "velocity": 78}, {"time": 3227, "pitch": 56, "duration": 1, "velocity": 69}, {"time": 3230, "pitch": 44, "duration": 11, "velocity": 85}, {"time": 3230, "pitch": 56, "duration": 6, "velocity": 73}, {"time": 3230, "pitch": 68, "duration": 5, "velocity": 82}, {"time": 3236, "pitch": 51, "duration": 3, "velocity": 56}, {"time": 3239, "pitch": 56, "duration": 3, "velocity": 82}, {"time": 3239, "pitch": 60, "duration": 2, "velocity": 82}, {"time": 3239, "pitch": 63, "duration": 3, "velocity": 80}, {"time": 3242, "pitch": 51, "duration": 2, "velocity": 72}, {"time": 3245, "pitch": 56, "duration": 2, "velocity": 85}, {"time": 3245, "pitch": 60, "duration": 1, "velocity": 79}, {"time": 3245, "pitch": 63, "duration": 1, "velocity": 73}, {"time": 3254, "pitch": 48, "duration": 47, "velocity": 75}, {"time": 3254, "pitch": 55, "duration": 4, "velocity": 82}, {"time": 3254, "pitch": 60, "duration": 8, "velocity": 83}, {"time": 3260, "pitch": 55, "duration": 3, "velocity": 73}, {"time": 3266, "pitch": 55, "duration": 4, "velocity": 79}, {"time": 3266, "pitch": 64, "duration": 12, "velocity": 85}, {"time": 3272, "pitch": 55, "duration": 7, "velocity": 69}, {"time": 3278, "pitch": 62, "duration": 13, "velocity": 79}, {"time": 3284, "pitch": 55, "duration": 7, "velocity": 66}, {"time": 3290, "pitch": 60, "duration": 10, "velocity": 82}, {"time": 3296, "pitch": 55, "duration": 4, "velocity": 79}, {"time": 3302, "pitch": 47, "duration": 18, "velocity": 76}, {"time": 3302, "pitch": 62, "duration": 13, "velocity": 80}, {"time": 3308, "pitch": 53, "duration": 10, "velocity": 54}, {"time": 3314, "pitch": 65, "duration": 6, "velocity": 83}, {"time": 3320, "pitch": 59, "duration": 7, "velocity": 84}, {"time": 3326, "pitch": 52, "duration": 13, "velocity": 82}, {"time": 3326, "pitch": 64, "duration": 10, "velocity": 83}, {"time": 3332, "pitch": 59, "duration": 6, "velocity": 71}, {"time": 3338, "pitch": 68, "duration": 2, "velocity": 76}, {"time": 3350, "pitch": 45, "duration": 21, "velocity": 70}, {"time": 3350, "pitch": 60, "duration": 9, "velocity": 75}, {"time": 3356, "pitch": 52, "duration": 14, "velocity": 73}, {"time": 3362, "pitch": 64, "duration": 7, "velocity": 84}, {"time": 3368, "pitch": 57, "duration": 3, "velocity": 74}, {"time": 3374, "pitch": 43, "duration": 15, "velocity": 73}, {"time": 3374, "pitch": 59, "duration": 12, "velocity": 80}, {"time": 3380, "pitch": 50, "duration": 9, "velocity": 66}, {"time": 3386, "pitch": 55, "duration": 2, "velocity": 79}, {"time": 3398, "pitch": 41, "duration": 13, "velocity": 77}, {"time": 3398, "pitch": 57, "duration": 12, "velocity": 71}, {"time": 3398, "pitch": 60, "duration": 18, "velocity": 75}, {"time": 3404, "pitch": 48, "duration": 6, "velocity": 65}, {"time": 3410, "pitch": 65, "duration": 10, "velocity": 83}, {"time": 3416, "pitch": 57, "duration": 6, "velocity": 77}, {"time": 3422, "pitch": 43, "duration": 17, "velocity": 84}, {"time": 3428, "pitch": 50, "duration": 8, "velocity": 77}, {"time": 3434, "pitch": 55, "duration": 2, "velocity": 77}, {"time": 3434, "pitch": 59, "duration": 7, "velocity": 75}, {"time": 3434, "pitch": 62, "duration": 6, "velocity": 79}, {"time": 3440, "pitch": 55, "duration": 7, "velocity": 80}, {"time": 3446, "pitch": 48, "duration": 46, "velocity": 80}, {"time": 3446, "pitch": 60, "duration": 12, "velocity": 77}, {"time": 3452, "pitch": 55, "duration": 6, "velocity": 73}, {"time": 3458, "pitch": 64, "duration": 12, "velocity": 85}, {"time": 3464, "pitch": 55, "duration": 6, "velocity": 77}, {"time": 3470, "pitch": 62, "duration": 9, "velocity": 80}, {"time": 3476, "pitch": 55, "duration": 3, "velocity": 74}, {"time": 3482, "pitch": 55, "duration": 3, "velocity": 86}, {"time": 3482, "pitch": 60, "duration": 10, "velocity": 86}, {"time": 3488, "pitch": 55, "duration": 4, "velocity": 84}, {"time": 3494, "pitch": 47, "duration": 16, "velocity": 84}, {"time": 3494, "pitch": 59, "duration": 8, "velocity": 76}, {"time": 3494, "pitch": 65, "duration": 7, "velocity": 79}, {"time": 3500, "pitch": 53, "duration": 9, "velocity": 69}, {"time": 3506, "pitch": 62, "duration": 6, "velocity": 88}, {"time": 3512, "pitch": 59, "duration": 7, "velocity": 83}, {"time": 3518, "pitch": 40, "duration": 14, "velocity": 86}, {"time": 3518, "pitch": 64, "duration": 7, "velocity": 84}, {"time": 3524, "pitch": 47, "duration": 7, "velocity": 66}, {"time": 3530, "pitch": 59, "duration": 3, "velocity": 80}, {"time": 3530, "pitch": 64, "duration": 3, "velocity": 86}, {"time": 3536, "pitch": 62, "duration": 3, "velocity": 79}, {"time": 3542, "pitch": 45, "duration": 17, "velocity": 84}, {"time": 3542, "pitch": 57, "duration": 7, "velocity": 73}, {"time": 3542, "pitch": 60, "duration": 6, "velocity": 74}, {"time": 3548, "pitch": 52, "duration": 7, "velocity": 71}, {"time": 3554, "pitch": 57, "duration": 3, "velocity": 84}, {"time": 3554, "pitch": 64, "duration": 4, "velocity": 85}, {"time": 3557, "pitch": 52, "duration": 2, "velocity": 79}, {"time": 3560, "pitch": 62, "duration": 3, "velocity": 80}, {"time": 3563, "pitch": 60, "duration": 3, "velocity": 78}, {"time": 3566, "pitch": 43, "duration": 16, "velocity": 84}, {"time": 3566, "pitch": 59, "duration": 3, "velocity": 81}, {"time": 3572, "pitch": 50, "duration": 7, "velocity": 70}, {"time": 3578, "pitch": 55, "duration": 2, "velocity": 79}, {"time": 3578, "pitch": 59, "duration": 1, "velocity": 77}, {"time": 3590, "pitch": 41, "duration": 16, "velocity": 79}, {"time": 3590, "pitch": 53, "duration": 12, "velocity": 67}, {"time": 3590, "pitch": 57, "duration": 12, "velocity": 72}, {"time": 3593, "pitch": 48, "duration": 10, "velocity": 68}, {"time": 3602, "pitch": 60, "duration": 5, "velocity": 88}, {"time": 3614, "pitch": 50, "duration": 16, "velocity": 86}, {"time": 3614, "pitch": 57, "duration": 3, "velocity": 77}, {"time": 3614, "pitch": 62, "duration": 8, "velocity": 80}, {"time": 3620, "pitch": 57, "duration": 3, "velocity": 74}, {"time": 3626, "pitch": 57, "duration": 2, "velocity": 83}, {"time": 3626, "pitch": 62, "duration": 5, "velocity": 85}, {"time": 3632, "pitch": 57, "duration": 1, "velocity": 65}, {"time": 3638, "pitch": 43, "duration": 16, "velocity": 86}, {"time": 3638, "pitch": 55, "duration": 2, "velocity": 78}, {"time": 3638, "pitch": 59, "duration": 2, "velocity": 73}, {"time": 3638, "pitch": 62, "duration": 2, "velocity": 80}, {"time": 3644, "pitch": 55, "duration": 6, "velocity": 87}, {"time": 3644, "pitch": 62, "duration": 4, "velocity": 86}, {"time": 3650, "pitch": 50, "duration": 3, "velocity": 85}, {"time": 3653, "pitch": 55, "duration": 3, "velocity": 84}, {"time": 3653, "pitch": 59, "duration": 3, "velocity": 89}, {"time": 3653, "pitch": 62, "duration": 3, "velocity": 88}, {"time": 3653, "pitch": 67, "duration": 3, "velocity": 82}, {"time": 3659, "pitch": 55, "duration": 1, "velocity": 80}, {"time": 3662, "pitch": 43, "duration": 16, "velocity": 86}, {"time": 3662, "pitch": 55, "duration": 6, "velocity": 84}, {"time": 3662, "pitch": 59, "duration": 6, "velocity": 85}, {"time": 3662, "pitch": 62, "duration": 6, "velocity": 85}, {"time": 3668, "pitch": 50, "duration": 7, "velocity": 76}, {"time": 3671, "pitch": 55, "duration": 1, "velocity": 82}, {"time": 3674, "pitch": 55, "duration": 3, "velocity": 85}, {"time": 3674, "pitch": 59, "duration": 3, "velocity": 93}, {"time": 3674, "pitch": 62, "duration": 3, "velocity": 86}, {"time": 3677, "pitch": 50, "duration": 1, "velocity": 91}, {"time": 3680, "pitch": 43, "duration": 2, "velocity": 87}, {"time": 3686, "pitch": 41, "duration": 15, "velocity": 86}, {"time": 3686, "pitch": 53, "duration": 6, "velocity": 80}, {"time": 3686, "pitch": 57, "duration": 5, "velocity": 79}, {"time": 3692, "pitch": 48, "duration": 7, "velocity": 73}, {"time": 3698, "pitch": 53, "duration": 3, "velocity": 85}, {"time": 3698, "pitch": 57, "duration": 4, "velocity": 86}, {"time": 3698, "pitch": 60, "duration": 4, "velocity": 85}, {"time": 3704, "pitch": 48, "duration": 2, "velocity": 85}, {"time": 3707, "pitch": 53, "duration": 2, "velocity": 76}, {"time": 3710, "pitch": 40, "duration": 14, "velocity": 88}, {"time": 3710, "pitch": 59, "duration": 3, "velocity": 79}, {"time": 3713, "pitch": 47, "duration": 7, "velocity": 80}, {"time": 3716, "pitch": 52, "duration": 2, "velocity": 80}, {"time": 3719, "pitch": 52, "duration": 3, "velocity": 79}, {"time": 3719, "pitch": 56, "duration": 4, "velocity": 85}, {"time": 3719, "pitch": 59, "duration": 8, "velocity": 85}, {"time": 3722, "pitch": 47, "duration": 2, "velocity": 86}, {"time": 3725, "pitch": 52, "duration": 4, "velocity": 89}, {"time": 3728, "pitch": 56, "duration": 2, "velocity": 82}, {"time": 3734, "pitch": 45, "duration": 22, "velocity": 84}, {"time": 3734, "pitch": 57, "duration": 7, "velocity": 77}, {"time": 3734, "pitch": 60, "duration": 6, "velocity": 80}, {"time": 3740, "pitch": 52, "duration": 3, "velocity": 71}, {"time": 3743, "pitch": 57, "duration": 3, "velocity": 86}, {"time": 3743, "pitch": 64, "duration": 3, "velocity": 87}, {"time": 3746, "pitch": 52, "duration": 4, "velocity": 80}, {"time": 3749, "pitch": 57, "duration": 1, "velocity": 85}, {"time": 3749, "pitch": 60, "duration": 3, "velocity": 88}, {"time": 3752, "pitch": 52, "duration": 4, "velocity": 82}, {"time": 3755, "pitch": 57, "duration": 2, "velocity": 79}, {"time": 3758, "pitch": 43, "duration": 16, "velocity": 85}, {"time": 3758, "pitch": 55, "duration": 6, "velocity": 81}, {"time": 3758, "pitch": 59, "duration": 6, "velocity": 84}, {"time": 3764, "pitch": 50, "duration": 6, "velocity": 73}, {"time": 3770, "pitch": 55, "duration": 2, "velocity": 88}, {"time": 3770, "pitch": 59, "duration": 3, "velocity": 95}, {"time": 3770, "pitch": 62, "duration": 3, "velocity": 88}, {"time": 3773, "pitch": 50, "duration": 2, "velocity": 84}, {"time": 3776, "pitch": 55, "duration": 3, "velocity": 88}, {"time": 3782, "pitch": 41, "duration": 17, "velocity": 85}, {"time": 3782, "pitch": 53, "duration": 7, "velocity": 81}, {"time": 3782, "pitch": 57, "duration": 6, "velocity": 84}, {"time": 3788, "pitch": 48, "duration": 6, "velocity": 76}, {"time": 3794, "pitch": 53, "duration": 2, "velocity": 88}, {"time": 3794, "pitch": 60, "duration": 3, "velocity": 88}, {"time": 3797, "pitch": 48, "duration": 3, "velocity": 84}, {"time": 3800, "pitch": 53, "duration": 4, "velocity": 85}, {"time": 3803, "pitch": 57, "duration": 3, "velocity": 84}, {"time": 3806, "pitch": 43, "duration": 15, "velocity": 85}, {"time": 3809, "pitch": 50, "duration": 6, "velocity": 76}, {"time": 3812, "pitch": 55, "duration": 5, "velocity": 84}, {"time": 3815, "pitch": 59, "duration": 3, "velocity": 90}, {"time": 3818, "pitch": 50, "duration": 3, "velocity": 86}, {"time": 3821, "pitch": 55, "duration": 3, "velocity": 89}, {"time": 3821, "pitch": 59, "duration": 4, "velocity": 90}, {"time": 3824, "pitch": 43, "duration": 4, "velocity": 85}, {"time": 3827, "pitch": 55, "duration": 1, "velocity": 86}, {"time": 3830, "pitch": 48, "duration": 9, "velocity": 91}, {"time": 3830, "pitch": 55, "duration": 3, "velocity": 84}, {"time": 3830, "pitch": 60, "duration": 4, "velocity": 85}, {"time": 3833, "pitch": 55, "duration": 1, "velocity": 82}, {"time": 3839, "pitch": 48, "duration": 1, "velocity": 86}, {"time": 3839, "pitch": 55, "duration": 3, "velocity": 90}, {"time": 3839, "pitch": 60, "duration": 3, "velocity": 93}, {"time": 3839, "pitch": 64, "duration": 3, "velocity": 93}, {"time": 3845, "pitch": 55, "duration": 3, "velocity": 88}, {"time": 3845, "pitch": 60, "duration": 3, "velocity": 91}, {"time": 3845, "pitch": 64, "duration": 3, "velocity": 91}, {"time": 3848, "pitch": 48, "duration": 3, "velocity": 85}, {"time": 3851, "pitch": 55, "duration": 1, "velocity": 85}, {"time": 3854, "pitch": 48, "duration": 11, "velocity": 89}, {"time": 3854, "pitch": 55, "duration": 3, "velocity": 85}, {"time": 3854, "pitch": 62, "duration": 7, "velocity": 85}, {"time": 3860, "pitch": 55, "duration": 2, "velocity": 76}, {"time": 3863, "pitch": 55, "duration": 3, "velocity": 86}, {"time": 3863, "pitch": 60, "duration": 4, "velocity": 85}, {"time": 3866, "pitch": 48, "duration": 4, "velocity": 85}, {"time": 3869, "pitch": 55, "duration": 2, "velocity": 90}, {"time": 3869, "pitch": 60, "duration": 3, "velocity": 89}, {"time": 3878, "pitch": 47, "duration": 14, "velocity": 87}, {"time": 3878, "pitch": 59, "duration": 3, "velocity": 84}, {"time": 3878, "pitch": 62, "duration": 4, "velocity": 85}, {"time": 3881, "pitch": 53, "duration": 7, "velocity": 78}, {"time": 3884, "pitch": 59, "duration": 2, "velocity": 86}, {"time": 3887, "pitch": 65, "duration": 5, "velocity": 95}, {"time": 3890, "pitch": 53, "duration": 2, "velocity": 85}, {"time": 3893, "pitch": 62, "duration": 2, "velocity": 91}, {"time": 3896, "pitch": 59, "duration": 4, "velocity": 84}, {"time": 3899, "pitch": 62, "duration": 1, "velocity": 81}, {"time": 3902, "pitch": 40, "duration": 19, "velocity": 86}, {"time": 3902, "pitch": 64, "duration": 4, "velocity": 85}, {"time": 3905, "pitch": 47, "duration": 7, "velocity": 78}, {"time": 3908, "pitch": 59, "duration": 1, "velocity": 80}, {"time": 3911, "pitch": 59, "duration": 3, "velocity": 85}, {"time": 3911, "pitch": 64, "duration": 2, "velocity": 90}, {"time": 3914, "pitch": 47, "duration": 6, "velocity": 77}, {"time": 3917, "pitch": 59, "duration": 5, "velocity": 85}, {"time": 3917, "pitch": 68, "duration": 2, "velocity": 95}, {"time": 3926, "pitch": 45, "duration": 16, "velocity": 81}, {"time": 3926, "pitch": 69, "duration": 6, "velocity": 86}, {"time": 3932, "pitch": 52, "duration": 3, "velocity": 78}, {"time": 3935, "pitch": 64, "duration": 4, "velocity": 88}, {"time": 3935, "pitch": 72, "duration": 5, "velocity": 88}, {"time": 3938, "pitch": 52, "duration": 3, "velocity": 84}, {"time": 3941, "pitch": 64, "duration": 2, "velocity": 86}, {"time": 3941, "pitch": 69, "duration": 4, "velocity": 85}, {"time": 3944, "pitch": 45, "duration": 2, "velocity": 82}, {"time": 3947, "pitch": 64, "duration": 1, "velocity": 86}, {"time": 3950, "pitch": 43, "duration": 16, "velocity": 81}, {"time": 3950, "pitch": 62, "duration": 1, "velocity": 65}, {"time": 3950, "pitch": 67, "duration": 6, "velocity": 84}, {"time": 3956, "pitch": 50, "duration": 3, "velocity": 80}, {"time": 3959, "pitch": 62, "duration": 4, "velocity": 85}, {"time": 3959, "pitch": 67, "duration": 4, "velocity": 79}, {"time": 3959, "pitch": 71, "duration": 4, "velocity": 84}, {"time": 3962, "pitch": 50, "duration": 3, "velocity": 84}, {"time": 3965, "pitch": 62, "duration": 2, "velocity": 84}, {"time": 3965, "pitch": 67, "duration": 4, "velocity": 84}, {"time": 3968, "pitch": 43, "duration": 2, "velocity": 84}, {"time": 3968, "pitch": 62, "duration": 2, "velocity": 78}, {"time": 3974, "pitch": 41, "duration": 16, "velocity": 84}, {"time": 3974, "pitch": 60, "duration": 5, "velocity": 84}, {"time": 3974, "pitch": 65, "duration": 6, "velocity": 79}, {"time": 3980, "pitch": 48, "duration": 3, "velocity": 71}, {"time": 3983, "pitch": 60, "duration": 3, "velocity": 89}, {"time": 3983, "pitch": 69, "duration": 4, "velocity": 84}, {"time": 3986, "pitch": 48, "duration": 4, "velocity": 77}, {"time": 3989, "pitch": 65, "duration": 3, "velocity": 86}, {"time": 3992, "pitch": 60, "duration": 2, "velocity": 74}, {"time": 3998, "pitch": 43, "duration": 65, "velocity": 84}, {"time": 3998, "pitch": 67, "duration": 4, "velocity": 77}, {"time": 4004, "pitch": 50, "duration": 58, "velocity": 75}, {"time": 4010, "pitch": 55, "duration": 3, "velocity": 81}, {"time": 4010, "pitch": 59, "duration": 4, "velocity": 81}, {"time": 4016, "pitch": 59, "duration": 1, "velocity": 57}, {"time": 4016, "pitch": 62, "duration": 6, "velocity": 79}, {"time": 4022, "pitch": 67, "duration": 5, "velocity": 79}, {"time": 4028, "pitch": 55, "duration": 4, "velocity": 66}, {"time": 4034, "pitch": 59, "duration": 6, "velocity": 73}, {"time": 4034, "pitch": 62, "duration": 25, "velocity": 68}, {"time": 4070, "pitch": 48, "duration": 22, "velocity": 85}, {"time": 4076, "pitch": 55, "duration": 33, "velocity": 72}, {"time": 4082, "pitch": 60, "duration": 7, "velocity": 85}, {"time": 4088, "pitch": 64, "duration": 13, "velocity": 79}, {"time": 4094, "pitch": 47, "duration": 17, "velocity": 74}, {"time": 4100, "pitch": 59, "duration": 7, "velocity": 76}, {"time": 4106, "pitch": 62, "duration": 2, "velocity": 75}, {"time": 4118, "pitch": 45, "duration": 45, "velocity": 71}, {"time": 4118, "pitch": 60, "duration": 7, "velocity": 71}, {"time": 4124, "pitch": 52, "duration": 37, "velocity": 58}, {"time": 4130, "pitch": 60, "duration": 8, "velocity": 77}, {"time": 4130, "pitch": 64, "duration": 9, "velocity": 77}, {"time": 4136, "pitch": 57, "duration": 5, "velocity": 64}, {"time": 4142, "pitch": 60, "duration": 7, "velocity": 66}, {"time": 4148, "pitch": 57, "duration": 2, "velocity": 61}, {"time": 4154, "pitch": 55, "duration": 3, "velocity": 77}, {"time": 4154, "pitch": 60, "duration": 10, "velocity": 75}, {"time": 4160, "pitch": 55, "duration": 5, "velocity": 80}, {"time": 4166, "pitch": 50, "duration": 21, "velocity": 84}, {"time": 4166, "pitch": 65, "duration": 12, "velocity": 76}, {"time": 4172, "pitch": 57, "duration": 7, "velocity": 78}, {"time": 4178, "pitch": 62, "duration": 6, "velocity": 86}, {"time": 4184, "pitch": 57, "duration": 9, "velocity": 85}, {"time": 4190, "pitch": 43, "duration": 21, "velocity": 84}, {"time": 4196, "pitch": 50, "duration": 13, "velocity": 74}, {"time": 4202, "pitch": 55, "duration": 6, "velocity": 77}, {"time": 4202, "pitch": 62, "duration": 5, "velocity": 78}, {"time": 4214, "pitch": 48, "duration": 20, "velocity": 76}, {"time": 4214, "pitch": 60, "duration": 8, "velocity": 79}, {"time": 4220, "pitch": 55, "duration": 6, "velocity": 77}, {"time": 4226, "pitch": 65, "duration": 9, "velocity": 79}, {"time": 4232, "pitch": 55, "duration": 7, "velocity": 72}, {"time": 4238, "pitch": 48, "duration": 19, "velocity": 80}, {"time": 4238, "pitch": 60, "duration": 8, "velocity": 71}, {"time": 4238, "pitch": 64, "duration": 12, "velocity": 76}], "annotations": [{"time": 73, "annotation": {"number": 64, "value": 127}, "group": "control_change"}, {"time": 82, "annotation": {"number": 64, "value": 0}, "group": "control_change"}, {"time": 88, "annotation": {"number": 64, "value": 127}, "group": "control_change"}, {"time": 88, "annotation": {"number": 64, "value": 0}, "group": "control_change"}, {"time": 107, "annotation": {"number": 64, "value": 0}, "group": "control_change"}, {"time": 114, "annotation": {"number": 64, "value": 127}, "group": "control_change"}, {"time": 114, "annotation": {"number": 64, "value": 0}, "group": "control_change"}, {"time": 155, "annotation": {"number": 64, "value": 0}, "group": "control_change"}, {"time": 163, "annotation": {"number": 64, "value": 127}, "group": "control_change"}, {"time": 163, "annotation": {"number": 64, "value": 0}, "group": "control_change"}, {"time": 181, "annotation": {"number": 64, "value": 0}, "group": "control_change"}, {"time": 188, "annotation": {"number": 64, "value": 127}, "group": "control_change"}, {"time": 188, "annotation": {"number": 64, "value": 0}, "group": "control_change"}, {"time": 205, "annotation": {"number": 64, "value": 0}, "group": "control_change"}, {"time": 212, "annotation": {"number": 64, "value": 127}, "group": "control_change"}, {"time": 253, "annotation": {"number": 64, "value": 0}, "group": "control_change"}, {"time": 265, "annotation": {"number": 64, "value": 127}, "group": "control_change"}, {"time": 274, "annotation": {"number": 64, "value": 0}, "group": "control_change"}, {"time": 280, "annotation": {"number": 64, "value": 127}, "group": "control_change"}, {"time": 280, "annotation": {"number": 64, "value": 0}, "group": "control_change"}, {"time": 299, "annotation": {"number": 64, "value": 0}, "group": "control_change"}, {"time": 306, "annotation": {"number": 64, "value": 127}, "group": "control_change"}, {"time": 306, "annotation": {"number": 64, "value": 0}, "group": "control_change"}, {"time": 347, "annotation": {"number": 64, "value": 0}, "group": "control_change"}, {"time": 351, "annotation": {"number": 64, "value": 127}, "group": "control_change"}, {"time": 373, "annotation": {"number": 64, "value": 0}, "group": "control_change"}, {"time": 378, "annotation": {"number": 64, "value": 127}, "group": "control_change"}, {"time": 396, "annotation": {"number": 64, "value": 0}, "group": "control_change"}, {"time": 400, "annotation": {"number": 64, "value": 127}, "group": "control_change"}, {"time": 444, "annotation": {"number": 64, "value": 0}, "group": "control_change"}, {"time": 446, "annotation": {"number": 64, "value": 127}, "group": "control_change"}, {"time": 493, "annotation": {"number": 64, "value": 0}, "group": "control_change"}, {"time": 495, "annotation": {"number": 64, "value": 127}, "group": "control_change"}, {"time": 541, "annotation": {"number": 64, "value": 0}, "group": "control_change"}, {"time": 544, "annotation": {"number": 64, "value": 127}, "group": "control_change"}, {"time": 585, "annotation": {"number": 64, "value": 0}, "group": "control_change"}, {"time": 590, "annotation": {"number": 64, "value": 127}, "group": "control_change"}, {"time": 637, "annotation": {"number": 64, "value": 0}, "group": "control_change"}, {"time": 640, "annotation": {"number": 64, "value": 127}, "group": "control_change"}, {"time": 662, "annotation": {"number": 64, "value": 0}, "group": "control_change"}, {"time": 664, "annotation": {"number": 64, "value": 127}, "group": "control_change"}, {"time": 685, "annotation": {"number": 64, "value": 0}, "group": "control_change"}, {"time": 687, "annotation": {"number": 64, "value": 127}, "group": "control_change"}, {"time": 711, "annotation": {"number": 64, "value": 0}, "group": "control_change"}, {"time": 714, "annotation": {"number": 64, "value": 127}, "group": "control_change"}, {"time": 732, "annotation": {"number": 64, "value": 0}, "group": "control_change"}, {"time": 735, "annotation": {"number": 64, "value": 127}, "group": "control_change"}, {"time": 757, "annotation": {"number": 64, "value": 0}, "group": "control_change"}, {"time": 761, "annotation": {"number": 64, "value": 127}, "group": "control_change"}, {"time": 781, "annotation": {"number": 64, "value": 0}, "group": "control_change"}, {"time": 782, "annotation": {"number": 64, "value": 127}, "group": "control_change"}, {"time": 828, "annotation": {"number": 64, "value": 0}, "group": "control_change"}, {"time": 830, "annotation": {"number": 64, "value": 127}, "group": "control_change"}, {"time": 876, "annotation": {"number": 64, "value": 0}, "group": "control_change"}, {"time": 880, "annotation": {"number": 64, "value": 127}, "group": "control_change"}, {"time": 924, "annotation": {"number": 64, "value": 0}, "group": "control_change"}, {"time": 927, "annotation": {"number": 64, "value": 127}, "group": "control_change"}, {"time": 971, "annotation": {"number": 64, "value": 0}, "group": "control_change"}, {"time": 974, "annotation": {"number": 64, "value": 127}, "group": "control_change"}, {"time": 1020, "annotation": {"number": 64, "value": 0}, "group": "control_change"}, {"time": 1023, "annotation": {"number": 64, "value": 127}, "group": "control_change"}, {"time": 1043, "annotation": {"number": 64, "value": 0}, "group": "control_change"}, {"time": 1046, "annotation": {"number": 64, "value": 127}, "group": "control_change"}, {"time": 1068, "annotation": {"number": 64, "value": 0}, "group": "control_change"}, {"time": 1071, "annotation": {"number": 64, "value": 127}, "group": "control_change"}, {"time": 1093, "annotation": {"number": 64, "value": 0}, "group": "control_change"}, {"time": 1096, "annotation": {"number": 64, "value": 127}, "group": "control_change"}, {"time": 1117, "annotation": {"number": 64, "value": 0}, "group": "control_change"}, {"time": 1119, "annotation": {"number": 64, "value": 127}, "group": "control_change"}, {"time": 1139, "annotation": {"number": 64, "value": 0}, "group": "control_change"}, {"time": 1142, "annotation": {"number": 64, "value": 127}, "group": "control_change"}, {"time": 1165, "annotation": {"number": 64, "value": 0}, "group": "control_change"}, {"time": 1169, "annotation": {"number": 64, "value": 127}, "group": "control_change"}, {"time": 1211, "annotation": {"number": 64, "value": 0}, "group": "control_change"}, {"time": 1215, "annotation": {"number": 64, "value": 127}, "group": "control_change"}, {"time": 1237, "annotation": {"number": 64, "value": 0}, "group": "control_change"}, {"time": 1239, "annotation": {"number": 64, "value": 127}, "group": "control_change"}, {"time": 1261, "annotation": {"number": 64, "value": 0}, "group": "control_change"}, {"time": 1263, "annotation": {"number": 64, "value": 127}, "group": "control_change"}, {"time": 1284, "annotation": {"number": 64, "value": 0}, "group": "control_change"}, {"time": 1287, "annotation": {"number": 64, "value": 127}, "group": "control_change"}, {"time": 1308, "annotation": {"number": 64, "value": 0}, "group": "control_change"}, {"time": 1310, "annotation": {"number": 64, "value": 127}, "group": "control_change"}, {"time": 1332, "annotation": {"number": 64, "value": 0}, "group": "control_change"}, {"time": 1334, "annotation": {"number": 64, "value": 127}, "group": "control_change"}, {"time": 1354, "annotation": {"number": 64, "value": 0}, "group": "control_change"}, {"time": 1357, "annotation": {"number": 64, "value": 127}, "group": "control_change"}, {"time": 1380, "annotation": {"number": 64, "value": 0}, "group": "control_change"}, {"time": 1381, "annotation": {"number": 64, "value": 127}, "group": "control_change"}, {"time": 1403, "annotation": {"number": 64, "value": 0}, "group": "control_change"}, {"time": 1405, "annotation": {"number": 64, "value": 127}, "group": "control_change"}, {"time": 1427, "annotation": {"number": 64, "value": 0}, "group": "control_change"}, {"time": 1428, "annotation": {"number": 64, "value": 127}, "group": "control_change"}, {"time": 1452, "annotation": {"number": 64, "value": 0}, "group": "control_change"}, {"time": 1454, "annotation": {"number": 64, "value": 127}, "group": "control_change"}, {"time": 1476, "annotation": {"number": 64, "value": 0}, "group": "control_change"}, {"time": 1478, "annotation": {"number": 64, "value": 127}, "group": "control_change"}, {"time": 1500, "annotation": {"number": 64, "value": 0}, "group": "control_change"}, {"time": 1502, "annotation": {"number": 64, "value": 127}, "group": "control_change"}, {"time": 1524, "annotation": {"number": 64, "value": 0}, "group": "control_change"}, {"time": 1526, "annotation": {"number": 64, "value": 127}, "group": "control_change"}, {"time": 1549, "annotation": {"number": 64, "value": 0}, "group": "control_change"}, {"time": 1551, "annotation": {"number": 64, "value": 127}, "group": "control_change"}, {"time": 1572, "annotation": {"number": 64, "value": 0}, "group": "control_change"}, {"time": 1573, "annotation": {"number": 64, "value": 127}, "group": "control_change"}, {"time": 1597, "annotation": {"number": 64, "value": 0}, "group": "control_change"}, {"time": 1599, "annotation": {"number": 64, "value": 127}, "group": "control_change"}, {"time": 1621, "annotation": {"number": 64, "value": 0}, "group": "control_change"}, {"time": 1623, "annotation": {"number": 64, "value": 127}, "group": "control_change"}, {"time": 1645, "annotation": {"number": 64, "value": 0}, "group": "control_change"}, {"time": 1647, "annotation": {"number": 64, "value": 127}, "group": "control_change"}, {"time": 1668, "annotation": {"number": 64, "value": 0}, "group": "control_change"}, {"time": 1671, "annotation": {"number": 64, "value": 127}, "group": "control_change"}, {"time": 1692, "annotation": {"number": 64, "value": 0}, "group": "control_change"}, {"time": 1694, "annotation": {"number": 64, "value": 127}, "group": "control_change"}, {"time": 1716, "annotation": {"number": 64, "value": 0}, "group": "control_change"}, {"time": 1718, "annotation": {"number": 64, "value": 127}, "group": "control_change"}, {"time": 1738, "annotation": {"number": 64, "value": 0}, "group": "control_change"}, {"time": 1741, "annotation": {"number": 64, "value": 127}, "group": "control_change"}, {"time": 1764, "annotation": {"number": 64, "value": 0}, "group": "control_change"}, {"time": 1765, "annotation": {"number": 64, "value": 127}, "group": "control_change"}, {"time": 1787, "annotation": {"number": 64, "value": 0}, "group": "control_change"}, {"time": 1789, "annotation": {"number": 64, "value": 127}, "group": "control_change"}, {"time": 1811, "annotation": {"number": 64, "value": 0}, "group": "control_change"}, {"time": 1812, "annotation": {"number": 64, "value": 127}, "group": "control_change"}, {"time": 1836, "annotation": {"number": 64, "value": 0}, "group": "control_change"}, {"time": 1838, "annotation": {"number": 64, "value": 127}, "group": "control_change"}, {"time": 1860, "annotation": {"number": 64, "value": 0}, "group": "control_change"}, {"time": 1862, "annotation": {"number": 64, "value": 127}, "group": "control_change"}, {"time": 1884, "annotation": {"number": 64, "value": 0}, "group": "control_change"}, {"time": 1886, "annotation": {"number": 64, "value": 127}, "group": "control_change"}, {"time": 1908, "annotation": {"number": 64, "value": 0}, "group": "control_change"}, {"time": 1910, "annotation": {"number": 64, "value": 127}, "group": "control_change"}, {"time": 1910, "annotation": {"number": 64, "value": 0}, "group": "control_change"}, {"time": 1933, "annotation": {"number": 64, "value": 0}, "group": "control_change"}, {"time": 1934, "annotation": {"number": 64, "value": 127}, "group": "control_change"}, {"time": 2001, "annotation": {"number": 64, "value": 0}, "group": "control_change"}, {"time": 2006, "annotation": {"number": 64, "value": 127}, "group": "control_change"}, {"time": 2052, "annotation": {"number": 64, "value": 0}, "group": "control_change"}, {"time": 2056, "annotation": {"number": 64, "value": 127}, "group": "control_change"}, {"time": 2100, "annotation": {"number": 64, "value": 0}, "group": "control_change"}, {"time": 2103, "annotation": {"number": 64, "value": 127}, "group": "control_change"}, {"time": 2147, "annotation": {"number": 64, "value": 0}, "group": "control_change"}, {"time": 2150, "annotation": {"number": 64, "value": 127}, "group": "control_change"}, {"time": 2196, "annotation": {"number": 64, "value": 0}, "group": "control_change"}, {"time": 2199, "annotation": {"number": 64, "value": 127}, "group": "control_change"}, {"time": 2219, "annotation": {"number": 64, "value": 0}, "group": "control_change"}, {"time": 2222, "annotation": {"number": 64, "value": 127}, "group": "control_change"}, {"time": 2244, "annotation": {"number": 64, "value": 0}, "group": "control_change"}, {"time": 2247, "annotation": {"number": 64, "value": 127}, "group": "control_change"}, {"time": 2269, "annotation": {"number": 64, "value": 0}, "group": "control_change"}, {"time": 2272, "annotation": {"number": 64, "value": 127}, "group": "control_change"}, {"time": 2293, "annotation": {"number": 64, "value": 0}, "group": "control_change"}, {"time": 2295, "annotation": {"number": 64, "value": 127}, "group": "control_change"}, {"time": 2315, "annotation": {"number": 64, "value": 0}, "group": "control_change"}, {"time": 2318, "annotation": {"number": 64, "value": 127}, "group": "control_change"}, {"time": 2341, "annotation": {"number": 64, "value": 0}, "group": "control_change"}, {"time": 2345, "annotation": {"number": 64, "value": 127}, "group": "control_change"}, {"time": 2387, "annotation": {"number": 64, "value": 0}, "group": "control_change"}, {"time": 2391, "annotation": {"number": 64, "value": 127}, "group": "control_change"}, {"time": 2413, "annotation": {"number": 64, "value": 0}, "group": "control_change"}, {"time": 2415, "annotation": {"number": 64, "value": 127}, "group": "control_change"}, {"time": 2437, "annotation": {"number": 64, "value": 0}, "group": "control_change"}, {"time": 2439, "annotation": {"number": 64, "value": 127}, "group": "control_change"}, {"time": 2460, "annotation": {"number": 64, "value": 0}, "group": "control_change"}, {"time": 2463, "annotation": {"number": 64, "value": 127}, "group": "control_change"}, {"time": 2484, "annotation": {"number": 64, "value": 0}, "group": "control_change"}, {"time": 2486, "annotation": {"number": 64, "value": 127}, "group": "control_change"}, {"time": 2508, "annotation": {"number": 64, "value": 0}, "group": "control_change"}, {"time": 2510, "annotation": {"number": 64, "value": 127}, "group": "control_change"}, {"time": 2530, "annotation": {"number": 64, "value": 0}, "group": "control_change"}, {"time": 2533, "annotation": {"number": 64, "value": 127}, "group": "control_change"}, {"time": 2556, "annotation": {"number": 64, "value": 0}, "group": "control_change"}, {"time": 2557, "annotation": {"number": 64, "value": 127}, "group": "control_change"}, {"time": 2579, "annotation": {"number": 64, "value": 0}, "group": "control_change"}, {"time": 2581, "annotation": {"number": 64, "value": 127}, "group": "control_change"}, {"time": 2603, "annotation": {"number": 64, "value": 0}, "group": "control_change"}, {"time": 2604, "annotation": {"number": 64, "value": 127}, "group": "control_change"}, {"time": 2628, "annotation": {"number": 64, "value": 0}, "group": "control_change"}, {"time": 2630, "annotation": {"number": 64, "value": 127}, "group": "control_change"}, {"time": 2652, "annotation": {"number": 64, "value": 0}, "group": "control_change"}, {"time": 2654, "annotation": {"number": 64, "value": 127}, "group": "control_change"}, {"time": 2676, "annotation": {"number": 64, "value": 0}, "group": "control_change"}, {"time": 2678, "annotation": {"number": 64, "value": 127}, "group": "control_change"}, {"time": 2700, "annotation": {"number": 64, "value": 0}, "group": "control_change"}, {"time": 2702, "annotation": {"number": 64, "value": 127}, "group": "control_change"}, {"time": 2725, "annotation": {"number": 64, "value": 0}, "group": "control_change"}, {"time": 2727, "annotation": {"number": 64, "value": 127}, "group": "control_change"}, {"time": 2748, "annotation": {"number": 64, "value": 0}, "group": "control_change"}, {"time": 2749, "annotation": {"number": 64, "value": 127}, "group": "control_change"}, {"time": 2773, "annotation": {"number": 64, "value": 0}, "group": "control_change"}, {"time": 2775, "annotation": {"number": 64, "value": 127}, "group": "control_change"}, {"time": 2797, "annotation": {"number": 64, "value": 0}, "group": "control_change"}, {"time": 2799, "annotation": {"number": 64, "value": 127}, "group": "control_change"}, {"time": 2821, "annotation": {"number": 64, "value": 0}, "group": "control_change"}, {"time": 2823, "annotation": {"number": 64, "value": 127}, "group": "control_change"}, {"time": 2844, "annotation": {"number": 64, "value": 0}, "group": "control_change"}, {"time": 2847, "annotation": {"number": 64, "value": 127}, "group": "control_change"}, {"time": 2868, "annotation": {"number": 64, "value": 0}, "group": "control_change"}, {"time": 2870, "annotation": {"number": 64, "value": 127}, "group": "control_change"}, {"time": 2892, "annotation": {"number": 64, "value": 0}, "group": "control_change"}, {"time": 2894, "annotation": {"number": 64, "value": 127}, "group": "control_change"}, {"time": 2914, "annotation": {"number": 64, "value": 0}, "group": "control_change"}, {"time": 2917, "annotation": {"number": 64, "value": 127}, "group": "control_change"}, {"time": 2940, "annotation": {"number": 64, "value": 0}, "group": "control_change"}, {"time": 2941, "annotation": {"number": 64, "value": 127}, "group": "control_change"}, {"time": 2963, "annotation": {"number": 64, "value": 0}, "group": "control_change"}, {"time": 2965, "annotation": {"number": 64, "value": 127}, "group": "control_change"}, {"time": 2987, "annotation": {"number": 64, "value": 0}, "group": "control_change"}, {"time": 2988, "annotation": {"number": 64, "value": 127}, "group": "control_change"}, {"time": 3012, "annotation": {"number": 64, "value": 0}, "group": "control_change"}, {"time": 3014, "annotation": {"number": 64, "value": 127}, "group": "control_change"}, {"time": 3036, "annotation": {"number": 64, "value": 0}, "group": "control_change"}, {"time": 3038, "annotation": {"number": 64, "value": 127}, "group": "control_change"}, {"time": 3060, "annotation": {"number": 64, "value": 0}, "group": "control_change"}, {"time": 3062, "annotation": {"number": 64, "value": 127}, "group": "control_change"}, {"time": 3084, "annotation": {"number": 64, "value": 0}, "group": "control_change"}, {"time": 3086, "annotation": {"number": 64, "value": 127}, "group": "control_change"}, {"time": 3086, "annotation": {"number": 64, "value": 0}, "group": "control_change"}, {"time": 3109, "annotation": {"number": 64, "value": 0}, "group": "control_change"}, {"time": 3110, "annotation": {"number": 64, "value": 0}, "group": "control_change"}, {"time": 3115, "annotation": {"number": 64, "value": 127}, "group": "control_change"}, {"time": 3156, "annotation": {"number": 64, "value": 0}, "group": "control_change"}, {"time": 3158, "annotation": {"number": 64, "value": 127}, "group": "control_change"}, {"time": 3181, "annotation": {"number": 64, "value": 0}, "group": "control_change"}, {"time": 3181, "annotation": {"number": 64, "value": 127}, "group": "control_change"}, {"time": 3203, "annotation": {"number": 64, "value": 0}, "group": "control_change"}, {"time": 3205, "annotation": {"number": 64, "value": 127}, "group": "control_change"}, {"time": 3229, "annotation": {"number": 64, "value": 0}, "group": "control_change"}, {"time": 3230, "annotation": {"number": 64, "value": 127}, "group": "control_change"}, {"time": 3252, "annotation": {"number": 64, "value": 0}, "group": "control_change"}, {"time": 3254, "annotation": {"number": 64, "value": 127}, "group": "control_change"}, {"time": 3296, "annotation": {"number": 64, "value": 0}, "group": "control_change"}, {"time": 3302, "annotation": {"number": 64, "value": 127}, "group": "control_change"}, {"time": 3323, "annotation": {"number": 64, "value": 0}, "group": "control_change"}, {"time": 3327, "annotation": {"number": 64, "value": 127}, "group": "control_change"}, {"time": 3350, "annotation": {"number": 64, "value": 0}, "group": "control_change"}, {"time": 3353, "annotation": {"number": 64, "value": 127}, "group": "control_change"}, {"time": 3373, "annotation": {"number": 64, "value": 0}, "group": "control_change"}, {"time": 3381, "annotation": {"number": 64, "value": 127}, "group": "control_change"}, {"time": 3395, "annotation": {"number": 64, "value": 0}, "group": "control_change"}, {"time": 3400, "annotation": {"number": 64, "value": 127}, "group": "control_change"}, {"time": 3400, "annotation": {"number": 64, "value": 0}, "group": "control_change"}, {"time": 3420, "annotation": {"number": 64, "value": 0}, "group": "control_change"}, {"time": 3424, "annotation": {"number": 64, "value": 127}, "group": "control_change"}, {"time": 3443, "annotation": {"number": 64, "value": 0}, "group": "control_change"}, {"time": 3447, "annotation": {"number": 64, "value": 127}, "group": "control_change"}, {"time": 3448, "annotation": {"number": 64, "value": 0}, "group": "control_change"}, {"time": 3448, "annotation": {"number": 64, "value": 127}, "group": "control_change"}, {"time": 3489, "annotation": {"number": 64, "value": 0}, "group": "control_change"}, {"time": 3493, "annotation": {"number": 64, "value": 127}, "group": "control_change"}, {"time": 3515, "annotation": {"number": 64, "value": 0}, "group": "control_change"}, {"time": 3517, "annotation": {"number": 64, "value": 127}, "group": "control_change"}, {"time": 3539, "annotation": {"number": 64, "value": 0}, "group": "control_change"}, {"time": 3542, "annotation": {"number": 64, "value": 127}, "group": "control_change"}, {"time": 3563, "annotation": {"number": 64, "value": 0}, "group": "control_change"}, {"time": 3566, "annotation": {"number": 64, "value": 127}, "group": "control_change"}, {"time": 3587, "annotation": {"number": 64, "value": 0}, "group": "control_change"}, {"time": 3590, "annotation": {"number": 64, "value": 127}, "group": "control_change"}, {"time": 3613, "annotation": {"number": 64, "value": 0}, "group": "control_change"}, {"time": 3615, "annotation": {"number": 64, "value": 127}, "group": "control_change"}, {"time": 3634, "annotation": {"number": 64, "value": 0}, "group": "control_change"}, {"time": 3637, "annotation": {"number": 64, "value": 127}, "group": "control_change"}, {"time": 3660, "annotation": {"number": 64, "value": 0}, "group": "control_change"}, {"time": 3661, "annotation": {"number": 64, "value": 127}, "group": "control_change"}, {"time": 3683, "annotation": {"number": 64, "value": 0}, "group": "control_change"}, {"time": 3685, "annotation": {"number": 64, "value": 127}, "group": "control_change"}, {"time": 3708, "annotation": {"number": 64, "value": 0}, "group": "control_change"}, {"time": 3710, "annotation": {"number": 64, "value": 127}, "group": "control_change"}, {"time": 3732, "annotation": {"number": 64, "value": 0}, "group": "control_change"}, {"time": 3734, "annotation": {"number": 64, "value": 127}, "group": "control_change"}, {"time": 3756, "annotation": {"number": 64, "value": 0}, "group": "control_change"}, {"time": 3758, "annotation": {"number": 64, "value": 127}, "group": "control_change"}, {"time": 3780, "annotation": {"number": 64, "value": 0}, "group": "control_change"}, {"time": 3783, "annotation": {"number": 64, "value": 127}, "group": "control_change"}, {"time": 3804, "annotation": {"number": 64, "value": 0}, "group": "control_change"}, {"time": 3806, "annotation": {"number": 64, "value": 127}, "group": "control_change"}, {"time": 3827, "annotation": {"number": 64, "value": 0}, "group": "control_change"}, {"time": 3829, "annotation": {"number": 64, "value": 127}, "group": "control_change"}, {"time": 3852, "annotation": {"number": 64, "value": 0}, "group": "control_change"}, {"time": 3852, "annotation": {"number": 64, "value": 127}, "group": "control_change"}, {"time": 3875, "annotation": {"number": 64, "value": 0}, "group": "control_change"}, {"time": 3878, "annotation": {"number": 64, "value": 127}, "group": "control_change"}, {"time": 3899, "annotation": {"number": 64, "value": 0}, "group": "control_change"}, {"time": 3902, "annotation": {"number": 64, "value": 127}, "group": "control_change"}, {"time": 3924, "annotation": {"number": 64, "value": 0}, "group": "control_change"}, {"time": 3926, "annotation": {"number": 64, "value": 127}, "group": "control_change"}, {"time": 3947, "annotation": {"number": 64, "value": 0}, "group": "control_change"}, {"time": 3949, "annotation": {"number": 64, "value": 127}, "group": "control_change"}, {"time": 3971, "annotation": {"number": 64, "value": 0}, "group": "control_change"}, {"time": 3974, "annotation": {"number": 64, "value": 127}, "group": "control_change"}, {"time": 3995, "annotation": {"number": 64, "value": 0}, "group": "control_change"}, {"time": 3997, "annotation": {"number": 64, "value": 127}, "group": "control_change"}, {"time": 4064, "annotation": {"number": 64, "value": 0}, "group": "control_change"}, {"time": 4081, "annotation": {"number": 64, "value": 127}, "group": "control_change"}, {"time": 4090, "annotation": {"number": 64, "value": 0}, "group": "control_change"}, {"time": 4096, "annotation": {"number": 64, "value": 127}, "group": "control_change"}, {"time": 4096, "annotation": {"number": 64, "value": 0}, "group": "control_change"}, {"time": 4115, "annotation": {"number": 64, "value": 0}, "group": "control_change"}, {"time": 4122, "annotation": {"number": 64, "value": 127}, "group": "control_change"}, {"time": 4122, "annotation": {"number": 64, "value": 0}, "group": "control_change"}, {"time": 4163, "annotation": {"number": 64, "value": 0}, "group": "control_change"}, {"time": 4167, "annotation": {"number": 64, "value": 127}, "group": "control_change"}, {"time": 4189, "annotation": {"number": 64, "value": 0}, "group": "control_change"}, {"time": 4194, "annotation": {"number": 64, "value": 127}, "group": "control_change"}, {"time": 4212, "annotation": {"number": 64, "value": 0}, "group": "control_change"}, {"time": 4216, "annotation": {"number": 64, "value": 127}, "group": "control_change"}, {"time": 4260, "annotation": {"number": 64, "value": 0}, "group": "control_change"}]}]}