{"metadata": {"schema_version": "0.2", "title": "None", "source_filename": "825.mid", "source_format": "midi"}, "resolution": 12, "tempos": [{"time": 0, "qpm": 88.00002346667293}, {"time": 1980, "qpm": 87.6499727554668}, {"time": 1980, "qpm": 87.80003833935008}, {"time": 1980, "qpm": 87.85004582844057}, {"time": 2256, "qpm": 88.00002346667293}], "key_signatures": [{"time": 0, "root": 0, "mode": "major"}], "time_signatures": [{"time": 0, "numerator": 4, "denominator": 4}, {"time": 0, "numerator": 1, "denominator": 4}], "tracks": [{"program": 4, "is_drum": false, "name": "MELODY", "notes": [{"time": 505, "pitch": 75, "duration": 5, "velocity": 85}, {"time": 511, "pitch": 73, "duration": 5, "velocity": 85}, {"time": 517, "pitch": 75, "duration": 6, "velocity": 85}, {"time": 523, "pitch": 78, "duration": 15, "velocity": 85}, {"time": 541, "pitch": 73, "duration": 7, "velocity": 85}, {"time": 550, "pitch": 75, "duration": 2, "velocity": 85}, {"time": 553, "pitch": 73, "duration": 5, "velocity": 86}, {"time": 559, "pitch": 71, "duration": 27, "velocity": 84}, {"time": 601, "pitch": 75, "duration": 5, "velocity": 85}, {"time": 607, "pitch": 73, "duration": 5, "velocity": 85}, {"time": 613, "pitch": 75, "duration": 6, "velocity": 85}, {"time": 619, "pitch": 78, "duration": 15, "velocity": 85}, {"time": 637, "pitch": 75, "duration": 5, "velocity": 86}, {"time": 643, "pitch": 78, "duration": 5, "velocity": 84}, {"time": 649, "pitch": 80, "duration": 24, "velocity": 85}, {"time": 673, "pitch": 78, "duration": 16, "velocity": 84}, {"time": 691, "pitch": 75, "duration": 5, "velocity": 86}, {"time": 697, "pitch": 73, "duration": 4, "velocity": 85}, {"time": 703, "pitch": 75, "duration": 4, "velocity": 84}, {"time": 709, "pitch": 73, "duration": 4, "velocity": 85}, {"time": 715, "pitch": 71, "duration": 5, "velocity": 84}, {"time": 721, "pitch": 68, "duration": 13, "velocity": 84}, {"time": 739, "pitch": 80, "duration": 4, "velocity": 79}, {"time": 745, "pitch": 78, "duration": 5, "velocity": 83}, {"time": 751, "pitch": 75, "duration": 22, "velocity": 86}, {"time": 787, "pitch": 75, "duration": 4, "velocity": 82}, {"time": 793, "pitch": 73, "duration": 4, "velocity": 85}, {"time": 799, "pitch": 73, "duration": 4, "velocity": 87}, {"time": 805, "pitch": 73, "duration": 4, "velocity": 89}, {"time": 811, "pitch": 71, "duration": 5, "velocity": 82}, {"time": 817, "pitch": 68, "duration": 15, "velocity": 85}, {"time": 835, "pitch": 78, "duration": 12, "velocity": 85}, {"time": 847, "pitch": 73, "duration": 30, "velocity": 86}, {"time": 889, "pitch": 75, "duration": 5, "velocity": 85}, {"time": 895, "pitch": 73, "duration": 5, "velocity": 85}, {"time": 901, "pitch": 75, "duration": 6, "velocity": 85}, {"time": 907, "pitch": 78, "duration": 15, "velocity": 85}, {"time": 925, "pitch": 73, "duration": 7, "velocity": 85}, {"time": 934, "pitch": 75, "duration": 2, "velocity": 85}, {"time": 937, "pitch": 73, "duration": 5, "velocity": 86}, {"time": 943, "pitch": 71, "duration": 27, "velocity": 84}, {"time": 985, "pitch": 75, "duration": 5, "velocity": 85}, {"time": 991, "pitch": 73, "duration": 5, "velocity": 85}, {"time": 997, "pitch": 75, "duration": 6, "velocity": 85}, {"time": 1003, "pitch": 78, "duration": 15, "velocity": 85}, {"time": 1021, "pitch": 75, "duration": 5, "velocity": 86}, {"time": 1027, "pitch": 78, "duration": 5, "velocity": 84}, {"time": 1033, "pitch": 80, "duration": 24, "velocity": 85}, {"time": 1057, "pitch": 78, "duration": 16, "velocity": 84}, {"time": 1075, "pitch": 75, "duration": 5, "velocity": 86}, {"time": 1081, "pitch": 73, "duration": 4, "velocity": 85}, {"time": 1087, "pitch": 75, "duration": 4, "velocity": 84}, {"time": 1093, "pitch": 73, "duration": 4, "velocity": 85}, {"time": 1099, "pitch": 71, "duration": 5, "velocity": 84}, {"time": 1105, "pitch": 68, "duration": 13, "velocity": 84}, {"time": 1123, "pitch": 80, "duration": 4, "velocity": 79}, {"time": 1129, "pitch": 78, "duration": 5, "velocity": 83}, {"time": 1135, "pitch": 75, "duration": 22, "velocity": 86}, {"time": 1171, "pitch": 75, "duration": 4, "velocity": 82}, {"time": 1177, "pitch": 73, "duration": 4, "velocity": 85}, {"time": 1183, "pitch": 73, "duration": 4, "velocity": 87}, {"time": 1189, "pitch": 73, "duration": 4, "velocity": 89}, {"time": 1195, "pitch": 71, "duration": 5, "velocity": 82}, {"time": 1201, "pitch": 68, "duration": 15, "velocity": 85}, {"time": 1213, "pitch": 80, "duration": 12, "velocity": 85}, {"time": 1225, "pitch": 78, "duration": 18, "velocity": 86}, {"time": 1243, "pitch": 78, "duration": 5, "velocity": 86}, {"time": 1249, "pitch": 83, "duration": 5, "velocity": 85}, {"time": 1255, "pitch": 82, "duration": 6, "velocity": 84}, {"time": 1261, "pitch": 78, "duration": 5, "velocity": 84}, {"time": 1267, "pitch": 73, "duration": 5, "velocity": 88}, {"time": 1273, "pitch": 75, "duration": 5, "velocity": 84}, {"time": 1279, "pitch": 75, "duration": 4, "velocity": 84}, {"time": 1285, "pitch": 75, "duration": 5, "velocity": 84}, {"time": 1291, "pitch": 73, "duration": 6, "velocity": 84}, {"time": 1297, "pitch": 75, "duration": 15, "velocity": 84}, {"time": 1315, "pitch": 78, "duration": 10, "velocity": 83}, {"time": 1327, "pitch": 78, "duration": 9, "velocity": 86}, {"time": 1351, "pitch": 75, "duration": 4, "velocity": 84}, {"time": 1357, "pitch": 75, "duration": 4, "velocity": 87}, {"time": 1363, "pitch": 78, "duration": 5, "velocity": 81}, {"time": 1369, "pitch": 83, "duration": 5, "velocity": 86}, {"time": 1375, "pitch": 82, "duration": 4, "velocity": 83}, {"time": 1381, "pitch": 80, "duration": 3, "velocity": 83}, {"time": 1387, "pitch": 78, "duration": 5, "velocity": 84}, {"time": 1393, "pitch": 75, "duration": 15, "velocity": 85}, {"time": 1411, "pitch": 73, "duration": 6, "velocity": 84}, {"time": 1417, "pitch": 75, "duration": 18, "velocity": 84}, {"time": 1453, "pitch": 75, "duration": 5, "velocity": 85}, {"time": 1459, "pitch": 73, "duration": 4, "velocity": 88}, {"time": 1465, "pitch": 75, "duration": 5, "velocity": 87}, {"time": 1471, "pitch": 78, "duration": 25, "velocity": 85}, {"time": 1501, "pitch": 75, "duration": 7, "velocity": 88}, {"time": 1510, "pitch": 75, "duration": 2, "velocity": 84}, {"time": 1513, "pitch": 73, "duration": 5, "velocity": 90}, {"time": 1519, "pitch": 71, "duration": 28, "velocity": 85}, {"time": 1555, "pitch": 71, "duration": 5, "velocity": 86}, {"time": 1561, "pitch": 80, "duration": 9, "velocity": 84}, {"time": 1573, "pitch": 80, "duration": 4, "velocity": 85}, {"time": 1579, "pitch": 78, "duration": 4, "velocity": 79}, {"time": 1585, "pitch": 80, "duration": 4, "velocity": 85}, {"time": 1591, "pitch": 78, "duration": 9, "velocity": 83}, {"time": 1603, "pitch": 75, "duration": 4, "velocity": 85}, {"time": 1609, "pitch": 73, "duration": 15, "velocity": 86}, {"time": 1627, "pitch": 78, "duration": 5, "velocity": 86}, {"time": 1633, "pitch": 83, "duration": 5, "velocity": 85}, {"time": 1639, "pitch": 82, "duration": 6, "velocity": 84}, {"time": 1645, "pitch": 78, "duration": 5, "velocity": 84}, {"time": 1651, "pitch": 73, "duration": 5, "velocity": 88}, {"time": 1657, "pitch": 75, "duration": 5, "velocity": 84}, {"time": 1663, "pitch": 75, "duration": 4, "velocity": 84}, {"time": 1669, "pitch": 75, "duration": 5, "velocity": 84}, {"time": 1675, "pitch": 73, "duration": 6, "velocity": 84}, {"time": 1681, "pitch": 75, "duration": 15, "velocity": 84}, {"time": 1699, "pitch": 78, "duration": 10, "velocity": 83}, {"time": 1711, "pitch": 78, "duration": 9, "velocity": 86}, {"time": 1735, "pitch": 75, "duration": 4, "velocity": 84}, {"time": 1741, "pitch": 75, "duration": 4, "velocity": 87}, {"time": 1747, "pitch": 78, "duration": 5, "velocity": 81}, {"time": 1753, "pitch": 83, "duration": 5, "velocity": 86}, {"time": 1759, "pitch": 82, "duration": 4, "velocity": 83}, {"time": 1765, "pitch": 80, "duration": 3, "velocity": 83}, {"time": 1771, "pitch": 78, "duration": 5, "velocity": 84}, {"time": 1777, "pitch": 75, "duration": 15, "velocity": 85}, {"time": 1795, "pitch": 73, "duration": 6, "velocity": 84}, {"time": 1801, "pitch": 75, "duration": 18, "velocity": 84}, {"time": 1837, "pitch": 75, "duration": 5, "velocity": 85}, {"time": 1843, "pitch": 73, "duration": 4, "velocity": 88}, {"time": 1849, "pitch": 75, "duration": 5, "velocity": 87}, {"time": 1855, "pitch": 78, "duration": 25, "velocity": 85}, {"time": 1885, "pitch": 73, "duration": 7, "velocity": 88}, {"time": 1894, "pitch": 75, "duration": 2, "velocity": 84}, {"time": 1897, "pitch": 73, "duration": 5, "velocity": 90}, {"time": 1903, "pitch": 71, "duration": 28, "velocity": 85}, {"time": 1939, "pitch": 71, "duration": 5, "velocity": 86}, {"time": 1945, "pitch": 68, "duration": 9, "velocity": 84}, {"time": 1957, "pitch": 71, "duration": 6, "velocity": 85}, {"time": 1963, "pitch": 80, "duration": 6, "velocity": 79}, {"time": 1969, "pitch": 78, "duration": 12, "velocity": 83}, {"time": 1981, "pitch": 75, "duration": 6, "velocity": 85}, {"time": 1987, "pitch": 73, "duration": 6, "velocity": 85}, {"time": 1993, "pitch": 71, "duration": 24, "velocity": 86}, {"time": 2473, "pitch": 75, "duration": 5, "velocity": 85}, {"time": 2479, "pitch": 73, "duration": 5, "velocity": 85}, {"time": 2485, "pitch": 75, "duration": 6, "velocity": 85}, {"time": 2491, "pitch": 78, "duration": 15, "velocity": 85}, {"time": 2509, "pitch": 73, "duration": 7, "velocity": 85}, {"time": 2518, "pitch": 75, "duration": 2, "velocity": 85}, {"time": 2521, "pitch": 73, "duration": 5, "velocity": 86}, {"time": 2527, "pitch": 71, "duration": 27, "velocity": 84}, {"time": 2569, "pitch": 75, "duration": 5, "velocity": 85}, {"time": 2575, "pitch": 73, "duration": 5, "velocity": 85}, {"time": 2581, "pitch": 75, "duration": 6, "velocity": 85}, {"time": 2587, "pitch": 78, "duration": 15, "velocity": 85}, {"time": 2605, "pitch": 75, "duration": 5, "velocity": 86}, {"time": 2611, "pitch": 78, "duration": 5, "velocity": 84}, {"time": 2617, "pitch": 80, "duration": 24, "velocity": 85}, {"time": 2641, "pitch": 78, "duration": 16, "velocity": 84}, {"time": 2659, "pitch": 75, "duration": 5, "velocity": 86}, {"time": 2665, "pitch": 73, "duration": 4, "velocity": 85}, {"time": 2671, "pitch": 75, "duration": 4, "velocity": 84}, {"time": 2677, "pitch": 73, "duration": 4, "velocity": 85}, {"time": 2683, "pitch": 71, "duration": 5, "velocity": 84}, {"time": 2689, "pitch": 68, "duration": 13, "velocity": 84}, {"time": 2707, "pitch": 80, "duration": 4, "velocity": 79}, {"time": 2713, "pitch": 78, "duration": 5, "velocity": 83}, {"time": 2719, "pitch": 75, "duration": 22, "velocity": 86}, {"time": 2755, "pitch": 75, "duration": 4, "velocity": 82}, {"time": 2761, "pitch": 73, "duration": 4, "velocity": 85}, {"time": 2767, "pitch": 73, "duration": 4, "velocity": 87}, {"time": 2773, "pitch": 73, "duration": 4, "velocity": 89}, {"time": 2779, "pitch": 71, "duration": 5, "velocity": 82}, {"time": 2785, "pitch": 68, "duration": 15, "velocity": 85}, {"time": 2797, "pitch": 80, "duration": 12, "velocity": 85}, {"time": 2809, "pitch": 78, "duration": 18, "velocity": 86}, {"time": 2827, "pitch": 78, "duration": 5, "velocity": 86}, {"time": 2833, "pitch": 83, "duration": 5, "velocity": 85}, {"time": 2839, "pitch": 82, "duration": 6, "velocity": 84}, {"time": 2845, "pitch": 78, "duration": 5, "velocity": 84}, {"time": 2851, "pitch": 73, "duration": 5, "velocity": 88}, {"time": 2857, "pitch": 75, "duration": 5, "velocity": 84}, {"time": 2863, "pitch": 75, "duration": 4, "velocity": 84}, {"time": 2869, "pitch": 75, "duration": 5, "velocity": 84}, {"time": 2875, "pitch": 73, "duration": 6, "velocity": 84}, {"time": 2881, "pitch": 75, "duration": 15, "velocity": 84}, {"time": 2899, "pitch": 78, "duration": 10, "velocity": 83}, {"time": 2911, "pitch": 78, "duration": 9, "velocity": 86}, {"time": 2935, "pitch": 75, "duration": 4, "velocity": 84}, {"time": 2941, "pitch": 75, "duration": 4, "velocity": 87}, {"time": 2947, "pitch": 78, "duration": 5, "velocity": 81}, {"time": 2953, "pitch": 83, "duration": 5, "velocity": 86}, {"time": 2959, "pitch": 82, "duration": 4, "velocity": 83}, {"time": 2965, "pitch": 80, "duration": 3, "velocity": 83}, {"time": 2971, "pitch": 78, "duration": 5, "velocity": 84}, {"time": 2977, "pitch": 75, "duration": 15, "velocity": 85}, {"time": 2995, "pitch": 73, "duration": 6, "velocity": 84}, {"time": 3001, "pitch": 75, "duration": 18, "velocity": 84}, {"time": 3037, "pitch": 75, "duration": 5, "velocity": 85}, {"time": 3043, "pitch": 73, "duration": 4, "velocity": 88}, {"time": 3049, "pitch": 75, "duration": 5, "velocity": 87}, {"time": 3055, "pitch": 78, "duration": 25, "velocity": 85}, {"time": 3085, "pitch": 73, "duration": 7, "velocity": 88}, {"time": 3094, "pitch": 75, "duration": 2, "velocity": 84}, {"time": 3097, "pitch": 73, "duration": 5, "velocity": 90}, {"time": 3103, "pitch": 71, "duration": 28, "velocity": 85}, {"time": 3139, "pitch": 71, "duration": 5, "velocity": 86}, {"time": 3145, "pitch": 80, "duration": 9, "velocity": 84}, {"time": 3157, "pitch": 80, "duration": 4, "velocity": 85}, {"time": 3163, "pitch": 78, "duration": 4, "velocity": 79}, {"time": 3169, "pitch": 80, "duration": 4, "velocity": 85}, {"time": 3175, "pitch": 78, "duration": 9, "velocity": 83}, {"time": 3187, "pitch": 75, "duration": 4, "velocity": 85}, {"time": 3193, "pitch": 73, "duration": 15, "velocity": 86}, {"time": 3211, "pitch": 78, "duration": 5, "velocity": 86}, {"time": 3217, "pitch": 83, "duration": 5, "velocity": 85}, {"time": 3223, "pitch": 82, "duration": 6, "velocity": 84}, {"time": 3229, "pitch": 78, "duration": 5, "velocity": 84}, {"time": 3235, "pitch": 73, "duration": 5, "velocity": 88}, {"time": 3241, "pitch": 75, "duration": 5, "velocity": 84}, {"time": 3247, "pitch": 75, "duration": 4, "velocity": 84}, {"time": 3253, "pitch": 75, "duration": 5, "velocity": 84}, {"time": 3259, "pitch": 73, "duration": 6, "velocity": 84}, {"time": 3265, "pitch": 75, "duration": 15, "velocity": 84}, {"time": 3283, "pitch": 78, "duration": 10, "velocity": 83}, {"time": 3295, "pitch": 78, "duration": 9, "velocity": 86}, {"time": 3319, "pitch": 75, "duration": 4, "velocity": 84}, {"time": 3325, "pitch": 75, "duration": 4, "velocity": 87}, {"time": 3331, "pitch": 78, "duration": 5, "velocity": 81}, {"time": 3337, "pitch": 83, "duration": 5, "velocity": 86}, {"time": 3343, "pitch": 82, "duration": 4, "velocity": 83}, {"time": 3349, "pitch": 80, "duration": 3, "velocity": 83}, {"time": 3355, "pitch": 78, "duration": 5, "velocity": 84}, {"time": 3361, "pitch": 75, "duration": 15, "velocity": 85}, {"time": 3379, "pitch": 73, "duration": 6, "velocity": 84}, {"time": 3385, "pitch": 75, "duration": 18, "velocity": 84}, {"time": 3421, "pitch": 75, "duration": 5, "velocity": 85}, {"time": 3427, "pitch": 73, "duration": 4, "velocity": 88}, {"time": 3433, "pitch": 75, "duration": 5, "velocity": 87}, {"time": 3439, "pitch": 78, "duration": 25, "velocity": 85}, {"time": 3469, "pitch": 73, "duration": 7, "velocity": 88}, {"time": 3478, "pitch": 75, "duration": 2, "velocity": 84}, {"time": 3481, "pitch": 73, "duration": 5, "velocity": 90}, {"time": 3487, "pitch": 71, "duration": 28, "velocity": 85}, {"time": 3523, "pitch": 71, "duration": 5, "velocity": 86}, {"time": 3529, "pitch": 68, "duration": 9, "velocity": 84}, {"time": 3541, "pitch": 71, "duration": 6, "velocity": 85}, {"time": 3547, "pitch": 80, "duration": 6, "velocity": 79}, {"time": 3553, "pitch": 78, "duration": 12, "velocity": 83}, {"time": 3565, "pitch": 75, "duration": 6, "velocity": 85}, {"time": 3571, "pitch": 73, "duration": 6, "velocity": 85}, {"time": 3577, "pitch": 71, "duration": 24, "velocity": 86}, {"time": 3691, "pitch": 79, "duration": 5, "velocity": 86}, {"time": 3697, "pitch": 84, "duration": 5, "velocity": 85}, {"time": 3703, "pitch": 83, "duration": 6, "velocity": 84}, {"time": 3709, "pitch": 79, "duration": 5, "velocity": 84}, {"time": 3715, "pitch": 74, "duration": 5, "velocity": 88}, {"time": 3721, "pitch": 76, "duration": 5, "velocity": 84}, {"time": 3727, "pitch": 76, "duration": 4, "velocity": 84}, {"time": 3733, "pitch": 76, "duration": 5, "velocity": 84}, {"time": 3739, "pitch": 74, "duration": 6, "velocity": 84}, {"time": 3745, "pitch": 76, "duration": 15, "velocity": 84}, {"time": 3763, "pitch": 79, "duration": 10, "velocity": 83}, {"time": 3775, "pitch": 79, "duration": 9, "velocity": 86}, {"time": 3799, "pitch": 76, "duration": 4, "velocity": 84}, {"time": 3805, "pitch": 76, "duration": 4, "velocity": 87}, {"time": 3811, "pitch": 79, "duration": 5, "velocity": 81}, {"time": 3817, "pitch": 84, "duration": 5, "velocity": 86}, {"time": 3823, "pitch": 83, "duration": 4, "velocity": 83}, {"time": 3829, "pitch": 81, "duration": 3, "velocity": 83}, {"time": 3835, "pitch": 79, "duration": 5, "velocity": 84}, {"time": 3841, "pitch": 76, "duration": 15, "velocity": 85}, {"time": 3859, "pitch": 74, "duration": 6, "velocity": 84}, {"time": 3865, "pitch": 76, "duration": 18, "velocity": 84}, {"time": 3901, "pitch": 76, "duration": 5, "velocity": 85}, {"time": 3907, "pitch": 74, "duration": 4, "velocity": 88}, {"time": 3913, "pitch": 76, "duration": 5, "velocity": 87}, {"time": 3919, "pitch": 79, "duration": 25, "velocity": 85}, {"time": 3949, "pitch": 74, "duration": 7, "velocity": 88}, {"time": 3958, "pitch": 76, "duration": 2, "velocity": 84}, {"time": 3961, "pitch": 74, "duration": 5, "velocity": 90}, {"time": 3967, "pitch": 72, "duration": 28, "velocity": 85}, {"time": 4003, "pitch": 72, "duration": 5, "velocity": 86}, {"time": 4009, "pitch": 81, "duration": 9, "velocity": 84}, {"time": 4021, "pitch": 81, "duration": 4, "velocity": 85}, {"time": 4027, "pitch": 79, "duration": 4, "velocity": 79}, {"time": 4033, "pitch": 81, "duration": 4, "velocity": 85}, {"time": 4039, "pitch": 79, "duration": 9, "velocity": 83}, {"time": 4051, "pitch": 76, "duration": 4, "velocity": 85}, {"time": 4057, "pitch": 74, "duration": 15, "velocity": 86}, {"time": 4075, "pitch": 79, "duration": 5, "velocity": 86}, {"time": 4081, "pitch": 84, "duration": 5, "velocity": 85}, {"time": 4087, "pitch": 83, "duration": 6, "velocity": 84}, {"time": 4093, "pitch": 79, "duration": 5, "velocity": 84}, {"time": 4099, "pitch": 74, "duration": 5, "velocity": 88}, {"time": 4105, "pitch": 76, "duration": 5, "velocity": 84}, {"time": 4111, "pitch": 76, "duration": 4, "velocity": 84}, {"time": 4117, "pitch": 76, "duration": 5, "velocity": 84}, {"time": 4123, "pitch": 74, "duration": 6, "velocity": 84}, {"time": 4129, "pitch": 76, "duration": 15, "velocity": 84}, {"time": 4147, "pitch": 79, "duration": 10, "velocity": 83}, {"time": 4159, "pitch": 79, "duration": 9, "velocity": 86}, {"time": 4183, "pitch": 76, "duration": 4, "velocity": 84}, {"time": 4189, "pitch": 76, "duration": 4, "velocity": 87}, {"time": 4195, "pitch": 79, "duration": 5, "velocity": 81}, {"time": 4201, "pitch": 84, "duration": 5, "velocity": 86}, {"time": 4207, "pitch": 83, "duration": 4, "velocity": 83}, {"time": 4213, "pitch": 81, "duration": 3, "velocity": 83}, {"time": 4219, "pitch": 79, "duration": 5, "velocity": 84}, {"time": 4225, "pitch": 76, "duration": 15, "velocity": 85}, {"time": 4243, "pitch": 74, "duration": 6, "velocity": 84}, {"time": 4249, "pitch": 76, "duration": 18, "velocity": 84}, {"time": 4285, "pitch": 76, "duration": 5, "velocity": 85}, {"time": 4291, "pitch": 74, "duration": 4, "velocity": 88}, {"time": 4297, "pitch": 76, "duration": 5, "velocity": 87}, {"time": 4303, "pitch": 79, "duration": 25, "velocity": 85}, {"time": 4333, "pitch": 74, "duration": 7, "velocity": 88}, {"time": 4342, "pitch": 76, "duration": 2, "velocity": 84}, {"time": 4345, "pitch": 74, "duration": 5, "velocity": 90}, {"time": 4351, "pitch": 72, "duration": 28, "velocity": 85}, {"time": 4387, "pitch": 72, "duration": 5, "velocity": 86}, {"time": 4393, "pitch": 69, "duration": 9, "velocity": 84}, {"time": 4405, "pitch": 72, "duration": 6, "velocity": 85}, {"time": 4411, "pitch": 81, "duration": 6, "velocity": 79}, {"time": 4417, "pitch": 79, "duration": 12, "velocity": 83}, {"time": 4429, "pitch": 76, "duration": 6, "velocity": 85}, {"time": 4435, "pitch": 74, "duration": 6, "velocity": 85}, {"time": 4441, "pitch": 72, "duration": 24, "velocity": 86}]}, {"program": 0, "is_drum": false, "name": "PIANO", "notes": [{"time": 25, "pitch": 47, "duration": 45, "velocity": 85}, {"time": 31, "pitch": 54, "duration": 38, "velocity": 72}, {"time": 37, "pitch": 61, "duration": 4, "velocity": 74}, {"time": 43, "pitch": 59, "duration": 3, "velocity": 72}, {"time": 43, "pitch": 66, "duration": 3, "velocity": 82}, {"time": 73, "pitch": 47, "duration": 44, "velocity": 86}, {"time": 79, "pitch": 54, "duration": 37, "velocity": 70}, {"time": 85, "pitch": 61, "duration": 3, "velocity": 73}, {"time": 91, "pitch": 59, "duration": 33, "velocity": 78}, {"time": 91, "pitch": 64, "duration": 34, "velocity": 80}, {"time": 121, "pitch": 44, "duration": 41, "velocity": 85}, {"time": 127, "pitch": 51, "duration": 36, "velocity": 77}, {"time": 133, "pitch": 54, "duration": 34, "velocity": 83}, {"time": 139, "pitch": 59, "duration": 25, "velocity": 85}, {"time": 139, "pitch": 63, "duration": 28, "velocity": 85}, {"time": 169, "pitch": 42, "duration": 42, "velocity": 84}, {"time": 175, "pitch": 49, "duration": 33, "velocity": 77}, {"time": 181, "pitch": 54, "duration": 24, "velocity": 85}, {"time": 187, "pitch": 61, "duration": 20, "velocity": 84}, {"time": 217, "pitch": 40, "duration": 37, "velocity": 84}, {"time": 217, "pitch": 56, "duration": 7, "velocity": 76}, {"time": 217, "pitch": 59, "duration": 15, "velocity": 78}, {"time": 223, "pitch": 47, "duration": 30, "velocity": 70}, {"time": 229, "pitch": 56, "duration": 16, "velocity": 74}, {"time": 235, "pitch": 59, "duration": 1, "velocity": 62}, {"time": 235, "pitch": 64, "duration": 23, "velocity": 84}, {"time": 265, "pitch": 39, "duration": 39, "velocity": 85}, {"time": 265, "pitch": 58, "duration": 12, "velocity": 77}, {"time": 265, "pitch": 63, "duration": 13, "velocity": 84}, {"time": 271, "pitch": 46, "duration": 32, "velocity": 69}, {"time": 277, "pitch": 54, "duration": 7, "velocity": 74}, {"time": 283, "pitch": 58, "duration": 16, "velocity": 84}, {"time": 301, "pitch": 63, "duration": 7, "velocity": 86}, {"time": 313, "pitch": 49, "duration": 12, "velocity": 83}, {"time": 313, "pitch": 56, "duration": 4, "velocity": 73}, {"time": 313, "pitch": 61, "duration": 12, "velocity": 79}, {"time": 325, "pitch": 51, "duration": 9, "velocity": 83}, {"time": 325, "pitch": 58, "duration": 10, "velocity": 75}, {"time": 325, "pitch": 63, "duration": 10, "velocity": 81}, {"time": 337, "pitch": 52, "duration": 18, "velocity": 81}, {"time": 337, "pitch": 64, "duration": 36, "velocity": 77}, {"time": 361, "pitch": 42, "duration": 43, "velocity": 84}, {"time": 367, "pitch": 49, "duration": 36, "velocity": 74}, {"time": 373, "pitch": 54, "duration": 18, "velocity": 85}, {"time": 379, "pitch": 61, "duration": 28, "velocity": 78}, {"time": 391, "pitch": 66, "duration": 10, "velocity": 74}, {"time": 397, "pitch": 54, "duration": 19, "velocity": 73}, {"time": 409, "pitch": 47, "duration": 42, "velocity": 85}, {"time": 415, "pitch": 54, "duration": 1, "velocity": 78}, {"time": 421, "pitch": 61, "duration": 7, "velocity": 79}, {"time": 427, "pitch": 63, "duration": 6, "velocity": 79}, {"time": 439, "pitch": 54, "duration": 8, "velocity": 71}, {"time": 451, "pitch": 54, "duration": 9, "velocity": 76}, {"time": 457, "pitch": 47, "duration": 41, "velocity": 87}, {"time": 463, "pitch": 54, "duration": 9, "velocity": 72}, {"time": 469, "pitch": 59, "duration": 3, "velocity": 73}, {"time": 475, "pitch": 61, "duration": 4, "velocity": 74}, {"time": 487, "pitch": 63, "duration": 4, "velocity": 81}, {"time": 505, "pitch": 47, "duration": 43, "velocity": 88}, {"time": 511, "pitch": 54, "duration": 8, "velocity": 79}, {"time": 517, "pitch": 59, "duration": 3, "velocity": 85}, {"time": 523, "pitch": 54, "duration": 3, "velocity": 77}, {"time": 523, "pitch": 63, "duration": 6, "velocity": 82}, {"time": 547, "pitch": 58, "duration": 5, "velocity": 73}, {"time": 553, "pitch": 44, "duration": 38, "velocity": 83}, {"time": 553, "pitch": 56, "duration": 7, "velocity": 72}, {"time": 553, "pitch": 59, "duration": 10, "velocity": 77}, {"time": 559, "pitch": 51, "duration": 30, "velocity": 71}, {"time": 565, "pitch": 58, "duration": 4, "velocity": 63}, {"time": 571, "pitch": 59, "duration": 3, "velocity": 77}, {"time": 601, "pitch": 47, "duration": 42, "velocity": 83}, {"time": 601, "pitch": 63, "duration": 12, "velocity": 84}, {"time": 607, "pitch": 54, "duration": 12, "velocity": 85}, {"time": 613, "pitch": 59, "duration": 6, "velocity": 81}, {"time": 619, "pitch": 63, "duration": 5, "velocity": 85}, {"time": 631, "pitch": 54, "duration": 8, "velocity": 67}, {"time": 637, "pitch": 59, "duration": 3, "velocity": 75}, {"time": 637, "pitch": 66, "duration": 5, "velocity": 78}, {"time": 649, "pitch": 51, "duration": 39, "velocity": 85}, {"time": 655, "pitch": 58, "duration": 2, "velocity": 51}, {"time": 661, "pitch": 63, "duration": 7, "velocity": 82}, {"time": 667, "pitch": 66, "duration": 17, "velocity": 80}, {"time": 679, "pitch": 63, "duration": 6, "velocity": 78}, {"time": 685, "pitch": 58, "duration": 3, "velocity": 85}, {"time": 697, "pitch": 40, "duration": 26, "velocity": 79}, {"time": 697, "pitch": 52, "duration": 7, "velocity": 73}, {"time": 697, "pitch": 56, "duration": 12, "velocity": 76}, {"time": 703, "pitch": 47, "duration": 20, "velocity": 77}, {"time": 709, "pitch": 52, "duration": 8, "velocity": 77}, {"time": 715, "pitch": 59, "duration": 21, "velocity": 79}, {"time": 733, "pitch": 47, "duration": 8, "velocity": 76}, {"time": 739, "pitch": 56, "duration": 2, "velocity": 77}, {"time": 745, "pitch": 39, "duration": 13, "velocity": 85}, {"time": 745, "pitch": 51, "duration": 7, "velocity": 76}, {"time": 745, "pitch": 54, "duration": 10, "velocity": 73}, {"time": 751, "pitch": 46, "duration": 7, "velocity": 66}, {"time": 757, "pitch": 51, "duration": 2, "velocity": 73}, {"time": 769, "pitch": 44, "duration": 20, "velocity": 84}, {"time": 769, "pitch": 56, "duration": 7, "velocity": 71}, {"time": 769, "pitch": 59, "duration": 12, "velocity": 76}, {"time": 775, "pitch": 51, "duration": 14, "velocity": 81}, {"time": 781, "pitch": 56, "duration": 7, "velocity": 85}, {"time": 793, "pitch": 49, "duration": 34, "velocity": 84}, {"time": 793, "pitch": 61, "duration": 7, "velocity": 79}, {"time": 799, "pitch": 56, "duration": 8, "velocity": 78}, {"time": 805, "pitch": 61, "duration": 7, "velocity": 77}, {"time": 811, "pitch": 64, "duration": 19, "velocity": 84}, {"time": 829, "pitch": 61, "duration": 3, "velocity": 80}, {"time": 835, "pitch": 54, "duration": 5, "velocity": 84}, {"time": 841, "pitch": 42, "duration": 44, "velocity": 82}, {"time": 841, "pitch": 61, "duration": 10, "velocity": 77}, {"time": 847, "pitch": 49, "duration": 37, "velocity": 80}, {"time": 853, "pitch": 54, "duration": 7, "velocity": 84}, {"time": 859, "pitch": 61, "duration": 7, "velocity": 81}, {"time": 865, "pitch": 66, "duration": 9, "velocity": 85}, {"time": 871, "pitch": 54, "duration": 3, "velocity": 80}, {"time": 877, "pitch": 54, "duration": 3, "velocity": 84}, {"time": 877, "pitch": 61, "duration": 8, "velocity": 80}, {"time": 889, "pitch": 47, "duration": 43, "velocity": 88}, {"time": 895, "pitch": 54, "duration": 8, "velocity": 79}, {"time": 901, "pitch": 59, "duration": 3, "velocity": 85}, {"time": 907, "pitch": 54, "duration": 3, "velocity": 77}, {"time": 907, "pitch": 63, "duration": 6, "velocity": 82}, {"time": 931, "pitch": 58, "duration": 5, "velocity": 73}, {"time": 937, "pitch": 44, "duration": 38, "velocity": 83}, {"time": 937, "pitch": 56, "duration": 7, "velocity": 72}, {"time": 937, "pitch": 59, "duration": 10, "velocity": 77}, {"time": 943, "pitch": 51, "duration": 30, "velocity": 71}, {"time": 949, "pitch": 58, "duration": 4, "velocity": 63}, {"time": 955, "pitch": 59, "duration": 3, "velocity": 77}, {"time": 985, "pitch": 47, "duration": 42, "velocity": 83}, {"time": 985, "pitch": 63, "duration": 12, "velocity": 84}, {"time": 991, "pitch": 54, "duration": 12, "velocity": 85}, {"time": 997, "pitch": 59, "duration": 6, "velocity": 81}, {"time": 1003, "pitch": 63, "duration": 5, "velocity": 85}, {"time": 1015, "pitch": 54, "duration": 8, "velocity": 67}, {"time": 1021, "pitch": 59, "duration": 3, "velocity": 75}, {"time": 1021, "pitch": 66, "duration": 5, "velocity": 78}, {"time": 1033, "pitch": 51, "duration": 39, "velocity": 85}, {"time": 1039, "pitch": 58, "duration": 2, "velocity": 51}, {"time": 1045, "pitch": 63, "duration": 7, "velocity": 82}, {"time": 1051, "pitch": 66, "duration": 17, "velocity": 80}, {"time": 1063, "pitch": 63, "duration": 6, "velocity": 78}, {"time": 1069, "pitch": 58, "duration": 3, "velocity": 85}, {"time": 1081, "pitch": 40, "duration": 26, "velocity": 79}, {"time": 1081, "pitch": 52, "duration": 7, "velocity": 73}, {"time": 1081, "pitch": 56, "duration": 12, "velocity": 76}, {"time": 1087, "pitch": 47, "duration": 20, "velocity": 77}, {"time": 1093, "pitch": 52, "duration": 8, "velocity": 77}, {"time": 1099, "pitch": 59, "duration": 21, "velocity": 79}, {"time": 1117, "pitch": 47, "duration": 8, "velocity": 76}, {"time": 1123, "pitch": 56, "duration": 2, "velocity": 77}, {"time": 1129, "pitch": 39, "duration": 13, "velocity": 85}, {"time": 1129, "pitch": 51, "duration": 7, "velocity": 76}, {"time": 1129, "pitch": 54, "duration": 10, "velocity": 73}, {"time": 1135, "pitch": 46, "duration": 7, "velocity": 66}, {"time": 1141, "pitch": 51, "duration": 2, "velocity": 73}, {"time": 1153, "pitch": 44, "duration": 20, "velocity": 84}, {"time": 1153, "pitch": 56, "duration": 7, "velocity": 71}, {"time": 1153, "pitch": 59, "duration": 12, "velocity": 76}, {"time": 1159, "pitch": 51, "duration": 14, "velocity": 81}, {"time": 1165, "pitch": 56, "duration": 7, "velocity": 85}, {"time": 1177, "pitch": 49, "duration": 34, "velocity": 84}, {"time": 1177, "pitch": 61, "duration": 7, "velocity": 79}, {"time": 1183, "pitch": 56, "duration": 8, "velocity": 78}, {"time": 1189, "pitch": 61, "duration": 7, "velocity": 77}, {"time": 1195, "pitch": 64, "duration": 19, "velocity": 84}, {"time": 1213, "pitch": 61, "duration": 3, "velocity": 80}, {"time": 1219, "pitch": 54, "duration": 5, "velocity": 84}, {"time": 1225, "pitch": 42, "duration": 44, "velocity": 82}, {"time": 1225, "pitch": 61, "duration": 10, "velocity": 77}, {"time": 1231, "pitch": 49, "duration": 37, "velocity": 80}, {"time": 1237, "pitch": 54, "duration": 7, "velocity": 84}, {"time": 1243, "pitch": 61, "duration": 7, "velocity": 81}, {"time": 1249, "pitch": 66, "duration": 9, "velocity": 85}, {"time": 1255, "pitch": 54, "duration": 3, "velocity": 80}, {"time": 1261, "pitch": 54, "duration": 3, "velocity": 84}, {"time": 1261, "pitch": 61, "duration": 8, "velocity": 80}, {"time": 1273, "pitch": 47, "duration": 37, "velocity": 91}, {"time": 1273, "pitch": 54, "duration": 3, "velocity": 80}, {"time": 1273, "pitch": 59, "duration": 8, "velocity": 80}, {"time": 1279, "pitch": 54, "duration": 6, "velocity": 80}, {"time": 1285, "pitch": 61, "duration": 6, "velocity": 85}, {"time": 1291, "pitch": 54, "duration": 5, "velocity": 84}, {"time": 1297, "pitch": 59, "duration": 8, "velocity": 86}, {"time": 1297, "pitch": 63, "duration": 11, "velocity": 86}, {"time": 1303, "pitch": 54, "duration": 7, "velocity": 80}, {"time": 1309, "pitch": 59, "duration": 2, "velocity": 74}, {"time": 1321, "pitch": 39, "duration": 32, "velocity": 88}, {"time": 1321, "pitch": 58, "duration": 7, "velocity": 78}, {"time": 1321, "pitch": 63, "duration": 12, "velocity": 82}, {"time": 1327, "pitch": 46, "duration": 19, "velocity": 71}, {"time": 1333, "pitch": 58, "duration": 7, "velocity": 80}, {"time": 1339, "pitch": 63, "duration": 2, "velocity": 72}, {"time": 1345, "pitch": 58, "duration": 3, "velocity": 87}, {"time": 1345, "pitch": 66, "duration": 6, "velocity": 84}, {"time": 1351, "pitch": 46, "duration": 3, "velocity": 75}, {"time": 1357, "pitch": 58, "duration": 2, "velocity": 84}, {"time": 1357, "pitch": 63, "duration": 6, "velocity": 86}, {"time": 1363, "pitch": 58, "duration": 2, "velocity": 73}, {"time": 1369, "pitch": 40, "duration": 21, "velocity": 85}, {"time": 1369, "pitch": 52, "duration": 7, "velocity": 77}, {"time": 1369, "pitch": 56, "duration": 9, "velocity": 75}, {"time": 1375, "pitch": 47, "duration": 15, "velocity": 74}, {"time": 1381, "pitch": 52, "duration": 6, "velocity": 85}, {"time": 1387, "pitch": 59, "duration": 4, "velocity": 86}, {"time": 1393, "pitch": 42, "duration": 19, "velocity": 85}, {"time": 1393, "pitch": 54, "duration": 7, "velocity": 80}, {"time": 1393, "pitch": 58, "duration": 5, "velocity": 82}, {"time": 1399, "pitch": 49, "duration": 13, "velocity": 78}, {"time": 1405, "pitch": 54, "duration": 3, "velocity": 78}, {"time": 1405, "pitch": 61, "duration": 7, "velocity": 79}, {"time": 1411, "pitch": 54, "duration": 7, "velocity": 84}, {"time": 1417, "pitch": 47, "duration": 27, "velocity": 85}, {"time": 1417, "pitch": 63, "duration": 9, "velocity": 86}, {"time": 1423, "pitch": 54, "duration": 7, "velocity": 80}, {"time": 1429, "pitch": 61, "duration": 7, "velocity": 81}, {"time": 1435, "pitch": 54, "duration": 3, "velocity": 85}, {"time": 1441, "pitch": 54, "duration": 2, "velocity": 86}, {"time": 1441, "pitch": 59, "duration": 7, "velocity": 84}, {"time": 1447, "pitch": 54, "duration": 3, "velocity": 78}, {"time": 1453, "pitch": 47, "duration": 3, "velocity": 87}, {"time": 1453, "pitch": 54, "duration": 4, "velocity": 84}, {"time": 1453, "pitch": 59, "duration": 6, "velocity": 84}, {"time": 1459, "pitch": 61, "duration": 4, "velocity": 85}, {"time": 1465, "pitch": 39, "duration": 27, "velocity": 88}, {"time": 1465, "pitch": 63, "duration": 6, "velocity": 86}, {"time": 1471, "pitch": 46, "duration": 9, "velocity": 67}, {"time": 1477, "pitch": 54, "duration": 7, "velocity": 76}, {"time": 1483, "pitch": 51, "duration": 3, "velocity": 76}, {"time": 1489, "pitch": 51, "duration": 6, "velocity": 84}, {"time": 1489, "pitch": 54, "duration": 7, "velocity": 80}, {"time": 1489, "pitch": 58, "duration": 9, "velocity": 83}, {"time": 1495, "pitch": 46, "duration": 7, "velocity": 72}, {"time": 1501, "pitch": 54, "duration": 3, "velocity": 87}, {"time": 1513, "pitch": 44, "duration": 16, "velocity": 84}, {"time": 1513, "pitch": 56, "duration": 7, "velocity": 73}, {"time": 1513, "pitch": 59, "duration": 13, "velocity": 79}, {"time": 1519, "pitch": 51, "duration": 7, "velocity": 77}, {"time": 1525, "pitch": 56, "duration": 6, "velocity": 85}, {"time": 1531, "pitch": 51, "duration": 7, "velocity": 71}, {"time": 1537, "pitch": 56, "duration": 8, "velocity": 79}, {"time": 1537, "pitch": 59, "duration": 8, "velocity": 81}, {"time": 1543, "pitch": 51, "duration": 9, "velocity": 77}, {"time": 1549, "pitch": 56, "duration": 2, "velocity": 78}, {"time": 1549, "pitch": 59, "duration": 3, "velocity": 84}, {"time": 1549, "pitch": 63, "duration": 3, "velocity": 85}, {"time": 1561, "pitch": 49, "duration": 38, "velocity": 89}, {"time": 1561, "pitch": 64, "duration": 8, "velocity": 85}, {"time": 1567, "pitch": 56, "duration": 7, "velocity": 85}, {"time": 1573, "pitch": 61, "duration": 7, "velocity": 83}, {"time": 1579, "pitch": 56, "duration": 4, "velocity": 73}, {"time": 1585, "pitch": 64, "duration": 7, "velocity": 89}, {"time": 1591, "pitch": 56, "duration": 3, "velocity": 72}, {"time": 1597, "pitch": 61, "duration": 8, "velocity": 84}, {"time": 1603, "pitch": 49, "duration": 3, "velocity": 89}, {"time": 1609, "pitch": 42, "duration": 28, "velocity": 84}, {"time": 1609, "pitch": 54, "duration": 12, "velocity": 79}, {"time": 1609, "pitch": 61, "duration": 13, "velocity": 82}, {"time": 1615, "pitch": 49, "duration": 20, "velocity": 78}, {"time": 1621, "pitch": 58, "duration": 3, "velocity": 80}, {"time": 1627, "pitch": 54, "duration": 2, "velocity": 86}, {"time": 1633, "pitch": 54, "duration": 8, "velocity": 82}, {"time": 1633, "pitch": 58, "duration": 8, "velocity": 86}, {"time": 1633, "pitch": 61, "duration": 8, "velocity": 85}, {"time": 1633, "pitch": 66, "duration": 7, "velocity": 79}, {"time": 1639, "pitch": 49, "duration": 19, "velocity": 78}, {"time": 1645, "pitch": 54, "duration": 3, "velocity": 79}, {"time": 1645, "pitch": 58, "duration": 12, "velocity": 80}, {"time": 1645, "pitch": 61, "duration": 13, "velocity": 82}, {"time": 1651, "pitch": 54, "duration": 7, "velocity": 78}, {"time": 1657, "pitch": 47, "duration": 37, "velocity": 91}, {"time": 1657, "pitch": 54, "duration": 1, "velocity": 80}, {"time": 1657, "pitch": 59, "duration": 8, "velocity": 80}, {"time": 1663, "pitch": 54, "duration": 6, "velocity": 80}, {"time": 1669, "pitch": 61, "duration": 6, "velocity": 85}, {"time": 1675, "pitch": 54, "duration": 5, "velocity": 84}, {"time": 1681, "pitch": 59, "duration": 8, "velocity": 86}, {"time": 1681, "pitch": 63, "duration": 11, "velocity": 86}, {"time": 1687, "pitch": 54, "duration": 7, "velocity": 80}, {"time": 1693, "pitch": 59, "duration": 2, "velocity": 74}, {"time": 1705, "pitch": 39, "duration": 32, "velocity": 88}, {"time": 1705, "pitch": 58, "duration": 7, "velocity": 78}, {"time": 1705, "pitch": 63, "duration": 12, "velocity": 82}, {"time": 1711, "pitch": 46, "duration": 19, "velocity": 71}, {"time": 1717, "pitch": 58, "duration": 7, "velocity": 80}, {"time": 1723, "pitch": 63, "duration": 2, "velocity": 72}, {"time": 1729, "pitch": 58, "duration": 3, "velocity": 87}, {"time": 1729, "pitch": 66, "duration": 6, "velocity": 84}, {"time": 1735, "pitch": 46, "duration": 3, "velocity": 75}, {"time": 1741, "pitch": 58, "duration": 2, "velocity": 84}, {"time": 1741, "pitch": 63, "duration": 6, "velocity": 86}, {"time": 1747, "pitch": 58, "duration": 2, "velocity": 73}, {"time": 1753, "pitch": 40, "duration": 21, "velocity": 85}, {"time": 1753, "pitch": 52, "duration": 7, "velocity": 77}, {"time": 1753, "pitch": 56, "duration": 9, "velocity": 75}, {"time": 1759, "pitch": 47, "duration": 15, "velocity": 74}, {"time": 1765, "pitch": 52, "duration": 6, "velocity": 85}, {"time": 1771, "pitch": 59, "duration": 4, "velocity": 86}, {"time": 1777, "pitch": 42, "duration": 19, "velocity": 85}, {"time": 1777, "pitch": 54, "duration": 7, "velocity": 80}, {"time": 1777, "pitch": 58, "duration": 5, "velocity": 82}, {"time": 1783, "pitch": 49, "duration": 13, "velocity": 78}, {"time": 1789, "pitch": 54, "duration": 3, "velocity": 78}, {"time": 1789, "pitch": 61, "duration": 7, "velocity": 79}, {"time": 1795, "pitch": 54, "duration": 7, "velocity": 84}, {"time": 1801, "pitch": 47, "duration": 27, "velocity": 85}, {"time": 1801, "pitch": 63, "duration": 9, "velocity": 86}, {"time": 1807, "pitch": 54, "duration": 7, "velocity": 80}, {"time": 1813, "pitch": 61, "duration": 7, "velocity": 81}, {"time": 1819, "pitch": 54, "duration": 3, "velocity": 85}, {"time": 1825, "pitch": 54, "duration": 2, "velocity": 86}, {"time": 1825, "pitch": 59, "duration": 7, "velocity": 84}, {"time": 1831, "pitch": 54, "duration": 3, "velocity": 78}, {"time": 1837, "pitch": 47, "duration": 3, "velocity": 87}, {"time": 1837, "pitch": 54, "duration": 4, "velocity": 84}, {"time": 1837, "pitch": 59, "duration": 6, "velocity": 84}, {"time": 1843, "pitch": 61, "duration": 4, "velocity": 85}, {"time": 1849, "pitch": 39, "duration": 27, "velocity": 88}, {"time": 1849, "pitch": 63, "duration": 6, "velocity": 86}, {"time": 1855, "pitch": 46, "duration": 9, "velocity": 67}, {"time": 1861, "pitch": 54, "duration": 7, "velocity": 76}, {"time": 1867, "pitch": 51, "duration": 3, "velocity": 76}, {"time": 1873, "pitch": 51, "duration": 6, "velocity": 84}, {"time": 1873, "pitch": 54, "duration": 7, "velocity": 80}, {"time": 1873, "pitch": 58, "duration": 9, "velocity": 83}, {"time": 1879, "pitch": 46, "duration": 7, "velocity": 72}, {"time": 1885, "pitch": 54, "duration": 3, "velocity": 87}, {"time": 1897, "pitch": 44, "duration": 16, "velocity": 84}, {"time": 1897, "pitch": 56, "duration": 7, "velocity": 73}, {"time": 1897, "pitch": 59, "duration": 13, "velocity": 79}, {"time": 1903, "pitch": 51, "duration": 7, "velocity": 77}, {"time": 1909, "pitch": 56, "duration": 6, "velocity": 85}, {"time": 1915, "pitch": 51, "duration": 7, "velocity": 71}, {"time": 1921, "pitch": 56, "duration": 8, "velocity": 79}, {"time": 1921, "pitch": 59, "duration": 8, "velocity": 81}, {"time": 1927, "pitch": 51, "duration": 9, "velocity": 77}, {"time": 1933, "pitch": 56, "duration": 2, "velocity": 78}, {"time": 1933, "pitch": 59, "duration": 3, "velocity": 84}, {"time": 1933, "pitch": 63, "duration": 3, "velocity": 85}, {"time": 1945, "pitch": 37, "duration": 13, "velocity": 86}, {"time": 1945, "pitch": 64, "duration": 12, "velocity": 80}, {"time": 1951, "pitch": 44, "duration": 7, "velocity": 73}, {"time": 1957, "pitch": 56, "duration": 6, "velocity": 86}, {"time": 1963, "pitch": 61, "duration": 7, "velocity": 84}, {"time": 1969, "pitch": 42, "duration": 16, "velocity": 84}, {"time": 1969, "pitch": 54, "duration": 8, "velocity": 76}, {"time": 1969, "pitch": 58, "duration": 11, "velocity": 77}, {"time": 1975, "pitch": 49, "duration": 9, "velocity": 74}, {"time": 1981, "pitch": 54, "duration": 3, "velocity": 84}, {"time": 1993, "pitch": 47, "duration": 45, "velocity": 86}, {"time": 1993, "pitch": 59, "duration": 10, "velocity": 82}, {"time": 1999, "pitch": 54, "duration": 5, "velocity": 76}, {"time": 2005, "pitch": 61, "duration": 7, "velocity": 75}, {"time": 2011, "pitch": 54, "duration": 3, "velocity": 74}, {"time": 2017, "pitch": 54, "duration": 3, "velocity": 85}, {"time": 2017, "pitch": 63, "duration": 19, "velocity": 86}, {"time": 2023, "pitch": 54, "duration": 5, "velocity": 71}, {"time": 2029, "pitch": 59, "duration": 9, "velocity": 72}, {"time": 2041, "pitch": 44, "duration": 44, "velocity": 84}, {"time": 2047, "pitch": 51, "duration": 38, "velocity": 77}, {"time": 2053, "pitch": 56, "duration": 7, "velocity": 80}, {"time": 2059, "pitch": 58, "duration": 4, "velocity": 88}, {"time": 2065, "pitch": 59, "duration": 3, "velocity": 83}, {"time": 2077, "pitch": 56, "duration": 2, "velocity": 72}, {"time": 2077, "pitch": 59, "duration": 7, "velocity": 76}, {"time": 2077, "pitch": 63, "duration": 6, "velocity": 85}, {"time": 2083, "pitch": 56, "duration": 3, "velocity": 76}, {"time": 2089, "pitch": 42, "duration": 40, "velocity": 82}, {"time": 2089, "pitch": 54, "duration": 25, "velocity": 74}, {"time": 2089, "pitch": 58, "duration": 12, "velocity": 78}, {"time": 2095, "pitch": 49, "duration": 33, "velocity": 64}, {"time": 2101, "pitch": 61, "duration": 14, "velocity": 74}, {"time": 2107, "pitch": 58, "duration": 9, "velocity": 72}, {"time": 2113, "pitch": 66, "duration": 12, "velocity": 79}, {"time": 2119, "pitch": 54, "duration": 8, "velocity": 73}, {"time": 2125, "pitch": 58, "duration": 2, "velocity": 76}, {"time": 2137, "pitch": 40, "duration": 36, "velocity": 84}, {"time": 2137, "pitch": 52, "duration": 6, "velocity": 76}, {"time": 2137, "pitch": 56, "duration": 18, "velocity": 71}, {"time": 2143, "pitch": 47, "duration": 31, "velocity": 73}, {"time": 2149, "pitch": 52, "duration": 12, "velocity": 77}, {"time": 2155, "pitch": 59, "duration": 8, "velocity": 77}, {"time": 2161, "pitch": 64, "duration": 13, "velocity": 82}, {"time": 2167, "pitch": 52, "duration": 5, "velocity": 73}, {"time": 2185, "pitch": 47, "duration": 21, "velocity": 85}, {"time": 2185, "pitch": 54, "duration": 4, "velocity": 82}, {"time": 2185, "pitch": 63, "duration": 13, "velocity": 85}, {"time": 2191, "pitch": 54, "duration": 7, "velocity": 78}, {"time": 2197, "pitch": 61, "duration": 5, "velocity": 85}, {"time": 2203, "pitch": 54, "duration": 3, "velocity": 79}, {"time": 2209, "pitch": 47, "duration": 9, "velocity": 90}, {"time": 2209, "pitch": 54, "duration": 2, "velocity": 85}, {"time": 2209, "pitch": 59, "duration": 8, "velocity": 88}, {"time": 2209, "pitch": 63, "duration": 7, "velocity": 85}, {"time": 2215, "pitch": 54, "duration": 4, "velocity": 80}, {"time": 2221, "pitch": 47, "duration": 3, "velocity": 98}, {"time": 2221, "pitch": 59, "duration": 3, "velocity": 86}, {"time": 2221, "pitch": 63, "duration": 4, "velocity": 88}, {"time": 2227, "pitch": 46, "duration": 2, "velocity": 88}, {"time": 2233, "pitch": 44, "duration": 41, "velocity": 85}, {"time": 2233, "pitch": 59, "duration": 8, "velocity": 88}, {"time": 2239, "pitch": 51, "duration": 19, "velocity": 76}, {"time": 2242, "pitch": 56, "duration": 3, "velocity": 79}, {"time": 2245, "pitch": 59, "duration": 3, "velocity": 80}, {"time": 2248, "pitch": 56, "duration": 2, "velocity": 60}, {"time": 2251, "pitch": 59, "duration": 2, "velocity": 72}, {"time": 2254, "pitch": 56, "duration": 1, "velocity": 62}, {"time": 2257, "pitch": 56, "duration": 5, "velocity": 85}, {"time": 2257, "pitch": 63, "duration": 6, "velocity": 86}, {"time": 2263, "pitch": 51, "duration": 7, "velocity": 77}, {"time": 2266, "pitch": 56, "duration": 2, "velocity": 74}, {"time": 2269, "pitch": 59, "duration": 4, "velocity": 87}, {"time": 2272, "pitch": 51, "duration": 3, "velocity": 85}, {"time": 2275, "pitch": 56, "duration": 4, "velocity": 84}, {"time": 2278, "pitch": 59, "duration": 1, "velocity": 84}, {"time": 2281, "pitch": 42, "duration": 18, "velocity": 85}, {"time": 2281, "pitch": 54, "duration": 6, "velocity": 81}, {"time": 2281, "pitch": 58, "duration": 7, "velocity": 85}, {"time": 2287, "pitch": 49, "duration": 7, "velocity": 78}, {"time": 2293, "pitch": 54, "duration": 2, "velocity": 85}, {"time": 2293, "pitch": 58, "duration": 4, "velocity": 86}, {"time": 2296, "pitch": 54, "duration": 3, "velocity": 85}, {"time": 2299, "pitch": 58, "duration": 3, "velocity": 85}, {"time": 2302, "pitch": 61, "duration": 10, "velocity": 84}, {"time": 2305, "pitch": 42, "duration": 19, "velocity": 86}, {"time": 2311, "pitch": 49, "duration": 8, "velocity": 84}, {"time": 2317, "pitch": 54, "duration": 6, "velocity": 85}, {"time": 2317, "pitch": 58, "duration": 6, "velocity": 84}, {"time": 2323, "pitch": 49, "duration": 5, "velocity": 85}, {"time": 2329, "pitch": 40, "duration": 18, "velocity": 85}, {"time": 2329, "pitch": 52, "duration": 5, "velocity": 75}, {"time": 2329, "pitch": 56, "duration": 8, "velocity": 76}, {"time": 2335, "pitch": 47, "duration": 12, "velocity": 78}, {"time": 2341, "pitch": 52, "duration": 6, "velocity": 87}, {"time": 2344, "pitch": 56, "duration": 4, "velocity": 82}, {"time": 2347, "pitch": 59, "duration": 3, "velocity": 72}, {"time": 2353, "pitch": 49, "duration": 14, "velocity": 87}, {"time": 2353, "pitch": 56, "duration": 4, "velocity": 77}, {"time": 2353, "pitch": 61, "duration": 8, "velocity": 69}, {"time": 2359, "pitch": 56, "duration": 4, "velocity": 81}, {"time": 2365, "pitch": 56, "duration": 3, "velocity": 86}, {"time": 2365, "pitch": 61, "duration": 6, "velocity": 85}, {"time": 2365, "pitch": 64, "duration": 7, "velocity": 82}, {"time": 2371, "pitch": 56, "duration": 3, "velocity": 60}, {"time": 2377, "pitch": 42, "duration": 45, "velocity": 85}, {"time": 2377, "pitch": 54, "duration": 8, "velocity": 78}, {"time": 2377, "pitch": 58, "duration": 9, "velocity": 76}, {"time": 2383, "pitch": 49, "duration": 37, "velocity": 84}, {"time": 2389, "pitch": 54, "duration": 7, "velocity": 81}, {"time": 2389, "pitch": 61, "duration": 3, "velocity": 84}, {"time": 2392, "pitch": 58, "duration": 5, "velocity": 76}, {"time": 2395, "pitch": 61, "duration": 4, "velocity": 78}, {"time": 2401, "pitch": 66, "duration": 5, "velocity": 79}, {"time": 2407, "pitch": 54, "duration": 3, "velocity": 69}, {"time": 2413, "pitch": 58, "duration": 7, "velocity": 78}, {"time": 2413, "pitch": 61, "duration": 7, "velocity": 77}, {"time": 2419, "pitch": 54, "duration": 4, "velocity": 72}, {"time": 2425, "pitch": 42, "duration": 38, "velocity": 85}, {"time": 2425, "pitch": 54, "duration": 7, "velocity": 73}, {"time": 2425, "pitch": 58, "duration": 7, "velocity": 73}, {"time": 2425, "pitch": 61, "duration": 8, "velocity": 76}, {"time": 2431, "pitch": 49, "duration": 31, "velocity": 72}, {"time": 2437, "pitch": 54, "duration": 7, "velocity": 85}, {"time": 2443, "pitch": 61, "duration": 4, "velocity": 84}, {"time": 2449, "pitch": 66, "duration": 2, "velocity": 84}, {"time": 2473, "pitch": 47, "duration": 43, "velocity": 88}, {"time": 2479, "pitch": 54, "duration": 8, "velocity": 79}, {"time": 2485, "pitch": 59, "duration": 3, "velocity": 85}, {"time": 2491, "pitch": 54, "duration": 3, "velocity": 77}, {"time": 2491, "pitch": 63, "duration": 6, "velocity": 82}, {"time": 2515, "pitch": 58, "duration": 5, "velocity": 73}, {"time": 2521, "pitch": 44, "duration": 38, "velocity": 83}, {"time": 2521, "pitch": 56, "duration": 7, "velocity": 72}, {"time": 2521, "pitch": 59, "duration": 10, "velocity": 77}, {"time": 2527, "pitch": 51, "duration": 30, "velocity": 71}, {"time": 2533, "pitch": 58, "duration": 4, "velocity": 63}, {"time": 2539, "pitch": 59, "duration": 3, "velocity": 77}, {"time": 2569, "pitch": 47, "duration": 42, "velocity": 83}, {"time": 2569, "pitch": 63, "duration": 12, "velocity": 84}, {"time": 2575, "pitch": 54, "duration": 12, "velocity": 85}, {"time": 2581, "pitch": 59, "duration": 6, "velocity": 81}, {"time": 2587, "pitch": 63, "duration": 5, "velocity": 85}, {"time": 2599, "pitch": 54, "duration": 8, "velocity": 67}, {"time": 2605, "pitch": 59, "duration": 3, "velocity": 75}, {"time": 2605, "pitch": 66, "duration": 5, "velocity": 78}, {"time": 2617, "pitch": 51, "duration": 39, "velocity": 85}, {"time": 2623, "pitch": 58, "duration": 2, "velocity": 51}, {"time": 2629, "pitch": 63, "duration": 7, "velocity": 82}, {"time": 2635, "pitch": 66, "duration": 17, "velocity": 80}, {"time": 2647, "pitch": 63, "duration": 6, "velocity": 78}, {"time": 2653, "pitch": 58, "duration": 3, "velocity": 85}, {"time": 2665, "pitch": 40, "duration": 26, "velocity": 79}, {"time": 2665, "pitch": 52, "duration": 7, "velocity": 73}, {"time": 2665, "pitch": 56, "duration": 12, "velocity": 76}, {"time": 2671, "pitch": 47, "duration": 20, "velocity": 77}, {"time": 2677, "pitch": 52, "duration": 8, "velocity": 77}, {"time": 2683, "pitch": 59, "duration": 21, "velocity": 79}, {"time": 2701, "pitch": 47, "duration": 8, "velocity": 76}, {"time": 2707, "pitch": 56, "duration": 2, "velocity": 77}, {"time": 2713, "pitch": 39, "duration": 13, "velocity": 85}, {"time": 2713, "pitch": 51, "duration": 7, "velocity": 76}, {"time": 2713, "pitch": 54, "duration": 10, "velocity": 73}, {"time": 2719, "pitch": 46, "duration": 7, "velocity": 66}, {"time": 2725, "pitch": 51, "duration": 2, "velocity": 73}, {"time": 2737, "pitch": 44, "duration": 20, "velocity": 84}, {"time": 2737, "pitch": 56, "duration": 7, "velocity": 71}, {"time": 2737, "pitch": 59, "duration": 12, "velocity": 76}, {"time": 2743, "pitch": 51, "duration": 14, "velocity": 81}, {"time": 2749, "pitch": 56, "duration": 7, "velocity": 85}, {"time": 2761, "pitch": 49, "duration": 34, "velocity": 84}, {"time": 2761, "pitch": 61, "duration": 7, "velocity": 79}, {"time": 2767, "pitch": 56, "duration": 8, "velocity": 78}, {"time": 2773, "pitch": 61, "duration": 7, "velocity": 77}, {"time": 2779, "pitch": 64, "duration": 19, "velocity": 84}, {"time": 2797, "pitch": 61, "duration": 3, "velocity": 80}, {"time": 2803, "pitch": 54, "duration": 5, "velocity": 84}, {"time": 2809, "pitch": 42, "duration": 44, "velocity": 82}, {"time": 2809, "pitch": 61, "duration": 10, "velocity": 77}, {"time": 2815, "pitch": 49, "duration": 37, "velocity": 80}, {"time": 2821, "pitch": 54, "duration": 7, "velocity": 84}, {"time": 2827, "pitch": 61, "duration": 7, "velocity": 81}, {"time": 2833, "pitch": 66, "duration": 9, "velocity": 85}, {"time": 2839, "pitch": 54, "duration": 3, "velocity": 80}, {"time": 2845, "pitch": 54, "duration": 3, "velocity": 84}, {"time": 2845, "pitch": 61, "duration": 8, "velocity": 80}, {"time": 2857, "pitch": 47, "duration": 37, "velocity": 91}, {"time": 2857, "pitch": 54, "duration": 3, "velocity": 80}, {"time": 2857, "pitch": 59, "duration": 8, "velocity": 80}, {"time": 2863, "pitch": 54, "duration": 6, "velocity": 80}, {"time": 2869, "pitch": 61, "duration": 6, "velocity": 85}, {"time": 2875, "pitch": 54, "duration": 5, "velocity": 84}, {"time": 2881, "pitch": 59, "duration": 8, "velocity": 86}, {"time": 2881, "pitch": 63, "duration": 11, "velocity": 86}, {"time": 2887, "pitch": 54, "duration": 7, "velocity": 80}, {"time": 2893, "pitch": 59, "duration": 2, "velocity": 74}, {"time": 2905, "pitch": 39, "duration": 32, "velocity": 88}, {"time": 2905, "pitch": 58, "duration": 7, "velocity": 78}, {"time": 2905, "pitch": 63, "duration": 12, "velocity": 82}, {"time": 2911, "pitch": 46, "duration": 19, "velocity": 71}, {"time": 2917, "pitch": 58, "duration": 7, "velocity": 80}, {"time": 2923, "pitch": 63, "duration": 2, "velocity": 72}, {"time": 2929, "pitch": 58, "duration": 3, "velocity": 87}, {"time": 2929, "pitch": 66, "duration": 6, "velocity": 84}, {"time": 2935, "pitch": 46, "duration": 3, "velocity": 75}, {"time": 2941, "pitch": 58, "duration": 2, "velocity": 84}, {"time": 2941, "pitch": 63, "duration": 6, "velocity": 86}, {"time": 2947, "pitch": 58, "duration": 2, "velocity": 73}, {"time": 2953, "pitch": 40, "duration": 21, "velocity": 85}, {"time": 2953, "pitch": 52, "duration": 7, "velocity": 77}, {"time": 2953, "pitch": 56, "duration": 9, "velocity": 75}, {"time": 2959, "pitch": 47, "duration": 15, "velocity": 74}, {"time": 2965, "pitch": 52, "duration": 6, "velocity": 85}, {"time": 2971, "pitch": 59, "duration": 4, "velocity": 86}, {"time": 2977, "pitch": 42, "duration": 19, "velocity": 85}, {"time": 2977, "pitch": 54, "duration": 7, "velocity": 80}, {"time": 2977, "pitch": 58, "duration": 5, "velocity": 82}, {"time": 2983, "pitch": 49, "duration": 13, "velocity": 78}, {"time": 2989, "pitch": 54, "duration": 3, "velocity": 78}, {"time": 2989, "pitch": 61, "duration": 7, "velocity": 79}, {"time": 2995, "pitch": 54, "duration": 7, "velocity": 84}, {"time": 3001, "pitch": 47, "duration": 27, "velocity": 85}, {"time": 3001, "pitch": 63, "duration": 9, "velocity": 86}, {"time": 3007, "pitch": 54, "duration": 7, "velocity": 80}, {"time": 3013, "pitch": 61, "duration": 7, "velocity": 81}, {"time": 3019, "pitch": 54, "duration": 3, "velocity": 85}, {"time": 3025, "pitch": 54, "duration": 2, "velocity": 86}, {"time": 3025, "pitch": 59, "duration": 7, "velocity": 84}, {"time": 3031, "pitch": 54, "duration": 3, "velocity": 78}, {"time": 3037, "pitch": 47, "duration": 3, "velocity": 87}, {"time": 3037, "pitch": 54, "duration": 4, "velocity": 84}, {"time": 3037, "pitch": 59, "duration": 6, "velocity": 84}, {"time": 3043, "pitch": 61, "duration": 4, "velocity": 85}, {"time": 3049, "pitch": 39, "duration": 27, "velocity": 88}, {"time": 3049, "pitch": 63, "duration": 6, "velocity": 86}, {"time": 3055, "pitch": 46, "duration": 9, "velocity": 67}, {"time": 3061, "pitch": 54, "duration": 7, "velocity": 76}, {"time": 3067, "pitch": 51, "duration": 3, "velocity": 76}, {"time": 3073, "pitch": 51, "duration": 6, "velocity": 84}, {"time": 3073, "pitch": 54, "duration": 7, "velocity": 80}, {"time": 3073, "pitch": 58, "duration": 9, "velocity": 83}, {"time": 3079, "pitch": 46, "duration": 7, "velocity": 72}, {"time": 3085, "pitch": 54, "duration": 3, "velocity": 87}, {"time": 3097, "pitch": 44, "duration": 16, "velocity": 84}, {"time": 3097, "pitch": 56, "duration": 7, "velocity": 73}, {"time": 3097, "pitch": 59, "duration": 13, "velocity": 79}, {"time": 3103, "pitch": 51, "duration": 7, "velocity": 77}, {"time": 3109, "pitch": 56, "duration": 6, "velocity": 85}, {"time": 3115, "pitch": 51, "duration": 7, "velocity": 71}, {"time": 3121, "pitch": 56, "duration": 8, "velocity": 79}, {"time": 3121, "pitch": 59, "duration": 8, "velocity": 81}, {"time": 3127, "pitch": 51, "duration": 9, "velocity": 77}, {"time": 3133, "pitch": 56, "duration": 2, "velocity": 78}, {"time": 3133, "pitch": 59, "duration": 3, "velocity": 84}, {"time": 3133, "pitch": 63, "duration": 3, "velocity": 85}, {"time": 3145, "pitch": 49, "duration": 38, "velocity": 89}, {"time": 3145, "pitch": 64, "duration": 8, "velocity": 85}, {"time": 3151, "pitch": 56, "duration": 7, "velocity": 85}, {"time": 3157, "pitch": 61, "duration": 7, "velocity": 83}, {"time": 3163, "pitch": 56, "duration": 4, "velocity": 73}, {"time": 3169, "pitch": 64, "duration": 7, "velocity": 89}, {"time": 3175, "pitch": 56, "duration": 3, "velocity": 72}, {"time": 3181, "pitch": 61, "duration": 8, "velocity": 84}, {"time": 3187, "pitch": 49, "duration": 3, "velocity": 89}, {"time": 3193, "pitch": 42, "duration": 28, "velocity": 84}, {"time": 3193, "pitch": 54, "duration": 12, "velocity": 79}, {"time": 3193, "pitch": 61, "duration": 13, "velocity": 82}, {"time": 3199, "pitch": 49, "duration": 20, "velocity": 78}, {"time": 3205, "pitch": 58, "duration": 3, "velocity": 80}, {"time": 3211, "pitch": 54, "duration": 2, "velocity": 86}, {"time": 3217, "pitch": 54, "duration": 8, "velocity": 82}, {"time": 3217, "pitch": 58, "duration": 8, "velocity": 86}, {"time": 3217, "pitch": 61, "duration": 8, "velocity": 85}, {"time": 3217, "pitch": 66, "duration": 7, "velocity": 79}, {"time": 3223, "pitch": 49, "duration": 19, "velocity": 78}, {"time": 3229, "pitch": 54, "duration": 3, "velocity": 79}, {"time": 3229, "pitch": 58, "duration": 12, "velocity": 80}, {"time": 3229, "pitch": 61, "duration": 13, "velocity": 82}, {"time": 3235, "pitch": 54, "duration": 7, "velocity": 78}, {"time": 3241, "pitch": 47, "duration": 37, "velocity": 91}, {"time": 3241, "pitch": 54, "duration": 1, "velocity": 80}, {"time": 3241, "pitch": 59, "duration": 8, "velocity": 80}, {"time": 3247, "pitch": 54, "duration": 6, "velocity": 80}, {"time": 3253, "pitch": 61, "duration": 6, "velocity": 85}, {"time": 3259, "pitch": 54, "duration": 5, "velocity": 84}, {"time": 3265, "pitch": 59, "duration": 8, "velocity": 86}, {"time": 3265, "pitch": 63, "duration": 11, "velocity": 86}, {"time": 3271, "pitch": 54, "duration": 7, "velocity": 80}, {"time": 3277, "pitch": 59, "duration": 2, "velocity": 74}, {"time": 3289, "pitch": 39, "duration": 32, "velocity": 88}, {"time": 3289, "pitch": 58, "duration": 7, "velocity": 78}, {"time": 3289, "pitch": 63, "duration": 12, "velocity": 82}, {"time": 3295, "pitch": 46, "duration": 19, "velocity": 71}, {"time": 3301, "pitch": 58, "duration": 7, "velocity": 80}, {"time": 3307, "pitch": 63, "duration": 2, "velocity": 72}, {"time": 3313, "pitch": 58, "duration": 3, "velocity": 87}, {"time": 3313, "pitch": 66, "duration": 6, "velocity": 84}, {"time": 3319, "pitch": 46, "duration": 3, "velocity": 75}, {"time": 3325, "pitch": 58, "duration": 2, "velocity": 84}, {"time": 3325, "pitch": 63, "duration": 6, "velocity": 86}, {"time": 3331, "pitch": 58, "duration": 2, "velocity": 73}, {"time": 3337, "pitch": 40, "duration": 21, "velocity": 85}, {"time": 3337, "pitch": 52, "duration": 7, "velocity": 77}, {"time": 3337, "pitch": 56, "duration": 9, "velocity": 75}, {"time": 3343, "pitch": 47, "duration": 15, "velocity": 74}, {"time": 3349, "pitch": 52, "duration": 6, "velocity": 85}, {"time": 3355, "pitch": 59, "duration": 4, "velocity": 86}, {"time": 3361, "pitch": 42, "duration": 19, "velocity": 85}, {"time": 3361, "pitch": 54, "duration": 7, "velocity": 80}, {"time": 3361, "pitch": 58, "duration": 5, "velocity": 82}, {"time": 3367, "pitch": 49, "duration": 13, "velocity": 78}, {"time": 3373, "pitch": 54, "duration": 3, "velocity": 78}, {"time": 3373, "pitch": 61, "duration": 7, "velocity": 79}, {"time": 3379, "pitch": 54, "duration": 7, "velocity": 84}, {"time": 3385, "pitch": 47, "duration": 27, "velocity": 85}, {"time": 3385, "pitch": 63, "duration": 9, "velocity": 86}, {"time": 3391, "pitch": 54, "duration": 7, "velocity": 80}, {"time": 3397, "pitch": 61, "duration": 7, "velocity": 81}, {"time": 3403, "pitch": 54, "duration": 3, "velocity": 85}, {"time": 3409, "pitch": 54, "duration": 2, "velocity": 86}, {"time": 3409, "pitch": 59, "duration": 7, "velocity": 84}, {"time": 3415, "pitch": 54, "duration": 3, "velocity": 78}, {"time": 3421, "pitch": 47, "duration": 3, "velocity": 87}, {"time": 3421, "pitch": 54, "duration": 4, "velocity": 84}, {"time": 3421, "pitch": 59, "duration": 6, "velocity": 84}, {"time": 3427, "pitch": 61, "duration": 4, "velocity": 85}, {"time": 3433, "pitch": 39, "duration": 27, "velocity": 88}, {"time": 3433, "pitch": 63, "duration": 6, "velocity": 86}, {"time": 3439, "pitch": 46, "duration": 9, "velocity": 67}, {"time": 3445, "pitch": 54, "duration": 7, "velocity": 76}, {"time": 3451, "pitch": 51, "duration": 3, "velocity": 76}, {"time": 3457, "pitch": 51, "duration": 6, "velocity": 84}, {"time": 3457, "pitch": 54, "duration": 7, "velocity": 80}, {"time": 3457, "pitch": 58, "duration": 9, "velocity": 83}, {"time": 3463, "pitch": 46, "duration": 7, "velocity": 72}, {"time": 3469, "pitch": 54, "duration": 3, "velocity": 87}, {"time": 3481, "pitch": 44, "duration": 16, "velocity": 84}, {"time": 3481, "pitch": 56, "duration": 7, "velocity": 73}, {"time": 3481, "pitch": 59, "duration": 13, "velocity": 79}, {"time": 3487, "pitch": 51, "duration": 7, "velocity": 77}, {"time": 3493, "pitch": 56, "duration": 6, "velocity": 85}, {"time": 3499, "pitch": 51, "duration": 7, "velocity": 71}, {"time": 3505, "pitch": 56, "duration": 8, "velocity": 79}, {"time": 3505, "pitch": 59, "duration": 8, "velocity": 81}, {"time": 3511, "pitch": 51, "duration": 9, "velocity": 77}, {"time": 3517, "pitch": 56, "duration": 2, "velocity": 78}, {"time": 3517, "pitch": 59, "duration": 3, "velocity": 84}, {"time": 3517, "pitch": 63, "duration": 3, "velocity": 85}, {"time": 3529, "pitch": 37, "duration": 13, "velocity": 86}, {"time": 3529, "pitch": 64, "duration": 12, "velocity": 80}, {"time": 3535, "pitch": 44, "duration": 7, "velocity": 73}, {"time": 3541, "pitch": 56, "duration": 6, "velocity": 86}, {"time": 3547, "pitch": 61, "duration": 7, "velocity": 84}, {"time": 3553, "pitch": 42, "duration": 16, "velocity": 84}, {"time": 3553, "pitch": 54, "duration": 8, "velocity": 76}, {"time": 3553, "pitch": 58, "duration": 11, "velocity": 77}, {"time": 3559, "pitch": 49, "duration": 9, "velocity": 74}, {"time": 3565, "pitch": 54, "duration": 3, "velocity": 84}, {"time": 3577, "pitch": 47, "duration": 45, "velocity": 86}, {"time": 3577, "pitch": 59, "duration": 10, "velocity": 82}, {"time": 3583, "pitch": 54, "duration": 5, "velocity": 76}, {"time": 3589, "pitch": 61, "duration": 7, "velocity": 75}, {"time": 3595, "pitch": 54, "duration": 3, "velocity": 74}, {"time": 3601, "pitch": 54, "duration": 3, "velocity": 85}, {"time": 3601, "pitch": 63, "duration": 19, "velocity": 86}, {"time": 3607, "pitch": 54, "duration": 5, "velocity": 71}, {"time": 3613, "pitch": 59, "duration": 9, "velocity": 72}, {"time": 3625, "pitch": 43, "duration": 15, "velocity": 91}, {"time": 3625, "pitch": 55, "duration": 8, "velocity": 79}, {"time": 3625, "pitch": 62, "duration": 6, "velocity": 73}, {"time": 3631, "pitch": 50, "duration": 8, "velocity": 66}, {"time": 3637, "pitch": 55, "duration": 3, "velocity": 80}, {"time": 3637, "pitch": 59, "duration": 3, "velocity": 81}, {"time": 3637, "pitch": 62, "duration": 4, "velocity": 79}, {"time": 3649, "pitch": 43, "duration": 6, "velocity": 95}, {"time": 3649, "pitch": 55, "duration": 6, "velocity": 83}, {"time": 3649, "pitch": 59, "duration": 6, "velocity": 84}, {"time": 3649, "pitch": 62, "duration": 6, "velocity": 81}, {"time": 3649, "pitch": 67, "duration": 7, "velocity": 80}, {"time": 3655, "pitch": 50, "duration": 2, "velocity": 84}, {"time": 3661, "pitch": 43, "duration": 1, "velocity": 89}, {"time": 3661, "pitch": 50, "duration": 2, "velocity": 84}, {"time": 3661, "pitch": 55, "duration": 4, "velocity": 72}, {"time": 3661, "pitch": 59, "duration": 3, "velocity": 79}, {"time": 3661, "pitch": 62, "duration": 4, "velocity": 76}, {"time": 3667, "pitch": 43, "duration": 2, "velocity": 85}, {"time": 3673, "pitch": 43, "duration": 47, "velocity": 88}, {"time": 3673, "pitch": 50, "duration": 47, "velocity": 85}, {"time": 3673, "pitch": 55, "duration": 47, "velocity": 78}, {"time": 3673, "pitch": 59, "duration": 46, "velocity": 85}, {"time": 3673, "pitch": 62, "duration": 47, "velocity": 81}, {"time": 3673, "pitch": 67, "duration": 48, "velocity": 80}, {"time": 3721, "pitch": 48, "duration": 37, "velocity": 91}, {"time": 3721, "pitch": 55, "duration": 3, "velocity": 80}, {"time": 3721, "pitch": 60, "duration": 8, "velocity": 80}, {"time": 3727, "pitch": 55, "duration": 6, "velocity": 80}, {"time": 3733, "pitch": 62, "duration": 6, "velocity": 85}, {"time": 3739, "pitch": 55, "duration": 5, "velocity": 84}, {"time": 3745, "pitch": 60, "duration": 8, "velocity": 86}, {"time": 3745, "pitch": 64, "duration": 11, "velocity": 86}, {"time": 3751, "pitch": 55, "duration": 7, "velocity": 80}, {"time": 3757, "pitch": 60, "duration": 2, "velocity": 74}, {"time": 3769, "pitch": 40, "duration": 32, "velocity": 88}, {"time": 3769, "pitch": 59, "duration": 7, "velocity": 78}, {"time": 3769, "pitch": 64, "duration": 12, "velocity": 82}, {"time": 3775, "pitch": 47, "duration": 19, "velocity": 71}, {"time": 3781, "pitch": 59, "duration": 7, "velocity": 80}, {"time": 3787, "pitch": 64, "duration": 2, "velocity": 72}, {"time": 3793, "pitch": 59, "duration": 3, "velocity": 87}, {"time": 3793, "pitch": 67, "duration": 6, "velocity": 84}, {"time": 3799, "pitch": 47, "duration": 3, "velocity": 75}, {"time": 3805, "pitch": 59, "duration": 2, "velocity": 84}, {"time": 3805, "pitch": 64, "duration": 6, "velocity": 86}, {"time": 3811, "pitch": 59, "duration": 2, "velocity": 73}, {"time": 3817, "pitch": 41, "duration": 21, "velocity": 85}, {"time": 3817, "pitch": 53, "duration": 7, "velocity": 77}, {"time": 3817, "pitch": 57, "duration": 9, "velocity": 75}, {"time": 3823, "pitch": 48, "duration": 15, "velocity": 74}, {"time": 3829, "pitch": 53, "duration": 6, "velocity": 85}, {"time": 3835, "pitch": 60, "duration": 4, "velocity": 86}, {"time": 3841, "pitch": 43, "duration": 19, "velocity": 85}, {"time": 3841, "pitch": 55, "duration": 7, "velocity": 80}, {"time": 3841, "pitch": 59, "duration": 5, "velocity": 82}, {"time": 3847, "pitch": 50, "duration": 13, "velocity": 78}, {"time": 3853, "pitch": 55, "duration": 3, "velocity": 78}, {"time": 3853, "pitch": 62, "duration": 7, "velocity": 79}, {"time": 3859, "pitch": 55, "duration": 7, "velocity": 84}, {"time": 3865, "pitch": 48, "duration": 27, "velocity": 85}, {"time": 3865, "pitch": 64, "duration": 9, "velocity": 86}, {"time": 3871, "pitch": 55, "duration": 7, "velocity": 80}, {"time": 3877, "pitch": 62, "duration": 7, "velocity": 81}, {"time": 3883, "pitch": 55, "duration": 3, "velocity": 85}, {"time": 3889, "pitch": 55, "duration": 2, "velocity": 86}, {"time": 3889, "pitch": 60, "duration": 7, "velocity": 84}, {"time": 3895, "pitch": 55, "duration": 3, "velocity": 78}, {"time": 3901, "pitch": 48, "duration": 3, "velocity": 87}, {"time": 3901, "pitch": 55, "duration": 4, "velocity": 84}, {"time": 3901, "pitch": 60, "duration": 6, "velocity": 84}, {"time": 3907, "pitch": 62, "duration": 4, "velocity": 85}, {"time": 3913, "pitch": 40, "duration": 27, "velocity": 88}, {"time": 3913, "pitch": 64, "duration": 6, "velocity": 86}, {"time": 3919, "pitch": 47, "duration": 9, "velocity": 67}, {"time": 3925, "pitch": 55, "duration": 7, "velocity": 76}, {"time": 3931, "pitch": 52, "duration": 3, "velocity": 76}, {"time": 3937, "pitch": 52, "duration": 6, "velocity": 84}, {"time": 3937, "pitch": 55, "duration": 7, "velocity": 80}, {"time": 3937, "pitch": 59, "duration": 9, "velocity": 83}, {"time": 3943, "pitch": 47, "duration": 7, "velocity": 72}, {"time": 3949, "pitch": 55, "duration": 3, "velocity": 87}, {"time": 3961, "pitch": 45, "duration": 16, "velocity": 84}, {"time": 3961, "pitch": 57, "duration": 7, "velocity": 73}, {"time": 3961, "pitch": 60, "duration": 13, "velocity": 79}, {"time": 3967, "pitch": 52, "duration": 7, "velocity": 77}, {"time": 3973, "pitch": 57, "duration": 6, "velocity": 85}, {"time": 3979, "pitch": 52, "duration": 7, "velocity": 71}, {"time": 3985, "pitch": 57, "duration": 8, "velocity": 79}, {"time": 3985, "pitch": 60, "duration": 8, "velocity": 81}, {"time": 3991, "pitch": 52, "duration": 9, "velocity": 77}, {"time": 3997, "pitch": 57, "duration": 2, "velocity": 78}, {"time": 3997, "pitch": 60, "duration": 3, "velocity": 84}, {"time": 3997, "pitch": 64, "duration": 3, "velocity": 85}, {"time": 4009, "pitch": 50, "duration": 38, "velocity": 89}, {"time": 4009, "pitch": 65, "duration": 8, "velocity": 85}, {"time": 4015, "pitch": 57, "duration": 7, "velocity": 85}, {"time": 4021, "pitch": 62, "duration": 7, "velocity": 83}, {"time": 4027, "pitch": 57, "duration": 4, "velocity": 73}, {"time": 4033, "pitch": 65, "duration": 7, "velocity": 89}, {"time": 4039, "pitch": 57, "duration": 3, "velocity": 72}, {"time": 4045, "pitch": 62, "duration": 8, "velocity": 84}, {"time": 4051, "pitch": 50, "duration": 3, "velocity": 89}, {"time": 4057, "pitch": 43, "duration": 28, "velocity": 84}, {"time": 4057, "pitch": 55, "duration": 12, "velocity": 79}, {"time": 4057, "pitch": 62, "duration": 13, "velocity": 82}, {"time": 4063, "pitch": 50, "duration": 20, "velocity": 78}, {"time": 4069, "pitch": 59, "duration": 3, "velocity": 80}, {"time": 4075, "pitch": 55, "duration": 2, "velocity": 86}, {"time": 4081, "pitch": 55, "duration": 8, "velocity": 82}, {"time": 4081, "pitch": 59, "duration": 8, "velocity": 86}, {"time": 4081, "pitch": 62, "duration": 8, "velocity": 85}, {"time": 4081, "pitch": 67, "duration": 7, "velocity": 79}, {"time": 4087, "pitch": 50, "duration": 19, "velocity": 78}, {"time": 4093, "pitch": 55, "duration": 3, "velocity": 79}, {"time": 4093, "pitch": 59, "duration": 12, "velocity": 80}, {"time": 4093, "pitch": 62, "duration": 13, "velocity": 82}, {"time": 4099, "pitch": 55, "duration": 7, "velocity": 78}, {"time": 4105, "pitch": 48, "duration": 37, "velocity": 91}, {"time": 4105, "pitch": 55, "duration": 1, "velocity": 80}, {"time": 4105, "pitch": 60, "duration": 8, "velocity": 80}, {"time": 4111, "pitch": 55, "duration": 6, "velocity": 80}, {"time": 4117, "pitch": 62, "duration": 6, "velocity": 85}, {"time": 4123, "pitch": 55, "duration": 5, "velocity": 84}, {"time": 4129, "pitch": 60, "duration": 8, "velocity": 86}, {"time": 4129, "pitch": 64, "duration": 11, "velocity": 86}, {"time": 4135, "pitch": 55, "duration": 7, "velocity": 80}, {"time": 4141, "pitch": 60, "duration": 2, "velocity": 74}, {"time": 4153, "pitch": 40, "duration": 32, "velocity": 88}, {"time": 4153, "pitch": 59, "duration": 7, "velocity": 78}, {"time": 4153, "pitch": 64, "duration": 12, "velocity": 82}, {"time": 4159, "pitch": 47, "duration": 19, "velocity": 71}, {"time": 4165, "pitch": 59, "duration": 7, "velocity": 80}, {"time": 4171, "pitch": 64, "duration": 2, "velocity": 72}, {"time": 4177, "pitch": 59, "duration": 3, "velocity": 87}, {"time": 4177, "pitch": 67, "duration": 6, "velocity": 84}, {"time": 4183, "pitch": 47, "duration": 3, "velocity": 75}, {"time": 4189, "pitch": 59, "duration": 2, "velocity": 84}, {"time": 4189, "pitch": 64, "duration": 6, "velocity": 86}, {"time": 4195, "pitch": 59, "duration": 2, "velocity": 73}, {"time": 4201, "pitch": 41, "duration": 21, "velocity": 85}, {"time": 4201, "pitch": 53, "duration": 7, "velocity": 77}, {"time": 4201, "pitch": 57, "duration": 9, "velocity": 75}, {"time": 4207, "pitch": 48, "duration": 15, "velocity": 74}, {"time": 4213, "pitch": 53, "duration": 6, "velocity": 85}, {"time": 4219, "pitch": 60, "duration": 4, "velocity": 86}, {"time": 4225, "pitch": 43, "duration": 19, "velocity": 85}, {"time": 4225, "pitch": 55, "duration": 7, "velocity": 80}, {"time": 4225, "pitch": 59, "duration": 5, "velocity": 82}, {"time": 4231, "pitch": 50, "duration": 13, "velocity": 78}, {"time": 4237, "pitch": 55, "duration": 3, "velocity": 78}, {"time": 4237, "pitch": 62, "duration": 7, "velocity": 79}, {"time": 4243, "pitch": 55, "duration": 7, "velocity": 84}, {"time": 4249, "pitch": 48, "duration": 27, "velocity": 85}, {"time": 4249, "pitch": 64, "duration": 9, "velocity": 86}, {"time": 4255, "pitch": 55, "duration": 7, "velocity": 80}, {"time": 4261, "pitch": 62, "duration": 7, "velocity": 81}, {"time": 4267, "pitch": 55, "duration": 3, "velocity": 85}, {"time": 4273, "pitch": 55, "duration": 2, "velocity": 86}, {"time": 4273, "pitch": 60, "duration": 7, "velocity": 84}, {"time": 4279, "pitch": 55, "duration": 3, "velocity": 78}, {"time": 4285, "pitch": 48, "duration": 3, "velocity": 87}, {"time": 4285, "pitch": 55, "duration": 4, "velocity": 84}, {"time": 4285, "pitch": 60, "duration": 6, "velocity": 84}, {"time": 4291, "pitch": 62, "duration": 4, "velocity": 85}, {"time": 4297, "pitch": 40, "duration": 27, "velocity": 88}, {"time": 4297, "pitch": 64, "duration": 6, "velocity": 86}, {"time": 4303, "pitch": 47, "duration": 9, "velocity": 67}, {"time": 4309, "pitch": 55, "duration": 7, "velocity": 76}, {"time": 4315, "pitch": 52, "duration": 3, "velocity": 76}, {"time": 4321, "pitch": 52, "duration": 6, "velocity": 84}, {"time": 4321, "pitch": 55, "duration": 7, "velocity": 80}, {"time": 4321, "pitch": 59, "duration": 9, "velocity": 83}, {"time": 4327, "pitch": 47, "duration": 7, "velocity": 72}, {"time": 4333, "pitch": 55, "duration": 3, "velocity": 87}, {"time": 4345, "pitch": 45, "duration": 16, "velocity": 84}, {"time": 4345, "pitch": 57, "duration": 7, "velocity": 73}, {"time": 4345, "pitch": 60, "duration": 13, "velocity": 79}, {"time": 4351, "pitch": 52, "duration": 7, "velocity": 77}, {"time": 4357, "pitch": 57, "duration": 6, "velocity": 85}, {"time": 4363, "pitch": 52, "duration": 7, "velocity": 71}, {"time": 4369, "pitch": 57, "duration": 8, "velocity": 79}, {"time": 4369, "pitch": 60, "duration": 8, "velocity": 81}, {"time": 4375, "pitch": 52, "duration": 9, "velocity": 77}, {"time": 4381, "pitch": 57, "duration": 2, "velocity": 78}, {"time": 4381, "pitch": 60, "duration": 3, "velocity": 84}, {"time": 4381, "pitch": 64, "duration": 3, "velocity": 85}, {"time": 4393, "pitch": 38, "duration": 13, "velocity": 86}, {"time": 4393, "pitch": 65, "duration": 12, "velocity": 80}, {"time": 4399, "pitch": 45, "duration": 7, "velocity": 73}, {"time": 4405, "pitch": 57, "duration": 6, "velocity": 86}, {"time": 4411, "pitch": 62, "duration": 7, "velocity": 84}, {"time": 4417, "pitch": 43, "duration": 16, "velocity": 84}, {"time": 4417, "pitch": 55, "duration": 8, "velocity": 76}, {"time": 4417, "pitch": 59, "duration": 11, "velocity": 77}, {"time": 4423, "pitch": 50, "duration": 9, "velocity": 74}, {"time": 4429, "pitch": 55, "duration": 3, "velocity": 84}, {"time": 4440, "pitch": 41, "duration": 35, "velocity": 84}, {"time": 4446, "pitch": 48, "duration": 29, "velocity": 67}, {"time": 4453, "pitch": 57, "duration": 7, "velocity": 67}, {"time": 4458, "pitch": 65, "duration": 8, "velocity": 82}, {"time": 4470, "pitch": 60, "duration": 6, "velocity": 72}, {"time": 4475, "pitch": 53, "duration": 2, "velocity": 76}, {"time": 4488, "pitch": 52, "duration": 17, "velocity": 69}, {"time": 4488, "pitch": 59, "duration": 16, "velocity": 70}, {"time": 4488, "pitch": 40, "duration": 38, "velocity": 77}, {"time": 4494, "pitch": 47, "duration": 32, "velocity": 64}, {"time": 4506, "pitch": 55, "duration": 19, "velocity": 82}, {"time": 4519, "pitch": 64, "duration": 6, "velocity": 82}, {"time": 4524, "pitch": 52, "duration": 3, "velocity": 78}, {"time": 4538, "pitch": 50, "duration": 12, "velocity": 39}, {"time": 4540, "pitch": 38, "duration": 33, "velocity": 84}, {"time": 4540, "pitch": 62, "duration": 18, "velocity": 77}, {"time": 4548, "pitch": 45, "duration": 25, "velocity": 65}, {"time": 4557, "pitch": 50, "duration": 15, "velocity": 76}, {"time": 4574, "pitch": 43, "duration": 20, "velocity": 85}, {"time": 4582, "pitch": 50, "duration": 12, "velocity": 57}, {"time": 4591, "pitch": 55, "duration": 13, "velocity": 75}, {"time": 4617, "pitch": 36, "duration": 80, "velocity": 83}, {"time": 4625, "pitch": 43, "duration": 72, "velocity": 77}, {"time": 4630, "pitch": 48, "duration": 12, "velocity": 74}, {"time": 4635, "pitch": 55, "duration": 8, "velocity": 72}, {"time": 4642, "pitch": 60, "duration": 7, "velocity": 77}, {"time": 4646, "pitch": 48, "duration": 2, "velocity": 71}, {"time": 4660, "pitch": 60, "duration": 4, "velocity": 58}, {"time": 4663, "pitch": 67, "duration": 2, "velocity": 68}, {"time": 4664, "pitch": 72, "duration": 3, "velocity": 72}, {"time": 4685, "pitch": 72, "duration": 2, "velocity": 27}, {"time": 4685, "pitch": 76, "duration": 2, "velocity": 69}, {"time": 4686, "pitch": 84, "duration": 4, "velocity": 69}], "annotations": [{"time": 26, "annotation": {"number": 64, "value": 127}, "group": "control_change"}, {"time": 26, "annotation": {"number": 64, "value": 0}, "group": "control_change"}, {"time": 72, "annotation": {"number": 64, "value": 0}, "group": "control_change"}, {"time": 76, "annotation": {"number": 64, "value": 127}, "group": "control_change"}, {"time": 120, "annotation": {"number": 64, "value": 0}, "group": "control_change"}, {"time": 122, "annotation": {"number": 64, "value": 127}, "group": "control_change"}, {"time": 122, "annotation": {"number": 64, "value": 0}, "group": "control_change"}, {"time": 123, "annotation": {"number": 64, "value": 127}, "group": "control_change"}, {"time": 168, "annotation": {"number": 64, "value": 0}, "group": "control_change"}, {"time": 172, "annotation": {"number": 64, "value": 127}, "group": "control_change"}, {"time": 215, "annotation": {"number": 64, "value": 0}, "group": "control_change"}, {"time": 219, "annotation": {"number": 64, "value": 127}, "group": "control_change"}, {"time": 265, "annotation": {"number": 64, "value": 0}, "group": "control_change"}, {"time": 267, "annotation": {"number": 64, "value": 127}, "group": "control_change"}, {"time": 267, "annotation": {"number": 64, "value": 0}, "group": "control_change"}, {"time": 268, "annotation": {"number": 64, "value": 127}, "group": "control_change"}, {"time": 311, "annotation": {"number": 64, "value": 0}, "group": "control_change"}, {"time": 313, "annotation": {"number": 64, "value": 127}, "group": "control_change"}, {"time": 323, "annotation": {"number": 64, "value": 0}, "group": "control_change"}, {"time": 325, "annotation": {"number": 64, "value": 127}, "group": "control_change"}, {"time": 336, "annotation": {"number": 64, "value": 0}, "group": "control_change"}, {"time": 363, "annotation": {"number": 64, "value": 127}, "group": "control_change"}, {"time": 408, "annotation": {"number": 64, "value": 0}, "group": "control_change"}, {"time": 409, "annotation": {"number": 64, "value": 127}, "group": "control_change"}, {"time": 455, "annotation": {"number": 64, "value": 0}, "group": "control_change"}, {"time": 459, "annotation": {"number": 64, "value": 127}, "group": "control_change"}, {"time": 502, "annotation": {"number": 64, "value": 0}, "group": "control_change"}, {"time": 505, "annotation": {"number": 64, "value": 127}, "group": "control_change"}, {"time": 551, "annotation": {"number": 64, "value": 0}, "group": "control_change"}, {"time": 556, "annotation": {"number": 64, "value": 127}, "group": "control_change"}, {"time": 599, "annotation": {"number": 64, "value": 0}, "group": "control_change"}, {"time": 603, "annotation": {"number": 64, "value": 127}, "group": "control_change"}, {"time": 648, "annotation": {"number": 64, "value": 0}, "group": "control_change"}, {"time": 650, "annotation": {"number": 64, "value": 127}, "group": "control_change"}, {"time": 697, "annotation": {"number": 64, "value": 0}, "group": "control_change"}, {"time": 701, "annotation": {"number": 64, "value": 127}, "group": "control_change"}, {"time": 745, "annotation": {"number": 64, "value": 0}, "group": "control_change"}, {"time": 748, "annotation": {"number": 64, "value": 127}, "group": "control_change"}, {"time": 768, "annotation": {"number": 64, "value": 0}, "group": "control_change"}, {"time": 775, "annotation": {"number": 64, "value": 127}, "group": "control_change"}, {"time": 792, "annotation": {"number": 64, "value": 0}, "group": "control_change"}, {"time": 796, "annotation": {"number": 64, "value": 127}, "group": "control_change"}, {"time": 839, "annotation": {"number": 64, "value": 0}, "group": "control_change"}, {"time": 847, "annotation": {"number": 64, "value": 127}, "group": "control_change"}, {"time": 888, "annotation": {"number": 64, "value": 0}, "group": "control_change"}, {"time": 889, "annotation": {"number": 64, "value": 127}, "group": "control_change"}, {"time": 935, "annotation": {"number": 64, "value": 0}, "group": "control_change"}, {"time": 940, "annotation": {"number": 64, "value": 127}, "group": "control_change"}, {"time": 983, "annotation": {"number": 64, "value": 0}, "group": "control_change"}, {"time": 987, "annotation": {"number": 64, "value": 127}, "group": "control_change"}, {"time": 1032, "annotation": {"number": 64, "value": 0}, "group": "control_change"}, {"time": 1034, "annotation": {"number": 64, "value": 127}, "group": "control_change"}, {"time": 1081, "annotation": {"number": 64, "value": 0}, "group": "control_change"}, {"time": 1085, "annotation": {"number": 64, "value": 127}, "group": "control_change"}, {"time": 1129, "annotation": {"number": 64, "value": 0}, "group": "control_change"}, {"time": 1132, "annotation": {"number": 64, "value": 127}, "group": "control_change"}, {"time": 1152, "annotation": {"number": 64, "value": 0}, "group": "control_change"}, {"time": 1159, "annotation": {"number": 64, "value": 127}, "group": "control_change"}, {"time": 1176, "annotation": {"number": 64, "value": 0}, "group": "control_change"}, {"time": 1180, "annotation": {"number": 64, "value": 127}, "group": "control_change"}, {"time": 1223, "annotation": {"number": 64, "value": 0}, "group": "control_change"}, {"time": 1231, "annotation": {"number": 64, "value": 127}, "group": "control_change"}, {"time": 1272, "annotation": {"number": 64, "value": 0}, "group": "control_change"}, {"time": 1297, "annotation": {"number": 64, "value": 0}, "group": "control_change"}, {"time": 1298, "annotation": {"number": 64, "value": 127}, "group": "control_change"}, {"time": 1320, "annotation": {"number": 64, "value": 0}, "group": "control_change"}, {"time": 1323, "annotation": {"number": 64, "value": 127}, "group": "control_change"}, {"time": 1368, "annotation": {"number": 64, "value": 0}, "group": "control_change"}, {"time": 1371, "annotation": {"number": 64, "value": 127}, "group": "control_change"}, {"time": 1392, "annotation": {"number": 64, "value": 0}, "group": "control_change"}, {"time": 1395, "annotation": {"number": 64, "value": 127}, "group": "control_change"}, {"time": 1414, "annotation": {"number": 64, "value": 0}, "group": "control_change"}, {"time": 1417, "annotation": {"number": 64, "value": 127}, "group": "control_change"}, {"time": 1463, "annotation": {"number": 64, "value": 0}, "group": "control_change"}, {"time": 1466, "annotation": {"number": 64, "value": 127}, "group": "control_change"}, {"time": 1511, "annotation": {"number": 64, "value": 0}, "group": "control_change"}, {"time": 1518, "annotation": {"number": 64, "value": 127}, "group": "control_change"}, {"time": 1560, "annotation": {"number": 64, "value": 0}, "group": "control_change"}, {"time": 1562, "annotation": {"number": 64, "value": 127}, "group": "control_change"}, {"time": 1609, "annotation": {"number": 64, "value": 0}, "group": "control_change"}, {"time": 1610, "annotation": {"number": 64, "value": 127}, "group": "control_change"}, {"time": 1647, "annotation": {"number": 64, "value": 0}, "group": "control_change"}, {"time": 1681, "annotation": {"number": 64, "value": 0}, "group": "control_change"}, {"time": 1682, "annotation": {"number": 64, "value": 127}, "group": "control_change"}, {"time": 1704, "annotation": {"number": 64, "value": 0}, "group": "control_change"}, {"time": 1707, "annotation": {"number": 64, "value": 127}, "group": "control_change"}, {"time": 1752, "annotation": {"number": 64, "value": 0}, "group": "control_change"}, {"time": 1755, "annotation": {"number": 64, "value": 127}, "group": "control_change"}, {"time": 1776, "annotation": {"number": 64, "value": 0}, "group": "control_change"}, {"time": 1779, "annotation": {"number": 64, "value": 127}, "group": "control_change"}, {"time": 1798, "annotation": {"number": 64, "value": 0}, "group": "control_change"}, {"time": 1801, "annotation": {"number": 64, "value": 127}, "group": "control_change"}, {"time": 1847, "annotation": {"number": 64, "value": 0}, "group": "control_change"}, {"time": 1850, "annotation": {"number": 64, "value": 127}, "group": "control_change"}, {"time": 1895, "annotation": {"number": 64, "value": 0}, "group": "control_change"}, {"time": 1902, "annotation": {"number": 64, "value": 127}, "group": "control_change"}, {"time": 1944, "annotation": {"number": 64, "value": 0}, "group": "control_change"}, {"time": 1947, "annotation": {"number": 64, "value": 127}, "group": "control_change"}, {"time": 1969, "annotation": {"number": 64, "value": 0}, "group": "control_change"}, {"time": 1974, "annotation": {"number": 64, "value": 127}, "group": "control_change"}, {"time": 1991, "annotation": {"number": 64, "value": 0}, "group": "control_change"}, {"time": 1994, "annotation": {"number": 64, "value": 127}, "group": "control_change"}, {"time": 2041, "annotation": {"number": 64, "value": 0}, "group": "control_change"}, {"time": 2044, "annotation": {"number": 64, "value": 127}, "group": "control_change"}, {"time": 2089, "annotation": {"number": 64, "value": 0}, "group": "control_change"}, {"time": 2095, "annotation": {"number": 64, "value": 127}, "group": "control_change"}, {"time": 2136, "annotation": {"number": 64, "value": 0}, "group": "control_change"}, {"time": 2141, "annotation": {"number": 64, "value": 127}, "group": "control_change"}, {"time": 2184, "annotation": {"number": 64, "value": 0}, "group": "control_change"}, {"time": 2187, "annotation": {"number": 64, "value": 127}, "group": "control_change"}, {"time": 2232, "annotation": {"number": 64, "value": 0}, "group": "control_change"}, {"time": 2234, "annotation": {"number": 64, "value": 127}, "group": "control_change"}, {"time": 2280, "annotation": {"number": 64, "value": 0}, "group": "control_change"}, {"time": 2282, "annotation": {"number": 64, "value": 127}, "group": "control_change"}, {"time": 2304, "annotation": {"number": 64, "value": 0}, "group": "control_change"}, {"time": 2307, "annotation": {"number": 64, "value": 127}, "group": "control_change"}, {"time": 2327, "annotation": {"number": 64, "value": 0}, "group": "control_change"}, {"time": 2330, "annotation": {"number": 64, "value": 127}, "group": "control_change"}, {"time": 2352, "annotation": {"number": 64, "value": 0}, "group": "control_change"}, {"time": 2354, "annotation": {"number": 64, "value": 127}, "group": "control_change"}, {"time": 2375, "annotation": {"number": 64, "value": 0}, "group": "control_change"}, {"time": 2379, "annotation": {"number": 64, "value": 127}, "group": "control_change"}, {"time": 2424, "annotation": {"number": 64, "value": 0}, "group": "control_change"}, {"time": 2427, "annotation": {"number": 64, "value": 127}, "group": "control_change"}, {"time": 2467, "annotation": {"number": 64, "value": 0}, "group": "control_change"}, {"time": 2473, "annotation": {"number": 64, "value": 127}, "group": "control_change"}, {"time": 2519, "annotation": {"number": 64, "value": 0}, "group": "control_change"}, {"time": 2524, "annotation": {"number": 64, "value": 127}, "group": "control_change"}, {"time": 2567, "annotation": {"number": 64, "value": 0}, "group": "control_change"}, {"time": 2571, "annotation": {"number": 64, "value": 127}, "group": "control_change"}, {"time": 2616, "annotation": {"number": 64, "value": 0}, "group": "control_change"}, {"time": 2618, "annotation": {"number": 64, "value": 127}, "group": "control_change"}, {"time": 2665, "annotation": {"number": 64, "value": 0}, "group": "control_change"}, {"time": 2669, "annotation": {"number": 64, "value": 127}, "group": "control_change"}, {"time": 2713, "annotation": {"number": 64, "value": 0}, "group": "control_change"}, {"time": 2716, "annotation": {"number": 64, "value": 127}, "group": "control_change"}, {"time": 2736, "annotation": {"number": 64, "value": 0}, "group": "control_change"}, {"time": 2743, "annotation": {"number": 64, "value": 127}, "group": "control_change"}, {"time": 2760, "annotation": {"number": 64, "value": 0}, "group": "control_change"}, {"time": 2764, "annotation": {"number": 64, "value": 127}, "group": "control_change"}, {"time": 2807, "annotation": {"number": 64, "value": 0}, "group": "control_change"}, {"time": 2815, "annotation": {"number": 64, "value": 127}, "group": "control_change"}, {"time": 2856, "annotation": {"number": 64, "value": 0}, "group": "control_change"}, {"time": 2881, "annotation": {"number": 64, "value": 0}, "group": "control_change"}, {"time": 2882, "annotation": {"number": 64, "value": 127}, "group": "control_change"}, {"time": 2904, "annotation": {"number": 64, "value": 0}, "group": "control_change"}, {"time": 2907, "annotation": {"number": 64, "value": 127}, "group": "control_change"}, {"time": 2952, "annotation": {"number": 64, "value": 0}, "group": "control_change"}, {"time": 2955, "annotation": {"number": 64, "value": 127}, "group": "control_change"}, {"time": 2976, "annotation": {"number": 64, "value": 0}, "group": "control_change"}, {"time": 2979, "annotation": {"number": 64, "value": 127}, "group": "control_change"}, {"time": 2998, "annotation": {"number": 64, "value": 0}, "group": "control_change"}, {"time": 3001, "annotation": {"number": 64, "value": 127}, "group": "control_change"}, {"time": 3047, "annotation": {"number": 64, "value": 0}, "group": "control_change"}, {"time": 3050, "annotation": {"number": 64, "value": 127}, "group": "control_change"}, {"time": 3095, "annotation": {"number": 64, "value": 0}, "group": "control_change"}, {"time": 3102, "annotation": {"number": 64, "value": 127}, "group": "control_change"}, {"time": 3144, "annotation": {"number": 64, "value": 0}, "group": "control_change"}, {"time": 3146, "annotation": {"number": 64, "value": 127}, "group": "control_change"}, {"time": 3193, "annotation": {"number": 64, "value": 0}, "group": "control_change"}, {"time": 3194, "annotation": {"number": 64, "value": 127}, "group": "control_change"}, {"time": 3231, "annotation": {"number": 64, "value": 0}, "group": "control_change"}, {"time": 3265, "annotation": {"number": 64, "value": 0}, "group": "control_change"}, {"time": 3266, "annotation": {"number": 64, "value": 127}, "group": "control_change"}, {"time": 3288, "annotation": {"number": 64, "value": 0}, "group": "control_change"}, {"time": 3291, "annotation": {"number": 64, "value": 127}, "group": "control_change"}, {"time": 3336, "annotation": {"number": 64, "value": 0}, "group": "control_change"}, {"time": 3339, "annotation": {"number": 64, "value": 127}, "group": "control_change"}, {"time": 3360, "annotation": {"number": 64, "value": 0}, "group": "control_change"}, {"time": 3363, "annotation": {"number": 64, "value": 127}, "group": "control_change"}, {"time": 3382, "annotation": {"number": 64, "value": 0}, "group": "control_change"}, {"time": 3385, "annotation": {"number": 64, "value": 127}, "group": "control_change"}, {"time": 3431, "annotation": {"number": 64, "value": 0}, "group": "control_change"}, {"time": 3434, "annotation": {"number": 64, "value": 127}, "group": "control_change"}, {"time": 3479, "annotation": {"number": 64, "value": 0}, "group": "control_change"}, {"time": 3486, "annotation": {"number": 64, "value": 127}, "group": "control_change"}, {"time": 3528, "annotation": {"number": 64, "value": 0}, "group": "control_change"}, {"time": 3531, "annotation": {"number": 64, "value": 127}, "group": "control_change"}, {"time": 3553, "annotation": {"number": 64, "value": 0}, "group": "control_change"}, {"time": 3558, "annotation": {"number": 64, "value": 127}, "group": "control_change"}, {"time": 3575, "annotation": {"number": 64, "value": 0}, "group": "control_change"}, {"time": 3578, "annotation": {"number": 64, "value": 127}, "group": "control_change"}, {"time": 3625, "annotation": {"number": 64, "value": 0}, "group": "control_change"}, {"time": 3626, "annotation": {"number": 64, "value": 127}, "group": "control_change"}, {"time": 3713, "annotation": {"number": 64, "value": 0}, "group": "control_change"}, {"time": 3745, "annotation": {"number": 64, "value": 0}, "group": "control_change"}, {"time": 3746, "annotation": {"number": 64, "value": 127}, "group": "control_change"}, {"time": 3768, "annotation": {"number": 64, "value": 0}, "group": "control_change"}, {"time": 3771, "annotation": {"number": 64, "value": 127}, "group": "control_change"}, {"time": 3816, "annotation": {"number": 64, "value": 0}, "group": "control_change"}, {"time": 3819, "annotation": {"number": 64, "value": 127}, "group": "control_change"}, {"time": 3840, "annotation": {"number": 64, "value": 0}, "group": "control_change"}, {"time": 3843, "annotation": {"number": 64, "value": 127}, "group": "control_change"}, {"time": 3862, "annotation": {"number": 64, "value": 0}, "group": "control_change"}, {"time": 3865, "annotation": {"number": 64, "value": 127}, "group": "control_change"}, {"time": 3911, "annotation": {"number": 64, "value": 0}, "group": "control_change"}, {"time": 3914, "annotation": {"number": 64, "value": 127}, "group": "control_change"}, {"time": 3959, "annotation": {"number": 64, "value": 0}, "group": "control_change"}, {"time": 3966, "annotation": {"number": 64, "value": 127}, "group": "control_change"}, {"time": 4008, "annotation": {"number": 64, "value": 0}, "group": "control_change"}, {"time": 4010, "annotation": {"number": 64, "value": 127}, "group": "control_change"}, {"time": 4057, "annotation": {"number": 64, "value": 0}, "group": "control_change"}, {"time": 4058, "annotation": {"number": 64, "value": 127}, "group": "control_change"}, {"time": 4095, "annotation": {"number": 64, "value": 0}, "group": "control_change"}, {"time": 4129, "annotation": {"number": 64, "value": 0}, "group": "control_change"}, {"time": 4130, "annotation": {"number": 64, "value": 127}, "group": "control_change"}, {"time": 4152, "annotation": {"number": 64, "value": 0}, "group": "control_change"}, {"time": 4155, "annotation": {"number": 64, "value": 127}, "group": "control_change"}, {"time": 4200, "annotation": {"number": 64, "value": 0}, "group": "control_change"}, {"time": 4203, "annotation": {"number": 64, "value": 127}, "group": "control_change"}, {"time": 4224, "annotation": {"number": 64, "value": 0}, "group": "control_change"}, {"time": 4227, "annotation": {"number": 64, "value": 127}, "group": "control_change"}, {"time": 4246, "annotation": {"number": 64, "value": 0}, "group": "control_change"}, {"time": 4249, "annotation": {"number": 64, "value": 127}, "group": "control_change"}, {"time": 4295, "annotation": {"number": 64, "value": 0}, "group": "control_change"}, {"time": 4298, "annotation": {"number": 64, "value": 127}, "group": "control_change"}, {"time": 4343, "annotation": {"number": 64, "value": 0}, "group": "control_change"}, {"time": 4350, "annotation": {"number": 64, "value": 127}, "group": "control_change"}, {"time": 4392, "annotation": {"number": 64, "value": 0}, "group": "control_change"}, {"time": 4395, "annotation": {"number": 64, "value": 127}, "group": "control_change"}, {"time": 4417, "annotation": {"number": 64, "value": 0}, "group": "control_change"}, {"time": 4422, "annotation": {"number": 64, "value": 127}, "group": "control_change"}, {"time": 4439, "annotation": {"number": 64, "value": 0}, "group": "control_change"}, {"time": 4443, "annotation": {"number": 64, "value": 127}, "group": "control_change"}, {"time": 4486, "annotation": {"number": 64, "value": 0}, "group": "control_change"}, {"time": 4491, "annotation": {"number": 64, "value": 127}, "group": "control_change"}, {"time": 4541, "annotation": {"number": 64, "value": 127}, "group": "control_change"}, {"time": 4569, "annotation": {"number": 64, "value": 0}, "group": "control_change"}, {"time": 4574, "annotation": {"number": 64, "value": 0}, "group": "control_change"}, {"time": 4578, "annotation": {"number": 64, "value": 127}, "group": "control_change"}, {"time": 4624, "annotation": {"number": 64, "value": 0}, "group": "control_change"}, {"time": 4627, "annotation": {"number": 64, "value": 127}, "group": "control_change"}]}]}