{"metadata": {"schema_version": "0.2", "title": "None", "source_filename": "826.mid", "source_format": "midi"}, "resolution": 12, "tempos": [{"time": 0, "qpm": 65.00013541694878}, {"time": 707, "qpm": 65.09999902350002}, {"time": 1120, "qpm": 65.00013541694878}, {"time": 1272, "qpm": 65.09999902350002}, {"time": 2004, "qpm": 64.75020450272922}, {"time": 2051, "qpm": 65.00013541694878}, {"time": 2280, "qpm": 65.09999902350002}], "time_signatures": [{"time": 0, "numerator": 1, "denominator": 4}], "tracks": [{"program": 0, "is_drum": false, "name": "MELODY", "notes": [{"time": 429, "pitch": 71, "duration": 5, "velocity": 85}, {"time": 435, "pitch": 69, "duration": 3, "velocity": 81}, {"time": 438, "pitch": 66, "duration": 13, "velocity": 81}, {"time": 453, "pitch": 71, "duration": 5, "velocity": 81}, {"time": 459, "pitch": 69, "duration": 2, "velocity": 81}, {"time": 462, "pitch": 66, "duration": 15, "velocity": 78}, {"time": 483, "pitch": 66, "duration": 3, "velocity": 81}, {"time": 486, "pitch": 69, "duration": 3, "velocity": 82}, {"time": 489, "pitch": 71, "duration": 2, "velocity": 85}, {"time": 492, "pitch": 71, "duration": 2, "velocity": 82}, {"time": 495, "pitch": 71, "duration": 2, "velocity": 81}, {"time": 498, "pitch": 71, "duration": 3, "velocity": 81}, {"time": 501, "pitch": 71, "duration": 3, "velocity": 81}, {"time": 504, "pitch": 73, "duration": 5, "velocity": 82}, {"time": 510, "pitch": 71, "duration": 3, "velocity": 82}, {"time": 513, "pitch": 69, "duration": 5, "velocity": 79}, {"time": 519, "pitch": 66, "duration": 6, "velocity": 79}, {"time": 531, "pitch": 66, "duration": 3, "velocity": 79}, {"time": 534, "pitch": 69, "duration": 3, "velocity": 82}, {"time": 537, "pitch": 71, "duration": 2, "velocity": 76}, {"time": 540, "pitch": 71, "duration": 2, "velocity": 83}, {"time": 543, "pitch": 71, "duration": 2, "velocity": 81}, {"time": 546, "pitch": 71, "duration": 3, "velocity": 83}, {"time": 549, "pitch": 78, "duration": 5, "velocity": 83}, {"time": 555, "pitch": 71, "duration": 2, "velocity": 81}, {"time": 558, "pitch": 71, "duration": 9, "velocity": 82}, {"time": 567, "pitch": 69, "duration": 10, "velocity": 82}, {"time": 585, "pitch": 71, "duration": 5, "velocity": 85}, {"time": 591, "pitch": 71, "duration": 5, "velocity": 85}, {"time": 597, "pitch": 78, "duration": 3, "velocity": 82}, {"time": 600, "pitch": 71, "duration": 9, "velocity": 83}, {"time": 609, "pitch": 69, "duration": 13, "velocity": 83}, {"time": 621, "pitch": 71, "duration": 5, "velocity": 85}, {"time": 627, "pitch": 69, "duration": 3, "velocity": 81}, {"time": 630, "pitch": 66, "duration": 13, "velocity": 81}, {"time": 645, "pitch": 71, "duration": 5, "velocity": 81}, {"time": 651, "pitch": 69, "duration": 2, "velocity": 81}, {"time": 654, "pitch": 66, "duration": 15, "velocity": 78}, {"time": 675, "pitch": 66, "duration": 3, "velocity": 81}, {"time": 678, "pitch": 69, "duration": 3, "velocity": 82}, {"time": 681, "pitch": 71, "duration": 2, "velocity": 85}, {"time": 684, "pitch": 71, "duration": 2, "velocity": 82}, {"time": 687, "pitch": 71, "duration": 2, "velocity": 81}, {"time": 690, "pitch": 71, "duration": 3, "velocity": 81}, {"time": 693, "pitch": 71, "duration": 3, "velocity": 81}, {"time": 696, "pitch": 73, "duration": 5, "velocity": 82}, {"time": 702, "pitch": 71, "duration": 3, "velocity": 82}, {"time": 705, "pitch": 69, "duration": 5, "velocity": 79}, {"time": 711, "pitch": 66, "duration": 6, "velocity": 79}, {"time": 723, "pitch": 66, "duration": 3, "velocity": 79}, {"time": 726, "pitch": 69, "duration": 3, "velocity": 82}, {"time": 729, "pitch": 71, "duration": 2, "velocity": 76}, {"time": 732, "pitch": 71, "duration": 2, "velocity": 83}, {"time": 735, "pitch": 71, "duration": 2, "velocity": 81}, {"time": 738, "pitch": 71, "duration": 3, "velocity": 83}, {"time": 741, "pitch": 78, "duration": 5, "velocity": 83}, {"time": 747, "pitch": 71, "duration": 2, "velocity": 81}, {"time": 750, "pitch": 71, "duration": 9, "velocity": 82}, {"time": 759, "pitch": 69, "duration": 10, "velocity": 82}, {"time": 777, "pitch": 71, "duration": 5, "velocity": 85}, {"time": 783, "pitch": 71, "duration": 5, "velocity": 85}, {"time": 789, "pitch": 78, "duration": 3, "velocity": 82}, {"time": 792, "pitch": 71, "duration": 9, "velocity": 83}, {"time": 801, "pitch": 69, "duration": 13, "velocity": 83}, {"time": 837, "pitch": 74, "duration": 5, "velocity": 98}, {"time": 843, "pitch": 76, "duration": 5, "velocity": 84}, {"time": 849, "pitch": 78, "duration": 2, "velocity": 92}, {"time": 852, "pitch": 78, "duration": 2, "velocity": 83}, {"time": 855, "pitch": 78, "duration": 2, "velocity": 86}, {"time": 858, "pitch": 78, "duration": 2, "velocity": 85}, {"time": 861, "pitch": 71, "duration": 5, "velocity": 86}, {"time": 867, "pitch": 78, "duration": 2, "velocity": 85}, {"time": 870, "pitch": 78, "duration": 9, "velocity": 83}, {"time": 879, "pitch": 76, "duration": 13, "velocity": 86}, {"time": 897, "pitch": 76, "duration": 2, "velocity": 86}, {"time": 900, "pitch": 76, "duration": 2, "velocity": 83}, {"time": 903, "pitch": 76, "duration": 2, "velocity": 83}, {"time": 906, "pitch": 76, "duration": 2, "velocity": 85}, {"time": 909, "pitch": 76, "duration": 3, "velocity": 85}, {"time": 912, "pitch": 78, "duration": 6, "velocity": 84}, {"time": 918, "pitch": 76, "duration": 2, "velocity": 88}, {"time": 921, "pitch": 74, "duration": 6, "velocity": 88}, {"time": 927, "pitch": 71, "duration": 10, "velocity": 82}, {"time": 945, "pitch": 74, "duration": 2, "velocity": 92}, {"time": 948, "pitch": 74, "duration": 2, "velocity": 86}, {"time": 951, "pitch": 74, "duration": 2, "velocity": 85}, {"time": 954, "pitch": 74, "duration": 3, "velocity": 85}, {"time": 957, "pitch": 69, "duration": 3, "velocity": 84}, {"time": 960, "pitch": 74, "duration": 5, "velocity": 88}, {"time": 966, "pitch": 76, "duration": 9, "velocity": 86}, {"time": 975, "pitch": 76, "duration": 5, "velocity": 84}, {"time": 981, "pitch": 73, "duration": 2, "velocity": 77}, {"time": 984, "pitch": 71, "duration": 3, "velocity": 79}, {"time": 987, "pitch": 69, "duration": 6, "velocity": 83}, {"time": 993, "pitch": 71, "duration": 31, "velocity": 82}, {"time": 1029, "pitch": 74, "duration": 5, "velocity": 98}, {"time": 1035, "pitch": 76, "duration": 5, "velocity": 84}, {"time": 1041, "pitch": 78, "duration": 2, "velocity": 92}, {"time": 1044, "pitch": 78, "duration": 2, "velocity": 83}, {"time": 1047, "pitch": 78, "duration": 2, "velocity": 86}, {"time": 1050, "pitch": 78, "duration": 2, "velocity": 85}, {"time": 1053, "pitch": 71, "duration": 5, "velocity": 86}, {"time": 1059, "pitch": 78, "duration": 2, "velocity": 85}, {"time": 1062, "pitch": 78, "duration": 9, "velocity": 83}, {"time": 1071, "pitch": 76, "duration": 13, "velocity": 86}, {"time": 1089, "pitch": 76, "duration": 2, "velocity": 86}, {"time": 1092, "pitch": 76, "duration": 2, "velocity": 83}, {"time": 1095, "pitch": 76, "duration": 2, "velocity": 83}, {"time": 1098, "pitch": 76, "duration": 2, "velocity": 85}, {"time": 1101, "pitch": 76, "duration": 3, "velocity": 85}, {"time": 1104, "pitch": 78, "duration": 6, "velocity": 84}, {"time": 1110, "pitch": 76, "duration": 2, "velocity": 88}, {"time": 1113, "pitch": 74, "duration": 6, "velocity": 88}, {"time": 1119, "pitch": 71, "duration": 10, "velocity": 82}, {"time": 1137, "pitch": 74, "duration": 2, "velocity": 92}, {"time": 1140, "pitch": 74, "duration": 2, "velocity": 86}, {"time": 1143, "pitch": 74, "duration": 2, "velocity": 85}, {"time": 1146, "pitch": 74, "duration": 3, "velocity": 85}, {"time": 1149, "pitch": 69, "duration": 3, "velocity": 84}, {"time": 1152, "pitch": 74, "duration": 5, "velocity": 88}, {"time": 1158, "pitch": 76, "duration": 9, "velocity": 86}, {"time": 1167, "pitch": 76, "duration": 5, "velocity": 84}, {"time": 1173, "pitch": 73, "duration": 2, "velocity": 77}, {"time": 1176, "pitch": 71, "duration": 3, "velocity": 79}, {"time": 1179, "pitch": 69, "duration": 6, "velocity": 83}, {"time": 1185, "pitch": 71, "duration": 31, "velocity": 82}, {"time": 1269, "pitch": 71, "duration": 5, "velocity": 85}, {"time": 1275, "pitch": 69, "duration": 3, "velocity": 81}, {"time": 1278, "pitch": 66, "duration": 13, "velocity": 81}, {"time": 1293, "pitch": 71, "duration": 5, "velocity": 81}, {"time": 1299, "pitch": 69, "duration": 2, "velocity": 81}, {"time": 1302, "pitch": 66, "duration": 15, "velocity": 78}, {"time": 1323, "pitch": 66, "duration": 3, "velocity": 81}, {"time": 1326, "pitch": 69, "duration": 3, "velocity": 82}, {"time": 1329, "pitch": 71, "duration": 2, "velocity": 85}, {"time": 1332, "pitch": 71, "duration": 2, "velocity": 82}, {"time": 1335, "pitch": 71, "duration": 2, "velocity": 81}, {"time": 1338, "pitch": 71, "duration": 3, "velocity": 81}, {"time": 1341, "pitch": 71, "duration": 3, "velocity": 81}, {"time": 1344, "pitch": 73, "duration": 5, "velocity": 82}, {"time": 1350, "pitch": 71, "duration": 3, "velocity": 82}, {"time": 1353, "pitch": 69, "duration": 5, "velocity": 79}, {"time": 1359, "pitch": 66, "duration": 6, "velocity": 79}, {"time": 1371, "pitch": 66, "duration": 3, "velocity": 79}, {"time": 1374, "pitch": 69, "duration": 3, "velocity": 82}, {"time": 1377, "pitch": 71, "duration": 2, "velocity": 76}, {"time": 1380, "pitch": 71, "duration": 2, "velocity": 83}, {"time": 1383, "pitch": 71, "duration": 2, "velocity": 81}, {"time": 1386, "pitch": 71, "duration": 3, "velocity": 83}, {"time": 1389, "pitch": 78, "duration": 5, "velocity": 83}, {"time": 1395, "pitch": 71, "duration": 2, "velocity": 81}, {"time": 1398, "pitch": 71, "duration": 9, "velocity": 82}, {"time": 1407, "pitch": 69, "duration": 10, "velocity": 82}, {"time": 1425, "pitch": 71, "duration": 5, "velocity": 85}, {"time": 1431, "pitch": 71, "duration": 5, "velocity": 85}, {"time": 1437, "pitch": 78, "duration": 3, "velocity": 82}, {"time": 1440, "pitch": 71, "duration": 9, "velocity": 83}, {"time": 1449, "pitch": 69, "duration": 13, "velocity": 83}, {"time": 1461, "pitch": 71, "duration": 5, "velocity": 85}, {"time": 1467, "pitch": 69, "duration": 3, "velocity": 81}, {"time": 1470, "pitch": 66, "duration": 13, "velocity": 81}, {"time": 1485, "pitch": 71, "duration": 5, "velocity": 81}, {"time": 1491, "pitch": 69, "duration": 2, "velocity": 81}, {"time": 1494, "pitch": 66, "duration": 15, "velocity": 78}, {"time": 1515, "pitch": 66, "duration": 3, "velocity": 81}, {"time": 1518, "pitch": 69, "duration": 3, "velocity": 82}, {"time": 1521, "pitch": 71, "duration": 2, "velocity": 85}, {"time": 1524, "pitch": 71, "duration": 2, "velocity": 82}, {"time": 1527, "pitch": 71, "duration": 2, "velocity": 81}, {"time": 1530, "pitch": 71, "duration": 3, "velocity": 81}, {"time": 1533, "pitch": 71, "duration": 3, "velocity": 81}, {"time": 1536, "pitch": 73, "duration": 5, "velocity": 82}, {"time": 1542, "pitch": 71, "duration": 3, "velocity": 82}, {"time": 1545, "pitch": 69, "duration": 5, "velocity": 79}, {"time": 1551, "pitch": 66, "duration": 6, "velocity": 79}, {"time": 1563, "pitch": 66, "duration": 3, "velocity": 79}, {"time": 1566, "pitch": 69, "duration": 3, "velocity": 82}, {"time": 1569, "pitch": 71, "duration": 2, "velocity": 76}, {"time": 1572, "pitch": 71, "duration": 2, "velocity": 83}, {"time": 1575, "pitch": 71, "duration": 2, "velocity": 81}, {"time": 1578, "pitch": 71, "duration": 3, "velocity": 83}, {"time": 1581, "pitch": 78, "duration": 5, "velocity": 83}, {"time": 1587, "pitch": 71, "duration": 2, "velocity": 81}, {"time": 1590, "pitch": 71, "duration": 9, "velocity": 82}, {"time": 1599, "pitch": 69, "duration": 10, "velocity": 82}, {"time": 1617, "pitch": 71, "duration": 5, "velocity": 85}, {"time": 1623, "pitch": 71, "duration": 5, "velocity": 85}, {"time": 1629, "pitch": 78, "duration": 3, "velocity": 82}, {"time": 1632, "pitch": 71, "duration": 9, "velocity": 83}, {"time": 1641, "pitch": 69, "duration": 13, "velocity": 83}, {"time": 1653, "pitch": 74, "duration": 5, "velocity": 98}, {"time": 1659, "pitch": 76, "duration": 5, "velocity": 84}, {"time": 1665, "pitch": 78, "duration": 2, "velocity": 92}, {"time": 1668, "pitch": 78, "duration": 2, "velocity": 83}, {"time": 1671, "pitch": 78, "duration": 2, "velocity": 86}, {"time": 1674, "pitch": 78, "duration": 2, "velocity": 85}, {"time": 1677, "pitch": 71, "duration": 5, "velocity": 86}, {"time": 1683, "pitch": 78, "duration": 2, "velocity": 85}, {"time": 1686, "pitch": 78, "duration": 9, "velocity": 83}, {"time": 1695, "pitch": 76, "duration": 13, "velocity": 86}, {"time": 1713, "pitch": 76, "duration": 2, "velocity": 86}, {"time": 1716, "pitch": 76, "duration": 2, "velocity": 83}, {"time": 1719, "pitch": 76, "duration": 2, "velocity": 83}, {"time": 1722, "pitch": 76, "duration": 2, "velocity": 85}, {"time": 1725, "pitch": 76, "duration": 3, "velocity": 85}, {"time": 1728, "pitch": 78, "duration": 6, "velocity": 84}, {"time": 1734, "pitch": 76, "duration": 2, "velocity": 88}, {"time": 1737, "pitch": 74, "duration": 6, "velocity": 88}, {"time": 1743, "pitch": 71, "duration": 10, "velocity": 82}, {"time": 1761, "pitch": 74, "duration": 2, "velocity": 92}, {"time": 1764, "pitch": 74, "duration": 2, "velocity": 86}, {"time": 1767, "pitch": 74, "duration": 2, "velocity": 85}, {"time": 1770, "pitch": 74, "duration": 3, "velocity": 85}, {"time": 1773, "pitch": 69, "duration": 3, "velocity": 84}, {"time": 1776, "pitch": 74, "duration": 5, "velocity": 88}, {"time": 1782, "pitch": 76, "duration": 9, "velocity": 86}, {"time": 1791, "pitch": 76, "duration": 5, "velocity": 84}, {"time": 1797, "pitch": 73, "duration": 2, "velocity": 77}, {"time": 1800, "pitch": 71, "duration": 3, "velocity": 79}, {"time": 1803, "pitch": 69, "duration": 6, "velocity": 83}, {"time": 1809, "pitch": 71, "duration": 31, "velocity": 82}, {"time": 1845, "pitch": 74, "duration": 5, "velocity": 98}, {"time": 1851, "pitch": 76, "duration": 5, "velocity": 84}, {"time": 1857, "pitch": 78, "duration": 2, "velocity": 92}, {"time": 1860, "pitch": 78, "duration": 2, "velocity": 83}, {"time": 1863, "pitch": 78, "duration": 2, "velocity": 86}, {"time": 1866, "pitch": 78, "duration": 2, "velocity": 85}, {"time": 1869, "pitch": 71, "duration": 5, "velocity": 86}, {"time": 1875, "pitch": 78, "duration": 2, "velocity": 85}, {"time": 1878, "pitch": 78, "duration": 9, "velocity": 83}, {"time": 1887, "pitch": 76, "duration": 13, "velocity": 86}, {"time": 1905, "pitch": 76, "duration": 2, "velocity": 86}, {"time": 1908, "pitch": 76, "duration": 2, "velocity": 83}, {"time": 1911, "pitch": 76, "duration": 2, "velocity": 83}, {"time": 1914, "pitch": 76, "duration": 2, "velocity": 85}, {"time": 1917, "pitch": 76, "duration": 3, "velocity": 85}, {"time": 1920, "pitch": 78, "duration": 6, "velocity": 84}, {"time": 1926, "pitch": 76, "duration": 2, "velocity": 88}, {"time": 1929, "pitch": 74, "duration": 6, "velocity": 88}, {"time": 1935, "pitch": 71, "duration": 10, "velocity": 82}, {"time": 1953, "pitch": 74, "duration": 2, "velocity": 92}, {"time": 1956, "pitch": 74, "duration": 2, "velocity": 86}, {"time": 1959, "pitch": 74, "duration": 2, "velocity": 85}, {"time": 1962, "pitch": 74, "duration": 3, "velocity": 85}, {"time": 1965, "pitch": 69, "duration": 3, "velocity": 84}, {"time": 1968, "pitch": 74, "duration": 5, "velocity": 88}, {"time": 1974, "pitch": 76, "duration": 9, "velocity": 86}, {"time": 1983, "pitch": 76, "duration": 5, "velocity": 84}, {"time": 1989, "pitch": 73, "duration": 2, "velocity": 77}, {"time": 1992, "pitch": 71, "duration": 3, "velocity": 79}, {"time": 1995, "pitch": 69, "duration": 6, "velocity": 83}, {"time": 2001, "pitch": 71, "duration": 31, "velocity": 82}, {"time": 2421, "pitch": 74, "duration": 5, "velocity": 98}, {"time": 2427, "pitch": 76, "duration": 5, "velocity": 84}, {"time": 2433, "pitch": 78, "duration": 2, "velocity": 92}, {"time": 2436, "pitch": 78, "duration": 2, "velocity": 83}, {"time": 2439, "pitch": 78, "duration": 2, "velocity": 86}, {"time": 2442, "pitch": 78, "duration": 2, "velocity": 85}, {"time": 2445, "pitch": 71, "duration": 5, "velocity": 86}, {"time": 2451, "pitch": 78, "duration": 2, "velocity": 85}, {"time": 2454, "pitch": 78, "duration": 9, "velocity": 83}, {"time": 2463, "pitch": 76, "duration": 13, "velocity": 86}, {"time": 2481, "pitch": 76, "duration": 2, "velocity": 86}, {"time": 2484, "pitch": 76, "duration": 2, "velocity": 83}, {"time": 2487, "pitch": 76, "duration": 2, "velocity": 83}, {"time": 2490, "pitch": 76, "duration": 2, "velocity": 85}, {"time": 2493, "pitch": 76, "duration": 3, "velocity": 85}, {"time": 2496, "pitch": 78, "duration": 6, "velocity": 84}, {"time": 2502, "pitch": 76, "duration": 2, "velocity": 88}, {"time": 2505, "pitch": 74, "duration": 6, "velocity": 88}, {"time": 2511, "pitch": 71, "duration": 10, "velocity": 82}, {"time": 2529, "pitch": 74, "duration": 2, "velocity": 92}, {"time": 2532, "pitch": 74, "duration": 2, "velocity": 86}, {"time": 2535, "pitch": 74, "duration": 2, "velocity": 85}, {"time": 2538, "pitch": 74, "duration": 3, "velocity": 85}, {"time": 2541, "pitch": 69, "duration": 3, "velocity": 84}, {"time": 2544, "pitch": 74, "duration": 5, "velocity": 88}, {"time": 2550, "pitch": 76, "duration": 9, "velocity": 86}, {"time": 2559, "pitch": 76, "duration": 5, "velocity": 84}, {"time": 2565, "pitch": 73, "duration": 2, "velocity": 77}, {"time": 2568, "pitch": 71, "duration": 3, "velocity": 79}, {"time": 2571, "pitch": 69, "duration": 6, "velocity": 83}, {"time": 2577, "pitch": 71, "duration": 31, "velocity": 82}, {"time": 2613, "pitch": 74, "duration": 5, "velocity": 98}, {"time": 2619, "pitch": 76, "duration": 5, "velocity": 84}, {"time": 2625, "pitch": 78, "duration": 2, "velocity": 92}, {"time": 2628, "pitch": 78, "duration": 2, "velocity": 83}, {"time": 2631, "pitch": 78, "duration": 2, "velocity": 86}, {"time": 2634, "pitch": 78, "duration": 2, "velocity": 85}, {"time": 2637, "pitch": 71, "duration": 5, "velocity": 86}, {"time": 2643, "pitch": 78, "duration": 2, "velocity": 85}, {"time": 2646, "pitch": 78, "duration": 9, "velocity": 83}, {"time": 2655, "pitch": 76, "duration": 13, "velocity": 86}, {"time": 2673, "pitch": 76, "duration": 2, "velocity": 86}, {"time": 2676, "pitch": 76, "duration": 2, "velocity": 83}, {"time": 2679, "pitch": 76, "duration": 2, "velocity": 83}, {"time": 2682, "pitch": 76, "duration": 2, "velocity": 85}, {"time": 2685, "pitch": 76, "duration": 3, "velocity": 85}, {"time": 2688, "pitch": 78, "duration": 6, "velocity": 84}, {"time": 2694, "pitch": 76, "duration": 2, "velocity": 88}, {"time": 2697, "pitch": 74, "duration": 6, "velocity": 88}, {"time": 2703, "pitch": 71, "duration": 10, "velocity": 82}, {"time": 2721, "pitch": 74, "duration": 2, "velocity": 92}, {"time": 2724, "pitch": 74, "duration": 2, "velocity": 86}, {"time": 2727, "pitch": 74, "duration": 2, "velocity": 85}, {"time": 2730, "pitch": 74, "duration": 3, "velocity": 85}, {"time": 2733, "pitch": 69, "duration": 3, "velocity": 84}, {"time": 2736, "pitch": 74, "duration": 5, "velocity": 88}, {"time": 2742, "pitch": 76, "duration": 9, "velocity": 86}, {"time": 2751, "pitch": 76, "duration": 5, "velocity": 84}, {"time": 2757, "pitch": 73, "duration": 2, "velocity": 77}, {"time": 2760, "pitch": 71, "duration": 3, "velocity": 79}, {"time": 2763, "pitch": 69, "duration": 6, "velocity": 83}, {"time": 2769, "pitch": 71, "duration": 31, "velocity": 82}, {"time": 2817, "pitch": 74, "duration": 3, "velocity": 82}, {"time": 2820, "pitch": 74, "duration": 2, "velocity": 84}, {"time": 2823, "pitch": 74, "duration": 3, "velocity": 82}, {"time": 2826, "pitch": 74, "duration": 3, "velocity": 86}, {"time": 2829, "pitch": 69, "duration": 3, "velocity": 81}, {"time": 2832, "pitch": 74, "duration": 8, "velocity": 85}, {"time": 2841, "pitch": 76, "duration": 6, "velocity": 83}, {"time": 2847, "pitch": 76, "duration": 5, "velocity": 82}, {"time": 2853, "pitch": 73, "duration": 4, "velocity": 81}, {"time": 2856, "pitch": 71, "duration": 3, "velocity": 82}, {"time": 2859, "pitch": 69, "duration": 5, "velocity": 82}, {"time": 2865, "pitch": 71, "duration": 44, "velocity": 87}]}, {"program": 0, "is_drum": false, "name": "BRIDGE", "notes": [{"time": 237, "pitch": 71, "duration": 7, "velocity": 95}, {"time": 243, "pitch": 69, "duration": 4, "velocity": 87}, {"time": 246, "pitch": 66, "duration": 14, "velocity": 90}, {"time": 261, "pitch": 71, "duration": 7, "velocity": 88}, {"time": 267, "pitch": 69, "duration": 3, "velocity": 87}, {"time": 270, "pitch": 66, "duration": 16, "velocity": 84}, {"time": 285, "pitch": 71, "duration": 7, "velocity": 88}, {"time": 291, "pitch": 69, "duration": 3, "velocity": 84}, {"time": 294, "pitch": 62, "duration": 13, "velocity": 85}, {"time": 309, "pitch": 62, "duration": 7, "velocity": 92}, {"time": 315, "pitch": 69, "duration": 4, "velocity": 87}, {"time": 318, "pitch": 66, "duration": 10, "velocity": 92}, {"time": 327, "pitch": 64, "duration": 7, "velocity": 97}, {"time": 333, "pitch": 71, "duration": 7, "velocity": 87}, {"time": 339, "pitch": 69, "duration": 4, "velocity": 87}, {"time": 342, "pitch": 66, "duration": 16, "velocity": 88}, {"time": 357, "pitch": 71, "duration": 8, "velocity": 85}, {"time": 363, "pitch": 69, "duration": 3, "velocity": 92}, {"time": 366, "pitch": 64, "duration": 16, "velocity": 85}, {"time": 381, "pitch": 69, "duration": 6, "velocity": 86}, {"time": 387, "pitch": 64, "duration": 52, "velocity": 88}, {"time": 441, "pitch": 71, "duration": 9, "velocity": 75}, {"time": 447, "pitch": 66, "duration": 7, "velocity": 60}, {"time": 450, "pitch": 74, "duration": 10, "velocity": 81}, {"time": 465, "pitch": 73, "duration": 8, "velocity": 69}, {"time": 471, "pitch": 69, "duration": 15, "velocity": 65}, {"time": 474, "pitch": 73, "duration": 12, "velocity": 69}, {"time": 489, "pitch": 71, "duration": 7, "velocity": 73}, {"time": 495, "pitch": 66, "duration": 4, "velocity": 70}, {"time": 498, "pitch": 71, "duration": 12, "velocity": 74}, {"time": 513, "pitch": 69, "duration": 7, "velocity": 70}, {"time": 519, "pitch": 66, "duration": 5, "velocity": 65}, {"time": 522, "pitch": 73, "duration": 13, "velocity": 64}, {"time": 537, "pitch": 71, "duration": 7, "velocity": 76}, {"time": 543, "pitch": 66, "duration": 5, "velocity": 71}, {"time": 546, "pitch": 74, "duration": 13, "velocity": 82}, {"time": 561, "pitch": 69, "duration": 7, "velocity": 69}, {"time": 567, "pitch": 66, "duration": 4, "velocity": 70}, {"time": 570, "pitch": 73, "duration": 13, "velocity": 70}, {"time": 585, "pitch": 71, "duration": 8, "velocity": 76}, {"time": 591, "pitch": 67, "duration": 12, "velocity": 69}, {"time": 594, "pitch": 74, "duration": 13, "velocity": 82}, {"time": 609, "pitch": 76, "duration": 7, "velocity": 77}, {"time": 615, "pitch": 69, "duration": 13, "velocity": 69}, {"time": 618, "pitch": 76, "duration": 11, "velocity": 80}, {"time": 627, "pitch": 73, "duration": 5, "velocity": 69}, {"time": 630, "pitch": 69, "duration": 3, "velocity": 69}, {"time": 633, "pitch": 71, "duration": 9, "velocity": 75}, {"time": 639, "pitch": 66, "duration": 7, "velocity": 60}, {"time": 642, "pitch": 74, "duration": 10, "velocity": 81}, {"time": 657, "pitch": 73, "duration": 8, "velocity": 69}, {"time": 663, "pitch": 69, "duration": 15, "velocity": 65}, {"time": 666, "pitch": 73, "duration": 12, "velocity": 69}, {"time": 681, "pitch": 71, "duration": 7, "velocity": 73}, {"time": 687, "pitch": 66, "duration": 4, "velocity": 70}, {"time": 690, "pitch": 71, "duration": 12, "velocity": 74}, {"time": 705, "pitch": 69, "duration": 7, "velocity": 70}, {"time": 711, "pitch": 66, "duration": 5, "velocity": 65}, {"time": 714, "pitch": 73, "duration": 13, "velocity": 64}, {"time": 729, "pitch": 71, "duration": 7, "velocity": 76}, {"time": 735, "pitch": 66, "duration": 5, "velocity": 71}, {"time": 738, "pitch": 74, "duration": 13, "velocity": 82}, {"time": 753, "pitch": 69, "duration": 7, "velocity": 69}, {"time": 759, "pitch": 66, "duration": 4, "velocity": 70}, {"time": 762, "pitch": 73, "duration": 13, "velocity": 70}, {"time": 777, "pitch": 71, "duration": 8, "velocity": 76}, {"time": 783, "pitch": 67, "duration": 12, "velocity": 69}, {"time": 786, "pitch": 74, "duration": 13, "velocity": 82}, {"time": 801, "pitch": 76, "duration": 7, "velocity": 77}, {"time": 807, "pitch": 69, "duration": 13, "velocity": 69}, {"time": 810, "pitch": 76, "duration": 11, "velocity": 80}, {"time": 819, "pitch": 73, "duration": 5, "velocity": 69}, {"time": 822, "pitch": 69, "duration": 3, "velocity": 69}, {"time": 825, "pitch": 69, "duration": 6, "velocity": 71}, {"time": 825, "pitch": 73, "duration": 6, "velocity": 69}, {"time": 831, "pitch": 69, "duration": 2, "velocity": 70}, {"time": 831, "pitch": 73, "duration": 2, "velocity": 71}, {"time": 834, "pitch": 69, "duration": 2, "velocity": 67}, {"time": 834, "pitch": 73, "duration": 2, "velocity": 69}, {"time": 837, "pitch": 69, "duration": 2, "velocity": 68}, {"time": 837, "pitch": 73, "duration": 2, "velocity": 69}, {"time": 840, "pitch": 69, "duration": 2, "velocity": 68}, {"time": 840, "pitch": 73, "duration": 2, "velocity": 71}, {"time": 843, "pitch": 69, "duration": 2, "velocity": 69}, {"time": 843, "pitch": 73, "duration": 2, "velocity": 72}, {"time": 846, "pitch": 69, "duration": 2, "velocity": 69}, {"time": 846, "pitch": 73, "duration": 2, "velocity": 71}, {"time": 849, "pitch": 74, "duration": 9, "velocity": 82}, {"time": 855, "pitch": 69, "duration": 17, "velocity": 75}, {"time": 861, "pitch": 74, "duration": 11, "velocity": 77}, {"time": 873, "pitch": 73, "duration": 9, "velocity": 76}, {"time": 879, "pitch": 69, "duration": 15, "velocity": 68}, {"time": 885, "pitch": 73, "duration": 10, "velocity": 70}, {"time": 897, "pitch": 71, "duration": 12, "velocity": 77}, {"time": 897, "pitch": 76, "duration": 12, "velocity": 78}, {"time": 909, "pitch": 71, "duration": 13, "velocity": 77}, {"time": 909, "pitch": 76, "duration": 11, "velocity": 81}, {"time": 921, "pitch": 74, "duration": 7, "velocity": 82}, {"time": 927, "pitch": 71, "duration": 16, "velocity": 73}, {"time": 933, "pitch": 74, "duration": 10, "velocity": 81}, {"time": 945, "pitch": 74, "duration": 9, "velocity": 81}, {"time": 951, "pitch": 69, "duration": 17, "velocity": 38}, {"time": 957, "pitch": 74, "duration": 10, "velocity": 82}, {"time": 969, "pitch": 76, "duration": 7, "velocity": 80}, {"time": 975, "pitch": 69, "duration": 14, "velocity": 72}, {"time": 981, "pitch": 76, "duration": 9, "velocity": 80}, {"time": 993, "pitch": 71, "duration": 17, "velocity": 74}, {"time": 993, "pitch": 76, "duration": 17, "velocity": 75}, {"time": 1011, "pitch": 74, "duration": 6, "velocity": 81}, {"time": 1017, "pitch": 76, "duration": 21, "velocity": 77}, {"time": 1041, "pitch": 74, "duration": 19, "velocity": 83}, {"time": 1059, "pitch": 71, "duration": 4, "velocity": 75}, {"time": 1062, "pitch": 74, "duration": 4, "velocity": 78}, {"time": 1065, "pitch": 73, "duration": 13, "velocity": 73}, {"time": 1077, "pitch": 69, "duration": 9, "velocity": 74}, {"time": 1089, "pitch": 76, "duration": 18, "velocity": 81}, {"time": 1107, "pitch": 74, "duration": 7, "velocity": 82}, {"time": 1113, "pitch": 71, "duration": 22, "velocity": 79}, {"time": 1137, "pitch": 74, "duration": 11, "velocity": 77}, {"time": 1149, "pitch": 74, "duration": 10, "velocity": 84}, {"time": 1161, "pitch": 76, "duration": 7, "velocity": 83}, {"time": 1167, "pitch": 69, "duration": 8, "velocity": 78}, {"time": 1173, "pitch": 76, "duration": 9, "velocity": 78}, {"time": 1191, "pitch": 78, "duration": 7, "velocity": 71}, {"time": 1197, "pitch": 76, "duration": 4, "velocity": 73}, {"time": 1200, "pitch": 78, "duration": 4, "velocity": 71}, {"time": 1203, "pitch": 76, "duration": 4, "velocity": 79}, {"time": 1206, "pitch": 78, "duration": 8, "velocity": 76}, {"time": 1215, "pitch": 78, "duration": 7, "velocity": 76}, {"time": 1221, "pitch": 76, "duration": 4, "velocity": 79}, {"time": 1224, "pitch": 78, "duration": 4, "velocity": 72}, {"time": 1227, "pitch": 76, "duration": 5, "velocity": 80}, {"time": 1230, "pitch": 78, "duration": 8, "velocity": 79}, {"time": 1239, "pitch": 78, "duration": 7, "velocity": 80}, {"time": 1245, "pitch": 76, "duration": 4, "velocity": 79}, {"time": 1248, "pitch": 78, "duration": 4, "velocity": 76}, {"time": 1251, "pitch": 76, "duration": 4, "velocity": 80}, {"time": 1254, "pitch": 78, "duration": 8, "velocity": 79}, {"time": 1263, "pitch": 78, "duration": 7, "velocity": 76}, {"time": 1269, "pitch": 76, "duration": 4, "velocity": 77}, {"time": 1272, "pitch": 78, "duration": 9, "velocity": 76}, {"time": 1281, "pitch": 71, "duration": 9, "velocity": 75}, {"time": 1287, "pitch": 66, "duration": 7, "velocity": 60}, {"time": 1290, "pitch": 74, "duration": 10, "velocity": 81}, {"time": 1305, "pitch": 73, "duration": 8, "velocity": 69}, {"time": 1311, "pitch": 69, "duration": 15, "velocity": 65}, {"time": 1314, "pitch": 73, "duration": 12, "velocity": 69}, {"time": 1329, "pitch": 71, "duration": 7, "velocity": 73}, {"time": 1335, "pitch": 66, "duration": 4, "velocity": 70}, {"time": 1338, "pitch": 71, "duration": 12, "velocity": 74}, {"time": 1353, "pitch": 69, "duration": 7, "velocity": 70}, {"time": 1359, "pitch": 66, "duration": 5, "velocity": 65}, {"time": 1362, "pitch": 73, "duration": 13, "velocity": 64}, {"time": 1377, "pitch": 71, "duration": 7, "velocity": 76}, {"time": 1383, "pitch": 66, "duration": 5, "velocity": 71}, {"time": 1386, "pitch": 74, "duration": 13, "velocity": 82}, {"time": 1401, "pitch": 69, "duration": 7, "velocity": 69}, {"time": 1407, "pitch": 66, "duration": 4, "velocity": 70}, {"time": 1410, "pitch": 73, "duration": 13, "velocity": 70}, {"time": 1425, "pitch": 71, "duration": 8, "velocity": 76}, {"time": 1431, "pitch": 67, "duration": 12, "velocity": 69}, {"time": 1434, "pitch": 74, "duration": 13, "velocity": 82}, {"time": 1449, "pitch": 76, "duration": 7, "velocity": 77}, {"time": 1455, "pitch": 69, "duration": 13, "velocity": 69}, {"time": 1458, "pitch": 76, "duration": 11, "velocity": 80}, {"time": 1467, "pitch": 73, "duration": 5, "velocity": 69}, {"time": 1470, "pitch": 69, "duration": 3, "velocity": 69}, {"time": 1473, "pitch": 71, "duration": 9, "velocity": 75}, {"time": 1479, "pitch": 66, "duration": 7, "velocity": 60}, {"time": 1482, "pitch": 74, "duration": 10, "velocity": 81}, {"time": 1497, "pitch": 73, "duration": 8, "velocity": 69}, {"time": 1503, "pitch": 69, "duration": 15, "velocity": 65}, {"time": 1506, "pitch": 73, "duration": 12, "velocity": 69}, {"time": 1521, "pitch": 71, "duration": 7, "velocity": 73}, {"time": 1527, "pitch": 66, "duration": 4, "velocity": 70}, {"time": 1530, "pitch": 71, "duration": 12, "velocity": 74}, {"time": 1545, "pitch": 69, "duration": 7, "velocity": 70}, {"time": 1551, "pitch": 66, "duration": 5, "velocity": 65}, {"time": 1554, "pitch": 73, "duration": 13, "velocity": 64}, {"time": 1569, "pitch": 71, "duration": 7, "velocity": 76}, {"time": 1575, "pitch": 66, "duration": 5, "velocity": 71}, {"time": 1578, "pitch": 74, "duration": 13, "velocity": 82}, {"time": 1593, "pitch": 69, "duration": 7, "velocity": 69}, {"time": 1599, "pitch": 66, "duration": 4, "velocity": 70}, {"time": 1602, "pitch": 73, "duration": 13, "velocity": 70}, {"time": 1617, "pitch": 71, "duration": 8, "velocity": 76}, {"time": 1623, "pitch": 67, "duration": 12, "velocity": 69}, {"time": 1626, "pitch": 74, "duration": 13, "velocity": 82}, {"time": 1641, "pitch": 76, "duration": 7, "velocity": 77}, {"time": 1647, "pitch": 69, "duration": 13, "velocity": 69}, {"time": 1650, "pitch": 76, "duration": 11, "velocity": 80}, {"time": 1659, "pitch": 73, "duration": 5, "velocity": 69}, {"time": 1662, "pitch": 69, "duration": 3, "velocity": 69}, {"time": 1665, "pitch": 74, "duration": 9, "velocity": 82}, {"time": 1671, "pitch": 69, "duration": 17, "velocity": 75}, {"time": 1677, "pitch": 74, "duration": 11, "velocity": 77}, {"time": 1689, "pitch": 73, "duration": 9, "velocity": 76}, {"time": 1695, "pitch": 69, "duration": 15, "velocity": 68}, {"time": 1701, "pitch": 73, "duration": 10, "velocity": 70}, {"time": 1713, "pitch": 71, "duration": 12, "velocity": 77}, {"time": 1713, "pitch": 76, "duration": 12, "velocity": 78}, {"time": 1725, "pitch": 71, "duration": 13, "velocity": 77}, {"time": 1725, "pitch": 76, "duration": 11, "velocity": 81}, {"time": 1737, "pitch": 74, "duration": 7, "velocity": 82}, {"time": 1743, "pitch": 71, "duration": 16, "velocity": 73}, {"time": 1749, "pitch": 74, "duration": 10, "velocity": 81}, {"time": 1761, "pitch": 74, "duration": 9, "velocity": 81}, {"time": 1767, "pitch": 69, "duration": 17, "velocity": 38}, {"time": 1773, "pitch": 74, "duration": 10, "velocity": 82}, {"time": 1785, "pitch": 76, "duration": 7, "velocity": 80}, {"time": 1791, "pitch": 69, "duration": 14, "velocity": 72}, {"time": 1797, "pitch": 76, "duration": 9, "velocity": 80}, {"time": 1809, "pitch": 71, "duration": 17, "velocity": 74}, {"time": 1809, "pitch": 76, "duration": 17, "velocity": 75}, {"time": 1857, "pitch": 74, "duration": 19, "velocity": 83}, {"time": 1875, "pitch": 71, "duration": 4, "velocity": 75}, {"time": 1878, "pitch": 74, "duration": 4, "velocity": 78}, {"time": 1881, "pitch": 73, "duration": 13, "velocity": 73}, {"time": 1893, "pitch": 69, "duration": 9, "velocity": 74}, {"time": 1905, "pitch": 76, "duration": 18, "velocity": 81}, {"time": 1923, "pitch": 74, "duration": 7, "velocity": 82}, {"time": 1929, "pitch": 71, "duration": 22, "velocity": 79}, {"time": 1953, "pitch": 74, "duration": 11, "velocity": 77}, {"time": 1965, "pitch": 74, "duration": 10, "velocity": 84}, {"time": 1977, "pitch": 76, "duration": 7, "velocity": 83}, {"time": 1983, "pitch": 69, "duration": 8, "velocity": 78}, {"time": 1989, "pitch": 76, "duration": 9, "velocity": 78}, {"time": 2001, "pitch": 71, "duration": 33, "velocity": 73}, {"time": 2001, "pitch": 76, "duration": 33, "velocity": 77}, {"time": 2037, "pitch": 83, "duration": 6, "velocity": 87}, {"time": 2043, "pitch": 81, "duration": 2, "velocity": 85}, {"time": 2046, "pitch": 78, "duration": 14, "velocity": 83}, {"time": 2061, "pitch": 83, "duration": 5, "velocity": 90}, {"time": 2067, "pitch": 81, "duration": 2, "velocity": 85}, {"time": 2070, "pitch": 78, "duration": 20, "velocity": 86}, {"time": 2091, "pitch": 78, "duration": 3, "velocity": 88}, {"time": 2094, "pitch": 81, "duration": 2, "velocity": 82}, {"time": 2097, "pitch": 83, "duration": 2, "velocity": 82}, {"time": 2100, "pitch": 83, "duration": 2, "velocity": 86}, {"time": 2103, "pitch": 83, "duration": 2, "velocity": 82}, {"time": 2106, "pitch": 83, "duration": 2, "velocity": 84}, {"time": 2109, "pitch": 83, "duration": 6, "velocity": 87}, {"time": 2115, "pitch": 81, "duration": 2, "velocity": 82}, {"time": 2118, "pitch": 81, "duration": 15, "velocity": 87}, {"time": 2133, "pitch": 83, "duration": 5, "velocity": 90}, {"time": 2139, "pitch": 86, "duration": 4, "velocity": 88}, {"time": 2142, "pitch": 90, "duration": 15, "velocity": 87}, {"time": 2157, "pitch": 83, "duration": 6, "velocity": 87}, {"time": 2163, "pitch": 86, "duration": 4, "velocity": 83}, {"time": 2166, "pitch": 88, "duration": 9, "velocity": 87}, {"time": 2175, "pitch": 86, "duration": 2, "velocity": 88}, {"time": 2178, "pitch": 86, "duration": 6, "velocity": 85}, {"time": 2184, "pitch": 88, "duration": 7, "velocity": 90}, {"time": 2193, "pitch": 80, "duration": 12, "velocity": 92}, {"time": 2205, "pitch": 81, "duration": 6, "velocity": 85}, {"time": 2211, "pitch": 83, "duration": 18, "velocity": 88}, {"time": 2229, "pitch": 83, "duration": 7, "velocity": 85}, {"time": 2235, "pitch": 81, "duration": 4, "velocity": 85}, {"time": 2238, "pitch": 78, "duration": 16, "velocity": 87}, {"time": 2253, "pitch": 83, "duration": 7, "velocity": 88}, {"time": 2259, "pitch": 81, "duration": 3, "velocity": 85}, {"time": 2262, "pitch": 78, "duration": 19, "velocity": 83}, {"time": 2283, "pitch": 78, "duration": 4, "velocity": 85}, {"time": 2286, "pitch": 81, "duration": 4, "velocity": 81}, {"time": 2289, "pitch": 83, "duration": 2, "velocity": 84}, {"time": 2292, "pitch": 83, "duration": 2, "velocity": 83}, {"time": 2295, "pitch": 83, "duration": 2, "velocity": 92}, {"time": 2298, "pitch": 83, "duration": 2, "velocity": 85}, {"time": 2301, "pitch": 83, "duration": 5, "velocity": 87}, {"time": 2307, "pitch": 81, "duration": 2, "velocity": 81}, {"time": 2310, "pitch": 81, "duration": 16, "velocity": 82}, {"time": 2325, "pitch": 83, "duration": 7, "velocity": 88}, {"time": 2331, "pitch": 86, "duration": 4, "velocity": 86}, {"time": 2334, "pitch": 90, "duration": 16, "velocity": 95}, {"time": 2349, "pitch": 88, "duration": 7, "velocity": 86}, {"time": 2355, "pitch": 86, "duration": 3, "velocity": 83}, {"time": 2358, "pitch": 93, "duration": 6, "velocity": 88}, {"time": 2364, "pitch": 92, "duration": 4, "velocity": 88}, {"time": 2368, "pitch": 91, "duration": 3, "velocity": 87}, {"time": 2372, "pitch": 91, "duration": 10, "velocity": 92}, {"time": 2381, "pitch": 90, "duration": 2, "velocity": 87}, {"time": 2383, "pitch": 88, "duration": 1, "velocity": 88}, {"time": 2384, "pitch": 90, "duration": 10, "velocity": 95}, {"time": 2393, "pitch": 88, "duration": 2, "velocity": 83}, {"time": 2395, "pitch": 86, "duration": 1, "velocity": 83}, {"time": 2396, "pitch": 88, "duration": 37, "velocity": 88}, {"time": 2433, "pitch": 74, "duration": 9, "velocity": 82}, {"time": 2439, "pitch": 69, "duration": 17, "velocity": 75}, {"time": 2445, "pitch": 74, "duration": 11, "velocity": 77}, {"time": 2457, "pitch": 73, "duration": 9, "velocity": 76}, {"time": 2463, "pitch": 69, "duration": 15, "velocity": 68}, {"time": 2469, "pitch": 73, "duration": 10, "velocity": 70}, {"time": 2481, "pitch": 71, "duration": 12, "velocity": 77}, {"time": 2481, "pitch": 76, "duration": 12, "velocity": 78}, {"time": 2493, "pitch": 71, "duration": 13, "velocity": 77}, {"time": 2493, "pitch": 76, "duration": 11, "velocity": 81}, {"time": 2505, "pitch": 74, "duration": 7, "velocity": 82}, {"time": 2511, "pitch": 71, "duration": 16, "velocity": 73}, {"time": 2517, "pitch": 74, "duration": 10, "velocity": 81}, {"time": 2529, "pitch": 74, "duration": 9, "velocity": 81}, {"time": 2535, "pitch": 69, "duration": 17, "velocity": 38}, {"time": 2541, "pitch": 74, "duration": 10, "velocity": 82}, {"time": 2553, "pitch": 76, "duration": 7, "velocity": 80}, {"time": 2559, "pitch": 69, "duration": 14, "velocity": 72}, {"time": 2565, "pitch": 76, "duration": 9, "velocity": 80}, {"time": 2577, "pitch": 71, "duration": 17, "velocity": 74}, {"time": 2577, "pitch": 76, "duration": 17, "velocity": 75}, {"time": 2595, "pitch": 74, "duration": 6, "velocity": 81}, {"time": 2601, "pitch": 76, "duration": 21, "velocity": 77}, {"time": 2625, "pitch": 74, "duration": 19, "velocity": 83}, {"time": 2643, "pitch": 71, "duration": 4, "velocity": 75}, {"time": 2646, "pitch": 74, "duration": 4, "velocity": 78}, {"time": 2649, "pitch": 73, "duration": 13, "velocity": 73}, {"time": 2661, "pitch": 69, "duration": 9, "velocity": 74}, {"time": 2673, "pitch": 76, "duration": 18, "velocity": 81}, {"time": 2691, "pitch": 74, "duration": 7, "velocity": 82}, {"time": 2697, "pitch": 71, "duration": 22, "velocity": 79}, {"time": 2721, "pitch": 74, "duration": 11, "velocity": 77}, {"time": 2733, "pitch": 74, "duration": 10, "velocity": 84}, {"time": 2745, "pitch": 76, "duration": 7, "velocity": 83}, {"time": 2751, "pitch": 69, "duration": 8, "velocity": 78}, {"time": 2757, "pitch": 76, "duration": 9, "velocity": 78}, {"time": 2769, "pitch": 71, "duration": 33, "velocity": 73}, {"time": 2769, "pitch": 76, "duration": 33, "velocity": 77}, {"time": 2901, "pitch": 71, "duration": 7, "velocity": 95}, {"time": 2907, "pitch": 69, "duration": 4, "velocity": 87}, {"time": 2910, "pitch": 66, "duration": 14, "velocity": 90}, {"time": 2925, "pitch": 71, "duration": 7, "velocity": 88}, {"time": 2931, "pitch": 69, "duration": 3, "velocity": 87}, {"time": 2934, "pitch": 66, "duration": 16, "velocity": 84}, {"time": 2949, "pitch": 71, "duration": 7, "velocity": 88}, {"time": 2955, "pitch": 69, "duration": 3, "velocity": 84}, {"time": 2958, "pitch": 62, "duration": 13, "velocity": 85}, {"time": 2973, "pitch": 62, "duration": 7, "velocity": 92}, {"time": 2979, "pitch": 69, "duration": 4, "velocity": 87}, {"time": 2982, "pitch": 66, "duration": 10, "velocity": 92}, {"time": 2991, "pitch": 64, "duration": 7, "velocity": 97}, {"time": 2997, "pitch": 71, "duration": 7, "velocity": 87}, {"time": 3003, "pitch": 69, "duration": 4, "velocity": 87}, {"time": 3006, "pitch": 66, "duration": 16, "velocity": 88}, {"time": 3021, "pitch": 71, "duration": 8, "velocity": 85}, {"time": 3027, "pitch": 69, "duration": 3, "velocity": 92}, {"time": 3030, "pitch": 64, "duration": 16, "velocity": 85}, {"time": 3045, "pitch": 69, "duration": 6, "velocity": 86}, {"time": 3051, "pitch": 64, "duration": 18, "velocity": 88}, {"time": 3069, "pitch": 69, "duration": 6, "velocity": 86}, {"time": 3075, "pitch": 71, "duration": 18, "velocity": 95}, {"time": 3093, "pitch": 71, "duration": 7, "velocity": 95}, {"time": 3099, "pitch": 69, "duration": 4, "velocity": 87}, {"time": 3102, "pitch": 66, "duration": 14, "velocity": 90}, {"time": 3117, "pitch": 71, "duration": 7, "velocity": 88}, {"time": 3123, "pitch": 69, "duration": 3, "velocity": 87}, {"time": 3126, "pitch": 66, "duration": 16, "velocity": 84}, {"time": 3141, "pitch": 71, "duration": 7, "velocity": 88}, {"time": 3147, "pitch": 69, "duration": 3, "velocity": 84}, {"time": 3150, "pitch": 62, "duration": 13, "velocity": 85}, {"time": 3165, "pitch": 62, "duration": 7, "velocity": 92}, {"time": 3171, "pitch": 69, "duration": 4, "velocity": 87}, {"time": 3174, "pitch": 66, "duration": 10, "velocity": 92}, {"time": 3183, "pitch": 64, "duration": 7, "velocity": 97}, {"time": 3189, "pitch": 71, "duration": 7, "velocity": 87}, {"time": 3195, "pitch": 69, "duration": 4, "velocity": 87}, {"time": 3198, "pitch": 66, "duration": 16, "velocity": 88}, {"time": 3213, "pitch": 71, "duration": 8, "velocity": 85}, {"time": 3219, "pitch": 69, "duration": 3, "velocity": 92}, {"time": 3222, "pitch": 64, "duration": 16, "velocity": 85}, {"time": 3237, "pitch": 69, "duration": 5, "velocity": 88}, {"time": 3243, "pitch": 69, "duration": 3, "velocity": 88}, {"time": 3246, "pitch": 71, "duration": 3, "velocity": 85}, {"time": 3249, "pitch": 68, "duration": 13, "velocity": 92}, {"time": 3261, "pitch": 69, "duration": 7, "velocity": 88}, {"time": 3267, "pitch": 71, "duration": 30, "velocity": 86}, {"time": 3297, "pitch": 56, "duration": 12, "velocity": 87}, {"time": 3309, "pitch": 57, "duration": 7, "velocity": 79}, {"time": 3315, "pitch": 59, "duration": 49, "velocity": 81}]}, {"program": 0, "is_drum": false, "name": "PIANO", "notes": [{"time": 57, "pitch": 47, "duration": 23, "velocity": 82}, {"time": 57, "pitch": 57, "duration": 4, "velocity": 81}, {"time": 60, "pitch": 59, "duration": 6, "velocity": 84}, {"time": 63, "pitch": 54, "duration": 17, "velocity": 60}, {"time": 69, "pitch": 59, "duration": 6, "velocity": 85}, {"time": 75, "pitch": 57, "duration": 3, "velocity": 77}, {"time": 78, "pitch": 59, "duration": 10, "velocity": 83}, {"time": 81, "pitch": 47, "duration": 21, "velocity": 81}, {"time": 84, "pitch": 54, "duration": 19, "velocity": 72}, {"time": 87, "pitch": 57, "duration": 4, "velocity": 72}, {"time": 93, "pitch": 59, "duration": 5, "velocity": 63}, {"time": 105, "pitch": 47, "duration": 39, "velocity": 82}, {"time": 111, "pitch": 54, "duration": 33, "velocity": 60}, {"time": 117, "pitch": 59, "duration": 5, "velocity": 65}, {"time": 117, "pitch": 62, "duration": 5, "velocity": 70}, {"time": 129, "pitch": 59, "duration": 4, "velocity": 45}, {"time": 129, "pitch": 62, "duration": 4, "velocity": 56}, {"time": 141, "pitch": 59, "duration": 2, "velocity": 67}, {"time": 141, "pitch": 62, "duration": 2, "velocity": 71}, {"time": 153, "pitch": 47, "duration": 22, "velocity": 81}, {"time": 153, "pitch": 57, "duration": 4, "velocity": 82}, {"time": 156, "pitch": 59, "duration": 5, "velocity": 84}, {"time": 159, "pitch": 54, "duration": 16, "velocity": 61}, {"time": 165, "pitch": 59, "duration": 2, "velocity": 87}, {"time": 171, "pitch": 57, "duration": 2, "velocity": 75}, {"time": 174, "pitch": 59, "duration": 10, "velocity": 80}, {"time": 177, "pitch": 47, "duration": 22, "velocity": 82}, {"time": 180, "pitch": 54, "duration": 13, "velocity": 65}, {"time": 183, "pitch": 57, "duration": 2, "velocity": 60}, {"time": 186, "pitch": 59, "duration": 11, "velocity": 71}, {"time": 195, "pitch": 54, "duration": 5, "velocity": 63}, {"time": 201, "pitch": 47, "duration": 48, "velocity": 77}, {"time": 201, "pitch": 59, "duration": 6, "velocity": 60}, {"time": 201, "pitch": 62, "duration": 4, "velocity": 54}, {"time": 207, "pitch": 54, "duration": 9, "velocity": 54}, {"time": 213, "pitch": 59, "duration": 5, "velocity": 55}, {"time": 213, "pitch": 62, "duration": 5, "velocity": 53}, {"time": 219, "pitch": 54, "duration": 8, "velocity": 48}, {"time": 225, "pitch": 59, "duration": 4, "velocity": 79}, {"time": 225, "pitch": 62, "duration": 4, "velocity": 77}, {"time": 231, "pitch": 54, "duration": 19, "velocity": 67}, {"time": 234, "pitch": 59, "duration": 2, "velocity": 59}, {"time": 237, "pitch": 59, "duration": 2, "velocity": 71}, {"time": 237, "pitch": 62, "duration": 2, "velocity": 73}, {"time": 237, "pitch": 66, "duration": 2, "velocity": 71}, {"time": 240, "pitch": 59, "duration": 1, "velocity": 60}, {"time": 240, "pitch": 62, "duration": 1, "velocity": 59}, {"time": 243, "pitch": 59, "duration": 7, "velocity": 81}, {"time": 243, "pitch": 62, "duration": 7, "velocity": 82}, {"time": 243, "pitch": 66, "duration": 7, "velocity": 80}, {"time": 249, "pitch": 47, "duration": 1, "velocity": 83}, {"time": 249, "pitch": 59, "duration": 1, "velocity": 72}, {"time": 249, "pitch": 62, "duration": 1, "velocity": 76}, {"time": 249, "pitch": 66, "duration": 1, "velocity": 70}, {"time": 255, "pitch": 54, "duration": 8, "velocity": 66}, {"time": 261, "pitch": 59, "duration": 4, "velocity": 83}, {"time": 261, "pitch": 62, "duration": 6, "velocity": 88}, {"time": 261, "pitch": 66, "duration": 7, "velocity": 87}, {"time": 264, "pitch": 54, "duration": 3, "velocity": 67}, {"time": 267, "pitch": 59, "duration": 2, "velocity": 83}, {"time": 273, "pitch": 42, "duration": 15, "velocity": 83}, {"time": 273, "pitch": 57, "duration": 7, "velocity": 79}, {"time": 273, "pitch": 61, "duration": 7, "velocity": 74}, {"time": 279, "pitch": 49, "duration": 7, "velocity": 66}, {"time": 282, "pitch": 57, "duration": 2, "velocity": 76}, {"time": 285, "pitch": 57, "duration": 4, "velocity": 83}, {"time": 285, "pitch": 61, "duration": 5, "velocity": 84}, {"time": 285, "pitch": 66, "duration": 9, "velocity": 82}, {"time": 288, "pitch": 49, "duration": 2, "velocity": 82}, {"time": 291, "pitch": 57, "duration": 5, "velocity": 82}, {"time": 294, "pitch": 61, "duration": 2, "velocity": 77}, {"time": 297, "pitch": 38, "duration": 16, "velocity": 84}, {"time": 297, "pitch": 57, "duration": 7, "velocity": 81}, {"time": 297, "pitch": 62, "duration": 7, "velocity": 75}, {"time": 303, "pitch": 45, "duration": 8, "velocity": 65}, {"time": 309, "pitch": 57, "duration": 7, "velocity": 85}, {"time": 309, "pitch": 62, "duration": 7, "velocity": 86}, {"time": 315, "pitch": 38, "duration": 1, "velocity": 45}, {"time": 315, "pitch": 45, "duration": 3, "velocity": 82}, {"time": 318, "pitch": 57, "duration": 2, "velocity": 82}, {"time": 321, "pitch": 45, "duration": 17, "velocity": 83}, {"time": 321, "pitch": 57, "duration": 3, "velocity": 76}, {"time": 321, "pitch": 61, "duration": 5, "velocity": 66}, {"time": 324, "pitch": 52, "duration": 7, "velocity": 74}, {"time": 327, "pitch": 57, "duration": 2, "velocity": 82}, {"time": 330, "pitch": 57, "duration": 5, "velocity": 85}, {"time": 330, "pitch": 64, "duration": 4, "velocity": 82}, {"time": 333, "pitch": 52, "duration": 5, "velocity": 85}, {"time": 336, "pitch": 57, "duration": 2, "velocity": 81}, {"time": 336, "pitch": 61, "duration": 4, "velocity": 83}, {"time": 336, "pitch": 64, "duration": 5, "velocity": 85}, {"time": 339, "pitch": 57, "duration": 3, "velocity": 80}, {"time": 345, "pitch": 43, "duration": 22, "velocity": 81}, {"time": 345, "pitch": 55, "duration": 8, "velocity": 79}, {"time": 345, "pitch": 59, "duration": 7, "velocity": 77}, {"time": 351, "pitch": 50, "duration": 7, "velocity": 69}, {"time": 357, "pitch": 55, "duration": 4, "velocity": 83}, {"time": 357, "pitch": 59, "duration": 6, "velocity": 82}, {"time": 357, "pitch": 62, "duration": 5, "velocity": 82}, {"time": 360, "pitch": 50, "duration": 7, "velocity": 81}, {"time": 363, "pitch": 55, "duration": 4, "velocity": 82}, {"time": 366, "pitch": 59, "duration": 3, "velocity": 74}, {"time": 369, "pitch": 45, "duration": 13, "velocity": 83}, {"time": 369, "pitch": 57, "duration": 7, "velocity": 77}, {"time": 369, "pitch": 61, "duration": 8, "velocity": 81}, {"time": 369, "pitch": 64, "duration": 9, "velocity": 82}, {"time": 375, "pitch": 52, "duration": 6, "velocity": 78}, {"time": 378, "pitch": 57, "duration": 2, "velocity": 87}, {"time": 381, "pitch": 57, "duration": 4, "velocity": 81}, {"time": 381, "pitch": 61, "duration": 5, "velocity": 75}, {"time": 387, "pitch": 40, "duration": 28, "velocity": 84}, {"time": 387, "pitch": 59, "duration": 7, "velocity": 82}, {"time": 387, "pitch": 64, "duration": 8, "velocity": 83}, {"time": 399, "pitch": 47, "duration": 8, "velocity": 68}, {"time": 402, "pitch": 52, "duration": 2, "velocity": 76}, {"time": 405, "pitch": 52, "duration": 4, "velocity": 82}, {"time": 405, "pitch": 59, "duration": 7, "velocity": 82}, {"time": 408, "pitch": 47, "duration": 7, "velocity": 75}, {"time": 411, "pitch": 52, "duration": 5, "velocity": 77}, {"time": 417, "pitch": 40, "duration": 14, "velocity": 81}, {"time": 417, "pitch": 56, "duration": 7, "velocity": 61}, {"time": 417, "pitch": 59, "duration": 7, "velocity": 72}, {"time": 417, "pitch": 64, "duration": 6, "velocity": 77}, {"time": 423, "pitch": 47, "duration": 7, "velocity": 58}, {"time": 429, "pitch": 52, "duration": 3, "velocity": 82}, {"time": 429, "pitch": 56, "duration": 3, "velocity": 77}, {"time": 429, "pitch": 59, "duration": 4, "velocity": 81}, {"time": 441, "pitch": 47, "duration": 19, "velocity": 80}, {"time": 441, "pitch": 59, "duration": 8, "velocity": 75}, {"time": 441, "pitch": 62, "duration": 8, "velocity": 77}, {"time": 447, "pitch": 54, "duration": 7, "velocity": 66}, {"time": 453, "pitch": 59, "duration": 4, "velocity": 82}, {"time": 453, "pitch": 62, "duration": 5, "velocity": 82}, {"time": 453, "pitch": 66, "duration": 5, "velocity": 77}, {"time": 456, "pitch": 54, "duration": 3, "velocity": 66}, {"time": 459, "pitch": 59, "duration": 3, "velocity": 81}, {"time": 465, "pitch": 42, "duration": 14, "velocity": 77}, {"time": 465, "pitch": 57, "duration": 8, "velocity": 65}, {"time": 465, "pitch": 61, "duration": 7, "velocity": 69}, {"time": 471, "pitch": 49, "duration": 8, "velocity": 54}, {"time": 477, "pitch": 57, "duration": 3, "velocity": 75}, {"time": 477, "pitch": 61, "duration": 6, "velocity": 79}, {"time": 477, "pitch": 66, "duration": 9, "velocity": 73}, {"time": 489, "pitch": 47, "duration": 17, "velocity": 81}, {"time": 489, "pitch": 59, "duration": 7, "velocity": 73}, {"time": 489, "pitch": 62, "duration": 7, "velocity": 77}, {"time": 495, "pitch": 54, "duration": 7, "velocity": 66}, {"time": 501, "pitch": 59, "duration": 3, "velocity": 81}, {"time": 501, "pitch": 62, "duration": 4, "velocity": 82}, {"time": 501, "pitch": 66, "duration": 5, "velocity": 82}, {"time": 504, "pitch": 54, "duration": 3, "velocity": 74}, {"time": 507, "pitch": 59, "duration": 3, "velocity": 82}, {"time": 513, "pitch": 42, "duration": 16, "velocity": 77}, {"time": 513, "pitch": 57, "duration": 7, "velocity": 74}, {"time": 513, "pitch": 61, "duration": 7, "velocity": 70}, {"time": 519, "pitch": 49, "duration": 7, "velocity": 64}, {"time": 525, "pitch": 57, "duration": 4, "velocity": 81}, {"time": 525, "pitch": 61, "duration": 5, "velocity": 86}, {"time": 525, "pitch": 66, "duration": 6, "velocity": 77}, {"time": 528, "pitch": 49, "duration": 3, "velocity": 73}, {"time": 531, "pitch": 57, "duration": 4, "velocity": 82}, {"time": 534, "pitch": 61, "duration": 3, "velocity": 81}, {"time": 537, "pitch": 47, "duration": 16, "velocity": 81}, {"time": 537, "pitch": 59, "duration": 6, "velocity": 73}, {"time": 537, "pitch": 62, "duration": 6, "velocity": 81}, {"time": 543, "pitch": 54, "duration": 7, "velocity": 54}, {"time": 549, "pitch": 59, "duration": 4, "velocity": 82}, {"time": 549, "pitch": 62, "duration": 4, "velocity": 82}, {"time": 549, "pitch": 66, "duration": 4, "velocity": 82}, {"time": 561, "pitch": 42, "duration": 15, "velocity": 78}, {"time": 561, "pitch": 57, "duration": 6, "velocity": 72}, {"time": 561, "pitch": 61, "duration": 7, "velocity": 72}, {"time": 567, "pitch": 49, "duration": 10, "velocity": 68}, {"time": 570, "pitch": 57, "duration": 2, "velocity": 60}, {"time": 573, "pitch": 57, "duration": 5, "velocity": 83}, {"time": 573, "pitch": 61, "duration": 5, "velocity": 88}, {"time": 573, "pitch": 66, "duration": 5, "velocity": 80}, {"time": 579, "pitch": 42, "duration": 2, "velocity": 83}, {"time": 585, "pitch": 43, "duration": 19, "velocity": 76}, {"time": 585, "pitch": 55, "duration": 9, "velocity": 79}, {"time": 585, "pitch": 59, "duration": 8, "velocity": 79}, {"time": 591, "pitch": 50, "duration": 6, "velocity": 73}, {"time": 597, "pitch": 55, "duration": 3, "velocity": 83}, {"time": 597, "pitch": 62, "duration": 4, "velocity": 81}, {"time": 600, "pitch": 50, "duration": 5, "velocity": 76}, {"time": 603, "pitch": 55, "duration": 4, "velocity": 82}, {"time": 606, "pitch": 62, "duration": 3, "velocity": 82}, {"time": 609, "pitch": 45, "duration": 24, "velocity": 82}, {"time": 609, "pitch": 57, "duration": 6, "velocity": 76}, {"time": 609, "pitch": 61, "duration": 8, "velocity": 86}, {"time": 615, "pitch": 52, "duration": 7, "velocity": 77}, {"time": 618, "pitch": 57, "duration": 2, "velocity": 69}, {"time": 621, "pitch": 57, "duration": 4, "velocity": 79}, {"time": 621, "pitch": 61, "duration": 2, "velocity": 79}, {"time": 621, "pitch": 64, "duration": 11, "velocity": 81}, {"time": 624, "pitch": 52, "duration": 9, "velocity": 82}, {"time": 627, "pitch": 57, "duration": 5, "velocity": 77}, {"time": 633, "pitch": 47, "duration": 19, "velocity": 80}, {"time": 633, "pitch": 59, "duration": 8, "velocity": 75}, {"time": 633, "pitch": 62, "duration": 8, "velocity": 77}, {"time": 639, "pitch": 54, "duration": 7, "velocity": 66}, {"time": 645, "pitch": 59, "duration": 4, "velocity": 82}, {"time": 645, "pitch": 62, "duration": 5, "velocity": 82}, {"time": 645, "pitch": 66, "duration": 5, "velocity": 77}, {"time": 648, "pitch": 54, "duration": 3, "velocity": 66}, {"time": 651, "pitch": 59, "duration": 3, "velocity": 81}, {"time": 657, "pitch": 42, "duration": 14, "velocity": 77}, {"time": 657, "pitch": 57, "duration": 8, "velocity": 65}, {"time": 657, "pitch": 61, "duration": 7, "velocity": 69}, {"time": 663, "pitch": 49, "duration": 8, "velocity": 54}, {"time": 669, "pitch": 57, "duration": 3, "velocity": 75}, {"time": 669, "pitch": 61, "duration": 6, "velocity": 79}, {"time": 669, "pitch": 66, "duration": 9, "velocity": 73}, {"time": 681, "pitch": 47, "duration": 17, "velocity": 81}, {"time": 681, "pitch": 59, "duration": 7, "velocity": 73}, {"time": 681, "pitch": 62, "duration": 7, "velocity": 77}, {"time": 687, "pitch": 54, "duration": 7, "velocity": 66}, {"time": 693, "pitch": 59, "duration": 3, "velocity": 81}, {"time": 693, "pitch": 62, "duration": 4, "velocity": 82}, {"time": 693, "pitch": 66, "duration": 5, "velocity": 82}, {"time": 696, "pitch": 54, "duration": 3, "velocity": 74}, {"time": 699, "pitch": 59, "duration": 3, "velocity": 82}, {"time": 705, "pitch": 42, "duration": 16, "velocity": 77}, {"time": 705, "pitch": 57, "duration": 7, "velocity": 74}, {"time": 705, "pitch": 61, "duration": 7, "velocity": 70}, {"time": 711, "pitch": 49, "duration": 7, "velocity": 64}, {"time": 717, "pitch": 57, "duration": 4, "velocity": 81}, {"time": 717, "pitch": 61, "duration": 5, "velocity": 86}, {"time": 717, "pitch": 66, "duration": 6, "velocity": 77}, {"time": 720, "pitch": 49, "duration": 3, "velocity": 73}, {"time": 723, "pitch": 57, "duration": 4, "velocity": 82}, {"time": 726, "pitch": 61, "duration": 3, "velocity": 81}, {"time": 729, "pitch": 47, "duration": 16, "velocity": 81}, {"time": 729, "pitch": 59, "duration": 6, "velocity": 73}, {"time": 729, "pitch": 62, "duration": 6, "velocity": 81}, {"time": 735, "pitch": 54, "duration": 7, "velocity": 54}, {"time": 741, "pitch": 59, "duration": 4, "velocity": 82}, {"time": 741, "pitch": 62, "duration": 4, "velocity": 82}, {"time": 741, "pitch": 66, "duration": 4, "velocity": 82}, {"time": 753, "pitch": 45, "duration": 25, "velocity": 83}, {"time": 753, "pitch": 57, "duration": 7, "velocity": 71}, {"time": 753, "pitch": 61, "duration": 7, "velocity": 72}, {"time": 759, "pitch": 52, "duration": 5, "velocity": 79}, {"time": 762, "pitch": 57, "duration": 5, "velocity": 82}, {"time": 762, "pitch": 61, "duration": 5, "velocity": 80}, {"time": 762, "pitch": 64, "duration": 9, "velocity": 82}, {"time": 765, "pitch": 52, "duration": 13, "velocity": 77}, {"time": 768, "pitch": 57, "duration": 4, "velocity": 81}, {"time": 771, "pitch": 61, "duration": 6, "velocity": 72}, {"time": 774, "pitch": 57, "duration": 4, "velocity": 71}, {"time": 777, "pitch": 43, "duration": 19, "velocity": 76}, {"time": 777, "pitch": 55, "duration": 9, "velocity": 79}, {"time": 777, "pitch": 59, "duration": 8, "velocity": 79}, {"time": 783, "pitch": 50, "duration": 6, "velocity": 73}, {"time": 789, "pitch": 55, "duration": 3, "velocity": 83}, {"time": 789, "pitch": 62, "duration": 4, "velocity": 81}, {"time": 792, "pitch": 50, "duration": 5, "velocity": 76}, {"time": 795, "pitch": 55, "duration": 4, "velocity": 82}, {"time": 798, "pitch": 62, "duration": 3, "velocity": 82}, {"time": 801, "pitch": 45, "duration": 24, "velocity": 82}, {"time": 801, "pitch": 57, "duration": 6, "velocity": 76}, {"time": 801, "pitch": 61, "duration": 8, "velocity": 86}, {"time": 807, "pitch": 52, "duration": 7, "velocity": 77}, {"time": 810, "pitch": 57, "duration": 2, "velocity": 69}, {"time": 813, "pitch": 57, "duration": 4, "velocity": 79}, {"time": 813, "pitch": 61, "duration": 2, "velocity": 79}, {"time": 813, "pitch": 64, "duration": 11, "velocity": 81}, {"time": 816, "pitch": 52, "duration": 9, "velocity": 82}, {"time": 819, "pitch": 57, "duration": 5, "velocity": 77}, {"time": 825, "pitch": 45, "duration": 11, "velocity": 83}, {"time": 825, "pitch": 57, "duration": 5, "velocity": 76}, {"time": 825, "pitch": 61, "duration": 5, "velocity": 77}, {"time": 825, "pitch": 64, "duration": 4, "velocity": 82}, {"time": 831, "pitch": 57, "duration": 2, "velocity": 67}, {"time": 831, "pitch": 61, "duration": 2, "velocity": 68}, {"time": 834, "pitch": 57, "duration": 2, "velocity": 68}, {"time": 834, "pitch": 61, "duration": 2, "velocity": 67}, {"time": 834, "pitch": 64, "duration": 1, "velocity": 74}, {"time": 837, "pitch": 57, "duration": 2, "velocity": 77}, {"time": 837, "pitch": 61, "duration": 2, "velocity": 76}, {"time": 837, "pitch": 64, "duration": 2, "velocity": 81}, {"time": 840, "pitch": 57, "duration": 2, "velocity": 84}, {"time": 840, "pitch": 61, "duration": 2, "velocity": 90}, {"time": 840, "pitch": 64, "duration": 2, "velocity": 90}, {"time": 843, "pitch": 57, "duration": 2, "velocity": 86}, {"time": 843, "pitch": 61, "duration": 2, "velocity": 88}, {"time": 843, "pitch": 64, "duration": 2, "velocity": 92}, {"time": 846, "pitch": 57, "duration": 3, "velocity": 83}, {"time": 846, "pitch": 61, "duration": 3, "velocity": 85}, {"time": 846, "pitch": 64, "duration": 3, "velocity": 90}, {"time": 849, "pitch": 50, "duration": 13, "velocity": 92}, {"time": 849, "pitch": 57, "duration": 4, "velocity": 77}, {"time": 849, "pitch": 62, "duration": 8, "velocity": 78}, {"time": 849, "pitch": 66, "duration": 8, "velocity": 75}, {"time": 855, "pitch": 57, "duration": 3, "velocity": 72}, {"time": 861, "pitch": 57, "duration": 4, "velocity": 83}, {"time": 861, "pitch": 62, "duration": 4, "velocity": 84}, {"time": 861, "pitch": 66, "duration": 6, "velocity": 84}, {"time": 864, "pitch": 50, "duration": 2, "velocity": 83}, {"time": 867, "pitch": 57, "duration": 4, "velocity": 81}, {"time": 870, "pitch": 62, "duration": 2, "velocity": 75}, {"time": 873, "pitch": 45, "duration": 16, "velocity": 82}, {"time": 873, "pitch": 57, "duration": 6, "velocity": 74}, {"time": 873, "pitch": 61, "duration": 7, "velocity": 74}, {"time": 879, "pitch": 52, "duration": 7, "velocity": 78}, {"time": 882, "pitch": 57, "duration": 2, "velocity": 76}, {"time": 885, "pitch": 57, "duration": 4, "velocity": 81}, {"time": 885, "pitch": 61, "duration": 5, "velocity": 83}, {"time": 885, "pitch": 64, "duration": 5, "velocity": 85}, {"time": 888, "pitch": 52, "duration": 2, "velocity": 81}, {"time": 891, "pitch": 45, "duration": 2, "velocity": 82}, {"time": 897, "pitch": 40, "duration": 17, "velocity": 86}, {"time": 897, "pitch": 59, "duration": 9, "velocity": 74}, {"time": 897, "pitch": 64, "duration": 9, "velocity": 81}, {"time": 903, "pitch": 47, "duration": 7, "velocity": 66}, {"time": 909, "pitch": 59, "duration": 4, "velocity": 85}, {"time": 909, "pitch": 64, "duration": 5, "velocity": 90}, {"time": 912, "pitch": 47, "duration": 2, "velocity": 83}, {"time": 915, "pitch": 59, "duration": 5, "velocity": 83}, {"time": 918, "pitch": 64, "duration": 2, "velocity": 73}, {"time": 921, "pitch": 47, "duration": 17, "velocity": 85}, {"time": 921, "pitch": 59, "duration": 6, "velocity": 81}, {"time": 921, "pitch": 62, "duration": 7, "velocity": 78}, {"time": 927, "pitch": 54, "duration": 7, "velocity": 72}, {"time": 930, "pitch": 59, "duration": 2, "velocity": 84}, {"time": 933, "pitch": 59, "duration": 4, "velocity": 92}, {"time": 933, "pitch": 62, "duration": 4, "velocity": 86}, {"time": 933, "pitch": 66, "duration": 6, "velocity": 75}, {"time": 936, "pitch": 54, "duration": 3, "velocity": 86}, {"time": 939, "pitch": 59, "duration": 3, "velocity": 86}, {"time": 945, "pitch": 38, "duration": 16, "velocity": 88}, {"time": 945, "pitch": 57, "duration": 9, "velocity": 81}, {"time": 945, "pitch": 62, "duration": 9, "velocity": 76}, {"time": 951, "pitch": 45, "duration": 9, "velocity": 63}, {"time": 957, "pitch": 57, "duration": 3, "velocity": 84}, {"time": 957, "pitch": 62, "duration": 6, "velocity": 87}, {"time": 963, "pitch": 57, "duration": 2, "velocity": 83}, {"time": 969, "pitch": 45, "duration": 16, "velocity": 83}, {"time": 969, "pitch": 57, "duration": 4, "velocity": 81}, {"time": 969, "pitch": 61, "duration": 5, "velocity": 83}, {"time": 972, "pitch": 52, "duration": 10, "velocity": 68}, {"time": 975, "pitch": 57, "duration": 3, "velocity": 78}, {"time": 981, "pitch": 57, "duration": 3, "velocity": 81}, {"time": 981, "pitch": 61, "duration": 5, "velocity": 86}, {"time": 981, "pitch": 64, "duration": 5, "velocity": 85}, {"time": 984, "pitch": 52, "duration": 2, "velocity": 82}, {"time": 987, "pitch": 45, "duration": 2, "velocity": 82}, {"time": 993, "pitch": 40, "duration": 17, "velocity": 88}, {"time": 993, "pitch": 59, "duration": 4, "velocity": 78}, {"time": 993, "pitch": 64, "duration": 6, "velocity": 81}, {"time": 999, "pitch": 47, "duration": 8, "velocity": 62}, {"time": 1002, "pitch": 52, "duration": 2, "velocity": 82}, {"time": 1005, "pitch": 52, "duration": 2, "velocity": 86}, {"time": 1005, "pitch": 56, "duration": 2, "velocity": 86}, {"time": 1005, "pitch": 59, "duration": 3, "velocity": 85}, {"time": 1008, "pitch": 52, "duration": 2, "velocity": 82}, {"time": 1011, "pitch": 40, "duration": 23, "velocity": 90}, {"time": 1011, "pitch": 52, "duration": 7, "velocity": 82}, {"time": 1011, "pitch": 56, "duration": 8, "velocity": 85}, {"time": 1011, "pitch": 59, "duration": 8, "velocity": 81}, {"time": 1011, "pitch": 64, "duration": 7, "velocity": 82}, {"time": 1017, "pitch": 47, "duration": 4, "velocity": 75}, {"time": 1020, "pitch": 52, "duration": 4, "velocity": 85}, {"time": 1020, "pitch": 59, "duration": 4, "velocity": 85}, {"time": 1023, "pitch": 47, "duration": 7, "velocity": 77}, {"time": 1026, "pitch": 52, "duration": 2, "velocity": 78}, {"time": 1029, "pitch": 52, "duration": 4, "velocity": 83}, {"time": 1029, "pitch": 56, "duration": 5, "velocity": 87}, {"time": 1029, "pitch": 59, "duration": 5, "velocity": 86}, {"time": 1029, "pitch": 64, "duration": 5, "velocity": 88}, {"time": 1032, "pitch": 47, "duration": 3, "velocity": 81}, {"time": 1035, "pitch": 52, "duration": 2, "velocity": 90}, {"time": 1035, "pitch": 59, "duration": 1, "velocity": 61}, {"time": 1035, "pitch": 64, "duration": 2, "velocity": 69}, {"time": 1041, "pitch": 47, "duration": 16, "velocity": 83}, {"time": 1041, "pitch": 59, "duration": 8, "velocity": 82}, {"time": 1041, "pitch": 62, "duration": 8, "velocity": 77}, {"time": 1047, "pitch": 54, "duration": 7, "velocity": 76}, {"time": 1053, "pitch": 59, "duration": 3, "velocity": 83}, {"time": 1053, "pitch": 62, "duration": 4, "velocity": 84}, {"time": 1053, "pitch": 66, "duration": 4, "velocity": 84}, {"time": 1056, "pitch": 54, "duration": 2, "velocity": 83}, {"time": 1059, "pitch": 59, "duration": 5, "velocity": 83}, {"time": 1062, "pitch": 62, "duration": 2, "velocity": 71}, {"time": 1065, "pitch": 45, "duration": 17, "velocity": 82}, {"time": 1065, "pitch": 57, "duration": 6, "velocity": 78}, {"time": 1065, "pitch": 61, "duration": 7, "velocity": 75}, {"time": 1071, "pitch": 52, "duration": 7, "velocity": 70}, {"time": 1074, "pitch": 57, "duration": 2, "velocity": 75}, {"time": 1077, "pitch": 57, "duration": 4, "velocity": 84}, {"time": 1077, "pitch": 61, "duration": 4, "velocity": 90}, {"time": 1077, "pitch": 64, "duration": 4, "velocity": 88}, {"time": 1080, "pitch": 52, "duration": 2, "velocity": 83}, {"time": 1083, "pitch": 57, "duration": 2, "velocity": 85}, {"time": 1089, "pitch": 40, "duration": 17, "velocity": 85}, {"time": 1089, "pitch": 59, "duration": 6, "velocity": 79}, {"time": 1089, "pitch": 64, "duration": 4, "velocity": 82}, {"time": 1095, "pitch": 47, "duration": 7, "velocity": 65}, {"time": 1098, "pitch": 59, "duration": 2, "velocity": 76}, {"time": 1101, "pitch": 59, "duration": 4, "velocity": 87}, {"time": 1101, "pitch": 64, "duration": 5, "velocity": 95}, {"time": 1104, "pitch": 47, "duration": 2, "velocity": 82}, {"time": 1107, "pitch": 59, "duration": 2, "velocity": 86}, {"time": 1110, "pitch": 64, "duration": 2, "velocity": 82}, {"time": 1113, "pitch": 47, "duration": 16, "velocity": 83}, {"time": 1113, "pitch": 59, "duration": 3, "velocity": 73}, {"time": 1113, "pitch": 60, "duration": 3, "velocity": 72}, {"time": 1113, "pitch": 62, "duration": 8, "velocity": 77}, {"time": 1119, "pitch": 54, "duration": 4, "velocity": 81}, {"time": 1122, "pitch": 59, "duration": 4, "velocity": 82}, {"time": 1122, "pitch": 62, "duration": 5, "velocity": 82}, {"time": 1122, "pitch": 66, "duration": 6, "velocity": 82}, {"time": 1125, "pitch": 54, "duration": 4, "velocity": 74}, {"time": 1128, "pitch": 59, "duration": 3, "velocity": 83}, {"time": 1131, "pitch": 62, "duration": 3, "velocity": 78}, {"time": 1137, "pitch": 38, "duration": 16, "velocity": 87}, {"time": 1137, "pitch": 57, "duration": 6, "velocity": 79}, {"time": 1137, "pitch": 62, "duration": 8, "velocity": 82}, {"time": 1143, "pitch": 45, "duration": 7, "velocity": 64}, {"time": 1146, "pitch": 57, "duration": 1, "velocity": 75}, {"time": 1149, "pitch": 57, "duration": 4, "velocity": 82}, {"time": 1149, "pitch": 62, "duration": 4, "velocity": 85}, {"time": 1149, "pitch": 66, "duration": 6, "velocity": 84}, {"time": 1152, "pitch": 45, "duration": 2, "velocity": 85}, {"time": 1155, "pitch": 57, "duration": 5, "velocity": 82}, {"time": 1158, "pitch": 62, "duration": 2, "velocity": 70}, {"time": 1161, "pitch": 45, "duration": 15, "velocity": 83}, {"time": 1161, "pitch": 57, "duration": 6, "velocity": 77}, {"time": 1161, "pitch": 61, "duration": 7, "velocity": 81}, {"time": 1167, "pitch": 52, "duration": 4, "velocity": 70}, {"time": 1170, "pitch": 57, "duration": 4, "velocity": 85}, {"time": 1170, "pitch": 61, "duration": 5, "velocity": 84}, {"time": 1170, "pitch": 64, "duration": 5, "velocity": 85}, {"time": 1173, "pitch": 52, "duration": 4, "velocity": 81}, {"time": 1176, "pitch": 57, "duration": 5, "velocity": 85}, {"time": 1179, "pitch": 61, "duration": 4, "velocity": 92}, {"time": 1185, "pitch": 40, "duration": 12, "velocity": 83}, {"time": 1185, "pitch": 59, "duration": 7, "velocity": 78}, {"time": 1185, "pitch": 64, "duration": 10, "velocity": 82}, {"time": 1191, "pitch": 47, "duration": 6, "velocity": 67}, {"time": 1197, "pitch": 59, "duration": 5, "velocity": 83}, {"time": 1197, "pitch": 64, "duration": 8, "velocity": 82}, {"time": 1203, "pitch": 52, "duration": 27, "velocity": 71}, {"time": 1209, "pitch": 59, "duration": 9, "velocity": 69}, {"time": 1209, "pitch": 64, "duration": 7, "velocity": 73}, {"time": 1221, "pitch": 59, "duration": 3, "velocity": 74}, {"time": 1221, "pitch": 64, "duration": 4, "velocity": 76}, {"time": 1224, "pitch": 56, "duration": 5, "velocity": 66}, {"time": 1227, "pitch": 59, "duration": 4, "velocity": 74}, {"time": 1233, "pitch": 52, "duration": 27, "velocity": 73}, {"time": 1233, "pitch": 59, "duration": 8, "velocity": 69}, {"time": 1233, "pitch": 64, "duration": 8, "velocity": 73}, {"time": 1245, "pitch": 59, "duration": 3, "velocity": 73}, {"time": 1245, "pitch": 64, "duration": 3, "velocity": 76}, {"time": 1257, "pitch": 59, "duration": 7, "velocity": 82}, {"time": 1257, "pitch": 64, "duration": 8, "velocity": 83}, {"time": 1263, "pitch": 52, "duration": 8, "velocity": 68}, {"time": 1269, "pitch": 59, "duration": 11, "velocity": 77}, {"time": 1269, "pitch": 64, "duration": 11, "velocity": 82}, {"time": 1281, "pitch": 47, "duration": 19, "velocity": 80}, {"time": 1281, "pitch": 59, "duration": 8, "velocity": 75}, {"time": 1281, "pitch": 62, "duration": 8, "velocity": 77}, {"time": 1287, "pitch": 54, "duration": 7, "velocity": 66}, {"time": 1293, "pitch": 59, "duration": 4, "velocity": 82}, {"time": 1293, "pitch": 62, "duration": 5, "velocity": 82}, {"time": 1293, "pitch": 66, "duration": 5, "velocity": 77}, {"time": 1296, "pitch": 54, "duration": 3, "velocity": 66}, {"time": 1299, "pitch": 59, "duration": 3, "velocity": 81}, {"time": 1305, "pitch": 42, "duration": 14, "velocity": 77}, {"time": 1305, "pitch": 57, "duration": 8, "velocity": 65}, {"time": 1305, "pitch": 61, "duration": 7, "velocity": 69}, {"time": 1311, "pitch": 49, "duration": 8, "velocity": 54}, {"time": 1317, "pitch": 57, "duration": 3, "velocity": 75}, {"time": 1317, "pitch": 61, "duration": 6, "velocity": 79}, {"time": 1317, "pitch": 66, "duration": 9, "velocity": 73}, {"time": 1329, "pitch": 47, "duration": 17, "velocity": 81}, {"time": 1329, "pitch": 59, "duration": 7, "velocity": 73}, {"time": 1329, "pitch": 62, "duration": 7, "velocity": 77}, {"time": 1335, "pitch": 54, "duration": 7, "velocity": 66}, {"time": 1341, "pitch": 59, "duration": 3, "velocity": 81}, {"time": 1341, "pitch": 62, "duration": 4, "velocity": 82}, {"time": 1341, "pitch": 66, "duration": 5, "velocity": 82}, {"time": 1344, "pitch": 54, "duration": 3, "velocity": 74}, {"time": 1347, "pitch": 59, "duration": 3, "velocity": 82}, {"time": 1353, "pitch": 42, "duration": 16, "velocity": 77}, {"time": 1353, "pitch": 57, "duration": 7, "velocity": 74}, {"time": 1353, "pitch": 61, "duration": 7, "velocity": 70}, {"time": 1359, "pitch": 49, "duration": 7, "velocity": 64}, {"time": 1365, "pitch": 57, "duration": 4, "velocity": 81}, {"time": 1365, "pitch": 61, "duration": 5, "velocity": 86}, {"time": 1365, "pitch": 66, "duration": 6, "velocity": 77}, {"time": 1368, "pitch": 49, "duration": 3, "velocity": 73}, {"time": 1371, "pitch": 57, "duration": 4, "velocity": 82}, {"time": 1374, "pitch": 61, "duration": 3, "velocity": 81}, {"time": 1377, "pitch": 47, "duration": 16, "velocity": 81}, {"time": 1377, "pitch": 59, "duration": 6, "velocity": 73}, {"time": 1377, "pitch": 62, "duration": 6, "velocity": 81}, {"time": 1383, "pitch": 54, "duration": 7, "velocity": 54}, {"time": 1389, "pitch": 59, "duration": 4, "velocity": 82}, {"time": 1389, "pitch": 62, "duration": 4, "velocity": 82}, {"time": 1389, "pitch": 66, "duration": 4, "velocity": 82}, {"time": 1401, "pitch": 42, "duration": 15, "velocity": 78}, {"time": 1401, "pitch": 57, "duration": 6, "velocity": 72}, {"time": 1401, "pitch": 61, "duration": 7, "velocity": 72}, {"time": 1407, "pitch": 49, "duration": 10, "velocity": 68}, {"time": 1410, "pitch": 57, "duration": 2, "velocity": 60}, {"time": 1413, "pitch": 57, "duration": 5, "velocity": 83}, {"time": 1413, "pitch": 61, "duration": 5, "velocity": 88}, {"time": 1413, "pitch": 66, "duration": 5, "velocity": 80}, {"time": 1419, "pitch": 42, "duration": 2, "velocity": 83}, {"time": 1425, "pitch": 43, "duration": 19, "velocity": 76}, {"time": 1425, "pitch": 55, "duration": 9, "velocity": 79}, {"time": 1425, "pitch": 59, "duration": 8, "velocity": 79}, {"time": 1431, "pitch": 50, "duration": 6, "velocity": 73}, {"time": 1437, "pitch": 55, "duration": 3, "velocity": 83}, {"time": 1437, "pitch": 62, "duration": 4, "velocity": 81}, {"time": 1440, "pitch": 50, "duration": 5, "velocity": 76}, {"time": 1443, "pitch": 55, "duration": 4, "velocity": 82}, {"time": 1446, "pitch": 62, "duration": 3, "velocity": 82}, {"time": 1449, "pitch": 45, "duration": 24, "velocity": 82}, {"time": 1449, "pitch": 57, "duration": 6, "velocity": 76}, {"time": 1449, "pitch": 61, "duration": 8, "velocity": 86}, {"time": 1455, "pitch": 52, "duration": 7, "velocity": 77}, {"time": 1458, "pitch": 57, "duration": 2, "velocity": 69}, {"time": 1461, "pitch": 57, "duration": 4, "velocity": 79}, {"time": 1461, "pitch": 61, "duration": 2, "velocity": 79}, {"time": 1461, "pitch": 64, "duration": 11, "velocity": 81}, {"time": 1464, "pitch": 52, "duration": 9, "velocity": 82}, {"time": 1467, "pitch": 57, "duration": 5, "velocity": 77}, {"time": 1473, "pitch": 47, "duration": 19, "velocity": 80}, {"time": 1473, "pitch": 59, "duration": 8, "velocity": 75}, {"time": 1473, "pitch": 62, "duration": 8, "velocity": 77}, {"time": 1479, "pitch": 54, "duration": 7, "velocity": 66}, {"time": 1485, "pitch": 59, "duration": 4, "velocity": 82}, {"time": 1485, "pitch": 62, "duration": 5, "velocity": 82}, {"time": 1485, "pitch": 66, "duration": 5, "velocity": 77}, {"time": 1488, "pitch": 54, "duration": 3, "velocity": 66}, {"time": 1491, "pitch": 59, "duration": 3, "velocity": 81}, {"time": 1497, "pitch": 42, "duration": 14, "velocity": 77}, {"time": 1497, "pitch": 57, "duration": 8, "velocity": 65}, {"time": 1497, "pitch": 61, "duration": 7, "velocity": 69}, {"time": 1503, "pitch": 49, "duration": 8, "velocity": 54}, {"time": 1509, "pitch": 57, "duration": 3, "velocity": 75}, {"time": 1509, "pitch": 61, "duration": 6, "velocity": 79}, {"time": 1509, "pitch": 66, "duration": 9, "velocity": 73}, {"time": 1521, "pitch": 47, "duration": 17, "velocity": 81}, {"time": 1521, "pitch": 59, "duration": 7, "velocity": 73}, {"time": 1521, "pitch": 62, "duration": 7, "velocity": 77}, {"time": 1527, "pitch": 54, "duration": 7, "velocity": 66}, {"time": 1533, "pitch": 59, "duration": 3, "velocity": 81}, {"time": 1533, "pitch": 62, "duration": 4, "velocity": 82}, {"time": 1533, "pitch": 66, "duration": 5, "velocity": 82}, {"time": 1536, "pitch": 54, "duration": 3, "velocity": 74}, {"time": 1539, "pitch": 59, "duration": 3, "velocity": 82}, {"time": 1545, "pitch": 42, "duration": 16, "velocity": 77}, {"time": 1545, "pitch": 57, "duration": 7, "velocity": 74}, {"time": 1545, "pitch": 61, "duration": 7, "velocity": 70}, {"time": 1551, "pitch": 49, "duration": 7, "velocity": 64}, {"time": 1557, "pitch": 57, "duration": 4, "velocity": 81}, {"time": 1557, "pitch": 61, "duration": 5, "velocity": 86}, {"time": 1557, "pitch": 66, "duration": 6, "velocity": 77}, {"time": 1560, "pitch": 49, "duration": 3, "velocity": 73}, {"time": 1563, "pitch": 57, "duration": 4, "velocity": 82}, {"time": 1566, "pitch": 61, "duration": 3, "velocity": 81}, {"time": 1569, "pitch": 47, "duration": 16, "velocity": 81}, {"time": 1569, "pitch": 59, "duration": 6, "velocity": 73}, {"time": 1569, "pitch": 62, "duration": 6, "velocity": 81}, {"time": 1575, "pitch": 54, "duration": 7, "velocity": 54}, {"time": 1581, "pitch": 59, "duration": 4, "velocity": 82}, {"time": 1581, "pitch": 62, "duration": 4, "velocity": 82}, {"time": 1581, "pitch": 66, "duration": 4, "velocity": 82}, {"time": 1593, "pitch": 45, "duration": 25, "velocity": 83}, {"time": 1593, "pitch": 57, "duration": 7, "velocity": 71}, {"time": 1593, "pitch": 61, "duration": 7, "velocity": 72}, {"time": 1599, "pitch": 52, "duration": 5, "velocity": 79}, {"time": 1602, "pitch": 57, "duration": 5, "velocity": 82}, {"time": 1602, "pitch": 61, "duration": 5, "velocity": 80}, {"time": 1602, "pitch": 64, "duration": 9, "velocity": 82}, {"time": 1605, "pitch": 52, "duration": 13, "velocity": 77}, {"time": 1608, "pitch": 57, "duration": 4, "velocity": 81}, {"time": 1611, "pitch": 61, "duration": 6, "velocity": 72}, {"time": 1614, "pitch": 57, "duration": 4, "velocity": 71}, {"time": 1617, "pitch": 43, "duration": 19, "velocity": 76}, {"time": 1617, "pitch": 55, "duration": 9, "velocity": 79}, {"time": 1617, "pitch": 59, "duration": 8, "velocity": 79}, {"time": 1623, "pitch": 50, "duration": 6, "velocity": 73}, {"time": 1629, "pitch": 55, "duration": 3, "velocity": 83}, {"time": 1629, "pitch": 62, "duration": 4, "velocity": 81}, {"time": 1632, "pitch": 50, "duration": 5, "velocity": 76}, {"time": 1635, "pitch": 55, "duration": 4, "velocity": 82}, {"time": 1638, "pitch": 62, "duration": 3, "velocity": 82}, {"time": 1641, "pitch": 45, "duration": 11, "velocity": 83}, {"time": 1641, "pitch": 57, "duration": 5, "velocity": 76}, {"time": 1641, "pitch": 61, "duration": 5, "velocity": 77}, {"time": 1641, "pitch": 64, "duration": 4, "velocity": 82}, {"time": 1647, "pitch": 57, "duration": 2, "velocity": 67}, {"time": 1647, "pitch": 61, "duration": 2, "velocity": 68}, {"time": 1650, "pitch": 57, "duration": 2, "velocity": 68}, {"time": 1650, "pitch": 61, "duration": 2, "velocity": 67}, {"time": 1650, "pitch": 64, "duration": 1, "velocity": 74}, {"time": 1653, "pitch": 57, "duration": 2, "velocity": 77}, {"time": 1653, "pitch": 61, "duration": 2, "velocity": 76}, {"time": 1653, "pitch": 64, "duration": 2, "velocity": 81}, {"time": 1656, "pitch": 57, "duration": 2, "velocity": 84}, {"time": 1656, "pitch": 61, "duration": 2, "velocity": 90}, {"time": 1656, "pitch": 64, "duration": 2, "velocity": 90}, {"time": 1659, "pitch": 57, "duration": 2, "velocity": 86}, {"time": 1659, "pitch": 61, "duration": 2, "velocity": 88}, {"time": 1659, "pitch": 64, "duration": 2, "velocity": 92}, {"time": 1662, "pitch": 57, "duration": 3, "velocity": 83}, {"time": 1662, "pitch": 61, "duration": 3, "velocity": 85}, {"time": 1662, "pitch": 64, "duration": 3, "velocity": 90}, {"time": 1665, "pitch": 50, "duration": 13, "velocity": 92}, {"time": 1665, "pitch": 57, "duration": 4, "velocity": 77}, {"time": 1665, "pitch": 62, "duration": 8, "velocity": 78}, {"time": 1665, "pitch": 66, "duration": 8, "velocity": 75}, {"time": 1671, "pitch": 57, "duration": 3, "velocity": 72}, {"time": 1677, "pitch": 57, "duration": 4, "velocity": 83}, {"time": 1677, "pitch": 62, "duration": 4, "velocity": 84}, {"time": 1677, "pitch": 66, "duration": 6, "velocity": 84}, {"time": 1680, "pitch": 50, "duration": 2, "velocity": 83}, {"time": 1683, "pitch": 57, "duration": 4, "velocity": 81}, {"time": 1686, "pitch": 62, "duration": 2, "velocity": 75}, {"time": 1689, "pitch": 45, "duration": 16, "velocity": 82}, {"time": 1689, "pitch": 57, "duration": 6, "velocity": 74}, {"time": 1689, "pitch": 61, "duration": 7, "velocity": 74}, {"time": 1695, "pitch": 52, "duration": 7, "velocity": 78}, {"time": 1698, "pitch": 57, "duration": 2, "velocity": 76}, {"time": 1701, "pitch": 57, "duration": 4, "velocity": 81}, {"time": 1701, "pitch": 61, "duration": 5, "velocity": 83}, {"time": 1701, "pitch": 64, "duration": 5, "velocity": 85}, {"time": 1704, "pitch": 52, "duration": 2, "velocity": 81}, {"time": 1707, "pitch": 45, "duration": 2, "velocity": 82}, {"time": 1713, "pitch": 40, "duration": 17, "velocity": 86}, {"time": 1713, "pitch": 59, "duration": 9, "velocity": 74}, {"time": 1713, "pitch": 64, "duration": 9, "velocity": 81}, {"time": 1719, "pitch": 47, "duration": 7, "velocity": 66}, {"time": 1725, "pitch": 59, "duration": 4, "velocity": 85}, {"time": 1725, "pitch": 64, "duration": 5, "velocity": 90}, {"time": 1728, "pitch": 47, "duration": 2, "velocity": 83}, {"time": 1731, "pitch": 59, "duration": 5, "velocity": 83}, {"time": 1734, "pitch": 64, "duration": 2, "velocity": 73}, {"time": 1737, "pitch": 47, "duration": 17, "velocity": 85}, {"time": 1737, "pitch": 59, "duration": 6, "velocity": 81}, {"time": 1737, "pitch": 62, "duration": 7, "velocity": 78}, {"time": 1743, "pitch": 54, "duration": 7, "velocity": 72}, {"time": 1746, "pitch": 59, "duration": 2, "velocity": 84}, {"time": 1749, "pitch": 59, "duration": 4, "velocity": 92}, {"time": 1749, "pitch": 62, "duration": 4, "velocity": 86}, {"time": 1749, "pitch": 66, "duration": 6, "velocity": 75}, {"time": 1752, "pitch": 54, "duration": 3, "velocity": 86}, {"time": 1755, "pitch": 59, "duration": 3, "velocity": 86}, {"time": 1761, "pitch": 38, "duration": 16, "velocity": 88}, {"time": 1761, "pitch": 57, "duration": 9, "velocity": 81}, {"time": 1761, "pitch": 62, "duration": 9, "velocity": 76}, {"time": 1767, "pitch": 45, "duration": 9, "velocity": 63}, {"time": 1773, "pitch": 57, "duration": 3, "velocity": 84}, {"time": 1773, "pitch": 62, "duration": 6, "velocity": 87}, {"time": 1779, "pitch": 57, "duration": 2, "velocity": 83}, {"time": 1785, "pitch": 45, "duration": 16, "velocity": 83}, {"time": 1785, "pitch": 57, "duration": 4, "velocity": 81}, {"time": 1785, "pitch": 61, "duration": 5, "velocity": 83}, {"time": 1788, "pitch": 52, "duration": 10, "velocity": 68}, {"time": 1791, "pitch": 57, "duration": 3, "velocity": 78}, {"time": 1797, "pitch": 57, "duration": 3, "velocity": 81}, {"time": 1797, "pitch": 61, "duration": 5, "velocity": 86}, {"time": 1797, "pitch": 64, "duration": 5, "velocity": 85}, {"time": 1800, "pitch": 52, "duration": 2, "velocity": 82}, {"time": 1803, "pitch": 45, "duration": 2, "velocity": 82}, {"time": 1809, "pitch": 40, "duration": 17, "velocity": 88}, {"time": 1809, "pitch": 59, "duration": 4, "velocity": 78}, {"time": 1809, "pitch": 64, "duration": 6, "velocity": 81}, {"time": 1815, "pitch": 47, "duration": 8, "velocity": 62}, {"time": 1818, "pitch": 52, "duration": 2, "velocity": 82}, {"time": 1821, "pitch": 52, "duration": 2, "velocity": 86}, {"time": 1821, "pitch": 56, "duration": 2, "velocity": 86}, {"time": 1821, "pitch": 59, "duration": 3, "velocity": 85}, {"time": 1824, "pitch": 52, "duration": 2, "velocity": 82}, {"time": 1827, "pitch": 40, "duration": 23, "velocity": 90}, {"time": 1827, "pitch": 52, "duration": 7, "velocity": 82}, {"time": 1827, "pitch": 56, "duration": 8, "velocity": 85}, {"time": 1827, "pitch": 59, "duration": 8, "velocity": 81}, {"time": 1827, "pitch": 64, "duration": 7, "velocity": 82}, {"time": 1833, "pitch": 47, "duration": 4, "velocity": 75}, {"time": 1836, "pitch": 52, "duration": 4, "velocity": 85}, {"time": 1836, "pitch": 59, "duration": 4, "velocity": 85}, {"time": 1839, "pitch": 47, "duration": 7, "velocity": 77}, {"time": 1842, "pitch": 52, "duration": 2, "velocity": 78}, {"time": 1845, "pitch": 52, "duration": 4, "velocity": 83}, {"time": 1845, "pitch": 56, "duration": 5, "velocity": 87}, {"time": 1845, "pitch": 59, "duration": 5, "velocity": 86}, {"time": 1845, "pitch": 64, "duration": 5, "velocity": 88}, {"time": 1848, "pitch": 47, "duration": 3, "velocity": 81}, {"time": 1851, "pitch": 52, "duration": 2, "velocity": 90}, {"time": 1851, "pitch": 59, "duration": 1, "velocity": 61}, {"time": 1851, "pitch": 64, "duration": 2, "velocity": 69}, {"time": 1857, "pitch": 47, "duration": 16, "velocity": 83}, {"time": 1857, "pitch": 59, "duration": 8, "velocity": 82}, {"time": 1857, "pitch": 62, "duration": 8, "velocity": 77}, {"time": 1863, "pitch": 54, "duration": 7, "velocity": 76}, {"time": 1869, "pitch": 59, "duration": 3, "velocity": 83}, {"time": 1869, "pitch": 62, "duration": 4, "velocity": 84}, {"time": 1869, "pitch": 66, "duration": 4, "velocity": 84}, {"time": 1872, "pitch": 54, "duration": 2, "velocity": 83}, {"time": 1875, "pitch": 59, "duration": 5, "velocity": 83}, {"time": 1878, "pitch": 62, "duration": 2, "velocity": 71}, {"time": 1881, "pitch": 45, "duration": 17, "velocity": 82}, {"time": 1881, "pitch": 57, "duration": 6, "velocity": 78}, {"time": 1881, "pitch": 61, "duration": 7, "velocity": 75}, {"time": 1887, "pitch": 52, "duration": 7, "velocity": 70}, {"time": 1890, "pitch": 57, "duration": 2, "velocity": 75}, {"time": 1893, "pitch": 57, "duration": 4, "velocity": 84}, {"time": 1893, "pitch": 61, "duration": 4, "velocity": 90}, {"time": 1893, "pitch": 64, "duration": 4, "velocity": 88}, {"time": 1896, "pitch": 52, "duration": 2, "velocity": 83}, {"time": 1899, "pitch": 57, "duration": 2, "velocity": 85}, {"time": 1905, "pitch": 40, "duration": 17, "velocity": 85}, {"time": 1905, "pitch": 59, "duration": 6, "velocity": 79}, {"time": 1905, "pitch": 64, "duration": 4, "velocity": 82}, {"time": 1911, "pitch": 47, "duration": 7, "velocity": 65}, {"time": 1914, "pitch": 59, "duration": 2, "velocity": 76}, {"time": 1917, "pitch": 59, "duration": 4, "velocity": 87}, {"time": 1917, "pitch": 64, "duration": 5, "velocity": 95}, {"time": 1920, "pitch": 47, "duration": 2, "velocity": 82}, {"time": 1923, "pitch": 59, "duration": 2, "velocity": 86}, {"time": 1926, "pitch": 64, "duration": 2, "velocity": 82}, {"time": 1929, "pitch": 47, "duration": 16, "velocity": 83}, {"time": 1929, "pitch": 59, "duration": 3, "velocity": 73}, {"time": 1929, "pitch": 62, "duration": 8, "velocity": 77}, {"time": 1935, "pitch": 54, "duration": 4, "velocity": 81}, {"time": 1938, "pitch": 59, "duration": 4, "velocity": 82}, {"time": 1938, "pitch": 62, "duration": 5, "velocity": 82}, {"time": 1938, "pitch": 66, "duration": 6, "velocity": 82}, {"time": 1941, "pitch": 54, "duration": 4, "velocity": 74}, {"time": 1944, "pitch": 59, "duration": 3, "velocity": 83}, {"time": 1947, "pitch": 62, "duration": 3, "velocity": 78}, {"time": 1953, "pitch": 38, "duration": 16, "velocity": 87}, {"time": 1953, "pitch": 57, "duration": 6, "velocity": 79}, {"time": 1953, "pitch": 62, "duration": 8, "velocity": 82}, {"time": 1959, "pitch": 45, "duration": 7, "velocity": 64}, {"time": 1962, "pitch": 57, "duration": 1, "velocity": 75}, {"time": 1965, "pitch": 57, "duration": 4, "velocity": 82}, {"time": 1965, "pitch": 62, "duration": 4, "velocity": 85}, {"time": 1965, "pitch": 66, "duration": 6, "velocity": 84}, {"time": 1968, "pitch": 45, "duration": 2, "velocity": 85}, {"time": 1971, "pitch": 57, "duration": 5, "velocity": 82}, {"time": 1974, "pitch": 62, "duration": 2, "velocity": 70}, {"time": 1977, "pitch": 45, "duration": 15, "velocity": 83}, {"time": 1977, "pitch": 57, "duration": 6, "velocity": 77}, {"time": 1977, "pitch": 61, "duration": 7, "velocity": 81}, {"time": 1983, "pitch": 52, "duration": 4, "velocity": 70}, {"time": 1986, "pitch": 57, "duration": 4, "velocity": 85}, {"time": 1986, "pitch": 61, "duration": 5, "velocity": 84}, {"time": 1986, "pitch": 64, "duration": 5, "velocity": 85}, {"time": 1989, "pitch": 52, "duration": 4, "velocity": 81}, {"time": 1992, "pitch": 57, "duration": 5, "velocity": 85}, {"time": 1995, "pitch": 61, "duration": 4, "velocity": 92}, {"time": 2001, "pitch": 40, "duration": 5, "velocity": 86}, {"time": 2001, "pitch": 59, "duration": 4, "velocity": 81}, {"time": 2001, "pitch": 64, "duration": 5, "velocity": 83}, {"time": 2007, "pitch": 59, "duration": 2, "velocity": 70}, {"time": 2007, "pitch": 64, "duration": 2, "velocity": 76}, {"time": 2013, "pitch": 59, "duration": 3, "velocity": 83}, {"time": 2013, "pitch": 64, "duration": 3, "velocity": 86}, {"time": 2019, "pitch": 59, "duration": 6, "velocity": 74}, {"time": 2019, "pitch": 64, "duration": 6, "velocity": 78}, {"time": 2025, "pitch": 40, "duration": 2, "velocity": 77}, {"time": 2025, "pitch": 59, "duration": 2, "velocity": 73}, {"time": 2025, "pitch": 64, "duration": 2, "velocity": 79}, {"time": 2028, "pitch": 40, "duration": 2, "velocity": 76}, {"time": 2028, "pitch": 59, "duration": 2, "velocity": 70}, {"time": 2028, "pitch": 64, "duration": 2, "velocity": 74}, {"time": 2031, "pitch": 40, "duration": 2, "velocity": 82}, {"time": 2031, "pitch": 59, "duration": 2, "velocity": 72}, {"time": 2031, "pitch": 64, "duration": 2, "velocity": 78}, {"time": 2034, "pitch": 40, "duration": 2, "velocity": 87}, {"time": 2034, "pitch": 59, "duration": 2, "velocity": 82}, {"time": 2034, "pitch": 64, "duration": 2, "velocity": 86}, {"time": 2037, "pitch": 40, "duration": 2, "velocity": 95}, {"time": 2037, "pitch": 59, "duration": 2, "velocity": 82}, {"time": 2037, "pitch": 64, "duration": 2, "velocity": 90}, {"time": 2040, "pitch": 40, "duration": 2, "velocity": 86}, {"time": 2040, "pitch": 59, "duration": 2, "velocity": 82}, {"time": 2040, "pitch": 64, "duration": 2, "velocity": 88}, {"time": 2043, "pitch": 40, "duration": 2, "velocity": 90}, {"time": 2043, "pitch": 59, "duration": 2, "velocity": 84}, {"time": 2043, "pitch": 64, "duration": 2, "velocity": 95}, {"time": 2049, "pitch": 47, "duration": 16, "velocity": 83}, {"time": 2049, "pitch": 59, "duration": 6, "velocity": 78}, {"time": 2049, "pitch": 62, "duration": 6, "velocity": 76}, {"time": 2049, "pitch": 66, "duration": 6, "velocity": 74}, {"time": 2055, "pitch": 54, "duration": 7, "velocity": 71}, {"time": 2058, "pitch": 59, "duration": 1, "velocity": 67}, {"time": 2061, "pitch": 59, "duration": 3, "velocity": 82}, {"time": 2061, "pitch": 62, "duration": 4, "velocity": 82}, {"time": 2061, "pitch": 66, "duration": 4, "velocity": 83}, {"time": 2064, "pitch": 54, "duration": 3, "velocity": 76}, {"time": 2067, "pitch": 47, "duration": 2, "velocity": 82}, {"time": 2073, "pitch": 42, "duration": 14, "velocity": 85}, {"time": 2073, "pitch": 57, "duration": 7, "velocity": 77}, {"time": 2073, "pitch": 61, "duration": 8, "velocity": 78}, {"time": 2079, "pitch": 49, "duration": 7, "velocity": 29}, {"time": 2082, "pitch": 57, "duration": 2, "velocity": 70}, {"time": 2085, "pitch": 57, "duration": 5, "velocity": 84}, {"time": 2085, "pitch": 61, "duration": 5, "velocity": 92}, {"time": 2085, "pitch": 66, "duration": 6, "velocity": 83}, {"time": 2088, "pitch": 49, "duration": 2, "velocity": 79}, {"time": 2091, "pitch": 42, "duration": 2, "velocity": 85}, {"time": 2097, "pitch": 47, "duration": 17, "velocity": 83}, {"time": 2097, "pitch": 59, "duration": 6, "velocity": 81}, {"time": 2097, "pitch": 62, "duration": 6, "velocity": 81}, {"time": 2103, "pitch": 54, "duration": 7, "velocity": 75}, {"time": 2109, "pitch": 59, "duration": 3, "velocity": 86}, {"time": 2109, "pitch": 62, "duration": 3, "velocity": 97}, {"time": 2109, "pitch": 66, "duration": 3, "velocity": 87}, {"time": 2112, "pitch": 54, "duration": 3, "velocity": 81}, {"time": 2115, "pitch": 59, "duration": 5, "velocity": 80}, {"time": 2118, "pitch": 62, "duration": 2, "velocity": 75}, {"time": 2121, "pitch": 42, "duration": 11, "velocity": 84}, {"time": 2121, "pitch": 57, "duration": 7, "velocity": 70}, {"time": 2121, "pitch": 61, "duration": 8, "velocity": 87}, {"time": 2127, "pitch": 49, "duration": 4, "velocity": 80}, {"time": 2130, "pitch": 57, "duration": 4, "velocity": 81}, {"time": 2130, "pitch": 61, "duration": 4, "velocity": 83}, {"time": 2130, "pitch": 66, "duration": 4, "velocity": 77}, {"time": 2133, "pitch": 49, "duration": 6, "velocity": 75}, {"time": 2136, "pitch": 57, "duration": 2, "velocity": 85}, {"time": 2136, "pitch": 61, "duration": 4, "velocity": 95}, {"time": 2139, "pitch": 57, "duration": 2, "velocity": 87}, {"time": 2145, "pitch": 43, "duration": 17, "velocity": 84}, {"time": 2145, "pitch": 55, "duration": 6, "velocity": 79}, {"time": 2145, "pitch": 59, "duration": 7, "velocity": 80}, {"time": 2151, "pitch": 50, "duration": 7, "velocity": 67}, {"time": 2157, "pitch": 55, "duration": 3, "velocity": 86}, {"time": 2157, "pitch": 62, "duration": 4, "velocity": 82}, {"time": 2160, "pitch": 50, "duration": 3, "velocity": 85}, {"time": 2163, "pitch": 55, "duration": 4, "velocity": 82}, {"time": 2166, "pitch": 59, "duration": 2, "velocity": 81}, {"time": 2169, "pitch": 38, "duration": 17, "velocity": 86}, {"time": 2169, "pitch": 57, "duration": 5, "velocity": 73}, {"time": 2169, "pitch": 62, "duration": 5, "velocity": 76}, {"time": 2175, "pitch": 45, "duration": 7, "velocity": 64}, {"time": 2178, "pitch": 57, "duration": 2, "velocity": 80}, {"time": 2181, "pitch": 57, "duration": 4, "velocity": 82}, {"time": 2181, "pitch": 62, "duration": 4, "velocity": 86}, {"time": 2181, "pitch": 66, "duration": 5, "velocity": 82}, {"time": 2184, "pitch": 45, "duration": 2, "velocity": 83}, {"time": 2187, "pitch": 57, "duration": 4, "velocity": 83}, {"time": 2190, "pitch": 62, "duration": 2, "velocity": 81}, {"time": 2193, "pitch": 40, "duration": 17, "velocity": 83}, {"time": 2193, "pitch": 59, "duration": 7, "velocity": 81}, {"time": 2193, "pitch": 64, "duration": 7, "velocity": 83}, {"time": 2199, "pitch": 47, "duration": 5, "velocity": 65}, {"time": 2202, "pitch": 59, "duration": 4, "velocity": 87}, {"time": 2202, "pitch": 64, "duration": 5, "velocity": 88}, {"time": 2205, "pitch": 47, "duration": 5, "velocity": 77}, {"time": 2208, "pitch": 59, "duration": 3, "velocity": 92}, {"time": 2208, "pitch": 64, "duration": 3, "velocity": 97}, {"time": 2214, "pitch": 59, "duration": 3, "velocity": 81}, {"time": 2217, "pitch": 40, "duration": 11, "velocity": 90}, {"time": 2217, "pitch": 59, "duration": 5, "velocity": 79}, {"time": 2217, "pitch": 64, "duration": 6, "velocity": 83}, {"time": 2217, "pitch": 68, "duration": 7, "velocity": 85}, {"time": 2223, "pitch": 47, "duration": 4, "velocity": 82}, {"time": 2226, "pitch": 59, "duration": 4, "velocity": 84}, {"time": 2226, "pitch": 64, "duration": 4, "velocity": 88}, {"time": 2229, "pitch": 40, "duration": 7, "velocity": 59}, {"time": 2229, "pitch": 47, "duration": 7, "velocity": 83}, {"time": 2232, "pitch": 59, "duration": 2, "velocity": 90}, {"time": 2235, "pitch": 59, "duration": 3, "velocity": 85}, {"time": 2235, "pitch": 64, "duration": 3, "velocity": 88}, {"time": 2241, "pitch": 47, "duration": 17, "velocity": 85}, {"time": 2241, "pitch": 59, "duration": 6, "velocity": 82}, {"time": 2241, "pitch": 62, "duration": 6, "velocity": 83}, {"time": 2247, "pitch": 54, "duration": 4, "velocity": 55}, {"time": 2250, "pitch": 59, "duration": 4, "velocity": 85}, {"time": 2250, "pitch": 62, "duration": 5, "velocity": 84}, {"time": 2250, "pitch": 66, "duration": 8, "velocity": 83}, {"time": 2253, "pitch": 54, "duration": 4, "velocity": 73}, {"time": 2256, "pitch": 59, "duration": 3, "velocity": 85}, {"time": 2259, "pitch": 62, "duration": 2, "velocity": 76}, {"time": 2265, "pitch": 42, "duration": 13, "velocity": 87}, {"time": 2265, "pitch": 57, "duration": 4, "velocity": 76}, {"time": 2265, "pitch": 61, "duration": 6, "velocity": 71}, {"time": 2268, "pitch": 49, "duration": 7, "velocity": 66}, {"time": 2271, "pitch": 57, "duration": 1, "velocity": 69}, {"time": 2274, "pitch": 57, "duration": 4, "velocity": 84}, {"time": 2274, "pitch": 66, "duration": 5, "velocity": 82}, {"time": 2277, "pitch": 49, "duration": 4, "velocity": 82}, {"time": 2280, "pitch": 57, "duration": 2, "velocity": 83}, {"time": 2280, "pitch": 61, "duration": 4, "velocity": 92}, {"time": 2283, "pitch": 57, "duration": 4, "velocity": 82}, {"time": 2286, "pitch": 61, "duration": 2, "velocity": 78}, {"time": 2289, "pitch": 47, "duration": 18, "velocity": 84}, {"time": 2289, "pitch": 59, "duration": 5, "velocity": 76}, {"time": 2289, "pitch": 62, "duration": 5, "velocity": 81}, {"time": 2295, "pitch": 54, "duration": 2, "velocity": 81}, {"time": 2301, "pitch": 59, "duration": 3, "velocity": 87}, {"time": 2301, "pitch": 62, "duration": 4, "velocity": 90}, {"time": 2301, "pitch": 66, "duration": 4, "velocity": 87}, {"time": 2304, "pitch": 54, "duration": 3, "velocity": 73}, {"time": 2307, "pitch": 59, "duration": 2, "velocity": 82}, {"time": 2310, "pitch": 59, "duration": 1, "velocity": 53}, {"time": 2310, "pitch": 62, "duration": 1, "velocity": 68}, {"time": 2313, "pitch": 42, "duration": 11, "velocity": 84}, {"time": 2313, "pitch": 57, "duration": 4, "velocity": 76}, {"time": 2313, "pitch": 61, "duration": 4, "velocity": 81}, {"time": 2316, "pitch": 49, "duration": 7, "velocity": 70}, {"time": 2319, "pitch": 57, "duration": 1, "velocity": 70}, {"time": 2322, "pitch": 57, "duration": 4, "velocity": 83}, {"time": 2322, "pitch": 61, "duration": 4, "velocity": 97}, {"time": 2322, "pitch": 66, "duration": 4, "velocity": 84}, {"time": 2325, "pitch": 49, "duration": 4, "velocity": 82}, {"time": 2328, "pitch": 57, "duration": 2, "velocity": 82}, {"time": 2328, "pitch": 61, "duration": 4, "velocity": 92}, {"time": 2331, "pitch": 57, "duration": 2, "velocity": 80}, {"time": 2337, "pitch": 43, "duration": 18, "velocity": 82}, {"time": 2337, "pitch": 55, "duration": 4, "velocity": 79}, {"time": 2337, "pitch": 59, "duration": 5, "velocity": 77}, {"time": 2340, "pitch": 50, "duration": 7, "velocity": 71}, {"time": 2343, "pitch": 55, "duration": 2, "velocity": 81}, {"time": 2346, "pitch": 62, "duration": 7, "velocity": 83}, {"time": 2349, "pitch": 50, "duration": 5, "velocity": 81}, {"time": 2352, "pitch": 55, "duration": 5, "velocity": 82}, {"time": 2355, "pitch": 59, "duration": 2, "velocity": 81}, {"time": 2361, "pitch": 36, "duration": 2, "velocity": 81}, {"time": 2361, "pitch": 55, "duration": 5, "velocity": 82}, {"time": 2361, "pitch": 60, "duration": 7, "velocity": 81}, {"time": 2367, "pitch": 48, "duration": 12, "velocity": 81}, {"time": 2370, "pitch": 55, "duration": 7, "velocity": 83}, {"time": 2373, "pitch": 60, "duration": 5, "velocity": 95}, {"time": 2376, "pitch": 64, "duration": 4, "velocity": 97}, {"time": 2379, "pitch": 67, "duration": 4, "velocity": 92}, {"time": 2382, "pitch": 60, "duration": 4, "velocity": 84}, {"time": 2385, "pitch": 45, "duration": 18, "velocity": 92}, {"time": 2388, "pitch": 52, "duration": 8, "velocity": 76}, {"time": 2391, "pitch": 57, "duration": 2, "velocity": 83}, {"time": 2394, "pitch": 57, "duration": 4, "velocity": 85}, {"time": 2394, "pitch": 61, "duration": 4, "velocity": 87}, {"time": 2394, "pitch": 64, "duration": 4, "velocity": 92}, {"time": 2397, "pitch": 52, "duration": 4, "velocity": 83}, {"time": 2400, "pitch": 57, "duration": 3, "velocity": 84}, {"time": 2400, "pitch": 64, "duration": 3, "velocity": 83}, {"time": 2400, "pitch": 69, "duration": 5, "velocity": 79}, {"time": 2406, "pitch": 57, "duration": 3, "velocity": 74}, {"time": 2409, "pitch": 45, "duration": 2, "velocity": 82}, {"time": 2409, "pitch": 61, "duration": 2, "velocity": 64}, {"time": 2409, "pitch": 64, "duration": 2, "velocity": 77}, {"time": 2412, "pitch": 45, "duration": 2, "velocity": 77}, {"time": 2412, "pitch": 57, "duration": 2, "velocity": 67}, {"time": 2412, "pitch": 61, "duration": 2, "velocity": 64}, {"time": 2412, "pitch": 64, "duration": 2, "velocity": 77}, {"time": 2415, "pitch": 45, "duration": 2, "velocity": 81}, {"time": 2415, "pitch": 57, "duration": 2, "velocity": 78}, {"time": 2415, "pitch": 61, "duration": 2, "velocity": 76}, {"time": 2415, "pitch": 64, "duration": 2, "velocity": 82}, {"time": 2418, "pitch": 45, "duration": 2, "velocity": 85}, {"time": 2418, "pitch": 57, "duration": 2, "velocity": 83}, {"time": 2418, "pitch": 61, "duration": 2, "velocity": 82}, {"time": 2418, "pitch": 64, "duration": 2, "velocity": 85}, {"time": 2421, "pitch": 45, "duration": 2, "velocity": 84}, {"time": 2421, "pitch": 57, "duration": 2, "velocity": 83}, {"time": 2421, "pitch": 61, "duration": 2, "velocity": 86}, {"time": 2421, "pitch": 64, "duration": 2, "velocity": 87}, {"time": 2424, "pitch": 45, "duration": 2, "velocity": 92}, {"time": 2424, "pitch": 57, "duration": 2, "velocity": 82}, {"time": 2424, "pitch": 61, "duration": 2, "velocity": 82}, {"time": 2424, "pitch": 64, "duration": 2, "velocity": 87}, {"time": 2427, "pitch": 45, "duration": 3, "velocity": 88}, {"time": 2427, "pitch": 57, "duration": 2, "velocity": 83}, {"time": 2427, "pitch": 61, "duration": 2, "velocity": 81}, {"time": 2427, "pitch": 61, "duration": 2, "velocity": 83}, {"time": 2427, "pitch": 64, "duration": 3, "velocity": 83}, {"time": 2427, "pitch": 64, "duration": 3, "velocity": 87}, {"time": 2430, "pitch": 45, "duration": 3, "velocity": 83}, {"time": 2430, "pitch": 57, "duration": 3, "velocity": 77}, {"time": 2433, "pitch": 50, "duration": 13, "velocity": 92}, {"time": 2433, "pitch": 57, "duration": 4, "velocity": 77}, {"time": 2433, "pitch": 62, "duration": 8, "velocity": 78}, {"time": 2433, "pitch": 66, "duration": 8, "velocity": 75}, {"time": 2439, "pitch": 57, "duration": 3, "velocity": 72}, {"time": 2445, "pitch": 57, "duration": 4, "velocity": 83}, {"time": 2445, "pitch": 62, "duration": 4, "velocity": 84}, {"time": 2445, "pitch": 66, "duration": 6, "velocity": 84}, {"time": 2448, "pitch": 50, "duration": 2, "velocity": 83}, {"time": 2451, "pitch": 57, "duration": 4, "velocity": 81}, {"time": 2454, "pitch": 62, "duration": 2, "velocity": 75}, {"time": 2457, "pitch": 45, "duration": 16, "velocity": 82}, {"time": 2457, "pitch": 57, "duration": 6, "velocity": 74}, {"time": 2457, "pitch": 61, "duration": 7, "velocity": 74}, {"time": 2463, "pitch": 52, "duration": 7, "velocity": 78}, {"time": 2466, "pitch": 57, "duration": 2, "velocity": 76}, {"time": 2469, "pitch": 57, "duration": 4, "velocity": 81}, {"time": 2469, "pitch": 61, "duration": 5, "velocity": 83}, {"time": 2469, "pitch": 64, "duration": 5, "velocity": 85}, {"time": 2472, "pitch": 52, "duration": 2, "velocity": 81}, {"time": 2475, "pitch": 45, "duration": 2, "velocity": 82}, {"time": 2481, "pitch": 40, "duration": 17, "velocity": 86}, {"time": 2481, "pitch": 59, "duration": 9, "velocity": 74}, {"time": 2481, "pitch": 64, "duration": 9, "velocity": 81}, {"time": 2487, "pitch": 47, "duration": 7, "velocity": 66}, {"time": 2493, "pitch": 59, "duration": 4, "velocity": 85}, {"time": 2493, "pitch": 64, "duration": 5, "velocity": 90}, {"time": 2496, "pitch": 47, "duration": 2, "velocity": 83}, {"time": 2499, "pitch": 59, "duration": 5, "velocity": 83}, {"time": 2502, "pitch": 64, "duration": 2, "velocity": 73}, {"time": 2505, "pitch": 47, "duration": 17, "velocity": 85}, {"time": 2505, "pitch": 59, "duration": 6, "velocity": 81}, {"time": 2505, "pitch": 62, "duration": 7, "velocity": 78}, {"time": 2511, "pitch": 54, "duration": 7, "velocity": 72}, {"time": 2514, "pitch": 59, "duration": 2, "velocity": 84}, {"time": 2517, "pitch": 59, "duration": 4, "velocity": 92}, {"time": 2517, "pitch": 62, "duration": 4, "velocity": 86}, {"time": 2517, "pitch": 66, "duration": 6, "velocity": 75}, {"time": 2520, "pitch": 54, "duration": 3, "velocity": 86}, {"time": 2523, "pitch": 59, "duration": 3, "velocity": 86}, {"time": 2529, "pitch": 38, "duration": 16, "velocity": 88}, {"time": 2529, "pitch": 57, "duration": 9, "velocity": 81}, {"time": 2529, "pitch": 62, "duration": 9, "velocity": 76}, {"time": 2535, "pitch": 45, "duration": 9, "velocity": 63}, {"time": 2541, "pitch": 57, "duration": 3, "velocity": 84}, {"time": 2541, "pitch": 62, "duration": 6, "velocity": 87}, {"time": 2547, "pitch": 57, "duration": 2, "velocity": 83}, {"time": 2553, "pitch": 45, "duration": 16, "velocity": 83}, {"time": 2553, "pitch": 57, "duration": 4, "velocity": 81}, {"time": 2553, "pitch": 61, "duration": 5, "velocity": 83}, {"time": 2556, "pitch": 52, "duration": 10, "velocity": 68}, {"time": 2559, "pitch": 57, "duration": 3, "velocity": 78}, {"time": 2565, "pitch": 57, "duration": 3, "velocity": 81}, {"time": 2565, "pitch": 61, "duration": 5, "velocity": 86}, {"time": 2565, "pitch": 64, "duration": 5, "velocity": 85}, {"time": 2568, "pitch": 52, "duration": 2, "velocity": 82}, {"time": 2571, "pitch": 45, "duration": 2, "velocity": 82}, {"time": 2577, "pitch": 40, "duration": 17, "velocity": 88}, {"time": 2577, "pitch": 59, "duration": 4, "velocity": 78}, {"time": 2577, "pitch": 64, "duration": 6, "velocity": 81}, {"time": 2583, "pitch": 47, "duration": 8, "velocity": 62}, {"time": 2586, "pitch": 52, "duration": 2, "velocity": 82}, {"time": 2589, "pitch": 52, "duration": 2, "velocity": 86}, {"time": 2589, "pitch": 56, "duration": 2, "velocity": 86}, {"time": 2589, "pitch": 59, "duration": 3, "velocity": 85}, {"time": 2592, "pitch": 52, "duration": 2, "velocity": 82}, {"time": 2595, "pitch": 40, "duration": 23, "velocity": 90}, {"time": 2595, "pitch": 52, "duration": 7, "velocity": 82}, {"time": 2595, "pitch": 56, "duration": 8, "velocity": 85}, {"time": 2595, "pitch": 59, "duration": 8, "velocity": 81}, {"time": 2595, "pitch": 64, "duration": 7, "velocity": 82}, {"time": 2601, "pitch": 47, "duration": 4, "velocity": 75}, {"time": 2604, "pitch": 52, "duration": 4, "velocity": 85}, {"time": 2604, "pitch": 59, "duration": 4, "velocity": 85}, {"time": 2607, "pitch": 47, "duration": 7, "velocity": 77}, {"time": 2610, "pitch": 52, "duration": 2, "velocity": 78}, {"time": 2613, "pitch": 52, "duration": 4, "velocity": 83}, {"time": 2613, "pitch": 56, "duration": 5, "velocity": 87}, {"time": 2613, "pitch": 59, "duration": 5, "velocity": 86}, {"time": 2613, "pitch": 64, "duration": 5, "velocity": 88}, {"time": 2616, "pitch": 47, "duration": 3, "velocity": 81}, {"time": 2619, "pitch": 52, "duration": 2, "velocity": 90}, {"time": 2619, "pitch": 59, "duration": 1, "velocity": 61}, {"time": 2619, "pitch": 64, "duration": 2, "velocity": 69}, {"time": 2625, "pitch": 47, "duration": 16, "velocity": 83}, {"time": 2625, "pitch": 59, "duration": 8, "velocity": 82}, {"time": 2625, "pitch": 62, "duration": 8, "velocity": 77}, {"time": 2631, "pitch": 54, "duration": 7, "velocity": 76}, {"time": 2637, "pitch": 59, "duration": 3, "velocity": 83}, {"time": 2637, "pitch": 62, "duration": 4, "velocity": 84}, {"time": 2637, "pitch": 66, "duration": 4, "velocity": 84}, {"time": 2640, "pitch": 54, "duration": 2, "velocity": 83}, {"time": 2643, "pitch": 59, "duration": 5, "velocity": 83}, {"time": 2646, "pitch": 62, "duration": 2, "velocity": 71}, {"time": 2649, "pitch": 45, "duration": 17, "velocity": 82}, {"time": 2649, "pitch": 57, "duration": 6, "velocity": 78}, {"time": 2649, "pitch": 61, "duration": 7, "velocity": 75}, {"time": 2655, "pitch": 52, "duration": 7, "velocity": 70}, {"time": 2658, "pitch": 57, "duration": 2, "velocity": 75}, {"time": 2661, "pitch": 57, "duration": 4, "velocity": 84}, {"time": 2661, "pitch": 61, "duration": 4, "velocity": 90}, {"time": 2661, "pitch": 64, "duration": 4, "velocity": 88}, {"time": 2664, "pitch": 52, "duration": 2, "velocity": 83}, {"time": 2667, "pitch": 57, "duration": 2, "velocity": 85}, {"time": 2673, "pitch": 40, "duration": 17, "velocity": 85}, {"time": 2673, "pitch": 59, "duration": 6, "velocity": 79}, {"time": 2673, "pitch": 64, "duration": 4, "velocity": 82}, {"time": 2679, "pitch": 47, "duration": 7, "velocity": 65}, {"time": 2682, "pitch": 59, "duration": 2, "velocity": 76}, {"time": 2685, "pitch": 59, "duration": 4, "velocity": 87}, {"time": 2685, "pitch": 64, "duration": 5, "velocity": 95}, {"time": 2688, "pitch": 47, "duration": 2, "velocity": 82}, {"time": 2691, "pitch": 59, "duration": 2, "velocity": 86}, {"time": 2694, "pitch": 64, "duration": 2, "velocity": 82}, {"time": 2697, "pitch": 47, "duration": 16, "velocity": 83}, {"time": 2697, "pitch": 59, "duration": 3, "velocity": 73}, {"time": 2697, "pitch": 60, "duration": 3, "velocity": 72}, {"time": 2697, "pitch": 62, "duration": 8, "velocity": 77}, {"time": 2703, "pitch": 54, "duration": 4, "velocity": 81}, {"time": 2706, "pitch": 59, "duration": 4, "velocity": 82}, {"time": 2706, "pitch": 62, "duration": 5, "velocity": 82}, {"time": 2706, "pitch": 66, "duration": 6, "velocity": 82}, {"time": 2709, "pitch": 54, "duration": 4, "velocity": 74}, {"time": 2712, "pitch": 59, "duration": 3, "velocity": 83}, {"time": 2715, "pitch": 62, "duration": 3, "velocity": 78}, {"time": 2721, "pitch": 38, "duration": 16, "velocity": 87}, {"time": 2721, "pitch": 57, "duration": 6, "velocity": 79}, {"time": 2721, "pitch": 62, "duration": 8, "velocity": 82}, {"time": 2727, "pitch": 45, "duration": 7, "velocity": 64}, {"time": 2730, "pitch": 57, "duration": 1, "velocity": 75}, {"time": 2733, "pitch": 57, "duration": 4, "velocity": 82}, {"time": 2733, "pitch": 62, "duration": 4, "velocity": 85}, {"time": 2733, "pitch": 66, "duration": 6, "velocity": 84}, {"time": 2736, "pitch": 45, "duration": 2, "velocity": 85}, {"time": 2739, "pitch": 57, "duration": 5, "velocity": 82}, {"time": 2742, "pitch": 62, "duration": 2, "velocity": 70}, {"time": 2745, "pitch": 45, "duration": 15, "velocity": 83}, {"time": 2745, "pitch": 57, "duration": 6, "velocity": 77}, {"time": 2745, "pitch": 61, "duration": 7, "velocity": 81}, {"time": 2751, "pitch": 52, "duration": 4, "velocity": 70}, {"time": 2754, "pitch": 57, "duration": 4, "velocity": 85}, {"time": 2754, "pitch": 61, "duration": 5, "velocity": 84}, {"time": 2754, "pitch": 64, "duration": 5, "velocity": 85}, {"time": 2757, "pitch": 52, "duration": 4, "velocity": 81}, {"time": 2760, "pitch": 57, "duration": 5, "velocity": 85}, {"time": 2763, "pitch": 61, "duration": 4, "velocity": 92}, {"time": 2769, "pitch": 40, "duration": 16, "velocity": 86}, {"time": 2769, "pitch": 59, "duration": 9, "velocity": 81}, {"time": 2769, "pitch": 64, "duration": 10, "velocity": 82}, {"time": 2778, "pitch": 47, "duration": 6, "velocity": 69}, {"time": 2781, "pitch": 59, "duration": 4, "velocity": 86}, {"time": 2784, "pitch": 64, "duration": 2, "velocity": 81}, {"time": 2787, "pitch": 40, "duration": 23, "velocity": 85}, {"time": 2787, "pitch": 59, "duration": 17, "velocity": 75}, {"time": 2787, "pitch": 64, "duration": 16, "velocity": 83}, {"time": 2787, "pitch": 68, "duration": 16, "velocity": 71}, {"time": 2805, "pitch": 59, "duration": 2, "velocity": 68}, {"time": 2805, "pitch": 64, "duration": 5, "velocity": 81}, {"time": 2805, "pitch": 68, "duration": 5, "velocity": 70}, {"time": 2817, "pitch": 43, "duration": 16, "velocity": 79}, {"time": 2817, "pitch": 55, "duration": 8, "velocity": 69}, {"time": 2817, "pitch": 59, "duration": 8, "velocity": 69}, {"time": 2823, "pitch": 50, "duration": 9, "velocity": 62}, {"time": 2829, "pitch": 55, "duration": 4, "velocity": 82}, {"time": 2829, "pitch": 62, "duration": 6, "velocity": 77}, {"time": 2841, "pitch": 45, "duration": 16, "velocity": 81}, {"time": 2841, "pitch": 61, "duration": 13, "velocity": 72}, {"time": 2847, "pitch": 52, "duration": 9, "velocity": 70}, {"time": 2853, "pitch": 57, "duration": 8, "velocity": 83}, {"time": 2859, "pitch": 61, "duration": 7, "velocity": 77}, {"time": 2865, "pitch": 40, "duration": 3, "velocity": 84}, {"time": 2865, "pitch": 59, "duration": 6, "velocity": 76}, {"time": 2865, "pitch": 64, "duration": 7, "velocity": 78}, {"time": 2871, "pitch": 52, "duration": 8, "velocity": 81}, {"time": 2877, "pitch": 64, "duration": 3, "velocity": 79}, {"time": 2877, "pitch": 68, "duration": 3, "velocity": 73}, {"time": 2883, "pitch": 64, "duration": 3, "velocity": 70}, {"time": 2883, "pitch": 68, "duration": 4, "velocity": 67}, {"time": 2889, "pitch": 52, "duration": 2, "velocity": 69}, {"time": 2889, "pitch": 59, "duration": 2, "velocity": 68}, {"time": 2889, "pitch": 64, "duration": 2, "velocity": 67}, {"time": 2889, "pitch": 68, "duration": 2, "velocity": 64}, {"time": 2892, "pitch": 52, "duration": 2, "velocity": 75}, {"time": 2892, "pitch": 59, "duration": 2, "velocity": 76}, {"time": 2892, "pitch": 64, "duration": 2, "velocity": 68}, {"time": 2892, "pitch": 68, "duration": 2, "velocity": 68}, {"time": 2895, "pitch": 52, "duration": 2, "velocity": 86}, {"time": 2895, "pitch": 59, "duration": 2, "velocity": 83}, {"time": 2895, "pitch": 64, "duration": 2, "velocity": 76}, {"time": 2895, "pitch": 68, "duration": 2, "velocity": 72}, {"time": 2898, "pitch": 52, "duration": 2, "velocity": 87}, {"time": 2898, "pitch": 59, "duration": 2, "velocity": 83}, {"time": 2898, "pitch": 64, "duration": 2, "velocity": 85}, {"time": 2898, "pitch": 68, "duration": 3, "velocity": 79}, {"time": 2901, "pitch": 52, "duration": 2, "velocity": 95}, {"time": 2901, "pitch": 59, "duration": 2, "velocity": 88}, {"time": 2901, "pitch": 64, "duration": 2, "velocity": 85}, {"time": 2901, "pitch": 68, "duration": 2, "velocity": 82}, {"time": 2904, "pitch": 52, "duration": 2, "velocity": 86}, {"time": 2904, "pitch": 59, "duration": 2, "velocity": 84}, {"time": 2904, "pitch": 64, "duration": 2, "velocity": 84}, {"time": 2904, "pitch": 68, "duration": 2, "velocity": 81}, {"time": 2907, "pitch": 52, "duration": 2, "velocity": 92}, {"time": 2907, "pitch": 59, "duration": 2, "velocity": 83}, {"time": 2907, "pitch": 64, "duration": 2, "velocity": 83}, {"time": 2907, "pitch": 68, "duration": 2, "velocity": 82}, {"time": 2910, "pitch": 52, "duration": 3, "velocity": 81}, {"time": 2910, "pitch": 59, "duration": 2, "velocity": 83}, {"time": 2910, "pitch": 64, "duration": 3, "velocity": 83}, {"time": 2910, "pitch": 68, "duration": 3, "velocity": 80}, {"time": 2913, "pitch": 47, "duration": 19, "velocity": 83}, {"time": 2913, "pitch": 59, "duration": 9, "velocity": 72}, {"time": 2913, "pitch": 62, "duration": 9, "velocity": 76}, {"time": 2913, "pitch": 66, "duration": 8, "velocity": 70}, {"time": 2919, "pitch": 54, "duration": 8, "velocity": 66}, {"time": 2925, "pitch": 59, "duration": 4, "velocity": 83}, {"time": 2925, "pitch": 62, "duration": 6, "velocity": 88}, {"time": 2925, "pitch": 66, "duration": 7, "velocity": 87}, {"time": 2928, "pitch": 54, "duration": 3, "velocity": 67}, {"time": 2931, "pitch": 59, "duration": 2, "velocity": 83}, {"time": 2937, "pitch": 42, "duration": 15, "velocity": 83}, {"time": 2937, "pitch": 57, "duration": 7, "velocity": 79}, {"time": 2937, "pitch": 61, "duration": 7, "velocity": 74}, {"time": 2943, "pitch": 49, "duration": 7, "velocity": 66}, {"time": 2946, "pitch": 57, "duration": 2, "velocity": 76}, {"time": 2949, "pitch": 57, "duration": 4, "velocity": 83}, {"time": 2949, "pitch": 61, "duration": 5, "velocity": 84}, {"time": 2949, "pitch": 66, "duration": 9, "velocity": 82}, {"time": 2952, "pitch": 49, "duration": 2, "velocity": 82}, {"time": 2955, "pitch": 57, "duration": 5, "velocity": 82}, {"time": 2958, "pitch": 61, "duration": 2, "velocity": 77}, {"time": 2961, "pitch": 38, "duration": 16, "velocity": 84}, {"time": 2961, "pitch": 57, "duration": 7, "velocity": 81}, {"time": 2961, "pitch": 62, "duration": 7, "velocity": 75}, {"time": 2967, "pitch": 45, "duration": 8, "velocity": 65}, {"time": 2973, "pitch": 57, "duration": 7, "velocity": 85}, {"time": 2973, "pitch": 62, "duration": 7, "velocity": 86}, {"time": 2979, "pitch": 38, "duration": 1, "velocity": 45}, {"time": 2979, "pitch": 45, "duration": 3, "velocity": 82}, {"time": 2982, "pitch": 57, "duration": 2, "velocity": 82}, {"time": 2985, "pitch": 45, "duration": 17, "velocity": 83}, {"time": 2985, "pitch": 57, "duration": 3, "velocity": 76}, {"time": 2985, "pitch": 61, "duration": 5, "velocity": 66}, {"time": 2988, "pitch": 52, "duration": 7, "velocity": 74}, {"time": 2991, "pitch": 57, "duration": 2, "velocity": 82}, {"time": 2994, "pitch": 57, "duration": 5, "velocity": 85}, {"time": 2994, "pitch": 64, "duration": 4, "velocity": 82}, {"time": 2997, "pitch": 52, "duration": 5, "velocity": 85}, {"time": 3000, "pitch": 57, "duration": 2, "velocity": 81}, {"time": 3000, "pitch": 61, "duration": 4, "velocity": 83}, {"time": 3000, "pitch": 64, "duration": 5, "velocity": 85}, {"time": 3003, "pitch": 57, "duration": 3, "velocity": 80}, {"time": 3009, "pitch": 43, "duration": 22, "velocity": 81}, {"time": 3009, "pitch": 55, "duration": 8, "velocity": 79}, {"time": 3009, "pitch": 59, "duration": 7, "velocity": 77}, {"time": 3015, "pitch": 50, "duration": 7, "velocity": 69}, {"time": 3021, "pitch": 55, "duration": 4, "velocity": 83}, {"time": 3021, "pitch": 59, "duration": 6, "velocity": 82}, {"time": 3021, "pitch": 62, "duration": 5, "velocity": 82}, {"time": 3024, "pitch": 50, "duration": 7, "velocity": 81}, {"time": 3027, "pitch": 55, "duration": 4, "velocity": 82}, {"time": 3030, "pitch": 59, "duration": 3, "velocity": 74}, {"time": 3033, "pitch": 45, "duration": 13, "velocity": 83}, {"time": 3033, "pitch": 57, "duration": 7, "velocity": 77}, {"time": 3033, "pitch": 61, "duration": 8, "velocity": 81}, {"time": 3033, "pitch": 64, "duration": 9, "velocity": 82}, {"time": 3039, "pitch": 52, "duration": 6, "velocity": 78}, {"time": 3042, "pitch": 57, "duration": 2, "velocity": 87}, {"time": 3045, "pitch": 57, "duration": 4, "velocity": 81}, {"time": 3045, "pitch": 61, "duration": 5, "velocity": 75}, {"time": 3051, "pitch": 40, "duration": 28, "velocity": 84}, {"time": 3051, "pitch": 59, "duration": 7, "velocity": 82}, {"time": 3051, "pitch": 64, "duration": 8, "velocity": 83}, {"time": 3063, "pitch": 47, "duration": 8, "velocity": 68}, {"time": 3066, "pitch": 52, "duration": 2, "velocity": 76}, {"time": 3069, "pitch": 52, "duration": 4, "velocity": 82}, {"time": 3069, "pitch": 59, "duration": 7, "velocity": 82}, {"time": 3072, "pitch": 47, "duration": 7, "velocity": 75}, {"time": 3075, "pitch": 52, "duration": 5, "velocity": 77}, {"time": 3081, "pitch": 40, "duration": 14, "velocity": 81}, {"time": 3081, "pitch": 56, "duration": 7, "velocity": 61}, {"time": 3081, "pitch": 59, "duration": 7, "velocity": 72}, {"time": 3081, "pitch": 64, "duration": 6, "velocity": 77}, {"time": 3087, "pitch": 47, "duration": 7, "velocity": 58}, {"time": 3093, "pitch": 52, "duration": 3, "velocity": 82}, {"time": 3093, "pitch": 56, "duration": 3, "velocity": 77}, {"time": 3093, "pitch": 59, "duration": 4, "velocity": 81}, {"time": 3105, "pitch": 47, "duration": 19, "velocity": 83}, {"time": 3105, "pitch": 59, "duration": 9, "velocity": 72}, {"time": 3105, "pitch": 62, "duration": 9, "velocity": 76}, {"time": 3105, "pitch": 66, "duration": 8, "velocity": 70}, {"time": 3111, "pitch": 54, "duration": 8, "velocity": 66}, {"time": 3117, "pitch": 59, "duration": 4, "velocity": 83}, {"time": 3117, "pitch": 62, "duration": 6, "velocity": 88}, {"time": 3117, "pitch": 66, "duration": 7, "velocity": 87}, {"time": 3120, "pitch": 54, "duration": 3, "velocity": 67}, {"time": 3123, "pitch": 59, "duration": 2, "velocity": 83}, {"time": 3129, "pitch": 42, "duration": 15, "velocity": 83}, {"time": 3129, "pitch": 57, "duration": 7, "velocity": 79}, {"time": 3129, "pitch": 61, "duration": 7, "velocity": 74}, {"time": 3135, "pitch": 49, "duration": 7, "velocity": 66}, {"time": 3138, "pitch": 57, "duration": 2, "velocity": 76}, {"time": 3141, "pitch": 57, "duration": 4, "velocity": 83}, {"time": 3141, "pitch": 61, "duration": 5, "velocity": 84}, {"time": 3141, "pitch": 66, "duration": 9, "velocity": 82}, {"time": 3144, "pitch": 49, "duration": 2, "velocity": 82}, {"time": 3147, "pitch": 57, "duration": 5, "velocity": 82}, {"time": 3150, "pitch": 61, "duration": 2, "velocity": 77}, {"time": 3153, "pitch": 38, "duration": 16, "velocity": 84}, {"time": 3153, "pitch": 57, "duration": 7, "velocity": 81}, {"time": 3153, "pitch": 62, "duration": 7, "velocity": 75}, {"time": 3159, "pitch": 45, "duration": 8, "velocity": 65}, {"time": 3165, "pitch": 57, "duration": 7, "velocity": 85}, {"time": 3165, "pitch": 62, "duration": 7, "velocity": 86}, {"time": 3171, "pitch": 38, "duration": 1, "velocity": 45}, {"time": 3171, "pitch": 45, "duration": 3, "velocity": 82}, {"time": 3174, "pitch": 57, "duration": 2, "velocity": 82}, {"time": 3177, "pitch": 45, "duration": 17, "velocity": 83}, {"time": 3177, "pitch": 57, "duration": 3, "velocity": 76}, {"time": 3177, "pitch": 61, "duration": 5, "velocity": 66}, {"time": 3180, "pitch": 52, "duration": 7, "velocity": 74}, {"time": 3183, "pitch": 57, "duration": 2, "velocity": 82}, {"time": 3186, "pitch": 57, "duration": 5, "velocity": 85}, {"time": 3186, "pitch": 64, "duration": 4, "velocity": 82}, {"time": 3189, "pitch": 52, "duration": 5, "velocity": 85}, {"time": 3192, "pitch": 57, "duration": 2, "velocity": 81}, {"time": 3192, "pitch": 61, "duration": 4, "velocity": 83}, {"time": 3192, "pitch": 64, "duration": 5, "velocity": 85}, {"time": 3195, "pitch": 57, "duration": 3, "velocity": 80}, {"time": 3201, "pitch": 43, "duration": 22, "velocity": 81}, {"time": 3201, "pitch": 55, "duration": 8, "velocity": 79}, {"time": 3201, "pitch": 59, "duration": 7, "velocity": 77}, {"time": 3207, "pitch": 50, "duration": 7, "velocity": 69}, {"time": 3213, "pitch": 55, "duration": 4, "velocity": 83}, {"time": 3213, "pitch": 59, "duration": 6, "velocity": 82}, {"time": 3213, "pitch": 62, "duration": 5, "velocity": 82}, {"time": 3216, "pitch": 50, "duration": 7, "velocity": 81}, {"time": 3219, "pitch": 55, "duration": 4, "velocity": 82}, {"time": 3222, "pitch": 59, "duration": 3, "velocity": 74}, {"time": 3225, "pitch": 45, "duration": 13, "velocity": 83}, {"time": 3225, "pitch": 57, "duration": 7, "velocity": 77}, {"time": 3225, "pitch": 61, "duration": 8, "velocity": 81}, {"time": 3225, "pitch": 64, "duration": 9, "velocity": 82}, {"time": 3231, "pitch": 52, "duration": 6, "velocity": 78}, {"time": 3234, "pitch": 57, "duration": 2, "velocity": 87}, {"time": 3237, "pitch": 57, "duration": 4, "velocity": 81}, {"time": 3237, "pitch": 61, "duration": 5, "velocity": 75}, {"time": 3243, "pitch": 40, "duration": 28, "velocity": 84}, {"time": 3243, "pitch": 59, "duration": 7, "velocity": 82}, {"time": 3243, "pitch": 64, "duration": 8, "velocity": 83}, {"time": 3255, "pitch": 47, "duration": 8, "velocity": 68}, {"time": 3258, "pitch": 52, "duration": 2, "velocity": 76}, {"time": 3261, "pitch": 52, "duration": 4, "velocity": 82}, {"time": 3261, "pitch": 59, "duration": 7, "velocity": 82}, {"time": 3264, "pitch": 47, "duration": 7, "velocity": 75}, {"time": 3267, "pitch": 52, "duration": 5, "velocity": 77}, {"time": 3273, "pitch": 40, "duration": 14, "velocity": 81}, {"time": 3273, "pitch": 56, "duration": 7, "velocity": 61}, {"time": 3273, "pitch": 59, "duration": 7, "velocity": 72}, {"time": 3273, "pitch": 64, "duration": 6, "velocity": 77}, {"time": 3279, "pitch": 47, "duration": 7, "velocity": 58}, {"time": 3285, "pitch": 52, "duration": 3, "velocity": 82}, {"time": 3285, "pitch": 56, "duration": 3, "velocity": 77}, {"time": 3285, "pitch": 59, "duration": 4, "velocity": 81}, {"time": 3297, "pitch": 40, "duration": 15, "velocity": 82}, {"time": 3297, "pitch": 59, "duration": 7, "velocity": 72}, {"time": 3297, "pitch": 64, "duration": 9, "velocity": 71}, {"time": 3303, "pitch": 47, "duration": 8, "velocity": 65}, {"time": 3306, "pitch": 59, "duration": 5, "velocity": 76}, {"time": 3309, "pitch": 64, "duration": 2, "velocity": 81}, {"time": 3315, "pitch": 40, "duration": 3, "velocity": 82}, {"time": 3315, "pitch": 59, "duration": 6, "velocity": 71}, {"time": 3315, "pitch": 64, "duration": 6, "velocity": 75}, {"time": 3315, "pitch": 68, "duration": 7, "velocity": 71}, {"time": 3327, "pitch": 52, "duration": 16, "velocity": 52}, {"time": 3330, "pitch": 59, "duration": 13, "velocity": 69}, {"time": 3333, "pitch": 64, "duration": 5, "velocity": 75}, {"time": 3336, "pitch": 71, "duration": 16, "velocity": 73}, {"time": 3339, "pitch": 76, "duration": 12, "velocity": 65}], "annotations": [{"time": 58, "annotation": {"number": 64, "value": 127}, "group": "control_change"}, {"time": 81, "annotation": {"number": 64, "value": 0}, "group": "control_change"}, {"time": 84, "annotation": {"number": 64, "value": 127}, "group": "control_change"}, {"time": 104, "annotation": {"number": 64, "value": 0}, "group": "control_change"}, {"time": 106, "annotation": {"number": 64, "value": 127}, "group": "control_change"}, {"time": 152, "annotation": {"number": 64, "value": 0}, "group": "control_change"}, {"time": 158, "annotation": {"number": 64, "value": 127}, "group": "control_change"}, {"time": 177, "annotation": {"number": 64, "value": 0}, "group": "control_change"}, {"time": 180, "annotation": {"number": 64, "value": 127}, "group": "control_change"}, {"time": 201, "annotation": {"number": 64, "value": 0}, "group": "control_change"}, {"time": 204, "annotation": {"number": 64, "value": 127}, "group": "control_change"}, {"time": 248, "annotation": {"number": 64, "value": 0}, "group": "control_change"}, {"time": 250, "annotation": {"number": 64, "value": 127}, "group": "control_change"}, {"time": 273, "annotation": {"number": 64, "value": 0}, "group": "control_change"}, {"time": 275, "annotation": {"number": 64, "value": 127}, "group": "control_change"}, {"time": 297, "annotation": {"number": 64, "value": 0}, "group": "control_change"}, {"time": 299, "annotation": {"number": 64, "value": 127}, "group": "control_change"}, {"time": 321, "annotation": {"number": 64, "value": 0}, "group": "control_change"}, {"time": 322, "annotation": {"number": 64, "value": 127}, "group": "control_change"}, {"time": 345, "annotation": {"number": 64, "value": 0}, "group": "control_change"}, {"time": 347, "annotation": {"number": 64, "value": 127}, "group": "control_change"}, {"time": 368, "annotation": {"number": 64, "value": 0}, "group": "control_change"}, {"time": 370, "annotation": {"number": 64, "value": 127}, "group": "control_change"}, {"time": 387, "annotation": {"number": 64, "value": 0}, "group": "control_change"}, {"time": 389, "annotation": {"number": 64, "value": 127}, "group": "control_change"}, {"time": 439, "annotation": {"number": 64, "value": 0}, "group": "control_change"}, {"time": 444, "annotation": {"number": 64, "value": 127}, "group": "control_change"}, {"time": 465, "annotation": {"number": 64, "value": 0}, "group": "control_change"}, {"time": 467, "annotation": {"number": 64, "value": 127}, "group": "control_change"}, {"time": 489, "annotation": {"number": 64, "value": 0}, "group": "control_change"}, {"time": 492, "annotation": {"number": 64, "value": 127}, "group": "control_change"}, {"time": 513, "annotation": {"number": 64, "value": 0}, "group": "control_change"}, {"time": 515, "annotation": {"number": 64, "value": 127}, "group": "control_change"}, {"time": 536, "annotation": {"number": 64, "value": 0}, "group": "control_change"}, {"time": 538, "annotation": {"number": 64, "value": 127}, "group": "control_change"}, {"time": 560, "annotation": {"number": 64, "value": 0}, "group": "control_change"}, {"time": 563, "annotation": {"number": 64, "value": 127}, "group": "control_change"}, {"time": 586, "annotation": {"number": 64, "value": 0}, "group": "control_change"}, {"time": 588, "annotation": {"number": 64, "value": 127}, "group": "control_change"}, {"time": 607, "annotation": {"number": 64, "value": 0}, "group": "control_change"}, {"time": 610, "annotation": {"number": 64, "value": 127}, "group": "control_change"}, {"time": 629, "annotation": {"number": 64, "value": 0}, "group": "control_change"}, {"time": 636, "annotation": {"number": 64, "value": 127}, "group": "control_change"}, {"time": 657, "annotation": {"number": 64, "value": 0}, "group": "control_change"}, {"time": 659, "annotation": {"number": 64, "value": 127}, "group": "control_change"}, {"time": 681, "annotation": {"number": 64, "value": 0}, "group": "control_change"}, {"time": 684, "annotation": {"number": 64, "value": 127}, "group": "control_change"}, {"time": 705, "annotation": {"number": 64, "value": 0}, "group": "control_change"}, {"time": 707, "annotation": {"number": 64, "value": 127}, "group": "control_change"}, {"time": 728, "annotation": {"number": 64, "value": 0}, "group": "control_change"}, {"time": 730, "annotation": {"number": 64, "value": 127}, "group": "control_change"}, {"time": 752, "annotation": {"number": 64, "value": 0}, "group": "control_change"}, {"time": 753, "annotation": {"number": 64, "value": 127}, "group": "control_change"}, {"time": 775, "annotation": {"number": 64, "value": 0}, "group": "control_change"}, {"time": 778, "annotation": {"number": 64, "value": 0}, "group": "control_change"}, {"time": 780, "annotation": {"number": 64, "value": 127}, "group": "control_change"}, {"time": 799, "annotation": {"number": 64, "value": 0}, "group": "control_change"}, {"time": 802, "annotation": {"number": 64, "value": 127}, "group": "control_change"}, {"time": 821, "annotation": {"number": 64, "value": 0}, "group": "control_change"}, {"time": 825, "annotation": {"number": 64, "value": 127}, "group": "control_change"}, {"time": 825, "annotation": {"number": 64, "value": 0}, "group": "control_change"}, {"time": 847, "annotation": {"number": 64, "value": 0}, "group": "control_change"}, {"time": 872, "annotation": {"number": 64, "value": 0}, "group": "control_change"}, {"time": 874, "annotation": {"number": 64, "value": 127}, "group": "control_change"}, {"time": 895, "annotation": {"number": 64, "value": 0}, "group": "control_change"}, {"time": 897, "annotation": {"number": 64, "value": 127}, "group": "control_change"}, {"time": 920, "annotation": {"number": 64, "value": 0}, "group": "control_change"}, {"time": 922, "annotation": {"number": 64, "value": 127}, "group": "control_change"}, {"time": 945, "annotation": {"number": 64, "value": 0}, "group": "control_change"}, {"time": 947, "annotation": {"number": 64, "value": 127}, "group": "control_change"}, {"time": 968, "annotation": {"number": 64, "value": 0}, "group": "control_change"}, {"time": 970, "annotation": {"number": 64, "value": 127}, "group": "control_change"}, {"time": 992, "annotation": {"number": 64, "value": 0}, "group": "control_change"}, {"time": 994, "annotation": {"number": 64, "value": 127}, "group": "control_change"}, {"time": 1010, "annotation": {"number": 64, "value": 0}, "group": "control_change"}, {"time": 1011, "annotation": {"number": 64, "value": 127}, "group": "control_change"}, {"time": 1040, "annotation": {"number": 64, "value": 0}, "group": "control_change"}, {"time": 1043, "annotation": {"number": 64, "value": 127}, "group": "control_change"}, {"time": 1064, "annotation": {"number": 64, "value": 0}, "group": "control_change"}, {"time": 1066, "annotation": {"number": 64, "value": 127}, "group": "control_change"}, {"time": 1088, "annotation": {"number": 64, "value": 0}, "group": "control_change"}, {"time": 1090, "annotation": {"number": 64, "value": 127}, "group": "control_change"}, {"time": 1111, "annotation": {"number": 64, "value": 0}, "group": "control_change"}, {"time": 1113, "annotation": {"number": 64, "value": 127}, "group": "control_change"}, {"time": 1136, "annotation": {"number": 64, "value": 0}, "group": "control_change"}, {"time": 1139, "annotation": {"number": 64, "value": 127}, "group": "control_change"}, {"time": 1160, "annotation": {"number": 64, "value": 0}, "group": "control_change"}, {"time": 1162, "annotation": {"number": 64, "value": 127}, "group": "control_change"}, {"time": 1184, "annotation": {"number": 64, "value": 0}, "group": "control_change"}, {"time": 1186, "annotation": {"number": 64, "value": 127}, "group": "control_change"}, {"time": 1186, "annotation": {"number": 64, "value": 0}, "group": "control_change"}, {"time": 1233, "annotation": {"number": 64, "value": 0}, "group": "control_change"}, {"time": 1235, "annotation": {"number": 64, "value": 127}, "group": "control_change"}, {"time": 1277, "annotation": {"number": 64, "value": 0}, "group": "control_change"}, {"time": 1284, "annotation": {"number": 64, "value": 127}, "group": "control_change"}, {"time": 1305, "annotation": {"number": 64, "value": 0}, "group": "control_change"}, {"time": 1307, "annotation": {"number": 64, "value": 127}, "group": "control_change"}, {"time": 1329, "annotation": {"number": 64, "value": 0}, "group": "control_change"}, {"time": 1332, "annotation": {"number": 64, "value": 127}, "group": "control_change"}, {"time": 1353, "annotation": {"number": 64, "value": 0}, "group": "control_change"}, {"time": 1355, "annotation": {"number": 64, "value": 127}, "group": "control_change"}, {"time": 1376, "annotation": {"number": 64, "value": 0}, "group": "control_change"}, {"time": 1378, "annotation": {"number": 64, "value": 127}, "group": "control_change"}, {"time": 1400, "annotation": {"number": 64, "value": 0}, "group": "control_change"}, {"time": 1403, "annotation": {"number": 64, "value": 127}, "group": "control_change"}, {"time": 1426, "annotation": {"number": 64, "value": 0}, "group": "control_change"}, {"time": 1428, "annotation": {"number": 64, "value": 127}, "group": "control_change"}, {"time": 1447, "annotation": {"number": 64, "value": 0}, "group": "control_change"}, {"time": 1450, "annotation": {"number": 64, "value": 127}, "group": "control_change"}, {"time": 1469, "annotation": {"number": 64, "value": 0}, "group": "control_change"}, {"time": 1476, "annotation": {"number": 64, "value": 127}, "group": "control_change"}, {"time": 1497, "annotation": {"number": 64, "value": 0}, "group": "control_change"}, {"time": 1499, "annotation": {"number": 64, "value": 127}, "group": "control_change"}, {"time": 1521, "annotation": {"number": 64, "value": 0}, "group": "control_change"}, {"time": 1524, "annotation": {"number": 64, "value": 127}, "group": "control_change"}, {"time": 1545, "annotation": {"number": 64, "value": 0}, "group": "control_change"}, {"time": 1547, "annotation": {"number": 64, "value": 127}, "group": "control_change"}, {"time": 1568, "annotation": {"number": 64, "value": 0}, "group": "control_change"}, {"time": 1570, "annotation": {"number": 64, "value": 127}, "group": "control_change"}, {"time": 1592, "annotation": {"number": 64, "value": 0}, "group": "control_change"}, {"time": 1593, "annotation": {"number": 64, "value": 127}, "group": "control_change"}, {"time": 1615, "annotation": {"number": 64, "value": 0}, "group": "control_change"}, {"time": 1618, "annotation": {"number": 64, "value": 0}, "group": "control_change"}, {"time": 1620, "annotation": {"number": 64, "value": 127}, "group": "control_change"}, {"time": 1639, "annotation": {"number": 64, "value": 0}, "group": "control_change"}, {"time": 1663, "annotation": {"number": 64, "value": 0}, "group": "control_change"}, {"time": 1688, "annotation": {"number": 64, "value": 0}, "group": "control_change"}, {"time": 1690, "annotation": {"number": 64, "value": 127}, "group": "control_change"}, {"time": 1711, "annotation": {"number": 64, "value": 0}, "group": "control_change"}, {"time": 1713, "annotation": {"number": 64, "value": 127}, "group": "control_change"}, {"time": 1736, "annotation": {"number": 64, "value": 0}, "group": "control_change"}, {"time": 1738, "annotation": {"number": 64, "value": 127}, "group": "control_change"}, {"time": 1761, "annotation": {"number": 64, "value": 0}, "group": "control_change"}, {"time": 1763, "annotation": {"number": 64, "value": 127}, "group": "control_change"}, {"time": 1784, "annotation": {"number": 64, "value": 0}, "group": "control_change"}, {"time": 1786, "annotation": {"number": 64, "value": 127}, "group": "control_change"}, {"time": 1808, "annotation": {"number": 64, "value": 0}, "group": "control_change"}, {"time": 1810, "annotation": {"number": 64, "value": 127}, "group": "control_change"}, {"time": 1826, "annotation": {"number": 64, "value": 0}, "group": "control_change"}, {"time": 1827, "annotation": {"number": 64, "value": 127}, "group": "control_change"}, {"time": 1856, "annotation": {"number": 64, "value": 0}, "group": "control_change"}, {"time": 1859, "annotation": {"number": 64, "value": 127}, "group": "control_change"}, {"time": 1880, "annotation": {"number": 64, "value": 0}, "group": "control_change"}, {"time": 1882, "annotation": {"number": 64, "value": 127}, "group": "control_change"}, {"time": 1904, "annotation": {"number": 64, "value": 0}, "group": "control_change"}, {"time": 1906, "annotation": {"number": 64, "value": 127}, "group": "control_change"}, {"time": 1927, "annotation": {"number": 64, "value": 0}, "group": "control_change"}, {"time": 1929, "annotation": {"number": 64, "value": 127}, "group": "control_change"}, {"time": 1952, "annotation": {"number": 64, "value": 0}, "group": "control_change"}, {"time": 1955, "annotation": {"number": 64, "value": 127}, "group": "control_change"}, {"time": 1976, "annotation": {"number": 64, "value": 0}, "group": "control_change"}, {"time": 1978, "annotation": {"number": 64, "value": 127}, "group": "control_change"}, {"time": 2000, "annotation": {"number": 64, "value": 0}, "group": "control_change"}, {"time": 2001, "annotation": {"number": 64, "value": 127}, "group": "control_change"}, {"time": 2023, "annotation": {"number": 64, "value": 0}, "group": "control_change"}, {"time": 2025, "annotation": {"number": 64, "value": 127}, "group": "control_change"}, {"time": 2048, "annotation": {"number": 64, "value": 0}, "group": "control_change"}, {"time": 2050, "annotation": {"number": 64, "value": 127}, "group": "control_change"}, {"time": 2072, "annotation": {"number": 64, "value": 0}, "group": "control_change"}, {"time": 2074, "annotation": {"number": 64, "value": 127}, "group": "control_change"}, {"time": 2096, "annotation": {"number": 64, "value": 0}, "group": "control_change"}, {"time": 2098, "annotation": {"number": 64, "value": 127}, "group": "control_change"}, {"time": 2120, "annotation": {"number": 64, "value": 0}, "group": "control_change"}, {"time": 2122, "annotation": {"number": 64, "value": 127}, "group": "control_change"}, {"time": 2144, "annotation": {"number": 64, "value": 0}, "group": "control_change"}, {"time": 2147, "annotation": {"number": 64, "value": 127}, "group": "control_change"}, {"time": 2168, "annotation": {"number": 64, "value": 0}, "group": "control_change"}, {"time": 2170, "annotation": {"number": 64, "value": 127}, "group": "control_change"}, {"time": 2192, "annotation": {"number": 64, "value": 0}, "group": "control_change"}, {"time": 2194, "annotation": {"number": 64, "value": 127}, "group": "control_change"}, {"time": 2215, "annotation": {"number": 64, "value": 0}, "group": "control_change"}, {"time": 2217, "annotation": {"number": 64, "value": 127}, "group": "control_change"}, {"time": 2240, "annotation": {"number": 64, "value": 0}, "group": "control_change"}, {"time": 2242, "annotation": {"number": 64, "value": 127}, "group": "control_change"}, {"time": 2264, "annotation": {"number": 64, "value": 0}, "group": "control_change"}, {"time": 2266, "annotation": {"number": 64, "value": 127}, "group": "control_change"}, {"time": 2288, "annotation": {"number": 64, "value": 0}, "group": "control_change"}, {"time": 2290, "annotation": {"number": 64, "value": 127}, "group": "control_change"}, {"time": 2312, "annotation": {"number": 64, "value": 0}, "group": "control_change"}, {"time": 2315, "annotation": {"number": 64, "value": 127}, "group": "control_change"}, {"time": 2335, "annotation": {"number": 64, "value": 0}, "group": "control_change"}, {"time": 2339, "annotation": {"number": 64, "value": 127}, "group": "control_change"}, {"time": 2360, "annotation": {"number": 64, "value": 0}, "group": "control_change"}, {"time": 2361, "annotation": {"number": 64, "value": 127}, "group": "control_change"}, {"time": 2383, "annotation": {"number": 64, "value": 0}, "group": "control_change"}, {"time": 2386, "annotation": {"number": 64, "value": 127}, "group": "control_change"}, {"time": 2407, "annotation": {"number": 64, "value": 0}, "group": "control_change"}, {"time": 2409, "annotation": {"number": 64, "value": 127}, "group": "control_change"}, {"time": 2421, "annotation": {"number": 64, "value": 0}, "group": "control_change"}, {"time": 2456, "annotation": {"number": 64, "value": 0}, "group": "control_change"}, {"time": 2458, "annotation": {"number": 64, "value": 127}, "group": "control_change"}, {"time": 2479, "annotation": {"number": 64, "value": 0}, "group": "control_change"}, {"time": 2481, "annotation": {"number": 64, "value": 127}, "group": "control_change"}, {"time": 2504, "annotation": {"number": 64, "value": 0}, "group": "control_change"}, {"time": 2506, "annotation": {"number": 64, "value": 127}, "group": "control_change"}, {"time": 2529, "annotation": {"number": 64, "value": 0}, "group": "control_change"}, {"time": 2531, "annotation": {"number": 64, "value": 127}, "group": "control_change"}, {"time": 2552, "annotation": {"number": 64, "value": 0}, "group": "control_change"}, {"time": 2554, "annotation": {"number": 64, "value": 127}, "group": "control_change"}, {"time": 2576, "annotation": {"number": 64, "value": 0}, "group": "control_change"}, {"time": 2578, "annotation": {"number": 64, "value": 127}, "group": "control_change"}, {"time": 2594, "annotation": {"number": 64, "value": 0}, "group": "control_change"}, {"time": 2595, "annotation": {"number": 64, "value": 127}, "group": "control_change"}, {"time": 2624, "annotation": {"number": 64, "value": 0}, "group": "control_change"}, {"time": 2627, "annotation": {"number": 64, "value": 127}, "group": "control_change"}, {"time": 2648, "annotation": {"number": 64, "value": 0}, "group": "control_change"}, {"time": 2650, "annotation": {"number": 64, "value": 127}, "group": "control_change"}, {"time": 2672, "annotation": {"number": 64, "value": 0}, "group": "control_change"}, {"time": 2674, "annotation": {"number": 64, "value": 127}, "group": "control_change"}, {"time": 2695, "annotation": {"number": 64, "value": 0}, "group": "control_change"}, {"time": 2697, "annotation": {"number": 64, "value": 127}, "group": "control_change"}, {"time": 2720, "annotation": {"number": 64, "value": 0}, "group": "control_change"}, {"time": 2723, "annotation": {"number": 64, "value": 127}, "group": "control_change"}, {"time": 2744, "annotation": {"number": 64, "value": 0}, "group": "control_change"}, {"time": 2746, "annotation": {"number": 64, "value": 127}, "group": "control_change"}, {"time": 2768, "annotation": {"number": 64, "value": 0}, "group": "control_change"}, {"time": 2769, "annotation": {"number": 64, "value": 127}, "group": "control_change"}, {"time": 2769, "annotation": {"number": 64, "value": 0}, "group": "control_change"}, {"time": 2770, "annotation": {"number": 64, "value": 127}, "group": "control_change"}, {"time": 2786, "annotation": {"number": 64, "value": 0}, "group": "control_change"}, {"time": 2787, "annotation": {"number": 64, "value": 127}, "group": "control_change"}, {"time": 2816, "annotation": {"number": 64, "value": 0}, "group": "control_change"}, {"time": 2819, "annotation": {"number": 64, "value": 127}, "group": "control_change"}, {"time": 2841, "annotation": {"number": 64, "value": 0}, "group": "control_change"}, {"time": 2847, "annotation": {"number": 64, "value": 127}, "group": "control_change"}, {"time": 2864, "annotation": {"number": 64, "value": 0}, "group": "control_change"}, {"time": 2865, "annotation": {"number": 64, "value": 127}, "group": "control_change"}, {"time": 2865, "annotation": {"number": 64, "value": 0}, "group": "control_change"}, {"time": 2866, "annotation": {"number": 64, "value": 127}, "group": "control_change"}, {"time": 2896, "annotation": {"number": 64, "value": 0}, "group": "control_change"}, {"time": 2899, "annotation": {"number": 64, "value": 127}, "group": "control_change"}, {"time": 2902, "annotation": {"number": 64, "value": 0}, "group": "control_change"}, {"time": 2914, "annotation": {"number": 64, "value": 127}, "group": "control_change"}, {"time": 2937, "annotation": {"number": 64, "value": 0}, "group": "control_change"}, {"time": 2939, "annotation": {"number": 64, "value": 127}, "group": "control_change"}, {"time": 2961, "annotation": {"number": 64, "value": 0}, "group": "control_change"}, {"time": 2963, "annotation": {"number": 64, "value": 127}, "group": "control_change"}, {"time": 2985, "annotation": {"number": 64, "value": 0}, "group": "control_change"}, {"time": 2986, "annotation": {"number": 64, "value": 127}, "group": "control_change"}, {"time": 3009, "annotation": {"number": 64, "value": 0}, "group": "control_change"}, {"time": 3011, "annotation": {"number": 64, "value": 127}, "group": "control_change"}, {"time": 3032, "annotation": {"number": 64, "value": 0}, "group": "control_change"}, {"time": 3034, "annotation": {"number": 64, "value": 127}, "group": "control_change"}, {"time": 3051, "annotation": {"number": 64, "value": 0}, "group": "control_change"}, {"time": 3053, "annotation": {"number": 64, "value": 127}, "group": "control_change"}, {"time": 3103, "annotation": {"number": 64, "value": 0}, "group": "control_change"}, {"time": 3106, "annotation": {"number": 64, "value": 127}, "group": "control_change"}, {"time": 3129, "annotation": {"number": 64, "value": 0}, "group": "control_change"}, {"time": 3131, "annotation": {"number": 64, "value": 127}, "group": "control_change"}, {"time": 3153, "annotation": {"number": 64, "value": 0}, "group": "control_change"}, {"time": 3155, "annotation": {"number": 64, "value": 127}, "group": "control_change"}, {"time": 3177, "annotation": {"number": 64, "value": 0}, "group": "control_change"}, {"time": 3178, "annotation": {"number": 64, "value": 127}, "group": "control_change"}, {"time": 3201, "annotation": {"number": 64, "value": 0}, "group": "control_change"}, {"time": 3203, "annotation": {"number": 64, "value": 127}, "group": "control_change"}, {"time": 3224, "annotation": {"number": 64, "value": 0}, "group": "control_change"}, {"time": 3226, "annotation": {"number": 64, "value": 127}, "group": "control_change"}, {"time": 3243, "annotation": {"number": 64, "value": 0}, "group": "control_change"}, {"time": 3245, "annotation": {"number": 64, "value": 127}, "group": "control_change"}, {"time": 3295, "annotation": {"number": 64, "value": 0}, "group": "control_change"}, {"time": 3297, "annotation": {"number": 64, "value": 127}, "group": "control_change"}, {"time": 3298, "annotation": {"number": 64, "value": 0}, "group": "control_change"}, {"time": 3298, "annotation": {"number": 64, "value": 127}, "group": "control_change"}, {"time": 3314, "annotation": {"number": 64, "value": 0}, "group": "control_change"}, {"time": 3316, "annotation": {"number": 64, "value": 127}, "group": "control_change"}]}]}