{"metadata": {"schema_version": "0.2", "title": "None", "source_filename": "827.mid", "source_format": "midi"}, "resolution": 12, "tempos": [{"time": 0, "qpm": 116.00008506672904}], "time_signatures": [{"time": 0, "numerator": 1, "denominator": 4}], "tracks": [{"program": 4, "is_drum": false, "name": "MELODY", "notes": [{"time": 407, "pitch": 64, "duration": 6, "velocity": 82}, {"time": 413, "pitch": 67, "duration": 6, "velocity": 73}, {"time": 419, "pitch": 69, "duration": 9, "velocity": 78}, {"time": 431, "pitch": 71, "duration": 10, "velocity": 79}, {"time": 443, "pitch": 71, "duration": 10, "velocity": 79}, {"time": 455, "pitch": 69, "duration": 13, "velocity": 79}, {"time": 467, "pitch": 67, "duration": 14, "velocity": 76}, {"time": 485, "pitch": 67, "duration": 5, "velocity": 76}, {"time": 491, "pitch": 64, "duration": 6, "velocity": 79}, {"time": 497, "pitch": 67, "duration": 7, "velocity": 79}, {"time": 503, "pitch": 64, "duration": 7, "velocity": 83}, {"time": 509, "pitch": 71, "duration": 4, "velocity": 79}, {"time": 515, "pitch": 71, "duration": 13, "velocity": 80}, {"time": 527, "pitch": 69, "duration": 49, "velocity": 77}, {"time": 599, "pitch": 64, "duration": 5, "velocity": 79}, {"time": 605, "pitch": 67, "duration": 4, "velocity": 78}, {"time": 611, "pitch": 69, "duration": 9, "velocity": 78}, {"time": 623, "pitch": 71, "duration": 10, "velocity": 80}, {"time": 635, "pitch": 71, "duration": 11, "velocity": 79}, {"time": 647, "pitch": 69, "duration": 11, "velocity": 79}, {"time": 659, "pitch": 67, "duration": 15, "velocity": 72}, {"time": 677, "pitch": 64, "duration": 5, "velocity": 80}, {"time": 683, "pitch": 74, "duration": 3, "velocity": 84}, {"time": 689, "pitch": 74, "duration": 4, "velocity": 85}, {"time": 695, "pitch": 67, "duration": 5, "velocity": 70}, {"time": 701, "pitch": 71, "duration": 4, "velocity": 79}, {"time": 707, "pitch": 71, "duration": 11, "velocity": 77}, {"time": 719, "pitch": 69, "duration": 42, "velocity": 78}, {"time": 791, "pitch": 67, "duration": 4, "velocity": 74}, {"time": 797, "pitch": 69, "duration": 6, "velocity": 80}, {"time": 803, "pitch": 67, "duration": 8, "velocity": 79}, {"time": 815, "pitch": 67, "duration": 10, "velocity": 79}, {"time": 827, "pitch": 74, "duration": 11, "velocity": 84}, {"time": 839, "pitch": 71, "duration": 12, "velocity": 80}, {"time": 851, "pitch": 74, "duration": 7, "velocity": 80}, {"time": 863, "pitch": 67, "duration": 4, "velocity": 80}, {"time": 869, "pitch": 76, "duration": 9, "velocity": 80}, {"time": 881, "pitch": 74, "duration": 9, "velocity": 85}, {"time": 893, "pitch": 67, "duration": 4, "velocity": 79}, {"time": 899, "pitch": 71, "duration": 11, "velocity": 76}, {"time": 911, "pitch": 69, "duration": 39, "velocity": 74}, {"time": 983, "pitch": 67, "duration": 3, "velocity": 78}, {"time": 989, "pitch": 69, "duration": 6, "velocity": 79}, {"time": 995, "pitch": 67, "duration": 10, "velocity": 79}, {"time": 1007, "pitch": 74, "duration": 9, "velocity": 85}, {"time": 1019, "pitch": 74, "duration": 9, "velocity": 92}, {"time": 1031, "pitch": 74, "duration": 4, "velocity": 85}, {"time": 1037, "pitch": 71, "duration": 6, "velocity": 74}, {"time": 1043, "pitch": 67, "duration": 10, "velocity": 77}, {"time": 1061, "pitch": 74, "duration": 5, "velocity": 84}, {"time": 1067, "pitch": 71, "duration": 5, "velocity": 79}, {"time": 1073, "pitch": 74, "duration": 7, "velocity": 85}, {"time": 1079, "pitch": 71, "duration": 4, "velocity": 79}, {"time": 1085, "pitch": 76, "duration": 4, "velocity": 79}, {"time": 1091, "pitch": 76, "duration": 10, "velocity": 82}, {"time": 1103, "pitch": 74, "duration": 52, "velocity": 80}, {"time": 1235, "pitch": 71, "duration": 6, "velocity": 85}, {"time": 1241, "pitch": 74, "duration": 7, "velocity": 89}, {"time": 1247, "pitch": 71, "duration": 5, "velocity": 80}, {"time": 1253, "pitch": 79, "duration": 10, "velocity": 84}, {"time": 1265, "pitch": 76, "duration": 3, "velocity": 79}, {"time": 1271, "pitch": 76, "duration": 15, "velocity": 82}, {"time": 1289, "pitch": 74, "duration": 11, "velocity": 92}, {"time": 1301, "pitch": 71, "duration": 25, "velocity": 84}, {"time": 1331, "pitch": 71, "duration": 7, "velocity": 82}, {"time": 1337, "pitch": 69, "duration": 6, "velocity": 80}, {"time": 1343, "pitch": 67, "duration": 5, "velocity": 79}, {"time": 1349, "pitch": 74, "duration": 9, "velocity": 85}, {"time": 1361, "pitch": 74, "duration": 3, "velocity": 85}, {"time": 1367, "pitch": 74, "duration": 17, "velocity": 87}, {"time": 1385, "pitch": 67, "duration": 9, "velocity": 79}, {"time": 1397, "pitch": 69, "duration": 25, "velocity": 80}, {"time": 1427, "pitch": 71, "duration": 4, "velocity": 84}, {"time": 1433, "pitch": 74, "duration": 7, "velocity": 89}, {"time": 1439, "pitch": 71, "duration": 5, "velocity": 80}, {"time": 1445, "pitch": 79, "duration": 10, "velocity": 82}, {"time": 1457, "pitch": 76, "duration": 3, "velocity": 79}, {"time": 1463, "pitch": 76, "duration": 16, "velocity": 81}, {"time": 1481, "pitch": 74, "duration": 13, "velocity": 89}, {"time": 1493, "pitch": 71, "duration": 19, "velocity": 80}, {"time": 1523, "pitch": 71, "duration": 6, "velocity": 82}, {"time": 1529, "pitch": 69, "duration": 3, "velocity": 79}, {"time": 1535, "pitch": 67, "duration": 5, "velocity": 80}, {"time": 1541, "pitch": 74, "duration": 13, "velocity": 85}, {"time": 1559, "pitch": 76, "duration": 16, "velocity": 82}, {"time": 1577, "pitch": 74, "duration": 10, "velocity": 81}, {"time": 1589, "pitch": 74, "duration": 25, "velocity": 84}, {"time": 1619, "pitch": 71, "duration": 6, "velocity": 85}, {"time": 1625, "pitch": 74, "duration": 7, "velocity": 89}, {"time": 1631, "pitch": 71, "duration": 5, "velocity": 80}, {"time": 1637, "pitch": 79, "duration": 10, "velocity": 84}, {"time": 1649, "pitch": 76, "duration": 3, "velocity": 79}, {"time": 1655, "pitch": 76, "duration": 15, "velocity": 82}, {"time": 1673, "pitch": 74, "duration": 6, "velocity": 92}, {"time": 1679, "pitch": 76, "duration": 19, "velocity": 84}, {"time": 1697, "pitch": 74, "duration": 6, "velocity": 82}, {"time": 1703, "pitch": 71, "duration": 10, "velocity": 80}, {"time": 1715, "pitch": 71, "duration": 7, "velocity": 82}, {"time": 1721, "pitch": 69, "duration": 6, "velocity": 80}, {"time": 1727, "pitch": 67, "duration": 5, "velocity": 79}, {"time": 1733, "pitch": 67, "duration": 9, "velocity": 85}, {"time": 1745, "pitch": 74, "duration": 3, "velocity": 85}, {"time": 1751, "pitch": 74, "duration": 6, "velocity": 87}, {"time": 1757, "pitch": 74, "duration": 12, "velocity": 87}, {"time": 1769, "pitch": 67, "duration": 6, "velocity": 79}, {"time": 1775, "pitch": 69, "duration": 30, "velocity": 80}, {"time": 1811, "pitch": 71, "duration": 4, "velocity": 84}, {"time": 1817, "pitch": 74, "duration": 7, "velocity": 89}, {"time": 1823, "pitch": 71, "duration": 5, "velocity": 80}, {"time": 1829, "pitch": 79, "duration": 10, "velocity": 82}, {"time": 1841, "pitch": 76, "duration": 3, "velocity": 79}, {"time": 1847, "pitch": 76, "duration": 16, "velocity": 81}, {"time": 1865, "pitch": 74, "duration": 13, "velocity": 89}, {"time": 1877, "pitch": 76, "duration": 6, "velocity": 79}, {"time": 1883, "pitch": 74, "duration": 11, "velocity": 92}, {"time": 1895, "pitch": 71, "duration": 8, "velocity": 80}, {"time": 1907, "pitch": 71, "duration": 6, "velocity": 82}, {"time": 1913, "pitch": 69, "duration": 3, "velocity": 79}, {"time": 1919, "pitch": 67, "duration": 5, "velocity": 80}, {"time": 1925, "pitch": 74, "duration": 6, "velocity": 85}, {"time": 1931, "pitch": 74, "duration": 9, "velocity": 87}, {"time": 1943, "pitch": 74, "duration": 9, "velocity": 89}, {"time": 1955, "pitch": 76, "duration": 9, "velocity": 80}, {"time": 1967, "pitch": 74, "duration": 28, "velocity": 94}, {"time": 1997, "pitch": 76, "duration": 10, "velocity": 82}, {"time": 2009, "pitch": 74, "duration": 5, "velocity": 89}, {"time": 2015, "pitch": 76, "duration": 54, "velocity": 82}, {"time": 2423, "pitch": 64, "duration": 6, "velocity": 82}, {"time": 2429, "pitch": 67, "duration": 6, "velocity": 73}, {"time": 2435, "pitch": 69, "duration": 9, "velocity": 78}, {"time": 2447, "pitch": 71, "duration": 10, "velocity": 79}, {"time": 2459, "pitch": 71, "duration": 10, "velocity": 79}, {"time": 2471, "pitch": 69, "duration": 13, "velocity": 79}, {"time": 2483, "pitch": 67, "duration": 12, "velocity": 76}, {"time": 2495, "pitch": 64, "duration": 6, "velocity": 79}, {"time": 2501, "pitch": 67, "duration": 5, "velocity": 76}, {"time": 2507, "pitch": 64, "duration": 6, "velocity": 79}, {"time": 2513, "pitch": 67, "duration": 7, "velocity": 79}, {"time": 2519, "pitch": 64, "duration": 7, "velocity": 83}, {"time": 2525, "pitch": 71, "duration": 4, "velocity": 79}, {"time": 2531, "pitch": 71, "duration": 13, "velocity": 80}, {"time": 2543, "pitch": 69, "duration": 49, "velocity": 77}, {"time": 2615, "pitch": 64, "duration": 5, "velocity": 79}, {"time": 2621, "pitch": 67, "duration": 4, "velocity": 78}, {"time": 2627, "pitch": 69, "duration": 9, "velocity": 78}, {"time": 2639, "pitch": 71, "duration": 10, "velocity": 80}, {"time": 2651, "pitch": 71, "duration": 11, "velocity": 79}, {"time": 2663, "pitch": 71, "duration": 6, "velocity": 79}, {"time": 2669, "pitch": 69, "duration": 6, "velocity": 79}, {"time": 2675, "pitch": 67, "duration": 12, "velocity": 72}, {"time": 2687, "pitch": 62, "duration": 6, "velocity": 79}, {"time": 2693, "pitch": 64, "duration": 5, "velocity": 80}, {"time": 2699, "pitch": 74, "duration": 3, "velocity": 84}, {"time": 2705, "pitch": 74, "duration": 4, "velocity": 85}, {"time": 2711, "pitch": 74, "duration": 5, "velocity": 70}, {"time": 2717, "pitch": 67, "duration": 4, "velocity": 79}, {"time": 2723, "pitch": 71, "duration": 11, "velocity": 77}, {"time": 2735, "pitch": 69, "duration": 42, "velocity": 78}, {"time": 2807, "pitch": 67, "duration": 4, "velocity": 74}, {"time": 2813, "pitch": 69, "duration": 6, "velocity": 80}, {"time": 2819, "pitch": 67, "duration": 8, "velocity": 79}, {"time": 2831, "pitch": 74, "duration": 10, "velocity": 79}, {"time": 2843, "pitch": 74, "duration": 11, "velocity": 84}, {"time": 2855, "pitch": 71, "duration": 12, "velocity": 80}, {"time": 2867, "pitch": 67, "duration": 7, "velocity": 80}, {"time": 2885, "pitch": 76, "duration": 9, "velocity": 80}, {"time": 2897, "pitch": 74, "duration": 9, "velocity": 85}, {"time": 2909, "pitch": 67, "duration": 4, "velocity": 79}, {"time": 2915, "pitch": 71, "duration": 11, "velocity": 76}, {"time": 2927, "pitch": 69, "duration": 39, "velocity": 74}, {"time": 2999, "pitch": 67, "duration": 3, "velocity": 78}, {"time": 3005, "pitch": 69, "duration": 6, "velocity": 79}, {"time": 3011, "pitch": 67, "duration": 10, "velocity": 79}, {"time": 3023, "pitch": 74, "duration": 9, "velocity": 85}, {"time": 3035, "pitch": 74, "duration": 9, "velocity": 92}, {"time": 3047, "pitch": 74, "duration": 4, "velocity": 85}, {"time": 3053, "pitch": 71, "duration": 6, "velocity": 74}, {"time": 3059, "pitch": 67, "duration": 10, "velocity": 77}, {"time": 3077, "pitch": 71, "duration": 5, "velocity": 84}, {"time": 3083, "pitch": 74, "duration": 12, "velocity": 79}, {"time": 3095, "pitch": 74, "duration": 7, "velocity": 85}, {"time": 3101, "pitch": 71, "duration": 4, "velocity": 79}, {"time": 3107, "pitch": 76, "duration": 10, "velocity": 82}, {"time": 3119, "pitch": 74, "duration": 52, "velocity": 80}, {"time": 3203, "pitch": 71, "duration": 6, "velocity": 85}, {"time": 3209, "pitch": 74, "duration": 7, "velocity": 89}, {"time": 3215, "pitch": 71, "duration": 5, "velocity": 80}, {"time": 3221, "pitch": 79, "duration": 10, "velocity": 84}, {"time": 3233, "pitch": 76, "duration": 3, "velocity": 79}, {"time": 3239, "pitch": 76, "duration": 15, "velocity": 82}, {"time": 3257, "pitch": 74, "duration": 11, "velocity": 92}, {"time": 3269, "pitch": 71, "duration": 25, "velocity": 84}, {"time": 3299, "pitch": 71, "duration": 7, "velocity": 82}, {"time": 3305, "pitch": 69, "duration": 6, "velocity": 80}, {"time": 3311, "pitch": 67, "duration": 5, "velocity": 79}, {"time": 3317, "pitch": 74, "duration": 9, "velocity": 85}, {"time": 3329, "pitch": 74, "duration": 3, "velocity": 85}, {"time": 3335, "pitch": 74, "duration": 17, "velocity": 87}, {"time": 3353, "pitch": 67, "duration": 9, "velocity": 79}, {"time": 3365, "pitch": 69, "duration": 25, "velocity": 80}, {"time": 3395, "pitch": 71, "duration": 4, "velocity": 84}, {"time": 3401, "pitch": 74, "duration": 7, "velocity": 89}, {"time": 3407, "pitch": 71, "duration": 5, "velocity": 80}, {"time": 3413, "pitch": 79, "duration": 10, "velocity": 82}, {"time": 3425, "pitch": 76, "duration": 3, "velocity": 79}, {"time": 3431, "pitch": 76, "duration": 16, "velocity": 81}, {"time": 3449, "pitch": 74, "duration": 13, "velocity": 89}, {"time": 3461, "pitch": 71, "duration": 19, "velocity": 80}, {"time": 3491, "pitch": 71, "duration": 6, "velocity": 82}, {"time": 3497, "pitch": 69, "duration": 3, "velocity": 79}, {"time": 3503, "pitch": 67, "duration": 5, "velocity": 80}, {"time": 3509, "pitch": 74, "duration": 13, "velocity": 85}, {"time": 3527, "pitch": 76, "duration": 16, "velocity": 82}, {"time": 3545, "pitch": 74, "duration": 10, "velocity": 81}, {"time": 3557, "pitch": 74, "duration": 25, "velocity": 84}, {"time": 3587, "pitch": 71, "duration": 6, "velocity": 85}, {"time": 3593, "pitch": 74, "duration": 7, "velocity": 89}, {"time": 3599, "pitch": 71, "duration": 5, "velocity": 80}, {"time": 3605, "pitch": 79, "duration": 10, "velocity": 84}, {"time": 3617, "pitch": 76, "duration": 3, "velocity": 79}, {"time": 3623, "pitch": 76, "duration": 15, "velocity": 82}, {"time": 3641, "pitch": 74, "duration": 6, "velocity": 92}, {"time": 3647, "pitch": 76, "duration": 19, "velocity": 84}, {"time": 3665, "pitch": 74, "duration": 6, "velocity": 82}, {"time": 3671, "pitch": 71, "duration": 10, "velocity": 80}, {"time": 3683, "pitch": 71, "duration": 7, "velocity": 82}, {"time": 3689, "pitch": 69, "duration": 6, "velocity": 80}, {"time": 3695, "pitch": 67, "duration": 5, "velocity": 79}, {"time": 3701, "pitch": 67, "duration": 9, "velocity": 85}, {"time": 3713, "pitch": 74, "duration": 3, "velocity": 85}, {"time": 3719, "pitch": 74, "duration": 6, "velocity": 87}, {"time": 3725, "pitch": 74, "duration": 12, "velocity": 87}, {"time": 3737, "pitch": 67, "duration": 6, "velocity": 79}, {"time": 3743, "pitch": 69, "duration": 30, "velocity": 80}, {"time": 3779, "pitch": 71, "duration": 4, "velocity": 84}, {"time": 3785, "pitch": 74, "duration": 7, "velocity": 89}, {"time": 3791, "pitch": 71, "duration": 5, "velocity": 80}, {"time": 3797, "pitch": 79, "duration": 10, "velocity": 82}, {"time": 3809, "pitch": 76, "duration": 3, "velocity": 79}, {"time": 3815, "pitch": 76, "duration": 16, "velocity": 81}, {"time": 3833, "pitch": 74, "duration": 13, "velocity": 89}, {"time": 3845, "pitch": 76, "duration": 6, "velocity": 79}, {"time": 3851, "pitch": 74, "duration": 11, "velocity": 92}, {"time": 3863, "pitch": 71, "duration": 8, "velocity": 80}, {"time": 3875, "pitch": 71, "duration": 6, "velocity": 82}, {"time": 3881, "pitch": 69, "duration": 3, "velocity": 79}, {"time": 3887, "pitch": 67, "duration": 5, "velocity": 80}, {"time": 3893, "pitch": 74, "duration": 6, "velocity": 85}, {"time": 3899, "pitch": 74, "duration": 9, "velocity": 87}, {"time": 3911, "pitch": 74, "duration": 9, "velocity": 89}, {"time": 3923, "pitch": 76, "duration": 9, "velocity": 80}, {"time": 3935, "pitch": 74, "duration": 28, "velocity": 94}, {"time": 3971, "pitch": 71, "duration": 6, "velocity": 85}, {"time": 3977, "pitch": 74, "duration": 7, "velocity": 89}, {"time": 3983, "pitch": 71, "duration": 5, "velocity": 80}, {"time": 3989, "pitch": 79, "duration": 10, "velocity": 84}, {"time": 4001, "pitch": 76, "duration": 3, "velocity": 79}, {"time": 4007, "pitch": 76, "duration": 15, "velocity": 82}, {"time": 4025, "pitch": 74, "duration": 11, "velocity": 92}, {"time": 4037, "pitch": 71, "duration": 25, "velocity": 84}, {"time": 4067, "pitch": 71, "duration": 7, "velocity": 82}, {"time": 4073, "pitch": 69, "duration": 6, "velocity": 80}, {"time": 4079, "pitch": 67, "duration": 5, "velocity": 79}, {"time": 4085, "pitch": 74, "duration": 9, "velocity": 85}, {"time": 4097, "pitch": 74, "duration": 3, "velocity": 85}, {"time": 4103, "pitch": 74, "duration": 17, "velocity": 87}, {"time": 4121, "pitch": 67, "duration": 9, "velocity": 79}, {"time": 4133, "pitch": 69, "duration": 25, "velocity": 80}, {"time": 4163, "pitch": 71, "duration": 4, "velocity": 84}, {"time": 4169, "pitch": 74, "duration": 7, "velocity": 89}, {"time": 4175, "pitch": 71, "duration": 5, "velocity": 80}, {"time": 4181, "pitch": 79, "duration": 10, "velocity": 82}, {"time": 4193, "pitch": 76, "duration": 3, "velocity": 79}, {"time": 4199, "pitch": 76, "duration": 16, "velocity": 81}, {"time": 4217, "pitch": 74, "duration": 13, "velocity": 89}, {"time": 4229, "pitch": 71, "duration": 19, "velocity": 80}, {"time": 4259, "pitch": 71, "duration": 6, "velocity": 82}, {"time": 4265, "pitch": 69, "duration": 3, "velocity": 79}, {"time": 4271, "pitch": 67, "duration": 5, "velocity": 80}, {"time": 4277, "pitch": 74, "duration": 13, "velocity": 85}, {"time": 4295, "pitch": 76, "duration": 16, "velocity": 82}, {"time": 4313, "pitch": 74, "duration": 10, "velocity": 81}, {"time": 4325, "pitch": 74, "duration": 25, "velocity": 84}, {"time": 4355, "pitch": 71, "duration": 6, "velocity": 85}, {"time": 4361, "pitch": 74, "duration": 7, "velocity": 89}, {"time": 4367, "pitch": 71, "duration": 5, "velocity": 80}, {"time": 4373, "pitch": 79, "duration": 10, "velocity": 84}, {"time": 4385, "pitch": 76, "duration": 3, "velocity": 79}, {"time": 4391, "pitch": 76, "duration": 15, "velocity": 82}, {"time": 4409, "pitch": 74, "duration": 6, "velocity": 92}, {"time": 4415, "pitch": 76, "duration": 19, "velocity": 84}, {"time": 4433, "pitch": 74, "duration": 6, "velocity": 82}, {"time": 4439, "pitch": 71, "duration": 10, "velocity": 80}, {"time": 4451, "pitch": 71, "duration": 7, "velocity": 82}, {"time": 4457, "pitch": 69, "duration": 6, "velocity": 80}, {"time": 4463, "pitch": 67, "duration": 5, "velocity": 79}, {"time": 4469, "pitch": 67, "duration": 9, "velocity": 85}, {"time": 4481, "pitch": 74, "duration": 3, "velocity": 85}, {"time": 4487, "pitch": 74, "duration": 6, "velocity": 87}, {"time": 4493, "pitch": 74, "duration": 12, "velocity": 87}, {"time": 4505, "pitch": 67, "duration": 6, "velocity": 79}, {"time": 4511, "pitch": 69, "duration": 30, "velocity": 80}, {"time": 4547, "pitch": 71, "duration": 4, "velocity": 84}, {"time": 4553, "pitch": 74, "duration": 7, "velocity": 89}, {"time": 4559, "pitch": 71, "duration": 5, "velocity": 80}, {"time": 4565, "pitch": 79, "duration": 10, "velocity": 82}, {"time": 4577, "pitch": 76, "duration": 3, "velocity": 79}, {"time": 4583, "pitch": 76, "duration": 16, "velocity": 81}, {"time": 4601, "pitch": 74, "duration": 13, "velocity": 89}, {"time": 4613, "pitch": 76, "duration": 6, "velocity": 79}, {"time": 4619, "pitch": 74, "duration": 11, "velocity": 92}, {"time": 4631, "pitch": 71, "duration": 8, "velocity": 80}, {"time": 4643, "pitch": 71, "duration": 6, "velocity": 82}, {"time": 4649, "pitch": 69, "duration": 3, "velocity": 79}, {"time": 4655, "pitch": 67, "duration": 5, "velocity": 80}, {"time": 4661, "pitch": 74, "duration": 6, "velocity": 85}, {"time": 4667, "pitch": 74, "duration": 9, "velocity": 87}, {"time": 4679, "pitch": 74, "duration": 9, "velocity": 89}, {"time": 4691, "pitch": 76, "duration": 9, "velocity": 80}, {"time": 4703, "pitch": 74, "duration": 28, "velocity": 94}, {"time": 4733, "pitch": 76, "duration": 10, "velocity": 82}, {"time": 4745, "pitch": 74, "duration": 5, "velocity": 89}, {"time": 4751, "pitch": 76, "duration": 54, "velocity": 82}, {"time": 4924, "pitch": 64, "duration": 13, "velocity": 80}, {"time": 4936, "pitch": 63, "duration": 7, "velocity": 77}, {"time": 4943, "pitch": 64, "duration": 54, "velocity": 82}, {"time": 5129, "pitch": 64, "duration": 12, "velocity": 80}, {"time": 5140, "pitch": 63, "duration": 83, "velocity": 67}, {"time": 5222, "pitch": 64, "duration": 82, "velocity": 75}]}, {"program": 0, "is_drum": false, "name": "PIANO", "notes": [{"time": 3, "pitch": 60, "duration": 27, "velocity": 61}, {"time": 4, "pitch": 48, "duration": 26, "velocity": 78}, {"time": 5, "pitch": 64, "duration": 24, "velocity": 72}, {"time": 5, "pitch": 67, "duration": 25, "velocity": 70}, {"time": 52, "pitch": 62, "duration": 26, "velocity": 63}, {"time": 52, "pitch": 59, "duration": 28, "velocity": 62}, {"time": 53, "pitch": 43, "duration": 26, "velocity": 64}, {"time": 53, "pitch": 71, "duration": 28, "velocity": 65}, {"time": 100, "pitch": 52, "duration": 39, "velocity": 78}, {"time": 101, "pitch": 62, "duration": 40, "velocity": 69}, {"time": 101, "pitch": 67, "duration": 39, "velocity": 75}, {"time": 102, "pitch": 71, "duration": 43, "velocity": 67}, {"time": 146, "pitch": 57, "duration": 38, "velocity": 57}, {"time": 147, "pitch": 62, "duration": 38, "velocity": 71}, {"time": 148, "pitch": 38, "duration": 15, "velocity": 71}, {"time": 149, "pitch": 66, "duration": 35, "velocity": 61}, {"time": 194, "pitch": 60, "duration": 32, "velocity": 60}, {"time": 195, "pitch": 64, "duration": 30, "velocity": 69}, {"time": 196, "pitch": 36, "duration": 27, "velocity": 74}, {"time": 196, "pitch": 67, "duration": 31, "velocity": 68}, {"time": 243, "pitch": 55, "duration": 32, "velocity": 64}, {"time": 244, "pitch": 59, "duration": 32, "velocity": 67}, {"time": 244, "pitch": 62, "duration": 33, "velocity": 67}, {"time": 245, "pitch": 43, "duration": 36, "velocity": 78}, {"time": 287, "pitch": 40, "duration": 45, "velocity": 72}, {"time": 289, "pitch": 55, "duration": 43, "velocity": 52}, {"time": 290, "pitch": 59, "duration": 42, "velocity": 65}, {"time": 291, "pitch": 62, "duration": 41, "velocity": 68}, {"time": 338, "pitch": 57, "duration": 51, "velocity": 60}, {"time": 338, "pitch": 62, "duration": 51, "velocity": 67}, {"time": 339, "pitch": 66, "duration": 50, "velocity": 65}, {"time": 340, "pitch": 38, "duration": 18, "velocity": 77}, {"time": 389, "pitch": 48, "duration": 35, "velocity": 79}, {"time": 395, "pitch": 55, "duration": 26, "velocity": 65}, {"time": 401, "pitch": 60, "duration": 24, "velocity": 72}, {"time": 407, "pitch": 67, "duration": 18, "velocity": 68}, {"time": 437, "pitch": 43, "duration": 34, "velocity": 74}, {"time": 437, "pitch": 59, "duration": 8, "velocity": 70}, {"time": 437, "pitch": 62, "duration": 14, "velocity": 67}, {"time": 443, "pitch": 50, "duration": 23, "velocity": 58}, {"time": 449, "pitch": 59, "duration": 21, "velocity": 72}, {"time": 455, "pitch": 62, "duration": 15, "velocity": 72}, {"time": 455, "pitch": 67, "duration": 18, "velocity": 70}, {"time": 485, "pitch": 40, "duration": 31, "velocity": 79}, {"time": 485, "pitch": 64, "duration": 13, "velocity": 72}, {"time": 491, "pitch": 47, "duration": 23, "velocity": 67}, {"time": 497, "pitch": 59, "duration": 18, "velocity": 70}, {"time": 503, "pitch": 64, "duration": 13, "velocity": 76}, {"time": 503, "pitch": 67, "duration": 13, "velocity": 72}, {"time": 533, "pitch": 38, "duration": 29, "velocity": 80}, {"time": 533, "pitch": 62, "duration": 13, "velocity": 74}, {"time": 539, "pitch": 45, "duration": 21, "velocity": 68}, {"time": 545, "pitch": 57, "duration": 19, "velocity": 73}, {"time": 551, "pitch": 62, "duration": 15, "velocity": 78}, {"time": 551, "pitch": 66, "duration": 16, "velocity": 70}, {"time": 581, "pitch": 48, "duration": 35, "velocity": 79}, {"time": 587, "pitch": 55, "duration": 26, "velocity": 65}, {"time": 593, "pitch": 60, "duration": 24, "velocity": 72}, {"time": 599, "pitch": 67, "duration": 18, "velocity": 68}, {"time": 629, "pitch": 43, "duration": 34, "velocity": 74}, {"time": 629, "pitch": 59, "duration": 8, "velocity": 70}, {"time": 629, "pitch": 62, "duration": 14, "velocity": 67}, {"time": 635, "pitch": 50, "duration": 23, "velocity": 58}, {"time": 641, "pitch": 59, "duration": 21, "velocity": 72}, {"time": 647, "pitch": 62, "duration": 15, "velocity": 72}, {"time": 647, "pitch": 67, "duration": 18, "velocity": 70}, {"time": 677, "pitch": 40, "duration": 31, "velocity": 79}, {"time": 677, "pitch": 64, "duration": 13, "velocity": 72}, {"time": 683, "pitch": 47, "duration": 23, "velocity": 67}, {"time": 689, "pitch": 59, "duration": 18, "velocity": 70}, {"time": 695, "pitch": 64, "duration": 13, "velocity": 76}, {"time": 695, "pitch": 67, "duration": 13, "velocity": 72}, {"time": 725, "pitch": 38, "duration": 29, "velocity": 80}, {"time": 725, "pitch": 62, "duration": 13, "velocity": 74}, {"time": 731, "pitch": 45, "duration": 21, "velocity": 68}, {"time": 737, "pitch": 57, "duration": 19, "velocity": 73}, {"time": 743, "pitch": 62, "duration": 15, "velocity": 78}, {"time": 743, "pitch": 66, "duration": 16, "velocity": 70}, {"time": 773, "pitch": 48, "duration": 35, "velocity": 79}, {"time": 779, "pitch": 55, "duration": 26, "velocity": 65}, {"time": 785, "pitch": 60, "duration": 24, "velocity": 72}, {"time": 791, "pitch": 67, "duration": 18, "velocity": 68}, {"time": 821, "pitch": 43, "duration": 34, "velocity": 74}, {"time": 821, "pitch": 59, "duration": 8, "velocity": 70}, {"time": 821, "pitch": 62, "duration": 14, "velocity": 67}, {"time": 827, "pitch": 50, "duration": 23, "velocity": 58}, {"time": 833, "pitch": 59, "duration": 21, "velocity": 72}, {"time": 839, "pitch": 62, "duration": 15, "velocity": 72}, {"time": 839, "pitch": 67, "duration": 18, "velocity": 70}, {"time": 869, "pitch": 40, "duration": 31, "velocity": 79}, {"time": 869, "pitch": 64, "duration": 13, "velocity": 72}, {"time": 875, "pitch": 47, "duration": 23, "velocity": 67}, {"time": 881, "pitch": 59, "duration": 18, "velocity": 70}, {"time": 887, "pitch": 64, "duration": 13, "velocity": 76}, {"time": 887, "pitch": 67, "duration": 13, "velocity": 72}, {"time": 917, "pitch": 38, "duration": 29, "velocity": 80}, {"time": 917, "pitch": 62, "duration": 13, "velocity": 74}, {"time": 923, "pitch": 45, "duration": 21, "velocity": 68}, {"time": 929, "pitch": 57, "duration": 19, "velocity": 73}, {"time": 935, "pitch": 62, "duration": 15, "velocity": 78}, {"time": 935, "pitch": 66, "duration": 16, "velocity": 70}, {"time": 965, "pitch": 48, "duration": 35, "velocity": 79}, {"time": 971, "pitch": 55, "duration": 26, "velocity": 65}, {"time": 977, "pitch": 60, "duration": 24, "velocity": 72}, {"time": 983, "pitch": 67, "duration": 18, "velocity": 68}, {"time": 1013, "pitch": 43, "duration": 34, "velocity": 74}, {"time": 1013, "pitch": 59, "duration": 8, "velocity": 70}, {"time": 1013, "pitch": 62, "duration": 14, "velocity": 67}, {"time": 1019, "pitch": 50, "duration": 23, "velocity": 58}, {"time": 1025, "pitch": 59, "duration": 21, "velocity": 72}, {"time": 1031, "pitch": 62, "duration": 15, "velocity": 72}, {"time": 1031, "pitch": 67, "duration": 18, "velocity": 70}, {"time": 1061, "pitch": 40, "duration": 31, "velocity": 79}, {"time": 1061, "pitch": 64, "duration": 13, "velocity": 72}, {"time": 1067, "pitch": 47, "duration": 23, "velocity": 67}, {"time": 1073, "pitch": 59, "duration": 18, "velocity": 70}, {"time": 1079, "pitch": 64, "duration": 13, "velocity": 76}, {"time": 1079, "pitch": 67, "duration": 13, "velocity": 72}, {"time": 1109, "pitch": 38, "duration": 29, "velocity": 80}, {"time": 1109, "pitch": 62, "duration": 13, "velocity": 74}, {"time": 1115, "pitch": 45, "duration": 21, "velocity": 68}, {"time": 1121, "pitch": 57, "duration": 19, "velocity": 73}, {"time": 1127, "pitch": 62, "duration": 15, "velocity": 78}, {"time": 1127, "pitch": 66, "duration": 16, "velocity": 70}, {"time": 1153, "pitch": 57, "duration": 57, "velocity": 66}, {"time": 1155, "pitch": 62, "duration": 56, "velocity": 73}, {"time": 1156, "pitch": 38, "duration": 49, "velocity": 83}, {"time": 1157, "pitch": 66, "duration": 53, "velocity": 67}, {"time": 1253, "pitch": 36, "duration": 29, "velocity": 79}, {"time": 1253, "pitch": 60, "duration": 8, "velocity": 82}, {"time": 1259, "pitch": 55, "duration": 7, "velocity": 80}, {"time": 1265, "pitch": 60, "duration": 4, "velocity": 68}, {"time": 1277, "pitch": 64, "duration": 13, "velocity": 81}, {"time": 1283, "pitch": 55, "duration": 7, "velocity": 79}, {"time": 1289, "pitch": 60, "duration": 7, "velocity": 78}, {"time": 1295, "pitch": 55, "duration": 4, "velocity": 80}, {"time": 1301, "pitch": 43, "duration": 42, "velocity": 79}, {"time": 1301, "pitch": 59, "duration": 9, "velocity": 78}, {"time": 1307, "pitch": 50, "duration": 31, "velocity": 68}, {"time": 1313, "pitch": 62, "duration": 7, "velocity": 72}, {"time": 1319, "pitch": 55, "duration": 7, "velocity": 72}, {"time": 1325, "pitch": 67, "duration": 6, "velocity": 83}, {"time": 1331, "pitch": 55, "duration": 4, "velocity": 74}, {"time": 1337, "pitch": 59, "duration": 8, "velocity": 79}, {"time": 1337, "pitch": 62, "duration": 12, "velocity": 79}, {"time": 1343, "pitch": 55, "duration": 6, "velocity": 75}, {"time": 1349, "pitch": 40, "duration": 35, "velocity": 82}, {"time": 1355, "pitch": 47, "duration": 27, "velocity": 78}, {"time": 1361, "pitch": 55, "duration": 7, "velocity": 72}, {"time": 1367, "pitch": 52, "duration": 3, "velocity": 78}, {"time": 1373, "pitch": 55, "duration": 8, "velocity": 79}, {"time": 1373, "pitch": 59, "duration": 8, "velocity": 81}, {"time": 1379, "pitch": 52, "duration": 6, "velocity": 78}, {"time": 1385, "pitch": 64, "duration": 11, "velocity": 84}, {"time": 1391, "pitch": 52, "duration": 3, "velocity": 79}, {"time": 1397, "pitch": 38, "duration": 43, "velocity": 83}, {"time": 1397, "pitch": 62, "duration": 6, "velocity": 72}, {"time": 1403, "pitch": 45, "duration": 36, "velocity": 76}, {"time": 1409, "pitch": 57, "duration": 12, "velocity": 79}, {"time": 1415, "pitch": 62, "duration": 7, "velocity": 77}, {"time": 1421, "pitch": 66, "duration": 7, "velocity": 85}, {"time": 1427, "pitch": 57, "duration": 5, "velocity": 73}, {"time": 1433, "pitch": 62, "duration": 6, "velocity": 92}, {"time": 1439, "pitch": 57, "duration": 6, "velocity": 92}, {"time": 1445, "pitch": 36, "duration": 29, "velocity": 79}, {"time": 1445, "pitch": 60, "duration": 8, "velocity": 82}, {"time": 1451, "pitch": 55, "duration": 7, "velocity": 80}, {"time": 1457, "pitch": 60, "duration": 4, "velocity": 68}, {"time": 1469, "pitch": 64, "duration": 13, "velocity": 81}, {"time": 1475, "pitch": 55, "duration": 7, "velocity": 79}, {"time": 1481, "pitch": 60, "duration": 7, "velocity": 78}, {"time": 1487, "pitch": 55, "duration": 4, "velocity": 80}, {"time": 1493, "pitch": 43, "duration": 42, "velocity": 79}, {"time": 1493, "pitch": 59, "duration": 9, "velocity": 78}, {"time": 1499, "pitch": 50, "duration": 31, "velocity": 68}, {"time": 1505, "pitch": 62, "duration": 7, "velocity": 72}, {"time": 1511, "pitch": 55, "duration": 7, "velocity": 72}, {"time": 1517, "pitch": 67, "duration": 6, "velocity": 83}, {"time": 1523, "pitch": 55, "duration": 4, "velocity": 74}, {"time": 1529, "pitch": 59, "duration": 8, "velocity": 79}, {"time": 1529, "pitch": 62, "duration": 12, "velocity": 79}, {"time": 1535, "pitch": 55, "duration": 6, "velocity": 75}, {"time": 1541, "pitch": 40, "duration": 35, "velocity": 82}, {"time": 1547, "pitch": 47, "duration": 27, "velocity": 78}, {"time": 1553, "pitch": 55, "duration": 7, "velocity": 72}, {"time": 1559, "pitch": 52, "duration": 3, "velocity": 78}, {"time": 1565, "pitch": 55, "duration": 8, "velocity": 79}, {"time": 1565, "pitch": 59, "duration": 8, "velocity": 81}, {"time": 1571, "pitch": 52, "duration": 6, "velocity": 78}, {"time": 1577, "pitch": 64, "duration": 11, "velocity": 84}, {"time": 1583, "pitch": 52, "duration": 3, "velocity": 79}, {"time": 1589, "pitch": 38, "duration": 43, "velocity": 83}, {"time": 1589, "pitch": 62, "duration": 6, "velocity": 72}, {"time": 1595, "pitch": 45, "duration": 36, "velocity": 76}, {"time": 1601, "pitch": 57, "duration": 12, "velocity": 79}, {"time": 1607, "pitch": 62, "duration": 7, "velocity": 77}, {"time": 1613, "pitch": 66, "duration": 7, "velocity": 85}, {"time": 1619, "pitch": 57, "duration": 5, "velocity": 73}, {"time": 1625, "pitch": 62, "duration": 6, "velocity": 92}, {"time": 1631, "pitch": 57, "duration": 6, "velocity": 92}, {"time": 1637, "pitch": 36, "duration": 29, "velocity": 79}, {"time": 1637, "pitch": 60, "duration": 8, "velocity": 82}, {"time": 1643, "pitch": 55, "duration": 7, "velocity": 80}, {"time": 1649, "pitch": 60, "duration": 4, "velocity": 68}, {"time": 1661, "pitch": 64, "duration": 13, "velocity": 81}, {"time": 1667, "pitch": 55, "duration": 7, "velocity": 79}, {"time": 1673, "pitch": 60, "duration": 7, "velocity": 78}, {"time": 1679, "pitch": 55, "duration": 4, "velocity": 80}, {"time": 1685, "pitch": 43, "duration": 42, "velocity": 79}, {"time": 1685, "pitch": 59, "duration": 9, "velocity": 78}, {"time": 1691, "pitch": 50, "duration": 31, "velocity": 68}, {"time": 1697, "pitch": 62, "duration": 7, "velocity": 72}, {"time": 1703, "pitch": 55, "duration": 7, "velocity": 72}, {"time": 1709, "pitch": 67, "duration": 6, "velocity": 83}, {"time": 1715, "pitch": 55, "duration": 4, "velocity": 74}, {"time": 1721, "pitch": 59, "duration": 8, "velocity": 79}, {"time": 1721, "pitch": 62, "duration": 12, "velocity": 79}, {"time": 1727, "pitch": 55, "duration": 6, "velocity": 75}, {"time": 1733, "pitch": 40, "duration": 35, "velocity": 82}, {"time": 1739, "pitch": 47, "duration": 27, "velocity": 78}, {"time": 1745, "pitch": 55, "duration": 7, "velocity": 72}, {"time": 1751, "pitch": 52, "duration": 3, "velocity": 78}, {"time": 1757, "pitch": 55, "duration": 8, "velocity": 79}, {"time": 1757, "pitch": 59, "duration": 8, "velocity": 81}, {"time": 1763, "pitch": 52, "duration": 6, "velocity": 78}, {"time": 1769, "pitch": 64, "duration": 11, "velocity": 84}, {"time": 1775, "pitch": 52, "duration": 3, "velocity": 79}, {"time": 1781, "pitch": 38, "duration": 43, "velocity": 83}, {"time": 1781, "pitch": 62, "duration": 6, "velocity": 72}, {"time": 1787, "pitch": 45, "duration": 36, "velocity": 76}, {"time": 1793, "pitch": 57, "duration": 12, "velocity": 79}, {"time": 1799, "pitch": 62, "duration": 7, "velocity": 77}, {"time": 1805, "pitch": 66, "duration": 7, "velocity": 85}, {"time": 1811, "pitch": 57, "duration": 5, "velocity": 73}, {"time": 1817, "pitch": 62, "duration": 6, "velocity": 92}, {"time": 1823, "pitch": 57, "duration": 6, "velocity": 92}, {"time": 1829, "pitch": 36, "duration": 29, "velocity": 79}, {"time": 1829, "pitch": 60, "duration": 8, "velocity": 82}, {"time": 1835, "pitch": 55, "duration": 7, "velocity": 80}, {"time": 1841, "pitch": 60, "duration": 4, "velocity": 68}, {"time": 1853, "pitch": 64, "duration": 13, "velocity": 81}, {"time": 1859, "pitch": 55, "duration": 7, "velocity": 79}, {"time": 1865, "pitch": 60, "duration": 7, "velocity": 78}, {"time": 1871, "pitch": 55, "duration": 4, "velocity": 80}, {"time": 1877, "pitch": 43, "duration": 42, "velocity": 79}, {"time": 1877, "pitch": 59, "duration": 9, "velocity": 78}, {"time": 1883, "pitch": 50, "duration": 31, "velocity": 68}, {"time": 1889, "pitch": 62, "duration": 7, "velocity": 72}, {"time": 1895, "pitch": 55, "duration": 7, "velocity": 72}, {"time": 1901, "pitch": 67, "duration": 6, "velocity": 83}, {"time": 1907, "pitch": 55, "duration": 4, "velocity": 74}, {"time": 1913, "pitch": 59, "duration": 8, "velocity": 79}, {"time": 1913, "pitch": 62, "duration": 12, "velocity": 79}, {"time": 1919, "pitch": 55, "duration": 6, "velocity": 75}, {"time": 1925, "pitch": 40, "duration": 35, "velocity": 82}, {"time": 1931, "pitch": 47, "duration": 27, "velocity": 78}, {"time": 1937, "pitch": 55, "duration": 7, "velocity": 72}, {"time": 1943, "pitch": 52, "duration": 3, "velocity": 78}, {"time": 1949, "pitch": 55, "duration": 8, "velocity": 79}, {"time": 1949, "pitch": 59, "duration": 8, "velocity": 81}, {"time": 1955, "pitch": 52, "duration": 6, "velocity": 78}, {"time": 1961, "pitch": 64, "duration": 11, "velocity": 84}, {"time": 1967, "pitch": 52, "duration": 3, "velocity": 79}, {"time": 1973, "pitch": 38, "duration": 43, "velocity": 83}, {"time": 1973, "pitch": 62, "duration": 6, "velocity": 72}, {"time": 1979, "pitch": 45, "duration": 36, "velocity": 76}, {"time": 1985, "pitch": 57, "duration": 12, "velocity": 79}, {"time": 1991, "pitch": 62, "duration": 7, "velocity": 77}, {"time": 1997, "pitch": 66, "duration": 7, "velocity": 85}, {"time": 2003, "pitch": 57, "duration": 5, "velocity": 73}, {"time": 2009, "pitch": 62, "duration": 6, "velocity": 92}, {"time": 2015, "pitch": 57, "duration": 6, "velocity": 92}, {"time": 2021, "pitch": 52, "duration": 46, "velocity": 79}, {"time": 2027, "pitch": 59, "duration": 23, "velocity": 71}, {"time": 2033, "pitch": 64, "duration": 24, "velocity": 74}, {"time": 2051, "pitch": 59, "duration": 7, "velocity": 74}, {"time": 2057, "pitch": 67, "duration": 14, "velocity": 72}, {"time": 2063, "pitch": 59, "duration": 6, "velocity": 76}, {"time": 2069, "pitch": 50, "duration": 46, "velocity": 74}, {"time": 2075, "pitch": 57, "duration": 18, "velocity": 68}, {"time": 2081, "pitch": 62, "duration": 26, "velocity": 77}, {"time": 2099, "pitch": 57, "duration": 6, "velocity": 71}, {"time": 2105, "pitch": 66, "duration": 12, "velocity": 66}, {"time": 2111, "pitch": 57, "duration": 6, "velocity": 77}, {"time": 2117, "pitch": 48, "duration": 44, "velocity": 74}, {"time": 2123, "pitch": 55, "duration": 20, "velocity": 75}, {"time": 2129, "pitch": 60, "duration": 24, "velocity": 73}, {"time": 2147, "pitch": 55, "duration": 7, "velocity": 75}, {"time": 2153, "pitch": 64, "duration": 13, "velocity": 75}, {"time": 2159, "pitch": 55, "duration": 5, "velocity": 78}, {"time": 2165, "pitch": 47, "duration": 47, "velocity": 78}, {"time": 2171, "pitch": 59, "duration": 8, "velocity": 72}, {"time": 2177, "pitch": 64, "duration": 12, "velocity": 78}, {"time": 2183, "pitch": 59, "duration": 8, "velocity": 75}, {"time": 2189, "pitch": 66, "duration": 18, "velocity": 72}, {"time": 2195, "pitch": 59, "duration": 8, "velocity": 76}, {"time": 2201, "pitch": 63, "duration": 10, "velocity": 74}, {"time": 2207, "pitch": 59, "duration": 5, "velocity": 77}, {"time": 2213, "pitch": 52, "duration": 46, "velocity": 79}, {"time": 2219, "pitch": 59, "duration": 23, "velocity": 71}, {"time": 2225, "pitch": 64, "duration": 24, "velocity": 74}, {"time": 2243, "pitch": 59, "duration": 7, "velocity": 74}, {"time": 2249, "pitch": 67, "duration": 14, "velocity": 72}, {"time": 2255, "pitch": 59, "duration": 6, "velocity": 76}, {"time": 2261, "pitch": 50, "duration": 46, "velocity": 74}, {"time": 2267, "pitch": 57, "duration": 18, "velocity": 68}, {"time": 2273, "pitch": 62, "duration": 26, "velocity": 77}, {"time": 2291, "pitch": 57, "duration": 6, "velocity": 71}, {"time": 2297, "pitch": 66, "duration": 12, "velocity": 66}, {"time": 2303, "pitch": 57, "duration": 6, "velocity": 77}, {"time": 2309, "pitch": 48, "duration": 44, "velocity": 74}, {"time": 2315, "pitch": 55, "duration": 20, "velocity": 75}, {"time": 2321, "pitch": 60, "duration": 24, "velocity": 73}, {"time": 2339, "pitch": 55, "duration": 7, "velocity": 75}, {"time": 2345, "pitch": 64, "duration": 13, "velocity": 75}, {"time": 2351, "pitch": 55, "duration": 5, "velocity": 78}, {"time": 2357, "pitch": 47, "duration": 47, "velocity": 78}, {"time": 2363, "pitch": 59, "duration": 8, "velocity": 72}, {"time": 2369, "pitch": 64, "duration": 12, "velocity": 78}, {"time": 2375, "pitch": 59, "duration": 8, "velocity": 75}, {"time": 2381, "pitch": 66, "duration": 18, "velocity": 72}, {"time": 2387, "pitch": 59, "duration": 8, "velocity": 76}, {"time": 2393, "pitch": 63, "duration": 10, "velocity": 74}, {"time": 2399, "pitch": 59, "duration": 5, "velocity": 77}, {"time": 2405, "pitch": 36, "duration": 31, "velocity": 83}, {"time": 2405, "pitch": 55, "duration": 7, "velocity": 81}, {"time": 2405, "pitch": 60, "duration": 12, "velocity": 83}, {"time": 2411, "pitch": 43, "duration": 23, "velocity": 66}, {"time": 2417, "pitch": 55, "duration": 8, "velocity": 84}, {"time": 2423, "pitch": 60, "duration": 3, "velocity": 84}, {"time": 2429, "pitch": 55, "duration": 4, "velocity": 85}, {"time": 2429, "pitch": 64, "duration": 8, "velocity": 88}, {"time": 2435, "pitch": 55, "duration": 8, "velocity": 81}, {"time": 2441, "pitch": 60, "duration": 8, "velocity": 78}, {"time": 2447, "pitch": 55, "duration": 8, "velocity": 79}, {"time": 2453, "pitch": 43, "duration": 33, "velocity": 85}, {"time": 2459, "pitch": 50, "duration": 25, "velocity": 76}, {"time": 2465, "pitch": 55, "duration": 12, "velocity": 88}, {"time": 2471, "pitch": 62, "duration": 7, "velocity": 79}, {"time": 2477, "pitch": 67, "duration": 7, "velocity": 84}, {"time": 2483, "pitch": 62, "duration": 7, "velocity": 84}, {"time": 2489, "pitch": 55, "duration": 9, "velocity": 84}, {"time": 2495, "pitch": 62, "duration": 17, "velocity": 79}, {"time": 2501, "pitch": 40, "duration": 37, "velocity": 86}, {"time": 2507, "pitch": 47, "duration": 30, "velocity": 71}, {"time": 2513, "pitch": 52, "duration": 12, "velocity": 79}, {"time": 2519, "pitch": 59, "duration": 9, "velocity": 79}, {"time": 2525, "pitch": 64, "duration": 19, "velocity": 84}, {"time": 2531, "pitch": 59, "duration": 7, "velocity": 83}, {"time": 2537, "pitch": 52, "duration": 10, "velocity": 85}, {"time": 2543, "pitch": 59, "duration": 7, "velocity": 79}, {"time": 2549, "pitch": 38, "duration": 39, "velocity": 86}, {"time": 2555, "pitch": 45, "duration": 33, "velocity": 79}, {"time": 2561, "pitch": 50, "duration": 10, "velocity": 82}, {"time": 2567, "pitch": 57, "duration": 5, "velocity": 77}, {"time": 2573, "pitch": 57, "duration": 1, "velocity": 68}, {"time": 2573, "pitch": 62, "duration": 20, "velocity": 84}, {"time": 2579, "pitch": 50, "duration": 7, "velocity": 79}, {"time": 2585, "pitch": 54, "duration": 5, "velocity": 75}, {"time": 2591, "pitch": 50, "duration": 3, "velocity": 83}, {"time": 2597, "pitch": 36, "duration": 35, "velocity": 83}, {"time": 2597, "pitch": 52, "duration": 6, "velocity": 84}, {"time": 2597, "pitch": 55, "duration": 13, "velocity": 82}, {"time": 2603, "pitch": 43, "duration": 28, "velocity": 71}, {"time": 2609, "pitch": 52, "duration": 14, "velocity": 83}, {"time": 2615, "pitch": 55, "duration": 7, "velocity": 83}, {"time": 2621, "pitch": 60, "duration": 8, "velocity": 83}, {"time": 2627, "pitch": 55, "duration": 7, "velocity": 82}, {"time": 2633, "pitch": 52, "duration": 6, "velocity": 88}, {"time": 2639, "pitch": 60, "duration": 9, "velocity": 83}, {"time": 2645, "pitch": 43, "duration": 36, "velocity": 85}, {"time": 2651, "pitch": 50, "duration": 21, "velocity": 74}, {"time": 2657, "pitch": 55, "duration": 7, "velocity": 84}, {"time": 2663, "pitch": 59, "duration": 6, "velocity": 84}, {"time": 2669, "pitch": 62, "duration": 14, "velocity": 83}, {"time": 2675, "pitch": 50, "duration": 6, "velocity": 81}, {"time": 2681, "pitch": 55, "duration": 10, "velocity": 84}, {"time": 2687, "pitch": 59, "duration": 14, "velocity": 83}, {"time": 2693, "pitch": 40, "duration": 35, "velocity": 86}, {"time": 2699, "pitch": 47, "duration": 28, "velocity": 76}, {"time": 2705, "pitch": 52, "duration": 15, "velocity": 84}, {"time": 2711, "pitch": 55, "duration": 8, "velocity": 81}, {"time": 2717, "pitch": 64, "duration": 14, "velocity": 86}, {"time": 2723, "pitch": 59, "duration": 8, "velocity": 80}, {"time": 2729, "pitch": 52, "duration": 8, "velocity": 86}, {"time": 2735, "pitch": 59, "duration": 11, "velocity": 79}, {"time": 2741, "pitch": 38, "duration": 49, "velocity": 87}, {"time": 2747, "pitch": 45, "duration": 42, "velocity": 75}, {"time": 2753, "pitch": 50, "duration": 8, "velocity": 84}, {"time": 2759, "pitch": 57, "duration": 7, "velocity": 84}, {"time": 2765, "pitch": 62, "duration": 24, "velocity": 85}, {"time": 2771, "pitch": 57, "duration": 7, "velocity": 76}, {"time": 2777, "pitch": 50, "duration": 8, "velocity": 86}, {"time": 2783, "pitch": 57, "duration": 5, "velocity": 80}, {"time": 2789, "pitch": 36, "duration": 31, "velocity": 83}, {"time": 2789, "pitch": 55, "duration": 7, "velocity": 81}, {"time": 2789, "pitch": 60, "duration": 12, "velocity": 83}, {"time": 2795, "pitch": 43, "duration": 23, "velocity": 66}, {"time": 2801, "pitch": 55, "duration": 8, "velocity": 84}, {"time": 2807, "pitch": 60, "duration": 3, "velocity": 84}, {"time": 2813, "pitch": 55, "duration": 4, "velocity": 85}, {"time": 2813, "pitch": 64, "duration": 8, "velocity": 88}, {"time": 2819, "pitch": 55, "duration": 8, "velocity": 81}, {"time": 2825, "pitch": 60, "duration": 8, "velocity": 78}, {"time": 2831, "pitch": 55, "duration": 8, "velocity": 79}, {"time": 2837, "pitch": 43, "duration": 33, "velocity": 85}, {"time": 2843, "pitch": 50, "duration": 25, "velocity": 76}, {"time": 2849, "pitch": 55, "duration": 12, "velocity": 88}, {"time": 2855, "pitch": 62, "duration": 7, "velocity": 79}, {"time": 2861, "pitch": 67, "duration": 7, "velocity": 84}, {"time": 2867, "pitch": 62, "duration": 7, "velocity": 84}, {"time": 2873, "pitch": 55, "duration": 9, "velocity": 84}, {"time": 2879, "pitch": 62, "duration": 17, "velocity": 79}, {"time": 2885, "pitch": 40, "duration": 37, "velocity": 86}, {"time": 2891, "pitch": 47, "duration": 30, "velocity": 71}, {"time": 2897, "pitch": 52, "duration": 12, "velocity": 79}, {"time": 2903, "pitch": 59, "duration": 9, "velocity": 79}, {"time": 2909, "pitch": 64, "duration": 19, "velocity": 84}, {"time": 2915, "pitch": 59, "duration": 7, "velocity": 83}, {"time": 2921, "pitch": 52, "duration": 10, "velocity": 85}, {"time": 2927, "pitch": 59, "duration": 7, "velocity": 79}, {"time": 2933, "pitch": 38, "duration": 39, "velocity": 86}, {"time": 2939, "pitch": 45, "duration": 33, "velocity": 79}, {"time": 2945, "pitch": 50, "duration": 10, "velocity": 82}, {"time": 2951, "pitch": 57, "duration": 5, "velocity": 77}, {"time": 2957, "pitch": 57, "duration": 1, "velocity": 68}, {"time": 2957, "pitch": 62, "duration": 20, "velocity": 84}, {"time": 2963, "pitch": 50, "duration": 7, "velocity": 79}, {"time": 2969, "pitch": 54, "duration": 5, "velocity": 75}, {"time": 2975, "pitch": 50, "duration": 3, "velocity": 83}, {"time": 2981, "pitch": 36, "duration": 35, "velocity": 83}, {"time": 2981, "pitch": 52, "duration": 6, "velocity": 84}, {"time": 2981, "pitch": 55, "duration": 13, "velocity": 82}, {"time": 2987, "pitch": 43, "duration": 28, "velocity": 71}, {"time": 2993, "pitch": 52, "duration": 14, "velocity": 83}, {"time": 2999, "pitch": 55, "duration": 7, "velocity": 83}, {"time": 3005, "pitch": 60, "duration": 8, "velocity": 83}, {"time": 3011, "pitch": 55, "duration": 7, "velocity": 82}, {"time": 3017, "pitch": 52, "duration": 6, "velocity": 88}, {"time": 3023, "pitch": 60, "duration": 9, "velocity": 83}, {"time": 3029, "pitch": 43, "duration": 36, "velocity": 85}, {"time": 3035, "pitch": 50, "duration": 21, "velocity": 74}, {"time": 3041, "pitch": 55, "duration": 7, "velocity": 84}, {"time": 3047, "pitch": 59, "duration": 6, "velocity": 84}, {"time": 3053, "pitch": 62, "duration": 14, "velocity": 83}, {"time": 3059, "pitch": 50, "duration": 6, "velocity": 81}, {"time": 3065, "pitch": 55, "duration": 10, "velocity": 84}, {"time": 3071, "pitch": 59, "duration": 14, "velocity": 83}, {"time": 3077, "pitch": 40, "duration": 35, "velocity": 86}, {"time": 3083, "pitch": 47, "duration": 28, "velocity": 76}, {"time": 3089, "pitch": 52, "duration": 15, "velocity": 84}, {"time": 3095, "pitch": 55, "duration": 8, "velocity": 81}, {"time": 3101, "pitch": 64, "duration": 14, "velocity": 86}, {"time": 3107, "pitch": 59, "duration": 8, "velocity": 80}, {"time": 3113, "pitch": 52, "duration": 8, "velocity": 86}, {"time": 3119, "pitch": 59, "duration": 11, "velocity": 79}, {"time": 3125, "pitch": 38, "duration": 49, "velocity": 87}, {"time": 3131, "pitch": 45, "duration": 42, "velocity": 75}, {"time": 3137, "pitch": 50, "duration": 8, "velocity": 84}, {"time": 3143, "pitch": 57, "duration": 7, "velocity": 84}, {"time": 3149, "pitch": 62, "duration": 24, "velocity": 85}, {"time": 3155, "pitch": 57, "duration": 7, "velocity": 76}, {"time": 3161, "pitch": 50, "duration": 8, "velocity": 86}, {"time": 3167, "pitch": 57, "duration": 5, "velocity": 80}, {"time": 3172, "pitch": 62, "duration": 1, "velocity": 76}, {"time": 3172, "pitch": 38, "duration": 2, "velocity": 87}, {"time": 3173, "pitch": 66, "duration": 12, "velocity": 69}, {"time": 3190, "pitch": 57, "duration": 3, "velocity": 80}, {"time": 3196, "pitch": 62, "duration": 9, "velocity": 78}, {"time": 3196, "pitch": 57, "duration": 7, "velocity": 79}, {"time": 3196, "pitch": 66, "duration": 14, "velocity": 79}, {"time": 3196, "pitch": 38, "duration": 23, "velocity": 94}, {"time": 3201, "pitch": 45, "duration": 17, "velocity": 76}, {"time": 3208, "pitch": 57, "duration": 4, "velocity": 83}, {"time": 3214, "pitch": 62, "duration": 5, "velocity": 82}, {"time": 3214, "pitch": 57, "duration": 5, "velocity": 72}, {"time": 3221, "pitch": 36, "duration": 40, "velocity": 85}, {"time": 3221, "pitch": 55, "duration": 7, "velocity": 85}, {"time": 3221, "pitch": 60, "duration": 8, "velocity": 85}, {"time": 3227, "pitch": 43, "duration": 34, "velocity": 71}, {"time": 3233, "pitch": 55, "duration": 3, "velocity": 85}, {"time": 3239, "pitch": 60, "duration": 2, "velocity": 90}, {"time": 3245, "pitch": 55, "duration": 9, "velocity": 88}, {"time": 3245, "pitch": 64, "duration": 7, "velocity": 93}, {"time": 3257, "pitch": 55, "duration": 7, "velocity": 86}, {"time": 3263, "pitch": 60, "duration": 4, "velocity": 71}, {"time": 3269, "pitch": 43, "duration": 38, "velocity": 86}, {"time": 3269, "pitch": 55, "duration": 5, "velocity": 85}, {"time": 3275, "pitch": 50, "duration": 21, "velocity": 85}, {"time": 3281, "pitch": 55, "duration": 3, "velocity": 86}, {"time": 3287, "pitch": 59, "duration": 2, "velocity": 85}, {"time": 3293, "pitch": 55, "duration": 12, "velocity": 84}, {"time": 3293, "pitch": 62, "duration": 20, "velocity": 85}, {"time": 3305, "pitch": 50, "duration": 4, "velocity": 85}, {"time": 3311, "pitch": 55, "duration": 4, "velocity": 85}, {"time": 3317, "pitch": 40, "duration": 37, "velocity": 88}, {"time": 3323, "pitch": 47, "duration": 31, "velocity": 80}, {"time": 3329, "pitch": 55, "duration": 7, "velocity": 88}, {"time": 3335, "pitch": 59, "duration": 2, "velocity": 85}, {"time": 3341, "pitch": 55, "duration": 3, "velocity": 86}, {"time": 3341, "pitch": 64, "duration": 3, "velocity": 86}, {"time": 3353, "pitch": 59, "duration": 6, "velocity": 88}, {"time": 3359, "pitch": 55, "duration": 2, "velocity": 84}, {"time": 3365, "pitch": 38, "duration": 35, "velocity": 89}, {"time": 3365, "pitch": 57, "duration": 4, "velocity": 79}, {"time": 3365, "pitch": 62, "duration": 5, "velocity": 83}, {"time": 3371, "pitch": 45, "duration": 14, "velocity": 73}, {"time": 3383, "pitch": 57, "duration": 7, "velocity": 86}, {"time": 3383, "pitch": 66, "duration": 7, "velocity": 86}, {"time": 3389, "pitch": 45, "duration": 11, "velocity": 81}, {"time": 3395, "pitch": 57, "duration": 3, "velocity": 84}, {"time": 3395, "pitch": 62, "duration": 5, "velocity": 87}, {"time": 3401, "pitch": 57, "duration": 3, "velocity": 86}, {"time": 3413, "pitch": 48, "duration": 45, "velocity": 87}, {"time": 3413, "pitch": 55, "duration": 3, "velocity": 82}, {"time": 3413, "pitch": 60, "duration": 6, "velocity": 81}, {"time": 3419, "pitch": 55, "duration": 7, "velocity": 84}, {"time": 3425, "pitch": 60, "duration": 2, "velocity": 86}, {"time": 3431, "pitch": 55, "duration": 5, "velocity": 85}, {"time": 3431, "pitch": 64, "duration": 8, "velocity": 88}, {"time": 3443, "pitch": 55, "duration": 9, "velocity": 78}, {"time": 3443, "pitch": 60, "duration": 10, "velocity": 86}, {"time": 3455, "pitch": 55, "duration": 2, "velocity": 83}, {"time": 3461, "pitch": 43, "duration": 35, "velocity": 85}, {"time": 3461, "pitch": 55, "duration": 5, "velocity": 82}, {"time": 3461, "pitch": 59, "duration": 6, "velocity": 84}, {"time": 3467, "pitch": 50, "duration": 28, "velocity": 75}, {"time": 3473, "pitch": 55, "duration": 2, "velocity": 85}, {"time": 3479, "pitch": 55, "duration": 5, "velocity": 87}, {"time": 3479, "pitch": 62, "duration": 5, "velocity": 84}, {"time": 3491, "pitch": 55, "duration": 3, "velocity": 85}, {"time": 3491, "pitch": 59, "duration": 5, "velocity": 88}, {"time": 3497, "pitch": 55, "duration": 3, "velocity": 85}, {"time": 3509, "pitch": 40, "duration": 36, "velocity": 86}, {"time": 3509, "pitch": 52, "duration": 5, "velocity": 83}, {"time": 3509, "pitch": 55, "duration": 7, "velocity": 81}, {"time": 3515, "pitch": 47, "duration": 29, "velocity": 76}, {"time": 3521, "pitch": 52, "duration": 7, "velocity": 86}, {"time": 3527, "pitch": 59, "duration": 7, "velocity": 85}, {"time": 3533, "pitch": 64, "duration": 7, "velocity": 86}, {"time": 3539, "pitch": 59, "duration": 7, "velocity": 85}, {"time": 3545, "pitch": 52, "duration": 7, "velocity": 93}, {"time": 3551, "pitch": 59, "duration": 3, "velocity": 82}, {"time": 3557, "pitch": 38, "duration": 46, "velocity": 86}, {"time": 3557, "pitch": 57, "duration": 7, "velocity": 78}, {"time": 3557, "pitch": 62, "duration": 7, "velocity": 76}, {"time": 3563, "pitch": 45, "duration": 27, "velocity": 84}, {"time": 3569, "pitch": 57, "duration": 3, "velocity": 85}, {"time": 3575, "pitch": 57, "duration": 7, "velocity": 77}, {"time": 3575, "pitch": 66, "duration": 8, "velocity": 86}, {"time": 3587, "pitch": 57, "duration": 6, "velocity": 84}, {"time": 3587, "pitch": 62, "duration": 7, "velocity": 85}, {"time": 3593, "pitch": 45, "duration": 11, "velocity": 86}, {"time": 3599, "pitch": 57, "duration": 5, "velocity": 86}, {"time": 3605, "pitch": 36, "duration": 40, "velocity": 85}, {"time": 3605, "pitch": 55, "duration": 7, "velocity": 85}, {"time": 3605, "pitch": 60, "duration": 8, "velocity": 85}, {"time": 3611, "pitch": 43, "duration": 34, "velocity": 71}, {"time": 3617, "pitch": 55, "duration": 3, "velocity": 85}, {"time": 3623, "pitch": 60, "duration": 2, "velocity": 90}, {"time": 3629, "pitch": 55, "duration": 9, "velocity": 88}, {"time": 3629, "pitch": 64, "duration": 7, "velocity": 93}, {"time": 3641, "pitch": 55, "duration": 7, "velocity": 86}, {"time": 3647, "pitch": 60, "duration": 4, "velocity": 71}, {"time": 3653, "pitch": 43, "duration": 38, "velocity": 86}, {"time": 3653, "pitch": 55, "duration": 5, "velocity": 85}, {"time": 3659, "pitch": 50, "duration": 21, "velocity": 85}, {"time": 3665, "pitch": 55, "duration": 3, "velocity": 86}, {"time": 3671, "pitch": 59, "duration": 2, "velocity": 85}, {"time": 3677, "pitch": 55, "duration": 12, "velocity": 84}, {"time": 3677, "pitch": 62, "duration": 20, "velocity": 85}, {"time": 3689, "pitch": 50, "duration": 4, "velocity": 85}, {"time": 3695, "pitch": 55, "duration": 4, "velocity": 85}, {"time": 3701, "pitch": 40, "duration": 37, "velocity": 88}, {"time": 3707, "pitch": 47, "duration": 31, "velocity": 80}, {"time": 3713, "pitch": 55, "duration": 7, "velocity": 88}, {"time": 3719, "pitch": 59, "duration": 2, "velocity": 85}, {"time": 3725, "pitch": 55, "duration": 3, "velocity": 86}, {"time": 3725, "pitch": 64, "duration": 3, "velocity": 86}, {"time": 3737, "pitch": 59, "duration": 6, "velocity": 88}, {"time": 3743, "pitch": 55, "duration": 2, "velocity": 84}, {"time": 3749, "pitch": 38, "duration": 35, "velocity": 89}, {"time": 3749, "pitch": 57, "duration": 4, "velocity": 79}, {"time": 3749, "pitch": 62, "duration": 5, "velocity": 83}, {"time": 3755, "pitch": 45, "duration": 14, "velocity": 73}, {"time": 3767, "pitch": 57, "duration": 7, "velocity": 86}, {"time": 3767, "pitch": 66, "duration": 7, "velocity": 86}, {"time": 3773, "pitch": 45, "duration": 11, "velocity": 81}, {"time": 3779, "pitch": 57, "duration": 3, "velocity": 84}, {"time": 3779, "pitch": 62, "duration": 5, "velocity": 87}, {"time": 3785, "pitch": 57, "duration": 3, "velocity": 86}, {"time": 3797, "pitch": 48, "duration": 45, "velocity": 87}, {"time": 3797, "pitch": 55, "duration": 3, "velocity": 82}, {"time": 3797, "pitch": 60, "duration": 6, "velocity": 81}, {"time": 3803, "pitch": 55, "duration": 7, "velocity": 84}, {"time": 3809, "pitch": 60, "duration": 2, "velocity": 86}, {"time": 3815, "pitch": 55, "duration": 5, "velocity": 85}, {"time": 3815, "pitch": 64, "duration": 8, "velocity": 88}, {"time": 3827, "pitch": 55, "duration": 9, "velocity": 78}, {"time": 3827, "pitch": 60, "duration": 10, "velocity": 86}, {"time": 3839, "pitch": 55, "duration": 2, "velocity": 83}, {"time": 3845, "pitch": 43, "duration": 35, "velocity": 85}, {"time": 3845, "pitch": 55, "duration": 5, "velocity": 82}, {"time": 3845, "pitch": 59, "duration": 6, "velocity": 84}, {"time": 3851, "pitch": 50, "duration": 28, "velocity": 75}, {"time": 3857, "pitch": 55, "duration": 2, "velocity": 85}, {"time": 3863, "pitch": 55, "duration": 5, "velocity": 87}, {"time": 3863, "pitch": 62, "duration": 5, "velocity": 84}, {"time": 3875, "pitch": 55, "duration": 3, "velocity": 85}, {"time": 3875, "pitch": 59, "duration": 5, "velocity": 88}, {"time": 3881, "pitch": 55, "duration": 3, "velocity": 85}, {"time": 3893, "pitch": 40, "duration": 36, "velocity": 86}, {"time": 3893, "pitch": 52, "duration": 5, "velocity": 83}, {"time": 3893, "pitch": 55, "duration": 7, "velocity": 81}, {"time": 3899, "pitch": 47, "duration": 29, "velocity": 76}, {"time": 3905, "pitch": 52, "duration": 7, "velocity": 86}, {"time": 3911, "pitch": 59, "duration": 7, "velocity": 85}, {"time": 3917, "pitch": 64, "duration": 7, "velocity": 86}, {"time": 3923, "pitch": 59, "duration": 7, "velocity": 85}, {"time": 3929, "pitch": 52, "duration": 7, "velocity": 93}, {"time": 3935, "pitch": 59, "duration": 3, "velocity": 82}, {"time": 3941, "pitch": 38, "duration": 46, "velocity": 86}, {"time": 3941, "pitch": 57, "duration": 7, "velocity": 78}, {"time": 3941, "pitch": 62, "duration": 7, "velocity": 76}, {"time": 3947, "pitch": 45, "duration": 27, "velocity": 84}, {"time": 3953, "pitch": 57, "duration": 3, "velocity": 85}, {"time": 3959, "pitch": 57, "duration": 7, "velocity": 77}, {"time": 3959, "pitch": 66, "duration": 8, "velocity": 86}, {"time": 3971, "pitch": 57, "duration": 6, "velocity": 84}, {"time": 3971, "pitch": 62, "duration": 7, "velocity": 85}, {"time": 3977, "pitch": 45, "duration": 11, "velocity": 86}, {"time": 3983, "pitch": 57, "duration": 5, "velocity": 86}, {"time": 3989, "pitch": 36, "duration": 40, "velocity": 85}, {"time": 3989, "pitch": 55, "duration": 7, "velocity": 85}, {"time": 3989, "pitch": 60, "duration": 8, "velocity": 85}, {"time": 3995, "pitch": 43, "duration": 34, "velocity": 71}, {"time": 4001, "pitch": 55, "duration": 3, "velocity": 85}, {"time": 4007, "pitch": 60, "duration": 2, "velocity": 90}, {"time": 4013, "pitch": 55, "duration": 9, "velocity": 88}, {"time": 4013, "pitch": 64, "duration": 7, "velocity": 93}, {"time": 4025, "pitch": 55, "duration": 7, "velocity": 86}, {"time": 4031, "pitch": 60, "duration": 4, "velocity": 71}, {"time": 4037, "pitch": 43, "duration": 38, "velocity": 86}, {"time": 4037, "pitch": 55, "duration": 5, "velocity": 85}, {"time": 4043, "pitch": 50, "duration": 21, "velocity": 85}, {"time": 4049, "pitch": 55, "duration": 3, "velocity": 86}, {"time": 4055, "pitch": 59, "duration": 2, "velocity": 85}, {"time": 4061, "pitch": 55, "duration": 12, "velocity": 84}, {"time": 4061, "pitch": 62, "duration": 20, "velocity": 85}, {"time": 4073, "pitch": 50, "duration": 4, "velocity": 85}, {"time": 4079, "pitch": 55, "duration": 4, "velocity": 85}, {"time": 4085, "pitch": 40, "duration": 37, "velocity": 88}, {"time": 4091, "pitch": 47, "duration": 31, "velocity": 80}, {"time": 4097, "pitch": 55, "duration": 7, "velocity": 88}, {"time": 4103, "pitch": 59, "duration": 2, "velocity": 85}, {"time": 4109, "pitch": 55, "duration": 3, "velocity": 86}, {"time": 4109, "pitch": 64, "duration": 3, "velocity": 86}, {"time": 4121, "pitch": 59, "duration": 6, "velocity": 88}, {"time": 4127, "pitch": 55, "duration": 2, "velocity": 84}, {"time": 4133, "pitch": 38, "duration": 35, "velocity": 89}, {"time": 4133, "pitch": 57, "duration": 4, "velocity": 79}, {"time": 4133, "pitch": 62, "duration": 5, "velocity": 83}, {"time": 4139, "pitch": 45, "duration": 14, "velocity": 73}, {"time": 4151, "pitch": 57, "duration": 7, "velocity": 86}, {"time": 4151, "pitch": 66, "duration": 7, "velocity": 86}, {"time": 4157, "pitch": 45, "duration": 11, "velocity": 81}, {"time": 4163, "pitch": 57, "duration": 3, "velocity": 84}, {"time": 4163, "pitch": 62, "duration": 5, "velocity": 87}, {"time": 4169, "pitch": 57, "duration": 3, "velocity": 86}, {"time": 4181, "pitch": 48, "duration": 45, "velocity": 87}, {"time": 4181, "pitch": 55, "duration": 3, "velocity": 82}, {"time": 4181, "pitch": 60, "duration": 6, "velocity": 81}, {"time": 4187, "pitch": 55, "duration": 7, "velocity": 84}, {"time": 4193, "pitch": 60, "duration": 2, "velocity": 86}, {"time": 4199, "pitch": 55, "duration": 5, "velocity": 85}, {"time": 4199, "pitch": 64, "duration": 8, "velocity": 88}, {"time": 4211, "pitch": 55, "duration": 9, "velocity": 78}, {"time": 4211, "pitch": 60, "duration": 10, "velocity": 86}, {"time": 4223, "pitch": 55, "duration": 2, "velocity": 83}, {"time": 4229, "pitch": 43, "duration": 35, "velocity": 85}, {"time": 4229, "pitch": 55, "duration": 5, "velocity": 82}, {"time": 4229, "pitch": 59, "duration": 6, "velocity": 84}, {"time": 4235, "pitch": 50, "duration": 28, "velocity": 75}, {"time": 4241, "pitch": 55, "duration": 2, "velocity": 85}, {"time": 4247, "pitch": 55, "duration": 5, "velocity": 87}, {"time": 4247, "pitch": 62, "duration": 5, "velocity": 84}, {"time": 4259, "pitch": 55, "duration": 3, "velocity": 85}, {"time": 4259, "pitch": 59, "duration": 5, "velocity": 88}, {"time": 4265, "pitch": 55, "duration": 3, "velocity": 85}, {"time": 4277, "pitch": 40, "duration": 36, "velocity": 86}, {"time": 4277, "pitch": 52, "duration": 5, "velocity": 83}, {"time": 4277, "pitch": 55, "duration": 7, "velocity": 81}, {"time": 4283, "pitch": 47, "duration": 29, "velocity": 76}, {"time": 4289, "pitch": 52, "duration": 7, "velocity": 86}, {"time": 4295, "pitch": 59, "duration": 7, "velocity": 85}, {"time": 4301, "pitch": 64, "duration": 7, "velocity": 86}, {"time": 4307, "pitch": 59, "duration": 7, "velocity": 85}, {"time": 4313, "pitch": 52, "duration": 7, "velocity": 93}, {"time": 4319, "pitch": 59, "duration": 3, "velocity": 82}, {"time": 4325, "pitch": 38, "duration": 46, "velocity": 86}, {"time": 4325, "pitch": 57, "duration": 7, "velocity": 78}, {"time": 4325, "pitch": 62, "duration": 7, "velocity": 76}, {"time": 4331, "pitch": 45, "duration": 27, "velocity": 84}, {"time": 4337, "pitch": 57, "duration": 3, "velocity": 85}, {"time": 4343, "pitch": 57, "duration": 7, "velocity": 77}, {"time": 4343, "pitch": 66, "duration": 8, "velocity": 86}, {"time": 4355, "pitch": 57, "duration": 6, "velocity": 84}, {"time": 4355, "pitch": 62, "duration": 7, "velocity": 85}, {"time": 4361, "pitch": 45, "duration": 11, "velocity": 86}, {"time": 4367, "pitch": 57, "duration": 5, "velocity": 86}, {"time": 4373, "pitch": 36, "duration": 40, "velocity": 85}, {"time": 4373, "pitch": 55, "duration": 7, "velocity": 85}, {"time": 4373, "pitch": 60, "duration": 8, "velocity": 85}, {"time": 4379, "pitch": 43, "duration": 34, "velocity": 71}, {"time": 4385, "pitch": 55, "duration": 3, "velocity": 85}, {"time": 4391, "pitch": 60, "duration": 2, "velocity": 90}, {"time": 4397, "pitch": 55, "duration": 9, "velocity": 88}, {"time": 4397, "pitch": 64, "duration": 7, "velocity": 93}, {"time": 4409, "pitch": 55, "duration": 7, "velocity": 86}, {"time": 4415, "pitch": 60, "duration": 4, "velocity": 71}, {"time": 4421, "pitch": 43, "duration": 38, "velocity": 86}, {"time": 4421, "pitch": 55, "duration": 5, "velocity": 85}, {"time": 4427, "pitch": 50, "duration": 21, "velocity": 85}, {"time": 4433, "pitch": 55, "duration": 3, "velocity": 86}, {"time": 4439, "pitch": 59, "duration": 2, "velocity": 85}, {"time": 4445, "pitch": 55, "duration": 12, "velocity": 84}, {"time": 4445, "pitch": 62, "duration": 20, "velocity": 85}, {"time": 4457, "pitch": 50, "duration": 4, "velocity": 85}, {"time": 4463, "pitch": 55, "duration": 4, "velocity": 85}, {"time": 4469, "pitch": 40, "duration": 37, "velocity": 88}, {"time": 4475, "pitch": 47, "duration": 31, "velocity": 80}, {"time": 4481, "pitch": 55, "duration": 7, "velocity": 88}, {"time": 4487, "pitch": 59, "duration": 2, "velocity": 85}, {"time": 4493, "pitch": 55, "duration": 3, "velocity": 86}, {"time": 4493, "pitch": 64, "duration": 3, "velocity": 86}, {"time": 4505, "pitch": 59, "duration": 6, "velocity": 88}, {"time": 4511, "pitch": 55, "duration": 2, "velocity": 84}, {"time": 4517, "pitch": 38, "duration": 35, "velocity": 89}, {"time": 4517, "pitch": 57, "duration": 4, "velocity": 79}, {"time": 4517, "pitch": 62, "duration": 5, "velocity": 83}, {"time": 4523, "pitch": 45, "duration": 14, "velocity": 73}, {"time": 4535, "pitch": 57, "duration": 7, "velocity": 86}, {"time": 4535, "pitch": 66, "duration": 7, "velocity": 86}, {"time": 4541, "pitch": 45, "duration": 11, "velocity": 81}, {"time": 4547, "pitch": 57, "duration": 3, "velocity": 84}, {"time": 4547, "pitch": 62, "duration": 5, "velocity": 87}, {"time": 4553, "pitch": 57, "duration": 3, "velocity": 86}, {"time": 4565, "pitch": 48, "duration": 45, "velocity": 87}, {"time": 4565, "pitch": 55, "duration": 3, "velocity": 82}, {"time": 4565, "pitch": 60, "duration": 6, "velocity": 81}, {"time": 4571, "pitch": 55, "duration": 7, "velocity": 84}, {"time": 4577, "pitch": 60, "duration": 2, "velocity": 86}, {"time": 4583, "pitch": 55, "duration": 5, "velocity": 85}, {"time": 4583, "pitch": 64, "duration": 8, "velocity": 88}, {"time": 4595, "pitch": 55, "duration": 9, "velocity": 78}, {"time": 4595, "pitch": 60, "duration": 10, "velocity": 86}, {"time": 4607, "pitch": 55, "duration": 2, "velocity": 83}, {"time": 4613, "pitch": 43, "duration": 35, "velocity": 85}, {"time": 4613, "pitch": 55, "duration": 5, "velocity": 82}, {"time": 4613, "pitch": 59, "duration": 6, "velocity": 84}, {"time": 4619, "pitch": 50, "duration": 28, "velocity": 75}, {"time": 4625, "pitch": 55, "duration": 2, "velocity": 85}, {"time": 4631, "pitch": 55, "duration": 5, "velocity": 87}, {"time": 4631, "pitch": 62, "duration": 5, "velocity": 84}, {"time": 4643, "pitch": 55, "duration": 3, "velocity": 85}, {"time": 4643, "pitch": 59, "duration": 5, "velocity": 88}, {"time": 4649, "pitch": 55, "duration": 3, "velocity": 85}, {"time": 4661, "pitch": 40, "duration": 36, "velocity": 86}, {"time": 4661, "pitch": 52, "duration": 5, "velocity": 83}, {"time": 4661, "pitch": 55, "duration": 7, "velocity": 81}, {"time": 4667, "pitch": 47, "duration": 29, "velocity": 76}, {"time": 4673, "pitch": 52, "duration": 7, "velocity": 86}, {"time": 4679, "pitch": 59, "duration": 7, "velocity": 85}, {"time": 4685, "pitch": 64, "duration": 7, "velocity": 86}, {"time": 4691, "pitch": 59, "duration": 7, "velocity": 85}, {"time": 4697, "pitch": 52, "duration": 7, "velocity": 93}, {"time": 4703, "pitch": 59, "duration": 3, "velocity": 82}, {"time": 4709, "pitch": 38, "duration": 46, "velocity": 86}, {"time": 4709, "pitch": 57, "duration": 7, "velocity": 78}, {"time": 4709, "pitch": 62, "duration": 7, "velocity": 76}, {"time": 4715, "pitch": 45, "duration": 27, "velocity": 84}, {"time": 4721, "pitch": 57, "duration": 3, "velocity": 85}, {"time": 4727, "pitch": 57, "duration": 7, "velocity": 77}, {"time": 4727, "pitch": 66, "duration": 8, "velocity": 86}, {"time": 4739, "pitch": 57, "duration": 6, "velocity": 84}, {"time": 4739, "pitch": 62, "duration": 7, "velocity": 85}, {"time": 4745, "pitch": 45, "duration": 11, "velocity": 86}, {"time": 4751, "pitch": 57, "duration": 5, "velocity": 86}, {"time": 4757, "pitch": 52, "duration": 46, "velocity": 79}, {"time": 4763, "pitch": 59, "duration": 23, "velocity": 71}, {"time": 4769, "pitch": 64, "duration": 24, "velocity": 74}, {"time": 4787, "pitch": 59, "duration": 7, "velocity": 74}, {"time": 4793, "pitch": 67, "duration": 14, "velocity": 72}, {"time": 4799, "pitch": 59, "duration": 6, "velocity": 76}, {"time": 4805, "pitch": 50, "duration": 46, "velocity": 74}, {"time": 4811, "pitch": 57, "duration": 18, "velocity": 68}, {"time": 4817, "pitch": 62, "duration": 26, "velocity": 77}, {"time": 4835, "pitch": 57, "duration": 6, "velocity": 71}, {"time": 4841, "pitch": 66, "duration": 12, "velocity": 66}, {"time": 4847, "pitch": 57, "duration": 6, "velocity": 77}, {"time": 4853, "pitch": 48, "duration": 44, "velocity": 74}, {"time": 4859, "pitch": 55, "duration": 20, "velocity": 75}, {"time": 4865, "pitch": 60, "duration": 24, "velocity": 73}, {"time": 4883, "pitch": 55, "duration": 7, "velocity": 75}, {"time": 4889, "pitch": 64, "duration": 13, "velocity": 75}, {"time": 4895, "pitch": 55, "duration": 5, "velocity": 78}, {"time": 4901, "pitch": 47, "duration": 47, "velocity": 78}, {"time": 4907, "pitch": 59, "duration": 8, "velocity": 72}, {"time": 4913, "pitch": 64, "duration": 12, "velocity": 78}, {"time": 4919, "pitch": 59, "duration": 8, "velocity": 75}, {"time": 4925, "pitch": 66, "duration": 18, "velocity": 72}, {"time": 4931, "pitch": 59, "duration": 8, "velocity": 76}, {"time": 4937, "pitch": 63, "duration": 10, "velocity": 74}, {"time": 4943, "pitch": 59, "duration": 5, "velocity": 77}, {"time": 4949, "pitch": 52, "duration": 46, "velocity": 79}, {"time": 4955, "pitch": 59, "duration": 23, "velocity": 71}, {"time": 4961, "pitch": 64, "duration": 24, "velocity": 74}, {"time": 4979, "pitch": 59, "duration": 7, "velocity": 74}, {"time": 4985, "pitch": 67, "duration": 14, "velocity": 72}, {"time": 4991, "pitch": 59, "duration": 6, "velocity": 76}, {"time": 4997, "pitch": 50, "duration": 46, "velocity": 74}, {"time": 5003, "pitch": 57, "duration": 18, "velocity": 68}, {"time": 5009, "pitch": 62, "duration": 26, "velocity": 77}, {"time": 5027, "pitch": 57, "duration": 6, "velocity": 71}, {"time": 5033, "pitch": 66, "duration": 12, "velocity": 66}, {"time": 5039, "pitch": 57, "duration": 6, "velocity": 77}, {"time": 5045, "pitch": 48, "duration": 44, "velocity": 74}, {"time": 5051, "pitch": 55, "duration": 20, "velocity": 75}, {"time": 5057, "pitch": 60, "duration": 24, "velocity": 73}, {"time": 5075, "pitch": 55, "duration": 7, "velocity": 75}, {"time": 5081, "pitch": 64, "duration": 13, "velocity": 75}, {"time": 5087, "pitch": 55, "duration": 5, "velocity": 78}, {"time": 5093, "pitch": 47, "duration": 47, "velocity": 78}, {"time": 5099, "pitch": 59, "duration": 8, "velocity": 72}, {"time": 5105, "pitch": 64, "duration": 12, "velocity": 78}, {"time": 5111, "pitch": 59, "duration": 8, "velocity": 75}, {"time": 5117, "pitch": 66, "duration": 18, "velocity": 72}, {"time": 5123, "pitch": 59, "duration": 8, "velocity": 76}, {"time": 5129, "pitch": 63, "duration": 10, "velocity": 74}, {"time": 5135, "pitch": 59, "duration": 5, "velocity": 77}, {"time": 5140, "pitch": 47, "duration": 54, "velocity": 73}, {"time": 5147, "pitch": 54, "duration": 43, "velocity": 61}, {"time": 5154, "pitch": 59, "duration": 41, "velocity": 79}, {"time": 5161, "pitch": 63, "duration": 33, "velocity": 70}, {"time": 5169, "pitch": 71, "duration": 24, "velocity": 61}, {"time": 5222, "pitch": 40, "duration": 79, "velocity": 74}, {"time": 5230, "pitch": 47, "duration": 66, "velocity": 60}, {"time": 5235, "pitch": 52, "duration": 13, "velocity": 68}, {"time": 5239, "pitch": 59, "duration": 10, "velocity": 66}, {"time": 5245, "pitch": 64, "duration": 7, "velocity": 64}, {"time": 5267, "pitch": 67, "duration": 40, "velocity": 59}, {"time": 5271, "pitch": 76, "duration": 38, "velocity": 54}, {"time": 5272, "pitch": 71, "duration": 37, "velocity": 48}, {"time": 5274, "pitch": 64, "duration": 7, "velocity": 37}], "annotations": [{"time": 6, "annotation": {"number": 64, "value": 127}, "group": "control_change"}, {"time": 7, "annotation": {"number": 64, "value": 0}, "group": "control_change"}, {"time": 7, "annotation": {"number": 64, "value": 127}, "group": "control_change"}, {"time": 50, "annotation": {"number": 64, "value": 0}, "group": "control_change"}, {"time": 54, "annotation": {"number": 64, "value": 127}, "group": "control_change"}, {"time": 101, "annotation": {"number": 64, "value": 0}, "group": "control_change"}, {"time": 105, "annotation": {"number": 64, "value": 127}, "group": "control_change"}, {"time": 144, "annotation": {"number": 64, "value": 0}, "group": "control_change"}, {"time": 148, "annotation": {"number": 64, "value": 127}, "group": "control_change"}, {"time": 191, "annotation": {"number": 64, "value": 0}, "group": "control_change"}, {"time": 196, "annotation": {"number": 64, "value": 127}, "group": "control_change"}, {"time": 244, "annotation": {"number": 64, "value": 0}, "group": "control_change"}, {"time": 247, "annotation": {"number": 64, "value": 127}, "group": "control_change"}, {"time": 337, "annotation": {"number": 64, "value": 0}, "group": "control_change"}, {"time": 340, "annotation": {"number": 64, "value": 127}, "group": "control_change"}, {"time": 387, "annotation": {"number": 64, "value": 0}, "group": "control_change"}, {"time": 390, "annotation": {"number": 64, "value": 127}, "group": "control_change"}, {"time": 436, "annotation": {"number": 64, "value": 0}, "group": "control_change"}, {"time": 440, "annotation": {"number": 64, "value": 127}, "group": "control_change"}, {"time": 485, "annotation": {"number": 64, "value": 0}, "group": "control_change"}, {"time": 488, "annotation": {"number": 64, "value": 127}, "group": "control_change"}, {"time": 530, "annotation": {"number": 64, "value": 0}, "group": "control_change"}, {"time": 534, "annotation": {"number": 64, "value": 127}, "group": "control_change"}, {"time": 579, "annotation": {"number": 64, "value": 0}, "group": "control_change"}, {"time": 582, "annotation": {"number": 64, "value": 127}, "group": "control_change"}, {"time": 628, "annotation": {"number": 64, "value": 0}, "group": "control_change"}, {"time": 632, "annotation": {"number": 64, "value": 127}, "group": "control_change"}, {"time": 677, "annotation": {"number": 64, "value": 0}, "group": "control_change"}, {"time": 680, "annotation": {"number": 64, "value": 127}, "group": "control_change"}, {"time": 722, "annotation": {"number": 64, "value": 0}, "group": "control_change"}, {"time": 726, "annotation": {"number": 64, "value": 127}, "group": "control_change"}, {"time": 771, "annotation": {"number": 64, "value": 0}, "group": "control_change"}, {"time": 774, "annotation": {"number": 64, "value": 127}, "group": "control_change"}, {"time": 820, "annotation": {"number": 64, "value": 0}, "group": "control_change"}, {"time": 824, "annotation": {"number": 64, "value": 127}, "group": "control_change"}, {"time": 869, "annotation": {"number": 64, "value": 0}, "group": "control_change"}, {"time": 872, "annotation": {"number": 64, "value": 127}, "group": "control_change"}, {"time": 914, "annotation": {"number": 64, "value": 0}, "group": "control_change"}, {"time": 918, "annotation": {"number": 64, "value": 127}, "group": "control_change"}, {"time": 963, "annotation": {"number": 64, "value": 0}, "group": "control_change"}, {"time": 966, "annotation": {"number": 64, "value": 127}, "group": "control_change"}, {"time": 1012, "annotation": {"number": 64, "value": 0}, "group": "control_change"}, {"time": 1016, "annotation": {"number": 64, "value": 127}, "group": "control_change"}, {"time": 1061, "annotation": {"number": 64, "value": 0}, "group": "control_change"}, {"time": 1064, "annotation": {"number": 64, "value": 127}, "group": "control_change"}, {"time": 1106, "annotation": {"number": 64, "value": 0}, "group": "control_change"}, {"time": 1110, "annotation": {"number": 64, "value": 127}, "group": "control_change"}, {"time": 1155, "annotation": {"number": 64, "value": 0}, "group": "control_change"}, {"time": 1155, "annotation": {"number": 64, "value": 127}, "group": "control_change"}, {"time": 1247, "annotation": {"number": 64, "value": 0}, "group": "control_change"}, {"time": 1300, "annotation": {"number": 64, "value": 0}, "group": "control_change"}, {"time": 1303, "annotation": {"number": 64, "value": 127}, "group": "control_change"}, {"time": 1347, "annotation": {"number": 64, "value": 0}, "group": "control_change"}, {"time": 1351, "annotation": {"number": 64, "value": 127}, "group": "control_change"}, {"time": 1394, "annotation": {"number": 64, "value": 0}, "group": "control_change"}, {"time": 1397, "annotation": {"number": 64, "value": 127}, "group": "control_change"}, {"time": 1443, "annotation": {"number": 64, "value": 0}, "group": "control_change"}, {"time": 1492, "annotation": {"number": 64, "value": 0}, "group": "control_change"}, {"time": 1495, "annotation": {"number": 64, "value": 127}, "group": "control_change"}, {"time": 1539, "annotation": {"number": 64, "value": 0}, "group": "control_change"}, {"time": 1543, "annotation": {"number": 64, "value": 127}, "group": "control_change"}, {"time": 1586, "annotation": {"number": 64, "value": 0}, "group": "control_change"}, {"time": 1589, "annotation": {"number": 64, "value": 127}, "group": "control_change"}, {"time": 1635, "annotation": {"number": 64, "value": 0}, "group": "control_change"}, {"time": 1684, "annotation": {"number": 64, "value": 0}, "group": "control_change"}, {"time": 1687, "annotation": {"number": 64, "value": 127}, "group": "control_change"}, {"time": 1731, "annotation": {"number": 64, "value": 0}, "group": "control_change"}, {"time": 1735, "annotation": {"number": 64, "value": 127}, "group": "control_change"}, {"time": 1778, "annotation": {"number": 64, "value": 0}, "group": "control_change"}, {"time": 1781, "annotation": {"number": 64, "value": 127}, "group": "control_change"}, {"time": 1827, "annotation": {"number": 64, "value": 0}, "group": "control_change"}, {"time": 1876, "annotation": {"number": 64, "value": 0}, "group": "control_change"}, {"time": 1879, "annotation": {"number": 64, "value": 127}, "group": "control_change"}, {"time": 1923, "annotation": {"number": 64, "value": 0}, "group": "control_change"}, {"time": 1927, "annotation": {"number": 64, "value": 127}, "group": "control_change"}, {"time": 1970, "annotation": {"number": 64, "value": 0}, "group": "control_change"}, {"time": 1973, "annotation": {"number": 64, "value": 127}, "group": "control_change"}, {"time": 2019, "annotation": {"number": 64, "value": 0}, "group": "control_change"}, {"time": 2405, "annotation": {"number": 64, "value": 127}, "group": "control_change"}, {"time": 2450, "annotation": {"number": 64, "value": 0}, "group": "control_change"}, {"time": 2455, "annotation": {"number": 64, "value": 127}, "group": "control_change"}, {"time": 2497, "annotation": {"number": 64, "value": 0}, "group": "control_change"}, {"time": 2502, "annotation": {"number": 64, "value": 127}, "group": "control_change"}, {"time": 2544, "annotation": {"number": 64, "value": 0}, "group": "control_change"}, {"time": 2552, "annotation": {"number": 64, "value": 127}, "group": "control_change"}, {"time": 2552, "annotation": {"number": 64, "value": 0}, "group": "control_change"}, {"time": 2594, "annotation": {"number": 64, "value": 0}, "group": "control_change"}, {"time": 2599, "annotation": {"number": 64, "value": 127}, "group": "control_change"}, {"time": 2640, "annotation": {"number": 64, "value": 0}, "group": "control_change"}, {"time": 2646, "annotation": {"number": 64, "value": 127}, "group": "control_change"}, {"time": 2687, "annotation": {"number": 64, "value": 0}, "group": "control_change"}, {"time": 2693, "annotation": {"number": 64, "value": 127}, "group": "control_change"}, {"time": 2735, "annotation": {"number": 64, "value": 0}, "group": "control_change"}, {"time": 2744, "annotation": {"number": 64, "value": 127}, "group": "control_change"}, {"time": 2766, "annotation": {"number": 64, "value": 0}, "group": "control_change"}, {"time": 2771, "annotation": {"number": 64, "value": 127}, "group": "control_change"}, {"time": 2780, "annotation": {"number": 64, "value": 0}, "group": "control_change"}, {"time": 2789, "annotation": {"number": 64, "value": 127}, "group": "control_change"}, {"time": 2834, "annotation": {"number": 64, "value": 0}, "group": "control_change"}, {"time": 2839, "annotation": {"number": 64, "value": 127}, "group": "control_change"}, {"time": 2881, "annotation": {"number": 64, "value": 0}, "group": "control_change"}, {"time": 2886, "annotation": {"number": 64, "value": 127}, "group": "control_change"}, {"time": 2928, "annotation": {"number": 64, "value": 0}, "group": "control_change"}, {"time": 2936, "annotation": {"number": 64, "value": 127}, "group": "control_change"}, {"time": 2936, "annotation": {"number": 64, "value": 0}, "group": "control_change"}, {"time": 2978, "annotation": {"number": 64, "value": 0}, "group": "control_change"}, {"time": 2983, "annotation": {"number": 64, "value": 127}, "group": "control_change"}, {"time": 3024, "annotation": {"number": 64, "value": 0}, "group": "control_change"}, {"time": 3030, "annotation": {"number": 64, "value": 127}, "group": "control_change"}, {"time": 3071, "annotation": {"number": 64, "value": 0}, "group": "control_change"}, {"time": 3077, "annotation": {"number": 64, "value": 127}, "group": "control_change"}, {"time": 3119, "annotation": {"number": 64, "value": 0}, "group": "control_change"}, {"time": 3126, "annotation": {"number": 64, "value": 127}, "group": "control_change"}, {"time": 3128, "annotation": {"number": 64, "value": 127}, "group": "control_change"}, {"time": 3150, "annotation": {"number": 64, "value": 0}, "group": "control_change"}, {"time": 3155, "annotation": {"number": 64, "value": 127}, "group": "control_change"}, {"time": 3164, "annotation": {"number": 64, "value": 0}, "group": "control_change"}, {"time": 3167, "annotation": {"number": 64, "value": 0}, "group": "control_change"}, {"time": 3172, "annotation": {"number": 64, "value": 127}, "group": "control_change"}, {"time": 3217, "annotation": {"number": 64, "value": 0}, "group": "control_change"}, {"time": 3264, "annotation": {"number": 64, "value": 0}, "group": "control_change"}, {"time": 3268, "annotation": {"number": 64, "value": 127}, "group": "control_change"}, {"time": 3314, "annotation": {"number": 64, "value": 0}, "group": "control_change"}, {"time": 3319, "annotation": {"number": 64, "value": 127}, "group": "control_change"}, {"time": 3361, "annotation": {"number": 64, "value": 0}, "group": "control_change"}, {"time": 3365, "annotation": {"number": 64, "value": 127}, "group": "control_change"}, {"time": 3408, "annotation": {"number": 64, "value": 0}, "group": "control_change"}, {"time": 3412, "annotation": {"number": 64, "value": 127}, "group": "control_change"}, {"time": 3459, "annotation": {"number": 64, "value": 0}, "group": "control_change"}, {"time": 3463, "annotation": {"number": 64, "value": 127}, "group": "control_change"}, {"time": 3506, "annotation": {"number": 64, "value": 0}, "group": "control_change"}, {"time": 3512, "annotation": {"number": 64, "value": 127}, "group": "control_change"}, {"time": 3553, "annotation": {"number": 64, "value": 0}, "group": "control_change"}, {"time": 3557, "annotation": {"number": 64, "value": 127}, "group": "control_change"}, {"time": 3600, "annotation": {"number": 64, "value": 0}, "group": "control_change"}, {"time": 3648, "annotation": {"number": 64, "value": 0}, "group": "control_change"}, {"time": 3652, "annotation": {"number": 64, "value": 127}, "group": "control_change"}, {"time": 3698, "annotation": {"number": 64, "value": 0}, "group": "control_change"}, {"time": 3703, "annotation": {"number": 64, "value": 127}, "group": "control_change"}, {"time": 3745, "annotation": {"number": 64, "value": 0}, "group": "control_change"}, {"time": 3749, "annotation": {"number": 64, "value": 127}, "group": "control_change"}, {"time": 3792, "annotation": {"number": 64, "value": 0}, "group": "control_change"}, {"time": 3796, "annotation": {"number": 64, "value": 127}, "group": "control_change"}, {"time": 3843, "annotation": {"number": 64, "value": 0}, "group": "control_change"}, {"time": 3847, "annotation": {"number": 64, "value": 127}, "group": "control_change"}, {"time": 3890, "annotation": {"number": 64, "value": 0}, "group": "control_change"}, {"time": 3896, "annotation": {"number": 64, "value": 127}, "group": "control_change"}, {"time": 3937, "annotation": {"number": 64, "value": 0}, "group": "control_change"}, {"time": 3941, "annotation": {"number": 64, "value": 127}, "group": "control_change"}, {"time": 3984, "annotation": {"number": 64, "value": 0}, "group": "control_change"}, {"time": 4032, "annotation": {"number": 64, "value": 0}, "group": "control_change"}, {"time": 4036, "annotation": {"number": 64, "value": 127}, "group": "control_change"}, {"time": 4082, "annotation": {"number": 64, "value": 0}, "group": "control_change"}, {"time": 4087, "annotation": {"number": 64, "value": 127}, "group": "control_change"}, {"time": 4129, "annotation": {"number": 64, "value": 0}, "group": "control_change"}, {"time": 4133, "annotation": {"number": 64, "value": 127}, "group": "control_change"}, {"time": 4176, "annotation": {"number": 64, "value": 0}, "group": "control_change"}, {"time": 4180, "annotation": {"number": 64, "value": 127}, "group": "control_change"}, {"time": 4227, "annotation": {"number": 64, "value": 0}, "group": "control_change"}, {"time": 4231, "annotation": {"number": 64, "value": 127}, "group": "control_change"}, {"time": 4274, "annotation": {"number": 64, "value": 0}, "group": "control_change"}, {"time": 4280, "annotation": {"number": 64, "value": 127}, "group": "control_change"}, {"time": 4321, "annotation": {"number": 64, "value": 0}, "group": "control_change"}, {"time": 4325, "annotation": {"number": 64, "value": 127}, "group": "control_change"}, {"time": 4368, "annotation": {"number": 64, "value": 0}, "group": "control_change"}, {"time": 4416, "annotation": {"number": 64, "value": 0}, "group": "control_change"}, {"time": 4420, "annotation": {"number": 64, "value": 127}, "group": "control_change"}, {"time": 4466, "annotation": {"number": 64, "value": 0}, "group": "control_change"}, {"time": 4471, "annotation": {"number": 64, "value": 127}, "group": "control_change"}, {"time": 4513, "annotation": {"number": 64, "value": 0}, "group": "control_change"}, {"time": 4517, "annotation": {"number": 64, "value": 127}, "group": "control_change"}, {"time": 4560, "annotation": {"number": 64, "value": 0}, "group": "control_change"}, {"time": 4564, "annotation": {"number": 64, "value": 127}, "group": "control_change"}, {"time": 4611, "annotation": {"number": 64, "value": 0}, "group": "control_change"}, {"time": 4615, "annotation": {"number": 64, "value": 127}, "group": "control_change"}, {"time": 4658, "annotation": {"number": 64, "value": 0}, "group": "control_change"}, {"time": 4664, "annotation": {"number": 64, "value": 127}, "group": "control_change"}, {"time": 4705, "annotation": {"number": 64, "value": 0}, "group": "control_change"}, {"time": 4709, "annotation": {"number": 64, "value": 127}, "group": "control_change"}, {"time": 4752, "annotation": {"number": 64, "value": 0}, "group": "control_change"}, {"time": 5141, "annotation": {"number": 64, "value": 127}, "group": "control_change"}, {"time": 5141, "annotation": {"number": 64, "value": 0}, "group": "control_change"}, {"time": 5224, "annotation": {"number": 64, "value": 0}, "group": "control_change"}, {"time": 5231, "annotation": {"number": 64, "value": 127}, "group": "control_change"}, {"time": 5346, "annotation": {"number": 64, "value": 0}, "group": "control_change"}]}]}