{"metadata": {"schema_version": "0.2", "title": "None", "source_filename": "828.mid", "source_format": "midi"}, "resolution": 12, "tempos": [{"time": 0, "qpm": 59.00006686674245}], "time_signatures": [{"time": 0, "numerator": 1, "denominator": 4}], "tracks": [{"program": 0, "is_drum": false, "name": "MELODY", "notes": [{"time": 387, "pitch": 69, "duration": 7, "velocity": 83}, {"time": 396, "pitch": 76, "duration": 2, "velocity": 80}, {"time": 399, "pitch": 76, "duration": 2, "velocity": 80}, {"time": 402, "pitch": 74, "duration": 3, "velocity": 80}, {"time": 405, "pitch": 72, "duration": 5, "velocity": 80}, {"time": 411, "pitch": 74, "duration": 16, "velocity": 84}, {"time": 435, "pitch": 71, "duration": 8, "velocity": 79}, {"time": 444, "pitch": 71, "duration": 2, "velocity": 79}, {"time": 447, "pitch": 71, "duration": 6, "velocity": 79}, {"time": 453, "pitch": 67, "duration": 5, "velocity": 76}, {"time": 459, "pitch": 69, "duration": 15, "velocity": 81}, {"time": 482, "pitch": 72, "duration": 4, "velocity": 79}, {"time": 487, "pitch": 72, "duration": 4, "velocity": 79}, {"time": 492, "pitch": 72, "duration": 2, "velocity": 80}, {"time": 495, "pitch": 72, "duration": 5, "velocity": 81}, {"time": 500, "pitch": 69, "duration": 5, "velocity": 74}, {"time": 506, "pitch": 74, "duration": 3, "velocity": 82}, {"time": 510, "pitch": 74, "duration": 4, "velocity": 83}, {"time": 516, "pitch": 72, "duration": 2, "velocity": 81}, {"time": 519, "pitch": 74, "duration": 9, "velocity": 83}, {"time": 531, "pitch": 79, "duration": 1, "velocity": 80}, {"time": 534, "pitch": 79, "duration": 1, "velocity": 79}, {"time": 537, "pitch": 79, "duration": 1, "velocity": 79}, {"time": 540, "pitch": 79, "duration": 1, "velocity": 79}, {"time": 543, "pitch": 79, "duration": 5, "velocity": 81}, {"time": 549, "pitch": 76, "duration": 2, "velocity": 74}, {"time": 552, "pitch": 74, "duration": 3, "velocity": 83}, {"time": 555, "pitch": 76, "duration": 20, "velocity": 81}, {"time": 579, "pitch": 76, "duration": 1, "velocity": 77}, {"time": 582, "pitch": 76, "duration": 1, "velocity": 79}, {"time": 585, "pitch": 76, "duration": 1, "velocity": 79}, {"time": 588, "pitch": 76, "duration": 2, "velocity": 76}, {"time": 591, "pitch": 76, "duration": 5, "velocity": 80}, {"time": 597, "pitch": 74, "duration": 2, "velocity": 83}, {"time": 600, "pitch": 72, "duration": 2, "velocity": 79}, {"time": 603, "pitch": 74, "duration": 3, "velocity": 86}, {"time": 606, "pitch": 76, "duration": 3, "velocity": 77}, {"time": 609, "pitch": 74, "duration": 12, "velocity": 80}, {"time": 621, "pitch": 72, "duration": 2, "velocity": 80}, {"time": 624, "pitch": 72, "duration": 1, "velocity": 79}, {"time": 627, "pitch": 74, "duration": 7, "velocity": 85}, {"time": 636, "pitch": 76, "duration": 2, "velocity": 81}, {"time": 639, "pitch": 74, "duration": 1, "velocity": 84}, {"time": 642, "pitch": 74, "duration": 4, "velocity": 81}, {"time": 648, "pitch": 67, "duration": 2, "velocity": 73}, {"time": 651, "pitch": 69, "duration": 3, "velocity": 80}, {"time": 654, "pitch": 72, "duration": 3, "velocity": 76}, {"time": 657, "pitch": 69, "duration": 14, "velocity": 79}, {"time": 672, "pitch": 69, "duration": 2, "velocity": 75}, {"time": 675, "pitch": 72, "duration": 7, "velocity": 79}, {"time": 684, "pitch": 72, "duration": 2, "velocity": 77}, {"time": 687, "pitch": 72, "duration": 6, "velocity": 81}, {"time": 693, "pitch": 69, "duration": 2, "velocity": 78}, {"time": 696, "pitch": 72, "duration": 3, "velocity": 79}, {"time": 699, "pitch": 74, "duration": 7, "velocity": 81}, {"time": 708, "pitch": 74, "duration": 3, "velocity": 83}, {"time": 711, "pitch": 72, "duration": 5, "velocity": 82}, {"time": 717, "pitch": 74, "duration": 2, "velocity": 81}, {"time": 720, "pitch": 76, "duration": 24, "velocity": 80}, {"time": 747, "pitch": 74, "duration": 2, "velocity": 79}, {"time": 750, "pitch": 74, "duration": 5, "velocity": 80}, {"time": 756, "pitch": 74, "duration": 1, "velocity": 83}, {"time": 759, "pitch": 74, "duration": 4, "velocity": 84}, {"time": 765, "pitch": 72, "duration": 4, "velocity": 82}, {"time": 771, "pitch": 74, "duration": 5, "velocity": 85}, {"time": 777, "pitch": 76, "duration": 2, "velocity": 80}, {"time": 780, "pitch": 74, "duration": 8, "velocity": 81}, {"time": 792, "pitch": 69, "duration": 2, "velocity": 77}, {"time": 795, "pitch": 71, "duration": 4, "velocity": 83}, {"time": 801, "pitch": 71, "duration": 4, "velocity": 83}, {"time": 807, "pitch": 71, "duration": 6, "velocity": 79}, {"time": 813, "pitch": 67, "duration": 5, "velocity": 78}, {"time": 819, "pitch": 69, "duration": 24, "velocity": 78}, {"time": 867, "pitch": 76, "duration": 2, "velocity": 83}, {"time": 870, "pitch": 76, "duration": 5, "velocity": 82}, {"time": 876, "pitch": 84, "duration": 2, "velocity": 79}, {"time": 879, "pitch": 83, "duration": 6, "velocity": 81}, {"time": 885, "pitch": 81, "duration": 2, "velocity": 80}, {"time": 888, "pitch": 79, "duration": 2, "velocity": 77}, {"time": 891, "pitch": 81, "duration": 16, "velocity": 82}, {"time": 909, "pitch": 83, "duration": 2, "velocity": 83}, {"time": 912, "pitch": 84, "duration": 2, "velocity": 84}, {"time": 915, "pitch": 83, "duration": 7, "velocity": 88}, {"time": 924, "pitch": 81, "duration": 2, "velocity": 80}, {"time": 927, "pitch": 79, "duration": 4, "velocity": 83}, {"time": 933, "pitch": 81, "duration": 3, "velocity": 79}, {"time": 936, "pitch": 79, "duration": 3, "velocity": 80}, {"time": 939, "pitch": 76, "duration": 18, "velocity": 83}, {"time": 963, "pitch": 81, "duration": 2, "velocity": 81}, {"time": 966, "pitch": 81, "duration": 4, "velocity": 80}, {"time": 972, "pitch": 81, "duration": 1, "velocity": 79}, {"time": 975, "pitch": 81, "duration": 4, "velocity": 81}, {"time": 981, "pitch": 76, "duration": 4, "velocity": 83}, {"time": 987, "pitch": 72, "duration": 2, "velocity": 83}, {"time": 990, "pitch": 74, "duration": 5, "velocity": 84}, {"time": 996, "pitch": 76, "duration": 2, "velocity": 77}, {"time": 999, "pitch": 74, "duration": 8, "velocity": 86}, {"time": 1011, "pitch": 79, "duration": 7, "velocity": 83}, {"time": 1020, "pitch": 79, "duration": 2, "velocity": 83}, {"time": 1023, "pitch": 74, "duration": 4, "velocity": 86}, {"time": 1029, "pitch": 79, "duration": 4, "velocity": 84}, {"time": 1035, "pitch": 76, "duration": 2, "velocity": 81}, {"time": 1038, "pitch": 74, "duration": 2, "velocity": 81}, {"time": 1041, "pitch": 76, "duration": 15, "velocity": 83}, {"time": 1059, "pitch": 76, "duration": 2, "velocity": 83}, {"time": 1062, "pitch": 76, "duration": 5, "velocity": 82}, {"time": 1068, "pitch": 84, "duration": 2, "velocity": 79}, {"time": 1071, "pitch": 83, "duration": 6, "velocity": 81}, {"time": 1077, "pitch": 81, "duration": 2, "velocity": 80}, {"time": 1080, "pitch": 79, "duration": 2, "velocity": 77}, {"time": 1083, "pitch": 81, "duration": 16, "velocity": 82}, {"time": 1101, "pitch": 83, "duration": 2, "velocity": 83}, {"time": 1104, "pitch": 84, "duration": 2, "velocity": 84}, {"time": 1107, "pitch": 83, "duration": 6, "velocity": 88}, {"time": 1113, "pitch": 83, "duration": 3, "velocity": 80}, {"time": 1116, "pitch": 81, "duration": 2, "velocity": 80}, {"time": 1119, "pitch": 79, "duration": 4, "velocity": 83}, {"time": 1125, "pitch": 81, "duration": 3, "velocity": 79}, {"time": 1128, "pitch": 79, "duration": 3, "velocity": 80}, {"time": 1131, "pitch": 76, "duration": 18, "velocity": 83}, {"time": 1155, "pitch": 81, "duration": 2, "velocity": 81}, {"time": 1158, "pitch": 81, "duration": 4, "velocity": 80}, {"time": 1164, "pitch": 81, "duration": 1, "velocity": 79}, {"time": 1167, "pitch": 81, "duration": 4, "velocity": 81}, {"time": 1173, "pitch": 76, "duration": 4, "velocity": 83}, {"time": 1179, "pitch": 72, "duration": 2, "velocity": 83}, {"time": 1182, "pitch": 74, "duration": 5, "velocity": 84}, {"time": 1188, "pitch": 76, "duration": 2, "velocity": 77}, {"time": 1191, "pitch": 74, "duration": 6, "velocity": 86}, {"time": 1197, "pitch": 72, "duration": 3, "velocity": 80}, {"time": 1200, "pitch": 74, "duration": 3, "velocity": 80}, {"time": 1203, "pitch": 79, "duration": 7, "velocity": 83}, {"time": 1212, "pitch": 79, "duration": 2, "velocity": 83}, {"time": 1215, "pitch": 74, "duration": 4, "velocity": 86}, {"time": 1221, "pitch": 79, "duration": 4, "velocity": 84}, {"time": 1227, "pitch": 76, "duration": 2, "velocity": 81}, {"time": 1230, "pitch": 74, "duration": 2, "velocity": 81}, {"time": 1233, "pitch": 76, "duration": 15, "velocity": 83}, {"time": 1251, "pitch": 74, "duration": 7, "velocity": 86}, {"time": 1260, "pitch": 74, "duration": 2, "velocity": 83}, {"time": 1263, "pitch": 74, "duration": 8, "velocity": 83}, {"time": 1272, "pitch": 72, "duration": 2, "velocity": 79}, {"time": 1275, "pitch": 74, "duration": 4, "velocity": 86}, {"time": 1281, "pitch": 76, "duration": 2, "velocity": 81}, {"time": 1284, "pitch": 74, "duration": 8, "velocity": 83}, {"time": 1293, "pitch": 72, "duration": 2, "velocity": 80}, {"time": 1296, "pitch": 74, "duration": 2, "velocity": 83}, {"time": 1299, "pitch": 76, "duration": 7, "velocity": 81}, {"time": 1311, "pitch": 74, "duration": 8, "velocity": 82}, {"time": 1320, "pitch": 67, "duration": 2, "velocity": 75}, {"time": 1323, "pitch": 69, "duration": 21, "velocity": 80}, {"time": 1347, "pitch": 83, "duration": 1, "velocity": 81}, {"time": 1350, "pitch": 83, "duration": 1, "velocity": 80}, {"time": 1353, "pitch": 83, "duration": 1, "velocity": 80}, {"time": 1356, "pitch": 83, "duration": 2, "velocity": 79}, {"time": 1359, "pitch": 79, "duration": 5, "velocity": 83}, {"time": 1365, "pitch": 81, "duration": 2, "velocity": 82}, {"time": 1368, "pitch": 83, "duration": 2, "velocity": 80}, {"time": 1371, "pitch": 81, "duration": 23, "velocity": 81}, {"time": 1755, "pitch": 76, "duration": 1, "velocity": 77}, {"time": 1758, "pitch": 76, "duration": 1, "velocity": 79}, {"time": 1761, "pitch": 76, "duration": 1, "velocity": 79}, {"time": 1764, "pitch": 76, "duration": 2, "velocity": 76}, {"time": 1767, "pitch": 76, "duration": 5, "velocity": 80}, {"time": 1773, "pitch": 74, "duration": 2, "velocity": 83}, {"time": 1776, "pitch": 72, "duration": 2, "velocity": 79}, {"time": 1779, "pitch": 74, "duration": 3, "velocity": 86}, {"time": 1782, "pitch": 76, "duration": 3, "velocity": 77}, {"time": 1785, "pitch": 74, "duration": 12, "velocity": 80}, {"time": 1797, "pitch": 72, "duration": 2, "velocity": 80}, {"time": 1800, "pitch": 72, "duration": 1, "velocity": 79}, {"time": 1803, "pitch": 74, "duration": 7, "velocity": 85}, {"time": 1812, "pitch": 76, "duration": 2, "velocity": 81}, {"time": 1815, "pitch": 74, "duration": 1, "velocity": 84}, {"time": 1818, "pitch": 74, "duration": 4, "velocity": 81}, {"time": 1824, "pitch": 67, "duration": 2, "velocity": 73}, {"time": 1827, "pitch": 69, "duration": 3, "velocity": 80}, {"time": 1830, "pitch": 72, "duration": 3, "velocity": 76}, {"time": 1833, "pitch": 69, "duration": 14, "velocity": 79}, {"time": 1848, "pitch": 69, "duration": 2, "velocity": 75}, {"time": 1851, "pitch": 72, "duration": 7, "velocity": 79}, {"time": 1860, "pitch": 72, "duration": 2, "velocity": 77}, {"time": 1863, "pitch": 72, "duration": 6, "velocity": 81}, {"time": 1869, "pitch": 69, "duration": 2, "velocity": 78}, {"time": 1872, "pitch": 72, "duration": 3, "velocity": 79}, {"time": 1875, "pitch": 74, "duration": 7, "velocity": 81}, {"time": 1884, "pitch": 74, "duration": 3, "velocity": 83}, {"time": 1887, "pitch": 72, "duration": 5, "velocity": 82}, {"time": 1893, "pitch": 74, "duration": 2, "velocity": 81}, {"time": 1896, "pitch": 76, "duration": 24, "velocity": 80}, {"time": 1923, "pitch": 74, "duration": 2, "velocity": 79}, {"time": 1926, "pitch": 74, "duration": 5, "velocity": 80}, {"time": 1932, "pitch": 74, "duration": 1, "velocity": 83}, {"time": 1935, "pitch": 74, "duration": 4, "velocity": 84}, {"time": 1941, "pitch": 72, "duration": 4, "velocity": 82}, {"time": 1947, "pitch": 74, "duration": 5, "velocity": 85}, {"time": 1953, "pitch": 76, "duration": 2, "velocity": 80}, {"time": 1956, "pitch": 74, "duration": 8, "velocity": 81}, {"time": 1968, "pitch": 69, "duration": 2, "velocity": 77}, {"time": 1971, "pitch": 71, "duration": 4, "velocity": 83}, {"time": 1977, "pitch": 71, "duration": 4, "velocity": 83}, {"time": 1983, "pitch": 71, "duration": 6, "velocity": 79}, {"time": 1989, "pitch": 67, "duration": 5, "velocity": 78}, {"time": 1995, "pitch": 69, "duration": 24, "velocity": 78}, {"time": 2043, "pitch": 76, "duration": 2, "velocity": 83}, {"time": 2046, "pitch": 76, "duration": 5, "velocity": 82}, {"time": 2052, "pitch": 84, "duration": 2, "velocity": 79}, {"time": 2055, "pitch": 83, "duration": 6, "velocity": 81}, {"time": 2061, "pitch": 81, "duration": 2, "velocity": 80}, {"time": 2064, "pitch": 79, "duration": 2, "velocity": 77}, {"time": 2067, "pitch": 81, "duration": 16, "velocity": 82}, {"time": 2085, "pitch": 83, "duration": 2, "velocity": 83}, {"time": 2088, "pitch": 84, "duration": 2, "velocity": 84}, {"time": 2091, "pitch": 83, "duration": 7, "velocity": 88}, {"time": 2100, "pitch": 81, "duration": 2, "velocity": 80}, {"time": 2103, "pitch": 79, "duration": 4, "velocity": 83}, {"time": 2109, "pitch": 81, "duration": 3, "velocity": 79}, {"time": 2112, "pitch": 79, "duration": 3, "velocity": 80}, {"time": 2115, "pitch": 76, "duration": 18, "velocity": 83}, {"time": 2139, "pitch": 81, "duration": 2, "velocity": 81}, {"time": 2142, "pitch": 81, "duration": 4, "velocity": 80}, {"time": 2148, "pitch": 81, "duration": 1, "velocity": 79}, {"time": 2151, "pitch": 81, "duration": 4, "velocity": 81}, {"time": 2157, "pitch": 76, "duration": 4, "velocity": 83}, {"time": 2163, "pitch": 72, "duration": 2, "velocity": 83}, {"time": 2166, "pitch": 74, "duration": 5, "velocity": 84}, {"time": 2172, "pitch": 76, "duration": 2, "velocity": 77}, {"time": 2175, "pitch": 74, "duration": 8, "velocity": 86}, {"time": 2187, "pitch": 79, "duration": 7, "velocity": 83}, {"time": 2196, "pitch": 79, "duration": 2, "velocity": 83}, {"time": 2199, "pitch": 74, "duration": 4, "velocity": 86}, {"time": 2205, "pitch": 79, "duration": 4, "velocity": 84}, {"time": 2211, "pitch": 76, "duration": 2, "velocity": 81}, {"time": 2214, "pitch": 74, "duration": 2, "velocity": 81}, {"time": 2217, "pitch": 76, "duration": 15, "velocity": 83}, {"time": 2235, "pitch": 76, "duration": 2, "velocity": 83}, {"time": 2238, "pitch": 76, "duration": 5, "velocity": 82}, {"time": 2244, "pitch": 84, "duration": 2, "velocity": 79}, {"time": 2247, "pitch": 83, "duration": 6, "velocity": 81}, {"time": 2253, "pitch": 81, "duration": 2, "velocity": 80}, {"time": 2256, "pitch": 79, "duration": 2, "velocity": 77}, {"time": 2259, "pitch": 81, "duration": 16, "velocity": 82}, {"time": 2277, "pitch": 83, "duration": 2, "velocity": 83}, {"time": 2280, "pitch": 84, "duration": 2, "velocity": 84}, {"time": 2283, "pitch": 83, "duration": 6, "velocity": 88}, {"time": 2289, "pitch": 83, "duration": 3, "velocity": 80}, {"time": 2292, "pitch": 81, "duration": 2, "velocity": 80}, {"time": 2295, "pitch": 79, "duration": 4, "velocity": 83}, {"time": 2301, "pitch": 81, "duration": 3, "velocity": 79}, {"time": 2304, "pitch": 79, "duration": 3, "velocity": 80}, {"time": 2307, "pitch": 76, "duration": 18, "velocity": 83}, {"time": 2331, "pitch": 81, "duration": 2, "velocity": 81}, {"time": 2334, "pitch": 81, "duration": 4, "velocity": 80}, {"time": 2340, "pitch": 81, "duration": 1, "velocity": 79}, {"time": 2343, "pitch": 81, "duration": 4, "velocity": 81}, {"time": 2349, "pitch": 76, "duration": 4, "velocity": 83}, {"time": 2355, "pitch": 72, "duration": 2, "velocity": 83}, {"time": 2358, "pitch": 74, "duration": 5, "velocity": 84}, {"time": 2364, "pitch": 76, "duration": 2, "velocity": 77}, {"time": 2367, "pitch": 74, "duration": 6, "velocity": 86}, {"time": 2373, "pitch": 72, "duration": 3, "velocity": 80}, {"time": 2376, "pitch": 74, "duration": 3, "velocity": 80}, {"time": 2379, "pitch": 79, "duration": 7, "velocity": 83}, {"time": 2388, "pitch": 79, "duration": 2, "velocity": 83}, {"time": 2391, "pitch": 74, "duration": 4, "velocity": 86}, {"time": 2397, "pitch": 79, "duration": 4, "velocity": 84}, {"time": 2403, "pitch": 76, "duration": 2, "velocity": 81}, {"time": 2406, "pitch": 74, "duration": 2, "velocity": 81}, {"time": 2409, "pitch": 76, "duration": 15, "velocity": 83}, {"time": 2427, "pitch": 74, "duration": 7, "velocity": 86}, {"time": 2436, "pitch": 74, "duration": 2, "velocity": 83}, {"time": 2439, "pitch": 74, "duration": 8, "velocity": 83}, {"time": 2448, "pitch": 72, "duration": 2, "velocity": 79}, {"time": 2451, "pitch": 74, "duration": 4, "velocity": 86}, {"time": 2457, "pitch": 76, "duration": 2, "velocity": 81}, {"time": 2460, "pitch": 74, "duration": 8, "velocity": 83}, {"time": 2469, "pitch": 72, "duration": 2, "velocity": 80}, {"time": 2472, "pitch": 74, "duration": 2, "velocity": 83}, {"time": 2475, "pitch": 76, "duration": 7, "velocity": 81}, {"time": 2487, "pitch": 74, "duration": 8, "velocity": 82}, {"time": 2496, "pitch": 67, "duration": 2, "velocity": 75}, {"time": 2499, "pitch": 69, "duration": 21, "velocity": 80}, {"time": 2523, "pitch": 83, "duration": 1, "velocity": 81}, {"time": 2526, "pitch": 83, "duration": 1, "velocity": 80}, {"time": 2529, "pitch": 83, "duration": 1, "velocity": 80}, {"time": 2532, "pitch": 83, "duration": 2, "velocity": 79}, {"time": 2535, "pitch": 79, "duration": 5, "velocity": 83}, {"time": 2541, "pitch": 81, "duration": 2, "velocity": 82}, {"time": 2544, "pitch": 83, "duration": 2, "velocity": 80}, {"time": 2547, "pitch": 81, "duration": 23, "velocity": 81}, {"time": 2595, "pitch": 76, "duration": 2, "velocity": 83}, {"time": 2598, "pitch": 76, "duration": 5, "velocity": 82}, {"time": 2604, "pitch": 84, "duration": 2, "velocity": 79}, {"time": 2607, "pitch": 83, "duration": 6, "velocity": 81}, {"time": 2613, "pitch": 81, "duration": 2, "velocity": 80}, {"time": 2616, "pitch": 79, "duration": 2, "velocity": 77}, {"time": 2619, "pitch": 81, "duration": 16, "velocity": 82}, {"time": 2637, "pitch": 83, "duration": 2, "velocity": 83}, {"time": 2640, "pitch": 84, "duration": 2, "velocity": 84}, {"time": 2643, "pitch": 83, "duration": 6, "velocity": 88}, {"time": 2649, "pitch": 83, "duration": 3, "velocity": 80}, {"time": 2652, "pitch": 81, "duration": 2, "velocity": 80}, {"time": 2655, "pitch": 79, "duration": 4, "velocity": 83}, {"time": 2661, "pitch": 81, "duration": 3, "velocity": 79}, {"time": 2664, "pitch": 79, "duration": 3, "velocity": 80}, {"time": 2667, "pitch": 76, "duration": 18, "velocity": 83}, {"time": 2691, "pitch": 81, "duration": 2, "velocity": 81}, {"time": 2694, "pitch": 81, "duration": 4, "velocity": 80}, {"time": 2700, "pitch": 81, "duration": 1, "velocity": 79}, {"time": 2703, "pitch": 81, "duration": 4, "velocity": 81}, {"time": 2709, "pitch": 76, "duration": 4, "velocity": 83}, {"time": 2715, "pitch": 72, "duration": 2, "velocity": 83}, {"time": 2718, "pitch": 74, "duration": 5, "velocity": 84}, {"time": 2724, "pitch": 76, "duration": 2, "velocity": 77}, {"time": 2727, "pitch": 74, "duration": 6, "velocity": 86}, {"time": 2733, "pitch": 72, "duration": 3, "velocity": 80}, {"time": 2736, "pitch": 74, "duration": 3, "velocity": 80}, {"time": 2739, "pitch": 79, "duration": 7, "velocity": 83}, {"time": 2748, "pitch": 79, "duration": 2, "velocity": 83}, {"time": 2751, "pitch": 74, "duration": 4, "velocity": 86}, {"time": 2757, "pitch": 79, "duration": 4, "velocity": 84}, {"time": 2763, "pitch": 76, "duration": 2, "velocity": 81}, {"time": 2766, "pitch": 74, "duration": 2, "velocity": 81}, {"time": 2769, "pitch": 76, "duration": 15, "velocity": 83}, {"time": 2787, "pitch": 74, "duration": 7, "velocity": 86}, {"time": 2796, "pitch": 74, "duration": 2, "velocity": 83}, {"time": 2799, "pitch": 74, "duration": 8, "velocity": 83}, {"time": 2808, "pitch": 72, "duration": 2, "velocity": 79}, {"time": 2811, "pitch": 74, "duration": 4, "velocity": 86}, {"time": 2817, "pitch": 76, "duration": 2, "velocity": 81}, {"time": 2820, "pitch": 74, "duration": 8, "velocity": 83}, {"time": 2829, "pitch": 72, "duration": 2, "velocity": 80}, {"time": 2832, "pitch": 74, "duration": 2, "velocity": 83}, {"time": 2835, "pitch": 76, "duration": 7, "velocity": 81}, {"time": 2847, "pitch": 74, "duration": 8, "velocity": 82}, {"time": 2856, "pitch": 67, "duration": 2, "velocity": 75}, {"time": 2859, "pitch": 69, "duration": 21, "velocity": 80}, {"time": 2883, "pitch": 83, "duration": 1, "velocity": 81}, {"time": 2886, "pitch": 83, "duration": 1, "velocity": 80}, {"time": 2889, "pitch": 83, "duration": 1, "velocity": 80}, {"time": 2892, "pitch": 83, "duration": 2, "velocity": 79}, {"time": 2895, "pitch": 79, "duration": 5, "velocity": 83}, {"time": 2901, "pitch": 81, "duration": 2, "velocity": 82}, {"time": 2904, "pitch": 83, "duration": 2, "velocity": 80}, {"time": 2907, "pitch": 81, "duration": 23, "velocity": 81}, {"time": 2955, "pitch": 83, "duration": 1, "velocity": 82}, {"time": 2958, "pitch": 83, "duration": 2, "velocity": 80}, {"time": 2961, "pitch": 83, "duration": 3, "velocity": 82}, {"time": 2965, "pitch": 83, "duration": 3, "velocity": 82}, {"time": 2969, "pitch": 79, "duration": 16, "velocity": 83}, {"time": 2985, "pitch": 81, "duration": 6, "velocity": 81}, {"time": 2990, "pitch": 83, "duration": 6, "velocity": 85}, {"time": 2995, "pitch": 81, "duration": 35, "velocity": 81}]}, {"program": 0, "is_drum": false, "name": "PIANO", "notes": [{"time": 51, "pitch": 45, "duration": 21, "velocity": 71}, {"time": 54, "pitch": 52, "duration": 18, "velocity": 73}, {"time": 57, "pitch": 57, "duration": 6, "velocity": 71}, {"time": 60, "pitch": 64, "duration": 4, "velocity": 72}, {"time": 63, "pitch": 69, "duration": 8, "velocity": 78}, {"time": 66, "pitch": 57, "duration": 3, "velocity": 57}, {"time": 69, "pitch": 64, "duration": 9, "velocity": 64}, {"time": 72, "pitch": 57, "duration": 4, "velocity": 60}, {"time": 75, "pitch": 50, "duration": 23, "velocity": 78}, {"time": 78, "pitch": 57, "duration": 3, "velocity": 71}, {"time": 81, "pitch": 62, "duration": 3, "velocity": 75}, {"time": 84, "pitch": 57, "duration": 2, "velocity": 48}, {"time": 87, "pitch": 65, "duration": 10, "velocity": 79}, {"time": 90, "pitch": 57, "duration": 3, "velocity": 67}, {"time": 93, "pitch": 62, "duration": 4, "velocity": 73}, {"time": 96, "pitch": 57, "duration": 4, "velocity": 67}, {"time": 99, "pitch": 45, "duration": 17, "velocity": 77}, {"time": 102, "pitch": 52, "duration": 13, "velocity": 77}, {"time": 105, "pitch": 64, "duration": 7, "velocity": 76}, {"time": 108, "pitch": 57, "duration": 3, "velocity": 61}, {"time": 111, "pitch": 69, "duration": 9, "velocity": 79}, {"time": 114, "pitch": 57, "duration": 3, "velocity": 65}, {"time": 117, "pitch": 64, "duration": 4, "velocity": 77}, {"time": 120, "pitch": 57, "duration": 4, "velocity": 72}, {"time": 123, "pitch": 40, "duration": 17, "velocity": 81}, {"time": 126, "pitch": 47, "duration": 13, "velocity": 70}, {"time": 129, "pitch": 55, "duration": 3, "velocity": 73}, {"time": 132, "pitch": 52, "duration": 3, "velocity": 71}, {"time": 135, "pitch": 59, "duration": 6, "velocity": 77}, {"time": 138, "pitch": 52, "duration": 3, "velocity": 75}, {"time": 141, "pitch": 55, "duration": 3, "velocity": 76}, {"time": 144, "pitch": 52, "duration": 2, "velocity": 79}, {"time": 147, "pitch": 45, "duration": 22, "velocity": 80}, {"time": 150, "pitch": 52, "duration": 18, "velocity": 72}, {"time": 153, "pitch": 60, "duration": 3, "velocity": 74}, {"time": 156, "pitch": 57, "duration": 3, "velocity": 58}, {"time": 159, "pitch": 64, "duration": 10, "velocity": 79}, {"time": 162, "pitch": 57, "duration": 3, "velocity": 64}, {"time": 165, "pitch": 60, "duration": 3, "velocity": 62}, {"time": 168, "pitch": 57, "duration": 3, "velocity": 70}, {"time": 171, "pitch": 50, "duration": 17, "velocity": 80}, {"time": 174, "pitch": 57, "duration": 3, "velocity": 73}, {"time": 177, "pitch": 62, "duration": 6, "velocity": 72}, {"time": 180, "pitch": 57, "duration": 3, "velocity": 68}, {"time": 183, "pitch": 65, "duration": 6, "velocity": 72}, {"time": 186, "pitch": 57, "duration": 3, "velocity": 63}, {"time": 189, "pitch": 62, "duration": 3, "velocity": 64}, {"time": 195, "pitch": 40, "duration": 21, "velocity": 80}, {"time": 195, "pitch": 64, "duration": 7, "velocity": 79}, {"time": 198, "pitch": 47, "duration": 18, "velocity": 66}, {"time": 201, "pitch": 59, "duration": 5, "velocity": 70}, {"time": 204, "pitch": 64, "duration": 3, "velocity": 77}, {"time": 207, "pitch": 67, "duration": 4, "velocity": 76}, {"time": 210, "pitch": 64, "duration": 4, "velocity": 78}, {"time": 213, "pitch": 59, "duration": 4, "velocity": 72}, {"time": 216, "pitch": 64, "duration": 3, "velocity": 68}, {"time": 219, "pitch": 40, "duration": 19, "velocity": 83}, {"time": 222, "pitch": 47, "duration": 7, "velocity": 69}, {"time": 225, "pitch": 52, "duration": 4, "velocity": 80}, {"time": 228, "pitch": 59, "duration": 10, "velocity": 80}, {"time": 231, "pitch": 47, "duration": 6, "velocity": 80}, {"time": 234, "pitch": 52, "duration": 3, "velocity": 81}, {"time": 237, "pitch": 64, "duration": 10, "velocity": 80}, {"time": 240, "pitch": 52, "duration": 2, "velocity": 84}, {"time": 243, "pitch": 45, "duration": 22, "velocity": 79}, {"time": 246, "pitch": 52, "duration": 10, "velocity": 74}, {"time": 249, "pitch": 57, "duration": 3, "velocity": 80}, {"time": 252, "pitch": 60, "duration": 3, "velocity": 77}, {"time": 255, "pitch": 64, "duration": 9, "velocity": 80}, {"time": 258, "pitch": 52, "duration": 6, "velocity": 73}, {"time": 261, "pitch": 57, "duration": 4, "velocity": 72}, {"time": 264, "pitch": 60, "duration": 3, "velocity": 72}, {"time": 267, "pitch": 40, "duration": 22, "velocity": 81}, {"time": 270, "pitch": 47, "duration": 18, "velocity": 71}, {"time": 273, "pitch": 55, "duration": 4, "velocity": 77}, {"time": 276, "pitch": 52, "duration": 3, "velocity": 77}, {"time": 279, "pitch": 59, "duration": 6, "velocity": 80}, {"time": 282, "pitch": 52, "duration": 3, "velocity": 77}, {"time": 285, "pitch": 55, "duration": 3, "velocity": 79}, {"time": 288, "pitch": 52, "duration": 4, "velocity": 80}, {"time": 291, "pitch": 40, "duration": 21, "velocity": 82}, {"time": 294, "pitch": 47, "duration": 17, "velocity": 66}, {"time": 297, "pitch": 55, "duration": 3, "velocity": 73}, {"time": 300, "pitch": 52, "duration": 3, "velocity": 66}, {"time": 303, "pitch": 59, "duration": 6, "velocity": 79}, {"time": 306, "pitch": 52, "duration": 3, "velocity": 79}, {"time": 309, "pitch": 55, "duration": 5, "velocity": 78}, {"time": 312, "pitch": 52, "duration": 4, "velocity": 80}, {"time": 315, "pitch": 40, "duration": 21, "velocity": 83}, {"time": 318, "pitch": 47, "duration": 17, "velocity": 67}, {"time": 321, "pitch": 52, "duration": 3, "velocity": 79}, {"time": 324, "pitch": 59, "duration": 5, "velocity": 76}, {"time": 327, "pitch": 52, "duration": 3, "velocity": 81}, {"time": 330, "pitch": 55, "duration": 3, "velocity": 74}, {"time": 333, "pitch": 64, "duration": 8, "velocity": 81}, {"time": 336, "pitch": 52, "duration": 2, "velocity": 81}, {"time": 339, "pitch": 45, "duration": 21, "velocity": 79}, {"time": 342, "pitch": 52, "duration": 7, "velocity": 72}, {"time": 345, "pitch": 57, "duration": 3, "velocity": 73}, {"time": 348, "pitch": 64, "duration": 6, "velocity": 79}, {"time": 351, "pitch": 52, "duration": 9, "velocity": 74}, {"time": 354, "pitch": 57, "duration": 3, "velocity": 71}, {"time": 357, "pitch": 64, "duration": 12, "velocity": 74}, {"time": 360, "pitch": 69, "duration": 6, "velocity": 73}, {"time": 363, "pitch": 45, "duration": 22, "velocity": 78}, {"time": 366, "pitch": 52, "duration": 11, "velocity": 68}, {"time": 369, "pitch": 57, "duration": 4, "velocity": 62}, {"time": 372, "pitch": 64, "duration": 16, "velocity": 75}, {"time": 387, "pitch": 45, "duration": 22, "velocity": 80}, {"time": 390, "pitch": 52, "duration": 11, "velocity": 68}, {"time": 393, "pitch": 57, "duration": 4, "velocity": 65}, {"time": 396, "pitch": 60, "duration": 13, "velocity": 67}, {"time": 405, "pitch": 52, "duration": 3, "velocity": 62}, {"time": 408, "pitch": 57, "duration": 3, "velocity": 66}, {"time": 411, "pitch": 50, "duration": 20, "velocity": 75}, {"time": 414, "pitch": 57, "duration": 4, "velocity": 73}, {"time": 417, "pitch": 62, "duration": 3, "velocity": 68}, {"time": 420, "pitch": 65, "duration": 11, "velocity": 78}, {"time": 429, "pitch": 62, "duration": 7, "velocity": 72}, {"time": 432, "pitch": 57, "duration": 3, "velocity": 69}, {"time": 435, "pitch": 40, "duration": 19, "velocity": 82}, {"time": 438, "pitch": 47, "duration": 7, "velocity": 67}, {"time": 441, "pitch": 59, "duration": 6, "velocity": 74}, {"time": 444, "pitch": 64, "duration": 9, "velocity": 79}, {"time": 447, "pitch": 47, "duration": 7, "velocity": 58}, {"time": 450, "pitch": 59, "duration": 3, "velocity": 70}, {"time": 453, "pitch": 67, "duration": 8, "velocity": 74}, {"time": 456, "pitch": 59, "duration": 3, "velocity": 71}, {"time": 459, "pitch": 45, "duration": 20, "velocity": 80}, {"time": 462, "pitch": 52, "duration": 18, "velocity": 72}, {"time": 465, "pitch": 60, "duration": 6, "velocity": 74}, {"time": 468, "pitch": 57, "duration": 6, "velocity": 67}, {"time": 474, "pitch": 64, "duration": 15, "velocity": 79}, {"time": 477, "pitch": 57, "duration": 9, "velocity": 67}, {"time": 483, "pitch": 45, "duration": 22, "velocity": 80}, {"time": 486, "pitch": 52, "duration": 10, "velocity": 65}, {"time": 489, "pitch": 57, "duration": 9, "velocity": 71}, {"time": 492, "pitch": 64, "duration": 10, "velocity": 78}, {"time": 498, "pitch": 52, "duration": 6, "velocity": 70}, {"time": 501, "pitch": 60, "duration": 6, "velocity": 72}, {"time": 504, "pitch": 57, "duration": 3, "velocity": 61}, {"time": 507, "pitch": 50, "duration": 19, "velocity": 77}, {"time": 510, "pitch": 62, "duration": 9, "velocity": 68}, {"time": 513, "pitch": 57, "duration": 5, "velocity": 62}, {"time": 519, "pitch": 65, "duration": 3, "velocity": 77}, {"time": 522, "pitch": 62, "duration": 4, "velocity": 73}, {"time": 525, "pitch": 57, "duration": 5, "velocity": 69}, {"time": 528, "pitch": 62, "duration": 5, "velocity": 64}, {"time": 531, "pitch": 40, "duration": 21, "velocity": 80}, {"time": 534, "pitch": 47, "duration": 10, "velocity": 66}, {"time": 537, "pitch": 59, "duration": 6, "velocity": 70}, {"time": 540, "pitch": 52, "duration": 3, "velocity": 72}, {"time": 543, "pitch": 55, "duration": 6, "velocity": 79}, {"time": 546, "pitch": 47, "duration": 7, "velocity": 65}, {"time": 549, "pitch": 52, "duration": 6, "velocity": 72}, {"time": 552, "pitch": 59, "duration": 6, "velocity": 70}, {"time": 555, "pitch": 40, "duration": 18, "velocity": 82}, {"time": 558, "pitch": 47, "duration": 14, "velocity": 66}, {"time": 561, "pitch": 52, "duration": 4, "velocity": 79}, {"time": 564, "pitch": 59, "duration": 4, "velocity": 72}, {"time": 567, "pitch": 64, "duration": 13, "velocity": 82}, {"time": 570, "pitch": 59, "duration": 4, "velocity": 75}, {"time": 573, "pitch": 52, "duration": 3, "velocity": 80}, {"time": 576, "pitch": 59, "duration": 3, "velocity": 73}, {"time": 579, "pitch": 45, "duration": 18, "velocity": 84}, {"time": 579, "pitch": 57, "duration": 3, "velocity": 77}, {"time": 579, "pitch": 64, "duration": 1, "velocity": 82}, {"time": 582, "pitch": 52, "duration": 14, "velocity": 75}, {"time": 585, "pitch": 57, "duration": 2, "velocity": 86}, {"time": 588, "pitch": 57, "duration": 9, "velocity": 85}, {"time": 588, "pitch": 64, "duration": 7, "velocity": 87}, {"time": 597, "pitch": 64, "duration": 5, "velocity": 71}, {"time": 597, "pitch": 69, "duration": 5, "velocity": 84}, {"time": 600, "pitch": 57, "duration": 3, "velocity": 83}, {"time": 603, "pitch": 38, "duration": 22, "velocity": 87}, {"time": 606, "pitch": 45, "duration": 19, "velocity": 76}, {"time": 609, "pitch": 50, "duration": 7, "velocity": 76}, {"time": 612, "pitch": 57, "duration": 6, "velocity": 84}, {"time": 618, "pitch": 62, "duration": 7, "velocity": 85}, {"time": 621, "pitch": 50, "duration": 4, "velocity": 84}, {"time": 627, "pitch": 38, "duration": 16, "velocity": 86}, {"time": 627, "pitch": 50, "duration": 3, "velocity": 80}, {"time": 627, "pitch": 57, "duration": 6, "velocity": 77}, {"time": 630, "pitch": 45, "duration": 13, "velocity": 72}, {"time": 633, "pitch": 50, "duration": 5, "velocity": 79}, {"time": 636, "pitch": 57, "duration": 4, "velocity": 78}, {"time": 642, "pitch": 50, "duration": 1, "velocity": 79}, {"time": 642, "pitch": 57, "duration": 4, "velocity": 79}, {"time": 642, "pitch": 62, "duration": 9, "velocity": 80}, {"time": 645, "pitch": 50, "duration": 3, "velocity": 84}, {"time": 648, "pitch": 57, "duration": 2, "velocity": 74}, {"time": 651, "pitch": 45, "duration": 22, "velocity": 85}, {"time": 654, "pitch": 52, "duration": 19, "velocity": 75}, {"time": 657, "pitch": 57, "duration": 1, "velocity": 79}, {"time": 660, "pitch": 57, "duration": 3, "velocity": 82}, {"time": 660, "pitch": 64, "duration": 3, "velocity": 84}, {"time": 666, "pitch": 57, "duration": 1, "velocity": 80}, {"time": 666, "pitch": 60, "duration": 3, "velocity": 79}, {"time": 669, "pitch": 57, "duration": 3, "velocity": 84}, {"time": 672, "pitch": 64, "duration": 6, "velocity": 84}, {"time": 675, "pitch": 45, "duration": 17, "velocity": 86}, {"time": 678, "pitch": 52, "duration": 14, "velocity": 77}, {"time": 681, "pitch": 57, "duration": 2, "velocity": 83}, {"time": 684, "pitch": 57, "duration": 7, "velocity": 79}, {"time": 684, "pitch": 69, "duration": 7, "velocity": 84}, {"time": 693, "pitch": 60, "duration": 3, "velocity": 83}, {"time": 693, "pitch": 64, "duration": 7, "velocity": 83}, {"time": 696, "pitch": 57, "duration": 4, "velocity": 80}, {"time": 699, "pitch": 38, "duration": 20, "velocity": 89}, {"time": 702, "pitch": 45, "duration": 19, "velocity": 72}, {"time": 705, "pitch": 57, "duration": 7, "velocity": 85}, {"time": 708, "pitch": 62, "duration": 6, "velocity": 83}, {"time": 714, "pitch": 65, "duration": 5, "velocity": 84}, {"time": 717, "pitch": 57, "duration": 1, "velocity": 84}, {"time": 723, "pitch": 40, "duration": 22, "velocity": 85}, {"time": 723, "pitch": 59, "duration": 3, "velocity": 77}, {"time": 723, "pitch": 64, "duration": 6, "velocity": 80}, {"time": 726, "pitch": 47, "duration": 19, "velocity": 71}, {"time": 729, "pitch": 59, "duration": 8, "velocity": 83}, {"time": 732, "pitch": 64, "duration": 6, "velocity": 85}, {"time": 738, "pitch": 67, "duration": 5, "velocity": 84}, {"time": 741, "pitch": 59, "duration": 4, "velocity": 84}, {"time": 747, "pitch": 36, "duration": 1, "velocity": 79}, {"time": 747, "pitch": 38, "duration": 22, "velocity": 86}, {"time": 747, "pitch": 57, "duration": 3, "velocity": 74}, {"time": 747, "pitch": 62, "duration": 6, "velocity": 78}, {"time": 750, "pitch": 45, "duration": 19, "velocity": 69}, {"time": 753, "pitch": 57, "duration": 6, "velocity": 83}, {"time": 756, "pitch": 62, "duration": 4, "velocity": 84}, {"time": 762, "pitch": 65, "duration": 5, "velocity": 84}, {"time": 765, "pitch": 57, "duration": 4, "velocity": 84}, {"time": 771, "pitch": 38, "duration": 20, "velocity": 86}, {"time": 771, "pitch": 57, "duration": 3, "velocity": 83}, {"time": 771, "pitch": 62, "duration": 4, "velocity": 75}, {"time": 774, "pitch": 45, "duration": 19, "velocity": 75}, {"time": 777, "pitch": 57, "duration": 1, "velocity": 78}, {"time": 780, "pitch": 57, "duration": 3, "velocity": 84}, {"time": 780, "pitch": 65, "duration": 4, "velocity": 82}, {"time": 786, "pitch": 57, "duration": 1, "velocity": 84}, {"time": 786, "pitch": 62, "duration": 3, "velocity": 84}, {"time": 789, "pitch": 57, "duration": 1, "velocity": 83}, {"time": 795, "pitch": 40, "duration": 17, "velocity": 85}, {"time": 795, "pitch": 59, "duration": 3, "velocity": 79}, {"time": 795, "pitch": 64, "duration": 6, "velocity": 83}, {"time": 798, "pitch": 47, "duration": 14, "velocity": 75}, {"time": 801, "pitch": 59, "duration": 9, "velocity": 84}, {"time": 804, "pitch": 64, "duration": 7, "velocity": 81}, {"time": 810, "pitch": 67, "duration": 5, "velocity": 82}, {"time": 813, "pitch": 59, "duration": 2, "velocity": 84}, {"time": 819, "pitch": 45, "duration": 23, "velocity": 82}, {"time": 819, "pitch": 57, "duration": 4, "velocity": 78}, {"time": 819, "pitch": 60, "duration": 4, "velocity": 77}, {"time": 819, "pitch": 64, "duration": 4, "velocity": 82}, {"time": 825, "pitch": 57, "duration": 2, "velocity": 69}, {"time": 825, "pitch": 60, "duration": 2, "velocity": 74}, {"time": 831, "pitch": 57, "duration": 5, "velocity": 84}, {"time": 831, "pitch": 60, "duration": 5, "velocity": 92}, {"time": 837, "pitch": 57, "duration": 2, "velocity": 83}, {"time": 837, "pitch": 60, "duration": 3, "velocity": 85}, {"time": 843, "pitch": 45, "duration": 24, "velocity": 85}, {"time": 843, "pitch": 57, "duration": 3, "velocity": 80}, {"time": 843, "pitch": 60, "duration": 4, "velocity": 82}, {"time": 846, "pitch": 52, "duration": 10, "velocity": 75}, {"time": 849, "pitch": 57, "duration": 1, "velocity": 83}, {"time": 852, "pitch": 60, "duration": 1, "velocity": 79}, {"time": 855, "pitch": 57, "duration": 3, "velocity": 85}, {"time": 855, "pitch": 60, "duration": 3, "velocity": 89}, {"time": 855, "pitch": 64, "duration": 3, "velocity": 89}, {"time": 858, "pitch": 52, "duration": 9, "velocity": 85}, {"time": 861, "pitch": 57, "duration": 5, "velocity": 84}, {"time": 864, "pitch": 60, "duration": 2, "velocity": 79}, {"time": 867, "pitch": 45, "duration": 19, "velocity": 81}, {"time": 870, "pitch": 52, "duration": 8, "velocity": 72}, {"time": 873, "pitch": 60, "duration": 4, "velocity": 68}, {"time": 876, "pitch": 69, "duration": 4, "velocity": 83}, {"time": 879, "pitch": 52, "duration": 5, "velocity": 68}, {"time": 882, "pitch": 57, "duration": 1, "velocity": 68}, {"time": 882, "pitch": 60, "duration": 3, "velocity": 79}, {"time": 882, "pitch": 64, "duration": 4, "velocity": 80}, {"time": 885, "pitch": 57, "duration": 2, "velocity": 67}, {"time": 891, "pitch": 45, "duration": 18, "velocity": 80}, {"time": 891, "pitch": 57, "duration": 3, "velocity": 68}, {"time": 891, "pitch": 60, "duration": 5, "velocity": 72}, {"time": 894, "pitch": 52, "duration": 7, "velocity": 69}, {"time": 897, "pitch": 57, "duration": 1, "velocity": 55}, {"time": 900, "pitch": 57, "duration": 2, "velocity": 74}, {"time": 900, "pitch": 64, "duration": 2, "velocity": 79}, {"time": 903, "pitch": 52, "duration": 5, "velocity": 67}, {"time": 906, "pitch": 57, "duration": 1, "velocity": 74}, {"time": 906, "pitch": 60, "duration": 3, "velocity": 76}, {"time": 909, "pitch": 57, "duration": 1, "velocity": 78}, {"time": 915, "pitch": 40, "duration": 19, "velocity": 82}, {"time": 915, "pitch": 59, "duration": 3, "velocity": 70}, {"time": 915, "pitch": 64, "duration": 6, "velocity": 76}, {"time": 918, "pitch": 47, "duration": 15, "velocity": 63}, {"time": 921, "pitch": 59, "duration": 4, "velocity": 71}, {"time": 924, "pitch": 64, "duration": 1, "velocity": 63}, {"time": 927, "pitch": 67, "duration": 5, "velocity": 81}, {"time": 930, "pitch": 59, "duration": 3, "velocity": 74}, {"time": 933, "pitch": 64, "duration": 4, "velocity": 73}, {"time": 936, "pitch": 59, "duration": 2, "velocity": 74}, {"time": 939, "pitch": 40, "duration": 6, "velocity": 81}, {"time": 939, "pitch": 59, "duration": 2, "velocity": 75}, {"time": 939, "pitch": 64, "duration": 5, "velocity": 75}, {"time": 942, "pitch": 47, "duration": 4, "velocity": 65}, {"time": 945, "pitch": 59, "duration": 4, "velocity": 73}, {"time": 948, "pitch": 64, "duration": 3, "velocity": 72}, {"time": 951, "pitch": 67, "duration": 3, "velocity": 80}, {"time": 954, "pitch": 64, "duration": 3, "velocity": 78}, {"time": 957, "pitch": 59, "duration": 1, "velocity": 81}, {"time": 963, "pitch": 45, "duration": 22, "velocity": 79}, {"time": 963, "pitch": 57, "duration": 3, "velocity": 67}, {"time": 963, "pitch": 60, "duration": 6, "velocity": 74}, {"time": 966, "pitch": 52, "duration": 19, "velocity": 69}, {"time": 969, "pitch": 57, "duration": 3, "velocity": 69}, {"time": 972, "pitch": 60, "duration": 1, "velocity": 61}, {"time": 975, "pitch": 64, "duration": 2, "velocity": 82}, {"time": 978, "pitch": 57, "duration": 3, "velocity": 75}, {"time": 981, "pitch": 60, "duration": 3, "velocity": 72}, {"time": 984, "pitch": 57, "duration": 2, "velocity": 70}, {"time": 987, "pitch": 50, "duration": 15, "velocity": 78}, {"time": 987, "pitch": 62, "duration": 6, "velocity": 78}, {"time": 993, "pitch": 57, "duration": 3, "velocity": 68}, {"time": 996, "pitch": 62, "duration": 3, "velocity": 67}, {"time": 999, "pitch": 65, "duration": 3, "velocity": 80}, {"time": 1002, "pitch": 62, "duration": 3, "velocity": 73}, {"time": 1005, "pitch": 57, "duration": 1, "velocity": 68}, {"time": 1011, "pitch": 40, "duration": 22, "velocity": 87}, {"time": 1011, "pitch": 52, "duration": 4, "velocity": 84}, {"time": 1011, "pitch": 59, "duration": 5, "velocity": 83}, {"time": 1011, "pitch": 64, "duration": 4, "velocity": 84}, {"time": 1017, "pitch": 52, "duration": 3, "velocity": 83}, {"time": 1017, "pitch": 59, "duration": 3, "velocity": 78}, {"time": 1017, "pitch": 64, "duration": 2, "velocity": 70}, {"time": 1023, "pitch": 52, "duration": 3, "velocity": 83}, {"time": 1023, "pitch": 59, "duration": 3, "velocity": 83}, {"time": 1023, "pitch": 64, "duration": 3, "velocity": 86}, {"time": 1029, "pitch": 52, "duration": 4, "velocity": 85}, {"time": 1029, "pitch": 59, "duration": 4, "velocity": 84}, {"time": 1029, "pitch": 64, "duration": 4, "velocity": 85}, {"time": 1035, "pitch": 40, "duration": 24, "velocity": 85}, {"time": 1035, "pitch": 52, "duration": 4, "velocity": 83}, {"time": 1035, "pitch": 59, "duration": 4, "velocity": 83}, {"time": 1035, "pitch": 64, "duration": 4, "velocity": 84}, {"time": 1041, "pitch": 52, "duration": 4, "velocity": 85}, {"time": 1041, "pitch": 59, "duration": 4, "velocity": 83}, {"time": 1041, "pitch": 64, "duration": 3, "velocity": 84}, {"time": 1044, "pitch": 47, "duration": 4, "velocity": 83}, {"time": 1047, "pitch": 52, "duration": 3, "velocity": 92}, {"time": 1047, "pitch": 59, "duration": 6, "velocity": 87}, {"time": 1047, "pitch": 64, "duration": 6, "velocity": 87}, {"time": 1050, "pitch": 47, "duration": 9, "velocity": 88}, {"time": 1053, "pitch": 52, "duration": 5, "velocity": 94}, {"time": 1056, "pitch": 59, "duration": 2, "velocity": 83}, {"time": 1059, "pitch": 45, "duration": 19, "velocity": 81}, {"time": 1062, "pitch": 52, "duration": 8, "velocity": 72}, {"time": 1065, "pitch": 60, "duration": 4, "velocity": 68}, {"time": 1068, "pitch": 69, "duration": 4, "velocity": 83}, {"time": 1071, "pitch": 52, "duration": 5, "velocity": 68}, {"time": 1074, "pitch": 57, "duration": 1, "velocity": 68}, {"time": 1074, "pitch": 60, "duration": 3, "velocity": 79}, {"time": 1074, "pitch": 64, "duration": 4, "velocity": 80}, {"time": 1077, "pitch": 57, "duration": 2, "velocity": 67}, {"time": 1083, "pitch": 45, "duration": 18, "velocity": 80}, {"time": 1083, "pitch": 57, "duration": 3, "velocity": 68}, {"time": 1083, "pitch": 60, "duration": 5, "velocity": 72}, {"time": 1086, "pitch": 52, "duration": 7, "velocity": 69}, {"time": 1089, "pitch": 57, "duration": 1, "velocity": 55}, {"time": 1092, "pitch": 57, "duration": 2, "velocity": 74}, {"time": 1092, "pitch": 64, "duration": 2, "velocity": 79}, {"time": 1095, "pitch": 52, "duration": 5, "velocity": 67}, {"time": 1098, "pitch": 57, "duration": 1, "velocity": 74}, {"time": 1098, "pitch": 60, "duration": 3, "velocity": 76}, {"time": 1101, "pitch": 57, "duration": 1, "velocity": 78}, {"time": 1107, "pitch": 40, "duration": 19, "velocity": 82}, {"time": 1107, "pitch": 59, "duration": 3, "velocity": 70}, {"time": 1107, "pitch": 64, "duration": 6, "velocity": 76}, {"time": 1110, "pitch": 47, "duration": 15, "velocity": 63}, {"time": 1113, "pitch": 59, "duration": 4, "velocity": 71}, {"time": 1116, "pitch": 64, "duration": 1, "velocity": 63}, {"time": 1119, "pitch": 67, "duration": 5, "velocity": 81}, {"time": 1122, "pitch": 59, "duration": 3, "velocity": 74}, {"time": 1125, "pitch": 64, "duration": 4, "velocity": 73}, {"time": 1128, "pitch": 59, "duration": 2, "velocity": 74}, {"time": 1131, "pitch": 40, "duration": 6, "velocity": 81}, {"time": 1131, "pitch": 59, "duration": 2, "velocity": 75}, {"time": 1131, "pitch": 64, "duration": 5, "velocity": 75}, {"time": 1134, "pitch": 47, "duration": 4, "velocity": 65}, {"time": 1137, "pitch": 59, "duration": 4, "velocity": 73}, {"time": 1140, "pitch": 64, "duration": 3, "velocity": 72}, {"time": 1143, "pitch": 67, "duration": 3, "velocity": 80}, {"time": 1146, "pitch": 64, "duration": 3, "velocity": 78}, {"time": 1149, "pitch": 59, "duration": 1, "velocity": 81}, {"time": 1155, "pitch": 45, "duration": 22, "velocity": 79}, {"time": 1155, "pitch": 57, "duration": 3, "velocity": 67}, {"time": 1155, "pitch": 60, "duration": 6, "velocity": 74}, {"time": 1158, "pitch": 52, "duration": 19, "velocity": 69}, {"time": 1161, "pitch": 57, "duration": 3, "velocity": 69}, {"time": 1164, "pitch": 60, "duration": 1, "velocity": 61}, {"time": 1167, "pitch": 64, "duration": 2, "velocity": 82}, {"time": 1170, "pitch": 57, "duration": 3, "velocity": 75}, {"time": 1173, "pitch": 60, "duration": 3, "velocity": 72}, {"time": 1176, "pitch": 57, "duration": 2, "velocity": 70}, {"time": 1179, "pitch": 50, "duration": 15, "velocity": 78}, {"time": 1179, "pitch": 62, "duration": 6, "velocity": 78}, {"time": 1185, "pitch": 57, "duration": 3, "velocity": 68}, {"time": 1188, "pitch": 62, "duration": 3, "velocity": 67}, {"time": 1191, "pitch": 65, "duration": 3, "velocity": 80}, {"time": 1194, "pitch": 62, "duration": 3, "velocity": 73}, {"time": 1197, "pitch": 57, "duration": 1, "velocity": 68}, {"time": 1203, "pitch": 40, "duration": 20, "velocity": 81}, {"time": 1203, "pitch": 59, "duration": 3, "velocity": 70}, {"time": 1203, "pitch": 64, "duration": 6, "velocity": 75}, {"time": 1206, "pitch": 47, "duration": 16, "velocity": 67}, {"time": 1209, "pitch": 59, "duration": 3, "velocity": 68}, {"time": 1212, "pitch": 64, "duration": 1, "velocity": 67}, {"time": 1215, "pitch": 59, "duration": 2, "velocity": 79}, {"time": 1215, "pitch": 67, "duration": 3, "velocity": 74}, {"time": 1218, "pitch": 64, "duration": 3, "velocity": 70}, {"time": 1221, "pitch": 59, "duration": 1, "velocity": 79}, {"time": 1227, "pitch": 40, "duration": 20, "velocity": 82}, {"time": 1227, "pitch": 59, "duration": 3, "velocity": 79}, {"time": 1227, "pitch": 64, "duration": 4, "velocity": 80}, {"time": 1230, "pitch": 47, "duration": 11, "velocity": 62}, {"time": 1233, "pitch": 59, "duration": 1, "velocity": 35}, {"time": 1236, "pitch": 59, "duration": 1, "velocity": 71}, {"time": 1236, "pitch": 64, "duration": 1, "velocity": 78}, {"time": 1239, "pitch": 59, "duration": 2, "velocity": 80}, {"time": 1239, "pitch": 64, "duration": 4, "velocity": 83}, {"time": 1242, "pitch": 59, "duration": 1, "velocity": 63}, {"time": 1242, "pitch": 69, "duration": 3, "velocity": 79}, {"time": 1245, "pitch": 59, "duration": 2, "velocity": 75}, {"time": 1245, "pitch": 64, "duration": 4, "velocity": 83}, {"time": 1245, "pitch": 71, "duration": 5, "velocity": 88}, {"time": 1251, "pitch": 38, "duration": 22, "velocity": 80}, {"time": 1251, "pitch": 57, "duration": 4, "velocity": 73}, {"time": 1251, "pitch": 62, "duration": 6, "velocity": 75}, {"time": 1254, "pitch": 45, "duration": 17, "velocity": 64}, {"time": 1257, "pitch": 57, "duration": 5, "velocity": 67}, {"time": 1260, "pitch": 62, "duration": 4, "velocity": 79}, {"time": 1266, "pitch": 65, "duration": 1, "velocity": 85}, {"time": 1272, "pitch": 57, "duration": 1, "velocity": 73}, {"time": 1275, "pitch": 38, "duration": 19, "velocity": 81}, {"time": 1275, "pitch": 57, "duration": 3, "velocity": 72}, {"time": 1275, "pitch": 62, "duration": 5, "velocity": 79}, {"time": 1278, "pitch": 45, "duration": 16, "velocity": 60}, {"time": 1281, "pitch": 57, "duration": 1, "velocity": 64}, {"time": 1284, "pitch": 57, "duration": 2, "velocity": 80}, {"time": 1284, "pitch": 65, "duration": 4, "velocity": 76}, {"time": 1290, "pitch": 57, "duration": 2, "velocity": 77}, {"time": 1290, "pitch": 62, "duration": 2, "velocity": 77}, {"time": 1299, "pitch": 40, "duration": 18, "velocity": 81}, {"time": 1299, "pitch": 59, "duration": 3, "velocity": 73}, {"time": 1299, "pitch": 64, "duration": 5, "velocity": 79}, {"time": 1302, "pitch": 47, "duration": 13, "velocity": 64}, {"time": 1305, "pitch": 59, "duration": 3, "velocity": 70}, {"time": 1308, "pitch": 67, "duration": 6, "velocity": 80}, {"time": 1314, "pitch": 64, "duration": 3, "velocity": 81}, {"time": 1317, "pitch": 59, "duration": 4, "velocity": 72}, {"time": 1320, "pitch": 64, "duration": 5, "velocity": 76}, {"time": 1323, "pitch": 45, "duration": 19, "velocity": 80}, {"time": 1326, "pitch": 52, "duration": 15, "velocity": 70}, {"time": 1329, "pitch": 57, "duration": 1, "velocity": 67}, {"time": 1332, "pitch": 57, "duration": 2, "velocity": 79}, {"time": 1332, "pitch": 64, "duration": 2, "velocity": 81}, {"time": 1338, "pitch": 57, "duration": 1, "velocity": 71}, {"time": 1338, "pitch": 60, "duration": 6, "velocity": 73}, {"time": 1341, "pitch": 57, "duration": 5, "velocity": 68}, {"time": 1347, "pitch": 40, "duration": 16, "velocity": 81}, {"time": 1347, "pitch": 59, "duration": 5, "velocity": 75}, {"time": 1350, "pitch": 47, "duration": 13, "velocity": 65}, {"time": 1353, "pitch": 55, "duration": 3, "velocity": 75}, {"time": 1356, "pitch": 59, "duration": 2, "velocity": 79}, {"time": 1359, "pitch": 64, "duration": 3, "velocity": 88}, {"time": 1362, "pitch": 59, "duration": 3, "velocity": 81}, {"time": 1365, "pitch": 55, "duration": 2, "velocity": 79}, {"time": 1371, "pitch": 45, "duration": 22, "velocity": 80}, {"time": 1371, "pitch": 57, "duration": 3, "velocity": 73}, {"time": 1371, "pitch": 60, "duration": 6, "velocity": 74}, {"time": 1374, "pitch": 52, "duration": 6, "velocity": 72}, {"time": 1380, "pitch": 57, "duration": 4, "velocity": 75}, {"time": 1380, "pitch": 64, "duration": 4, "velocity": 81}, {"time": 1383, "pitch": 52, "duration": 10, "velocity": 76}, {"time": 1386, "pitch": 57, "duration": 4, "velocity": 73}, {"time": 1386, "pitch": 60, "duration": 5, "velocity": 75}, {"time": 1392, "pitch": 59, "duration": 3, "velocity": 75}, {"time": 1395, "pitch": 45, "duration": 21, "velocity": 80}, {"time": 1395, "pitch": 57, "duration": 3, "velocity": 71}, {"time": 1398, "pitch": 52, "duration": 7, "velocity": 73}, {"time": 1401, "pitch": 57, "duration": 1, "velocity": 65}, {"time": 1404, "pitch": 57, "duration": 4, "velocity": 79}, {"time": 1404, "pitch": 64, "duration": 4, "velocity": 82}, {"time": 1407, "pitch": 52, "duration": 9, "velocity": 79}, {"time": 1410, "pitch": 57, "duration": 1, "velocity": 74}, {"time": 1410, "pitch": 60, "duration": 4, "velocity": 79}, {"time": 1413, "pitch": 57, "duration": 6, "velocity": 72}, {"time": 1419, "pitch": 45, "duration": 19, "velocity": 74}, {"time": 1419, "pitch": 57, "duration": 1, "velocity": 76}, {"time": 1419, "pitch": 60, "duration": 6, "velocity": 79}, {"time": 1422, "pitch": 52, "duration": 10, "velocity": 75}, {"time": 1425, "pitch": 57, "duration": 4, "velocity": 74}, {"time": 1431, "pitch": 57, "duration": 3, "velocity": 79}, {"time": 1431, "pitch": 60, "duration": 4, "velocity": 82}, {"time": 1431, "pitch": 64, "duration": 4, "velocity": 82}, {"time": 1434, "pitch": 52, "duration": 4, "velocity": 73}, {"time": 1437, "pitch": 57, "duration": 3, "velocity": 74}, {"time": 1440, "pitch": 60, "duration": 3, "velocity": 67}, {"time": 1443, "pitch": 40, "duration": 18, "velocity": 81}, {"time": 1443, "pitch": 59, "duration": 5, "velocity": 72}, {"time": 1443, "pitch": 64, "duration": 5, "velocity": 75}, {"time": 1449, "pitch": 47, "duration": 7, "velocity": 72}, {"time": 1452, "pitch": 59, "duration": 1, "velocity": 76}, {"time": 1455, "pitch": 59, "duration": 5, "velocity": 81}, {"time": 1455, "pitch": 64, "duration": 6, "velocity": 81}, {"time": 1455, "pitch": 67, "duration": 7, "velocity": 79}, {"time": 1461, "pitch": 47, "duration": 1, "velocity": 74}, {"time": 1464, "pitch": 59, "duration": 1, "velocity": 61}, {"time": 1467, "pitch": 45, "duration": 19, "velocity": 80}, {"time": 1467, "pitch": 57, "duration": 5, "velocity": 73}, {"time": 1467, "pitch": 60, "duration": 6, "velocity": 75}, {"time": 1473, "pitch": 52, "duration": 7, "velocity": 64}, {"time": 1476, "pitch": 57, "duration": 1, "velocity": 68}, {"time": 1479, "pitch": 57, "duration": 3, "velocity": 80}, {"time": 1479, "pitch": 64, "duration": 3, "velocity": 80}, {"time": 1482, "pitch": 52, "duration": 3, "velocity": 72}, {"time": 1485, "pitch": 57, "duration": 1, "velocity": 74}, {"time": 1485, "pitch": 60, "duration": 3, "velocity": 79}, {"time": 1488, "pitch": 57, "duration": 1, "velocity": 67}, {"time": 1491, "pitch": 40, "duration": 18, "velocity": 80}, {"time": 1491, "pitch": 59, "duration": 3, "velocity": 72}, {"time": 1491, "pitch": 64, "duration": 4, "velocity": 79}, {"time": 1494, "pitch": 47, "duration": 10, "velocity": 61}, {"time": 1497, "pitch": 59, "duration": 3, "velocity": 71}, {"time": 1500, "pitch": 64, "duration": 1, "velocity": 70}, {"time": 1503, "pitch": 59, "duration": 2, "velocity": 79}, {"time": 1503, "pitch": 67, "duration": 4, "velocity": 79}, {"time": 1506, "pitch": 47, "duration": 2, "velocity": 70}, {"time": 1509, "pitch": 59, "duration": 2, "velocity": 79}, {"time": 1509, "pitch": 64, "duration": 2, "velocity": 78}, {"time": 1515, "pitch": 40, "duration": 18, "velocity": 80}, {"time": 1515, "pitch": 59, "duration": 3, "velocity": 75}, {"time": 1515, "pitch": 64, "duration": 4, "velocity": 79}, {"time": 1518, "pitch": 47, "duration": 10, "velocity": 69}, {"time": 1521, "pitch": 59, "duration": 3, "velocity": 73}, {"time": 1524, "pitch": 64, "duration": 1, "velocity": 69}, {"time": 1527, "pitch": 59, "duration": 2, "velocity": 79}, {"time": 1527, "pitch": 67, "duration": 6, "velocity": 78}, {"time": 1530, "pitch": 47, "duration": 3, "velocity": 69}, {"time": 1533, "pitch": 64, "duration": 1, "velocity": 73}, {"time": 1539, "pitch": 43, "duration": 19, "velocity": 72}, {"time": 1539, "pitch": 55, "duration": 3, "velocity": 72}, {"time": 1539, "pitch": 59, "duration": 6, "velocity": 74}, {"time": 1542, "pitch": 50, "duration": 16, "velocity": 71}, {"time": 1545, "pitch": 55, "duration": 3, "velocity": 74}, {"time": 1548, "pitch": 59, "duration": 1, "velocity": 69}, {"time": 1551, "pitch": 55, "duration": 2, "velocity": 80}, {"time": 1551, "pitch": 62, "duration": 2, "velocity": 80}, {"time": 1557, "pitch": 59, "duration": 1, "velocity": 79}, {"time": 1563, "pitch": 43, "duration": 22, "velocity": 80}, {"time": 1563, "pitch": 55, "duration": 3, "velocity": 72}, {"time": 1563, "pitch": 59, "duration": 4, "velocity": 73}, {"time": 1566, "pitch": 50, "duration": 13, "velocity": 66}, {"time": 1569, "pitch": 55, "duration": 1, "velocity": 63}, {"time": 1572, "pitch": 55, "duration": 2, "velocity": 78}, {"time": 1572, "pitch": 62, "duration": 2, "velocity": 76}, {"time": 1578, "pitch": 55, "duration": 3, "velocity": 75}, {"time": 1578, "pitch": 62, "duration": 4, "velocity": 78}, {"time": 1581, "pitch": 50, "duration": 3, "velocity": 74}, {"time": 1584, "pitch": 55, "duration": 1, "velocity": 77}, {"time": 1584, "pitch": 62, "duration": 1, "velocity": 79}, {"time": 1584, "pitch": 67, "duration": 1, "velocity": 75}, {"time": 1587, "pitch": 43, "duration": 15, "velocity": 81}, {"time": 1587, "pitch": 55, "duration": 2, "velocity": 79}, {"time": 1587, "pitch": 62, "duration": 2, "velocity": 80}, {"time": 1587, "pitch": 67, "duration": 3, "velocity": 80}, {"time": 1590, "pitch": 50, "duration": 6, "velocity": 67}, {"time": 1593, "pitch": 62, "duration": 1, "velocity": 63}, {"time": 1593, "pitch": 71, "duration": 1, "velocity": 60}, {"time": 1596, "pitch": 62, "duration": 3, "velocity": 83}, {"time": 1596, "pitch": 71, "duration": 2, "velocity": 88}, {"time": 1599, "pitch": 50, "duration": 2, "velocity": 80}, {"time": 1602, "pitch": 62, "duration": 1, "velocity": 77}, {"time": 1602, "pitch": 67, "duration": 3, "velocity": 73}, {"time": 1605, "pitch": 62, "duration": 1, "velocity": 73}, {"time": 1611, "pitch": 48, "duration": 16, "velocity": 81}, {"time": 1611, "pitch": 60, "duration": 3, "velocity": 69}, {"time": 1611, "pitch": 64, "duration": 3, "velocity": 76}, {"time": 1614, "pitch": 55, "duration": 7, "velocity": 67}, {"time": 1617, "pitch": 62, "duration": 1, "velocity": 68}, {"time": 1620, "pitch": 60, "duration": 4, "velocity": 73}, {"time": 1620, "pitch": 67, "duration": 4, "velocity": 70}, {"time": 1623, "pitch": 55, "duration": 3, "velocity": 74}, {"time": 1626, "pitch": 60, "duration": 1, "velocity": 73}, {"time": 1626, "pitch": 67, "duration": 2, "velocity": 79}, {"time": 1635, "pitch": 40, "duration": 18, "velocity": 81}, {"time": 1635, "pitch": 64, "duration": 3, "velocity": 65}, {"time": 1635, "pitch": 67, "duration": 4, "velocity": 71}, {"time": 1638, "pitch": 47, "duration": 13, "velocity": 70}, {"time": 1641, "pitch": 64, "duration": 1, "velocity": 62}, {"time": 1644, "pitch": 64, "duration": 1, "velocity": 80}, {"time": 1644, "pitch": 71, "duration": 2, "velocity": 81}, {"time": 1650, "pitch": 64, "duration": 1, "velocity": 80}, {"time": 1650, "pitch": 67, "duration": 2, "velocity": 80}, {"time": 1659, "pitch": 40, "duration": 15, "velocity": 80}, {"time": 1659, "pitch": 64, "duration": 2, "velocity": 74}, {"time": 1659, "pitch": 67, "duration": 4, "velocity": 68}, {"time": 1662, "pitch": 47, "duration": 6, "velocity": 63}, {"time": 1665, "pitch": 59, "duration": 1, "velocity": 77}, {"time": 1668, "pitch": 59, "duration": 4, "velocity": 80}, {"time": 1668, "pitch": 64, "duration": 4, "velocity": 83}, {"time": 1671, "pitch": 47, "duration": 3, "velocity": 68}, {"time": 1674, "pitch": 59, "duration": 1, "velocity": 67}, {"time": 1674, "pitch": 64, "duration": 3, "velocity": 79}, {"time": 1674, "pitch": 67, "duration": 3, "velocity": 73}, {"time": 1677, "pitch": 59, "duration": 1, "velocity": 72}, {"time": 1683, "pitch": 40, "duration": 19, "velocity": 80}, {"time": 1683, "pitch": 59, "duration": 3, "velocity": 71}, {"time": 1683, "pitch": 64, "duration": 6, "velocity": 74}, {"time": 1686, "pitch": 47, "duration": 15, "velocity": 66}, {"time": 1689, "pitch": 59, "duration": 3, "velocity": 78}, {"time": 1692, "pitch": 71, "duration": 3, "velocity": 84}, {"time": 1698, "pitch": 64, "duration": 3, "velocity": 80}, {"time": 1701, "pitch": 59, "duration": 7, "velocity": 81}, {"time": 1707, "pitch": 45, "duration": 22, "velocity": 80}, {"time": 1710, "pitch": 52, "duration": 7, "velocity": 70}, {"time": 1713, "pitch": 57, "duration": 1, "velocity": 74}, {"time": 1716, "pitch": 57, "duration": 4, "velocity": 80}, {"time": 1716, "pitch": 60, "duration": 4, "velocity": 81}, {"time": 1719, "pitch": 52, "duration": 10, "velocity": 71}, {"time": 1722, "pitch": 59, "duration": 6, "velocity": 73}, {"time": 1728, "pitch": 60, "duration": 9, "velocity": 74}, {"time": 1731, "pitch": 45, "duration": 24, "velocity": 80}, {"time": 1734, "pitch": 52, "duration": 7, "velocity": 73}, {"time": 1737, "pitch": 57, "duration": 1, "velocity": 72}, {"time": 1740, "pitch": 57, "duration": 4, "velocity": 79}, {"time": 1740, "pitch": 64, "duration": 6, "velocity": 83}, {"time": 1743, "pitch": 52, "duration": 12, "velocity": 79}, {"time": 1746, "pitch": 57, "duration": 3, "velocity": 73}, {"time": 1746, "pitch": 62, "duration": 3, "velocity": 78}, {"time": 1749, "pitch": 60, "duration": 3, "velocity": 75}, {"time": 1752, "pitch": 59, "duration": 2, "velocity": 70}, {"time": 1755, "pitch": 45, "duration": 1, "velocity": 84}, {"time": 1755, "pitch": 57, "duration": 3, "velocity": 77}, {"time": 1755, "pitch": 64, "duration": 3, "velocity": 82}, {"time": 1758, "pitch": 52, "duration": 14, "velocity": 75}, {"time": 1761, "pitch": 57, "duration": 2, "velocity": 86}, {"time": 1764, "pitch": 57, "duration": 9, "velocity": 85}, {"time": 1764, "pitch": 64, "duration": 7, "velocity": 87}, {"time": 1773, "pitch": 64, "duration": 5, "velocity": 71}, {"time": 1773, "pitch": 69, "duration": 5, "velocity": 84}, {"time": 1776, "pitch": 57, "duration": 3, "velocity": 83}, {"time": 1779, "pitch": 38, "duration": 22, "velocity": 87}, {"time": 1782, "pitch": 45, "duration": 19, "velocity": 76}, {"time": 1785, "pitch": 50, "duration": 7, "velocity": 76}, {"time": 1788, "pitch": 57, "duration": 6, "velocity": 84}, {"time": 1794, "pitch": 62, "duration": 7, "velocity": 85}, {"time": 1797, "pitch": 50, "duration": 4, "velocity": 84}, {"time": 1803, "pitch": 38, "duration": 16, "velocity": 86}, {"time": 1803, "pitch": 50, "duration": 3, "velocity": 80}, {"time": 1803, "pitch": 57, "duration": 6, "velocity": 77}, {"time": 1806, "pitch": 45, "duration": 13, "velocity": 72}, {"time": 1809, "pitch": 50, "duration": 5, "velocity": 79}, {"time": 1812, "pitch": 57, "duration": 4, "velocity": 78}, {"time": 1818, "pitch": 50, "duration": 1, "velocity": 79}, {"time": 1818, "pitch": 57, "duration": 4, "velocity": 79}, {"time": 1818, "pitch": 62, "duration": 9, "velocity": 80}, {"time": 1821, "pitch": 50, "duration": 3, "velocity": 84}, {"time": 1824, "pitch": 57, "duration": 2, "velocity": 74}, {"time": 1827, "pitch": 45, "duration": 22, "velocity": 85}, {"time": 1830, "pitch": 52, "duration": 19, "velocity": 75}, {"time": 1833, "pitch": 57, "duration": 1, "velocity": 79}, {"time": 1836, "pitch": 57, "duration": 3, "velocity": 82}, {"time": 1836, "pitch": 64, "duration": 3, "velocity": 84}, {"time": 1842, "pitch": 57, "duration": 1, "velocity": 80}, {"time": 1842, "pitch": 60, "duration": 3, "velocity": 79}, {"time": 1845, "pitch": 57, "duration": 3, "velocity": 84}, {"time": 1848, "pitch": 64, "duration": 6, "velocity": 84}, {"time": 1851, "pitch": 45, "duration": 17, "velocity": 86}, {"time": 1854, "pitch": 52, "duration": 14, "velocity": 77}, {"time": 1857, "pitch": 57, "duration": 2, "velocity": 83}, {"time": 1860, "pitch": 57, "duration": 7, "velocity": 79}, {"time": 1860, "pitch": 69, "duration": 7, "velocity": 84}, {"time": 1869, "pitch": 60, "duration": 3, "velocity": 83}, {"time": 1869, "pitch": 64, "duration": 7, "velocity": 83}, {"time": 1872, "pitch": 57, "duration": 4, "velocity": 80}, {"time": 1875, "pitch": 38, "duration": 20, "velocity": 89}, {"time": 1878, "pitch": 45, "duration": 19, "velocity": 72}, {"time": 1881, "pitch": 57, "duration": 7, "velocity": 85}, {"time": 1884, "pitch": 62, "duration": 6, "velocity": 83}, {"time": 1890, "pitch": 65, "duration": 5, "velocity": 84}, {"time": 1893, "pitch": 57, "duration": 1, "velocity": 84}, {"time": 1899, "pitch": 40, "duration": 22, "velocity": 85}, {"time": 1899, "pitch": 59, "duration": 3, "velocity": 77}, {"time": 1899, "pitch": 64, "duration": 6, "velocity": 80}, {"time": 1902, "pitch": 47, "duration": 19, "velocity": 71}, {"time": 1905, "pitch": 59, "duration": 8, "velocity": 83}, {"time": 1908, "pitch": 64, "duration": 6, "velocity": 85}, {"time": 1914, "pitch": 67, "duration": 5, "velocity": 84}, {"time": 1917, "pitch": 59, "duration": 4, "velocity": 84}, {"time": 1923, "pitch": 36, "duration": 1, "velocity": 79}, {"time": 1923, "pitch": 38, "duration": 22, "velocity": 86}, {"time": 1923, "pitch": 57, "duration": 3, "velocity": 74}, {"time": 1923, "pitch": 62, "duration": 6, "velocity": 78}, {"time": 1926, "pitch": 45, "duration": 19, "velocity": 69}, {"time": 1929, "pitch": 57, "duration": 6, "velocity": 83}, {"time": 1932, "pitch": 62, "duration": 4, "velocity": 84}, {"time": 1938, "pitch": 65, "duration": 5, "velocity": 84}, {"time": 1941, "pitch": 57, "duration": 4, "velocity": 84}, {"time": 1947, "pitch": 38, "duration": 20, "velocity": 86}, {"time": 1947, "pitch": 57, "duration": 3, "velocity": 83}, {"time": 1947, "pitch": 62, "duration": 4, "velocity": 75}, {"time": 1950, "pitch": 45, "duration": 19, "velocity": 75}, {"time": 1953, "pitch": 57, "duration": 1, "velocity": 78}, {"time": 1956, "pitch": 57, "duration": 3, "velocity": 84}, {"time": 1956, "pitch": 65, "duration": 4, "velocity": 82}, {"time": 1962, "pitch": 57, "duration": 1, "velocity": 84}, {"time": 1962, "pitch": 62, "duration": 3, "velocity": 84}, {"time": 1965, "pitch": 57, "duration": 1, "velocity": 83}, {"time": 1971, "pitch": 40, "duration": 17, "velocity": 85}, {"time": 1971, "pitch": 59, "duration": 3, "velocity": 79}, {"time": 1971, "pitch": 64, "duration": 6, "velocity": 83}, {"time": 1974, "pitch": 47, "duration": 14, "velocity": 75}, {"time": 1977, "pitch": 59, "duration": 9, "velocity": 84}, {"time": 1980, "pitch": 64, "duration": 7, "velocity": 81}, {"time": 1986, "pitch": 67, "duration": 5, "velocity": 82}, {"time": 1989, "pitch": 59, "duration": 2, "velocity": 84}, {"time": 1995, "pitch": 45, "duration": 23, "velocity": 82}, {"time": 1995, "pitch": 57, "duration": 4, "velocity": 78}, {"time": 1995, "pitch": 60, "duration": 4, "velocity": 77}, {"time": 1995, "pitch": 64, "duration": 4, "velocity": 82}, {"time": 2001, "pitch": 57, "duration": 2, "velocity": 69}, {"time": 2001, "pitch": 60, "duration": 2, "velocity": 74}, {"time": 2007, "pitch": 57, "duration": 5, "velocity": 84}, {"time": 2007, "pitch": 60, "duration": 5, "velocity": 92}, {"time": 2013, "pitch": 57, "duration": 2, "velocity": 83}, {"time": 2013, "pitch": 60, "duration": 3, "velocity": 85}, {"time": 2019, "pitch": 45, "duration": 21, "velocity": 85}, {"time": 2019, "pitch": 57, "duration": 3, "velocity": 80}, {"time": 2019, "pitch": 60, "duration": 4, "velocity": 82}, {"time": 2022, "pitch": 52, "duration": 10, "velocity": 75}, {"time": 2025, "pitch": 57, "duration": 1, "velocity": 83}, {"time": 2028, "pitch": 60, "duration": 1, "velocity": 79}, {"time": 2031, "pitch": 57, "duration": 3, "velocity": 85}, {"time": 2031, "pitch": 60, "duration": 3, "velocity": 89}, {"time": 2031, "pitch": 64, "duration": 3, "velocity": 89}, {"time": 2034, "pitch": 52, "duration": 9, "velocity": 85}, {"time": 2037, "pitch": 57, "duration": 5, "velocity": 84}, {"time": 2040, "pitch": 60, "duration": 2, "velocity": 79}, {"time": 2043, "pitch": 45, "duration": 19, "velocity": 81}, {"time": 2046, "pitch": 52, "duration": 8, "velocity": 72}, {"time": 2049, "pitch": 60, "duration": 4, "velocity": 68}, {"time": 2052, "pitch": 69, "duration": 4, "velocity": 83}, {"time": 2055, "pitch": 52, "duration": 5, "velocity": 68}, {"time": 2058, "pitch": 57, "duration": 1, "velocity": 68}, {"time": 2058, "pitch": 60, "duration": 3, "velocity": 79}, {"time": 2058, "pitch": 64, "duration": 4, "velocity": 80}, {"time": 2061, "pitch": 57, "duration": 2, "velocity": 67}, {"time": 2067, "pitch": 45, "duration": 18, "velocity": 80}, {"time": 2067, "pitch": 57, "duration": 3, "velocity": 68}, {"time": 2067, "pitch": 60, "duration": 5, "velocity": 72}, {"time": 2070, "pitch": 52, "duration": 7, "velocity": 69}, {"time": 2073, "pitch": 57, "duration": 1, "velocity": 55}, {"time": 2076, "pitch": 57, "duration": 2, "velocity": 74}, {"time": 2076, "pitch": 64, "duration": 2, "velocity": 79}, {"time": 2079, "pitch": 52, "duration": 5, "velocity": 67}, {"time": 2082, "pitch": 57, "duration": 1, "velocity": 74}, {"time": 2082, "pitch": 60, "duration": 3, "velocity": 76}, {"time": 2085, "pitch": 57, "duration": 1, "velocity": 78}, {"time": 2091, "pitch": 40, "duration": 19, "velocity": 82}, {"time": 2091, "pitch": 59, "duration": 3, "velocity": 70}, {"time": 2091, "pitch": 64, "duration": 6, "velocity": 76}, {"time": 2094, "pitch": 47, "duration": 15, "velocity": 63}, {"time": 2097, "pitch": 59, "duration": 4, "velocity": 71}, {"time": 2100, "pitch": 64, "duration": 1, "velocity": 63}, {"time": 2103, "pitch": 67, "duration": 5, "velocity": 81}, {"time": 2106, "pitch": 59, "duration": 3, "velocity": 74}, {"time": 2109, "pitch": 64, "duration": 4, "velocity": 73}, {"time": 2112, "pitch": 59, "duration": 2, "velocity": 74}, {"time": 2115, "pitch": 40, "duration": 6, "velocity": 81}, {"time": 2115, "pitch": 59, "duration": 2, "velocity": 75}, {"time": 2115, "pitch": 64, "duration": 5, "velocity": 75}, {"time": 2118, "pitch": 47, "duration": 4, "velocity": 65}, {"time": 2121, "pitch": 59, "duration": 4, "velocity": 73}, {"time": 2124, "pitch": 64, "duration": 3, "velocity": 72}, {"time": 2127, "pitch": 67, "duration": 3, "velocity": 80}, {"time": 2130, "pitch": 64, "duration": 3, "velocity": 78}, {"time": 2133, "pitch": 59, "duration": 1, "velocity": 81}, {"time": 2139, "pitch": 45, "duration": 22, "velocity": 79}, {"time": 2139, "pitch": 57, "duration": 3, "velocity": 67}, {"time": 2139, "pitch": 60, "duration": 6, "velocity": 74}, {"time": 2142, "pitch": 52, "duration": 19, "velocity": 69}, {"time": 2145, "pitch": 57, "duration": 3, "velocity": 69}, {"time": 2148, "pitch": 60, "duration": 1, "velocity": 61}, {"time": 2151, "pitch": 64, "duration": 2, "velocity": 82}, {"time": 2154, "pitch": 57, "duration": 3, "velocity": 75}, {"time": 2157, "pitch": 60, "duration": 3, "velocity": 72}, {"time": 2160, "pitch": 57, "duration": 2, "velocity": 70}, {"time": 2163, "pitch": 50, "duration": 15, "velocity": 78}, {"time": 2163, "pitch": 62, "duration": 6, "velocity": 78}, {"time": 2169, "pitch": 57, "duration": 3, "velocity": 68}, {"time": 2172, "pitch": 62, "duration": 3, "velocity": 67}, {"time": 2175, "pitch": 65, "duration": 3, "velocity": 80}, {"time": 2178, "pitch": 62, "duration": 3, "velocity": 73}, {"time": 2181, "pitch": 57, "duration": 1, "velocity": 68}, {"time": 2187, "pitch": 40, "duration": 22, "velocity": 87}, {"time": 2187, "pitch": 52, "duration": 4, "velocity": 84}, {"time": 2187, "pitch": 59, "duration": 5, "velocity": 83}, {"time": 2187, "pitch": 64, "duration": 4, "velocity": 84}, {"time": 2193, "pitch": 52, "duration": 3, "velocity": 83}, {"time": 2193, "pitch": 59, "duration": 3, "velocity": 78}, {"time": 2193, "pitch": 64, "duration": 2, "velocity": 70}, {"time": 2199, "pitch": 52, "duration": 3, "velocity": 83}, {"time": 2199, "pitch": 59, "duration": 3, "velocity": 83}, {"time": 2199, "pitch": 64, "duration": 3, "velocity": 86}, {"time": 2205, "pitch": 52, "duration": 4, "velocity": 85}, {"time": 2205, "pitch": 59, "duration": 4, "velocity": 84}, {"time": 2205, "pitch": 64, "duration": 4, "velocity": 85}, {"time": 2211, "pitch": 40, "duration": 24, "velocity": 85}, {"time": 2211, "pitch": 52, "duration": 4, "velocity": 83}, {"time": 2211, "pitch": 59, "duration": 4, "velocity": 83}, {"time": 2211, "pitch": 64, "duration": 4, "velocity": 84}, {"time": 2217, "pitch": 52, "duration": 4, "velocity": 85}, {"time": 2217, "pitch": 59, "duration": 4, "velocity": 83}, {"time": 2217, "pitch": 64, "duration": 3, "velocity": 84}, {"time": 2220, "pitch": 47, "duration": 4, "velocity": 83}, {"time": 2223, "pitch": 52, "duration": 3, "velocity": 92}, {"time": 2223, "pitch": 59, "duration": 6, "velocity": 87}, {"time": 2223, "pitch": 64, "duration": 6, "velocity": 87}, {"time": 2226, "pitch": 47, "duration": 9, "velocity": 88}, {"time": 2229, "pitch": 52, "duration": 5, "velocity": 94}, {"time": 2232, "pitch": 59, "duration": 2, "velocity": 83}, {"time": 2235, "pitch": 45, "duration": 19, "velocity": 81}, {"time": 2238, "pitch": 52, "duration": 8, "velocity": 72}, {"time": 2241, "pitch": 60, "duration": 4, "velocity": 68}, {"time": 2244, "pitch": 69, "duration": 4, "velocity": 83}, {"time": 2247, "pitch": 52, "duration": 5, "velocity": 68}, {"time": 2250, "pitch": 57, "duration": 1, "velocity": 68}, {"time": 2250, "pitch": 60, "duration": 3, "velocity": 79}, {"time": 2250, "pitch": 64, "duration": 4, "velocity": 80}, {"time": 2253, "pitch": 57, "duration": 2, "velocity": 67}, {"time": 2259, "pitch": 45, "duration": 18, "velocity": 80}, {"time": 2259, "pitch": 57, "duration": 3, "velocity": 68}, {"time": 2259, "pitch": 60, "duration": 5, "velocity": 72}, {"time": 2262, "pitch": 52, "duration": 7, "velocity": 69}, {"time": 2265, "pitch": 57, "duration": 1, "velocity": 55}, {"time": 2268, "pitch": 57, "duration": 2, "velocity": 74}, {"time": 2268, "pitch": 64, "duration": 2, "velocity": 79}, {"time": 2271, "pitch": 52, "duration": 5, "velocity": 67}, {"time": 2274, "pitch": 57, "duration": 1, "velocity": 74}, {"time": 2274, "pitch": 60, "duration": 3, "velocity": 76}, {"time": 2277, "pitch": 57, "duration": 1, "velocity": 78}, {"time": 2283, "pitch": 40, "duration": 19, "velocity": 82}, {"time": 2283, "pitch": 59, "duration": 3, "velocity": 70}, {"time": 2283, "pitch": 64, "duration": 6, "velocity": 76}, {"time": 2286, "pitch": 47, "duration": 15, "velocity": 63}, {"time": 2289, "pitch": 59, "duration": 4, "velocity": 71}, {"time": 2292, "pitch": 64, "duration": 1, "velocity": 63}, {"time": 2295, "pitch": 67, "duration": 5, "velocity": 81}, {"time": 2298, "pitch": 59, "duration": 3, "velocity": 74}, {"time": 2301, "pitch": 64, "duration": 4, "velocity": 73}, {"time": 2304, "pitch": 59, "duration": 2, "velocity": 74}, {"time": 2307, "pitch": 40, "duration": 6, "velocity": 81}, {"time": 2307, "pitch": 59, "duration": 2, "velocity": 75}, {"time": 2307, "pitch": 64, "duration": 5, "velocity": 75}, {"time": 2310, "pitch": 47, "duration": 4, "velocity": 65}, {"time": 2313, "pitch": 59, "duration": 4, "velocity": 73}, {"time": 2316, "pitch": 64, "duration": 3, "velocity": 72}, {"time": 2319, "pitch": 67, "duration": 3, "velocity": 80}, {"time": 2322, "pitch": 64, "duration": 3, "velocity": 78}, {"time": 2325, "pitch": 59, "duration": 1, "velocity": 81}, {"time": 2331, "pitch": 45, "duration": 22, "velocity": 79}, {"time": 2331, "pitch": 57, "duration": 3, "velocity": 67}, {"time": 2331, "pitch": 60, "duration": 6, "velocity": 74}, {"time": 2334, "pitch": 52, "duration": 19, "velocity": 69}, {"time": 2337, "pitch": 57, "duration": 3, "velocity": 69}, {"time": 2340, "pitch": 60, "duration": 1, "velocity": 61}, {"time": 2343, "pitch": 64, "duration": 2, "velocity": 82}, {"time": 2346, "pitch": 57, "duration": 3, "velocity": 75}, {"time": 2349, "pitch": 60, "duration": 3, "velocity": 72}, {"time": 2352, "pitch": 57, "duration": 2, "velocity": 70}, {"time": 2355, "pitch": 50, "duration": 15, "velocity": 78}, {"time": 2355, "pitch": 62, "duration": 6, "velocity": 78}, {"time": 2361, "pitch": 57, "duration": 3, "velocity": 68}, {"time": 2364, "pitch": 62, "duration": 3, "velocity": 67}, {"time": 2367, "pitch": 65, "duration": 3, "velocity": 80}, {"time": 2370, "pitch": 62, "duration": 3, "velocity": 73}, {"time": 2373, "pitch": 57, "duration": 1, "velocity": 68}, {"time": 2379, "pitch": 40, "duration": 20, "velocity": 81}, {"time": 2379, "pitch": 59, "duration": 3, "velocity": 70}, {"time": 2379, "pitch": 64, "duration": 6, "velocity": 75}, {"time": 2382, "pitch": 47, "duration": 16, "velocity": 67}, {"time": 2385, "pitch": 59, "duration": 3, "velocity": 68}, {"time": 2388, "pitch": 64, "duration": 1, "velocity": 67}, {"time": 2391, "pitch": 59, "duration": 2, "velocity": 79}, {"time": 2391, "pitch": 67, "duration": 3, "velocity": 74}, {"time": 2394, "pitch": 64, "duration": 3, "velocity": 70}, {"time": 2397, "pitch": 59, "duration": 1, "velocity": 79}, {"time": 2403, "pitch": 40, "duration": 20, "velocity": 82}, {"time": 2403, "pitch": 59, "duration": 3, "velocity": 79}, {"time": 2403, "pitch": 64, "duration": 4, "velocity": 80}, {"time": 2406, "pitch": 47, "duration": 11, "velocity": 62}, {"time": 2409, "pitch": 59, "duration": 1, "velocity": 35}, {"time": 2412, "pitch": 59, "duration": 1, "velocity": 71}, {"time": 2412, "pitch": 64, "duration": 1, "velocity": 78}, {"time": 2415, "pitch": 59, "duration": 2, "velocity": 80}, {"time": 2415, "pitch": 64, "duration": 4, "velocity": 83}, {"time": 2418, "pitch": 59, "duration": 1, "velocity": 63}, {"time": 2418, "pitch": 69, "duration": 3, "velocity": 79}, {"time": 2421, "pitch": 59, "duration": 2, "velocity": 75}, {"time": 2421, "pitch": 64, "duration": 4, "velocity": 83}, {"time": 2421, "pitch": 71, "duration": 5, "velocity": 88}, {"time": 2427, "pitch": 38, "duration": 22, "velocity": 80}, {"time": 2427, "pitch": 57, "duration": 4, "velocity": 73}, {"time": 2427, "pitch": 62, "duration": 6, "velocity": 75}, {"time": 2430, "pitch": 45, "duration": 17, "velocity": 64}, {"time": 2433, "pitch": 57, "duration": 5, "velocity": 67}, {"time": 2436, "pitch": 62, "duration": 4, "velocity": 79}, {"time": 2442, "pitch": 65, "duration": 1, "velocity": 85}, {"time": 2448, "pitch": 57, "duration": 1, "velocity": 73}, {"time": 2451, "pitch": 38, "duration": 19, "velocity": 81}, {"time": 2451, "pitch": 57, "duration": 3, "velocity": 72}, {"time": 2451, "pitch": 62, "duration": 5, "velocity": 79}, {"time": 2454, "pitch": 45, "duration": 16, "velocity": 60}, {"time": 2457, "pitch": 57, "duration": 1, "velocity": 64}, {"time": 2460, "pitch": 57, "duration": 2, "velocity": 80}, {"time": 2460, "pitch": 65, "duration": 4, "velocity": 76}, {"time": 2466, "pitch": 57, "duration": 2, "velocity": 77}, {"time": 2466, "pitch": 62, "duration": 2, "velocity": 77}, {"time": 2475, "pitch": 40, "duration": 18, "velocity": 81}, {"time": 2475, "pitch": 59, "duration": 3, "velocity": 73}, {"time": 2475, "pitch": 64, "duration": 5, "velocity": 79}, {"time": 2478, "pitch": 47, "duration": 13, "velocity": 64}, {"time": 2481, "pitch": 59, "duration": 3, "velocity": 70}, {"time": 2484, "pitch": 67, "duration": 6, "velocity": 80}, {"time": 2490, "pitch": 64, "duration": 3, "velocity": 81}, {"time": 2493, "pitch": 59, "duration": 4, "velocity": 72}, {"time": 2496, "pitch": 64, "duration": 5, "velocity": 76}, {"time": 2499, "pitch": 45, "duration": 19, "velocity": 80}, {"time": 2502, "pitch": 52, "duration": 15, "velocity": 70}, {"time": 2505, "pitch": 57, "duration": 1, "velocity": 67}, {"time": 2508, "pitch": 57, "duration": 2, "velocity": 79}, {"time": 2508, "pitch": 64, "duration": 2, "velocity": 81}, {"time": 2514, "pitch": 57, "duration": 1, "velocity": 71}, {"time": 2514, "pitch": 60, "duration": 6, "velocity": 73}, {"time": 2517, "pitch": 57, "duration": 5, "velocity": 68}, {"time": 2523, "pitch": 40, "duration": 16, "velocity": 81}, {"time": 2523, "pitch": 59, "duration": 5, "velocity": 75}, {"time": 2526, "pitch": 47, "duration": 13, "velocity": 65}, {"time": 2529, "pitch": 55, "duration": 3, "velocity": 75}, {"time": 2532, "pitch": 59, "duration": 2, "velocity": 79}, {"time": 2535, "pitch": 64, "duration": 3, "velocity": 88}, {"time": 2538, "pitch": 59, "duration": 3, "velocity": 81}, {"time": 2541, "pitch": 55, "duration": 2, "velocity": 79}, {"time": 2547, "pitch": 45, "duration": 22, "velocity": 80}, {"time": 2547, "pitch": 57, "duration": 3, "velocity": 73}, {"time": 2547, "pitch": 60, "duration": 6, "velocity": 74}, {"time": 2550, "pitch": 52, "duration": 6, "velocity": 72}, {"time": 2556, "pitch": 57, "duration": 4, "velocity": 75}, {"time": 2556, "pitch": 64, "duration": 4, "velocity": 81}, {"time": 2559, "pitch": 52, "duration": 10, "velocity": 76}, {"time": 2562, "pitch": 57, "duration": 4, "velocity": 73}, {"time": 2562, "pitch": 60, "duration": 5, "velocity": 75}, {"time": 2568, "pitch": 59, "duration": 3, "velocity": 75}, {"time": 2571, "pitch": 45, "duration": 21, "velocity": 80}, {"time": 2571, "pitch": 57, "duration": 3, "velocity": 71}, {"time": 2574, "pitch": 52, "duration": 7, "velocity": 73}, {"time": 2577, "pitch": 57, "duration": 1, "velocity": 65}, {"time": 2580, "pitch": 57, "duration": 4, "velocity": 79}, {"time": 2580, "pitch": 64, "duration": 4, "velocity": 82}, {"time": 2583, "pitch": 52, "duration": 9, "velocity": 79}, {"time": 2586, "pitch": 57, "duration": 1, "velocity": 74}, {"time": 2586, "pitch": 60, "duration": 4, "velocity": 79}, {"time": 2589, "pitch": 57, "duration": 6, "velocity": 72}, {"time": 2595, "pitch": 45, "duration": 19, "velocity": 81}, {"time": 2598, "pitch": 52, "duration": 8, "velocity": 72}, {"time": 2601, "pitch": 60, "duration": 4, "velocity": 68}, {"time": 2604, "pitch": 69, "duration": 4, "velocity": 83}, {"time": 2607, "pitch": 52, "duration": 5, "velocity": 68}, {"time": 2610, "pitch": 57, "duration": 1, "velocity": 68}, {"time": 2610, "pitch": 60, "duration": 3, "velocity": 79}, {"time": 2610, "pitch": 64, "duration": 4, "velocity": 80}, {"time": 2613, "pitch": 57, "duration": 2, "velocity": 67}, {"time": 2619, "pitch": 45, "duration": 18, "velocity": 80}, {"time": 2619, "pitch": 57, "duration": 3, "velocity": 68}, {"time": 2619, "pitch": 60, "duration": 5, "velocity": 72}, {"time": 2622, "pitch": 52, "duration": 7, "velocity": 69}, {"time": 2625, "pitch": 57, "duration": 1, "velocity": 55}, {"time": 2628, "pitch": 57, "duration": 2, "velocity": 74}, {"time": 2628, "pitch": 64, "duration": 2, "velocity": 79}, {"time": 2631, "pitch": 52, "duration": 5, "velocity": 67}, {"time": 2634, "pitch": 57, "duration": 1, "velocity": 74}, {"time": 2634, "pitch": 60, "duration": 3, "velocity": 76}, {"time": 2637, "pitch": 57, "duration": 1, "velocity": 78}, {"time": 2643, "pitch": 40, "duration": 19, "velocity": 82}, {"time": 2643, "pitch": 59, "duration": 3, "velocity": 70}, {"time": 2643, "pitch": 64, "duration": 6, "velocity": 76}, {"time": 2646, "pitch": 47, "duration": 15, "velocity": 63}, {"time": 2649, "pitch": 59, "duration": 4, "velocity": 71}, {"time": 2652, "pitch": 64, "duration": 1, "velocity": 63}, {"time": 2655, "pitch": 67, "duration": 5, "velocity": 81}, {"time": 2658, "pitch": 59, "duration": 3, "velocity": 74}, {"time": 2661, "pitch": 64, "duration": 4, "velocity": 73}, {"time": 2664, "pitch": 59, "duration": 2, "velocity": 74}, {"time": 2667, "pitch": 40, "duration": 6, "velocity": 81}, {"time": 2667, "pitch": 59, "duration": 2, "velocity": 75}, {"time": 2667, "pitch": 64, "duration": 5, "velocity": 75}, {"time": 2670, "pitch": 47, "duration": 4, "velocity": 65}, {"time": 2673, "pitch": 59, "duration": 4, "velocity": 73}, {"time": 2676, "pitch": 64, "duration": 3, "velocity": 72}, {"time": 2679, "pitch": 67, "duration": 3, "velocity": 80}, {"time": 2682, "pitch": 64, "duration": 3, "velocity": 78}, {"time": 2685, "pitch": 59, "duration": 1, "velocity": 81}, {"time": 2691, "pitch": 45, "duration": 22, "velocity": 79}, {"time": 2691, "pitch": 57, "duration": 3, "velocity": 67}, {"time": 2691, "pitch": 60, "duration": 6, "velocity": 74}, {"time": 2694, "pitch": 52, "duration": 19, "velocity": 69}, {"time": 2697, "pitch": 57, "duration": 3, "velocity": 69}, {"time": 2700, "pitch": 60, "duration": 1, "velocity": 61}, {"time": 2703, "pitch": 64, "duration": 2, "velocity": 82}, {"time": 2706, "pitch": 57, "duration": 3, "velocity": 75}, {"time": 2709, "pitch": 60, "duration": 3, "velocity": 72}, {"time": 2712, "pitch": 57, "duration": 2, "velocity": 70}, {"time": 2715, "pitch": 50, "duration": 15, "velocity": 78}, {"time": 2715, "pitch": 62, "duration": 6, "velocity": 78}, {"time": 2721, "pitch": 57, "duration": 3, "velocity": 68}, {"time": 2724, "pitch": 62, "duration": 3, "velocity": 67}, {"time": 2727, "pitch": 65, "duration": 3, "velocity": 80}, {"time": 2730, "pitch": 62, "duration": 3, "velocity": 73}, {"time": 2733, "pitch": 57, "duration": 1, "velocity": 68}, {"time": 2739, "pitch": 40, "duration": 20, "velocity": 81}, {"time": 2739, "pitch": 59, "duration": 3, "velocity": 70}, {"time": 2739, "pitch": 64, "duration": 6, "velocity": 75}, {"time": 2742, "pitch": 47, "duration": 16, "velocity": 67}, {"time": 2745, "pitch": 59, "duration": 3, "velocity": 68}, {"time": 2748, "pitch": 64, "duration": 1, "velocity": 67}, {"time": 2751, "pitch": 59, "duration": 2, "velocity": 79}, {"time": 2751, "pitch": 67, "duration": 3, "velocity": 74}, {"time": 2754, "pitch": 64, "duration": 3, "velocity": 70}, {"time": 2757, "pitch": 59, "duration": 1, "velocity": 79}, {"time": 2763, "pitch": 40, "duration": 20, "velocity": 82}, {"time": 2763, "pitch": 59, "duration": 3, "velocity": 79}, {"time": 2763, "pitch": 64, "duration": 4, "velocity": 80}, {"time": 2766, "pitch": 47, "duration": 11, "velocity": 62}, {"time": 2769, "pitch": 59, "duration": 1, "velocity": 35}, {"time": 2772, "pitch": 59, "duration": 1, "velocity": 71}, {"time": 2772, "pitch": 64, "duration": 1, "velocity": 78}, {"time": 2775, "pitch": 59, "duration": 2, "velocity": 80}, {"time": 2775, "pitch": 64, "duration": 4, "velocity": 83}, {"time": 2778, "pitch": 59, "duration": 1, "velocity": 63}, {"time": 2778, "pitch": 69, "duration": 3, "velocity": 79}, {"time": 2781, "pitch": 59, "duration": 2, "velocity": 75}, {"time": 2781, "pitch": 64, "duration": 4, "velocity": 83}, {"time": 2781, "pitch": 71, "duration": 5, "velocity": 88}, {"time": 2787, "pitch": 38, "duration": 22, "velocity": 80}, {"time": 2787, "pitch": 57, "duration": 4, "velocity": 73}, {"time": 2787, "pitch": 62, "duration": 6, "velocity": 75}, {"time": 2790, "pitch": 45, "duration": 17, "velocity": 64}, {"time": 2793, "pitch": 57, "duration": 5, "velocity": 67}, {"time": 2796, "pitch": 62, "duration": 4, "velocity": 79}, {"time": 2802, "pitch": 65, "duration": 1, "velocity": 85}, {"time": 2808, "pitch": 57, "duration": 1, "velocity": 73}, {"time": 2811, "pitch": 38, "duration": 19, "velocity": 81}, {"time": 2811, "pitch": 57, "duration": 3, "velocity": 72}, {"time": 2811, "pitch": 62, "duration": 5, "velocity": 79}, {"time": 2814, "pitch": 45, "duration": 16, "velocity": 60}, {"time": 2817, "pitch": 57, "duration": 1, "velocity": 64}, {"time": 2820, "pitch": 57, "duration": 2, "velocity": 80}, {"time": 2820, "pitch": 65, "duration": 4, "velocity": 76}, {"time": 2826, "pitch": 57, "duration": 2, "velocity": 77}, {"time": 2826, "pitch": 62, "duration": 2, "velocity": 77}, {"time": 2835, "pitch": 40, "duration": 18, "velocity": 81}, {"time": 2835, "pitch": 59, "duration": 3, "velocity": 73}, {"time": 2835, "pitch": 64, "duration": 5, "velocity": 79}, {"time": 2838, "pitch": 47, "duration": 13, "velocity": 64}, {"time": 2841, "pitch": 59, "duration": 3, "velocity": 70}, {"time": 2844, "pitch": 67, "duration": 6, "velocity": 80}, {"time": 2850, "pitch": 64, "duration": 3, "velocity": 81}, {"time": 2853, "pitch": 59, "duration": 4, "velocity": 72}, {"time": 2856, "pitch": 64, "duration": 5, "velocity": 76}, {"time": 2859, "pitch": 45, "duration": 19, "velocity": 80}, {"time": 2862, "pitch": 52, "duration": 15, "velocity": 70}, {"time": 2865, "pitch": 57, "duration": 1, "velocity": 67}, {"time": 2868, "pitch": 57, "duration": 2, "velocity": 79}, {"time": 2868, "pitch": 64, "duration": 2, "velocity": 81}, {"time": 2874, "pitch": 57, "duration": 1, "velocity": 71}, {"time": 2874, "pitch": 60, "duration": 6, "velocity": 73}, {"time": 2877, "pitch": 57, "duration": 5, "velocity": 68}, {"time": 2883, "pitch": 40, "duration": 16, "velocity": 81}, {"time": 2883, "pitch": 59, "duration": 5, "velocity": 75}, {"time": 2886, "pitch": 47, "duration": 13, "velocity": 65}, {"time": 2889, "pitch": 55, "duration": 3, "velocity": 75}, {"time": 2892, "pitch": 59, "duration": 2, "velocity": 79}, {"time": 2895, "pitch": 64, "duration": 3, "velocity": 88}, {"time": 2898, "pitch": 59, "duration": 3, "velocity": 81}, {"time": 2901, "pitch": 55, "duration": 2, "velocity": 79}, {"time": 2907, "pitch": 45, "duration": 22, "velocity": 80}, {"time": 2907, "pitch": 57, "duration": 3, "velocity": 73}, {"time": 2907, "pitch": 60, "duration": 6, "velocity": 74}, {"time": 2910, "pitch": 52, "duration": 6, "velocity": 72}, {"time": 2916, "pitch": 57, "duration": 4, "velocity": 75}, {"time": 2916, "pitch": 64, "duration": 4, "velocity": 81}, {"time": 2919, "pitch": 52, "duration": 10, "velocity": 76}, {"time": 2922, "pitch": 57, "duration": 4, "velocity": 73}, {"time": 2922, "pitch": 60, "duration": 5, "velocity": 75}, {"time": 2928, "pitch": 59, "duration": 3, "velocity": 75}, {"time": 2931, "pitch": 45, "duration": 21, "velocity": 80}, {"time": 2931, "pitch": 57, "duration": 3, "velocity": 71}, {"time": 2934, "pitch": 52, "duration": 7, "velocity": 73}, {"time": 2937, "pitch": 57, "duration": 1, "velocity": 65}, {"time": 2940, "pitch": 57, "duration": 4, "velocity": 79}, {"time": 2940, "pitch": 64, "duration": 4, "velocity": 82}, {"time": 2943, "pitch": 52, "duration": 9, "velocity": 79}, {"time": 2946, "pitch": 57, "duration": 1, "velocity": 74}, {"time": 2946, "pitch": 60, "duration": 4, "velocity": 79}, {"time": 2949, "pitch": 57, "duration": 6, "velocity": 72}, {"time": 2954, "pitch": 40, "duration": 29, "velocity": 83}, {"time": 2954, "pitch": 59, "duration": 7, "velocity": 77}, {"time": 2955, "pitch": 52, "duration": 3, "velocity": 73}, {"time": 2958, "pitch": 47, "duration": 20, "velocity": 74}, {"time": 2961, "pitch": 52, "duration": 7, "velocity": 77}, {"time": 2964, "pitch": 55, "duration": 4, "velocity": 75}, {"time": 2968, "pitch": 59, "duration": 8, "velocity": 79}, {"time": 2971, "pitch": 55, "duration": 5, "velocity": 70}, {"time": 2976, "pitch": 64, "duration": 2, "velocity": 79}, {"time": 2982, "pitch": 47, "duration": 2, "velocity": 69}, {"time": 2988, "pitch": 45, "duration": 27, "velocity": 82}, {"time": 2992, "pitch": 52, "duration": 14, "velocity": 77}, {"time": 2996, "pitch": 57, "duration": 5, "velocity": 80}, {"time": 3000, "pitch": 60, "duration": 2, "velocity": 75}, {"time": 3004, "pitch": 60, "duration": 4, "velocity": 81}, {"time": 3004, "pitch": 64, "duration": 5, "velocity": 82}, {"time": 3004, "pitch": 57, "duration": 6, "velocity": 74}, {"time": 3009, "pitch": 52, "duration": 7, "velocity": 83}, {"time": 3013, "pitch": 60, "duration": 5, "velocity": 71}, {"time": 3014, "pitch": 64, "duration": 5, "velocity": 79}, {"time": 3018, "pitch": 57, "duration": 2, "velocity": 68}, {"time": 3021, "pitch": 57, "duration": 2, "velocity": 64}, {"time": 3022, "pitch": 60, "duration": 2, "velocity": 76}, {"time": 3023, "pitch": 45, "duration": 1, "velocity": 80}, {"time": 3024, "pitch": 64, "duration": 1, "velocity": 72}, {"time": 3024, "pitch": 69, "duration": 5, "velocity": 79}, {"time": 3029, "pitch": 57, "duration": 25, "velocity": 62}, {"time": 3032, "pitch": 64, "duration": 22, "velocity": 62}, {"time": 3034, "pitch": 69, "duration": 2, "velocity": 53}, {"time": 3036, "pitch": 76, "duration": 3, "velocity": 68}, {"time": 3038, "pitch": 69, "duration": 2, "velocity": 68}, {"time": 3040, "pitch": 81, "duration": 2, "velocity": 72}], "annotations": [{"time": 53, "annotation": {"number": 64, "value": 127}, "group": "control_change"}, {"time": 53, "annotation": {"number": 64, "value": 0}, "group": "control_change"}, {"time": 54, "annotation": {"number": 64, "value": 0}, "group": "control_change"}, {"time": 54, "annotation": {"number": 64, "value": 127}, "group": "control_change"}, {"time": 74, "annotation": {"number": 64, "value": 0}, "group": "control_change"}, {"time": 76, "annotation": {"number": 64, "value": 127}, "group": "control_change"}, {"time": 98, "annotation": {"number": 64, "value": 0}, "group": "control_change"}, {"time": 102, "annotation": {"number": 64, "value": 127}, "group": "control_change"}, {"time": 121, "annotation": {"number": 64, "value": 0}, "group": "control_change"}, {"time": 124, "annotation": {"number": 64, "value": 127}, "group": "control_change"}, {"time": 145, "annotation": {"number": 64, "value": 0}, "group": "control_change"}, {"time": 149, "annotation": {"number": 64, "value": 127}, "group": "control_change"}, {"time": 169, "annotation": {"number": 64, "value": 0}, "group": "control_change"}, {"time": 172, "annotation": {"number": 64, "value": 127}, "group": "control_change"}, {"time": 194, "annotation": {"number": 64, "value": 0}, "group": "control_change"}, {"time": 197, "annotation": {"number": 64, "value": 127}, "group": "control_change"}, {"time": 217, "annotation": {"number": 64, "value": 0}, "group": "control_change"}, {"time": 219, "annotation": {"number": 64, "value": 127}, "group": "control_change"}, {"time": 241, "annotation": {"number": 64, "value": 0}, "group": "control_change"}, {"time": 245, "annotation": {"number": 64, "value": 127}, "group": "control_change"}, {"time": 245, "annotation": {"number": 64, "value": 0}, "group": "control_change"}, {"time": 266, "annotation": {"number": 64, "value": 0}, "group": "control_change"}, {"time": 269, "annotation": {"number": 64, "value": 127}, "group": "control_change"}, {"time": 290, "annotation": {"number": 64, "value": 0}, "group": "control_change"}, {"time": 294, "annotation": {"number": 64, "value": 127}, "group": "control_change"}, {"time": 313, "annotation": {"number": 64, "value": 0}, "group": "control_change"}, {"time": 318, "annotation": {"number": 64, "value": 127}, "group": "control_change"}, {"time": 337, "annotation": {"number": 64, "value": 0}, "group": "control_change"}, {"time": 340, "annotation": {"number": 64, "value": 127}, "group": "control_change"}, {"time": 361, "annotation": {"number": 64, "value": 0}, "group": "control_change"}, {"time": 364, "annotation": {"number": 64, "value": 127}, "group": "control_change"}, {"time": 385, "annotation": {"number": 64, "value": 0}, "group": "control_change"}, {"time": 389, "annotation": {"number": 64, "value": 127}, "group": "control_change"}, {"time": 410, "annotation": {"number": 64, "value": 0}, "group": "control_change"}, {"time": 412, "annotation": {"number": 64, "value": 127}, "group": "control_change"}, {"time": 433, "annotation": {"number": 64, "value": 0}, "group": "control_change"}, {"time": 436, "annotation": {"number": 64, "value": 127}, "group": "control_change"}, {"time": 457, "annotation": {"number": 64, "value": 0}, "group": "control_change"}, {"time": 460, "annotation": {"number": 64, "value": 127}, "group": "control_change"}, {"time": 481, "annotation": {"number": 64, "value": 0}, "group": "control_change"}, {"time": 487, "annotation": {"number": 64, "value": 127}, "group": "control_change"}, {"time": 505, "annotation": {"number": 64, "value": 0}, "group": "control_change"}, {"time": 507, "annotation": {"number": 64, "value": 127}, "group": "control_change"}, {"time": 528, "annotation": {"number": 64, "value": 0}, "group": "control_change"}, {"time": 531, "annotation": {"number": 64, "value": 127}, "group": "control_change"}, {"time": 553, "annotation": {"number": 64, "value": 0}, "group": "control_change"}, {"time": 557, "annotation": {"number": 64, "value": 127}, "group": "control_change"}, {"time": 576, "annotation": {"number": 64, "value": 0}, "group": "control_change"}, {"time": 580, "annotation": {"number": 64, "value": 127}, "group": "control_change"}, {"time": 600, "annotation": {"number": 64, "value": 0}, "group": "control_change"}, {"time": 603, "annotation": {"number": 64, "value": 127}, "group": "control_change"}, {"time": 624, "annotation": {"number": 64, "value": 0}, "group": "control_change"}, {"time": 627, "annotation": {"number": 64, "value": 127}, "group": "control_change"}, {"time": 649, "annotation": {"number": 64, "value": 0}, "group": "control_change"}, {"time": 652, "annotation": {"number": 64, "value": 127}, "group": "control_change"}, {"time": 673, "annotation": {"number": 64, "value": 0}, "group": "control_change"}, {"time": 675, "annotation": {"number": 64, "value": 127}, "group": "control_change"}, {"time": 697, "annotation": {"number": 64, "value": 0}, "group": "control_change"}, {"time": 699, "annotation": {"number": 64, "value": 127}, "group": "control_change"}, {"time": 721, "annotation": {"number": 64, "value": 0}, "group": "control_change"}, {"time": 723, "annotation": {"number": 64, "value": 127}, "group": "control_change"}, {"time": 746, "annotation": {"number": 64, "value": 0}, "group": "control_change"}, {"time": 749, "annotation": {"number": 64, "value": 127}, "group": "control_change"}, {"time": 769, "annotation": {"number": 64, "value": 0}, "group": "control_change"}, {"time": 771, "annotation": {"number": 64, "value": 127}, "group": "control_change"}, {"time": 792, "annotation": {"number": 64, "value": 0}, "group": "control_change"}, {"time": 795, "annotation": {"number": 64, "value": 127}, "group": "control_change"}, {"time": 818, "annotation": {"number": 64, "value": 0}, "group": "control_change"}, {"time": 818, "annotation": {"number": 64, "value": 127}, "group": "control_change"}, {"time": 842, "annotation": {"number": 64, "value": 0}, "group": "control_change"}, {"time": 843, "annotation": {"number": 64, "value": 127}, "group": "control_change"}, {"time": 864, "annotation": {"number": 64, "value": 0}, "group": "control_change"}, {"time": 870, "annotation": {"number": 64, "value": 127}, "group": "control_change"}, {"time": 890, "annotation": {"number": 64, "value": 0}, "group": "control_change"}, {"time": 892, "annotation": {"number": 64, "value": 127}, "group": "control_change"}, {"time": 914, "annotation": {"number": 64, "value": 0}, "group": "control_change"}, {"time": 916, "annotation": {"number": 64, "value": 127}, "group": "control_change"}, {"time": 937, "annotation": {"number": 64, "value": 0}, "group": "control_change"}, {"time": 939, "annotation": {"number": 64, "value": 127}, "group": "control_change"}, {"time": 961, "annotation": {"number": 64, "value": 0}, "group": "control_change"}, {"time": 966, "annotation": {"number": 64, "value": 127}, "group": "control_change"}, {"time": 966, "annotation": {"number": 64, "value": 0}, "group": "control_change"}, {"time": 985, "annotation": {"number": 64, "value": 0}, "group": "control_change"}, {"time": 988, "annotation": {"number": 64, "value": 127}, "group": "control_change"}, {"time": 1009, "annotation": {"number": 64, "value": 0}, "group": "control_change"}, {"time": 1012, "annotation": {"number": 64, "value": 127}, "group": "control_change"}, {"time": 1032, "annotation": {"number": 64, "value": 0}, "group": "control_change"}, {"time": 1034, "annotation": {"number": 64, "value": 127}, "group": "control_change"}, {"time": 1055, "annotation": {"number": 64, "value": 0}, "group": "control_change"}, {"time": 1062, "annotation": {"number": 64, "value": 127}, "group": "control_change"}, {"time": 1082, "annotation": {"number": 64, "value": 0}, "group": "control_change"}, {"time": 1084, "annotation": {"number": 64, "value": 127}, "group": "control_change"}, {"time": 1106, "annotation": {"number": 64, "value": 0}, "group": "control_change"}, {"time": 1108, "annotation": {"number": 64, "value": 127}, "group": "control_change"}, {"time": 1129, "annotation": {"number": 64, "value": 0}, "group": "control_change"}, {"time": 1131, "annotation": {"number": 64, "value": 127}, "group": "control_change"}, {"time": 1153, "annotation": {"number": 64, "value": 0}, "group": "control_change"}, {"time": 1158, "annotation": {"number": 64, "value": 127}, "group": "control_change"}, {"time": 1158, "annotation": {"number": 64, "value": 0}, "group": "control_change"}, {"time": 1177, "annotation": {"number": 64, "value": 0}, "group": "control_change"}, {"time": 1180, "annotation": {"number": 64, "value": 127}, "group": "control_change"}, {"time": 1201, "annotation": {"number": 64, "value": 0}, "group": "control_change"}, {"time": 1205, "annotation": {"number": 64, "value": 127}, "group": "control_change"}, {"time": 1225, "annotation": {"number": 64, "value": 0}, "group": "control_change"}, {"time": 1227, "annotation": {"number": 64, "value": 127}, "group": "control_change"}, {"time": 1249, "annotation": {"number": 64, "value": 0}, "group": "control_change"}, {"time": 1252, "annotation": {"number": 64, "value": 127}, "group": "control_change"}, {"time": 1274, "annotation": {"number": 64, "value": 0}, "group": "control_change"}, {"time": 1276, "annotation": {"number": 64, "value": 127}, "group": "control_change"}, {"time": 1298, "annotation": {"number": 64, "value": 0}, "group": "control_change"}, {"time": 1300, "annotation": {"number": 64, "value": 127}, "group": "control_change"}, {"time": 1321, "annotation": {"number": 64, "value": 0}, "group": "control_change"}, {"time": 1323, "annotation": {"number": 64, "value": 127}, "group": "control_change"}, {"time": 1346, "annotation": {"number": 64, "value": 0}, "group": "control_change"}, {"time": 1349, "annotation": {"number": 64, "value": 127}, "group": "control_change"}, {"time": 1370, "annotation": {"number": 64, "value": 0}, "group": "control_change"}, {"time": 1372, "annotation": {"number": 64, "value": 127}, "group": "control_change"}, {"time": 1393, "annotation": {"number": 64, "value": 0}, "group": "control_change"}, {"time": 1395, "annotation": {"number": 64, "value": 127}, "group": "control_change"}, {"time": 1417, "annotation": {"number": 64, "value": 0}, "group": "control_change"}, {"time": 1421, "annotation": {"number": 64, "value": 127}, "group": "control_change"}, {"time": 1442, "annotation": {"number": 64, "value": 0}, "group": "control_change"}, {"time": 1444, "annotation": {"number": 64, "value": 127}, "group": "control_change"}, {"time": 1467, "annotation": {"number": 64, "value": 0}, "group": "control_change"}, {"time": 1472, "annotation": {"number": 64, "value": 127}, "group": "control_change"}, {"time": 1472, "annotation": {"number": 64, "value": 0}, "group": "control_change"}, {"time": 1490, "annotation": {"number": 64, "value": 0}, "group": "control_change"}, {"time": 1492, "annotation": {"number": 64, "value": 127}, "group": "control_change"}, {"time": 1514, "annotation": {"number": 64, "value": 0}, "group": "control_change"}, {"time": 1516, "annotation": {"number": 64, "value": 127}, "group": "control_change"}, {"time": 1539, "annotation": {"number": 64, "value": 0}, "group": "control_change"}, {"time": 1542, "annotation": {"number": 64, "value": 127}, "group": "control_change"}, {"time": 1562, "annotation": {"number": 64, "value": 0}, "group": "control_change"}, {"time": 1564, "annotation": {"number": 64, "value": 127}, "group": "control_change"}, {"time": 1586, "annotation": {"number": 64, "value": 0}, "group": "control_change"}, {"time": 1587, "annotation": {"number": 64, "value": 127}, "group": "control_change"}, {"time": 1609, "annotation": {"number": 64, "value": 0}, "group": "control_change"}, {"time": 1613, "annotation": {"number": 64, "value": 127}, "group": "control_change"}, {"time": 1634, "annotation": {"number": 64, "value": 0}, "group": "control_change"}, {"time": 1636, "annotation": {"number": 64, "value": 127}, "group": "control_change"}, {"time": 1657, "annotation": {"number": 64, "value": 0}, "group": "control_change"}, {"time": 1659, "annotation": {"number": 64, "value": 127}, "group": "control_change"}, {"time": 1681, "annotation": {"number": 64, "value": 0}, "group": "control_change"}, {"time": 1684, "annotation": {"number": 64, "value": 127}, "group": "control_change"}, {"time": 1706, "annotation": {"number": 64, "value": 0}, "group": "control_change"}, {"time": 1708, "annotation": {"number": 64, "value": 127}, "group": "control_change"}, {"time": 1729, "annotation": {"number": 64, "value": 0}, "group": "control_change"}, {"time": 1731, "annotation": {"number": 64, "value": 127}, "group": "control_change"}, {"time": 1751, "annotation": {"number": 64, "value": 0}, "group": "control_change"}, {"time": 1756, "annotation": {"number": 64, "value": 127}, "group": "control_change"}, {"time": 1776, "annotation": {"number": 64, "value": 0}, "group": "control_change"}, {"time": 1779, "annotation": {"number": 64, "value": 127}, "group": "control_change"}, {"time": 1800, "annotation": {"number": 64, "value": 0}, "group": "control_change"}, {"time": 1803, "annotation": {"number": 64, "value": 127}, "group": "control_change"}, {"time": 1825, "annotation": {"number": 64, "value": 0}, "group": "control_change"}, {"time": 1828, "annotation": {"number": 64, "value": 127}, "group": "control_change"}, {"time": 1849, "annotation": {"number": 64, "value": 0}, "group": "control_change"}, {"time": 1851, "annotation": {"number": 64, "value": 127}, "group": "control_change"}, {"time": 1873, "annotation": {"number": 64, "value": 0}, "group": "control_change"}, {"time": 1875, "annotation": {"number": 64, "value": 127}, "group": "control_change"}, {"time": 1897, "annotation": {"number": 64, "value": 0}, "group": "control_change"}, {"time": 1899, "annotation": {"number": 64, "value": 127}, "group": "control_change"}, {"time": 1922, "annotation": {"number": 64, "value": 0}, "group": "control_change"}, {"time": 1925, "annotation": {"number": 64, "value": 127}, "group": "control_change"}, {"time": 1945, "annotation": {"number": 64, "value": 0}, "group": "control_change"}, {"time": 1947, "annotation": {"number": 64, "value": 127}, "group": "control_change"}, {"time": 1968, "annotation": {"number": 64, "value": 0}, "group": "control_change"}, {"time": 1971, "annotation": {"number": 64, "value": 127}, "group": "control_change"}, {"time": 1994, "annotation": {"number": 64, "value": 0}, "group": "control_change"}, {"time": 1994, "annotation": {"number": 64, "value": 127}, "group": "control_change"}, {"time": 2018, "annotation": {"number": 64, "value": 0}, "group": "control_change"}, {"time": 2019, "annotation": {"number": 64, "value": 127}, "group": "control_change"}, {"time": 2040, "annotation": {"number": 64, "value": 0}, "group": "control_change"}, {"time": 2046, "annotation": {"number": 64, "value": 127}, "group": "control_change"}, {"time": 2066, "annotation": {"number": 64, "value": 0}, "group": "control_change"}, {"time": 2068, "annotation": {"number": 64, "value": 127}, "group": "control_change"}, {"time": 2090, "annotation": {"number": 64, "value": 0}, "group": "control_change"}, {"time": 2092, "annotation": {"number": 64, "value": 127}, "group": "control_change"}, {"time": 2113, "annotation": {"number": 64, "value": 0}, "group": "control_change"}, {"time": 2115, "annotation": {"number": 64, "value": 127}, "group": "control_change"}, {"time": 2137, "annotation": {"number": 64, "value": 0}, "group": "control_change"}, {"time": 2142, "annotation": {"number": 64, "value": 127}, "group": "control_change"}, {"time": 2142, "annotation": {"number": 64, "value": 0}, "group": "control_change"}, {"time": 2161, "annotation": {"number": 64, "value": 0}, "group": "control_change"}, {"time": 2164, "annotation": {"number": 64, "value": 127}, "group": "control_change"}, {"time": 2185, "annotation": {"number": 64, "value": 0}, "group": "control_change"}, {"time": 2188, "annotation": {"number": 64, "value": 127}, "group": "control_change"}, {"time": 2208, "annotation": {"number": 64, "value": 0}, "group": "control_change"}, {"time": 2210, "annotation": {"number": 64, "value": 127}, "group": "control_change"}, {"time": 2231, "annotation": {"number": 64, "value": 0}, "group": "control_change"}, {"time": 2238, "annotation": {"number": 64, "value": 127}, "group": "control_change"}, {"time": 2258, "annotation": {"number": 64, "value": 0}, "group": "control_change"}, {"time": 2260, "annotation": {"number": 64, "value": 127}, "group": "control_change"}, {"time": 2282, "annotation": {"number": 64, "value": 0}, "group": "control_change"}, {"time": 2284, "annotation": {"number": 64, "value": 127}, "group": "control_change"}, {"time": 2305, "annotation": {"number": 64, "value": 0}, "group": "control_change"}, {"time": 2307, "annotation": {"number": 64, "value": 127}, "group": "control_change"}, {"time": 2329, "annotation": {"number": 64, "value": 0}, "group": "control_change"}, {"time": 2334, "annotation": {"number": 64, "value": 127}, "group": "control_change"}, {"time": 2334, "annotation": {"number": 64, "value": 0}, "group": "control_change"}, {"time": 2353, "annotation": {"number": 64, "value": 0}, "group": "control_change"}, {"time": 2356, "annotation": {"number": 64, "value": 127}, "group": "control_change"}, {"time": 2377, "annotation": {"number": 64, "value": 0}, "group": "control_change"}, {"time": 2381, "annotation": {"number": 64, "value": 127}, "group": "control_change"}, {"time": 2401, "annotation": {"number": 64, "value": 0}, "group": "control_change"}, {"time": 2403, "annotation": {"number": 64, "value": 127}, "group": "control_change"}, {"time": 2425, "annotation": {"number": 64, "value": 0}, "group": "control_change"}, {"time": 2428, "annotation": {"number": 64, "value": 127}, "group": "control_change"}, {"time": 2450, "annotation": {"number": 64, "value": 0}, "group": "control_change"}, {"time": 2452, "annotation": {"number": 64, "value": 127}, "group": "control_change"}, {"time": 2474, "annotation": {"number": 64, "value": 0}, "group": "control_change"}, {"time": 2476, "annotation": {"number": 64, "value": 127}, "group": "control_change"}, {"time": 2497, "annotation": {"number": 64, "value": 0}, "group": "control_change"}, {"time": 2499, "annotation": {"number": 64, "value": 127}, "group": "control_change"}, {"time": 2522, "annotation": {"number": 64, "value": 0}, "group": "control_change"}, {"time": 2525, "annotation": {"number": 64, "value": 127}, "group": "control_change"}, {"time": 2546, "annotation": {"number": 64, "value": 0}, "group": "control_change"}, {"time": 2548, "annotation": {"number": 64, "value": 127}, "group": "control_change"}, {"time": 2569, "annotation": {"number": 64, "value": 0}, "group": "control_change"}, {"time": 2571, "annotation": {"number": 64, "value": 127}, "group": "control_change"}, {"time": 2593, "annotation": {"number": 64, "value": 0}, "group": "control_change"}, {"time": 2598, "annotation": {"number": 64, "value": 127}, "group": "control_change"}, {"time": 2618, "annotation": {"number": 64, "value": 0}, "group": "control_change"}, {"time": 2620, "annotation": {"number": 64, "value": 127}, "group": "control_change"}, {"time": 2642, "annotation": {"number": 64, "value": 0}, "group": "control_change"}, {"time": 2644, "annotation": {"number": 64, "value": 127}, "group": "control_change"}, {"time": 2665, "annotation": {"number": 64, "value": 0}, "group": "control_change"}, {"time": 2667, "annotation": {"number": 64, "value": 127}, "group": "control_change"}, {"time": 2689, "annotation": {"number": 64, "value": 0}, "group": "control_change"}, {"time": 2694, "annotation": {"number": 64, "value": 127}, "group": "control_change"}, {"time": 2694, "annotation": {"number": 64, "value": 0}, "group": "control_change"}, {"time": 2713, "annotation": {"number": 64, "value": 0}, "group": "control_change"}, {"time": 2716, "annotation": {"number": 64, "value": 127}, "group": "control_change"}, {"time": 2737, "annotation": {"number": 64, "value": 0}, "group": "control_change"}, {"time": 2741, "annotation": {"number": 64, "value": 127}, "group": "control_change"}, {"time": 2761, "annotation": {"number": 64, "value": 0}, "group": "control_change"}, {"time": 2763, "annotation": {"number": 64, "value": 127}, "group": "control_change"}, {"time": 2785, "annotation": {"number": 64, "value": 0}, "group": "control_change"}, {"time": 2788, "annotation": {"number": 64, "value": 127}, "group": "control_change"}, {"time": 2810, "annotation": {"number": 64, "value": 0}, "group": "control_change"}, {"time": 2812, "annotation": {"number": 64, "value": 127}, "group": "control_change"}, {"time": 2834, "annotation": {"number": 64, "value": 0}, "group": "control_change"}, {"time": 2836, "annotation": {"number": 64, "value": 127}, "group": "control_change"}, {"time": 2857, "annotation": {"number": 64, "value": 0}, "group": "control_change"}, {"time": 2859, "annotation": {"number": 64, "value": 127}, "group": "control_change"}, {"time": 2882, "annotation": {"number": 64, "value": 0}, "group": "control_change"}, {"time": 2885, "annotation": {"number": 64, "value": 127}, "group": "control_change"}, {"time": 2906, "annotation": {"number": 64, "value": 0}, "group": "control_change"}, {"time": 2908, "annotation": {"number": 64, "value": 127}, "group": "control_change"}, {"time": 2929, "annotation": {"number": 64, "value": 0}, "group": "control_change"}, {"time": 2931, "annotation": {"number": 64, "value": 127}, "group": "control_change"}, {"time": 2953, "annotation": {"number": 64, "value": 0}, "group": "control_change"}, {"time": 2955, "annotation": {"number": 64, "value": 127}, "group": "control_change"}, {"time": 2955, "annotation": {"number": 64, "value": 0}, "group": "control_change"}, {"time": 2989, "annotation": {"number": 64, "value": 0}, "group": "control_change"}, {"time": 2991, "annotation": {"number": 64, "value": 127}, "group": "control_change"}, {"time": 3021, "annotation": {"number": 64, "value": 0}, "group": "control_change"}, {"time": 3023, "annotation": {"number": 64, "value": 127}, "group": "control_change"}, {"time": 3088, "annotation": {"number": 64, "value": 0}, "group": "control_change"}]}]}