{"metadata": {"schema_version": "0.2", "title": "None", "source_filename": "829.mid", "source_format": "midi"}, "resolution": 12, "tempos": [{"time": 0, "qpm": 112.00005973336519}], "time_signatures": [{"time": 0, "numerator": 1, "denominator": 4}], "tracks": [{"program": 4, "is_drum": false, "name": "MELODY", "notes": [{"time": 435, "pitch": 68, "duration": 5, "velocity": 83}, {"time": 441, "pitch": 70, "duration": 8, "velocity": 79}, {"time": 447, "pitch": 72, "duration": 9, "velocity": 84}, {"time": 459, "pitch": 72, "duration": 5, "velocity": 85}, {"time": 465, "pitch": 70, "duration": 7, "velocity": 83}, {"time": 471, "pitch": 72, "duration": 13, "velocity": 86}, {"time": 483, "pitch": 75, "duration": 7, "velocity": 86}, {"time": 489, "pitch": 72, "duration": 32, "velocity": 86}, {"time": 531, "pitch": 70, "duration": 6, "velocity": 85}, {"time": 537, "pitch": 72, "duration": 7, "velocity": 85}, {"time": 543, "pitch": 75, "duration": 9, "velocity": 87}, {"time": 555, "pitch": 75, "duration": 6, "velocity": 89}, {"time": 561, "pitch": 72, "duration": 7, "velocity": 85}, {"time": 567, "pitch": 75, "duration": 13, "velocity": 92}, {"time": 579, "pitch": 77, "duration": 7, "velocity": 82}, {"time": 585, "pitch": 75, "duration": 33, "velocity": 89}, {"time": 627, "pitch": 72, "duration": 7, "velocity": 85}, {"time": 633, "pitch": 75, "duration": 7, "velocity": 90}, {"time": 639, "pitch": 77, "duration": 8, "velocity": 84}, {"time": 651, "pitch": 77, "duration": 5, "velocity": 89}, {"time": 657, "pitch": 75, "duration": 6, "velocity": 87}, {"time": 663, "pitch": 77, "duration": 13, "velocity": 89}, {"time": 675, "pitch": 80, "duration": 7, "velocity": 86}, {"time": 681, "pitch": 77, "duration": 35, "velocity": 86}, {"time": 723, "pitch": 75, "duration": 6, "velocity": 91}, {"time": 729, "pitch": 77, "duration": 6, "velocity": 86}, {"time": 735, "pitch": 80, "duration": 9, "velocity": 84}, {"time": 747, "pitch": 80, "duration": 5, "velocity": 81}, {"time": 753, "pitch": 77, "duration": 7, "velocity": 86}, {"time": 759, "pitch": 80, "duration": 12, "velocity": 86}, {"time": 771, "pitch": 84, "duration": 13, "velocity": 85}, {"time": 783, "pitch": 82, "duration": 32, "velocity": 81}, {"time": 825, "pitch": 70, "duration": 6, "velocity": 86}, {"time": 831, "pitch": 82, "duration": 8, "velocity": 86}, {"time": 843, "pitch": 82, "duration": 11, "velocity": 88}, {"time": 855, "pitch": 80, "duration": 9, "velocity": 86}, {"time": 867, "pitch": 80, "duration": 12, "velocity": 85}, {"time": 879, "pitch": 77, "duration": 36, "velocity": 74}, {"time": 921, "pitch": 77, "duration": 7, "velocity": 87}, {"time": 927, "pitch": 80, "duration": 9, "velocity": 85}, {"time": 939, "pitch": 80, "duration": 12, "velocity": 85}, {"time": 951, "pitch": 77, "duration": 4, "velocity": 86}, {"time": 957, "pitch": 77, "duration": 18, "velocity": 85}, {"time": 975, "pitch": 75, "duration": 34, "velocity": 86}, {"time": 1017, "pitch": 75, "duration": 7, "velocity": 87}, {"time": 1023, "pitch": 77, "duration": 9, "velocity": 86}, {"time": 1035, "pitch": 77, "duration": 10, "velocity": 86}, {"time": 1047, "pitch": 75, "duration": 3, "velocity": 85}, {"time": 1053, "pitch": 75, "duration": 17, "velocity": 86}, {"time": 1071, "pitch": 72, "duration": 38, "velocity": 81}, {"time": 1113, "pitch": 72, "duration": 5, "velocity": 89}, {"time": 1119, "pitch": 75, "duration": 9, "velocity": 92}, {"time": 1131, "pitch": 75, "duration": 11, "velocity": 87}, {"time": 1143, "pitch": 72, "duration": 4, "velocity": 85}, {"time": 1149, "pitch": 72, "duration": 17, "velocity": 86}, {"time": 1167, "pitch": 70, "duration": 33, "velocity": 81}, {"time": 1203, "pitch": 68, "duration": 5, "velocity": 83}, {"time": 1209, "pitch": 70, "duration": 8, "velocity": 79}, {"time": 1215, "pitch": 72, "duration": 9, "velocity": 84}, {"time": 1227, "pitch": 72, "duration": 5, "velocity": 85}, {"time": 1233, "pitch": 70, "duration": 7, "velocity": 83}, {"time": 1239, "pitch": 72, "duration": 13, "velocity": 86}, {"time": 1251, "pitch": 75, "duration": 7, "velocity": 86}, {"time": 1257, "pitch": 72, "duration": 32, "velocity": 86}, {"time": 1299, "pitch": 70, "duration": 6, "velocity": 85}, {"time": 1305, "pitch": 72, "duration": 7, "velocity": 85}, {"time": 1311, "pitch": 75, "duration": 9, "velocity": 87}, {"time": 1329, "pitch": 72, "duration": 7, "velocity": 85}, {"time": 1335, "pitch": 75, "duration": 13, "velocity": 92}, {"time": 1347, "pitch": 77, "duration": 7, "velocity": 82}, {"time": 1353, "pitch": 75, "duration": 33, "velocity": 89}, {"time": 1395, "pitch": 72, "duration": 7, "velocity": 85}, {"time": 1401, "pitch": 75, "duration": 7, "velocity": 90}, {"time": 1407, "pitch": 77, "duration": 8, "velocity": 84}, {"time": 1419, "pitch": 77, "duration": 5, "velocity": 89}, {"time": 1425, "pitch": 75, "duration": 6, "velocity": 87}, {"time": 1431, "pitch": 77, "duration": 13, "velocity": 89}, {"time": 1443, "pitch": 80, "duration": 7, "velocity": 86}, {"time": 1449, "pitch": 77, "duration": 35, "velocity": 86}, {"time": 1491, "pitch": 75, "duration": 6, "velocity": 91}, {"time": 1497, "pitch": 77, "duration": 6, "velocity": 86}, {"time": 1503, "pitch": 80, "duration": 6, "velocity": 84}, {"time": 1509, "pitch": 80, "duration": 6, "velocity": 84}, {"time": 1515, "pitch": 80, "duration": 5, "velocity": 81}, {"time": 1521, "pitch": 77, "duration": 7, "velocity": 86}, {"time": 1527, "pitch": 80, "duration": 12, "velocity": 86}, {"time": 1539, "pitch": 84, "duration": 13, "velocity": 85}, {"time": 1551, "pitch": 82, "duration": 32, "velocity": 81}, {"time": 1593, "pitch": 70, "duration": 6, "velocity": 86}, {"time": 1599, "pitch": 82, "duration": 8, "velocity": 86}, {"time": 1611, "pitch": 82, "duration": 6, "velocity": 88}, {"time": 1617, "pitch": 82, "duration": 6, "velocity": 88}, {"time": 1623, "pitch": 80, "duration": 9, "velocity": 86}, {"time": 1635, "pitch": 80, "duration": 12, "velocity": 85}, {"time": 1647, "pitch": 77, "duration": 36, "velocity": 74}, {"time": 1689, "pitch": 77, "duration": 7, "velocity": 87}, {"time": 1695, "pitch": 80, "duration": 9, "velocity": 85}, {"time": 1707, "pitch": 80, "duration": 6, "velocity": 85}, {"time": 1713, "pitch": 80, "duration": 6, "velocity": 85}, {"time": 1719, "pitch": 77, "duration": 12, "velocity": 86}, {"time": 1731, "pitch": 77, "duration": 12, "velocity": 85}, {"time": 1743, "pitch": 75, "duration": 34, "velocity": 86}, {"time": 1785, "pitch": 75, "duration": 7, "velocity": 87}, {"time": 1791, "pitch": 77, "duration": 9, "velocity": 86}, {"time": 1803, "pitch": 77, "duration": 6, "velocity": 86}, {"time": 1809, "pitch": 77, "duration": 6, "velocity": 86}, {"time": 1815, "pitch": 75, "duration": 12, "velocity": 85}, {"time": 1827, "pitch": 75, "duration": 12, "velocity": 86}, {"time": 1839, "pitch": 72, "duration": 36, "velocity": 81}, {"time": 1875, "pitch": 70, "duration": 6, "velocity": 86}, {"time": 1881, "pitch": 72, "duration": 5, "velocity": 89}, {"time": 1887, "pitch": 75, "duration": 6, "velocity": 92}, {"time": 1893, "pitch": 75, "duration": 6, "velocity": 92}, {"time": 1899, "pitch": 75, "duration": 6, "velocity": 87}, {"time": 1905, "pitch": 75, "duration": 6, "velocity": 87}, {"time": 1911, "pitch": 72, "duration": 12, "velocity": 85}, {"time": 1923, "pitch": 72, "duration": 11, "velocity": 86}, {"time": 1935, "pitch": 70, "duration": 33, "velocity": 81}, {"time": 1971, "pitch": 68, "duration": 5, "velocity": 83}, {"time": 1977, "pitch": 70, "duration": 8, "velocity": 79}, {"time": 1983, "pitch": 72, "duration": 9, "velocity": 84}, {"time": 1995, "pitch": 72, "duration": 5, "velocity": 85}, {"time": 2001, "pitch": 70, "duration": 7, "velocity": 83}, {"time": 2007, "pitch": 72, "duration": 12, "velocity": 86}, {"time": 2019, "pitch": 72, "duration": 6, "velocity": 86}, {"time": 2025, "pitch": 70, "duration": 7, "velocity": 86}, {"time": 2031, "pitch": 72, "duration": 12, "velocity": 86}, {"time": 2043, "pitch": 75, "duration": 6, "velocity": 86}, {"time": 2049, "pitch": 72, "duration": 12, "velocity": 86}, {"time": 2067, "pitch": 70, "duration": 6, "velocity": 85}, {"time": 2073, "pitch": 72, "duration": 7, "velocity": 85}, {"time": 2079, "pitch": 75, "duration": 9, "velocity": 87}, {"time": 2091, "pitch": 75, "duration": 6, "velocity": 89}, {"time": 2097, "pitch": 72, "duration": 7, "velocity": 85}, {"time": 2103, "pitch": 75, "duration": 6, "velocity": 92}, {"time": 2109, "pitch": 75, "duration": 6, "velocity": 92}, {"time": 2115, "pitch": 75, "duration": 6, "velocity": 82}, {"time": 2121, "pitch": 72, "duration": 6, "velocity": 82}, {"time": 2127, "pitch": 75, "duration": 6, "velocity": 86}, {"time": 2133, "pitch": 77, "duration": 12, "velocity": 86}, {"time": 2145, "pitch": 75, "duration": 18, "velocity": 89}, {"time": 2163, "pitch": 72, "duration": 7, "velocity": 85}, {"time": 2169, "pitch": 75, "duration": 7, "velocity": 90}, {"time": 2175, "pitch": 77, "duration": 8, "velocity": 84}, {"time": 2187, "pitch": 77, "duration": 5, "velocity": 89}, {"time": 2193, "pitch": 75, "duration": 6, "velocity": 87}, {"time": 2199, "pitch": 77, "duration": 12, "velocity": 89}, {"time": 2211, "pitch": 77, "duration": 5, "velocity": 89}, {"time": 2217, "pitch": 75, "duration": 6, "velocity": 87}, {"time": 2223, "pitch": 77, "duration": 6, "velocity": 89}, {"time": 2229, "pitch": 80, "duration": 12, "velocity": 86}, {"time": 2241, "pitch": 77, "duration": 18, "velocity": 86}, {"time": 2259, "pitch": 75, "duration": 6, "velocity": 91}, {"time": 2265, "pitch": 77, "duration": 6, "velocity": 86}, {"time": 2271, "pitch": 80, "duration": 9, "velocity": 84}, {"time": 2283, "pitch": 80, "duration": 5, "velocity": 81}, {"time": 2289, "pitch": 77, "duration": 7, "velocity": 86}, {"time": 2295, "pitch": 80, "duration": 12, "velocity": 86}, {"time": 2307, "pitch": 84, "duration": 13, "velocity": 85}, {"time": 2319, "pitch": 82, "duration": 32, "velocity": 81}, {"time": 2361, "pitch": 70, "duration": 6, "velocity": 86}, {"time": 2367, "pitch": 82, "duration": 8, "velocity": 86}, {"time": 2379, "pitch": 82, "duration": 11, "velocity": 88}, {"time": 2391, "pitch": 80, "duration": 9, "velocity": 86}, {"time": 2403, "pitch": 80, "duration": 12, "velocity": 85}, {"time": 2415, "pitch": 77, "duration": 36, "velocity": 74}, {"time": 2457, "pitch": 77, "duration": 7, "velocity": 87}, {"time": 2463, "pitch": 80, "duration": 9, "velocity": 85}, {"time": 2475, "pitch": 80, "duration": 12, "velocity": 85}, {"time": 2487, "pitch": 77, "duration": 12, "velocity": 85}, {"time": 2499, "pitch": 77, "duration": 12, "velocity": 85}, {"time": 2511, "pitch": 75, "duration": 34, "velocity": 86}, {"time": 2559, "pitch": 77, "duration": 9, "velocity": 86}, {"time": 2571, "pitch": 77, "duration": 10, "velocity": 86}, {"time": 2583, "pitch": 75, "duration": 12, "velocity": 85}, {"time": 2595, "pitch": 75, "duration": 12, "velocity": 85}, {"time": 2607, "pitch": 72, "duration": 38, "velocity": 81}, {"time": 2655, "pitch": 75, "duration": 9, "velocity": 92}, {"time": 2667, "pitch": 75, "duration": 11, "velocity": 87}, {"time": 2679, "pitch": 72, "duration": 12, "velocity": 85}, {"time": 2691, "pitch": 72, "duration": 12, "velocity": 86}, {"time": 2703, "pitch": 70, "duration": 33, "velocity": 81}, {"time": 2739, "pitch": 68, "duration": 5, "velocity": 83}, {"time": 2745, "pitch": 70, "duration": 8, "velocity": 79}, {"time": 2751, "pitch": 72, "duration": 9, "velocity": 84}, {"time": 2763, "pitch": 72, "duration": 5, "velocity": 85}, {"time": 2769, "pitch": 70, "duration": 7, "velocity": 83}, {"time": 2775, "pitch": 72, "duration": 12, "velocity": 86}, {"time": 2787, "pitch": 72, "duration": 6, "velocity": 86}, {"time": 2793, "pitch": 70, "duration": 7, "velocity": 86}, {"time": 2799, "pitch": 72, "duration": 12, "velocity": 86}, {"time": 2811, "pitch": 75, "duration": 6, "velocity": 86}, {"time": 2817, "pitch": 72, "duration": 12, "velocity": 86}, {"time": 2835, "pitch": 70, "duration": 6, "velocity": 85}, {"time": 2841, "pitch": 72, "duration": 7, "velocity": 85}, {"time": 2847, "pitch": 75, "duration": 9, "velocity": 87}, {"time": 2859, "pitch": 75, "duration": 6, "velocity": 89}, {"time": 2865, "pitch": 72, "duration": 7, "velocity": 85}, {"time": 2871, "pitch": 75, "duration": 6, "velocity": 92}, {"time": 2877, "pitch": 75, "duration": 6, "velocity": 92}, {"time": 2883, "pitch": 75, "duration": 6, "velocity": 82}, {"time": 2889, "pitch": 72, "duration": 6, "velocity": 82}, {"time": 2895, "pitch": 75, "duration": 6, "velocity": 86}, {"time": 2901, "pitch": 77, "duration": 12, "velocity": 86}, {"time": 2913, "pitch": 75, "duration": 18, "velocity": 89}, {"time": 2931, "pitch": 72, "duration": 7, "velocity": 85}, {"time": 2937, "pitch": 75, "duration": 6, "velocity": 90}, {"time": 2943, "pitch": 77, "duration": 8, "velocity": 84}, {"time": 2955, "pitch": 77, "duration": 5, "velocity": 89}, {"time": 2961, "pitch": 75, "duration": 6, "velocity": 87}, {"time": 2967, "pitch": 77, "duration": 12, "velocity": 89}, {"time": 2979, "pitch": 77, "duration": 5, "velocity": 89}, {"time": 2985, "pitch": 75, "duration": 6, "velocity": 87}, {"time": 2991, "pitch": 77, "duration": 6, "velocity": 89}, {"time": 2997, "pitch": 80, "duration": 12, "velocity": 86}, {"time": 3009, "pitch": 77, "duration": 18, "velocity": 86}, {"time": 3027, "pitch": 75, "duration": 6, "velocity": 91}, {"time": 3033, "pitch": 77, "duration": 6, "velocity": 86}, {"time": 3039, "pitch": 80, "duration": 9, "velocity": 84}, {"time": 3051, "pitch": 80, "duration": 5, "velocity": 81}, {"time": 3057, "pitch": 77, "duration": 7, "velocity": 86}, {"time": 3063, "pitch": 80, "duration": 12, "velocity": 86}, {"time": 3075, "pitch": 84, "duration": 13, "velocity": 85}, {"time": 3087, "pitch": 82, "duration": 32, "velocity": 81}, {"time": 3129, "pitch": 70, "duration": 6, "velocity": 86}, {"time": 3135, "pitch": 82, "duration": 8, "velocity": 86}, {"time": 3147, "pitch": 82, "duration": 11, "velocity": 88}, {"time": 3159, "pitch": 80, "duration": 9, "velocity": 86}, {"time": 3171, "pitch": 80, "duration": 12, "velocity": 85}, {"time": 3183, "pitch": 77, "duration": 36, "velocity": 74}, {"time": 3231, "pitch": 80, "duration": 9, "velocity": 85}, {"time": 3243, "pitch": 80, "duration": 12, "velocity": 85}, {"time": 3255, "pitch": 77, "duration": 12, "velocity": 85}, {"time": 3267, "pitch": 77, "duration": 12, "velocity": 85}, {"time": 3279, "pitch": 75, "duration": 34, "velocity": 86}, {"time": 3327, "pitch": 77, "duration": 9, "velocity": 86}, {"time": 3339, "pitch": 77, "duration": 10, "velocity": 86}, {"time": 3351, "pitch": 75, "duration": 12, "velocity": 85}, {"time": 3363, "pitch": 75, "duration": 12, "velocity": 85}, {"time": 3375, "pitch": 72, "duration": 38, "velocity": 81}, {"time": 3423, "pitch": 75, "duration": 9, "velocity": 92}, {"time": 3435, "pitch": 75, "duration": 11, "velocity": 87}, {"time": 3447, "pitch": 72, "duration": 12, "velocity": 85}, {"time": 3459, "pitch": 72, "duration": 12, "velocity": 86}, {"time": 3471, "pitch": 70, "duration": 33, "velocity": 81}, {"time": 3519, "pitch": 82, "duration": 8, "velocity": 86}, {"time": 3531, "pitch": 82, "duration": 11, "velocity": 88}, {"time": 3543, "pitch": 80, "duration": 9, "velocity": 86}, {"time": 3555, "pitch": 80, "duration": 12, "velocity": 85}, {"time": 3567, "pitch": 77, "duration": 36, "velocity": 74}, {"time": 3615, "pitch": 80, "duration": 9, "velocity": 85}, {"time": 3627, "pitch": 80, "duration": 12, "velocity": 85}, {"time": 3639, "pitch": 77, "duration": 12, "velocity": 85}, {"time": 3651, "pitch": 77, "duration": 12, "velocity": 85}, {"time": 3663, "pitch": 75, "duration": 34, "velocity": 86}, {"time": 3711, "pitch": 77, "duration": 9, "velocity": 86}, {"time": 3723, "pitch": 77, "duration": 10, "velocity": 86}, {"time": 3735, "pitch": 75, "duration": 12, "velocity": 85}, {"time": 3747, "pitch": 75, "duration": 12, "velocity": 85}, {"time": 3759, "pitch": 72, "duration": 38, "velocity": 81}, {"time": 3807, "pitch": 75, "duration": 9, "velocity": 92}, {"time": 3819, "pitch": 75, "duration": 11, "velocity": 87}, {"time": 3831, "pitch": 72, "duration": 12, "velocity": 85}, {"time": 3843, "pitch": 72, "duration": 12, "velocity": 86}, {"time": 3855, "pitch": 70, "duration": 33, "velocity": 81}, {"time": 3903, "pitch": 82, "duration": 8, "velocity": 86}, {"time": 3915, "pitch": 82, "duration": 11, "velocity": 88}, {"time": 3927, "pitch": 80, "duration": 9, "velocity": 86}, {"time": 3939, "pitch": 80, "duration": 12, "velocity": 85}, {"time": 3951, "pitch": 77, "duration": 36, "velocity": 74}, {"time": 3999, "pitch": 80, "duration": 9, "velocity": 85}, {"time": 4011, "pitch": 80, "duration": 12, "velocity": 85}, {"time": 4023, "pitch": 77, "duration": 12, "velocity": 85}, {"time": 4035, "pitch": 77, "duration": 12, "velocity": 85}, {"time": 4047, "pitch": 75, "duration": 34, "velocity": 86}, {"time": 4095, "pitch": 77, "duration": 9, "velocity": 86}, {"time": 4107, "pitch": 77, "duration": 10, "velocity": 86}, {"time": 4119, "pitch": 75, "duration": 12, "velocity": 85}, {"time": 4131, "pitch": 75, "duration": 12, "velocity": 85}, {"time": 4143, "pitch": 72, "duration": 38, "velocity": 81}, {"time": 4191, "pitch": 75, "duration": 9, "velocity": 92}, {"time": 4203, "pitch": 75, "duration": 11, "velocity": 87}, {"time": 4215, "pitch": 72, "duration": 12, "velocity": 85}, {"time": 4227, "pitch": 72, "duration": 12, "velocity": 86}, {"time": 4239, "pitch": 70, "duration": 33, "velocity": 81}, {"time": 4287, "pitch": 82, "duration": 8, "velocity": 86}, {"time": 4299, "pitch": 82, "duration": 11, "velocity": 88}, {"time": 4311, "pitch": 80, "duration": 9, "velocity": 86}, {"time": 4323, "pitch": 80, "duration": 12, "velocity": 85}, {"time": 4335, "pitch": 77, "duration": 36, "velocity": 74}, {"time": 4383, "pitch": 80, "duration": 9, "velocity": 85}, {"time": 4395, "pitch": 80, "duration": 12, "velocity": 85}, {"time": 4407, "pitch": 77, "duration": 12, "velocity": 85}, {"time": 4419, "pitch": 77, "duration": 12, "velocity": 85}, {"time": 4431, "pitch": 75, "duration": 34, "velocity": 86}, {"time": 4479, "pitch": 77, "duration": 9, "velocity": 86}, {"time": 4491, "pitch": 77, "duration": 10, "velocity": 86}, {"time": 4503, "pitch": 75, "duration": 12, "velocity": 85}, {"time": 4515, "pitch": 75, "duration": 12, "velocity": 85}, {"time": 4527, "pitch": 72, "duration": 38, "velocity": 81}, {"time": 4575, "pitch": 75, "duration": 12, "velocity": 87}, {"time": 4593, "pitch": 75, "duration": 16, "velocity": 86}, {"time": 4605, "pitch": 72, "duration": 20, "velocity": 81}, {"time": 4623, "pitch": 75, "duration": 36, "velocity": 87}, {"time": 4671, "pitch": 77, "duration": 102, "velocity": 85}]}, {"program": 0, "is_drum": false, "name": "PIANO", "notes": [{"time": 13, "pitch": 58, "duration": 18, "velocity": 68}, {"time": 14, "pitch": 46, "duration": 33, "velocity": 82}, {"time": 14, "pitch": 61, "duration": 21, "velocity": 70}, {"time": 16, "pitch": 65, "duration": 19, "velocity": 61}, {"time": 26, "pitch": 53, "duration": 20, "velocity": 62}, {"time": 39, "pitch": 58, "duration": 6, "velocity": 66}, {"time": 39, "pitch": 61, "duration": 6, "velocity": 75}, {"time": 40, "pitch": 65, "duration": 6, "velocity": 76}, {"time": 58, "pitch": 60, "duration": 6, "velocity": 60}, {"time": 60, "pitch": 65, "duration": 12, "velocity": 74}, {"time": 62, "pitch": 41, "duration": 26, "velocity": 80}, {"time": 62, "pitch": 68, "duration": 16, "velocity": 72}, {"time": 74, "pitch": 48, "duration": 11, "velocity": 51}, {"time": 85, "pitch": 65, "duration": 8, "velocity": 68}, {"time": 86, "pitch": 60, "duration": 1, "velocity": 71}, {"time": 106, "pitch": 56, "duration": 4, "velocity": 67}, {"time": 107, "pitch": 61, "duration": 16, "velocity": 75}, {"time": 109, "pitch": 49, "duration": 27, "velocity": 74}, {"time": 109, "pitch": 65, "duration": 14, "velocity": 85}, {"time": 121, "pitch": 56, "duration": 12, "velocity": 68}, {"time": 133, "pitch": 61, "duration": 5, "velocity": 71}, {"time": 156, "pitch": 60, "duration": 27, "velocity": 52}, {"time": 158, "pitch": 63, "duration": 24, "velocity": 71}, {"time": 158, "pitch": 48, "duration": 34, "velocity": 82}, {"time": 170, "pitch": 55, "duration": 19, "velocity": 61}, {"time": 181, "pitch": 67, "duration": 12, "velocity": 78}, {"time": 193, "pitch": 60, "duration": 3, "velocity": 81}, {"time": 205, "pitch": 58, "duration": 22, "velocity": 70}, {"time": 205, "pitch": 46, "duration": 24, "velocity": 78}, {"time": 206, "pitch": 61, "duration": 20, "velocity": 76}, {"time": 216, "pitch": 53, "duration": 10, "velocity": 59}, {"time": 229, "pitch": 51, "duration": 14, "velocity": 73}, {"time": 229, "pitch": 63, "duration": 13, "velocity": 83}, {"time": 241, "pitch": 58, "duration": 4, "velocity": 85}, {"time": 254, "pitch": 44, "duration": 34, "velocity": 79}, {"time": 254, "pitch": 56, "duration": 25, "velocity": 70}, {"time": 254, "pitch": 60, "duration": 24, "velocity": 73}, {"time": 266, "pitch": 51, "duration": 17, "velocity": 55}, {"time": 278, "pitch": 63, "duration": 3, "velocity": 74}, {"time": 298, "pitch": 56, "duration": 6, "velocity": 65}, {"time": 300, "pitch": 60, "duration": 12, "velocity": 78}, {"time": 302, "pitch": 44, "duration": 37, "velocity": 79}, {"time": 302, "pitch": 63, "duration": 8, "velocity": 70}, {"time": 302, "pitch": 68, "duration": 10, "velocity": 80}, {"time": 314, "pitch": 51, "duration": 22, "velocity": 72}, {"time": 326, "pitch": 60, "duration": 6, "velocity": 84}, {"time": 326, "pitch": 56, "duration": 7, "velocity": 83}, {"time": 338, "pitch": 58, "duration": 7, "velocity": 72}, {"time": 344, "pitch": 56, "duration": 6, "velocity": 76}, {"time": 350, "pitch": 39, "duration": 42, "velocity": 86}, {"time": 350, "pitch": 58, "duration": 15, "velocity": 74}, {"time": 362, "pitch": 63, "duration": 13, "velocity": 70}, {"time": 374, "pitch": 67, "duration": 13, "velocity": 85}, {"time": 386, "pitch": 63, "duration": 7, "velocity": 79}, {"time": 395, "pitch": 58, "duration": 25, "velocity": 64}, {"time": 397, "pitch": 63, "duration": 22, "velocity": 71}, {"time": 397, "pitch": 39, "duration": 23, "velocity": 83}, {"time": 398, "pitch": 70, "duration": 21, "velocity": 69}, {"time": 447, "pitch": 44, "duration": 80, "velocity": 76}, {"time": 447, "pitch": 56, "duration": 11, "velocity": 60}, {"time": 447, "pitch": 60, "duration": 12, "velocity": 41}, {"time": 459, "pitch": 51, "duration": 17, "velocity": 40}, {"time": 471, "pitch": 56, "duration": 12, "velocity": 73}, {"time": 471, "pitch": 63, "duration": 11, "velocity": 82}, {"time": 495, "pitch": 56, "duration": 8, "velocity": 71}, {"time": 495, "pitch": 63, "duration": 8, "velocity": 66}, {"time": 519, "pitch": 56, "duration": 4, "velocity": 69}, {"time": 519, "pitch": 60, "duration": 5, "velocity": 72}, {"time": 519, "pitch": 63, "duration": 6, "velocity": 84}, {"time": 543, "pitch": 48, "duration": 76, "velocity": 61}, {"time": 543, "pitch": 55, "duration": 17, "velocity": 43}, {"time": 543, "pitch": 60, "duration": 16, "velocity": 55}, {"time": 567, "pitch": 55, "duration": 2, "velocity": 46}, {"time": 567, "pitch": 60, "duration": 2, "velocity": 50}, {"time": 567, "pitch": 63, "duration": 2, "velocity": 82}, {"time": 591, "pitch": 60, "duration": 12, "velocity": 36}, {"time": 591, "pitch": 63, "duration": 9, "velocity": 80}, {"time": 603, "pitch": 55, "duration": 7, "velocity": 39}, {"time": 615, "pitch": 55, "duration": 2, "velocity": 74}, {"time": 615, "pitch": 60, "duration": 3, "velocity": 50}, {"time": 615, "pitch": 63, "duration": 3, "velocity": 78}, {"time": 639, "pitch": 41, "duration": 79, "velocity": 45}, {"time": 639, "pitch": 56, "duration": 12, "velocity": 44}, {"time": 639, "pitch": 60, "duration": 12, "velocity": 52}, {"time": 663, "pitch": 56, "duration": 10, "velocity": 62}, {"time": 663, "pitch": 60, "duration": 9, "velocity": 50}, {"time": 663, "pitch": 65, "duration": 10, "velocity": 41}, {"time": 687, "pitch": 56, "duration": 6, "velocity": 64}, {"time": 687, "pitch": 60, "duration": 12, "velocity": 39}, {"time": 687, "pitch": 65, "duration": 13, "velocity": 41}, {"time": 711, "pitch": 56, "duration": 6, "velocity": 76}, {"time": 711, "pitch": 60, "duration": 5, "velocity": 70}, {"time": 711, "pitch": 65, "duration": 6, "velocity": 57}, {"time": 735, "pitch": 49, "duration": 25, "velocity": 73}, {"time": 735, "pitch": 56, "duration": 14, "velocity": 60}, {"time": 735, "pitch": 61, "duration": 13, "velocity": 67}, {"time": 735, "pitch": 65, "duration": 17, "velocity": 44}, {"time": 759, "pitch": 56, "duration": 9, "velocity": 69}, {"time": 759, "pitch": 61, "duration": 9, "velocity": 64}, {"time": 759, "pitch": 65, "duration": 11, "velocity": 42}, {"time": 783, "pitch": 51, "duration": 32, "velocity": 80}, {"time": 783, "pitch": 63, "duration": 12, "velocity": 60}, {"time": 795, "pitch": 58, "duration": 3, "velocity": 44}, {"time": 807, "pitch": 58, "duration": 6, "velocity": 87}, {"time": 807, "pitch": 63, "duration": 6, "velocity": 82}, {"time": 831, "pitch": 46, "duration": 34, "velocity": 84}, {"time": 831, "pitch": 58, "duration": 6, "velocity": 64}, {"time": 831, "pitch": 61, "duration": 11, "velocity": 66}, {"time": 831, "pitch": 65, "duration": 13, "velocity": 70}, {"time": 843, "pitch": 58, "duration": 4, "velocity": 42}, {"time": 855, "pitch": 58, "duration": 3, "velocity": 92}, {"time": 855, "pitch": 61, "duration": 2, "velocity": 73}, {"time": 855, "pitch": 65, "duration": 3, "velocity": 70}, {"time": 879, "pitch": 41, "duration": 48, "velocity": 65}, {"time": 879, "pitch": 53, "duration": 4, "velocity": 50}, {"time": 879, "pitch": 56, "duration": 5, "velocity": 76}, {"time": 885, "pitch": 48, "duration": 42, "velocity": 41}, {"time": 891, "pitch": 53, "duration": 10, "velocity": 45}, {"time": 897, "pitch": 55, "duration": 7, "velocity": 59}, {"time": 903, "pitch": 56, "duration": 7, "velocity": 76}, {"time": 909, "pitch": 55, "duration": 6, "velocity": 99}, {"time": 915, "pitch": 56, "duration": 8, "velocity": 89}, {"time": 921, "pitch": 51, "duration": 6, "velocity": 69}, {"time": 927, "pitch": 49, "duration": 39, "velocity": 76}, {"time": 927, "pitch": 56, "duration": 8, "velocity": 69}, {"time": 927, "pitch": 61, "duration": 13, "velocity": 80}, {"time": 939, "pitch": 56, "duration": 7, "velocity": 84}, {"time": 951, "pitch": 56, "duration": 7, "velocity": 80}, {"time": 951, "pitch": 61, "duration": 12, "velocity": 89}, {"time": 951, "pitch": 65, "duration": 13, "velocity": 70}, {"time": 975, "pitch": 48, "duration": 6, "velocity": 80}, {"time": 975, "pitch": 55, "duration": 15, "velocity": 52}, {"time": 975, "pitch": 60, "duration": 14, "velocity": 55}, {"time": 987, "pitch": 48, "duration": 20, "velocity": 48}, {"time": 999, "pitch": 55, "duration": 4, "velocity": 82}, {"time": 999, "pitch": 60, "duration": 12, "velocity": 82}, {"time": 999, "pitch": 63, "duration": 16, "velocity": 89}, {"time": 1011, "pitch": 55, "duration": 2, "velocity": 79}, {"time": 1023, "pitch": 46, "duration": 16, "velocity": 84}, {"time": 1023, "pitch": 58, "duration": 7, "velocity": 62}, {"time": 1023, "pitch": 61, "duration": 12, "velocity": 67}, {"time": 1023, "pitch": 65, "duration": 13, "velocity": 42}, {"time": 1047, "pitch": 51, "duration": 15, "velocity": 89}, {"time": 1047, "pitch": 58, "duration": 8, "velocity": 82}, {"time": 1047, "pitch": 63, "duration": 12, "velocity": 73}, {"time": 1071, "pitch": 44, "duration": 38, "velocity": 37}, {"time": 1071, "pitch": 56, "duration": 10, "velocity": 62}, {"time": 1071, "pitch": 60, "duration": 9, "velocity": 43}, {"time": 1071, "pitch": 63, "duration": 9, "velocity": 66}, {"time": 1083, "pitch": 51, "duration": 25, "velocity": 47}, {"time": 1095, "pitch": 56, "duration": 4, "velocity": 89}, {"time": 1095, "pitch": 60, "duration": 9, "velocity": 93}, {"time": 1095, "pitch": 63, "duration": 12, "velocity": 71}, {"time": 1119, "pitch": 44, "duration": 30, "velocity": 100}, {"time": 1119, "pitch": 56, "duration": 9, "velocity": 60}, {"time": 1119, "pitch": 60, "duration": 9, "velocity": 36}, {"time": 1119, "pitch": 63, "duration": 10, "velocity": 76}, {"time": 1131, "pitch": 51, "duration": 16, "velocity": 47}, {"time": 1143, "pitch": 56, "duration": 3, "velocity": 80}, {"time": 1143, "pitch": 60, "duration": 6, "velocity": 70}, {"time": 1143, "pitch": 63, "duration": 10, "velocity": 84}, {"time": 1167, "pitch": 39, "duration": 8, "velocity": 71}, {"time": 1167, "pitch": 51, "duration": 18, "velocity": 78}, {"time": 1167, "pitch": 55, "duration": 14, "velocity": 50}, {"time": 1167, "pitch": 58, "duration": 15, "velocity": 73}, {"time": 1191, "pitch": 51, "duration": 4, "velocity": 94}, {"time": 1191, "pitch": 55, "duration": 19, "velocity": 79}, {"time": 1191, "pitch": 58, "duration": 19, "velocity": 78}, {"time": 1191, "pitch": 61, "duration": 4, "velocity": 52}, {"time": 1191, "pitch": 63, "duration": 13, "velocity": 60}, {"time": 1203, "pitch": 51, "duration": 9, "velocity": 80}, {"time": 1215, "pitch": 44, "duration": 78, "velocity": 47}, {"time": 1215, "pitch": 56, "duration": 14, "velocity": 47}, {"time": 1215, "pitch": 60, "duration": 14, "velocity": 55}, {"time": 1227, "pitch": 51, "duration": 66, "velocity": 29}, {"time": 1239, "pitch": 56, "duration": 3, "velocity": 71}, {"time": 1239, "pitch": 63, "duration": 2, "velocity": 84}, {"time": 1263, "pitch": 60, "duration": 3, "velocity": 52}, {"time": 1263, "pitch": 63, "duration": 3, "velocity": 53}, {"time": 1275, "pitch": 56, "duration": 3, "velocity": 27}, {"time": 1287, "pitch": 56, "duration": 6, "velocity": 66}, {"time": 1287, "pitch": 60, "duration": 5, "velocity": 62}, {"time": 1287, "pitch": 63, "duration": 5, "velocity": 82}, {"time": 1311, "pitch": 48, "duration": 79, "velocity": 80}, {"time": 1311, "pitch": 60, "duration": 11, "velocity": 62}, {"time": 1311, "pitch": 63, "duration": 11, "velocity": 67}, {"time": 1323, "pitch": 55, "duration": 42, "velocity": 18}, {"time": 1335, "pitch": 60, "duration": 4, "velocity": 51}, {"time": 1335, "pitch": 63, "duration": 4, "velocity": 67}, {"time": 1335, "pitch": 67, "duration": 4, "velocity": 46}, {"time": 1359, "pitch": 60, "duration": 12, "velocity": 47}, {"time": 1359, "pitch": 63, "duration": 12, "velocity": 52}, {"time": 1371, "pitch": 55, "duration": 15, "velocity": 18}, {"time": 1383, "pitch": 60, "duration": 5, "velocity": 51}, {"time": 1383, "pitch": 63, "duration": 8, "velocity": 60}, {"time": 1383, "pitch": 67, "duration": 8, "velocity": 48}, {"time": 1407, "pitch": 53, "duration": 75, "velocity": 82}, {"time": 1407, "pitch": 60, "duration": 6, "velocity": 67}, {"time": 1407, "pitch": 65, "duration": 14, "velocity": 64}, {"time": 1419, "pitch": 60, "duration": 11, "velocity": 42}, {"time": 1431, "pitch": 68, "duration": 16, "velocity": 71}, {"time": 1455, "pitch": 65, "duration": 9, "velocity": 62}, {"time": 1479, "pitch": 60, "duration": 3, "velocity": 69}, {"time": 1479, "pitch": 65, "duration": 12, "velocity": 62}, {"time": 1479, "pitch": 68, "duration": 9, "velocity": 69}, {"time": 1491, "pitch": 60, "duration": 2, "velocity": 76}, {"time": 1503, "pitch": 49, "duration": 42, "velocity": 89}, {"time": 1503, "pitch": 61, "duration": 13, "velocity": 76}, {"time": 1503, "pitch": 68, "duration": 12, "velocity": 87}, {"time": 1515, "pitch": 56, "duration": 15, "velocity": 17}, {"time": 1527, "pitch": 65, "duration": 17, "velocity": 97}, {"time": 1539, "pitch": 56, "duration": 8, "velocity": 29}, {"time": 1545, "pitch": 61, "duration": 1, "velocity": 58}, {"time": 1551, "pitch": 51, "duration": 25, "velocity": 89}, {"time": 1551, "pitch": 63, "duration": 12, "velocity": 71}, {"time": 1551, "pitch": 67, "duration": 19, "velocity": 65}, {"time": 1563, "pitch": 58, "duration": 13, "velocity": 47}, {"time": 1575, "pitch": 63, "duration": 5, "velocity": 51}, {"time": 1575, "pitch": 67, "duration": 4, "velocity": 36}, {"time": 1575, "pitch": 70, "duration": 5, "velocity": 76}, {"time": 1599, "pitch": 46, "duration": 40, "velocity": 89}, {"time": 1599, "pitch": 58, "duration": 13, "velocity": 73}, {"time": 1599, "pitch": 61, "duration": 11, "velocity": 67}, {"time": 1611, "pitch": 53, "duration": 15, "velocity": 51}, {"time": 1623, "pitch": 58, "duration": 11, "velocity": 89}, {"time": 1623, "pitch": 65, "duration": 13, "velocity": 78}, {"time": 1635, "pitch": 53, "duration": 5, "velocity": 38}, {"time": 1641, "pitch": 58, "duration": 2, "velocity": 50}, {"time": 1647, "pitch": 53, "duration": 37, "velocity": 84}, {"time": 1647, "pitch": 65, "duration": 13, "velocity": 69}, {"time": 1659, "pitch": 60, "duration": 12, "velocity": 69}, {"time": 1671, "pitch": 68, "duration": 12, "velocity": 100}, {"time": 1677, "pitch": 60, "duration": 5, "velocity": 25}, {"time": 1683, "pitch": 65, "duration": 3, "velocity": 58}, {"time": 1695, "pitch": 49, "duration": 32, "velocity": 97}, {"time": 1695, "pitch": 61, "duration": 6, "velocity": 62}, {"time": 1695, "pitch": 65, "duration": 8, "velocity": 67}, {"time": 1701, "pitch": 56, "duration": 24, "velocity": 52}, {"time": 1707, "pitch": 61, "duration": 8, "velocity": 73}, {"time": 1719, "pitch": 65, "duration": 6, "velocity": 64}, {"time": 1719, "pitch": 68, "duration": 7, "velocity": 67}, {"time": 1743, "pitch": 48, "duration": 36, "velocity": 67}, {"time": 1743, "pitch": 60, "duration": 11, "velocity": 64}, {"time": 1743, "pitch": 63, "duration": 11, "velocity": 69}, {"time": 1755, "pitch": 55, "duration": 15, "velocity": 40}, {"time": 1761, "pitch": 60, "duration": 2, "velocity": 57}, {"time": 1767, "pitch": 67, "duration": 12, "velocity": 102}, {"time": 1773, "pitch": 55, "duration": 4, "velocity": 59}, {"time": 1779, "pitch": 63, "duration": 2, "velocity": 67}, {"time": 1791, "pitch": 46, "duration": 20, "velocity": 87}, {"time": 1791, "pitch": 58, "duration": 11, "velocity": 57}, {"time": 1791, "pitch": 61, "duration": 12, "velocity": 78}, {"time": 1803, "pitch": 53, "duration": 8, "velocity": 26}, {"time": 1815, "pitch": 51, "duration": 13, "velocity": 82}, {"time": 1815, "pitch": 58, "duration": 6, "velocity": 76}, {"time": 1815, "pitch": 63, "duration": 12, "velocity": 71}, {"time": 1827, "pitch": 58, "duration": 3, "velocity": 57}, {"time": 1839, "pitch": 44, "duration": 43, "velocity": 82}, {"time": 1839, "pitch": 56, "duration": 11, "velocity": 62}, {"time": 1839, "pitch": 60, "duration": 12, "velocity": 60}, {"time": 1851, "pitch": 51, "duration": 31, "velocity": 23}, {"time": 1857, "pitch": 58, "duration": 7, "velocity": 45}, {"time": 1863, "pitch": 60, "duration": 5, "velocity": 73}, {"time": 1869, "pitch": 63, "duration": 6, "velocity": 92}, {"time": 1875, "pitch": 56, "duration": 7, "velocity": 80}, {"time": 1887, "pitch": 44, "duration": 34, "velocity": 87}, {"time": 1887, "pitch": 56, "duration": 11, "velocity": 64}, {"time": 1887, "pitch": 60, "duration": 11, "velocity": 80}, {"time": 1899, "pitch": 51, "duration": 23, "velocity": 30}, {"time": 1911, "pitch": 63, "duration": 13, "velocity": 87}, {"time": 1923, "pitch": 56, "duration": 2, "velocity": 71}, {"time": 1935, "pitch": 51, "duration": 47, "velocity": 64}, {"time": 1935, "pitch": 58, "duration": 5, "velocity": 58}, {"time": 1935, "pitch": 63, "duration": 15, "velocity": 66}, {"time": 1947, "pitch": 58, "duration": 11, "velocity": 67}, {"time": 1959, "pitch": 65, "duration": 11, "velocity": 71}, {"time": 1971, "pitch": 58, "duration": 9, "velocity": 48}, {"time": 1983, "pitch": 44, "duration": 17, "velocity": 85}, {"time": 1983, "pitch": 56, "duration": 4, "velocity": 79}, {"time": 1983, "pitch": 60, "duration": 4, "velocity": 80}, {"time": 1995, "pitch": 56, "duration": 2, "velocity": 58}, {"time": 1995, "pitch": 60, "duration": 2, "velocity": 73}, {"time": 2007, "pitch": 44, "duration": 14, "velocity": 86}, {"time": 2007, "pitch": 51, "duration": 11, "velocity": 81}, {"time": 2007, "pitch": 56, "duration": 3, "velocity": 80}, {"time": 2007, "pitch": 60, "duration": 3, "velocity": 81}, {"time": 2007, "pitch": 63, "duration": 3, "velocity": 81}, {"time": 2019, "pitch": 56, "duration": 3, "velocity": 72}, {"time": 2031, "pitch": 44, "duration": 18, "velocity": 86}, {"time": 2031, "pitch": 56, "duration": 4, "velocity": 80}, {"time": 2031, "pitch": 60, "duration": 5, "velocity": 80}, {"time": 2031, "pitch": 63, "duration": 5, "velocity": 82}, {"time": 2043, "pitch": 56, "duration": 3, "velocity": 72}, {"time": 2055, "pitch": 44, "duration": 11, "velocity": 74}, {"time": 2055, "pitch": 51, "duration": 10, "velocity": 80}, {"time": 2055, "pitch": 56, "duration": 5, "velocity": 85}, {"time": 2055, "pitch": 60, "duration": 5, "velocity": 86}, {"time": 2055, "pitch": 63, "duration": 6, "velocity": 82}, {"time": 2067, "pitch": 58, "duration": 2, "velocity": 87}, {"time": 2079, "pitch": 48, "duration": 39, "velocity": 85}, {"time": 2079, "pitch": 60, "duration": 8, "velocity": 79}, {"time": 2079, "pitch": 63, "duration": 12, "velocity": 82}, {"time": 2091, "pitch": 55, "duration": 13, "velocity": 78}, {"time": 2103, "pitch": 60, "duration": 4, "velocity": 83}, {"time": 2103, "pitch": 63, "duration": 4, "velocity": 85}, {"time": 2103, "pitch": 67, "duration": 5, "velocity": 85}, {"time": 2109, "pitch": 55, "duration": 8, "velocity": 65}, {"time": 2115, "pitch": 60, "duration": 6, "velocity": 84}, {"time": 2121, "pitch": 63, "duration": 3, "velocity": 73}, {"time": 2127, "pitch": 48, "duration": 34, "velocity": 86}, {"time": 2127, "pitch": 60, "duration": 8, "velocity": 78}, {"time": 2127, "pitch": 63, "duration": 8, "velocity": 79}, {"time": 2127, "pitch": 67, "duration": 10, "velocity": 79}, {"time": 2139, "pitch": 55, "duration": 13, "velocity": 74}, {"time": 2145, "pitch": 60, "duration": 2, "velocity": 73}, {"time": 2151, "pitch": 60, "duration": 5, "velocity": 87}, {"time": 2151, "pitch": 63, "duration": 5, "velocity": 87}, {"time": 2151, "pitch": 67, "duration": 7, "velocity": 87}, {"time": 2157, "pitch": 55, "duration": 3, "velocity": 77}, {"time": 2163, "pitch": 60, "duration": 8, "velocity": 85}, {"time": 2169, "pitch": 63, "duration": 5, "velocity": 80}, {"time": 2175, "pitch": 41, "duration": 21, "velocity": 87}, {"time": 2175, "pitch": 60, "duration": 7, "velocity": 81}, {"time": 2175, "pitch": 65, "duration": 7, "velocity": 85}, {"time": 2187, "pitch": 65, "duration": 7, "velocity": 77}, {"time": 2193, "pitch": 60, "duration": 3, "velocity": 62}, {"time": 2199, "pitch": 41, "duration": 10, "velocity": 78}, {"time": 2199, "pitch": 48, "duration": 9, "velocity": 85}, {"time": 2199, "pitch": 60, "duration": 8, "velocity": 86}, {"time": 2199, "pitch": 65, "duration": 8, "velocity": 89}, {"time": 2199, "pitch": 68, "duration": 8, "velocity": 85}, {"time": 2211, "pitch": 60, "duration": 2, "velocity": 78}, {"time": 2211, "pitch": 65, "duration": 7, "velocity": 88}, {"time": 2211, "pitch": 68, "duration": 6, "velocity": 84}, {"time": 2217, "pitch": 60, "duration": 2, "velocity": 72}, {"time": 2223, "pitch": 41, "duration": 34, "velocity": 86}, {"time": 2223, "pitch": 60, "duration": 8, "velocity": 83}, {"time": 2223, "pitch": 65, "duration": 8, "velocity": 86}, {"time": 2235, "pitch": 48, "duration": 16, "velocity": 76}, {"time": 2235, "pitch": 65, "duration": 4, "velocity": 72}, {"time": 2241, "pitch": 60, "duration": 2, "velocity": 77}, {"time": 2247, "pitch": 60, "duration": 6, "velocity": 91}, {"time": 2247, "pitch": 65, "duration": 7, "velocity": 94}, {"time": 2247, "pitch": 68, "duration": 7, "velocity": 86}, {"time": 2259, "pitch": 65, "duration": 4, "velocity": 80}, {"time": 2271, "pitch": 49, "duration": 17, "velocity": 91}, {"time": 2271, "pitch": 61, "duration": 7, "velocity": 79}, {"time": 2271, "pitch": 65, "duration": 8, "velocity": 81}, {"time": 2283, "pitch": 61, "duration": 2, "velocity": 76}, {"time": 2283, "pitch": 65, "duration": 3, "velocity": 82}, {"time": 2289, "pitch": 61, "duration": 1, "velocity": 72}, {"time": 2295, "pitch": 49, "duration": 8, "velocity": 88}, {"time": 2295, "pitch": 56, "duration": 6, "velocity": 86}, {"time": 2295, "pitch": 61, "duration": 4, "velocity": 84}, {"time": 2295, "pitch": 65, "duration": 6, "velocity": 85}, {"time": 2307, "pitch": 61, "duration": 7, "velocity": 85}, {"time": 2313, "pitch": 65, "duration": 2, "velocity": 78}, {"time": 2319, "pitch": 51, "duration": 20, "velocity": 88}, {"time": 2319, "pitch": 58, "duration": 5, "velocity": 71}, {"time": 2319, "pitch": 63, "duration": 13, "velocity": 76}, {"time": 2331, "pitch": 58, "duration": 1, "velocity": 63}, {"time": 2337, "pitch": 58, "duration": 8, "velocity": 85}, {"time": 2337, "pitch": 67, "duration": 11, "velocity": 87}, {"time": 2343, "pitch": 51, "duration": 8, "velocity": 91}, {"time": 2349, "pitch": 63, "duration": 7, "velocity": 88}, {"time": 2355, "pitch": 58, "duration": 3, "velocity": 85}, {"time": 2367, "pitch": 46, "duration": 31, "velocity": 88}, {"time": 2367, "pitch": 58, "duration": 6, "velocity": 75}, {"time": 2367, "pitch": 61, "duration": 8, "velocity": 79}, {"time": 2373, "pitch": 53, "duration": 19, "velocity": 77}, {"time": 2379, "pitch": 58, "duration": 3, "velocity": 69}, {"time": 2385, "pitch": 61, "duration": 3, "velocity": 69}, {"time": 2391, "pitch": 58, "duration": 5, "velocity": 81}, {"time": 2391, "pitch": 61, "duration": 7, "velocity": 85}, {"time": 2391, "pitch": 65, "duration": 7, "velocity": 87}, {"time": 2397, "pitch": 53, "duration": 3, "velocity": 87}, {"time": 2403, "pitch": 58, "duration": 3, "velocity": 86}, {"time": 2415, "pitch": 41, "duration": 32, "velocity": 90}, {"time": 2415, "pitch": 60, "duration": 12, "velocity": 84}, {"time": 2415, "pitch": 65, "duration": 15, "velocity": 86}, {"time": 2427, "pitch": 48, "duration": 13, "velocity": 70}, {"time": 2433, "pitch": 60, "duration": 2, "velocity": 76}, {"time": 2439, "pitch": 60, "duration": 6, "velocity": 87}, {"time": 2439, "pitch": 65, "duration": 9, "velocity": 91}, {"time": 2439, "pitch": 68, "duration": 10, "velocity": 86}, {"time": 2445, "pitch": 48, "duration": 2, "velocity": 86}, {"time": 2451, "pitch": 60, "duration": 6, "velocity": 88}, {"time": 2457, "pitch": 65, "duration": 4, "velocity": 80}, {"time": 2463, "pitch": 49, "duration": 29, "velocity": 88}, {"time": 2463, "pitch": 61, "duration": 7, "velocity": 81}, {"time": 2463, "pitch": 68, "duration": 13, "velocity": 85}, {"time": 2469, "pitch": 56, "duration": 15, "velocity": 77}, {"time": 2475, "pitch": 61, "duration": 7, "velocity": 75}, {"time": 2481, "pitch": 65, "duration": 12, "velocity": 86}, {"time": 2487, "pitch": 56, "duration": 7, "velocity": 86}, {"time": 2493, "pitch": 61, "duration": 6, "velocity": 86}, {"time": 2499, "pitch": 65, "duration": 4, "velocity": 94}, {"time": 2505, "pitch": 61, "duration": 2, "velocity": 85}, {"time": 2511, "pitch": 48, "duration": 40, "velocity": 87}, {"time": 2511, "pitch": 60, "duration": 13, "velocity": 86}, {"time": 2511, "pitch": 63, "duration": 14, "velocity": 85}, {"time": 2523, "pitch": 55, "duration": 13, "velocity": 68}, {"time": 2529, "pitch": 60, "duration": 2, "velocity": 75}, {"time": 2535, "pitch": 60, "duration": 7, "velocity": 88}, {"time": 2535, "pitch": 63, "duration": 11, "velocity": 88}, {"time": 2535, "pitch": 67, "duration": 19, "velocity": 87}, {"time": 2541, "pitch": 55, "duration": 5, "velocity": 78}, {"time": 2547, "pitch": 60, "duration": 8, "velocity": 87}, {"time": 2553, "pitch": 63, "duration": 1, "velocity": 74}, {"time": 2559, "pitch": 46, "duration": 21, "velocity": 86}, {"time": 2559, "pitch": 58, "duration": 7, "velocity": 83}, {"time": 2559, "pitch": 61, "duration": 12, "velocity": 86}, {"time": 2565, "pitch": 53, "duration": 15, "velocity": 78}, {"time": 2571, "pitch": 58, "duration": 7, "velocity": 87}, {"time": 2577, "pitch": 61, "duration": 4, "velocity": 83}, {"time": 2583, "pitch": 51, "duration": 14, "velocity": 94}, {"time": 2583, "pitch": 58, "duration": 3, "velocity": 85}, {"time": 2583, "pitch": 63, "duration": 7, "velocity": 86}, {"time": 2589, "pitch": 58, "duration": 6, "velocity": 80}, {"time": 2595, "pitch": 63, "duration": 6, "velocity": 85}, {"time": 2601, "pitch": 58, "duration": 3, "velocity": 77}, {"time": 2607, "pitch": 44, "duration": 30, "velocity": 86}, {"time": 2607, "pitch": 56, "duration": 12, "velocity": 83}, {"time": 2607, "pitch": 60, "duration": 13, "velocity": 81}, {"time": 2619, "pitch": 51, "duration": 12, "velocity": 73}, {"time": 2625, "pitch": 56, "duration": 2, "velocity": 72}, {"time": 2631, "pitch": 56, "duration": 5, "velocity": 86}, {"time": 2631, "pitch": 60, "duration": 5, "velocity": 90}, {"time": 2631, "pitch": 63, "duration": 6, "velocity": 86}, {"time": 2637, "pitch": 51, "duration": 3, "velocity": 81}, {"time": 2643, "pitch": 56, "duration": 14, "velocity": 84}, {"time": 2655, "pitch": 44, "duration": 23, "velocity": 86}, {"time": 2655, "pitch": 68, "duration": 13, "velocity": 85}, {"time": 2661, "pitch": 51, "duration": 14, "velocity": 83}, {"time": 2667, "pitch": 56, "duration": 7, "velocity": 86}, {"time": 2673, "pitch": 63, "duration": 13, "velocity": 85}, {"time": 2679, "pitch": 51, "duration": 8, "velocity": 92}, {"time": 2685, "pitch": 60, "duration": 6, "velocity": 86}, {"time": 2691, "pitch": 56, "duration": 7, "velocity": 84}, {"time": 2697, "pitch": 60, "duration": 4, "velocity": 83}, {"time": 2703, "pitch": 39, "duration": 46, "velocity": 89}, {"time": 2703, "pitch": 58, "duration": 9, "velocity": 76}, {"time": 2703, "pitch": 63, "duration": 10, "velocity": 82}, {"time": 2715, "pitch": 46, "duration": 13, "velocity": 79}, {"time": 2721, "pitch": 58, "duration": 2, "velocity": 79}, {"time": 2727, "pitch": 58, "duration": 7, "velocity": 86}, {"time": 2727, "pitch": 67, "duration": 13, "velocity": 88}, {"time": 2733, "pitch": 46, "duration": 17, "velocity": 86}, {"time": 2739, "pitch": 63, "duration": 9, "velocity": 80}, {"time": 2745, "pitch": 58, "duration": 4, "velocity": 81}, {"time": 2751, "pitch": 44, "duration": 17, "velocity": 85}, {"time": 2751, "pitch": 56, "duration": 4, "velocity": 79}, {"time": 2751, "pitch": 60, "duration": 4, "velocity": 80}, {"time": 2763, "pitch": 56, "duration": 2, "velocity": 58}, {"time": 2763, "pitch": 60, "duration": 2, "velocity": 73}, {"time": 2775, "pitch": 44, "duration": 14, "velocity": 86}, {"time": 2775, "pitch": 51, "duration": 11, "velocity": 81}, {"time": 2775, "pitch": 56, "duration": 3, "velocity": 80}, {"time": 2775, "pitch": 60, "duration": 3, "velocity": 81}, {"time": 2775, "pitch": 63, "duration": 3, "velocity": 81}, {"time": 2787, "pitch": 56, "duration": 3, "velocity": 72}, {"time": 2799, "pitch": 44, "duration": 18, "velocity": 86}, {"time": 2799, "pitch": 56, "duration": 4, "velocity": 80}, {"time": 2799, "pitch": 60, "duration": 5, "velocity": 80}, {"time": 2799, "pitch": 63, "duration": 5, "velocity": 82}, {"time": 2811, "pitch": 56, "duration": 3, "velocity": 72}, {"time": 2823, "pitch": 44, "duration": 11, "velocity": 74}, {"time": 2823, "pitch": 51, "duration": 10, "velocity": 80}, {"time": 2823, "pitch": 56, "duration": 5, "velocity": 85}, {"time": 2823, "pitch": 60, "duration": 5, "velocity": 86}, {"time": 2823, "pitch": 63, "duration": 6, "velocity": 82}, {"time": 2835, "pitch": 58, "duration": 2, "velocity": 87}, {"time": 2847, "pitch": 48, "duration": 39, "velocity": 85}, {"time": 2847, "pitch": 60, "duration": 8, "velocity": 79}, {"time": 2847, "pitch": 63, "duration": 12, "velocity": 82}, {"time": 2859, "pitch": 55, "duration": 13, "velocity": 78}, {"time": 2871, "pitch": 60, "duration": 4, "velocity": 83}, {"time": 2871, "pitch": 63, "duration": 4, "velocity": 85}, {"time": 2871, "pitch": 67, "duration": 5, "velocity": 85}, {"time": 2877, "pitch": 55, "duration": 8, "velocity": 65}, {"time": 2883, "pitch": 60, "duration": 6, "velocity": 84}, {"time": 2889, "pitch": 63, "duration": 3, "velocity": 73}, {"time": 2895, "pitch": 48, "duration": 34, "velocity": 86}, {"time": 2895, "pitch": 60, "duration": 8, "velocity": 78}, {"time": 2895, "pitch": 63, "duration": 8, "velocity": 79}, {"time": 2895, "pitch": 67, "duration": 10, "velocity": 79}, {"time": 2907, "pitch": 55, "duration": 13, "velocity": 74}, {"time": 2913, "pitch": 60, "duration": 2, "velocity": 73}, {"time": 2919, "pitch": 60, "duration": 5, "velocity": 87}, {"time": 2919, "pitch": 63, "duration": 5, "velocity": 87}, {"time": 2919, "pitch": 67, "duration": 7, "velocity": 87}, {"time": 2925, "pitch": 55, "duration": 3, "velocity": 77}, {"time": 2931, "pitch": 60, "duration": 8, "velocity": 85}, {"time": 2937, "pitch": 63, "duration": 5, "velocity": 80}, {"time": 2943, "pitch": 41, "duration": 21, "velocity": 87}, {"time": 2943, "pitch": 60, "duration": 7, "velocity": 81}, {"time": 2943, "pitch": 65, "duration": 7, "velocity": 85}, {"time": 2955, "pitch": 65, "duration": 7, "velocity": 77}, {"time": 2961, "pitch": 60, "duration": 3, "velocity": 62}, {"time": 2967, "pitch": 41, "duration": 10, "velocity": 78}, {"time": 2967, "pitch": 48, "duration": 9, "velocity": 85}, {"time": 2967, "pitch": 60, "duration": 8, "velocity": 86}, {"time": 2967, "pitch": 65, "duration": 8, "velocity": 89}, {"time": 2967, "pitch": 68, "duration": 8, "velocity": 85}, {"time": 2979, "pitch": 60, "duration": 2, "velocity": 78}, {"time": 2979, "pitch": 65, "duration": 7, "velocity": 88}, {"time": 2979, "pitch": 68, "duration": 6, "velocity": 84}, {"time": 2985, "pitch": 60, "duration": 2, "velocity": 72}, {"time": 2991, "pitch": 41, "duration": 34, "velocity": 86}, {"time": 2991, "pitch": 60, "duration": 8, "velocity": 83}, {"time": 2991, "pitch": 65, "duration": 8, "velocity": 86}, {"time": 3003, "pitch": 48, "duration": 16, "velocity": 76}, {"time": 3003, "pitch": 65, "duration": 4, "velocity": 72}, {"time": 3009, "pitch": 60, "duration": 2, "velocity": 77}, {"time": 3015, "pitch": 60, "duration": 6, "velocity": 91}, {"time": 3015, "pitch": 65, "duration": 7, "velocity": 94}, {"time": 3015, "pitch": 68, "duration": 7, "velocity": 86}, {"time": 3027, "pitch": 65, "duration": 4, "velocity": 80}, {"time": 3039, "pitch": 49, "duration": 17, "velocity": 91}, {"time": 3039, "pitch": 61, "duration": 7, "velocity": 79}, {"time": 3039, "pitch": 65, "duration": 8, "velocity": 81}, {"time": 3051, "pitch": 61, "duration": 2, "velocity": 76}, {"time": 3051, "pitch": 65, "duration": 3, "velocity": 82}, {"time": 3057, "pitch": 61, "duration": 1, "velocity": 72}, {"time": 3063, "pitch": 49, "duration": 8, "velocity": 88}, {"time": 3063, "pitch": 56, "duration": 6, "velocity": 86}, {"time": 3063, "pitch": 61, "duration": 4, "velocity": 84}, {"time": 3063, "pitch": 65, "duration": 6, "velocity": 85}, {"time": 3075, "pitch": 61, "duration": 7, "velocity": 85}, {"time": 3081, "pitch": 65, "duration": 2, "velocity": 78}, {"time": 3087, "pitch": 51, "duration": 20, "velocity": 88}, {"time": 3087, "pitch": 58, "duration": 5, "velocity": 71}, {"time": 3087, "pitch": 63, "duration": 13, "velocity": 76}, {"time": 3099, "pitch": 58, "duration": 1, "velocity": 63}, {"time": 3105, "pitch": 58, "duration": 8, "velocity": 85}, {"time": 3105, "pitch": 67, "duration": 11, "velocity": 87}, {"time": 3111, "pitch": 51, "duration": 8, "velocity": 91}, {"time": 3117, "pitch": 63, "duration": 7, "velocity": 88}, {"time": 3123, "pitch": 58, "duration": 3, "velocity": 85}, {"time": 3135, "pitch": 46, "duration": 31, "velocity": 88}, {"time": 3135, "pitch": 58, "duration": 6, "velocity": 75}, {"time": 3135, "pitch": 61, "duration": 8, "velocity": 79}, {"time": 3141, "pitch": 53, "duration": 19, "velocity": 77}, {"time": 3147, "pitch": 58, "duration": 3, "velocity": 69}, {"time": 3153, "pitch": 61, "duration": 3, "velocity": 69}, {"time": 3159, "pitch": 58, "duration": 5, "velocity": 81}, {"time": 3159, "pitch": 61, "duration": 7, "velocity": 85}, {"time": 3159, "pitch": 65, "duration": 7, "velocity": 87}, {"time": 3165, "pitch": 53, "duration": 3, "velocity": 87}, {"time": 3171, "pitch": 58, "duration": 3, "velocity": 86}, {"time": 3183, "pitch": 41, "duration": 32, "velocity": 90}, {"time": 3183, "pitch": 60, "duration": 12, "velocity": 84}, {"time": 3183, "pitch": 65, "duration": 15, "velocity": 86}, {"time": 3195, "pitch": 48, "duration": 13, "velocity": 70}, {"time": 3201, "pitch": 60, "duration": 2, "velocity": 76}, {"time": 3207, "pitch": 60, "duration": 6, "velocity": 87}, {"time": 3207, "pitch": 65, "duration": 9, "velocity": 91}, {"time": 3207, "pitch": 68, "duration": 10, "velocity": 86}, {"time": 3213, "pitch": 48, "duration": 2, "velocity": 86}, {"time": 3219, "pitch": 60, "duration": 6, "velocity": 88}, {"time": 3225, "pitch": 65, "duration": 4, "velocity": 80}, {"time": 3231, "pitch": 49, "duration": 29, "velocity": 88}, {"time": 3231, "pitch": 61, "duration": 7, "velocity": 81}, {"time": 3231, "pitch": 68, "duration": 13, "velocity": 85}, {"time": 3237, "pitch": 56, "duration": 15, "velocity": 77}, {"time": 3243, "pitch": 61, "duration": 7, "velocity": 75}, {"time": 3249, "pitch": 65, "duration": 12, "velocity": 86}, {"time": 3255, "pitch": 56, "duration": 7, "velocity": 86}, {"time": 3261, "pitch": 61, "duration": 6, "velocity": 86}, {"time": 3267, "pitch": 65, "duration": 4, "velocity": 94}, {"time": 3273, "pitch": 61, "duration": 2, "velocity": 85}, {"time": 3279, "pitch": 48, "duration": 40, "velocity": 87}, {"time": 3279, "pitch": 60, "duration": 13, "velocity": 86}, {"time": 3279, "pitch": 63, "duration": 14, "velocity": 85}, {"time": 3291, "pitch": 55, "duration": 13, "velocity": 68}, {"time": 3297, "pitch": 60, "duration": 2, "velocity": 75}, {"time": 3303, "pitch": 60, "duration": 7, "velocity": 88}, {"time": 3303, "pitch": 63, "duration": 11, "velocity": 88}, {"time": 3303, "pitch": 67, "duration": 19, "velocity": 87}, {"time": 3309, "pitch": 55, "duration": 5, "velocity": 78}, {"time": 3315, "pitch": 60, "duration": 8, "velocity": 87}, {"time": 3321, "pitch": 63, "duration": 1, "velocity": 74}, {"time": 3327, "pitch": 46, "duration": 21, "velocity": 86}, {"time": 3327, "pitch": 58, "duration": 7, "velocity": 83}, {"time": 3327, "pitch": 61, "duration": 12, "velocity": 86}, {"time": 3333, "pitch": 53, "duration": 15, "velocity": 78}, {"time": 3339, "pitch": 58, "duration": 7, "velocity": 87}, {"time": 3345, "pitch": 61, "duration": 4, "velocity": 83}, {"time": 3351, "pitch": 51, "duration": 14, "velocity": 94}, {"time": 3351, "pitch": 58, "duration": 3, "velocity": 85}, {"time": 3351, "pitch": 63, "duration": 7, "velocity": 86}, {"time": 3357, "pitch": 58, "duration": 6, "velocity": 80}, {"time": 3363, "pitch": 63, "duration": 6, "velocity": 85}, {"time": 3369, "pitch": 58, "duration": 3, "velocity": 77}, {"time": 3375, "pitch": 44, "duration": 30, "velocity": 86}, {"time": 3375, "pitch": 56, "duration": 12, "velocity": 83}, {"time": 3375, "pitch": 60, "duration": 13, "velocity": 81}, {"time": 3387, "pitch": 51, "duration": 12, "velocity": 73}, {"time": 3393, "pitch": 56, "duration": 2, "velocity": 72}, {"time": 3399, "pitch": 56, "duration": 5, "velocity": 86}, {"time": 3399, "pitch": 60, "duration": 5, "velocity": 90}, {"time": 3399, "pitch": 63, "duration": 6, "velocity": 86}, {"time": 3405, "pitch": 51, "duration": 3, "velocity": 81}, {"time": 3411, "pitch": 56, "duration": 14, "velocity": 84}, {"time": 3423, "pitch": 44, "duration": 23, "velocity": 86}, {"time": 3423, "pitch": 68, "duration": 13, "velocity": 85}, {"time": 3429, "pitch": 51, "duration": 14, "velocity": 83}, {"time": 3435, "pitch": 56, "duration": 7, "velocity": 86}, {"time": 3441, "pitch": 63, "duration": 13, "velocity": 85}, {"time": 3447, "pitch": 51, "duration": 8, "velocity": 92}, {"time": 3453, "pitch": 60, "duration": 6, "velocity": 86}, {"time": 3459, "pitch": 56, "duration": 7, "velocity": 84}, {"time": 3465, "pitch": 60, "duration": 4, "velocity": 83}, {"time": 3471, "pitch": 39, "duration": 46, "velocity": 89}, {"time": 3471, "pitch": 58, "duration": 9, "velocity": 76}, {"time": 3471, "pitch": 63, "duration": 10, "velocity": 82}, {"time": 3483, "pitch": 46, "duration": 13, "velocity": 79}, {"time": 3489, "pitch": 58, "duration": 2, "velocity": 79}, {"time": 3495, "pitch": 58, "duration": 7, "velocity": 86}, {"time": 3495, "pitch": 67, "duration": 13, "velocity": 88}, {"time": 3501, "pitch": 46, "duration": 17, "velocity": 86}, {"time": 3507, "pitch": 63, "duration": 9, "velocity": 80}, {"time": 3513, "pitch": 58, "duration": 4, "velocity": 81}, {"time": 3519, "pitch": 46, "duration": 31, "velocity": 88}, {"time": 3519, "pitch": 58, "duration": 6, "velocity": 75}, {"time": 3519, "pitch": 61, "duration": 8, "velocity": 79}, {"time": 3525, "pitch": 53, "duration": 19, "velocity": 77}, {"time": 3531, "pitch": 58, "duration": 3, "velocity": 69}, {"time": 3537, "pitch": 61, "duration": 3, "velocity": 69}, {"time": 3543, "pitch": 58, "duration": 5, "velocity": 81}, {"time": 3543, "pitch": 61, "duration": 7, "velocity": 85}, {"time": 3543, "pitch": 65, "duration": 7, "velocity": 87}, {"time": 3549, "pitch": 53, "duration": 3, "velocity": 87}, {"time": 3555, "pitch": 58, "duration": 3, "velocity": 86}, {"time": 3567, "pitch": 41, "duration": 32, "velocity": 90}, {"time": 3567, "pitch": 60, "duration": 12, "velocity": 84}, {"time": 3567, "pitch": 65, "duration": 15, "velocity": 86}, {"time": 3579, "pitch": 48, "duration": 13, "velocity": 70}, {"time": 3585, "pitch": 60, "duration": 2, "velocity": 76}, {"time": 3591, "pitch": 60, "duration": 6, "velocity": 87}, {"time": 3591, "pitch": 65, "duration": 9, "velocity": 91}, {"time": 3591, "pitch": 68, "duration": 10, "velocity": 86}, {"time": 3597, "pitch": 48, "duration": 2, "velocity": 86}, {"time": 3603, "pitch": 60, "duration": 6, "velocity": 88}, {"time": 3609, "pitch": 65, "duration": 4, "velocity": 80}, {"time": 3615, "pitch": 49, "duration": 29, "velocity": 88}, {"time": 3615, "pitch": 61, "duration": 7, "velocity": 81}, {"time": 3615, "pitch": 68, "duration": 13, "velocity": 85}, {"time": 3621, "pitch": 56, "duration": 15, "velocity": 77}, {"time": 3627, "pitch": 61, "duration": 7, "velocity": 75}, {"time": 3633, "pitch": 65, "duration": 12, "velocity": 86}, {"time": 3639, "pitch": 56, "duration": 7, "velocity": 86}, {"time": 3645, "pitch": 61, "duration": 6, "velocity": 86}, {"time": 3651, "pitch": 65, "duration": 4, "velocity": 94}, {"time": 3657, "pitch": 61, "duration": 2, "velocity": 85}, {"time": 3663, "pitch": 48, "duration": 40, "velocity": 87}, {"time": 3663, "pitch": 60, "duration": 13, "velocity": 86}, {"time": 3663, "pitch": 63, "duration": 14, "velocity": 85}, {"time": 3675, "pitch": 55, "duration": 13, "velocity": 68}, {"time": 3681, "pitch": 60, "duration": 2, "velocity": 75}, {"time": 3687, "pitch": 60, "duration": 7, "velocity": 88}, {"time": 3687, "pitch": 63, "duration": 11, "velocity": 88}, {"time": 3687, "pitch": 67, "duration": 19, "velocity": 87}, {"time": 3693, "pitch": 55, "duration": 5, "velocity": 78}, {"time": 3699, "pitch": 60, "duration": 8, "velocity": 87}, {"time": 3705, "pitch": 63, "duration": 1, "velocity": 74}, {"time": 3711, "pitch": 46, "duration": 21, "velocity": 86}, {"time": 3711, "pitch": 58, "duration": 7, "velocity": 83}, {"time": 3711, "pitch": 61, "duration": 12, "velocity": 86}, {"time": 3717, "pitch": 53, "duration": 15, "velocity": 78}, {"time": 3723, "pitch": 58, "duration": 7, "velocity": 87}, {"time": 3729, "pitch": 61, "duration": 4, "velocity": 83}, {"time": 3735, "pitch": 51, "duration": 14, "velocity": 94}, {"time": 3735, "pitch": 58, "duration": 3, "velocity": 85}, {"time": 3735, "pitch": 63, "duration": 7, "velocity": 86}, {"time": 3741, "pitch": 58, "duration": 6, "velocity": 80}, {"time": 3747, "pitch": 63, "duration": 6, "velocity": 85}, {"time": 3753, "pitch": 58, "duration": 3, "velocity": 77}, {"time": 3759, "pitch": 44, "duration": 30, "velocity": 86}, {"time": 3759, "pitch": 56, "duration": 12, "velocity": 83}, {"time": 3759, "pitch": 60, "duration": 13, "velocity": 81}, {"time": 3771, "pitch": 51, "duration": 12, "velocity": 73}, {"time": 3777, "pitch": 56, "duration": 2, "velocity": 72}, {"time": 3783, "pitch": 56, "duration": 5, "velocity": 86}, {"time": 3783, "pitch": 60, "duration": 5, "velocity": 90}, {"time": 3783, "pitch": 63, "duration": 6, "velocity": 86}, {"time": 3789, "pitch": 51, "duration": 3, "velocity": 81}, {"time": 3795, "pitch": 56, "duration": 14, "velocity": 84}, {"time": 3807, "pitch": 44, "duration": 23, "velocity": 86}, {"time": 3807, "pitch": 68, "duration": 13, "velocity": 85}, {"time": 3813, "pitch": 51, "duration": 14, "velocity": 83}, {"time": 3819, "pitch": 56, "duration": 7, "velocity": 86}, {"time": 3825, "pitch": 63, "duration": 13, "velocity": 85}, {"time": 3831, "pitch": 51, "duration": 8, "velocity": 92}, {"time": 3837, "pitch": 60, "duration": 6, "velocity": 86}, {"time": 3843, "pitch": 56, "duration": 7, "velocity": 84}, {"time": 3849, "pitch": 60, "duration": 4, "velocity": 83}, {"time": 3855, "pitch": 39, "duration": 46, "velocity": 89}, {"time": 3855, "pitch": 58, "duration": 9, "velocity": 76}, {"time": 3855, "pitch": 63, "duration": 10, "velocity": 82}, {"time": 3867, "pitch": 46, "duration": 13, "velocity": 79}, {"time": 3873, "pitch": 58, "duration": 2, "velocity": 79}, {"time": 3879, "pitch": 58, "duration": 7, "velocity": 86}, {"time": 3879, "pitch": 67, "duration": 13, "velocity": 88}, {"time": 3885, "pitch": 46, "duration": 17, "velocity": 86}, {"time": 3891, "pitch": 63, "duration": 9, "velocity": 80}, {"time": 3897, "pitch": 58, "duration": 4, "velocity": 81}, {"time": 3903, "pitch": 46, "duration": 31, "velocity": 86}, {"time": 3903, "pitch": 58, "duration": 8, "velocity": 78}, {"time": 3903, "pitch": 61, "duration": 8, "velocity": 82}, {"time": 3909, "pitch": 53, "duration": 19, "velocity": 85}, {"time": 3915, "pitch": 58, "duration": 2, "velocity": 83}, {"time": 3915, "pitch": 61, "duration": 6, "velocity": 86}, {"time": 3921, "pitch": 58, "duration": 2, "velocity": 74}, {"time": 3927, "pitch": 58, "duration": 6, "velocity": 85}, {"time": 3927, "pitch": 61, "duration": 6, "velocity": 89}, {"time": 3927, "pitch": 65, "duration": 6, "velocity": 92}, {"time": 3933, "pitch": 53, "duration": 2, "velocity": 73}, {"time": 3939, "pitch": 58, "duration": 2, "velocity": 78}, {"time": 3939, "pitch": 61, "duration": 5, "velocity": 85}, {"time": 3951, "pitch": 41, "duration": 36, "velocity": 86}, {"time": 3951, "pitch": 60, "duration": 7, "velocity": 79}, {"time": 3951, "pitch": 65, "duration": 7, "velocity": 86}, {"time": 3957, "pitch": 48, "duration": 19, "velocity": 60}, {"time": 3963, "pitch": 60, "duration": 2, "velocity": 77}, {"time": 3963, "pitch": 65, "duration": 7, "velocity": 80}, {"time": 3969, "pitch": 60, "duration": 2, "velocity": 72}, {"time": 3975, "pitch": 60, "duration": 6, "velocity": 86}, {"time": 3975, "pitch": 65, "duration": 7, "velocity": 89}, {"time": 3975, "pitch": 68, "duration": 6, "velocity": 85}, {"time": 3981, "pitch": 48, "duration": 5, "velocity": 71}, {"time": 3987, "pitch": 60, "duration": 3, "velocity": 87}, {"time": 3999, "pitch": 49, "duration": 25, "velocity": 94}, {"time": 3999, "pitch": 56, "duration": 2, "velocity": 80}, {"time": 3999, "pitch": 61, "duration": 6, "velocity": 81}, {"time": 3999, "pitch": 65, "duration": 6, "velocity": 86}, {"time": 4005, "pitch": 56, "duration": 2, "velocity": 76}, {"time": 4011, "pitch": 61, "duration": 6, "velocity": 78}, {"time": 4017, "pitch": 56, "duration": 2, "velocity": 73}, {"time": 4023, "pitch": 56, "duration": 6, "velocity": 89}, {"time": 4023, "pitch": 61, "duration": 7, "velocity": 90}, {"time": 4023, "pitch": 65, "duration": 6, "velocity": 92}, {"time": 4029, "pitch": 49, "duration": 4, "velocity": 85}, {"time": 4035, "pitch": 56, "duration": 2, "velocity": 87}, {"time": 4035, "pitch": 61, "duration": 5, "velocity": 89}, {"time": 4047, "pitch": 48, "duration": 21, "velocity": 87}, {"time": 4047, "pitch": 60, "duration": 8, "velocity": 82}, {"time": 4047, "pitch": 63, "duration": 8, "velocity": 85}, {"time": 4059, "pitch": 60, "duration": 2, "velocity": 76}, {"time": 4059, "pitch": 63, "duration": 3, "velocity": 80}, {"time": 4065, "pitch": 60, "duration": 2, "velocity": 72}, {"time": 4071, "pitch": 55, "duration": 9, "velocity": 86}, {"time": 4071, "pitch": 60, "duration": 3, "velocity": 85}, {"time": 4071, "pitch": 63, "duration": 6, "velocity": 85}, {"time": 4071, "pitch": 67, "duration": 8, "velocity": 85}, {"time": 4077, "pitch": 60, "duration": 3, "velocity": 84}, {"time": 4083, "pitch": 48, "duration": 6, "velocity": 70}, {"time": 4083, "pitch": 60, "duration": 3, "velocity": 88}, {"time": 4083, "pitch": 63, "duration": 6, "velocity": 90}, {"time": 4089, "pitch": 60, "duration": 2, "velocity": 83}, {"time": 4095, "pitch": 46, "duration": 16, "velocity": 89}, {"time": 4095, "pitch": 58, "duration": 5, "velocity": 85}, {"time": 4095, "pitch": 61, "duration": 7, "velocity": 86}, {"time": 4101, "pitch": 53, "duration": 8, "velocity": 74}, {"time": 4107, "pitch": 58, "duration": 2, "velocity": 84}, {"time": 4107, "pitch": 61, "duration": 8, "velocity": 86}, {"time": 4113, "pitch": 58, "duration": 3, "velocity": 76}, {"time": 4119, "pitch": 39, "duration": 12, "velocity": 86}, {"time": 4119, "pitch": 58, "duration": 4, "velocity": 84}, {"time": 4119, "pitch": 63, "duration": 7, "velocity": 84}, {"time": 4125, "pitch": 46, "duration": 5, "velocity": 73}, {"time": 4125, "pitch": 58, "duration": 3, "velocity": 84}, {"time": 4131, "pitch": 58, "duration": 3, "velocity": 86}, {"time": 4131, "pitch": 63, "duration": 7, "velocity": 84}, {"time": 4137, "pitch": 58, "duration": 3, "velocity": 71}, {"time": 4143, "pitch": 44, "duration": 28, "velocity": 85}, {"time": 4143, "pitch": 56, "duration": 6, "velocity": 85}, {"time": 4143, "pitch": 60, "duration": 7, "velocity": 81}, {"time": 4149, "pitch": 51, "duration": 17, "velocity": 47}, {"time": 4155, "pitch": 56, "duration": 2, "velocity": 73}, {"time": 4155, "pitch": 60, "duration": 4, "velocity": 77}, {"time": 4161, "pitch": 56, "duration": 2, "velocity": 80}, {"time": 4167, "pitch": 56, "duration": 5, "velocity": 86}, {"time": 4167, "pitch": 60, "duration": 5, "velocity": 88}, {"time": 4167, "pitch": 63, "duration": 5, "velocity": 86}, {"time": 4173, "pitch": 51, "duration": 2, "velocity": 86}, {"time": 4179, "pitch": 56, "duration": 7, "velocity": 94}, {"time": 4191, "pitch": 44, "duration": 36, "velocity": 84}, {"time": 4191, "pitch": 56, "duration": 5, "velocity": 85}, {"time": 4191, "pitch": 60, "duration": 7, "velocity": 83}, {"time": 4197, "pitch": 51, "duration": 22, "velocity": 69}, {"time": 4203, "pitch": 60, "duration": 7, "velocity": 86}, {"time": 4203, "pitch": 63, "duration": 7, "velocity": 83}, {"time": 4209, "pitch": 56, "duration": 3, "velocity": 81}, {"time": 4215, "pitch": 56, "duration": 6, "velocity": 91}, {"time": 4215, "pitch": 60, "duration": 7, "velocity": 92}, {"time": 4221, "pitch": 51, "duration": 4, "velocity": 79}, {"time": 4227, "pitch": 56, "duration": 1, "velocity": 79}, {"time": 4227, "pitch": 60, "duration": 4, "velocity": 85}, {"time": 4233, "pitch": 56, "duration": 3, "velocity": 73}, {"time": 4239, "pitch": 39, "duration": 45, "velocity": 87}, {"time": 4239, "pitch": 58, "duration": 6, "velocity": 80}, {"time": 4239, "pitch": 63, "duration": 7, "velocity": 80}, {"time": 4245, "pitch": 46, "duration": 19, "velocity": 76}, {"time": 4251, "pitch": 58, "duration": 2, "velocity": 81}, {"time": 4251, "pitch": 63, "duration": 7, "velocity": 85}, {"time": 4257, "pitch": 58, "duration": 2, "velocity": 74}, {"time": 4263, "pitch": 58, "duration": 4, "velocity": 87}, {"time": 4263, "pitch": 63, "duration": 4, "velocity": 89}, {"time": 4263, "pitch": 67, "duration": 7, "velocity": 86}, {"time": 4269, "pitch": 46, "duration": 15, "velocity": 86}, {"time": 4275, "pitch": 63, "duration": 10, "velocity": 87}, {"time": 4281, "pitch": 58, "duration": 5, "velocity": 85}, {"time": 4284, "pitch": 58, "duration": 2, "velocity": 71}, {"time": 4285, "pitch": 61, "duration": 21, "velocity": 79}, {"time": 4286, "pitch": 46, "duration": 37, "velocity": 86}, {"time": 4287, "pitch": 65, "duration": 19, "velocity": 81}, {"time": 4288, "pitch": 70, "duration": 15, "velocity": 80}, {"time": 4331, "pitch": 60, "duration": 6, "velocity": 71}, {"time": 4333, "pitch": 65, "duration": 14, "velocity": 80}, {"time": 4334, "pitch": 41, "duration": 34, "velocity": 76}, {"time": 4335, "pitch": 68, "duration": 32, "velocity": 74}, {"time": 4345, "pitch": 48, "duration": 20, "velocity": 52}, {"time": 4379, "pitch": 56, "duration": 19, "velocity": 65}, {"time": 4380, "pitch": 61, "duration": 22, "velocity": 75}, {"time": 4382, "pitch": 49, "duration": 23, "velocity": 81}, {"time": 4383, "pitch": 65, "duration": 19, "velocity": 85}, {"time": 4425, "pitch": 60, "duration": 9, "velocity": 54}, {"time": 4429, "pitch": 63, "duration": 5, "velocity": 61}, {"time": 4429, "pitch": 67, "duration": 4, "velocity": 68}, {"time": 4430, "pitch": 48, "duration": 39, "velocity": 80}, {"time": 4430, "pitch": 72, "duration": 17, "velocity": 81}, {"time": 4442, "pitch": 67, "duration": 19, "velocity": 69}, {"time": 4454, "pitch": 55, "duration": 9, "velocity": 64}, {"time": 4460, "pitch": 63, "duration": 7, "velocity": 76}, {"time": 4466, "pitch": 60, "duration": 8, "velocity": 88}, {"time": 4471, "pitch": 63, "duration": 3, "velocity": 79}, {"time": 4477, "pitch": 46, "duration": 18, "velocity": 84}, {"time": 4477, "pitch": 61, "duration": 13, "velocity": 73}, {"time": 4477, "pitch": 58, "duration": 13, "velocity": 74}, {"time": 4500, "pitch": 58, "duration": 15, "velocity": 71}, {"time": 4501, "pitch": 51, "duration": 16, "velocity": 81}, {"time": 4502, "pitch": 63, "duration": 12, "velocity": 75}, {"time": 4520, "pitch": 61, "duration": 5, "velocity": 72}, {"time": 4525, "pitch": 44, "duration": 42, "velocity": 80}, {"time": 4526, "pitch": 60, "duration": 21, "velocity": 75}, {"time": 4526, "pitch": 56, "duration": 34, "velocity": 73}, {"time": 4536, "pitch": 51, "duration": 25, "velocity": 58}, {"time": 4550, "pitch": 63, "duration": 11, "velocity": 86}, {"time": 4569, "pitch": 56, "duration": 5, "velocity": 70}, {"time": 4571, "pitch": 60, "duration": 6, "velocity": 78}, {"time": 4572, "pitch": 63, "duration": 4, "velocity": 69}, {"time": 4574, "pitch": 44, "duration": 48, "velocity": 79}, {"time": 4574, "pitch": 68, "duration": 18, "velocity": 80}, {"time": 4580, "pitch": 51, "duration": 39, "velocity": 65}, {"time": 4585, "pitch": 56, "duration": 15, "velocity": 75}, {"time": 4592, "pitch": 63, "duration": 32, "velocity": 77}, {"time": 4598, "pitch": 60, "duration": 27, "velocity": 68}, {"time": 4671, "pitch": 46, "duration": 40, "velocity": 86}, {"time": 4677, "pitch": 53, "duration": 20, "velocity": 69}, {"time": 4683, "pitch": 58, "duration": 7, "velocity": 62}, {"time": 4689, "pitch": 61, "duration": 6, "velocity": 76}, {"time": 4695, "pitch": 53, "duration": 2, "velocity": 72}, {"time": 4695, "pitch": 65, "duration": 19, "velocity": 84}, {"time": 4707, "pitch": 58, "duration": 7, "velocity": 66}, {"time": 4713, "pitch": 61, "duration": 8, "velocity": 76}, {"time": 4719, "pitch": 41, "duration": 32, "velocity": 87}, {"time": 4719, "pitch": 65, "duration": 9, "velocity": 61}, {"time": 4725, "pitch": 48, "duration": 23, "velocity": 75}, {"time": 4731, "pitch": 60, "duration": 7, "velocity": 79}, {"time": 4737, "pitch": 65, "duration": 6, "velocity": 86}, {"time": 4743, "pitch": 68, "duration": 8, "velocity": 87}, {"time": 4749, "pitch": 65, "duration": 7, "velocity": 79}, {"time": 4755, "pitch": 60, "duration": 2, "velocity": 73}, {"time": 4767, "pitch": 46, "duration": 40, "velocity": 81}, {"time": 4767, "pitch": 58, "duration": 7, "velocity": 73}, {"time": 4767, "pitch": 61, "duration": 12, "velocity": 78}, {"time": 4773, "pitch": 53, "duration": 20, "velocity": 76}, {"time": 4779, "pitch": 58, "duration": 8, "velocity": 73}, {"time": 4785, "pitch": 61, "duration": 6, "velocity": 75}, {"time": 4791, "pitch": 65, "duration": 13, "velocity": 85}, {"time": 4797, "pitch": 53, "duration": 8, "velocity": 74}, {"time": 4803, "pitch": 61, "duration": 9, "velocity": 75}, {"time": 4809, "pitch": 58, "duration": 3, "velocity": 64}, {"time": 4815, "pitch": 41, "duration": 32, "velocity": 85}, {"time": 4815, "pitch": 65, "duration": 8, "velocity": 81}, {"time": 4821, "pitch": 48, "duration": 25, "velocity": 63}, {"time": 4827, "pitch": 60, "duration": 8, "velocity": 75}, {"time": 4833, "pitch": 65, "duration": 6, "velocity": 81}, {"time": 4839, "pitch": 68, "duration": 7, "velocity": 86}, {"time": 4845, "pitch": 65, "duration": 7, "velocity": 82}, {"time": 4851, "pitch": 60, "duration": 2, "velocity": 76}, {"time": 4863, "pitch": 46, "duration": 39, "velocity": 81}, {"time": 4863, "pitch": 58, "duration": 6, "velocity": 72}, {"time": 4863, "pitch": 61, "duration": 11, "velocity": 76}, {"time": 4869, "pitch": 53, "duration": 20, "velocity": 73}, {"time": 4875, "pitch": 58, "duration": 8, "velocity": 71}, {"time": 4881, "pitch": 61, "duration": 5, "velocity": 74}, {"time": 4887, "pitch": 65, "duration": 12, "velocity": 84}, {"time": 4893, "pitch": 61, "duration": 7, "velocity": 78}, {"time": 4899, "pitch": 58, "duration": 9, "velocity": 76}, {"time": 4905, "pitch": 61, "duration": 5, "velocity": 72}, {"time": 4911, "pitch": 41, "duration": 38, "velocity": 85}, {"time": 4911, "pitch": 65, "duration": 8, "velocity": 80}, {"time": 4917, "pitch": 48, "duration": 29, "velocity": 68}, {"time": 4923, "pitch": 60, "duration": 8, "velocity": 75}, {"time": 4929, "pitch": 65, "duration": 6, "velocity": 80}, {"time": 4935, "pitch": 68, "duration": 8, "velocity": 85}, {"time": 4941, "pitch": 65, "duration": 8, "velocity": 78}, {"time": 4947, "pitch": 60, "duration": 10, "velocity": 73}, {"time": 4953, "pitch": 65, "duration": 20, "velocity": 78}, {"time": 4959, "pitch": 46, "duration": 77, "velocity": 87}, {"time": 4965, "pitch": 53, "duration": 66, "velocity": 71}, {"time": 4977, "pitch": 58, "duration": 19, "velocity": 82}, {"time": 4983, "pitch": 61, "duration": 11, "velocity": 85}, {"time": 4995, "pitch": 65, "duration": 9, "velocity": 88}, {"time": 5001, "pitch": 58, "duration": 5, "velocity": 45}, {"time": 5007, "pitch": 61, "duration": 37, "velocity": 71}, {"time": 5007, "pitch": 65, "duration": 35, "velocity": 68}, {"time": 5007, "pitch": 70, "duration": 32, "velocity": 72}, {"time": 5055, "pitch": 41, "duration": 104, "velocity": 89}, {"time": 5067, "pitch": 48, "duration": 93, "velocity": 65}, {"time": 5073, "pitch": 53, "duration": 3, "velocity": 75}, {"time": 5079, "pitch": 56, "duration": 6, "velocity": 76}, {"time": 5085, "pitch": 60, "duration": 5, "velocity": 81}, {"time": 5091, "pitch": 60, "duration": 4, "velocity": 74}, {"time": 5091, "pitch": 65, "duration": 6, "velocity": 84}, {"time": 5103, "pitch": 67, "duration": 3, "velocity": 87}, {"time": 5109, "pitch": 68, "duration": 5, "velocity": 74}, {"time": 5115, "pitch": 70, "duration": 9, "velocity": 78}, {"time": 5127, "pitch": 72, "duration": 5, "velocity": 77}, {"time": 5139, "pitch": 68, "duration": 2, "velocity": 62}, {"time": 5139, "pitch": 77, "duration": 3, "velocity": 79}], "annotations": [{"time": 17, "annotation": {"number": 64, "value": 127}, "group": "control_change"}, {"time": 60, "annotation": {"number": 64, "value": 0}, "group": "control_change"}, {"time": 64, "annotation": {"number": 64, "value": 127}, "group": "control_change"}, {"time": 106, "annotation": {"number": 64, "value": 0}, "group": "control_change"}, {"time": 111, "annotation": {"number": 64, "value": 127}, "group": "control_change"}, {"time": 157, "annotation": {"number": 64, "value": 0}, "group": "control_change"}, {"time": 163, "annotation": {"number": 64, "value": 127}, "group": "control_change"}, {"time": 204, "annotation": {"number": 64, "value": 0}, "group": "control_change"}, {"time": 210, "annotation": {"number": 64, "value": 127}, "group": "control_change"}, {"time": 251, "annotation": {"number": 64, "value": 0}, "group": "control_change"}, {"time": 265, "annotation": {"number": 64, "value": 127}, "group": "control_change"}, {"time": 300, "annotation": {"number": 64, "value": 0}, "group": "control_change"}, {"time": 304, "annotation": {"number": 64, "value": 127}, "group": "control_change"}, {"time": 346, "annotation": {"number": 64, "value": 0}, "group": "control_change"}, {"time": 351, "annotation": {"number": 64, "value": 127}, "group": "control_change"}, {"time": 396, "annotation": {"number": 64, "value": 0}, "group": "control_change"}, {"time": 398, "annotation": {"number": 64, "value": 127}, "group": "control_change"}, {"time": 447, "annotation": {"number": 64, "value": 127}, "group": "control_change"}, {"time": 448, "annotation": {"number": 64, "value": 0}, "group": "control_change"}, {"time": 448, "annotation": {"number": 64, "value": 127}, "group": "control_change"}, {"time": 539, "annotation": {"number": 64, "value": 0}, "group": "control_change"}, {"time": 543, "annotation": {"number": 64, "value": 127}, "group": "control_change"}, {"time": 637, "annotation": {"number": 64, "value": 0}, "group": "control_change"}, {"time": 640, "annotation": {"number": 64, "value": 127}, "group": "control_change"}, {"time": 731, "annotation": {"number": 64, "value": 0}, "group": "control_change"}, {"time": 736, "annotation": {"number": 64, "value": 127}, "group": "control_change"}, {"time": 782, "annotation": {"number": 64, "value": 0}, "group": "control_change"}, {"time": 785, "annotation": {"number": 64, "value": 127}, "group": "control_change"}, {"time": 830, "annotation": {"number": 64, "value": 0}, "group": "control_change"}, {"time": 833, "annotation": {"number": 64, "value": 127}, "group": "control_change"}, {"time": 876, "annotation": {"number": 64, "value": 0}, "group": "control_change"}, {"time": 879, "annotation": {"number": 64, "value": 127}, "group": "control_change"}, {"time": 881, "annotation": {"number": 64, "value": 127}, "group": "control_change"}, {"time": 915, "annotation": {"number": 64, "value": 0}, "group": "control_change"}, {"time": 925, "annotation": {"number": 64, "value": 0}, "group": "control_change"}, {"time": 931, "annotation": {"number": 64, "value": 127}, "group": "control_change"}, {"time": 974, "annotation": {"number": 64, "value": 0}, "group": "control_change"}, {"time": 977, "annotation": {"number": 64, "value": 127}, "group": "control_change"}, {"time": 1022, "annotation": {"number": 64, "value": 0}, "group": "control_change"}, {"time": 1027, "annotation": {"number": 64, "value": 127}, "group": "control_change"}, {"time": 1045, "annotation": {"number": 64, "value": 0}, "group": "control_change"}, {"time": 1048, "annotation": {"number": 64, "value": 127}, "group": "control_change"}, {"time": 1068, "annotation": {"number": 64, "value": 0}, "group": "control_change"}, {"time": 1074, "annotation": {"number": 64, "value": 127}, "group": "control_change"}, {"time": 1115, "annotation": {"number": 64, "value": 0}, "group": "control_change"}, {"time": 1120, "annotation": {"number": 64, "value": 127}, "group": "control_change"}, {"time": 1166, "annotation": {"number": 64, "value": 0}, "group": "control_change"}, {"time": 1168, "annotation": {"number": 64, "value": 127}, "group": "control_change"}, {"time": 1213, "annotation": {"number": 64, "value": 0}, "group": "control_change"}, {"time": 1227, "annotation": {"number": 64, "value": 127}, "group": "control_change"}, {"time": 1227, "annotation": {"number": 64, "value": 0}, "group": "control_change"}, {"time": 1228, "annotation": {"number": 64, "value": 127}, "group": "control_change"}, {"time": 1309, "annotation": {"number": 64, "value": 0}, "group": "control_change"}, {"time": 1314, "annotation": {"number": 64, "value": 127}, "group": "control_change"}, {"time": 1406, "annotation": {"number": 64, "value": 0}, "group": "control_change"}, {"time": 1411, "annotation": {"number": 64, "value": 127}, "group": "control_change"}, {"time": 1500, "annotation": {"number": 64, "value": 0}, "group": "control_change"}, {"time": 1506, "annotation": {"number": 64, "value": 127}, "group": "control_change"}, {"time": 1550, "annotation": {"number": 64, "value": 0}, "group": "control_change"}, {"time": 1554, "annotation": {"number": 64, "value": 127}, "group": "control_change"}, {"time": 1600, "annotation": {"number": 64, "value": 0}, "group": "control_change"}, {"time": 1606, "annotation": {"number": 64, "value": 127}, "group": "control_change"}, {"time": 1646, "annotation": {"number": 64, "value": 0}, "group": "control_change"}, {"time": 1649, "annotation": {"number": 64, "value": 127}, "group": "control_change"}, {"time": 1694, "annotation": {"number": 64, "value": 0}, "group": "control_change"}, {"time": 1699, "annotation": {"number": 64, "value": 127}, "group": "control_change"}, {"time": 1741, "annotation": {"number": 64, "value": 0}, "group": "control_change"}, {"time": 1746, "annotation": {"number": 64, "value": 127}, "group": "control_change"}, {"time": 1789, "annotation": {"number": 64, "value": 0}, "group": "control_change"}, {"time": 1792, "annotation": {"number": 64, "value": 127}, "group": "control_change"}, {"time": 1815, "annotation": {"number": 64, "value": 0}, "group": "control_change"}, {"time": 1819, "annotation": {"number": 64, "value": 127}, "group": "control_change"}, {"time": 1838, "annotation": {"number": 64, "value": 0}, "group": "control_change"}, {"time": 1844, "annotation": {"number": 64, "value": 127}, "group": "control_change"}, {"time": 1844, "annotation": {"number": 64, "value": 0}, "group": "control_change"}, {"time": 1885, "annotation": {"number": 64, "value": 0}, "group": "control_change"}, {"time": 1889, "annotation": {"number": 64, "value": 127}, "group": "control_change"}, {"time": 1932, "annotation": {"number": 64, "value": 0}, "group": "control_change"}, {"time": 1936, "annotation": {"number": 64, "value": 127}, "group": "control_change"}, {"time": 1979, "annotation": {"number": 64, "value": 0}, "group": "control_change"}, {"time": 2027, "annotation": {"number": 64, "value": 0}, "group": "control_change"}, {"time": 2030, "annotation": {"number": 64, "value": 127}, "group": "control_change"}, {"time": 2075, "annotation": {"number": 64, "value": 0}, "group": "control_change"}, {"time": 2078, "annotation": {"number": 64, "value": 127}, "group": "control_change"}, {"time": 2125, "annotation": {"number": 64, "value": 0}, "group": "control_change"}, {"time": 2128, "annotation": {"number": 64, "value": 127}, "group": "control_change"}, {"time": 2171, "annotation": {"number": 64, "value": 0}, "group": "control_change"}, {"time": 2174, "annotation": {"number": 64, "value": 127}, "group": "control_change"}, {"time": 2222, "annotation": {"number": 64, "value": 0}, "group": "control_change"}, {"time": 2223, "annotation": {"number": 64, "value": 127}, "group": "control_change"}, {"time": 2268, "annotation": {"number": 64, "value": 0}, "group": "control_change"}, {"time": 2272, "annotation": {"number": 64, "value": 127}, "group": "control_change"}, {"time": 2316, "annotation": {"number": 64, "value": 0}, "group": "control_change"}, {"time": 2319, "annotation": {"number": 64, "value": 127}, "group": "control_change"}, {"time": 2364, "annotation": {"number": 64, "value": 0}, "group": "control_change"}, {"time": 2369, "annotation": {"number": 64, "value": 127}, "group": "control_change"}, {"time": 2411, "annotation": {"number": 64, "value": 0}, "group": "control_change"}, {"time": 2414, "annotation": {"number": 64, "value": 127}, "group": "control_change"}, {"time": 2460, "annotation": {"number": 64, "value": 0}, "group": "control_change"}, {"time": 2464, "annotation": {"number": 64, "value": 127}, "group": "control_change"}, {"time": 2508, "annotation": {"number": 64, "value": 0}, "group": "control_change"}, {"time": 2511, "annotation": {"number": 64, "value": 127}, "group": "control_change"}, {"time": 2557, "annotation": {"number": 64, "value": 0}, "group": "control_change"}, {"time": 2561, "annotation": {"number": 64, "value": 127}, "group": "control_change"}, {"time": 2579, "annotation": {"number": 64, "value": 0}, "group": "control_change"}, {"time": 2582, "annotation": {"number": 64, "value": 127}, "group": "control_change"}, {"time": 2604, "annotation": {"number": 64, "value": 0}, "group": "control_change"}, {"time": 2607, "annotation": {"number": 64, "value": 127}, "group": "control_change"}, {"time": 2652, "annotation": {"number": 64, "value": 0}, "group": "control_change"}, {"time": 2655, "annotation": {"number": 64, "value": 127}, "group": "control_change"}, {"time": 2700, "annotation": {"number": 64, "value": 0}, "group": "control_change"}, {"time": 2704, "annotation": {"number": 64, "value": 127}, "group": "control_change"}, {"time": 2744, "annotation": {"number": 64, "value": 0}, "group": "control_change"}, {"time": 2795, "annotation": {"number": 64, "value": 0}, "group": "control_change"}, {"time": 2798, "annotation": {"number": 64, "value": 127}, "group": "control_change"}, {"time": 2843, "annotation": {"number": 64, "value": 0}, "group": "control_change"}, {"time": 2846, "annotation": {"number": 64, "value": 127}, "group": "control_change"}, {"time": 2893, "annotation": {"number": 64, "value": 0}, "group": "control_change"}, {"time": 2896, "annotation": {"number": 64, "value": 127}, "group": "control_change"}, {"time": 2939, "annotation": {"number": 64, "value": 0}, "group": "control_change"}, {"time": 2942, "annotation": {"number": 64, "value": 127}, "group": "control_change"}, {"time": 2990, "annotation": {"number": 64, "value": 0}, "group": "control_change"}, {"time": 2991, "annotation": {"number": 64, "value": 127}, "group": "control_change"}, {"time": 3036, "annotation": {"number": 64, "value": 0}, "group": "control_change"}, {"time": 3040, "annotation": {"number": 64, "value": 127}, "group": "control_change"}, {"time": 3084, "annotation": {"number": 64, "value": 0}, "group": "control_change"}, {"time": 3087, "annotation": {"number": 64, "value": 127}, "group": "control_change"}, {"time": 3132, "annotation": {"number": 64, "value": 0}, "group": "control_change"}, {"time": 3137, "annotation": {"number": 64, "value": 127}, "group": "control_change"}, {"time": 3179, "annotation": {"number": 64, "value": 0}, "group": "control_change"}, {"time": 3182, "annotation": {"number": 64, "value": 127}, "group": "control_change"}, {"time": 3228, "annotation": {"number": 64, "value": 0}, "group": "control_change"}, {"time": 3232, "annotation": {"number": 64, "value": 127}, "group": "control_change"}, {"time": 3276, "annotation": {"number": 64, "value": 0}, "group": "control_change"}, {"time": 3279, "annotation": {"number": 64, "value": 127}, "group": "control_change"}, {"time": 3325, "annotation": {"number": 64, "value": 0}, "group": "control_change"}, {"time": 3329, "annotation": {"number": 64, "value": 127}, "group": "control_change"}, {"time": 3347, "annotation": {"number": 64, "value": 0}, "group": "control_change"}, {"time": 3350, "annotation": {"number": 64, "value": 127}, "group": "control_change"}, {"time": 3372, "annotation": {"number": 64, "value": 0}, "group": "control_change"}, {"time": 3375, "annotation": {"number": 64, "value": 127}, "group": "control_change"}, {"time": 3420, "annotation": {"number": 64, "value": 0}, "group": "control_change"}, {"time": 3423, "annotation": {"number": 64, "value": 127}, "group": "control_change"}, {"time": 3468, "annotation": {"number": 64, "value": 0}, "group": "control_change"}, {"time": 3472, "annotation": {"number": 64, "value": 127}, "group": "control_change"}, {"time": 3512, "annotation": {"number": 64, "value": 0}, "group": "control_change"}, {"time": 3521, "annotation": {"number": 64, "value": 127}, "group": "control_change"}, {"time": 3563, "annotation": {"number": 64, "value": 0}, "group": "control_change"}, {"time": 3566, "annotation": {"number": 64, "value": 127}, "group": "control_change"}, {"time": 3612, "annotation": {"number": 64, "value": 0}, "group": "control_change"}, {"time": 3616, "annotation": {"number": 64, "value": 127}, "group": "control_change"}, {"time": 3660, "annotation": {"number": 64, "value": 0}, "group": "control_change"}, {"time": 3663, "annotation": {"number": 64, "value": 127}, "group": "control_change"}, {"time": 3709, "annotation": {"number": 64, "value": 0}, "group": "control_change"}, {"time": 3713, "annotation": {"number": 64, "value": 127}, "group": "control_change"}, {"time": 3731, "annotation": {"number": 64, "value": 0}, "group": "control_change"}, {"time": 3734, "annotation": {"number": 64, "value": 127}, "group": "control_change"}, {"time": 3756, "annotation": {"number": 64, "value": 0}, "group": "control_change"}, {"time": 3759, "annotation": {"number": 64, "value": 127}, "group": "control_change"}, {"time": 3804, "annotation": {"number": 64, "value": 0}, "group": "control_change"}, {"time": 3807, "annotation": {"number": 64, "value": 127}, "group": "control_change"}, {"time": 3852, "annotation": {"number": 64, "value": 0}, "group": "control_change"}, {"time": 3856, "annotation": {"number": 64, "value": 127}, "group": "control_change"}, {"time": 3896, "annotation": {"number": 64, "value": 0}, "group": "control_change"}, {"time": 3904, "annotation": {"number": 64, "value": 127}, "group": "control_change"}, {"time": 3948, "annotation": {"number": 64, "value": 0}, "group": "control_change"}, {"time": 3952, "annotation": {"number": 64, "value": 127}, "group": "control_change"}, {"time": 3997, "annotation": {"number": 64, "value": 0}, "group": "control_change"}, {"time": 3999, "annotation": {"number": 64, "value": 127}, "group": "control_change"}, {"time": 4045, "annotation": {"number": 64, "value": 0}, "group": "control_change"}, {"time": 4049, "annotation": {"number": 64, "value": 127}, "group": "control_change"}, {"time": 4068, "annotation": {"number": 64, "value": 0}, "group": "control_change"}, {"time": 4070, "annotation": {"number": 64, "value": 127}, "group": "control_change"}, {"time": 4093, "annotation": {"number": 64, "value": 0}, "group": "control_change"}, {"time": 4095, "annotation": {"number": 64, "value": 127}, "group": "control_change"}, {"time": 4116, "annotation": {"number": 64, "value": 0}, "group": "control_change"}, {"time": 4118, "annotation": {"number": 64, "value": 127}, "group": "control_change"}, {"time": 4141, "annotation": {"number": 64, "value": 0}, "group": "control_change"}, {"time": 4144, "annotation": {"number": 64, "value": 127}, "group": "control_change"}, {"time": 4188, "annotation": {"number": 64, "value": 0}, "group": "control_change"}, {"time": 4191, "annotation": {"number": 64, "value": 127}, "group": "control_change"}, {"time": 4212, "annotation": {"number": 64, "value": 0}, "group": "control_change"}, {"time": 4213, "annotation": {"number": 64, "value": 127}, "group": "control_change"}, {"time": 4237, "annotation": {"number": 64, "value": 0}, "group": "control_change"}, {"time": 4240, "annotation": {"number": 64, "value": 127}, "group": "control_change"}, {"time": 4280, "annotation": {"number": 64, "value": 0}, "group": "control_change"}, {"time": 4287, "annotation": {"number": 64, "value": 127}, "group": "control_change"}, {"time": 4332, "annotation": {"number": 64, "value": 0}, "group": "control_change"}, {"time": 4336, "annotation": {"number": 64, "value": 127}, "group": "control_change"}, {"time": 4380, "annotation": {"number": 64, "value": 0}, "group": "control_change"}, {"time": 4385, "annotation": {"number": 64, "value": 127}, "group": "control_change"}, {"time": 4426, "annotation": {"number": 64, "value": 0}, "group": "control_change"}, {"time": 4430, "annotation": {"number": 64, "value": 127}, "group": "control_change"}, {"time": 4477, "annotation": {"number": 64, "value": 0}, "group": "control_change"}, {"time": 4481, "annotation": {"number": 64, "value": 127}, "group": "control_change"}, {"time": 4500, "annotation": {"number": 64, "value": 0}, "group": "control_change"}, {"time": 4502, "annotation": {"number": 64, "value": 127}, "group": "control_change"}, {"time": 4525, "annotation": {"number": 64, "value": 0}, "group": "control_change"}, {"time": 4528, "annotation": {"number": 64, "value": 127}, "group": "control_change"}, {"time": 4573, "annotation": {"number": 64, "value": 0}, "group": "control_change"}, {"time": 4576, "annotation": {"number": 64, "value": 127}, "group": "control_change"}, {"time": 4673, "annotation": {"number": 64, "value": 127}, "group": "control_change"}, {"time": 4673, "annotation": {"number": 64, "value": 0}, "group": "control_change"}, {"time": 4716, "annotation": {"number": 64, "value": 0}, "group": "control_change"}, {"time": 4719, "annotation": {"number": 64, "value": 127}, "group": "control_change"}, {"time": 4765, "annotation": {"number": 64, "value": 0}, "group": "control_change"}, {"time": 4773, "annotation": {"number": 64, "value": 127}, "group": "control_change"}, {"time": 4812, "annotation": {"number": 64, "value": 0}, "group": "control_change"}, {"time": 4816, "annotation": {"number": 64, "value": 127}, "group": "control_change"}, {"time": 4862, "annotation": {"number": 64, "value": 0}, "group": "control_change"}, {"time": 4867, "annotation": {"number": 64, "value": 127}, "group": "control_change"}, {"time": 4909, "annotation": {"number": 64, "value": 0}, "group": "control_change"}, {"time": 4912, "annotation": {"number": 64, "value": 127}, "group": "control_change"}, {"time": 4955, "annotation": {"number": 64, "value": 0}, "group": "control_change"}, {"time": 4962, "annotation": {"number": 64, "value": 127}, "group": "control_change"}, {"time": 4962, "annotation": {"number": 64, "value": 0}, "group": "control_change"}, {"time": 4963, "annotation": {"number": 64, "value": 127}, "group": "control_change"}, {"time": 5058, "annotation": {"number": 64, "value": 0}, "group": "control_change"}, {"time": 5065, "annotation": {"number": 64, "value": 127}, "group": "control_change"}, {"time": 5200, "annotation": {"number": 64, "value": 0}, "group": "control_change"}]}]}