{"metadata": {"schema_version": "0.2", "title": "None", "source_filename": "830.mid", "source_format": "midi"}, "resolution": 12, "tempos": [{"time": 0, "qpm": 116.00008506672904}], "time_signatures": [{"time": 0, "numerator": 1, "denominator": 4}], "tracks": [{"program": 0, "is_drum": false, "name": "MELODY", "notes": [{"time": 616, "pitch": 67, "duration": 4, "velocity": 83}, {"time": 622, "pitch": 72, "duration": 6, "velocity": 82}, {"time": 628, "pitch": 74, "duration": 6, "velocity": 90}, {"time": 634, "pitch": 75, "duration": 7, "velocity": 78}, {"time": 640, "pitch": 74, "duration": 6, "velocity": 81}, {"time": 646, "pitch": 72, "duration": 6, "velocity": 86}, {"time": 652, "pitch": 74, "duration": 7, "velocity": 88}, {"time": 658, "pitch": 75, "duration": 8, "velocity": 83}, {"time": 664, "pitch": 74, "duration": 6, "velocity": 83}, {"time": 670, "pitch": 72, "duration": 6, "velocity": 82}, {"time": 676, "pitch": 74, "duration": 7, "velocity": 88}, {"time": 682, "pitch": 75, "duration": 8, "velocity": 83}, {"time": 688, "pitch": 74, "duration": 6, "velocity": 81}, {"time": 694, "pitch": 72, "duration": 6, "velocity": 83}, {"time": 700, "pitch": 70, "duration": 6, "velocity": 86}, {"time": 706, "pitch": 72, "duration": 6, "velocity": 81}, {"time": 712, "pitch": 67, "duration": 18, "velocity": 80}, {"time": 742, "pitch": 75, "duration": 4, "velocity": 83}, {"time": 748, "pitch": 75, "duration": 4, "velocity": 82}, {"time": 754, "pitch": 74, "duration": 4, "velocity": 87}, {"time": 760, "pitch": 74, "duration": 10, "velocity": 87}, {"time": 772, "pitch": 72, "duration": 30, "velocity": 83}, {"time": 808, "pitch": 67, "duration": 4, "velocity": 83}, {"time": 814, "pitch": 72, "duration": 6, "velocity": 82}, {"time": 820, "pitch": 74, "duration": 6, "velocity": 90}, {"time": 826, "pitch": 75, "duration": 7, "velocity": 78}, {"time": 832, "pitch": 74, "duration": 6, "velocity": 81}, {"time": 838, "pitch": 72, "duration": 6, "velocity": 86}, {"time": 844, "pitch": 74, "duration": 7, "velocity": 88}, {"time": 850, "pitch": 75, "duration": 8, "velocity": 83}, {"time": 856, "pitch": 74, "duration": 6, "velocity": 83}, {"time": 862, "pitch": 72, "duration": 6, "velocity": 82}, {"time": 868, "pitch": 74, "duration": 7, "velocity": 88}, {"time": 874, "pitch": 75, "duration": 8, "velocity": 83}, {"time": 880, "pitch": 74, "duration": 6, "velocity": 81}, {"time": 886, "pitch": 72, "duration": 6, "velocity": 83}, {"time": 892, "pitch": 70, "duration": 6, "velocity": 86}, {"time": 898, "pitch": 72, "duration": 6, "velocity": 81}, {"time": 904, "pitch": 67, "duration": 18, "velocity": 80}, {"time": 934, "pitch": 75, "duration": 4, "velocity": 83}, {"time": 940, "pitch": 75, "duration": 4, "velocity": 82}, {"time": 946, "pitch": 77, "duration": 4, "velocity": 87}, {"time": 952, "pitch": 77, "duration": 10, "velocity": 87}, {"time": 964, "pitch": 75, "duration": 3, "velocity": 81}, {"time": 967, "pitch": 74, "duration": 3, "velocity": 81}, {"time": 970, "pitch": 72, "duration": 25, "velocity": 76}, {"time": 1000, "pitch": 67, "duration": 4, "velocity": 83}, {"time": 1006, "pitch": 72, "duration": 6, "velocity": 82}, {"time": 1012, "pitch": 74, "duration": 6, "velocity": 90}, {"time": 1018, "pitch": 75, "duration": 7, "velocity": 78}, {"time": 1024, "pitch": 74, "duration": 6, "velocity": 81}, {"time": 1030, "pitch": 72, "duration": 6, "velocity": 86}, {"time": 1036, "pitch": 74, "duration": 7, "velocity": 88}, {"time": 1042, "pitch": 75, "duration": 8, "velocity": 83}, {"time": 1048, "pitch": 74, "duration": 6, "velocity": 83}, {"time": 1054, "pitch": 72, "duration": 6, "velocity": 82}, {"time": 1060, "pitch": 74, "duration": 7, "velocity": 88}, {"time": 1066, "pitch": 75, "duration": 8, "velocity": 83}, {"time": 1072, "pitch": 74, "duration": 6, "velocity": 81}, {"time": 1078, "pitch": 72, "duration": 6, "velocity": 83}, {"time": 1084, "pitch": 70, "duration": 6, "velocity": 86}, {"time": 1090, "pitch": 72, "duration": 6, "velocity": 81}, {"time": 1096, "pitch": 67, "duration": 18, "velocity": 80}, {"time": 1126, "pitch": 75, "duration": 4, "velocity": 83}, {"time": 1132, "pitch": 75, "duration": 4, "velocity": 82}, {"time": 1138, "pitch": 74, "duration": 4, "velocity": 87}, {"time": 1144, "pitch": 74, "duration": 10, "velocity": 87}, {"time": 1156, "pitch": 72, "duration": 30, "velocity": 83}, {"time": 1192, "pitch": 67, "duration": 4, "velocity": 83}, {"time": 1198, "pitch": 72, "duration": 6, "velocity": 82}, {"time": 1204, "pitch": 74, "duration": 6, "velocity": 90}, {"time": 1210, "pitch": 75, "duration": 7, "velocity": 78}, {"time": 1216, "pitch": 74, "duration": 6, "velocity": 81}, {"time": 1222, "pitch": 72, "duration": 6, "velocity": 86}, {"time": 1228, "pitch": 74, "duration": 7, "velocity": 88}, {"time": 1234, "pitch": 75, "duration": 8, "velocity": 83}, {"time": 1240, "pitch": 74, "duration": 6, "velocity": 83}, {"time": 1246, "pitch": 72, "duration": 6, "velocity": 82}, {"time": 1252, "pitch": 74, "duration": 7, "velocity": 88}, {"time": 1258, "pitch": 75, "duration": 8, "velocity": 83}, {"time": 1264, "pitch": 74, "duration": 6, "velocity": 81}, {"time": 1270, "pitch": 72, "duration": 6, "velocity": 83}, {"time": 1276, "pitch": 70, "duration": 6, "velocity": 86}, {"time": 1282, "pitch": 72, "duration": 6, "velocity": 81}, {"time": 1288, "pitch": 75, "duration": 18, "velocity": 80}, {"time": 1318, "pitch": 75, "duration": 4, "velocity": 83}, {"time": 1324, "pitch": 75, "duration": 4, "velocity": 82}, {"time": 1330, "pitch": 77, "duration": 4, "velocity": 87}, {"time": 1336, "pitch": 77, "duration": 10, "velocity": 87}, {"time": 1348, "pitch": 75, "duration": 3, "velocity": 81}, {"time": 1351, "pitch": 74, "duration": 3, "velocity": 81}, {"time": 1354, "pitch": 72, "duration": 25, "velocity": 76}, {"time": 1462, "pitch": 77, "duration": 4, "velocity": 84}, {"time": 1468, "pitch": 79, "duration": 4, "velocity": 83}, {"time": 1474, "pitch": 80, "duration": 6, "velocity": 90}, {"time": 1480, "pitch": 79, "duration": 5, "velocity": 87}, {"time": 1486, "pitch": 77, "duration": 5, "velocity": 82}, {"time": 1492, "pitch": 79, "duration": 4, "velocity": 84}, {"time": 1498, "pitch": 80, "duration": 6, "velocity": 85}, {"time": 1504, "pitch": 79, "duration": 5, "velocity": 85}, {"time": 1510, "pitch": 77, "duration": 7, "velocity": 82}, {"time": 1516, "pitch": 75, "duration": 5, "velocity": 86}, {"time": 1522, "pitch": 77, "duration": 4, "velocity": 76}, {"time": 1528, "pitch": 75, "duration": 10, "velocity": 83}, {"time": 1540, "pitch": 79, "duration": 42, "velocity": 71}, {"time": 1582, "pitch": 77, "duration": 36, "velocity": 82}, {"time": 1654, "pitch": 77, "duration": 4, "velocity": 84}, {"time": 1660, "pitch": 79, "duration": 4, "velocity": 83}, {"time": 1666, "pitch": 80, "duration": 6, "velocity": 90}, {"time": 1672, "pitch": 79, "duration": 5, "velocity": 87}, {"time": 1678, "pitch": 77, "duration": 5, "velocity": 82}, {"time": 1684, "pitch": 79, "duration": 4, "velocity": 84}, {"time": 1690, "pitch": 80, "duration": 6, "velocity": 85}, {"time": 1696, "pitch": 79, "duration": 5, "velocity": 85}, {"time": 1702, "pitch": 77, "duration": 7, "velocity": 82}, {"time": 1708, "pitch": 75, "duration": 5, "velocity": 86}, {"time": 1714, "pitch": 77, "duration": 4, "velocity": 76}, {"time": 1720, "pitch": 75, "duration": 10, "velocity": 83}, {"time": 1732, "pitch": 79, "duration": 36, "velocity": 71}, {"time": 1768, "pitch": 80, "duration": 6, "velocity": 82}, {"time": 1774, "pitch": 79, "duration": 6, "velocity": 82}, {"time": 1780, "pitch": 77, "duration": 42, "velocity": 82}, {"time": 1822, "pitch": 72, "duration": 5, "velocity": 83}, {"time": 1828, "pitch": 74, "duration": 6, "velocity": 88}, {"time": 1834, "pitch": 75, "duration": 11, "velocity": 88}, {"time": 1846, "pitch": 72, "duration": 12, "velocity": 83}, {"time": 1858, "pitch": 74, "duration": 6, "velocity": 87}, {"time": 1864, "pitch": 71, "duration": 12, "velocity": 85}, {"time": 1876, "pitch": 72, "duration": 22, "velocity": 82}, {"time": 1900, "pitch": 67, "duration": 12, "velocity": 84}, {"time": 1918, "pitch": 72, "duration": 4, "velocity": 87}, {"time": 1924, "pitch": 74, "duration": 4, "velocity": 90}, {"time": 1930, "pitch": 75, "duration": 10, "velocity": 82}, {"time": 1942, "pitch": 72, "duration": 10, "velocity": 87}, {"time": 1954, "pitch": 74, "duration": 6, "velocity": 87}, {"time": 1960, "pitch": 71, "duration": 11, "velocity": 83}, {"time": 1972, "pitch": 72, "duration": 32, "velocity": 80}, {"time": 2014, "pitch": 72, "duration": 5, "velocity": 83}, {"time": 2020, "pitch": 74, "duration": 6, "velocity": 88}, {"time": 2026, "pitch": 75, "duration": 11, "velocity": 88}, {"time": 2038, "pitch": 72, "duration": 12, "velocity": 83}, {"time": 2050, "pitch": 74, "duration": 6, "velocity": 87}, {"time": 2056, "pitch": 71, "duration": 12, "velocity": 85}, {"time": 2068, "pitch": 72, "duration": 22, "velocity": 82}, {"time": 2092, "pitch": 74, "duration": 12, "velocity": 84}, {"time": 2110, "pitch": 72, "duration": 4, "velocity": 87}, {"time": 2116, "pitch": 74, "duration": 4, "velocity": 90}, {"time": 2122, "pitch": 75, "duration": 10, "velocity": 82}, {"time": 2143, "pitch": 75, "duration": 1, "velocity": 87}, {"time": 2146, "pitch": 74, "duration": 6, "velocity": 87}, {"time": 2152, "pitch": 71, "duration": 11, "velocity": 83}, {"time": 2164, "pitch": 72, "duration": 32, "velocity": 80}, {"time": 2728, "pitch": 67, "duration": 4, "velocity": 83}, {"time": 2734, "pitch": 72, "duration": 6, "velocity": 82}, {"time": 2740, "pitch": 74, "duration": 6, "velocity": 90}, {"time": 2746, "pitch": 75, "duration": 7, "velocity": 78}, {"time": 2752, "pitch": 74, "duration": 6, "velocity": 81}, {"time": 2758, "pitch": 72, "duration": 6, "velocity": 86}, {"time": 2764, "pitch": 74, "duration": 7, "velocity": 88}, {"time": 2770, "pitch": 75, "duration": 8, "velocity": 83}, {"time": 2776, "pitch": 74, "duration": 6, "velocity": 83}, {"time": 2782, "pitch": 72, "duration": 6, "velocity": 82}, {"time": 2788, "pitch": 74, "duration": 7, "velocity": 88}, {"time": 2794, "pitch": 75, "duration": 8, "velocity": 83}, {"time": 2800, "pitch": 74, "duration": 6, "velocity": 81}, {"time": 2806, "pitch": 72, "duration": 6, "velocity": 83}, {"time": 2812, "pitch": 70, "duration": 6, "velocity": 86}, {"time": 2818, "pitch": 72, "duration": 6, "velocity": 81}, {"time": 2824, "pitch": 67, "duration": 18, "velocity": 80}, {"time": 2854, "pitch": 75, "duration": 4, "velocity": 83}, {"time": 2860, "pitch": 75, "duration": 4, "velocity": 82}, {"time": 2866, "pitch": 74, "duration": 4, "velocity": 87}, {"time": 2872, "pitch": 74, "duration": 10, "velocity": 87}, {"time": 2884, "pitch": 72, "duration": 30, "velocity": 83}, {"time": 2920, "pitch": 67, "duration": 4, "velocity": 83}, {"time": 2926, "pitch": 72, "duration": 6, "velocity": 82}, {"time": 2932, "pitch": 74, "duration": 6, "velocity": 90}, {"time": 2938, "pitch": 75, "duration": 7, "velocity": 78}, {"time": 2944, "pitch": 74, "duration": 6, "velocity": 81}, {"time": 2950, "pitch": 72, "duration": 6, "velocity": 86}, {"time": 2956, "pitch": 74, "duration": 7, "velocity": 88}, {"time": 2962, "pitch": 75, "duration": 8, "velocity": 83}, {"time": 2968, "pitch": 74, "duration": 6, "velocity": 83}, {"time": 2974, "pitch": 72, "duration": 6, "velocity": 82}, {"time": 2980, "pitch": 74, "duration": 7, "velocity": 88}, {"time": 2986, "pitch": 75, "duration": 8, "velocity": 83}, {"time": 2992, "pitch": 74, "duration": 6, "velocity": 81}, {"time": 2998, "pitch": 72, "duration": 6, "velocity": 83}, {"time": 3004, "pitch": 70, "duration": 6, "velocity": 86}, {"time": 3010, "pitch": 72, "duration": 6, "velocity": 81}, {"time": 3016, "pitch": 75, "duration": 18, "velocity": 80}, {"time": 3046, "pitch": 75, "duration": 4, "velocity": 83}, {"time": 3052, "pitch": 75, "duration": 4, "velocity": 82}, {"time": 3058, "pitch": 77, "duration": 4, "velocity": 87}, {"time": 3064, "pitch": 77, "duration": 10, "velocity": 87}, {"time": 3076, "pitch": 75, "duration": 3, "velocity": 81}, {"time": 3079, "pitch": 74, "duration": 3, "velocity": 81}, {"time": 3082, "pitch": 72, "duration": 25, "velocity": 76}, {"time": 3190, "pitch": 77, "duration": 4, "velocity": 84}, {"time": 3196, "pitch": 79, "duration": 4, "velocity": 83}, {"time": 3202, "pitch": 80, "duration": 6, "velocity": 90}, {"time": 3208, "pitch": 79, "duration": 5, "velocity": 87}, {"time": 3214, "pitch": 77, "duration": 5, "velocity": 82}, {"time": 3220, "pitch": 79, "duration": 4, "velocity": 84}, {"time": 3226, "pitch": 80, "duration": 6, "velocity": 85}, {"time": 3232, "pitch": 79, "duration": 5, "velocity": 85}, {"time": 3238, "pitch": 77, "duration": 7, "velocity": 82}, {"time": 3244, "pitch": 75, "duration": 5, "velocity": 86}, {"time": 3250, "pitch": 77, "duration": 4, "velocity": 76}, {"time": 3256, "pitch": 75, "duration": 10, "velocity": 83}, {"time": 3268, "pitch": 79, "duration": 42, "velocity": 71}, {"time": 3310, "pitch": 77, "duration": 36, "velocity": 82}, {"time": 3382, "pitch": 77, "duration": 4, "velocity": 84}, {"time": 3388, "pitch": 79, "duration": 4, "velocity": 83}, {"time": 3394, "pitch": 80, "duration": 6, "velocity": 90}, {"time": 3400, "pitch": 79, "duration": 5, "velocity": 87}, {"time": 3406, "pitch": 77, "duration": 5, "velocity": 82}, {"time": 3412, "pitch": 79, "duration": 4, "velocity": 84}, {"time": 3418, "pitch": 80, "duration": 6, "velocity": 85}, {"time": 3424, "pitch": 79, "duration": 5, "velocity": 85}, {"time": 3430, "pitch": 77, "duration": 7, "velocity": 82}, {"time": 3436, "pitch": 75, "duration": 5, "velocity": 86}, {"time": 3442, "pitch": 77, "duration": 4, "velocity": 76}, {"time": 3448, "pitch": 75, "duration": 10, "velocity": 83}, {"time": 3460, "pitch": 79, "duration": 36, "velocity": 71}, {"time": 3496, "pitch": 80, "duration": 6, "velocity": 82}, {"time": 3502, "pitch": 79, "duration": 6, "velocity": 82}, {"time": 3508, "pitch": 77, "duration": 42, "velocity": 82}, {"time": 3550, "pitch": 72, "duration": 5, "velocity": 83}, {"time": 3556, "pitch": 74, "duration": 6, "velocity": 88}, {"time": 3562, "pitch": 75, "duration": 11, "velocity": 88}, {"time": 3574, "pitch": 72, "duration": 12, "velocity": 83}, {"time": 3586, "pitch": 74, "duration": 6, "velocity": 87}, {"time": 3592, "pitch": 71, "duration": 12, "velocity": 85}, {"time": 3604, "pitch": 72, "duration": 22, "velocity": 82}, {"time": 3628, "pitch": 67, "duration": 12, "velocity": 84}, {"time": 3646, "pitch": 72, "duration": 4, "velocity": 87}, {"time": 3652, "pitch": 74, "duration": 4, "velocity": 90}, {"time": 3658, "pitch": 75, "duration": 10, "velocity": 82}, {"time": 3670, "pitch": 72, "duration": 10, "velocity": 87}, {"time": 3682, "pitch": 74, "duration": 6, "velocity": 87}, {"time": 3688, "pitch": 71, "duration": 11, "velocity": 83}, {"time": 3700, "pitch": 72, "duration": 32, "velocity": 80}, {"time": 3742, "pitch": 72, "duration": 5, "velocity": 83}, {"time": 3748, "pitch": 74, "duration": 6, "velocity": 88}, {"time": 3754, "pitch": 75, "duration": 11, "velocity": 88}, {"time": 3766, "pitch": 72, "duration": 12, "velocity": 83}, {"time": 3778, "pitch": 74, "duration": 6, "velocity": 87}, {"time": 3784, "pitch": 71, "duration": 12, "velocity": 85}, {"time": 3796, "pitch": 72, "duration": 22, "velocity": 82}, {"time": 3820, "pitch": 74, "duration": 12, "velocity": 84}, {"time": 3838, "pitch": 72, "duration": 4, "velocity": 87}, {"time": 3844, "pitch": 74, "duration": 4, "velocity": 90}, {"time": 3850, "pitch": 75, "duration": 10, "velocity": 82}, {"time": 3871, "pitch": 75, "duration": 1, "velocity": 87}, {"time": 3874, "pitch": 74, "duration": 6, "velocity": 87}, {"time": 3880, "pitch": 71, "duration": 11, "velocity": 83}, {"time": 3892, "pitch": 72, "duration": 32, "velocity": 80}, {"time": 3934, "pitch": 72, "duration": 5, "velocity": 83}, {"time": 3940, "pitch": 74, "duration": 6, "velocity": 88}, {"time": 3946, "pitch": 75, "duration": 11, "velocity": 88}, {"time": 3958, "pitch": 72, "duration": 12, "velocity": 83}, {"time": 3970, "pitch": 74, "duration": 6, "velocity": 87}, {"time": 3976, "pitch": 71, "duration": 12, "velocity": 85}, {"time": 3988, "pitch": 72, "duration": 22, "velocity": 82}, {"time": 4012, "pitch": 67, "duration": 12, "velocity": 84}, {"time": 4030, "pitch": 72, "duration": 4, "velocity": 87}, {"time": 4036, "pitch": 74, "duration": 4, "velocity": 90}, {"time": 4042, "pitch": 75, "duration": 10, "velocity": 82}, {"time": 4054, "pitch": 72, "duration": 10, "velocity": 87}, {"time": 4066, "pitch": 74, "duration": 6, "velocity": 87}, {"time": 4072, "pitch": 71, "duration": 11, "velocity": 83}, {"time": 4084, "pitch": 72, "duration": 32, "velocity": 80}, {"time": 4126, "pitch": 72, "duration": 5, "velocity": 83}, {"time": 4132, "pitch": 74, "duration": 6, "velocity": 88}, {"time": 4138, "pitch": 75, "duration": 11, "velocity": 88}, {"time": 4150, "pitch": 72, "duration": 12, "velocity": 83}, {"time": 4162, "pitch": 74, "duration": 6, "velocity": 87}, {"time": 4168, "pitch": 71, "duration": 12, "velocity": 85}, {"time": 4180, "pitch": 72, "duration": 22, "velocity": 82}, {"time": 4204, "pitch": 74, "duration": 12, "velocity": 84}, {"time": 4222, "pitch": 72, "duration": 4, "velocity": 87}, {"time": 4228, "pitch": 74, "duration": 4, "velocity": 90}, {"time": 4234, "pitch": 75, "duration": 10, "velocity": 82}, {"time": 4255, "pitch": 75, "duration": 1, "velocity": 87}, {"time": 4258, "pitch": 74, "duration": 6, "velocity": 87}, {"time": 4264, "pitch": 71, "duration": 11, "velocity": 83}, {"time": 4276, "pitch": 72, "duration": 32, "velocity": 80}, {"time": 4702, "pitch": 72, "duration": 5, "velocity": 83}, {"time": 4708, "pitch": 74, "duration": 6, "velocity": 88}, {"time": 4714, "pitch": 75, "duration": 11, "velocity": 88}, {"time": 4726, "pitch": 72, "duration": 12, "velocity": 83}, {"time": 4738, "pitch": 74, "duration": 6, "velocity": 87}, {"time": 4744, "pitch": 71, "duration": 12, "velocity": 85}, {"time": 4756, "pitch": 72, "duration": 22, "velocity": 82}, {"time": 4780, "pitch": 67, "duration": 12, "velocity": 84}, {"time": 4798, "pitch": 72, "duration": 4, "velocity": 87}, {"time": 4804, "pitch": 74, "duration": 4, "velocity": 90}, {"time": 4810, "pitch": 75, "duration": 10, "velocity": 82}, {"time": 4822, "pitch": 72, "duration": 10, "velocity": 87}, {"time": 4834, "pitch": 74, "duration": 6, "velocity": 87}, {"time": 4840, "pitch": 71, "duration": 11, "velocity": 83}, {"time": 4852, "pitch": 72, "duration": 32, "velocity": 80}, {"time": 4894, "pitch": 72, "duration": 5, "velocity": 83}, {"time": 4900, "pitch": 74, "duration": 6, "velocity": 88}, {"time": 4906, "pitch": 75, "duration": 11, "velocity": 88}, {"time": 4918, "pitch": 72, "duration": 12, "velocity": 83}, {"time": 4930, "pitch": 74, "duration": 6, "velocity": 87}, {"time": 4936, "pitch": 71, "duration": 12, "velocity": 85}, {"time": 4948, "pitch": 72, "duration": 22, "velocity": 82}, {"time": 4972, "pitch": 74, "duration": 12, "velocity": 84}, {"time": 4990, "pitch": 72, "duration": 4, "velocity": 87}, {"time": 4996, "pitch": 74, "duration": 4, "velocity": 90}, {"time": 5002, "pitch": 75, "duration": 10, "velocity": 82}, {"time": 5023, "pitch": 75, "duration": 1, "velocity": 87}, {"time": 5026, "pitch": 74, "duration": 6, "velocity": 87}, {"time": 5032, "pitch": 71, "duration": 11, "velocity": 83}, {"time": 5044, "pitch": 72, "duration": 32, "velocity": 80}, {"time": 5086, "pitch": 72, "duration": 5, "velocity": 83}, {"time": 5092, "pitch": 74, "duration": 6, "velocity": 88}, {"time": 5098, "pitch": 75, "duration": 11, "velocity": 88}, {"time": 5110, "pitch": 72, "duration": 12, "velocity": 83}, {"time": 5122, "pitch": 74, "duration": 6, "velocity": 87}, {"time": 5128, "pitch": 71, "duration": 12, "velocity": 85}, {"time": 5140, "pitch": 72, "duration": 22, "velocity": 82}, {"time": 5164, "pitch": 67, "duration": 12, "velocity": 84}, {"time": 5182, "pitch": 72, "duration": 4, "velocity": 87}, {"time": 5188, "pitch": 74, "duration": 4, "velocity": 90}, {"time": 5194, "pitch": 75, "duration": 10, "velocity": 82}, {"time": 5206, "pitch": 72, "duration": 10, "velocity": 87}, {"time": 5218, "pitch": 74, "duration": 6, "velocity": 87}, {"time": 5224, "pitch": 71, "duration": 11, "velocity": 83}, {"time": 5236, "pitch": 72, "duration": 32, "velocity": 80}, {"time": 5278, "pitch": 72, "duration": 5, "velocity": 83}, {"time": 5284, "pitch": 74, "duration": 6, "velocity": 88}, {"time": 5290, "pitch": 75, "duration": 11, "velocity": 88}, {"time": 5302, "pitch": 72, "duration": 12, "velocity": 83}, {"time": 5314, "pitch": 74, "duration": 6, "velocity": 87}, {"time": 5320, "pitch": 71, "duration": 12, "velocity": 85}, {"time": 5332, "pitch": 72, "duration": 22, "velocity": 82}, {"time": 5356, "pitch": 74, "duration": 12, "velocity": 84}, {"time": 5374, "pitch": 72, "duration": 4, "velocity": 87}, {"time": 5380, "pitch": 74, "duration": 4, "velocity": 90}, {"time": 5386, "pitch": 75, "duration": 10, "velocity": 82}, {"time": 5407, "pitch": 75, "duration": 1, "velocity": 87}, {"time": 5410, "pitch": 74, "duration": 6, "velocity": 87}, {"time": 5416, "pitch": 71, "duration": 11, "velocity": 83}, {"time": 5428, "pitch": 72, "duration": 32, "velocity": 80}]}, {"program": 0, "is_drum": false, "name": "PIANO", "notes": [{"time": 106, "pitch": 48, "duration": 14, "velocity": 84}, {"time": 106, "pitch": 60, "duration": 6, "velocity": 75}, {"time": 106, "pitch": 63, "duration": 7, "velocity": 79}, {"time": 118, "pitch": 60, "duration": 5, "velocity": 76}, {"time": 118, "pitch": 63, "duration": 6, "velocity": 82}, {"time": 118, "pitch": 67, "duration": 4, "velocity": 77}, {"time": 130, "pitch": 48, "duration": 11, "velocity": 81}, {"time": 136, "pitch": 60, "duration": 6, "velocity": 79}, {"time": 136, "pitch": 63, "duration": 7, "velocity": 85}, {"time": 148, "pitch": 63, "duration": 10, "velocity": 81}, {"time": 154, "pitch": 44, "duration": 14, "velocity": 84}, {"time": 166, "pitch": 56, "duration": 5, "velocity": 74}, {"time": 166, "pitch": 60, "duration": 5, "velocity": 74}, {"time": 166, "pitch": 63, "duration": 5, "velocity": 75}, {"time": 172, "pitch": 51, "duration": 3, "velocity": 39}, {"time": 178, "pitch": 44, "duration": 9, "velocity": 81}, {"time": 184, "pitch": 56, "duration": 7, "velocity": 74}, {"time": 184, "pitch": 60, "duration": 7, "velocity": 79}, {"time": 184, "pitch": 63, "duration": 7, "velocity": 74}, {"time": 196, "pitch": 56, "duration": 5, "velocity": 70}, {"time": 196, "pitch": 60, "duration": 5, "velocity": 81}, {"time": 196, "pitch": 63, "duration": 5, "velocity": 73}, {"time": 202, "pitch": 43, "duration": 14, "velocity": 81}, {"time": 214, "pitch": 55, "duration": 13, "velocity": 79}, {"time": 214, "pitch": 59, "duration": 14, "velocity": 82}, {"time": 214, "pitch": 62, "duration": 14, "velocity": 81}, {"time": 220, "pitch": 50, "duration": 3, "velocity": 73}, {"time": 226, "pitch": 43, "duration": 10, "velocity": 82}, {"time": 232, "pitch": 55, "duration": 7, "velocity": 79}, {"time": 232, "pitch": 59, "duration": 8, "velocity": 80}, {"time": 232, "pitch": 62, "duration": 8, "velocity": 81}, {"time": 244, "pitch": 43, "duration": 4, "velocity": 81}, {"time": 250, "pitch": 48, "duration": 23, "velocity": 83}, {"time": 262, "pitch": 55, "duration": 2, "velocity": 81}, {"time": 262, "pitch": 60, "duration": 14, "velocity": 85}, {"time": 262, "pitch": 63, "duration": 14, "velocity": 85}, {"time": 268, "pitch": 55, "duration": 7, "velocity": 77}, {"time": 274, "pitch": 43, "duration": 21, "velocity": 81}, {"time": 280, "pitch": 55, "duration": 3, "velocity": 81}, {"time": 280, "pitch": 60, "duration": 3, "velocity": 82}, {"time": 280, "pitch": 63, "duration": 4, "velocity": 81}, {"time": 292, "pitch": 55, "duration": 9, "velocity": 86}, {"time": 292, "pitch": 60, "duration": 8, "velocity": 88}, {"time": 292, "pitch": 63, "duration": 8, "velocity": 87}, {"time": 298, "pitch": 48, "duration": 24, "velocity": 90}, {"time": 310, "pitch": 55, "duration": 1, "velocity": 80}, {"time": 310, "pitch": 60, "duration": 14, "velocity": 82}, {"time": 310, "pitch": 63, "duration": 15, "velocity": 83}, {"time": 316, "pitch": 55, "duration": 8, "velocity": 79}, {"time": 322, "pitch": 43, "duration": 10, "velocity": 81}, {"time": 328, "pitch": 55, "duration": 6, "velocity": 82}, {"time": 328, "pitch": 60, "duration": 7, "velocity": 82}, {"time": 328, "pitch": 63, "duration": 8, "velocity": 81}, {"time": 340, "pitch": 48, "duration": 4, "velocity": 92}, {"time": 346, "pitch": 44, "duration": 16, "velocity": 85}, {"time": 358, "pitch": 56, "duration": 2, "velocity": 83}, {"time": 358, "pitch": 60, "duration": 13, "velocity": 79}, {"time": 358, "pitch": 63, "duration": 12, "velocity": 79}, {"time": 364, "pitch": 56, "duration": 7, "velocity": 73}, {"time": 370, "pitch": 44, "duration": 9, "velocity": 95}, {"time": 376, "pitch": 56, "duration": 4, "velocity": 77}, {"time": 376, "pitch": 60, "duration": 4, "velocity": 83}, {"time": 376, "pitch": 63, "duration": 4, "velocity": 80}, {"time": 388, "pitch": 44, "duration": 4, "velocity": 77}, {"time": 388, "pitch": 56, "duration": 4, "velocity": 73}, {"time": 388, "pitch": 60, "duration": 3, "velocity": 72}, {"time": 388, "pitch": 63, "duration": 5, "velocity": 74}, {"time": 394, "pitch": 43, "duration": 15, "velocity": 82}, {"time": 406, "pitch": 55, "duration": 2, "velocity": 76}, {"time": 406, "pitch": 59, "duration": 4, "velocity": 81}, {"time": 406, "pitch": 62, "duration": 4, "velocity": 81}, {"time": 412, "pitch": 50, "duration": 3, "velocity": 73}, {"time": 418, "pitch": 43, "duration": 18, "velocity": 81}, {"time": 424, "pitch": 55, "duration": 6, "velocity": 74}, {"time": 424, "pitch": 59, "duration": 7, "velocity": 81}, {"time": 424, "pitch": 62, "duration": 6, "velocity": 78}, {"time": 424, "pitch": 67, "duration": 6, "velocity": 77}, {"time": 430, "pitch": 50, "duration": 5, "velocity": 74}, {"time": 436, "pitch": 55, "duration": 7, "velocity": 71}, {"time": 436, "pitch": 59, "duration": 6, "velocity": 75}, {"time": 436, "pitch": 62, "duration": 6, "velocity": 71}, {"time": 442, "pitch": 48, "duration": 23, "velocity": 81}, {"time": 454, "pitch": 55, "duration": 3, "velocity": 74}, {"time": 454, "pitch": 60, "duration": 14, "velocity": 77}, {"time": 454, "pitch": 63, "duration": 14, "velocity": 74}, {"time": 460, "pitch": 55, "duration": 7, "velocity": 67}, {"time": 466, "pitch": 43, "duration": 20, "velocity": 77}, {"time": 472, "pitch": 55, "duration": 3, "velocity": 74}, {"time": 472, "pitch": 60, "duration": 2, "velocity": 77}, {"time": 472, "pitch": 63, "duration": 3, "velocity": 76}, {"time": 484, "pitch": 55, "duration": 9, "velocity": 77}, {"time": 484, "pitch": 60, "duration": 10, "velocity": 78}, {"time": 484, "pitch": 63, "duration": 8, "velocity": 75}, {"time": 490, "pitch": 48, "duration": 23, "velocity": 74}, {"time": 502, "pitch": 60, "duration": 14, "velocity": 82}, {"time": 502, "pitch": 63, "duration": 14, "velocity": 79}, {"time": 508, "pitch": 55, "duration": 7, "velocity": 75}, {"time": 514, "pitch": 43, "duration": 15, "velocity": 81}, {"time": 520, "pitch": 55, "duration": 2, "velocity": 75}, {"time": 520, "pitch": 60, "duration": 3, "velocity": 78}, {"time": 520, "pitch": 63, "duration": 3, "velocity": 76}, {"time": 532, "pitch": 43, "duration": 4, "velocity": 84}, {"time": 538, "pitch": 48, "duration": 23, "velocity": 82}, {"time": 538, "pitch": 55, "duration": 8, "velocity": 74}, {"time": 538, "pitch": 60, "duration": 9, "velocity": 77}, {"time": 550, "pitch": 55, "duration": 1, "velocity": 74}, {"time": 550, "pitch": 60, "duration": 14, "velocity": 81}, {"time": 550, "pitch": 63, "duration": 14, "velocity": 78}, {"time": 556, "pitch": 55, "duration": 8, "velocity": 75}, {"time": 562, "pitch": 43, "duration": 13, "velocity": 82}, {"time": 568, "pitch": 55, "duration": 3, "velocity": 77}, {"time": 568, "pitch": 60, "duration": 4, "velocity": 78}, {"time": 568, "pitch": 63, "duration": 4, "velocity": 76}, {"time": 580, "pitch": 43, "duration": 5, "velocity": 81}, {"time": 586, "pitch": 48, "duration": 23, "velocity": 82}, {"time": 586, "pitch": 55, "duration": 7, "velocity": 72}, {"time": 586, "pitch": 60, "duration": 8, "velocity": 77}, {"time": 598, "pitch": 55, "duration": 1, "velocity": 69}, {"time": 598, "pitch": 60, "duration": 14, "velocity": 81}, {"time": 598, "pitch": 63, "duration": 14, "velocity": 77}, {"time": 604, "pitch": 55, "duration": 8, "velocity": 76}, {"time": 610, "pitch": 43, "duration": 20, "velocity": 81}, {"time": 616, "pitch": 55, "duration": 7, "velocity": 78}, {"time": 616, "pitch": 60, "duration": 8, "velocity": 81}, {"time": 616, "pitch": 63, "duration": 8, "velocity": 79}, {"time": 628, "pitch": 55, "duration": 9, "velocity": 79}, {"time": 628, "pitch": 60, "duration": 10, "velocity": 82}, {"time": 628, "pitch": 63, "duration": 9, "velocity": 81}, {"time": 634, "pitch": 48, "duration": 23, "velocity": 82}, {"time": 646, "pitch": 60, "duration": 13, "velocity": 76}, {"time": 646, "pitch": 63, "duration": 13, "velocity": 72}, {"time": 652, "pitch": 55, "duration": 7, "velocity": 70}, {"time": 658, "pitch": 43, "duration": 20, "velocity": 79}, {"time": 664, "pitch": 60, "duration": 4, "velocity": 79}, {"time": 664, "pitch": 63, "duration": 3, "velocity": 76}, {"time": 676, "pitch": 55, "duration": 2, "velocity": 69}, {"time": 676, "pitch": 60, "duration": 10, "velocity": 81}, {"time": 676, "pitch": 63, "duration": 9, "velocity": 77}, {"time": 682, "pitch": 48, "duration": 23, "velocity": 80}, {"time": 694, "pitch": 60, "duration": 13, "velocity": 82}, {"time": 694, "pitch": 63, "duration": 13, "velocity": 81}, {"time": 700, "pitch": 55, "duration": 8, "velocity": 80}, {"time": 706, "pitch": 43, "duration": 10, "velocity": 81}, {"time": 712, "pitch": 55, "duration": 3, "velocity": 80}, {"time": 712, "pitch": 60, "duration": 4, "velocity": 83}, {"time": 712, "pitch": 63, "duration": 5, "velocity": 81}, {"time": 724, "pitch": 55, "duration": 4, "velocity": 86}, {"time": 724, "pitch": 60, "duration": 1, "velocity": 62}, {"time": 724, "pitch": 63, "duration": 2, "velocity": 27}, {"time": 730, "pitch": 44, "duration": 15, "velocity": 82}, {"time": 742, "pitch": 56, "duration": 3, "velocity": 80}, {"time": 742, "pitch": 60, "duration": 7, "velocity": 75}, {"time": 742, "pitch": 63, "duration": 9, "velocity": 75}, {"time": 748, "pitch": 56, "duration": 4, "velocity": 78}, {"time": 754, "pitch": 43, "duration": 9, "velocity": 82}, {"time": 760, "pitch": 55, "duration": 6, "velocity": 72}, {"time": 760, "pitch": 59, "duration": 6, "velocity": 70}, {"time": 760, "pitch": 62, "duration": 5, "velocity": 75}, {"time": 766, "pitch": 50, "duration": 7, "velocity": 70}, {"time": 772, "pitch": 55, "duration": 10, "velocity": 81}, {"time": 778, "pitch": 48, "duration": 24, "velocity": 82}, {"time": 790, "pitch": 55, "duration": 2, "velocity": 82}, {"time": 790, "pitch": 60, "duration": 14, "velocity": 82}, {"time": 790, "pitch": 63, "duration": 14, "velocity": 81}, {"time": 796, "pitch": 55, "duration": 8, "velocity": 78}, {"time": 802, "pitch": 43, "duration": 11, "velocity": 81}, {"time": 808, "pitch": 55, "duration": 3, "velocity": 76}, {"time": 808, "pitch": 60, "duration": 3, "velocity": 80}, {"time": 808, "pitch": 63, "duration": 3, "velocity": 78}, {"time": 820, "pitch": 48, "duration": 5, "velocity": 82}, {"time": 820, "pitch": 55, "duration": 6, "velocity": 80}, {"time": 820, "pitch": 60, "duration": 6, "velocity": 82}, {"time": 826, "pitch": 48, "duration": 23, "velocity": 82}, {"time": 838, "pitch": 60, "duration": 13, "velocity": 76}, {"time": 838, "pitch": 63, "duration": 13, "velocity": 72}, {"time": 844, "pitch": 55, "duration": 7, "velocity": 70}, {"time": 850, "pitch": 43, "duration": 20, "velocity": 79}, {"time": 856, "pitch": 60, "duration": 4, "velocity": 79}, {"time": 856, "pitch": 63, "duration": 3, "velocity": 76}, {"time": 868, "pitch": 55, "duration": 2, "velocity": 69}, {"time": 868, "pitch": 60, "duration": 10, "velocity": 81}, {"time": 868, "pitch": 63, "duration": 9, "velocity": 77}, {"time": 874, "pitch": 48, "duration": 23, "velocity": 80}, {"time": 886, "pitch": 60, "duration": 13, "velocity": 82}, {"time": 886, "pitch": 63, "duration": 13, "velocity": 81}, {"time": 892, "pitch": 55, "duration": 8, "velocity": 80}, {"time": 898, "pitch": 43, "duration": 10, "velocity": 81}, {"time": 904, "pitch": 55, "duration": 3, "velocity": 80}, {"time": 904, "pitch": 60, "duration": 4, "velocity": 83}, {"time": 904, "pitch": 63, "duration": 5, "velocity": 81}, {"time": 916, "pitch": 55, "duration": 4, "velocity": 86}, {"time": 916, "pitch": 60, "duration": 1, "velocity": 62}, {"time": 916, "pitch": 63, "duration": 2, "velocity": 27}, {"time": 922, "pitch": 44, "duration": 15, "velocity": 82}, {"time": 934, "pitch": 56, "duration": 3, "velocity": 80}, {"time": 934, "pitch": 60, "duration": 7, "velocity": 75}, {"time": 934, "pitch": 63, "duration": 9, "velocity": 75}, {"time": 940, "pitch": 56, "duration": 4, "velocity": 78}, {"time": 946, "pitch": 43, "duration": 9, "velocity": 82}, {"time": 952, "pitch": 55, "duration": 6, "velocity": 72}, {"time": 952, "pitch": 59, "duration": 6, "velocity": 70}, {"time": 952, "pitch": 62, "duration": 5, "velocity": 75}, {"time": 958, "pitch": 50, "duration": 7, "velocity": 70}, {"time": 964, "pitch": 55, "duration": 10, "velocity": 81}, {"time": 970, "pitch": 48, "duration": 24, "velocity": 82}, {"time": 982, "pitch": 55, "duration": 2, "velocity": 82}, {"time": 982, "pitch": 60, "duration": 14, "velocity": 82}, {"time": 982, "pitch": 63, "duration": 14, "velocity": 81}, {"time": 988, "pitch": 55, "duration": 8, "velocity": 78}, {"time": 994, "pitch": 43, "duration": 11, "velocity": 81}, {"time": 1000, "pitch": 55, "duration": 3, "velocity": 76}, {"time": 1000, "pitch": 60, "duration": 3, "velocity": 80}, {"time": 1000, "pitch": 63, "duration": 3, "velocity": 78}, {"time": 1012, "pitch": 48, "duration": 5, "velocity": 82}, {"time": 1012, "pitch": 55, "duration": 6, "velocity": 80}, {"time": 1012, "pitch": 60, "duration": 6, "velocity": 82}, {"time": 1018, "pitch": 48, "duration": 23, "velocity": 82}, {"time": 1030, "pitch": 60, "duration": 13, "velocity": 76}, {"time": 1030, "pitch": 63, "duration": 13, "velocity": 72}, {"time": 1036, "pitch": 55, "duration": 7, "velocity": 70}, {"time": 1042, "pitch": 43, "duration": 20, "velocity": 79}, {"time": 1048, "pitch": 60, "duration": 4, "velocity": 79}, {"time": 1048, "pitch": 63, "duration": 3, "velocity": 76}, {"time": 1060, "pitch": 55, "duration": 2, "velocity": 69}, {"time": 1060, "pitch": 60, "duration": 10, "velocity": 81}, {"time": 1060, "pitch": 63, "duration": 9, "velocity": 77}, {"time": 1066, "pitch": 48, "duration": 23, "velocity": 80}, {"time": 1078, "pitch": 60, "duration": 13, "velocity": 82}, {"time": 1078, "pitch": 63, "duration": 13, "velocity": 81}, {"time": 1084, "pitch": 55, "duration": 8, "velocity": 80}, {"time": 1090, "pitch": 43, "duration": 10, "velocity": 81}, {"time": 1096, "pitch": 55, "duration": 3, "velocity": 80}, {"time": 1096, "pitch": 60, "duration": 4, "velocity": 83}, {"time": 1096, "pitch": 63, "duration": 5, "velocity": 81}, {"time": 1108, "pitch": 55, "duration": 4, "velocity": 86}, {"time": 1108, "pitch": 60, "duration": 1, "velocity": 62}, {"time": 1108, "pitch": 63, "duration": 2, "velocity": 27}, {"time": 1114, "pitch": 44, "duration": 15, "velocity": 82}, {"time": 1126, "pitch": 56, "duration": 3, "velocity": 80}, {"time": 1126, "pitch": 60, "duration": 7, "velocity": 75}, {"time": 1126, "pitch": 63, "duration": 9, "velocity": 75}, {"time": 1132, "pitch": 56, "duration": 4, "velocity": 78}, {"time": 1138, "pitch": 43, "duration": 9, "velocity": 82}, {"time": 1144, "pitch": 55, "duration": 6, "velocity": 72}, {"time": 1144, "pitch": 59, "duration": 6, "velocity": 70}, {"time": 1144, "pitch": 62, "duration": 5, "velocity": 75}, {"time": 1150, "pitch": 50, "duration": 7, "velocity": 70}, {"time": 1156, "pitch": 55, "duration": 10, "velocity": 81}, {"time": 1162, "pitch": 48, "duration": 24, "velocity": 82}, {"time": 1174, "pitch": 55, "duration": 2, "velocity": 82}, {"time": 1174, "pitch": 60, "duration": 14, "velocity": 82}, {"time": 1174, "pitch": 63, "duration": 14, "velocity": 81}, {"time": 1180, "pitch": 55, "duration": 8, "velocity": 78}, {"time": 1186, "pitch": 43, "duration": 11, "velocity": 81}, {"time": 1192, "pitch": 55, "duration": 3, "velocity": 76}, {"time": 1192, "pitch": 60, "duration": 3, "velocity": 80}, {"time": 1192, "pitch": 63, "duration": 3, "velocity": 78}, {"time": 1204, "pitch": 48, "duration": 5, "velocity": 82}, {"time": 1204, "pitch": 55, "duration": 6, "velocity": 80}, {"time": 1204, "pitch": 60, "duration": 6, "velocity": 82}, {"time": 1210, "pitch": 48, "duration": 20, "velocity": 83}, {"time": 1210, "pitch": 55, "duration": 1, "velocity": 77}, {"time": 1210, "pitch": 60, "duration": 1, "velocity": 79}, {"time": 1222, "pitch": 60, "duration": 15, "velocity": 85}, {"time": 1222, "pitch": 63, "duration": 15, "velocity": 83}, {"time": 1228, "pitch": 55, "duration": 9, "velocity": 76}, {"time": 1234, "pitch": 48, "duration": 10, "velocity": 80}, {"time": 1240, "pitch": 55, "duration": 1, "velocity": 72}, {"time": 1240, "pitch": 60, "duration": 4, "velocity": 80}, {"time": 1240, "pitch": 63, "duration": 5, "velocity": 82}, {"time": 1252, "pitch": 60, "duration": 5, "velocity": 82}, {"time": 1252, "pitch": 63, "duration": 7, "velocity": 82}, {"time": 1258, "pitch": 44, "duration": 15, "velocity": 85}, {"time": 1270, "pitch": 56, "duration": 4, "velocity": 71}, {"time": 1270, "pitch": 60, "duration": 10, "velocity": 75}, {"time": 1270, "pitch": 63, "duration": 10, "velocity": 74}, {"time": 1276, "pitch": 51, "duration": 3, "velocity": 75}, {"time": 1282, "pitch": 44, "duration": 9, "velocity": 77}, {"time": 1288, "pitch": 56, "duration": 7, "velocity": 82}, {"time": 1288, "pitch": 60, "duration": 8, "velocity": 81}, {"time": 1288, "pitch": 63, "duration": 8, "velocity": 81}, {"time": 1300, "pitch": 44, "duration": 3, "velocity": 86}, {"time": 1306, "pitch": 41, "duration": 17, "velocity": 84}, {"time": 1312, "pitch": 48, "duration": 8, "velocity": 71}, {"time": 1318, "pitch": 53, "duration": 2, "velocity": 80}, {"time": 1318, "pitch": 56, "duration": 11, "velocity": 92}, {"time": 1318, "pitch": 60, "duration": 14, "velocity": 83}, {"time": 1324, "pitch": 53, "duration": 5, "velocity": 78}, {"time": 1330, "pitch": 43, "duration": 20, "velocity": 82}, {"time": 1336, "pitch": 55, "duration": 6, "velocity": 75}, {"time": 1336, "pitch": 59, "duration": 6, "velocity": 78}, {"time": 1336, "pitch": 62, "duration": 5, "velocity": 80}, {"time": 1342, "pitch": 50, "duration": 7, "velocity": 65}, {"time": 1348, "pitch": 55, "duration": 6, "velocity": 81}, {"time": 1348, "pitch": 59, "duration": 5, "velocity": 82}, {"time": 1348, "pitch": 62, "duration": 6, "velocity": 82}, {"time": 1354, "pitch": 48, "duration": 18, "velocity": 81}, {"time": 1354, "pitch": 55, "duration": 1, "velocity": 65}, {"time": 1354, "pitch": 60, "duration": 8, "velocity": 82}, {"time": 1366, "pitch": 55, "duration": 2, "velocity": 82}, {"time": 1366, "pitch": 60, "duration": 15, "velocity": 83}, {"time": 1366, "pitch": 63, "duration": 15, "velocity": 84}, {"time": 1372, "pitch": 55, "duration": 9, "velocity": 79}, {"time": 1378, "pitch": 43, "duration": 13, "velocity": 82}, {"time": 1384, "pitch": 55, "duration": 6, "velocity": 84}, {"time": 1384, "pitch": 60, "duration": 7, "velocity": 83}, {"time": 1384, "pitch": 63, "duration": 11, "velocity": 82}, {"time": 1390, "pitch": 48, "duration": 8, "velocity": 77}, {"time": 1396, "pitch": 55, "duration": 2, "velocity": 82}, {"time": 1402, "pitch": 48, "duration": 2, "velocity": 95}, {"time": 1402, "pitch": 55, "duration": 4, "velocity": 84}, {"time": 1402, "pitch": 60, "duration": 3, "velocity": 88}, {"time": 1414, "pitch": 36, "duration": 10, "velocity": 83}, {"time": 1414, "pitch": 48, "duration": 10, "velocity": 82}, {"time": 1426, "pitch": 38, "duration": 12, "velocity": 90}, {"time": 1426, "pitch": 50, "duration": 12, "velocity": 90}, {"time": 1438, "pitch": 39, "duration": 8, "velocity": 84}, {"time": 1438, "pitch": 51, "duration": 7, "velocity": 88}, {"time": 1450, "pitch": 41, "duration": 14, "velocity": 81}, {"time": 1450, "pitch": 60, "duration": 8, "velocity": 82}, {"time": 1450, "pitch": 68, "duration": 7, "velocity": 84}, {"time": 1462, "pitch": 60, "duration": 8, "velocity": 83}, {"time": 1462, "pitch": 65, "duration": 11, "velocity": 83}, {"time": 1462, "pitch": 68, "duration": 13, "velocity": 86}, {"time": 1468, "pitch": 48, "duration": 3, "velocity": 76}, {"time": 1474, "pitch": 41, "duration": 8, "velocity": 82}, {"time": 1480, "pitch": 60, "duration": 2, "velocity": 82}, {"time": 1480, "pitch": 65, "duration": 2, "velocity": 82}, {"time": 1480, "pitch": 68, "duration": 3, "velocity": 83}, {"time": 1492, "pitch": 60, "duration": 12, "velocity": 82}, {"time": 1492, "pitch": 65, "duration": 12, "velocity": 82}, {"time": 1492, "pitch": 68, "duration": 12, "velocity": 85}, {"time": 1498, "pitch": 41, "duration": 16, "velocity": 82}, {"time": 1510, "pitch": 60, "duration": 2, "velocity": 81}, {"time": 1510, "pitch": 65, "duration": 15, "velocity": 81}, {"time": 1510, "pitch": 68, "duration": 16, "velocity": 83}, {"time": 1516, "pitch": 60, "duration": 9, "velocity": 83}, {"time": 1522, "pitch": 41, "duration": 13, "velocity": 81}, {"time": 1528, "pitch": 60, "duration": 6, "velocity": 84}, {"time": 1528, "pitch": 65, "duration": 6, "velocity": 83}, {"time": 1528, "pitch": 68, "duration": 6, "velocity": 85}, {"time": 1540, "pitch": 41, "duration": 3, "velocity": 81}, {"time": 1546, "pitch": 39, "duration": 16, "velocity": 86}, {"time": 1546, "pitch": 55, "duration": 9, "velocity": 75}, {"time": 1546, "pitch": 58, "duration": 9, "velocity": 74}, {"time": 1546, "pitch": 63, "duration": 8, "velocity": 68}, {"time": 1558, "pitch": 58, "duration": 14, "velocity": 85}, {"time": 1558, "pitch": 63, "duration": 14, "velocity": 86}, {"time": 1570, "pitch": 39, "duration": 9, "velocity": 82}, {"time": 1576, "pitch": 55, "duration": 6, "velocity": 81}, {"time": 1576, "pitch": 58, "duration": 8, "velocity": 84}, {"time": 1576, "pitch": 63, "duration": 10, "velocity": 84}, {"time": 1582, "pitch": 46, "duration": 2, "velocity": 65}, {"time": 1588, "pitch": 55, "duration": 3, "velocity": 85}, {"time": 1594, "pitch": 46, "duration": 14, "velocity": 79}, {"time": 1594, "pitch": 58, "duration": 9, "velocity": 76}, {"time": 1606, "pitch": 53, "duration": 3, "velocity": 86}, {"time": 1606, "pitch": 58, "duration": 12, "velocity": 88}, {"time": 1606, "pitch": 62, "duration": 11, "velocity": 86}, {"time": 1612, "pitch": 53, "duration": 7, "velocity": 78}, {"time": 1618, "pitch": 46, "duration": 8, "velocity": 83}, {"time": 1624, "pitch": 53, "duration": 5, "velocity": 86}, {"time": 1624, "pitch": 58, "duration": 7, "velocity": 95}, {"time": 1624, "pitch": 62, "duration": 8, "velocity": 84}, {"time": 1630, "pitch": 46, "duration": 2, "velocity": 73}, {"time": 1636, "pitch": 53, "duration": 2, "velocity": 70}, {"time": 1642, "pitch": 41, "duration": 17, "velocity": 83}, {"time": 1642, "pitch": 53, "duration": 6, "velocity": 74}, {"time": 1642, "pitch": 59, "duration": 1, "velocity": 70}, {"time": 1642, "pitch": 60, "duration": 6, "velocity": 72}, {"time": 1654, "pitch": 60, "duration": 4, "velocity": 79}, {"time": 1654, "pitch": 62, "duration": 1, "velocity": 77}, {"time": 1654, "pitch": 65, "duration": 12, "velocity": 83}, {"time": 1660, "pitch": 60, "duration": 6, "velocity": 76}, {"time": 1666, "pitch": 41, "duration": 10, "velocity": 81}, {"time": 1672, "pitch": 60, "duration": 5, "velocity": 87}, {"time": 1672, "pitch": 65, "duration": 6, "velocity": 85}, {"time": 1672, "pitch": 68, "duration": 6, "velocity": 85}, {"time": 1684, "pitch": 60, "duration": 3, "velocity": 86}, {"time": 1690, "pitch": 41, "duration": 17, "velocity": 82}, {"time": 1690, "pitch": 60, "duration": 7, "velocity": 79}, {"time": 1690, "pitch": 65, "duration": 7, "velocity": 79}, {"time": 1702, "pitch": 60, "duration": 14, "velocity": 85}, {"time": 1702, "pitch": 65, "duration": 15, "velocity": 88}, {"time": 1702, "pitch": 68, "duration": 15, "velocity": 86}, {"time": 1708, "pitch": 48, "duration": 1, "velocity": 53}, {"time": 1714, "pitch": 41, "duration": 13, "velocity": 79}, {"time": 1720, "pitch": 60, "duration": 3, "velocity": 87}, {"time": 1720, "pitch": 65, "duration": 2, "velocity": 88}, {"time": 1720, "pitch": 68, "duration": 2, "velocity": 88}, {"time": 1726, "pitch": 48, "duration": 3, "velocity": 76}, {"time": 1732, "pitch": 41, "duration": 2, "velocity": 82}, {"time": 1738, "pitch": 39, "duration": 14, "velocity": 87}, {"time": 1738, "pitch": 55, "duration": 7, "velocity": 79}, {"time": 1738, "pitch": 58, "duration": 7, "velocity": 70}, {"time": 1738, "pitch": 63, "duration": 7, "velocity": 77}, {"time": 1750, "pitch": 55, "duration": 14, "velocity": 82}, {"time": 1750, "pitch": 58, "duration": 14, "velocity": 85}, {"time": 1750, "pitch": 63, "duration": 14, "velocity": 88}, {"time": 1756, "pitch": 46, "duration": 3, "velocity": 62}, {"time": 1762, "pitch": 39, "duration": 8, "velocity": 75}, {"time": 1768, "pitch": 55, "duration": 5, "velocity": 82}, {"time": 1768, "pitch": 58, "duration": 13, "velocity": 86}, {"time": 1768, "pitch": 63, "duration": 12, "velocity": 86}, {"time": 1774, "pitch": 46, "duration": 3, "velocity": 73}, {"time": 1780, "pitch": 55, "duration": 3, "velocity": 78}, {"time": 1786, "pitch": 46, "duration": 18, "velocity": 84}, {"time": 1786, "pitch": 53, "duration": 8, "velocity": 80}, {"time": 1786, "pitch": 58, "duration": 9, "velocity": 77}, {"time": 1786, "pitch": 62, "duration": 8, "velocity": 72}, {"time": 1798, "pitch": 53, "duration": 2, "velocity": 80}, {"time": 1798, "pitch": 58, "duration": 7, "velocity": 82}, {"time": 1798, "pitch": 62, "duration": 7, "velocity": 81}, {"time": 1804, "pitch": 53, "duration": 3, "velocity": 79}, {"time": 1810, "pitch": 47, "duration": 10, "velocity": 88}, {"time": 1810, "pitch": 55, "duration": 9, "velocity": 83}, {"time": 1810, "pitch": 59, "duration": 13, "velocity": 85}, {"time": 1822, "pitch": 43, "duration": 10, "velocity": 85}, {"time": 1822, "pitch": 55, "duration": 10, "velocity": 85}, {"time": 1834, "pitch": 48, "duration": 20, "velocity": 90}, {"time": 1834, "pitch": 55, "duration": 8, "velocity": 82}, {"time": 1834, "pitch": 60, "duration": 8, "velocity": 83}, {"time": 1846, "pitch": 55, "duration": 2, "velocity": 83}, {"time": 1846, "pitch": 60, "duration": 7, "velocity": 86}, {"time": 1846, "pitch": 63, "duration": 10, "velocity": 85}, {"time": 1852, "pitch": 55, "duration": 6, "velocity": 81}, {"time": 1858, "pitch": 43, "duration": 20, "velocity": 82}, {"time": 1864, "pitch": 55, "duration": 5, "velocity": 82}, {"time": 1864, "pitch": 59, "duration": 5, "velocity": 83}, {"time": 1864, "pitch": 62, "duration": 5, "velocity": 81}, {"time": 1870, "pitch": 50, "duration": 7, "velocity": 65}, {"time": 1876, "pitch": 55, "duration": 3, "velocity": 81}, {"time": 1876, "pitch": 59, "duration": 2, "velocity": 82}, {"time": 1876, "pitch": 62, "duration": 3, "velocity": 82}, {"time": 1882, "pitch": 48, "duration": 23, "velocity": 82}, {"time": 1882, "pitch": 55, "duration": 8, "velocity": 81}, {"time": 1882, "pitch": 60, "duration": 8, "velocity": 82}, {"time": 1894, "pitch": 55, "duration": 1, "velocity": 81}, {"time": 1894, "pitch": 60, "duration": 12, "velocity": 86}, {"time": 1894, "pitch": 63, "duration": 12, "velocity": 87}, {"time": 1900, "pitch": 55, "duration": 9, "velocity": 82}, {"time": 1906, "pitch": 43, "duration": 10, "velocity": 82}, {"time": 1912, "pitch": 55, "duration": 3, "velocity": 82}, {"time": 1912, "pitch": 59, "duration": 3, "velocity": 82}, {"time": 1912, "pitch": 62, "duration": 3, "velocity": 82}, {"time": 1924, "pitch": 55, "duration": 2, "velocity": 80}, {"time": 1924, "pitch": 59, "duration": 2, "velocity": 82}, {"time": 1924, "pitch": 62, "duration": 3, "velocity": 82}, {"time": 1930, "pitch": 48, "duration": 21, "velocity": 82}, {"time": 1930, "pitch": 55, "duration": 8, "velocity": 82}, {"time": 1930, "pitch": 60, "duration": 8, "velocity": 82}, {"time": 1942, "pitch": 55, "duration": 1, "velocity": 80}, {"time": 1942, "pitch": 60, "duration": 7, "velocity": 87}, {"time": 1942, "pitch": 63, "duration": 7, "velocity": 84}, {"time": 1948, "pitch": 55, "duration": 2, "velocity": 80}, {"time": 1954, "pitch": 43, "duration": 9, "velocity": 82}, {"time": 1954, "pitch": 55, "duration": 3, "velocity": 75}, {"time": 1954, "pitch": 59, "duration": 3, "velocity": 79}, {"time": 1960, "pitch": 55, "duration": 7, "velocity": 82}, {"time": 1960, "pitch": 59, "duration": 7, "velocity": 83}, {"time": 1960, "pitch": 62, "duration": 7, "velocity": 85}, {"time": 1966, "pitch": 50, "duration": 7, "velocity": 73}, {"time": 1972, "pitch": 55, "duration": 2, "velocity": 81}, {"time": 1972, "pitch": 59, "duration": 2, "velocity": 71}, {"time": 1972, "pitch": 62, "duration": 2, "velocity": 81}, {"time": 1978, "pitch": 48, "duration": 21, "velocity": 82}, {"time": 1978, "pitch": 55, "duration": 8, "velocity": 80}, {"time": 1978, "pitch": 60, "duration": 8, "velocity": 80}, {"time": 1990, "pitch": 55, "duration": 2, "velocity": 81}, {"time": 1990, "pitch": 60, "duration": 14, "velocity": 85}, {"time": 1990, "pitch": 63, "duration": 14, "velocity": 84}, {"time": 1996, "pitch": 55, "duration": 8, "velocity": 79}, {"time": 2002, "pitch": 43, "duration": 9, "velocity": 82}, {"time": 2008, "pitch": 55, "duration": 2, "velocity": 83}, {"time": 2008, "pitch": 60, "duration": 2, "velocity": 85}, {"time": 2008, "pitch": 63, "duration": 3, "velocity": 88}, {"time": 2020, "pitch": 43, "duration": 5, "velocity": 83}, {"time": 2020, "pitch": 55, "duration": 4, "velocity": 77}, {"time": 2020, "pitch": 60, "duration": 3, "velocity": 78}, {"time": 2020, "pitch": 63, "duration": 4, "velocity": 77}, {"time": 2026, "pitch": 48, "duration": 20, "velocity": 90}, {"time": 2026, "pitch": 55, "duration": 8, "velocity": 82}, {"time": 2026, "pitch": 60, "duration": 8, "velocity": 83}, {"time": 2038, "pitch": 55, "duration": 2, "velocity": 83}, {"time": 2038, "pitch": 60, "duration": 7, "velocity": 86}, {"time": 2038, "pitch": 63, "duration": 10, "velocity": 85}, {"time": 2044, "pitch": 55, "duration": 6, "velocity": 81}, {"time": 2050, "pitch": 43, "duration": 20, "velocity": 82}, {"time": 2056, "pitch": 55, "duration": 5, "velocity": 82}, {"time": 2056, "pitch": 59, "duration": 5, "velocity": 83}, {"time": 2056, "pitch": 62, "duration": 5, "velocity": 81}, {"time": 2062, "pitch": 50, "duration": 7, "velocity": 65}, {"time": 2068, "pitch": 55, "duration": 3, "velocity": 81}, {"time": 2068, "pitch": 59, "duration": 2, "velocity": 82}, {"time": 2068, "pitch": 62, "duration": 3, "velocity": 82}, {"time": 2074, "pitch": 48, "duration": 23, "velocity": 82}, {"time": 2074, "pitch": 55, "duration": 8, "velocity": 81}, {"time": 2074, "pitch": 60, "duration": 8, "velocity": 82}, {"time": 2086, "pitch": 55, "duration": 1, "velocity": 81}, {"time": 2086, "pitch": 60, "duration": 12, "velocity": 86}, {"time": 2086, "pitch": 63, "duration": 12, "velocity": 87}, {"time": 2092, "pitch": 55, "duration": 9, "velocity": 82}, {"time": 2098, "pitch": 43, "duration": 10, "velocity": 82}, {"time": 2104, "pitch": 55, "duration": 3, "velocity": 82}, {"time": 2104, "pitch": 59, "duration": 3, "velocity": 82}, {"time": 2104, "pitch": 62, "duration": 3, "velocity": 82}, {"time": 2116, "pitch": 55, "duration": 2, "velocity": 80}, {"time": 2116, "pitch": 59, "duration": 2, "velocity": 82}, {"time": 2116, "pitch": 62, "duration": 3, "velocity": 82}, {"time": 2122, "pitch": 48, "duration": 21, "velocity": 82}, {"time": 2122, "pitch": 55, "duration": 8, "velocity": 82}, {"time": 2122, "pitch": 60, "duration": 8, "velocity": 82}, {"time": 2134, "pitch": 55, "duration": 1, "velocity": 80}, {"time": 2134, "pitch": 60, "duration": 7, "velocity": 87}, {"time": 2134, "pitch": 63, "duration": 7, "velocity": 84}, {"time": 2140, "pitch": 55, "duration": 2, "velocity": 80}, {"time": 2146, "pitch": 43, "duration": 9, "velocity": 82}, {"time": 2146, "pitch": 55, "duration": 3, "velocity": 75}, {"time": 2146, "pitch": 59, "duration": 3, "velocity": 79}, {"time": 2152, "pitch": 55, "duration": 7, "velocity": 82}, {"time": 2152, "pitch": 59, "duration": 7, "velocity": 83}, {"time": 2152, "pitch": 62, "duration": 7, "velocity": 85}, {"time": 2158, "pitch": 50, "duration": 7, "velocity": 73}, {"time": 2164, "pitch": 55, "duration": 2, "velocity": 81}, {"time": 2164, "pitch": 59, "duration": 2, "velocity": 71}, {"time": 2164, "pitch": 62, "duration": 2, "velocity": 81}, {"time": 2170, "pitch": 48, "duration": 21, "velocity": 82}, {"time": 2170, "pitch": 55, "duration": 8, "velocity": 80}, {"time": 2170, "pitch": 60, "duration": 8, "velocity": 80}, {"time": 2182, "pitch": 55, "duration": 2, "velocity": 81}, {"time": 2182, "pitch": 60, "duration": 14, "velocity": 85}, {"time": 2182, "pitch": 63, "duration": 14, "velocity": 84}, {"time": 2188, "pitch": 55, "duration": 8, "velocity": 79}, {"time": 2194, "pitch": 43, "duration": 9, "velocity": 82}, {"time": 2200, "pitch": 55, "duration": 2, "velocity": 83}, {"time": 2200, "pitch": 60, "duration": 2, "velocity": 85}, {"time": 2200, "pitch": 63, "duration": 3, "velocity": 88}, {"time": 2212, "pitch": 43, "duration": 5, "velocity": 83}, {"time": 2212, "pitch": 55, "duration": 4, "velocity": 77}, {"time": 2212, "pitch": 60, "duration": 3, "velocity": 78}, {"time": 2212, "pitch": 63, "duration": 4, "velocity": 77}, {"time": 2218, "pitch": 48, "duration": 14, "velocity": 84}, {"time": 2218, "pitch": 60, "duration": 6, "velocity": 75}, {"time": 2218, "pitch": 63, "duration": 7, "velocity": 79}, {"time": 2230, "pitch": 60, "duration": 5, "velocity": 76}, {"time": 2230, "pitch": 63, "duration": 6, "velocity": 82}, {"time": 2230, "pitch": 67, "duration": 4, "velocity": 77}, {"time": 2242, "pitch": 48, "duration": 11, "velocity": 81}, {"time": 2248, "pitch": 60, "duration": 6, "velocity": 79}, {"time": 2248, "pitch": 63, "duration": 7, "velocity": 85}, {"time": 2260, "pitch": 63, "duration": 10, "velocity": 81}, {"time": 2266, "pitch": 44, "duration": 14, "velocity": 84}, {"time": 2278, "pitch": 56, "duration": 5, "velocity": 74}, {"time": 2278, "pitch": 60, "duration": 5, "velocity": 74}, {"time": 2278, "pitch": 63, "duration": 5, "velocity": 75}, {"time": 2284, "pitch": 51, "duration": 3, "velocity": 39}, {"time": 2290, "pitch": 44, "duration": 9, "velocity": 81}, {"time": 2296, "pitch": 56, "duration": 7, "velocity": 74}, {"time": 2296, "pitch": 60, "duration": 7, "velocity": 79}, {"time": 2296, "pitch": 63, "duration": 7, "velocity": 74}, {"time": 2308, "pitch": 56, "duration": 5, "velocity": 70}, {"time": 2308, "pitch": 60, "duration": 5, "velocity": 81}, {"time": 2308, "pitch": 63, "duration": 5, "velocity": 73}, {"time": 2314, "pitch": 43, "duration": 14, "velocity": 81}, {"time": 2326, "pitch": 55, "duration": 13, "velocity": 79}, {"time": 2326, "pitch": 59, "duration": 14, "velocity": 82}, {"time": 2326, "pitch": 62, "duration": 14, "velocity": 81}, {"time": 2332, "pitch": 50, "duration": 3, "velocity": 73}, {"time": 2338, "pitch": 43, "duration": 10, "velocity": 82}, {"time": 2344, "pitch": 55, "duration": 7, "velocity": 79}, {"time": 2344, "pitch": 59, "duration": 8, "velocity": 80}, {"time": 2344, "pitch": 62, "duration": 8, "velocity": 81}, {"time": 2356, "pitch": 43, "duration": 4, "velocity": 81}, {"time": 2362, "pitch": 48, "duration": 23, "velocity": 83}, {"time": 2374, "pitch": 55, "duration": 2, "velocity": 81}, {"time": 2374, "pitch": 60, "duration": 14, "velocity": 85}, {"time": 2374, "pitch": 63, "duration": 14, "velocity": 85}, {"time": 2380, "pitch": 55, "duration": 7, "velocity": 77}, {"time": 2386, "pitch": 43, "duration": 21, "velocity": 81}, {"time": 2392, "pitch": 55, "duration": 3, "velocity": 81}, {"time": 2392, "pitch": 60, "duration": 3, "velocity": 82}, {"time": 2392, "pitch": 63, "duration": 4, "velocity": 81}, {"time": 2404, "pitch": 55, "duration": 9, "velocity": 86}, {"time": 2404, "pitch": 60, "duration": 8, "velocity": 88}, {"time": 2404, "pitch": 63, "duration": 8, "velocity": 87}, {"time": 2410, "pitch": 48, "duration": 24, "velocity": 90}, {"time": 2422, "pitch": 55, "duration": 1, "velocity": 80}, {"time": 2422, "pitch": 60, "duration": 14, "velocity": 82}, {"time": 2422, "pitch": 63, "duration": 15, "velocity": 83}, {"time": 2428, "pitch": 55, "duration": 8, "velocity": 79}, {"time": 2434, "pitch": 43, "duration": 10, "velocity": 81}, {"time": 2440, "pitch": 55, "duration": 6, "velocity": 82}, {"time": 2440, "pitch": 60, "duration": 7, "velocity": 82}, {"time": 2440, "pitch": 63, "duration": 8, "velocity": 81}, {"time": 2452, "pitch": 48, "duration": 4, "velocity": 92}, {"time": 2458, "pitch": 44, "duration": 16, "velocity": 85}, {"time": 2470, "pitch": 56, "duration": 2, "velocity": 83}, {"time": 2470, "pitch": 60, "duration": 13, "velocity": 79}, {"time": 2470, "pitch": 63, "duration": 12, "velocity": 79}, {"time": 2476, "pitch": 56, "duration": 7, "velocity": 73}, {"time": 2482, "pitch": 44, "duration": 9, "velocity": 95}, {"time": 2488, "pitch": 56, "duration": 4, "velocity": 77}, {"time": 2488, "pitch": 60, "duration": 4, "velocity": 83}, {"time": 2488, "pitch": 63, "duration": 4, "velocity": 80}, {"time": 2500, "pitch": 44, "duration": 4, "velocity": 77}, {"time": 2500, "pitch": 56, "duration": 4, "velocity": 73}, {"time": 2500, "pitch": 60, "duration": 3, "velocity": 72}, {"time": 2500, "pitch": 63, "duration": 5, "velocity": 74}, {"time": 2506, "pitch": 43, "duration": 15, "velocity": 82}, {"time": 2518, "pitch": 55, "duration": 2, "velocity": 76}, {"time": 2518, "pitch": 59, "duration": 4, "velocity": 81}, {"time": 2518, "pitch": 62, "duration": 4, "velocity": 81}, {"time": 2524, "pitch": 50, "duration": 3, "velocity": 73}, {"time": 2530, "pitch": 43, "duration": 18, "velocity": 81}, {"time": 2536, "pitch": 55, "duration": 6, "velocity": 74}, {"time": 2536, "pitch": 59, "duration": 7, "velocity": 81}, {"time": 2536, "pitch": 62, "duration": 6, "velocity": 78}, {"time": 2536, "pitch": 67, "duration": 6, "velocity": 77}, {"time": 2542, "pitch": 50, "duration": 5, "velocity": 74}, {"time": 2548, "pitch": 55, "duration": 7, "velocity": 71}, {"time": 2548, "pitch": 59, "duration": 6, "velocity": 75}, {"time": 2548, "pitch": 62, "duration": 6, "velocity": 71}, {"time": 2554, "pitch": 48, "duration": 23, "velocity": 81}, {"time": 2566, "pitch": 55, "duration": 3, "velocity": 74}, {"time": 2566, "pitch": 60, "duration": 14, "velocity": 77}, {"time": 2566, "pitch": 63, "duration": 14, "velocity": 74}, {"time": 2572, "pitch": 55, "duration": 7, "velocity": 67}, {"time": 2578, "pitch": 43, "duration": 20, "velocity": 77}, {"time": 2584, "pitch": 55, "duration": 3, "velocity": 74}, {"time": 2584, "pitch": 60, "duration": 2, "velocity": 77}, {"time": 2584, "pitch": 63, "duration": 3, "velocity": 76}, {"time": 2596, "pitch": 55, "duration": 9, "velocity": 77}, {"time": 2596, "pitch": 60, "duration": 10, "velocity": 78}, {"time": 2596, "pitch": 63, "duration": 8, "velocity": 75}, {"time": 2602, "pitch": 48, "duration": 23, "velocity": 74}, {"time": 2614, "pitch": 60, "duration": 14, "velocity": 82}, {"time": 2614, "pitch": 63, "duration": 14, "velocity": 79}, {"time": 2620, "pitch": 55, "duration": 7, "velocity": 75}, {"time": 2626, "pitch": 43, "duration": 15, "velocity": 81}, {"time": 2632, "pitch": 55, "duration": 2, "velocity": 75}, {"time": 2632, "pitch": 60, "duration": 3, "velocity": 78}, {"time": 2632, "pitch": 63, "duration": 3, "velocity": 76}, {"time": 2644, "pitch": 43, "duration": 4, "velocity": 84}, {"time": 2650, "pitch": 48, "duration": 23, "velocity": 82}, {"time": 2650, "pitch": 55, "duration": 8, "velocity": 74}, {"time": 2650, "pitch": 60, "duration": 9, "velocity": 77}, {"time": 2662, "pitch": 55, "duration": 1, "velocity": 74}, {"time": 2662, "pitch": 60, "duration": 14, "velocity": 81}, {"time": 2662, "pitch": 63, "duration": 14, "velocity": 78}, {"time": 2668, "pitch": 55, "duration": 8, "velocity": 75}, {"time": 2674, "pitch": 43, "duration": 13, "velocity": 82}, {"time": 2680, "pitch": 55, "duration": 3, "velocity": 77}, {"time": 2680, "pitch": 60, "duration": 4, "velocity": 78}, {"time": 2680, "pitch": 63, "duration": 4, "velocity": 76}, {"time": 2692, "pitch": 43, "duration": 5, "velocity": 81}, {"time": 2698, "pitch": 48, "duration": 23, "velocity": 82}, {"time": 2698, "pitch": 55, "duration": 7, "velocity": 72}, {"time": 2698, "pitch": 60, "duration": 8, "velocity": 77}, {"time": 2710, "pitch": 55, "duration": 1, "velocity": 69}, {"time": 2710, "pitch": 60, "duration": 14, "velocity": 81}, {"time": 2710, "pitch": 63, "duration": 14, "velocity": 77}, {"time": 2716, "pitch": 55, "duration": 8, "velocity": 76}, {"time": 2722, "pitch": 43, "duration": 20, "velocity": 81}, {"time": 2728, "pitch": 55, "duration": 7, "velocity": 78}, {"time": 2728, "pitch": 60, "duration": 8, "velocity": 81}, {"time": 2728, "pitch": 63, "duration": 8, "velocity": 79}, {"time": 2740, "pitch": 55, "duration": 9, "velocity": 79}, {"time": 2740, "pitch": 60, "duration": 10, "velocity": 82}, {"time": 2740, "pitch": 63, "duration": 9, "velocity": 81}, {"time": 2746, "pitch": 48, "duration": 23, "velocity": 82}, {"time": 2758, "pitch": 60, "duration": 13, "velocity": 76}, {"time": 2758, "pitch": 63, "duration": 13, "velocity": 72}, {"time": 2764, "pitch": 55, "duration": 7, "velocity": 70}, {"time": 2770, "pitch": 43, "duration": 20, "velocity": 79}, {"time": 2776, "pitch": 60, "duration": 4, "velocity": 79}, {"time": 2776, "pitch": 63, "duration": 3, "velocity": 76}, {"time": 2788, "pitch": 55, "duration": 2, "velocity": 69}, {"time": 2788, "pitch": 60, "duration": 10, "velocity": 81}, {"time": 2788, "pitch": 63, "duration": 9, "velocity": 77}, {"time": 2794, "pitch": 48, "duration": 23, "velocity": 80}, {"time": 2806, "pitch": 60, "duration": 13, "velocity": 82}, {"time": 2806, "pitch": 63, "duration": 13, "velocity": 81}, {"time": 2812, "pitch": 55, "duration": 8, "velocity": 80}, {"time": 2818, "pitch": 43, "duration": 10, "velocity": 81}, {"time": 2824, "pitch": 55, "duration": 3, "velocity": 80}, {"time": 2824, "pitch": 60, "duration": 4, "velocity": 83}, {"time": 2824, "pitch": 63, "duration": 5, "velocity": 81}, {"time": 2836, "pitch": 55, "duration": 4, "velocity": 86}, {"time": 2836, "pitch": 60, "duration": 1, "velocity": 62}, {"time": 2836, "pitch": 63, "duration": 2, "velocity": 27}, {"time": 2842, "pitch": 44, "duration": 15, "velocity": 82}, {"time": 2854, "pitch": 56, "duration": 3, "velocity": 80}, {"time": 2854, "pitch": 60, "duration": 7, "velocity": 75}, {"time": 2854, "pitch": 63, "duration": 9, "velocity": 75}, {"time": 2860, "pitch": 56, "duration": 4, "velocity": 78}, {"time": 2866, "pitch": 43, "duration": 9, "velocity": 82}, {"time": 2872, "pitch": 55, "duration": 6, "velocity": 72}, {"time": 2872, "pitch": 59, "duration": 6, "velocity": 70}, {"time": 2872, "pitch": 62, "duration": 5, "velocity": 75}, {"time": 2878, "pitch": 50, "duration": 7, "velocity": 70}, {"time": 2884, "pitch": 55, "duration": 10, "velocity": 81}, {"time": 2890, "pitch": 48, "duration": 24, "velocity": 82}, {"time": 2902, "pitch": 55, "duration": 2, "velocity": 82}, {"time": 2902, "pitch": 60, "duration": 14, "velocity": 82}, {"time": 2902, "pitch": 63, "duration": 14, "velocity": 81}, {"time": 2908, "pitch": 55, "duration": 8, "velocity": 78}, {"time": 2914, "pitch": 43, "duration": 11, "velocity": 81}, {"time": 2920, "pitch": 55, "duration": 3, "velocity": 76}, {"time": 2920, "pitch": 60, "duration": 3, "velocity": 80}, {"time": 2920, "pitch": 63, "duration": 3, "velocity": 78}, {"time": 2932, "pitch": 48, "duration": 5, "velocity": 82}, {"time": 2932, "pitch": 55, "duration": 6, "velocity": 80}, {"time": 2932, "pitch": 60, "duration": 6, "velocity": 82}, {"time": 2938, "pitch": 48, "duration": 20, "velocity": 83}, {"time": 2938, "pitch": 55, "duration": 1, "velocity": 77}, {"time": 2938, "pitch": 60, "duration": 1, "velocity": 79}, {"time": 2950, "pitch": 60, "duration": 15, "velocity": 85}, {"time": 2950, "pitch": 63, "duration": 15, "velocity": 83}, {"time": 2956, "pitch": 55, "duration": 9, "velocity": 76}, {"time": 2962, "pitch": 48, "duration": 10, "velocity": 80}, {"time": 2968, "pitch": 55, "duration": 1, "velocity": 72}, {"time": 2968, "pitch": 60, "duration": 4, "velocity": 80}, {"time": 2968, "pitch": 63, "duration": 5, "velocity": 82}, {"time": 2980, "pitch": 60, "duration": 5, "velocity": 82}, {"time": 2980, "pitch": 63, "duration": 7, "velocity": 82}, {"time": 2986, "pitch": 44, "duration": 15, "velocity": 85}, {"time": 2998, "pitch": 56, "duration": 4, "velocity": 71}, {"time": 2998, "pitch": 60, "duration": 10, "velocity": 75}, {"time": 2998, "pitch": 63, "duration": 10, "velocity": 74}, {"time": 3004, "pitch": 51, "duration": 3, "velocity": 75}, {"time": 3010, "pitch": 44, "duration": 9, "velocity": 77}, {"time": 3016, "pitch": 56, "duration": 7, "velocity": 82}, {"time": 3016, "pitch": 60, "duration": 8, "velocity": 81}, {"time": 3016, "pitch": 63, "duration": 8, "velocity": 81}, {"time": 3028, "pitch": 44, "duration": 3, "velocity": 86}, {"time": 3034, "pitch": 41, "duration": 17, "velocity": 84}, {"time": 3040, "pitch": 48, "duration": 8, "velocity": 71}, {"time": 3046, "pitch": 53, "duration": 2, "velocity": 80}, {"time": 3046, "pitch": 56, "duration": 11, "velocity": 92}, {"time": 3046, "pitch": 60, "duration": 14, "velocity": 83}, {"time": 3052, "pitch": 53, "duration": 5, "velocity": 78}, {"time": 3058, "pitch": 43, "duration": 20, "velocity": 82}, {"time": 3064, "pitch": 55, "duration": 6, "velocity": 75}, {"time": 3064, "pitch": 59, "duration": 6, "velocity": 78}, {"time": 3064, "pitch": 62, "duration": 5, "velocity": 80}, {"time": 3070, "pitch": 50, "duration": 7, "velocity": 65}, {"time": 3076, "pitch": 55, "duration": 6, "velocity": 81}, {"time": 3076, "pitch": 59, "duration": 5, "velocity": 82}, {"time": 3076, "pitch": 62, "duration": 6, "velocity": 82}, {"time": 3082, "pitch": 48, "duration": 18, "velocity": 81}, {"time": 3082, "pitch": 55, "duration": 1, "velocity": 65}, {"time": 3082, "pitch": 60, "duration": 8, "velocity": 82}, {"time": 3094, "pitch": 55, "duration": 2, "velocity": 82}, {"time": 3094, "pitch": 60, "duration": 15, "velocity": 83}, {"time": 3094, "pitch": 63, "duration": 15, "velocity": 84}, {"time": 3100, "pitch": 55, "duration": 9, "velocity": 79}, {"time": 3106, "pitch": 43, "duration": 13, "velocity": 82}, {"time": 3112, "pitch": 55, "duration": 6, "velocity": 84}, {"time": 3112, "pitch": 60, "duration": 7, "velocity": 83}, {"time": 3112, "pitch": 63, "duration": 11, "velocity": 82}, {"time": 3118, "pitch": 48, "duration": 8, "velocity": 77}, {"time": 3124, "pitch": 55, "duration": 2, "velocity": 82}, {"time": 3130, "pitch": 48, "duration": 2, "velocity": 95}, {"time": 3130, "pitch": 55, "duration": 4, "velocity": 84}, {"time": 3130, "pitch": 60, "duration": 3, "velocity": 88}, {"time": 3142, "pitch": 36, "duration": 10, "velocity": 83}, {"time": 3142, "pitch": 48, "duration": 10, "velocity": 82}, {"time": 3154, "pitch": 38, "duration": 12, "velocity": 90}, {"time": 3154, "pitch": 50, "duration": 12, "velocity": 90}, {"time": 3166, "pitch": 39, "duration": 8, "velocity": 84}, {"time": 3166, "pitch": 51, "duration": 7, "velocity": 88}, {"time": 3178, "pitch": 41, "duration": 14, "velocity": 81}, {"time": 3178, "pitch": 60, "duration": 8, "velocity": 82}, {"time": 3178, "pitch": 68, "duration": 7, "velocity": 84}, {"time": 3190, "pitch": 60, "duration": 8, "velocity": 83}, {"time": 3190, "pitch": 65, "duration": 11, "velocity": 83}, {"time": 3190, "pitch": 68, "duration": 13, "velocity": 86}, {"time": 3196, "pitch": 48, "duration": 3, "velocity": 76}, {"time": 3202, "pitch": 41, "duration": 8, "velocity": 82}, {"time": 3208, "pitch": 60, "duration": 2, "velocity": 82}, {"time": 3208, "pitch": 65, "duration": 2, "velocity": 82}, {"time": 3208, "pitch": 68, "duration": 3, "velocity": 83}, {"time": 3220, "pitch": 60, "duration": 12, "velocity": 82}, {"time": 3220, "pitch": 65, "duration": 12, "velocity": 82}, {"time": 3220, "pitch": 68, "duration": 12, "velocity": 85}, {"time": 3226, "pitch": 41, "duration": 16, "velocity": 82}, {"time": 3238, "pitch": 60, "duration": 2, "velocity": 81}, {"time": 3238, "pitch": 65, "duration": 15, "velocity": 81}, {"time": 3238, "pitch": 68, "duration": 16, "velocity": 83}, {"time": 3244, "pitch": 60, "duration": 9, "velocity": 83}, {"time": 3250, "pitch": 41, "duration": 13, "velocity": 81}, {"time": 3256, "pitch": 60, "duration": 6, "velocity": 84}, {"time": 3256, "pitch": 65, "duration": 6, "velocity": 83}, {"time": 3256, "pitch": 68, "duration": 6, "velocity": 85}, {"time": 3268, "pitch": 41, "duration": 3, "velocity": 81}, {"time": 3274, "pitch": 39, "duration": 16, "velocity": 86}, {"time": 3274, "pitch": 55, "duration": 9, "velocity": 75}, {"time": 3274, "pitch": 58, "duration": 9, "velocity": 74}, {"time": 3274, "pitch": 63, "duration": 8, "velocity": 68}, {"time": 3286, "pitch": 58, "duration": 14, "velocity": 85}, {"time": 3286, "pitch": 63, "duration": 14, "velocity": 86}, {"time": 3298, "pitch": 39, "duration": 9, "velocity": 82}, {"time": 3304, "pitch": 55, "duration": 6, "velocity": 81}, {"time": 3304, "pitch": 58, "duration": 8, "velocity": 84}, {"time": 3304, "pitch": 63, "duration": 10, "velocity": 84}, {"time": 3310, "pitch": 46, "duration": 2, "velocity": 65}, {"time": 3316, "pitch": 55, "duration": 3, "velocity": 85}, {"time": 3322, "pitch": 46, "duration": 14, "velocity": 79}, {"time": 3322, "pitch": 58, "duration": 9, "velocity": 76}, {"time": 3334, "pitch": 53, "duration": 3, "velocity": 86}, {"time": 3334, "pitch": 58, "duration": 12, "velocity": 88}, {"time": 3334, "pitch": 62, "duration": 11, "velocity": 86}, {"time": 3340, "pitch": 53, "duration": 7, "velocity": 78}, {"time": 3346, "pitch": 46, "duration": 8, "velocity": 83}, {"time": 3352, "pitch": 53, "duration": 5, "velocity": 86}, {"time": 3352, "pitch": 58, "duration": 7, "velocity": 95}, {"time": 3352, "pitch": 62, "duration": 8, "velocity": 84}, {"time": 3358, "pitch": 46, "duration": 2, "velocity": 73}, {"time": 3364, "pitch": 53, "duration": 2, "velocity": 70}, {"time": 3370, "pitch": 41, "duration": 17, "velocity": 83}, {"time": 3370, "pitch": 53, "duration": 6, "velocity": 74}, {"time": 3370, "pitch": 59, "duration": 1, "velocity": 70}, {"time": 3370, "pitch": 60, "duration": 6, "velocity": 72}, {"time": 3382, "pitch": 60, "duration": 4, "velocity": 79}, {"time": 3382, "pitch": 62, "duration": 1, "velocity": 77}, {"time": 3382, "pitch": 65, "duration": 12, "velocity": 83}, {"time": 3388, "pitch": 60, "duration": 6, "velocity": 76}, {"time": 3394, "pitch": 41, "duration": 10, "velocity": 81}, {"time": 3400, "pitch": 60, "duration": 5, "velocity": 87}, {"time": 3400, "pitch": 65, "duration": 6, "velocity": 85}, {"time": 3400, "pitch": 68, "duration": 6, "velocity": 85}, {"time": 3412, "pitch": 60, "duration": 3, "velocity": 86}, {"time": 3418, "pitch": 41, "duration": 17, "velocity": 82}, {"time": 3418, "pitch": 60, "duration": 7, "velocity": 79}, {"time": 3418, "pitch": 65, "duration": 7, "velocity": 79}, {"time": 3430, "pitch": 60, "duration": 14, "velocity": 85}, {"time": 3430, "pitch": 65, "duration": 15, "velocity": 88}, {"time": 3430, "pitch": 68, "duration": 15, "velocity": 86}, {"time": 3436, "pitch": 48, "duration": 1, "velocity": 53}, {"time": 3442, "pitch": 41, "duration": 13, "velocity": 79}, {"time": 3448, "pitch": 60, "duration": 3, "velocity": 87}, {"time": 3448, "pitch": 65, "duration": 2, "velocity": 88}, {"time": 3448, "pitch": 68, "duration": 2, "velocity": 88}, {"time": 3454, "pitch": 48, "duration": 3, "velocity": 76}, {"time": 3460, "pitch": 41, "duration": 2, "velocity": 82}, {"time": 3466, "pitch": 39, "duration": 14, "velocity": 87}, {"time": 3466, "pitch": 55, "duration": 7, "velocity": 79}, {"time": 3466, "pitch": 58, "duration": 7, "velocity": 70}, {"time": 3466, "pitch": 63, "duration": 7, "velocity": 77}, {"time": 3478, "pitch": 55, "duration": 14, "velocity": 82}, {"time": 3478, "pitch": 58, "duration": 14, "velocity": 85}, {"time": 3478, "pitch": 63, "duration": 14, "velocity": 88}, {"time": 3484, "pitch": 46, "duration": 3, "velocity": 62}, {"time": 3490, "pitch": 39, "duration": 8, "velocity": 75}, {"time": 3496, "pitch": 55, "duration": 5, "velocity": 82}, {"time": 3496, "pitch": 58, "duration": 13, "velocity": 86}, {"time": 3496, "pitch": 63, "duration": 12, "velocity": 86}, {"time": 3502, "pitch": 46, "duration": 3, "velocity": 73}, {"time": 3508, "pitch": 55, "duration": 3, "velocity": 78}, {"time": 3514, "pitch": 46, "duration": 18, "velocity": 84}, {"time": 3514, "pitch": 53, "duration": 8, "velocity": 80}, {"time": 3514, "pitch": 58, "duration": 9, "velocity": 77}, {"time": 3514, "pitch": 62, "duration": 8, "velocity": 72}, {"time": 3526, "pitch": 53, "duration": 2, "velocity": 80}, {"time": 3526, "pitch": 58, "duration": 7, "velocity": 82}, {"time": 3526, "pitch": 62, "duration": 7, "velocity": 81}, {"time": 3532, "pitch": 53, "duration": 3, "velocity": 79}, {"time": 3538, "pitch": 47, "duration": 10, "velocity": 88}, {"time": 3538, "pitch": 55, "duration": 9, "velocity": 83}, {"time": 3538, "pitch": 59, "duration": 13, "velocity": 85}, {"time": 3550, "pitch": 43, "duration": 10, "velocity": 85}, {"time": 3550, "pitch": 55, "duration": 10, "velocity": 85}, {"time": 3562, "pitch": 48, "duration": 20, "velocity": 90}, {"time": 3562, "pitch": 55, "duration": 8, "velocity": 82}, {"time": 3562, "pitch": 60, "duration": 8, "velocity": 83}, {"time": 3574, "pitch": 55, "duration": 2, "velocity": 83}, {"time": 3574, "pitch": 60, "duration": 7, "velocity": 86}, {"time": 3574, "pitch": 63, "duration": 10, "velocity": 85}, {"time": 3580, "pitch": 55, "duration": 6, "velocity": 81}, {"time": 3586, "pitch": 43, "duration": 20, "velocity": 82}, {"time": 3592, "pitch": 55, "duration": 5, "velocity": 82}, {"time": 3592, "pitch": 59, "duration": 5, "velocity": 83}, {"time": 3592, "pitch": 62, "duration": 5, "velocity": 81}, {"time": 3598, "pitch": 50, "duration": 7, "velocity": 65}, {"time": 3604, "pitch": 55, "duration": 3, "velocity": 81}, {"time": 3604, "pitch": 59, "duration": 2, "velocity": 82}, {"time": 3604, "pitch": 62, "duration": 3, "velocity": 82}, {"time": 3610, "pitch": 48, "duration": 23, "velocity": 82}, {"time": 3610, "pitch": 55, "duration": 8, "velocity": 81}, {"time": 3610, "pitch": 60, "duration": 8, "velocity": 82}, {"time": 3622, "pitch": 55, "duration": 1, "velocity": 81}, {"time": 3622, "pitch": 60, "duration": 12, "velocity": 86}, {"time": 3622, "pitch": 63, "duration": 12, "velocity": 87}, {"time": 3628, "pitch": 55, "duration": 9, "velocity": 82}, {"time": 3634, "pitch": 43, "duration": 10, "velocity": 82}, {"time": 3640, "pitch": 55, "duration": 3, "velocity": 82}, {"time": 3640, "pitch": 59, "duration": 3, "velocity": 82}, {"time": 3640, "pitch": 62, "duration": 3, "velocity": 82}, {"time": 3652, "pitch": 55, "duration": 2, "velocity": 80}, {"time": 3652, "pitch": 59, "duration": 2, "velocity": 82}, {"time": 3652, "pitch": 62, "duration": 3, "velocity": 82}, {"time": 3658, "pitch": 48, "duration": 21, "velocity": 82}, {"time": 3658, "pitch": 55, "duration": 8, "velocity": 82}, {"time": 3658, "pitch": 60, "duration": 8, "velocity": 82}, {"time": 3670, "pitch": 55, "duration": 1, "velocity": 80}, {"time": 3670, "pitch": 60, "duration": 7, "velocity": 87}, {"time": 3670, "pitch": 63, "duration": 7, "velocity": 84}, {"time": 3676, "pitch": 55, "duration": 2, "velocity": 80}, {"time": 3682, "pitch": 43, "duration": 9, "velocity": 82}, {"time": 3682, "pitch": 55, "duration": 3, "velocity": 75}, {"time": 3682, "pitch": 59, "duration": 3, "velocity": 79}, {"time": 3688, "pitch": 55, "duration": 7, "velocity": 82}, {"time": 3688, "pitch": 59, "duration": 7, "velocity": 83}, {"time": 3688, "pitch": 62, "duration": 7, "velocity": 85}, {"time": 3694, "pitch": 50, "duration": 7, "velocity": 73}, {"time": 3700, "pitch": 55, "duration": 2, "velocity": 81}, {"time": 3700, "pitch": 59, "duration": 2, "velocity": 71}, {"time": 3700, "pitch": 62, "duration": 2, "velocity": 81}, {"time": 3706, "pitch": 48, "duration": 21, "velocity": 82}, {"time": 3706, "pitch": 55, "duration": 8, "velocity": 80}, {"time": 3706, "pitch": 60, "duration": 8, "velocity": 80}, {"time": 3718, "pitch": 55, "duration": 2, "velocity": 81}, {"time": 3718, "pitch": 60, "duration": 14, "velocity": 85}, {"time": 3718, "pitch": 63, "duration": 14, "velocity": 84}, {"time": 3724, "pitch": 55, "duration": 8, "velocity": 79}, {"time": 3730, "pitch": 43, "duration": 9, "velocity": 82}, {"time": 3736, "pitch": 55, "duration": 2, "velocity": 83}, {"time": 3736, "pitch": 60, "duration": 2, "velocity": 85}, {"time": 3736, "pitch": 63, "duration": 3, "velocity": 88}, {"time": 3748, "pitch": 43, "duration": 5, "velocity": 83}, {"time": 3748, "pitch": 55, "duration": 4, "velocity": 77}, {"time": 3748, "pitch": 60, "duration": 3, "velocity": 78}, {"time": 3748, "pitch": 63, "duration": 4, "velocity": 77}, {"time": 3754, "pitch": 48, "duration": 20, "velocity": 90}, {"time": 3754, "pitch": 55, "duration": 8, "velocity": 82}, {"time": 3754, "pitch": 60, "duration": 8, "velocity": 83}, {"time": 3766, "pitch": 55, "duration": 2, "velocity": 83}, {"time": 3766, "pitch": 60, "duration": 7, "velocity": 86}, {"time": 3766, "pitch": 63, "duration": 10, "velocity": 85}, {"time": 3772, "pitch": 55, "duration": 6, "velocity": 81}, {"time": 3778, "pitch": 43, "duration": 20, "velocity": 82}, {"time": 3784, "pitch": 55, "duration": 5, "velocity": 82}, {"time": 3784, "pitch": 59, "duration": 5, "velocity": 83}, {"time": 3784, "pitch": 62, "duration": 5, "velocity": 81}, {"time": 3790, "pitch": 50, "duration": 7, "velocity": 65}, {"time": 3796, "pitch": 55, "duration": 3, "velocity": 81}, {"time": 3796, "pitch": 59, "duration": 2, "velocity": 82}, {"time": 3796, "pitch": 62, "duration": 3, "velocity": 82}, {"time": 3802, "pitch": 48, "duration": 23, "velocity": 82}, {"time": 3802, "pitch": 55, "duration": 8, "velocity": 81}, {"time": 3802, "pitch": 60, "duration": 8, "velocity": 82}, {"time": 3814, "pitch": 55, "duration": 1, "velocity": 81}, {"time": 3814, "pitch": 60, "duration": 12, "velocity": 86}, {"time": 3814, "pitch": 63, "duration": 12, "velocity": 87}, {"time": 3820, "pitch": 55, "duration": 9, "velocity": 82}, {"time": 3826, "pitch": 43, "duration": 10, "velocity": 82}, {"time": 3832, "pitch": 55, "duration": 3, "velocity": 82}, {"time": 3832, "pitch": 59, "duration": 3, "velocity": 82}, {"time": 3832, "pitch": 62, "duration": 3, "velocity": 82}, {"time": 3844, "pitch": 55, "duration": 2, "velocity": 80}, {"time": 3844, "pitch": 59, "duration": 2, "velocity": 82}, {"time": 3844, "pitch": 62, "duration": 3, "velocity": 82}, {"time": 3850, "pitch": 48, "duration": 21, "velocity": 82}, {"time": 3850, "pitch": 55, "duration": 8, "velocity": 82}, {"time": 3850, "pitch": 60, "duration": 8, "velocity": 82}, {"time": 3862, "pitch": 55, "duration": 1, "velocity": 80}, {"time": 3862, "pitch": 60, "duration": 7, "velocity": 87}, {"time": 3862, "pitch": 63, "duration": 7, "velocity": 84}, {"time": 3868, "pitch": 55, "duration": 2, "velocity": 80}, {"time": 3874, "pitch": 43, "duration": 9, "velocity": 82}, {"time": 3874, "pitch": 55, "duration": 3, "velocity": 75}, {"time": 3874, "pitch": 59, "duration": 3, "velocity": 79}, {"time": 3880, "pitch": 55, "duration": 7, "velocity": 82}, {"time": 3880, "pitch": 59, "duration": 7, "velocity": 83}, {"time": 3880, "pitch": 62, "duration": 7, "velocity": 85}, {"time": 3886, "pitch": 50, "duration": 7, "velocity": 73}, {"time": 3892, "pitch": 55, "duration": 2, "velocity": 81}, {"time": 3892, "pitch": 59, "duration": 2, "velocity": 71}, {"time": 3892, "pitch": 62, "duration": 2, "velocity": 81}, {"time": 3898, "pitch": 48, "duration": 21, "velocity": 82}, {"time": 3898, "pitch": 55, "duration": 8, "velocity": 80}, {"time": 3898, "pitch": 60, "duration": 8, "velocity": 80}, {"time": 3910, "pitch": 55, "duration": 2, "velocity": 81}, {"time": 3910, "pitch": 60, "duration": 14, "velocity": 85}, {"time": 3910, "pitch": 63, "duration": 14, "velocity": 84}, {"time": 3916, "pitch": 55, "duration": 8, "velocity": 79}, {"time": 3922, "pitch": 43, "duration": 9, "velocity": 82}, {"time": 3928, "pitch": 55, "duration": 2, "velocity": 83}, {"time": 3928, "pitch": 60, "duration": 2, "velocity": 85}, {"time": 3928, "pitch": 63, "duration": 3, "velocity": 88}, {"time": 3940, "pitch": 43, "duration": 5, "velocity": 83}, {"time": 3940, "pitch": 55, "duration": 4, "velocity": 77}, {"time": 3940, "pitch": 60, "duration": 3, "velocity": 78}, {"time": 3940, "pitch": 63, "duration": 4, "velocity": 77}, {"time": 3946, "pitch": 48, "duration": 20, "velocity": 90}, {"time": 3946, "pitch": 55, "duration": 8, "velocity": 82}, {"time": 3946, "pitch": 60, "duration": 8, "velocity": 83}, {"time": 3958, "pitch": 55, "duration": 2, "velocity": 83}, {"time": 3958, "pitch": 60, "duration": 7, "velocity": 86}, {"time": 3958, "pitch": 63, "duration": 10, "velocity": 85}, {"time": 3964, "pitch": 55, "duration": 6, "velocity": 81}, {"time": 3970, "pitch": 43, "duration": 20, "velocity": 82}, {"time": 3976, "pitch": 55, "duration": 5, "velocity": 82}, {"time": 3976, "pitch": 59, "duration": 5, "velocity": 83}, {"time": 3976, "pitch": 62, "duration": 5, "velocity": 81}, {"time": 3982, "pitch": 50, "duration": 7, "velocity": 65}, {"time": 3988, "pitch": 55, "duration": 3, "velocity": 81}, {"time": 3988, "pitch": 59, "duration": 2, "velocity": 82}, {"time": 3988, "pitch": 62, "duration": 3, "velocity": 82}, {"time": 3994, "pitch": 48, "duration": 23, "velocity": 82}, {"time": 3994, "pitch": 55, "duration": 8, "velocity": 81}, {"time": 3994, "pitch": 60, "duration": 8, "velocity": 82}, {"time": 4006, "pitch": 55, "duration": 1, "velocity": 81}, {"time": 4006, "pitch": 60, "duration": 12, "velocity": 86}, {"time": 4006, "pitch": 63, "duration": 12, "velocity": 87}, {"time": 4012, "pitch": 55, "duration": 9, "velocity": 82}, {"time": 4018, "pitch": 43, "duration": 10, "velocity": 82}, {"time": 4024, "pitch": 55, "duration": 3, "velocity": 82}, {"time": 4024, "pitch": 59, "duration": 3, "velocity": 82}, {"time": 4024, "pitch": 62, "duration": 3, "velocity": 82}, {"time": 4036, "pitch": 55, "duration": 2, "velocity": 80}, {"time": 4036, "pitch": 59, "duration": 2, "velocity": 82}, {"time": 4036, "pitch": 62, "duration": 3, "velocity": 82}, {"time": 4042, "pitch": 48, "duration": 21, "velocity": 82}, {"time": 4042, "pitch": 55, "duration": 8, "velocity": 82}, {"time": 4042, "pitch": 60, "duration": 8, "velocity": 82}, {"time": 4054, "pitch": 55, "duration": 1, "velocity": 80}, {"time": 4054, "pitch": 60, "duration": 7, "velocity": 87}, {"time": 4054, "pitch": 63, "duration": 7, "velocity": 84}, {"time": 4060, "pitch": 55, "duration": 2, "velocity": 80}, {"time": 4066, "pitch": 43, "duration": 9, "velocity": 82}, {"time": 4066, "pitch": 55, "duration": 3, "velocity": 75}, {"time": 4066, "pitch": 59, "duration": 3, "velocity": 79}, {"time": 4072, "pitch": 55, "duration": 7, "velocity": 82}, {"time": 4072, "pitch": 59, "duration": 7, "velocity": 83}, {"time": 4072, "pitch": 62, "duration": 7, "velocity": 85}, {"time": 4078, "pitch": 50, "duration": 7, "velocity": 73}, {"time": 4084, "pitch": 55, "duration": 2, "velocity": 81}, {"time": 4084, "pitch": 59, "duration": 2, "velocity": 71}, {"time": 4084, "pitch": 62, "duration": 2, "velocity": 81}, {"time": 4090, "pitch": 48, "duration": 21, "velocity": 82}, {"time": 4090, "pitch": 55, "duration": 8, "velocity": 80}, {"time": 4090, "pitch": 60, "duration": 8, "velocity": 80}, {"time": 4102, "pitch": 55, "duration": 2, "velocity": 81}, {"time": 4102, "pitch": 60, "duration": 14, "velocity": 85}, {"time": 4102, "pitch": 63, "duration": 14, "velocity": 84}, {"time": 4108, "pitch": 55, "duration": 8, "velocity": 79}, {"time": 4114, "pitch": 43, "duration": 9, "velocity": 82}, {"time": 4120, "pitch": 55, "duration": 2, "velocity": 83}, {"time": 4120, "pitch": 60, "duration": 2, "velocity": 85}, {"time": 4120, "pitch": 63, "duration": 3, "velocity": 88}, {"time": 4132, "pitch": 43, "duration": 5, "velocity": 83}, {"time": 4132, "pitch": 55, "duration": 4, "velocity": 77}, {"time": 4132, "pitch": 60, "duration": 3, "velocity": 78}, {"time": 4132, "pitch": 63, "duration": 4, "velocity": 77}, {"time": 4138, "pitch": 48, "duration": 20, "velocity": 90}, {"time": 4138, "pitch": 55, "duration": 8, "velocity": 82}, {"time": 4138, "pitch": 60, "duration": 8, "velocity": 83}, {"time": 4150, "pitch": 55, "duration": 2, "velocity": 83}, {"time": 4150, "pitch": 60, "duration": 7, "velocity": 86}, {"time": 4150, "pitch": 63, "duration": 10, "velocity": 85}, {"time": 4156, "pitch": 55, "duration": 6, "velocity": 81}, {"time": 4162, "pitch": 43, "duration": 20, "velocity": 82}, {"time": 4168, "pitch": 55, "duration": 5, "velocity": 82}, {"time": 4168, "pitch": 59, "duration": 5, "velocity": 83}, {"time": 4168, "pitch": 62, "duration": 5, "velocity": 81}, {"time": 4174, "pitch": 50, "duration": 7, "velocity": 65}, {"time": 4180, "pitch": 55, "duration": 3, "velocity": 81}, {"time": 4180, "pitch": 59, "duration": 2, "velocity": 82}, {"time": 4180, "pitch": 62, "duration": 3, "velocity": 82}, {"time": 4186, "pitch": 48, "duration": 23, "velocity": 82}, {"time": 4186, "pitch": 55, "duration": 8, "velocity": 81}, {"time": 4186, "pitch": 60, "duration": 8, "velocity": 82}, {"time": 4198, "pitch": 55, "duration": 1, "velocity": 81}, {"time": 4198, "pitch": 60, "duration": 12, "velocity": 86}, {"time": 4198, "pitch": 63, "duration": 12, "velocity": 87}, {"time": 4204, "pitch": 55, "duration": 9, "velocity": 82}, {"time": 4210, "pitch": 43, "duration": 10, "velocity": 82}, {"time": 4216, "pitch": 55, "duration": 3, "velocity": 82}, {"time": 4216, "pitch": 59, "duration": 3, "velocity": 82}, {"time": 4216, "pitch": 62, "duration": 3, "velocity": 82}, {"time": 4228, "pitch": 55, "duration": 2, "velocity": 80}, {"time": 4228, "pitch": 59, "duration": 2, "velocity": 82}, {"time": 4228, "pitch": 62, "duration": 3, "velocity": 82}, {"time": 4234, "pitch": 48, "duration": 21, "velocity": 82}, {"time": 4234, "pitch": 55, "duration": 8, "velocity": 82}, {"time": 4234, "pitch": 60, "duration": 8, "velocity": 82}, {"time": 4246, "pitch": 55, "duration": 1, "velocity": 80}, {"time": 4246, "pitch": 60, "duration": 7, "velocity": 87}, {"time": 4246, "pitch": 63, "duration": 7, "velocity": 84}, {"time": 4252, "pitch": 55, "duration": 2, "velocity": 80}, {"time": 4258, "pitch": 43, "duration": 9, "velocity": 82}, {"time": 4258, "pitch": 55, "duration": 3, "velocity": 75}, {"time": 4258, "pitch": 59, "duration": 3, "velocity": 79}, {"time": 4264, "pitch": 55, "duration": 7, "velocity": 82}, {"time": 4264, "pitch": 59, "duration": 7, "velocity": 83}, {"time": 4264, "pitch": 62, "duration": 7, "velocity": 85}, {"time": 4270, "pitch": 50, "duration": 7, "velocity": 73}, {"time": 4276, "pitch": 55, "duration": 2, "velocity": 81}, {"time": 4276, "pitch": 59, "duration": 2, "velocity": 71}, {"time": 4276, "pitch": 62, "duration": 2, "velocity": 81}, {"time": 4282, "pitch": 48, "duration": 2, "velocity": 95}, {"time": 4282, "pitch": 55, "duration": 4, "velocity": 84}, {"time": 4282, "pitch": 60, "duration": 3, "velocity": 88}, {"time": 4294, "pitch": 36, "duration": 10, "velocity": 83}, {"time": 4294, "pitch": 48, "duration": 10, "velocity": 82}, {"time": 4306, "pitch": 38, "duration": 12, "velocity": 90}, {"time": 4306, "pitch": 50, "duration": 12, "velocity": 90}, {"time": 4318, "pitch": 39, "duration": 8, "velocity": 84}, {"time": 4318, "pitch": 51, "duration": 7, "velocity": 88}, {"time": 4330, "pitch": 41, "duration": 14, "velocity": 81}, {"time": 4330, "pitch": 60, "duration": 8, "velocity": 82}, {"time": 4330, "pitch": 68, "duration": 7, "velocity": 84}, {"time": 4342, "pitch": 60, "duration": 8, "velocity": 83}, {"time": 4342, "pitch": 65, "duration": 11, "velocity": 83}, {"time": 4342, "pitch": 68, "duration": 13, "velocity": 86}, {"time": 4348, "pitch": 48, "duration": 3, "velocity": 76}, {"time": 4354, "pitch": 41, "duration": 8, "velocity": 82}, {"time": 4360, "pitch": 60, "duration": 2, "velocity": 82}, {"time": 4360, "pitch": 65, "duration": 2, "velocity": 82}, {"time": 4360, "pitch": 68, "duration": 3, "velocity": 83}, {"time": 4372, "pitch": 60, "duration": 12, "velocity": 82}, {"time": 4372, "pitch": 65, "duration": 12, "velocity": 82}, {"time": 4372, "pitch": 68, "duration": 12, "velocity": 85}, {"time": 4378, "pitch": 41, "duration": 16, "velocity": 82}, {"time": 4390, "pitch": 60, "duration": 2, "velocity": 81}, {"time": 4390, "pitch": 65, "duration": 15, "velocity": 81}, {"time": 4390, "pitch": 68, "duration": 16, "velocity": 83}, {"time": 4396, "pitch": 60, "duration": 9, "velocity": 83}, {"time": 4402, "pitch": 41, "duration": 13, "velocity": 81}, {"time": 4408, "pitch": 60, "duration": 6, "velocity": 84}, {"time": 4408, "pitch": 65, "duration": 6, "velocity": 83}, {"time": 4408, "pitch": 68, "duration": 6, "velocity": 85}, {"time": 4420, "pitch": 41, "duration": 3, "velocity": 81}, {"time": 4426, "pitch": 39, "duration": 16, "velocity": 86}, {"time": 4426, "pitch": 55, "duration": 9, "velocity": 75}, {"time": 4426, "pitch": 58, "duration": 9, "velocity": 74}, {"time": 4426, "pitch": 63, "duration": 8, "velocity": 68}, {"time": 4438, "pitch": 58, "duration": 14, "velocity": 85}, {"time": 4438, "pitch": 63, "duration": 14, "velocity": 86}, {"time": 4450, "pitch": 39, "duration": 9, "velocity": 82}, {"time": 4456, "pitch": 55, "duration": 6, "velocity": 81}, {"time": 4456, "pitch": 58, "duration": 8, "velocity": 84}, {"time": 4456, "pitch": 63, "duration": 10, "velocity": 84}, {"time": 4462, "pitch": 46, "duration": 2, "velocity": 65}, {"time": 4468, "pitch": 55, "duration": 3, "velocity": 85}, {"time": 4474, "pitch": 46, "duration": 14, "velocity": 79}, {"time": 4474, "pitch": 58, "duration": 9, "velocity": 76}, {"time": 4486, "pitch": 53, "duration": 3, "velocity": 86}, {"time": 4486, "pitch": 58, "duration": 12, "velocity": 88}, {"time": 4486, "pitch": 62, "duration": 11, "velocity": 86}, {"time": 4492, "pitch": 53, "duration": 7, "velocity": 78}, {"time": 4498, "pitch": 46, "duration": 8, "velocity": 83}, {"time": 4504, "pitch": 53, "duration": 5, "velocity": 86}, {"time": 4504, "pitch": 58, "duration": 7, "velocity": 95}, {"time": 4504, "pitch": 62, "duration": 8, "velocity": 84}, {"time": 4510, "pitch": 46, "duration": 2, "velocity": 73}, {"time": 4516, "pitch": 53, "duration": 2, "velocity": 70}, {"time": 4522, "pitch": 41, "duration": 17, "velocity": 83}, {"time": 4522, "pitch": 53, "duration": 6, "velocity": 74}, {"time": 4522, "pitch": 59, "duration": 1, "velocity": 70}, {"time": 4522, "pitch": 60, "duration": 6, "velocity": 72}, {"time": 4534, "pitch": 60, "duration": 4, "velocity": 79}, {"time": 4534, "pitch": 62, "duration": 1, "velocity": 77}, {"time": 4534, "pitch": 65, "duration": 12, "velocity": 83}, {"time": 4540, "pitch": 60, "duration": 6, "velocity": 76}, {"time": 4546, "pitch": 41, "duration": 10, "velocity": 81}, {"time": 4552, "pitch": 60, "duration": 5, "velocity": 87}, {"time": 4552, "pitch": 65, "duration": 6, "velocity": 85}, {"time": 4552, "pitch": 68, "duration": 6, "velocity": 85}, {"time": 4564, "pitch": 60, "duration": 3, "velocity": 86}, {"time": 4570, "pitch": 41, "duration": 17, "velocity": 82}, {"time": 4570, "pitch": 60, "duration": 7, "velocity": 79}, {"time": 4570, "pitch": 65, "duration": 7, "velocity": 79}, {"time": 4582, "pitch": 60, "duration": 14, "velocity": 85}, {"time": 4582, "pitch": 65, "duration": 15, "velocity": 88}, {"time": 4582, "pitch": 68, "duration": 15, "velocity": 86}, {"time": 4588, "pitch": 48, "duration": 1, "velocity": 53}, {"time": 4594, "pitch": 41, "duration": 13, "velocity": 79}, {"time": 4600, "pitch": 60, "duration": 3, "velocity": 87}, {"time": 4600, "pitch": 65, "duration": 2, "velocity": 88}, {"time": 4600, "pitch": 68, "duration": 2, "velocity": 88}, {"time": 4606, "pitch": 48, "duration": 3, "velocity": 76}, {"time": 4612, "pitch": 41, "duration": 2, "velocity": 82}, {"time": 4618, "pitch": 39, "duration": 14, "velocity": 87}, {"time": 4618, "pitch": 55, "duration": 7, "velocity": 79}, {"time": 4618, "pitch": 58, "duration": 7, "velocity": 70}, {"time": 4618, "pitch": 63, "duration": 7, "velocity": 77}, {"time": 4630, "pitch": 55, "duration": 14, "velocity": 82}, {"time": 4630, "pitch": 58, "duration": 14, "velocity": 85}, {"time": 4630, "pitch": 63, "duration": 14, "velocity": 88}, {"time": 4636, "pitch": 46, "duration": 3, "velocity": 62}, {"time": 4642, "pitch": 39, "duration": 8, "velocity": 75}, {"time": 4648, "pitch": 55, "duration": 5, "velocity": 82}, {"time": 4648, "pitch": 58, "duration": 13, "velocity": 86}, {"time": 4648, "pitch": 63, "duration": 12, "velocity": 86}, {"time": 4654, "pitch": 46, "duration": 3, "velocity": 73}, {"time": 4660, "pitch": 55, "duration": 3, "velocity": 78}, {"time": 4666, "pitch": 46, "duration": 18, "velocity": 84}, {"time": 4666, "pitch": 53, "duration": 8, "velocity": 80}, {"time": 4666, "pitch": 58, "duration": 9, "velocity": 77}, {"time": 4666, "pitch": 62, "duration": 8, "velocity": 72}, {"time": 4678, "pitch": 53, "duration": 2, "velocity": 80}, {"time": 4678, "pitch": 58, "duration": 7, "velocity": 82}, {"time": 4678, "pitch": 62, "duration": 7, "velocity": 81}, {"time": 4684, "pitch": 53, "duration": 3, "velocity": 79}, {"time": 4690, "pitch": 47, "duration": 10, "velocity": 88}, {"time": 4690, "pitch": 55, "duration": 9, "velocity": 83}, {"time": 4690, "pitch": 59, "duration": 13, "velocity": 85}, {"time": 4702, "pitch": 43, "duration": 10, "velocity": 85}, {"time": 4702, "pitch": 55, "duration": 10, "velocity": 85}, {"time": 4714, "pitch": 48, "duration": 20, "velocity": 90}, {"time": 4714, "pitch": 55, "duration": 8, "velocity": 82}, {"time": 4714, "pitch": 60, "duration": 8, "velocity": 83}, {"time": 4726, "pitch": 55, "duration": 2, "velocity": 83}, {"time": 4726, "pitch": 60, "duration": 7, "velocity": 86}, {"time": 4726, "pitch": 63, "duration": 10, "velocity": 85}, {"time": 4732, "pitch": 55, "duration": 6, "velocity": 81}, {"time": 4738, "pitch": 43, "duration": 20, "velocity": 82}, {"time": 4744, "pitch": 55, "duration": 5, "velocity": 82}, {"time": 4744, "pitch": 59, "duration": 5, "velocity": 83}, {"time": 4744, "pitch": 62, "duration": 5, "velocity": 81}, {"time": 4750, "pitch": 50, "duration": 7, "velocity": 65}, {"time": 4756, "pitch": 55, "duration": 3, "velocity": 81}, {"time": 4756, "pitch": 59, "duration": 2, "velocity": 82}, {"time": 4756, "pitch": 62, "duration": 3, "velocity": 82}, {"time": 4762, "pitch": 48, "duration": 23, "velocity": 82}, {"time": 4762, "pitch": 55, "duration": 8, "velocity": 81}, {"time": 4762, "pitch": 60, "duration": 8, "velocity": 82}, {"time": 4774, "pitch": 55, "duration": 1, "velocity": 81}, {"time": 4774, "pitch": 60, "duration": 12, "velocity": 86}, {"time": 4774, "pitch": 63, "duration": 12, "velocity": 87}, {"time": 4780, "pitch": 55, "duration": 9, "velocity": 82}, {"time": 4786, "pitch": 43, "duration": 10, "velocity": 82}, {"time": 4792, "pitch": 55, "duration": 3, "velocity": 82}, {"time": 4792, "pitch": 59, "duration": 3, "velocity": 82}, {"time": 4792, "pitch": 62, "duration": 3, "velocity": 82}, {"time": 4804, "pitch": 55, "duration": 2, "velocity": 80}, {"time": 4804, "pitch": 59, "duration": 2, "velocity": 82}, {"time": 4804, "pitch": 62, "duration": 3, "velocity": 82}, {"time": 4810, "pitch": 48, "duration": 21, "velocity": 82}, {"time": 4810, "pitch": 55, "duration": 8, "velocity": 82}, {"time": 4810, "pitch": 60, "duration": 8, "velocity": 82}, {"time": 4822, "pitch": 55, "duration": 1, "velocity": 80}, {"time": 4822, "pitch": 60, "duration": 7, "velocity": 87}, {"time": 4822, "pitch": 63, "duration": 7, "velocity": 84}, {"time": 4828, "pitch": 55, "duration": 2, "velocity": 80}, {"time": 4834, "pitch": 43, "duration": 9, "velocity": 82}, {"time": 4834, "pitch": 55, "duration": 3, "velocity": 75}, {"time": 4834, "pitch": 59, "duration": 3, "velocity": 79}, {"time": 4840, "pitch": 55, "duration": 7, "velocity": 82}, {"time": 4840, "pitch": 59, "duration": 7, "velocity": 83}, {"time": 4840, "pitch": 62, "duration": 7, "velocity": 85}, {"time": 4846, "pitch": 50, "duration": 7, "velocity": 73}, {"time": 4852, "pitch": 55, "duration": 2, "velocity": 81}, {"time": 4852, "pitch": 59, "duration": 2, "velocity": 71}, {"time": 4852, "pitch": 62, "duration": 2, "velocity": 81}, {"time": 4858, "pitch": 48, "duration": 21, "velocity": 82}, {"time": 4858, "pitch": 55, "duration": 8, "velocity": 80}, {"time": 4858, "pitch": 60, "duration": 8, "velocity": 80}, {"time": 4870, "pitch": 55, "duration": 2, "velocity": 81}, {"time": 4870, "pitch": 60, "duration": 14, "velocity": 85}, {"time": 4870, "pitch": 63, "duration": 14, "velocity": 84}, {"time": 4876, "pitch": 55, "duration": 8, "velocity": 79}, {"time": 4882, "pitch": 43, "duration": 9, "velocity": 82}, {"time": 4888, "pitch": 55, "duration": 2, "velocity": 83}, {"time": 4888, "pitch": 60, "duration": 2, "velocity": 85}, {"time": 4888, "pitch": 63, "duration": 3, "velocity": 88}, {"time": 4900, "pitch": 43, "duration": 5, "velocity": 83}, {"time": 4900, "pitch": 55, "duration": 4, "velocity": 77}, {"time": 4900, "pitch": 60, "duration": 3, "velocity": 78}, {"time": 4900, "pitch": 63, "duration": 4, "velocity": 77}, {"time": 4906, "pitch": 48, "duration": 20, "velocity": 90}, {"time": 4906, "pitch": 55, "duration": 8, "velocity": 82}, {"time": 4906, "pitch": 60, "duration": 8, "velocity": 83}, {"time": 4918, "pitch": 55, "duration": 2, "velocity": 83}, {"time": 4918, "pitch": 60, "duration": 7, "velocity": 86}, {"time": 4918, "pitch": 63, "duration": 10, "velocity": 85}, {"time": 4924, "pitch": 55, "duration": 6, "velocity": 81}, {"time": 4930, "pitch": 43, "duration": 20, "velocity": 82}, {"time": 4936, "pitch": 55, "duration": 5, "velocity": 82}, {"time": 4936, "pitch": 59, "duration": 5, "velocity": 83}, {"time": 4936, "pitch": 62, "duration": 5, "velocity": 81}, {"time": 4942, "pitch": 50, "duration": 7, "velocity": 65}, {"time": 4948, "pitch": 55, "duration": 3, "velocity": 81}, {"time": 4948, "pitch": 59, "duration": 2, "velocity": 82}, {"time": 4948, "pitch": 62, "duration": 3, "velocity": 82}, {"time": 4954, "pitch": 48, "duration": 23, "velocity": 82}, {"time": 4954, "pitch": 55, "duration": 8, "velocity": 81}, {"time": 4954, "pitch": 60, "duration": 8, "velocity": 82}, {"time": 4966, "pitch": 55, "duration": 1, "velocity": 81}, {"time": 4966, "pitch": 60, "duration": 12, "velocity": 86}, {"time": 4966, "pitch": 63, "duration": 12, "velocity": 87}, {"time": 4972, "pitch": 55, "duration": 9, "velocity": 82}, {"time": 4978, "pitch": 43, "duration": 10, "velocity": 82}, {"time": 4984, "pitch": 55, "duration": 3, "velocity": 82}, {"time": 4984, "pitch": 59, "duration": 3, "velocity": 82}, {"time": 4984, "pitch": 62, "duration": 3, "velocity": 82}, {"time": 4996, "pitch": 55, "duration": 2, "velocity": 80}, {"time": 4996, "pitch": 59, "duration": 2, "velocity": 82}, {"time": 4996, "pitch": 62, "duration": 3, "velocity": 82}, {"time": 5002, "pitch": 48, "duration": 21, "velocity": 82}, {"time": 5002, "pitch": 55, "duration": 8, "velocity": 82}, {"time": 5002, "pitch": 60, "duration": 8, "velocity": 82}, {"time": 5014, "pitch": 55, "duration": 1, "velocity": 80}, {"time": 5014, "pitch": 60, "duration": 7, "velocity": 87}, {"time": 5014, "pitch": 63, "duration": 7, "velocity": 84}, {"time": 5020, "pitch": 55, "duration": 2, "velocity": 80}, {"time": 5026, "pitch": 43, "duration": 9, "velocity": 82}, {"time": 5026, "pitch": 55, "duration": 3, "velocity": 75}, {"time": 5026, "pitch": 59, "duration": 3, "velocity": 79}, {"time": 5032, "pitch": 55, "duration": 7, "velocity": 82}, {"time": 5032, "pitch": 59, "duration": 7, "velocity": 83}, {"time": 5032, "pitch": 62, "duration": 7, "velocity": 85}, {"time": 5038, "pitch": 50, "duration": 7, "velocity": 73}, {"time": 5044, "pitch": 55, "duration": 2, "velocity": 81}, {"time": 5044, "pitch": 59, "duration": 2, "velocity": 71}, {"time": 5044, "pitch": 62, "duration": 2, "velocity": 81}, {"time": 5050, "pitch": 48, "duration": 21, "velocity": 82}, {"time": 5050, "pitch": 55, "duration": 8, "velocity": 80}, {"time": 5050, "pitch": 60, "duration": 8, "velocity": 80}, {"time": 5062, "pitch": 55, "duration": 2, "velocity": 81}, {"time": 5062, "pitch": 60, "duration": 14, "velocity": 85}, {"time": 5062, "pitch": 63, "duration": 14, "velocity": 84}, {"time": 5068, "pitch": 55, "duration": 8, "velocity": 79}, {"time": 5074, "pitch": 43, "duration": 9, "velocity": 82}, {"time": 5080, "pitch": 55, "duration": 2, "velocity": 83}, {"time": 5080, "pitch": 60, "duration": 2, "velocity": 85}, {"time": 5080, "pitch": 63, "duration": 3, "velocity": 88}, {"time": 5092, "pitch": 43, "duration": 5, "velocity": 83}, {"time": 5092, "pitch": 55, "duration": 4, "velocity": 77}, {"time": 5092, "pitch": 60, "duration": 3, "velocity": 78}, {"time": 5092, "pitch": 63, "duration": 4, "velocity": 77}, {"time": 5098, "pitch": 48, "duration": 20, "velocity": 90}, {"time": 5098, "pitch": 55, "duration": 8, "velocity": 82}, {"time": 5098, "pitch": 60, "duration": 8, "velocity": 83}, {"time": 5110, "pitch": 55, "duration": 2, "velocity": 83}, {"time": 5110, "pitch": 60, "duration": 7, "velocity": 86}, {"time": 5110, "pitch": 63, "duration": 10, "velocity": 85}, {"time": 5116, "pitch": 55, "duration": 6, "velocity": 81}, {"time": 5122, "pitch": 43, "duration": 20, "velocity": 82}, {"time": 5128, "pitch": 55, "duration": 5, "velocity": 82}, {"time": 5128, "pitch": 59, "duration": 5, "velocity": 83}, {"time": 5128, "pitch": 62, "duration": 5, "velocity": 81}, {"time": 5134, "pitch": 50, "duration": 7, "velocity": 65}, {"time": 5140, "pitch": 55, "duration": 3, "velocity": 81}, {"time": 5140, "pitch": 59, "duration": 2, "velocity": 82}, {"time": 5140, "pitch": 62, "duration": 3, "velocity": 82}, {"time": 5146, "pitch": 48, "duration": 23, "velocity": 82}, {"time": 5146, "pitch": 55, "duration": 8, "velocity": 81}, {"time": 5146, "pitch": 60, "duration": 8, "velocity": 82}, {"time": 5158, "pitch": 55, "duration": 1, "velocity": 81}, {"time": 5158, "pitch": 60, "duration": 12, "velocity": 86}, {"time": 5158, "pitch": 63, "duration": 12, "velocity": 87}, {"time": 5164, "pitch": 55, "duration": 9, "velocity": 82}, {"time": 5170, "pitch": 43, "duration": 10, "velocity": 82}, {"time": 5176, "pitch": 55, "duration": 3, "velocity": 82}, {"time": 5176, "pitch": 59, "duration": 3, "velocity": 82}, {"time": 5176, "pitch": 62, "duration": 3, "velocity": 82}, {"time": 5188, "pitch": 55, "duration": 2, "velocity": 80}, {"time": 5188, "pitch": 59, "duration": 2, "velocity": 82}, {"time": 5188, "pitch": 62, "duration": 3, "velocity": 82}, {"time": 5194, "pitch": 48, "duration": 21, "velocity": 82}, {"time": 5194, "pitch": 55, "duration": 8, "velocity": 82}, {"time": 5194, "pitch": 60, "duration": 8, "velocity": 82}, {"time": 5206, "pitch": 55, "duration": 1, "velocity": 80}, {"time": 5206, "pitch": 60, "duration": 7, "velocity": 87}, {"time": 5206, "pitch": 63, "duration": 7, "velocity": 84}, {"time": 5212, "pitch": 55, "duration": 2, "velocity": 80}, {"time": 5218, "pitch": 43, "duration": 9, "velocity": 82}, {"time": 5218, "pitch": 55, "duration": 3, "velocity": 75}, {"time": 5218, "pitch": 59, "duration": 3, "velocity": 79}, {"time": 5224, "pitch": 55, "duration": 7, "velocity": 82}, {"time": 5224, "pitch": 59, "duration": 7, "velocity": 83}, {"time": 5224, "pitch": 62, "duration": 7, "velocity": 85}, {"time": 5230, "pitch": 50, "duration": 7, "velocity": 73}, {"time": 5236, "pitch": 55, "duration": 2, "velocity": 81}, {"time": 5236, "pitch": 59, "duration": 2, "velocity": 71}, {"time": 5236, "pitch": 62, "duration": 2, "velocity": 81}, {"time": 5242, "pitch": 48, "duration": 21, "velocity": 82}, {"time": 5242, "pitch": 55, "duration": 8, "velocity": 80}, {"time": 5242, "pitch": 60, "duration": 8, "velocity": 80}, {"time": 5254, "pitch": 55, "duration": 2, "velocity": 81}, {"time": 5254, "pitch": 60, "duration": 14, "velocity": 85}, {"time": 5254, "pitch": 63, "duration": 14, "velocity": 84}, {"time": 5260, "pitch": 55, "duration": 8, "velocity": 79}, {"time": 5266, "pitch": 43, "duration": 9, "velocity": 82}, {"time": 5272, "pitch": 55, "duration": 2, "velocity": 83}, {"time": 5272, "pitch": 60, "duration": 2, "velocity": 85}, {"time": 5272, "pitch": 63, "duration": 3, "velocity": 88}, {"time": 5284, "pitch": 43, "duration": 5, "velocity": 83}, {"time": 5284, "pitch": 55, "duration": 4, "velocity": 77}, {"time": 5284, "pitch": 60, "duration": 3, "velocity": 78}, {"time": 5284, "pitch": 63, "duration": 4, "velocity": 77}, {"time": 5290, "pitch": 48, "duration": 20, "velocity": 90}, {"time": 5290, "pitch": 55, "duration": 8, "velocity": 82}, {"time": 5290, "pitch": 60, "duration": 8, "velocity": 83}, {"time": 5302, "pitch": 55, "duration": 2, "velocity": 83}, {"time": 5302, "pitch": 60, "duration": 7, "velocity": 86}, {"time": 5302, "pitch": 63, "duration": 10, "velocity": 85}, {"time": 5308, "pitch": 55, "duration": 6, "velocity": 81}, {"time": 5314, "pitch": 43, "duration": 20, "velocity": 82}, {"time": 5320, "pitch": 55, "duration": 5, "velocity": 82}, {"time": 5320, "pitch": 59, "duration": 5, "velocity": 83}, {"time": 5320, "pitch": 62, "duration": 5, "velocity": 81}, {"time": 5326, "pitch": 50, "duration": 7, "velocity": 65}, {"time": 5332, "pitch": 55, "duration": 3, "velocity": 81}, {"time": 5332, "pitch": 59, "duration": 2, "velocity": 82}, {"time": 5332, "pitch": 62, "duration": 3, "velocity": 82}, {"time": 5338, "pitch": 48, "duration": 23, "velocity": 82}, {"time": 5338, "pitch": 55, "duration": 8, "velocity": 81}, {"time": 5338, "pitch": 60, "duration": 8, "velocity": 82}, {"time": 5350, "pitch": 55, "duration": 1, "velocity": 81}, {"time": 5350, "pitch": 60, "duration": 12, "velocity": 86}, {"time": 5350, "pitch": 63, "duration": 12, "velocity": 87}, {"time": 5356, "pitch": 55, "duration": 9, "velocity": 82}, {"time": 5362, "pitch": 43, "duration": 10, "velocity": 82}, {"time": 5368, "pitch": 55, "duration": 3, "velocity": 82}, {"time": 5368, "pitch": 59, "duration": 3, "velocity": 82}, {"time": 5368, "pitch": 62, "duration": 3, "velocity": 82}, {"time": 5380, "pitch": 55, "duration": 2, "velocity": 80}, {"time": 5380, "pitch": 59, "duration": 2, "velocity": 82}, {"time": 5380, "pitch": 62, "duration": 3, "velocity": 82}, {"time": 5386, "pitch": 48, "duration": 21, "velocity": 82}, {"time": 5386, "pitch": 55, "duration": 8, "velocity": 82}, {"time": 5386, "pitch": 60, "duration": 8, "velocity": 82}, {"time": 5398, "pitch": 55, "duration": 1, "velocity": 80}, {"time": 5398, "pitch": 60, "duration": 7, "velocity": 87}, {"time": 5398, "pitch": 63, "duration": 7, "velocity": 84}, {"time": 5404, "pitch": 55, "duration": 2, "velocity": 80}, {"time": 5410, "pitch": 43, "duration": 9, "velocity": 82}, {"time": 5410, "pitch": 55, "duration": 3, "velocity": 75}, {"time": 5410, "pitch": 59, "duration": 3, "velocity": 79}, {"time": 5416, "pitch": 55, "duration": 7, "velocity": 82}, {"time": 5416, "pitch": 59, "duration": 7, "velocity": 83}, {"time": 5416, "pitch": 62, "duration": 7, "velocity": 85}, {"time": 5422, "pitch": 50, "duration": 7, "velocity": 73}, {"time": 5428, "pitch": 55, "duration": 2, "velocity": 81}, {"time": 5428, "pitch": 59, "duration": 2, "velocity": 71}, {"time": 5428, "pitch": 62, "duration": 2, "velocity": 81}, {"time": 5434, "pitch": 48, "duration": 21, "velocity": 82}, {"time": 5434, "pitch": 55, "duration": 8, "velocity": 80}, {"time": 5434, "pitch": 60, "duration": 8, "velocity": 80}, {"time": 5446, "pitch": 55, "duration": 2, "velocity": 81}, {"time": 5446, "pitch": 60, "duration": 14, "velocity": 85}, {"time": 5446, "pitch": 63, "duration": 14, "velocity": 84}, {"time": 5452, "pitch": 55, "duration": 8, "velocity": 79}, {"time": 5458, "pitch": 43, "duration": 9, "velocity": 82}, {"time": 5464, "pitch": 55, "duration": 2, "velocity": 83}, {"time": 5464, "pitch": 60, "duration": 2, "velocity": 85}, {"time": 5464, "pitch": 63, "duration": 3, "velocity": 88}, {"time": 5476, "pitch": 43, "duration": 5, "velocity": 83}, {"time": 5476, "pitch": 55, "duration": 4, "velocity": 77}, {"time": 5476, "pitch": 60, "duration": 3, "velocity": 78}, {"time": 5476, "pitch": 63, "duration": 4, "velocity": 77}, {"time": 5482, "pitch": 48, "duration": 14, "velocity": 84}, {"time": 5482, "pitch": 60, "duration": 6, "velocity": 75}, {"time": 5482, "pitch": 63, "duration": 7, "velocity": 79}, {"time": 5494, "pitch": 60, "duration": 5, "velocity": 76}, {"time": 5494, "pitch": 63, "duration": 6, "velocity": 82}, {"time": 5494, "pitch": 67, "duration": 4, "velocity": 77}, {"time": 5506, "pitch": 48, "duration": 11, "velocity": 81}, {"time": 5512, "pitch": 60, "duration": 6, "velocity": 79}, {"time": 5512, "pitch": 63, "duration": 7, "velocity": 85}, {"time": 5524, "pitch": 63, "duration": 10, "velocity": 81}, {"time": 5530, "pitch": 44, "duration": 14, "velocity": 84}, {"time": 5542, "pitch": 56, "duration": 5, "velocity": 74}, {"time": 5542, "pitch": 60, "duration": 5, "velocity": 74}, {"time": 5542, "pitch": 63, "duration": 5, "velocity": 75}, {"time": 5548, "pitch": 51, "duration": 3, "velocity": 39}, {"time": 5554, "pitch": 44, "duration": 9, "velocity": 81}, {"time": 5560, "pitch": 56, "duration": 7, "velocity": 74}, {"time": 5560, "pitch": 60, "duration": 7, "velocity": 79}, {"time": 5560, "pitch": 63, "duration": 7, "velocity": 74}, {"time": 5572, "pitch": 56, "duration": 5, "velocity": 70}, {"time": 5572, "pitch": 60, "duration": 5, "velocity": 81}, {"time": 5572, "pitch": 63, "duration": 5, "velocity": 73}, {"time": 5578, "pitch": 43, "duration": 14, "velocity": 81}, {"time": 5590, "pitch": 55, "duration": 13, "velocity": 79}, {"time": 5590, "pitch": 59, "duration": 14, "velocity": 82}, {"time": 5590, "pitch": 62, "duration": 14, "velocity": 81}, {"time": 5596, "pitch": 50, "duration": 3, "velocity": 73}, {"time": 5602, "pitch": 43, "duration": 10, "velocity": 82}, {"time": 5608, "pitch": 55, "duration": 7, "velocity": 79}, {"time": 5608, "pitch": 59, "duration": 8, "velocity": 80}, {"time": 5608, "pitch": 62, "duration": 8, "velocity": 81}, {"time": 5620, "pitch": 43, "duration": 4, "velocity": 81}, {"time": 5626, "pitch": 48, "duration": 23, "velocity": 83}, {"time": 5638, "pitch": 55, "duration": 2, "velocity": 81}, {"time": 5638, "pitch": 60, "duration": 14, "velocity": 85}, {"time": 5638, "pitch": 63, "duration": 14, "velocity": 85}, {"time": 5644, "pitch": 55, "duration": 7, "velocity": 77}, {"time": 5650, "pitch": 43, "duration": 21, "velocity": 81}, {"time": 5656, "pitch": 55, "duration": 3, "velocity": 81}, {"time": 5656, "pitch": 60, "duration": 3, "velocity": 82}, {"time": 5656, "pitch": 63, "duration": 4, "velocity": 81}, {"time": 5668, "pitch": 55, "duration": 9, "velocity": 86}, {"time": 5668, "pitch": 60, "duration": 8, "velocity": 88}, {"time": 5668, "pitch": 63, "duration": 8, "velocity": 87}, {"time": 5674, "pitch": 48, "duration": 24, "velocity": 90}, {"time": 5686, "pitch": 55, "duration": 1, "velocity": 80}, {"time": 5686, "pitch": 60, "duration": 14, "velocity": 82}, {"time": 5686, "pitch": 63, "duration": 15, "velocity": 83}, {"time": 5692, "pitch": 55, "duration": 8, "velocity": 79}, {"time": 5698, "pitch": 43, "duration": 10, "velocity": 81}, {"time": 5704, "pitch": 55, "duration": 6, "velocity": 82}, {"time": 5704, "pitch": 60, "duration": 7, "velocity": 82}, {"time": 5704, "pitch": 63, "duration": 8, "velocity": 81}, {"time": 5716, "pitch": 48, "duration": 4, "velocity": 92}, {"time": 5722, "pitch": 44, "duration": 16, "velocity": 85}, {"time": 5734, "pitch": 56, "duration": 2, "velocity": 83}, {"time": 5734, "pitch": 60, "duration": 13, "velocity": 79}, {"time": 5734, "pitch": 63, "duration": 12, "velocity": 79}, {"time": 5740, "pitch": 56, "duration": 7, "velocity": 73}, {"time": 5746, "pitch": 44, "duration": 9, "velocity": 95}, {"time": 5752, "pitch": 56, "duration": 4, "velocity": 77}, {"time": 5752, "pitch": 60, "duration": 4, "velocity": 83}, {"time": 5752, "pitch": 63, "duration": 4, "velocity": 80}, {"time": 5764, "pitch": 44, "duration": 4, "velocity": 77}, {"time": 5764, "pitch": 56, "duration": 4, "velocity": 73}, {"time": 5764, "pitch": 60, "duration": 3, "velocity": 72}, {"time": 5764, "pitch": 63, "duration": 5, "velocity": 74}, {"time": 5770, "pitch": 43, "duration": 15, "velocity": 82}, {"time": 5782, "pitch": 55, "duration": 2, "velocity": 76}, {"time": 5782, "pitch": 59, "duration": 4, "velocity": 81}, {"time": 5782, "pitch": 62, "duration": 4, "velocity": 81}, {"time": 5788, "pitch": 50, "duration": 3, "velocity": 73}, {"time": 5794, "pitch": 43, "duration": 18, "velocity": 81}, {"time": 5800, "pitch": 55, "duration": 6, "velocity": 74}, {"time": 5800, "pitch": 59, "duration": 7, "velocity": 81}, {"time": 5800, "pitch": 62, "duration": 6, "velocity": 78}, {"time": 5800, "pitch": 67, "duration": 6, "velocity": 77}, {"time": 5806, "pitch": 50, "duration": 5, "velocity": 74}, {"time": 5812, "pitch": 55, "duration": 7, "velocity": 71}, {"time": 5812, "pitch": 59, "duration": 6, "velocity": 75}, {"time": 5812, "pitch": 62, "duration": 6, "velocity": 71}, {"time": 5818, "pitch": 48, "duration": 23, "velocity": 81}, {"time": 5830, "pitch": 55, "duration": 3, "velocity": 74}, {"time": 5830, "pitch": 60, "duration": 14, "velocity": 77}, {"time": 5830, "pitch": 63, "duration": 14, "velocity": 74}, {"time": 5836, "pitch": 55, "duration": 7, "velocity": 67}, {"time": 5842, "pitch": 43, "duration": 20, "velocity": 77}, {"time": 5848, "pitch": 55, "duration": 3, "velocity": 74}, {"time": 5848, "pitch": 60, "duration": 2, "velocity": 77}, {"time": 5848, "pitch": 63, "duration": 3, "velocity": 76}, {"time": 5860, "pitch": 55, "duration": 9, "velocity": 77}, {"time": 5860, "pitch": 60, "duration": 10, "velocity": 78}, {"time": 5860, "pitch": 63, "duration": 8, "velocity": 75}, {"time": 5866, "pitch": 48, "duration": 14, "velocity": 84}, {"time": 5866, "pitch": 60, "duration": 4, "velocity": 75}, {"time": 5866, "pitch": 63, "duration": 2, "velocity": 79}, {"time": 5878, "pitch": 60, "duration": 5, "velocity": 76}, {"time": 5878, "pitch": 63, "duration": 6, "velocity": 82}, {"time": 5878, "pitch": 67, "duration": 4, "velocity": 77}, {"time": 5890, "pitch": 48, "duration": 11, "velocity": 81}, {"time": 5896, "pitch": 60, "duration": 6, "velocity": 79}, {"time": 5896, "pitch": 63, "duration": 7, "velocity": 85}, {"time": 5908, "pitch": 63, "duration": 10, "velocity": 81}, {"time": 5914, "pitch": 44, "duration": 14, "velocity": 84}, {"time": 5926, "pitch": 56, "duration": 5, "velocity": 74}, {"time": 5926, "pitch": 60, "duration": 5, "velocity": 74}, {"time": 5926, "pitch": 63, "duration": 5, "velocity": 75}, {"time": 5932, "pitch": 51, "duration": 3, "velocity": 39}, {"time": 5938, "pitch": 44, "duration": 9, "velocity": 81}, {"time": 5944, "pitch": 56, "duration": 7, "velocity": 74}, {"time": 5944, "pitch": 60, "duration": 7, "velocity": 79}, {"time": 5944, "pitch": 63, "duration": 7, "velocity": 74}, {"time": 5956, "pitch": 56, "duration": 5, "velocity": 70}, {"time": 5956, "pitch": 60, "duration": 5, "velocity": 81}, {"time": 5956, "pitch": 63, "duration": 5, "velocity": 73}, {"time": 5962, "pitch": 43, "duration": 14, "velocity": 81}, {"time": 5974, "pitch": 55, "duration": 13, "velocity": 79}, {"time": 5974, "pitch": 59, "duration": 14, "velocity": 82}, {"time": 5974, "pitch": 62, "duration": 14, "velocity": 81}, {"time": 5980, "pitch": 50, "duration": 3, "velocity": 73}, {"time": 5986, "pitch": 43, "duration": 10, "velocity": 82}, {"time": 5992, "pitch": 55, "duration": 7, "velocity": 79}, {"time": 5992, "pitch": 59, "duration": 8, "velocity": 80}, {"time": 5992, "pitch": 62, "duration": 8, "velocity": 81}, {"time": 6004, "pitch": 43, "duration": 4, "velocity": 81}, {"time": 6010, "pitch": 48, "duration": 23, "velocity": 83}, {"time": 6022, "pitch": 55, "duration": 2, "velocity": 81}, {"time": 6022, "pitch": 60, "duration": 14, "velocity": 85}, {"time": 6022, "pitch": 63, "duration": 14, "velocity": 85}, {"time": 6028, "pitch": 55, "duration": 7, "velocity": 77}, {"time": 6034, "pitch": 43, "duration": 21, "velocity": 81}, {"time": 6040, "pitch": 55, "duration": 3, "velocity": 81}, {"time": 6040, "pitch": 60, "duration": 3, "velocity": 82}, {"time": 6040, "pitch": 63, "duration": 4, "velocity": 81}, {"time": 6052, "pitch": 55, "duration": 9, "velocity": 86}, {"time": 6052, "pitch": 60, "duration": 8, "velocity": 88}, {"time": 6052, "pitch": 63, "duration": 8, "velocity": 87}, {"time": 6058, "pitch": 48, "duration": 24, "velocity": 90}, {"time": 6070, "pitch": 55, "duration": 1, "velocity": 80}, {"time": 6070, "pitch": 60, "duration": 14, "velocity": 82}, {"time": 6070, "pitch": 63, "duration": 15, "velocity": 83}, {"time": 6076, "pitch": 55, "duration": 8, "velocity": 79}, {"time": 6082, "pitch": 43, "duration": 10, "velocity": 81}, {"time": 6088, "pitch": 55, "duration": 6, "velocity": 82}, {"time": 6088, "pitch": 60, "duration": 7, "velocity": 82}, {"time": 6088, "pitch": 63, "duration": 8, "velocity": 81}, {"time": 6100, "pitch": 48, "duration": 4, "velocity": 92}, {"time": 6106, "pitch": 44, "duration": 16, "velocity": 85}, {"time": 6118, "pitch": 56, "duration": 2, "velocity": 83}, {"time": 6118, "pitch": 60, "duration": 13, "velocity": 79}, {"time": 6118, "pitch": 63, "duration": 12, "velocity": 79}, {"time": 6124, "pitch": 56, "duration": 7, "velocity": 73}, {"time": 6130, "pitch": 44, "duration": 9, "velocity": 95}, {"time": 6136, "pitch": 56, "duration": 4, "velocity": 77}, {"time": 6136, "pitch": 60, "duration": 4, "velocity": 83}, {"time": 6136, "pitch": 63, "duration": 4, "velocity": 80}, {"time": 6148, "pitch": 44, "duration": 4, "velocity": 77}, {"time": 6148, "pitch": 56, "duration": 4, "velocity": 73}, {"time": 6148, "pitch": 60, "duration": 3, "velocity": 72}, {"time": 6148, "pitch": 63, "duration": 5, "velocity": 74}, {"time": 6154, "pitch": 43, "duration": 15, "velocity": 82}, {"time": 6166, "pitch": 55, "duration": 2, "velocity": 76}, {"time": 6166, "pitch": 59, "duration": 4, "velocity": 81}, {"time": 6166, "pitch": 62, "duration": 4, "velocity": 81}, {"time": 6172, "pitch": 50, "duration": 3, "velocity": 73}, {"time": 6178, "pitch": 43, "duration": 18, "velocity": 81}, {"time": 6184, "pitch": 55, "duration": 6, "velocity": 74}, {"time": 6184, "pitch": 59, "duration": 7, "velocity": 81}, {"time": 6184, "pitch": 62, "duration": 6, "velocity": 78}, {"time": 6184, "pitch": 67, "duration": 6, "velocity": 77}, {"time": 6190, "pitch": 50, "duration": 5, "velocity": 74}, {"time": 6196, "pitch": 55, "duration": 7, "velocity": 71}, {"time": 6196, "pitch": 59, "duration": 6, "velocity": 75}, {"time": 6196, "pitch": 62, "duration": 6, "velocity": 71}, {"time": 6198, "pitch": 55, "duration": 5, "velocity": 67}, {"time": 6200, "pitch": 60, "duration": 59, "velocity": 66}, {"time": 6200, "pitch": 36, "duration": 59, "velocity": 65}, {"time": 6202, "pitch": 63, "duration": 57, "velocity": 61}], "annotations": [{"time": 106, "annotation": {"number": 64, "value": 127}, "group": "control_change"}, {"time": 151, "annotation": {"number": 64, "value": 0}, "group": "control_change"}, {"time": 154, "annotation": {"number": 64, "value": 127}, "group": "control_change"}, {"time": 198, "annotation": {"number": 64, "value": 0}, "group": "control_change"}, {"time": 202, "annotation": {"number": 64, "value": 127}, "group": "control_change"}, {"time": 222, "annotation": {"number": 64, "value": 0}, "group": "control_change"}, {"time": 227, "annotation": {"number": 64, "value": 127}, "group": "control_change"}, {"time": 246, "annotation": {"number": 64, "value": 0}, "group": "control_change"}, {"time": 249, "annotation": {"number": 64, "value": 127}, "group": "control_change"}, {"time": 270, "annotation": {"number": 64, "value": 0}, "group": "control_change"}, {"time": 274, "annotation": {"number": 64, "value": 127}, "group": "control_change"}, {"time": 295, "annotation": {"number": 64, "value": 0}, "group": "control_change"}, {"time": 298, "annotation": {"number": 64, "value": 127}, "group": "control_change"}, {"time": 319, "annotation": {"number": 64, "value": 0}, "group": "control_change"}, {"time": 323, "annotation": {"number": 64, "value": 127}, "group": "control_change"}, {"time": 342, "annotation": {"number": 64, "value": 0}, "group": "control_change"}, {"time": 345, "annotation": {"number": 64, "value": 127}, "group": "control_change"}, {"time": 367, "annotation": {"number": 64, "value": 0}, "group": "control_change"}, {"time": 370, "annotation": {"number": 64, "value": 127}, "group": "control_change"}, {"time": 390, "annotation": {"number": 64, "value": 0}, "group": "control_change"}, {"time": 394, "annotation": {"number": 64, "value": 127}, "group": "control_change"}, {"time": 418, "annotation": {"number": 64, "value": 0}, "group": "control_change"}, {"time": 422, "annotation": {"number": 64, "value": 127}, "group": "control_change"}, {"time": 438, "annotation": {"number": 64, "value": 0}, "group": "control_change"}, {"time": 442, "annotation": {"number": 64, "value": 127}, "group": "control_change"}, {"time": 464, "annotation": {"number": 64, "value": 0}, "group": "control_change"}, {"time": 467, "annotation": {"number": 64, "value": 127}, "group": "control_change"}, {"time": 484, "annotation": {"number": 64, "value": 0}, "group": "control_change"}, {"time": 489, "annotation": {"number": 64, "value": 127}, "group": "control_change"}, {"time": 509, "annotation": {"number": 64, "value": 0}, "group": "control_change"}, {"time": 514, "annotation": {"number": 64, "value": 127}, "group": "control_change"}, {"time": 533, "annotation": {"number": 64, "value": 0}, "group": "control_change"}, {"time": 536, "annotation": {"number": 64, "value": 127}, "group": "control_change"}, {"time": 559, "annotation": {"number": 64, "value": 0}, "group": "control_change"}, {"time": 562, "annotation": {"number": 64, "value": 127}, "group": "control_change"}, {"time": 581, "annotation": {"number": 64, "value": 0}, "group": "control_change"}, {"time": 584, "annotation": {"number": 64, "value": 127}, "group": "control_change"}, {"time": 606, "annotation": {"number": 64, "value": 0}, "group": "control_change"}, {"time": 613, "annotation": {"number": 64, "value": 127}, "group": "control_change"}, {"time": 628, "annotation": {"number": 64, "value": 0}, "group": "control_change"}, {"time": 705, "annotation": {"number": 64, "value": 127}, "group": "control_change"}, {"time": 728, "annotation": {"number": 64, "value": 0}, "group": "control_change"}, {"time": 731, "annotation": {"number": 64, "value": 127}, "group": "control_change"}, {"time": 750, "annotation": {"number": 64, "value": 0}, "group": "control_change"}, {"time": 755, "annotation": {"number": 64, "value": 127}, "group": "control_change"}, {"time": 773, "annotation": {"number": 64, "value": 0}, "group": "control_change"}, {"time": 777, "annotation": {"number": 64, "value": 127}, "group": "control_change"}, {"time": 797, "annotation": {"number": 64, "value": 0}, "group": "control_change"}, {"time": 801, "annotation": {"number": 64, "value": 127}, "group": "control_change"}, {"time": 812, "annotation": {"number": 64, "value": 0}, "group": "control_change"}, {"time": 897, "annotation": {"number": 64, "value": 127}, "group": "control_change"}, {"time": 920, "annotation": {"number": 64, "value": 0}, "group": "control_change"}, {"time": 923, "annotation": {"number": 64, "value": 127}, "group": "control_change"}, {"time": 942, "annotation": {"number": 64, "value": 0}, "group": "control_change"}, {"time": 947, "annotation": {"number": 64, "value": 127}, "group": "control_change"}, {"time": 965, "annotation": {"number": 64, "value": 0}, "group": "control_change"}, {"time": 969, "annotation": {"number": 64, "value": 127}, "group": "control_change"}, {"time": 989, "annotation": {"number": 64, "value": 0}, "group": "control_change"}, {"time": 993, "annotation": {"number": 64, "value": 127}, "group": "control_change"}, {"time": 1004, "annotation": {"number": 64, "value": 0}, "group": "control_change"}, {"time": 1089, "annotation": {"number": 64, "value": 127}, "group": "control_change"}, {"time": 1112, "annotation": {"number": 64, "value": 0}, "group": "control_change"}, {"time": 1115, "annotation": {"number": 64, "value": 127}, "group": "control_change"}, {"time": 1134, "annotation": {"number": 64, "value": 0}, "group": "control_change"}, {"time": 1139, "annotation": {"number": 64, "value": 127}, "group": "control_change"}, {"time": 1157, "annotation": {"number": 64, "value": 0}, "group": "control_change"}, {"time": 1161, "annotation": {"number": 64, "value": 127}, "group": "control_change"}, {"time": 1181, "annotation": {"number": 64, "value": 0}, "group": "control_change"}, {"time": 1185, "annotation": {"number": 64, "value": 127}, "group": "control_change"}, {"time": 1196, "annotation": {"number": 64, "value": 0}, "group": "control_change"}, {"time": 1210, "annotation": {"number": 64, "value": 127}, "group": "control_change"}, {"time": 1230, "annotation": {"number": 64, "value": 0}, "group": "control_change"}, {"time": 1233, "annotation": {"number": 64, "value": 127}, "group": "control_change"}, {"time": 1253, "annotation": {"number": 64, "value": 0}, "group": "control_change"}, {"time": 1258, "annotation": {"number": 64, "value": 127}, "group": "control_change"}, {"time": 1301, "annotation": {"number": 64, "value": 0}, "group": "control_change"}, {"time": 1304, "annotation": {"number": 64, "value": 127}, "group": "control_change"}, {"time": 1326, "annotation": {"number": 64, "value": 0}, "group": "control_change"}, {"time": 1329, "annotation": {"number": 64, "value": 127}, "group": "control_change"}, {"time": 1350, "annotation": {"number": 64, "value": 0}, "group": "control_change"}, {"time": 1353, "annotation": {"number": 64, "value": 127}, "group": "control_change"}, {"time": 1375, "annotation": {"number": 64, "value": 0}, "group": "control_change"}, {"time": 1378, "annotation": {"number": 64, "value": 127}, "group": "control_change"}, {"time": 1407, "annotation": {"number": 64, "value": 0}, "group": "control_change"}, {"time": 1450, "annotation": {"number": 64, "value": 127}, "group": "control_change"}, {"time": 1484, "annotation": {"number": 64, "value": 0}, "group": "control_change"}, {"time": 1498, "annotation": {"number": 64, "value": 127}, "group": "control_change"}, {"time": 1518, "annotation": {"number": 64, "value": 0}, "group": "control_change"}, {"time": 1523, "annotation": {"number": 64, "value": 127}, "group": "control_change"}, {"time": 1543, "annotation": {"number": 64, "value": 0}, "group": "control_change"}, {"time": 1546, "annotation": {"number": 64, "value": 127}, "group": "control_change"}, {"time": 1591, "annotation": {"number": 64, "value": 0}, "group": "control_change"}, {"time": 1594, "annotation": {"number": 64, "value": 127}, "group": "control_change"}, {"time": 1639, "annotation": {"number": 64, "value": 0}, "group": "control_change"}, {"time": 1643, "annotation": {"number": 64, "value": 127}, "group": "control_change"}, {"time": 1686, "annotation": {"number": 64, "value": 0}, "group": "control_change"}, {"time": 1689, "annotation": {"number": 64, "value": 127}, "group": "control_change"}, {"time": 1733, "annotation": {"number": 64, "value": 0}, "group": "control_change"}, {"time": 1736, "annotation": {"number": 64, "value": 127}, "group": "control_change"}, {"time": 1782, "annotation": {"number": 64, "value": 0}, "group": "control_change"}, {"time": 1785, "annotation": {"number": 64, "value": 127}, "group": "control_change"}, {"time": 1805, "annotation": {"number": 64, "value": 0}, "group": "control_change"}, {"time": 1854, "annotation": {"number": 64, "value": 0}, "group": "control_change"}, {"time": 1857, "annotation": {"number": 64, "value": 127}, "group": "control_change"}, {"time": 1878, "annotation": {"number": 64, "value": 0}, "group": "control_change"}, {"time": 1881, "annotation": {"number": 64, "value": 127}, "group": "control_change"}, {"time": 1901, "annotation": {"number": 64, "value": 0}, "group": "control_change"}, {"time": 1905, "annotation": {"number": 64, "value": 127}, "group": "control_change"}, {"time": 1925, "annotation": {"number": 64, "value": 0}, "group": "control_change"}, {"time": 1929, "annotation": {"number": 64, "value": 127}, "group": "control_change"}, {"time": 1948, "annotation": {"number": 64, "value": 0}, "group": "control_change"}, {"time": 1952, "annotation": {"number": 64, "value": 127}, "group": "control_change"}, {"time": 1973, "annotation": {"number": 64, "value": 0}, "group": "control_change"}, {"time": 1977, "annotation": {"number": 64, "value": 127}, "group": "control_change"}, {"time": 1998, "annotation": {"number": 64, "value": 0}, "group": "control_change"}, {"time": 2001, "annotation": {"number": 64, "value": 127}, "group": "control_change"}, {"time": 2021, "annotation": {"number": 64, "value": 0}, "group": "control_change"}, {"time": 2046, "annotation": {"number": 64, "value": 0}, "group": "control_change"}, {"time": 2049, "annotation": {"number": 64, "value": 127}, "group": "control_change"}, {"time": 2070, "annotation": {"number": 64, "value": 0}, "group": "control_change"}, {"time": 2073, "annotation": {"number": 64, "value": 127}, "group": "control_change"}, {"time": 2093, "annotation": {"number": 64, "value": 0}, "group": "control_change"}, {"time": 2097, "annotation": {"number": 64, "value": 127}, "group": "control_change"}, {"time": 2117, "annotation": {"number": 64, "value": 0}, "group": "control_change"}, {"time": 2121, "annotation": {"number": 64, "value": 127}, "group": "control_change"}, {"time": 2140, "annotation": {"number": 64, "value": 0}, "group": "control_change"}, {"time": 2144, "annotation": {"number": 64, "value": 127}, "group": "control_change"}, {"time": 2165, "annotation": {"number": 64, "value": 0}, "group": "control_change"}, {"time": 2169, "annotation": {"number": 64, "value": 127}, "group": "control_change"}, {"time": 2190, "annotation": {"number": 64, "value": 0}, "group": "control_change"}, {"time": 2193, "annotation": {"number": 64, "value": 127}, "group": "control_change"}, {"time": 2213, "annotation": {"number": 64, "value": 0}, "group": "control_change"}, {"time": 2218, "annotation": {"number": 64, "value": 127}, "group": "control_change"}, {"time": 2263, "annotation": {"number": 64, "value": 0}, "group": "control_change"}, {"time": 2266, "annotation": {"number": 64, "value": 127}, "group": "control_change"}, {"time": 2310, "annotation": {"number": 64, "value": 0}, "group": "control_change"}, {"time": 2314, "annotation": {"number": 64, "value": 127}, "group": "control_change"}, {"time": 2334, "annotation": {"number": 64, "value": 0}, "group": "control_change"}, {"time": 2339, "annotation": {"number": 64, "value": 127}, "group": "control_change"}, {"time": 2358, "annotation": {"number": 64, "value": 0}, "group": "control_change"}, {"time": 2361, "annotation": {"number": 64, "value": 127}, "group": "control_change"}, {"time": 2382, "annotation": {"number": 64, "value": 0}, "group": "control_change"}, {"time": 2386, "annotation": {"number": 64, "value": 127}, "group": "control_change"}, {"time": 2407, "annotation": {"number": 64, "value": 0}, "group": "control_change"}, {"time": 2410, "annotation": {"number": 64, "value": 127}, "group": "control_change"}, {"time": 2431, "annotation": {"number": 64, "value": 0}, "group": "control_change"}, {"time": 2435, "annotation": {"number": 64, "value": 127}, "group": "control_change"}, {"time": 2454, "annotation": {"number": 64, "value": 0}, "group": "control_change"}, {"time": 2457, "annotation": {"number": 64, "value": 127}, "group": "control_change"}, {"time": 2479, "annotation": {"number": 64, "value": 0}, "group": "control_change"}, {"time": 2482, "annotation": {"number": 64, "value": 127}, "group": "control_change"}, {"time": 2502, "annotation": {"number": 64, "value": 0}, "group": "control_change"}, {"time": 2506, "annotation": {"number": 64, "value": 127}, "group": "control_change"}, {"time": 2530, "annotation": {"number": 64, "value": 0}, "group": "control_change"}, {"time": 2534, "annotation": {"number": 64, "value": 127}, "group": "control_change"}, {"time": 2550, "annotation": {"number": 64, "value": 0}, "group": "control_change"}, {"time": 2554, "annotation": {"number": 64, "value": 127}, "group": "control_change"}, {"time": 2576, "annotation": {"number": 64, "value": 0}, "group": "control_change"}, {"time": 2579, "annotation": {"number": 64, "value": 127}, "group": "control_change"}, {"time": 2596, "annotation": {"number": 64, "value": 0}, "group": "control_change"}, {"time": 2601, "annotation": {"number": 64, "value": 127}, "group": "control_change"}, {"time": 2621, "annotation": {"number": 64, "value": 0}, "group": "control_change"}, {"time": 2626, "annotation": {"number": 64, "value": 127}, "group": "control_change"}, {"time": 2645, "annotation": {"number": 64, "value": 0}, "group": "control_change"}, {"time": 2648, "annotation": {"number": 64, "value": 127}, "group": "control_change"}, {"time": 2671, "annotation": {"number": 64, "value": 0}, "group": "control_change"}, {"time": 2674, "annotation": {"number": 64, "value": 127}, "group": "control_change"}, {"time": 2693, "annotation": {"number": 64, "value": 0}, "group": "control_change"}, {"time": 2696, "annotation": {"number": 64, "value": 127}, "group": "control_change"}, {"time": 2718, "annotation": {"number": 64, "value": 0}, "group": "control_change"}, {"time": 2725, "annotation": {"number": 64, "value": 127}, "group": "control_change"}, {"time": 2740, "annotation": {"number": 64, "value": 0}, "group": "control_change"}, {"time": 2817, "annotation": {"number": 64, "value": 127}, "group": "control_change"}, {"time": 2840, "annotation": {"number": 64, "value": 0}, "group": "control_change"}, {"time": 2843, "annotation": {"number": 64, "value": 127}, "group": "control_change"}, {"time": 2862, "annotation": {"number": 64, "value": 0}, "group": "control_change"}, {"time": 2867, "annotation": {"number": 64, "value": 127}, "group": "control_change"}, {"time": 2885, "annotation": {"number": 64, "value": 0}, "group": "control_change"}, {"time": 2889, "annotation": {"number": 64, "value": 127}, "group": "control_change"}, {"time": 2909, "annotation": {"number": 64, "value": 0}, "group": "control_change"}, {"time": 2913, "annotation": {"number": 64, "value": 127}, "group": "control_change"}, {"time": 2924, "annotation": {"number": 64, "value": 0}, "group": "control_change"}, {"time": 2938, "annotation": {"number": 64, "value": 127}, "group": "control_change"}, {"time": 2958, "annotation": {"number": 64, "value": 0}, "group": "control_change"}, {"time": 2961, "annotation": {"number": 64, "value": 127}, "group": "control_change"}, {"time": 2981, "annotation": {"number": 64, "value": 0}, "group": "control_change"}, {"time": 2986, "annotation": {"number": 64, "value": 127}, "group": "control_change"}, {"time": 3029, "annotation": {"number": 64, "value": 0}, "group": "control_change"}, {"time": 3032, "annotation": {"number": 64, "value": 127}, "group": "control_change"}, {"time": 3054, "annotation": {"number": 64, "value": 0}, "group": "control_change"}, {"time": 3057, "annotation": {"number": 64, "value": 127}, "group": "control_change"}, {"time": 3078, "annotation": {"number": 64, "value": 0}, "group": "control_change"}, {"time": 3081, "annotation": {"number": 64, "value": 127}, "group": "control_change"}, {"time": 3103, "annotation": {"number": 64, "value": 0}, "group": "control_change"}, {"time": 3106, "annotation": {"number": 64, "value": 127}, "group": "control_change"}, {"time": 3135, "annotation": {"number": 64, "value": 0}, "group": "control_change"}, {"time": 3178, "annotation": {"number": 64, "value": 127}, "group": "control_change"}, {"time": 3212, "annotation": {"number": 64, "value": 0}, "group": "control_change"}, {"time": 3226, "annotation": {"number": 64, "value": 127}, "group": "control_change"}, {"time": 3246, "annotation": {"number": 64, "value": 0}, "group": "control_change"}, {"time": 3251, "annotation": {"number": 64, "value": 127}, "group": "control_change"}, {"time": 3271, "annotation": {"number": 64, "value": 0}, "group": "control_change"}, {"time": 3274, "annotation": {"number": 64, "value": 127}, "group": "control_change"}, {"time": 3319, "annotation": {"number": 64, "value": 0}, "group": "control_change"}, {"time": 3322, "annotation": {"number": 64, "value": 127}, "group": "control_change"}, {"time": 3367, "annotation": {"number": 64, "value": 0}, "group": "control_change"}, {"time": 3371, "annotation": {"number": 64, "value": 127}, "group": "control_change"}, {"time": 3414, "annotation": {"number": 64, "value": 0}, "group": "control_change"}, {"time": 3417, "annotation": {"number": 64, "value": 127}, "group": "control_change"}, {"time": 3461, "annotation": {"number": 64, "value": 0}, "group": "control_change"}, {"time": 3464, "annotation": {"number": 64, "value": 127}, "group": "control_change"}, {"time": 3510, "annotation": {"number": 64, "value": 0}, "group": "control_change"}, {"time": 3513, "annotation": {"number": 64, "value": 127}, "group": "control_change"}, {"time": 3533, "annotation": {"number": 64, "value": 0}, "group": "control_change"}, {"time": 3582, "annotation": {"number": 64, "value": 0}, "group": "control_change"}, {"time": 3585, "annotation": {"number": 64, "value": 127}, "group": "control_change"}, {"time": 3606, "annotation": {"number": 64, "value": 0}, "group": "control_change"}, {"time": 3609, "annotation": {"number": 64, "value": 127}, "group": "control_change"}, {"time": 3629, "annotation": {"number": 64, "value": 0}, "group": "control_change"}, {"time": 3633, "annotation": {"number": 64, "value": 127}, "group": "control_change"}, {"time": 3653, "annotation": {"number": 64, "value": 0}, "group": "control_change"}, {"time": 3657, "annotation": {"number": 64, "value": 127}, "group": "control_change"}, {"time": 3676, "annotation": {"number": 64, "value": 0}, "group": "control_change"}, {"time": 3680, "annotation": {"number": 64, "value": 127}, "group": "control_change"}, {"time": 3701, "annotation": {"number": 64, "value": 0}, "group": "control_change"}, {"time": 3705, "annotation": {"number": 64, "value": 127}, "group": "control_change"}, {"time": 3726, "annotation": {"number": 64, "value": 0}, "group": "control_change"}, {"time": 3729, "annotation": {"number": 64, "value": 127}, "group": "control_change"}, {"time": 3749, "annotation": {"number": 64, "value": 0}, "group": "control_change"}, {"time": 3774, "annotation": {"number": 64, "value": 0}, "group": "control_change"}, {"time": 3777, "annotation": {"number": 64, "value": 127}, "group": "control_change"}, {"time": 3798, "annotation": {"number": 64, "value": 0}, "group": "control_change"}, {"time": 3801, "annotation": {"number": 64, "value": 127}, "group": "control_change"}, {"time": 3821, "annotation": {"number": 64, "value": 0}, "group": "control_change"}, {"time": 3825, "annotation": {"number": 64, "value": 127}, "group": "control_change"}, {"time": 3845, "annotation": {"number": 64, "value": 0}, "group": "control_change"}, {"time": 3849, "annotation": {"number": 64, "value": 127}, "group": "control_change"}, {"time": 3868, "annotation": {"number": 64, "value": 0}, "group": "control_change"}, {"time": 3872, "annotation": {"number": 64, "value": 127}, "group": "control_change"}, {"time": 3893, "annotation": {"number": 64, "value": 0}, "group": "control_change"}, {"time": 3897, "annotation": {"number": 64, "value": 127}, "group": "control_change"}, {"time": 3918, "annotation": {"number": 64, "value": 0}, "group": "control_change"}, {"time": 3921, "annotation": {"number": 64, "value": 127}, "group": "control_change"}, {"time": 3941, "annotation": {"number": 64, "value": 0}, "group": "control_change"}, {"time": 3966, "annotation": {"number": 64, "value": 0}, "group": "control_change"}, {"time": 3969, "annotation": {"number": 64, "value": 127}, "group": "control_change"}, {"time": 3990, "annotation": {"number": 64, "value": 0}, "group": "control_change"}, {"time": 3993, "annotation": {"number": 64, "value": 127}, "group": "control_change"}, {"time": 4013, "annotation": {"number": 64, "value": 0}, "group": "control_change"}, {"time": 4017, "annotation": {"number": 64, "value": 127}, "group": "control_change"}, {"time": 4037, "annotation": {"number": 64, "value": 0}, "group": "control_change"}, {"time": 4041, "annotation": {"number": 64, "value": 127}, "group": "control_change"}, {"time": 4060, "annotation": {"number": 64, "value": 0}, "group": "control_change"}, {"time": 4064, "annotation": {"number": 64, "value": 127}, "group": "control_change"}, {"time": 4085, "annotation": {"number": 64, "value": 0}, "group": "control_change"}, {"time": 4089, "annotation": {"number": 64, "value": 127}, "group": "control_change"}, {"time": 4110, "annotation": {"number": 64, "value": 0}, "group": "control_change"}, {"time": 4113, "annotation": {"number": 64, "value": 127}, "group": "control_change"}, {"time": 4133, "annotation": {"number": 64, "value": 0}, "group": "control_change"}, {"time": 4158, "annotation": {"number": 64, "value": 0}, "group": "control_change"}, {"time": 4161, "annotation": {"number": 64, "value": 127}, "group": "control_change"}, {"time": 4182, "annotation": {"number": 64, "value": 0}, "group": "control_change"}, {"time": 4185, "annotation": {"number": 64, "value": 127}, "group": "control_change"}, {"time": 4205, "annotation": {"number": 64, "value": 0}, "group": "control_change"}, {"time": 4209, "annotation": {"number": 64, "value": 127}, "group": "control_change"}, {"time": 4229, "annotation": {"number": 64, "value": 0}, "group": "control_change"}, {"time": 4233, "annotation": {"number": 64, "value": 127}, "group": "control_change"}, {"time": 4252, "annotation": {"number": 64, "value": 0}, "group": "control_change"}, {"time": 4256, "annotation": {"number": 64, "value": 127}, "group": "control_change"}, {"time": 4277, "annotation": {"number": 64, "value": 0}, "group": "control_change"}, {"time": 4281, "annotation": {"number": 64, "value": 127}, "group": "control_change"}, {"time": 4287, "annotation": {"number": 64, "value": 0}, "group": "control_change"}, {"time": 4330, "annotation": {"number": 64, "value": 127}, "group": "control_change"}, {"time": 4364, "annotation": {"number": 64, "value": 0}, "group": "control_change"}, {"time": 4378, "annotation": {"number": 64, "value": 127}, "group": "control_change"}, {"time": 4398, "annotation": {"number": 64, "value": 0}, "group": "control_change"}, {"time": 4403, "annotation": {"number": 64, "value": 127}, "group": "control_change"}, {"time": 4423, "annotation": {"number": 64, "value": 0}, "group": "control_change"}, {"time": 4426, "annotation": {"number": 64, "value": 127}, "group": "control_change"}, {"time": 4471, "annotation": {"number": 64, "value": 0}, "group": "control_change"}, {"time": 4474, "annotation": {"number": 64, "value": 127}, "group": "control_change"}, {"time": 4519, "annotation": {"number": 64, "value": 0}, "group": "control_change"}, {"time": 4523, "annotation": {"number": 64, "value": 127}, "group": "control_change"}, {"time": 4566, "annotation": {"number": 64, "value": 0}, "group": "control_change"}, {"time": 4569, "annotation": {"number": 64, "value": 127}, "group": "control_change"}, {"time": 4613, "annotation": {"number": 64, "value": 0}, "group": "control_change"}, {"time": 4616, "annotation": {"number": 64, "value": 127}, "group": "control_change"}, {"time": 4662, "annotation": {"number": 64, "value": 0}, "group": "control_change"}, {"time": 4665, "annotation": {"number": 64, "value": 127}, "group": "control_change"}, {"time": 4685, "annotation": {"number": 64, "value": 0}, "group": "control_change"}, {"time": 4734, "annotation": {"number": 64, "value": 0}, "group": "control_change"}, {"time": 4737, "annotation": {"number": 64, "value": 127}, "group": "control_change"}, {"time": 4758, "annotation": {"number": 64, "value": 0}, "group": "control_change"}, {"time": 4761, "annotation": {"number": 64, "value": 127}, "group": "control_change"}, {"time": 4781, "annotation": {"number": 64, "value": 0}, "group": "control_change"}, {"time": 4785, "annotation": {"number": 64, "value": 127}, "group": "control_change"}, {"time": 4805, "annotation": {"number": 64, "value": 0}, "group": "control_change"}, {"time": 4809, "annotation": {"number": 64, "value": 127}, "group": "control_change"}, {"time": 4828, "annotation": {"number": 64, "value": 0}, "group": "control_change"}, {"time": 4832, "annotation": {"number": 64, "value": 127}, "group": "control_change"}, {"time": 4853, "annotation": {"number": 64, "value": 0}, "group": "control_change"}, {"time": 4857, "annotation": {"number": 64, "value": 127}, "group": "control_change"}, {"time": 4878, "annotation": {"number": 64, "value": 0}, "group": "control_change"}, {"time": 4881, "annotation": {"number": 64, "value": 127}, "group": "control_change"}, {"time": 4901, "annotation": {"number": 64, "value": 0}, "group": "control_change"}, {"time": 4926, "annotation": {"number": 64, "value": 0}, "group": "control_change"}, {"time": 4929, "annotation": {"number": 64, "value": 127}, "group": "control_change"}, {"time": 4950, "annotation": {"number": 64, "value": 0}, "group": "control_change"}, {"time": 4953, "annotation": {"number": 64, "value": 127}, "group": "control_change"}, {"time": 4973, "annotation": {"number": 64, "value": 0}, "group": "control_change"}, {"time": 4977, "annotation": {"number": 64, "value": 127}, "group": "control_change"}, {"time": 4997, "annotation": {"number": 64, "value": 0}, "group": "control_change"}, {"time": 5001, "annotation": {"number": 64, "value": 127}, "group": "control_change"}, {"time": 5020, "annotation": {"number": 64, "value": 0}, "group": "control_change"}, {"time": 5024, "annotation": {"number": 64, "value": 127}, "group": "control_change"}, {"time": 5045, "annotation": {"number": 64, "value": 0}, "group": "control_change"}, {"time": 5049, "annotation": {"number": 64, "value": 127}, "group": "control_change"}, {"time": 5070, "annotation": {"number": 64, "value": 0}, "group": "control_change"}, {"time": 5073, "annotation": {"number": 64, "value": 127}, "group": "control_change"}, {"time": 5093, "annotation": {"number": 64, "value": 0}, "group": "control_change"}, {"time": 5118, "annotation": {"number": 64, "value": 0}, "group": "control_change"}, {"time": 5121, "annotation": {"number": 64, "value": 127}, "group": "control_change"}, {"time": 5142, "annotation": {"number": 64, "value": 0}, "group": "control_change"}, {"time": 5145, "annotation": {"number": 64, "value": 127}, "group": "control_change"}, {"time": 5165, "annotation": {"number": 64, "value": 0}, "group": "control_change"}, {"time": 5169, "annotation": {"number": 64, "value": 127}, "group": "control_change"}, {"time": 5189, "annotation": {"number": 64, "value": 0}, "group": "control_change"}, {"time": 5193, "annotation": {"number": 64, "value": 127}, "group": "control_change"}, {"time": 5212, "annotation": {"number": 64, "value": 0}, "group": "control_change"}, {"time": 5216, "annotation": {"number": 64, "value": 127}, "group": "control_change"}, {"time": 5237, "annotation": {"number": 64, "value": 0}, "group": "control_change"}, {"time": 5241, "annotation": {"number": 64, "value": 127}, "group": "control_change"}, {"time": 5262, "annotation": {"number": 64, "value": 0}, "group": "control_change"}, {"time": 5265, "annotation": {"number": 64, "value": 127}, "group": "control_change"}, {"time": 5285, "annotation": {"number": 64, "value": 0}, "group": "control_change"}, {"time": 5310, "annotation": {"number": 64, "value": 0}, "group": "control_change"}, {"time": 5313, "annotation": {"number": 64, "value": 127}, "group": "control_change"}, {"time": 5334, "annotation": {"number": 64, "value": 0}, "group": "control_change"}, {"time": 5337, "annotation": {"number": 64, "value": 127}, "group": "control_change"}, {"time": 5357, "annotation": {"number": 64, "value": 0}, "group": "control_change"}, {"time": 5361, "annotation": {"number": 64, "value": 127}, "group": "control_change"}, {"time": 5381, "annotation": {"number": 64, "value": 0}, "group": "control_change"}, {"time": 5385, "annotation": {"number": 64, "value": 127}, "group": "control_change"}, {"time": 5404, "annotation": {"number": 64, "value": 0}, "group": "control_change"}, {"time": 5408, "annotation": {"number": 64, "value": 127}, "group": "control_change"}, {"time": 5429, "annotation": {"number": 64, "value": 0}, "group": "control_change"}, {"time": 5433, "annotation": {"number": 64, "value": 127}, "group": "control_change"}, {"time": 5454, "annotation": {"number": 64, "value": 0}, "group": "control_change"}, {"time": 5457, "annotation": {"number": 64, "value": 127}, "group": "control_change"}, {"time": 5477, "annotation": {"number": 64, "value": 0}, "group": "control_change"}, {"time": 5482, "annotation": {"number": 64, "value": 127}, "group": "control_change"}, {"time": 5527, "annotation": {"number": 64, "value": 0}, "group": "control_change"}, {"time": 5530, "annotation": {"number": 64, "value": 127}, "group": "control_change"}, {"time": 5574, "annotation": {"number": 64, "value": 0}, "group": "control_change"}, {"time": 5578, "annotation": {"number": 64, "value": 127}, "group": "control_change"}, {"time": 5598, "annotation": {"number": 64, "value": 0}, "group": "control_change"}, {"time": 5603, "annotation": {"number": 64, "value": 127}, "group": "control_change"}, {"time": 5622, "annotation": {"number": 64, "value": 0}, "group": "control_change"}, {"time": 5625, "annotation": {"number": 64, "value": 127}, "group": "control_change"}, {"time": 5646, "annotation": {"number": 64, "value": 0}, "group": "control_change"}, {"time": 5650, "annotation": {"number": 64, "value": 127}, "group": "control_change"}, {"time": 5671, "annotation": {"number": 64, "value": 0}, "group": "control_change"}, {"time": 5674, "annotation": {"number": 64, "value": 127}, "group": "control_change"}, {"time": 5695, "annotation": {"number": 64, "value": 0}, "group": "control_change"}, {"time": 5699, "annotation": {"number": 64, "value": 127}, "group": "control_change"}, {"time": 5718, "annotation": {"number": 64, "value": 0}, "group": "control_change"}, {"time": 5721, "annotation": {"number": 64, "value": 127}, "group": "control_change"}, {"time": 5743, "annotation": {"number": 64, "value": 0}, "group": "control_change"}, {"time": 5746, "annotation": {"number": 64, "value": 127}, "group": "control_change"}, {"time": 5766, "annotation": {"number": 64, "value": 0}, "group": "control_change"}, {"time": 5770, "annotation": {"number": 64, "value": 127}, "group": "control_change"}, {"time": 5794, "annotation": {"number": 64, "value": 0}, "group": "control_change"}, {"time": 5798, "annotation": {"number": 64, "value": 127}, "group": "control_change"}, {"time": 5814, "annotation": {"number": 64, "value": 0}, "group": "control_change"}, {"time": 5818, "annotation": {"number": 64, "value": 127}, "group": "control_change"}, {"time": 5840, "annotation": {"number": 64, "value": 0}, "group": "control_change"}, {"time": 5843, "annotation": {"number": 64, "value": 127}, "group": "control_change"}, {"time": 5860, "annotation": {"number": 64, "value": 0}, "group": "control_change"}, {"time": 5865, "annotation": {"number": 64, "value": 127}, "group": "control_change"}, {"time": 5866, "annotation": {"number": 64, "value": 127}, "group": "control_change"}, {"time": 5911, "annotation": {"number": 64, "value": 0}, "group": "control_change"}, {"time": 5914, "annotation": {"number": 64, "value": 127}, "group": "control_change"}, {"time": 5958, "annotation": {"number": 64, "value": 0}, "group": "control_change"}, {"time": 5962, "annotation": {"number": 64, "value": 127}, "group": "control_change"}, {"time": 5982, "annotation": {"number": 64, "value": 0}, "group": "control_change"}, {"time": 5987, "annotation": {"number": 64, "value": 127}, "group": "control_change"}, {"time": 6006, "annotation": {"number": 64, "value": 0}, "group": "control_change"}, {"time": 6009, "annotation": {"number": 64, "value": 127}, "group": "control_change"}, {"time": 6030, "annotation": {"number": 64, "value": 0}, "group": "control_change"}, {"time": 6034, "annotation": {"number": 64, "value": 127}, "group": "control_change"}, {"time": 6055, "annotation": {"number": 64, "value": 0}, "group": "control_change"}, {"time": 6058, "annotation": {"number": 64, "value": 127}, "group": "control_change"}, {"time": 6079, "annotation": {"number": 64, "value": 0}, "group": "control_change"}, {"time": 6083, "annotation": {"number": 64, "value": 127}, "group": "control_change"}, {"time": 6102, "annotation": {"number": 64, "value": 0}, "group": "control_change"}, {"time": 6105, "annotation": {"number": 64, "value": 127}, "group": "control_change"}, {"time": 6127, "annotation": {"number": 64, "value": 0}, "group": "control_change"}, {"time": 6130, "annotation": {"number": 64, "value": 127}, "group": "control_change"}, {"time": 6150, "annotation": {"number": 64, "value": 0}, "group": "control_change"}, {"time": 6154, "annotation": {"number": 64, "value": 127}, "group": "control_change"}, {"time": 6178, "annotation": {"number": 64, "value": 0}, "group": "control_change"}, {"time": 6182, "annotation": {"number": 64, "value": 127}, "group": "control_change"}, {"time": 6198, "annotation": {"number": 64, "value": 0}, "group": "control_change"}]}]}