{"metadata": {"schema_version": "0.2", "title": "None", "source_filename": "831.mid", "source_format": "midi"}, "resolution": 12, "tempos": [{"time": 0, "qpm": 80.0}], "time_signatures": [{"time": 0, "numerator": 1, "denominator": 4}], "tracks": [{"program": 4, "is_drum": false, "name": "MELODY", "notes": [{"time": 405, "pitch": 69, "duration": 4, "velocity": 84}, {"time": 411, "pitch": 69, "duration": 5, "velocity": 83}, {"time": 417, "pitch": 69, "duration": 6, "velocity": 85}, {"time": 423, "pitch": 67, "duration": 7, "velocity": 82}, {"time": 429, "pitch": 65, "duration": 19, "velocity": 83}, {"time": 453, "pitch": 64, "duration": 5, "velocity": 83}, {"time": 459, "pitch": 62, "duration": 5, "velocity": 83}, {"time": 465, "pitch": 64, "duration": 6, "velocity": 82}, {"time": 471, "pitch": 60, "duration": 6, "velocity": 74}, {"time": 477, "pitch": 62, "duration": 19, "velocity": 71}, {"time": 501, "pitch": 65, "duration": 5, "velocity": 83}, {"time": 507, "pitch": 65, "duration": 5, "velocity": 85}, {"time": 513, "pitch": 65, "duration": 5, "velocity": 87}, {"time": 519, "pitch": 62, "duration": 5, "velocity": 87}, {"time": 525, "pitch": 72, "duration": 12, "velocity": 86}, {"time": 537, "pitch": 69, "duration": 7, "velocity": 79}, {"time": 543, "pitch": 67, "duration": 7, "velocity": 78}, {"time": 549, "pitch": 69, "duration": 37, "velocity": 83}, {"time": 597, "pitch": 69, "duration": 6, "velocity": 84}, {"time": 603, "pitch": 74, "duration": 5, "velocity": 87}, {"time": 609, "pitch": 74, "duration": 4, "velocity": 89}, {"time": 615, "pitch": 72, "duration": 6, "velocity": 79}, {"time": 621, "pitch": 69, "duration": 19, "velocity": 85}, {"time": 639, "pitch": 67, "duration": 7, "velocity": 75}, {"time": 645, "pitch": 65, "duration": 5, "velocity": 79}, {"time": 651, "pitch": 65, "duration": 6, "velocity": 80}, {"time": 657, "pitch": 62, "duration": 6, "velocity": 85}, {"time": 663, "pitch": 60, "duration": 7, "velocity": 83}, {"time": 669, "pitch": 57, "duration": 22, "velocity": 83}, {"time": 693, "pitch": 57, "duration": 7, "velocity": 84}, {"time": 699, "pitch": 60, "duration": 6, "velocity": 84}, {"time": 705, "pitch": 62, "duration": 7, "velocity": 84}, {"time": 711, "pitch": 69, "duration": 7, "velocity": 87}, {"time": 717, "pitch": 67, "duration": 7, "velocity": 83}, {"time": 723, "pitch": 65, "duration": 7, "velocity": 83}, {"time": 729, "pitch": 62, "duration": 7, "velocity": 84}, {"time": 735, "pitch": 60, "duration": 7, "velocity": 84}, {"time": 741, "pitch": 62, "duration": 44, "velocity": 83}, {"time": 789, "pitch": 69, "duration": 4, "velocity": 84}, {"time": 795, "pitch": 69, "duration": 5, "velocity": 83}, {"time": 801, "pitch": 69, "duration": 6, "velocity": 85}, {"time": 807, "pitch": 67, "duration": 7, "velocity": 82}, {"time": 813, "pitch": 65, "duration": 19, "velocity": 83}, {"time": 837, "pitch": 64, "duration": 5, "velocity": 83}, {"time": 843, "pitch": 62, "duration": 5, "velocity": 83}, {"time": 849, "pitch": 64, "duration": 6, "velocity": 82}, {"time": 855, "pitch": 60, "duration": 6, "velocity": 74}, {"time": 861, "pitch": 62, "duration": 19, "velocity": 71}, {"time": 885, "pitch": 65, "duration": 5, "velocity": 83}, {"time": 891, "pitch": 65, "duration": 5, "velocity": 85}, {"time": 897, "pitch": 65, "duration": 5, "velocity": 87}, {"time": 903, "pitch": 62, "duration": 5, "velocity": 87}, {"time": 909, "pitch": 72, "duration": 12, "velocity": 86}, {"time": 921, "pitch": 69, "duration": 7, "velocity": 79}, {"time": 927, "pitch": 67, "duration": 7, "velocity": 78}, {"time": 933, "pitch": 69, "duration": 37, "velocity": 83}, {"time": 981, "pitch": 69, "duration": 6, "velocity": 84}, {"time": 987, "pitch": 74, "duration": 5, "velocity": 87}, {"time": 993, "pitch": 74, "duration": 4, "velocity": 89}, {"time": 999, "pitch": 72, "duration": 6, "velocity": 79}, {"time": 1005, "pitch": 69, "duration": 19, "velocity": 85}, {"time": 1023, "pitch": 67, "duration": 7, "velocity": 75}, {"time": 1029, "pitch": 65, "duration": 5, "velocity": 79}, {"time": 1035, "pitch": 65, "duration": 6, "velocity": 80}, {"time": 1041, "pitch": 62, "duration": 6, "velocity": 85}, {"time": 1047, "pitch": 60, "duration": 7, "velocity": 83}, {"time": 1053, "pitch": 57, "duration": 22, "velocity": 83}, {"time": 1077, "pitch": 57, "duration": 7, "velocity": 84}, {"time": 1083, "pitch": 60, "duration": 6, "velocity": 84}, {"time": 1089, "pitch": 62, "duration": 7, "velocity": 84}, {"time": 1095, "pitch": 69, "duration": 7, "velocity": 87}, {"time": 1101, "pitch": 67, "duration": 7, "velocity": 83}, {"time": 1107, "pitch": 65, "duration": 7, "velocity": 83}, {"time": 1113, "pitch": 62, "duration": 7, "velocity": 84}, {"time": 1119, "pitch": 60, "duration": 7, "velocity": 84}, {"time": 1125, "pitch": 62, "duration": 30, "velocity": 83}, {"time": 1161, "pitch": 69, "duration": 5, "velocity": 89}, {"time": 1167, "pitch": 72, "duration": 6, "velocity": 89}, {"time": 1173, "pitch": 74, "duration": 8, "velocity": 89}, {"time": 1182, "pitch": 74, "duration": 8, "velocity": 94}, {"time": 1191, "pitch": 77, "duration": 7, "velocity": 83}, {"time": 1197, "pitch": 76, "duration": 7, "velocity": 88}, {"time": 1203, "pitch": 74, "duration": 5, "velocity": 94}, {"time": 1209, "pitch": 74, "duration": 6, "velocity": 92}, {"time": 1215, "pitch": 72, "duration": 7, "velocity": 84}, {"time": 1221, "pitch": 74, "duration": 33, "velocity": 92}, {"time": 1257, "pitch": 69, "duration": 5, "velocity": 89}, {"time": 1263, "pitch": 72, "duration": 6, "velocity": 89}, {"time": 1269, "pitch": 74, "duration": 8, "velocity": 89}, {"time": 1278, "pitch": 74, "duration": 8, "velocity": 94}, {"time": 1287, "pitch": 77, "duration": 7, "velocity": 83}, {"time": 1293, "pitch": 76, "duration": 7, "velocity": 88}, {"time": 1299, "pitch": 74, "duration": 5, "velocity": 94}, {"time": 1305, "pitch": 74, "duration": 6, "velocity": 92}, {"time": 1311, "pitch": 72, "duration": 7, "velocity": 84}, {"time": 1317, "pitch": 69, "duration": 33, "velocity": 92}, {"time": 1353, "pitch": 69, "duration": 5, "velocity": 94}, {"time": 1359, "pitch": 72, "duration": 5, "velocity": 87}, {"time": 1365, "pitch": 74, "duration": 9, "velocity": 86}, {"time": 1374, "pitch": 74, "duration": 9, "velocity": 89}, {"time": 1383, "pitch": 72, "duration": 7, "velocity": 89}, {"time": 1389, "pitch": 69, "duration": 5, "velocity": 87}, {"time": 1395, "pitch": 62, "duration": 5, "velocity": 87}, {"time": 1401, "pitch": 65, "duration": 7, "velocity": 84}, {"time": 1407, "pitch": 69, "duration": 7, "velocity": 85}, {"time": 1413, "pitch": 67, "duration": 32, "velocity": 83}, {"time": 1449, "pitch": 62, "duration": 5, "velocity": 84}, {"time": 1455, "pitch": 65, "duration": 7, "velocity": 85}, {"time": 1461, "pitch": 67, "duration": 5, "velocity": 81}, {"time": 1467, "pitch": 67, "duration": 5, "velocity": 79}, {"time": 1473, "pitch": 67, "duration": 6, "velocity": 84}, {"time": 1479, "pitch": 69, "duration": 7, "velocity": 83}, {"time": 1485, "pitch": 72, "duration": 6, "velocity": 85}, {"time": 1491, "pitch": 69, "duration": 7, "velocity": 84}, {"time": 1497, "pitch": 72, "duration": 6, "velocity": 83}, {"time": 1503, "pitch": 67, "duration": 7, "velocity": 82}, {"time": 1509, "pitch": 69, "duration": 34, "velocity": 84}, {"time": 1545, "pitch": 69, "duration": 5, "velocity": 89}, {"time": 1551, "pitch": 72, "duration": 6, "velocity": 89}, {"time": 1557, "pitch": 74, "duration": 8, "velocity": 89}, {"time": 1566, "pitch": 74, "duration": 8, "velocity": 94}, {"time": 1575, "pitch": 77, "duration": 7, "velocity": 83}, {"time": 1581, "pitch": 76, "duration": 7, "velocity": 88}, {"time": 1587, "pitch": 74, "duration": 5, "velocity": 94}, {"time": 1593, "pitch": 74, "duration": 6, "velocity": 92}, {"time": 1599, "pitch": 72, "duration": 7, "velocity": 84}, {"time": 1605, "pitch": 74, "duration": 33, "velocity": 92}, {"time": 1641, "pitch": 69, "duration": 5, "velocity": 89}, {"time": 1647, "pitch": 72, "duration": 6, "velocity": 89}, {"time": 1653, "pitch": 74, "duration": 8, "velocity": 89}, {"time": 1662, "pitch": 74, "duration": 8, "velocity": 94}, {"time": 1671, "pitch": 77, "duration": 7, "velocity": 83}, {"time": 1677, "pitch": 76, "duration": 7, "velocity": 88}, {"time": 1683, "pitch": 74, "duration": 5, "velocity": 94}, {"time": 1689, "pitch": 74, "duration": 6, "velocity": 92}, {"time": 1695, "pitch": 72, "duration": 7, "velocity": 84}, {"time": 1701, "pitch": 69, "duration": 33, "velocity": 92}, {"time": 1749, "pitch": 69, "duration": 6, "velocity": 87}, {"time": 1755, "pitch": 74, "duration": 5, "velocity": 85}, {"time": 1761, "pitch": 74, "duration": 6, "velocity": 88}, {"time": 1767, "pitch": 69, "duration": 5, "velocity": 84}, {"time": 1773, "pitch": 67, "duration": 21, "velocity": 84}, {"time": 1797, "pitch": 69, "duration": 5, "velocity": 85}, {"time": 1803, "pitch": 72, "duration": 5, "velocity": 85}, {"time": 1809, "pitch": 72, "duration": 6, "velocity": 84}, {"time": 1815, "pitch": 69, "duration": 6, "velocity": 84}, {"time": 1821, "pitch": 65, "duration": 22, "velocity": 83}, {"time": 1845, "pitch": 64, "duration": 4, "velocity": 89}, {"time": 1851, "pitch": 64, "duration": 4, "velocity": 88}, {"time": 1857, "pitch": 64, "duration": 5, "velocity": 90}, {"time": 1863, "pitch": 72, "duration": 7, "velocity": 87}, {"time": 1869, "pitch": 69, "duration": 7, "velocity": 87}, {"time": 1875, "pitch": 67, "duration": 7, "velocity": 84}, {"time": 1881, "pitch": 65, "duration": 3, "velocity": 84}, {"time": 1884, "pitch": 67, "duration": 4, "velocity": 83}, {"time": 1887, "pitch": 65, "duration": 4, "velocity": 82}, {"time": 1890, "pitch": 64, "duration": 4, "velocity": 85}, {"time": 1893, "pitch": 62, "duration": 46, "velocity": 86}, {"time": 2325, "pitch": 69, "duration": 4, "velocity": 84}, {"time": 2331, "pitch": 69, "duration": 5, "velocity": 83}, {"time": 2337, "pitch": 69, "duration": 6, "velocity": 85}, {"time": 2343, "pitch": 67, "duration": 7, "velocity": 82}, {"time": 2349, "pitch": 65, "duration": 19, "velocity": 83}, {"time": 2373, "pitch": 64, "duration": 5, "velocity": 83}, {"time": 2379, "pitch": 62, "duration": 5, "velocity": 83}, {"time": 2385, "pitch": 64, "duration": 6, "velocity": 82}, {"time": 2391, "pitch": 60, "duration": 6, "velocity": 74}, {"time": 2397, "pitch": 62, "duration": 19, "velocity": 71}, {"time": 2421, "pitch": 65, "duration": 5, "velocity": 83}, {"time": 2427, "pitch": 65, "duration": 5, "velocity": 85}, {"time": 2433, "pitch": 65, "duration": 5, "velocity": 87}, {"time": 2439, "pitch": 62, "duration": 5, "velocity": 87}, {"time": 2445, "pitch": 72, "duration": 12, "velocity": 86}, {"time": 2457, "pitch": 69, "duration": 7, "velocity": 79}, {"time": 2463, "pitch": 67, "duration": 7, "velocity": 78}, {"time": 2469, "pitch": 69, "duration": 37, "velocity": 83}, {"time": 2517, "pitch": 69, "duration": 6, "velocity": 84}, {"time": 2523, "pitch": 74, "duration": 5, "velocity": 87}, {"time": 2529, "pitch": 74, "duration": 4, "velocity": 89}, {"time": 2535, "pitch": 72, "duration": 6, "velocity": 79}, {"time": 2541, "pitch": 69, "duration": 19, "velocity": 85}, {"time": 2559, "pitch": 67, "duration": 7, "velocity": 75}, {"time": 2565, "pitch": 65, "duration": 5, "velocity": 79}, {"time": 2571, "pitch": 65, "duration": 6, "velocity": 80}, {"time": 2577, "pitch": 62, "duration": 6, "velocity": 85}, {"time": 2583, "pitch": 60, "duration": 7, "velocity": 83}, {"time": 2589, "pitch": 57, "duration": 22, "velocity": 83}, {"time": 2613, "pitch": 57, "duration": 7, "velocity": 84}, {"time": 2619, "pitch": 60, "duration": 6, "velocity": 84}, {"time": 2625, "pitch": 62, "duration": 7, "velocity": 84}, {"time": 2631, "pitch": 69, "duration": 7, "velocity": 87}, {"time": 2637, "pitch": 67, "duration": 7, "velocity": 83}, {"time": 2643, "pitch": 65, "duration": 7, "velocity": 83}, {"time": 2649, "pitch": 62, "duration": 7, "velocity": 84}, {"time": 2655, "pitch": 60, "duration": 7, "velocity": 84}, {"time": 2661, "pitch": 62, "duration": 30, "velocity": 83}, {"time": 2697, "pitch": 69, "duration": 5, "velocity": 89}, {"time": 2703, "pitch": 72, "duration": 6, "velocity": 89}, {"time": 2709, "pitch": 74, "duration": 8, "velocity": 89}, {"time": 2718, "pitch": 74, "duration": 8, "velocity": 94}, {"time": 2727, "pitch": 77, "duration": 7, "velocity": 83}, {"time": 2733, "pitch": 76, "duration": 7, "velocity": 88}, {"time": 2739, "pitch": 74, "duration": 5, "velocity": 94}, {"time": 2745, "pitch": 74, "duration": 6, "velocity": 92}, {"time": 2751, "pitch": 72, "duration": 7, "velocity": 84}, {"time": 2757, "pitch": 74, "duration": 33, "velocity": 92}, {"time": 2793, "pitch": 69, "duration": 5, "velocity": 89}, {"time": 2799, "pitch": 72, "duration": 6, "velocity": 89}, {"time": 2805, "pitch": 74, "duration": 8, "velocity": 89}, {"time": 2814, "pitch": 74, "duration": 8, "velocity": 94}, {"time": 2823, "pitch": 77, "duration": 7, "velocity": 83}, {"time": 2829, "pitch": 76, "duration": 7, "velocity": 88}, {"time": 2835, "pitch": 74, "duration": 5, "velocity": 94}, {"time": 2841, "pitch": 74, "duration": 6, "velocity": 92}, {"time": 2847, "pitch": 72, "duration": 7, "velocity": 84}, {"time": 2853, "pitch": 69, "duration": 33, "velocity": 92}, {"time": 2889, "pitch": 69, "duration": 5, "velocity": 94}, {"time": 2895, "pitch": 72, "duration": 5, "velocity": 87}, {"time": 2901, "pitch": 74, "duration": 9, "velocity": 86}, {"time": 2910, "pitch": 74, "duration": 9, "velocity": 89}, {"time": 2919, "pitch": 72, "duration": 7, "velocity": 89}, {"time": 2925, "pitch": 69, "duration": 5, "velocity": 87}, {"time": 2931, "pitch": 62, "duration": 5, "velocity": 87}, {"time": 2937, "pitch": 65, "duration": 7, "velocity": 84}, {"time": 2943, "pitch": 69, "duration": 7, "velocity": 85}, {"time": 2949, "pitch": 67, "duration": 32, "velocity": 83}, {"time": 2985, "pitch": 62, "duration": 5, "velocity": 84}, {"time": 2991, "pitch": 65, "duration": 7, "velocity": 85}, {"time": 2997, "pitch": 67, "duration": 5, "velocity": 81}, {"time": 3003, "pitch": 67, "duration": 5, "velocity": 79}, {"time": 3009, "pitch": 67, "duration": 6, "velocity": 84}, {"time": 3015, "pitch": 69, "duration": 7, "velocity": 83}, {"time": 3021, "pitch": 72, "duration": 6, "velocity": 85}, {"time": 3027, "pitch": 69, "duration": 7, "velocity": 84}, {"time": 3033, "pitch": 72, "duration": 6, "velocity": 83}, {"time": 3039, "pitch": 67, "duration": 7, "velocity": 82}, {"time": 3045, "pitch": 69, "duration": 34, "velocity": 84}, {"time": 3081, "pitch": 69, "duration": 5, "velocity": 89}, {"time": 3087, "pitch": 72, "duration": 6, "velocity": 89}, {"time": 3093, "pitch": 74, "duration": 8, "velocity": 89}, {"time": 3102, "pitch": 74, "duration": 8, "velocity": 94}, {"time": 3111, "pitch": 77, "duration": 7, "velocity": 83}, {"time": 3117, "pitch": 76, "duration": 7, "velocity": 88}, {"time": 3123, "pitch": 74, "duration": 5, "velocity": 94}, {"time": 3129, "pitch": 74, "duration": 6, "velocity": 92}, {"time": 3135, "pitch": 72, "duration": 7, "velocity": 84}, {"time": 3141, "pitch": 74, "duration": 33, "velocity": 92}, {"time": 3177, "pitch": 69, "duration": 5, "velocity": 89}, {"time": 3183, "pitch": 72, "duration": 6, "velocity": 89}, {"time": 3189, "pitch": 74, "duration": 8, "velocity": 89}, {"time": 3198, "pitch": 74, "duration": 8, "velocity": 94}, {"time": 3207, "pitch": 77, "duration": 7, "velocity": 83}, {"time": 3213, "pitch": 76, "duration": 7, "velocity": 88}, {"time": 3219, "pitch": 74, "duration": 5, "velocity": 94}, {"time": 3225, "pitch": 74, "duration": 6, "velocity": 92}, {"time": 3231, "pitch": 72, "duration": 7, "velocity": 84}, {"time": 3237, "pitch": 69, "duration": 33, "velocity": 92}, {"time": 3285, "pitch": 69, "duration": 6, "velocity": 87}, {"time": 3291, "pitch": 74, "duration": 5, "velocity": 85}, {"time": 3297, "pitch": 74, "duration": 6, "velocity": 88}, {"time": 3303, "pitch": 69, "duration": 5, "velocity": 84}, {"time": 3309, "pitch": 67, "duration": 21, "velocity": 84}, {"time": 3333, "pitch": 69, "duration": 5, "velocity": 85}, {"time": 3339, "pitch": 72, "duration": 5, "velocity": 85}, {"time": 3345, "pitch": 72, "duration": 6, "velocity": 84}, {"time": 3351, "pitch": 69, "duration": 6, "velocity": 84}, {"time": 3357, "pitch": 65, "duration": 22, "velocity": 83}, {"time": 3381, "pitch": 64, "duration": 4, "velocity": 89}, {"time": 3387, "pitch": 64, "duration": 4, "velocity": 88}, {"time": 3393, "pitch": 64, "duration": 5, "velocity": 90}, {"time": 3399, "pitch": 72, "duration": 7, "velocity": 87}, {"time": 3405, "pitch": 69, "duration": 7, "velocity": 87}, {"time": 3411, "pitch": 67, "duration": 7, "velocity": 84}, {"time": 3417, "pitch": 65, "duration": 3, "velocity": 84}, {"time": 3420, "pitch": 67, "duration": 4, "velocity": 83}, {"time": 3423, "pitch": 65, "duration": 4, "velocity": 82}, {"time": 3426, "pitch": 64, "duration": 4, "velocity": 85}, {"time": 3429, "pitch": 62, "duration": 46, "velocity": 86}, {"time": 3513, "pitch": 70, "duration": 5, "velocity": 89}, {"time": 3519, "pitch": 73, "duration": 6, "velocity": 89}, {"time": 3525, "pitch": 75, "duration": 8, "velocity": 89}, {"time": 3534, "pitch": 75, "duration": 8, "velocity": 94}, {"time": 3543, "pitch": 78, "duration": 7, "velocity": 83}, {"time": 3549, "pitch": 77, "duration": 7, "velocity": 88}, {"time": 3555, "pitch": 75, "duration": 5, "velocity": 94}, {"time": 3561, "pitch": 75, "duration": 6, "velocity": 92}, {"time": 3567, "pitch": 73, "duration": 7, "velocity": 84}, {"time": 3573, "pitch": 75, "duration": 33, "velocity": 92}, {"time": 3609, "pitch": 70, "duration": 5, "velocity": 89}, {"time": 3615, "pitch": 73, "duration": 6, "velocity": 89}, {"time": 3621, "pitch": 75, "duration": 8, "velocity": 89}, {"time": 3630, "pitch": 75, "duration": 8, "velocity": 94}, {"time": 3639, "pitch": 78, "duration": 7, "velocity": 83}, {"time": 3645, "pitch": 77, "duration": 7, "velocity": 88}, {"time": 3651, "pitch": 75, "duration": 5, "velocity": 94}, {"time": 3657, "pitch": 75, "duration": 6, "velocity": 92}, {"time": 3663, "pitch": 73, "duration": 7, "velocity": 84}, {"time": 3669, "pitch": 70, "duration": 33, "velocity": 92}, {"time": 3705, "pitch": 70, "duration": 5, "velocity": 94}, {"time": 3711, "pitch": 73, "duration": 5, "velocity": 87}, {"time": 3717, "pitch": 75, "duration": 9, "velocity": 86}, {"time": 3726, "pitch": 75, "duration": 9, "velocity": 89}, {"time": 3735, "pitch": 73, "duration": 7, "velocity": 89}, {"time": 3741, "pitch": 70, "duration": 5, "velocity": 87}, {"time": 3747, "pitch": 63, "duration": 5, "velocity": 87}, {"time": 3753, "pitch": 66, "duration": 7, "velocity": 84}, {"time": 3759, "pitch": 70, "duration": 7, "velocity": 85}, {"time": 3765, "pitch": 68, "duration": 32, "velocity": 83}, {"time": 3801, "pitch": 63, "duration": 5, "velocity": 84}, {"time": 3807, "pitch": 66, "duration": 7, "velocity": 85}, {"time": 3813, "pitch": 68, "duration": 5, "velocity": 81}, {"time": 3819, "pitch": 68, "duration": 5, "velocity": 79}, {"time": 3825, "pitch": 68, "duration": 6, "velocity": 84}, {"time": 3831, "pitch": 70, "duration": 7, "velocity": 83}, {"time": 3837, "pitch": 73, "duration": 6, "velocity": 85}, {"time": 3843, "pitch": 70, "duration": 7, "velocity": 84}, {"time": 3849, "pitch": 73, "duration": 6, "velocity": 83}, {"time": 3855, "pitch": 68, "duration": 7, "velocity": 82}, {"time": 3861, "pitch": 70, "duration": 34, "velocity": 84}, {"time": 3897, "pitch": 70, "duration": 5, "velocity": 89}, {"time": 3903, "pitch": 73, "duration": 6, "velocity": 89}, {"time": 3909, "pitch": 75, "duration": 8, "velocity": 89}, {"time": 3918, "pitch": 75, "duration": 8, "velocity": 94}, {"time": 3927, "pitch": 78, "duration": 7, "velocity": 83}, {"time": 3933, "pitch": 77, "duration": 7, "velocity": 88}, {"time": 3939, "pitch": 75, "duration": 5, "velocity": 94}, {"time": 3945, "pitch": 75, "duration": 6, "velocity": 92}, {"time": 3951, "pitch": 73, "duration": 7, "velocity": 84}, {"time": 3957, "pitch": 75, "duration": 33, "velocity": 92}, {"time": 3993, "pitch": 70, "duration": 5, "velocity": 89}, {"time": 3999, "pitch": 73, "duration": 6, "velocity": 89}, {"time": 4005, "pitch": 75, "duration": 8, "velocity": 89}, {"time": 4014, "pitch": 75, "duration": 8, "velocity": 94}, {"time": 4023, "pitch": 78, "duration": 7, "velocity": 83}, {"time": 4029, "pitch": 77, "duration": 7, "velocity": 88}, {"time": 4035, "pitch": 75, "duration": 5, "velocity": 94}, {"time": 4041, "pitch": 75, "duration": 6, "velocity": 92}, {"time": 4047, "pitch": 73, "duration": 7, "velocity": 84}, {"time": 4053, "pitch": 70, "duration": 33, "velocity": 92}, {"time": 4101, "pitch": 70, "duration": 6, "velocity": 87}, {"time": 4107, "pitch": 75, "duration": 5, "velocity": 85}, {"time": 4113, "pitch": 75, "duration": 6, "velocity": 88}, {"time": 4119, "pitch": 70, "duration": 5, "velocity": 84}, {"time": 4125, "pitch": 68, "duration": 21, "velocity": 84}, {"time": 4149, "pitch": 70, "duration": 5, "velocity": 85}, {"time": 4155, "pitch": 73, "duration": 5, "velocity": 85}, {"time": 4161, "pitch": 73, "duration": 6, "velocity": 84}, {"time": 4167, "pitch": 70, "duration": 6, "velocity": 84}, {"time": 4173, "pitch": 66, "duration": 22, "velocity": 83}, {"time": 4197, "pitch": 65, "duration": 4, "velocity": 89}, {"time": 4203, "pitch": 65, "duration": 4, "velocity": 88}, {"time": 4209, "pitch": 65, "duration": 5, "velocity": 90}, {"time": 4215, "pitch": 73, "duration": 7, "velocity": 87}, {"time": 4221, "pitch": 70, "duration": 7, "velocity": 87}, {"time": 4227, "pitch": 68, "duration": 7, "velocity": 84}, {"time": 4233, "pitch": 66, "duration": 3, "velocity": 84}, {"time": 4236, "pitch": 68, "duration": 4, "velocity": 83}, {"time": 4239, "pitch": 66, "duration": 4, "velocity": 82}, {"time": 4242, "pitch": 65, "duration": 4, "velocity": 85}, {"time": 4245, "pitch": 63, "duration": 46, "velocity": 86}, {"time": 4294, "pitch": 65, "duration": 5, "velocity": 84}, {"time": 4300, "pitch": 65, "duration": 5, "velocity": 84}, {"time": 4307, "pitch": 65, "duration": 8, "velocity": 87}, {"time": 4315, "pitch": 73, "duration": 10, "velocity": 86}, {"time": 4323, "pitch": 70, "duration": 14, "velocity": 92}, {"time": 4336, "pitch": 68, "duration": 11, "velocity": 85}, {"time": 4346, "pitch": 65, "duration": 6, "velocity": 73}, {"time": 4351, "pitch": 63, "duration": 6, "velocity": 87}, {"time": 4356, "pitch": 61, "duration": 16, "velocity": 79}, {"time": 4371, "pitch": 63, "duration": 74, "velocity": 83}]}, {"program": 0, "is_drum": false, "name": "PIANO", "notes": [{"time": 21, "pitch": 50, "duration": 44, "velocity": 84}, {"time": 27, "pitch": 57, "duration": 33, "velocity": 72}, {"time": 33, "pitch": 64, "duration": 5, "velocity": 83}, {"time": 39, "pitch": 62, "duration": 5, "velocity": 76}, {"time": 39, "pitch": 65, "duration": 5, "velocity": 79}, {"time": 69, "pitch": 48, "duration": 41, "velocity": 83}, {"time": 75, "pitch": 57, "duration": 34, "velocity": 66}, {"time": 81, "pitch": 64, "duration": 4, "velocity": 83}, {"time": 87, "pitch": 60, "duration": 7, "velocity": 77}, {"time": 87, "pitch": 65, "duration": 7, "velocity": 79}, {"time": 105, "pitch": 64, "duration": 13, "velocity": 84}, {"time": 117, "pitch": 46, "duration": 39, "velocity": 75}, {"time": 117, "pitch": 62, "duration": 8, "velocity": 76}, {"time": 123, "pitch": 53, "duration": 32, "velocity": 60}, {"time": 129, "pitch": 58, "duration": 4, "velocity": 70}, {"time": 135, "pitch": 58, "duration": 16, "velocity": 77}, {"time": 135, "pitch": 65, "duration": 20, "velocity": 71}, {"time": 165, "pitch": 45, "duration": 43, "velocity": 78}, {"time": 165, "pitch": 55, "duration": 8, "velocity": 71}, {"time": 165, "pitch": 60, "duration": 13, "velocity": 76}, {"time": 171, "pitch": 52, "duration": 26, "velocity": 72}, {"time": 177, "pitch": 55, "duration": 21, "velocity": 82}, {"time": 183, "pitch": 64, "duration": 25, "velocity": 85}, {"time": 201, "pitch": 52, "duration": 7, "velocity": 72}, {"time": 207, "pitch": 60, "duration": 5, "velocity": 75}, {"time": 213, "pitch": 43, "duration": 39, "velocity": 84}, {"time": 213, "pitch": 55, "duration": 8, "velocity": 77}, {"time": 213, "pitch": 62, "duration": 11, "velocity": 77}, {"time": 219, "pitch": 50, "duration": 32, "velocity": 76}, {"time": 225, "pitch": 55, "duration": 8, "velocity": 84}, {"time": 231, "pitch": 58, "duration": 4, "velocity": 84}, {"time": 243, "pitch": 55, "duration": 3, "velocity": 77}, {"time": 249, "pitch": 55, "duration": 4, "velocity": 79}, {"time": 249, "pitch": 58, "duration": 5, "velocity": 78}, {"time": 249, "pitch": 62, "duration": 7, "velocity": 83}, {"time": 255, "pitch": 43, "duration": 4, "velocity": 81}, {"time": 261, "pitch": 45, "duration": 22, "velocity": 83}, {"time": 261, "pitch": 55, "duration": 7, "velocity": 74}, {"time": 261, "pitch": 60, "duration": 13, "velocity": 75}, {"time": 267, "pitch": 52, "duration": 16, "velocity": 78}, {"time": 273, "pitch": 55, "duration": 6, "velocity": 83}, {"time": 279, "pitch": 60, "duration": 5, "velocity": 83}, {"time": 285, "pitch": 50, "duration": 14, "velocity": 83}, {"time": 285, "pitch": 57, "duration": 4, "velocity": 73}, {"time": 285, "pitch": 62, "duration": 11, "velocity": 78}, {"time": 291, "pitch": 57, "duration": 8, "velocity": 71}, {"time": 297, "pitch": 65, "duration": 12, "velocity": 78}, {"time": 309, "pitch": 45, "duration": 29, "velocity": 83}, {"time": 309, "pitch": 64, "duration": 13, "velocity": 83}, {"time": 315, "pitch": 52, "duration": 21, "velocity": 84}, {"time": 321, "pitch": 57, "duration": 8, "velocity": 84}, {"time": 327, "pitch": 62, "duration": 6, "velocity": 76}, {"time": 333, "pitch": 60, "duration": 13, "velocity": 85}, {"time": 339, "pitch": 45, "duration": 5, "velocity": 29}, {"time": 339, "pitch": 52, "duration": 7, "velocity": 76}, {"time": 345, "pitch": 57, "duration": 8, "velocity": 83}, {"time": 351, "pitch": 60, "duration": 7, "velocity": 86}, {"time": 357, "pitch": 38, "duration": 45, "velocity": 84}, {"time": 357, "pitch": 62, "duration": 13, "velocity": 78}, {"time": 363, "pitch": 45, "duration": 38, "velocity": 68}, {"time": 369, "pitch": 57, "duration": 9, "velocity": 74}, {"time": 375, "pitch": 62, "duration": 4, "velocity": 74}, {"time": 381, "pitch": 57, "duration": 28, "velocity": 72}, {"time": 381, "pitch": 62, "duration": 28, "velocity": 72}, {"time": 381, "pitch": 65, "duration": 27, "velocity": 77}, {"time": 405, "pitch": 50, "duration": 46, "velocity": 79}, {"time": 405, "pitch": 57, "duration": 4, "velocity": 68}, {"time": 405, "pitch": 62, "duration": 4, "velocity": 76}, {"time": 411, "pitch": 57, "duration": 13, "velocity": 71}, {"time": 417, "pitch": 62, "duration": 7, "velocity": 80}, {"time": 423, "pitch": 65, "duration": 14, "velocity": 78}, {"time": 441, "pitch": 57, "duration": 8, "velocity": 77}, {"time": 441, "pitch": 62, "duration": 10, "velocity": 78}, {"time": 453, "pitch": 48, "duration": 16, "velocity": 79}, {"time": 453, "pitch": 55, "duration": 4, "velocity": 76}, {"time": 453, "pitch": 60, "duration": 9, "velocity": 79}, {"time": 459, "pitch": 55, "duration": 8, "velocity": 72}, {"time": 465, "pitch": 60, "duration": 3, "velocity": 78}, {"time": 465, "pitch": 64, "duration": 5, "velocity": 78}, {"time": 477, "pitch": 50, "duration": 14, "velocity": 82}, {"time": 477, "pitch": 62, "duration": 14, "velocity": 78}, {"time": 483, "pitch": 57, "duration": 7, "velocity": 71}, {"time": 489, "pitch": 65, "duration": 12, "velocity": 78}, {"time": 495, "pitch": 57, "duration": 6, "velocity": 66}, {"time": 501, "pitch": 46, "duration": 16, "velocity": 79}, {"time": 501, "pitch": 62, "duration": 13, "velocity": 75}, {"time": 507, "pitch": 53, "duration": 11, "velocity": 69}, {"time": 513, "pitch": 58, "duration": 7, "velocity": 70}, {"time": 519, "pitch": 62, "duration": 4, "velocity": 75}, {"time": 525, "pitch": 48, "duration": 14, "velocity": 83}, {"time": 525, "pitch": 60, "duration": 9, "velocity": 69}, {"time": 525, "pitch": 64, "duration": 12, "velocity": 75}, {"time": 531, "pitch": 55, "duration": 7, "velocity": 76}, {"time": 537, "pitch": 60, "duration": 14, "velocity": 79}, {"time": 549, "pitch": 41, "duration": 41, "velocity": 81}, {"time": 549, "pitch": 69, "duration": 14, "velocity": 73}, {"time": 555, "pitch": 48, "duration": 34, "velocity": 71}, {"time": 561, "pitch": 60, "duration": 9, "velocity": 83}, {"time": 567, "pitch": 67, "duration": 3, "velocity": 76}, {"time": 573, "pitch": 65, "duration": 8, "velocity": 79}, {"time": 573, "pitch": 69, "duration": 12, "velocity": 72}, {"time": 579, "pitch": 60, "duration": 7, "velocity": 72}, {"time": 585, "pitch": 65, "duration": 3, "velocity": 80}, {"time": 591, "pitch": 64, "duration": 6, "velocity": 82}, {"time": 597, "pitch": 50, "duration": 26, "velocity": 85}, {"time": 597, "pitch": 57, "duration": 4, "velocity": 75}, {"time": 597, "pitch": 62, "duration": 8, "velocity": 77}, {"time": 603, "pitch": 57, "duration": 9, "velocity": 71}, {"time": 609, "pitch": 62, "duration": 7, "velocity": 77}, {"time": 615, "pitch": 65, "duration": 14, "velocity": 83}, {"time": 627, "pitch": 57, "duration": 2, "velocity": 50}, {"time": 633, "pitch": 57, "duration": 7, "velocity": 76}, {"time": 633, "pitch": 62, "duration": 7, "velocity": 77}, {"time": 639, "pitch": 60, "duration": 7, "velocity": 83}, {"time": 645, "pitch": 45, "duration": 41, "velocity": 83}, {"time": 645, "pitch": 57, "duration": 8, "velocity": 78}, {"time": 651, "pitch": 52, "duration": 35, "velocity": 80}, {"time": 657, "pitch": 57, "duration": 9, "velocity": 79}, {"time": 663, "pitch": 60, "duration": 4, "velocity": 77}, {"time": 669, "pitch": 64, "duration": 11, "velocity": 82}, {"time": 681, "pitch": 60, "duration": 7, "velocity": 77}, {"time": 687, "pitch": 57, "duration": 3, "velocity": 72}, {"time": 693, "pitch": 43, "duration": 17, "velocity": 84}, {"time": 693, "pitch": 55, "duration": 13, "velocity": 83}, {"time": 699, "pitch": 50, "duration": 12, "velocity": 79}, {"time": 705, "pitch": 58, "duration": 5, "velocity": 85}, {"time": 717, "pitch": 45, "duration": 21, "velocity": 83}, {"time": 717, "pitch": 57, "duration": 7, "velocity": 73}, {"time": 717, "pitch": 60, "duration": 10, "velocity": 76}, {"time": 723, "pitch": 52, "duration": 14, "velocity": 76}, {"time": 729, "pitch": 57, "duration": 7, "velocity": 84}, {"time": 735, "pitch": 60, "duration": 7, "velocity": 85}, {"time": 741, "pitch": 50, "duration": 45, "velocity": 81}, {"time": 741, "pitch": 62, "duration": 8, "velocity": 79}, {"time": 747, "pitch": 57, "duration": 8, "velocity": 76}, {"time": 753, "pitch": 62, "duration": 9, "velocity": 78}, {"time": 759, "pitch": 57, "duration": 3, "velocity": 60}, {"time": 765, "pitch": 57, "duration": 9, "velocity": 73}, {"time": 765, "pitch": 62, "duration": 9, "velocity": 75}, {"time": 765, "pitch": 65, "duration": 10, "velocity": 79}, {"time": 777, "pitch": 64, "duration": 7, "velocity": 83}, {"time": 783, "pitch": 65, "duration": 6, "velocity": 83}, {"time": 789, "pitch": 50, "duration": 22, "velocity": 92}, {"time": 789, "pitch": 57, "duration": 3, "velocity": 76}, {"time": 789, "pitch": 62, "duration": 7, "velocity": 77}, {"time": 795, "pitch": 57, "duration": 8, "velocity": 76}, {"time": 801, "pitch": 62, "duration": 7, "velocity": 76}, {"time": 807, "pitch": 65, "duration": 19, "velocity": 78}, {"time": 819, "pitch": 57, "duration": 6, "velocity": 65}, {"time": 825, "pitch": 62, "duration": 7, "velocity": 83}, {"time": 831, "pitch": 60, "duration": 4, "velocity": 84}, {"time": 837, "pitch": 48, "duration": 15, "velocity": 82}, {"time": 837, "pitch": 55, "duration": 4, "velocity": 79}, {"time": 837, "pitch": 64, "duration": 13, "velocity": 81}, {"time": 843, "pitch": 55, "duration": 7, "velocity": 70}, {"time": 849, "pitch": 60, "duration": 5, "velocity": 77}, {"time": 861, "pitch": 50, "duration": 16, "velocity": 83}, {"time": 861, "pitch": 57, "duration": 4, "velocity": 73}, {"time": 861, "pitch": 62, "duration": 14, "velocity": 78}, {"time": 867, "pitch": 57, "duration": 7, "velocity": 74}, {"time": 873, "pitch": 65, "duration": 10, "velocity": 84}, {"time": 885, "pitch": 46, "duration": 22, "velocity": 84}, {"time": 885, "pitch": 62, "duration": 8, "velocity": 79}, {"time": 891, "pitch": 58, "duration": 7, "velocity": 75}, {"time": 897, "pitch": 62, "duration": 12, "velocity": 80}, {"time": 903, "pitch": 53, "duration": 4, "velocity": 71}, {"time": 909, "pitch": 48, "duration": 14, "velocity": 83}, {"time": 909, "pitch": 55, "duration": 4, "velocity": 79}, {"time": 909, "pitch": 60, "duration": 8, "velocity": 78}, {"time": 915, "pitch": 55, "duration": 8, "velocity": 75}, {"time": 921, "pitch": 60, "duration": 3, "velocity": 72}, {"time": 933, "pitch": 41, "duration": 40, "velocity": 83}, {"time": 933, "pitch": 53, "duration": 7, "velocity": 74}, {"time": 933, "pitch": 60, "duration": 13, "velocity": 78}, {"time": 939, "pitch": 48, "duration": 21, "velocity": 75}, {"time": 945, "pitch": 53, "duration": 7, "velocity": 83}, {"time": 951, "pitch": 55, "duration": 4, "velocity": 89}, {"time": 957, "pitch": 53, "duration": 10, "velocity": 73}, {"time": 957, "pitch": 57, "duration": 6, "velocity": 76}, {"time": 963, "pitch": 48, "duration": 9, "velocity": 73}, {"time": 969, "pitch": 53, "duration": 4, "velocity": 77}, {"time": 969, "pitch": 57, "duration": 5, "velocity": 71}, {"time": 981, "pitch": 50, "duration": 40, "velocity": 84}, {"time": 981, "pitch": 57, "duration": 3, "velocity": 78}, {"time": 981, "pitch": 62, "duration": 7, "velocity": 79}, {"time": 987, "pitch": 57, "duration": 14, "velocity": 75}, {"time": 993, "pitch": 62, "duration": 7, "velocity": 78}, {"time": 999, "pitch": 65, "duration": 11, "velocity": 84}, {"time": 1011, "pitch": 57, "duration": 3, "velocity": 65}, {"time": 1017, "pitch": 57, "duration": 4, "velocity": 70}, {"time": 1017, "pitch": 62, "duration": 7, "velocity": 73}, {"time": 1023, "pitch": 60, "duration": 4, "velocity": 75}, {"time": 1029, "pitch": 43, "duration": 17, "velocity": 83}, {"time": 1029, "pitch": 55, "duration": 8, "velocity": 73}, {"time": 1029, "pitch": 58, "duration": 10, "velocity": 71}, {"time": 1035, "pitch": 50, "duration": 12, "velocity": 77}, {"time": 1041, "pitch": 55, "duration": 4, "velocity": 83}, {"time": 1053, "pitch": 45, "duration": 13, "velocity": 83}, {"time": 1053, "pitch": 57, "duration": 8, "velocity": 73}, {"time": 1053, "pitch": 60, "duration": 9, "velocity": 78}, {"time": 1059, "pitch": 52, "duration": 7, "velocity": 81}, {"time": 1065, "pitch": 64, "duration": 8, "velocity": 81}, {"time": 1077, "pitch": 36, "duration": 5, "velocity": 80}, {"time": 1077, "pitch": 55, "duration": 4, "velocity": 73}, {"time": 1077, "pitch": 60, "duration": 7, "velocity": 79}, {"time": 1083, "pitch": 55, "duration": 8, "velocity": 76}, {"time": 1089, "pitch": 48, "duration": 27, "velocity": 79}, {"time": 1089, "pitch": 60, "duration": 7, "velocity": 75}, {"time": 1095, "pitch": 64, "duration": 13, "velocity": 79}, {"time": 1101, "pitch": 55, "duration": 9, "velocity": 69}, {"time": 1107, "pitch": 60, "duration": 4, "velocity": 77}, {"time": 1113, "pitch": 55, "duration": 3, "velocity": 85}, {"time": 1113, "pitch": 60, "duration": 11, "velocity": 85}, {"time": 1119, "pitch": 55, "duration": 3, "velocity": 69}, {"time": 1125, "pitch": 38, "duration": 33, "velocity": 85}, {"time": 1125, "pitch": 57, "duration": 6, "velocity": 74}, {"time": 1125, "pitch": 62, "duration": 6, "velocity": 79}, {"time": 1131, "pitch": 45, "duration": 27, "velocity": 67}, {"time": 1137, "pitch": 57, "duration": 5, "velocity": 77}, {"time": 1143, "pitch": 65, "duration": 9, "velocity": 78}, {"time": 1149, "pitch": 57, "duration": 3, "velocity": 71}, {"time": 1155, "pitch": 62, "duration": 3, "velocity": 76}, {"time": 1161, "pitch": 45, "duration": 6, "velocity": 84}, {"time": 1161, "pitch": 57, "duration": 3, "velocity": 80}, {"time": 1161, "pitch": 62, "duration": 8, "velocity": 84}, {"time": 1161, "pitch": 65, "duration": 12, "velocity": 84}, {"time": 1167, "pitch": 48, "duration": 6, "velocity": 84}, {"time": 1167, "pitch": 57, "duration": 6, "velocity": 78}, {"time": 1173, "pitch": 50, "duration": 11, "velocity": 87}, {"time": 1173, "pitch": 57, "duration": 7, "velocity": 77}, {"time": 1173, "pitch": 65, "duration": 7, "velocity": 79}, {"time": 1182, "pitch": 57, "duration": 3, "velocity": 79}, {"time": 1182, "pitch": 62, "duration": 6, "velocity": 84}, {"time": 1188, "pitch": 57, "duration": 5, "velocity": 83}, {"time": 1191, "pitch": 62, "duration": 2, "velocity": 74}, {"time": 1197, "pitch": 48, "duration": 14, "velocity": 87}, {"time": 1197, "pitch": 55, "duration": 4, "velocity": 75}, {"time": 1197, "pitch": 60, "duration": 7, "velocity": 78}, {"time": 1203, "pitch": 55, "duration": 4, "velocity": 76}, {"time": 1209, "pitch": 55, "duration": 3, "velocity": 83}, {"time": 1209, "pitch": 60, "duration": 9, "velocity": 84}, {"time": 1209, "pitch": 64, "duration": 9, "velocity": 87}, {"time": 1215, "pitch": 55, "duration": 3, "velocity": 69}, {"time": 1221, "pitch": 38, "duration": 2, "velocity": 85}, {"time": 1221, "pitch": 57, "duration": 7, "velocity": 76}, {"time": 1221, "pitch": 62, "duration": 4, "velocity": 79}, {"time": 1230, "pitch": 57, "duration": 4, "velocity": 77}, {"time": 1230, "pitch": 65, "duration": 9, "velocity": 79}, {"time": 1236, "pitch": 57, "duration": 4, "velocity": 70}, {"time": 1239, "pitch": 62, "duration": 3, "velocity": 78}, {"time": 1242, "pitch": 57, "duration": 2, "velocity": 69}, {"time": 1245, "pitch": 50, "duration": 15, "velocity": 86}, {"time": 1248, "pitch": 57, "duration": 4, "velocity": 83}, {"time": 1251, "pitch": 62, "duration": 3, "velocity": 77}, {"time": 1254, "pitch": 57, "duration": 2, "velocity": 74}, {"time": 1257, "pitch": 57, "duration": 5, "velocity": 82}, {"time": 1257, "pitch": 65, "duration": 10, "velocity": 83}, {"time": 1263, "pitch": 57, "duration": 4, "velocity": 78}, {"time": 1269, "pitch": 50, "duration": 17, "velocity": 92}, {"time": 1269, "pitch": 57, "duration": 6, "velocity": 84}, {"time": 1269, "pitch": 62, "duration": 6, "velocity": 83}, {"time": 1278, "pitch": 57, "duration": 3, "velocity": 83}, {"time": 1278, "pitch": 62, "duration": 6, "velocity": 84}, {"time": 1278, "pitch": 65, "duration": 9, "velocity": 79}, {"time": 1284, "pitch": 57, "duration": 4, "velocity": 79}, {"time": 1287, "pitch": 62, "duration": 3, "velocity": 73}, {"time": 1290, "pitch": 57, "duration": 2, "velocity": 68}, {"time": 1293, "pitch": 48, "duration": 14, "velocity": 84}, {"time": 1293, "pitch": 55, "duration": 4, "velocity": 79}, {"time": 1293, "pitch": 60, "duration": 7, "velocity": 77}, {"time": 1299, "pitch": 55, "duration": 3, "velocity": 75}, {"time": 1305, "pitch": 55, "duration": 3, "velocity": 77}, {"time": 1305, "pitch": 60, "duration": 7, "velocity": 83}, {"time": 1305, "pitch": 64, "duration": 8, "velocity": 84}, {"time": 1311, "pitch": 55, "duration": 3, "velocity": 77}, {"time": 1317, "pitch": 41, "duration": 22, "velocity": 80}, {"time": 1317, "pitch": 57, "duration": 5, "velocity": 69}, {"time": 1317, "pitch": 60, "duration": 4, "velocity": 77}, {"time": 1323, "pitch": 48, "duration": 15, "velocity": 68}, {"time": 1329, "pitch": 53, "duration": 4, "velocity": 75}, {"time": 1332, "pitch": 55, "duration": 4, "velocity": 79}, {"time": 1335, "pitch": 57, "duration": 5, "velocity": 83}, {"time": 1341, "pitch": 41, "duration": 16, "velocity": 83}, {"time": 1341, "pitch": 53, "duration": 7, "velocity": 76}, {"time": 1341, "pitch": 57, "duration": 7, "velocity": 73}, {"time": 1341, "pitch": 60, "duration": 8, "velocity": 83}, {"time": 1347, "pitch": 48, "duration": 9, "velocity": 78}, {"time": 1353, "pitch": 53, "duration": 3, "velocity": 77}, {"time": 1353, "pitch": 57, "duration": 3, "velocity": 75}, {"time": 1365, "pitch": 50, "duration": 22, "velocity": 81}, {"time": 1365, "pitch": 57, "duration": 4, "velocity": 78}, {"time": 1365, "pitch": 62, "duration": 9, "velocity": 80}, {"time": 1371, "pitch": 57, "duration": 3, "velocity": 63}, {"time": 1377, "pitch": 65, "duration": 4, "velocity": 88}, {"time": 1380, "pitch": 62, "duration": 5, "velocity": 78}, {"time": 1383, "pitch": 57, "duration": 4, "velocity": 72}, {"time": 1389, "pitch": 50, "duration": 16, "velocity": 78}, {"time": 1389, "pitch": 57, "duration": 4, "velocity": 67}, {"time": 1389, "pitch": 62, "duration": 8, "velocity": 74}, {"time": 1395, "pitch": 57, "duration": 2, "velocity": 58}, {"time": 1401, "pitch": 57, "duration": 5, "velocity": 83}, {"time": 1401, "pitch": 65, "duration": 5, "velocity": 83}, {"time": 1413, "pitch": 43, "duration": 38, "velocity": 84}, {"time": 1413, "pitch": 55, "duration": 9, "velocity": 77}, {"time": 1413, "pitch": 62, "duration": 8, "velocity": 81}, {"time": 1419, "pitch": 50, "duration": 32, "velocity": 77}, {"time": 1425, "pitch": 58, "duration": 4, "velocity": 87}, {"time": 1428, "pitch": 55, "duration": 4, "velocity": 83}, {"time": 1431, "pitch": 62, "duration": 5, "velocity": 80}, {"time": 1434, "pitch": 58, "duration": 3, "velocity": 78}, {"time": 1437, "pitch": 67, "duration": 6, "velocity": 83}, {"time": 1443, "pitch": 55, "duration": 3, "velocity": 72}, {"time": 1449, "pitch": 55, "duration": 5, "velocity": 78}, {"time": 1449, "pitch": 58, "duration": 4, "velocity": 74}, {"time": 1449, "pitch": 62, "duration": 5, "velocity": 83}, {"time": 1455, "pitch": 43, "duration": 4, "velocity": 75}, {"time": 1461, "pitch": 46, "duration": 2, "velocity": 85}, {"time": 1461, "pitch": 53, "duration": 4, "velocity": 77}, {"time": 1461, "pitch": 58, "duration": 9, "velocity": 75}, {"time": 1467, "pitch": 53, "duration": 7, "velocity": 83}, {"time": 1473, "pitch": 58, "duration": 4, "velocity": 77}, {"time": 1473, "pitch": 62, "duration": 7, "velocity": 84}, {"time": 1485, "pitch": 48, "duration": 17, "velocity": 89}, {"time": 1485, "pitch": 55, "duration": 3, "velocity": 80}, {"time": 1485, "pitch": 60, "duration": 8, "velocity": 79}, {"time": 1491, "pitch": 55, "duration": 3, "velocity": 71}, {"time": 1497, "pitch": 55, "duration": 3, "velocity": 77}, {"time": 1497, "pitch": 60, "duration": 7, "velocity": 74}, {"time": 1497, "pitch": 64, "duration": 6, "velocity": 83}, {"time": 1503, "pitch": 55, "duration": 3, "velocity": 74}, {"time": 1509, "pitch": 41, "duration": 18, "velocity": 84}, {"time": 1509, "pitch": 53, "duration": 7, "velocity": 79}, {"time": 1509, "pitch": 57, "duration": 6, "velocity": 78}, {"time": 1515, "pitch": 48, "duration": 11, "velocity": 78}, {"time": 1521, "pitch": 53, "duration": 3, "velocity": 79}, {"time": 1521, "pitch": 57, "duration": 3, "velocity": 83}, {"time": 1521, "pitch": 65, "duration": 3, "velocity": 82}, {"time": 1527, "pitch": 55, "duration": 3, "velocity": 86}, {"time": 1533, "pitch": 45, "duration": 23, "velocity": 85}, {"time": 1533, "pitch": 57, "duration": 6, "velocity": 83}, {"time": 1539, "pitch": 52, "duration": 17, "velocity": 79}, {"time": 1542, "pitch": 57, "duration": 3, "velocity": 83}, {"time": 1545, "pitch": 64, "duration": 4, "velocity": 83}, {"time": 1548, "pitch": 57, "duration": 4, "velocity": 84}, {"time": 1551, "pitch": 69, "duration": 5, "velocity": 84}, {"time": 1554, "pitch": 57, "duration": 3, "velocity": 79}, {"time": 1557, "pitch": 50, "duration": 11, "velocity": 87}, {"time": 1557, "pitch": 57, "duration": 7, "velocity": 77}, {"time": 1557, "pitch": 65, "duration": 7, "velocity": 79}, {"time": 1566, "pitch": 57, "duration": 3, "velocity": 79}, {"time": 1566, "pitch": 62, "duration": 6, "velocity": 84}, {"time": 1572, "pitch": 57, "duration": 5, "velocity": 83}, {"time": 1575, "pitch": 62, "duration": 2, "velocity": 74}, {"time": 1581, "pitch": 48, "duration": 14, "velocity": 87}, {"time": 1581, "pitch": 55, "duration": 4, "velocity": 75}, {"time": 1581, "pitch": 60, "duration": 7, "velocity": 78}, {"time": 1587, "pitch": 55, "duration": 4, "velocity": 76}, {"time": 1593, "pitch": 55, "duration": 3, "velocity": 83}, {"time": 1593, "pitch": 60, "duration": 9, "velocity": 84}, {"time": 1593, "pitch": 64, "duration": 9, "velocity": 87}, {"time": 1599, "pitch": 55, "duration": 3, "velocity": 69}, {"time": 1605, "pitch": 38, "duration": 2, "velocity": 85}, {"time": 1605, "pitch": 57, "duration": 7, "velocity": 76}, {"time": 1605, "pitch": 62, "duration": 4, "velocity": 79}, {"time": 1614, "pitch": 57, "duration": 4, "velocity": 77}, {"time": 1614, "pitch": 65, "duration": 9, "velocity": 79}, {"time": 1620, "pitch": 57, "duration": 4, "velocity": 70}, {"time": 1623, "pitch": 62, "duration": 3, "velocity": 78}, {"time": 1626, "pitch": 57, "duration": 2, "velocity": 69}, {"time": 1629, "pitch": 50, "duration": 15, "velocity": 86}, {"time": 1632, "pitch": 57, "duration": 4, "velocity": 83}, {"time": 1635, "pitch": 62, "duration": 3, "velocity": 77}, {"time": 1638, "pitch": 57, "duration": 2, "velocity": 74}, {"time": 1641, "pitch": 57, "duration": 5, "velocity": 82}, {"time": 1641, "pitch": 65, "duration": 10, "velocity": 83}, {"time": 1647, "pitch": 57, "duration": 4, "velocity": 78}, {"time": 1653, "pitch": 50, "duration": 17, "velocity": 92}, {"time": 1653, "pitch": 57, "duration": 6, "velocity": 84}, {"time": 1653, "pitch": 62, "duration": 6, "velocity": 83}, {"time": 1662, "pitch": 57, "duration": 3, "velocity": 83}, {"time": 1662, "pitch": 62, "duration": 6, "velocity": 84}, {"time": 1662, "pitch": 65, "duration": 9, "velocity": 79}, {"time": 1668, "pitch": 57, "duration": 4, "velocity": 79}, {"time": 1671, "pitch": 62, "duration": 3, "velocity": 73}, {"time": 1674, "pitch": 57, "duration": 2, "velocity": 68}, {"time": 1677, "pitch": 48, "duration": 14, "velocity": 84}, {"time": 1677, "pitch": 55, "duration": 4, "velocity": 79}, {"time": 1677, "pitch": 60, "duration": 7, "velocity": 77}, {"time": 1683, "pitch": 55, "duration": 3, "velocity": 75}, {"time": 1689, "pitch": 55, "duration": 3, "velocity": 77}, {"time": 1689, "pitch": 60, "duration": 7, "velocity": 83}, {"time": 1689, "pitch": 64, "duration": 8, "velocity": 84}, {"time": 1695, "pitch": 55, "duration": 3, "velocity": 77}, {"time": 1701, "pitch": 41, "duration": 22, "velocity": 80}, {"time": 1701, "pitch": 57, "duration": 5, "velocity": 69}, {"time": 1701, "pitch": 60, "duration": 4, "velocity": 77}, {"time": 1707, "pitch": 48, "duration": 15, "velocity": 68}, {"time": 1713, "pitch": 53, "duration": 4, "velocity": 75}, {"time": 1716, "pitch": 55, "duration": 4, "velocity": 79}, {"time": 1719, "pitch": 57, "duration": 5, "velocity": 83}, {"time": 1725, "pitch": 41, "duration": 16, "velocity": 83}, {"time": 1725, "pitch": 53, "duration": 7, "velocity": 76}, {"time": 1725, "pitch": 57, "duration": 7, "velocity": 73}, {"time": 1725, "pitch": 60, "duration": 8, "velocity": 83}, {"time": 1731, "pitch": 48, "duration": 9, "velocity": 78}, {"time": 1737, "pitch": 53, "duration": 3, "velocity": 77}, {"time": 1737, "pitch": 57, "duration": 3, "velocity": 75}, {"time": 1749, "pitch": 50, "duration": 17, "velocity": 87}, {"time": 1749, "pitch": 57, "duration": 3, "velocity": 75}, {"time": 1749, "pitch": 62, "duration": 7, "velocity": 79}, {"time": 1755, "pitch": 57, "duration": 11, "velocity": 75}, {"time": 1761, "pitch": 62, "duration": 7, "velocity": 83}, {"time": 1767, "pitch": 65, "duration": 2, "velocity": 74}, {"time": 1773, "pitch": 43, "duration": 19, "velocity": 84}, {"time": 1773, "pitch": 55, "duration": 14, "velocity": 72}, {"time": 1773, "pitch": 62, "duration": 13, "velocity": 78}, {"time": 1779, "pitch": 50, "duration": 14, "velocity": 70}, {"time": 1785, "pitch": 58, "duration": 3, "velocity": 84}, {"time": 1797, "pitch": 45, "duration": 17, "velocity": 84}, {"time": 1797, "pitch": 57, "duration": 8, "velocity": 72}, {"time": 1797, "pitch": 60, "duration": 8, "velocity": 76}, {"time": 1803, "pitch": 52, "duration": 10, "velocity": 82}, {"time": 1809, "pitch": 60, "duration": 7, "velocity": 89}, {"time": 1815, "pitch": 57, "duration": 4, "velocity": 74}, {"time": 1818, "pitch": 60, "duration": 4, "velocity": 76}, {"time": 1821, "pitch": 38, "duration": 15, "velocity": 86}, {"time": 1821, "pitch": 62, "duration": 8, "velocity": 79}, {"time": 1827, "pitch": 45, "duration": 8, "velocity": 72}, {"time": 1833, "pitch": 57, "duration": 6, "velocity": 77}, {"time": 1833, "pitch": 62, "duration": 5, "velocity": 83}, {"time": 1833, "pitch": 65, "duration": 6, "velocity": 83}, {"time": 1845, "pitch": 45, "duration": 41, "velocity": 87}, {"time": 1845, "pitch": 57, "duration": 7, "velocity": 78}, {"time": 1845, "pitch": 60, "duration": 8, "velocity": 81}, {"time": 1851, "pitch": 52, "duration": 21, "velocity": 77}, {"time": 1857, "pitch": 57, "duration": 8, "velocity": 67}, {"time": 1863, "pitch": 60, "duration": 3, "velocity": 73}, {"time": 1869, "pitch": 57, "duration": 8, "velocity": 79}, {"time": 1869, "pitch": 60, "duration": 7, "velocity": 84}, {"time": 1869, "pitch": 64, "duration": 8, "velocity": 84}, {"time": 1875, "pitch": 52, "duration": 10, "velocity": 80}, {"time": 1881, "pitch": 55, "duration": 3, "velocity": 76}, {"time": 1881, "pitch": 57, "duration": 4, "velocity": 71}, {"time": 1881, "pitch": 60, "duration": 4, "velocity": 86}, {"time": 1881, "pitch": 64, "duration": 7, "velocity": 87}, {"time": 1887, "pitch": 62, "duration": 4, "velocity": 80}, {"time": 1890, "pitch": 60, "duration": 3, "velocity": 77}, {"time": 1893, "pitch": 38, "duration": 2, "velocity": 84}, {"time": 1893, "pitch": 57, "duration": 13, "velocity": 73}, {"time": 1893, "pitch": 62, "duration": 19, "velocity": 78}, {"time": 1899, "pitch": 45, "duration": 22, "velocity": 79}, {"time": 1905, "pitch": 53, "duration": 15, "velocity": 84}, {"time": 1911, "pitch": 57, "duration": 4, "velocity": 83}, {"time": 1917, "pitch": 57, "duration": 7, "velocity": 83}, {"time": 1917, "pitch": 62, "duration": 10, "velocity": 84}, {"time": 1917, "pitch": 65, "duration": 10, "velocity": 84}, {"time": 1923, "pitch": 45, "duration": 17, "velocity": 55}, {"time": 1923, "pitch": 53, "duration": 18, "velocity": 83}, {"time": 1926, "pitch": 57, "duration": 2, "velocity": 79}, {"time": 1929, "pitch": 57, "duration": 6, "velocity": 80}, {"time": 1929, "pitch": 65, "duration": 10, "velocity": 85}, {"time": 1935, "pitch": 57, "duration": 4, "velocity": 59}, {"time": 1935, "pitch": 64, "duration": 6, "velocity": 80}, {"time": 1941, "pitch": 50, "duration": 24, "velocity": 88}, {"time": 1947, "pitch": 57, "duration": 12, "velocity": 72}, {"time": 1953, "pitch": 62, "duration": 7, "velocity": 85}, {"time": 1959, "pitch": 65, "duration": 7, "velocity": 78}, {"time": 1965, "pitch": 48, "duration": 17, "velocity": 81}, {"time": 1965, "pitch": 64, "duration": 8, "velocity": 80}, {"time": 1971, "pitch": 55, "duration": 8, "velocity": 74}, {"time": 1977, "pitch": 60, "duration": 8, "velocity": 83}, {"time": 1989, "pitch": 50, "duration": 45, "velocity": 84}, {"time": 1989, "pitch": 62, "duration": 8, "velocity": 80}, {"time": 1995, "pitch": 57, "duration": 8, "velocity": 76}, {"time": 2001, "pitch": 62, "duration": 5, "velocity": 71}, {"time": 2007, "pitch": 57, "duration": 3, "velocity": 43}, {"time": 2013, "pitch": 57, "duration": 4, "velocity": 76}, {"time": 2013, "pitch": 65, "duration": 23, "velocity": 78}, {"time": 2019, "pitch": 57, "duration": 15, "velocity": 58}, {"time": 2037, "pitch": 50, "duration": 17, "velocity": 84}, {"time": 2037, "pitch": 62, "duration": 8, "velocity": 81}, {"time": 2043, "pitch": 57, "duration": 14, "velocity": 71}, {"time": 2049, "pitch": 62, "duration": 7, "velocity": 79}, {"time": 2055, "pitch": 65, "duration": 8, "velocity": 79}, {"time": 2061, "pitch": 48, "duration": 14, "velocity": 83}, {"time": 2061, "pitch": 64, "duration": 13, "velocity": 80}, {"time": 2067, "pitch": 55, "duration": 8, "velocity": 75}, {"time": 2073, "pitch": 60, "duration": 3, "velocity": 77}, {"time": 2085, "pitch": 41, "duration": 41, "velocity": 81}, {"time": 2085, "pitch": 53, "duration": 7, "velocity": 69}, {"time": 2085, "pitch": 57, "duration": 9, "velocity": 72}, {"time": 2091, "pitch": 48, "duration": 35, "velocity": 74}, {"time": 2097, "pitch": 53, "duration": 7, "velocity": 73}, {"time": 2103, "pitch": 55, "duration": 3, "velocity": 85}, {"time": 2109, "pitch": 57, "duration": 8, "velocity": 82}, {"time": 2115, "pitch": 60, "duration": 7, "velocity": 85}, {"time": 2121, "pitch": 65, "duration": 7, "velocity": 85}, {"time": 2133, "pitch": 43, "duration": 39, "velocity": 86}, {"time": 2133, "pitch": 55, "duration": 7, "velocity": 81}, {"time": 2133, "pitch": 58, "duration": 7, "velocity": 64}, {"time": 2133, "pitch": 62, "duration": 11, "velocity": 83}, {"time": 2139, "pitch": 50, "duration": 33, "velocity": 82}, {"time": 2145, "pitch": 55, "duration": 8, "velocity": 87}, {"time": 2151, "pitch": 58, "duration": 3, "velocity": 92}, {"time": 2163, "pitch": 55, "duration": 3, "velocity": 77}, {"time": 2169, "pitch": 55, "duration": 4, "velocity": 83}, {"time": 2169, "pitch": 58, "duration": 4, "velocity": 82}, {"time": 2169, "pitch": 62, "duration": 5, "velocity": 83}, {"time": 2175, "pitch": 43, "duration": 5, "velocity": 84}, {"time": 2181, "pitch": 50, "duration": 29, "velocity": 89}, {"time": 2181, "pitch": 57, "duration": 3, "velocity": 78}, {"time": 2181, "pitch": 62, "duration": 8, "velocity": 83}, {"time": 2187, "pitch": 57, "duration": 8, "velocity": 69}, {"time": 2193, "pitch": 62, "duration": 3, "velocity": 74}, {"time": 2199, "pitch": 57, "duration": 5, "velocity": 81}, {"time": 2199, "pitch": 65, "duration": 12, "velocity": 83}, {"time": 2211, "pitch": 57, "duration": 3, "velocity": 80}, {"time": 2217, "pitch": 50, "duration": 3, "velocity": 87}, {"time": 2217, "pitch": 57, "duration": 8, "velocity": 79}, {"time": 2217, "pitch": 62, "duration": 7, "velocity": 77}, {"time": 2223, "pitch": 60, "duration": 4, "velocity": 85}, {"time": 2229, "pitch": 45, "duration": 37, "velocity": 85}, {"time": 2229, "pitch": 57, "duration": 8, "velocity": 84}, {"time": 2235, "pitch": 52, "duration": 10, "velocity": 84}, {"time": 2241, "pitch": 57, "duration": 7, "velocity": 79}, {"time": 2241, "pitch": 60, "duration": 8, "velocity": 80}, {"time": 2247, "pitch": 52, "duration": 8, "velocity": 79}, {"time": 2253, "pitch": 57, "duration": 8, "velocity": 84}, {"time": 2253, "pitch": 64, "duration": 8, "velocity": 84}, {"time": 2259, "pitch": 52, "duration": 6, "velocity": 83}, {"time": 2265, "pitch": 60, "duration": 7, "velocity": 90}, {"time": 2271, "pitch": 57, "duration": 8, "velocity": 83}, {"time": 2277, "pitch": 38, "duration": 2, "velocity": 84}, {"time": 2277, "pitch": 62, "duration": 19, "velocity": 78}, {"time": 2283, "pitch": 45, "duration": 35, "velocity": 74}, {"time": 2289, "pitch": 53, "duration": 29, "velocity": 75}, {"time": 2295, "pitch": 57, "duration": 5, "velocity": 84}, {"time": 2301, "pitch": 57, "duration": 22, "velocity": 79}, {"time": 2301, "pitch": 62, "duration": 22, "velocity": 82}, {"time": 2325, "pitch": 50, "duration": 22, "velocity": 92}, {"time": 2325, "pitch": 57, "duration": 3, "velocity": 76}, {"time": 2325, "pitch": 62, "duration": 7, "velocity": 77}, {"time": 2331, "pitch": 57, "duration": 8, "velocity": 76}, {"time": 2337, "pitch": 62, "duration": 7, "velocity": 76}, {"time": 2343, "pitch": 65, "duration": 19, "velocity": 78}, {"time": 2355, "pitch": 57, "duration": 6, "velocity": 65}, {"time": 2361, "pitch": 62, "duration": 7, "velocity": 83}, {"time": 2367, "pitch": 60, "duration": 4, "velocity": 84}, {"time": 2373, "pitch": 48, "duration": 15, "velocity": 82}, {"time": 2373, "pitch": 55, "duration": 4, "velocity": 79}, {"time": 2373, "pitch": 64, "duration": 13, "velocity": 81}, {"time": 2379, "pitch": 55, "duration": 7, "velocity": 70}, {"time": 2385, "pitch": 60, "duration": 5, "velocity": 77}, {"time": 2397, "pitch": 50, "duration": 16, "velocity": 83}, {"time": 2397, "pitch": 57, "duration": 4, "velocity": 73}, {"time": 2397, "pitch": 62, "duration": 14, "velocity": 78}, {"time": 2403, "pitch": 57, "duration": 7, "velocity": 74}, {"time": 2409, "pitch": 65, "duration": 10, "velocity": 84}, {"time": 2421, "pitch": 46, "duration": 22, "velocity": 84}, {"time": 2421, "pitch": 62, "duration": 8, "velocity": 79}, {"time": 2427, "pitch": 58, "duration": 7, "velocity": 75}, {"time": 2433, "pitch": 62, "duration": 12, "velocity": 80}, {"time": 2439, "pitch": 53, "duration": 4, "velocity": 71}, {"time": 2445, "pitch": 48, "duration": 14, "velocity": 83}, {"time": 2445, "pitch": 55, "duration": 4, "velocity": 79}, {"time": 2445, "pitch": 60, "duration": 8, "velocity": 78}, {"time": 2451, "pitch": 55, "duration": 8, "velocity": 75}, {"time": 2457, "pitch": 60, "duration": 3, "velocity": 72}, {"time": 2469, "pitch": 41, "duration": 40, "velocity": 83}, {"time": 2469, "pitch": 53, "duration": 7, "velocity": 74}, {"time": 2469, "pitch": 60, "duration": 13, "velocity": 78}, {"time": 2475, "pitch": 48, "duration": 21, "velocity": 75}, {"time": 2481, "pitch": 53, "duration": 7, "velocity": 83}, {"time": 2487, "pitch": 55, "duration": 4, "velocity": 89}, {"time": 2493, "pitch": 53, "duration": 10, "velocity": 73}, {"time": 2493, "pitch": 57, "duration": 6, "velocity": 76}, {"time": 2499, "pitch": 48, "duration": 9, "velocity": 73}, {"time": 2505, "pitch": 53, "duration": 4, "velocity": 77}, {"time": 2505, "pitch": 57, "duration": 5, "velocity": 71}, {"time": 2517, "pitch": 50, "duration": 40, "velocity": 84}, {"time": 2517, "pitch": 57, "duration": 3, "velocity": 78}, {"time": 2517, "pitch": 62, "duration": 7, "velocity": 79}, {"time": 2523, "pitch": 57, "duration": 14, "velocity": 75}, {"time": 2529, "pitch": 62, "duration": 7, "velocity": 78}, {"time": 2535, "pitch": 65, "duration": 11, "velocity": 84}, {"time": 2547, "pitch": 57, "duration": 3, "velocity": 65}, {"time": 2553, "pitch": 57, "duration": 4, "velocity": 70}, {"time": 2553, "pitch": 62, "duration": 7, "velocity": 73}, {"time": 2559, "pitch": 60, "duration": 4, "velocity": 75}, {"time": 2565, "pitch": 43, "duration": 17, "velocity": 83}, {"time": 2565, "pitch": 55, "duration": 8, "velocity": 73}, {"time": 2565, "pitch": 58, "duration": 10, "velocity": 71}, {"time": 2571, "pitch": 50, "duration": 12, "velocity": 77}, {"time": 2577, "pitch": 55, "duration": 4, "velocity": 83}, {"time": 2589, "pitch": 45, "duration": 13, "velocity": 83}, {"time": 2589, "pitch": 57, "duration": 8, "velocity": 73}, {"time": 2589, "pitch": 60, "duration": 9, "velocity": 78}, {"time": 2595, "pitch": 52, "duration": 7, "velocity": 81}, {"time": 2601, "pitch": 64, "duration": 8, "velocity": 81}, {"time": 2613, "pitch": 36, "duration": 5, "velocity": 80}, {"time": 2613, "pitch": 55, "duration": 4, "velocity": 73}, {"time": 2613, "pitch": 60, "duration": 7, "velocity": 79}, {"time": 2619, "pitch": 55, "duration": 8, "velocity": 76}, {"time": 2625, "pitch": 48, "duration": 27, "velocity": 79}, {"time": 2625, "pitch": 60, "duration": 7, "velocity": 75}, {"time": 2631, "pitch": 64, "duration": 13, "velocity": 79}, {"time": 2637, "pitch": 55, "duration": 9, "velocity": 69}, {"time": 2643, "pitch": 60, "duration": 4, "velocity": 77}, {"time": 2649, "pitch": 55, "duration": 3, "velocity": 85}, {"time": 2649, "pitch": 60, "duration": 11, "velocity": 85}, {"time": 2655, "pitch": 55, "duration": 3, "velocity": 69}, {"time": 2661, "pitch": 38, "duration": 33, "velocity": 85}, {"time": 2661, "pitch": 57, "duration": 6, "velocity": 74}, {"time": 2661, "pitch": 62, "duration": 6, "velocity": 79}, {"time": 2667, "pitch": 45, "duration": 27, "velocity": 67}, {"time": 2673, "pitch": 57, "duration": 5, "velocity": 77}, {"time": 2679, "pitch": 65, "duration": 9, "velocity": 78}, {"time": 2685, "pitch": 57, "duration": 3, "velocity": 71}, {"time": 2691, "pitch": 62, "duration": 3, "velocity": 76}, {"time": 2697, "pitch": 45, "duration": 6, "velocity": 84}, {"time": 2697, "pitch": 57, "duration": 3, "velocity": 80}, {"time": 2697, "pitch": 62, "duration": 8, "velocity": 84}, {"time": 2697, "pitch": 65, "duration": 12, "velocity": 84}, {"time": 2703, "pitch": 48, "duration": 6, "velocity": 84}, {"time": 2703, "pitch": 57, "duration": 6, "velocity": 78}, {"time": 2709, "pitch": 50, "duration": 11, "velocity": 87}, {"time": 2709, "pitch": 57, "duration": 7, "velocity": 77}, {"time": 2709, "pitch": 65, "duration": 7, "velocity": 79}, {"time": 2718, "pitch": 57, "duration": 3, "velocity": 79}, {"time": 2718, "pitch": 62, "duration": 6, "velocity": 84}, {"time": 2724, "pitch": 57, "duration": 5, "velocity": 83}, {"time": 2727, "pitch": 62, "duration": 2, "velocity": 74}, {"time": 2733, "pitch": 48, "duration": 14, "velocity": 87}, {"time": 2733, "pitch": 55, "duration": 4, "velocity": 75}, {"time": 2733, "pitch": 60, "duration": 7, "velocity": 78}, {"time": 2739, "pitch": 55, "duration": 4, "velocity": 76}, {"time": 2745, "pitch": 55, "duration": 3, "velocity": 83}, {"time": 2745, "pitch": 60, "duration": 9, "velocity": 84}, {"time": 2745, "pitch": 64, "duration": 9, "velocity": 87}, {"time": 2751, "pitch": 55, "duration": 3, "velocity": 69}, {"time": 2757, "pitch": 38, "duration": 2, "velocity": 85}, {"time": 2757, "pitch": 57, "duration": 7, "velocity": 76}, {"time": 2757, "pitch": 62, "duration": 4, "velocity": 79}, {"time": 2766, "pitch": 57, "duration": 4, "velocity": 77}, {"time": 2766, "pitch": 65, "duration": 9, "velocity": 79}, {"time": 2772, "pitch": 57, "duration": 4, "velocity": 70}, {"time": 2775, "pitch": 62, "duration": 3, "velocity": 78}, {"time": 2778, "pitch": 57, "duration": 2, "velocity": 69}, {"time": 2781, "pitch": 50, "duration": 15, "velocity": 86}, {"time": 2784, "pitch": 57, "duration": 4, "velocity": 83}, {"time": 2787, "pitch": 62, "duration": 3, "velocity": 77}, {"time": 2790, "pitch": 57, "duration": 2, "velocity": 74}, {"time": 2793, "pitch": 57, "duration": 5, "velocity": 82}, {"time": 2793, "pitch": 65, "duration": 10, "velocity": 83}, {"time": 2799, "pitch": 57, "duration": 4, "velocity": 78}, {"time": 2805, "pitch": 50, "duration": 17, "velocity": 92}, {"time": 2805, "pitch": 57, "duration": 6, "velocity": 84}, {"time": 2805, "pitch": 62, "duration": 6, "velocity": 83}, {"time": 2814, "pitch": 57, "duration": 3, "velocity": 83}, {"time": 2814, "pitch": 62, "duration": 6, "velocity": 84}, {"time": 2814, "pitch": 65, "duration": 9, "velocity": 79}, {"time": 2820, "pitch": 57, "duration": 4, "velocity": 79}, {"time": 2823, "pitch": 62, "duration": 3, "velocity": 73}, {"time": 2826, "pitch": 57, "duration": 2, "velocity": 68}, {"time": 2829, "pitch": 48, "duration": 14, "velocity": 84}, {"time": 2829, "pitch": 55, "duration": 4, "velocity": 79}, {"time": 2829, "pitch": 60, "duration": 7, "velocity": 77}, {"time": 2835, "pitch": 55, "duration": 3, "velocity": 75}, {"time": 2841, "pitch": 55, "duration": 3, "velocity": 77}, {"time": 2841, "pitch": 60, "duration": 7, "velocity": 83}, {"time": 2841, "pitch": 64, "duration": 8, "velocity": 84}, {"time": 2847, "pitch": 55, "duration": 3, "velocity": 77}, {"time": 2853, "pitch": 41, "duration": 22, "velocity": 80}, {"time": 2853, "pitch": 57, "duration": 5, "velocity": 69}, {"time": 2853, "pitch": 60, "duration": 4, "velocity": 77}, {"time": 2859, "pitch": 48, "duration": 15, "velocity": 68}, {"time": 2865, "pitch": 53, "duration": 4, "velocity": 75}, {"time": 2868, "pitch": 55, "duration": 4, "velocity": 79}, {"time": 2871, "pitch": 57, "duration": 5, "velocity": 83}, {"time": 2877, "pitch": 41, "duration": 16, "velocity": 83}, {"time": 2877, "pitch": 53, "duration": 7, "velocity": 76}, {"time": 2877, "pitch": 57, "duration": 7, "velocity": 73}, {"time": 2877, "pitch": 60, "duration": 8, "velocity": 83}, {"time": 2883, "pitch": 48, "duration": 9, "velocity": 78}, {"time": 2889, "pitch": 53, "duration": 3, "velocity": 77}, {"time": 2889, "pitch": 57, "duration": 3, "velocity": 75}, {"time": 2901, "pitch": 50, "duration": 22, "velocity": 81}, {"time": 2901, "pitch": 57, "duration": 4, "velocity": 78}, {"time": 2901, "pitch": 62, "duration": 9, "velocity": 80}, {"time": 2907, "pitch": 57, "duration": 3, "velocity": 63}, {"time": 2913, "pitch": 65, "duration": 4, "velocity": 88}, {"time": 2916, "pitch": 62, "duration": 5, "velocity": 78}, {"time": 2919, "pitch": 57, "duration": 4, "velocity": 72}, {"time": 2925, "pitch": 50, "duration": 16, "velocity": 78}, {"time": 2925, "pitch": 57, "duration": 4, "velocity": 67}, {"time": 2925, "pitch": 62, "duration": 8, "velocity": 74}, {"time": 2931, "pitch": 57, "duration": 2, "velocity": 58}, {"time": 2937, "pitch": 57, "duration": 5, "velocity": 83}, {"time": 2937, "pitch": 65, "duration": 5, "velocity": 83}, {"time": 2949, "pitch": 43, "duration": 38, "velocity": 84}, {"time": 2949, "pitch": 55, "duration": 9, "velocity": 77}, {"time": 2949, "pitch": 62, "duration": 8, "velocity": 81}, {"time": 2955, "pitch": 50, "duration": 32, "velocity": 77}, {"time": 2961, "pitch": 58, "duration": 4, "velocity": 87}, {"time": 2964, "pitch": 55, "duration": 4, "velocity": 83}, {"time": 2967, "pitch": 62, "duration": 5, "velocity": 80}, {"time": 2970, "pitch": 58, "duration": 3, "velocity": 78}, {"time": 2973, "pitch": 67, "duration": 6, "velocity": 83}, {"time": 2979, "pitch": 55, "duration": 3, "velocity": 72}, {"time": 2985, "pitch": 55, "duration": 5, "velocity": 78}, {"time": 2985, "pitch": 58, "duration": 4, "velocity": 74}, {"time": 2985, "pitch": 62, "duration": 5, "velocity": 83}, {"time": 2991, "pitch": 43, "duration": 4, "velocity": 75}, {"time": 2997, "pitch": 46, "duration": 2, "velocity": 85}, {"time": 2997, "pitch": 53, "duration": 4, "velocity": 77}, {"time": 2997, "pitch": 58, "duration": 9, "velocity": 75}, {"time": 3003, "pitch": 53, "duration": 7, "velocity": 83}, {"time": 3009, "pitch": 58, "duration": 4, "velocity": 77}, {"time": 3009, "pitch": 62, "duration": 7, "velocity": 84}, {"time": 3021, "pitch": 48, "duration": 17, "velocity": 89}, {"time": 3021, "pitch": 55, "duration": 3, "velocity": 80}, {"time": 3021, "pitch": 60, "duration": 8, "velocity": 79}, {"time": 3027, "pitch": 55, "duration": 3, "velocity": 71}, {"time": 3033, "pitch": 55, "duration": 3, "velocity": 77}, {"time": 3033, "pitch": 60, "duration": 7, "velocity": 74}, {"time": 3033, "pitch": 64, "duration": 6, "velocity": 83}, {"time": 3039, "pitch": 55, "duration": 3, "velocity": 74}, {"time": 3045, "pitch": 41, "duration": 18, "velocity": 84}, {"time": 3045, "pitch": 53, "duration": 7, "velocity": 79}, {"time": 3045, "pitch": 57, "duration": 6, "velocity": 78}, {"time": 3051, "pitch": 48, "duration": 11, "velocity": 78}, {"time": 3057, "pitch": 53, "duration": 3, "velocity": 79}, {"time": 3057, "pitch": 57, "duration": 3, "velocity": 83}, {"time": 3057, "pitch": 65, "duration": 3, "velocity": 82}, {"time": 3063, "pitch": 55, "duration": 3, "velocity": 86}, {"time": 3069, "pitch": 45, "duration": 23, "velocity": 85}, {"time": 3069, "pitch": 57, "duration": 6, "velocity": 83}, {"time": 3075, "pitch": 52, "duration": 17, "velocity": 79}, {"time": 3078, "pitch": 57, "duration": 3, "velocity": 83}, {"time": 3081, "pitch": 64, "duration": 4, "velocity": 83}, {"time": 3084, "pitch": 57, "duration": 4, "velocity": 84}, {"time": 3087, "pitch": 69, "duration": 5, "velocity": 84}, {"time": 3090, "pitch": 57, "duration": 3, "velocity": 79}, {"time": 3093, "pitch": 50, "duration": 11, "velocity": 87}, {"time": 3093, "pitch": 57, "duration": 7, "velocity": 77}, {"time": 3093, "pitch": 65, "duration": 7, "velocity": 79}, {"time": 3102, "pitch": 57, "duration": 3, "velocity": 79}, {"time": 3102, "pitch": 62, "duration": 6, "velocity": 84}, {"time": 3108, "pitch": 57, "duration": 5, "velocity": 83}, {"time": 3111, "pitch": 62, "duration": 2, "velocity": 74}, {"time": 3117, "pitch": 48, "duration": 14, "velocity": 87}, {"time": 3117, "pitch": 55, "duration": 4, "velocity": 75}, {"time": 3117, "pitch": 60, "duration": 7, "velocity": 78}, {"time": 3123, "pitch": 55, "duration": 4, "velocity": 76}, {"time": 3129, "pitch": 55, "duration": 3, "velocity": 83}, {"time": 3129, "pitch": 60, "duration": 9, "velocity": 84}, {"time": 3129, "pitch": 64, "duration": 9, "velocity": 87}, {"time": 3135, "pitch": 55, "duration": 3, "velocity": 69}, {"time": 3141, "pitch": 38, "duration": 2, "velocity": 85}, {"time": 3141, "pitch": 57, "duration": 7, "velocity": 76}, {"time": 3141, "pitch": 62, "duration": 4, "velocity": 79}, {"time": 3150, "pitch": 57, "duration": 4, "velocity": 77}, {"time": 3150, "pitch": 65, "duration": 9, "velocity": 79}, {"time": 3156, "pitch": 57, "duration": 4, "velocity": 70}, {"time": 3159, "pitch": 62, "duration": 3, "velocity": 78}, {"time": 3162, "pitch": 57, "duration": 2, "velocity": 69}, {"time": 3165, "pitch": 50, "duration": 15, "velocity": 86}, {"time": 3168, "pitch": 57, "duration": 4, "velocity": 83}, {"time": 3171, "pitch": 62, "duration": 3, "velocity": 77}, {"time": 3174, "pitch": 57, "duration": 2, "velocity": 74}, {"time": 3177, "pitch": 57, "duration": 5, "velocity": 82}, {"time": 3177, "pitch": 65, "duration": 10, "velocity": 83}, {"time": 3183, "pitch": 57, "duration": 4, "velocity": 78}, {"time": 3189, "pitch": 50, "duration": 17, "velocity": 92}, {"time": 3189, "pitch": 57, "duration": 6, "velocity": 84}, {"time": 3189, "pitch": 62, "duration": 6, "velocity": 83}, {"time": 3198, "pitch": 57, "duration": 3, "velocity": 83}, {"time": 3198, "pitch": 62, "duration": 6, "velocity": 84}, {"time": 3198, "pitch": 65, "duration": 9, "velocity": 79}, {"time": 3204, "pitch": 57, "duration": 4, "velocity": 79}, {"time": 3207, "pitch": 62, "duration": 3, "velocity": 73}, {"time": 3210, "pitch": 57, "duration": 2, "velocity": 68}, {"time": 3213, "pitch": 48, "duration": 14, "velocity": 84}, {"time": 3213, "pitch": 55, "duration": 4, "velocity": 79}, {"time": 3213, "pitch": 60, "duration": 7, "velocity": 77}, {"time": 3219, "pitch": 55, "duration": 3, "velocity": 75}, {"time": 3225, "pitch": 55, "duration": 3, "velocity": 77}, {"time": 3225, "pitch": 60, "duration": 7, "velocity": 83}, {"time": 3225, "pitch": 64, "duration": 8, "velocity": 84}, {"time": 3231, "pitch": 55, "duration": 3, "velocity": 77}, {"time": 3237, "pitch": 41, "duration": 22, "velocity": 80}, {"time": 3237, "pitch": 57, "duration": 5, "velocity": 69}, {"time": 3237, "pitch": 60, "duration": 4, "velocity": 77}, {"time": 3243, "pitch": 48, "duration": 15, "velocity": 68}, {"time": 3249, "pitch": 53, "duration": 4, "velocity": 75}, {"time": 3252, "pitch": 55, "duration": 4, "velocity": 79}, {"time": 3255, "pitch": 57, "duration": 5, "velocity": 83}, {"time": 3261, "pitch": 41, "duration": 16, "velocity": 83}, {"time": 3261, "pitch": 53, "duration": 7, "velocity": 76}, {"time": 3261, "pitch": 57, "duration": 7, "velocity": 73}, {"time": 3261, "pitch": 60, "duration": 8, "velocity": 83}, {"time": 3267, "pitch": 48, "duration": 9, "velocity": 78}, {"time": 3273, "pitch": 53, "duration": 3, "velocity": 77}, {"time": 3273, "pitch": 57, "duration": 3, "velocity": 75}, {"time": 3285, "pitch": 50, "duration": 17, "velocity": 87}, {"time": 3285, "pitch": 57, "duration": 3, "velocity": 75}, {"time": 3285, "pitch": 62, "duration": 7, "velocity": 79}, {"time": 3291, "pitch": 57, "duration": 11, "velocity": 75}, {"time": 3297, "pitch": 62, "duration": 7, "velocity": 83}, {"time": 3303, "pitch": 65, "duration": 2, "velocity": 74}, {"time": 3309, "pitch": 43, "duration": 19, "velocity": 84}, {"time": 3309, "pitch": 55, "duration": 14, "velocity": 72}, {"time": 3309, "pitch": 62, "duration": 13, "velocity": 78}, {"time": 3315, "pitch": 50, "duration": 14, "velocity": 70}, {"time": 3321, "pitch": 58, "duration": 3, "velocity": 84}, {"time": 3333, "pitch": 45, "duration": 17, "velocity": 84}, {"time": 3333, "pitch": 57, "duration": 8, "velocity": 72}, {"time": 3333, "pitch": 60, "duration": 8, "velocity": 76}, {"time": 3339, "pitch": 52, "duration": 10, "velocity": 82}, {"time": 3345, "pitch": 60, "duration": 7, "velocity": 89}, {"time": 3351, "pitch": 57, "duration": 4, "velocity": 74}, {"time": 3354, "pitch": 60, "duration": 4, "velocity": 76}, {"time": 3357, "pitch": 38, "duration": 15, "velocity": 86}, {"time": 3357, "pitch": 62, "duration": 8, "velocity": 79}, {"time": 3363, "pitch": 45, "duration": 8, "velocity": 72}, {"time": 3369, "pitch": 57, "duration": 6, "velocity": 77}, {"time": 3369, "pitch": 62, "duration": 5, "velocity": 83}, {"time": 3369, "pitch": 65, "duration": 6, "velocity": 83}, {"time": 3381, "pitch": 45, "duration": 41, "velocity": 87}, {"time": 3381, "pitch": 57, "duration": 7, "velocity": 78}, {"time": 3381, "pitch": 60, "duration": 8, "velocity": 81}, {"time": 3387, "pitch": 52, "duration": 21, "velocity": 77}, {"time": 3393, "pitch": 57, "duration": 8, "velocity": 67}, {"time": 3399, "pitch": 60, "duration": 3, "velocity": 73}, {"time": 3405, "pitch": 57, "duration": 8, "velocity": 79}, {"time": 3405, "pitch": 60, "duration": 7, "velocity": 84}, {"time": 3405, "pitch": 64, "duration": 8, "velocity": 84}, {"time": 3411, "pitch": 52, "duration": 10, "velocity": 80}, {"time": 3417, "pitch": 55, "duration": 3, "velocity": 76}, {"time": 3417, "pitch": 57, "duration": 4, "velocity": 71}, {"time": 3417, "pitch": 60, "duration": 4, "velocity": 86}, {"time": 3417, "pitch": 64, "duration": 7, "velocity": 87}, {"time": 3423, "pitch": 62, "duration": 4, "velocity": 80}, {"time": 3426, "pitch": 60, "duration": 3, "velocity": 77}, {"time": 3429, "pitch": 38, "duration": 2, "velocity": 84}, {"time": 3429, "pitch": 57, "duration": 13, "velocity": 73}, {"time": 3429, "pitch": 62, "duration": 19, "velocity": 78}, {"time": 3435, "pitch": 45, "duration": 22, "velocity": 79}, {"time": 3441, "pitch": 53, "duration": 15, "velocity": 84}, {"time": 3447, "pitch": 57, "duration": 4, "velocity": 83}, {"time": 3453, "pitch": 57, "duration": 7, "velocity": 83}, {"time": 3453, "pitch": 62, "duration": 10, "velocity": 84}, {"time": 3453, "pitch": 65, "duration": 10, "velocity": 84}, {"time": 3459, "pitch": 45, "duration": 17, "velocity": 55}, {"time": 3459, "pitch": 53, "duration": 18, "velocity": 83}, {"time": 3462, "pitch": 57, "duration": 2, "velocity": 79}, {"time": 3465, "pitch": 57, "duration": 6, "velocity": 80}, {"time": 3465, "pitch": 65, "duration": 10, "velocity": 85}, {"time": 3471, "pitch": 57, "duration": 4, "velocity": 59}, {"time": 3471, "pitch": 64, "duration": 6, "velocity": 80}, {"time": 3477, "pitch": 39, "duration": 2, "velocity": 86}, {"time": 3477, "pitch": 63, "duration": 9, "velocity": 80}, {"time": 3477, "pitch": 66, "duration": 9, "velocity": 78}, {"time": 3483, "pitch": 51, "duration": 9, "velocity": 88}, {"time": 3489, "pitch": 63, "duration": 6, "velocity": 79}, {"time": 3489, "pitch": 66, "duration": 5, "velocity": 78}, {"time": 3489, "pitch": 70, "duration": 6, "velocity": 74}, {"time": 3495, "pitch": 58, "duration": 3, "velocity": 68}, {"time": 3498, "pitch": 63, "duration": 2, "velocity": 79}, {"time": 3498, "pitch": 66, "duration": 2, "velocity": 76}, {"time": 3498, "pitch": 70, "duration": 2, "velocity": 78}, {"time": 3501, "pitch": 63, "duration": 7, "velocity": 83}, {"time": 3501, "pitch": 66, "duration": 7, "velocity": 85}, {"time": 3501, "pitch": 70, "duration": 8, "velocity": 88}, {"time": 3507, "pitch": 51, "duration": 8, "velocity": 74}, {"time": 3507, "pitch": 58, "duration": 8, "velocity": 72}, {"time": 3510, "pitch": 63, "duration": 2, "velocity": 74}, {"time": 3510, "pitch": 66, "duration": 2, "velocity": 67}, {"time": 3510, "pitch": 70, "duration": 2, "velocity": 72}, {"time": 3510, "pitch": 75, "duration": 2, "velocity": 74}, {"time": 3513, "pitch": 63, "duration": 12, "velocity": 84}, {"time": 3513, "pitch": 66, "duration": 12, "velocity": 86}, {"time": 3513, "pitch": 70, "duration": 12, "velocity": 88}, {"time": 3513, "pitch": 75, "duration": 13, "velocity": 84}, {"time": 3519, "pitch": 51, "duration": 6, "velocity": 84}, {"time": 3525, "pitch": 51, "duration": 11, "velocity": 87}, {"time": 3525, "pitch": 58, "duration": 7, "velocity": 77}, {"time": 3525, "pitch": 66, "duration": 7, "velocity": 79}, {"time": 3534, "pitch": 58, "duration": 3, "velocity": 79}, {"time": 3534, "pitch": 63, "duration": 6, "velocity": 84}, {"time": 3540, "pitch": 58, "duration": 5, "velocity": 83}, {"time": 3543, "pitch": 63, "duration": 2, "velocity": 74}, {"time": 3549, "pitch": 49, "duration": 14, "velocity": 87}, {"time": 3549, "pitch": 56, "duration": 4, "velocity": 75}, {"time": 3549, "pitch": 61, "duration": 7, "velocity": 78}, {"time": 3555, "pitch": 56, "duration": 4, "velocity": 76}, {"time": 3561, "pitch": 56, "duration": 3, "velocity": 83}, {"time": 3561, "pitch": 61, "duration": 9, "velocity": 84}, {"time": 3561, "pitch": 65, "duration": 9, "velocity": 87}, {"time": 3567, "pitch": 56, "duration": 3, "velocity": 69}, {"time": 3573, "pitch": 39, "duration": 2, "velocity": 85}, {"time": 3573, "pitch": 58, "duration": 7, "velocity": 76}, {"time": 3573, "pitch": 63, "duration": 4, "velocity": 79}, {"time": 3582, "pitch": 58, "duration": 4, "velocity": 77}, {"time": 3582, "pitch": 66, "duration": 9, "velocity": 79}, {"time": 3588, "pitch": 58, "duration": 4, "velocity": 70}, {"time": 3591, "pitch": 63, "duration": 3, "velocity": 78}, {"time": 3594, "pitch": 58, "duration": 2, "velocity": 69}, {"time": 3597, "pitch": 51, "duration": 15, "velocity": 86}, {"time": 3600, "pitch": 58, "duration": 4, "velocity": 83}, {"time": 3603, "pitch": 63, "duration": 3, "velocity": 77}, {"time": 3606, "pitch": 58, "duration": 2, "velocity": 74}, {"time": 3609, "pitch": 58, "duration": 5, "velocity": 82}, {"time": 3609, "pitch": 66, "duration": 10, "velocity": 83}, {"time": 3615, "pitch": 58, "duration": 4, "velocity": 78}, {"time": 3621, "pitch": 51, "duration": 17, "velocity": 92}, {"time": 3621, "pitch": 58, "duration": 6, "velocity": 84}, {"time": 3621, "pitch": 63, "duration": 6, "velocity": 83}, {"time": 3630, "pitch": 58, "duration": 3, "velocity": 83}, {"time": 3630, "pitch": 63, "duration": 6, "velocity": 84}, {"time": 3630, "pitch": 66, "duration": 9, "velocity": 79}, {"time": 3636, "pitch": 58, "duration": 4, "velocity": 79}, {"time": 3639, "pitch": 63, "duration": 3, "velocity": 73}, {"time": 3642, "pitch": 58, "duration": 2, "velocity": 68}, {"time": 3645, "pitch": 49, "duration": 14, "velocity": 84}, {"time": 3645, "pitch": 56, "duration": 4, "velocity": 79}, {"time": 3645, "pitch": 61, "duration": 7, "velocity": 77}, {"time": 3651, "pitch": 56, "duration": 3, "velocity": 75}, {"time": 3657, "pitch": 56, "duration": 3, "velocity": 77}, {"time": 3657, "pitch": 61, "duration": 7, "velocity": 83}, {"time": 3657, "pitch": 65, "duration": 8, "velocity": 84}, {"time": 3663, "pitch": 56, "duration": 3, "velocity": 77}, {"time": 3669, "pitch": 42, "duration": 22, "velocity": 80}, {"time": 3669, "pitch": 58, "duration": 5, "velocity": 69}, {"time": 3669, "pitch": 61, "duration": 4, "velocity": 77}, {"time": 3675, "pitch": 49, "duration": 15, "velocity": 68}, {"time": 3681, "pitch": 54, "duration": 4, "velocity": 75}, {"time": 3684, "pitch": 56, "duration": 4, "velocity": 79}, {"time": 3687, "pitch": 58, "duration": 5, "velocity": 83}, {"time": 3693, "pitch": 42, "duration": 16, "velocity": 83}, {"time": 3693, "pitch": 54, "duration": 7, "velocity": 76}, {"time": 3693, "pitch": 58, "duration": 7, "velocity": 73}, {"time": 3693, "pitch": 61, "duration": 8, "velocity": 83}, {"time": 3699, "pitch": 49, "duration": 9, "velocity": 78}, {"time": 3705, "pitch": 54, "duration": 3, "velocity": 77}, {"time": 3705, "pitch": 58, "duration": 3, "velocity": 75}, {"time": 3717, "pitch": 51, "duration": 22, "velocity": 81}, {"time": 3717, "pitch": 58, "duration": 4, "velocity": 78}, {"time": 3717, "pitch": 63, "duration": 9, "velocity": 80}, {"time": 3723, "pitch": 58, "duration": 3, "velocity": 63}, {"time": 3729, "pitch": 66, "duration": 4, "velocity": 88}, {"time": 3732, "pitch": 63, "duration": 5, "velocity": 78}, {"time": 3735, "pitch": 58, "duration": 4, "velocity": 72}, {"time": 3741, "pitch": 51, "duration": 16, "velocity": 78}, {"time": 3741, "pitch": 58, "duration": 4, "velocity": 67}, {"time": 3741, "pitch": 63, "duration": 8, "velocity": 74}, {"time": 3747, "pitch": 58, "duration": 2, "velocity": 58}, {"time": 3753, "pitch": 58, "duration": 5, "velocity": 83}, {"time": 3753, "pitch": 66, "duration": 5, "velocity": 83}, {"time": 3765, "pitch": 44, "duration": 38, "velocity": 84}, {"time": 3765, "pitch": 56, "duration": 9, "velocity": 77}, {"time": 3765, "pitch": 63, "duration": 8, "velocity": 81}, {"time": 3771, "pitch": 51, "duration": 32, "velocity": 77}, {"time": 3777, "pitch": 59, "duration": 4, "velocity": 87}, {"time": 3780, "pitch": 56, "duration": 4, "velocity": 83}, {"time": 3783, "pitch": 63, "duration": 5, "velocity": 80}, {"time": 3786, "pitch": 59, "duration": 3, "velocity": 78}, {"time": 3789, "pitch": 68, "duration": 6, "velocity": 83}, {"time": 3795, "pitch": 56, "duration": 3, "velocity": 72}, {"time": 3801, "pitch": 56, "duration": 5, "velocity": 78}, {"time": 3801, "pitch": 59, "duration": 4, "velocity": 74}, {"time": 3801, "pitch": 63, "duration": 5, "velocity": 83}, {"time": 3807, "pitch": 44, "duration": 4, "velocity": 75}, {"time": 3813, "pitch": 47, "duration": 2, "velocity": 85}, {"time": 3813, "pitch": 54, "duration": 4, "velocity": 77}, {"time": 3813, "pitch": 59, "duration": 9, "velocity": 75}, {"time": 3819, "pitch": 54, "duration": 7, "velocity": 83}, {"time": 3825, "pitch": 59, "duration": 4, "velocity": 77}, {"time": 3825, "pitch": 63, "duration": 7, "velocity": 84}, {"time": 3837, "pitch": 49, "duration": 17, "velocity": 89}, {"time": 3837, "pitch": 56, "duration": 3, "velocity": 80}, {"time": 3837, "pitch": 61, "duration": 8, "velocity": 79}, {"time": 3843, "pitch": 56, "duration": 3, "velocity": 71}, {"time": 3849, "pitch": 56, "duration": 3, "velocity": 77}, {"time": 3849, "pitch": 61, "duration": 7, "velocity": 74}, {"time": 3849, "pitch": 65, "duration": 6, "velocity": 83}, {"time": 3855, "pitch": 56, "duration": 3, "velocity": 74}, {"time": 3861, "pitch": 42, "duration": 18, "velocity": 84}, {"time": 3861, "pitch": 54, "duration": 7, "velocity": 79}, {"time": 3861, "pitch": 58, "duration": 6, "velocity": 78}, {"time": 3867, "pitch": 49, "duration": 11, "velocity": 78}, {"time": 3873, "pitch": 54, "duration": 3, "velocity": 79}, {"time": 3873, "pitch": 58, "duration": 3, "velocity": 83}, {"time": 3873, "pitch": 66, "duration": 3, "velocity": 82}, {"time": 3879, "pitch": 56, "duration": 3, "velocity": 86}, {"time": 3885, "pitch": 46, "duration": 23, "velocity": 85}, {"time": 3885, "pitch": 58, "duration": 6, "velocity": 83}, {"time": 3891, "pitch": 53, "duration": 17, "velocity": 79}, {"time": 3894, "pitch": 58, "duration": 3, "velocity": 83}, {"time": 3897, "pitch": 65, "duration": 4, "velocity": 83}, {"time": 3900, "pitch": 58, "duration": 4, "velocity": 84}, {"time": 3903, "pitch": 70, "duration": 5, "velocity": 84}, {"time": 3906, "pitch": 58, "duration": 3, "velocity": 79}, {"time": 3909, "pitch": 51, "duration": 11, "velocity": 87}, {"time": 3909, "pitch": 58, "duration": 7, "velocity": 77}, {"time": 3909, "pitch": 66, "duration": 7, "velocity": 79}, {"time": 3918, "pitch": 58, "duration": 3, "velocity": 79}, {"time": 3918, "pitch": 63, "duration": 6, "velocity": 84}, {"time": 3924, "pitch": 58, "duration": 5, "velocity": 83}, {"time": 3927, "pitch": 63, "duration": 2, "velocity": 74}, {"time": 3933, "pitch": 49, "duration": 14, "velocity": 87}, {"time": 3933, "pitch": 56, "duration": 4, "velocity": 75}, {"time": 3933, "pitch": 61, "duration": 7, "velocity": 78}, {"time": 3939, "pitch": 56, "duration": 4, "velocity": 76}, {"time": 3945, "pitch": 56, "duration": 3, "velocity": 83}, {"time": 3945, "pitch": 61, "duration": 9, "velocity": 84}, {"time": 3945, "pitch": 65, "duration": 9, "velocity": 87}, {"time": 3951, "pitch": 56, "duration": 3, "velocity": 69}, {"time": 3957, "pitch": 39, "duration": 2, "velocity": 85}, {"time": 3957, "pitch": 58, "duration": 7, "velocity": 76}, {"time": 3957, "pitch": 63, "duration": 4, "velocity": 79}, {"time": 3966, "pitch": 58, "duration": 4, "velocity": 77}, {"time": 3966, "pitch": 66, "duration": 9, "velocity": 79}, {"time": 3972, "pitch": 58, "duration": 4, "velocity": 70}, {"time": 3975, "pitch": 63, "duration": 3, "velocity": 78}, {"time": 3978, "pitch": 58, "duration": 2, "velocity": 69}, {"time": 3981, "pitch": 51, "duration": 15, "velocity": 86}, {"time": 3984, "pitch": 58, "duration": 4, "velocity": 83}, {"time": 3987, "pitch": 63, "duration": 3, "velocity": 77}, {"time": 3990, "pitch": 58, "duration": 2, "velocity": 74}, {"time": 3993, "pitch": 58, "duration": 5, "velocity": 82}, {"time": 3993, "pitch": 66, "duration": 10, "velocity": 83}, {"time": 3999, "pitch": 58, "duration": 4, "velocity": 78}, {"time": 4005, "pitch": 51, "duration": 17, "velocity": 92}, {"time": 4005, "pitch": 58, "duration": 6, "velocity": 84}, {"time": 4005, "pitch": 63, "duration": 6, "velocity": 83}, {"time": 4014, "pitch": 58, "duration": 3, "velocity": 83}, {"time": 4014, "pitch": 63, "duration": 6, "velocity": 84}, {"time": 4014, "pitch": 66, "duration": 9, "velocity": 79}, {"time": 4020, "pitch": 58, "duration": 4, "velocity": 79}, {"time": 4023, "pitch": 63, "duration": 3, "velocity": 73}, {"time": 4026, "pitch": 58, "duration": 2, "velocity": 68}, {"time": 4029, "pitch": 49, "duration": 14, "velocity": 84}, {"time": 4029, "pitch": 56, "duration": 4, "velocity": 79}, {"time": 4029, "pitch": 61, "duration": 7, "velocity": 77}, {"time": 4035, "pitch": 56, "duration": 3, "velocity": 75}, {"time": 4041, "pitch": 56, "duration": 3, "velocity": 77}, {"time": 4041, "pitch": 61, "duration": 7, "velocity": 83}, {"time": 4041, "pitch": 65, "duration": 8, "velocity": 84}, {"time": 4047, "pitch": 56, "duration": 3, "velocity": 77}, {"time": 4053, "pitch": 42, "duration": 22, "velocity": 80}, {"time": 4053, "pitch": 58, "duration": 5, "velocity": 69}, {"time": 4053, "pitch": 61, "duration": 4, "velocity": 77}, {"time": 4059, "pitch": 49, "duration": 15, "velocity": 68}, {"time": 4065, "pitch": 54, "duration": 4, "velocity": 75}, {"time": 4068, "pitch": 56, "duration": 4, "velocity": 79}, {"time": 4071, "pitch": 58, "duration": 5, "velocity": 83}, {"time": 4077, "pitch": 42, "duration": 16, "velocity": 83}, {"time": 4077, "pitch": 54, "duration": 7, "velocity": 76}, {"time": 4077, "pitch": 58, "duration": 7, "velocity": 73}, {"time": 4077, "pitch": 61, "duration": 8, "velocity": 83}, {"time": 4083, "pitch": 49, "duration": 9, "velocity": 78}, {"time": 4089, "pitch": 54, "duration": 3, "velocity": 77}, {"time": 4089, "pitch": 58, "duration": 3, "velocity": 75}, {"time": 4101, "pitch": 51, "duration": 17, "velocity": 87}, {"time": 4101, "pitch": 58, "duration": 3, "velocity": 75}, {"time": 4101, "pitch": 63, "duration": 7, "velocity": 79}, {"time": 4107, "pitch": 58, "duration": 11, "velocity": 75}, {"time": 4113, "pitch": 63, "duration": 7, "velocity": 83}, {"time": 4119, "pitch": 66, "duration": 2, "velocity": 74}, {"time": 4125, "pitch": 44, "duration": 19, "velocity": 84}, {"time": 4125, "pitch": 56, "duration": 14, "velocity": 72}, {"time": 4125, "pitch": 63, "duration": 13, "velocity": 78}, {"time": 4131, "pitch": 51, "duration": 14, "velocity": 70}, {"time": 4137, "pitch": 59, "duration": 3, "velocity": 84}, {"time": 4149, "pitch": 46, "duration": 17, "velocity": 84}, {"time": 4149, "pitch": 58, "duration": 8, "velocity": 72}, {"time": 4149, "pitch": 61, "duration": 8, "velocity": 76}, {"time": 4155, "pitch": 53, "duration": 10, "velocity": 82}, {"time": 4161, "pitch": 61, "duration": 7, "velocity": 89}, {"time": 4167, "pitch": 58, "duration": 4, "velocity": 74}, {"time": 4170, "pitch": 61, "duration": 4, "velocity": 76}, {"time": 4173, "pitch": 39, "duration": 15, "velocity": 86}, {"time": 4173, "pitch": 63, "duration": 8, "velocity": 79}, {"time": 4179, "pitch": 46, "duration": 8, "velocity": 72}, {"time": 4185, "pitch": 58, "duration": 6, "velocity": 77}, {"time": 4185, "pitch": 63, "duration": 5, "velocity": 83}, {"time": 4185, "pitch": 66, "duration": 6, "velocity": 83}, {"time": 4197, "pitch": 46, "duration": 41, "velocity": 87}, {"time": 4197, "pitch": 58, "duration": 7, "velocity": 78}, {"time": 4197, "pitch": 61, "duration": 8, "velocity": 81}, {"time": 4203, "pitch": 53, "duration": 21, "velocity": 77}, {"time": 4209, "pitch": 58, "duration": 8, "velocity": 67}, {"time": 4215, "pitch": 61, "duration": 3, "velocity": 73}, {"time": 4221, "pitch": 58, "duration": 8, "velocity": 79}, {"time": 4221, "pitch": 61, "duration": 7, "velocity": 84}, {"time": 4221, "pitch": 65, "duration": 8, "velocity": 84}, {"time": 4227, "pitch": 53, "duration": 10, "velocity": 80}, {"time": 4233, "pitch": 56, "duration": 3, "velocity": 76}, {"time": 4233, "pitch": 58, "duration": 4, "velocity": 71}, {"time": 4233, "pitch": 61, "duration": 4, "velocity": 86}, {"time": 4233, "pitch": 65, "duration": 7, "velocity": 87}, {"time": 4239, "pitch": 63, "duration": 4, "velocity": 80}, {"time": 4242, "pitch": 61, "duration": 3, "velocity": 77}, {"time": 4245, "pitch": 39, "duration": 2, "velocity": 84}, {"time": 4245, "pitch": 58, "duration": 13, "velocity": 73}, {"time": 4245, "pitch": 63, "duration": 19, "velocity": 78}, {"time": 4251, "pitch": 46, "duration": 22, "velocity": 79}, {"time": 4257, "pitch": 54, "duration": 15, "velocity": 84}, {"time": 4263, "pitch": 58, "duration": 4, "velocity": 83}, {"time": 4269, "pitch": 58, "duration": 7, "velocity": 83}, {"time": 4269, "pitch": 63, "duration": 10, "velocity": 84}, {"time": 4269, "pitch": 66, "duration": 10, "velocity": 84}, {"time": 4275, "pitch": 46, "duration": 17, "velocity": 55}, {"time": 4275, "pitch": 54, "duration": 18, "velocity": 83}, {"time": 4278, "pitch": 58, "duration": 2, "velocity": 79}, {"time": 4281, "pitch": 58, "duration": 6, "velocity": 80}, {"time": 4281, "pitch": 66, "duration": 10, "velocity": 85}, {"time": 4287, "pitch": 58, "duration": 4, "velocity": 59}, {"time": 4287, "pitch": 65, "duration": 6, "velocity": 80}, {"time": 4292, "pitch": 53, "duration": 4, "velocity": 74}, {"time": 4293, "pitch": 46, "duration": 57, "velocity": 85}, {"time": 4293, "pitch": 58, "duration": 7, "velocity": 69}, {"time": 4295, "pitch": 61, "duration": 6, "velocity": 79}, {"time": 4300, "pitch": 53, "duration": 24, "velocity": 75}, {"time": 4306, "pitch": 61, "duration": 20, "velocity": 89}, {"time": 4314, "pitch": 58, "duration": 17, "velocity": 90}, {"time": 4322, "pitch": 65, "duration": 28, "velocity": 84}, {"time": 4368, "pitch": 39, "duration": 72, "velocity": 92}, {"time": 4374, "pitch": 46, "duration": 66, "velocity": 69}, {"time": 4378, "pitch": 51, "duration": 6, "velocity": 66}, {"time": 4383, "pitch": 58, "duration": 9, "velocity": 76}, {"time": 4387, "pitch": 51, "duration": 6, "velocity": 69}, {"time": 4392, "pitch": 63, "duration": 3, "velocity": 77}, {"time": 4416, "pitch": 63, "duration": 3, "velocity": 71}, {"time": 4417, "pitch": 66, "duration": 2, "velocity": 77}, {"time": 4418, "pitch": 70, "duration": 2, "velocity": 72}, {"time": 4419, "pitch": 75, "duration": 24, "velocity": 77}, {"time": 4423, "pitch": 63, "duration": 19, "velocity": 54}], "annotations": [{"time": 14, "annotation": {"number": 64, "value": 127}, "group": "control_change"}, {"time": 14, "annotation": {"number": 64, "value": 0}, "group": "control_change"}, {"time": 23, "annotation": {"number": 64, "value": 127}, "group": "control_change"}, {"time": 23, "annotation": {"number": 64, "value": 0}, "group": "control_change"}, {"time": 69, "annotation": {"number": 64, "value": 0}, "group": "control_change"}, {"time": 72, "annotation": {"number": 64, "value": 127}, "group": "control_change"}, {"time": 116, "annotation": {"number": 64, "value": 0}, "group": "control_change"}, {"time": 119, "annotation": {"number": 64, "value": 127}, "group": "control_change"}, {"time": 164, "annotation": {"number": 64, "value": 0}, "group": "control_change"}, {"time": 168, "annotation": {"number": 64, "value": 127}, "group": "control_change"}, {"time": 213, "annotation": {"number": 64, "value": 0}, "group": "control_change"}, {"time": 214, "annotation": {"number": 64, "value": 127}, "group": "control_change"}, {"time": 260, "annotation": {"number": 64, "value": 0}, "group": "control_change"}, {"time": 263, "annotation": {"number": 64, "value": 127}, "group": "control_change"}, {"time": 284, "annotation": {"number": 64, "value": 0}, "group": "control_change"}, {"time": 286, "annotation": {"number": 64, "value": 127}, "group": "control_change"}, {"time": 309, "annotation": {"number": 64, "value": 0}, "group": "control_change"}, {"time": 311, "annotation": {"number": 64, "value": 127}, "group": "control_change"}, {"time": 354, "annotation": {"number": 64, "value": 0}, "group": "control_change"}, {"time": 358, "annotation": {"number": 64, "value": 127}, "group": "control_change"}, {"time": 402, "annotation": {"number": 64, "value": 0}, "group": "control_change"}, {"time": 453, "annotation": {"number": 64, "value": 0}, "group": "control_change"}, {"time": 456, "annotation": {"number": 64, "value": 127}, "group": "control_change"}, {"time": 477, "annotation": {"number": 64, "value": 0}, "group": "control_change"}, {"time": 480, "annotation": {"number": 64, "value": 127}, "group": "control_change"}, {"time": 501, "annotation": {"number": 64, "value": 0}, "group": "control_change"}, {"time": 503, "annotation": {"number": 64, "value": 127}, "group": "control_change"}, {"time": 525, "annotation": {"number": 64, "value": 0}, "group": "control_change"}, {"time": 526, "annotation": {"number": 64, "value": 127}, "group": "control_change"}, {"time": 548, "annotation": {"number": 64, "value": 0}, "group": "control_change"}, {"time": 550, "annotation": {"number": 64, "value": 127}, "group": "control_change"}, {"time": 596, "annotation": {"number": 64, "value": 0}, "group": "control_change"}, {"time": 598, "annotation": {"number": 64, "value": 127}, "group": "control_change"}, {"time": 643, "annotation": {"number": 64, "value": 0}, "group": "control_change"}, {"time": 646, "annotation": {"number": 64, "value": 127}, "group": "control_change"}, {"time": 693, "annotation": {"number": 64, "value": 0}, "group": "control_change"}, {"time": 695, "annotation": {"number": 64, "value": 127}, "group": "control_change"}, {"time": 718, "annotation": {"number": 64, "value": 0}, "group": "control_change"}, {"time": 721, "annotation": {"number": 64, "value": 127}, "group": "control_change"}, {"time": 739, "annotation": {"number": 64, "value": 0}, "group": "control_change"}, {"time": 742, "annotation": {"number": 64, "value": 127}, "group": "control_change"}, {"time": 788, "annotation": {"number": 64, "value": 0}, "group": "control_change"}, {"time": 790, "annotation": {"number": 64, "value": 127}, "group": "control_change"}, {"time": 836, "annotation": {"number": 64, "value": 0}, "group": "control_change"}, {"time": 837, "annotation": {"number": 64, "value": 127}, "group": "control_change"}, {"time": 861, "annotation": {"number": 64, "value": 0}, "group": "control_change"}, {"time": 864, "annotation": {"number": 64, "value": 127}, "group": "control_change"}, {"time": 885, "annotation": {"number": 64, "value": 0}, "group": "control_change"}, {"time": 887, "annotation": {"number": 64, "value": 127}, "group": "control_change"}, {"time": 908, "annotation": {"number": 64, "value": 0}, "group": "control_change"}, {"time": 910, "annotation": {"number": 64, "value": 127}, "group": "control_change"}, {"time": 933, "annotation": {"number": 64, "value": 0}, "group": "control_change"}, {"time": 935, "annotation": {"number": 64, "value": 127}, "group": "control_change"}, {"time": 981, "annotation": {"number": 64, "value": 0}, "group": "control_change"}, {"time": 982, "annotation": {"number": 64, "value": 127}, "group": "control_change"}, {"time": 1028, "annotation": {"number": 64, "value": 0}, "group": "control_change"}, {"time": 1030, "annotation": {"number": 64, "value": 127}, "group": "control_change"}, {"time": 1053, "annotation": {"number": 64, "value": 0}, "group": "control_change"}, {"time": 1056, "annotation": {"number": 64, "value": 127}, "group": "control_change"}, {"time": 1075, "annotation": {"number": 64, "value": 0}, "group": "control_change"}, {"time": 1076, "annotation": {"number": 64, "value": 127}, "group": "control_change"}, {"time": 1123, "annotation": {"number": 64, "value": 0}, "group": "control_change"}, {"time": 1126, "annotation": {"number": 64, "value": 127}, "group": "control_change"}, {"time": 1171, "annotation": {"number": 64, "value": 0}, "group": "control_change"}, {"time": 1173, "annotation": {"number": 64, "value": 127}, "group": "control_change"}, {"time": 1174, "annotation": {"number": 64, "value": 0}, "group": "control_change"}, {"time": 1174, "annotation": {"number": 64, "value": 127}, "group": "control_change"}, {"time": 1196, "annotation": {"number": 64, "value": 0}, "group": "control_change"}, {"time": 1198, "annotation": {"number": 64, "value": 127}, "group": "control_change"}, {"time": 1219, "annotation": {"number": 64, "value": 0}, "group": "control_change"}, {"time": 1221, "annotation": {"number": 64, "value": 127}, "group": "control_change"}, {"time": 1268, "annotation": {"number": 64, "value": 0}, "group": "control_change"}, {"time": 1269, "annotation": {"number": 64, "value": 127}, "group": "control_change"}, {"time": 1292, "annotation": {"number": 64, "value": 0}, "group": "control_change"}, {"time": 1294, "annotation": {"number": 64, "value": 127}, "group": "control_change"}, {"time": 1315, "annotation": {"number": 64, "value": 0}, "group": "control_change"}, {"time": 1317, "annotation": {"number": 64, "value": 127}, "group": "control_change"}, {"time": 1340, "annotation": {"number": 64, "value": 0}, "group": "control_change"}, {"time": 1341, "annotation": {"number": 64, "value": 127}, "group": "control_change"}, {"time": 1364, "annotation": {"number": 64, "value": 0}, "group": "control_change"}, {"time": 1366, "annotation": {"number": 64, "value": 127}, "group": "control_change"}, {"time": 1412, "annotation": {"number": 64, "value": 0}, "group": "control_change"}, {"time": 1414, "annotation": {"number": 64, "value": 127}, "group": "control_change"}, {"time": 1460, "annotation": {"number": 64, "value": 0}, "group": "control_change"}, {"time": 1461, "annotation": {"number": 64, "value": 127}, "group": "control_change"}, {"time": 1485, "annotation": {"number": 64, "value": 0}, "group": "control_change"}, {"time": 1487, "annotation": {"number": 64, "value": 127}, "group": "control_change"}, {"time": 1508, "annotation": {"number": 64, "value": 0}, "group": "control_change"}, {"time": 1509, "annotation": {"number": 64, "value": 127}, "group": "control_change"}, {"time": 1531, "annotation": {"number": 64, "value": 0}, "group": "control_change"}, {"time": 1533, "annotation": {"number": 64, "value": 127}, "group": "control_change"}, {"time": 1555, "annotation": {"number": 64, "value": 0}, "group": "control_change"}, {"time": 1557, "annotation": {"number": 64, "value": 127}, "group": "control_change"}, {"time": 1558, "annotation": {"number": 64, "value": 0}, "group": "control_change"}, {"time": 1558, "annotation": {"number": 64, "value": 127}, "group": "control_change"}, {"time": 1580, "annotation": {"number": 64, "value": 0}, "group": "control_change"}, {"time": 1582, "annotation": {"number": 64, "value": 127}, "group": "control_change"}, {"time": 1603, "annotation": {"number": 64, "value": 0}, "group": "control_change"}, {"time": 1605, "annotation": {"number": 64, "value": 127}, "group": "control_change"}, {"time": 1652, "annotation": {"number": 64, "value": 0}, "group": "control_change"}, {"time": 1653, "annotation": {"number": 64, "value": 127}, "group": "control_change"}, {"time": 1676, "annotation": {"number": 64, "value": 0}, "group": "control_change"}, {"time": 1678, "annotation": {"number": 64, "value": 127}, "group": "control_change"}, {"time": 1699, "annotation": {"number": 64, "value": 0}, "group": "control_change"}, {"time": 1701, "annotation": {"number": 64, "value": 127}, "group": "control_change"}, {"time": 1724, "annotation": {"number": 64, "value": 0}, "group": "control_change"}, {"time": 1725, "annotation": {"number": 64, "value": 127}, "group": "control_change"}, {"time": 1748, "annotation": {"number": 64, "value": 0}, "group": "control_change"}, {"time": 1750, "annotation": {"number": 64, "value": 127}, "group": "control_change"}, {"time": 1774, "annotation": {"number": 64, "value": 0}, "group": "control_change"}, {"time": 1776, "annotation": {"number": 64, "value": 127}, "group": "control_change"}, {"time": 1796, "annotation": {"number": 64, "value": 0}, "group": "control_change"}, {"time": 1798, "annotation": {"number": 64, "value": 127}, "group": "control_change"}, {"time": 1820, "annotation": {"number": 64, "value": 0}, "group": "control_change"}, {"time": 1822, "annotation": {"number": 64, "value": 127}, "group": "control_change"}, {"time": 1844, "annotation": {"number": 64, "value": 0}, "group": "control_change"}, {"time": 1846, "annotation": {"number": 64, "value": 127}, "group": "control_change"}, {"time": 1891, "annotation": {"number": 64, "value": 0}, "group": "control_change"}, {"time": 1893, "annotation": {"number": 64, "value": 127}, "group": "control_change"}, {"time": 1939, "annotation": {"number": 64, "value": 0}, "group": "control_change"}, {"time": 1942, "annotation": {"number": 64, "value": 127}, "group": "control_change"}, {"time": 1964, "annotation": {"number": 64, "value": 0}, "group": "control_change"}, {"time": 1967, "annotation": {"number": 64, "value": 127}, "group": "control_change"}, {"time": 1989, "annotation": {"number": 64, "value": 0}, "group": "control_change"}, {"time": 1991, "annotation": {"number": 64, "value": 127}, "group": "control_change"}, {"time": 2035, "annotation": {"number": 64, "value": 0}, "group": "control_change"}, {"time": 2038, "annotation": {"number": 64, "value": 127}, "group": "control_change"}, {"time": 2059, "annotation": {"number": 64, "value": 0}, "group": "control_change"}, {"time": 2062, "annotation": {"number": 64, "value": 127}, "group": "control_change"}, {"time": 2084, "annotation": {"number": 64, "value": 0}, "group": "control_change"}, {"time": 2087, "annotation": {"number": 64, "value": 127}, "group": "control_change"}, {"time": 2131, "annotation": {"number": 64, "value": 0}, "group": "control_change"}, {"time": 2134, "annotation": {"number": 64, "value": 127}, "group": "control_change"}, {"time": 2178, "annotation": {"number": 64, "value": 0}, "group": "control_change"}, {"time": 2180, "annotation": {"number": 64, "value": 127}, "group": "control_change"}, {"time": 2227, "annotation": {"number": 64, "value": 0}, "group": "control_change"}, {"time": 2230, "annotation": {"number": 64, "value": 127}, "group": "control_change"}, {"time": 2274, "annotation": {"number": 64, "value": 0}, "group": "control_change"}, {"time": 2276, "annotation": {"number": 64, "value": 127}, "group": "control_change"}, {"time": 2320, "annotation": {"number": 64, "value": 0}, "group": "control_change"}, {"time": 2326, "annotation": {"number": 64, "value": 127}, "group": "control_change"}, {"time": 2372, "annotation": {"number": 64, "value": 0}, "group": "control_change"}, {"time": 2373, "annotation": {"number": 64, "value": 127}, "group": "control_change"}, {"time": 2397, "annotation": {"number": 64, "value": 0}, "group": "control_change"}, {"time": 2400, "annotation": {"number": 64, "value": 127}, "group": "control_change"}, {"time": 2421, "annotation": {"number": 64, "value": 0}, "group": "control_change"}, {"time": 2423, "annotation": {"number": 64, "value": 127}, "group": "control_change"}, {"time": 2444, "annotation": {"number": 64, "value": 0}, "group": "control_change"}, {"time": 2446, "annotation": {"number": 64, "value": 127}, "group": "control_change"}, {"time": 2469, "annotation": {"number": 64, "value": 0}, "group": "control_change"}, {"time": 2471, "annotation": {"number": 64, "value": 127}, "group": "control_change"}, {"time": 2517, "annotation": {"number": 64, "value": 0}, "group": "control_change"}, {"time": 2518, "annotation": {"number": 64, "value": 127}, "group": "control_change"}, {"time": 2564, "annotation": {"number": 64, "value": 0}, "group": "control_change"}, {"time": 2566, "annotation": {"number": 64, "value": 127}, "group": "control_change"}, {"time": 2589, "annotation": {"number": 64, "value": 0}, "group": "control_change"}, {"time": 2592, "annotation": {"number": 64, "value": 127}, "group": "control_change"}, {"time": 2611, "annotation": {"number": 64, "value": 0}, "group": "control_change"}, {"time": 2612, "annotation": {"number": 64, "value": 127}, "group": "control_change"}, {"time": 2659, "annotation": {"number": 64, "value": 0}, "group": "control_change"}, {"time": 2662, "annotation": {"number": 64, "value": 127}, "group": "control_change"}, {"time": 2707, "annotation": {"number": 64, "value": 0}, "group": "control_change"}, {"time": 2709, "annotation": {"number": 64, "value": 127}, "group": "control_change"}, {"time": 2710, "annotation": {"number": 64, "value": 0}, "group": "control_change"}, {"time": 2710, "annotation": {"number": 64, "value": 127}, "group": "control_change"}, {"time": 2732, "annotation": {"number": 64, "value": 0}, "group": "control_change"}, {"time": 2734, "annotation": {"number": 64, "value": 127}, "group": "control_change"}, {"time": 2755, "annotation": {"number": 64, "value": 0}, "group": "control_change"}, {"time": 2757, "annotation": {"number": 64, "value": 127}, "group": "control_change"}, {"time": 2804, "annotation": {"number": 64, "value": 0}, "group": "control_change"}, {"time": 2805, "annotation": {"number": 64, "value": 127}, "group": "control_change"}, {"time": 2828, "annotation": {"number": 64, "value": 0}, "group": "control_change"}, {"time": 2830, "annotation": {"number": 64, "value": 127}, "group": "control_change"}, {"time": 2851, "annotation": {"number": 64, "value": 0}, "group": "control_change"}, {"time": 2853, "annotation": {"number": 64, "value": 127}, "group": "control_change"}, {"time": 2876, "annotation": {"number": 64, "value": 0}, "group": "control_change"}, {"time": 2877, "annotation": {"number": 64, "value": 127}, "group": "control_change"}, {"time": 2900, "annotation": {"number": 64, "value": 0}, "group": "control_change"}, {"time": 2902, "annotation": {"number": 64, "value": 127}, "group": "control_change"}, {"time": 2948, "annotation": {"number": 64, "value": 0}, "group": "control_change"}, {"time": 2950, "annotation": {"number": 64, "value": 127}, "group": "control_change"}, {"time": 2996, "annotation": {"number": 64, "value": 0}, "group": "control_change"}, {"time": 2997, "annotation": {"number": 64, "value": 127}, "group": "control_change"}, {"time": 3021, "annotation": {"number": 64, "value": 0}, "group": "control_change"}, {"time": 3023, "annotation": {"number": 64, "value": 127}, "group": "control_change"}, {"time": 3044, "annotation": {"number": 64, "value": 0}, "group": "control_change"}, {"time": 3045, "annotation": {"number": 64, "value": 127}, "group": "control_change"}, {"time": 3067, "annotation": {"number": 64, "value": 0}, "group": "control_change"}, {"time": 3069, "annotation": {"number": 64, "value": 127}, "group": "control_change"}, {"time": 3091, "annotation": {"number": 64, "value": 0}, "group": "control_change"}, {"time": 3093, "annotation": {"number": 64, "value": 127}, "group": "control_change"}, {"time": 3094, "annotation": {"number": 64, "value": 0}, "group": "control_change"}, {"time": 3094, "annotation": {"number": 64, "value": 127}, "group": "control_change"}, {"time": 3116, "annotation": {"number": 64, "value": 0}, "group": "control_change"}, {"time": 3118, "annotation": {"number": 64, "value": 127}, "group": "control_change"}, {"time": 3139, "annotation": {"number": 64, "value": 0}, "group": "control_change"}, {"time": 3141, "annotation": {"number": 64, "value": 127}, "group": "control_change"}, {"time": 3188, "annotation": {"number": 64, "value": 0}, "group": "control_change"}, {"time": 3189, "annotation": {"number": 64, "value": 127}, "group": "control_change"}, {"time": 3212, "annotation": {"number": 64, "value": 0}, "group": "control_change"}, {"time": 3214, "annotation": {"number": 64, "value": 127}, "group": "control_change"}, {"time": 3235, "annotation": {"number": 64, "value": 0}, "group": "control_change"}, {"time": 3237, "annotation": {"number": 64, "value": 127}, "group": "control_change"}, {"time": 3260, "annotation": {"number": 64, "value": 0}, "group": "control_change"}, {"time": 3261, "annotation": {"number": 64, "value": 127}, "group": "control_change"}, {"time": 3284, "annotation": {"number": 64, "value": 0}, "group": "control_change"}, {"time": 3286, "annotation": {"number": 64, "value": 127}, "group": "control_change"}, {"time": 3310, "annotation": {"number": 64, "value": 0}, "group": "control_change"}, {"time": 3312, "annotation": {"number": 64, "value": 127}, "group": "control_change"}, {"time": 3332, "annotation": {"number": 64, "value": 0}, "group": "control_change"}, {"time": 3334, "annotation": {"number": 64, "value": 127}, "group": "control_change"}, {"time": 3356, "annotation": {"number": 64, "value": 0}, "group": "control_change"}, {"time": 3358, "annotation": {"number": 64, "value": 127}, "group": "control_change"}, {"time": 3380, "annotation": {"number": 64, "value": 0}, "group": "control_change"}, {"time": 3382, "annotation": {"number": 64, "value": 127}, "group": "control_change"}, {"time": 3427, "annotation": {"number": 64, "value": 0}, "group": "control_change"}, {"time": 3429, "annotation": {"number": 64, "value": 127}, "group": "control_change"}, {"time": 3475, "annotation": {"number": 64, "value": 0}, "group": "control_change"}, {"time": 3523, "annotation": {"number": 64, "value": 0}, "group": "control_change"}, {"time": 3525, "annotation": {"number": 64, "value": 127}, "group": "control_change"}, {"time": 3526, "annotation": {"number": 64, "value": 0}, "group": "control_change"}, {"time": 3526, "annotation": {"number": 64, "value": 127}, "group": "control_change"}, {"time": 3548, "annotation": {"number": 64, "value": 0}, "group": "control_change"}, {"time": 3550, "annotation": {"number": 64, "value": 127}, "group": "control_change"}, {"time": 3571, "annotation": {"number": 64, "value": 0}, "group": "control_change"}, {"time": 3573, "annotation": {"number": 64, "value": 127}, "group": "control_change"}, {"time": 3620, "annotation": {"number": 64, "value": 0}, "group": "control_change"}, {"time": 3621, "annotation": {"number": 64, "value": 127}, "group": "control_change"}, {"time": 3644, "annotation": {"number": 64, "value": 0}, "group": "control_change"}, {"time": 3646, "annotation": {"number": 64, "value": 127}, "group": "control_change"}, {"time": 3667, "annotation": {"number": 64, "value": 0}, "group": "control_change"}, {"time": 3669, "annotation": {"number": 64, "value": 127}, "group": "control_change"}, {"time": 3692, "annotation": {"number": 64, "value": 0}, "group": "control_change"}, {"time": 3693, "annotation": {"number": 64, "value": 127}, "group": "control_change"}, {"time": 3716, "annotation": {"number": 64, "value": 0}, "group": "control_change"}, {"time": 3718, "annotation": {"number": 64, "value": 127}, "group": "control_change"}, {"time": 3764, "annotation": {"number": 64, "value": 0}, "group": "control_change"}, {"time": 3766, "annotation": {"number": 64, "value": 127}, "group": "control_change"}, {"time": 3812, "annotation": {"number": 64, "value": 0}, "group": "control_change"}, {"time": 3813, "annotation": {"number": 64, "value": 127}, "group": "control_change"}, {"time": 3837, "annotation": {"number": 64, "value": 0}, "group": "control_change"}, {"time": 3839, "annotation": {"number": 64, "value": 127}, "group": "control_change"}, {"time": 3860, "annotation": {"number": 64, "value": 0}, "group": "control_change"}, {"time": 3861, "annotation": {"number": 64, "value": 127}, "group": "control_change"}, {"time": 3883, "annotation": {"number": 64, "value": 0}, "group": "control_change"}, {"time": 3885, "annotation": {"number": 64, "value": 127}, "group": "control_change"}, {"time": 3907, "annotation": {"number": 64, "value": 0}, "group": "control_change"}, {"time": 3909, "annotation": {"number": 64, "value": 127}, "group": "control_change"}, {"time": 3910, "annotation": {"number": 64, "value": 0}, "group": "control_change"}, {"time": 3910, "annotation": {"number": 64, "value": 127}, "group": "control_change"}, {"time": 3932, "annotation": {"number": 64, "value": 0}, "group": "control_change"}, {"time": 3934, "annotation": {"number": 64, "value": 127}, "group": "control_change"}, {"time": 3955, "annotation": {"number": 64, "value": 0}, "group": "control_change"}, {"time": 3957, "annotation": {"number": 64, "value": 127}, "group": "control_change"}, {"time": 4004, "annotation": {"number": 64, "value": 0}, "group": "control_change"}, {"time": 4005, "annotation": {"number": 64, "value": 127}, "group": "control_change"}, {"time": 4028, "annotation": {"number": 64, "value": 0}, "group": "control_change"}, {"time": 4030, "annotation": {"number": 64, "value": 127}, "group": "control_change"}, {"time": 4051, "annotation": {"number": 64, "value": 0}, "group": "control_change"}, {"time": 4053, "annotation": {"number": 64, "value": 127}, "group": "control_change"}, {"time": 4076, "annotation": {"number": 64, "value": 0}, "group": "control_change"}, {"time": 4077, "annotation": {"number": 64, "value": 127}, "group": "control_change"}, {"time": 4100, "annotation": {"number": 64, "value": 0}, "group": "control_change"}, {"time": 4102, "annotation": {"number": 64, "value": 127}, "group": "control_change"}, {"time": 4126, "annotation": {"number": 64, "value": 0}, "group": "control_change"}, {"time": 4128, "annotation": {"number": 64, "value": 127}, "group": "control_change"}, {"time": 4148, "annotation": {"number": 64, "value": 0}, "group": "control_change"}, {"time": 4150, "annotation": {"number": 64, "value": 127}, "group": "control_change"}, {"time": 4172, "annotation": {"number": 64, "value": 0}, "group": "control_change"}, {"time": 4174, "annotation": {"number": 64, "value": 127}, "group": "control_change"}, {"time": 4196, "annotation": {"number": 64, "value": 0}, "group": "control_change"}, {"time": 4198, "annotation": {"number": 64, "value": 127}, "group": "control_change"}, {"time": 4243, "annotation": {"number": 64, "value": 0}, "group": "control_change"}, {"time": 4245, "annotation": {"number": 64, "value": 127}, "group": "control_change"}, {"time": 4291, "annotation": {"number": 64, "value": 0}, "group": "control_change"}, {"time": 4293, "annotation": {"number": 64, "value": 127}, "group": "control_change"}, {"time": 4368, "annotation": {"number": 64, "value": 0}, "group": "control_change"}, {"time": 4372, "annotation": {"number": 64, "value": 127}, "group": "control_change"}, {"time": 4482, "annotation": {"number": 64, "value": 0}, "group": "control_change"}]}]}