{"metadata": {"schema_version": "0.2", "title": "None", "source_filename": "832.mid", "source_format": "midi"}, "resolution": 12, "tempos": [{"time": 0, "qpm": 110.00011000011}], "time_signatures": [{"time": 0, "numerator": 1, "denominator": 4}], "tracks": [{"program": 0, "is_drum": false, "name": "MELODY", "notes": [{"time": 395, "pitch": 70, "duration": 9, "velocity": 83}, {"time": 407, "pitch": 75, "duration": 6, "velocity": 86}, {"time": 413, "pitch": 77, "duration": 9, "velocity": 82}, {"time": 425, "pitch": 79, "duration": 16, "velocity": 81}, {"time": 443, "pitch": 77, "duration": 5, "velocity": 84}, {"time": 449, "pitch": 75, "duration": 5, "velocity": 86}, {"time": 455, "pitch": 77, "duration": 5, "velocity": 84}, {"time": 461, "pitch": 75, "duration": 5, "velocity": 86}, {"time": 467, "pitch": 77, "duration": 5, "velocity": 84}, {"time": 473, "pitch": 79, "duration": 16, "velocity": 88}, {"time": 491, "pitch": 77, "duration": 5, "velocity": 86}, {"time": 497, "pitch": 75, "duration": 4, "velocity": 78}, {"time": 503, "pitch": 77, "duration": 5, "velocity": 84}, {"time": 509, "pitch": 75, "duration": 4, "velocity": 85}, {"time": 515, "pitch": 77, "duration": 12, "velocity": 88}, {"time": 527, "pitch": 79, "duration": 6, "velocity": 79}, {"time": 533, "pitch": 72, "duration": 42, "velocity": 83}, {"time": 587, "pitch": 72, "duration": 10, "velocity": 84}, {"time": 599, "pitch": 77, "duration": 5, "velocity": 86}, {"time": 605, "pitch": 79, "duration": 9, "velocity": 83}, {"time": 617, "pitch": 80, "duration": 17, "velocity": 81}, {"time": 635, "pitch": 79, "duration": 6, "velocity": 83}, {"time": 641, "pitch": 77, "duration": 5, "velocity": 83}, {"time": 647, "pitch": 79, "duration": 7, "velocity": 83}, {"time": 653, "pitch": 77, "duration": 6, "velocity": 84}, {"time": 659, "pitch": 79, "duration": 7, "velocity": 83}, {"time": 665, "pitch": 80, "duration": 16, "velocity": 83}, {"time": 683, "pitch": 79, "duration": 6, "velocity": 82}, {"time": 689, "pitch": 77, "duration": 6, "velocity": 83}, {"time": 695, "pitch": 79, "duration": 7, "velocity": 82}, {"time": 701, "pitch": 77, "duration": 8, "velocity": 84}, {"time": 707, "pitch": 79, "duration": 13, "velocity": 84}, {"time": 719, "pitch": 80, "duration": 5, "velocity": 79}, {"time": 725, "pitch": 77, "duration": 52, "velocity": 82}, {"time": 779, "pitch": 75, "duration": 11, "velocity": 89}, {"time": 791, "pitch": 84, "duration": 6, "velocity": 84}, {"time": 797, "pitch": 82, "duration": 52, "velocity": 82}, {"time": 851, "pitch": 79, "duration": 9, "velocity": 84}, {"time": 859, "pitch": 77, "duration": 10, "velocity": 88}, {"time": 869, "pitch": 75, "duration": 7, "velocity": 85}, {"time": 875, "pitch": 77, "duration": 11, "velocity": 89}, {"time": 887, "pitch": 79, "duration": 5, "velocity": 81}, {"time": 893, "pitch": 79, "duration": 47, "velocity": 84}, {"time": 947, "pitch": 79, "duration": 13, "velocity": 88}, {"time": 958, "pitch": 77, "duration": 6, "velocity": 86}, {"time": 964, "pitch": 75, "duration": 8, "velocity": 83}, {"time": 971, "pitch": 77, "duration": 10, "velocity": 89}, {"time": 983, "pitch": 79, "duration": 6, "velocity": 83}, {"time": 989, "pitch": 72, "duration": 40, "velocity": 84}, {"time": 1031, "pitch": 72, "duration": 4, "velocity": 84}, {"time": 1037, "pitch": 72, "duration": 6, "velocity": 82}, {"time": 1043, "pitch": 74, "duration": 18, "velocity": 82}, {"time": 1061, "pitch": 75, "duration": 12, "velocity": 84}, {"time": 1073, "pitch": 77, "duration": 60, "velocity": 81}, {"time": 1139, "pitch": 75, "duration": 12, "velocity": 84}, {"time": 1151, "pitch": 77, "duration": 13, "velocity": 85}, {"time": 1163, "pitch": 79, "duration": 18, "velocity": 80}, {"time": 1181, "pitch": 72, "duration": 43, "velocity": 83}, {"time": 1223, "pitch": 79, "duration": 13, "velocity": 83}, {"time": 1235, "pitch": 77, "duration": 12, "velocity": 86}, {"time": 1247, "pitch": 75, "duration": 13, "velocity": 86}, {"time": 1259, "pitch": 77, "duration": 18, "velocity": 82}, {"time": 1277, "pitch": 82, "duration": 4, "velocity": 82}, {"time": 1283, "pitch": 82, "duration": 35, "velocity": 83}, {"time": 1331, "pitch": 75, "duration": 12, "velocity": 87}, {"time": 1343, "pitch": 77, "duration": 12, "velocity": 86}, {"time": 1355, "pitch": 79, "duration": 19, "velocity": 84}, {"time": 1373, "pitch": 72, "duration": 21, "velocity": 83}, {"time": 1403, "pitch": 79, "duration": 13, "velocity": 84}, {"time": 1415, "pitch": 77, "duration": 6, "velocity": 85}, {"time": 1421, "pitch": 75, "duration": 17, "velocity": 88}, {"time": 1439, "pitch": 84, "duration": 14, "velocity": 83}, {"time": 1451, "pitch": 82, "duration": 67, "velocity": 82}, {"time": 1523, "pitch": 75, "duration": 12, "velocity": 84}, {"time": 1535, "pitch": 77, "duration": 13, "velocity": 85}, {"time": 1547, "pitch": 79, "duration": 18, "velocity": 80}, {"time": 1565, "pitch": 72, "duration": 43, "velocity": 83}, {"time": 1607, "pitch": 79, "duration": 13, "velocity": 83}, {"time": 1619, "pitch": 77, "duration": 12, "velocity": 86}, {"time": 1631, "pitch": 75, "duration": 13, "velocity": 86}, {"time": 1643, "pitch": 74, "duration": 12, "velocity": 82}, {"time": 1655, "pitch": 75, "duration": 7, "velocity": 89}, {"time": 1661, "pitch": 77, "duration": 12, "velocity": 86}, {"time": 1673, "pitch": 79, "duration": 14, "velocity": 82}, {"time": 1685, "pitch": 77, "duration": 12, "velocity": 86}, {"time": 1697, "pitch": 75, "duration": 17, "velocity": 88}, {"time": 1727, "pitch": 75, "duration": 6, "velocity": 87}, {"time": 1733, "pitch": 77, "duration": 6, "velocity": 86}, {"time": 1739, "pitch": 79, "duration": 12, "velocity": 84}, {"time": 1751, "pitch": 80, "duration": 6, "velocity": 78}, {"time": 1757, "pitch": 79, "duration": 12, "velocity": 83}, {"time": 1769, "pitch": 77, "duration": 12, "velocity": 83}, {"time": 1781, "pitch": 75, "duration": 30, "velocity": 83}, {"time": 1811, "pitch": 74, "duration": 6, "velocity": 83}, {"time": 1817, "pitch": 75, "duration": 18, "velocity": 85}, {"time": 1835, "pitch": 75, "duration": 67, "velocity": 86}, {"time": 2027, "pitch": 70, "duration": 9, "velocity": 83}, {"time": 2039, "pitch": 75, "duration": 6, "velocity": 86}, {"time": 2045, "pitch": 77, "duration": 9, "velocity": 82}, {"time": 2057, "pitch": 79, "duration": 16, "velocity": 81}, {"time": 2075, "pitch": 77, "duration": 5, "velocity": 84}, {"time": 2081, "pitch": 75, "duration": 5, "velocity": 86}, {"time": 2087, "pitch": 77, "duration": 5, "velocity": 84}, {"time": 2093, "pitch": 75, "duration": 5, "velocity": 86}, {"time": 2099, "pitch": 77, "duration": 5, "velocity": 84}, {"time": 2105, "pitch": 79, "duration": 16, "velocity": 88}, {"time": 2123, "pitch": 77, "duration": 5, "velocity": 86}, {"time": 2129, "pitch": 75, "duration": 4, "velocity": 78}, {"time": 2135, "pitch": 77, "duration": 5, "velocity": 84}, {"time": 2141, "pitch": 75, "duration": 4, "velocity": 85}, {"time": 2147, "pitch": 77, "duration": 12, "velocity": 88}, {"time": 2159, "pitch": 79, "duration": 6, "velocity": 79}, {"time": 2165, "pitch": 72, "duration": 42, "velocity": 83}, {"time": 2219, "pitch": 72, "duration": 10, "velocity": 84}, {"time": 2231, "pitch": 77, "duration": 5, "velocity": 86}, {"time": 2237, "pitch": 79, "duration": 9, "velocity": 83}, {"time": 2249, "pitch": 80, "duration": 17, "velocity": 81}, {"time": 2267, "pitch": 79, "duration": 6, "velocity": 83}, {"time": 2273, "pitch": 77, "duration": 5, "velocity": 83}, {"time": 2279, "pitch": 79, "duration": 7, "velocity": 83}, {"time": 2285, "pitch": 77, "duration": 6, "velocity": 84}, {"time": 2291, "pitch": 79, "duration": 7, "velocity": 83}, {"time": 2297, "pitch": 80, "duration": 16, "velocity": 83}, {"time": 2315, "pitch": 79, "duration": 6, "velocity": 82}, {"time": 2321, "pitch": 77, "duration": 6, "velocity": 83}, {"time": 2327, "pitch": 79, "duration": 7, "velocity": 82}, {"time": 2333, "pitch": 77, "duration": 8, "velocity": 84}, {"time": 2339, "pitch": 79, "duration": 13, "velocity": 84}, {"time": 2351, "pitch": 80, "duration": 5, "velocity": 79}, {"time": 2357, "pitch": 77, "duration": 52, "velocity": 82}, {"time": 2411, "pitch": 75, "duration": 11, "velocity": 89}, {"time": 2423, "pitch": 84, "duration": 6, "velocity": 84}, {"time": 2429, "pitch": 82, "duration": 52, "velocity": 82}, {"time": 2483, "pitch": 79, "duration": 9, "velocity": 84}, {"time": 2491, "pitch": 77, "duration": 10, "velocity": 88}, {"time": 2501, "pitch": 75, "duration": 7, "velocity": 85}, {"time": 2507, "pitch": 77, "duration": 11, "velocity": 89}, {"time": 2519, "pitch": 79, "duration": 5, "velocity": 81}, {"time": 2525, "pitch": 79, "duration": 47, "velocity": 84}, {"time": 2579, "pitch": 79, "duration": 13, "velocity": 88}, {"time": 2590, "pitch": 77, "duration": 6, "velocity": 86}, {"time": 2596, "pitch": 75, "duration": 8, "velocity": 83}, {"time": 2603, "pitch": 77, "duration": 10, "velocity": 89}, {"time": 2615, "pitch": 79, "duration": 6, "velocity": 83}, {"time": 2621, "pitch": 72, "duration": 40, "velocity": 84}, {"time": 2663, "pitch": 72, "duration": 4, "velocity": 84}, {"time": 2669, "pitch": 72, "duration": 6, "velocity": 82}, {"time": 2675, "pitch": 74, "duration": 18, "velocity": 82}, {"time": 2693, "pitch": 75, "duration": 12, "velocity": 84}, {"time": 2705, "pitch": 77, "duration": 60, "velocity": 81}, {"time": 2771, "pitch": 75, "duration": 12, "velocity": 84}, {"time": 2783, "pitch": 77, "duration": 13, "velocity": 85}, {"time": 2795, "pitch": 79, "duration": 18, "velocity": 80}, {"time": 2813, "pitch": 72, "duration": 43, "velocity": 83}, {"time": 2855, "pitch": 79, "duration": 13, "velocity": 83}, {"time": 2867, "pitch": 77, "duration": 12, "velocity": 86}, {"time": 2879, "pitch": 75, "duration": 13, "velocity": 86}, {"time": 2891, "pitch": 77, "duration": 18, "velocity": 82}, {"time": 2909, "pitch": 82, "duration": 4, "velocity": 82}, {"time": 2915, "pitch": 82, "duration": 35, "velocity": 83}, {"time": 2963, "pitch": 75, "duration": 12, "velocity": 87}, {"time": 2975, "pitch": 77, "duration": 12, "velocity": 86}, {"time": 2987, "pitch": 79, "duration": 19, "velocity": 84}, {"time": 3005, "pitch": 72, "duration": 21, "velocity": 83}, {"time": 3035, "pitch": 79, "duration": 13, "velocity": 84}, {"time": 3047, "pitch": 77, "duration": 6, "velocity": 85}, {"time": 3053, "pitch": 75, "duration": 17, "velocity": 88}, {"time": 3071, "pitch": 84, "duration": 14, "velocity": 83}, {"time": 3083, "pitch": 82, "duration": 67, "velocity": 82}, {"time": 3155, "pitch": 75, "duration": 12, "velocity": 84}, {"time": 3167, "pitch": 77, "duration": 13, "velocity": 85}, {"time": 3179, "pitch": 79, "duration": 18, "velocity": 80}, {"time": 3197, "pitch": 72, "duration": 43, "velocity": 83}, {"time": 3239, "pitch": 79, "duration": 13, "velocity": 83}, {"time": 3251, "pitch": 77, "duration": 12, "velocity": 86}, {"time": 3263, "pitch": 75, "duration": 13, "velocity": 86}, {"time": 3275, "pitch": 74, "duration": 12, "velocity": 82}, {"time": 3287, "pitch": 75, "duration": 7, "velocity": 89}, {"time": 3293, "pitch": 77, "duration": 12, "velocity": 86}, {"time": 3305, "pitch": 79, "duration": 14, "velocity": 82}, {"time": 3317, "pitch": 77, "duration": 12, "velocity": 86}, {"time": 3329, "pitch": 75, "duration": 17, "velocity": 88}, {"time": 3407, "pitch": 75, "duration": 6, "velocity": 87}, {"time": 3413, "pitch": 77, "duration": 6, "velocity": 86}, {"time": 3419, "pitch": 79, "duration": 12, "velocity": 84}, {"time": 3431, "pitch": 80, "duration": 6, "velocity": 78}, {"time": 3437, "pitch": 79, "duration": 12, "velocity": 83}, {"time": 3449, "pitch": 77, "duration": 12, "velocity": 83}, {"time": 3461, "pitch": 75, "duration": 30, "velocity": 83}, {"time": 3503, "pitch": 75, "duration": 6, "velocity": 87}, {"time": 3509, "pitch": 77, "duration": 6, "velocity": 86}, {"time": 3515, "pitch": 79, "duration": 12, "velocity": 84}, {"time": 3527, "pitch": 80, "duration": 6, "velocity": 78}, {"time": 3533, "pitch": 79, "duration": 12, "velocity": 83}, {"time": 3545, "pitch": 80, "duration": 12, "velocity": 83}, {"time": 3557, "pitch": 82, "duration": 30, "velocity": 83}, {"time": 3610, "pitch": 79, "duration": 13, "velocity": 80}, {"time": 3622, "pitch": 80, "duration": 7, "velocity": 80}, {"time": 3628, "pitch": 79, "duration": 14, "velocity": 85}, {"time": 3640, "pitch": 77, "duration": 19, "velocity": 87}, {"time": 3659, "pitch": 75, "duration": 48, "velocity": 86}, {"time": 3730, "pitch": 74, "duration": 16, "velocity": 83}, {"time": 3745, "pitch": 75, "duration": 17, "velocity": 84}, {"time": 3765, "pitch": 75, "duration": 51, "velocity": 84}]}, {"program": 0, "is_drum": false, "name": "BRIDGE", "notes": [{"time": 11, "pitch": 75, "duration": 16, "velocity": 89}, {"time": 29, "pitch": 74, "duration": 10, "velocity": 84}, {"time": 41, "pitch": 70, "duration": 11, "velocity": 83}, {"time": 53, "pitch": 65, "duration": 6, "velocity": 82}, {"time": 59, "pitch": 67, "duration": 44, "velocity": 83}, {"time": 107, "pitch": 75, "duration": 19, "velocity": 87}, {"time": 125, "pitch": 74, "duration": 12, "velocity": 85}, {"time": 137, "pitch": 70, "duration": 19, "velocity": 86}, {"time": 155, "pitch": 77, "duration": 47, "velocity": 86}, {"time": 203, "pitch": 75, "duration": 15, "velocity": 82}, {"time": 203, "pitch": 79, "duration": 15, "velocity": 76}, {"time": 221, "pitch": 74, "duration": 10, "velocity": 78}, {"time": 221, "pitch": 77, "duration": 10, "velocity": 79}, {"time": 233, "pitch": 70, "duration": 11, "velocity": 69}, {"time": 233, "pitch": 74, "duration": 12, "velocity": 72}, {"time": 245, "pitch": 72, "duration": 54, "velocity": 77}, {"time": 245, "pitch": 75, "duration": 54, "velocity": 83}, {"time": 251, "pitch": 58, "duration": 12, "velocity": 76}, {"time": 263, "pitch": 58, "duration": 1, "velocity": 80}, {"time": 263, "pitch": 63, "duration": 7, "velocity": 77}, {"time": 269, "pitch": 65, "duration": 13, "velocity": 82}, {"time": 281, "pitch": 67, "duration": 66, "velocity": 76}, {"time": 299, "pitch": 75, "duration": 13, "velocity": 82}, {"time": 299, "pitch": 79, "duration": 12, "velocity": 78}, {"time": 317, "pitch": 74, "duration": 9, "velocity": 79}, {"time": 317, "pitch": 77, "duration": 10, "velocity": 82}, {"time": 329, "pitch": 72, "duration": 15, "velocity": 75}, {"time": 329, "pitch": 75, "duration": 16, "velocity": 83}, {"time": 347, "pitch": 58, "duration": 45, "velocity": 57}, {"time": 347, "pitch": 77, "duration": 46, "velocity": 80}, {"time": 347, "pitch": 82, "duration": 46, "velocity": 77}, {"time": 1163, "pitch": 56, "duration": 36, "velocity": 85}, {"time": 1199, "pitch": 62, "duration": 13, "velocity": 83}, {"time": 1211, "pitch": 63, "duration": 24, "velocity": 83}, {"time": 1235, "pitch": 56, "duration": 24, "velocity": 83}, {"time": 1259, "pitch": 65, "duration": 24, "velocity": 83}, {"time": 1283, "pitch": 63, "duration": 6, "velocity": 83}, {"time": 1289, "pitch": 70, "duration": 18, "velocity": 83}, {"time": 1307, "pitch": 74, "duration": 24, "velocity": 83}, {"time": 1331, "pitch": 63, "duration": 24, "velocity": 83}, {"time": 1355, "pitch": 56, "duration": 18, "velocity": 83}, {"time": 1373, "pitch": 62, "duration": 18, "velocity": 83}, {"time": 1391, "pitch": 63, "duration": 12, "velocity": 83}, {"time": 1403, "pitch": 58, "duration": 24, "velocity": 83}, {"time": 1427, "pitch": 65, "duration": 24, "velocity": 83}, {"time": 1451, "pitch": 67, "duration": 24, "velocity": 83}, {"time": 1475, "pitch": 68, "duration": 24, "velocity": 83}, {"time": 1499, "pitch": 67, "duration": 24, "velocity": 83}, {"time": 1523, "pitch": 60, "duration": 12, "velocity": 83}, {"time": 1535, "pitch": 57, "duration": 12, "velocity": 83}, {"time": 1547, "pitch": 56, "duration": 48, "velocity": 83}, {"time": 1607, "pitch": 63, "duration": 11, "velocity": 76}, {"time": 1607, "pitch": 67, "duration": 13, "velocity": 78}, {"time": 1619, "pitch": 62, "duration": 9, "velocity": 71}, {"time": 1619, "pitch": 65, "duration": 9, "velocity": 73}, {"time": 1631, "pitch": 63, "duration": 12, "velocity": 73}, {"time": 1631, "pitch": 67, "duration": 12, "velocity": 73}, {"time": 1643, "pitch": 63, "duration": 24, "velocity": 73}, {"time": 1643, "pitch": 67, "duration": 24, "velocity": 73}, {"time": 1667, "pitch": 60, "duration": 11, "velocity": 75}, {"time": 1667, "pitch": 63, "duration": 10, "velocity": 78}, {"time": 1679, "pitch": 62, "duration": 8, "velocity": 79}, {"time": 1679, "pitch": 65, "duration": 8, "velocity": 82}, {"time": 1691, "pitch": 57, "duration": 40, "velocity": 72}, {"time": 1691, "pitch": 67, "duration": 41, "velocity": 73}, {"time": 1835, "pitch": 87, "duration": 19, "velocity": 86}, {"time": 1853, "pitch": 77, "duration": 13, "velocity": 91}, {"time": 1865, "pitch": 82, "duration": 13, "velocity": 81}, {"time": 1877, "pitch": 79, "duration": 42, "velocity": 84}, {"time": 1919, "pitch": 58, "duration": 14, "velocity": 86}, {"time": 1931, "pitch": 65, "duration": 19, "velocity": 83}, {"time": 1931, "pitch": 87, "duration": 16, "velocity": 86}, {"time": 1949, "pitch": 67, "duration": 19, "velocity": 79}, {"time": 1949, "pitch": 79, "duration": 11, "velocity": 87}, {"time": 1961, "pitch": 82, "duration": 12, "velocity": 83}, {"time": 1967, "pitch": 60, "duration": 59, "velocity": 82}, {"time": 1973, "pitch": 89, "duration": 49, "velocity": 91}, {"time": 2393, "pitch": 63, "duration": 7, "velocity": 78}, {"time": 2399, "pitch": 62, "duration": 8, "velocity": 78}, {"time": 2405, "pitch": 63, "duration": 7, "velocity": 82}, {"time": 2411, "pitch": 65, "duration": 24, "velocity": 84}, {"time": 2435, "pitch": 67, "duration": 24, "velocity": 84}, {"time": 2459, "pitch": 67, "duration": 24, "velocity": 84}, {"time": 2483, "pitch": 63, "duration": 24, "velocity": 84}, {"time": 2507, "pitch": 65, "duration": 24, "velocity": 84}, {"time": 2531, "pitch": 63, "duration": 24, "velocity": 84}, {"time": 2555, "pitch": 67, "duration": 48, "velocity": 84}, {"time": 2603, "pitch": 60, "duration": 22, "velocity": 78}, {"time": 2627, "pitch": 67, "duration": 12, "velocity": 73}, {"time": 2639, "pitch": 70, "duration": 14, "velocity": 84}, {"time": 2651, "pitch": 69, "duration": 49, "velocity": 83}, {"time": 2699, "pitch": 62, "duration": 24, "velocity": 70}, {"time": 2723, "pitch": 63, "duration": 25, "velocity": 81}, {"time": 2747, "pitch": 65, "duration": 47, "velocity": 81}, {"time": 2795, "pitch": 63, "duration": 19, "velocity": 72}, {"time": 2795, "pitch": 67, "duration": 25, "velocity": 75}, {"time": 2819, "pitch": 63, "duration": 26, "velocity": 80}, {"time": 2843, "pitch": 60, "duration": 36, "velocity": 76}, {"time": 2879, "pitch": 67, "duration": 14, "velocity": 82}, {"time": 2891, "pitch": 65, "duration": 24, "velocity": 83}, {"time": 2915, "pitch": 67, "duration": 48, "velocity": 83}, {"time": 2963, "pitch": 63, "duration": 12, "velocity": 83}, {"time": 2975, "pitch": 65, "duration": 12, "velocity": 83}, {"time": 2987, "pitch": 67, "duration": 48, "velocity": 83}, {"time": 3035, "pitch": 67, "duration": 24, "velocity": 83}, {"time": 3059, "pitch": 65, "duration": 24, "velocity": 83}, {"time": 3083, "pitch": 67, "duration": 24, "velocity": 83}, {"time": 3107, "pitch": 68, "duration": 25, "velocity": 84}, {"time": 3131, "pitch": 70, "duration": 12, "velocity": 83}, {"time": 3143, "pitch": 77, "duration": 12, "velocity": 84}, {"time": 3155, "pitch": 75, "duration": 12, "velocity": 89}, {"time": 3167, "pitch": 72, "duration": 12, "velocity": 82}, {"time": 3179, "pitch": 67, "duration": 96, "velocity": 83}, {"time": 3275, "pitch": 65, "duration": 12, "velocity": 83}, {"time": 3287, "pitch": 63, "duration": 12, "velocity": 83}, {"time": 3299, "pitch": 65, "duration": 12, "velocity": 83}, {"time": 3311, "pitch": 67, "duration": 12, "velocity": 83}, {"time": 3323, "pitch": 72, "duration": 96, "velocity": 83}, {"time": 3419, "pitch": 65, "duration": 50, "velocity": 83}, {"time": 3467, "pitch": 67, "duration": 44, "velocity": 73}, {"time": 3515, "pitch": 68, "duration": 37, "velocity": 76}, {"time": 3551, "pitch": 72, "duration": 14, "velocity": 78}, {"time": 3563, "pitch": 70, "duration": 49, "velocity": 77}, {"time": 3611, "pitch": 75, "duration": 24, "velocity": 78}, {"time": 3635, "pitch": 70, "duration": 26, "velocity": 82}, {"time": 3659, "pitch": 68, "duration": 35, "velocity": 76}, {"time": 3815, "pitch": 65, "duration": 8, "velocity": 86}, {"time": 3821, "pitch": 67, "duration": 12, "velocity": 84}, {"time": 3833, "pitch": 74, "duration": 12, "velocity": 89}, {"time": 3845, "pitch": 75, "duration": 24, "velocity": 88}, {"time": 3869, "pitch": 74, "duration": 12, "velocity": 83}, {"time": 3881, "pitch": 70, "duration": 18, "velocity": 83}, {"time": 3899, "pitch": 65, "duration": 60, "velocity": 83}, {"time": 3971, "pitch": 67, "duration": 36, "velocity": 83}]}, {"program": 0, "is_drum": false, "name": "PIANO", "notes": [{"time": 11, "pitch": 51, "duration": 44, "velocity": 86}, {"time": 17, "pitch": 58, "duration": 38, "velocity": 71}, {"time": 23, "pitch": 65, "duration": 5, "velocity": 77}, {"time": 29, "pitch": 63, "duration": 7, "velocity": 74}, {"time": 29, "pitch": 67, "duration": 13, "velocity": 69}, {"time": 41, "pitch": 65, "duration": 7, "velocity": 68}, {"time": 47, "pitch": 63, "duration": 17, "velocity": 66}, {"time": 59, "pitch": 51, "duration": 32, "velocity": 85}, {"time": 65, "pitch": 58, "duration": 24, "velocity": 73}, {"time": 71, "pitch": 65, "duration": 4, "velocity": 77}, {"time": 77, "pitch": 63, "duration": 8, "velocity": 72}, {"time": 77, "pitch": 67, "duration": 13, "velocity": 68}, {"time": 89, "pitch": 65, "duration": 7, "velocity": 70}, {"time": 95, "pitch": 63, "duration": 18, "velocity": 71}, {"time": 107, "pitch": 44, "duration": 39, "velocity": 82}, {"time": 113, "pitch": 51, "duration": 33, "velocity": 70}, {"time": 119, "pitch": 65, "duration": 4, "velocity": 78}, {"time": 125, "pitch": 63, "duration": 6, "velocity": 73}, {"time": 125, "pitch": 67, "duration": 7, "velocity": 71}, {"time": 137, "pitch": 65, "duration": 6, "velocity": 66}, {"time": 143, "pitch": 63, "duration": 6, "velocity": 66}, {"time": 152, "pitch": 58, "duration": 51, "velocity": 71}, {"time": 154, "pitch": 46, "duration": 49, "velocity": 83}, {"time": 154, "pitch": 62, "duration": 48, "velocity": 73}, {"time": 156, "pitch": 65, "duration": 47, "velocity": 70}, {"time": 203, "pitch": 51, "duration": 44, "velocity": 86}, {"time": 209, "pitch": 58, "duration": 38, "velocity": 71}, {"time": 215, "pitch": 65, "duration": 5, "velocity": 77}, {"time": 221, "pitch": 63, "duration": 7, "velocity": 74}, {"time": 221, "pitch": 67, "duration": 13, "velocity": 69}, {"time": 233, "pitch": 65, "duration": 7, "velocity": 68}, {"time": 239, "pitch": 63, "duration": 17, "velocity": 66}, {"time": 251, "pitch": 51, "duration": 32, "velocity": 85}, {"time": 257, "pitch": 58, "duration": 24, "velocity": 73}, {"time": 263, "pitch": 65, "duration": 4, "velocity": 77}, {"time": 269, "pitch": 63, "duration": 8, "velocity": 72}, {"time": 269, "pitch": 67, "duration": 13, "velocity": 68}, {"time": 281, "pitch": 65, "duration": 7, "velocity": 70}, {"time": 287, "pitch": 63, "duration": 18, "velocity": 71}, {"time": 299, "pitch": 44, "duration": 39, "velocity": 82}, {"time": 305, "pitch": 51, "duration": 33, "velocity": 70}, {"time": 311, "pitch": 65, "duration": 4, "velocity": 78}, {"time": 317, "pitch": 63, "duration": 6, "velocity": 73}, {"time": 317, "pitch": 67, "duration": 7, "velocity": 71}, {"time": 329, "pitch": 65, "duration": 6, "velocity": 66}, {"time": 335, "pitch": 63, "duration": 6, "velocity": 66}, {"time": 344, "pitch": 58, "duration": 51, "velocity": 71}, {"time": 346, "pitch": 46, "duration": 49, "velocity": 83}, {"time": 346, "pitch": 62, "duration": 48, "velocity": 73}, {"time": 348, "pitch": 65, "duration": 47, "velocity": 70}, {"time": 395, "pitch": 51, "duration": 45, "velocity": 75}, {"time": 407, "pitch": 63, "duration": 6, "velocity": 77}, {"time": 413, "pitch": 65, "duration": 8, "velocity": 83}, {"time": 425, "pitch": 63, "duration": 13, "velocity": 75}, {"time": 443, "pitch": 51, "duration": 32, "velocity": 83}, {"time": 449, "pitch": 63, "duration": 9, "velocity": 70}, {"time": 455, "pitch": 65, "duration": 7, "velocity": 76}, {"time": 461, "pitch": 67, "duration": 7, "velocity": 80}, {"time": 473, "pitch": 65, "duration": 4, "velocity": 83}, {"time": 478, "pitch": 63, "duration": 6, "velocity": 97}, {"time": 491, "pitch": 48, "duration": 44, "velocity": 82}, {"time": 497, "pitch": 63, "duration": 5, "velocity": 70}, {"time": 503, "pitch": 65, "duration": 4, "velocity": 77}, {"time": 509, "pitch": 67, "duration": 4, "velocity": 80}, {"time": 521, "pitch": 65, "duration": 3, "velocity": 85}, {"time": 526, "pitch": 63, "duration": 6, "velocity": 80}, {"time": 539, "pitch": 48, "duration": 33, "velocity": 79}, {"time": 539, "pitch": 67, "duration": 15, "velocity": 75}, {"time": 562, "pitch": 62, "duration": 8, "velocity": 83}, {"time": 569, "pitch": 63, "duration": 6, "velocity": 79}, {"time": 575, "pitch": 60, "duration": 10, "velocity": 71}, {"time": 587, "pitch": 41, "duration": 45, "velocity": 83}, {"time": 587, "pitch": 65, "duration": 13, "velocity": 78}, {"time": 593, "pitch": 48, "duration": 41, "velocity": 69}, {"time": 599, "pitch": 60, "duration": 8, "velocity": 72}, {"time": 605, "pitch": 65, "duration": 8, "velocity": 83}, {"time": 617, "pitch": 68, "duration": 20, "velocity": 79}, {"time": 629, "pitch": 60, "duration": 7, "velocity": 78}, {"time": 635, "pitch": 41, "duration": 46, "velocity": 83}, {"time": 641, "pitch": 48, "duration": 45, "velocity": 72}, {"time": 647, "pitch": 60, "duration": 8, "velocity": 71}, {"time": 653, "pitch": 64, "duration": 10, "velocity": 77}, {"time": 665, "pitch": 68, "duration": 30, "velocity": 77}, {"time": 677, "pitch": 60, "duration": 9, "velocity": 82}, {"time": 683, "pitch": 39, "duration": 36, "velocity": 83}, {"time": 689, "pitch": 48, "duration": 31, "velocity": 76}, {"time": 695, "pitch": 63, "duration": 7, "velocity": 72}, {"time": 701, "pitch": 68, "duration": 47, "velocity": 82}, {"time": 713, "pitch": 63, "duration": 8, "velocity": 78}, {"time": 719, "pitch": 60, "duration": 3, "velocity": 56}, {"time": 731, "pitch": 46, "duration": 46, "velocity": 82}, {"time": 737, "pitch": 53, "duration": 39, "velocity": 71}, {"time": 743, "pitch": 58, "duration": 8, "velocity": 75}, {"time": 749, "pitch": 63, "duration": 7, "velocity": 78}, {"time": 761, "pitch": 58, "duration": 3, "velocity": 73}, {"time": 761, "pitch": 65, "duration": 18, "velocity": 80}, {"time": 767, "pitch": 58, "duration": 12, "velocity": 72}, {"time": 779, "pitch": 44, "duration": 43, "velocity": 82}, {"time": 785, "pitch": 51, "duration": 39, "velocity": 73}, {"time": 791, "pitch": 56, "duration": 13, "velocity": 78}, {"time": 797, "pitch": 63, "duration": 11, "velocity": 77}, {"time": 809, "pitch": 65, "duration": 8, "velocity": 82}, {"time": 815, "pitch": 63, "duration": 25, "velocity": 77}, {"time": 827, "pitch": 44, "duration": 39, "velocity": 83}, {"time": 833, "pitch": 51, "duration": 33, "velocity": 76}, {"time": 839, "pitch": 56, "duration": 7, "velocity": 78}, {"time": 845, "pitch": 63, "duration": 7, "velocity": 48}, {"time": 845, "pitch": 68, "duration": 31, "velocity": 74}, {"time": 857, "pitch": 63, "duration": 16, "velocity": 81}, {"time": 863, "pitch": 56, "duration": 9, "velocity": 84}, {"time": 875, "pitch": 51, "duration": 47, "velocity": 84}, {"time": 881, "pitch": 58, "duration": 8, "velocity": 76}, {"time": 887, "pitch": 63, "duration": 5, "velocity": 76}, {"time": 893, "pitch": 65, "duration": 3, "velocity": 83}, {"time": 905, "pitch": 67, "duration": 5, "velocity": 83}, {"time": 917, "pitch": 63, "duration": 8, "velocity": 73}, {"time": 923, "pitch": 48, "duration": 37, "velocity": 83}, {"time": 923, "pitch": 63, "duration": 2, "velocity": 78}, {"time": 929, "pitch": 55, "duration": 28, "velocity": 70}, {"time": 935, "pitch": 60, "duration": 19, "velocity": 80}, {"time": 941, "pitch": 67, "duration": 12, "velocity": 86}, {"time": 953, "pitch": 63, "duration": 6, "velocity": 82}, {"time": 959, "pitch": 60, "duration": 13, "velocity": 87}, {"time": 971, "pitch": 41, "duration": 23, "velocity": 83}, {"time": 971, "pitch": 65, "duration": 25, "velocity": 83}, {"time": 977, "pitch": 48, "duration": 16, "velocity": 71}, {"time": 983, "pitch": 53, "duration": 9, "velocity": 83}, {"time": 989, "pitch": 60, "duration": 16, "velocity": 83}, {"time": 1001, "pitch": 53, "duration": 11, "velocity": 91}, {"time": 1017, "pitch": 53, "duration": 2, "velocity": 57}, {"time": 1018, "pitch": 41, "duration": 34, "velocity": 83}, {"time": 1024, "pitch": 48, "duration": 27, "velocity": 71}, {"time": 1030, "pitch": 53, "duration": 18, "velocity": 78}, {"time": 1036, "pitch": 60, "duration": 15, "velocity": 82}, {"time": 1066, "pitch": 46, "duration": 41, "velocity": 83}, {"time": 1072, "pitch": 53, "duration": 29, "velocity": 74}, {"time": 1078, "pitch": 58, "duration": 8, "velocity": 84}, {"time": 1084, "pitch": 63, "duration": 13, "velocity": 85}, {"time": 1096, "pitch": 65, "duration": 5, "velocity": 84}, {"time": 1111, "pitch": 58, "duration": 45, "velocity": 68}, {"time": 1112, "pitch": 62, "duration": 43, "velocity": 67}, {"time": 1113, "pitch": 65, "duration": 45, "velocity": 75}, {"time": 1114, "pitch": 46, "duration": 15, "velocity": 83}, {"time": 1115, "pitch": 70, "duration": 42, "velocity": 78}, {"time": 1163, "pitch": 44, "duration": 45, "velocity": 82}, {"time": 1169, "pitch": 51, "duration": 39, "velocity": 80}, {"time": 1175, "pitch": 56, "duration": 9, "velocity": 85}, {"time": 1181, "pitch": 63, "duration": 10, "velocity": 84}, {"time": 1193, "pitch": 56, "duration": 1, "velocity": 67}, {"time": 1193, "pitch": 60, "duration": 14, "velocity": 82}, {"time": 1211, "pitch": 44, "duration": 38, "velocity": 82}, {"time": 1211, "pitch": 56, "duration": 7, "velocity": 77}, {"time": 1211, "pitch": 63, "duration": 13, "velocity": 78}, {"time": 1217, "pitch": 51, "duration": 15, "velocity": 77}, {"time": 1223, "pitch": 56, "duration": 8, "velocity": 81}, {"time": 1229, "pitch": 58, "duration": 13, "velocity": 83}, {"time": 1235, "pitch": 51, "duration": 10, "velocity": 75}, {"time": 1241, "pitch": 63, "duration": 8, "velocity": 78}, {"time": 1247, "pitch": 56, "duration": 5, "velocity": 82}, {"time": 1259, "pitch": 39, "duration": 33, "velocity": 84}, {"time": 1259, "pitch": 58, "duration": 6, "velocity": 77}, {"time": 1259, "pitch": 63, "duration": 10, "velocity": 77}, {"time": 1265, "pitch": 46, "duration": 27, "velocity": 71}, {"time": 1271, "pitch": 58, "duration": 9, "velocity": 83}, {"time": 1277, "pitch": 63, "duration": 9, "velocity": 83}, {"time": 1289, "pitch": 65, "duration": 7, "velocity": 88}, {"time": 1295, "pitch": 58, "duration": 5, "velocity": 78}, {"time": 1307, "pitch": 48, "duration": 38, "velocity": 73}, {"time": 1307, "pitch": 60, "duration": 7, "velocity": 81}, {"time": 1307, "pitch": 63, "duration": 11, "velocity": 82}, {"time": 1313, "pitch": 55, "duration": 16, "velocity": 76}, {"time": 1319, "pitch": 58, "duration": 4, "velocity": 89}, {"time": 1325, "pitch": 58, "duration": 10, "velocity": 85}, {"time": 1325, "pitch": 63, "duration": 13, "velocity": 84}, {"time": 1331, "pitch": 55, "duration": 8, "velocity": 67}, {"time": 1337, "pitch": 62, "duration": 6, "velocity": 83}, {"time": 1343, "pitch": 60, "duration": 4, "velocity": 83}, {"time": 1355, "pitch": 44, "duration": 39, "velocity": 82}, {"time": 1355, "pitch": 56, "duration": 7, "velocity": 76}, {"time": 1355, "pitch": 63, "duration": 13, "velocity": 80}, {"time": 1361, "pitch": 51, "duration": 26, "velocity": 76}, {"time": 1367, "pitch": 56, "duration": 4, "velocity": 82}, {"time": 1373, "pitch": 56, "duration": 8, "velocity": 84}, {"time": 1373, "pitch": 60, "duration": 9, "velocity": 86}, {"time": 1385, "pitch": 56, "duration": 8, "velocity": 84}, {"time": 1385, "pitch": 63, "duration": 13, "velocity": 82}, {"time": 1391, "pitch": 51, "duration": 5, "velocity": 76}, {"time": 1397, "pitch": 44, "duration": 4, "velocity": 82}, {"time": 1403, "pitch": 46, "duration": 45, "velocity": 84}, {"time": 1403, "pitch": 58, "duration": 7, "velocity": 77}, {"time": 1403, "pitch": 62, "duration": 10, "velocity": 75}, {"time": 1409, "pitch": 53, "duration": 14, "velocity": 77}, {"time": 1415, "pitch": 58, "duration": 3, "velocity": 82}, {"time": 1421, "pitch": 58, "duration": 8, "velocity": 79}, {"time": 1421, "pitch": 65, "duration": 9, "velocity": 83}, {"time": 1427, "pitch": 53, "duration": 17, "velocity": 77}, {"time": 1433, "pitch": 58, "duration": 5, "velocity": 85}, {"time": 1433, "pitch": 62, "duration": 5, "velocity": 86}, {"time": 1451, "pitch": 51, "duration": 14, "velocity": 88}, {"time": 1451, "pitch": 58, "duration": 4, "velocity": 77}, {"time": 1451, "pitch": 63, "duration": 7, "velocity": 79}, {"time": 1457, "pitch": 58, "duration": 7, "velocity": 75}, {"time": 1463, "pitch": 63, "duration": 10, "velocity": 78}, {"time": 1469, "pitch": 58, "duration": 4, "velocity": 65}, {"time": 1475, "pitch": 41, "duration": 19, "velocity": 85}, {"time": 1475, "pitch": 65, "duration": 13, "velocity": 83}, {"time": 1481, "pitch": 48, "duration": 13, "velocity": 74}, {"time": 1487, "pitch": 60, "duration": 9, "velocity": 86}, {"time": 1493, "pitch": 65, "duration": 3, "velocity": 77}, {"time": 1499, "pitch": 43, "duration": 21, "velocity": 87}, {"time": 1499, "pitch": 67, "duration": 7, "velocity": 84}, {"time": 1505, "pitch": 50, "duration": 17, "velocity": 77}, {"time": 1511, "pitch": 67, "duration": 11, "velocity": 84}, {"time": 1523, "pitch": 44, "duration": 10, "velocity": 83}, {"time": 1523, "pitch": 68, "duration": 10, "velocity": 84}, {"time": 1535, "pitch": 46, "duration": 2, "velocity": 78}, {"time": 1535, "pitch": 70, "duration": 12, "velocity": 86}, {"time": 1547, "pitch": 44, "duration": 37, "velocity": 83}, {"time": 1547, "pitch": 63, "duration": 7, "velocity": 77}, {"time": 1547, "pitch": 68, "duration": 12, "velocity": 76}, {"time": 1553, "pitch": 51, "duration": 31, "velocity": 71}, {"time": 1559, "pitch": 63, "duration": 5, "velocity": 83}, {"time": 1565, "pitch": 63, "duration": 8, "velocity": 83}, {"time": 1565, "pitch": 72, "duration": 12, "velocity": 84}, {"time": 1577, "pitch": 63, "duration": 5, "velocity": 84}, {"time": 1577, "pitch": 68, "duration": 15, "velocity": 83}, {"time": 1595, "pitch": 46, "duration": 40, "velocity": 83}, {"time": 1595, "pitch": 65, "duration": 4, "velocity": 78}, {"time": 1595, "pitch": 70, "duration": 19, "velocity": 77}, {"time": 1601, "pitch": 53, "duration": 25, "velocity": 77}, {"time": 1607, "pitch": 58, "duration": 15, "velocity": 83}, {"time": 1613, "pitch": 62, "duration": 9, "velocity": 83}, {"time": 1625, "pitch": 58, "duration": 7, "velocity": 83}, {"time": 1625, "pitch": 62, "duration": 8, "velocity": 83}, {"time": 1625, "pitch": 70, "duration": 18, "velocity": 83}, {"time": 1631, "pitch": 53, "duration": 5, "velocity": 83}, {"time": 1637, "pitch": 58, "duration": 3, "velocity": 84}, {"time": 1643, "pitch": 48, "duration": 21, "velocity": 83}, {"time": 1643, "pitch": 60, "duration": 7, "velocity": 80}, {"time": 1643, "pitch": 63, "duration": 13, "velocity": 78}, {"time": 1649, "pitch": 55, "duration": 14, "velocity": 66}, {"time": 1655, "pitch": 60, "duration": 9, "velocity": 82}, {"time": 1661, "pitch": 67, "duration": 19, "velocity": 86}, {"time": 1667, "pitch": 46, "duration": 17, "velocity": 84}, {"time": 1673, "pitch": 53, "duration": 11, "velocity": 84}, {"time": 1679, "pitch": 58, "duration": 7, "velocity": 87}, {"time": 1685, "pitch": 62, "duration": 3, "velocity": 84}, {"time": 1691, "pitch": 45, "duration": 34, "velocity": 80}, {"time": 1691, "pitch": 57, "duration": 5, "velocity": 81}, {"time": 1691, "pitch": 60, "duration": 14, "velocity": 83}, {"time": 1697, "pitch": 51, "duration": 28, "velocity": 78}, {"time": 1703, "pitch": 57, "duration": 4, "velocity": 81}, {"time": 1709, "pitch": 57, "duration": 15, "velocity": 71}, {"time": 1709, "pitch": 60, "duration": 15, "velocity": 82}, {"time": 1709, "pitch": 63, "duration": 17, "velocity": 82}, {"time": 1739, "pitch": 41, "duration": 33, "velocity": 83}, {"time": 1739, "pitch": 53, "duration": 7, "velocity": 79}, {"time": 1739, "pitch": 60, "duration": 13, "velocity": 77}, {"time": 1745, "pitch": 48, "duration": 26, "velocity": 76}, {"time": 1751, "pitch": 56, "duration": 8, "velocity": 83}, {"time": 1757, "pitch": 53, "duration": 11, "velocity": 82}, {"time": 1769, "pitch": 60, "duration": 4, "velocity": 83}, {"time": 1787, "pitch": 46, "duration": 38, "velocity": 83}, {"time": 1787, "pitch": 58, "duration": 6, "velocity": 74}, {"time": 1787, "pitch": 62, "duration": 14, "velocity": 71}, {"time": 1793, "pitch": 53, "duration": 29, "velocity": 80}, {"time": 1799, "pitch": 58, "duration": 9, "velocity": 82}, {"time": 1805, "pitch": 65, "duration": 13, "velocity": 83}, {"time": 1817, "pitch": 70, "duration": 18, "velocity": 84}, {"time": 1823, "pitch": 58, "duration": 7, "velocity": 80}, {"time": 1835, "pitch": 39, "duration": 44, "velocity": 83}, {"time": 1835, "pitch": 58, "duration": 6, "velocity": 71}, {"time": 1835, "pitch": 63, "duration": 13, "velocity": 74}, {"time": 1841, "pitch": 46, "duration": 36, "velocity": 70}, {"time": 1847, "pitch": 58, "duration": 6, "velocity": 76}, {"time": 1853, "pitch": 65, "duration": 13, "velocity": 74}, {"time": 1865, "pitch": 63, "duration": 6, "velocity": 75}, {"time": 1883, "pitch": 39, "duration": 32, "velocity": 84}, {"time": 1883, "pitch": 58, "duration": 7, "velocity": 71}, {"time": 1883, "pitch": 67, "duration": 15, "velocity": 68}, {"time": 1889, "pitch": 46, "duration": 26, "velocity": 70}, {"time": 1895, "pitch": 58, "duration": 4, "velocity": 71}, {"time": 1901, "pitch": 58, "duration": 7, "velocity": 81}, {"time": 1901, "pitch": 63, "duration": 8, "velocity": 83}, {"time": 1913, "pitch": 58, "duration": 3, "velocity": 84}, {"time": 1913, "pitch": 65, "duration": 2, "velocity": 88}, {"time": 1931, "pitch": 44, "duration": 44, "velocity": 83}, {"time": 1931, "pitch": 56, "duration": 6, "velocity": 78}, {"time": 1931, "pitch": 63, "duration": 10, "velocity": 79}, {"time": 1937, "pitch": 51, "duration": 38, "velocity": 74}, {"time": 1943, "pitch": 56, "duration": 3, "velocity": 82}, {"time": 1949, "pitch": 56, "duration": 4, "velocity": 73}, {"time": 1949, "pitch": 65, "duration": 8, "velocity": 81}, {"time": 1961, "pitch": 56, "duration": 4, "velocity": 75}, {"time": 1961, "pitch": 63, "duration": 3, "velocity": 75}, {"time": 1979, "pitch": 44, "duration": 48, "velocity": 83}, {"time": 1979, "pitch": 56, "duration": 6, "velocity": 73}, {"time": 1979, "pitch": 60, "duration": 13, "velocity": 76}, {"time": 1985, "pitch": 51, "duration": 42, "velocity": 76}, {"time": 1991, "pitch": 56, "duration": 3, "velocity": 81}, {"time": 1997, "pitch": 56, "duration": 4, "velocity": 78}, {"time": 1997, "pitch": 65, "duration": 12, "velocity": 84}, {"time": 2009, "pitch": 56, "duration": 16, "velocity": 75}, {"time": 2009, "pitch": 63, "duration": 17, "velocity": 76}, {"time": 2027, "pitch": 51, "duration": 45, "velocity": 75}, {"time": 2033, "pitch": 58, "duration": 8, "velocity": 76}, {"time": 2039, "pitch": 63, "duration": 6, "velocity": 77}, {"time": 2045, "pitch": 65, "duration": 8, "velocity": 83}, {"time": 2057, "pitch": 67, "duration": 13, "velocity": 75}, {"time": 2069, "pitch": 63, "duration": 13, "velocity": 78}, {"time": 2075, "pitch": 51, "duration": 32, "velocity": 83}, {"time": 2081, "pitch": 58, "duration": 9, "velocity": 70}, {"time": 2087, "pitch": 63, "duration": 7, "velocity": 76}, {"time": 2093, "pitch": 65, "duration": 7, "velocity": 80}, {"time": 2105, "pitch": 67, "duration": 4, "velocity": 83}, {"time": 2123, "pitch": 48, "duration": 44, "velocity": 82}, {"time": 2129, "pitch": 55, "duration": 39, "velocity": 70}, {"time": 2135, "pitch": 63, "duration": 4, "velocity": 77}, {"time": 2141, "pitch": 65, "duration": 4, "velocity": 80}, {"time": 2153, "pitch": 67, "duration": 3, "velocity": 85}, {"time": 2165, "pitch": 63, "duration": 15, "velocity": 75}, {"time": 2171, "pitch": 48, "duration": 33, "velocity": 79}, {"time": 2177, "pitch": 55, "duration": 25, "velocity": 65}, {"time": 2183, "pitch": 63, "duration": 5, "velocity": 77}, {"time": 2189, "pitch": 65, "duration": 4, "velocity": 80}, {"time": 2201, "pitch": 67, "duration": 3, "velocity": 82}, {"time": 2219, "pitch": 41, "duration": 45, "velocity": 83}, {"time": 2219, "pitch": 65, "duration": 13, "velocity": 78}, {"time": 2225, "pitch": 48, "duration": 41, "velocity": 69}, {"time": 2231, "pitch": 60, "duration": 8, "velocity": 72}, {"time": 2237, "pitch": 65, "duration": 8, "velocity": 83}, {"time": 2249, "pitch": 68, "duration": 20, "velocity": 79}, {"time": 2261, "pitch": 60, "duration": 7, "velocity": 78}, {"time": 2267, "pitch": 41, "duration": 46, "velocity": 83}, {"time": 2273, "pitch": 48, "duration": 45, "velocity": 72}, {"time": 2279, "pitch": 60, "duration": 8, "velocity": 71}, {"time": 2285, "pitch": 64, "duration": 10, "velocity": 77}, {"time": 2297, "pitch": 68, "duration": 30, "velocity": 77}, {"time": 2309, "pitch": 60, "duration": 9, "velocity": 82}, {"time": 2315, "pitch": 39, "duration": 36, "velocity": 83}, {"time": 2321, "pitch": 48, "duration": 31, "velocity": 76}, {"time": 2327, "pitch": 63, "duration": 7, "velocity": 72}, {"time": 2333, "pitch": 68, "duration": 47, "velocity": 82}, {"time": 2345, "pitch": 63, "duration": 8, "velocity": 78}, {"time": 2351, "pitch": 60, "duration": 3, "velocity": 56}, {"time": 2363, "pitch": 46, "duration": 46, "velocity": 82}, {"time": 2369, "pitch": 53, "duration": 39, "velocity": 71}, {"time": 2375, "pitch": 58, "duration": 8, "velocity": 75}, {"time": 2381, "pitch": 63, "duration": 7, "velocity": 78}, {"time": 2393, "pitch": 58, "duration": 3, "velocity": 73}, {"time": 2393, "pitch": 65, "duration": 18, "velocity": 80}, {"time": 2399, "pitch": 58, "duration": 12, "velocity": 72}, {"time": 2411, "pitch": 44, "duration": 43, "velocity": 82}, {"time": 2417, "pitch": 51, "duration": 39, "velocity": 73}, {"time": 2423, "pitch": 56, "duration": 13, "velocity": 78}, {"time": 2429, "pitch": 63, "duration": 11, "velocity": 77}, {"time": 2441, "pitch": 65, "duration": 8, "velocity": 82}, {"time": 2447, "pitch": 63, "duration": 25, "velocity": 77}, {"time": 2459, "pitch": 44, "duration": 39, "velocity": 83}, {"time": 2465, "pitch": 51, "duration": 33, "velocity": 76}, {"time": 2471, "pitch": 56, "duration": 7, "velocity": 78}, {"time": 2477, "pitch": 63, "duration": 7, "velocity": 48}, {"time": 2477, "pitch": 68, "duration": 31, "velocity": 74}, {"time": 2489, "pitch": 63, "duration": 16, "velocity": 81}, {"time": 2495, "pitch": 56, "duration": 9, "velocity": 84}, {"time": 2507, "pitch": 51, "duration": 47, "velocity": 84}, {"time": 2513, "pitch": 58, "duration": 8, "velocity": 76}, {"time": 2519, "pitch": 63, "duration": 5, "velocity": 76}, {"time": 2525, "pitch": 65, "duration": 3, "velocity": 83}, {"time": 2537, "pitch": 67, "duration": 5, "velocity": 83}, {"time": 2549, "pitch": 63, "duration": 8, "velocity": 73}, {"time": 2555, "pitch": 48, "duration": 37, "velocity": 83}, {"time": 2555, "pitch": 63, "duration": 2, "velocity": 78}, {"time": 2561, "pitch": 55, "duration": 28, "velocity": 70}, {"time": 2567, "pitch": 60, "duration": 19, "velocity": 80}, {"time": 2573, "pitch": 67, "duration": 12, "velocity": 86}, {"time": 2585, "pitch": 63, "duration": 6, "velocity": 82}, {"time": 2591, "pitch": 60, "duration": 13, "velocity": 87}, {"time": 2603, "pitch": 41, "duration": 23, "velocity": 83}, {"time": 2603, "pitch": 65, "duration": 25, "velocity": 83}, {"time": 2609, "pitch": 48, "duration": 16, "velocity": 71}, {"time": 2615, "pitch": 53, "duration": 9, "velocity": 83}, {"time": 2621, "pitch": 60, "duration": 16, "velocity": 83}, {"time": 2633, "pitch": 53, "duration": 11, "velocity": 91}, {"time": 2649, "pitch": 53, "duration": 2, "velocity": 57}, {"time": 2650, "pitch": 41, "duration": 34, "velocity": 83}, {"time": 2656, "pitch": 48, "duration": 27, "velocity": 71}, {"time": 2662, "pitch": 53, "duration": 18, "velocity": 78}, {"time": 2668, "pitch": 60, "duration": 15, "velocity": 82}, {"time": 2698, "pitch": 46, "duration": 41, "velocity": 83}, {"time": 2704, "pitch": 53, "duration": 29, "velocity": 74}, {"time": 2710, "pitch": 58, "duration": 8, "velocity": 84}, {"time": 2716, "pitch": 63, "duration": 13, "velocity": 85}, {"time": 2728, "pitch": 65, "duration": 5, "velocity": 84}, {"time": 2743, "pitch": 58, "duration": 45, "velocity": 68}, {"time": 2744, "pitch": 62, "duration": 43, "velocity": 67}, {"time": 2745, "pitch": 65, "duration": 45, "velocity": 75}, {"time": 2746, "pitch": 46, "duration": 15, "velocity": 83}, {"time": 2747, "pitch": 70, "duration": 42, "velocity": 78}, {"time": 2795, "pitch": 44, "duration": 45, "velocity": 82}, {"time": 2801, "pitch": 51, "duration": 39, "velocity": 80}, {"time": 2807, "pitch": 56, "duration": 9, "velocity": 85}, {"time": 2813, "pitch": 63, "duration": 10, "velocity": 84}, {"time": 2825, "pitch": 56, "duration": 1, "velocity": 67}, {"time": 2825, "pitch": 60, "duration": 14, "velocity": 82}, {"time": 2843, "pitch": 44, "duration": 38, "velocity": 82}, {"time": 2843, "pitch": 56, "duration": 7, "velocity": 77}, {"time": 2843, "pitch": 63, "duration": 13, "velocity": 78}, {"time": 2849, "pitch": 51, "duration": 15, "velocity": 77}, {"time": 2855, "pitch": 56, "duration": 8, "velocity": 81}, {"time": 2861, "pitch": 58, "duration": 13, "velocity": 83}, {"time": 2867, "pitch": 51, "duration": 10, "velocity": 75}, {"time": 2873, "pitch": 63, "duration": 8, "velocity": 78}, {"time": 2879, "pitch": 56, "duration": 5, "velocity": 82}, {"time": 2891, "pitch": 39, "duration": 33, "velocity": 84}, {"time": 2891, "pitch": 58, "duration": 6, "velocity": 77}, {"time": 2891, "pitch": 63, "duration": 10, "velocity": 77}, {"time": 2897, "pitch": 46, "duration": 27, "velocity": 71}, {"time": 2903, "pitch": 58, "duration": 9, "velocity": 83}, {"time": 2909, "pitch": 63, "duration": 9, "velocity": 83}, {"time": 2921, "pitch": 65, "duration": 7, "velocity": 88}, {"time": 2927, "pitch": 58, "duration": 5, "velocity": 78}, {"time": 2939, "pitch": 48, "duration": 38, "velocity": 73}, {"time": 2939, "pitch": 60, "duration": 7, "velocity": 81}, {"time": 2939, "pitch": 63, "duration": 11, "velocity": 82}, {"time": 2945, "pitch": 55, "duration": 16, "velocity": 76}, {"time": 2951, "pitch": 58, "duration": 4, "velocity": 89}, {"time": 2957, "pitch": 58, "duration": 10, "velocity": 85}, {"time": 2957, "pitch": 63, "duration": 13, "velocity": 84}, {"time": 2963, "pitch": 55, "duration": 8, "velocity": 67}, {"time": 2969, "pitch": 62, "duration": 6, "velocity": 83}, {"time": 2975, "pitch": 60, "duration": 4, "velocity": 83}, {"time": 2987, "pitch": 44, "duration": 39, "velocity": 82}, {"time": 2987, "pitch": 56, "duration": 7, "velocity": 76}, {"time": 2987, "pitch": 63, "duration": 13, "velocity": 80}, {"time": 2993, "pitch": 51, "duration": 26, "velocity": 76}, {"time": 2999, "pitch": 56, "duration": 4, "velocity": 82}, {"time": 3005, "pitch": 56, "duration": 8, "velocity": 84}, {"time": 3005, "pitch": 60, "duration": 9, "velocity": 86}, {"time": 3017, "pitch": 56, "duration": 8, "velocity": 84}, {"time": 3017, "pitch": 63, "duration": 13, "velocity": 82}, {"time": 3023, "pitch": 51, "duration": 5, "velocity": 76}, {"time": 3029, "pitch": 44, "duration": 4, "velocity": 82}, {"time": 3035, "pitch": 46, "duration": 45, "velocity": 84}, {"time": 3035, "pitch": 58, "duration": 7, "velocity": 77}, {"time": 3035, "pitch": 62, "duration": 10, "velocity": 75}, {"time": 3041, "pitch": 53, "duration": 14, "velocity": 77}, {"time": 3047, "pitch": 58, "duration": 3, "velocity": 82}, {"time": 3053, "pitch": 58, "duration": 8, "velocity": 79}, {"time": 3053, "pitch": 65, "duration": 9, "velocity": 83}, {"time": 3059, "pitch": 53, "duration": 17, "velocity": 77}, {"time": 3065, "pitch": 58, "duration": 5, "velocity": 85}, {"time": 3065, "pitch": 62, "duration": 5, "velocity": 86}, {"time": 3083, "pitch": 51, "duration": 14, "velocity": 88}, {"time": 3083, "pitch": 58, "duration": 4, "velocity": 77}, {"time": 3083, "pitch": 63, "duration": 7, "velocity": 79}, {"time": 3089, "pitch": 58, "duration": 7, "velocity": 75}, {"time": 3095, "pitch": 63, "duration": 10, "velocity": 78}, {"time": 3101, "pitch": 58, "duration": 4, "velocity": 65}, {"time": 3107, "pitch": 41, "duration": 19, "velocity": 85}, {"time": 3107, "pitch": 65, "duration": 13, "velocity": 83}, {"time": 3113, "pitch": 48, "duration": 13, "velocity": 74}, {"time": 3119, "pitch": 60, "duration": 9, "velocity": 86}, {"time": 3125, "pitch": 65, "duration": 3, "velocity": 77}, {"time": 3131, "pitch": 43, "duration": 21, "velocity": 87}, {"time": 3131, "pitch": 67, "duration": 7, "velocity": 84}, {"time": 3137, "pitch": 50, "duration": 17, "velocity": 77}, {"time": 3143, "pitch": 67, "duration": 11, "velocity": 84}, {"time": 3155, "pitch": 44, "duration": 10, "velocity": 83}, {"time": 3155, "pitch": 68, "duration": 10, "velocity": 84}, {"time": 3167, "pitch": 46, "duration": 2, "velocity": 78}, {"time": 3167, "pitch": 70, "duration": 12, "velocity": 86}, {"time": 3179, "pitch": 44, "duration": 37, "velocity": 83}, {"time": 3179, "pitch": 63, "duration": 7, "velocity": 77}, {"time": 3179, "pitch": 68, "duration": 12, "velocity": 76}, {"time": 3185, "pitch": 51, "duration": 31, "velocity": 71}, {"time": 3191, "pitch": 63, "duration": 5, "velocity": 83}, {"time": 3197, "pitch": 63, "duration": 8, "velocity": 83}, {"time": 3197, "pitch": 72, "duration": 12, "velocity": 84}, {"time": 3209, "pitch": 63, "duration": 5, "velocity": 84}, {"time": 3209, "pitch": 68, "duration": 15, "velocity": 83}, {"time": 3227, "pitch": 46, "duration": 40, "velocity": 83}, {"time": 3227, "pitch": 65, "duration": 4, "velocity": 78}, {"time": 3227, "pitch": 70, "duration": 19, "velocity": 77}, {"time": 3233, "pitch": 53, "duration": 25, "velocity": 77}, {"time": 3239, "pitch": 58, "duration": 15, "velocity": 83}, {"time": 3245, "pitch": 62, "duration": 9, "velocity": 83}, {"time": 3257, "pitch": 58, "duration": 7, "velocity": 83}, {"time": 3257, "pitch": 62, "duration": 8, "velocity": 83}, {"time": 3257, "pitch": 70, "duration": 18, "velocity": 83}, {"time": 3263, "pitch": 53, "duration": 5, "velocity": 83}, {"time": 3269, "pitch": 58, "duration": 3, "velocity": 84}, {"time": 3275, "pitch": 48, "duration": 21, "velocity": 83}, {"time": 3275, "pitch": 60, "duration": 7, "velocity": 80}, {"time": 3275, "pitch": 63, "duration": 13, "velocity": 78}, {"time": 3281, "pitch": 55, "duration": 14, "velocity": 66}, {"time": 3287, "pitch": 60, "duration": 9, "velocity": 82}, {"time": 3293, "pitch": 67, "duration": 19, "velocity": 86}, {"time": 3299, "pitch": 46, "duration": 17, "velocity": 84}, {"time": 3305, "pitch": 53, "duration": 11, "velocity": 84}, {"time": 3311, "pitch": 58, "duration": 7, "velocity": 87}, {"time": 3317, "pitch": 62, "duration": 3, "velocity": 84}, {"time": 3323, "pitch": 45, "duration": 90, "velocity": 80}, {"time": 3323, "pitch": 57, "duration": 5, "velocity": 81}, {"time": 3323, "pitch": 60, "duration": 14, "velocity": 83}, {"time": 3329, "pitch": 51, "duration": 83, "velocity": 78}, {"time": 3335, "pitch": 57, "duration": 4, "velocity": 81}, {"time": 3341, "pitch": 57, "duration": 70, "velocity": 71}, {"time": 3341, "pitch": 60, "duration": 71, "velocity": 82}, {"time": 3341, "pitch": 63, "duration": 72, "velocity": 82}, {"time": 3419, "pitch": 41, "duration": 36, "velocity": 86}, {"time": 3425, "pitch": 48, "duration": 29, "velocity": 82}, {"time": 3431, "pitch": 53, "duration": 19, "velocity": 91}, {"time": 3437, "pitch": 60, "duration": 16, "velocity": 77}, {"time": 3449, "pitch": 65, "duration": 8, "velocity": 85}, {"time": 3455, "pitch": 53, "duration": 3, "velocity": 86}, {"time": 3467, "pitch": 43, "duration": 32, "velocity": 83}, {"time": 3467, "pitch": 55, "duration": 20, "velocity": 77}, {"time": 3467, "pitch": 62, "duration": 13, "velocity": 75}, {"time": 3473, "pitch": 50, "duration": 26, "velocity": 71}, {"time": 3479, "pitch": 58, "duration": 7, "velocity": 72}, {"time": 3485, "pitch": 62, "duration": 7, "velocity": 85}, {"time": 3497, "pitch": 55, "duration": 6, "velocity": 82}, {"time": 3497, "pitch": 58, "duration": 5, "velocity": 84}, {"time": 3497, "pitch": 62, "duration": 7, "velocity": 80}, {"time": 3503, "pitch": 50, "duration": 3, "velocity": 70}, {"time": 3509, "pitch": 43, "duration": 3, "velocity": 77}, {"time": 3515, "pitch": 44, "duration": 40, "velocity": 86}, {"time": 3515, "pitch": 56, "duration": 7, "velocity": 78}, {"time": 3515, "pitch": 60, "duration": 11, "velocity": 79}, {"time": 3521, "pitch": 51, "duration": 35, "velocity": 77}, {"time": 3527, "pitch": 56, "duration": 17, "velocity": 86}, {"time": 3533, "pitch": 63, "duration": 13, "velocity": 84}, {"time": 3545, "pitch": 68, "duration": 29, "velocity": 82}, {"time": 3551, "pitch": 56, "duration": 11, "velocity": 84}, {"time": 3563, "pitch": 43, "duration": 34, "velocity": 86}, {"time": 3569, "pitch": 50, "duration": 28, "velocity": 68}, {"time": 3575, "pitch": 55, "duration": 14, "velocity": 85}, {"time": 3581, "pitch": 58, "duration": 7, "velocity": 82}, {"time": 3593, "pitch": 55, "duration": 4, "velocity": 83}, {"time": 3593, "pitch": 58, "duration": 14, "velocity": 84}, {"time": 3593, "pitch": 62, "duration": 21, "velocity": 82}, {"time": 3605, "pitch": 55, "duration": 6, "velocity": 82}, {"time": 3611, "pitch": 41, "duration": 32, "velocity": 85}, {"time": 3617, "pitch": 48, "duration": 26, "velocity": 74}, {"time": 3623, "pitch": 53, "duration": 20, "velocity": 84}, {"time": 3629, "pitch": 56, "duration": 28, "velocity": 83}, {"time": 3641, "pitch": 65, "duration": 28, "velocity": 87}, {"time": 3647, "pitch": 53, "duration": 12, "velocity": 96}, {"time": 3666, "pitch": 46, "duration": 76, "velocity": 82}, {"time": 3671, "pitch": 53, "duration": 69, "velocity": 79}, {"time": 3676, "pitch": 58, "duration": 67, "velocity": 82}, {"time": 3681, "pitch": 62, "duration": 61, "velocity": 71}, {"time": 3686, "pitch": 65, "duration": 57, "velocity": 73}, {"time": 3692, "pitch": 70, "duration": 50, "velocity": 67}, {"time": 3755, "pitch": 39, "duration": 31, "velocity": 84}, {"time": 3761, "pitch": 46, "duration": 23, "velocity": 68}, {"time": 3767, "pitch": 53, "duration": 8, "velocity": 71}, {"time": 3773, "pitch": 55, "duration": 12, "velocity": 72}, {"time": 3784, "pitch": 58, "duration": 8, "velocity": 67}, {"time": 3801, "pitch": 44, "duration": 40, "velocity": 79}, {"time": 3807, "pitch": 51, "duration": 30, "velocity": 73}, {"time": 3813, "pitch": 58, "duration": 7, "velocity": 70}, {"time": 3819, "pitch": 60, "duration": 9, "velocity": 70}, {"time": 3832, "pitch": 63, "duration": 21, "velocity": 70}, {"time": 3832, "pitch": 56, "duration": 14, "velocity": 65}, {"time": 3850, "pitch": 46, "duration": 47, "velocity": 82}, {"time": 3856, "pitch": 53, "duration": 36, "velocity": 77}, {"time": 3862, "pitch": 58, "duration": 13, "velocity": 79}, {"time": 3868, "pitch": 62, "duration": 7, "velocity": 82}, {"time": 3874, "pitch": 65, "duration": 8, "velocity": 78}, {"time": 3880, "pitch": 70, "duration": 46, "velocity": 82}, {"time": 3886, "pitch": 58, "duration": 42, "velocity": 70}, {"time": 3892, "pitch": 62, "duration": 33, "velocity": 60}, {"time": 3950, "pitch": 39, "duration": 96, "velocity": 88}, {"time": 3954, "pitch": 46, "duration": 91, "velocity": 74}, {"time": 3957, "pitch": 51, "duration": 4, "velocity": 75}, {"time": 3960, "pitch": 53, "duration": 3, "velocity": 76}, {"time": 3963, "pitch": 55, "duration": 3, "velocity": 69}, {"time": 3967, "pitch": 58, "duration": 4, "velocity": 71}, {"time": 3972, "pitch": 63, "duration": 5, "velocity": 75}, {"time": 3977, "pitch": 65, "duration": 2, "velocity": 80}, {"time": 3982, "pitch": 67, "duration": 3, "velocity": 81}, {"time": 3988, "pitch": 70, "duration": 4, "velocity": 81}, {"time": 3994, "pitch": 75, "duration": 5, "velocity": 73}, {"time": 4001, "pitch": 77, "duration": 4, "velocity": 77}, {"time": 4010, "pitch": 82, "duration": 5, "velocity": 73}, {"time": 4019, "pitch": 75, "duration": 5, "velocity": 59}, {"time": 4019, "pitch": 79, "duration": 5, "velocity": 66}, {"time": 4033, "pitch": 87, "duration": 2, "velocity": 77}], "annotations": [{"time": 12, "annotation": {"number": 64, "value": 127}, "group": "control_change"}, {"time": 59, "annotation": {"number": 64, "value": 0}, "group": "control_change"}, {"time": 64, "annotation": {"number": 64, "value": 127}, "group": "control_change"}, {"time": 105, "annotation": {"number": 64, "value": 0}, "group": "control_change"}, {"time": 109, "annotation": {"number": 64, "value": 127}, "group": "control_change"}, {"time": 155, "annotation": {"number": 64, "value": 127}, "group": "control_change"}, {"time": 197, "annotation": {"number": 64, "value": 0}, "group": "control_change"}, {"time": 204, "annotation": {"number": 64, "value": 127}, "group": "control_change"}, {"time": 251, "annotation": {"number": 64, "value": 0}, "group": "control_change"}, {"time": 256, "annotation": {"number": 64, "value": 127}, "group": "control_change"}, {"time": 297, "annotation": {"number": 64, "value": 0}, "group": "control_change"}, {"time": 301, "annotation": {"number": 64, "value": 127}, "group": "control_change"}, {"time": 347, "annotation": {"number": 64, "value": 127}, "group": "control_change"}, {"time": 389, "annotation": {"number": 64, "value": 0}, "group": "control_change"}, {"time": 399, "annotation": {"number": 64, "value": 127}, "group": "control_change"}, {"time": 441, "annotation": {"number": 64, "value": 0}, "group": "control_change"}, {"time": 446, "annotation": {"number": 64, "value": 127}, "group": "control_change"}, {"time": 487, "annotation": {"number": 64, "value": 0}, "group": "control_change"}, {"time": 491, "annotation": {"number": 64, "value": 127}, "group": "control_change"}, {"time": 536, "annotation": {"number": 64, "value": 0}, "group": "control_change"}, {"time": 540, "annotation": {"number": 64, "value": 127}, "group": "control_change"}, {"time": 585, "annotation": {"number": 64, "value": 0}, "group": "control_change"}, {"time": 589, "annotation": {"number": 64, "value": 127}, "group": "control_change"}, {"time": 633, "annotation": {"number": 64, "value": 0}, "group": "control_change"}, {"time": 636, "annotation": {"number": 64, "value": 127}, "group": "control_change"}, {"time": 682, "annotation": {"number": 64, "value": 0}, "group": "control_change"}, {"time": 687, "annotation": {"number": 64, "value": 127}, "group": "control_change"}, {"time": 730, "annotation": {"number": 64, "value": 0}, "group": "control_change"}, {"time": 734, "annotation": {"number": 64, "value": 127}, "group": "control_change"}, {"time": 777, "annotation": {"number": 64, "value": 0}, "group": "control_change"}, {"time": 785, "annotation": {"number": 64, "value": 127}, "group": "control_change"}, {"time": 824, "annotation": {"number": 64, "value": 0}, "group": "control_change"}, {"time": 828, "annotation": {"number": 64, "value": 127}, "group": "control_change"}, {"time": 873, "annotation": {"number": 64, "value": 0}, "group": "control_change"}, {"time": 877, "annotation": {"number": 64, "value": 127}, "group": "control_change"}, {"time": 922, "annotation": {"number": 64, "value": 0}, "group": "control_change"}, {"time": 924, "annotation": {"number": 64, "value": 127}, "group": "control_change"}, {"time": 965, "annotation": {"number": 64, "value": 0}, "group": "control_change"}, {"time": 969, "annotation": {"number": 64, "value": 127}, "group": "control_change"}, {"time": 1017, "annotation": {"number": 64, "value": 0}, "group": "control_change"}, {"time": 1020, "annotation": {"number": 64, "value": 127}, "group": "control_change"}, {"time": 1065, "annotation": {"number": 64, "value": 0}, "group": "control_change"}, {"time": 1068, "annotation": {"number": 64, "value": 127}, "group": "control_change"}, {"time": 1112, "annotation": {"number": 64, "value": 0}, "group": "control_change"}, {"time": 1115, "annotation": {"number": 64, "value": 127}, "group": "control_change"}, {"time": 1161, "annotation": {"number": 64, "value": 0}, "group": "control_change"}, {"time": 1167, "annotation": {"number": 64, "value": 127}, "group": "control_change"}, {"time": 1210, "annotation": {"number": 64, "value": 0}, "group": "control_change"}, {"time": 1214, "annotation": {"number": 64, "value": 127}, "group": "control_change"}, {"time": 1256, "annotation": {"number": 64, "value": 0}, "group": "control_change"}, {"time": 1260, "annotation": {"number": 64, "value": 127}, "group": "control_change"}, {"time": 1305, "annotation": {"number": 64, "value": 0}, "group": "control_change"}, {"time": 1308, "annotation": {"number": 64, "value": 127}, "group": "control_change"}, {"time": 1354, "annotation": {"number": 64, "value": 0}, "group": "control_change"}, {"time": 1358, "annotation": {"number": 64, "value": 127}, "group": "control_change"}, {"time": 1400, "annotation": {"number": 64, "value": 0}, "group": "control_change"}, {"time": 1403, "annotation": {"number": 64, "value": 127}, "group": "control_change"}, {"time": 1447, "annotation": {"number": 64, "value": 0}, "group": "control_change"}, {"time": 1449, "annotation": {"number": 64, "value": 127}, "group": "control_change"}, {"time": 1472, "annotation": {"number": 64, "value": 0}, "group": "control_change"}, {"time": 1475, "annotation": {"number": 64, "value": 127}, "group": "control_change"}, {"time": 1496, "annotation": {"number": 64, "value": 0}, "group": "control_change"}, {"time": 1498, "annotation": {"number": 64, "value": 127}, "group": "control_change"}, {"time": 1543, "annotation": {"number": 64, "value": 0}, "group": "control_change"}, {"time": 1551, "annotation": {"number": 64, "value": 127}, "group": "control_change"}, {"time": 1591, "annotation": {"number": 64, "value": 0}, "group": "control_change"}, {"time": 1594, "annotation": {"number": 64, "value": 127}, "group": "control_change"}, {"time": 1640, "annotation": {"number": 64, "value": 0}, "group": "control_change"}, {"time": 1643, "annotation": {"number": 64, "value": 127}, "group": "control_change"}, {"time": 1664, "annotation": {"number": 64, "value": 0}, "group": "control_change"}, {"time": 1667, "annotation": {"number": 64, "value": 127}, "group": "control_change"}, {"time": 1688, "annotation": {"number": 64, "value": 0}, "group": "control_change"}, {"time": 1692, "annotation": {"number": 64, "value": 127}, "group": "control_change"}, {"time": 1737, "annotation": {"number": 64, "value": 0}, "group": "control_change"}, {"time": 1742, "annotation": {"number": 64, "value": 127}, "group": "control_change"}, {"time": 1786, "annotation": {"number": 64, "value": 0}, "group": "control_change"}, {"time": 1790, "annotation": {"number": 64, "value": 127}, "group": "control_change"}, {"time": 1832, "annotation": {"number": 64, "value": 0}, "group": "control_change"}, {"time": 1836, "annotation": {"number": 64, "value": 127}, "group": "control_change"}, {"time": 1882, "annotation": {"number": 64, "value": 0}, "group": "control_change"}, {"time": 1885, "annotation": {"number": 64, "value": 127}, "group": "control_change"}, {"time": 1930, "annotation": {"number": 64, "value": 0}, "group": "control_change"}, {"time": 1934, "annotation": {"number": 64, "value": 127}, "group": "control_change"}, {"time": 1977, "annotation": {"number": 64, "value": 0}, "group": "control_change"}, {"time": 1982, "annotation": {"number": 64, "value": 127}, "group": "control_change"}, {"time": 2021, "annotation": {"number": 64, "value": 0}, "group": "control_change"}, {"time": 2031, "annotation": {"number": 64, "value": 127}, "group": "control_change"}, {"time": 2073, "annotation": {"number": 64, "value": 0}, "group": "control_change"}, {"time": 2078, "annotation": {"number": 64, "value": 127}, "group": "control_change"}, {"time": 2119, "annotation": {"number": 64, "value": 0}, "group": "control_change"}, {"time": 2123, "annotation": {"number": 64, "value": 127}, "group": "control_change"}, {"time": 2168, "annotation": {"number": 64, "value": 0}, "group": "control_change"}, {"time": 2172, "annotation": {"number": 64, "value": 127}, "group": "control_change"}, {"time": 2217, "annotation": {"number": 64, "value": 0}, "group": "control_change"}, {"time": 2221, "annotation": {"number": 64, "value": 127}, "group": "control_change"}, {"time": 2265, "annotation": {"number": 64, "value": 0}, "group": "control_change"}, {"time": 2268, "annotation": {"number": 64, "value": 127}, "group": "control_change"}, {"time": 2314, "annotation": {"number": 64, "value": 0}, "group": "control_change"}, {"time": 2319, "annotation": {"number": 64, "value": 127}, "group": "control_change"}, {"time": 2362, "annotation": {"number": 64, "value": 0}, "group": "control_change"}, {"time": 2366, "annotation": {"number": 64, "value": 127}, "group": "control_change"}, {"time": 2409, "annotation": {"number": 64, "value": 0}, "group": "control_change"}, {"time": 2417, "annotation": {"number": 64, "value": 127}, "group": "control_change"}, {"time": 2456, "annotation": {"number": 64, "value": 0}, "group": "control_change"}, {"time": 2460, "annotation": {"number": 64, "value": 127}, "group": "control_change"}, {"time": 2505, "annotation": {"number": 64, "value": 0}, "group": "control_change"}, {"time": 2509, "annotation": {"number": 64, "value": 127}, "group": "control_change"}, {"time": 2554, "annotation": {"number": 64, "value": 0}, "group": "control_change"}, {"time": 2556, "annotation": {"number": 64, "value": 127}, "group": "control_change"}, {"time": 2597, "annotation": {"number": 64, "value": 0}, "group": "control_change"}, {"time": 2601, "annotation": {"number": 64, "value": 127}, "group": "control_change"}, {"time": 2649, "annotation": {"number": 64, "value": 0}, "group": "control_change"}, {"time": 2652, "annotation": {"number": 64, "value": 127}, "group": "control_change"}, {"time": 2697, "annotation": {"number": 64, "value": 0}, "group": "control_change"}, {"time": 2700, "annotation": {"number": 64, "value": 127}, "group": "control_change"}, {"time": 2744, "annotation": {"number": 64, "value": 0}, "group": "control_change"}, {"time": 2747, "annotation": {"number": 64, "value": 127}, "group": "control_change"}, {"time": 2793, "annotation": {"number": 64, "value": 0}, "group": "control_change"}, {"time": 2799, "annotation": {"number": 64, "value": 127}, "group": "control_change"}, {"time": 2842, "annotation": {"number": 64, "value": 0}, "group": "control_change"}, {"time": 2846, "annotation": {"number": 64, "value": 127}, "group": "control_change"}, {"time": 2888, "annotation": {"number": 64, "value": 0}, "group": "control_change"}, {"time": 2892, "annotation": {"number": 64, "value": 127}, "group": "control_change"}, {"time": 2937, "annotation": {"number": 64, "value": 0}, "group": "control_change"}, {"time": 2940, "annotation": {"number": 64, "value": 127}, "group": "control_change"}, {"time": 2986, "annotation": {"number": 64, "value": 0}, "group": "control_change"}, {"time": 2990, "annotation": {"number": 64, "value": 127}, "group": "control_change"}, {"time": 3032, "annotation": {"number": 64, "value": 0}, "group": "control_change"}, {"time": 3035, "annotation": {"number": 64, "value": 127}, "group": "control_change"}, {"time": 3079, "annotation": {"number": 64, "value": 0}, "group": "control_change"}, {"time": 3081, "annotation": {"number": 64, "value": 127}, "group": "control_change"}, {"time": 3104, "annotation": {"number": 64, "value": 0}, "group": "control_change"}, {"time": 3107, "annotation": {"number": 64, "value": 127}, "group": "control_change"}, {"time": 3128, "annotation": {"number": 64, "value": 0}, "group": "control_change"}, {"time": 3130, "annotation": {"number": 64, "value": 127}, "group": "control_change"}, {"time": 3175, "annotation": {"number": 64, "value": 0}, "group": "control_change"}, {"time": 3183, "annotation": {"number": 64, "value": 127}, "group": "control_change"}, {"time": 3223, "annotation": {"number": 64, "value": 0}, "group": "control_change"}, {"time": 3226, "annotation": {"number": 64, "value": 127}, "group": "control_change"}, {"time": 3272, "annotation": {"number": 64, "value": 0}, "group": "control_change"}, {"time": 3275, "annotation": {"number": 64, "value": 127}, "group": "control_change"}, {"time": 3296, "annotation": {"number": 64, "value": 0}, "group": "control_change"}, {"time": 3299, "annotation": {"number": 64, "value": 127}, "group": "control_change"}, {"time": 3320, "annotation": {"number": 64, "value": 0}, "group": "control_change"}, {"time": 3324, "annotation": {"number": 64, "value": 127}, "group": "control_change"}, {"time": 3420, "annotation": {"number": 64, "value": 127}, "group": "control_change"}, {"time": 3465, "annotation": {"number": 64, "value": 0}, "group": "control_change"}, {"time": 3469, "annotation": {"number": 64, "value": 127}, "group": "control_change"}, {"time": 3513, "annotation": {"number": 64, "value": 0}, "group": "control_change"}, {"time": 3516, "annotation": {"number": 64, "value": 127}, "group": "control_change"}, {"time": 3560, "annotation": {"number": 64, "value": 0}, "group": "control_change"}, {"time": 3563, "annotation": {"number": 64, "value": 127}, "group": "control_change"}, {"time": 3607, "annotation": {"number": 64, "value": 0}, "group": "control_change"}, {"time": 3612, "annotation": {"number": 64, "value": 127}, "group": "control_change"}, {"time": 3673, "annotation": {"number": 64, "value": 0}, "group": "control_change"}, {"time": 3674, "annotation": {"number": 64, "value": 127}, "group": "control_change"}, {"time": 3752, "annotation": {"number": 64, "value": 0}, "group": "control_change"}, {"time": 3759, "annotation": {"number": 64, "value": 127}, "group": "control_change"}, {"time": 3803, "annotation": {"number": 64, "value": 0}, "group": "control_change"}, {"time": 3806, "annotation": {"number": 64, "value": 127}, "group": "control_change"}, {"time": 3851, "annotation": {"number": 64, "value": 0}, "group": "control_change"}, {"time": 3855, "annotation": {"number": 64, "value": 127}, "group": "control_change"}, {"time": 3949, "annotation": {"number": 64, "value": 0}, "group": "control_change"}, {"time": 3952, "annotation": {"number": 64, "value": 127}, "group": "control_change"}, {"time": 4091, "annotation": {"number": 64, "value": 0}, "group": "control_change"}]}]}