{"metadata": {"schema_version": "0.2", "title": "None", "source_filename": "833.mid", "source_format": "midi"}, "resolution": 12, "tempos": [{"time": 0, "qpm": 75.0}], "time_signatures": [{"time": 0, "numerator": 1, "denominator": 4}], "tracks": [{"program": 0, "is_drum": false, "name": "MELODY", "notes": [{"time": 296, "pitch": 72, "duration": 2, "velocity": 83}, {"time": 299, "pitch": 72, "duration": 2, "velocity": 82}, {"time": 302, "pitch": 72, "duration": 5, "velocity": 86}, {"time": 308, "pitch": 74, "duration": 6, "velocity": 87}, {"time": 314, "pitch": 76, "duration": 6, "velocity": 84}, {"time": 321, "pitch": 67, "duration": 16, "velocity": 85}, {"time": 344, "pitch": 72, "duration": 3, "velocity": 81}, {"time": 347, "pitch": 69, "duration": 5, "velocity": 82}, {"time": 350, "pitch": 72, "duration": 6, "velocity": 84}, {"time": 356, "pitch": 74, "duration": 7, "velocity": 86}, {"time": 362, "pitch": 77, "duration": 4, "velocity": 83}, {"time": 365, "pitch": 76, "duration": 20, "velocity": 82}, {"time": 392, "pitch": 72, "duration": 2, "velocity": 82}, {"time": 395, "pitch": 72, "duration": 2, "velocity": 82}, {"time": 398, "pitch": 72, "duration": 5, "velocity": 86}, {"time": 404, "pitch": 74, "duration": 5, "velocity": 87}, {"time": 410, "pitch": 76, "duration": 6, "velocity": 83}, {"time": 416, "pitch": 67, "duration": 2, "velocity": 81}, {"time": 419, "pitch": 67, "duration": 2, "velocity": 78}, {"time": 422, "pitch": 69, "duration": 5, "velocity": 81}, {"time": 428, "pitch": 72, "duration": 3, "velocity": 85}, {"time": 431, "pitch": 72, "duration": 3, "velocity": 85}, {"time": 434, "pitch": 72, "duration": 6, "velocity": 85}, {"time": 440, "pitch": 74, "duration": 18, "velocity": 85}, {"time": 458, "pitch": 77, "duration": 6, "velocity": 81}, {"time": 464, "pitch": 76, "duration": 17, "velocity": 83}, {"time": 488, "pitch": 79, "duration": 2, "velocity": 83}, {"time": 491, "pitch": 79, "duration": 2, "velocity": 83}, {"time": 494, "pitch": 79, "duration": 4, "velocity": 84}, {"time": 499, "pitch": 79, "duration": 3, "velocity": 83}, {"time": 503, "pitch": 79, "duration": 6, "velocity": 84}, {"time": 509, "pitch": 71, "duration": 2, "velocity": 69}, {"time": 512, "pitch": 71, "duration": 2, "velocity": 85}, {"time": 515, "pitch": 71, "duration": 6, "velocity": 83}, {"time": 536, "pitch": 72, "duration": 2, "velocity": 83}, {"time": 539, "pitch": 72, "duration": 2, "velocity": 84}, {"time": 542, "pitch": 72, "duration": 6, "velocity": 88}, {"time": 548, "pitch": 74, "duration": 6, "velocity": 90}, {"time": 554, "pitch": 77, "duration": 6, "velocity": 83}, {"time": 560, "pitch": 76, "duration": 5, "velocity": 86}, {"time": 566, "pitch": 76, "duration": 12, "velocity": 85}, {"time": 584, "pitch": 72, "duration": 2, "velocity": 80}, {"time": 587, "pitch": 72, "duration": 2, "velocity": 83}, {"time": 590, "pitch": 72, "duration": 5, "velocity": 90}, {"time": 596, "pitch": 79, "duration": 4, "velocity": 84}, {"time": 602, "pitch": 79, "duration": 5, "velocity": 82}, {"time": 609, "pitch": 67, "duration": 4, "velocity": 81}, {"time": 614, "pitch": 76, "duration": 3, "velocity": 82}, {"time": 618, "pitch": 79, "duration": 2, "velocity": 81}, {"time": 621, "pitch": 79, "duration": 4, "velocity": 82}, {"time": 625, "pitch": 67, "duration": 4, "velocity": 83}, {"time": 629, "pitch": 72, "duration": 3, "velocity": 82}, {"time": 633, "pitch": 72, "duration": 2, "velocity": 81}, {"time": 637, "pitch": 72, "duration": 22, "velocity": 80}, {"time": 680, "pitch": 72, "duration": 2, "velocity": 83}, {"time": 683, "pitch": 72, "duration": 2, "velocity": 82}, {"time": 686, "pitch": 72, "duration": 5, "velocity": 86}, {"time": 692, "pitch": 74, "duration": 6, "velocity": 87}, {"time": 698, "pitch": 76, "duration": 6, "velocity": 84}, {"time": 705, "pitch": 67, "duration": 16, "velocity": 85}, {"time": 728, "pitch": 72, "duration": 3, "velocity": 81}, {"time": 731, "pitch": 69, "duration": 5, "velocity": 82}, {"time": 734, "pitch": 72, "duration": 6, "velocity": 84}, {"time": 740, "pitch": 74, "duration": 7, "velocity": 86}, {"time": 746, "pitch": 77, "duration": 4, "velocity": 83}, {"time": 749, "pitch": 76, "duration": 20, "velocity": 82}, {"time": 776, "pitch": 72, "duration": 2, "velocity": 82}, {"time": 779, "pitch": 72, "duration": 2, "velocity": 82}, {"time": 782, "pitch": 72, "duration": 5, "velocity": 86}, {"time": 788, "pitch": 74, "duration": 5, "velocity": 87}, {"time": 794, "pitch": 76, "duration": 6, "velocity": 83}, {"time": 800, "pitch": 67, "duration": 2, "velocity": 81}, {"time": 803, "pitch": 67, "duration": 2, "velocity": 78}, {"time": 806, "pitch": 69, "duration": 5, "velocity": 81}, {"time": 812, "pitch": 72, "duration": 3, "velocity": 85}, {"time": 815, "pitch": 72, "duration": 3, "velocity": 85}, {"time": 818, "pitch": 72, "duration": 6, "velocity": 85}, {"time": 824, "pitch": 74, "duration": 18, "velocity": 85}, {"time": 842, "pitch": 77, "duration": 6, "velocity": 81}, {"time": 848, "pitch": 76, "duration": 17, "velocity": 83}, {"time": 872, "pitch": 79, "duration": 2, "velocity": 83}, {"time": 875, "pitch": 79, "duration": 2, "velocity": 83}, {"time": 878, "pitch": 79, "duration": 4, "velocity": 84}, {"time": 883, "pitch": 79, "duration": 3, "velocity": 83}, {"time": 887, "pitch": 79, "duration": 6, "velocity": 84}, {"time": 893, "pitch": 71, "duration": 2, "velocity": 69}, {"time": 896, "pitch": 71, "duration": 2, "velocity": 85}, {"time": 899, "pitch": 71, "duration": 3, "velocity": 83}, {"time": 902, "pitch": 71, "duration": 9, "velocity": 83}, {"time": 920, "pitch": 72, "duration": 2, "velocity": 83}, {"time": 923, "pitch": 72, "duration": 2, "velocity": 84}, {"time": 926, "pitch": 72, "duration": 6, "velocity": 88}, {"time": 932, "pitch": 74, "duration": 6, "velocity": 90}, {"time": 938, "pitch": 77, "duration": 6, "velocity": 83}, {"time": 944, "pitch": 76, "duration": 5, "velocity": 86}, {"time": 950, "pitch": 79, "duration": 12, "velocity": 85}, {"time": 968, "pitch": 72, "duration": 2, "velocity": 80}, {"time": 971, "pitch": 72, "duration": 2, "velocity": 83}, {"time": 974, "pitch": 72, "duration": 5, "velocity": 90}, {"time": 980, "pitch": 74, "duration": 3, "velocity": 88}, {"time": 983, "pitch": 77, "duration": 9, "velocity": 83}, {"time": 992, "pitch": 76, "duration": 2, "velocity": 83}, {"time": 995, "pitch": 76, "duration": 2, "velocity": 82}, {"time": 998, "pitch": 76, "duration": 6, "velocity": 83}, {"time": 1004, "pitch": 74, "duration": 9, "velocity": 90}, {"time": 1016, "pitch": 76, "duration": 4, "velocity": 85}, {"time": 1022, "pitch": 77, "duration": 9, "velocity": 82}, {"time": 1033, "pitch": 79, "duration": 20, "velocity": 80}, {"time": 1058, "pitch": 84, "duration": 4, "velocity": 88}, {"time": 1062, "pitch": 81, "duration": 4, "velocity": 83}, {"time": 1067, "pitch": 84, "duration": 2, "velocity": 82}, {"time": 1070, "pitch": 84, "duration": 5, "velocity": 85}, {"time": 1076, "pitch": 84, "duration": 2, "velocity": 83}, {"time": 1079, "pitch": 81, "duration": 2, "velocity": 83}, {"time": 1082, "pitch": 84, "duration": 5, "velocity": 84}, {"time": 1088, "pitch": 84, "duration": 5, "velocity": 87}, {"time": 1094, "pitch": 88, "duration": 8, "velocity": 86}, {"time": 1103, "pitch": 83, "duration": 2, "velocity": 82}, {"time": 1107, "pitch": 83, "duration": 1, "velocity": 81}, {"time": 1110, "pitch": 83, "duration": 1, "velocity": 82}, {"time": 1113, "pitch": 83, "duration": 1, "velocity": 82}, {"time": 1116, "pitch": 83, "duration": 7, "velocity": 85}, {"time": 1122, "pitch": 81, "duration": 2, "velocity": 80}, {"time": 1125, "pitch": 83, "duration": 2, "velocity": 90}, {"time": 1128, "pitch": 81, "duration": 2, "velocity": 82}, {"time": 1131, "pitch": 83, "duration": 2, "velocity": 88}, {"time": 1134, "pitch": 84, "duration": 6, "velocity": 87}, {"time": 1140, "pitch": 81, "duration": 6, "velocity": 83}, {"time": 1146, "pitch": 84, "duration": 1, "velocity": 98}, {"time": 1149, "pitch": 84, "duration": 2, "velocity": 85}, {"time": 1152, "pitch": 81, "duration": 1, "velocity": 82}, {"time": 1155, "pitch": 84, "duration": 4, "velocity": 95}, {"time": 1160, "pitch": 84, "duration": 3, "velocity": 86}, {"time": 1163, "pitch": 81, "duration": 2, "velocity": 82}, {"time": 1166, "pitch": 84, "duration": 5, "velocity": 97}, {"time": 1172, "pitch": 84, "duration": 2, "velocity": 85}, {"time": 1175, "pitch": 84, "duration": 1, "velocity": 81}, {"time": 1178, "pitch": 88, "duration": 5, "velocity": 95}, {"time": 1184, "pitch": 88, "duration": 4, "velocity": 85}, {"time": 1188, "pitch": 79, "duration": 12, "velocity": 86}, {"time": 1202, "pitch": 83, "duration": 5, "velocity": 86}, {"time": 1208, "pitch": 83, "duration": 5, "velocity": 84}, {"time": 1215, "pitch": 83, "duration": 4, "velocity": 85}, {"time": 1221, "pitch": 83, "duration": 4, "velocity": 87}, {"time": 1226, "pitch": 84, "duration": 14, "velocity": 88}, {"time": 1247, "pitch": 84, "duration": 3, "velocity": 82}, {"time": 1250, "pitch": 84, "duration": 4, "velocity": 88}, {"time": 1254, "pitch": 81, "duration": 4, "velocity": 83}, {"time": 1259, "pitch": 84, "duration": 2, "velocity": 82}, {"time": 1262, "pitch": 84, "duration": 3, "velocity": 85}, {"time": 1268, "pitch": 84, "duration": 2, "velocity": 83}, {"time": 1271, "pitch": 81, "duration": 2, "velocity": 83}, {"time": 1274, "pitch": 84, "duration": 3, "velocity": 84}, {"time": 1277, "pitch": 84, "duration": 3, "velocity": 84}, {"time": 1280, "pitch": 84, "duration": 5, "velocity": 87}, {"time": 1286, "pitch": 88, "duration": 8, "velocity": 86}, {"time": 1295, "pitch": 88, "duration": 2, "velocity": 82}, {"time": 1299, "pitch": 86, "duration": 1, "velocity": 81}, {"time": 1302, "pitch": 86, "duration": 1, "velocity": 82}, {"time": 1305, "pitch": 86, "duration": 1, "velocity": 82}, {"time": 1308, "pitch": 86, "duration": 6, "velocity": 85}, {"time": 1314, "pitch": 86, "duration": 6, "velocity": 87}, {"time": 1320, "pitch": 84, "duration": 3, "velocity": 81}, {"time": 1323, "pitch": 88, "duration": 4, "velocity": 92}, {"time": 1329, "pitch": 88, "duration": 4, "velocity": 82}, {"time": 1335, "pitch": 88, "duration": 4, "velocity": 85}, {"time": 1338, "pitch": 81, "duration": 4, "velocity": 82}, {"time": 1344, "pitch": 81, "duration": 2, "velocity": 86}, {"time": 1347, "pitch": 84, "duration": 2, "velocity": 87}, {"time": 1349, "pitch": 81, "duration": 2, "velocity": 81}, {"time": 1352, "pitch": 84, "duration": 3, "velocity": 87}, {"time": 1355, "pitch": 84, "duration": 2, "velocity": 82}, {"time": 1358, "pitch": 84, "duration": 6, "velocity": 95}, {"time": 1362, "pitch": 86, "duration": 6, "velocity": 85}, {"time": 1368, "pitch": 84, "duration": 2, "velocity": 85}, {"time": 1372, "pitch": 84, "duration": 12, "velocity": 85}, {"time": 1391, "pitch": 79, "duration": 2, "velocity": 82}, {"time": 1394, "pitch": 86, "duration": 2, "velocity": 82}, {"time": 1397, "pitch": 86, "duration": 2, "velocity": 83}, {"time": 1400, "pitch": 86, "duration": 2, "velocity": 83}, {"time": 1403, "pitch": 86, "duration": 1, "velocity": 83}, {"time": 1406, "pitch": 86, "duration": 5, "velocity": 87}, {"time": 1412, "pitch": 88, "duration": 8, "velocity": 87}, {"time": 1424, "pitch": 88, "duration": 2, "velocity": 82}, {"time": 1427, "pitch": 88, "duration": 6, "velocity": 84}, {"time": 1433, "pitch": 79, "duration": 4, "velocity": 80}, {"time": 1437, "pitch": 81, "duration": 6, "velocity": 80}, {"time": 1443, "pitch": 84, "duration": 33, "velocity": 84}, {"time": 1637, "pitch": 84, "duration": 5, "velocity": 80}, {"time": 1640, "pitch": 79, "duration": 4, "velocity": 83}, {"time": 1643, "pitch": 81, "duration": 5, "velocity": 82}, {"time": 1649, "pitch": 81, "duration": 2, "velocity": 81}, {"time": 1652, "pitch": 81, "duration": 3, "velocity": 83}, {"time": 1655, "pitch": 79, "duration": 2, "velocity": 81}, {"time": 1658, "pitch": 81, "duration": 5, "velocity": 88}, {"time": 1664, "pitch": 81, "duration": 2, "velocity": 82}, {"time": 1667, "pitch": 81, "duration": 2, "velocity": 81}, {"time": 1670, "pitch": 79, "duration": 5, "velocity": 85}, {"time": 1676, "pitch": 81, "duration": 3, "velocity": 82}, {"time": 1679, "pitch": 81, "duration": 3, "velocity": 82}, {"time": 1682, "pitch": 81, "duration": 6, "velocity": 82}, {"time": 1691, "pitch": 79, "duration": 8, "velocity": 82}, {"time": 1700, "pitch": 76, "duration": 5, "velocity": 83}, {"time": 1706, "pitch": 76, "duration": 13, "velocity": 84}, {"time": 1733, "pitch": 79, "duration": 2, "velocity": 78}, {"time": 1736, "pitch": 72, "duration": 2, "velocity": 82}, {"time": 1739, "pitch": 74, "duration": 5, "velocity": 82}, {"time": 1745, "pitch": 74, "duration": 2, "velocity": 81}, {"time": 1748, "pitch": 74, "duration": 2, "velocity": 81}, {"time": 1751, "pitch": 74, "duration": 2, "velocity": 84}, {"time": 1754, "pitch": 79, "duration": 4, "velocity": 84}, {"time": 1760, "pitch": 79, "duration": 2, "velocity": 82}, {"time": 1763, "pitch": 79, "duration": 2, "velocity": 81}, {"time": 1766, "pitch": 79, "duration": 5, "velocity": 87}, {"time": 1778, "pitch": 79, "duration": 2, "velocity": 77}, {"time": 1781, "pitch": 79, "duration": 2, "velocity": 75}, {"time": 1784, "pitch": 79, "duration": 2, "velocity": 76}, {"time": 1787, "pitch": 79, "duration": 1, "velocity": 81}, {"time": 1790, "pitch": 79, "duration": 4, "velocity": 82}, {"time": 1796, "pitch": 81, "duration": 4, "velocity": 82}, {"time": 1802, "pitch": 83, "duration": 11, "velocity": 82}, {"time": 1814, "pitch": 84, "duration": 11, "velocity": 85}, {"time": 1826, "pitch": 84, "duration": 4, "velocity": 88}, {"time": 1830, "pitch": 81, "duration": 4, "velocity": 83}, {"time": 1835, "pitch": 84, "duration": 2, "velocity": 82}, {"time": 1838, "pitch": 84, "duration": 5, "velocity": 85}, {"time": 1844, "pitch": 84, "duration": 2, "velocity": 83}, {"time": 1847, "pitch": 81, "duration": 2, "velocity": 83}, {"time": 1850, "pitch": 84, "duration": 5, "velocity": 84}, {"time": 1856, "pitch": 84, "duration": 5, "velocity": 87}, {"time": 1862, "pitch": 88, "duration": 8, "velocity": 86}, {"time": 1871, "pitch": 83, "duration": 2, "velocity": 82}, {"time": 1875, "pitch": 83, "duration": 1, "velocity": 81}, {"time": 1878, "pitch": 83, "duration": 1, "velocity": 82}, {"time": 1881, "pitch": 83, "duration": 1, "velocity": 82}, {"time": 1884, "pitch": 83, "duration": 7, "velocity": 85}, {"time": 1890, "pitch": 81, "duration": 2, "velocity": 80}, {"time": 1893, "pitch": 83, "duration": 2, "velocity": 90}, {"time": 1896, "pitch": 81, "duration": 2, "velocity": 82}, {"time": 1899, "pitch": 83, "duration": 2, "velocity": 88}, {"time": 1902, "pitch": 84, "duration": 6, "velocity": 87}, {"time": 1908, "pitch": 81, "duration": 6, "velocity": 83}, {"time": 1914, "pitch": 84, "duration": 1, "velocity": 98}, {"time": 1917, "pitch": 84, "duration": 2, "velocity": 85}, {"time": 1920, "pitch": 81, "duration": 1, "velocity": 82}, {"time": 1923, "pitch": 84, "duration": 4, "velocity": 95}, {"time": 1928, "pitch": 84, "duration": 3, "velocity": 86}, {"time": 1931, "pitch": 81, "duration": 2, "velocity": 82}, {"time": 1934, "pitch": 84, "duration": 5, "velocity": 97}, {"time": 1940, "pitch": 84, "duration": 2, "velocity": 85}, {"time": 1943, "pitch": 84, "duration": 1, "velocity": 81}, {"time": 1946, "pitch": 88, "duration": 5, "velocity": 95}, {"time": 1952, "pitch": 88, "duration": 4, "velocity": 85}, {"time": 1956, "pitch": 79, "duration": 12, "velocity": 86}, {"time": 1970, "pitch": 83, "duration": 5, "velocity": 86}, {"time": 1976, "pitch": 83, "duration": 5, "velocity": 84}, {"time": 1983, "pitch": 83, "duration": 4, "velocity": 85}, {"time": 1989, "pitch": 83, "duration": 4, "velocity": 87}, {"time": 1994, "pitch": 84, "duration": 14, "velocity": 88}, {"time": 2015, "pitch": 84, "duration": 3, "velocity": 82}, {"time": 2018, "pitch": 84, "duration": 4, "velocity": 88}, {"time": 2022, "pitch": 81, "duration": 4, "velocity": 83}, {"time": 2027, "pitch": 84, "duration": 2, "velocity": 82}, {"time": 2030, "pitch": 84, "duration": 3, "velocity": 85}, {"time": 2036, "pitch": 84, "duration": 2, "velocity": 83}, {"time": 2039, "pitch": 81, "duration": 2, "velocity": 83}, {"time": 2042, "pitch": 84, "duration": 3, "velocity": 84}, {"time": 2045, "pitch": 84, "duration": 3, "velocity": 84}, {"time": 2048, "pitch": 84, "duration": 5, "velocity": 87}, {"time": 2054, "pitch": 88, "duration": 8, "velocity": 86}, {"time": 2063, "pitch": 88, "duration": 2, "velocity": 82}, {"time": 2067, "pitch": 86, "duration": 1, "velocity": 81}, {"time": 2070, "pitch": 86, "duration": 1, "velocity": 82}, {"time": 2073, "pitch": 86, "duration": 1, "velocity": 82}, {"time": 2076, "pitch": 86, "duration": 6, "velocity": 85}, {"time": 2082, "pitch": 86, "duration": 6, "velocity": 87}, {"time": 2088, "pitch": 84, "duration": 3, "velocity": 81}, {"time": 2091, "pitch": 88, "duration": 4, "velocity": 92}, {"time": 2097, "pitch": 88, "duration": 4, "velocity": 82}, {"time": 2103, "pitch": 88, "duration": 4, "velocity": 85}, {"time": 2106, "pitch": 81, "duration": 4, "velocity": 82}, {"time": 2112, "pitch": 81, "duration": 2, "velocity": 86}, {"time": 2115, "pitch": 84, "duration": 2, "velocity": 87}, {"time": 2117, "pitch": 81, "duration": 2, "velocity": 81}, {"time": 2120, "pitch": 84, "duration": 3, "velocity": 87}, {"time": 2123, "pitch": 84, "duration": 2, "velocity": 82}, {"time": 2126, "pitch": 88, "duration": 3, "velocity": 95}, {"time": 2130, "pitch": 88, "duration": 6, "velocity": 85}, {"time": 2138, "pitch": 88, "duration": 6, "velocity": 85}, {"time": 2144, "pitch": 88, "duration": 9, "velocity": 85}, {"time": 2159, "pitch": 88, "duration": 3, "velocity": 82}, {"time": 2162, "pitch": 87, "duration": 2, "velocity": 82}, {"time": 2165, "pitch": 87, "duration": 2, "velocity": 83}, {"time": 2168, "pitch": 87, "duration": 2, "velocity": 83}, {"time": 2171, "pitch": 87, "duration": 1, "velocity": 83}, {"time": 2174, "pitch": 87, "duration": 5, "velocity": 87}, {"time": 2180, "pitch": 91, "duration": 8, "velocity": 87}, {"time": 2192, "pitch": 88, "duration": 2, "velocity": 82}, {"time": 2195, "pitch": 88, "duration": 6, "velocity": 84}, {"time": 2201, "pitch": 79, "duration": 4, "velocity": 80}, {"time": 2205, "pitch": 81, "duration": 6, "velocity": 80}, {"time": 2211, "pitch": 84, "duration": 33, "velocity": 84}, {"time": 2312, "pitch": 72, "duration": 3, "velocity": 74}, {"time": 2316, "pitch": 72, "duration": 2, "velocity": 79}, {"time": 2319, "pitch": 72, "duration": 7, "velocity": 82}, {"time": 2326, "pitch": 74, "duration": 7, "velocity": 86}, {"time": 2333, "pitch": 76, "duration": 7, "velocity": 77}, {"time": 2339, "pitch": 67, "duration": 21, "velocity": 77}, {"time": 2365, "pitch": 72, "duration": 3, "velocity": 77}, {"time": 2368, "pitch": 69, "duration": 4, "velocity": 74}, {"time": 2372, "pitch": 72, "duration": 7, "velocity": 83}, {"time": 2378, "pitch": 74, "duration": 7, "velocity": 83}, {"time": 2385, "pitch": 77, "duration": 5, "velocity": 77}, {"time": 2389, "pitch": 76, "duration": 23, "velocity": 79}, {"time": 2418, "pitch": 72, "duration": 3, "velocity": 80}, {"time": 2422, "pitch": 72, "duration": 2, "velocity": 81}, {"time": 2426, "pitch": 72, "duration": 6, "velocity": 81}, {"time": 2432, "pitch": 79, "duration": 5, "velocity": 78}, {"time": 2439, "pitch": 79, "duration": 6, "velocity": 77}, {"time": 2445, "pitch": 67, "duration": 11, "velocity": 79}, {"time": 2462, "pitch": 76, "duration": 4, "velocity": 84}, {"time": 2467, "pitch": 79, "duration": 3, "velocity": 77}, {"time": 2471, "pitch": 79, "duration": 5, "velocity": 75}, {"time": 2477, "pitch": 67, "duration": 7, "velocity": 73}, {"time": 2485, "pitch": 71, "duration": 5, "velocity": 78}, {"time": 2489, "pitch": 72, "duration": 3, "velocity": 77}, {"time": 2493, "pitch": 72, "duration": 23, "velocity": 79}]}, {"program": 0, "is_drum": false, "name": "BRIDGE", "notes": [{"time": 674, "pitch": 67, "duration": 38, "velocity": 69}, {"time": 674, "pitch": 72, "duration": 38, "velocity": 70}, {"time": 710, "pitch": 71, "duration": 12, "velocity": 76}, {"time": 722, "pitch": 69, "duration": 25, "velocity": 74}, {"time": 722, "pitch": 72, "duration": 25, "velocity": 76}, {"time": 758, "pitch": 71, "duration": 12, "velocity": 81}, {"time": 770, "pitch": 69, "duration": 41, "velocity": 78}, {"time": 818, "pitch": 67, "duration": 19, "velocity": 67}, {"time": 818, "pitch": 71, "duration": 19, "velocity": 74}, {"time": 836, "pitch": 72, "duration": 7, "velocity": 74}, {"time": 842, "pitch": 71, "duration": 20, "velocity": 75}, {"time": 866, "pitch": 76, "duration": 25, "velocity": 81}, {"time": 890, "pitch": 74, "duration": 12, "velocity": 82}, {"time": 902, "pitch": 72, "duration": 7, "velocity": 77}, {"time": 908, "pitch": 71, "duration": 7, "velocity": 71}, {"time": 914, "pitch": 69, "duration": 22, "velocity": 71}, {"time": 914, "pitch": 72, "duration": 25, "velocity": 75}, {"time": 938, "pitch": 71, "duration": 18, "velocity": 77}, {"time": 956, "pitch": 67, "duration": 7, "velocity": 78}, {"time": 962, "pitch": 69, "duration": 28, "velocity": 82}, {"time": 998, "pitch": 69, "duration": 13, "velocity": 81}, {"time": 1010, "pitch": 72, "duration": 13, "velocity": 78}, {"time": 1022, "pitch": 69, "duration": 10, "velocity": 79}, {"time": 1034, "pitch": 71, "duration": 11, "velocity": 85}, {"time": 1046, "pitch": 71, "duration": 7, "velocity": 92}, {"time": 1052, "pitch": 74, "duration": 6, "velocity": 83}, {"time": 1058, "pitch": 79, "duration": 23, "velocity": 79}, {"time": 1082, "pitch": 72, "duration": 21, "velocity": 70}, {"time": 1082, "pitch": 76, "duration": 22, "velocity": 75}, {"time": 1106, "pitch": 74, "duration": 24, "velocity": 76}, {"time": 1130, "pitch": 71, "duration": 22, "velocity": 77}, {"time": 1154, "pitch": 69, "duration": 22, "velocity": 71}, {"time": 1154, "pitch": 72, "duration": 24, "velocity": 76}, {"time": 1178, "pitch": 76, "duration": 13, "velocity": 82}, {"time": 1190, "pitch": 72, "duration": 11, "velocity": 79}, {"time": 1202, "pitch": 71, "duration": 19, "velocity": 79}, {"time": 1220, "pitch": 72, "duration": 7, "velocity": 76}, {"time": 1226, "pitch": 74, "duration": 23, "velocity": 82}, {"time": 1250, "pitch": 76, "duration": 30, "velocity": 77}, {"time": 1280, "pitch": 74, "duration": 6, "velocity": 82}, {"time": 1286, "pitch": 72, "duration": 10, "velocity": 82}, {"time": 1298, "pitch": 74, "duration": 13, "velocity": 81}, {"time": 1310, "pitch": 71, "duration": 12, "velocity": 76}, {"time": 1322, "pitch": 67, "duration": 22, "velocity": 77}, {"time": 1346, "pitch": 72, "duration": 13, "velocity": 81}, {"time": 1358, "pitch": 69, "duration": 14, "velocity": 77}, {"time": 1370, "pitch": 72, "duration": 20, "velocity": 77}, {"time": 1394, "pitch": 68, "duration": 24, "velocity": 68}, {"time": 1394, "pitch": 72, "duration": 25, "velocity": 72}, {"time": 1442, "pitch": 88, "duration": 6, "velocity": 81}, {"time": 1445, "pitch": 79, "duration": 4, "velocity": 79}, {"time": 1448, "pitch": 81, "duration": 4, "velocity": 78}, {"time": 1451, "pitch": 88, "duration": 5, "velocity": 86}, {"time": 1454, "pitch": 79, "duration": 4, "velocity": 76}, {"time": 1457, "pitch": 81, "duration": 5, "velocity": 77}, {"time": 1460, "pitch": 88, "duration": 5, "velocity": 84}, {"time": 1463, "pitch": 79, "duration": 4, "velocity": 76}, {"time": 1466, "pitch": 81, "duration": 4, "velocity": 72}, {"time": 1469, "pitch": 88, "duration": 5, "velocity": 83}, {"time": 1472, "pitch": 79, "duration": 4, "velocity": 75}, {"time": 1475, "pitch": 81, "duration": 5, "velocity": 77}, {"time": 1478, "pitch": 88, "duration": 4, "velocity": 84}, {"time": 1481, "pitch": 81, "duration": 3, "velocity": 76}, {"time": 1484, "pitch": 79, "duration": 3, "velocity": 81}, {"time": 1487, "pitch": 86, "duration": 3, "velocity": 81}, {"time": 1490, "pitch": 88, "duration": 3, "velocity": 82}, {"time": 1493, "pitch": 79, "duration": 4, "velocity": 81}, {"time": 1496, "pitch": 81, "duration": 4, "velocity": 81}, {"time": 1499, "pitch": 88, "duration": 4, "velocity": 85}, {"time": 1502, "pitch": 79, "duration": 4, "velocity": 81}, {"time": 1505, "pitch": 81, "duration": 4, "velocity": 77}, {"time": 1508, "pitch": 88, "duration": 4, "velocity": 82}, {"time": 1511, "pitch": 79, "duration": 4, "velocity": 73}, {"time": 1514, "pitch": 81, "duration": 4, "velocity": 77}, {"time": 1517, "pitch": 88, "duration": 4, "velocity": 84}, {"time": 1520, "pitch": 79, "duration": 4, "velocity": 75}, {"time": 1523, "pitch": 81, "duration": 4, "velocity": 76}, {"time": 1526, "pitch": 88, "duration": 4, "velocity": 84}, {"time": 1529, "pitch": 79, "duration": 4, "velocity": 75}, {"time": 1532, "pitch": 81, "duration": 4, "velocity": 76}, {"time": 1535, "pitch": 88, "duration": 3, "velocity": 88}, {"time": 1538, "pitch": 88, "duration": 4, "velocity": 84}, {"time": 1541, "pitch": 81, "duration": 4, "velocity": 76}, {"time": 1544, "pitch": 79, "duration": 4, "velocity": 77}, {"time": 1547, "pitch": 88, "duration": 4, "velocity": 83}, {"time": 1550, "pitch": 81, "duration": 3, "velocity": 76}, {"time": 1553, "pitch": 79, "duration": 4, "velocity": 81}, {"time": 1556, "pitch": 88, "duration": 4, "velocity": 86}, {"time": 1559, "pitch": 81, "duration": 4, "velocity": 76}, {"time": 1562, "pitch": 79, "duration": 3, "velocity": 82}, {"time": 1565, "pitch": 88, "duration": 4, "velocity": 86}, {"time": 1568, "pitch": 81, "duration": 3, "velocity": 80}, {"time": 1571, "pitch": 79, "duration": 3, "velocity": 83}, {"time": 1574, "pitch": 88, "duration": 4, "velocity": 86}, {"time": 1577, "pitch": 81, "duration": 3, "velocity": 76}, {"time": 1580, "pitch": 79, "duration": 3, "velocity": 83}, {"time": 1583, "pitch": 88, "duration": 2, "velocity": 86}, {"time": 1592, "pitch": 65, "duration": 4, "velocity": 77}, {"time": 1595, "pitch": 60, "duration": 2, "velocity": 78}, {"time": 1598, "pitch": 67, "duration": 3, "velocity": 81}, {"time": 1604, "pitch": 67, "duration": 9, "velocity": 88}, {"time": 1613, "pitch": 67, "duration": 3, "velocity": 82}, {"time": 1616, "pitch": 65, "duration": 3, "velocity": 82}, {"time": 1619, "pitch": 60, "duration": 3, "velocity": 82}, {"time": 1622, "pitch": 62, "duration": 3, "velocity": 82}, {"time": 1625, "pitch": 60, "duration": 3, "velocity": 82}, {"time": 1628, "pitch": 55, "duration": 3, "velocity": 82}, {"time": 1631, "pitch": 57, "duration": 3, "velocity": 82}, {"time": 1634, "pitch": 69, "duration": 24, "velocity": 63}, {"time": 1634, "pitch": 72, "duration": 25, "velocity": 81}, {"time": 1664, "pitch": 69, "duration": 12, "velocity": 76}, {"time": 1670, "pitch": 72, "duration": 13, "velocity": 77}, {"time": 1682, "pitch": 71, "duration": 22, "velocity": 74}, {"time": 1718, "pitch": 72, "duration": 7, "velocity": 77}, {"time": 1724, "pitch": 71, "duration": 8, "velocity": 73}, {"time": 1730, "pitch": 69, "duration": 36, "velocity": 76}, {"time": 1766, "pitch": 72, "duration": 9, "velocity": 83}, {"time": 1778, "pitch": 71, "duration": 7, "velocity": 83}, {"time": 1784, "pitch": 72, "duration": 8, "velocity": 81}, {"time": 1790, "pitch": 74, "duration": 12, "velocity": 81}, {"time": 1802, "pitch": 67, "duration": 12, "velocity": 82}, {"time": 1814, "pitch": 69, "duration": 6, "velocity": 82}, {"time": 1820, "pitch": 71, "duration": 6, "velocity": 81}, {"time": 1826, "pitch": 79, "duration": 23, "velocity": 79}, {"time": 1850, "pitch": 72, "duration": 21, "velocity": 70}, {"time": 1850, "pitch": 76, "duration": 22, "velocity": 75}, {"time": 1874, "pitch": 74, "duration": 24, "velocity": 76}, {"time": 1898, "pitch": 71, "duration": 22, "velocity": 77}, {"time": 1922, "pitch": 69, "duration": 22, "velocity": 71}, {"time": 1922, "pitch": 72, "duration": 24, "velocity": 76}, {"time": 1946, "pitch": 76, "duration": 13, "velocity": 82}, {"time": 1958, "pitch": 72, "duration": 11, "velocity": 79}, {"time": 1970, "pitch": 71, "duration": 19, "velocity": 79}, {"time": 1988, "pitch": 72, "duration": 7, "velocity": 76}, {"time": 1994, "pitch": 74, "duration": 23, "velocity": 82}, {"time": 2018, "pitch": 76, "duration": 30, "velocity": 77}, {"time": 2048, "pitch": 74, "duration": 6, "velocity": 82}, {"time": 2054, "pitch": 72, "duration": 10, "velocity": 82}, {"time": 2066, "pitch": 74, "duration": 13, "velocity": 81}, {"time": 2078, "pitch": 71, "duration": 12, "velocity": 76}, {"time": 2090, "pitch": 67, "duration": 22, "velocity": 77}, {"time": 2114, "pitch": 72, "duration": 13, "velocity": 81}, {"time": 2126, "pitch": 69, "duration": 14, "velocity": 77}, {"time": 2138, "pitch": 72, "duration": 20, "velocity": 77}, {"time": 2162, "pitch": 68, "duration": 24, "velocity": 68}, {"time": 2162, "pitch": 72, "duration": 25, "velocity": 72}]}, {"program": 0, "is_drum": false, "name": "PIANO", "notes": [{"time": 98, "pitch": 48, "duration": 48, "velocity": 82}, {"time": 98, "pitch": 55, "duration": 3, "velocity": 75}, {"time": 98, "pitch": 62, "duration": 9, "velocity": 72}, {"time": 98, "pitch": 67, "duration": 7, "velocity": 71}, {"time": 104, "pitch": 55, "duration": 4, "velocity": 71}, {"time": 110, "pitch": 55, "duration": 3, "velocity": 79}, {"time": 110, "pitch": 62, "duration": 10, "velocity": 75}, {"time": 110, "pitch": 67, "duration": 7, "velocity": 77}, {"time": 116, "pitch": 55, "duration": 4, "velocity": 68}, {"time": 122, "pitch": 55, "duration": 3, "velocity": 79}, {"time": 122, "pitch": 60, "duration": 9, "velocity": 77}, {"time": 128, "pitch": 55, "duration": 5, "velocity": 69}, {"time": 134, "pitch": 55, "duration": 1, "velocity": 53}, {"time": 134, "pitch": 60, "duration": 8, "velocity": 77}, {"time": 134, "pitch": 67, "duration": 21, "velocity": 76}, {"time": 140, "pitch": 55, "duration": 5, "velocity": 76}, {"time": 146, "pitch": 48, "duration": 24, "velocity": 82}, {"time": 146, "pitch": 55, "duration": 3, "velocity": 75}, {"time": 146, "pitch": 59, "duration": 9, "velocity": 77}, {"time": 152, "pitch": 55, "duration": 4, "velocity": 69}, {"time": 158, "pitch": 59, "duration": 9, "velocity": 77}, {"time": 158, "pitch": 67, "duration": 21, "velocity": 77}, {"time": 164, "pitch": 55, "duration": 5, "velocity": 68}, {"time": 170, "pitch": 48, "duration": 23, "velocity": 82}, {"time": 170, "pitch": 60, "duration": 9, "velocity": 77}, {"time": 176, "pitch": 55, "duration": 6, "velocity": 77}, {"time": 182, "pitch": 55, "duration": 3, "velocity": 82}, {"time": 182, "pitch": 60, "duration": 11, "velocity": 84}, {"time": 182, "pitch": 67, "duration": 11, "velocity": 81}, {"time": 188, "pitch": 55, "duration": 5, "velocity": 82}, {"time": 194, "pitch": 41, "duration": 46, "velocity": 82}, {"time": 194, "pitch": 55, "duration": 5, "velocity": 79}, {"time": 194, "pitch": 60, "duration": 1, "velocity": 70}, {"time": 194, "pitch": 62, "duration": 9, "velocity": 79}, {"time": 194, "pitch": 67, "duration": 9, "velocity": 76}, {"time": 200, "pitch": 48, "duration": 40, "velocity": 73}, {"time": 200, "pitch": 55, "duration": 7, "velocity": 66}, {"time": 206, "pitch": 60, "duration": 7, "velocity": 75}, {"time": 206, "pitch": 62, "duration": 7, "velocity": 80}, {"time": 206, "pitch": 67, "duration": 9, "velocity": 77}, {"time": 212, "pitch": 55, "duration": 4, "velocity": 75}, {"time": 218, "pitch": 55, "duration": 3, "velocity": 77}, {"time": 218, "pitch": 60, "duration": 8, "velocity": 78}, {"time": 218, "pitch": 67, "duration": 7, "velocity": 73}, {"time": 224, "pitch": 55, "duration": 4, "velocity": 70}, {"time": 230, "pitch": 55, "duration": 3, "velocity": 82}, {"time": 230, "pitch": 60, "duration": 7, "velocity": 82}, {"time": 230, "pitch": 67, "duration": 22, "velocity": 80}, {"time": 236, "pitch": 55, "duration": 4, "velocity": 81}, {"time": 242, "pitch": 43, "duration": 24, "velocity": 81}, {"time": 242, "pitch": 55, "duration": 3, "velocity": 76}, {"time": 242, "pitch": 59, "duration": 10, "velocity": 76}, {"time": 248, "pitch": 55, "duration": 4, "velocity": 69}, {"time": 254, "pitch": 55, "duration": 3, "velocity": 73}, {"time": 254, "pitch": 59, "duration": 9, "velocity": 76}, {"time": 254, "pitch": 67, "duration": 12, "velocity": 69}, {"time": 260, "pitch": 55, "duration": 5, "velocity": 75}, {"time": 266, "pitch": 43, "duration": 24, "velocity": 81}, {"time": 266, "pitch": 60, "duration": 12, "velocity": 73}, {"time": 266, "pitch": 64, "duration": 12, "velocity": 69}, {"time": 266, "pitch": 67, "duration": 10, "velocity": 54}, {"time": 272, "pitch": 55, "duration": 4, "velocity": 72}, {"time": 278, "pitch": 55, "duration": 3, "velocity": 82}, {"time": 278, "pitch": 60, "duration": 11, "velocity": 81}, {"time": 278, "pitch": 67, "duration": 11, "velocity": 67}, {"time": 284, "pitch": 55, "duration": 5, "velocity": 80}, {"time": 290, "pitch": 48, "duration": 42, "velocity": 85}, {"time": 290, "pitch": 55, "duration": 3, "velocity": 78}, {"time": 290, "pitch": 62, "duration": 9, "velocity": 78}, {"time": 296, "pitch": 55, "duration": 3, "velocity": 71}, {"time": 302, "pitch": 55, "duration": 2, "velocity": 82}, {"time": 302, "pitch": 62, "duration": 8, "velocity": 81}, {"time": 308, "pitch": 55, "duration": 5, "velocity": 77}, {"time": 314, "pitch": 55, "duration": 3, "velocity": 83}, {"time": 314, "pitch": 60, "duration": 8, "velocity": 80}, {"time": 320, "pitch": 55, "duration": 8, "velocity": 71}, {"time": 326, "pitch": 60, "duration": 7, "velocity": 83}, {"time": 332, "pitch": 55, "duration": 2, "velocity": 81}, {"time": 338, "pitch": 45, "duration": 34, "velocity": 83}, {"time": 338, "pitch": 57, "duration": 10, "velocity": 76}, {"time": 338, "pitch": 60, "duration": 10, "velocity": 81}, {"time": 344, "pitch": 52, "duration": 9, "velocity": 67}, {"time": 350, "pitch": 57, "duration": 9, "velocity": 81}, {"time": 350, "pitch": 60, "duration": 7, "velocity": 82}, {"time": 356, "pitch": 52, "duration": 9, "velocity": 56}, {"time": 362, "pitch": 57, "duration": 3, "velocity": 74}, {"time": 362, "pitch": 60, "duration": 10, "velocity": 75}, {"time": 368, "pitch": 57, "duration": 4, "velocity": 77}, {"time": 374, "pitch": 43, "duration": 8, "velocity": 81}, {"time": 374, "pitch": 55, "duration": 3, "velocity": 81}, {"time": 374, "pitch": 59, "duration": 7, "velocity": 80}, {"time": 380, "pitch": 55, "duration": 2, "velocity": 78}, {"time": 386, "pitch": 41, "duration": 44, "velocity": 82}, {"time": 386, "pitch": 53, "duration": 8, "velocity": 75}, {"time": 386, "pitch": 60, "duration": 6, "velocity": 76}, {"time": 392, "pitch": 48, "duration": 39, "velocity": 69}, {"time": 398, "pitch": 57, "duration": 4, "velocity": 81}, {"time": 398, "pitch": 60, "duration": 6, "velocity": 81}, {"time": 404, "pitch": 53, "duration": 7, "velocity": 74}, {"time": 410, "pitch": 57, "duration": 8, "velocity": 75}, {"time": 410, "pitch": 62, "duration": 8, "velocity": 76}, {"time": 416, "pitch": 53, "duration": 7, "velocity": 80}, {"time": 422, "pitch": 57, "duration": 7, "velocity": 80}, {"time": 422, "pitch": 60, "duration": 7, "velocity": 84}, {"time": 428, "pitch": 53, "duration": 3, "velocity": 82}, {"time": 434, "pitch": 43, "duration": 22, "velocity": 82}, {"time": 434, "pitch": 55, "duration": 8, "velocity": 76}, {"time": 434, "pitch": 60, "duration": 9, "velocity": 80}, {"time": 440, "pitch": 50, "duration": 9, "velocity": 72}, {"time": 446, "pitch": 55, "duration": 10, "velocity": 81}, {"time": 446, "pitch": 60, "duration": 12, "velocity": 82}, {"time": 452, "pitch": 50, "duration": 5, "velocity": 79}, {"time": 458, "pitch": 43, "duration": 19, "velocity": 81}, {"time": 458, "pitch": 55, "duration": 9, "velocity": 76}, {"time": 458, "pitch": 59, "duration": 7, "velocity": 76}, {"time": 464, "pitch": 50, "duration": 12, "velocity": 71}, {"time": 470, "pitch": 59, "duration": 7, "velocity": 78}, {"time": 470, "pitch": 62, "duration": 8, "velocity": 77}, {"time": 476, "pitch": 55, "duration": 7, "velocity": 84}, {"time": 482, "pitch": 48, "duration": 22, "velocity": 83}, {"time": 482, "pitch": 55, "duration": 1, "velocity": 70}, {"time": 482, "pitch": 60, "duration": 7, "velocity": 83}, {"time": 482, "pitch": 62, "duration": 8, "velocity": 82}, {"time": 488, "pitch": 55, "duration": 4, "velocity": 72}, {"time": 494, "pitch": 55, "duration": 3, "velocity": 85}, {"time": 494, "pitch": 62, "duration": 8, "velocity": 85}, {"time": 500, "pitch": 55, "duration": 5, "velocity": 82}, {"time": 506, "pitch": 43, "duration": 16, "velocity": 81}, {"time": 506, "pitch": 59, "duration": 8, "velocity": 77}, {"time": 506, "pitch": 62, "duration": 8, "velocity": 81}, {"time": 512, "pitch": 55, "duration": 3, "velocity": 76}, {"time": 518, "pitch": 55, "duration": 3, "velocity": 83}, {"time": 518, "pitch": 59, "duration": 5, "velocity": 84}, {"time": 518, "pitch": 62, "duration": 7, "velocity": 82}, {"time": 524, "pitch": 43, "duration": 4, "velocity": 83}, {"time": 530, "pitch": 45, "duration": 21, "velocity": 83}, {"time": 530, "pitch": 57, "duration": 6, "velocity": 76}, {"time": 530, "pitch": 60, "duration": 7, "velocity": 80}, {"time": 536, "pitch": 52, "duration": 17, "velocity": 75}, {"time": 542, "pitch": 57, "duration": 3, "velocity": 79}, {"time": 542, "pitch": 60, "duration": 6, "velocity": 83}, {"time": 542, "pitch": 64, "duration": 12, "velocity": 84}, {"time": 548, "pitch": 57, "duration": 5, "velocity": 81}, {"time": 554, "pitch": 43, "duration": 16, "velocity": 81}, {"time": 554, "pitch": 55, "duration": 7, "velocity": 77}, {"time": 554, "pitch": 59, "duration": 7, "velocity": 72}, {"time": 554, "pitch": 62, "duration": 6, "velocity": 79}, {"time": 560, "pitch": 50, "duration": 9, "velocity": 66}, {"time": 566, "pitch": 55, "duration": 7, "velocity": 83}, {"time": 566, "pitch": 59, "duration": 7, "velocity": 86}, {"time": 566, "pitch": 62, "duration": 12, "velocity": 85}, {"time": 572, "pitch": 43, "duration": 5, "velocity": 86}, {"time": 578, "pitch": 41, "duration": 23, "velocity": 83}, {"time": 578, "pitch": 53, "duration": 7, "velocity": 74}, {"time": 578, "pitch": 57, "duration": 6, "velocity": 75}, {"time": 578, "pitch": 60, "duration": 6, "velocity": 77}, {"time": 584, "pitch": 48, "duration": 17, "velocity": 65}, {"time": 590, "pitch": 53, "duration": 1, "velocity": 62}, {"time": 590, "pitch": 57, "duration": 4, "velocity": 82}, {"time": 590, "pitch": 60, "duration": 7, "velocity": 84}, {"time": 596, "pitch": 53, "duration": 14, "velocity": 83}, {"time": 602, "pitch": 41, "duration": 16, "velocity": 77}, {"time": 602, "pitch": 57, "duration": 7, "velocity": 70}, {"time": 602, "pitch": 60, "duration": 8, "velocity": 73}, {"time": 608, "pitch": 48, "duration": 10, "velocity": 61}, {"time": 614, "pitch": 53, "duration": 3, "velocity": 82}, {"time": 614, "pitch": 57, "duration": 4, "velocity": 83}, {"time": 614, "pitch": 60, "duration": 6, "velocity": 83}, {"time": 620, "pitch": 41, "duration": 3, "velocity": 83}, {"time": 626, "pitch": 48, "duration": 48, "velocity": 83}, {"time": 626, "pitch": 55, "duration": 4, "velocity": 75}, {"time": 626, "pitch": 62, "duration": 10, "velocity": 80}, {"time": 632, "pitch": 55, "duration": 4, "velocity": 83}, {"time": 638, "pitch": 55, "duration": 2, "velocity": 82}, {"time": 638, "pitch": 60, "duration": 6, "velocity": 83}, {"time": 644, "pitch": 55, "duration": 4, "velocity": 82}, {"time": 650, "pitch": 55, "duration": 3, "velocity": 77}, {"time": 650, "pitch": 59, "duration": 8, "velocity": 76}, {"time": 656, "pitch": 55, "duration": 7, "velocity": 73}, {"time": 662, "pitch": 60, "duration": 12, "velocity": 88}, {"time": 668, "pitch": 55, "duration": 6, "velocity": 84}, {"time": 674, "pitch": 48, "duration": 42, "velocity": 85}, {"time": 674, "pitch": 55, "duration": 3, "velocity": 78}, {"time": 674, "pitch": 62, "duration": 9, "velocity": 78}, {"time": 680, "pitch": 55, "duration": 3, "velocity": 71}, {"time": 686, "pitch": 55, "duration": 2, "velocity": 82}, {"time": 686, "pitch": 62, "duration": 8, "velocity": 81}, {"time": 692, "pitch": 55, "duration": 5, "velocity": 77}, {"time": 698, "pitch": 55, "duration": 3, "velocity": 83}, {"time": 698, "pitch": 60, "duration": 8, "velocity": 80}, {"time": 704, "pitch": 55, "duration": 8, "velocity": 71}, {"time": 710, "pitch": 60, "duration": 7, "velocity": 83}, {"time": 716, "pitch": 55, "duration": 2, "velocity": 81}, {"time": 722, "pitch": 45, "duration": 34, "velocity": 83}, {"time": 722, "pitch": 57, "duration": 10, "velocity": 76}, {"time": 722, "pitch": 60, "duration": 10, "velocity": 81}, {"time": 728, "pitch": 52, "duration": 9, "velocity": 67}, {"time": 734, "pitch": 57, "duration": 9, "velocity": 81}, {"time": 734, "pitch": 60, "duration": 7, "velocity": 82}, {"time": 740, "pitch": 52, "duration": 9, "velocity": 56}, {"time": 746, "pitch": 57, "duration": 3, "velocity": 74}, {"time": 746, "pitch": 60, "duration": 10, "velocity": 75}, {"time": 752, "pitch": 57, "duration": 4, "velocity": 77}, {"time": 758, "pitch": 43, "duration": 8, "velocity": 81}, {"time": 758, "pitch": 55, "duration": 3, "velocity": 81}, {"time": 758, "pitch": 59, "duration": 7, "velocity": 80}, {"time": 764, "pitch": 55, "duration": 2, "velocity": 78}, {"time": 770, "pitch": 41, "duration": 44, "velocity": 82}, {"time": 770, "pitch": 53, "duration": 8, "velocity": 75}, {"time": 770, "pitch": 60, "duration": 6, "velocity": 76}, {"time": 776, "pitch": 48, "duration": 39, "velocity": 69}, {"time": 782, "pitch": 57, "duration": 4, "velocity": 81}, {"time": 782, "pitch": 60, "duration": 6, "velocity": 81}, {"time": 788, "pitch": 53, "duration": 7, "velocity": 74}, {"time": 794, "pitch": 57, "duration": 8, "velocity": 75}, {"time": 794, "pitch": 62, "duration": 8, "velocity": 76}, {"time": 800, "pitch": 53, "duration": 7, "velocity": 80}, {"time": 806, "pitch": 57, "duration": 7, "velocity": 80}, {"time": 806, "pitch": 60, "duration": 7, "velocity": 84}, {"time": 812, "pitch": 53, "duration": 3, "velocity": 82}, {"time": 818, "pitch": 43, "duration": 22, "velocity": 82}, {"time": 818, "pitch": 55, "duration": 8, "velocity": 76}, {"time": 818, "pitch": 60, "duration": 9, "velocity": 80}, {"time": 824, "pitch": 50, "duration": 9, "velocity": 72}, {"time": 830, "pitch": 55, "duration": 10, "velocity": 81}, {"time": 830, "pitch": 60, "duration": 12, "velocity": 82}, {"time": 836, "pitch": 50, "duration": 5, "velocity": 79}, {"time": 842, "pitch": 43, "duration": 19, "velocity": 81}, {"time": 842, "pitch": 55, "duration": 9, "velocity": 76}, {"time": 842, "pitch": 59, "duration": 7, "velocity": 76}, {"time": 848, "pitch": 50, "duration": 12, "velocity": 71}, {"time": 854, "pitch": 59, "duration": 7, "velocity": 78}, {"time": 854, "pitch": 62, "duration": 8, "velocity": 77}, {"time": 860, "pitch": 55, "duration": 7, "velocity": 84}, {"time": 866, "pitch": 48, "duration": 22, "velocity": 83}, {"time": 866, "pitch": 55, "duration": 1, "velocity": 70}, {"time": 866, "pitch": 60, "duration": 7, "velocity": 83}, {"time": 866, "pitch": 62, "duration": 8, "velocity": 82}, {"time": 872, "pitch": 55, "duration": 4, "velocity": 72}, {"time": 878, "pitch": 55, "duration": 3, "velocity": 85}, {"time": 878, "pitch": 62, "duration": 8, "velocity": 85}, {"time": 884, "pitch": 55, "duration": 5, "velocity": 82}, {"time": 890, "pitch": 43, "duration": 16, "velocity": 81}, {"time": 890, "pitch": 59, "duration": 8, "velocity": 77}, {"time": 890, "pitch": 62, "duration": 8, "velocity": 81}, {"time": 896, "pitch": 55, "duration": 3, "velocity": 76}, {"time": 902, "pitch": 55, "duration": 3, "velocity": 83}, {"time": 902, "pitch": 59, "duration": 5, "velocity": 84}, {"time": 902, "pitch": 62, "duration": 7, "velocity": 82}, {"time": 908, "pitch": 43, "duration": 4, "velocity": 83}, {"time": 914, "pitch": 45, "duration": 21, "velocity": 83}, {"time": 914, "pitch": 57, "duration": 6, "velocity": 76}, {"time": 914, "pitch": 60, "duration": 7, "velocity": 80}, {"time": 920, "pitch": 52, "duration": 17, "velocity": 75}, {"time": 926, "pitch": 57, "duration": 3, "velocity": 79}, {"time": 926, "pitch": 60, "duration": 6, "velocity": 83}, {"time": 926, "pitch": 64, "duration": 12, "velocity": 84}, {"time": 932, "pitch": 57, "duration": 5, "velocity": 81}, {"time": 938, "pitch": 43, "duration": 16, "velocity": 81}, {"time": 938, "pitch": 55, "duration": 7, "velocity": 77}, {"time": 938, "pitch": 59, "duration": 7, "velocity": 72}, {"time": 938, "pitch": 62, "duration": 6, "velocity": 79}, {"time": 944, "pitch": 50, "duration": 9, "velocity": 66}, {"time": 950, "pitch": 55, "duration": 7, "velocity": 83}, {"time": 950, "pitch": 59, "duration": 7, "velocity": 86}, {"time": 950, "pitch": 62, "duration": 12, "velocity": 85}, {"time": 956, "pitch": 43, "duration": 5, "velocity": 86}, {"time": 962, "pitch": 41, "duration": 23, "velocity": 83}, {"time": 962, "pitch": 53, "duration": 7, "velocity": 74}, {"time": 962, "pitch": 57, "duration": 6, "velocity": 75}, {"time": 962, "pitch": 60, "duration": 6, "velocity": 77}, {"time": 968, "pitch": 48, "duration": 17, "velocity": 65}, {"time": 974, "pitch": 53, "duration": 1, "velocity": 62}, {"time": 974, "pitch": 57, "duration": 4, "velocity": 82}, {"time": 974, "pitch": 60, "duration": 7, "velocity": 84}, {"time": 980, "pitch": 53, "duration": 14, "velocity": 83}, {"time": 986, "pitch": 41, "duration": 16, "velocity": 77}, {"time": 986, "pitch": 57, "duration": 7, "velocity": 70}, {"time": 986, "pitch": 60, "duration": 8, "velocity": 73}, {"time": 992, "pitch": 48, "duration": 10, "velocity": 61}, {"time": 998, "pitch": 53, "duration": 3, "velocity": 82}, {"time": 998, "pitch": 57, "duration": 4, "velocity": 83}, {"time": 998, "pitch": 60, "duration": 6, "velocity": 83}, {"time": 1004, "pitch": 41, "duration": 3, "velocity": 83}, {"time": 1010, "pitch": 41, "duration": 15, "velocity": 78}, {"time": 1010, "pitch": 53, "duration": 9, "velocity": 78}, {"time": 1010, "pitch": 60, "duration": 8, "velocity": 77}, {"time": 1016, "pitch": 48, "duration": 9, "velocity": 77}, {"time": 1022, "pitch": 53, "duration": 4, "velocity": 82}, {"time": 1022, "pitch": 57, "duration": 4, "velocity": 82}, {"time": 1022, "pitch": 60, "duration": 5, "velocity": 83}, {"time": 1028, "pitch": 41, "duration": 4, "velocity": 84}, {"time": 1034, "pitch": 43, "duration": 24, "velocity": 86}, {"time": 1034, "pitch": 55, "duration": 3, "velocity": 81}, {"time": 1034, "pitch": 59, "duration": 4, "velocity": 81}, {"time": 1040, "pitch": 55, "duration": 7, "velocity": 88}, {"time": 1046, "pitch": 59, "duration": 11, "velocity": 85}, {"time": 1046, "pitch": 62, "duration": 12, "velocity": 86}, {"time": 1052, "pitch": 50, "duration": 6, "velocity": 81}, {"time": 1058, "pitch": 48, "duration": 21, "velocity": 90}, {"time": 1058, "pitch": 55, "duration": 3, "velocity": 81}, {"time": 1058, "pitch": 64, "duration": 9, "velocity": 82}, {"time": 1064, "pitch": 55, "duration": 4, "velocity": 76}, {"time": 1070, "pitch": 55, "duration": 3, "velocity": 82}, {"time": 1070, "pitch": 60, "duration": 5, "velocity": 85}, {"time": 1076, "pitch": 55, "duration": 8, "velocity": 82}, {"time": 1082, "pitch": 48, "duration": 15, "velocity": 80}, {"time": 1082, "pitch": 60, "duration": 7, "velocity": 83}, {"time": 1082, "pitch": 64, "duration": 8, "velocity": 82}, {"time": 1088, "pitch": 55, "duration": 5, "velocity": 76}, {"time": 1094, "pitch": 55, "duration": 2, "velocity": 82}, {"time": 1094, "pitch": 60, "duration": 6, "velocity": 95}, {"time": 1094, "pitch": 64, "duration": 10, "velocity": 85}, {"time": 1100, "pitch": 38, "duration": 6, "velocity": 82}, {"time": 1100, "pitch": 55, "duration": 4, "velocity": 81}, {"time": 1106, "pitch": 40, "duration": 22, "velocity": 86}, {"time": 1106, "pitch": 55, "duration": 8, "velocity": 80}, {"time": 1106, "pitch": 59, "duration": 7, "velocity": 80}, {"time": 1112, "pitch": 47, "duration": 16, "velocity": 68}, {"time": 1118, "pitch": 55, "duration": 2, "velocity": 73}, {"time": 1118, "pitch": 59, "duration": 7, "velocity": 82}, {"time": 1118, "pitch": 64, "duration": 10, "velocity": 83}, {"time": 1124, "pitch": 55, "duration": 8, "velocity": 78}, {"time": 1130, "pitch": 40, "duration": 16, "velocity": 82}, {"time": 1130, "pitch": 59, "duration": 6, "velocity": 78}, {"time": 1130, "pitch": 62, "duration": 7, "velocity": 77}, {"time": 1136, "pitch": 47, "duration": 8, "velocity": 65}, {"time": 1142, "pitch": 55, "duration": 5, "velocity": 83}, {"time": 1142, "pitch": 59, "duration": 5, "velocity": 86}, {"time": 1148, "pitch": 40, "duration": 6, "velocity": 86}, {"time": 1154, "pitch": 45, "duration": 16, "velocity": 82}, {"time": 1154, "pitch": 57, "duration": 8, "velocity": 75}, {"time": 1154, "pitch": 60, "duration": 8, "velocity": 79}, {"time": 1160, "pitch": 52, "duration": 8, "velocity": 76}, {"time": 1166, "pitch": 57, "duration": 10, "velocity": 81}, {"time": 1166, "pitch": 60, "duration": 7, "velocity": 86}, {"time": 1166, "pitch": 64, "duration": 10, "velocity": 86}, {"time": 1172, "pitch": 52, "duration": 6, "velocity": 79}, {"time": 1178, "pitch": 45, "duration": 18, "velocity": 82}, {"time": 1178, "pitch": 57, "duration": 9, "velocity": 76}, {"time": 1178, "pitch": 60, "duration": 8, "velocity": 79}, {"time": 1184, "pitch": 52, "duration": 17, "velocity": 70}, {"time": 1190, "pitch": 57, "duration": 3, "velocity": 81}, {"time": 1190, "pitch": 60, "duration": 7, "velocity": 88}, {"time": 1190, "pitch": 64, "duration": 8, "velocity": 83}, {"time": 1196, "pitch": 45, "duration": 6, "velocity": 82}, {"time": 1196, "pitch": 57, "duration": 4, "velocity": 83}, {"time": 1202, "pitch": 43, "duration": 22, "velocity": 81}, {"time": 1202, "pitch": 55, "duration": 9, "velocity": 82}, {"time": 1202, "pitch": 59, "duration": 8, "velocity": 80}, {"time": 1208, "pitch": 50, "duration": 9, "velocity": 70}, {"time": 1214, "pitch": 55, "duration": 10, "velocity": 82}, {"time": 1214, "pitch": 62, "duration": 5, "velocity": 83}, {"time": 1220, "pitch": 50, "duration": 6, "velocity": 75}, {"time": 1226, "pitch": 43, "duration": 15, "velocity": 82}, {"time": 1226, "pitch": 55, "duration": 6, "velocity": 83}, {"time": 1226, "pitch": 67, "duration": 5, "velocity": 81}, {"time": 1232, "pitch": 50, "duration": 9, "velocity": 79}, {"time": 1238, "pitch": 59, "duration": 5, "velocity": 86}, {"time": 1238, "pitch": 62, "duration": 5, "velocity": 82}, {"time": 1244, "pitch": 43, "duration": 5, "velocity": 82}, {"time": 1250, "pitch": 48, "duration": 21, "velocity": 90}, {"time": 1250, "pitch": 55, "duration": 3, "velocity": 81}, {"time": 1250, "pitch": 64, "duration": 9, "velocity": 82}, {"time": 1256, "pitch": 55, "duration": 4, "velocity": 76}, {"time": 1262, "pitch": 55, "duration": 3, "velocity": 82}, {"time": 1262, "pitch": 60, "duration": 5, "velocity": 85}, {"time": 1268, "pitch": 55, "duration": 8, "velocity": 82}, {"time": 1274, "pitch": 48, "duration": 15, "velocity": 80}, {"time": 1274, "pitch": 60, "duration": 7, "velocity": 83}, {"time": 1274, "pitch": 64, "duration": 8, "velocity": 82}, {"time": 1280, "pitch": 55, "duration": 5, "velocity": 76}, {"time": 1286, "pitch": 55, "duration": 2, "velocity": 82}, {"time": 1286, "pitch": 60, "duration": 6, "velocity": 95}, {"time": 1286, "pitch": 64, "duration": 10, "velocity": 85}, {"time": 1292, "pitch": 38, "duration": 6, "velocity": 82}, {"time": 1292, "pitch": 55, "duration": 4, "velocity": 81}, {"time": 1298, "pitch": 40, "duration": 22, "velocity": 86}, {"time": 1298, "pitch": 55, "duration": 8, "velocity": 80}, {"time": 1298, "pitch": 59, "duration": 7, "velocity": 80}, {"time": 1304, "pitch": 47, "duration": 16, "velocity": 68}, {"time": 1310, "pitch": 55, "duration": 2, "velocity": 73}, {"time": 1310, "pitch": 59, "duration": 7, "velocity": 82}, {"time": 1310, "pitch": 64, "duration": 10, "velocity": 83}, {"time": 1316, "pitch": 55, "duration": 8, "velocity": 78}, {"time": 1322, "pitch": 40, "duration": 16, "velocity": 82}, {"time": 1322, "pitch": 59, "duration": 6, "velocity": 78}, {"time": 1322, "pitch": 62, "duration": 7, "velocity": 77}, {"time": 1328, "pitch": 47, "duration": 8, "velocity": 65}, {"time": 1334, "pitch": 55, "duration": 5, "velocity": 83}, {"time": 1334, "pitch": 59, "duration": 5, "velocity": 86}, {"time": 1340, "pitch": 40, "duration": 6, "velocity": 86}, {"time": 1346, "pitch": 41, "duration": 23, "velocity": 83}, {"time": 1346, "pitch": 53, "duration": 13, "velocity": 76}, {"time": 1346, "pitch": 60, "duration": 11, "velocity": 81}, {"time": 1352, "pitch": 48, "duration": 17, "velocity": 74}, {"time": 1358, "pitch": 57, "duration": 4, "velocity": 83}, {"time": 1364, "pitch": 53, "duration": 4, "velocity": 82}, {"time": 1370, "pitch": 41, "duration": 21, "velocity": 81}, {"time": 1370, "pitch": 53, "duration": 19, "velocity": 76}, {"time": 1370, "pitch": 57, "duration": 18, "velocity": 71}, {"time": 1370, "pitch": 60, "duration": 18, "velocity": 77}, {"time": 1394, "pitch": 41, "duration": 39, "velocity": 83}, {"time": 1394, "pitch": 53, "duration": 13, "velocity": 76}, {"time": 1394, "pitch": 60, "duration": 12, "velocity": 81}, {"time": 1400, "pitch": 48, "duration": 33, "velocity": 74}, {"time": 1406, "pitch": 56, "duration": 7, "velocity": 88}, {"time": 1412, "pitch": 60, "duration": 3, "velocity": 82}, {"time": 1418, "pitch": 53, "duration": 5, "velocity": 79}, {"time": 1418, "pitch": 65, "duration": 9, "velocity": 77}, {"time": 1430, "pitch": 56, "duration": 2, "velocity": 81}, {"time": 1430, "pitch": 60, "duration": 3, "velocity": 82}, {"time": 1442, "pitch": 48, "duration": 15, "velocity": 95}, {"time": 1442, "pitch": 55, "duration": 3, "velocity": 82}, {"time": 1442, "pitch": 60, "duration": 7, "velocity": 85}, {"time": 1448, "pitch": 55, "duration": 3, "velocity": 81}, {"time": 1454, "pitch": 55, "duration": 2, "velocity": 86}, {"time": 1454, "pitch": 60, "duration": 3, "velocity": 86}, {"time": 1454, "pitch": 64, "duration": 3, "velocity": 87}, {"time": 1466, "pitch": 48, "duration": 16, "velocity": 84}, {"time": 1466, "pitch": 55, "duration": 4, "velocity": 80}, {"time": 1466, "pitch": 60, "duration": 7, "velocity": 81}, {"time": 1472, "pitch": 55, "duration": 2, "velocity": 69}, {"time": 1478, "pitch": 55, "duration": 2, "velocity": 81}, {"time": 1478, "pitch": 60, "duration": 4, "velocity": 83}, {"time": 1478, "pitch": 64, "duration": 7, "velocity": 84}, {"time": 1484, "pitch": 55, "duration": 2, "velocity": 77}, {"time": 1490, "pitch": 40, "duration": 37, "velocity": 80}, {"time": 1490, "pitch": 59, "duration": 4, "velocity": 79}, {"time": 1490, "pitch": 64, "duration": 7, "velocity": 81}, {"time": 1496, "pitch": 59, "duration": 3, "velocity": 72}, {"time": 1502, "pitch": 59, "duration": 2, "velocity": 83}, {"time": 1502, "pitch": 64, "duration": 3, "velocity": 84}, {"time": 1502, "pitch": 67, "duration": 3, "velocity": 81}, {"time": 1514, "pitch": 59, "duration": 2, "velocity": 73}, {"time": 1514, "pitch": 64, "duration": 4, "velocity": 77}, {"time": 1520, "pitch": 59, "duration": 2, "velocity": 62}, {"time": 1526, "pitch": 59, "duration": 2, "velocity": 81}, {"time": 1526, "pitch": 64, "duration": 4, "velocity": 83}, {"time": 1526, "pitch": 67, "duration": 6, "velocity": 79}, {"time": 1532, "pitch": 59, "duration": 2, "velocity": 77}, {"time": 1538, "pitch": 45, "duration": 39, "velocity": 81}, {"time": 1538, "pitch": 57, "duration": 7, "velocity": 73}, {"time": 1538, "pitch": 60, "duration": 6, "velocity": 74}, {"time": 1544, "pitch": 52, "duration": 21, "velocity": 62}, {"time": 1550, "pitch": 57, "duration": 2, "velocity": 77}, {"time": 1550, "pitch": 64, "duration": 2, "velocity": 83}, {"time": 1562, "pitch": 57, "duration": 3, "velocity": 68}, {"time": 1562, "pitch": 60, "duration": 4, "velocity": 69}, {"time": 1568, "pitch": 52, "duration": 8, "velocity": 66}, {"time": 1574, "pitch": 57, "duration": 3, "velocity": 77}, {"time": 1574, "pitch": 60, "duration": 2, "velocity": 82}, {"time": 1574, "pitch": 64, "duration": 2, "velocity": 82}, {"time": 1580, "pitch": 45, "duration": 4, "velocity": 80}, {"time": 1586, "pitch": 43, "duration": 43, "velocity": 82}, {"time": 1586, "pitch": 55, "duration": 6, "velocity": 77}, {"time": 1586, "pitch": 62, "duration": 9, "velocity": 78}, {"time": 1592, "pitch": 50, "duration": 10, "velocity": 77}, {"time": 1595, "pitch": 55, "duration": 5, "velocity": 82}, {"time": 1598, "pitch": 62, "duration": 2, "velocity": 77}, {"time": 1601, "pitch": 55, "duration": 3, "velocity": 86}, {"time": 1601, "pitch": 62, "duration": 3, "velocity": 82}, {"time": 1601, "pitch": 67, "duration": 4, "velocity": 82}, {"time": 1604, "pitch": 50, "duration": 5, "velocity": 81}, {"time": 1607, "pitch": 67, "duration": 4, "velocity": 81}, {"time": 1607, "pitch": 71, "duration": 4, "velocity": 87}, {"time": 1610, "pitch": 50, "duration": 4, "velocity": 82}, {"time": 1613, "pitch": 67, "duration": 2, "velocity": 81}, {"time": 1613, "pitch": 74, "duration": 2, "velocity": 95}, {"time": 1616, "pitch": 50, "duration": 2, "velocity": 71}, {"time": 1619, "pitch": 55, "duration": 2, "velocity": 83}, {"time": 1622, "pitch": 55, "duration": 3, "velocity": 79}, {"time": 1622, "pitch": 62, "duration": 4, "velocity": 81}, {"time": 1625, "pitch": 50, "duration": 4, "velocity": 83}, {"time": 1628, "pitch": 55, "duration": 6, "velocity": 79}, {"time": 1634, "pitch": 41, "duration": 22, "velocity": 82}, {"time": 1634, "pitch": 53, "duration": 7, "velocity": 76}, {"time": 1634, "pitch": 60, "duration": 6, "velocity": 77}, {"time": 1640, "pitch": 48, "duration": 16, "velocity": 65}, {"time": 1643, "pitch": 53, "duration": 3, "velocity": 78}, {"time": 1643, "pitch": 57, "duration": 3, "velocity": 76}, {"time": 1649, "pitch": 53, "duration": 3, "velocity": 83}, {"time": 1649, "pitch": 65, "duration": 3, "velocity": 82}, {"time": 1655, "pitch": 60, "duration": 10, "velocity": 79}, {"time": 1658, "pitch": 41, "duration": 17, "velocity": 82}, {"time": 1661, "pitch": 48, "duration": 8, "velocity": 75}, {"time": 1664, "pitch": 53, "duration": 3, "velocity": 71}, {"time": 1667, "pitch": 53, "duration": 5, "velocity": 76}, {"time": 1667, "pitch": 57, "duration": 5, "velocity": 81}, {"time": 1667, "pitch": 60, "duration": 5, "velocity": 79}, {"time": 1670, "pitch": 48, "duration": 5, "velocity": 81}, {"time": 1673, "pitch": 53, "duration": 2, "velocity": 83}, {"time": 1673, "pitch": 57, "duration": 2, "velocity": 82}, {"time": 1682, "pitch": 40, "duration": 15, "velocity": 83}, {"time": 1682, "pitch": 55, "duration": 3, "velocity": 76}, {"time": 1682, "pitch": 59, "duration": 6, "velocity": 77}, {"time": 1685, "pitch": 47, "duration": 12, "velocity": 75}, {"time": 1688, "pitch": 55, "duration": 2, "velocity": 74}, {"time": 1691, "pitch": 55, "duration": 3, "velocity": 81}, {"time": 1691, "pitch": 64, "duration": 4, "velocity": 83}, {"time": 1697, "pitch": 55, "duration": 2, "velocity": 81}, {"time": 1697, "pitch": 59, "duration": 3, "velocity": 83}, {"time": 1706, "pitch": 45, "duration": 21, "velocity": 82}, {"time": 1706, "pitch": 57, "duration": 3, "velocity": 73}, {"time": 1706, "pitch": 60, "duration": 5, "velocity": 77}, {"time": 1709, "pitch": 52, "duration": 7, "velocity": 78}, {"time": 1712, "pitch": 57, "duration": 2, "velocity": 76}, {"time": 1715, "pitch": 57, "duration": 4, "velocity": 83}, {"time": 1715, "pitch": 64, "duration": 4, "velocity": 86}, {"time": 1718, "pitch": 52, "duration": 8, "velocity": 81}, {"time": 1721, "pitch": 57, "duration": 2, "velocity": 80}, {"time": 1721, "pitch": 60, "duration": 3, "velocity": 85}, {"time": 1724, "pitch": 57, "duration": 3, "velocity": 81}, {"time": 1730, "pitch": 50, "duration": 16, "velocity": 86}, {"time": 1730, "pitch": 57, "duration": 5, "velocity": 75}, {"time": 1730, "pitch": 65, "duration": 8, "velocity": 81}, {"time": 1736, "pitch": 57, "duration": 3, "velocity": 76}, {"time": 1739, "pitch": 62, "duration": 5, "velocity": 82}, {"time": 1745, "pitch": 65, "duration": 7, "velocity": 83}, {"time": 1748, "pitch": 57, "duration": 5, "velocity": 81}, {"time": 1751, "pitch": 62, "duration": 9, "velocity": 74}, {"time": 1754, "pitch": 38, "duration": 14, "velocity": 82}, {"time": 1757, "pitch": 45, "duration": 8, "velocity": 71}, {"time": 1760, "pitch": 57, "duration": 2, "velocity": 80}, {"time": 1763, "pitch": 57, "duration": 4, "velocity": 82}, {"time": 1763, "pitch": 62, "duration": 4, "velocity": 83}, {"time": 1766, "pitch": 45, "duration": 3, "velocity": 72}, {"time": 1769, "pitch": 57, "duration": 2, "velocity": 82}, {"time": 1769, "pitch": 65, "duration": 9, "velocity": 82}, {"time": 1775, "pitch": 57, "duration": 3, "velocity": 77}, {"time": 1778, "pitch": 43, "duration": 22, "velocity": 82}, {"time": 1781, "pitch": 50, "duration": 19, "velocity": 58}, {"time": 1784, "pitch": 55, "duration": 4, "velocity": 84}, {"time": 1787, "pitch": 62, "duration": 6, "velocity": 68}, {"time": 1793, "pitch": 55, "duration": 5, "velocity": 83}, {"time": 1796, "pitch": 62, "duration": 8, "velocity": 82}, {"time": 1799, "pitch": 67, "duration": 10, "velocity": 82}, {"time": 1802, "pitch": 43, "duration": 16, "velocity": 83}, {"time": 1805, "pitch": 50, "duration": 7, "velocity": 82}, {"time": 1808, "pitch": 55, "duration": 2, "velocity": 83}, {"time": 1811, "pitch": 55, "duration": 4, "velocity": 83}, {"time": 1811, "pitch": 59, "duration": 4, "velocity": 88}, {"time": 1811, "pitch": 62, "duration": 4, "velocity": 86}, {"time": 1814, "pitch": 50, "duration": 4, "velocity": 84}, {"time": 1817, "pitch": 55, "duration": 4, "velocity": 87}, {"time": 1817, "pitch": 59, "duration": 7, "velocity": 82}, {"time": 1817, "pitch": 62, "duration": 8, "velocity": 86}, {"time": 1820, "pitch": 50, "duration": 5, "velocity": 83}, {"time": 1823, "pitch": 55, "duration": 3, "velocity": 82}, {"time": 1826, "pitch": 48, "duration": 21, "velocity": 90}, {"time": 1826, "pitch": 55, "duration": 3, "velocity": 81}, {"time": 1826, "pitch": 64, "duration": 9, "velocity": 82}, {"time": 1832, "pitch": 55, "duration": 4, "velocity": 76}, {"time": 1838, "pitch": 55, "duration": 3, "velocity": 82}, {"time": 1838, "pitch": 60, "duration": 5, "velocity": 85}, {"time": 1844, "pitch": 55, "duration": 8, "velocity": 82}, {"time": 1850, "pitch": 48, "duration": 15, "velocity": 80}, {"time": 1850, "pitch": 60, "duration": 7, "velocity": 83}, {"time": 1850, "pitch": 64, "duration": 8, "velocity": 82}, {"time": 1856, "pitch": 55, "duration": 5, "velocity": 76}, {"time": 1862, "pitch": 55, "duration": 2, "velocity": 82}, {"time": 1862, "pitch": 60, "duration": 6, "velocity": 95}, {"time": 1862, "pitch": 64, "duration": 10, "velocity": 85}, {"time": 1868, "pitch": 38, "duration": 6, "velocity": 82}, {"time": 1868, "pitch": 55, "duration": 4, "velocity": 81}, {"time": 1874, "pitch": 40, "duration": 22, "velocity": 86}, {"time": 1874, "pitch": 55, "duration": 8, "velocity": 80}, {"time": 1874, "pitch": 59, "duration": 7, "velocity": 80}, {"time": 1880, "pitch": 47, "duration": 16, "velocity": 68}, {"time": 1886, "pitch": 55, "duration": 2, "velocity": 73}, {"time": 1886, "pitch": 59, "duration": 7, "velocity": 82}, {"time": 1886, "pitch": 64, "duration": 10, "velocity": 83}, {"time": 1892, "pitch": 55, "duration": 8, "velocity": 78}, {"time": 1898, "pitch": 40, "duration": 16, "velocity": 82}, {"time": 1898, "pitch": 59, "duration": 6, "velocity": 78}, {"time": 1898, "pitch": 62, "duration": 7, "velocity": 77}, {"time": 1904, "pitch": 47, "duration": 8, "velocity": 65}, {"time": 1910, "pitch": 55, "duration": 5, "velocity": 83}, {"time": 1910, "pitch": 59, "duration": 5, "velocity": 86}, {"time": 1916, "pitch": 40, "duration": 6, "velocity": 86}, {"time": 1922, "pitch": 45, "duration": 16, "velocity": 82}, {"time": 1922, "pitch": 57, "duration": 8, "velocity": 75}, {"time": 1922, "pitch": 60, "duration": 8, "velocity": 79}, {"time": 1928, "pitch": 52, "duration": 8, "velocity": 76}, {"time": 1934, "pitch": 57, "duration": 10, "velocity": 81}, {"time": 1934, "pitch": 60, "duration": 7, "velocity": 86}, {"time": 1934, "pitch": 64, "duration": 10, "velocity": 86}, {"time": 1940, "pitch": 52, "duration": 6, "velocity": 79}, {"time": 1946, "pitch": 45, "duration": 18, "velocity": 82}, {"time": 1946, "pitch": 57, "duration": 9, "velocity": 76}, {"time": 1946, "pitch": 60, "duration": 8, "velocity": 79}, {"time": 1952, "pitch": 52, "duration": 17, "velocity": 70}, {"time": 1958, "pitch": 57, "duration": 3, "velocity": 81}, {"time": 1958, "pitch": 60, "duration": 7, "velocity": 88}, {"time": 1958, "pitch": 64, "duration": 8, "velocity": 83}, {"time": 1964, "pitch": 45, "duration": 6, "velocity": 82}, {"time": 1964, "pitch": 57, "duration": 4, "velocity": 83}, {"time": 1970, "pitch": 43, "duration": 22, "velocity": 81}, {"time": 1970, "pitch": 55, "duration": 9, "velocity": 82}, {"time": 1970, "pitch": 59, "duration": 8, "velocity": 80}, {"time": 1976, "pitch": 50, "duration": 9, "velocity": 70}, {"time": 1982, "pitch": 55, "duration": 10, "velocity": 82}, {"time": 1982, "pitch": 62, "duration": 5, "velocity": 83}, {"time": 1988, "pitch": 50, "duration": 6, "velocity": 75}, {"time": 1994, "pitch": 43, "duration": 15, "velocity": 82}, {"time": 1994, "pitch": 55, "duration": 6, "velocity": 83}, {"time": 1994, "pitch": 67, "duration": 5, "velocity": 81}, {"time": 2000, "pitch": 50, "duration": 9, "velocity": 79}, {"time": 2006, "pitch": 59, "duration": 5, "velocity": 86}, {"time": 2006, "pitch": 62, "duration": 5, "velocity": 82}, {"time": 2012, "pitch": 43, "duration": 5, "velocity": 82}, {"time": 2018, "pitch": 48, "duration": 21, "velocity": 90}, {"time": 2018, "pitch": 55, "duration": 3, "velocity": 81}, {"time": 2018, "pitch": 64, "duration": 9, "velocity": 82}, {"time": 2024, "pitch": 55, "duration": 4, "velocity": 76}, {"time": 2030, "pitch": 55, "duration": 3, "velocity": 82}, {"time": 2030, "pitch": 60, "duration": 5, "velocity": 85}, {"time": 2036, "pitch": 55, "duration": 8, "velocity": 82}, {"time": 2042, "pitch": 48, "duration": 15, "velocity": 80}, {"time": 2042, "pitch": 60, "duration": 7, "velocity": 83}, {"time": 2042, "pitch": 64, "duration": 8, "velocity": 82}, {"time": 2048, "pitch": 55, "duration": 5, "velocity": 76}, {"time": 2054, "pitch": 55, "duration": 2, "velocity": 82}, {"time": 2054, "pitch": 60, "duration": 6, "velocity": 95}, {"time": 2054, "pitch": 64, "duration": 10, "velocity": 85}, {"time": 2060, "pitch": 38, "duration": 6, "velocity": 82}, {"time": 2060, "pitch": 55, "duration": 4, "velocity": 81}, {"time": 2066, "pitch": 40, "duration": 22, "velocity": 86}, {"time": 2066, "pitch": 55, "duration": 8, "velocity": 80}, {"time": 2066, "pitch": 59, "duration": 7, "velocity": 80}, {"time": 2072, "pitch": 47, "duration": 16, "velocity": 68}, {"time": 2078, "pitch": 55, "duration": 2, "velocity": 73}, {"time": 2078, "pitch": 59, "duration": 7, "velocity": 82}, {"time": 2078, "pitch": 64, "duration": 10, "velocity": 83}, {"time": 2084, "pitch": 55, "duration": 8, "velocity": 78}, {"time": 2090, "pitch": 40, "duration": 16, "velocity": 82}, {"time": 2090, "pitch": 59, "duration": 6, "velocity": 78}, {"time": 2090, "pitch": 62, "duration": 7, "velocity": 77}, {"time": 2096, "pitch": 47, "duration": 8, "velocity": 65}, {"time": 2102, "pitch": 55, "duration": 5, "velocity": 83}, {"time": 2102, "pitch": 59, "duration": 5, "velocity": 86}, {"time": 2108, "pitch": 40, "duration": 6, "velocity": 86}, {"time": 2114, "pitch": 41, "duration": 23, "velocity": 83}, {"time": 2114, "pitch": 53, "duration": 13, "velocity": 76}, {"time": 2114, "pitch": 60, "duration": 11, "velocity": 81}, {"time": 2120, "pitch": 48, "duration": 17, "velocity": 74}, {"time": 2126, "pitch": 57, "duration": 4, "velocity": 83}, {"time": 2132, "pitch": 53, "duration": 4, "velocity": 82}, {"time": 2138, "pitch": 41, "duration": 21, "velocity": 81}, {"time": 2138, "pitch": 53, "duration": 19, "velocity": 76}, {"time": 2138, "pitch": 57, "duration": 18, "velocity": 71}, {"time": 2138, "pitch": 60, "duration": 18, "velocity": 77}, {"time": 2162, "pitch": 41, "duration": 39, "velocity": 83}, {"time": 2162, "pitch": 53, "duration": 13, "velocity": 76}, {"time": 2162, "pitch": 60, "duration": 12, "velocity": 81}, {"time": 2168, "pitch": 48, "duration": 33, "velocity": 74}, {"time": 2174, "pitch": 56, "duration": 7, "velocity": 88}, {"time": 2180, "pitch": 60, "duration": 3, "velocity": 82}, {"time": 2186, "pitch": 53, "duration": 5, "velocity": 79}, {"time": 2186, "pitch": 65, "duration": 9, "velocity": 77}, {"time": 2198, "pitch": 56, "duration": 2, "velocity": 81}, {"time": 2198, "pitch": 60, "duration": 3, "velocity": 82}, {"time": 2210, "pitch": 48, "duration": 48, "velocity": 82}, {"time": 2210, "pitch": 55, "duration": 3, "velocity": 75}, {"time": 2210, "pitch": 62, "duration": 9, "velocity": 72}, {"time": 2210, "pitch": 67, "duration": 7, "velocity": 71}, {"time": 2216, "pitch": 55, "duration": 4, "velocity": 71}, {"time": 2222, "pitch": 55, "duration": 3, "velocity": 79}, {"time": 2222, "pitch": 62, "duration": 10, "velocity": 75}, {"time": 2222, "pitch": 67, "duration": 7, "velocity": 77}, {"time": 2228, "pitch": 55, "duration": 4, "velocity": 68}, {"time": 2234, "pitch": 55, "duration": 3, "velocity": 79}, {"time": 2234, "pitch": 60, "duration": 9, "velocity": 77}, {"time": 2240, "pitch": 55, "duration": 5, "velocity": 69}, {"time": 2246, "pitch": 55, "duration": 1, "velocity": 53}, {"time": 2246, "pitch": 60, "duration": 8, "velocity": 77}, {"time": 2246, "pitch": 67, "duration": 21, "velocity": 76}, {"time": 2252, "pitch": 55, "duration": 5, "velocity": 76}, {"time": 2258, "pitch": 48, "duration": 24, "velocity": 82}, {"time": 2258, "pitch": 55, "duration": 3, "velocity": 75}, {"time": 2258, "pitch": 59, "duration": 9, "velocity": 77}, {"time": 2264, "pitch": 55, "duration": 4, "velocity": 69}, {"time": 2270, "pitch": 59, "duration": 9, "velocity": 77}, {"time": 2270, "pitch": 67, "duration": 21, "velocity": 77}, {"time": 2276, "pitch": 55, "duration": 5, "velocity": 68}, {"time": 2282, "pitch": 48, "duration": 23, "velocity": 82}, {"time": 2282, "pitch": 60, "duration": 9, "velocity": 77}, {"time": 2288, "pitch": 55, "duration": 6, "velocity": 77}, {"time": 2294, "pitch": 55, "duration": 3, "velocity": 82}, {"time": 2294, "pitch": 60, "duration": 11, "velocity": 84}, {"time": 2294, "pitch": 67, "duration": 11, "velocity": 81}, {"time": 2300, "pitch": 55, "duration": 5, "velocity": 82}, {"time": 2306, "pitch": 55, "duration": 4, "velocity": 69}, {"time": 2306, "pitch": 60, "duration": 9, "velocity": 74}, {"time": 2306, "pitch": 48, "duration": 52, "velocity": 78}, {"time": 2313, "pitch": 55, "duration": 7, "velocity": 74}, {"time": 2319, "pitch": 60, "duration": 4, "velocity": 78}, {"time": 2319, "pitch": 64, "duration": 5, "velocity": 82}, {"time": 2332, "pitch": 60, "duration": 8, "velocity": 74}, {"time": 2346, "pitch": 55, "duration": 5, "velocity": 79}, {"time": 2346, "pitch": 62, "duration": 13, "velocity": 77}, {"time": 2353, "pitch": 55, "duration": 4, "velocity": 67}, {"time": 2359, "pitch": 45, "duration": 45, "velocity": 77}, {"time": 2359, "pitch": 57, "duration": 10, "velocity": 69}, {"time": 2359, "pitch": 60, "duration": 10, "velocity": 73}, {"time": 2366, "pitch": 52, "duration": 37, "velocity": 67}, {"time": 2373, "pitch": 57, "duration": 8, "velocity": 68}, {"time": 2373, "pitch": 60, "duration": 9, "velocity": 71}, {"time": 2386, "pitch": 57, "duration": 9, "velocity": 61}, {"time": 2386, "pitch": 60, "duration": 7, "velocity": 63}, {"time": 2400, "pitch": 60, "duration": 2, "velocity": 73}, {"time": 2400, "pitch": 64, "duration": 2, "velocity": 80}, {"time": 2412, "pitch": 53, "duration": 7, "velocity": 67}, {"time": 2413, "pitch": 57, "duration": 7, "velocity": 63}, {"time": 2413, "pitch": 41, "duration": 47, "velocity": 80}, {"time": 2414, "pitch": 60, "duration": 6, "velocity": 70}, {"time": 2420, "pitch": 48, "duration": 40, "velocity": 64}, {"time": 2426, "pitch": 60, "duration": 5, "velocity": 75}, {"time": 2427, "pitch": 53, "duration": 3, "velocity": 76}, {"time": 2440, "pitch": 53, "duration": 6, "velocity": 60}, {"time": 2441, "pitch": 57, "duration": 4, "velocity": 67}, {"time": 2454, "pitch": 60, "duration": 4, "velocity": 77}, {"time": 2454, "pitch": 53, "duration": 3, "velocity": 70}, {"time": 2470, "pitch": 43, "duration": 25, "velocity": 82}, {"time": 2473, "pitch": 50, "duration": 19, "velocity": 72}, {"time": 2473, "pitch": 55, "duration": 8, "velocity": 69}, {"time": 2475, "pitch": 59, "duration": 5, "velocity": 61}, {"time": 2476, "pitch": 62, "duration": 4, "velocity": 60}, {"time": 2506, "pitch": 36, "duration": 52, "velocity": 79}, {"time": 2510, "pitch": 43, "duration": 47, "velocity": 65}, {"time": 2514, "pitch": 55, "duration": 11, "velocity": 71}, {"time": 2518, "pitch": 62, "duration": 7, "velocity": 74}, {"time": 2523, "pitch": 60, "duration": 3, "velocity": 71}, {"time": 2528, "pitch": 67, "duration": 2, "velocity": 73}, {"time": 2538, "pitch": 74, "duration": 8, "velocity": 75}, {"time": 2547, "pitch": 67, "duration": 3, "velocity": 53}, {"time": 2549, "pitch": 72, "duration": 1, "velocity": 64}, {"time": 2549, "pitch": 79, "duration": 2, "velocity": 75}], "annotations": [{"time": 98, "annotation": {"number": 64, "value": 127}, "group": "control_change"}, {"time": 144, "annotation": {"number": 64, "value": 0}, "group": "control_change"}, {"time": 146, "annotation": {"number": 64, "value": 127}, "group": "control_change"}, {"time": 169, "annotation": {"number": 64, "value": 0}, "group": "control_change"}, {"time": 191, "annotation": {"number": 64, "value": 0}, "group": "control_change"}, {"time": 194, "annotation": {"number": 64, "value": 127}, "group": "control_change"}, {"time": 194, "annotation": {"number": 64, "value": 0}, "group": "control_change"}, {"time": 195, "annotation": {"number": 64, "value": 127}, "group": "control_change"}, {"time": 240, "annotation": {"number": 64, "value": 0}, "group": "control_change"}, {"time": 242, "annotation": {"number": 64, "value": 127}, "group": "control_change"}, {"time": 287, "annotation": {"number": 64, "value": 0}, "group": "control_change"}, {"time": 290, "annotation": {"number": 64, "value": 127}, "group": "control_change"}, {"time": 337, "annotation": {"number": 64, "value": 0}, "group": "control_change"}, {"time": 339, "annotation": {"number": 64, "value": 127}, "group": "control_change"}, {"time": 373, "annotation": {"number": 64, "value": 0}, "group": "control_change"}, {"time": 374, "annotation": {"number": 64, "value": 127}, "group": "control_change"}, {"time": 385, "annotation": {"number": 64, "value": 0}, "group": "control_change"}, {"time": 387, "annotation": {"number": 64, "value": 127}, "group": "control_change"}, {"time": 421, "annotation": {"number": 64, "value": 0}, "group": "control_change"}, {"time": 422, "annotation": {"number": 64, "value": 127}, "group": "control_change"}, {"time": 433, "annotation": {"number": 64, "value": 0}, "group": "control_change"}, {"time": 435, "annotation": {"number": 64, "value": 127}, "group": "control_change"}, {"time": 456, "annotation": {"number": 64, "value": 0}, "group": "control_change"}, {"time": 458, "annotation": {"number": 64, "value": 127}, "group": "control_change"}, {"time": 480, "annotation": {"number": 64, "value": 0}, "group": "control_change"}, {"time": 481, "annotation": {"number": 64, "value": 127}, "group": "control_change"}, {"time": 505, "annotation": {"number": 64, "value": 0}, "group": "control_change"}, {"time": 507, "annotation": {"number": 64, "value": 127}, "group": "control_change"}, {"time": 527, "annotation": {"number": 64, "value": 0}, "group": "control_change"}, {"time": 530, "annotation": {"number": 64, "value": 127}, "group": "control_change"}, {"time": 552, "annotation": {"number": 64, "value": 0}, "group": "control_change"}, {"time": 554, "annotation": {"number": 64, "value": 127}, "group": "control_change"}, {"time": 576, "annotation": {"number": 64, "value": 0}, "group": "control_change"}, {"time": 578, "annotation": {"number": 64, "value": 127}, "group": "control_change"}, {"time": 600, "annotation": {"number": 64, "value": 0}, "group": "control_change"}, {"time": 601, "annotation": {"number": 64, "value": 127}, "group": "control_change"}, {"time": 625, "annotation": {"number": 64, "value": 0}, "group": "control_change"}, {"time": 627, "annotation": {"number": 64, "value": 127}, "group": "control_change"}, {"time": 672, "annotation": {"number": 64, "value": 0}, "group": "control_change"}, {"time": 674, "annotation": {"number": 64, "value": 127}, "group": "control_change"}, {"time": 721, "annotation": {"number": 64, "value": 0}, "group": "control_change"}, {"time": 723, "annotation": {"number": 64, "value": 127}, "group": "control_change"}, {"time": 757, "annotation": {"number": 64, "value": 0}, "group": "control_change"}, {"time": 758, "annotation": {"number": 64, "value": 127}, "group": "control_change"}, {"time": 769, "annotation": {"number": 64, "value": 0}, "group": "control_change"}, {"time": 771, "annotation": {"number": 64, "value": 127}, "group": "control_change"}, {"time": 805, "annotation": {"number": 64, "value": 0}, "group": "control_change"}, {"time": 806, "annotation": {"number": 64, "value": 127}, "group": "control_change"}, {"time": 817, "annotation": {"number": 64, "value": 0}, "group": "control_change"}, {"time": 819, "annotation": {"number": 64, "value": 127}, "group": "control_change"}, {"time": 840, "annotation": {"number": 64, "value": 0}, "group": "control_change"}, {"time": 842, "annotation": {"number": 64, "value": 127}, "group": "control_change"}, {"time": 864, "annotation": {"number": 64, "value": 0}, "group": "control_change"}, {"time": 865, "annotation": {"number": 64, "value": 127}, "group": "control_change"}, {"time": 889, "annotation": {"number": 64, "value": 0}, "group": "control_change"}, {"time": 891, "annotation": {"number": 64, "value": 127}, "group": "control_change"}, {"time": 911, "annotation": {"number": 64, "value": 0}, "group": "control_change"}, {"time": 914, "annotation": {"number": 64, "value": 127}, "group": "control_change"}, {"time": 936, "annotation": {"number": 64, "value": 0}, "group": "control_change"}, {"time": 938, "annotation": {"number": 64, "value": 127}, "group": "control_change"}, {"time": 960, "annotation": {"number": 64, "value": 0}, "group": "control_change"}, {"time": 962, "annotation": {"number": 64, "value": 127}, "group": "control_change"}, {"time": 984, "annotation": {"number": 64, "value": 0}, "group": "control_change"}, {"time": 985, "annotation": {"number": 64, "value": 127}, "group": "control_change"}, {"time": 1009, "annotation": {"number": 64, "value": 0}, "group": "control_change"}, {"time": 1012, "annotation": {"number": 64, "value": 127}, "group": "control_change"}, {"time": 1013, "annotation": {"number": 64, "value": 0}, "group": "control_change"}, {"time": 1013, "annotation": {"number": 64, "value": 127}, "group": "control_change"}, {"time": 1032, "annotation": {"number": 64, "value": 0}, "group": "control_change"}, {"time": 1034, "annotation": {"number": 64, "value": 127}, "group": "control_change"}, {"time": 1057, "annotation": {"number": 64, "value": 0}, "group": "control_change"}, {"time": 1080, "annotation": {"number": 64, "value": 0}, "group": "control_change"}, {"time": 1082, "annotation": {"number": 64, "value": 127}, "group": "control_change"}, {"time": 1105, "annotation": {"number": 64, "value": 0}, "group": "control_change"}, {"time": 1108, "annotation": {"number": 64, "value": 127}, "group": "control_change"}, {"time": 1128, "annotation": {"number": 64, "value": 0}, "group": "control_change"}, {"time": 1130, "annotation": {"number": 64, "value": 127}, "group": "control_change"}, {"time": 1152, "annotation": {"number": 64, "value": 0}, "group": "control_change"}, {"time": 1155, "annotation": {"number": 64, "value": 127}, "group": "control_change"}, {"time": 1177, "annotation": {"number": 64, "value": 0}, "group": "control_change"}, {"time": 1179, "annotation": {"number": 64, "value": 127}, "group": "control_change"}, {"time": 1201, "annotation": {"number": 64, "value": 0}, "group": "control_change"}, {"time": 1204, "annotation": {"number": 64, "value": 127}, "group": "control_change"}, {"time": 1224, "annotation": {"number": 64, "value": 0}, "group": "control_change"}, {"time": 1226, "annotation": {"number": 64, "value": 127}, "group": "control_change"}, {"time": 1248, "annotation": {"number": 64, "value": 0}, "group": "control_change"}, {"time": 1272, "annotation": {"number": 64, "value": 0}, "group": "control_change"}, {"time": 1274, "annotation": {"number": 64, "value": 127}, "group": "control_change"}, {"time": 1297, "annotation": {"number": 64, "value": 0}, "group": "control_change"}, {"time": 1300, "annotation": {"number": 64, "value": 127}, "group": "control_change"}, {"time": 1320, "annotation": {"number": 64, "value": 0}, "group": "control_change"}, {"time": 1322, "annotation": {"number": 64, "value": 127}, "group": "control_change"}, {"time": 1344, "annotation": {"number": 64, "value": 0}, "group": "control_change"}, {"time": 1347, "annotation": {"number": 64, "value": 127}, "group": "control_change"}, {"time": 1347, "annotation": {"number": 64, "value": 0}, "group": "control_change"}, {"time": 1392, "annotation": {"number": 64, "value": 0}, "group": "control_change"}, {"time": 1395, "annotation": {"number": 64, "value": 127}, "group": "control_change"}, {"time": 1439, "annotation": {"number": 64, "value": 0}, "group": "control_change"}, {"time": 1443, "annotation": {"number": 64, "value": 127}, "group": "control_change"}, {"time": 1489, "annotation": {"number": 64, "value": 0}, "group": "control_change"}, {"time": 1491, "annotation": {"number": 64, "value": 127}, "group": "control_change"}, {"time": 1536, "annotation": {"number": 64, "value": 0}, "group": "control_change"}, {"time": 1539, "annotation": {"number": 64, "value": 127}, "group": "control_change"}, {"time": 1584, "annotation": {"number": 64, "value": 0}, "group": "control_change"}, {"time": 1586, "annotation": {"number": 64, "value": 127}, "group": "control_change"}, {"time": 1633, "annotation": {"number": 64, "value": 0}, "group": "control_change"}, {"time": 1635, "annotation": {"number": 64, "value": 127}, "group": "control_change"}, {"time": 1658, "annotation": {"number": 64, "value": 0}, "group": "control_change"}, {"time": 1660, "annotation": {"number": 64, "value": 127}, "group": "control_change"}, {"time": 1681, "annotation": {"number": 64, "value": 0}, "group": "control_change"}, {"time": 1683, "annotation": {"number": 64, "value": 127}, "group": "control_change"}, {"time": 1705, "annotation": {"number": 64, "value": 0}, "group": "control_change"}, {"time": 1708, "annotation": {"number": 64, "value": 127}, "group": "control_change"}, {"time": 1728, "annotation": {"number": 64, "value": 0}, "group": "control_change"}, {"time": 1731, "annotation": {"number": 64, "value": 127}, "group": "control_change"}, {"time": 1751, "annotation": {"number": 64, "value": 0}, "group": "control_change"}, {"time": 1754, "annotation": {"number": 64, "value": 127}, "group": "control_change"}, {"time": 1776, "annotation": {"number": 64, "value": 0}, "group": "control_change"}, {"time": 1779, "annotation": {"number": 64, "value": 127}, "group": "control_change"}, {"time": 1800, "annotation": {"number": 64, "value": 0}, "group": "control_change"}, {"time": 1802, "annotation": {"number": 64, "value": 127}, "group": "control_change"}, {"time": 1823, "annotation": {"number": 64, "value": 0}, "group": "control_change"}, {"time": 1848, "annotation": {"number": 64, "value": 0}, "group": "control_change"}, {"time": 1850, "annotation": {"number": 64, "value": 127}, "group": "control_change"}, {"time": 1873, "annotation": {"number": 64, "value": 0}, "group": "control_change"}, {"time": 1876, "annotation": {"number": 64, "value": 127}, "group": "control_change"}, {"time": 1896, "annotation": {"number": 64, "value": 0}, "group": "control_change"}, {"time": 1898, "annotation": {"number": 64, "value": 127}, "group": "control_change"}, {"time": 1920, "annotation": {"number": 64, "value": 0}, "group": "control_change"}, {"time": 1923, "annotation": {"number": 64, "value": 127}, "group": "control_change"}, {"time": 1945, "annotation": {"number": 64, "value": 0}, "group": "control_change"}, {"time": 1947, "annotation": {"number": 64, "value": 127}, "group": "control_change"}, {"time": 1969, "annotation": {"number": 64, "value": 0}, "group": "control_change"}, {"time": 1972, "annotation": {"number": 64, "value": 127}, "group": "control_change"}, {"time": 1992, "annotation": {"number": 64, "value": 0}, "group": "control_change"}, {"time": 1994, "annotation": {"number": 64, "value": 127}, "group": "control_change"}, {"time": 2016, "annotation": {"number": 64, "value": 0}, "group": "control_change"}, {"time": 2040, "annotation": {"number": 64, "value": 0}, "group": "control_change"}, {"time": 2042, "annotation": {"number": 64, "value": 127}, "group": "control_change"}, {"time": 2065, "annotation": {"number": 64, "value": 0}, "group": "control_change"}, {"time": 2068, "annotation": {"number": 64, "value": 127}, "group": "control_change"}, {"time": 2088, "annotation": {"number": 64, "value": 0}, "group": "control_change"}, {"time": 2090, "annotation": {"number": 64, "value": 127}, "group": "control_change"}, {"time": 2112, "annotation": {"number": 64, "value": 0}, "group": "control_change"}, {"time": 2115, "annotation": {"number": 64, "value": 127}, "group": "control_change"}, {"time": 2115, "annotation": {"number": 64, "value": 0}, "group": "control_change"}, {"time": 2160, "annotation": {"number": 64, "value": 0}, "group": "control_change"}, {"time": 2163, "annotation": {"number": 64, "value": 127}, "group": "control_change"}, {"time": 2207, "annotation": {"number": 64, "value": 0}, "group": "control_change"}, {"time": 2256, "annotation": {"number": 64, "value": 0}, "group": "control_change"}, {"time": 2258, "annotation": {"number": 64, "value": 127}, "group": "control_change"}, {"time": 2281, "annotation": {"number": 64, "value": 0}, "group": "control_change"}, {"time": 2303, "annotation": {"number": 64, "value": 0}, "group": "control_change"}, {"time": 2306, "annotation": {"number": 64, "value": 127}, "group": "control_change"}, {"time": 2307, "annotation": {"number": 64, "value": 127}, "group": "control_change"}, {"time": 2307, "annotation": {"number": 64, "value": 0}, "group": "control_change"}, {"time": 2359, "annotation": {"number": 64, "value": 0}, "group": "control_change"}, {"time": 2362, "annotation": {"number": 64, "value": 127}, "group": "control_change"}, {"time": 2413, "annotation": {"number": 64, "value": 0}, "group": "control_change"}, {"time": 2415, "annotation": {"number": 64, "value": 127}, "group": "control_change"}, {"time": 2470, "annotation": {"number": 64, "value": 0}, "group": "control_change"}, {"time": 2472, "annotation": {"number": 64, "value": 127}, "group": "control_change"}, {"time": 2507, "annotation": {"number": 64, "value": 0}, "group": "control_change"}, {"time": 2509, "annotation": {"number": 64, "value": 127}, "group": "control_change"}]}]}