{"metadata": {"schema_version": "0.2", "title": "None", "source_filename": "834.mid", "source_format": "midi"}, "resolution": 12, "tempos": [{"time": 0, "qpm": 60.0}, {"time": 2526, "qpm": 58.00004253336452}, {"time": 2527, "qpm": 56.000029866682596}, {"time": 2530, "qpm": 54.00000540000054}, {"time": 2533, "qpm": 49.000031850020704}, {"time": 2536, "qpm": 46.00006440009016}, {"time": 2540, "qpm": 41.00004578338446}], "time_signatures": [{"time": 0, "numerator": 1, "denominator": 4}], "tracks": [{"program": 0, "is_drum": false, "name": "MELODY", "notes": [{"time": 142, "pitch": 74, "duration": 4, "velocity": 83}, {"time": 145, "pitch": 76, "duration": 4, "velocity": 83}, {"time": 148, "pitch": 78, "duration": 5, "velocity": 83}, {"time": 154, "pitch": 69, "duration": 6, "velocity": 83}, {"time": 160, "pitch": 78, "duration": 7, "velocity": 72}, {"time": 166, "pitch": 69, "duration": 6, "velocity": 85}, {"time": 172, "pitch": 76, "duration": 6, "velocity": 83}, {"time": 178, "pitch": 69, "duration": 8, "velocity": 83}, {"time": 190, "pitch": 71, "duration": 3, "velocity": 83}, {"time": 193, "pitch": 73, "duration": 3, "velocity": 71}, {"time": 196, "pitch": 74, "duration": 5, "velocity": 84}, {"time": 202, "pitch": 66, "duration": 5, "velocity": 81}, {"time": 208, "pitch": 74, "duration": 6, "velocity": 90}, {"time": 214, "pitch": 66, "duration": 7, "velocity": 78}, {"time": 220, "pitch": 73, "duration": 7, "velocity": 80}, {"time": 226, "pitch": 66, "duration": 9, "velocity": 75}, {"time": 238, "pitch": 73, "duration": 2, "velocity": 76}, {"time": 241, "pitch": 73, "duration": 3, "velocity": 78}, {"time": 244, "pitch": 71, "duration": 5, "velocity": 84}, {"time": 250, "pitch": 67, "duration": 2, "velocity": 76}, {"time": 253, "pitch": 67, "duration": 2, "velocity": 75}, {"time": 256, "pitch": 67, "duration": 2, "velocity": 81}, {"time": 259, "pitch": 69, "duration": 2, "velocity": 83}, {"time": 262, "pitch": 71, "duration": 5, "velocity": 77}, {"time": 268, "pitch": 69, "duration": 6, "velocity": 79}, {"time": 274, "pitch": 73, "duration": 3, "velocity": 84}, {"time": 277, "pitch": 74, "duration": 9, "velocity": 85}, {"time": 289, "pitch": 71, "duration": 3, "velocity": 82}, {"time": 292, "pitch": 76, "duration": 5, "velocity": 84}, {"time": 298, "pitch": 71, "duration": 2, "velocity": 76}, {"time": 301, "pitch": 71, "duration": 2, "velocity": 80}, {"time": 304, "pitch": 71, "duration": 6, "velocity": 83}, {"time": 310, "pitch": 78, "duration": 4, "velocity": 81}, {"time": 316, "pitch": 78, "duration": 6, "velocity": 83}, {"time": 322, "pitch": 76, "duration": 9, "velocity": 84}, {"time": 334, "pitch": 74, "duration": 3, "velocity": 84}, {"time": 337, "pitch": 76, "duration": 2, "velocity": 83}, {"time": 340, "pitch": 78, "duration": 6, "velocity": 79}, {"time": 346, "pitch": 81, "duration": 5, "velocity": 84}, {"time": 352, "pitch": 76, "duration": 5, "velocity": 79}, {"time": 358, "pitch": 78, "duration": 4, "velocity": 81}, {"time": 364, "pitch": 76, "duration": 5, "velocity": 83}, {"time": 370, "pitch": 74, "duration": 9, "velocity": 85}, {"time": 382, "pitch": 71, "duration": 3, "velocity": 82}, {"time": 385, "pitch": 73, "duration": 2, "velocity": 72}, {"time": 388, "pitch": 74, "duration": 5, "velocity": 84}, {"time": 394, "pitch": 78, "duration": 5, "velocity": 81}, {"time": 400, "pitch": 73, "duration": 5, "velocity": 74}, {"time": 406, "pitch": 78, "duration": 5, "velocity": 84}, {"time": 412, "pitch": 73, "duration": 6, "velocity": 83}, {"time": 418, "pitch": 71, "duration": 7, "velocity": 84}, {"time": 430, "pitch": 71, "duration": 3, "velocity": 76}, {"time": 433, "pitch": 69, "duration": 3, "velocity": 82}, {"time": 436, "pitch": 67, "duration": 2, "velocity": 81}, {"time": 439, "pitch": 67, "duration": 2, "velocity": 78}, {"time": 442, "pitch": 69, "duration": 2, "velocity": 83}, {"time": 445, "pitch": 71, "duration": 8, "velocity": 78}, {"time": 454, "pitch": 67, "duration": 5, "velocity": 82}, {"time": 460, "pitch": 69, "duration": 2, "velocity": 83}, {"time": 463, "pitch": 69, "duration": 2, "velocity": 83}, {"time": 466, "pitch": 73, "duration": 2, "velocity": 83}, {"time": 469, "pitch": 74, "duration": 7, "velocity": 85}, {"time": 478, "pitch": 71, "duration": 2, "velocity": 84}, {"time": 481, "pitch": 74, "duration": 2, "velocity": 84}, {"time": 484, "pitch": 79, "duration": 5, "velocity": 80}, {"time": 490, "pitch": 78, "duration": 4, "velocity": 79}, {"time": 496, "pitch": 74, "duration": 5, "velocity": 84}, {"time": 502, "pitch": 71, "duration": 5, "velocity": 85}, {"time": 508, "pitch": 76, "duration": 4, "velocity": 83}, {"time": 514, "pitch": 69, "duration": 5, "velocity": 87}, {"time": 520, "pitch": 81, "duration": 5, "velocity": 84}, {"time": 526, "pitch": 79, "duration": 4, "velocity": 82}, {"time": 532, "pitch": 78, "duration": 2, "velocity": 83}, {"time": 535, "pitch": 78, "duration": 2, "velocity": 81}, {"time": 538, "pitch": 69, "duration": 2, "velocity": 85}, {"time": 541, "pitch": 69, "duration": 3, "velocity": 74}, {"time": 544, "pitch": 78, "duration": 4, "velocity": 86}, {"time": 553, "pitch": 74, "duration": 2, "velocity": 83}, {"time": 556, "pitch": 76, "duration": 2, "velocity": 76}, {"time": 559, "pitch": 76, "duration": 2, "velocity": 83}, {"time": 562, "pitch": 69, "duration": 2, "velocity": 83}, {"time": 565, "pitch": 69, "duration": 2, "velocity": 76}, {"time": 568, "pitch": 76, "duration": 8, "velocity": 80}, {"time": 577, "pitch": 73, "duration": 3, "velocity": 78}, {"time": 580, "pitch": 74, "duration": 2, "velocity": 85}, {"time": 583, "pitch": 74, "duration": 2, "velocity": 85}, {"time": 586, "pitch": 66, "duration": 2, "velocity": 83}, {"time": 589, "pitch": 66, "duration": 2, "velocity": 84}, {"time": 592, "pitch": 74, "duration": 2, "velocity": 86}, {"time": 595, "pitch": 74, "duration": 2, "velocity": 84}, {"time": 598, "pitch": 76, "duration": 2, "velocity": 79}, {"time": 601, "pitch": 74, "duration": 2, "velocity": 85}, {"time": 604, "pitch": 73, "duration": 2, "velocity": 76}, {"time": 607, "pitch": 73, "duration": 2, "velocity": 71}, {"time": 610, "pitch": 69, "duration": 2, "velocity": 78}, {"time": 613, "pitch": 69, "duration": 2, "velocity": 78}, {"time": 616, "pitch": 73, "duration": 8, "velocity": 84}, {"time": 628, "pitch": 71, "duration": 2, "velocity": 81}, {"time": 631, "pitch": 71, "duration": 3, "velocity": 81}, {"time": 634, "pitch": 67, "duration": 2, "velocity": 83}, {"time": 637, "pitch": 67, "duration": 2, "velocity": 74}, {"time": 640, "pitch": 67, "duration": 2, "velocity": 78}, {"time": 643, "pitch": 69, "duration": 2, "velocity": 79}, {"time": 646, "pitch": 71, "duration": 2, "velocity": 80}, {"time": 649, "pitch": 71, "duration": 2, "velocity": 81}, {"time": 652, "pitch": 69, "duration": 2, "velocity": 81}, {"time": 655, "pitch": 69, "duration": 2, "velocity": 78}, {"time": 658, "pitch": 69, "duration": 2, "velocity": 79}, {"time": 661, "pitch": 73, "duration": 2, "velocity": 85}, {"time": 664, "pitch": 74, "duration": 8, "velocity": 85}, {"time": 673, "pitch": 71, "duration": 2, "velocity": 85}, {"time": 676, "pitch": 78, "duration": 2, "velocity": 84}, {"time": 679, "pitch": 79, "duration": 2, "velocity": 76}, {"time": 682, "pitch": 78, "duration": 2, "velocity": 87}, {"time": 685, "pitch": 74, "duration": 2, "velocity": 84}, {"time": 688, "pitch": 71, "duration": 6, "velocity": 84}, {"time": 697, "pitch": 71, "duration": 2, "velocity": 83}, {"time": 700, "pitch": 78, "duration": 2, "velocity": 83}, {"time": 703, "pitch": 79, "duration": 2, "velocity": 73}, {"time": 706, "pitch": 78, "duration": 2, "velocity": 88}, {"time": 709, "pitch": 74, "duration": 2, "velocity": 85}, {"time": 712, "pitch": 76, "duration": 7, "velocity": 83}, {"time": 724, "pitch": 78, "duration": 2, "velocity": 83}, {"time": 727, "pitch": 78, "duration": 2, "velocity": 84}, {"time": 730, "pitch": 69, "duration": 2, "velocity": 84}, {"time": 733, "pitch": 69, "duration": 3, "velocity": 78}, {"time": 736, "pitch": 78, "duration": 2, "velocity": 84}, {"time": 739, "pitch": 78, "duration": 2, "velocity": 83}, {"time": 742, "pitch": 79, "duration": 2, "velocity": 83}, {"time": 745, "pitch": 74, "duration": 1, "velocity": 81}, {"time": 748, "pitch": 76, "duration": 2, "velocity": 79}, {"time": 751, "pitch": 76, "duration": 1, "velocity": 80}, {"time": 754, "pitch": 76, "duration": 2, "velocity": 83}, {"time": 757, "pitch": 76, "duration": 2, "velocity": 83}, {"time": 760, "pitch": 81, "duration": 9, "velocity": 83}, {"time": 772, "pitch": 83, "duration": 2, "velocity": 82}, {"time": 775, "pitch": 78, "duration": 2, "velocity": 84}, {"time": 778, "pitch": 78, "duration": 2, "velocity": 82}, {"time": 781, "pitch": 78, "duration": 2, "velocity": 84}, {"time": 784, "pitch": 78, "duration": 2, "velocity": 83}, {"time": 787, "pitch": 78, "duration": 2, "velocity": 88}, {"time": 790, "pitch": 83, "duration": 2, "velocity": 84}, {"time": 793, "pitch": 83, "duration": 2, "velocity": 85}, {"time": 796, "pitch": 81, "duration": 2, "velocity": 79}, {"time": 799, "pitch": 81, "duration": 2, "velocity": 79}, {"time": 802, "pitch": 78, "duration": 2, "velocity": 81}, {"time": 805, "pitch": 76, "duration": 2, "velocity": 83}, {"time": 808, "pitch": 78, "duration": 8, "velocity": 83}, {"time": 820, "pitch": 74, "duration": 2, "velocity": 84}, {"time": 823, "pitch": 74, "duration": 2, "velocity": 84}, {"time": 826, "pitch": 74, "duration": 2, "velocity": 85}, {"time": 829, "pitch": 74, "duration": 2, "velocity": 87}, {"time": 832, "pitch": 74, "duration": 2, "velocity": 89}, {"time": 835, "pitch": 76, "duration": 2, "velocity": 84}, {"time": 838, "pitch": 78, "duration": 2, "velocity": 84}, {"time": 841, "pitch": 79, "duration": 2, "velocity": 79}, {"time": 844, "pitch": 81, "duration": 5, "velocity": 82}, {"time": 850, "pitch": 78, "duration": 2, "velocity": 79}, {"time": 853, "pitch": 76, "duration": 2, "velocity": 80}, {"time": 856, "pitch": 74, "duration": 5, "velocity": 85}, {"time": 862, "pitch": 71, "duration": 4, "velocity": 84}, {"time": 868, "pitch": 76, "duration": 14, "velocity": 81}, {"time": 886, "pitch": 71, "duration": 2, "velocity": 85}, {"time": 889, "pitch": 73, "duration": 2, "velocity": 83}, {"time": 892, "pitch": 74, "duration": 5, "velocity": 84}, {"time": 898, "pitch": 73, "duration": 4, "velocity": 84}, {"time": 904, "pitch": 78, "duration": 5, "velocity": 87}, {"time": 910, "pitch": 76, "duration": 4, "velocity": 84}, {"time": 916, "pitch": 76, "duration": 5, "velocity": 82}, {"time": 922, "pitch": 74, "duration": 18, "velocity": 85}, {"time": 1054, "pitch": 74, "duration": 4, "velocity": 83}, {"time": 1057, "pitch": 76, "duration": 4, "velocity": 83}, {"time": 1060, "pitch": 78, "duration": 5, "velocity": 83}, {"time": 1066, "pitch": 69, "duration": 6, "velocity": 83}, {"time": 1072, "pitch": 78, "duration": 7, "velocity": 72}, {"time": 1078, "pitch": 69, "duration": 6, "velocity": 85}, {"time": 1084, "pitch": 76, "duration": 6, "velocity": 83}, {"time": 1090, "pitch": 69, "duration": 8, "velocity": 83}, {"time": 1102, "pitch": 71, "duration": 3, "velocity": 83}, {"time": 1105, "pitch": 73, "duration": 3, "velocity": 71}, {"time": 1108, "pitch": 74, "duration": 5, "velocity": 84}, {"time": 1114, "pitch": 66, "duration": 5, "velocity": 81}, {"time": 1120, "pitch": 74, "duration": 6, "velocity": 90}, {"time": 1126, "pitch": 66, "duration": 7, "velocity": 78}, {"time": 1132, "pitch": 73, "duration": 7, "velocity": 80}, {"time": 1138, "pitch": 66, "duration": 9, "velocity": 75}, {"time": 1150, "pitch": 73, "duration": 2, "velocity": 76}, {"time": 1153, "pitch": 73, "duration": 3, "velocity": 78}, {"time": 1156, "pitch": 71, "duration": 5, "velocity": 84}, {"time": 1162, "pitch": 67, "duration": 2, "velocity": 76}, {"time": 1165, "pitch": 67, "duration": 2, "velocity": 75}, {"time": 1168, "pitch": 67, "duration": 2, "velocity": 81}, {"time": 1171, "pitch": 69, "duration": 2, "velocity": 83}, {"time": 1174, "pitch": 71, "duration": 5, "velocity": 77}, {"time": 1180, "pitch": 69, "duration": 6, "velocity": 79}, {"time": 1186, "pitch": 73, "duration": 3, "velocity": 84}, {"time": 1189, "pitch": 74, "duration": 9, "velocity": 85}, {"time": 1201, "pitch": 71, "duration": 3, "velocity": 82}, {"time": 1204, "pitch": 76, "duration": 5, "velocity": 84}, {"time": 1210, "pitch": 71, "duration": 2, "velocity": 76}, {"time": 1213, "pitch": 71, "duration": 2, "velocity": 80}, {"time": 1216, "pitch": 71, "duration": 6, "velocity": 83}, {"time": 1222, "pitch": 78, "duration": 4, "velocity": 81}, {"time": 1228, "pitch": 78, "duration": 6, "velocity": 83}, {"time": 1234, "pitch": 76, "duration": 9, "velocity": 84}, {"time": 1246, "pitch": 74, "duration": 3, "velocity": 84}, {"time": 1249, "pitch": 76, "duration": 2, "velocity": 83}, {"time": 1252, "pitch": 78, "duration": 6, "velocity": 79}, {"time": 1258, "pitch": 81, "duration": 5, "velocity": 84}, {"time": 1264, "pitch": 76, "duration": 5, "velocity": 79}, {"time": 1270, "pitch": 78, "duration": 4, "velocity": 81}, {"time": 1276, "pitch": 76, "duration": 5, "velocity": 83}, {"time": 1282, "pitch": 74, "duration": 9, "velocity": 85}, {"time": 1294, "pitch": 71, "duration": 3, "velocity": 82}, {"time": 1297, "pitch": 73, "duration": 2, "velocity": 72}, {"time": 1300, "pitch": 74, "duration": 5, "velocity": 84}, {"time": 1306, "pitch": 78, "duration": 5, "velocity": 81}, {"time": 1312, "pitch": 73, "duration": 5, "velocity": 74}, {"time": 1318, "pitch": 78, "duration": 5, "velocity": 84}, {"time": 1324, "pitch": 73, "duration": 6, "velocity": 83}, {"time": 1330, "pitch": 71, "duration": 7, "velocity": 84}, {"time": 1342, "pitch": 71, "duration": 3, "velocity": 76}, {"time": 1345, "pitch": 69, "duration": 3, "velocity": 82}, {"time": 1348, "pitch": 67, "duration": 2, "velocity": 81}, {"time": 1351, "pitch": 67, "duration": 2, "velocity": 78}, {"time": 1354, "pitch": 69, "duration": 2, "velocity": 83}, {"time": 1357, "pitch": 71, "duration": 8, "velocity": 78}, {"time": 1366, "pitch": 67, "duration": 5, "velocity": 82}, {"time": 1372, "pitch": 69, "duration": 2, "velocity": 83}, {"time": 1375, "pitch": 69, "duration": 2, "velocity": 83}, {"time": 1378, "pitch": 73, "duration": 2, "velocity": 83}, {"time": 1381, "pitch": 74, "duration": 7, "velocity": 85}, {"time": 1390, "pitch": 71, "duration": 2, "velocity": 84}, {"time": 1393, "pitch": 74, "duration": 2, "velocity": 84}, {"time": 1396, "pitch": 79, "duration": 5, "velocity": 80}, {"time": 1402, "pitch": 78, "duration": 4, "velocity": 79}, {"time": 1408, "pitch": 74, "duration": 5, "velocity": 84}, {"time": 1414, "pitch": 71, "duration": 5, "velocity": 85}, {"time": 1420, "pitch": 76, "duration": 4, "velocity": 83}, {"time": 1426, "pitch": 69, "duration": 5, "velocity": 87}, {"time": 1432, "pitch": 81, "duration": 5, "velocity": 84}, {"time": 1438, "pitch": 79, "duration": 4, "velocity": 82}, {"time": 1444, "pitch": 78, "duration": 2, "velocity": 83}, {"time": 1447, "pitch": 78, "duration": 2, "velocity": 81}, {"time": 1450, "pitch": 69, "duration": 2, "velocity": 85}, {"time": 1453, "pitch": 69, "duration": 3, "velocity": 74}, {"time": 1456, "pitch": 78, "duration": 4, "velocity": 86}, {"time": 1465, "pitch": 74, "duration": 2, "velocity": 83}, {"time": 1468, "pitch": 76, "duration": 2, "velocity": 76}, {"time": 1471, "pitch": 76, "duration": 2, "velocity": 83}, {"time": 1474, "pitch": 69, "duration": 2, "velocity": 83}, {"time": 1477, "pitch": 69, "duration": 2, "velocity": 76}, {"time": 1480, "pitch": 76, "duration": 8, "velocity": 80}, {"time": 1489, "pitch": 73, "duration": 3, "velocity": 78}, {"time": 1492, "pitch": 74, "duration": 2, "velocity": 85}, {"time": 1495, "pitch": 74, "duration": 2, "velocity": 85}, {"time": 1498, "pitch": 66, "duration": 2, "velocity": 83}, {"time": 1501, "pitch": 66, "duration": 2, "velocity": 84}, {"time": 1504, "pitch": 74, "duration": 2, "velocity": 86}, {"time": 1507, "pitch": 74, "duration": 2, "velocity": 84}, {"time": 1510, "pitch": 76, "duration": 2, "velocity": 79}, {"time": 1513, "pitch": 74, "duration": 2, "velocity": 85}, {"time": 1516, "pitch": 73, "duration": 2, "velocity": 76}, {"time": 1519, "pitch": 73, "duration": 2, "velocity": 71}, {"time": 1522, "pitch": 69, "duration": 2, "velocity": 78}, {"time": 1525, "pitch": 69, "duration": 2, "velocity": 78}, {"time": 1528, "pitch": 73, "duration": 8, "velocity": 84}, {"time": 1540, "pitch": 71, "duration": 2, "velocity": 81}, {"time": 1543, "pitch": 71, "duration": 3, "velocity": 81}, {"time": 1546, "pitch": 67, "duration": 2, "velocity": 83}, {"time": 1549, "pitch": 67, "duration": 2, "velocity": 74}, {"time": 1552, "pitch": 67, "duration": 2, "velocity": 78}, {"time": 1555, "pitch": 69, "duration": 2, "velocity": 79}, {"time": 1558, "pitch": 71, "duration": 2, "velocity": 80}, {"time": 1561, "pitch": 71, "duration": 2, "velocity": 81}, {"time": 1564, "pitch": 69, "duration": 2, "velocity": 81}, {"time": 1567, "pitch": 69, "duration": 2, "velocity": 78}, {"time": 1570, "pitch": 69, "duration": 2, "velocity": 79}, {"time": 1573, "pitch": 73, "duration": 2, "velocity": 85}, {"time": 1576, "pitch": 74, "duration": 8, "velocity": 85}, {"time": 1585, "pitch": 71, "duration": 2, "velocity": 85}, {"time": 1588, "pitch": 78, "duration": 2, "velocity": 84}, {"time": 1591, "pitch": 79, "duration": 2, "velocity": 76}, {"time": 1594, "pitch": 78, "duration": 2, "velocity": 87}, {"time": 1597, "pitch": 74, "duration": 2, "velocity": 84}, {"time": 1600, "pitch": 71, "duration": 6, "velocity": 84}, {"time": 1609, "pitch": 71, "duration": 2, "velocity": 83}, {"time": 1612, "pitch": 78, "duration": 2, "velocity": 83}, {"time": 1615, "pitch": 79, "duration": 2, "velocity": 73}, {"time": 1618, "pitch": 78, "duration": 2, "velocity": 88}, {"time": 1621, "pitch": 74, "duration": 2, "velocity": 85}, {"time": 1624, "pitch": 76, "duration": 7, "velocity": 83}, {"time": 1636, "pitch": 78, "duration": 2, "velocity": 83}, {"time": 1639, "pitch": 78, "duration": 2, "velocity": 84}, {"time": 1642, "pitch": 69, "duration": 2, "velocity": 84}, {"time": 1645, "pitch": 69, "duration": 3, "velocity": 78}, {"time": 1648, "pitch": 78, "duration": 2, "velocity": 84}, {"time": 1651, "pitch": 78, "duration": 2, "velocity": 83}, {"time": 1654, "pitch": 79, "duration": 2, "velocity": 83}, {"time": 1657, "pitch": 74, "duration": 1, "velocity": 81}, {"time": 1660, "pitch": 76, "duration": 2, "velocity": 79}, {"time": 1663, "pitch": 76, "duration": 1, "velocity": 80}, {"time": 1666, "pitch": 76, "duration": 2, "velocity": 83}, {"time": 1669, "pitch": 76, "duration": 2, "velocity": 83}, {"time": 1672, "pitch": 81, "duration": 9, "velocity": 83}, {"time": 1684, "pitch": 83, "duration": 2, "velocity": 82}, {"time": 1687, "pitch": 78, "duration": 2, "velocity": 84}, {"time": 1690, "pitch": 78, "duration": 2, "velocity": 82}, {"time": 1693, "pitch": 78, "duration": 2, "velocity": 84}, {"time": 1696, "pitch": 78, "duration": 2, "velocity": 83}, {"time": 1699, "pitch": 78, "duration": 2, "velocity": 88}, {"time": 1702, "pitch": 83, "duration": 2, "velocity": 84}, {"time": 1705, "pitch": 83, "duration": 2, "velocity": 85}, {"time": 1708, "pitch": 81, "duration": 2, "velocity": 79}, {"time": 1711, "pitch": 81, "duration": 2, "velocity": 79}, {"time": 1714, "pitch": 78, "duration": 2, "velocity": 81}, {"time": 1717, "pitch": 76, "duration": 2, "velocity": 83}, {"time": 1720, "pitch": 78, "duration": 8, "velocity": 83}, {"time": 1732, "pitch": 74, "duration": 2, "velocity": 84}, {"time": 1735, "pitch": 74, "duration": 2, "velocity": 84}, {"time": 1738, "pitch": 74, "duration": 2, "velocity": 85}, {"time": 1741, "pitch": 74, "duration": 2, "velocity": 87}, {"time": 1744, "pitch": 74, "duration": 2, "velocity": 89}, {"time": 1747, "pitch": 76, "duration": 2, "velocity": 84}, {"time": 1750, "pitch": 78, "duration": 2, "velocity": 84}, {"time": 1753, "pitch": 79, "duration": 2, "velocity": 79}, {"time": 1756, "pitch": 81, "duration": 5, "velocity": 82}, {"time": 1762, "pitch": 78, "duration": 2, "velocity": 79}, {"time": 1765, "pitch": 76, "duration": 2, "velocity": 80}, {"time": 1768, "pitch": 74, "duration": 5, "velocity": 85}, {"time": 1774, "pitch": 71, "duration": 4, "velocity": 84}, {"time": 1780, "pitch": 76, "duration": 14, "velocity": 81}, {"time": 1798, "pitch": 71, "duration": 2, "velocity": 85}, {"time": 1801, "pitch": 73, "duration": 2, "velocity": 83}, {"time": 1804, "pitch": 74, "duration": 5, "velocity": 84}, {"time": 1810, "pitch": 73, "duration": 4, "velocity": 84}, {"time": 1816, "pitch": 78, "duration": 5, "velocity": 87}, {"time": 1822, "pitch": 76, "duration": 4, "velocity": 84}, {"time": 1828, "pitch": 76, "duration": 5, "velocity": 82}, {"time": 1834, "pitch": 74, "duration": 18, "velocity": 85}, {"time": 2002, "pitch": 69, "duration": 5, "velocity": 87}, {"time": 2008, "pitch": 81, "duration": 5, "velocity": 84}, {"time": 2014, "pitch": 79, "duration": 4, "velocity": 82}, {"time": 2020, "pitch": 78, "duration": 2, "velocity": 83}, {"time": 2023, "pitch": 78, "duration": 2, "velocity": 81}, {"time": 2026, "pitch": 69, "duration": 2, "velocity": 85}, {"time": 2029, "pitch": 69, "duration": 3, "velocity": 74}, {"time": 2032, "pitch": 78, "duration": 4, "velocity": 86}, {"time": 2041, "pitch": 74, "duration": 2, "velocity": 83}, {"time": 2044, "pitch": 76, "duration": 2, "velocity": 76}, {"time": 2047, "pitch": 76, "duration": 2, "velocity": 83}, {"time": 2050, "pitch": 69, "duration": 2, "velocity": 83}, {"time": 2053, "pitch": 69, "duration": 2, "velocity": 76}, {"time": 2056, "pitch": 76, "duration": 8, "velocity": 80}, {"time": 2065, "pitch": 73, "duration": 3, "velocity": 78}, {"time": 2068, "pitch": 74, "duration": 2, "velocity": 85}, {"time": 2071, "pitch": 74, "duration": 2, "velocity": 85}, {"time": 2074, "pitch": 66, "duration": 2, "velocity": 83}, {"time": 2077, "pitch": 66, "duration": 2, "velocity": 84}, {"time": 2080, "pitch": 74, "duration": 2, "velocity": 86}, {"time": 2083, "pitch": 74, "duration": 2, "velocity": 84}, {"time": 2086, "pitch": 76, "duration": 2, "velocity": 79}, {"time": 2089, "pitch": 74, "duration": 2, "velocity": 85}, {"time": 2092, "pitch": 73, "duration": 2, "velocity": 76}, {"time": 2095, "pitch": 73, "duration": 2, "velocity": 71}, {"time": 2098, "pitch": 69, "duration": 2, "velocity": 78}, {"time": 2101, "pitch": 69, "duration": 2, "velocity": 78}, {"time": 2104, "pitch": 73, "duration": 8, "velocity": 84}, {"time": 2116, "pitch": 71, "duration": 2, "velocity": 81}, {"time": 2119, "pitch": 71, "duration": 3, "velocity": 81}, {"time": 2122, "pitch": 67, "duration": 2, "velocity": 83}, {"time": 2125, "pitch": 67, "duration": 2, "velocity": 74}, {"time": 2128, "pitch": 67, "duration": 2, "velocity": 78}, {"time": 2131, "pitch": 69, "duration": 2, "velocity": 79}, {"time": 2134, "pitch": 71, "duration": 2, "velocity": 80}, {"time": 2137, "pitch": 71, "duration": 2, "velocity": 81}, {"time": 2140, "pitch": 69, "duration": 2, "velocity": 81}, {"time": 2143, "pitch": 69, "duration": 2, "velocity": 78}, {"time": 2146, "pitch": 69, "duration": 2, "velocity": 79}, {"time": 2149, "pitch": 73, "duration": 2, "velocity": 85}, {"time": 2152, "pitch": 74, "duration": 8, "velocity": 85}, {"time": 2161, "pitch": 71, "duration": 2, "velocity": 85}, {"time": 2164, "pitch": 78, "duration": 2, "velocity": 84}, {"time": 2167, "pitch": 79, "duration": 2, "velocity": 76}, {"time": 2170, "pitch": 78, "duration": 2, "velocity": 87}, {"time": 2173, "pitch": 74, "duration": 2, "velocity": 84}, {"time": 2176, "pitch": 71, "duration": 6, "velocity": 84}, {"time": 2185, "pitch": 71, "duration": 2, "velocity": 83}, {"time": 2188, "pitch": 78, "duration": 2, "velocity": 83}, {"time": 2191, "pitch": 79, "duration": 2, "velocity": 73}, {"time": 2194, "pitch": 78, "duration": 2, "velocity": 88}, {"time": 2197, "pitch": 74, "duration": 2, "velocity": 85}, {"time": 2200, "pitch": 76, "duration": 7, "velocity": 83}, {"time": 2212, "pitch": 78, "duration": 2, "velocity": 83}, {"time": 2215, "pitch": 78, "duration": 2, "velocity": 84}, {"time": 2218, "pitch": 69, "duration": 2, "velocity": 84}, {"time": 2221, "pitch": 69, "duration": 3, "velocity": 78}, {"time": 2224, "pitch": 78, "duration": 2, "velocity": 84}, {"time": 2227, "pitch": 78, "duration": 2, "velocity": 83}, {"time": 2230, "pitch": 79, "duration": 2, "velocity": 83}, {"time": 2233, "pitch": 74, "duration": 1, "velocity": 81}, {"time": 2236, "pitch": 76, "duration": 2, "velocity": 79}, {"time": 2239, "pitch": 76, "duration": 1, "velocity": 80}, {"time": 2242, "pitch": 76, "duration": 2, "velocity": 83}, {"time": 2245, "pitch": 76, "duration": 2, "velocity": 83}, {"time": 2248, "pitch": 81, "duration": 9, "velocity": 83}, {"time": 2260, "pitch": 83, "duration": 2, "velocity": 82}, {"time": 2263, "pitch": 78, "duration": 2, "velocity": 84}, {"time": 2266, "pitch": 78, "duration": 2, "velocity": 82}, {"time": 2269, "pitch": 78, "duration": 2, "velocity": 84}, {"time": 2272, "pitch": 78, "duration": 2, "velocity": 83}, {"time": 2275, "pitch": 78, "duration": 2, "velocity": 88}, {"time": 2278, "pitch": 83, "duration": 2, "velocity": 84}, {"time": 2281, "pitch": 83, "duration": 2, "velocity": 85}, {"time": 2284, "pitch": 81, "duration": 2, "velocity": 79}, {"time": 2287, "pitch": 81, "duration": 2, "velocity": 79}, {"time": 2290, "pitch": 78, "duration": 2, "velocity": 81}, {"time": 2293, "pitch": 76, "duration": 2, "velocity": 83}, {"time": 2296, "pitch": 78, "duration": 8, "velocity": 83}, {"time": 2308, "pitch": 74, "duration": 2, "velocity": 84}, {"time": 2311, "pitch": 74, "duration": 2, "velocity": 84}, {"time": 2314, "pitch": 74, "duration": 2, "velocity": 85}, {"time": 2317, "pitch": 74, "duration": 2, "velocity": 87}, {"time": 2320, "pitch": 74, "duration": 2, "velocity": 89}, {"time": 2323, "pitch": 76, "duration": 2, "velocity": 84}, {"time": 2326, "pitch": 78, "duration": 2, "velocity": 84}, {"time": 2329, "pitch": 79, "duration": 2, "velocity": 79}, {"time": 2332, "pitch": 81, "duration": 5, "velocity": 82}, {"time": 2338, "pitch": 78, "duration": 2, "velocity": 79}, {"time": 2341, "pitch": 76, "duration": 2, "velocity": 80}, {"time": 2344, "pitch": 74, "duration": 5, "velocity": 85}, {"time": 2350, "pitch": 71, "duration": 4, "velocity": 84}, {"time": 2356, "pitch": 76, "duration": 14, "velocity": 81}, {"time": 2374, "pitch": 71, "duration": 2, "velocity": 85}, {"time": 2377, "pitch": 73, "duration": 2, "velocity": 83}, {"time": 2380, "pitch": 74, "duration": 5, "velocity": 84}, {"time": 2386, "pitch": 73, "duration": 4, "velocity": 84}, {"time": 2392, "pitch": 78, "duration": 5, "velocity": 87}, {"time": 2398, "pitch": 76, "duration": 4, "velocity": 84}, {"time": 2404, "pitch": 76, "duration": 5, "velocity": 82}, {"time": 2410, "pitch": 74, "duration": 18, "velocity": 85}]}, {"program": 0, "is_drum": false, "name": "PIANO", "notes": [{"time": 4, "pitch": 50, "duration": 18, "velocity": 67}, {"time": 4, "pitch": 62, "duration": 14, "velocity": 70}, {"time": 4, "pitch": 66, "duration": 16, "velocity": 71}, {"time": 16, "pitch": 57, "duration": 8, "velocity": 55}, {"time": 19, "pitch": 62, "duration": 4, "velocity": 71}, {"time": 22, "pitch": 66, "duration": 2, "velocity": 77}, {"time": 28, "pitch": 49, "duration": 14, "velocity": 76}, {"time": 28, "pitch": 61, "duration": 12, "velocity": 58}, {"time": 28, "pitch": 64, "duration": 14, "velocity": 75}, {"time": 52, "pitch": 47, "duration": 16, "velocity": 73}, {"time": 52, "pitch": 59, "duration": 8, "velocity": 62}, {"time": 52, "pitch": 62, "duration": 8, "velocity": 69}, {"time": 58, "pitch": 54, "duration": 8, "velocity": 51}, {"time": 64, "pitch": 59, "duration": 2, "velocity": 70}, {"time": 64, "pitch": 62, "duration": 5, "velocity": 74}, {"time": 64, "pitch": 66, "duration": 6, "velocity": 72}, {"time": 70, "pitch": 59, "duration": 2, "velocity": 48}, {"time": 76, "pitch": 43, "duration": 19, "velocity": 61}, {"time": 76, "pitch": 55, "duration": 9, "velocity": 67}, {"time": 76, "pitch": 59, "duration": 9, "velocity": 67}, {"time": 88, "pitch": 55, "duration": 4, "velocity": 76}, {"time": 88, "pitch": 59, "duration": 11, "velocity": 79}, {"time": 88, "pitch": 62, "duration": 11, "velocity": 77}, {"time": 94, "pitch": 55, "duration": 6, "velocity": 83}, {"time": 100, "pitch": 52, "duration": 24, "velocity": 74}, {"time": 100, "pitch": 59, "duration": 4, "velocity": 68}, {"time": 100, "pitch": 64, "duration": 7, "velocity": 70}, {"time": 106, "pitch": 59, "duration": 10, "velocity": 68}, {"time": 112, "pitch": 64, "duration": 11, "velocity": 78}, {"time": 112, "pitch": 67, "duration": 12, "velocity": 76}, {"time": 124, "pitch": 43, "duration": 8, "velocity": 67}, {"time": 124, "pitch": 55, "duration": 5, "velocity": 72}, {"time": 124, "pitch": 59, "duration": 13, "velocity": 72}, {"time": 136, "pitch": 45, "duration": 12, "velocity": 74}, {"time": 136, "pitch": 57, "duration": 12, "velocity": 68}, {"time": 136, "pitch": 61, "duration": 11, "velocity": 75}, {"time": 148, "pitch": 50, "duration": 18, "velocity": 78}, {"time": 148, "pitch": 57, "duration": 4, "velocity": 70}, {"time": 148, "pitch": 62, "duration": 13, "velocity": 73}, {"time": 154, "pitch": 57, "duration": 7, "velocity": 76}, {"time": 160, "pitch": 66, "duration": 7, "velocity": 75}, {"time": 166, "pitch": 57, "duration": 12, "velocity": 83}, {"time": 172, "pitch": 45, "duration": 17, "velocity": 68}, {"time": 172, "pitch": 61, "duration": 9, "velocity": 73}, {"time": 178, "pitch": 52, "duration": 12, "velocity": 71}, {"time": 184, "pitch": 64, "duration": 6, "velocity": 80}, {"time": 196, "pitch": 47, "duration": 19, "velocity": 71}, {"time": 196, "pitch": 62, "duration": 9, "velocity": 76}, {"time": 202, "pitch": 54, "duration": 12, "velocity": 66}, {"time": 208, "pitch": 59, "duration": 3, "velocity": 77}, {"time": 208, "pitch": 66, "duration": 8, "velocity": 72}, {"time": 214, "pitch": 59, "duration": 7, "velocity": 74}, {"time": 220, "pitch": 45, "duration": 17, "velocity": 74}, {"time": 220, "pitch": 61, "duration": 12, "velocity": 74}, {"time": 226, "pitch": 52, "duration": 11, "velocity": 66}, {"time": 232, "pitch": 57, "duration": 5, "velocity": 84}, {"time": 244, "pitch": 43, "duration": 16, "velocity": 78}, {"time": 244, "pitch": 55, "duration": 12, "velocity": 72}, {"time": 244, "pitch": 59, "duration": 13, "velocity": 76}, {"time": 250, "pitch": 50, "duration": 11, "velocity": 69}, {"time": 256, "pitch": 62, "duration": 6, "velocity": 84}, {"time": 262, "pitch": 55, "duration": 2, "velocity": 84}, {"time": 268, "pitch": 50, "duration": 14, "velocity": 81}, {"time": 268, "pitch": 57, "duration": 3, "velocity": 74}, {"time": 268, "pitch": 62, "duration": 13, "velocity": 78}, {"time": 274, "pitch": 57, "duration": 8, "velocity": 78}, {"time": 280, "pitch": 66, "duration": 3, "velocity": 83}, {"time": 292, "pitch": 40, "duration": 15, "velocity": 81}, {"time": 292, "pitch": 59, "duration": 13, "velocity": 72}, {"time": 292, "pitch": 67, "duration": 13, "velocity": 73}, {"time": 298, "pitch": 47, "duration": 8, "velocity": 63}, {"time": 304, "pitch": 64, "duration": 6, "velocity": 84}, {"time": 310, "pitch": 59, "duration": 3, "velocity": 84}, {"time": 316, "pitch": 45, "duration": 22, "velocity": 81}, {"time": 316, "pitch": 57, "duration": 8, "velocity": 73}, {"time": 316, "pitch": 61, "duration": 8, "velocity": 69}, {"time": 322, "pitch": 52, "duration": 10, "velocity": 77}, {"time": 328, "pitch": 57, "duration": 10, "velocity": 84}, {"time": 334, "pitch": 52, "duration": 5, "velocity": 77}, {"time": 340, "pitch": 50, "duration": 10, "velocity": 79}, {"time": 343, "pitch": 57, "duration": 7, "velocity": 73}, {"time": 346, "pitch": 62, "duration": 4, "velocity": 77}, {"time": 349, "pitch": 66, "duration": 6, "velocity": 69}, {"time": 352, "pitch": 49, "duration": 8, "velocity": 76}, {"time": 355, "pitch": 61, "duration": 4, "velocity": 70}, {"time": 358, "pitch": 57, "duration": 5, "velocity": 75}, {"time": 361, "pitch": 61, "duration": 3, "velocity": 70}, {"time": 364, "pitch": 47, "duration": 21, "velocity": 83}, {"time": 367, "pitch": 59, "duration": 7, "velocity": 75}, {"time": 370, "pitch": 62, "duration": 7, "velocity": 77}, {"time": 373, "pitch": 54, "duration": 8, "velocity": 61}, {"time": 376, "pitch": 66, "duration": 15, "velocity": 76}, {"time": 388, "pitch": 47, "duration": 7, "velocity": 81}, {"time": 391, "pitch": 54, "duration": 4, "velocity": 75}, {"time": 394, "pitch": 59, "duration": 4, "velocity": 79}, {"time": 397, "pitch": 62, "duration": 9, "velocity": 76}, {"time": 400, "pitch": 45, "duration": 10, "velocity": 83}, {"time": 403, "pitch": 52, "duration": 7, "velocity": 76}, {"time": 406, "pitch": 57, "duration": 5, "velocity": 73}, {"time": 412, "pitch": 43, "duration": 16, "velocity": 79}, {"time": 412, "pitch": 55, "duration": 8, "velocity": 76}, {"time": 418, "pitch": 50, "duration": 9, "velocity": 70}, {"time": 424, "pitch": 55, "duration": 5, "velocity": 79}, {"time": 424, "pitch": 59, "duration": 4, "velocity": 80}, {"time": 436, "pitch": 40, "duration": 16, "velocity": 83}, {"time": 439, "pitch": 47, "duration": 10, "velocity": 75}, {"time": 442, "pitch": 52, "duration": 7, "velocity": 75}, {"time": 445, "pitch": 55, "duration": 4, "velocity": 74}, {"time": 448, "pitch": 59, "duration": 7, "velocity": 83}, {"time": 451, "pitch": 47, "duration": 2, "velocity": 72}, {"time": 454, "pitch": 52, "duration": 1, "velocity": 77}, {"time": 460, "pitch": 42, "duration": 16, "velocity": 80}, {"time": 460, "pitch": 54, "duration": 4, "velocity": 70}, {"time": 460, "pitch": 61, "duration": 6, "velocity": 77}, {"time": 463, "pitch": 49, "duration": 11, "velocity": 70}, {"time": 466, "pitch": 54, "duration": 6, "velocity": 78}, {"time": 469, "pitch": 57, "duration": 4, "velocity": 78}, {"time": 472, "pitch": 66, "duration": 6, "velocity": 77}, {"time": 475, "pitch": 49, "duration": 2, "velocity": 71}, {"time": 478, "pitch": 54, "duration": 1, "velocity": 83}, {"time": 484, "pitch": 43, "duration": 19, "velocity": 82}, {"time": 484, "pitch": 55, "duration": 3, "velocity": 72}, {"time": 484, "pitch": 59, "duration": 10, "velocity": 77}, {"time": 487, "pitch": 50, "duration": 15, "velocity": 74}, {"time": 490, "pitch": 55, "duration": 4, "velocity": 77}, {"time": 493, "pitch": 62, "duration": 4, "velocity": 76}, {"time": 496, "pitch": 67, "duration": 7, "velocity": 83}, {"time": 499, "pitch": 62, "duration": 4, "velocity": 83}, {"time": 502, "pitch": 55, "duration": 4, "velocity": 84}, {"time": 505, "pitch": 62, "duration": 4, "velocity": 76}, {"time": 508, "pitch": 45, "duration": 22, "velocity": 84}, {"time": 511, "pitch": 52, "duration": 18, "velocity": 75}, {"time": 514, "pitch": 57, "duration": 3, "velocity": 79}, {"time": 517, "pitch": 61, "duration": 2, "velocity": 74}, {"time": 520, "pitch": 62, "duration": 4, "velocity": 77}, {"time": 523, "pitch": 64, "duration": 3, "velocity": 83}, {"time": 526, "pitch": 66, "duration": 2, "velocity": 85}, {"time": 532, "pitch": 50, "duration": 21, "velocity": 83}, {"time": 532, "pitch": 57, "duration": 3, "velocity": 68}, {"time": 532, "pitch": 66, "duration": 9, "velocity": 78}, {"time": 538, "pitch": 57, "duration": 7, "velocity": 74}, {"time": 544, "pitch": 66, "duration": 6, "velocity": 88}, {"time": 547, "pitch": 57, "duration": 4, "velocity": 74}, {"time": 550, "pitch": 62, "duration": 3, "velocity": 73}, {"time": 553, "pitch": 57, "duration": 5, "velocity": 65}, {"time": 556, "pitch": 45, "duration": 17, "velocity": 75}, {"time": 556, "pitch": 64, "duration": 8, "velocity": 79}, {"time": 562, "pitch": 52, "duration": 9, "velocity": 70}, {"time": 568, "pitch": 61, "duration": 9, "velocity": 87}, {"time": 571, "pitch": 49, "duration": 7, "velocity": 64}, {"time": 574, "pitch": 52, "duration": 5, "velocity": 77}, {"time": 577, "pitch": 57, "duration": 2, "velocity": 83}, {"time": 580, "pitch": 47, "duration": 18, "velocity": 83}, {"time": 580, "pitch": 62, "duration": 8, "velocity": 83}, {"time": 586, "pitch": 54, "duration": 7, "velocity": 70}, {"time": 589, "pitch": 59, "duration": 4, "velocity": 83}, {"time": 592, "pitch": 66, "duration": 6, "velocity": 83}, {"time": 595, "pitch": 54, "duration": 3, "velocity": 72}, {"time": 598, "pitch": 59, "duration": 4, "velocity": 79}, {"time": 601, "pitch": 62, "duration": 4, "velocity": 70}, {"time": 604, "pitch": 45, "duration": 17, "velocity": 78}, {"time": 604, "pitch": 61, "duration": 10, "velocity": 84}, {"time": 610, "pitch": 52, "duration": 8, "velocity": 76}, {"time": 616, "pitch": 57, "duration": 6, "velocity": 80}, {"time": 616, "pitch": 61, "duration": 6, "velocity": 82}, {"time": 622, "pitch": 52, "duration": 5, "velocity": 78}, {"time": 628, "pitch": 43, "duration": 19, "velocity": 79}, {"time": 628, "pitch": 55, "duration": 3, "velocity": 76}, {"time": 628, "pitch": 59, "duration": 5, "velocity": 77}, {"time": 631, "pitch": 50, "duration": 13, "velocity": 76}, {"time": 634, "pitch": 55, "duration": 4, "velocity": 80}, {"time": 637, "pitch": 62, "duration": 5, "velocity": 78}, {"time": 640, "pitch": 67, "duration": 7, "velocity": 79}, {"time": 643, "pitch": 55, "duration": 4, "velocity": 83}, {"time": 646, "pitch": 62, "duration": 3, "velocity": 76}, {"time": 649, "pitch": 55, "duration": 2, "velocity": 76}, {"time": 652, "pitch": 42, "duration": 6, "velocity": 72}, {"time": 652, "pitch": 61, "duration": 6, "velocity": 70}, {"time": 655, "pitch": 49, "duration": 4, "velocity": 66}, {"time": 658, "pitch": 57, "duration": 4, "velocity": 83}, {"time": 661, "pitch": 61, "duration": 2, "velocity": 83}, {"time": 664, "pitch": 47, "duration": 12, "velocity": 67}, {"time": 664, "pitch": 62, "duration": 6, "velocity": 75}, {"time": 667, "pitch": 54, "duration": 9, "velocity": 69}, {"time": 670, "pitch": 59, "duration": 6, "velocity": 81}, {"time": 676, "pitch": 43, "duration": 10, "velocity": 76}, {"time": 676, "pitch": 55, "duration": 4, "velocity": 73}, {"time": 676, "pitch": 62, "duration": 8, "velocity": 79}, {"time": 679, "pitch": 50, "duration": 6, "velocity": 71}, {"time": 682, "pitch": 55, "duration": 4, "velocity": 81}, {"time": 685, "pitch": 59, "duration": 3, "velocity": 83}, {"time": 688, "pitch": 62, "duration": 7, "velocity": 85}, {"time": 691, "pitch": 55, "duration": 2, "velocity": 71}, {"time": 694, "pitch": 59, "duration": 3, "velocity": 74}, {"time": 697, "pitch": 55, "duration": 1, "velocity": 71}, {"time": 700, "pitch": 45, "duration": 19, "velocity": 76}, {"time": 700, "pitch": 57, "duration": 3, "velocity": 70}, {"time": 700, "pitch": 61, "duration": 6, "velocity": 77}, {"time": 703, "pitch": 52, "duration": 13, "velocity": 76}, {"time": 706, "pitch": 57, "duration": 6, "velocity": 82}, {"time": 709, "pitch": 61, "duration": 2, "velocity": 83}, {"time": 712, "pitch": 64, "duration": 4, "velocity": 84}, {"time": 715, "pitch": 57, "duration": 4, "velocity": 83}, {"time": 718, "pitch": 61, "duration": 4, "velocity": 84}, {"time": 721, "pitch": 57, "duration": 3, "velocity": 84}, {"time": 724, "pitch": 50, "duration": 21, "velocity": 83}, {"time": 724, "pitch": 57, "duration": 3, "velocity": 68}, {"time": 724, "pitch": 66, "duration": 9, "velocity": 78}, {"time": 730, "pitch": 57, "duration": 7, "velocity": 74}, {"time": 736, "pitch": 66, "duration": 6, "velocity": 88}, {"time": 739, "pitch": 57, "duration": 4, "velocity": 74}, {"time": 742, "pitch": 62, "duration": 3, "velocity": 73}, {"time": 745, "pitch": 57, "duration": 5, "velocity": 65}, {"time": 748, "pitch": 45, "duration": 17, "velocity": 75}, {"time": 748, "pitch": 64, "duration": 8, "velocity": 79}, {"time": 754, "pitch": 52, "duration": 9, "velocity": 70}, {"time": 760, "pitch": 61, "duration": 9, "velocity": 87}, {"time": 763, "pitch": 49, "duration": 7, "velocity": 64}, {"time": 766, "pitch": 52, "duration": 5, "velocity": 77}, {"time": 769, "pitch": 57, "duration": 2, "velocity": 83}, {"time": 772, "pitch": 47, "duration": 18, "velocity": 83}, {"time": 772, "pitch": 62, "duration": 8, "velocity": 83}, {"time": 778, "pitch": 54, "duration": 7, "velocity": 70}, {"time": 781, "pitch": 59, "duration": 4, "velocity": 83}, {"time": 784, "pitch": 66, "duration": 6, "velocity": 83}, {"time": 787, "pitch": 54, "duration": 3, "velocity": 72}, {"time": 790, "pitch": 59, "duration": 4, "velocity": 79}, {"time": 793, "pitch": 62, "duration": 4, "velocity": 70}, {"time": 796, "pitch": 45, "duration": 17, "velocity": 78}, {"time": 796, "pitch": 61, "duration": 10, "velocity": 84}, {"time": 802, "pitch": 52, "duration": 8, "velocity": 76}, {"time": 808, "pitch": 57, "duration": 6, "velocity": 80}, {"time": 808, "pitch": 61, "duration": 6, "velocity": 82}, {"time": 814, "pitch": 52, "duration": 5, "velocity": 78}, {"time": 820, "pitch": 43, "duration": 19, "velocity": 79}, {"time": 820, "pitch": 55, "duration": 3, "velocity": 76}, {"time": 820, "pitch": 59, "duration": 5, "velocity": 77}, {"time": 823, "pitch": 50, "duration": 13, "velocity": 76}, {"time": 826, "pitch": 55, "duration": 4, "velocity": 80}, {"time": 829, "pitch": 62, "duration": 5, "velocity": 78}, {"time": 832, "pitch": 67, "duration": 7, "velocity": 79}, {"time": 835, "pitch": 55, "duration": 4, "velocity": 83}, {"time": 838, "pitch": 62, "duration": 3, "velocity": 76}, {"time": 841, "pitch": 55, "duration": 2, "velocity": 76}, {"time": 844, "pitch": 42, "duration": 6, "velocity": 72}, {"time": 844, "pitch": 61, "duration": 6, "velocity": 70}, {"time": 847, "pitch": 49, "duration": 4, "velocity": 66}, {"time": 850, "pitch": 57, "duration": 4, "velocity": 83}, {"time": 853, "pitch": 61, "duration": 2, "velocity": 83}, {"time": 856, "pitch": 47, "duration": 12, "velocity": 67}, {"time": 856, "pitch": 62, "duration": 6, "velocity": 75}, {"time": 859, "pitch": 54, "duration": 9, "velocity": 69}, {"time": 862, "pitch": 59, "duration": 6, "velocity": 81}, {"time": 868, "pitch": 44, "duration": 18, "velocity": 83}, {"time": 871, "pitch": 56, "duration": 6, "velocity": 72}, {"time": 874, "pitch": 59, "duration": 4, "velocity": 74}, {"time": 877, "pitch": 64, "duration": 5, "velocity": 85}, {"time": 880, "pitch": 56, "duration": 6, "velocity": 72}, {"time": 883, "pitch": 59, "duration": 8, "velocity": 72}, {"time": 886, "pitch": 64, "duration": 9, "velocity": 74}, {"time": 889, "pitch": 56, "duration": 3, "velocity": 63}, {"time": 892, "pitch": 45, "duration": 19, "velocity": 83}, {"time": 895, "pitch": 52, "duration": 9, "velocity": 79}, {"time": 898, "pitch": 55, "duration": 4, "velocity": 67}, {"time": 901, "pitch": 61, "duration": 7, "velocity": 85}, {"time": 904, "pitch": 49, "duration": 8, "velocity": 80}, {"time": 907, "pitch": 52, "duration": 7, "velocity": 78}, {"time": 910, "pitch": 57, "duration": 4, "velocity": 83}, {"time": 915, "pitch": 62, "duration": 2, "velocity": 68}, {"time": 916, "pitch": 50, "duration": 4, "velocity": 71}, {"time": 916, "pitch": 66, "duration": 2, "velocity": 68}, {"time": 916, "pitch": 69, "duration": 4, "velocity": 74}, {"time": 927, "pitch": 61, "duration": 3, "velocity": 67}, {"time": 928, "pitch": 49, "duration": 2, "velocity": 77}, {"time": 928, "pitch": 64, "duration": 3, "velocity": 76}, {"time": 929, "pitch": 69, "duration": 3, "velocity": 75}, {"time": 938, "pitch": 59, "duration": 3, "velocity": 64}, {"time": 939, "pitch": 62, "duration": 2, "velocity": 73}, {"time": 940, "pitch": 47, "duration": 2, "velocity": 75}, {"time": 940, "pitch": 66, "duration": 2, "velocity": 72}, {"time": 948, "pitch": 57, "duration": 7, "velocity": 60}, {"time": 948, "pitch": 61, "duration": 6, "velocity": 72}, {"time": 949, "pitch": 45, "duration": 8, "velocity": 73}, {"time": 949, "pitch": 64, "duration": 6, "velocity": 72}, {"time": 964, "pitch": 43, "duration": 8, "velocity": 83}, {"time": 967, "pitch": 50, "duration": 4, "velocity": 77}, {"time": 970, "pitch": 55, "duration": 5, "velocity": 84}, {"time": 973, "pitch": 59, "duration": 4, "velocity": 81}, {"time": 976, "pitch": 42, "duration": 7, "velocity": 88}, {"time": 979, "pitch": 49, "duration": 4, "velocity": 76}, {"time": 982, "pitch": 57, "duration": 4, "velocity": 81}, {"time": 985, "pitch": 61, "duration": 1, "velocity": 73}, {"time": 988, "pitch": 43, "duration": 7, "velocity": 84}, {"time": 988, "pitch": 55, "duration": 4, "velocity": 80}, {"time": 988, "pitch": 59, "duration": 6, "velocity": 82}, {"time": 991, "pitch": 50, "duration": 4, "velocity": 58}, {"time": 994, "pitch": 55, "duration": 4, "velocity": 83}, {"time": 997, "pitch": 59, "duration": 2, "velocity": 83}, {"time": 1000, "pitch": 45, "duration": 8, "velocity": 84}, {"time": 1000, "pitch": 57, "duration": 4, "velocity": 79}, {"time": 1000, "pitch": 61, "duration": 5, "velocity": 87}, {"time": 1003, "pitch": 52, "duration": 4, "velocity": 75}, {"time": 1006, "pitch": 57, "duration": 2, "velocity": 84}, {"time": 1012, "pitch": 48, "duration": 16, "velocity": 88}, {"time": 1012, "pitch": 55, "duration": 4, "velocity": 83}, {"time": 1012, "pitch": 60, "duration": 4, "velocity": 84}, {"time": 1012, "pitch": 64, "duration": 5, "velocity": 84}, {"time": 1018, "pitch": 60, "duration": 4, "velocity": 78}, {"time": 1021, "pitch": 55, "duration": 2, "velocity": 76}, {"time": 1024, "pitch": 60, "duration": 4, "velocity": 84}, {"time": 1027, "pitch": 55, "duration": 2, "velocity": 83}, {"time": 1030, "pitch": 48, "duration": 1, "velocity": 83}, {"time": 1030, "pitch": 64, "duration": 5, "velocity": 88}, {"time": 1033, "pitch": 55, "duration": 2, "velocity": 83}, {"time": 1036, "pitch": 45, "duration": 24, "velocity": 84}, {"time": 1036, "pitch": 57, "duration": 3, "velocity": 84}, {"time": 1036, "pitch": 61, "duration": 4, "velocity": 76}, {"time": 1039, "pitch": 52, "duration": 21, "velocity": 82}, {"time": 1042, "pitch": 57, "duration": 4, "velocity": 84}, {"time": 1045, "pitch": 64, "duration": 2, "velocity": 84}, {"time": 1048, "pitch": 69, "duration": 8, "velocity": 74}, {"time": 1051, "pitch": 57, "duration": 3, "velocity": 80}, {"time": 1054, "pitch": 61, "duration": 6, "velocity": 71}, {"time": 1057, "pitch": 57, "duration": 3, "velocity": 66}, {"time": 1060, "pitch": 50, "duration": 18, "velocity": 78}, {"time": 1060, "pitch": 57, "duration": 4, "velocity": 70}, {"time": 1060, "pitch": 62, "duration": 13, "velocity": 73}, {"time": 1066, "pitch": 57, "duration": 7, "velocity": 76}, {"time": 1072, "pitch": 66, "duration": 7, "velocity": 75}, {"time": 1078, "pitch": 57, "duration": 12, "velocity": 83}, {"time": 1084, "pitch": 45, "duration": 17, "velocity": 68}, {"time": 1084, "pitch": 61, "duration": 9, "velocity": 73}, {"time": 1090, "pitch": 52, "duration": 12, "velocity": 71}, {"time": 1096, "pitch": 64, "duration": 6, "velocity": 80}, {"time": 1108, "pitch": 47, "duration": 19, "velocity": 71}, {"time": 1108, "pitch": 62, "duration": 9, "velocity": 76}, {"time": 1114, "pitch": 54, "duration": 12, "velocity": 66}, {"time": 1120, "pitch": 59, "duration": 3, "velocity": 77}, {"time": 1120, "pitch": 66, "duration": 8, "velocity": 72}, {"time": 1126, "pitch": 59, "duration": 7, "velocity": 74}, {"time": 1132, "pitch": 45, "duration": 17, "velocity": 74}, {"time": 1132, "pitch": 61, "duration": 12, "velocity": 74}, {"time": 1138, "pitch": 52, "duration": 11, "velocity": 66}, {"time": 1144, "pitch": 57, "duration": 5, "velocity": 84}, {"time": 1156, "pitch": 43, "duration": 16, "velocity": 78}, {"time": 1156, "pitch": 55, "duration": 12, "velocity": 72}, {"time": 1156, "pitch": 59, "duration": 13, "velocity": 76}, {"time": 1162, "pitch": 50, "duration": 11, "velocity": 69}, {"time": 1168, "pitch": 62, "duration": 6, "velocity": 84}, {"time": 1174, "pitch": 55, "duration": 2, "velocity": 84}, {"time": 1180, "pitch": 50, "duration": 14, "velocity": 81}, {"time": 1180, "pitch": 57, "duration": 3, "velocity": 74}, {"time": 1180, "pitch": 62, "duration": 13, "velocity": 78}, {"time": 1186, "pitch": 57, "duration": 8, "velocity": 78}, {"time": 1192, "pitch": 66, "duration": 3, "velocity": 83}, {"time": 1204, "pitch": 40, "duration": 15, "velocity": 81}, {"time": 1204, "pitch": 59, "duration": 13, "velocity": 72}, {"time": 1204, "pitch": 67, "duration": 13, "velocity": 73}, {"time": 1210, "pitch": 47, "duration": 8, "velocity": 63}, {"time": 1216, "pitch": 64, "duration": 6, "velocity": 84}, {"time": 1222, "pitch": 59, "duration": 3, "velocity": 84}, {"time": 1228, "pitch": 45, "duration": 22, "velocity": 81}, {"time": 1228, "pitch": 57, "duration": 8, "velocity": 73}, {"time": 1228, "pitch": 61, "duration": 8, "velocity": 69}, {"time": 1234, "pitch": 52, "duration": 10, "velocity": 77}, {"time": 1240, "pitch": 57, "duration": 10, "velocity": 84}, {"time": 1246, "pitch": 52, "duration": 5, "velocity": 77}, {"time": 1252, "pitch": 50, "duration": 10, "velocity": 79}, {"time": 1255, "pitch": 57, "duration": 7, "velocity": 73}, {"time": 1258, "pitch": 62, "duration": 4, "velocity": 77}, {"time": 1261, "pitch": 66, "duration": 6, "velocity": 69}, {"time": 1264, "pitch": 49, "duration": 8, "velocity": 76}, {"time": 1267, "pitch": 61, "duration": 4, "velocity": 70}, {"time": 1270, "pitch": 57, "duration": 5, "velocity": 75}, {"time": 1273, "pitch": 61, "duration": 3, "velocity": 70}, {"time": 1276, "pitch": 47, "duration": 21, "velocity": 83}, {"time": 1279, "pitch": 59, "duration": 7, "velocity": 75}, {"time": 1282, "pitch": 62, "duration": 7, "velocity": 77}, {"time": 1285, "pitch": 54, "duration": 8, "velocity": 61}, {"time": 1288, "pitch": 66, "duration": 15, "velocity": 76}, {"time": 1300, "pitch": 47, "duration": 7, "velocity": 81}, {"time": 1303, "pitch": 54, "duration": 4, "velocity": 75}, {"time": 1306, "pitch": 59, "duration": 4, "velocity": 79}, {"time": 1309, "pitch": 62, "duration": 9, "velocity": 76}, {"time": 1312, "pitch": 45, "duration": 10, "velocity": 83}, {"time": 1315, "pitch": 52, "duration": 7, "velocity": 76}, {"time": 1318, "pitch": 57, "duration": 5, "velocity": 73}, {"time": 1324, "pitch": 43, "duration": 16, "velocity": 79}, {"time": 1324, "pitch": 55, "duration": 8, "velocity": 76}, {"time": 1330, "pitch": 50, "duration": 9, "velocity": 70}, {"time": 1336, "pitch": 55, "duration": 5, "velocity": 79}, {"time": 1336, "pitch": 59, "duration": 4, "velocity": 80}, {"time": 1348, "pitch": 40, "duration": 16, "velocity": 83}, {"time": 1351, "pitch": 47, "duration": 10, "velocity": 75}, {"time": 1354, "pitch": 52, "duration": 7, "velocity": 75}, {"time": 1357, "pitch": 55, "duration": 4, "velocity": 74}, {"time": 1360, "pitch": 59, "duration": 7, "velocity": 83}, {"time": 1363, "pitch": 47, "duration": 2, "velocity": 72}, {"time": 1366, "pitch": 52, "duration": 1, "velocity": 77}, {"time": 1372, "pitch": 42, "duration": 16, "velocity": 80}, {"time": 1372, "pitch": 54, "duration": 4, "velocity": 70}, {"time": 1372, "pitch": 61, "duration": 6, "velocity": 77}, {"time": 1375, "pitch": 49, "duration": 11, "velocity": 70}, {"time": 1378, "pitch": 54, "duration": 6, "velocity": 78}, {"time": 1381, "pitch": 57, "duration": 4, "velocity": 78}, {"time": 1384, "pitch": 66, "duration": 6, "velocity": 77}, {"time": 1387, "pitch": 49, "duration": 2, "velocity": 71}, {"time": 1390, "pitch": 54, "duration": 1, "velocity": 83}, {"time": 1396, "pitch": 43, "duration": 19, "velocity": 82}, {"time": 1396, "pitch": 55, "duration": 3, "velocity": 72}, {"time": 1396, "pitch": 59, "duration": 10, "velocity": 77}, {"time": 1399, "pitch": 50, "duration": 15, "velocity": 74}, {"time": 1402, "pitch": 55, "duration": 4, "velocity": 77}, {"time": 1405, "pitch": 62, "duration": 4, "velocity": 76}, {"time": 1408, "pitch": 67, "duration": 7, "velocity": 83}, {"time": 1411, "pitch": 62, "duration": 4, "velocity": 83}, {"time": 1414, "pitch": 55, "duration": 4, "velocity": 84}, {"time": 1417, "pitch": 62, "duration": 4, "velocity": 76}, {"time": 1420, "pitch": 45, "duration": 22, "velocity": 84}, {"time": 1423, "pitch": 52, "duration": 18, "velocity": 75}, {"time": 1426, "pitch": 57, "duration": 3, "velocity": 79}, {"time": 1429, "pitch": 61, "duration": 2, "velocity": 74}, {"time": 1432, "pitch": 62, "duration": 4, "velocity": 77}, {"time": 1435, "pitch": 64, "duration": 3, "velocity": 83}, {"time": 1438, "pitch": 66, "duration": 2, "velocity": 85}, {"time": 1444, "pitch": 50, "duration": 21, "velocity": 83}, {"time": 1444, "pitch": 57, "duration": 3, "velocity": 68}, {"time": 1444, "pitch": 66, "duration": 9, "velocity": 78}, {"time": 1450, "pitch": 57, "duration": 7, "velocity": 74}, {"time": 1456, "pitch": 66, "duration": 6, "velocity": 88}, {"time": 1459, "pitch": 57, "duration": 4, "velocity": 74}, {"time": 1462, "pitch": 62, "duration": 3, "velocity": 73}, {"time": 1465, "pitch": 57, "duration": 5, "velocity": 65}, {"time": 1468, "pitch": 45, "duration": 17, "velocity": 75}, {"time": 1468, "pitch": 64, "duration": 8, "velocity": 79}, {"time": 1474, "pitch": 52, "duration": 9, "velocity": 70}, {"time": 1480, "pitch": 61, "duration": 9, "velocity": 87}, {"time": 1483, "pitch": 49, "duration": 7, "velocity": 64}, {"time": 1486, "pitch": 52, "duration": 5, "velocity": 77}, {"time": 1489, "pitch": 57, "duration": 2, "velocity": 83}, {"time": 1492, "pitch": 47, "duration": 18, "velocity": 83}, {"time": 1492, "pitch": 62, "duration": 8, "velocity": 83}, {"time": 1498, "pitch": 54, "duration": 7, "velocity": 70}, {"time": 1501, "pitch": 59, "duration": 4, "velocity": 83}, {"time": 1504, "pitch": 66, "duration": 6, "velocity": 83}, {"time": 1507, "pitch": 54, "duration": 3, "velocity": 72}, {"time": 1510, "pitch": 59, "duration": 4, "velocity": 79}, {"time": 1513, "pitch": 62, "duration": 4, "velocity": 70}, {"time": 1516, "pitch": 45, "duration": 17, "velocity": 78}, {"time": 1516, "pitch": 61, "duration": 10, "velocity": 84}, {"time": 1522, "pitch": 52, "duration": 8, "velocity": 76}, {"time": 1528, "pitch": 57, "duration": 6, "velocity": 80}, {"time": 1528, "pitch": 61, "duration": 6, "velocity": 82}, {"time": 1534, "pitch": 52, "duration": 5, "velocity": 78}, {"time": 1540, "pitch": 43, "duration": 19, "velocity": 79}, {"time": 1540, "pitch": 55, "duration": 3, "velocity": 76}, {"time": 1540, "pitch": 59, "duration": 5, "velocity": 77}, {"time": 1543, "pitch": 50, "duration": 13, "velocity": 76}, {"time": 1546, "pitch": 55, "duration": 4, "velocity": 80}, {"time": 1549, "pitch": 62, "duration": 5, "velocity": 78}, {"time": 1552, "pitch": 67, "duration": 7, "velocity": 79}, {"time": 1555, "pitch": 55, "duration": 4, "velocity": 83}, {"time": 1558, "pitch": 62, "duration": 3, "velocity": 76}, {"time": 1561, "pitch": 55, "duration": 2, "velocity": 76}, {"time": 1564, "pitch": 42, "duration": 6, "velocity": 72}, {"time": 1564, "pitch": 61, "duration": 6, "velocity": 70}, {"time": 1567, "pitch": 49, "duration": 4, "velocity": 66}, {"time": 1570, "pitch": 57, "duration": 4, "velocity": 83}, {"time": 1573, "pitch": 61, "duration": 2, "velocity": 83}, {"time": 1576, "pitch": 47, "duration": 12, "velocity": 67}, {"time": 1576, "pitch": 62, "duration": 6, "velocity": 75}, {"time": 1579, "pitch": 54, "duration": 9, "velocity": 69}, {"time": 1582, "pitch": 59, "duration": 6, "velocity": 81}, {"time": 1588, "pitch": 43, "duration": 10, "velocity": 76}, {"time": 1588, "pitch": 55, "duration": 4, "velocity": 73}, {"time": 1588, "pitch": 62, "duration": 8, "velocity": 79}, {"time": 1591, "pitch": 50, "duration": 6, "velocity": 71}, {"time": 1594, "pitch": 55, "duration": 4, "velocity": 81}, {"time": 1597, "pitch": 59, "duration": 3, "velocity": 83}, {"time": 1600, "pitch": 62, "duration": 7, "velocity": 85}, {"time": 1603, "pitch": 55, "duration": 2, "velocity": 71}, {"time": 1606, "pitch": 59, "duration": 3, "velocity": 74}, {"time": 1609, "pitch": 55, "duration": 1, "velocity": 71}, {"time": 1612, "pitch": 45, "duration": 19, "velocity": 76}, {"time": 1612, "pitch": 57, "duration": 3, "velocity": 70}, {"time": 1612, "pitch": 61, "duration": 6, "velocity": 77}, {"time": 1615, "pitch": 52, "duration": 13, "velocity": 76}, {"time": 1618, "pitch": 57, "duration": 6, "velocity": 82}, {"time": 1621, "pitch": 61, "duration": 2, "velocity": 83}, {"time": 1624, "pitch": 64, "duration": 4, "velocity": 84}, {"time": 1627, "pitch": 57, "duration": 4, "velocity": 83}, {"time": 1630, "pitch": 61, "duration": 4, "velocity": 84}, {"time": 1633, "pitch": 57, "duration": 3, "velocity": 84}, {"time": 1636, "pitch": 50, "duration": 21, "velocity": 83}, {"time": 1636, "pitch": 57, "duration": 3, "velocity": 68}, {"time": 1636, "pitch": 66, "duration": 9, "velocity": 78}, {"time": 1642, "pitch": 57, "duration": 7, "velocity": 74}, {"time": 1648, "pitch": 66, "duration": 6, "velocity": 88}, {"time": 1651, "pitch": 57, "duration": 4, "velocity": 74}, {"time": 1654, "pitch": 62, "duration": 3, "velocity": 73}, {"time": 1657, "pitch": 57, "duration": 5, "velocity": 65}, {"time": 1660, "pitch": 45, "duration": 17, "velocity": 75}, {"time": 1660, "pitch": 64, "duration": 8, "velocity": 79}, {"time": 1666, "pitch": 52, "duration": 9, "velocity": 70}, {"time": 1672, "pitch": 61, "duration": 9, "velocity": 87}, {"time": 1675, "pitch": 49, "duration": 7, "velocity": 64}, {"time": 1678, "pitch": 52, "duration": 5, "velocity": 77}, {"time": 1681, "pitch": 57, "duration": 2, "velocity": 83}, {"time": 1684, "pitch": 47, "duration": 18, "velocity": 83}, {"time": 1684, "pitch": 62, "duration": 8, "velocity": 83}, {"time": 1690, "pitch": 54, "duration": 7, "velocity": 70}, {"time": 1693, "pitch": 59, "duration": 4, "velocity": 83}, {"time": 1696, "pitch": 66, "duration": 6, "velocity": 83}, {"time": 1699, "pitch": 54, "duration": 3, "velocity": 72}, {"time": 1702, "pitch": 59, "duration": 4, "velocity": 79}, {"time": 1705, "pitch": 62, "duration": 4, "velocity": 70}, {"time": 1708, "pitch": 45, "duration": 17, "velocity": 78}, {"time": 1708, "pitch": 61, "duration": 10, "velocity": 84}, {"time": 1714, "pitch": 52, "duration": 8, "velocity": 76}, {"time": 1720, "pitch": 57, "duration": 6, "velocity": 80}, {"time": 1720, "pitch": 61, "duration": 6, "velocity": 82}, {"time": 1726, "pitch": 52, "duration": 5, "velocity": 78}, {"time": 1732, "pitch": 43, "duration": 19, "velocity": 79}, {"time": 1732, "pitch": 55, "duration": 3, "velocity": 76}, {"time": 1732, "pitch": 59, "duration": 5, "velocity": 77}, {"time": 1735, "pitch": 50, "duration": 13, "velocity": 76}, {"time": 1738, "pitch": 55, "duration": 4, "velocity": 80}, {"time": 1741, "pitch": 62, "duration": 5, "velocity": 78}, {"time": 1744, "pitch": 67, "duration": 7, "velocity": 79}, {"time": 1747, "pitch": 55, "duration": 4, "velocity": 83}, {"time": 1750, "pitch": 62, "duration": 3, "velocity": 76}, {"time": 1753, "pitch": 55, "duration": 2, "velocity": 76}, {"time": 1756, "pitch": 42, "duration": 6, "velocity": 72}, {"time": 1756, "pitch": 61, "duration": 6, "velocity": 70}, {"time": 1759, "pitch": 49, "duration": 4, "velocity": 66}, {"time": 1762, "pitch": 57, "duration": 4, "velocity": 83}, {"time": 1765, "pitch": 61, "duration": 2, "velocity": 83}, {"time": 1768, "pitch": 47, "duration": 12, "velocity": 67}, {"time": 1768, "pitch": 62, "duration": 6, "velocity": 75}, {"time": 1771, "pitch": 54, "duration": 9, "velocity": 69}, {"time": 1774, "pitch": 59, "duration": 6, "velocity": 81}, {"time": 1780, "pitch": 44, "duration": 18, "velocity": 83}, {"time": 1783, "pitch": 56, "duration": 6, "velocity": 72}, {"time": 1786, "pitch": 59, "duration": 4, "velocity": 74}, {"time": 1789, "pitch": 64, "duration": 5, "velocity": 85}, {"time": 1792, "pitch": 56, "duration": 6, "velocity": 72}, {"time": 1795, "pitch": 59, "duration": 8, "velocity": 72}, {"time": 1798, "pitch": 64, "duration": 9, "velocity": 74}, {"time": 1801, "pitch": 56, "duration": 3, "velocity": 63}, {"time": 1804, "pitch": 45, "duration": 19, "velocity": 83}, {"time": 1807, "pitch": 52, "duration": 9, "velocity": 79}, {"time": 1810, "pitch": 55, "duration": 4, "velocity": 67}, {"time": 1813, "pitch": 61, "duration": 7, "velocity": 85}, {"time": 1816, "pitch": 49, "duration": 8, "velocity": 80}, {"time": 1819, "pitch": 52, "duration": 7, "velocity": 78}, {"time": 1822, "pitch": 57, "duration": 4, "velocity": 83}, {"time": 1828, "pitch": 50, "duration": 20, "velocity": 86}, {"time": 1828, "pitch": 62, "duration": 4, "velocity": 76}, {"time": 1828, "pitch": 66, "duration": 7, "velocity": 77}, {"time": 1831, "pitch": 57, "duration": 12, "velocity": 72}, {"time": 1834, "pitch": 62, "duration": 5, "velocity": 77}, {"time": 1837, "pitch": 66, "duration": 4, "velocity": 83}, {"time": 1840, "pitch": 54, "duration": 8, "velocity": 50}, {"time": 1843, "pitch": 62, "duration": 2, "velocity": 77}, {"time": 1843, "pitch": 66, "duration": 4, "velocity": 83}, {"time": 1843, "pitch": 69, "duration": 4, "velocity": 82}, {"time": 1846, "pitch": 57, "duration": 2, "velocity": 67}, {"time": 1852, "pitch": 45, "duration": 17, "velocity": 80}, {"time": 1852, "pitch": 61, "duration": 3, "velocity": 76}, {"time": 1852, "pitch": 64, "duration": 4, "velocity": 84}, {"time": 1855, "pitch": 52, "duration": 7, "velocity": 73}, {"time": 1858, "pitch": 57, "duration": 3, "velocity": 83}, {"time": 1861, "pitch": 57, "duration": 5, "velocity": 79}, {"time": 1861, "pitch": 64, "duration": 4, "velocity": 86}, {"time": 1864, "pitch": 52, "duration": 6, "velocity": 79}, {"time": 1867, "pitch": 57, "duration": 2, "velocity": 79}, {"time": 1867, "pitch": 61, "duration": 4, "velocity": 84}, {"time": 1867, "pitch": 64, "duration": 7, "velocity": 87}, {"time": 1870, "pitch": 57, "duration": 3, "velocity": 84}, {"time": 1876, "pitch": 47, "duration": 17, "velocity": 84}, {"time": 1876, "pitch": 59, "duration": 4, "velocity": 81}, {"time": 1876, "pitch": 62, "duration": 6, "velocity": 83}, {"time": 1879, "pitch": 54, "duration": 7, "velocity": 66}, {"time": 1882, "pitch": 59, "duration": 2, "velocity": 79}, {"time": 1885, "pitch": 59, "duration": 5, "velocity": 83}, {"time": 1885, "pitch": 66, "duration": 5, "velocity": 78}, {"time": 1888, "pitch": 54, "duration": 4, "velocity": 68}, {"time": 1891, "pitch": 62, "duration": 4, "velocity": 79}, {"time": 1894, "pitch": 59, "duration": 5, "velocity": 71}, {"time": 1897, "pitch": 62, "duration": 4, "velocity": 80}, {"time": 1900, "pitch": 45, "duration": 19, "velocity": 83}, {"time": 1900, "pitch": 61, "duration": 6, "velocity": 85}, {"time": 1903, "pitch": 52, "duration": 7, "velocity": 78}, {"time": 1906, "pitch": 57, "duration": 2, "velocity": 85}, {"time": 1909, "pitch": 57, "duration": 5, "velocity": 83}, {"time": 1909, "pitch": 61, "duration": 7, "velocity": 84}, {"time": 1912, "pitch": 52, "duration": 7, "velocity": 75}, {"time": 1915, "pitch": 57, "duration": 3, "velocity": 83}, {"time": 1918, "pitch": 62, "duration": 3, "velocity": 77}, {"time": 1921, "pitch": 61, "duration": 2, "velocity": 84}, {"time": 1924, "pitch": 43, "duration": 11, "velocity": 83}, {"time": 1924, "pitch": 59, "duration": 4, "velocity": 78}, {"time": 1927, "pitch": 50, "duration": 7, "velocity": 82}, {"time": 1930, "pitch": 55, "duration": 2, "velocity": 84}, {"time": 1933, "pitch": 55, "duration": 4, "velocity": 82}, {"time": 1933, "pitch": 59, "duration": 7, "velocity": 84}, {"time": 1933, "pitch": 62, "duration": 10, "velocity": 84}, {"time": 1939, "pitch": 50, "duration": 4, "velocity": 83}, {"time": 1942, "pitch": 55, "duration": 6, "velocity": 85}, {"time": 1945, "pitch": 59, "duration": 3, "velocity": 71}, {"time": 1948, "pitch": 40, "duration": 14, "velocity": 85}, {"time": 1951, "pitch": 47, "duration": 8, "velocity": 72}, {"time": 1954, "pitch": 52, "duration": 2, "velocity": 85}, {"time": 1957, "pitch": 52, "duration": 7, "velocity": 84}, {"time": 1957, "pitch": 55, "duration": 7, "velocity": 81}, {"time": 1957, "pitch": 59, "duration": 9, "velocity": 83}, {"time": 1963, "pitch": 47, "duration": 2, "velocity": 78}, {"time": 1966, "pitch": 52, "duration": 1, "velocity": 92}, {"time": 1972, "pitch": 48, "duration": 18, "velocity": 89}, {"time": 1972, "pitch": 55, "duration": 2, "velocity": 83}, {"time": 1972, "pitch": 60, "duration": 4, "velocity": 82}, {"time": 1975, "pitch": 55, "duration": 4, "velocity": 82}, {"time": 1978, "pitch": 60, "duration": 1, "velocity": 67}, {"time": 1981, "pitch": 55, "duration": 2, "velocity": 84}, {"time": 1981, "pitch": 64, "duration": 3, "velocity": 87}, {"time": 1987, "pitch": 55, "duration": 1, "velocity": 84}, {"time": 1987, "pitch": 60, "duration": 2, "velocity": 87}, {"time": 1990, "pitch": 55, "duration": 2, "velocity": 83}, {"time": 1996, "pitch": 48, "duration": 6, "velocity": 88}, {"time": 1996, "pitch": 55, "duration": 5, "velocity": 81}, {"time": 1996, "pitch": 60, "duration": 5, "velocity": 84}, {"time": 2008, "pitch": 45, "duration": 12, "velocity": 89}, {"time": 2008, "pitch": 57, "duration": 6, "velocity": 79}, {"time": 2008, "pitch": 61, "duration": 9, "velocity": 83}, {"time": 2014, "pitch": 52, "duration": 6, "velocity": 90}, {"time": 2017, "pitch": 57, "duration": 3, "velocity": 85}, {"time": 2020, "pitch": 50, "duration": 21, "velocity": 83}, {"time": 2020, "pitch": 57, "duration": 1, "velocity": 68}, {"time": 2020, "pitch": 66, "duration": 9, "velocity": 78}, {"time": 2026, "pitch": 57, "duration": 7, "velocity": 74}, {"time": 2032, "pitch": 66, "duration": 6, "velocity": 88}, {"time": 2035, "pitch": 57, "duration": 4, "velocity": 74}, {"time": 2038, "pitch": 62, "duration": 3, "velocity": 73}, {"time": 2041, "pitch": 57, "duration": 5, "velocity": 65}, {"time": 2044, "pitch": 45, "duration": 17, "velocity": 75}, {"time": 2044, "pitch": 64, "duration": 8, "velocity": 79}, {"time": 2050, "pitch": 52, "duration": 9, "velocity": 70}, {"time": 2056, "pitch": 61, "duration": 9, "velocity": 87}, {"time": 2059, "pitch": 49, "duration": 7, "velocity": 64}, {"time": 2062, "pitch": 52, "duration": 5, "velocity": 77}, {"time": 2065, "pitch": 57, "duration": 2, "velocity": 83}, {"time": 2068, "pitch": 47, "duration": 18, "velocity": 83}, {"time": 2068, "pitch": 62, "duration": 8, "velocity": 83}, {"time": 2074, "pitch": 54, "duration": 7, "velocity": 70}, {"time": 2077, "pitch": 59, "duration": 4, "velocity": 83}, {"time": 2080, "pitch": 66, "duration": 6, "velocity": 83}, {"time": 2083, "pitch": 54, "duration": 3, "velocity": 72}, {"time": 2086, "pitch": 59, "duration": 4, "velocity": 79}, {"time": 2089, "pitch": 62, "duration": 4, "velocity": 70}, {"time": 2092, "pitch": 45, "duration": 17, "velocity": 78}, {"time": 2092, "pitch": 61, "duration": 10, "velocity": 84}, {"time": 2098, "pitch": 52, "duration": 8, "velocity": 76}, {"time": 2104, "pitch": 57, "duration": 6, "velocity": 80}, {"time": 2104, "pitch": 61, "duration": 6, "velocity": 82}, {"time": 2110, "pitch": 52, "duration": 5, "velocity": 78}, {"time": 2116, "pitch": 43, "duration": 19, "velocity": 79}, {"time": 2116, "pitch": 55, "duration": 3, "velocity": 76}, {"time": 2116, "pitch": 59, "duration": 5, "velocity": 77}, {"time": 2119, "pitch": 50, "duration": 13, "velocity": 76}, {"time": 2122, "pitch": 55, "duration": 4, "velocity": 80}, {"time": 2125, "pitch": 62, "duration": 5, "velocity": 78}, {"time": 2128, "pitch": 67, "duration": 7, "velocity": 79}, {"time": 2131, "pitch": 55, "duration": 4, "velocity": 83}, {"time": 2134, "pitch": 62, "duration": 3, "velocity": 76}, {"time": 2137, "pitch": 55, "duration": 2, "velocity": 76}, {"time": 2140, "pitch": 42, "duration": 6, "velocity": 72}, {"time": 2140, "pitch": 61, "duration": 6, "velocity": 70}, {"time": 2143, "pitch": 49, "duration": 4, "velocity": 66}, {"time": 2146, "pitch": 57, "duration": 4, "velocity": 83}, {"time": 2149, "pitch": 61, "duration": 2, "velocity": 83}, {"time": 2152, "pitch": 47, "duration": 12, "velocity": 67}, {"time": 2152, "pitch": 62, "duration": 6, "velocity": 75}, {"time": 2155, "pitch": 54, "duration": 9, "velocity": 69}, {"time": 2158, "pitch": 59, "duration": 6, "velocity": 81}, {"time": 2164, "pitch": 43, "duration": 10, "velocity": 76}, {"time": 2164, "pitch": 55, "duration": 4, "velocity": 73}, {"time": 2164, "pitch": 62, "duration": 8, "velocity": 79}, {"time": 2167, "pitch": 50, "duration": 6, "velocity": 71}, {"time": 2170, "pitch": 55, "duration": 4, "velocity": 81}, {"time": 2173, "pitch": 59, "duration": 3, "velocity": 83}, {"time": 2176, "pitch": 62, "duration": 7, "velocity": 85}, {"time": 2179, "pitch": 55, "duration": 2, "velocity": 71}, {"time": 2182, "pitch": 59, "duration": 3, "velocity": 74}, {"time": 2185, "pitch": 55, "duration": 1, "velocity": 71}, {"time": 2188, "pitch": 45, "duration": 19, "velocity": 76}, {"time": 2188, "pitch": 57, "duration": 3, "velocity": 70}, {"time": 2188, "pitch": 61, "duration": 6, "velocity": 77}, {"time": 2191, "pitch": 52, "duration": 13, "velocity": 76}, {"time": 2194, "pitch": 57, "duration": 6, "velocity": 82}, {"time": 2197, "pitch": 61, "duration": 2, "velocity": 83}, {"time": 2200, "pitch": 64, "duration": 4, "velocity": 84}, {"time": 2203, "pitch": 57, "duration": 4, "velocity": 83}, {"time": 2206, "pitch": 61, "duration": 4, "velocity": 84}, {"time": 2209, "pitch": 57, "duration": 3, "velocity": 84}, {"time": 2212, "pitch": 50, "duration": 21, "velocity": 83}, {"time": 2212, "pitch": 57, "duration": 3, "velocity": 68}, {"time": 2212, "pitch": 66, "duration": 9, "velocity": 78}, {"time": 2218, "pitch": 57, "duration": 7, "velocity": 74}, {"time": 2224, "pitch": 66, "duration": 6, "velocity": 88}, {"time": 2227, "pitch": 57, "duration": 4, "velocity": 74}, {"time": 2230, "pitch": 62, "duration": 3, "velocity": 73}, {"time": 2233, "pitch": 57, "duration": 5, "velocity": 65}, {"time": 2236, "pitch": 45, "duration": 17, "velocity": 75}, {"time": 2236, "pitch": 64, "duration": 8, "velocity": 79}, {"time": 2242, "pitch": 52, "duration": 9, "velocity": 70}, {"time": 2248, "pitch": 61, "duration": 9, "velocity": 87}, {"time": 2251, "pitch": 49, "duration": 7, "velocity": 64}, {"time": 2254, "pitch": 52, "duration": 5, "velocity": 77}, {"time": 2257, "pitch": 57, "duration": 2, "velocity": 83}, {"time": 2260, "pitch": 47, "duration": 18, "velocity": 83}, {"time": 2260, "pitch": 62, "duration": 8, "velocity": 83}, {"time": 2266, "pitch": 54, "duration": 7, "velocity": 70}, {"time": 2269, "pitch": 59, "duration": 4, "velocity": 83}, {"time": 2272, "pitch": 66, "duration": 6, "velocity": 83}, {"time": 2275, "pitch": 54, "duration": 3, "velocity": 72}, {"time": 2278, "pitch": 59, "duration": 4, "velocity": 79}, {"time": 2281, "pitch": 62, "duration": 4, "velocity": 70}, {"time": 2284, "pitch": 45, "duration": 17, "velocity": 78}, {"time": 2284, "pitch": 61, "duration": 10, "velocity": 84}, {"time": 2290, "pitch": 52, "duration": 8, "velocity": 76}, {"time": 2296, "pitch": 57, "duration": 6, "velocity": 80}, {"time": 2296, "pitch": 61, "duration": 6, "velocity": 82}, {"time": 2302, "pitch": 52, "duration": 5, "velocity": 78}, {"time": 2308, "pitch": 43, "duration": 19, "velocity": 79}, {"time": 2308, "pitch": 55, "duration": 3, "velocity": 76}, {"time": 2308, "pitch": 59, "duration": 5, "velocity": 77}, {"time": 2311, "pitch": 50, "duration": 13, "velocity": 76}, {"time": 2314, "pitch": 55, "duration": 4, "velocity": 80}, {"time": 2317, "pitch": 62, "duration": 5, "velocity": 78}, {"time": 2320, "pitch": 67, "duration": 7, "velocity": 79}, {"time": 2323, "pitch": 55, "duration": 4, "velocity": 83}, {"time": 2326, "pitch": 62, "duration": 3, "velocity": 76}, {"time": 2329, "pitch": 55, "duration": 2, "velocity": 76}, {"time": 2332, "pitch": 42, "duration": 6, "velocity": 72}, {"time": 2332, "pitch": 61, "duration": 6, "velocity": 70}, {"time": 2335, "pitch": 49, "duration": 4, "velocity": 66}, {"time": 2338, "pitch": 57, "duration": 4, "velocity": 83}, {"time": 2341, "pitch": 61, "duration": 2, "velocity": 83}, {"time": 2344, "pitch": 47, "duration": 12, "velocity": 67}, {"time": 2344, "pitch": 62, "duration": 6, "velocity": 75}, {"time": 2347, "pitch": 54, "duration": 9, "velocity": 69}, {"time": 2350, "pitch": 59, "duration": 6, "velocity": 81}, {"time": 2356, "pitch": 44, "duration": 18, "velocity": 83}, {"time": 2359, "pitch": 56, "duration": 6, "velocity": 72}, {"time": 2362, "pitch": 59, "duration": 4, "velocity": 74}, {"time": 2365, "pitch": 64, "duration": 5, "velocity": 85}, {"time": 2368, "pitch": 56, "duration": 6, "velocity": 72}, {"time": 2371, "pitch": 59, "duration": 8, "velocity": 72}, {"time": 2374, "pitch": 64, "duration": 9, "velocity": 74}, {"time": 2377, "pitch": 56, "duration": 3, "velocity": 63}, {"time": 2380, "pitch": 45, "duration": 19, "velocity": 83}, {"time": 2383, "pitch": 52, "duration": 9, "velocity": 79}, {"time": 2386, "pitch": 55, "duration": 4, "velocity": 67}, {"time": 2389, "pitch": 61, "duration": 7, "velocity": 85}, {"time": 2392, "pitch": 49, "duration": 8, "velocity": 80}, {"time": 2395, "pitch": 52, "duration": 7, "velocity": 78}, {"time": 2398, "pitch": 57, "duration": 4, "velocity": 83}, {"time": 2404, "pitch": 50, "duration": 18, "velocity": 67}, {"time": 2404, "pitch": 62, "duration": 14, "velocity": 70}, {"time": 2404, "pitch": 66, "duration": 16, "velocity": 71}, {"time": 2416, "pitch": 57, "duration": 8, "velocity": 55}, {"time": 2419, "pitch": 62, "duration": 4, "velocity": 71}, {"time": 2422, "pitch": 66, "duration": 2, "velocity": 77}, {"time": 2428, "pitch": 49, "duration": 14, "velocity": 76}, {"time": 2428, "pitch": 61, "duration": 12, "velocity": 58}, {"time": 2428, "pitch": 64, "duration": 14, "velocity": 75}, {"time": 2452, "pitch": 47, "duration": 16, "velocity": 73}, {"time": 2452, "pitch": 59, "duration": 8, "velocity": 62}, {"time": 2452, "pitch": 62, "duration": 8, "velocity": 69}, {"time": 2458, "pitch": 54, "duration": 8, "velocity": 51}, {"time": 2464, "pitch": 59, "duration": 2, "velocity": 70}, {"time": 2464, "pitch": 62, "duration": 5, "velocity": 74}, {"time": 2464, "pitch": 66, "duration": 6, "velocity": 72}, {"time": 2470, "pitch": 59, "duration": 2, "velocity": 48}, {"time": 2476, "pitch": 43, "duration": 19, "velocity": 61}, {"time": 2476, "pitch": 55, "duration": 9, "velocity": 67}, {"time": 2476, "pitch": 59, "duration": 9, "velocity": 67}, {"time": 2488, "pitch": 55, "duration": 4, "velocity": 76}, {"time": 2488, "pitch": 59, "duration": 11, "velocity": 79}, {"time": 2488, "pitch": 62, "duration": 11, "velocity": 77}, {"time": 2494, "pitch": 55, "duration": 6, "velocity": 83}, {"time": 2500, "pitch": 52, "duration": 24, "velocity": 74}, {"time": 2500, "pitch": 59, "duration": 4, "velocity": 68}, {"time": 2500, "pitch": 64, "duration": 7, "velocity": 70}, {"time": 2506, "pitch": 59, "duration": 10, "velocity": 68}, {"time": 2512, "pitch": 64, "duration": 11, "velocity": 78}, {"time": 2512, "pitch": 67, "duration": 12, "velocity": 76}, {"time": 2524, "pitch": 43, "duration": 8, "velocity": 67}, {"time": 2524, "pitch": 55, "duration": 5, "velocity": 72}, {"time": 2524, "pitch": 59, "duration": 13, "velocity": 72}, {"time": 2536, "pitch": 45, "duration": 12, "velocity": 74}, {"time": 2536, "pitch": 57, "duration": 12, "velocity": 68}, {"time": 2536, "pitch": 61, "duration": 11, "velocity": 75}, {"time": 2549, "pitch": 38, "duration": 28, "velocity": 78}, {"time": 2552, "pitch": 45, "duration": 25, "velocity": 63}, {"time": 2554, "pitch": 52, "duration": 2, "velocity": 73}, {"time": 2556, "pitch": 54, "duration": 1, "velocity": 61}, {"time": 2557, "pitch": 57, "duration": 4, "velocity": 69}, {"time": 2560, "pitch": 62, "duration": 2, "velocity": 74}, {"time": 2562, "pitch": 64, "duration": 3, "velocity": 79}, {"time": 2565, "pitch": 66, "duration": 1, "velocity": 70}], "annotations": [{"time": 4, "annotation": {"number": 64, "value": 127}, "group": "control_change"}, {"time": 28, "annotation": {"number": 64, "value": 0}, "group": "control_change"}, {"time": 30, "annotation": {"number": 64, "value": 127}, "group": "control_change"}, {"time": 50, "annotation": {"number": 64, "value": 0}, "group": "control_change"}, {"time": 53, "annotation": {"number": 64, "value": 127}, "group": "control_change"}, {"time": 76, "annotation": {"number": 64, "value": 0}, "group": "control_change"}, {"time": 79, "annotation": {"number": 64, "value": 127}, "group": "control_change"}, {"time": 99, "annotation": {"number": 64, "value": 0}, "group": "control_change"}, {"time": 100, "annotation": {"number": 64, "value": 127}, "group": "control_change"}, {"time": 100, "annotation": {"number": 64, "value": 0}, "group": "control_change"}, {"time": 122, "annotation": {"number": 64, "value": 0}, "group": "control_change"}, {"time": 124, "annotation": {"number": 64, "value": 127}, "group": "control_change"}, {"time": 136, "annotation": {"number": 64, "value": 0}, "group": "control_change"}, {"time": 148, "annotation": {"number": 64, "value": 127}, "group": "control_change"}, {"time": 171, "annotation": {"number": 64, "value": 0}, "group": "control_change"}, {"time": 173, "annotation": {"number": 64, "value": 127}, "group": "control_change"}, {"time": 196, "annotation": {"number": 64, "value": 0}, "group": "control_change"}, {"time": 199, "annotation": {"number": 64, "value": 127}, "group": "control_change"}, {"time": 219, "annotation": {"number": 64, "value": 0}, "group": "control_change"}, {"time": 221, "annotation": {"number": 64, "value": 127}, "group": "control_change"}, {"time": 243, "annotation": {"number": 64, "value": 0}, "group": "control_change"}, {"time": 246, "annotation": {"number": 64, "value": 127}, "group": "control_change"}, {"time": 267, "annotation": {"number": 64, "value": 0}, "group": "control_change"}, {"time": 273, "annotation": {"number": 64, "value": 127}, "group": "control_change"}, {"time": 291, "annotation": {"number": 64, "value": 0}, "group": "control_change"}, {"time": 294, "annotation": {"number": 64, "value": 127}, "group": "control_change"}, {"time": 315, "annotation": {"number": 64, "value": 0}, "group": "control_change"}, {"time": 318, "annotation": {"number": 64, "value": 127}, "group": "control_change"}, {"time": 339, "annotation": {"number": 64, "value": 0}, "group": "control_change"}, {"time": 350, "annotation": {"number": 64, "value": 0}, "group": "control_change"}, {"time": 353, "annotation": {"number": 64, "value": 127}, "group": "control_change"}, {"time": 363, "annotation": {"number": 64, "value": 0}, "group": "control_change"}, {"time": 365, "annotation": {"number": 64, "value": 127}, "group": "control_change"}, {"time": 387, "annotation": {"number": 64, "value": 0}, "group": "control_change"}, {"time": 389, "annotation": {"number": 64, "value": 127}, "group": "control_change"}, {"time": 399, "annotation": {"number": 64, "value": 0}, "group": "control_change"}, {"time": 401, "annotation": {"number": 64, "value": 127}, "group": "control_change"}, {"time": 411, "annotation": {"number": 64, "value": 0}, "group": "control_change"}, {"time": 413, "annotation": {"number": 64, "value": 127}, "group": "control_change"}, {"time": 435, "annotation": {"number": 64, "value": 0}, "group": "control_change"}, {"time": 437, "annotation": {"number": 64, "value": 127}, "group": "control_change"}, {"time": 460, "annotation": {"number": 64, "value": 0}, "group": "control_change"}, {"time": 463, "annotation": {"number": 64, "value": 127}, "group": "control_change"}, {"time": 483, "annotation": {"number": 64, "value": 0}, "group": "control_change"}, {"time": 485, "annotation": {"number": 64, "value": 127}, "group": "control_change"}, {"time": 506, "annotation": {"number": 64, "value": 0}, "group": "control_change"}, {"time": 509, "annotation": {"number": 64, "value": 127}, "group": "control_change"}, {"time": 530, "annotation": {"number": 64, "value": 0}, "group": "control_change"}, {"time": 532, "annotation": {"number": 64, "value": 127}, "group": "control_change"}, {"time": 554, "annotation": {"number": 64, "value": 0}, "group": "control_change"}, {"time": 557, "annotation": {"number": 64, "value": 127}, "group": "control_change"}, {"time": 579, "annotation": {"number": 64, "value": 0}, "group": "control_change"}, {"time": 581, "annotation": {"number": 64, "value": 127}, "group": "control_change"}, {"time": 603, "annotation": {"number": 64, "value": 0}, "group": "control_change"}, {"time": 605, "annotation": {"number": 64, "value": 127}, "group": "control_change"}, {"time": 627, "annotation": {"number": 64, "value": 0}, "group": "control_change"}, {"time": 629, "annotation": {"number": 64, "value": 127}, "group": "control_change"}, {"time": 651, "annotation": {"number": 64, "value": 0}, "group": "control_change"}, {"time": 652, "annotation": {"number": 64, "value": 127}, "group": "control_change"}, {"time": 664, "annotation": {"number": 64, "value": 0}, "group": "control_change"}, {"time": 666, "annotation": {"number": 64, "value": 127}, "group": "control_change"}, {"time": 675, "annotation": {"number": 64, "value": 0}, "group": "control_change"}, {"time": 677, "annotation": {"number": 64, "value": 127}, "group": "control_change"}, {"time": 699, "annotation": {"number": 64, "value": 0}, "group": "control_change"}, {"time": 702, "annotation": {"number": 64, "value": 127}, "group": "control_change"}, {"time": 721, "annotation": {"number": 64, "value": 0}, "group": "control_change"}, {"time": 724, "annotation": {"number": 64, "value": 127}, "group": "control_change"}, {"time": 746, "annotation": {"number": 64, "value": 0}, "group": "control_change"}, {"time": 749, "annotation": {"number": 64, "value": 127}, "group": "control_change"}, {"time": 771, "annotation": {"number": 64, "value": 0}, "group": "control_change"}, {"time": 773, "annotation": {"number": 64, "value": 127}, "group": "control_change"}, {"time": 795, "annotation": {"number": 64, "value": 0}, "group": "control_change"}, {"time": 797, "annotation": {"number": 64, "value": 127}, "group": "control_change"}, {"time": 819, "annotation": {"number": 64, "value": 0}, "group": "control_change"}, {"time": 821, "annotation": {"number": 64, "value": 127}, "group": "control_change"}, {"time": 843, "annotation": {"number": 64, "value": 0}, "group": "control_change"}, {"time": 844, "annotation": {"number": 64, "value": 127}, "group": "control_change"}, {"time": 856, "annotation": {"number": 64, "value": 0}, "group": "control_change"}, {"time": 858, "annotation": {"number": 64, "value": 127}, "group": "control_change"}, {"time": 867, "annotation": {"number": 64, "value": 0}, "group": "control_change"}, {"time": 870, "annotation": {"number": 64, "value": 127}, "group": "control_change"}, {"time": 891, "annotation": {"number": 64, "value": 0}, "group": "control_change"}, {"time": 893, "annotation": {"number": 64, "value": 127}, "group": "control_change"}, {"time": 914, "annotation": {"number": 64, "value": 0}, "group": "control_change"}, {"time": 916, "annotation": {"number": 64, "value": 127}, "group": "control_change"}, {"time": 926, "annotation": {"number": 64, "value": 0}, "group": "control_change"}, {"time": 928, "annotation": {"number": 64, "value": 127}, "group": "control_change"}, {"time": 938, "annotation": {"number": 64, "value": 0}, "group": "control_change"}, {"time": 939, "annotation": {"number": 64, "value": 127}, "group": "control_change"}, {"time": 948, "annotation": {"number": 64, "value": 0}, "group": "control_change"}, {"time": 949, "annotation": {"number": 64, "value": 127}, "group": "control_change"}, {"time": 963, "annotation": {"number": 64, "value": 127}, "group": "control_change"}, {"time": 975, "annotation": {"number": 64, "value": 0}, "group": "control_change"}, {"time": 976, "annotation": {"number": 64, "value": 127}, "group": "control_change"}, {"time": 987, "annotation": {"number": 64, "value": 0}, "group": "control_change"}, {"time": 989, "annotation": {"number": 64, "value": 127}, "group": "control_change"}, {"time": 999, "annotation": {"number": 64, "value": 0}, "group": "control_change"}, {"time": 1000, "annotation": {"number": 64, "value": 127}, "group": "control_change"}, {"time": 1011, "annotation": {"number": 64, "value": 0}, "group": "control_change"}, {"time": 1012, "annotation": {"number": 64, "value": 127}, "group": "control_change"}, {"time": 1035, "annotation": {"number": 64, "value": 0}, "group": "control_change"}, {"time": 1037, "annotation": {"number": 64, "value": 127}, "group": "control_change"}, {"time": 1058, "annotation": {"number": 64, "value": 0}, "group": "control_change"}, {"time": 1060, "annotation": {"number": 64, "value": 127}, "group": "control_change"}, {"time": 1083, "annotation": {"number": 64, "value": 0}, "group": "control_change"}, {"time": 1085, "annotation": {"number": 64, "value": 127}, "group": "control_change"}, {"time": 1108, "annotation": {"number": 64, "value": 0}, "group": "control_change"}, {"time": 1111, "annotation": {"number": 64, "value": 127}, "group": "control_change"}, {"time": 1131, "annotation": {"number": 64, "value": 0}, "group": "control_change"}, {"time": 1133, "annotation": {"number": 64, "value": 127}, "group": "control_change"}, {"time": 1155, "annotation": {"number": 64, "value": 0}, "group": "control_change"}, {"time": 1158, "annotation": {"number": 64, "value": 127}, "group": "control_change"}, {"time": 1179, "annotation": {"number": 64, "value": 0}, "group": "control_change"}, {"time": 1185, "annotation": {"number": 64, "value": 127}, "group": "control_change"}, {"time": 1203, "annotation": {"number": 64, "value": 0}, "group": "control_change"}, {"time": 1206, "annotation": {"number": 64, "value": 127}, "group": "control_change"}, {"time": 1227, "annotation": {"number": 64, "value": 0}, "group": "control_change"}, {"time": 1230, "annotation": {"number": 64, "value": 127}, "group": "control_change"}, {"time": 1251, "annotation": {"number": 64, "value": 0}, "group": "control_change"}, {"time": 1262, "annotation": {"number": 64, "value": 0}, "group": "control_change"}, {"time": 1265, "annotation": {"number": 64, "value": 127}, "group": "control_change"}, {"time": 1275, "annotation": {"number": 64, "value": 0}, "group": "control_change"}, {"time": 1277, "annotation": {"number": 64, "value": 127}, "group": "control_change"}, {"time": 1299, "annotation": {"number": 64, "value": 0}, "group": "control_change"}, {"time": 1301, "annotation": {"number": 64, "value": 127}, "group": "control_change"}, {"time": 1311, "annotation": {"number": 64, "value": 0}, "group": "control_change"}, {"time": 1313, "annotation": {"number": 64, "value": 127}, "group": "control_change"}, {"time": 1323, "annotation": {"number": 64, "value": 0}, "group": "control_change"}, {"time": 1325, "annotation": {"number": 64, "value": 127}, "group": "control_change"}, {"time": 1347, "annotation": {"number": 64, "value": 0}, "group": "control_change"}, {"time": 1349, "annotation": {"number": 64, "value": 127}, "group": "control_change"}, {"time": 1372, "annotation": {"number": 64, "value": 0}, "group": "control_change"}, {"time": 1375, "annotation": {"number": 64, "value": 127}, "group": "control_change"}, {"time": 1395, "annotation": {"number": 64, "value": 0}, "group": "control_change"}, {"time": 1397, "annotation": {"number": 64, "value": 127}, "group": "control_change"}, {"time": 1418, "annotation": {"number": 64, "value": 0}, "group": "control_change"}, {"time": 1421, "annotation": {"number": 64, "value": 127}, "group": "control_change"}, {"time": 1442, "annotation": {"number": 64, "value": 0}, "group": "control_change"}, {"time": 1444, "annotation": {"number": 64, "value": 127}, "group": "control_change"}, {"time": 1466, "annotation": {"number": 64, "value": 0}, "group": "control_change"}, {"time": 1469, "annotation": {"number": 64, "value": 127}, "group": "control_change"}, {"time": 1491, "annotation": {"number": 64, "value": 0}, "group": "control_change"}, {"time": 1493, "annotation": {"number": 64, "value": 127}, "group": "control_change"}, {"time": 1515, "annotation": {"number": 64, "value": 0}, "group": "control_change"}, {"time": 1517, "annotation": {"number": 64, "value": 127}, "group": "control_change"}, {"time": 1539, "annotation": {"number": 64, "value": 0}, "group": "control_change"}, {"time": 1541, "annotation": {"number": 64, "value": 127}, "group": "control_change"}, {"time": 1563, "annotation": {"number": 64, "value": 0}, "group": "control_change"}, {"time": 1564, "annotation": {"number": 64, "value": 127}, "group": "control_change"}, {"time": 1576, "annotation": {"number": 64, "value": 0}, "group": "control_change"}, {"time": 1578, "annotation": {"number": 64, "value": 127}, "group": "control_change"}, {"time": 1587, "annotation": {"number": 64, "value": 0}, "group": "control_change"}, {"time": 1589, "annotation": {"number": 64, "value": 127}, "group": "control_change"}, {"time": 1611, "annotation": {"number": 64, "value": 0}, "group": "control_change"}, {"time": 1614, "annotation": {"number": 64, "value": 127}, "group": "control_change"}, {"time": 1633, "annotation": {"number": 64, "value": 0}, "group": "control_change"}, {"time": 1636, "annotation": {"number": 64, "value": 127}, "group": "control_change"}, {"time": 1658, "annotation": {"number": 64, "value": 0}, "group": "control_change"}, {"time": 1661, "annotation": {"number": 64, "value": 127}, "group": "control_change"}, {"time": 1683, "annotation": {"number": 64, "value": 0}, "group": "control_change"}, {"time": 1685, "annotation": {"number": 64, "value": 127}, "group": "control_change"}, {"time": 1707, "annotation": {"number": 64, "value": 0}, "group": "control_change"}, {"time": 1709, "annotation": {"number": 64, "value": 127}, "group": "control_change"}, {"time": 1731, "annotation": {"number": 64, "value": 0}, "group": "control_change"}, {"time": 1733, "annotation": {"number": 64, "value": 127}, "group": "control_change"}, {"time": 1755, "annotation": {"number": 64, "value": 0}, "group": "control_change"}, {"time": 1756, "annotation": {"number": 64, "value": 127}, "group": "control_change"}, {"time": 1768, "annotation": {"number": 64, "value": 0}, "group": "control_change"}, {"time": 1770, "annotation": {"number": 64, "value": 127}, "group": "control_change"}, {"time": 1779, "annotation": {"number": 64, "value": 0}, "group": "control_change"}, {"time": 1782, "annotation": {"number": 64, "value": 127}, "group": "control_change"}, {"time": 1803, "annotation": {"number": 64, "value": 0}, "group": "control_change"}, {"time": 1805, "annotation": {"number": 64, "value": 127}, "group": "control_change"}, {"time": 1826, "annotation": {"number": 64, "value": 0}, "group": "control_change"}, {"time": 1830, "annotation": {"number": 64, "value": 127}, "group": "control_change"}, {"time": 1852, "annotation": {"number": 64, "value": 0}, "group": "control_change"}, {"time": 1853, "annotation": {"number": 64, "value": 127}, "group": "control_change"}, {"time": 1875, "annotation": {"number": 64, "value": 0}, "group": "control_change"}, {"time": 1876, "annotation": {"number": 64, "value": 127}, "group": "control_change"}, {"time": 1899, "annotation": {"number": 64, "value": 0}, "group": "control_change"}, {"time": 1900, "annotation": {"number": 64, "value": 127}, "group": "control_change"}, {"time": 1922, "annotation": {"number": 64, "value": 0}, "group": "control_change"}, {"time": 1924, "annotation": {"number": 64, "value": 127}, "group": "control_change"}, {"time": 1946, "annotation": {"number": 64, "value": 0}, "group": "control_change"}, {"time": 1948, "annotation": {"number": 64, "value": 127}, "group": "control_change"}, {"time": 1971, "annotation": {"number": 64, "value": 0}, "group": "control_change"}, {"time": 1972, "annotation": {"number": 64, "value": 127}, "group": "control_change"}, {"time": 1995, "annotation": {"number": 64, "value": 0}, "group": "control_change"}, {"time": 1997, "annotation": {"number": 64, "value": 127}, "group": "control_change"}, {"time": 2007, "annotation": {"number": 64, "value": 0}, "group": "control_change"}, {"time": 2012, "annotation": {"number": 64, "value": 127}, "group": "control_change"}, {"time": 2019, "annotation": {"number": 64, "value": 0}, "group": "control_change"}, {"time": 2020, "annotation": {"number": 64, "value": 127}, "group": "control_change"}, {"time": 2042, "annotation": {"number": 64, "value": 0}, "group": "control_change"}, {"time": 2045, "annotation": {"number": 64, "value": 127}, "group": "control_change"}, {"time": 2067, "annotation": {"number": 64, "value": 0}, "group": "control_change"}, {"time": 2069, "annotation": {"number": 64, "value": 127}, "group": "control_change"}, {"time": 2091, "annotation": {"number": 64, "value": 0}, "group": "control_change"}, {"time": 2093, "annotation": {"number": 64, "value": 127}, "group": "control_change"}, {"time": 2115, "annotation": {"number": 64, "value": 0}, "group": "control_change"}, {"time": 2117, "annotation": {"number": 64, "value": 127}, "group": "control_change"}, {"time": 2139, "annotation": {"number": 64, "value": 0}, "group": "control_change"}, {"time": 2140, "annotation": {"number": 64, "value": 127}, "group": "control_change"}, {"time": 2152, "annotation": {"number": 64, "value": 0}, "group": "control_change"}, {"time": 2154, "annotation": {"number": 64, "value": 127}, "group": "control_change"}, {"time": 2163, "annotation": {"number": 64, "value": 0}, "group": "control_change"}, {"time": 2165, "annotation": {"number": 64, "value": 127}, "group": "control_change"}, {"time": 2187, "annotation": {"number": 64, "value": 0}, "group": "control_change"}, {"time": 2190, "annotation": {"number": 64, "value": 127}, "group": "control_change"}, {"time": 2209, "annotation": {"number": 64, "value": 0}, "group": "control_change"}, {"time": 2212, "annotation": {"number": 64, "value": 127}, "group": "control_change"}, {"time": 2234, "annotation": {"number": 64, "value": 0}, "group": "control_change"}, {"time": 2237, "annotation": {"number": 64, "value": 127}, "group": "control_change"}, {"time": 2259, "annotation": {"number": 64, "value": 0}, "group": "control_change"}, {"time": 2261, "annotation": {"number": 64, "value": 127}, "group": "control_change"}, {"time": 2283, "annotation": {"number": 64, "value": 0}, "group": "control_change"}, {"time": 2285, "annotation": {"number": 64, "value": 127}, "group": "control_change"}, {"time": 2307, "annotation": {"number": 64, "value": 0}, "group": "control_change"}, {"time": 2309, "annotation": {"number": 64, "value": 127}, "group": "control_change"}, {"time": 2331, "annotation": {"number": 64, "value": 0}, "group": "control_change"}, {"time": 2332, "annotation": {"number": 64, "value": 127}, "group": "control_change"}, {"time": 2344, "annotation": {"number": 64, "value": 0}, "group": "control_change"}, {"time": 2346, "annotation": {"number": 64, "value": 127}, "group": "control_change"}, {"time": 2355, "annotation": {"number": 64, "value": 0}, "group": "control_change"}, {"time": 2358, "annotation": {"number": 64, "value": 127}, "group": "control_change"}, {"time": 2379, "annotation": {"number": 64, "value": 0}, "group": "control_change"}, {"time": 2381, "annotation": {"number": 64, "value": 127}, "group": "control_change"}, {"time": 2402, "annotation": {"number": 64, "value": 0}, "group": "control_change"}, {"time": 2404, "annotation": {"number": 64, "value": 127}, "group": "control_change"}, {"time": 2428, "annotation": {"number": 64, "value": 0}, "group": "control_change"}, {"time": 2430, "annotation": {"number": 64, "value": 127}, "group": "control_change"}, {"time": 2450, "annotation": {"number": 64, "value": 0}, "group": "control_change"}, {"time": 2453, "annotation": {"number": 64, "value": 127}, "group": "control_change"}, {"time": 2476, "annotation": {"number": 64, "value": 0}, "group": "control_change"}, {"time": 2479, "annotation": {"number": 64, "value": 127}, "group": "control_change"}, {"time": 2499, "annotation": {"number": 64, "value": 0}, "group": "control_change"}, {"time": 2500, "annotation": {"number": 64, "value": 127}, "group": "control_change"}, {"time": 2500, "annotation": {"number": 64, "value": 0}, "group": "control_change"}, {"time": 2522, "annotation": {"number": 64, "value": 0}, "group": "control_change"}, {"time": 2524, "annotation": {"number": 64, "value": 127}, "group": "control_change"}, {"time": 2536, "annotation": {"number": 64, "value": 0}, "group": "control_change"}, {"time": 2549, "annotation": {"number": 64, "value": 127}, "group": "control_change"}, {"time": 2549, "annotation": {"number": 64, "value": 0}, "group": "control_change"}]}]}