{"metadata": {"schema_version": "0.2", "title": "None", "source_filename": "835.mid", "source_format": "midi"}, "resolution": 12, "tempos": [{"time": 0, "qpm": 64.0}, {"time": 252, "qpm": 64.50010803768096}, {"time": 288, "qpm": 64.0}, {"time": 504, "qpm": 64.50010803768096}, {"time": 671, "qpm": 64.0}], "time_signatures": [{"time": 0, "numerator": 1, "denominator": 4}], "tracks": [{"program": 0, "is_drum": false, "name": "MELODY", "notes": [{"time": 284, "pitch": 72, "duration": 2, "velocity": 85}, {"time": 287, "pitch": 72, "duration": 2, "velocity": 86}, {"time": 290, "pitch": 72, "duration": 2, "velocity": 85}, {"time": 293, "pitch": 72, "duration": 2, "velocity": 85}, {"time": 296, "pitch": 72, "duration": 6, "velocity": 86}, {"time": 302, "pitch": 68, "duration": 3, "velocity": 79}, {"time": 305, "pitch": 75, "duration": 18, "velocity": 89}, {"time": 326, "pitch": 72, "duration": 4, "velocity": 85}, {"time": 329, "pitch": 75, "duration": 2, "velocity": 87}, {"time": 332, "pitch": 80, "duration": 2, "velocity": 85}, {"time": 335, "pitch": 80, "duration": 2, "velocity": 86}, {"time": 338, "pitch": 80, "duration": 2, "velocity": 86}, {"time": 341, "pitch": 80, "duration": 2, "velocity": 85}, {"time": 344, "pitch": 79, "duration": 2, "velocity": 86}, {"time": 347, "pitch": 80, "duration": 9, "velocity": 80}, {"time": 356, "pitch": 77, "duration": 20, "velocity": 84}, {"time": 380, "pitch": 73, "duration": 2, "velocity": 81}, {"time": 383, "pitch": 73, "duration": 2, "velocity": 83}, {"time": 386, "pitch": 73, "duration": 2, "velocity": 85}, {"time": 389, "pitch": 73, "duration": 1, "velocity": 85}, {"time": 392, "pitch": 73, "duration": 3, "velocity": 85}, {"time": 395, "pitch": 70, "duration": 8, "velocity": 86}, {"time": 404, "pitch": 82, "duration": 7, "velocity": 88}, {"time": 413, "pitch": 80, "duration": 2, "velocity": 80}, {"time": 416, "pitch": 79, "duration": 3, "velocity": 86}, {"time": 419, "pitch": 80, "duration": 8, "velocity": 86}, {"time": 428, "pitch": 79, "duration": 7, "velocity": 85}, {"time": 437, "pitch": 80, "duration": 2, "velocity": 81}, {"time": 440, "pitch": 79, "duration": 6, "velocity": 87}, {"time": 446, "pitch": 77, "duration": 6, "velocity": 86}, {"time": 452, "pitch": 75, "duration": 21, "velocity": 87}, {"time": 476, "pitch": 80, "duration": 6, "velocity": 84}, {"time": 482, "pitch": 79, "duration": 5, "velocity": 90}, {"time": 488, "pitch": 80, "duration": 5, "velocity": 87}, {"time": 494, "pitch": 79, "duration": 2, "velocity": 87}, {"time": 497, "pitch": 80, "duration": 9, "velocity": 87}, {"time": 506, "pitch": 75, "duration": 7, "velocity": 89}, {"time": 515, "pitch": 72, "duration": 3, "velocity": 86}, {"time": 518, "pitch": 68, "duration": 2, "velocity": 86}, {"time": 521, "pitch": 68, "duration": 2, "velocity": 85}, {"time": 524, "pitch": 78, "duration": 18, "velocity": 87}, {"time": 542, "pitch": 77, "duration": 6, "velocity": 89}, {"time": 548, "pitch": 77, "duration": 21, "velocity": 85}, {"time": 572, "pitch": 82, "duration": 6, "velocity": 89}, {"time": 578, "pitch": 81, "duration": 6, "velocity": 87}, {"time": 584, "pitch": 82, "duration": 5, "velocity": 86}, {"time": 590, "pitch": 81, "duration": 2, "velocity": 91}, {"time": 593, "pitch": 82, "duration": 11, "velocity": 86}, {"time": 605, "pitch": 77, "duration": 3, "velocity": 85}, {"time": 608, "pitch": 74, "duration": 6, "velocity": 86}, {"time": 614, "pitch": 70, "duration": 5, "velocity": 89}, {"time": 620, "pitch": 80, "duration": 24, "velocity": 88}, {"time": 644, "pitch": 79, "duration": 6, "velocity": 89}, {"time": 650, "pitch": 75, "duration": 2, "velocity": 91}, {"time": 653, "pitch": 75, "duration": 3, "velocity": 89}, {"time": 656, "pitch": 80, "duration": 5, "velocity": 86}, {"time": 662, "pitch": 82, "duration": 4, "velocity": 86}, {"time": 668, "pitch": 84, "duration": 5, "velocity": 87}, {"time": 674, "pitch": 82, "duration": 4, "velocity": 87}, {"time": 680, "pitch": 82, "duration": 5, "velocity": 86}, {"time": 686, "pitch": 80, "duration": 3, "velocity": 80}, {"time": 692, "pitch": 80, "duration": 4, "velocity": 84}, {"time": 698, "pitch": 79, "duration": 2, "velocity": 86}, {"time": 701, "pitch": 79, "duration": 9, "velocity": 86}, {"time": 710, "pitch": 77, "duration": 6, "velocity": 87}, {"time": 716, "pitch": 75, "duration": 5, "velocity": 89}, {"time": 722, "pitch": 73, "duration": 5, "velocity": 87}, {"time": 728, "pitch": 73, "duration": 5, "velocity": 84}, {"time": 734, "pitch": 72, "duration": 2, "velocity": 80}, {"time": 737, "pitch": 73, "duration": 18, "velocity": 83}, {"time": 761, "pitch": 77, "duration": 3, "velocity": 86}, {"time": 764, "pitch": 85, "duration": 5, "velocity": 96}, {"time": 770, "pitch": 84, "duration": 2, "velocity": 86}, {"time": 773, "pitch": 84, "duration": 6, "velocity": 86}, {"time": 779, "pitch": 82, "duration": 8, "velocity": 89}, {"time": 788, "pitch": 82, "duration": 5, "velocity": 86}, {"time": 794, "pitch": 80, "duration": 2, "velocity": 80}, {"time": 797, "pitch": 79, "duration": 6, "velocity": 82}, {"time": 803, "pitch": 77, "duration": 6, "velocity": 81}, {"time": 812, "pitch": 79, "duration": 5, "velocity": 86}, {"time": 818, "pitch": 77, "duration": 2, "velocity": 87}, {"time": 821, "pitch": 77, "duration": 2, "velocity": 85}, {"time": 824, "pitch": 79, "duration": 4, "velocity": 86}, {"time": 830, "pitch": 80, "duration": 2, "velocity": 85}, {"time": 833, "pitch": 75, "duration": 22, "velocity": 92}, {"time": 857, "pitch": 75, "duration": 3, "velocity": 86}, {"time": 860, "pitch": 84, "duration": 5, "velocity": 87}, {"time": 866, "pitch": 82, "duration": 4, "velocity": 87}, {"time": 872, "pitch": 82, "duration": 5, "velocity": 86}, {"time": 878, "pitch": 80, "duration": 3, "velocity": 80}, {"time": 884, "pitch": 80, "duration": 4, "velocity": 84}, {"time": 890, "pitch": 79, "duration": 2, "velocity": 86}, {"time": 893, "pitch": 79, "duration": 3, "velocity": 86}, {"time": 896, "pitch": 79, "duration": 6, "velocity": 86}, {"time": 902, "pitch": 77, "duration": 6, "velocity": 87}, {"time": 908, "pitch": 75, "duration": 5, "velocity": 89}, {"time": 914, "pitch": 73, "duration": 5, "velocity": 87}, {"time": 920, "pitch": 73, "duration": 5, "velocity": 84}, {"time": 926, "pitch": 72, "duration": 2, "velocity": 80}, {"time": 929, "pitch": 73, "duration": 18, "velocity": 83}, {"time": 953, "pitch": 77, "duration": 3, "velocity": 86}, {"time": 956, "pitch": 85, "duration": 5, "velocity": 96}, {"time": 962, "pitch": 84, "duration": 2, "velocity": 86}, {"time": 965, "pitch": 84, "duration": 6, "velocity": 86}, {"time": 971, "pitch": 82, "duration": 8, "velocity": 89}, {"time": 980, "pitch": 82, "duration": 5, "velocity": 86}, {"time": 986, "pitch": 80, "duration": 2, "velocity": 80}, {"time": 989, "pitch": 80, "duration": 3, "velocity": 82}, {"time": 992, "pitch": 79, "duration": 6, "velocity": 82}, {"time": 998, "pitch": 77, "duration": 3, "velocity": 81}, {"time": 1004, "pitch": 77, "duration": 2, "velocity": 87}, {"time": 1007, "pitch": 77, "duration": 2, "velocity": 86}, {"time": 1010, "pitch": 77, "duration": 2, "velocity": 87}, {"time": 1013, "pitch": 77, "duration": 2, "velocity": 87}, {"time": 1016, "pitch": 77, "duration": 5, "velocity": 91}, {"time": 1022, "pitch": 79, "duration": 4, "velocity": 87}, {"time": 1028, "pitch": 80, "duration": 32, "velocity": 85}, {"time": 1244, "pitch": 72, "duration": 2, "velocity": 85}, {"time": 1247, "pitch": 72, "duration": 2, "velocity": 86}, {"time": 1250, "pitch": 72, "duration": 2, "velocity": 85}, {"time": 1253, "pitch": 72, "duration": 2, "velocity": 85}, {"time": 1256, "pitch": 72, "duration": 6, "velocity": 86}, {"time": 1262, "pitch": 68, "duration": 3, "velocity": 79}, {"time": 1265, "pitch": 75, "duration": 18, "velocity": 89}, {"time": 1286, "pitch": 72, "duration": 4, "velocity": 85}, {"time": 1289, "pitch": 75, "duration": 2, "velocity": 87}, {"time": 1292, "pitch": 80, "duration": 2, "velocity": 85}, {"time": 1295, "pitch": 80, "duration": 2, "velocity": 86}, {"time": 1298, "pitch": 80, "duration": 2, "velocity": 86}, {"time": 1301, "pitch": 80, "duration": 2, "velocity": 85}, {"time": 1304, "pitch": 79, "duration": 2, "velocity": 86}, {"time": 1307, "pitch": 80, "duration": 9, "velocity": 80}, {"time": 1316, "pitch": 77, "duration": 20, "velocity": 84}, {"time": 1340, "pitch": 73, "duration": 2, "velocity": 81}, {"time": 1343, "pitch": 73, "duration": 2, "velocity": 83}, {"time": 1346, "pitch": 73, "duration": 2, "velocity": 85}, {"time": 1349, "pitch": 73, "duration": 1, "velocity": 85}, {"time": 1352, "pitch": 73, "duration": 3, "velocity": 85}, {"time": 1355, "pitch": 70, "duration": 8, "velocity": 86}, {"time": 1364, "pitch": 82, "duration": 7, "velocity": 88}, {"time": 1373, "pitch": 80, "duration": 2, "velocity": 80}, {"time": 1376, "pitch": 79, "duration": 3, "velocity": 86}, {"time": 1379, "pitch": 80, "duration": 8, "velocity": 86}, {"time": 1388, "pitch": 79, "duration": 7, "velocity": 85}, {"time": 1397, "pitch": 80, "duration": 2, "velocity": 81}, {"time": 1400, "pitch": 79, "duration": 6, "velocity": 87}, {"time": 1406, "pitch": 77, "duration": 6, "velocity": 86}, {"time": 1412, "pitch": 75, "duration": 21, "velocity": 87}, {"time": 1436, "pitch": 80, "duration": 6, "velocity": 84}, {"time": 1442, "pitch": 79, "duration": 5, "velocity": 90}, {"time": 1448, "pitch": 80, "duration": 5, "velocity": 87}, {"time": 1454, "pitch": 79, "duration": 2, "velocity": 87}, {"time": 1457, "pitch": 80, "duration": 9, "velocity": 87}, {"time": 1466, "pitch": 75, "duration": 7, "velocity": 89}, {"time": 1475, "pitch": 72, "duration": 3, "velocity": 86}, {"time": 1478, "pitch": 68, "duration": 2, "velocity": 86}, {"time": 1481, "pitch": 68, "duration": 2, "velocity": 85}, {"time": 1484, "pitch": 78, "duration": 18, "velocity": 87}, {"time": 1502, "pitch": 77, "duration": 6, "velocity": 89}, {"time": 1508, "pitch": 77, "duration": 21, "velocity": 85}, {"time": 1532, "pitch": 82, "duration": 6, "velocity": 89}, {"time": 1538, "pitch": 81, "duration": 6, "velocity": 87}, {"time": 1544, "pitch": 82, "duration": 5, "velocity": 86}, {"time": 1550, "pitch": 81, "duration": 2, "velocity": 91}, {"time": 1553, "pitch": 82, "duration": 11, "velocity": 86}, {"time": 1565, "pitch": 77, "duration": 3, "velocity": 85}, {"time": 1568, "pitch": 74, "duration": 6, "velocity": 86}, {"time": 1574, "pitch": 70, "duration": 5, "velocity": 89}, {"time": 1580, "pitch": 80, "duration": 24, "velocity": 88}, {"time": 1604, "pitch": 79, "duration": 6, "velocity": 89}, {"time": 1610, "pitch": 75, "duration": 2, "velocity": 91}, {"time": 1613, "pitch": 75, "duration": 3, "velocity": 89}, {"time": 1616, "pitch": 80, "duration": 5, "velocity": 86}, {"time": 1622, "pitch": 82, "duration": 4, "velocity": 86}, {"time": 1628, "pitch": 84, "duration": 5, "velocity": 87}, {"time": 1634, "pitch": 82, "duration": 4, "velocity": 87}, {"time": 1640, "pitch": 82, "duration": 5, "velocity": 86}, {"time": 1646, "pitch": 80, "duration": 3, "velocity": 80}, {"time": 1652, "pitch": 80, "duration": 4, "velocity": 84}, {"time": 1658, "pitch": 79, "duration": 2, "velocity": 86}, {"time": 1661, "pitch": 79, "duration": 9, "velocity": 86}, {"time": 1670, "pitch": 77, "duration": 6, "velocity": 87}, {"time": 1676, "pitch": 75, "duration": 5, "velocity": 89}, {"time": 1682, "pitch": 73, "duration": 5, "velocity": 87}, {"time": 1688, "pitch": 73, "duration": 5, "velocity": 84}, {"time": 1694, "pitch": 72, "duration": 2, "velocity": 80}, {"time": 1697, "pitch": 73, "duration": 18, "velocity": 83}, {"time": 1721, "pitch": 77, "duration": 3, "velocity": 86}, {"time": 1724, "pitch": 85, "duration": 5, "velocity": 96}, {"time": 1730, "pitch": 84, "duration": 2, "velocity": 86}, {"time": 1733, "pitch": 84, "duration": 6, "velocity": 86}, {"time": 1739, "pitch": 82, "duration": 8, "velocity": 89}, {"time": 1748, "pitch": 82, "duration": 5, "velocity": 86}, {"time": 1754, "pitch": 80, "duration": 2, "velocity": 80}, {"time": 1757, "pitch": 79, "duration": 6, "velocity": 82}, {"time": 1763, "pitch": 77, "duration": 6, "velocity": 81}, {"time": 1772, "pitch": 79, "duration": 5, "velocity": 86}, {"time": 1778, "pitch": 77, "duration": 2, "velocity": 87}, {"time": 1781, "pitch": 77, "duration": 2, "velocity": 85}, {"time": 1784, "pitch": 79, "duration": 4, "velocity": 86}, {"time": 1790, "pitch": 80, "duration": 2, "velocity": 85}, {"time": 1793, "pitch": 75, "duration": 22, "velocity": 92}, {"time": 1817, "pitch": 75, "duration": 3, "velocity": 86}, {"time": 1820, "pitch": 84, "duration": 5, "velocity": 87}, {"time": 1826, "pitch": 82, "duration": 4, "velocity": 87}, {"time": 1832, "pitch": 82, "duration": 5, "velocity": 86}, {"time": 1838, "pitch": 80, "duration": 3, "velocity": 80}, {"time": 1844, "pitch": 80, "duration": 4, "velocity": 84}, {"time": 1850, "pitch": 79, "duration": 2, "velocity": 86}, {"time": 1853, "pitch": 79, "duration": 3, "velocity": 86}, {"time": 1856, "pitch": 79, "duration": 6, "velocity": 86}, {"time": 1862, "pitch": 77, "duration": 6, "velocity": 87}, {"time": 1868, "pitch": 75, "duration": 5, "velocity": 89}, {"time": 1874, "pitch": 73, "duration": 5, "velocity": 87}, {"time": 1880, "pitch": 73, "duration": 5, "velocity": 84}, {"time": 1886, "pitch": 72, "duration": 2, "velocity": 80}, {"time": 1889, "pitch": 73, "duration": 18, "velocity": 83}, {"time": 1913, "pitch": 77, "duration": 3, "velocity": 86}, {"time": 1916, "pitch": 85, "duration": 5, "velocity": 96}, {"time": 1922, "pitch": 84, "duration": 2, "velocity": 86}, {"time": 1925, "pitch": 84, "duration": 6, "velocity": 86}, {"time": 1931, "pitch": 82, "duration": 8, "velocity": 89}, {"time": 1940, "pitch": 82, "duration": 5, "velocity": 86}, {"time": 1946, "pitch": 80, "duration": 2, "velocity": 80}, {"time": 1949, "pitch": 80, "duration": 3, "velocity": 82}, {"time": 1952, "pitch": 79, "duration": 6, "velocity": 82}, {"time": 1958, "pitch": 77, "duration": 3, "velocity": 81}, {"time": 1964, "pitch": 77, "duration": 2, "velocity": 87}, {"time": 1967, "pitch": 77, "duration": 2, "velocity": 86}, {"time": 1970, "pitch": 77, "duration": 2, "velocity": 87}, {"time": 1973, "pitch": 77, "duration": 2, "velocity": 87}, {"time": 1976, "pitch": 77, "duration": 5, "velocity": 91}, {"time": 1982, "pitch": 79, "duration": 3, "velocity": 87}, {"time": 1985, "pitch": 80, "duration": 9, "velocity": 85}, {"time": 1994, "pitch": 76, "duration": 2, "velocity": 91}, {"time": 1997, "pitch": 76, "duration": 3, "velocity": 89}, {"time": 2000, "pitch": 81, "duration": 5, "velocity": 86}, {"time": 2006, "pitch": 83, "duration": 4, "velocity": 86}, {"time": 2012, "pitch": 85, "duration": 5, "velocity": 87}, {"time": 2018, "pitch": 83, "duration": 4, "velocity": 87}, {"time": 2024, "pitch": 83, "duration": 5, "velocity": 86}, {"time": 2030, "pitch": 81, "duration": 3, "velocity": 80}, {"time": 2036, "pitch": 81, "duration": 4, "velocity": 84}, {"time": 2042, "pitch": 80, "duration": 2, "velocity": 86}, {"time": 2045, "pitch": 80, "duration": 9, "velocity": 86}, {"time": 2054, "pitch": 78, "duration": 6, "velocity": 87}, {"time": 2060, "pitch": 76, "duration": 5, "velocity": 89}, {"time": 2066, "pitch": 74, "duration": 5, "velocity": 87}, {"time": 2072, "pitch": 74, "duration": 5, "velocity": 84}, {"time": 2078, "pitch": 73, "duration": 2, "velocity": 80}, {"time": 2081, "pitch": 74, "duration": 18, "velocity": 83}, {"time": 2105, "pitch": 78, "duration": 3, "velocity": 86}, {"time": 2108, "pitch": 86, "duration": 5, "velocity": 96}, {"time": 2114, "pitch": 85, "duration": 2, "velocity": 86}, {"time": 2117, "pitch": 85, "duration": 6, "velocity": 86}, {"time": 2123, "pitch": 83, "duration": 8, "velocity": 89}, {"time": 2132, "pitch": 83, "duration": 5, "velocity": 86}, {"time": 2138, "pitch": 81, "duration": 2, "velocity": 80}, {"time": 2141, "pitch": 80, "duration": 6, "velocity": 82}, {"time": 2147, "pitch": 78, "duration": 6, "velocity": 81}, {"time": 2156, "pitch": 80, "duration": 5, "velocity": 86}, {"time": 2162, "pitch": 78, "duration": 2, "velocity": 87}, {"time": 2165, "pitch": 78, "duration": 2, "velocity": 85}, {"time": 2168, "pitch": 80, "duration": 4, "velocity": 86}, {"time": 2174, "pitch": 81, "duration": 2, "velocity": 85}, {"time": 2177, "pitch": 76, "duration": 22, "velocity": 92}, {"time": 2201, "pitch": 76, "duration": 3, "velocity": 86}, {"time": 2204, "pitch": 85, "duration": 5, "velocity": 87}, {"time": 2210, "pitch": 83, "duration": 4, "velocity": 87}, {"time": 2216, "pitch": 83, "duration": 5, "velocity": 86}, {"time": 2222, "pitch": 81, "duration": 3, "velocity": 80}, {"time": 2228, "pitch": 81, "duration": 4, "velocity": 84}, {"time": 2234, "pitch": 80, "duration": 2, "velocity": 86}, {"time": 2237, "pitch": 80, "duration": 3, "velocity": 86}, {"time": 2240, "pitch": 80, "duration": 6, "velocity": 86}, {"time": 2246, "pitch": 78, "duration": 6, "velocity": 87}, {"time": 2252, "pitch": 76, "duration": 5, "velocity": 89}, {"time": 2258, "pitch": 74, "duration": 5, "velocity": 87}, {"time": 2264, "pitch": 74, "duration": 5, "velocity": 84}, {"time": 2270, "pitch": 73, "duration": 2, "velocity": 80}, {"time": 2273, "pitch": 74, "duration": 18, "velocity": 83}, {"time": 2297, "pitch": 78, "duration": 3, "velocity": 86}, {"time": 2300, "pitch": 86, "duration": 5, "velocity": 96}, {"time": 2306, "pitch": 85, "duration": 2, "velocity": 86}, {"time": 2309, "pitch": 85, "duration": 6, "velocity": 86}, {"time": 2315, "pitch": 83, "duration": 8, "velocity": 89}, {"time": 2324, "pitch": 83, "duration": 5, "velocity": 86}, {"time": 2330, "pitch": 81, "duration": 2, "velocity": 80}, {"time": 2333, "pitch": 81, "duration": 3, "velocity": 82}, {"time": 2336, "pitch": 80, "duration": 6, "velocity": 82}, {"time": 2342, "pitch": 78, "duration": 3, "velocity": 81}, {"time": 2348, "pitch": 78, "duration": 2, "velocity": 87}, {"time": 2351, "pitch": 78, "duration": 2, "velocity": 86}, {"time": 2354, "pitch": 78, "duration": 2, "velocity": 87}, {"time": 2357, "pitch": 78, "duration": 2, "velocity": 87}, {"time": 2360, "pitch": 78, "duration": 5, "velocity": 91}, {"time": 2366, "pitch": 80, "duration": 3, "velocity": 87}, {"time": 2369, "pitch": 81, "duration": 9, "velocity": 85}]}, {"program": 0, "is_drum": false, "name": "PIANO", "notes": [{"time": 44, "pitch": 44, "duration": 22, "velocity": 86}, {"time": 50, "pitch": 60, "duration": 4, "velocity": 78}, {"time": 56, "pitch": 56, "duration": 3, "velocity": 79}, {"time": 56, "pitch": 60, "duration": 3, "velocity": 85}, {"time": 56, "pitch": 63, "duration": 4, "velocity": 85}, {"time": 62, "pitch": 60, "duration": 8, "velocity": 81}, {"time": 68, "pitch": 42, "duration": 22, "velocity": 86}, {"time": 74, "pitch": 56, "duration": 2, "velocity": 71}, {"time": 74, "pitch": 60, "duration": 2, "velocity": 74}, {"time": 80, "pitch": 56, "duration": 2, "velocity": 81}, {"time": 80, "pitch": 63, "duration": 3, "velocity": 84}, {"time": 86, "pitch": 56, "duration": 8, "velocity": 77}, {"time": 86, "pitch": 60, "duration": 9, "velocity": 80}, {"time": 92, "pitch": 41, "duration": 13, "velocity": 88}, {"time": 98, "pitch": 56, "duration": 4, "velocity": 80}, {"time": 98, "pitch": 61, "duration": 3, "velocity": 78}, {"time": 104, "pitch": 56, "duration": 4, "velocity": 86}, {"time": 104, "pitch": 65, "duration": 5, "velocity": 89}, {"time": 110, "pitch": 56, "duration": 6, "velocity": 79}, {"time": 110, "pitch": 61, "duration": 6, "velocity": 83}, {"time": 116, "pitch": 46, "duration": 23, "velocity": 86}, {"time": 116, "pitch": 58, "duration": 5, "velocity": 78}, {"time": 122, "pitch": 58, "duration": 3, "velocity": 81}, {"time": 122, "pitch": 62, "duration": 2, "velocity": 81}, {"time": 128, "pitch": 58, "duration": 3, "velocity": 84}, {"time": 128, "pitch": 65, "duration": 4, "velocity": 89}, {"time": 134, "pitch": 58, "duration": 6, "velocity": 80}, {"time": 134, "pitch": 62, "duration": 5, "velocity": 80}, {"time": 140, "pitch": 44, "duration": 22, "velocity": 86}, {"time": 140, "pitch": 56, "duration": 9, "velocity": 80}, {"time": 140, "pitch": 63, "duration": 10, "velocity": 85}, {"time": 146, "pitch": 51, "duration": 16, "velocity": 79}, {"time": 152, "pitch": 56, "duration": 3, "velocity": 85}, {"time": 152, "pitch": 60, "duration": 6, "velocity": 87}, {"time": 158, "pitch": 56, "duration": 3, "velocity": 88}, {"time": 164, "pitch": 46, "duration": 17, "velocity": 86}, {"time": 164, "pitch": 58, "duration": 10, "velocity": 78}, {"time": 170, "pitch": 53, "duration": 9, "velocity": 86}, {"time": 176, "pitch": 58, "duration": 3, "velocity": 73}, {"time": 176, "pitch": 65, "duration": 7, "velocity": 82}, {"time": 182, "pitch": 58, "duration": 4, "velocity": 74}, {"time": 188, "pitch": 39, "duration": 24, "velocity": 86}, {"time": 188, "pitch": 56, "duration": 6, "velocity": 78}, {"time": 188, "pitch": 63, "duration": 6, "velocity": 81}, {"time": 194, "pitch": 60, "duration": 2, "velocity": 79}, {"time": 200, "pitch": 56, "duration": 11, "velocity": 84}, {"time": 200, "pitch": 63, "duration": 6, "velocity": 86}, {"time": 206, "pitch": 60, "duration": 6, "velocity": 90}, {"time": 212, "pitch": 39, "duration": 1, "velocity": 87}, {"time": 212, "pitch": 58, "duration": 3, "velocity": 72}, {"time": 212, "pitch": 63, "duration": 7, "velocity": 78}, {"time": 218, "pitch": 58, "duration": 4, "velocity": 78}, {"time": 224, "pitch": 58, "duration": 2, "velocity": 81}, {"time": 224, "pitch": 63, "duration": 5, "velocity": 85}, {"time": 224, "pitch": 67, "duration": 5, "velocity": 78}, {"time": 230, "pitch": 58, "duration": 2, "velocity": 81}, {"time": 236, "pitch": 44, "duration": 23, "velocity": 85}, {"time": 236, "pitch": 56, "duration": 9, "velocity": 77}, {"time": 236, "pitch": 63, "duration": 8, "velocity": 81}, {"time": 242, "pitch": 51, "duration": 9, "velocity": 78}, {"time": 248, "pitch": 56, "duration": 8, "velocity": 79}, {"time": 248, "pitch": 61, "duration": 9, "velocity": 77}, {"time": 254, "pitch": 51, "duration": 6, "velocity": 78}, {"time": 260, "pitch": 44, "duration": 21, "velocity": 84}, {"time": 260, "pitch": 56, "duration": 9, "velocity": 78}, {"time": 260, "pitch": 60, "duration": 7, "velocity": 76}, {"time": 266, "pitch": 51, "duration": 14, "velocity": 61}, {"time": 272, "pitch": 60, "duration": 7, "velocity": 73}, {"time": 272, "pitch": 63, "duration": 7, "velocity": 79}, {"time": 284, "pitch": 44, "duration": 42, "velocity": 86}, {"time": 284, "pitch": 56, "duration": 12, "velocity": 76}, {"time": 284, "pitch": 60, "duration": 7, "velocity": 79}, {"time": 290, "pitch": 51, "duration": 35, "velocity": 61}, {"time": 296, "pitch": 63, "duration": 7, "velocity": 87}, {"time": 302, "pitch": 56, "duration": 4, "velocity": 87}, {"time": 308, "pitch": 56, "duration": 2, "velocity": 68}, {"time": 308, "pitch": 60, "duration": 4, "velocity": 69}, {"time": 320, "pitch": 56, "duration": 2, "velocity": 79}, {"time": 320, "pitch": 60, "duration": 3, "velocity": 78}, {"time": 320, "pitch": 63, "duration": 4, "velocity": 83}, {"time": 332, "pitch": 44, "duration": 8, "velocity": 84}, {"time": 332, "pitch": 56, "duration": 6, "velocity": 78}, {"time": 332, "pitch": 60, "duration": 6, "velocity": 79}, {"time": 338, "pitch": 51, "duration": 3, "velocity": 72}, {"time": 344, "pitch": 48, "duration": 4, "velocity": 85}, {"time": 344, "pitch": 60, "duration": 3, "velocity": 78}, {"time": 344, "pitch": 63, "duration": 7, "velocity": 80}, {"time": 350, "pitch": 60, "duration": 2, "velocity": 90}, {"time": 356, "pitch": 49, "duration": 19, "velocity": 83}, {"time": 356, "pitch": 56, "duration": 3, "velocity": 76}, {"time": 356, "pitch": 61, "duration": 7, "velocity": 78}, {"time": 362, "pitch": 56, "duration": 7, "velocity": 67}, {"time": 368, "pitch": 61, "duration": 5, "velocity": 82}, {"time": 368, "pitch": 65, "duration": 7, "velocity": 88}, {"time": 374, "pitch": 56, "duration": 2, "velocity": 89}, {"time": 374, "pitch": 61, "duration": 1, "velocity": 41}, {"time": 380, "pitch": 46, "duration": 22, "velocity": 85}, {"time": 380, "pitch": 58, "duration": 7, "velocity": 68}, {"time": 380, "pitch": 61, "duration": 7, "velocity": 79}, {"time": 386, "pitch": 53, "duration": 16, "velocity": 65}, {"time": 392, "pitch": 58, "duration": 1, "velocity": 84}, {"time": 392, "pitch": 65, "duration": 2, "velocity": 86}, {"time": 404, "pitch": 46, "duration": 17, "velocity": 82}, {"time": 404, "pitch": 58, "duration": 4, "velocity": 68}, {"time": 404, "pitch": 61, "duration": 4, "velocity": 74}, {"time": 410, "pitch": 53, "duration": 11, "velocity": 60}, {"time": 416, "pitch": 58, "duration": 2, "velocity": 85}, {"time": 416, "pitch": 65, "duration": 3, "velocity": 86}, {"time": 428, "pitch": 46, "duration": 19, "velocity": 86}, {"time": 428, "pitch": 56, "duration": 4, "velocity": 78}, {"time": 428, "pitch": 62, "duration": 6, "velocity": 73}, {"time": 434, "pitch": 53, "duration": 13, "velocity": 82}, {"time": 440, "pitch": 58, "duration": 5, "velocity": 82}, {"time": 440, "pitch": 65, "duration": 4, "velocity": 86}, {"time": 446, "pitch": 62, "duration": 6, "velocity": 89}, {"time": 452, "pitch": 51, "duration": 16, "velocity": 83}, {"time": 452, "pitch": 63, "duration": 5, "velocity": 85}, {"time": 458, "pitch": 58, "duration": 7, "velocity": 86}, {"time": 464, "pitch": 67, "duration": 4, "velocity": 86}, {"time": 470, "pitch": 63, "duration": 1, "velocity": 80}, {"time": 476, "pitch": 44, "duration": 20, "velocity": 86}, {"time": 476, "pitch": 56, "duration": 8, "velocity": 69}, {"time": 476, "pitch": 60, "duration": 7, "velocity": 76}, {"time": 482, "pitch": 51, "duration": 15, "velocity": 74}, {"time": 488, "pitch": 56, "duration": 2, "velocity": 85}, {"time": 488, "pitch": 63, "duration": 2, "velocity": 85}, {"time": 500, "pitch": 44, "duration": 15, "velocity": 85}, {"time": 500, "pitch": 56, "duration": 7, "velocity": 70}, {"time": 500, "pitch": 60, "duration": 7, "velocity": 77}, {"time": 506, "pitch": 51, "duration": 8, "velocity": 70}, {"time": 512, "pitch": 56, "duration": 4, "velocity": 81}, {"time": 512, "pitch": 60, "duration": 5, "velocity": 87}, {"time": 512, "pitch": 63, "duration": 5, "velocity": 86}, {"time": 518, "pitch": 44, "duration": 5, "velocity": 88}, {"time": 524, "pitch": 49, "duration": 21, "velocity": 86}, {"time": 524, "pitch": 56, "duration": 3, "velocity": 79}, {"time": 524, "pitch": 61, "duration": 7, "velocity": 81}, {"time": 524, "pitch": 53, "duration": 15, "velocity": 78}, {"time": 530, "pitch": 56, "duration": 5, "velocity": 74}, {"time": 536, "pitch": 56, "duration": 3, "velocity": 78}, {"time": 536, "pitch": 61, "duration": 3, "velocity": 83}, {"time": 536, "pitch": 65, "duration": 3, "velocity": 81}, {"time": 548, "pitch": 49, "duration": 17, "velocity": 80}, {"time": 548, "pitch": 56, "duration": 5, "velocity": 70}, {"time": 548, "pitch": 61, "duration": 6, "velocity": 73}, {"time": 560, "pitch": 56, "duration": 3, "velocity": 85}, {"time": 560, "pitch": 61, "duration": 4, "velocity": 87}, {"time": 566, "pitch": 60, "duration": 4, "velocity": 89}, {"time": 572, "pitch": 46, "duration": 16, "velocity": 86}, {"time": 572, "pitch": 58, "duration": 8, "velocity": 81}, {"time": 578, "pitch": 53, "duration": 9, "velocity": 83}, {"time": 584, "pitch": 58, "duration": 2, "velocity": 86}, {"time": 584, "pitch": 62, "duration": 2, "velocity": 88}, {"time": 596, "pitch": 46, "duration": 18, "velocity": 85}, {"time": 596, "pitch": 58, "duration": 7, "velocity": 74}, {"time": 596, "pitch": 62, "duration": 7, "velocity": 74}, {"time": 596, "pitch": 65, "duration": 7, "velocity": 83}, {"time": 602, "pitch": 53, "duration": 11, "velocity": 74}, {"time": 608, "pitch": 58, "duration": 3, "velocity": 84}, {"time": 608, "pitch": 62, "duration": 4, "velocity": 91}, {"time": 614, "pitch": 58, "duration": 4, "velocity": 86}, {"time": 620, "pitch": 51, "duration": 21, "velocity": 85}, {"time": 620, "pitch": 58, "duration": 3, "velocity": 82}, {"time": 620, "pitch": 63, "duration": 8, "velocity": 85}, {"time": 626, "pitch": 58, "duration": 3, "velocity": 75}, {"time": 632, "pitch": 58, "duration": 3, "velocity": 85}, {"time": 632, "pitch": 65, "duration": 6, "velocity": 86}, {"time": 638, "pitch": 63, "duration": 3, "velocity": 85}, {"time": 644, "pitch": 51, "duration": 23, "velocity": 88}, {"time": 644, "pitch": 58, "duration": 3, "velocity": 80}, {"time": 644, "pitch": 67, "duration": 6, "velocity": 82}, {"time": 650, "pitch": 58, "duration": 5, "velocity": 86}, {"time": 656, "pitch": 58, "duration": 3, "velocity": 86}, {"time": 656, "pitch": 63, "duration": 4, "velocity": 86}, {"time": 662, "pitch": 58, "duration": 5, "velocity": 81}, {"time": 662, "pitch": 61, "duration": 5, "velocity": 76}, {"time": 668, "pitch": 44, "duration": 20, "velocity": 86}, {"time": 668, "pitch": 56, "duration": 3, "velocity": 79}, {"time": 668, "pitch": 60, "duration": 6, "velocity": 79}, {"time": 671, "pitch": 51, "duration": 10, "velocity": 76}, {"time": 674, "pitch": 56, "duration": 5, "velocity": 85}, {"time": 680, "pitch": 56, "duration": 4, "velocity": 86}, {"time": 680, "pitch": 63, "duration": 6, "velocity": 86}, {"time": 683, "pitch": 51, "duration": 4, "velocity": 80}, {"time": 686, "pitch": 56, "duration": 5, "velocity": 85}, {"time": 689, "pitch": 60, "duration": 2, "velocity": 77}, {"time": 692, "pitch": 41, "duration": 16, "velocity": 87}, {"time": 692, "pitch": 60, "duration": 9, "velocity": 85}, {"time": 698, "pitch": 48, "duration": 7, "velocity": 74}, {"time": 701, "pitch": 56, "duration": 2, "velocity": 77}, {"time": 704, "pitch": 65, "duration": 7, "velocity": 89}, {"time": 707, "pitch": 48, "duration": 2, "velocity": 84}, {"time": 710, "pitch": 60, "duration": 4, "velocity": 85}, {"time": 713, "pitch": 56, "duration": 2, "velocity": 77}, {"time": 716, "pitch": 49, "duration": 13, "velocity": 86}, {"time": 716, "pitch": 56, "duration": 3, "velocity": 81}, {"time": 716, "pitch": 61, "duration": 7, "velocity": 77}, {"time": 722, "pitch": 56, "duration": 2, "velocity": 78}, {"time": 728, "pitch": 56, "duration": 4, "velocity": 86}, {"time": 728, "pitch": 65, "duration": 6, "velocity": 87}, {"time": 731, "pitch": 49, "duration": 2, "velocity": 87}, {"time": 734, "pitch": 61, "duration": 3, "velocity": 84}, {"time": 737, "pitch": 60, "duration": 3, "velocity": 92}, {"time": 740, "pitch": 46, "duration": 19, "velocity": 86}, {"time": 740, "pitch": 61, "duration": 5, "velocity": 86}, {"time": 743, "pitch": 53, "duration": 7, "velocity": 81}, {"time": 746, "pitch": 58, "duration": 2, "velocity": 81}, {"time": 749, "pitch": 61, "duration": 4, "velocity": 90}, {"time": 752, "pitch": 53, "duration": 4, "velocity": 88}, {"time": 755, "pitch": 58, "duration": 2, "velocity": 85}, {"time": 755, "pitch": 65, "duration": 2, "velocity": 89}, {"time": 758, "pitch": 53, "duration": 2, "velocity": 82}, {"time": 761, "pitch": 58, "duration": 2, "velocity": 76}, {"time": 764, "pitch": 46, "duration": 22, "velocity": 87}, {"time": 764, "pitch": 58, "duration": 7, "velocity": 83}, {"time": 764, "pitch": 61, "duration": 6, "velocity": 86}, {"time": 770, "pitch": 53, "duration": 8, "velocity": 76}, {"time": 776, "pitch": 58, "duration": 3, "velocity": 84}, {"time": 776, "pitch": 61, "duration": 4, "velocity": 88}, {"time": 776, "pitch": 65, "duration": 4, "velocity": 87}, {"time": 779, "pitch": 53, "duration": 7, "velocity": 85}, {"time": 782, "pitch": 58, "duration": 4, "velocity": 83}, {"time": 788, "pitch": 46, "duration": 22, "velocity": 86}, {"time": 788, "pitch": 58, "duration": 7, "velocity": 77}, {"time": 788, "pitch": 61, "duration": 7, "velocity": 75}, {"time": 794, "pitch": 53, "duration": 7, "velocity": 70}, {"time": 797, "pitch": 58, "duration": 2, "velocity": 74}, {"time": 800, "pitch": 58, "duration": 3, "velocity": 78}, {"time": 800, "pitch": 61, "duration": 7, "velocity": 86}, {"time": 800, "pitch": 65, "duration": 7, "velocity": 88}, {"time": 803, "pitch": 53, "duration": 7, "velocity": 81}, {"time": 806, "pitch": 58, "duration": 2, "velocity": 87}, {"time": 812, "pitch": 46, "duration": 14, "velocity": 86}, {"time": 812, "pitch": 56, "duration": 7, "velocity": 86}, {"time": 812, "pitch": 62, "duration": 8, "velocity": 77}, {"time": 818, "pitch": 53, "duration": 7, "velocity": 86}, {"time": 824, "pitch": 58, "duration": 3, "velocity": 86}, {"time": 824, "pitch": 65, "duration": 4, "velocity": 96}, {"time": 827, "pitch": 53, "duration": 3, "velocity": 87}, {"time": 830, "pitch": 58, "duration": 3, "velocity": 85}, {"time": 830, "pitch": 62, "duration": 2, "velocity": 88}, {"time": 836, "pitch": 51, "duration": 10, "velocity": 90}, {"time": 836, "pitch": 58, "duration": 2, "velocity": 86}, {"time": 836, "pitch": 63, "duration": 7, "velocity": 86}, {"time": 842, "pitch": 58, "duration": 2, "velocity": 89}, {"time": 848, "pitch": 51, "duration": 6, "velocity": 91}, {"time": 848, "pitch": 58, "duration": 3, "velocity": 85}, {"time": 848, "pitch": 63, "duration": 3, "velocity": 87}, {"time": 851, "pitch": 65, "duration": 2, "velocity": 88}, {"time": 854, "pitch": 67, "duration": 2, "velocity": 94}, {"time": 860, "pitch": 44, "duration": 20, "velocity": 86}, {"time": 860, "pitch": 56, "duration": 3, "velocity": 79}, {"time": 860, "pitch": 60, "duration": 6, "velocity": 79}, {"time": 863, "pitch": 51, "duration": 10, "velocity": 76}, {"time": 866, "pitch": 56, "duration": 5, "velocity": 85}, {"time": 872, "pitch": 56, "duration": 4, "velocity": 86}, {"time": 872, "pitch": 63, "duration": 6, "velocity": 86}, {"time": 875, "pitch": 51, "duration": 4, "velocity": 80}, {"time": 878, "pitch": 56, "duration": 5, "velocity": 85}, {"time": 881, "pitch": 60, "duration": 2, "velocity": 77}, {"time": 884, "pitch": 41, "duration": 16, "velocity": 87}, {"time": 884, "pitch": 60, "duration": 9, "velocity": 85}, {"time": 890, "pitch": 48, "duration": 7, "velocity": 74}, {"time": 893, "pitch": 56, "duration": 2, "velocity": 77}, {"time": 896, "pitch": 65, "duration": 7, "velocity": 89}, {"time": 899, "pitch": 48, "duration": 2, "velocity": 84}, {"time": 902, "pitch": 60, "duration": 4, "velocity": 85}, {"time": 905, "pitch": 56, "duration": 2, "velocity": 77}, {"time": 908, "pitch": 49, "duration": 13, "velocity": 86}, {"time": 908, "pitch": 56, "duration": 3, "velocity": 81}, {"time": 908, "pitch": 61, "duration": 7, "velocity": 77}, {"time": 914, "pitch": 56, "duration": 2, "velocity": 78}, {"time": 920, "pitch": 56, "duration": 4, "velocity": 86}, {"time": 920, "pitch": 65, "duration": 6, "velocity": 87}, {"time": 923, "pitch": 49, "duration": 2, "velocity": 87}, {"time": 926, "pitch": 61, "duration": 3, "velocity": 84}, {"time": 929, "pitch": 60, "duration": 3, "velocity": 92}, {"time": 932, "pitch": 46, "duration": 19, "velocity": 86}, {"time": 932, "pitch": 61, "duration": 5, "velocity": 86}, {"time": 935, "pitch": 53, "duration": 7, "velocity": 81}, {"time": 938, "pitch": 58, "duration": 2, "velocity": 81}, {"time": 941, "pitch": 61, "duration": 4, "velocity": 90}, {"time": 944, "pitch": 53, "duration": 4, "velocity": 88}, {"time": 947, "pitch": 58, "duration": 2, "velocity": 85}, {"time": 947, "pitch": 65, "duration": 2, "velocity": 89}, {"time": 950, "pitch": 53, "duration": 2, "velocity": 82}, {"time": 953, "pitch": 58, "duration": 2, "velocity": 76}, {"time": 956, "pitch": 46, "duration": 22, "velocity": 87}, {"time": 956, "pitch": 58, "duration": 7, "velocity": 83}, {"time": 956, "pitch": 61, "duration": 6, "velocity": 86}, {"time": 962, "pitch": 53, "duration": 8, "velocity": 76}, {"time": 968, "pitch": 58, "duration": 3, "velocity": 84}, {"time": 968, "pitch": 61, "duration": 4, "velocity": 88}, {"time": 968, "pitch": 65, "duration": 4, "velocity": 87}, {"time": 971, "pitch": 53, "duration": 7, "velocity": 85}, {"time": 974, "pitch": 58, "duration": 4, "velocity": 83}, {"time": 980, "pitch": 46, "duration": 22, "velocity": 86}, {"time": 980, "pitch": 58, "duration": 7, "velocity": 77}, {"time": 980, "pitch": 61, "duration": 7, "velocity": 75}, {"time": 986, "pitch": 53, "duration": 7, "velocity": 70}, {"time": 989, "pitch": 58, "duration": 2, "velocity": 74}, {"time": 992, "pitch": 58, "duration": 3, "velocity": 78}, {"time": 992, "pitch": 61, "duration": 7, "velocity": 86}, {"time": 992, "pitch": 65, "duration": 7, "velocity": 88}, {"time": 995, "pitch": 53, "duration": 7, "velocity": 81}, {"time": 998, "pitch": 58, "duration": 2, "velocity": 87}, {"time": 1004, "pitch": 39, "duration": 15, "velocity": 91}, {"time": 1004, "pitch": 58, "duration": 3, "velocity": 81}, {"time": 1004, "pitch": 63, "duration": 6, "velocity": 81}, {"time": 1007, "pitch": 46, "duration": 10, "velocity": 77}, {"time": 1010, "pitch": 58, "duration": 4, "velocity": 86}, {"time": 1013, "pitch": 63, "duration": 2, "velocity": 85}, {"time": 1016, "pitch": 58, "duration": 4, "velocity": 86}, {"time": 1016, "pitch": 67, "duration": 5, "velocity": 91}, {"time": 1019, "pitch": 46, "duration": 1, "velocity": 86}, {"time": 1022, "pitch": 63, "duration": 3, "velocity": 86}, {"time": 1025, "pitch": 58, "duration": 1, "velocity": 79}, {"time": 1028, "pitch": 44, "duration": 22, "velocity": 85}, {"time": 1028, "pitch": 56, "duration": 8, "velocity": 80}, {"time": 1028, "pitch": 60, "duration": 7, "velocity": 80}, {"time": 1034, "pitch": 63, "duration": 3, "velocity": 79}, {"time": 1040, "pitch": 56, "duration": 3, "velocity": 92}, {"time": 1040, "pitch": 68, "duration": 2, "velocity": 85}, {"time": 1043, "pitch": 51, "duration": 7, "velocity": 86}, {"time": 1046, "pitch": 56, "duration": 6, "velocity": 85}, {"time": 1049, "pitch": 60, "duration": 2, "velocity": 81}, {"time": 1052, "pitch": 44, "duration": 21, "velocity": 86}, {"time": 1052, "pitch": 56, "duration": 7, "velocity": 72}, {"time": 1052, "pitch": 60, "duration": 7, "velocity": 80}, {"time": 1052, "pitch": 63, "duration": 7, "velocity": 83}, {"time": 1058, "pitch": 51, "duration": 7, "velocity": 74}, {"time": 1064, "pitch": 56, "duration": 5, "velocity": 87}, {"time": 1064, "pitch": 63, "duration": 7, "velocity": 85}, {"time": 1067, "pitch": 51, "duration": 5, "velocity": 82}, {"time": 1070, "pitch": 60, "duration": 3, "velocity": 76}, {"time": 1073, "pitch": 56, "duration": 2, "velocity": 86}, {"time": 1076, "pitch": 42, "duration": 18, "velocity": 85}, {"time": 1076, "pitch": 54, "duration": 16, "velocity": 81}, {"time": 1076, "pitch": 58, "duration": 10, "velocity": 80}, {"time": 1082, "pitch": 49, "duration": 13, "velocity": 78}, {"time": 1085, "pitch": 61, "duration": 2, "velocity": 83}, {"time": 1088, "pitch": 66, "duration": 4, "velocity": 87}, {"time": 1091, "pitch": 61, "duration": 4, "velocity": 86}, {"time": 1094, "pitch": 58, "duration": 3, "velocity": 82}, {"time": 1097, "pitch": 54, "duration": 1, "velocity": 82}, {"time": 1100, "pitch": 49, "duration": 19, "velocity": 81}, {"time": 1100, "pitch": 56, "duration": 3, "velocity": 75}, {"time": 1100, "pitch": 61, "duration": 8, "velocity": 85}, {"time": 1106, "pitch": 56, "duration": 4, "velocity": 79}, {"time": 1112, "pitch": 56, "duration": 2, "velocity": 85}, {"time": 1112, "pitch": 61, "duration": 4, "velocity": 87}, {"time": 1112, "pitch": 65, "duration": 6, "velocity": 89}, {"time": 1115, "pitch": 56, "duration": 4, "velocity": 80}, {"time": 1118, "pitch": 61, "duration": 3, "velocity": 79}, {"time": 1121, "pitch": 56, "duration": 3, "velocity": 81}, {"time": 1124, "pitch": 40, "duration": 16, "velocity": 90}, {"time": 1124, "pitch": 56, "duration": 5, "velocity": 77}, {"time": 1124, "pitch": 59, "duration": 8, "velocity": 87}, {"time": 1130, "pitch": 47, "duration": 11, "velocity": 76}, {"time": 1133, "pitch": 56, "duration": 2, "velocity": 84}, {"time": 1136, "pitch": 64, "duration": 4, "velocity": 96}, {"time": 1139, "pitch": 59, "duration": 3, "velocity": 94}, {"time": 1142, "pitch": 56, "duration": 5, "velocity": 86}, {"time": 1148, "pitch": 39, "duration": 22, "velocity": 86}, {"time": 1148, "pitch": 56, "duration": 2, "velocity": 83}, {"time": 1148, "pitch": 68, "duration": 4, "velocity": 81}, {"time": 1151, "pitch": 63, "duration": 4, "velocity": 80}, {"time": 1154, "pitch": 56, "duration": 3, "velocity": 84}, {"time": 1157, "pitch": 56, "duration": 1, "velocity": 79}, {"time": 1157, "pitch": 68, "duration": 4, "velocity": 87}, {"time": 1160, "pitch": 63, "duration": 4, "velocity": 85}, {"time": 1163, "pitch": 56, "duration": 2, "velocity": 83}, {"time": 1166, "pitch": 56, "duration": 1, "velocity": 87}, {"time": 1166, "pitch": 63, "duration": 4, "velocity": 89}, {"time": 1169, "pitch": 56, "duration": 1, "velocity": 85}, {"time": 1172, "pitch": 39, "duration": 13, "velocity": 90}, {"time": 1172, "pitch": 58, "duration": 4, "velocity": 76}, {"time": 1172, "pitch": 63, "duration": 5, "velocity": 86}, {"time": 1178, "pitch": 58, "duration": 4, "velocity": 85}, {"time": 1184, "pitch": 58, "duration": 4, "velocity": 87}, {"time": 1184, "pitch": 67, "duration": 4, "velocity": 89}, {"time": 1187, "pitch": 63, "duration": 3, "velocity": 82}, {"time": 1190, "pitch": 58, "duration": 2, "velocity": 88}, {"time": 1196, "pitch": 44, "duration": 20, "velocity": 80}, {"time": 1196, "pitch": 56, "duration": 7, "velocity": 82}, {"time": 1196, "pitch": 60, "duration": 6, "velocity": 89}, {"time": 1202, "pitch": 51, "duration": 7, "velocity": 84}, {"time": 1208, "pitch": 56, "duration": 2, "velocity": 86}, {"time": 1208, "pitch": 61, "duration": 4, "velocity": 89}, {"time": 1210, "pitch": 56, "duration": 1, "velocity": 78}, {"time": 1211, "pitch": 51, "duration": 6, "velocity": 79}, {"time": 1214, "pitch": 56, "duration": 2, "velocity": 86}, {"time": 1217, "pitch": 61, "duration": 2, "velocity": 74}, {"time": 1220, "pitch": 44, "duration": 20, "velocity": 86}, {"time": 1220, "pitch": 56, "duration": 6, "velocity": 82}, {"time": 1220, "pitch": 60, "duration": 6, "velocity": 84}, {"time": 1226, "pitch": 51, "duration": 8, "velocity": 74}, {"time": 1232, "pitch": 56, "duration": 11, "velocity": 76}, {"time": 1232, "pitch": 60, "duration": 11, "velocity": 77}, {"time": 1232, "pitch": 63, "duration": 11, "velocity": 78}, {"time": 1238, "pitch": 51, "duration": 5, "velocity": 81}, {"time": 1244, "pitch": 44, "duration": 42, "velocity": 86}, {"time": 1244, "pitch": 56, "duration": 12, "velocity": 76}, {"time": 1244, "pitch": 60, "duration": 7, "velocity": 79}, {"time": 1250, "pitch": 51, "duration": 35, "velocity": 61}, {"time": 1256, "pitch": 63, "duration": 7, "velocity": 87}, {"time": 1262, "pitch": 56, "duration": 4, "velocity": 87}, {"time": 1268, "pitch": 56, "duration": 2, "velocity": 68}, {"time": 1268, "pitch": 60, "duration": 4, "velocity": 69}, {"time": 1280, "pitch": 56, "duration": 2, "velocity": 79}, {"time": 1280, "pitch": 60, "duration": 3, "velocity": 78}, {"time": 1280, "pitch": 63, "duration": 4, "velocity": 83}, {"time": 1292, "pitch": 44, "duration": 8, "velocity": 84}, {"time": 1292, "pitch": 56, "duration": 6, "velocity": 78}, {"time": 1292, "pitch": 60, "duration": 6, "velocity": 79}, {"time": 1298, "pitch": 51, "duration": 3, "velocity": 72}, {"time": 1304, "pitch": 48, "duration": 4, "velocity": 85}, {"time": 1304, "pitch": 60, "duration": 3, "velocity": 78}, {"time": 1304, "pitch": 63, "duration": 7, "velocity": 80}, {"time": 1310, "pitch": 60, "duration": 2, "velocity": 90}, {"time": 1316, "pitch": 49, "duration": 19, "velocity": 83}, {"time": 1316, "pitch": 56, "duration": 3, "velocity": 76}, {"time": 1316, "pitch": 61, "duration": 7, "velocity": 78}, {"time": 1322, "pitch": 56, "duration": 7, "velocity": 67}, {"time": 1328, "pitch": 61, "duration": 5, "velocity": 82}, {"time": 1328, "pitch": 65, "duration": 7, "velocity": 88}, {"time": 1334, "pitch": 56, "duration": 2, "velocity": 89}, {"time": 1334, "pitch": 61, "duration": 1, "velocity": 41}, {"time": 1340, "pitch": 46, "duration": 22, "velocity": 85}, {"time": 1340, "pitch": 58, "duration": 7, "velocity": 68}, {"time": 1340, "pitch": 61, "duration": 7, "velocity": 79}, {"time": 1346, "pitch": 53, "duration": 16, "velocity": 65}, {"time": 1352, "pitch": 58, "duration": 1, "velocity": 84}, {"time": 1352, "pitch": 65, "duration": 2, "velocity": 86}, {"time": 1364, "pitch": 46, "duration": 17, "velocity": 82}, {"time": 1364, "pitch": 58, "duration": 4, "velocity": 68}, {"time": 1364, "pitch": 61, "duration": 4, "velocity": 74}, {"time": 1370, "pitch": 53, "duration": 11, "velocity": 60}, {"time": 1376, "pitch": 58, "duration": 2, "velocity": 85}, {"time": 1376, "pitch": 65, "duration": 3, "velocity": 86}, {"time": 1388, "pitch": 46, "duration": 19, "velocity": 86}, {"time": 1388, "pitch": 56, "duration": 4, "velocity": 78}, {"time": 1388, "pitch": 62, "duration": 6, "velocity": 73}, {"time": 1394, "pitch": 53, "duration": 13, "velocity": 82}, {"time": 1400, "pitch": 58, "duration": 5, "velocity": 82}, {"time": 1400, "pitch": 65, "duration": 4, "velocity": 86}, {"time": 1406, "pitch": 62, "duration": 6, "velocity": 89}, {"time": 1412, "pitch": 51, "duration": 16, "velocity": 83}, {"time": 1412, "pitch": 63, "duration": 5, "velocity": 85}, {"time": 1418, "pitch": 58, "duration": 7, "velocity": 86}, {"time": 1424, "pitch": 67, "duration": 4, "velocity": 86}, {"time": 1430, "pitch": 63, "duration": 1, "velocity": 80}, {"time": 1436, "pitch": 44, "duration": 20, "velocity": 86}, {"time": 1436, "pitch": 56, "duration": 8, "velocity": 69}, {"time": 1436, "pitch": 60, "duration": 7, "velocity": 76}, {"time": 1442, "pitch": 51, "duration": 15, "velocity": 74}, {"time": 1448, "pitch": 56, "duration": 2, "velocity": 85}, {"time": 1448, "pitch": 63, "duration": 2, "velocity": 85}, {"time": 1460, "pitch": 44, "duration": 15, "velocity": 85}, {"time": 1460, "pitch": 56, "duration": 7, "velocity": 70}, {"time": 1460, "pitch": 60, "duration": 7, "velocity": 77}, {"time": 1466, "pitch": 51, "duration": 8, "velocity": 70}, {"time": 1472, "pitch": 56, "duration": 4, "velocity": 81}, {"time": 1472, "pitch": 60, "duration": 5, "velocity": 87}, {"time": 1472, "pitch": 63, "duration": 5, "velocity": 86}, {"time": 1478, "pitch": 44, "duration": 5, "velocity": 88}, {"time": 1484, "pitch": 49, "duration": 21, "velocity": 79}, {"time": 1484, "pitch": 56, "duration": 3, "velocity": 79}, {"time": 1484, "pitch": 61, "duration": 7, "velocity": 79}, {"time": 1484, "pitch": 53, "duration": 17, "velocity": 79}, {"time": 1490, "pitch": 56, "duration": 5, "velocity": 74}, {"time": 1496, "pitch": 56, "duration": 3, "velocity": 78}, {"time": 1496, "pitch": 61, "duration": 3, "velocity": 83}, {"time": 1496, "pitch": 65, "duration": 3, "velocity": 81}, {"time": 1508, "pitch": 49, "duration": 17, "velocity": 80}, {"time": 1508, "pitch": 56, "duration": 5, "velocity": 70}, {"time": 1508, "pitch": 61, "duration": 6, "velocity": 73}, {"time": 1520, "pitch": 56, "duration": 3, "velocity": 85}, {"time": 1520, "pitch": 61, "duration": 4, "velocity": 87}, {"time": 1526, "pitch": 60, "duration": 4, "velocity": 89}, {"time": 1532, "pitch": 46, "duration": 16, "velocity": 86}, {"time": 1532, "pitch": 58, "duration": 8, "velocity": 81}, {"time": 1538, "pitch": 53, "duration": 9, "velocity": 83}, {"time": 1544, "pitch": 58, "duration": 2, "velocity": 86}, {"time": 1544, "pitch": 62, "duration": 2, "velocity": 88}, {"time": 1556, "pitch": 46, "duration": 18, "velocity": 85}, {"time": 1556, "pitch": 58, "duration": 7, "velocity": 74}, {"time": 1556, "pitch": 62, "duration": 7, "velocity": 74}, {"time": 1556, "pitch": 65, "duration": 7, "velocity": 83}, {"time": 1562, "pitch": 53, "duration": 11, "velocity": 74}, {"time": 1568, "pitch": 58, "duration": 3, "velocity": 84}, {"time": 1568, "pitch": 62, "duration": 4, "velocity": 91}, {"time": 1574, "pitch": 58, "duration": 4, "velocity": 86}, {"time": 1580, "pitch": 51, "duration": 21, "velocity": 85}, {"time": 1580, "pitch": 58, "duration": 3, "velocity": 82}, {"time": 1580, "pitch": 63, "duration": 8, "velocity": 85}, {"time": 1586, "pitch": 58, "duration": 3, "velocity": 75}, {"time": 1592, "pitch": 58, "duration": 3, "velocity": 85}, {"time": 1592, "pitch": 65, "duration": 6, "velocity": 86}, {"time": 1598, "pitch": 63, "duration": 3, "velocity": 85}, {"time": 1604, "pitch": 51, "duration": 23, "velocity": 88}, {"time": 1604, "pitch": 58, "duration": 3, "velocity": 80}, {"time": 1604, "pitch": 67, "duration": 6, "velocity": 82}, {"time": 1610, "pitch": 58, "duration": 5, "velocity": 86}, {"time": 1616, "pitch": 58, "duration": 3, "velocity": 86}, {"time": 1616, "pitch": 63, "duration": 4, "velocity": 86}, {"time": 1622, "pitch": 58, "duration": 5, "velocity": 81}, {"time": 1622, "pitch": 61, "duration": 5, "velocity": 76}, {"time": 1628, "pitch": 44, "duration": 20, "velocity": 86}, {"time": 1628, "pitch": 56, "duration": 3, "velocity": 79}, {"time": 1628, "pitch": 60, "duration": 6, "velocity": 79}, {"time": 1631, "pitch": 51, "duration": 10, "velocity": 76}, {"time": 1634, "pitch": 56, "duration": 5, "velocity": 85}, {"time": 1640, "pitch": 56, "duration": 4, "velocity": 86}, {"time": 1640, "pitch": 63, "duration": 6, "velocity": 86}, {"time": 1643, "pitch": 51, "duration": 4, "velocity": 80}, {"time": 1646, "pitch": 56, "duration": 5, "velocity": 85}, {"time": 1649, "pitch": 60, "duration": 2, "velocity": 77}, {"time": 1652, "pitch": 41, "duration": 16, "velocity": 87}, {"time": 1652, "pitch": 60, "duration": 9, "velocity": 85}, {"time": 1658, "pitch": 48, "duration": 7, "velocity": 74}, {"time": 1661, "pitch": 56, "duration": 2, "velocity": 77}, {"time": 1664, "pitch": 65, "duration": 7, "velocity": 89}, {"time": 1667, "pitch": 48, "duration": 2, "velocity": 84}, {"time": 1670, "pitch": 60, "duration": 4, "velocity": 85}, {"time": 1673, "pitch": 56, "duration": 2, "velocity": 77}, {"time": 1676, "pitch": 49, "duration": 13, "velocity": 86}, {"time": 1676, "pitch": 56, "duration": 3, "velocity": 81}, {"time": 1676, "pitch": 61, "duration": 7, "velocity": 77}, {"time": 1682, "pitch": 56, "duration": 2, "velocity": 78}, {"time": 1688, "pitch": 56, "duration": 4, "velocity": 86}, {"time": 1688, "pitch": 65, "duration": 6, "velocity": 87}, {"time": 1691, "pitch": 49, "duration": 2, "velocity": 87}, {"time": 1694, "pitch": 61, "duration": 3, "velocity": 84}, {"time": 1697, "pitch": 60, "duration": 3, "velocity": 92}, {"time": 1700, "pitch": 46, "duration": 19, "velocity": 86}, {"time": 1700, "pitch": 61, "duration": 5, "velocity": 86}, {"time": 1703, "pitch": 53, "duration": 7, "velocity": 81}, {"time": 1706, "pitch": 58, "duration": 2, "velocity": 81}, {"time": 1709, "pitch": 61, "duration": 4, "velocity": 90}, {"time": 1712, "pitch": 53, "duration": 4, "velocity": 88}, {"time": 1715, "pitch": 58, "duration": 2, "velocity": 85}, {"time": 1715, "pitch": 65, "duration": 2, "velocity": 89}, {"time": 1718, "pitch": 53, "duration": 2, "velocity": 82}, {"time": 1721, "pitch": 58, "duration": 2, "velocity": 76}, {"time": 1724, "pitch": 46, "duration": 22, "velocity": 87}, {"time": 1724, "pitch": 58, "duration": 7, "velocity": 83}, {"time": 1724, "pitch": 61, "duration": 6, "velocity": 86}, {"time": 1730, "pitch": 53, "duration": 8, "velocity": 76}, {"time": 1736, "pitch": 58, "duration": 3, "velocity": 84}, {"time": 1736, "pitch": 61, "duration": 4, "velocity": 88}, {"time": 1736, "pitch": 65, "duration": 4, "velocity": 87}, {"time": 1739, "pitch": 53, "duration": 7, "velocity": 85}, {"time": 1742, "pitch": 58, "duration": 4, "velocity": 83}, {"time": 1748, "pitch": 46, "duration": 22, "velocity": 86}, {"time": 1748, "pitch": 58, "duration": 7, "velocity": 77}, {"time": 1748, "pitch": 61, "duration": 7, "velocity": 75}, {"time": 1754, "pitch": 53, "duration": 7, "velocity": 70}, {"time": 1757, "pitch": 58, "duration": 2, "velocity": 74}, {"time": 1760, "pitch": 58, "duration": 3, "velocity": 78}, {"time": 1760, "pitch": 61, "duration": 7, "velocity": 86}, {"time": 1760, "pitch": 65, "duration": 7, "velocity": 88}, {"time": 1763, "pitch": 53, "duration": 7, "velocity": 81}, {"time": 1766, "pitch": 58, "duration": 2, "velocity": 87}, {"time": 1772, "pitch": 46, "duration": 14, "velocity": 86}, {"time": 1772, "pitch": 56, "duration": 7, "velocity": 86}, {"time": 1772, "pitch": 62, "duration": 8, "velocity": 77}, {"time": 1778, "pitch": 53, "duration": 7, "velocity": 86}, {"time": 1784, "pitch": 58, "duration": 3, "velocity": 86}, {"time": 1784, "pitch": 65, "duration": 4, "velocity": 96}, {"time": 1787, "pitch": 53, "duration": 3, "velocity": 87}, {"time": 1790, "pitch": 58, "duration": 3, "velocity": 85}, {"time": 1790, "pitch": 62, "duration": 2, "velocity": 88}, {"time": 1796, "pitch": 51, "duration": 10, "velocity": 90}, {"time": 1796, "pitch": 58, "duration": 2, "velocity": 86}, {"time": 1796, "pitch": 63, "duration": 7, "velocity": 86}, {"time": 1802, "pitch": 58, "duration": 2, "velocity": 89}, {"time": 1808, "pitch": 51, "duration": 6, "velocity": 91}, {"time": 1808, "pitch": 58, "duration": 3, "velocity": 85}, {"time": 1808, "pitch": 63, "duration": 3, "velocity": 87}, {"time": 1811, "pitch": 65, "duration": 2, "velocity": 88}, {"time": 1814, "pitch": 67, "duration": 2, "velocity": 94}, {"time": 1820, "pitch": 44, "duration": 20, "velocity": 86}, {"time": 1820, "pitch": 56, "duration": 3, "velocity": 79}, {"time": 1820, "pitch": 60, "duration": 6, "velocity": 79}, {"time": 1823, "pitch": 51, "duration": 10, "velocity": 76}, {"time": 1826, "pitch": 56, "duration": 5, "velocity": 85}, {"time": 1832, "pitch": 56, "duration": 4, "velocity": 86}, {"time": 1832, "pitch": 63, "duration": 6, "velocity": 86}, {"time": 1835, "pitch": 51, "duration": 4, "velocity": 80}, {"time": 1838, "pitch": 56, "duration": 5, "velocity": 85}, {"time": 1841, "pitch": 60, "duration": 2, "velocity": 77}, {"time": 1844, "pitch": 41, "duration": 16, "velocity": 87}, {"time": 1844, "pitch": 60, "duration": 9, "velocity": 85}, {"time": 1850, "pitch": 48, "duration": 7, "velocity": 74}, {"time": 1853, "pitch": 56, "duration": 2, "velocity": 77}, {"time": 1856, "pitch": 65, "duration": 7, "velocity": 89}, {"time": 1859, "pitch": 48, "duration": 2, "velocity": 84}, {"time": 1862, "pitch": 60, "duration": 4, "velocity": 85}, {"time": 1865, "pitch": 56, "duration": 2, "velocity": 77}, {"time": 1868, "pitch": 49, "duration": 13, "velocity": 86}, {"time": 1868, "pitch": 56, "duration": 3, "velocity": 81}, {"time": 1868, "pitch": 61, "duration": 7, "velocity": 77}, {"time": 1874, "pitch": 56, "duration": 2, "velocity": 78}, {"time": 1880, "pitch": 56, "duration": 4, "velocity": 86}, {"time": 1880, "pitch": 65, "duration": 6, "velocity": 87}, {"time": 1883, "pitch": 49, "duration": 2, "velocity": 87}, {"time": 1886, "pitch": 61, "duration": 3, "velocity": 84}, {"time": 1889, "pitch": 60, "duration": 3, "velocity": 92}, {"time": 1892, "pitch": 46, "duration": 19, "velocity": 86}, {"time": 1892, "pitch": 61, "duration": 5, "velocity": 86}, {"time": 1895, "pitch": 53, "duration": 7, "velocity": 81}, {"time": 1898, "pitch": 58, "duration": 2, "velocity": 81}, {"time": 1901, "pitch": 61, "duration": 4, "velocity": 90}, {"time": 1904, "pitch": 53, "duration": 4, "velocity": 88}, {"time": 1907, "pitch": 58, "duration": 2, "velocity": 85}, {"time": 1907, "pitch": 65, "duration": 2, "velocity": 89}, {"time": 1910, "pitch": 53, "duration": 2, "velocity": 82}, {"time": 1913, "pitch": 58, "duration": 2, "velocity": 76}, {"time": 1916, "pitch": 46, "duration": 22, "velocity": 87}, {"time": 1916, "pitch": 58, "duration": 7, "velocity": 83}, {"time": 1916, "pitch": 61, "duration": 6, "velocity": 86}, {"time": 1922, "pitch": 53, "duration": 8, "velocity": 76}, {"time": 1928, "pitch": 58, "duration": 3, "velocity": 84}, {"time": 1928, "pitch": 61, "duration": 4, "velocity": 88}, {"time": 1928, "pitch": 65, "duration": 4, "velocity": 87}, {"time": 1931, "pitch": 53, "duration": 7, "velocity": 85}, {"time": 1934, "pitch": 58, "duration": 4, "velocity": 83}, {"time": 1940, "pitch": 46, "duration": 22, "velocity": 86}, {"time": 1940, "pitch": 58, "duration": 7, "velocity": 77}, {"time": 1940, "pitch": 61, "duration": 7, "velocity": 75}, {"time": 1946, "pitch": 53, "duration": 7, "velocity": 70}, {"time": 1949, "pitch": 58, "duration": 2, "velocity": 74}, {"time": 1952, "pitch": 58, "duration": 3, "velocity": 78}, {"time": 1952, "pitch": 61, "duration": 7, "velocity": 86}, {"time": 1952, "pitch": 65, "duration": 7, "velocity": 88}, {"time": 1955, "pitch": 53, "duration": 7, "velocity": 81}, {"time": 1958, "pitch": 58, "duration": 2, "velocity": 87}, {"time": 1964, "pitch": 39, "duration": 15, "velocity": 91}, {"time": 1964, "pitch": 58, "duration": 3, "velocity": 81}, {"time": 1964, "pitch": 63, "duration": 6, "velocity": 81}, {"time": 1967, "pitch": 46, "duration": 10, "velocity": 77}, {"time": 1970, "pitch": 58, "duration": 4, "velocity": 86}, {"time": 1973, "pitch": 63, "duration": 2, "velocity": 85}, {"time": 1976, "pitch": 58, "duration": 4, "velocity": 86}, {"time": 1976, "pitch": 67, "duration": 5, "velocity": 91}, {"time": 1979, "pitch": 46, "duration": 1, "velocity": 86}, {"time": 1982, "pitch": 63, "duration": 3, "velocity": 86}, {"time": 1985, "pitch": 58, "duration": 1, "velocity": 79}, {"time": 1988, "pitch": 40, "duration": 5, "velocity": 91}, {"time": 1988, "pitch": 52, "duration": 5, "velocity": 86}, {"time": 1988, "pitch": 64, "duration": 5, "velocity": 79}, {"time": 1994, "pitch": 40, "duration": 1, "velocity": 72}, {"time": 1994, "pitch": 47, "duration": 1, "velocity": 68}, {"time": 1994, "pitch": 52, "duration": 2, "velocity": 82}, {"time": 1994, "pitch": 64, "duration": 2, "velocity": 84}, {"time": 2000, "pitch": 40, "duration": 10, "velocity": 101}, {"time": 2000, "pitch": 47, "duration": 11, "velocity": 94}, {"time": 2000, "pitch": 52, "duration": 11, "velocity": 88}, {"time": 2000, "pitch": 64, "duration": 12, "velocity": 84}, {"time": 2012, "pitch": 45, "duration": 20, "velocity": 86}, {"time": 2012, "pitch": 57, "duration": 3, "velocity": 79}, {"time": 2012, "pitch": 61, "duration": 6, "velocity": 79}, {"time": 2015, "pitch": 52, "duration": 10, "velocity": 76}, {"time": 2018, "pitch": 57, "duration": 5, "velocity": 85}, {"time": 2024, "pitch": 57, "duration": 4, "velocity": 86}, {"time": 2024, "pitch": 64, "duration": 6, "velocity": 86}, {"time": 2027, "pitch": 52, "duration": 4, "velocity": 80}, {"time": 2030, "pitch": 57, "duration": 5, "velocity": 85}, {"time": 2033, "pitch": 61, "duration": 2, "velocity": 77}, {"time": 2036, "pitch": 42, "duration": 16, "velocity": 87}, {"time": 2036, "pitch": 61, "duration": 9, "velocity": 85}, {"time": 2042, "pitch": 49, "duration": 7, "velocity": 74}, {"time": 2045, "pitch": 57, "duration": 2, "velocity": 77}, {"time": 2048, "pitch": 66, "duration": 7, "velocity": 89}, {"time": 2051, "pitch": 49, "duration": 2, "velocity": 84}, {"time": 2054, "pitch": 61, "duration": 4, "velocity": 85}, {"time": 2057, "pitch": 57, "duration": 2, "velocity": 77}, {"time": 2060, "pitch": 50, "duration": 13, "velocity": 86}, {"time": 2060, "pitch": 57, "duration": 3, "velocity": 81}, {"time": 2060, "pitch": 62, "duration": 7, "velocity": 77}, {"time": 2066, "pitch": 57, "duration": 2, "velocity": 78}, {"time": 2072, "pitch": 57, "duration": 4, "velocity": 86}, {"time": 2072, "pitch": 66, "duration": 6, "velocity": 87}, {"time": 2075, "pitch": 50, "duration": 2, "velocity": 87}, {"time": 2078, "pitch": 62, "duration": 3, "velocity": 84}, {"time": 2081, "pitch": 61, "duration": 3, "velocity": 92}, {"time": 2084, "pitch": 47, "duration": 19, "velocity": 86}, {"time": 2084, "pitch": 62, "duration": 5, "velocity": 86}, {"time": 2087, "pitch": 54, "duration": 7, "velocity": 81}, {"time": 2090, "pitch": 59, "duration": 2, "velocity": 81}, {"time": 2093, "pitch": 62, "duration": 4, "velocity": 90}, {"time": 2096, "pitch": 54, "duration": 4, "velocity": 88}, {"time": 2099, "pitch": 59, "duration": 2, "velocity": 85}, {"time": 2099, "pitch": 66, "duration": 2, "velocity": 89}, {"time": 2102, "pitch": 54, "duration": 2, "velocity": 82}, {"time": 2105, "pitch": 59, "duration": 2, "velocity": 76}, {"time": 2108, "pitch": 47, "duration": 22, "velocity": 87}, {"time": 2108, "pitch": 59, "duration": 7, "velocity": 83}, {"time": 2108, "pitch": 62, "duration": 6, "velocity": 86}, {"time": 2114, "pitch": 54, "duration": 8, "velocity": 76}, {"time": 2120, "pitch": 59, "duration": 3, "velocity": 84}, {"time": 2120, "pitch": 62, "duration": 4, "velocity": 88}, {"time": 2120, "pitch": 66, "duration": 4, "velocity": 87}, {"time": 2123, "pitch": 54, "duration": 7, "velocity": 85}, {"time": 2126, "pitch": 59, "duration": 4, "velocity": 83}, {"time": 2132, "pitch": 47, "duration": 22, "velocity": 86}, {"time": 2132, "pitch": 59, "duration": 7, "velocity": 77}, {"time": 2132, "pitch": 62, "duration": 7, "velocity": 75}, {"time": 2138, "pitch": 54, "duration": 7, "velocity": 70}, {"time": 2141, "pitch": 59, "duration": 2, "velocity": 74}, {"time": 2144, "pitch": 59, "duration": 3, "velocity": 78}, {"time": 2144, "pitch": 62, "duration": 7, "velocity": 86}, {"time": 2144, "pitch": 66, "duration": 7, "velocity": 88}, {"time": 2147, "pitch": 54, "duration": 7, "velocity": 81}, {"time": 2150, "pitch": 59, "duration": 2, "velocity": 87}, {"time": 2156, "pitch": 47, "duration": 14, "velocity": 86}, {"time": 2156, "pitch": 57, "duration": 7, "velocity": 86}, {"time": 2156, "pitch": 63, "duration": 8, "velocity": 77}, {"time": 2162, "pitch": 54, "duration": 7, "velocity": 86}, {"time": 2168, "pitch": 59, "duration": 3, "velocity": 86}, {"time": 2168, "pitch": 66, "duration": 4, "velocity": 96}, {"time": 2171, "pitch": 54, "duration": 3, "velocity": 87}, {"time": 2174, "pitch": 59, "duration": 3, "velocity": 85}, {"time": 2174, "pitch": 63, "duration": 2, "velocity": 88}, {"time": 2180, "pitch": 52, "duration": 10, "velocity": 90}, {"time": 2180, "pitch": 59, "duration": 2, "velocity": 86}, {"time": 2180, "pitch": 64, "duration": 7, "velocity": 86}, {"time": 2186, "pitch": 59, "duration": 2, "velocity": 89}, {"time": 2192, "pitch": 52, "duration": 6, "velocity": 91}, {"time": 2192, "pitch": 59, "duration": 3, "velocity": 85}, {"time": 2192, "pitch": 64, "duration": 3, "velocity": 87}, {"time": 2195, "pitch": 66, "duration": 2, "velocity": 88}, {"time": 2198, "pitch": 68, "duration": 2, "velocity": 94}, {"time": 2204, "pitch": 45, "duration": 20, "velocity": 86}, {"time": 2204, "pitch": 57, "duration": 3, "velocity": 79}, {"time": 2204, "pitch": 61, "duration": 6, "velocity": 79}, {"time": 2207, "pitch": 52, "duration": 10, "velocity": 76}, {"time": 2210, "pitch": 57, "duration": 5, "velocity": 85}, {"time": 2216, "pitch": 57, "duration": 4, "velocity": 86}, {"time": 2216, "pitch": 64, "duration": 6, "velocity": 86}, {"time": 2219, "pitch": 52, "duration": 4, "velocity": 80}, {"time": 2222, "pitch": 57, "duration": 5, "velocity": 85}, {"time": 2225, "pitch": 61, "duration": 2, "velocity": 77}, {"time": 2228, "pitch": 42, "duration": 16, "velocity": 87}, {"time": 2228, "pitch": 61, "duration": 9, "velocity": 85}, {"time": 2234, "pitch": 49, "duration": 7, "velocity": 74}, {"time": 2237, "pitch": 57, "duration": 2, "velocity": 77}, {"time": 2240, "pitch": 66, "duration": 7, "velocity": 89}, {"time": 2243, "pitch": 49, "duration": 2, "velocity": 84}, {"time": 2246, "pitch": 61, "duration": 4, "velocity": 85}, {"time": 2249, "pitch": 57, "duration": 2, "velocity": 77}, {"time": 2252, "pitch": 50, "duration": 13, "velocity": 86}, {"time": 2252, "pitch": 57, "duration": 3, "velocity": 81}, {"time": 2252, "pitch": 62, "duration": 7, "velocity": 77}, {"time": 2258, "pitch": 57, "duration": 2, "velocity": 78}, {"time": 2264, "pitch": 57, "duration": 4, "velocity": 86}, {"time": 2264, "pitch": 66, "duration": 6, "velocity": 87}, {"time": 2267, "pitch": 50, "duration": 2, "velocity": 87}, {"time": 2270, "pitch": 62, "duration": 3, "velocity": 84}, {"time": 2273, "pitch": 61, "duration": 3, "velocity": 92}, {"time": 2276, "pitch": 47, "duration": 19, "velocity": 86}, {"time": 2276, "pitch": 62, "duration": 5, "velocity": 86}, {"time": 2279, "pitch": 54, "duration": 7, "velocity": 81}, {"time": 2282, "pitch": 59, "duration": 2, "velocity": 81}, {"time": 2285, "pitch": 62, "duration": 4, "velocity": 90}, {"time": 2288, "pitch": 54, "duration": 4, "velocity": 88}, {"time": 2291, "pitch": 59, "duration": 2, "velocity": 85}, {"time": 2291, "pitch": 66, "duration": 2, "velocity": 89}, {"time": 2294, "pitch": 54, "duration": 2, "velocity": 82}, {"time": 2297, "pitch": 59, "duration": 2, "velocity": 76}, {"time": 2300, "pitch": 47, "duration": 22, "velocity": 87}, {"time": 2300, "pitch": 59, "duration": 7, "velocity": 83}, {"time": 2300, "pitch": 62, "duration": 6, "velocity": 86}, {"time": 2306, "pitch": 54, "duration": 8, "velocity": 76}, {"time": 2312, "pitch": 59, "duration": 3, "velocity": 84}, {"time": 2312, "pitch": 62, "duration": 4, "velocity": 88}, {"time": 2312, "pitch": 66, "duration": 4, "velocity": 87}, {"time": 2315, "pitch": 54, "duration": 7, "velocity": 85}, {"time": 2318, "pitch": 59, "duration": 4, "velocity": 83}, {"time": 2324, "pitch": 47, "duration": 22, "velocity": 86}, {"time": 2324, "pitch": 59, "duration": 7, "velocity": 77}, {"time": 2324, "pitch": 62, "duration": 7, "velocity": 75}, {"time": 2330, "pitch": 54, "duration": 7, "velocity": 70}, {"time": 2333, "pitch": 59, "duration": 2, "velocity": 74}, {"time": 2336, "pitch": 59, "duration": 3, "velocity": 78}, {"time": 2336, "pitch": 62, "duration": 7, "velocity": 86}, {"time": 2336, "pitch": 66, "duration": 7, "velocity": 88}, {"time": 2339, "pitch": 54, "duration": 7, "velocity": 81}, {"time": 2342, "pitch": 59, "duration": 2, "velocity": 87}, {"time": 2348, "pitch": 40, "duration": 15, "velocity": 91}, {"time": 2348, "pitch": 59, "duration": 3, "velocity": 81}, {"time": 2348, "pitch": 64, "duration": 6, "velocity": 81}, {"time": 2351, "pitch": 47, "duration": 10, "velocity": 77}, {"time": 2354, "pitch": 59, "duration": 4, "velocity": 86}, {"time": 2357, "pitch": 64, "duration": 2, "velocity": 85}, {"time": 2360, "pitch": 59, "duration": 4, "velocity": 86}, {"time": 2360, "pitch": 68, "duration": 5, "velocity": 91}, {"time": 2363, "pitch": 47, "duration": 1, "velocity": 86}, {"time": 2366, "pitch": 64, "duration": 3, "velocity": 86}, {"time": 2369, "pitch": 59, "duration": 1, "velocity": 79}, {"time": 2372, "pitch": 45, "duration": 22, "velocity": 85}, {"time": 2372, "pitch": 57, "duration": 8, "velocity": 80}, {"time": 2372, "pitch": 61, "duration": 7, "velocity": 80}, {"time": 2378, "pitch": 64, "duration": 3, "velocity": 79}, {"time": 2384, "pitch": 57, "duration": 3, "velocity": 92}, {"time": 2384, "pitch": 69, "duration": 2, "velocity": 85}, {"time": 2387, "pitch": 52, "duration": 7, "velocity": 86}, {"time": 2390, "pitch": 57, "duration": 6, "velocity": 85}, {"time": 2393, "pitch": 61, "duration": 2, "velocity": 81}, {"time": 2396, "pitch": 45, "duration": 20, "velocity": 86}, {"time": 2396, "pitch": 57, "duration": 3, "velocity": 79}, {"time": 2396, "pitch": 61, "duration": 6, "velocity": 79}, {"time": 2399, "pitch": 52, "duration": 10, "velocity": 76}, {"time": 2402, "pitch": 57, "duration": 5, "velocity": 85}, {"time": 2408, "pitch": 57, "duration": 4, "velocity": 86}, {"time": 2408, "pitch": 64, "duration": 6, "velocity": 86}, {"time": 2411, "pitch": 52, "duration": 4, "velocity": 80}, {"time": 2414, "pitch": 57, "duration": 5, "velocity": 85}, {"time": 2417, "pitch": 61, "duration": 2, "velocity": 77}, {"time": 2420, "pitch": 42, "duration": 16, "velocity": 87}, {"time": 2420, "pitch": 61, "duration": 9, "velocity": 85}, {"time": 2426, "pitch": 49, "duration": 7, "velocity": 74}, {"time": 2429, "pitch": 57, "duration": 2, "velocity": 77}, {"time": 2432, "pitch": 66, "duration": 7, "velocity": 89}, {"time": 2435, "pitch": 49, "duration": 2, "velocity": 84}, {"time": 2438, "pitch": 61, "duration": 4, "velocity": 85}, {"time": 2441, "pitch": 57, "duration": 2, "velocity": 77}, {"time": 2444, "pitch": 50, "duration": 13, "velocity": 86}, {"time": 2444, "pitch": 57, "duration": 3, "velocity": 81}, {"time": 2444, "pitch": 62, "duration": 7, "velocity": 77}, {"time": 2450, "pitch": 57, "duration": 2, "velocity": 78}, {"time": 2456, "pitch": 57, "duration": 4, "velocity": 86}, {"time": 2456, "pitch": 66, "duration": 6, "velocity": 87}, {"time": 2459, "pitch": 50, "duration": 2, "velocity": 87}, {"time": 2462, "pitch": 62, "duration": 3, "velocity": 84}, {"time": 2465, "pitch": 61, "duration": 3, "velocity": 92}, {"time": 2468, "pitch": 47, "duration": 19, "velocity": 86}, {"time": 2468, "pitch": 62, "duration": 5, "velocity": 86}, {"time": 2471, "pitch": 54, "duration": 7, "velocity": 81}, {"time": 2474, "pitch": 59, "duration": 2, "velocity": 81}, {"time": 2477, "pitch": 62, "duration": 4, "velocity": 90}, {"time": 2480, "pitch": 54, "duration": 4, "velocity": 88}, {"time": 2483, "pitch": 59, "duration": 2, "velocity": 85}, {"time": 2483, "pitch": 66, "duration": 2, "velocity": 89}, {"time": 2486, "pitch": 54, "duration": 2, "velocity": 82}, {"time": 2489, "pitch": 59, "duration": 2, "velocity": 76}, {"time": 2492, "pitch": 47, "duration": 22, "velocity": 87}, {"time": 2492, "pitch": 59, "duration": 7, "velocity": 83}, {"time": 2492, "pitch": 62, "duration": 6, "velocity": 86}, {"time": 2498, "pitch": 54, "duration": 8, "velocity": 76}, {"time": 2504, "pitch": 59, "duration": 3, "velocity": 84}, {"time": 2504, "pitch": 62, "duration": 4, "velocity": 88}, {"time": 2504, "pitch": 66, "duration": 4, "velocity": 87}, {"time": 2507, "pitch": 54, "duration": 7, "velocity": 85}, {"time": 2510, "pitch": 59, "duration": 4, "velocity": 83}, {"time": 2516, "pitch": 47, "duration": 22, "velocity": 86}, {"time": 2516, "pitch": 59, "duration": 7, "velocity": 77}, {"time": 2516, "pitch": 62, "duration": 7, "velocity": 75}, {"time": 2522, "pitch": 54, "duration": 7, "velocity": 70}, {"time": 2525, "pitch": 59, "duration": 2, "velocity": 74}, {"time": 2528, "pitch": 59, "duration": 3, "velocity": 78}, {"time": 2528, "pitch": 62, "duration": 7, "velocity": 86}, {"time": 2528, "pitch": 66, "duration": 7, "velocity": 88}, {"time": 2531, "pitch": 54, "duration": 7, "velocity": 81}, {"time": 2534, "pitch": 59, "duration": 2, "velocity": 87}, {"time": 2540, "pitch": 47, "duration": 14, "velocity": 86}, {"time": 2540, "pitch": 57, "duration": 7, "velocity": 86}, {"time": 2540, "pitch": 63, "duration": 8, "velocity": 77}, {"time": 2546, "pitch": 54, "duration": 7, "velocity": 86}, {"time": 2552, "pitch": 59, "duration": 3, "velocity": 86}, {"time": 2552, "pitch": 66, "duration": 4, "velocity": 96}, {"time": 2555, "pitch": 54, "duration": 3, "velocity": 87}, {"time": 2558, "pitch": 59, "duration": 3, "velocity": 85}, {"time": 2558, "pitch": 63, "duration": 2, "velocity": 88}, {"time": 2564, "pitch": 52, "duration": 10, "velocity": 90}, {"time": 2564, "pitch": 59, "duration": 2, "velocity": 86}, {"time": 2564, "pitch": 64, "duration": 7, "velocity": 86}, {"time": 2570, "pitch": 59, "duration": 2, "velocity": 89}, {"time": 2576, "pitch": 52, "duration": 6, "velocity": 91}, {"time": 2576, "pitch": 59, "duration": 3, "velocity": 85}, {"time": 2576, "pitch": 64, "duration": 3, "velocity": 87}, {"time": 2579, "pitch": 66, "duration": 2, "velocity": 88}, {"time": 2582, "pitch": 68, "duration": 2, "velocity": 94}, {"time": 2588, "pitch": 45, "duration": 20, "velocity": 86}, {"time": 2588, "pitch": 57, "duration": 3, "velocity": 79}, {"time": 2588, "pitch": 61, "duration": 6, "velocity": 79}, {"time": 2591, "pitch": 52, "duration": 10, "velocity": 76}, {"time": 2594, "pitch": 57, "duration": 5, "velocity": 85}, {"time": 2600, "pitch": 57, "duration": 4, "velocity": 86}, {"time": 2600, "pitch": 64, "duration": 6, "velocity": 86}, {"time": 2603, "pitch": 52, "duration": 4, "velocity": 80}, {"time": 2606, "pitch": 57, "duration": 5, "velocity": 85}, {"time": 2609, "pitch": 61, "duration": 2, "velocity": 77}, {"time": 2612, "pitch": 42, "duration": 16, "velocity": 87}, {"time": 2612, "pitch": 61, "duration": 9, "velocity": 85}, {"time": 2618, "pitch": 49, "duration": 7, "velocity": 74}, {"time": 2621, "pitch": 57, "duration": 2, "velocity": 77}, {"time": 2624, "pitch": 66, "duration": 7, "velocity": 89}, {"time": 2627, "pitch": 49, "duration": 2, "velocity": 84}, {"time": 2630, "pitch": 61, "duration": 4, "velocity": 85}, {"time": 2633, "pitch": 57, "duration": 2, "velocity": 77}, {"time": 2636, "pitch": 50, "duration": 13, "velocity": 86}, {"time": 2636, "pitch": 57, "duration": 3, "velocity": 81}, {"time": 2636, "pitch": 62, "duration": 7, "velocity": 77}, {"time": 2642, "pitch": 57, "duration": 2, "velocity": 78}, {"time": 2648, "pitch": 57, "duration": 4, "velocity": 86}, {"time": 2648, "pitch": 66, "duration": 6, "velocity": 87}, {"time": 2651, "pitch": 50, "duration": 2, "velocity": 87}, {"time": 2654, "pitch": 62, "duration": 3, "velocity": 84}, {"time": 2657, "pitch": 61, "duration": 3, "velocity": 92}, {"time": 2660, "pitch": 47, "duration": 19, "velocity": 86}, {"time": 2660, "pitch": 62, "duration": 5, "velocity": 86}, {"time": 2663, "pitch": 54, "duration": 7, "velocity": 81}, {"time": 2666, "pitch": 59, "duration": 2, "velocity": 81}, {"time": 2669, "pitch": 62, "duration": 4, "velocity": 90}, {"time": 2672, "pitch": 54, "duration": 4, "velocity": 88}, {"time": 2675, "pitch": 59, "duration": 2, "velocity": 85}, {"time": 2675, "pitch": 66, "duration": 2, "velocity": 89}, {"time": 2678, "pitch": 54, "duration": 2, "velocity": 82}, {"time": 2681, "pitch": 59, "duration": 2, "velocity": 76}, {"time": 2684, "pitch": 47, "duration": 22, "velocity": 87}, {"time": 2684, "pitch": 59, "duration": 7, "velocity": 83}, {"time": 2684, "pitch": 62, "duration": 6, "velocity": 86}, {"time": 2690, "pitch": 54, "duration": 8, "velocity": 76}, {"time": 2696, "pitch": 59, "duration": 3, "velocity": 84}, {"time": 2696, "pitch": 62, "duration": 4, "velocity": 88}, {"time": 2696, "pitch": 66, "duration": 4, "velocity": 87}, {"time": 2699, "pitch": 54, "duration": 7, "velocity": 85}, {"time": 2702, "pitch": 59, "duration": 4, "velocity": 83}, {"time": 2708, "pitch": 47, "duration": 22, "velocity": 86}, {"time": 2708, "pitch": 59, "duration": 7, "velocity": 77}, {"time": 2708, "pitch": 62, "duration": 7, "velocity": 75}, {"time": 2714, "pitch": 54, "duration": 7, "velocity": 70}, {"time": 2717, "pitch": 59, "duration": 2, "velocity": 74}, {"time": 2720, "pitch": 59, "duration": 3, "velocity": 78}, {"time": 2720, "pitch": 62, "duration": 7, "velocity": 86}, {"time": 2720, "pitch": 66, "duration": 7, "velocity": 88}, {"time": 2723, "pitch": 54, "duration": 7, "velocity": 81}, {"time": 2726, "pitch": 59, "duration": 2, "velocity": 87}, {"time": 2732, "pitch": 40, "duration": 15, "velocity": 91}, {"time": 2732, "pitch": 59, "duration": 3, "velocity": 81}, {"time": 2732, "pitch": 64, "duration": 6, "velocity": 81}, {"time": 2735, "pitch": 47, "duration": 10, "velocity": 77}, {"time": 2738, "pitch": 59, "duration": 4, "velocity": 86}, {"time": 2741, "pitch": 64, "duration": 2, "velocity": 85}, {"time": 2744, "pitch": 59, "duration": 4, "velocity": 86}, {"time": 2744, "pitch": 68, "duration": 5, "velocity": 91}, {"time": 2747, "pitch": 47, "duration": 1, "velocity": 86}, {"time": 2750, "pitch": 64, "duration": 3, "velocity": 86}, {"time": 2753, "pitch": 59, "duration": 1, "velocity": 79}, {"time": 2755, "pitch": 57, "duration": 10, "velocity": 71}, {"time": 2756, "pitch": 61, "duration": 7, "velocity": 81}, {"time": 2756, "pitch": 45, "duration": 24, "velocity": 90}, {"time": 2756, "pitch": 64, "duration": 7, "velocity": 71}, {"time": 2757, "pitch": 69, "duration": 5, "velocity": 80}, {"time": 2762, "pitch": 52, "duration": 9, "velocity": 65}, {"time": 2768, "pitch": 64, "duration": 7, "velocity": 74}, {"time": 2768, "pitch": 61, "duration": 7, "velocity": 79}, {"time": 2774, "pitch": 52, "duration": 7, "velocity": 51}, {"time": 2779, "pitch": 57, "duration": 19, "velocity": 32}, {"time": 2780, "pitch": 61, "duration": 18, "velocity": 73}, {"time": 2780, "pitch": 64, "duration": 18, "velocity": 66}], "annotations": [{"time": 45, "annotation": {"number": 64, "value": 127}, "group": "control_change"}, {"time": 45, "annotation": {"number": 64, "value": 0}, "group": "control_change"}, {"time": 68, "annotation": {"number": 64, "value": 0}, "group": "control_change"}, {"time": 70, "annotation": {"number": 64, "value": 127}, "group": "control_change"}, {"time": 92, "annotation": {"number": 64, "value": 0}, "group": "control_change"}, {"time": 92, "annotation": {"number": 64, "value": 127}, "group": "control_change"}, {"time": 115, "annotation": {"number": 64, "value": 0}, "group": "control_change"}, {"time": 117, "annotation": {"number": 64, "value": 127}, "group": "control_change"}, {"time": 139, "annotation": {"number": 64, "value": 0}, "group": "control_change"}, {"time": 142, "annotation": {"number": 64, "value": 127}, "group": "control_change"}, {"time": 142, "annotation": {"number": 64, "value": 0}, "group": "control_change"}, {"time": 163, "annotation": {"number": 64, "value": 0}, "group": "control_change"}, {"time": 165, "annotation": {"number": 64, "value": 127}, "group": "control_change"}, {"time": 188, "annotation": {"number": 64, "value": 127}, "group": "control_change"}, {"time": 188, "annotation": {"number": 64, "value": 0}, "group": "control_change"}, {"time": 211, "annotation": {"number": 64, "value": 0}, "group": "control_change"}, {"time": 211, "annotation": {"number": 64, "value": 127}, "group": "control_change"}, {"time": 235, "annotation": {"number": 64, "value": 0}, "group": "control_change"}, {"time": 239, "annotation": {"number": 64, "value": 127}, "group": "control_change"}, {"time": 259, "annotation": {"number": 64, "value": 0}, "group": "control_change"}, {"time": 260, "annotation": {"number": 64, "value": 127}, "group": "control_change"}, {"time": 283, "annotation": {"number": 64, "value": 0}, "group": "control_change"}, {"time": 287, "annotation": {"number": 64, "value": 127}, "group": "control_change"}, {"time": 330, "annotation": {"number": 64, "value": 0}, "group": "control_change"}, {"time": 333, "annotation": {"number": 64, "value": 127}, "group": "control_change"}, {"time": 355, "annotation": {"number": 64, "value": 0}, "group": "control_change"}, {"time": 358, "annotation": {"number": 64, "value": 127}, "group": "control_change"}, {"time": 380, "annotation": {"number": 64, "value": 0}, "group": "control_change"}, {"time": 383, "annotation": {"number": 64, "value": 127}, "group": "control_change"}, {"time": 426, "annotation": {"number": 64, "value": 0}, "group": "control_change"}, {"time": 428, "annotation": {"number": 64, "value": 127}, "group": "control_change"}, {"time": 450, "annotation": {"number": 64, "value": 0}, "group": "control_change"}, {"time": 452, "annotation": {"number": 64, "value": 127}, "group": "control_change"}, {"time": 475, "annotation": {"number": 64, "value": 0}, "group": "control_change"}, {"time": 477, "annotation": {"number": 64, "value": 127}, "group": "control_change"}, {"time": 500, "annotation": {"number": 64, "value": 0}, "group": "control_change"}, {"time": 502, "annotation": {"number": 64, "value": 127}, "group": "control_change"}, {"time": 523, "annotation": {"number": 64, "value": 0}, "group": "control_change"}, {"time": 524, "annotation": {"number": 64, "value": 127}, "group": "control_change"}, {"time": 547, "annotation": {"number": 64, "value": 0}, "group": "control_change"}, {"time": 549, "annotation": {"number": 64, "value": 127}, "group": "control_change"}, {"time": 571, "annotation": {"number": 64, "value": 0}, "group": "control_change"}, {"time": 574, "annotation": {"number": 64, "value": 127}, "group": "control_change"}, {"time": 596, "annotation": {"number": 64, "value": 0}, "group": "control_change"}, {"time": 599, "annotation": {"number": 64, "value": 127}, "group": "control_change"}, {"time": 619, "annotation": {"number": 64, "value": 0}, "group": "control_change"}, {"time": 621, "annotation": {"number": 64, "value": 127}, "group": "control_change"}, {"time": 642, "annotation": {"number": 64, "value": 0}, "group": "control_change"}, {"time": 644, "annotation": {"number": 64, "value": 127}, "group": "control_change"}, {"time": 667, "annotation": {"number": 64, "value": 0}, "group": "control_change"}, {"time": 670, "annotation": {"number": 64, "value": 127}, "group": "control_change"}, {"time": 691, "annotation": {"number": 64, "value": 0}, "group": "control_change"}, {"time": 693, "annotation": {"number": 64, "value": 127}, "group": "control_change"}, {"time": 714, "annotation": {"number": 64, "value": 0}, "group": "control_change"}, {"time": 716, "annotation": {"number": 64, "value": 127}, "group": "control_change"}, {"time": 739, "annotation": {"number": 64, "value": 0}, "group": "control_change"}, {"time": 741, "annotation": {"number": 64, "value": 127}, "group": "control_change"}, {"time": 762, "annotation": {"number": 64, "value": 0}, "group": "control_change"}, {"time": 764, "annotation": {"number": 64, "value": 127}, "group": "control_change"}, {"time": 787, "annotation": {"number": 64, "value": 0}, "group": "control_change"}, {"time": 789, "annotation": {"number": 64, "value": 127}, "group": "control_change"}, {"time": 811, "annotation": {"number": 64, "value": 0}, "group": "control_change"}, {"time": 812, "annotation": {"number": 64, "value": 127}, "group": "control_change"}, {"time": 834, "annotation": {"number": 64, "value": 0}, "group": "control_change"}, {"time": 835, "annotation": {"number": 64, "value": 127}, "group": "control_change"}, {"time": 858, "annotation": {"number": 64, "value": 0}, "group": "control_change"}, {"time": 862, "annotation": {"number": 64, "value": 127}, "group": "control_change"}, {"time": 883, "annotation": {"number": 64, "value": 0}, "group": "control_change"}, {"time": 885, "annotation": {"number": 64, "value": 127}, "group": "control_change"}, {"time": 906, "annotation": {"number": 64, "value": 0}, "group": "control_change"}, {"time": 908, "annotation": {"number": 64, "value": 127}, "group": "control_change"}, {"time": 931, "annotation": {"number": 64, "value": 0}, "group": "control_change"}, {"time": 933, "annotation": {"number": 64, "value": 127}, "group": "control_change"}, {"time": 954, "annotation": {"number": 64, "value": 0}, "group": "control_change"}, {"time": 956, "annotation": {"number": 64, "value": 127}, "group": "control_change"}, {"time": 979, "annotation": {"number": 64, "value": 0}, "group": "control_change"}, {"time": 981, "annotation": {"number": 64, "value": 127}, "group": "control_change"}, {"time": 1003, "annotation": {"number": 64, "value": 0}, "group": "control_change"}, {"time": 1005, "annotation": {"number": 64, "value": 127}, "group": "control_change"}, {"time": 1027, "annotation": {"number": 64, "value": 0}, "group": "control_change"}, {"time": 1029, "annotation": {"number": 64, "value": 127}, "group": "control_change"}, {"time": 1050, "annotation": {"number": 64, "value": 0}, "group": "control_change"}, {"time": 1053, "annotation": {"number": 64, "value": 127}, "group": "control_change"}, {"time": 1075, "annotation": {"number": 64, "value": 0}, "group": "control_change"}, {"time": 1077, "annotation": {"number": 64, "value": 127}, "group": "control_change"}, {"time": 1100, "annotation": {"number": 64, "value": 0}, "group": "control_change"}, {"time": 1101, "annotation": {"number": 64, "value": 127}, "group": "control_change"}, {"time": 1123, "annotation": {"number": 64, "value": 0}, "group": "control_change"}, {"time": 1125, "annotation": {"number": 64, "value": 127}, "group": "control_change"}, {"time": 1148, "annotation": {"number": 64, "value": 127}, "group": "control_change"}, {"time": 1171, "annotation": {"number": 64, "value": 0}, "group": "control_change"}, {"time": 1174, "annotation": {"number": 64, "value": 127}, "group": "control_change"}, {"time": 1194, "annotation": {"number": 64, "value": 0}, "group": "control_change"}, {"time": 1197, "annotation": {"number": 64, "value": 127}, "group": "control_change"}, {"time": 1218, "annotation": {"number": 64, "value": 0}, "group": "control_change"}, {"time": 1221, "annotation": {"number": 64, "value": 127}, "group": "control_change"}, {"time": 1241, "annotation": {"number": 64, "value": 0}, "group": "control_change"}, {"time": 1247, "annotation": {"number": 64, "value": 127}, "group": "control_change"}, {"time": 1290, "annotation": {"number": 64, "value": 0}, "group": "control_change"}, {"time": 1293, "annotation": {"number": 64, "value": 127}, "group": "control_change"}, {"time": 1315, "annotation": {"number": 64, "value": 0}, "group": "control_change"}, {"time": 1318, "annotation": {"number": 64, "value": 127}, "group": "control_change"}, {"time": 1340, "annotation": {"number": 64, "value": 0}, "group": "control_change"}, {"time": 1343, "annotation": {"number": 64, "value": 127}, "group": "control_change"}, {"time": 1386, "annotation": {"number": 64, "value": 0}, "group": "control_change"}, {"time": 1388, "annotation": {"number": 64, "value": 127}, "group": "control_change"}, {"time": 1410, "annotation": {"number": 64, "value": 0}, "group": "control_change"}, {"time": 1412, "annotation": {"number": 64, "value": 127}, "group": "control_change"}, {"time": 1435, "annotation": {"number": 64, "value": 0}, "group": "control_change"}, {"time": 1437, "annotation": {"number": 64, "value": 127}, "group": "control_change"}, {"time": 1460, "annotation": {"number": 64, "value": 0}, "group": "control_change"}, {"time": 1462, "annotation": {"number": 64, "value": 127}, "group": "control_change"}, {"time": 1483, "annotation": {"number": 64, "value": 0}, "group": "control_change"}, {"time": 1484, "annotation": {"number": 64, "value": 127}, "group": "control_change"}, {"time": 1507, "annotation": {"number": 64, "value": 0}, "group": "control_change"}, {"time": 1509, "annotation": {"number": 64, "value": 127}, "group": "control_change"}, {"time": 1531, "annotation": {"number": 64, "value": 0}, "group": "control_change"}, {"time": 1534, "annotation": {"number": 64, "value": 127}, "group": "control_change"}, {"time": 1556, "annotation": {"number": 64, "value": 0}, "group": "control_change"}, {"time": 1559, "annotation": {"number": 64, "value": 127}, "group": "control_change"}, {"time": 1579, "annotation": {"number": 64, "value": 0}, "group": "control_change"}, {"time": 1581, "annotation": {"number": 64, "value": 127}, "group": "control_change"}, {"time": 1602, "annotation": {"number": 64, "value": 0}, "group": "control_change"}, {"time": 1604, "annotation": {"number": 64, "value": 127}, "group": "control_change"}, {"time": 1627, "annotation": {"number": 64, "value": 0}, "group": "control_change"}, {"time": 1630, "annotation": {"number": 64, "value": 127}, "group": "control_change"}, {"time": 1651, "annotation": {"number": 64, "value": 0}, "group": "control_change"}, {"time": 1653, "annotation": {"number": 64, "value": 127}, "group": "control_change"}, {"time": 1674, "annotation": {"number": 64, "value": 0}, "group": "control_change"}, {"time": 1676, "annotation": {"number": 64, "value": 127}, "group": "control_change"}, {"time": 1699, "annotation": {"number": 64, "value": 0}, "group": "control_change"}, {"time": 1701, "annotation": {"number": 64, "value": 127}, "group": "control_change"}, {"time": 1722, "annotation": {"number": 64, "value": 0}, "group": "control_change"}, {"time": 1724, "annotation": {"number": 64, "value": 127}, "group": "control_change"}, {"time": 1747, "annotation": {"number": 64, "value": 0}, "group": "control_change"}, {"time": 1749, "annotation": {"number": 64, "value": 127}, "group": "control_change"}, {"time": 1771, "annotation": {"number": 64, "value": 0}, "group": "control_change"}, {"time": 1772, "annotation": {"number": 64, "value": 127}, "group": "control_change"}, {"time": 1794, "annotation": {"number": 64, "value": 0}, "group": "control_change"}, {"time": 1795, "annotation": {"number": 64, "value": 127}, "group": "control_change"}, {"time": 1818, "annotation": {"number": 64, "value": 0}, "group": "control_change"}, {"time": 1822, "annotation": {"number": 64, "value": 127}, "group": "control_change"}, {"time": 1843, "annotation": {"number": 64, "value": 0}, "group": "control_change"}, {"time": 1845, "annotation": {"number": 64, "value": 127}, "group": "control_change"}, {"time": 1866, "annotation": {"number": 64, "value": 0}, "group": "control_change"}, {"time": 1868, "annotation": {"number": 64, "value": 127}, "group": "control_change"}, {"time": 1891, "annotation": {"number": 64, "value": 0}, "group": "control_change"}, {"time": 1893, "annotation": {"number": 64, "value": 127}, "group": "control_change"}, {"time": 1914, "annotation": {"number": 64, "value": 0}, "group": "control_change"}, {"time": 1916, "annotation": {"number": 64, "value": 127}, "group": "control_change"}, {"time": 1939, "annotation": {"number": 64, "value": 0}, "group": "control_change"}, {"time": 1941, "annotation": {"number": 64, "value": 127}, "group": "control_change"}, {"time": 1963, "annotation": {"number": 64, "value": 0}, "group": "control_change"}, {"time": 1965, "annotation": {"number": 64, "value": 127}, "group": "control_change"}, {"time": 1987, "annotation": {"number": 64, "value": 0}, "group": "control_change"}, {"time": 1989, "annotation": {"number": 64, "value": 127}, "group": "control_change"}, {"time": 2010, "annotation": {"number": 64, "value": 0}, "group": "control_change"}, {"time": 2014, "annotation": {"number": 64, "value": 127}, "group": "control_change"}, {"time": 2035, "annotation": {"number": 64, "value": 0}, "group": "control_change"}, {"time": 2037, "annotation": {"number": 64, "value": 127}, "group": "control_change"}, {"time": 2058, "annotation": {"number": 64, "value": 0}, "group": "control_change"}, {"time": 2060, "annotation": {"number": 64, "value": 127}, "group": "control_change"}, {"time": 2083, "annotation": {"number": 64, "value": 0}, "group": "control_change"}, {"time": 2085, "annotation": {"number": 64, "value": 127}, "group": "control_change"}, {"time": 2106, "annotation": {"number": 64, "value": 0}, "group": "control_change"}, {"time": 2108, "annotation": {"number": 64, "value": 127}, "group": "control_change"}, {"time": 2131, "annotation": {"number": 64, "value": 0}, "group": "control_change"}, {"time": 2133, "annotation": {"number": 64, "value": 127}, "group": "control_change"}, {"time": 2155, "annotation": {"number": 64, "value": 0}, "group": "control_change"}, {"time": 2156, "annotation": {"number": 64, "value": 127}, "group": "control_change"}, {"time": 2178, "annotation": {"number": 64, "value": 0}, "group": "control_change"}, {"time": 2179, "annotation": {"number": 64, "value": 127}, "group": "control_change"}, {"time": 2202, "annotation": {"number": 64, "value": 0}, "group": "control_change"}, {"time": 2206, "annotation": {"number": 64, "value": 127}, "group": "control_change"}, {"time": 2227, "annotation": {"number": 64, "value": 0}, "group": "control_change"}, {"time": 2229, "annotation": {"number": 64, "value": 127}, "group": "control_change"}, {"time": 2250, "annotation": {"number": 64, "value": 0}, "group": "control_change"}, {"time": 2252, "annotation": {"number": 64, "value": 127}, "group": "control_change"}, {"time": 2275, "annotation": {"number": 64, "value": 0}, "group": "control_change"}, {"time": 2277, "annotation": {"number": 64, "value": 127}, "group": "control_change"}, {"time": 2298, "annotation": {"number": 64, "value": 0}, "group": "control_change"}, {"time": 2300, "annotation": {"number": 64, "value": 127}, "group": "control_change"}, {"time": 2323, "annotation": {"number": 64, "value": 0}, "group": "control_change"}, {"time": 2325, "annotation": {"number": 64, "value": 127}, "group": "control_change"}, {"time": 2347, "annotation": {"number": 64, "value": 0}, "group": "control_change"}, {"time": 2349, "annotation": {"number": 64, "value": 127}, "group": "control_change"}, {"time": 2371, "annotation": {"number": 64, "value": 0}, "group": "control_change"}, {"time": 2373, "annotation": {"number": 64, "value": 127}, "group": "control_change"}, {"time": 2394, "annotation": {"number": 64, "value": 0}, "group": "control_change"}, {"time": 2398, "annotation": {"number": 64, "value": 127}, "group": "control_change"}, {"time": 2419, "annotation": {"number": 64, "value": 0}, "group": "control_change"}, {"time": 2421, "annotation": {"number": 64, "value": 127}, "group": "control_change"}, {"time": 2442, "annotation": {"number": 64, "value": 0}, "group": "control_change"}, {"time": 2444, "annotation": {"number": 64, "value": 127}, "group": "control_change"}, {"time": 2467, "annotation": {"number": 64, "value": 0}, "group": "control_change"}, {"time": 2469, "annotation": {"number": 64, "value": 127}, "group": "control_change"}, {"time": 2490, "annotation": {"number": 64, "value": 0}, "group": "control_change"}, {"time": 2492, "annotation": {"number": 64, "value": 127}, "group": "control_change"}, {"time": 2515, "annotation": {"number": 64, "value": 0}, "group": "control_change"}, {"time": 2517, "annotation": {"number": 64, "value": 127}, "group": "control_change"}, {"time": 2539, "annotation": {"number": 64, "value": 0}, "group": "control_change"}, {"time": 2540, "annotation": {"number": 64, "value": 127}, "group": "control_change"}, {"time": 2562, "annotation": {"number": 64, "value": 0}, "group": "control_change"}, {"time": 2563, "annotation": {"number": 64, "value": 127}, "group": "control_change"}, {"time": 2586, "annotation": {"number": 64, "value": 0}, "group": "control_change"}, {"time": 2590, "annotation": {"number": 64, "value": 127}, "group": "control_change"}, {"time": 2611, "annotation": {"number": 64, "value": 0}, "group": "control_change"}, {"time": 2613, "annotation": {"number": 64, "value": 127}, "group": "control_change"}, {"time": 2634, "annotation": {"number": 64, "value": 0}, "group": "control_change"}, {"time": 2636, "annotation": {"number": 64, "value": 127}, "group": "control_change"}, {"time": 2659, "annotation": {"number": 64, "value": 0}, "group": "control_change"}, {"time": 2661, "annotation": {"number": 64, "value": 127}, "group": "control_change"}, {"time": 2682, "annotation": {"number": 64, "value": 0}, "group": "control_change"}, {"time": 2684, "annotation": {"number": 64, "value": 127}, "group": "control_change"}, {"time": 2707, "annotation": {"number": 64, "value": 0}, "group": "control_change"}, {"time": 2709, "annotation": {"number": 64, "value": 127}, "group": "control_change"}, {"time": 2731, "annotation": {"number": 64, "value": 0}, "group": "control_change"}, {"time": 2733, "annotation": {"number": 64, "value": 127}, "group": "control_change"}, {"time": 2755, "annotation": {"number": 64, "value": 0}, "group": "control_change"}, {"time": 2756, "annotation": {"number": 64, "value": 127}, "group": "control_change"}, {"time": 2798, "annotation": {"number": 64, "value": 0}, "group": "control_change"}]}]}