{"metadata": {"schema_version": "0.2", "title": "None", "source_filename": "836.mid", "source_format": "midi"}, "resolution": 12, "tempos": [{"time": 0, "qpm": 78.00017940041262}], "time_signatures": [{"time": 0, "numerator": 1, "denominator": 4}], "tracks": [{"program": 4, "is_drum": false, "name": "MELODY", "notes": [{"time": 205, "pitch": 75, "duration": 6, "velocity": 82}, {"time": 211, "pitch": 74, "duration": 6, "velocity": 83}, {"time": 217, "pitch": 72, "duration": 6, "velocity": 82}, {"time": 223, "pitch": 74, "duration": 6, "velocity": 84}, {"time": 229, "pitch": 75, "duration": 10, "velocity": 87}, {"time": 241, "pitch": 79, "duration": 10, "velocity": 83}, {"time": 253, "pitch": 74, "duration": 30, "velocity": 83}, {"time": 301, "pitch": 75, "duration": 5, "velocity": 83}, {"time": 307, "pitch": 74, "duration": 6, "velocity": 78}, {"time": 313, "pitch": 72, "duration": 5, "velocity": 83}, {"time": 319, "pitch": 70, "duration": 6, "velocity": 83}, {"time": 325, "pitch": 72, "duration": 12, "velocity": 80}, {"time": 337, "pitch": 75, "duration": 13, "velocity": 83}, {"time": 349, "pitch": 67, "duration": 32, "velocity": 77}, {"time": 397, "pitch": 68, "duration": 6, "velocity": 83}, {"time": 403, "pitch": 67, "duration": 7, "velocity": 81}, {"time": 409, "pitch": 68, "duration": 4, "velocity": 84}, {"time": 415, "pitch": 79, "duration": 5, "velocity": 86}, {"time": 421, "pitch": 77, "duration": 19, "velocity": 83}, {"time": 445, "pitch": 70, "duration": 4, "velocity": 81}, {"time": 451, "pitch": 72, "duration": 4, "velocity": 84}, {"time": 457, "pitch": 74, "duration": 5, "velocity": 88}, {"time": 463, "pitch": 77, "duration": 5, "velocity": 88}, {"time": 469, "pitch": 75, "duration": 18, "velocity": 82}, {"time": 493, "pitch": 68, "duration": 4, "velocity": 87}, {"time": 499, "pitch": 70, "duration": 5, "velocity": 85}, {"time": 505, "pitch": 72, "duration": 5, "velocity": 83}, {"time": 511, "pitch": 75, "duration": 5, "velocity": 85}, {"time": 517, "pitch": 77, "duration": 10, "velocity": 82}, {"time": 529, "pitch": 79, "duration": 11, "velocity": 82}, {"time": 541, "pitch": 74, "duration": 37, "velocity": 83}, {"time": 589, "pitch": 75, "duration": 6, "velocity": 82}, {"time": 595, "pitch": 74, "duration": 6, "velocity": 83}, {"time": 601, "pitch": 72, "duration": 6, "velocity": 82}, {"time": 607, "pitch": 74, "duration": 6, "velocity": 84}, {"time": 613, "pitch": 75, "duration": 10, "velocity": 87}, {"time": 625, "pitch": 79, "duration": 10, "velocity": 83}, {"time": 637, "pitch": 74, "duration": 30, "velocity": 83}, {"time": 685, "pitch": 75, "duration": 5, "velocity": 83}, {"time": 691, "pitch": 74, "duration": 6, "velocity": 78}, {"time": 697, "pitch": 72, "duration": 5, "velocity": 83}, {"time": 703, "pitch": 70, "duration": 6, "velocity": 83}, {"time": 709, "pitch": 72, "duration": 12, "velocity": 80}, {"time": 721, "pitch": 75, "duration": 13, "velocity": 83}, {"time": 733, "pitch": 67, "duration": 32, "velocity": 77}, {"time": 781, "pitch": 68, "duration": 6, "velocity": 83}, {"time": 787, "pitch": 67, "duration": 7, "velocity": 81}, {"time": 793, "pitch": 68, "duration": 4, "velocity": 84}, {"time": 799, "pitch": 79, "duration": 5, "velocity": 86}, {"time": 805, "pitch": 77, "duration": 19, "velocity": 83}, {"time": 829, "pitch": 70, "duration": 4, "velocity": 81}, {"time": 835, "pitch": 72, "duration": 4, "velocity": 84}, {"time": 841, "pitch": 74, "duration": 5, "velocity": 88}, {"time": 847, "pitch": 77, "duration": 5, "velocity": 88}, {"time": 853, "pitch": 75, "duration": 18, "velocity": 82}, {"time": 877, "pitch": 68, "duration": 4, "velocity": 87}, {"time": 883, "pitch": 70, "duration": 5, "velocity": 85}, {"time": 889, "pitch": 72, "duration": 5, "velocity": 83}, {"time": 895, "pitch": 75, "duration": 5, "velocity": 85}, {"time": 901, "pitch": 77, "duration": 10, "velocity": 82}, {"time": 913, "pitch": 75, "duration": 5, "velocity": 86}, {"time": 919, "pitch": 77, "duration": 4, "velocity": 83}, {"time": 925, "pitch": 79, "duration": 28, "velocity": 83}, {"time": 961, "pitch": 75, "duration": 6, "velocity": 86}, {"time": 967, "pitch": 77, "duration": 7, "velocity": 80}, {"time": 973, "pitch": 79, "duration": 6, "velocity": 83}, {"time": 979, "pitch": 84, "duration": 4, "velocity": 86}, {"time": 985, "pitch": 84, "duration": 4, "velocity": 89}, {"time": 991, "pitch": 79, "duration": 5, "velocity": 82}, {"time": 997, "pitch": 77, "duration": 9, "velocity": 88}, {"time": 1009, "pitch": 74, "duration": 4, "velocity": 89}, {"time": 1015, "pitch": 75, "duration": 5, "velocity": 83}, {"time": 1021, "pitch": 77, "duration": 4, "velocity": 83}, {"time": 1027, "pitch": 82, "duration": 4, "velocity": 86}, {"time": 1033, "pitch": 82, "duration": 4, "velocity": 84}, {"time": 1039, "pitch": 84, "duration": 5, "velocity": 82}, {"time": 1045, "pitch": 79, "duration": 12, "velocity": 84}, {"time": 1057, "pitch": 75, "duration": 5, "velocity": 89}, {"time": 1063, "pitch": 74, "duration": 5, "velocity": 93}, {"time": 1069, "pitch": 72, "duration": 11, "velocity": 84}, {"time": 1081, "pitch": 79, "duration": 10, "velocity": 85}, {"time": 1093, "pitch": 77, "duration": 10, "velocity": 84}, {"time": 1105, "pitch": 75, "duration": 5, "velocity": 84}, {"time": 1111, "pitch": 77, "duration": 5, "velocity": 83}, {"time": 1117, "pitch": 79, "duration": 5, "velocity": 83}, {"time": 1123, "pitch": 80, "duration": 5, "velocity": 87}, {"time": 1129, "pitch": 79, "duration": 5, "velocity": 85}, {"time": 1135, "pitch": 77, "duration": 5, "velocity": 86}, {"time": 1141, "pitch": 79, "duration": 10, "velocity": 84}, {"time": 1153, "pitch": 75, "duration": 6, "velocity": 86}, {"time": 1159, "pitch": 77, "duration": 7, "velocity": 80}, {"time": 1165, "pitch": 79, "duration": 6, "velocity": 83}, {"time": 1171, "pitch": 84, "duration": 4, "velocity": 86}, {"time": 1177, "pitch": 84, "duration": 4, "velocity": 89}, {"time": 1183, "pitch": 79, "duration": 5, "velocity": 82}, {"time": 1189, "pitch": 77, "duration": 9, "velocity": 88}, {"time": 1201, "pitch": 74, "duration": 4, "velocity": 89}, {"time": 1207, "pitch": 75, "duration": 5, "velocity": 83}, {"time": 1213, "pitch": 77, "duration": 4, "velocity": 83}, {"time": 1219, "pitch": 82, "duration": 4, "velocity": 86}, {"time": 1225, "pitch": 82, "duration": 4, "velocity": 84}, {"time": 1231, "pitch": 84, "duration": 5, "velocity": 82}, {"time": 1237, "pitch": 79, "duration": 12, "velocity": 84}, {"time": 1249, "pitch": 75, "duration": 5, "velocity": 89}, {"time": 1255, "pitch": 74, "duration": 5, "velocity": 93}, {"time": 1261, "pitch": 72, "duration": 11, "velocity": 84}, {"time": 1273, "pitch": 79, "duration": 10, "velocity": 85}, {"time": 1285, "pitch": 77, "duration": 10, "velocity": 84}, {"time": 1297, "pitch": 75, "duration": 5, "velocity": 84}, {"time": 1303, "pitch": 77, "duration": 5, "velocity": 83}, {"time": 1309, "pitch": 79, "duration": 5, "velocity": 83}, {"time": 1315, "pitch": 77, "duration": 5, "velocity": 87}, {"time": 1321, "pitch": 75, "duration": 5, "velocity": 85}, {"time": 1327, "pitch": 74, "duration": 12, "velocity": 86}, {"time": 1339, "pitch": 72, "duration": 18, "velocity": 84}, {"time": 1741, "pitch": 75, "duration": 6, "velocity": 82}, {"time": 1747, "pitch": 74, "duration": 6, "velocity": 83}, {"time": 1753, "pitch": 72, "duration": 6, "velocity": 82}, {"time": 1759, "pitch": 74, "duration": 6, "velocity": 84}, {"time": 1765, "pitch": 75, "duration": 10, "velocity": 87}, {"time": 1777, "pitch": 79, "duration": 10, "velocity": 83}, {"time": 1789, "pitch": 74, "duration": 30, "velocity": 83}, {"time": 1837, "pitch": 75, "duration": 5, "velocity": 83}, {"time": 1843, "pitch": 74, "duration": 6, "velocity": 78}, {"time": 1849, "pitch": 72, "duration": 5, "velocity": 83}, {"time": 1855, "pitch": 70, "duration": 6, "velocity": 83}, {"time": 1861, "pitch": 72, "duration": 12, "velocity": 80}, {"time": 1873, "pitch": 75, "duration": 13, "velocity": 83}, {"time": 1885, "pitch": 67, "duration": 32, "velocity": 77}, {"time": 1933, "pitch": 68, "duration": 6, "velocity": 83}, {"time": 1939, "pitch": 67, "duration": 7, "velocity": 81}, {"time": 1945, "pitch": 68, "duration": 4, "velocity": 84}, {"time": 1951, "pitch": 79, "duration": 5, "velocity": 86}, {"time": 1957, "pitch": 77, "duration": 19, "velocity": 83}, {"time": 1981, "pitch": 70, "duration": 4, "velocity": 81}, {"time": 1987, "pitch": 72, "duration": 4, "velocity": 84}, {"time": 1993, "pitch": 74, "duration": 5, "velocity": 88}, {"time": 1999, "pitch": 77, "duration": 5, "velocity": 88}, {"time": 2005, "pitch": 75, "duration": 18, "velocity": 82}, {"time": 2029, "pitch": 68, "duration": 4, "velocity": 87}, {"time": 2035, "pitch": 70, "duration": 5, "velocity": 85}, {"time": 2041, "pitch": 72, "duration": 5, "velocity": 83}, {"time": 2047, "pitch": 75, "duration": 5, "velocity": 85}, {"time": 2053, "pitch": 77, "duration": 10, "velocity": 82}, {"time": 2065, "pitch": 79, "duration": 11, "velocity": 82}, {"time": 2077, "pitch": 74, "duration": 37, "velocity": 83}, {"time": 2125, "pitch": 75, "duration": 6, "velocity": 82}, {"time": 2131, "pitch": 74, "duration": 6, "velocity": 83}, {"time": 2137, "pitch": 72, "duration": 6, "velocity": 82}, {"time": 2143, "pitch": 74, "duration": 6, "velocity": 84}, {"time": 2149, "pitch": 75, "duration": 10, "velocity": 87}, {"time": 2161, "pitch": 79, "duration": 10, "velocity": 83}, {"time": 2173, "pitch": 74, "duration": 30, "velocity": 83}, {"time": 2221, "pitch": 75, "duration": 5, "velocity": 83}, {"time": 2227, "pitch": 74, "duration": 6, "velocity": 78}, {"time": 2233, "pitch": 72, "duration": 5, "velocity": 83}, {"time": 2239, "pitch": 70, "duration": 6, "velocity": 83}, {"time": 2245, "pitch": 72, "duration": 12, "velocity": 80}, {"time": 2257, "pitch": 75, "duration": 13, "velocity": 83}, {"time": 2269, "pitch": 67, "duration": 32, "velocity": 77}, {"time": 2317, "pitch": 68, "duration": 6, "velocity": 83}, {"time": 2323, "pitch": 67, "duration": 7, "velocity": 81}, {"time": 2329, "pitch": 68, "duration": 4, "velocity": 84}, {"time": 2335, "pitch": 79, "duration": 5, "velocity": 86}, {"time": 2341, "pitch": 77, "duration": 19, "velocity": 83}, {"time": 2365, "pitch": 70, "duration": 4, "velocity": 81}, {"time": 2371, "pitch": 72, "duration": 4, "velocity": 84}, {"time": 2377, "pitch": 74, "duration": 5, "velocity": 88}, {"time": 2383, "pitch": 77, "duration": 5, "velocity": 88}, {"time": 2389, "pitch": 75, "duration": 18, "velocity": 82}, {"time": 2413, "pitch": 68, "duration": 4, "velocity": 87}, {"time": 2419, "pitch": 70, "duration": 5, "velocity": 85}, {"time": 2425, "pitch": 72, "duration": 5, "velocity": 83}, {"time": 2431, "pitch": 75, "duration": 5, "velocity": 85}, {"time": 2437, "pitch": 77, "duration": 10, "velocity": 82}, {"time": 2449, "pitch": 75, "duration": 5, "velocity": 86}, {"time": 2455, "pitch": 77, "duration": 4, "velocity": 83}, {"time": 2461, "pitch": 79, "duration": 28, "velocity": 83}, {"time": 2497, "pitch": 75, "duration": 6, "velocity": 86}, {"time": 2503, "pitch": 77, "duration": 7, "velocity": 80}, {"time": 2509, "pitch": 79, "duration": 6, "velocity": 83}, {"time": 2515, "pitch": 84, "duration": 4, "velocity": 86}, {"time": 2521, "pitch": 84, "duration": 4, "velocity": 89}, {"time": 2527, "pitch": 79, "duration": 5, "velocity": 82}, {"time": 2533, "pitch": 77, "duration": 9, "velocity": 88}, {"time": 2545, "pitch": 74, "duration": 4, "velocity": 89}, {"time": 2551, "pitch": 75, "duration": 5, "velocity": 83}, {"time": 2557, "pitch": 77, "duration": 4, "velocity": 83}, {"time": 2563, "pitch": 82, "duration": 4, "velocity": 86}, {"time": 2569, "pitch": 82, "duration": 4, "velocity": 84}, {"time": 2575, "pitch": 84, "duration": 5, "velocity": 82}, {"time": 2581, "pitch": 79, "duration": 12, "velocity": 84}, {"time": 2593, "pitch": 75, "duration": 5, "velocity": 89}, {"time": 2599, "pitch": 74, "duration": 5, "velocity": 93}, {"time": 2605, "pitch": 72, "duration": 11, "velocity": 84}, {"time": 2617, "pitch": 79, "duration": 10, "velocity": 85}, {"time": 2629, "pitch": 77, "duration": 10, "velocity": 84}, {"time": 2641, "pitch": 75, "duration": 5, "velocity": 84}, {"time": 2647, "pitch": 77, "duration": 5, "velocity": 83}, {"time": 2653, "pitch": 79, "duration": 5, "velocity": 83}, {"time": 2659, "pitch": 80, "duration": 5, "velocity": 87}, {"time": 2665, "pitch": 79, "duration": 5, "velocity": 85}, {"time": 2671, "pitch": 77, "duration": 5, "velocity": 86}, {"time": 2677, "pitch": 79, "duration": 10, "velocity": 84}, {"time": 2689, "pitch": 75, "duration": 6, "velocity": 86}, {"time": 2695, "pitch": 77, "duration": 7, "velocity": 80}, {"time": 2701, "pitch": 79, "duration": 6, "velocity": 83}, {"time": 2707, "pitch": 84, "duration": 4, "velocity": 86}, {"time": 2713, "pitch": 84, "duration": 4, "velocity": 89}, {"time": 2719, "pitch": 79, "duration": 5, "velocity": 82}, {"time": 2725, "pitch": 77, "duration": 9, "velocity": 88}, {"time": 2737, "pitch": 74, "duration": 4, "velocity": 89}, {"time": 2743, "pitch": 75, "duration": 5, "velocity": 83}, {"time": 2749, "pitch": 77, "duration": 4, "velocity": 83}, {"time": 2755, "pitch": 82, "duration": 4, "velocity": 86}, {"time": 2761, "pitch": 82, "duration": 4, "velocity": 84}, {"time": 2767, "pitch": 84, "duration": 5, "velocity": 82}, {"time": 2773, "pitch": 79, "duration": 12, "velocity": 84}, {"time": 2785, "pitch": 75, "duration": 5, "velocity": 89}, {"time": 2791, "pitch": 74, "duration": 5, "velocity": 93}, {"time": 2797, "pitch": 72, "duration": 11, "velocity": 84}, {"time": 2809, "pitch": 79, "duration": 10, "velocity": 85}, {"time": 2821, "pitch": 77, "duration": 10, "velocity": 84}, {"time": 2833, "pitch": 75, "duration": 5, "velocity": 84}, {"time": 2839, "pitch": 77, "duration": 5, "velocity": 83}, {"time": 2845, "pitch": 79, "duration": 5, "velocity": 83}, {"time": 2851, "pitch": 77, "duration": 5, "velocity": 87}, {"time": 2857, "pitch": 75, "duration": 5, "velocity": 85}, {"time": 2863, "pitch": 74, "duration": 12, "velocity": 86}, {"time": 2875, "pitch": 72, "duration": 18, "velocity": 84}, {"time": 2977, "pitch": 75, "duration": 6, "velocity": 86}, {"time": 2983, "pitch": 77, "duration": 7, "velocity": 80}, {"time": 2989, "pitch": 79, "duration": 6, "velocity": 83}, {"time": 2995, "pitch": 84, "duration": 4, "velocity": 86}, {"time": 3001, "pitch": 84, "duration": 4, "velocity": 89}, {"time": 3007, "pitch": 79, "duration": 5, "velocity": 82}, {"time": 3013, "pitch": 77, "duration": 9, "velocity": 88}, {"time": 3025, "pitch": 74, "duration": 4, "velocity": 89}, {"time": 3031, "pitch": 75, "duration": 5, "velocity": 83}, {"time": 3037, "pitch": 77, "duration": 4, "velocity": 83}, {"time": 3043, "pitch": 82, "duration": 4, "velocity": 86}, {"time": 3049, "pitch": 82, "duration": 4, "velocity": 84}, {"time": 3055, "pitch": 84, "duration": 5, "velocity": 82}, {"time": 3061, "pitch": 79, "duration": 12, "velocity": 84}, {"time": 3073, "pitch": 75, "duration": 5, "velocity": 89}, {"time": 3079, "pitch": 74, "duration": 5, "velocity": 93}, {"time": 3085, "pitch": 72, "duration": 11, "velocity": 84}, {"time": 3097, "pitch": 79, "duration": 10, "velocity": 85}, {"time": 3109, "pitch": 77, "duration": 10, "velocity": 84}, {"time": 3121, "pitch": 75, "duration": 5, "velocity": 84}, {"time": 3127, "pitch": 77, "duration": 5, "velocity": 83}, {"time": 3133, "pitch": 79, "duration": 5, "velocity": 83}, {"time": 3139, "pitch": 80, "duration": 5, "velocity": 87}, {"time": 3145, "pitch": 79, "duration": 5, "velocity": 85}, {"time": 3151, "pitch": 77, "duration": 5, "velocity": 86}, {"time": 3157, "pitch": 79, "duration": 10, "velocity": 84}, {"time": 3169, "pitch": 75, "duration": 6, "velocity": 86}, {"time": 3175, "pitch": 77, "duration": 7, "velocity": 80}, {"time": 3181, "pitch": 79, "duration": 6, "velocity": 83}, {"time": 3187, "pitch": 84, "duration": 4, "velocity": 86}, {"time": 3193, "pitch": 84, "duration": 4, "velocity": 89}, {"time": 3199, "pitch": 79, "duration": 5, "velocity": 82}, {"time": 3205, "pitch": 77, "duration": 9, "velocity": 88}, {"time": 3217, "pitch": 74, "duration": 4, "velocity": 89}, {"time": 3223, "pitch": 75, "duration": 5, "velocity": 83}, {"time": 3229, "pitch": 77, "duration": 4, "velocity": 83}, {"time": 3235, "pitch": 82, "duration": 4, "velocity": 86}, {"time": 3241, "pitch": 82, "duration": 4, "velocity": 84}, {"time": 3247, "pitch": 84, "duration": 5, "velocity": 82}, {"time": 3253, "pitch": 79, "duration": 12, "velocity": 84}, {"time": 3265, "pitch": 75, "duration": 5, "velocity": 89}, {"time": 3271, "pitch": 74, "duration": 5, "velocity": 93}, {"time": 3277, "pitch": 72, "duration": 11, "velocity": 84}, {"time": 3289, "pitch": 79, "duration": 10, "velocity": 85}, {"time": 3301, "pitch": 77, "duration": 10, "velocity": 84}, {"time": 3313, "pitch": 75, "duration": 5, "velocity": 84}, {"time": 3319, "pitch": 77, "duration": 5, "velocity": 83}, {"time": 3325, "pitch": 79, "duration": 5, "velocity": 83}, {"time": 3331, "pitch": 77, "duration": 5, "velocity": 87}, {"time": 3337, "pitch": 75, "duration": 5, "velocity": 85}, {"time": 3343, "pitch": 74, "duration": 12, "velocity": 86}, {"time": 3355, "pitch": 72, "duration": 18, "velocity": 84}]}, {"program": 0, "is_drum": false, "name": "PIANO", "notes": [{"time": 13, "pitch": 44, "duration": 35, "velocity": 83}, {"time": 19, "pitch": 51, "duration": 28, "velocity": 68}, {"time": 25, "pitch": 56, "duration": 8, "velocity": 69}, {"time": 31, "pitch": 60, "duration": 3, "velocity": 82}, {"time": 37, "pitch": 56, "duration": 5, "velocity": 70}, {"time": 37, "pitch": 68, "duration": 5, "velocity": 73}, {"time": 61, "pitch": 43, "duration": 24, "velocity": 69}, {"time": 61, "pitch": 55, "duration": 15, "velocity": 67}, {"time": 61, "pitch": 62, "duration": 15, "velocity": 73}, {"time": 67, "pitch": 50, "duration": 13, "velocity": 68}, {"time": 73, "pitch": 58, "duration": 3, "velocity": 78}, {"time": 85, "pitch": 48, "duration": 13, "velocity": 78}, {"time": 85, "pitch": 55, "duration": 4, "velocity": 74}, {"time": 85, "pitch": 63, "duration": 10, "velocity": 75}, {"time": 91, "pitch": 55, "duration": 9, "velocity": 71}, {"time": 97, "pitch": 62, "duration": 4, "velocity": 78}, {"time": 109, "pitch": 41, "duration": 14, "velocity": 81}, {"time": 109, "pitch": 60, "duration": 13, "velocity": 77}, {"time": 115, "pitch": 48, "duration": 7, "velocity": 77}, {"time": 121, "pitch": 56, "duration": 6, "velocity": 91}, {"time": 127, "pitch": 53, "duration": 3, "velocity": 80}, {"time": 133, "pitch": 38, "duration": 13, "velocity": 83}, {"time": 133, "pitch": 50, "duration": 4, "velocity": 80}, {"time": 133, "pitch": 53, "duration": 7, "velocity": 70}, {"time": 139, "pitch": 50, "duration": 7, "velocity": 79}, {"time": 145, "pitch": 56, "duration": 2, "velocity": 85}, {"time": 157, "pitch": 43, "duration": 48, "velocity": 82}, {"time": 157, "pitch": 55, "duration": 9, "velocity": 82}, {"time": 163, "pitch": 60, "duration": 6, "velocity": 35}, {"time": 169, "pitch": 62, "duration": 6, "velocity": 78}, {"time": 175, "pitch": 67, "duration": 2, "velocity": 79}, {"time": 181, "pitch": 67, "duration": 9, "velocity": 74}, {"time": 181, "pitch": 74, "duration": 8, "velocity": 81}, {"time": 193, "pitch": 79, "duration": 12, "velocity": 72}, {"time": 199, "pitch": 67, "duration": 6, "velocity": 78}, {"time": 205, "pitch": 48, "duration": 35, "velocity": 83}, {"time": 205, "pitch": 63, "duration": 12, "velocity": 82}, {"time": 211, "pitch": 55, "duration": 8, "velocity": 65}, {"time": 217, "pitch": 60, "duration": 8, "velocity": 72}, {"time": 223, "pitch": 55, "duration": 16, "velocity": 57}, {"time": 229, "pitch": 67, "duration": 11, "velocity": 63}, {"time": 253, "pitch": 46, "duration": 22, "velocity": 72}, {"time": 253, "pitch": 62, "duration": 13, "velocity": 72}, {"time": 259, "pitch": 53, "duration": 9, "velocity": 66}, {"time": 265, "pitch": 58, "duration": 24, "velocity": 69}, {"time": 271, "pitch": 53, "duration": 4, "velocity": 70}, {"time": 277, "pitch": 65, "duration": 15, "velocity": 77}, {"time": 301, "pitch": 44, "duration": 32, "velocity": 84}, {"time": 301, "pitch": 60, "duration": 13, "velocity": 76}, {"time": 307, "pitch": 51, "duration": 26, "velocity": 56}, {"time": 313, "pitch": 56, "duration": 7, "velocity": 69}, {"time": 319, "pitch": 60, "duration": 7, "velocity": 74}, {"time": 325, "pitch": 63, "duration": 5, "velocity": 74}, {"time": 349, "pitch": 39, "duration": 36, "velocity": 71}, {"time": 349, "pitch": 58, "duration": 12, "velocity": 64}, {"time": 355, "pitch": 46, "duration": 30, "velocity": 70}, {"time": 361, "pitch": 55, "duration": 8, "velocity": 83}, {"time": 367, "pitch": 58, "duration": 6, "velocity": 88}, {"time": 373, "pitch": 63, "duration": 7, "velocity": 86}, {"time": 379, "pitch": 55, "duration": 7, "velocity": 80}, {"time": 385, "pitch": 58, "duration": 2, "velocity": 74}, {"time": 397, "pitch": 41, "duration": 41, "velocity": 82}, {"time": 397, "pitch": 53, "duration": 7, "velocity": 73}, {"time": 397, "pitch": 60, "duration": 12, "velocity": 78}, {"time": 403, "pitch": 48, "duration": 9, "velocity": 65}, {"time": 409, "pitch": 56, "duration": 8, "velocity": 85}, {"time": 415, "pitch": 48, "duration": 24, "velocity": 71}, {"time": 421, "pitch": 60, "duration": 14, "velocity": 77}, {"time": 427, "pitch": 53, "duration": 7, "velocity": 64}, {"time": 433, "pitch": 65, "duration": 4, "velocity": 77}, {"time": 445, "pitch": 43, "duration": 22, "velocity": 83}, {"time": 451, "pitch": 50, "duration": 16, "velocity": 67}, {"time": 457, "pitch": 55, "duration": 3, "velocity": 78}, {"time": 457, "pitch": 58, "duration": 7, "velocity": 82}, {"time": 463, "pitch": 55, "duration": 7, "velocity": 85}, {"time": 469, "pitch": 48, "duration": 13, "velocity": 82}, {"time": 469, "pitch": 60, "duration": 12, "velocity": 80}, {"time": 475, "pitch": 55, "duration": 7, "velocity": 82}, {"time": 481, "pitch": 63, "duration": 2, "velocity": 82}, {"time": 487, "pitch": 62, "duration": 6, "velocity": 82}, {"time": 493, "pitch": 44, "duration": 39, "velocity": 83}, {"time": 493, "pitch": 60, "duration": 13, "velocity": 80}, {"time": 499, "pitch": 51, "duration": 33, "velocity": 60}, {"time": 505, "pitch": 56, "duration": 7, "velocity": 84}, {"time": 511, "pitch": 60, "duration": 5, "velocity": 82}, {"time": 523, "pitch": 56, "duration": 2, "velocity": 65}, {"time": 529, "pitch": 56, "duration": 2, "velocity": 83}, {"time": 529, "pitch": 60, "duration": 3, "velocity": 83}, {"time": 541, "pitch": 43, "duration": 21, "velocity": 82}, {"time": 541, "pitch": 55, "duration": 9, "velocity": 75}, {"time": 541, "pitch": 60, "duration": 9, "velocity": 76}, {"time": 547, "pitch": 50, "duration": 14, "velocity": 77}, {"time": 553, "pitch": 62, "duration": 7, "velocity": 80}, {"time": 559, "pitch": 60, "duration": 6, "velocity": 82}, {"time": 565, "pitch": 43, "duration": 21, "velocity": 79}, {"time": 565, "pitch": 55, "duration": 11, "velocity": 74}, {"time": 565, "pitch": 59, "duration": 8, "velocity": 75}, {"time": 571, "pitch": 50, "duration": 15, "velocity": 72}, {"time": 571, "pitch": 62, "duration": 6, "velocity": 78}, {"time": 577, "pitch": 67, "duration": 10, "velocity": 84}, {"time": 583, "pitch": 55, "duration": 6, "velocity": 83}, {"time": 589, "pitch": 48, "duration": 38, "velocity": 85}, {"time": 589, "pitch": 60, "duration": 7, "velocity": 77}, {"time": 589, "pitch": 63, "duration": 10, "velocity": 73}, {"time": 595, "pitch": 55, "duration": 6, "velocity": 69}, {"time": 601, "pitch": 60, "duration": 7, "velocity": 84}, {"time": 607, "pitch": 55, "duration": 8, "velocity": 70}, {"time": 613, "pitch": 60, "duration": 6, "velocity": 78}, {"time": 613, "pitch": 67, "duration": 6, "velocity": 81}, {"time": 619, "pitch": 55, "duration": 7, "velocity": 61}, {"time": 625, "pitch": 60, "duration": 2, "velocity": 75}, {"time": 625, "pitch": 63, "duration": 2, "velocity": 74}, {"time": 637, "pitch": 43, "duration": 38, "velocity": 79}, {"time": 637, "pitch": 55, "duration": 9, "velocity": 74}, {"time": 637, "pitch": 62, "duration": 10, "velocity": 78}, {"time": 643, "pitch": 50, "duration": 6, "velocity": 63}, {"time": 649, "pitch": 58, "duration": 5, "velocity": 79}, {"time": 655, "pitch": 50, "duration": 7, "velocity": 70}, {"time": 661, "pitch": 55, "duration": 7, "velocity": 78}, {"time": 661, "pitch": 62, "duration": 6, "velocity": 77}, {"time": 667, "pitch": 50, "duration": 8, "velocity": 72}, {"time": 673, "pitch": 55, "duration": 5, "velocity": 76}, {"time": 673, "pitch": 58, "duration": 4, "velocity": 82}, {"time": 679, "pitch": 43, "duration": 2, "velocity": 82}, {"time": 685, "pitch": 44, "duration": 15, "velocity": 76}, {"time": 685, "pitch": 60, "duration": 9, "velocity": 77}, {"time": 691, "pitch": 51, "duration": 8, "velocity": 60}, {"time": 697, "pitch": 56, "duration": 15, "velocity": 80}, {"time": 697, "pitch": 60, "duration": 21, "velocity": 83}, {"time": 703, "pitch": 51, "duration": 6, "velocity": 70}, {"time": 709, "pitch": 44, "duration": 15, "velocity": 78}, {"time": 715, "pitch": 51, "duration": 7, "velocity": 70}, {"time": 721, "pitch": 56, "duration": 2, "velocity": 82}, {"time": 721, "pitch": 60, "duration": 3, "velocity": 83}, {"time": 733, "pitch": 39, "duration": 36, "velocity": 82}, {"time": 733, "pitch": 55, "duration": 11, "velocity": 74}, {"time": 733, "pitch": 58, "duration": 9, "velocity": 68}, {"time": 739, "pitch": 46, "duration": 30, "velocity": 66}, {"time": 745, "pitch": 58, "duration": 6, "velocity": 86}, {"time": 751, "pitch": 55, "duration": 7, "velocity": 82}, {"time": 757, "pitch": 63, "duration": 9, "velocity": 75}, {"time": 763, "pitch": 55, "duration": 2, "velocity": 77}, {"time": 769, "pitch": 55, "duration": 4, "velocity": 84}, {"time": 769, "pitch": 58, "duration": 3, "velocity": 84}, {"time": 781, "pitch": 44, "duration": 38, "velocity": 80}, {"time": 781, "pitch": 56, "duration": 12, "velocity": 71}, {"time": 781, "pitch": 63, "duration": 10, "velocity": 75}, {"time": 787, "pitch": 51, "duration": 8, "velocity": 66}, {"time": 793, "pitch": 60, "duration": 6, "velocity": 76}, {"time": 799, "pitch": 51, "duration": 8, "velocity": 59}, {"time": 805, "pitch": 56, "duration": 8, "velocity": 74}, {"time": 805, "pitch": 63, "duration": 8, "velocity": 71}, {"time": 811, "pitch": 51, "duration": 8, "velocity": 60}, {"time": 817, "pitch": 56, "duration": 3, "velocity": 71}, {"time": 817, "pitch": 60, "duration": 4, "velocity": 78}, {"time": 829, "pitch": 43, "duration": 18, "velocity": 82}, {"time": 829, "pitch": 55, "duration": 9, "velocity": 72}, {"time": 829, "pitch": 58, "duration": 9, "velocity": 71}, {"time": 835, "pitch": 50, "duration": 10, "velocity": 69}, {"time": 841, "pitch": 58, "duration": 6, "velocity": 82}, {"time": 841, "pitch": 62, "duration": 7, "velocity": 78}, {"time": 847, "pitch": 55, "duration": 7, "velocity": 87}, {"time": 853, "pitch": 48, "duration": 11, "velocity": 82}, {"time": 853, "pitch": 60, "duration": 8, "velocity": 82}, {"time": 859, "pitch": 55, "duration": 7, "velocity": 79}, {"time": 865, "pitch": 60, "duration": 2, "velocity": 83}, {"time": 865, "pitch": 63, "duration": 2, "velocity": 84}, {"time": 871, "pitch": 62, "duration": 6, "velocity": 80}, {"time": 877, "pitch": 41, "duration": 19, "velocity": 82}, {"time": 877, "pitch": 60, "duration": 6, "velocity": 77}, {"time": 883, "pitch": 48, "duration": 9, "velocity": 70}, {"time": 889, "pitch": 53, "duration": 3, "velocity": 74}, {"time": 889, "pitch": 56, "duration": 4, "velocity": 77}, {"time": 901, "pitch": 41, "duration": 15, "velocity": 83}, {"time": 901, "pitch": 53, "duration": 2, "velocity": 72}, {"time": 901, "pitch": 56, "duration": 1, "velocity": 70}, {"time": 901, "pitch": 60, "duration": 3, "velocity": 76}, {"time": 907, "pitch": 48, "duration": 8, "velocity": 72}, {"time": 913, "pitch": 60, "duration": 4, "velocity": 82}, {"time": 913, "pitch": 65, "duration": 6, "velocity": 82}, {"time": 925, "pitch": 43, "duration": 22, "velocity": 87}, {"time": 925, "pitch": 55, "duration": 7, "velocity": 83}, {"time": 925, "pitch": 60, "duration": 8, "velocity": 83}, {"time": 931, "pitch": 50, "duration": 7, "velocity": 78}, {"time": 934, "pitch": 55, "duration": 4, "velocity": 84}, {"time": 937, "pitch": 60, "duration": 3, "velocity": 89}, {"time": 940, "pitch": 50, "duration": 7, "velocity": 80}, {"time": 943, "pitch": 55, "duration": 3, "velocity": 87}, {"time": 946, "pitch": 60, "duration": 1, "velocity": 89}, {"time": 949, "pitch": 43, "duration": 23, "velocity": 83}, {"time": 949, "pitch": 55, "duration": 3, "velocity": 84}, {"time": 949, "pitch": 59, "duration": 4, "velocity": 93}, {"time": 952, "pitch": 50, "duration": 7, "velocity": 85}, {"time": 955, "pitch": 55, "duration": 5, "velocity": 84}, {"time": 961, "pitch": 50, "duration": 4, "velocity": 91}, {"time": 961, "pitch": 62, "duration": 5, "velocity": 87}, {"time": 964, "pitch": 55, "duration": 3, "velocity": 83}, {"time": 964, "pitch": 67, "duration": 8, "velocity": 83}, {"time": 967, "pitch": 50, "duration": 4, "velocity": 84}, {"time": 970, "pitch": 55, "duration": 3, "velocity": 80}, {"time": 973, "pitch": 48, "duration": 16, "velocity": 84}, {"time": 973, "pitch": 60, "duration": 8, "velocity": 76}, {"time": 973, "pitch": 67, "duration": 8, "velocity": 78}, {"time": 979, "pitch": 55, "duration": 7, "velocity": 80}, {"time": 985, "pitch": 60, "duration": 3, "velocity": 81}, {"time": 985, "pitch": 63, "duration": 6, "velocity": 85}, {"time": 988, "pitch": 55, "duration": 2, "velocity": 80}, {"time": 991, "pitch": 60, "duration": 3, "velocity": 83}, {"time": 994, "pitch": 63, "duration": 3, "velocity": 87}, {"time": 997, "pitch": 46, "duration": 15, "velocity": 79}, {"time": 997, "pitch": 62, "duration": 6, "velocity": 86}, {"time": 1003, "pitch": 53, "duration": 8, "velocity": 81}, {"time": 1009, "pitch": 58, "duration": 6, "velocity": 86}, {"time": 1009, "pitch": 62, "duration": 6, "velocity": 83}, {"time": 1021, "pitch": 46, "duration": 17, "velocity": 85}, {"time": 1021, "pitch": 58, "duration": 6, "velocity": 70}, {"time": 1021, "pitch": 62, "duration": 7, "velocity": 78}, {"time": 1027, "pitch": 53, "duration": 7, "velocity": 65}, {"time": 1030, "pitch": 58, "duration": 3, "velocity": 83}, {"time": 1033, "pitch": 65, "duration": 7, "velocity": 84}, {"time": 1036, "pitch": 53, "duration": 2, "velocity": 82}, {"time": 1039, "pitch": 58, "duration": 2, "velocity": 78}, {"time": 1045, "pitch": 39, "duration": 13, "velocity": 89}, {"time": 1045, "pitch": 55, "duration": 6, "velocity": 71}, {"time": 1045, "pitch": 58, "duration": 7, "velocity": 75}, {"time": 1045, "pitch": 63, "duration": 7, "velocity": 76}, {"time": 1051, "pitch": 46, "duration": 7, "velocity": 72}, {"time": 1057, "pitch": 58, "duration": 6, "velocity": 93}, {"time": 1057, "pitch": 63, "duration": 2, "velocity": 82}, {"time": 1060, "pitch": 46, "duration": 2, "velocity": 83}, {"time": 1063, "pitch": 55, "duration": 4, "velocity": 84}, {"time": 1066, "pitch": 58, "duration": 3, "velocity": 84}, {"time": 1069, "pitch": 44, "duration": 13, "velocity": 89}, {"time": 1072, "pitch": 51, "duration": 8, "velocity": 82}, {"time": 1075, "pitch": 56, "duration": 5, "velocity": 83}, {"time": 1078, "pitch": 63, "duration": 6, "velocity": 88}, {"time": 1081, "pitch": 51, "duration": 4, "velocity": 74}, {"time": 1084, "pitch": 60, "duration": 3, "velocity": 82}, {"time": 1087, "pitch": 56, "duration": 4, "velocity": 82}, {"time": 1090, "pitch": 63, "duration": 3, "velocity": 76}, {"time": 1093, "pitch": 41, "duration": 19, "velocity": 82}, {"time": 1096, "pitch": 48, "duration": 7, "velocity": 75}, {"time": 1099, "pitch": 53, "duration": 7, "velocity": 82}, {"time": 1102, "pitch": 56, "duration": 6, "velocity": 83}, {"time": 1105, "pitch": 48, "duration": 6, "velocity": 83}, {"time": 1108, "pitch": 53, "duration": 3, "velocity": 83}, {"time": 1111, "pitch": 56, "duration": 2, "velocity": 79}, {"time": 1117, "pitch": 43, "duration": 11, "velocity": 86}, {"time": 1117, "pitch": 55, "duration": 3, "velocity": 83}, {"time": 1117, "pitch": 60, "duration": 6, "velocity": 83}, {"time": 1123, "pitch": 55, "duration": 2, "velocity": 82}, {"time": 1126, "pitch": 55, "duration": 3, "velocity": 86}, {"time": 1126, "pitch": 60, "duration": 4, "velocity": 87}, {"time": 1129, "pitch": 43, "duration": 3, "velocity": 83}, {"time": 1132, "pitch": 55, "duration": 4, "velocity": 89}, {"time": 1135, "pitch": 60, "duration": 3, "velocity": 83}, {"time": 1138, "pitch": 55, "duration": 2, "velocity": 82}, {"time": 1141, "pitch": 43, "duration": 22, "velocity": 83}, {"time": 1141, "pitch": 55, "duration": 3, "velocity": 82}, {"time": 1141, "pitch": 59, "duration": 4, "velocity": 86}, {"time": 1144, "pitch": 50, "duration": 7, "velocity": 86}, {"time": 1147, "pitch": 55, "duration": 2, "velocity": 85}, {"time": 1150, "pitch": 62, "duration": 4, "velocity": 85}, {"time": 1153, "pitch": 50, "duration": 4, "velocity": 83}, {"time": 1156, "pitch": 55, "duration": 3, "velocity": 81}, {"time": 1156, "pitch": 62, "duration": 7, "velocity": 82}, {"time": 1156, "pitch": 67, "duration": 7, "velocity": 82}, {"time": 1159, "pitch": 50, "duration": 4, "velocity": 89}, {"time": 1162, "pitch": 55, "duration": 3, "velocity": 83}, {"time": 1165, "pitch": 48, "duration": 16, "velocity": 86}, {"time": 1165, "pitch": 60, "duration": 3, "velocity": 78}, {"time": 1165, "pitch": 67, "duration": 5, "velocity": 82}, {"time": 1168, "pitch": 55, "duration": 7, "velocity": 78}, {"time": 1171, "pitch": 60, "duration": 2, "velocity": 80}, {"time": 1174, "pitch": 63, "duration": 2, "velocity": 91}, {"time": 1177, "pitch": 55, "duration": 4, "velocity": 81}, {"time": 1180, "pitch": 60, "duration": 2, "velocity": 85}, {"time": 1183, "pitch": 63, "duration": 2, "velocity": 91}, {"time": 1186, "pitch": 60, "duration": 2, "velocity": 78}, {"time": 1189, "pitch": 46, "duration": 14, "velocity": 84}, {"time": 1189, "pitch": 62, "duration": 3, "velocity": 83}, {"time": 1192, "pitch": 53, "duration": 8, "velocity": 84}, {"time": 1195, "pitch": 58, "duration": 2, "velocity": 83}, {"time": 1198, "pitch": 58, "duration": 9, "velocity": 74}, {"time": 1198, "pitch": 62, "duration": 12, "velocity": 84}, {"time": 1207, "pitch": 53, "duration": 2, "velocity": 84}, {"time": 1210, "pitch": 58, "duration": 3, "velocity": 85}, {"time": 1213, "pitch": 43, "duration": 16, "velocity": 85}, {"time": 1216, "pitch": 50, "duration": 7, "velocity": 84}, {"time": 1219, "pitch": 55, "duration": 2, "velocity": 84}, {"time": 1222, "pitch": 55, "duration": 4, "velocity": 82}, {"time": 1222, "pitch": 58, "duration": 4, "velocity": 87}, {"time": 1225, "pitch": 50, "duration": 3, "velocity": 83}, {"time": 1228, "pitch": 55, "duration": 2, "velocity": 81}, {"time": 1228, "pitch": 58, "duration": 4, "velocity": 83}, {"time": 1228, "pitch": 62, "duration": 5, "velocity": 84}, {"time": 1231, "pitch": 43, "duration": 2, "velocity": 82}, {"time": 1234, "pitch": 55, "duration": 4, "velocity": 83}, {"time": 1237, "pitch": 48, "duration": 16, "velocity": 91}, {"time": 1237, "pitch": 55, "duration": 1, "velocity": 83}, {"time": 1237, "pitch": 63, "duration": 3, "velocity": 83}, {"time": 1240, "pitch": 55, "duration": 7, "velocity": 75}, {"time": 1243, "pitch": 60, "duration": 2, "velocity": 82}, {"time": 1246, "pitch": 60, "duration": 3, "velocity": 84}, {"time": 1246, "pitch": 63, "duration": 3, "velocity": 88}, {"time": 1249, "pitch": 55, "duration": 4, "velocity": 82}, {"time": 1252, "pitch": 60, "duration": 4, "velocity": 85}, {"time": 1252, "pitch": 63, "duration": 3, "velocity": 91}, {"time": 1258, "pitch": 62, "duration": 3, "velocity": 82}, {"time": 1261, "pitch": 44, "duration": 11, "velocity": 93}, {"time": 1261, "pitch": 60, "duration": 2, "velocity": 83}, {"time": 1264, "pitch": 51, "duration": 7, "velocity": 71}, {"time": 1267, "pitch": 56, "duration": 2, "velocity": 83}, {"time": 1270, "pitch": 56, "duration": 3, "velocity": 84}, {"time": 1270, "pitch": 60, "duration": 4, "velocity": 89}, {"time": 1273, "pitch": 51, "duration": 3, "velocity": 82}, {"time": 1276, "pitch": 56, "duration": 2, "velocity": 83}, {"time": 1276, "pitch": 60, "duration": 7, "velocity": 84}, {"time": 1282, "pitch": 56, "duration": 2, "velocity": 83}, {"time": 1285, "pitch": 41, "duration": 19, "velocity": 84}, {"time": 1288, "pitch": 48, "duration": 7, "velocity": 72}, {"time": 1291, "pitch": 53, "duration": 4, "velocity": 83}, {"time": 1294, "pitch": 60, "duration": 6, "velocity": 83}, {"time": 1297, "pitch": 48, "duration": 5, "velocity": 86}, {"time": 1300, "pitch": 53, "duration": 3, "velocity": 83}, {"time": 1303, "pitch": 60, "duration": 4, "velocity": 83}, {"time": 1306, "pitch": 53, "duration": 2, "velocity": 83}, {"time": 1309, "pitch": 43, "duration": 21, "velocity": 83}, {"time": 1312, "pitch": 50, "duration": 7, "velocity": 78}, {"time": 1315, "pitch": 55, "duration": 2, "velocity": 84}, {"time": 1318, "pitch": 55, "duration": 3, "velocity": 84}, {"time": 1318, "pitch": 62, "duration": 6, "velocity": 84}, {"time": 1321, "pitch": 50, "duration": 5, "velocity": 83}, {"time": 1324, "pitch": 55, "duration": 3, "velocity": 85}, {"time": 1327, "pitch": 62, "duration": 3, "velocity": 75}, {"time": 1330, "pitch": 55, "duration": 1, "velocity": 56}, {"time": 1331, "pitch": 55, "duration": 3, "velocity": 71}, {"time": 1332, "pitch": 60, "duration": 8, "velocity": 76}, {"time": 1333, "pitch": 36, "duration": 7, "velocity": 81}, {"time": 1333, "pitch": 63, "duration": 13, "velocity": 76}, {"time": 1339, "pitch": 55, "duration": 8, "velocity": 73}, {"time": 1345, "pitch": 60, "duration": 2, "velocity": 72}, {"time": 1354, "pitch": 56, "duration": 15, "velocity": 68}, {"time": 1356, "pitch": 60, "duration": 14, "velocity": 76}, {"time": 1356, "pitch": 44, "duration": 17, "velocity": 68}, {"time": 1357, "pitch": 63, "duration": 12, "velocity": 58}, {"time": 1378, "pitch": 56, "duration": 2, "velocity": 61}, {"time": 1380, "pitch": 63, "duration": 1, "velocity": 66}, {"time": 1381, "pitch": 68, "duration": 1, "velocity": 76}, {"time": 1403, "pitch": 55, "duration": 8, "velocity": 52}, {"time": 1404, "pitch": 58, "duration": 7, "velocity": 64}, {"time": 1404, "pitch": 43, "duration": 10, "velocity": 77}, {"time": 1404, "pitch": 62, "duration": 9, "velocity": 75}, {"time": 1427, "pitch": 60, "duration": 2, "velocity": 61}, {"time": 1427, "pitch": 63, "duration": 2, "velocity": 70}, {"time": 1428, "pitch": 55, "duration": 11, "velocity": 57}, {"time": 1428, "pitch": 67, "duration": 6, "velocity": 73}, {"time": 1440, "pitch": 63, "duration": 1, "velocity": 75}, {"time": 1450, "pitch": 53, "duration": 17, "velocity": 61}, {"time": 1451, "pitch": 56, "duration": 16, "velocity": 71}, {"time": 1452, "pitch": 41, "duration": 16, "velocity": 67}, {"time": 1452, "pitch": 60, "duration": 16, "velocity": 75}, {"time": 1476, "pitch": 50, "duration": 5, "velocity": 71}, {"time": 1476, "pitch": 38, "duration": 14, "velocity": 85}, {"time": 1476, "pitch": 54, "duration": 7, "velocity": 75}, {"time": 1482, "pitch": 50, "duration": 7, "velocity": 80}, {"time": 1489, "pitch": 57, "duration": 2, "velocity": 82}, {"time": 1501, "pitch": 55, "duration": 4, "velocity": 78}, {"time": 1501, "pitch": 59, "duration": 4, "velocity": 78}, {"time": 1501, "pitch": 43, "duration": 15, "velocity": 82}, {"time": 1507, "pitch": 55, "duration": 4, "velocity": 84}, {"time": 1513, "pitch": 60, "duration": 5, "velocity": 89}, {"time": 1513, "pitch": 55, "duration": 3, "velocity": 89}, {"time": 1519, "pitch": 50, "duration": 2, "velocity": 83}, {"time": 1525, "pitch": 43, "duration": 8, "velocity": 88}, {"time": 1525, "pitch": 59, "duration": 4, "velocity": 82}, {"time": 1525, "pitch": 55, "duration": 5, "velocity": 82}, {"time": 1531, "pitch": 62, "duration": 2, "velocity": 85}, {"time": 1536, "pitch": 67, "duration": 7, "velocity": 82}, {"time": 1536, "pitch": 59, "duration": 4, "velocity": 85}, {"time": 1536, "pitch": 62, "duration": 5, "velocity": 83}, {"time": 1536, "pitch": 55, "duration": 4, "velocity": 82}, {"time": 1537, "pitch": 43, "duration": 4, "velocity": 85}, {"time": 1537, "pitch": 50, "duration": 4, "velocity": 86}, {"time": 1543, "pitch": 43, "duration": 2, "velocity": 84}, {"time": 1549, "pitch": 41, "duration": 20, "velocity": 86}, {"time": 1549, "pitch": 53, "duration": 10, "velocity": 77}, {"time": 1549, "pitch": 60, "duration": 10, "velocity": 81}, {"time": 1555, "pitch": 48, "duration": 4, "velocity": 82}, {"time": 1558, "pitch": 56, "duration": 6, "velocity": 89}, {"time": 1561, "pitch": 48, "duration": 5, "velocity": 84}, {"time": 1564, "pitch": 53, "duration": 4, "velocity": 83}, {"time": 1567, "pitch": 56, "duration": 3, "velocity": 87}, {"time": 1570, "pitch": 53, "duration": 3, "velocity": 80}, {"time": 1573, "pitch": 46, "duration": 10, "velocity": 96}, {"time": 1573, "pitch": 58, "duration": 6, "velocity": 89}, {"time": 1576, "pitch": 50, "duration": 8, "velocity": 70}, {"time": 1579, "pitch": 53, "duration": 4, "velocity": 87}, {"time": 1582, "pitch": 58, "duration": 5, "velocity": 96}, {"time": 1585, "pitch": 50, "duration": 4, "velocity": 77}, {"time": 1588, "pitch": 62, "duration": 4, "velocity": 85}, {"time": 1591, "pitch": 58, "duration": 4, "velocity": 81}, {"time": 1594, "pitch": 53, "duration": 3, "velocity": 80}, {"time": 1597, "pitch": 39, "duration": 14, "velocity": 91}, {"time": 1600, "pitch": 46, "duration": 11, "velocity": 78}, {"time": 1603, "pitch": 55, "duration": 6, "velocity": 84}, {"time": 1606, "pitch": 58, "duration": 3, "velocity": 91}, {"time": 1609, "pitch": 63, "duration": 4, "velocity": 89}, {"time": 1612, "pitch": 58, "duration": 2, "velocity": 89}, {"time": 1615, "pitch": 55, "duration": 4, "velocity": 85}, {"time": 1618, "pitch": 58, "duration": 2, "velocity": 86}, {"time": 1621, "pitch": 44, "duration": 13, "velocity": 93}, {"time": 1624, "pitch": 51, "duration": 9, "velocity": 81}, {"time": 1627, "pitch": 56, "duration": 7, "velocity": 85}, {"time": 1630, "pitch": 60, "duration": 4, "velocity": 80}, {"time": 1633, "pitch": 63, "duration": 4, "velocity": 84}, {"time": 1636, "pitch": 68, "duration": 6, "velocity": 87}, {"time": 1639, "pitch": 56, "duration": 4, "velocity": 85}, {"time": 1642, "pitch": 60, "duration": 3, "velocity": 80}, {"time": 1645, "pitch": 41, "duration": 20, "velocity": 85}, {"time": 1648, "pitch": 48, "duration": 16, "velocity": 84}, {"time": 1651, "pitch": 56, "duration": 3, "velocity": 89}, {"time": 1654, "pitch": 53, "duration": 3, "velocity": 84}, {"time": 1657, "pitch": 60, "duration": 3, "velocity": 85}, {"time": 1660, "pitch": 53, "duration": 4, "velocity": 85}, {"time": 1663, "pitch": 56, "duration": 4, "velocity": 86}, {"time": 1666, "pitch": 53, "duration": 2, "velocity": 85}, {"time": 1669, "pitch": 44, "duration": 14, "velocity": 91}, {"time": 1672, "pitch": 51, "duration": 11, "velocity": 82}, {"time": 1675, "pitch": 56, "duration": 7, "velocity": 85}, {"time": 1678, "pitch": 60, "duration": 4, "velocity": 80}, {"time": 1681, "pitch": 63, "duration": 3, "velocity": 82}, {"time": 1684, "pitch": 68, "duration": 5, "velocity": 84}, {"time": 1687, "pitch": 56, "duration": 4, "velocity": 89}, {"time": 1690, "pitch": 60, "duration": 2, "velocity": 80}, {"time": 1693, "pitch": 43, "duration": 22, "velocity": 84}, {"time": 1696, "pitch": 50, "duration": 18, "velocity": 84}, {"time": 1699, "pitch": 55, "duration": 4, "velocity": 86}, {"time": 1702, "pitch": 62, "duration": 4, "velocity": 81}, {"time": 1705, "pitch": 67, "duration": 4, "velocity": 86}, {"time": 1708, "pitch": 62, "duration": 4, "velocity": 84}, {"time": 1711, "pitch": 55, "duration": 4, "velocity": 86}, {"time": 1714, "pitch": 62, "duration": 2, "velocity": 75}, {"time": 1717, "pitch": 43, "duration": 12, "velocity": 83}, {"time": 1717, "pitch": 55, "duration": 17, "velocity": 74}, {"time": 1717, "pitch": 59, "duration": 17, "velocity": 71}, {"time": 1741, "pitch": 48, "duration": 35, "velocity": 83}, {"time": 1741, "pitch": 63, "duration": 12, "velocity": 82}, {"time": 1747, "pitch": 55, "duration": 8, "velocity": 65}, {"time": 1753, "pitch": 60, "duration": 8, "velocity": 72}, {"time": 1759, "pitch": 55, "duration": 16, "velocity": 57}, {"time": 1765, "pitch": 67, "duration": 11, "velocity": 63}, {"time": 1789, "pitch": 46, "duration": 22, "velocity": 72}, {"time": 1789, "pitch": 62, "duration": 13, "velocity": 72}, {"time": 1795, "pitch": 53, "duration": 9, "velocity": 66}, {"time": 1801, "pitch": 58, "duration": 24, "velocity": 69}, {"time": 1807, "pitch": 53, "duration": 4, "velocity": 70}, {"time": 1813, "pitch": 65, "duration": 15, "velocity": 77}, {"time": 1837, "pitch": 44, "duration": 32, "velocity": 84}, {"time": 1837, "pitch": 60, "duration": 13, "velocity": 76}, {"time": 1843, "pitch": 51, "duration": 26, "velocity": 56}, {"time": 1849, "pitch": 56, "duration": 7, "velocity": 69}, {"time": 1855, "pitch": 60, "duration": 7, "velocity": 74}, {"time": 1861, "pitch": 63, "duration": 5, "velocity": 74}, {"time": 1885, "pitch": 39, "duration": 36, "velocity": 71}, {"time": 1885, "pitch": 58, "duration": 12, "velocity": 64}, {"time": 1891, "pitch": 46, "duration": 30, "velocity": 70}, {"time": 1897, "pitch": 55, "duration": 8, "velocity": 83}, {"time": 1903, "pitch": 58, "duration": 6, "velocity": 88}, {"time": 1909, "pitch": 63, "duration": 7, "velocity": 86}, {"time": 1915, "pitch": 55, "duration": 7, "velocity": 80}, {"time": 1921, "pitch": 58, "duration": 2, "velocity": 74}, {"time": 1933, "pitch": 41, "duration": 41, "velocity": 82}, {"time": 1933, "pitch": 53, "duration": 7, "velocity": 73}, {"time": 1933, "pitch": 60, "duration": 12, "velocity": 78}, {"time": 1939, "pitch": 48, "duration": 9, "velocity": 65}, {"time": 1945, "pitch": 56, "duration": 8, "velocity": 85}, {"time": 1951, "pitch": 48, "duration": 24, "velocity": 71}, {"time": 1957, "pitch": 60, "duration": 14, "velocity": 77}, {"time": 1963, "pitch": 53, "duration": 7, "velocity": 64}, {"time": 1969, "pitch": 65, "duration": 4, "velocity": 77}, {"time": 1981, "pitch": 43, "duration": 22, "velocity": 83}, {"time": 1987, "pitch": 50, "duration": 16, "velocity": 67}, {"time": 1993, "pitch": 55, "duration": 3, "velocity": 78}, {"time": 1993, "pitch": 58, "duration": 7, "velocity": 82}, {"time": 1999, "pitch": 55, "duration": 7, "velocity": 85}, {"time": 2005, "pitch": 48, "duration": 13, "velocity": 82}, {"time": 2005, "pitch": 60, "duration": 12, "velocity": 80}, {"time": 2011, "pitch": 55, "duration": 7, "velocity": 82}, {"time": 2017, "pitch": 63, "duration": 2, "velocity": 82}, {"time": 2023, "pitch": 62, "duration": 6, "velocity": 82}, {"time": 2029, "pitch": 44, "duration": 39, "velocity": 83}, {"time": 2029, "pitch": 60, "duration": 13, "velocity": 80}, {"time": 2035, "pitch": 51, "duration": 33, "velocity": 60}, {"time": 2041, "pitch": 56, "duration": 7, "velocity": 84}, {"time": 2047, "pitch": 60, "duration": 5, "velocity": 82}, {"time": 2059, "pitch": 56, "duration": 2, "velocity": 65}, {"time": 2065, "pitch": 56, "duration": 2, "velocity": 83}, {"time": 2065, "pitch": 60, "duration": 3, "velocity": 83}, {"time": 2077, "pitch": 43, "duration": 21, "velocity": 82}, {"time": 2077, "pitch": 55, "duration": 9, "velocity": 75}, {"time": 2077, "pitch": 60, "duration": 9, "velocity": 76}, {"time": 2083, "pitch": 50, "duration": 14, "velocity": 77}, {"time": 2089, "pitch": 62, "duration": 7, "velocity": 80}, {"time": 2095, "pitch": 60, "duration": 6, "velocity": 82}, {"time": 2101, "pitch": 43, "duration": 21, "velocity": 79}, {"time": 2101, "pitch": 55, "duration": 11, "velocity": 74}, {"time": 2101, "pitch": 59, "duration": 8, "velocity": 75}, {"time": 2107, "pitch": 50, "duration": 15, "velocity": 72}, {"time": 2107, "pitch": 62, "duration": 6, "velocity": 78}, {"time": 2113, "pitch": 67, "duration": 10, "velocity": 84}, {"time": 2119, "pitch": 55, "duration": 6, "velocity": 83}, {"time": 2125, "pitch": 48, "duration": 38, "velocity": 85}, {"time": 2125, "pitch": 60, "duration": 7, "velocity": 77}, {"time": 2125, "pitch": 63, "duration": 10, "velocity": 73}, {"time": 2131, "pitch": 55, "duration": 6, "velocity": 69}, {"time": 2137, "pitch": 60, "duration": 7, "velocity": 84}, {"time": 2143, "pitch": 55, "duration": 8, "velocity": 70}, {"time": 2149, "pitch": 60, "duration": 6, "velocity": 78}, {"time": 2149, "pitch": 67, "duration": 6, "velocity": 81}, {"time": 2155, "pitch": 55, "duration": 7, "velocity": 61}, {"time": 2161, "pitch": 60, "duration": 2, "velocity": 75}, {"time": 2161, "pitch": 63, "duration": 2, "velocity": 74}, {"time": 2173, "pitch": 43, "duration": 38, "velocity": 79}, {"time": 2173, "pitch": 55, "duration": 9, "velocity": 74}, {"time": 2173, "pitch": 62, "duration": 10, "velocity": 78}, {"time": 2179, "pitch": 50, "duration": 6, "velocity": 63}, {"time": 2185, "pitch": 58, "duration": 5, "velocity": 79}, {"time": 2191, "pitch": 50, "duration": 7, "velocity": 70}, {"time": 2197, "pitch": 55, "duration": 7, "velocity": 78}, {"time": 2197, "pitch": 62, "duration": 6, "velocity": 77}, {"time": 2203, "pitch": 50, "duration": 8, "velocity": 72}, {"time": 2209, "pitch": 55, "duration": 5, "velocity": 76}, {"time": 2209, "pitch": 58, "duration": 4, "velocity": 82}, {"time": 2215, "pitch": 43, "duration": 2, "velocity": 82}, {"time": 2221, "pitch": 44, "duration": 15, "velocity": 76}, {"time": 2221, "pitch": 60, "duration": 9, "velocity": 77}, {"time": 2227, "pitch": 51, "duration": 8, "velocity": 60}, {"time": 2233, "pitch": 56, "duration": 15, "velocity": 80}, {"time": 2233, "pitch": 60, "duration": 21, "velocity": 83}, {"time": 2239, "pitch": 51, "duration": 6, "velocity": 70}, {"time": 2245, "pitch": 44, "duration": 15, "velocity": 78}, {"time": 2251, "pitch": 51, "duration": 7, "velocity": 70}, {"time": 2257, "pitch": 56, "duration": 2, "velocity": 82}, {"time": 2257, "pitch": 60, "duration": 3, "velocity": 83}, {"time": 2269, "pitch": 39, "duration": 36, "velocity": 82}, {"time": 2269, "pitch": 55, "duration": 11, "velocity": 74}, {"time": 2269, "pitch": 58, "duration": 9, "velocity": 68}, {"time": 2275, "pitch": 46, "duration": 30, "velocity": 66}, {"time": 2281, "pitch": 58, "duration": 6, "velocity": 86}, {"time": 2287, "pitch": 55, "duration": 7, "velocity": 82}, {"time": 2293, "pitch": 63, "duration": 9, "velocity": 75}, {"time": 2299, "pitch": 55, "duration": 2, "velocity": 77}, {"time": 2305, "pitch": 55, "duration": 4, "velocity": 84}, {"time": 2305, "pitch": 58, "duration": 3, "velocity": 84}, {"time": 2317, "pitch": 44, "duration": 38, "velocity": 80}, {"time": 2317, "pitch": 56, "duration": 12, "velocity": 71}, {"time": 2317, "pitch": 63, "duration": 10, "velocity": 75}, {"time": 2323, "pitch": 51, "duration": 8, "velocity": 66}, {"time": 2329, "pitch": 60, "duration": 6, "velocity": 76}, {"time": 2335, "pitch": 51, "duration": 8, "velocity": 59}, {"time": 2341, "pitch": 56, "duration": 8, "velocity": 74}, {"time": 2341, "pitch": 63, "duration": 8, "velocity": 71}, {"time": 2347, "pitch": 51, "duration": 8, "velocity": 60}, {"time": 2353, "pitch": 56, "duration": 3, "velocity": 71}, {"time": 2353, "pitch": 60, "duration": 4, "velocity": 78}, {"time": 2365, "pitch": 43, "duration": 18, "velocity": 82}, {"time": 2365, "pitch": 55, "duration": 9, "velocity": 72}, {"time": 2365, "pitch": 58, "duration": 9, "velocity": 71}, {"time": 2371, "pitch": 50, "duration": 10, "velocity": 69}, {"time": 2377, "pitch": 58, "duration": 6, "velocity": 82}, {"time": 2377, "pitch": 62, "duration": 7, "velocity": 78}, {"time": 2383, "pitch": 55, "duration": 7, "velocity": 87}, {"time": 2389, "pitch": 48, "duration": 11, "velocity": 82}, {"time": 2389, "pitch": 60, "duration": 8, "velocity": 82}, {"time": 2395, "pitch": 55, "duration": 7, "velocity": 79}, {"time": 2401, "pitch": 60, "duration": 2, "velocity": 83}, {"time": 2401, "pitch": 63, "duration": 2, "velocity": 84}, {"time": 2407, "pitch": 62, "duration": 6, "velocity": 80}, {"time": 2413, "pitch": 41, "duration": 19, "velocity": 82}, {"time": 2413, "pitch": 60, "duration": 6, "velocity": 77}, {"time": 2419, "pitch": 48, "duration": 9, "velocity": 70}, {"time": 2425, "pitch": 53, "duration": 3, "velocity": 74}, {"time": 2425, "pitch": 56, "duration": 4, "velocity": 77}, {"time": 2437, "pitch": 41, "duration": 15, "velocity": 83}, {"time": 2437, "pitch": 53, "duration": 2, "velocity": 72}, {"time": 2437, "pitch": 56, "duration": 1, "velocity": 70}, {"time": 2437, "pitch": 60, "duration": 3, "velocity": 76}, {"time": 2443, "pitch": 48, "duration": 8, "velocity": 72}, {"time": 2449, "pitch": 60, "duration": 4, "velocity": 82}, {"time": 2449, "pitch": 65, "duration": 6, "velocity": 82}, {"time": 2461, "pitch": 43, "duration": 22, "velocity": 87}, {"time": 2461, "pitch": 55, "duration": 7, "velocity": 83}, {"time": 2461, "pitch": 60, "duration": 8, "velocity": 83}, {"time": 2467, "pitch": 50, "duration": 7, "velocity": 78}, {"time": 2470, "pitch": 55, "duration": 4, "velocity": 84}, {"time": 2473, "pitch": 60, "duration": 3, "velocity": 89}, {"time": 2476, "pitch": 50, "duration": 7, "velocity": 80}, {"time": 2479, "pitch": 55, "duration": 3, "velocity": 87}, {"time": 2482, "pitch": 60, "duration": 1, "velocity": 89}, {"time": 2485, "pitch": 43, "duration": 23, "velocity": 83}, {"time": 2485, "pitch": 55, "duration": 3, "velocity": 84}, {"time": 2485, "pitch": 59, "duration": 4, "velocity": 93}, {"time": 2488, "pitch": 50, "duration": 7, "velocity": 85}, {"time": 2491, "pitch": 55, "duration": 5, "velocity": 84}, {"time": 2497, "pitch": 50, "duration": 4, "velocity": 91}, {"time": 2497, "pitch": 62, "duration": 5, "velocity": 87}, {"time": 2500, "pitch": 55, "duration": 3, "velocity": 83}, {"time": 2500, "pitch": 67, "duration": 8, "velocity": 83}, {"time": 2503, "pitch": 50, "duration": 4, "velocity": 84}, {"time": 2506, "pitch": 55, "duration": 3, "velocity": 80}, {"time": 2509, "pitch": 48, "duration": 16, "velocity": 84}, {"time": 2509, "pitch": 60, "duration": 8, "velocity": 76}, {"time": 2509, "pitch": 67, "duration": 8, "velocity": 78}, {"time": 2515, "pitch": 55, "duration": 7, "velocity": 80}, {"time": 2521, "pitch": 60, "duration": 3, "velocity": 81}, {"time": 2521, "pitch": 63, "duration": 6, "velocity": 85}, {"time": 2524, "pitch": 55, "duration": 2, "velocity": 80}, {"time": 2527, "pitch": 60, "duration": 3, "velocity": 83}, {"time": 2530, "pitch": 63, "duration": 3, "velocity": 87}, {"time": 2533, "pitch": 46, "duration": 15, "velocity": 79}, {"time": 2533, "pitch": 62, "duration": 6, "velocity": 86}, {"time": 2539, "pitch": 53, "duration": 8, "velocity": 81}, {"time": 2545, "pitch": 58, "duration": 6, "velocity": 86}, {"time": 2545, "pitch": 62, "duration": 6, "velocity": 83}, {"time": 2557, "pitch": 46, "duration": 17, "velocity": 85}, {"time": 2557, "pitch": 58, "duration": 6, "velocity": 70}, {"time": 2557, "pitch": 62, "duration": 7, "velocity": 78}, {"time": 2563, "pitch": 53, "duration": 7, "velocity": 65}, {"time": 2566, "pitch": 58, "duration": 3, "velocity": 83}, {"time": 2569, "pitch": 65, "duration": 7, "velocity": 84}, {"time": 2572, "pitch": 53, "duration": 2, "velocity": 82}, {"time": 2575, "pitch": 58, "duration": 2, "velocity": 78}, {"time": 2581, "pitch": 39, "duration": 13, "velocity": 89}, {"time": 2581, "pitch": 55, "duration": 6, "velocity": 71}, {"time": 2581, "pitch": 58, "duration": 7, "velocity": 75}, {"time": 2581, "pitch": 63, "duration": 7, "velocity": 76}, {"time": 2587, "pitch": 46, "duration": 7, "velocity": 72}, {"time": 2593, "pitch": 58, "duration": 6, "velocity": 93}, {"time": 2593, "pitch": 63, "duration": 2, "velocity": 82}, {"time": 2596, "pitch": 46, "duration": 2, "velocity": 83}, {"time": 2599, "pitch": 55, "duration": 4, "velocity": 84}, {"time": 2602, "pitch": 58, "duration": 3, "velocity": 84}, {"time": 2605, "pitch": 44, "duration": 13, "velocity": 89}, {"time": 2608, "pitch": 51, "duration": 8, "velocity": 82}, {"time": 2611, "pitch": 56, "duration": 5, "velocity": 83}, {"time": 2614, "pitch": 63, "duration": 6, "velocity": 88}, {"time": 2617, "pitch": 51, "duration": 4, "velocity": 74}, {"time": 2620, "pitch": 60, "duration": 3, "velocity": 82}, {"time": 2623, "pitch": 56, "duration": 4, "velocity": 82}, {"time": 2626, "pitch": 63, "duration": 3, "velocity": 76}, {"time": 2629, "pitch": 41, "duration": 19, "velocity": 82}, {"time": 2632, "pitch": 48, "duration": 7, "velocity": 75}, {"time": 2635, "pitch": 53, "duration": 7, "velocity": 82}, {"time": 2638, "pitch": 56, "duration": 6, "velocity": 83}, {"time": 2641, "pitch": 48, "duration": 6, "velocity": 83}, {"time": 2644, "pitch": 53, "duration": 3, "velocity": 83}, {"time": 2647, "pitch": 56, "duration": 2, "velocity": 79}, {"time": 2653, "pitch": 43, "duration": 11, "velocity": 86}, {"time": 2653, "pitch": 55, "duration": 3, "velocity": 83}, {"time": 2653, "pitch": 60, "duration": 6, "velocity": 83}, {"time": 2659, "pitch": 55, "duration": 2, "velocity": 82}, {"time": 2662, "pitch": 55, "duration": 3, "velocity": 86}, {"time": 2662, "pitch": 60, "duration": 4, "velocity": 87}, {"time": 2665, "pitch": 43, "duration": 3, "velocity": 83}, {"time": 2668, "pitch": 55, "duration": 4, "velocity": 89}, {"time": 2671, "pitch": 60, "duration": 3, "velocity": 83}, {"time": 2674, "pitch": 55, "duration": 2, "velocity": 82}, {"time": 2677, "pitch": 43, "duration": 22, "velocity": 83}, {"time": 2677, "pitch": 55, "duration": 3, "velocity": 82}, {"time": 2677, "pitch": 59, "duration": 4, "velocity": 86}, {"time": 2680, "pitch": 50, "duration": 7, "velocity": 86}, {"time": 2683, "pitch": 55, "duration": 2, "velocity": 85}, {"time": 2686, "pitch": 62, "duration": 4, "velocity": 85}, {"time": 2689, "pitch": 50, "duration": 4, "velocity": 83}, {"time": 2692, "pitch": 55, "duration": 3, "velocity": 81}, {"time": 2692, "pitch": 62, "duration": 7, "velocity": 82}, {"time": 2692, "pitch": 67, "duration": 7, "velocity": 82}, {"time": 2695, "pitch": 50, "duration": 4, "velocity": 89}, {"time": 2698, "pitch": 55, "duration": 3, "velocity": 83}, {"time": 2701, "pitch": 48, "duration": 16, "velocity": 86}, {"time": 2701, "pitch": 60, "duration": 3, "velocity": 78}, {"time": 2701, "pitch": 67, "duration": 5, "velocity": 82}, {"time": 2704, "pitch": 55, "duration": 7, "velocity": 78}, {"time": 2707, "pitch": 60, "duration": 2, "velocity": 80}, {"time": 2710, "pitch": 63, "duration": 2, "velocity": 91}, {"time": 2713, "pitch": 55, "duration": 4, "velocity": 81}, {"time": 2716, "pitch": 60, "duration": 2, "velocity": 85}, {"time": 2719, "pitch": 63, "duration": 2, "velocity": 91}, {"time": 2722, "pitch": 60, "duration": 2, "velocity": 78}, {"time": 2725, "pitch": 46, "duration": 14, "velocity": 84}, {"time": 2725, "pitch": 62, "duration": 3, "velocity": 83}, {"time": 2728, "pitch": 53, "duration": 8, "velocity": 84}, {"time": 2731, "pitch": 58, "duration": 2, "velocity": 83}, {"time": 2734, "pitch": 58, "duration": 9, "velocity": 74}, {"time": 2734, "pitch": 62, "duration": 12, "velocity": 84}, {"time": 2743, "pitch": 53, "duration": 2, "velocity": 84}, {"time": 2746, "pitch": 58, "duration": 3, "velocity": 85}, {"time": 2749, "pitch": 43, "duration": 16, "velocity": 85}, {"time": 2752, "pitch": 50, "duration": 7, "velocity": 84}, {"time": 2755, "pitch": 55, "duration": 2, "velocity": 84}, {"time": 2758, "pitch": 55, "duration": 4, "velocity": 82}, {"time": 2758, "pitch": 58, "duration": 4, "velocity": 87}, {"time": 2761, "pitch": 50, "duration": 3, "velocity": 83}, {"time": 2764, "pitch": 55, "duration": 2, "velocity": 81}, {"time": 2764, "pitch": 58, "duration": 4, "velocity": 83}, {"time": 2764, "pitch": 62, "duration": 5, "velocity": 84}, {"time": 2767, "pitch": 43, "duration": 2, "velocity": 82}, {"time": 2770, "pitch": 55, "duration": 4, "velocity": 83}, {"time": 2773, "pitch": 48, "duration": 16, "velocity": 91}, {"time": 2773, "pitch": 55, "duration": 1, "velocity": 83}, {"time": 2773, "pitch": 63, "duration": 3, "velocity": 83}, {"time": 2776, "pitch": 55, "duration": 7, "velocity": 75}, {"time": 2779, "pitch": 60, "duration": 2, "velocity": 82}, {"time": 2782, "pitch": 60, "duration": 3, "velocity": 84}, {"time": 2782, "pitch": 63, "duration": 3, "velocity": 88}, {"time": 2785, "pitch": 55, "duration": 4, "velocity": 82}, {"time": 2788, "pitch": 60, "duration": 4, "velocity": 85}, {"time": 2788, "pitch": 63, "duration": 3, "velocity": 91}, {"time": 2794, "pitch": 62, "duration": 3, "velocity": 82}, {"time": 2797, "pitch": 44, "duration": 11, "velocity": 93}, {"time": 2797, "pitch": 60, "duration": 2, "velocity": 83}, {"time": 2800, "pitch": 51, "duration": 7, "velocity": 71}, {"time": 2803, "pitch": 56, "duration": 2, "velocity": 83}, {"time": 2806, "pitch": 56, "duration": 3, "velocity": 84}, {"time": 2806, "pitch": 60, "duration": 4, "velocity": 89}, {"time": 2809, "pitch": 51, "duration": 3, "velocity": 82}, {"time": 2812, "pitch": 56, "duration": 2, "velocity": 83}, {"time": 2812, "pitch": 60, "duration": 7, "velocity": 84}, {"time": 2818, "pitch": 56, "duration": 2, "velocity": 83}, {"time": 2821, "pitch": 41, "duration": 19, "velocity": 84}, {"time": 2824, "pitch": 48, "duration": 7, "velocity": 72}, {"time": 2827, "pitch": 53, "duration": 4, "velocity": 83}, {"time": 2830, "pitch": 60, "duration": 6, "velocity": 83}, {"time": 2833, "pitch": 48, "duration": 5, "velocity": 86}, {"time": 2836, "pitch": 53, "duration": 3, "velocity": 83}, {"time": 2839, "pitch": 60, "duration": 4, "velocity": 83}, {"time": 2842, "pitch": 53, "duration": 2, "velocity": 83}, {"time": 2845, "pitch": 43, "duration": 21, "velocity": 83}, {"time": 2848, "pitch": 50, "duration": 7, "velocity": 78}, {"time": 2851, "pitch": 55, "duration": 2, "velocity": 84}, {"time": 2854, "pitch": 55, "duration": 3, "velocity": 84}, {"time": 2854, "pitch": 62, "duration": 6, "velocity": 84}, {"time": 2857, "pitch": 50, "duration": 5, "velocity": 83}, {"time": 2860, "pitch": 55, "duration": 3, "velocity": 85}, {"time": 2863, "pitch": 62, "duration": 3, "velocity": 75}, {"time": 2866, "pitch": 55, "duration": 1, "velocity": 56}, {"time": 2867, "pitch": 55, "duration": 3, "velocity": 71}, {"time": 2868, "pitch": 60, "duration": 6, "velocity": 76}, {"time": 2869, "pitch": 36, "duration": 21, "velocity": 81}, {"time": 2869, "pitch": 63, "duration": 6, "velocity": 76}, {"time": 2872, "pitch": 55, "duration": 4, "velocity": 75}, {"time": 2875, "pitch": 60, "duration": 4, "velocity": 81}, {"time": 2878, "pitch": 62, "duration": 5, "velocity": 78}, {"time": 2881, "pitch": 48, "duration": 10, "velocity": 84}, {"time": 2881, "pitch": 63, "duration": 6, "velocity": 96}, {"time": 2887, "pitch": 67, "duration": 5, "velocity": 82}, {"time": 2887, "pitch": 72, "duration": 6, "velocity": 84}, {"time": 2893, "pitch": 44, "duration": 18, "velocity": 89}, {"time": 2893, "pitch": 56, "duration": 4, "velocity": 77}, {"time": 2893, "pitch": 63, "duration": 6, "velocity": 75}, {"time": 2896, "pitch": 51, "duration": 15, "velocity": 82}, {"time": 2899, "pitch": 56, "duration": 7, "velocity": 85}, {"time": 2902, "pitch": 60, "duration": 4, "velocity": 82}, {"time": 2905, "pitch": 63, "duration": 3, "velocity": 84}, {"time": 2908, "pitch": 68, "duration": 4, "velocity": 85}, {"time": 2911, "pitch": 56, "duration": 5, "velocity": 86}, {"time": 2914, "pitch": 60, "duration": 3, "velocity": 81}, {"time": 2917, "pitch": 43, "duration": 16, "velocity": 84}, {"time": 2920, "pitch": 50, "duration": 9, "velocity": 81}, {"time": 2923, "pitch": 55, "duration": 5, "velocity": 89}, {"time": 2926, "pitch": 58, "duration": 1, "velocity": 89}, {"time": 2929, "pitch": 55, "duration": 3, "velocity": 83}, {"time": 2929, "pitch": 58, "duration": 4, "velocity": 84}, {"time": 2929, "pitch": 62, "duration": 6, "velocity": 87}, {"time": 2932, "pitch": 50, "duration": 2, "velocity": 86}, {"time": 2935, "pitch": 55, "duration": 3, "velocity": 87}, {"time": 2941, "pitch": 44, "duration": 11, "velocity": 99}, {"time": 2941, "pitch": 56, "duration": 4, "velocity": 84}, {"time": 2941, "pitch": 60, "duration": 4, "velocity": 76}, {"time": 2941, "pitch": 63, "duration": 4, "velocity": 83}, {"time": 2944, "pitch": 51, "duration": 7, "velocity": 82}, {"time": 2947, "pitch": 56, "duration": 4, "velocity": 88}, {"time": 2950, "pitch": 60, "duration": 1, "velocity": 83}, {"time": 2950, "pitch": 63, "duration": 2, "velocity": 87}, {"time": 2953, "pitch": 51, "duration": 2, "velocity": 84}, {"time": 2956, "pitch": 56, "duration": 2, "velocity": 86}, {"time": 2956, "pitch": 60, "duration": 3, "velocity": 86}, {"time": 2956, "pitch": 63, "duration": 3, "velocity": 87}, {"time": 2956, "pitch": 68, "duration": 6, "velocity": 83}, {"time": 2959, "pitch": 44, "duration": 1, "velocity": 91}, {"time": 2962, "pitch": 56, "duration": 2, "velocity": 89}, {"time": 2965, "pitch": 43, "duration": 5, "velocity": 84}, {"time": 2971, "pitch": 43, "duration": 2, "velocity": 82}, {"time": 2971, "pitch": 50, "duration": 1, "velocity": 85}, {"time": 2971, "pitch": 55, "duration": 3, "velocity": 83}, {"time": 2971, "pitch": 59, "duration": 4, "velocity": 83}, {"time": 2977, "pitch": 43, "duration": 12, "velocity": 86}, {"time": 2977, "pitch": 50, "duration": 12, "velocity": 89}, {"time": 2977, "pitch": 55, "duration": 3, "velocity": 78}, {"time": 2977, "pitch": 59, "duration": 4, "velocity": 82}, {"time": 2977, "pitch": 62, "duration": 12, "velocity": 83}, {"time": 2983, "pitch": 55, "duration": 2, "velocity": 82}, {"time": 2983, "pitch": 59, "duration": 6, "velocity": 71}, {"time": 2989, "pitch": 48, "duration": 16, "velocity": 84}, {"time": 2989, "pitch": 60, "duration": 8, "velocity": 76}, {"time": 2989, "pitch": 67, "duration": 8, "velocity": 78}, {"time": 2995, "pitch": 55, "duration": 7, "velocity": 80}, {"time": 3001, "pitch": 60, "duration": 3, "velocity": 81}, {"time": 3001, "pitch": 63, "duration": 6, "velocity": 85}, {"time": 3004, "pitch": 55, "duration": 2, "velocity": 80}, {"time": 3007, "pitch": 60, "duration": 3, "velocity": 83}, {"time": 3010, "pitch": 63, "duration": 3, "velocity": 87}, {"time": 3013, "pitch": 46, "duration": 15, "velocity": 79}, {"time": 3013, "pitch": 62, "duration": 6, "velocity": 86}, {"time": 3019, "pitch": 53, "duration": 8, "velocity": 81}, {"time": 3025, "pitch": 58, "duration": 6, "velocity": 86}, {"time": 3025, "pitch": 62, "duration": 6, "velocity": 83}, {"time": 3037, "pitch": 46, "duration": 17, "velocity": 85}, {"time": 3037, "pitch": 58, "duration": 6, "velocity": 70}, {"time": 3037, "pitch": 62, "duration": 7, "velocity": 78}, {"time": 3043, "pitch": 53, "duration": 7, "velocity": 65}, {"time": 3046, "pitch": 58, "duration": 3, "velocity": 83}, {"time": 3049, "pitch": 65, "duration": 7, "velocity": 84}, {"time": 3052, "pitch": 53, "duration": 2, "velocity": 82}, {"time": 3055, "pitch": 58, "duration": 2, "velocity": 78}, {"time": 3061, "pitch": 39, "duration": 13, "velocity": 89}, {"time": 3061, "pitch": 55, "duration": 6, "velocity": 71}, {"time": 3061, "pitch": 58, "duration": 7, "velocity": 75}, {"time": 3061, "pitch": 63, "duration": 7, "velocity": 76}, {"time": 3067, "pitch": 46, "duration": 7, "velocity": 72}, {"time": 3073, "pitch": 58, "duration": 6, "velocity": 93}, {"time": 3073, "pitch": 63, "duration": 2, "velocity": 82}, {"time": 3076, "pitch": 46, "duration": 2, "velocity": 83}, {"time": 3079, "pitch": 55, "duration": 4, "velocity": 84}, {"time": 3082, "pitch": 58, "duration": 3, "velocity": 84}, {"time": 3085, "pitch": 44, "duration": 13, "velocity": 89}, {"time": 3088, "pitch": 51, "duration": 8, "velocity": 82}, {"time": 3091, "pitch": 56, "duration": 5, "velocity": 83}, {"time": 3094, "pitch": 63, "duration": 6, "velocity": 88}, {"time": 3097, "pitch": 51, "duration": 4, "velocity": 74}, {"time": 3100, "pitch": 60, "duration": 3, "velocity": 82}, {"time": 3103, "pitch": 56, "duration": 4, "velocity": 82}, {"time": 3106, "pitch": 63, "duration": 3, "velocity": 76}, {"time": 3109, "pitch": 41, "duration": 19, "velocity": 82}, {"time": 3112, "pitch": 48, "duration": 7, "velocity": 75}, {"time": 3115, "pitch": 53, "duration": 7, "velocity": 82}, {"time": 3118, "pitch": 56, "duration": 6, "velocity": 83}, {"time": 3121, "pitch": 48, "duration": 6, "velocity": 83}, {"time": 3124, "pitch": 53, "duration": 3, "velocity": 83}, {"time": 3127, "pitch": 56, "duration": 2, "velocity": 79}, {"time": 3133, "pitch": 43, "duration": 11, "velocity": 86}, {"time": 3133, "pitch": 55, "duration": 3, "velocity": 83}, {"time": 3133, "pitch": 60, "duration": 6, "velocity": 83}, {"time": 3139, "pitch": 55, "duration": 2, "velocity": 82}, {"time": 3142, "pitch": 55, "duration": 3, "velocity": 86}, {"time": 3142, "pitch": 60, "duration": 4, "velocity": 87}, {"time": 3145, "pitch": 43, "duration": 3, "velocity": 83}, {"time": 3148, "pitch": 55, "duration": 4, "velocity": 89}, {"time": 3151, "pitch": 60, "duration": 3, "velocity": 83}, {"time": 3154, "pitch": 55, "duration": 2, "velocity": 82}, {"time": 3157, "pitch": 43, "duration": 22, "velocity": 83}, {"time": 3157, "pitch": 55, "duration": 3, "velocity": 82}, {"time": 3157, "pitch": 59, "duration": 4, "velocity": 86}, {"time": 3160, "pitch": 50, "duration": 7, "velocity": 86}, {"time": 3163, "pitch": 55, "duration": 2, "velocity": 85}, {"time": 3166, "pitch": 62, "duration": 4, "velocity": 85}, {"time": 3169, "pitch": 50, "duration": 4, "velocity": 83}, {"time": 3172, "pitch": 55, "duration": 3, "velocity": 81}, {"time": 3172, "pitch": 62, "duration": 7, "velocity": 82}, {"time": 3172, "pitch": 67, "duration": 7, "velocity": 82}, {"time": 3175, "pitch": 50, "duration": 4, "velocity": 89}, {"time": 3178, "pitch": 55, "duration": 3, "velocity": 83}, {"time": 3181, "pitch": 48, "duration": 16, "velocity": 86}, {"time": 3181, "pitch": 60, "duration": 3, "velocity": 78}, {"time": 3181, "pitch": 67, "duration": 5, "velocity": 82}, {"time": 3184, "pitch": 55, "duration": 7, "velocity": 78}, {"time": 3187, "pitch": 60, "duration": 2, "velocity": 80}, {"time": 3190, "pitch": 63, "duration": 2, "velocity": 91}, {"time": 3193, "pitch": 55, "duration": 4, "velocity": 81}, {"time": 3196, "pitch": 60, "duration": 2, "velocity": 85}, {"time": 3199, "pitch": 63, "duration": 2, "velocity": 91}, {"time": 3202, "pitch": 60, "duration": 2, "velocity": 78}, {"time": 3205, "pitch": 46, "duration": 14, "velocity": 84}, {"time": 3205, "pitch": 62, "duration": 3, "velocity": 83}, {"time": 3208, "pitch": 53, "duration": 8, "velocity": 84}, {"time": 3211, "pitch": 58, "duration": 2, "velocity": 83}, {"time": 3214, "pitch": 58, "duration": 9, "velocity": 74}, {"time": 3214, "pitch": 62, "duration": 12, "velocity": 84}, {"time": 3223, "pitch": 53, "duration": 2, "velocity": 84}, {"time": 3226, "pitch": 58, "duration": 3, "velocity": 85}, {"time": 3229, "pitch": 43, "duration": 16, "velocity": 85}, {"time": 3232, "pitch": 50, "duration": 7, "velocity": 84}, {"time": 3235, "pitch": 55, "duration": 2, "velocity": 84}, {"time": 3238, "pitch": 55, "duration": 4, "velocity": 82}, {"time": 3238, "pitch": 58, "duration": 4, "velocity": 87}, {"time": 3241, "pitch": 50, "duration": 3, "velocity": 83}, {"time": 3244, "pitch": 55, "duration": 2, "velocity": 81}, {"time": 3244, "pitch": 58, "duration": 4, "velocity": 83}, {"time": 3244, "pitch": 62, "duration": 5, "velocity": 84}, {"time": 3247, "pitch": 43, "duration": 2, "velocity": 82}, {"time": 3250, "pitch": 55, "duration": 4, "velocity": 83}, {"time": 3253, "pitch": 48, "duration": 16, "velocity": 91}, {"time": 3253, "pitch": 55, "duration": 1, "velocity": 83}, {"time": 3253, "pitch": 63, "duration": 3, "velocity": 83}, {"time": 3256, "pitch": 55, "duration": 7, "velocity": 75}, {"time": 3259, "pitch": 60, "duration": 2, "velocity": 82}, {"time": 3262, "pitch": 60, "duration": 3, "velocity": 84}, {"time": 3262, "pitch": 63, "duration": 3, "velocity": 88}, {"time": 3265, "pitch": 55, "duration": 4, "velocity": 82}, {"time": 3268, "pitch": 60, "duration": 4, "velocity": 85}, {"time": 3268, "pitch": 63, "duration": 3, "velocity": 91}, {"time": 3274, "pitch": 62, "duration": 3, "velocity": 82}, {"time": 3277, "pitch": 44, "duration": 11, "velocity": 93}, {"time": 3277, "pitch": 60, "duration": 2, "velocity": 83}, {"time": 3280, "pitch": 51, "duration": 7, "velocity": 71}, {"time": 3283, "pitch": 56, "duration": 2, "velocity": 83}, {"time": 3286, "pitch": 56, "duration": 3, "velocity": 84}, {"time": 3286, "pitch": 60, "duration": 4, "velocity": 89}, {"time": 3289, "pitch": 51, "duration": 3, "velocity": 82}, {"time": 3292, "pitch": 56, "duration": 2, "velocity": 83}, {"time": 3292, "pitch": 60, "duration": 7, "velocity": 84}, {"time": 3298, "pitch": 56, "duration": 2, "velocity": 83}, {"time": 3301, "pitch": 41, "duration": 19, "velocity": 84}, {"time": 3304, "pitch": 48, "duration": 7, "velocity": 72}, {"time": 3307, "pitch": 53, "duration": 4, "velocity": 83}, {"time": 3310, "pitch": 60, "duration": 6, "velocity": 83}, {"time": 3313, "pitch": 48, "duration": 5, "velocity": 86}, {"time": 3316, "pitch": 53, "duration": 3, "velocity": 83}, {"time": 3319, "pitch": 60, "duration": 4, "velocity": 83}, {"time": 3322, "pitch": 53, "duration": 2, "velocity": 83}, {"time": 3325, "pitch": 43, "duration": 21, "velocity": 83}, {"time": 3328, "pitch": 50, "duration": 7, "velocity": 78}, {"time": 3331, "pitch": 55, "duration": 2, "velocity": 84}, {"time": 3334, "pitch": 55, "duration": 3, "velocity": 84}, {"time": 3334, "pitch": 62, "duration": 6, "velocity": 84}, {"time": 3337, "pitch": 50, "duration": 5, "velocity": 83}, {"time": 3340, "pitch": 55, "duration": 3, "velocity": 85}, {"time": 3343, "pitch": 62, "duration": 3, "velocity": 75}, {"time": 3346, "pitch": 55, "duration": 1, "velocity": 56}, {"time": 3347, "pitch": 55, "duration": 3, "velocity": 71}, {"time": 3348, "pitch": 60, "duration": 6, "velocity": 76}, {"time": 3349, "pitch": 36, "duration": 21, "velocity": 81}, {"time": 3349, "pitch": 63, "duration": 6, "velocity": 76}, {"time": 3352, "pitch": 55, "duration": 4, "velocity": 75}, {"time": 3355, "pitch": 60, "duration": 4, "velocity": 81}, {"time": 3358, "pitch": 62, "duration": 5, "velocity": 78}, {"time": 3361, "pitch": 48, "duration": 10, "velocity": 84}, {"time": 3361, "pitch": 63, "duration": 6, "velocity": 96}, {"time": 3367, "pitch": 67, "duration": 5, "velocity": 82}, {"time": 3367, "pitch": 72, "duration": 6, "velocity": 84}, {"time": 3373, "pitch": 41, "duration": 21, "velocity": 83}, {"time": 3376, "pitch": 48, "duration": 18, "velocity": 78}, {"time": 3379, "pitch": 53, "duration": 6, "velocity": 82}, {"time": 3382, "pitch": 60, "duration": 4, "velocity": 84}, {"time": 3385, "pitch": 65, "duration": 7, "velocity": 84}, {"time": 3388, "pitch": 60, "duration": 4, "velocity": 85}, {"time": 3391, "pitch": 56, "duration": 4, "velocity": 83}, {"time": 3394, "pitch": 53, "duration": 3, "velocity": 81}, {"time": 3397, "pitch": 43, "duration": 18, "velocity": 83}, {"time": 3400, "pitch": 50, "duration": 15, "velocity": 76}, {"time": 3403, "pitch": 58, "duration": 4, "velocity": 80}, {"time": 3406, "pitch": 55, "duration": 4, "velocity": 86}, {"time": 3409, "pitch": 67, "duration": 4, "velocity": 87}, {"time": 3412, "pitch": 62, "duration": 4, "velocity": 79}, {"time": 3415, "pitch": 58, "duration": 4, "velocity": 81}, {"time": 3418, "pitch": 55, "duration": 3, "velocity": 84}, {"time": 3421, "pitch": 44, "duration": 17, "velocity": 89}, {"time": 3424, "pitch": 51, "duration": 14, "velocity": 75}, {"time": 3427, "pitch": 56, "duration": 9, "velocity": 74}, {"time": 3430, "pitch": 60, "duration": 7, "velocity": 77}, {"time": 3433, "pitch": 63, "duration": 4, "velocity": 79}, {"time": 3437, "pitch": 68, "duration": 7, "velocity": 86}, {"time": 3440, "pitch": 56, "duration": 4, "velocity": 85}, {"time": 3443, "pitch": 60, "duration": 3, "velocity": 77}, {"time": 3446, "pitch": 46, "duration": 21, "velocity": 86}, {"time": 3450, "pitch": 53, "duration": 17, "velocity": 82}, {"time": 3454, "pitch": 58, "duration": 5, "velocity": 79}, {"time": 3458, "pitch": 62, "duration": 2, "velocity": 78}, {"time": 3462, "pitch": 58, "duration": 2, "velocity": 74}, {"time": 3463, "pitch": 62, "duration": 2, "velocity": 71}, {"time": 3465, "pitch": 65, "duration": 2, "velocity": 78}, {"time": 3479, "pitch": 36, "duration": 6, "velocity": 84}, {"time": 3483, "pitch": 43, "duration": 2, "velocity": 78}, {"time": 3485, "pitch": 48, "duration": 2, "velocity": 74}, {"time": 3487, "pitch": 50, "duration": 1, "velocity": 82}, {"time": 3489, "pitch": 52, "duration": 1, "velocity": 75}, {"time": 3490, "pitch": 48, "duration": 5, "velocity": 87}, {"time": 3492, "pitch": 55, "duration": 3, "velocity": 72}, {"time": 3494, "pitch": 60, "duration": 3, "velocity": 71}, {"time": 3496, "pitch": 62, "duration": 3, "velocity": 74}, {"time": 3499, "pitch": 64, "duration": 1, "velocity": 82}, {"time": 3501, "pitch": 60, "duration": 43, "velocity": 78}, {"time": 3505, "pitch": 67, "duration": 39, "velocity": 59}, {"time": 3507, "pitch": 72, "duration": 3, "velocity": 73}, {"time": 3510, "pitch": 74, "duration": 2, "velocity": 82}, {"time": 3513, "pitch": 76, "duration": 3, "velocity": 81}, {"time": 3517, "pitch": 79, "duration": 2, "velocity": 82}, {"time": 3520, "pitch": 84, "duration": 2, "velocity": 83}, {"time": 3524, "pitch": 86, "duration": 1, "velocity": 82}, {"time": 3528, "pitch": 88, "duration": 2, "velocity": 82}, {"time": 3533, "pitch": 91, "duration": 3, "velocity": 72}], "annotations": [{"time": 19, "annotation": {"number": 64, "value": 127}, "group": "control_change"}, {"time": 59, "annotation": {"number": 64, "value": 0}, "group": "control_change"}, {"time": 72, "annotation": {"number": 64, "value": 127}, "group": "control_change"}, {"time": 73, "annotation": {"number": 64, "value": 0}, "group": "control_change"}, {"time": 73, "annotation": {"number": 64, "value": 127}, "group": "control_change"}, {"time": 86, "annotation": {"number": 64, "value": 0}, "group": "control_change"}, {"time": 89, "annotation": {"number": 64, "value": 127}, "group": "control_change"}, {"time": 107, "annotation": {"number": 64, "value": 0}, "group": "control_change"}, {"time": 112, "annotation": {"number": 64, "value": 127}, "group": "control_change"}, {"time": 132, "annotation": {"number": 64, "value": 0}, "group": "control_change"}, {"time": 135, "annotation": {"number": 64, "value": 127}, "group": "control_change"}, {"time": 155, "annotation": {"number": 64, "value": 0}, "group": "control_change"}, {"time": 158, "annotation": {"number": 64, "value": 127}, "group": "control_change"}, {"time": 202, "annotation": {"number": 64, "value": 0}, "group": "control_change"}, {"time": 206, "annotation": {"number": 64, "value": 127}, "group": "control_change"}, {"time": 251, "annotation": {"number": 64, "value": 0}, "group": "control_change"}, {"time": 255, "annotation": {"number": 64, "value": 127}, "group": "control_change"}, {"time": 299, "annotation": {"number": 64, "value": 0}, "group": "control_change"}, {"time": 303, "annotation": {"number": 64, "value": 127}, "group": "control_change"}, {"time": 348, "annotation": {"number": 64, "value": 0}, "group": "control_change"}, {"time": 351, "annotation": {"number": 64, "value": 127}, "group": "control_change"}, {"time": 395, "annotation": {"number": 64, "value": 0}, "group": "control_change"}, {"time": 399, "annotation": {"number": 64, "value": 127}, "group": "control_change"}, {"time": 444, "annotation": {"number": 64, "value": 0}, "group": "control_change"}, {"time": 448, "annotation": {"number": 64, "value": 127}, "group": "control_change"}, {"time": 467, "annotation": {"number": 64, "value": 0}, "group": "control_change"}, {"time": 471, "annotation": {"number": 64, "value": 127}, "group": "control_change"}, {"time": 491, "annotation": {"number": 64, "value": 0}, "group": "control_change"}, {"time": 494, "annotation": {"number": 64, "value": 127}, "group": "control_change"}, {"time": 495, "annotation": {"number": 64, "value": 0}, "group": "control_change"}, {"time": 495, "annotation": {"number": 64, "value": 127}, "group": "control_change"}, {"time": 539, "annotation": {"number": 64, "value": 0}, "group": "control_change"}, {"time": 543, "annotation": {"number": 64, "value": 127}, "group": "control_change"}, {"time": 563, "annotation": {"number": 64, "value": 0}, "group": "control_change"}, {"time": 566, "annotation": {"number": 64, "value": 127}, "group": "control_change"}, {"time": 587, "annotation": {"number": 64, "value": 0}, "group": "control_change"}, {"time": 591, "annotation": {"number": 64, "value": 127}, "group": "control_change"}, {"time": 636, "annotation": {"number": 64, "value": 0}, "group": "control_change"}, {"time": 643, "annotation": {"number": 64, "value": 127}, "group": "control_change"}, {"time": 683, "annotation": {"number": 64, "value": 0}, "group": "control_change"}, {"time": 686, "annotation": {"number": 64, "value": 127}, "group": "control_change"}, {"time": 707, "annotation": {"number": 64, "value": 0}, "group": "control_change"}, {"time": 709, "annotation": {"number": 64, "value": 127}, "group": "control_change"}, {"time": 732, "annotation": {"number": 64, "value": 0}, "group": "control_change"}, {"time": 735, "annotation": {"number": 64, "value": 127}, "group": "control_change"}, {"time": 735, "annotation": {"number": 64, "value": 0}, "group": "control_change"}, {"time": 779, "annotation": {"number": 64, "value": 0}, "group": "control_change"}, {"time": 783, "annotation": {"number": 64, "value": 127}, "group": "control_change"}, {"time": 828, "annotation": {"number": 64, "value": 0}, "group": "control_change"}, {"time": 835, "annotation": {"number": 64, "value": 127}, "group": "control_change"}, {"time": 851, "annotation": {"number": 64, "value": 0}, "group": "control_change"}, {"time": 854, "annotation": {"number": 64, "value": 127}, "group": "control_change"}, {"time": 875, "annotation": {"number": 64, "value": 0}, "group": "control_change"}, {"time": 879, "annotation": {"number": 64, "value": 127}, "group": "control_change"}, {"time": 923, "annotation": {"number": 64, "value": 0}, "group": "control_change"}, {"time": 925, "annotation": {"number": 64, "value": 127}, "group": "control_change"}, {"time": 926, "annotation": {"number": 64, "value": 0}, "group": "control_change"}, {"time": 926, "annotation": {"number": 64, "value": 127}, "group": "control_change"}, {"time": 948, "annotation": {"number": 64, "value": 0}, "group": "control_change"}, {"time": 950, "annotation": {"number": 64, "value": 127}, "group": "control_change"}, {"time": 972, "annotation": {"number": 64, "value": 0}, "group": "control_change"}, {"time": 974, "annotation": {"number": 64, "value": 127}, "group": "control_change"}, {"time": 974, "annotation": {"number": 64, "value": 0}, "group": "control_change"}, {"time": 996, "annotation": {"number": 64, "value": 0}, "group": "control_change"}, {"time": 999, "annotation": {"number": 64, "value": 127}, "group": "control_change"}, {"time": 1019, "annotation": {"number": 64, "value": 0}, "group": "control_change"}, {"time": 1021, "annotation": {"number": 64, "value": 127}, "group": "control_change"}, {"time": 1044, "annotation": {"number": 64, "value": 0}, "group": "control_change"}, {"time": 1046, "annotation": {"number": 64, "value": 127}, "group": "control_change"}, {"time": 1068, "annotation": {"number": 64, "value": 0}, "group": "control_change"}, {"time": 1070, "annotation": {"number": 64, "value": 127}, "group": "control_change"}, {"time": 1091, "annotation": {"number": 64, "value": 0}, "group": "control_change"}, {"time": 1094, "annotation": {"number": 64, "value": 127}, "group": "control_change"}, {"time": 1116, "annotation": {"number": 64, "value": 0}, "group": "control_change"}, {"time": 1118, "annotation": {"number": 64, "value": 127}, "group": "control_change"}, {"time": 1139, "annotation": {"number": 64, "value": 0}, "group": "control_change"}, {"time": 1141, "annotation": {"number": 64, "value": 127}, "group": "control_change"}, {"time": 1162, "annotation": {"number": 64, "value": 0}, "group": "control_change"}, {"time": 1166, "annotation": {"number": 64, "value": 127}, "group": "control_change"}, {"time": 1166, "annotation": {"number": 64, "value": 0}, "group": "control_change"}, {"time": 1187, "annotation": {"number": 64, "value": 0}, "group": "control_change"}, {"time": 1190, "annotation": {"number": 64, "value": 127}, "group": "control_change"}, {"time": 1210, "annotation": {"number": 64, "value": 0}, "group": "control_change"}, {"time": 1213, "annotation": {"number": 64, "value": 127}, "group": "control_change"}, {"time": 1235, "annotation": {"number": 64, "value": 0}, "group": "control_change"}, {"time": 1237, "annotation": {"number": 64, "value": 127}, "group": "control_change"}, {"time": 1237, "annotation": {"number": 64, "value": 0}, "group": "control_change"}, {"time": 1259, "annotation": {"number": 64, "value": 0}, "group": "control_change"}, {"time": 1262, "annotation": {"number": 64, "value": 127}, "group": "control_change"}, {"time": 1284, "annotation": {"number": 64, "value": 0}, "group": "control_change"}, {"time": 1286, "annotation": {"number": 64, "value": 127}, "group": "control_change"}, {"time": 1307, "annotation": {"number": 64, "value": 0}, "group": "control_change"}, {"time": 1310, "annotation": {"number": 64, "value": 127}, "group": "control_change"}, {"time": 1331, "annotation": {"number": 64, "value": 0}, "group": "control_change"}, {"time": 1333, "annotation": {"number": 64, "value": 127}, "group": "control_change"}, {"time": 1356, "annotation": {"number": 64, "value": 0}, "group": "control_change"}, {"time": 1358, "annotation": {"number": 64, "value": 127}, "group": "control_change"}, {"time": 1404, "annotation": {"number": 64, "value": 0}, "group": "control_change"}, {"time": 1406, "annotation": {"number": 64, "value": 127}, "group": "control_change"}, {"time": 1451, "annotation": {"number": 64, "value": 0}, "group": "control_change"}, {"time": 1463, "annotation": {"number": 64, "value": 127}, "group": "control_change"}, {"time": 1475, "annotation": {"number": 64, "value": 0}, "group": "control_change"}, {"time": 1478, "annotation": {"number": 64, "value": 127}, "group": "control_change"}, {"time": 1500, "annotation": {"number": 64, "value": 0}, "group": "control_change"}, {"time": 1503, "annotation": {"number": 64, "value": 127}, "group": "control_change"}, {"time": 1523, "annotation": {"number": 64, "value": 0}, "group": "control_change"}, {"time": 1525, "annotation": {"number": 64, "value": 127}, "group": "control_change"}, {"time": 1548, "annotation": {"number": 64, "value": 0}, "group": "control_change"}, {"time": 1557, "annotation": {"number": 64, "value": 127}, "group": "control_change"}, {"time": 1571, "annotation": {"number": 64, "value": 0}, "group": "control_change"}, {"time": 1574, "annotation": {"number": 64, "value": 127}, "group": "control_change"}, {"time": 1596, "annotation": {"number": 64, "value": 0}, "group": "control_change"}, {"time": 1598, "annotation": {"number": 64, "value": 127}, "group": "control_change"}, {"time": 1618, "annotation": {"number": 64, "value": 0}, "group": "control_change"}, {"time": 1621, "annotation": {"number": 64, "value": 127}, "group": "control_change"}, {"time": 1641, "annotation": {"number": 64, "value": 0}, "group": "control_change"}, {"time": 1644, "annotation": {"number": 64, "value": 127}, "group": "control_change"}, {"time": 1666, "annotation": {"number": 64, "value": 0}, "group": "control_change"}, {"time": 1669, "annotation": {"number": 64, "value": 127}, "group": "control_change"}, {"time": 1689, "annotation": {"number": 64, "value": 0}, "group": "control_change"}, {"time": 1691, "annotation": {"number": 64, "value": 127}, "group": "control_change"}, {"time": 1693, "annotation": {"number": 64, "value": 127}, "group": "control_change"}, {"time": 1716, "annotation": {"number": 64, "value": 0}, "group": "control_change"}, {"time": 1719, "annotation": {"number": 64, "value": 127}, "group": "control_change"}, {"time": 1742, "annotation": {"number": 64, "value": 127}, "group": "control_change"}, {"time": 1787, "annotation": {"number": 64, "value": 0}, "group": "control_change"}, {"time": 1791, "annotation": {"number": 64, "value": 127}, "group": "control_change"}, {"time": 1835, "annotation": {"number": 64, "value": 0}, "group": "control_change"}, {"time": 1839, "annotation": {"number": 64, "value": 127}, "group": "control_change"}, {"time": 1884, "annotation": {"number": 64, "value": 0}, "group": "control_change"}, {"time": 1887, "annotation": {"number": 64, "value": 127}, "group": "control_change"}, {"time": 1931, "annotation": {"number": 64, "value": 0}, "group": "control_change"}, {"time": 1935, "annotation": {"number": 64, "value": 127}, "group": "control_change"}, {"time": 1980, "annotation": {"number": 64, "value": 0}, "group": "control_change"}, {"time": 1984, "annotation": {"number": 64, "value": 127}, "group": "control_change"}, {"time": 2003, "annotation": {"number": 64, "value": 0}, "group": "control_change"}, {"time": 2007, "annotation": {"number": 64, "value": 127}, "group": "control_change"}, {"time": 2027, "annotation": {"number": 64, "value": 0}, "group": "control_change"}, {"time": 2030, "annotation": {"number": 64, "value": 127}, "group": "control_change"}, {"time": 2031, "annotation": {"number": 64, "value": 0}, "group": "control_change"}, {"time": 2031, "annotation": {"number": 64, "value": 127}, "group": "control_change"}, {"time": 2075, "annotation": {"number": 64, "value": 0}, "group": "control_change"}, {"time": 2079, "annotation": {"number": 64, "value": 127}, "group": "control_change"}, {"time": 2099, "annotation": {"number": 64, "value": 0}, "group": "control_change"}, {"time": 2102, "annotation": {"number": 64, "value": 127}, "group": "control_change"}, {"time": 2123, "annotation": {"number": 64, "value": 0}, "group": "control_change"}, {"time": 2127, "annotation": {"number": 64, "value": 127}, "group": "control_change"}, {"time": 2172, "annotation": {"number": 64, "value": 0}, "group": "control_change"}, {"time": 2179, "annotation": {"number": 64, "value": 127}, "group": "control_change"}, {"time": 2219, "annotation": {"number": 64, "value": 0}, "group": "control_change"}, {"time": 2222, "annotation": {"number": 64, "value": 127}, "group": "control_change"}, {"time": 2243, "annotation": {"number": 64, "value": 0}, "group": "control_change"}, {"time": 2245, "annotation": {"number": 64, "value": 127}, "group": "control_change"}, {"time": 2268, "annotation": {"number": 64, "value": 0}, "group": "control_change"}, {"time": 2271, "annotation": {"number": 64, "value": 127}, "group": "control_change"}, {"time": 2271, "annotation": {"number": 64, "value": 0}, "group": "control_change"}, {"time": 2315, "annotation": {"number": 64, "value": 0}, "group": "control_change"}, {"time": 2319, "annotation": {"number": 64, "value": 127}, "group": "control_change"}, {"time": 2364, "annotation": {"number": 64, "value": 0}, "group": "control_change"}, {"time": 2371, "annotation": {"number": 64, "value": 127}, "group": "control_change"}, {"time": 2387, "annotation": {"number": 64, "value": 0}, "group": "control_change"}, {"time": 2390, "annotation": {"number": 64, "value": 127}, "group": "control_change"}, {"time": 2411, "annotation": {"number": 64, "value": 0}, "group": "control_change"}, {"time": 2415, "annotation": {"number": 64, "value": 127}, "group": "control_change"}, {"time": 2459, "annotation": {"number": 64, "value": 0}, "group": "control_change"}, {"time": 2461, "annotation": {"number": 64, "value": 127}, "group": "control_change"}, {"time": 2462, "annotation": {"number": 64, "value": 0}, "group": "control_change"}, {"time": 2462, "annotation": {"number": 64, "value": 127}, "group": "control_change"}, {"time": 2484, "annotation": {"number": 64, "value": 0}, "group": "control_change"}, {"time": 2486, "annotation": {"number": 64, "value": 127}, "group": "control_change"}, {"time": 2508, "annotation": {"number": 64, "value": 0}, "group": "control_change"}, {"time": 2510, "annotation": {"number": 64, "value": 127}, "group": "control_change"}, {"time": 2510, "annotation": {"number": 64, "value": 0}, "group": "control_change"}, {"time": 2532, "annotation": {"number": 64, "value": 0}, "group": "control_change"}, {"time": 2535, "annotation": {"number": 64, "value": 127}, "group": "control_change"}, {"time": 2555, "annotation": {"number": 64, "value": 0}, "group": "control_change"}, {"time": 2557, "annotation": {"number": 64, "value": 127}, "group": "control_change"}, {"time": 2580, "annotation": {"number": 64, "value": 0}, "group": "control_change"}, {"time": 2582, "annotation": {"number": 64, "value": 127}, "group": "control_change"}, {"time": 2604, "annotation": {"number": 64, "value": 0}, "group": "control_change"}, {"time": 2606, "annotation": {"number": 64, "value": 127}, "group": "control_change"}, {"time": 2627, "annotation": {"number": 64, "value": 0}, "group": "control_change"}, {"time": 2630, "annotation": {"number": 64, "value": 127}, "group": "control_change"}, {"time": 2652, "annotation": {"number": 64, "value": 0}, "group": "control_change"}, {"time": 2654, "annotation": {"number": 64, "value": 127}, "group": "control_change"}, {"time": 2675, "annotation": {"number": 64, "value": 0}, "group": "control_change"}, {"time": 2677, "annotation": {"number": 64, "value": 127}, "group": "control_change"}, {"time": 2698, "annotation": {"number": 64, "value": 0}, "group": "control_change"}, {"time": 2702, "annotation": {"number": 64, "value": 127}, "group": "control_change"}, {"time": 2702, "annotation": {"number": 64, "value": 0}, "group": "control_change"}, {"time": 2723, "annotation": {"number": 64, "value": 0}, "group": "control_change"}, {"time": 2726, "annotation": {"number": 64, "value": 127}, "group": "control_change"}, {"time": 2746, "annotation": {"number": 64, "value": 0}, "group": "control_change"}, {"time": 2749, "annotation": {"number": 64, "value": 127}, "group": "control_change"}, {"time": 2771, "annotation": {"number": 64, "value": 0}, "group": "control_change"}, {"time": 2773, "annotation": {"number": 64, "value": 127}, "group": "control_change"}, {"time": 2773, "annotation": {"number": 64, "value": 0}, "group": "control_change"}, {"time": 2795, "annotation": {"number": 64, "value": 0}, "group": "control_change"}, {"time": 2798, "annotation": {"number": 64, "value": 127}, "group": "control_change"}, {"time": 2820, "annotation": {"number": 64, "value": 0}, "group": "control_change"}, {"time": 2822, "annotation": {"number": 64, "value": 127}, "group": "control_change"}, {"time": 2843, "annotation": {"number": 64, "value": 0}, "group": "control_change"}, {"time": 2846, "annotation": {"number": 64, "value": 127}, "group": "control_change"}, {"time": 2867, "annotation": {"number": 64, "value": 0}, "group": "control_change"}, {"time": 2869, "annotation": {"number": 64, "value": 127}, "group": "control_change"}, {"time": 2892, "annotation": {"number": 64, "value": 0}, "group": "control_change"}, {"time": 2893, "annotation": {"number": 64, "value": 127}, "group": "control_change"}, {"time": 2899, "annotation": {"number": 64, "value": 127}, "group": "control_change"}, {"time": 2899, "annotation": {"number": 64, "value": 0}, "group": "control_change"}, {"time": 2904, "annotation": {"number": 64, "value": 0}, "group": "control_change"}, {"time": 2916, "annotation": {"number": 64, "value": 0}, "group": "control_change"}, {"time": 2919, "annotation": {"number": 64, "value": 127}, "group": "control_change"}, {"time": 2940, "annotation": {"number": 64, "value": 0}, "group": "control_change"}, {"time": 2942, "annotation": {"number": 64, "value": 127}, "group": "control_change"}, {"time": 2963, "annotation": {"number": 64, "value": 0}, "group": "control_change"}, {"time": 2966, "annotation": {"number": 64, "value": 127}, "group": "control_change"}, {"time": 2987, "annotation": {"number": 64, "value": 0}, "group": "control_change"}, {"time": 2990, "annotation": {"number": 64, "value": 127}, "group": "control_change"}, {"time": 2990, "annotation": {"number": 64, "value": 0}, "group": "control_change"}, {"time": 3012, "annotation": {"number": 64, "value": 0}, "group": "control_change"}, {"time": 3015, "annotation": {"number": 64, "value": 127}, "group": "control_change"}, {"time": 3035, "annotation": {"number": 64, "value": 0}, "group": "control_change"}, {"time": 3037, "annotation": {"number": 64, "value": 127}, "group": "control_change"}, {"time": 3060, "annotation": {"number": 64, "value": 0}, "group": "control_change"}, {"time": 3062, "annotation": {"number": 64, "value": 127}, "group": "control_change"}, {"time": 3084, "annotation": {"number": 64, "value": 0}, "group": "control_change"}, {"time": 3086, "annotation": {"number": 64, "value": 127}, "group": "control_change"}, {"time": 3107, "annotation": {"number": 64, "value": 0}, "group": "control_change"}, {"time": 3110, "annotation": {"number": 64, "value": 127}, "group": "control_change"}, {"time": 3132, "annotation": {"number": 64, "value": 0}, "group": "control_change"}, {"time": 3134, "annotation": {"number": 64, "value": 127}, "group": "control_change"}, {"time": 3155, "annotation": {"number": 64, "value": 0}, "group": "control_change"}, {"time": 3157, "annotation": {"number": 64, "value": 127}, "group": "control_change"}, {"time": 3178, "annotation": {"number": 64, "value": 0}, "group": "control_change"}, {"time": 3182, "annotation": {"number": 64, "value": 127}, "group": "control_change"}, {"time": 3182, "annotation": {"number": 64, "value": 0}, "group": "control_change"}, {"time": 3203, "annotation": {"number": 64, "value": 0}, "group": "control_change"}, {"time": 3206, "annotation": {"number": 64, "value": 127}, "group": "control_change"}, {"time": 3226, "annotation": {"number": 64, "value": 0}, "group": "control_change"}, {"time": 3229, "annotation": {"number": 64, "value": 127}, "group": "control_change"}, {"time": 3251, "annotation": {"number": 64, "value": 0}, "group": "control_change"}, {"time": 3253, "annotation": {"number": 64, "value": 127}, "group": "control_change"}, {"time": 3253, "annotation": {"number": 64, "value": 0}, "group": "control_change"}, {"time": 3275, "annotation": {"number": 64, "value": 0}, "group": "control_change"}, {"time": 3278, "annotation": {"number": 64, "value": 127}, "group": "control_change"}, {"time": 3300, "annotation": {"number": 64, "value": 0}, "group": "control_change"}, {"time": 3302, "annotation": {"number": 64, "value": 127}, "group": "control_change"}, {"time": 3323, "annotation": {"number": 64, "value": 0}, "group": "control_change"}, {"time": 3326, "annotation": {"number": 64, "value": 127}, "group": "control_change"}, {"time": 3347, "annotation": {"number": 64, "value": 0}, "group": "control_change"}, {"time": 3349, "annotation": {"number": 64, "value": 127}, "group": "control_change"}, {"time": 3372, "annotation": {"number": 64, "value": 0}, "group": "control_change"}, {"time": 3374, "annotation": {"number": 64, "value": 127}, "group": "control_change"}, {"time": 3374, "annotation": {"number": 64, "value": 0}, "group": "control_change"}, {"time": 3375, "annotation": {"number": 64, "value": 127}, "group": "control_change"}, {"time": 3395, "annotation": {"number": 64, "value": 0}, "group": "control_change"}, {"time": 3399, "annotation": {"number": 64, "value": 127}, "group": "control_change"}, {"time": 3419, "annotation": {"number": 64, "value": 0}, "group": "control_change"}, {"time": 3423, "annotation": {"number": 64, "value": 127}, "group": "control_change"}, {"time": 3446, "annotation": {"number": 64, "value": 0}, "group": "control_change"}, {"time": 3450, "annotation": {"number": 64, "value": 127}, "group": "control_change"}, {"time": 3478, "annotation": {"number": 64, "value": 0}, "group": "control_change"}, {"time": 3480, "annotation": {"number": 64, "value": 127}, "group": "control_change"}, {"time": 3568, "annotation": {"number": 64, "value": 0}, "group": "control_change"}]}]}