{"metadata": {"schema_version": "0.2", "title": "None", "source_filename": "837.mid", "source_format": "midi"}, "resolution": 12, "tempos": [{"time": 0, "qpm": 85.00004250002125}], "time_signatures": [{"time": 0, "numerator": 1, "denominator": 4}], "tracks": [{"program": 0, "is_drum": false, "name": "MELODY", "notes": [{"time": 381, "pitch": 68, "duration": 5, "velocity": 85}, {"time": 387, "pitch": 75, "duration": 4, "velocity": 83}, {"time": 393, "pitch": 75, "duration": 21, "velocity": 84}, {"time": 417, "pitch": 73, "duration": 4, "velocity": 87}, {"time": 423, "pitch": 75, "duration": 4, "velocity": 84}, {"time": 429, "pitch": 70, "duration": 5, "velocity": 85}, {"time": 435, "pitch": 66, "duration": 4, "velocity": 80}, {"time": 441, "pitch": 68, "duration": 31, "velocity": 81}, {"time": 477, "pitch": 68, "duration": 5, "velocity": 83}, {"time": 483, "pitch": 75, "duration": 4, "velocity": 83}, {"time": 489, "pitch": 75, "duration": 20, "velocity": 83}, {"time": 513, "pitch": 73, "duration": 4, "velocity": 85}, {"time": 519, "pitch": 75, "duration": 5, "velocity": 84}, {"time": 525, "pitch": 78, "duration": 5, "velocity": 83}, {"time": 531, "pitch": 73, "duration": 13, "velocity": 83}, {"time": 543, "pitch": 75, "duration": 25, "velocity": 82}, {"time": 573, "pitch": 75, "duration": 4, "velocity": 87}, {"time": 579, "pitch": 78, "duration": 5, "velocity": 82}, {"time": 585, "pitch": 80, "duration": 11, "velocity": 81}, {"time": 597, "pitch": 78, "duration": 4, "velocity": 76}, {"time": 603, "pitch": 80, "duration": 5, "velocity": 82}, {"time": 609, "pitch": 73, "duration": 18, "velocity": 86}, {"time": 633, "pitch": 75, "duration": 11, "velocity": 84}, {"time": 645, "pitch": 73, "duration": 4, "velocity": 83}, {"time": 651, "pitch": 71, "duration": 5, "velocity": 79}, {"time": 657, "pitch": 68, "duration": 9, "velocity": 82}, {"time": 675, "pitch": 68, "duration": 5, "velocity": 85}, {"time": 681, "pitch": 75, "duration": 10, "velocity": 83}, {"time": 693, "pitch": 73, "duration": 4, "velocity": 82}, {"time": 699, "pitch": 75, "duration": 4, "velocity": 83}, {"time": 705, "pitch": 70, "duration": 9, "velocity": 81}, {"time": 717, "pitch": 68, "duration": 5, "velocity": 82}, {"time": 723, "pitch": 66, "duration": 5, "velocity": 79}, {"time": 729, "pitch": 68, "duration": 30, "velocity": 81}, {"time": 765, "pitch": 68, "duration": 5, "velocity": 85}, {"time": 771, "pitch": 75, "duration": 4, "velocity": 83}, {"time": 777, "pitch": 75, "duration": 21, "velocity": 84}, {"time": 801, "pitch": 73, "duration": 4, "velocity": 87}, {"time": 807, "pitch": 75, "duration": 4, "velocity": 84}, {"time": 813, "pitch": 70, "duration": 5, "velocity": 85}, {"time": 819, "pitch": 66, "duration": 4, "velocity": 80}, {"time": 825, "pitch": 68, "duration": 31, "velocity": 81}, {"time": 861, "pitch": 68, "duration": 5, "velocity": 83}, {"time": 867, "pitch": 75, "duration": 4, "velocity": 83}, {"time": 873, "pitch": 75, "duration": 20, "velocity": 83}, {"time": 897, "pitch": 73, "duration": 4, "velocity": 85}, {"time": 903, "pitch": 75, "duration": 5, "velocity": 84}, {"time": 909, "pitch": 78, "duration": 5, "velocity": 83}, {"time": 915, "pitch": 73, "duration": 13, "velocity": 83}, {"time": 927, "pitch": 75, "duration": 25, "velocity": 82}, {"time": 957, "pitch": 75, "duration": 4, "velocity": 87}, {"time": 963, "pitch": 78, "duration": 5, "velocity": 82}, {"time": 969, "pitch": 80, "duration": 11, "velocity": 81}, {"time": 981, "pitch": 78, "duration": 4, "velocity": 76}, {"time": 987, "pitch": 80, "duration": 5, "velocity": 82}, {"time": 993, "pitch": 73, "duration": 18, "velocity": 86}, {"time": 1017, "pitch": 75, "duration": 11, "velocity": 84}, {"time": 1029, "pitch": 73, "duration": 4, "velocity": 83}, {"time": 1035, "pitch": 71, "duration": 5, "velocity": 79}, {"time": 1041, "pitch": 68, "duration": 9, "velocity": 82}, {"time": 1059, "pitch": 68, "duration": 5, "velocity": 85}, {"time": 1065, "pitch": 75, "duration": 10, "velocity": 83}, {"time": 1077, "pitch": 73, "duration": 4, "velocity": 82}, {"time": 1083, "pitch": 71, "duration": 4, "velocity": 83}, {"time": 1089, "pitch": 71, "duration": 9, "velocity": 81}, {"time": 1101, "pitch": 70, "duration": 5, "velocity": 82}, {"time": 1107, "pitch": 71, "duration": 5, "velocity": 79}, {"time": 1113, "pitch": 71, "duration": 30, "velocity": 81}, {"time": 1197, "pitch": 71, "duration": 6, "velocity": 83}, {"time": 1203, "pitch": 73, "duration": 6, "velocity": 92}, {"time": 1209, "pitch": 75, "duration": 12, "velocity": 84}, {"time": 1221, "pitch": 78, "duration": 12, "velocity": 83}, {"time": 1233, "pitch": 80, "duration": 19, "velocity": 84}, {"time": 1251, "pitch": 83, "duration": 6, "velocity": 87}, {"time": 1257, "pitch": 82, "duration": 12, "velocity": 88}, {"time": 1269, "pitch": 78, "duration": 5, "velocity": 82}, {"time": 1275, "pitch": 75, "duration": 6, "velocity": 85}, {"time": 1281, "pitch": 80, "duration": 10, "velocity": 83}, {"time": 1293, "pitch": 75, "duration": 4, "velocity": 83}, {"time": 1299, "pitch": 75, "duration": 5, "velocity": 85}, {"time": 1305, "pitch": 73, "duration": 18, "velocity": 90}, {"time": 1323, "pitch": 75, "duration": 5, "velocity": 83}, {"time": 1329, "pitch": 73, "duration": 5, "velocity": 92}, {"time": 1335, "pitch": 71, "duration": 4, "velocity": 81}, {"time": 1341, "pitch": 71, "duration": 6, "velocity": 81}, {"time": 1347, "pitch": 78, "duration": 6, "velocity": 82}, {"time": 1353, "pitch": 75, "duration": 33, "velocity": 78}, {"time": 1389, "pitch": 71, "duration": 5, "velocity": 83}, {"time": 1395, "pitch": 73, "duration": 4, "velocity": 88}, {"time": 1401, "pitch": 75, "duration": 12, "velocity": 83}, {"time": 1413, "pitch": 78, "duration": 12, "velocity": 83}, {"time": 1425, "pitch": 80, "duration": 13, "velocity": 83}, {"time": 1443, "pitch": 83, "duration": 5, "velocity": 87}, {"time": 1449, "pitch": 82, "duration": 11, "velocity": 84}, {"time": 1461, "pitch": 80, "duration": 5, "velocity": 81}, {"time": 1467, "pitch": 82, "duration": 6, "velocity": 83}, {"time": 1473, "pitch": 83, "duration": 10, "velocity": 84}, {"time": 1485, "pitch": 75, "duration": 3, "velocity": 80}, {"time": 1491, "pitch": 75, "duration": 5, "velocity": 79}, {"time": 1497, "pitch": 73, "duration": 16, "velocity": 84}, {"time": 1515, "pitch": 80, "duration": 5, "velocity": 82}, {"time": 1521, "pitch": 78, "duration": 4, "velocity": 84}, {"time": 1527, "pitch": 75, "duration": 6, "velocity": 83}, {"time": 1533, "pitch": 73, "duration": 6, "velocity": 86}, {"time": 1539, "pitch": 75, "duration": 12, "velocity": 83}, {"time": 1551, "pitch": 71, "duration": 40, "velocity": 83}, {"time": 1773, "pitch": 68, "duration": 5, "velocity": 85}, {"time": 1779, "pitch": 75, "duration": 4, "velocity": 83}, {"time": 1785, "pitch": 75, "duration": 21, "velocity": 84}, {"time": 1809, "pitch": 73, "duration": 4, "velocity": 87}, {"time": 1815, "pitch": 75, "duration": 4, "velocity": 84}, {"time": 1821, "pitch": 70, "duration": 5, "velocity": 85}, {"time": 1827, "pitch": 66, "duration": 4, "velocity": 80}, {"time": 1833, "pitch": 68, "duration": 31, "velocity": 81}, {"time": 1869, "pitch": 68, "duration": 5, "velocity": 83}, {"time": 1875, "pitch": 75, "duration": 4, "velocity": 83}, {"time": 1881, "pitch": 75, "duration": 20, "velocity": 83}, {"time": 1905, "pitch": 73, "duration": 4, "velocity": 85}, {"time": 1911, "pitch": 75, "duration": 5, "velocity": 84}, {"time": 1917, "pitch": 78, "duration": 5, "velocity": 83}, {"time": 1923, "pitch": 73, "duration": 13, "velocity": 83}, {"time": 1935, "pitch": 75, "duration": 25, "velocity": 82}, {"time": 1965, "pitch": 75, "duration": 4, "velocity": 87}, {"time": 1971, "pitch": 78, "duration": 5, "velocity": 82}, {"time": 1977, "pitch": 80, "duration": 11, "velocity": 81}, {"time": 1989, "pitch": 78, "duration": 4, "velocity": 76}, {"time": 1995, "pitch": 80, "duration": 5, "velocity": 82}, {"time": 2001, "pitch": 73, "duration": 18, "velocity": 86}, {"time": 2025, "pitch": 75, "duration": 11, "velocity": 84}, {"time": 2037, "pitch": 73, "duration": 4, "velocity": 83}, {"time": 2043, "pitch": 71, "duration": 5, "velocity": 79}, {"time": 2049, "pitch": 68, "duration": 9, "velocity": 82}, {"time": 2067, "pitch": 68, "duration": 5, "velocity": 85}, {"time": 2073, "pitch": 75, "duration": 10, "velocity": 83}, {"time": 2085, "pitch": 73, "duration": 4, "velocity": 82}, {"time": 2091, "pitch": 75, "duration": 4, "velocity": 83}, {"time": 2097, "pitch": 70, "duration": 9, "velocity": 81}, {"time": 2109, "pitch": 68, "duration": 5, "velocity": 82}, {"time": 2115, "pitch": 66, "duration": 5, "velocity": 79}, {"time": 2121, "pitch": 68, "duration": 30, "velocity": 81}, {"time": 2157, "pitch": 68, "duration": 5, "velocity": 85}, {"time": 2163, "pitch": 75, "duration": 4, "velocity": 83}, {"time": 2169, "pitch": 75, "duration": 21, "velocity": 84}, {"time": 2193, "pitch": 73, "duration": 4, "velocity": 87}, {"time": 2199, "pitch": 75, "duration": 4, "velocity": 84}, {"time": 2205, "pitch": 70, "duration": 5, "velocity": 85}, {"time": 2211, "pitch": 66, "duration": 4, "velocity": 80}, {"time": 2217, "pitch": 68, "duration": 31, "velocity": 81}, {"time": 2253, "pitch": 68, "duration": 5, "velocity": 83}, {"time": 2259, "pitch": 75, "duration": 4, "velocity": 83}, {"time": 2265, "pitch": 75, "duration": 20, "velocity": 83}, {"time": 2289, "pitch": 73, "duration": 4, "velocity": 85}, {"time": 2295, "pitch": 75, "duration": 5, "velocity": 84}, {"time": 2301, "pitch": 78, "duration": 5, "velocity": 83}, {"time": 2307, "pitch": 73, "duration": 13, "velocity": 83}, {"time": 2319, "pitch": 75, "duration": 25, "velocity": 82}, {"time": 2349, "pitch": 75, "duration": 4, "velocity": 87}, {"time": 2355, "pitch": 78, "duration": 5, "velocity": 82}, {"time": 2361, "pitch": 80, "duration": 11, "velocity": 81}, {"time": 2373, "pitch": 78, "duration": 4, "velocity": 76}, {"time": 2379, "pitch": 80, "duration": 5, "velocity": 82}, {"time": 2385, "pitch": 73, "duration": 18, "velocity": 86}, {"time": 2409, "pitch": 75, "duration": 11, "velocity": 84}, {"time": 2421, "pitch": 73, "duration": 4, "velocity": 83}, {"time": 2427, "pitch": 71, "duration": 5, "velocity": 79}, {"time": 2433, "pitch": 68, "duration": 9, "velocity": 82}, {"time": 2451, "pitch": 68, "duration": 5, "velocity": 85}, {"time": 2457, "pitch": 75, "duration": 10, "velocity": 83}, {"time": 2469, "pitch": 73, "duration": 4, "velocity": 82}, {"time": 2475, "pitch": 71, "duration": 4, "velocity": 83}, {"time": 2481, "pitch": 71, "duration": 9, "velocity": 81}, {"time": 2493, "pitch": 70, "duration": 5, "velocity": 82}, {"time": 2499, "pitch": 71, "duration": 5, "velocity": 79}, {"time": 2505, "pitch": 71, "duration": 30, "velocity": 81}, {"time": 2589, "pitch": 71, "duration": 6, "velocity": 83}, {"time": 2595, "pitch": 73, "duration": 6, "velocity": 92}, {"time": 2601, "pitch": 75, "duration": 12, "velocity": 84}, {"time": 2613, "pitch": 78, "duration": 12, "velocity": 83}, {"time": 2625, "pitch": 80, "duration": 19, "velocity": 84}, {"time": 2643, "pitch": 83, "duration": 6, "velocity": 87}, {"time": 2649, "pitch": 82, "duration": 12, "velocity": 88}, {"time": 2661, "pitch": 78, "duration": 5, "velocity": 82}, {"time": 2667, "pitch": 75, "duration": 6, "velocity": 85}, {"time": 2673, "pitch": 80, "duration": 10, "velocity": 83}, {"time": 2685, "pitch": 75, "duration": 4, "velocity": 83}, {"time": 2691, "pitch": 75, "duration": 5, "velocity": 85}, {"time": 2697, "pitch": 73, "duration": 18, "velocity": 90}, {"time": 2715, "pitch": 75, "duration": 5, "velocity": 83}, {"time": 2721, "pitch": 73, "duration": 5, "velocity": 92}, {"time": 2727, "pitch": 71, "duration": 4, "velocity": 81}, {"time": 2733, "pitch": 71, "duration": 6, "velocity": 81}, {"time": 2739, "pitch": 78, "duration": 6, "velocity": 82}, {"time": 2745, "pitch": 75, "duration": 33, "velocity": 78}, {"time": 2781, "pitch": 71, "duration": 5, "velocity": 83}, {"time": 2787, "pitch": 73, "duration": 4, "velocity": 88}, {"time": 2793, "pitch": 75, "duration": 12, "velocity": 83}, {"time": 2805, "pitch": 78, "duration": 12, "velocity": 83}, {"time": 2817, "pitch": 80, "duration": 13, "velocity": 83}, {"time": 2835, "pitch": 83, "duration": 5, "velocity": 87}, {"time": 2841, "pitch": 82, "duration": 11, "velocity": 84}, {"time": 2853, "pitch": 80, "duration": 5, "velocity": 81}, {"time": 2859, "pitch": 82, "duration": 6, "velocity": 83}, {"time": 2865, "pitch": 83, "duration": 10, "velocity": 84}, {"time": 2877, "pitch": 75, "duration": 3, "velocity": 80}, {"time": 2883, "pitch": 75, "duration": 5, "velocity": 79}, {"time": 2889, "pitch": 73, "duration": 16, "velocity": 84}, {"time": 2907, "pitch": 80, "duration": 5, "velocity": 82}, {"time": 2913, "pitch": 78, "duration": 4, "velocity": 84}, {"time": 2919, "pitch": 75, "duration": 6, "velocity": 83}, {"time": 2925, "pitch": 73, "duration": 6, "velocity": 86}, {"time": 2931, "pitch": 75, "duration": 12, "velocity": 83}, {"time": 2943, "pitch": 71, "duration": 40, "velocity": 83}, {"time": 3405, "pitch": 71, "duration": 6, "velocity": 83}, {"time": 3411, "pitch": 73, "duration": 6, "velocity": 92}, {"time": 3417, "pitch": 75, "duration": 12, "velocity": 84}, {"time": 3429, "pitch": 78, "duration": 12, "velocity": 83}, {"time": 3441, "pitch": 80, "duration": 19, "velocity": 84}, {"time": 3459, "pitch": 83, "duration": 6, "velocity": 87}, {"time": 3465, "pitch": 82, "duration": 12, "velocity": 88}, {"time": 3477, "pitch": 78, "duration": 5, "velocity": 82}, {"time": 3483, "pitch": 75, "duration": 6, "velocity": 85}, {"time": 3489, "pitch": 80, "duration": 10, "velocity": 83}, {"time": 3501, "pitch": 75, "duration": 4, "velocity": 83}, {"time": 3507, "pitch": 75, "duration": 5, "velocity": 85}, {"time": 3513, "pitch": 73, "duration": 18, "velocity": 90}, {"time": 3531, "pitch": 75, "duration": 5, "velocity": 83}, {"time": 3537, "pitch": 73, "duration": 5, "velocity": 92}, {"time": 3543, "pitch": 71, "duration": 4, "velocity": 81}, {"time": 3549, "pitch": 71, "duration": 6, "velocity": 81}, {"time": 3555, "pitch": 78, "duration": 6, "velocity": 82}, {"time": 3561, "pitch": 75, "duration": 33, "velocity": 78}, {"time": 3597, "pitch": 71, "duration": 5, "velocity": 83}, {"time": 3603, "pitch": 73, "duration": 4, "velocity": 88}, {"time": 3609, "pitch": 75, "duration": 12, "velocity": 83}, {"time": 3621, "pitch": 78, "duration": 12, "velocity": 83}, {"time": 3633, "pitch": 80, "duration": 13, "velocity": 83}, {"time": 3651, "pitch": 83, "duration": 5, "velocity": 87}, {"time": 3657, "pitch": 82, "duration": 11, "velocity": 84}, {"time": 3669, "pitch": 80, "duration": 5, "velocity": 81}, {"time": 3675, "pitch": 82, "duration": 6, "velocity": 83}, {"time": 3681, "pitch": 83, "duration": 10, "velocity": 84}, {"time": 3693, "pitch": 75, "duration": 3, "velocity": 80}, {"time": 3699, "pitch": 75, "duration": 5, "velocity": 79}, {"time": 3705, "pitch": 73, "duration": 16, "velocity": 84}, {"time": 3723, "pitch": 80, "duration": 5, "velocity": 82}, {"time": 3729, "pitch": 78, "duration": 4, "velocity": 84}, {"time": 3735, "pitch": 75, "duration": 6, "velocity": 83}, {"time": 3741, "pitch": 73, "duration": 6, "velocity": 86}, {"time": 3747, "pitch": 75, "duration": 12, "velocity": 83}, {"time": 3759, "pitch": 71, "duration": 30, "velocity": 83}, {"time": 3789, "pitch": 71, "duration": 5, "velocity": 83}, {"time": 3795, "pitch": 73, "duration": 4, "velocity": 88}, {"time": 3801, "pitch": 75, "duration": 12, "velocity": 83}, {"time": 3813, "pitch": 78, "duration": 12, "velocity": 83}, {"time": 3825, "pitch": 80, "duration": 13, "velocity": 83}, {"time": 3843, "pitch": 83, "duration": 5, "velocity": 87}, {"time": 3849, "pitch": 82, "duration": 11, "velocity": 84}, {"time": 3861, "pitch": 80, "duration": 5, "velocity": 81}, {"time": 3867, "pitch": 82, "duration": 6, "velocity": 83}, {"time": 3873, "pitch": 83, "duration": 10, "velocity": 84}, {"time": 3885, "pitch": 75, "duration": 3, "velocity": 80}, {"time": 3891, "pitch": 75, "duration": 5, "velocity": 79}, {"time": 3897, "pitch": 73, "duration": 16, "velocity": 84}, {"time": 3915, "pitch": 80, "duration": 5, "velocity": 82}, {"time": 3921, "pitch": 78, "duration": 4, "velocity": 84}, {"time": 3927, "pitch": 75, "duration": 6, "velocity": 83}, {"time": 3933, "pitch": 73, "duration": 6, "velocity": 86}, {"time": 3939, "pitch": 75, "duration": 12, "velocity": 83}, {"time": 3951, "pitch": 71, "duration": 30, "velocity": 83}, {"time": 3981, "pitch": 68, "duration": 5, "velocity": 85}, {"time": 3987, "pitch": 75, "duration": 4, "velocity": 83}, {"time": 3993, "pitch": 75, "duration": 21, "velocity": 84}, {"time": 4017, "pitch": 73, "duration": 4, "velocity": 87}, {"time": 4023, "pitch": 75, "duration": 4, "velocity": 84}, {"time": 4029, "pitch": 70, "duration": 5, "velocity": 85}, {"time": 4035, "pitch": 66, "duration": 4, "velocity": 80}, {"time": 4041, "pitch": 68, "duration": 31, "velocity": 81}, {"time": 4077, "pitch": 68, "duration": 5, "velocity": 83}, {"time": 4083, "pitch": 75, "duration": 4, "velocity": 83}, {"time": 4089, "pitch": 75, "duration": 20, "velocity": 83}, {"time": 4113, "pitch": 73, "duration": 4, "velocity": 85}, {"time": 4119, "pitch": 75, "duration": 5, "velocity": 84}, {"time": 4125, "pitch": 78, "duration": 5, "velocity": 83}, {"time": 4131, "pitch": 73, "duration": 13, "velocity": 83}, {"time": 4143, "pitch": 75, "duration": 25, "velocity": 82}, {"time": 4173, "pitch": 75, "duration": 4, "velocity": 87}, {"time": 4179, "pitch": 78, "duration": 5, "velocity": 82}, {"time": 4185, "pitch": 80, "duration": 11, "velocity": 81}, {"time": 4197, "pitch": 78, "duration": 4, "velocity": 76}, {"time": 4203, "pitch": 80, "duration": 5, "velocity": 82}, {"time": 4209, "pitch": 73, "duration": 18, "velocity": 86}, {"time": 4233, "pitch": 75, "duration": 11, "velocity": 84}, {"time": 4245, "pitch": 73, "duration": 4, "velocity": 83}, {"time": 4251, "pitch": 71, "duration": 5, "velocity": 79}, {"time": 4257, "pitch": 68, "duration": 9, "velocity": 82}, {"time": 4275, "pitch": 68, "duration": 5, "velocity": 85}, {"time": 4281, "pitch": 75, "duration": 10, "velocity": 83}, {"time": 4293, "pitch": 73, "duration": 4, "velocity": 82}, {"time": 4299, "pitch": 71, "duration": 4, "velocity": 83}, {"time": 4305, "pitch": 71, "duration": 9, "velocity": 81}, {"time": 4329, "pitch": 70, "duration": 11, "velocity": 83}, {"time": 4339, "pitch": 71, "duration": 11, "velocity": 84}, {"time": 4353, "pitch": 71, "duration": 74, "velocity": 87}]}, {"program": 0, "is_drum": false, "name": "PIANO", "notes": [{"time": 9, "pitch": 40, "duration": 20, "velocity": 78}, {"time": 15, "pitch": 47, "duration": 15, "velocity": 77}, {"time": 21, "pitch": 52, "duration": 7, "velocity": 69}, {"time": 27, "pitch": 56, "duration": 5, "velocity": 71}, {"time": 33, "pitch": 42, "duration": 16, "velocity": 81}, {"time": 33, "pitch": 54, "duration": 15, "velocity": 70}, {"time": 33, "pitch": 58, "duration": 15, "velocity": 76}, {"time": 57, "pitch": 44, "duration": 37, "velocity": 79}, {"time": 57, "pitch": 56, "duration": 7, "velocity": 74}, {"time": 57, "pitch": 59, "duration": 13, "velocity": 76}, {"time": 63, "pitch": 51, "duration": 7, "velocity": 74}, {"time": 69, "pitch": 56, "duration": 8, "velocity": 81}, {"time": 75, "pitch": 51, "duration": 18, "velocity": 69}, {"time": 81, "pitch": 56, "duration": 8, "velocity": 68}, {"time": 81, "pitch": 63, "duration": 9, "velocity": 76}, {"time": 105, "pitch": 40, "duration": 17, "velocity": 81}, {"time": 105, "pitch": 52, "duration": 7, "velocity": 73}, {"time": 105, "pitch": 56, "duration": 13, "velocity": 72}, {"time": 111, "pitch": 47, "duration": 11, "velocity": 74}, {"time": 117, "pitch": 52, "duration": 5, "velocity": 81}, {"time": 129, "pitch": 42, "duration": 20, "velocity": 73}, {"time": 129, "pitch": 54, "duration": 7, "velocity": 68}, {"time": 129, "pitch": 58, "duration": 12, "velocity": 68}, {"time": 135, "pitch": 49, "duration": 13, "velocity": 73}, {"time": 141, "pitch": 54, "duration": 7, "velocity": 82}, {"time": 147, "pitch": 58, "duration": 7, "velocity": 82}, {"time": 153, "pitch": 47, "duration": 38, "velocity": 82}, {"time": 153, "pitch": 59, "duration": 14, "velocity": 78}, {"time": 159, "pitch": 54, "duration": 7, "velocity": 74}, {"time": 165, "pitch": 61, "duration": 6, "velocity": 70}, {"time": 171, "pitch": 54, "duration": 7, "velocity": 68}, {"time": 177, "pitch": 63, "duration": 12, "velocity": 82}, {"time": 189, "pitch": 59, "duration": 3, "velocity": 76}, {"time": 201, "pitch": 40, "duration": 20, "velocity": 76}, {"time": 201, "pitch": 56, "duration": 12, "velocity": 68}, {"time": 207, "pitch": 47, "duration": 16, "velocity": 70}, {"time": 213, "pitch": 52, "duration": 7, "velocity": 82}, {"time": 219, "pitch": 56, "duration": 7, "velocity": 81}, {"time": 225, "pitch": 42, "duration": 17, "velocity": 72}, {"time": 225, "pitch": 58, "duration": 13, "velocity": 76}, {"time": 231, "pitch": 49, "duration": 13, "velocity": 74}, {"time": 237, "pitch": 54, "duration": 3, "velocity": 67}, {"time": 249, "pitch": 44, "duration": 14, "velocity": 77}, {"time": 249, "pitch": 56, "duration": 7, "velocity": 67}, {"time": 249, "pitch": 59, "duration": 12, "velocity": 68}, {"time": 255, "pitch": 51, "duration": 8, "velocity": 67}, {"time": 261, "pitch": 56, "duration": 3, "velocity": 67}, {"time": 273, "pitch": 37, "duration": 17, "velocity": 69}, {"time": 273, "pitch": 53, "duration": 17, "velocity": 70}, {"time": 273, "pitch": 56, "duration": 25, "velocity": 69}, {"time": 297, "pitch": 37, "duration": 17, "velocity": 81}, {"time": 297, "pitch": 56, "duration": 1, "velocity": 71}, {"time": 303, "pitch": 44, "duration": 10, "velocity": 56}, {"time": 309, "pitch": 52, "duration": 8, "velocity": 81}, {"time": 315, "pitch": 56, "duration": 7, "velocity": 75}, {"time": 321, "pitch": 39, "duration": 14, "velocity": 81}, {"time": 321, "pitch": 58, "duration": 11, "velocity": 74}, {"time": 327, "pitch": 46, "duration": 8, "velocity": 68}, {"time": 333, "pitch": 54, "duration": 3, "velocity": 82}, {"time": 345, "pitch": 44, "duration": 38, "velocity": 78}, {"time": 345, "pitch": 56, "duration": 8, "velocity": 70}, {"time": 351, "pitch": 51, "duration": 32, "velocity": 73}, {"time": 357, "pitch": 56, "duration": 8, "velocity": 82}, {"time": 363, "pitch": 61, "duration": 4, "velocity": 77}, {"time": 369, "pitch": 56, "duration": 22, "velocity": 69}, {"time": 369, "pitch": 60, "duration": 22, "velocity": 68}, {"time": 393, "pitch": 40, "duration": 20, "velocity": 81}, {"time": 393, "pitch": 59, "duration": 13, "velocity": 78}, {"time": 399, "pitch": 47, "duration": 14, "velocity": 63}, {"time": 405, "pitch": 52, "duration": 6, "velocity": 65}, {"time": 411, "pitch": 56, "duration": 6, "velocity": 81}, {"time": 417, "pitch": 42, "duration": 15, "velocity": 81}, {"time": 417, "pitch": 58, "duration": 11, "velocity": 77}, {"time": 423, "pitch": 49, "duration": 9, "velocity": 70}, {"time": 429, "pitch": 54, "duration": 4, "velocity": 82}, {"time": 435, "pitch": 42, "duration": 4, "velocity": 77}, {"time": 441, "pitch": 44, "duration": 19, "velocity": 79}, {"time": 441, "pitch": 56, "duration": 8, "velocity": 71}, {"time": 441, "pitch": 59, "duration": 6, "velocity": 75}, {"time": 447, "pitch": 51, "duration": 8, "velocity": 75}, {"time": 453, "pitch": 56, "duration": 7, "velocity": 83}, {"time": 459, "pitch": 51, "duration": 8, "velocity": 74}, {"time": 465, "pitch": 59, "duration": 5, "velocity": 70}, {"time": 465, "pitch": 63, "duration": 5, "velocity": 82}, {"time": 471, "pitch": 51, "duration": 13, "velocity": 68}, {"time": 477, "pitch": 56, "duration": 4, "velocity": 70}, {"time": 477, "pitch": 59, "duration": 6, "velocity": 73}, {"time": 483, "pitch": 58, "duration": 6, "velocity": 68}, {"time": 489, "pitch": 40, "duration": 20, "velocity": 73}, {"time": 489, "pitch": 59, "duration": 12, "velocity": 73}, {"time": 495, "pitch": 47, "duration": 14, "velocity": 70}, {"time": 501, "pitch": 52, "duration": 7, "velocity": 83}, {"time": 507, "pitch": 59, "duration": 6, "velocity": 79}, {"time": 513, "pitch": 42, "duration": 19, "velocity": 81}, {"time": 513, "pitch": 58, "duration": 10, "velocity": 79}, {"time": 519, "pitch": 49, "duration": 10, "velocity": 68}, {"time": 525, "pitch": 54, "duration": 2, "velocity": 76}, {"time": 537, "pitch": 47, "duration": 17, "velocity": 75}, {"time": 537, "pitch": 54, "duration": 4, "velocity": 75}, {"time": 537, "pitch": 63, "duration": 12, "velocity": 81}, {"time": 543, "pitch": 54, "duration": 7, "velocity": 74}, {"time": 549, "pitch": 61, "duration": 11, "velocity": 76}, {"time": 555, "pitch": 54, "duration": 4, "velocity": 81}, {"time": 561, "pitch": 47, "duration": 14, "velocity": 75}, {"time": 561, "pitch": 59, "duration": 6, "velocity": 77}, {"time": 567, "pitch": 54, "duration": 6, "velocity": 80}, {"time": 573, "pitch": 58, "duration": 4, "velocity": 82}, {"time": 585, "pitch": 40, "duration": 19, "velocity": 80}, {"time": 585, "pitch": 52, "duration": 7, "velocity": 72}, {"time": 585, "pitch": 56, "duration": 12, "velocity": 71}, {"time": 591, "pitch": 47, "duration": 14, "velocity": 81}, {"time": 597, "pitch": 52, "duration": 6, "velocity": 86}, {"time": 603, "pitch": 59, "duration": 6, "velocity": 74}, {"time": 609, "pitch": 42, "duration": 16, "velocity": 81}, {"time": 609, "pitch": 54, "duration": 8, "velocity": 75}, {"time": 609, "pitch": 58, "duration": 7, "velocity": 76}, {"time": 615, "pitch": 49, "duration": 11, "velocity": 73}, {"time": 621, "pitch": 54, "duration": 2, "velocity": 82}, {"time": 633, "pitch": 44, "duration": 15, "velocity": 79}, {"time": 633, "pitch": 56, "duration": 6, "velocity": 71}, {"time": 633, "pitch": 59, "duration": 11, "velocity": 73}, {"time": 639, "pitch": 51, "duration": 7, "velocity": 75}, {"time": 645, "pitch": 56, "duration": 7, "velocity": 84}, {"time": 651, "pitch": 59, "duration": 2, "velocity": 77}, {"time": 657, "pitch": 37, "duration": 17, "velocity": 79}, {"time": 657, "pitch": 53, "duration": 12, "velocity": 71}, {"time": 663, "pitch": 44, "duration": 9, "velocity": 69}, {"time": 669, "pitch": 56, "duration": 5, "velocity": 72}, {"time": 681, "pitch": 37, "duration": 21, "velocity": 83}, {"time": 681, "pitch": 52, "duration": 8, "velocity": 68}, {"time": 681, "pitch": 56, "duration": 14, "velocity": 73}, {"time": 687, "pitch": 44, "duration": 15, "velocity": 67}, {"time": 693, "pitch": 61, "duration": 17, "velocity": 80}, {"time": 699, "pitch": 52, "duration": 6, "velocity": 73}, {"time": 699, "pitch": 56, "duration": 5, "velocity": 29}, {"time": 705, "pitch": 39, "duration": 15, "velocity": 83}, {"time": 711, "pitch": 46, "duration": 9, "velocity": 76}, {"time": 717, "pitch": 54, "duration": 9, "velocity": 78}, {"time": 723, "pitch": 51, "duration": 3, "velocity": 77}, {"time": 729, "pitch": 44, "duration": 20, "velocity": 81}, {"time": 729, "pitch": 56, "duration": 7, "velocity": 72}, {"time": 729, "pitch": 61, "duration": 11, "velocity": 74}, {"time": 735, "pitch": 51, "duration": 14, "velocity": 72}, {"time": 741, "pitch": 56, "duration": 7, "velocity": 82}, {"time": 747, "pitch": 61, "duration": 5, "velocity": 70}, {"time": 753, "pitch": 44, "duration": 18, "velocity": 81}, {"time": 753, "pitch": 56, "duration": 9, "velocity": 71}, {"time": 753, "pitch": 60, "duration": 6, "velocity": 75}, {"time": 759, "pitch": 51, "duration": 10, "velocity": 76}, {"time": 765, "pitch": 56, "duration": 3, "velocity": 75}, {"time": 765, "pitch": 63, "duration": 12, "velocity": 82}, {"time": 771, "pitch": 56, "duration": 6, "velocity": 80}, {"time": 777, "pitch": 40, "duration": 20, "velocity": 81}, {"time": 777, "pitch": 59, "duration": 13, "velocity": 78}, {"time": 783, "pitch": 47, "duration": 14, "velocity": 63}, {"time": 789, "pitch": 52, "duration": 6, "velocity": 65}, {"time": 795, "pitch": 56, "duration": 6, "velocity": 81}, {"time": 801, "pitch": 42, "duration": 15, "velocity": 81}, {"time": 801, "pitch": 58, "duration": 11, "velocity": 77}, {"time": 807, "pitch": 49, "duration": 9, "velocity": 70}, {"time": 813, "pitch": 54, "duration": 4, "velocity": 82}, {"time": 819, "pitch": 42, "duration": 4, "velocity": 77}, {"time": 825, "pitch": 44, "duration": 19, "velocity": 79}, {"time": 825, "pitch": 56, "duration": 8, "velocity": 71}, {"time": 825, "pitch": 59, "duration": 6, "velocity": 75}, {"time": 831, "pitch": 51, "duration": 8, "velocity": 75}, {"time": 837, "pitch": 56, "duration": 7, "velocity": 83}, {"time": 843, "pitch": 51, "duration": 8, "velocity": 74}, {"time": 849, "pitch": 59, "duration": 5, "velocity": 70}, {"time": 849, "pitch": 63, "duration": 5, "velocity": 82}, {"time": 855, "pitch": 51, "duration": 13, "velocity": 68}, {"time": 861, "pitch": 56, "duration": 4, "velocity": 70}, {"time": 861, "pitch": 59, "duration": 6, "velocity": 73}, {"time": 867, "pitch": 58, "duration": 6, "velocity": 68}, {"time": 873, "pitch": 40, "duration": 20, "velocity": 73}, {"time": 873, "pitch": 59, "duration": 12, "velocity": 73}, {"time": 879, "pitch": 47, "duration": 14, "velocity": 70}, {"time": 885, "pitch": 52, "duration": 7, "velocity": 83}, {"time": 891, "pitch": 59, "duration": 6, "velocity": 79}, {"time": 897, "pitch": 42, "duration": 19, "velocity": 81}, {"time": 897, "pitch": 58, "duration": 10, "velocity": 79}, {"time": 903, "pitch": 49, "duration": 10, "velocity": 68}, {"time": 909, "pitch": 54, "duration": 2, "velocity": 76}, {"time": 921, "pitch": 47, "duration": 17, "velocity": 75}, {"time": 921, "pitch": 54, "duration": 4, "velocity": 75}, {"time": 921, "pitch": 63, "duration": 12, "velocity": 81}, {"time": 927, "pitch": 54, "duration": 7, "velocity": 74}, {"time": 933, "pitch": 61, "duration": 11, "velocity": 76}, {"time": 939, "pitch": 54, "duration": 4, "velocity": 81}, {"time": 945, "pitch": 47, "duration": 14, "velocity": 75}, {"time": 945, "pitch": 59, "duration": 6, "velocity": 77}, {"time": 951, "pitch": 54, "duration": 6, "velocity": 80}, {"time": 957, "pitch": 58, "duration": 4, "velocity": 82}, {"time": 969, "pitch": 40, "duration": 13, "velocity": 82}, {"time": 969, "pitch": 52, "duration": 12, "velocity": 75}, {"time": 969, "pitch": 59, "duration": 12, "velocity": 81}, {"time": 975, "pitch": 47, "duration": 7, "velocity": 75}, {"time": 981, "pitch": 56, "duration": 1, "velocity": 84}, {"time": 993, "pitch": 43, "duration": 13, "velocity": 81}, {"time": 993, "pitch": 55, "duration": 3, "velocity": 71}, {"time": 993, "pitch": 58, "duration": 8, "velocity": 80}, {"time": 993, "pitch": 61, "duration": 8, "velocity": 75}, {"time": 999, "pitch": 55, "duration": 7, "velocity": 74}, {"time": 1005, "pitch": 61, "duration": 5, "velocity": 81}, {"time": 1017, "pitch": 44, "duration": 9, "velocity": 81}, {"time": 1017, "pitch": 56, "duration": 3, "velocity": 69}, {"time": 1017, "pitch": 59, "duration": 7, "velocity": 76}, {"time": 1023, "pitch": 56, "duration": 4, "velocity": 82}, {"time": 1029, "pitch": 42, "duration": 5, "velocity": 77}, {"time": 1029, "pitch": 54, "duration": 5, "velocity": 82}, {"time": 1029, "pitch": 58, "duration": 4, "velocity": 83}, {"time": 1041, "pitch": 41, "duration": 12, "velocity": 73}, {"time": 1041, "pitch": 53, "duration": 2, "velocity": 68}, {"time": 1041, "pitch": 56, "duration": 13, "velocity": 76}, {"time": 1047, "pitch": 53, "duration": 7, "velocity": 63}, {"time": 1053, "pitch": 59, "duration": 4, "velocity": 62}, {"time": 1065, "pitch": 40, "duration": 16, "velocity": 79}, {"time": 1065, "pitch": 56, "duration": 11, "velocity": 70}, {"time": 1065, "pitch": 59, "duration": 18, "velocity": 74}, {"time": 1071, "pitch": 47, "duration": 11, "velocity": 78}, {"time": 1077, "pitch": 64, "duration": 22, "velocity": 77}, {"time": 1083, "pitch": 56, "duration": 3, "velocity": 71}, {"time": 1089, "pitch": 42, "duration": 15, "velocity": 81}, {"time": 1089, "pitch": 54, "duration": 9, "velocity": 76}, {"time": 1089, "pitch": 58, "duration": 9, "velocity": 74}, {"time": 1095, "pitch": 49, "duration": 9, "velocity": 77}, {"time": 1101, "pitch": 54, "duration": 2, "velocity": 74}, {"time": 1101, "pitch": 58, "duration": 3, "velocity": 74}, {"time": 1101, "pitch": 61, "duration": 3, "velocity": 72}, {"time": 1113, "pitch": 35, "duration": 22, "velocity": 80}, {"time": 1113, "pitch": 59, "duration": 5, "velocity": 81}, {"time": 1113, "pitch": 64, "duration": 8, "velocity": 74}, {"time": 1119, "pitch": 54, "duration": 5, "velocity": 68}, {"time": 1125, "pitch": 59, "duration": 9, "velocity": 82}, {"time": 1125, "pitch": 64, "duration": 9, "velocity": 83}, {"time": 1131, "pitch": 54, "duration": 8, "velocity": 80}, {"time": 1137, "pitch": 35, "duration": 22, "velocity": 76}, {"time": 1137, "pitch": 59, "duration": 8, "velocity": 73}, {"time": 1137, "pitch": 63, "duration": 8, "velocity": 77}, {"time": 1143, "pitch": 42, "duration": 15, "velocity": 57}, {"time": 1149, "pitch": 54, "duration": 14, "velocity": 77}, {"time": 1149, "pitch": 61, "duration": 8, "velocity": 78}, {"time": 1155, "pitch": 59, "duration": 9, "velocity": 74}, {"time": 1161, "pitch": 35, "duration": 45, "velocity": 77}, {"time": 1167, "pitch": 42, "duration": 23, "velocity": 68}, {"time": 1173, "pitch": 54, "duration": 8, "velocity": 76}, {"time": 1179, "pitch": 61, "duration": 3, "velocity": 77}, {"time": 1185, "pitch": 54, "duration": 3, "velocity": 78}, {"time": 1185, "pitch": 59, "duration": 7, "velocity": 82}, {"time": 1185, "pitch": 63, "duration": 13, "velocity": 82}, {"time": 1191, "pitch": 54, "duration": 3, "velocity": 84}, {"time": 1197, "pitch": 54, "duration": 3, "velocity": 83}, {"time": 1197, "pitch": 59, "duration": 11, "velocity": 86}, {"time": 1203, "pitch": 54, "duration": 6, "velocity": 81}, {"time": 1209, "pitch": 35, "duration": 12, "velocity": 74}, {"time": 1209, "pitch": 54, "duration": 3, "velocity": 80}, {"time": 1209, "pitch": 63, "duration": 13, "velocity": 82}, {"time": 1215, "pitch": 54, "duration": 7, "velocity": 78}, {"time": 1221, "pitch": 59, "duration": 2, "velocity": 85}, {"time": 1233, "pitch": 40, "duration": 20, "velocity": 82}, {"time": 1233, "pitch": 52, "duration": 13, "velocity": 74}, {"time": 1233, "pitch": 59, "duration": 13, "velocity": 76}, {"time": 1239, "pitch": 47, "duration": 13, "velocity": 77}, {"time": 1245, "pitch": 56, "duration": 6, "velocity": 82}, {"time": 1251, "pitch": 52, "duration": 4, "velocity": 82}, {"time": 1257, "pitch": 39, "duration": 17, "velocity": 83}, {"time": 1257, "pitch": 51, "duration": 8, "velocity": 82}, {"time": 1257, "pitch": 54, "duration": 7, "velocity": 82}, {"time": 1263, "pitch": 46, "duration": 12, "velocity": 75}, {"time": 1269, "pitch": 51, "duration": 5, "velocity": 82}, {"time": 1269, "pitch": 58, "duration": 6, "velocity": 80}, {"time": 1275, "pitch": 61, "duration": 6, "velocity": 82}, {"time": 1281, "pitch": 44, "duration": 21, "velocity": 82}, {"time": 1281, "pitch": 59, "duration": 7, "velocity": 82}, {"time": 1287, "pitch": 51, "duration": 16, "velocity": 80}, {"time": 1293, "pitch": 56, "duration": 6, "velocity": 77}, {"time": 1293, "pitch": 59, "duration": 7, "velocity": 82}, {"time": 1305, "pitch": 37, "duration": 14, "velocity": 83}, {"time": 1305, "pitch": 64, "duration": 14, "velocity": 79}, {"time": 1311, "pitch": 44, "duration": 7, "velocity": 71}, {"time": 1317, "pitch": 56, "duration": 6, "velocity": 85}, {"time": 1329, "pitch": 42, "duration": 19, "velocity": 81}, {"time": 1329, "pitch": 61, "duration": 8, "velocity": 78}, {"time": 1335, "pitch": 49, "duration": 10, "velocity": 79}, {"time": 1341, "pitch": 54, "duration": 3, "velocity": 81}, {"time": 1341, "pitch": 58, "duration": 5, "velocity": 82}, {"time": 1347, "pitch": 54, "duration": 7, "velocity": 81}, {"time": 1353, "pitch": 47, "duration": 21, "velocity": 82}, {"time": 1353, "pitch": 59, "duration": 7, "velocity": 83}, {"time": 1359, "pitch": 54, "duration": 7, "velocity": 83}, {"time": 1365, "pitch": 61, "duration": 6, "velocity": 82}, {"time": 1371, "pitch": 54, "duration": 5, "velocity": 81}, {"time": 1377, "pitch": 47, "duration": 17, "velocity": 81}, {"time": 1377, "pitch": 54, "duration": 1, "velocity": 49}, {"time": 1377, "pitch": 57, "duration": 7, "velocity": 76}, {"time": 1377, "pitch": 63, "duration": 9, "velocity": 82}, {"time": 1383, "pitch": 54, "duration": 4, "velocity": 83}, {"time": 1389, "pitch": 54, "duration": 2, "velocity": 82}, {"time": 1389, "pitch": 59, "duration": 7, "velocity": 83}, {"time": 1395, "pitch": 54, "duration": 2, "velocity": 82}, {"time": 1401, "pitch": 40, "duration": 20, "velocity": 82}, {"time": 1401, "pitch": 52, "duration": 8, "velocity": 79}, {"time": 1401, "pitch": 56, "duration": 12, "velocity": 76}, {"time": 1407, "pitch": 47, "duration": 15, "velocity": 81}, {"time": 1413, "pitch": 52, "duration": 7, "velocity": 83}, {"time": 1419, "pitch": 56, "duration": 5, "velocity": 85}, {"time": 1425, "pitch": 42, "duration": 19, "velocity": 82}, {"time": 1425, "pitch": 54, "duration": 8, "velocity": 77}, {"time": 1425, "pitch": 58, "duration": 12, "velocity": 76}, {"time": 1431, "pitch": 49, "duration": 13, "velocity": 78}, {"time": 1437, "pitch": 54, "duration": 4, "velocity": 84}, {"time": 1449, "pitch": 43, "duration": 14, "velocity": 92}, {"time": 1449, "pitch": 55, "duration": 6, "velocity": 92}, {"time": 1455, "pitch": 51, "duration": 5, "velocity": 88}, {"time": 1461, "pitch": 58, "duration": 7, "velocity": 86}, {"time": 1467, "pitch": 51, "duration": 2, "velocity": 87}, {"time": 1473, "pitch": 44, "duration": 17, "velocity": 82}, {"time": 1473, "pitch": 56, "duration": 8, "velocity": 73}, {"time": 1473, "pitch": 59, "duration": 13, "velocity": 78}, {"time": 1479, "pitch": 51, "duration": 10, "velocity": 83}, {"time": 1485, "pitch": 56, "duration": 4, "velocity": 81}, {"time": 1497, "pitch": 40, "duration": 21, "velocity": 71}, {"time": 1497, "pitch": 42, "duration": 2, "velocity": 42}, {"time": 1497, "pitch": 52, "duration": 7, "velocity": 70}, {"time": 1497, "pitch": 56, "duration": 12, "velocity": 73}, {"time": 1503, "pitch": 47, "duration": 15, "velocity": 82}, {"time": 1509, "pitch": 52, "duration": 7, "velocity": 86}, {"time": 1515, "pitch": 56, "duration": 6, "velocity": 85}, {"time": 1521, "pitch": 42, "duration": 14, "velocity": 79}, {"time": 1521, "pitch": 58, "duration": 9, "velocity": 78}, {"time": 1527, "pitch": 49, "duration": 7, "velocity": 74}, {"time": 1533, "pitch": 54, "duration": 2, "velocity": 73}, {"time": 1533, "pitch": 58, "duration": 2, "velocity": 76}, {"time": 1545, "pitch": 35, "duration": 48, "velocity": 76}, {"time": 1545, "pitch": 54, "duration": 4, "velocity": 74}, {"time": 1545, "pitch": 61, "duration": 10, "velocity": 77}, {"time": 1551, "pitch": 42, "duration": 41, "velocity": 58}, {"time": 1551, "pitch": 54, "duration": 5, "velocity": 76}, {"time": 1557, "pitch": 59, "duration": 6, "velocity": 76}, {"time": 1563, "pitch": 54, "duration": 7, "velocity": 82}, {"time": 1569, "pitch": 59, "duration": 5, "velocity": 76}, {"time": 1569, "pitch": 63, "duration": 5, "velocity": 82}, {"time": 1575, "pitch": 54, "duration": 4, "velocity": 67}, {"time": 1581, "pitch": 54, "duration": 8, "velocity": 51}, {"time": 1581, "pitch": 59, "duration": 11, "velocity": 72}, {"time": 1591, "pitch": 52, "duration": 9, "velocity": 63}, {"time": 1592, "pitch": 56, "duration": 14, "velocity": 61}, {"time": 1592, "pitch": 40, "duration": 39, "velocity": 81}, {"time": 1593, "pitch": 59, "duration": 21, "velocity": 70}, {"time": 1594, "pitch": 64, "duration": 20, "velocity": 64}, {"time": 1598, "pitch": 47, "duration": 37, "velocity": 72}, {"time": 1603, "pitch": 52, "duration": 16, "velocity": 73}, {"time": 1609, "pitch": 56, "duration": 20, "velocity": 76}, {"time": 1616, "pitch": 64, "duration": 13, "velocity": 77}, {"time": 1622, "pitch": 52, "duration": 7, "velocity": 76}, {"time": 1628, "pitch": 59, "duration": 2, "velocity": 72}, {"time": 1638, "pitch": 51, "duration": 5, "velocity": 70}, {"time": 1639, "pitch": 54, "duration": 8, "velocity": 74}, {"time": 1640, "pitch": 39, "duration": 24, "velocity": 81}, {"time": 1641, "pitch": 59, "duration": 13, "velocity": 81}, {"time": 1646, "pitch": 51, "duration": 13, "velocity": 79}, {"time": 1653, "pitch": 54, "duration": 7, "velocity": 69}, {"time": 1659, "pitch": 59, "duration": 12, "velocity": 71}, {"time": 1665, "pitch": 54, "duration": 6, "velocity": 66}, {"time": 1670, "pitch": 51, "duration": 6, "velocity": 66}, {"time": 1686, "pitch": 52, "duration": 4, "velocity": 69}, {"time": 1687, "pitch": 56, "duration": 15, "velocity": 72}, {"time": 1688, "pitch": 59, "duration": 14, "velocity": 70}, {"time": 1689, "pitch": 40, "duration": 31, "velocity": 81}, {"time": 1689, "pitch": 64, "duration": 13, "velocity": 78}, {"time": 1694, "pitch": 47, "duration": 24, "velocity": 74}, {"time": 1701, "pitch": 52, "duration": 10, "velocity": 76}, {"time": 1706, "pitch": 59, "duration": 19, "velocity": 74}, {"time": 1711, "pitch": 56, "duration": 7, "velocity": 69}, {"time": 1717, "pitch": 52, "duration": 8, "velocity": 68}, {"time": 1724, "pitch": 56, "duration": 2, "velocity": 70}, {"time": 1733, "pitch": 51, "duration": 6, "velocity": 69}, {"time": 1735, "pitch": 54, "duration": 8, "velocity": 74}, {"time": 1736, "pitch": 35, "duration": 40, "velocity": 81}, {"time": 1737, "pitch": 59, "duration": 13, "velocity": 77}, {"time": 1742, "pitch": 51, "duration": 13, "velocity": 76}, {"time": 1749, "pitch": 54, "duration": 12, "velocity": 75}, {"time": 1754, "pitch": 42, "duration": 21, "velocity": 57}, {"time": 1760, "pitch": 51, "duration": 7, "velocity": 75}, {"time": 1766, "pitch": 54, "duration": 4, "velocity": 70}, {"time": 1772, "pitch": 54, "duration": 12, "velocity": 77}, {"time": 1772, "pitch": 59, "duration": 12, "velocity": 77}, {"time": 1778, "pitch": 51, "duration": 6, "velocity": 81}, {"time": 1785, "pitch": 40, "duration": 20, "velocity": 81}, {"time": 1785, "pitch": 59, "duration": 13, "velocity": 78}, {"time": 1791, "pitch": 47, "duration": 14, "velocity": 63}, {"time": 1797, "pitch": 52, "duration": 6, "velocity": 65}, {"time": 1803, "pitch": 56, "duration": 6, "velocity": 81}, {"time": 1809, "pitch": 42, "duration": 15, "velocity": 81}, {"time": 1809, "pitch": 58, "duration": 11, "velocity": 77}, {"time": 1815, "pitch": 49, "duration": 9, "velocity": 70}, {"time": 1821, "pitch": 54, "duration": 4, "velocity": 82}, {"time": 1827, "pitch": 42, "duration": 4, "velocity": 77}, {"time": 1833, "pitch": 44, "duration": 19, "velocity": 79}, {"time": 1833, "pitch": 56, "duration": 8, "velocity": 71}, {"time": 1833, "pitch": 59, "duration": 6, "velocity": 75}, {"time": 1839, "pitch": 51, "duration": 8, "velocity": 75}, {"time": 1845, "pitch": 56, "duration": 7, "velocity": 83}, {"time": 1851, "pitch": 51, "duration": 8, "velocity": 74}, {"time": 1857, "pitch": 59, "duration": 5, "velocity": 70}, {"time": 1857, "pitch": 63, "duration": 5, "velocity": 82}, {"time": 1863, "pitch": 51, "duration": 13, "velocity": 68}, {"time": 1869, "pitch": 56, "duration": 4, "velocity": 70}, {"time": 1869, "pitch": 59, "duration": 6, "velocity": 73}, {"time": 1875, "pitch": 58, "duration": 6, "velocity": 68}, {"time": 1881, "pitch": 40, "duration": 20, "velocity": 73}, {"time": 1881, "pitch": 59, "duration": 12, "velocity": 73}, {"time": 1887, "pitch": 47, "duration": 14, "velocity": 70}, {"time": 1893, "pitch": 52, "duration": 7, "velocity": 83}, {"time": 1899, "pitch": 59, "duration": 6, "velocity": 79}, {"time": 1905, "pitch": 42, "duration": 19, "velocity": 81}, {"time": 1905, "pitch": 58, "duration": 10, "velocity": 79}, {"time": 1911, "pitch": 49, "duration": 10, "velocity": 68}, {"time": 1917, "pitch": 54, "duration": 2, "velocity": 76}, {"time": 1929, "pitch": 47, "duration": 17, "velocity": 75}, {"time": 1929, "pitch": 54, "duration": 4, "velocity": 75}, {"time": 1929, "pitch": 63, "duration": 12, "velocity": 81}, {"time": 1935, "pitch": 54, "duration": 7, "velocity": 74}, {"time": 1941, "pitch": 61, "duration": 11, "velocity": 76}, {"time": 1947, "pitch": 54, "duration": 4, "velocity": 81}, {"time": 1953, "pitch": 47, "duration": 14, "velocity": 75}, {"time": 1953, "pitch": 59, "duration": 6, "velocity": 77}, {"time": 1959, "pitch": 54, "duration": 6, "velocity": 80}, {"time": 1965, "pitch": 58, "duration": 4, "velocity": 82}, {"time": 1977, "pitch": 40, "duration": 19, "velocity": 80}, {"time": 1977, "pitch": 52, "duration": 7, "velocity": 72}, {"time": 1977, "pitch": 56, "duration": 12, "velocity": 71}, {"time": 1983, "pitch": 47, "duration": 14, "velocity": 81}, {"time": 1989, "pitch": 52, "duration": 6, "velocity": 86}, {"time": 1995, "pitch": 59, "duration": 6, "velocity": 74}, {"time": 2001, "pitch": 42, "duration": 16, "velocity": 81}, {"time": 2001, "pitch": 54, "duration": 8, "velocity": 75}, {"time": 2001, "pitch": 58, "duration": 7, "velocity": 76}, {"time": 2007, "pitch": 49, "duration": 11, "velocity": 73}, {"time": 2013, "pitch": 54, "duration": 2, "velocity": 82}, {"time": 2025, "pitch": 44, "duration": 15, "velocity": 79}, {"time": 2025, "pitch": 56, "duration": 6, "velocity": 71}, {"time": 2025, "pitch": 59, "duration": 11, "velocity": 73}, {"time": 2031, "pitch": 51, "duration": 7, "velocity": 75}, {"time": 2037, "pitch": 56, "duration": 7, "velocity": 84}, {"time": 2043, "pitch": 59, "duration": 2, "velocity": 77}, {"time": 2049, "pitch": 37, "duration": 17, "velocity": 79}, {"time": 2049, "pitch": 53, "duration": 12, "velocity": 71}, {"time": 2055, "pitch": 44, "duration": 9, "velocity": 69}, {"time": 2061, "pitch": 56, "duration": 5, "velocity": 72}, {"time": 2073, "pitch": 37, "duration": 21, "velocity": 83}, {"time": 2073, "pitch": 52, "duration": 8, "velocity": 68}, {"time": 2073, "pitch": 56, "duration": 14, "velocity": 73}, {"time": 2079, "pitch": 44, "duration": 15, "velocity": 67}, {"time": 2085, "pitch": 61, "duration": 17, "velocity": 80}, {"time": 2091, "pitch": 52, "duration": 6, "velocity": 73}, {"time": 2091, "pitch": 56, "duration": 5, "velocity": 29}, {"time": 2097, "pitch": 39, "duration": 15, "velocity": 83}, {"time": 2103, "pitch": 46, "duration": 9, "velocity": 76}, {"time": 2109, "pitch": 54, "duration": 9, "velocity": 78}, {"time": 2115, "pitch": 51, "duration": 3, "velocity": 77}, {"time": 2121, "pitch": 44, "duration": 20, "velocity": 81}, {"time": 2121, "pitch": 56, "duration": 7, "velocity": 72}, {"time": 2121, "pitch": 61, "duration": 11, "velocity": 74}, {"time": 2127, "pitch": 51, "duration": 14, "velocity": 72}, {"time": 2133, "pitch": 56, "duration": 7, "velocity": 82}, {"time": 2139, "pitch": 61, "duration": 5, "velocity": 70}, {"time": 2145, "pitch": 44, "duration": 18, "velocity": 81}, {"time": 2145, "pitch": 56, "duration": 9, "velocity": 71}, {"time": 2145, "pitch": 60, "duration": 6, "velocity": 75}, {"time": 2151, "pitch": 51, "duration": 10, "velocity": 76}, {"time": 2157, "pitch": 56, "duration": 3, "velocity": 75}, {"time": 2157, "pitch": 63, "duration": 12, "velocity": 82}, {"time": 2163, "pitch": 56, "duration": 6, "velocity": 80}, {"time": 2169, "pitch": 40, "duration": 20, "velocity": 81}, {"time": 2169, "pitch": 59, "duration": 13, "velocity": 78}, {"time": 2175, "pitch": 47, "duration": 14, "velocity": 63}, {"time": 2181, "pitch": 52, "duration": 6, "velocity": 65}, {"time": 2187, "pitch": 56, "duration": 6, "velocity": 81}, {"time": 2193, "pitch": 42, "duration": 15, "velocity": 81}, {"time": 2193, "pitch": 58, "duration": 11, "velocity": 77}, {"time": 2199, "pitch": 49, "duration": 9, "velocity": 70}, {"time": 2205, "pitch": 54, "duration": 4, "velocity": 82}, {"time": 2211, "pitch": 42, "duration": 4, "velocity": 77}, {"time": 2217, "pitch": 44, "duration": 19, "velocity": 79}, {"time": 2217, "pitch": 56, "duration": 8, "velocity": 71}, {"time": 2217, "pitch": 59, "duration": 6, "velocity": 75}, {"time": 2223, "pitch": 51, "duration": 8, "velocity": 75}, {"time": 2229, "pitch": 56, "duration": 7, "velocity": 83}, {"time": 2235, "pitch": 51, "duration": 8, "velocity": 74}, {"time": 2241, "pitch": 59, "duration": 5, "velocity": 70}, {"time": 2241, "pitch": 63, "duration": 5, "velocity": 82}, {"time": 2247, "pitch": 51, "duration": 13, "velocity": 68}, {"time": 2253, "pitch": 56, "duration": 4, "velocity": 70}, {"time": 2253, "pitch": 59, "duration": 6, "velocity": 73}, {"time": 2259, "pitch": 58, "duration": 6, "velocity": 68}, {"time": 2265, "pitch": 40, "duration": 20, "velocity": 73}, {"time": 2265, "pitch": 59, "duration": 12, "velocity": 73}, {"time": 2271, "pitch": 47, "duration": 14, "velocity": 70}, {"time": 2277, "pitch": 52, "duration": 7, "velocity": 83}, {"time": 2283, "pitch": 59, "duration": 6, "velocity": 79}, {"time": 2289, "pitch": 42, "duration": 19, "velocity": 81}, {"time": 2289, "pitch": 58, "duration": 10, "velocity": 79}, {"time": 2295, "pitch": 49, "duration": 10, "velocity": 68}, {"time": 2301, "pitch": 54, "duration": 2, "velocity": 76}, {"time": 2313, "pitch": 47, "duration": 17, "velocity": 75}, {"time": 2313, "pitch": 54, "duration": 4, "velocity": 75}, {"time": 2313, "pitch": 63, "duration": 12, "velocity": 81}, {"time": 2319, "pitch": 54, "duration": 7, "velocity": 74}, {"time": 2325, "pitch": 61, "duration": 11, "velocity": 76}, {"time": 2331, "pitch": 54, "duration": 4, "velocity": 81}, {"time": 2337, "pitch": 47, "duration": 14, "velocity": 75}, {"time": 2337, "pitch": 59, "duration": 6, "velocity": 77}, {"time": 2343, "pitch": 54, "duration": 6, "velocity": 80}, {"time": 2349, "pitch": 58, "duration": 4, "velocity": 82}, {"time": 2361, "pitch": 40, "duration": 13, "velocity": 82}, {"time": 2361, "pitch": 52, "duration": 12, "velocity": 75}, {"time": 2361, "pitch": 59, "duration": 12, "velocity": 81}, {"time": 2367, "pitch": 47, "duration": 7, "velocity": 75}, {"time": 2373, "pitch": 56, "duration": 1, "velocity": 84}, {"time": 2385, "pitch": 43, "duration": 13, "velocity": 81}, {"time": 2385, "pitch": 55, "duration": 3, "velocity": 71}, {"time": 2385, "pitch": 58, "duration": 8, "velocity": 80}, {"time": 2385, "pitch": 61, "duration": 8, "velocity": 75}, {"time": 2391, "pitch": 55, "duration": 7, "velocity": 74}, {"time": 2397, "pitch": 61, "duration": 5, "velocity": 81}, {"time": 2409, "pitch": 44, "duration": 9, "velocity": 81}, {"time": 2409, "pitch": 56, "duration": 3, "velocity": 69}, {"time": 2409, "pitch": 59, "duration": 7, "velocity": 76}, {"time": 2415, "pitch": 56, "duration": 4, "velocity": 82}, {"time": 2421, "pitch": 42, "duration": 5, "velocity": 77}, {"time": 2421, "pitch": 54, "duration": 5, "velocity": 82}, {"time": 2421, "pitch": 58, "duration": 4, "velocity": 83}, {"time": 2433, "pitch": 41, "duration": 12, "velocity": 73}, {"time": 2433, "pitch": 53, "duration": 2, "velocity": 68}, {"time": 2433, "pitch": 56, "duration": 13, "velocity": 76}, {"time": 2439, "pitch": 53, "duration": 7, "velocity": 63}, {"time": 2445, "pitch": 59, "duration": 4, "velocity": 62}, {"time": 2457, "pitch": 40, "duration": 16, "velocity": 79}, {"time": 2457, "pitch": 56, "duration": 11, "velocity": 70}, {"time": 2457, "pitch": 59, "duration": 18, "velocity": 74}, {"time": 2463, "pitch": 47, "duration": 11, "velocity": 78}, {"time": 2469, "pitch": 64, "duration": 22, "velocity": 77}, {"time": 2475, "pitch": 56, "duration": 3, "velocity": 71}, {"time": 2481, "pitch": 42, "duration": 15, "velocity": 81}, {"time": 2481, "pitch": 54, "duration": 9, "velocity": 76}, {"time": 2481, "pitch": 58, "duration": 9, "velocity": 74}, {"time": 2487, "pitch": 49, "duration": 9, "velocity": 77}, {"time": 2493, "pitch": 54, "duration": 2, "velocity": 74}, {"time": 2493, "pitch": 58, "duration": 3, "velocity": 74}, {"time": 2493, "pitch": 61, "duration": 3, "velocity": 72}, {"time": 2505, "pitch": 35, "duration": 22, "velocity": 80}, {"time": 2505, "pitch": 59, "duration": 5, "velocity": 81}, {"time": 2505, "pitch": 64, "duration": 8, "velocity": 74}, {"time": 2511, "pitch": 54, "duration": 5, "velocity": 68}, {"time": 2517, "pitch": 59, "duration": 9, "velocity": 82}, {"time": 2517, "pitch": 64, "duration": 9, "velocity": 83}, {"time": 2523, "pitch": 54, "duration": 8, "velocity": 80}, {"time": 2529, "pitch": 35, "duration": 22, "velocity": 76}, {"time": 2529, "pitch": 59, "duration": 8, "velocity": 73}, {"time": 2529, "pitch": 63, "duration": 8, "velocity": 77}, {"time": 2535, "pitch": 42, "duration": 15, "velocity": 57}, {"time": 2541, "pitch": 54, "duration": 14, "velocity": 77}, {"time": 2541, "pitch": 61, "duration": 8, "velocity": 78}, {"time": 2547, "pitch": 59, "duration": 9, "velocity": 74}, {"time": 2553, "pitch": 35, "duration": 45, "velocity": 77}, {"time": 2559, "pitch": 42, "duration": 23, "velocity": 68}, {"time": 2565, "pitch": 54, "duration": 8, "velocity": 76}, {"time": 2571, "pitch": 61, "duration": 3, "velocity": 77}, {"time": 2577, "pitch": 54, "duration": 3, "velocity": 78}, {"time": 2577, "pitch": 59, "duration": 7, "velocity": 82}, {"time": 2577, "pitch": 63, "duration": 13, "velocity": 82}, {"time": 2583, "pitch": 54, "duration": 3, "velocity": 84}, {"time": 2589, "pitch": 54, "duration": 3, "velocity": 83}, {"time": 2589, "pitch": 59, "duration": 11, "velocity": 86}, {"time": 2595, "pitch": 54, "duration": 6, "velocity": 81}, {"time": 2601, "pitch": 35, "duration": 12, "velocity": 74}, {"time": 2601, "pitch": 54, "duration": 3, "velocity": 80}, {"time": 2601, "pitch": 63, "duration": 13, "velocity": 82}, {"time": 2607, "pitch": 54, "duration": 7, "velocity": 78}, {"time": 2613, "pitch": 59, "duration": 2, "velocity": 85}, {"time": 2625, "pitch": 40, "duration": 20, "velocity": 82}, {"time": 2625, "pitch": 52, "duration": 13, "velocity": 74}, {"time": 2625, "pitch": 59, "duration": 13, "velocity": 76}, {"time": 2631, "pitch": 47, "duration": 13, "velocity": 77}, {"time": 2637, "pitch": 56, "duration": 6, "velocity": 82}, {"time": 2643, "pitch": 52, "duration": 4, "velocity": 82}, {"time": 2649, "pitch": 39, "duration": 17, "velocity": 83}, {"time": 2649, "pitch": 51, "duration": 8, "velocity": 82}, {"time": 2649, "pitch": 54, "duration": 7, "velocity": 82}, {"time": 2655, "pitch": 46, "duration": 12, "velocity": 75}, {"time": 2661, "pitch": 51, "duration": 5, "velocity": 82}, {"time": 2661, "pitch": 58, "duration": 6, "velocity": 80}, {"time": 2667, "pitch": 61, "duration": 6, "velocity": 82}, {"time": 2673, "pitch": 44, "duration": 21, "velocity": 82}, {"time": 2673, "pitch": 59, "duration": 7, "velocity": 82}, {"time": 2679, "pitch": 51, "duration": 16, "velocity": 80}, {"time": 2685, "pitch": 56, "duration": 6, "velocity": 77}, {"time": 2685, "pitch": 59, "duration": 7, "velocity": 82}, {"time": 2697, "pitch": 37, "duration": 14, "velocity": 83}, {"time": 2697, "pitch": 64, "duration": 14, "velocity": 79}, {"time": 2703, "pitch": 44, "duration": 7, "velocity": 71}, {"time": 2709, "pitch": 56, "duration": 6, "velocity": 85}, {"time": 2721, "pitch": 42, "duration": 19, "velocity": 81}, {"time": 2721, "pitch": 61, "duration": 8, "velocity": 78}, {"time": 2727, "pitch": 49, "duration": 10, "velocity": 79}, {"time": 2733, "pitch": 54, "duration": 3, "velocity": 81}, {"time": 2733, "pitch": 58, "duration": 5, "velocity": 82}, {"time": 2739, "pitch": 54, "duration": 7, "velocity": 81}, {"time": 2745, "pitch": 47, "duration": 21, "velocity": 82}, {"time": 2745, "pitch": 59, "duration": 7, "velocity": 83}, {"time": 2751, "pitch": 54, "duration": 7, "velocity": 83}, {"time": 2757, "pitch": 61, "duration": 6, "velocity": 82}, {"time": 2763, "pitch": 54, "duration": 5, "velocity": 81}, {"time": 2769, "pitch": 47, "duration": 17, "velocity": 81}, {"time": 2769, "pitch": 54, "duration": 1, "velocity": 49}, {"time": 2769, "pitch": 57, "duration": 7, "velocity": 76}, {"time": 2769, "pitch": 63, "duration": 9, "velocity": 82}, {"time": 2775, "pitch": 54, "duration": 4, "velocity": 83}, {"time": 2781, "pitch": 54, "duration": 2, "velocity": 82}, {"time": 2781, "pitch": 59, "duration": 7, "velocity": 83}, {"time": 2787, "pitch": 54, "duration": 2, "velocity": 82}, {"time": 2793, "pitch": 40, "duration": 20, "velocity": 82}, {"time": 2793, "pitch": 52, "duration": 8, "velocity": 79}, {"time": 2793, "pitch": 56, "duration": 12, "velocity": 76}, {"time": 2799, "pitch": 47, "duration": 15, "velocity": 81}, {"time": 2805, "pitch": 52, "duration": 7, "velocity": 83}, {"time": 2811, "pitch": 56, "duration": 5, "velocity": 85}, {"time": 2817, "pitch": 42, "duration": 19, "velocity": 82}, {"time": 2817, "pitch": 54, "duration": 8, "velocity": 77}, {"time": 2817, "pitch": 58, "duration": 12, "velocity": 76}, {"time": 2823, "pitch": 49, "duration": 13, "velocity": 78}, {"time": 2829, "pitch": 54, "duration": 4, "velocity": 84}, {"time": 2841, "pitch": 43, "duration": 14, "velocity": 92}, {"time": 2841, "pitch": 55, "duration": 6, "velocity": 92}, {"time": 2847, "pitch": 51, "duration": 5, "velocity": 88}, {"time": 2853, "pitch": 58, "duration": 7, "velocity": 86}, {"time": 2859, "pitch": 51, "duration": 2, "velocity": 87}, {"time": 2865, "pitch": 44, "duration": 17, "velocity": 82}, {"time": 2865, "pitch": 56, "duration": 8, "velocity": 73}, {"time": 2865, "pitch": 59, "duration": 13, "velocity": 78}, {"time": 2871, "pitch": 51, "duration": 10, "velocity": 83}, {"time": 2877, "pitch": 56, "duration": 4, "velocity": 81}, {"time": 2889, "pitch": 40, "duration": 21, "velocity": 71}, {"time": 2889, "pitch": 42, "duration": 2, "velocity": 42}, {"time": 2889, "pitch": 52, "duration": 7, "velocity": 70}, {"time": 2889, "pitch": 56, "duration": 12, "velocity": 73}, {"time": 2895, "pitch": 47, "duration": 15, "velocity": 82}, {"time": 2901, "pitch": 52, "duration": 7, "velocity": 86}, {"time": 2907, "pitch": 56, "duration": 6, "velocity": 85}, {"time": 2913, "pitch": 42, "duration": 14, "velocity": 79}, {"time": 2913, "pitch": 58, "duration": 9, "velocity": 78}, {"time": 2919, "pitch": 49, "duration": 7, "velocity": 74}, {"time": 2925, "pitch": 54, "duration": 2, "velocity": 73}, {"time": 2925, "pitch": 58, "duration": 2, "velocity": 76}, {"time": 2937, "pitch": 35, "duration": 48, "velocity": 76}, {"time": 2937, "pitch": 54, "duration": 4, "velocity": 74}, {"time": 2937, "pitch": 61, "duration": 10, "velocity": 77}, {"time": 2943, "pitch": 42, "duration": 41, "velocity": 58}, {"time": 2943, "pitch": 54, "duration": 5, "velocity": 76}, {"time": 2949, "pitch": 59, "duration": 6, "velocity": 76}, {"time": 2955, "pitch": 54, "duration": 7, "velocity": 82}, {"time": 2961, "pitch": 59, "duration": 5, "velocity": 76}, {"time": 2961, "pitch": 63, "duration": 5, "velocity": 82}, {"time": 2967, "pitch": 54, "duration": 4, "velocity": 67}, {"time": 2973, "pitch": 54, "duration": 8, "velocity": 51}, {"time": 2973, "pitch": 59, "duration": 11, "velocity": 72}, {"time": 2985, "pitch": 43, "duration": 22, "velocity": 90}, {"time": 2985, "pitch": 62, "duration": 5, "velocity": 80}, {"time": 2988, "pitch": 50, "duration": 8, "velocity": 75}, {"time": 2991, "pitch": 55, "duration": 4, "velocity": 82}, {"time": 2994, "pitch": 62, "duration": 6, "velocity": 76}, {"time": 2997, "pitch": 50, "duration": 10, "velocity": 75}, {"time": 3000, "pitch": 55, "duration": 4, "velocity": 85}, {"time": 3003, "pitch": 62, "duration": 4, "velocity": 79}, {"time": 3006, "pitch": 67, "duration": 8, "velocity": 86}, {"time": 3009, "pitch": 43, "duration": 12, "velocity": 86}, {"time": 3012, "pitch": 50, "duration": 7, "velocity": 82}, {"time": 3015, "pitch": 55, "duration": 4, "velocity": 87}, {"time": 3018, "pitch": 62, "duration": 5, "velocity": 82}, {"time": 3021, "pitch": 50, "duration": 2, "velocity": 81}, {"time": 3024, "pitch": 55, "duration": 3, "velocity": 85}, {"time": 3027, "pitch": 62, "duration": 4, "velocity": 78}, {"time": 3030, "pitch": 55, "duration": 2, "velocity": 88}, {"time": 3033, "pitch": 45, "duration": 22, "velocity": 85}, {"time": 3036, "pitch": 52, "duration": 3, "velocity": 85}, {"time": 3039, "pitch": 57, "duration": 2, "velocity": 76}, {"time": 3042, "pitch": 52, "duration": 3, "velocity": 81}, {"time": 3045, "pitch": 57, "duration": 3, "velocity": 81}, {"time": 3048, "pitch": 52, "duration": 3, "velocity": 83}, {"time": 3051, "pitch": 61, "duration": 2, "velocity": 82}, {"time": 3054, "pitch": 52, "duration": 4, "velocity": 81}, {"time": 3057, "pitch": 45, "duration": 15, "velocity": 95}, {"time": 3060, "pitch": 52, "duration": 3, "velocity": 81}, {"time": 3063, "pitch": 57, "duration": 2, "velocity": 82}, {"time": 3066, "pitch": 52, "duration": 3, "velocity": 81}, {"time": 3069, "pitch": 61, "duration": 3, "velocity": 83}, {"time": 3072, "pitch": 52, "duration": 3, "velocity": 83}, {"time": 3075, "pitch": 57, "duration": 3, "velocity": 82}, {"time": 3078, "pitch": 52, "duration": 2, "velocity": 86}, {"time": 3081, "pitch": 43, "duration": 19, "velocity": 88}, {"time": 3084, "pitch": 50, "duration": 19, "velocity": 82}, {"time": 3087, "pitch": 55, "duration": 7, "velocity": 82}, {"time": 3090, "pitch": 59, "duration": 4, "velocity": 73}, {"time": 3093, "pitch": 62, "duration": 3, "velocity": 79}, {"time": 3096, "pitch": 55, "duration": 4, "velocity": 84}, {"time": 3099, "pitch": 59, "duration": 4, "velocity": 81}, {"time": 3102, "pitch": 62, "duration": 9, "velocity": 80}, {"time": 3105, "pitch": 43, "duration": 14, "velocity": 98}, {"time": 3108, "pitch": 50, "duration": 10, "velocity": 75}, {"time": 3111, "pitch": 55, "duration": 6, "velocity": 83}, {"time": 3114, "pitch": 59, "duration": 4, "velocity": 83}, {"time": 3117, "pitch": 67, "duration": 4, "velocity": 83}, {"time": 3120, "pitch": 55, "duration": 3, "velocity": 90}, {"time": 3123, "pitch": 59, "duration": 3, "velocity": 77}, {"time": 3126, "pitch": 55, "duration": 2, "velocity": 85}, {"time": 3129, "pitch": 45, "duration": 22, "velocity": 90}, {"time": 3132, "pitch": 52, "duration": 3, "velocity": 84}, {"time": 3135, "pitch": 57, "duration": 3, "velocity": 74}, {"time": 3138, "pitch": 52, "duration": 2, "velocity": 82}, {"time": 3141, "pitch": 61, "duration": 2, "velocity": 83}, {"time": 3144, "pitch": 52, "duration": 3, "velocity": 84}, {"time": 3147, "pitch": 57, "duration": 3, "velocity": 84}, {"time": 3150, "pitch": 52, "duration": 3, "velocity": 86}, {"time": 3153, "pitch": 45, "duration": 13, "velocity": 87}, {"time": 3156, "pitch": 52, "duration": 4, "velocity": 85}, {"time": 3159, "pitch": 57, "duration": 2, "velocity": 86}, {"time": 3162, "pitch": 52, "duration": 3, "velocity": 83}, {"time": 3165, "pitch": 61, "duration": 3, "velocity": 86}, {"time": 3168, "pitch": 52, "duration": 3, "velocity": 82}, {"time": 3171, "pitch": 57, "duration": 2, "velocity": 83}, {"time": 3174, "pitch": 52, "duration": 1, "velocity": 73}, {"time": 3177, "pitch": 36, "duration": 22, "velocity": 90}, {"time": 3177, "pitch": 48, "duration": 5, "velocity": 87}, {"time": 3177, "pitch": 60, "duration": 8, "velocity": 81}, {"time": 3183, "pitch": 43, "duration": 16, "velocity": 83}, {"time": 3186, "pitch": 48, "duration": 3, "velocity": 83}, {"time": 3189, "pitch": 52, "duration": 3, "velocity": 75}, {"time": 3192, "pitch": 48, "duration": 4, "velocity": 81}, {"time": 3195, "pitch": 52, "duration": 3, "velocity": 76}, {"time": 3198, "pitch": 48, "duration": 3, "velocity": 73}, {"time": 3201, "pitch": 36, "duration": 17, "velocity": 85}, {"time": 3201, "pitch": 55, "duration": 3, "velocity": 77}, {"time": 3204, "pitch": 48, "duration": 4, "velocity": 83}, {"time": 3207, "pitch": 52, "duration": 4, "velocity": 79}, {"time": 3210, "pitch": 48, "duration": 2, "velocity": 78}, {"time": 3213, "pitch": 60, "duration": 9, "velocity": 85}, {"time": 3216, "pitch": 48, "duration": 3, "velocity": 84}, {"time": 3219, "pitch": 52, "duration": 3, "velocity": 77}, {"time": 3222, "pitch": 48, "duration": 2, "velocity": 83}, {"time": 3225, "pitch": 38, "duration": 23, "velocity": 95}, {"time": 3228, "pitch": 45, "duration": 20, "velocity": 75}, {"time": 3231, "pitch": 50, "duration": 5, "velocity": 77}, {"time": 3234, "pitch": 54, "duration": 4, "velocity": 78}, {"time": 3237, "pitch": 62, "duration": 3, "velocity": 72}, {"time": 3240, "pitch": 50, "duration": 3, "velocity": 82}, {"time": 3243, "pitch": 54, "duration": 3, "velocity": 82}, {"time": 3246, "pitch": 50, "duration": 4, "velocity": 83}, {"time": 3249, "pitch": 38, "duration": 15, "velocity": 86}, {"time": 3249, "pitch": 62, "duration": 6, "velocity": 86}, {"time": 3252, "pitch": 50, "duration": 3, "velocity": 88}, {"time": 3255, "pitch": 54, "duration": 3, "velocity": 77}, {"time": 3258, "pitch": 50, "duration": 3, "velocity": 82}, {"time": 3261, "pitch": 57, "duration": 4, "velocity": 81}, {"time": 3264, "pitch": 50, "duration": 3, "velocity": 87}, {"time": 3267, "pitch": 54, "duration": 3, "velocity": 82}, {"time": 3270, "pitch": 50, "duration": 2, "velocity": 83}, {"time": 3273, "pitch": 36, "duration": 23, "velocity": 86}, {"time": 3276, "pitch": 43, "duration": 20, "velocity": 81}, {"time": 3279, "pitch": 48, "duration": 6, "velocity": 82}, {"time": 3282, "pitch": 52, "duration": 3, "velocity": 72}, {"time": 3285, "pitch": 60, "duration": 3, "velocity": 85}, {"time": 3288, "pitch": 48, "duration": 4, "velocity": 83}, {"time": 3291, "pitch": 52, "duration": 8, "velocity": 71}, {"time": 3294, "pitch": 48, "duration": 4, "velocity": 68}, {"time": 3297, "pitch": 36, "duration": 17, "velocity": 86}, {"time": 3297, "pitch": 60, "duration": 5, "velocity": 81}, {"time": 3300, "pitch": 43, "duration": 2, "velocity": 51}, {"time": 3300, "pitch": 48, "duration": 3, "velocity": 86}, {"time": 3303, "pitch": 52, "duration": 3, "velocity": 78}, {"time": 3306, "pitch": 48, "duration": 3, "velocity": 82}, {"time": 3309, "pitch": 43, "duration": 1, "velocity": 66}, {"time": 3309, "pitch": 55, "duration": 4, "velocity": 81}, {"time": 3312, "pitch": 48, "duration": 3, "velocity": 88}, {"time": 3315, "pitch": 52, "duration": 3, "velocity": 81}, {"time": 3318, "pitch": 48, "duration": 3, "velocity": 92}, {"time": 3321, "pitch": 42, "duration": 22, "velocity": 88}, {"time": 3321, "pitch": 61, "duration": 3, "velocity": 81}, {"time": 3321, "pitch": 66, "duration": 4, "velocity": 78}, {"time": 3324, "pitch": 49, "duration": 13, "velocity": 81}, {"time": 3327, "pitch": 61, "duration": 4, "velocity": 86}, {"time": 3330, "pitch": 66, "duration": 2, "velocity": 85}, {"time": 3336, "pitch": 61, "duration": 3, "velocity": 84}, {"time": 3336, "pitch": 66, "duration": 3, "velocity": 86}, {"time": 3336, "pitch": 70, "duration": 4, "velocity": 86}, {"time": 3339, "pitch": 49, "duration": 3, "velocity": 81}, {"time": 3342, "pitch": 61, "duration": 1, "velocity": 83}, {"time": 3345, "pitch": 42, "duration": 17, "velocity": 83}, {"time": 3345, "pitch": 61, "duration": 3, "velocity": 83}, {"time": 3345, "pitch": 66, "duration": 4, "velocity": 81}, {"time": 3348, "pitch": 49, "duration": 7, "velocity": 85}, {"time": 3351, "pitch": 61, "duration": 2, "velocity": 85}, {"time": 3354, "pitch": 61, "duration": 4, "velocity": 87}, {"time": 3354, "pitch": 66, "duration": 4, "velocity": 84}, {"time": 3354, "pitch": 70, "duration": 4, "velocity": 83}, {"time": 3357, "pitch": 49, "duration": 4, "velocity": 88}, {"time": 3360, "pitch": 61, "duration": 3, "velocity": 95}, {"time": 3360, "pitch": 66, "duration": 4, "velocity": 82}, {"time": 3363, "pitch": 42, "duration": 5, "velocity": 82}, {"time": 3366, "pitch": 49, "duration": 1, "velocity": 88}, {"time": 3369, "pitch": 42, "duration": 22, "velocity": 86}, {"time": 3369, "pitch": 61, "duration": 4, "velocity": 82}, {"time": 3369, "pitch": 70, "duration": 5, "velocity": 83}, {"time": 3372, "pitch": 49, "duration": 11, "velocity": 84}, {"time": 3375, "pitch": 61, "duration": 2, "velocity": 83}, {"time": 3378, "pitch": 61, "duration": 1, "velocity": 82}, {"time": 3378, "pitch": 66, "duration": 1, "velocity": 82}, {"time": 3381, "pitch": 61, "duration": 7, "velocity": 88}, {"time": 3381, "pitch": 66, "duration": 8, "velocity": 88}, {"time": 3387, "pitch": 49, "duration": 4, "velocity": 85}, {"time": 3393, "pitch": 42, "duration": 22, "velocity": 83}, {"time": 3393, "pitch": 61, "duration": 3, "velocity": 83}, {"time": 3393, "pitch": 66, "duration": 4, "velocity": 84}, {"time": 3393, "pitch": 73, "duration": 5, "velocity": 95}, {"time": 3399, "pitch": 49, "duration": 5, "velocity": 78}, {"time": 3402, "pitch": 73, "duration": 1, "velocity": 82}, {"time": 3402, "pitch": 78, "duration": 1, "velocity": 83}, {"time": 3405, "pitch": 73, "duration": 10, "velocity": 90}, {"time": 3405, "pitch": 78, "duration": 10, "velocity": 87}, {"time": 3411, "pitch": 49, "duration": 4, "velocity": 82}, {"time": 3417, "pitch": 35, "duration": 12, "velocity": 74}, {"time": 3417, "pitch": 54, "duration": 3, "velocity": 80}, {"time": 3417, "pitch": 63, "duration": 13, "velocity": 82}, {"time": 3423, "pitch": 54, "duration": 7, "velocity": 78}, {"time": 3429, "pitch": 59, "duration": 2, "velocity": 85}, {"time": 3441, "pitch": 40, "duration": 20, "velocity": 82}, {"time": 3441, "pitch": 52, "duration": 13, "velocity": 74}, {"time": 3441, "pitch": 59, "duration": 13, "velocity": 76}, {"time": 3447, "pitch": 47, "duration": 13, "velocity": 77}, {"time": 3453, "pitch": 56, "duration": 6, "velocity": 82}, {"time": 3459, "pitch": 52, "duration": 4, "velocity": 82}, {"time": 3465, "pitch": 39, "duration": 17, "velocity": 83}, {"time": 3465, "pitch": 51, "duration": 8, "velocity": 82}, {"time": 3465, "pitch": 54, "duration": 7, "velocity": 82}, {"time": 3471, "pitch": 46, "duration": 12, "velocity": 75}, {"time": 3477, "pitch": 51, "duration": 5, "velocity": 82}, {"time": 3477, "pitch": 58, "duration": 6, "velocity": 80}, {"time": 3483, "pitch": 61, "duration": 6, "velocity": 82}, {"time": 3489, "pitch": 44, "duration": 21, "velocity": 82}, {"time": 3489, "pitch": 59, "duration": 7, "velocity": 82}, {"time": 3495, "pitch": 51, "duration": 16, "velocity": 80}, {"time": 3501, "pitch": 56, "duration": 6, "velocity": 77}, {"time": 3501, "pitch": 59, "duration": 7, "velocity": 82}, {"time": 3513, "pitch": 37, "duration": 14, "velocity": 83}, {"time": 3513, "pitch": 64, "duration": 14, "velocity": 79}, {"time": 3519, "pitch": 44, "duration": 7, "velocity": 71}, {"time": 3525, "pitch": 56, "duration": 6, "velocity": 85}, {"time": 3537, "pitch": 42, "duration": 19, "velocity": 81}, {"time": 3537, "pitch": 61, "duration": 8, "velocity": 78}, {"time": 3543, "pitch": 49, "duration": 10, "velocity": 79}, {"time": 3549, "pitch": 54, "duration": 3, "velocity": 81}, {"time": 3549, "pitch": 58, "duration": 5, "velocity": 82}, {"time": 3555, "pitch": 54, "duration": 7, "velocity": 81}, {"time": 3561, "pitch": 47, "duration": 21, "velocity": 82}, {"time": 3561, "pitch": 59, "duration": 7, "velocity": 83}, {"time": 3567, "pitch": 54, "duration": 7, "velocity": 83}, {"time": 3573, "pitch": 61, "duration": 6, "velocity": 82}, {"time": 3579, "pitch": 54, "duration": 5, "velocity": 81}, {"time": 3585, "pitch": 47, "duration": 17, "velocity": 81}, {"time": 3585, "pitch": 54, "duration": 1, "velocity": 49}, {"time": 3585, "pitch": 57, "duration": 7, "velocity": 76}, {"time": 3585, "pitch": 63, "duration": 9, "velocity": 82}, {"time": 3591, "pitch": 54, "duration": 4, "velocity": 83}, {"time": 3597, "pitch": 54, "duration": 2, "velocity": 82}, {"time": 3597, "pitch": 59, "duration": 7, "velocity": 83}, {"time": 3603, "pitch": 54, "duration": 2, "velocity": 82}, {"time": 3609, "pitch": 40, "duration": 20, "velocity": 82}, {"time": 3609, "pitch": 52, "duration": 8, "velocity": 79}, {"time": 3609, "pitch": 56, "duration": 12, "velocity": 76}, {"time": 3615, "pitch": 47, "duration": 15, "velocity": 81}, {"time": 3621, "pitch": 52, "duration": 7, "velocity": 83}, {"time": 3627, "pitch": 56, "duration": 5, "velocity": 85}, {"time": 3633, "pitch": 42, "duration": 19, "velocity": 82}, {"time": 3633, "pitch": 54, "duration": 8, "velocity": 77}, {"time": 3633, "pitch": 58, "duration": 12, "velocity": 76}, {"time": 3639, "pitch": 49, "duration": 13, "velocity": 78}, {"time": 3645, "pitch": 54, "duration": 4, "velocity": 84}, {"time": 3657, "pitch": 43, "duration": 14, "velocity": 92}, {"time": 3657, "pitch": 55, "duration": 6, "velocity": 92}, {"time": 3663, "pitch": 51, "duration": 5, "velocity": 88}, {"time": 3669, "pitch": 58, "duration": 7, "velocity": 86}, {"time": 3675, "pitch": 51, "duration": 2, "velocity": 87}, {"time": 3681, "pitch": 44, "duration": 17, "velocity": 82}, {"time": 3681, "pitch": 56, "duration": 8, "velocity": 73}, {"time": 3681, "pitch": 59, "duration": 13, "velocity": 78}, {"time": 3687, "pitch": 51, "duration": 10, "velocity": 83}, {"time": 3693, "pitch": 56, "duration": 4, "velocity": 81}, {"time": 3705, "pitch": 40, "duration": 21, "velocity": 71}, {"time": 3705, "pitch": 42, "duration": 2, "velocity": 42}, {"time": 3705, "pitch": 52, "duration": 7, "velocity": 70}, {"time": 3705, "pitch": 56, "duration": 12, "velocity": 73}, {"time": 3711, "pitch": 47, "duration": 15, "velocity": 82}, {"time": 3717, "pitch": 52, "duration": 7, "velocity": 86}, {"time": 3723, "pitch": 56, "duration": 6, "velocity": 85}, {"time": 3729, "pitch": 42, "duration": 14, "velocity": 79}, {"time": 3729, "pitch": 58, "duration": 9, "velocity": 78}, {"time": 3735, "pitch": 49, "duration": 7, "velocity": 74}, {"time": 3741, "pitch": 54, "duration": 2, "velocity": 73}, {"time": 3741, "pitch": 58, "duration": 2, "velocity": 76}, {"time": 3753, "pitch": 35, "duration": 48, "velocity": 76}, {"time": 3753, "pitch": 54, "duration": 4, "velocity": 74}, {"time": 3753, "pitch": 61, "duration": 10, "velocity": 77}, {"time": 3759, "pitch": 42, "duration": 41, "velocity": 58}, {"time": 3759, "pitch": 54, "duration": 5, "velocity": 76}, {"time": 3765, "pitch": 59, "duration": 6, "velocity": 76}, {"time": 3771, "pitch": 54, "duration": 7, "velocity": 82}, {"time": 3777, "pitch": 59, "duration": 5, "velocity": 76}, {"time": 3777, "pitch": 63, "duration": 5, "velocity": 82}, {"time": 3783, "pitch": 54, "duration": 4, "velocity": 67}, {"time": 3789, "pitch": 54, "duration": 8, "velocity": 51}, {"time": 3789, "pitch": 59, "duration": 11, "velocity": 72}, {"time": 3801, "pitch": 35, "duration": 1, "velocity": 74}, {"time": 3801, "pitch": 54, "duration": 3, "velocity": 80}, {"time": 3801, "pitch": 63, "duration": 13, "velocity": 82}, {"time": 3807, "pitch": 54, "duration": 7, "velocity": 78}, {"time": 3813, "pitch": 59, "duration": 2, "velocity": 85}, {"time": 3825, "pitch": 40, "duration": 20, "velocity": 82}, {"time": 3825, "pitch": 52, "duration": 13, "velocity": 74}, {"time": 3825, "pitch": 59, "duration": 13, "velocity": 76}, {"time": 3831, "pitch": 47, "duration": 13, "velocity": 77}, {"time": 3837, "pitch": 56, "duration": 6, "velocity": 82}, {"time": 3843, "pitch": 52, "duration": 4, "velocity": 82}, {"time": 3849, "pitch": 39, "duration": 17, "velocity": 83}, {"time": 3849, "pitch": 51, "duration": 8, "velocity": 82}, {"time": 3849, "pitch": 54, "duration": 7, "velocity": 82}, {"time": 3855, "pitch": 46, "duration": 12, "velocity": 75}, {"time": 3861, "pitch": 51, "duration": 5, "velocity": 82}, {"time": 3861, "pitch": 58, "duration": 6, "velocity": 80}, {"time": 3867, "pitch": 61, "duration": 6, "velocity": 82}, {"time": 3873, "pitch": 44, "duration": 21, "velocity": 82}, {"time": 3873, "pitch": 59, "duration": 7, "velocity": 82}, {"time": 3879, "pitch": 51, "duration": 16, "velocity": 80}, {"time": 3885, "pitch": 56, "duration": 6, "velocity": 77}, {"time": 3885, "pitch": 59, "duration": 7, "velocity": 82}, {"time": 3897, "pitch": 37, "duration": 14, "velocity": 83}, {"time": 3897, "pitch": 64, "duration": 14, "velocity": 79}, {"time": 3903, "pitch": 44, "duration": 7, "velocity": 71}, {"time": 3909, "pitch": 56, "duration": 6, "velocity": 85}, {"time": 3921, "pitch": 42, "duration": 19, "velocity": 81}, {"time": 3921, "pitch": 61, "duration": 8, "velocity": 78}, {"time": 3927, "pitch": 49, "duration": 10, "velocity": 79}, {"time": 3933, "pitch": 54, "duration": 3, "velocity": 81}, {"time": 3933, "pitch": 58, "duration": 5, "velocity": 82}, {"time": 3939, "pitch": 54, "duration": 7, "velocity": 81}, {"time": 3945, "pitch": 47, "duration": 21, "velocity": 82}, {"time": 3945, "pitch": 59, "duration": 7, "velocity": 83}, {"time": 3951, "pitch": 54, "duration": 7, "velocity": 83}, {"time": 3957, "pitch": 61, "duration": 6, "velocity": 82}, {"time": 3963, "pitch": 54, "duration": 5, "velocity": 81}, {"time": 3969, "pitch": 47, "duration": 17, "velocity": 81}, {"time": 3969, "pitch": 54, "duration": 1, "velocity": 49}, {"time": 3969, "pitch": 57, "duration": 7, "velocity": 76}, {"time": 3969, "pitch": 63, "duration": 9, "velocity": 82}, {"time": 3975, "pitch": 54, "duration": 4, "velocity": 83}, {"time": 3981, "pitch": 54, "duration": 2, "velocity": 82}, {"time": 3981, "pitch": 59, "duration": 7, "velocity": 83}, {"time": 3987, "pitch": 54, "duration": 2, "velocity": 82}, {"time": 3993, "pitch": 40, "duration": 20, "velocity": 78}, {"time": 3999, "pitch": 47, "duration": 15, "velocity": 77}, {"time": 4005, "pitch": 52, "duration": 7, "velocity": 69}, {"time": 4011, "pitch": 56, "duration": 5, "velocity": 71}, {"time": 4017, "pitch": 42, "duration": 16, "velocity": 81}, {"time": 4017, "pitch": 54, "duration": 15, "velocity": 70}, {"time": 4017, "pitch": 58, "duration": 15, "velocity": 76}, {"time": 4041, "pitch": 44, "duration": 37, "velocity": 79}, {"time": 4041, "pitch": 56, "duration": 7, "velocity": 74}, {"time": 4041, "pitch": 59, "duration": 13, "velocity": 76}, {"time": 4047, "pitch": 51, "duration": 7, "velocity": 74}, {"time": 4053, "pitch": 56, "duration": 8, "velocity": 81}, {"time": 4059, "pitch": 51, "duration": 18, "velocity": 69}, {"time": 4065, "pitch": 56, "duration": 8, "velocity": 68}, {"time": 4065, "pitch": 63, "duration": 9, "velocity": 76}, {"time": 4089, "pitch": 40, "duration": 17, "velocity": 81}, {"time": 4089, "pitch": 52, "duration": 7, "velocity": 73}, {"time": 4089, "pitch": 56, "duration": 13, "velocity": 72}, {"time": 4095, "pitch": 47, "duration": 11, "velocity": 74}, {"time": 4101, "pitch": 52, "duration": 5, "velocity": 81}, {"time": 4113, "pitch": 42, "duration": 20, "velocity": 73}, {"time": 4113, "pitch": 54, "duration": 7, "velocity": 68}, {"time": 4113, "pitch": 58, "duration": 12, "velocity": 68}, {"time": 4119, "pitch": 49, "duration": 13, "velocity": 73}, {"time": 4125, "pitch": 54, "duration": 7, "velocity": 82}, {"time": 4131, "pitch": 58, "duration": 7, "velocity": 82}, {"time": 4137, "pitch": 47, "duration": 38, "velocity": 82}, {"time": 4137, "pitch": 59, "duration": 14, "velocity": 78}, {"time": 4143, "pitch": 54, "duration": 7, "velocity": 74}, {"time": 4149, "pitch": 61, "duration": 6, "velocity": 70}, {"time": 4155, "pitch": 54, "duration": 7, "velocity": 68}, {"time": 4161, "pitch": 63, "duration": 12, "velocity": 82}, {"time": 4173, "pitch": 59, "duration": 3, "velocity": 76}, {"time": 4185, "pitch": 40, "duration": 20, "velocity": 76}, {"time": 4185, "pitch": 56, "duration": 12, "velocity": 68}, {"time": 4191, "pitch": 47, "duration": 16, "velocity": 70}, {"time": 4197, "pitch": 52, "duration": 7, "velocity": 82}, {"time": 4203, "pitch": 56, "duration": 7, "velocity": 81}, {"time": 4209, "pitch": 42, "duration": 17, "velocity": 72}, {"time": 4209, "pitch": 58, "duration": 13, "velocity": 76}, {"time": 4215, "pitch": 49, "duration": 13, "velocity": 74}, {"time": 4221, "pitch": 54, "duration": 3, "velocity": 67}, {"time": 4233, "pitch": 44, "duration": 14, "velocity": 77}, {"time": 4233, "pitch": 56, "duration": 7, "velocity": 67}, {"time": 4233, "pitch": 59, "duration": 12, "velocity": 68}, {"time": 4239, "pitch": 51, "duration": 8, "velocity": 67}, {"time": 4245, "pitch": 56, "duration": 3, "velocity": 67}, {"time": 4257, "pitch": 37, "duration": 17, "velocity": 69}, {"time": 4257, "pitch": 53, "duration": 17, "velocity": 70}, {"time": 4257, "pitch": 56, "duration": 25, "velocity": 69}, {"time": 4281, "pitch": 37, "duration": 17, "velocity": 81}, {"time": 4281, "pitch": 56, "duration": 1, "velocity": 71}, {"time": 4287, "pitch": 44, "duration": 10, "velocity": 56}, {"time": 4293, "pitch": 52, "duration": 8, "velocity": 81}, {"time": 4299, "pitch": 56, "duration": 7, "velocity": 75}, {"time": 4302, "pitch": 54, "duration": 8, "velocity": 66}, {"time": 4303, "pitch": 58, "duration": 24, "velocity": 70}, {"time": 4303, "pitch": 42, "duration": 25, "velocity": 81}, {"time": 4304, "pitch": 61, "duration": 23, "velocity": 73}, {"time": 4309, "pitch": 49, "duration": 18, "velocity": 67}, {"time": 4315, "pitch": 54, "duration": 12, "velocity": 81}, {"time": 4328, "pitch": 36, "duration": 44, "velocity": 72}, {"time": 4332, "pitch": 43, "duration": 41, "velocity": 75}, {"time": 4335, "pitch": 48, "duration": 10, "velocity": 67}, {"time": 4338, "pitch": 52, "duration": 36, "velocity": 73}, {"time": 4340, "pitch": 55, "duration": 5, "velocity": 73}, {"time": 4344, "pitch": 60, "duration": 34, "velocity": 80}, {"time": 4348, "pitch": 48, "duration": 26, "velocity": 69}, {"time": 4354, "pitch": 55, "duration": 21, "velocity": 71}, {"time": 4378, "pitch": 38, "duration": 31, "velocity": 70}, {"time": 4382, "pitch": 45, "duration": 23, "velocity": 62}, {"time": 4385, "pitch": 50, "duration": 8, "velocity": 75}, {"time": 4388, "pitch": 54, "duration": 9, "velocity": 79}, {"time": 4392, "pitch": 57, "duration": 4, "velocity": 72}, {"time": 4395, "pitch": 62, "duration": 7, "velocity": 81}, {"time": 4398, "pitch": 50, "duration": 5, "velocity": 83}, {"time": 4401, "pitch": 54, "duration": 5, "velocity": 82}, {"time": 4405, "pitch": 57, "duration": 4, "velocity": 74}, {"time": 4408, "pitch": 62, "duration": 12, "velocity": 81}, {"time": 4411, "pitch": 50, "duration": 5, "velocity": 69}, {"time": 4415, "pitch": 45, "duration": 5, "velocity": 64}, {"time": 4419, "pitch": 50, "duration": 3, "velocity": 67}, {"time": 4422, "pitch": 54, "duration": 4, "velocity": 69}, {"time": 4432, "pitch": 36, "duration": 14, "velocity": 80}, {"time": 4435, "pitch": 43, "duration": 11, "velocity": 73}, {"time": 4439, "pitch": 48, "duration": 7, "velocity": 72}, {"time": 4442, "pitch": 52, "duration": 7, "velocity": 69}, {"time": 4445, "pitch": 55, "duration": 3, "velocity": 73}, {"time": 4448, "pitch": 60, "duration": 6, "velocity": 73}, {"time": 4451, "pitch": 48, "duration": 7, "velocity": 71}, {"time": 4454, "pitch": 52, "duration": 5, "velocity": 74}, {"time": 4457, "pitch": 55, "duration": 4, "velocity": 75}, {"time": 4460, "pitch": 60, "duration": 7, "velocity": 77}, {"time": 4463, "pitch": 48, "duration": 5, "velocity": 76}, {"time": 4467, "pitch": 52, "duration": 5, "velocity": 69}, {"time": 4471, "pitch": 55, "duration": 3, "velocity": 66}, {"time": 4474, "pitch": 60, "duration": 11, "velocity": 64}, {"time": 4477, "pitch": 48, "duration": 4, "velocity": 58}, {"time": 4484, "pitch": 38, "duration": 41, "velocity": 76}, {"time": 4487, "pitch": 45, "duration": 36, "velocity": 65}, {"time": 4491, "pitch": 50, "duration": 5, "velocity": 67}, {"time": 4495, "pitch": 57, "duration": 8, "velocity": 72}, {"time": 4499, "pitch": 54, "duration": 4, "velocity": 72}, {"time": 4502, "pitch": 62, "duration": 9, "velocity": 78}, {"time": 4506, "pitch": 50, "duration": 10, "velocity": 69}, {"time": 4510, "pitch": 54, "duration": 13, "velocity": 75}, {"time": 4515, "pitch": 57, "duration": 7, "velocity": 67}, {"time": 4519, "pitch": 62, "duration": 5, "velocity": 62}, {"time": 4536, "pitch": 36, "duration": 34, "velocity": 77}, {"time": 4538, "pitch": 43, "duration": 30, "velocity": 75}, {"time": 4541, "pitch": 48, "duration": 7, "velocity": 66}, {"time": 4543, "pitch": 52, "duration": 10, "velocity": 58}, {"time": 4546, "pitch": 55, "duration": 7, "velocity": 64}, {"time": 4549, "pitch": 60, "duration": 8, "velocity": 68}, {"time": 4552, "pitch": 48, "duration": 9, "velocity": 68}, {"time": 4556, "pitch": 52, "duration": 13, "velocity": 61}, {"time": 4560, "pitch": 55, "duration": 12, "velocity": 66}, {"time": 4564, "pitch": 60, "duration": 71, "velocity": 65}, {"time": 4569, "pitch": 48, "duration": 4, "velocity": 57}], "annotations": [{"time": 25, "annotation": {"number": 64, "value": 127}, "group": "control_change"}, {"time": 31, "annotation": {"number": 64, "value": 0}, "group": "control_change"}, {"time": 35, "annotation": {"number": 64, "value": 127}, "group": "control_change"}, {"time": 56, "annotation": {"number": 64, "value": 0}, "group": "control_change"}, {"time": 61, "annotation": {"number": 64, "value": 127}, "group": "control_change"}, {"time": 103, "annotation": {"number": 64, "value": 0}, "group": "control_change"}, {"time": 109, "annotation": {"number": 64, "value": 127}, "group": "control_change"}, {"time": 109, "annotation": {"number": 64, "value": 0}, "group": "control_change"}, {"time": 132, "annotation": {"number": 64, "value": 0}, "group": "control_change"}, {"time": 137, "annotation": {"number": 64, "value": 127}, "group": "control_change"}, {"time": 150, "annotation": {"number": 64, "value": 0}, "group": "control_change"}, {"time": 157, "annotation": {"number": 64, "value": 127}, "group": "control_change"}, {"time": 200, "annotation": {"number": 64, "value": 0}, "group": "control_change"}, {"time": 208, "annotation": {"number": 64, "value": 127}, "group": "control_change"}, {"time": 223, "annotation": {"number": 64, "value": 0}, "group": "control_change"}, {"time": 230, "annotation": {"number": 64, "value": 127}, "group": "control_change"}, {"time": 247, "annotation": {"number": 64, "value": 0}, "group": "control_change"}, {"time": 252, "annotation": {"number": 64, "value": 127}, "group": "control_change"}, {"time": 271, "annotation": {"number": 64, "value": 0}, "group": "control_change"}, {"time": 276, "annotation": {"number": 64, "value": 127}, "group": "control_change"}, {"time": 299, "annotation": {"number": 64, "value": 127}, "group": "control_change"}, {"time": 320, "annotation": {"number": 64, "value": 0}, "group": "control_change"}, {"time": 327, "annotation": {"number": 64, "value": 127}, "group": "control_change"}, {"time": 344, "annotation": {"number": 64, "value": 0}, "group": "control_change"}, {"time": 351, "annotation": {"number": 64, "value": 127}, "group": "control_change"}, {"time": 351, "annotation": {"number": 64, "value": 0}, "group": "control_change"}, {"time": 389, "annotation": {"number": 64, "value": 0}, "group": "control_change"}, {"time": 393, "annotation": {"number": 64, "value": 127}, "group": "control_change"}, {"time": 393, "annotation": {"number": 64, "value": 0}, "group": "control_change"}, {"time": 415, "annotation": {"number": 64, "value": 0}, "group": "control_change"}, {"time": 419, "annotation": {"number": 64, "value": 127}, "group": "control_change"}, {"time": 438, "annotation": {"number": 64, "value": 0}, "group": "control_change"}, {"time": 441, "annotation": {"number": 64, "value": 127}, "group": "control_change"}, {"time": 488, "annotation": {"number": 64, "value": 0}, "group": "control_change"}, {"time": 493, "annotation": {"number": 64, "value": 127}, "group": "control_change"}, {"time": 511, "annotation": {"number": 64, "value": 0}, "group": "control_change"}, {"time": 517, "annotation": {"number": 64, "value": 127}, "group": "control_change"}, {"time": 517, "annotation": {"number": 64, "value": 0}, "group": "control_change"}, {"time": 535, "annotation": {"number": 64, "value": 0}, "group": "control_change"}, {"time": 539, "annotation": {"number": 64, "value": 127}, "group": "control_change"}, {"time": 582, "annotation": {"number": 64, "value": 0}, "group": "control_change"}, {"time": 587, "annotation": {"number": 64, "value": 127}, "group": "control_change"}, {"time": 606, "annotation": {"number": 64, "value": 0}, "group": "control_change"}, {"time": 610, "annotation": {"number": 64, "value": 127}, "group": "control_change"}, {"time": 630, "annotation": {"number": 64, "value": 0}, "group": "control_change"}, {"time": 633, "annotation": {"number": 64, "value": 127}, "group": "control_change"}, {"time": 657, "annotation": {"number": 64, "value": 0}, "group": "control_change"}, {"time": 661, "annotation": {"number": 64, "value": 127}, "group": "control_change"}, {"time": 679, "annotation": {"number": 64, "value": 0}, "group": "control_change"}, {"time": 683, "annotation": {"number": 64, "value": 127}, "group": "control_change"}, {"time": 702, "annotation": {"number": 64, "value": 0}, "group": "control_change"}, {"time": 710, "annotation": {"number": 64, "value": 127}, "group": "control_change"}, {"time": 728, "annotation": {"number": 64, "value": 0}, "group": "control_change"}, {"time": 731, "annotation": {"number": 64, "value": 127}, "group": "control_change"}, {"time": 731, "annotation": {"number": 64, "value": 0}, "group": "control_change"}, {"time": 751, "annotation": {"number": 64, "value": 0}, "group": "control_change"}, {"time": 754, "annotation": {"number": 64, "value": 127}, "group": "control_change"}, {"time": 774, "annotation": {"number": 64, "value": 0}, "group": "control_change"}, {"time": 777, "annotation": {"number": 64, "value": 127}, "group": "control_change"}, {"time": 777, "annotation": {"number": 64, "value": 0}, "group": "control_change"}, {"time": 799, "annotation": {"number": 64, "value": 0}, "group": "control_change"}, {"time": 803, "annotation": {"number": 64, "value": 127}, "group": "control_change"}, {"time": 822, "annotation": {"number": 64, "value": 0}, "group": "control_change"}, {"time": 825, "annotation": {"number": 64, "value": 127}, "group": "control_change"}, {"time": 872, "annotation": {"number": 64, "value": 0}, "group": "control_change"}, {"time": 877, "annotation": {"number": 64, "value": 127}, "group": "control_change"}, {"time": 895, "annotation": {"number": 64, "value": 0}, "group": "control_change"}, {"time": 901, "annotation": {"number": 64, "value": 127}, "group": "control_change"}, {"time": 901, "annotation": {"number": 64, "value": 0}, "group": "control_change"}, {"time": 919, "annotation": {"number": 64, "value": 0}, "group": "control_change"}, {"time": 923, "annotation": {"number": 64, "value": 127}, "group": "control_change"}, {"time": 966, "annotation": {"number": 64, "value": 0}, "group": "control_change"}, {"time": 969, "annotation": {"number": 64, "value": 127}, "group": "control_change"}, {"time": 990, "annotation": {"number": 64, "value": 0}, "group": "control_change"}, {"time": 994, "annotation": {"number": 64, "value": 127}, "group": "control_change"}, {"time": 1014, "annotation": {"number": 64, "value": 0}, "group": "control_change"}, {"time": 1017, "annotation": {"number": 64, "value": 127}, "group": "control_change"}, {"time": 1027, "annotation": {"number": 64, "value": 0}, "group": "control_change"}, {"time": 1029, "annotation": {"number": 64, "value": 127}, "group": "control_change"}, {"time": 1039, "annotation": {"number": 64, "value": 0}, "group": "control_change"}, {"time": 1042, "annotation": {"number": 64, "value": 127}, "group": "control_change"}, {"time": 1064, "annotation": {"number": 64, "value": 0}, "group": "control_change"}, {"time": 1067, "annotation": {"number": 64, "value": 127}, "group": "control_change"}, {"time": 1088, "annotation": {"number": 64, "value": 0}, "group": "control_change"}, {"time": 1091, "annotation": {"number": 64, "value": 127}, "group": "control_change"}, {"time": 1112, "annotation": {"number": 64, "value": 0}, "group": "control_change"}, {"time": 1114, "annotation": {"number": 64, "value": 127}, "group": "control_change"}, {"time": 1135, "annotation": {"number": 64, "value": 0}, "group": "control_change"}, {"time": 1137, "annotation": {"number": 64, "value": 127}, "group": "control_change"}, {"time": 1160, "annotation": {"number": 64, "value": 0}, "group": "control_change"}, {"time": 1162, "annotation": {"number": 64, "value": 127}, "group": "control_change"}, {"time": 1207, "annotation": {"number": 64, "value": 0}, "group": "control_change"}, {"time": 1231, "annotation": {"number": 64, "value": 0}, "group": "control_change"}, {"time": 1235, "annotation": {"number": 64, "value": 127}, "group": "control_change"}, {"time": 1256, "annotation": {"number": 64, "value": 0}, "group": "control_change"}, {"time": 1260, "annotation": {"number": 64, "value": 127}, "group": "control_change"}, {"time": 1279, "annotation": {"number": 64, "value": 0}, "group": "control_change"}, {"time": 1282, "annotation": {"number": 64, "value": 127}, "group": "control_change"}, {"time": 1304, "annotation": {"number": 64, "value": 0}, "group": "control_change"}, {"time": 1305, "annotation": {"number": 64, "value": 127}, "group": "control_change"}, {"time": 1305, "annotation": {"number": 64, "value": 0}, "group": "control_change"}, {"time": 1306, "annotation": {"number": 64, "value": 127}, "group": "control_change"}, {"time": 1328, "annotation": {"number": 64, "value": 0}, "group": "control_change"}, {"time": 1332, "annotation": {"number": 64, "value": 127}, "group": "control_change"}, {"time": 1350, "annotation": {"number": 64, "value": 0}, "group": "control_change"}, {"time": 1353, "annotation": {"number": 64, "value": 127}, "group": "control_change"}, {"time": 1374, "annotation": {"number": 64, "value": 0}, "group": "control_change"}, {"time": 1377, "annotation": {"number": 64, "value": 127}, "group": "control_change"}, {"time": 1400, "annotation": {"number": 64, "value": 0}, "group": "control_change"}, {"time": 1404, "annotation": {"number": 64, "value": 127}, "group": "control_change"}, {"time": 1423, "annotation": {"number": 64, "value": 0}, "group": "control_change"}, {"time": 1426, "annotation": {"number": 64, "value": 127}, "group": "control_change"}, {"time": 1448, "annotation": {"number": 64, "value": 0}, "group": "control_change"}, {"time": 1450, "annotation": {"number": 64, "value": 127}, "group": "control_change"}, {"time": 1471, "annotation": {"number": 64, "value": 0}, "group": "control_change"}, {"time": 1474, "annotation": {"number": 64, "value": 127}, "group": "control_change"}, {"time": 1496, "annotation": {"number": 64, "value": 0}, "group": "control_change"}, {"time": 1500, "annotation": {"number": 64, "value": 127}, "group": "control_change"}, {"time": 1519, "annotation": {"number": 64, "value": 0}, "group": "control_change"}, {"time": 1523, "annotation": {"number": 64, "value": 127}, "group": "control_change"}, {"time": 1543, "annotation": {"number": 64, "value": 0}, "group": "control_change"}, {"time": 1545, "annotation": {"number": 64, "value": 127}, "group": "control_change"}, {"time": 1592, "annotation": {"number": 64, "value": 0}, "group": "control_change"}, {"time": 1617, "annotation": {"number": 64, "value": 127}, "group": "control_change"}, {"time": 1641, "annotation": {"number": 64, "value": 0}, "group": "control_change"}, {"time": 1645, "annotation": {"number": 64, "value": 127}, "group": "control_change"}, {"time": 1645, "annotation": {"number": 64, "value": 0}, "group": "control_change"}, {"time": 1687, "annotation": {"number": 64, "value": 0}, "group": "control_change"}, {"time": 1695, "annotation": {"number": 64, "value": 127}, "group": "control_change"}, {"time": 1738, "annotation": {"number": 64, "value": 127}, "group": "control_change"}, {"time": 1738, "annotation": {"number": 64, "value": 0}, "group": "control_change"}, {"time": 1781, "annotation": {"number": 64, "value": 0}, "group": "control_change"}, {"time": 1785, "annotation": {"number": 64, "value": 127}, "group": "control_change"}, {"time": 1785, "annotation": {"number": 64, "value": 0}, "group": "control_change"}, {"time": 1807, "annotation": {"number": 64, "value": 0}, "group": "control_change"}, {"time": 1811, "annotation": {"number": 64, "value": 127}, "group": "control_change"}, {"time": 1830, "annotation": {"number": 64, "value": 0}, "group": "control_change"}, {"time": 1833, "annotation": {"number": 64, "value": 127}, "group": "control_change"}, {"time": 1880, "annotation": {"number": 64, "value": 0}, "group": "control_change"}, {"time": 1885, "annotation": {"number": 64, "value": 127}, "group": "control_change"}, {"time": 1903, "annotation": {"number": 64, "value": 0}, "group": "control_change"}, {"time": 1909, "annotation": {"number": 64, "value": 127}, "group": "control_change"}, {"time": 1909, "annotation": {"number": 64, "value": 0}, "group": "control_change"}, {"time": 1927, "annotation": {"number": 64, "value": 0}, "group": "control_change"}, {"time": 1931, "annotation": {"number": 64, "value": 127}, "group": "control_change"}, {"time": 1974, "annotation": {"number": 64, "value": 0}, "group": "control_change"}, {"time": 1979, "annotation": {"number": 64, "value": 127}, "group": "control_change"}, {"time": 1998, "annotation": {"number": 64, "value": 0}, "group": "control_change"}, {"time": 2002, "annotation": {"number": 64, "value": 127}, "group": "control_change"}, {"time": 2022, "annotation": {"number": 64, "value": 0}, "group": "control_change"}, {"time": 2025, "annotation": {"number": 64, "value": 127}, "group": "control_change"}, {"time": 2049, "annotation": {"number": 64, "value": 0}, "group": "control_change"}, {"time": 2053, "annotation": {"number": 64, "value": 127}, "group": "control_change"}, {"time": 2071, "annotation": {"number": 64, "value": 0}, "group": "control_change"}, {"time": 2075, "annotation": {"number": 64, "value": 127}, "group": "control_change"}, {"time": 2094, "annotation": {"number": 64, "value": 0}, "group": "control_change"}, {"time": 2102, "annotation": {"number": 64, "value": 127}, "group": "control_change"}, {"time": 2120, "annotation": {"number": 64, "value": 0}, "group": "control_change"}, {"time": 2123, "annotation": {"number": 64, "value": 127}, "group": "control_change"}, {"time": 2123, "annotation": {"number": 64, "value": 0}, "group": "control_change"}, {"time": 2143, "annotation": {"number": 64, "value": 0}, "group": "control_change"}, {"time": 2146, "annotation": {"number": 64, "value": 127}, "group": "control_change"}, {"time": 2166, "annotation": {"number": 64, "value": 0}, "group": "control_change"}, {"time": 2169, "annotation": {"number": 64, "value": 127}, "group": "control_change"}, {"time": 2169, "annotation": {"number": 64, "value": 0}, "group": "control_change"}, {"time": 2191, "annotation": {"number": 64, "value": 0}, "group": "control_change"}, {"time": 2195, "annotation": {"number": 64, "value": 127}, "group": "control_change"}, {"time": 2214, "annotation": {"number": 64, "value": 0}, "group": "control_change"}, {"time": 2217, "annotation": {"number": 64, "value": 127}, "group": "control_change"}, {"time": 2264, "annotation": {"number": 64, "value": 0}, "group": "control_change"}, {"time": 2269, "annotation": {"number": 64, "value": 127}, "group": "control_change"}, {"time": 2287, "annotation": {"number": 64, "value": 0}, "group": "control_change"}, {"time": 2293, "annotation": {"number": 64, "value": 127}, "group": "control_change"}, {"time": 2293, "annotation": {"number": 64, "value": 0}, "group": "control_change"}, {"time": 2311, "annotation": {"number": 64, "value": 0}, "group": "control_change"}, {"time": 2315, "annotation": {"number": 64, "value": 127}, "group": "control_change"}, {"time": 2358, "annotation": {"number": 64, "value": 0}, "group": "control_change"}, {"time": 2361, "annotation": {"number": 64, "value": 127}, "group": "control_change"}, {"time": 2382, "annotation": {"number": 64, "value": 0}, "group": "control_change"}, {"time": 2386, "annotation": {"number": 64, "value": 127}, "group": "control_change"}, {"time": 2406, "annotation": {"number": 64, "value": 0}, "group": "control_change"}, {"time": 2409, "annotation": {"number": 64, "value": 127}, "group": "control_change"}, {"time": 2419, "annotation": {"number": 64, "value": 0}, "group": "control_change"}, {"time": 2421, "annotation": {"number": 64, "value": 127}, "group": "control_change"}, {"time": 2431, "annotation": {"number": 64, "value": 0}, "group": "control_change"}, {"time": 2434, "annotation": {"number": 64, "value": 127}, "group": "control_change"}, {"time": 2456, "annotation": {"number": 64, "value": 0}, "group": "control_change"}, {"time": 2459, "annotation": {"number": 64, "value": 127}, "group": "control_change"}, {"time": 2480, "annotation": {"number": 64, "value": 0}, "group": "control_change"}, {"time": 2483, "annotation": {"number": 64, "value": 127}, "group": "control_change"}, {"time": 2504, "annotation": {"number": 64, "value": 0}, "group": "control_change"}, {"time": 2506, "annotation": {"number": 64, "value": 127}, "group": "control_change"}, {"time": 2527, "annotation": {"number": 64, "value": 0}, "group": "control_change"}, {"time": 2529, "annotation": {"number": 64, "value": 127}, "group": "control_change"}, {"time": 2552, "annotation": {"number": 64, "value": 0}, "group": "control_change"}, {"time": 2554, "annotation": {"number": 64, "value": 127}, "group": "control_change"}, {"time": 2599, "annotation": {"number": 64, "value": 0}, "group": "control_change"}, {"time": 2623, "annotation": {"number": 64, "value": 0}, "group": "control_change"}, {"time": 2627, "annotation": {"number": 64, "value": 127}, "group": "control_change"}, {"time": 2648, "annotation": {"number": 64, "value": 0}, "group": "control_change"}, {"time": 2652, "annotation": {"number": 64, "value": 127}, "group": "control_change"}, {"time": 2671, "annotation": {"number": 64, "value": 0}, "group": "control_change"}, {"time": 2674, "annotation": {"number": 64, "value": 127}, "group": "control_change"}, {"time": 2696, "annotation": {"number": 64, "value": 0}, "group": "control_change"}, {"time": 2697, "annotation": {"number": 64, "value": 127}, "group": "control_change"}, {"time": 2697, "annotation": {"number": 64, "value": 0}, "group": "control_change"}, {"time": 2698, "annotation": {"number": 64, "value": 127}, "group": "control_change"}, {"time": 2720, "annotation": {"number": 64, "value": 0}, "group": "control_change"}, {"time": 2724, "annotation": {"number": 64, "value": 127}, "group": "control_change"}, {"time": 2742, "annotation": {"number": 64, "value": 0}, "group": "control_change"}, {"time": 2745, "annotation": {"number": 64, "value": 127}, "group": "control_change"}, {"time": 2766, "annotation": {"number": 64, "value": 0}, "group": "control_change"}, {"time": 2769, "annotation": {"number": 64, "value": 127}, "group": "control_change"}, {"time": 2792, "annotation": {"number": 64, "value": 0}, "group": "control_change"}, {"time": 2796, "annotation": {"number": 64, "value": 127}, "group": "control_change"}, {"time": 2815, "annotation": {"number": 64, "value": 0}, "group": "control_change"}, {"time": 2818, "annotation": {"number": 64, "value": 127}, "group": "control_change"}, {"time": 2840, "annotation": {"number": 64, "value": 0}, "group": "control_change"}, {"time": 2842, "annotation": {"number": 64, "value": 127}, "group": "control_change"}, {"time": 2863, "annotation": {"number": 64, "value": 0}, "group": "control_change"}, {"time": 2866, "annotation": {"number": 64, "value": 127}, "group": "control_change"}, {"time": 2888, "annotation": {"number": 64, "value": 0}, "group": "control_change"}, {"time": 2892, "annotation": {"number": 64, "value": 127}, "group": "control_change"}, {"time": 2911, "annotation": {"number": 64, "value": 0}, "group": "control_change"}, {"time": 2915, "annotation": {"number": 64, "value": 127}, "group": "control_change"}, {"time": 2935, "annotation": {"number": 64, "value": 0}, "group": "control_change"}, {"time": 2937, "annotation": {"number": 64, "value": 127}, "group": "control_change"}, {"time": 2984, "annotation": {"number": 64, "value": 0}, "group": "control_change"}, {"time": 2987, "annotation": {"number": 64, "value": 127}, "group": "control_change"}, {"time": 3009, "annotation": {"number": 64, "value": 0}, "group": "control_change"}, {"time": 3011, "annotation": {"number": 64, "value": 127}, "group": "control_change"}, {"time": 3031, "annotation": {"number": 64, "value": 0}, "group": "control_change"}, {"time": 3033, "annotation": {"number": 64, "value": 127}, "group": "control_change"}, {"time": 3056, "annotation": {"number": 64, "value": 0}, "group": "control_change"}, {"time": 3058, "annotation": {"number": 64, "value": 127}, "group": "control_change"}, {"time": 3078, "annotation": {"number": 64, "value": 0}, "group": "control_change"}, {"time": 3081, "annotation": {"number": 64, "value": 127}, "group": "control_change"}, {"time": 3104, "annotation": {"number": 64, "value": 0}, "group": "control_change"}, {"time": 3106, "annotation": {"number": 64, "value": 127}, "group": "control_change"}, {"time": 3126, "annotation": {"number": 64, "value": 0}, "group": "control_change"}, {"time": 3128, "annotation": {"number": 64, "value": 127}, "group": "control_change"}, {"time": 3151, "annotation": {"number": 64, "value": 0}, "group": "control_change"}, {"time": 3153, "annotation": {"number": 64, "value": 127}, "group": "control_change"}, {"time": 3176, "annotation": {"number": 64, "value": 0}, "group": "control_change"}, {"time": 3178, "annotation": {"number": 64, "value": 127}, "group": "control_change"}, {"time": 3200, "annotation": {"number": 64, "value": 0}, "group": "control_change"}, {"time": 3202, "annotation": {"number": 64, "value": 127}, "group": "control_change"}, {"time": 3224, "annotation": {"number": 64, "value": 0}, "group": "control_change"}, {"time": 3226, "annotation": {"number": 64, "value": 127}, "group": "control_change"}, {"time": 3270, "annotation": {"number": 64, "value": 0}, "group": "control_change"}, {"time": 3273, "annotation": {"number": 64, "value": 127}, "group": "control_change"}, {"time": 3296, "annotation": {"number": 64, "value": 0}, "group": "control_change"}, {"time": 3298, "annotation": {"number": 64, "value": 127}, "group": "control_change"}, {"time": 3321, "annotation": {"number": 64, "value": 0}, "group": "control_change"}, {"time": 3321, "annotation": {"number": 64, "value": 127}, "group": "control_change"}, {"time": 3322, "annotation": {"number": 64, "value": 0}, "group": "control_change"}, {"time": 3322, "annotation": {"number": 64, "value": 127}, "group": "control_change"}, {"time": 3345, "annotation": {"number": 64, "value": 0}, "group": "control_change"}, {"time": 3346, "annotation": {"number": 64, "value": 127}, "group": "control_change"}, {"time": 3366, "annotation": {"number": 64, "value": 0}, "group": "control_change"}, {"time": 3369, "annotation": {"number": 64, "value": 127}, "group": "control_change"}, {"time": 3415, "annotation": {"number": 64, "value": 0}, "group": "control_change"}, {"time": 3422, "annotation": {"number": 64, "value": 127}, "group": "control_change"}, {"time": 3422, "annotation": {"number": 64, "value": 0}, "group": "control_change"}, {"time": 3438, "annotation": {"number": 64, "value": 0}, "group": "control_change"}, {"time": 3439, "annotation": {"number": 64, "value": 0}, "group": "control_change"}, {"time": 3443, "annotation": {"number": 64, "value": 127}, "group": "control_change"}, {"time": 3464, "annotation": {"number": 64, "value": 0}, "group": "control_change"}, {"time": 3468, "annotation": {"number": 64, "value": 127}, "group": "control_change"}, {"time": 3487, "annotation": {"number": 64, "value": 0}, "group": "control_change"}, {"time": 3490, "annotation": {"number": 64, "value": 127}, "group": "control_change"}, {"time": 3512, "annotation": {"number": 64, "value": 0}, "group": "control_change"}, {"time": 3513, "annotation": {"number": 64, "value": 127}, "group": "control_change"}, {"time": 3513, "annotation": {"number": 64, "value": 0}, "group": "control_change"}, {"time": 3514, "annotation": {"number": 64, "value": 127}, "group": "control_change"}, {"time": 3536, "annotation": {"number": 64, "value": 0}, "group": "control_change"}, {"time": 3540, "annotation": {"number": 64, "value": 127}, "group": "control_change"}, {"time": 3558, "annotation": {"number": 64, "value": 0}, "group": "control_change"}, {"time": 3561, "annotation": {"number": 64, "value": 127}, "group": "control_change"}, {"time": 3582, "annotation": {"number": 64, "value": 0}, "group": "control_change"}, {"time": 3585, "annotation": {"number": 64, "value": 127}, "group": "control_change"}, {"time": 3608, "annotation": {"number": 64, "value": 0}, "group": "control_change"}, {"time": 3612, "annotation": {"number": 64, "value": 127}, "group": "control_change"}, {"time": 3631, "annotation": {"number": 64, "value": 0}, "group": "control_change"}, {"time": 3634, "annotation": {"number": 64, "value": 127}, "group": "control_change"}, {"time": 3656, "annotation": {"number": 64, "value": 0}, "group": "control_change"}, {"time": 3658, "annotation": {"number": 64, "value": 127}, "group": "control_change"}, {"time": 3679, "annotation": {"number": 64, "value": 0}, "group": "control_change"}, {"time": 3682, "annotation": {"number": 64, "value": 127}, "group": "control_change"}, {"time": 3704, "annotation": {"number": 64, "value": 0}, "group": "control_change"}, {"time": 3708, "annotation": {"number": 64, "value": 127}, "group": "control_change"}, {"time": 3727, "annotation": {"number": 64, "value": 0}, "group": "control_change"}, {"time": 3731, "annotation": {"number": 64, "value": 127}, "group": "control_change"}, {"time": 3751, "annotation": {"number": 64, "value": 0}, "group": "control_change"}, {"time": 3753, "annotation": {"number": 64, "value": 127}, "group": "control_change"}, {"time": 3800, "annotation": {"number": 64, "value": 0}, "group": "control_change"}, {"time": 3823, "annotation": {"number": 64, "value": 0}, "group": "control_change"}, {"time": 3827, "annotation": {"number": 64, "value": 127}, "group": "control_change"}, {"time": 3848, "annotation": {"number": 64, "value": 0}, "group": "control_change"}, {"time": 3852, "annotation": {"number": 64, "value": 127}, "group": "control_change"}, {"time": 3871, "annotation": {"number": 64, "value": 0}, "group": "control_change"}, {"time": 3874, "annotation": {"number": 64, "value": 127}, "group": "control_change"}, {"time": 3896, "annotation": {"number": 64, "value": 0}, "group": "control_change"}, {"time": 3897, "annotation": {"number": 64, "value": 127}, "group": "control_change"}, {"time": 3897, "annotation": {"number": 64, "value": 0}, "group": "control_change"}, {"time": 3898, "annotation": {"number": 64, "value": 127}, "group": "control_change"}, {"time": 3920, "annotation": {"number": 64, "value": 0}, "group": "control_change"}, {"time": 3924, "annotation": {"number": 64, "value": 127}, "group": "control_change"}, {"time": 3942, "annotation": {"number": 64, "value": 0}, "group": "control_change"}, {"time": 3945, "annotation": {"number": 64, "value": 127}, "group": "control_change"}, {"time": 3966, "annotation": {"number": 64, "value": 0}, "group": "control_change"}, {"time": 3969, "annotation": {"number": 64, "value": 127}, "group": "control_change"}, {"time": 3992, "annotation": {"number": 64, "value": 0}, "group": "control_change"}, {"time": 4009, "annotation": {"number": 64, "value": 127}, "group": "control_change"}, {"time": 4015, "annotation": {"number": 64, "value": 0}, "group": "control_change"}, {"time": 4019, "annotation": {"number": 64, "value": 127}, "group": "control_change"}, {"time": 4040, "annotation": {"number": 64, "value": 0}, "group": "control_change"}, {"time": 4045, "annotation": {"number": 64, "value": 127}, "group": "control_change"}, {"time": 4087, "annotation": {"number": 64, "value": 0}, "group": "control_change"}, {"time": 4093, "annotation": {"number": 64, "value": 127}, "group": "control_change"}, {"time": 4093, "annotation": {"number": 64, "value": 0}, "group": "control_change"}, {"time": 4116, "annotation": {"number": 64, "value": 0}, "group": "control_change"}, {"time": 4121, "annotation": {"number": 64, "value": 127}, "group": "control_change"}, {"time": 4134, "annotation": {"number": 64, "value": 0}, "group": "control_change"}, {"time": 4141, "annotation": {"number": 64, "value": 127}, "group": "control_change"}, {"time": 4184, "annotation": {"number": 64, "value": 0}, "group": "control_change"}, {"time": 4192, "annotation": {"number": 64, "value": 127}, "group": "control_change"}, {"time": 4207, "annotation": {"number": 64, "value": 0}, "group": "control_change"}, {"time": 4214, "annotation": {"number": 64, "value": 127}, "group": "control_change"}, {"time": 4231, "annotation": {"number": 64, "value": 0}, "group": "control_change"}, {"time": 4236, "annotation": {"number": 64, "value": 127}, "group": "control_change"}, {"time": 4255, "annotation": {"number": 64, "value": 0}, "group": "control_change"}, {"time": 4260, "annotation": {"number": 64, "value": 127}, "group": "control_change"}, {"time": 4283, "annotation": {"number": 64, "value": 127}, "group": "control_change"}, {"time": 4304, "annotation": {"number": 64, "value": 0}, "group": "control_change"}, {"time": 4306, "annotation": {"number": 64, "value": 127}, "group": "control_change"}, {"time": 4306, "annotation": {"number": 64, "value": 0}, "group": "control_change"}, {"time": 4326, "annotation": {"number": 64, "value": 0}, "group": "control_change"}, {"time": 4332, "annotation": {"number": 64, "value": 127}, "group": "control_change"}, {"time": 4379, "annotation": {"number": 64, "value": 0}, "group": "control_change"}, {"time": 4383, "annotation": {"number": 64, "value": 127}, "group": "control_change"}, {"time": 4436, "annotation": {"number": 64, "value": 0}, "group": "control_change"}, {"time": 4439, "annotation": {"number": 64, "value": 127}, "group": "control_change"}, {"time": 4484, "annotation": {"number": 64, "value": 0}, "group": "control_change"}, {"time": 4489, "annotation": {"number": 64, "value": 127}, "group": "control_change"}, {"time": 4538, "annotation": {"number": 64, "value": 0}, "group": "control_change"}, {"time": 4542, "annotation": {"number": 64, "value": 127}, "group": "control_change"}]}]}